OnsetTime	OffsetTime	MidiPitch	Velocity
0.500004	2.19917	37	20
0.870377	1.86811	44	21
1.20371	3.16517	56	22
1.53704	2.8477	49	23
1.86811	2.53024	44	24
2.19917	4.11758	37	26
2.53024	3.79821	44	27
2.8477	3.48201	49	28
3.16517	5.09003	56	29
3.48201	4.76509	49	31
3.79821	4.44016	44	32
4.11758	6.0699	37	33
4.44016	5.74294	44	34
4.76509	5.41597	49	34
5.09003	7.03383	56	33
5.41597	6.71636	49	32
5.74294	6.3989	44	31
6.0699	8.05967	37	30
6.3989	7.68903	44	30
6.71636	7.3513	49	29
7.03383	8.60901	56	28
7.3513	8.60901	49	27
7.68903	8.45571	44	26
8.05967	8.60901	37	25
8.45571	9.86351	44	26
8.45571	10.5471	76	52
8.83404	9.53631	49	25
9.19365	10.5471	56	26
9.53631	10.5471	49	27
9.86351	10.5055	44	28
10.1867	10.5471	37	29
10.5055	11.7818	44	28
10.5055	11.4579	77	51
10.8229	11.4579	49	29
11.1404	12.4944	59	30
11.4579	12.4944	49	30
11.4579	12.4637	77	54
11.7818	12.4637	44	31
12.1165	12.4944	37	32
12.4637	13.7893	44	33
12.4637	14.4293	77	56
12.81	13.4693	49	31
13.1448	14.4153	59	30
13.4693	14.4153	49	30
13.7893	14.4153	44	29
14.1093	14.4293	37	28
14.4293	15.7145	45	28
14.4293	18.3593	78	55
14.7493	15.3893	49	28
15.0693	16.3938	57	28
15.3893	16.3938	49	28
15.7145	16.3938	45	28
16.0398	16.3938	37	28
16.3938	17.7486	45	32
16.7357	17.4196	50	29
17.0777	18.3593	57	29
17.4196	18.3593	50	28
17.4196	18.3593	76	55
17.7486	18.3593	45	27
18.0776	18.4066	37	26
18.1599	18.4066	74	51
18.4066	19.7604	45	25
18.4066	20.4928	73	51
18.7404	19.4111	50	24
19.0757	20.5676	57	24
19.4111	20.5676	50	24
19.4111	20.5676	72	51
19.7604	20.5676	45	24
20.1225	20.5676	37	24
20.4928	21.8517	44	26
20.4928	22.5706	73	53
20.8347	21.5185	52	24
21.1766	22.5706	61	23
21.5185	22.5706	52	23
21.5185	23.556	80	56
21.8517	22.5706	44	23
22.1849	22.5706	37	23
22.5181	24.305	35	26
22.8564	23.9164	47	24
23.202	24.8824	63	24
23.556	24.8824	57	24
23.556	24.8824	80	54
23.9164	24.8824	47	24
23.9164	24.8824	78	51
24.305	24.8824	35	24
24.5203	24.7425	76	49
24.7425	26.774	40	26
24.7425	26.7327	76	53
25.0889	26.0855	47	27
25.4243	26.774	64	28
25.7577	26.774	56	28
26.0855	26.774	47	29
26.4107	26.774	39	30
26.7327	28.3013	37	31
26.7327	27.6696	76	52
27.0476	27.9773	44	32
27.3601	28.6588	56	33
27.6696	28.6588	49	34
27.6696	28.6588	76	56
27.9773	28.6298	44	35
28.3013	28.6588	37	36
28.6298	29.9341	44	39
28.6298	30.5871	77	63
28.9597	29.6115	49	39
29.2869	30.5728	59	38
29.6115	30.5728	49	38
29.9341	30.5728	44	37
30.2593	30.5871	37	37
30.5871	31.8809	45	36
30.5871	34.5022	78	63
30.9123	31.553	49	36
31.2343	32.5366	57	35
31.553	32.5366	49	34
31.8809	32.5366	45	34
32.2088	32.5366	37	33
32.5366	33.8914	45	30
32.8786	33.5624	50	28
33.2205	34.5022	57	26
33.5624	34.5022	50	27
33.5624	34.5022	76	48
33.8914	34.5022	45	25
34.2204	34.5494	37	25
34.3027	34.5494	74	45
34.5494	35.8773	45	25
34.5494	40.7505	73	43
34.8773	35.5331	50	24
35.2052	37.2665	57	24
35.5331	36.9331	50	24
35.5331	40.8846	72	42
35.8773	36.5734	45	24
36.2209	38.2469	37	24
36.5734	37.9216	45	26
36.9331	37.5958	50	24
37.2665	39.2514	57	23
37.5958	38.9117	50	23
37.9216	38.5721	45	23
38.2469	40.3085	37	23
38.5721	39.9458	45	26
38.9117	39.5911	50	24
39.2514	40.8846	57	24
39.5911	40.8846	50	24
39.9458	40.8846	45	24
40.3085	40.8846	37	24
40.7505	42.0812	44	34
40.7505	42.7651	73	57
40.7505	42.7651	85	57
41.0858	42.7651	56	28
41.4212	42.7651	61	28
41.7547	42.7651	52	28
41.7547	42.7651	80	60
42.0812	42.7651	44	29
42.4031	42.7206	37	29
42.7206	44.3652	37	31
42.7206	43.3771	78	59
43.0596	44.0299	44	24
43.0596	44.851	80	52
43.3771	44.851	60	24
43.3771	44.851	78	52
43.6945	44.851	54	24
43.6945	44.851	76	56
44.0299	44.851	44	24
44.3652	44.7169	37	24
44.449	44.851	75	54
44.7169	46.3695	37	27
44.7169	46.7341	73	62
45.0522	46.0456	44	27
45.3876	46.7341	61	28
45.7204	46.7341	52	29
46.0456	46.7341	44	29
46.3695	46.6921	37	30
46.6921	48.3047	37	30
46.6921	48.7721	75	57
47.0121	47.9734	44	31
47.3321	48.7721	60	32
47.6521	48.7721	54	32
47.9734	48.7721	44	33
48.3047	48.638	37	33
48.638	50.2725	37	34
48.638	50.6371	76	62
48.9733	49.9525	44	29
49.3087	50.6371	61	30
49.3925	50.5925	78	63
49.6325	50.6371	52	30
49.6325	50.6371	80	65
49.9525	50.6371	44	30
50.2725	50.6371	37	30
50.5925	52.3202	32	26
50.5925	52.8503	78	58
50.9322	51.9564	44	24
51.2719	52.8503	60	24
51.6116	52.8503	54	24
51.6116	52.8503	74	56
51.9564	52.8503	44	24
52.3202	52.8503	32	24
52.7058	54.3947	37	26
52.7058	54.7732	73	59
53.0599	54.0614	44	23
53.3947	54.7732	61	24
53.728	54.7732	52	24
54.0614	54.7732	44	24
54.3947	54.728	37	24
54.728	56.4504	37	26
54.728	56.9735	68	51
55.0722	56.115	44	24
55.4164	56.9735	60	24
55.7797	56.9735	54	24
55.7797	56.9735	80	59
56.115	56.9735	44	24
56.4504	56.8393	37	24
56.8393	58.5044	37	34
56.8393	58.8702	85	60
57.1747	58.1772	44	32
57.51	58.8702	61	32
57.8454	58.8702	52	32
57.8454	58.8702	80	59
58.1772	58.8702	44	31
58.5044	58.8282	37	31
58.8282	60.4589	37	26
58.8282	59.4682	78	58
59.1482	60.1236	44	24
59.1482	60.9496	80	52
59.4682	60.9496	60	24
59.4682	60.9496	78	52
59.7882	60.9496	54	24
59.7882	60.9496	76	56
60.1236	60.9496	44	24
60.4589	60.8155	37	24
60.5428	60.9496	75	54
60.8155	62.4746	37	26
60.8155	62.8351	73	62
61.1508	62.1508	44	26
61.4862	62.8351	61	27
61.8215	62.8351	52	27
62.1508	62.8351	44	28
62.4746	62.8351	37	29
62.7928	64.3874	32	29
62.7928	64.8522	75	57
63.1147	64.0609	44	30
63.4322	64.8522	60	30
63.7447	64.8522	54	31
64.0609	64.8522	44	32
64.3874	64.8522	32	32
64.718	66.3745	37	35
64.718	66.7443	76	62
65.0534	66.0493	44	34
65.3887	66.7443	61	33
65.4726	66.6997	78	63
65.7241	66.7443	52	32
65.7241	66.7443	80	65
66.0493	66.7443	44	31
66.3745	66.7443	37	29
66.6997	68.9577	42	26
66.6997	68.9577	78	58
67.0394	68.9577	50	24
67.379	68.9577	57	24
67.7187	68.9577	44	24
67.7187	68.9577	74	56
68.0658	68.9577	54	24
68.4312	68.9577	60	24
68.8178	70.4872	37	26
68.8178	73.2007	73	62
69.1634	70.1566	44	23
69.4954	70.8629	61	24
69.826	70.8629	52	24
70.1566	70.8629	44	24
70.4872	70.8177	37	24
70.8177	72.5906	37	26
71.1619	72.2037	44	24
71.5061	73.2007	56	24
71.8504	73.2007	49	24
72.2037	73.0283	44	24
72.5906	73.2007	37	24
73.0283	74.4187	44	26
73.0283	75.0607	76	54
73.4357	74.0915	49	26
73.774	75.1023	56	26
74.0915	75.1023	49	27
74.4187	75.0607	44	28
74.7419	75.1023	37	28
75.0607	76.3293	44	29
75.0607	76.0131	76	51
75.3781	76.0131	49	29
75.6956	77.0087	56	30
76.0131	77.0087	49	30
76.0131	77.0087	76	54
76.3293	76.9797	44	31
76.6519	77.0087	37	32
76.9797	78.2622	44	32
76.9797	78.6528	71	48
76.9797	78.916	77	56
77.309	77.9497	49	32
77.6322	78.9006	56	31
77.9497	78.9006	49	30
77.9497	78.9006	73	53
78.2622	78.9006	44	30
78.5747	78.916	37	29
78.6528	78.916	71	49
78.916	80.5616	42	28
78.916	80.9111	71	50
78.916	82.9608	78	55
79.245	80.2275	49	27
79.574	80.9111	61	27
79.903	80.9111	54	26
79.903	80.9111	69	51
80.2275	80.9111	49	25
80.5616	80.9111	42	23
80.6456	80.9111	68	48
80.9111	82.5694	30	26
80.9111	85.0774	66	50
81.2501	82.2404	42	24
81.5835	82.9608	57	24
81.9114	82.9608	50	24
81.9114	82.9608	76	56
82.2404	82.9608	42	24
82.5694	82.9608	30	24
82.6516	82.9608	74	55
82.9125	84.6323	32	26
82.9125	85.0027	73	54
83.2486	84.2703	44	24
83.5847	85.0774	56	24
83.9209	85.0774	51	24
83.9209	85.0774	72	51
84.2703	85.0774	44	24
84.6323	85.0774	32	24
85.0027	87.0823	64	45
85.0027	87.0823	73	54
85.0112	86.6948	37	26
85.3488	86.3615	44	24
85.6864	87.0823	61	23
86.0283	87.0823	52	23
86.0283	89.5317	80	60
86.3615	87.0823	44	23
86.6948	87.0823	37	23
87.028	88.9447	35	26
87.028	87.4525	69	41
87.238	88.1249	71	39
87.3804	88.528	47	24
87.4525	87.8958	69	39
87.6717	89.376	68	41
87.7457	89.5317	63	24
87.8958	89.5317	69	39
88.1249	89.5317	57	24
88.1249	89.5317	71	42
88.1249	89.5317	78	54
88.528	89.5317	47	24
88.9447	89.5317	35	24
89.0511	89.5317	66	40
89.376	91.4402	40	30
89.376	93.3695	68	46
89.376	91.3982	76	54
89.7546	90.751	47	31
90.0953	91.4402	64	31
90.4231	91.4402	56	32
90.751	91.4402	47	32
91.0762	91.4402	39	33
91.3982	93.0086	37	34
91.3982	92.3582	76	54
91.7182	92.6807	44	34
92.0382	93.3695	56	35
92.3582	93.3695	49	35
92.3582	93.3695	76	58
92.6807	93.3695	44	36
93.0086	93.3406	37	36
93.3406	94.9584	37	37
93.3406	95.0403	71	55
93.3406	95.3058	77	62
93.6705	94.6332	44	37
93.9957	95.2903	61	36
94.3157	95.2903	53	35
94.3157	95.2903	73	56
94.6332	95.2903	44	34
94.9584	95.3058	37	33
95.0403	95.3058	71	51
95.3058	96.9066	37	32
95.3058	97.2469	71	54
95.3058	99.2314	78	60
95.631	96.5892	45	31
95.953	97.2469	61	30
96.2717	97.2469	54	29
96.2717	97.2469	69	57
96.5892	97.2469	45	29
96.9066	97.2469	37	28
96.986	97.2469	68	52
97.2469	98.9307	37	26
97.2469	101.242	66	53
97.5888	98.6017	45	24
97.9307	99.2314	57	24
98.2727	99.2314	50	24
98.2727	99.2314	76	56
98.6017	99.2314	45	24
98.9307	99.2832	37	24
99.0129	99.2832	74	55
99.2832	100.915	37	26
99.2832	101.278	73	54
99.6084	100.587	45	24
99.9336	101.278	57	24
100.259	101.278	50	24
100.259	103.422	72	52
100.587	101.278	45	24
100.915	101.242	37	24
101.242	102.92	37	26
101.242	103.422	66	41
101.576	102.581	45	22
101.909	103.422	57	24
102.242	103.422	50	27
102.242	103.422	64	45
102.581	103.422	45	23
102.92	103.275	37	23
103.005	103.422	62	34
103.275	105.035	37	26
103.275	105.49	61	40
103.615	104.651	45	24
103.955	105.49	57	24
104.294	105.49	50	24
104.294	105.49	60	36
104.651	105.448	45	24
105.035	105.49	37	24
105.448	107.546	45	26
105.833	107.21	50	22
106.19	106.872	57	24
106.532	110.273	62	27
106.872	108.213	57	23
107.21	107.88	50	23
107.546	108.876	45	26
107.88	108.545	50	24
108.213	109.92	57	25
108.545	109.564	50	24
108.876	111.643	45	24
109.216	113.376	37	24
109.564	111.978	50	26
109.92	111.307	57	23
110.273	110.967	62	25
110.623	113.726	66	27
110.967	113.726	62	23
111.307	112.318	57	23
111.643	113.013	45	26
111.978	112.661	50	24
112.318	113.726	57	24
112.661	113.726	50	26
113.013	113.726	45	24
113.376	113.726	37	24
113.726	115.244	36	31
113.726	114.494	56	32
113.726	115.244	63	32
113.726	115.244	66	32
113.726	114.494	68	38
113.91	114.095	43	26
114.085	114.262	44	26
114.251	114.423	45	26
114.413	114.585	44	26
114.494	114.737	56	33
114.494	114.737	68	38
114.575	114.748	45	26
114.737	114.917	44	26
114.737	115.244	56	34
114.737	115.244	68	41
114.906	115.085	45	26
115.075	115.244	44	26
115.244	116.689	37	30
115.244	116.689	56	34
115.244	115.961	61	41
115.244	116.689	68	41
115.403	115.572	43	26
115.562	115.732	44	27
115.722	115.891	45	27
115.881	116.052	44	27
115.961	116.204	64	38
116.042	116.214	45	27
116.204	116.376	44	27
116.204	116.689	61	39
116.366	116.538	45	27
116.528	116.689	44	27
116.689	118.104	39	33
116.689	117.395	56	39
116.689	118.104	60	39
116.689	117.395	68	47
116.854	117.022	43	33
117.013	117.176	44	29
117.166	117.329	45	29
117.319	117.481	44	29
117.395	117.624	56	38
117.395	117.624	68	45
117.472	117.634	45	29
117.624	117.794	44	30
117.624	118.104	56	40
117.624	118.104	68	48
117.784	117.954	45	30
117.944	118.104	44	29
118.104	119.484	40	34
118.104	119.484	56	40
118.104	118.794	61	48
118.104	119.484	68	48
118.258	118.42	43	30
118.411	118.574	44	30
118.564	118.727	45	30
118.717	118.88	44	30
118.794	119.024	64	45
118.871	119.033	45	30
119.024	119.187	44	30
119.024	119.484	61	45
119.177	119.34	45	30
119.33	119.484	44	30
119.484	120.827	41	45
119.484	120.163	61	45
119.484	120.827	68	45
119.484	120.827	71	45
119.484	120.163	73	55
119.642	119.805	48	45
119.796	119.954	49	40
119.945	120.099	50	41
120.09	120.245	49	41
120.163	120.381	61	45
120.163	120.381	73	53
120.236	120.39	50	41
120.381	120.539	49	41
120.381	120.827	61	46
120.381	120.827	73	55
120.53	120.688	50	41
120.678	120.827	49	40
120.827	122.151	42	46
120.827	122.151	61	46
120.827	121.484	66	57
120.827	122.151	73	57
120.973	121.128	48	41
121.119	121.274	49	43
121.265	121.42	50	44
121.411	121.566	49	44
121.484	121.703	69	56
121.557	121.712	50	44
121.703	121.862	49	44
121.703	122.151	66	57
121.852	122.011	50	44
122.002	122.151	49	44
122.151	123.453	44	55
122.151	122.807	61	56
122.151	123.453	65	56
122.151	122.807	73	66
122.303	122.461	48	55
122.452	122.604	49	49
122.596	122.745	50	49
122.736	122.886	49	50
122.807	123.018	61	54
122.807	123.018	73	65
122.877	123.027	50	50
123.018	123.172	49	50
123.018	123.453	61	57
123.018	123.453	73	67
123.163	123.317	50	50
123.308	123.453	49	50
123.453	124.792	45	58
123.453	124.792	61	58
123.453	124.087	66	69
123.453	124.792	73	69
123.594	123.743	48	51
123.735	123.884	49	52
123.875	124.025	50	52
124.016	124.166	49	52
124.087	124.298	69	71
124.157	124.307	50	53
124.298	124.449	49	54
124.298	124.792	66	73
124.44	124.598	50	54
124.588	124.792	49	54
124.792	126.138	36	65
124.792	126.138	48	65
124.792	125.584	68	66
124.792	126.138	75	66
124.792	126.138	78	66
124.792	125.584	80	78
124.976	126.138	55	65
125.123	125.407	56	58
125.266	125.548	57	58
125.407	125.695	56	58
125.548	126.138	57	58
125.584	125.695	68	61
125.584	125.695	80	74
125.695	125.99	56	58
125.695	126.138	68	66
125.695	126.138	80	78
125.842	126.138	63	58
125.99	126.138	56	56
126.138	127.429	37	66
126.138	127.429	49	66
126.138	127.429	68	66
126.138	127.0	73	66
126.138	127.429	80	78
126.281	127.429	55	58
126.423	126.709	56	59
126.566	126.852	57	59
126.709	127.0	56	59
126.852	127.429	57	59
126.887	127.429	76	79
127.0	127.285	56	59
127.0	127.429	73	79
127.143	127.429	64	59
127.285	127.429	56	59
127.429	128.746	39	65
127.429	128.746	51	65
127.429	128.171	68	66
127.429	128.746	72	66
127.429	128.171	80	78
127.575	128.746	55	65
127.718	127.997	56	58
127.858	128.137	57	58
127.997	128.279	56	58
128.137	128.746	57	58
128.171	128.279	68	61
128.171	128.279	80	74
128.279	128.566	56	58
128.279	128.71	68	66
128.279	128.71	80	78
128.423	128.746	66	58
128.566	128.746	56	56
128.71	130.025	40	66
128.71	130.025	52	66
128.71	129.708	68	66
128.71	129.566	73	78
128.71	130.025	80	78
128.852	130.025	55	58
128.994	129.278	56	59
129.136	129.419	57	59
129.278	129.566	56	59
129.419	130.025	57	59
129.455	130.025	76	79
129.566	129.861	56	59
129.566	130.025	73	79
129.708	130.025	68	59
129.861	130.025	56	59
130.025	131.33	41	68
130.025	131.33	53	68
130.025	130.772	73	69
130.025	131.33	80	69
130.025	131.33	83	69
130.025	130.772	85	80
130.176	131.33	60	68
130.318	130.598	61	59
130.459	130.737	62	59
130.598	130.887	61	60
130.737	131.33	62	60
130.772	130.887	73	53
130.772	130.887	85	78
130.887	131.182	61	60
130.887	131.035	73	59
130.887	131.035	85	71
131.035	131.33	67	60
131.035	131.182	73	62
131.035	131.182	85	73
131.182	131.33	61	59
131.182	131.33	73	68
131.182	131.33	85	80
131.33	132.634	42	72
131.33	132.634	54	72
131.33	132.634	73	71
131.33	132.192	78	75
131.33	132.634	85	82
131.473	132.634	60	61
131.615	131.901	61	65
131.758	132.044	62	65
131.901	132.192	61	65
132.044	132.634	62	65
132.08	132.634	81	84
132.192	132.482	61	66
132.192	132.634	78	84
132.335	132.634	69	66
132.482	132.634	61	66
132.634	133.971	44	74
132.634	133.971	56	74
132.634	133.202	73	79
132.634	133.971	77	79
132.634	133.202	85	93
132.779	133.971	60	74
132.922	133.202	61	66
133.063	133.341	62	66
133.202	133.488	61	68
133.202	133.341	73	59
133.202	133.341	85	71
133.341	133.971	62	68
133.341	133.488	73	61
133.341	133.488	85	71
133.488	133.787	61	69
133.488	133.637	73	63
133.488	133.637	85	73
133.637	133.971	68	69
133.637	133.787	73	63
133.637	133.787	85	75
133.787	133.971	61	66
133.787	133.936	73	64
133.787	133.936	85	78
133.936	135.249	45	79
133.936	135.249	57	79
133.936	134.933	73	79
133.936	134.792	78	93
133.936	135.249	85	93
134.078	135.249	60	70
134.22	134.503	61	71
134.362	134.645	62	71
134.503	134.792	61	72
134.645	135.249	62	72
134.681	135.249	81	90
134.792	135.086	61	72
134.792	135.249	78	90
134.933	135.249	73	72
135.086	135.249	61	73
135.249	135.332	34	79
135.249	136.076	76	88
135.249	136.076	79	88
135.249	136.076	85	88
135.249	136.076	88	103
135.413	136.653	49	69
135.573	136.653	37	69
135.729	136.653	52	69
135.902	136.653	40	69
136.037	136.653	55	69
136.076	136.191	76	81
136.076	136.191	79	81
136.076	136.191	85	84
136.076	136.191	88	99
136.191	136.653	43	70
136.191	136.653	76	87
136.191	136.653	79	87
136.191	136.653	85	87
136.191	136.653	88	102
136.345	136.653	58	69
136.499	136.653	46	69
136.653	137.977	47	72
136.653	137.074	76	80
136.653	137.074	80	95
136.653	137.977	88	95
136.793	137.22	59	70
136.934	137.811	56	69
137.074	137.51	64	68
137.074	137.51	76	76
137.074	137.51	80	91
137.074	137.977	83	91
137.22	137.661	59	66
137.365	137.977	68	65
137.51	137.977	64	63
137.51	137.955	71	73
137.51	137.977	76	86
137.51	137.902	80	86
137.661	137.977	59	60
137.811	137.977	56	59
137.902	137.977	80	79
137.955	139.292	35	60
137.955	138.386	69	74
137.955	138.386	71	74
137.955	138.828	75	87
137.955	138.828	78	87
138.099	139.137	47	61
138.243	138.533	54	63
138.386	138.828	59	65
138.386	138.828	69	75
138.386	138.828	71	75
138.386	139.292	73	75
138.386	139.292	76	88
138.533	138.982	54	66
138.681	139.292	63	67
138.828	139.292	59	68
138.828	139.292	69	75
138.828	139.292	71	75
138.828	139.292	75	89
138.828	139.292	78	89
138.982	139.292	54	69
139.137	139.292	47	70
139.292	139.751	40	71
139.292	140.737	68	75
139.292	140.328	76	90
139.292	140.737	80	90
139.444	140.328	52	66
139.596	140.065	47	66
139.751	140.226	40	74
139.907	140.328	56	68
139.986	140.328	75	91
140.065	140.328	47	70
140.226	140.392	40	78
140.226	140.737	74	94
140.392	140.737	59	71
140.562	140.737	47	73
140.737	140.814	39	79
140.737	141.548	68	88
140.737	141.548	72	88
140.737	141.548	75	88
140.737	141.548	80	103
140.89	143.193	51	69
141.042	141.351	39	69
141.195	143.03	56	69
141.351	141.665	39	69
141.508	142.879	60	69
141.548	141.665	68	81
141.548	141.665	72	81
141.548	141.665	75	84
141.548	141.665	80	99
141.665	141.979	39	70
141.665	142.136	68	87
141.665	142.136	72	87
141.665	142.136	75	87
141.665	142.136	80	102
141.822	142.282	63	69
141.979	143.356	39	69
142.136	142.575	68	72
142.136	142.429	72	85
142.136	142.803	75	85
142.136	143.543	80	100
142.282	142.727	63	70
142.429	142.803	72	69
142.575	142.803	68	68
142.727	143.03	63	66
142.803	143.03	68	72
142.803	143.03	72	86
142.803	143.519	75	86
142.879	143.543	60	65
143.03	143.543	56	63
143.03	143.519	63	69
143.03	143.543	68	81
143.03	143.519	72	81
143.193	143.543	51	60
143.356	143.543	39	59
143.519	144.996	27	57
143.519	144.467	61	72
143.519	144.809	63	72
143.519	144.467	67	85
143.519	144.852	72	85
143.519	144.996	75	85
143.672	144.467	39	56
143.826	144.295	46	56
143.979	144.996	55	56
144.133	144.638	51	56
144.21	144.996	70	76
144.295	144.996	46	55
144.467	144.996	39	54
144.467	144.996	61	63
144.467	144.996	67	63
144.467	144.996	73	75
144.638	144.996	51	54
144.809	144.996	63	53
144.852	144.996	72	71
144.996	146.425	32	52
144.996	146.425	60	50
144.996	146.425	68	59
145.159	145.468	51	47
145.313	145.624	44	46
145.468	145.782	51	45
145.624	145.942	44	44
145.782	146.103	51	42
145.942	146.264	44	46
146.103	146.425	51	40
146.264	146.425	44	39
146.425	146.726	52	52
146.425	147.746	61	44
146.425	147.092	69	54
146.576	146.873	44	35
146.726	147.019	52	35
146.873	147.165	44	35
147.019	147.311	52	35
147.092	147.311	69	53
147.165	147.456	44	35
147.311	147.601	52	36
147.311	147.746	69	53
147.456	147.746	44	36
147.601	147.746	52	36
147.746	148.036	44	44
147.746	149.085	60	45
147.746	149.085	69	56
147.891	148.181	51	48
148.036	148.327	44	37
148.181	148.473	51	37
148.327	148.62	44	37
148.4	149.085	68	55
148.473	148.768	51	37
148.62	148.923	44	37
148.62	149.085	63	56
148.768	149.085	51	37
148.923	149.085	44	38
149.085	149.375	53	56
149.085	150.364	62	48
149.085	149.73	71	59
149.231	149.518	44	38
149.375	149.659	53	38
149.518	149.8	44	38
149.659	149.942	53	39
149.73	149.942	71	58
149.8	150.083	44	39
149.942	150.223	53	39
149.942	150.364	71	58
150.083	150.364	44	39
150.223	150.364	53	39
150.364	150.645	44	48
150.364	151.664	63	50
150.364	151.664	71	61
150.504	150.787	54	50
150.645	150.928	44	40
150.787	151.07	54	40
150.928	151.213	44	40
150.999	151.664	70	60
151.07	151.357	54	40
151.213	151.508	44	41
151.213	151.664	75	61
151.357	151.664	54	41
151.508	151.664	44	41
151.664	151.948	53	55
151.664	152.911	62	52
151.664	152.294	71	65
151.807	152.088	44	42
151.948	152.226	53	42
152.088	152.363	44	42
152.226	152.501	53	42
152.294	152.501	71	63
152.363	152.638	44	42
152.501	152.775	53	43
152.501	152.911	71	63
152.638	152.911	44	43
152.775	152.911	53	43
152.911	153.184	44	46
152.911	153.732	63	56
152.911	154.159	71	69
153.047	153.32	54	55
153.184	153.457	44	44
153.32	153.594	54	44
153.457	153.732	44	44
153.526	154.159	70	67
153.594	153.871	54	44
153.732	154.015	44	44
153.732	154.159	63	67
153.871	154.159	54	44
154.015	154.159	44	45
154.159	154.438	55	59
154.159	155.374	64	57
154.159	154.778	73	71
154.299	154.575	44	45
154.438	154.71	55	45
154.575	154.845	44	45
154.71	154.978	55	46
154.778	154.978	73	69
154.845	155.11	44	46
154.978	155.242	55	46
154.978	155.374	73	70
155.11	155.374	44	46
155.242	155.374	55	46
155.374	155.637	44	51
155.374	156.583	65	60
155.374	156.583	73	74
155.505	155.769	56	62
155.637	155.902	44	49
155.769	156.034	56	48
155.902	156.167	44	48
155.968	156.583	72	73
156.034	156.302	56	48
156.167	156.44	44	49
156.167	156.583	77	73
156.302	156.583	56	49
156.44	156.583	44	49
156.583	156.86	55	67
156.583	157.766	64	62
156.583	157.19	73	77
156.724	156.993	44	50
156.86	157.125	55	50
156.993	157.255	44	50
157.125	157.383	55	50
157.19	157.383	73	75
157.255	157.511	44	50
157.383	157.638	55	51
157.383	157.766	73	76
157.511	157.766	44	51
157.638	157.766	55	51
157.766	158.02	44	58
157.766	158.53	65	64
157.766	158.956	73	80
157.893	158.148	56	69
158.02	158.275	44	52
158.148	158.403	56	52
158.275	158.53	44	52
158.339	158.94	72	78
158.403	158.662	56	52
158.53	158.799	44	53
158.53	158.956	65	79
158.662	158.956	56	53
158.799	158.956	44	54
158.94	159.195	57	64
158.94	159.324	66	67
158.94	159.324	72	67
158.94	159.324	75	80
159.067	159.324	44	60
159.195	159.452	57	60
159.324	159.582	44	60
159.324	159.711	66	67
159.324	159.711	72	67
159.324	159.711	75	80
159.452	159.711	57	61
159.582	159.843	44	61
159.711	159.976	57	61
159.711	160.108	66	68
159.711	160.108	72	68
159.711	160.108	75	82
159.843	160.108	44	61
159.976	160.108	57	62
160.108	160.511	44	56
160.108	160.511	57	67
160.108	160.511	66	70
160.108	160.511	72	70
160.108	160.511	75	83
160.511	160.933	44	58
160.511	161.446	57	68
160.511	160.933	66	73
160.511	160.933	72	73
160.511	161.446	75	86
160.933	161.446	44	60
160.933	161.446	56	71
160.933	161.446	66	76
160.933	161.446	72	76
160.933	161.446	76	91
161.446	161.807	49	59
161.446	161.807	56	59
161.446	161.807	61	72
161.446	162.118	68	73
161.446	161.807	73	78
161.446	162.473	77	92
161.807	162.118	49	47
161.807	162.118	56	47
161.807	162.118	61	57
161.807	162.118	65	71
161.807	162.473	73	85
162.118	162.473	49	47
162.118	162.473	56	47
162.118	162.443	61	57
162.118	162.473	65	68
162.118	162.473	68	80
162.443	164.27	54	54
162.443	163.721	61	64
162.443	164.27	66	71
162.443	163.439	70	85
162.76	163.359	42	62
163.07	163.359	30	62
163.398	164.27	37	62
163.398	163.721	65	59
163.398	163.479	68	66
163.439	163.868	70	66
163.479	163.721	68	65
163.559	164.27	67	69
163.721	163.868	49	46
163.721	163.868	56	46
163.721	163.868	61	55
163.721	163.868	65	58
163.721	164.27	68	70
163.868	164.014	49	46
163.868	164.014	56	46
163.868	164.014	61	55
163.868	164.014	65	60
163.868	164.27	70	73
164.014	164.159	49	46
164.014	164.159	56	46
164.014	164.159	61	56
164.014	164.159	65	62
164.014	164.27	72	74
164.159	164.27	49	47
164.159	164.27	56	47
164.159	164.27	61	57
164.159	164.27	65	64
164.159	164.27	73	76
164.313	164.609	49	49
164.313	164.609	57	49
164.313	164.609	60	59
164.313	164.609	66	67
164.313	164.609	74	80
164.609	164.923	49	51
164.609	164.923	57	51
164.609	164.923	60	61
164.609	164.923	66	70
164.609	164.923	75	83
164.923	165.276	49	52
164.923	165.276	56	52
164.923	165.276	60	62
164.923	165.276	66	73
164.923	165.276	76	87
165.276	165.624	49	57
165.276	165.624	56	57
165.276	165.624	61	69
165.276	165.93	68	76
165.276	165.624	73	76
165.276	166.276	77	89
165.624	165.93	49	47
165.624	165.93	56	47
165.624	165.93	61	57
165.624	165.93	65	71
165.624	166.276	73	85
165.93	166.276	49	47
165.93	166.276	56	47
165.93	166.245	61	57
165.93	166.276	65	68
165.93	166.276	68	80
166.245	168.08	54	54
166.245	167.523	61	64
166.245	168.08	66	71
166.245	167.241	70	85
166.563	167.162	42	62
166.873	167.162	30	62
167.201	168.08	37	62
167.201	167.523	65	59
167.201	167.282	68	66
167.241	167.67	70	66
167.282	167.523	68	65
167.362	168.08	67	61
167.523	167.67	49	46
167.523	167.67	56	46
167.523	167.67	61	55
167.523	167.67	65	58
167.523	168.08	68	70
167.67	167.815	49	46
167.67	167.815	56	46
167.67	167.815	61	55
167.67	167.815	65	60
167.67	168.08	70	73
167.815	167.96	49	46
167.815	167.96	56	46
167.815	167.96	61	56
167.815	167.96	65	62
167.815	168.08	72	74
167.96	168.08	49	47
167.96	168.08	56	47
167.96	168.08	61	57
167.96	168.08	65	64
167.96	168.08	73	76
168.127	168.431	49	39
168.127	168.431	55	49
168.127	168.431	65	55
168.127	168.431	71	67
168.431	168.758	48	41
168.431	168.758	55	50
168.431	168.758	64	58
168.431	168.758	72	69
168.758	169.131	48	37
168.758	169.131	55	37
168.758	169.131	59	45
168.758	169.131	65	53
168.758	169.131	74	63
169.131	169.488	48	26
169.131	169.488	55	26
169.131	169.488	60	32
169.131	169.488	64	35
169.131	170.196	76	42
169.488	169.822	48	22
169.488	169.822	55	22
169.488	169.822	60	26
169.488	169.822	64	33
169.488	170.196	72	39
169.822	170.196	48	22
169.822	170.196	55	22
169.822	170.164	60	26
169.822	170.196	64	31
169.822	170.196	67	37
170.164	172.039	53	25
170.164	171.485	60	30
170.164	172.039	65	33
170.164	171.203	69	39
170.498	171.122	41	28
170.822	171.122	29	28
171.162	172.039	36	37
171.162	171.485	64	35
171.162	171.243	67	39
171.203	171.632	69	39
171.243	171.485	67	38
171.323	172.039	66	37
171.485	171.632	48	27
171.485	171.632	55	27
171.485	171.632	60	32
171.485	171.632	64	35
171.485	172.039	67	42
171.632	171.779	48	28
171.632	171.779	55	28
171.632	171.779	60	33
171.632	171.779	64	36
171.632	172.039	69	44
171.779	171.924	48	28
171.779	171.924	55	28
171.779	171.924	60	33
171.779	171.924	64	37
171.779	172.039	71	44
171.924	172.039	48	29
171.924	172.039	55	29
171.924	172.039	60	34
171.924	172.039	64	39
171.924	172.039	72	46
172.083	172.385	48	28
172.083	172.385	56	28
172.083	172.385	59	35
172.083	172.385	65	39
172.083	172.385	73	47
172.385	172.705	48	30
172.385	172.705	56	30
172.385	172.705	59	37
172.385	172.705	65	42
172.385	172.705	74	50
172.705	173.036	48	31
172.705	173.036	55	31
172.705	173.036	59	39
172.705	173.036	65	45
172.705	173.036	75	54
173.036	173.368	48	36
173.036	173.368	55	36
173.036	173.368	60	44
173.036	173.368	64	48
173.036	173.368	76	57
173.368	173.684	48	30
173.368	173.684	55	30
173.368	173.684	60	36
173.368	173.684	64	46
173.368	173.684	72	55
173.684	173.987	48	30
173.684	173.987	55	30
173.684	173.987	60	36
173.684	173.987	64	42
173.684	173.987	67	51
173.987	174.273	56	36
173.987	174.273	59	44
173.987	174.273	65	48
173.987	174.273	74	59
174.273	174.565	57	38
174.273	174.565	60	46
174.273	174.565	66	52
174.273	174.565	75	63
174.565	174.857	59	40
174.565	174.857	62	49
174.565	174.857	68	57
174.565	174.857	77	68
174.857	175.156	60	45
174.857	175.156	63	55
174.857	175.156	69	61
174.857	175.156	78	72
175.156	175.45	60	39
175.156	175.45	63	47
175.156	175.45	69	59
175.156	175.45	75	72
175.45	175.739	60	41
175.45	175.739	63	49
175.45	175.739	69	77
175.739	176.019	59	46
175.739	176.019	62	55
175.739	176.019	68	66
175.739	176.019	77	78
176.019	176.308	60	48
176.019	176.308	63	57
176.019	176.308	69	69
176.019	176.308	78	82
176.308	176.605	62	51
176.308	176.605	65	60
176.308	176.605	71	73
176.308	176.605	80	86
176.605	176.912	63	48
176.605	176.912	66	57
176.605	176.912	72	74
176.605	176.912	81	87
176.912	177.212	63	51
176.912	177.212	66	60
176.912	177.212	69	75
176.912	177.212	72	75
176.912	177.212	81	89
177.212	177.522	63	53
177.212	177.522	66	63
177.212	177.522	69	76
177.212	177.522	72	76
177.212	177.522	81	91
177.522	177.838	63	56
177.522	177.838	66	66
177.522	177.838	69	78
177.522	177.838	72	78
177.522	177.838	81	93
177.838	178.159	63	58
177.838	178.159	66	69
177.838	178.159	69	80
177.838	178.159	72	80
177.838	178.159	81	95
178.159	178.486	61	61
178.159	178.486	66	73
178.159	178.486	69	81
178.159	178.486	73	81
178.159	178.486	81	96
178.486	179.949	60	64
178.486	179.949	66	76
178.486	179.314	69	84
178.486	178.843	76	84
178.486	179.314	81	99
178.843	179.949	75	89
179.314	179.949	68	59
179.314	179.949	78	85
179.314	179.949	80	85
179.949	180.956	48	73
179.949	180.956	60	86
180.317	180.956	49	77
180.317	180.956	61	91
180.621	180.956	50	81
180.621	180.956	62	96
180.93	181.441	52	84
180.93	181.441	64	99
181.441	181.633	51	79
181.441	181.633	63	94
181.633	181.815	49	79
181.633	181.815	61	93
181.815	181.991	48	78
181.815	181.991	60	92
181.991	182.702	45	77
181.991	182.702	57	91
182.162	182.492	44	77
182.162	182.492	56	91
182.327	182.702	43	76
182.327	182.702	55	90
182.492	182.702	44	71
182.492	182.702	56	84
182.677	182.765	47	74
182.677	182.765	59	88
182.852	182.939	45	74
182.852	182.939	57	88
183.025	183.111	44	74
183.025	183.111	56	88
183.196	183.282	42	73
183.196	183.282	54	87
183.366	183.45	40	73
183.366	183.45	52	87
183.535	183.62	39	73
183.535	183.62	51	87
183.705	183.791	37	73
183.705	183.791	49	86
183.878	183.971	36	73
183.878	183.971	48	86
184.074	184.192	39	73
184.074	184.192	51	86
184.334	185.194	33	86
184.334	185.194	45	102
185.194	185.612	32	78
185.194	185.612	44	92
185.612	186.028	31	82
185.612	186.028	43	97
186.028	186.445	32	82
186.028	186.445	44	97
186.445	186.852	27	83
186.445	186.852	39	98
186.852	187.448	30	79
186.852	187.448	42	94
187.448	187.679	28	76
187.448	187.679	40	90
187.679	189.378	37	102
188.049	189.047	44	38
188.382	190.344	56	39
188.716	190.026	49	41
189.047	189.709	44	43
189.378	191.296	37	45
189.709	190.977	44	47
190.026	190.661	49	46
190.344	192.269	56	44
190.661	191.944	49	43
190.977	191.619	44	42
191.296	193.248	37	40
191.619	192.921	44	42
191.944	192.595	49	40
192.269	194.212	56	38
192.595	193.895	49	36
192.921	193.577	44	34
193.248	195.238	37	31
193.577	194.868	44	30
193.895	194.53	49	29
194.212	195.783	56	28
194.53	195.783	49	27
194.868	195.633	44	26
195.238	195.783	37	25
195.633	196.992	44	26
195.633	197.676	76	52
195.997	196.665	49	25
196.332	197.676	56	26
196.665	197.676	49	27
196.992	197.634	44	28
197.315	197.676	37	29
197.634	198.908	44	28
197.634	198.587	77	51
197.952	198.587	49	29
198.269	199.594	59	30
198.587	199.594	49	30
198.587	199.566	77	54
198.908	199.566	44	31
199.235	199.594	37	32
199.566	200.865	44	33
199.566	201.505	77	56
199.893	200.545	49	31
200.22	201.491	59	30
200.545	201.491	49	30
200.865	201.491	44	29
201.185	201.505	37	28
201.505	202.79	45	28
201.505	205.406	78	55
201.825	202.465	49	28
202.145	203.441	57	28
202.465	203.441	49	28
202.79	203.441	45	28
203.116	203.441	37	28
203.441	204.796	45	32
203.783	204.467	50	29
204.125	205.406	57	29
204.467	205.406	50	28
204.467	205.406	76	55
204.796	205.406	45	27
205.125	205.454	37	26
205.207	205.454	74	51
205.454	206.808	45	25
205.454	207.589	73	51
205.787	206.458	50	24
206.123	207.681	57	24
206.458	207.681	50	24
206.458	207.681	72	51
206.808	207.681	45	24
207.18	207.681	37	24
207.589	208.979	44	26
207.589	209.727	73	54
207.977	208.646	52	24
208.313	209.727	61	23
208.646	209.727	52	23
208.646	212.198	80	60
208.979	209.727	44	23
209.313	209.727	37	23
209.396	209.671	69	36
209.671	211.621	35	26
209.671	210.105	69	41
209.886	210.792	71	39
210.032	211.2	47	24
210.105	210.554	69	39
210.327	212.043	68	41
210.402	212.198	63	24
210.554	212.198	69	39
210.792	212.198	57	24
210.792	212.198	71	40
210.792	212.198	78	54
211.2	212.198	47	24
211.621	212.198	35	24
211.729	212.198	66	40
212.043	214.1	40	30
212.043	216.029	68	46
212.043	214.058	76	54
212.416	213.411	47	31
212.752	214.1	64	31
213.083	214.1	56	32
213.411	214.1	47	32
213.736	214.1	39	33
214.058	215.668	37	34
214.058	215.018	76	54
214.378	215.341	44	34
214.698	216.029	56	35
215.018	216.029	49	35
215.018	216.029	76	58
215.341	216.029	44	36
215.668	216.0	37	36
216.0	217.618	37	37
216.0	217.7	71	55
216.0	217.966	77	62
216.33	217.293	44	37
216.656	217.95	61	36
216.976	217.95	53	35
216.976	217.95	73	56
217.293	217.95	44	34
217.618	217.966	37	33
217.7	217.966	71	51
217.966	219.566	37	32
217.966	219.907	71	55
217.966	221.891	78	60
218.291	219.249	45	31
218.613	219.907	61	30
218.932	219.907	54	29
218.932	219.907	69	57
219.249	219.907	45	29
219.566	219.907	37	28
219.646	219.907	68	52
219.907	221.591	37	26
219.907	223.902	66	53
220.249	221.262	45	24
220.591	221.891	57	24
220.933	221.891	50	24
220.933	221.891	76	56
221.262	221.891	45	24
221.591	221.943	37	24
221.673	221.943	74	55
221.943	223.574	37	26
221.943	223.938	73	54
222.268	223.247	45	24
222.593	223.938	57	24
222.919	223.938	50	24
222.919	226.082	72	52
223.247	223.938	45	24
223.574	223.902	37	24
223.902	225.58	37	31
223.902	226.082	66	60
224.236	225.241	45	26
224.569	226.082	57	28
224.902	226.082	50	32
224.902	226.082	64	58
225.241	226.082	45	27
225.58	225.935	37	27
225.665	226.082	62	47
225.935	227.67	37	31
225.935	228.053	61	57
226.275	227.309	45	28
226.615	228.104	57	28
226.954	228.104	50	28
226.954	228.104	60	56
227.309	228.104	45	28
227.67	228.053	37	28
228.053	229.872	37	35
228.053	228.811	61	61
228.439	229.521	44	25
228.811	230.284	61	30
229.17	230.284	53	27
229.17	230.284	73	45
229.17	230.284	77	54
229.521	230.284	44	27
229.872	230.223	37	27
230.223	231.953	37	31
230.223	232.368	66	40
230.223	232.038	70	48
230.573	231.614	44	28
230.924	232.368	60	32
231.275	232.368	51	28
231.275	232.368	72	54
231.275	232.368	75	54
231.614	232.368	44	27
231.953	232.321	37	27
232.038	232.368	70	47
232.321	234.074	37	37
232.321	234.479	65	42
232.321	234.479	68	50
232.681	233.729	44	26
233.035	234.479	58	34
233.385	234.479	49	26
233.385	234.479	70	43
233.385	234.479	73	51
233.729	234.479	44	26
234.074	234.419	37	26
234.419	236.126	37	29
234.419	236.589	63	40
234.419	236.21	66	48
234.764	235.79	44	26
235.109	236.589	56	33
235.454	236.589	48	26
235.454	236.54	68	42
235.454	236.589	72	50
235.79	236.589	44	26
236.126	236.54	37	26
236.21	236.589	66	35
236.21	236.589	70	42
236.54	238.431	37	35
236.54	238.858	65	40
236.54	238.858	68	47
236.913	238.067	44	25
237.287	238.858	61	30
237.659	238.858	53	25
237.659	241.105	73	40
237.659	241.105	77	47
238.067	238.858	44	25
238.431	238.795	37	25
238.795	240.65	37	28
238.795	241.105	66	36
238.795	241.105	70	44
239.158	240.262	44	25
239.522	241.105	60	31
239.886	241.105	51	25
239.886	243.458	72	38
239.886	243.458	75	45
240.262	241.105	44	25
240.65	241.052	37	25
241.052	243.012	37	33
241.052	243.458	65	36
241.052	243.458	68	43
241.452	242.632	44	24
241.852	243.458	58	29
242.252	243.458	49	23
242.252	245.416	70	37
242.252	245.832	73	45
242.632	243.458	44	23
243.012	243.391	37	23
243.391	245.317	37	26
243.391	245.832	63	35
243.391	245.416	66	42
243.771	244.924	44	24
244.15	245.832	56	28
244.53	245.832	48	23
244.53	245.77	68	36
244.53	245.832	72	43
244.924	245.832	44	23
245.317	245.77	37	23
245.416	245.832	66	34
245.416	245.832	70	40
245.77	247.896	37	31
245.77	251.192	65	35
245.77	251.114	68	42
246.246	247.483	44	22
246.658	249.181	56	27
247.071	248.745	49	22
247.483	248.307	44	22
247.896	250.608	37	22
248.307	250.111	44	31
248.745	249.636	49	26
249.181	251.192	56	28
249.636	251.192	49	30
250.111	251.192	44	32
250.608	251.192	37	35
251.114	253.712	42	42
251.114	252.199	61	50
251.114	254.422	68	50
251.114	254.267	70	59
251.711	253.212	49	30
252.199	254.267	61	31
252.705	254.422	54	33
253.212	254.422	49	35
253.712	254.422	42	36
254.267	258.604	30	44
254.267	255.382	61	56
254.267	258.445	66	56
254.267	258.604	70	66
254.856	256.612	49	37
255.382	258.604	61	37
255.945	258.604	54	37
256.612	258.604	49	37
257.445	258.604	42	37
258.445	290.183	25	55
258.445	290.183	66	56
258.445	290.183	68	56
258.445	290.183	73	66
259.354	269.695	37	44
260.044	266.452	44	46
260.734	266.452	49	48
261.432	266.452	56	50
262.242	269.695	61	51
263.209	269.695	65	58
266.452	290.183	44	22
266.452	290.183	49	22
266.452	290.183	53	22
266.452	290.183	56	27
269.695	290.183	37	25
269.695	290.183	61	27
269.695	290.183	65	33
