OnsetTime	OffsetTime	MidiPitch	Velocity
1.43038	2.03924	56	40
1.43038	2.03924	63	45
1.43038	2.02955	68	45
1.43038	2.02955	72	57
2.02955	3.89031	61	42
2.02955	3.89031	65	47
2.02955	3.89031	68	47
2.02955	3.42803	72	59
3.42512	3.89031	70	56
4.35549	4.97636	61	40
4.35549	4.96377	65	45
4.35549	4.97636	67	50
4.35549	4.97636	70	50
4.35549	4.96377	77	63
4.96377	6.82451	60	40
4.96377	6.3632	65	45
4.96377	6.82451	68	52
4.96377	6.82451	72	52
4.96377	6.3632	77	65
6.35932	6.82451	63	43
6.35932	6.82451	75	60
7.05711	7.6708	56	42
7.05711	7.6708	60	43
7.05711	7.65964	63	54
7.25796	7.65964	51	44
7.25796	7.6708	68	56
7.4588	7.6708	48	45
7.4588	7.6708	72	58
7.65964	8.56815	46	37
7.65964	8.55184	51	37
7.65964	8.56815	55	42
7.65964	8.56815	61	48
7.65964	8.55184	63	48
7.65964	8.56815	67	48
7.65964	8.56815	73	60
8.55184	9.07991	44	40
8.55184	9.07358	51	40
8.55184	9.07991	56	45
8.55184	9.07991	60	50
8.55184	9.07358	63	50
8.55184	9.07991	68	50
8.55184	9.07991	72	63
9.07358	9.96365	43	41
9.07358	9.96365	51	41
9.07358	9.96365	55	46
9.07358	9.96365	58	51
9.07358	9.96365	63	51
9.07358	9.94251	70	64
9.94251	10.5902	41	43
9.94251	10.5765	46	43
9.94251	10.5902	53	48
9.94251	10.5765	62	54
9.94251	10.5765	68	54
9.94251	10.5765	70	54
9.94251	10.5765	74	67
10.5765	12.5623	39	45
10.5765	12.5623	46	45
10.5765	12.5623	51	51
10.5765	12.101	62	56
10.5765	12.101	68	56
10.5765	12.5623	70	56
10.5765	12.101	74	70
12.0971	12.5623	63	40
12.0971	12.5623	67	40
12.0971	12.5623	75	51
13.0275	13.6433	56	37
13.0275	13.6433	63	42
13.0275	13.6297	68	42
13.0275	13.6297	72	53
13.6297	15.4905	61	41
13.6297	15.4905	65	46
13.6297	15.4905	68	46
13.6297	15.0311	72	58
15.0253	15.4905	70	50
15.9556	16.605	37	40
15.9556	16.605	49	45
15.9556	16.5896	67	63
15.9556	16.605	71	63
15.9556	16.5896	77	79
16.5896	18.4394	36	44
16.5896	18.4394	48	49
16.5896	18.4394	67	68
16.5896	18.4394	72	68
16.5896	17.9868	77	85
17.9742	18.4394	76	51
18.9046	19.4491	60	32
18.9046	19.4491	64	36
18.9046	19.4422	67	41
18.9046	19.4491	72	46
18.9046	19.4491	76	52
19.4422	20.3971	58	40
19.4422	20.3884	63	40
19.4422	20.3971	67	45
19.4422	20.3971	73	45
19.4422	20.3884	75	57
20.3884	20.9102	56	42
20.3884	20.9102	63	42
20.3884	20.9102	68	47
20.3884	20.9102	72	47
20.3884	20.9102	75	59
20.9102	21.8586	49	45
20.9102	21.8586	65	51
20.9102	21.8586	70	51
20.9102	21.8586	73	64
21.8406	22.4679	51	38
21.8406	22.4679	61	47
21.8406	22.4679	67	42
21.8406	22.473	72	53
22.0948	22.4679	70	51
22.4679	24.4351	44	28
22.4679	24.4351	51	31
22.4679	23.9587	61	34
22.4679	23.9587	67	34
22.4679	23.9587	70	44
23.9433	24.4351	60	25
23.9433	24.4351	68	33
24.9971	25.6379	52	25
24.9971	25.6379	56	25
24.9971	25.6379	59	28
24.9971	25.6379	62	32
24.9971	25.6379	68	32
24.9971	25.6379	71	40
25.6379	27.0369	52	25
25.6379	27.4891	56	25
25.6379	27.4891	59	28
25.6379	27.0369	62	32
25.6379	27.4891	68	32
25.6379	27.4891	71	40
27.0263	27.4891	51	22
27.0263	27.4891	63	28
27.952	28.5257	49	27
27.952	28.5257	56	27
27.952	28.5257	59	30
27.952	28.5257	64	36
27.952	28.5257	68	36
27.952	28.5257	71	45
28.5257	29.9209	49	28
28.5257	30.377	56	28
28.5257	30.377	59	32
28.5257	29.9209	64	39
28.5257	30.377	68	39
28.5257	30.377	71	49
29.9142	30.377	47	21
29.9142	30.377	63	29
30.8398	31.3634	47	33
30.8398	31.3548	56	29
30.8398	31.3634	59	33
30.8398	31.3634	63	41
30.8398	31.3548	68	41
30.8398	31.3634	71	52
31.3548	32.7955	49	35
31.3548	33.7528	56	35
31.3548	33.7528	58	39
31.3548	33.7459	64	46
31.3548	33.7528	68	46
31.3548	32.5641	70	58
31.8698	32.7955	76	65
32.5641	32.7955	70	51
32.7955	33.2786	46	36
32.7955	33.2786	75	57
33.0331	33.2786	73	55
33.2707	33.7528	47	37
33.2707	33.7528	71	55
33.7459	34.3117	49	35
33.7459	34.3117	61	41
33.7459	34.3117	64	41
33.7459	34.3117	70	52
34.2982	36.1495	51	35
34.2982	35.6972	59	39
34.2982	36.1495	63	39
34.2982	35.6972	68	49
35.6866	36.1495	58	27
35.6866	36.1495	67	35
36.6123	37.1857	52	22
36.6123	37.1857	56	22
36.6123	37.1857	59	25
36.6123	37.1857	62	28
36.6123	37.1857	68	28
36.6123	37.1857	71	36
37.1857	38.5799	52	22
37.1857	39.0369	56	22
37.1857	39.0369	59	25
37.1857	38.5799	62	28
37.1857	39.0369	68	28
37.1857	39.0369	71	36
38.5741	39.0369	51	19
38.5741	39.0369	63	25
39.4998	40.0759	49	28
39.4998	40.0759	56	28
39.4998	40.0759	59	32
39.4998	40.0759	64	38
39.4998	40.0759	68	38
39.4998	40.0759	71	48
40.0759	41.4769	49	27
40.0759	41.9272	56	27
40.0759	41.9272	59	31
40.0759	41.4769	64	35
40.0759	41.9272	68	35
40.0759	41.9272	71	44
41.4644	41.9272	47	18
41.4644	41.9272	63	30
42.39	42.9118	47	34
42.39	42.9118	52	34
42.39	42.9118	56	34
42.39	42.9118	59	38
42.39	42.9118	64	40
42.39	42.9118	68	40
42.39	42.9118	71	50
42.9118	44.4595	47	39
42.9118	44.4595	52	39
42.9118	44.4595	56	39
42.9118	44.4595	59	44
42.9118	45.9195	64	45
42.9118	44.4595	68	45
42.9118	44.0835	71	56
43.4451	44.1374	76	70
44.1374	44.3261	71	60
44.3261	44.4595	71	55
44.4595	45.9047	47	37
44.4595	45.9195	52	37
44.4595	45.9047	56	37
44.4595	45.9195	59	42
44.4595	45.9195	75	73
44.697	45.9195	73	70
44.9359	45.9195	71	67
45.4182	45.9195	68	65
45.9047	47.3522	47	35
45.9047	47.4071	53	35
45.9047	47.4071	56	39
45.9047	47.3522	61	49
45.9047	47.1169	65	62
46.411	47.3522	73	70
47.1169	47.4071	65	58
47.3522	48.7874	47	38
47.3522	47.8368	54	38
47.3522	47.8368	57	43
47.3522	47.8368	61	56
47.3522	47.8368	66	56
47.3522	47.5879	73	70
47.5879	47.8368	69	70
47.8249	48.3133	56	38
47.8249	48.3032	59	43
47.8249	48.3133	64	56
47.8249	48.3133	68	70
48.3032	48.8016	57	38
48.3032	48.7874	59	43
48.3032	48.8016	63	54
48.3032	48.8016	66	67
48.7874	50.189	40	41
48.7874	50.1958	47	41
48.7874	50.1958	52	46
48.7874	50.1958	56	53
48.7874	50.1958	59	53
48.7874	49.763	64	66
49.763	50.189	64	51
49.8954	50.1958	68	55
50.0278	50.1958	71	59
50.189	51.5968	40	46
50.189	51.1288	61	55
50.189	51.1147	64	55
50.189	51.1288	67	55
50.189	51.1288	70	69
51.1147	51.3667	59	45
51.1147	51.3667	64	45
51.1147	51.3667	68	45
51.1147	51.3667	71	57
51.3566	51.6023	66	44
51.4776	51.6023	68	44
51.5968	52.9793	40	33
51.5968	52.2805	45	37
51.5968	52.2805	60	44
51.5968	52.9965	63	49
51.5968	52.2805	69	49
52.2718	52.504	47	35
52.2718	52.504	59	42
52.2718	52.504	68	47
52.504	52.9965	48	33
52.504	52.9965	57	39
52.504	52.9965	66	44
52.9793	54.323	40	24
52.9793	54.3702	47	27
52.9793	54.3702	56	32
52.9793	53.8969	64	41
53.8969	54.323	64	51
54.0293	54.3702	68	55
54.1617	54.3702	71	59
54.323	55.7384	40	46
54.323	55.2629	61	55
54.323	55.2486	64	55
54.323	55.2629	67	62
54.323	55.2629	70	69
55.2486	55.5048	59	40
55.2486	55.5048	64	40
55.2486	55.5048	68	40
55.2486	55.5048	71	51
55.4935	55.7519	66	43
55.616	55.7519	68	43
55.7384	57.2235	40	31
55.7384	56.4617	45	35
55.7384	56.4617	60	41
55.7384	57.2263	63	41
55.7384	56.4617	69	46
56.4544	56.705	47	32
56.4544	56.705	59	36
56.4544	56.705	68	41
56.705	57.2263	48	29
56.705	57.2263	57	37
56.705	57.2263	66	37
57.2235	58.6412	40	23
57.2235	58.6412	47	26
57.2235	58.6412	56	31
57.2235	58.6343	64	35
58.1465	58.6343	68	43
58.6343	59.5718	52	28
58.6343	59.5718	59	32
58.6343	59.5718	64	39
58.6343	59.5718	68	49
59.5718	60.0847	52	23
59.5718	60.0847	59	26
59.5718	60.0847	64	35
59.5718	60.0847	68	44
60.0847	61.0208	52	28
60.0847	61.0374	59	32
60.0847	61.0374	64	50
60.0847	61.0208	68	50
60.7846	61.0374	63	45
61.0208	61.5914	52	22
61.0208	61.5914	56	25
61.0208	61.5914	62	42
61.0208	61.5914	68	42
61.5914	63.4376	51	28
61.5914	63.4376	58	32
61.5914	63.876	63	35
61.5914	63.0434	68	44
62.9761	63.6684	67	39
63.6684	63.876	68	39
63.876	64.0836	70	42
64.0836	64.2912	72	45
64.2912	65.1514	51	28
64.2912	65.1514	53	28
64.2912	65.1514	56	28
64.2912	65.1514	61	32
64.2912	65.1514	65	38
64.2912	65.1514	68	38
64.2912	65.1514	73	48
65.1514	65.5815	51	28
65.1514	65.595	53	28
65.1514	65.595	56	28
65.1514	65.5815	61	32
65.1514	65.595	65	39
65.1514	65.595	68	39
65.1514	65.595	73	49
65.5815	66.475	51	32
65.5815	66.475	55	32
65.5815	66.475	58	32
65.5815	66.475	61	36
65.5815	66.475	67	40
65.5815	66.475	70	40
65.5815	65.6974	75	55
65.6974	65.8132	73	50
65.8132	65.929	72	50
65.929	66.0449	73	50
66.0449	66.475	75	51
66.475	67.017	51	27
66.475	67.0006	63	31
66.475	67.0006	67	39
66.475	67.0006	70	49
67.0006	68.8539	56	29
67.0006	68.8539	63	33
67.0006	68.4678	67	40
67.0006	68.4678	70	40
67.0006	68.4678	73	50
68.3906	68.8539	68	36
68.3906	68.8539	72	45
69.3173	69.8384	56	51
69.3173	69.8384	60	51
69.3173	69.8384	65	57
69.3173	69.8384	68	64
69.3173	69.8384	72	64
69.3173	69.8384	77	80
69.8384	70.7475	56	51
69.8384	70.7475	60	51
69.8384	70.7475	65	57
69.8384	70.7475	68	64
69.8384	70.7475	72	64
69.8384	70.7475	77	80
70.7475	71.3208	56	51
70.7475	71.3208	60	51
70.7475	71.3208	65	57
70.7475	71.3208	68	64
70.7475	71.3208	72	64
70.7475	71.3208	77	80
71.3208	72.2299	56	54
71.3208	72.2299	60	61
71.3208	72.2299	68	69
71.3208	72.2299	72	69
71.3208	72.2602	80	86
72.0027	72.2602	67	64
72.0027	72.2602	79	80
72.2299	72.8246	56	48
72.2299	72.8246	60	54
72.2299	72.7488	65	60
72.2299	72.8246	68	60
72.2299	72.8246	72	60
72.2299	72.7488	77	75
72.7488	75.5842	55	51
72.7488	75.5842	58	51
72.7488	75.5842	61	51
72.7488	75.0356	65	57
72.7488	75.5842	67	64
72.7488	75.5842	70	64
72.7488	75.5842	73	64
72.7488	75.0356	77	80
75.0215	75.5842	64	44
75.0215	75.5842	76	54
75.5842	78.2094	55	32
75.5842	78.2094	63	36
75.5842	78.2094	70	42
75.5842	77.2365	75	47
76.6011	77.2365	74	43
77.2094	78.2094	73	37
78.2094	78.8303	56	32
78.2094	78.8303	63	36
78.2094	78.8177	68	36
78.2094	78.8177	72	45
78.8177	80.6784	61	33
78.8177	80.6784	65	37
78.8177	80.6784	68	37
78.8177	80.2161	72	47
80.2132	80.6784	70	44
81.1436	81.7436	61	32
81.1436	81.7339	65	36
81.1436	81.7436	67	40
81.1436	81.7436	70	40
81.1436	81.7339	77	50
81.7339	83.5947	60	32
81.7339	83.1489	65	36
81.7339	83.5947	68	41
81.7339	83.5947	72	41
81.7339	83.1489	77	52
83.1295	83.5947	63	34
83.1295	83.5947	75	48
83.8273	84.4298	56	37
83.8273	84.4298	60	38
83.8273	84.4298	63	48
84.0281	84.4298	51	39
84.0281	84.4298	68	50
84.229	84.4298	48	40
84.229	84.4298	72	52
84.4298	85.3407	46	33
84.4298	85.322	51	33
84.4298	85.3407	55	37
84.4298	85.3407	61	43
84.4298	85.322	63	43
84.4298	85.3407	67	43
84.4298	85.3407	73	54
85.322	85.8938	44	36
85.322	85.882	51	36
85.322	85.8938	56	40
85.322	85.8938	60	45
85.322	85.882	63	45
85.322	85.8938	68	45
85.322	85.8938	72	56
85.882	86.7679	43	36
85.882	86.7679	51	36
85.882	86.7679	55	41
85.882	86.7679	58	45
85.882	86.7679	63	45
85.882	86.7509	70	57
86.7509	87.3857	41	40
86.7509	87.3783	46	40
86.7509	87.3857	53	45
86.7509	87.3783	62	49
86.7509	87.3783	68	49
86.7509	87.3783	70	49
86.7509	87.3783	74	62
87.3783	89.3641	39	43
87.3783	89.3641	46	43
87.3783	89.3641	51	48
87.3783	88.9019	62	55
87.3783	88.9019	68	55
87.3783	89.3641	70	55
87.3783	88.9019	74	69
88.899	89.3641	63	36
88.899	89.3641	67	36
88.899	89.3641	75	45
89.8293	90.452	32	45
89.8293	90.452	44	50
89.8293	90.452	63	58
89.8293	90.4407	68	58
89.8293	90.4407	72	73
90.4407	92.2556	37	51
90.4407	92.2556	49	57
90.4407	92.2556	64	64
90.4407	92.2556	68	64
90.4407	91.797	72	81
91.5685	91.797	71	53
91.7941	92.2556	70	50
92.7172	93.2646	32	45
92.7172	93.2646	44	50
92.7172	93.2646	63	58
92.7172	93.257	68	58
92.7172	93.257	72	73
93.257	95.0532	37	51
93.257	95.0532	49	57
93.257	95.0532	64	64
93.257	95.0532	68	64
93.257	94.6141	72	81
94.3849	94.6141	71	54
94.6104	95.0532	70	51
95.4928	96.4158	38	55
95.4928	96.4158	50	62
95.4928	96.4158	64	72
95.4928	96.4158	68	72
95.4928	96.4158	71	89
96.4158	96.8653	38	56
96.4158	96.8653	50	63
96.4158	96.8653	64	72
96.4158	96.8653	68	72
96.4158	96.8653	71	90
96.8653	97.3147	38	56
96.8653	97.3147	50	63
96.8653	97.3147	64	71
96.8653	97.3147	68	71
96.8653	97.3147	71	88
97.3147	97.7673	38	54
97.3147	97.7673	50	61
97.3147	97.7543	64	66
97.3147	97.7673	68	68
97.3147	97.7673	71	85
97.7543	98.2118	37	60
97.7543	98.2118	49	67
97.7543	98.1988	64	70
97.7543	98.2118	69	74
97.7543	98.2118	73	93
98.1988	98.655	35	63
98.1988	98.655	47	70
98.1988	98.6465	64	73
98.1988	98.655	71	79
98.1988	98.655	74	98
98.6465	99.1099	33	61
98.6465	99.1099	45	72
98.6465	99.0976	64	77
98.6465	99.1099	73	79
98.6465	99.1099	76	102
99.0976	99.5608	35	59
99.0976	99.5608	47	66
99.0976	99.5488	64	71
99.0976	99.5608	71	74
99.0976	99.5608	74	93
99.5488	100.086	37	51
99.5488	100.086	49	57
99.5488	100.086	64	64
99.5488	100.086	69	64
99.5488	100.086	73	72
100.074	102.338	39	35
100.074	102.338	51	39
100.074	102.338	63	46
100.074	101.412	68	46
100.074	101.412	71	58
101.408	102.338	67	42
101.408	102.338	70	47
102.338	103.261	50	48
102.338	103.261	52	48
102.338	103.261	56	48
102.338	103.261	59	60
103.261	103.711	50	35
103.261	103.711	52	35
103.261	103.711	56	35
103.261	103.711	59	44
103.711	104.16	50	35
103.711	104.16	52	35
103.711	104.16	56	35
103.711	104.16	59	44
104.16	104.609	50	32
104.16	104.609	52	32
104.16	104.609	56	32
104.16	104.609	59	41
104.609	105.083	49	35
104.609	105.069	52	35
104.609	105.083	57	35
104.609	105.083	61	44
105.069	105.593	47	35
105.069	105.591	52	35
105.069	105.593	59	35
105.069	105.593	62	44
105.471	105.593	66	48
105.591	106.058	45	36
105.591	106.051	52	36
105.591	106.058	61	41
105.591	106.058	64	46
106.051	106.532	47	35
106.051	106.511	52	35
106.051	106.532	59	35
106.051	106.532	62	44
106.511	107.089	49	31
106.511	107.089	52	31
106.511	107.089	57	31
106.511	107.089	61	39
107.073	110.161	51	30
107.073	108.593	56	30
107.073	108.593	59	34
108.537	110.161	39	25
108.537	110.161	55	25
108.537	110.161	58	28
110.075	112.639	32	25
110.075	112.639	44	25
110.075	112.639	56	28
112.639	113.129	37	27
112.639	113.129	44	27
112.639	113.129	49	27
112.639	113.129	53	27
112.639	113.129	56	34
112.639	113.129	65	45
113.129	114.587	37	27
113.129	114.569	44	27
113.129	114.587	49	27
113.129	114.587	53	27
113.129	114.569	56	34
113.129	114.329	65	45
114.089	114.587	66	47
114.329	114.587	65	45
114.569	116.009	39	27
114.569	116.009	44	30
114.569	116.009	48	27
114.569	116.009	54	27
114.569	116.009	56	34
114.569	115.769	63	46
115.529	116.009	65	44
115.769	116.009	63	42
116.009	116.366	41	27
116.009	116.366	44	27
116.009	116.366	49	30
116.009	116.366	53	30
116.009	116.366	56	30
116.009	116.366	61	34
116.485	116.842	42	28
116.485	116.842	46	28
116.485	116.842	49	28
116.485	116.842	54	28
116.485	116.842	58	28
116.485	116.842	61	36
116.961	117.356	43	30
116.961	117.356	46	30
116.961	117.488	49	30
116.961	117.356	51	30
116.961	117.356	58	30
116.961	117.356	61	34
116.961	117.356	63	38
117.488	118.492	44	31
117.488	118.492	48	31
117.488	118.492	51	31
117.488	118.492	56	35
118.492	118.988	41	29
118.492	118.988	49	29
118.492	118.988	53	33
118.492	118.988	56	40
118.492	118.988	61	40
118.492	118.988	68	50
118.988	119.911	41	29
118.988	119.911	49	29
118.988	119.911	53	33
118.988	119.911	56	40
118.988	119.911	61	40
118.988	119.911	68	50
119.911	120.375	42	32
119.911	120.372	49	32
119.911	120.375	54	36
119.911	120.375	58	44
119.911	120.372	61	44
119.911	120.375	70	55
120.142	120.372	41	28
120.142	120.372	53	32
120.142	120.372	56	40
120.142	120.372	68	51
120.372	120.854	41	28
120.372	120.854	49	28
120.372	120.854	53	32
120.372	120.854	56	40
120.372	120.845	61	40
120.372	120.854	68	51
120.845	121.77	46	35
120.845	121.306	58	39
120.845	121.77	61	45
120.845	121.77	73	56
121.306	121.77	42	32
121.306	121.768	54	36
121.306	121.77	58	42
121.306	121.77	70	53
121.768	122.272	39	30
121.768	122.272	51	34
121.768	122.272	54	40
121.768	122.26	66	50
122.26	122.753	36	34
122.26	122.753	48	38
122.26	122.753	57	42
122.26	122.74	63	42
122.26	122.74	66	42
122.26	122.753	69	53
122.74	123.243	32	32
122.74	123.243	44	36
122.74	123.24	56	40
122.74	123.243	60	40
122.74	123.243	63	40
122.74	123.243	66	40
122.74	123.243	68	51
123.24	124.285	37	32
123.24	124.273	49	36
123.24	124.273	56	38
123.24	124.273	61	38
123.24	124.273	65	48
124.273	124.763	49	27
124.273	124.763	56	27
124.273	124.763	61	30
124.273	124.763	65	34
124.273	124.763	68	34
124.273	124.763	77	45
124.763	126.208	49	27
124.763	126.203	56	27
124.763	126.208	61	30
124.763	126.208	65	34
124.763	126.203	68	34
124.763	125.963	77	45
125.723	126.208	78	47
125.963	126.208	77	45
126.203	127.645	51	27
126.203	127.645	56	27
126.203	127.645	60	30
126.203	127.645	66	34
126.203	127.645	68	34
126.203	127.404	75	46
127.163	127.645	77	44
127.404	127.645	75	42
127.645	128.002	53	27
127.645	128.002	56	27
127.645	128.002	61	30
127.645	128.002	65	34
127.645	128.002	68	34
127.645	128.002	73	43
128.121	128.474	54	28
128.121	128.474	58	28
128.121	128.474	61	32
128.121	128.474	66	36
128.121	128.474	70	36
128.121	128.474	73	45
128.592	128.986	55	30
128.592	128.986	58	30
128.592	128.986	61	30
128.592	128.986	63	34
128.592	128.986	70	38
128.592	128.986	73	38
128.592	128.986	75	48
129.118	130.13	56	31
129.118	130.13	60	31
129.118	130.13	63	35
129.118	130.122	68	44
130.122	130.618	53	38
130.122	130.618	61	38
130.122	130.618	65	43
130.122	130.618	68	47
130.122	130.618	73	47
130.122	130.618	80	59
130.618	131.541	53	38
130.618	131.541	61	38
130.618	131.541	65	43
130.618	131.541	68	47
130.618	131.541	73	47
130.618	131.541	80	59
131.541	132.004	54	41
131.541	132.003	61	41
131.541	132.004	66	46
131.541	132.004	70	53
131.541	132.003	73	53
131.541	132.004	82	66
131.772	132.003	53	36
131.772	132.003	65	41
131.772	132.003	68	49
131.772	132.003	80	62
132.003	133.386	53	36
132.003	133.386	61	36
132.003	133.386	65	41
132.003	133.386	68	49
132.003	132.471	73	49
132.003	133.386	80	62
132.471	133.386	58	46
132.471	132.921	70	52
132.471	133.386	73	60
132.471	133.386	85	75
132.921	133.386	54	41
132.921	133.37	66	46
132.921	133.386	70	55
132.921	133.386	82	69
133.37	133.849	51	38
133.37	133.849	63	43
133.37	133.849	66	51
133.37	133.839	78	64
133.839	134.299	48	45
133.839	134.299	60	51
133.839	134.299	69	58
133.839	134.293	75	58
133.839	134.293	78	65
133.839	134.299	81	73
134.293	134.762	44	45
134.293	134.762	56	50
134.293	134.762	68	55
134.293	134.762	72	55
134.293	134.762	75	55
134.293	134.762	78	62
134.293	134.762	80	69
134.762	135.728	49	40
134.762	135.728	61	45
134.762	135.722	68	51
134.762	135.728	73	51
134.762	135.728	77	64
135.722	136.202	48	51
135.722	136.202	56	51
135.722	136.202	60	57
135.722	136.202	63	64
135.722	136.202	68	64
135.722	136.202	75	80
136.202	137.129	48	51
136.202	137.125	56	51
136.202	137.129	60	57
136.202	137.129	63	64
136.202	137.125	68	64
136.202	137.129	75	80
137.125	137.587	46	50
137.125	137.587	56	56
137.125	137.587	58	56
137.125	137.587	61	64
137.125	137.587	68	64
137.125	137.587	73	81
137.356	137.587	48	50
137.356	137.587	60	56
137.356	137.587	63	64
137.356	137.587	75	81
137.587	138.525	44	51
137.587	138.048	56	57
137.587	138.048	60	65
137.587	138.048	68	65
137.587	138.525	72	82
138.048	138.525	48	54
138.048	138.51	56	54
138.048	138.525	60	61
138.048	138.525	63	68
138.048	138.51	68	68
138.048	138.525	75	85
138.51	138.971	49	54
138.51	138.971	56	54
138.51	138.971	61	61
138.51	138.971	65	70
138.51	138.971	68	70
138.51	138.971	77	87
138.971	139.921	51	56
138.971	139.433	56	56
138.971	139.921	63	63
138.971	139.911	66	72
138.971	139.433	68	72
138.971	139.921	78	89
139.433	139.921	53	59
139.433	139.911	56	59
139.433	139.921	65	66
139.433	139.911	68	72
139.433	139.921	80	90
139.911	140.419	54	54
139.911	140.419	56	54
139.911	140.419	66	61
139.911	140.419	68	76
139.911	140.419	70	76
139.911	140.419	82	95
140.419	141.892	48	44
140.419	141.889	56	44
140.419	141.892	60	49
140.419	141.356	63	53
140.419	141.342	68	53
140.419	141.356	75	66
141.342	141.892	64	40
141.342	141.889	68	40
141.342	141.892	76	50
141.889	143.292	49	35
141.889	143.292	56	35
141.889	143.292	61	39
141.889	143.292	65	45
141.889	143.292	68	45
141.889	143.052	77	56
142.812	143.292	78	53
143.052	143.292	77	53
143.292	144.225	48	35
143.292	144.709	56	35
143.292	144.225	60	39
143.292	144.225	63	43
143.292	144.709	68	43
143.292	144.225	75	54
144.215	144.709	47	32
144.215	144.709	59	36
144.215	144.709	62	40
144.215	144.709	74	51
144.697	146.087	46	33
144.697	145.62	51	33
144.697	146.087	58	37
144.697	145.62	61	42
144.697	145.62	67	47
144.697	146.087	73	53
145.62	146.087	51	36
145.62	146.087	61	40
145.62	146.087	67	45
145.62	146.087	72	50
145.854	146.087	70	49
146.087	147.491	45	34
146.087	147.01	51	34
146.087	147.01	57	38
146.087	147.01	63	42
146.087	147.01	66	42
146.087	147.491	75	53
147.01	147.483	51	29
147.01	147.491	57	33
147.01	147.491	63	38
147.01	147.491	66	38
147.01	147.483	73	48
147.247	147.491	72	48
147.483	148.935	46	32
147.483	148.406	51	32
147.483	148.935	58	36
147.483	148.406	61	41
147.483	148.406	67	41
147.483	148.935	73	52
148.406	148.921	51	31
148.406	148.935	61	37
148.406	148.935	67	42
148.406	148.935	72	47
148.663	148.935	70	47
148.921	150.579	44	27
148.921	150.591	51	30
148.921	150.591	60	36
148.921	150.591	68	45
149.436	150.591	67	40
149.974	150.579	56	29
149.974	150.591	66	36
150.579	152.031	37	22
150.579	152.019	44	22
150.579	152.031	49	22
150.579	152.031	53	22
150.579	152.019	56	25
150.579	151.779	65	38
151.539	152.031	66	39
151.779	152.031	65	38
152.019	153.473	39	22
152.019	153.459	44	22
152.019	153.473	48	22
152.019	153.473	54	22
152.019	153.459	56	25
152.019	153.219	63	39
152.979	153.473	65	37
153.219	153.473	63	35
153.459	153.819	41	22
153.459	153.819	44	22
153.459	153.819	49	22
153.459	153.819	53	22
153.459	153.819	56	22
153.459	153.819	61	28
153.939	154.299	42	24
153.939	154.299	46	24
153.939	154.299	49	24
153.939	154.299	54	24
153.939	154.299	58	24
153.939	154.299	61	30
154.419	154.83	43	25
154.419	154.83	46	25
154.419	154.83	49	25
154.419	154.83	51	25
154.419	154.83	58	25
154.419	154.83	61	25
154.419	154.83	63	32
154.966	155.992	44	23
154.966	155.992	48	23
154.966	155.992	51	23
154.966	155.971	56	29
155.971	156.467	41	38
155.971	156.467	49	38
155.971	156.467	53	43
155.971	156.467	56	48
155.971	156.467	61	48
155.971	156.467	68	61
156.467	157.402	41	38
156.467	157.39	49	38
156.467	157.402	53	43
156.467	157.402	56	48
156.467	157.39	61	48
156.467	157.402	68	61
157.39	157.851	42	38
157.39	157.851	49	38
157.39	157.851	54	43
157.39	157.851	58	54
157.39	157.851	61	54
157.39	157.851	70	68
157.62	157.851	41	39
157.62	157.851	53	39
157.62	157.851	56	48
157.62	157.851	68	60
157.851	158.816	41	39
157.851	158.339	49	35
157.851	158.339	53	39
157.851	158.813	56	47
157.851	158.339	61	47
157.851	158.339	68	59
158.339	158.816	49	48
158.339	158.816	53	54
158.339	158.816	61	54
158.339	158.816	65	62
158.339	158.813	68	62
158.339	158.816	77	77
158.813	159.288	48	45
158.813	159.288	56	45
158.813	159.288	60	51
158.813	159.288	63	56
158.813	159.288	68	56
158.813	159.288	75	71
159.288	160.256	46	51
159.288	160.256	53	51
159.288	160.256	58	57
159.288	160.256	61	64
159.288	160.256	65	64
159.288	160.256	73	80
160.236	160.737	44	48
160.236	160.737	54	48
160.236	160.728	56	54
160.236	160.737	60	61
160.236	160.737	63	61
160.236	160.728	68	61
160.236	160.737	72	76
160.728	161.654	49	51
160.728	161.651	53	51
160.728	161.654	56	57
160.728	161.651	61	64
160.728	161.651	65	64
160.728	161.651	68	64
160.728	161.651	73	81
161.651	162.133	53	53
161.651	162.133	61	53
161.651	162.133	65	59
161.651	162.133	68	66
161.651	162.133	73	66
161.651	162.133	80	83
162.133	163.042	53	51
162.133	163.035	61	51
162.133	163.042	65	57
162.133	163.042	68	66
162.133	163.035	73	66
162.133	163.042	80	83
163.035	163.54	54	54
163.035	163.486	61	54
163.035	163.54	66	61
163.035	163.54	70	71
163.035	163.486	73	71
163.035	163.54	82	88
163.261	163.486	53	51
163.261	163.486	65	57
163.261	163.486	68	66
163.261	163.486	80	83
163.486	164.44	53	53
163.486	163.97	61	53
163.486	164.44	65	59
163.486	163.97	68	66
163.486	163.97	73	66
163.486	163.97	80	83
163.97	164.44	61	73
163.97	164.432	68	73
163.97	164.44	73	73
163.97	164.44	77	73
163.97	164.432	80	73
163.97	164.44	89	92
164.432	164.91	60	72
164.432	164.91	68	72
164.432	164.91	72	72
164.432	164.91	75	72
164.432	164.91	80	72
164.432	164.91	87	89
164.91	165.882	58	72
164.91	165.882	65	72
164.91	165.882	70	72
164.91	165.882	73	72
164.91	165.882	77	72
164.91	165.882	85	90
165.866	166.377	56	71
165.866	166.377	66	71
165.866	166.377	68	71
165.866	166.377	72	71
165.866	166.377	75	71
165.866	166.377	80	71
165.866	166.377	84	88
166.377	167.407	61	66
166.377	167.407	65	66
166.377	167.398	68	72
166.377	167.407	73	72
166.377	167.407	77	72
166.377	167.407	80	72
166.377	167.407	85	91
167.398	167.878	48	51
167.398	167.878	56	51
167.398	167.878	60	57
167.398	167.878	63	64
167.398	167.878	68	64
167.398	167.878	75	80
167.878	168.818	48	51
167.878	168.801	56	51
167.878	168.818	60	57
167.878	168.818	63	64
167.878	168.801	68	64
167.878	168.818	75	80
168.801	169.263	46	50
168.801	169.263	56	50
168.801	169.263	58	56
168.801	169.263	61	64
168.801	169.263	68	64
168.801	169.263	73	81
169.032	169.263	48	50
169.032	169.263	60	56
169.032	169.263	63	64
169.032	169.263	75	81
169.263	170.193	44	51
169.263	169.724	56	57
169.263	169.724	60	65
169.263	169.724	68	65
169.263	170.193	72	82
169.724	170.193	48	54
169.724	170.186	56	54
169.724	170.193	60	61
169.724	170.193	63	68
169.724	170.186	68	68
169.724	170.193	75	85
170.186	170.647	49	54
170.186	170.647	56	54
170.186	170.647	61	61
170.186	170.647	65	70
170.186	170.647	68	70
170.186	170.647	77	87
170.647	171.605	51	56
170.647	171.109	56	56
170.647	171.605	63	63
170.647	171.597	66	72
170.647	171.109	68	72
170.647	171.605	78	89
171.109	171.605	53	59
171.109	171.597	56	59
171.109	171.605	65	66
171.109	171.597	68	72
171.109	171.605	80	90
171.597	172.192	54	54
171.597	172.178	56	54
171.597	172.192	66	61
171.597	172.178	68	76
171.597	172.192	70	76
171.597	172.192	82	95
172.178	173.629	48	44
172.178	173.627	56	44
172.178	173.629	60	49
172.178	173.116	63	53
172.178	173.101	68	53
172.178	173.116	75	66
173.101	173.629	64	40
173.101	173.627	68	40
173.101	173.629	76	50
173.627	175.03	49	35
173.627	175.03	56	35
173.627	175.03	61	39
173.627	175.03	65	45
173.627	175.03	68	45
173.627	174.79	77	56
174.55	175.03	78	53
174.79	175.03	77	53
175.03	175.957	48	35
175.03	176.448	56	35
175.03	175.957	60	39
175.03	175.957	63	43
175.03	176.448	68	43
175.03	175.957	75	54
175.953	176.448	47	32
175.953	176.448	59	36
175.953	176.448	62	40
175.953	176.448	74	51
176.435	177.828	46	33
176.435	177.358	51	33
176.435	177.828	58	37
176.435	177.358	61	42
176.435	177.358	67	42
176.435	177.828	73	53
177.358	177.825	51	36
177.358	177.828	61	40
177.358	177.828	67	45
177.358	177.828	72	50
177.592	177.828	70	49
177.825	179.233	45	34
177.825	178.748	51	34
177.825	178.748	57	38
177.825	178.748	63	42
177.825	178.748	66	42
177.825	179.233	75	53
178.748	179.221	51	29
178.748	179.233	57	33
178.748	179.233	63	38
178.748	179.233	66	38
178.748	179.221	73	48
178.984	179.233	72	48
179.221	180.668	46	32
179.221	180.144	51	32
179.221	180.668	58	36
179.221	180.144	61	41
179.221	180.144	67	52
179.221	180.668	73	52
180.144	180.659	51	31
180.144	180.668	61	37
180.144	180.668	67	37
180.144	180.668	72	47
180.401	180.668	70	47
180.659	182.392	44	27
180.659	182.405	51	30
180.659	182.405	60	36
180.659	182.405	68	45
181.174	182.405	67	40
181.737	182.392	56	29
181.737	182.405	66	36
182.392	183.845	37	22
182.392	183.832	44	22
182.392	183.845	49	22
182.392	183.845	53	22
182.392	183.832	56	25
182.392	183.592	65	38
183.352	183.845	66	39
183.592	183.845	65	38
183.832	185.284	39	22
183.832	185.272	44	22
183.832	185.284	48	22
183.832	185.284	54	22
183.832	185.272	56	25
183.832	185.032	63	39
184.792	185.284	65	37
185.032	185.284	63	35
185.272	185.632	41	22
185.272	185.632	44	22
185.272	185.632	49	22
185.272	185.632	53	22
185.272	185.632	56	22
185.272	185.632	61	28
185.752	186.112	42	24
185.752	186.112	46	24
185.752	186.112	49	24
185.752	186.112	54	24
185.752	186.112	58	24
185.752	186.112	61	30
186.232	186.627	43	25
186.232	186.627	46	25
186.232	186.627	49	25
186.232	186.627	51	25
186.232	186.627	58	25
186.232	186.627	61	25
186.232	186.627	63	32
186.758	187.773	44	23
186.758	187.773	48	23
186.758	187.773	51	23
186.758	187.762	56	29
187.762	188.258	41	38
187.762	188.258	49	38
187.762	188.258	53	43
187.762	188.258	56	48
187.762	188.258	61	48
187.762	188.258	68	61
188.258	189.187	41	38
188.258	189.181	49	38
188.258	189.187	53	43
188.258	189.187	56	48
188.258	189.181	61	48
188.258	189.187	68	61
189.181	189.648	42	38
189.181	189.643	49	38
189.181	189.648	54	43
189.181	189.648	58	54
189.181	189.643	61	54
189.181	189.648	70	68
189.412	189.643	41	35
189.412	189.643	53	39
189.412	189.643	56	48
189.412	189.643	68	60
189.643	190.621	41	35
189.643	190.131	49	35
189.643	190.131	53	39
189.643	190.605	56	47
189.643	190.131	61	47
189.643	190.131	68	59
190.131	190.621	49	48
190.131	190.621	53	48
190.131	190.621	61	54
190.131	190.621	65	62
190.131	190.605	68	62
190.131	190.621	77	77
190.605	191.085	48	45
190.605	191.085	56	45
190.605	191.085	60	51
190.605	191.085	63	56
190.605	191.085	68	56
190.605	191.085	75	71
191.079	192.036	46	51
191.079	192.036	53	51
191.079	192.036	58	57
191.079	192.036	61	64
191.079	192.036	65	64
191.079	192.036	73	80
192.028	192.525	44	48
192.028	192.525	54	48
192.028	192.52	56	54
192.028	192.525	60	61
192.028	192.525	63	61
192.028	192.52	68	61
192.028	192.525	72	76
192.52	193.449	49	51
192.52	193.443	53	51
192.52	193.449	56	57
192.52	193.443	61	64
192.52	193.443	65	64
192.52	193.443	68	64
192.52	193.443	73	81
193.443	193.925	53	53
193.443	193.925	61	53
193.443	193.925	65	59
193.443	193.925	68	66
193.443	193.925	73	66
193.443	193.925	80	83
193.925	194.835	53	51
193.925	194.827	61	51
193.925	194.835	65	57
193.925	194.835	68	66
193.925	194.827	73	66
193.925	194.835	80	83
194.827	195.289	54	54
194.827	195.278	61	54
194.827	195.289	66	61
194.827	195.289	70	71
194.827	195.278	73	71
194.827	195.289	82	88
195.053	195.278	53	51
195.053	195.278	65	57
195.053	195.278	68	66
195.053	195.278	80	83
195.278	196.258	53	53
195.278	195.772	61	53
195.278	196.258	65	59
195.278	195.772	68	66
195.278	195.772	73	66
195.278	195.772	80	83
195.772	196.258	61	73
195.772	196.244	68	73
195.772	196.258	73	73
195.772	196.258	77	73
195.772	196.244	80	73
195.772	196.258	89	92
196.244	196.75	60	72
196.244	196.75	68	72
196.244	196.75	72	72
196.244	196.75	75	72
196.244	196.75	80	72
196.244	196.75	87	89
196.738	197.737	58	72
196.738	197.737	65	72
196.738	197.737	70	72
196.738	197.737	73	72
196.738	197.737	77	72
196.738	197.737	85	90
197.726	198.257	56	71
197.726	198.257	66	71
197.726	198.257	68	71
197.726	198.257	72	71
197.726	198.257	75	71
197.726	198.257	80	71
197.726	198.257	84	88
198.257	199.114	61	65
198.257	199.114	65	65
198.257	199.114	68	72
198.257	199.114	73	72
198.257	199.114	77	72
198.257	199.114	80	72
198.257	199.114	85	91
199.4	200.027	56	36
199.4	200.027	63	38
199.4	200.014	68	38
199.4	200.014	72	48
200.014	201.875	61	38
200.014	201.875	65	43
200.014	201.875	68	43
200.014	201.423	72	54
201.41	201.875	70	51
202.34	202.941	61	40
202.34	202.928	65	45
202.34	202.941	67	50
202.34	202.941	70	50
202.34	202.928	77	63
202.928	204.788	60	40
202.928	204.331	65	45
202.928	204.788	68	52
202.928	204.788	72	52
202.928	204.331	77	65
204.323	204.788	63	43
204.323	204.788	75	60
205.021	205.626	56	42
205.021	205.626	60	43
205.021	205.623	63	48
205.222	205.623	51	44
205.222	205.626	68	56
205.423	205.626	48	45
205.423	205.626	72	58
205.623	206.53	46	37
205.623	206.516	51	37
205.623	206.53	55	42
205.623	206.53	61	48
205.623	206.516	63	48
205.623	206.53	67	48
205.623	206.53	73	60
206.516	207.047	44	40
206.516	207.037	51	40
206.516	207.047	56	45
206.516	207.047	60	50
206.516	207.037	63	50
206.516	207.047	68	50
206.516	207.047	72	63
207.037	207.923	43	41
207.037	207.923	51	41
207.037	207.923	55	46
207.037	207.923	58	51
207.037	207.923	63	51
207.037	207.906	70	64
207.906	208.554	41	43
207.906	208.534	46	43
207.906	208.554	53	48
207.906	208.534	62	52
207.906	208.534	68	52
207.906	208.534	70	52
207.906	208.534	74	65
208.534	210.52	39	45
208.534	210.52	46	45
208.534	210.52	51	51
208.534	210.06	62	55
208.534	210.06	68	55
208.534	210.52	70	55
208.534	210.06	74	69
210.054	210.52	63	40
210.054	210.52	67	40
210.054	210.52	75	51
210.985	211.582	56	37
210.985	211.582	63	42
210.985	211.575	68	42
210.985	211.575	72	53
211.575	213.436	61	41
211.575	213.436	65	46
211.575	213.436	68	46
211.575	212.979	72	58
212.971	213.436	70	50
213.901	214.542	37	40
213.901	214.542	49	45
213.901	214.532	67	63
213.901	214.542	71	71
213.901	214.532	77	79
214.532	216.381	36	44
214.532	216.381	48	49
214.532	216.381	67	68
214.532	216.381	72	68
214.532	215.93	77	85
215.916	216.381	76	51
216.847	217.423	60	32
216.847	217.423	64	36
216.847	217.417	67	41
216.847	217.423	72	41
216.847	217.423	76	52
217.417	218.378	58	36
217.417	218.363	63	40
217.417	218.378	67	45
217.417	218.378	73	57
217.417	218.363	75	57
218.363	218.914	56	37
218.363	218.914	63	42
218.363	218.914	68	47
218.363	218.914	72	47
218.363	218.914	75	59
218.901	219.833	49	51
218.901	219.833	65	51
218.901	219.833	70	51
218.901	219.833	73	64
219.831	220.454	51	43
219.831	220.454	61	47
219.831	220.454	67	47
219.831	220.464	72	53
220.086	220.454	70	51
220.454	222.421	44	31
220.454	222.421	51	35
220.454	221.936	61	39
220.454	221.936	67	39
220.454	221.936	70	44
221.929	222.421	60	28
221.929	222.421	68	33
222.983	223.585	52	25
222.983	223.585	56	25
222.983	223.585	59	28
222.983	223.585	62	32
222.983	223.585	68	32
222.983	223.585	71	40
223.585	224.979	52	25
223.585	225.436	56	25
223.585	225.436	59	28
223.585	224.979	62	32
223.585	225.436	68	32
223.585	225.436	71	40
224.973	225.436	51	22
224.973	225.436	63	28
225.899	226.492	49	27
225.899	226.492	56	27
225.899	226.492	59	30
225.899	226.492	64	36
225.899	226.492	68	36
225.899	226.492	71	45
226.492	227.894	49	28
226.492	228.343	56	28
226.492	228.343	59	32
226.492	227.894	64	39
226.492	228.343	68	39
226.492	228.343	71	49
227.881	228.343	47	21
227.881	228.343	63	29
228.806	229.335	47	29
228.806	229.321	56	29
228.806	229.335	59	33
228.806	229.335	63	41
228.806	229.321	68	46
228.806	229.335	71	52
229.321	230.774	49	35
229.321	231.721	56	35
229.321	231.721	58	39
229.321	231.712	64	46
229.321	231.721	68	52
229.321	230.531	70	58
229.836	230.774	76	65
230.531	230.774	70	51
230.762	231.252	46	40
230.762	231.252	75	57
231.0	231.252	73	55
231.237	231.721	47	37
231.237	231.721	71	55
231.712	232.286	49	35
231.712	232.286	61	41
231.712	232.286	64	41
231.712	232.286	70	52
232.278	234.129	51	35
232.278	233.683	59	39
232.278	234.129	63	39
232.278	233.683	68	49
233.666	234.129	58	27
233.666	234.129	67	35
234.592	235.173	52	22
234.592	235.173	56	22
234.592	235.173	59	25
234.592	235.173	62	28
234.592	235.173	68	28
234.592	235.173	71	36
235.173	236.576	52	22
235.173	237.025	56	22
235.173	237.025	59	25
235.173	236.576	62	28
235.173	237.025	68	28
235.173	237.025	71	36
236.562	237.025	51	19
236.562	237.025	63	25
237.488	238.069	49	28
237.488	238.069	56	28
237.488	238.069	59	32
237.488	238.069	64	38
237.488	238.069	68	38
237.488	238.069	71	48
238.069	239.46	49	27
238.069	239.921	56	27
238.069	239.921	59	31
238.069	239.46	64	35
238.069	239.921	68	35
238.069	239.921	71	44
239.458	239.921	47	18
239.458	239.921	63	30
240.383	240.905	47	34
240.383	240.905	52	34
240.383	240.905	56	34
240.383	240.905	59	38
240.383	240.905	64	40
240.383	240.905	68	40
240.383	240.905	71	45
240.905	242.452	47	39
240.905	242.452	52	39
240.905	242.452	56	39
240.905	242.452	59	44
240.905	243.901	64	45
240.905	242.452	68	45
240.905	242.077	71	50
241.438	242.131	76	70
242.131	242.318	71	60
242.318	242.452	71	55
242.452	243.897	47	37
242.452	243.901	52	37
242.452	243.897	56	37
242.452	243.901	59	42
242.452	243.901	75	73
242.689	243.901	73	70
242.928	243.901	71	67
243.41	243.901	68	65
243.897	245.344	47	35
243.897	245.356	53	35
243.897	245.356	56	39
243.897	245.344	61	55
243.897	245.109	65	62
244.403	245.344	73	70
245.109	245.356	65	58
245.344	246.78	47	43
245.344	245.83	54	38
245.344	245.83	57	43
245.344	245.83	61	56
245.344	245.83	66	56
245.344	245.83	73	70
245.58	245.83	69	70
245.817	246.306	56	38
245.817	246.295	59	43
245.817	246.306	64	56
245.817	246.306	68	70
246.295	246.784	57	38
246.295	246.78	59	43
246.295	246.784	63	60
246.295	246.784	66	67
246.78	248.181	40	41
246.78	248.197	47	41
246.78	248.197	52	46
246.78	248.197	56	53
246.78	248.197	59	53
246.78	247.755	64	66
247.755	248.181	64	51
247.888	248.197	68	55
248.02	248.197	71	59
248.181	249.582	40	46
248.181	249.117	61	55
248.181	249.1	64	55
248.181	249.117	67	55
248.181	249.117	70	69
249.1	249.352	59	45
249.1	249.352	64	45
249.1	249.352	68	45
249.1	249.352	71	57
249.342	249.585	66	44
249.463	249.585	68	44
249.582	250.964	40	33
249.582	250.267	45	37
249.582	250.267	60	39
249.582	250.979	63	44
249.582	250.267	69	49
250.257	250.489	47	35
250.257	250.489	59	42
250.257	250.489	68	47
250.489	250.979	48	33
250.489	250.979	57	39
250.489	250.979	66	44
250.964	252.308	40	24
250.964	252.315	47	27
250.964	252.315	56	32
250.964	251.882	64	41
251.882	252.308	64	51
252.015	252.315	68	55
252.147	252.315	71	59
252.308	253.734	40	46
252.308	253.255	61	55
252.308	253.234	64	55
252.308	253.255	67	62
252.308	253.255	70	69
253.234	253.494	59	40
253.234	253.494	64	40
253.234	253.494	68	45
253.234	253.494	71	51
253.484	253.747	66	43
253.609	253.747	68	43
253.734	255.219	40	27
253.734	254.458	45	35
253.734	254.458	60	41
253.734	255.234	63	36
253.734	254.458	69	46
254.45	254.7	47	32
254.45	254.7	59	36
254.45	254.7	68	41
254.7	255.234	48	29
254.7	255.234	57	33
254.7	255.234	66	37
255.219	256.638	40	20
255.219	256.638	47	23
255.219	256.638	56	31
255.219	256.63	64	35
256.142	256.63	68	43
256.63	257.567	52	28
256.63	257.567	59	32
256.63	257.567	64	39
256.63	257.567	68	49
257.567	258.082	52	23
257.567	258.082	59	26
257.567	258.082	64	35
257.567	258.082	68	44
258.082	259.018	52	28
258.082	259.032	59	32
258.082	259.032	64	45
258.082	259.018	68	50
258.782	259.032	63	40
259.018	259.615	52	25
259.018	259.615	56	25
259.018	259.615	62	33
259.018	259.599	68	42
259.599	261.446	51	28
259.599	261.446	58	32
259.599	261.884	63	35
259.599	260.997	68	44
260.984	261.676	67	39
261.676	261.884	68	39
261.884	262.092	70	42
262.092	262.299	72	45
262.299	263.159	51	28
262.299	263.159	53	28
262.299	263.159	56	28
262.299	263.159	61	32
262.299	263.159	65	38
262.299	263.159	68	38
262.299	263.159	73	48
263.159	263.59	51	28
263.159	263.59	53	28
263.159	263.59	56	28
263.159	263.59	61	32
263.159	263.59	65	39
263.159	263.59	68	39
263.159	263.59	73	49
263.59	264.483	51	32
263.59	264.483	55	32
263.59	264.483	58	32
263.59	264.483	61	36
263.59	264.483	67	40
263.59	264.483	70	45
263.59	263.705	75	55
263.705	263.821	73	50
263.821	263.937	72	50
263.937	264.053	73	50
264.053	264.483	75	51
264.483	265.011	51	27
264.483	265.002	63	31
264.483	265.002	67	39
264.483	265.002	70	49
265.002	266.855	56	29
265.002	266.855	63	33
265.002	266.395	67	40
265.002	266.395	70	40
265.002	266.395	73	50
266.392	266.855	68	36
266.392	266.855	72	45
267.318	267.837	56	51
267.318	267.837	60	51
267.318	267.837	65	57
267.318	267.837	68	64
267.318	267.837	72	64
267.318	267.837	77	80
267.837	268.746	56	51
267.837	268.746	60	51
267.837	268.746	65	57
267.837	268.746	68	64
267.837	268.746	72	64
267.837	268.746	77	80
268.746	269.289	56	51
268.746	269.289	60	51
268.746	269.289	65	57
268.746	269.289	68	64
268.746	269.289	72	64
268.746	269.289	77	80
269.289	270.198	56	54
269.289	270.198	60	61
269.289	270.198	68	69
269.289	270.198	72	69
269.289	270.21	80	86
269.97	270.21	67	64
269.97	270.21	79	80
270.198	270.719	56	48
270.198	270.719	60	54
270.198	270.708	65	60
270.198	270.719	68	60
270.198	270.719	72	60
270.198	270.708	77	75
270.708	273.523	55	51
270.708	273.523	58	51
270.708	273.523	61	51
270.708	272.99	65	57
270.708	273.523	67	64
270.708	273.523	70	64
270.708	273.523	73	67
270.708	272.99	77	80
272.98	273.523	64	44
272.98	273.523	76	54
273.523	276.145	55	28
273.523	276.145	63	32
273.523	276.145	70	37
273.523	275.16	75	47
274.54	275.16	74	43
275.145	276.145	73	37
276.145	276.774	56	32
276.145	276.774	63	36
276.145	276.763	68	36
276.145	276.763	72	45
276.763	278.623	61	33
276.763	278.623	65	37
276.763	278.623	68	37
276.763	278.165	72	47
278.158	278.623	70	44
279.089	279.705	61	32
279.089	279.688	65	36
279.089	279.705	67	40
279.089	279.705	70	40
279.089	279.688	77	50
279.688	281.548	60	32
279.688	281.097	65	36
279.688	281.548	68	41
279.688	281.548	72	41
279.688	281.097	77	52
281.083	281.548	63	34
281.083	281.548	75	48
281.781	282.458	56	37
281.781	282.458	60	38
281.781	282.384	63	43
281.982	282.384	51	39
281.982	282.458	68	50
282.183	282.458	48	40
282.183	282.458	72	52
282.384	283.288	46	33
282.384	283.276	51	33
282.384	283.288	55	37
282.384	283.288	61	43
282.384	283.276	63	43
282.384	283.288	67	43
282.384	283.288	73	54
283.276	283.845	44	36
283.276	283.841	51	36
283.276	283.845	56	40
283.276	283.845	60	45
283.276	283.841	63	45
283.276	283.845	68	45
283.276	283.845	72	56
283.841	284.729	43	36
283.841	284.729	51	36
283.841	284.729	55	41
283.841	284.729	58	45
283.841	284.729	63	45
283.841	284.71	70	57
284.71	285.375	41	40
284.71	285.361	46	40
284.71	285.375	53	45
284.71	285.361	62	49
284.71	285.361	68	49
284.71	285.361	70	49
284.71	285.361	74	62
285.361	287.347	39	43
285.361	287.347	46	43
285.361	287.347	51	48
285.361	286.884	62	55
285.361	286.884	68	55
285.361	287.347	70	55
285.361	286.884	74	69
286.882	287.347	63	36
286.882	287.347	67	36
286.882	287.347	75	45
287.812	288.435	32	45
287.812	288.435	44	50
287.812	288.435	63	58
287.812	288.42	68	58
287.812	288.42	72	73
288.42	290.246	37	51
288.42	290.246	49	57
288.42	290.246	64	64
288.42	290.246	68	64
288.42	289.788	72	81
289.553	289.788	71	53
289.784	290.246	70	50
290.707	291.269	32	45
290.707	291.269	44	50
290.707	291.269	63	58
290.707	291.257	68	58
290.707	291.257	72	73
291.257	293.067	37	51
291.257	293.067	49	57
291.257	293.067	64	64
291.257	293.067	68	64
291.257	292.628	72	81
292.392	292.628	71	54
292.624	293.067	70	51
293.507	294.43	38	55
293.507	294.43	50	62
293.507	294.43	64	72
293.507	294.43	68	72
293.507	294.43	71	89
294.43	294.879	38	56
294.43	294.879	50	63
294.43	294.879	64	72
294.43	294.879	68	72
294.43	294.879	71	90
294.879	295.329	38	56
294.879	295.329	50	63
294.879	295.329	64	71
294.879	295.329	68	71
294.879	295.329	71	88
295.329	295.782	38	54
295.329	295.782	50	61
295.329	295.768	64	68
295.329	295.782	68	68
295.329	295.782	71	85
295.768	296.23	37	60
295.768	296.23	49	67
295.768	296.219	64	72
295.768	296.23	69	74
295.768	296.23	73	93
296.219	296.69	35	63
296.219	296.69	47	70
296.219	296.676	64	72
296.219	296.69	71	79
296.219	296.69	74	98
296.676	297.138	33	64
296.676	297.138	45	72
296.676	297.127	64	69
296.676	297.138	73	81
296.676	297.138	76	102
297.127	297.591	35	59
297.127	297.591	47	66
297.127	297.578	64	63
297.127	297.591	71	74
297.127	297.591	74	93
297.578	298.108	37	51
297.578	298.108	49	57
297.578	298.108	64	54
297.578	298.108	69	64
297.578	298.108	73	80
298.108	300.4	39	35
298.108	300.4	51	39
298.108	300.4	63	46
298.108	299.444	68	46
298.108	299.444	71	58
299.442	300.4	67	37
299.442	300.4	70	47
300.4	301.324	50	48
300.4	301.324	52	48
300.4	301.324	56	48
300.4	301.324	59	60
301.324	301.773	50	35
301.324	301.773	52	35
301.324	301.773	56	35
301.324	301.773	59	44
301.773	302.222	50	35
301.773	302.222	52	35
301.773	302.222	56	35
301.773	302.222	59	44
302.222	302.679	50	32
302.222	302.672	52	32
302.222	302.679	56	32
302.222	302.679	59	41
302.672	303.146	49	35
302.672	303.132	52	35
302.672	303.146	57	35
302.672	303.146	61	44
303.132	303.563	47	35
303.132	303.563	52	35
303.132	303.563	59	35
303.132	303.563	62	44
303.563	303.705	66	48
303.705	304.172	45	33
303.705	304.164	52	33
303.705	304.172	61	33
303.705	304.172	64	42
304.164	304.663	47	32
304.164	304.658	52	32
304.164	304.663	59	32
304.164	304.663	62	40
304.658	305.264	49	28
304.658	305.264	52	28
304.658	305.264	57	28
304.658	305.264	61	36
305.254	308.771	51	27
305.254	306.9	56	27
305.254	306.9	59	31
306.881	308.771	39	25
306.881	308.771	55	28
306.881	308.771	58	28
308.753	313.451	32	25
308.753	313.451	44	25
308.753	313.451	56	28
