OnsetTime	OffsetTime	MidiPitch	Velocity
0.500004	15.3896	37	30
0.842992	1.46396	65	26
1.16396	3.01098	56	26
1.46396	2.70168	65	26
1.76397	3.61917	61	26
2.07324	3.93335	53	26
2.38251	4.27138	49	30
2.70168	3.31402	65	26
3.01098	4.91994	56	26
3.31402	4.60353	65	25
3.61917	5.514	61	28
3.93335	5.81102	53	25
4.27138	6.10805	49	30
4.27138	11.0623	77	55
4.60353	5.21697	65	26
4.91994	6.7266	56	26
5.21697	6.41732	65	26
5.514	7.36488	61	26
5.81102	7.68075	53	26
6.10805	8.01833	49	30
6.10805	15.3896	75	55
6.41732	7.04574	65	26
6.7266	8.66196	56	26
6.7266	10.4623	73	55
7.04574	7.68075	65	26
7.36488	9.25019	61	26
7.68075	9.55323	53	26
7.68075	8.34995	65	50
8.01833	9.85627	49	30
8.01833	15.3896	68	55
8.34995	8.95608	65	28
8.66196	10.4623	56	28
8.95608	10.1593	65	27
9.25019	11.0623	61	27
9.55323	11.3701	53	27
9.85627	11.6981	49	31
10.1593	10.7623	65	27
10.4623	12.3174	56	27
10.4623	15.059	73	58
10.7623	12.0078	65	28
11.0623	12.9115	61	28
11.0623	14.4364	77	61
11.3701	13.2085	53	30
11.6981	13.5055	49	34
11.6981	15.3896	82	68
12.0078	12.6145	65	29
12.3174	14.1303	56	28
12.6145	13.8148	65	28
12.9115	14.7425	61	28
13.2085	15.059	53	27
13.5055	15.3896	49	30
13.8148	14.4364	65	26
13.8148	15.3896	80	50
14.1303	15.3896	56	26
14.1303	15.3896	76	56
14.4364	15.3896	65	25
14.4364	15.3896	77	50
14.7425	15.3896	61	25
14.7425	15.3896	72	55
15.059	15.3896	53	24
15.059	15.3896	73	50
15.3896	19.016	37	30
15.3896	19.016	69	63
15.7146	16.323	66	26
16.026	17.7911	57	26
16.323	17.5026	66	26
16.6201	18.3911	63	26
16.9171	19.016	54	26
17.2141	19.016	49	30
17.5026	18.0911	66	26
17.7911	18.6962	57	26
18.0911	19.016	66	25
18.3911	19.016	63	28
18.6962	19.016	57	25
19.016	20.8792	49	30
19.016	22.8759	70	58
19.3422	19.9609	66	26
19.6548	21.5099	58	26
19.9609	21.2018	66	26
20.267	22.1383	63	26
20.5731	22.4626	54	26
20.8792	22.8759	49	30
21.2018	21.8208	66	26
21.2018	22.8759	84	56
21.5099	22.8759	58	26
21.5099	22.8759	82	58
21.8208	22.8759	66	25
21.8208	22.7953	77	52
22.1383	22.8759	63	28
22.1383	22.8759	80	56
22.4626	22.8759	54	25
22.4626	22.8759	78	51
22.7953	24.697	48	30
22.7953	24.697	77	57
23.1245	23.745	66	26
23.4419	24.697	57	25
23.745	24.697	66	24
24.048	24.697	63	23
24.048	25.0329	75	58
24.3511	24.697	54	23
24.6541	26.5726	46	31
24.9571	25.5756	66	27
24.9571	25.2602	77	52
25.0329	25.1844	75	52
25.1086	26.5726	74	52
25.1844	26.5726	75	52
25.2602	26.5726	58	28
25.2602	26.5726	77	61
25.5756	26.5726	66	30
25.8911	26.5726	63	31
25.8911	26.3825	78	69
26.212	26.5726	54	34
26.3825	26.5726	78	57
26.5597	28.4405	45	38
26.5597	28.4405	90	79
26.8694	27.4887	66	28
27.179	28.4405	57	27
27.4887	28.4405	66	25
27.6435	28.4405	87	56
27.7878	28.4405	61	24
27.7878	28.4405	85	55
27.932	28.4405	81	54
28.0762	28.4405	51	23
28.0762	28.4405	78	52
28.2205	28.4405	75	49
28.3647	30.2741	44	30
28.3647	28.5162	72	53
28.6677	29.2986	66	24
28.6677	30.2741	73	54
28.9832	29.9306	56	26
28.9832	30.2741	74	55
29.2986	30.2741	66	28
29.2986	30.2741	75	56
29.6141	30.2741	60	29
29.6141	30.2741	77	57
29.9306	30.2741	56	30
29.9306	30.2741	78	58
30.2612	32.1554	37	38
30.2612	32.2374	79	69
30.5708	31.1902	64	29
30.8805	32.2374	55	28
31.1902	32.2374	64	28
31.4998	32.2374	58	28
31.6637	31.9915	80	54
31.8276	32.2374	53	27
31.8276	32.2374	82	59
31.9915	32.2374	80	50
32.1554	34.0841	37	28
32.1554	35.9843	77	56
32.4832	33.1141	65	23
32.7987	34.0841	56	23
33.1141	34.0841	65	23
33.4296	34.0841	61	24
33.7461	34.0841	53	25
34.0708	35.9107	46	38
34.0708	35.5916	73	53
34.3899	35.0061	65	28
34.7091	35.9843	58	28
34.7091	35.9107	75	55
34.7091	35.9843	78	65
35.0061	35.9843	65	27
35.3031	35.9843	61	26
35.5916	35.9843	53	26
35.5916	35.9843	70	51
35.5916	35.9843	73	60
35.9107	37.7462	46	33
35.9107	37.105	72	55
35.9107	37.7462	75	65
36.2049	36.802	65	28
36.499	37.7591	57	28
36.499	37.7591	73	53
36.499	37.7591	77	62
36.802	37.7591	65	28
37.105	37.7591	63	28
37.105	37.7591	69	52
37.105	37.7462	72	61
37.4215	37.7591	53	27
37.7462	39.6682	46	38
37.7462	39.173	72	55
37.7462	39.6682	75	65
38.0559	38.6626	65	28
38.3656	39.6682	58	28
38.3656	39.3787	70	50
38.3656	38.8111	73	59
38.6626	39.6682	65	27
38.8111	38.9759	73	54
38.8111	38.9759	82	64
38.9759	39.6682	61	26
38.9759	39.6682	73	56
38.9759	39.6682	82	66
39.173	39.6682	72	55
39.173	39.6682	80	65
39.2745	39.6682	53	26
39.3787	39.5892	70	54
39.3787	39.6682	78	64
39.5892	41.4656	41	33
39.5892	40.407	70	53
39.5892	40.8111	77	63
39.905	40.508	65	28
40.205	41.4656	60	28
40.205	41.4656	69	52
40.407	41.4656	70	54
40.508	41.4656	65	26
40.6091	41.4656	71	56
40.8111	41.4656	63	28
40.8111	41.4656	72	49
40.8111	41.0209	77	58
41.0209	41.4523	73	51
41.0209	41.2358	77	60
41.1276	41.4656	57	30
41.2358	41.4656	75	52
41.2358	41.4523	77	62
41.4523	43.2922	46	38
41.4523	42.9731	73	53
41.4523	43.3658	77	63
41.7714	42.3876	65	28
42.0906	43.3658	58	28
42.0906	43.3658	75	55
42.0906	43.3658	78	65
42.3876	43.3658	65	27
42.6846	43.3658	61	26
42.9731	43.3658	53	26
42.9731	43.2922	70	51
42.9731	43.2922	73	60
43.2922	45.1277	46	33
43.2922	43.4025	70	49
43.2922	43.4025	73	58
43.4025	44.0825	73	55
43.4025	43.8069	77	65
43.5863	44.1835	65	28
43.7334	44.2845	72	58
43.7334	43.8805	75	58
43.8069	44.4865	77	53
43.8805	45.1406	57	28
43.8805	44.2845	75	62
44.0825	45.1406	70	47
44.0825	44.4865	73	55
44.1835	45.1406	65	28
44.2845	44.9654	72	47
44.2845	45.1277	75	55
44.4865	45.1406	63	28
44.4865	45.1406	73	52
44.4865	45.1406	77	61
44.803	45.1406	53	27
44.9654	45.1406	69	52
44.9654	45.1277	72	61
45.1277	46.9238	46	38
45.1277	46.9953	72	55
45.1277	46.9953	75	65
45.4374	46.0441	65	28
45.747	46.9953	58	28
45.747	46.9953	70	50
45.747	46.3411	73	59
46.0441	46.9953	65	27
46.3411	46.9953	61	26
46.3411	46.9953	73	47
46.3411	47.498	82	66
46.6381	46.9953	53	26
46.9238	48.7586	46	34
46.9238	48.7586	74	66
47.2096	47.801	68	28
47.2096	47.7	80	53
47.2096	48.7586	83	62
47.498	48.7586	58	26
47.498	47.9021	73	53
47.498	47.9021	82	62
47.7	48.1041	80	54
47.7	48.7586	81	58
47.801	48.7586	68	28
47.9021	48.7586	73	57
47.9021	48.5829	82	67
48.1041	48.7586	62	30
48.1041	48.5829	80	58
48.1041	48.7586	89	70
48.4206	48.7586	53	32
48.5829	48.7985	80	57
48.5829	48.7453	82	67
48.7453	50.6588	39	38
48.7453	49.9776	78	57
48.7453	50.5852	82	68
49.0644	49.6806	66	31
49.3836	50.6588	58	29
49.3836	50.6588	80	56
49.3836	50.6588	83	66
49.6806	50.6588	66	29
49.9776	50.6588	63	29
49.9776	50.6588	75	54
49.9776	50.5852	78	64
50.2661	50.6588	54	29
50.5852	52.4207	51	39
50.5852	50.9774	78	54
50.5852	50.9774	82	64
50.7813	51.1735	77	52
50.7813	51.1735	80	61
50.8793	51.4765	68	30
50.9774	51.3755	78	52
50.9774	51.7795	82	61
51.1735	52.4336	58	30
51.1735	51.5775	77	55
51.1735	51.5775	80	65
51.3755	52.4336	75	52
51.3755	51.7795	78	61
51.4765	52.4336	68	30
51.5775	52.2584	77	52
51.5775	52.4207	80	61
51.7795	52.4336	62	30
51.7795	52.4336	78	55
51.7795	52.4336	82	65
52.096	52.4336	53	30
52.2584	52.4336	74	51
52.2584	52.4207	77	60
52.4207	54.3543	51	39
52.4207	53.8518	77	56
52.4207	54.3543	80	66
52.7304	53.3371	66	31
53.04	54.3543	58	31
53.04	54.0618	75	51
53.04	53.4856	78	60
53.3371	54.3543	66	31
53.4856	53.6522	78	53
53.4856	53.6522	87	63
53.6522	54.3543	63	29
53.6522	54.3543	78	57
53.6522	54.3543	87	68
53.8518	54.3543	77	57
53.8518	54.3543	85	67
53.9554	54.3543	54	29
54.0618	54.3543	75	55
54.0618	54.3543	83	65
54.2746	56.1648	46	40
54.2746	55.2937	74	50
54.2746	54.4873	82	59
54.4873	56.1648	70	50
54.4873	54.6937	82	59
54.5937	55.1937	68	30
54.6937	56.1648	71	50
54.6937	54.8937	82	59
54.8937	56.1648	58	32
54.8937	56.1648	72	51
54.8937	55.0937	82	60
55.0937	56.1648	73	52
55.0937	55.2937	82	61
55.1937	56.1648	68	34
55.2937	56.1648	74	53
55.2937	55.4948	82	62
55.4948	56.1648	62	35
55.4948	56.1648	75	54
55.4948	55.7042	82	64
55.7042	56.1648	76	55
55.7042	55.9228	82	65
55.8123	56.1648	53	37
55.9228	56.1648	77	56
55.9228	56.1515	82	66
56.1515	58.0688	39	38
56.1515	56.6621	78	45
56.1515	56.6621	82	54
56.4068	56.9086	80	47
56.4068	57.3838	83	57
56.4706	57.0868	66	28
56.6621	57.1462	78	50
56.6621	57.1462	82	60
56.7898	58.0688	58	28
56.9086	58.0688	77	53
56.9086	57.3838	80	63
57.0868	58.0688	66	27
57.1462	57.8319	78	54
57.1462	58.0688	82	65
57.3838	58.0688	63	26
57.3838	58.0688	80	58
57.3838	58.0688	83	69
57.6723	58.0688	54	26
57.8319	57.9915	75	56
57.8319	57.9915	78	66
57.9915	59.8962	51	33
57.9915	58.1461	75	53
57.9915	58.1461	78	63
58.1461	58.6703	78	59
58.1461	58.6703	82	70
58.3007	58.952	68	28
58.4554	58.61	77	54
58.4554	58.61	80	64
58.61	59.9101	58	28
58.61	58.7305	77	62
58.61	58.7305	80	62
58.6703	58.851	78	55
58.6703	59.4649	82	55
58.7305	59.154	77	61
58.7305	59.154	80	61
58.851	59.9101	75	53
58.851	59.4649	78	63
58.952	59.9101	68	28
59.154	59.255	77	54
59.154	59.255	80	64
59.255	59.9101	62	28
59.255	59.788	77	55
59.255	59.9101	80	65
59.4649	59.9101	78	57
59.4649	59.9101	82	67
59.5715	59.9101	53	27
59.788	59.8962	74	55
59.788	59.8962	77	65
59.8962	61.8168	51	44
59.8962	61.8168	74	59
59.8962	60.0629	77	59
60.0629	61.8168	77	53
60.0629	61.8168	80	62
60.2175	60.8238	66	34
60.5268	61.8168	58	34
60.8238	61.8168	66	34
61.1209	61.8168	63	34
61.1209	63.6296	75	61
61.1209	62.3572	78	73
61.4179	61.8168	54	34
61.737	63.2397	45	64
62.0562	62.6524	61	40
62.3572	63.6296	51	42
62.3572	63.6296	74	61
62.3572	62.9465	78	73
62.6524	63.6296	61	44
62.9465	63.6296	54	46
62.9465	63.6296	73	64
62.9465	63.5507	78	76
63.2397	63.6296	45	48
63.5507	65.53	44	54
63.5507	65.53	72	64
63.5507	65.53	78	78
63.8665	64.4605	60	47
64.1635	65.0963	51	47
64.4605	65.53	60	47
64.4605	65.53	69	62
64.4605	65.53	81	74
64.7902	65.53	54	46
64.7902	67.3827	68	64
64.7902	67.3827	80	76
65.0963	65.53	51	46
65.4025	67.3827	45	67
65.7086	66.3402	57	51
66.0244	67.0016	51	51
66.0244	67.3827	66	60
66.0244	67.3827	78	72
66.3402	67.3827	57	51
66.6657	67.3827	54	51
66.6657	67.3827	61	58
66.6657	67.3827	73	70
67.0016	67.3827	51	51
67.3464	69.2186	44	44
67.3464	69.2186	60	56
67.3464	69.2186	72	66
67.6552	68.2623	56	32
67.9587	68.8693	51	30
68.2623	69.2186	56	28
68.5658	69.2186	54	27
68.5658	69.2186	68	52
68.8693	69.2186	51	25
69.1933	70.7313	49	31
69.1933	69.598	69	57
69.3956	71.1065	71	50
69.4968	70.0976	64	27
69.598	70.0976	69	52
69.8003	71.1065	54	27
69.8003	71.1065	68	51
70.0976	71.1065	64	27
70.0976	71.1065	69	51
70.4126	71.1065	57	27
70.4126	71.1065	76	57
70.7313	71.1065	49	28
70.899	71.0706	75	53
71.0706	72.9664	48	44
71.0706	72.9664	75	57
71.402	71.9968	63	30
71.6933	72.6171	54	32
71.9968	72.9664	63	39
71.9968	72.9664	69	61
71.9968	72.9664	81	73
72.3171	72.9664	56	42
72.3171	73.5481	68	58
72.3171	73.5481	80	70
72.6171	72.9664	54	43
72.9411	74.8666	45	49
73.2446	73.8685	61	40
73.5481	74.5037	51	38
73.5481	73.8685	68	55
73.5481	73.8685	80	65
73.7083	74.0287	66	54
73.7083	74.0287	78	64
73.8685	74.8666	61	35
73.8685	74.8666	68	53
73.8685	74.8666	80	63
74.0287	74.8666	66	53
74.0287	74.8666	78	62
74.1888	74.8666	54	35
74.1888	74.5037	64	53
74.1888	74.5037	76	62
74.3445	74.6656	63	52
74.3445	74.6656	75	61
74.5037	74.8666	51	33
74.5037	74.8666	64	51
74.5037	74.8666	76	60
74.6656	74.8666	63	50
74.6656	74.8666	75	59
74.8303	76.3532	44	44
74.8303	76.7024	60	56
74.8303	76.7024	72	66
75.1391	75.7461	56	32
75.4426	76.7024	51	30
75.7461	76.7024	56	28
76.0497	76.7024	54	23
76.3532	76.7024	44	22
76.3532	76.7024	68	46
76.6772	78.2153	49	28
76.6772	77.0818	69	51
76.8795	78.5904	71	45
76.9807	77.5815	64	23
77.0818	77.5815	69	46
77.2842	78.5904	54	23
77.2842	78.5904	68	45
77.5815	78.5904	64	23
77.5815	77.7345	69	45
77.7345	78.5904	69	46
77.8965	78.5904	57	23
77.8965	78.5904	76	52
78.2153	78.5904	49	24
78.3829	78.5545	75	49
78.5545	80.4503	48	31
78.5545	80.425	75	54
78.8859	79.4807	63	24
79.1772	80.101	54	24
79.4807	80.4503	63	24
79.801	80.4503	57	24
80.101	80.4503	54	24
80.425	82.2805	47	28
80.425	84.1763	75	51
80.7285	81.3355	63	24
81.032	81.9539	54	24
81.3355	82.3164	63	24
81.6391	82.3164	57	24
81.9539	82.3164	54	24
82.2805	84.151	47	31
82.6119	83.2067	63	24
82.9032	83.827	53	24
83.2067	84.1763	63	24
83.527	84.1763	56	24
83.827	86.0355	53	24
84.151	86.0355	47	28
84.151	86.0355	74	51
84.4545	85.0633	62	24
84.758	85.6783	52	24
85.0633	86.0355	62	24
85.3669	86.0355	56	24
85.6783	86.0355	52	24
85.9995	87.87	45	31
85.9995	87.87	73	54
86.331	86.9257	61	24
86.6222	87.546	52	24
86.9257	87.8953	61	24
87.246	87.8953	57	24
87.546	87.8953	52	24
87.87	89.7614	45	28
87.87	91.6061	73	51
88.1735	88.7806	61	24
88.4771	89.399	51	24
88.7806	89.7614	61	24
89.0841	89.7614	54	24
89.399	89.7614	51	24
89.7255	91.5792	44	31
90.057	90.6517	60	24
90.3482	91.6061	51	24
90.3482	91.6061	72	49
90.6517	91.6061	60	24
90.9553	91.6061	54	24
90.9553	92.2244	70	48
91.2553	91.6061	49	24
91.5792	93.6494	44	28
91.9018	92.5489	56	24
91.9018	93.6494	68	42
92.2244	93.6494	48	24
92.2244	93.6494	70	44
92.5489	93.6494	56	24
92.5489	93.6494	72	45
92.8842	93.6494	54	24
92.8842	93.6494	73	47
93.231	93.6494	51	24
93.231	93.6494	75	48
93.5904	104.913	37	27
93.5904	100.448	77	49
93.9225	94.536	65	22
94.2389	96.0456	56	22
94.536	95.7363	65	22
94.833	96.674	61	22
95.13	96.9899	53	22
95.427	97.3541	49	27
95.427	104.913	75	49
95.7363	96.3549	65	22
96.0456	98.0166	56	22
96.0456	99.817	73	49
96.3549	96.9899	65	22
96.674	98.6049	61	22
96.9899	98.9079	53	22
96.9899	97.7046	65	45
97.3541	99.211	49	27
97.3541	104.913	68	49
97.7046	98.3108	65	24
98.0166	99.817	56	24
98.3108	99.514	65	23
98.6049	100.448	61	23
98.9079	100.769	53	23
99.211	101.108	49	28
99.514	100.133	65	23
99.817	101.727	56	23
99.817	104.545	73	52
100.133	101.418	65	24
100.448	102.322	61	25
100.448	103.872	77	54
100.769	102.619	53	27
101.108	102.916	49	30
101.108	104.913	82	61
101.418	102.024	65	26
101.727	103.547	56	25
102.024	103.225	65	24
102.322	104.203	61	24
102.619	104.545	53	23
102.916	104.913	49	27
103.225	103.872	65	22
103.225	104.913	80	45
103.547	104.913	56	22
103.547	104.913	76	50
103.872	104.913	65	22
103.872	104.913	77	45
104.203	104.913	61	22
104.203	104.913	72	49
104.545	104.913	53	22
104.545	104.913	73	45
104.913	108.699	37	28
104.913	108.699	69	56
105.264	105.904	66	22
105.592	107.461	57	22
105.904	107.154	66	22
106.217	108.699	61	22
106.533	108.379	54	22
106.848	108.699	49	27
107.154	107.767	66	22
107.461	108.699	57	22
107.767	108.699	66	22
108.073	108.699	62	26
108.379	108.699	54	22
108.699	110.562	49	28
108.699	112.594	70	52
109.025	109.644	66	22
109.338	111.215	58	22
109.644	110.899	66	22
109.95	111.85	63	22
110.256	112.178	54	22
110.562	112.594	49	27
110.899	111.529	66	22
110.899	112.594	84	50
111.215	112.594	58	22
111.215	112.594	82	52
111.529	112.594	66	22
111.529	112.514	77	46
111.85	112.594	63	24
111.85	112.594	80	50
112.178	112.594	54	22
112.178	112.594	78	45
112.514	114.415	48	27
112.514	114.415	77	51
112.843	113.463	66	22
113.16	114.415	57	22
113.463	114.415	66	22
113.766	114.415	63	21
113.766	115.003	75	52
114.069	114.415	54	21
114.373	116.37	46	28
114.68	115.333	66	23
114.68	116.37	74	57
115.003	116.37	58	25
115.003	116.37	75	57
115.333	116.37	66	27
115.333	116.37	76	57
115.662	116.37	63	28
115.662	116.37	77	62
115.992	116.37	54	30
116.165	116.252	78	51
116.252	116.37	78	51
116.358	118.238	45	34
116.358	118.238	90	71
116.667	117.287	66	24
116.977	118.238	57	23
117.183	118.238	87	65
117.287	118.238	66	22
117.39	118.238	85	62
117.586	118.238	61	22
117.586	118.238	81	60
117.778	118.238	78	58
117.874	118.238	51	21
117.97	118.238	75	55
118.163	120.138	44	27
118.163	120.003	72	47
118.466	119.104	66	22
118.623	120.138	68	49
118.781	120.138	56	22
118.781	120.138	75	50
118.889	120.138	84	50
118.996	120.138	69	48
119.104	120.138	66	24
119.104	120.138	76	52
119.211	120.138	85	53
119.319	120.138	70	50
119.426	120.138	60	26
119.426	120.138	77	54
119.534	120.138	86	55
119.642	120.138	71	53
119.754	120.138	51	27
119.754	120.138	78	56
119.874	120.138	87	57
120.003	120.138	72	54
120.138	121.994	37	28
120.138	121.994	79	54
120.138	121.994	88	64
120.461	121.056	68	24
120.746	121.994	56	24
121.056	121.994	68	24
121.056	121.365	80	49
121.056	121.365	89	58
121.365	121.994	61	24
121.365	121.884	80	48
121.365	121.884	89	57
121.571	121.994	82	51
121.571	121.994	90	61
121.674	121.994	53	24
121.884	121.994	80	45
121.884	121.994	89	54
121.994	123.869	49	28
121.994	123.869	80	49
121.994	123.869	89	58
122.158	123.869	77	45
122.158	123.869	85	54
122.323	122.946	65	24
122.641	123.548	56	24
122.946	123.869	65	25
123.243	123.869	61	25
123.548	123.869	56	25
123.869	125.725	49	29
123.869	125.68	76	51
123.869	125.68	85	60
124.192	124.788	64	27
124.491	125.383	52	26
124.491	125.725	78	48
124.491	125.725	86	57
124.788	125.725	64	26
125.085	125.725	57	26
125.085	125.725	73	45
125.085	125.725	81	54
125.383	125.725	52	26
125.68	127.45	50	23
125.68	126.051	76	61
125.68	126.051	85	61
125.98	126.551	64	24
125.98	126.122	74	43
125.98	126.122	83	51
126.051	126.837	76	51
126.051	126.837	85	51
126.122	126.551	74	45
126.122	126.551	83	54
126.265	127.132	52	25
126.265	127.45	73	45
126.265	127.45	82	54
126.551	127.45	64	26
126.551	127.45	74	48
126.551	127.45	83	57
126.837	127.45	56	27
126.837	127.45	76	51
126.837	127.45	85	60
127.132	127.45	52	28
127.287	127.45	71	45
127.287	127.45	80	54
127.45	129.344	49	31
127.45	129.307	74	54
127.45	129.344	83	64
127.767	128.361	64	29
128.064	128.989	52	29
128.361	129.344	64	29
128.361	128.669	73	51
128.361	128.669	81	61
128.669	129.344	57	29
128.669	128.882	73	51
128.669	129.344	81	61
128.882	129.095	73	50
128.882	129.344	80	59
128.989	129.344	52	29
129.095	129.344	73	50
129.095	129.344	78	59
129.307	131.169	44	34
129.307	131.169	74	51
129.307	130.223	76	61
129.616	130.223	64	26
129.92	130.841	52	28
130.223	131.169	64	30
130.223	131.169	70	49
130.223	130.53	76	58
130.53	131.169	62	32
130.53	131.169	71	52
130.53	130.841	76	61
130.841	131.169	52	34
130.841	131.169	72	55
130.841	131.156	76	66
131.156	133.073	45	40
131.156	132.677	73	59
131.156	133.073	76	67
131.475	132.091	64	32
131.794	132.677	52	32
132.091	133.073	64	32
132.388	133.073	61	32
132.388	133.073	74	55
132.388	133.073	78	61
132.677	133.073	52	32
132.677	133.073	69	55
132.677	132.996	73	65
132.996	134.914	40	40
132.996	133.15	68	50
132.996	133.15	73	59
133.15	133.675	73	56
133.15	133.675	76	66
133.305	133.956	64	34
133.46	133.614	71	51
133.46	133.614	74	60
133.614	134.914	56	35
133.614	133.735	71	58
133.614	133.735	74	58
133.675	133.855	73	52
133.675	134.469	76	52
133.735	134.057	71	57
133.735	134.057	74	57
133.855	134.914	70	50
133.855	134.469	73	59
133.956	134.914	64	35
134.057	134.259	71	51
134.057	134.259	74	60
134.259	134.914	62	35
134.259	134.792	71	52
134.259	134.901	74	61
134.469	134.914	73	54
134.469	134.914	76	63
134.576	134.914	52	35
134.792	134.914	68	55
134.792	134.901	71	65
134.901	136.821	45	50
134.901	136.821	71	53
134.901	136.821	74	62
135.222	135.828	64	39
135.531	136.821	57	39
135.531	136.821	69	53
135.531	136.125	73	62
135.828	136.821	64	39
136.125	136.821	61	39
136.125	137.362	73	59
136.125	137.362	81	70
136.422	136.821	52	39
136.741	138.569	39	65
137.061	137.657	66	40
137.362	138.569	57	42
137.362	137.951	73	59
137.362	137.951	81	70
137.657	138.569	66	44
137.951	138.569	61	46
137.951	138.555	73	64
137.951	138.569	81	76
138.244	138.569	51	48
138.555	140.396	44	50
138.555	140.821	73	63
138.555	140.077	80	75
138.876	139.483	66	39
139.186	140.476	56	39
139.186	140.476	81	74
139.483	140.476	66	39
139.78	140.476	61	39
140.077	140.476	51	39
140.077	140.476	80	75
140.396	142.231	44	63
140.396	141.439	78	73
140.609	142.079	75	72
140.715	141.339	66	40
140.821	142.245	73	70
141.032	142.245	56	42
141.032	142.079	72	70
141.237	142.245	76	70
141.339	142.245	66	44
141.439	142.231	78	75
141.635	142.245	60	46
141.635	142.245	80	75
141.928	142.245	51	48
142.079	142.245	72	61
142.079	142.231	75	72
142.231	144.166	44	50
142.231	144.166	75	64
142.231	143.979	78	76
142.552	143.159	64	39
142.861	144.166	56	39
143.06	144.166	73	62
143.06	143.36	76	73
143.159	144.166	64	39
143.36	143.467	76	62
143.36	143.467	85	73
143.467	144.166	61	39
143.467	144.086	76	63
143.467	144.166	85	75
143.667	144.086	80	62
143.667	144.166	83	73
143.767	144.166	52	39
143.979	144.166	78	59
143.979	144.166	81	70
144.086	146.024	32	58
144.086	144.192	76	64
144.086	144.192	80	76
144.296	146.024	68	57
144.296	144.493	80	68
144.394	144.995	64	40
144.493	146.024	69	58
144.493	144.692	80	69
144.692	146.024	56	42
144.692	146.024	70	58
144.692	144.893	80	70
144.893	146.024	71	59
144.893	145.098	80	71
144.995	146.024	64	44
145.098	146.024	72	60
145.098	145.309	80	72
145.309	146.024	61	46
145.309	146.024	73	61
145.309	145.436	80	73
145.436	146.024	74	61
145.436	145.569	80	73
145.569	146.024	75	63
145.569	145.708	80	74
145.637	146.024	52	48
145.708	146.024	76	63
145.708	145.855	80	74
145.855	146.024	77	64
145.855	146.01	80	75
146.01	147.93	44	65
146.01	146.63	78	67
146.01	147.235	80	79
146.331	146.927	63	51
146.486	147.93	83	63
146.63	147.93	54	51
146.63	147.235	78	66
146.63	147.93	81	78
146.927	147.93	63	51
147.235	147.93	60	51
147.235	147.851	78	67
147.235	147.93	80	79
147.535	147.93	51	51
147.851	149.704	32	64
147.851	148.009	78	74
147.851	148.009	87	88
148.158	148.759	63	48
148.455	149.704	54	51
148.455	149.704	76	69
148.455	149.065	80	81
148.759	149.704	63	54
149.065	149.704	60	57
149.065	149.69	75	72
149.065	149.69	80	85
149.371	149.704	51	59
149.69	151.625	45	76
149.69	151.625	75	75
149.69	151.625	80	89
150.012	150.618	63	55
150.321	151.625	54	56
150.618	151.625	63	57
150.926	151.625	60	57
150.926	151.625	78	80
151.226	151.625	51	57
151.545	153.371	33	82
151.854	152.447	63	57
152.15	153.371	54	58
152.15	153.371	72	64
152.15	152.745	75	64
152.15	152.745	78	76
152.447	153.371	63	59
152.745	153.371	59	62
152.745	153.371	71	68
152.745	153.357	75	68
152.745	153.357	78	80
153.044	153.371	51	63
153.357	155.291	46	84
153.357	155.291	70	71
153.357	155.291	75	71
153.357	153.844	78	84
153.691	154.294	63	52
153.844	155.291	78	78
153.997	155.291	54	52
153.997	156.945	90	97
154.294	155.291	63	54
154.602	155.291	58	54
154.902	155.291	51	52
155.221	156.945	34	80
155.501	156.063	63	56
155.501	156.945	86	86
155.782	156.945	54	56
155.782	156.945	87	79
155.969	156.945	81	77
156.063	156.945	63	56
156.158	156.945	82	77
156.349	156.945	58	56
156.349	156.945	77	76
156.543	156.931	78	75
156.64	156.945	51	56
156.737	156.945	74	75
156.931	158.865	47	71
156.931	158.865	69	71
156.931	158.865	75	71
156.931	157.418	78	84
157.265	157.868	63	52
157.418	158.865	78	78
157.571	158.865	54	52
157.571	160.519	90	97
157.868	158.865	63	54
158.176	158.865	57	54
158.476	158.865	51	52
158.795	160.519	35	79
159.075	159.637	63	56
159.075	160.519	86	86
159.356	160.519	54	56
159.356	160.519	87	79
159.543	160.519	80	77
159.637	160.519	63	56
159.732	160.519	81	77
159.923	160.519	57	56
159.923	160.519	77	76
160.117	160.505	78	75
160.214	160.519	51	56
160.311	160.519	74	75
160.505	162.383	48	70
160.505	162.369	69	71
160.505	162.383	75	71
160.505	160.992	78	84
160.838	161.442	63	52
160.992	162.369	78	78
161.145	162.383	54	52
161.145	162.383	90	97
161.442	162.383	63	54
161.75	162.383	57	54
162.05	162.383	51	52
162.369	163.627	49	66
162.369	163.613	69	71
162.369	163.627	73	71
162.369	162.855	78	84
162.702	163.627	61	52
162.855	163.613	78	78
163.008	163.627	54	52
163.008	163.627	90	97
163.305	163.627	57	54
163.613	164.864	50	66
163.613	164.864	69	71
163.613	164.864	72	71
163.613	164.1	78	84
163.947	164.864	60	52
164.1	164.864	78	78
164.253	164.864	54	52
164.253	168.176	90	97
164.55	164.864	57	54
164.856	168.176	51	66
165.067	168.176	89	86
165.172	168.176	63	52
165.277	168.176	88	84
165.488	167.725	54	52
165.488	167.844	78	89
165.698	168.176	87	82
165.804	166.747	56	55
165.909	168.176	86	82
166.119	168.176	44	66
166.119	168.176	85	87
166.327	168.176	75	79
166.431	167.066	66	52
166.537	168.176	84	79
166.747	168.176	56	51
166.747	168.176	82	83
166.959	168.176	81	77
167.066	168.176	66	50
167.172	168.176	72	74
167.387	168.176	60	49
167.387	168.176	80	81
167.609	168.176	79	75
167.725	168.176	54	47
167.844	168.176	78	73
168.078	168.41	37	76
168.078	174.842	77	79
168.41	169.023	65	44
168.726	170.533	56	48
169.023	170.224	65	48
169.32	171.151	61	48
169.617	171.461	53	47
169.914	171.798	49	56
169.914	179.17	75	82
170.224	170.842	65	44
170.533	172.442	56	44
170.533	174.242	73	77
170.842	171.461	65	44
171.151	173.03	61	44
171.461	173.333	53	44
171.461	172.13	65	74
171.798	173.636	49	52
171.798	179.17	68	81
172.13	172.736	65	48
172.442	174.242	56	48
172.736	173.939	65	46
173.03	174.842	61	46
173.333	175.15	53	46
173.636	175.478	49	54
173.939	174.542	65	46
174.242	176.097	56	46
174.242	178.839	73	81
174.542	175.788	65	48
174.842	176.692	61	49
174.842	178.216	77	85
175.15	176.989	53	52
175.478	177.286	49	59
175.478	179.17	82	95
175.788	176.394	65	51
176.097	177.91	56	49
176.394	177.595	65	48
176.692	178.523	61	48
176.989	178.839	53	46
177.286	179.17	49	52
177.595	178.216	65	44
177.595	179.17	80	69
177.91	179.17	56	44
177.91	179.17	76	76
178.216	179.17	65	44
178.216	179.17	77	70
178.523	179.17	61	44
178.523	179.17	72	75
178.839	179.17	53	42
178.839	179.17	73	69
179.17	182.807	37	52
179.17	182.807	71	79
179.495	180.103	65	44
179.806	181.588	56	44
180.103	181.291	65	44
180.4	182.182	61	44
180.697	182.487	53	44
180.994	182.807	49	52
181.291	181.885	65	44
181.588	182.807	56	44
181.885	182.807	65	37
182.182	182.807	61	42
182.487	182.807	53	32
182.807	184.67	49	28
182.807	186.667	83	61
183.133	183.752	65	22
183.445	185.301	56	22
183.752	184.993	65	22
184.058	185.929	61	22
184.364	186.253	53	22
184.67	186.667	49	27
184.885	185.301	79	50
184.993	185.612	65	22
185.094	186.145	80	50
185.301	186.667	56	22
185.301	185.717	79	53
185.507	186.667	78	50
185.612	186.667	65	22
185.717	186.667	79	50
185.929	186.667	61	24
185.929	186.667	82	56
186.145	186.667	80	52
186.253	186.667	53	22
186.363	186.667	77	50
186.586	188.514	37	27
186.586	188.514	75	51
186.915	187.536	65	22
187.233	188.514	56	22
187.536	188.514	65	22
187.839	188.514	59	21
188.142	188.514	53	21
188.457	190.422	49	28
188.457	188.556	73	47
188.54	188.632	75	43
188.617	188.756	73	47
188.689	188.809	75	43
188.756	188.861	73	47
188.809	189.438	65	23
188.809	188.913	75	43
188.861	188.964	73	47
188.913	189.017	75	43
188.964	189.069	73	47
189.017	189.333	75	43
189.069	189.227	73	47
189.122	190.422	56	25
189.122	190.422	72	47
189.227	190.422	73	46
189.333	190.422	75	47
189.438	190.422	65	27
189.438	190.422	77	48
189.543	190.422	78	49
189.648	190.422	80	50
189.753	190.422	59	28
189.753	190.422	82	51
189.858	190.422	83	52
189.965	190.422	85	53
190.074	190.422	53	30
190.074	190.422	87	54
190.187	190.422	89	55
190.303	190.422	90	55
190.422	192.354	49	33
190.422	192.379	94	57
190.512	190.776	92	55
190.601	190.946	95	52
190.689	190.861	91	52
190.776	191.427	65	28
190.776	192.379	92	52
190.861	191.111	91	52
190.946	191.271	95	52
191.029	191.192	90	52
191.111	192.379	56	28
191.111	192.379	91	49
191.192	191.427	90	49
191.271	191.582	95	50
191.349	191.505	89	50
191.427	192.379	65	28
191.427	192.379	90	51
191.505	191.735	89	52
191.582	191.886	95	52
191.659	191.811	88	53
191.735	192.379	59	28
191.735	192.379	89	53
191.811	192.037	88	54
191.886	192.19	95	55
191.962	192.113	87	55
192.037	192.379	53	28
192.037	192.379	88	56
192.113	192.379	87	57
192.19	192.379	95	57
192.27	192.379	86	57
192.354	194.558	49	28
192.354	192.518	85	57
192.438	192.755	87	58
192.518	192.675	85	59
192.597	194.558	84	59
192.675	193.354	65	29
192.675	193.887	85	60
192.755	194.558	87	61
192.834	193.796	89	61
192.914	194.558	90	62
192.994	194.558	56	30
192.994	193.707	92	62
193.077	194.558	94	62
193.164	193.618	95	64
193.257	193.53	97	66
193.354	194.558	65	30
193.354	194.558	101	65
193.442	194.558	99	64
193.53	194.558	97	62
193.618	194.558	95	61
193.707	194.558	59	29
193.707	194.558	92	59
193.796	194.558	89	58
193.887	194.558	85	57
193.98	194.558	83	56
194.074	194.558	53	28
194.074	194.558	80	54
194.17	194.558	77	53
194.268	194.558	73	51
194.368	194.558	71	50
194.47	196.507	50	29
194.47	195.66	70	53
194.831	195.497	65	22
195.17	196.562	56	22
195.497	196.562	65	22
195.497	196.562	69	48
195.66	195.986	70	50
195.823	196.562	58	21
195.823	196.268	71	53
195.986	196.385	70	50
196.154	196.562	53	21
196.154	196.562	73	52
196.268	196.562	71	50
196.385	196.507	70	48
196.507	198.495	50	28
196.507	198.495	70	50
196.859	197.497	65	23
197.181	198.495	56	25
197.497	198.495	65	27
197.812	198.495	58	28
197.812	200.34	82	54
198.133	198.495	53	30
198.482	200.34	51	35
198.482	199.732	78	59
198.798	199.423	66	28
199.113	200.417	58	28
199.113	200.417	80	55
199.113	200.417	83	61
199.423	200.417	66	28
199.732	200.417	63	28
199.732	200.18	75	51
199.732	200.18	78	61
200.02	200.417	54	28
200.18	200.417	75	50
200.18	200.34	78	59
200.34	202.244	51	35
200.34	201.018	78	56
200.34	201.018	82	66
200.649	201.3	68	30
200.804	200.958	77	51
200.804	200.958	80	60
200.958	202.258	58	31
200.958	201.079	77	58
200.958	201.079	80	58
201.018	201.199	78	52
201.018	201.603	82	52
201.079	201.401	77	57
201.079	201.401	80	57
201.199	202.258	75	50
201.199	201.603	78	59
201.3	202.258	68	31
201.401	202.136	77	51
201.401	202.244	80	60
201.603	202.258	62	31
201.603	202.258	78	54
201.603	202.258	82	63
201.92	202.258	56	31
202.136	202.258	74	55
202.136	202.244	77	65
202.244	204.165	51	44
202.244	203.667	77	53
202.244	204.165	80	62
202.566	203.172	66	34
202.875	204.165	58	34
202.875	203.872	75	57
202.875	203.321	78	57
203.172	204.165	66	34
203.321	203.469	78	56
203.321	203.469	87	66
203.469	204.165	63	34
203.469	204.165	78	55
203.469	204.165	87	65
203.667	204.165	77	52
203.667	204.165	85	61
203.766	204.165	54	34
203.872	204.165	75	52
203.872	204.165	83	61
204.085	206.016	46	45
204.085	205.119	74	57
204.085	204.298	82	68
204.298	206.016	70	49
204.298	204.504	82	58
204.404	205.015	65	35
204.504	206.016	71	50
204.504	204.706	82	60
204.706	206.016	58	37
204.706	206.016	72	52
204.706	204.912	82	62
204.912	206.016	73	53
204.912	205.119	82	63
205.015	206.016	65	39
205.119	206.016	74	56
205.119	205.33	82	66
205.33	206.016	62	40
205.33	206.016	75	57
205.33	205.545	82	68
205.545	206.016	76	59
205.545	205.768	82	70
205.655	206.016	53	42
205.768	206.016	77	60
205.768	206.002	82	71
206.002	207.92	39	35
206.002	207.523	78	59
206.002	207.842	82	67
206.322	206.938	66	28
206.641	207.92	58	28
206.641	207.92	80	55
206.641	207.92	83	61
206.938	207.92	66	28
207.235	207.92	63	28
207.523	207.92	54	28
207.523	207.683	75	55
207.523	207.683	78	65
207.683	207.92	75	50
207.683	207.842	78	59
207.842	209.747	51	35
207.842	208.521	78	56
207.842	208.521	82	66
208.152	208.803	68	30
208.306	208.461	77	51
208.306	208.461	80	60
208.461	209.761	58	31
208.461	208.581	77	58
208.461	208.581	80	58
208.521	208.702	78	52
208.521	209.316	82	52
208.581	208.904	77	57
208.581	208.904	80	57
208.702	209.761	75	50
208.702	209.316	78	59
208.803	209.761	68	31
208.904	209.106	77	51
208.904	209.106	80	60
209.106	209.761	62	31
209.106	209.639	77	52
209.106	209.747	80	61
209.316	209.761	78	54
209.316	209.761	82	63
209.422	209.761	53	31
209.639	209.761	74	55
209.639	209.747	77	65
209.747	211.66	51	44
209.747	211.66	77	53
209.747	211.66	80	62
210.068	210.675	66	34
210.378	211.66	58	34
210.378	211.66	75	57
210.378	211.66	78	57
210.675	211.66	66	34
210.972	211.66	63	34
210.972	212.761	82	60
210.972	213.429	90	71
211.269	211.66	54	34
211.588	213.429	42	65
211.876	212.463	63	40
211.876	212.968	80	62
211.876	213.429	89	73
212.175	213.429	54	42
212.175	213.184	78	56
212.175	213.429	87	67
212.366	213.415	77	57
212.366	213.429	85	68
212.463	213.429	63	44
212.562	213.429	75	59
212.562	213.429	84	70
212.761	213.429	58	46
212.761	213.429	73	60
212.761	213.429	82	71
212.968	213.429	72	61
212.968	213.429	80	72
213.075	213.429	51	48
213.184	213.429	70	62
213.184	213.429	78	73
213.415	214.936	44	52
213.415	214.639	68	61
213.415	214.639	77	72
213.736	214.342	61	44
214.045	215.33	53	44
214.045	215.33	70	64
214.045	215.33	78	76
214.342	215.33	61	44
214.639	215.33	56	44
214.639	215.33	68	62
214.639	215.33	77	74
214.936	215.33	44	44
215.256	216.767	46	57
215.256	217.106	66	62
215.256	217.106	75	73
215.553	216.153	61	48
215.853	217.106	53	48
215.853	216.453	65	60
215.853	217.106	73	71
216.153	216.453	61	48
216.453	217.106	58	48
216.453	217.093	61	60
216.453	217.106	65	71
216.767	217.106	46	49
217.093	218.624	41	58
217.093	218.965	61	65
217.093	219.045	68	77
217.405	218.018	56	51
217.718	218.318	49	51
218.018	219.045	56	51
218.318	219.045	49	51
218.624	219.045	41	52
218.965	220.557	42	64
218.965	220.893	61	66
218.965	220.893	63	66
218.965	220.907	70	78
219.284	219.906	58	51
219.603	220.907	49	52
219.906	220.907	58	54
220.228	220.907	51	55
220.557	220.907	42	56
220.893	224.909	32	58
220.893	222.17	56	66
220.893	221.216	61	66
220.893	224.909	63	78
221.216	221.854	61	51
221.538	222.484	51	51
221.854	223.152	61	51
221.959	224.772	68	61
222.065	224.639	73	63
222.17	224.149	56	51
222.17	224.511	75	65
222.275	224.387	80	67
222.381	224.266	85	68
222.484	223.482	51	52
222.484	224.149	87	70
222.591	224.036	92	72
222.704	223.923	97	73
222.823	226.887	44	64
222.823	226.972	99	92
223.152	223.812	61	51
223.482	224.511	51	52
223.812	225.246	61	54
223.923	226.972	97	78
224.036	226.972	92	76
224.149	226.887	56	55
224.149	226.972	87	74
224.266	226.972	85	72
224.387	226.972	80	69
224.511	225.583	51	56
224.511	226.972	75	67
224.639	226.972	73	65
224.772	226.887	68	63
224.909	226.972	32	58
224.909	226.972	63	78
225.246	225.906	61	51
225.583	226.547	51	51
225.906	226.972	61	51
226.226	226.972	54	51
226.547	226.972	51	52
226.887	228.668	44	64
226.887	229.154	56	66
226.887	228.265	65	66
226.887	229.154	68	78
227.228	227.914	60	51
227.569	229.154	51	52
227.914	229.154	60	54
227.914	228.53	63	72
228.265	229.154	54	55
228.265	229.154	65	78
228.53	229.154	63	75
228.668	229.154	44	56
228.81	229.154	61	75
229.154	231.01	37	64
229.154	230.397	61	78
229.486	230.1	65	26
229.803	231.01	56	26
230.1	231.01	65	26
230.397	231.01	61	26
230.694	231.027	53	26
231.027	232.874	49	30
231.027	232.933	85	62
231.336	231.943	64	26
231.646	232.933	58	26
231.646	232.933	79	55
231.943	232.933	64	26
232.24	232.933	61	26
232.541	232.933	55	26
232.874	234.721	49	30
232.874	234.78	84	62
233.183	233.79	63	26
233.493	234.78	57	26
233.493	234.78	78	55
233.79	234.78	63	26
234.087	234.78	60	26
234.388	234.78	54	26
234.721	236.568	49	30
234.721	236.627	83	62
235.03	235.637	62	26
235.34	236.627	56	25
235.34	236.627	77	54
235.637	236.627	62	25
235.934	236.627	59	25
236.235	236.627	53	25
236.568	238.415	49	28
236.568	238.475	82	60
236.877	237.484	61	25
237.187	238.475	55	24
237.187	238.475	76	52
237.484	238.475	61	24
237.781	238.475	58	24
238.082	238.475	52	24
238.415	240.262	49	28
238.415	240.322	81	58
238.724	239.331	61	23
239.034	240.322	54	23
239.034	240.322	75	51
239.331	240.322	61	23
239.628	240.322	57	23
239.929	240.322	51	23
240.262	242.069	49	27
240.262	245.82	80	60
240.572	241.178	60	22
240.881	242.126	54	22
241.178	242.126	60	22
241.475	242.126	56	22
241.475	242.126	68	43
241.772	242.126	51	22
241.772	242.126	70	44
242.069	243.963	49	27
242.069	243.963	72	45
242.371	242.992	60	22
242.371	243.963	73	46
242.679	243.963	54	22
242.679	243.963	74	47
242.992	243.963	60	22
242.992	243.963	75	48
243.309	243.963	56	22
243.309	243.963	77	50
243.63	243.963	51	22
243.63	243.963	78	51
243.963	245.82	37	27
243.963	245.82	77	54
244.296	244.909	65	22
244.612	245.82	56	22
244.909	245.82	65	22
245.206	245.82	61	22
245.503	245.836	53	22
245.836	247.683	49	27
245.836	247.743	85	55
246.146	246.752	64	22
246.3	247.743	94	41
246.455	247.743	58	22
246.455	247.743	79	49
246.752	247.743	64	22
247.049	247.743	61	22
247.35	247.743	55	22
247.683	249.53	49	27
247.683	249.59	84	55
247.993	248.599	63	22
248.147	249.59	93	41
248.302	249.59	57	22
248.302	249.59	78	49
248.599	249.59	63	22
248.896	249.59	60	22
249.197	249.59	54	22
249.53	251.378	49	27
249.53	251.437	83	55
249.84	250.446	62	22
249.994	251.437	92	41
250.149	251.437	56	22
250.149	251.437	77	49
250.446	251.437	62	22
250.743	251.437	59	22
251.044	251.437	53	22
251.378	253.225	49	27
251.378	253.284	82	55
251.687	252.293	61	22
251.841	253.284	91	41
251.996	253.284	55	22
251.996	253.284	76	49
252.293	253.284	61	22
252.59	253.284	58	22
252.891	253.284	52	22
253.225	255.072	49	27
253.225	255.133	81	55
253.534	254.14	61	22
253.689	255.133	90	41
253.843	255.133	54	22
253.843	255.133	75	49
254.14	255.133	61	22
254.437	255.133	57	22
254.738	255.133	51	22
255.072	256.947	49	27
255.072	260.99	80	55
255.391	256.019	60	22
255.71	257.007	54	22
256.019	257.007	60	22
256.329	257.007	56	22
256.638	257.007	51	22
256.947	259.004	49	27
257.261	257.895	60	22
257.261	259.004	79	47
257.574	259.004	54	22
257.574	259.004	78	46
257.895	259.004	60	22
257.895	258.576	77	45
258.229	259.004	56	22
258.229	259.004	75	45
258.576	259.004	51	22
258.576	259.004	77	43
258.938	260.927	37	27
258.938	263.09	73	52
259.283	259.951	61	22
259.627	260.99	49	22
259.951	260.99	61	22
260.275	260.99	53	22
260.599	260.99	44	22
260.927	263.024	37	26
260.927	263.09	77	46
261.258	261.946	61	22
261.258	263.09	78	45
261.598	263.09	49	22
261.598	263.09	79	46
261.946	263.09	61	22
261.946	263.024	80	48
262.304	263.09	53	22
262.304	263.09	84	48
262.664	263.09	44	22
262.664	263.09	82	47
263.024	265.049	37	26
263.024	265.113	72	45
263.024	267.176	80	53
263.371	264.052	60	21
263.371	265.113	73	45
263.717	265.113	51	21
263.717	265.113	74	45
264.052	265.113	60	21
264.052	265.049	75	45
264.387	265.113	54	21
264.387	265.113	78	44
264.718	265.113	44	21
264.718	265.113	77	44
265.049	267.108	37	25
265.049	266.368	75	44
265.372	266.03	60	21
265.372	267.176	79	44
265.698	267.176	51	21
265.698	267.176	78	43
266.03	267.176	60	21
266.03	266.714	77	42
266.368	267.176	54	21
266.368	267.176	68	40
266.368	267.176	75	42
266.714	267.176	44	21
266.714	267.176	77	39
267.108	269.208	37	24
267.108	269.275	69	43
267.108	269.275	73	48
267.465	268.156	61	21
267.465	268.156	68	43
267.823	269.275	49	20
267.823	269.275	67	43
268.156	269.275	61	20
268.156	268.83	68	43
268.322	269.275	72	37
268.487	269.275	53	20
268.487	269.275	70	43
268.83	269.275	44	20
268.83	269.208	68	42
269.208	271.346	37	24
269.208	271.416	68	42
269.208	271.416	77	42
269.556	270.264	61	20
269.556	271.416	78	41
269.907	271.416	49	20
269.907	271.416	79	42
270.264	271.416	61	20
270.264	271.346	80	44
270.626	271.416	53	20
270.626	271.416	84	45
270.986	271.416	44	20
270.986	271.416	82	44
271.346	273.475	37	23
271.346	273.541	72	41
271.346	275.699	80	48
271.714	272.43	60	20
271.714	273.541	73	41
272.082	273.541	51	20
272.082	273.541	74	41
272.43	273.541	60	19
272.43	273.475	75	41
272.779	273.541	54	19
272.779	273.541	78	41
273.127	273.541	44	19
273.127	273.541	77	41
273.475	275.628	37	22
273.475	274.892	75	40
273.821	274.529	60	19
273.821	275.699	79	40
274.172	275.699	51	19
274.172	275.699	78	40
274.529	275.699	60	19
274.529	275.26	77	38
274.892	275.699	54	19
274.892	275.699	68	36
274.892	275.699	75	38
275.26	275.699	44	19
275.26	275.699	77	36
275.628	277.772	37	22
275.628	286.234	65	34
275.628	281.155	73	39
275.997	276.717	61	18
276.365	278.481	49	18
276.717	278.123	61	18
277.069	279.212	53	18
277.421	279.593	44	18
277.772	280.009	37	22
278.123	278.845	61	18
278.481	280.907	49	18
278.845	280.457	61	18
279.212	281.807	53	18
279.593	282.258	44	18
280.009	282.708	37	22
280.009	286.234	68	31
280.009	281.92	77	37
280.389	286.234	70	31
280.389	282.303	78	37
280.457	281.357	61	18
280.772	286.234	72	31
280.772	282.708	80	37
280.907	283.622	49	18
281.155	286.234	73	30
281.155	283.092	82	36
281.357	283.16	61	18
281.537	286.234	75	30
281.537	283.482	84	36
281.807	284.63	53	18
281.92	286.234	77	29
281.92	283.881	85	35
282.258	285.227	44	18
282.303	286.234	78	29
282.303	284.307	87	35
282.708	285.936	37	22
282.708	286.234	80	28
282.708	284.771	89	34
283.092	286.234	82	28
283.092	285.293	90	34
283.16	284.102	61	18
283.482	286.234	84	28
283.482	285.936	92	33
283.622	286.234	49	18
283.881	286.234	85	28
283.881	286.234	94	33
284.102	286.234	61	18
284.307	286.234	87	27
284.307	286.234	96	32
284.63	286.234	53	18
284.771	286.234	89	27
284.771	286.234	97	32
285.227	286.234	44	18
285.293	286.234	90	27
285.293	286.234	99	32
285.936	309.99	37	17
285.936	309.99	92	30
285.936	309.99	101	36
290.068	309.99	44	16
290.068	293.54	56	20
290.068	309.99	68	30
290.068	309.99	77	36
293.54	309.99	49	16
293.54	309.99	56	20
293.54	309.99	65	28
293.54	309.99	73	33
