# onset,offset,note,velocity
0.500004	0.592313	65.000000	42.000000
0.576930	0.669238	66.000000	42.000000
0.653856	0.746097	65.000000	42.000000
0.730782	0.822621	67.000000	43.000000
0.807319	0.899144	68.000000	43.000000
0.883842	0.975668	69.000000	43.000000
0.960366	1.052191	68.000000	44.000000
1.036889	1.128339	70.000000	44.000000
1.113104	1.204487	71.000000	44.000000
1.189252	1.280635	72.000000	46.000000
1.265400	1.356783	71.000000	46.000000
1.341548	1.432596	73.000000	46.000000
1.417441	1.508355	74.000000	47.000000
1.493200	1.584114	75.000000	47.000000
1.568959	1.659873	74.000000	47.000000
1.644718	1.735364	76.000000	48.000000
1.720290	1.810734	77.000000	48.000000
1.795660	1.886104	78.000000	48.000000
1.871030	1.961474	77.000000	49.000000
1.908715	3.798708	53.000000	37.000000
1.946400	2.036643	79.000000	49.000000
1.946400	2.620077	59.000000	42.000000
1.984085	2.620077	62.000000	46.000000
2.021649	2.111637	80.000000	49.000000
2.021649	2.917105	68.000000	57.000000
2.096644	2.186632	81.000000	50.000000
2.171639	2.261627	80.000000	50.000000
2.246633	2.336487	82.000000	50.000000
2.321561	2.411120	83.000000	51.000000
2.396193	2.485752	84.000000	51.000000
2.470826	2.560385	83.000000	51.000000
2.545458	2.634923	86.000000	52.000000
2.582768	3.506924	60.000000	33.000000
2.620077	2.709180	84.000000	52.000000
2.620077	3.213195	63.000000	46.000000
2.694334	2.783437	85.000000	52.000000
2.768591	2.857694	84.000000	54.000000
2.842848	2.931951	86.000000	54.000000
2.917105	3.006208	87.000000	54.000000
2.917105	3.213195	67.000000	49.000000
2.991362	3.080184	89.000000	55.000000
3.065405	3.154079	87.000000	55.000000
3.139300	3.227907	90.000000	55.000000
3.213195	3.301439	91.000000	56.000000
3.213195	3.798708	63.000000	54.000000
3.286727	3.374972	92.000000	56.000000
3.360260	3.448384	91.000000	56.000000
3.433753	3.521555	95.000000	57.000000
3.506924	3.594726	96.000000	57.000000
3.506924	3.798708	60.000000	49.000000
3.580094	3.667628	97.000000	57.000000
3.653064	3.740450	96.000000	58.000000
3.725886	3.813272	98.000000	58.000000
3.798708	3.871516	99.000000	60.000000
3.871516	3.944338	98.000000	60.000000
3.944338	4.017160	99.000000	59.000000
4.017160	4.089982	97.000000	59.000000
4.089982	4.162805	96.000000	58.000000
4.162805	4.235935	95.000000	58.000000
4.235935	4.309106	96.000000	57.000000
4.309106	4.382276	94.000000	57.000000
4.382276	4.455447	93.000000	56.000000
4.455447	4.528618	92.000000	56.000000
4.528618	4.601949	93.000000	55.000000
4.601949	4.675482	91.000000	55.000000
4.675482	4.749015	90.000000	54.000000
4.749015	4.822548	89.000000	54.000000
4.822548	4.896081	90.000000	52.000000
4.896081	4.969614	88.000000	51.000000
4.969614	5.042422	87.000000	49.000000
5.042422	5.115244	86.000000	49.000000
5.115244	5.188334	87.000000	49.000000
5.188334	5.261505	85.000000	48.000000
5.261505	5.334984	84.000000	48.000000
5.334984	5.408517	83.000000	48.000000
5.408517	5.482264	84.000000	47.000000
5.408517	7.298161	53.000000	35.000000
5.445317	6.041090	57.000000	37.000000
5.482264	5.556159	82.000000	47.000000
5.482264	6.041090	60.000000	41.000000
5.519212	6.041090	63.000000	43.000000
5.556159	5.630309	81.000000	46.000000
5.556159	6.775023	66.000000	46.000000
5.630309	5.704566	80.000000	46.000000
5.704566	5.779105	81.000000	46.000000
5.779105	5.853737	79.000000	44.000000
5.853737	5.928557	78.000000	44.000000
5.928557	6.003552	77.000000	43.000000
6.003552	6.078775	78.000000	43.000000
6.078775	6.154145	75.000000	42.000000
6.116460	7.095011	58.000000	36.000000
6.154145	6.229770	74.000000	42.000000
6.154145	6.775023	62.000000	48.000000
6.229770	6.306387	73.000000	42.000000
6.306387	6.383608	74.000000	41.000000
6.383608	6.461124	72.000000	41.000000
6.461124	6.539055	70.000000	40.000000
6.461124	6.775023	65.000000	35.000000
6.539055	6.617282	69.000000	40.000000
6.617282	6.695938	70.000000	40.000000
6.695938	6.775023	68.000000	39.000000
6.775023	6.854416	67.000000	39.000000
6.775023	7.095011	61.000000	46.000000
6.854416	6.934239	66.000000	37.000000
6.934239	7.014451	67.000000	37.000000
7.014451	7.095011	65.000000	37.000000
7.095011	7.176027	73.000000	36.000000
7.095011	7.298161	58.000000	34.000000
7.176027	7.257352	70.000000	36.000000
7.257352	7.339146	67.000000	35.000000
7.298161	7.794075	53.000000	34.000000
7.339146	7.421409	65.000000	35.000000
7.339146	7.794075	55.000000	34.000000
7.380197	7.794075	58.000000	34.000000
7.421409	7.794075	64.000000	43.000000
7.421409	7.794075	61.000000	34.000000
8.095891	8.171650	97.000000	48.000000
8.095891	8.171650	88.000000	34.000000
8.095891	8.171650	91.000000	34.000000
8.171650	8.247436	94.000000	48.000000
8.247436	8.323584	90.000000	47.000000
8.247436	8.323584	81.000000	29.000000
8.247436	8.323584	84.000000	29.000000
8.323584	8.399732	87.000000	46.000000
8.399732	8.475947	91.000000	46.000000
8.399732	8.475947	85.000000	29.000000
8.399732	8.475947	82.000000	29.000000
8.475947	8.552484	88.000000	44.000000
8.552484	8.629021	84.000000	44.000000
8.552484	8.629021	75.000000	29.000000
8.552484	8.629021	78.000000	29.000000
8.629021	8.705678	81.000000	43.000000
8.705678	8.782604	85.000000	42.000000
8.705678	8.782604	76.000000	34.000000
8.705678	8.782604	79.000000	34.000000
8.782604	8.859530	82.000000	41.000000
8.859530	8.936456	78.000000	41.000000
8.859530	8.936456	72.000000	29.000000
8.859530	8.936456	69.000000	29.000000
8.936456	9.013382	75.000000	40.000000
9.013382	9.090307	79.000000	39.000000
9.013382	9.090307	73.000000	29.000000
9.013382	9.090307	70.000000	29.000000
9.090307	9.167233	76.000000	39.000000
9.167233	9.244159	72.000000	37.000000
9.167233	9.244159	63.000000	29.000000
9.167233	9.244159	66.000000	29.000000
9.244159	9.321085	69.000000	36.000000
9.321085	9.398842	73.000000	36.000000
9.321085	9.398842	64.000000	34.000000
9.321085	9.398842	67.000000	34.000000
9.398842	9.481414	70.000000	35.000000
9.481414	9.569578	66.000000	35.000000
9.481414	9.569578	57.000000	31.000000
9.481414	9.569578	60.000000	31.000000
9.569578	9.650313	64.000000	34.000000
9.650313	9.808791	64.000000	34.000000
9.650313	9.808791	67.000000	34.000000
9.650313	9.808791	58.000000	34.000000
9.650313	9.808791	61.000000	34.000000
10.023542	10.120947	41.000000	41.000000
10.218351	10.301218	85.000000	44.000000
10.218351	10.301218	76.000000	37.000000
10.218351	10.301218	73.000000	37.000000
10.218351	10.301218	53.000000	21.000000
10.218351	10.301218	67.000000	26.000000
10.218351	10.301218	58.000000	21.000000
10.218351	10.301218	61.000000	21.000000
10.384085	10.466952	84.000000	39.000000
10.384085	10.466952	73.000000	32.000000
10.384085	10.466952	76.000000	32.000000
10.384085	10.466952	58.000000	21.000000
10.384085	10.466952	61.000000	21.000000
10.384085	10.466952	53.000000	21.000000
10.384085	10.466952	67.000000	26.000000
10.549819	10.632686	83.000000	42.000000
10.549819	10.632686	76.000000	35.000000
10.549819	10.632686	73.000000	35.000000
10.549819	10.632686	67.000000	26.000000
10.549819	10.632686	53.000000	21.000000
10.549819	10.632686	58.000000	21.000000
10.549819	10.632686	61.000000	21.000000
10.715553	10.805916	73.000000	32.000000
10.715553	10.805916	82.000000	37.000000
10.715553	10.805916	76.000000	32.000000
10.715553	10.805916	67.000000	27.000000
10.715553	10.805916	53.000000	23.000000
10.715553	10.805916	61.000000	23.000000
10.715553	10.805916	58.000000	23.000000
10.896280	10.979616	76.000000	36.000000
10.896280	10.979616	73.000000	36.000000
10.896280	10.979616	85.000000	43.000000
10.896280	10.979616	67.000000	31.000000
10.896280	10.979616	61.000000	25.000000
10.896280	10.979616	58.000000	25.000000
10.896280	10.979616	53.000000	25.000000
11.062953	11.234400	73.000000	39.000000
11.062953	11.148676	84.000000	47.000000
11.062953	11.234400	76.000000	39.000000
11.062953	11.405820	67.000000	25.000000
11.062953	11.405820	53.000000	20.000000
11.062953	11.405820	61.000000	20.000000
11.062953	11.405820	58.000000	20.000000
11.148676	11.234400	83.000000	46.000000
11.234400	11.320110	82.000000	44.000000
11.748673	11.824432	99.000000	48.000000
11.748673	11.824432	93.000000	34.000000
11.748673	11.824432	90.000000	34.000000
11.824432	11.900218	96.000000	48.000000
11.900218	11.976366	92.000000	47.000000
11.900218	11.976366	83.000000	29.000000
11.900218	11.976366	86.000000	29.000000
11.976366	12.052514	89.000000	46.000000
12.052514	12.128729	93.000000	46.000000
12.052514	12.128729	84.000000	29.000000
12.052514	12.128729	87.000000	29.000000
12.128729	12.205266	90.000000	44.000000
12.205266	12.281803	86.000000	44.000000
12.205266	12.281803	80.000000	29.000000
12.205266	12.281803	77.000000	29.000000
12.281803	12.358460	83.000000	43.000000
12.358460	12.435386	87.000000	42.000000
12.358460	12.435386	78.000000	34.000000
12.358460	12.435386	81.000000	34.000000
12.435386	12.512312	84.000000	41.000000
12.512312	12.589238	80.000000	41.000000
12.512312	12.589238	74.000000	29.000000
12.512312	12.589238	71.000000	29.000000
12.589238	12.666164	77.000000	40.000000
12.666164	12.743089	81.000000	39.000000
12.666164	12.743089	72.000000	29.000000
12.666164	12.743089	75.000000	29.000000
12.743089	12.820015	78.000000	39.000000
12.820015	12.896941	74.000000	37.000000
12.820015	12.896941	65.000000	29.000000
12.820015	12.896941	68.000000	29.000000
12.896941	12.973867	71.000000	36.000000
12.973867	13.050270	75.000000	36.000000
12.973867	13.050270	69.000000	34.000000
12.973867	13.050270	66.000000	34.000000
13.050270	13.126994	72.000000	35.000000
13.126994	13.204497	68.000000	35.000000
13.126994	13.204497	62.000000	31.000000
13.126994	13.204497	59.000000	31.000000
13.204497	13.282737	65.000000	34.000000
13.282737	13.441202	66.000000	34.000000
13.282737	13.441202	69.000000	34.000000
13.282737	13.441202	60.000000	34.000000
13.282737	13.441202	63.000000	34.000000
13.917388	14.014793	41.000000	44.000000
14.112197	14.195064	90.000000	52.000000
14.112197	14.195064	81.000000	44.000000
14.112197	14.195064	78.000000	44.000000
14.112197	14.195064	60.000000	25.000000
14.112197	14.195064	63.000000	25.000000
14.112197	14.195064	69.000000	31.000000
14.277931	14.360798	89.000000	46.000000
14.277931	14.360798	81.000000	37.000000
14.277931	14.360798	78.000000	37.000000
14.277931	14.360798	69.000000	31.000000
14.277931	14.360798	60.000000	25.000000
14.277931	14.360798	63.000000	25.000000
14.443665	14.526532	78.000000	42.000000
14.443665	14.526532	81.000000	42.000000
14.443665	14.526532	88.000000	50.000000
14.443665	14.526532	63.000000	25.000000
14.443665	14.526532	60.000000	25.000000
14.443665	14.526532	69.000000	31.000000
14.609399	14.699762	78.000000	37.000000
14.609399	14.699762	87.000000	44.000000
14.609399	14.699762	81.000000	37.000000
14.609399	14.699762	69.000000	32.000000
14.609399	14.699762	60.000000	27.000000
14.609399	14.699762	63.000000	27.000000
14.790126	14.873462	81.000000	43.000000
14.790126	14.873462	90.000000	51.000000
14.790126	14.873462	78.000000	43.000000
14.790126	14.873462	69.000000	35.000000
14.790126	14.873462	60.000000	29.000000
14.790126	14.873462	63.000000	29.000000
14.956798	15.042522	89.000000	56.000000
14.956798	15.128232	78.000000	46.000000
14.956798	15.128232	81.000000	46.000000
14.956798	15.299652	69.000000	29.000000
14.956798	15.299652	60.000000	23.000000
14.956798	15.299652	63.000000	23.000000
15.042522	15.128232	88.000000	54.000000
15.128232	15.213942	87.000000	48.000000
15.494461	15.580319	87.000000	43.000000
15.494461	15.580319	75.000000	35.000000
15.494461	15.580319	78.000000	35.000000
15.494461	15.580319	60.000000	20.000000
15.494461	15.580319	63.000000	20.000000
15.494461	15.580319	69.000000	25.000000
15.666176	15.752034	86.000000	37.000000
15.666176	15.752034	75.000000	31.000000
15.666176	15.752034	78.000000	31.000000
15.666176	15.752034	69.000000	25.000000
15.666176	15.752034	60.000000	20.000000
15.666176	15.752034	63.000000	20.000000
15.837891	15.923749	85.000000	41.000000
15.837891	15.923749	75.000000	33.000000
15.837891	15.923749	78.000000	33.000000
15.837891	15.923749	63.000000	20.000000
15.837891	15.923749	60.000000	20.000000
15.837891	15.923749	69.000000	25.000000
16.009606	16.102947	78.000000	31.000000
16.009606	16.102947	84.000000	35.000000
16.009606	16.102947	75.000000	31.000000
16.009606	16.102947	60.000000	21.000000
16.009606	16.102947	69.000000	26.000000
16.009606	16.102947	63.000000	21.000000
16.196288	16.282146	75.000000	34.000000
16.196288	16.282146	78.000000	34.000000
16.196288	16.282146	87.000000	42.000000
16.196288	16.282146	63.000000	23.000000
16.196288	16.282146	69.000000	29.000000
16.196288	16.282146	60.000000	23.000000
16.368003	16.457992	86.000000	44.000000
16.368003	16.547980	75.000000	37.000000
16.368003	16.547980	78.000000	37.000000
16.368003	16.727956	69.000000	23.000000
16.368003	16.727956	63.000000	19.000000
16.368003	16.727956	60.000000	19.000000
16.457992	16.547980	85.000000	43.000000
16.547980	16.637968	84.000000	42.000000
16.907919	16.993777	84.000000	41.000000
16.907919	16.993777	75.000000	33.000000
16.907919	16.993777	72.000000	33.000000
16.907919	16.993777	66.000000	21.000000
16.907919	16.993777	63.000000	21.000000
16.907919	16.993777	69.000000	28.000000
17.079634	17.170159	83.000000	43.000000
17.079634	17.260683	72.000000	36.000000
17.079634	17.260683	75.000000	36.000000
17.079634	17.441746	63.000000	18.000000
17.079634	17.441746	66.000000	18.000000
17.079634	17.441746	69.000000	21.000000
17.170159	17.260683	82.000000	42.000000
17.260683	17.351208	81.000000	42.000000
17.636931	17.726382	75.000000	32.000000
17.636931	17.726382	72.000000	32.000000
17.636931	17.726382	81.000000	39.000000
17.636931	17.726382	66.000000	20.000000
17.636931	17.726382	69.000000	27.000000
17.815834	17.910959	80.000000	41.000000
17.815834	18.006070	75.000000	34.000000
17.815834	18.006070	72.000000	34.000000
17.815834	18.196292	66.000000	17.000000
17.815834	18.196292	69.000000	20.000000
17.910959	18.006070	79.000000	40.000000
18.006070	18.101181	78.000000	39.000000
18.387735	18.483463	77.000000	40.000000
18.387735	18.483463	72.000000	32.000000
18.387735	18.483463	69.000000	27.000000
18.387735	18.483463	75.000000	35.000000
18.578346	18.672277	75.000000	27.000000
18.578346	18.672277	78.000000	34.000000
18.578346	18.672277	72.000000	28.000000
18.766208	18.859576	72.000000	32.000000
18.766208	18.859576	77.000000	40.000000
18.766208	18.859576	69.000000	27.000000
18.766208	18.859576	75.000000	35.000000
18.952917	19.045842	75.000000	27.000000
18.952917	19.045842	79.000000	35.000000
18.952917	19.045842	72.000000	31.000000
19.138606	19.231250	77.000000	40.000000
19.138606	19.231250	72.000000	32.000000
19.138606	19.231250	69.000000	27.000000
19.138606	19.231250	75.000000	35.000000
19.323438	19.415625	75.000000	27.000000
19.323438	19.415625	78.000000	34.000000
19.323438	19.415625	72.000000	29.000000
19.507276	19.598901	77.000000	40.000000
19.507276	19.598901	72.000000	32.000000
19.507276	19.598901	75.000000	35.000000
19.507276	19.598901	69.000000	27.000000
19.689680	19.745859	79.000000	36.000000
19.801971	19.857841	77.000000	40.000000
19.913470	19.968938	78.000000	34.000000
20.024192	20.079177	77.000000	40.000000
20.134122	20.188786	79.000000	33.000000
20.243288	20.297617	77.000000	40.000000
20.351676	20.405549	78.000000	36.000000
20.459260	20.512730	77.000000	40.000000
20.566200	20.619670	79.000000	34.000000
20.673139	20.752734	77.000000	40.000000
20.752734	20.832101	78.000000	35.000000
20.832101	20.911467	77.000000	40.000000
20.911467	20.990606	79.000000	35.000000
20.990606	21.069557	77.000000	40.000000
21.069557	21.148508	78.000000	35.000000
21.148508	21.227459	77.000000	40.000000
21.227459	21.306409	79.000000	35.000000
21.306409	21.385360	77.000000	40.000000
21.385360	21.464311	78.000000	35.000000
21.464311	21.542927	77.000000	41.000000
21.542927	21.621757	79.000000	34.000000
21.621757	21.701070	77.000000	40.000000
21.701070	21.781053	78.000000	35.000000
21.781053	21.861707	77.000000	40.000000
21.861707	21.943032	79.000000	35.000000
21.943032	22.025081	77.000000	40.000000
22.025081	22.107787	78.000000	35.000000
22.107787	22.191284	77.000000	40.000000
22.191284	22.275452	79.000000	36.000000
22.275452	22.363683	77.000000	40.000000
22.363683	22.451915	78.000000	36.000000
22.451915	22.540146	77.000000	40.000000
22.540146	22.628377	79.000000	35.000000
22.628377	22.724052	77.000000	40.000000
22.628377	22.724052	69.000000	33.000000
22.628377	23.416330	65.000000	36.000000
22.628377	23.013087	63.000000	46.000000
22.724052	22.820397	72.000000	31.000000
22.724052	22.820397	78.000000	36.000000
22.820397	22.916742	77.000000	40.000000
22.820397	22.916742	69.000000	33.000000
22.916742	23.013087	79.000000	35.000000
22.916742	23.013087	72.000000	29.000000
23.013087	23.113898	70.000000	33.000000
23.013087	23.113898	77.000000	40.000000
23.013087	23.416330	62.000000	36.000000
23.113898	23.214708	78.000000	36.000000
23.113898	23.214708	74.000000	31.000000
23.214708	23.315519	70.000000	33.000000
23.214708	23.315519	77.000000	40.000000
23.315519	23.416330	79.000000	35.000000
23.315519	23.416330	74.000000	29.000000
23.416330	23.511629	69.000000	33.000000
23.416330	23.511629	77.000000	40.000000
23.416330	23.797526	60.000000	43.000000
23.416330	24.209004	65.000000	34.000000
23.511629	23.606928	75.000000	31.000000
23.511629	23.606928	78.000000	36.000000
23.606928	23.702227	77.000000	40.000000
23.606928	23.702227	69.000000	33.000000
23.702227	23.797526	75.000000	29.000000
23.702227	23.797526	79.000000	35.000000
23.797526	23.900724	70.000000	33.000000
23.797526	23.900724	77.000000	40.000000
23.797526	24.209004	58.000000	37.000000
23.900724	23.952316	78.000000	36.000000
23.900724	23.952316	74.000000	31.000000
24.003909	24.107107	78.000000	47.000000
24.003909	24.107107	70.000000	47.000000
24.107107	24.158699	74.000000	41.000000
24.107107	24.158699	79.000000	41.000000
24.209004	24.308420	80.000000	50.000000
24.209004	24.308420	74.000000	42.000000
24.209004	24.407246	65.000000	28.000000
24.209004	24.407246	53.000000	28.000000
24.209004	24.407246	62.000000	36.000000
24.308420	24.407246	81.000000	43.000000
24.308420	24.407246	77.000000	36.000000
24.407246	24.505321	74.000000	43.000000
24.407246	24.505321	81.000000	51.000000
24.505321	24.554111	82.000000	43.000000
24.505321	24.554111	77.000000	36.000000
24.602712	24.699460	72.000000	44.000000
24.602712	24.699460	82.000000	52.000000
24.602712	24.795483	53.000000	26.000000
24.602712	24.795483	63.000000	33.000000
24.602712	24.795483	65.000000	26.000000
24.699460	24.747579	81.000000	46.000000
24.699460	24.747579	75.000000	39.000000
24.795483	24.891305	72.000000	43.000000
24.795483	24.891305	81.000000	51.000000
24.891305	24.939222	75.000000	36.000000
24.891305	24.939222	80.000000	43.000000
24.987127	25.082949	72.000000	40.000000
24.987127	25.082949	80.000000	48.000000
24.987127	25.178771	63.000000	37.000000
24.987127	25.591791	65.000000	29.000000
24.987127	25.178771	57.000000	29.000000
25.082949	25.130866	75.000000	35.000000
25.082949	25.130866	79.000000	42.000000
25.178771	25.284463	79.000000	47.000000
25.178771	25.284463	72.000000	39.000000
25.284463	25.337316	75.000000	33.000000
25.284463	25.337316	78.000000	40.000000
25.390169	25.490980	77.000000	40.000000
25.390169	25.490980	70.000000	33.000000
25.390169	25.591791	58.000000	26.000000
25.390169	25.591791	62.000000	33.000000
25.490980	25.591791	78.000000	36.000000
25.490980	25.591791	74.000000	31.000000
25.591791	25.692602	77.000000	40.000000
25.591791	25.692602	70.000000	33.000000
25.692602	25.802975	74.000000	29.000000
25.692602	25.802975	79.000000	35.000000
25.802975	25.899320	77.000000	40.000000
25.802975	25.899320	69.000000	33.000000
25.802975	26.591598	65.000000	36.000000
25.802975	26.188355	63.000000	46.000000
25.899320	25.995665	72.000000	31.000000
25.899320	25.995665	78.000000	36.000000
25.995665	26.092010	77.000000	40.000000
25.995665	26.092010	69.000000	33.000000
26.092010	26.188355	79.000000	35.000000
26.092010	26.188355	72.000000	29.000000
26.188355	26.289166	70.000000	33.000000
26.188355	26.289166	77.000000	40.000000
26.188355	26.591598	62.000000	36.000000
26.289166	26.389977	74.000000	31.000000
26.289166	26.389977	78.000000	36.000000
26.389977	26.490788	77.000000	40.000000
26.389977	26.490788	70.000000	33.000000
26.490788	26.591598	74.000000	29.000000
26.490788	26.591598	79.000000	35.000000
26.591598	26.686897	69.000000	33.000000
26.591598	26.686897	77.000000	40.000000
26.591598	27.384272	65.000000	34.000000
26.591598	26.972794	60.000000	43.000000
26.686897	26.782196	78.000000	36.000000
26.686897	26.782196	75.000000	31.000000
26.782196	26.877495	77.000000	40.000000
26.782196	26.877495	69.000000	33.000000
26.877495	26.972794	75.000000	29.000000
26.877495	26.972794	79.000000	35.000000
26.972794	27.075992	77.000000	40.000000
26.972794	27.075992	70.000000	33.000000
26.972794	27.384272	58.000000	37.000000
27.075992	27.127585	78.000000	36.000000
27.075992	27.127585	74.000000	31.000000
27.179177	27.282375	78.000000	47.000000
27.179177	27.282375	70.000000	47.000000
27.282375	27.333967	74.000000	41.000000
27.282375	27.333967	79.000000	41.000000
27.384272	27.483688	74.000000	42.000000
27.384272	27.483688	80.000000	50.000000
27.384272	27.582514	53.000000	28.000000
27.384272	27.582514	62.000000	36.000000
27.384272	27.582514	65.000000	28.000000
27.483688	27.582514	81.000000	43.000000
27.483688	27.582514	77.000000	36.000000
27.582514	27.680589	81.000000	51.000000
27.582514	27.680589	74.000000	43.000000
27.680589	27.729379	82.000000	43.000000
27.680589	27.729379	77.000000	36.000000
27.777980	27.874728	82.000000	52.000000
27.777980	27.874728	72.000000	44.000000
27.777980	27.970751	63.000000	33.000000
27.777980	27.970751	65.000000	26.000000
27.777980	27.970751	53.000000	26.000000
27.874728	27.922847	75.000000	39.000000
27.874728	27.922847	81.000000	46.000000
27.970751	28.066573	81.000000	51.000000
27.970751	28.066573	72.000000	43.000000
28.066573	28.114491	75.000000	36.000000
28.066573	28.114491	80.000000	43.000000
28.162395	28.258217	80.000000	48.000000
28.162395	28.258217	72.000000	40.000000
28.162395	28.765879	65.000000	29.000000
28.162395	28.354039	63.000000	37.000000
28.162395	28.354039	57.000000	29.000000
28.258217	28.306135	79.000000	42.000000
28.258217	28.306135	75.000000	35.000000
28.354039	28.459731	79.000000	47.000000
28.354039	28.459731	72.000000	39.000000
28.459731	28.512584	78.000000	40.000000
28.459731	28.512584	75.000000	33.000000
28.565437	28.665658	77.000000	40.000000
28.565437	28.665658	74.000000	33.000000
28.565437	28.973750	62.000000	33.000000
28.565437	28.973750	58.000000	26.000000
28.665658	28.765879	78.000000	36.000000
28.665658	28.765879	70.000000	31.000000
28.765879	28.866100	74.000000	33.000000
28.765879	28.866100	77.000000	40.000000
28.866100	28.973750	81.000000	40.000000
28.973750	29.070095	82.000000	40.000000
28.973750	29.070095	74.000000	33.000000
28.973750	29.359130	68.000000	46.000000
28.973750	29.762374	70.000000	36.000000
29.070095	29.166440	77.000000	31.000000
29.070095	29.166440	83.000000	36.000000
29.166440	29.262785	82.000000	40.000000
29.166440	29.262785	74.000000	33.000000
29.262785	29.359130	83.000000	35.000000
29.262785	29.359130	77.000000	29.000000
29.359130	29.459941	82.000000	40.000000
29.359130	29.459941	75.000000	33.000000
29.359130	29.762374	66.000000	36.000000
29.459941	29.560752	83.000000	36.000000
29.459941	29.560752	78.000000	31.000000
29.560752	29.661563	82.000000	40.000000
29.560752	29.661563	75.000000	33.000000
29.661563	29.762374	83.000000	35.000000
29.661563	29.762374	78.000000	29.000000
29.762374	29.857673	82.000000	40.000000
29.762374	29.857673	74.000000	33.000000
29.762374	30.143570	65.000000	43.000000
29.762374	30.555048	70.000000	34.000000
29.857673	29.952972	83.000000	36.000000
29.857673	29.952972	80.000000	31.000000
29.952972	30.048271	74.000000	33.000000
29.952972	30.048271	82.000000	40.000000
30.048271	30.143570	83.000000	35.000000
30.048271	30.143570	80.000000	29.000000
30.143570	30.246768	82.000000	40.000000
30.143570	30.246768	75.000000	33.000000
30.143570	30.555048	63.000000	37.000000
30.246768	30.298360	78.000000	31.000000
30.246768	30.298360	83.000000	36.000000
30.349952	30.453150	83.000000	47.000000
30.349952	30.453150	75.000000	47.000000
30.453150	30.504743	78.000000	41.000000
30.453150	30.504743	84.000000	41.000000
30.555048	30.654464	78.000000	42.000000
30.555048	30.654464	85.000000	50.000000
30.555048	30.753290	70.000000	28.000000
30.555048	30.753290	58.000000	28.000000
30.555048	30.753290	66.000000	36.000000
30.654464	30.753290	82.000000	36.000000
30.654464	30.753290	86.000000	43.000000
30.753290	30.851365	86.000000	51.000000
30.753290	30.851365	78.000000	43.000000
30.851365	30.900154	87.000000	43.000000
30.851365	30.900154	82.000000	36.000000
30.948756	31.045503	87.000000	52.000000
30.948756	31.045503	77.000000	44.000000
30.948756	31.141526	68.000000	33.000000
30.948756	31.141526	70.000000	26.000000
30.948756	31.141526	58.000000	26.000000
31.045503	31.093622	86.000000	46.000000
31.045503	31.093622	80.000000	39.000000
31.141526	31.237348	86.000000	51.000000
31.141526	31.237348	77.000000	43.000000
31.237348	31.285266	80.000000	36.000000
31.237348	31.285266	85.000000	43.000000
31.333170	31.428992	77.000000	40.000000
31.333170	31.428992	85.000000	48.000000
31.333170	31.524814	62.000000	29.000000
31.333170	31.524814	68.000000	37.000000
31.333170	31.927857	70.000000	29.000000
31.428992	31.476910	80.000000	35.000000
31.428992	31.476910	84.000000	42.000000
31.524814	31.630507	84.000000	47.000000
31.524814	31.630507	77.000000	39.000000
31.630507	31.683360	83.000000	40.000000
31.630507	31.683360	80.000000	33.000000
31.736213	31.832035	78.000000	33.000000
31.736213	31.832035	82.000000	40.000000
31.736213	31.927857	66.000000	33.000000
31.736213	31.927857	63.000000	26.000000
31.832035	31.927857	83.000000	36.000000
31.832035	31.927857	75.000000	31.000000
31.927857	32.023679	82.000000	40.000000
31.927857	32.023679	78.000000	33.000000
32.023679	32.119501	83.000000	35.000000
32.023679	32.119501	75.000000	29.000000
32.119501	32.215846	74.000000	33.000000
32.119501	32.215846	82.000000	40.000000
32.119501	32.908124	70.000000	36.000000
32.119501	32.504881	68.000000	46.000000
32.215846	32.312191	83.000000	36.000000
32.215846	32.312191	77.000000	31.000000
32.312191	32.408536	74.000000	33.000000
32.312191	32.408536	82.000000	40.000000
32.408536	32.504881	77.000000	29.000000
32.408536	32.504881	83.000000	35.000000
32.504881	32.605692	75.000000	33.000000
32.504881	32.605692	82.000000	40.000000
32.504881	32.908124	66.000000	36.000000
32.605692	32.706503	78.000000	31.000000
32.605692	32.706503	83.000000	36.000000
32.706503	32.807313	75.000000	33.000000
32.706503	32.807313	82.000000	40.000000
32.807313	32.908124	83.000000	35.000000
32.807313	32.908124	78.000000	29.000000
32.908124	33.003423	82.000000	40.000000
32.908124	33.003423	74.000000	33.000000
32.908124	33.289320	65.000000	43.000000
32.908124	33.700798	70.000000	34.000000
33.003423	33.098722	83.000000	36.000000
33.003423	33.098722	80.000000	31.000000
33.098722	33.194021	74.000000	33.000000
33.098722	33.194021	82.000000	40.000000
33.194021	33.289320	80.000000	29.000000
33.194021	33.289320	83.000000	35.000000
33.289320	33.392518	82.000000	40.000000
33.289320	33.392518	75.000000	33.000000
33.289320	33.700798	63.000000	37.000000
33.392518	33.444110	78.000000	31.000000
33.392518	33.444110	83.000000	36.000000
33.495703	33.598901	83.000000	47.000000
33.495703	33.598901	75.000000	47.000000
33.598901	33.650493	84.000000	41.000000
33.598901	33.650493	78.000000	41.000000
33.700798	33.800214	78.000000	42.000000
33.700798	33.800214	85.000000	50.000000
33.700798	33.899040	58.000000	28.000000
33.700798	33.899040	70.000000	28.000000
33.700798	33.899040	66.000000	36.000000
33.800214	33.899040	82.000000	36.000000
33.800214	33.899040	86.000000	43.000000
33.899040	33.997115	86.000000	51.000000
33.899040	33.997115	78.000000	43.000000
33.997115	34.045905	87.000000	43.000000
33.997115	34.045905	82.000000	36.000000
34.094506	34.191254	87.000000	52.000000
34.094506	34.191254	77.000000	44.000000
34.094506	34.287277	68.000000	33.000000
34.094506	34.287277	70.000000	26.000000
34.094506	34.287277	58.000000	26.000000
34.191254	34.239373	80.000000	39.000000
34.191254	34.239373	86.000000	46.000000
34.287277	34.383099	86.000000	51.000000
34.287277	34.383099	77.000000	43.000000
34.383099	34.431017	85.000000	43.000000
34.383099	34.431017	80.000000	36.000000
34.478921	34.574743	77.000000	40.000000
34.478921	34.574743	85.000000	48.000000
34.478921	35.088359	70.000000	29.000000
34.478921	34.670565	68.000000	37.000000
34.478921	34.670565	62.000000	29.000000
34.574743	34.622660	84.000000	42.000000
34.574743	34.622660	80.000000	35.000000
34.670565	34.776257	77.000000	39.000000
34.670565	34.776257	84.000000	47.000000
34.776257	34.829110	80.000000	33.000000
34.776257	34.829110	83.000000	40.000000
34.881963	34.985161	78.000000	33.000000
34.881963	34.985161	82.000000	40.000000
34.881963	35.088359	63.000000	26.000000
34.881963	35.088359	66.000000	33.000000
34.985161	35.088359	75.000000	31.000000
34.985161	35.088359	83.000000	36.000000
35.088359	35.191557	78.000000	33.000000
35.088359	35.191557	82.000000	40.000000
35.191557	35.311010	87.000000	37.000000
35.311010	35.408414	78.000000	42.000000
35.311010	35.505819	90.000000	51.000000
35.311010	35.700628	61.000000	41.000000
35.311010	35.700628	46.000000	34.000000
35.408414	35.505819	85.000000	33.000000
35.408414	35.505819	87.000000	40.000000
35.505819	35.603223	90.000000	43.000000
35.505819	35.603223	78.000000	35.000000
35.603223	35.700628	88.000000	40.000000
35.603223	35.700628	85.000000	33.000000
35.700628	35.798019	78.000000	44.000000
35.700628	35.895423	88.000000	54.000000
35.700628	35.895423	47.000000	27.000000
35.700628	35.895423	63.000000	33.000000
35.798019	35.895423	86.000000	39.000000
35.798019	35.895423	83.000000	32.000000
35.895423	35.992828	88.000000	43.000000
35.895423	35.992828	78.000000	35.000000
35.992828	36.090232	83.000000	33.000000
35.992828	36.090232	87.000000	40.000000
36.090232	36.285041	87.000000	51.000000
36.090232	36.187637	76.000000	51.000000
36.090232	36.496077	64.000000	39.000000
36.090232	36.496077	49.000000	32.000000
36.187637	36.285041	84.000000	37.000000
36.187637	36.285041	82.000000	31.000000
36.285041	36.382446	87.000000	43.000000
36.285041	36.382446	76.000000	35.000000
36.382446	36.496077	82.000000	39.000000
36.382446	36.496077	85.000000	39.000000
36.496077	36.690873	85.000000	51.000000
36.496077	36.593468	75.000000	42.000000
36.496077	36.690873	66.000000	28.000000
36.496077	36.690873	51.000000	23.000000
36.593468	36.690873	82.000000	37.000000
36.593468	36.690873	78.000000	31.000000
36.690873	36.788277	85.000000	43.000000
36.690873	36.788277	75.000000	35.000000
36.788277	36.895418	78.000000	39.000000
36.788277	36.895418	83.000000	39.000000
36.895418	36.993641	73.000000	39.000000
36.895418	37.091877	84.000000	47.000000
36.895418	37.295752	67.000000	35.000000
36.895418	37.295752	52.000000	29.000000
36.993641	37.091877	81.000000	37.000000
36.993641	37.091877	79.000000	37.000000
37.091877	37.190113	84.000000	40.000000
37.091877	37.190113	73.000000	33.000000
37.190113	37.295752	79.000000	36.000000
37.190113	37.295752	82.000000	36.000000
37.295752	37.394645	72.000000	39.000000
37.295752	37.493525	82.000000	46.000000
37.295752	37.493525	69.000000	28.000000
37.295752	37.493525	53.000000	24.000000
37.394645	37.493525	77.000000	31.000000
37.394645	37.493525	80.000000	36.000000
37.493525	37.592404	72.000000	33.000000
37.493525	37.592404	82.000000	40.000000
37.592404	37.701101	77.000000	29.000000
37.592404	37.701101	81.000000	35.000000
37.701101	37.900161	81.000000	46.000000
37.701101	37.800624	70.000000	39.000000
37.701101	37.900161	64.000000	31.000000
37.701101	38.107067	55.000000	25.000000
37.800624	37.900161	78.000000	35.000000
37.800624	37.900161	76.000000	29.000000
37.900161	37.999698	81.000000	40.000000
37.900161	37.999698	70.000000	33.000000
37.900161	38.107067	61.000000	26.000000
37.999698	38.107067	79.000000	35.000000
37.999698	38.107067	76.000000	29.000000
38.107067	38.205947	69.000000	36.000000
38.107067	38.304826	79.000000	43.000000
38.107067	38.508822	57.000000	27.000000
38.107067	38.205947	65.000000	33.000000
38.205947	38.304826	76.000000	33.000000
38.205947	38.304826	72.000000	27.000000
38.304826	38.403706	79.000000	40.000000
38.304826	38.403706	69.000000	33.000000
38.304826	38.403706	60.000000	28.000000
38.403706	38.508822	72.000000	28.000000
38.403706	38.508822	77.000000	34.000000
38.508822	38.706581	73.000000	32.000000
38.508822	38.607701	77.000000	37.000000
38.508822	38.607701	67.000000	33.000000
38.508822	38.911837	58.000000	33.000000
38.607701	38.706581	75.000000	32.000000
38.706581	38.805461	77.000000	37.000000
38.706581	38.911837	70.000000	32.000000
38.706581	38.805461	61.000000	27.000000
38.805461	38.911837	76.000000	32.000000
38.911837	39.011374	79.000000	35.000000
38.911837	39.110911	75.000000	29.000000
38.911837	39.309985	60.000000	27.000000
38.911837	39.011374	69.000000	33.000000
39.011374	39.110911	76.000000	31.000000
39.110911	39.210448	79.000000	36.000000
39.110911	39.309985	72.000000	31.000000
39.110911	39.210448	63.000000	27.000000
39.210448	39.309985	77.000000	28.000000
39.309985	39.409522	70.000000	28.000000
39.309985	39.409522	77.000000	34.000000
39.309985	39.409522	67.000000	33.000000
39.309985	39.409522	61.000000	27.000000
39.409522	39.509058	75.000000	29.000000
39.509058	39.608595	77.000000	35.000000
39.608595	39.717533	76.000000	29.000000
39.717533	39.814938	79.000000	36.000000
39.717533	39.814938	72.000000	31.000000
39.717533	39.814938	69.000000	33.000000
39.717533	39.814938	63.000000	27.000000
39.814938	39.912342	75.000000	32.000000
39.912342	40.009747	79.000000	35.000000
40.009747	40.107151	78.000000	32.000000
40.107151	40.198936	77.000000	40.000000
40.198936	40.290722	78.000000	35.000000
40.290722	40.382118	77.000000	41.000000
40.382118	40.473675	79.000000	34.000000
40.473675	40.565581	77.000000	40.000000
40.565581	40.657849	78.000000	35.000000
40.657849	40.750600	77.000000	40.000000
40.750600	40.843713	79.000000	35.000000
40.843713	40.937188	77.000000	40.000000
40.937188	41.031012	78.000000	35.000000
41.031012	41.125278	77.000000	40.000000
41.125278	41.219987	79.000000	36.000000
41.219987	41.316332	77.000000	40.000000
41.316332	41.412677	78.000000	36.000000
41.412677	41.509022	77.000000	40.000000
41.509022	41.605367	79.000000	35.000000
41.605367	41.701712	69.000000	33.000000
41.605367	41.701712	77.000000	40.000000
41.605367	41.701712	51.000000	46.000000
41.701712	41.798057	78.000000	36.000000
41.701712	41.798057	72.000000	31.000000
41.749885	41.798057	67.000000	40.000000
41.798057	41.894415	69.000000	33.000000
41.798057	41.894415	77.000000	40.000000
41.798057	41.846230	65.000000	46.000000
41.894415	41.990760	72.000000	29.000000
41.894415	41.990760	79.000000	35.000000
41.990760	42.091571	70.000000	33.000000
41.990760	42.091571	77.000000	40.000000
41.990760	42.091571	50.000000	46.000000
42.091571	42.192369	74.000000	31.000000
42.091571	42.192369	78.000000	36.000000
42.141970	42.192369	66.000000	40.000000
42.192369	42.293180	70.000000	33.000000
42.192369	42.293180	77.000000	40.000000
42.192369	42.242768	65.000000	46.000000
42.293180	42.393991	74.000000	29.000000
42.293180	42.393991	79.000000	35.000000
42.393991	42.489290	69.000000	33.000000
42.393991	42.489290	77.000000	40.000000
42.393991	42.489290	48.000000	46.000000
42.489290	42.584589	78.000000	36.000000
42.489290	42.584589	72.000000	31.000000
42.536939	42.584589	67.000000	41.000000
42.584589	42.679887	77.000000	40.000000
42.584589	42.679887	69.000000	33.000000
42.584589	42.632238	65.000000	46.000000
42.679887	42.775186	72.000000	29.000000
42.679887	42.775186	79.000000	35.000000
42.775186	42.878371	77.000000	40.000000
42.775186	42.878371	70.000000	33.000000
42.775186	42.878371	46.000000	46.000000
42.878371	42.929963	78.000000	36.000000
42.878371	42.929963	74.000000	31.000000
42.929963	42.981556	66.000000	39.000000
42.981556	43.084740	70.000000	47.000000
42.981556	43.084740	78.000000	47.000000
42.981556	43.033148	65.000000	46.000000
43.084740	43.136333	74.000000	41.000000
43.084740	43.136333	79.000000	41.000000
43.186638	43.286054	80.000000	50.000000
43.186638	43.286054	74.000000	50.000000
43.186638	43.286054	41.000000	49.000000
43.286054	43.384880	81.000000	43.000000
43.286054	43.384880	77.000000	43.000000
43.335594	43.384880	67.000000	44.000000
43.384880	43.482955	81.000000	51.000000
43.384880	43.482955	74.000000	51.000000
43.384880	43.433964	65.000000	50.000000
43.482955	43.531758	82.000000	43.000000
43.482955	43.531758	77.000000	43.000000
43.580359	43.677120	72.000000	52.000000
43.580359	43.677120	82.000000	52.000000
43.580359	43.677120	41.000000	52.000000
43.677120	43.725239	81.000000	46.000000
43.677120	43.725239	75.000000	46.000000
43.725239	43.773157	66.000000	44.000000
43.773157	43.868992	81.000000	51.000000
43.773157	43.868992	72.000000	51.000000
43.773157	43.821074	65.000000	50.000000
43.868992	43.916910	75.000000	43.000000
43.868992	43.916910	80.000000	43.000000
43.964827	44.060649	80.000000	48.000000
43.964827	44.060649	72.000000	48.000000
43.964827	44.060649	45.000000	50.000000
44.060649	44.108567	79.000000	42.000000
44.060649	44.108567	75.000000	42.000000
44.108567	44.156485	67.000000	41.000000
44.156485	44.262191	79.000000	47.000000
44.156485	44.262191	72.000000	47.000000
44.156485	44.209338	65.000000	46.000000
44.262191	44.315030	78.000000	40.000000
44.262191	44.315030	75.000000	40.000000
44.367883	44.465931	74.000000	33.000000
44.367883	44.465931	77.000000	40.000000
44.367883	44.465931	46.000000	46.000000
44.465931	44.563966	70.000000	31.000000
44.465931	44.563966	78.000000	36.000000
44.514949	44.563966	66.000000	40.000000
44.563966	44.662001	74.000000	33.000000
44.563966	44.662001	77.000000	40.000000
44.563966	44.612984	65.000000	46.000000
44.662001	44.772374	79.000000	35.000000
44.662001	44.772374	70.000000	29.000000
44.772374	44.868719	69.000000	33.000000
44.772374	44.868719	77.000000	40.000000
44.772374	44.868719	51.000000	46.000000
44.868719	44.965064	72.000000	31.000000
44.868719	44.965064	78.000000	36.000000
44.916891	44.965064	67.000000	40.000000
44.965064	45.061422	77.000000	40.000000
44.965064	45.061422	69.000000	33.000000
44.965064	45.013236	65.000000	46.000000
45.061422	45.157767	72.000000	29.000000
45.061422	45.157767	79.000000	35.000000
45.157767	45.258578	77.000000	40.000000
45.157767	45.258578	70.000000	33.000000
45.157767	45.258578	50.000000	46.000000
45.258578	45.359376	74.000000	31.000000
45.258578	45.359376	78.000000	36.000000
45.308977	45.359376	66.000000	40.000000
45.359376	45.460187	77.000000	40.000000
45.359376	45.460187	70.000000	33.000000
45.359376	45.409775	65.000000	46.000000
45.460187	45.560998	74.000000	29.000000
45.460187	45.560998	79.000000	35.000000
45.560998	45.656297	77.000000	40.000000
45.560998	45.656297	69.000000	33.000000
45.560998	45.656297	48.000000	46.000000
45.656297	45.751595	78.000000	36.000000
45.656297	45.751595	75.000000	31.000000
45.703946	45.751595	67.000000	41.000000
45.751595	45.846894	69.000000	33.000000
45.751595	45.846894	77.000000	40.000000
45.751595	45.799245	65.000000	46.000000
45.846894	45.942193	75.000000	29.000000
45.846894	45.942193	79.000000	35.000000
45.942193	46.045378	70.000000	33.000000
45.942193	46.045378	77.000000	40.000000
45.942193	46.045378	46.000000	46.000000
46.045378	46.096970	74.000000	31.000000
46.045378	46.096970	78.000000	36.000000
46.096970	46.148563	66.000000	39.000000
46.148563	46.251747	78.000000	47.000000
46.148563	46.251747	70.000000	47.000000
46.148563	46.200155	65.000000	46.000000
46.251747	46.303340	74.000000	41.000000
46.251747	46.303340	79.000000	41.000000
46.353645	46.453061	74.000000	50.000000
46.353645	46.453061	80.000000	50.000000
46.353645	46.453061	41.000000	49.000000
46.453061	46.551887	81.000000	43.000000
46.453061	46.551887	77.000000	43.000000
46.502601	46.551887	67.000000	44.000000
46.551887	46.649962	81.000000	51.000000
46.551887	46.649962	74.000000	51.000000
46.551887	46.600971	65.000000	50.000000
46.649962	46.698765	77.000000	43.000000
46.649962	46.698765	82.000000	43.000000
46.747366	46.844127	72.000000	52.000000
46.747366	46.844127	82.000000	52.000000
46.747366	46.844127	41.000000	52.000000
46.844127	46.892246	81.000000	46.000000
46.844127	46.892246	75.000000	46.000000
46.892246	46.940164	66.000000	44.000000
46.940164	47.035999	72.000000	51.000000
46.940164	47.035999	81.000000	51.000000
46.940164	46.988081	65.000000	50.000000
47.035999	47.083917	75.000000	43.000000
47.035999	47.083917	80.000000	43.000000
47.131834	47.227656	80.000000	48.000000
47.131834	47.227656	72.000000	48.000000
47.131834	47.227656	45.000000	50.000000
47.227656	47.275574	79.000000	42.000000
47.227656	47.275574	75.000000	42.000000
47.275574	47.323492	67.000000	41.000000
47.323492	47.429198	72.000000	47.000000
47.323492	47.429198	79.000000	47.000000
47.323492	47.376345	65.000000	46.000000
47.429198	47.482037	75.000000	40.000000
47.429198	47.482037	78.000000	40.000000
47.534890	47.635111	74.000000	33.000000
47.534890	47.635111	77.000000	40.000000
47.534890	47.635111	46.000000	50.000000
47.635111	47.735345	70.000000	31.000000
47.635111	47.735345	78.000000	36.000000
47.685228	47.735345	67.000000	46.000000
47.735345	47.835579	77.000000	40.000000
47.735345	47.835579	74.000000	33.000000
47.735345	47.785462	65.000000	50.000000
47.835579	47.943230	81.000000	39.000000
47.943230	48.036571	74.000000	33.000000
47.943230	48.036571	82.000000	40.000000
47.943230	48.036571	56.000000	56.000000
48.036571	48.129912	77.000000	31.000000
48.036571	48.129912	83.000000	36.000000
48.083241	48.129912	71.000000	49.000000
48.129912	48.223253	82.000000	40.000000
48.129912	48.223253	74.000000	33.000000
48.129912	48.176582	70.000000	56.000000
48.223253	48.316594	77.000000	29.000000
48.223253	48.316594	84.000000	35.000000
48.316594	48.414186	82.000000	40.000000
48.316594	48.414186	75.000000	33.000000
48.316594	48.414186	55.000000	57.000000
48.414186	48.511792	83.000000	36.000000
48.414186	48.511792	78.000000	31.000000
48.462989	48.511792	72.000000	50.000000
48.511792	48.609397	75.000000	33.000000
48.511792	48.609397	82.000000	40.000000
48.511792	48.560594	70.000000	57.000000
48.609397	48.706989	78.000000	29.000000
48.609397	48.706989	84.000000	35.000000
48.706989	48.798614	77.000000	33.000000
48.706989	48.798614	82.000000	40.000000
48.706989	48.798614	50.000000	57.000000
48.798614	48.890238	83.000000	36.000000
48.798614	48.890238	80.000000	31.000000
48.844426	48.890238	71.000000	51.000000
48.890238	48.981862	77.000000	33.000000
48.890238	48.981862	82.000000	40.000000
48.890238	48.936050	70.000000	57.000000
48.981862	49.073487	80.000000	29.000000
48.981862	49.073487	84.000000	35.000000
49.073487	49.175049	75.000000	33.000000
49.073487	49.175049	82.000000	40.000000
49.073487	49.175049	51.000000	57.000000
49.175049	49.225823	79.000000	31.000000
49.175049	49.225823	83.000000	36.000000
49.225823	49.276597	71.000000	51.000000
49.276597	49.378159	75.000000	47.000000
49.276597	49.378159	83.000000	47.000000
49.276597	49.327371	70.000000	57.000000
49.378159	49.428504	79.000000	41.000000
49.378159	49.428504	84.000000	41.000000
49.476677	49.572660	79.000000	50.000000
49.476677	49.572660	85.000000	50.000000
49.476677	49.572660	46.000000	59.000000
49.572660	49.667838	86.000000	43.000000
49.572660	49.667838	82.000000	43.000000
49.620322	49.667838	72.000000	52.000000
49.667838	49.762158	86.000000	51.000000
49.667838	49.762158	79.000000	51.000000
49.667838	49.715098	70.000000	59.000000
49.762158	49.809123	87.000000	43.000000
49.762158	49.809123	82.000000	43.000000
49.855888	49.948893	77.000000	52.000000
49.855888	49.948893	87.000000	52.000000
49.855888	49.948893	46.000000	59.000000
49.948893	49.995081	80.000000	46.000000
49.948893	49.995081	86.000000	46.000000
49.995081	50.041134	71.000000	52.000000
50.041134	50.132759	86.000000	51.000000
50.041134	50.132759	77.000000	51.000000
50.041134	50.086947	70.000000	59.000000
50.132759	50.178571	85.000000	43.000000
50.132759	50.178571	80.000000	43.000000
50.224383	50.316021	77.000000	48.000000
50.224383	50.316021	85.000000	48.000000
50.224383	50.316021	50.000000	59.000000
50.316021	50.361833	80.000000	42.000000
50.316021	50.361833	84.000000	42.000000
50.361833	50.407645	72.000000	50.000000
50.407645	50.508523	77.000000	47.000000
50.407645	50.508523	84.000000	47.000000
50.407645	50.458084	70.000000	58.000000
50.508523	50.558962	80.000000	40.000000
50.508523	50.558962	83.000000	40.000000
50.609401	50.702165	79.000000	33.000000
50.609401	50.702165	82.000000	40.000000
50.609401	50.702165	51.000000	57.000000
50.702165	50.794943	83.000000	36.000000
50.702165	50.794943	75.000000	31.000000
50.748554	50.794943	71.000000	51.000000
50.794943	50.887721	82.000000	40.000000
50.794943	50.887721	79.000000	33.000000
50.794943	50.841332	70.000000	57.000000
50.887721	50.980485	75.000000	29.000000
50.887721	50.980485	84.000000	35.000000
50.980485	51.075006	82.000000	40.000000
50.980485	51.075006	74.000000	33.000000
50.980485	51.075006	56.000000	51.000000
51.075006	51.169527	83.000000	36.000000
51.075006	51.169527	77.000000	31.000000
51.122267	51.169527	72.000000	44.000000
51.169527	51.264048	74.000000	33.000000
51.169527	51.264048	82.000000	40.000000
51.169527	51.216788	70.000000	51.000000
51.264048	51.358569	84.000000	35.000000
51.264048	51.358569	77.000000	29.000000
51.358569	51.456805	82.000000	40.000000
51.358569	51.456805	75.000000	33.000000
51.358569	51.456805	55.000000	50.000000
51.456805	51.555028	78.000000	31.000000
51.456805	51.555028	83.000000	36.000000
51.505917	51.555028	71.000000	43.000000
51.555028	51.653250	75.000000	33.000000
51.555028	51.653250	82.000000	40.000000
51.555028	51.604139	70.000000	50.000000
51.653250	51.751486	78.000000	29.000000
51.653250	51.751486	84.000000	35.000000
51.751486	51.844251	82.000000	40.000000
51.751486	51.844251	77.000000	33.000000
51.751486	51.844251	50.000000	50.000000
51.844251	51.937028	83.000000	36.000000
51.844251	51.937028	80.000000	31.000000
51.890639	51.937028	72.000000	44.000000
51.937028	52.029806	82.000000	40.000000
51.937028	52.029806	77.000000	33.000000
51.937028	51.983417	70.000000	50.000000
52.029806	52.122570	84.000000	35.000000
52.029806	52.122570	80.000000	29.000000
52.122570	52.223448	82.000000	40.000000
52.122570	52.223448	75.000000	33.000000
52.122570	52.223448	51.000000	50.000000
52.223448	52.273887	79.000000	31.000000
52.223448	52.273887	83.000000	36.000000
52.273887	52.324326	71.000000	46.000000
52.324326	52.424815	83.000000	47.000000
52.324326	52.424815	75.000000	47.000000
52.324326	52.374765	70.000000	50.000000
52.424815	52.472988	79.000000	41.000000
52.424815	52.472988	84.000000	41.000000
52.521107	52.616781	85.000000	50.000000
52.521107	52.616781	79.000000	50.000000
52.521107	52.616781	46.000000	55.000000
52.616781	52.711691	82.000000	43.000000
52.616781	52.711691	86.000000	43.000000
52.664337	52.711691	72.000000	48.000000
52.711691	52.806011	86.000000	51.000000
52.711691	52.806011	79.000000	51.000000
52.711691	52.758952	70.000000	55.000000
52.806011	52.852923	82.000000	43.000000
52.806011	52.852923	87.000000	43.000000
52.899593	52.992787	87.000000	52.000000
52.899593	52.992787	77.000000	52.000000
52.899593	52.992787	46.000000	55.000000
52.992787	53.039457	86.000000	46.000000
52.992787	53.039457	80.000000	46.000000
53.039457	53.086128	71.000000	49.000000
53.086128	53.179469	77.000000	51.000000
53.086128	53.179469	86.000000	51.000000
53.086128	53.132798	70.000000	55.000000
53.179469	53.226139	80.000000	43.000000
53.179469	53.226139	85.000000	43.000000
53.272809	53.366150	85.000000	48.000000
53.272809	53.366150	77.000000	48.000000
53.272809	53.366150	50.000000	50.000000
53.366150	53.412821	84.000000	42.000000
53.366150	53.412821	80.000000	42.000000
53.412821	53.459491	72.000000	44.000000
53.459491	53.565197	77.000000	47.000000
53.459491	53.565197	84.000000	47.000000
53.459491	53.512344	70.000000	50.000000
53.565197	53.618037	83.000000	40.000000
53.565197	53.618037	80.000000	40.000000
53.670890	53.766618	79.000000	33.000000
53.670890	53.766618	82.000000	43.000000
53.670890	54.079337	51.000000	33.000000
53.766618	53.862346	84.000000	40.000000
53.766618	53.862346	75.000000	31.000000
53.862346	53.958074	79.000000	33.000000
53.862346	53.958074	82.000000	43.000000
53.958074	54.079337	87.000000	39.000000
54.079337	54.177573	80.000000	48.000000
54.079337	54.275809	91.000000	60.000000
54.079337	54.177573	47.000000	47.000000
54.079337	54.177573	35.000000	39.000000
54.177573	54.275809	86.000000	37.000000
54.177573	54.275809	88.000000	46.000000
54.275809	54.374045	80.000000	40.000000
54.275809	54.374045	91.000000	50.000000
54.275809	54.374045	56.000000	31.000000
54.275809	54.374045	62.000000	37.000000
54.275809	54.374045	53.000000	31.000000
54.374045	54.472267	89.000000	47.000000
54.374045	54.472267	86.000000	37.000000
54.374045	54.664944	48.000000	39.000000
54.423156	54.664944	55.000000	39.000000
54.472267	54.664944	89.000000	62.000000
54.472267	54.568599	79.000000	50.000000
54.472267	54.664944	63.000000	47.000000
54.568599	54.664944	84.000000	36.000000
54.568599	54.664944	86.000000	44.000000
54.664944	54.761289	89.000000	50.000000
54.664944	54.761289	79.000000	40.000000
54.761289	54.875484	84.000000	37.000000
54.761289	54.875484	87.000000	47.000000
54.875484	55.071956	87.000000	58.000000
54.875484	54.973720	77.000000	58.000000
54.875484	54.973720	50.000000	47.000000
54.875484	54.973720	38.000000	39.000000
54.973720	55.071956	83.000000	35.000000
54.973720	55.071956	85.000000	42.000000
55.071956	55.170192	87.000000	50.000000
55.071956	55.170192	77.000000	40.000000
55.071956	55.170192	65.000000	39.000000
55.071956	55.170192	59.000000	32.000000
55.071956	55.170192	56.000000	32.000000
55.170192	55.268415	82.000000	44.000000
55.170192	55.268415	86.000000	44.000000
55.170192	55.471538	51.000000	39.000000
55.219303	55.471538	60.000000	39.000000
55.268415	55.471538	86.000000	56.000000
55.268415	55.369976	75.000000	48.000000
55.268415	55.471538	67.000000	47.000000
55.369976	55.471538	83.000000	42.000000
55.369976	55.471538	79.000000	35.000000
55.471538	55.573087	75.000000	40.000000
55.471538	55.573087	86.000000	49.000000
55.573087	55.688154	84.000000	44.000000
55.573087	55.688154	79.000000	44.000000
55.688154	55.787033	79.000000	44.000000
55.688154	55.885913	84.000000	54.000000
55.688154	55.787033	40.000000	40.000000
55.787033	55.885913	73.000000	42.000000
55.787033	55.885913	81.000000	42.000000
55.885913	55.984793	84.000000	44.000000
55.885913	55.984793	79.000000	36.000000
55.885913	55.984793	46.000000	32.000000
55.984793	56.083672	73.000000	40.000000
55.984793	56.083672	82.000000	40.000000
56.083672	56.281432	81.000000	50.000000
56.083672	56.182552	73.000000	42.000000
56.083672	56.182552	52.000000	39.000000
56.182552	56.281432	78.000000	39.000000
56.182552	56.281432	70.000000	33.000000
56.281432	56.380312	81.000000	42.000000
56.281432	56.380312	73.000000	35.000000
56.281432	56.380312	58.000000	31.000000
56.380312	56.479191	70.000000	31.000000
56.380312	56.479191	79.000000	37.000000
56.479191	56.578071	70.000000	40.000000
56.479191	56.681028	77.000000	48.000000
56.479191	56.681028	61.000000	32.000000
56.479191	56.886928	55.000000	20.000000
56.578071	56.681028	75.000000	36.000000
56.578071	56.681028	67.000000	31.000000
56.681028	56.783984	77.000000	41.000000
56.681028	56.783984	73.000000	33.000000
56.681028	56.835456	58.000000	26.000000
56.783984	56.886928	76.000000	35.000000
56.783984	56.886928	67.000000	29.000000
56.835456	57.092841	53.000000	23.000000
56.886928	57.195798	79.000000	47.000000
56.886928	56.989884	70.000000	36.000000
56.886928	57.092841	62.000000	33.000000
56.989884	57.092841	65.000000	33.000000
57.092841	57.195798	70.000000	40.000000
57.195798	57.298754	77.000000	37.000000
57.298754	57.607611	74.000000	47.000000
57.298754	57.401697	68.000000	36.000000
57.298754	57.723563	59.000000	25.000000
57.298754	58.138219	53.000000	20.000000
57.401697	57.504654	65.000000	36.000000
57.504654	57.607611	68.000000	36.000000
57.607611	57.723563	75.000000	37.000000
57.723563	57.827217	70.000000	36.000000
57.723563	58.034552	74.000000	47.000000
57.723563	57.827217	64.000000	36.000000
57.723563	58.138219	60.000000	25.000000
57.827217	57.930884	67.000000	36.000000
57.930884	58.034552	64.000000	36.000000
58.034552	58.138219	72.000000	37.000000
58.138219	58.241873	63.000000	36.000000
58.138219	58.449208	67.000000	47.000000
58.138219	58.241873	40.000000	37.000000
58.241873	58.345541	60.000000	36.000000
58.241873	58.345541	41.000000	33.000000
58.345541	58.449208	63.000000	36.000000
58.345541	58.449208	40.000000	39.000000
58.449208	58.552875	69.000000	37.000000
58.449208	58.974358	41.000000	33.000000
58.552875	58.868987	72.000000	47.000000
58.552875	58.658246	62.000000	36.000000
58.552875	58.974358	53.000000	33.000000
58.658246	58.763617	65.000000	33.000000
58.763617	58.868987	62.000000	40.000000
58.868987	58.974358	70.000000	37.000000
58.974358	59.290457	67.000000	47.000000
58.974358	59.079715	56.000000	36.000000
58.974358	59.406409	47.000000	25.000000
58.974358	59.827878	41.000000	20.000000
59.079715	59.185086	62.000000	36.000000
59.185086	59.290457	56.000000	36.000000
59.290457	59.406409	62.000000	36.000000
59.290457	59.406409	65.000000	37.000000
59.406409	59.722507	65.000000	47.000000
59.406409	59.511779	55.000000	36.000000
59.406409	59.827878	48.000000	25.000000
59.511779	59.617136	60.000000	36.000000
59.617136	59.722507	55.000000	36.000000
59.722507	59.827878	63.000000	37.000000
59.827878	60.143990	60.000000	47.000000
59.827878	59.933248	51.000000	36.000000
59.827878	60.038619	42.000000	37.000000
59.933248	60.038619	57.000000	36.000000
60.038619	60.143990	51.000000	36.000000
60.038619	60.249360	41.000000	33.000000
60.143990	60.249360	62.000000	37.000000
60.143990	60.249360	57.000000	36.000000
60.249360	60.509414	58.000000	47.000000
60.249360	60.509414	50.000000	43.000000
60.249360	60.509414	34.000000	37.000000
60.509414	60.602956	50.000000	35.000000
60.509414	60.602956	53.000000	29.000000
60.509414	60.602956	58.000000	25.000000
60.602956	60.696498	62.000000	28.000000
60.696498	60.790040	48.000000	40.000000
60.696498	60.790040	54.000000	28.000000
60.696498	60.790040	58.000000	24.000000
60.790040	60.883583	62.000000	28.000000
60.883583	60.977125	47.000000	36.000000
60.883583	60.977125	55.000000	28.000000
60.883583	60.977125	58.000000	24.000000
60.977125	61.070667	62.000000	28.000000
61.070667	61.170432	46.000000	40.000000
61.070667	61.170432	54.000000	34.000000
61.070667	61.170432	58.000000	28.000000
61.170432	61.262257	62.000000	25.000000
61.262257	61.349791	50.000000	36.000000
61.262257	61.349791	53.000000	34.000000
61.262257	61.349791	58.000000	28.000000
61.349791	61.437325	62.000000	24.000000
61.437325	61.533254	48.000000	40.000000
61.437325	61.533254	54.000000	34.000000
61.437325	61.533254	58.000000	28.000000
61.533254	61.629183	47.000000	35.000000
61.533254	61.629183	62.000000	28.000000
61.629183	61.725126	46.000000	35.000000
61.629183	61.725126	58.000000	28.000000
61.629183	61.725126	55.000000	34.000000
61.725126	61.789083	62.000000	25.000000
61.789083	61.966176	54.000000	34.000000
61.805069	61.966176	57.000000	34.000000
61.821055	61.966176	63.000000	34.000000
62.111297	62.189135	87.000000	42.000000
62.111297	62.189135	81.000000	46.000000
62.111297	62.189135	78.000000	46.000000
62.189135	62.267644	84.000000	42.000000
62.267644	62.346447	80.000000	41.000000
62.267644	62.346447	74.000000	44.000000
62.267644	62.346447	71.000000	44.000000
62.346447	62.425572	77.000000	41.000000
62.425572	62.504912	81.000000	40.000000
62.425572	62.504912	75.000000	43.000000
62.425572	62.504912	72.000000	43.000000
62.504912	62.584547	78.000000	39.000000
62.584547	62.664530	74.000000	39.000000
62.584547	62.664530	68.000000	43.000000
62.584547	62.664530	65.000000	43.000000
62.664530	62.744715	71.000000	37.000000
62.744715	62.825208	75.000000	37.000000
62.744715	62.825208	66.000000	42.000000
62.744715	62.825208	69.000000	42.000000
62.825208	62.906050	72.000000	36.000000
62.906050	62.987106	68.000000	36.000000
62.906050	62.987106	59.000000	41.000000
62.906050	62.987106	62.000000	41.000000
62.987106	63.068471	65.000000	35.000000
63.068471	63.150185	69.000000	34.000000
63.068471	63.150185	63.000000	40.000000
63.068471	63.150185	60.000000	40.000000
63.150185	63.232234	78.000000	34.000000
63.232234	63.492287	70.000000	43.000000
63.232234	63.492287	77.000000	43.000000
63.232234	63.492287	41.000000	50.000000
63.492287	63.585829	50.000000	35.000000
63.492287	63.585829	53.000000	29.000000
63.492287	63.585829	58.000000	25.000000
63.585829	63.679372	62.000000	28.000000
63.679372	63.772914	48.000000	40.000000
63.679372	63.772914	58.000000	24.000000
63.679372	63.772914	54.000000	28.000000
63.772914	63.866456	62.000000	28.000000
63.866456	63.959998	47.000000	36.000000
63.866456	63.959998	55.000000	28.000000
63.866456	63.959998	58.000000	24.000000
63.959998	64.053540	62.000000	28.000000
64.053540	64.153305	46.000000	40.000000
64.053540	64.153305	54.000000	34.000000
64.053540	64.153305	58.000000	28.000000
64.153305	64.245130	62.000000	25.000000
64.245130	64.332664	50.000000	36.000000
64.245130	64.332664	53.000000	34.000000
64.245130	64.332664	58.000000	28.000000
64.332664	64.420198	62.000000	24.000000
64.420198	64.516127	48.000000	40.000000
64.420198	64.516127	54.000000	34.000000
64.420198	64.516127	58.000000	28.000000
64.516127	64.612057	47.000000	35.000000
64.516127	64.612057	62.000000	28.000000
64.612057	64.707999	46.000000	35.000000
64.612057	64.707999	55.000000	34.000000
64.612057	64.707999	58.000000	28.000000
64.707999	64.771957	62.000000	25.000000
64.771957	64.949050	54.000000	28.000000
64.787943	64.949050	57.000000	28.000000
64.803929	64.949050	63.000000	34.000000
65.090737	65.167127	87.000000	42.000000
65.090737	65.167127	81.000000	46.000000
65.090737	65.167127	78.000000	39.000000
65.167127	65.243637	84.000000	42.000000
65.243637	65.320415	80.000000	41.000000
65.243637	65.320415	71.000000	37.000000
65.243637	65.320415	74.000000	44.000000
65.320415	65.397408	77.000000	41.000000
65.397408	65.474589	81.000000	40.000000
65.397408	65.474589	75.000000	43.000000
65.397408	65.474589	72.000000	36.000000
65.474589	65.552078	78.000000	39.000000
65.552078	65.629674	74.000000	39.000000
65.552078	65.629674	68.000000	43.000000
65.552078	65.629674	65.000000	36.000000
65.629674	65.707659	71.000000	37.000000
65.707659	65.785765	75.000000	37.000000
65.707659	65.785765	66.000000	35.000000
65.707659	65.785765	69.000000	42.000000
65.785765	65.864153	72.000000	36.000000
65.864153	65.942768	68.000000	36.000000
65.864153	65.942768	62.000000	41.000000
65.864153	65.942768	59.000000	34.000000
65.942768	66.021572	65.000000	35.000000
66.021572	66.100697	69.000000	34.000000
66.021572	66.100697	63.000000	40.000000
66.021572	66.100697	60.000000	33.000000
66.100697	66.152182	78.000000	34.000000
66.153496	66.325037	46.000000	40.000000
66.166693	66.325037	56.000000	40.000000
66.179916	66.325037	62.000000	41.000000
66.179916	66.325037	65.000000	41.000000
66.179916	66.325037	59.000000	48.000000
66.470158	66.545783	89.000000	46.000000
66.470158	66.545783	80.000000	42.000000
66.470158	66.545783	83.000000	50.000000
66.545783	66.621408	86.000000	46.000000
66.621408	66.697167	82.000000	44.000000
66.621408	66.697167	76.000000	48.000000
66.621408	66.697167	73.000000	40.000000
66.697167	66.772953	79.000000	44.000000
66.772953	66.849101	83.000000	43.000000
66.772953	66.849101	74.000000	39.000000
66.772953	66.849101	77.000000	47.000000
66.849101	66.925249	80.000000	42.000000
66.925249	67.001477	76.000000	42.000000
66.925249	67.001477	70.000000	47.000000
66.925249	67.001477	67.000000	39.000000
67.001477	67.078014	73.000000	41.000000
67.078014	67.154551	77.000000	41.000000
67.078014	67.154551	68.000000	39.000000
67.078014	67.154551	71.000000	46.000000
67.154551	67.231209	74.000000	40.000000
67.231209	67.308134	70.000000	40.000000
67.231209	67.308134	61.000000	37.000000
67.231209	67.308134	64.000000	44.000000
67.308134	67.385060	67.000000	39.000000
67.385060	67.463448	71.000000	37.000000
67.385060	67.463448	65.000000	43.000000
67.385060	67.463448	62.000000	36.000000
67.463448	67.576785	80.000000	37.000000
67.539006	67.721906	46.000000	44.000000
67.576785	67.721906	63.000000	44.000000
67.576785	67.721906	67.000000	44.000000
67.576785	67.721906	61.000000	52.000000
67.863392	67.935839	91.000000	50.000000
67.863392	67.935839	85.000000	55.000000
67.863392	67.935839	82.000000	46.000000
67.935839	68.008822	88.000000	50.000000
68.008822	68.082422	84.000000	48.000000
68.008822	68.082422	75.000000	44.000000
68.008822	68.082422	78.000000	52.000000
68.082422	68.156585	81.000000	48.000000
68.156585	68.231378	85.000000	47.000000
68.156585	68.231378	75.000000	43.000000
68.156585	68.231378	79.000000	51.000000
68.231378	68.329829	82.000000	46.000000
68.264195	68.474950	46.000000	48.000000
68.297012	68.474950	54.000000	48.000000
68.329829	68.474950	69.000000	48.000000
68.329829	68.474950	63.000000	48.000000
68.329829	68.474950	60.000000	57.000000
68.601966	68.674654	93.000000	50.000000
68.601966	68.674654	84.000000	46.000000
68.601966	68.674654	87.000000	55.000000
68.674654	68.747610	90.000000	50.000000
68.747610	68.820740	86.000000	48.000000
68.747610	68.820740	80.000000	52.000000
68.747610	68.820740	77.000000	44.000000
68.820740	68.894139	83.000000	48.000000
68.894139	68.967806	87.000000	47.000000
68.894139	68.967806	81.000000	51.000000
68.894139	68.967806	78.000000	43.000000
68.967806	69.057378	84.000000	46.000000
69.057378	69.131501	96.000000	62.000000
69.057378	69.131501	78.000000	55.000000
69.057378	69.131501	75.000000	46.000000
69.131501	69.205906	93.000000	62.000000
69.205906	69.280498	89.000000	60.000000
69.205906	69.280498	71.000000	55.000000
69.205906	69.280498	68.000000	46.000000
69.280498	69.355359	86.000000	60.000000
69.355359	69.430595	90.000000	57.000000
69.355359	69.430595	69.000000	44.000000
69.355359	69.430595	72.000000	52.000000
69.430595	69.514320	87.000000	55.000000
69.514320	69.590320	99.000000	69.000000
69.514320	69.590320	69.000000	51.000000
69.514320	69.590320	66.000000	43.000000
69.590320	69.666321	96.000000	64.000000
69.666321	69.742509	92.000000	67.000000
69.666321	69.742509	62.000000	58.000000
69.666321	69.742509	59.000000	49.000000
69.742509	69.818898	89.000000	59.000000
69.818898	69.895677	93.000000	67.000000
69.818898	69.895677	60.000000	51.000000
69.818898	69.895677	63.000000	62.000000
69.895677	69.972656	90.000000	58.000000
69.972656	70.049931	100.000000	70.000000
69.972656	70.049931	59.000000	57.000000
69.972656	70.049931	64.000000	67.000000
69.972656	70.049931	56.000000	57.000000
70.049931	70.127500	87.000000	64.000000
70.127500	70.205888	101.000000	83.000000
70.127500	70.205888	65.000000	71.000000
70.127500	70.205888	60.000000	59.000000
70.127500	70.205888	57.000000	59.000000
70.205888	70.319211	87.000000	75.000000
70.319211	71.026443	34.000000	52.000000
70.319211	71.026443	46.000000	63.000000
70.509085	70.592421	94.000000	51.000000
70.509085	70.592421	98.000000	51.000000
70.509085	70.675757	62.000000	58.000000
70.509085	70.675757	50.000000	49.000000
70.592421	70.675757	93.000000	51.000000
70.675757	70.759094	98.000000	51.000000
70.675757	70.759094	92.000000	51.000000
70.675757	70.842430	53.000000	49.000000
70.675757	70.842430	60.000000	58.000000
70.759094	70.842430	91.000000	51.000000
70.842430	70.925766	90.000000	50.000000
70.842430	70.925766	98.000000	50.000000
70.842430	71.026443	58.000000	58.000000
70.925766	71.026443	89.000000	50.000000
71.026443	71.109779	94.000000	49.000000
71.026443	71.109779	98.000000	49.000000
71.026443	71.725186	32.000000	52.000000
71.026443	71.725186	44.000000	63.000000
71.109779	71.193116	88.000000	49.000000
71.193116	71.276452	94.000000	49.000000
71.193116	71.276452	89.000000	49.000000
71.193116	71.359788	50.000000	50.000000
71.193116	71.359788	62.000000	59.000000
71.276452	71.359788	86.000000	49.000000
71.359788	71.443124	84.000000	48.000000
71.359788	71.443124	89.000000	48.000000
71.359788	71.526461	53.000000	51.000000
71.359788	71.443124	60.000000	62.000000
71.443124	71.526461	83.000000	48.000000
71.443124	71.526461	59.000000	54.000000
71.526461	71.609797	86.000000	47.000000
71.526461	71.609797	82.000000	47.000000
71.526461	71.725186	58.000000	63.000000
71.609797	71.725186	81.000000	47.000000
71.725186	71.812398	89.000000	51.000000
71.725186	71.812398	82.000000	51.000000
71.725186	72.416968	30.000000	52.000000
71.725186	72.416968	42.000000	63.000000
71.812398	71.899610	81.000000	51.000000
71.899610	71.982946	86.000000	51.000000
71.899610	71.982946	82.000000	51.000000
71.899610	72.066282	62.000000	58.000000
71.899610	72.066282	50.000000	49.000000
71.982946	72.066282	81.000000	51.000000
72.066282	72.149619	86.000000	51.000000
72.066282	72.149619	80.000000	51.000000
72.066282	72.232955	60.000000	58.000000
72.066282	72.232955	54.000000	49.000000
72.149619	72.232955	79.000000	51.000000
72.232955	72.316291	78.000000	50.000000
72.232955	72.316291	82.000000	50.000000
72.232955	72.416968	58.000000	58.000000
72.316291	72.416968	77.000000	50.000000
72.416968	72.500304	86.000000	49.000000
72.416968	72.500304	82.000000	49.000000
72.416968	73.115711	29.000000	52.000000
72.416968	73.115711	41.000000	63.000000
72.500304	72.583641	76.000000	49.000000
72.583641	72.666977	77.000000	49.000000
72.583641	72.666977	82.000000	49.000000
72.583641	72.750313	50.000000	50.000000
72.583641	72.750313	62.000000	59.000000
72.666977	72.750313	74.000000	49.000000
72.750313	72.833650	77.000000	48.000000
72.750313	72.833650	72.000000	48.000000
72.750313	72.916986	56.000000	51.000000
72.750313	72.833650	60.000000	62.000000
72.833650	72.916986	71.000000	48.000000
72.833650	72.916986	59.000000	54.000000
72.916986	73.000322	74.000000	47.000000
72.916986	73.000322	70.000000	47.000000
72.916986	73.115711	58.000000	63.000000
73.000322	73.115711	68.000000	47.000000
73.115711	73.210648	78.000000	59.000000
73.115711	73.210648	70.000000	52.000000
73.115711	73.210648	66.000000	44.000000
73.115711	73.816103	51.000000	71.000000
73.115711	73.816103	39.000000	59.000000
73.305585	73.387553	90.000000	58.000000
73.305585	73.387553	87.000000	58.000000
73.305585	73.469521	66.000000	65.000000
73.305585	73.469521	54.000000	58.000000
73.387553	73.469521	86.000000	58.000000
73.469521	73.551490	85.000000	57.000000
73.469521	73.551490	90.000000	57.000000
73.469521	73.633458	58.000000	55.000000
73.469521	73.633458	65.000000	65.000000
73.551490	73.633458	84.000000	58.000000
73.633458	73.715426	87.000000	56.000000
73.633458	73.715426	90.000000	56.000000
73.633458	73.816103	63.000000	66.000000
73.715426	73.816103	83.000000	57.000000
73.816103	73.898514	82.000000	56.000000
73.816103	73.898514	90.000000	56.000000
73.816103	74.508382	37.000000	60.000000
73.816103	74.508382	49.000000	72.000000
73.898514	73.980938	81.000000	56.000000
73.980938	74.063349	80.000000	56.000000
73.980938	74.063349	87.000000	56.000000
73.980938	74.145760	66.000000	69.000000
73.980938	74.145760	54.000000	57.000000
74.063349	74.145760	79.000000	57.000000
74.145760	74.228171	87.000000	56.000000
74.145760	74.228171	78.000000	56.000000
74.145760	74.228171	65.000000	73.000000
74.145760	74.310582	58.000000	60.000000
74.228171	74.310582	77.000000	56.000000
74.228171	74.310582	64.000000	64.000000
74.310582	74.392993	82.000000	55.000000
74.310582	74.392993	78.000000	55.000000
74.310582	74.508382	63.000000	74.000000
74.392993	74.508382	76.000000	56.000000
74.508382	74.595594	87.000000	62.000000
74.508382	74.595594	78.000000	62.000000
74.508382	75.181979	35.000000	63.000000
74.508382	75.181979	47.000000	75.000000
74.595594	74.682806	75.000000	62.000000
74.682806	74.763889	75.000000	63.000000
74.682806	74.763889	82.000000	63.000000
74.682806	74.844972	54.000000	58.000000
74.682806	74.844972	66.000000	70.000000
74.763889	74.844972	74.000000	63.000000
74.844972	74.926056	73.000000	62.000000
74.844972	74.926056	78.000000	62.000000
74.844972	75.007139	59.000000	59.000000
74.844972	75.007139	65.000000	71.000000
74.926056	75.007139	72.000000	62.000000
75.007139	75.088222	75.000000	60.000000
75.007139	75.088222	78.000000	60.000000
75.007139	75.181979	63.000000	71.000000
75.088222	75.181979	71.000000	60.000000
75.181979	75.262619	78.000000	60.000000
75.181979	75.262619	75.000000	60.000000
75.181979	75.879555	34.000000	65.000000
75.181979	75.879555	46.000000	78.000000
75.262619	75.343260	70.000000	60.000000
75.343260	75.423901	78.000000	60.000000
75.343260	75.423901	75.000000	60.000000
75.343260	75.504541	66.000000	73.000000
75.343260	75.504541	54.000000	62.000000
75.423901	75.504541	69.000000	60.000000
75.504541	75.585182	75.000000	60.000000
75.504541	75.585182	68.000000	60.000000
75.504541	75.585182	65.000000	78.000000
75.504541	75.665823	58.000000	65.000000
75.585182	75.665823	67.000000	60.000000
75.585182	75.665823	64.000000	67.000000
75.665823	75.746463	70.000000	59.000000
75.665823	75.746463	66.000000	59.000000
75.665823	75.746463	63.000000	80.000000
75.746463	75.879555	63.000000	59.000000
75.879555	76.209198	32.000000	40.000000
75.879555	75.978448	44.000000	40.000000
75.961966	76.044377	45.000000	32.000000
76.044377	76.126787	95.000000	35.000000
76.044377	76.126787	87.000000	35.000000
76.044377	76.126787	45.000000	32.000000
76.126787	76.209198	83.000000	40.000000
76.126787	76.209198	90.000000	40.000000
76.126787	76.209198	46.000000	33.000000
76.209198	76.308091	47.000000	33.000000
76.291609	76.374020	48.000000	33.000000
76.374020	76.456431	87.000000	36.000000
76.374020	76.456431	78.000000	36.000000
76.374020	76.456431	47.000000	34.000000
76.456431	76.538842	83.000000	40.000000
76.456431	76.538842	75.000000	40.000000
76.456431	76.538842	48.000000	34.000000
76.538842	76.876492	37.000000	40.000000
76.538842	76.640136	49.000000	40.000000
76.623251	76.707660	50.000000	35.000000
76.707660	76.792083	71.000000	35.000000
76.707660	76.792083	80.000000	35.000000
76.707660	76.792083	49.000000	36.000000
76.792083	76.876492	68.000000	40.000000
76.792083	76.876492	77.000000	40.000000
76.792083	76.876492	51.000000	36.000000
76.876492	76.989950	52.000000	37.000000
76.971040	77.229847	83.000000	36.000000
76.971040	77.065588	53.000000	39.000000
77.018314	77.229847	92.000000	43.000000
77.065588	77.229847	97.000000	51.000000
77.065588	77.147717	52.000000	40.000000
77.147717	77.229847	53.000000	41.000000
77.229847	77.559504	42.000000	40.000000
77.229847	77.328740	54.000000	40.000000
77.312258	77.394668	55.000000	32.000000
77.394668	77.477093	94.000000	35.000000
77.394668	77.477093	85.000000	35.000000
77.394668	77.477093	54.000000	32.000000
77.477093	77.559504	89.000000	40.000000
77.477093	77.559504	82.000000	40.000000
77.477093	77.559504	56.000000	33.000000
77.559504	77.658397	57.000000	33.000000
77.641915	77.724326	58.000000	33.000000
77.724326	77.806750	85.000000	36.000000
77.724326	77.806750	77.000000	36.000000
77.724326	77.806750	57.000000	34.000000
77.806750	77.889161	82.000000	40.000000
77.806750	77.889161	73.000000	40.000000
77.806750	77.889161	58.000000	34.000000
77.889161	78.223042	47.000000	40.000000
77.889161	77.989328	59.000000	40.000000
77.972631	78.056102	60.000000	35.000000
78.056102	78.139572	78.000000	35.000000
78.056102	78.139572	70.000000	35.000000
78.056102	78.139572	59.000000	36.000000
78.139572	78.223042	75.000000	40.000000
78.139572	78.223042	66.000000	40.000000
78.139572	78.223042	61.000000	36.000000
78.223042	78.336500	62.000000	37.000000
78.317590	78.576397	82.000000	36.000000
78.317590	78.412138	63.000000	39.000000
78.364864	78.576397	90.000000	43.000000
78.412138	78.576397	95.000000	51.000000
78.412138	78.494268	62.000000	40.000000
78.494268	78.576397	63.000000	41.000000
78.576397	78.675290	65.000000	40.000000
78.576397	78.906041	53.000000	40.000000
78.658808	78.741219	66.000000	32.000000
78.741219	78.823630	83.000000	35.000000
78.741219	78.823630	92.000000	35.000000
78.741219	78.823630	65.000000	32.000000
78.823630	78.906041	87.000000	40.000000
78.823630	78.906041	80.000000	40.000000
78.823630	78.906041	67.000000	33.000000
78.906041	79.004934	68.000000	33.000000
78.988452	79.070862	69.000000	33.000000
79.070862	79.153273	87.000000	36.000000
79.070862	79.153273	80.000000	36.000000
79.070862	79.153273	68.000000	34.000000
79.153273	79.235698	83.000000	40.000000
79.153273	79.235698	77.000000	40.000000
79.153273	79.235698	69.000000	34.000000
79.235698	79.569593	58.000000	40.000000
79.235698	79.335865	70.000000	40.000000
79.319168	79.402639	71.000000	35.000000
79.402639	79.569593	80.000000	35.000000
79.402639	79.486122	74.000000	35.000000
79.402639	79.486122	70.000000	36.000000
79.486122	79.569593	76.000000	40.000000
79.486122	79.569593	73.000000	36.000000
79.569593	79.758689	77.000000	35.000000
79.569593	79.664141	74.000000	37.000000
79.664141	79.758689	73.000000	39.000000
79.758689	79.922947	80.000000	43.000000
79.758689	79.922947	94.000000	51.000000
79.758689	79.840818	74.000000	40.000000
79.840818	79.922947	70.000000	41.000000
79.922947	80.251464	63.000000	40.000000
79.922947	80.021505	75.000000	37.000000
80.005076	80.087206	74.000000	37.000000
80.087206	80.169335	90.000000	36.000000
80.087206	80.169335	82.000000	36.000000
80.087206	80.169335	73.000000	37.000000
80.169335	80.251464	87.000000	40.000000
80.169335	80.251464	78.000000	40.000000
80.169335	80.251464	72.000000	37.000000
80.251464	80.350022	71.000000	37.000000
80.333594	80.415723	70.000000	37.000000
80.415723	80.497852	82.000000	36.000000
80.415723	80.497852	75.000000	36.000000
80.415723	80.497852	66.000000	37.000000
80.497852	80.579982	87.000000	40.000000
80.497852	80.579982	78.000000	40.000000
80.497852	80.579982	63.000000	37.000000
80.579982	80.911543	78.000000	51.000000
80.579982	80.662084	90.000000	51.000000
80.579982	80.911543	59.000000	48.000000
80.579982	80.662084	69.000000	48.000000
80.662084	80.744549	89.000000	40.000000
80.662084	80.744549	68.000000	39.000000
80.744549	80.827684	88.000000	43.000000
80.744549	80.827684	67.000000	40.000000
80.827684	80.911543	87.000000	47.000000
80.827684	80.911543	66.000000	40.000000
80.911543	80.996100	93.000000	54.000000
80.911543	81.253900	81.000000	54.000000
80.911543	81.253900	60.000000	51.000000
80.911543	80.996100	65.000000	51.000000
80.996100	81.081260	92.000000	46.000000
80.996100	81.081260	64.000000	42.000000
81.081260	81.167265	91.000000	49.000000
81.081260	81.167265	63.000000	43.000000
81.167265	81.253900	90.000000	54.000000
81.167265	81.253900	62.000000	43.000000
81.253900	81.341260	97.000000	70.000000
81.253900	81.341260	85.000000	57.000000
81.253900	81.341260	61.000000	63.000000
81.253900	81.341260	49.000000	63.000000
81.603339	81.778058	80.000000	33.000000
81.603339	81.778058	77.000000	33.000000
81.603339	81.690698	86.000000	37.000000
81.603339	81.690698	71.000000	32.000000
81.690698	81.778058	83.000000	35.000000
81.690698	81.778058	74.000000	25.000000
81.778058	81.865418	79.000000	37.000000
81.778058	81.865418	70.000000	32.000000
81.865418	81.952777	76.000000	31.000000
81.865418	81.952777	73.000000	27.000000
81.952777	82.040137	80.000000	37.000000
81.952777	82.040137	71.000000	32.000000
82.040137	82.127818	77.000000	32.000000
82.040137	82.127818	74.000000	28.000000
82.127818	82.215889	85.000000	37.000000
82.127818	82.215889	64.000000	34.000000
82.215889	82.304348	82.000000	37.000000
82.215889	82.304348	67.000000	33.000000
82.304348	82.393250	86.000000	39.000000
82.304348	82.393250	65.000000	34.000000
82.393250	82.482635	83.000000	40.000000
82.393250	82.482635	68.000000	36.000000
82.482635	82.572422	91.000000	42.000000
82.482635	82.572422	58.000000	37.000000
82.572422	82.662611	88.000000	43.000000
82.572422	82.662611	61.000000	40.000000
82.662611	82.757119	92.000000	44.000000
82.662611	82.757119	59.000000	41.000000
82.757119	82.851626	89.000000	42.000000
82.757119	82.851626	62.000000	37.000000
82.851626	82.961356	98.000000	54.000000
82.851626	82.961356	59.000000	44.000000
82.961356	83.071085	89.000000	41.000000
82.961356	83.071085	86.000000	41.000000
82.961356	83.071085	49.000000	37.000000
83.071085	83.168677	97.000000	50.000000
83.071085	83.168677	57.000000	44.000000
83.168677	83.266269	89.000000	41.000000
83.168677	83.266269	85.000000	41.000000
83.168677	83.266269	49.000000	36.000000
83.266269	83.363861	95.000000	54.000000
83.266269	83.363861	56.000000	44.000000
83.363861	83.461454	83.000000	44.000000
83.363861	83.461454	89.000000	44.000000
83.363861	83.461454	49.000000	35.000000
83.461454	83.559046	94.000000	52.000000
83.461454	83.559046	55.000000	44.000000
83.559046	83.656638	82.000000	41.000000
83.559046	83.656638	85.000000	41.000000
83.559046	83.656638	49.000000	37.000000
83.656638	83.754230	93.000000	51.000000
83.656638	83.754230	54.000000	44.000000
83.754230	83.851823	84.000000	44.000000
83.754230	83.851823	81.000000	44.000000
83.754230	83.851823	49.000000	36.000000
83.851823	83.949415	92.000000	54.000000
83.851823	83.949415	57.000000	44.000000
83.949415	84.047007	84.000000	43.000000
83.949415	84.047007	80.000000	43.000000
83.949415	84.047007	49.000000	36.000000
84.047007	84.144599	90.000000	52.000000
84.047007	84.144599	63.000000	44.000000
84.144599	84.242192	84.000000	44.000000
84.144599	84.242192	78.000000	44.000000
84.144599	84.242192	49.000000	37.000000
84.242192	84.437376	77.000000	56.000000
84.242192	84.437376	89.000000	56.000000
84.242192	84.437376	85.000000	56.000000
84.242192	84.339784	68.000000	48.000000
84.242192	84.339784	61.000000	48.000000
84.437376	84.534968	37.000000	48.000000
84.632561	84.981999	68.000000	32.000000
84.632561	84.981999	65.000000	32.000000
84.632561	84.719920	74.000000	37.000000
84.632561	84.719920	59.000000	32.000000
84.719920	84.807280	71.000000	35.000000
84.719920	84.807280	62.000000	25.000000
84.807280	84.894639	67.000000	37.000000
84.807280	84.894639	58.000000	32.000000
84.894639	84.981999	64.000000	31.000000
84.894639	84.981999	61.000000	27.000000
84.981999	85.069359	68.000000	37.000000
84.981999	85.069359	59.000000	32.000000
85.069359	85.156718	65.000000	32.000000
85.069359	85.156718	62.000000	28.000000
85.156718	85.244078	73.000000	37.000000
85.156718	85.244078	52.000000	34.000000
85.244078	85.331504	70.000000	37.000000
85.244078	85.331504	55.000000	33.000000
85.331504	85.419776	74.000000	39.000000
85.331504	85.419776	53.000000	34.000000
85.419776	85.509027	71.000000	40.000000
85.419776	85.509027	56.000000	36.000000
85.509027	85.599149	79.000000	42.000000
85.509027	85.599149	46.000000	37.000000
85.599149	85.690371	76.000000	43.000000
85.599149	85.690371	49.000000	40.000000
85.690371	85.786099	80.000000	44.000000
85.690371	85.786099	47.000000	41.000000
85.786099	85.881827	77.000000	42.000000
85.786099	85.881827	50.000000	37.000000
85.881827	85.991556	86.000000	54.000000
85.881827	85.991556	47.000000	44.000000
85.991556	86.101286	74.000000	41.000000
85.991556	86.101286	77.000000	41.000000
85.991556	86.101286	37.000000	37.000000
86.101286	86.198878	85.000000	50.000000
86.101286	86.198878	45.000000	44.000000
86.198878	86.296470	73.000000	41.000000
86.198878	86.296470	77.000000	41.000000
86.198878	86.296470	37.000000	36.000000
86.296470	86.394062	83.000000	54.000000
86.296470	86.394062	44.000000	44.000000
86.394062	86.491668	77.000000	44.000000
86.394062	86.491668	71.000000	44.000000
86.394062	86.491668	37.000000	35.000000
86.491668	86.589260	82.000000	52.000000
86.491668	86.589260	43.000000	44.000000
86.589260	86.686852	73.000000	41.000000
86.589260	86.686852	70.000000	41.000000
86.589260	86.686852	37.000000	37.000000
86.686852	86.784445	81.000000	51.000000
86.686852	86.784445	42.000000	44.000000
86.784445	86.882037	69.000000	44.000000
86.784445	86.882037	72.000000	44.000000
86.784445	86.882037	37.000000	36.000000
86.882037	86.979629	80.000000	54.000000
86.882037	86.979629	45.000000	44.000000
86.979629	87.077221	68.000000	43.000000
86.979629	87.077221	72.000000	43.000000
86.979629	87.077221	37.000000	36.000000
87.077221	87.174733	78.000000	52.000000
87.077221	87.174733	51.000000	44.000000
87.174733	87.271682	66.000000	44.000000
87.174733	87.271682	72.000000	44.000000
87.174733	87.271682	37.000000	37.000000
87.271682	87.368563	77.000000	52.000000
87.271682	87.368563	49.000000	44.000000
87.368563	87.464908	65.000000	43.000000
87.368563	87.464908	68.000000	43.000000
87.368563	87.464908	37.000000	36.000000
87.464908	87.561173	74.000000	52.000000
87.464908	87.561173	47.000000	44.000000
87.561173	87.656887	62.000000	43.000000
87.561173	87.656887	65.000000	43.000000
87.561173	87.656887	37.000000	36.000000
87.656887	87.752374	73.000000	54.000000
87.656887	87.752374	45.000000	46.000000
87.752374	87.847499	61.000000	44.000000
87.752374	87.847499	65.000000	44.000000
87.752374	87.847499	37.000000	37.000000
87.847499	87.942382	71.000000	55.000000
87.847499	87.942382	44.000000	46.000000
87.942382	88.036903	59.000000	46.000000
87.942382	88.036903	65.000000	46.000000
87.942382	88.036903	37.000000	37.000000
88.036903	88.131049	70.000000	56.000000
88.036903	88.131049	43.000000	47.000000
88.131049	88.225583	61.000000	47.000000
88.131049	88.225583	58.000000	47.000000
88.131049	88.225583	37.000000	39.000000
88.225583	88.320936	69.000000	57.000000
88.225583	88.320936	42.000000	48.000000
88.320936	88.417281	57.000000	47.000000
88.320936	88.417281	60.000000	47.000000
88.320936	88.417281	37.000000	40.000000
88.417281	88.514484	68.000000	58.000000
88.417281	88.514484	45.000000	49.000000
88.514484	88.612559	56.000000	48.000000
88.514484	88.612559	60.000000	48.000000
88.514484	88.612559	37.000000	40.000000
88.612559	88.711694	66.000000	58.000000
88.612559	88.711694	51.000000	50.000000
88.711694	88.811740	54.000000	49.000000
88.711694	88.811740	60.000000	49.000000
88.711694	88.811740	37.000000	41.000000
88.811740	89.013482	65.000000	66.000000
88.811740	89.013482	56.000000	66.000000
88.811740	89.013482	49.000000	56.000000
89.013482	89.108004	62.000000	82.000000
89.013482	89.108004	56.000000	69.000000
89.013482	89.108004	53.000000	69.000000
89.013482	89.108004	35.000000	57.000000
89.013482	89.108004	47.000000	67.000000
89.202525	89.297046	56.000000	64.000000
89.202525	89.297046	61.000000	75.000000
89.202525	89.297046	53.000000	64.000000
89.202525	89.297046	48.000000	59.000000
89.202525	89.297046	36.000000	50.000000
89.391567	89.486088	60.000000	75.000000
89.391567	89.486088	53.000000	64.000000
89.391567	89.486088	56.000000	64.000000
89.391567	89.486088	37.000000	50.000000
89.391567	89.486088	49.000000	59.000000
89.580609	89.675130	53.000000	69.000000
89.580609	89.675130	56.000000	69.000000
89.580609	89.675130	59.000000	82.000000
89.580609	89.675130	38.000000	57.000000
89.580609	89.675130	50.000000	67.000000
89.769651	89.870529	56.000000	64.000000
89.769651	89.870529	62.000000	75.000000
89.769651	89.870529	53.000000	64.000000
89.769651	89.870529	47.000000	64.000000
89.971407	90.065338	61.000000	82.000000
89.971407	90.159256	56.000000	69.000000
89.971407	90.159256	53.000000	69.000000
89.971407	90.065338	48.000000	67.000000
90.065338	90.159256	60.000000	74.000000
90.065338	90.159256	49.000000	63.000000
90.159256	90.347104	59.000000	74.000000
90.159256	90.347104	50.000000	63.000000
90.534953	90.629474	68.000000	37.000000
90.534953	90.629474	65.000000	37.000000
90.534953	90.629474	74.000000	44.000000
90.534953	90.629474	59.000000	37.000000
90.723995	90.818516	65.000000	34.000000
90.723995	90.818516	68.000000	34.000000
90.723995	90.818516	73.000000	41.000000
90.723995	90.818516	60.000000	32.000000
90.913038	91.007559	65.000000	34.000000
90.913038	91.007559	72.000000	41.000000
90.913038	91.007559	68.000000	34.000000
90.913038	91.007559	61.000000	32.000000
91.102080	91.196601	65.000000	37.000000
91.102080	91.196601	68.000000	37.000000
91.102080	91.196601	71.000000	44.000000
91.102080	91.196601	62.000000	37.000000
91.291122	91.392000	68.000000	34.000000
91.291122	91.392000	65.000000	34.000000
91.291122	91.392000	74.000000	41.000000
91.291122	91.392000	59.000000	34.000000
91.492878	91.586809	73.000000	44.000000
91.492878	91.680740	65.000000	37.000000
91.492878	91.680740	68.000000	37.000000
91.492878	91.586809	60.000000	37.000000
91.586809	91.680740	72.000000	40.000000
91.586809	91.680740	61.000000	34.000000
91.680740	91.868589	71.000000	40.000000
91.680740	91.868589	62.000000	34.000000
92.070331	92.164852	65.000000	69.000000
92.070331	92.164852	56.000000	69.000000
92.070331	92.164852	62.000000	82.000000
92.070331	92.164852	35.000000	57.000000
92.070331	92.164852	47.000000	67.000000
92.259373	92.353894	65.000000	64.000000
92.259373	92.353894	61.000000	75.000000
92.259373	92.353894	56.000000	64.000000
92.259373	92.353894	36.000000	50.000000
92.259373	92.353894	48.000000	59.000000
92.448415	92.542937	56.000000	64.000000
92.448415	92.542937	65.000000	64.000000
92.448415	92.542937	60.000000	75.000000
92.448415	92.542937	49.000000	59.000000
92.448415	92.542937	37.000000	50.000000
92.637458	92.731979	65.000000	69.000000
92.637458	92.731979	56.000000	69.000000
92.637458	92.731979	59.000000	82.000000
92.637458	92.731979	50.000000	67.000000
92.637458	92.731979	38.000000	57.000000
92.826500	92.927378	62.000000	75.000000
92.826500	92.927378	65.000000	64.000000
92.826500	92.927378	56.000000	64.000000
92.826500	92.927378	47.000000	64.000000
93.028256	93.122187	61.000000	82.000000
93.028256	93.216118	56.000000	69.000000
93.028256	93.216118	65.000000	69.000000
93.028256	93.122187	48.000000	67.000000
93.122187	93.216118	60.000000	74.000000
93.122187	93.216118	49.000000	63.000000
93.216118	93.403966	59.000000	74.000000
93.216118	93.403966	50.000000	63.000000
93.603040	93.697561	77.000000	37.000000
93.603040	93.697561	74.000000	44.000000
93.603040	93.697561	68.000000	37.000000
93.603040	93.697561	59.000000	37.000000
93.792082	93.886603	68.000000	34.000000
93.792082	93.886603	73.000000	41.000000
93.792082	93.886603	77.000000	34.000000
93.792082	93.886603	60.000000	32.000000
93.981125	94.075646	68.000000	34.000000
93.981125	94.075646	72.000000	41.000000
93.981125	94.075646	77.000000	34.000000
93.981125	94.075646	61.000000	32.000000
94.170167	94.264688	77.000000	37.000000
94.170167	94.264688	71.000000	44.000000
94.170167	94.264688	68.000000	37.000000
94.170167	94.264688	62.000000	37.000000
94.359209	94.460087	68.000000	34.000000
94.359209	94.460087	77.000000	34.000000
94.359209	94.460087	74.000000	41.000000
94.359209	94.460087	59.000000	34.000000
94.560965	94.748827	77.000000	37.000000
94.560965	94.654896	73.000000	44.000000
94.560965	94.748827	68.000000	37.000000
94.560965	94.654896	60.000000	37.000000
94.654896	94.748827	72.000000	40.000000
94.654896	94.748827	61.000000	34.000000
94.748827	94.936676	71.000000	40.000000
94.748827	94.936676	62.000000	34.000000
95.131860	95.221312	71.000000	37.000000
95.131860	95.221312	77.000000	44.000000
95.131860	95.221312	80.000000	37.000000
95.131860	95.221312	62.000000	37.000000
95.310763	95.400215	76.000000	41.000000
95.310763	95.400215	71.000000	34.000000
95.310763	95.400215	80.000000	34.000000
95.310763	95.400215	63.000000	32.000000
95.489667	95.579119	80.000000	34.000000
95.489667	95.579119	75.000000	41.000000
95.489667	95.579119	71.000000	34.000000
95.489667	95.579119	64.000000	32.000000
95.668570	95.758022	74.000000	44.000000
95.668570	95.758022	80.000000	37.000000
95.668570	95.758022	71.000000	37.000000
95.668570	95.758022	65.000000	37.000000
95.847474	95.945710	80.000000	41.000000
95.847474	95.945710	74.000000	34.000000
95.847474	95.945710	83.000000	34.000000
95.847474	95.945710	65.000000	34.000000
96.043946	96.133934	79.000000	44.000000
96.043946	96.223922	74.000000	37.000000
96.043946	96.223922	83.000000	37.000000
96.043946	96.133934	66.000000	37.000000
96.133934	96.223922	78.000000	40.000000
96.133934	96.223922	67.000000	34.000000
96.223922	96.403898	77.000000	40.000000
96.223922	96.403898	68.000000	34.000000
96.403898	96.753337	77.000000	42.000000
96.403898	96.753337	86.000000	42.000000
96.403898	96.491258	83.000000	35.000000
96.403898	96.491258	68.000000	35.000000
96.491258	96.578618	81.000000	28.000000
96.491258	96.578618	69.000000	28.000000
96.578618	96.665977	82.000000	28.000000
96.578618	96.665977	70.000000	28.000000
96.665977	96.753337	71.000000	28.000000
96.665977	96.753337	80.000000	28.000000
96.753337	97.102789	89.000000	43.000000
96.753337	97.102789	80.000000	43.000000
96.753337	96.840696	71.000000	35.000000
96.753337	96.840696	87.000000	35.000000
96.840696	96.928070	72.000000	28.000000
96.840696	96.928070	84.000000	28.000000
96.928070	97.015429	73.000000	28.000000
96.928070	97.015429	85.000000	28.000000
97.015429	97.102789	74.000000	28.000000
97.015429	97.102789	83.000000	28.000000
97.102789	97.448204	83.000000	44.000000
97.102789	97.448204	92.000000	44.000000
97.102789	97.189142	74.000000	35.000000
97.102789	97.189142	88.000000	35.000000
97.189142	97.275496	87.000000	31.000000
97.189142	97.275496	75.000000	31.000000
97.275496	97.361850	76.000000	31.000000
97.275496	97.361850	88.000000	31.000000
97.361850	97.448204	86.000000	31.000000
97.361850	97.448204	77.000000	31.000000
97.448204	97.793646	86.000000	42.000000
97.448204	97.793646	95.000000	42.000000
97.448204	97.534558	92.000000	35.000000
97.448204	97.534558	77.000000	35.000000
97.534558	97.620925	90.000000	31.000000
97.534558	97.620925	78.000000	31.000000
97.620925	97.707292	91.000000	31.000000
97.620925	97.707292	79.000000	31.000000
97.707292	97.793646	89.000000	31.000000
97.707292	97.793646	80.000000	31.000000
97.793646	98.137076	89.000000	54.000000
97.793646	98.137076	98.000000	54.000000
97.793646	97.879503	95.000000	36.000000
97.793646	97.879503	80.000000	36.000000
97.879503	97.965361	93.000000	33.000000
97.879503	97.965361	81.000000	33.000000
97.965361	98.051218	82.000000	33.000000
97.965361	98.051218	94.000000	33.000000
98.051218	98.137076	92.000000	33.000000
98.051218	98.137076	83.000000	33.000000
98.137076	98.480506	98.000000	50.000000
98.137076	98.480506	89.000000	50.000000
98.137076	98.222934	80.000000	36.000000
98.137076	98.222934	95.000000	36.000000
98.222934	98.308791	81.000000	33.000000
98.222934	98.308791	93.000000	33.000000
98.308791	98.394649	82.000000	33.000000
98.308791	98.394649	94.000000	33.000000
98.394649	98.480506	92.000000	32.000000
98.394649	98.480506	83.000000	32.000000
98.480506	98.823937	98.000000	55.000000
98.480506	98.823937	89.000000	55.000000
98.480506	98.566364	95.000000	36.000000
98.480506	98.566364	80.000000	36.000000
98.566364	98.652221	81.000000	33.000000
98.566364	98.652221	93.000000	33.000000
98.652221	98.738079	82.000000	33.000000
98.652221	98.738079	94.000000	33.000000
98.738079	98.823937	92.000000	33.000000
98.738079	98.823937	83.000000	33.000000
98.823937	99.167367	89.000000	51.000000
98.823937	99.167367	98.000000	51.000000
98.823937	98.909794	80.000000	36.000000
98.823937	98.909794	95.000000	36.000000
98.909794	98.995652	93.000000	32.000000
98.909794	98.995652	81.000000	32.000000
98.995652	99.081509	82.000000	32.000000
98.995652	99.081509	94.000000	32.000000
99.081509	99.167367	92.000000	32.000000
99.081509	99.167367	83.000000	32.000000
99.167367	99.253238	101.000000	55.000000
99.167367	99.253238	98.000000	42.000000
99.167367	99.253238	95.000000	42.000000
99.253238	99.339095	100.000000	42.000000
99.253238	99.339095	97.000000	34.000000
99.253238	99.339095	94.000000	34.000000
99.339095	99.424953	101.000000	42.000000
99.339095	99.424953	98.000000	34.000000
99.339095	99.424953	95.000000	34.000000
99.424953	99.510810	99.000000	42.000000
99.424953	99.510810	96.000000	34.000000
99.424953	99.510810	93.000000	34.000000
99.510810	99.596668	98.000000	52.000000
99.510810	99.596668	92.000000	42.000000
99.510810	99.596668	95.000000	42.000000
99.596668	99.682526	97.000000	42.000000
99.596668	99.682526	91.000000	34.000000
99.596668	99.682526	94.000000	34.000000
99.682526	99.768383	98.000000	42.000000
99.682526	99.768383	95.000000	34.000000
99.682526	99.768383	92.000000	34.000000
99.768383	99.854241	96.000000	42.000000
99.768383	99.854241	90.000000	34.000000
99.768383	99.854241	93.000000	34.000000
99.854241	99.940098	95.000000	54.000000
99.854241	99.940098	89.000000	42.000000
99.854241	99.940098	92.000000	42.000000
99.940098	100.025956	94.000000	42.000000
99.940098	100.025956	91.000000	35.000000
99.940098	100.025956	88.000000	35.000000
100.025956	100.111813	95.000000	42.000000
100.025956	100.111813	89.000000	35.000000
100.025956	100.111813	92.000000	35.000000
100.111813	100.197671	93.000000	42.000000
100.111813	100.197671	87.000000	35.000000
100.111813	100.197671	90.000000	35.000000
100.197671	100.283529	92.000000	51.000000
100.197671	100.283529	86.000000	42.000000
100.197671	100.283529	89.000000	42.000000
100.283529	100.369386	91.000000	42.000000
100.283529	100.369386	85.000000	34.000000
100.283529	100.369386	88.000000	34.000000
100.369386	100.455244	92.000000	42.000000
100.369386	100.455244	89.000000	34.000000
100.369386	100.455244	86.000000	34.000000
100.455244	100.541034	90.000000	42.000000
100.455244	100.541034	84.000000	34.000000
100.455244	100.541034	87.000000	34.000000
100.541034	100.626409	89.000000	49.000000
100.541034	100.626409	86.000000	37.000000
100.541034	100.626409	83.000000	37.000000
100.626409	100.711972	88.000000	37.000000
100.626409	100.711972	82.000000	31.000000
100.626409	100.711972	85.000000	31.000000
100.711972	100.797829	89.000000	37.000000
100.711972	100.797829	83.000000	31.000000
100.711972	100.797829	86.000000	31.000000
100.797829	100.884009	87.000000	37.000000
100.797829	100.884009	81.000000	31.000000
100.797829	100.884009	84.000000	31.000000
100.884009	100.970362	86.000000	47.000000
100.884009	100.970362	83.000000	37.000000
100.884009	100.970362	80.000000	37.000000
100.970362	101.057159	85.000000	37.000000
100.970362	101.057159	82.000000	31.000000
100.970362	101.057159	79.000000	31.000000
101.057159	101.144076	86.000000	37.000000
101.057159	101.144076	80.000000	31.000000
101.057159	101.144076	83.000000	31.000000
101.144076	101.231435	84.000000	37.000000
101.144076	101.231435	81.000000	31.000000
101.144076	101.231435	78.000000	31.000000
101.231435	101.318996	83.000000	48.000000
101.231435	101.318996	77.000000	37.000000
101.231435	101.318996	80.000000	37.000000
101.318996	101.406865	82.000000	37.000000
101.318996	101.406865	79.000000	31.000000
101.318996	101.406865	76.000000	31.000000
101.406865	101.495070	83.000000	37.000000
101.406865	101.495070	77.000000	31.000000
101.406865	101.495070	80.000000	31.000000
101.495070	101.583462	81.000000	37.000000
101.495070	101.583462	78.000000	31.000000
101.495070	101.583462	75.000000	31.000000
101.583462	101.672310	80.000000	46.000000
101.583462	101.672310	77.000000	37.000000
101.583462	101.672310	74.000000	37.000000
101.672310	101.761293	79.000000	37.000000
101.672310	101.761293	76.000000	31.000000
101.672310	101.761293	73.000000	31.000000
101.761293	101.850744	80.000000	37.000000
101.761293	101.850744	77.000000	31.000000
101.761293	101.850744	74.000000	31.000000
101.850744	101.940397	78.000000	37.000000
101.850744	101.940397	72.000000	31.000000
101.850744	101.940397	75.000000	31.000000
101.940397	102.030385	80.000000	37.000000
101.940397	102.030385	74.000000	37.000000
101.940397	102.030385	77.000000	37.000000
102.030385	102.120374	73.000000	31.000000
102.030385	102.120374	76.000000	31.000000
102.120374	102.210362	77.000000	31.000000
102.120374	102.210362	74.000000	31.000000
102.120374	102.210362	80.000000	31.000000
102.210362	102.300350	76.000000	31.000000
102.210362	102.300350	73.000000	31.000000
102.300350	102.390338	77.000000	37.000000
102.300350	102.390338	74.000000	37.000000
102.300350	102.390338	80.000000	37.000000
102.390338	102.480326	73.000000	31.000000
102.390338	102.480326	76.000000	31.000000
102.480326	102.570314	80.000000	31.000000
102.480326	102.570314	77.000000	31.000000
102.480326	102.570314	74.000000	31.000000
102.570314	102.660303	76.000000	31.000000
102.570314	102.660303	73.000000	31.000000
102.660303	102.750291	77.000000	37.000000
102.660303	102.750291	74.000000	37.000000
102.660303	102.750291	80.000000	37.000000
102.750291	102.840279	73.000000	31.000000
102.750291	102.840279	76.000000	31.000000
102.840279	102.930267	80.000000	31.000000
102.840279	102.930267	77.000000	31.000000
102.840279	102.930267	74.000000	31.000000
102.930267	103.020255	73.000000	31.000000
102.930267	103.020255	76.000000	31.000000
103.020255	103.110243	74.000000	37.000000
103.020255	103.110243	77.000000	37.000000
103.020255	103.110243	80.000000	37.000000
103.110243	103.200232	73.000000	31.000000
103.110243	103.200232	76.000000	31.000000
103.200232	103.290220	74.000000	31.000000
103.200232	103.290220	80.000000	31.000000
103.200232	103.290220	77.000000	31.000000
103.290220	103.380208	73.000000	31.000000
103.290220	103.380208	76.000000	31.000000
103.380208	103.470196	80.000000	31.000000
103.380208	103.470196	74.000000	31.000000
103.380208	103.470196	77.000000	31.000000
103.470196	103.560184	78.000000	31.000000
103.560184	103.650172	77.000000	31.000000
103.650172	103.740375	78.000000	31.000000
103.740375	103.830900	77.000000	28.000000
103.830900	103.921424	78.000000	28.000000
103.921424	104.011949	77.000000	28.000000
104.011949	104.102970	78.000000	31.000000
104.102970	104.194044	77.000000	31.000000
104.194044	104.285119	78.000000	31.000000
104.285119	104.376421	77.000000	31.000000
104.376421	104.468046	78.000000	31.000000
104.468046	104.559670	77.000000	26.000000
104.559670	104.651294	78.000000	26.000000
104.651294	104.743428	77.000000	27.000000
104.743428	104.834757	78.000000	27.000000
104.834757	104.927589	77.000000	29.000000
104.927589	105.022767	78.000000	26.000000
105.022767	105.119769	77.000000	29.000000
105.119769	105.217361	78.000000	26.000000
105.217361	105.397324	70.000000	37.000000
105.217361	105.307336	76.000000	29.000000
105.217361	105.577301	62.000000	36.000000
105.217361	105.397324	67.000000	34.000000
105.307336	105.397324	78.000000	26.000000
105.397324	105.487312	76.000000	34.000000
105.397324	105.577301	71.000000	34.000000
105.397324	105.577301	68.000000	29.000000
105.487312	105.577301	78.000000	26.000000
105.577301	105.667275	76.000000	29.000000
105.577301	105.757264	72.000000	39.000000
105.577301	105.937240	61.000000	40.000000
105.577301	105.757264	68.000000	34.000000
105.667275	105.757264	78.000000	26.000000
105.757264	105.847252	76.000000	29.000000
105.757264	105.937240	73.000000	35.000000
105.757264	105.937240	69.000000	29.000000
105.847252	105.937240	78.000000	26.000000
105.937240	106.117203	73.000000	40.000000
105.937240	106.027215	76.000000	29.000000
105.937240	106.117203	70.000000	39.000000
105.937240	106.297179	56.000000	36.000000
106.027215	106.117203	78.000000	26.000000
106.117203	106.207191	76.000000	29.000000
106.117203	106.297179	74.000000	35.000000
106.117203	106.297179	71.000000	33.000000
106.207191	106.297179	78.000000	26.000000
106.297179	106.396716	73.000000	31.000000
106.297179	106.396716	76.000000	31.000000
106.297179	106.677302	57.000000	33.000000
106.297179	106.677302	64.000000	40.000000
106.396716	106.496253	78.000000	26.000000
106.496253	106.586778	76.000000	32.000000
106.496253	106.586778	85.000000	46.000000
106.586778	106.677302	78.000000	26.000000
106.586778	106.677302	73.000000	26.000000
106.677302	106.767827	76.000000	33.000000
106.677302	106.767827	83.000000	46.000000
106.677302	107.039401	57.000000	33.000000
106.677302	107.039401	52.000000	33.000000
106.677302	107.039401	64.000000	40.000000
106.767827	106.858351	78.000000	26.000000
106.767827	106.858351	73.000000	26.000000
106.858351	106.948876	76.000000	33.000000
106.858351	106.948876	81.000000	42.000000
106.948876	107.039401	78.000000	27.000000
106.948876	107.039401	73.000000	27.000000
107.039401	107.129925	74.000000	34.000000
107.039401	107.129925	81.000000	46.000000
107.039401	107.415634	59.000000	33.000000
107.039401	107.415634	64.000000	40.000000
107.039401	107.415634	52.000000	33.000000
107.129925	107.220450	71.000000	28.000000
107.129925	107.220450	76.000000	28.000000
107.220450	107.318042	74.000000	33.000000
107.220450	107.318042	80.000000	43.000000
107.318042	107.415634	76.000000	26.000000
107.318042	107.415634	71.000000	26.000000
107.415634	107.504550	74.000000	33.000000
107.415634	107.504550	79.000000	46.000000
107.415634	107.772368	64.000000	40.000000
107.415634	107.772368	56.000000	33.000000
107.504550	107.593465	71.000000	25.000000
107.504550	107.593465	78.000000	43.000000
107.593465	107.682917	77.000000	46.000000
107.593465	107.682917	74.000000	32.000000
107.682917	107.772368	71.000000	26.000000
107.772368	107.861820	73.000000	33.000000
107.772368	107.861820	76.000000	46.000000
107.772368	108.130175	57.000000	33.000000
107.772368	108.130175	64.000000	40.000000
107.861820	107.951272	69.000000	25.000000
107.951272	108.040723	73.000000	25.000000
108.040723	108.130175	78.000000	25.000000
108.130175	108.310138	70.000000	37.000000
108.130175	108.220150	76.000000	29.000000
108.130175	108.490114	62.000000	36.000000
108.130175	108.310138	67.000000	34.000000
108.220150	108.310138	78.000000	26.000000
108.310138	108.490114	71.000000	34.000000
108.310138	108.400126	76.000000	34.000000
108.310138	108.490114	68.000000	29.000000
108.400126	108.490114	78.000000	26.000000
108.490114	108.580089	76.000000	29.000000
108.490114	108.670077	72.000000	39.000000
108.490114	108.850054	61.000000	40.000000
108.490114	108.670077	68.000000	34.000000
108.580089	108.670077	78.000000	26.000000
108.670077	108.760066	76.000000	29.000000
108.670077	108.850054	73.000000	35.000000
108.670077	108.850054	69.000000	29.000000
108.760066	108.850054	78.000000	26.000000
108.850054	109.030017	73.000000	40.000000
108.850054	108.940029	76.000000	29.000000
108.850054	109.030017	70.000000	39.000000
108.850054	109.209993	56.000000	36.000000
108.940029	109.030017	78.000000	26.000000
109.030017	109.209993	74.000000	35.000000
109.030017	109.120005	76.000000	29.000000
109.030017	109.209993	71.000000	33.000000
109.120005	109.209993	78.000000	26.000000
109.209993	109.309530	73.000000	31.000000
109.209993	109.309530	76.000000	31.000000
109.209993	109.589043	64.000000	40.000000
109.209993	109.589043	57.000000	33.000000
109.309530	109.409067	78.000000	26.000000
109.409067	109.499055	85.000000	50.000000
109.409067	109.499055	76.000000	32.000000
109.499055	109.589043	78.000000	26.000000
109.499055	109.589043	73.000000	26.000000
109.589043	109.679031	76.000000	33.000000
109.589043	109.679031	83.000000	50.000000
109.589043	109.948996	57.000000	33.000000
109.589043	109.948996	52.000000	33.000000
109.589043	109.948996	64.000000	40.000000
109.679031	109.769019	78.000000	26.000000
109.679031	109.769019	73.000000	26.000000
109.769019	109.859008	76.000000	33.000000
109.769019	109.859008	81.000000	48.000000
109.859008	109.948996	73.000000	27.000000
109.859008	109.948996	78.000000	27.000000
109.948996	110.038984	74.000000	34.000000
109.948996	110.038984	81.000000	50.000000
109.948996	110.324157	64.000000	40.000000
109.948996	110.324157	52.000000	33.000000
109.948996	110.324157	59.000000	33.000000
110.038984	110.128972	71.000000	28.000000
110.038984	110.128972	76.000000	28.000000
110.128972	110.226564	74.000000	33.000000
110.128972	110.226564	80.000000	48.000000
110.226564	110.324157	76.000000	26.000000
110.226564	110.324157	71.000000	26.000000
110.324157	110.413072	74.000000	33.000000
110.324157	110.413072	79.000000	50.000000
110.324157	110.680891	56.000000	33.000000
110.324157	110.680891	64.000000	40.000000
110.413072	110.501987	71.000000	25.000000
110.413072	110.501987	78.000000	43.000000
110.501987	110.591439	77.000000	50.000000
110.501987	110.591439	74.000000	32.000000
110.591439	110.680891	71.000000	26.000000
110.680891	110.770342	76.000000	50.000000
110.680891	110.770342	73.000000	33.000000
110.680891	111.057553	64.000000	40.000000
110.680891	111.057553	57.000000	33.000000
110.770342	110.859794	69.000000	25.000000
110.859794	110.958674	73.000000	25.000000
110.958674	111.057553	80.000000	25.000000
111.057553	111.148628	81.000000	29.000000
111.057553	111.239702	75.000000	37.000000
111.057553	111.421851	67.000000	36.000000
111.057553	111.239702	72.000000	34.000000
111.148628	111.239702	82.000000	26.000000
111.239702	111.421851	76.000000	34.000000
111.239702	111.330777	81.000000	34.000000
111.239702	111.421851	73.000000	29.000000
111.330777	111.421851	82.000000	26.000000
111.421851	111.511826	81.000000	29.000000
111.421851	111.601814	76.000000	39.000000
111.421851	111.601814	73.000000	34.000000
111.421851	111.781791	65.000000	40.000000
111.511826	111.601814	82.000000	26.000000
111.601814	111.781791	77.000000	35.000000
111.601814	111.691802	81.000000	29.000000
111.601814	111.781791	74.000000	29.000000
111.691802	111.781791	82.000000	26.000000
111.781791	111.871765	81.000000	29.000000
111.781791	111.961754	78.000000	40.000000
111.781791	112.141730	61.000000	36.000000
111.781791	111.961754	75.000000	39.000000
111.871765	111.961754	82.000000	26.000000
111.961754	112.141730	79.000000	35.000000
111.961754	112.051742	81.000000	29.000000
111.961754	112.141730	76.000000	33.000000
112.051742	112.141730	82.000000	26.000000
112.141730	112.241267	81.000000	31.000000
112.141730	112.241267	77.000000	31.000000
112.141730	112.519707	62.000000	33.000000
112.141730	112.519707	69.000000	40.000000
112.241267	112.340804	82.000000	26.000000
112.340804	112.430255	89.000000	55.000000
112.340804	112.430255	81.000000	32.000000
112.430255	112.519707	82.000000	26.000000
112.430255	112.519707	77.000000	26.000000
112.519707	112.609159	88.000000	55.000000
112.519707	112.609159	81.000000	33.000000
112.519707	112.877514	57.000000	33.000000
112.519707	112.877514	69.000000	40.000000
112.519707	112.877514	62.000000	33.000000
112.609159	112.698610	77.000000	26.000000
112.609159	112.698610	82.000000	26.000000
112.698610	112.788062	81.000000	33.000000
112.698610	112.788062	86.000000	52.000000
112.788062	112.877514	82.000000	27.000000
112.788062	112.877514	77.000000	27.000000
112.877514	112.967502	86.000000	55.000000
112.877514	112.967502	79.000000	34.000000
112.877514	113.252675	64.000000	33.000000
112.877514	113.252675	57.000000	33.000000
112.877514	113.252675	69.000000	40.000000
112.967502	113.057490	81.000000	28.000000
112.967502	113.057490	76.000000	28.000000
113.057490	113.155083	85.000000	52.000000
113.057490	113.155083	79.000000	33.000000
113.155083	113.252675	76.000000	26.000000
113.155083	113.252675	81.000000	26.000000
113.252675	113.341590	79.000000	33.000000
113.252675	113.341590	84.000000	55.000000
113.252675	113.609409	61.000000	33.000000
113.252675	113.967216	69.000000	40.000000
113.341590	113.430505	83.000000	52.000000
113.341590	113.430505	76.000000	25.000000
113.430505	113.519957	82.000000	55.000000
113.430505	113.519957	79.000000	32.000000
113.519957	113.609409	76.000000	26.000000
113.609409	113.698861	77.000000	33.000000
113.609409	113.698861	81.000000	55.000000
113.609409	113.967216	62.000000	33.000000
113.698861	113.788312	74.000000	25.000000
113.788312	113.877764	77.000000	25.000000
113.877764	113.967216	82.000000	25.000000
113.967216	114.147179	75.000000	37.000000
113.967216	114.057190	81.000000	29.000000
113.967216	114.327155	67.000000	36.000000
113.967216	114.147179	72.000000	34.000000
114.057190	114.147179	82.000000	26.000000
114.147179	114.237167	81.000000	34.000000
114.147179	114.327155	76.000000	34.000000
114.147179	114.327155	73.000000	29.000000
114.237167	114.327155	82.000000	26.000000
114.327155	114.507118	76.000000	39.000000
114.327155	114.417130	81.000000	29.000000
114.327155	114.687094	65.000000	40.000000
114.327155	114.507118	73.000000	34.000000
114.417130	114.507118	82.000000	26.000000
114.507118	114.687094	77.000000	35.000000
114.507118	114.597106	81.000000	29.000000
114.507118	114.687094	74.000000	29.000000
114.597106	114.687094	82.000000	26.000000
114.687094	114.867057	78.000000	40.000000
114.687094	114.777069	81.000000	29.000000
114.687094	115.047034	61.000000	36.000000
114.687094	114.867057	75.000000	39.000000
114.777069	114.867057	82.000000	26.000000
114.867057	114.957045	81.000000	29.000000
114.867057	115.047034	79.000000	35.000000
114.867057	115.047034	76.000000	33.000000
114.957045	115.047034	82.000000	26.000000
115.047034	115.146570	77.000000	31.000000
115.047034	115.146570	81.000000	31.000000
115.047034	115.425011	69.000000	40.000000
115.047034	115.425011	62.000000	33.000000
115.146570	115.246107	82.000000	26.000000
115.246107	115.335559	89.000000	50.000000
115.246107	115.335559	81.000000	32.000000
115.335559	115.425011	82.000000	26.000000
115.335559	115.425011	77.000000	26.000000
115.425011	115.514462	81.000000	33.000000
115.425011	115.514462	88.000000	50.000000
115.425011	115.782818	69.000000	40.000000
115.425011	115.782818	62.000000	33.000000
115.425011	115.782818	57.000000	33.000000
115.514462	115.603914	82.000000	26.000000
115.514462	115.603914	77.000000	26.000000
115.603914	115.693366	86.000000	48.000000
115.603914	115.693366	81.000000	33.000000
115.693366	115.782818	82.000000	27.000000
115.693366	115.782818	77.000000	27.000000
115.782818	115.872269	86.000000	50.000000
115.782818	115.872269	79.000000	34.000000
115.782818	116.156906	69.000000	40.000000
115.782818	116.156906	64.000000	33.000000
115.782818	116.156906	57.000000	33.000000
115.872269	115.961721	76.000000	28.000000
115.872269	115.961721	81.000000	28.000000
115.961721	116.059313	85.000000	48.000000
115.961721	116.059313	79.000000	33.000000
116.059313	116.156906	76.000000	26.000000
116.059313	116.156906	81.000000	26.000000
116.156906	116.245821	79.000000	33.000000
116.156906	116.245821	84.000000	50.000000
116.156906	116.513640	61.000000	33.000000
116.156906	116.871446	69.000000	40.000000
116.245821	116.334736	83.000000	48.000000
116.245821	116.334736	76.000000	25.000000
116.334736	116.424188	82.000000	50.000000
116.334736	116.424188	79.000000	32.000000
116.424188	116.513640	76.000000	26.000000
116.513640	116.603091	77.000000	33.000000
116.513640	116.603091	81.000000	50.000000
116.513640	116.871446	62.000000	33.000000
116.603091	116.692543	74.000000	25.000000
116.692543	116.781995	77.000000	25.000000
116.781995	116.871446	86.000000	25.000000
116.871446	117.054695	89.000000	51.000000
116.871446	116.963071	77.000000	42.000000
116.871446	117.237944	60.000000	41.000000
116.871446	117.237944	45.000000	34.000000
116.963071	117.054695	86.000000	40.000000
116.963071	117.054695	84.000000	33.000000
117.054695	117.146319	89.000000	43.000000
117.054695	117.146319	77.000000	35.000000
117.146319	117.237944	84.000000	33.000000
117.146319	117.237944	87.000000	40.000000
117.237944	117.421192	87.000000	54.000000
117.237944	117.329568	77.000000	44.000000
117.237944	117.421192	46.000000	27.000000
117.237944	117.421192	62.000000	33.000000
117.329568	117.421192	85.000000	39.000000
117.329568	117.421192	82.000000	32.000000
117.421192	117.512817	87.000000	43.000000
117.421192	117.512817	77.000000	35.000000
117.512817	117.604441	82.000000	33.000000
117.512817	117.604441	86.000000	40.000000
117.604441	117.787703	86.000000	51.000000
117.604441	117.696079	75.000000	51.000000
117.604441	117.986696	48.000000	32.000000
117.604441	117.986696	63.000000	39.000000
117.696079	117.787703	83.000000	37.000000
117.696079	117.787703	81.000000	31.000000
117.787703	117.879327	75.000000	35.000000
117.787703	117.879327	86.000000	43.000000
117.879327	117.986696	81.000000	39.000000
117.879327	117.986696	84.000000	39.000000
117.986696	118.172225	84.000000	51.000000
117.986696	118.079461	74.000000	42.000000
117.986696	118.172225	65.000000	28.000000
117.986696	118.172225	50.000000	23.000000
118.079461	118.172225	77.000000	31.000000
118.079461	118.172225	81.000000	37.000000
118.172225	118.264989	84.000000	43.000000
118.172225	118.264989	74.000000	35.000000
118.264989	118.372130	77.000000	39.000000
118.264989	118.372130	82.000000	39.000000
118.372130	118.466061	72.000000	39.000000
118.372130	118.559992	83.000000	47.000000
118.372130	118.759562	66.000000	35.000000
118.372130	118.759562	51.000000	29.000000
118.466061	118.559992	80.000000	37.000000
118.466061	118.559992	78.000000	37.000000
118.559992	118.653923	72.000000	33.000000
118.559992	118.653923	83.000000	40.000000
118.653923	118.759562	78.000000	36.000000
118.653923	118.759562	81.000000	36.000000
118.759562	118.948604	81.000000	46.000000
118.759562	118.854083	71.000000	39.000000
118.759562	118.948604	68.000000	28.000000
118.759562	118.948604	52.000000	24.000000
118.854083	118.948604	79.000000	36.000000
118.854083	118.948604	76.000000	31.000000
118.948604	119.043125	71.000000	33.000000
118.948604	119.043125	81.000000	40.000000
119.043125	119.151822	80.000000	35.000000
119.043125	119.151822	76.000000	29.000000
119.151822	119.247550	69.000000	39.000000
119.151822	119.343278	80.000000	46.000000
119.151822	119.543907	54.000000	25.000000
119.151822	119.343278	63.000000	31.000000
119.247550	119.343278	77.000000	35.000000
119.247550	119.343278	75.000000	29.000000
119.343278	119.439006	69.000000	33.000000
119.343278	119.439006	80.000000	40.000000
119.343278	119.543907	60.000000	26.000000
119.439006	119.543907	78.000000	35.000000
119.439006	119.543907	75.000000	29.000000
119.543907	119.738716	78.000000	43.000000
119.543907	119.641312	68.000000	36.000000
119.543907	119.938863	56.000000	27.000000
119.543907	119.641312	64.000000	33.000000
119.641312	119.738716	75.000000	33.000000
119.641312	119.738716	71.000000	27.000000
119.738716	119.836121	68.000000	33.000000
119.738716	119.836121	78.000000	40.000000
119.738716	119.836121	59.000000	28.000000
119.836121	119.938863	76.000000	34.000000
119.836121	119.938863	71.000000	28.000000
119.938863	120.133685	72.000000	32.000000
119.938863	120.036281	76.000000	37.000000
119.938863	120.337466	57.000000	33.000000
119.938863	120.036281	66.000000	33.000000
120.036281	120.133685	74.000000	32.000000
120.133685	120.231090	76.000000	37.000000
120.133685	120.337466	69.000000	32.000000
120.133685	120.231090	60.000000	27.000000
120.231090	120.337466	75.000000	32.000000
120.337466	120.532275	74.000000	29.000000
120.337466	120.434871	78.000000	35.000000
120.337466	120.727084	59.000000	27.000000
120.337466	120.434871	68.000000	33.000000
120.434871	120.532275	75.000000	31.000000
120.532275	120.727084	71.000000	31.000000
120.532275	120.629680	78.000000	36.000000
120.532275	120.629680	62.000000	27.000000
120.629680	120.727084	76.000000	28.000000
120.727084	120.824489	76.000000	34.000000
120.727084	120.824489	69.000000	28.000000
120.727084	120.824489	66.000000	33.000000
120.727084	120.824489	60.000000	27.000000
120.824489	120.921893	74.000000	29.000000
120.921893	121.019298	76.000000	35.000000
121.019298	121.124937	75.000000	29.000000
121.124937	121.224473	78.000000	36.000000
121.124937	121.224473	71.000000	31.000000
121.124937	121.224473	62.000000	27.000000
121.124937	121.224473	68.000000	33.000000
121.224473	121.324010	74.000000	32.000000
121.324010	121.423547	78.000000	35.000000
121.423547	121.523084	77.000000	32.000000
121.523084	121.617015	76.000000	37.000000
121.523084	121.617015	71.000000	48.000000
121.523084	121.617015	68.000000	42.000000
121.617015	121.710946	78.000000	34.000000
121.710946	121.804877	76.000000	37.000000
121.710946	121.804877	62.000000	36.000000
121.804877	121.898808	90.000000	44.000000
121.898808	121.990446	88.000000	44.000000
121.898808	121.990446	69.000000	46.000000
121.898808	121.990446	73.000000	52.000000
121.990446	122.082070	78.000000	37.000000
122.082070	122.173694	76.000000	37.000000
122.082070	122.173694	61.000000	35.000000
122.173694	122.265319	66.000000	34.000000
122.265319	122.352678	64.000000	37.000000
122.265319	122.352678	74.000000	52.000000
122.265319	122.352678	68.000000	46.000000
122.352678	122.440038	66.000000	33.000000
122.440038	122.527397	64.000000	37.000000
122.440038	122.527397	59.000000	36.000000
122.527397	122.614757	78.000000	36.000000
122.571077	122.992734	57.000000	43.000000
122.614757	122.714294	76.000000	31.000000
122.614757	122.714294	73.000000	48.000000
122.714294	122.813831	78.000000	26.000000
122.714294	122.903282	73.000000	26.000000
122.764062	122.813831	63.000000	41.000000
122.813831	122.903282	85.000000	50.000000
122.813831	122.903282	76.000000	32.000000
122.813831	122.903282	64.000000	54.000000
122.903282	122.992734	73.000000	26.000000
122.903282	122.992734	78.000000	26.000000
122.992734	123.082186	83.000000	50.000000
122.992734	123.082186	76.000000	33.000000
122.992734	123.082186	49.000000	42.000000
123.082186	123.171638	73.000000	26.000000
123.082186	123.171638	78.000000	26.000000
123.126912	123.171638	66.000000	36.000000
123.171638	123.261089	81.000000	48.000000
123.171638	123.261089	76.000000	33.000000
123.171638	123.261089	64.000000	51.000000
123.261089	123.350541	73.000000	27.000000
123.261089	123.350541	78.000000	27.000000
123.350541	123.440529	81.000000	50.000000
123.350541	123.440529	74.000000	34.000000
123.350541	123.440529	40.000000	43.000000
123.440529	123.530517	71.000000	28.000000
123.440529	123.530517	76.000000	28.000000
123.485523	123.530517	63.000000	29.000000
123.530517	123.628110	74.000000	33.000000
123.530517	123.628110	80.000000	47.000000
123.530517	123.628110	64.000000	47.000000
123.628110	123.725702	71.000000	26.000000
123.628110	123.725702	76.000000	26.000000
123.725702	123.814617	79.000000	50.000000
123.725702	123.814617	74.000000	33.000000
123.725702	123.814617	44.000000	42.000000
123.814617	123.903533	71.000000	25.000000
123.814617	123.903533	78.000000	46.000000
123.859075	123.903533	66.000000	35.000000
123.903533	123.992984	77.000000	50.000000
123.903533	123.992984	74.000000	32.000000
123.903533	123.992984	64.000000	47.000000
123.992984	124.082436	71.000000	26.000000
124.082436	124.171888	76.000000	50.000000
124.082436	124.171888	73.000000	33.000000
124.082436	124.171888	45.000000	44.000000
124.171888	124.261339	69.000000	25.000000
124.216614	124.261339	63.000000	29.000000
124.261339	124.350791	73.000000	25.000000
124.261339	124.350791	64.000000	48.000000
124.350791	124.440243	78.000000	25.000000
124.440243	124.531867	76.000000	37.000000
124.440243	124.531867	71.000000	48.000000
124.440243	124.531867	68.000000	42.000000
124.531867	124.623492	78.000000	34.000000
124.623492	124.715116	76.000000	37.000000
124.623492	124.715116	62.000000	36.000000
124.715116	124.806740	90.000000	44.000000
124.806740	124.896192	88.000000	44.000000
124.806740	124.896192	73.000000	52.000000
124.806740	124.896192	69.000000	46.000000
124.896192	124.985644	78.000000	37.000000
124.985644	125.075095	76.000000	34.000000
124.985644	125.075095	61.000000	35.000000
125.075095	125.164547	66.000000	37.000000
125.164547	125.251907	64.000000	34.000000
125.164547	125.251907	74.000000	52.000000
125.164547	125.251907	68.000000	46.000000
125.251907	125.339266	66.000000	37.000000
125.339266	125.426626	64.000000	34.000000
125.339266	125.426626	59.000000	36.000000
125.426626	125.513985	78.000000	37.000000
125.483408	125.905374	57.000000	42.000000
125.513985	125.613522	76.000000	31.000000
125.513985	125.613522	73.000000	48.000000
125.613522	125.713059	78.000000	26.000000
125.613522	125.802511	73.000000	26.000000
125.663291	125.713059	63.000000	41.000000
125.713059	125.802511	85.000000	50.000000
125.713059	125.802511	76.000000	32.000000
125.713059	125.802511	64.000000	54.000000
125.802511	125.891963	78.000000	26.000000
125.802511	125.891963	73.000000	26.000000
125.891963	125.981401	76.000000	33.000000
125.891963	125.981401	83.000000	50.000000
125.891963	125.981401	49.000000	42.000000
125.981401	126.070853	78.000000	26.000000
125.981401	126.070853	73.000000	26.000000
126.026127	126.070853	66.000000	36.000000
126.070853	126.160304	76.000000	33.000000
126.070853	126.160304	81.000000	47.000000
126.070853	126.160304	64.000000	51.000000
126.160304	126.249756	78.000000	27.000000
126.160304	126.249756	73.000000	27.000000
126.249756	126.339744	81.000000	50.000000
126.249756	126.339744	74.000000	34.000000
126.249756	126.339744	40.000000	43.000000
126.339744	126.429732	71.000000	28.000000
126.339744	126.429732	76.000000	28.000000
126.384738	126.429732	63.000000	29.000000
126.429732	126.527325	74.000000	33.000000
126.429732	126.527325	80.000000	47.000000
126.429732	126.527325	64.000000	47.000000
126.527325	126.624917	76.000000	26.000000
126.527325	126.624917	71.000000	26.000000
126.624917	126.713832	74.000000	33.000000
126.624917	126.713832	79.000000	50.000000
126.624917	126.713832	44.000000	42.000000
126.713832	126.802748	78.000000	43.000000
126.713832	126.802748	71.000000	25.000000
126.758290	126.802748	66.000000	35.000000
126.802748	126.892199	77.000000	50.000000
126.802748	126.892199	74.000000	32.000000
126.802748	126.892199	64.000000	47.000000
126.892199	126.981651	71.000000	26.000000
126.981651	127.071103	76.000000	50.000000
126.981651	127.071103	73.000000	33.000000
126.981651	127.071103	45.000000	44.000000
127.071103	127.160554	69.000000	25.000000
127.115829	127.160554	63.000000	29.000000
127.160554	127.250006	73.000000	25.000000
127.160554	127.250006	64.000000	48.000000
127.250006	127.339458	80.000000	28.000000
127.339458	127.432799	81.000000	37.000000
127.339458	127.432799	73.000000	42.000000
127.339458	127.432799	76.000000	48.000000
127.432799	127.526140	82.000000	34.000000
127.526140	127.619481	81.000000	37.000000
127.526140	127.619481	67.000000	36.000000
127.619481	127.712822	94.000000	43.000000
127.712822	127.803360	93.000000	43.000000
127.712822	127.803360	77.000000	52.000000
127.712822	127.803360	74.000000	46.000000
127.803360	127.893884	82.000000	37.000000
127.893884	127.984409	81.000000	35.000000
127.893884	127.984409	65.000000	35.000000
127.984409	128.074934	70.000000	37.000000
128.074934	128.165472	69.000000	34.000000
128.074934	128.165472	73.000000	46.000000
128.074934	128.165472	79.000000	52.000000
128.165472	128.255996	70.000000	37.000000
128.255996	128.346521	69.000000	35.000000
128.255996	128.346521	64.000000	36.000000
128.346521	128.437045	82.000000	37.000000
128.437045	128.533578	81.000000	31.000000
128.437045	128.814164	62.000000	48.000000
128.437045	128.533578	77.000000	48.000000
128.533578	128.723640	77.000000	26.000000
128.533578	128.633115	82.000000	26.000000
128.583347	128.633115	68.000000	41.000000
128.633115	128.723640	81.000000	32.000000
128.633115	128.723640	89.000000	50.000000
128.633115	128.723640	69.000000	54.000000
128.723640	128.814164	82.000000	26.000000
128.723640	128.814164	77.000000	26.000000
128.814164	128.904689	81.000000	33.000000
128.814164	128.904689	88.000000	50.000000
128.814164	128.904689	53.000000	42.000000
128.904689	128.993068	82.000000	26.000000
128.904689	128.993068	77.000000	26.000000
128.948878	128.993068	70.000000	36.000000
128.993068	129.081460	86.000000	48.000000
128.993068	129.081460	81.000000	33.000000
128.993068	129.081460	69.000000	51.000000
129.081460	129.169852	77.000000	27.000000
129.081460	129.169852	82.000000	27.000000
129.169852	129.259304	86.000000	50.000000
129.169852	129.259304	79.000000	34.000000
129.169852	129.259304	45.000000	43.000000
129.259304	129.349292	81.000000	28.000000
129.259304	129.349292	76.000000	28.000000
129.304298	129.349292	68.000000	29.000000
129.349292	129.444350	85.000000	48.000000
129.349292	129.444350	79.000000	33.000000
129.349292	129.444350	69.000000	47.000000
129.444350	129.541942	81.000000	26.000000
129.444350	129.541942	76.000000	26.000000
129.541942	129.633754	79.000000	33.000000
129.541942	129.633754	84.000000	50.000000
129.541942	129.633754	49.000000	42.000000
129.633754	129.722669	83.000000	47.000000
129.633754	129.722669	76.000000	25.000000
129.678212	129.722669	70.000000	35.000000
129.722669	129.811933	82.000000	50.000000
129.722669	129.811933	79.000000	32.000000
129.722669	129.811933	69.000000	47.000000
129.811933	129.901385	76.000000	26.000000
129.901385	129.990837	77.000000	33.000000
129.901385	129.990837	81.000000	50.000000
129.901385	129.990837	50.000000	44.000000
129.990837	130.080288	74.000000	25.000000
130.035563	130.080288	68.000000	29.000000
130.080288	130.169740	77.000000	25.000000
130.080288	130.169740	69.000000	48.000000
130.169740	130.259192	82.000000	25.000000
130.259192	130.353123	81.000000	37.000000
130.259192	130.353123	76.000000	48.000000
130.259192	130.353123	73.000000	42.000000
130.353123	130.447054	82.000000	33.000000
130.447054	130.540985	81.000000	37.000000
130.447054	130.540985	67.000000	36.000000
130.540985	130.634916	94.000000	43.000000
130.634916	130.725990	93.000000	43.000000
130.634916	130.725990	74.000000	46.000000
130.634916	130.725990	77.000000	52.000000
130.725990	130.817065	82.000000	37.000000
130.817065	130.908139	81.000000	35.000000
130.817065	130.908139	65.000000	35.000000
130.908139	130.999214	70.000000	37.000000
130.999214	131.087606	69.000000	35.000000
130.999214	131.087606	73.000000	46.000000
130.999214	131.087606	79.000000	52.000000
131.087606	131.175998	70.000000	37.000000
131.175998	131.264391	69.000000	34.000000
131.175998	131.264391	64.000000	36.000000
131.264391	131.352783	82.000000	37.000000
131.352783	131.448605	81.000000	31.000000
131.352783	131.730398	62.000000	48.000000
131.352783	131.448605	77.000000	48.000000
131.448605	131.640946	77.000000	26.000000
131.448605	131.548142	82.000000	26.000000
131.498373	131.548142	68.000000	41.000000
131.548142	131.640946	89.000000	50.000000
131.548142	131.640946	81.000000	32.000000
131.548142	131.640946	69.000000	54.000000
131.640946	131.730398	77.000000	26.000000
131.640946	131.730398	82.000000	26.000000
131.730398	131.819850	81.000000	33.000000
131.730398	131.819850	88.000000	50.000000
131.730398	131.819850	53.000000	42.000000
131.819850	131.909301	77.000000	26.000000
131.819850	131.909301	82.000000	26.000000
131.864575	131.909301	70.000000	36.000000
131.909301	131.998753	81.000000	33.000000
131.909301	131.998753	86.000000	48.000000
131.909301	131.998753	69.000000	51.000000
131.998753	132.088205	82.000000	27.000000
131.998753	132.088205	77.000000	27.000000
132.088205	132.178005	86.000000	50.000000
132.088205	132.178005	79.000000	34.000000
132.088205	132.178005	45.000000	43.000000
132.178005	132.267993	81.000000	28.000000
132.178005	132.267993	76.000000	28.000000
132.222999	132.267993	68.000000	29.000000
132.267993	132.363051	79.000000	33.000000
132.267993	132.363051	85.000000	48.000000
132.267993	132.363051	69.000000	47.000000
132.363051	132.460643	76.000000	26.000000
132.363051	132.460643	81.000000	26.000000
132.460643	132.552455	84.000000	50.000000
132.460643	132.552455	79.000000	33.000000
132.460643	132.552455	49.000000	42.000000
132.552455	132.641371	83.000000	47.000000
132.552455	132.641371	76.000000	25.000000
132.596913	132.641371	70.000000	35.000000
132.641371	132.730634	79.000000	32.000000
132.641371	132.730634	82.000000	50.000000
132.641371	132.730634	69.000000	47.000000
132.730634	132.820086	76.000000	26.000000
132.820086	132.909538	81.000000	50.000000
132.820086	132.909538	77.000000	33.000000
132.820086	132.909538	50.000000	44.000000
132.909538	132.998990	74.000000	25.000000
132.998990	133.099184	77.000000	25.000000
133.099184	133.212225	86.000000	28.000000
133.212225	133.504439	89.000000	60.000000
133.212225	133.309630	77.000000	50.000000
133.212225	133.601843	29.000000	50.000000
133.212225	133.309630	41.000000	50.000000
133.309630	133.407034	84.000000	50.000000
133.309630	133.407034	81.000000	50.000000
133.309630	133.407034	42.000000	42.000000
133.407034	133.504439	75.000000	47.000000
133.407034	133.504439	41.000000	42.000000
133.504439	133.601843	87.000000	56.000000
133.504439	133.601843	42.000000	42.000000
133.601843	133.894043	85.000000	64.000000
133.601843	133.699234	73.000000	52.000000
133.601843	133.991448	41.000000	50.000000
133.601843	133.699234	53.000000	50.000000
133.699234	133.796639	82.000000	46.000000
133.699234	133.796639	77.000000	46.000000
133.699234	133.796639	54.000000	43.000000
133.796639	133.894043	74.000000	51.000000
133.796639	133.894043	53.000000	43.000000
133.894043	133.991448	86.000000	55.000000
133.894043	133.991448	54.000000	43.000000
133.991448	134.283635	80.000000	60.000000
133.991448	134.088839	68.000000	60.000000
133.991448	134.088839	65.000000	50.000000
133.991448	134.397266	53.000000	50.000000
134.088839	134.186243	75.000000	44.000000
134.088839	134.186243	72.000000	35.000000
134.088839	134.186243	66.000000	43.000000
134.186243	134.283635	69.000000	48.000000
134.186243	134.283635	65.000000	40.000000
134.283635	134.397266	81.000000	56.000000
134.283635	134.397266	66.000000	40.000000
134.397266	134.496159	72.000000	50.000000
134.397266	134.693919	84.000000	60.000000
134.397266	134.496159	65.000000	50.000000
134.496159	134.595039	77.000000	50.000000
134.496159	134.595039	74.000000	50.000000
134.496159	134.595039	67.000000	41.000000
134.595039	134.693919	70.000000	47.000000
134.595039	134.693919	65.000000	41.000000
134.693919	134.801060	82.000000	47.000000
134.801060	134.898464	77.000000	50.000000
134.801060	135.093273	89.000000	60.000000
134.801060	135.190678	29.000000	50.000000
134.801060	134.898464	41.000000	50.000000
134.898464	134.995869	84.000000	50.000000
134.898464	134.995869	81.000000	50.000000
134.898464	134.995869	42.000000	42.000000
134.995869	135.093273	75.000000	47.000000
134.995869	135.093273	41.000000	42.000000
135.093273	135.190678	87.000000	56.000000
135.093273	135.190678	42.000000	42.000000
135.190678	135.288069	73.000000	52.000000
135.190678	135.482878	85.000000	64.000000
135.190678	135.580282	41.000000	50.000000
135.190678	135.288069	53.000000	50.000000
135.288069	135.385473	82.000000	46.000000
135.288069	135.385473	77.000000	46.000000
135.288069	135.385473	54.000000	43.000000
135.385473	135.482878	74.000000	51.000000
135.385473	135.482878	53.000000	43.000000
135.482878	135.580282	86.000000	55.000000
135.482878	135.580282	54.000000	43.000000
135.580282	135.872469	80.000000	60.000000
135.580282	135.677673	68.000000	60.000000
135.580282	135.986101	53.000000	50.000000
135.580282	135.677673	65.000000	50.000000
135.677673	135.775078	75.000000	44.000000
135.677673	135.775078	72.000000	35.000000
135.677673	135.775078	66.000000	43.000000
135.775078	135.872469	69.000000	48.000000
135.775078	135.872469	65.000000	40.000000
135.872469	135.986101	81.000000	56.000000
135.872469	135.986101	66.000000	40.000000
135.986101	136.282753	84.000000	60.000000
135.986101	136.084994	72.000000	50.000000
135.986101	136.084994	65.000000	50.000000
136.084994	136.183874	74.000000	50.000000
136.084994	136.183874	77.000000	50.000000
136.084994	136.183874	67.000000	41.000000
136.183874	136.282753	70.000000	47.000000
136.183874	136.282753	65.000000	41.000000
136.282753	136.389894	82.000000	47.000000
136.389894	136.484415	82.000000	57.000000
136.389894	136.673457	94.000000	70.000000
136.389894	136.767979	34.000000	57.000000
136.389894	136.484415	46.000000	57.000000
136.484415	136.578936	89.000000	57.000000
136.484415	136.578936	86.000000	57.000000
136.484415	136.578936	47.000000	48.000000
136.578936	136.673457	80.000000	54.000000
136.578936	136.673457	46.000000	48.000000
136.673457	136.767979	92.000000	64.000000
136.673457	136.767979	47.000000	48.000000
136.767979	136.862500	77.000000	59.000000
136.767979	137.051542	89.000000	72.000000
136.767979	137.146063	46.000000	57.000000
136.767979	136.862500	58.000000	57.000000
136.862500	136.957021	87.000000	52.000000
136.862500	136.957021	82.000000	52.000000
136.862500	136.957021	59.000000	50.000000
136.957021	137.051542	79.000000	58.000000
136.957021	137.051542	58.000000	50.000000
137.051542	137.146063	90.000000	63.000000
137.051542	137.146063	59.000000	50.000000
137.146063	137.240571	73.000000	70.000000
137.146063	137.429613	85.000000	70.000000
137.146063	137.543245	58.000000	57.000000
137.146063	137.240571	70.000000	57.000000
137.240571	137.335092	77.000000	41.000000
137.240571	137.335092	80.000000	51.000000
137.240571	137.335092	71.000000	50.000000
137.335092	137.429613	74.000000	55.000000
137.335092	137.429613	70.000000	44.000000
137.429613	137.543245	86.000000	64.000000
137.429613	137.543245	71.000000	44.000000
137.543245	137.834117	89.000000	70.000000
137.543245	137.640193	77.000000	57.000000
137.543245	137.640193	70.000000	57.000000
137.640193	137.737155	78.000000	57.000000
137.640193	137.737155	82.000000	57.000000
137.737155	137.834117	75.000000	54.000000
137.834117	137.941258	87.000000	54.000000
137.941258	138.224821	94.000000	77.000000
137.941258	138.035779	82.000000	63.000000
137.941258	138.319342	34.000000	63.000000
137.941258	138.035779	46.000000	63.000000
138.035779	138.130300	86.000000	63.000000
138.035779	138.130300	89.000000	63.000000
138.035779	138.130300	47.000000	52.000000
138.130300	138.224821	80.000000	58.000000
138.130300	138.224821	46.000000	52.000000
138.224821	138.319342	92.000000	70.000000
138.224821	138.319342	47.000000	52.000000
138.319342	138.602906	89.000000	79.000000
138.319342	138.413864	77.000000	65.000000
138.319342	138.413864	58.000000	63.000000
138.319342	138.697427	46.000000	63.000000
138.413864	138.508385	87.000000	57.000000
138.413864	138.508385	82.000000	57.000000
138.413864	138.508385	59.000000	55.000000
138.508385	138.602906	78.000000	64.000000
138.508385	138.602906	58.000000	55.000000
138.602906	138.697427	90.000000	69.000000
138.602906	138.697427	59.000000	55.000000
138.697427	138.980977	85.000000	77.000000
138.697427	138.791935	73.000000	77.000000
138.697427	138.791935	70.000000	63.000000
138.697427	139.094609	58.000000	63.000000
138.791935	138.886456	80.000000	56.000000
138.791935	138.886456	77.000000	44.000000
138.791935	138.886456	71.000000	55.000000
138.886456	138.980977	74.000000	59.000000
138.886456	138.980977	70.000000	48.000000
138.980977	139.094609	86.000000	70.000000
138.980977	139.094609	71.000000	48.000000
139.094609	139.191557	77.000000	63.000000
139.094609	139.385481	89.000000	77.000000
139.094609	139.191557	70.000000	63.000000
139.191557	139.288519	82.000000	63.000000
139.191557	139.288519	78.000000	63.000000
139.288519	139.385481	75.000000	58.000000
139.385481	139.492622	87.000000	58.000000
139.492622	139.586540	85.000000	67.000000
139.492622	139.774402	97.000000	82.000000
139.492622	139.586540	46.000000	67.000000
139.492622	139.586540	34.000000	56.000000
139.586540	139.680471	90.000000	67.000000
139.680471	139.774402	85.000000	63.000000
139.680471	139.774402	42.000000	50.000000
139.680471	139.774402	54.000000	59.000000
139.774402	139.868333	97.000000	75.000000
139.868333	140.150126	100.000000	83.000000
139.868333	139.962264	88.000000	72.000000
139.868333	139.962264	35.000000	58.000000
139.868333	139.962264	47.000000	70.000000
139.962264	140.056195	90.000000	62.000000
140.056195	140.150126	87.000000	70.000000
140.056195	140.150126	54.000000	60.000000
140.056195	140.150126	42.000000	50.000000
140.150126	140.244057	99.000000	74.000000
140.244057	140.337988	81.000000	82.000000
140.244057	140.525850	93.000000	82.000000
140.244057	140.337988	49.000000	69.000000
140.244057	140.337988	37.000000	58.000000
140.337988	140.431919	90.000000	60.000000
140.337988	140.431919	88.000000	48.000000
140.431919	140.525850	82.000000	65.000000
140.431919	140.525850	42.000000	54.000000
140.431919	140.525850	54.000000	63.000000
140.525850	140.639482	94.000000	75.000000
140.639482	140.931829	97.000000	82.000000
140.639482	140.736430	85.000000	67.000000
140.639482	140.736430	39.000000	58.000000
140.639482	140.736430	51.000000	69.000000
140.736430	140.833392	90.000000	67.000000
140.736430	140.833392	87.000000	67.000000
140.833392	140.931829	83.000000	63.000000
140.833392	140.931829	42.000000	55.000000
140.833392	140.931829	54.000000	65.000000
140.931829	141.032479	95.000000	63.000000
141.032479	141.132485	91.000000	50.000000
141.032479	141.132485	96.000000	59.000000
141.032479	141.132485	52.000000	69.000000
141.032479	141.132485	40.000000	58.000000
141.132485	141.231969	85.000000	42.000000
141.132485	141.231969	94.000000	50.000000
141.231969	141.330795	96.000000	50.000000
141.231969	141.330795	91.000000	42.000000
141.231969	141.330795	55.000000	66.000000
141.231969	141.330795	46.000000	56.000000
141.330795	141.429138	85.000000	42.000000
141.330795	141.429138	94.000000	50.000000
141.429138	141.526837	93.000000	56.000000
141.429138	141.526837	88.000000	47.000000
141.429138	141.526837	58.000000	67.000000
141.429138	141.526837	49.000000	57.000000
141.526837	141.624068	82.000000	40.000000
141.526837	141.624068	91.000000	47.000000
141.624068	141.720842	93.000000	47.000000
141.624068	141.720842	88.000000	39.000000
141.624068	141.720842	61.000000	70.000000
141.624068	141.720842	52.000000	58.000000
141.720842	141.817281	82.000000	39.000000
141.720842	141.817281	91.000000	47.000000
141.817281	141.913411	90.000000	56.000000
141.817281	141.913411	85.000000	48.000000
141.817281	141.913411	64.000000	71.000000
141.817281	141.913411	55.000000	59.000000
141.913411	142.008951	79.000000	39.000000
141.913411	142.008951	88.000000	47.000000
142.008951	142.104170	90.000000	46.000000
142.008951	142.104170	85.000000	39.000000
142.008951	142.104170	67.000000	72.000000
142.008951	142.104170	58.000000	60.000000
142.104170	142.199107	88.000000	46.000000
142.104170	142.199107	79.000000	39.000000
142.199107	142.294044	87.000000	51.000000
142.199107	142.294044	79.000000	43.000000
142.199107	142.294044	61.000000	63.000000
142.199107	142.294044	70.000000	74.000000
142.294044	142.388980	76.000000	34.000000
142.294044	142.388980	85.000000	40.000000
142.388980	142.483475	79.000000	34.000000
142.388980	142.483475	87.000000	40.000000
142.388980	142.483475	64.000000	59.000000
142.388980	142.483475	73.000000	71.000000
142.483475	142.578760	76.000000	33.000000
142.483475	142.578760	85.000000	40.000000
142.578760	142.675266	79.000000	42.000000
142.578760	142.675266	84.000000	50.000000
142.578760	142.675266	76.000000	75.000000
142.675266	142.773033	73.000000	33.000000
142.675266	142.773033	81.000000	39.000000
142.773033	142.872087	79.000000	33.000000
142.773033	142.872087	84.000000	39.000000
142.773033	142.872087	64.000000	71.000000
142.872087	142.972469	73.000000	33.000000
142.872087	142.972469	82.000000	39.000000
142.972469	143.074017	81.000000	46.000000
142.972469	143.074017	76.000000	39.000000
142.972469	143.074017	73.000000	66.000000
143.074017	143.176437	70.000000	32.000000
143.074017	143.176437	78.000000	37.000000
143.176437	143.279930	76.000000	32.000000
143.176437	143.279930	81.000000	37.000000
143.176437	143.279930	61.000000	62.000000
143.279930	143.385153	70.000000	31.000000
143.279930	143.385153	79.000000	36.000000
143.385153	143.493877	77.000000	46.000000
143.385153	143.493877	73.000000	37.000000
143.385153	143.493877	70.000000	57.000000
143.493877	143.606704	67.000000	28.000000
143.493877	143.606704	75.000000	34.000000
143.606704	143.733948	77.000000	34.000000
143.606704	143.733948	73.000000	28.000000
143.606704	143.733948	58.000000	51.000000
143.733948	143.862158	76.000000	35.000000
143.733948	143.862158	67.000000	29.000000
143.862158	143.967528	70.000000	36.000000
143.862158	144.178270	79.000000	47.000000
143.862158	143.967528	74.000000	36.000000
143.862158	144.072899	62.000000	33.000000
143.967528	144.072899	65.000000	33.000000
144.072899	144.178270	70.000000	40.000000
144.178270	144.283640	77.000000	37.000000
144.283640	144.599739	74.000000	47.000000
144.283640	144.388998	68.000000	36.000000
144.283640	145.137160	53.000000	20.000000
144.283640	144.715691	59.000000	25.000000
144.388998	144.494368	65.000000	36.000000
144.494368	144.599739	68.000000	36.000000
144.599739	144.715691	75.000000	37.000000
144.715691	144.821062	64.000000	36.000000
144.715691	145.031789	74.000000	47.000000
144.715691	144.821062	70.000000	36.000000
144.715691	145.137160	60.000000	25.000000
144.821062	144.926419	67.000000	36.000000
144.926419	145.031789	64.000000	36.000000
145.031789	145.137160	72.000000	37.000000
145.137160	145.242531	63.000000	36.000000
145.137160	145.453272	67.000000	47.000000
145.137160	145.242531	40.000000	37.000000
145.242531	145.347901	60.000000	36.000000
145.242531	145.347901	41.000000	33.000000
145.347901	145.453272	63.000000	36.000000
145.347901	145.453272	40.000000	39.000000
145.453272	145.558643	69.000000	37.000000
145.453272	145.664013	41.000000	33.000000
145.558643	145.664013	70.000000	36.000000
145.558643	145.874755	79.000000	47.000000
145.558643	145.664013	74.000000	36.000000
145.558643	145.664013	53.000000	33.000000
145.664013	145.769384	65.000000	33.000000
145.769384	145.874755	70.000000	40.000000
145.874755	145.980125	77.000000	37.000000
145.980125	146.085483	68.000000	36.000000
145.980125	146.296224	74.000000	47.000000
145.980125	146.412176	59.000000	25.000000
145.980125	146.833645	53.000000	20.000000
146.085483	146.190853	65.000000	36.000000
146.190853	146.296224	68.000000	36.000000
146.296224	146.412176	75.000000	37.000000
146.412176	146.728274	74.000000	47.000000
146.412176	146.517546	70.000000	36.000000
146.412176	146.517546	64.000000	36.000000
146.412176	146.833645	60.000000	25.000000
146.517546	146.622904	67.000000	36.000000
146.622904	146.728274	64.000000	36.000000
146.728274	146.833645	72.000000	37.000000
146.833645	146.939016	63.000000	36.000000
146.833645	147.149757	67.000000	47.000000
146.833645	146.939016	40.000000	37.000000
146.939016	147.044386	60.000000	36.000000
146.939016	147.044386	41.000000	33.000000
147.044386	147.149757	63.000000	36.000000
147.044386	147.149757	40.000000	39.000000
147.149757	147.255128	69.000000	37.000000
147.149757	147.360498	41.000000	33.000000
147.255128	147.360498	62.000000	36.000000
147.255128	147.571240	72.000000	47.000000
147.255128	147.360498	53.000000	33.000000
147.360498	147.465869	65.000000	33.000000
147.465869	147.571240	62.000000	40.000000
147.571240	147.676610	70.000000	37.000000
147.676610	147.781981	56.000000	36.000000
147.676610	147.992722	67.000000	47.000000
147.676610	148.530143	41.000000	20.000000
147.676610	148.108674	47.000000	25.000000
147.681881	148.113945	50.000000	25.000000
147.781981	147.887352	62.000000	36.000000
147.887352	147.992722	56.000000	36.000000
147.992722	148.108674	62.000000	32.000000
147.992722	148.108674	65.000000	37.000000
148.108674	148.424773	65.000000	47.000000
148.108674	148.214045	55.000000	36.000000
148.108674	148.530143	48.000000	25.000000
148.113945	148.530143	51.000000	25.000000
148.214045	148.319402	60.000000	36.000000
148.319402	148.424773	55.000000	36.000000
148.424773	148.530143	63.000000	37.000000
148.424773	148.530143	60.000000	32.000000
148.530143	148.635514	51.000000	36.000000
148.530143	148.846255	60.000000	47.000000
148.530143	148.635514	42.000000	37.000000
148.635514	148.740885	57.000000	36.000000
148.635514	148.740885	41.000000	33.000000
148.740885	148.846255	51.000000	36.000000
148.740885	148.846255	42.000000	39.000000
148.846255	148.961644	62.000000	37.000000
148.846255	148.961644	57.000000	36.000000
148.846255	148.961644	41.000000	33.000000
148.961644	149.192408	58.000000	43.000000
148.961644	149.192408	34.000000	43.000000
148.961644	149.192408	50.000000	34.000000
149.192408	149.286929	65.000000	37.000000
149.192408	149.286929	62.000000	37.000000
149.192408	149.286929	74.000000	44.000000
149.192408	149.286929	58.000000	29.000000
149.192408	149.286929	50.000000	23.000000
149.192408	149.286929	53.000000	23.000000
149.381450	149.475784	62.000000	34.000000
149.381450	149.475784	72.000000	41.000000
149.381450	149.475784	65.000000	34.000000
149.381450	149.475784	58.000000	25.000000
149.381450	149.475784	53.000000	19.000000
149.381450	149.475784	50.000000	19.000000
149.570117	149.664450	62.000000	34.000000
149.570117	149.664450	65.000000	34.000000
149.570117	149.664450	71.000000	41.000000
149.570117	149.664450	53.000000	19.000000
149.570117	149.664450	50.000000	19.000000
149.570117	149.664450	58.000000	25.000000
149.758784	149.853117	65.000000	37.000000
149.758784	149.853117	62.000000	37.000000
149.758784	149.853117	70.000000	44.000000
149.758784	149.853117	50.000000	23.000000
149.758784	149.853117	58.000000	28.000000
149.758784	149.853117	53.000000	23.000000
149.947450	150.048328	62.000000	34.000000
149.947450	150.048328	74.000000	41.000000
149.947450	150.048328	65.000000	34.000000
149.947450	150.048328	50.000000	19.000000
149.947450	150.048328	53.000000	19.000000
149.947450	150.048328	58.000000	25.000000
150.149206	150.243137	72.000000	44.000000
150.149206	150.337068	65.000000	37.000000
150.149206	150.337068	62.000000	37.000000
150.149206	150.243137	53.000000	19.000000
150.149206	150.243137	50.000000	19.000000
150.149206	150.243137	58.000000	25.000000
150.243137	150.337068	71.000000	40.000000
150.337068	150.524917	70.000000	40.000000
150.524917	150.747138	32.000000	49.000000
150.747138	150.841659	77.000000	44.000000
150.747138	150.841659	65.000000	37.000000
150.747138	150.841659	70.000000	37.000000
150.747138	150.841659	53.000000	23.000000
150.747138	150.841659	58.000000	23.000000
150.747138	150.841659	62.000000	29.000000
150.936180	151.030514	65.000000	34.000000
150.936180	151.030514	76.000000	41.000000
150.936180	151.030514	70.000000	34.000000
150.936180	151.030514	53.000000	19.000000
150.936180	151.030514	58.000000	19.000000
150.936180	151.030514	62.000000	25.000000
151.124847	151.219180	75.000000	41.000000
151.124847	151.219180	65.000000	34.000000
151.124847	151.219180	70.000000	34.000000
151.124847	151.219180	58.000000	19.000000
151.124847	151.219180	62.000000	25.000000
151.124847	151.219180	53.000000	19.000000
151.313514	151.407847	70.000000	37.000000
151.313514	151.407847	65.000000	37.000000
151.313514	151.407847	74.000000	44.000000
151.313514	151.407847	53.000000	23.000000
151.313514	151.407847	62.000000	28.000000
151.313514	151.407847	58.000000	23.000000
151.502180	151.603058	77.000000	41.000000
151.502180	151.603058	65.000000	34.000000
151.502180	151.603058	70.000000	34.000000
151.502180	151.603058	53.000000	19.000000
151.502180	151.603058	62.000000	25.000000
151.502180	151.603058	58.000000	19.000000
151.703936	151.891798	65.000000	37.000000
151.703936	151.891798	70.000000	37.000000
151.703936	151.797867	76.000000	44.000000
151.703936	151.797867	53.000000	19.000000
151.703936	151.797867	58.000000	19.000000
151.703936	151.797867	62.000000	25.000000
151.797867	151.891798	75.000000	40.000000
151.891798	152.085065	74.000000	40.000000
152.085065	152.307286	30.000000	50.000000
152.307286	152.401807	82.000000	44.000000
152.307286	152.401807	73.000000	37.000000
152.307286	152.401807	70.000000	37.000000
152.307286	152.401807	64.000000	29.000000
152.307286	152.401807	61.000000	23.000000
152.307286	152.401807	54.000000	23.000000
152.496328	152.590662	73.000000	34.000000
152.496328	152.590662	70.000000	34.000000
152.496328	152.590662	80.000000	41.000000
152.496328	152.590662	61.000000	19.000000
152.496328	152.590662	64.000000	25.000000
152.496328	152.590662	54.000000	19.000000
152.684995	152.779328	70.000000	34.000000
152.684995	152.779328	79.000000	41.000000
152.684995	152.779328	73.000000	34.000000
152.684995	152.779328	64.000000	25.000000
152.684995	152.779328	61.000000	19.000000
152.684995	152.779328	54.000000	19.000000
152.873662	152.967995	70.000000	37.000000
152.873662	152.967995	73.000000	37.000000
152.873662	152.967995	78.000000	44.000000
152.873662	152.967995	64.000000	28.000000
152.873662	152.967995	61.000000	23.000000
152.873662	152.967995	54.000000	23.000000
153.062328	153.163206	82.000000	41.000000
153.062328	153.163206	73.000000	34.000000
153.062328	153.163206	70.000000	34.000000
153.062328	153.163206	54.000000	19.000000
153.062328	153.163206	64.000000	25.000000
153.062328	153.163206	61.000000	19.000000
153.264084	153.451946	70.000000	37.000000
153.264084	153.358015	80.000000	44.000000
153.264084	153.451946	73.000000	37.000000
153.264084	153.358015	64.000000	25.000000
153.264084	153.358015	61.000000	19.000000
153.264084	153.358015	54.000000	19.000000
153.358015	153.451946	79.000000	40.000000
153.451946	153.651503	78.000000	40.000000
153.651503	153.873724	29.000000	47.000000
153.873724	153.976681	72.000000	37.000000
153.873724	153.976681	78.000000	44.000000
153.873724	153.976681	69.000000	37.000000
153.873724	153.976681	57.000000	23.000000
153.873724	153.976681	66.000000	29.000000
153.873724	153.976681	63.000000	23.000000
154.079637	154.177873	72.000000	34.000000
154.079637	154.177873	77.000000	41.000000
154.079637	154.177873	69.000000	34.000000
154.079637	154.177873	63.000000	19.000000
154.079637	154.177873	65.000000	25.000000
154.079637	154.177873	57.000000	19.000000
154.276109	154.374345	72.000000	34.000000
154.276109	154.374345	69.000000	34.000000
154.276109	154.374345	76.000000	41.000000
154.276109	154.374345	57.000000	19.000000
154.276109	154.374345	63.000000	19.000000
154.276109	154.374345	65.000000	25.000000
154.472581	154.576249	72.000000	37.000000
154.472581	154.576249	69.000000	37.000000
154.472581	154.576249	75.000000	44.000000
154.472581	154.576249	65.000000	28.000000
154.472581	154.576249	63.000000	23.000000
154.472581	154.576249	57.000000	23.000000
154.679916	154.797384	69.000000	34.000000
154.679916	154.797384	72.000000	41.000000
154.679916	154.797384	60.000000	23.000000
154.679916	154.797384	63.000000	19.000000
154.679916	154.797384	65.000000	25.000000
154.914851	155.015729	79.000000	44.000000
154.914851	155.116607	72.000000	37.000000
154.914851	155.116607	69.000000	37.000000
154.914851	155.015729	63.000000	19.000000
154.914851	155.015729	65.000000	25.000000
155.015729	155.116607	78.000000	40.000000
155.116607	155.318349	77.000000	40.000000
155.318349	155.549113	34.000000	52.000000
155.549113	155.639638	74.000000	44.000000
155.549113	155.639638	62.000000	37.000000
155.549113	155.639638	58.000000	23.000000
155.549113	155.639638	65.000000	29.000000
155.639638	155.730163	66.000000	35.000000
155.730163	155.821237	72.000000	41.000000
155.730163	155.821237	62.000000	34.000000
155.730163	155.821237	65.000000	25.000000
155.730163	155.821237	53.000000	19.000000
155.821237	155.912312	67.000000	32.000000
155.912312	156.006229	62.000000	34.000000
155.912312	156.006229	71.000000	41.000000
155.912312	156.006229	58.000000	19.000000
155.912312	156.006229	65.000000	25.000000
156.006229	156.100160	66.000000	33.000000
156.100160	156.194078	62.000000	37.000000
156.100160	156.194078	70.000000	44.000000
156.100160	156.194078	65.000000	28.000000
156.100160	156.194078	53.000000	23.000000
156.194078	156.287995	67.000000	35.000000
156.287995	156.390952	62.000000	34.000000
156.287995	156.390952	74.000000	41.000000
156.287995	156.390952	58.000000	19.000000
156.287995	156.390952	65.000000	25.000000
156.390952	156.493909	66.000000	33.000000
156.493909	156.587840	72.000000	44.000000
156.493909	156.681771	62.000000	37.000000
156.493909	156.681771	65.000000	25.000000
156.493909	156.681771	53.000000	23.000000
156.587840	156.681771	71.000000	40.000000
156.681771	156.869619	70.000000	40.000000
156.869619	157.100383	32.000000	52.000000
157.100383	157.190908	77.000000	44.000000
157.100383	157.190908	65.000000	37.000000
157.100383	157.190908	62.000000	23.000000
157.100383	157.190908	70.000000	29.000000
157.190908	157.281433	71.000000	35.000000
157.281433	157.373057	76.000000	41.000000
157.281433	157.373057	65.000000	34.000000
157.281433	157.373057	70.000000	25.000000
157.281433	157.373057	56.000000	19.000000
157.373057	157.466988	72.000000	32.000000
157.466988	157.560906	75.000000	41.000000
157.466988	157.560906	65.000000	34.000000
157.466988	157.560906	62.000000	19.000000
157.466988	157.560906	70.000000	25.000000
157.560906	157.654837	71.000000	33.000000
157.654837	157.748754	65.000000	37.000000
157.654837	157.748754	74.000000	44.000000
157.654837	157.748754	56.000000	23.000000
157.654837	157.748754	70.000000	28.000000
157.748754	157.842685	72.000000	35.000000
157.842685	157.945642	65.000000	34.000000
157.842685	157.945642	77.000000	41.000000
157.842685	157.945642	62.000000	19.000000
157.842685	157.945642	70.000000	25.000000
157.945642	158.048599	71.000000	33.000000
158.048599	158.236461	65.000000	37.000000
158.048599	158.142530	76.000000	44.000000
158.048599	158.236461	56.000000	23.000000
158.048599	158.236461	70.000000	25.000000
158.142530	158.236461	75.000000	40.000000
158.236461	158.438297	74.000000	40.000000
158.438297	158.624630	42.000000	52.000000
158.438297	158.624630	30.000000	52.000000
158.624630	158.725508	70.000000	34.000000
158.624630	158.725508	82.000000	41.000000
158.624630	158.725508	73.000000	33.000000
158.624630	158.725508	54.000000	19.000000
158.624630	158.725508	61.000000	19.000000
158.624630	158.725508	64.000000	25.000000
158.826386	159.014248	70.000000	37.000000
158.826386	159.014248	73.000000	37.000000
158.826386	158.920317	80.000000	44.000000
158.826386	159.014248	64.000000	25.000000
158.826386	159.014248	61.000000	23.000000
158.826386	159.014248	58.000000	23.000000
158.920317	159.014248	79.000000	40.000000
159.014248	159.219290	78.000000	40.000000
159.219290	159.406790	35.000000	52.000000
159.219290	159.406790	47.000000	52.000000
159.406790	159.507668	78.000000	33.000000
159.406790	159.507668	87.000000	41.000000
159.406790	159.507668	75.000000	34.000000
159.406790	159.507668	59.000000	19.000000
159.406790	159.507668	66.000000	19.000000
159.406790	159.507668	69.000000	25.000000
159.608545	159.796408	75.000000	37.000000
159.608545	159.796408	78.000000	37.000000
159.608545	159.702477	85.000000	44.000000
159.608545	159.796408	63.000000	23.000000
159.608545	159.796408	69.000000	25.000000
159.608545	159.796408	66.000000	23.000000
159.702477	159.796408	84.000000	40.000000
159.796408	159.984256	83.000000	40.000000
159.984256	160.191819	29.000000	52.000000
159.984256	160.191819	41.000000	52.000000
160.191819	160.293059	87.000000	37.000000
160.191819	160.293059	84.000000	37.000000
160.191819	160.293059	93.000000	44.000000
160.191819	160.293059	53.000000	40.000000
160.293059	160.393937	52.000000	34.000000
160.393937	160.494158	84.000000	39.000000
160.393937	160.494158	92.000000	47.000000
160.393937	160.494158	87.000000	39.000000
160.393937	160.494158	54.000000	40.000000
160.494158	160.594043	53.000000	34.000000
160.594043	160.693580	84.000000	39.000000
160.594043	160.693580	87.000000	39.000000
160.594043	160.693580	91.000000	46.000000
160.594043	160.693580	55.000000	40.000000
160.693580	160.792473	54.000000	34.000000
160.792473	160.891058	87.000000	37.000000
160.792473	160.891058	90.000000	44.000000
160.792473	160.891058	84.000000	37.000000
160.792473	160.891058	56.000000	40.000000
160.891058	160.989294	55.000000	35.000000
160.989294	161.086913	81.000000	37.000000
160.989294	161.086913	84.000000	37.000000
160.989294	161.086913	89.000000	44.000000
160.989294	161.086913	57.000000	40.000000
161.086913	161.184210	56.000000	35.000000
161.184210	161.281172	88.000000	43.000000
161.184210	161.281172	84.000000	36.000000
161.184210	161.281172	81.000000	36.000000
161.184210	161.281172	58.000000	40.000000
161.281172	161.377531	57.000000	35.000000
161.377531	161.473581	84.000000	35.000000
161.377531	161.473581	81.000000	35.000000
161.377531	161.473581	87.000000	42.000000
161.377531	161.473581	59.000000	40.000000
161.473581	161.569295	58.000000	35.000000
161.569295	161.664433	81.000000	39.000000
161.569295	161.664433	78.000000	39.000000
161.569295	161.664433	86.000000	46.000000
161.569295	161.664433	60.000000	40.000000
161.664433	161.759558	59.000000	40.000000
161.759558	161.854682	78.000000	39.000000
161.759558	161.854682	85.000000	47.000000
161.759558	161.854682	81.000000	39.000000
161.759558	161.854682	61.000000	41.000000
161.854682	161.949794	60.000000	37.000000
161.949794	162.044905	78.000000	39.000000
161.949794	162.044905	81.000000	39.000000
161.949794	162.044905	84.000000	47.000000
161.949794	162.044905	62.000000	42.000000
162.044905	162.140029	61.000000	37.000000
162.140029	162.235154	78.000000	40.000000
162.140029	162.235154	75.000000	40.000000
162.140029	162.235154	83.000000	48.000000
162.140029	162.235154	63.000000	43.000000
162.235154	162.330265	62.000000	40.000000
162.330265	162.425966	82.000000	49.000000
162.330265	162.425966	78.000000	41.000000
162.330265	162.425966	75.000000	41.000000
162.330265	162.425966	64.000000	44.000000
162.425966	162.521829	63.000000	40.000000
162.521829	162.618160	72.000000	42.000000
162.521829	162.618160	75.000000	42.000000
162.521829	162.618160	81.000000	50.000000
162.521829	162.618160	65.000000	47.000000
162.618160	162.714934	64.000000	42.000000
162.714934	162.811883	75.000000	43.000000
162.714934	162.811883	72.000000	43.000000
162.714934	162.811883	80.000000	51.000000
162.714934	162.811883	66.000000	49.000000
162.811883	162.909448	65.000000	46.000000
162.909448	163.007336	75.000000	44.000000
162.909448	163.007336	79.000000	52.000000
162.909448	163.007336	72.000000	44.000000
162.909448	163.007336	67.000000	51.000000
163.007336	163.105572	66.000000	48.000000
163.105572	163.204438	72.000000	44.000000
163.105572	163.204438	78.000000	54.000000
163.105572	163.204438	75.000000	44.000000
163.105572	163.204438	68.000000	54.000000
163.204438	163.303318	67.000000	46.000000
163.303318	163.402197	77.000000	52.000000
163.303318	163.402197	75.000000	44.000000
163.303318	163.402197	72.000000	44.000000
163.303318	163.402197	69.000000	50.000000
163.402197	163.501077	68.000000	44.000000
163.501077	163.599957	75.000000	42.000000
163.501077	163.599957	79.000000	50.000000
163.501077	163.599957	70.000000	47.000000
163.599957	163.698836	69.000000	42.000000
163.698836	163.797716	77.000000	48.000000
163.698836	163.797716	75.000000	40.000000
163.698836	163.797716	72.000000	44.000000
163.797716	163.896596	69.000000	37.000000
163.896596	164.094355	75.000000	42.000000
163.896596	164.094355	78.000000	50.000000
163.896596	163.995476	68.000000	43.000000
163.995476	164.094355	71.000000	39.000000
164.094355	164.292115	75.000000	42.000000
164.094355	164.292115	77.000000	42.000000
164.094355	164.193235	69.000000	43.000000
164.193235	164.292115	72.000000	37.000000
164.292115	164.489874	75.000000	42.000000
164.292115	164.489874	78.000000	50.000000
164.292115	164.390994	68.000000	43.000000
164.390994	164.489874	71.000000	39.000000
164.489874	164.687633	77.000000	43.000000
164.489874	164.687633	75.000000	36.000000
164.489874	164.588754	69.000000	43.000000
164.588754	164.687633	72.000000	39.000000
164.687633	164.883368	78.000000	50.000000
164.687633	164.883368	75.000000	42.000000
164.687633	164.785695	68.000000	43.000000
164.785695	164.883368	71.000000	39.000000
164.883368	165.080403	77.000000	42.000000
164.883368	165.080403	75.000000	35.000000
164.883368	164.981604	69.000000	42.000000
164.981604	165.080403	72.000000	36.000000
165.080403	165.279490	79.000000	47.000000
165.080403	165.279490	75.000000	39.000000
165.080403	165.179698	68.000000	41.000000
165.179698	165.279490	71.000000	35.000000
165.279490	165.480656	75.000000	33.000000
165.279490	165.480656	77.000000	40.000000
165.279490	165.379778	69.000000	40.000000
165.379778	165.480656	72.000000	34.000000
165.480656	165.686609	75.000000	37.000000
165.480656	165.686609	79.000000	44.000000
165.480656	165.582660	68.000000	39.000000
165.582660	165.686609	71.000000	33.000000
165.686609	165.901039	75.000000	32.000000
165.686609	165.901039	77.000000	37.000000
165.686609	165.792771	69.000000	37.000000
165.792771	165.901039	72.000000	32.000000
165.901039	166.123689	75.000000	35.000000
165.901039	166.123689	79.000000	42.000000
165.901039	166.011599	68.000000	36.000000
166.011599	166.123689	71.000000	31.000000
166.123689	166.397167	75.000000	29.000000
166.123689	166.397167	77.000000	35.000000
166.123689	166.260428	69.000000	35.000000
166.260428	166.397167	72.000000	29.000000
166.397167	166.645714	77.000000	39.000000
166.397167	166.645714	74.000000	32.000000
166.397167	166.645714	70.000000	34.000000
166.894261	167.013700	62.000000	39.000000
166.993798	167.113237	63.000000	39.000000
167.093335	167.212774	62.000000	39.000000
167.192872	167.310608	64.000000	39.000000
167.291819	167.404539	65.000000	40.000000
167.291819	168.425428	59.000000	34.000000
167.291819	168.425428	50.000000	34.000000
167.291819	168.425428	56.000000	34.000000
167.385750	167.498470	66.000000	40.000000
167.479681	167.592401	65.000000	40.000000
167.573612	167.686332	67.000000	41.000000
167.667543	167.780263	68.000000	41.000000
167.761474	167.874194	69.000000	41.000000
167.855405	167.968125	68.000000	42.000000
167.949336	168.063048	70.000000	42.000000
168.043267	168.161928	71.000000	42.000000
168.142147	168.259466	72.000000	42.000000
168.241026	168.351667	71.000000	43.000000
168.241026	168.333227	62.000000	48.000000
168.333227	168.443976	73.000000	43.000000
168.425428	168.536740	74.000000	43.000000
168.425428	168.796485	56.000000	34.000000
168.425428	168.796485	53.000000	34.000000
168.425428	168.518192	61.000000	48.000000
168.518192	168.629504	75.000000	44.000000
168.610957	168.722268	74.000000	44.000000
168.610957	168.703721	60.000000	48.000000
168.703721	168.815033	76.000000	44.000000
168.796485	168.907797	77.000000	44.000000
168.796485	169.182402	50.000000	34.000000
168.796485	168.889250	59.000000	48.000000
168.796485	169.182402	55.000000	34.000000
168.889250	169.002050	78.000000	43.000000
168.982014	169.102244	77.000000	43.000000
168.982014	169.082208	62.000000	48.000000
169.082208	169.201191	79.000000	43.000000
169.182402	169.295122	80.000000	43.000000
169.182402	169.558126	53.000000	34.000000
169.182402	169.558126	55.000000	34.000000
169.182402	169.276333	61.000000	48.000000
169.276333	169.389053	81.000000	44.000000
169.276333	169.370264	60.000000	48.000000
169.370264	169.482984	80.000000	44.000000
169.370264	169.464195	59.000000	48.000000
169.464195	169.576915	83.000000	44.000000
169.558126	169.652057	86.000000	44.000000
169.558126	169.745988	54.000000	32.000000
169.558126	169.745988	50.000000	32.000000
169.558126	169.745988	62.000000	40.000000
169.558126	169.745988	57.000000	32.000000
169.652057	169.745988	87.000000	46.000000
169.745988	169.839919	86.000000	46.000000
169.839919	169.933850	89.000000	46.000000
169.933850	170.027781	90.000000	46.000000
170.027781	170.121712	91.000000	47.000000
170.121712	170.215643	90.000000	47.000000
170.215643	170.309574	92.000000	47.000000
170.309574	170.403505	93.000000	48.000000
170.403505	170.497436	94.000000	48.000000
170.497436	170.591367	93.000000	48.000000
170.591367	170.685298	97.000000	48.000000
170.685298	170.779229	98.000000	49.000000
170.779229	170.873160	97.000000	49.000000
170.873160	170.967091	98.000000	49.000000
170.967091	171.072945	97.000000	49.000000
171.072945	171.165146	96.000000	51.000000
171.072945	171.441722	99.000000	62.000000
171.072945	171.257347	55.000000	32.000000
171.072945	171.257347	48.000000	32.000000
171.072945	171.257347	63.000000	40.000000
171.165146	171.257347	95.000000	44.000000
171.257347	171.349534	96.000000	44.000000
171.349534	171.441722	94.000000	44.000000
171.441722	171.533909	93.000000	44.000000
171.533909	171.626097	91.000000	44.000000
171.626097	171.718285	92.000000	44.000000
171.718285	171.810472	90.000000	44.000000
171.810472	171.902660	89.000000	51.000000
171.810472	172.179236	101.000000	60.000000
171.810472	171.994861	48.000000	32.000000
171.810472	171.994861	57.000000	40.000000
171.810472	171.994861	51.000000	32.000000
171.810472	171.994861	41.000000	32.000000
171.902660	171.994861	88.000000	44.000000
171.994861	172.087048	89.000000	44.000000
172.087048	172.179236	87.000000	44.000000
172.179236	172.271423	86.000000	44.000000
172.271423	172.363611	85.000000	44.000000
172.363611	172.455799	84.000000	44.000000
172.455799	172.531169	83.000000	44.000000
172.493484	172.661618	46.000000	32.000000
172.512326	172.661618	53.000000	32.000000
172.531169	172.661618	62.000000	40.000000
172.550011	172.661618	82.000000	55.000000
172.568854	172.661618	101.000000	65.000000
172.939911	173.059350	38.000000	39.000000
173.039448	173.158886	39.000000	39.000000
173.138984	173.258423	38.000000	39.000000
173.238521	173.356485	40.000000	39.000000
173.337468	174.098358	53.000000	34.000000
173.337468	174.098358	62.000000	34.000000
173.337468	174.098358	59.000000	34.000000
173.337468	174.098358	56.000000	34.000000
173.337468	173.451596	41.000000	40.000000
173.432579	173.546707	42.000000	40.000000
173.527690	173.641819	41.000000	40.000000
173.622802	173.736930	43.000000	41.000000
173.717913	173.832041	44.000000	41.000000
173.813024	173.927152	45.000000	41.000000
173.908135	174.022263	44.000000	42.000000
174.003246	174.118139	46.000000	42.000000
174.098358	174.217019	47.000000	42.000000
174.197237	174.314665	48.000000	42.000000
174.296117	174.388881	86.000000	52.000000
174.296117	174.388881	80.000000	37.000000
174.296117	174.388881	77.000000	37.000000
174.296117	174.407429	47.000000	43.000000
174.388881	174.500193	49.000000	43.000000
174.481646	174.574410	85.000000	52.000000
174.481646	174.574410	80.000000	37.000000
174.481646	174.574410	77.000000	37.000000
174.481646	174.592957	50.000000	43.000000
174.574410	174.685722	51.000000	44.000000
174.667174	174.759938	77.000000	37.000000
174.667174	174.759938	84.000000	52.000000
174.667174	174.759938	80.000000	37.000000
174.667174	174.778486	50.000000	44.000000
174.759938	174.871250	52.000000	44.000000
174.852703	174.945467	83.000000	52.000000
174.852703	175.238619	80.000000	37.000000
174.852703	175.238619	74.000000	37.000000
174.852703	174.964014	53.000000	44.000000
174.945467	175.058267	54.000000	43.000000
175.038231	175.138425	86.000000	55.000000
175.038231	175.158461	53.000000	43.000000
175.138425	175.257408	55.000000	43.000000
175.238619	175.332550	74.000000	31.000000
175.238619	175.332550	85.000000	56.000000
175.238619	175.332550	77.000000	33.000000
175.238619	175.351339	56.000000	43.000000
175.332550	175.426481	84.000000	52.000000
175.332550	175.445270	57.000000	44.000000
175.426481	175.520412	83.000000	52.000000
175.426481	175.539201	56.000000	44.000000
175.520412	175.633668	59.000000	44.000000
175.614759	175.803801	86.000000	34.000000
175.614759	175.803801	78.000000	34.000000
175.614759	175.803801	93.000000	43.000000
175.614759	175.728190	62.000000	37.000000
175.614759	175.992280	50.000000	37.000000
175.709280	175.822711	63.000000	39.000000
175.803801	175.917138	62.000000	39.000000
175.898322	176.011069	65.000000	39.000000
175.992280	176.105000	66.000000	39.000000
176.086211	176.198931	67.000000	39.000000
176.180142	176.292621	66.000000	39.000000
176.273952	176.385962	68.000000	39.000000
176.367293	176.479302	69.000000	40.000000
176.460634	176.572643	70.000000	40.000000
176.553975	176.665609	69.000000	40.000000
176.647061	176.758373	73.000000	40.000000
176.739826	176.851137	74.000000	41.000000
176.832590	176.943902	73.000000	41.000000
176.925354	177.039040	74.000000	41.000000
177.017716	177.142774	73.000000	41.000000
177.124334	177.308736	96.000000	43.000000
177.124334	177.308736	87.000000	34.000000
177.124334	177.308736	79.000000	34.000000
177.124334	177.493138	60.000000	51.000000
177.124334	177.234975	72.000000	43.000000
177.216535	177.327176	71.000000	37.000000
177.308736	177.419377	72.000000	37.000000
177.400937	177.511578	70.000000	37.000000
177.493138	177.603779	69.000000	37.000000
177.585339	177.695980	67.000000	37.000000
177.677540	177.788181	68.000000	37.000000
177.769741	177.880382	66.000000	37.000000
177.861942	178.046344	87.000000	34.000000
177.861942	178.046344	93.000000	34.000000
177.861942	178.046344	101.000000	43.000000
177.861942	178.230746	53.000000	51.000000
177.861942	177.972583	65.000000	43.000000
177.954143	178.064784	64.000000	37.000000
178.046344	178.156985	65.000000	37.000000
178.138545	178.249186	63.000000	37.000000
178.230746	178.341387	62.000000	37.000000
178.322947	178.433588	61.000000	37.000000
178.415148	178.528672	60.000000	37.000000
178.507349	178.592643	59.000000	37.000000
178.613967	178.706731	86.000000	34.000000
178.613967	178.706731	101.000000	43.000000
178.613967	178.706731	94.000000	34.000000
178.613967	178.706731	46.000000	46.000000
178.613967	178.706731	58.000000	55.000000
178.799495	178.893037	50.000000	35.000000
178.799495	178.893037	58.000000	25.000000
178.799495	178.893037	53.000000	29.000000
178.893037	178.986579	62.000000	28.000000
178.986579	179.080122	48.000000	40.000000
178.986579	179.080122	58.000000	24.000000
178.986579	179.080122	54.000000	28.000000
179.080122	179.173664	62.000000	28.000000
179.173664	179.267206	47.000000	36.000000
179.173664	179.267206	58.000000	24.000000
179.173664	179.267206	55.000000	28.000000
179.267206	179.360748	62.000000	28.000000
179.360748	179.460513	46.000000	40.000000
179.360748	179.460513	58.000000	28.000000
179.360748	179.460513	54.000000	34.000000
179.460513	179.552338	62.000000	25.000000
179.552338	179.639872	50.000000	36.000000
179.552338	179.639872	53.000000	34.000000
179.552338	179.639872	58.000000	28.000000
179.639872	179.727406	62.000000	24.000000
179.727406	179.823335	48.000000	40.000000
179.727406	179.823335	58.000000	28.000000
179.727406	179.823335	54.000000	34.000000
179.823335	179.919265	47.000000	35.000000
179.823335	179.919265	62.000000	28.000000
179.919265	180.015207	46.000000	35.000000
179.919265	180.015207	58.000000	28.000000
179.919265	180.015207	55.000000	34.000000
180.015207	180.079165	62.000000	25.000000
180.079165	180.256258	54.000000	34.000000
180.095151	180.256258	57.000000	34.000000
180.111137	180.256258	63.000000	34.000000
180.390516	180.470499	87.000000	42.000000
180.390516	180.470499	81.000000	46.000000
180.390516	180.470499	78.000000	46.000000
180.470499	180.550912	84.000000	42.000000
180.550912	180.631874	80.000000	41.000000
180.550912	180.631874	71.000000	44.000000
180.550912	180.631874	74.000000	44.000000
180.631874	180.713266	77.000000	41.000000
180.713266	180.795114	81.000000	40.000000
180.713266	180.795114	72.000000	43.000000
180.713266	180.795114	75.000000	43.000000
180.795114	180.877511	78.000000	39.000000
180.877511	180.960378	74.000000	39.000000
180.877511	180.960378	68.000000	43.000000
180.877511	180.960378	65.000000	43.000000
180.960378	181.043701	71.000000	37.000000
181.043701	181.127601	75.000000	37.000000
181.043701	181.127601	69.000000	42.000000
181.043701	181.127601	66.000000	42.000000
181.127601	181.211969	72.000000	36.000000
181.211969	181.296902	68.000000	36.000000
181.211969	181.296902	62.000000	41.000000
181.211969	181.296902	59.000000	41.000000
181.296902	181.382357	65.000000	35.000000
181.382357	181.468295	69.000000	34.000000
181.382357	181.468295	60.000000	40.000000
181.382357	181.468295	63.000000	40.000000
181.468295	181.554863	78.000000	34.000000
181.554863	181.814917	77.000000	43.000000
181.554863	181.814917	70.000000	43.000000
181.554863	181.814917	41.000000	50.000000
181.814917	181.908459	50.000000	35.000000
181.814917	181.908459	58.000000	25.000000
181.814917	181.908459	53.000000	29.000000
181.908459	182.002001	62.000000	28.000000
182.002001	182.095543	48.000000	40.000000
182.002001	182.095543	58.000000	24.000000
182.002001	182.095543	54.000000	28.000000
182.095543	182.189085	62.000000	28.000000
182.189085	182.282628	47.000000	36.000000
182.189085	182.282628	58.000000	24.000000
182.189085	182.282628	55.000000	28.000000
182.282628	182.376170	62.000000	28.000000
182.376170	182.475934	46.000000	40.000000
182.376170	182.475934	54.000000	34.000000
182.376170	182.475934	58.000000	28.000000
182.475934	182.567760	62.000000	25.000000
182.567760	182.655294	50.000000	36.000000
182.567760	182.655294	53.000000	34.000000
182.567760	182.655294	58.000000	28.000000
182.655294	182.742828	62.000000	24.000000
182.742828	182.838757	48.000000	40.000000
182.742828	182.838757	58.000000	28.000000
182.742828	182.838757	54.000000	34.000000
182.838757	182.934686	47.000000	35.000000
182.838757	182.934686	62.000000	28.000000
182.934686	183.030629	46.000000	35.000000
182.934686	183.030629	58.000000	28.000000
182.934686	183.030629	55.000000	34.000000
183.030629	183.126558	62.000000	25.000000
183.094586	183.271679	54.000000	28.000000
183.110572	183.271679	57.000000	28.000000
183.126558	183.271679	63.000000	34.000000
183.405522	183.482957	87.000000	42.000000
183.405522	183.482957	78.000000	39.000000
183.405522	183.482957	81.000000	46.000000
183.482957	183.560661	84.000000	42.000000
183.560661	183.638673	80.000000	41.000000
183.560661	183.638673	71.000000	37.000000
183.560661	183.638673	74.000000	44.000000
183.638673	183.716993	77.000000	41.000000
183.716993	183.795649	81.000000	40.000000
183.716993	183.795649	72.000000	36.000000
183.716993	183.795649	75.000000	43.000000
183.795649	183.874681	78.000000	39.000000
183.874681	183.954034	74.000000	39.000000
183.874681	183.954034	68.000000	43.000000
183.874681	183.954034	65.000000	36.000000
183.954034	184.033695	71.000000	37.000000
184.033695	184.113679	75.000000	37.000000
184.033695	184.113679	69.000000	42.000000
184.033695	184.113679	66.000000	35.000000
184.113679	184.194025	72.000000	36.000000
184.194025	184.274759	68.000000	36.000000
184.194025	184.274759	62.000000	41.000000
184.194025	184.274759	59.000000	34.000000
184.274759	184.355829	65.000000	35.000000
184.355829	184.437221	69.000000	34.000000
184.355829	184.437221	63.000000	40.000000
184.355829	184.437221	60.000000	33.000000
184.437221	184.490302	78.000000	34.000000
184.518827	184.663948	60.000000	41.000000
184.518827	184.663948	66.000000	41.000000
184.518827	184.663948	57.000000	48.000000
184.518827	184.663948	51.000000	40.000000
184.809069	184.884694	90.000000	46.000000
184.809069	184.960319	84.000000	50.000000
184.809069	184.960319	81.000000	42.000000
184.884694	184.960319	87.000000	46.000000
184.960319	185.036078	83.000000	44.000000
184.960319	185.111864	77.000000	48.000000
184.960319	185.111864	74.000000	40.000000
185.036078	185.111864	80.000000	44.000000
185.111864	185.188012	84.000000	43.000000
185.111864	185.264160	75.000000	39.000000
185.111864	185.264160	78.000000	47.000000
185.188012	185.264160	81.000000	42.000000
185.264160	185.340388	77.000000	42.000000
185.264160	185.416925	70.000000	47.000000
185.264160	185.416925	68.000000	39.000000
185.340388	185.416925	74.000000	41.000000
185.416925	185.493462	78.000000	41.000000
185.416925	185.570119	72.000000	46.000000
185.416925	185.570119	69.000000	39.000000
185.493462	185.570119	75.000000	40.000000
185.570119	185.647045	71.000000	40.000000
185.570119	185.723971	62.000000	37.000000
185.570119	185.723971	65.000000	44.000000
185.647045	185.723971	68.000000	39.000000
185.723971	185.802359	72.000000	37.000000
185.723971	185.915682	63.000000	36.000000
185.723971	185.915682	66.000000	43.000000
185.802359	185.915682	81.000000	37.000000
185.915682	186.060803	69.000000	41.000000
185.915682	186.060803	63.000000	41.000000
185.915682	186.060803	60.000000	48.000000
185.915682	186.060803	54.000000	40.000000
185.915682	186.060803	46.000000	40.000000
186.205924	186.281549	93.000000	46.000000
186.205924	186.357174	84.000000	42.000000
186.205924	186.357174	87.000000	50.000000
186.281549	186.357174	90.000000	46.000000
186.357174	186.432933	86.000000	44.000000
186.357174	186.508719	77.000000	40.000000
186.357174	186.508719	80.000000	48.000000
186.432933	186.508719	83.000000	44.000000
186.508719	186.584867	87.000000	43.000000
186.508719	186.661015	81.000000	47.000000
186.508719	186.661015	78.000000	39.000000
186.584867	186.661015	84.000000	42.000000
186.661015	186.737243	96.000000	42.000000
186.661015	186.813780	90.000000	47.000000
186.661015	186.813780	87.000000	39.000000
186.737243	186.813780	93.000000	41.000000
186.813780	186.890317	89.000000	41.000000
186.813780	186.966975	83.000000	46.000000
186.813780	186.966975	80.000000	39.000000
186.890317	186.966975	86.000000	40.000000
186.966975	187.043900	90.000000	40.000000
186.966975	187.120826	81.000000	37.000000
186.966975	187.120826	84.000000	44.000000
187.043900	187.120826	87.000000	39.000000
187.120826	187.199214	99.000000	37.000000
187.120826	187.277601	90.000000	36.000000
187.120826	187.277601	93.000000	43.000000
187.199214	187.277601	96.000000	37.000000
187.277601	187.355841	92.000000	46.000000
187.277601	187.434095	83.000000	44.000000
187.277601	187.434095	86.000000	44.000000
187.355841	187.434095	89.000000	40.000000
187.434095	187.512348	93.000000	47.000000
187.434095	187.590602	87.000000	39.000000
187.434095	187.590602	84.000000	39.000000
187.512348	187.590602	90.000000	40.000000
187.590602	187.668855	100.000000	43.000000
187.590602	187.747109	80.000000	44.000000
187.590602	187.747109	83.000000	44.000000
187.668855	187.747109	87.000000	35.000000
187.747109	187.825362	101.000000	40.000000
187.747109	187.903616	81.000000	37.000000
187.747109	187.903616	84.000000	37.000000
187.825362	187.903616	87.000000	31.000000
187.903616	187.983023	100.000000	50.000000
187.903616	188.062993	80.000000	44.000000
187.903616	188.062993	83.000000	44.000000
187.983023	188.062993	87.000000	31.000000
188.062993	188.143526	101.000000	47.000000
188.062993	188.224596	84.000000	36.000000
188.062993	188.224596	81.000000	36.000000
188.143526	188.224596	87.000000	33.000000
188.224596	188.306310	100.000000	42.000000
188.224596	188.388613	80.000000	44.000000
188.224596	188.388613	83.000000	44.000000
188.306310	188.388613	87.000000	33.000000
188.388613	188.471480	101.000000	42.000000
188.388613	188.555004	84.000000	39.000000
188.388613	188.555004	81.000000	39.000000
188.471480	188.555004	87.000000	33.000000
188.555004	188.838836	101.000000	48.000000
188.555004	188.838836	82.000000	44.000000
188.555004	188.838836	86.000000	44.000000
188.838836	188.917451	90.000000	32.000000
188.838836	188.917451	98.000000	39.000000
188.917451	188.995852	94.000000	35.000000
188.917451	188.995852	89.000000	29.000000
188.995852	189.073945	86.000000	28.000000
188.995852	189.073945	90.000000	34.000000
189.073945	189.151635	89.000000	33.000000
189.073945	189.151635	82.000000	27.000000
189.151635	189.229017	78.000000	26.000000
189.151635	189.229017	86.000000	32.000000
189.229017	189.306010	82.000000	32.000000
189.229017	189.306010	77.000000	26.000000
189.306010	189.381970	78.000000	31.000000
189.306010	189.381970	74.000000	25.000000
189.381970	189.458185	77.000000	32.000000
189.381970	189.458185	70.000000	26.000000
189.458185	189.534789	78.000000	33.000000
189.458185	189.534789	74.000000	27.000000
189.534789	189.611782	77.000000	28.000000
189.534789	189.611782	82.000000	34.000000
189.611782	189.689177	86.000000	35.000000
189.611782	189.689177	78.000000	29.000000
189.689177	189.766975	82.000000	31.000000
189.689177	189.766975	89.000000	36.000000
189.766975	189.845174	90.000000	37.000000
189.766975	189.845174	86.000000	32.000000
189.845174	189.923844	94.000000	39.000000
189.845174	189.923844	89.000000	32.000000
189.923844	190.072800	82.000000	33.000000
189.923844	190.072800	98.000000	40.000000
190.221757	190.300359	86.000000	36.000000
190.221757	190.300359	78.000000	31.000000
190.300359	190.378760	82.000000	33.000000
190.300359	190.378760	77.000000	27.000000
190.378760	190.456853	74.000000	26.000000
190.378760	190.456853	78.000000	32.000000
190.456853	190.534543	70.000000	25.000000
190.456853	190.534543	77.000000	32.000000
190.534543	190.611925	74.000000	31.000000
190.534543	190.611925	66.000000	25.000000
190.611925	190.688917	65.000000	25.000000
190.611925	190.688917	70.000000	29.000000
190.688917	190.764878	62.000000	24.000000
190.688917	190.764878	66.000000	28.000000
190.764878	190.841093	65.000000	29.000000
190.764878	190.841093	58.000000	25.000000
190.841093	190.917697	62.000000	25.000000
190.841093	190.917697	66.000000	32.000000
190.917697	190.994690	70.000000	32.000000
190.917697	190.994690	65.000000	26.000000
190.994690	191.072085	66.000000	27.000000
190.994690	191.072085	74.000000	33.000000
191.072085	191.149882	77.000000	34.000000
191.072085	191.149882	70.000000	28.000000
191.149882	191.228082	78.000000	35.000000
191.149882	191.228082	74.000000	29.000000
191.228082	191.306751	77.000000	31.000000
191.228082	191.306751	82.000000	36.000000
191.306751	191.416481	86.000000	37.000000
191.306751	191.416481	70.000000	32.000000
191.526210	191.604812	74.000000	33.000000
191.526210	191.604812	66.000000	33.000000
191.604812	191.683213	70.000000	32.000000
191.604812	191.683213	65.000000	32.000000
191.683213	191.761306	62.000000	31.000000
191.683213	191.761306	66.000000	31.000000
191.761306	191.838996	58.000000	29.000000
191.761306	191.838996	65.000000	29.000000
191.838996	191.916378	54.000000	27.000000
191.838996	191.916378	62.000000	27.000000
191.916378	191.993370	53.000000	26.000000
191.916378	191.993370	58.000000	26.000000
191.993370	192.069331	62.000000	25.000000
191.993370	192.069331	54.000000	25.000000
192.069331	192.145546	58.000000	24.000000
192.069331	192.145546	65.000000	24.000000
192.145546	192.222150	62.000000	24.000000
192.145546	192.222150	66.000000	24.000000
192.222150	192.299142	70.000000	25.000000
192.222150	192.299142	65.000000	25.000000
192.299142	192.376538	74.000000	25.000000
192.299142	192.376538	66.000000	25.000000
192.376538	192.454335	70.000000	27.000000
192.376538	192.454335	77.000000	27.000000
192.454335	192.532535	74.000000	29.000000
192.454335	192.532535	78.000000	29.000000
192.532535	192.611204	77.000000	31.000000
192.532535	192.611204	82.000000	31.000000
192.611204	192.688599	86.000000	32.000000
192.611204	192.688599	78.000000	32.000000
192.688599	192.766397	82.000000	33.000000
192.688599	192.766397	89.000000	33.000000
192.766397	192.844597	86.000000	34.000000
192.766397	192.844597	90.000000	34.000000
192.844597	192.923266	94.000000	36.000000
192.844597	192.923266	89.000000	36.000000
192.923266	193.002338	90.000000	32.000000
192.923266	193.002338	98.000000	39.000000
193.002338	193.081409	94.000000	32.000000
193.002338	193.081409	89.000000	25.000000
193.081409	193.160481	90.000000	29.000000
193.081409	193.160481	86.000000	25.000000
193.160481	193.239552	82.000000	25.000000
193.160481	193.239552	89.000000	29.000000
193.239552	193.318624	90.000000	31.000000
193.239552	193.318624	98.000000	36.000000
193.318624	193.397696	89.000000	24.000000
193.318624	193.397696	94.000000	29.000000
193.397696	193.476767	86.000000	24.000000
193.397696	193.476767	90.000000	27.000000
193.476767	193.555839	82.000000	24.000000
193.476767	193.555839	89.000000	27.000000
193.555839	193.634910	98.000000	35.000000
193.555839	193.634910	90.000000	28.000000
193.634910	193.713982	94.000000	27.000000
193.634910	193.713982	89.000000	23.000000
193.713982	193.793053	90.000000	27.000000
193.713982	193.793053	86.000000	23.000000
193.793053	193.872125	89.000000	26.000000
193.793053	193.872125	82.000000	23.000000
193.872125	193.951197	98.000000	33.000000
193.872125	193.951197	90.000000	27.000000
193.951197	194.030268	94.000000	26.000000
193.951197	194.030268	89.000000	21.000000
194.030268	194.109340	90.000000	25.000000
194.030268	194.109340	86.000000	20.000000
194.109340	194.188411	89.000000	25.000000
194.109340	194.188411	82.000000	20.000000
194.188411	194.267483	98.000000	32.000000
194.188411	194.267483	90.000000	25.000000
194.267483	194.346554	89.000000	20.000000
194.267483	194.346554	94.000000	25.000000
194.346554	194.425626	86.000000	20.000000
194.346554	194.425626	90.000000	25.000000
194.425626	194.504698	89.000000	25.000000
194.425626	194.504698	82.000000	20.000000
194.504698	194.820997	65.000000	23.000000
194.544247	194.820997	70.000000	25.000000
194.583783	194.820997	77.000000	27.000000
194.623318	194.820997	86.000000	36.000000
194.662854	194.820997	94.000000	43.000000
194.702390	194.820997	101.000000	48.000000
195.310863	195.459162	46.000000	27.000000
195.360296	195.459162	53.000000	32.000000
195.409729	195.459162	62.000000	36.000000
