OnsetTime	OffsetTime	MidiPitch	Velocity
0.500004	0.730889	58	37
0.500004	0.730889	62	45
0.500004	0.730889	82	64
0.615447	0.730889	65	30
0.730889	0.955041	58	29
0.730889	0.955041	62	35
0.730889	0.961774	81	56
0.846331	0.961774	65	29
0.961774	1.19267	58	29
0.961774	1.19932	62	35
0.961774	1.19932	82	56
1.07723	1.19932	65	30
1.19267	1.42081	58	34
1.19267	1.42081	63	40
1.19267	1.434	79	60
1.30673	1.434	67	30
1.42081	1.64712	58	29
1.42081	1.64712	63	35
1.42081	1.90685	81	55
1.53396	1.76028	67	29
1.53396	1.87344	82	56
1.64712	1.87344	58	29
1.64712	1.90685	63	35
1.64712	1.90685	84	58
1.76028	1.90685	67	29
1.76028	1.90685	86	59
1.87344	2.10252	58	40
1.87344	2.10252	62	48
1.87344	2.10252	82	63
1.98797	2.10252	65	30
2.10252	2.32883	58	29
2.10252	2.32883	62	35
2.10252	2.55515	84	64
2.21567	2.44199	65	29
2.21567	2.55515	82	56
2.32883	2.55515	58	29
2.32883	2.55515	62	35
2.32883	2.55515	81	60
2.44199	2.55515	65	29
2.44199	2.55515	79	56
2.55515	2.67108	57	35
2.55515	2.67108	63	41
2.55515	2.61312	77	66
2.67108	2.78702	65	30
2.78702	2.90294	57	29
2.78702	2.90294	63	35
2.78702	2.84498	77	60
2.90294	3.01888	65	31
3.01888	3.13754	57	29
3.01888	3.13754	63	35
3.01888	3.07821	77	59
3.13754	3.25619	65	30
3.25619	3.48804	57	37
3.25619	3.48804	63	44
3.25619	3.71602	78	72
3.37212	3.60397	66	30
3.48804	3.71602	57	29
3.48804	3.71602	63	35
3.48804	3.71988	90	68
3.60397	3.71988	66	30
3.71988	3.83808	57	29
3.71988	3.83808	63	35
3.71988	3.77898	90	68
3.83808	3.95627	66	30
3.95627	4.0722	58	35
3.95627	4.0722	63	41
3.95627	4.39291	91	77
4.0722	4.30404	67	30
4.18811	4.39291	58	29
4.18811	4.39291	63	35
4.18811	4.41996	79	60
4.30404	4.41996	67	30
4.41996	4.53589	58	29
4.41996	4.53589	63	35
4.41996	4.47792	79	60
4.53589	4.65181	67	30
4.65181	4.76774	60	35
4.65181	4.76774	63	41
4.65181	4.70977	81	63
4.76774	4.99682	65	30
4.85468	5.33907	94	55
4.88366	5.10999	60	29
4.88366	5.10999	63	35
4.88366	5.10999	93	62
4.99682	5.22453	65	30
4.99682	5.33907	91	60
5.10999	5.33907	60	29
5.10999	5.33907	63	35
5.10999	5.33907	93	62
5.22453	5.33907	65	30
5.33907	5.45361	58	35
5.33907	5.45361	62	41
5.33907	5.39634	94	64
5.45361	5.68131	65	30
5.53952	6.03657	84	53
5.56815	5.79447	58	29
5.56815	5.79447	62	35
5.56815	5.79447	82	60
5.68131	5.91552	65	30
5.68131	6.03657	81	56
5.79447	6.03657	58	29
5.79447	6.03657	62	35
5.79447	6.03657	82	60
5.91552	6.03657	65	30
6.03657	6.26931	58	57
6.03657	6.15294	70	40
6.03657	6.15294	74	48
6.15294	6.26931	77	42
6.26931	6.50204	57	48
6.26931	6.38567	70	41
6.26931	6.38567	74	49
6.38567	6.50204	77	41
6.50204	6.73478	58	48
6.50204	6.61841	70	41
6.50204	6.61841	74	49
6.61841	6.73478	77	42
6.73478	6.96293	55	57
6.73478	6.84885	70	42
6.73478	6.84885	74	50
6.84885	6.96293	79	42
6.96293	7.07609	57	46
6.96293	7.07609	70	41
6.96293	7.07609	74	49
7.07609	7.18925	58	46
7.07609	7.18925	79	41
7.18925	7.30241	60	48
7.18925	7.30241	70	41
7.18925	7.30241	74	49
7.30241	7.41558	62	48
7.30241	7.41558	79	41
7.41558	7.64466	58	55
7.41558	7.53012	70	44
7.41558	7.53012	74	52
7.53012	7.64466	77	42
7.64466	7.75783	60	52
7.64466	7.75783	70	41
7.64466	7.75783	74	49
7.75783	7.87099	58	48
7.75783	7.87099	77	41
7.87099	7.98415	57	52
7.87099	7.98415	70	41
7.87099	7.98415	74	49
7.98415	8.09731	55	48
7.98415	8.09731	77	41
8.09731	8.15528	53	56
8.09731	8.21324	69	47
8.09731	8.21324	75	56
8.21324	8.32918	77	42
8.32918	8.38714	53	48
8.32918	8.4451	69	41
8.32918	8.4451	75	49
8.4451	8.56104	77	44
8.56104	8.62014	53	48
8.56104	8.67925	69	41
8.56104	8.67925	75	49
8.67925	8.79744	77	42
8.79744	9.02929	54	61
8.79744	8.91336	69	45
8.79744	8.91336	75	53
8.91336	9.02929	81	42
9.02929	9.26114	66	46
9.02929	9.14521	69	41
9.02929	9.14521	75	49
9.14521	9.26114	81	42
9.26114	9.32047	66	49
9.26114	9.3798	69	41
9.26114	9.3798	75	49
9.3798	9.49845	81	42
9.49845	9.7303	67	61
9.49845	9.61437	70	44
9.49845	9.61437	75	52
9.61437	9.7303	82	42
9.7303	9.96215	55	53
9.7303	9.84622	70	41
9.7303	9.84622	75	49
9.84622	9.96215	81	42
9.96215	10.0201	55	55
9.96215	10.0781	70	41
9.96215	10.0781	75	49
10.0781	10.194	79	42
10.194	10.252	58	60
10.194	10.3099	68	41
10.194	10.3099	74	49
10.3099	10.4258	77	42
10.3679	10.4447	48	47
10.4258	10.5579	46	55
10.4258	10.539	68	41
10.4258	10.539	74	49
10.539	10.6726	45	50
10.539	10.6521	77	42
10.6521	10.8981	46	53
10.6521	10.7751	68	41
10.6521	10.7751	74	49
10.7751	10.8981	77	42
10.8981	10.9558	51	50
10.8981	11.0135	67	41
10.8981	11.0135	75	49
11.0135	11.129	79	42
11.0712	11.1478	41	44
11.129	11.261	39	50
11.129	11.2421	67	41
11.129	11.2421	75	49
11.2421	11.3756	38	47
11.2421	11.3553	79	42
11.3553	11.4771	39	50
11.3553	11.4771	67	41
11.3553	11.4771	75	49
11.5989	11.7803	63	35
11.5989	11.7803	67	41
11.5989	11.7803	82	66
11.7219	11.9581	70	33
11.7834	12.0932	80	59
11.8449	12.0713	63	31
11.8449	12.0713	67	38
11.8449	12.0713	79	67
11.9581	12.0932	70	33
11.9581	12.0932	77	62
12.0713	12.3154	63	31
12.0713	12.3154	67	38
12.0713	12.3154	79	66
12.1858	12.3154	70	33
12.3003	12.4852	62	31
12.3003	12.4852	65	38
12.3003	12.4852	82	66
12.4209	12.6547	70	33
12.4812	12.8087	79	58
12.5414	12.8087	62	31
12.5414	12.7678	65	38
12.5414	12.7678	77	67
12.6547	12.8087	70	33
12.6547	12.8087	76	62
12.7678	13.0165	61	31
12.7678	13.0014	65	38
12.7678	13.0165	77	66
12.8846	13.0165	70	33
13.0014	13.2425	60	31
13.0014	13.2425	65	38
13.0014	13.2803	84	69
13.1219	13.2803	68	33
13.2425	13.4689	60	31
13.2425	13.4689	65	38
13.2425	13.7084	82	70
13.3557	13.5886	68	33
13.3557	13.7084	80	64
13.4689	13.7084	60	31
13.4689	13.7084	65	38
13.4689	13.7084	79	69
13.5886	13.7084	68	33
13.5886	13.7084	77	69
13.7084	13.9541	60	31
13.7084	13.96	65	38
13.7084	13.96	84	69
13.8312	13.96	67	33
13.9541	14.1906	60	31
13.9541	14.1906	64	38
13.9541	14.1906	72	67
14.0723	14.3088	67	33
14.1906	14.427	60	31
14.1906	14.427	64	38
14.1906	14.427	72	67
14.3088	14.427	67	36
14.427	15.1487	56	44
14.427	14.6675	60	52
14.427	14.5473	68	44
14.427	14.5473	72	52
14.5473	14.6675	75	46
14.6675	14.907	61	48
14.6675	14.7873	68	45
14.6675	14.7873	72	53
14.7873	14.907	75	45
14.907	15.1487	60	48
14.907	15.0283	68	45
14.907	15.0283	72	53
15.0283	15.1487	75	46
15.1487	15.8662	49	44
15.1487	15.3892	58	52
15.1487	15.269	68	44
15.1487	15.269	77	52
15.269	15.3892	80	46
15.3892	15.6267	53	50
15.3892	15.508	68	47
15.3892	15.508	77	56
15.508	15.6267	80	47
15.6267	15.8662	55	52
15.6267	15.7454	68	49
15.6267	15.7454	77	58
15.7454	15.8662	80	51
15.8058	15.8662	58	52
15.8662	17.3092	51	44
15.8662	16.1035	56	52
15.8662	15.9848	68	44
15.8662	15.9848	72	52
15.9848	16.1035	75	45
16.1035	16.3408	55	45
16.1035	16.2221	68	42
16.1035	16.2221	72	50
16.2221	16.3408	75	41
16.3408	16.5844	56	42
16.3408	16.4626	68	40
16.3408	16.4626	72	48
16.4626	16.5844	75	39
16.5844	17.0651	58	44
16.5844	16.7036	67	37
16.5844	16.7036	73	44
16.7036	16.8235	75	38
16.8235	16.944	67	37
16.8235	16.944	73	45
16.944	17.0651	75	37
17.0651	17.3092	59	40
17.0651	17.1867	67	37
17.0651	17.1867	73	45
17.1867	17.3092	75	38
17.3092	17.505	56	35
17.3092	17.505	60	41
17.3092	17.505	68	56
17.3092	17.505	72	56
17.3092	17.505	75	66
17.4322	17.6684	63	33
17.4937	17.7845	73	57
17.5552	17.7816	56	31
17.5552	17.7816	60	38
17.5552	17.7816	72	67
17.6684	17.7845	63	33
17.6684	17.7845	70	62
17.7816	18.0107	56	31
17.7816	18.0107	60	38
17.7816	18.0107	72	66
17.8961	18.0107	63	33
18.0107	18.2267	55	31
18.0107	18.2267	58	38
18.0107	18.2267	75	66
18.1312	18.365	63	33
18.1915	18.4584	72	57
18.2518	18.4584	55	31
18.2518	18.4584	58	38
18.2518	18.4584	70	67
18.365	18.4782	63	33
18.365	18.4782	69	62
18.4782	18.7117	54	31
18.4782	18.7117	58	38
18.4782	18.7117	70	66
18.5949	18.7117	63	33
18.7117	18.9528	53	31
18.7117	18.9528	58	38
18.7117	18.9906	77	69
18.8323	18.9906	61	33
18.9528	19.1792	53	31
18.9528	19.1792	58	38
18.9528	19.4177	75	70
19.0661	19.2985	61	33
19.0661	19.4177	73	64
19.1792	19.4177	53	31
19.1792	19.4177	58	38
19.1792	19.4177	72	69
19.2985	19.4177	61	33
19.2985	19.4177	70	69
19.4177	19.6613	53	31
19.4177	19.6672	58	38
19.4177	19.6672	77	69
19.5395	19.6672	60	33
19.6613	19.8988	53	31
19.6613	19.8988	57	38
19.6613	19.8988	65	67
19.78	20.0175	60	33
19.8988	20.1363	53	31
19.8988	20.1363	57	38
19.8988	20.1363	65	67
20.0175	20.1363	60	36
20.1363	20.8546	61	44
20.1363	20.3767	65	52
20.1363	20.2565	73	44
20.1363	20.2565	77	52
20.2565	20.3767	80	46
20.3767	20.6162	66	48
20.3767	20.4965	73	45
20.3767	20.4965	77	53
20.4965	20.6162	80	45
20.6162	20.8546	65	48
20.6162	20.7355	73	45
20.6162	20.7355	77	53
20.7355	20.8546	80	46
20.8546	21.5726	54	44
20.8546	21.0971	63	52
20.8546	20.9758	73	44
20.8546	20.9758	82	52
20.9758	21.0971	85	46
21.0971	21.3336	58	50
21.0971	21.2153	73	47
21.0971	21.2153	82	56
21.2153	21.3336	85	47
21.3336	21.5726	60	52
21.3336	21.4518	73	49
21.3336	21.4518	82	58
21.4518	21.5726	85	51
21.5122	21.5726	63	49
21.5726	23.002	56	44
21.5726	21.8099	61	52
21.5726	21.6912	73	44
21.5726	21.6912	77	52
21.6912	21.8099	80	45
21.8099	22.0472	60	45
21.8099	21.9285	73	42
21.8099	21.9285	77	50
21.9285	22.0472	80	41
22.0472	22.2845	61	42
22.0472	22.1658	73	40
22.0472	22.1658	77	48
22.1658	22.2845	80	39
22.2845	22.7606	63	44
22.2845	22.4027	72	37
22.2845	22.4027	78	44
22.4027	22.5215	80	38
22.5215	22.6408	72	37
22.5215	22.6408	78	45
22.6408	22.7606	80	37
22.7606	23.002	64	40
22.7606	22.881	72	37
22.7606	22.881	78	45
22.881	23.002	80	38
23.002	23.0625	61	35
23.002	23.0625	65	41
23.002	23.2441	73	37
23.002	23.2441	77	37
23.002	23.2441	80	44
23.2441	23.3053	49	33
23.4887	23.5518	49	33
23.741	23.8014	61	31
23.744	23.8044	65	38
23.9825	24.0439	49	33
24.2282	24.291	49	33
24.4165	24.5961	73	48
24.4479	24.5961	77	48
24.4793	24.5377	61	33
24.4793	24.5377	65	39
24.4793	24.5961	80	60
24.7129	24.7706	49	33
24.7129	24.8283	78	48
24.8283	24.9436	77	48
24.9436	25.004	49	33
24.9436	25.0644	75	48
25.0644	25.1851	73	48
25.1248	25.3014	68	48
25.1549	25.3014	72	48
25.1851	25.2433	61	34
25.1851	25.2433	66	40
25.1851	25.3014	75	58
25.4177	25.4754	49	33
25.4177	25.5331	73	48
25.5331	25.6485	72	48
25.6485	25.7083	49	33
25.6485	25.7682	70	48
25.7682	25.8879	68	48
25.8281	26.0097	73	48
25.858	26.0097	77	48
25.8879	25.9488	61	33
25.8879	25.9488	65	39
25.8879	26.0097	80	63
26.1315	26.1892	49	34
26.1315	26.2469	78	50
26.2469	26.3622	77	53
26.3622	26.4199	49	39
26.3622	26.4776	75	56
26.4776	26.593	73	60
26.593	26.6528	61	37
26.593	26.6528	66	45
26.593	26.6528	78	68
26.593	26.6528	82	68
26.593	26.6528	85	68
26.8335	26.8941	49	33
26.8335	26.8941	78	61
26.8335	26.8941	82	61
26.8335	26.8941	85	61
27.077	27.1385	49	33
27.077	27.1385	78	61
27.077	27.1385	82	61
27.077	27.1385	85	61
27.3227	28.0404	58	33
27.3227	28.0404	61	33
27.3227	28.0404	66	39
27.5563	27.7958	49	30
27.7958	28.0511	49	30
28.0404	28.7572	58	30
28.0404	28.7572	61	30
28.0404	28.7572	66	36
28.273	28.5125	49	30
28.5125	28.7572	49	30
28.7572	29.4639	56	29
28.7572	29.4639	61	35
28.7572	29.2274	65	58
28.9368	29.4639	68	38
28.9909	29.2274	49	29
28.9909	29.4639	66	49
29.2274	29.4639	49	29
29.2274	29.4639	65	49
29.4639	29.7251	54	30
29.4639	29.7251	58	36
29.4639	29.7251	63	57
29.6974	29.926	42	29
29.6974	30.1531	65	49
29.8118	30.1531	66	49
29.926	30.1531	42	29
29.926	30.1531	68	51
30.0398	30.1531	70	52
30.1531	30.4077	63	29
30.1531	30.4077	66	35
30.1531	30.4077	72	62
30.3857	30.6146	56	29
30.3857	30.8434	70	59
30.5001	30.8434	72	55
30.6146	30.8434	56	29
30.6146	30.8434	73	57
30.729	30.8434	75	59
30.8434	31.0849	61	29
30.8434	31.0849	65	35
30.8434	30.9038	77	63
31.0849	31.3264	49	29
31.0849	31.1453	77	53
31.3264	31.5637	49	29
31.3264	31.3858	77	52
31.5637	31.6244	61	30
31.5637	31.6244	65	36
31.8063	31.8677	49	30
32.052	32.115	49	30
32.3042	32.3646	61	30
32.3072	32.3676	65	37
32.5457	32.6072	49	33
32.7914	32.8542	49	33
32.9798	33.1603	73	48
33.0112	33.1603	77	48
33.0426	33.1014	61	33
33.0426	33.1014	65	39
33.0426	33.1603	80	60
33.2781	33.3357	49	33
33.2781	33.3934	78	48
33.3934	33.5088	77	48
33.5088	33.5684	49	33
33.5088	33.628	75	48
33.628	33.7473	73	48
33.6876	33.8636	68	48
33.7174	33.8636	72	48
33.7473	33.8054	61	34
33.7473	33.8054	66	40
33.7473	33.8636	75	58
33.9799	34.0375	49	33
33.9799	34.0952	73	48
34.0952	34.2106	72	48
34.2106	34.2707	49	33
34.2106	34.3308	70	48
34.3308	34.4511	68	48
34.3909	34.5729	73	48
34.421	34.5729	77	48
34.4511	34.512	61	33
34.4511	34.512	65	39
34.4511	34.5729	80	63
34.6947	34.7523	49	34
34.6947	34.81	78	50
34.81	34.9254	77	53
34.9254	34.9831	49	39
34.9254	35.0407	75	56
35.0407	35.1561	73	60
35.1561	35.2167	61	37
35.1561	35.2167	66	45
35.1561	35.2167	78	68
35.1561	35.2167	81	68
35.1561	35.2167	85	68
35.3986	35.4593	49	33
35.3986	35.4593	78	61
35.3986	35.4593	81	61
35.3986	35.4593	85	61
35.6412	35.7029	49	33
35.6412	35.7029	78	61
35.6412	35.7029	81	61
35.6412	35.7029	85	61
35.8879	36.6108	57	33
35.8879	36.6108	61	33
35.8879	36.6108	66	39
36.1215	36.364	54	30
36.364	36.6331	54	30
36.6108	37.3349	57	30
36.6108	37.3349	61	30
36.6108	37.3349	66	36
36.8434	37.0859	54	30
37.0859	37.3349	54	30
37.3349	38.0426	57	29
37.3349	38.0426	61	29
37.3349	38.0426	66	35
37.3349	37.8061	73	63
37.5152	38.0426	76	45
37.5696	37.8061	54	29
37.5696	38.0426	74	53
37.8061	38.0426	54	29
37.8061	38.0426	73	53
38.0426	38.2733	62	30
38.0426	38.2733	66	36
38.0426	38.2733	71	62
38.2733	38.5021	50	29
38.2733	38.731	73	53
38.3877	38.731	74	53
38.5021	38.731	50	29
38.5021	38.731	76	56
38.6165	38.731	78	57
38.731	38.9903	62	29
38.731	38.9903	64	35
38.731	38.9903	80	62
38.9626	39.1915	52	29
38.9626	39.426	78	63
39.077	39.426	80	51
39.1915	39.426	52	29
39.1915	39.426	81	55
39.3087	39.426	83	58
39.426	39.6665	61	29
39.426	39.6665	64	35
39.426	39.4861	85	62
39.6665	39.907	57	29
39.6665	39.7266	85	58
39.907	40.1443	57	29
39.907	39.9663	85	57
40.1443	40.2049	61	30
40.1443	40.2049	64	36
40.3868	40.4475	57	30
40.6294	40.6924	57	31
40.8816	41.5911	61	29
40.8816	41.5911	64	35
40.8816	41.1181	73	63
41.1181	41.3546	57	29
41.1181	41.3546	73	53
41.3546	41.5911	57	29
41.3546	41.5911	73	53
41.5911	41.8323	61	30
41.5911	41.8323	64	36
41.5911	41.8323	73	62
41.8218	42.0525	58	29
41.8218	42.1678	76	53
41.9371	42.2832	74	53
42.0525	42.2832	58	29
42.0525	42.2832	73	56
42.1678	42.2832	76	57
42.2832	42.5168	62	29
42.2832	42.5168	64	35
42.2832	42.3416	74	62
42.5168	42.7465	59	29
42.5168	42.5742	74	62
42.7465	42.987	59	29
42.7465	42.8066	74	60
42.987	43.2285	62	29
42.987	43.2285	64	35
42.987	43.0474	86	62
43.2285	43.47	59	29
43.2285	43.2889	86	58
43.47	43.7073	59	29
43.47	43.5294	86	57
43.7073	43.768	62	26
43.7073	43.768	64	30
43.9499	44.0105	59	27
44.1924	44.2555	59	27
44.4447	45.1541	62	29
44.4447	45.1541	64	35
44.4447	44.6812	74	63
44.6812	44.9176	59	29
44.6812	44.9176	74	53
44.9176	45.1541	59	29
44.9176	45.1541	74	53
45.1541	45.4125	62	30
45.1541	45.4125	65	36
45.1541	45.4125	74	62
45.3848	45.6137	59	29
45.3848	45.7281	77	53
45.4992	45.8425	76	53
45.6137	45.8425	59	29
45.6137	45.8425	74	56
45.7281	45.8425	77	57
45.8425	46.077	62	29
45.8425	46.077	65	35
45.8425	45.9011	74	62
46.077	46.305	59	29
46.077	46.134	74	62
46.305	46.5561	59	29
46.305	46.3677	74	62
46.5561	46.7976	62	29
46.5561	46.7976	65	35
46.5561	46.6165	86	62
46.7976	47.0433	59	29
46.7976	46.859	86	58
47.0433	47.2944	59	29
47.0433	47.1061	86	57
47.2944	47.528	59	31
47.2944	47.528	62	38
47.2944	47.5387	74	66
47.4112	47.5387	65	31
47.528	47.7557	59	27
47.528	47.7557	62	33
47.528	47.7615	73	62
47.6448	47.7615	65	31
47.7615	48.001	59	27
47.7615	48.001	62	33
47.7615	48.001	74	62
47.8813	48.001	65	31
48.001	48.2336	58	31
48.001	48.2336	62	38
48.001	48.2608	86	66
48.1173	48.2608	65	31
48.2336	48.4595	58	27
48.2336	48.4595	62	33
48.2336	48.4662	85	62
48.3499	48.4662	65	31
48.4662	48.7057	58	27
48.4662	48.7057	62	33
48.4662	48.7057	86	62
48.586	48.7057	65	31
48.7057	48.9366	58	37
48.7057	48.9366	62	45
48.7057	48.9703	82	64
48.8212	48.9703	65	30
48.9366	49.1675	58	29
48.9366	49.1675	62	35
48.9366	49.1944	81	56
49.0521	49.1944	65	29
49.1675	49.3984	58	29
49.1675	49.3984	62	35
49.1675	49.3984	82	57
49.283	49.3984	65	30
49.3984	49.6265	58	35
49.3984	49.6265	63	41
49.3984	49.6869	79	61
49.5125	49.6869	67	31
49.6265	49.8528	58	30
49.6265	49.8528	63	36
49.6265	50.0792	81	57
49.7397	49.966	67	30
49.7397	50.0792	82	58
49.8528	50.0792	58	30
49.8528	50.0792	63	36
49.8528	50.0792	84	61
49.966	50.0792	67	30
49.966	50.0792	86	62
50.0792	50.3082	58	42
50.0792	50.3082	62	51
50.0792	50.3611	82	68
50.1937	50.3611	65	33
50.3082	50.5346	58	30
50.3082	50.5346	62	37
50.3082	50.7879	84	69
50.4214	50.6477	65	31
50.4214	50.7879	82	60
50.5346	50.7879	58	31
50.5346	50.7879	62	38
50.5346	50.7879	81	66
50.6477	50.7879	65	31
50.6477	50.7879	79	61
50.7609	50.8768	57	38
50.7609	50.8768	63	46
50.7609	50.8189	77	72
50.8768	50.9928	65	34
50.9928	51.1087	57	31
50.9928	51.1087	63	38
50.9928	51.0507	77	67
51.1087	51.2246	65	35
51.2246	51.3433	57	33
51.2246	51.3433	63	39
51.2246	51.284	77	67
51.3433	51.4619	65	34
51.4619	51.6938	57	42
51.4619	51.6938	63	50
51.4619	51.9189	78	82
51.5779	51.8097	66	35
51.6938	51.9189	57	34
51.6938	51.9189	63	40
51.6938	51.9256	90	78
51.8097	51.9256	66	35
51.9256	52.0438	57	34
51.9256	52.0438	63	40
51.9256	51.9847	90	79
52.0438	52.6218	66	36
52.162	52.3939	58	40
52.162	52.3939	63	48
52.162	52.6218	91	90
52.2779	52.5098	67	36
52.3939	52.6218	58	35
52.3939	52.6218	63	41
52.3939	52.6257	79	72
52.5098	52.6257	67	36
52.6257	52.7416	58	35
52.6257	52.7416	63	41
52.6257	52.6837	79	72
52.7416	52.8575	67	36
52.8575	52.9735	60	42
52.8575	52.9735	63	50
52.8575	52.9155	81	77
52.9735	53.2026	67	37
53.0604	53.5448	94	73
53.0894	53.3157	60	36
53.0894	53.3157	63	42
53.0894	53.3157	93	77
53.2026	53.4303	67	37
53.2026	53.5448	91	74
53.3157	53.5448	60	37
53.3157	53.5448	63	44
53.3157	53.5448	93	78
53.4303	53.5448	67	38
53.5448	53.6593	55	42
53.5448	53.6593	62	51
53.5448	53.6021	94	81
53.6593	53.887	67	38
53.7453	54.2423	84	72
53.7739	54.0002	55	37
53.7739	54.0002	62	44
53.7739	54.0002	82	75
53.887	54.1213	67	38
53.887	54.2423	81	71
54.0002	54.2423	55	37
54.0002	54.2423	62	44
54.0002	54.2423	82	77
54.1213	54.2423	67	39
54.2423	54.475	63	73
54.2423	54.3587	75	52
54.2423	54.3587	79	62
54.3587	54.475	82	55
54.475	54.7078	62	62
54.475	54.5914	75	53
54.475	54.5914	79	63
54.5914	54.7078	82	53
54.7078	54.9405	63	62
54.7078	54.8241	75	53
54.7078	54.8241	79	63
54.8241	54.9405	82	55
54.9405	55.1687	60	73
54.9405	55.0546	75	55
54.9405	55.0546	79	64
55.0546	55.1687	84	55
55.1687	55.2818	62	59
55.1687	55.2818	75	53
55.1687	55.2818	79	63
55.2818	55.395	63	59
55.2818	55.395	84	53
55.395	55.5082	65	62
55.395	55.5082	75	53
55.395	55.5082	79	63
55.5082	55.6213	67	62
55.5082	55.6213	84	53
55.6213	55.8504	63	71
55.6213	55.7359	75	57
55.6213	55.7359	79	68
55.7359	55.8504	82	55
55.8504	55.9636	65	68
55.8504	55.9636	75	53
55.8504	55.9636	79	63
55.9636	56.0767	63	62
55.9636	56.0767	82	53
56.0767	56.1899	62	68
56.0767	56.1899	75	53
56.0767	56.1899	79	63
56.1899	56.3031	60	62
56.1899	56.3031	82	53
56.3031	56.361	58	72
56.3031	56.419	74	61
56.3031	56.419	80	72
56.419	56.5349	82	55
56.5349	56.5929	58	62
56.5349	56.6508	74	53
56.5349	56.6508	80	63
56.6508	56.7668	82	57
56.7668	56.8259	58	62
56.7668	56.885	74	53
56.7668	56.885	80	63
56.885	57.0032	82	55
57.0032	57.235	59	71
57.0032	57.1191	74	58
57.0032	57.1191	80	69
57.1191	57.235	86	55
57.235	57.4669	71	59
57.235	57.351	74	53
57.235	57.351	80	63
57.351	57.4669	86	55
57.4669	57.5262	71	63
57.4669	57.5855	74	53
57.4669	57.5855	80	63
57.5855	57.7042	86	55
57.7042	57.936	72	73
57.7042	57.8201	75	57
57.7042	57.8201	79	68
57.8201	57.936	87	55
57.936	58.1679	60	69
57.936	58.052	75	53
57.936	58.052	79	63
58.052	58.1679	87	55
58.1679	58.2258	60	71
58.1679	58.2838	75	53
58.1679	58.2838	79	63
58.2838	58.3997	86	55
58.3997	58.4577	65	78
58.3997	58.5157	75	53
58.3997	58.5157	81	63
58.5157	58.6316	84	55
58.5736	58.6504	55	69
58.6316	58.7636	53	79
58.6316	58.7447	75	53
58.6316	58.7447	81	63
58.7447	58.8784	52	73
58.7447	58.8579	84	55
58.8579	59.1038	53	78
58.8579	58.9808	75	53
58.8579	58.9808	81	63
58.9808	59.1038	84	55
59.1038	59.1615	58	73
59.1038	59.2193	74	53
59.1038	59.2193	82	63
59.2193	59.3347	86	55
59.277	59.3536	48	64
59.3347	59.4667	46	73
59.3347	59.4478	74	53
59.3347	59.4478	82	63
59.4478	59.582	45	68
59.4478	59.561	86	55
59.561	59.8132	46	73
59.561	59.6871	74	53
59.561	59.6871	82	63
59.6871	59.8132	86	55
59.8132	60.0876	41	66
59.8132	60.0414	75	55
59.8132	60.0414	81	64
59.9273	60.0876	84	55
60.0414	60.5022	43	52
60.0414	60.2677	75	53
60.0414	60.2677	81	63
60.1545	60.5022	45	52
60.1545	60.385	84	53
60.2677	60.5022	46	56
60.2677	60.5022	75	53
60.2677	60.5022	81	63
60.385	60.5022	48	56
60.385	60.5022	84	53
60.5022	60.7417	46	63
60.5022	60.6213	74	57
60.5022	60.6213	82	68
60.6213	60.7417	86	55
60.7417	60.9848	46	63
60.7417	60.8628	74	53
60.7417	60.8628	82	63
60.8628	60.9848	86	53
60.9848	61.2305	46	63
60.9848	61.1077	74	53
60.9848	61.1077	82	63
61.1077	61.2305	86	53
61.2305	61.5117	53	59
61.2305	61.465	75	49
61.2305	61.465	81	58
61.3478	61.5117	84	49
61.465	61.9274	55	47
61.465	61.6939	75	48
61.465	61.6939	81	57
61.5794	61.9274	57	47
61.5794	61.8106	84	48
61.6939	61.9274	58	49
61.6939	61.9274	75	48
61.6939	61.9274	81	57
61.8106	61.9274	60	49
61.8106	61.9274	84	48
61.9274	62.171	58	57
61.9274	62.0489	74	50
61.9274	62.0489	82	60
62.0489	62.171	86	49
62.171	62.4171	58	57
62.171	62.2941	74	48
62.171	62.2941	82	57
62.2941	62.4171	86	48
62.4171	62.666	58	57
62.4171	62.5416	74	48
62.4171	62.5416	82	57
62.5416	62.666	86	48
62.666	62.9553	65	52
62.666	62.9086	75	42
62.666	62.9086	81	51
62.7873	62.9553	84	44
62.9086	63.3789	67	41
62.9086	63.1374	75	42
62.9086	63.1374	81	50
63.023	63.3789	69	41
63.023	63.2582	84	42
63.1374	63.3789	70	44
63.1374	63.3789	75	42
63.1374	63.3789	81	50
63.2582	63.3789	72	44
63.2582	63.3789	84	42
63.3789	63.6289	70	50
63.3789	63.5039	74	45
63.3789	63.5039	82	53
63.5039	63.6289	86	44
63.6289	63.8789	70	50
63.6289	63.7539	74	42
63.6289	63.7539	82	50
63.7539	63.8789	86	42
63.8789	64.2014	70	50
63.8789	64.2014	74	42
63.8789	64.2014	82	50
64.2014	64.4238	63	35
64.2014	64.4238	67	41
64.2014	64.4238	82	66
64.3244	64.5607	70	33
64.3859	64.6872	80	57
64.4474	64.6738	63	31
64.4474	64.6738	67	38
64.4474	64.6738	79	67
64.5607	64.6872	70	33
64.5607	64.6872	77	62
64.6738	64.9029	63	31
64.6738	64.9029	67	38
64.6738	64.9029	79	66
64.7884	64.9029	70	33
64.9029	65.1118	62	31
64.9029	65.1118	65	38
64.9029	65.1118	82	66
65.0235	65.2572	70	33
65.0837	65.3947	79	57
65.144	65.3947	62	31
65.144	65.3704	65	38
65.144	65.3704	77	67
65.2572	65.3947	70	33
65.2572	65.3947	76	62
65.3704	65.619	61	31
65.3704	65.6039	65	38
65.3704	65.619	77	66
65.4872	65.619	70	33
65.6039	65.845	60	31
65.6039	65.845	65	38
65.6039	65.8555	84	69
65.7245	65.8555	68	33
65.845	66.0714	60	31
65.845	66.0714	65	38
65.845	66.3109	82	70
65.9583	66.1912	68	33
65.9583	66.3109	80	64
66.0714	66.3109	60	31
66.0714	66.3109	65	38
66.0714	66.3109	79	69
66.1912	66.3109	68	33
66.1912	66.3109	77	69
66.3109	66.5566	60	31
66.3109	66.5625	65	38
66.3109	66.5625	84	69
66.4338	66.5625	67	33
66.5566	66.7931	60	31
66.5566	66.7931	64	38
66.5566	66.7931	72	67
66.6749	66.9114	67	33
66.7931	67.0296	60	31
66.7931	67.0296	64	38
66.7931	67.0296	72	67
66.9114	67.0296	67	36
67.0296	67.7513	56	44
67.0296	67.2701	60	52
67.0296	67.1499	68	44
67.0296	67.1499	72	52
67.1499	67.2701	75	46
67.2701	67.5096	61	48
67.2701	67.3898	68	45
67.2701	67.3898	72	53
67.3898	67.5096	75	45
67.5096	67.7513	60	48
67.5096	67.6309	68	45
67.5096	67.6309	72	53
67.6309	67.7513	75	46
67.7513	68.4688	49	44
67.7513	67.9918	58	52
67.7513	67.8715	68	44
67.7513	67.8715	77	52
67.8715	67.9918	80	46
67.9918	68.2293	53	50
67.9918	68.1105	68	47
67.9918	68.1105	77	56
68.1105	68.2293	80	47
68.2293	68.4688	55	52
68.2293	68.348	68	49
68.2293	68.348	77	58
68.348	68.4688	80	51
68.4084	68.4688	58	47
68.4688	69.9117	51	44
68.4688	68.7061	56	52
68.4688	68.5874	68	44
68.4688	68.5874	72	52
68.5874	68.7061	75	45
68.7061	68.9434	55	45
68.7061	68.8247	68	42
68.7061	68.8247	72	50
68.8247	68.9434	75	41
68.9434	69.187	56	42
68.9434	69.0652	68	40
68.9434	69.0652	72	48
69.0652	69.187	75	39
69.187	69.6676	58	44
69.187	69.3062	67	37
69.187	69.3062	73	44
69.3062	69.4261	75	38
69.4261	69.5465	67	37
69.4261	69.5465	73	45
69.5465	69.6676	75	37
69.6676	69.9117	59	40
69.6676	69.7892	67	37
69.6676	69.7892	73	45
69.7892	69.9117	75	38
69.9117	70.1055	56	35
69.9117	70.1055	60	41
69.9117	70.1055	68	56
69.9117	70.1055	72	56
69.9117	70.1055	75	66
70.0347	70.271	63	33
70.0963	70.3899	73	58
70.1578	70.3842	56	31
70.1578	70.3842	60	38
70.1578	70.3842	72	67
70.271	70.3899	63	33
70.271	70.3899	70	62
70.3842	70.6132	56	31
70.3842	70.6132	60	38
70.3842	70.6132	72	66
70.4987	70.6132	63	33
70.6132	70.8262	55	31
70.6132	70.8262	58	38
70.6132	70.8262	75	66
70.7338	70.9676	63	33
70.7941	71.0609	72	58
70.8543	71.0609	55	31
70.8543	71.0609	58	38
70.8543	71.0609	70	67
70.9676	71.0807	63	33
70.9676	71.0807	69	62
71.0807	71.3143	54	31
71.0807	71.3143	58	38
71.0807	71.3143	70	66
71.1975	71.3143	63	33
71.3143	71.5554	53	31
71.3143	71.5554	58	38
71.3143	71.5875	77	69
71.4348	71.5875	61	33
71.5554	71.7818	53	31
71.5554	71.7818	58	38
71.5554	72.0202	75	70
71.6686	71.901	61	33
71.6686	72.0202	73	64
71.7818	72.0202	53	31
71.7818	72.0202	58	38
71.7818	72.0202	72	69
71.901	72.0202	61	33
71.901	72.0202	70	69
72.0202	72.2638	53	31
72.0202	72.2698	58	38
72.0202	72.2698	77	69
72.142	72.2698	60	33
72.2638	72.5013	53	31
72.2638	72.5013	57	38
72.2638	72.5013	65	67
72.3826	72.6201	60	33
72.5013	72.7388	53	31
72.5013	72.7388	57	38
72.5013	72.7388	65	67
72.6201	72.7388	60	36
72.7388	73.4571	61	44
72.7388	72.9793	65	52
72.7388	72.8591	73	44
72.7388	72.8591	77	52
72.8591	72.9793	80	46
72.9793	73.2188	66	48
72.9793	73.099	73	45
72.9793	73.099	77	53
73.099	73.2188	80	45
73.2188	73.4571	65	48
73.2188	73.338	73	45
73.2188	73.338	77	53
73.338	73.4571	80	46
73.4571	74.1751	54	44
73.4571	73.6997	63	52
73.4571	73.5784	73	44
73.4571	73.5784	82	52
73.5784	73.6997	85	46
73.6997	73.9361	58	50
73.6997	73.8179	73	47
73.6997	73.8179	82	56
73.8179	73.9361	85	47
73.9361	74.1751	60	52
73.9361	74.0544	73	49
73.9361	74.0544	82	58
74.0544	74.1751	85	51
74.1148	74.1751	63	48
74.1751	75.6046	56	44
74.1751	74.4124	61	52
74.1751	74.2938	73	44
74.1751	74.2938	77	52
74.2938	74.4124	80	45
74.4124	74.6497	60	45
74.4124	74.5311	73	42
74.4124	74.5311	77	50
74.5311	74.6497	80	41
74.6497	74.887	61	42
74.6497	74.7684	73	40
74.6497	74.7684	77	48
74.7684	74.887	80	39
74.887	75.3632	63	44
74.887	75.0053	72	37
74.887	75.0053	78	44
75.0053	75.124	80	38
75.124	75.2433	72	37
75.124	75.2433	78	45
75.2433	75.3632	80	37
75.3632	75.6046	64	40
75.3632	75.4836	72	37
75.3632	75.4836	78	45
75.4836	75.6046	80	38
75.6046	75.6661	61	35
75.6046	75.6661	65	41
75.6046	75.8506	73	37
75.6046	75.8506	77	37
75.6046	75.8506	80	44
75.8506	75.9117	49	33
76.0952	76.1583	49	33
76.3475	76.4078	61	31
76.3505	76.4109	65	38
76.589	76.6504	49	33
76.8347	76.8975	49	33
77.023	77.2026	73	48
77.0544	77.2026	77	48
77.0858	77.1442	61	33
77.0858	77.1442	65	39
77.0858	77.2026	80	60
77.3194	77.3771	49	33
77.3194	77.4347	78	48
77.4347	77.5501	77	48
77.5501	77.6105	49	33
77.5501	77.6709	75	48
77.6709	77.7916	73	48
77.7312	77.9079	68	48
77.7614	77.9079	72	48
77.7916	77.8498	61	34
77.7916	77.8498	66	40
77.7916	77.9079	75	58
78.0242	78.0819	49	33
78.0242	78.1396	73	48
78.1396	78.2549	72	48
78.2549	78.3148	49	33
78.2549	78.3747	70	48
78.3747	78.4944	68	48
78.4345	78.6162	73	48
78.4645	78.6162	77	48
78.4944	78.5553	61	33
78.4944	78.5553	65	39
78.4944	78.6162	80	63
78.738	78.7957	49	34
78.738	78.8534	78	50
78.8534	78.9687	77	53
78.9687	79.0264	49	39
78.9687	79.0841	75	56
79.0841	79.1994	73	60
79.1994	79.2601	61	37
79.1994	79.2601	66	45
79.1994	79.2601	78	68
79.1994	79.2601	82	68
79.1994	79.2601	85	68
79.442	79.5026	49	33
79.442	79.5026	78	61
79.442	79.5026	82	61
79.442	79.5026	85	61
79.6845	79.7452	49	33
79.6845	79.7452	78	61
79.6845	79.7452	82	61
79.6845	79.7452	85	61
79.9271	80.6447	58	33
79.9271	80.6447	61	33
79.9271	80.6447	66	39
80.1606	80.4001	49	30
80.4001	80.6447	49	30
80.6447	81.3615	58	30
80.6447	81.3615	61	30
80.6447	81.3615	66	36
80.8773	81.1168	49	30
81.1168	81.3615	49	30
81.3615	82.0682	56	29
81.3615	82.0682	61	35
81.3615	81.8317	65	58
81.5411	82.0682	68	38
81.5952	81.8317	49	29
81.5952	82.0682	66	49
81.8317	82.0682	49	29
81.8317	82.0682	65	49
82.0682	82.3122	54	30
82.0682	82.3122	58	36
82.0682	82.3122	63	57
82.3017	82.5303	42	29
82.3017	82.7574	65	49
82.4162	82.7574	66	49
82.5303	82.7574	42	29
82.5303	82.7574	68	51
82.6441	82.7574	70	52
82.7574	83.0282	63	29
82.7574	83.0282	66	35
82.7574	83.0282	72	62
82.9901	83.2189	56	29
82.9901	83.4477	70	59
83.1045	83.4477	72	55
83.2189	83.4477	56	29
83.2189	83.4477	73	57
83.3333	83.4477	75	59
83.4477	83.6849	61	29
83.4477	83.6849	65	35
83.4477	83.5069	77	63
83.6849	83.9243	49	29
83.6849	83.7445	77	53
83.9243	84.1659	49	29
83.9243	83.9847	77	52
84.1659	84.2265	61	30
84.1659	84.2265	65	36
84.4084	84.4698	49	30
84.6541	84.7172	49	30
84.9063	84.9667	61	30
84.9094	84.9697	65	37
85.1479	85.2093	49	33
85.3936	85.4563	49	33
85.5819	85.7624	73	48
85.6133	85.7624	77	48
85.6447	85.7036	61	33
85.6447	85.7036	65	39
85.6447	85.7624	80	60
85.8802	85.9379	49	33
85.8802	85.9956	78	48
85.9956	86.1109	77	48
86.1109	86.1705	49	33
86.1109	86.2301	75	48
86.2301	86.3494	73	48
86.2898	86.4657	68	48
86.3196	86.4657	72	48
86.3494	86.4075	61	34
86.3494	86.4075	66	40
86.3494	86.4657	75	58
86.582	86.6397	49	33
86.582	86.6973	73	48
86.6973	86.8127	72	48
86.8127	86.8728	49	33
86.8127	86.9329	70	48
86.9329	87.0532	68	48
86.9931	87.175	73	48
87.0231	87.175	77	48
87.0532	87.1141	61	33
87.0532	87.1141	65	39
87.0532	87.175	80	63
87.2968	87.3545	49	34
87.2968	87.4121	78	50
87.4121	87.5275	77	53
87.5275	87.5852	49	39
87.5275	87.6429	75	56
87.6429	87.7597	73	60
87.7597	87.8196	61	37
87.7597	87.8196	66	45
87.7597	87.8196	78	68
87.7597	87.8196	81	68
87.7597	87.8196	85	68
88.0009	88.0618	49	33
88.0009	88.0618	78	61
88.0009	88.0618	81	61
88.0009	88.0618	85	61
88.2459	88.3078	49	33
88.2459	88.3078	78	61
88.2459	88.3078	81	61
88.2459	88.3078	85	61
88.4937	89.2166	57	33
88.4937	89.2166	61	33
88.4937	89.2166	66	39
88.7273	88.9698	54	30
88.9698	89.2166	54	30
89.2166	89.9406	57	30
89.2166	89.9406	61	30
89.2166	89.9406	66	36
89.4492	89.6917	54	30
89.6917	89.9406	54	30
89.9406	90.6483	57	29
89.9406	90.6483	61	29
89.9406	90.6483	66	35
89.9406	90.4118	73	63
90.121	90.6483	76	45
90.1754	90.4118	54	29
90.1754	90.6483	74	53
90.4118	90.6483	54	29
90.4118	90.6483	73	53
90.6483	90.901	62	30
90.6483	90.901	66	36
90.6483	90.901	71	62
90.879	91.1079	50	29
90.879	91.3367	73	53
90.9935	91.3367	74	53
91.1079	91.3367	50	29
91.1079	91.3367	76	56
91.2223	91.3367	78	57
91.3367	91.5903	62	29
91.3367	91.5903	64	35
91.3367	91.5903	80	62
91.5684	91.7972	52	29
91.5684	92.0318	78	63
91.6828	92.0318	80	51
91.7972	92.0318	52	29
91.7972	92.0318	81	55
91.9145	92.0318	83	58
92.0318	92.2636	61	29
92.0318	92.2636	64	35
92.0318	92.0897	85	62
92.2636	92.4955	57	29
92.2636	92.3216	85	58
92.4955	92.7328	57	29
92.4955	92.5548	85	57
92.7328	92.7934	61	30
92.7328	92.7934	64	36
92.9753	93.036	57	30
93.2179	93.2809	57	31
93.4701	94.1796	61	29
93.4701	94.1796	64	35
93.4701	93.7066	73	63
93.7066	93.9431	57	29
93.7066	93.9431	73	53
93.9431	94.1796	57	29
93.9431	94.1796	73	53
94.1796	94.4208	61	30
94.1796	94.4208	64	36
94.1796	94.4208	73	62
94.4103	94.641	58	29
94.4103	94.7564	76	53
94.5256	94.8717	74	53
94.641	94.8717	58	29
94.641	94.8717	73	56
94.7564	94.8717	76	57
94.8717	95.1053	62	29
94.8717	95.1053	64	35
94.8717	94.9301	74	62
95.1053	95.335	59	29
95.1053	95.1627	74	62
95.335	95.5755	59	29
95.335	95.3952	74	60
95.5755	95.813	62	29
95.5755	95.813	64	35
95.5755	95.6349	86	62
95.813	96.0505	59	29
95.813	95.8724	86	58
96.0505	96.2878	59	29
96.0505	96.1098	86	57
96.2878	96.3484	62	26
96.2878	96.3484	64	30
96.5303	96.5909	59	27
96.7728	96.8359	59	27
97.0251	97.7345	62	29
97.0251	97.7345	64	35
97.0251	97.2616	74	63
97.2616	97.4981	59	29
97.2616	97.4981	74	53
97.4981	97.7345	59	29
97.4981	97.7345	74	53
97.7345	97.9653	62	30
97.7345	97.9653	65	36
97.7345	97.9653	74	62
97.9653	98.1941	59	29
97.9653	98.3085	77	53
98.0797	98.4229	76	53
98.1941	98.4229	59	29
98.1941	98.4229	74	56
98.3085	98.4229	77	57
98.4229	98.6575	62	29
98.4229	98.6575	65	35
98.4229	98.4816	74	62
98.6575	98.8854	59	29
98.6575	98.7144	74	62
98.8854	99.1365	59	29
98.8854	98.9482	74	62
99.1365	99.378	62	29
99.1365	99.378	65	35
99.1365	99.1969	86	62
99.378	99.6237	59	29
99.378	99.4395	86	58
99.6237	99.8749	59	29
99.6237	99.6865	86	57
99.8749	100.108	59	31
99.8749	100.108	62	38
99.8749	100.125	74	66
99.9916	100.125	65	31
100.108	100.32	59	27
100.108	100.32	62	33
100.108	100.342	73	62
100.225	100.342	65	31
100.342	100.581	59	27
100.342	100.581	62	33
100.342	100.581	74	62
100.462	100.581	65	31
100.581	100.814	58	31
100.581	100.814	62	38
100.581	100.848	86	66
100.698	100.848	65	31
100.814	101.047	58	27
100.814	101.047	62	33
100.814	101.047	85	62
100.93	101.047	65	31
101.047	101.286	58	27
101.047	101.286	62	33
101.047	101.286	86	62
101.166	101.286	65	31
101.286	101.517	58	37
101.286	101.517	62	45
101.286	101.571	82	64
101.402	101.571	65	30
101.517	101.748	58	29
101.517	101.748	62	35
101.517	101.768	81	56
101.633	101.768	65	29
101.748	101.979	58	29
101.748	101.979	62	35
101.748	101.979	82	57
101.863	101.979	65	30
101.979	102.207	58	35
101.979	102.207	63	41
101.979	102.267	79	61
102.093	102.267	67	31
102.207	102.433	58	30
102.207	102.433	63	36
102.207	102.66	81	57
102.32	102.546	67	30
102.32	102.66	82	58
102.433	102.66	58	30
102.433	102.66	63	36
102.433	102.66	84	61
102.546	102.66	67	30
102.546	102.66	86	62
102.66	102.891	58	42
102.66	102.891	62	51
102.66	102.911	82	68
102.775	102.911	65	33
102.891	103.12	58	30
102.891	103.12	62	37
102.891	103.376	84	69
103.005	103.234	65	31
103.005	103.376	82	60
103.12	103.376	58	31
103.12	103.376	62	38
103.12	103.376	81	66
103.234	103.376	65	31
103.234	103.376	79	61
103.349	103.466	57	38
103.349	103.466	63	46
103.349	103.407	77	72
103.466	103.583	65	34
103.583	103.7	57	31
103.583	103.7	63	38
103.583	103.642	77	67
103.7	103.817	65	35
103.817	103.937	57	33
103.817	103.937	63	39
103.817	103.877	77	67
103.937	104.057	65	34
104.057	104.291	57	42
104.057	104.291	63	50
104.057	104.522	78	82
104.174	104.409	66	35
104.291	104.522	57	34
104.291	104.522	63	40
104.291	104.526	90	78
104.409	104.526	66	35
104.526	104.645	57	34
104.526	104.645	63	40
104.526	104.585	90	79
104.645	104.765	66	36
104.765	104.882	58	40
104.765	104.882	63	48
104.765	105.251	91	90
104.882	105.116	67	36
104.999	105.233	58	35
104.999	105.233	63	41
104.999	105.233	79	72
105.116	105.251	67	36
105.233	105.35	58	35
105.233	105.35	63	41
105.233	105.292	79	72
105.35	105.468	67	36
105.468	105.657	60	42
105.468	105.657	63	50
105.468	105.657	81	77
105.585	105.816	67	37
105.673	106.162	94	73
105.702	105.931	60	36
105.702	105.931	63	42
105.702	105.931	93	77
105.816	106.046	67	37
105.816	106.162	91	74
105.931	106.162	60	37
105.931	106.162	63	44
105.931	106.162	93	78
106.046	106.162	67	38
106.162	106.38	55	42
106.162	106.38	62	51
106.162	106.38	94	81
106.278	106.394	67	38
106.365	106.394	84	72
106.394	106.622	55	37
106.394	106.622	62	44
106.394	106.622	82	75
106.508	106.745	67	38
106.508	106.867	81	71
106.622	106.867	55	37
106.622	106.867	62	44
106.622	106.867	82	77
106.745	106.867	67	39
106.867	107.102	63	73
106.867	106.985	75	52
106.867	106.985	79	62
106.985	107.102	82	55
107.102	107.337	62	62
107.102	107.22	75	53
107.102	107.22	79	63
107.22	107.337	82	53
107.337	107.573	63	62
107.337	107.455	75	53
107.337	107.455	79	63
107.455	107.573	82	55
107.573	107.803	60	73
107.573	107.688	75	55
107.573	107.688	79	64
107.688	107.803	84	55
107.803	107.918	62	59
107.803	107.918	75	53
107.803	107.918	79	63
107.918	108.032	63	59
107.918	108.032	84	53
108.032	108.146	65	62
108.032	108.146	75	53
108.032	108.146	79	63
108.146	108.261	67	62
108.146	108.261	84	53
108.261	108.492	63	71
108.261	108.376	75	57
108.261	108.376	79	68
108.376	108.492	82	55
108.492	108.607	65	68
108.492	108.607	75	53
108.492	108.607	79	63
108.607	108.721	63	62
108.607	108.721	82	53
108.721	108.835	62	68
108.721	108.835	75	53
108.721	108.835	79	63
108.835	108.95	60	62
108.835	108.95	82	53
108.95	109.008	58	72
108.95	109.067	74	61
108.95	109.067	80	72
109.067	109.184	82	55
109.184	109.243	58	62
109.184	109.301	74	53
109.184	109.301	80	63
109.301	109.418	82	57
109.418	109.478	58	62
109.418	109.538	74	53
109.418	109.538	80	63
109.538	109.657	82	55
109.657	109.892	59	71
109.657	109.774	74	58
109.657	109.774	80	69
109.774	109.892	86	55
109.892	110.126	71	59
109.892	110.009	74	53
109.892	110.009	80	63
110.009	110.126	86	55
110.126	110.186	71	63
110.126	110.246	74	53
110.126	110.246	80	63
110.246	110.366	86	55
110.366	110.6	72	73
110.366	110.483	75	57
110.366	110.483	79	68
110.483	110.6	87	55
110.6	110.834	60	69
110.6	110.717	75	53
110.6	110.717	79	63
110.717	110.834	87	55
110.834	110.893	60	71
110.834	110.952	75	53
110.834	110.952	79	63
110.952	111.069	86	55
111.069	111.127	65	78
111.069	111.186	75	53
111.069	111.186	81	63
111.186	111.303	84	55
111.244	111.322	55	69
111.303	111.436	53	79
111.303	111.417	75	53
111.303	111.417	81	63
111.417	111.552	52	73
111.417	111.532	84	55
111.532	111.78	53	78
111.532	111.656	75	53
111.532	111.656	81	63
111.656	111.78	84	55
111.78	111.839	58	73
111.78	111.897	74	53
111.78	111.897	82	63
111.897	112.014	86	55
111.955	112.033	48	66
112.014	112.147	46	73
112.014	112.128	74	53
112.014	112.128	82	63
112.128	112.264	45	68
112.128	112.242	86	55
112.242	112.497	46	73
112.242	112.37	74	53
112.242	112.37	82	63
112.37	112.497	86	55
112.497	112.775	41	66
112.497	112.728	75	55
112.497	112.728	81	64
112.613	112.775	84	55
112.728	113.185	43	52
112.728	112.957	75	53
112.728	112.957	81	63
112.842	113.185	45	52
112.842	113.071	84	53
112.957	113.185	46	56
112.957	113.185	75	53
112.957	113.185	81	63
113.071	113.185	48	56
113.071	113.185	84	53
113.185	113.422	46	63
113.185	113.303	74	57
113.185	113.303	82	68
113.303	113.422	86	55
113.422	113.661	46	63
113.422	113.541	74	53
113.422	113.541	82	63
113.541	113.661	86	53
113.661	113.905	46	63
113.661	113.783	74	53
113.661	113.783	82	63
113.783	113.905	86	53
113.905	114.19	53	59
113.905	114.142	75	49
113.905	114.142	81	58
114.024	114.19	84	49
114.142	114.61	55	47
114.142	114.374	75	48
114.142	114.374	81	57
114.258	114.61	57	47
114.258	114.492	84	48
114.374	114.61	58	49
114.374	114.61	75	48
114.374	114.61	81	57
114.492	114.61	60	49
114.492	114.61	84	48
114.61	114.849	58	57
114.61	114.729	74	50
114.61	114.729	82	60
114.729	114.849	86	49
114.849	115.092	58	57
114.849	114.97	74	48
114.849	114.97	82	57
114.97	115.092	86	48
115.092	115.343	58	57
115.092	115.217	74	48
115.092	115.217	82	57
115.217	115.343	86	48
115.343	115.635	65	52
115.343	115.588	75	42
115.343	115.588	81	51
115.466	115.635	84	44
115.588	116.064	67	41
115.588	115.82	75	42
115.588	115.82	81	50
115.704	116.064	69	41
115.704	115.942	84	42
115.82	116.064	70	44
115.82	116.064	75	42
115.82	116.064	81	50
115.942	116.064	72	44
115.942	116.064	84	42
116.064	116.316	70	50
116.064	116.316	74	45
116.064	116.316	82	53
116.064	116.316	86	53
117.014	117.605	61	53
117.014	117.605	65	53
117.314	117.88	46	53
117.605	118.025	61	53
117.605	118.025	65	53
117.88	118.025	49	61
118.17	118.275	60	41
118.17	118.275	63	49
118.17	118.275	65	49
118.45	118.559	58	42
118.45	118.559	61	50
118.45	118.559	65	50
118.74	119.308	57	45
118.74	119.308	60	53
118.74	119.308	65	53
119.018	119.588	42	53
119.308	119.733	57	45
119.308	119.733	60	53
119.308	119.733	65	53
119.588	119.733	41	61
119.878	119.983	58	41
119.878	119.983	61	49
119.878	119.983	65	49
120.158	120.267	60	42
120.158	120.267	63	50
120.158	120.267	65	50
120.449	121.022	61	53
120.449	121.022	65	53
120.73	121.396	46	53
121.022	121.587	61	53
121.022	121.587	65	53
121.297	121.587	49	61
121.587	121.692	60	41
121.587	121.692	63	49
121.587	121.692	65	49
121.867	121.976	58	42
121.867	121.976	61	50
121.867	121.976	65	50
122.157	122.725	56	38
122.157	122.725	61	45
122.157	122.725	65	45
122.434	123.066	41	45
122.725	123.154	56	38
122.725	123.154	61	45
122.725	123.154	65	45
123.005	123.154	32	51
123.303	123.408	56	34
123.303	123.408	65	41
123.303	123.408	68	41
123.583	123.694	56	35
123.583	123.694	65	42
123.583	123.694	68	42
123.879	124.459	56	38
123.879	124.459	61	45
123.879	124.459	65	45
124.165	124.749	37	45
124.459	125.045	56	38
124.459	125.045	61	45
124.459	125.045	65	45
124.749	124.897	37	46
125.045	125.194	49	38
125.342	125.497	48	35
125.653	126.234	61	53
125.653	126.234	65	53
125.942	126.509	46	53
126.234	126.654	61	53
126.234	126.654	65	53
126.509	126.654	49	61
126.799	126.904	60	41
126.799	126.904	63	49
126.799	126.904	65	49
127.079	127.188	58	42
127.079	127.188	61	50
127.079	127.188	65	50
127.369	127.937	57	45
127.369	127.937	60	53
127.369	127.937	65	53
127.647	128.217	42	53
127.937	128.362	57	45
127.937	128.362	60	53
127.937	128.362	65	53
128.217	128.362	41	61
128.507	128.612	58	41
128.507	128.612	61	49
128.507	128.612	65	49
128.787	128.896	60	42
128.787	128.896	63	50
128.787	128.896	65	50
129.077	129.651	61	53
129.077	129.651	65	53
129.359	130.024	46	53
129.651	130.215	61	53
129.651	130.215	65	53
129.925	130.215	49	61
130.215	130.321	60	41
130.215	130.321	63	49
130.215	130.321	65	49
130.496	130.604	58	42
130.496	130.604	61	50
130.496	130.604	65	50
130.786	131.353	56	38
130.786	131.353	61	45
130.786	131.353	65	45
131.063	131.694	41	45
131.353	131.782	56	38
131.353	131.782	61	45
131.353	131.782	65	45
131.634	131.782	32	51
131.931	132.036	56	34
131.931	132.036	65	41
131.931	132.036	68	41
132.211	132.322	56	35
132.211	132.322	65	42
132.211	132.322	68	42
132.508	133.088	56	38
132.508	133.088	61	45
132.508	133.088	65	45
132.793	133.397	37	45
133.088	133.693	56	38
133.088	133.693	61	45
133.088	133.693	65	45
133.397	133.545	37	46
133.693	133.841	49	38
133.99	134.143	48	35
134.297	134.882	58	45
134.297	134.882	61	53
134.297	134.882	66	53
134.591	135.162	46	53
134.882	135.452	58	47
134.882	135.452	61	56
134.882	135.452	66	56
135.162	135.452	49	64
135.452	135.557	58	45
135.452	135.557	61	53
135.452	135.557	68	53
135.732	135.841	58	47
135.732	135.841	61	56
135.732	135.841	70	56
136.022	136.59	56	51
136.022	136.59	60	60
136.022	136.59	65	60
136.3	136.87	48	61
136.59	137.16	56	50
136.59	137.16	60	59
136.59	137.16	65	59
136.87	137.16	36	70
137.16	137.265	55	47
137.16	137.265	60	56
137.16	137.265	64	56
137.44	137.549	55	48
137.44	137.549	60	57
137.44	137.549	64	57
137.73	138.318	56	45
137.73	138.318	60	53
137.73	138.318	63	53
138.027	138.598	48	51
138.318	138.598	56	45
138.318	138.598	60	53
138.318	138.896	63	53
138.598	138.896	51	42
138.598	138.896	58	37
138.598	138.896	61	44
138.896	139.003	55	41
138.896	139.003	58	49
138.896	139.003	63	49
139.182	139.293	55	42
139.182	139.293	58	50
139.182	139.293	63	50
139.479	140.071	60	45
139.479	140.071	63	53
139.479	140.071	68	53
139.761	140.37	44	53
140.071	140.37	42	57
140.071	140.673	60	50
140.071	140.673	63	59
140.071	140.37	68	59
140.37	140.521	41	50
140.37	140.673	69	56
140.673	140.784	60	41
140.673	140.784	63	49
140.673	140.784	65	49
140.969	141.083	60	42
140.969	141.083	63	50
140.969	141.083	65	50
141.275	141.86	65	53
141.275	141.86	73	53
141.569	142.24	58	53
141.86	142.431	65	53
141.86	142.431	73	53
142.141	142.431	61	61
142.431	142.536	63	49
142.431	142.536	65	49
142.431	142.536	72	49
142.711	142.82	61	42
142.711	142.82	65	50
142.711	142.82	70	50
143.001	143.574	60	45
143.001	143.574	65	53
143.001	143.574	69	53
143.283	143.948	54	53
143.574	144.139	60	45
143.574	144.139	65	53
143.574	144.139	69	53
143.849	144.139	53	61
144.139	144.244	61	41
144.139	144.244	65	49
144.139	144.244	70	49
144.419	144.528	63	42
144.419	144.528	65	50
144.419	144.528	72	50
144.71	145.283	61	53
144.71	145.283	65	53
144.991	145.657	46	53
145.283	145.848	61	53
145.283	145.848	65	53
145.558	145.848	49	61
145.848	145.953	60	41
145.848	145.953	63	49
145.848	145.953	65	49
146.128	146.237	58	42
146.128	146.237	61	50
146.128	146.237	65	50
146.418	147.015	56	38
146.418	147.015	61	45
146.418	147.015	65	45
146.695	147.37	41	53
147.015	147.619	56	38
147.015	147.619	61	45
147.015	147.619	65	45
147.306	147.619	29	60
147.619	147.726	54	34
147.619	147.726	57	41
147.619	147.726	60	41
147.619	147.726	63	41
147.906	148.017	54	35
147.906	148.017	57	35
147.906	148.017	60	42
147.906	148.017	63	42
148.202	148.782	53	38
148.202	148.782	58	45
148.202	148.782	61	45
148.487	149.072	34	45
148.782	149.368	53	38
148.782	149.368	58	45
148.782	149.368	61	45
149.072	149.22	46	46
149.368	149.516	49	38
149.664	149.82	48	35
149.975	150.576	58	45
149.975	150.576	61	53
149.975	150.576	66	53
150.28	150.861	46	53
150.576	151.151	58	47
150.576	151.151	61	56
150.576	151.151	66	56
150.861	151.151	49	64
151.151	151.258	58	45
151.151	151.258	61	53
151.151	151.258	68	53
151.436	151.544	58	47
151.436	151.544	61	56
151.436	151.544	70	56
151.726	152.298	56	51
151.726	152.298	60	60
151.726	152.298	65	60
152.007	152.579	48	61
152.298	152.869	56	50
152.298	152.869	60	59
152.298	152.869	65	59
152.579	152.869	36	70
152.869	152.975	55	47
152.869	152.975	60	56
152.869	152.975	64	56
153.152	153.261	55	48
153.152	153.261	60	57
153.152	153.261	64	57
153.442	154.03	56	45
153.442	154.03	60	53
153.442	154.03	63	53
153.739	154.31	48	51
154.03	154.31	56	45
154.03	154.31	60	53
154.03	154.608	63	53
154.31	154.608	51	42
154.31	154.608	58	37
154.31	154.608	61	44
154.608	154.715	55	41
154.608	154.715	58	49
154.608	154.715	63	49
154.894	155.005	55	42
154.894	155.005	58	50
154.894	155.005	63	50
155.191	155.783	60	45
155.191	155.783	63	53
155.191	155.783	68	53
155.473	156.108	44	53
155.783	156.108	42	57
155.783	156.411	60	50
155.783	156.411	63	50
155.783	156.108	68	59
156.108	156.259	41	50
156.108	156.411	69	56
156.411	156.522	60	41
156.411	156.522	63	41
156.411	156.522	65	49
156.707	156.821	60	42
156.707	156.821	63	42
156.707	156.821	65	50
157.013	157.598	65	53
157.013	157.598	73	53
157.307	157.978	58	53
157.598	158.169	65	53
157.598	158.169	73	53
157.879	158.169	61	61
158.169	158.274	63	41
158.169	158.274	65	49
158.169	158.274	72	49
158.449	158.558	61	42
158.449	158.558	65	50
158.449	158.558	70	50
158.739	159.312	60	45
158.739	159.312	65	53
158.739	159.312	69	53
159.021	159.686	54	53
159.312	159.877	60	45
159.312	159.877	65	53
159.312	159.877	69	53
159.587	159.877	53	61
159.877	159.982	61	41
159.877	159.982	65	49
159.877	159.982	70	49
160.157	160.266	63	42
160.157	160.266	65	50
160.157	160.266	72	50
160.448	161.021	61	53
160.448	161.021	65	53
160.729	161.395	46	53
161.021	161.586	61	53
161.021	161.586	65	53
161.296	161.586	49	61
161.586	161.691	60	41
161.586	161.691	63	49
161.586	161.691	65	49
161.866	161.975	58	42
161.866	161.975	61	50
161.866	161.975	65	50
162.156	162.753	56	38
162.156	162.753	61	45
162.156	162.753	65	45
162.433	163.117	41	53
162.753	163.365	56	38
162.753	163.365	61	45
162.753	163.365	65	45
163.053	163.365	29	60
163.365	163.476	54	34
163.365	163.476	57	34
163.365	163.476	60	41
163.365	163.476	63	41
163.661	163.776	54	35
163.661	163.776	57	35
163.661	163.776	60	42
163.661	163.776	63	42
163.967	164.615	53	38
163.967	164.615	58	45
163.967	164.615	61	45
164.281	165.319	34	45
164.615	165.319	53	38
164.615	165.319	58	45
164.615	165.319	61	45
164.948	165.319	46	46
165.926	166.157	58	37
165.926	166.157	62	45
165.926	166.164	82	64
166.042	166.164	65	30
166.157	166.388	58	29
166.157	166.388	62	35
166.157	166.388	81	56
166.273	166.388	65	29
166.388	166.619	58	29
166.388	166.619	62	35
166.388	166.619	82	56
166.503	166.619	65	30
166.619	166.847	58	34
166.619	166.847	63	40
166.619	166.867	79	60
166.733	166.867	67	30
166.847	167.073	58	29
166.847	167.073	63	35
166.847	167.3	81	55
166.96	167.187	67	29
166.96	167.3	82	56
167.073	167.3	58	29
167.073	167.3	63	35
167.073	167.3	84	58
167.187	167.3	67	29
167.187	167.3	86	59
167.3	167.529	58	40
167.3	167.529	62	48
167.3	167.575	82	63
167.414	167.575	65	30
167.529	167.755	58	29
167.529	167.755	62	35
167.529	168.008	84	64
167.642	167.868	65	29
167.642	168.008	82	56
167.755	168.008	58	29
167.755	168.008	62	35
167.755	168.008	81	60
167.868	168.008	65	29
167.868	168.008	79	56
167.981	168.097	57	35
167.981	168.097	63	41
167.981	168.039	77	66
168.097	168.213	65	30
168.213	168.329	57	29
168.213	168.329	63	35
168.213	168.271	77	60
168.329	168.445	65	31
168.445	168.564	57	29
168.445	168.564	63	35
168.445	168.504	77	59
168.564	168.682	65	30
168.682	168.914	57	37
168.682	168.914	63	44
168.682	169.136	78	72
168.798	169.03	66	30
168.914	169.136	57	29
168.914	169.136	63	35
168.914	169.146	90	68
169.03	169.146	66	30
169.146	169.264	57	29
169.146	169.264	63	35
169.146	169.205	90	68
169.264	169.383	66	30
169.383	169.614	58	35
169.383	169.614	63	41
169.383	169.866	91	77
169.498	169.73	67	30
169.614	169.846	58	29
169.614	169.846	63	35
169.614	169.846	79	60
169.73	169.866	67	30
169.846	169.962	58	29
169.846	169.962	63	35
169.846	169.904	79	60
169.962	170.078	67	30
170.078	170.269	60	35
170.078	170.269	63	41
170.078	170.269	81	63
170.194	170.423	65	30
170.281	170.765	94	54
170.31	170.536	60	29
170.31	170.536	63	35
170.31	170.536	93	62
170.423	170.651	65	30
170.423	170.765	91	60
170.536	170.765	60	29
170.536	170.765	63	35
170.536	170.765	93	62
170.651	170.765	65	30
170.765	170.974	58	35
170.765	170.974	62	41
170.765	170.974	94	64
170.88	171.108	65	30
170.966	171.463	84	53
170.994	171.221	58	29
170.994	171.221	62	35
170.994	171.221	82	60
171.108	171.342	65	30
171.108	171.463	81	56
171.221	171.463	58	29
171.221	171.463	62	35
171.221	171.463	82	60
171.342	171.463	65	30
171.463	171.696	58	57
171.463	171.579	70	40
171.463	171.579	74	48
171.579	171.696	77	42
171.696	171.928	57	48
171.696	171.812	70	41
171.696	171.812	74	49
171.812	171.928	77	41
171.928	172.161	58	48
171.928	172.045	70	41
171.928	172.045	74	49
172.045	172.161	77	42
172.161	172.389	55	57
172.161	172.275	70	42
172.161	172.275	74	50
172.275	172.389	79	42
172.389	172.502	57	46
172.389	172.502	70	41
172.389	172.502	74	49
172.502	172.615	58	46
172.502	172.615	79	41
172.615	172.729	60	48
172.615	172.729	70	41
172.615	172.729	74	49
172.729	172.842	62	48
172.729	172.842	79	41
172.842	173.071	58	55
172.842	172.956	70	44
172.842	172.956	74	52
172.956	173.071	77	42
173.071	173.184	60	52
173.071	173.184	70	41
173.071	173.184	74	49
173.184	173.297	58	48
173.184	173.297	77	41
173.297	173.41	57	52
173.297	173.41	70	41
173.297	173.41	74	49
173.41	173.524	55	48
173.41	173.524	77	41
173.524	173.639	53	56
173.524	173.639	69	47
173.524	173.639	75	56
173.639	173.755	77	42
173.755	173.871	53	48
173.755	173.871	69	41
173.755	173.871	75	49
173.871	173.987	77	44
173.987	174.105	53	48
173.987	174.105	69	41
173.987	174.105	75	49
174.105	174.224	77	42
174.224	174.456	54	61
174.224	174.34	69	45
174.224	174.34	75	53
174.34	174.456	81	42
174.456	174.687	66	46
174.456	174.571	69	41
174.456	174.571	75	49
174.571	174.687	81	42
174.687	174.806	66	49
174.687	174.806	69	41
174.687	174.806	75	49
174.806	174.925	81	42
174.925	175.157	67	61
174.925	175.041	70	44
174.925	175.041	75	52
175.041	175.157	82	42
175.157	175.388	55	53
175.157	175.272	70	41
175.157	175.272	75	49
175.272	175.388	81	42
175.388	175.504	55	55
175.388	175.504	70	41
175.388	175.504	75	49
175.504	175.62	79	42
175.62	175.678	58	60
175.62	175.736	68	41
175.62	175.736	74	49
175.736	175.852	77	42
175.794	175.871	48	46
175.852	175.984	46	55
175.852	175.965	68	41
175.852	175.965	74	49
175.965	176.099	45	50
175.965	176.078	77	42
176.078	176.324	46	53
176.078	176.201	68	41
176.078	176.201	74	49
176.201	176.324	77	42
176.324	176.382	51	50
176.324	176.44	67	41
176.324	176.44	75	49
176.44	176.555	79	42
176.497	176.574	41	46
176.555	176.687	39	50
176.555	176.668	67	41
176.555	176.668	75	49
176.668	176.802	38	47
176.668	176.781	79	42
176.781	176.903	39	50
176.781	176.903	67	41
176.781	176.903	75	49
177.025	177.233	63	35
177.025	177.233	67	41
177.025	177.233	82	66
177.148	177.384	70	33
177.21	177.487	80	56
177.271	177.487	63	31
177.271	177.487	67	38
177.271	177.487	79	67
177.384	177.497	70	33
177.384	177.497	77	62
177.497	177.727	63	31
177.497	177.727	67	38
177.497	177.727	79	66
177.612	177.727	70	33
177.727	177.936	62	31
177.727	177.936	65	38
177.727	177.936	82	66
177.847	178.081	70	33
177.907	178.218	79	57
177.968	178.218	62	31
177.968	178.194	65	38
177.968	178.194	77	67
178.081	178.218	70	33
178.081	178.218	76	62
178.194	178.428	61	31
178.194	178.428	65	38
178.194	178.428	77	66
178.311	178.428	70	33
178.428	178.669	60	31
178.428	178.669	65	38
178.428	178.69	84	69
178.548	178.69	68	33
178.669	178.895	60	31
178.669	178.895	65	38
178.669	179.135	82	70
178.782	179.015	68	33
178.782	179.135	80	64
178.895	179.135	60	31
178.895	179.135	65	38
178.895	179.135	79	69
179.015	179.135	68	33
179.015	179.135	77	69
179.135	179.38	60	31
179.135	179.386	65	38
179.135	179.386	84	69
179.257	179.386	67	33
179.38	179.617	60	31
179.38	179.617	64	38
179.38	179.617	72	67
179.499	179.735	67	33
179.617	179.853	60	31
179.617	179.853	64	38
179.617	179.853	72	67
179.735	179.853	67	36
179.853	180.575	56	44
179.853	180.094	60	52
179.853	179.973	68	44
179.853	179.973	72	52
179.973	180.094	75	46
180.094	180.333	61	48
180.094	180.213	68	45
180.094	180.213	72	53
180.213	180.333	75	45
180.333	180.575	60	48
180.333	180.455	68	45
180.333	180.455	72	53
180.455	180.575	75	46
180.575	181.292	49	44
180.575	180.815	58	52
180.575	180.695	68	44
180.575	180.695	77	52
180.695	180.815	80	46
180.815	181.053	53	50
180.815	180.934	68	47
180.815	180.934	77	56
180.934	181.053	80	47
181.053	181.292	55	52
181.053	181.172	68	49
181.053	181.172	77	58
181.172	181.292	80	51
181.232	181.292	58	49
181.292	182.735	51	44
181.292	181.53	56	52
181.292	181.411	68	44
181.292	181.411	72	52
181.411	181.53	75	45
181.53	181.767	55	45
181.53	181.648	68	42
181.53	181.648	72	50
181.648	181.767	75	41
181.767	182.011	56	42
181.767	181.889	68	40
181.767	181.889	72	48
181.889	182.011	75	39
182.011	182.491	58	44
182.011	182.13	67	37
182.011	182.13	73	44
182.13	182.25	75	38
182.25	182.37	67	37
182.25	182.37	73	45
182.37	182.491	75	37
182.491	182.735	59	40
182.491	182.613	67	37
182.491	182.613	73	45
182.613	182.735	75	38
182.735	182.937	56	35
182.735	182.937	60	41
182.735	182.937	68	56
182.735	182.937	72	56
182.735	182.937	75	66
182.858	183.095	63	33
182.92	183.202	73	58
182.981	183.202	56	31
182.981	183.202	60	38
182.981	183.202	72	67
183.095	183.208	63	33
183.095	183.208	70	62
183.208	183.437	56	31
183.208	183.437	60	38
183.208	183.437	72	66
183.322	183.437	63	33
183.437	183.646	55	31
183.437	183.646	58	38
183.437	183.646	75	66
183.557	183.791	63	33
183.618	183.891	72	58
183.678	183.891	55	31
183.678	183.891	58	38
183.678	183.891	70	67
183.791	183.904	63	33
183.791	183.904	69	62
183.904	184.138	54	31
183.904	184.138	58	38
183.904	184.138	70	66
184.021	184.138	63	33
184.138	184.379	53	31
184.138	184.379	58	38
184.138	184.395	77	69
184.258	184.395	61	33
184.379	184.605	53	31
184.379	184.605	58	38
184.379	184.844	75	70
184.492	184.725	61	33
184.492	184.844	73	64
184.605	184.844	53	31
184.605	184.844	58	38
184.605	184.844	72	69
184.725	184.844	61	33
184.725	184.844	70	69
184.844	185.087	53	31
184.844	185.093	58	38
184.844	185.093	77	69
184.966	185.093	60	33
185.087	185.325	53	31
185.087	185.325	57	38
185.087	185.325	65	67
185.206	185.444	60	33
185.325	185.562	53	31
185.325	185.562	57	38
185.325	185.562	65	67
185.444	185.562	60	36
185.562	186.281	61	44
185.562	185.803	65	52
185.562	185.683	73	44
185.562	185.683	77	52
185.683	185.803	80	46
185.803	186.042	66	48
185.803	185.923	73	45
185.803	185.923	77	53
185.923	186.042	80	45
186.042	186.281	65	48
186.042	186.162	73	45
186.042	186.162	77	53
186.162	186.281	80	46
186.281	186.999	54	44
186.281	186.523	63	52
186.281	186.402	73	44
186.281	186.402	82	52
186.402	186.523	85	46
186.523	186.76	58	50
186.523	186.642	73	47
186.523	186.642	82	56
186.642	186.76	85	47
186.76	186.999	60	52
186.76	186.878	73	49
186.76	186.878	82	58
186.878	186.999	85	51
186.938	186.999	63	49
186.999	188.428	56	44
186.999	187.236	61	52
186.999	187.117	73	44
186.999	187.117	77	52
187.117	187.236	80	45
187.236	187.473	60	45
187.236	187.355	73	42
187.236	187.355	77	50
187.355	187.473	80	41
187.473	187.711	61	42
187.473	187.592	73	40
187.473	187.592	77	48
187.592	187.711	80	39
187.711	188.187	63	44
187.711	187.829	72	37
187.711	187.829	78	44
187.829	187.948	80	38
187.948	188.067	72	37
187.948	188.067	78	45
188.067	188.187	80	37
188.187	188.428	64	40
188.187	188.307	72	37
188.187	188.307	78	45
188.307	188.428	80	38
188.428	188.49	61	35
188.428	188.49	65	41
188.428	188.674	73	37
188.428	188.674	77	37
188.428	188.674	80	44
188.674	188.735	49	33
188.919	188.982	49	33
189.171	189.231	61	31
189.174	189.234	65	38
189.413	189.474	49	33
189.658	189.721	49	33
189.847	190.026	73	48
189.878	190.026	77	48
189.909	189.968	61	33
189.909	189.968	65	39
189.909	190.026	80	60
190.143	190.201	49	33
190.143	190.258	78	48
190.258	190.374	77	48
190.374	190.434	49	33
190.374	190.494	75	48
190.494	190.615	73	48
190.555	190.732	68	48
190.585	190.732	72	48
190.615	190.673	61	34
190.615	190.673	66	40
190.615	190.732	75	58
190.848	190.906	49	33
190.848	190.963	73	48
190.963	191.079	72	48
191.079	191.138	49	33
191.079	191.198	70	48
191.198	191.318	68	48
191.258	191.44	73	48
191.288	191.44	77	48
191.318	191.379	61	33
191.318	191.379	65	39
191.318	191.44	80	63
191.562	191.619	49	34
191.562	191.677	78	50
191.677	191.792	77	53
191.792	191.85	49	39
191.792	191.908	75	56
191.908	192.024	73	60
192.024	192.084	61	37
192.024	192.084	66	45
192.024	192.084	78	68
192.024	192.084	82	68
192.024	192.084	85	68
192.263	192.322	49	33
192.263	192.322	78	61
192.263	192.322	82	61
192.263	192.322	85	61
192.503	192.563	49	33
192.503	192.563	78	61
192.503	192.563	82	61
192.503	192.563	85	61
192.745	193.463	58	33
192.745	193.463	61	33
192.745	193.463	66	39
192.979	193.218	49	30
193.218	193.463	49	30
193.463	194.18	58	30
193.463	194.18	61	30
193.463	194.18	66	36
193.696	193.935	49	30
193.935	194.18	49	30
194.18	194.886	56	29
194.18	194.886	61	35
194.18	194.65	65	58
194.359	194.886	68	40
194.414	194.65	49	29
194.414	194.886	66	49
194.65	194.886	49	29
194.65	194.886	65	49
194.886	195.18	54	30
194.886	195.18	58	36
194.886	195.18	63	57
195.12	195.349	42	29
195.12	195.576	65	49
195.234	195.576	66	49
195.349	195.576	42	29
195.349	195.576	68	51
195.462	195.576	70	52
195.576	195.841	63	29
195.576	195.841	66	35
195.576	195.841	72	62
195.808	196.037	56	29
195.808	196.266	70	59
195.923	196.266	72	55
196.037	196.266	56	29
196.037	196.266	73	57
196.152	196.266	75	59
196.266	196.498	61	29
196.266	196.498	65	35
196.266	196.324	77	63
196.498	196.73	49	29
196.498	196.556	77	53
196.73	196.967	49	29
196.73	196.789	77	52
196.967	197.028	61	30
196.967	197.028	65	36
197.21	197.271	49	30
197.455	197.518	49	30
197.708	197.768	61	30
197.711	197.771	65	37
197.949	198.011	49	33
198.195	198.258	49	33
198.383	198.564	73	48
198.415	198.564	77	48
198.446	198.505	61	33
198.446	198.505	65	39
198.446	198.564	80	60
198.681	198.739	49	33
198.681	198.797	78	48
198.797	198.912	77	48
198.912	198.972	49	33
198.912	199.031	75	48
199.031	199.151	73	48
199.091	199.267	68	48
199.121	199.267	72	48
199.151	199.209	61	34
199.151	199.209	66	40
199.151	199.267	75	58
199.383	199.441	49	33
199.383	199.499	73	48
199.499	199.614	72	48
199.614	199.674	49	33
199.614	199.734	70	48
199.734	199.854	68	48
199.794	199.976	73	48
199.824	199.976	77	48
199.854	199.915	61	33
199.854	199.915	65	39
199.854	199.976	80	63
200.098	200.156	49	34
200.098	200.213	78	50
200.213	200.329	77	53
200.329	200.386	49	39
200.329	200.444	75	56
200.444	200.559	73	60
200.559	200.619	61	37
200.559	200.619	66	45
200.559	200.619	78	68
200.559	200.619	81	68
200.559	200.619	85	68
200.799	200.859	49	33
200.799	200.859	78	61
200.799	200.859	81	61
200.799	200.859	85	61
201.04	201.101	49	33
201.04	201.101	78	61
201.04	201.101	81	61
201.04	201.101	85	61
201.283	202.005	57	33
201.283	202.005	61	33
201.283	202.005	66	39
201.516	201.759	54	30
201.759	202.038	54	30
202.005	202.73	57	30
202.005	202.73	61	30
202.005	202.73	66	36
202.238	202.481	54	30
202.481	202.73	54	30
202.73	203.437	57	29
202.73	203.437	61	29
202.73	203.437	66	35
202.73	203.201	73	63
202.91	203.437	76	45
202.964	203.201	54	29
202.964	203.437	74	53
203.201	203.437	54	29
203.201	203.437	73	53
203.437	203.668	62	30
203.437	203.668	66	36
203.437	203.668	71	62
203.668	203.897	50	29
203.668	204.126	73	53
203.782	204.126	74	53
203.897	204.126	50	29
203.897	204.126	76	56
204.011	204.126	78	57
204.126	204.39	62	29
204.126	204.39	64	35
204.126	204.39	80	62
204.357	204.586	52	29
204.357	204.821	78	63
204.472	204.821	80	51
204.586	204.821	52	29
204.586	204.821	81	55
204.703	204.821	83	58
204.821	205.053	61	29
204.821	205.053	64	35
204.821	204.879	85	62
205.053	205.284	57	29
205.053	205.111	85	58
205.284	205.522	57	29
205.284	205.344	85	57
205.522	205.582	61	30
205.522	205.582	64	36
205.764	205.825	57	30
206.007	206.07	57	31
206.259	206.968	61	29
206.259	206.968	64	35
206.259	206.496	73	63
206.496	206.732	57	29
206.496	206.732	73	53
206.732	206.968	57	29
206.732	206.968	73	53
206.968	207.232	61	30
206.968	207.232	64	36
206.968	207.232	73	62
207.199	207.43	58	29
207.199	207.545	76	53
207.315	207.661	74	53
207.43	207.661	58	29
207.43	207.661	73	56
207.545	207.661	76	57
207.661	207.894	62	29
207.661	207.894	64	35
207.661	207.719	74	62
207.894	208.124	59	29
207.894	207.952	74	62
208.124	208.364	59	29
208.124	208.184	74	60
208.364	208.602	62	29
208.364	208.602	64	35
208.364	208.424	86	62
208.602	208.839	59	29
208.602	208.661	86	58
208.839	209.077	59	29
208.839	208.899	86	57
209.077	209.137	62	26
209.077	209.137	64	30
209.319	209.38	59	27
209.562	209.625	59	27
209.814	210.523	62	29
209.814	210.523	64	35
209.814	210.051	74	63
210.051	210.287	59	29
210.051	210.287	74	53
210.287	210.523	59	29
210.287	210.523	74	53
210.523	210.782	62	30
210.523	210.782	65	36
210.523	210.782	74	62
210.754	210.983	59	29
210.754	211.097	77	53
210.869	211.212	76	53
210.983	211.212	59	29
210.983	211.212	74	56
211.097	211.212	77	57
211.212	211.446	62	29
211.212	211.446	65	35
211.212	211.271	74	62
211.446	211.674	59	29
211.446	211.503	74	62
211.674	211.925	59	29
211.674	211.737	74	62
211.925	212.167	62	29
211.925	212.167	65	35
211.925	211.986	86	62
212.167	212.413	59	29
212.167	212.228	86	58
212.413	212.664	59	29
212.413	212.475	86	57
212.664	212.897	59	31
212.664	212.897	62	38
212.664	212.942	74	66
212.781	212.942	65	31
212.897	213.131	59	27
212.897	213.131	62	33
212.897	213.137	73	62
213.014	213.137	65	31
213.131	213.37	59	27
213.131	213.37	62	33
213.131	213.37	74	62
213.251	213.37	65	31
213.37	213.603	58	31
213.37	213.603	62	38
213.37	213.637	86	66
213.487	213.637	65	31
213.603	213.836	58	27
213.603	213.836	62	33
213.603	213.843	85	62
213.719	213.843	65	31
213.836	214.075	58	27
213.836	214.075	62	33
213.836	214.075	86	62
213.955	214.075	65	31
214.075	214.306	58	37
214.075	214.306	62	45
214.075	214.353	82	64
214.191	214.353	65	30
214.306	214.537	58	29
214.306	214.537	62	35
214.306	214.544	81	56
214.421	214.544	65	29
214.537	214.768	58	29
214.537	214.768	62	35
214.537	214.768	82	57
214.652	214.768	65	30
214.768	214.996	58	35
214.768	214.996	63	41
214.768	215.036	79	61
214.882	215.036	67	31
214.996	215.222	58	30
214.996	215.222	63	36
214.996	215.449	81	57
215.109	215.335	67	30
215.109	215.449	82	58
215.222	215.449	58	30
215.222	215.449	63	36
215.222	215.449	84	61
215.335	215.449	67	30
215.335	215.449	86	62
215.449	215.68	58	42
215.449	215.68	62	51
215.449	215.68	82	68
215.564	215.68	65	33
215.68	215.909	58	30
215.68	215.909	62	37
215.68	216.165	84	69
215.794	216.023	65	31
215.794	216.165	82	60
215.909	216.165	58	31
215.909	216.165	62	38
215.909	216.165	81	66
216.023	216.165	65	31
216.023	216.165	79	61
216.138	216.255	57	38
216.138	216.255	63	46
216.138	216.196	77	72
216.255	216.372	65	34
216.372	216.489	57	31
216.372	216.489	63	38
216.372	216.43	77	67
216.489	216.606	65	35
216.606	216.726	57	33
216.606	216.726	63	39
216.606	216.666	77	67
216.726	216.846	65	34
216.846	217.08	57	42
216.846	217.08	63	50
216.846	217.322	78	82
216.963	217.198	66	35
217.08	217.315	57	34
217.08	217.315	63	40
217.08	217.315	90	78
217.198	217.322	66	35
217.315	217.434	57	34
217.315	217.434	63	40
217.315	217.374	90	79
217.434	217.554	66	36
217.554	217.671	58	40
217.554	217.671	63	48
217.554	218.026	91	90
217.671	217.905	67	36
217.788	218.022	58	35
217.788	218.022	63	41
217.788	218.022	79	72
217.905	218.026	67	36
218.022	218.139	58	35
218.022	218.139	63	41
218.022	218.081	79	72
218.139	218.257	67	36
218.257	218.491	60	42
218.257	218.491	63	50
218.257	218.315	81	77
218.374	218.605	67	37
218.462	218.951	94	73
218.491	218.72	60	36
218.491	218.72	63	42
218.491	218.72	93	77
218.605	218.835	67	37
218.605	218.951	91	74
218.72	218.951	60	37
218.72	218.951	63	44
218.72	218.951	93	78
218.835	218.951	67	38
218.951	219.067	55	42
218.951	219.067	62	51
218.951	219.009	94	81
219.067	219.297	67	38
219.154	219.656	84	72
219.183	219.411	55	37
219.183	219.411	62	44
219.183	219.411	82	75
219.297	219.534	67	38
219.297	219.656	81	71
219.411	219.656	55	37
219.411	219.656	62	44
219.411	219.656	82	77
219.534	219.656	67	39
219.656	219.891	63	73
219.656	219.774	75	52
219.656	219.774	79	62
219.774	219.891	82	55
219.891	220.126	62	62
219.891	220.009	75	53
219.891	220.009	79	63
220.009	220.126	82	53
220.126	220.362	63	62
220.126	220.244	75	53
220.126	220.244	79	63
220.244	220.362	82	55
220.362	220.592	60	73
220.362	220.477	75	55
220.362	220.477	79	64
220.477	220.592	84	55
220.592	220.707	62	59
220.592	220.707	75	53
220.592	220.707	79	63
220.707	220.821	63	59
220.707	220.821	84	53
220.821	220.935	65	62
220.821	220.935	75	53
220.821	220.935	79	63
220.935	221.05	67	62
220.935	221.05	84	53
221.05	221.281	63	71
221.05	221.165	75	57
221.05	221.165	79	68
221.165	221.281	82	55
221.281	221.396	65	68
221.281	221.396	75	53
221.281	221.396	79	63
221.396	221.51	63	62
221.396	221.51	82	53
221.51	221.624	62	68
221.51	221.624	75	53
221.51	221.624	79	63
221.624	221.74	60	62
221.624	221.74	82	53
221.74	221.798	58	72
221.74	221.857	74	61
221.74	221.857	80	72
221.857	221.975	82	55
221.975	222.035	58	62
221.975	222.094	74	53
221.975	222.094	80	63
222.094	222.214	82	57
222.214	222.274	58	62
222.214	222.334	74	53
222.214	222.334	80	63
222.334	222.454	82	55
222.454	222.688	59	71
222.454	222.571	74	58
222.454	222.571	80	69
222.571	222.688	86	55
222.688	222.923	71	59
222.688	222.806	74	53
222.688	222.806	80	63
222.806	222.923	86	55
222.923	223.043	71	63
222.923	223.043	74	53
222.923	223.043	80	63
223.043	223.163	86	55
223.163	223.397	72	73
223.163	223.28	75	57
223.163	223.28	80	68
223.28	223.397	87	55
223.397	223.631	60	69
223.397	223.514	75	53
223.397	223.514	80	63
223.514	223.631	87	55
223.631	223.748	60	71
223.631	223.748	75	53
223.631	223.748	80	63
223.748	223.866	86	55
223.866	223.924	65	78
223.866	223.983	75	53
223.866	223.983	81	63
223.983	224.1	84	55
224.041	224.119	55	69
224.1	224.233	53	79
224.1	224.214	75	53
224.1	224.214	81	63
224.214	224.349	52	73
224.214	224.329	84	55
224.329	224.577	53	78
224.329	224.453	75	53
224.329	224.453	81	63
224.453	224.577	84	55
224.577	224.635	58	73
224.577	224.694	74	53
224.577	224.694	82	63
224.694	224.81	86	55
224.752	224.83	48	65
224.81	224.944	46	73
224.81	224.925	74	53
224.81	224.925	82	63
224.925	225.06	45	68
224.925	225.039	86	55
225.039	225.294	46	73
225.039	225.167	74	53
225.039	225.167	82	63
225.167	225.294	86	55
225.294	225.571	41	66
225.294	225.525	75	55
225.294	225.525	81	64
225.409	225.571	84	55
225.525	225.982	43	52
225.525	225.753	75	53
225.525	225.753	81	63
225.639	225.982	45	52
225.639	225.868	84	53
225.753	225.982	46	56
225.753	225.982	75	53
225.753	225.982	81	63
225.868	225.982	48	56
225.868	225.982	84	53
225.982	226.218	46	63
225.982	226.1	74	57
225.982	226.1	82	68
226.1	226.218	86	55
226.218	226.456	46	63
226.218	226.337	74	53
226.218	226.337	82	63
226.337	226.456	86	53
226.456	226.7	46	63
226.456	226.578	74	53
226.456	226.578	82	63
226.578	226.7	86	53
226.7	226.984	53	59
226.7	226.937	75	49
226.7	226.937	81	58
226.819	226.984	84	49
226.937	227.405	55	47
226.937	227.169	75	48
226.937	227.169	81	57
227.053	227.405	57	47
227.053	227.287	84	48
227.169	227.405	58	49
227.169	227.405	75	48
227.169	227.405	81	57
227.287	227.405	60	49
227.287	227.405	84	48
227.405	227.643	58	57
227.405	227.523	74	50
227.405	227.523	82	60
227.523	227.643	86	49
227.643	227.883	58	57
227.643	227.763	74	48
227.643	227.763	82	57
227.763	227.883	86	48
227.883	228.135	58	57
227.883	228.009	74	48
227.883	228.009	82	57
228.009	228.135	86	48
228.135	228.427	65	52
228.135	228.38	75	42
228.135	228.38	81	51
228.257	228.427	84	44
228.38	228.812	67	41
228.38	228.611	75	42
228.38	228.611	81	50
228.495	228.812	69	41
228.495	228.733	84	42
228.611	228.812	70	44
228.611	228.812	75	42
228.611	228.812	81	50
228.733	228.855	72	44
228.733	228.855	84	42
228.855	229.108	70	50
228.855	229.108	74	45
228.855	229.108	82	53
228.855	229.108	86	53
229.613	229.866	65	33
229.613	229.866	70	39
229.613	229.866	74	39
229.613	229.866	82	47
229.613	229.866	86	47
230.371	230.628	62	31
230.371	230.628	65	31
230.371	230.628	70	37
230.371	230.628	74	38
230.371	230.628	82	45
230.371	230.628	86	45
231.142	232.169	58	31
231.142	232.169	65	31
231.142	232.169	70	37
231.142	232.169	74	34
231.142	232.169	82	41
231.142	232.169	86	41
