# onset,offset,note,velocity
0.500004	1.482002	63.000000	66.000000
0.500004	1.482002	58.000000	56.000000
0.500004	1.482002	51.000000	41.000000
0.500004	1.482002	55.000000	49.000000
1.482002	2.497232	58.000000	61.000000
1.482002	2.497232	62.000000	72.000000
1.482002	2.497232	53.000000	55.000000
1.482002	2.497232	46.000000	46.000000
2.497232	3.543442	57.000000	57.000000
2.497232	3.543442	60.000000	68.000000
2.497232	3.543442	53.000000	51.000000
2.497232	3.543442	41.000000	43.000000
3.543442	4.562990	58.000000	59.000000
3.543442	4.562990	62.000000	70.000000
3.543442	4.562990	46.000000	45.000000
3.543442	4.562990	53.000000	54.000000
4.562990	5.609200	58.000000	81.000000
4.562990	5.609200	55.000000	68.000000
4.562990	5.609200	51.000000	54.000000
4.562990	5.609200	39.000000	45.000000
5.609200	6.659983	60.000000	82.000000
5.609200	6.659983	56.000000	69.000000
5.609200	6.659983	44.000000	46.000000
5.609200	6.659983	51.000000	55.000000
6.659983	7.734289	56.000000	70.000000
6.659983	7.734289	62.000000	83.000000
6.659983	7.734289	41.000000	50.000000
6.659983	7.734289	46.000000	60.000000
7.734289	8.808595	55.000000	76.000000
7.734289	8.808595	63.000000	86.000000
7.734289	8.808595	39.000000	50.000000
7.734289	8.808595	46.000000	60.000000
8.808595	8.904658	39.000000	39.000000
8.904658	9.000721	46.000000	35.000000
9.000721	9.096785	51.000000	35.000000
9.096785	9.188449	55.000000	39.000000
9.188449	9.280114	58.000000	35.000000
9.280114	9.371779	63.000000	35.000000
9.371779	9.462156	67.000000	50.000000
9.462156	9.551500	70.000000	44.000000
9.551500	9.640080	75.000000	44.000000
9.640080	9.728003	70.000000	54.000000
9.728003	9.815121	67.000000	51.000000
9.815121	9.901636	70.000000	52.000000
9.901636	9.987386	75.000000	61.000000
9.987386	10.072546	79.000000	57.000000
10.072546	10.157800	82.000000	61.000000
10.157800	10.248352	87.000000	67.000000
10.248352	10.345904	91.000000	58.000000
10.345904	10.451529	94.000000	53.000000
10.451529	11.433527	99.000000	60.000000
11.433527	12.462074	63.000000	59.000000
11.433527	12.462074	60.000000	69.000000
11.433527	12.462074	55.000000	49.000000
11.433527	12.462074	48.000000	41.000000
12.462074	13.485968	63.000000	74.000000
12.462074	13.485968	60.000000	62.000000
12.462074	13.485968	56.000000	54.000000
12.462074	13.485968	44.000000	45.000000
13.485968	14.536751	58.000000	75.000000
13.485968	14.536751	43.000000	39.000000
13.485968	14.536751	51.000000	54.000000
14.536751	15.569456	53.000000	61.000000
14.536751	15.569456	58.000000	73.000000
14.536751	15.569456	46.000000	53.000000
14.536751	15.569456	38.000000	44.000000
15.569456	16.638974	51.000000	66.000000
15.569456	16.638974	55.000000	77.000000
15.569456	16.638974	39.000000	45.000000
15.569456	16.638974	46.000000	54.000000
16.638974	17.689757	58.000000	81.000000
16.638974	17.689757	55.000000	68.000000
16.638974	17.689757	40.000000	49.000000
16.638974	17.689757	49.000000	59.000000
17.689757	18.769239	56.000000	68.000000
17.689757	18.769239	53.000000	57.000000
17.689757	18.769239	48.000000	59.000000
17.689757	18.219788	41.000000	66.000000
18.219788	18.769239	44.000000	61.000000
18.769239	19.820022	51.000000	61.000000
18.769239	19.820022	55.000000	73.000000
18.769239	19.820022	36.000000	50.000000
18.769239	19.820022	48.000000	60.000000
19.820022	19.916085	36.000000	39.000000
19.916085	20.012149	48.000000	35.000000
20.012149	20.108212	51.000000	35.000000
20.108212	20.199877	55.000000	39.000000
20.199877	20.291541	60.000000	35.000000
20.291541	20.383206	63.000000	35.000000
20.383206	20.473583	67.000000	50.000000
20.473583	20.562927	72.000000	44.000000
20.562927	20.651507	75.000000	44.000000
20.651507	20.739430	72.000000	54.000000
20.739430	20.826548	67.000000	51.000000
20.826548	20.913063	72.000000	52.000000
20.913063	20.998813	75.000000	61.000000
20.998813	21.083974	79.000000	57.000000
21.083974	21.169228	84.000000	61.000000
21.169228	21.236551	87.000000	67.000000
21.236551	21.307563	91.000000	59.000000
21.307563	21.382879	96.000000	56.000000
21.382879	21.462957	99.000000	55.000000
21.462957	22.444954	103.000000	63.000000
22.444954	23.496676	55.000000	66.000000
22.444954	23.496676	51.000000	55.000000
22.444954	22.970815	48.000000	51.000000
22.970815	23.496676	46.000000	58.000000
23.496676	24.511906	60.000000	74.000000
23.496676	24.511906	56.000000	62.000000
23.496676	24.511906	44.000000	43.000000
23.496676	24.511906	51.000000	51.000000
24.511906	25.562689	60.000000	72.000000
24.511906	25.562689	56.000000	61.000000
24.511906	25.562689	41.000000	41.000000
24.511906	25.562689	50.000000	50.000000
25.562689	26.595394	58.000000	79.000000
25.562689	26.595394	43.000000	45.000000
25.562689	26.595394	51.000000	54.000000
26.595394	27.646177	56.000000	69.000000
26.595394	27.646177	62.000000	82.000000
26.595394	27.646177	53.000000	52.000000
26.595394	27.646177	47.000000	44.000000
27.646177	28.696960	63.000000	86.000000
27.646177	28.696960	55.000000	74.000000
27.646177	28.696960	51.000000	56.000000
27.646177	28.696960	48.000000	48.000000
28.696960	29.766478	60.000000	76.000000
28.696960	29.766478	57.000000	61.000000
28.696960	29.766478	41.000000	41.000000
28.696960	29.766478	51.000000	50.000000
29.766478	30.835996	58.000000	76.000000
29.766478	30.835996	50.000000	52.000000
29.766478	30.835996	46.000000	44.000000
30.835996	30.932059	46.000000	39.000000
30.932059	31.028123	53.000000	35.000000
31.028123	31.124186	58.000000	35.000000
31.124186	31.215850	62.000000	39.000000
31.215850	31.307515	65.000000	35.000000
31.307515	31.399180	70.000000	35.000000
31.399180	31.489557	74.000000	50.000000
31.489557	31.578901	77.000000	44.000000
31.578901	31.667481	82.000000	44.000000
31.667481	31.755404	77.000000	57.000000
31.755404	31.842522	74.000000	54.000000
31.842522	31.929091	77.000000	54.000000
31.929091	32.021037	82.000000	67.000000
32.021037	32.123081	86.000000	63.000000
32.123081	32.234983	89.000000	61.000000
32.234983	33.199614	94.000000	57.000000
33.199614	34.232318	63.000000	80.000000
33.199614	34.232318	60.000000	67.000000
33.199614	34.232318	48.000000	38.000000
33.199614	34.232318	55.000000	45.000000
34.232318	35.260597	62.000000	85.000000
34.232318	35.260597	58.000000	72.000000
34.232318	35.260597	43.000000	43.000000
34.232318	35.260597	55.000000	51.000000
35.260597	36.325368	60.000000	85.000000
35.260597	36.325368	56.000000	71.000000
35.260597	36.325368	44.000000	43.000000
35.260597	36.325368	51.000000	52.000000
36.325368	37.380778	55.000000	76.000000
36.325368	37.380778	58.000000	89.000000
36.325368	37.380778	51.000000	55.000000
36.325368	37.380778	39.000000	46.000000
37.380778	38.431561	55.000000	85.000000
37.380778	38.431561	49.000000	55.000000
37.380778	38.431561	40.000000	44.000000
38.431561	38.959259	53.000000	58.000000
38.431561	38.959259	56.000000	69.000000
38.431561	39.486957	41.000000	38.000000
38.431561	39.486957	48.000000	45.000000
38.959259	39.486957	55.000000	63.000000
39.486957	40.547020	53.000000	60.000000
39.486957	40.547020	50.000000	50.000000
39.486957	40.547020	34.000000	33.000000
39.486957	40.547020	44.000000	39.000000
40.547020	41.607084	51.000000	67.000000
40.547020	41.607084	43.000000	45.000000
40.547020	41.607084	39.000000	38.000000
41.607084	41.703147	39.000000	39.000000
41.703147	41.799210	46.000000	35.000000
41.799210	41.895274	51.000000	35.000000
41.895274	41.986938	55.000000	39.000000
41.986938	42.078603	58.000000	35.000000
42.078603	42.170267	63.000000	35.000000
42.170267	42.260645	67.000000	50.000000
42.260645	42.349989	70.000000	44.000000
42.349989	42.438569	75.000000	44.000000
42.438569	42.526492	70.000000	54.000000
42.526492	42.613610	67.000000	51.000000
42.613610	42.700125	70.000000	52.000000
42.700125	42.785875	75.000000	61.000000
42.785875	42.871035	79.000000	57.000000
42.871035	42.956289	82.000000	61.000000
42.956289	43.046841	87.000000	67.000000
43.046841	43.144393	91.000000	58.000000
43.144393	43.250018	94.000000	53.000000
43.250018	44.232016	99.000000	60.000000
45.186655	45.717947	67.000000	60.000000
45.717947	45.894021	67.000000	54.000000
45.894021	46.754112	67.000000	60.000000
45.894021	46.238055	55.000000	51.000000
45.894021	46.238055	43.000000	44.000000
46.238055	46.582088	55.000000	25.000000
46.238055	46.582088	62.000000	34.000000
46.238055	46.582088	59.000000	25.000000
46.582088	46.924982	55.000000	25.000000
46.582088	46.924982	59.000000	25.000000
46.582088	46.924982	62.000000	34.000000
46.754112	46.924982	66.000000	51.000000
46.924982	47.091279	67.000000	56.000000
46.924982	47.257576	55.000000	25.000000
46.924982	47.257576	62.000000	34.000000
46.924982	47.257576	59.000000	25.000000
47.091279	47.257576	69.000000	51.000000
47.257576	47.423873	71.000000	60.000000
47.257576	47.597278	59.000000	25.000000
47.257576	47.597278	62.000000	34.000000
47.257576	47.597278	55.000000	25.000000
47.423873	47.597278	70.000000	56.000000
47.597278	47.775431	71.000000	54.000000
47.597278	47.953583	55.000000	25.000000
47.597278	47.953583	62.000000	34.000000
47.597278	47.953583	59.000000	25.000000
47.775431	47.953583	72.000000	59.000000
47.953583	48.299602	74.000000	64.000000
47.953583	48.299602	55.000000	51.000000
47.953583	48.299602	43.000000	44.000000
48.299602	48.645620	55.000000	25.000000
48.299602	48.645620	59.000000	25.000000
48.299602	48.645620	62.000000	34.000000
48.645620	48.991639	62.000000	34.000000
48.645620	48.991639	55.000000	25.000000
48.645620	48.991639	59.000000	25.000000
48.991639	49.338476	59.000000	25.000000
48.991639	49.338476	62.000000	34.000000
48.991639	49.338476	55.000000	25.000000
49.338476	49.869755	67.000000	66.000000
49.338476	49.692662	59.000000	25.000000
49.338476	49.692662	62.000000	34.000000
49.338476	49.692662	55.000000	25.000000
49.692662	50.046029	62.000000	34.000000
49.692662	50.046029	59.000000	25.000000
49.692662	50.046029	55.000000	25.000000
49.869755	50.046029	67.000000	58.000000
50.046029	50.911083	67.000000	68.000000
50.046029	50.392048	48.000000	51.000000
50.046029	50.392048	36.000000	44.000000
50.392048	50.738067	63.000000	38.000000
50.392048	50.738067	60.000000	28.000000
50.392048	50.738067	55.000000	28.000000
50.738067	51.083509	55.000000	28.000000
50.738067	51.083509	63.000000	38.000000
50.738067	51.083509	60.000000	28.000000
50.911083	51.083509	66.000000	56.000000
51.083509	51.253574	67.000000	62.000000
51.083509	51.423640	63.000000	38.000000
51.083509	51.423640	55.000000	28.000000
51.083509	51.423640	60.000000	28.000000
51.253574	51.423640	71.000000	59.000000
51.423640	51.593705	72.000000	69.000000
51.423640	51.765179	60.000000	28.000000
51.423640	51.765179	55.000000	28.000000
51.423640	51.765179	63.000000	38.000000
51.593705	51.765179	71.000000	58.000000
51.765179	51.942272	72.000000	67.000000
51.765179	52.118547	55.000000	28.000000
51.765179	52.118547	60.000000	28.000000
51.765179	52.118547	63.000000	38.000000
51.942272	52.118547	74.000000	64.000000
52.118547	52.464579	75.000000	74.000000
52.118547	52.464579	48.000000	51.000000
52.464579	52.810598	63.000000	38.000000
52.464579	52.810598	55.000000	28.000000
52.464579	52.810598	60.000000	28.000000
52.810598	53.156616	55.000000	28.000000
52.810598	53.156616	63.000000	38.000000
52.810598	53.156616	60.000000	28.000000
53.156616	53.503667	60.000000	28.000000
53.156616	53.503667	63.000000	38.000000
53.156616	53.503667	55.000000	28.000000
53.503667	54.038111	72.000000	71.000000
53.503667	53.859959	63.000000	38.000000
53.503667	53.859959	60.000000	28.000000
53.503667	53.859959	55.000000	28.000000
53.859959	54.216264	63.000000	38.000000
53.859959	54.216264	55.000000	28.000000
53.859959	54.216264	60.000000	28.000000
54.038111	54.216264	72.000000	65.000000
54.216264	55.076355	70.000000	71.000000
54.216264	54.560297	34.000000	44.000000
54.216264	54.560297	46.000000	51.000000
54.560297	54.904331	58.000000	32.000000
54.560297	54.904331	62.000000	43.000000
54.560297	54.904331	56.000000	32.000000
54.904331	55.248378	62.000000	43.000000
54.904331	55.248378	56.000000	32.000000
54.904331	55.248378	58.000000	32.000000
55.076355	55.248378	69.000000	57.000000
55.248378	55.415601	70.000000	65.000000
55.248378	55.582823	58.000000	32.000000
55.248378	55.582823	56.000000	32.000000
55.248378	55.582823	62.000000	43.000000
55.415601	55.582823	72.000000	60.000000
55.582823	55.750046	74.000000	70.000000
55.582823	55.919883	58.000000	32.000000
55.582823	55.919883	56.000000	32.000000
55.582823	55.919883	62.000000	43.000000
55.750046	55.919883	73.000000	60.000000
55.919883	56.100168	74.000000	65.000000
55.919883	56.278803	56.000000	32.000000
55.919883	56.278803	58.000000	32.000000
55.919883	56.278803	62.000000	43.000000
56.100168	56.278803	75.000000	69.000000
56.278803	57.138908	77.000000	74.000000
56.278803	56.622850	46.000000	51.000000
56.622850	56.966884	62.000000	43.000000
56.622850	56.966884	58.000000	32.000000
56.622850	56.966884	56.000000	32.000000
56.966884	57.309966	56.000000	32.000000
56.966884	57.309966	62.000000	43.000000
56.966884	57.309966	58.000000	32.000000
57.138908	57.309966	76.000000	56.000000
57.309966	57.477188	77.000000	61.000000
57.309966	57.644411	62.000000	43.000000
57.309966	57.644411	56.000000	32.000000
57.309966	57.644411	58.000000	32.000000
57.477188	57.644411	79.000000	62.000000
57.644411	57.811633	80.000000	64.000000
57.644411	57.978856	58.000000	32.000000
57.644411	57.978856	62.000000	43.000000
57.644411	57.978856	56.000000	32.000000
57.811633	57.978856	79.000000	56.000000
57.978856	58.146078	80.000000	62.000000
57.978856	58.313300	58.000000	32.000000
57.978856	58.313300	62.000000	43.000000
57.978856	58.313300	56.000000	32.000000
58.146078	58.313300	81.000000	58.000000
58.313300	58.480523	82.000000	68.000000
58.313300	58.982190	58.000000	51.000000
58.313300	58.982190	56.000000	51.000000
58.313300	58.982190	62.000000	61.000000
58.480523	58.647745	81.000000	59.000000
58.647745	58.814968	82.000000	63.000000
58.814968	58.982190	84.000000	59.000000
58.982190	59.149413	86.000000	73.000000
59.149413	59.316635	85.000000	61.000000
59.316635	59.490643	86.000000	66.000000
59.490643	59.664665	87.000000	62.000000
59.534149	60.205131	46.000000	48.000000
59.577654	60.246705	53.000000	48.000000
59.621160	60.246705	56.000000	52.000000
59.664665	59.830962	89.000000	72.000000
59.664665	60.246705	62.000000	55.000000
59.830962	59.997259	88.000000	61.000000
59.997259	60.163556	89.000000	64.000000
60.163556	60.329854	91.000000	66.000000
60.205131	60.870319	46.000000	48.000000
60.246705	60.995042	53.000000	52.000000
60.288279	60.995042	56.000000	55.000000
60.329854	60.496151	92.000000	74.000000
60.329854	60.995042	62.000000	58.000000
60.496151	60.662448	91.000000	64.000000
60.662448	60.828745	92.000000	67.000000
60.828745	60.995042	93.000000	62.000000
60.995042	61.161339	94.000000	74.000000
61.161339	61.331123	93.000000	66.000000
61.331123	61.506150	94.000000	68.000000
61.506150	61.679448	96.000000	69.000000
61.549911	62.219914	46.000000	56.000000
61.593671	62.261488	53.000000	56.000000
61.637431	62.261488	56.000000	59.000000
61.679448	61.845745	98.000000	72.000000
61.679448	62.261488	62.000000	62.000000
61.845745	62.012042	99.000000	73.000000
62.012042	62.178339	101.000000	76.000000
62.178339	62.344636	103.000000	77.000000
62.219914	63.626854	46.000000	60.000000
62.261488	63.669568	53.000000	60.000000
62.303062	63.669568	56.000000	62.000000
62.344636	62.508211	104.000000	79.000000
62.344636	63.669568	62.000000	65.000000
62.508211	62.671786	101.000000	78.000000
62.671786	62.835360	98.000000	76.000000
62.835360	62.999485	94.000000	75.000000
62.999485	63.110354	92.000000	73.000000
63.110354	63.220727	89.000000	71.000000
63.220727	63.331717	86.000000	70.000000
63.331717	63.443444	82.000000	68.000000
63.443444	63.556057	80.000000	67.000000
63.556057	63.669568	77.000000	65.000000
63.669568	63.745394	74.000000	63.000000
63.745394	63.823634	70.000000	61.000000
63.823634	63.901418	68.000000	63.000000
63.901418	63.980222	65.000000	66.000000
63.980222	64.061600	62.000000	68.000000
64.061600	64.142576	58.000000	69.000000
64.142576	64.225698	56.000000	72.000000
64.225698	64.318006	53.000000	74.000000
64.318006	64.480776	50.000000	76.000000
64.480776	64.893434	34.000000	76.000000
64.480776	64.893434	46.000000	81.000000
65.978254	66.064755	68.000000	73.000000
65.978254	66.064755	63.000000	62.000000
65.978254	66.064755	65.000000	62.000000
66.064755	66.429724	68.000000	80.000000
66.064755	66.429724	63.000000	68.000000
66.064755	66.429724	65.000000	68.000000
66.064755	66.429724	47.000000	45.000000
66.064755	66.429724	56.000000	54.000000
66.064755	66.429724	53.000000	45.000000
66.794692	67.159647	68.000000	78.000000
66.794692	67.159647	62.000000	66.000000
66.794692	67.159647	65.000000	66.000000
66.794692	67.159647	53.000000	45.000000
66.794692	67.159647	46.000000	45.000000
66.794692	67.159647	56.000000	54.000000
68.156612	68.249550	77.000000	62.000000
68.156612	68.249550	75.000000	62.000000
68.156612	68.249550	80.000000	73.000000
68.249550	68.612306	80.000000	80.000000
68.249550	68.612306	77.000000	68.000000
68.249550	68.612306	75.000000	68.000000
68.249550	68.612306	65.000000	51.000000
68.249550	68.612306	68.000000	61.000000
68.249550	68.612306	59.000000	51.000000
68.975061	69.368917	80.000000	78.000000
68.975061	69.368917	74.000000	66.000000
68.975061	69.368917	77.000000	66.000000
68.975061	70.477649	65.000000	51.000000
68.975061	70.477649	68.000000	61.000000
68.975061	70.477649	58.000000	51.000000
69.762773	70.586936	96.000000	93.000000
70.586936	70.695163	94.000000	84.000000
70.695163	70.802465	92.000000	82.000000
70.802465	70.908855	89.000000	89.000000
70.908855	71.014226	86.000000	80.000000
71.014226	71.118724	82.000000	80.000000
71.118724	71.222352	81.000000	85.000000
71.222352	71.324973	82.000000	77.000000
71.324973	71.426803	80.000000	78.000000
71.426803	71.528955	77.000000	81.000000
71.528955	71.631885	74.000000	79.000000
71.631885	71.735566	70.000000	77.000000
71.735566	71.841004	68.000000	75.000000
71.841004	71.950733	65.000000	74.000000
71.950733	72.061240	62.000000	72.000000
72.061240	72.223929	58.000000	80.000000
73.281418	73.374356	54.000000	38.000000
73.281418	73.374356	59.000000	45.000000
73.374356	73.784359	54.000000	43.000000
73.374356	73.784359	59.000000	51.000000
73.374356	73.784359	45.000000	35.000000
73.374356	73.784359	51.000000	41.000000
74.194362	76.796643	54.000000	49.000000
74.194362	76.796643	60.000000	58.000000
74.194362	76.796643	51.000000	46.000000
74.194362	76.796643	44.000000	39.000000
76.796643	79.398924	58.000000	37.000000
76.796643	79.398924	62.000000	44.000000
76.796643	79.398924	56.000000	37.000000
76.796643	79.398924	41.000000	27.000000
76.796643	79.398924	46.000000	27.000000
76.796643	79.398924	53.000000	33.000000
79.398924	79.734723	55.000000	37.000000
79.398924	80.042922	58.000000	37.000000
79.398924	80.042922	63.000000	44.000000
79.398924	79.734723	51.000000	37.000000
79.398924	79.734723	39.000000	29.000000
79.734723	80.042922	55.000000	33.000000
80.042922	80.351122	58.000000	33.000000
80.351122	80.659321	63.000000	37.000000
80.659321	80.967521	58.000000	33.000000
80.967521	81.299605	55.000000	30.000000
81.299605	81.610997	51.000000	35.000000
81.610997	81.907032	55.000000	31.000000
81.907032	82.203068	58.000000	31.000000
82.203068	82.499103	63.000000	37.000000
82.499103	82.795139	58.000000	32.000000
82.795139	83.113142	55.000000	32.000000
83.113142	83.412128	39.000000	37.000000
83.113142	83.412128	51.000000	37.000000
83.412128	83.702437	55.000000	33.000000
83.702437	83.992746	58.000000	33.000000
83.992746	84.283055	63.000000	37.000000
84.283055	84.573364	58.000000	33.000000
84.573364	84.891367	55.000000	30.000000
84.891367	85.187403	51.000000	35.000000
85.187403	85.474922	55.000000	31.000000
85.474922	85.762442	58.000000	31.000000
85.762442	86.049961	63.000000	37.000000
86.049961	86.337481	58.000000	32.000000
86.337481	86.673280	55.000000	32.000000
86.673280	87.541861	70.000000	44.000000
86.673280	87.541861	67.000000	44.000000
86.673280	86.972266	51.000000	37.000000
86.673280	86.972266	39.000000	37.000000
86.972266	87.257064	55.000000	33.000000
87.257064	87.541861	58.000000	33.000000
87.541861	87.843851	68.000000	41.000000
87.541861	87.843851	72.000000	41.000000
87.541861	87.843851	63.000000	37.000000
87.843851	88.483679	67.000000	45.000000
87.843851	88.483679	70.000000	45.000000
87.843851	88.155242	58.000000	33.000000
88.155242	88.483679	55.000000	30.000000
88.483679	89.070184	63.000000	37.000000
88.483679	90.278722	67.000000	37.000000
88.483679	88.782651	51.000000	32.000000
88.782651	89.070184	55.000000	28.000000
89.070184	89.357704	58.000000	28.000000
89.357704	89.645224	63.000000	34.000000
89.645224	89.950285	58.000000	28.000000
89.950285	90.278722	55.000000	28.000000
90.278722	91.147288	67.000000	44.000000
90.278722	91.147288	70.000000	44.000000
90.278722	90.577694	39.000000	37.000000
90.278722	90.577694	51.000000	37.000000
90.577694	90.862491	55.000000	33.000000
90.862491	91.147288	58.000000	33.000000
91.147288	91.452350	68.000000	41.000000
91.147288	91.452350	72.000000	41.000000
91.147288	91.452350	63.000000	37.000000
91.452350	92.099098	67.000000	45.000000
91.452350	92.099098	70.000000	45.000000
91.452350	91.767013	58.000000	33.000000
91.767013	92.099098	55.000000	30.000000
92.099098	92.685603	63.000000	37.000000
92.099098	93.905312	67.000000	37.000000
92.099098	92.398084	51.000000	35.000000
92.398084	92.685603	55.000000	26.000000
92.685603	92.973123	58.000000	26.000000
92.973123	93.260642	63.000000	33.000000
93.260642	93.565704	58.000000	28.000000
93.565704	93.905312	55.000000	28.000000
93.735501	93.905312	65.000000	37.000000
93.820406	95.045761	68.000000	42.000000
93.905312	95.045761	77.000000	46.000000
93.905312	94.204284	34.000000	37.000000
93.905312	94.204284	46.000000	37.000000
94.204284	94.489082	56.000000	33.000000
94.489082	94.773879	58.000000	33.000000
94.773879	95.045761	62.000000	37.000000
95.045761	95.507839	77.000000	51.000000
95.045761	95.673881	68.000000	51.000000
95.045761	95.341797	58.000000	36.000000
95.341797	95.673881	56.000000	41.000000
95.507839	95.673881	74.000000	49.000000
95.673881	97.480095	68.000000	44.000000
95.673881	97.480095	74.000000	44.000000
95.673881	95.972867	46.000000	43.000000
95.972867	96.260387	56.000000	26.000000
96.260387	96.547906	58.000000	26.000000
96.547906	96.835426	62.000000	33.000000
96.835426	97.140487	58.000000	28.000000
97.140487	97.480095	56.000000	28.000000
97.310285	97.480095	63.000000	37.000000
97.395190	98.620544	67.000000	42.000000
97.480095	98.620544	75.000000	46.000000
97.480095	97.779068	51.000000	37.000000
97.480095	97.779068	39.000000	37.000000
97.779068	98.063865	55.000000	33.000000
98.063865	98.348662	58.000000	33.000000
98.348662	98.620544	63.000000	37.000000
98.620544	99.055478	75.000000	51.000000
98.620544	99.223371	67.000000	51.000000
98.620544	98.887585	58.000000	36.000000
98.887585	99.223371	55.000000	41.000000
99.055478	99.223371	70.000000	49.000000
99.223371	101.052854	70.000000	44.000000
99.223371	101.052854	67.000000	44.000000
99.223371	99.555456	51.000000	43.000000
99.555456	99.845765	55.000000	26.000000
99.845765	100.136074	58.000000	26.000000
100.136074	100.426383	63.000000	33.000000
100.426383	100.731444	58.000000	28.000000
100.731444	101.052854	55.000000	28.000000
101.052854	102.198345	68.000000	44.000000
101.052854	102.198345	72.000000	44.000000
101.052854	101.351840	56.000000	37.000000
101.052854	101.351840	44.000000	37.000000
101.351840	101.636637	56.000000	33.000000
101.636637	101.921434	60.000000	33.000000
101.921434	102.198345	63.000000	37.000000
102.198345	102.726124	72.000000	47.000000
102.198345	102.802393	68.000000	47.000000
102.198345	102.497331	60.000000	38.000000
102.497331	102.802393	56.000000	42.000000
102.726124	103.655604	72.000000	52.000000
102.802393	103.655604	75.000000	56.000000
102.802393	103.101365	44.000000	46.000000
102.802393	103.101365	56.000000	46.000000
103.101365	103.370807	56.000000	33.000000
103.370807	103.655604	60.000000	36.000000
103.655604	103.940401	70.000000	50.000000
103.655604	103.940401	74.000000	50.000000
103.655604	103.940401	63.000000	42.000000
103.940401	104.550524	68.000000	45.000000
103.940401	104.550524	72.000000	45.000000
103.940401	104.245462	60.000000	28.000000
104.245462	104.550524	56.000000	28.000000
104.550524	105.403332	67.000000	44.000000
104.550524	105.403332	70.000000	44.000000
104.550524	104.849510	51.000000	37.000000
104.550524	104.849510	39.000000	37.000000
104.849510	105.126421	55.000000	33.000000
105.126421	105.403332	58.000000	33.000000
105.403332	105.690852	68.000000	41.000000
105.403332	105.690852	72.000000	41.000000
105.403332	105.690852	63.000000	37.000000
105.690852	106.310845	67.000000	45.000000
105.690852	106.310845	70.000000	45.000000
105.690852	105.992842	58.000000	33.000000
105.992842	106.310845	55.000000	30.000000
106.310845	106.889304	63.000000	37.000000
106.310845	108.071341	67.000000	37.000000
106.310845	106.609818	51.000000	32.000000
106.609818	106.889304	55.000000	28.000000
106.889304	107.168790	58.000000	28.000000
107.168790	107.448277	63.000000	34.000000
107.448277	107.753338	58.000000	28.000000
107.753338	108.071341	55.000000	28.000000
108.071341	109.216833	72.000000	44.000000
108.071341	109.216833	68.000000	44.000000
108.071341	108.370327	56.000000	37.000000
108.071341	108.370327	44.000000	37.000000
108.370327	108.655124	56.000000	33.000000
108.655124	108.939921	60.000000	33.000000
108.939921	109.216833	63.000000	37.000000
109.216833	109.820880	68.000000	47.000000
109.216833	109.744611	72.000000	47.000000
109.216833	109.515819	60.000000	38.000000
109.515819	109.820880	56.000000	42.000000
109.744611	110.674091	72.000000	52.000000
109.820880	110.674091	75.000000	56.000000
109.820880	110.119853	44.000000	46.000000
109.820880	110.119853	56.000000	46.000000
110.119853	110.389294	56.000000	33.000000
110.389294	110.674091	60.000000	36.000000
110.674091	110.958888	70.000000	50.000000
110.674091	110.958888	74.000000	50.000000
110.674091	110.958888	63.000000	42.000000
110.958888	111.569011	72.000000	45.000000
110.958888	111.569011	68.000000	45.000000
110.958888	111.263950	60.000000	28.000000
111.263950	111.569011	56.000000	28.000000
111.569011	112.421820	70.000000	44.000000
111.569011	112.421820	67.000000	44.000000
111.569011	111.867997	51.000000	37.000000
111.569011	111.867997	39.000000	37.000000
111.867997	112.144908	55.000000	33.000000
112.144908	112.421820	58.000000	33.000000
112.421820	112.712129	72.000000	41.000000
112.421820	112.712129	68.000000	41.000000
112.421820	112.712129	63.000000	37.000000
112.712129	113.332122	70.000000	45.000000
112.712129	113.332122	67.000000	45.000000
112.712129	113.014119	58.000000	33.000000
113.014119	113.332122	55.000000	30.000000
113.332122	115.108322	67.000000	37.000000
113.332122	113.910581	63.000000	37.000000
113.332122	113.631094	51.000000	32.000000
113.631094	113.910581	55.000000	28.000000
113.910581	114.192696	58.000000	28.000000
114.192696	114.474811	63.000000	34.000000
114.474811	114.779872	58.000000	28.000000
114.779872	115.108322	55.000000	28.000000
114.944090	115.108322	65.000000	44.000000
115.026206	116.253814	70.000000	44.000000
115.108322	116.253814	77.000000	44.000000
115.108322	115.407308	46.000000	37.000000
115.108322	115.407308	34.000000	37.000000
115.407308	115.692105	56.000000	33.000000
115.692105	115.976902	58.000000	33.000000
115.976902	116.253814	62.000000	37.000000
116.253814	116.781606	77.000000	51.000000
116.253814	116.552800	58.000000	38.000000
116.552800	116.857874	56.000000	42.000000
116.705337	116.857874	68.000000	52.000000
116.781606	117.711086	70.000000	59.000000
116.857874	117.711086	80.000000	59.000000
116.857874	117.156847	46.000000	51.000000
117.156847	117.426289	56.000000	36.000000
117.426289	117.711086	58.000000	39.000000
117.711086	117.995883	77.000000	52.000000
117.711086	117.995883	62.000000	42.000000
117.995883	118.606005	74.000000	47.000000
117.995883	118.300944	58.000000	28.000000
118.300944	118.606005	56.000000	28.000000
118.529737	120.355544	67.000000	44.000000
118.606005	120.355544	75.000000	44.000000
118.606005	118.904991	39.000000	37.000000
118.606005	118.904991	51.000000	37.000000
118.904991	119.189788	55.000000	33.000000
119.189788	119.474586	58.000000	33.000000
119.474586	119.751497	63.000000	37.000000
119.751497	120.050483	58.000000	26.000000
120.050483	120.355544	55.000000	25.000000
120.355544	122.125750	70.000000	41.000000
120.355544	122.125750	79.000000	41.000000
120.355544	120.654517	51.000000	31.000000
120.654517	120.928880	55.000000	24.000000
120.928880	121.216400	58.000000	24.000000
121.216400	121.503919	63.000000	24.000000
121.503919	121.808981	58.000000	27.000000
121.808981	122.125750	55.000000	22.000000
121.961518	122.125750	63.000000	44.000000
122.043634	123.271242	67.000000	44.000000
122.125750	122.994330	75.000000	44.000000
122.125750	122.424736	46.000000	37.000000
122.424736	122.709533	55.000000	33.000000
122.709533	122.994330	58.000000	33.000000
122.994330	123.271242	70.000000	51.000000
122.994330	123.271242	63.000000	37.000000
123.271242	123.799034	67.000000	44.000000
123.271242	123.570228	58.000000	38.000000
123.570228	123.875302	55.000000	42.000000
123.722765	123.875302	62.000000	52.000000
123.875302	124.728513	70.000000	55.000000
123.875302	124.174275	46.000000	51.000000
123.875302	124.174275	34.000000	48.000000
124.174275	124.443716	56.000000	36.000000
124.443716	124.728513	58.000000	39.000000
124.728513	125.013311	68.000000	47.000000
124.728513	125.013311	62.000000	42.000000
125.013311	125.623433	65.000000	42.000000
125.013311	125.318372	58.000000	28.000000
125.318372	125.623433	56.000000	28.000000
125.623433	126.530168	63.000000	39.000000
125.623433	125.938097	51.000000	37.000000
125.623433	125.938097	39.000000	37.000000
125.938097	126.234132	55.000000	28.000000
126.234132	126.530168	58.000000	28.000000
126.530168	128.771812	63.000000	35.000000
126.817687	127.161171	58.000000	29.000000
127.161171	127.575881	55.000000	30.000000
127.575881	129.369757	51.000000	39.000000
129.145538	129.220278	65.000000	38.000000
129.220278	130.238338	70.000000	42.000000
129.295018	130.238338	74.000000	45.000000
129.369757	130.238338	77.000000	48.000000
129.369757	129.668743	46.000000	37.000000
129.369757	129.668743	34.000000	37.000000
129.668743	129.953541	53.000000	33.000000
129.953541	130.238338	58.000000	33.000000
130.238338	130.540328	79.000000	41.000000
130.238338	130.540328	62.000000	37.000000
130.540328	131.160321	77.000000	45.000000
130.540328	130.842318	58.000000	33.000000
130.842318	131.160321	53.000000	30.000000
131.001319	132.757725	65.000000	40.000000
131.080820	132.832465	70.000000	44.000000
131.160321	132.832465	74.000000	47.000000
131.160321	131.459293	50.000000	32.000000
131.459293	131.746826	53.000000	28.000000
131.746826	132.034346	58.000000	28.000000
132.034346	132.321866	62.000000	34.000000
132.321866	132.626927	58.000000	28.000000
132.626927	132.981944	53.000000	28.000000
132.757725	132.832465	65.000000	38.000000
132.832465	133.850525	69.000000	42.000000
132.907204	133.850525	75.000000	45.000000
132.981944	133.850525	77.000000	48.000000
132.981944	133.280930	34.000000	37.000000
132.981944	133.280930	46.000000	37.000000
133.280930	133.565727	53.000000	33.000000
133.565727	133.850525	57.000000	33.000000
133.850525	134.152515	79.000000	41.000000
133.850525	134.152515	63.000000	37.000000
134.152515	134.772508	77.000000	45.000000
134.152515	134.454505	57.000000	33.000000
134.454505	134.772508	53.000000	30.000000
134.613506	136.321230	65.000000	40.000000
134.693007	136.545449	69.000000	44.000000
134.772508	136.545449	72.000000	47.000000
134.772508	135.071480	46.000000	32.000000
135.071480	135.359013	53.000000	28.000000
135.359013	135.646533	57.000000	28.000000
135.646533	135.934052	63.000000	34.000000
135.934052	136.239114	57.000000	28.000000
136.239114	136.545449	53.000000	28.000000
136.321230	136.545449	65.000000	38.000000
136.395969	136.470709	70.000000	42.000000
136.470709	137.414029	74.000000	38.000000
136.545449	137.414029	77.000000	48.000000
136.545449	136.844435	46.000000	37.000000
136.545449	136.844435	34.000000	37.000000
136.844435	137.129232	53.000000	33.000000
137.129232	137.414029	58.000000	33.000000
137.414029	137.701549	73.000000	40.000000
137.414029	137.701549	76.000000	48.000000
137.414029	137.701549	62.000000	38.000000
137.701549	138.321542	74.000000	46.000000
137.701549	138.321542	77.000000	55.000000
137.701549	138.003539	58.000000	36.000000
138.003539	138.321542	53.000000	41.000000
138.321542	139.184744	75.000000	56.000000
138.321542	139.184744	79.000000	66.000000
138.321542	138.620515	51.000000	47.000000
138.321542	138.620515	39.000000	47.000000
138.620515	138.902629	51.000000	37.000000
138.902629	139.184744	55.000000	36.000000
139.184744	139.466859	74.000000	47.000000
139.184744	139.466859	77.000000	56.000000
139.184744	139.466859	60.000000	44.000000
139.466859	140.083312	75.000000	60.000000
139.466859	140.083312	72.000000	51.000000
139.466859	139.771921	55.000000	33.000000
139.771921	140.083312	51.000000	32.000000
140.083312	141.856173	70.000000	54.000000
140.083312	141.245031	74.000000	64.000000
140.083312	140.382298	41.000000	42.000000
140.083312	140.382298	53.000000	42.000000
140.382298	140.667095	53.000000	35.000000
140.667095	140.951892	58.000000	33.000000
140.951892	141.245031	62.000000	37.000000
141.245031	141.856173	77.000000	59.000000
141.245031	141.538170	58.000000	33.000000
141.538170	141.856173	53.000000	30.000000
141.856173	143.404895	69.000000	47.000000
141.856173	143.404895	72.000000	56.000000
141.856173	142.155145	41.000000	32.000000
141.856173	142.155145	53.000000	32.000000
142.155145	142.442678	53.000000	28.000000
142.442678	142.730198	57.000000	28.000000
142.730198	143.017717	60.000000	34.000000
143.017717	143.322779	57.000000	28.000000
143.322779	143.629114	53.000000	28.000000
143.404895	143.479634	65.000000	41.000000
143.479634	144.497694	70.000000	46.000000
143.554374	144.497694	74.000000	49.000000
143.629114	144.497694	77.000000	52.000000
143.629114	143.928100	34.000000	40.000000
143.629114	143.928100	46.000000	40.000000
143.928100	144.212897	53.000000	36.000000
144.212897	144.497694	58.000000	36.000000
144.497694	144.799684	79.000000	45.000000
144.497694	144.799684	62.000000	40.000000
144.799684	145.419677	77.000000	49.000000
144.799684	145.101674	58.000000	36.000000
145.101674	145.419677	53.000000	33.000000
145.260676	147.091821	65.000000	44.000000
145.340177	147.091821	70.000000	48.000000
145.419677	147.091821	74.000000	51.000000
145.419677	145.718650	46.000000	35.000000
145.718650	146.006183	53.000000	30.000000
146.006183	146.293703	58.000000	30.000000
146.293703	146.581222	62.000000	37.000000
146.581222	146.886283	58.000000	30.000000
146.886283	147.241301	53.000000	30.000000
147.017081	147.091821	69.000000	47.000000
147.091821	148.109881	74.000000	52.000000
147.166561	148.109881	78.000000	56.000000
147.241301	148.109881	81.000000	60.000000
147.241301	147.540287	50.000000	42.000000
147.241301	147.540287	38.000000	42.000000
147.540287	147.825084	54.000000	37.000000
147.825084	148.109881	57.000000	37.000000
148.109881	148.411871	83.000000	55.000000
148.109881	148.411871	62.000000	42.000000
148.411871	149.031864	81.000000	56.000000
148.411871	148.713861	57.000000	37.000000
148.713861	149.031864	54.000000	34.000000
148.872863	150.655326	69.000000	50.000000
148.952364	150.804806	74.000000	55.000000
149.031864	150.804806	78.000000	59.000000
149.031864	149.330837	50.000000	36.000000
149.330837	149.618370	54.000000	32.000000
149.618370	149.905889	57.000000	32.000000
149.905889	150.193409	62.000000	39.000000
150.193409	150.498470	57.000000	32.000000
150.498470	150.804806	54.000000	32.000000
150.655326	151.673386	69.000000	52.000000
150.730066	151.673386	73.000000	47.000000
150.804806	151.673386	81.000000	60.000000
150.804806	151.103792	38.000000	42.000000
150.804806	151.103792	50.000000	42.000000
151.103792	151.388589	55.000000	37.000000
151.388589	151.673386	57.000000	38.000000
151.673386	151.960905	81.000000	62.000000
151.673386	151.960905	73.000000	52.000000
151.673386	151.960905	76.000000	52.000000
151.673386	151.960905	61.000000	45.000000
151.960905	152.580898	81.000000	73.000000
151.960905	152.580898	74.000000	60.000000
151.960905	152.580898	78.000000	60.000000
151.960905	152.262896	57.000000	43.000000
152.262896	152.580898	55.000000	50.000000
152.580898	153.444088	79.000000	70.000000
152.580898	153.161986	76.000000	63.000000
152.580898	153.161986	81.000000	78.000000
152.580898	152.879871	50.000000	59.000000
152.879871	153.161986	55.000000	47.000000
153.161986	153.726202	76.000000	61.000000
153.161986	153.726202	81.000000	72.000000
153.161986	153.726202	78.000000	61.000000
153.161986	153.444088	57.000000	46.000000
153.444088	153.726202	61.000000	57.000000
153.726202	154.342668	73.000000	67.000000
153.726202	154.342668	76.000000	67.000000
153.726202	154.342668	81.000000	80.000000
153.726202	154.031277	57.000000	42.000000
154.031277	154.342668	55.000000	42.000000
154.342668	154.423725	86.000000	54.000000
154.342668	154.998040	50.000000	61.000000
154.342668	154.998040	62.000000	72.000000
154.342668	154.998040	54.000000	61.000000
154.342668	154.998040	57.000000	61.000000
154.423725	154.506927	87.000000	46.000000
154.506927	154.590035	86.000000	54.000000
154.590035	154.672326	87.000000	46.000000
154.672326	154.754616	86.000000	54.000000
154.754616	154.836370	87.000000	48.000000
154.836370	154.917761	86.000000	54.000000
154.917761	154.998040	87.000000	47.000000
154.998040	155.074885	86.000000	55.000000
155.074885	155.148284	87.000000	48.000000
155.148284	155.218826	86.000000	56.000000
155.218826	155.288268	87.000000	47.000000
155.288268	155.358931	86.000000	56.000000
155.358931	155.430855	87.000000	47.000000
155.430855	155.504092	86.000000	57.000000
155.504092	155.578738	87.000000	50.000000
155.578738	155.654001	86.000000	57.000000
155.578738	156.185723	38.000000	69.000000
155.654001	155.731209	87.000000	49.000000
155.731209	155.808416	86.000000	58.000000
155.808416	155.885154	87.000000	50.000000
155.885154	155.961570	86.000000	59.000000
155.961570	156.037919	87.000000	51.000000
156.037919	156.113571	86.000000	59.000000
156.113571	156.185723	87.000000	50.000000
156.185723	156.257244	86.000000	60.000000
156.185723	156.744280	50.000000	78.000000
156.257244	156.328135	87.000000	52.000000
156.328135	156.398221	86.000000	60.000000
156.398221	156.467583	87.000000	53.000000
156.467583	156.536422	86.000000	61.000000
156.536422	156.605314	87.000000	53.000000
156.605314	156.674797	86.000000	62.000000
156.674797	156.744280	87.000000	54.000000
156.744280	156.814366	86.000000	62.000000
156.814366	156.884720	87.000000	55.000000
156.884720	156.955517	86.000000	63.000000
156.955517	157.026314	87.000000	54.000000
157.026314	157.098694	86.000000	63.000000
157.098694	157.172119	87.000000	54.000000
157.172119	157.245545	86.000000	63.000000
157.245545	157.318407	87.000000	55.000000
157.318407	157.390974	86.000000	64.000000
157.318407	157.882784	62.000000	66.000000
157.318407	157.882784	55.000000	56.000000
157.318407	157.882784	58.000000	56.000000
157.390974	157.462898	87.000000	58.000000
157.462898	157.534191	86.000000	64.000000
157.534191	157.604988	87.000000	57.000000
157.604988	157.675342	86.000000	65.000000
157.675342	157.745080	87.000000	59.000000
157.745080	157.814227	86.000000	65.000000
157.814227	157.882784	87.000000	57.000000
157.882784	157.951006	86.000000	67.000000
157.882784	158.426884	57.000000	71.000000
157.882784	158.426884	62.000000	80.000000
157.882784	158.426884	54.000000	73.000000
157.951006	158.019228	87.000000	58.000000
158.019228	158.087450	86.000000	67.000000
158.087450	158.155672	87.000000	57.000000
158.155672	158.223076	86.000000	66.000000
158.223076	158.290440	87.000000	57.000000
158.290440	158.358367	86.000000	65.000000
158.358367	158.426884	87.000000	56.000000
158.426884	158.496327	86.000000	65.000000
158.496327	158.565809	87.000000	57.000000
158.565809	158.635292	86.000000	65.000000
158.635292	158.704775	87.000000	55.000000
158.704775	158.774257	86.000000	64.000000
158.774257	158.843740	87.000000	55.000000
158.843740	158.913223	86.000000	64.000000
158.913223	158.982705	87.000000	55.000000
158.982705	159.057378	86.000000	63.000000
158.982705	159.576828	38.000000	74.000000
159.057378	159.132426	87.000000	54.000000
159.132426	159.206871	86.000000	63.000000
159.206871	159.281168	87.000000	54.000000
159.281168	159.354983	86.000000	63.000000
159.354983	159.428502	87.000000	54.000000
159.428502	159.501364	86.000000	63.000000
159.501364	159.576828	87.000000	53.000000
159.576828	159.654036	86.000000	62.000000
159.576828	160.200711	50.000000	84.000000
159.654036	159.731243	87.000000	54.000000
159.731243	159.808933	86.000000	62.000000
159.808933	159.886946	87.000000	55.000000
159.886946	159.964958	86.000000	62.000000
159.964958	160.043050	87.000000	54.000000
160.043050	160.121880	86.000000	61.000000
160.121880	160.200711	87.000000	54.000000
160.200711	160.279621	86.000000	60.000000
160.279621	160.359296	87.000000	53.000000
160.359296	160.438971	86.000000	60.000000
160.438971	160.518646	87.000000	53.000000
160.518646	160.598321	86.000000	60.000000
160.598321	160.677997	87.000000	53.000000
160.677997	160.757672	86.000000	59.000000
160.757672	160.837347	87.000000	53.000000
160.837347	160.943562	86.000000	54.000000
160.866556	161.474720	62.000000	69.000000
160.943562	161.049791	87.000000	55.000000
161.049791	161.156020	86.000000	59.000000
161.156020	161.315370	85.000000	74.000000
161.235695	165.783598	46.000000	58.000000
161.315370	161.474720	86.000000	81.000000
161.315370	165.783598	53.000000	64.000000
161.395045	165.783598	56.000000	69.000000
161.474720	163.504872	98.000000	95.000000
161.474720	165.783598	62.000000	76.000000
163.504872	163.622984	96.000000	65.000000
163.622984	163.741095	91.000000	65.000000
163.741095	163.859206	94.000000	70.000000
163.859206	163.977317	92.000000	64.000000
163.977317	164.095428	88.000000	70.000000
164.095428	164.213539	91.000000	70.000000
164.213539	164.330336	89.000000	63.000000
164.330336	164.445926	85.000000	63.000000
164.445926	164.560819	87.000000	70.000000
164.560819	164.674920	86.000000	62.000000
164.674920	164.788203	81.000000	62.000000
164.788203	164.900816	84.000000	70.000000
164.900816	165.012758	82.000000	63.000000
165.012758	165.123855	79.000000	62.000000
165.123855	165.234308	82.000000	63.000000
165.234308	165.344024	80.000000	57.000000
165.344024	165.453110	76.000000	56.000000
165.453110	165.562195	79.000000	62.000000
165.562195	165.672233	77.000000	54.000000
165.672233	165.783598	73.000000	54.000000
165.783598	165.899751	75.000000	58.000000
165.899751	166.035820	74.000000	44.000000
166.035820	166.199086	69.000000	44.000000
166.199086	166.995475	72.000000	49.000000
166.995475	167.791863	71.000000	42.000000
167.791863	169.567715	70.000000	40.000000
169.636098	170.887497	70.000000	67.000000
169.636098	170.261844	51.000000	70.000000
169.636098	170.261844	39.000000	60.000000
169.799726	169.941682	75.000000	56.000000
169.941682	170.083638	79.000000	60.000000
170.083638	170.261844	82.000000	54.000000
170.261844	170.414636	79.000000	62.000000
170.261844	170.887497	58.000000	46.000000
170.261844	170.887497	55.000000	46.000000
170.261844	170.887497	63.000000	55.000000
170.414636	170.567428	82.000000	53.000000
170.567428	170.720220	79.000000	58.000000
170.720220	170.887497	75.000000	51.000000
170.887497	172.153312	72.000000	65.000000
170.887497	171.520056	44.000000	60.000000
170.887497	171.520056	56.000000	70.000000
171.036507	171.187006	75.000000	53.000000
171.187006	171.337504	80.000000	57.000000
171.337504	171.520056	84.000000	52.000000
171.520056	171.674430	80.000000	57.000000
171.520056	172.153312	60.000000	48.000000
171.520056	172.153312	56.000000	48.000000
171.520056	172.153312	63.000000	56.000000
171.674430	171.828805	84.000000	53.000000
171.828805	171.983180	80.000000	58.000000
171.983180	172.153312	75.000000	53.000000
172.153312	173.043766	70.000000	68.000000
172.153312	172.745772	51.000000	70.000000
172.153312	172.745772	39.000000	60.000000
172.305340	172.452151	75.000000	53.000000
172.452151	172.598962	79.000000	57.000000
172.598962	172.745772	82.000000	53.000000
172.745772	172.894769	79.000000	57.000000
172.745772	173.043766	55.000000	54.000000
172.745772	174.563212	63.000000	54.000000
172.894769	173.043766	75.000000	51.000000
173.043766	173.355506	68.000000	61.000000
173.043766	173.355506	53.000000	50.000000
173.192763	173.355506	80.000000	51.000000
173.355506	173.947966	67.000000	62.000000
173.355506	173.947966	51.000000	55.000000
173.507534	173.654344	70.000000	53.000000
173.654344	173.801155	75.000000	59.000000
173.801155	173.947966	79.000000	52.000000
173.947966	174.563212	68.000000	61.000000
173.947966	174.563212	53.000000	52.000000
174.094790	174.241601	70.000000	52.000000
174.241601	174.389136	75.000000	59.000000
174.389136	174.563212	80.000000	62.000000
174.563212	175.803600	70.000000	67.000000
174.563212	175.174635	39.000000	60.000000
174.563212	175.174635	51.000000	70.000000
174.722508	174.867200	75.000000	56.000000
174.867200	175.011892	79.000000	60.000000
175.011892	175.174635	82.000000	54.000000
175.174635	175.328218	79.000000	62.000000
175.174635	175.803600	63.000000	55.000000
175.174635	175.803600	58.000000	46.000000
175.174635	175.803600	55.000000	46.000000
175.328218	175.481802	82.000000	53.000000
175.481802	175.635385	79.000000	58.000000
175.635385	175.803600	75.000000	51.000000
175.803600	177.054248	72.000000	65.000000
175.803600	176.421474	44.000000	60.000000
175.803600	176.421474	56.000000	70.000000
175.950411	176.099408	75.000000	53.000000
176.099408	176.248404	80.000000	57.000000
176.248404	176.421474	84.000000	52.000000
176.421474	176.576640	80.000000	57.000000
176.421474	177.054248	60.000000	48.000000
176.421474	177.054248	63.000000	56.000000
176.421474	177.054248	56.000000	48.000000
176.576640	176.731806	84.000000	53.000000
176.731806	176.886972	80.000000	58.000000
176.886972	177.054248	75.000000	53.000000
177.054248	177.947571	70.000000	68.000000
177.054248	177.651053	51.000000	70.000000
177.054248	177.651053	39.000000	60.000000
177.206275	177.354535	75.000000	53.000000
177.354535	177.502794	79.000000	57.000000
177.502794	177.651053	82.000000	53.000000
177.651053	177.799312	79.000000	57.000000
177.651053	177.947571	55.000000	54.000000
177.651053	179.476673	63.000000	54.000000
177.799312	177.947571	75.000000	51.000000
177.947571	178.268900	68.000000	61.000000
177.947571	178.268900	53.000000	50.000000
178.095831	178.268900	80.000000	51.000000
178.268900	178.859067	67.000000	61.000000
178.268900	178.859067	51.000000	55.000000
178.418635	178.565446	70.000000	52.000000
178.565446	178.712256	75.000000	58.000000
178.712256	178.859067	79.000000	54.000000
178.859067	179.476673	68.000000	61.000000
178.859067	179.476673	53.000000	52.000000
179.005891	179.152702	70.000000	49.000000
179.152702	179.299513	75.000000	60.000000
179.299513	179.476673	80.000000	62.000000
179.476673	180.718858	70.000000	67.000000
179.476673	180.098195	51.000000	70.000000
179.476673	180.098195	39.000000	60.000000
179.642112	179.794139	75.000000	56.000000
179.794139	179.946167	79.000000	60.000000
179.946167	180.098195	82.000000	54.000000
180.098195	180.253361	79.000000	62.000000
180.098195	180.718858	55.000000	46.000000
180.098195	180.718858	58.000000	46.000000
180.098195	180.718858	63.000000	55.000000
180.253361	180.408527	82.000000	53.000000
180.408527	180.563693	79.000000	58.000000
180.563693	180.718858	75.000000	51.000000
180.718858	181.976386	70.000000	72.000000
180.718858	181.326956	38.000000	60.000000
180.718858	181.326956	50.000000	70.000000
180.870886	181.022900	74.000000	57.000000
181.022900	181.174928	77.000000	62.000000
181.174928	181.326956	82.000000	56.000000
181.326956	181.485407	77.000000	62.000000
181.326956	181.976386	53.000000	48.000000
181.326956	181.976386	58.000000	48.000000
181.326956	181.976386	65.000000	56.000000
181.485407	181.643859	82.000000	57.000000
181.643859	181.802311	77.000000	65.000000
181.812463	181.985439	74.000000	60.000000
181.976386	183.207347	72.000000	71.000000
181.976386	182.587649	48.000000	76.000000
181.976386	182.587649	36.000000	76.000000
182.131565	182.283593	75.000000	57.000000
182.283593	182.435621	81.000000	65.000000
182.435621	182.587649	84.000000	58.000000
182.587649	182.739663	81.000000	63.000000
182.587649	183.207347	57.000000	60.000000
182.587649	183.207347	63.000000	60.000000
182.596513	183.207347	53.000000	60.000000
182.739663	182.891691	84.000000	57.000000
182.891691	183.043718	81.000000	57.000000
183.043718	183.207347	75.000000	51.000000
183.207347	183.837009	74.000000	73.000000
183.207347	183.837009	53.000000	65.000000
183.207347	183.837009	46.000000	65.000000
183.207347	183.837009	58.000000	77.000000
183.366643	183.523432	77.000000	63.000000
183.523432	183.680220	82.000000	68.000000
183.680220	183.837009	86.000000	64.000000
183.837009	184.482107	75.000000	79.000000
183.837009	184.482107	55.000000	59.000000
183.837009	184.482107	51.000000	55.000000
183.837009	184.482107	60.000000	70.000000
183.993798	184.150586	79.000000	62.000000
184.150586	184.309038	84.000000	70.000000
184.309038	184.482107	87.000000	66.000000
184.482107	185.757284	74.000000	83.000000
184.482107	185.102771	53.000000	60.000000
184.482107	185.102771	58.000000	60.000000
184.482107	185.102771	62.000000	70.000000
184.637273	184.792439	77.000000	66.000000
184.792439	184.947605	82.000000	74.000000
184.947605	185.102771	86.000000	66.000000
185.102771	185.266399	82.000000	79.000000
185.102771	185.757284	53.000000	74.000000
185.102771	185.757284	41.000000	74.000000
185.266399	185.430028	86.000000	66.000000
185.430028	185.593656	82.000000	73.000000
185.593656	185.757284	77.000000	65.000000
185.757284	187.068215	72.000000	79.000000
185.757284	186.394430	63.000000	70.000000
185.757284	186.394430	57.000000	60.000000
185.757284	186.394430	53.000000	60.000000
185.916567	186.075864	75.000000	61.000000
186.075864	186.235147	81.000000	75.000000
186.235147	186.394430	84.000000	62.000000
186.394430	186.558058	81.000000	74.000000
186.394430	187.068215	41.000000	75.000000
186.394430	187.068215	53.000000	75.000000
186.558058	186.723497	84.000000	60.000000
186.723497	186.888936	81.000000	71.000000
186.888936	187.068215	75.000000	62.000000
187.068215	187.712991	70.000000	85.000000
187.068215	187.712991	34.000000	64.000000
187.068215	187.712991	46.000000	75.000000
187.247494	187.402659	74.000000	76.000000
187.402659	187.557825	77.000000	73.000000
187.557825	187.706527	82.000000	71.000000
187.712991	187.874863	82.000000	75.000000
187.712991	188.392476	58.000000	64.000000
187.712991	188.392476	53.000000	64.000000
187.712991	188.392476	62.000000	64.000000
187.874863	188.036734	86.000000	73.000000
188.036734	188.208811	89.000000	70.000000
188.208811	188.392476	94.000000	67.000000
188.392476	188.576140	82.000000	76.000000
188.392476	188.576140	70.000000	55.000000
188.392476	188.576140	65.000000	55.000000
188.392476	188.576140	62.000000	55.000000
189.769965	189.861804	62.000000	56.000000
189.861804	190.135349	65.000000	62.000000
189.861804	190.135349	46.000000	50.000000
189.861804	190.135349	34.000000	42.000000
190.135349	190.408895	56.000000	35.000000
190.135349	190.408895	62.000000	42.000000
190.135349	190.408895	58.000000	35.000000
190.408895	190.537466	77.000000	65.000000
190.408895	190.666038	58.000000	35.000000
190.408895	190.666038	62.000000	42.000000
190.408895	190.666038	56.000000	35.000000
190.537466	190.666038	79.000000	55.000000
190.666038	190.794610	77.000000	55.000000
190.666038	190.939302	62.000000	42.000000
190.666038	190.939302	58.000000	35.000000
190.666038	190.939302	56.000000	35.000000
190.794610	190.939302	76.000000	55.000000
190.939302	191.075464	77.000000	64.000000
190.939302	191.211613	58.000000	39.000000
190.939302	191.211613	56.000000	39.000000
190.939302	191.211613	62.000000	46.000000
191.211613	191.483911	56.000000	35.000000
191.211613	191.483911	62.000000	42.000000
191.211613	191.483911	58.000000	35.000000
191.483911	191.762539	79.000000	74.000000
191.483911	191.762539	58.000000	41.000000
191.483911	191.762539	61.000000	41.000000
191.483911	191.762539	64.000000	49.000000
191.762539	192.041167	61.000000	38.000000
191.762539	192.041167	64.000000	45.000000
191.762539	192.041167	58.000000	38.000000
192.041167	192.721027	80.000000	79.000000
192.041167	192.315973	46.000000	42.000000
192.041167	192.315973	58.000000	50.000000
192.315973	192.590779	65.000000	43.000000
192.315973	192.590779	62.000000	36.000000
192.315973	192.590779	58.000000	36.000000
192.590779	192.851276	62.000000	37.000000
192.590779	192.851276	58.000000	37.000000
192.590779	192.851276	65.000000	44.000000
192.721027	192.851276	82.000000	62.000000
192.851276	192.981524	80.000000	70.000000
192.851276	193.111772	62.000000	33.000000
192.851276	193.111772	65.000000	39.000000
192.851276	193.111772	58.000000	33.000000
192.981524	193.111772	79.000000	66.000000
193.111772	193.936176	80.000000	58.000000
193.111772	193.386564	65.000000	46.000000
193.111772	193.386564	62.000000	39.000000
193.111772	193.386564	58.000000	39.000000
193.386564	193.661370	58.000000	28.000000
193.386564	193.661370	65.000000	34.000000
193.386564	193.661370	62.000000	28.000000
193.661370	193.936176	58.000000	28.000000
193.661370	193.936176	62.000000	28.000000
193.661370	193.936176	65.000000	34.000000
193.936176	194.142277	58.000000	28.000000
193.936176	194.142277	65.000000	34.000000
193.936176	194.142277	62.000000	28.000000
194.176475	194.484219	63.000000	65.000000
194.210674	194.484219	67.000000	70.000000
194.210674	194.484219	51.000000	50.000000
194.210674	194.484219	39.000000	42.000000
194.484219	194.757764	55.000000	35.000000
194.484219	194.757764	58.000000	35.000000
194.484219	194.757764	63.000000	42.000000
194.757764	194.888012	79.000000	72.000000
194.757764	195.018260	58.000000	35.000000
194.757764	195.018260	63.000000	42.000000
194.757764	195.018260	55.000000	35.000000
194.888012	195.018260	80.000000	61.000000
195.018260	195.148509	79.000000	61.000000
195.018260	195.296044	58.000000	35.000000
195.018260	195.296044	63.000000	42.000000
195.018260	195.296044	55.000000	35.000000
195.148509	195.296044	78.000000	61.000000
195.296044	195.432810	79.000000	73.000000
195.296044	195.569589	55.000000	39.000000
195.296044	195.569589	63.000000	46.000000
195.296044	195.569589	58.000000	39.000000
195.569589	195.843134	58.000000	35.000000
195.569589	195.843134	55.000000	35.000000
195.569589	195.843134	63.000000	42.000000
195.843134	196.121762	80.000000	74.000000
195.843134	196.121762	65.000000	49.000000
195.843134	196.121762	56.000000	41.000000
195.843134	196.121762	58.000000	41.000000
196.121762	196.400390	56.000000	38.000000
196.121762	196.400390	65.000000	45.000000
196.121762	196.400390	58.000000	38.000000
196.400390	197.079446	82.000000	79.000000
196.400390	196.673936	51.000000	50.000000
196.400390	196.673936	39.000000	42.000000
196.673936	196.947481	63.000000	36.000000
196.673936	196.947481	67.000000	43.000000
196.673936	196.947481	58.000000	36.000000
196.947481	197.211410	63.000000	37.000000
196.947481	197.211410	58.000000	37.000000
196.947481	197.211410	67.000000	44.000000
197.079446	197.211410	84.000000	62.000000
197.211410	197.343375	82.000000	70.000000
197.211410	197.475340	67.000000	39.000000
197.211410	197.475340	63.000000	33.000000
197.211410	197.475340	58.000000	33.000000
197.343375	197.475340	81.000000	66.000000
197.475340	198.295989	82.000000	60.000000
197.475340	197.748899	63.000000	39.000000
197.475340	197.748899	58.000000	39.000000
197.475340	197.748899	67.000000	46.000000
197.748899	198.022444	63.000000	28.000000
197.748899	198.022444	58.000000	28.000000
197.748899	198.022444	67.000000	34.000000
198.022444	198.295989	67.000000	34.000000
198.022444	198.295989	58.000000	28.000000
198.022444	198.295989	63.000000	28.000000
198.295989	198.546749	63.000000	28.000000
198.295989	198.546749	67.000000	34.000000
198.295989	198.546749	58.000000	28.000000
198.569548	199.102664	87.000000	80.000000
198.569548	198.835811	48.000000	49.000000
198.569548	198.835811	60.000000	58.000000
198.702679	198.835811	75.000000	51.000000
198.835811	198.968942	79.000000	60.000000
198.835811	199.102664	60.000000	42.000000
198.835811	199.102664	63.000000	50.000000
198.968942	199.102664	75.000000	51.000000
199.102664	199.639964	86.000000	77.000000
199.102664	199.371314	58.000000	60.000000
199.102664	199.371314	46.000000	51.000000
199.236989	199.371314	74.000000	53.000000
199.371314	199.505639	79.000000	60.000000
199.371314	199.639964	62.000000	50.000000
199.371314	199.639964	58.000000	42.000000
199.505639	199.639964	74.000000	52.000000
199.639964	200.179692	84.000000	75.000000
199.639964	199.909835	56.000000	59.000000
199.639964	199.909835	44.000000	50.000000
199.774906	199.909835	72.000000	56.000000
199.909835	200.044764	75.000000	60.000000
199.909835	200.179692	56.000000	42.000000
199.909835	200.179692	60.000000	50.000000
200.044764	200.179692	72.000000	55.000000
200.179692	200.747516	82.000000	74.000000
200.179692	200.463604	43.000000	49.000000
200.179692	200.463604	55.000000	58.000000
200.321648	200.463604	70.000000	53.000000
200.463604	200.605560	75.000000	60.000000
200.463604	200.747516	58.000000	50.000000
200.463604	200.747516	55.000000	42.000000
200.605560	200.747516	70.000000	60.000000
200.747516	201.294620	87.000000	85.000000
200.747516	201.021062	60.000000	58.000000
200.747516	201.021062	48.000000	49.000000
200.884282	201.021062	75.000000	51.000000
201.021062	201.157841	79.000000	60.000000
201.021062	201.294620	60.000000	42.000000
201.021062	201.294620	63.000000	50.000000
201.157841	201.294620	75.000000	51.000000
201.294620	201.841738	84.000000	77.000000
201.294620	201.568179	56.000000	60.000000
201.294620	201.568179	44.000000	51.000000
201.431400	201.568179	72.000000	53.000000
201.568179	201.704958	77.000000	60.000000
201.568179	201.841738	56.000000	42.000000
201.568179	201.841738	62.000000	50.000000
201.704958	201.841738	72.000000	52.000000
201.841738	202.396419	82.000000	76.000000
201.841738	202.119078	55.000000	59.000000
201.841738	202.119078	43.000000	50.000000
201.980408	202.119078	70.000000	56.000000
202.119078	202.257748	75.000000	60.000000
202.119078	202.396419	58.000000	42.000000
202.119078	202.396419	63.000000	50.000000
202.257748	202.396419	70.000000	55.000000
202.396419	202.964243	80.000000	76.000000
202.396419	202.680331	44.000000	49.000000
202.396419	202.680331	56.000000	58.000000
202.538375	202.680331	68.000000	53.000000
202.680331	202.822287	72.000000	60.000000
202.680331	202.964243	60.000000	42.000000
202.680331	202.964243	65.000000	50.000000
202.822287	202.964243	68.000000	60.000000
202.964243	204.058464	79.000000	80.000000
202.964243	203.511347	46.000000	49.000000
202.964243	203.511347	58.000000	58.000000
203.101009	203.237788	67.000000	51.000000
203.237788	203.374567	70.000000	60.000000
203.374567	203.511347	67.000000	51.000000
203.511347	204.058464	63.000000	60.000000
203.511347	204.058464	58.000000	51.000000
203.648126	203.784905	67.000000	53.000000
203.784905	203.921685	70.000000	60.000000
203.921685	204.058464	67.000000	52.000000
204.058464	205.180956	77.000000	73.000000
204.058464	204.613145	34.000000	50.000000
204.058464	204.613145	46.000000	59.000000
204.197134	204.335805	65.000000	56.000000
204.335805	204.474475	68.000000	60.000000
204.474475	204.613145	65.000000	55.000000
204.613145	205.180956	56.000000	49.000000
204.613145	205.180956	62.000000	58.000000
204.613145	205.180956	58.000000	49.000000
204.755101	204.897057	65.000000	53.000000
204.897057	205.039013	68.000000	60.000000
205.039013	205.145470	65.000000	60.000000
205.180956	205.321732	75.000000	73.000000
205.180956	205.735878	39.000000	62.000000
205.180956	205.735878	51.000000	62.000000
205.321732	205.461140	67.000000	63.000000
205.461140	205.599180	70.000000	66.000000
205.599180	205.735878	75.000000	68.000000
205.735878	205.844267	79.000000	70.000000
205.735878	205.871250	55.000000	55.000000
205.735878	205.871250	58.000000	55.000000
205.735878	205.871250	63.000000	65.000000
205.844267	205.952185	82.000000	72.000000
205.952185	206.060185	87.000000	74.000000
206.060185	206.169672	91.000000	76.000000
206.169672	206.280703	94.000000	78.000000
206.280703	206.421317	99.000000	87.000000
206.280703	206.421317	67.000000	69.000000
206.280703	206.421317	63.000000	58.000000
206.280703	206.421317	58.000000	58.000000
207.335348	207.677289	65.000000	49.000000
207.369546	207.677289	70.000000	52.000000
207.403744	207.677289	77.000000	62.000000
207.403744	207.677289	46.000000	50.000000
207.403744	207.677289	34.000000	42.000000
207.677289	207.950835	58.000000	35.000000
207.677289	207.950835	56.000000	35.000000
207.677289	207.950835	62.000000	42.000000
207.950835	208.079406	89.000000	65.000000
207.950835	208.207978	56.000000	35.000000
207.950835	208.207978	58.000000	35.000000
207.950835	208.207978	62.000000	42.000000
208.079406	208.207978	91.000000	55.000000
208.207978	208.336550	89.000000	55.000000
208.207978	208.481242	56.000000	35.000000
208.207978	208.481242	62.000000	42.000000
208.207978	208.481242	58.000000	35.000000
208.336550	208.481242	88.000000	55.000000
208.481242	208.617404	89.000000	64.000000
208.481242	208.753553	62.000000	46.000000
208.481242	208.753553	58.000000	39.000000
208.481242	208.753553	56.000000	39.000000
208.753553	209.025851	62.000000	42.000000
208.753553	209.025851	56.000000	35.000000
208.753553	209.025851	58.000000	35.000000
209.025851	209.304479	91.000000	74.000000
209.025851	209.304479	61.000000	41.000000
209.025851	209.304479	58.000000	41.000000
209.025851	209.304479	64.000000	49.000000
209.304479	209.583107	58.000000	38.000000
209.304479	209.583107	64.000000	45.000000
209.304479	209.583107	61.000000	38.000000
209.583107	210.219542	92.000000	79.000000
209.583107	209.857913	46.000000	42.000000
209.583107	209.857913	58.000000	50.000000
209.857913	210.132719	62.000000	36.000000
209.857913	210.132719	65.000000	43.000000
209.857913	210.132719	58.000000	36.000000
210.132719	210.393189	65.000000	44.000000
210.132719	210.393189	62.000000	37.000000
210.132719	210.393189	58.000000	37.000000
210.219542	210.306366	94.000000	62.000000
210.306366	210.393189	92.000000	62.000000
210.393189	210.480012	89.000000	70.000000
210.393189	210.653658	62.000000	33.000000
210.393189	210.653658	65.000000	39.000000
210.393189	210.653658	58.000000	33.000000
210.480012	210.566835	86.000000	66.000000
210.566835	210.653658	82.000000	62.000000
210.653658	211.478076	80.000000	58.000000
210.653658	210.928464	58.000000	35.000000
210.653658	210.928464	62.000000	35.000000
210.653658	210.928464	65.000000	41.000000
210.928464	211.203270	62.000000	25.000000
210.928464	211.203270	65.000000	30.000000
210.928464	211.203270	58.000000	25.000000
211.203270	211.478076	58.000000	25.000000
211.203270	211.478076	62.000000	25.000000
211.203270	211.478076	65.000000	30.000000
211.478076	211.684177	62.000000	25.000000
211.478076	211.684177	65.000000	30.000000
211.478076	211.684177	58.000000	25.000000
211.684177	212.026119	67.000000	62.000000
211.718375	212.026119	75.000000	65.000000
211.752573	212.026119	79.000000	70.000000
211.752573	212.026119	39.000000	42.000000
211.752573	212.026119	51.000000	50.000000
212.026119	212.299664	55.000000	35.000000
212.026119	212.299664	63.000000	42.000000
212.026119	212.299664	58.000000	35.000000
212.299664	212.429912	91.000000	72.000000
212.299664	212.560160	55.000000	35.000000
212.299664	212.560160	58.000000	35.000000
212.299664	212.560160	63.000000	42.000000
212.429912	212.560160	92.000000	61.000000
212.560160	212.690408	91.000000	61.000000
212.560160	212.837943	58.000000	35.000000
212.560160	212.837943	55.000000	35.000000
212.560160	212.837943	63.000000	42.000000
212.690408	212.837943	90.000000	61.000000
212.837943	212.974709	91.000000	73.000000
212.837943	213.111489	58.000000	39.000000
212.837943	213.111489	63.000000	46.000000
212.837943	213.111489	55.000000	39.000000
213.111489	213.385034	63.000000	42.000000
213.111489	213.385034	58.000000	35.000000
213.111489	213.385034	55.000000	35.000000
213.385034	213.663662	92.000000	74.000000
213.385034	213.663662	65.000000	49.000000
213.385034	213.663662	58.000000	41.000000
213.385034	213.663662	56.000000	41.000000
213.663662	213.942290	65.000000	45.000000
213.663662	213.942290	56.000000	38.000000
213.663662	213.942290	58.000000	38.000000
213.942290	214.577357	94.000000	79.000000
213.942290	214.215835	39.000000	42.000000
213.942290	214.215835	51.000000	50.000000
214.215835	214.489381	58.000000	36.000000
214.215835	214.489381	67.000000	43.000000
214.215835	214.489381	63.000000	36.000000
214.489381	214.753310	58.000000	37.000000
214.489381	214.753310	67.000000	44.000000
214.489381	214.753310	63.000000	37.000000
214.577357	214.665334	96.000000	62.000000
214.665334	214.753310	94.000000	62.000000
214.753310	214.841287	91.000000	70.000000
214.753310	215.017240	67.000000	39.000000
214.753310	215.017240	63.000000	33.000000
214.753310	215.017240	58.000000	33.000000
214.841287	214.929263	87.000000	66.000000
214.929263	215.017240	84.000000	62.000000
215.017240	215.837875	82.000000	58.000000
215.017240	215.290785	63.000000	35.000000
215.017240	215.290785	67.000000	41.000000
215.017240	215.290785	58.000000	35.000000
215.290785	215.564330	67.000000	30.000000
215.290785	215.564330	63.000000	25.000000
215.290785	215.564330	58.000000	25.000000
215.564330	215.837875	58.000000	25.000000
215.564330	215.837875	67.000000	30.000000
215.564330	215.837875	63.000000	25.000000
215.837875	216.088635	58.000000	25.000000
215.837875	216.088635	67.000000	30.000000
215.837875	216.088635	63.000000	25.000000
216.111434	216.645395	87.000000	92.000000
216.111434	216.378180	48.000000	56.000000
216.111434	216.378180	60.000000	66.000000
216.244807	216.378180	75.000000	58.000000
216.378180	216.511553	79.000000	69.000000
216.378180	216.645395	60.000000	48.000000
216.378180	216.645395	63.000000	48.000000
216.378180	216.645395	67.000000	57.000000
216.511553	216.645395	75.000000	58.000000
216.645395	217.188543	86.000000	88.000000
216.645395	216.916969	46.000000	58.000000
216.645395	216.916969	58.000000	69.000000
216.781182	216.916969	74.000000	60.000000
216.916969	217.052756	79.000000	69.000000
216.916969	217.188543	67.000000	57.000000
216.916969	217.188543	62.000000	48.000000
216.916969	217.188543	58.000000	48.000000
217.052756	217.188543	74.000000	59.000000
217.188543	217.744243	84.000000	86.000000
217.188543	217.466393	56.000000	67.000000
217.188543	217.466393	44.000000	57.000000
217.327468	217.466393	72.000000	64.000000
217.466393	217.605318	75.000000	69.000000
217.466393	217.744243	67.000000	57.000000
217.466393	217.744243	60.000000	48.000000
217.466393	217.744243	63.000000	48.000000
217.605318	217.744243	72.000000	63.000000
217.744243	218.312067	82.000000	85.000000
217.744243	218.028155	55.000000	66.000000
217.744243	218.028155	43.000000	56.000000
217.886199	218.028155	70.000000	60.000000
218.028155	218.170111	75.000000	69.000000
218.028155	218.312067	63.000000	57.000000
218.028155	218.312067	58.000000	48.000000
218.028155	218.312067	55.000000	48.000000
218.170111	218.312067	70.000000	69.000000
218.312067	218.860150	87.000000	97.000000
218.312067	218.586109	48.000000	56.000000
218.312067	218.586109	60.000000	66.000000
218.449088	218.586109	75.000000	58.000000
218.586109	218.723130	79.000000	69.000000
218.586109	218.860150	60.000000	48.000000
218.586109	218.860150	63.000000	48.000000
218.586109	218.860150	67.000000	57.000000
218.723130	218.860150	75.000000	58.000000
218.860150	219.408233	84.000000	87.000000
218.860150	219.134192	56.000000	68.000000
218.860150	219.134192	44.000000	58.000000
218.997171	219.134192	72.000000	60.000000
219.134192	219.271212	77.000000	68.000000
219.134192	219.408233	62.000000	57.000000
219.134192	219.408233	56.000000	47.000000
219.271212	219.408233	72.000000	58.000000
219.408233	219.969137	82.000000	85.000000
219.408233	219.688685	55.000000	66.000000
219.408233	219.688685	43.000000	56.000000
219.548459	219.688685	70.000000	63.000000
219.688685	219.828911	75.000000	67.000000
219.688685	219.969137	63.000000	56.000000
219.688685	219.969137	55.000000	47.000000
219.688685	219.969137	58.000000	47.000000
219.828911	219.969137	70.000000	61.000000
219.969137	220.554664	80.000000	85.000000
219.969137	220.261900	44.000000	54.000000
219.969137	220.261900	56.000000	64.000000
220.115519	220.261900	68.000000	58.000000
220.261900	220.408282	72.000000	66.000000
220.261900	220.554664	60.000000	46.000000
220.261900	220.554664	56.000000	46.000000
220.261900	220.554664	65.000000	55.000000
220.408282	220.554664	68.000000	66.000000
220.554664	221.655872	79.000000	88.000000
220.554664	221.105268	58.000000	63.000000
220.554664	221.105268	46.000000	53.000000
220.692315	220.829966	67.000000	56.000000
220.829966	220.967617	70.000000	65.000000
220.967617	221.105268	67.000000	55.000000
221.105268	221.655872	63.000000	64.000000
221.105268	221.655872	58.000000	55.000000
221.105268	221.655872	55.000000	55.000000
221.242919	221.380570	67.000000	56.000000
221.380570	221.518221	70.000000	64.000000
221.518221	221.655872	67.000000	55.000000
221.655872	222.796657	77.000000	76.000000
221.655872	222.216776	34.000000	52.000000
221.655872	222.216776	46.000000	61.000000
221.796098	221.936324	65.000000	58.000000
221.936324	222.076550	68.000000	62.000000
222.076550	222.216776	65.000000	57.000000
222.216776	222.796657	58.000000	50.000000
222.216776	222.796657	62.000000	59.000000
222.216776	222.796657	56.000000	50.000000
222.361750	222.506723	65.000000	54.000000
222.506723	222.651697	68.000000	61.000000
222.651697	222.760420	65.000000	60.000000
222.760420	223.361785	67.000000	59.000000
222.796657	223.503071	75.000000	73.000000
222.796657	222.937929	51.000000	54.000000
222.796657	222.937929	39.000000	45.000000
222.937929	223.079214	51.000000	39.000000
223.079214	223.220500	55.000000	41.000000
223.220500	223.361785	58.000000	43.000000
223.367673	223.508797	63.000000	46.000000
223.503071	223.640467	79.000000	59.000000
223.640467	223.777863	78.000000	62.000000
223.777863	223.928362	79.000000	64.000000
223.928362	224.634789	84.000000	75.000000
223.928362	224.069647	39.000000	43.000000
223.928362	224.069647	51.000000	51.000000
224.069647	224.210933	51.000000	39.000000
224.210933	224.352218	55.000000	41.000000
224.352218	224.493504	58.000000	44.000000
224.493504	224.634789	63.000000	46.000000
224.634789	224.772816	82.000000	68.000000
224.772816	224.910842	79.000000	65.000000
224.910842	225.056942	75.000000	63.000000
225.056942	225.761385	74.000000	71.000000
225.056942	225.198214	53.000000	54.000000
225.056942	225.198214	41.000000	45.000000
225.198214	225.339500	53.000000	34.000000
225.339500	225.480785	56.000000	37.000000
225.480785	225.622071	58.000000	39.000000
225.622071	225.761385	62.000000	42.000000
225.761385	225.900699	70.000000	51.000000
225.900699	226.040013	69.000000	55.000000
226.040013	226.186113	70.000000	59.000000
226.186113	226.889187	72.000000	68.000000
226.186113	226.326728	46.000000	45.000000
226.186113	226.326728	34.000000	38.000000
226.326728	226.467343	53.000000	35.000000
226.467343	226.607957	56.000000	37.000000
226.607957	226.748572	58.000000	39.000000
226.748572	226.889187	62.000000	41.000000
226.889187	227.031143	70.000000	61.000000
227.031143	227.173099	65.000000	58.000000
227.173099	227.321358	66.000000	55.000000
227.321358	228.024460	67.000000	66.000000
227.321358	227.461987	51.000000	54.000000
227.321358	227.461987	39.000000	45.000000
227.461987	227.602602	51.000000	39.000000
227.602602	227.743217	55.000000	41.000000
227.743217	227.883831	58.000000	43.000000
227.889692	228.030159	63.000000	46.000000
228.024460	228.161239	79.000000	59.000000
228.161239	228.298018	78.000000	62.000000
228.298018	228.443408	79.000000	64.000000
228.443408	229.146496	84.000000	75.000000
228.443408	228.584036	39.000000	43.000000
228.443408	228.584036	51.000000	51.000000
228.584036	228.724651	51.000000	39.000000
228.724651	228.865266	55.000000	41.000000
228.865266	229.005881	58.000000	44.000000
229.005881	229.146496	63.000000	46.000000
229.146496	229.283892	82.000000	68.000000
229.283892	229.421288	79.000000	65.000000
229.421288	229.568099	75.000000	63.000000
229.568099	230.271173	74.000000	71.000000
229.568099	229.708714	53.000000	54.000000
229.568099	229.708714	41.000000	45.000000
229.708714	229.849329	53.000000	34.000000
229.849329	229.989944	56.000000	37.000000
229.989944	230.130559	58.000000	39.000000
230.130559	230.271173	62.000000	42.000000
230.271173	230.408570	70.000000	51.000000
230.408570	230.545966	69.000000	55.000000
230.545966	230.688592	70.000000	59.000000
230.688592	231.391680	72.000000	68.000000
230.688592	230.829221	34.000000	38.000000
230.688592	230.829221	46.000000	45.000000
230.829221	230.969836	53.000000	35.000000
230.969836	231.110451	56.000000	37.000000
231.110451	231.251065	58.000000	39.000000
231.251065	231.391680	62.000000	41.000000
231.391680	231.533636	70.000000	61.000000
231.533636	231.675592	65.000000	58.000000
231.675592	231.826091	66.000000	55.000000
231.826091	232.529193	67.000000	66.000000
231.826091	231.966720	51.000000	54.000000
231.826091	231.966720	39.000000	45.000000
231.966720	232.107334	51.000000	39.000000
232.107334	232.247949	55.000000	41.000000
232.247949	232.388564	58.000000	43.000000
232.394425	232.534892	63.000000	46.000000
232.529193	232.665972	79.000000	59.000000
232.665972	232.802751	78.000000	62.000000
232.802751	232.911783	79.000000	64.000000
232.911783	232.948127	76.000000	64.000000
232.948127	233.651202	85.000000	75.000000
232.948127	233.088742	39.000000	43.000000
232.948127	233.088742	51.000000	51.000000
233.088742	233.229357	55.000000	39.000000
233.229357	233.369972	58.000000	41.000000
233.369972	233.510587	60.000000	44.000000
233.510587	233.651202	64.000000	46.000000
233.651202	233.788598	85.000000	68.000000
233.788598	233.925994	84.000000	65.000000
233.925994	234.072805	82.000000	63.000000
234.072805	234.775893	80.000000	69.000000
234.072805	234.213433	53.000000	54.000000
234.072805	234.213433	41.000000	45.000000
234.213433	234.354048	53.000000	39.000000
234.354048	234.494663	56.000000	41.000000
234.494663	234.635278	60.000000	43.000000
234.635278	234.775893	65.000000	46.000000
234.775893	234.912672	84.000000	64.000000
234.912672	235.049451	83.000000	69.000000
235.049451	235.158497	84.000000	72.000000
235.158497	235.194841	78.000000	64.000000
235.194841	235.897915	87.000000	85.000000
235.194841	235.335456	50.000000	51.000000
235.194841	235.335456	38.000000	43.000000
235.335456	235.476070	57.000000	39.000000
235.476070	235.616685	60.000000	41.000000
235.616685	235.757300	62.000000	44.000000
235.757300	235.897915	66.000000	46.000000
235.897915	236.035311	87.000000	72.000000
236.035311	236.172708	86.000000	69.000000
236.172708	236.319518	84.000000	66.000000
236.319518	237.022606	82.000000	76.000000
236.319518	236.460147	55.000000	54.000000
236.319518	236.460147	43.000000	45.000000
236.460147	236.600762	55.000000	39.000000
236.600762	236.741377	58.000000	41.000000
236.741377	236.881991	62.000000	43.000000
236.881991	237.022606	67.000000	46.000000
237.022606	237.159386	91.000000	67.000000
237.159386	237.296165	90.000000	71.000000
237.296165	237.405210	91.000000	76.000000
237.405210	237.441554	84.000000	64.000000
237.441554	238.144629	94.000000	85.000000
237.441554	237.582169	56.000000	51.000000
237.441554	237.582169	44.000000	43.000000
237.585683	237.726298	56.000000	39.000000
237.722784	237.863399	60.000000	41.000000
237.863399	238.004014	65.000000	44.000000
238.004014	238.144629	68.000000	46.000000
238.144629	238.282025	92.000000	77.000000
238.278592	238.415988	86.000000	72.000000
238.419421	238.529526	89.000000	66.000000
238.529526	238.566232	79.000000	65.000000
238.566232	239.269320	89.000000	76.000000
238.566232	238.706860	58.000000	54.000000
238.566232	238.706860	46.000000	45.000000
238.706860	238.847475	55.000000	39.000000
238.847475	238.988090	58.000000	41.000000
238.988090	239.128705	63.000000	43.000000
239.128705	239.269320	67.000000	46.000000
239.269320	239.406099	87.000000	71.000000
239.406099	239.542879	79.000000	63.000000
239.542879	239.651924	84.000000	70.000000
239.651924	239.688268	74.000000	58.000000
239.688268	240.391342	84.000000	76.000000
239.688268	239.828883	46.000000	51.000000
239.688268	239.828883	34.000000	43.000000
239.828883	239.969498	53.000000	39.000000
239.969498	240.110113	56.000000	41.000000
240.110113	240.250727	58.000000	44.000000
240.250727	240.391342	62.000000	46.000000
240.391342	240.528739	82.000000	65.000000
240.528739	240.666135	80.000000	59.000000
240.666135	240.812946	77.000000	55.000000
240.812946	241.519360	75.000000	64.000000
240.812946	240.954218	51.000000	54.000000
240.812946	240.954218	39.000000	45.000000
240.954218	241.095503	51.000000	39.000000
241.095503	241.236789	55.000000	41.000000
241.236789	241.378074	58.000000	43.000000
241.383962	241.525086	63.000000	46.000000
241.519360	241.656756	79.000000	59.000000
241.656756	241.794152	78.000000	62.000000
241.794152	241.944651	79.000000	64.000000
241.944651	242.085936	84.000000	70.000000
241.944651	242.085936	46.000000	51.000000
241.944651	242.085936	34.000000	43.000000
242.085936	242.227222	82.000000	63.000000
242.227222	242.368507	80.000000	62.000000
242.368507	242.509793	77.000000	60.000000
242.509793	242.651078	74.000000	55.000000
242.509793	242.651078	56.000000	39.000000
242.509793	242.651078	58.000000	39.000000
242.509793	242.651078	62.000000	46.000000
242.651078	242.789105	75.000000	53.000000
242.789105	242.927131	77.000000	51.000000
242.927131	243.073231	79.000000	50.000000
243.073231	243.779645	75.000000	64.000000
243.073231	243.214503	51.000000	54.000000
243.073231	243.214503	39.000000	45.000000
243.214503	243.355789	51.000000	39.000000
243.355789	243.497074	55.000000	41.000000
243.497074	243.638360	58.000000	43.000000
243.644247	243.785372	63.000000	46.000000
243.779645	243.917041	79.000000	59.000000
243.917041	244.054438	78.000000	62.000000
244.054438	244.204936	79.000000	64.000000
244.204936	244.346222	84.000000	70.000000
244.204936	244.346222	46.000000	51.000000
244.204936	244.346222	34.000000	43.000000
244.346222	244.487507	82.000000	63.000000
244.487507	244.628793	80.000000	62.000000
244.628793	244.770078	77.000000	60.000000
244.770078	244.911364	74.000000	55.000000
244.770078	244.911364	58.000000	39.000000
244.770078	244.911364	56.000000	39.000000
244.770078	244.911364	62.000000	46.000000
244.911364	245.049390	75.000000	53.000000
245.049390	245.187417	77.000000	51.000000
245.187417	245.333517	79.000000	50.000000
245.333517	246.039931	75.000000	64.000000
245.333517	245.474789	51.000000	54.000000
245.333517	245.474789	39.000000	45.000000
245.474789	245.616074	51.000000	39.000000
245.616074	245.757360	55.000000	41.000000
245.757360	245.898645	58.000000	43.000000
245.904533	246.045684	63.000000	46.000000
246.039931	246.177971	75.000000	54.000000
246.177971	246.315997	77.000000	55.000000
246.315997	246.454976	79.000000	57.000000
246.454976	246.566140	80.000000	59.000000
246.454976	246.593767	67.000000	51.000000
246.454976	246.593767	63.000000	51.000000
246.566140	246.676272	82.000000	60.000000
246.676272	246.785411	84.000000	61.000000
246.785411	246.893571	86.000000	65.000000
246.893571	247.000766	87.000000	67.000000
247.000766	247.089279	89.000000	69.000000
247.000766	247.133455	70.000000	55.000000
247.000766	247.133455	67.000000	55.000000
247.089279	247.178100	91.000000	71.000000
247.178100	247.268960	92.000000	73.000000
247.268960	247.362998	94.000000	74.000000
247.362998	247.465392	96.000000	76.000000
247.465392	247.578205	98.000000	78.000000
247.578205	248.987157	99.000000	79.000000
247.578205	248.987157	75.000000	61.000000
247.578205	248.987157	79.000000	61.000000
249.691640	249.912708	67.000000	69.000000
249.912708	250.136994	67.000000	62.000000
250.136994	250.376033	67.000000	62.000000
250.376033	251.056550	67.000000	64.000000
250.376033	251.056550	63.000000	59.000000
250.376033	251.056550	72.000000	77.000000
250.376033	251.056550	48.000000	51.000000
250.376033	251.056550	60.000000	60.000000
250.376033	251.056550	55.000000	47.000000
251.056550	251.282620	74.000000	79.000000
251.056550	251.282620	71.000000	67.000000
251.056550	251.282620	67.000000	67.000000
251.056550	251.742364	62.000000	53.000000
251.056550	251.742364	55.000000	45.000000
251.056550	251.742364	59.000000	45.000000
251.282620	251.506156	74.000000	75.000000
251.282620	251.506156	67.000000	63.000000
251.282620	251.506156	71.000000	63.000000
251.506156	251.742364	67.000000	63.000000
251.506156	251.742364	71.000000	63.000000
251.506156	251.742364	74.000000	75.000000
251.742364	252.422868	72.000000	68.000000
251.742364	252.422868	67.000000	68.000000
251.742364	252.422868	75.000000	80.000000
251.742364	252.422868	63.000000	56.000000
251.742364	252.422868	60.000000	47.000000
252.422868	252.643936	74.000000	80.000000
252.422868	252.643936	67.000000	68.000000
252.422868	252.643936	71.000000	68.000000
252.422868	253.110480	59.000000	44.000000
252.422868	253.110480	62.000000	52.000000
252.422868	253.110480	55.000000	44.000000
252.643936	252.870006	67.000000	63.000000
252.643936	252.870006	71.000000	63.000000
252.643936	252.870006	74.000000	75.000000
252.870006	253.110480	67.000000	63.000000
252.870006	253.110480	71.000000	63.000000
252.870006	253.110480	74.000000	75.000000
253.110480	253.858897	72.000000	81.000000
253.110480	253.858897	63.000000	68.000000
253.110480	253.858897	67.000000	60.000000
253.110480	253.858897	55.000000	51.000000
253.110480	253.858897	48.000000	51.000000
253.110480	253.858897	60.000000	60.000000
253.858897	254.096501	68.000000	84.000000
253.858897	254.096501	60.000000	70.000000
253.858897	254.096501	65.000000	70.000000
253.858897	254.585159	53.000000	50.000000
253.858897	254.585159	56.000000	60.000000
253.858897	254.585159	48.000000	50.000000
254.096501	254.334118	60.000000	67.000000
254.096501	254.334118	65.000000	67.000000
254.096501	254.334118	68.000000	79.000000
254.334118	254.585159	68.000000	79.000000
254.334118	254.585159	60.000000	67.000000
254.334118	254.585159	65.000000	67.000000
254.585159	255.285525	63.000000	70.000000
254.585159	255.285525	67.000000	84.000000
254.585159	255.285525	60.000000	64.000000
254.585159	255.285525	48.000000	51.000000
254.585159	255.285525	55.000000	61.000000
255.285525	255.512882	67.000000	70.000000
255.512882	255.744987	67.000000	62.000000
255.744987	255.989873	67.000000	62.000000
255.989873	256.682152	75.000000	80.000000
255.989873	256.682152	67.000000	67.000000
255.989873	256.682152	72.000000	67.000000
255.989873	256.682152	55.000000	53.000000
255.989873	256.682152	60.000000	63.000000
255.989873	256.682152	48.000000	53.000000
256.682152	256.906948	79.000000	90.000000
256.682152	256.906948	67.000000	75.000000
256.682152	256.906948	75.000000	75.000000
256.682152	257.376214	39.000000	52.000000
256.682152	257.376214	51.000000	62.000000
256.906948	257.134292	67.000000	68.000000
256.906948	257.134292	79.000000	81.000000
256.906948	257.134292	75.000000	68.000000
257.134292	257.376214	79.000000	81.000000
257.134292	257.376214	75.000000	68.000000
257.134292	257.376214	67.000000	68.000000
257.376214	258.076579	77.000000	88.000000
257.376214	258.076579	74.000000	74.000000
257.376214	258.076579	68.000000	74.000000
257.376214	258.076579	41.000000	56.000000
257.376214	258.076579	53.000000	66.000000
258.076579	258.305238	72.000000	71.000000
258.076579	258.305238	75.000000	84.000000
258.076579	258.305238	69.000000	71.000000
258.076579	258.785810	54.000000	59.000000
258.076579	258.785810	42.000000	50.000000
258.305238	258.537879	72.000000	63.000000
258.305238	258.537879	69.000000	63.000000
258.305238	258.537879	75.000000	75.000000
258.537879	258.785810	69.000000	63.000000
258.537879	258.785810	75.000000	75.000000
258.537879	258.785810	72.000000	63.000000
258.785810	259.498661	67.000000	71.000000
258.785810	259.498661	71.000000	71.000000
258.785810	260.959044	74.000000	84.000000
258.785810	259.498661	43.000000	53.000000
258.785810	259.498661	55.000000	63.000000
259.498661	259.742058	66.000000	57.000000
259.498661	259.742058	69.000000	68.000000
259.498661	259.742058	62.000000	57.000000
259.498661	260.228852	50.000000	45.000000
259.498661	260.228852	57.000000	45.000000
259.498661	260.228852	60.000000	53.000000
259.742058	259.985455	69.000000	57.000000
259.742058	259.985455	62.000000	48.000000
259.742058	259.985455	66.000000	48.000000
259.985455	260.228852	69.000000	57.000000
259.985455	260.228852	66.000000	48.000000
259.985455	260.228852	62.000000	48.000000
260.228852	260.959044	62.000000	52.000000
260.228852	260.959044	67.000000	52.000000
260.228852	260.959044	71.000000	62.000000
260.228852	260.959044	55.000000	44.000000
260.228852	260.959044	59.000000	52.000000
260.959044	261.186402	67.000000	70.000000
261.186402	261.415838	67.000000	63.000000
261.415838	261.675677	67.000000	63.000000
261.675677	262.356194	72.000000	77.000000
261.675677	262.356194	67.000000	59.000000
261.675677	262.356194	64.000000	64.000000
261.675677	262.356194	48.000000	48.000000
261.675677	262.356194	60.000000	60.000000
261.675677	262.356194	55.000000	51.000000
262.356194	262.582264	74.000000	79.000000
262.356194	262.582264	71.000000	67.000000
262.356194	262.582264	67.000000	67.000000
262.356194	263.048473	62.000000	53.000000
262.356194	263.048473	55.000000	45.000000
262.356194	263.048473	59.000000	45.000000
262.582264	262.806551	74.000000	75.000000
262.582264	262.806551	67.000000	63.000000
262.582264	262.806551	71.000000	63.000000
262.806551	263.048473	74.000000	75.000000
262.806551	263.048473	71.000000	63.000000
262.806551	263.048473	67.000000	63.000000
263.048473	263.728977	72.000000	68.000000
263.048473	263.728977	76.000000	80.000000
263.048473	263.728977	67.000000	68.000000
263.048473	263.728977	60.000000	47.000000
263.048473	263.728977	64.000000	56.000000
263.728977	263.955047	74.000000	80.000000
263.728977	263.955047	67.000000	68.000000
263.728977	263.955047	71.000000	68.000000
263.728977	264.425091	55.000000	44.000000
263.728977	264.425091	59.000000	44.000000
263.728977	264.425091	62.000000	52.000000
263.955047	264.183169	71.000000	63.000000
263.955047	264.183169	67.000000	63.000000
263.955047	264.183169	74.000000	75.000000
264.183169	264.425091	71.000000	63.000000
264.183169	264.425091	74.000000	75.000000
264.183169	264.425091	67.000000	63.000000
264.425091	265.143910	64.000000	68.000000
264.425091	265.143910	67.000000	68.000000
264.425091	265.143910	72.000000	81.000000
264.425091	265.143910	55.000000	51.000000
264.425091	265.143910	48.000000	51.000000
264.425091	265.143910	60.000000	60.000000
265.143910	265.385832	69.000000	84.000000
265.143910	265.385832	65.000000	70.000000
265.143910	265.385832	60.000000	70.000000
265.143910	265.892756	48.000000	50.000000
265.143910	265.892756	53.000000	50.000000
265.143910	265.892756	57.000000	60.000000
265.385832	265.627754	65.000000	67.000000
265.385832	265.627754	69.000000	79.000000
265.385832	265.627754	60.000000	67.000000
265.627754	265.892756	69.000000	79.000000
265.627754	265.892756	60.000000	67.000000
265.627754	265.892756	65.000000	67.000000
265.892756	266.593122	64.000000	70.000000
265.892756	266.593122	60.000000	70.000000
265.892756	266.593122	67.000000	84.000000
265.892756	266.593122	55.000000	61.000000
265.892756	266.593122	48.000000	51.000000
266.593122	266.825763	64.000000	70.000000
266.593122	266.825763	66.000000	70.000000
266.593122	267.304444	54.000000	51.000000
266.593122	267.304444	45.000000	51.000000
266.593122	267.304444	57.000000	61.000000
266.598942	266.827212	76.000000	77.000000
266.825763	267.056527	66.000000	70.000000
266.825763	267.056527	64.000000	70.000000
266.827212	267.053644	76.000000	71.000000
267.053644	267.301346	76.000000	71.000000
267.056527	267.304444	64.000000	70.000000
267.056527	267.304444	66.000000	70.000000
267.304444	267.996723	67.000000	67.000000
267.304444	267.996723	74.000000	80.000000
267.304444	267.996723	62.000000	67.000000
267.304444	267.996723	47.000000	53.000000
267.304444	267.996723	59.000000	63.000000
267.304444	267.996723	55.000000	53.000000
267.996723	268.229351	67.000000	86.000000
267.996723	268.229351	64.000000	72.000000
267.996723	268.700709	59.000000	62.000000
267.996723	268.700709	52.000000	52.000000
267.996723	268.700709	55.000000	46.000000
268.229351	268.458787	64.000000	66.000000
268.229351	268.458787	67.000000	78.000000
268.458787	268.700709	64.000000	66.000000
268.458787	268.700709	67.000000	78.000000
268.700709	269.401074	67.000000	71.000000
268.700709	269.401074	64.000000	71.000000
268.700709	269.401074	69.000000	84.000000
268.700709	269.401074	57.000000	66.000000
268.700709	269.401074	55.000000	56.000000
268.700709	269.401074	48.000000	56.000000
269.401074	269.638678	66.000000	71.000000
269.401074	269.638678	71.000000	84.000000
269.401074	269.638678	60.000000	71.000000
269.401074	270.128919	38.000000	50.000000
269.401074	270.128919	50.000000	59.000000
269.638678	269.876295	60.000000	63.000000
269.638678	269.876295	66.000000	63.000000
269.638678	269.876295	71.000000	75.000000
269.876295	270.128919	71.000000	75.000000
269.876295	270.128919	66.000000	63.000000
269.876295	270.128919	60.000000	63.000000
270.128919	272.302154	62.000000	71.000000
270.128919	272.302154	59.000000	71.000000
270.128919	272.302154	67.000000	84.000000
270.128919	270.841770	43.000000	66.000000
270.128919	270.841770	55.000000	66.000000
270.841770	271.389411	43.000000	65.000000
271.571962	272.119602	31.000000	69.000000
272.302154	272.765264	67.000000	55.000000
272.842445	273.207628	62.000000	57.000000
272.881042	273.207628	68.000000	61.000000
272.919639	273.207628	70.000000	65.000000
272.919639	273.207628	46.000000	48.000000
272.919639	273.207628	34.000000	48.000000
273.207628	273.495617	56.000000	42.000000
273.495617	273.780347	58.000000	42.000000
273.780347	273.920962	70.000000	59.000000
273.780347	274.060477	62.000000	48.000000
273.920962	274.060477	65.000000	55.000000
274.060477	274.198772	70.000000	59.000000
274.060477	274.335886	58.000000	42.000000
274.198772	274.335886	74.000000	62.000000
274.335886	274.426719	77.000000	66.000000
274.335886	274.606763	56.000000	42.000000
274.426719	274.517016	82.000000	69.000000
274.517016	274.606763	86.000000	71.000000
274.606763	274.893384	89.000000	74.000000
274.606763	274.893384	46.000000	48.000000
274.893384	275.180005	56.000000	41.000000
275.180005	275.466626	58.000000	41.000000
275.466626	275.753247	62.000000	48.000000
275.753247	276.039868	58.000000	40.000000
276.039868	276.183178	70.000000	56.000000
276.039868	276.326476	56.000000	41.000000
276.254834	276.613097	63.000000	58.000000
276.290655	276.613097	67.000000	62.000000
276.326476	276.613097	70.000000	66.000000
276.326476	276.613097	46.000000	48.000000
276.326476	276.613097	34.000000	48.000000
276.613097	276.899718	55.000000	41.000000
276.899718	277.186245	58.000000	41.000000
277.186245	277.326337	70.000000	56.000000
277.186245	277.464927	63.000000	48.000000
277.326337	277.464927	67.000000	53.000000
277.464927	277.601988	70.000000	63.000000
277.464927	277.737573	58.000000	42.000000
277.601988	277.737573	75.000000	58.000000
277.737573	277.827186	79.000000	64.000000
277.737573	278.008114	55.000000	42.000000
277.827186	277.916155	82.000000	68.000000
277.916155	278.008114	87.000000	71.000000
278.008114	278.150741	91.000000	75.000000
278.008114	278.293368	46.000000	48.000000
278.293368	278.578621	55.000000	42.000000
278.578621	278.863874	58.000000	42.000000
278.863874	279.149127	63.000000	48.000000
279.149127	279.436539	58.000000	42.000000
279.436539	279.587789	70.000000	59.000000
279.436539	279.739052	55.000000	42.000000
279.663414	280.026760	64.000000	64.000000
279.701233	280.026760	67.000000	67.000000
279.739052	280.026760	70.000000	70.000000
279.739052	280.026760	46.000000	48.000000
279.739052	280.026760	34.000000	48.000000
280.026760	280.312013	55.000000	43.000000
280.312013	280.595965	58.000000	43.000000
280.595965	280.733120	70.000000	67.000000
280.595965	280.869323	64.000000	52.000000
280.733120	280.869323	67.000000	62.000000
280.869323	281.004546	70.000000	66.000000
280.869323	281.138791	58.000000	43.000000
281.004546	281.138791	76.000000	69.000000
281.138791	281.227773	79.000000	72.000000
281.138791	281.405912	55.000000	44.000000
281.227773	281.316340	82.000000	74.000000
281.316340	281.405912	88.000000	77.000000
281.405912	281.547868	91.000000	79.000000
281.405912	281.689824	46.000000	50.000000
281.689824	281.973723	55.000000	43.000000
281.973723	282.257621	58.000000	43.000000
282.257621	282.541520	64.000000	51.000000
282.541520	282.825539	58.000000	44.000000
282.825539	283.116318	55.000000	44.000000
282.829174	282.974563	70.000000	58.000000
283.116318	283.399170	70.000000	61.000000
283.116318	283.399170	80.000000	72.000000
283.116318	283.399170	46.000000	51.000000
283.116318	283.399170	58.000000	61.000000
283.116318	283.399170	56.000000	51.000000
283.399170	283.677986	70.000000	57.000000
283.677986	283.959229	70.000000	57.000000
283.959229	284.237857	79.000000	73.000000
283.959229	284.237857	70.000000	62.000000
283.959229	284.237857	64.000000	43.000000
283.959229	284.237857	58.000000	43.000000
283.959229	284.237857	67.000000	51.000000
284.237857	284.519101	70.000000	56.000000
284.519101	284.800344	70.000000	57.000000
284.800344	285.081600	80.000000	76.000000
284.800344	285.081600	70.000000	64.000000
284.800344	285.081600	65.000000	44.000000
284.800344	285.081600	68.000000	53.000000
284.800344	285.081600	58.000000	44.000000
285.081600	285.358941	70.000000	57.000000
285.358941	285.640184	70.000000	57.000000
285.640184	285.921427	79.000000	76.000000
285.640184	285.921427	70.000000	63.000000
285.640184	285.921427	67.000000	51.000000
285.640184	285.921427	58.000000	43.000000
285.640184	285.921427	64.000000	43.000000
285.921427	286.202671	70.000000	59.000000
286.202671	286.484491	70.000000	59.000000
286.484491	286.773861	80.000000	75.000000
286.484491	286.773861	70.000000	64.000000
286.484491	286.773861	65.000000	57.000000
286.484491	286.773861	58.000000	57.000000
286.484491	286.773861	68.000000	68.000000
286.773861	287.053790	82.000000	59.000000
286.773861	287.053790	70.000000	50.000000
287.053790	287.333719	82.000000	59.000000
287.053790	287.333719	70.000000	50.000000
287.053790	287.333719	57.000000	53.000000
287.053790	287.333719	69.000000	63.000000
287.333719	287.613648	70.000000	54.000000
287.333719	287.613648	82.000000	64.000000
287.333719	287.893577	56.000000	58.000000
287.333719	287.893577	68.000000	68.000000
287.613648	287.893577	82.000000	60.000000
287.613648	287.893577	70.000000	50.000000
287.893577	288.173505	82.000000	60.000000
287.893577	288.173505	70.000000	51.000000
287.893577	288.173505	55.000000	59.000000
287.893577	288.173505	67.000000	70.000000
288.173505	288.453434	70.000000	57.000000
288.173505	288.453434	82.000000	68.000000
288.173505	288.734678	65.000000	71.000000
288.173505	288.734678	53.000000	59.000000
288.453434	288.734678	70.000000	51.000000
288.453434	288.734678	82.000000	60.000000
288.734678	289.010744	82.000000	61.000000
288.734678	289.010744	70.000000	51.000000
288.734678	289.010744	63.000000	73.000000
288.734678	289.010744	51.000000	61.000000
289.010744	289.286811	70.000000	58.000000
289.010744	289.286811	82.000000	69.000000
289.010744	289.562877	62.000000	74.000000
289.010744	289.562877	50.000000	62.000000
289.286811	289.562877	82.000000	62.000000
289.286811	289.562877	70.000000	52.000000
289.562877	289.838944	70.000000	52.000000
289.562877	289.838944	82.000000	62.000000
289.562877	289.838944	60.000000	77.000000
289.562877	289.838944	48.000000	65.000000
289.838944	290.110518	70.000000	56.000000
289.838944	290.110518	82.000000	66.000000
289.838944	290.385820	46.000000	67.000000
289.838944	290.385820	58.000000	79.000000
290.110518	290.385820	82.000000	67.000000
290.110518	290.385820	70.000000	56.000000
290.385820	290.656160	82.000000	69.000000
290.385820	290.656160	70.000000	58.000000
290.385820	290.656160	45.000000	68.000000
290.385820	290.656160	57.000000	81.000000
290.656160	290.928967	82.000000	71.000000
290.656160	290.928967	70.000000	59.000000
290.656160	291.206308	56.000000	83.000000
290.656160	291.206308	44.000000	69.000000
290.928967	291.206308	82.000000	72.000000
290.928967	291.206308	70.000000	61.000000
291.206308	291.484413	82.000000	75.000000
291.206308	291.484413	70.000000	62.000000
291.206308	291.484413	43.000000	72.000000
291.206308	291.484413	55.000000	86.000000
291.484413	291.766273	82.000000	76.000000
291.484413	291.766273	70.000000	63.000000
291.484413	292.051540	41.000000	73.000000
291.484413	292.051540	53.000000	87.000000
291.766273	292.051540	70.000000	65.000000
291.766273	292.051540	82.000000	77.000000
292.051540	292.340615	82.000000	80.000000
292.051540	292.340615	70.000000	67.000000
292.051540	292.340615	39.000000	75.000000
292.051540	292.340615	51.000000	89.000000
292.340615	292.633258	70.000000	68.000000
292.340615	292.633258	82.000000	81.000000
292.340615	292.929655	50.000000	90.000000
292.340615	292.929655	38.000000	76.000000
292.633258	292.929655	82.000000	84.000000
292.633258	292.929655	70.000000	70.000000
292.929655	293.229607	70.000000	71.000000
292.929655	293.229607	82.000000	85.000000
292.929655	293.229607	36.000000	78.000000
292.929655	293.229607	48.000000	93.000000
293.229607	293.518977	70.000000	73.000000
293.229607	293.518977	82.000000	87.000000
293.229607	293.798906	34.000000	83.000000
293.229607	293.798906	46.000000	100.000000
293.518977	293.798906	82.000000	79.000000
293.518977	293.798906	70.000000	66.000000
293.798906	294.078835	82.000000	79.000000
293.798906	294.078835	70.000000	66.000000
294.078835	294.358764	70.000000	77.000000
294.078835	294.358764	77.000000	77.000000
294.078835	294.358764	74.000000	77.000000
294.078835	294.358764	82.000000	90.000000
294.078835	294.638693	58.000000	70.000000
294.078835	294.638693	53.000000	70.000000
294.078835	294.638693	62.000000	82.000000
294.358764	294.638693	70.000000	71.000000
294.358764	294.638693	82.000000	85.000000
294.638693	294.944291	82.000000	85.000000
294.638693	294.944291	70.000000	71.000000
294.944291	295.224233	71.000000	78.000000
294.944291	295.224233	83.000000	93.000000
294.944291	295.504162	33.000000	83.000000
294.944291	295.504162	45.000000	98.000000
295.224233	295.504162	71.000000	69.000000
295.224233	295.504162	83.000000	81.000000
295.504162	295.784091	83.000000	81.000000
295.504162	295.784091	71.000000	69.000000
295.784091	296.064020	78.000000	78.000000
295.784091	296.064020	71.000000	78.000000
295.784091	296.064020	75.000000	78.000000
295.784091	296.064020	83.000000	93.000000
295.784091	296.343949	57.000000	67.000000
295.784091	296.343949	66.000000	80.000000
295.784091	296.343949	63.000000	67.000000
296.064020	296.343949	71.000000	69.000000
296.064020	296.343949	83.000000	81.000000
296.343949	296.639019	71.000000	67.000000
296.343949	296.639019	83.000000	80.000000
296.639019	296.918948	84.000000	87.000000
296.639019	296.918948	72.000000	73.000000
296.639019	297.198876	44.000000	100.000000
296.639019	297.198876	32.000000	83.000000
296.918948	297.198876	84.000000	79.000000
296.918948	297.198876	72.000000	66.000000
297.198876	297.478805	72.000000	66.000000
297.198876	297.478805	84.000000	79.000000
297.478805	297.758734	78.000000	77.000000
297.478805	297.758734	75.000000	77.000000
297.478805	297.758734	72.000000	77.000000
297.478805	297.758734	84.000000	90.000000
297.478805	298.038663	56.000000	70.000000
297.478805	298.038663	66.000000	82.000000
297.478805	298.038663	63.000000	70.000000
297.758734	298.038663	72.000000	71.000000
297.758734	298.038663	84.000000	85.000000
298.038663	298.330863	72.000000	71.000000
298.038663	298.330863	84.000000	85.000000
298.330863	298.610792	74.000000	78.000000
298.330863	298.610792	86.000000	93.000000
298.330863	298.890721	29.000000	83.000000
298.330863	298.890721	41.000000	98.000000
298.610792	298.890721	74.000000	69.000000
298.610792	298.890721	86.000000	81.000000
298.890721	299.170650	74.000000	69.000000
298.890721	299.170650	86.000000	81.000000
299.170650	302.093348	80.000000	78.000000
299.170650	302.093348	74.000000	78.000000
299.170650	302.093348	77.000000	78.000000
299.170650	302.093348	86.000000	93.000000
299.170650	299.730508	56.000000	67.000000
299.170650	299.730508	58.000000	67.000000
299.170650	299.730508	65.000000	80.000000
299.170650	299.730508	62.000000	67.000000
300.010437	301.819306	34.000000	98.000000
301.819306	301.888521	41.000000	51.000000
301.888521	301.957159	44.000000	53.000000
301.957159	302.025434	46.000000	54.000000
302.025434	302.093348	50.000000	56.000000
302.093348	302.161047	53.000000	57.000000
302.161047	302.228384	56.000000	59.000000
302.228384	302.295426	58.000000	60.000000
302.295426	302.363125	62.000000	56.000000
302.363125	302.431937	65.000000	61.000000
302.431937	302.501929	68.000000	63.000000
302.501929	302.573075	70.000000	66.000000
302.573075	302.645454	74.000000	69.000000
302.645454	302.719081	77.000000	72.000000
302.719081	302.793982	80.000000	74.000000
302.793982	304.919580	82.000000	82.000000
305.206201	305.529126	70.000000	47.000000
305.206201	305.529126	82.000000	58.000000
305.529126	305.856785	81.000000	55.000000
305.529126	305.856785	69.000000	44.000000
305.856785	306.189593	82.000000	61.000000
305.856785	306.189593	70.000000	49.000000
306.189593	306.527673	71.000000	53.000000
306.189593	306.527673	83.000000	66.000000
306.527673	306.917438	84.000000	70.000000
306.527673	306.917438	72.000000	56.000000
306.917438	308.004981	73.000000	55.000000
306.917438	308.004981	85.000000	69.000000
308.004981	309.619189	86.000000	62.000000
308.004981	309.619189	74.000000	50.000000
309.619189	311.201639	87.000000	85.000000
309.619189	311.201639	75.000000	72.000000
309.619189	310.149703	39.000000	62.000000
309.619189	310.149703	51.000000	74.000000
309.899641	310.149703	79.000000	62.000000
309.899641	310.149703	82.000000	62.000000
310.149703	310.399766	82.000000	62.000000
310.149703	310.399766	79.000000	62.000000
310.399766	310.918545	63.000000	63.000000
310.399766	310.918545	55.000000	53.000000
310.399766	310.918545	58.000000	53.000000
310.665318	310.918545	79.000000	62.000000
310.665318	310.918545	82.000000	62.000000
310.918545	311.201639	79.000000	62.000000
310.918545	311.201639	82.000000	62.000000
311.201639	312.766750	74.000000	69.000000
311.201639	312.766750	86.000000	82.000000
311.201639	311.731121	46.000000	74.000000
311.201639	311.731121	34.000000	62.000000
311.482091	311.731121	82.000000	61.000000
311.482091	311.731121	77.000000	61.000000
311.731121	311.980151	77.000000	61.000000
311.731121	311.980151	82.000000	61.000000
311.980151	312.478211	53.000000	54.000000
311.980151	312.478211	62.000000	64.000000
311.980151	312.478211	58.000000	54.000000
312.229181	312.478211	77.000000	59.000000
312.229181	312.478211	82.000000	59.000000
312.478211	312.766750	82.000000	59.000000
312.478211	312.766750	77.000000	59.000000
312.766750	314.353076	72.000000	68.000000
312.766750	314.353076	84.000000	81.000000
312.766750	313.289110	41.000000	62.000000
312.766750	313.289110	53.000000	74.000000
313.035883	313.289110	77.000000	60.000000
313.035883	313.289110	81.000000	60.000000
313.289110	313.542338	77.000000	60.000000
313.289110	313.542338	81.000000	60.000000
313.542338	314.063143	57.000000	56.000000
313.542338	314.063143	53.000000	56.000000
313.542338	314.063143	60.000000	66.000000
313.799910	314.063143	81.000000	62.000000
313.799910	314.063143	77.000000	62.000000
314.063143	314.353076	81.000000	62.000000
314.063143	314.353076	77.000000	62.000000
314.353076	315.937686	86.000000	88.000000
314.353076	315.937686	74.000000	74.000000
314.353076	314.888070	46.000000	74.000000
314.353076	314.888070	34.000000	62.000000
314.634842	314.888070	77.000000	65.000000
314.634842	314.888070	82.000000	65.000000
314.888070	315.141297	77.000000	66.000000
314.888070	315.141297	82.000000	66.000000
315.141297	315.647752	53.000000	56.000000
315.141297	315.647752	58.000000	56.000000
315.141297	315.647752	62.000000	67.000000
315.394525	315.647752	82.000000	65.000000
315.394525	315.647752	77.000000	65.000000
315.647752	315.937686	77.000000	65.000000
315.647752	315.937686	82.000000	65.000000
315.937686	317.511339	70.000000	71.000000
315.937686	317.511339	82.000000	84.000000
315.937686	316.472224	39.000000	69.000000
315.937686	316.472224	51.000000	82.000000
316.216837	316.472224	79.000000	72.000000
316.216837	316.472224	75.000000	72.000000
316.472224	316.723332	75.000000	72.000000
316.472224	316.723332	79.000000	72.000000
316.723332	317.225549	58.000000	63.000000
316.723332	317.225549	55.000000	63.000000
316.723332	317.225549	63.000000	75.000000
316.974441	317.225549	79.000000	71.000000
316.974441	317.225549	75.000000	71.000000
317.225549	317.511339	79.000000	71.000000
317.225549	317.511339	75.000000	71.000000
317.511339	319.106262	72.000000	73.000000
317.511339	319.106262	84.000000	86.000000
317.511339	318.050919	56.000000	82.000000
317.511339	318.050919	44.000000	69.000000
317.794446	318.050919	80.000000	72.000000
317.794446	318.050919	75.000000	72.000000
318.050919	318.304147	75.000000	72.000000
318.050919	318.304147	80.000000	72.000000
318.304147	318.810602	60.000000	63.000000
318.304147	318.810602	56.000000	63.000000
318.304147	318.810602	63.000000	75.000000
318.557374	318.810602	75.000000	72.000000
318.557374	318.810602	80.000000	72.000000
318.810602	319.106262	80.000000	68.000000
318.810602	319.106262	75.000000	68.000000
319.106262	320.712102	74.000000	73.000000
319.106262	320.712102	86.000000	87.000000
319.106262	319.642986	53.000000	82.000000
319.106262	319.642986	41.000000	69.000000
319.385413	319.642986	80.000000	75.000000
319.385413	319.642986	77.000000	75.000000
319.642986	319.897286	80.000000	75.000000
319.642986	319.897286	77.000000	75.000000
319.897286	320.405887	58.000000	61.000000
319.897286	320.405887	56.000000	61.000000
319.897286	320.405887	53.000000	61.000000
319.897286	320.405887	62.000000	72.000000
320.151587	320.405887	77.000000	68.000000
320.151587	320.405887	80.000000	68.000000
320.405887	320.712102	80.000000	74.000000
320.405887	320.712102	77.000000	74.000000
320.712102	321.532228	87.000000	90.000000
320.712102	321.532228	75.000000	76.000000
320.712102	321.259420	51.000000	93.000000
320.712102	321.259420	39.000000	79.000000
320.993868	321.259420	82.000000	77.000000
320.993868	321.259420	79.000000	77.000000
321.259420	321.532228	82.000000	77.000000
321.259420	321.532228	79.000000	77.000000
321.532228	321.628291	39.000000	58.000000
321.628291	321.724355	46.000000	52.000000
321.724355	321.820418	51.000000	52.000000
321.820418	321.912082	55.000000	58.000000
321.912082	322.003747	58.000000	52.000000
322.003747	322.095412	63.000000	52.000000
322.095412	322.185789	67.000000	70.000000
322.185789	322.275133	70.000000	66.000000
322.275133	322.363713	75.000000	66.000000
322.363713	322.451636	70.000000	75.000000
322.451636	322.538754	67.000000	73.000000
322.538754	322.625269	70.000000	70.000000
322.625269	322.711019	75.000000	84.000000
322.711019	322.796179	79.000000	80.000000
322.796179	322.881433	82.000000	80.000000
322.881433	322.971985	87.000000	100.000000
322.971985	323.069537	91.000000	87.000000
323.069537	323.175162	94.000000	95.000000
323.175162	324.662515	99.000000	100.000000
324.662515	326.244966	87.000000	85.000000
324.662515	326.244966	75.000000	72.000000
324.662515	325.193030	48.000000	62.000000
324.662515	325.193030	60.000000	74.000000
324.942967	325.193030	84.000000	62.000000
324.942967	325.193030	79.000000	62.000000
325.193030	325.443092	79.000000	62.000000
325.193030	325.443092	84.000000	62.000000
325.443092	325.961872	55.000000	53.000000
325.443092	325.961872	60.000000	53.000000
325.443092	325.961872	63.000000	63.000000
325.708645	325.961872	84.000000	62.000000
325.708645	325.961872	79.000000	62.000000
325.961872	326.244966	79.000000	62.000000
325.961872	326.244966	84.000000	62.000000
326.244966	327.810076	75.000000	74.000000
326.244966	327.810076	87.000000	87.000000
326.244966	326.774448	44.000000	62.000000
326.244966	326.774448	56.000000	74.000000
326.525418	326.774448	84.000000	67.000000
326.525418	326.774448	80.000000	67.000000
326.774448	327.023478	84.000000	67.000000
326.774448	327.023478	80.000000	67.000000
327.023478	327.521537	56.000000	54.000000
327.023478	327.521537	63.000000	64.000000
327.023478	327.521537	60.000000	54.000000
327.272507	327.521537	80.000000	64.000000
327.272507	327.521537	84.000000	64.000000
327.521537	327.810076	80.000000	64.000000
327.521537	327.810076	84.000000	64.000000
327.810076	329.396403	82.000000	81.000000
327.810076	329.396403	70.000000	68.000000
327.810076	328.332437	43.000000	62.000000
327.810076	328.332437	55.000000	74.000000
328.079209	328.332437	75.000000	60.000000
328.079209	328.332437	79.000000	64.000000
328.332437	328.585664	79.000000	64.000000
328.332437	328.585664	75.000000	60.000000
328.585664	329.106469	55.000000	56.000000
328.585664	329.106469	63.000000	66.000000
328.585664	329.106469	58.000000	56.000000
328.843237	329.106469	79.000000	65.000000
328.843237	329.106469	75.000000	62.000000
329.106469	329.396403	75.000000	62.000000
329.106469	329.396403	79.000000	65.000000
329.396403	330.981013	70.000000	74.000000
329.396403	330.981013	82.000000	88.000000
329.396403	329.931396	34.000000	62.000000
329.396403	329.931396	46.000000	74.000000
329.678169	329.931396	77.000000	65.000000
329.931396	330.184624	77.000000	66.000000
330.184624	330.691079	53.000000	56.000000
330.184624	330.691079	65.000000	67.000000
330.184624	330.691079	58.000000	56.000000
330.437851	330.691079	77.000000	65.000000
330.691079	330.981013	77.000000	65.000000
330.981013	332.554666	67.000000	71.000000
330.981013	332.554666	79.000000	84.000000
330.981013	331.515550	39.000000	69.000000
330.981013	331.515550	51.000000	82.000000
331.260164	331.515550	75.000000	64.000000
331.260164	331.515550	70.000000	64.000000
331.515550	331.766659	75.000000	64.000000
331.515550	331.766659	70.000000	64.000000
331.766659	332.268876	58.000000	63.000000
331.766659	332.268876	55.000000	63.000000
331.766659	332.268876	63.000000	75.000000
332.017767	332.268876	70.000000	63.000000
332.017767	332.268876	75.000000	63.000000
332.268876	332.554666	70.000000	63.000000
332.268876	332.554666	75.000000	63.000000
332.554666	334.149589	82.000000	86.000000
332.554666	334.149589	70.000000	73.000000
332.554666	333.094246	52.000000	82.000000
332.554666	333.094246	40.000000	69.000000
332.837773	333.094246	79.000000	72.000000
332.837773	333.094246	73.000000	72.000000
333.094246	333.347473	79.000000	72.000000
333.094246	333.347473	73.000000	72.000000
333.347473	333.853929	52.000000	63.000000
333.347473	333.853929	61.000000	75.000000
333.347473	333.853929	58.000000	63.000000
333.600701	333.853929	73.000000	72.000000
333.600701	333.853929	79.000000	72.000000
333.853929	334.149589	79.000000	68.000000
333.853929	334.149589	73.000000	68.000000
334.149589	335.755428	80.000000	87.000000
334.149589	335.755428	68.000000	73.000000
334.149589	334.686312	53.000000	82.000000
334.149589	335.449214	41.000000	69.000000
334.428740	334.686312	72.000000	75.000000
334.428740	334.686312	77.000000	75.000000
334.686312	334.940613	77.000000	75.000000
334.686312	334.940613	72.000000	75.000000
334.940613	335.449214	60.000000	72.000000
334.940613	335.449214	53.000000	61.000000
334.940613	335.449214	56.000000	61.000000
335.194913	335.449214	72.000000	68.000000
335.194913	335.449214	77.000000	68.000000
335.449214	335.755428	34.000000	74.000000
335.449214	335.755428	46.000000	74.000000
335.755428	336.575541	79.000000	90.000000
335.755428	336.575541	67.000000	76.000000
335.755428	336.302747	48.000000	93.000000
335.755428	336.302747	36.000000	79.000000
336.037194	336.302747	72.000000	77.000000
336.037194	336.302747	75.000000	77.000000
336.302747	336.575541	72.000000	77.000000
336.302747	336.575541	75.000000	77.000000
336.575541	336.671604	36.000000	58.000000
336.671604	336.767668	48.000000	52.000000
336.767668	336.863731	51.000000	52.000000
336.863731	336.955396	55.000000	58.000000
336.955396	337.047060	60.000000	52.000000
337.047060	337.138725	63.000000	52.000000
337.138725	337.229102	67.000000	75.000000
337.229102	337.318446	72.000000	66.000000
337.318446	337.407026	75.000000	66.000000
337.407026	337.494949	72.000000	81.000000
337.494949	337.582067	67.000000	76.000000
337.582067	337.668582	72.000000	76.000000
337.668582	337.754332	75.000000	87.000000
337.754332	337.839493	79.000000	85.000000
337.839493	337.924747	84.000000	85.000000
337.924747	337.992070	87.000000	86.000000
337.992070	338.063082	91.000000	89.000000
338.063082	338.138398	96.000000	92.000000
338.138398	338.218475	99.000000	95.000000
338.218475	339.705842	103.000000	98.000000
339.705842	341.288293	79.000000	85.000000
339.705842	341.288293	67.000000	72.000000
339.705842	340.236356	36.000000	62.000000
339.705842	340.236356	48.000000	74.000000
339.986294	340.236356	72.000000	62.000000
339.986294	340.236356	75.000000	62.000000
340.236356	340.486419	75.000000	62.000000
340.236356	340.486419	72.000000	62.000000
340.486419	341.005199	55.000000	53.000000
340.486419	341.005199	60.000000	53.000000
340.486419	341.005199	63.000000	63.000000
340.751971	341.005199	72.000000	62.000000
340.751971	341.005199	75.000000	62.000000
341.005199	341.288293	75.000000	62.000000
341.005199	341.288293	72.000000	62.000000
341.288293	342.853403	72.000000	69.000000
341.288293	342.853403	84.000000	83.000000
341.288293	341.817774	44.000000	62.000000
341.288293	341.817774	56.000000	74.000000
341.568744	341.817774	75.000000	61.000000
341.568744	341.817774	80.000000	61.000000
341.817774	342.066804	80.000000	61.000000
341.817774	342.066804	75.000000	61.000000
342.066804	342.564864	56.000000	54.000000
342.066804	342.564864	60.000000	54.000000
342.066804	342.564864	63.000000	64.000000
342.315834	342.564864	80.000000	59.000000
342.315834	342.564864	75.000000	59.000000
342.564864	342.853403	80.000000	59.000000
342.564864	342.853403	75.000000	59.000000
342.853403	344.439729	84.000000	89.000000
342.853403	344.439729	72.000000	74.000000
342.853403	343.375763	56.000000	81.000000
342.853403	343.375763	44.000000	68.000000
343.122536	343.375763	77.000000	66.000000
343.122536	343.375763	74.000000	66.000000
343.375763	343.628991	74.000000	66.000000
343.375763	343.628991	77.000000	66.000000
343.628991	344.149796	58.000000	61.000000
343.628991	344.149796	56.000000	61.000000
343.628991	344.149796	62.000000	61.000000
343.628991	344.149796	65.000000	72.000000
343.886564	344.149796	77.000000	68.000000
343.886564	344.149796	74.000000	68.000000
344.149796	344.439729	74.000000	68.000000
344.149796	344.439729	77.000000	68.000000
344.439729	346.024339	70.000000	74.000000
344.439729	346.024339	82.000000	88.000000
344.439729	344.974723	43.000000	62.000000
344.439729	344.974723	55.000000	74.000000
344.721495	344.974723	79.000000	65.000000
344.721495	344.974723	75.000000	65.000000
344.974723	345.227951	79.000000	66.000000
344.974723	345.227951	75.000000	66.000000
345.227951	345.734406	63.000000	67.000000
345.227951	345.734406	55.000000	56.000000
345.227951	345.734406	58.000000	56.000000
345.481178	345.734406	75.000000	65.000000
345.481178	345.734406	79.000000	65.000000
345.734406	346.024339	79.000000	65.000000
345.734406	346.024339	75.000000	65.000000
346.024339	347.597992	74.000000	75.000000
346.024339	347.597992	86.000000	87.000000
346.024339	346.558877	47.000000	82.000000
346.024339	346.558877	35.000000	69.000000
346.303490	346.558877	80.000000	72.000000
346.303490	346.558877	77.000000	72.000000
346.558877	346.809985	77.000000	72.000000
346.558877	346.809985	80.000000	72.000000
346.809985	347.312203	53.000000	63.000000
346.809985	347.312203	62.000000	75.000000
346.809985	347.312203	56.000000	63.000000
347.061094	347.312203	80.000000	71.000000
347.061094	347.312203	77.000000	71.000000
347.312203	347.597992	80.000000	71.000000
347.312203	347.597992	77.000000	71.000000
347.597992	349.192915	87.000000	96.000000
347.597992	349.192915	75.000000	81.000000
347.597992	348.137573	48.000000	82.000000
347.597992	348.137573	36.000000	69.000000
347.881100	348.137573	79.000000	72.000000
347.881100	348.137573	84.000000	72.000000
348.137573	348.390800	84.000000	72.000000
348.137573	348.390800	79.000000	72.000000
348.390800	348.897255	60.000000	63.000000
348.390800	348.897255	55.000000	63.000000
348.390800	348.897255	63.000000	75.000000
348.644028	348.897255	79.000000	72.000000
348.644028	348.897255	84.000000	72.000000
348.897255	349.192915	79.000000	68.000000
348.897255	349.192915	84.000000	68.000000
349.192915	350.798755	72.000000	73.000000
349.192915	350.798755	84.000000	87.000000
349.192915	349.729639	53.000000	82.000000
349.192915	349.729639	41.000000	69.000000
349.472066	349.729639	81.000000	75.000000
349.472066	349.729639	75.000000	75.000000
349.729639	349.983939	81.000000	75.000000
349.729639	349.983939	75.000000	75.000000
349.983939	350.492540	63.000000	72.000000
349.983939	350.492540	53.000000	61.000000
349.983939	350.492540	57.000000	61.000000
350.238240	350.492540	75.000000	68.000000
350.238240	350.492540	81.000000	68.000000
350.492540	350.798755	81.000000	74.000000
350.492540	350.798755	75.000000	74.000000
350.798755	351.618881	70.000000	76.000000
350.798755	351.618881	82.000000	90.000000
350.798755	351.346073	34.000000	79.000000
350.798755	351.346073	46.000000	93.000000
351.080521	351.346073	74.000000	77.000000
351.080521	351.346073	77.000000	77.000000
351.346073	351.618881	74.000000	77.000000
351.346073	351.618881	77.000000	77.000000
351.618881	351.714944	46.000000	60.000000
351.714944	351.811008	53.000000	53.000000
351.811008	351.907071	58.000000	53.000000
351.907071	351.998736	62.000000	65.000000
351.998736	352.090400	65.000000	59.000000
352.090400	352.182065	70.000000	60.000000
352.182065	352.272442	74.000000	70.000000
352.272442	352.361786	77.000000	63.000000
352.361786	352.450366	82.000000	65.000000
352.450366	352.538289	77.000000	75.000000
352.538289	352.625407	74.000000	69.000000
352.625407	352.711976	77.000000	73.000000
352.711976	352.803922	82.000000	81.000000
352.803922	352.905967	86.000000	86.000000
352.905967	353.017868	89.000000	92.000000
353.017868	353.982499	94.000000	103.000000
353.982499	355.564949	75.000000	75.000000
353.982499	355.564949	87.000000	89.000000
353.982499	354.513013	60.000000	77.000000
353.982499	354.513013	48.000000	65.000000
354.262951	354.513013	84.000000	65.000000
354.262951	354.513013	79.000000	65.000000
354.513013	354.763076	79.000000	65.000000
354.513013	354.763076	84.000000	65.000000
354.763076	355.281855	55.000000	55.000000
354.763076	355.281855	60.000000	55.000000
354.763076	355.281855	63.000000	66.000000
355.028628	355.281855	79.000000	65.000000
355.028628	355.281855	84.000000	65.000000
355.281855	355.564949	79.000000	65.000000
355.281855	355.564949	84.000000	65.000000
355.564949	357.130060	86.000000	91.000000
355.564949	357.130060	74.000000	72.000000
355.564949	356.094431	55.000000	77.000000
355.564949	356.094431	43.000000	65.000000
355.845401	356.094431	79.000000	64.000000
355.845401	356.094431	82.000000	64.000000
356.094431	356.343461	79.000000	64.000000
356.094431	356.343461	82.000000	64.000000
356.343461	356.841521	55.000000	56.000000
356.343461	356.841521	62.000000	67.000000
356.343461	356.841521	58.000000	56.000000
356.592491	356.841521	79.000000	61.000000
356.592491	356.841521	82.000000	61.000000
356.841521	357.130060	79.000000	61.000000
356.841521	357.130060	82.000000	61.000000
357.130060	358.716386	72.000000	71.000000
357.130060	358.716386	84.000000	85.000000
357.130060	357.652420	56.000000	77.000000
357.130060	357.652420	44.000000	65.000000
357.399193	357.652420	80.000000	63.000000
357.399193	357.652420	75.000000	63.000000
357.652420	357.905648	75.000000	63.000000
357.652420	357.905648	80.000000	63.000000
357.905648	358.426453	56.000000	58.000000
357.905648	358.426453	53.000000	58.000000
357.905648	358.426453	60.000000	69.000000
358.163220	358.426453	75.000000	65.000000
358.163220	358.426453	80.000000	65.000000
358.426453	358.716386	75.000000	65.000000
358.426453	358.716386	80.000000	65.000000
358.716386	360.300996	70.000000	74.000000
358.716386	360.300996	82.000000	88.000000
358.716386	359.251380	51.000000	74.000000
358.716386	359.251380	39.000000	62.000000
358.998152	359.251380	75.000000	68.000000
358.998152	359.251380	79.000000	68.000000
359.251380	359.504607	79.000000	66.000000
359.251380	359.504607	75.000000	66.000000
359.504607	360.011062	58.000000	56.000000
359.504607	360.011062	55.000000	56.000000
359.504607	360.011062	63.000000	67.000000
359.757835	360.011062	75.000000	65.000000
359.757835	360.011062	79.000000	65.000000
360.011062	360.300996	75.000000	65.000000
360.011062	360.300996	79.000000	65.000000
360.300996	361.874649	67.000000	71.000000
360.300996	361.874649	79.000000	84.000000
360.300996	360.835534	40.000000	69.000000
360.300996	360.835534	52.000000	82.000000
360.580147	360.835534	70.000000	68.000000
360.580147	360.835534	73.000000	68.000000
360.835534	361.086642	73.000000	68.000000
360.835534	361.086642	70.000000	68.000000
361.086642	361.588859	58.000000	63.000000
361.086642	361.588859	61.000000	75.000000
361.086642	361.588859	52.000000	63.000000
361.337751	361.588859	70.000000	67.000000
361.337751	361.588859	73.000000	67.000000
361.588859	361.874649	73.000000	67.000000
361.588859	361.874649	70.000000	67.000000
361.874649	362.667457	80.000000	86.000000
361.874649	362.667457	68.000000	73.000000
361.874649	362.667457	53.000000	82.000000
361.874649	362.667457	41.000000	69.000000
362.157756	362.414229	72.000000	68.000000
362.157756	362.414229	77.000000	68.000000
362.414229	362.667457	72.000000	70.000000
362.414229	362.667457	77.000000	70.000000
362.667457	363.475218	67.000000	76.000000
362.667457	363.475218	79.000000	90.000000
362.667457	363.475218	43.000000	72.000000
362.667457	363.475218	55.000000	86.000000
362.927886	363.179558	75.000000	72.000000
362.927886	363.179558	70.000000	72.000000
363.179558	363.475218	70.000000	69.000000
363.179558	363.475218	75.000000	69.000000
363.475218	365.081058	65.000000	77.000000
363.475218	365.081058	77.000000	90.000000
363.475218	364.266242	58.000000	86.000000
363.475218	364.966232	46.000000	73.000000
363.754369	364.011942	70.000000	68.000000
363.754369	364.011942	75.000000	81.000000
364.011942	364.266242	70.000000	68.000000
364.011942	364.266242	75.000000	81.000000
364.266242	364.679477	63.000000	79.000000
364.266242	365.081058	58.000000	67.000000
364.520543	364.774843	75.000000	79.000000
364.520543	364.774843	70.000000	67.000000
364.774843	365.081058	70.000000	68.000000
364.774843	365.081058	75.000000	80.000000
364.966232	366.719593	46.000000	51.000000
365.004507	366.719593	53.000000	55.000000
365.042783	366.719593	56.000000	57.000000
365.081058	366.446786	65.000000	73.000000
365.081058	366.446786	68.000000	73.000000
365.081058	366.446786	74.000000	73.000000
365.081058	366.446786	77.000000	87.000000
365.081058	366.719593	62.000000	61.000000
366.446786	366.719593	75.000000	80.000000
366.719593	367.265209	63.000000	72.000000
366.719593	367.265209	67.000000	72.000000
366.719593	367.265209	75.000000	72.000000
366.719593	366.992401	51.000000	72.000000
366.719593	366.992401	39.000000	61.000000
366.992401	367.265209	55.000000	46.000000
366.992401	367.265209	58.000000	55.000000
366.992401	367.265209	51.000000	46.000000
367.265209	367.537896	58.000000	56.000000
367.265209	367.537896	55.000000	47.000000
367.265209	367.537896	51.000000	47.000000
367.537896	367.670437	63.000000	65.000000
367.537896	367.802107	51.000000	44.000000
367.537896	367.802107	58.000000	52.000000
367.537896	367.802107	55.000000	44.000000
367.670437	367.802107	67.000000	68.000000
367.802107	367.932865	70.000000	70.000000
367.802107	368.062697	51.000000	38.000000
367.802107	368.062697	58.000000	45.000000
367.802107	368.062697	55.000000	38.000000
367.932865	368.062697	75.000000	73.000000
368.062697	368.198484	79.000000	75.000000
368.062697	368.334271	51.000000	38.000000
368.062697	368.334271	58.000000	45.000000
368.062697	368.334271	55.000000	38.000000
368.198484	368.334271	82.000000	78.000000
368.334271	368.598656	87.000000	89.000000
368.334271	368.598656	55.000000	44.000000
368.334271	368.598656	51.000000	44.000000
368.334271	368.598656	58.000000	52.000000
368.598656	368.863042	55.000000	37.000000
368.598656	368.863042	51.000000	37.000000
368.598656	368.863042	58.000000	43.000000
368.863042	369.127427	55.000000	38.000000
368.863042	369.127427	51.000000	38.000000
368.863042	369.127427	58.000000	44.000000
369.127427	369.391813	51.000000	41.000000
369.127427	369.391813	55.000000	41.000000
369.127427	369.391813	58.000000	49.000000
369.391813	369.656198	51.000000	38.000000
369.391813	369.656198	58.000000	47.000000
369.391813	369.656198	55.000000	38.000000
369.656198	369.935350	63.000000	69.000000
369.656198	369.935350	75.000000	74.000000
369.656198	369.935350	55.000000	42.000000
369.656198	369.935350	58.000000	50.000000
369.656198	369.935350	51.000000	42.000000
369.935350	370.749910	70.000000	63.000000
369.935350	370.749910	67.000000	63.000000
369.935350	370.749910	63.000000	63.000000
369.935350	370.749910	75.000000	74.000000
369.935350	370.206923	37.000000	63.000000
369.935350	370.206923	49.000000	74.000000
370.206923	370.478484	58.000000	57.000000
370.206923	370.478484	49.000000	48.000000
370.206923	370.478484	55.000000	48.000000
370.206923	370.478484	51.000000	48.000000
370.478484	370.749910	51.000000	49.000000
370.478484	370.749910	55.000000	49.000000
370.478484	370.749910	49.000000	49.000000
370.478484	370.749910	58.000000	58.000000
370.749910	370.881526	63.000000	67.000000
370.749910	371.012700	51.000000	45.000000
370.749910	371.012700	49.000000	45.000000
370.749910	371.012700	58.000000	54.000000
370.749910	371.012700	55.000000	45.000000
370.881526	371.012700	67.000000	65.000000
371.012700	371.143457	70.000000	74.000000
371.012700	371.273786	55.000000	40.000000
371.012700	371.273786	49.000000	40.000000
371.012700	371.273786	58.000000	47.000000
371.012700	371.273786	51.000000	40.000000
371.143457	371.273786	75.000000	77.000000
371.273786	371.410807	79.000000	79.000000
371.273786	371.547828	49.000000	40.000000
371.273786	371.547828	58.000000	47.000000
371.273786	371.547828	55.000000	40.000000
371.273786	371.547828	51.000000	40.000000
371.410807	371.547828	82.000000	78.000000
371.547828	371.812213	87.000000	92.000000
371.547828	371.812213	49.000000	45.000000
371.547828	371.812213	58.000000	54.000000
371.547828	371.812213	55.000000	45.000000
371.547828	371.812213	51.000000	45.000000
371.812213	372.076599	58.000000	46.000000
371.812213	372.076599	51.000000	38.000000
371.812213	372.076599	49.000000	38.000000
371.812213	372.076599	55.000000	38.000000
372.076599	372.337537	55.000000	38.000000
372.076599	372.337537	49.000000	38.000000
372.076599	372.337537	58.000000	46.000000
372.076599	372.337537	51.000000	38.000000
372.337537	372.599616	49.000000	42.000000
372.337537	372.599616	51.000000	42.000000
372.337537	372.599616	58.000000	51.000000
372.337537	372.599616	55.000000	42.000000
372.599616	372.865169	55.000000	40.000000
372.599616	372.865169	58.000000	49.000000
372.599616	372.865169	49.000000	40.000000
372.599616	372.865169	51.000000	40.000000
372.865169	373.150958	75.000000	76.000000
372.865169	373.150958	63.000000	72.000000
372.865169	373.150958	55.000000	43.000000
372.865169	373.150958	51.000000	43.000000
372.865169	373.150958	49.000000	43.000000
372.865169	373.150958	58.000000	52.000000
373.150958	373.961804	75.000000	76.000000
373.150958	373.961804	63.000000	65.000000
373.150958	373.961804	68.000000	65.000000
373.150958	373.421298	36.000000	65.000000
373.150958	373.421298	48.000000	76.000000
373.421298	373.691638	48.000000	49.000000
373.421298	373.691638	56.000000	49.000000
373.421298	373.691638	51.000000	49.000000
373.421298	373.691638	60.000000	59.000000
373.691638	373.961804	51.000000	51.000000
373.691638	373.961804	60.000000	61.000000
373.691638	373.961804	48.000000	51.000000
373.691638	373.961804	56.000000	51.000000
373.961804	374.091489	63.000000	73.000000
373.961804	374.220329	56.000000	47.000000
373.961804	374.220329	48.000000	47.000000
373.961804	374.220329	60.000000	56.000000
373.961804	374.220329	51.000000	47.000000
374.091489	374.220329	68.000000	76.000000
374.220329	374.348297	72.000000	79.000000
374.220329	374.475380	60.000000	49.000000
374.220329	374.475380	51.000000	41.000000
374.220329	374.475380	56.000000	41.000000
374.220329	374.475380	48.000000	41.000000
374.348297	374.475380	75.000000	80.000000
374.475380	374.612401	80.000000	86.000000
374.475380	374.749422	51.000000	42.000000
374.475380	374.749422	48.000000	42.000000
374.475380	374.749422	60.000000	49.000000
374.475380	374.749422	56.000000	42.000000
374.612401	374.749422	84.000000	85.000000
374.749422	375.020982	87.000000	97.000000
374.749422	375.020982	51.000000	46.000000
374.749422	375.020982	60.000000	55.000000
374.749422	375.020982	56.000000	46.000000
374.749422	375.020982	48.000000	46.000000
375.020982	375.285368	48.000000	40.000000
375.020982	375.285368	56.000000	40.000000
375.020982	375.285368	60.000000	47.000000
375.020982	375.285368	51.000000	40.000000
375.285368	375.547446	51.000000	40.000000
375.285368	375.547446	56.000000	40.000000
375.285368	375.547446	48.000000	40.000000
375.285368	375.547446	60.000000	47.000000
375.547446	375.812999	51.000000	44.000000
375.547446	375.812999	60.000000	53.000000
375.547446	375.812999	56.000000	44.000000
375.547446	375.812999	48.000000	44.000000
375.812999	376.080925	48.000000	42.000000
375.812999	376.080925	60.000000	51.000000
375.812999	376.080925	56.000000	42.000000
375.812999	376.080925	51.000000	42.000000
376.080925	376.372266	63.000000	74.000000
376.080925	376.372266	75.000000	79.000000
376.080925	376.372266	51.000000	45.000000
376.080925	376.372266	48.000000	45.000000
376.080925	376.372266	60.000000	54.000000
376.080925	376.372266	56.000000	45.000000
376.372266	377.186773	77.000000	80.000000
376.372266	377.186773	75.000000	68.000000
376.372266	377.186773	68.000000	68.000000
376.372266	377.186773	71.000000	68.000000
376.372266	376.643827	44.000000	80.000000
376.372266	376.643827	32.000000	68.000000
376.643827	376.915387	56.000000	52.000000
376.643827	376.915387	51.000000	52.000000
376.643827	376.915387	59.000000	62.000000
376.915387	377.186773	51.000000	53.000000
376.915387	377.186773	56.000000	53.000000
376.915387	377.186773	59.000000	63.000000
377.186773	377.317022	65.000000	75.000000
377.186773	377.446304	51.000000	49.000000
377.186773	377.446304	56.000000	49.000000
377.186773	377.446304	59.000000	58.000000
377.317022	377.446304	71.000000	73.000000
377.446304	377.574541	75.000000	82.000000
377.446304	377.701744	51.000000	43.000000
377.446304	377.701744	59.000000	51.000000
377.446304	377.701744	56.000000	43.000000
377.574541	377.701744	77.000000	79.000000
377.701744	377.840670	83.000000	88.000000
377.701744	377.979595	51.000000	43.000000
377.701744	377.979595	59.000000	51.000000
377.701744	377.979595	56.000000	43.000000
377.840670	377.979595	87.000000	88.000000
377.979595	378.249935	89.000000	99.000000
377.979595	378.249935	56.000000	48.000000
377.979595	378.249935	59.000000	57.000000
377.979595	378.249935	51.000000	48.000000
378.249935	378.516667	56.000000	41.000000
378.249935	378.516667	51.000000	41.000000
378.249935	378.516667	59.000000	49.000000
378.516667	378.779899	56.000000	41.000000
378.516667	378.779899	59.000000	49.000000
378.516667	378.779899	51.000000	41.000000
378.779899	379.045452	56.000000	45.000000
378.779899	379.045452	59.000000	54.000000
378.779899	379.045452	51.000000	45.000000
379.045452	379.313378	59.000000	51.000000
379.045452	379.313378	51.000000	42.000000
379.045452	379.313378	56.000000	42.000000
379.313378	379.595144	65.000000	75.000000
379.313378	379.595144	77.000000	80.000000
379.313378	379.595144	51.000000	45.000000
379.313378	379.595144	59.000000	54.000000
379.313378	379.595144	56.000000	45.000000
379.595144	380.407559	70.000000	68.000000
379.595144	380.407559	79.000000	80.000000
379.595144	380.407559	67.000000	68.000000
379.595144	380.407559	75.000000	68.000000
379.595144	379.867938	39.000000	80.000000
379.595144	379.867938	27.000000	68.000000
379.867938	380.140746	55.000000	52.000000
379.867938	380.140746	63.000000	62.000000
379.867938	380.140746	58.000000	52.000000
379.867938	380.140746	51.000000	52.000000
380.140746	380.407559	63.000000	64.000000
380.140746	380.407559	51.000000	54.000000
380.140746	380.407559	55.000000	54.000000
380.140746	380.407559	58.000000	54.000000
380.407559	380.540100	67.000000	81.000000
380.407559	380.672212	63.000000	66.000000
380.407559	380.672212	58.000000	56.000000
380.407559	380.672212	51.000000	56.000000
380.407559	380.672212	55.000000	56.000000
380.540100	380.672212	70.000000	70.000000
380.672212	380.803413	75.000000	88.000000
380.672212	380.934707	63.000000	58.000000
380.672212	380.934707	58.000000	49.000000
380.672212	380.934707	51.000000	49.000000
380.672212	380.934707	55.000000	49.000000
380.803413	380.934707	79.000000	83.000000
380.934707	381.066551	82.000000	95.000000
380.934707	381.198945	63.000000	59.000000
380.934707	381.198945	58.000000	49.000000
380.934707	381.198945	51.000000	49.000000
380.934707	381.198945	55.000000	49.000000
381.066551	381.198945	87.000000	87.000000
381.198945	381.334732	91.000000	102.000000
381.198945	381.470519	51.000000	56.000000
381.198945	381.470519	55.000000	56.000000
381.198945	381.470519	58.000000	67.000000
381.198945	381.470519	46.000000	56.000000
381.334732	381.470519	87.000000	81.000000
381.470519	381.603033	82.000000	93.000000
381.470519	381.735226	58.000000	61.000000
381.470519	381.735226	51.000000	51.000000
381.470519	381.735226	55.000000	51.000000
381.470519	381.735226	46.000000	51.000000
381.603033	381.735226	79.000000	87.000000
381.735226	381.867419	82.000000	94.000000
381.735226	381.999612	51.000000	51.000000
381.735226	381.999612	55.000000	51.000000
381.735226	381.999612	58.000000	61.000000
381.735226	381.999612	46.000000	51.000000
381.867419	381.999612	87.000000	89.000000
381.999612	382.131335	91.000000	110.000000
381.999612	382.263595	51.000000	57.000000
381.999612	382.263595	43.000000	57.000000
381.999612	382.263595	46.000000	57.000000
381.999612	382.263595	55.000000	68.000000
382.131335	382.263595	87.000000	85.000000
382.263595	382.396552	82.000000	96.000000
382.263595	382.530314	55.000000	65.000000
382.263595	382.530314	43.000000	55.000000
382.263595	382.530314	46.000000	55.000000
382.263595	382.530314	51.000000	55.000000
382.396552	382.530314	79.000000	86.000000
382.530314	382.669883	82.000000	98.000000
382.530314	382.809452	55.000000	66.000000
382.530314	382.809452	43.000000	55.000000
382.530314	382.809452	46.000000	55.000000
382.530314	382.809452	51.000000	55.000000
382.669883	382.809452	87.000000	84.000000
382.809452	383.078585	91.000000	107.000000
382.809452	383.078585	46.000000	74.000000
382.809452	383.078585	39.000000	74.000000
382.809452	383.078585	51.000000	88.000000
383.078585	383.347718	51.000000	68.000000
383.078585	383.347718	46.000000	57.000000
383.078585	383.347718	39.000000	57.000000
383.347718	383.616851	39.000000	58.000000
383.347718	383.616851	51.000000	69.000000
383.347718	383.616851	46.000000	58.000000
383.616851	383.749271	79.000000	90.000000
383.616851	383.881142	46.000000	60.000000
383.616851	383.881142	39.000000	60.000000
383.616851	383.881142	51.000000	71.000000
383.616851	383.881142	43.000000	60.000000
383.749271	383.881142	82.000000	87.000000
383.881142	384.012463	87.000000	97.000000
383.881142	384.143248	43.000000	53.000000
383.881142	384.143248	39.000000	53.000000
383.881142	384.143248	51.000000	63.000000
383.881142	384.143248	46.000000	53.000000
384.012463	384.143248	91.000000	91.000000
384.143248	384.273496	94.000000	104.000000
384.143248	384.403087	46.000000	53.000000
384.143248	384.403087	39.000000	53.000000
384.143248	384.403087	51.000000	63.000000
384.143248	384.403087	43.000000	53.000000
384.273496	384.403087	99.000000	100.000000
384.403087	384.532598	103.000000	111.000000
384.403087	384.662645	34.000000	59.000000
384.403087	384.662645	39.000000	59.000000
384.403087	384.662645	46.000000	71.000000
384.403087	384.662645	43.000000	59.000000
384.532598	384.662645	99.000000	97.000000
384.662645	384.793215	94.000000	104.000000
384.662645	384.923811	46.000000	64.000000
384.662645	384.923811	34.000000	54.000000
384.662645	384.923811	39.000000	54.000000
384.662645	384.923811	43.000000	54.000000
384.793215	384.923811	91.000000	99.000000
384.923811	385.054274	94.000000	104.000000
384.923811	385.184254	43.000000	54.000000
384.923811	385.184254	34.000000	54.000000
384.923811	385.184254	39.000000	54.000000
384.923811	385.184254	46.000000	64.000000
385.054274	385.184254	99.000000	95.000000
385.184254	385.314154	103.000000	111.000000
385.184254	385.443584	43.000000	71.000000
385.184254	385.443584	31.000000	60.000000
385.184254	385.443584	34.000000	60.000000
385.184254	385.443584	39.000000	60.000000
385.314154	385.443584	99.000000	96.000000
385.443584	385.573765	94.000000	101.000000
385.443584	385.704871	43.000000	68.000000
385.443584	385.704871	31.000000	57.000000
385.443584	385.704871	34.000000	57.000000
385.443584	385.704871	39.000000	57.000000
385.573765	385.704871	91.000000	97.000000
385.704871	385.847766	94.000000	102.000000
385.704871	385.990661	39.000000	57.000000
385.704871	385.990661	31.000000	57.000000
385.704871	385.990661	34.000000	57.000000
385.704871	385.990661	43.000000	68.000000
385.847766	385.990661	99.000000	95.000000
385.990661	387.308096	103.000000	116.000000
385.990661	387.308096	94.000000	98.000000
385.990661	387.308096	91.000000	98.000000
385.990661	387.308096	99.000000	98.000000
385.990661	387.308096	27.000000	74.000000
385.990661	387.308096	39.000000	90.000000
385.990661	387.308096	34.000000	74.000000
387.504648	387.570161	79.000000	80.000000
387.504648	387.570161	70.000000	67.000000
387.504648	387.570161	67.000000	67.000000
387.504648	387.570161	75.000000	67.000000
387.570161	388.880555	70.000000	99.000000
387.570161	388.880555	67.000000	99.000000
387.570161	388.880555	79.000000	99.000000
387.570161	388.880555	75.000000	99.000000
387.570161	388.880555	51.000000	68.000000
387.570161	388.880555	55.000000	68.000000
387.570161	388.880555	58.000000	68.000000
387.570161	388.880555	63.000000	81.000000
389.123872	389.204982	55.000000	67.000000
389.123872	389.204982	63.000000	80.000000
389.123872	389.204982	58.000000	67.000000
389.204982	391.800423	58.000000	99.000000
389.204982	391.800423	55.000000	99.000000
389.204982	391.800423	63.000000	99.000000
389.204982	391.800423	39.000000	68.000000
389.204982	391.800423	46.000000	68.000000
389.204982	391.800423	51.000000	81.000000
