OnsetTime	OffsetTime	MidiPitch	Velocity
0.500004	0.659194	31	33
0.579599	0.738788	43	24
0.659194	0.818383	31	33
0.738788	0.897977	43	24
0.818383	0.977572	31	33
0.897977	1.05717	43	24
0.977572	1.13676	31	33
1.05717	1.21636	43	24
1.13676	1.29595	31	33
1.21636	1.37554	43	24
1.29595	1.45514	31	33
1.37554	1.53473	43	24
1.45514	1.61433	31	33
1.53473	1.69392	43	24
1.61433	1.77352	31	33
1.69392	1.85311	43	24
1.77352	1.93271	31	33
1.77352	2.41027	59	41
1.77352	2.41027	65	41
1.77352	2.41027	67	49
1.85311	2.0123	43	24
1.93271	2.0919	31	33
2.0123	2.17149	43	24
2.0919	2.25109	31	33
2.17149	2.33068	43	24
2.25109	2.41027	31	33
2.33068	2.48987	43	24
2.41027	2.56946	31	33
2.41027	2.88784	59	43
2.41027	2.88784	65	43
2.41027	2.88784	67	51
2.48987	2.64906	43	24
2.56946	2.72865	31	33
2.64906	2.80825	43	24
2.72865	2.88784	31	33
2.80825	2.97457	43	24
2.88784	3.06131	31	33
2.88784	3.06131	59	39
2.88784	3.06131	65	39
2.88784	3.06131	67	46
2.97457	3.06131	43	24
3.06131	3.21594	31	33
3.06131	4.29835	60	46
3.06131	4.29835	65	46
3.06131	4.29835	69	55
3.13863	3.29326	43	24
3.21594	3.37057	31	33
3.29326	3.44789	43	24
3.37057	3.5252	31	33
3.44789	3.60252	43	24
3.5252	3.67983	31	33
3.60252	3.75715	43	24
3.67983	3.83446	31	33
3.75715	3.91178	43	24
3.83446	3.98909	31	33
3.91178	4.06641	43	24
3.98909	4.14372	31	33
4.06641	4.22104	43	24
4.14372	4.29835	31	33
4.22104	4.29835	43	24
4.29835	4.45298	31	33
4.29835	4.91687	62	49
4.29835	4.91687	65	49
4.29835	4.91687	71	58
4.37566	4.53029	43	24
4.45298	4.60761	31	33
4.53029	4.68492	43	24
4.60761	4.76224	31	33
4.68492	4.83955	43	24
4.76224	4.91687	31	34
4.83955	4.99418	43	25
4.91687	5.0715	31	34
4.91687	5.38076	62	48
4.91687	5.38076	65	48
4.91687	5.38076	71	57
4.99418	5.14881	43	25
5.0715	5.22613	31	34
5.14881	5.30344	43	25
5.22613	5.38076	31	35
5.30344	5.46276	43	26
5.38076	5.54476	31	35
5.38076	5.54476	62	52
5.38076	5.54476	65	52
5.38076	5.54476	71	62
5.46276	5.54476	43	27
5.54476	5.69852	31	37
5.54476	6.78359	64	57
5.54476	6.78359	67	57
5.54476	6.78359	72	68
5.62165	5.7754	43	27
5.69852	5.85228	31	37
5.7754	5.92916	43	27
5.85228	6.00603	31	37
5.92916	6.08292	43	27
6.00603	6.15979	31	38
6.08292	6.23668	43	27
6.15979	6.31355	31	38
6.23668	6.39043	43	27
6.31355	6.46731	31	38
6.39043	6.54419	43	27
6.46731	6.62106	31	38
6.54419	6.69795	43	28
6.62106	6.77482	31	38
6.69795	6.78359	43	28
6.77482	6.92517	31	46
6.77482	7.38496	65	65
6.77482	7.38496	71	65
6.77482	7.38496	74	77
6.85	7.00034	43	34
6.92517	7.07551	31	46
7.00034	7.15068	43	35
7.07551	7.22585	31	49
7.15068	7.30102	43	37
7.22585	7.37619	31	49
7.30102	7.38496	43	37
7.37619	7.52652	31	49
7.37619	7.97754	64	68
7.37619	7.97754	70	68
7.37619	7.97754	73	81
7.45136	7.60169	43	37
7.52652	7.67686	31	50
7.60169	7.75203	43	38
7.67686	7.8272	31	50
7.75203	7.90237	43	39
7.8272	7.97754	31	51
7.90237	7.97754	43	39
7.97754	8.12789	31	51
7.97754	8.58802	65	68
7.97754	8.58802	71	68
7.97754	8.58802	74	81
8.05272	8.20306	43	39
8.12789	8.27823	31	53
8.20306	8.3534	43	39
8.27823	8.42857	31	53
8.3534	8.50373	43	41
8.42857	8.5789	31	53
8.50373	8.58802	43	41
8.5789	8.73533	31	58
8.5789	9.20461	67	68
8.5789	9.20461	70	68
8.5789	9.20461	73	68
8.5789	9.20461	76	81
8.65712	8.81354	43	41
8.73533	8.89176	31	59
8.81354	8.96997	43	41
8.89176	9.04818	31	59
8.96997	9.1264	43	44
9.04818	9.18114	31	59
9.1264	10.9411	43	45
9.20461	10.9411	31	44
9.20461	10.9411	67	73
9.20461	10.9411	71	73
9.20461	10.9411	74	73
9.20461	10.9411	77	86
9.84893	10.1279	91	82
9.98843	10.2674	79	72
10.1279	10.4266	91	74
10.2674	10.9411	79	62
10.4266	11.7614	91	77
11.0748	11.5822	74	68
11.0748	11.5822	77	80
11.5822	11.7614	72	60
11.5822	11.7614	76	71
11.7614	13.6003	67	56
11.7614	13.5911	74	67
12.3835	12.661	91	64
12.5222	12.7998	79	52
12.661	12.9581	91	58
12.7998	13.6003	79	47
12.9581	14.2212	91	64
13.5911	14.0659	74	51
13.5911	14.0659	77	61
14.0659	14.2212	72	48
14.0659	14.2212	76	57
14.2212	14.765	67	45
14.2212	14.765	74	53
14.2212	14.4932	91	52
14.3572	14.6292	79	41
14.4932	14.7492	91	53
14.6292	14.765	79	41
14.765	15.2854	72	52
14.765	15.2854	76	62
14.765	15.0252	91	47
14.8951	15.1553	79	41
15.0252	15.2854	91	47
15.1553	15.2854	79	41
15.2854	15.8014	67	56
15.2854	15.8014	74	67
15.2854	15.5431	91	52
15.4142	15.672	79	47
15.5431	15.7557	91	58
15.672	15.8014	79	51
15.8014	16.3073	72	56
15.8014	16.3073	76	66
15.8014	16.0543	91	62
15.9279	16.1808	79	56
16.0543	16.2925	91	64
16.1808	16.3073	79	58
16.3073	16.8155	67	62
16.3073	16.8155	74	74
16.3073	19.241	79	64
16.3073	19.241	91	64
16.8155	17.2936	45	70
16.8155	17.2936	57	83
17.2936	17.7794	43	62
17.2936	17.7794	55	93
17.7794	18.2594	42	56
17.7794	18.2594	54	82
18.2594	19.241	43	56
18.2594	19.241	55	83
18.7532	19.241	41	57
18.7532	19.241	53	84
19.241	20.2963	40	59
19.241	20.2963	52	89
19.7887	20.3608	38	62
19.7887	20.3608	50	92
20.3608	21.3686	36	49
20.3608	21.3686	48	73
20.3608	21.3686	60	68
20.3608	21.3686	64	68
20.3608	21.3484	67	76
20.3608	21.3686	72	90
21.3484	22.3377	43	49
21.3484	22.3377	55	73
21.3484	22.3176	62	68
21.3484	22.3377	67	76
21.3484	22.3377	71	90
22.3176	23.3029	38	46
22.3176	23.3029	50	69
22.3176	23.2824	62	65
22.3176	23.3029	66	72
22.3176	23.3029	69	85
23.2824	24.2919	43	49
23.2824	24.2919	55	73
23.2824	24.2919	62	68
23.2824	24.265	67	76
23.2824	24.2919	71	90
24.265	25.2407	40	49
24.265	25.2407	52	73
24.265	25.2211	60	68
24.265	25.2407	67	90
25.2211	26.409	41	49
25.2211	26.409	53	73
25.2211	26.409	60	68
25.2211	26.1844	65	76
25.2211	26.409	69	90
25.6907	26.409	40	46
25.6907	26.409	52	69
26.1844	27.2384	38	46
26.1844	27.2384	50	69
26.1844	27.2384	62	66
26.1844	27.2384	65	73
26.1844	27.2384	71	86
27.197	28.6849	36	49
27.197	28.6849	48	73
27.197	28.6849	60	68
27.197	28.6849	64	68
27.197	28.6849	67	76
27.197	28.6849	72	90
29.1808	30.151	60	34
29.1808	30.151	67	40
29.1808	30.151	76	38
29.1808	30.151	79	38
29.1808	30.151	84	45
30.151	31.1072	57	28
30.151	31.1072	69	33
30.151	31.1072	76	31
30.151	31.1072	81	31
30.151	31.1072	84	37
31.1072	32.0749	59	34
31.1072	32.0749	67	41
31.1072	32.0749	74	40
31.1072	32.0749	79	48
32.0749	33.0388	60	41
32.0749	33.0388	67	49
32.0749	33.0388	76	47
32.0749	33.9906	79	56
33.0388	33.9906	60	50
33.0388	33.9906	67	50
33.0388	33.9906	72	46
33.0388	33.9906	76	46
33.5168	33.9906	62	53
33.5168	33.9906	77	41
33.9906	35.0677	64	39
33.9906	35.0677	67	46
33.9906	34.9545	72	42
33.9906	35.0677	79	50
34.9545	35.9701	62	37
34.9545	35.9701	69	44
34.9545	35.9701	72	40
34.9545	35.9701	77	48
35.9701	37.0756	64	32
35.9701	37.0756	68	38
35.9701	37.0756	71	42
35.9701	37.0756	76	50
37.4441	38.3791	57	47
37.4441	38.3791	69	56
37.4441	38.3791	72	51
37.4441	38.3791	76	61
37.9116	38.3791	55	45
37.9116	38.3791	67	53
38.3791	39.3141	53	52
38.3791	39.3141	65	62
38.3791	39.3141	72	49
38.3791	39.3141	77	49
38.3791	39.3141	81	58
39.3141	40.248	54	56
39.3141	40.248	66	66
39.3141	40.248	72	57
39.3141	40.248	74	57
39.3141	40.248	81	68
40.248	41.2175	55	56
40.248	41.2175	67	66
40.248	41.2175	71	61
40.248	41.1913	74	61
40.248	41.2175	79	72
41.1913	42.1222	56	61
41.1913	42.1222	68	72
41.1913	42.1222	74	62
41.1913	42.1222	76	62
41.1913	42.1222	83	73
42.1222	43.0614	57	56
42.1222	43.0614	69	67
42.1222	43.0614	72	62
42.1222	43.0614	76	62
42.1222	43.0614	81	73
42.1222	43.0614	84	73
43.0614	44.0315	62	51
43.0614	44.0315	74	61
43.0614	44.0315	78	61
43.0614	44.0315	81	72
43.5188	44.0315	72	58
44.0315	45.2195	67	49
44.0315	45.2195	71	58
44.0315	45.2195	74	65
44.0315	45.2195	79	77
45.6123	46.7236	45	73
45.6527	46.7236	52	57
45.6942	46.7236	57	68
45.7364	46.7236	60	65
45.7797	46.7236	64	65
45.8239	46.7236	69	69
45.8694	46.7236	72	70
46.7236	47.6192	40	56
46.7236	47.6192	52	75
46.7236	47.6192	59	62
46.7236	47.6192	64	62
46.7236	47.6192	67	71
46.7236	47.6192	71	84
47.6192	48.751	41	69
47.6692	48.751	48	54
47.7179	48.751	53	74
47.7651	48.751	57	71
47.8109	48.751	60	62
47.8553	48.751	65	81
47.8986	48.751	69	70
48.751	49.8831	36	53
48.751	49.8831	48	70
48.751	49.8831	55	66
48.751	49.8831	60	74
48.751	49.6986	64	74
48.751	49.8831	67	88
49.6986	50.6461	37	51
49.6986	50.6461	49	69
49.6986	50.6461	57	66
49.6986	50.6461	64	74
49.6986	50.6461	69	88
50.6461	51.6153	38	56
50.6461	51.6153	50	74
50.6461	51.6153	57	68
50.6461	51.6153	62	77
50.6461	51.481	65	91
51.1307	51.6153	64	78
51.6153	52.667	31	56
51.6153	52.667	43	62
51.6153	52.667	55	74
51.6153	52.667	59	77
51.6153	52.667	62	91
52.1255	52.667	53	74
52.667	60.6236	36	85
52.667	53.0089	52	72
52.667	53.1196	55	85
52.667	53.2272	60	93
52.7797	60.6236	43	57
52.896	53.9609	48	57
53.0089	60.6236	52	64
53.1196	54.0619	55	57
53.2272	54.1617	60	57
53.3315	54.2603	64	64
53.4353	53.8549	67	58
53.5394	53.7492	72	58
53.6441	54.5498	76	64
53.7492	54.4545	72	58
53.8549	54.3581	67	58
53.9609	60.6236	48	64
54.0619	60.6236	55	57
54.1617	55.1432	60	60
54.2603	60.6236	64	68
54.3581	55.2399	67	63
54.4545	55.3355	72	64
54.5498	55.4301	76	72
54.6455	55.041	79	68
54.7425	54.9402	84	69
54.8407	55.7071	88	78
54.9402	55.6153	84	74
55.041	55.5233	79	74
55.1432	56.283	60	78
55.2399	56.3789	67	70
55.3355	56.4737	72	70
55.4301	56.5677	76	78
55.5233	56.6608	79	70
55.6153	56.752	84	70
55.7071	56.8457	88	78
55.8002	56.1841	91	72
55.8943	56.0862	96	72
55.9897	57.1643	100	78
56.0862	57.051	96	72
56.1841	56.9451	91	72
56.283	60.6236	60	78
56.3789	60.6236	67	69
56.4737	57.5943	72	68
56.5677	57.5943	76	74
56.6608	57.5943	79	67
56.752	60.6236	84	66
56.8457	57.5943	88	72
56.9451	57.4313	91	66
57.051	57.2856	96	66
57.1643	60.6236	100	58
57.2856	57.5943	96	53
57.4313	60.6236	91	48
57.5943	60.6661	72	52
57.5943	60.6661	76	52
57.5943	60.6661	79	62
57.5943	60.6661	88	52
57.5943	60.6661	96	62
61.4208	61.6538	60	61
61.8849	62.0581	60	58
62.2314	62.2892	60	52
62.347	62.578	60	60
62.8091	63.0469	60	58
63.2847	63.5158	60	58
63.2847	63.5158	64	69
63.7468	63.9201	60	53
63.7468	63.9201	64	63
64.0934	64.1512	60	49
64.0934	64.1512	64	58
64.2089	64.44	60	58
64.2089	64.44	64	69
64.671	64.9069	60	53
64.671	64.9069	64	63
65.1427	65.3728	60	61
65.1427	65.3728	64	61
65.1427	65.3728	67	72
65.603	65.8331	60	58
65.603	65.8331	64	58
65.603	65.8331	67	69
66.0632	66.2981	60	61
66.0632	66.2981	63	61
66.0632	66.2981	66	72
66.0632	66.2981	69	72
66.533	66.7738	60	58
66.533	66.7738	63	58
66.533	66.7738	66	69
66.533	66.7738	69	69
67.0146	68.446	60	61
67.0146	68.446	64	61
67.0146	68.446	67	61
67.0146	68.446	70	72
67.4815	67.601	48	57
67.601	67.7206	50	59
67.7206	67.8401	52	62
67.8401	67.9596	53	63
67.9596	68.0798	55	66
68.0798	68.2009	53	64
68.2009	68.323	52	63
68.323	68.446	50	62
68.446	68.5699	48	61
68.5699	68.6949	46	60
68.6949	68.8189	45	59
68.8189	68.9452	43	58
68.9452	69.4383	41	56
68.9452	69.1894	57	59
68.9452	69.1894	60	59
68.9452	69.1894	65	70
69.1894	69.6832	53	41
69.1894	69.4383	57	46
69.1894	69.4383	60	46
69.1894	69.4383	65	55
69.4383	69.9331	41	46
69.4383	69.6832	57	51
69.4383	69.6832	60	51
69.4383	69.9331	65	61
69.6832	69.9331	53	40
69.6832	69.9331	57	48
69.6832	69.9331	60	57
69.9331	70.4289	41	57
69.9331	70.179	60	59
69.9331	70.179	65	59
69.9331	70.179	69	70
70.179	70.6748	53	50
70.179	70.4289	60	47
70.179	70.4289	65	47
70.179	70.4289	69	56
70.4289	70.93	41	55
70.4289	70.6748	60	52
70.4289	70.6748	65	52
70.4289	70.93	69	62
70.6748	70.93	53	49
70.6748	70.93	60	48
70.6748	70.93	65	57
70.93	71.528	41	58
70.93	71.1762	69	58
70.93	71.1762	72	69
71.1762	71.528	53	50
71.1762	71.528	69	50
71.1762	71.528	72	59
71.4231	71.919	52	56
71.4231	71.67	67	56
71.4231	71.67	70	66
71.67	71.919	60	49
71.67	71.919	67	48
71.67	71.919	70	57
71.919	72.4085	53	56
71.919	72.1649	65	53
71.919	72.1649	69	63
72.1649	72.4085	60	41
72.1649	72.4085	65	45
72.1649	72.4085	69	53
72.4158	72.8198	48	48
72.4158	72.887	64	52
72.4158	72.887	67	62
72.6597	72.887	60	38
72.9076	73.4045	41	56
72.9076	73.1535	57	59
72.9076	73.1535	60	59
72.9076	73.1535	65	70
73.1535	73.6504	53	41
73.1535	73.4045	57	46
73.1535	73.4045	60	46
73.1535	73.4045	65	55
73.4045	73.9013	41	46
73.4045	73.6504	57	51
73.4045	73.6504	60	51
73.4045	73.9013	65	61
73.6504	73.9013	53	40
73.6504	73.9013	57	48
73.6504	73.9013	60	57
73.9013	74.3971	41	57
73.9013	74.1472	60	58
73.9013	74.1472	65	58
73.9013	74.1472	69	69
74.1472	74.6442	53	50
74.1472	74.3971	60	47
74.1472	74.3971	65	47
74.1472	74.3971	69	56
74.3971	74.9021	41	55
74.3971	74.6442	60	52
74.3971	74.6442	65	52
74.3971	74.9021	69	62
74.6442	74.9021	53	49
74.6442	74.9021	60	48
74.6442	74.9021	65	57
74.9021	75.4331	41	58
74.9021	75.15	69	58
74.9021	75.15	72	69
75.15	75.4331	53	50
75.15	75.4331	69	50
75.15	75.4331	72	59
75.4	75.898	52	56
75.4	75.648	67	56
75.4	75.648	70	66
75.648	75.898	60	49
75.648	75.898	67	48
75.648	75.898	70	57
75.898	76.4303	53	56
75.898	76.1469	65	53
75.898	76.1469	69	63
76.1469	76.4303	60	41
76.1469	76.4303	65	45
76.1469	76.4303	69	53
76.3968	76.7845	48	48
76.3968	76.8845	64	52
76.3968	76.8845	67	62
76.6474	76.8845	60	38
76.9058	77.4165	41	48
76.9058	77.4165	53	57
76.9058	77.0334	69	61
76.9058	77.0334	72	72
77.1611	77.2888	69	54
77.1611	77.2888	72	64
77.4165	77.6718	65	61
77.4165	77.6718	69	72
77.6718	77.936	65	66
77.936	78.068	34	52
77.936	78.068	46	62
77.936	78.068	65	66
77.936	78.068	70	66
77.936	78.068	74	78
78.2001	78.3321	38	48
78.2001	78.3321	50	57
78.2001	78.3321	65	60
78.2001	78.3321	70	60
78.2001	78.3321	74	71
78.4642	78.9704	41	58
78.4642	78.9704	53	69
78.4642	78.9704	65	65
78.4642	78.9704	69	65
78.4642	78.9704	72	70
78.9924	80.0351	36	58
78.9924	80.0351	48	69
78.9924	79.7754	65	68
78.9924	79.5157	69	68
78.9924	79.3886	72	68
78.9924	80.0351	77	81
79.3886	80.0351	72	77
79.5157	80.0351	69	83
79.7754	80.0351	65	71
80.0351	80.1683	48	50
80.0351	80.1683	58	59
80.0351	80.1683	64	62
80.0351	80.1683	67	62
80.0351	80.1683	72	74
80.3014	80.4388	48	48
80.3014	80.4388	58	57
80.3014	80.4388	64	54
80.3014	80.4388	67	54
80.3014	80.4388	72	64
80.5761	80.9994	53	51
80.5761	80.9994	57	60
80.5761	80.9994	65	72
81.1411	82.1404	52	49
81.1411	82.1404	58	58
81.1411	82.1404	72	58
81.2673	82.0144	74	60
81.3923	81.8892	60	51
81.3923	81.8892	76	62
81.5168	81.7649	77	64
81.6413	82.1404	48	58
81.6413	82.1404	79	66
81.7649	82.1404	77	64
81.8892	82.1404	60	52
81.8892	82.1404	76	62
82.0144	82.1404	74	61
82.1404	83.0923	53	49
82.1404	83.0923	57	58
82.1404	83.0923	72	66
82.2675	82.5194	77	59
82.3945	82.8941	60	52
82.3945	83.0923	81	66
82.5194	83.0923	77	61
82.6443	83.0923	48	58
82.6443	83.0923	84	66
82.8941	83.3983	60	52
83.1526	84.0753	52	49
83.1526	84.0753	58	58
83.1526	84.0753	84	61
83.2756	84.0753	86	62
83.3983	83.8856	60	52
83.3983	84.0753	88	63
83.5208	84.0753	89	66
83.6427	84.0753	48	58
83.6427	84.0753	91	68
83.8856	84.3871	60	52
84.1442	85.0744	53	49
84.1442	85.0744	57	58
84.1442	85.0744	89	59
84.2657	85.0744	91	62
84.3871	84.8695	60	53
84.3871	85.0744	93	63
84.5081	85.0744	94	67
84.6289	85.0744	48	58
84.6289	85.0744	96	70
84.8695	85.3722	60	53
85.127	86.1021	52	49
85.127	86.1021	58	58
85.127	86.1021	72	58
85.2499	85.9792	74	60
85.3722	85.8571	60	51
85.3722	85.8571	76	62
85.494	85.7358	77	64
85.6151	86.1021	48	58
85.6151	86.1021	79	66
85.7358	86.1021	77	64
85.8571	86.1021	60	52
85.8571	86.1021	76	62
85.9792	86.1021	74	61
86.1021	86.9271	53	49
86.1021	86.9271	57	58
86.1021	86.9271	72	66
86.2241	86.4665	77	59
86.346	86.828	60	52
86.346	86.9271	81	66
86.4665	86.9271	77	61
86.587	86.9271	48	58
86.587	86.9271	84	66
86.828	87.3321	60	52
87.0865	87.9499	52	49
87.0865	87.9499	58	58
87.0865	87.9427	84	58
87.2095	87.8199	86	60
87.3321	87.8199	60	51
87.3321	87.6978	88	62
87.4544	87.9499	89	64
87.5763	87.9499	48	58
87.5763	87.9499	91	66
87.6978	87.9499	88	64
87.8199	88.0663	60	52
87.8199	87.9499	86	62
87.9427	88.0663	84	61
88.0663	88.1929	53	47
88.0663	88.1929	57	56
88.0663	88.1929	89	68
88.3195	88.445	87	67
88.445	88.5705	89	63
88.5705	88.6961	91	67
88.6961	88.8216	89	63
88.8216	88.9471	87	67
88.9471	89.0727	86	63
89.0727	89.1982	53	45
89.0727	89.1982	57	45
89.0727	89.1982	60	45
89.0727	89.1982	63	53
89.0727	89.1982	84	69
89.3237	89.4492	84	67
89.4492	89.5748	86	63
89.5748	89.7003	87	67
89.7003	89.8258	86	63
89.8258	89.9513	84	67
89.9513	90.0769	82	63
90.0769	90.2024	65	45
90.0769	90.2024	69	45
90.0769	90.2024	72	45
90.0769	90.2024	75	53
90.0769	90.2024	81	69
90.3279	90.4535	81	67
90.4535	90.579	82	63
90.579	90.7056	84	67
90.7056	90.8322	82	63
90.8322	90.9587	81	67
90.9587	91.087	79	63
91.087	91.2239	53	45
91.087	91.2239	57	45
91.087	91.2239	60	45
91.087	91.2239	63	53
91.087	91.2239	77	69
91.6349	92.0782	41	58
91.6349	92.0782	53	69
91.6349	92.0782	65	70
92.0782	92.226	40	51
92.0782	92.226	52	60
92.0782	92.226	64	61
92.226	92.5464	41	56
92.226	92.5464	53	66
92.226	92.5464	65	64
92.5464	92.8756	39	60
92.5464	92.8756	51	71
92.5464	92.8756	63	71
92.8756	93.2303	38	63
92.8756	93.2303	50	75
92.8756	93.2303	62	77
93.281	93.6976	36	60
93.281	93.6976	48	71
93.281	93.6976	57	68
93.281	93.6976	63	68
93.281	93.6976	65	80
93.6976	95.7057	34	60
93.6976	94.2662	46	69
93.6976	94.2662	58	73
93.6976	94.2662	62	73
93.6976	94.2662	65	82
93.6976	94.2662	70	82
94.2662	94.4557	46	57
94.2662	94.4557	58	63
94.2662	94.4557	62	66
94.2662	94.4557	65	74
94.2662	94.4557	70	74
94.4557	95.7057	46	71
94.4557	95.7057	58	71
94.4557	95.7057	62	72
94.4557	95.7057	65	81
94.4557	95.7057	70	81
95.7057	96.44	41	63
95.7057	96.44	53	71
95.7057	96.44	65	73
95.7057	96.44	69	82
95.7057	96.44	72	82
96.44	97.9484	34	67
96.44	97.0085	46	74
96.44	97.0085	65	75
96.44	97.0085	70	84
96.44	97.0085	74	84
97.0085	97.1981	46	59
97.0085	97.1981	58	68
97.0085	97.1981	65	72
97.0085	97.1981	70	81
97.0085	97.1981	74	81
97.1981	97.9484	46	66
97.1981	97.9484	58	73
97.1981	97.9484	65	77
97.1981	97.9484	70	85
97.1981	97.9484	74	85
97.966	98.7192	43	58
97.966	98.7192	55	64
97.966	98.7192	67	62
97.966	98.7192	70	69
97.966	98.7192	74	69
98.7192	99.6485	39	59
98.7192	99.6485	51	67
98.7192	99.1243	67	62
98.7192	99.5351	72	74
99.1243	99.6485	38	55
99.1243	99.6485	50	60
99.1243	99.5351	67	56
99.1243	99.6485	71	56
99.1243	99.6485	74	66
99.5351	100.291	36	58
99.5351	100.291	48	64
99.5351	100.291	67	58
99.5351	100.291	72	58
99.5351	100.291	75	69
100.324	101.105	41	49
100.324	101.087	53	56
100.324	101.087	63	51
100.324	101.087	69	61
101.087	101.93	46	53
101.087	101.93	53	59
101.087	101.93	63	54
101.087	101.93	69	54
101.087	101.93	72	64
101.886	102.62	58	59
101.886	102.62	62	51
101.886	102.62	70	61
102.725	103.524	53	38
102.725	103.524	65	38
102.725	103.524	69	39
102.725	103.524	75	39
102.725	103.524	77	47
103.524	105.413	46	34
103.524	105.413	58	40
103.524	104.093	70	41
103.524	104.093	74	41
103.524	104.093	77	41
103.524	104.093	82	49
104.093	104.282	70	38
104.093	104.282	74	38
104.093	104.282	77	38
104.093	104.282	82	45
104.282	105.413	70	41
104.282	105.413	74	40
104.282	105.413	77	40
104.282	105.413	82	48
105.532	107.522	53	34
105.532	107.522	65	41
105.532	106.267	77	41
105.532	107.522	81	41
105.532	107.522	84	49
106.267	107.522	46	38
106.267	107.522	58	45
106.267	106.835	77	43
106.267	106.835	82	43
106.267	106.835	86	51
106.835	107.025	70	39
106.835	107.025	77	40
106.835	107.025	82	40
106.835	107.025	86	48
107.025	107.761	70	44
107.025	107.761	77	44
107.025	107.761	82	44
107.025	107.761	86	52
107.793	108.546	67	38
107.793	108.546	79	34
107.793	108.546	82	34
107.793	108.546	86	41
108.546	108.951	63	39
108.546	108.951	79	45
108.546	108.951	84	45
108.951	109.362	62	37
108.951	109.362	79	39
108.951	109.362	83	39
108.951	109.362	86	39
109.362	110.117	60	38
109.362	110.117	79	41
109.362	110.117	84	41
109.362	110.117	87	41
110.15	110.913	53	34
110.15	110.913	65	34
110.15	110.913	75	37
110.15	110.913	81	37
110.913	111.713	58	36
110.913	111.713	65	36
110.913	111.713	75	39
110.913	111.713	81	39
110.913	111.713	84	39
111.713	112.462	70	35
111.713	112.462	74	37
111.713	112.462	82	37
112.878	113.245	74	62
112.878	113.245	77	73
113.245	115.433	34	48
113.245	115.433	46	57
113.245	113.612	74	63
113.245	115.088	77	75
113.612	115.433	70	62
113.612	115.088	74	73
113.994	114.728	58	41
113.994	114.728	62	41
113.994	114.728	65	49
113.994	115.433	75	82
113.994	115.433	79	69
114.728	115.433	58	41
114.728	115.433	62	41
114.728	115.433	65	49
115.088	115.433	74	66
115.088	115.433	77	78
115.433	117.59	41	53
115.433	117.59	53	63
115.433	117.59	74	68
115.433	117.59	77	80
115.791	116.149	72	62
115.791	116.149	75	73
116.149	116.865	57	41
116.149	116.865	63	41
116.149	116.865	65	49
116.149	117.232	72	62
116.149	117.232	75	73
116.865	117.59	57	41
116.865	117.59	63	41
116.865	117.59	65	49
117.232	117.59	72	62
117.232	117.59	75	73
117.59	119.708	29	51
117.59	119.708	41	61
117.59	117.936	72	63
117.59	119.353	75	75
117.936	119.708	69	62
117.936	119.353	72	73
118.299	119.006	57	41
118.299	119.006	63	41
118.299	119.006	65	49
118.299	119.708	74	68
118.299	119.708	77	81
119.006	119.708	57	41
119.006	119.708	63	41
119.006	119.708	65	49
119.353	119.708	72	63
119.353	119.708	75	75
119.708	121.059	34	48
119.708	121.059	46	57
119.708	121.059	72	68
119.708	121.059	75	80
120.064	120.42	70	62
120.064	120.42	74	73
120.42	121.559	58	41
120.42	121.559	62	41
120.42	121.559	65	49
120.42	121.559	70	62
120.42	121.559	74	73
121.635	122.37	41	50
121.635	122.37	53	63
121.635	122.37	57	63
121.635	122.37	63	80
121.635	122.37	65	80
122.37	124.294	34	55
122.37	122.938	46	69
122.37	122.938	58	64
122.37	122.938	62	64
122.37	122.938	65	82
122.37	122.938	70	82
122.938	123.128	46	50
122.938	123.128	58	63
122.938	123.128	62	59
122.938	123.128	65	74
122.938	123.128	70	74
123.128	124.294	46	57
123.128	124.294	58	71
123.128	124.294	62	64
123.128	124.294	65	81
123.128	124.294	70	81
124.378	126.593	41	57
124.378	126.593	53	71
124.378	125.112	65	64
124.378	126.593	69	82
124.378	126.593	72	82
125.112	126.593	34	59
125.112	125.681	46	74
125.112	125.681	65	67
125.112	125.681	70	84
125.112	125.681	74	84
125.681	125.87	46	53
125.681	125.87	58	68
125.681	125.87	65	64
125.681	125.87	70	81
125.681	125.87	74	81
125.87	126.606	46	58
125.87	126.606	58	73
125.87	126.606	65	68
125.87	126.606	70	85
125.87	126.606	74	85
126.638	127.391	43	47
126.638	127.391	55	59
126.638	127.391	67	50
126.638	127.391	70	63
126.638	127.391	74	63
127.391	127.783	39	41
127.391	127.783	51	60
127.391	127.783	67	46
127.391	127.783	72	68
127.783	128.183	38	37
127.783	128.183	50	56
127.783	128.183	67	39
127.783	128.183	71	60
127.783	128.183	74	60
128.183	128.928	36	39
128.183	128.928	48	59
128.183	128.928	67	42
128.183	128.928	72	53
128.183	128.928	75	63
128.961	129.724	41	34
128.961	129.724	53	51
128.961	129.724	63	38
128.961	129.724	69	57
129.724	130.502	46	35
129.724	130.502	53	55
129.724	130.502	63	39
129.724	130.502	69	59
129.724	130.502	72	59
130.502	131.247	58	53
130.502	131.247	62	38
130.502	131.247	70	57
131.296	132.05	67	36
131.296	132.05	79	38
131.296	132.05	82	38
131.296	132.05	86	38
132.05	132.455	63	37
132.05	132.455	79	41
132.05	132.455	84	41
132.455	132.866	62	34
132.455	132.866	79	36
132.455	132.866	83	36
132.455	132.866	86	36
132.866	133.621	60	36
132.866	133.621	79	38
132.866	133.621	84	38
132.866	133.621	87	38
133.655	134.512	65	30
133.655	134.512	75	34
133.655	134.512	81	34
134.512	135.388	58	33
134.512	135.388	65	33
134.512	135.388	75	36
134.512	135.388	81	36
134.512	135.388	84	36
135.388	136.56	70	31
135.388	136.56	74	34
135.388	136.56	82	34
136.638	136.827	77	64
136.827	137.009	82	67
137.009	137.186	86	69
137.186	137.367	89	74
137.367	138.7	41	41
137.367	138.7	53	49
137.367	138.033	89	88
137.538	138.204	87	70
137.703	138.369	84	68
137.868	138.535	77	68
138.033	138.7	57	35
138.033	138.7	63	35
138.033	138.7	65	42
138.033	138.7	89	88
138.204	138.7	87	69
138.369	138.7	84	68
138.535	138.7	77	68
138.7	140.701	57	35
138.7	140.701	63	35
138.7	140.701	65	42
138.7	138.868	76	68
138.868	139.037	77	64
139.037	139.201	81	68
139.201	140.701	84	64
139.365	140.701	34	46
139.365	140.701	46	55
139.365	140.033	87	88
139.539	140.204	86	69
139.704	140.37	82	66
139.868	140.535	77	66
140.033	140.701	53	34
140.033	140.701	58	34
140.033	140.701	62	41
140.033	140.701	87	85
140.204	140.701	86	68
140.37	140.701	82	64
140.535	140.701	77	64
140.701	141.355	53	34
140.701	142.836	58	34
140.701	142.836	62	41
140.701	140.867	76	64
140.867	141.028	77	62
141.028	141.193	76	64
141.193	142.014	77	62
141.355	142.836	41	47
141.355	142.014	53	56
141.355	142.836	81	81
141.524	141.853	69	50
141.686	142.836	79	78
141.853	142.181	69	52
142.014	142.675	53	37
142.014	142.675	60	37
142.014	142.675	63	44
142.014	142.836	77	80
142.181	142.512	69	52
142.344	142.836	75	80
142.512	142.836	69	53
142.675	143.373	53	37
142.675	143.373	60	37
142.675	143.373	63	44
142.675	142.846	74	82
142.846	143.012	69	55
143.012	143.183	72	84
143.183	143.373	69	57
143.373	144.086	34	46
143.373	144.086	46	55
143.373	143.908	75	89
143.373	143.908	79	89
144.086	144.774	53	34
144.086	144.774	58	34
144.086	144.774	62	40
144.086	144.602	74	74
144.086	144.602	77	74
144.774	145.448	53	37
144.774	146.781	58	37
144.774	146.781	62	44
144.774	144.942	77	69
144.942	145.111	82	72
145.111	145.277	86	77
145.277	145.448	89	81
145.448	146.781	41	45
145.448	146.781	53	53
145.448	146.114	89	94
145.619	146.285	87	78
145.784	146.45	84	74
145.949	146.616	77	74
146.114	146.781	57	38
146.114	146.781	63	38
146.114	146.781	65	45
146.114	146.781	89	94
146.285	146.781	87	77
146.45	146.781	84	74
146.616	146.781	77	74
146.781	148.785	57	38
146.781	148.785	63	38
146.781	148.785	65	45
146.781	146.948	76	74
146.948	147.114	77	69
147.114	147.278	81	74
147.278	148.785	84	69
147.448	148.785	34	51
147.448	148.785	46	60
147.448	148.118	87	96
147.622	148.289	86	77
147.787	148.455	82	70
147.952	148.62	77	70
148.118	148.785	53	38
148.118	148.785	58	38
148.118	148.785	62	45
148.118	148.785	87	96
148.289	148.785	86	75
148.455	148.785	82	69
148.62	148.785	77	69
148.785	149.438	53	38
148.785	149.438	58	38
148.785	149.438	62	45
148.785	148.95	76	75
148.95	149.111	77	73
149.111	149.276	76	80
149.276	149.438	77	75
149.438	152.769	51	53
149.438	152.769	55	53
149.438	152.769	60	63
149.438	149.6	79	82
149.6	149.762	77	79
149.762	149.924	75	79
149.924	150.086	74	79
150.086	150.248	72	79
150.248	150.41	74	79
150.41	150.571	75	78
150.571	150.732	77	79
150.732	150.893	79	81
150.893	151.054	81	84
151.054	151.217	82	85
151.217	152.769	83	90
151.381	152.769	53	53
151.381	152.769	57	53
151.381	152.769	63	63
151.381	152.769	84	94
151.979	152.769	101	70
152.064	152.769	89	93
152.769	153.048	29	66
152.769	153.048	41	78
153.142	153.313	74	58
153.142	153.313	77	69
153.484	154.476	34	60
153.484	154.476	46	71
153.484	154.13	74	63
153.484	154.434	77	75
153.807	154.434	53	45
154.13	154.476	58	41
154.13	154.476	62	49
154.13	154.476	70	58
154.13	154.434	74	69
154.434	154.67	53	45
154.434	154.67	74	53
154.434	154.67	77	63
154.748	155.958	46	72
154.748	155.354	74	62
154.748	155.648	77	74
155.051	155.648	53	44
155.354	155.958	58	40
155.354	155.958	62	48
155.354	155.958	70	58
155.354	155.648	74	69
155.648	155.958	53	44
155.648	155.958	74	53
155.648	155.958	77	63
155.958	157.164	41	48
155.958	156.262	53	57
155.958	156.567	72	56
155.958	156.86	75	67
156.262	156.86	53	44
156.567	157.164	57	41
156.567	157.164	63	49
156.567	157.164	69	51
156.567	156.86	72	61
156.86	157.164	53	45
156.86	157.164	72	50
156.86	157.164	75	59
157.164	158.07	46	68
157.164	158.07	70	52
157.164	158.052	74	62
157.46	158.07	53	44
157.756	158.07	58	43
157.756	158.07	62	51
158.052	158.204	74	58
158.052	158.204	77	69
158.357	159.175	34	60
158.357	159.175	46	71
158.357	158.948	74	63
158.357	159.175	77	75
158.652	159.175	53	45
158.948	159.202	58	41
158.948	159.202	62	49
158.948	159.202	70	58
158.948	159.202	74	69
159.239	159.389	53	45
159.239	159.389	74	53
159.239	159.389	77	63
159.54	160.713	46	72
159.54	160.131	74	62
159.54	160.419	77	74
159.836	160.419	53	44
160.131	160.713	58	40
160.131	160.713	62	48
160.131	160.713	70	58
160.131	160.419	74	69
160.419	160.713	53	44
160.419	160.713	74	53
160.419	160.713	77	63
160.713	161.88	41	48
160.713	161.005	53	57
160.713	161.297	72	56
160.713	161.581	75	67
161.005	161.581	53	44
161.297	161.88	57	41
161.297	161.88	63	49
161.297	161.88	69	51
161.297	161.581	72	61
161.581	161.88	53	45
161.581	161.88	72	50
161.581	161.88	75	59
161.88	162.716	46	68
161.88	162.716	70	52
161.88	162.716	74	62
162.176	162.716	53	44
162.472	162.768	58	43
162.472	162.768	62	51
162.768	165.49	70	52
162.768	165.49	74	62
163.076	163.374	41	49
163.076	163.672	69	56
163.076	163.672	72	67
163.225	163.523	53	41
163.374	163.672	41	49
163.523	163.82	53	41
163.672	163.969	41	49
163.672	163.969	69	52
163.672	163.969	72	62
163.82	164.124	53	41
163.969	164.28	41	49
163.969	165.49	69	52
163.969	164.28	72	62
164.124	164.429	53	41
164.28	164.579	41	49
164.28	164.878	72	57
164.28	164.878	75	68
164.429	164.729	53	41
164.579	164.878	41	51
164.729	165.028	53	44
164.878	165.178	41	52
164.878	165.178	72	54
164.878	165.178	75	64
165.028	165.334	53	45
165.178	165.49	41	53
165.178	165.49	72	61
165.178	165.49	75	72
165.334	165.49	53	47
165.49	165.808	46	59
165.49	166.125	70	68
165.49	166.125	74	80
165.649	165.966	58	48
165.808	166.125	46	62
165.966	166.294	58	50
166.125	166.463	46	64
166.125	166.463	70	67
166.125	166.463	74	79
166.294	166.651	58	52
166.463	166.84	46	66
166.463	166.84	70	69
166.463	166.84	74	82
166.651	166.84	58	55
166.84	167.969	39	52
166.84	167.969	51	59
166.84	167.969	70	78
166.84	167.969	75	86
166.84	167.969	79	86
167.969	168.302	39	55
167.969	168.302	51	60
167.969	168.302	70	72
167.969	168.302	75	81
167.969	168.302	79	81
168.302	168.965	41	58
168.302	168.965	53	66
168.302	168.965	70	78
168.302	168.965	74	86
168.302	168.965	77	86
168.965	169.297	41	56
168.965	169.297	53	61
168.965	169.297	70	73
168.965	169.297	74	82
168.965	169.297	77	82
169.297	169.647	41	56
169.297	169.647	53	61
169.297	169.647	70	70
169.297	169.647	74	79
169.297	169.647	77	79
169.647	171.006	29	61
169.647	170.305	41	69
169.647	170.305	70	83
169.647	170.305	74	83
169.647	170.305	77	92
169.647	171.006	82	92
170.305	170.643	41	58
170.305	170.643	53	64
170.305	170.643	70	74
170.305	170.643	74	83
170.305	171.006	77	83
170.643	171.006	41	53
170.643	171.006	53	59
170.643	171.006	65	70
170.643	171.006	70	79
170.643	171.006	74	79
171.006	171.691	41	58
171.006	171.691	53	64
171.006	172.161	67	77
171.006	171.691	72	85
171.006	172.161	75	85
171.691	172.046	41	53
171.691	172.046	53	59
171.691	172.046	63	71
171.691	172.046	69	80
171.691	172.161	72	80
172.046	172.434	41	53
172.046	172.434	53	59
172.046	172.434	60	63
172.046	172.434	63	71
172.046	172.434	69	71
172.434	173.176	46	46
172.434	173.176	53	51
172.434	173.176	62	62
172.434	173.176	65	69
172.434	173.176	70	69
173.918	174.702	36	38
173.918	174.702	48	42
173.918	174.702	55	49
173.918	174.659	60	49
173.918	174.702	63	49
174.659	175.03	41	34
174.659	175.03	51	38
174.659	175.03	57	42
174.659	175.421	60	42
175.03	175.421	41	34
175.03	175.421	51	38
175.03	175.421	53	42
175.03	175.421	57	42
175.421	176.285	46	38
175.421	176.285	50	42
175.421	176.285	53	49
175.421	176.285	58	49
176.935	177.666	58	34
176.935	177.666	62	34
176.935	177.666	68	40
176.935	177.666	70	47
176.935	178.031	77	56
177.666	178.031	58	32
177.666	178.031	62	32
177.666	178.031	68	38
177.666	178.031	70	43
177.666	178.381	74	51
178.031	178.381	58	32
178.031	178.381	62	32
178.031	178.381	68	38
178.031	178.381	70	45
178.031	178.381	77	53
178.381	179.101	58	34
178.381	179.101	62	34
178.381	179.101	68	41
178.381	179.835	70	50
178.381	179.461	80	59
179.101	179.461	58	37
179.101	179.461	62	37
179.101	179.461	68	44
179.101	179.461	74	57
179.101	179.835	77	60
179.461	179.835	58	37
179.461	179.835	62	37
179.461	179.835	68	44
179.461	179.835	74	53
179.461	179.835	80	63
179.835	180.594	58	41
179.835	181.41	62	41
179.835	180.594	68	49
179.835	180.594	74	57
179.835	181.41	84	68
180.594	181.41	58	39
180.594	181.41	65	39
180.594	181.41	68	46
180.594	181.41	74	56
180.594	181.41	83	67
181.41	183.96	46	41
181.41	182.561	82	67
181.484	183.769	53	41
181.559	183.656	56	41
181.559	182.42	86	56
181.633	183.446	62	49
181.707	182.278	89	62
181.852	182.137	92	61
181.995	183.96	94	67
182.137	183.96	92	62
182.278	183.96	89	66
182.42	183.96	86	61
182.561	183.96	82	63
182.707	183.96	80	60
182.854	183.96	77	62
183.007	183.96	74	57
183.164	183.96	70	60
183.254	183.96	68	59
183.348	183.96	65	58
183.446	183.96	62	58
183.548	183.96	58	57
183.656	183.96	56	56
183.769	183.977	53	56
183.96	185.593	39	44
183.96	185.593	51	55
184.787	186.42	34	39
184.787	186.42	46	49
185.593	187.226	39	44
185.593	187.226	51	55
186.42	187.226	34	39
186.42	187.226	46	49
187.226	188.859	39	44
187.226	188.859	51	55
188.053	189.686	34	39
188.053	189.686	46	50
188.859	190.497	39	44
188.859	190.497	51	55
189.686	190.497	34	39
189.686	190.497	46	49
190.497	192.135	39	44
190.497	192.135	51	55
190.497	192.135	63	48
190.497	192.135	67	48
190.497	192.135	70	48
191.325	192.135	34	39
191.325	192.135	46	49
192.135	193.779	39	44
192.135	193.779	51	55
192.135	193.779	63	47
192.135	193.779	68	47
192.135	193.779	72	47
192.963	193.779	34	39
192.963	193.779	46	49
193.779	195.334	39	44
193.779	195.334	51	56
193.779	195.334	63	48
193.779	195.334	67	48
193.779	195.334	70	48
194.585	195.38	34	39
194.585	195.38	46	50
194.987	195.38	65	38
194.987	195.38	68	38
195.38	196.775	39	44
195.38	196.775	51	55
195.38	196.775	63	48
195.38	196.775	67	48
196.164	196.97	34	39
196.164	196.97	46	49
196.164	196.97	65	51
196.164	196.97	68	51
196.97	198.597	39	44
196.97	198.597	51	55
196.97	198.597	63	57
196.97	198.597	67	57
196.97	198.597	70	57
197.797	198.597	34	38
197.797	198.597	46	48
198.597	200.242	32	49
198.597	200.242	44	61
198.597	200.242	63	45
198.597	200.242	68	45
198.597	200.242	72	45
199.431	200.242	36	39
199.431	200.242	48	50
200.242	201.634	39	44
200.242	201.634	51	56
200.242	201.634	63	50
200.242	201.634	67	50
200.242	201.634	70	50
201.047	201.842	34	39
201.047	201.842	46	49
201.45	201.842	65	40
201.45	201.842	68	40
201.842	203.432	39	44
201.842	203.432	51	56
201.842	203.432	63	50
201.842	203.432	67	50
202.626	203.479	34	39
202.626	203.479	46	50
202.626	203.479	65	55
202.626	203.479	68	55
203.432	204.881	39	46
203.432	204.881	51	58
203.432	205.06	63	51
203.432	205.06	67	51
203.432	205.06	70	51
204.26	205.06	34	40
204.26	205.06	46	51
205.06	206.682	38	49
205.06	206.682	50	62
205.06	206.682	58	62
205.06	206.682	65	62
205.06	206.682	70	62
205.882	206.682	34	44
205.882	206.682	46	56
206.682	208.131	41	52
206.682	208.131	53	67
206.682	208.309	65	68
206.682	208.309	69	68
206.682	208.309	72	68
207.509	208.309	36	46
207.509	208.309	48	58
208.309	209.936	34	61
208.309	209.936	46	77
208.309	209.936	65	71
208.309	209.936	70	71
208.309	209.936	74	71
209.131	209.936	39	56
209.131	209.936	51	70
209.131	209.936	67	75
209.131	209.936	72	75
209.131	209.936	75	75
209.936	211.586	29	66
209.936	211.586	41	82
209.936	211.727	65	80
209.936	211.727	70	80
209.936	211.727	74	80
210.776	211.727	53	70
211.586	213.226	29	61
211.586	213.226	41	78
211.586	213.226	63	73
211.586	213.226	69	73
211.586	213.226	72	73
212.431	213.226	53	66
213.226	216.405	34	60
213.226	214.048	46	75
213.226	216.405	62	71
213.226	216.405	65	71
213.226	216.405	70	71
214.048	216.405	46	64
214.048	216.405	58	81
214.808	216.405	41	59
214.808	216.405	53	73
215.599	216.405	38	52
215.599	216.405	50	66
216.405	217.926	34	33
216.405	217.926	46	41
216.405	217.519	58	41
216.405	217.888	62	41
216.405	217.888	65	41
217.157	217.888	70	36
217.519	217.888	58	37
217.519	217.926	63	37
217.519	217.926	67	37
217.888	218.625	58	41
217.888	219.345	62	41
217.888	219.345	65	41
217.888	218.625	70	39
218.625	219.345	58	41
218.625	219.345	63	41
218.625	219.345	67	41
218.625	219.345	70	41
219.345	220.874	34	48
219.345	220.874	46	48
219.345	220.431	58	41
219.345	220.796	65	41
219.345	220.796	68	41
220.078	220.796	82	49
220.431	220.796	58	35
220.431	220.874	67	35
220.431	220.874	70	35
220.796	222.209	58	41
220.796	222.209	65	41
220.796	222.209	68	41
220.796	221.502	82	49
221.502	222.209	82	50
222.209	223.732	51	49
222.209	223.287	58	48
222.209	223.655	63	48
222.209	223.649	67	48
222.225	223.732	39	49
222.933	223.649	75	52
223.287	223.649	58	40
223.287	223.732	65	40
223.287	223.732	68	40
223.649	224.36	58	52
223.649	225.075	67	52
223.649	224.36	75	52
223.655	225.075	63	52
224.36	225.075	58	52
224.36	225.075	65	52
224.36	225.075	68	52
224.36	225.075	75	56
225.075	226.591	39	59
225.075	226.591	51	59
225.075	226.162	63	57
225.075	226.521	67	57
225.075	226.521	70	57
225.808	226.521	87	66
226.162	226.521	63	45
226.162	226.591	68	45
226.162	226.591	72	45
226.521	227.969	63	57
226.521	227.969	67	57
226.521	227.969	70	57
226.521	227.245	87	66
227.245	227.896	87	66
227.969	229.997	39	64
227.969	229.997	51	72
227.969	228.705	63	79
227.969	228.946	67	79
227.969	228.705	70	79
227.969	228.946	75	89
228.705	229.428	63	78
228.705	229.997	70	78
228.705	229.997	74	86
229.428	230.16	44	55
229.428	230.16	56	61
229.428	230.16	63	74
229.428	230.16	68	83
229.428	230.16	72	74
230.16	230.927	39	53
230.16	230.927	51	60
230.16	230.927	63	73
230.16	230.927	67	73
230.16	230.927	70	82
230.927	232.43	32	71
230.927	232.43	44	80
230.927	231.694	63	83
230.927	231.694	72	83
230.927	232.185	75	93
231.694	232.43	63	71
231.694	232.43	68	71
231.694	232.43	72	80
232.43	233.239	36	62
232.43	233.239	48	71
232.43	233.195	60	72
232.43	233.239	67	72
232.43	233.239	70	81
233.195	233.989	41	55
233.195	233.989	53	61
233.195	233.989	60	67
233.195	233.989	65	67
233.195	233.989	68	74
233.989	235.618	34	68
233.989	235.618	46	77
233.989	235.618	58	79
233.989	235.766	63	79
233.989	235.766	67	89
234.829	235.766	70	62
235.618	237.226	34	67
235.618	237.226	46	74
235.618	237.226	56	58
235.618	237.226	58	66
235.618	237.226	62	59
235.618	237.226	65	66
236.451	237.226	82	68
237.226	238.116	39	51
237.226	238.116	51	58
237.226	238.116	55	59
237.226	238.031	58	59
237.226	238.031	63	67
238.031	238.758	58	58
238.031	238.758	63	58
238.031	238.758	67	58
238.031	238.213	82	61
238.213	238.576	70	50
238.395	238.758	82	66
238.576	238.758	70	53
238.758	239.497	56	61
238.758	239.485	58	61
238.758	239.497	65	61
238.758	239.122	82	67
238.94	239.304	70	53
239.122	239.485	82	70
239.304	239.497	70	57
239.485	240.291	53	62
239.485	240.291	58	62
239.485	240.291	62	62
239.485	239.888	82	71
239.687	240.09	70	60
239.888	240.291	82	74
240.09	240.291	70	62
240.291	241.883	39	75
240.291	241.883	70	75
240.291	241.86	75	75
240.291	241.883	79	75
240.291	241.883	82	84
240.489	241.883	46	62
240.687	241.883	51	70
240.885	241.883	55	61
241.083	241.883	58	75
241.278	241.666	63	63
241.472	241.883	67	70
241.666	241.883	63	62
241.86	243.435	68	81
241.86	243.435	72	74
241.86	243.435	75	74
241.86	243.435	80	74
241.86	243.435	84	83
242.256	243.435	63	72
242.653	243.435	60	78
243.044	243.435	56	72
243.435	244.967	39	75
243.435	244.967	70	75
243.435	244.967	75	84
243.435	244.967	79	75
243.435	244.967	82	84
243.627	244.967	46	68
243.82	244.967	51	68
244.013	244.967	55	68
244.206	244.967	58	78
244.592	244.967	63	68
244.592	244.967	68	61
244.592	244.967	77	60
244.592	244.967	80	68
244.967	245.74	51	83
244.967	245.74	67	75
244.967	245.74	75	75
244.967	245.74	79	84
245.343	245.74	63	75
245.718	246.49	46	83
245.718	246.49	68	83
245.718	246.49	77	82
245.718	246.49	80	92
246.094	246.49	58	68
246.49	248.061	39	81
246.49	248.061	70	89
246.49	248.049	75	89
246.49	248.061	79	89
246.49	248.061	82	100
246.689	248.061	46	64
246.887	248.061	51	64
247.085	248.061	55	64
247.283	248.061	58	75
247.475	247.858	63	63
247.666	248.061	67	63
247.858	248.061	63	63
248.049	249.624	68	81
248.049	249.624	72	82
248.049	249.624	75	82
248.049	249.624	80	81
248.049	249.624	84	91
248.448	249.624	63	68
248.847	249.624	60	75
249.236	249.624	56	68
249.624	251.102	39	77
249.624	251.102	70	85
249.624	251.102	75	85
249.624	251.102	79	86
249.624	251.102	82	96
249.817	251.102	46	62
250.01	251.102	51	62
250.203	251.102	55	62
250.396	251.102	58	68
250.781	251.157	63	62
250.781	251.157	68	64
250.781	251.157	77	64
250.781	251.157	80	72
251.157	251.963	51	68
251.157	251.963	67	80
251.157	251.963	75	79
251.157	251.963	79	89
251.532	251.963	63	62
251.908	252.68	46	68
251.908	252.68	68	85
251.908	252.68	77	86
251.908	252.68	80	96
252.284	252.68	58	62
252.68	254.216	39	77
252.68	254.239	70	88
252.68	254.239	75	88
252.68	254.239	79	89
252.68	254.239	82	99
252.878	253.473	46	63
253.076	253.664	51	63
253.274	253.856	55	63
253.473	254.216	46	73
253.664	254.216	51	63
253.856	254.216	55	63
254.047	254.239	58	64
254.239	255.792	50	82
254.239	255.792	70	89
254.239	255.792	74	89
254.239	255.792	77	89
254.239	255.792	82	100
254.436	255.601	53	66
254.632	255.026	58	66
254.829	255.218	62	66
255.026	255.409	58	82
255.218	255.792	62	68
255.409	255.792	58	68
255.601	255.792	53	68
255.792	257.351	41	82
255.792	257.351	72	90
255.792	257.351	77	90
255.792	257.351	81	90
255.792	257.351	84	101
256.189	257.351	45	68
256.387	257.351	48	68
256.585	257.351	53	74
256.776	257.351	57	68
256.968	257.351	60	68
257.16	257.351	65	68
257.351	258.24	46	81
257.351	258.24	58	81
257.351	258.24	74	93
257.351	258.24	77	93
257.351	258.24	82	93
257.351	258.24	86	104
258.138	258.91	39	83
258.138	258.91	51	83
258.138	258.91	75	97
258.138	258.91	79	97
258.138	258.91	84	97
258.138	258.91	87	108
258.91	260.418	41	85
258.91	260.418	53	85
258.91	260.436	74	101
258.91	260.436	77	101
258.91	260.436	82	100
258.91	260.436	86	112
259.312	260.418	70	81
259.493	260.418	69	81
259.676	260.418	67	80
259.863	260.418	65	80
260.051	260.418	63	78
260.242	260.436	62	78
260.436	261.988	60	74
260.436	261.988	72	91
260.436	261.988	75	91
260.436	261.988	81	91
260.436	261.988	84	102
260.632	261.988	58	74
260.828	261.988	57	73
261.024	261.988	55	72
261.219	261.988	53	71
261.408	261.988	51	71
261.598	261.988	50	70
261.792	261.988	48	69
261.988	262.775	46	82
261.988	265.136	70	88
261.988	265.136	74	88
261.988	265.136	77	89
261.988	265.136	82	99
262.775	265.136	46	75
262.775	265.136	58	84
263.562	265.136	41	70
263.562	265.136	53	79
264.349	265.136	38	69
264.349	265.136	50	77
265.136	266.556	34	37
265.136	266.556	46	41
265.136	265.507	62	41
265.136	265.507	65	41
265.322	265.692	58	28
265.507	265.878	62	34
265.507	265.878	65	34
265.692	266.056	58	27
265.878	266.556	62	34
265.878	266.556	65	34
266.056	266.417	58	28
266.235	266.556	63	37
266.235	266.556	67	37
266.235	266.598	70	49
266.417	266.598	58	31
266.598	266.962	62	41
266.598	266.962	65	41
266.598	267.326	70	53
266.78	267.144	58	33
266.962	268.035	62	36
266.962	268.035	65	36
267.144	267.503	58	30
267.326	267.681	63	41
267.326	267.681	67	41
267.326	268.035	70	52
267.503	267.858	58	33
267.681	268.035	63	36
267.681	268.035	67	36
267.858	268.035	58	33
268.035	269.486	34	48
268.035	269.486	46	48
268.035	268.397	65	41
268.035	268.397	68	41
268.216	268.578	58	27
268.397	268.758	65	31
268.397	268.758	68	31
268.578	268.932	58	27
268.758	269.466	65	31
268.758	269.466	68	31
268.932	269.286	58	27
269.107	269.486	67	35
269.107	269.486	70	35
269.107	269.466	82	56
269.286	269.486	58	30
269.466	269.814	65	41
269.466	269.814	68	41
269.466	270.859	82	55
269.64	269.988	58	33
269.814	270.162	65	36
269.814	270.162	68	36
269.988	270.337	58	34
270.162	270.511	65	36
270.162	270.511	68	36
270.337	270.685	58	31
270.511	270.859	65	36
270.511	270.859	68	36
270.685	270.859	58	31
270.859	272.259	51	49
270.859	271.216	63	48
270.859	271.216	67	48
270.875	272.259	39	49
271.038	271.394	58	27
271.216	271.573	63	33
271.216	271.573	67	33
271.394	271.749	58	26
271.573	272.259	63	34
271.573	272.259	67	34
271.749	272.101	58	29
271.923	272.259	65	40
271.923	272.259	68	40
271.923	272.28	75	57
272.101	272.28	58	35
272.28	272.63	67	52
272.28	272.98	75	58
272.285	272.63	63	52
272.455	272.805	58	38
272.63	273.686	63	38
272.63	273.686	67	38
272.805	273.157	58	36
272.98	273.333	65	52
272.98	273.333	68	52
272.98	273.686	75	56
273.157	273.509	58	38
273.333	273.686	65	42
273.333	273.686	68	42
273.509	273.686	58	38
273.686	275.153	39	59
273.686	275.153	51	59
273.686	274.047	67	57
273.686	274.047	70	57
273.866	274.228	63	41
274.047	274.408	67	47
274.047	274.408	70	47
274.228	274.583	63	41
274.408	275.112	67	37
274.408	275.112	70	37
274.583	274.934	63	37
274.757	275.153	68	45
274.757	275.153	72	45
274.757	275.112	87	72
274.934	275.153	63	41
275.112	275.468	67	57
275.112	275.468	70	57
275.112	276.539	87	75
275.29	275.647	63	35
275.468	275.825	67	41
275.468	275.825	70	41
275.647	276.004	63	37
275.825	276.182	67	41
275.825	276.182	70	41
276.004	276.361	63	38
276.182	276.539	67	46
276.182	276.539	70	46
276.361	276.539	63	41
276.539	277.528	39	63
276.539	277.528	51	71
276.539	277.278	63	87
276.539	277.528	67	87
276.539	277.278	70	87
276.539	277.528	75	97
277.278	277.898	43	71
277.278	277.898	55	71
277.278	277.898	63	86
277.278	277.898	70	85
277.278	277.898	74	95
277.898	278.828	60	77
277.956	278.828	44	58
277.956	278.764	63	84
278.018	278.764	51	61
278.018	278.828	68	78
278.086	278.828	56	70
278.086	278.828	72	92
278.764	279.5	39	58
278.764	279.5	51	65
278.764	279.5	58	82
278.764	279.5	63	82
278.764	279.5	67	84
278.764	279.5	70	94
279.5	280.787	32	74
279.5	280.25	44	81
279.5	280.25	75	97
279.5	280.25	80	97
279.5	280.25	84	97
279.5	280.787	87	110
280.25	280.909	44	74
280.25	280.909	56	74
280.25	280.909	72	98
280.25	280.909	75	98
280.25	280.909	80	88
280.25	280.909	84	98
280.909	281.803	48	58
280.909	281.803	70	90
280.965	281.803	52	59
280.965	281.803	76	95
281.022	281.803	55	60
281.022	281.803	79	89
281.082	281.803	60	70
281.082	281.803	82	105
281.76	282.522	41	63
281.76	282.522	53	72
281.76	282.522	68	86
281.76	282.522	72	86
281.76	282.522	77	85
281.76	282.522	80	95
282.522	283.343	46	65
282.522	284.025	58	73
282.522	284.043	67	90
282.522	284.043	70	90
282.522	284.043	75	92
282.522	284.043	79	101
283.343	284.043	34	74
283.343	284.043	46	74
284.043	285.727	53	57
284.043	285.727	65	74
284.102	285.727	56	61
284.102	285.727	68	80
284.166	285.727	58	64
284.166	285.727	74	75
284.226	285.727	62	70
284.226	285.727	77	96
284.967	285.727	34	73
284.967	285.727	46	73
285.727	285.981	39	66
285.727	286.488	63	79
285.727	286.733	67	79
285.727	286.98	70	72
285.727	287.219	75	79
285.853	286.106	51	55
285.981	286.235	39	61
286.106	286.361	51	54
286.235	286.488	39	61
286.361	286.609	51	54
286.488	286.733	39	66
286.488	287.219	63	82
286.609	286.854	51	55
286.733	286.98	39	61
286.733	287.219	67	82
286.854	287.103	51	54
286.98	287.219	39	61
286.98	287.225	70	82
287.103	287.225	51	54
287.225	287.477	39	71
287.225	287.977	63	75
287.225	287.977	68	75
287.225	287.977	71	75
287.225	287.977	75	82
287.351	287.601	51	55
287.477	287.727	39	61
287.601	287.851	51	54
287.727	287.955	39	61
287.851	287.977	51	54
287.977	288.234	39	74
287.977	288.746	68	75
287.977	288.746	71	75
287.977	288.746	75	75
287.977	288.746	80	82
288.103	288.362	51	55
288.234	288.489	39	64
288.362	288.62	51	54
288.489	288.746	39	65
288.62	288.746	51	54
288.746	289.003	39	74
288.746	290.269	67	75
288.746	290.269	70	75
288.746	289.515	75	75
288.746	289.761	79	82
288.875	289.131	51	55
289.003	289.26	39	64
289.131	289.386	51	54
289.26	289.515	39	64
289.386	289.636	51	54
289.515	289.761	39	66
289.515	290.252	75	84
289.636	289.882	51	55
289.761	290.006	39	63
289.761	290.269	79	84
289.882	290.129	51	54
290.006	290.252	39	63
290.006	290.269	82	85
290.129	290.269	51	54
290.252	290.504	39	73
290.252	291.006	75	80
290.252	291.006	80	80
290.252	291.006	83	80
290.252	291.006	87	91
290.378	290.63	51	55
290.504	290.756	39	65
290.63	290.879	51	54
290.756	290.977	39	64
290.879	291.006	51	54
291.006	291.274	39	72
291.006	291.811	80	86
291.006	291.811	83	86
291.006	291.811	87	86
291.006	291.811	92	97
291.14	291.408	51	55
291.274	291.544	39	64
291.408	291.676	51	54
291.544	291.811	39	63
291.676	291.811	51	54
291.811	293.385	39	63
291.811	292.59	79	86
291.811	292.59	82	86
291.811	292.59	87	86
291.811	292.59	91	96
291.855	293.431	27	63
292.59	293.186	63	78
292.59	293.186	75	78
293.186	293.385	63	72
293.186	293.385	75	72
293.385	295.018	63	79
293.385	295.018	75	79
294.201	294.814	27	39
294.201	294.814	39	45
294.814	295.018	29	37
294.814	295.018	41	41
295.018	295.834	31	41
295.018	295.834	43	47
295.834	296.65	31	37
295.834	296.65	43	41
296.65	297.467	31	39
296.65	297.467	43	44
296.65	297.467	51	39
296.65	297.467	55	39
296.65	297.467	60	45
297.467	298.3	31	37
297.467	298.3	43	41
297.467	298.3	51	37
297.467	298.3	54	37
297.467	298.3	57	41
297.467	298.3	60	41
298.3	300.749	31	39
298.3	300.749	43	44
298.3	300.016	50	40
298.3	299.933	55	40
298.3	300.016	59	46
299.524	300.016	48	37
299.524	300.016	57	41
299.933	300.749	47	35
299.933	300.749	55	39
300.749	301.361	27	39
300.749	301.361	39	45
301.361	301.565	29	37
301.361	301.565	41	41
301.565	302.382	31	41
301.565	302.382	43	47
302.382	303.198	31	37
302.382	303.198	43	41
303.198	304.061	31	47
303.198	304.061	43	52
303.198	304.061	51	49
303.198	304.061	55	49
303.198	304.061	60	49
303.198	304.061	63	56
304.061	304.984	31	46
304.061	304.984	43	51
304.061	304.984	54	49
304.061	304.984	57	49
304.061	304.984	60	49
304.061	304.984	63	55
304.984	313.491	31	45
304.984	306.373	55	51
304.984	307.484	59	51
304.984	307.762	62	58
305.262	313.491	38	38
305.54	306.651	43	38
305.818	313.491	47	45
306.095	306.929	50	38
306.373	307.207	55	38
306.651	313.491	43	47
306.929	313.491	50	38
307.207	308.318	55	40
307.484	313.491	59	44
307.762	308.61	62	36
308.04	308.902	67	36
308.318	313.491	55	41
308.61	313.491	62	34
308.902	310.069	67	34
309.194	313.491	71	40
309.486	310.361	74	35
309.778	310.658	79	34
310.069	313.491	67	37
310.361	313.491	74	30
310.658	313.491	79	35
310.961	313.491	83	39
311.27	313.491	86	31
311.587	313.491	91	31
311.995	314.444	103	38
315.107	316.616	67	47
315.181	317.247	72	47
315.268	316.616	76	47
315.354	317.302	36	28
315.354	317.247	48	28
315.354	316.616	79	47
315.669	316.931	52	31
315.985	316.616	55	36
316.3	317.302	60	39
316.3	317.302	69	39
316.3	317.302	77	39
316.3	317.302	81	39
316.616	317.302	55	37
316.616	317.302	67	41
316.616	317.247	76	41
316.616	317.302	79	41
316.931	317.302	52	30
317.247	318.958	48	30
317.247	318.958	64	42
317.247	318.958	72	42
317.247	318.958	76	42
317.562	318.837	52	33
317.877	318.508	55	36
318.193	318.958	60	31
318.508	318.958	55	31
318.837	319.498	52	29
318.923	320.428	67	47
319.01	321.057	72	47
319.097	320.428	79	47
319.184	321.068	36	30
319.184	321.057	48	30
319.184	320.428	76	47
319.498	320.731	52	33
319.811	320.428	55	35
320.125	321.068	60	36
320.125	321.068	69	39
320.125	321.068	77	39
320.125	321.068	81	39
320.428	321.068	55	35
320.428	321.068	67	41
320.428	321.057	76	41
320.428	321.11	79	41
320.731	321.068	52	33
321.057	322.738	48	33
321.057	322.738	64	41
321.057	322.738	72	41
321.057	322.738	76	41
321.376	322.664	52	35
321.694	322.325	55	37
322.01	322.738	60	36
322.325	322.738	55	34
322.664	326.577	52	33
322.752	324.259	74	62
322.836	324.259	77	62
322.921	326.577	79	62
323.005	326.577	31	31
323.005	324.925	43	31
323.005	324.259	86	62
323.319	324.584	53	34
323.632	324.259	55	35
323.945	325.872	59	34
324.259	325.556	55	33
324.259	326.577	74	49
324.259	324.925	77	49
324.259	326.577	86	60
324.584	325.241	53	33
324.925	326.577	43	29
324.925	326.577	71	49
324.925	326.577	77	49
324.925	326.577	83	49
325.241	326.502	53	31
325.556	326.187	55	34
325.872	326.577	59	34
326.187	326.577	55	33
326.502	330.367	53	29
326.582	328.081	72	56
326.664	328.081	76	56
326.746	328.743	79	56
326.827	330.367	36	33
326.827	328.743	48	33
326.827	328.081	84	56
327.141	328.406	52	34
327.454	328.081	55	35
327.768	329.69	60	36
328.081	329.374	55	37
328.081	330.367	72	49
328.081	328.743	76	49
328.081	330.367	84	49
328.406	329.059	52	34
328.743	330.367	48	37
328.743	330.367	67	45
328.743	330.367	76	45
328.743	330.367	79	45
329.059	330.335	52	31
329.374	330.005	55	34
329.69	330.367	60	31
330.005	330.367	55	31
330.335	334.159	52	34
330.421	331.925	69	56
330.504	332.588	72	56
330.588	331.925	77	56
330.671	334.159	41	33
330.671	332.588	53	33
330.671	331.925	81	56
330.985	332.257	57	34
331.298	331.925	60	35
331.611	333.535	65	36
331.925	333.219	60	40
331.925	333.835	69	61
331.925	333.835	77	61
331.925	332.588	81	61
332.257	332.904	57	34
332.588	334.159	53	37
332.588	334.159	72	63
332.588	333.835	81	63
332.588	334.159	84	63
332.904	334.159	57	31
333.219	333.835	60	35
333.535	334.159	65	34
333.535	334.159	71	57
333.535	334.159	79	57
333.535	334.159	83	57
333.835	334.194	60	33
333.835	335.51	69	63
333.835	335.51	77	63
333.835	335.51	81	63
334.194	338.046	57	34
334.29	335.826	67	62
334.381	336.469	72	62
334.473	335.826	76	62
334.564	338.046	36	33
334.564	336.469	48	33
334.564	335.826	79	62
334.879	336.141	52	34
335.195	335.826	55	35
335.51	337.415	60	36
335.51	338.046	69	50
335.51	338.046	77	50
335.51	338.046	81	50
335.826	337.099	55	37
335.826	338.046	67	53
335.826	336.469	76	53
335.826	338.046	79	53
336.141	336.784	52	34
336.469	338.046	48	37
336.469	338.072	64	50
336.469	338.072	72	50
336.469	338.072	76	50
336.784	338.046	52	31
337.099	337.73	55	33
337.415	338.046	60	30
337.73	338.046	55	30
338.046	341.944	52	29
338.126	339.627	69	56
338.208	340.291	72	56
338.291	339.627	77	56
338.374	341.944	41	33
338.374	340.291	53	33
338.374	339.627	81	56
338.687	339.959	57	34
339.0	339.627	60	35
339.314	341.237	65	36
339.627	340.922	60	40
339.627	341.538	69	61
339.627	341.538	77	61
339.627	340.291	81	61
339.959	340.606	57	34
340.291	341.944	53	37
340.291	341.944	72	63
340.291	341.538	81	63
340.291	341.944	84	63
340.606	341.873	57	31
340.922	341.538	60	35
341.237	341.944	65	34
341.237	341.944	71	57
341.237	341.944	79	57
341.237	341.944	83	57
341.538	341.944	60	33
341.538	341.959	69	63
341.538	341.959	77	63
341.538	341.959	81	63
341.873	345.837	57	34
341.959	343.465	67	62
342.049	344.128	72	62
342.138	343.465	76	62
342.227	345.837	36	33
342.227	344.128	48	33
342.227	343.465	79	62
342.537	343.796	52	34
342.846	343.465	55	35
343.155	345.075	60	36
343.155	345.837	69	50
343.155	345.837	77	50
343.155	345.837	81	50
343.465	344.759	55	37
343.465	345.837	67	53
343.465	344.128	76	53
343.465	345.837	79	53
343.796	344.444	52	34
344.128	345.837	48	37
344.128	345.837	64	50
344.128	345.837	72	50
344.128	345.837	76	50
344.444	345.724	52	31
344.759	345.39	55	33
345.075	345.837	60	30
345.39	345.837	55	30
345.724	349.698	52	29
345.811	347.321	74	63
345.897	347.321	77	63
345.982	349.698	79	63
346.067	349.698	31	31
346.067	347.999	43	31
346.067	347.321	86	63
346.381	347.66	53	34
346.694	347.321	55	35
347.008	348.945	59	34
347.321	348.63	55	33
347.321	348.945	74	63
347.321	347.829	77	63
347.321	348.945	86	63
347.66	348.314	53	33
347.829	348.945	77	70
347.914	349.26	83	70
347.999	349.698	43	29
347.999	349.698	89	70
348.314	349.599	53	31
348.63	349.26	55	34
348.945	349.698	59	37
348.945	349.698	74	64
348.945	349.26	77	64
348.945	349.698	86	64
349.26	349.698	55	34
349.26	349.698	71	64
349.26	349.698	77	64
349.26	349.698	83	64
349.599	353.669	53	33
349.684	353.669	72	61
349.769	351.924	76	61
349.853	351.924	79	61
349.938	353.669	36	33
349.938	351.924	48	33
349.938	353.669	84	61
350.264	351.583	52	34
350.59	351.242	55	35
350.916	352.87	60	36
351.242	352.555	55	37
351.583	352.24	52	34
351.924	353.669	48	30
351.924	353.935	76	50
351.924	354.023	79	50
351.924	355.636	88	50
352.24	353.669	52	25
352.555	353.669	55	29
352.87	353.669	60	25
353.186	355.365	64	24
353.847	355.365	72	50
353.935	355.052	76	50
354.023	355.052	79	50
354.112	355.636	31	36
354.112	355.636	43	36
354.112	355.636	84	50
354.425	355.636	52	33
354.738	355.365	55	33
355.052	355.636	60	33
355.052	355.636	67	47
355.052	355.365	76	47
355.052	355.636	79	47
355.365	356.653	55	29
355.365	358.002	64	47
355.365	358.002	72	47
355.365	358.069	76	47
355.694	358.069	52	29
355.776	358.002	67	51
355.858	357.284	71	51
355.94	357.284	74	51
356.022	358.069	31	36
356.022	358.069	43	36
356.022	358.069	79	51
356.337	357.599	53	33
356.653	357.284	55	28
356.968	358.069	59	30
356.968	358.069	65	46
356.968	358.069	77	46
357.284	358.069	55	29
357.284	358.069	62	42
357.284	358.069	71	42
357.284	358.069	74	42
357.599	358.069	53	30
358.002	359.833	36	33
358.002	359.833	48	33
358.002	358.93	60	42
358.002	359.862	64	42
358.002	359.862	67	42
358.002	359.862	72	42
358.311	359.546	52	34
358.62	359.23	55	35
358.93	359.862	60	36
359.23	359.833	55	37
359.546	359.862	52	34
359.862	361.56	48	37
360.178	361.439	52	35
360.493	361.124	55	37
360.808	361.56	60	40
361.124	361.56	55	39
361.439	365.501	52	37
361.518	363.609	68	71
361.597	363.609	72	71
361.676	363.609	77	71
361.755	365.501	36	41
361.755	363.609	48	41
361.755	363.609	80	71
362.064	363.296	53	42
362.374	362.984	56	45
362.683	364.555	60	46
362.984	364.24	56	47
363.296	363.924	53	42
363.609	365.501	48	47
363.609	364.871	68	67
363.609	364.871	72	67
363.609	364.871	77	67
363.609	364.871	80	67
363.924	365.186	53	45
364.24	364.871	56	47
364.555	365.501	60	51
364.871	365.501	56	50
364.871	365.501	68	67
364.871	365.501	72	67
364.871	365.501	77	67
364.871	365.501	80	67
365.186	365.501	53	47
365.501	368.981	36	41
365.501	367.349	48	41
365.501	369.005	67	69
365.501	369.005	72	69
365.501	369.005	76	69
365.501	369.005	79	69
365.811	367.04	52	42
366.12	366.73	55	45
366.43	368.295	60	46
366.73	367.98	55	47
367.04	367.664	52	42
367.349	368.981	48	47
367.664	368.926	52	45
367.98	368.611	55	47
368.295	368.981	60	51
368.611	368.981	55	50
368.926	372.988	52	47
369.005	371.096	72	73
369.084	371.096	77	73
369.163	371.096	80	73
369.242	372.988	36	41
369.242	371.096	48	41
369.242	371.096	84	73
369.551	370.783	53	42
369.86	370.471	56	45
370.17	372.042	60	46
370.471	371.727	56	47
370.783	371.411	53	42
371.096	372.988	48	47
371.096	372.357	72	75
371.096	372.357	77	75
371.096	372.357	80	75
371.096	372.357	84	75
371.411	372.673	53	45
371.727	372.357	56	47
372.042	372.988	60	51
372.357	372.988	56	50
372.357	372.988	72	81
372.357	372.988	77	81
372.357	372.988	80	72
372.357	372.988	84	81
372.673	372.988	53	47
372.988	376.729	36	50
372.988	374.836	48	50
372.988	376.729	72	82
372.988	376.729	76	82
372.988	374.836	79	81
372.988	374.836	84	91
373.298	374.527	52	51
373.607	374.217	55	53
373.917	375.782	60	56
374.217	375.467	55	57
374.527	375.151	52	51
374.836	376.729	48	57
374.836	376.729	79	83
374.836	376.729	84	83
374.836	376.729	88	82
374.836	376.729	91	92
375.151	376.413	52	53
375.467	376.098	55	57
375.782	376.729	60	62
376.098	376.729	55	60
376.413	376.729	52	57
376.729	379.252	36	69
376.729	379.252	48	69
376.729	379.252	84	89
376.729	379.252	88	89
376.729	379.252	91	89
376.729	379.252	96	96
379.252	380.347	69	34
379.252	380.347	72	40
379.252	380.347	76	38
379.252	380.347	81	38
379.252	380.347	84	45
380.347	381.487	64	28
380.347	381.487	71	33
380.347	381.487	76	31
380.347	381.487	79	31
380.347	381.487	83	37
381.426	382.518	65	35
381.426	382.518	69	42
381.426	382.518	72	41
381.426	382.518	77	41
381.426	382.518	81	49
382.518	383.666	60	43
382.518	383.666	67	51
382.518	383.666	72	53
382.518	383.606	76	53
382.518	383.666	79	63
383.606	384.68	57	52
383.606	384.68	69	62
383.606	384.68	73	62
383.606	384.68	76	62
383.606	384.68	81	74
384.68	385.831	62	57
384.68	385.831	69	68
384.68	385.768	74	70
384.68	385.831	77	83
385.768	387.36	55	62
385.768	386.914	67	74
385.768	398.879	71	77
385.768	398.879	74	91
386.341	398.879	65	83
386.914	395.345	36	85
386.914	387.466	60	73
386.914	387.569	64	73
386.914	387.671	67	73
386.914	387.774	72	82
387.025	395.345	43	60
387.14	388.189	48	60
387.251	395.345	52	67
387.36	388.289	55	60
387.466	388.387	60	60
387.569	388.484	64	67
387.671	388.085	67	61
387.774	387.981	72	61
387.877	388.77	76	67
387.981	388.676	72	61
388.085	388.581	67	61
388.189	394.114	48	67
388.289	394.114	55	60
388.387	389.354	60	62
388.484	394.114	64	71
388.581	389.45	67	66
388.676	389.544	72	67
388.77	389.637	76	75
388.864	389.253	79	69
388.959	389.154	84	70
389.056	389.91	88	82
389.154	389.819	84	73
389.253	389.729	79	73
389.354	390.477	60	77
389.45	390.572	67	70
389.544	390.665	72	71
389.637	390.758	76	77
389.729	390.85	79	71
389.819	390.939	84	71
389.91	391.03	88	82
390.002	390.38	91	75
390.094	390.283	96	75
390.188	391.319	100	82
390.283	391.219	96	75
390.38	391.123	91	75
390.477	392.884	60	79
390.572	392.884	67	74
390.665	391.653	72	74
390.758	391.653	76	83
390.85	391.653	79	77
390.939	392.884	84	77
391.03	391.653	88	83
391.123	391.539	91	79
391.219	391.426	96	79
391.319	398.879	100	86
391.426	391.653	96	82
391.539	398.879	91	82
391.653	392.884	72	79
391.653	392.884	76	79
391.653	392.884	79	88
391.653	398.879	88	91
391.653	398.879	96	102
392.884	394.114	60	72
392.884	394.114	67	72
392.884	394.114	72	81
392.884	398.879	76	88
392.884	398.879	79	89
392.884	398.879	84	99
394.114	395.345	48	72
394.114	395.345	55	72
394.114	395.345	60	81
394.114	398.879	64	88
394.114	398.879	67	89
394.114	398.879	72	99
395.345	396.657	36	72
395.345	398.879	43	72
395.345	396.657	48	81
395.345	398.879	52	84
395.345	398.879	55	85
395.345	398.879	60	95
396.657	399.28	24	78
396.657	399.28	36	86
396.657	399.28	48	104
