# onset,offset,note,velocity
0.502204	1.557064	70.000000	59.000000
0.502204	1.557064	67.000000	59.000000
0.502204	2.611789	51.000000	51.000000
1.554864	2.126242	68.000000	55.000000
1.554864	2.126242	65.000000	55.000000
2.082294	2.651312	63.000000	53.000000
2.082294	2.651312	67.000000	53.000000
2.609711	3.154374	68.000000	54.000000
2.609711	3.154374	72.000000	54.000000
3.108964	3.653922	67.000000	52.000000
3.108964	3.653922	70.000000	52.000000
3.653922	4.667784	70.000000	59.000000
3.653922	4.667784	67.000000	59.000000
3.653922	4.667784	51.000000	50.000000
4.667784	5.666291	65.000000	53.000000
4.667784	5.666291	68.000000	53.000000
4.667784	5.666291	53.000000	46.000000
5.666291	6.712675	63.000000	51.000000
5.666291	6.712675	67.000000	51.000000
5.666291	6.712675	55.000000	45.000000
6.712675	7.742537	64.000000	65.000000
6.712675	7.742537	58.000000	55.000000
6.712675	7.742537	61.000000	55.000000
7.742537	8.269967	65.000000	55.000000
7.742537	8.780861	60.000000	51.000000
7.742537	8.780861	56.000000	51.000000
8.269967	8.780861	72.000000	55.000000
8.780861	9.036314	70.000000	53.000000
9.036314	9.291768	68.000000	51.000000
9.291768	9.547222	67.000000	53.000000
9.547222	9.802676	65.000000	52.000000
9.802676	10.874702	55.000000	59.000000
9.802676	10.874702	63.000000	59.000000
9.802676	10.070682	45.000000	47.000000
10.070682	10.338689	46.000000	50.000000
10.338689	10.606695	48.000000	53.000000
10.606695	10.874702	46.000000	51.000000
10.874702	11.138417	53.000000	53.000000
10.874702	11.138417	62.000000	53.000000
10.874702	11.926732	46.000000	49.000000
11.270274	11.402132	58.000000	47.000000
11.402132	11.533989	62.000000	51.000000
11.533989	11.665136	60.000000	49.000000
11.665136	11.795934	63.000000	52.000000
11.795934	11.926732	62.000000	51.000000
11.926732	12.057530	65.000000	53.000000
12.057530	12.188328	63.000000	51.000000
12.188328	12.318777	67.000000	54.000000
12.318777	12.448529	65.000000	54.000000
12.448529	12.578281	68.000000	57.000000
12.578281	12.708033	67.000000	54.000000
12.708033	12.837785	70.000000	59.000000
12.837785	12.966866	68.000000	56.000000
12.966866	13.098724	72.000000	60.000000
12.966866	14.021726	39.000000	53.000000
12.966866	14.021726	51.000000	53.000000
13.098724	14.021726	67.000000	61.000000
13.098724	13.758011	70.000000	61.000000
13.758011	13.889869	72.000000	53.000000
13.889869	14.021726	70.000000	50.000000
14.021726	14.287587	68.000000	53.000000
14.287587	14.553448	67.000000	51.000000
14.553448	14.819308	65.000000	53.000000
14.819308	15.094087	63.000000	52.000000
15.094087	15.357802	79.000000	62.000000
15.094087	16.148947	51.000000	49.000000
15.094087	16.148947	60.000000	49.000000
15.357802	15.621517	74.000000	54.000000
15.621517	15.885232	75.000000	58.000000
15.885232	16.148947	72.000000	52.000000
16.148947	17.220946	70.000000	56.000000
16.148947	17.220946	60.000000	53.000000
16.148947	17.220946	53.000000	53.000000
17.220946	17.352804	70.000000	50.000000
17.220946	18.275806	58.000000	50.000000
17.220946	18.275806	62.000000	50.000000
17.319840	17.451697	68.000000	48.000000
17.418733	17.550590	70.000000	50.000000
17.517626	17.649483	68.000000	48.000000
17.616519	17.748376	70.000000	50.000000
17.715412	17.847269	68.000000	48.000000
17.814305	17.946163	70.000000	50.000000
17.913198	18.045056	68.000000	49.000000
18.012091	18.143949	67.000000	57.000000
18.143949	18.275806	68.000000	55.000000
18.275806	18.414356	67.000000	60.000000
18.275806	18.818766	60.000000	49.000000
18.275806	18.818766	63.000000	49.000000
18.552905	18.818766	75.000000	65.000000
18.818766	19.084627	74.000000	62.000000
19.084627	19.350488	73.000000	59.000000
19.350488	19.664883	71.000000	57.000000
19.350488	20.607519	44.000000	54.000000
19.350488	20.607519	56.000000	54.000000
19.586281	19.664883	74.000000	53.000000
19.664883	19.967664	72.000000	61.000000
19.891972	19.967664	70.000000	53.000000
19.967664	20.270446	68.000000	57.000000
20.194754	20.270446	67.000000	47.000000
20.270446	20.607519	65.000000	55.000000
20.607519	22.391109	63.000000	51.000000
20.607519	23.002358	46.000000	50.000000
20.607519	21.796583	55.000000	50.000000
21.796583	23.002358	56.000000	40.000000
22.391109	22.696733	67.000000	50.000000
22.391109	23.002358	62.000000	50.000000
22.696733	23.002358	65.000000	47.000000
23.002358	24.057218	63.000000	46.000000
23.002358	23.266073	51.000000	32.000000
23.266073	23.529788	55.000000	32.000000
23.529788	23.793503	58.000000	30.000000
23.793503	24.057218	55.000000	27.000000
24.057218	24.320933	51.000000	33.000000
24.320933	24.584648	55.000000	29.000000
24.584648	25.095555	67.000000	49.000000
24.584648	25.095555	70.000000	49.000000
24.584648	24.840101	58.000000	31.000000
24.840101	25.095555	55.000000	29.000000
25.095555	25.606463	67.000000	52.000000
25.095555	25.606463	70.000000	52.000000
25.095555	25.351009	51.000000	33.000000
25.351009	25.606463	55.000000	29.000000
25.606463	26.146901	67.000000	46.000000
25.606463	26.146901	70.000000	46.000000
25.606463	25.876682	58.000000	31.000000
25.876682	26.146901	55.000000	29.000000
26.146901	27.729178	68.000000	57.000000
26.146901	26.674318	75.000000	57.000000
26.146901	26.410603	51.000000	36.000000
26.410603	26.674318	53.000000	27.000000
26.674318	27.729178	74.000000	50.000000
26.674318	26.938033	56.000000	30.000000
26.938033	27.201748	53.000000	27.000000
27.201748	27.465463	51.000000	32.000000
27.465463	27.729178	53.000000	27.000000
27.729178	27.984618	82.000000	54.000000
27.729178	27.984618	56.000000	30.000000
27.984618	28.240072	80.000000	51.000000
27.984618	28.240072	53.000000	27.000000
28.240072	28.495525	79.000000	54.000000
28.240072	28.495525	51.000000	32.000000
28.495525	28.750979	77.000000	52.000000
28.495525	28.750979	53.000000	27.000000
28.750979	29.006433	75.000000	52.000000
28.750979	29.006433	56.000000	30.000000
29.006433	29.261887	74.000000	49.000000
29.006433	29.261887	53.000000	27.000000
29.261887	29.349085	77.000000	54.000000
29.261887	29.523483	51.000000	33.000000
29.349085	29.436284	75.000000	52.000000
29.436284	29.523483	77.000000	54.000000
29.523483	30.046675	75.000000	53.000000
29.523483	29.785079	55.000000	27.000000
29.785079	30.046675	58.000000	30.000000
30.046675	30.177473	74.000000	45.000000
30.046675	30.308271	55.000000	27.000000
30.177473	30.308271	72.000000	44.000000
30.308271	30.831463	70.000000	45.000000
30.308271	30.569867	51.000000	29.000000
30.569867	30.831463	55.000000	27.000000
30.831463	31.342357	67.000000	45.000000
30.831463	31.342357	70.000000	45.000000
30.831463	31.086903	58.000000	30.000000
31.086903	31.342357	55.000000	27.000000
31.342357	31.853264	67.000000	50.000000
31.342357	31.853264	70.000000	50.000000
31.342357	31.597811	51.000000	29.000000
31.597811	31.853264	55.000000	27.000000
31.853264	32.376456	70.000000	45.000000
31.853264	32.376456	67.000000	45.000000
31.853264	32.114860	58.000000	30.000000
32.114860	32.376456	55.000000	27.000000
32.376456	33.946033	68.000000	56.000000
32.376456	32.899649	75.000000	56.000000
32.376456	32.638052	51.000000	35.000000
32.638052	32.899649	53.000000	29.000000
32.899649	33.946033	74.000000	46.000000
32.899649	33.161245	56.000000	30.000000
33.161245	33.422841	53.000000	29.000000
33.422841	33.684437	51.000000	32.000000
33.684437	33.946033	53.000000	27.000000
33.946033	34.199501	82.000000	53.000000
33.946033	34.199501	56.000000	27.000000
34.199501	34.452970	80.000000	50.000000
34.199501	34.452970	53.000000	27.000000
34.452970	34.706426	79.000000	53.000000
34.452970	34.706426	51.000000	32.000000
34.706426	34.959895	77.000000	50.000000
34.706426	34.959895	53.000000	27.000000
34.959895	35.213364	75.000000	52.000000
34.959895	35.213364	56.000000	27.000000
35.213364	35.466833	74.000000	50.000000
35.213364	35.466833	53.000000	27.000000
35.466833	35.720302	75.000000	53.000000
35.466833	36.480695	55.000000	27.000000
35.466833	36.480695	51.000000	27.000000
35.720302	35.804791	77.000000	43.000000
35.804791	35.889281	75.000000	43.000000
35.889281	35.973770	74.000000	43.000000
35.973770	36.100492	75.000000	43.000000
36.100492	36.227226	77.000000	44.000000
36.227226	36.353960	79.000000	45.000000
36.353960	36.480695	75.000000	44.000000
36.480695	36.734164	70.000000	43.000000
36.987633	37.532591	70.000000	48.000000
36.987633	37.532591	67.000000	48.000000
36.987633	37.532591	58.000000	32.000000
36.987633	37.532591	55.000000	32.000000
37.532591	38.101313	65.000000	45.000000
37.532591	38.101313	68.000000	45.000000
37.532591	38.101313	56.000000	34.000000
37.532591	38.101313	60.000000	34.000000
38.101313	38.724109	63.000000	49.000000
38.101313	38.724109	67.000000	49.000000
38.101313	38.724109	57.000000	35.000000
38.101313	38.724109	60.000000	35.000000
38.724109	39.861541	63.000000	53.000000
38.724109	39.577187	70.000000	53.000000
38.724109	39.861541	58.000000	37.000000
39.577187	39.861541	67.000000	39.000000
39.861541	40.974471	62.000000	35.000000
39.861541	40.974471	65.000000	35.000000
40.430264	40.974471	58.000000	46.000000
40.974471	41.512697	53.000000	46.000000
41.512697	42.045853	50.000000	46.000000
41.912923	42.045853	65.000000	67.000000
42.045853	43.628143	77.000000	72.000000
42.045853	42.573283	46.000000	53.000000
42.573283	43.100713	50.000000	45.000000
43.100713	43.628143	53.000000	47.000000
43.628143	43.760000	75.000000	70.000000
43.628143	44.155573	58.000000	45.000000
43.760000	43.891858	74.000000	62.000000
43.891858	44.023715	72.000000	65.000000
44.023715	44.155573	70.000000	63.000000
44.155573	44.683003	69.000000	71.000000
44.155573	44.683003	63.000000	51.000000
44.683003	45.210433	70.000000	70.000000
44.683003	45.210433	62.000000	47.000000
45.210433	45.764644	72.000000	67.000000
45.210433	45.764644	69.000000	67.000000
45.210433	45.764644	63.000000	51.000000
45.210433	45.764644	60.000000	51.000000
45.764644	45.896502	75.000000	65.000000
45.764644	46.292074	70.000000	65.000000
45.764644	46.292074	62.000000	47.000000
45.764644	46.292074	58.000000	47.000000
45.896502	46.028359	74.000000	62.000000
46.028359	46.160217	72.000000	65.000000
46.160217	46.292074	74.000000	61.000000
46.292074	46.819518	72.000000	65.000000
46.292074	46.819518	75.000000	65.000000
46.292074	46.819518	60.000000	47.000000
46.292074	46.819518	57.000000	47.000000
46.819518	47.364476	65.000000	49.000000
47.364476	47.909434	65.000000	53.000000
47.909434	48.454392	65.000000	50.000000
48.454392	50.036682	75.000000	72.000000
48.981822	49.509252	53.000000	45.000000
49.509252	50.036682	57.000000	45.000000
50.036682	50.168539	77.000000	69.000000
50.036682	50.564112	60.000000	45.000000
50.168539	50.300397	75.000000	63.000000
50.300397	50.432254	74.000000	69.000000
50.432254	50.564112	72.000000	63.000000
50.564112	51.091542	70.000000	73.000000
50.564112	51.091542	62.000000	50.000000
51.091542	51.618972	69.000000	70.000000
51.091542	51.618972	72.000000	70.000000
51.091542	51.618972	63.000000	45.000000
51.091542	52.168517	65.000000	45.000000
51.618972	52.168517	74.000000	71.000000
51.618972	52.168517	70.000000	71.000000
51.618972	52.168517	62.000000	51.000000
52.168517	52.302520	77.000000	67.000000
52.168517	52.704529	72.000000	67.000000
52.168517	52.704529	60.000000	45.000000
52.168517	52.704529	63.000000	45.000000
52.302520	52.436523	75.000000	67.000000
52.436523	52.570526	74.000000	67.000000
52.570526	52.704529	75.000000	64.000000
52.704529	52.972536	74.000000	72.000000
52.704529	52.972536	77.000000	72.000000
52.704529	53.240529	62.000000	50.000000
52.704529	53.240529	58.000000	50.000000
53.240529	53.785487	46.000000	54.000000
53.785487	54.330445	46.000000	57.000000
54.330445	54.875404	46.000000	54.000000
54.875404	56.457693	80.000000	76.000000
55.402834	55.930263	50.000000	54.000000
55.930263	56.457693	53.000000	56.000000
56.457693	56.589551	79.000000	67.000000
56.457693	56.985123	56.000000	52.000000
56.589551	56.721408	77.000000	63.000000
56.721408	56.853266	75.000000	67.000000
56.853266	56.985123	74.000000	64.000000
56.985123	57.544096	75.000000	72.000000
56.985123	57.544096	55.000000	56.000000
57.544096	57.836041	77.000000	74.000000
57.544096	57.836041	50.000000	53.000000
58.127986	59.735985	78.000000	80.000000
58.663986	59.199986	58.000000	53.000000
58.663986	59.199986	51.000000	53.000000
59.199986	59.735985	58.000000	53.000000
59.199986	59.735985	51.000000	53.000000
59.735985	59.988086	80.000000	72.000000
59.735985	60.253571	59.000000	55.000000
59.735985	60.253571	51.000000	55.000000
59.988086	60.253571	79.000000	69.000000
60.253571	60.507805	77.000000	70.000000
60.253571	60.773290	51.000000	55.000000
60.253571	60.773290	60.000000	55.000000
60.507805	60.773290	75.000000	67.000000
60.773290	61.027523	74.000000	67.000000
60.773290	61.281757	57.000000	53.000000
60.773290	61.281757	51.000000	53.000000
61.027523	61.281757	72.000000	64.000000
61.281757	61.453405	77.000000	75.000000
61.281757	61.796701	58.000000	54.000000
61.281757	61.796701	50.000000	54.000000
61.453405	61.625053	76.000000	71.000000
61.625053	61.796701	77.000000	73.000000
61.796701	61.968349	79.000000	75.000000
61.796701	62.338172	51.000000	50.000000
61.796701	62.338172	58.000000	50.000000
61.968349	62.139997	67.000000	67.000000
62.139997	62.338172	75.000000	69.000000
62.338172	63.393032	70.000000	75.000000
62.338172	62.865602	53.000000	50.000000
62.338172	62.865602	62.000000	50.000000
62.865602	63.393032	62.000000	46.000000
62.865602	63.393032	53.000000	46.000000
63.393032	64.465018	69.000000	62.000000
63.393032	63.653904	74.000000	68.000000
63.393032	63.929139	63.000000	42.000000
63.393032	63.929139	53.000000	42.000000
63.653904	63.929139	72.000000	60.000000
63.929139	64.192291	70.000000	66.000000
63.929139	64.465018	63.000000	42.000000
63.929139	64.465018	53.000000	42.000000
64.192291	64.465018	72.000000	59.000000
64.465018	65.523405	70.000000	60.000000
64.465018	64.730503	62.000000	45.000000
64.465018	64.730503	58.000000	45.000000
64.730503	64.995988	58.000000	50.000000
64.995988	65.259703	62.000000	54.000000
65.259703	65.523405	65.000000	57.000000
65.523405	65.787120	63.000000	63.000000
65.787120	66.050835	65.000000	54.000000
66.050835	66.574738	70.000000	75.000000
66.050835	66.574738	77.000000	75.000000
66.050835	66.312444	62.000000	63.000000
66.312444	66.574738	65.000000	54.000000
66.574738	67.104313	77.000000	59.000000
66.574738	67.104313	72.000000	80.000000
66.574738	66.838453	60.000000	63.000000
66.838453	67.104313	65.000000	56.000000
67.104313	67.640353	74.000000	76.000000
67.104313	67.640353	77.000000	76.000000
67.104313	67.371609	58.000000	63.000000
67.371609	67.640353	65.000000	55.000000
67.640353	68.294343	77.000000	80.000000
67.640353	69.209929	75.000000	63.000000
67.640353	67.901949	57.000000	63.000000
67.901949	68.163545	60.000000	53.000000
68.163545	68.425141	63.000000	56.000000
68.294343	68.425141	79.000000	69.000000
68.425141	68.555939	77.000000	67.000000
68.425141	68.686737	62.000000	53.000000
68.555939	68.686737	76.000000	70.000000
68.686737	68.948333	77.000000	76.000000
68.686737	68.948333	60.000000	61.000000
68.948333	69.209929	58.000000	54.000000
69.209929	69.741651	69.000000	75.000000
69.209929	69.741651	77.000000	75.000000
69.209929	69.475790	57.000000	56.000000
69.475790	69.741651	55.000000	54.000000
69.741651	70.269081	70.000000	76.000000
69.741651	70.269081	79.000000	76.000000
69.741651	70.005366	53.000000	56.000000
70.005366	70.269081	55.000000	54.000000
70.269081	70.792273	72.000000	75.000000
70.269081	70.792273	81.000000	75.000000
70.269081	70.530677	51.000000	56.000000
70.530677	70.792273	53.000000	54.000000
70.792273	71.436620	82.000000	86.000000
70.792273	72.337749	70.000000	86.000000
70.792273	71.050422	50.000000	61.000000
71.050422	71.307887	53.000000	52.000000
71.307887	71.565353	58.000000	54.000000
71.436620	71.565353	84.000000	75.000000
71.565353	71.694085	86.000000	76.000000
71.565353	71.822818	53.000000	51.000000
71.694085	71.822818	82.000000	72.000000
71.822818	72.080284	77.000000	78.000000
71.822818	72.080284	62.000000	57.000000
72.337749	72.878188	74.000000	54.000000
72.337749	72.878188	77.000000	54.000000
72.337749	72.878188	58.000000	41.000000
72.337749	72.878188	62.000000	41.000000
72.878188	73.417178	72.000000	54.000000
72.878188	73.417178	75.000000	54.000000
72.878188	73.417178	60.000000	43.000000
72.878188	73.417178	63.000000	43.000000
73.417178	74.001068	70.000000	54.000000
73.417178	74.001068	74.000000	54.000000
73.417178	74.001068	65.000000	39.000000
73.417178	74.001068	62.000000	39.000000
74.001068	74.649855	72.000000	57.000000
74.001068	75.039111	67.000000	46.000000
74.001068	75.039111	63.000000	46.000000
74.649855	74.779607	74.000000	52.000000
74.779607	74.909359	75.000000	54.000000
74.909359	75.039111	72.000000	52.000000
75.039111	75.298628	79.000000	59.000000
75.558145	76.089867	67.000000	49.000000
75.558145	76.089867	72.000000	49.000000
75.558145	76.089867	60.000000	41.000000
75.558145	76.089867	51.000000	41.000000
76.089867	76.621588	65.000000	52.000000
76.089867	76.621588	70.000000	52.000000
76.089867	76.621588	62.000000	43.000000
76.089867	77.180561	53.000000	43.000000
76.621588	77.180561	69.000000	49.000000
76.621588	77.180561	72.000000	49.000000
76.621588	77.180561	63.000000	42.000000
77.180561	78.019020	72.000000	54.000000
77.180561	78.298506	69.000000	54.000000
77.180561	78.298506	63.000000	45.000000
77.180561	78.577993	58.000000	45.000000
78.019020	78.298506	73.000000	50.000000
78.298506	78.857479	70.000000	45.000000
78.298506	78.857479	74.000000	45.000000
78.298506	78.577993	62.000000	35.000000
78.577993	78.857479	58.000000	51.000000
78.857479	79.393479	70.000000	74.000000
78.857479	79.393479	77.000000	74.000000
78.857479	79.125472	62.000000	54.000000
79.125472	79.393479	65.000000	51.000000
79.393479	79.929478	72.000000	80.000000
79.393479	79.929478	77.000000	59.000000
79.393479	79.661472	63.000000	57.000000
79.661472	79.929478	62.000000	54.000000
79.929478	80.465491	77.000000	75.000000
79.929478	80.465491	74.000000	75.000000
79.929478	80.197485	60.000000	55.000000
80.197485	80.465491	58.000000	53.000000
80.465491	82.033016	75.000000	83.000000
80.465491	81.119481	77.000000	83.000000
80.465491	80.727087	57.000000	63.000000
80.727087	80.988683	60.000000	54.000000
80.988683	81.250279	63.000000	56.000000
81.119481	81.250279	79.000000	69.000000
81.250279	81.381077	77.000000	71.000000
81.250279	81.511875	62.000000	54.000000
81.381077	81.511875	76.000000	67.000000
81.511875	81.773471	77.000000	77.000000
81.511875	81.773471	60.000000	61.000000
81.773471	82.033016	58.000000	54.000000
82.033016	82.547397	69.000000	76.000000
82.033016	82.547397	77.000000	76.000000
82.033016	82.288469	57.000000	56.000000
82.288469	82.547397	55.000000	54.000000
82.547397	83.085663	79.000000	81.000000
82.547397	83.085663	70.000000	81.000000
82.547397	82.814692	53.000000	56.000000
82.814692	83.085663	55.000000	54.000000
83.085663	83.637581	72.000000	76.000000
83.085663	83.637581	81.000000	76.000000
83.085663	83.359677	51.000000	56.000000
83.359677	83.637581	53.000000	54.000000
83.637581	84.281929	82.000000	86.000000
83.637581	85.183058	70.000000	86.000000
83.637581	83.895730	50.000000	61.000000
83.895730	84.153196	53.000000	46.000000
84.153196	84.410661	58.000000	51.000000
84.281929	84.410661	84.000000	67.000000
84.410661	84.539394	86.000000	70.000000
84.410661	84.668127	53.000000	45.000000
84.539394	84.668127	82.000000	66.000000
84.668127	84.925592	77.000000	63.000000
84.668127	84.925592	62.000000	50.000000
85.183058	85.723496	74.000000	54.000000
85.183058	85.723496	77.000000	54.000000
85.183058	85.723496	58.000000	41.000000
85.183058	85.723496	62.000000	41.000000
85.723496	86.262486	72.000000	54.000000
85.723496	86.262486	75.000000	54.000000
85.723496	86.262486	60.000000	43.000000
85.723496	86.262486	63.000000	43.000000
86.262486	86.846377	70.000000	54.000000
86.262486	86.846377	74.000000	54.000000
86.262486	86.846377	65.000000	42.000000
86.262486	86.846377	62.000000	42.000000
86.846377	86.991914	71.000000	45.000000
86.846377	87.420142	63.000000	43.000000
86.846377	87.420142	67.000000	43.000000
86.991914	87.135761	72.000000	45.000000
87.135761	87.278776	74.000000	46.000000
87.278776	87.420142	72.000000	45.000000
87.420142	87.560690	75.000000	50.000000
87.560690	87.699642	74.000000	47.000000
87.699642	87.837802	77.000000	52.000000
87.837802	87.974421	75.000000	50.000000
87.974421	89.029267	79.000000	60.000000
89.029267	89.556697	77.000000	54.000000
89.029267	89.556697	57.000000	43.000000
89.029267	90.130422	63.000000	43.000000
89.029267	90.130422	53.000000	43.000000
89.556697	90.130422	60.000000	43.000000
89.986991	90.130422	69.000000	50.000000
90.130422	91.152237	70.000000	51.000000
90.130422	90.385876	58.000000	43.000000
90.385876	90.641330	62.000000	39.000000
90.641330	90.896783	65.000000	40.000000
90.896783	91.152237	62.000000	42.000000
91.152237	91.407691	58.000000	46.000000
91.407691	91.663145	62.000000	44.000000
91.663145	92.175393	80.000000	66.000000
91.663145	91.918598	65.000000	45.000000
91.918598	92.175393	62.000000	46.000000
92.175393	92.693757	79.000000	70.000000
92.175393	92.433543	63.000000	53.000000
92.433543	92.693757	60.000000	50.000000
92.693757	93.219068	81.000000	73.000000
92.693757	92.955353	65.000000	51.000000
92.955353	93.219068	63.000000	53.000000
93.219068	93.750790	84.000000	76.000000
93.219068	93.484929	62.000000	56.000000
93.484929	93.750790	65.000000	51.000000
93.750790	94.282511	82.000000	71.000000
93.750790	94.016650	62.000000	53.000000
94.016650	94.282511	60.000000	50.000000
94.282511	94.548372	58.000000	64.000000
94.548372	94.814233	56.000000	56.000000
94.814233	95.359969	68.000000	69.000000
94.814233	95.085954	53.000000	59.000000
95.085954	95.359969	50.000000	56.000000
95.359969	95.917372	67.000000	69.000000
95.359969	95.637081	51.000000	64.000000
95.637081	95.917372	48.000000	59.000000
95.917372	96.571403	63.000000	63.000000
95.917372	96.571403	69.000000	63.000000
95.917372	96.244387	53.000000	64.000000
96.244387	96.571403	41.000000	54.000000
96.571403	97.933791	72.000000	54.000000
96.571403	97.933791	63.000000	54.000000
96.571403	98.614992	46.000000	46.000000
97.933791	98.614992	70.000000	42.000000
97.933791	98.614992	62.000000	42.000000
98.614992	99.237788	62.000000	47.000000
98.614992	99.237788	65.000000	47.000000
98.614992	99.237788	56.000000	42.000000
99.237788	99.821679	63.000000	52.000000
99.237788	99.821679	67.000000	52.000000
99.237788	99.821679	55.000000	45.000000
99.821679	100.456598	65.000000	55.000000
99.821679	100.456598	68.000000	55.000000
99.821679	100.456598	53.000000	49.000000
100.458798	101.513657	70.000000	59.000000
100.458798	101.513657	67.000000	59.000000
100.458798	102.567284	51.000000	51.000000
101.511458	102.082742	65.000000	55.000000
101.511458	102.082742	68.000000	55.000000
102.038888	102.606806	63.000000	53.000000
102.038888	102.606806	67.000000	53.000000
102.565205	103.109868	68.000000	54.000000
102.565205	103.109868	72.000000	54.000000
103.064458	103.609416	67.000000	52.000000
103.064458	103.609416	70.000000	52.000000
103.609416	104.623279	67.000000	59.000000
103.609416	104.623279	70.000000	59.000000
103.609416	104.623279	51.000000	50.000000
104.623279	105.621785	65.000000	53.000000
104.623279	105.621785	68.000000	53.000000
104.623279	105.621785	53.000000	46.000000
105.621785	106.668169	63.000000	51.000000
105.621785	106.668169	67.000000	51.000000
105.621785	106.668169	55.000000	45.000000
106.668169	107.698031	64.000000	65.000000
106.668169	107.698031	58.000000	55.000000
106.668169	107.698031	61.000000	55.000000
107.698031	108.225461	65.000000	55.000000
107.698031	108.736355	56.000000	51.000000
107.698031	108.736355	60.000000	51.000000
108.225461	108.736355	72.000000	55.000000
108.736355	108.991809	70.000000	53.000000
108.991809	109.247262	68.000000	51.000000
109.247262	109.502716	67.000000	53.000000
109.502716	109.758170	65.000000	52.000000
109.758170	110.830196	55.000000	59.000000
109.758170	110.830196	63.000000	59.000000
109.758170	110.026176	45.000000	47.000000
110.026176	110.294183	46.000000	50.000000
110.294183	110.562189	48.000000	53.000000
110.562189	110.830196	46.000000	51.000000
110.830196	111.093911	53.000000	53.000000
110.830196	111.093911	62.000000	53.000000
110.830196	111.882226	46.000000	49.000000
111.225768	111.357626	58.000000	47.000000
111.357626	111.489483	62.000000	51.000000
111.489483	111.620630	60.000000	49.000000
111.620630	111.751428	63.000000	52.000000
111.751428	111.882226	62.000000	51.000000
111.882226	112.013024	65.000000	53.000000
112.013024	112.143822	63.000000	51.000000
112.143822	112.274271	67.000000	54.000000
112.274271	112.404023	65.000000	54.000000
112.404023	112.533775	68.000000	57.000000
112.533775	112.663527	67.000000	54.000000
112.663527	112.793279	70.000000	59.000000
112.793279	112.922360	68.000000	56.000000
112.922360	113.054218	72.000000	60.000000
112.922360	113.977220	39.000000	53.000000
112.922360	113.977220	51.000000	53.000000
113.054218	113.977220	67.000000	61.000000
113.054218	113.713505	70.000000	61.000000
113.713505	113.845363	72.000000	53.000000
113.845363	113.977220	70.000000	50.000000
113.977220	114.243081	68.000000	53.000000
114.243081	114.508942	67.000000	51.000000
114.508942	114.774803	65.000000	53.000000
114.774803	115.049582	63.000000	52.000000
115.049582	115.313297	79.000000	62.000000
115.049582	116.104441	51.000000	49.000000
115.049582	116.104441	60.000000	49.000000
115.313297	115.577012	74.000000	54.000000
115.577012	115.840726	75.000000	58.000000
115.840726	116.104441	72.000000	52.000000
116.104441	117.176441	70.000000	56.000000
116.104441	117.176441	53.000000	53.000000
116.104441	117.176441	60.000000	53.000000
117.176441	117.308298	70.000000	50.000000
117.176441	118.231300	62.000000	50.000000
117.176441	118.231300	58.000000	50.000000
117.275334	117.407191	68.000000	48.000000
117.374227	117.506084	70.000000	50.000000
117.473120	117.604977	68.000000	48.000000
117.572013	117.703871	70.000000	50.000000
117.670906	117.802764	68.000000	48.000000
117.769799	117.901657	70.000000	50.000000
117.868692	118.000550	68.000000	49.000000
117.967586	118.099443	67.000000	57.000000
118.099443	118.231300	68.000000	55.000000
118.231300	118.369850	67.000000	60.000000
118.231300	118.774260	63.000000	49.000000
118.231300	118.774260	60.000000	49.000000
118.508400	118.774260	75.000000	65.000000
118.774260	119.040121	74.000000	62.000000
119.040121	119.305982	73.000000	59.000000
119.305982	119.620377	71.000000	57.000000
119.305982	120.563013	44.000000	54.000000
119.305982	120.563013	56.000000	54.000000
119.541775	119.620377	74.000000	53.000000
119.620377	119.923159	72.000000	61.000000
119.847467	119.923159	70.000000	53.000000
119.923159	120.225940	68.000000	57.000000
120.150248	120.225940	67.000000	47.000000
120.225940	120.563013	65.000000	55.000000
120.563013	122.346603	63.000000	51.000000
120.563013	122.957852	46.000000	50.000000
120.563013	121.752078	55.000000	50.000000
121.752078	122.957852	56.000000	40.000000
122.346603	122.957852	62.000000	50.000000
122.346603	122.652228	67.000000	50.000000
122.652228	122.957852	65.000000	47.000000
122.957852	124.012712	63.000000	46.000000
122.957852	123.221567	51.000000	32.000000
123.221567	123.485282	55.000000	32.000000
123.485282	123.748997	58.000000	30.000000
123.748997	124.012712	55.000000	27.000000
124.012712	124.276427	51.000000	33.000000
124.276427	124.540142	55.000000	29.000000
124.540142	125.051049	67.000000	49.000000
124.540142	125.051049	70.000000	49.000000
124.540142	124.795596	58.000000	31.000000
124.795596	125.051049	55.000000	29.000000
125.051049	125.561957	67.000000	52.000000
125.051049	125.561957	70.000000	52.000000
125.051049	125.306503	51.000000	33.000000
125.306503	125.561957	55.000000	29.000000
125.561957	126.102395	67.000000	46.000000
125.561957	126.102395	70.000000	46.000000
125.561957	125.832176	58.000000	31.000000
125.832176	126.102395	55.000000	29.000000
126.102395	127.684672	68.000000	57.000000
126.102395	126.629812	75.000000	57.000000
126.102395	126.366097	51.000000	36.000000
126.366097	126.629812	53.000000	27.000000
126.629812	127.684672	74.000000	50.000000
126.629812	126.893527	56.000000	30.000000
126.893527	127.157242	53.000000	27.000000
127.157242	127.420957	51.000000	32.000000
127.420957	127.684672	53.000000	27.000000
127.684672	127.940112	82.000000	54.000000
127.684672	127.940112	56.000000	30.000000
127.940112	128.195566	80.000000	51.000000
127.940112	128.195566	53.000000	27.000000
128.195566	128.451020	79.000000	54.000000
128.195566	128.451020	51.000000	32.000000
128.451020	128.706473	77.000000	52.000000
128.451020	128.706473	53.000000	27.000000
128.706473	128.961927	75.000000	52.000000
128.706473	128.961927	56.000000	30.000000
128.961927	129.217381	74.000000	49.000000
128.961927	129.217381	53.000000	27.000000
129.217381	129.304580	77.000000	54.000000
129.217381	129.478977	51.000000	33.000000
129.304580	129.391778	75.000000	52.000000
129.391778	129.478977	77.000000	54.000000
129.478977	130.002169	75.000000	53.000000
129.478977	129.740573	55.000000	27.000000
129.740573	130.002169	58.000000	30.000000
130.002169	130.132967	74.000000	45.000000
130.002169	130.263765	55.000000	27.000000
130.132967	130.263765	72.000000	44.000000
130.263765	130.786957	70.000000	45.000000
130.263765	130.525361	51.000000	29.000000
130.525361	130.786957	55.000000	27.000000
130.786957	131.297851	67.000000	45.000000
130.786957	131.297851	70.000000	45.000000
130.786957	131.042397	58.000000	30.000000
131.042397	131.297851	55.000000	27.000000
131.297851	131.808759	67.000000	50.000000
131.297851	131.808759	70.000000	50.000000
131.297851	131.553305	51.000000	29.000000
131.553305	131.808759	55.000000	27.000000
131.808759	132.331951	67.000000	45.000000
131.808759	132.331951	70.000000	45.000000
131.808759	132.070355	58.000000	30.000000
132.070355	132.331951	55.000000	27.000000
132.331951	133.901527	68.000000	56.000000
132.331951	132.855143	75.000000	56.000000
132.331951	132.593547	51.000000	35.000000
132.593547	132.855143	53.000000	29.000000
132.855143	133.901527	74.000000	46.000000
132.855143	133.116739	56.000000	30.000000
133.116739	133.378335	53.000000	29.000000
133.378335	133.639931	51.000000	32.000000
133.639931	133.901527	53.000000	27.000000
133.901527	134.154996	82.000000	53.000000
133.901527	134.154996	56.000000	27.000000
134.154996	134.408465	80.000000	50.000000
134.154996	134.408465	53.000000	27.000000
134.408465	134.661920	79.000000	53.000000
134.408465	134.661920	51.000000	32.000000
134.661920	134.915389	77.000000	50.000000
134.661920	134.915389	53.000000	27.000000
134.915389	135.168858	75.000000	52.000000
134.915389	135.168858	56.000000	27.000000
135.168858	135.422327	74.000000	50.000000
135.168858	135.422327	53.000000	27.000000
135.422327	135.675796	75.000000	53.000000
135.422327	136.436189	51.000000	27.000000
135.422327	136.436189	55.000000	27.000000
135.675796	135.760285	77.000000	43.000000
135.760285	135.844775	75.000000	43.000000
135.844775	135.929265	74.000000	43.000000
135.929265	136.055986	75.000000	43.000000
136.055986	136.182720	77.000000	44.000000
136.182720	136.309455	79.000000	45.000000
136.309455	136.436189	75.000000	44.000000
136.436189	136.689658	70.000000	43.000000
136.943127	137.488085	67.000000	48.000000
136.943127	137.488085	70.000000	48.000000
136.943127	137.488085	55.000000	32.000000
136.943127	137.488085	58.000000	32.000000
137.488085	138.056808	65.000000	45.000000
137.488085	138.056808	68.000000	45.000000
137.488085	138.056808	60.000000	34.000000
137.488085	138.056808	56.000000	34.000000
138.056808	138.679604	63.000000	49.000000
138.056808	138.679604	67.000000	49.000000
138.056808	138.679604	57.000000	35.000000
138.056808	138.679604	60.000000	35.000000
138.679604	139.817035	63.000000	53.000000
138.679604	139.532681	70.000000	53.000000
138.679604	139.817035	58.000000	37.000000
139.532681	139.817035	67.000000	39.000000
139.817035	140.929965	62.000000	35.000000
139.817035	140.929965	65.000000	35.000000
140.385758	140.929965	58.000000	46.000000
140.929965	141.468191	53.000000	46.000000
141.468191	142.001347	50.000000	46.000000
141.868417	142.001347	65.000000	67.000000
142.001347	143.583637	77.000000	72.000000
142.001347	142.528777	46.000000	53.000000
142.528777	143.056207	50.000000	45.000000
143.056207	143.583637	53.000000	47.000000
143.583637	143.715495	75.000000	70.000000
143.583637	144.111067	58.000000	45.000000
143.715495	143.847352	74.000000	62.000000
143.847352	143.979210	72.000000	65.000000
143.979210	144.111067	70.000000	63.000000
144.111067	144.638497	69.000000	71.000000
144.111067	144.638497	63.000000	51.000000
144.638497	145.165927	70.000000	70.000000
144.638497	145.165927	62.000000	47.000000
145.165927	145.720139	69.000000	67.000000
145.165927	145.720139	72.000000	67.000000
145.165927	145.720139	63.000000	51.000000
145.165927	145.720139	60.000000	51.000000
145.720139	145.848335	75.000000	65.000000
145.720139	146.232964	70.000000	65.000000
145.720139	146.232964	62.000000	47.000000
145.720139	146.232964	58.000000	47.000000
145.848335	145.976545	74.000000	62.000000
145.976545	146.104754	72.000000	65.000000
146.104754	146.232964	74.000000	61.000000
146.232964	146.759281	72.000000	65.000000
146.232964	146.759281	75.000000	65.000000
146.232964	146.759281	57.000000	47.000000
146.232964	146.759281	60.000000	47.000000
146.759281	147.304239	65.000000	49.000000
147.304239	147.849197	65.000000	53.000000
147.849197	148.394155	65.000000	50.000000
148.394155	149.964831	75.000000	72.000000
148.921585	149.449015	53.000000	45.000000
149.449015	149.964831	57.000000	45.000000
149.964831	150.096407	77.000000	69.000000
149.964831	150.491134	60.000000	45.000000
150.096407	150.227983	75.000000	63.000000
150.227983	150.359559	74.000000	69.000000
150.359559	150.491134	72.000000	63.000000
150.491134	151.017451	70.000000	73.000000
150.491134	151.017451	62.000000	50.000000
151.017451	151.543768	69.000000	70.000000
151.017451	151.543768	72.000000	70.000000
151.017451	152.093313	65.000000	45.000000
151.017451	151.543768	63.000000	45.000000
151.543768	152.093313	70.000000	71.000000
151.543768	152.093313	74.000000	71.000000
151.543768	152.093313	62.000000	51.000000
152.093313	152.227316	77.000000	67.000000
152.093313	152.629326	72.000000	67.000000
152.093313	152.629326	60.000000	45.000000
152.093313	152.629326	63.000000	45.000000
152.227316	152.361319	75.000000	67.000000
152.361319	152.495323	74.000000	67.000000
152.495323	152.629326	75.000000	64.000000
152.629326	152.897332	74.000000	72.000000
152.629326	152.897332	77.000000	72.000000
152.629326	153.165325	58.000000	50.000000
152.629326	153.165325	62.000000	50.000000
153.165325	153.710284	46.000000	54.000000
153.710284	154.255242	46.000000	57.000000
154.255242	154.800200	46.000000	54.000000
154.800200	156.382490	80.000000	76.000000
155.327630	155.855060	50.000000	54.000000
155.855060	156.382490	53.000000	56.000000
156.382490	156.514347	79.000000	67.000000
156.382490	156.909920	56.000000	52.000000
156.514347	156.646205	77.000000	63.000000
156.646205	156.778062	75.000000	67.000000
156.778062	156.909920	74.000000	64.000000
156.909920	157.468892	75.000000	72.000000
156.909920	157.468892	55.000000	56.000000
157.468892	157.760838	77.000000	74.000000
157.468892	157.760838	50.000000	53.000000
158.052783	159.660782	78.000000	80.000000
158.588782	159.124782	51.000000	53.000000
158.588782	159.124782	58.000000	53.000000
159.124782	159.660782	51.000000	53.000000
159.124782	159.660782	58.000000	53.000000
159.660782	159.912883	80.000000	72.000000
159.660782	160.178368	59.000000	55.000000
159.660782	160.178368	51.000000	55.000000
159.912883	160.178368	79.000000	69.000000
160.178368	160.432601	77.000000	70.000000
160.178368	160.698086	51.000000	55.000000
160.178368	160.698086	60.000000	55.000000
160.432601	160.698086	75.000000	66.000000
160.698086	160.952320	74.000000	67.000000
160.698086	161.217805	51.000000	53.000000
160.698086	161.217805	57.000000	53.000000
160.952320	161.217805	72.000000	66.000000
161.217805	161.384477	77.000000	75.000000
161.217805	161.724220	50.000000	54.000000
161.217805	161.724220	58.000000	54.000000
161.384477	161.553282	76.000000	71.000000
161.553282	161.724220	77.000000	73.000000
161.724220	161.895157	79.000000	75.000000
161.724220	162.264269	51.000000	50.000000
161.724220	162.264269	58.000000	50.000000
161.895157	162.066094	67.000000	67.000000
162.066094	162.264269	75.000000	69.000000
162.264269	163.319129	70.000000	75.000000
162.264269	162.791699	53.000000	50.000000
162.264269	162.791699	62.000000	50.000000
162.791699	163.319129	53.000000	46.000000
162.791699	163.319129	62.000000	46.000000
163.319129	163.575535	74.000000	68.000000
163.319129	164.396842	69.000000	68.000000
163.319129	163.853318	53.000000	42.000000
163.319129	163.853318	63.000000	42.000000
163.575535	163.853318	72.000000	60.000000
163.853318	164.116470	70.000000	66.000000
163.853318	164.396842	53.000000	42.000000
163.853318	164.396842	63.000000	42.000000
164.116470	164.396842	72.000000	59.000000
164.396842	165.464791	70.000000	60.000000
164.396842	164.667101	58.000000	45.000000
164.396842	164.667101	62.000000	45.000000
164.667101	164.937374	58.000000	50.000000
164.937374	165.201089	62.000000	54.000000
165.201089	165.464791	65.000000	57.000000
165.464791	165.728506	63.000000	63.000000
165.728506	165.992221	65.000000	54.000000
165.992221	166.516123	70.000000	75.000000
165.992221	166.516123	77.000000	75.000000
165.992221	166.253830	62.000000	63.000000
166.253830	166.516123	65.000000	54.000000
166.516123	167.045699	72.000000	80.000000
166.516123	167.045699	77.000000	59.000000
166.516123	166.779838	60.000000	63.000000
166.779838	167.045699	65.000000	56.000000
167.045699	167.581739	74.000000	76.000000
167.045699	167.581739	77.000000	76.000000
167.045699	167.312995	58.000000	63.000000
167.312995	167.581739	65.000000	55.000000
167.581739	168.235729	77.000000	80.000000
167.581739	169.151315	75.000000	63.000000
167.581739	167.843335	57.000000	63.000000
167.843335	168.104931	60.000000	53.000000
168.104931	168.366527	63.000000	56.000000
168.235729	168.366527	79.000000	69.000000
168.366527	168.497325	77.000000	67.000000
168.366527	168.628123	62.000000	53.000000
168.497325	168.628123	76.000000	70.000000
168.628123	168.889719	77.000000	76.000000
168.628123	168.889719	60.000000	61.000000
168.889719	169.151315	58.000000	54.000000
169.151315	169.683036	69.000000	75.000000
169.151315	169.683036	77.000000	75.000000
169.151315	169.417176	57.000000	56.000000
169.417176	169.683036	55.000000	54.000000
169.683036	170.210466	70.000000	76.000000
169.683036	170.210466	79.000000	76.000000
169.683036	169.946751	53.000000	56.000000
169.946751	170.210466	55.000000	54.000000
170.210466	170.733658	72.000000	75.000000
170.210466	170.733658	81.000000	75.000000
170.210466	170.472062	51.000000	56.000000
170.472062	170.733658	53.000000	54.000000
170.733658	171.378006	82.000000	86.000000
170.733658	172.267481	70.000000	86.000000
170.733658	170.991808	50.000000	61.000000
170.991808	171.249273	53.000000	52.000000
171.249273	171.506739	58.000000	54.000000
171.378006	171.506739	84.000000	75.000000
171.506739	171.630710	86.000000	76.000000
171.506739	171.754669	53.000000	51.000000
171.630710	171.754669	82.000000	72.000000
171.754669	172.011075	77.000000	77.000000
171.754669	172.011075	62.000000	57.000000
172.267481	172.807919	74.000000	54.000000
172.267481	172.807919	77.000000	54.000000
172.267481	172.807919	58.000000	41.000000
172.267481	172.807919	62.000000	41.000000
172.807919	173.346909	72.000000	54.000000
172.807919	173.346909	75.000000	54.000000
172.807919	173.346909	60.000000	43.000000
172.807919	173.346909	63.000000	43.000000
173.346909	173.930800	70.000000	54.000000
173.346909	173.930800	74.000000	54.000000
173.346909	173.930800	62.000000	39.000000
173.346909	173.930800	65.000000	39.000000
173.930800	174.579586	72.000000	57.000000
173.930800	174.968842	63.000000	46.000000
173.930800	174.968842	67.000000	46.000000
174.579586	174.709338	74.000000	52.000000
174.709338	174.839090	75.000000	54.000000
174.839090	174.968842	72.000000	52.000000
174.968842	175.228360	79.000000	59.000000
175.487877	176.019598	67.000000	49.000000
175.487877	176.019598	72.000000	49.000000
175.487877	176.019598	51.000000	41.000000
175.487877	176.019598	60.000000	41.000000
176.019598	176.551320	65.000000	52.000000
176.019598	176.551320	70.000000	52.000000
176.019598	177.110293	53.000000	43.000000
176.019598	176.551320	62.000000	43.000000
176.551320	177.110293	69.000000	49.000000
176.551320	177.110293	72.000000	49.000000
176.551320	177.110293	63.000000	42.000000
177.110293	178.228238	69.000000	54.000000
177.110293	177.948752	72.000000	54.000000
177.110293	178.507724	58.000000	45.000000
177.110293	178.228238	63.000000	45.000000
177.948752	178.228238	73.000000	50.000000
178.228238	178.787211	70.000000	45.000000
178.228238	178.787211	74.000000	45.000000
178.228238	178.507724	62.000000	35.000000
178.507724	178.787211	58.000000	51.000000
178.787211	179.323210	70.000000	74.000000
178.787211	179.323210	77.000000	74.000000
178.787211	179.055204	62.000000	54.000000
179.055204	179.323210	65.000000	51.000000
179.323210	179.859210	72.000000	80.000000
179.323210	179.859210	77.000000	59.000000
179.323210	179.591203	63.000000	57.000000
179.591203	179.859210	62.000000	54.000000
179.859210	180.395223	74.000000	75.000000
179.859210	180.395223	77.000000	75.000000
179.859210	180.127216	60.000000	55.000000
180.127216	180.395223	58.000000	53.000000
180.395223	181.049213	77.000000	83.000000
180.395223	181.962747	75.000000	83.000000
180.395223	180.656819	57.000000	63.000000
180.656819	180.918415	60.000000	54.000000
180.918415	181.180011	63.000000	56.000000
181.049213	181.180011	79.000000	69.000000
181.180011	181.310809	77.000000	71.000000
181.180011	181.441607	62.000000	54.000000
181.310809	181.441607	76.000000	67.000000
181.441607	181.703203	77.000000	78.000000
181.441607	181.703203	60.000000	61.000000
181.703203	181.962747	58.000000	54.000000
181.962747	182.477128	69.000000	76.000000
181.962747	182.477128	77.000000	76.000000
181.962747	182.218201	57.000000	56.000000
182.218201	182.477128	55.000000	54.000000
182.477128	183.015394	70.000000	81.000000
182.477128	183.015394	79.000000	81.000000
182.477128	182.744424	53.000000	56.000000
182.744424	183.015394	55.000000	54.000000
183.015394	183.567313	72.000000	76.000000
183.015394	183.567313	81.000000	76.000000
183.015394	183.289409	51.000000	56.000000
183.289409	183.567313	53.000000	54.000000
183.567313	184.211660	82.000000	86.000000
183.567313	185.104327	70.000000	86.000000
183.567313	183.825462	50.000000	61.000000
183.825462	184.082927	53.000000	46.000000
184.082927	184.340393	58.000000	51.000000
184.211660	184.340393	84.000000	67.000000
184.340393	184.467543	86.000000	70.000000
184.340393	184.591515	53.000000	45.000000
184.467543	184.591515	82.000000	66.000000
184.591515	184.847921	77.000000	63.000000
184.591515	184.847921	62.000000	50.000000
185.104327	185.644765	74.000000	54.000000
185.104327	185.644765	77.000000	54.000000
185.104327	185.644765	58.000000	41.000000
185.104327	185.644765	62.000000	41.000000
185.644765	186.183756	72.000000	54.000000
185.644765	186.183756	75.000000	54.000000
185.644765	186.183756	60.000000	43.000000
185.644765	186.183756	63.000000	43.000000
186.183756	186.767646	70.000000	54.000000
186.183756	186.767646	74.000000	54.000000
186.183756	186.767646	62.000000	42.000000
186.183756	186.767646	65.000000	42.000000
186.767646	186.913183	71.000000	45.000000
186.767646	187.341411	63.000000	43.000000
186.767646	187.341411	67.000000	43.000000
186.913183	187.057030	72.000000	45.000000
187.057030	187.200045	74.000000	46.000000
187.200045	187.341411	72.000000	45.000000
187.341411	187.481959	75.000000	50.000000
187.481959	187.620911	74.000000	47.000000
187.620911	187.759072	77.000000	52.000000
187.759072	187.895690	75.000000	50.000000
187.895690	188.950536	79.000000	60.000000
188.950536	189.477966	77.000000	54.000000
188.950536	189.477966	57.000000	43.000000
188.950536	190.051691	53.000000	43.000000
188.950536	190.051691	63.000000	43.000000
189.477966	190.051691	60.000000	43.000000
189.908260	190.051691	69.000000	50.000000
190.051691	191.073506	70.000000	51.000000
190.051691	190.307145	58.000000	43.000000
190.307145	190.562599	62.000000	39.000000
190.562599	190.818053	65.000000	40.000000
190.818053	191.073506	62.000000	42.000000
191.073506	191.328960	58.000000	46.000000
191.328960	191.584414	62.000000	44.000000
191.584414	192.096662	80.000000	66.000000
191.584414	191.839868	65.000000	45.000000
191.839868	192.096662	62.000000	46.000000
192.096662	192.615026	79.000000	70.000000
192.096662	192.354812	63.000000	53.000000
192.354812	192.615026	60.000000	50.000000
192.615026	193.140337	81.000000	72.000000
192.615026	192.876622	65.000000	51.000000
192.876622	193.140337	63.000000	53.000000
193.140337	193.672059	84.000000	76.000000
193.140337	193.406198	62.000000	56.000000
193.406198	193.672059	65.000000	51.000000
193.672059	194.203780	82.000000	71.000000
193.672059	193.937920	62.000000	53.000000
193.937920	194.203780	60.000000	50.000000
194.203780	194.469641	58.000000	64.000000
194.469641	194.735502	56.000000	56.000000
194.735502	195.281238	68.000000	69.000000
194.735502	195.007223	53.000000	59.000000
195.007223	195.281238	50.000000	56.000000
195.281238	195.838641	67.000000	69.000000
195.281238	195.558350	51.000000	64.000000
195.558350	195.838641	48.000000	59.000000
195.838641	196.492672	63.000000	63.000000
195.838641	196.492672	69.000000	63.000000
195.838641	196.165657	53.000000	64.000000
196.165657	196.492672	41.000000	54.000000
196.492672	197.855060	72.000000	54.000000
196.492672	197.855060	63.000000	54.000000
196.492672	198.536262	46.000000	46.000000
197.855060	198.536262	62.000000	42.000000
197.855060	198.536262	70.000000	42.000000
198.536262	199.159057	62.000000	47.000000
198.536262	199.159057	65.000000	47.000000
198.536262	199.159057	56.000000	42.000000
199.159057	199.742948	63.000000	52.000000
199.159057	199.742948	67.000000	52.000000
199.159057	199.742948	55.000000	45.000000
199.742948	200.377867	65.000000	55.000000
199.742948	200.377867	68.000000	55.000000
199.742948	200.377867	53.000000	49.000000
200.377867	201.468776	66.000000	67.000000
200.377867	201.468776	69.000000	67.000000
200.377867	202.549653	52.000000	56.000000
201.468776	202.009215	67.000000	62.000000
201.468776	202.009215	70.000000	62.000000
202.009215	202.549653	70.000000	54.000000
202.009215	202.549653	73.000000	54.000000
202.549653	203.108626	64.000000	56.000000
202.549653	203.108626	67.000000	56.000000
202.549653	203.692517	48.000000	46.000000
203.108626	203.692517	68.000000	51.000000
203.108626	203.692517	72.000000	51.000000
203.692517	204.820118	67.000000	55.000000
203.692517	204.820118	70.000000	55.000000
203.692517	205.911349	50.000000	53.000000
204.820118	205.383919	65.000000	52.000000
204.820118	205.383919	68.000000	52.000000
205.383919	205.911349	77.000000	54.000000
205.911349	206.438779	77.000000	54.000000
205.911349	206.966209	60.000000	43.000000
205.911349	206.966209	56.000000	43.000000
206.438779	206.966209	77.000000	54.000000
206.966209	208.029665	78.000000	62.000000
206.966209	208.029665	58.000000	43.000000
206.966209	208.029665	61.000000	43.000000
208.029665	208.544596	79.000000	56.000000
208.544596	209.574457	82.000000	63.000000
209.059527	210.097649	60.000000	43.000000
209.059527	210.097649	70.000000	43.000000
209.574457	210.097649	76.000000	57.000000
210.097649	211.152496	79.000000	64.000000
210.097649	211.679926	65.000000	43.000000
210.097649	211.152496	70.000000	43.000000
211.152496	211.679926	77.000000	60.000000
211.152496	211.679926	68.000000	36.000000
211.679926	212.220364	41.000000	45.000000
212.220364	212.760803	41.000000	46.000000
212.760803	213.301242	41.000000	44.000000
213.301242	216.342667	41.000000	52.000000
213.841680	214.340934	80.000000	59.000000
214.340934	214.590554	79.000000	61.000000
214.590554	214.840173	77.000000	59.000000
214.840173	215.080178	75.000000	57.000000
215.080178	215.332279	73.000000	57.000000
215.332279	215.589744	72.000000	59.000000
215.589744	215.847210	73.000000	62.000000
215.847210	216.094939	77.000000	66.000000
216.094939	216.342667	73.000000	60.000000
216.342667	219.544409	62.000000	57.000000
216.342667	219.544409	68.000000	57.000000
216.342667	217.389052	72.000000	57.000000
216.342667	217.912244	41.000000	42.000000
217.389052	219.544409	71.000000	47.000000
217.912244	218.443965	41.000000	45.000000
218.443965	218.975687	41.000000	46.000000
218.975687	219.544409	41.000000	45.000000
219.544409	222.647941	42.000000	54.000000
220.076131	221.105992	63.000000	53.000000
220.076131	220.591061	72.000000	53.000000
220.591061	220.848527	71.000000	56.000000
220.848527	221.105992	72.000000	58.000000
221.105992	222.123945	63.000000	50.000000
221.105992	221.357503	74.000000	59.000000
221.357503	221.609014	72.000000	56.000000
221.609014	221.866479	71.000000	56.000000
221.866479	222.123945	72.000000	59.000000
222.123945	223.702788	63.000000	61.000000
222.123945	222.375456	75.000000	61.000000
222.375456	222.647941	74.000000	60.000000
222.647941	223.702788	71.000000	66.000000
222.647941	224.230218	43.000000	49.000000
223.702788	225.787322	63.000000	60.000000
223.702788	225.787322	72.000000	60.000000
224.230218	224.749252	43.000000	48.000000
224.749252	225.268287	43.000000	50.000000
225.268287	225.787322	43.000000	47.000000
225.787322	227.842110	44.000000	55.000000
226.306356	226.821287	63.000000	62.000000
226.306356	226.821287	72.000000	62.000000
226.821287	227.333200	63.000000	64.000000
226.821287	227.333200	72.000000	64.000000
227.333200	227.842110	63.000000	67.000000
227.333200	227.842110	72.000000	67.000000
227.842110	228.348055	63.000000	70.000000
227.842110	228.348055	72.000000	70.000000
227.842110	228.884055	45.000000	62.000000
228.348055	228.884055	63.000000	72.000000
228.348055	228.884055	72.000000	72.000000
228.884055	229.538045	73.000000	74.000000
228.884055	230.453631	63.000000	74.000000
228.884055	229.930439	46.000000	62.000000
229.538045	229.668843	72.000000	62.000000
229.668843	229.799641	70.000000	57.000000
229.799641	229.930439	68.000000	54.000000
229.930439	230.453631	67.000000	66.000000
229.930439	230.964525	49.000000	48.000000
230.453631	230.964525	79.000000	67.000000
230.964525	231.475419	80.000000	67.000000
230.964525	232.002849	48.000000	54.000000
231.475419	232.258303	72.000000	65.000000
232.002849	233.066480	49.000000	44.000000
232.258303	232.513756	70.000000	56.000000
232.513756	232.769210	73.000000	60.000000
232.769210	233.066480	77.000000	55.000000
233.066480	234.657822	68.000000	63.000000
233.066480	234.112864	51.000000	43.000000
233.066480	234.112864	60.000000	43.000000
234.112864	235.236536	51.000000	36.000000
234.112864	235.236536	61.000000	36.000000
234.657822	235.236536	67.000000	55.000000
234.657822	234.947179	72.000000	55.000000
234.947179	235.236536	70.000000	55.000000
235.236536	236.266397	68.000000	46.000000
235.236536	235.494001	56.000000	33.000000
235.494001	235.751466	60.000000	26.000000
235.751466	236.008932	63.000000	27.000000
236.008932	236.266397	60.000000	25.000000
236.266397	236.523863	56.000000	30.000000
236.523863	236.781328	60.000000	26.000000
236.781328	237.292236	68.000000	46.000000
236.781328	237.292236	72.000000	46.000000
236.781328	237.036782	63.000000	29.000000
237.036782	237.292236	60.000000	26.000000
237.292236	237.803143	68.000000	49.000000
237.292236	237.803143	72.000000	49.000000
237.292236	237.547689	56.000000	33.000000
237.547689	237.803143	60.000000	27.000000
237.803143	238.334865	68.000000	46.000000
237.803143	238.334865	72.000000	46.000000
237.803143	238.069004	63.000000	29.000000
238.069004	238.334865	60.000000	27.000000
238.334865	239.884109	70.000000	58.000000
238.334865	239.884109	72.000000	58.000000
238.334865	238.862294	77.000000	58.000000
238.334865	238.598580	55.000000	36.000000
238.598580	238.862294	58.000000	26.000000
238.862294	239.884109	76.000000	46.000000
238.862294	239.117748	60.000000	27.000000
239.117748	239.373202	58.000000	26.000000
239.373202	239.628656	55.000000	32.000000
239.628656	239.884109	58.000000	26.000000
239.884109	240.395004	70.000000	47.000000
239.884109	240.395004	72.000000	47.000000
239.884109	240.139550	60.000000	27.000000
240.139550	240.395004	58.000000	25.000000
240.395004	240.905911	70.000000	51.000000
240.395004	240.905911	72.000000	51.000000
240.395004	240.650457	55.000000	32.000000
240.650457	240.905911	58.000000	27.000000
240.905911	241.416819	70.000000	47.000000
240.905911	241.416819	72.000000	47.000000
240.905911	241.161365	60.000000	27.000000
241.161365	241.416819	58.000000	25.000000
241.416819	241.944249	79.000000	59.000000
241.416819	242.966064	68.000000	59.000000
241.416819	242.966064	72.000000	59.000000
241.416819	241.680534	53.000000	36.000000
241.680534	241.944249	56.000000	27.000000
241.944249	242.966064	77.000000	51.000000
241.944249	242.199702	60.000000	30.000000
242.199702	242.455156	56.000000	27.000000
242.455156	242.710610	53.000000	32.000000
242.710610	242.966064	56.000000	26.000000
242.966064	243.485098	68.000000	51.000000
242.966064	243.485098	72.000000	51.000000
242.966064	243.225581	60.000000	27.000000
243.225581	243.485098	56.000000	26.000000
243.485098	244.008290	68.000000	54.000000
243.485098	244.008290	72.000000	54.000000
243.485098	243.746694	53.000000	32.000000
243.746694	244.008290	56.000000	27.000000
244.008290	244.548729	68.000000	49.000000
244.008290	244.548729	72.000000	49.000000
244.008290	244.278509	60.000000	29.000000
244.278509	244.548729	56.000000	27.000000
244.548729	245.071921	80.000000	64.000000
244.548729	246.110044	68.000000	64.000000
244.548729	246.110044	72.000000	64.000000
244.548729	244.810325	51.000000	36.000000
244.810325	245.071921	54.000000	30.000000
245.071921	246.110044	78.000000	60.000000
245.071921	245.333517	56.000000	32.000000
245.333517	245.595113	54.000000	29.000000
245.595113	245.852578	51.000000	36.000000
245.852578	246.110044	54.000000	29.000000
246.110044	246.616968	68.000000	50.000000
246.110044	246.616968	72.000000	50.000000
246.110044	246.363499	56.000000	32.000000
246.363499	246.616968	54.000000	29.000000
246.616968	247.123906	68.000000	55.000000
246.616968	247.123906	72.000000	55.000000
246.616968	246.870437	51.000000	35.000000
246.870437	247.123906	54.000000	29.000000
247.123906	247.630844	68.000000	51.000000
247.123906	247.630844	72.000000	51.000000
247.123906	247.377375	56.000000	31.000000
247.377375	247.630844	54.000000	27.000000
247.630844	248.158274	78.000000	61.000000
247.630844	249.180075	68.000000	61.000000
247.630844	249.180075	73.000000	61.000000
247.630844	247.894559	49.000000	40.000000
247.894559	248.158274	52.000000	34.000000
248.158274	249.180075	76.000000	56.000000
248.158274	248.413714	56.000000	36.000000
248.413714	248.669168	52.000000	33.000000
248.669168	248.924622	49.000000	40.000000
248.924622	249.180075	52.000000	33.000000
249.180075	249.690983	68.000000	59.000000
249.180075	249.690983	76.000000	59.000000
249.180075	249.435529	56.000000	36.000000
249.435529	249.690983	52.000000	33.000000
249.690983	250.210004	68.000000	64.000000
249.690983	250.210004	76.000000	64.000000
249.690983	249.950500	47.000000	39.000000
249.950500	250.210004	51.000000	34.000000
250.210004	250.750443	68.000000	59.000000
250.210004	250.750443	75.000000	59.000000
250.210004	250.480223	56.000000	36.000000
250.480223	250.750443	51.000000	33.000000
250.750443	252.333510	68.000000	65.000000
250.750443	251.561114	75.000000	65.000000
250.750443	252.333510	46.000000	36.000000
250.750443	252.333510	53.000000	36.000000
251.561114	251.689847	77.000000	52.000000
251.689847	251.818579	75.000000	49.000000
251.818579	252.333510	74.000000	52.000000
252.333510	252.869510	62.000000	45.000000
252.333510	252.869510	68.000000	45.000000
252.333510	252.869510	46.000000	29.000000
252.333510	252.869510	53.000000	29.000000
252.869510	253.405509	62.000000	47.000000
252.869510	253.405509	68.000000	47.000000
252.869510	253.405509	46.000000	32.000000
252.869510	253.405509	53.000000	32.000000
253.405509	253.941509	62.000000	45.000000
253.405509	253.941509	68.000000	45.000000
253.405509	253.941509	46.000000	29.000000
253.405509	253.941509	53.000000	29.000000
253.941509	255.013508	62.000000	47.000000
253.941509	255.013508	68.000000	47.000000
253.941509	255.013508	46.000000	32.000000
253.941509	255.013508	53.000000	32.000000
255.549508	256.103733	74.000000	39.000000
255.549508	256.103733	80.000000	39.000000
255.549508	256.103733	65.000000	27.000000
255.549508	256.103733	58.000000	27.000000
256.103733	256.657958	74.000000	39.000000
256.103733	256.657958	80.000000	39.000000
256.103733	256.657958	65.000000	27.000000
256.103733	256.657958	58.000000	27.000000
256.657958	257.241849	74.000000	39.000000
256.657958	257.241849	80.000000	39.000000
256.657958	257.241849	65.000000	27.000000
256.657958	257.241849	58.000000	27.000000
257.241849	258.508053	74.000000	43.000000
257.241849	257.902491	80.000000	43.000000
257.241849	258.508053	58.000000	31.000000
257.241849	258.508053	65.000000	31.000000
257.902491	257.978183	82.000000	34.000000
257.978183	258.053875	80.000000	36.000000
258.053875	258.129567	79.000000	39.000000
258.129567	258.205259	80.000000	41.000000
258.205259	258.356656	82.000000	42.000000
258.356656	258.508053	84.000000	38.000000
258.508053	258.776060	82.000000	43.000000
258.776060	259.044066	80.000000	39.000000
259.044066	259.312073	79.000000	44.000000
259.312073	259.580079	77.000000	44.000000
259.580079	259.845940	75.000000	46.000000
259.845940	260.117675	74.000000	44.000000
260.117675	260.393259	72.000000	44.000000
260.393259	260.707654	70.000000	44.000000
260.709853	261.500998	70.000000	46.000000
260.709853	261.764660	67.000000	46.000000
260.709853	262.794575	51.000000	39.000000
261.498799	261.630656	72.000000	46.000000
261.630656	261.762514	70.000000	46.000000
261.762514	262.277445	65.000000	44.000000
261.762514	262.277445	68.000000	44.000000
262.277445	262.792375	63.000000	42.000000
262.277445	262.792375	67.000000	42.000000
262.792375	263.319805	68.000000	43.000000
262.792375	263.319805	72.000000	43.000000
263.319805	263.855805	67.000000	41.000000
263.319805	263.855805	70.000000	41.000000
263.855805	264.616212	70.000000	45.000000
263.855805	264.869681	67.000000	45.000000
263.855805	264.109274	51.000000	37.000000
264.109274	264.362743	55.000000	33.000000
264.362743	264.616212	58.000000	36.000000
264.616212	264.742946	72.000000	42.000000
264.616212	264.869681	51.000000	33.000000
264.742946	264.869681	70.000000	42.000000
264.869681	265.907750	68.000000	47.000000
264.869681	265.129198	53.000000	40.000000
265.129198	265.388715	56.000000	32.000000
265.388715	265.648232	62.000000	35.000000
265.648232	265.907750	53.000000	33.000000
265.907750	267.205336	67.000000	47.000000
265.907750	266.167267	55.000000	40.000000
266.167267	266.426784	58.000000	32.000000
266.426784	266.686302	63.000000	36.000000
266.686302	266.945819	55.000000	33.000000
266.945819	270.030294	56.000000	41.000000
266.945819	270.030294	60.000000	41.000000
267.205336	267.464854	64.000000	44.000000
267.464854	267.724022	65.000000	45.000000
267.724022	267.981488	67.000000	46.000000
267.981488	268.237947	68.000000	49.000000
268.237947	268.493401	69.000000	51.000000
268.493401	268.747527	70.000000	52.000000
268.747527	269.000996	71.000000	54.000000
269.000996	269.127730	74.000000	56.000000
269.127730	269.254787	72.000000	54.000000
269.254787	269.382514	71.000000	52.000000
269.382514	269.510911	72.000000	54.000000
269.510911	269.639644	70.000000	52.000000
269.639644	269.769396	68.000000	49.000000
269.769396	269.899496	67.000000	51.000000
269.899496	270.030294	65.000000	50.000000
270.030294	271.085154	55.000000	54.000000
270.030294	271.085154	63.000000	54.000000
270.030294	270.294009	45.000000	44.000000
270.294009	270.557724	46.000000	46.000000
270.557724	270.821439	48.000000	49.000000
270.821439	271.085154	46.000000	45.000000
271.085154	271.216301	53.000000	47.000000
271.085154	271.216301	62.000000	47.000000
271.085154	272.128051	46.000000	45.000000
271.216301	271.347099	58.000000	49.000000
271.347099	271.477897	57.000000	50.000000
271.477897	271.608695	58.000000	51.000000
271.608695	271.738795	59.000000	52.000000
271.738795	271.868547	60.000000	53.000000
271.868547	271.998299	61.000000	54.000000
271.998299	272.128051	62.000000	54.000000
272.128051	272.257133	63.000000	55.000000
272.257133	272.385865	64.000000	56.000000
272.385865	272.514598	65.000000	57.000000
272.514598	272.643331	66.000000	59.000000
272.643331	272.771393	67.000000	60.000000
272.771393	272.899120	68.000000	61.000000
272.899120	273.033123	69.000000	62.000000
273.033123	273.167126	70.000000	63.000000
273.167126	274.197055	67.000000	63.000000
273.167126	273.941601	70.000000	63.000000
273.167126	274.197055	39.000000	45.000000
273.167126	274.197055	51.000000	45.000000
273.941601	274.069328	72.000000	57.000000
274.069328	274.197055	70.000000	53.000000
274.197055	274.324111	68.000000	55.000000
274.324111	274.451503	67.000000	54.000000
274.451503	274.579900	72.000000	56.000000
274.579900	274.709652	70.000000	53.000000
274.709652	274.840450	75.000000	57.000000
274.840450	274.971248	74.000000	55.000000
274.971248	275.102046	77.000000	61.000000
275.102046	275.232844	75.000000	55.000000
275.232844	275.364702	80.000000	63.000000
275.232844	276.287704	51.000000	53.000000
275.232844	276.287704	60.000000	53.000000
275.364702	275.496559	79.000000	59.000000
275.496559	275.628417	78.000000	61.000000
275.628417	275.760274	79.000000	61.000000
275.760274	275.892132	77.000000	61.000000
275.892132	276.023989	75.000000	59.000000
276.023989	276.155847	74.000000	57.000000
276.155847	276.287704	72.000000	55.000000
276.287704	276.815134	70.000000	60.000000
276.287704	277.342564	53.000000	51.000000
276.287704	277.342564	60.000000	51.000000
276.815134	277.869994	69.000000	63.000000
277.342564	277.869994	58.000000	46.000000
277.342564	278.397424	62.000000	46.000000
277.869994	278.661139	68.000000	63.000000
277.869994	278.397424	59.000000	40.000000
278.397424	279.961300	63.000000	47.000000
278.397424	278.916593	60.000000	47.000000
278.661139	278.916593	67.000000	66.000000
278.916593	279.172046	75.000000	68.000000
278.916593	279.442266	55.000000	45.000000
279.172046	279.442266	73.000000	64.000000
279.442266	279.701783	71.000000	67.000000
279.442266	279.961300	56.000000	50.000000
279.701783	279.961300	72.000000	64.000000
279.961300	280.212811	74.000000	69.000000
280.212811	280.464322	75.000000	64.000000
280.464322	280.996044	75.000000	70.000000
280.464322	282.540836	46.000000	51.000000
280.464322	281.510974	55.000000	51.000000
280.996044	281.768440	70.000000	66.000000
281.510974	282.540836	56.000000	37.000000
281.768440	281.897173	72.000000	54.000000
281.897173	282.025905	70.000000	50.000000
282.025905	282.154638	70.000000	53.000000
282.154638	282.283371	68.000000	45.000000
282.283371	282.412103	67.000000	51.000000
282.412103	282.540836	65.000000	45.000000
282.540836	283.595683	63.000000	46.000000
282.540836	282.804551	51.000000	30.000000
282.804551	283.068253	55.000000	26.000000
283.068253	283.331968	58.000000	27.000000
283.331968	283.595683	55.000000	27.000000
283.595683	283.859397	51.000000	30.000000
283.859397	284.123099	55.000000	27.000000
284.123099	284.633993	67.000000	46.000000
284.123099	284.633993	70.000000	46.000000
284.123099	284.378539	58.000000	29.000000
284.378539	284.633993	55.000000	27.000000
284.633993	285.144901	67.000000	50.000000
284.633993	285.144901	70.000000	50.000000
284.633993	284.889447	51.000000	33.000000
284.889447	285.144901	55.000000	27.000000
285.144901	285.685339	67.000000	46.000000
285.144901	285.685339	70.000000	46.000000
285.144901	285.415120	58.000000	29.000000
285.415120	285.685339	55.000000	27.000000
285.685339	287.267629	68.000000	54.000000
285.685339	286.212769	75.000000	54.000000
285.685339	285.949054	51.000000	36.000000
285.949054	286.212769	53.000000	27.000000
286.212769	287.267629	74.000000	46.000000
286.212769	286.476484	56.000000	30.000000
286.476484	286.740199	53.000000	27.000000
286.740199	287.003914	51.000000	32.000000
287.003914	287.267629	53.000000	27.000000
287.267629	287.523083	82.000000	50.000000
287.267629	287.523083	56.000000	27.000000
287.523083	287.778523	80.000000	47.000000
287.523083	287.778523	53.000000	26.000000
287.778523	288.033977	79.000000	52.000000
287.778523	288.033977	51.000000	32.000000
288.033977	288.289431	77.000000	47.000000
288.033977	288.289431	53.000000	27.000000
288.289431	288.544884	75.000000	49.000000
288.289431	288.544884	56.000000	27.000000
288.544884	288.800338	74.000000	45.000000
288.544884	288.800338	53.000000	27.000000
288.800338	288.887537	77.000000	54.000000
288.800338	289.061934	51.000000	33.000000
288.887537	288.974735	75.000000	52.000000
288.974735	289.061934	77.000000	54.000000
289.061934	289.585126	75.000000	52.000000
289.061934	289.323530	55.000000	26.000000
289.323530	289.585126	58.000000	27.000000
289.585126	289.715924	74.000000	49.000000
289.585126	289.846722	55.000000	26.000000
289.715924	289.846722	72.000000	45.000000
289.846722	290.369914	70.000000	50.000000
289.846722	290.108318	51.000000	31.000000
290.108318	290.369914	55.000000	26.000000
290.369914	290.880822	67.000000	49.000000
290.369914	290.880822	70.000000	49.000000
290.369914	290.625368	58.000000	27.000000
290.625368	290.880822	55.000000	26.000000
290.880822	291.391729	67.000000	53.000000
290.880822	291.391729	70.000000	53.000000
290.880822	291.136275	51.000000	33.000000
291.136275	291.391729	55.000000	27.000000
291.391729	291.914921	67.000000	49.000000
291.391729	291.914921	70.000000	49.000000
291.391729	291.653325	58.000000	30.000000
291.653325	291.914921	55.000000	27.000000
291.914921	292.438113	68.000000	62.000000
291.914921	292.176517	75.000000	62.000000
291.914921	292.176517	51.000000	36.000000
292.176517	292.438113	74.000000	55.000000
292.176517	292.438113	53.000000	25.000000
292.438113	293.484497	84.000000	60.000000
292.438113	292.699709	56.000000	27.000000
292.699709	292.961305	53.000000	24.000000
292.961305	293.222901	51.000000	29.000000
293.222901	293.484497	53.000000	23.000000
293.484497	293.611232	82.000000	50.000000
293.484497	293.737966	56.000000	27.000000
293.611232	293.737966	80.000000	49.000000
293.737966	293.864701	84.000000	52.000000
293.737966	293.991435	53.000000	23.000000
293.864701	293.991435	80.000000	49.000000
293.991435	294.118170	79.000000	51.000000
293.991435	294.244904	51.000000	30.000000
294.118170	294.244904	77.000000	49.000000
294.244904	294.371639	80.000000	51.000000
294.244904	294.498373	53.000000	26.000000
294.371639	294.498373	77.000000	49.000000
294.498373	294.625107	75.000000	51.000000
294.498373	294.751842	56.000000	26.000000
294.625107	294.751842	74.000000	49.000000
294.751842	294.878576	77.000000	52.000000
294.751842	295.005311	53.000000	25.000000
294.878576	295.005311	74.000000	49.000000
295.005311	295.132045	75.000000	54.000000
295.005311	296.021547	51.000000	27.000000
295.005311	296.021547	55.000000	27.000000
295.132045	295.258780	77.000000	52.000000
295.258780	295.385514	75.000000	52.000000
295.385514	295.512249	74.000000	52.000000
295.512249	295.596081	75.000000	50.000000
295.596081	295.680249	76.000000	47.000000
295.680249	295.764739	77.000000	50.000000
295.764739	295.892465	78.000000	53.000000
295.892465	296.021547	79.000000	54.000000
296.021547	296.528471	70.000000	50.000000
296.528471	297.073429	67.000000	45.000000
296.528471	297.073429	70.000000	45.000000
296.528471	297.073429	55.000000	32.000000
297.073429	297.642152	65.000000	47.000000
297.073429	297.642152	68.000000	47.000000
297.073429	297.642152	56.000000	34.000000
297.642152	298.236677	63.000000	51.000000
297.642152	298.236677	67.000000	51.000000
297.642152	298.236677	57.000000	35.000000
298.236677	299.319057	63.000000	58.000000
298.236677	298.498984	70.000000	58.000000
298.236677	299.603411	58.000000	37.000000
298.498984	298.764845	69.000000	49.000000
298.764845	299.034702	70.000000	53.000000
299.034702	299.319057	67.000000	42.000000
299.319057	300.394556	62.000000	38.000000
299.319057	300.394556	65.000000	38.000000
299.603411	299.867126	59.000000	41.000000
299.867126	300.130841	60.000000	45.000000
300.130841	300.394556	58.000000	43.000000
300.394556	300.658271	58.000000	45.000000
300.658271	300.921986	56.000000	44.000000
300.921986	301.186412	55.000000	45.000000
301.186412	301.452273	53.000000	45.000000
301.319342	301.452273	70.000000	67.000000
301.452273	303.034549	82.000000	73.000000
301.452273	301.979689	51.000000	53.000000
301.979689	302.507119	55.000000	45.000000
302.507119	303.034549	58.000000	47.000000
303.034549	303.166407	80.000000	70.000000
303.034549	303.561979	63.000000	45.000000
303.166407	303.298264	79.000000	66.000000
303.298264	303.430121	77.000000	70.000000
303.430121	303.561979	75.000000	64.000000
303.561979	304.089409	74.000000	74.000000
303.561979	304.089409	68.000000	51.000000
304.089409	304.616825	75.000000	72.000000
304.089409	304.616825	67.000000	47.000000
304.616825	305.171051	74.000000	67.000000
304.616825	305.171051	77.000000	67.000000
304.616825	305.171051	68.000000	51.000000
304.616825	305.171051	65.000000	51.000000
305.171051	305.302908	80.000000	69.000000
305.171051	305.698481	75.000000	69.000000
305.171051	305.698481	67.000000	47.000000
305.171051	305.698481	63.000000	47.000000
305.302908	305.434766	79.000000	65.000000
305.434766	305.566623	77.000000	66.000000
305.566623	305.698481	79.000000	65.000000
305.698481	306.225897	77.000000	70.000000
305.698481	306.225897	80.000000	70.000000
305.698481	306.225897	62.000000	47.000000
305.698481	306.225897	65.000000	47.000000
306.225897	306.770855	70.000000	57.000000
306.770855	307.315813	70.000000	59.000000
307.315813	307.860772	70.000000	59.000000
307.860772	309.443061	80.000000	72.000000
308.388201	308.915631	58.000000	45.000000
308.915631	309.443061	62.000000	45.000000
309.443061	309.574919	82.000000	69.000000
309.443061	309.970478	65.000000	45.000000
309.574919	309.706763	80.000000	65.000000
309.706763	309.838620	79.000000	69.000000
309.838620	309.970478	77.000000	64.000000
309.970478	310.497908	75.000000	73.000000
309.970478	310.497908	67.000000	50.000000
310.497908	311.025338	74.000000	70.000000
310.497908	311.025338	77.000000	70.000000
310.497908	311.574882	70.000000	45.000000
310.497908	311.025338	68.000000	45.000000
311.025338	311.574882	75.000000	71.000000
311.025338	311.574882	79.000000	71.000000
311.025338	311.574882	67.000000	51.000000
311.574882	311.708886	82.000000	67.000000
311.574882	312.110895	77.000000	67.000000
311.574882	312.110895	65.000000	45.000000
311.574882	312.110895	68.000000	45.000000
311.708886	311.842889	80.000000	63.000000
311.842889	311.976892	79.000000	67.000000
311.976892	312.110895	80.000000	64.000000
312.110895	312.378889	79.000000	72.000000
312.110895	312.378889	82.000000	72.000000
312.110895	312.646895	63.000000	50.000000
312.110895	312.646895	67.000000	50.000000
312.646895	313.191853	39.000000	54.000000
312.646895	313.191853	51.000000	54.000000
313.191853	313.736811	39.000000	56.000000
313.191853	313.736811	51.000000	56.000000
313.736811	314.281770	39.000000	54.000000
313.736811	314.281770	51.000000	54.000000
314.281770	315.600344	73.000000	83.000000
314.809199	315.336629	63.000000	47.000000
314.809199	315.336629	55.000000	47.000000
315.336629	315.864059	55.000000	49.000000
315.336629	315.864059	63.000000	49.000000
315.600344	315.666273	75.000000	62.000000
315.666273	315.732202	73.000000	58.000000
315.732202	315.798131	72.000000	62.000000
315.798131	315.864059	73.000000	59.000000
315.864059	316.127774	75.000000	67.000000
315.864059	316.391489	55.000000	48.000000
315.864059	316.391489	63.000000	48.000000
316.127774	316.391489	77.000000	67.000000
316.391489	316.656277	75.000000	67.000000
316.391489	316.925021	55.000000	51.000000
316.391489	316.925021	63.000000	51.000000
316.656277	316.925021	73.000000	60.000000
316.925021	317.197118	72.000000	67.000000
316.925021	317.484825	55.000000	45.000000
316.925021	317.484825	63.000000	45.000000
317.197118	317.484825	71.000000	61.000000
317.484825	318.824831	71.000000	70.000000
318.020825	318.556825	55.000000	47.000000
318.020825	319.092838	63.000000	47.000000
318.556825	319.092838	56.000000	50.000000
318.824831	319.092838	72.000000	67.000000
319.092838	319.354434	75.000000	69.000000
319.092838	319.616030	63.000000	55.000000
319.092838	319.616030	56.000000	55.000000
319.354434	319.616030	74.000000	69.000000
319.616030	319.870263	77.000000	69.000000
319.616030	320.138122	56.000000	55.000000
319.616030	320.138122	63.000000	55.000000
319.870263	320.138122	75.000000	64.000000
320.138122	320.392355	74.000000	68.000000
320.138122	320.655507	56.000000	50.000000
320.138122	320.655507	63.000000	50.000000
320.392355	320.655507	72.000000	61.000000
320.655507	320.866731	70.000000	59.000000
320.655507	321.162445	55.000000	53.000000
320.655507	321.162445	63.000000	53.000000
320.824486	321.035710	71.000000	60.000000
320.993466	321.204690	72.000000	62.000000
321.162445	321.373669	73.000000	66.000000
321.162445	321.669383	56.000000	48.000000
321.162445	321.669383	63.000000	48.000000
321.331424	321.542648	74.000000	68.000000
321.500403	321.669383	75.000000	69.000000
321.669383	321.801240	75.000000	60.000000
321.669383	322.196813	46.000000	50.000000
321.669383	322.196813	55.000000	50.000000
321.801240	322.724242	63.000000	73.000000
322.196813	322.724242	46.000000	46.000000
322.196813	322.724242	55.000000	46.000000
322.724242	322.987394	67.000000	59.000000
322.724242	323.801016	62.000000	59.000000
322.724242	323.262629	46.000000	39.000000
322.724242	323.262629	56.000000	39.000000
322.987394	323.262629	65.000000	64.000000
323.262629	323.525781	63.000000	64.000000
323.262629	323.801016	46.000000	39.000000
323.262629	323.801016	56.000000	39.000000
323.525781	323.801016	65.000000	59.000000
323.801016	324.868992	63.000000	55.000000
323.801016	324.071289	51.000000	45.000000
323.801016	324.071289	55.000000	45.000000
324.071289	324.341562	51.000000	50.000000
324.341562	324.605277	55.000000	54.000000
324.605277	324.868992	58.000000	57.000000
324.868992	325.132707	56.000000	63.000000
325.132707	325.396422	58.000000	56.000000
325.396422	325.920311	63.000000	75.000000
325.396422	325.920311	70.000000	75.000000
325.396422	325.658018	55.000000	63.000000
325.658018	325.920311	58.000000	56.000000
325.920311	326.449887	65.000000	80.000000
325.920311	326.449887	70.000000	59.000000
325.920311	326.184026	53.000000	63.000000
326.184026	326.449887	58.000000	56.000000
326.449887	326.985913	67.000000	75.000000
326.449887	326.985913	70.000000	75.000000
326.449887	326.717169	51.000000	63.000000
326.717169	326.985913	58.000000	56.000000
326.985913	327.639903	70.000000	80.000000
326.985913	328.555489	68.000000	63.000000
326.985913	327.247509	50.000000	63.000000
327.247509	327.509105	53.000000	54.000000
327.509105	327.770701	56.000000	56.000000
327.639903	327.770701	72.000000	76.000000
327.770701	327.901499	70.000000	70.000000
327.770701	328.032297	55.000000	53.000000
327.901499	328.032297	69.000000	69.000000
328.032297	328.293893	70.000000	79.000000
328.032297	328.293893	53.000000	61.000000
328.293893	328.555489	51.000000	54.000000
328.555489	329.087211	62.000000	74.000000
328.555489	329.087211	70.000000	74.000000
328.555489	328.821350	50.000000	56.000000
328.821350	329.087211	48.000000	54.000000
329.087211	329.614641	63.000000	76.000000
329.087211	329.614641	72.000000	76.000000
329.087211	329.350926	46.000000	56.000000
329.350926	329.614641	48.000000	54.000000
329.614641	330.137833	65.000000	72.000000
329.614641	330.137833	74.000000	72.000000
329.614641	329.876237	44.000000	56.000000
329.876237	330.137833	46.000000	52.000000
330.137833	330.782180	75.000000	81.000000
330.137833	331.683309	63.000000	81.000000
330.137833	330.395982	43.000000	61.000000
330.395982	330.653448	46.000000	47.000000
330.653448	330.910913	51.000000	52.000000
330.782180	330.910913	77.000000	70.000000
330.910913	331.039646	79.000000	72.000000
330.910913	331.168378	46.000000	47.000000
331.039646	331.168378	75.000000	66.000000
331.168378	331.425844	70.000000	69.000000
331.168378	331.425844	55.000000	52.000000
331.683309	332.223748	67.000000	52.000000
331.683309	332.223748	70.000000	52.000000
331.683309	332.223748	51.000000	43.000000
331.683309	332.223748	55.000000	43.000000
332.223748	332.762738	65.000000	54.000000
332.223748	332.762738	68.000000	54.000000
332.223748	332.762738	53.000000	43.000000
332.223748	332.762738	56.000000	43.000000
332.762738	333.346629	63.000000	52.000000
332.762738	333.346629	67.000000	52.000000
332.762738	333.346629	55.000000	43.000000
332.762738	333.346629	58.000000	43.000000
333.346629	333.995415	65.000000	57.000000
333.346629	334.384671	56.000000	46.000000
333.346629	334.384671	60.000000	46.000000
333.995415	334.125167	67.000000	50.000000
334.125167	334.254919	68.000000	52.000000
334.254919	334.384671	65.000000	50.000000
334.384671	334.644188	72.000000	56.000000
334.903706	335.435427	60.000000	46.000000
334.903706	335.435427	65.000000	46.000000
334.903706	335.435427	44.000000	36.000000
334.903706	335.435427	53.000000	36.000000
335.435427	335.967148	58.000000	49.000000
335.435427	335.967148	63.000000	49.000000
335.435427	336.526121	46.000000	43.000000
335.435427	335.967148	55.000000	43.000000
335.967148	336.526121	62.000000	46.000000
335.967148	336.526121	65.000000	46.000000
335.967148	336.526121	56.000000	36.000000
336.526121	337.644067	62.000000	54.000000
336.526121	337.364580	65.000000	54.000000
336.526121	337.923553	51.000000	45.000000
336.526121	337.644067	56.000000	45.000000
337.364580	337.644067	66.000000	50.000000
337.644067	337.923553	63.000000	45.000000
337.644067	338.203039	67.000000	45.000000
337.644067	337.923553	55.000000	35.000000
337.923553	338.203039	63.000000	52.000000
338.203039	338.739039	75.000000	76.000000
338.203039	338.739039	82.000000	76.000000
338.203039	338.471032	67.000000	54.000000
338.471032	338.739039	70.000000	51.000000
338.739039	339.275039	77.000000	77.000000
338.739039	339.275039	82.000000	77.000000
338.739039	339.007032	68.000000	57.000000
339.007032	339.275039	67.000000	52.000000
339.275039	339.811052	79.000000	76.000000
339.275039	339.811052	82.000000	76.000000
339.275039	339.543045	65.000000	54.000000
339.543045	339.811052	63.000000	53.000000
339.811052	340.465042	82.000000	81.000000
339.811052	341.378576	80.000000	81.000000
339.811052	340.072648	62.000000	63.000000
340.072648	340.334244	65.000000	54.000000
340.334244	340.595840	68.000000	56.000000
340.465042	340.595840	84.000000	73.000000
340.595840	340.726638	82.000000	69.000000
340.595840	340.857436	67.000000	54.000000
340.726638	340.857436	81.000000	70.000000
340.857436	341.119032	82.000000	78.000000
340.857436	341.119032	65.000000	61.000000
341.119032	341.378576	63.000000	54.000000
341.378576	341.892943	74.000000	76.000000
341.378576	341.892943	82.000000	76.000000
341.378576	341.634016	62.000000	56.000000
341.634016	341.892943	60.000000	54.000000
341.892943	342.431196	75.000000	80.000000
341.892943	342.431196	84.000000	80.000000
341.892943	342.160226	58.000000	56.000000
342.160226	342.431196	60.000000	54.000000
342.431196	342.983101	77.000000	75.000000
342.431196	342.983101	86.000000	75.000000
342.431196	342.705197	56.000000	56.000000
342.705197	342.983101	58.000000	53.000000
342.983101	343.627462	87.000000	86.000000
342.983101	344.528591	75.000000	86.000000
342.983101	343.241250	55.000000	61.000000
343.241250	343.498716	58.000000	45.000000
343.498716	343.756195	60.000000	49.000000
343.627462	343.756195	86.000000	68.000000
343.756195	343.884927	87.000000	70.000000
343.756195	344.013660	62.000000	45.000000
343.884927	344.013660	82.000000	66.000000
344.013660	344.271125	79.000000	61.000000
344.013660	344.271125	63.000000	46.000000
344.528591	345.069030	79.000000	54.000000
344.528591	345.069030	82.000000	54.000000
344.528591	345.069030	63.000000	43.000000
344.528591	345.069030	67.000000	43.000000
345.069030	345.608020	77.000000	54.000000
345.069030	345.608020	80.000000	54.000000
345.069030	345.608020	65.000000	43.000000
345.069030	345.608020	68.000000	43.000000
345.608020	346.191910	75.000000	54.000000
345.608020	346.191910	79.000000	54.000000
345.608020	346.191910	67.000000	36.000000
345.608020	346.191910	70.000000	36.000000
346.191910	346.337447	76.000000	51.000000
346.191910	346.765675	68.000000	43.000000
346.191910	346.765675	72.000000	43.000000
346.337447	346.481294	77.000000	50.000000
346.481294	346.624309	79.000000	56.000000
346.624309	346.765675	77.000000	55.000000
346.765675	346.906223	80.000000	59.000000
346.906223	347.045175	79.000000	58.000000
347.045175	347.183336	82.000000	62.000000
347.183336	347.319954	80.000000	60.000000
347.319954	348.374801	84.000000	66.000000
348.374801	348.902231	82.000000	59.000000
348.374801	348.902231	62.000000	43.000000
348.374801	349.475955	58.000000	43.000000
348.374801	349.475955	68.000000	43.000000
348.902231	349.475955	65.000000	43.000000
349.332524	349.475955	74.000000	53.000000
349.475955	350.497770	75.000000	56.000000
349.475955	349.731409	63.000000	43.000000
349.731409	349.986863	67.000000	39.000000
349.986863	350.242317	70.000000	40.000000
350.242317	350.497770	67.000000	42.000000
350.497770	350.753224	63.000000	46.000000
350.753224	351.008678	67.000000	44.000000
351.008678	351.520913	85.000000	69.000000
351.008678	351.264118	70.000000	49.000000
351.264118	351.520913	67.000000	50.000000
351.520913	352.039277	84.000000	72.000000
351.520913	351.779063	68.000000	58.000000
351.779063	352.039277	65.000000	55.000000
352.039277	352.564588	86.000000	75.000000
352.039277	352.300873	70.000000	56.000000
352.300873	352.564588	68.000000	58.000000
352.564588	353.096310	89.000000	81.000000
352.564588	352.830449	67.000000	62.000000
352.830449	353.096310	70.000000	56.000000
353.096310	353.628031	87.000000	78.000000
353.096310	353.362170	67.000000	53.000000
353.362170	353.628031	65.000000	55.000000
353.628031	353.893892	63.000000	70.000000
353.893892	354.159753	61.000000	61.000000
354.159753	354.705489	73.000000	72.000000
354.159753	354.431474	58.000000	64.000000
354.431474	354.705489	55.000000	61.000000
354.705489	355.262892	72.000000	74.000000
354.705489	354.982601	56.000000	70.000000
354.982601	355.262892	53.000000	64.000000
355.262892	355.916923	68.000000	69.000000
355.262892	355.916923	74.000000	69.000000
355.262892	355.589907	58.000000	70.000000
355.589907	355.916923	46.000000	59.000000
355.916923	357.279325	77.000000	59.000000
355.916923	357.279325	68.000000	59.000000
355.916923	357.960526	51.000000	50.000000
357.279325	357.960526	67.000000	52.000000
357.279325	357.960526	75.000000	52.000000
357.960526	358.583322	62.000000	47.000000
357.960526	358.583322	65.000000	47.000000
357.960526	358.583322	56.000000	42.000000
358.583322	359.167212	63.000000	52.000000
358.583322	359.167212	67.000000	52.000000
358.583322	359.167212	55.000000	45.000000
359.167212	359.802132	65.000000	54.000000
359.167212	359.802132	68.000000	54.000000
359.167212	359.802132	53.000000	47.000000
359.802132	360.878556	66.000000	67.000000
359.802132	360.878556	69.000000	67.000000
359.802132	361.959434	52.000000	56.000000
360.878556	361.418995	67.000000	62.000000
360.878556	361.418995	70.000000	62.000000
361.418995	361.959434	70.000000	54.000000
361.418995	361.959434	73.000000	54.000000
361.959434	362.518406	64.000000	56.000000
361.959434	362.518406	67.000000	56.000000
361.959434	363.102297	48.000000	46.000000
362.518406	363.102297	68.000000	51.000000
362.518406	363.102297	72.000000	51.000000
363.102297	364.229898	67.000000	55.000000
363.102297	364.229898	70.000000	55.000000
363.102297	365.321129	50.000000	53.000000
364.229898	364.793699	65.000000	52.000000
364.229898	364.793699	68.000000	52.000000
364.793699	365.321129	77.000000	54.000000
365.321129	365.848559	77.000000	54.000000
365.321129	366.375989	60.000000	43.000000
365.321129	366.375989	56.000000	43.000000
365.848559	366.375989	77.000000	54.000000
366.375989	367.439445	78.000000	62.000000
366.375989	367.439445	58.000000	43.000000
366.375989	367.439445	61.000000	43.000000
367.439445	367.954376	79.000000	56.000000
367.954376	368.984238	82.000000	63.000000
368.469307	369.507430	60.000000	43.000000
368.469307	369.507430	70.000000	43.000000
368.984238	369.507430	76.000000	57.000000
369.507430	370.562276	79.000000	64.000000
369.507430	371.089706	65.000000	43.000000
369.507430	370.562276	70.000000	43.000000
370.562276	371.089706	77.000000	60.000000
370.562276	371.089706	68.000000	36.000000
371.089706	371.630145	41.000000	45.000000
371.630145	372.170583	41.000000	46.000000
372.170583	372.711022	41.000000	44.000000
372.711022	375.752448	41.000000	52.000000
373.251461	373.750714	80.000000	59.000000
373.750714	374.000334	79.000000	61.000000
374.000334	374.249954	77.000000	59.000000
374.249954	374.489958	75.000000	57.000000
374.489958	374.742059	73.000000	57.000000
374.742059	374.999524	72.000000	59.000000
374.999524	375.256990	73.000000	62.000000
375.256990	375.504719	77.000000	66.000000
375.504719	375.752448	73.000000	60.000000
375.752448	378.944694	62.000000	57.000000
375.752448	378.944694	68.000000	57.000000
375.752448	376.798832	72.000000	57.000000
375.752448	377.312529	41.000000	42.000000
376.798832	378.944694	71.000000	47.000000
377.312529	377.844250	41.000000	45.000000
377.844250	378.375972	41.000000	46.000000
378.375972	378.944694	41.000000	45.000000
378.944694	382.041763	42.000000	54.000000
379.476416	380.506277	63.000000	53.000000
379.476416	379.991347	72.000000	53.000000
379.991347	380.248812	71.000000	56.000000
380.248812	380.506277	72.000000	58.000000
380.506277	381.517766	63.000000	50.000000
380.506277	380.757788	74.000000	59.000000
380.757788	381.009299	72.000000	56.000000
381.009299	381.263533	71.000000	56.000000
381.263533	381.517766	72.000000	59.000000
381.517766	383.096609	63.000000	61.000000
381.517766	381.769277	75.000000	61.000000
381.769277	382.041763	74.000000	60.000000
382.041763	383.096609	71.000000	66.000000
382.041763	383.624039	43.000000	49.000000
383.096609	385.181143	63.000000	60.000000
383.096609	385.181143	72.000000	60.000000
383.624039	384.143074	43.000000	48.000000
384.143074	384.662108	43.000000	50.000000
384.662108	385.181143	43.000000	47.000000
385.181143	387.221098	44.000000	55.000000
385.685345	386.200276	63.000000	62.000000
385.685345	386.200276	72.000000	62.000000
386.200276	386.712189	63.000000	64.000000
386.200276	386.712189	72.000000	64.000000
386.712189	387.221098	63.000000	67.000000
386.712189	387.221098	72.000000	67.000000
387.221098	387.715711	63.000000	70.000000
387.221098	387.715711	72.000000	70.000000
387.221098	388.251711	45.000000	62.000000
387.715711	388.251711	63.000000	72.000000
387.715711	388.251711	72.000000	72.000000
388.251711	388.905701	73.000000	74.000000
388.251711	389.821287	63.000000	74.000000
388.251711	389.298095	46.000000	62.000000
388.905701	389.036499	72.000000	62.000000
389.036499	389.167297	70.000000	57.000000
389.167297	389.298095	68.000000	54.000000
389.298095	389.821287	67.000000	66.000000
389.298095	390.332181	49.000000	48.000000
389.821287	390.332181	79.000000	67.000000
390.332181	390.843075	80.000000	67.000000
390.332181	391.370505	48.000000	54.000000
390.843075	391.625959	72.000000	65.000000
391.370505	392.415038	49.000000	44.000000
391.625959	391.871864	70.000000	56.000000
391.871864	392.117769	73.000000	60.000000
392.117769	392.415038	77.000000	55.000000
392.415038	393.996886	68.000000	63.000000
392.415038	393.451927	51.000000	43.000000
392.415038	393.451927	60.000000	43.000000
393.451927	394.575599	51.000000	36.000000
393.451927	394.575599	61.000000	36.000000
393.996886	394.575599	67.000000	55.000000
393.996886	394.286242	72.000000	55.000000
394.286242	394.575599	70.000000	55.000000
394.575599	395.605461	68.000000	46.000000
394.575599	394.833065	56.000000	33.000000
394.833065	395.090530	60.000000	26.000000
395.090530	395.347996	63.000000	27.000000
395.347996	395.605461	60.000000	25.000000
395.605461	395.862926	56.000000	30.000000
395.862926	396.120392	60.000000	26.000000
396.120392	396.631299	68.000000	46.000000
396.120392	396.631299	72.000000	46.000000
396.120392	396.375846	63.000000	29.000000
396.375846	396.631299	60.000000	26.000000
396.631299	397.142207	68.000000	49.000000
396.631299	397.142207	72.000000	49.000000
396.631299	396.886753	56.000000	33.000000
396.886753	397.142207	60.000000	27.000000
397.142207	397.673928	68.000000	46.000000
397.142207	397.673928	72.000000	46.000000
397.142207	397.408068	63.000000	29.000000
397.408068	397.673928	60.000000	27.000000
397.673928	399.223173	70.000000	58.000000
397.673928	399.223173	72.000000	58.000000
397.673928	398.201358	77.000000	58.000000
397.673928	397.937643	55.000000	36.000000
397.937643	398.201358	58.000000	26.000000
398.201358	399.223173	76.000000	46.000000
398.201358	398.456812	60.000000	27.000000
398.456812	398.712266	58.000000	26.000000
398.712266	398.967719	55.000000	32.000000
398.967719	399.223173	58.000000	26.000000
399.223173	399.734067	70.000000	47.000000
399.223173	399.734067	72.000000	47.000000
399.223173	399.478614	60.000000	27.000000
399.478614	399.734067	58.000000	25.000000
399.734067	400.244975	70.000000	51.000000
399.734067	400.244975	72.000000	51.000000
399.734067	399.989521	55.000000	32.000000
399.989521	400.244975	58.000000	27.000000
400.244975	400.755882	70.000000	47.000000
400.244975	400.755882	72.000000	47.000000
400.244975	400.500429	60.000000	27.000000
400.500429	400.755882	58.000000	25.000000
400.755882	401.283312	79.000000	59.000000
400.755882	402.305127	68.000000	59.000000
400.755882	402.305127	72.000000	59.000000
400.755882	401.019597	53.000000	36.000000
401.019597	401.283312	56.000000	27.000000
401.283312	402.305127	77.000000	51.000000
401.283312	401.538766	60.000000	30.000000
401.538766	401.794220	56.000000	27.000000
401.794220	402.049674	53.000000	32.000000
402.049674	402.305127	56.000000	26.000000
402.305127	402.824162	68.000000	51.000000
402.305127	402.824162	72.000000	51.000000
402.305127	402.564645	60.000000	27.000000
402.564645	402.824162	56.000000	26.000000
402.824162	403.347354	68.000000	54.000000
402.824162	403.347354	72.000000	54.000000
402.824162	403.085758	53.000000	32.000000
403.085758	403.347354	56.000000	27.000000
403.347354	403.887793	68.000000	49.000000
403.347354	403.887793	72.000000	49.000000
403.347354	403.617573	60.000000	29.000000
403.617573	403.887793	56.000000	27.000000
403.887793	404.410985	80.000000	64.000000
403.887793	405.449107	68.000000	64.000000
403.887793	405.449107	72.000000	64.000000
403.887793	404.149389	51.000000	36.000000
404.149389	404.410985	54.000000	30.000000
404.410985	405.449107	78.000000	60.000000
404.410985	404.672581	56.000000	32.000000
404.672581	404.934177	54.000000	29.000000
404.934177	405.191642	51.000000	36.000000
405.191642	405.449107	54.000000	29.000000
405.449107	405.956032	68.000000	50.000000
405.449107	405.956032	72.000000	50.000000
405.449107	405.702563	56.000000	32.000000
405.702563	405.956032	54.000000	29.000000
405.956032	406.462970	68.000000	55.000000
405.956032	406.462970	72.000000	55.000000
405.956032	406.209501	51.000000	35.000000
406.209501	406.462970	54.000000	29.000000
406.462970	406.969908	68.000000	51.000000
406.462970	406.969908	72.000000	51.000000
406.462970	406.716439	56.000000	31.000000
406.716439	406.969908	54.000000	27.000000
406.969908	407.497337	78.000000	61.000000
406.969908	408.519139	68.000000	61.000000
406.969908	408.519139	73.000000	61.000000
406.969908	407.233623	49.000000	40.000000
407.233623	407.497337	52.000000	34.000000
407.497337	408.519139	76.000000	56.000000
407.497337	407.752778	56.000000	36.000000
407.752778	408.008232	52.000000	33.000000
408.008232	408.263685	49.000000	40.000000
408.263685	408.519139	52.000000	33.000000
408.519139	409.030047	68.000000	59.000000
408.519139	409.030047	76.000000	59.000000
408.519139	408.774593	56.000000	36.000000
408.774593	409.030047	52.000000	33.000000
409.030047	409.549068	68.000000	64.000000
409.030047	409.549068	76.000000	64.000000
409.030047	409.289564	47.000000	39.000000
409.289564	409.549068	51.000000	34.000000
409.549068	410.089506	68.000000	59.000000
409.549068	410.089506	75.000000	59.000000
409.549068	409.819287	56.000000	36.000000
409.819287	410.089506	51.000000	33.000000
410.089506	411.672574	68.000000	65.000000
410.089506	410.900178	75.000000	65.000000
410.089506	411.672574	46.000000	36.000000
410.089506	411.672574	53.000000	36.000000
410.900178	411.028911	77.000000	52.000000
411.028911	411.157643	75.000000	49.000000
411.157643	411.672574	74.000000	52.000000
411.672574	412.208574	62.000000	45.000000
411.672574	412.208574	68.000000	45.000000
411.672574	412.208574	46.000000	29.000000
411.672574	412.208574	53.000000	29.000000
412.208574	412.744573	62.000000	47.000000
412.208574	412.744573	68.000000	47.000000
412.208574	412.744573	46.000000	32.000000
412.208574	412.744573	53.000000	32.000000
412.744573	413.280573	62.000000	45.000000
412.744573	413.280573	68.000000	45.000000
412.744573	413.280573	46.000000	29.000000
412.744573	413.280573	53.000000	29.000000
413.280573	414.352572	62.000000	47.000000
413.280573	414.352572	68.000000	47.000000
413.280573	414.352572	46.000000	32.000000
413.280573	414.352572	53.000000	32.000000
414.888572	415.442797	74.000000	39.000000
414.888572	415.442797	80.000000	39.000000
414.888572	415.442797	65.000000	27.000000
414.888572	415.442797	58.000000	27.000000
415.442797	415.997022	74.000000	39.000000
415.442797	415.997022	80.000000	39.000000
415.442797	415.997022	65.000000	27.000000
415.442797	415.997022	58.000000	27.000000
415.997022	416.580912	74.000000	39.000000
415.997022	416.580912	80.000000	39.000000
415.997022	416.580912	65.000000	27.000000
415.997022	416.580912	58.000000	27.000000
416.580912	417.847117	74.000000	43.000000
416.580912	417.241554	80.000000	43.000000
416.580912	417.847117	58.000000	31.000000
416.580912	417.847117	65.000000	31.000000
417.241554	417.317246	82.000000	34.000000
417.317246	417.392938	80.000000	36.000000
417.392938	417.468630	79.000000	39.000000
417.468630	417.544322	80.000000	41.000000
417.544322	417.695720	82.000000	40.000000
417.695720	417.847117	84.000000	37.000000
417.847117	418.115124	82.000000	43.000000
418.115124	418.383130	80.000000	40.000000
418.383130	418.651137	79.000000	44.000000
418.651137	418.919143	77.000000	44.000000
418.919143	419.185004	75.000000	46.000000
419.185004	419.454861	74.000000	44.000000
419.454861	419.733583	72.000000	44.000000
419.733583	420.047978	70.000000	44.000000
420.050178	420.841256	70.000000	46.000000
420.050178	421.097675	67.000000	46.000000
420.050178	422.120120	51.000000	39.000000
420.839123	420.967319	72.000000	46.000000
420.967319	421.095529	70.000000	46.000000
421.095529	421.610460	65.000000	44.000000
421.095529	421.610460	68.000000	44.000000
421.610460	422.117921	63.000000	42.000000
421.610460	422.117921	67.000000	42.000000
422.117921	422.645351	68.000000	43.000000
422.117921	422.645351	72.000000	43.000000
422.645351	423.181350	67.000000	41.000000
422.645351	423.181350	70.000000	41.000000
423.181350	423.941757	70.000000	45.000000
423.181350	424.195226	67.000000	45.000000
423.181350	423.434819	51.000000	37.000000
423.434819	423.688288	55.000000	33.000000
423.688288	423.941757	58.000000	36.000000
423.941757	424.068492	72.000000	42.000000
423.941757	424.195226	51.000000	33.000000
424.068492	424.195226	70.000000	42.000000
424.195226	425.233295	68.000000	47.000000
424.195226	424.454743	53.000000	40.000000
424.454743	424.714261	56.000000	32.000000
424.714261	424.973778	62.000000	35.000000
424.973778	425.233295	53.000000	33.000000
425.233295	426.530882	67.000000	47.000000
425.233295	425.492812	55.000000	40.000000
425.492812	425.752330	58.000000	32.000000
425.752330	426.011847	63.000000	36.000000
426.011847	426.271364	55.000000	33.000000
426.271364	429.355840	56.000000	41.000000
426.271364	429.355840	60.000000	41.000000
426.530882	426.790399	64.000000	44.000000
426.790399	427.049568	65.000000	45.000000
427.049568	427.307033	67.000000	46.000000
427.307033	427.563493	68.000000	49.000000
427.563493	427.818946	69.000000	51.000000
427.818946	428.073072	70.000000	52.000000
428.073072	428.326541	71.000000	54.000000
428.326541	428.453276	74.000000	56.000000
428.453276	428.580332	72.000000	54.000000
428.580332	428.708059	71.000000	52.000000
428.708059	428.836456	72.000000	54.000000
428.836456	428.965189	70.000000	52.000000
428.965189	429.094941	68.000000	49.000000
429.094941	429.225042	67.000000	51.000000
429.225042	429.355840	65.000000	50.000000
429.355840	430.410700	55.000000	54.000000
429.355840	430.410700	63.000000	54.000000
429.355840	429.619555	45.000000	44.000000
429.619555	429.883270	46.000000	46.000000
429.883270	430.146985	48.000000	49.000000
430.146985	430.410700	46.000000	45.000000
430.410700	430.541846	53.000000	47.000000
430.410700	430.541846	62.000000	47.000000
430.410700	431.453597	46.000000	45.000000
430.541846	430.672644	58.000000	49.000000
430.672644	430.803442	57.000000	50.000000
430.803442	430.934240	58.000000	51.000000
430.934240	431.064341	59.000000	52.000000
431.064341	431.194093	60.000000	53.000000
431.194093	431.323845	61.000000	54.000000
431.323845	431.453597	62.000000	54.000000
431.453597	431.582678	63.000000	55.000000
431.582678	431.711411	64.000000	56.000000
431.711411	431.840144	65.000000	57.000000
431.840144	431.968876	66.000000	59.000000
431.968876	432.096938	67.000000	60.000000
432.096938	432.224665	68.000000	61.000000
432.224665	432.358669	69.000000	62.000000
432.358669	432.492672	70.000000	63.000000
432.492672	433.522600	67.000000	63.000000
432.492672	433.267147	70.000000	63.000000
432.492672	433.522600	39.000000	45.000000
432.492672	433.522600	51.000000	45.000000
433.267147	433.394874	72.000000	57.000000
433.394874	433.522600	70.000000	53.000000
433.522600	433.649657	68.000000	55.000000
433.649657	433.777048	67.000000	54.000000
433.777048	433.905446	72.000000	56.000000
433.905446	434.035198	70.000000	53.000000
434.035198	434.165996	75.000000	57.000000
434.165996	434.296794	74.000000	55.000000
434.296794	434.427592	77.000000	61.000000
434.427592	434.558390	75.000000	55.000000
434.558390	434.690247	80.000000	63.000000
434.558390	435.613250	51.000000	53.000000
434.558390	435.613250	60.000000	53.000000
434.690247	434.822105	79.000000	59.000000
434.822105	434.953962	78.000000	61.000000
434.953962	435.085820	79.000000	61.000000
435.085820	435.217677	77.000000	61.000000
435.217677	435.349535	75.000000	59.000000
435.349535	435.481392	74.000000	57.000000
435.481392	435.613250	72.000000	55.000000
435.613250	436.140680	70.000000	60.000000
435.613250	436.668110	53.000000	51.000000
435.613250	436.668110	60.000000	51.000000
436.140680	437.195539	69.000000	63.000000
436.668110	437.195539	58.000000	46.000000
436.668110	437.722969	62.000000	46.000000
437.195539	437.986684	68.000000	63.000000
437.195539	437.722969	59.000000	40.000000
437.722969	439.286846	63.000000	47.000000
437.722969	438.242138	60.000000	47.000000
437.986684	438.242138	67.000000	66.000000
438.242138	438.497592	75.000000	68.000000
438.242138	438.767811	55.000000	45.000000
438.497592	438.767811	73.000000	64.000000
438.767811	439.027328	71.000000	67.000000
438.767811	439.286846	56.000000	50.000000
439.027328	439.286846	72.000000	64.000000
439.286846	439.538357	74.000000	69.000000
439.538357	439.789868	75.000000	64.000000
439.789868	440.321589	75.000000	70.000000
439.789868	441.866381	46.000000	51.000000
439.789868	440.836520	55.000000	51.000000
440.321589	441.093985	70.000000	66.000000
440.836520	441.866381	56.000000	37.000000
441.093985	441.222718	72.000000	54.000000
441.222718	441.351451	70.000000	50.000000
441.351451	441.480183	70.000000	53.000000
441.480183	441.608916	68.000000	45.000000
441.608916	441.737649	67.000000	51.000000
441.737649	441.866381	65.000000	45.000000
441.866381	442.921228	63.000000	46.000000
441.866381	442.130096	51.000000	30.000000
442.130096	442.393798	55.000000	26.000000
442.393798	442.657513	58.000000	27.000000
442.657513	442.921228	55.000000	27.000000
442.921228	443.184943	51.000000	30.000000
443.184943	443.448644	55.000000	27.000000
443.448644	443.959539	67.000000	46.000000
443.448644	443.959539	70.000000	46.000000
443.448644	443.704085	58.000000	29.000000
443.704085	443.959539	55.000000	27.000000
443.959539	444.470446	67.000000	50.000000
443.959539	444.470446	70.000000	50.000000
443.959539	444.214992	51.000000	33.000000
444.214992	444.470446	55.000000	27.000000
444.470446	445.010885	67.000000	46.000000
444.470446	445.010885	70.000000	46.000000
444.470446	444.740665	58.000000	29.000000
444.740665	445.010885	55.000000	27.000000
445.010885	446.593174	68.000000	54.000000
445.010885	445.538315	75.000000	54.000000
445.010885	445.274600	51.000000	36.000000
445.274600	445.538315	53.000000	27.000000
445.538315	446.593174	74.000000	46.000000
445.538315	445.802030	56.000000	30.000000
445.802030	446.065745	53.000000	27.000000
446.065745	446.329460	51.000000	32.000000
446.329460	446.593174	53.000000	27.000000
446.593174	446.848628	82.000000	50.000000
446.593174	446.848628	56.000000	27.000000
446.848628	447.104069	80.000000	47.000000
446.848628	447.104069	53.000000	26.000000
447.104069	447.359522	79.000000	52.000000
447.104069	447.359522	51.000000	32.000000
447.359522	447.614976	77.000000	47.000000
447.359522	447.614976	53.000000	27.000000
447.614976	447.870430	75.000000	49.000000
447.614976	447.870430	56.000000	27.000000
447.870430	448.125884	74.000000	45.000000
447.870430	448.125884	53.000000	27.000000
448.125884	448.212090	77.000000	54.000000
448.125884	448.384502	51.000000	33.000000
448.212090	448.298296	75.000000	52.000000
448.298296	448.384502	77.000000	54.000000
448.384502	448.903993	75.000000	52.000000
448.384502	448.643121	55.000000	26.000000
448.643121	448.903993	58.000000	27.000000
448.903993	449.034429	74.000000	49.000000
448.903993	449.164865	55.000000	26.000000
449.034429	449.164865	72.000000	45.000000
449.164865	449.686608	70.000000	50.000000
449.164865	449.425737	51.000000	31.000000
449.425737	449.686608	55.000000	26.000000
449.686608	450.197516	67.000000	49.000000
449.686608	450.197516	70.000000	49.000000
449.686608	449.942062	58.000000	27.000000
449.942062	450.197516	55.000000	26.000000
450.197516	450.708423	67.000000	53.000000
450.197516	450.708423	70.000000	53.000000
450.197516	450.452970	51.000000	33.000000
450.452970	450.708423	55.000000	27.000000
450.708423	451.231615	67.000000	49.000000
450.708423	451.231615	70.000000	49.000000
450.708423	450.970019	58.000000	30.000000
450.970019	451.231615	55.000000	27.000000
451.231615	451.740230	68.000000	62.000000
451.231615	451.481611	75.000000	62.000000
451.231615	451.481611	51.000000	36.000000
451.481611	451.740230	74.000000	55.000000
451.481611	451.740230	53.000000	25.000000
451.740230	452.774705	84.000000	60.000000
451.740230	451.998848	56.000000	27.000000
451.998848	452.257467	53.000000	24.000000
452.257467	452.516086	51.000000	29.000000
452.516086	452.774705	53.000000	23.000000
452.774705	452.901439	82.000000	50.000000
452.774705	453.028174	56.000000	27.000000
452.901439	453.028174	80.000000	49.000000
453.028174	453.154908	84.000000	52.000000
453.028174	453.281643	53.000000	23.000000
453.154908	453.281643	80.000000	49.000000
453.281643	453.408377	79.000000	51.000000
453.281643	453.535111	51.000000	30.000000
453.408377	453.535111	77.000000	49.000000
453.535111	453.661846	80.000000	51.000000
453.535111	453.788580	53.000000	26.000000
453.661846	453.788580	77.000000	49.000000
453.788580	453.915315	75.000000	51.000000
453.788580	454.042049	56.000000	26.000000
453.915315	454.042049	74.000000	49.000000
454.042049	454.168784	77.000000	52.000000
454.042049	454.295518	53.000000	25.000000
454.168784	454.295518	74.000000	49.000000
454.295518	454.422253	75.000000	54.000000
454.295518	455.311754	51.000000	27.000000
454.295518	455.311754	55.000000	27.000000
454.422253	454.548987	77.000000	52.000000
454.548987	454.675722	75.000000	52.000000
454.675722	454.802456	74.000000	52.000000
454.802456	454.886289	75.000000	50.000000
454.886289	454.970456	76.000000	47.000000
454.970456	455.054946	77.000000	50.000000
455.054946	455.182673	78.000000	53.000000
455.182673	455.311754	79.000000	54.000000
455.311754	455.818679	70.000000	50.000000
455.818679	456.363637	67.000000	45.000000
455.818679	456.363637	70.000000	45.000000
455.818679	456.363637	55.000000	32.000000
456.363637	456.932359	65.000000	47.000000
456.363637	456.932359	68.000000	47.000000
456.363637	456.932359	56.000000	34.000000
456.932359	457.526885	63.000000	51.000000
456.932359	457.526885	67.000000	51.000000
456.932359	457.526885	57.000000	35.000000
457.526885	458.609264	63.000000	58.000000
457.526885	457.789192	70.000000	58.000000
457.526885	458.893619	58.000000	37.000000
457.789192	458.055052	69.000000	49.000000
458.055052	458.324910	70.000000	53.000000
458.324910	458.609264	67.000000	42.000000
458.609264	459.684764	62.000000	38.000000
458.609264	459.684764	65.000000	38.000000
458.893619	459.157334	59.000000	41.000000
459.157334	459.421049	60.000000	45.000000
459.421049	459.684764	58.000000	43.000000
459.684764	459.948479	58.000000	45.000000
459.948479	460.212193	56.000000	44.000000
460.212193	460.476619	55.000000	45.000000
460.476619	460.733039	53.000000	45.000000
460.604829	460.733039	70.000000	67.000000
460.733039	462.315315	82.000000	73.000000
460.733039	461.260455	51.000000	53.000000
461.260455	461.787885	55.000000	45.000000
461.787885	462.315315	58.000000	47.000000
462.315315	462.447172	80.000000	70.000000
462.315315	462.842745	63.000000	45.000000
462.447172	462.579030	79.000000	66.000000
462.579030	462.710887	77.000000	70.000000
462.710887	462.842745	75.000000	64.000000
462.842745	463.370175	74.000000	74.000000
462.842745	463.370175	68.000000	51.000000
463.370175	463.897591	75.000000	72.000000
463.370175	463.897591	67.000000	47.000000
463.897591	464.440189	74.000000	67.000000
463.897591	464.440189	77.000000	67.000000
463.897591	464.440189	68.000000	51.000000
463.897591	464.440189	65.000000	51.000000
464.440189	464.572047	80.000000	69.000000
464.440189	464.967619	75.000000	69.000000
464.440189	464.967619	67.000000	47.000000
464.440189	464.967619	63.000000	47.000000
464.572047	464.703904	79.000000	65.000000
464.703904	464.835762	77.000000	66.000000
464.835762	464.967619	79.000000	65.000000
464.967619	465.495036	77.000000	70.000000
464.967619	465.495036	80.000000	70.000000
464.967619	465.495036	62.000000	47.000000
464.967619	465.495036	65.000000	47.000000
465.495036	466.039994	70.000000	57.000000
466.039994	466.584952	70.000000	59.000000
466.584952	467.129910	70.000000	59.000000
467.129910	468.712200	80.000000	72.000000
467.657340	468.184770	58.000000	45.000000
468.184770	468.712200	62.000000	45.000000
468.712200	468.844057	82.000000	69.000000
468.712200	469.239616	65.000000	45.000000
468.844057	468.975901	80.000000	65.000000
468.975901	469.107759	79.000000	69.000000
469.107759	469.239616	77.000000	64.000000
469.239616	469.767046	75.000000	73.000000
469.239616	469.767046	67.000000	50.000000
469.767046	470.294476	74.000000	70.000000
469.767046	470.294476	77.000000	70.000000
469.767046	470.832407	70.000000	45.000000
469.767046	470.294476	68.000000	45.000000
470.294476	470.832407	75.000000	71.000000
470.294476	470.832407	79.000000	71.000000
470.294476	470.832407	67.000000	51.000000
470.832407	470.966410	82.000000	67.000000
470.832407	471.368420	77.000000	67.000000
470.832407	471.368420	65.000000	45.000000
470.832407	471.368420	68.000000	45.000000
470.966410	471.100413	80.000000	63.000000
471.100413	471.234417	79.000000	67.000000
471.234417	471.368420	80.000000	64.000000
471.368420	471.636413	79.000000	72.000000
471.368420	471.636413	82.000000	72.000000
471.368420	471.904420	63.000000	50.000000
471.368420	471.904420	67.000000	50.000000
471.904420	472.449378	39.000000	54.000000
471.904420	472.449378	51.000000	54.000000
472.449378	472.994336	39.000000	56.000000
472.449378	472.994336	51.000000	56.000000
472.994336	473.539294	39.000000	54.000000
472.994336	473.539294	51.000000	54.000000
473.539294	474.857869	73.000000	83.000000
474.066724	474.594154	63.000000	47.000000
474.066724	474.594154	55.000000	47.000000
474.594154	475.121584	55.000000	49.000000
474.594154	475.121584	63.000000	49.000000
474.857869	474.923798	75.000000	62.000000
474.923798	474.989726	73.000000	58.000000
474.989726	475.055655	72.000000	62.000000
475.055655	475.121584	73.000000	59.000000
475.121584	475.384736	75.000000	67.000000
475.121584	475.647981	55.000000	48.000000
475.121584	475.647981	63.000000	48.000000
475.384736	475.647981	77.000000	67.000000
475.647981	475.912769	75.000000	67.000000
475.647981	476.181513	55.000000	51.000000
475.647981	476.181513	63.000000	51.000000
475.912769	476.181513	73.000000	60.000000
476.181513	476.453610	72.000000	67.000000
476.181513	476.741317	55.000000	45.000000
476.181513	476.741317	63.000000	45.000000
476.453610	476.741317	71.000000	61.000000
476.741317	478.081323	71.000000	70.000000
477.277317	477.813316	55.000000	47.000000
477.277317	478.349329	63.000000	47.000000
477.813316	478.349329	56.000000	50.000000
478.081323	478.349329	72.000000	67.000000
478.349329	478.610925	75.000000	69.000000
478.349329	478.872522	63.000000	55.000000
478.349329	478.872522	56.000000	55.000000
478.610925	478.872522	74.000000	69.000000
478.872522	479.128927	77.000000	69.000000
478.872522	479.396786	56.000000	55.000000
478.872522	479.396786	63.000000	55.000000
479.128927	479.396786	75.000000	64.000000
479.396786	479.655405	74.000000	68.000000
479.396786	479.923264	56.000000	50.000000
479.396786	479.923264	63.000000	50.000000
479.655405	479.923264	72.000000	61.000000
479.923264	480.134488	70.000000	59.000000
479.923264	480.430202	55.000000	53.000000
479.923264	480.430202	63.000000	53.000000
480.092243	480.303468	71.000000	60.000000
480.261223	480.472447	72.000000	62.000000
480.430202	480.641426	73.000000	66.000000
480.430202	480.937140	56.000000	48.000000
480.430202	480.937140	63.000000	48.000000
480.599181	480.810405	74.000000	68.000000
480.768161	480.937140	75.000000	69.000000
480.937140	481.068997	75.000000	60.000000
480.937140	481.464570	46.000000	50.000000
480.937140	481.464570	55.000000	50.000000
481.068997	481.992000	63.000000	73.000000
481.464570	481.992000	46.000000	46.000000
481.464570	481.992000	55.000000	46.000000
481.992000	482.246233	67.000000	59.000000
481.992000	483.052814	62.000000	59.000000
481.992000	482.518960	46.000000	39.000000
481.992000	482.518960	56.000000	39.000000
482.246233	482.518960	65.000000	64.000000
482.518960	482.777579	63.000000	64.000000
482.518960	483.052814	46.000000	39.000000
482.518960	483.052814	56.000000	39.000000
482.777579	483.052814	65.000000	59.000000
483.052814	484.120790	63.000000	55.000000
483.052814	483.323087	51.000000	45.000000
483.052814	483.323087	55.000000	45.000000
483.323087	483.593360	51.000000	50.000000
483.593360	483.857075	55.000000	54.000000
483.857075	484.120790	58.000000	57.000000
484.120790	484.384505	56.000000	63.000000
484.384505	484.648220	58.000000	56.000000
484.648220	485.172109	63.000000	75.000000
484.648220	485.172109	70.000000	75.000000
484.648220	484.909816	55.000000	63.000000
484.909816	485.172109	58.000000	56.000000
485.172109	485.701685	65.000000	80.000000
485.172109	485.701685	70.000000	59.000000
485.172109	485.435824	53.000000	63.000000
485.435824	485.701685	58.000000	56.000000
485.701685	486.237711	67.000000	75.000000
485.701685	486.237711	70.000000	75.000000
485.701685	485.968967	51.000000	63.000000
485.968967	486.237711	58.000000	56.000000
486.237711	486.891701	70.000000	80.000000
486.237711	487.807287	68.000000	63.000000
486.237711	486.499307	50.000000	63.000000
486.499307	486.760903	53.000000	54.000000
486.760903	487.022499	56.000000	56.000000
486.891701	487.022499	72.000000	76.000000
487.022499	487.153297	70.000000	70.000000
487.022499	487.284095	55.000000	53.000000
487.153297	487.284095	69.000000	69.000000
487.284095	487.545691	70.000000	79.000000
487.284095	487.545691	53.000000	61.000000
487.545691	487.807287	51.000000	54.000000
487.807287	488.339009	62.000000	74.000000
487.807287	488.339009	70.000000	74.000000
487.807287	488.073148	50.000000	56.000000
488.073148	488.339009	48.000000	54.000000
488.339009	488.866439	63.000000	76.000000
488.339009	488.866439	72.000000	76.000000
488.339009	488.602724	46.000000	56.000000
488.602724	488.866439	48.000000	54.000000
488.866439	489.389631	65.000000	72.000000
488.866439	489.389631	74.000000	72.000000
488.866439	489.128035	44.000000	56.000000
489.128035	489.389631	46.000000	52.000000
489.389631	490.029217	75.000000	81.000000
489.389631	490.922555	63.000000	81.000000
489.389631	489.647780	43.000000	61.000000
489.647780	489.905246	46.000000	47.000000
489.905246	490.153189	51.000000	52.000000
490.029217	490.153189	77.000000	70.000000
490.153189	490.279307	79.000000	72.000000
490.153189	490.409743	46.000000	47.000000
490.279307	490.409743	75.000000	66.000000
490.409743	490.666149	70.000000	69.000000
490.409743	490.666149	55.000000	52.000000
490.922555	491.462993	67.000000	52.000000
490.922555	491.462993	70.000000	52.000000
490.922555	491.462993	51.000000	43.000000
490.922555	491.462993	55.000000	43.000000
491.462993	492.001983	65.000000	54.000000
491.462993	492.001983	68.000000	54.000000
491.462993	492.001983	53.000000	43.000000
491.462993	492.001983	56.000000	43.000000
492.001983	492.585874	63.000000	52.000000
492.001983	492.585874	67.000000	52.000000
492.001983	492.585874	55.000000	43.000000
492.001983	492.585874	58.000000	43.000000
492.585874	493.234660	65.000000	57.000000
492.585874	493.623916	56.000000	46.000000
492.585874	493.623916	60.000000	46.000000
493.234660	493.364412	67.000000	50.000000
493.364412	493.494164	68.000000	52.000000
493.494164	493.623916	65.000000	50.000000
493.623916	493.883434	72.000000	56.000000
494.142951	494.674672	60.000000	46.000000
494.142951	494.674672	65.000000	46.000000
494.142951	494.674672	44.000000	36.000000
494.142951	494.674672	53.000000	36.000000
494.674672	495.206394	58.000000	49.000000
494.674672	495.206394	63.000000	49.000000
494.674672	495.765367	46.000000	43.000000
494.674672	495.206394	55.000000	43.000000
495.206394	495.765367	62.000000	46.000000
495.206394	495.765367	65.000000	46.000000
495.206394	495.765367	56.000000	36.000000
495.765367	496.883312	62.000000	54.000000
495.765367	496.603826	65.000000	54.000000
495.765367	497.162798	51.000000	45.000000
495.765367	496.883312	56.000000	45.000000
496.603826	496.883312	66.000000	50.000000
496.883312	497.162798	63.000000	45.000000
496.883312	497.442285	67.000000	45.000000
496.883312	497.162798	55.000000	35.000000
497.162798	497.442285	63.000000	52.000000
497.442285	497.978284	75.000000	76.000000
497.442285	497.978284	82.000000	76.000000
497.442285	497.710278	67.000000	54.000000
497.710278	497.978284	70.000000	51.000000
497.978284	498.514284	77.000000	77.000000
497.978284	498.514284	82.000000	77.000000
497.978284	498.246277	68.000000	57.000000
498.246277	498.514284	67.000000	52.000000
498.514284	499.050297	79.000000	76.000000
498.514284	499.050297	82.000000	76.000000
498.514284	498.782290	65.000000	54.000000
498.782290	499.050297	63.000000	53.000000
499.050297	499.704287	82.000000	81.000000
499.050297	500.617821	80.000000	81.000000
499.050297	499.311893	62.000000	63.000000
499.311893	499.573489	65.000000	54.000000
499.573489	499.835085	68.000000	56.000000
499.704287	499.835085	84.000000	73.000000
499.835085	499.965883	82.000000	69.000000
499.835085	500.096681	67.000000	54.000000
499.965883	500.096681	81.000000	70.000000
500.096681	500.358277	82.000000	78.000000
500.096681	500.358277	65.000000	61.000000
500.358277	500.617821	63.000000	54.000000
500.617821	501.132189	74.000000	76.000000
500.617821	501.132189	82.000000	76.000000
500.617821	500.873261	62.000000	56.000000
500.873261	501.132189	60.000000	54.000000
501.132189	501.670441	75.000000	80.000000
501.132189	501.670441	84.000000	80.000000
501.132189	501.399471	58.000000	56.000000
501.399471	501.670441	60.000000	54.000000
501.670441	502.222346	77.000000	75.000000
501.670441	502.222346	86.000000	75.000000
501.670441	501.944442	56.000000	56.000000
501.944442	502.222346	58.000000	53.000000
502.222346	502.862966	87.000000	86.000000
502.222346	503.766267	75.000000	86.000000
502.222346	502.480496	55.000000	61.000000
502.480496	502.737961	58.000000	45.000000
502.737961	502.987970	60.000000	49.000000
502.862966	502.987970	86.000000	68.000000
502.987970	503.120713	87.000000	70.000000
502.987970	503.253455	62.000000	45.000000
503.120713	503.253455	82.000000	66.000000
503.253455	503.509861	79.000000	61.000000
503.253455	503.509861	63.000000	46.000000
503.766267	504.306706	79.000000	54.000000
503.766267	504.306706	82.000000	54.000000
503.766267	504.306706	63.000000	43.000000
503.766267	504.306706	67.000000	43.000000
504.306706	504.845696	77.000000	54.000000
504.306706	504.845696	80.000000	54.000000
504.306706	504.845696	65.000000	43.000000
504.306706	504.845696	68.000000	43.000000
504.845696	505.429586	75.000000	54.000000
504.845696	505.429586	79.000000	54.000000
504.845696	505.429586	67.000000	36.000000
504.845696	505.429586	70.000000	36.000000
505.429586	505.575123	76.000000	51.000000
505.429586	506.003352	68.000000	43.000000
505.429586	506.003352	72.000000	43.000000
505.575123	505.718970	77.000000	50.000000
505.718970	505.861986	79.000000	56.000000
505.861986	506.003352	77.000000	55.000000
506.003352	506.143899	80.000000	59.000000
506.143899	506.282851	79.000000	58.000000
506.282851	506.421012	82.000000	62.000000
506.421012	506.557630	80.000000	60.000000
506.557630	507.612477	84.000000	66.000000
507.612477	508.139907	82.000000	59.000000
507.612477	508.139907	62.000000	43.000000
507.612477	508.713632	58.000000	43.000000
507.612477	508.713632	68.000000	43.000000
508.139907	508.713632	65.000000	43.000000
508.570200	508.713632	74.000000	53.000000
508.713632	509.735447	75.000000	56.000000
508.713632	508.969085	63.000000	43.000000
508.969085	509.224539	67.000000	39.000000
509.224539	509.479993	70.000000	40.000000
509.479993	509.735447	67.000000	42.000000
509.735447	509.990900	63.000000	46.000000
509.990900	510.246354	67.000000	44.000000
510.246354	510.758589	85.000000	69.000000
510.246354	510.501795	70.000000	49.000000
510.501795	510.758589	67.000000	50.000000
510.758589	511.276953	84.000000	72.000000
510.758589	511.016739	68.000000	58.000000
511.016739	511.276953	65.000000	55.000000
511.276953	511.802264	86.000000	75.000000
511.276953	511.538549	70.000000	56.000000
511.538549	511.802264	68.000000	58.000000
511.802264	512.333986	89.000000	81.000000
511.802264	512.068125	67.000000	62.000000
512.068125	512.333986	70.000000	56.000000
512.333986	512.865707	87.000000	78.000000
512.333986	512.599847	67.000000	53.000000
512.599847	512.865707	65.000000	55.000000
512.865707	513.131568	63.000000	70.000000
513.131568	513.397429	61.000000	61.000000
513.397429	513.943165	73.000000	72.000000
513.397429	513.669150	58.000000	64.000000
513.669150	513.943165	55.000000	61.000000
513.943165	514.500568	72.000000	74.000000
513.943165	514.220277	56.000000	70.000000
514.220277	514.500568	53.000000	64.000000
514.500568	515.154599	68.000000	69.000000
514.500568	515.154599	74.000000	69.000000
514.500568	514.827584	58.000000	70.000000
514.827584	515.154599	46.000000	59.000000
515.154599	516.462659	77.000000	54.000000
515.154599	516.462659	68.000000	54.000000
515.154599	517.116676	51.000000	46.000000
516.462659	517.116676	67.000000	42.000000
516.462659	517.116676	75.000000	42.000000
517.116676	517.739472	62.000000	41.000000
517.116676	517.739472	65.000000	41.000000
517.739472	518.345035	63.000000	46.000000
517.739472	518.345035	67.000000	46.000000
518.345035	519.040773	65.000000	45.000000
518.345035	519.040773	68.000000	45.000000
518.345035	519.040773	46.000000	36.000000
519.040773	521.605423	62.000000	34.000000
519.040773	521.605423	65.000000	37.000000
519.040773	521.605423	68.000000	37.000000
519.040773	522.246579	39.000000	27.000000
519.040773	522.246579	51.000000	31.000000
521.605423	522.246579	63.000000	36.000000
521.605423	522.246579	67.000000	36.000000
