OnsetTime	OffsetTime	MidiPitch	Velocity
0.53199	1.74696	46	77
0.535986	1.74696	34	61
0.668984	1.74696	39	70
0.668984	1.74696	51	89
0.67298	1.74696	27	59
1.59998	1.74696	43	61
1.59998	1.74696	55	77
1.60097	1.74696	31	51
1.73298	1.86997	44	66
1.73298	1.86898	56	83
1.73397	1.86997	32	56
2.26898	2.40897	45	64
2.26898	2.40797	57	81
2.27198	2.40897	33	55
2.83197	3.88196	58	89
2.83296	3.96997	34	59
2.83296	3.96997	46	70
3.87498	4.00097	87	84
3.87597	4.00097	82	70
3.87897	4.00198	75	70
3.87897	4.00198	79	70
3.87997	4.00497	63	56
3.87997	4.00497	67	67
3.88196	4.00598	55	56
3.88196	4.00497	58	56
4.77798	5.97198	46	77
4.77898	5.97198	34	61
4.90798	5.97798	39	70
4.90798	5.97798	51	89
4.90898	5.97798	27	59
5.83198	5.97798	43	61
5.83198	5.97798	55	77
5.83298	5.97798	31	50
5.97198	6.10397	34	56
5.97198	6.10198	46	67
5.97198	6.10097	58	83
6.50698	6.64798	48	66
6.50698	6.64697	60	81
6.51097	6.64798	36	55
7.06297	8.19397	61	89
7.06398	8.19397	37	59
7.06398	8.19397	49	70
8.10096	8.22897	91	85
8.10297	8.23196	82	70
8.10297	8.22996	87	70
8.10396	8.23696	70	67
8.10396	8.23297	79	70
8.10697	8.23997	58	56
8.10697	8.23696	63	56
8.10697	8.23696	67	56
9.00197	10.186	48	77
9.00296	10.192	26	49
9.00597	10.186	36	61
9.13896	10.192	51	89
9.14296	10.192	27	59
9.14296	10.192	39	70
10.057	10.192	56	64
10.06	10.192	32	44
10.06	10.192	44	52
10.186	10.546	36	47
10.186	10.546	48	56
10.186	10.546	60	72
10.539	10.9239	61	75
10.54	10.9239	49	59
10.542	10.9239	37	49
10.9169	11.4109	62	79
10.918	11.4109	38	53
10.918	11.4109	50	63
11.3169	12.457	51	70
11.3169	12.3699	63	89
11.3199	12.457	39	59
12.3629	12.4849	92	84
12.3639	12.4889	80	70
12.3639	12.4879	84	70
12.3639	12.4859	87	70
12.3659	12.4929	68	56
12.3659	12.4889	72	67
12.3699	12.4929	60	56
12.3699	12.4929	63	56
13.269	14.4279	48	77
13.27	14.4339	26	49
13.2729	14.431	36	61
13.4019	14.4339	39	70
13.4019	14.4339	51	89
13.403	14.4339	27	59
14.302	14.4339	44	56
14.302	14.4339	56	70
14.3029	14.4339	32	56
14.4279	14.9669	48	53
14.4279	14.9669	60	68
14.431	14.9669	36	45
14.684	14.9669	63	70
14.6869	14.9669	39	49
14.6869	14.9669	51	58
14.9559	15.5619	64	74
14.9569	15.5619	52	62
14.9599	15.5619	40	52
15.2469	15.5619	65	79
15.2479	15.5619	53	68
15.2499	15.5619	41	57
15.5489	16.6059	66	89
15.5509	16.7089	54	70
15.5519	16.7089	42	59
16.5979	16.7509	93	84
16.6009	16.7559	90	70
16.6019	16.7559	84	70
16.6049	16.7579	75	67
16.6049	16.7559	81	70
16.6059	16.7589	66	56
16.6059	16.7589	72	56
16.6079	16.7589	63	56
18.1059	18.1939	63	43
18.1069	18.1949	54	34
18.1069	18.1939	68	43
18.1099	18.1949	60	34
18.3959	18.4839	65	43
18.3969	18.4849	56	34
18.3969	18.4849	71	43
18.3999	18.4849	62	34
18.6799	18.7609	66	47
18.6809	18.7639	57	39
18.6809	18.7619	72	47
18.6829	18.7639	63	39
18.9489	19.0259	68	43
18.9539	19.0269	74	43
18.9559	19.0299	59	35
18.9569	19.0309	65	35
19.2089	19.2819	69	43
19.2119	19.2859	60	35
19.2119	19.2849	75	43
19.2129	19.2859	66	35
19.4569	19.5339	71	47
19.4569	19.5339	77	47
19.4579	19.5349	62	39
19.4609	19.5379	68	39
19.7049	19.7759	72	43
19.7089	19.7789	78	43
19.7099	19.7799	63	34
19.7119	19.7829	69	34
19.9398	20.0099	74	43
19.9409	20.0108	65	34
19.9409	20.0108	80	43
19.9429	20.0128	71	34
20.1709	20.2349	75	47
20.1709	20.2379	81	47
20.1718	20.2379	66	39
20.1749	20.2379	72	39
20.3919	20.4579	77	45
20.3948	20.4579	83	45
20.3959	20.4589	68	37
20.3959	20.4589	74	37
20.6079	20.6709	78	45
20.6089	20.6719	69	37
20.6089	20.6719	84	45
20.6119	20.6749	75	37
20.8219	20.8889	80	47
20.8219	20.8889	86	47
20.8259	20.8889	71	42
20.8259	20.8899	77	42
21.0319	21.0949	81	48
21.0329	21.0959	72	42
21.0329	21.0959	87	48
21.0359	21.0988	78	42
21.2348	21.2979	83	49
21.2359	21.3008	74	43
21.2359	21.2988	89	49
21.2379	21.3018	80	43
21.4378	21.5008	84	50
21.4378	21.5008	90	50
21.4388	21.5018	75	43
21.4418	21.5048	81	43
21.6338	21.6938	86	51
21.6348	21.6948	92	51
21.6368	21.6968	77	44
21.6378	21.6978	83	44
21.8268	21.8788	87	52
21.8268	21.8818	93	52
21.8288	21.8828	78	44
21.8298	21.8828	84	44
22.0118	22.0648	89	54
22.0128	22.0648	95	54
22.0158	22.0678	80	45
22.0168	22.0678	86	45
22.1938	22.2498	90	56
22.1948	22.2538	81	46
22.1948	22.2508	96	56
22.1958	22.2538	87	46
22.3758	22.4288	91	58
22.3798	22.4318	82	49
22.3798	22.4298	97	58
22.3828	22.4318	88	49
22.5548	22.5888	92	61
22.5548	22.5938	98	61
22.5558	22.5938	83	50
22.5558	22.5968	89	50
22.6838	22.7258	93	63
22.6838	22.7258	99	63
22.6878	22.7298	84	51
22.6878	22.7298	90	51
22.8138	22.8518	94	64
22.8138	22.8558	100	64
22.8148	22.8558	85	53
22.8178	22.8558	91	53
22.9458	22.9818	95	67
22.9468	22.9828	101	67
22.9498	22.9828	86	54
22.9508	22.9848	92	54
23.0688	23.1108	96	69
23.0688	23.1078	102	69
23.0698	23.1108	93	59
23.0728	23.1118	87	59
25.4568	26.3768	75	50
25.8308	26.5549	66	33
25.8308	27.3399	69	40
26.3768	26.4649	77	46
26.4649	26.5599	75	47
26.5599	26.9159	74	50
26.5619	26.9188	65	38
26.9198	27.1748	63	38
26.9198	27.1708	72	41
27.1748	27.6829	62	26
27.2308	27.6829	65	31
27.2829	27.6859	72	30
27.3429	27.6859	77	47
27.6869	28.0609	69	37
28.0609	28.4309	70	37
29.5089	30.7689	70	50
30.2299	30.9519	61	36
30.2299	31.7419	64	40
30.7729	30.8639	72	46
30.8669	30.9519	70	47
30.9539	31.3149	68	50
30.9549	31.3189	60	38
31.3189	31.5749	67	41
31.3219	31.5749	58	38
31.5759	32.0779	57	26
31.6239	33.2129	60	31
31.6819	32.0789	67	30
31.7429	32.0819	72	47
32.0819	32.4559	64	37
32.4569	32.8339	56	30
32.4569	32.8339	65	37
33.9639	35.2069	65	50
34.6679	36.1279	63	40
34.6689	36.1319	44	30
34.6689	36.1279	59	36
35.2079	35.3019	67	46
35.3029	35.3859	65	47
35.3859	35.7219	64	50
35.7219	35.9629	65	41
36.0189	36.8479	58	36
36.0719	36.4749	65	41
36.1349	37.6189	46	26
36.1349	37.6149	55	31
36.1349	36.4749	70	45
36.4759	36.8529	62	37
36.8529	37.2269	63	37
37.5029	38.3329	58	36
37.5629	37.9579	63	35
37.6199	39.137	54	31
37.6199	37.9589	71	45
37.6209	39.1379	46	26
37.9619	38.3359	62	37
38.3399	38.7109	63	37
39.019	39.1379	63	31
39.141	40.64	53	37
39.1419	40.643	56	37
39.1419	39.516	63	37
39.143	39.894	47	31
39.1439	40.643	34	26
39.517	39.8949	59	31
39.8949	40.644	46	31
39.8949	40.261	63	37
40.265	40.647	60	31
40.647	41.143	63	39
41.147	41.644	61	33
41.644	42.151	63	33
42.152	42.603	62	35
42.603	42.725	63	28
42.726	42.841	62	28
42.842	42.964	61	28
42.964	43.079	62	28
43.08	44.66	58	32
43.135	44.665	62	35
43.194	44.665	67	38
44.668	44.871	56	35
44.669	44.875	65	35
44.875	45.063	39	35
45.487	45.651	46	33
45.529	45.652	55	34
45.574	45.652	63	35
46.705	46.845	46	33
46.743	46.845	55	34
46.782	46.849	63	36
47.3	47.458	39	35
47.891	48.0559	46	33
47.933	48.0559	55	34
47.9789	48.0569	63	36
49.1099	49.2529	46	35
49.1519	49.2559	55	37
49.1819	49.2569	63	38
49.6029	49.7429	58	60
49.7429	50.3939	63	68
49.7439	50.4399	39	38
50.3129	50.4569	46	37
50.3519	50.4569	55	38
50.3939	50.7789	63	39
50.7829	50.9149	67	57
50.9159	51.0559	68	57
51.4199	51.5659	46	37
51.4549	51.5669	55	38
51.4889	51.6329	69	66
51.4899	51.5699	63	39
52.0639	52.6799	39	38
52.0639	53.1969	70	71
52.6169	52.7589	46	36
52.6549	52.7599	55	38
52.6969	52.7629	63	40
53.1979	53.2709	75	68
53.7229	53.8689	46	38
53.7639	53.8699	55	39
53.7989	54.2199	67	49
53.7999	54.2199	70	63
53.8029	53.8729	63	41
54.2209	54.2899	65	46
54.2229	54.2899	68	59
54.2909	54.3599	67	47
54.2929	54.3599	70	59
54.3599	54.9059	65	54
54.3609	54.9059	68	69
54.3629	54.9059	39	38
54.8489	55.0309	46	35
54.8919	55.0319	53	37
54.9339	55.0359	56	39
54.9689	55.0359	62	40
55.2169	55.4619	64	50
55.2169	55.4579	67	60
55.4629	55.5359	68	66
55.4649	55.5369	65	51
55.9659	56.1099	46	38
55.9659	56.1089	53	38
55.9999	56.1129	56	39
56.0319	56.1129	67	50
56.0359	56.1138	70	64
56.0389	56.1158	62	40
56.6209	57.8278	67	68
56.6239	57.2368	39	38
56.6239	57.2708	63	54
57.1908	57.3409	46	39
57.2329	57.3418	55	41
57.2719	57.8278	63	42
58.0379	58.4548	58	58
58.2448	58.4548	59	50
58.3738	58.5208	46	37
58.4158	58.5208	55	39
58.4518	58.6428	60	51
58.4518	58.5218	63	40
58.6438	59.0418	61	55
58.8358	59.0418	62	58
59.0258	59.6798	63	68
59.0278	59.6858	39	38
59.5948	59.7428	46	38
59.6408	59.7458	55	39
59.6798	60.0718	63	41
60.0718	60.1978	67	57
60.1978	60.3409	68	57
60.7018	60.8488	46	38
60.7368	60.8488	55	40
60.7788	60.8498	63	41
60.7788	60.9178	69	66
61.2018	62.3568	69	49
61.2548	61.3448	70	44
61.3008	61.4118	72	47
61.3448	61.4748	70	54
61.3488	62.5388	39	38
61.4118	61.5388	72	49
61.4748	61.6018	70	50
61.5388	61.6678	72	47
61.6018	61.7308	70	50
61.6678	61.7938	72	47
61.7308	61.8538	70	50
61.7938	61.9238	72	47
61.8538	61.9798	70	50
61.9018	62.5388	46	38
61.9238	62.0318	72	45
61.9368	62.5388	55	39
61.9798	62.0838	70	50
61.9828	62.5388	63	41
62.0318	62.1298	72	46
62.0838	62.1858	70	50
62.1298	62.2378	72	45
62.1858	62.2938	70	50
62.2378	62.5388	72	47
62.2938	62.4198	70	53
62.3568	62.5388	69	50
62.4198	62.5388	70	50
62.4868	62.5598	79	68
62.4878	62.5608	75	58
63.0078	63.1518	46	38
63.0468	63.1518	55	40
63.0818	63.1558	63	42
63.3618	63.4978	67	49
63.3618	63.5018	70	63
63.5018	63.5678	65	46
63.5048	63.5708	68	59
63.5718	63.6378	67	47
63.5748	63.6418	70	59
63.6428	64.2048	65	54
63.6448	64.2048	39	38
63.6448	64.2048	68	69
64.1358	64.3138	46	37
64.1728	64.3148	53	38
64.2148	64.3148	56	39
64.2498	64.3168	62	41
64.4988	64.7468	64	50
64.4998	64.7478	67	60
64.7508	64.8168	68	66
64.7518	64.8178	65	51
65.2478	65.3948	46	36
65.2868	65.3948	53	38
65.3248	65.3988	56	39
65.3248	65.3958	62	50
65.3248	65.3958	70	64
65.9058	66.5618	63	68
65.9068	66.5778	39	38
66.4728	66.6308	46	35
66.5178	66.6308	55	38
66.5618	67.1098	63	41
67.6558	67.8058	46	34
67.6978	67.8098	55	37
67.7358	67.8108	63	39
68.3067	68.4568	39	38
68.8988	69.0628	46	36
68.9408	69.0638	55	39
68.9868	69.0638	63	42
70.1198	70.2637	46	36
70.1587	70.2637	55	38
70.1938	70.2637	63	41
70.6108	70.7497	70	60
70.7537	71.3627	63	62
70.7547	71.9057	39	48
70.7547	71.9057	75	74
71.2848	71.9057	46	42
71.3238	71.9057	55	46
71.3627	71.9057	63	48
71.7407	71.9057	67	52
71.7417	71.9057	79	62
71.8607	71.9987	68	52
71.8627	71.9998	80	62
72.3457	72.4927	46	39
72.3877	72.4927	55	41
72.4157	72.5657	69	56
72.4197	72.4967	63	44
72.4197	72.5667	81	67
72.8647	72.9407	70	44
72.9417	73.0147	75	46
73.0177	73.1727	82	53
73.0187	74.0997	39	38
73.0987	73.4097	84	41
73.1727	73.3307	82	41
73.2527	74.0997	81	41
73.3307	73.4867	82	41
73.4097	74.0997	84	48
73.4867	73.9877	82	41
73.4947	74.0997	46	39
73.5317	74.0997	55	42
73.5677	73.8967	75	48
73.5707	73.7357	63	46
73.6487	73.8167	70	42
73.7357	74.0997	63	46
73.8167	74.0997	70	52
73.8967	74.0997	75	63
73.9877	74.0997	82	73
74.0717	74.2147	87	81
74.5817	74.7227	46	35
74.6167	74.7227	55	37
74.6527	74.7237	63	38
74.9247	75.0617	67	54
74.9257	75.0657	70	54
75.0657	75.3417	67	33
75.0667	75.3417	70	40
75.1287	75.3417	66	33
75.1317	75.3417	69	40
75.1987	75.3417	65	39
75.2017	75.3417	68	49
75.2027	75.3417	39	35
75.5897	75.7577	82	42
75.5937	75.7577	79	36
75.6257	75.7837	46	31
75.6617	75.7837	53	33
75.6617	75.7577	78	37
75.6617	75.7577	81	43
75.6917	75.7867	56	34
75.7267	75.8457	77	44
75.7307	75.7867	62	36
75.7307	75.8497	80	50
76.0917	76.2767	91	36
76.0917	76.2767	94	41
76.1577	76.2767	90	37
76.1587	76.2767	93	41
76.2207	76.3497	92	48
76.2237	76.3537	89	44
76.6197	76.7527	64	36
76.6207	76.7527	67	42
76.6897	76.8257	46	32
76.6897	76.8267	53	32
76.7177	76.8267	56	34
76.7567	76.8277	65	43
76.7567	76.8277	68	49
76.7577	76.8297	62	36
77.0257	77.1017	67	38
77.0287	77.1027	70	44
77.3227	77.9777	63	44
77.3227	78.5337	67	52
77.3237	77.8897	39	35
77.8967	78.0477	46	35
77.9357	78.0477	55	37
77.9807	78.5377	63	39
78.7407	79.0937	58	52
78.7407	79.0937	70	52
78.9477	79.1777	71	52
78.9506	79.1567	59	52
79.0796	79.2267	46	37
79.1147	79.2267	55	39
79.1577	79.3707	72	50
79.1606	79.3467	60	50
79.1617	79.2277	63	41
79.3467	79.7587	73	56
79.3497	79.7587	61	56
79.5397	79.7587	74	60
79.5417	79.7587	62	60
79.7317	80.3477	63	71
79.7317	80.8927	75	84
79.7347	80.8927	39	53
80.2667	80.8927	46	42
80.3057	80.8927	55	45
80.3477	80.8927	63	48
80.7257	80.8927	79	66
80.7277	80.8927	67	56
80.8517	80.9917	80	73
80.8547	80.9917	68	61
81.3377	81.4807	46	44
81.3717	81.4817	55	46
81.4107	81.5477	81	78
81.4117	81.4817	63	47
81.4117	81.5507	69	66
81.8377	81.9077	70	44
81.9117	81.9777	75	46
81.9787	82.1357	82	60
81.9817	83.0526	39	48
82.0557	82.3626	84	45
82.1357	82.2867	82	45
82.2127	83.0526	81	45
82.2867	82.4447	82	45
82.3626	83.0526	84	52
82.4447	82.8846	82	45
82.4537	83.0526	46	36
82.4817	83.0526	55	38
82.5167	82.8076	75	52
82.5207	82.6646	63	40
82.5946	82.7406	70	47
82.6646	83.0526	63	51
82.7406	83.0526	70	58
82.8076	83.0526	75	62
82.8846	82.9546	82	68
82.9546	83.0526	82	74
83.0246	83.1746	87	75
83.0246	83.1716	91	85
83.5466	83.6886	46	35
83.5816	83.6896	55	37
83.6186	83.6926	63	38
83.8926	84.0326	67	54
83.8926	84.0336	70	54
84.0356	84.3226	67	33
84.0366	84.3226	70	40
84.1056	84.3226	66	33
84.1066	84.3226	69	40
84.1756	84.3226	65	39
84.1756	84.3226	68	49
84.1766	84.3226	39	35
84.5716	84.7396	82	42
84.5756	84.7396	79	36
84.5986	84.7636	46	31
84.6386	84.7396	81	43
84.6416	84.7676	53	33
84.6416	84.7396	78	37
84.6696	84.7676	56	34
84.7086	84.8306	77	44
84.7096	84.8306	80	50
84.7116	84.7686	62	36
85.0756	85.2566	94	41
85.0786	85.2566	91	36
85.1396	85.2566	90	37
85.1396	85.2566	93	41
85.2016	85.3346	92	48
85.2056	85.3356	89	44
85.5996	85.7336	64	36
85.6006	85.7336	67	42
85.6706	85.8036	46	32
85.6716	85.8036	53	32
85.6986	85.8046	56	34
85.7366	85.9186	65	41
85.7366	85.9196	68	49
85.7376	85.8076	62	36
85.9196	86.2266	68	38
85.9216	86.2276	72	44
86.2276	86.3496	67	38
86.2306	86.3506	70	44
86.3506	87.0176	67	52
86.3526	87.0176	39	35
86.3526	87.0016	63	44
86.9156	87.0666	46	35
86.9586	87.0706	55	37
87.0016	87.0706	63	39
88.0186	88.1476	46	35
88.0466	88.1486	55	37
88.0856	88.1526	63	39
88.0856	88.5836	82	55
88.0856	88.5826	85	69
88.5856	89.0486	84	58
88.5866	89.0836	80	48
88.5896	89.0836	39	36
88.9856	89.0836	86	43
89.0486	89.1116	84	49
89.0516	89.1816	48	36
89.0836	89.1816	56	38
89.1146	89.2436	82	54
89.1156	89.1836	63	40
89.1156	89.2436	79	46
89.3736	89.5036	77	40
89.3736	89.4986	80	49
89.6356	89.7626	79	51
89.6366	89.7626	75	43
89.8946	90.0216	77	46
89.8956	90.0246	70	38
90.0916	90.2276	51	35
90.1286	90.2286	58	37
90.1566	90.2906	75	54
90.1576	90.2286	63	39
90.1576	90.2906	67	46
90.5636	90.7076	67	48
90.5646	90.7106	63	40
90.7106	91.0466	68	61
90.7116	91.2176	65	52
90.7146	91.2176	39	36
90.9796	91.2176	70	45
91.0466	91.2176	68	45
91.1096	91.2426	67	51
91.1106	91.2436	64	43
91.1406	91.3056	46	36
91.1796	91.3096	53	38
91.2076	91.3096	56	38
91.2436	91.3106	68	56
91.2456	91.3106	65	47
91.2466	91.3126	62	40
91.4976	91.5676	69	54
91.4986	91.5686	66	46
91.7706	92.0546	70	59
91.7716	92.0546	67	50
92.2646	92.3966	51	35
92.2996	92.4006	55	37
92.3346	92.8346	85	69
92.3386	92.4016	63	39
92.3386	92.8356	82	55
92.8356	93.2976	84	58
92.8366	93.3486	80	48
92.8386	93.3486	39	36
93.2406	93.3486	86	43
93.2976	93.3596	84	49
93.3006	93.4226	48	36
93.3326	93.4276	56	38
93.3606	93.4896	82	54
93.3636	93.4276	63	40
93.3636	93.4896	79	46
93.6126	93.7386	77	40
93.6126	93.7376	80	49
93.8606	93.9966	75	43
93.8606	93.9926	79	51
94.1196	94.2566	77	46
94.1226	94.2566	70	38
94.3186	94.4516	51	35
94.3536	94.4526	58	37
94.3886	94.5216	75	54
94.3896	94.4556	63	39
94.3896	94.5216	67	46
94.7946	94.9426	67	48
94.7956	94.9426	63	40
94.9436	95.2716	68	61
94.9456	95.4786	39	36
94.9456	95.4776	65	52
95.2116	95.4786	70	45
95.2716	95.4776	68	45
95.3416	95.4786	67	51
95.3426	95.4786	64	43
95.3686	95.5376	46	36
95.4036	95.5406	53	38
95.4386	95.5416	56	38
95.4776	95.5446	65	47
95.4776	95.5446	68	56
95.4786	95.5456	62	40
95.7296	95.7996	70	54
95.7326	95.7996	62	46
96.0026	96.2856	63	59
96.4966	96.6286	51	35
96.5316	96.6326	55	37
96.5666	96.6326	63	39
96.5666	97.0346	82	63
96.6016	97.0356	87	67
96.6326	97.0386	97	71
97.0386	97.6616	80	64
97.0696	97.6616	87	66
97.1046	97.6616	39	36
97.1046	97.5746	96	69
97.5156	97.6376	94	40
97.5186	97.6616	98	48
97.5716	97.6616	92	42
97.5746	97.6966	48	36
97.5746	97.6616	96	55
97.6046	97.6976	56	38
97.6376	97.7596	94	61
97.6386	97.6996	63	40
97.6386	97.7596	91	61
97.8856	98.0126	89	51
97.8856	98.0116	92	51
98.1346	98.2676	87	56
98.1346	98.2666	91	56
98.3926	98.5296	89	49
98.3966	98.5296	82	49
98.5926	98.7256	51	35
98.6276	98.7266	58	37
98.6626	98.7956	87	55
98.6636	98.7286	63	39
98.6636	98.7956	79	55
99.1426	99.2116	63	40
99.1426	99.2126	67	48
99.2146	99.5446	68	61
99.2156	99.7266	39	36
99.2156	99.7266	65	52
99.4816	99.7266	70	45
99.5446	99.7266	68	45
99.6156	99.7476	64	43
99.6156	99.7476	67	51
99.6426	99.8106	46	36
99.6776	99.8106	53	38
99.7126	99.8116	56	38
99.7486	99.8146	68	56
99.7516	99.8146	62	40
99.7516	99.8146	65	47
100.003	100.074	69	54
100.004	100.074	66	46
100.276	100.56	70	59
100.277	100.561	67	50
100.77	100.91	51	35
100.805	100.911	55	37
100.839	101.246	82	61
100.84	100.911	63	39
100.871	101.316	87	65
100.911	101.316	97	68
101.317	101.942	80	61
101.348	101.942	87	64
101.386	101.942	39	36
101.386	101.852	96	67
101.789	101.915	94	31
101.789	101.942	98	51
101.851	101.942	92	42
101.852	101.942	96	55
101.855	101.977	48	36
101.883	101.978	56	38
101.915	102.041	94	60
101.918	102.041	91	60
101.919	101.978	63	40
102.163	102.289	92	54
102.164	102.29	89	54
102.412	102.545	87	58
102.412	102.544	91	58
102.674	102.808	82	54
102.674	102.807	89	54
102.87	103.01	51	35
102.905	103.01	58	37
102.933	103.08	87	63
102.936	103.08	79	63
102.937	103.014	63	39
103.36	103.504	63	40
103.36	103.503	67	48
103.504	104.344	68	61
103.507	104.347	65	52
103.508	104.057	39	36
103.966	104.144	46	36
104.004	104.145	53	38
104.036	104.145	56	38
104.074	104.146	62	40
104.347	104.659	64	43
104.348	104.668	67	51
104.659	104.745	65	47
104.662	104.746	68	56
105.32	105.411	62	46
105.32	105.415	70	54
105.954	106.027	34	61
106.031	106.807	39	68
106.517	106.695	58	40
106.552	106.699	63	42
106.591	106.7	67	44
106.626	106.7	70	46
106.808	106.899	43	64
106.986	107.073	44	64
107.168	107.259	45	68
107.353	107.444	46	64
107.536	107.636	51	64
107.623	107.798	67	40
107.657	107.799	70	42
107.693	107.801	75	44
107.728	107.802	79	46
107.729	107.822	55	68
107.91	108.004	56	64
108.095	108.137	57	64
108.138	108.183	57	56
108.184	108.229	58	50
108.229	108.274	60	46
108.274	108.387	58	58
108.334	108.442	60	50
108.387	108.505	58	57
108.442	108.554	60	50
108.505	108.61	58	56
108.554	108.667	60	49
108.61	108.718	58	55
108.667	108.775	60	50
108.718	108.831	58	56
108.722	109.348	79	42
108.757	109.348	82	44
108.775	108.88	60	48
108.792	109.348	87	45
108.828	109.348	91	47
108.831	108.925	58	55
108.88	108.978	60	50
108.925	109.031	58	58
108.978	109.079	60	51
109.031	109.142	58	60
109.079	109.348	60	56
109.142	109.268	58	63
109.205	109.348	57	60
109.268	109.348	58	60
109.325	109.471	63	74
109.818	109.962	46	52
109.853	109.962	55	56
109.887	109.962	63	58
110.311	110.451	70	40
110.315	110.455	67	34
110.455	111.014	68	45
110.456	111.014	65	38
110.458	111.014	39	35
110.594	110.868	75	40
110.595	111.014	72	34
110.727	111.001	74	45
110.728	111.014	70	38
110.868	111.014	75	34
110.868	111.014	79	41
110.898	111.526	46	31
110.927	111.526	53	33
110.962	111.526	56	34
111.001	111.526	74	40
111.001	111.385	77	48
111.004	111.526	62	36
111.128	111.526	84	43
111.13	111.383	80	36
111.25	111.512	79	36
111.25	111.526	82	43
111.383	111.526	80	43
111.385	111.526	77	36
111.512	111.782	75	49
111.512	112.068	79	49
111.651	112.068	77	44
111.652	111.917	74	37
111.782	112.068	75	44
111.785	112.051	72	37
111.917	112.068	74	44
111.918	112.068	70	37
111.977	112.415	46	32
111.98	112.415	53	32
112.012	112.415	56	34
112.051	112.415	72	47
112.052	112.415	68	39
112.053	112.415	62	36
112.184	112.415	67	38
112.184	112.415	70	45
112.323	112.415	69	43
112.324	112.416	66	36
112.589	112.669	68	40
112.59	112.671	65	34
112.672	113.324	67	45
112.673	113.296	39	35
112.673	113.325	63	38
113.237	113.391	46	32
113.281	113.391	55	35
113.328	113.392	63	38
114.423	114.573	46	31
114.461	114.577	55	34
114.496	114.577	63	36
114.997	115.07	34	61
115.074	115.836	39	68
115.546	115.721	58	40
115.584	115.721	63	42
115.616	115.725	67	44
115.651	115.725	70	46
115.837	115.924	43	64
116.019	116.106	44	64
116.197	116.292	45	68
116.39	116.48	46	64
116.575	116.673	51	64
116.663	116.834	67	40
116.698	116.837	70	42
116.733	116.838	75	44
116.768	116.858	55	68
116.768	116.842	79	46
116.953	117.044	56	64
117.138	117.184	57	64
117.187	117.23	57	56
117.233	117.279	58	50
117.279	117.324	60	46
117.324	117.433	58	58
117.377	117.489	60	50
117.433	117.546	58	57
117.489	117.605	60	50
117.546	117.657	58	56
117.605	117.713	60	49
117.657	117.766	58	55
117.713	117.818	60	50
117.766	117.878	58	56
117.773	118.398	79	42
117.803	118.398	82	44
117.818	117.923	60	48
117.842	118.398	87	45
117.877	118.398	91	47
117.878	117.975	58	55
117.923	118.028	60	50
117.975	118.074	58	58
118.028	118.126	60	51
118.074	118.189	58	60
118.126	118.398	60	56
118.189	118.311	58	63
118.249	118.398	57	60
118.311	118.398	58	60
118.375	118.514	67	74
118.377	118.515	63	68
118.868	119.008	46	57
118.903	119.008	55	61
118.938	119.012	63	63
119.355	119.501	70	40
119.358	119.502	67	34
119.502	120.208	67	40
119.505	120.072	70	45
119.506	120.208	39	35
119.613	120.208	66	36
119.617	120.208	69	41
119.729	120.208	65	36
119.732	120.208	68	41
119.852	120.208	72	40
119.855	120.188	75	45
119.96	120.208	71	40
120.057	120.614	46	31
120.072	120.208	70	34
120.072	120.208	74	40
120.099	120.614	53	33
120.145	120.614	56	34
120.188	120.614	75	44
120.191	120.614	62	36
120.191	120.614	79	51
120.303	120.614	78	49
120.426	120.614	74	42
120.428	120.614	77	49
120.552	120.789	84	60
120.555	120.79	80	53
121.625	121.804	79	45
121.626	121.808	76	45
121.808	121.972	80	45
121.809	121.976	77	45
121.976	122.13	76	45
121.98	122.133	73	45
122.134	122.276	74	45
122.134	122.277	77	45
122.277	122.417	72	45
122.28	122.418	69	45
122.418	122.557	70	45
122.42	122.557	74	45
122.558	122.686	67	45
122.558	122.689	71	45
122.588	122.77	46	25
122.623	122.77	53	28
122.658	122.771	56	34
122.69	122.774	68	45
122.693	122.774	72	45
122.694	122.775	62	36
122.851	122.927	64	45
122.851	122.928	67	45
123.001	123.078	67	45
123.002	123.079	70	45
123.159	123.232	65	45
123.159	123.236	68	45
123.309	123.974	67	45
123.31	123.974	39	35
123.31	123.968	63	38
123.884	124.034	46	32
123.925	124.037	55	35
123.968	124.038	63	38
125.066	125.213	46	31
125.101	125.214	55	34
125.143	125.214	63	36
125.636	125.707	58	38
125.707	126.365	63	52
125.71	126.379	39	35
126.201	126.28	67	39
126.28	126.379	67	36
126.281	126.438	46	34
126.319	126.438	55	35
126.365	126.442	63	36
126.365	126.421	68	39
126.442	126.497	68	36
126.511	126.571	69	39
126.588	126.648	69	36
126.662	126.722	70	39
126.739	126.799	70	36
126.817	126.865	75	39
126.889	126.942	75	36
126.96	127.012	79	39
127.03	127.089	79	35
127.104	127.155	80	39
127.18	127.232	80	35
127.25	127.31	81	39
127.324	127.383	81	34
127.408	127.46	82	39
127.481	127.54	82	34
127.485	127.639	46	34
127.516	127.639	55	35
127.558	127.621	87	39
127.559	127.64	63	36
127.642	127.702	87	34
127.719	127.785	91	39
127.803	127.866	91	35
127.888	127.948	92	41
127.972	128.027	92	36
128.053	128.109	93	42
128.133	128.192	93	37
128.213	130.099	93	43
128.214	130.099	39	35
128.302	128.477	94	38
128.392	130.099	96	38
128.477	130.016	94	34
128.565	129.935	91	42
128.644	129.859	87	35
128.722	130.099	84	41
128.802	129.777	82	34
128.805	130.016	46	33
128.84	130.054	55	37
128.883	129.701	79	40
128.886	129.253	63	35
128.963	129.627	75	33
129.028	130.099	72	38
129.106	129.551	70	32
129.179	129.477	67	38
129.253	129.4	63	33
129.329	130.099	62	37
129.4	130.096	63	34
129.477	130.099	67	33
129.551	130.099	70	34
129.627	130.099	75	35
129.701	130.099	79	36
129.777	130.099	82	38
129.859	130.099	87	39
129.935	130.099	91	40
130.016	130.169	46	35
130.016	130.099	94	41
130.054	130.17	55	36
130.096	130.173	63	38
130.096	130.396	99	47
130.547	130.624	70	39
130.548	130.624	67	33
130.698	130.792	68	47
130.702	130.838	39	35
130.702	130.793	65	39
130.89	130.996	82	39
131.1	131.209	67	39
131.101	131.21	64	33
131.191	131.384	46	31
131.233	131.388	53	33
131.272	131.388	56	34
131.314	131.409	65	39
131.314	131.408	68	46
131.318	131.388	62	36
131.499	131.597	94	41
131.696	131.804	70	41
131.699	131.805	67	34
131.912	132.007	68	39
131.912	132.003	72	47
132.104	132.203	82	41
132.308	132.412	70	34
132.308	132.409	74	41
132.458	132.577	46	25
132.476	132.581	53	28
132.493	132.584	56	34
132.507	132.602	75	45
132.511	132.602	72	38
132.514	132.584	62	36
132.703	132.798	94	40
132.906	133.029	74	34
132.906	133.025	77	40
133.158	133.587	79	46
133.159	133.376	75	39
133.162	134.513	39	35
133.274	133.484	70	34
133.274	133.481	77	40
133.376	133.589	75	40
133.378	134.513	67	34
133.481	133.69	77	40
133.484	134.513	70	34
133.587	133.796	79	40
133.589	134.513	75	34
133.69	134.513	77	34
133.692	133.901	82	41
133.718	134.513	46	33
133.753	134.513	55	37
133.795	134.006	87	43
133.796	134.513	79	36
133.799	134.513	63	35
133.897	134.11	89	44
133.901	134.513	82	37
134.006	134.513	87	38
134.006	134.223	91	45
134.108	134.324	94	45
134.11	134.513	89	38
134.219	134.436	99	46
134.223	134.513	91	39
134.323	134.513	101	47
134.324	134.513	94	39
134.436	134.583	99	57
134.437	134.583	103	57
134.964	135.118	46	35
134.999	135.118	55	36
135.041	135.119	63	38
135.5	135.639	58	38
135.64	136.291	39	35
135.64	136.291	63	52
136.126	136.207	67	39
136.207	136.371	46	34
136.207	136.291	67	36
136.248	136.371	55	35
136.287	136.347	68	39
136.291	136.372	63	36
136.372	136.427	68	36
136.445	136.505	69	39
136.522	136.577	69	36
136.595	136.655	70	39
136.672	136.732	70	36
136.746	136.798	75	39
136.816	136.876	75	36
136.892	136.945	79	39
136.962	137.015	79	35
137.04	137.092	80	39
137.106	137.166	80	35
137.184	137.239	81	39
137.256	137.316	81	34
137.334	137.393	82	39
137.407	137.474	82	34
137.411	137.571	46	34
137.449	137.572	55	35
137.492	137.576	63	36
137.492	137.548	87	39
137.576	137.631	87	34
137.652	137.715	91	39
137.733	137.8	91	35
137.814	137.879	92	41
137.897	137.96	92	36
137.978	138.041	93	42
138.058	138.122	93	37
138.143	140.026	39	35
138.143	140.026	93	43
138.234	138.408	94	38
138.322	140.022	96	38
138.408	139.948	94	34
138.496	139.865	91	42
138.577	139.784	87	35
138.654	140.026	84	41
138.734	139.71	82	34
138.735	139.949	46	33
138.773	139.98	55	37
138.815	139.634	79	40
138.818	139.182	63	35
138.888	139.557	75	33
138.961	140.026	72	38
139.035	139.483	70	32
139.112	139.402	67	38
139.182	139.332	63	33
139.256	140.026	62	37
139.332	140.026	63	34
139.402	140.026	67	33
139.483	140.026	70	34
139.557	140.026	75	36
139.634	140.026	79	38
139.71	140.026	82	41
139.784	140.026	87	43
139.865	140.026	91	45
139.948	140.026	94	47
139.949	140.096	46	35
139.98	140.099	55	36
140.022	140.323	96	46
140.025	140.326	99	54
140.026	140.099	63	38
140.55	140.61	67	33
140.551	140.611	70	39
140.627	140.726	65	39
140.627	140.726	68	47
140.628	140.763	39	35
140.823	140.925	82	39
141.03	141.139	64	33
141.03	141.135	67	39
141.124	141.31	46	31
141.162	141.311	53	33
141.205	141.313	56	34
141.24	141.334	65	39
141.24	141.331	68	46
141.243	141.313	62	36
141.433	141.53	94	41
141.632	141.734	70	41
141.633	141.737	67	34
141.845	141.933	72	47
141.846	141.934	68	39
142.031	142.135	82	41
142.237	142.336	67	34
142.241	142.339	70	41
142.385	142.514	46	25
142.401	142.515	53	28
142.423	142.515	56	34
142.443	142.535	68	45
142.444	142.516	62	36
142.444	142.536	65	38
142.633	142.73	94	40
142.829	142.948	58	34
142.833	142.948	65	40
143.063	143.646	55	40
143.064	143.68	63	40
143.067	143.805	39	35
143.606	143.805	46	36
143.646	143.805	55	38
143.68	143.805	63	39
144.841	145.43	51	35
144.88	145.43	58	36
144.915	145.43	82	46
144.919	145.43	67	38
145.003	145.171	87	45
145.091	145.43	97	60
145.171	145.346	87	45
145.258	145.43	89	45
145.346	145.43	87	45
145.427	146.493	80	53
145.429	146.493	39	35
145.52	145.692	87	46
145.608	146.493	96	46
145.692	145.87	87	57
145.783	146.493	89	46
145.87	146.493	87	46
145.892	146.493	48	34
145.923	146.493	56	36
145.955	146.493	79	48
145.958	146.493	63	38
146.087	146.493	94	52
146.224	146.493	77	44
146.356	146.493	92	52
146.49	146.987	75	44
146.613	147.109	91	47
146.739	147.491	74	41
146.862	147.491	90	45
146.924	147.491	51	35
146.952	147.491	58	36
146.987	147.491	75	40
146.99	147.491	67	38
147.109	147.359	91	45
147.232	147.491	76	41
147.359	147.491	91	45
147.481	148.006	77	42
147.484	148.503	39	35
147.617	148.131	92	47
147.743	148.503	76	43
147.873	148.503	91	49
147.939	148.503	46	33
147.967	148.503	56	35
148.006	148.503	62	36
148.006	148.503	77	46
148.131	148.503	92	52
148.261	148.503	78	43
148.395	148.52	93	46
148.52	149.003	79	47
148.65	149.003	94	55
148.971	149.54	51	31
149.01	149.54	58	34
149.041	149.54	67	37
149.041	149.54	70	45
149.126	149.287	75	38
149.206	149.54	85	58
149.287	149.455	75	42
149.375	149.54	77	38
149.455	149.54	75	40
149.539	150.063	39	35
149.539	150.063	68	45
149.623	149.798	75	35
149.71	150.063	84	51
149.798	149.973	75	35
149.885	150.063	77	35
149.973	150.063	75	35
149.993	150.539	48	32
150.025	150.539	56	34
150.06	150.539	67	42
150.061	150.539	63	35
150.186	150.539	82	48
150.316	150.539	65	44
150.445	150.567	80	48
150.57	151.068	63	40
150.691	151.075	79	47
150.82	151.075	62	39
150.942	151.075	78	46
151.005	151.575	51	32
151.033	151.575	58	34
151.068	151.575	63	38
151.072	151.575	67	35
151.191	151.443	79	45
151.32	151.575	64	38
151.443	151.575	79	47
151.569	152.087	65	41
151.57	152.604	39	33
151.699	152.213	80	44
151.824	152.604	64	38
151.958	152.604	79	46
152.02	152.604	46	27
152.052	152.604	56	28
152.087	152.602	62	29
152.087	152.604	65	40
152.213	152.604	80	45
152.345	152.604	61	38
152.475	152.604	76	44
152.602	152.926	62	40
152.734	152.926	77	46
153.053	153.638	51	31
153.09	153.638	58	33
153.123	153.638	67	35
153.123	153.638	82	50
153.206	153.382	87	45
153.295	153.638	97	54
153.382	153.547	87	45
153.462	153.638	89	45
153.547	153.638	87	45
153.633	154.701	80	50
153.637	154.701	39	35
153.725	153.897	87	46
153.809	154.701	96	54
153.897	154.078	87	46
153.984	154.701	89	46
154.078	154.701	87	46
154.092	154.701	48	34
154.127	154.701	56	36
154.163	154.701	79	42
154.165	154.701	63	38
154.298	154.701	94	49
154.425	154.701	77	44
154.558	154.701	92	47
154.694	155.192	75	41
154.814	155.314	91	48
154.942	155.695	74	41
155.062	155.695	90	46
155.124	155.695	51	35
155.152	155.695	58	36
155.192	155.695	75	41
155.194	155.695	67	38
155.314	155.563	91	46
155.44	155.695	76	40
155.563	155.695	91	45
155.692	156.207	77	39
155.693	156.713	39	35
155.821	156.336	92	47
155.944	156.713	76	40
156.08	156.713	91	46
156.143	156.713	46	34
156.174	156.713	56	35
156.207	156.713	77	43
156.209	156.713	62	38
156.336	156.713	92	48
156.468	156.713	78	45
156.598	156.724	93	51
156.724	157.21	79	47
156.858	157.21	94	52
157.179	157.749	51	30
157.211	157.749	58	33
157.246	157.749	70	45
157.249	157.749	67	37
157.326	157.49	75	38
157.411	157.749	85	50
157.49	157.659	75	38
157.578	157.749	77	38
157.659	157.749	75	40
157.747	158.268	39	35
157.747	158.268	68	45
157.834	158.002	75	38
157.914	158.268	84	48
158.002	158.176	75	38
158.086	158.268	77	38
158.176	158.268	75	38
158.198	158.785	48	31
158.226	158.785	56	34
158.264	158.785	67	40
158.265	158.775	63	36
158.39	158.785	82	46
158.516	158.785	65	39
158.646	158.785	80	47
158.775	159.276	63	39
158.894	159.279	79	45
159.024	159.279	62	40
159.146	159.279	78	45
159.209	159.776	51	32
159.241	159.776	58	34
159.276	159.776	63	39
159.276	159.776	67	36
159.392	159.651	79	43
159.521	159.776	64	38
159.651	159.776	79	37
159.772	161.32	65	44
159.773	161.32	39	35
159.907	161.32	80	37
160.032	161.32	67	47
160.161	161.32	82	38
160.294	161.32	68	47
160.298	161.318	47	25
160.298	161.32	56	25
160.298	161.317	59	30
160.299	161.319	51	25
160.421	161.32	83	38
160.55	161.32	71	45
160.676	161.32	88	33
160.805	161.32	74	47
160.935	161.32	89	37
161.058	161.32	76	45
161.187	161.32	91	33
161.317	162.314	59	30
161.317	162.331	77	45
161.318	162.315	47	25
161.319	162.317	51	25
161.32	162.317	56	25
161.439	162.331	92	33
161.565	162.331	79	47
161.688	162.331	94	34
161.817	162.331	80	52
161.936	162.331	95	37
162.059	162.331	83	50
162.188	162.331	100	37
162.314	162.814	59	30
162.314	162.811	86	57
162.315	162.814	47	25
162.317	162.814	51	25
162.317	162.815	56	25
162.433	162.825	101	43
162.559	162.825	85	53
162.678	162.825	100	44
162.811	163.322	86	58
162.814	163.326	47	25
162.814	163.326	51	25
162.814	163.325	59	30
162.815	163.326	56	25
162.93	163.335	101	44
163.057	163.335	85	53
163.185	163.335	100	44
163.322	163.857	86	62
163.325	165.135	59	30
163.326	165.135	47	25
163.326	165.135	51	25
163.326	165.135	56	25
163.444	164.607	101	51
163.585	165.135	85	60
163.718	164.911	100	57
163.857	165.135	86	46
163.945	165.054	92	50
164.032	164.452	95	54
164.12	164.368	98	59
164.201	165.135	103	66
164.284	164.526	102	49
164.368	164.684	98	49
164.452	164.757	95	48
164.526	165.135	102	59
164.607	164.834	101	46
164.684	165.135	98	45
164.757	164.985	95	45
164.834	165.135	101	57
164.911	165.135	100	41
164.985	165.135	95	41
165.054	165.135	92	41
165.135	166.195	100	55
165.198	165.408	99	40
165.268	166.195	95	40
165.338	165.544	92	40
165.408	166.195	99	53
165.478	165.674	98	40
165.544	165.804	92	40
165.611	165.867	89	40
165.674	166.195	98	52
165.74	165.93	97	38
165.804	166.059	92	38
165.867	166.125	89	38
165.93	166.195	97	50
165.996	166.188	96	38
166.059	166.195	92	38
166.125	166.195	89	38
166.188	167.217	96	53
166.252	166.433	95	35
166.314	167.0	92	35
166.37	166.563	89	35
166.433	167.217	95	52
166.5	166.686	94	35
166.563	166.808	89	35
166.622	166.871	86	35
166.686	167.217	94	51
166.748	166.934	93	35
166.808	167.056	89	35
166.871	167.134	86	35
166.934	167.217	93	52
167.0	167.204	92	35
167.056	167.217	89	35
167.134	167.217	86	35
167.204	168.225	92	54
167.266	167.456	91	38
167.329	167.578	86	35
167.392	167.644	83	35
167.456	168.225	91	53
167.515	167.707	90	35
167.578	167.834	86	35
167.644	167.899	83	35
167.707	168.225	90	54
167.771	167.956	89	35
167.834	168.225	86	35
167.899	168.086	83	35
167.956	168.225	89	53
168.022	168.222	88	35
168.086	168.225	83	35
168.156	168.225	80	35
168.222	169.261	88	55
168.293	168.485	87	35
168.358	169.261	83	35
168.422	168.607	80	35
168.485	169.261	87	55
168.544	168.737	86	35
168.607	168.856	80	35
168.67	168.918	77	35
168.737	169.261	86	56
168.8	168.985	85	35
168.856	169.115	80	35
168.918	169.184	77	35
168.985	169.261	85	51
169.048	169.251	84	35
169.115	169.261	80	35
169.184	169.261	77	35
169.251	169.314	84	55
169.314	169.507	83	35
169.381	170.081	80	35
169.444	169.636	77	35
169.507	170.304	83	53
169.569	169.762	82	35
169.636	169.888	77	35
169.699	169.954	74	35
169.762	170.304	82	55
169.828	170.018	81	35
169.888	170.144	77	35
169.954	170.213	74	35
170.018	170.304	81	53
170.081	170.29	80	35
170.144	170.304	77	35
170.213	170.304	74	35
170.29	170.818	80	56
170.354	170.546	79	37
170.42	170.672	74	34
170.483	170.738	71	35
170.546	170.818	79	56
170.609	170.808	78	38
170.672	170.818	74	36
170.738	170.818	71	36
170.808	171.333	78	57
170.871	171.064	77	40
170.934	171.333	74	35
170.998	171.193	71	35
171.064	171.333	77	55
171.127	171.323	76	40
171.193	171.333	71	36
171.26	171.333	68	36
171.323	171.872	76	58
171.386	171.585	75	39
171.456	171.872	71	35
171.522	171.719	68	36
171.585	171.872	75	58
171.656	171.852	74	39
171.719	171.872	68	37
171.782	171.872	65	37
171.852	171.914	74	61
171.914	172.118	73	45
171.985	172.254	68	40
172.048	172.317	65	40
172.118	172.397	73	61
172.184	172.387	72	45
172.254	172.397	68	39
172.317	172.397	65	39
172.387	172.947	72	63
172.451	172.653	71	47
172.52	172.947	68	43
172.59	172.787	65	44
172.653	172.947	71	63
172.723	172.947	70	49
172.787	172.947	65	46
172.856	172.947	62	39
172.926	174.228	61	66
173.014	174.228	62	39
173.108	174.228	65	39
173.188	174.228	68	40
173.262	174.228	69	41
173.339	174.228	70	42
173.409	174.228	71	43
173.476	174.228	74	43
173.545	174.228	77	44
173.616	174.228	80	45
173.686	174.228	81	46
173.752	174.228	82	47
173.818	174.228	83	49
173.888	174.228	86	50
173.959	174.228	89	51
174.022	174.228	92	53
174.092	174.228	93	54
174.158	174.228	94	56
174.228	175.845	95	63
174.291	175.845	98	51
174.361	174.494	96	51
174.424	175.845	93	57
174.494	175.845	96	45
174.557	174.69	94	45
174.627	174.893	91	53
174.69	175.845	94	43
174.76	175.845	92	43
174.83	175.845	88	47
174.893	175.845	91	41
174.963	175.845	89	41
175.026	175.845	85	48
175.096	175.845	87	38
175.162	175.296	86	38
175.229	175.845	83	48
175.296	175.845	86	35
175.366	175.495	84	35
175.429	175.845	81	47
175.495	175.845	84	35
175.562	175.695	82	35
175.632	175.845	79	44
175.695	175.845	82	35
175.764	175.845	80	35
175.827	176.671	76	44
175.898	176.671	79	35
175.967	176.671	77	35
176.034	176.671	73	41
176.1	176.671	75	35
176.171	176.304	74	35
176.234	176.671	71	41
176.304	176.671	74	34
176.373	176.514	72	34
176.443	176.671	68	41
176.514	176.671	72	33
176.584	176.671	70	33
176.654	176.943	67	40
176.727	177.538	70	31
176.797	177.538	68	31
176.867	177.538	64	40
176.943	177.538	67	29
177.014	177.538	65	29
177.087	177.538	61	39
177.158	177.538	63	30
177.231	177.378	62	30
177.302	177.538	59	39
177.378	177.538	62	30
177.451	177.538	60	30
177.529	177.854	57	38
177.606	177.766	58	31
177.686	178.078	60	31
177.766	177.942	58	39
177.854	178.078	57	32
177.942	178.078	58	47
178.053	178.102	62	49
178.242	178.435	53	39
178.435	178.775	62	56
178.436	178.603	46	41
178.604	178.932	39	34
178.778	178.851	60	52
178.935	179.089	53	40
179.09	179.39	60	56
179.093	179.239	46	41
179.243	179.554	39	35
179.394	179.474	55	52
179.555	179.709	51	37
179.709	179.827	58	46
179.712	179.862	46	41
179.863	180.17	39	34
179.978	180.02	60	48
180.02	180.128	58	49
180.171	180.325	51	40
180.244	180.325	57	46
180.328	180.49	46	41
180.328	180.49	58	52
180.49	180.808	39	37
180.65	180.731	53	52
180.808	180.958	50	39
180.808	180.885	55	49
180.958	181.032	56	50
180.962	181.108	46	41
181.109	181.186	60	50
181.113	181.41	39	36
181.263	181.336	58	52
181.414	181.564	50	39
181.414	181.486	56	48
181.564	181.637	55	49
181.565	181.714	46	41
181.715	182.026	39	36
181.715	181.77	53	49
181.829	181.865	57	46
181.866	181.945	58	52
182.03	182.183	55	39
182.184	182.299	58	46
182.187	182.334	46	41
182.334	182.41	58	48
182.338	182.638	39	35
182.411	182.491	60	48
182.492	182.6	58	49
182.638	182.792	55	39
182.712	182.795	57	46
182.796	182.95	46	41
182.796	183.11	58	52
182.95	183.282	39	36
183.111	183.16	62	49
183.282	183.45	53	39
183.451	183.608	46	41
183.451	183.768	62	55
183.608	183.926	39	34
183.769	183.842	60	52
183.926	184.08	53	40
184.083	184.384	60	56
184.084	184.234	46	41
184.234	184.542	39	35
184.385	184.465	55	49
184.542	184.703	51	37
184.704	184.819	58	56
184.706	184.854	46	41
184.854	185.162	39	34
184.97	185.011	60	48
185.012	185.127	58	49
185.162	185.315	51	40
185.239	185.32	57	46
185.322	185.48	58	52
185.323	185.484	46	41
185.484	185.802	39	37
185.644	185.725	53	52
185.802	185.876	55	49
185.803	185.953	50	39
185.953	186.1	46	41
185.953	186.026	56	50
186.103	186.177	60	50
186.107	186.404	39	36
186.253	186.33	58	52
186.405	186.478	56	48
186.408	186.555	50	39
186.555	186.628	55	49
186.559	186.705	46	41
186.706	187.013	39	36
186.706	186.782	53	49
186.856	186.936	55	53
187.014	187.16	46	39
187.16	187.769	51	56
187.161	187.314	39	41
187.317	187.618	46	36
187.619	187.77	46	39
187.77	187.843	54	45
187.773	187.919	39	41
187.843	187.92	55	47
187.92	187.997	57	49
187.923	188.07	46	36
187.998	188.07	58	51
188.071	188.112	62	49
188.234	188.396	53	39
188.396	188.714	62	55
188.397	188.553	46	41
188.554	188.872	39	34
188.714	188.795	60	51
188.872	189.033	53	40
189.034	189.334	60	56
189.036	189.184	46	41
189.187	189.492	39	35
189.337	189.411	55	52
189.495	189.649	51	37
189.65	189.764	58	46
189.652	189.807	46	41
189.807	190.115	39	34
189.914	189.957	60	48
189.958	190.072	58	49
190.115	190.261	51	40
190.187	190.265	57	46
190.268	190.426	58	52
190.269	190.43	46	41
190.43	190.748	39	37
190.594	190.671	53	52
190.748	190.821	55	49
190.749	190.902	50	39
190.905	190.975	56	50
190.906	191.052	46	41
191.052	191.13	60	50
191.056	191.353	39	36
191.206	191.28	58	52
191.357	191.431	56	48
191.36	191.507	50	39
191.508	191.658	46	41
191.508	191.581	55	49
191.658	191.714	53	49
191.659	191.966	39	36
191.77	191.809	57	46
191.809	191.889	58	52
191.966	192.131	55	39
192.131	192.239	58	46
192.132	192.277	46	41
192.281	192.354	58	48
192.282	192.582	39	35
192.354	192.428	60	48
192.432	192.54	58	49
192.582	192.733	55	39
192.655	192.733	57	46
192.734	193.058	58	52
192.736	192.893	46	41
192.894	193.226	39	36
193.058	193.096	62	49
193.226	193.387	53	39
193.387	193.706	62	54
193.391	193.548	46	41
193.551	193.863	39	34
193.709	193.789	60	49
193.864	194.024	53	40
194.028	194.178	46	41
194.028	194.329	60	55
194.179	194.486	39	35
194.329	194.401	55	52
194.487	194.64	51	37
194.644	194.797	46	41
194.644	194.755	58	46
194.801	195.106	39	34
194.909	194.948	60	48
194.952	195.064	58	49
195.109	195.256	51	40
195.182	195.259	57	46
195.259	195.42	58	52
195.26	195.421	46	41
195.421	195.738	39	37
195.588	195.662	53	52
195.739	195.896	50	39
195.739	195.812	55	49
195.896	195.97	56	50
195.897	196.046	46	41
196.047	196.348	39	36
196.047	196.12	60	50
196.197	196.275	58	52
196.348	196.421	56	48
196.352	196.498	50	39
196.498	196.576	55	49
196.502	196.649	46	41
196.649	196.725	53	49
196.653	196.954	39	36
196.799	196.876	55	56
196.954	197.104	46	39
197.105	197.255	39	41
197.105	197.556	51	58
197.255	197.556	46	36
197.557	197.706	51	39
197.632	197.709	66	41
197.67	197.71	69	49
197.71	198.011	67	41
197.71	198.01	70	49
197.713	197.856	46	41
197.857	198.501	39	36
198.011	198.347	74	49
198.012	198.348	65	41
198.013	198.349	70	41
198.178	198.686	53	39
198.347	198.686	74	49
198.348	198.686	65	41
198.349	198.686	70	41
198.35	198.686	46	41
198.501	199.131	39	34
198.662	198.98	72	52
198.663	198.981	68	44
198.822	199.286	53	40
198.98	199.286	62	39
198.98	199.286	72	47
198.981	199.286	68	39
198.983	199.286	46	41
199.131	199.75	39	35
199.285	199.914	63	44
199.285	199.6	67	52
199.435	199.914	55	37
199.6	199.904	67	46
199.601	199.901	70	46
199.603	199.914	46	41
199.603	199.914	58	39
199.75	200.38	39	34
199.824	199.914	72	48
199.901	200.212	70	49
199.904	200.212	67	41
200.058	200.558	55	40
200.131	200.558	69	46
200.135	200.558	66	39
200.212	200.558	67	44
200.212	200.558	70	52
200.213	200.558	46	41
200.38	200.698	39	37
200.538	200.614	65	52
200.541	201.15	58	44
200.698	200.772	67	49
200.699	200.846	50	39
200.849	200.999	46	41
200.849	200.922	68	50
200.999	201.073	72	50
201.0	201.3	39	36
201.15	201.223	70	52
201.301	201.374	68	48
201.304	201.451	50	39
201.451	201.528	67	49
201.452	201.601	46	41
201.602	201.675	65	49
201.605	202.206	39	36
201.752	202.056	67	52
201.753	202.057	70	52
201.903	202.371	51	39
202.056	202.358	67	46
202.057	202.371	58	39
202.057	202.357	70	46
202.06	202.371	46	41
202.206	202.813	39	36
202.322	202.371	72	48
202.357	202.662	70	49
202.358	202.663	67	41
202.508	202.97	51	39
202.581	202.97	69	46
202.585	202.97	66	39
202.662	202.97	70	52
202.663	202.97	46	41
202.663	202.97	67	44
202.813	203.46	39	36
202.966	203.3	77	41
202.966	203.299	86	49
202.967	203.3	82	41
203.131	203.638	53	39
203.299	203.638	86	49
203.3	203.638	77	41
203.3	203.638	82	41
203.302	203.638	46	41
203.46	204.083	39	34
203.618	203.93	84	52
203.621	203.932	80	44
203.775	204.238	53	40
203.93	204.238	74	39
203.93	204.238	84	47
203.932	204.238	80	39
203.933	204.238	46	41
204.083	204.703	39	35
204.234	204.553	79	52
204.237	204.863	75	44
204.395	204.863	55	37
204.553	204.861	79	46
204.553	204.861	82	46
204.555	204.863	46	41
204.555	204.863	70	39
204.703	205.333	39	34
204.817	204.863	84	48
204.861	205.171	79	41
204.861	205.17	82	49
205.011	205.514	55	40
205.091	205.514	78	39
205.091	205.514	81	46
205.17	205.514	82	52
205.171	205.514	79	44
205.172	205.514	46	41
205.333	205.648	39	37
205.497	205.574	77	52
205.498	206.098	70	44
205.648	205.72	79	49
205.651	205.797	50	39
205.798	205.875	80	50
205.802	205.948	46	41
205.948	206.026	84	50
205.952	206.253	39	36
206.103	206.711	70	44
206.103	206.176	82	52
206.253	206.327	80	48
206.254	206.403	50	39
206.404	206.557	46	41
206.404	206.477	79	49
206.557	206.628	77	49
206.561	207.164	39	36
206.712	207.013	70	52
206.712	207.324	79	52
206.862	207.324	51	39
207.013	207.618	70	46
207.016	207.324	46	41
207.016	207.618	67	39
207.016	207.622	75	46
207.164	207.773	39	36
207.465	207.933	51	39
207.576	207.933	74	46
207.618	207.933	67	36
207.618	207.933	70	37
207.622	207.933	46	41
207.622	207.933	75	43
207.773	207.933	39	36
207.919	207.993	89	52
207.92	208.528	82	44
208.069	208.143	91	49
208.07	208.223	68	39
208.223	208.301	92	50
208.227	208.377	62	41
208.378	208.528	58	36
208.378	208.451	96	50
208.529	209.129	82	44
208.531	208.602	94	52
208.679	208.829	50	39
208.679	208.752	92	48
208.829	208.906	91	49
208.83	208.979	46	41
208.979	209.052	89	49
208.982	209.129	39	36
209.13	209.445	82	44
209.133	209.445	94	52
209.136	209.447	91	44
209.287	209.762	67	37
209.445	209.756	82	44
209.445	209.756	94	49
209.447	209.762	63	41
209.447	209.756	91	41
209.602	209.762	58	34
209.678	209.762	93	46
209.679	209.762	90	39
209.756	210.431	82	44
209.756	210.431	91	44
209.756	210.431	94	52
209.92	210.431	51	40
210.082	210.431	46	41
210.246	210.431	39	37
210.418	211.022	70	44
210.418	210.487	77	52
210.564	210.645	79	49
210.565	210.718	68	39
210.721	210.795	80	50
210.722	210.872	62	41
210.872	210.945	84	50
210.873	211.023	58	36
211.023	211.625	70	44
211.026	211.096	82	52
211.173	211.323	50	39
211.173	211.247	80	48
211.324	211.474	46	41
211.324	211.4	79	49
211.478	211.551	77	49
211.479	211.625	39	36
211.628	211.929	70	52
211.628	212.241	79	52
211.778	212.241	63	39
211.929	212.535	70	46
211.93	212.536	75	46
211.933	212.241	58	41
211.933	212.535	67	39
212.08	212.241	51	36
212.38	212.85	51	39
212.496	212.85	74	46
212.535	212.85	67	36
212.535	212.85	70	37
212.536	212.85	75	43
212.538	212.85	46	41
212.686	212.85	39	36
212.836	212.909	89	52
212.837	213.445	82	44
212.989	213.066	91	49
212.99	213.14	68	39
213.144	213.29	62	41
213.144	213.217	92	50
213.291	213.367	96	50
213.295	213.445	58	36
213.446	214.05	82	44
213.446	213.518	94	52
213.596	213.746	50	39
213.596	213.668	92	48
213.746	213.819	91	49
213.747	213.896	46	41
213.896	214.05	39	36
213.896	213.973	89	49
214.051	214.366	82	44
214.051	214.368	94	52
214.052	214.369	91	44
214.21	214.681	67	37
214.366	214.677	82	44
214.368	214.68	94	49
214.369	214.681	63	41
214.369	214.681	91	41
214.516	214.681	58	34
214.6	214.681	93	46
214.603	214.681	90	39
214.677	215.352	82	44
214.68	215.352	94	52
214.681	215.352	91	44
214.834	215.352	51	40
215.002	215.352	46	41
215.167	215.352	39	37
215.334	215.412	77	52
215.335	215.971	70	44
215.498	215.579	79	49
215.499	215.66	68	39
215.663	215.734	80	50
215.664	215.818	62	41
215.818	215.975	58	36
215.818	215.891	84	50
215.976	216.615	70	44
215.978	216.056	82	52
216.128	216.209	80	48
216.129	216.293	50	39
216.293	216.374	79	49
216.294	216.454	46	41
216.455	216.538	77	49
216.458	216.619	39	36
216.577	216.622	78	49
216.622	216.707	79	49
216.962	217.144	70	44
216.963	217.34	39	32
216.963	217.34	55	38
216.963	217.34	67	37
217.148	217.245	75	49
217.341	217.522	74	42
217.344	217.711	41	32
217.344	217.711	56	38
217.344	217.708	68	35
217.525	217.616	77	49
217.715	218.095	62	35
217.715	217.896	65	42
217.716	218.1	43	32
217.716	218.096	59	38
217.897	217.995	71	49
218.103	220.172	67	39
218.103	219.311	72	46
218.104	220.172	63	47
218.106	220.172	48	39
218.107	220.172	55	39
219.15	219.801	71	47
219.311	219.64	72	41
219.476	220.172	74	41
219.64	219.979	72	45
219.801	220.172	71	40
219.979	220.172	72	45
220.169	222.828	44	37
220.249	222.804	53	38
220.326	222.828	60	39
220.41	222.828	65	47
220.49	222.828	72	49
220.564	222.828	77	51
222.1	222.576	75	49
222.576	222.828	75	42
222.738	225.107	46	37
222.804	225.108	53	38
222.881	225.108	58	39
222.965	225.11	62	47
223.038	225.11	68	49
223.136	225.111	74	51
225.111	225.295	62	46
225.114	225.3	34	35
225.17	225.3	68	50
225.232	225.302	77	58
225.617	225.701	75	56
225.618	225.706	39	43
225.618	225.705	67	47
225.786	225.866	70	41
225.786	225.866	77	49
225.946	226.02	79	50
225.947	226.023	75	42
225.95	226.024	67	37
225.951	226.028	55	31
225.951	226.027	63	31
226.104	226.192	77	37
226.104	226.192	80	44
226.238	226.279	84	56
226.28	226.36	79	42
226.28	226.359	82	50
226.521	226.611	78	38
226.521	226.608	81	45
226.612	226.689	79	50
226.612	226.688	82	50
226.615	226.692	67	35
226.616	226.693	58	29
226.616	226.692	63	29
226.951	227.224	56	97
226.952	227.224	32	63
226.952	227.224	44	74
227.297	227.382	84	56
227.301	227.382	72	47
227.302	227.383	68	48
227.302	227.383	75	47
227.304	227.385	56	40
227.305	227.385	63	40
227.542	227.619	67	41
227.543	227.62	55	35
227.62	227.704	84	66
227.623	227.707	80	56
227.624	227.712	56	46
227.624	227.711	68	55
227.624	227.711	72	56
227.626	227.712	63	46
227.875	227.955	83	51
227.876	227.956	71	42
227.876	227.956	79	42
227.959	228.036	84	51
227.96	228.04	72	42
227.96	228.036	80	42
228.291	228.617	55	96
228.292	228.617	43	74
228.295	228.617	31	63
228.642	228.722	82	56
228.643	228.726	67	48
228.643	228.722	70	47
228.643	228.726	75	47
228.645	228.727	55	40
228.645	228.727	63	40
228.89	228.96	66	41
228.891	228.961	54	35
228.964	229.048	82	66
228.965	229.051	67	55
228.965	229.049	70	56
228.965	229.048	79	56
228.967	229.051	55	46
228.967	229.052	63	46
229.215	229.296	81	51
229.216	229.297	69	42
229.216	229.3	78	42
229.301	229.377	82	51
229.303	229.377	79	42
229.304	229.38	70	42
229.639	229.961	53	95
229.64	229.961	29	63
229.64	229.961	41	74
229.986	230.07	80	56
229.989	230.07	68	47
229.989	230.071	74	47
229.99	230.071	65	48
229.993	230.073	53	40
229.993	230.073	62	40
230.237	230.308	64	41
230.238	230.308	52	35
230.309	230.395	77	56
230.309	230.392	80	66
230.311	230.396	65	55
230.311	230.395	68	56
230.312	230.399	53	46
230.312	230.399	62	46
230.559	230.644	79	51
230.563	230.645	67	42
230.564	230.645	76	42
230.647	230.724	77	42
230.647	230.724	80	51
230.648	230.728	68	42
230.983	231.249	51	99
230.987	231.25	39	74
230.988	231.25	27	63
231.333	231.417	67	47
231.333	231.414	79	56
231.337	231.421	51	40
231.337	231.421	63	48
231.337	231.418	70	47
231.34	231.421	58	40
231.582	231.652	62	41
231.585	231.655	50	35
231.655	231.739	79	66
231.656	231.743	75	56
231.659	231.744	63	55
231.659	231.743	67	56
231.66	231.747	51	46
231.662	231.747	58	46
231.914	231.995	78	51
231.915	231.995	66	42
231.918	231.998	74	42
231.998	232.075	79	51
232.002	232.079	67	42
232.002	232.079	75	42
232.345	232.426	72	44
232.345	232.425	80	52
232.346	232.426	34	48
232.505	232.593	79	47
232.509	232.594	70	39
232.674	232.757	77	47
232.677	232.759	56	35
232.677	232.758	62	42
232.677	232.758	68	39
232.681	232.761	53	35
232.838	232.929	75	47
232.839	232.933	67	39
233.017	233.101	65	44
233.017	233.097	74	52
233.021	233.101	46	47
233.185	233.265	70	45
233.186	233.269	62	38
233.357	233.441	63	38
233.357	233.44	72	45
233.358	233.444	53	34
233.358	233.444	58	40
233.36	233.444	56	34
233.527	233.622	74	45
233.528	233.622	65	38
233.71	233.793	39	43
233.71	233.791	67	47
233.71	233.79	75	56
233.871	233.951	77	49
233.872	233.951	70	41
234.032	234.115	79	50
234.035	234.116	75	42
234.036	234.119	58	31
234.036	234.116	63	37
234.039	234.12	55	31
234.189	234.277	80	44
234.19	234.277	77	37
234.323	234.365	84	56
234.365	234.444	82	50
234.368	234.445	46	43
234.368	234.445	79	42
234.613	234.697	78	38
234.613	234.694	81	45
234.697	234.777	82	50
234.701	234.78	58	29
234.701	234.778	63	35
234.701	234.778	79	50
234.702	234.781	55	29
235.033	235.121	84	44
235.033	235.12	92	52
235.034	235.121	34	48
235.201	235.289	82	39
235.201	235.289	91	47
235.368	235.449	89	47
235.369	235.454	62	42
235.369	235.453	80	39
235.373	235.456	53	35
235.373	235.454	56	35
235.526	235.614	79	39
235.526	235.614	87	47
235.704	235.785	86	52
235.705	235.79	46	47
235.705	235.789	77	44
235.873	235.957	74	38
235.873	235.954	82	45
236.037	236.128	84	45
236.038	236.132	58	40
236.038	236.129	75	38
236.039	236.132	53	34
236.041	236.133	56	34
236.216	236.304	77	38
236.216	236.304	86	45
236.397	236.478	87	56
236.398	236.479	39	43
236.398	236.479	79	47
236.559	236.64	89	49
236.562	236.643	82	41
236.719	236.804	91	50
236.723	236.805	87	42
236.724	236.807	58	31
236.724	236.805	63	37
236.726	236.807	55	31
236.884	236.972	89	37
236.884	236.971	92	44
237.017	237.059	96	56
237.06	237.147	91	42
237.06	237.143	94	50
237.063	237.148	46	43
237.308	237.389	90	38
237.308	237.388	93	45
237.392	237.476	94	50
237.393	237.479	63	35
237.393	237.476	91	50
237.395	237.479	58	29
237.396	237.48	55	29
237.731	238.018	56	93
237.732	238.018	32	63
237.732	238.018	44	74
238.074	238.155	84	56
238.075	238.155	72	47
238.078	238.158	68	48
238.078	238.156	75	47
238.079	238.158	56	40
238.079	238.158	63	40
238.322	238.4	67	41
238.323	238.401	55	35
238.401	238.484	84	66
238.403	238.487	72	56
238.403	238.487	80	56
238.404	238.491	56	46
238.404	238.491	68	55
238.407	238.492	63	46
238.662	238.746	83	51
238.663	238.747	71	42
238.663	238.75	79	42
238.75	238.83	84	51
238.751	238.83	80	42
238.753	238.831	72	42
239.089	239.397	55	101
239.093	239.397	31	63
239.093	239.397	43	74
239.432	239.52	70	47
239.432	239.52	82	56
239.436	239.524	67	48
239.436	239.521	75	47
239.437	239.524	55	40
239.437	239.524	63	40
239.681	239.754	66	41
239.684	239.754	54	35
239.755	239.846	79	56
239.755	239.846	82	66
239.756	239.847	70	56
239.758	239.849	55	46
239.758	239.847	67	55
239.759	239.849	63	46
240.013	240.094	81	51
240.014	240.094	69	42
240.014	240.097	78	42
240.097	240.182	82	51
240.098	240.182	70	42
240.098	240.182	79	42
240.444	240.773	41	74
240.444	240.773	53	96
240.445	240.773	29	63
240.791	240.875	68	47
240.791	240.874	80	56
240.794	240.877	53	40
240.794	240.876	65	48
240.794	240.875	74	47
240.795	240.878	62	40
241.035	241.109	52	35
241.035	241.109	64	41
241.113	241.197	77	56
241.113	241.196	80	66
241.116	241.2	53	46
241.116	241.2	65	55
241.116	241.199	68	56
241.117	241.203	62	46
241.368	241.452	67	42
241.368	241.452	79	51
241.369	241.456	76	42
241.456	241.532	80	51
241.457	241.533	77	42
241.459	241.535	68	42
241.795	242.11	27	63
241.795	242.11	39	74
241.795	242.11	51	92
242.138	242.221	67	47
242.138	242.218	79	56
242.139	242.222	70	47
242.142	242.223	51	40
242.142	242.225	58	40
242.142	242.222	63	48
242.386	242.457	50	35
242.386	242.457	62	41
242.46	242.544	75	56
242.46	242.543	79	66
242.461	242.544	67	56
242.464	242.548	51	46
242.464	242.548	58	46
242.464	242.547	63	55
242.715	242.8	78	51
242.719	242.8	66	42
242.719	242.8	74	42
242.802	242.887	79	51
242.803	242.888	67	42
242.803	242.888	75	42
243.146	243.231	84	44
243.146	243.23	92	52
243.15	243.231	34	48
243.31	243.391	82	39
243.31	243.391	91	47
243.472	243.555	89	47
243.475	243.556	56	35
243.475	243.556	62	42
243.475	243.556	80	39
243.479	243.558	53	35
243.639	243.727	87	47
243.643	243.727	79	39
243.814	243.895	86	52
243.817	243.898	77	44
243.818	243.899	46	47
243.986	244.067	74	38
243.986	244.063	82	45
244.15	244.231	84	45
244.151	244.234	75	38
244.153	244.235	58	40
244.154	244.238	53	34
244.157	244.238	56	34
244.315	244.403	77	38
244.315	244.398	86	45
244.493	244.574	87	56
244.496	244.575	79	47
244.497	244.577	39	43
244.651	244.735	82	41
244.651	244.735	89	49
244.811	244.896	91	50
244.812	244.897	87	42
244.816	244.899	58	31
244.816	244.897	63	37
244.818	244.899	55	31
244.976	245.064	92	44
244.98	245.064	89	37
245.102	245.151	96	56
245.152	245.232	91	42
245.152	245.232	94	50
245.153	245.233	46	43
245.312	245.392	90	38
245.312	245.397	93	45
245.473	245.557	96	50
245.477	245.558	63	35
245.477	245.557	92	50
245.478	245.561	58	29
245.48	245.561	55	29
245.638	245.719	91	50
245.638	245.718	94	50
245.798	245.883	80	52
245.803	245.886	34	48
245.803	245.884	72	44
245.967	246.048	79	47
245.971	246.05	70	39
246.131	246.212	77	47
246.132	246.215	62	42
246.132	246.213	68	39
246.135	246.215	56	35
246.136	246.216	53	35
246.296	246.38	67	39
246.296	246.379	75	47
246.464	246.548	74	52
246.465	246.551	46	47
246.465	246.549	65	44
246.632	246.716	62	38
246.632	246.716	70	45
246.8	246.887	72	45
246.801	246.888	58	40
246.801	246.888	63	38
246.803	246.891	53	34
246.804	246.892	56	34
246.968	247.056	65	38
246.968	247.055	74	45
247.139	247.223	75	56
247.143	247.224	39	43
247.143	247.223	67	47
247.304	247.385	70	41
247.304	247.384	77	49
247.465	247.549	79	50
247.468	247.549	75	42
247.469	247.55	58	31
247.469	247.55	63	37
247.472	247.552	55	31
247.633	247.723	80	44
247.637	247.724	77	37
247.808	247.892	82	50
247.809	247.892	79	42
247.811	247.893	46	43
247.969	248.052	78	38
247.973	248.053	81	45
248.133	248.214	84	50
248.137	248.214	80	50
248.138	248.221	55	29
248.138	248.217	58	29
248.138	248.217	63	35
248.298	248.379	79	50
248.298	248.378	82	50
248.459	248.546	92	52
248.46	248.547	34	48
248.46	248.546	84	44
248.627	248.715	82	39
248.627	248.714	91	47
248.795	248.883	89	47
248.798	248.883	80	39
248.799	248.886	56	35
248.799	248.884	62	42
248.802	248.886	53	35
248.963	249.05	87	47
248.967	249.051	79	39
249.138	249.226	86	52
249.139	249.229	77	44
249.141	249.229	46	47
249.306	249.398	74	38
249.306	249.397	82	45
249.474	249.562	84	45
249.477	249.565	62	40
249.477	249.565	75	38
249.478	249.565	53	34
249.478	249.566	56	34
249.642	249.733	77	38
249.642	249.729	86	45
249.813	249.894	79	47
249.813	249.894	87	56
249.814	249.895	39	43
249.974	250.055	89	49
249.977	250.056	82	41
250.135	250.223	91	50
250.139	250.227	63	37
250.139	250.227	87	42
250.14	250.228	58	31
250.142	250.23	55	31
250.303	250.387	92	44
250.306	250.388	89	37
250.475	250.556	94	50
250.476	250.556	46	43
250.476	250.556	91	42
250.635	250.716	90	38
250.636	250.717	93	45
250.797	250.88	96	50
250.8	250.881	63	35
250.8	250.881	92	42
250.804	250.885	55	29
250.804	250.882	58	29
250.962	251.057	91	42
250.962	251.056	94	50
251.147	251.231	84	47
251.147	251.228	92	56
251.148	251.231	34	59
251.308	251.392	91	53
251.309	251.393	82	45
251.473	251.557	53	29
251.473	251.557	80	45
251.473	251.557	89	53
251.476	251.558	56	29
251.476	251.56	62	35
251.633	251.717	87	53
251.634	251.718	79	45
251.798	251.886	77	47
251.798	251.886	86	56
251.966	252.053	82	50
251.967	252.054	74	42
252.148	252.229	73	42
252.148	252.225	81	50
252.149	252.23	64	37
252.149	252.229	67	44
252.309	252.389	82	50
252.31	252.393	68	44
252.31	252.39	74	42
252.311	252.393	65	37
252.47	252.551	75	43
252.47	252.551	83	51
252.474	252.554	66	35
252.474	252.554	69	42
252.638	252.722	84	43
252.639	252.722	76	36
252.641	252.723	70	43
252.642	252.723	67	36
252.803	252.883	77	38
252.803	252.882	85	45
252.804	252.883	71	44
252.806	252.886	68	37
252.963	253.044	86	46
252.964	253.044	78	39
252.967	253.047	72	45
252.968	253.047	69	38
253.132	253.209	79	40
253.132	253.205	87	48
253.135	253.212	70	39
253.135	253.209	73	46
253.289	253.369	88	50
253.29	253.373	74	47
253.29	253.369	80	42
253.292	253.373	71	39
253.454	253.534	81	43
253.454	253.533	89	51
253.455	253.537	72	40
253.455	253.534	75	48
253.614	253.695	90	53
253.615	253.698	76	49
253.615	253.695	82	45
253.618	253.698	73	41
253.776	253.86	83	46
253.776	253.859	91	55
253.779	253.861	74	42
253.779	253.86	77	50
253.936	254.013	92	56
253.941	254.017	78	51
253.941	254.014	84	47
253.943	254.017	75	43
254.098	254.175	85	49
254.098	254.171	93	58
254.099	254.175	76	45
254.099	254.175	79	53
254.251	254.328	94	60
254.252	254.328	86	51
254.255	254.329	80	54
254.256	254.332	77	45
254.406	254.486	85	57
254.406	254.483	93	68
254.407	254.489	76	46
254.407	254.486	79	55
254.559	254.64	94	69
254.56	254.641	86	58
254.564	254.643	77	47
254.564	254.643	80	56
254.721	254.805	93	73
254.724	254.805	81	62
254.885	254.983	94	71
254.886	254.986	82	60
255.078	255.431	86	72
255.078	255.431	98	85
255.079	255.432	94	72
255.081	255.785	32	60
255.081	255.785	44	71
255.431	255.785	86	66
255.431	255.785	98	78
255.432	255.785	94	66
255.435	255.785	53	54
255.435	255.785	60	54
255.435	255.785	65	64
255.781	256.107	84	72
255.781	256.107	92	72
255.781	256.103	96	85
255.782	256.46	46	71
255.785	256.46	34	60
256.103	256.46	96	80
256.107	256.46	65	65
256.107	256.46	84	68
256.107	256.46	92	68
256.11	256.46	53	55
256.11	256.46	62	55
256.453	256.779	91	84
256.456	257.856	79	71
256.457	257.124	51	71
256.457	257.856	87	71
256.458	257.125	39	60
256.778	257.122	94	76
256.779	257.122	82	64
256.779	257.123	91	64
256.781	257.458	67	65
256.782	257.461	55	55
256.782	257.458	63	55
257.122	257.454	82	68
257.122	257.453	94	81
257.123	257.454	91	68
257.124	257.856	51	71
257.125	257.856	39	60
257.37	257.856	81	61
257.37	257.856	93	72
257.371	257.856	90	61
257.453	257.856	94	80
257.454	257.856	82	68
257.454	257.856	91	68
257.458	257.856	63	55
257.458	257.856	67	65
257.461	257.856	55	55
257.793	257.874	89	75
257.794	257.875	77	63
257.797	257.875	80	63
257.798	258.448	41	60
257.798	258.448	53	71
257.965	258.448	91	74
257.966	258.448	79	62
257.966	258.441	82	62
258.122	258.448	92	74
258.127	258.448	80	62
258.127	258.287	84	62
258.129	258.448	65	65
258.13	258.448	56	55
258.13	258.448	60	55
258.284	258.448	87	74
258.287	258.448	84	62
258.287	258.448	96	74
258.437	259.1	86	76
258.438	259.095	94	76
258.441	258.767	82	64
258.442	259.1	34	60
258.442	259.1	46	71
258.603	259.1	92	73
258.606	258.931	80	62
258.606	259.1	84	62
258.763	259.096	91	74
258.766	259.1	79	62
258.767	259.1	62	55
258.767	259.1	65	65
258.767	259.096	82	62
258.768	259.1	56	55
258.929	259.1	89	74
258.931	259.1	77	62
258.931	259.1	80	62
259.095	259.422	94	84
259.096	259.422	82	71
259.096	259.422	91	84
259.1	259.775	39	60
259.1	259.774	51	71
259.422	259.773	82	64
259.422	259.772	91	76
259.422	259.772	94	76
259.423	260.093	67	65
259.424	260.094	63	55
259.425	260.094	55	55
259.68	260.464	81	61
259.68	260.464	90	72
259.681	260.464	93	72
259.772	260.464	91	81
259.772	260.458	94	81
259.773	260.464	82	68
259.774	260.464	51	71
259.775	260.464	39	60
260.093	260.464	67	65
260.094	260.464	55	55
260.094	260.464	63	55
260.457	260.835	98	85
260.458	261.22	44	71
260.458	260.838	86	72
260.458	260.838	94	72
260.46	261.22	32	60
260.835	261.22	98	78
260.838	261.22	86	66
260.838	261.22	94	66
260.839	261.22	60	54
260.839	261.22	65	64
260.842	261.22	53	54
261.213	261.549	96	85
261.217	261.553	84	72
261.217	261.553	92	72
261.218	261.921	34	60
261.218	261.921	46	71
261.549	261.921	96	80
261.553	261.921	84	68
261.553	261.921	92	68
261.554	261.921	62	55
261.554	261.921	65	65
261.556	261.921	53	55
261.917	262.236	91	84
261.918	263.313	79	71
261.92	262.589	39	60
261.92	262.589	51	71
261.92	263.313	87	71
262.235	262.582	82	64
262.235	262.581	94	76
262.236	262.585	91	64
262.239	262.918	55	55
262.239	262.918	63	55
262.239	262.914	67	65
262.581	262.911	94	81
262.582	262.912	82	68
262.585	262.914	91	68
262.589	263.313	39	60
262.589	263.313	51	71
262.827	263.313	81	61
262.827	263.313	93	72
262.828	263.313	90	61
262.911	263.313	94	80
262.912	263.313	82	68
262.914	263.313	67	65
262.914	263.313	91	68
262.918	263.313	55	55
262.918	263.313	63	55
263.257	263.338	77	56
263.257	263.337	89	66
263.258	263.341	80	56
263.261	263.911	41	60
263.261	263.911	53	71
263.421	263.911	91	68
263.422	263.911	79	57
263.425	263.902	82	57
263.583	263.911	80	59
263.583	263.911	83	59
263.583	263.911	92	70
263.584	263.911	65	65
263.586	263.911	56	55
263.586	263.911	60	55
263.747	263.911	84	61
263.748	263.911	81	61
263.748	263.911	93	72
263.901	264.566	85	62
263.901	264.566	94	74
263.902	264.566	82	62
263.905	264.566	34	60
263.905	264.566	46	71
264.065	264.566	95	76
264.069	264.566	83	64
264.07	264.398	86	64
264.227	264.566	84	66
264.227	264.566	96	78
264.229	264.563	87	66
264.23	264.566	62	55
264.23	264.566	65	65
264.231	264.566	56	55
264.398	264.566	86	67
264.398	264.566	98	79
264.399	264.566	89	67
264.563	264.646	87	68
264.563	264.647	91	68
264.563	264.643	99	81
264.566	265.385	39	60
264.566	265.385	51	71
265.214	265.385	75	68
265.214	265.385	79	68
265.215	265.385	82	68
265.217	265.385	63	60
265.217	265.385	67	71
265.217	265.385	87	81
265.218	265.385	55	60
265.221	265.385	58	60
266.845	266.914	58	57
266.915	266.988	60	54
266.989	267.065	58	55
267.065	267.135	57	55
267.135	267.208	58	55
267.213	267.285	62	60
267.419	267.513	61	53
267.604	267.695	60	53
267.605	267.695	46	34
267.605	267.699	53	41
267.782	267.877	59	53
267.964	268.056	58	57
267.965	268.056	39	45
268.15	268.237	57	54
268.325	268.413	46	37
268.325	268.413	56	54
268.326	268.414	53	44
268.497	268.584	60	54
268.672	268.766	55	57
268.85	268.941	56	54
269.032	269.12	46	34
269.032	269.119	57	54
269.033	269.12	51	40
269.207	269.259	58	54
269.305	269.347	57	49
269.347	269.386	58	49
269.386	269.427	60	49
269.428	269.508	58	57
269.431	269.509	39	45
269.588	269.669	57	53
269.753	269.841	46	36
269.753	269.841	51	43
269.753	269.84	58	57
269.932	270.023	55	54
270.124	270.211	53	57
270.303	270.389	55	51
270.477	270.565	56	51
270.478	270.566	46	35
270.478	270.568	50	42
270.653	270.737	60	51
270.831	270.919	58	54
270.832	270.92	39	45
271.006	271.093	56	51
271.181	271.272	55	51
271.182	271.272	46	36
271.182	271.276	50	43
271.36	271.447	53	51
271.538	271.626	57	54
271.72	271.807	58	45
271.895	271.983	58	47
271.896	271.983	46	34
271.896	271.983	55	41
272.066	272.154	59	48
272.242	272.329	39	45
272.242	272.329	59	50
272.416	272.504	60	52
272.585	272.672	46	41
272.585	272.672	60	54
272.588	272.672	55	49
272.752	272.836	61	55
272.945	273.037	62	58
273.127	273.218	61	53
273.308	273.396	60	53
273.309	273.4	46	34
273.312	273.401	53	41
273.491	273.579	59	53
273.662	273.75	58	57
273.666	273.753	39	45
273.841	273.925	57	54
274.012	274.107	56	54
274.013	274.108	46	37
274.016	274.108	53	44
274.195	274.278	60	54
274.366	274.46	55	57
274.552	274.64	56	54
274.726	274.814	57	54
274.73	274.815	46	34
274.731	274.815	51	40
274.898	274.955	58	54
274.999	275.038	57	49
275.042	275.08	58	49
275.083	275.122	60	49
275.123	275.203	39	45
275.123	275.203	58	57
275.29	275.37	57	53
275.455	275.539	58	57
275.456	275.542	46	36
275.456	275.542	51	43
275.634	275.72	55	54
275.819	275.906	53	57
275.997	276.085	55	51
276.172	276.26	46	35
276.172	276.26	56	51
276.173	276.26	50	42
276.347	276.435	60	51
276.526	276.614	39	45
276.526	276.613	58	54
276.7	276.788	56	51
276.879	276.967	46	36
276.879	276.966	55	51
276.883	276.971	50	43
277.054	277.142	53	51
277.233	277.32	55	54
277.415	277.502	51	51
277.586	277.677	55	53
277.59	277.678	46	34
277.59	277.678	51	41
277.765	277.856	58	55
277.936	278.023	63	57
277.94	278.024	39	45
278.111	278.199	66	52
278.279	278.367	67	53
278.447	278.535	70	55
278.639	278.717	74	63
278.815	278.898	65	55
278.986	279.322	74	76
278.989	279.322	46	54
278.99	279.322	56	63
279.15	279.322	82	55
279.318	279.392	72	59
279.319	279.644	39	47
279.476	279.556	65	55
279.645	279.956	46	46
279.645	279.956	72	76
279.648	279.956	56	56
279.795	279.956	80	55
279.956	280.033	67	63
280.112	280.19	58	55
280.27	280.606	67	75
280.271	280.606	46	54
280.274	280.606	55	63
280.428	280.606	75	55
280.583	280.652	70	59
280.584	280.879	39	47
280.729	280.802	63	55
280.88	281.194	46	46
280.88	281.194	70	72
280.883	281.194	55	56
281.03	281.194	79	55
281.145	281.194	73	59
281.192	281.257	74	63
281.335	281.405	65	55
281.478	281.787	74	77
281.479	281.787	46	54
281.479	281.787	56	63
281.664	281.787	82	55
281.741	281.787	76	56
281.783	281.849	77	59
281.787	282.056	39	47
281.919	281.989	70	55
282.059	282.36	77	79
282.063	282.36	46	46
282.063	282.36	56	56
282.209	282.36	86	61
282.318	282.36	78	60
282.36	282.424	79	64
282.493	282.563	70	56
282.633	282.934	46	55
282.633	282.934	79	79
282.634	282.934	55	64
282.776	282.934	87	58
282.881	282.934	81	57
282.927	282.987	82	61
282.928	283.189	39	48
283.057	283.126	75	57
283.19	283.488	82	78
283.193	283.488	46	48
283.194	283.488	55	57
283.337	283.488	91	57
283.445	283.488	85	62
283.487	283.55	86	66
283.62	283.683	77	57
283.753	284.044	86	81
283.754	284.044	46	56
283.754	284.044	56	67
283.9	284.044	94	58
284.002	284.044	83	58
284.041	284.106	84	62
284.044	284.31	39	49
284.176	284.24	77	58
284.313	284.597	46	49
284.313	284.597	84	83
284.314	284.597	56	60
284.449	284.597	92	58
284.555	284.597	78	63
284.594	284.66	79	68
284.722	284.792	70	59
284.863	285.148	79	81
284.864	285.148	46	57
284.866	285.148	55	68
285.003	285.148	87	59
285.104	285.148	81	60
285.147	285.408	39	51
285.147	285.206	82	64
285.276	285.339	75	59
285.409	285.693	46	50
285.409	285.693	82	81
285.412	285.693	55	61
285.549	285.693	91	60
285.651	285.693	85	68
285.693	285.751	86	69
285.818	285.885	77	61
285.948	286.245	46	58
285.948	286.245	86	87
285.949	286.245	56	69
286.094	286.245	94	61
286.166	286.245	88	70
286.242	286.302	89	66
286.243	286.501	39	52
286.364	286.434	82	61
286.501	286.791	89	84
286.502	286.791	46	51
286.504	286.791	56	62
286.645	286.791	98	62
286.749	286.791	90	64
286.789	286.847	91	83
286.917	286.981	86	62
287.046	287.358	91	70
287.047	287.358	46	51
287.047	287.358	55	60
287.194	287.358	99	62
287.345	287.859	63	79
287.347	287.639	39	47
287.639	287.933	46	39
287.64	287.936	55	47
287.859	287.936	64	48
287.936	288.019	65	48
288.02	288.114	67	50
288.115	288.202	68	52
288.202	288.496	72	54
288.203	288.496	46	42
288.205	288.496	56	42
288.293	288.496	70	53
288.391	288.496	68	52
288.489	289.053	67	51
288.49	289.053	39	44
288.577	289.053	65	50
288.664	289.053	63	49
288.752	289.053	62	48
288.755	289.053	46	40
288.756	289.053	56	40
288.853	289.053	60	48
288.951	289.053	58	47
289.052	289.136	57	49
289.136	289.228	58	50
289.228	289.314	60	51
289.315	289.633	62	51
289.319	289.633	46	40
289.319	289.633	55	40
289.414	289.633	63	52
289.514	289.633	66	53
289.615	290.166	67	54
289.616	290.166	39	44
289.7	290.166	68	54
289.787	290.166	70	55
289.882	290.166	46	41
289.882	290.166	72	56
289.883	290.166	55	41
289.973	290.127	74	57
290.065	290.166	75	58
290.127	290.25	74	56
290.165	290.25	77	63
290.25	290.337	79	58
290.338	290.428	80	59
290.431	290.694	84	64
290.432	290.708	53	40
290.432	290.709	56	40
290.435	290.711	62	40
290.523	290.694	82	63
290.617	290.711	80	62
290.712	291.265	79	60
290.715	291.265	39	44
290.802	291.265	77	59
290.89	291.265	75	58
290.984	291.265	74	57
290.985	291.265	56	40
290.985	291.265	62	40
290.988	291.265	53	40
291.075	291.265	72	55
291.17	291.265	70	54
291.265	291.352	69	55
291.353	291.439	70	55
291.439	291.527	72	56
291.527	291.8	74	56
291.531	291.807	55	41
291.531	291.807	58	41
291.532	291.808	63	41
291.621	291.8	75	57
291.713	291.811	78	58
291.811	292.356	79	58
291.812	292.356	39	44
291.895	292.356	80	59
291.986	292.356	82	60
292.076	292.356	63	42
292.076	292.356	84	60
292.077	292.356	55	42
292.077	292.356	58	42
292.168	292.315	86	61
292.259	292.356	87	63
292.315	292.441	86	52
292.354	292.441	89	63
292.442	292.524	91	58
292.525	292.612	92	59
292.613	292.877	96	64
292.615	292.895	53	40
292.616	292.896	56	40
292.616	292.898	62	40
292.706	292.877	94	63
292.805	292.899	92	62
292.899	293.442	91	60
292.903	293.442	39	44
292.984	293.442	89	59
293.07	293.442	87	58
293.159	293.442	86	57
293.162	293.442	53	40
293.162	293.442	56	40
293.162	293.442	62	40
293.253	293.442	84	55
293.343	293.442	82	54
293.442	293.521	81	55
293.526	293.609	82	55
293.613	293.697	84	56
293.697	293.966	86	56
293.7	293.97	55	41
293.7	293.973	58	41
293.701	293.974	63	41
293.792	293.966	87	57
293.883	293.974	89	58
293.977	294.523	39	44
293.977	294.523	91	58
294.065	294.523	92	58
294.152	294.523	94	57
294.24	294.523	63	42
294.24	294.523	96	56
294.243	294.523	58	42
294.244	294.523	55	42
294.33	294.523	98	56
294.425	294.523	99	55
294.52	294.603	100	55
294.604	294.691	101	50
294.691	294.782	94	54
294.786	295.332	68	32
294.786	295.331	97	50
294.787	295.335	58	32
294.789	295.335	62	32
294.877	295.423	98	54
294.974	295.518	89	50
295.073	295.612	39	35
295.073	295.612	100	54
295.157	295.612	101	50
295.241	295.612	94	54
295.331	295.612	97	50
295.332	295.612	68	33
295.335	295.612	58	33
295.335	295.612	62	33
295.423	295.612	98	55
295.518	295.612	89	50
295.611	295.696	102	55
295.696	295.786	103	50
295.787	295.87	94	54
295.871	296.427	58	32
295.871	296.424	98	50
295.874	296.425	63	32
295.875	296.424	67	32
295.968	296.515	99	54
296.063	296.605	91	50
296.151	296.711	102	54
296.154	296.711	39	35
296.241	296.711	103	50
296.329	296.711	94	54
296.424	296.711	67	33
296.424	296.711	98	50
296.425	296.711	63	33
296.427	296.711	58	33
296.515	296.711	99	55
296.605	296.711	91	50
296.711	296.794	100	55
296.795	296.878	101	50
296.879	296.969	94	54
296.973	297.526	97	50
296.977	297.529	58	32
296.977	297.527	62	32
296.977	297.527	68	32
297.067	297.617	98	54
297.165	297.715	89	50
297.26	297.814	100	54
297.263	297.814	39	35
297.344	297.814	101	50
297.439	297.814	94	54
297.526	297.814	97	50
297.527	297.814	62	33
297.527	297.814	68	33
297.529	297.814	58	33
297.617	297.814	98	55
297.715	297.814	89	50
297.813	297.893	102	55
297.897	297.988	103	50
297.988	298.075	94	54
298.076	298.632	58	32
298.076	298.63	98	50
298.078	298.632	63	32
298.079	298.63	67	32
298.167	298.727	99	54
298.268	298.818	91	50
298.363	298.915	102	54
298.366	298.915	39	35
298.447	298.915	103	50
298.541	298.915	94	54
298.63	298.915	67	33
298.63	298.915	98	50
298.632	298.915	58	33
298.632	298.915	63	33
298.727	298.915	99	55
298.818	298.915	91	50
298.915	299.002	100	55
299.003	299.09	101	50
299.091	299.181	94	54
299.185	299.737	97	50
299.186	299.738	68	32
299.188	299.742	58	32
299.188	299.738	62	32
299.273	299.829	98	54
299.371	299.924	89	50
299.466	300.025	100	54
299.468	300.025	39	35
299.549	300.025	101	50
299.644	300.025	94	54
299.737	300.025	97	50
299.738	300.025	62	33
299.738	300.025	68	33
299.742	300.025	58	33
299.829	300.025	98	55
299.924	300.025	89	50
300.025	300.105	102	55
300.11	300.2	103	50
300.2	300.295	94	54
300.295	300.852	98	50
300.296	300.855	58	32
300.296	300.854	63	32
300.298	300.854	67	32
300.386	300.949	99	54
300.484	301.043	91	50
300.582	301.139	102	54
300.583	301.139	39	35
300.669	301.139	103	50
300.764	301.139	94	54
300.852	301.139	98	50
300.854	301.139	63	33
300.854	301.139	67	33
300.855	301.139	58	33
300.949	301.139	99	55
301.043	301.139	91	50
301.139	301.226	100	55
301.229	301.319	101	50
301.32	301.414	94	54
301.415	301.982	68	32
301.415	301.977	97	50
301.416	301.982	58	32
301.418	301.982	62	32
301.505	302.07	98	54
301.607	302.16	89	50
301.702	302.262	39	35
301.702	302.262	100	54
301.79	302.262	101	50
301.884	302.262	94	54
301.977	302.262	97	50
301.982	302.262	58	33
301.982	302.262	62	33
301.982	302.262	68	33
302.07	302.262	98	55
302.16	302.262	89	50
302.258	302.37	102	50
302.262	302.37	93	50
302.332	302.475	94	55
302.335	302.475	103	55
302.8	303.462	58	32
302.836	303.462	39	33
302.836	303.063	66	47
302.836	303.063	74	47
302.92	303.073	67	52
302.92	303.073	75	52
303.42	304.368	41	30
303.463	303.623	86	45
303.466	304.368	56	33
303.466	303.623	77	45
303.564	303.746	80	51
303.564	303.745	89	51
304.18	304.988	43	30
304.231	304.368	62	46
304.232	304.989	59	33
304.232	304.368	71	46
304.341	304.553	65	52
304.341	304.554	74	52
304.991	306.357	48	33
305.04	306.357	55	33
305.093	306.357	63	33
305.093	305.269	72	36
305.188	305.349	74	33
305.269	305.429	72	37
305.349	305.513	74	33
305.429	305.594	72	37
305.513	305.67	74	33
305.594	305.751	72	37
305.67	305.825	74	33
305.751	305.902	72	37
305.825	305.976	74	33
305.902	306.052	72	37
305.976	306.129	74	33
306.052	306.203	72	37
306.129	306.277	74	33
306.203	306.357	72	37
306.277	306.357	74	33
306.356	307.588	71	38
306.43	307.588	72	33
306.504	306.661	74	34
306.585	306.735	75	34
306.661	307.588	74	41
306.735	307.588	75	36
306.812	306.963	78	37
306.889	307.039	79	44
306.963	307.588	78	38
307.039	307.588	79	39
307.109	307.26	83	39
307.183	307.334	84	40
307.26	307.588	83	47
307.334	307.588	84	42
307.41	307.557	86	42
307.48	307.588	87	43
307.557	308.754	86	51
307.63	308.754	87	45
307.701	307.852	90	45
307.774	307.922	91	54
307.852	308.754	90	47
307.922	308.754	91	47
307.995	308.142	95	48
308.072	308.219	96	49
308.142	308.751	95	57
308.219	308.754	96	50
308.288	308.438	98	51
308.362	308.509	99	52
308.438	308.754	98	61
308.509	308.754	99	53
308.583	308.754	102	54
308.67	308.754	103	65
308.751	309.189	95	61
308.828	309.262	96	53
308.898	310.535	98	53
308.971	310.535	99	53
309.048	309.479	90	54
309.118	309.548	91	48
309.189	310.535	95	49
309.262	310.535	96	49
309.332	309.769	86	51
309.402	309.847	87	45
309.479	310.535	90	45
309.548	310.535	91	45
309.622	310.076	83	47
309.692	310.151	84	42
309.769	310.535	86	42
309.847	310.535	87	43
309.93	310.364	78	44
310.0	310.452	79	39
310.076	310.535	83	40
310.151	310.535	84	40
310.22	310.535	74	40
310.294	310.535	75	36
310.364	310.535	78	37
310.452	310.535	79	36
310.533	310.966	71	41
310.602	311.036	72	38
310.678	311.253	74	40
310.753	311.322	75	41
310.823	311.739	66	43
310.899	311.739	67	44
310.966	311.114	71	46
311.036	311.184	72	47
311.114	311.705	71	49
311.184	311.739	72	49
311.253	311.397	74	51
311.322	311.474	75	53
311.397	311.739	74	55
311.474	311.739	75	57
311.551	311.739	78	59
311.63	311.739	79	61
311.705	311.781	71	41
311.782	312.212	72	38
311.851	312.426	74	40
311.925	312.502	75	41
311.995	312.888	66	43
312.073	312.888	67	44
312.143	312.286	71	46
312.212	312.356	72	47
312.286	312.884	71	49
312.356	312.888	72	49
312.426	312.573	74	51
312.502	312.646	75	53
312.573	312.888	74	55
312.646	312.888	75	57
312.717	312.888	78	59
312.797	312.888	79	61
312.884	313.318	71	54
312.954	313.389	72	49
313.031	314.102	74	47
313.101	314.102	75	47
313.175	313.609	66	47
313.245	313.686	67	53
313.318	313.906	71	45
313.389	313.976	72	45
313.466	314.102	62	50
313.535	314.102	63	41
313.609	313.756	66	41
313.686	313.833	67	41
313.756	314.102	66	46
313.833	314.102	67	43
313.906	314.102	71	43
313.976	314.102	72	43
314.053	317.816	44	43
314.103	317.816	53	43
314.155	317.816	60	43
314.207	317.816	65	43
314.26	317.816	72	43
314.315	314.708	77	43
314.606	315.996	76	43
314.708	314.898	77	42
314.799	314.96	79	43
314.898	315.033	77	48
314.96	315.1	79	43
315.033	315.173	77	47
315.1	315.236	79	43
315.173	315.307	77	47
315.236	315.377	79	43
315.307	315.446	77	50
315.377	315.509	79	43
315.446	315.576	77	49
315.509	315.649	79	43
315.576	315.716	77	48
315.649	315.786	79	43
315.716	315.856	77	46
315.786	315.926	79	43
315.856	316.28	77	49
315.926	317.504	79	43
315.996	317.816	76	47
316.28	317.802	77	47
316.57	317.816	86	58
316.693	317.816	85	56
316.825	317.816	84	55
316.954	317.816	83	54
317.088	317.816	82	53
317.225	317.816	81	52
317.371	317.816	80	51
317.504	317.816	79	50
317.655	317.816	78	49
317.802	317.973	77	49
317.976	318.172	71	48
318.173	318.379	72	46
318.383	318.631	77	45
318.632	318.9	76	44
318.905	319.111	75	43
319.114	319.292	75	43
319.293	321.659	46	37
319.37	321.662	53	38
319.443	321.663	58	39
319.517	321.666	62	47
319.593	321.666	68	49
319.699	321.667	74	51
321.667	321.851	62	46
321.669	321.854	34	35
321.725	321.854	68	50
321.788	321.855	77	58
322.169	322.254	75	56
322.17	322.255	67	47
322.173	322.255	39	43
322.334	322.422	70	41
322.334	322.421	77	49
322.502	322.586	79	50
322.503	322.587	46	46
322.503	322.586	75	42
322.663	322.75	80	44
322.667	322.755	77	37
322.792	322.838	84	56
322.839	322.919	82	50
322.841	322.922	79	42
322.842	322.923	55	51
323.083	323.163	81	45
323.084	323.164	78	38
323.167	323.248	82	59
323.168	323.249	63	68
323.168	323.248	79	50
323.492	323.57	56	68
323.653	323.727	63	51
323.654	323.728	72	51
323.807	323.892	72	44
323.808	323.892	68	37
323.976	324.059	75	43
323.976	324.06	84	51
324.129	324.214	84	60
324.13	324.214	75	51
324.298	324.371	79	55
324.298	324.374	83	55
324.451	324.536	80	54
324.452	324.537	84	64
324.791	324.865	55	68
324.945	325.022	63	51
324.949	325.023	70	51
325.102	325.183	70	44
325.103	325.187	67	37
325.267	325.351	75	43
325.267	325.354	82	51
325.421	325.509	82	60
325.424	325.509	75	51
325.589	325.674	78	55
325.593	325.674	81	55
325.746	325.827	79	54
325.747	325.831	82	64
326.082	326.16	53	68
326.24	326.321	62	51
326.24	326.325	68	51
326.397	326.478	68	44
326.398	326.479	65	37
326.566	326.649	74	43
326.566	326.65	80	51
326.723	326.804	80	60
326.724	326.805	74	51
326.888	326.964	76	55
326.888	326.969	79	55
327.041	327.122	77	54
327.042	327.123	80	64
327.377	327.455	51	68
327.535	327.616	63	51
327.539	327.616	67	51
327.699	327.777	67	44
327.7	327.78	63	37
327.861	327.941	75	43
327.861	327.942	79	51
328.014	328.099	79	60
328.018	328.1	75	51
328.186	328.263	74	55
328.186	328.264	78	55
328.343	328.417	75	54
328.344	328.421	79	64
328.672	328.76	80	52
328.673	328.761	72	44
328.676	328.761	46	48
328.841	328.928	79	47
328.844	328.929	70	39
329.008	329.089	77	47
329.012	329.093	68	39
329.013	329.093	62	42
329.177	329.267	75	47
329.18	329.268	67	39
329.351	329.436	74	52
329.352	329.436	65	44
329.355	329.437	46	47
329.52	329.604	62	38
329.52	329.603	70	45
329.687	329.775	72	45
329.688	329.775	63	38
329.691	329.779	56	40
329.863	329.957	74	45
329.867	329.958	65	38
330.041	330.125	75	56
330.042	330.125	67	47
330.045	330.126	39	43
330.206	330.287	70	41
330.206	330.286	77	49
330.367	330.451	79	50
330.37	330.451	75	42
330.371	330.452	46	46
330.535	330.618	80	44
330.539	330.619	77	37
330.664	330.71	84	56
330.71	330.79	82	50
330.713	330.794	79	42
330.714	330.794	55	51
330.874	330.954	78	38
330.875	330.955	81	45
331.035	331.116	82	59
331.036	331.116	79	50
331.039	331.119	63	68
331.361	331.441	68	68
331.525	331.602	75	51
331.526	331.606	84	51
331.686	331.763	80	37
331.686	331.763	84	44
331.836	331.91	87	43
331.841	331.914	96	51
331.987	332.068	96	60
331.988	332.068	87	51
332.148	332.232	91	55
332.152	332.233	95	55
332.306	332.386	92	54
332.307	332.39	96	64
332.645	332.726	67	68
332.806	332.886	75	51
332.807	332.89	82	51
332.974	333.044	79	37
332.974	333.044	82	44
333.122	333.194	87	43
333.122	333.198	94	51
333.268	333.359	94	60
333.272	333.359	87	51
333.44	333.513	90	55
333.44	333.514	93	55
333.59	333.671	91	54
333.591	333.674	94	64
333.919	334.003	65	68
334.084	334.164	74	51
334.084	334.168	80	51
334.245	334.322	80	44
334.248	334.322	77	37
334.396	334.472	86	43
334.396	334.473	92	51
334.549	334.626	92	60
334.55	334.63	86	51
334.71	334.79	88	55
334.711	334.794	91	55
334.867	334.948	89	54
334.868	334.948	92	64
335.204	335.284	63	68
335.362	335.441	75	51
335.362	335.442	79	51
335.522	335.599	79	44
335.526	335.599	75	37
335.673	335.749	87	43
335.676	335.75	91	51
335.826	335.911	91	60
335.827	335.914	87	51
335.995	336.068	86	55
335.995	336.069	90	55
336.148	336.226	87	54
336.152	336.229	91	64
336.481	336.562	92	52
336.482	336.562	84	44
336.484	336.563	58	48
336.646	336.727	82	39
336.646	336.726	91	47
336.806	336.887	89	47
336.807	336.891	74	42
336.807	336.888	80	39
336.961	337.055	87	47
336.964	337.056	79	39
337.143	337.223	86	52
337.146	337.227	58	47
337.146	337.223	77	44
337.301	337.381	74	38
337.301	337.38	82	45
337.461	337.549	84	45
337.465	337.549	75	38
337.466	337.552	68	40
337.629	337.716	86	45
337.63	337.72	77	38
337.804	337.881	87	56
337.805	337.882	51	43
337.805	337.881	79	47
337.962	338.043	82	41
337.962	338.042	89	49
338.119	338.196	91	50
338.12	338.203	58	41
338.12	338.2	87	42
338.281	338.364	89	37
338.281	338.36	92	44
338.445	338.525	94	50
338.446	338.525	67	48
338.446	338.525	91	42
338.598	338.682	90	38
338.603	338.682	93	45
338.755	338.836	96	50
338.756	338.839	92	50
338.759	338.839	75	51
338.92	339.001	91	38
338.92	339.002	94	45
339.081	339.169	92	52
339.082	339.172	58	48
339.082	339.169	84	44
339.249	339.332	82	39
339.249	339.33	91	47
339.406	339.494	89	47
339.407	339.495	80	39
339.41	339.495	74	42
339.575	339.655	79	40
339.575	339.654	87	48
339.736	339.816	86	54
339.74	339.819	58	48
339.74	339.819	77	45
339.901	339.981	74	39
339.901	339.98	82	47
340.062	340.145	75	40
340.062	340.141	84	48
340.064	340.145	68	42
340.225	340.305	86	48
340.226	340.306	77	41
340.379	340.463	87	61
340.383	340.463	79	51
340.384	340.464	51	46
340.537	340.614	82	45
340.537	340.614	89	53
340.687	340.771	91	55
340.691	340.772	58	46
340.691	340.772	87	46
340.845	340.929	89	41
340.845	340.925	92	49
341.009	341.083	94	57
341.01	341.084	67	51
341.01	341.084	91	47
341.16	341.233	90	43
341.16	341.237	93	51
341.313	341.391	96	58
341.314	341.392	92	58
341.317	341.392	75	57
341.468	341.545	91	44
341.468	341.549	94	52
341.621	341.706	92	61
341.622	341.707	84	52
341.626	341.707	58	57
341.779	341.86	91	56
341.78	341.864	82	46
341.943	342.017	89	56
341.944	342.022	65	43
341.944	342.021	80	47
341.945	342.022	74	50
342.098	342.189	79	47
342.098	342.186	87	57
342.272	342.36	86	63
342.273	342.361	77	54
342.608	342.773	70	51
342.613	342.774	56	41
342.613	342.777	68	49
342.613	342.773	82	60
342.777	342.927	71	51
342.778	342.931	83	60
342.78	342.931	55	41
342.78	342.931	67	49
342.935	343.095	66	57
342.935	343.092	72	53
342.935	343.092	84	63
342.937	343.095	54	48
343.095	343.252	73	49
343.096	343.257	85	58
343.099	343.257	53	44
343.099	343.257	65	52
343.259	343.417	74	49
343.26	343.418	64	52
343.26	343.417	86	58
343.261	343.421	52	44
343.421	343.571	75	49
343.422	343.575	87	58
343.424	343.579	51	44
343.424	343.575	63	52
343.579	343.736	74	53
343.579	343.736	86	63
343.581	343.739	62	58
343.582	343.739	50	49
343.74	343.896	87	59
343.743	343.901	61	53
343.743	343.901	75	50
343.744	343.903	49	45
343.904	344.058	76	50
343.904	344.058	88	59
343.905	344.059	60	53
343.907	344.059	48	45
344.059	344.218	77	50
344.061	344.219	47	45
344.061	344.219	89	59
344.062	344.222	59	53
344.223	344.373	76	58
344.223	344.376	88	69
344.224	344.377	58	59
344.225	344.38	46	50
344.38	344.53	77	52
344.381	344.533	57	54
344.381	344.531	89	62
344.383	344.534	45	45
344.537	344.681	78	52
344.538	344.685	44	46
344.538	344.684	90	62
344.54	344.688	56	55
344.688	344.838	79	52
344.689	344.839	55	55
344.689	344.839	91	62
344.691	344.842	43	46
344.842	344.996	78	59
344.846	344.999	42	46
344.846	344.999	54	55
344.846	344.996	90	70
345.0	345.153	79	54
345.003	345.154	41	53
345.003	345.154	91	64
345.004	345.156	53	63
345.157	345.307	80	54
345.157	345.311	92	64
345.16	345.312	40	48
345.161	345.314	52	57
345.314	345.465	81	54
345.315	345.469	93	64
345.318	345.469	39	48
345.318	345.47	51	57
345.472	346.081	38	56
345.472	346.081	80	62
345.472	346.081	92	74
345.473	346.081	50	66
345.622	346.081	81	53
345.623	346.081	37	50
345.623	346.081	93	63
345.626	346.081	49	59
345.773	346.074	82	54
345.773	346.075	94	64
345.774	346.081	36	51
345.777	346.081	48	60
345.93	346.081	83	54
345.931	346.081	35	51
345.931	346.081	95	64
345.934	346.081	47	60
346.074	346.747	82	64
346.075	346.746	94	75
346.078	346.747	34	59
346.078	346.747	46	71
346.229	346.747	83	59
346.231	346.747	95	71
346.393	346.747	84	64
346.396	346.747	33	60
346.396	346.747	96	77
346.397	346.747	45	72
346.554	346.747	85	69
346.555	346.747	97	82
346.743	347.097	98	93
346.744	347.099	86	79
346.746	347.466	32	66
346.746	347.466	44	78
346.746	347.1	94	79
347.097	347.466	98	85
347.099	347.466	86	72
347.1	347.466	65	70
347.1	347.466	94	72
347.101	347.466	60	59
347.102	347.466	53	59
347.429	347.751	96	93
347.43	347.754	84	79
347.431	347.754	92	79
347.432	348.083	34	66
347.432	348.083	46	78
347.751	348.083	96	88
347.754	348.083	65	71
347.754	348.083	84	74
347.754	348.083	92	74
347.758	348.083	53	60
347.758	348.083	62	60
348.08	349.412	79	78
348.08	348.392	91	92
348.081	349.412	87	78
348.083	348.721	39	66
348.083	348.721	51	78
348.391	348.72	82	70
348.391	348.719	94	83
348.392	348.72	91	70
348.395	349.035	55	60
348.395	349.035	63	60
348.395	349.033	67	71
348.719	349.029	94	89
348.72	349.032	82	74
348.72	349.032	91	74
348.721	349.412	39	66
348.721	349.412	51	78
348.871	349.412	81	67
348.874	349.412	90	67
348.875	349.412	93	79
349.029	349.412	94	88
349.032	349.412	82	74
349.032	349.412	91	74
349.033	349.412	67	71
349.035	349.412	55	60
349.035	349.412	63	60
349.368	349.994	89	82
349.37	349.994	77	69
349.371	349.994	41	66
349.371	349.994	53	78
349.515	349.994	79	68
349.515	349.994	91	81
349.679	349.994	80	68
349.679	349.994	92	81
349.68	349.994	65	71
349.683	349.994	56	60
349.683	349.994	60	60
349.829	349.994	96	81
349.83	349.994	84	68
349.987	350.621	94	83
349.988	350.621	82	70
349.991	350.621	34	66
349.991	350.621	46	78
350.141	350.621	92	80
350.144	350.621	80	68
350.302	350.617	79	68
350.302	350.615	91	81
350.303	350.621	62	60
350.303	350.621	65	71
350.306	350.621	56	60
350.453	350.621	89	81
350.456	350.621	77	68
350.615	350.922	91	92
350.617	351.905	79	78
350.617	351.905	87	92
350.618	351.258	51	78
350.621	351.258	39	66
350.922	351.255	91	83
350.925	351.566	67	71
350.925	351.258	82	70
350.925	351.254	94	83
350.926	351.566	63	60
350.929	351.567	55	60
351.17	351.905	81	67
351.171	351.905	90	79
351.173	351.905	93	79
351.254	351.902	94	89
351.255	351.905	91	89
351.258	351.905	39	66
351.258	351.905	51	78
351.258	351.905	82	74
351.566	351.905	63	60
351.566	351.905	67	71
351.567	351.905	55	60
351.899	352.245	98	93
351.902	352.595	44	78
351.902	352.248	86	79
351.902	352.248	94	79
351.903	352.595	32	66
352.245	352.595	98	85
352.248	352.595	65	70
352.248	352.595	86	72
352.248	352.595	94	72
352.249	352.595	60	59
352.252	352.595	53	59
352.591	352.934	84	79
352.591	352.931	96	93
352.592	352.934	92	79
352.595	353.281	34	66
352.595	353.281	46	78
352.931	353.281	96	88
352.934	353.281	65	71
352.934	353.281	84	74
352.934	353.281	92	74
352.935	353.281	62	60
352.938	353.281	53	60
353.275	353.59	91	92
353.277	354.624	79	78
353.277	354.624	87	78
353.278	353.922	39	66
353.278	353.921	51	78
353.589	353.921	82	70
353.589	353.919	94	83
353.59	353.921	91	70
353.592	354.229	55	60
353.592	354.229	63	60
353.592	354.229	67	71
353.919	354.226	94	89
353.921	354.624	51	78
353.921	354.226	82	74
353.921	354.227	91	74
353.922	354.624	39	66
354.075	354.624	81	67
354.076	354.624	90	67
354.076	354.624	93	79
354.226	354.624	82	74
354.226	354.624	94	88
354.227	354.624	91	74
354.229	354.624	55	60
354.229	354.624	63	60
354.229	354.624	67	71
354.576	355.236	77	61
354.576	355.236	89	72
354.577	354.906	80	61
354.579	355.236	41	66
354.579	355.236	53	78
354.736	355.236	91	74
354.74	355.236	79	62
354.741	355.233	82	62
354.905	355.236	92	77
354.906	355.236	80	64
354.908	355.236	60	60
354.908	355.236	65	71
354.908	355.236	83	64
354.911	355.236	56	60
355.065	355.236	93	79
355.066	355.236	81	67
355.066	355.236	84	67
355.23	355.864	94	81
355.231	355.864	85	68
355.233	355.864	82	68
355.234	355.864	34	66
355.234	355.864	46	78
355.384	355.864	95	83
355.385	355.864	83	70
355.387	355.7	86	70
355.542	355.864	96	85
355.545	355.864	65	71
355.545	355.864	84	72
355.545	355.859	87	72
355.549	355.864	56	60
355.549	355.864	62	60
355.699	355.864	98	86
355.7	355.864	86	73
355.7	355.864	89	73
355.857	355.933	99	89
355.859	355.934	87	74
355.86	356.997	39	66
355.86	355.934	91	74
355.861	356.997	51	78
356.175	356.84	75	68
356.179	356.844	55	60
356.179	356.84	79	68
356.179	356.844	87	81
356.182	356.844	58	60
356.182	356.845	63	60
356.182	356.847	67	71
356.84	356.997	75	61
356.84	356.997	79	61
356.844	356.997	55	54
356.844	356.997	58	54
356.844	356.997	87	72
356.845	356.997	63	54
356.847	356.997	67	63
357.159	357.316	56	36
357.159	357.312	62	51
357.159	357.239	65	63
357.162	357.319	51	36
357.162	357.317	58	43
357.319	357.397	67	59
357.47	358.079	58	39
357.47	358.079	62	52
357.47	357.55	68	59
357.474	358.083	51	33
357.474	358.083	56	33
357.627	357.708	72	59
357.785	357.858	70	64
357.928	358.005	68	55
358.086	358.236	62	50
358.086	358.155	67	56
358.087	358.237	58	39
358.09	358.241	51	33
358.09	358.24	56	33
358.241	358.313	65	57
358.387	358.464	70	63
358.391	358.464	61	51
358.391	358.464	67	53
358.392	358.468	51	51
358.649	358.685	72	57
358.686	358.762	67	53
358.686	358.762	70	63
358.688	359.277	51	33
358.688	359.276	61	39
358.908	358.985	66	47
358.913	358.985	69	56
358.989	359.594	67	52
358.99	359.598	70	62
359.277	359.441	61	43
359.279	359.441	51	40
359.599	359.752	60	51
359.599	359.675	65	63
359.601	359.752	51	36
359.601	359.752	56	43
359.756	359.829	67	59
359.902	360.494	60	52
359.903	359.98	68	59
359.906	360.497	51	33
359.906	360.495	56	39
360.052	360.123	72	59
360.196	360.273	70	64
360.344	360.42	68	55
360.497	360.652	62	50
360.501	360.652	59	43
360.501	360.571	67	56
360.502	360.655	51	33
360.655	360.729	65	57
360.802	360.889	67	63
360.803	360.89	63	53
360.805	360.893	58	51
360.806	360.893	51	51
361.145	361.726	58	46
361.146	361.726	63	52
361.148	361.727	55	39
361.149	361.729	51	33
361.687	361.736	62	46
361.688	361.736	54	37
361.726	361.869	58	53
361.726	361.87	63	63
361.727	361.873	55	43
361.729	361.873	51	40
362.023	362.093	65	53
362.024	362.167	39	43
362.024	362.094	77	63
362.167	362.241	67	50
362.17	362.244	79	59
362.311	362.758	68	50
362.314	362.91	56	39
362.314	362.763	80	59
362.318	362.913	46	33
362.318	362.91	50	33
362.461	363.204	72	50
362.464	363.204	84	59
362.608	363.2	70	54
362.608	363.199	82	64
362.758	363.204	68	46
362.763	363.204	80	55
362.909	363.204	67	47
362.909	363.204	79	56
362.91	363.204	50	33
362.91	363.204	56	39
362.913	363.204	46	33
363.053	363.204	65	48
363.053	363.204	77	57
363.199	363.27	82	63
363.2	363.27	70	53
363.203	363.273	39	51
363.451	363.483	84	57
363.486	363.791	70	53
363.487	363.792	82	63
363.49	364.075	55	33
363.491	364.078	49	33
363.491	364.076	58	39
363.71	364.424	69	47
363.715	364.424	81	56
363.791	364.424	70	52
363.792	364.424	82	62
364.075	364.424	55	40
364.076	364.424	58	43
364.078	364.424	49	40
364.397	364.473	65	53
364.4	364.474	77	63
364.401	364.547	39	43
364.547	364.627	67	50
364.551	364.628	79	59
364.704	365.145	68	50
364.705	365.289	48	33
364.705	365.146	80	59
364.708	365.293	51	33
364.708	365.293	56	39
364.848	365.279	72	50
364.848	365.279	84	59
364.998	365.279	70	54
365.003	365.279	82	64
365.145	365.279	68	46
365.146	365.279	80	55
365.293	365.373	67	47
365.296	365.446	47	33
365.296	365.374	79	56
365.297	365.446	56	43
365.3	365.45	51	33
365.45	365.527	65	48
365.451	365.531	77	57
365.604	365.689	67	53
365.604	365.684	79	63
365.605	365.689	39	51
365.94	366.521	63	46
365.94	366.522	75	52
365.941	366.522	55	39
365.944	366.525	46	33
366.486	366.539	74	46
366.521	366.678	63	53
366.522	366.679	55	43
366.522	366.679	75	63
366.525	366.68	46	40
366.794	366.822	66	36
366.822	366.909	67	50
366.826	366.912	43	32
366.826	366.913	50	40
366.826	366.91	59	42
367.162	367.757	60	36
367.162	367.747	63	41
367.163	367.757	55	31
367.165	367.757	48	26
367.704	367.757	62	36
367.746	367.893	59	42
367.747	367.893	63	50
367.75	367.894	44	32
367.75	367.894	51	34
368.04	368.974	91	50
368.043	368.974	79	42
368.044	368.974	39	40
368.376	368.958	75	36
368.379	368.96	87	41
368.38	368.961	55	31
368.383	368.961	46	26
368.922	368.974	86	36
368.958	369.115	75	42
368.96	369.118	87	50
368.961	369.119	46	32
368.961	369.118	55	34
369.226	369.261	66	36
369.262	369.342	67	50
369.265	369.343	59	42
369.266	369.343	43	32
369.266	369.345	50	40
369.597	370.196	60	36
369.598	370.196	55	31
369.598	370.179	63	41
369.601	370.196	48	26
370.143	370.196	62	36
370.179	370.332	51	34
370.179	370.329	59	42
370.179	370.33	63	50
370.182	370.332	44	32
370.487	370.581	55	42
370.487	370.582	58	42
370.487	370.582	67	50
370.49	370.582	39	32
370.49	370.584	51	40
370.85	371.485	55	36
370.854	371.485	60	36
370.855	371.485	48	31
370.855	371.471	63	41
370.856	371.485	36	26
371.431	371.485	62	36
371.467	371.624	56	42
371.468	371.625	59	42
371.471	371.627	32	32
371.471	371.627	44	34
371.471	371.625	63	50
371.778	371.872	55	42
371.782	371.876	58	42
371.782	371.876	67	50
371.784	371.877	39	32
371.785	371.877	51	40
372.138	372.771	55	36
372.143	372.771	48	31
372.143	372.771	60	36
372.143	372.758	63	41
372.146	372.771	36	26
372.72	372.771	62	36
372.756	372.93	56	42
372.758	372.933	44	34
372.758	372.93	59	42
372.758	372.931	63	50
372.759	372.934	32	32
373.104	373.789	55	39
373.105	373.801	58	39
373.105	373.801	67	46
373.108	373.801	39	33
373.109	373.801	51	39
373.789	374.463	55	33
373.79	374.463	60	33
373.791	374.463	36	22
373.791	374.463	63	39
373.792	374.463	48	31
375.082	375.11	62	36
375.114	375.708	56	33
375.114	375.712	59	33
375.117	375.792	32	22
375.117	375.713	63	39
375.118	375.793	44	31
375.713	376.868	55	37
375.75	377.015	63	39
375.793	377.015	70	40
375.796	377.015	27	22
375.796	377.015	39	31
376.129	377.015	43	31
376.286	377.015	44	30
376.43	377.015	45	30
376.577	377.015	46	30
376.721	377.015	51	30
376.868	377.015	55	30
377.015	377.151	56	30
377.151	377.294	57	30
377.298	377.434	58	30
377.435	377.581	63	28
377.581	377.721	67	28
377.722	377.851	68	27
377.854	377.991	69	26
377.995	378.131	70	25
378.134	379.628	75	27
378.264	379.628	79	27
378.397	379.628	80	27
378.537	379.628	81	27
378.674	379.628	82	27
378.814	379.628	87	27
378.943	379.628	91	27
379.091	379.628	92	27
379.23	379.628	93	27
379.374	379.628	94	27
379.517	379.663	99	33
381.62	381.98	70	81
381.621	381.981	46	61
381.621	381.981	82	96
381.623	381.984	58	72
381.98	382.044	70	77
381.981	382.045	46	57
381.981	382.044	82	91
381.984	382.047	58	68
382.149	382.211	70	77
382.149	382.212	82	91
382.15	382.212	46	57
382.152	382.215	58	68
382.32	382.874	75	85
382.324	382.874	87	101
382.325	382.875	51	63
382.325	382.877	63	75
382.874	382.936	75	74
382.874	382.939	87	89
382.875	382.939	51	55
382.877	382.94	63	66
383.052	383.396	73	79
383.055	383.396	85	93
383.056	383.396	49	58
383.059	383.396	61	69
383.219	383.396	71	79
383.224	383.396	47	58
383.224	383.396	83	93
383.226	383.396	59	69
383.391	383.455	70	78
383.391	383.455	82	92
383.395	383.456	46	57
383.395	383.458	58	68
383.562	383.626	68	81
383.563	383.629	80	96
383.566	383.63	44	61
383.569	383.633	56	72
383.738	383.807	70	80
383.741	383.812	46	60
383.741	383.808	82	94
383.742	383.812	58	70
383.919	383.986	63	75
383.92	383.99	39	56
383.92	383.99	75	90
383.923	383.993	51	67
384.102	384.511	63	75
384.106	384.512	75	90
384.109	384.512	39	56
384.109	384.514	51	67
384.515	384.875	67	57
384.515	384.876	70	68
384.518	384.878	63	51
384.875	384.938	67	54
384.876	384.942	70	64
384.878	384.942	61	40
384.878	384.945	63	48
385.05	385.113	70	64
385.054	385.116	61	40
385.054	385.117	63	48
385.054	385.114	67	54
385.225	385.771	66	60
385.226	385.772	59	45
385.226	385.768	75	71
385.228	385.772	63	53
385.768	385.834	75	62
385.771	385.835	66	52
385.772	385.837	59	39
385.772	385.838	63	46
385.946	386.135	67	56
385.946	386.135	73	66
385.947	386.135	58	49
385.947	386.135	63	55
386.115	386.177	70	66
386.118	386.178	61	49
386.282	386.453	63	55
386.282	386.345	71	65
386.283	386.345	56	48
386.457	386.52	68	68
386.458	386.521	59	51
386.629	386.814	63	56
386.629	386.699	70	67
386.632	386.699	55	50
386.814	386.884	63	63
386.818	386.888	58	47
387.0	387.405	63	57
387.41	387.762	67	57
387.41	387.762	70	68
387.412	387.762	63	51
387.766	387.833	67	54
387.769	387.834	70	64
387.77	387.834	61	40
387.773	387.836	63	48
387.941	388.008	67	54
387.941	388.004	70	64
387.942	388.008	61	40
387.945	388.008	63	48
388.116	388.663	66	60
388.117	388.659	59	45
388.117	388.656	75	71
388.119	388.659	63	53
388.469	388.663	67	60
388.656	388.721	68	52
388.656	388.718	75	62
388.659	388.722	59	39
388.659	388.722	63	46
388.834	389.008	64	56
388.837	389.008	68	56
388.838	389.008	73	66
388.841	389.008	58	49
389.002	389.061	71	66
389.003	389.062	61	49
389.166	389.344	61	55
389.17	389.345	67	55
389.17	389.236	70	65
389.171	389.236	51	48
389.348	389.414	63	68
389.351	389.415	55	51
389.527	389.597	63	58
389.527	389.597	68	70
389.53	389.572	56	43
389.53	389.597	59	52
389.712	389.782	63	66
389.713	389.783	59	49
389.898	390.178	63	60
389.898	390.178	68	70
389.899	390.179	56	47
389.901	390.179	59	56
390.269	390.622	70	81
390.269	390.622	82	96
390.273	390.622	46	61
390.273	390.622	58	72
390.629	390.692	70	77
390.63	390.695	46	57
390.63	390.693	82	91
390.633	390.696	58	68
390.797	390.86	70	77
390.797	390.864	82	91
390.798	390.864	46	57
390.801	390.864	58	68
390.973	391.529	75	85
390.973	391.53	87	101
390.976	391.53	51	63
390.976	391.532	63	75
391.529	391.588	75	74
391.53	391.589	51	55
391.53	391.589	87	89
391.532	391.592	63	66
391.703	392.044	73	79
391.704	392.044	49	58
391.704	392.044	85	93
391.707	392.044	61	69
391.872	392.044	71	79
391.872	392.044	83	93
391.873	392.044	47	58
391.876	392.044	59	69
392.04	392.103	70	78
392.041	392.106	46	57
392.041	392.104	82	92
392.043	392.106	58	68
392.215	392.284	68	81
392.215	392.285	80	96
392.219	392.289	44	61
392.219	392.289	56	72
392.386	392.456	70	80
392.387	392.456	82	94
392.39	392.46	46	60
392.393	392.46	58	70
392.575	392.641	63	75
392.576	392.646	39	56
392.576	392.646	75	90
392.579	392.646	51	67
392.761	393.171	63	75
392.762	393.174	39	56
392.762	393.171	75	90
392.764	393.178	51	67
393.178	393.528	67	57
393.179	393.528	70	68
393.181	393.528	63	51
393.537	393.6	67	54
393.538	393.604	61	40
393.538	393.601	70	64
393.541	393.605	63	48
393.706	393.769	70	64
393.707	393.77	67	54
393.709	393.77	61	40
393.709	393.772	63	48
393.881	394.427	59	45
393.881	394.427	66	60
393.881	394.423	75	71
393.885	394.427	63	53
394.423	394.49	75	62
394.427	394.494	59	39
394.427	394.494	63	46
394.427	394.49	66	52
394.601	394.791	67	56
394.602	394.791	63	55
394.602	394.791	73	66
394.603	394.791	58	49
394.771	394.833	61	49
394.771	394.832	70	66
394.937	395.109	63	55
394.938	395.002	56	48
394.938	394.997	71	65
395.113	395.176	59	51
395.113	395.176	68	68
395.284	395.47	63	56
395.285	395.354	70	67
395.288	395.354	55	50
395.474	395.537	58	47
395.474	395.536	63	63
395.652	396.061	63	57
396.065	396.422	67	57
396.066	396.427	63	51
396.066	396.426	70	68
396.422	396.488	67	54
396.426	396.489	61	40
396.426	396.489	70	64
396.427	396.49	63	48
396.59	396.649	70	64
396.593	396.65	61	40
396.593	396.65	67	54
396.594	396.653	63	48
396.755	397.311	66	60
396.755	397.304	75	71
396.756	397.305	59	45
396.758	397.305	63	53
397.108	397.311	67	60
397.304	397.37	68	52
397.304	397.37	75	62
397.305	397.371	59	39
397.305	397.374	63	46
397.478	397.664	64	56
397.479	397.664	68	56
397.479	397.664	73	66
397.483	397.664	58	49
397.655	397.717	71	66
397.657	397.717	61	49
397.825	398.014	61	55
397.829	398.014	67	55
397.829	397.895	70	65
397.832	397.9	51	48
398.015	398.088	63	68
398.018	398.092	55	51
398.203	398.396	63	58
398.208	398.252	56	43
398.208	398.28	68	70
398.21	398.28	59	52
398.396	398.472	63	66
398.4	398.473	59	49
398.592	398.882	63	60
398.595	398.886	56	47
398.595	398.883	68	70
398.599	398.887	59	56
398.984	399.081	63	55
399.176	399.267	65	49
399.366	399.459	67	48
399.551	399.645	68	47
399.723	400.128	39	33
399.743	400.115	61	51
399.744	400.128	63	51
399.744	400.117	70	60
399.746	400.128	55	41
399.939	400.128	51	37
400.115	400.202	61	44
400.117	400.203	70	52
400.282	400.38	63	44
400.282	400.381	72	52
400.457	400.849	44	32
400.482	400.726	60	49
400.483	400.726	56	43
400.483	400.726	63	49
400.483	400.726	68	58
400.669	400.758	51	35
400.853	400.944	63	42
401.038	401.129	56	36
401.199	401.595	39	33
401.224	401.584	61	51
401.224	401.595	63	51
401.225	401.585	70	60
401.227	401.595	55	41
401.412	401.595	51	37
401.584	401.671	61	44
401.585	401.672	70	52
401.756	401.85	63	44
401.759	401.85	72	52
401.924	402.319	44	32
401.949	402.186	60	49
401.949	402.186	63	49
401.949	402.186	68	58
401.952	402.186	56	43
402.138	402.228	51	35
402.323	402.41	63	42
402.501	402.593	56	36
402.686	402.872	63	51
402.687	403.054	67	51
402.687	403.055	70	60
402.691	403.047	51	43
402.872	403.055	63	33
403.055	403.138	67	44
403.058	403.138	63	44
403.059	403.142	49	43
403.059	403.142	70	52
403.223	403.321	63	44
403.223	403.32	67	44
403.224	403.323	61	37
403.224	403.321	70	52
403.411	403.782	63	51
403.415	403.789	66	51
403.416	403.789	47	43
403.416	403.783	75	60
403.597	403.789	59	33
403.78	403.86	71	44
403.782	403.86	63	44
403.783	403.863	42	43
403.783	403.861	75	52
403.946	404.045	71	44
403.947	404.046	63	44
403.947	404.046	75	52
403.95	404.048	54	37
404.136	404.224	64	50
404.139	404.227	43	43
404.139	404.227	73	59
404.31	404.405	63	43
404.311	404.406	71	51
404.314	404.406	51	38
404.489	404.584	61	43
404.493	404.588	44	43
404.493	404.584	70	51
404.671	404.766	59	43
404.676	404.767	51	40
404.676	404.767	68	51
404.85	405.218	58	51
404.85	405.214	63	51
404.854	405.218	70	60
404.857	405.234	39	43
405.039	405.234	46	33
405.214	405.297	63	44
405.218	405.298	58	44
405.218	405.302	70	52
405.219	405.302	51	43
405.385	405.48	63	44
405.389	405.48	58	44
405.39	405.481	46	37
405.39	405.481	70	52
405.577	405.665	55	50
405.578	405.666	61	50
405.578	405.666	63	59
405.581	405.669	39	43
405.756	405.844	56	43
405.757	405.844	65	51
405.76	405.848	46	38
405.934	406.026	58	43
405.939	406.027	61	43
405.939	406.027	67	51
405.941	406.027	51	43
406.117	406.211	55	43
406.117	406.212	63	51
406.118	406.212	46	40
406.302	406.516	56	51
406.303	406.516	60	51
406.306	406.516	68	60
406.307	406.516	44	47
406.307	406.516	51	47
406.488	406.575	39	38
406.67	406.761	32	43
407.044	407.139	63	52
407.045	407.139	75	63
407.236	407.331	65	47
407.237	407.332	77	56
407.423	407.517	67	46
407.423	407.517	79	55
407.601	408.161	68	44
407.605	408.161	39	37
407.605	408.161	80	54
407.79	408.147	70	58
407.79	408.151	73	58
407.79	408.151	82	69
407.794	408.161	55	47
407.972	408.161	51	42
408.147	408.238	70	50
408.151	408.239	73	50
408.151	408.239	82	59
408.153	408.24	63	47
408.322	408.522	72	50
408.323	408.945	75	50
408.325	408.945	84	59
408.326	408.945	44	36
408.521	408.945	68	56
408.522	408.945	72	56
408.522	408.945	80	66
408.524	408.945	56	49
408.703	408.945	51	40
408.885	408.973	63	48
409.061	409.624	39	41
409.253	409.617	70	58
409.254	409.62	73	58
409.254	409.621	82	69
409.256	409.624	55	47
409.442	409.624	51	42
409.617	409.698	70	50
409.62	409.701	73	50
409.621	409.702	63	47
409.621	409.701	82	59
409.785	409.981	72	50
409.789	410.551	75	50
409.789	410.551	84	59
409.79	410.551	44	36
409.977	410.551	68	56
409.981	410.551	72	56
409.981	410.551	80	66
409.982	410.516	56	49
410.167	410.551	51	40
410.349	410.551	63	48
410.516	410.618	56	41
410.716	411.084	70	58
410.716	411.087	75	58
410.717	411.087	79	58
410.72	411.091	51	49
410.72	411.088	82	69
410.901	411.091	63	37
411.084	411.167	70	50
411.087	411.168	75	50
411.087	411.168	79	50
411.088	411.171	82	59
411.091	411.172	49	49
411.248	411.353	70	50
411.249	411.353	79	50
411.251	411.354	75	50
411.251	411.357	82	59
411.252	411.357	61	42
411.45	411.823	75	58
411.455	411.853	47	49
411.455	411.853	78	58
411.455	411.823	87	69
411.633	411.853	59	37
411.822	411.906	83	50
411.823	411.907	75	50
411.823	411.907	87	59
411.825	411.909	42	49
411.997	412.092	75	50
411.997	412.091	83	50
412.001	412.094	54	42
412.001	412.092	87	59
412.189	412.277	73	57
412.19	412.277	76	57
412.19	412.278	85	67
412.193	412.278	43	49
412.36	412.445	71	49
412.365	412.446	75	49
412.368	412.448	51	36
412.368	412.449	55	43
412.368	412.446	83	58
412.532	412.624	70	49
412.533	412.627	73	49
412.533	412.627	82	58
412.536	412.628	44	49
412.711	412.798	68	49
412.711	412.799	71	49
412.715	412.803	51	39
412.715	412.803	56	46
412.715	412.799	80	58
412.893	413.264	70	58
412.893	413.262	75	58
412.894	413.265	39	49
412.894	413.264	82	69
413.074	413.265	46	37
413.262	413.338	75	50
413.264	413.341	70	50
413.264	413.341	82	59
413.265	413.341	51	49
413.425	413.523	75	50
413.429	413.53	58	42
413.429	413.526	70	50
413.429	413.527	82	59
413.618	413.711	67	57
413.618	413.712	73	57
413.619	413.712	75	67
413.621	413.715	63	49
413.796	413.89	68	49
413.797	413.89	77	58
413.799	413.891	58	43
413.978	414.069	70	49
413.978	414.072	73	49
413.978	414.073	79	58
413.982	414.073	51	49
414.156	414.258	67	49
414.157	414.259	61	46
414.157	414.258	75	58
414.348	414.765	68	58
414.349	414.765	75	58
414.349	414.765	80	69
414.352	414.765	60	54
414.532	414.765	51	43
414.713	414.807	44	49
415.101	415.472	70	66
415.105	415.476	75	66
415.106	415.473	79	66
415.106	415.476	82	79
415.108	415.493	39	54
415.109	415.493	51	64
415.287	415.493	40	46
415.291	415.493	52	55
415.472	415.557	70	57
415.473	415.557	79	57
415.476	415.558	75	57
415.476	415.56	82	67
415.477	415.56	37	56
415.477	415.56	49	67
415.643	415.735	70	57
415.644	415.739	75	57
415.644	415.738	79	57
415.647	415.739	82	67
415.648	415.742	39	50
415.648	415.743	51	59
415.833	416.204	75	66
415.836	416.204	78	66
415.836	416.208	87	79
415.84	416.211	35	58
415.84	416.211	47	69
416.022	416.211	37	51
416.023	416.211	49	60
416.204	416.292	75	57
416.204	416.291	78	57
416.208	416.298	33	56
416.208	416.299	45	66
416.208	416.295	87	67
416.379	416.473	78	57
416.383	416.477	75	57
416.383	416.477	87	67
416.386	416.478	35	50
416.387	416.478	47	59
416.572	416.652	73	65
416.572	416.653	76	65
416.575	416.922	31	59
416.575	416.922	43	70
416.575	416.655	85	77
416.739	416.834	71	56
416.74	416.834	75	56
416.743	416.838	83	66
416.922	417.012	70	56
416.925	417.303	32	60
416.925	417.013	73	56
416.925	417.013	82	66
416.926	417.304	44	71
417.1	417.205	68	56
417.1	417.205	71	56
417.103	417.206	80	66
417.306	417.674	70	66
417.307	417.675	75	66
417.307	417.677	82	79
417.31	417.667	39	67
417.492	417.667	46	59
417.678	417.761	75	57
417.681	417.765	70	57
417.682	417.766	51	67
417.682	417.765	82	67
417.856	417.951	70	57
417.856	417.946	75	57
417.857	417.951	82	67
417.86	417.951	58	61
418.045	418.136	67	65
418.048	418.137	73	65
418.049	418.137	63	69
418.049	418.137	75	77
418.227	418.311	68	56
418.227	418.315	77	66
418.228	418.315	58	57
418.405	418.493	70	56
418.406	418.497	73	56
418.409	418.497	79	66
418.41	418.498	51	67
418.588	418.686	61	61
418.588	418.685	67	56
418.588	418.686	75	66
418.791	419.21	68	66
418.791	419.21	75	66
418.792	419.21	80	79
418.794	419.21	60	76
418.973	419.21	51	64
419.155	419.249	44	71
419.62	420.506	71	35
419.621	420.022	81	50
419.623	420.089	63	34
419.737	419.978	73	25
419.855	420.089	66	25
419.977	420.089	83	36
419.978	420.089	73	25
420.022	420.089	81	36
420.075	420.513	59	31
420.075	420.513	80	50
420.184	420.401	73	25
420.295	420.513	78	41
420.296	420.513	66	25
420.401	420.513	73	25
420.506	421.399	71	29
420.506	420.967	83	43
420.509	420.967	64	34
420.618	420.845	73	25
420.737	420.967	75	45
420.738	420.967	68	25
420.845	420.967	73	25
420.905	420.967	78	35
420.957	421.444	76	43
420.958	421.444	59	31
421.066	421.287	73	25
421.174	421.444	68	25
421.287	421.444	73	25
421.399	422.263	71	35
421.402	421.853	63	34
421.402	421.79	81	50
421.514	421.741	73	25
421.63	421.853	66	25
421.741	421.853	73	25
421.741	421.853	83	36
421.79	421.853	81	36
421.846	422.269	80	50
421.847	422.269	59	31
421.948	422.158	73	25
422.054	422.269	78	41
422.056	422.269	66	25
422.158	422.269	73	25
422.263	423.184	71	29
422.267	422.725	64	34
422.267	422.725	83	44
422.378	422.603	73	25
422.49	422.725	75	45
422.491	422.725	68	25
422.603	422.725	73	25
422.662	422.725	78	35
422.718	423.184	76	43
422.719	423.184	59	31
422.827	423.184	73	25
422.935	423.184	68	25
423.057	423.184	64	25
423.183	423.624	37	44
423.184	423.624	49	52
423.284	423.624	54	36
423.285	423.624	42	47
423.39	423.624	58	41
423.492	423.624	66	36
423.494	423.624	64	28
423.618	424.154	35	32
423.621	424.154	47	38
423.719	424.154	54	24
423.72	424.154	42	35
423.835	424.154	59	27
423.958	424.153	63	19
423.958	424.154	66	24
424.152	425.021	71	35
424.153	424.618	63	34
424.153	424.548	81	50
424.266	424.5	73	25
424.38	424.618	66	25
424.499	424.618	83	36
424.5	424.618	73	25
424.548	424.618	81	36
424.602	425.025	80	50
424.604	425.025	59	31
424.706	424.916	73	25
424.817	425.025	78	41
424.818	425.025	66	25
424.916	425.025	73	25
425.021	425.917	71	29
425.024	425.482	64	34
425.024	425.482	83	43
425.137	425.36	73	25
425.246	425.482	75	45
425.248	425.482	68	25
425.36	425.482	73	25
425.424	425.482	78	35
425.475	425.959	76	43
425.476	425.959	59	31
425.584	425.804	73	25
425.693	425.959	68	25
425.804	425.959	73	25
425.917	426.788	71	35
425.917	426.312	81	50
425.918	426.378	63	34
426.029	426.27	73	25
426.145	426.378	66	25
426.268	426.378	83	36
426.27	426.378	73	25
426.312	426.378	81	36
426.369	426.795	59	31
426.369	426.795	80	50
426.47	426.687	73	25
426.583	426.795	78	41
426.585	426.795	66	25
426.687	426.795	73	25
426.788	427.706	71	29
426.789	427.247	64	34
426.789	427.247	83	44
426.9	427.128	73	25
427.019	427.247	75	45
427.02	427.247	68	25
427.128	427.247	73	25
427.185	427.247	78	35
427.237	427.706	76	43
427.24	427.706	59	31
427.349	427.706	73	25
427.457	427.706	68	25
427.579	427.706	64	25
427.705	428.136	37	44
427.706	428.136	49	52
427.806	428.136	54	36
427.807	428.136	42	47
427.912	428.136	58	41
428.021	428.136	66	36
428.022	428.136	64	28
428.135	428.689	35	32
428.136	428.689	47	38
428.241	428.689	54	24
428.242	428.689	42	35
428.357	428.689	59	27
428.486	428.689	66	24
428.487	428.689	63	19
428.688	429.557	71	35
428.689	429.138	62	34
428.689	429.088	78	50
428.804	429.039	73	25
428.92	429.151	66	25
429.038	429.151	80	36
429.039	429.151	73	25
429.088	429.151	78	36
429.137	429.564	77	50
429.138	429.564	62	31
429.245	429.456	73	25
429.351	429.564	78	41
429.353	429.564	66	25
429.456	429.564	73	25
429.508	429.564	81	35
429.557	430.01	71	29
429.557	429.96	80	43
429.558	430.015	64	34
429.669	429.9	73	25
429.784	430.015	68	25
429.9	430.015	73	25
429.96	430.015	80	35
430.01	430.457	71	29
430.011	430.457	78	43
430.012	430.457	62	31
430.117	430.338	73	25
430.225	430.457	66	25
430.338	430.457	73	25
430.456	430.888	37	44
430.457	430.888	49	52
430.558	430.888	54	36
430.559	430.888	42	47
430.663	430.888	58	41
430.769	430.888	64	28
430.769	430.888	66	36
430.887	431.44	35	32
430.887	431.44	47	38
430.992	431.44	54	24
430.995	431.44	42	35
431.107	431.44	59	27
431.237	431.44	66	24
431.238	431.44	63	19
431.388	431.44	81	37
431.436	431.6	80	50
431.437	431.656	62	34
431.546	431.656	73	25
431.6	431.656	80	37
431.65	431.811	78	50
431.653	431.867	66	25
431.759	431.867	73	25
431.811	431.867	78	37
431.857	432.024	77	50
431.86	432.08	62	31
431.969	432.08	71	25
432.024	432.08	77	37
432.074	432.314	66	25
432.074	432.314	74	50
432.19	432.314	71	25
432.308	432.55	73	50
432.311	432.55	65	34
432.428	432.55	71	25
432.536	432.77	85	50
432.539	432.78	68	25
432.655	432.78	71	25
432.77	432.998	85	50
432.771	432.998	66	31
432.88	432.998	76	25
432.994	433.239	97	50
432.997	433.239	70	25
433.113	433.239	76	25
433.239	433.68	42	46
433.34	433.68	54	32
433.344	433.68	49	42
433.449	433.68	58	36
433.554	433.68	64	25
433.554	433.68	66	32
433.673	434.226	35	34
433.778	434.226	47	31
433.778	434.226	54	21
433.894	434.226	59	24
434.023	434.226	66	21
434.024	434.226	63	17
434.224	435.094	71	35
434.226	434.677	62	34
434.226	434.622	78	50
434.338	434.577	73	25
434.453	434.691	66	25
434.576	434.691	80	36
434.577	434.691	73	25
434.622	434.691	78	36
434.675	435.101	77	50
434.677	435.101	62	31
434.775	434.986	73	25
434.89	435.101	78	41
434.891	435.101	66	25
434.986	435.101	73	25
435.038	435.101	81	35
435.094	435.547	71	29
435.094	435.493	80	43
435.095	435.552	64	34
435.206	435.433	73	25
435.318	435.552	68	25
435.433	435.552	73	25
435.493	435.552	80	35
435.547	435.991	71	29
435.548	435.991	78	43
435.549	435.991	62	31
435.655	435.875	73	25
435.766	435.991	66	25
435.875	435.991	73	25
435.987	436.421	37	39
435.99	436.421	49	46
436.095	436.421	54	32
436.096	436.421	42	42
436.2	436.421	58	36
436.305	436.421	66	32
436.306	436.421	64	25
436.418	436.977	35	28
436.421	436.977	47	34
436.526	436.977	42	31
436.526	436.977	54	21
436.642	436.977	59	24
436.771	436.977	63	19
436.771	436.977	66	24
436.921	436.977	81	37
436.973	437.134	80	50
436.977	437.19	62	34
437.079	437.19	73	25
437.134	437.19	80	37
437.18	437.348	78	50
437.184	437.408	66	25
437.293	437.408	73	25
437.348	437.408	78	37
437.397	437.561	77	50
437.401	437.621	62	31
437.508	437.621	71	25
437.561	437.621	77	37
437.611	437.848	74	50
437.614	437.848	66	25
437.727	437.848	71	25
437.837	438.079	73	50
437.838	438.079	65	34
437.954	438.079	71	25
438.069	438.296	85	50
438.07	438.307	68	25
438.18	438.307	71	25
438.296	438.531	66	31
438.296	438.531	85	50
438.412	438.531	76	25
438.524	438.79	97	50
438.525	438.79	70	25
438.657	438.79	76	25
438.79	439.329	42	44
438.923	439.329	49	39
438.923	439.329	54	30
439.052	439.329	58	34
439.183	439.329	66	30
439.185	439.329	64	23
439.326	440.067	35	32
439.472	440.067	54	20
439.475	440.067	47	29
439.619	440.067	59	22
439.766	440.067	66	20
439.767	440.067	63	16
440.063	440.529	81	42
440.064	440.529	51	34
440.064	440.46	93	50
440.218	440.529	61	25
440.372	440.529	59	25
440.41	440.529	95	36
440.46	440.529	93	36
440.515	440.95	80	42
440.515	440.95	92	50
440.519	440.95	69	31
440.624	440.95	66	25
440.736	440.95	78	34
440.736	440.95	90	41
440.739	440.95	61	25
440.837	440.95	59	25
440.946	441.403	52	34
440.946	441.403	83	36
440.946	441.403	95	43
441.096	441.403	61	25
441.17	441.403	75	38
441.172	441.403	87	45
441.25	441.403	59	25
441.345	441.403	90	35
441.391	441.879	76	36
441.393	441.879	68	31
441.393	441.879	88	43
441.506	441.879	64	25
441.618	441.879	61	25
441.727	441.879	59	25
441.838	442.293	81	42
441.842	442.293	51	34
441.842	442.23	93	50
441.986	442.293	61	25
442.143	442.293	59	25
442.178	442.293	95	36
442.23	442.293	93	36
442.286	442.707	80	42
442.287	442.707	69	31
442.287	442.707	92	50
442.388	442.707	66	25
442.501	442.707	78	34
442.503	442.707	61	25
442.503	442.707	90	41
442.597	442.707	59	25
442.702	443.16	83	37
442.703	443.16	95	44
442.705	443.16	52	34
442.853	443.16	61	25
442.93	443.16	75	38
442.93	443.16	87	45
443.002	443.16	59	25
443.101	443.16	90	35
443.15	443.617	76	36
443.151	443.617	88	43
443.153	443.617	68	31
443.259	443.617	64	25
443.376	443.617	61	25
443.497	443.617	59	25
443.616	444.055	37	41
443.617	444.055	49	49
443.722	444.055	54	34
443.725	444.055	42	44
443.826	444.055	58	38
443.932	444.055	66	34
443.935	444.055	64	26
444.051	444.593	35	30
444.054	444.593	47	36
444.159	444.593	54	22
444.16	444.593	42	33
444.267	444.593	59	25
444.398	444.593	63	18
444.398	444.593	66	22
444.593	445.051	51	34
444.593	445.051	81	42
444.593	444.989	93	50
444.743	445.051	61	25
444.9	445.051	59	25
444.936	445.051	95	36
444.989	445.051	93	36
445.044	445.475	80	42
445.045	445.475	69	31
445.045	445.475	92	50
445.149	445.475	66	25
445.265	445.475	78	34
445.265	445.475	90	41
445.266	445.475	61	25
445.367	445.475	59	25
445.475	445.932	52	34
445.475	445.932	83	36
445.475	445.932	95	43
445.621	445.932	61	25
445.696	445.932	75	38
445.698	445.932	87	45
445.771	445.932	59	25
445.873	445.932	90	35
445.919	446.408	76	36
445.921	446.408	88	43
445.922	446.408	68	31
446.028	446.408	64	25
446.143	446.408	61	25
446.255	446.408	59	25
446.366	446.822	81	42
446.367	446.758	93	50
446.37	446.822	51	34
446.514	446.822	61	25
446.672	446.822	59	25
446.706	446.822	95	36
446.758	446.822	93	36
446.815	447.23	80	42
446.815	447.23	92	50
446.816	447.23	69	31
446.916	447.23	66	25
447.021	447.23	78	34
447.024	447.23	90	41
447.025	447.23	61	25
447.123	447.23	59	25
447.225	447.686	83	37
447.227	447.686	95	44
447.228	447.686	52	34
447.378	447.686	61	25
447.455	447.686	75	38
447.459	447.686	87	45
447.529	447.686	59	25
447.631	447.686	90	35
447.679	448.152	76	36
447.679	448.152	88	43
447.68	448.152	68	31
447.784	448.152	64	25
447.896	448.152	61	25
448.018	448.152	59	25
448.148	448.585	37	41
448.148	448.585	49	49
448.25	448.585	42	44
448.25	448.585	54	34
448.354	448.585	58	38
448.46	448.585	66	34
448.461	448.585	64	26
448.578	449.127	35	30
448.579	449.127	47	36
448.687	449.127	42	33
448.687	449.127	54	22
448.796	449.127	59	25
448.925	449.127	66	22
448.926	449.127	63	18
449.114	449.579	50	34
449.114	449.579	78	42
449.114	449.517	90	50
449.271	449.579	61	25
449.422	449.579	59	25
449.464	449.579	92	36
449.517	449.579	90	36
449.57	449.996	77	42
449.572	449.996	89	50
449.573	449.996	66	34
449.709	449.996	61	25
449.779	449.996	78	34
449.779	449.996	90	41
449.848	449.996	59	25
449.934	449.996	93	35
449.989	450.443	80	36
449.99	450.385	92	43
449.992	450.443	52	34
450.136	450.443	59	29
450.287	450.443	68	28
450.385	450.443	92	35
450.434	450.885	78	24
450.437	450.885	50	34
450.437	450.885	90	43
450.584	450.885	59	27
450.731	450.885	66	27
450.881	451.316	37	44
450.885	451.316	49	52
450.987	451.316	54	36
450.988	451.316	42	47
451.088	451.316	58	41
451.194	451.316	64	28
451.194	451.316	66	36
451.313	451.809	35	32
451.316	451.809	47	38
451.421	451.809	42	35
451.421	451.809	54	24
451.537	451.809	59	27
451.659	451.809	63	19
451.659	451.809	66	24
451.759	451.809	93	37
451.806	452.023	80	42
451.806	451.963	92	50
451.807	452.023	50	34
451.945	452.236	61	25
451.963	452.023	92	37
452.012	452.236	78	42
452.013	452.18	90	50
452.088	452.236	59	25
452.18	452.236	90	37
452.229	452.453	76	42
452.23	452.453	66	34
452.23	452.393	88	50
452.376	452.677	61	25
452.393	452.453	88	37
452.443	452.677	74	42
452.443	452.677	86	50
452.517	452.677	59	25
452.667	452.915	73	50
452.668	452.915	53	34
452.824	452.975	59	29
452.897	453.128	85	50
452.975	453.142	68	28
453.128	453.362	85	50
453.129	453.362	54	34
453.283	453.639	64	27
453.355	453.639	97	50
453.451	453.639	70	27
453.636	454.151	42	44
453.758	454.151	54	30
453.759	454.151	49	39
453.881	454.151	58	34
454.004	454.151	64	23
454.004	454.151	66	30
454.15	454.728	35	32
454.273	454.728	54	20
454.277	454.728	42	29
454.396	454.728	59	22
454.525	454.728	66	20
454.526	454.728	63	16
454.721	455.179	78	42
454.722	455.179	50	34
454.722	455.116	90	50
454.875	455.179	61	25
455.029	455.179	59	25
455.072	455.179	92	36
455.116	455.179	90	36
455.172	455.609	77	42
455.172	455.609	89	50
455.173	455.609	66	34
455.322	455.609	61	25
455.393	455.609	78	34
455.394	455.609	90	41
455.46	455.609	59	25
455.547	455.609	93	35
455.602	456.075	80	36
455.603	456.075	52	34
455.603	456.019	92	43
455.754	456.075	59	29
455.918	456.075	68	28
456.019	456.075	92	35
456.066	456.517	78	24
456.068	456.517	90	43
456.069	456.517	50	34
456.216	456.517	59	27
456.36	456.517	66	27
456.513	456.969	37	44
456.514	456.969	49	52
456.622	456.969	42	47
456.622	456.969	54	36
456.731	456.969	58	41
456.835	456.969	66	36
456.836	456.969	64	28
456.968	457.469	35	32
456.968	457.469	47	38
457.08	457.469	54	24
457.081	457.469	42	35
457.196	457.469	59	27
457.322	457.469	63	19
457.325	457.469	66	24
457.454	458.357	93	45
457.455	458.357	50	34
457.528	458.357	92	44
457.609	458.057	61	25
457.609	458.357	90	44
457.683	458.357	88	43
457.767	458.198	59	25
457.767	458.357	86	43
457.836	458.357	85	42
457.903	458.357	83	42
457.906	458.357	66	34
457.98	458.357	81	41
458.057	458.357	61	25
458.057	458.357	80	41
458.127	458.357	78	40
458.197	458.357	76	39
458.198	458.357	59	25
458.263	458.357	74	39
458.334	459.1	73	40
458.336	461.701	52	34
458.456	458.57	85	36
458.491	461.701	59	29
458.57	458.896	85	36
458.651	461.676	68	28
458.693	458.802	97	38
458.802	459.513	97	39
458.896	459.001	85	36
459.001	459.313	85	36
459.1	459.214	73	37
459.214	459.911	73	44
459.313	459.411	85	36
459.411	459.708	85	36
459.513	459.61	97	41
459.61	460.324	97	41
459.708	459.807	85	36
459.807	460.122	85	36
459.911	460.023	73	36
460.023	461.701	73	42
460.122	460.223	85	37
460.223	460.521	85	37
460.324	460.423	97	40
460.423	460.724	97	40
460.521	460.625	85	37
460.625	460.937	85	37
460.724	460.838	97	37
460.838	461.137	97	42
460.937	461.039	85	37
461.039	461.339	85	37
461.137	461.241	97	39
461.241	461.553	97	39
461.339	461.451	85	37
461.451	461.701	85	37
461.553	461.701	97	37
461.647	462.569	64	37
461.676	462.572	68	42
461.7	462.572	74	49
461.7	461.858	98	39
461.777	462.572	100	38
461.858	462.572	98	37
461.928	462.572	97	36
462.005	462.572	95	36
462.078	462.572	93	36
462.141	462.572	92	35
462.144	462.571	73	47
462.219	462.572	90	34
462.288	462.572	88	33
462.358	462.572	86	32
462.359	462.572	71	41
462.428	462.572	85	31
462.495	462.572	83	30
462.568	462.719	81	29
462.569	463.433	64	38
462.571	463.493	73	38
462.572	463.493	76	45
462.641	463.493	80	28
462.719	463.493	81	29
462.792	463.493	83	31
462.796	463.457	68	39
462.862	463.493	85	32
462.935	463.493	86	33
463.014	463.493	88	34
463.016	463.493	69	45
463.083	463.493	90	35
463.157	463.493	92	36
463.227	463.493	93	36
463.296	463.493	95	37
463.401	463.493	97	38
463.433	464.353	64	37
463.457	464.354	68	42
463.489	463.639	98	39
463.492	464.354	74	49
463.563	464.354	100	38
463.639	464.354	98	37
463.716	464.354	97	36
463.79	464.354	95	36
463.86	464.354	93	36
463.926	464.353	73	47
463.926	464.354	92	35
464.0	464.354	90	34
464.07	464.354	88	33
464.14	464.354	86	32
464.141	464.354	71	41
464.21	464.354	85	31
464.276	464.354	83	30
464.35	464.5	81	29
464.353	465.215	64	38
464.353	465.27	73	38
464.353	465.27	76	45
464.423	465.27	80	28
464.5	465.27	81	29
464.577	465.239	68	39
464.577	465.27	83	31
464.651	465.27	85	32
464.72	465.27	86	33
464.795	465.27	88	34
464.798	465.27	69	45
464.864	465.27	90	35
464.938	465.27	92	36
465.008	465.27	93	36
465.085	465.27	95	37
465.183	465.27	97	38
465.215	466.135	64	37
465.239	466.145	68	42
465.267	465.418	98	39
465.268	466.145	74	49
465.34	466.145	100	38
465.418	466.145	98	37
465.491	466.145	97	36
465.568	466.145	95	36
465.638	466.145	93	36
465.708	466.145	92	35
465.709	466.135	73	47
465.778	466.145	90	34
465.851	466.145	88	33
465.922	466.145	71	41
465.922	466.145	86	32
465.991	466.145	85	31
466.062	466.145	83	30
466.134	466.282	81	29
466.135	467.01	64	38
466.135	467.044	73	38
466.138	467.044	76	45
466.204	467.044	80	28
466.282	467.044	81	29
466.352	467.044	83	31
466.353	467.011	68	39
466.428	467.044	85	32
466.502	467.044	86	33
466.579	467.044	69	45
466.579	467.044	88	34
466.646	467.044	90	35
466.716	467.044	92	36
466.792	467.044	93	36
466.863	467.044	95	37
466.932	467.044	97	38
467.01	468.729	64	39
467.01	467.079	98	41
467.011	468.729	68	39
467.011	468.729	71	39
467.012	469.592	74	49
467.08	467.363	99	44
467.149	467.29	100	46
467.22	468.729	101	49
467.29	468.729	100	49
467.363	468.729	99	47
467.43	468.729	98	46
467.507	468.729	97	45
467.573	468.729	96	44
467.647	468.081	95	43
467.714	468.004	94	41
467.79	467.934	93	40
467.86	468.287	92	39
467.934	468.217	93	44
468.004	468.151	94	46
468.081	468.729	95	48
468.151	468.729	94	49
468.217	468.729	93	48
468.287	468.729	92	47
468.358	468.729	91	46
468.434	468.729	90	45
468.504	468.729	89	45
468.578	468.729	88	44
468.651	468.729	87	43
468.728	469.149	86	41
468.792	469.079	87	44
468.861	469.004	88	46
468.934	469.592	89	49
469.004	469.592	88	49
469.079	469.592	87	47
469.149	469.592	86	46
469.218	469.592	85	45
469.288	469.592	84	44
469.365	469.592	83	43
469.435	469.592	82	41
469.502	469.592	81	40
469.579	470.006	80	39
469.653	469.933	81	44
469.723	469.862	82	46
469.792	470.437	83	48
469.862	470.437	82	49
469.933	470.437	81	48
470.006	470.437	80	47
470.076	470.437	79	46
470.146	470.437	78	45
470.223	470.437	77	45
470.293	470.437	76	44
470.37	470.437	75	43
470.436	470.874	74	41
470.513	470.797	75	44
470.583	470.727	76	46
470.66	471.335	77	49
470.727	471.335	76	49
470.797	471.335	75	47
470.874	471.335	74	46
470.944	471.335	73	45
471.018	471.335	72	44
471.088	471.335	71	43
471.164	471.335	70	41
471.238	471.335	69	40
471.308	471.742	68	39
471.382	471.669	69	44
471.451	471.599	70	46
471.528	472.018	71	48
471.599	472.018	70	49
471.669	472.018	69	48
471.742	472.018	68	45
471.801	472.018	67	45
471.854	472.018	66	47
471.91	472.018	65	49
471.966	472.078	64	50
472.259	472.532	67	45
472.26	472.322	63	40
472.26	472.533	70	54
472.438	472.508	64	38
472.62	472.683	67	43
472.621	472.684	61	38
472.621	472.684	70	51
472.792	472.858	63	38
472.792	472.854	67	43
472.795	472.861	70	51
472.966	473.495	66	48
472.97	473.03	59	40
472.97	473.496	75	56
473.142	473.211	61	38
473.32	473.383	57	38
473.498	473.558	75	49
473.499	473.562	59	38
473.499	473.562	66	41
473.67	473.838	64	44
473.67	473.733	73	52
473.671	473.733	55	44
473.839	473.902	61	39
473.839	473.901	70	52
474.006	474.181	63	44
474.007	474.069	56	38
474.007	474.069	71	52
474.182	474.245	59	40
474.182	474.244	68	54
474.353	474.534	67	44
474.356	474.426	51	40
474.356	474.423	70	53
474.535	474.605	58	37
474.535	474.604	63	50
474.72	475.105	63	45
475.105	475.375	67	49
475.106	475.175	63	44
475.106	475.378	70	59
475.284	475.35	64	41
475.469	475.532	67	47
475.47	475.536	70	56
475.472	475.536	61	41
475.637	475.704	63	41
475.637	475.7	67	47
475.644	475.707	70	56
475.812	476.341	66	52
475.813	475.875	59	44
475.813	476.341	75	61
475.991	476.057	61	41
476.165	476.228	57	41
476.341	476.41	75	53
476.344	476.411	59	41
476.344	476.411	66	45
476.519	476.687	64	48
476.52	476.582	73	57
476.522	476.586	56	48
476.687	476.75	71	57
476.691	476.754	61	39
476.855	477.023	67	48
476.856	476.918	70	58
476.858	476.922	51	41
477.023	477.089	63	61
477.027	477.09	55	39
477.027	477.09	61	45
477.198	477.268	68	60
477.201	477.268	56	46
477.383	477.453	63	58
477.384	477.454	59	42
477.573	477.646	63	55
477.574	477.647	56	48
477.574	477.65	59	52
477.574	477.646	68	62
477.975	478.252	70	58
477.975	478.252	75	58
477.979	478.253	79	58
477.979	478.255	82	70
477.982	478.203	51	44
477.982	478.203	63	52
478.157	478.227	52	41
478.158	478.227	64	49
478.336	478.405	70	55
478.336	478.406	75	55
478.339	478.41	49	41
478.339	478.406	79	55
478.339	478.409	82	66
478.343	478.41	61	49
478.51	478.577	70	55
478.514	478.577	75	55
478.514	478.578	79	55
478.515	478.578	51	41
478.515	478.581	63	49
478.518	478.581	82	66
478.685	479.214	75	62
478.686	479.214	78	62
478.686	479.215	87	72
478.689	478.889	47	44
478.69	478.889	59	52
478.861	478.927	49	41
478.862	478.927	61	49
479.039	479.102	45	41
479.04	479.105	57	49
479.215	479.277	75	53
479.218	479.281	78	53
479.218	479.277	87	63
479.219	479.281	47	41
479.221	479.281	59	49
479.389	479.452	73	57
479.39	479.453	76	57
479.39	479.453	85	67
479.392	479.728	43	48
479.393	479.729	55	57
479.557	479.62	70	67
479.557	479.62	82	67
479.732	479.795	71	57
479.733	479.796	75	57
479.735	479.796	83	67
479.736	480.075	44	41
479.736	480.075	56	49
479.897	479.963	68	70
479.897	479.963	80	70
480.076	480.138	70	57
480.076	480.139	75	57
480.078	480.139	82	68
480.079	480.139	39	44
480.079	480.142	51	52
480.25	480.317	63	57
480.254	480.317	75	65
480.257	480.32	43	40
480.257	480.321	55	48
480.428	480.492	63	57
480.429	480.493	46	40
480.429	480.495	58	48
480.429	480.493	75	68
480.607	480.677	50	40
480.607	480.678	62	48
480.793	481.065	70	60
480.794	481.065	75	60
480.794	481.069	79	60
480.796	480.988	51	46
480.796	481.069	82	73
480.797	480.988	63	54
480.971	481.041	52	43
480.972	481.042	64	51
481.157	481.22	70	57
481.157	481.223	75	57
481.16	481.223	79	57
481.16	481.226	82	69
481.164	481.227	49	43
481.164	481.227	61	51
481.324	481.387	70	57
481.325	481.391	75	57
481.328	481.392	79	57
481.331	481.394	51	43
481.332	481.394	63	51
481.332	481.395	82	69
481.503	482.207	75	65
481.503	482.207	78	65
481.504	481.563	47	46
481.504	482.21	87	75
481.507	481.563	59	54
481.674	481.744	49	43
481.675	481.745	61	51
481.853	481.916	45	43
481.853	481.92	57	51
482.028	482.095	47	43
482.031	482.095	59	51
482.214	482.567	74	63
482.214	482.568	79	63
482.214	482.57	83	63
482.217	482.575	43	48
482.217	482.575	55	56
482.217	482.571	86	76
482.388	482.575	45	45
482.389	482.575	57	53
482.567	482.631	74	59
482.568	482.634	79	59
482.57	482.634	83	59
482.571	482.638	86	72
482.575	482.638	41	45
482.575	482.638	53	53
482.742	482.809	86	72
482.746	482.809	74	59
482.746	482.81	79	59
482.747	482.812	43	45
482.747	482.81	83	59
482.749	482.812	55	53
482.917	483.62	79	68
482.918	483.621	82	68
482.918	483.621	87	68
482.921	483.124	39	48
482.921	483.124	51	56
482.921	483.621	91	78
483.092	483.155	41	45
483.092	483.155	53	53
483.263	483.333	37	45
483.268	483.337	49	53
483.446	483.509	39	45
483.446	483.509	51	53
483.625	483.974	79	66
483.625	483.974	84	66
483.625	483.974	88	66
483.628	483.974	36	67
483.628	483.974	91	79
483.806	483.974	48	55
483.984	484.048	79	61
483.985	484.051	84	61
483.988	484.052	88	61
483.989	484.16	35	64
483.989	484.052	91	75
484.16	484.222	91	75
484.161	484.223	79	61
484.163	484.227	47	55
484.163	484.227	84	61
484.163	484.227	88	61
484.327	485.045	84	71
484.328	485.045	88	71
484.328	485.045	91	71
484.331	485.045	96	81
484.332	484.663	33	70
484.51	484.663	45	55
484.681	485.045	31	67
484.857	485.045	43	56
485.042	485.378	67	67
485.042	485.378	72	67
485.043	485.378	76	67
485.043	485.378	79	80
485.045	485.378	36	68
485.217	485.378	48	56
485.402	485.465	67	62
485.402	485.465	72	62
485.403	485.466	76	62
485.406	485.57	35	65
485.406	485.469	79	77
485.571	485.634	67	62
485.571	485.633	79	77
485.573	485.634	72	62
485.574	485.637	47	56
485.574	485.636	76	62
485.742	486.467	72	73
485.745	486.467	76	73
485.746	486.457	79	73
485.749	486.467	40	72
485.749	486.46	84	83
485.916	486.467	52	75
486.457	486.812	79	69
486.46	486.813	84	69
486.46	486.816	88	69
486.461	486.817	91	82
486.463	486.819	36	58
486.463	486.631	48	70
486.631	486.819	48	48
486.632	486.819	60	57
486.812	486.875	79	64
486.813	486.876	84	64
486.816	486.876	88	64
486.817	486.88	35	56
486.817	486.879	91	78
486.818	486.88	47	67
486.984	487.051	91	78
486.988	487.051	79	64
486.988	487.052	84	64
486.989	487.054	88	64
486.991	487.054	59	57
486.992	487.054	47	48
487.159	487.874	84	75
487.16	487.874	88	75
487.163	487.874	91	75
487.163	487.874	96	85
487.166	487.338	45	74
487.167	487.519	33	62
487.334	487.519	57	58
487.338	487.519	45	48
487.509	487.691	43	71
487.51	487.874	31	59
487.688	487.874	55	58
487.691	487.874	43	49
487.867	488.226	67	70
487.869	488.227	72	70
487.87	487.933	36	59
487.87	488.23	76	70
487.87	488.23	79	84
487.873	487.934	48	71
488.045	488.235	48	49
488.045	488.235	60	58
488.226	488.293	67	65
488.227	488.294	72	65
488.23	488.294	76	65
488.23	488.297	79	81
488.234	488.297	38	58
488.234	488.298	50	69
488.398	488.464	79	81
488.399	488.465	67	65
488.399	488.468	72	65
488.4	488.469	76	65
488.402	488.472	50	49
488.402	488.471	62	59
488.57	489.308	72	76
488.573	489.308	76	76
488.574	489.308	79	76
488.577	488.752	52	75
488.577	489.308	84	87
488.578	489.308	40	63
488.752	489.308	52	65
488.752	489.308	64	80
489.302	489.669	85	72
489.305	489.669	93	72
489.305	489.672	97	86
489.306	489.679	33	61
489.306	489.479	45	73
489.479	489.679	45	50
489.483	489.679	57	60
489.669	489.731	85	67
489.669	489.732	93	67
489.672	489.736	32	59
489.672	489.736	44	70
489.672	489.735	97	82
489.84	489.907	97	82
489.843	489.907	85	67
489.844	489.91	93	67
489.847	489.91	56	60
489.848	489.911	44	50
490.019	490.747	88	78
490.019	490.747	97	78
490.02	490.747	93	78
490.02	490.747	100	89
490.023	490.373	30	64
490.023	490.198	42	77
490.197	490.373	54	60
490.198	490.373	42	50
490.375	490.559	40	73
490.38	490.747	28	61
490.558	490.747	52	60
490.559	490.747	40	50
490.74	491.1	73	72
490.741	491.103	81	72
490.744	491.131	33	61
490.744	491.104	85	86
490.746	490.922	45	73
490.922	491.131	45	50
490.922	491.131	57	60
491.1	491.17	73	67
491.103	491.174	81	67
491.104	491.175	35	59
491.104	491.174	85	82
491.107	491.177	47	70
491.282	491.346	73	67
491.282	491.345	85	82
491.286	491.349	47	50
491.286	491.349	59	60
491.286	491.346	81	67
491.453	492.182	85	78
491.457	492.189	76	78
491.46	492.189	81	78
491.461	492.189	37	64
491.461	491.64	49	77
491.461	492.189	88	89
491.636	492.189	61	81
491.64	492.189	49	66
492.182	492.553	85	72
492.185	492.553	93	72
492.186	492.56	33	61
492.186	492.556	97	86
492.189	492.36	45	73
492.36	492.56	45	50
492.361	492.56	57	60
492.553	492.616	85	67
492.553	492.62	93	67
492.556	492.623	32	59
492.556	492.62	97	82
492.557	492.623	44	70
492.727	492.791	97	82
492.728	492.792	85	67
492.728	492.794	93	67
492.731	492.794	56	60
492.732	492.795	44	50
492.903	493.649	88	78
492.903	493.649	97	78
492.904	493.649	93	78
492.906	493.275	30	64
492.906	493.089	42	77
492.906	493.649	100	89
493.088	493.275	54	60
493.089	493.275	42	50
493.274	493.649	28	61
493.274	493.46	40	73
493.459	493.649	52	60
493.46	493.649	40	50
493.644	494.033	73	72
493.645	494.034	81	72
493.645	494.034	85	86
493.646	494.043	33	61
493.648	493.837	45	73
493.837	494.043	45	50
493.837	494.043	57	60
494.033	494.103	73	67
494.034	494.104	81	67
494.034	494.104	85	82
494.036	494.107	35	59
494.037	494.107	47	70
494.212	494.281	85	82
494.215	494.286	73	67
494.215	494.286	81	67
494.216	494.288	59	60
494.219	494.289	47	50
494.401	495.181	85	78
494.402	495.185	76	78
494.402	495.185	81	78
494.404	494.615	49	77
494.404	495.188	88	89
494.405	495.09	37	64
494.614	495.136	61	81
494.615	495.139	49	66
495.188	495.577	54	73
495.189	495.569	58	73
495.189	495.57	61	73
495.192	495.577	30	55
495.192	495.574	34	55
495.192	495.577	66	87
495.193	495.574	37	55
495.196	495.577	42	65
495.569	495.941	58	68
495.57	495.948	61	68
495.57	495.948	65	80
495.571	495.948	53	68
495.573	495.948	29	51
495.574	495.947	34	51
495.574	495.948	37	51
495.576	495.948	41	60
495.94	496.326	51	72
495.941	496.318	54	72
495.941	496.319	58	72
495.944	496.326	63	85
495.945	496.326	27	55
495.945	496.323	30	55
495.947	496.323	34	55
495.948	496.326	39	65
496.318	496.707	54	68
496.319	496.708	58	68
496.319	496.708	61	80
496.322	496.715	49	68
496.323	496.715	25	51
496.323	496.712	30	51
496.323	496.712	34	51
496.325	496.714	37	51
496.707	496.886	54	73
496.708	496.886	58	73
496.708	496.886	61	73
496.711	496.887	66	86
496.712	496.89	30	55
496.712	496.89	34	55
496.714	496.89	37	55
496.714	496.891	42	65
496.886	497.085	54	68
496.886	497.085	58	68
496.886	497.064	61	68
496.887	497.085	66	80
496.89	497.085	30	51
496.89	497.085	34	51
496.89	497.069	37	51
496.891	497.085	42	60
497.064	497.461	56	73
497.064	497.456	61	73
497.068	497.461	32	55
497.068	497.461	68	86
497.069	497.46	37	55
497.069	497.461	44	65
497.454	497.824	58	75
497.456	497.828	61	75
497.456	497.828	66	75
497.457	497.829	34	57
497.457	497.828	70	89
497.46	497.831	37	57
497.46	497.831	42	57
497.46	497.832	46	68
498.201	498.584	54	73
498.202	498.577	58	73
498.202	498.577	61	73
498.205	498.584	66	87
498.206	498.584	30	55
498.206	498.58	34	55
498.209	498.58	37	55
498.209	498.584	42	65
498.577	498.945	58	68
498.577	498.951	61	68
498.577	498.951	65	80
498.579	498.951	53	68
498.58	498.951	29	51
498.58	498.948	34	51
498.58	498.951	37	51
498.583	498.951	41	60
498.941	499.309	51	72
498.944	499.301	54	72
498.945	499.309	27	55
498.945	499.302	58	72
498.945	499.309	63	85
498.947	499.308	30	55
498.948	499.308	34	55
498.948	499.309	39	65
499.301	499.686	54	68
499.302	499.686	58	68
499.304	499.687	61	80
499.305	499.693	25	51
499.305	499.693	49	68
499.308	499.689	30	51
499.308	499.689	34	51
499.309	499.69	37	51
499.686	499.857	54	73
499.686	499.858	58	73
499.687	499.858	61	73
499.687	499.859	66	86
499.689	499.861	30	55
499.689	499.861	34	55
499.69	499.861	37	55
499.693	499.864	42	65
499.857	500.054	54	68
499.858	500.054	58	68
499.858	500.039	61	68
499.859	500.054	66	80
499.861	500.054	30	51
499.861	500.054	34	51
499.861	500.04	37	51
499.864	500.054	42	60
500.036	500.428	56	73
500.039	500.428	32	55
500.039	500.421	61	73
500.039	500.428	68	86
500.04	500.425	37	55
500.043	500.428	44	65
500.419	500.791	58	75
500.421	500.792	61	75
500.421	500.792	66	75
500.421	500.793	70	89
500.425	500.795	34	57
500.425	500.796	37	57
500.425	500.796	42	57
500.426	500.799	46	68
501.169	501.734	61	77
501.17	501.734	66	77
501.17	501.735	70	77
501.171	501.737	73	91
501.173	501.737	42	62
501.174	501.737	46	62
501.174	501.74	49	62
501.174	501.741	54	73
501.734	501.933	61	72
501.734	501.927	66	72
501.735	501.933	70	72
501.737	501.933	42	57
501.737	501.933	46	57
501.737	501.933	73	85
501.74	501.933	49	57
501.741	501.93	54	68
501.926	502.304	63	78
501.927	502.297	66	78
501.927	502.304	71	78
501.929	502.304	47	62
501.929	502.304	75	92
501.93	502.304	51	62
501.93	502.304	54	62
501.933	502.304	59	73
502.297	502.686	61	73
502.297	502.686	66	73
502.298	502.682	70	73
502.3	502.686	42	59
502.3	502.686	73	86
502.301	502.683	46	59
502.304	502.686	49	59
502.304	502.686	54	70
502.679	503.238	58	79
502.682	503.428	34	62
502.682	503.428	70	93
502.683	503.242	46	74
503.238	503.424	58	73
503.239	503.428	68	87
503.242	503.428	38	56
503.242	503.428	46	67
503.424	503.508	58	77
503.427	503.511	66	91
503.428	503.511	39	61
503.428	503.512	46	72
503.602	503.693	58	72
503.602	503.694	65	85
503.603	503.694	41	58
503.603	503.696	46	69
503.781	503.97	58	71
503.782	503.974	42	58
503.782	503.974	63	84
503.784	503.976	46	69
504.159	504.53	66	66
504.16	504.53	54	66
504.16	504.306	70	78
504.162	504.53	58	78
504.229	504.523	71	73
504.306	504.443	70	73
504.373	504.53	69	73
504.443	504.53	70	73
504.523	504.611	68	62
504.523	504.611	71	73
504.526	504.614	56	58
504.526	504.614	59	69
504.701	504.803	66	59
504.705	504.804	54	58
504.705	504.804	70	70
504.708	504.806	58	69
504.901	504.992	65	68
504.901	504.995	68	80
504.902	504.996	53	62
504.904	504.998	56	74
505.086	505.177	63	62
505.087	505.181	66	73
505.09	505.181	51	58
505.091	505.184	54	69
505.272	505.471	58	62
505.276	505.472	46	58
505.276	505.472	53	69
505.276	505.472	65	73
505.66	505.892	54	75
505.661	505.892	58	75
505.663	505.892	63	89
505.664	505.892	39	64
505.664	505.892	46	64
505.667	505.892	51	76
506.406	506.977	73	77
506.407	506.977	78	77
506.407	506.977	82	77
506.407	506.979	85	91
506.409	506.98	42	62
506.409	506.98	46	62
506.41	506.983	49	62
506.41	506.984	54	73
506.977	507.176	73	72
506.977	507.169	78	72
506.977	507.176	82	72
506.979	507.176	85	85
506.98	507.176	42	57
506.98	507.176	46	57
506.983	507.176	49	57
506.984	507.173	54	68
507.169	507.547	75	78
507.169	507.54	78	78
507.17	507.547	83	78
507.172	507.547	47	62
507.172	507.547	87	92
507.173	507.547	51	62
507.173	507.547	54	62
507.176	507.547	59	73
507.539	507.926	73	73
507.54	507.926	78	73
507.54	507.924	82	73
507.543	507.926	85	86
507.544	507.926	42	59
507.544	507.925	46	59
507.545	507.926	49	59
507.547	507.926	54	70
507.922	508.667	70	79
507.924	508.667	82	93
507.925	508.667	34	62
507.925	508.478	46	74
508.474	508.667	68	73
508.478	508.667	38	56
508.478	508.664	46	56
508.478	508.667	50	67
508.478	508.667	80	87
508.663	508.747	66	77
508.664	508.752	46	61
508.664	508.751	78	91
508.667	508.752	39	61
508.667	508.754	51	72
508.842	508.932	65	72
508.842	508.937	77	85
508.846	508.939	41	58
508.846	508.937	46	58
508.847	508.94	53	69
509.024	509.213	63	71
509.025	509.217	42	58
509.025	509.216	46	58
509.025	509.213	75	84
509.027	509.217	54	69
509.402	509.751	78	66
509.403	509.751	54	66
509.403	509.751	58	66
509.403	509.539	82	78
509.405	509.751	66	78
509.469	509.748	83	73
509.539	509.679	82	73
509.609	509.751	81	73
509.679	509.751	82	73
509.746	509.836	71	62
509.748	509.836	83	73
509.749	509.837	56	58
509.749	509.84	68	69
509.926	510.025	70	59
509.931	510.029	54	58
509.931	510.032	66	69
509.931	510.028	82	70
510.123	510.217	68	68
510.126	510.221	80	80
510.13	510.221	53	62
510.13	510.221	65	74
510.305	510.396	66	62
510.306	510.399	51	58
510.306	510.396	78	73
510.308	510.399	63	69
510.484	510.683	65	62
510.487	510.684	46	58
510.487	510.686	58	69
510.487	510.684	77	73
510.875	511.099	63	75
510.876	511.099	70	75
510.876	511.099	75	89
510.877	511.099	51	64
510.878	511.099	54	64
510.879	511.099	58	76
511.616	511.795	54	65
511.618	511.795	58	65
511.618	511.796	61	65
511.62	511.799	66	78
511.621	511.98	30	66
511.621	511.974	34	66
511.621	511.974	37	66
511.623	511.98	42	78
511.795	511.98	54	55
511.795	511.98	58	55
511.796	511.98	61	55
511.799	511.98	66	65
511.973	512.342	29	61
511.974	512.341	34	61
511.974	512.342	37	61
511.977	512.342	41	72
512.148	512.342	58	54
512.152	512.342	53	54
512.152	512.342	61	54
512.152	512.342	65	64
512.338	512.709	27	66
512.338	512.706	30	66
512.341	512.706	34	66
512.342	512.709	39	78
512.508	512.709	51	57
512.509	512.709	54	57
512.513	512.709	58	57
512.513	512.709	63	68
512.705	513.087	25	61
512.706	513.083	30	61
512.706	513.083	34	61
512.709	513.084	37	61
512.88	513.087	54	54
512.884	513.087	58	54
512.884	513.087	61	64
512.887	513.087	49	54
513.083	513.453	30	66
513.083	513.453	34	66
513.084	513.44	37	66
513.084	513.453	42	78
513.254	513.453	54	54
513.255	513.453	58	54
513.255	513.453	61	54
513.255	513.453	66	64
513.437	513.821	32	66
513.44	513.818	37	66
513.44	513.821	44	78
513.625	513.821	56	58
513.626	513.821	61	58
513.626	513.821	68	69
513.817	514.175	34	68
513.818	514.176	37	68
513.818	514.178	42	68
513.819	514.179	46	81
513.997	514.179	58	60
513.997	514.182	61	60
513.998	514.183	66	60
514.0	514.185	70	72
514.553	514.739	54	65
514.554	514.739	58	65
514.556	514.74	61	65
514.557	514.92	30	66
514.557	514.918	34	66
514.557	514.74	66	78
514.56	514.918	37	66
514.561	514.92	42	78
514.739	514.92	54	55
514.739	514.92	58	55
514.74	514.92	61	55
514.74	514.92	66	65
514.917	515.281	29	61
514.918	515.279	34	61
514.918	515.281	37	61
514.92	515.281	41	72
515.088	515.281	58	54
515.089	515.281	61	54
515.089	515.281	65	64
515.091	515.281	53	54
515.278	515.642	27	66
515.278	515.638	30	66
515.279	515.638	34	66
515.281	515.642	39	78
515.449	515.642	51	57
515.45	515.642	54	57
515.45	515.642	58	57
515.452	515.642	63	68
515.636	516.023	25	61
515.638	516.02	30	61
515.638	516.02	34	61
515.639	516.023	37	61
515.82	516.023	54	54
515.821	516.023	49	54
515.821	516.023	58	54
515.821	516.023	61	64
516.02	516.393	30	66
516.02	516.393	34	66
516.023	516.377	37	66
516.023	516.393	42	78
516.191	516.393	54	54
516.192	516.393	58	54
516.194	516.393	61	54
516.194	516.393	66	64
516.373	516.759	32	66
516.377	516.755	37	66
516.377	516.759	44	78
516.558	516.759	56	58
516.558	516.759	61	58
516.559	516.759	68	69
516.755	517.115	34	68
516.755	517.116	37	68
516.755	517.116	42	68
516.759	517.118	46	81
516.926	517.118	58	60
516.93	517.119	61	60
516.93	517.119	66	60
516.933	517.122	70	72
517.493	518.063	61	77
517.494	518.064	66	77
517.494	518.067	70	77
517.494	518.068	73	91
517.496	518.068	42	62
517.496	518.068	46	62
517.497	518.07	49	62
517.497	518.07	54	73
518.063	518.256	61	72
518.064	518.25	66	72
518.067	518.256	70	72
518.068	518.256	42	57
518.068	518.256	46	57
518.068	518.256	73	85
518.07	518.256	49	57
518.07	518.254	54	68
518.249	518.634	63	78
518.25	518.627	66	78
518.25	518.634	71	78
518.253	518.634	47	62
518.253	518.634	51	62
518.253	518.634	75	92
518.254	518.634	54	62
518.256	518.634	59	73
518.627	519.013	61	73
518.627	519.013	66	73
518.628	519.009	70	73
518.631	519.013	42	59
518.631	519.013	46	59
518.631	519.013	73	86
518.632	519.013	49	59
518.634	519.013	54	70
519.009	519.555	58	79
519.009	519.747	70	93
519.012	519.747	34	62
519.013	519.559	46	74
519.555	519.743	58	73
519.558	519.747	38	56
519.558	519.747	68	87
519.559	519.747	46	67
519.743	519.824	58	77
519.744	519.828	39	61
519.744	519.828	66	91
519.747	519.829	46	72
519.912	520.002	41	58
519.912	519.999	58	72
519.912	520.0	65	85
519.914	520.003	46	69
520.086	520.271	58	71
520.087	520.272	42	58
520.087	520.272	63	84
520.09	520.275	46	69
520.458	520.822	66	66
520.458	520.601	70	78
520.459	520.822	54	66
520.461	520.822	58	78
520.535	520.818	71	73
520.601	520.742	70	73
520.672	520.822	69	73
520.742	520.822	70	73
520.816	520.902	68	62
520.818	520.906	56	58
520.818	520.906	71	73
520.819	520.906	59	69
520.996	521.094	66	59
520.997	521.095	70	70
521.0	521.098	54	58
521.001	521.099	58	69
521.196	521.29	53	62
521.196	521.287	65	68
521.196	521.288	68	80
521.197	521.291	56	74
521.385	521.48	63	62
521.386	521.48	66	73
521.388	521.481	51	58
521.388	521.483	54	69
521.57	521.763	58	62
521.571	521.763	65	73
521.574	521.764	46	58
521.574	521.767	53	69
521.959	522.193	54	75
521.96	522.193	58	75
521.962	522.193	63	89
521.963	522.193	39	64
521.966	522.193	46	64
521.967	522.193	51	76
522.708	523.265	73	77
522.711	523.265	78	77
522.712	523.266	82	77
522.712	523.268	85	91
522.715	523.269	42	62
522.716	523.269	46	62
522.716	523.269	49	62
522.718	523.271	54	73
523.265	523.464	73	72
523.265	523.457	78	72
523.266	523.464	82	72
523.268	523.464	85	85
523.269	523.464	42	57
523.269	523.464	46	57
523.269	523.464	49	57
523.271	523.462	54	68
523.454	523.825	75	78
523.457	523.818	78	78
523.457	523.825	83	78
523.461	523.825	47	62
523.461	523.825	51	62
523.461	523.825	87	92
523.462	523.822	54	62
523.464	523.825	59	73
523.814	524.192	73	73
523.818	524.192	78	73
523.818	524.189	82	73
523.818	524.192	85	86
523.819	524.192	42	59
523.821	524.189	46	59
523.821	524.192	49	59
523.822	524.192	54	70
524.186	524.924	70	79
524.189	524.924	34	62
524.189	524.736	46	74
524.189	524.924	82	93
524.735	524.924	68	73
524.736	524.923	46	56
524.736	524.924	80	87
524.738	524.924	38	56
524.738	524.924	50	67
524.921	524.997	66	77
524.921	524.997	78	91
524.923	524.998	46	61
524.924	525.001	39	61
524.924	525.001	51	72
525.085	525.175	65	72
525.085	525.176	77	85
525.086	525.179	46	58
525.088	525.18	41	58
525.088	525.18	53	69
525.263	525.441	63	71
525.264	525.445	46	58
525.264	525.445	75	84
525.267	525.449	42	58
525.267	525.449	54	69
525.63	526.009	78	66
525.631	526.009	58	66
525.631	525.777	82	78
525.634	526.009	54	66
525.634	526.009	66	78
525.708	526.002	83	73
525.777	525.925	82	73
525.852	526.009	81	73
525.925	526.009	82	73
526.002	526.089	71	62
526.002	526.089	83	73
526.003	526.089	56	58
526.005	526.093	68	69
526.18	526.278	70	59
526.183	526.281	82	70
526.184	526.281	54	58
526.184	526.282	66	69
526.387	526.47	68	68
526.387	526.471	80	80
526.388	526.474	53	62
526.388	526.475	65	74
526.561	526.653	66	62
526.565	526.653	78	73
526.566	526.654	51	58
526.568	526.656	63	69
526.74	526.922	65	62
526.74	526.925	77	73
526.741	526.925	46	58
526.741	526.926	58	69
527.107	527.482	66	66
527.112	527.482	54	66
527.112	527.258	70	78
527.114	527.482	58	78
527.181	527.476	71	73
527.258	527.402	70	73
527.325	527.482	69	73
527.402	527.482	70	73
527.475	527.562	68	62
527.476	527.563	71	73
527.478	527.566	56	58
527.479	527.566	59	69
527.654	527.756	66	59
527.657	527.756	54	58
527.657	527.756	70	70
527.661	527.759	58	69
527.853	527.958	65	68
527.854	527.959	53	62
527.854	527.958	68	80
527.856	527.962	56	74
528.056	528.154	63	62
528.06	528.157	51	58
528.06	528.158	54	69
528.06	528.155	66	73
528.259	528.472	58	62
528.259	528.473	65	73
528.26	528.476	46	58
528.263	528.477	53	69
528.696	529.141	54	66
528.697	529.141	42	66
528.697	528.871	58	78
528.698	529.141	46	78
528.781	529.135	59	73
528.871	529.044	58	73
528.957	529.141	57	73
529.044	529.141	58	73
529.135	529.239	56	62
529.135	529.239	59	73
529.137	529.243	44	58
529.137	529.243	47	69
529.351	529.466	54	59
529.351	529.467	58	70
529.352	529.47	42	58
529.355	529.471	46	69
529.589	529.704	53	68
529.589	529.705	56	80
529.59	529.708	41	62
529.593	529.709	44	74
529.827	529.96	51	62
529.828	529.964	39	58
529.828	529.96	54	73
529.83	529.964	42	69
530.093	530.38	46	62
530.094	530.381	34	58
530.094	530.381	53	73
530.096	530.382	41	69
530.594	532.214	27	58
530.618	532.214	31	58
530.639	532.214	34	58
530.663	530.926	51	86
530.664	530.923	39	69
530.923	532.214	39	58
530.926	532.214	46	58
530.926	532.214	51	69
531.171	531.553	55	56
531.171	532.214	58	56
531.172	532.214	63	56
531.174	531.431	67	66
531.426	531.689	79	66
531.43	532.214	70	56
531.43	532.214	75	56
531.431	532.214	67	56
531.553	532.214	43	79
531.553	532.214	55	79
531.685	531.948	91	71
531.686	532.214	82	60
531.686	532.214	87	71
531.689	532.214	79	60
531.69	532.214	44	85
531.69	532.214	56	85
531.945	532.214	99	78
531.945	532.214	103	78
531.946	532.214	94	66
531.948	532.214	91	66
532.212	532.665	45	84
532.214	532.666	57	84
532.666	534.286	27	58
532.69	534.286	31	58
532.711	534.286	34	58
532.728	532.992	46	82
532.728	533.243	58	86
532.729	532.991	39	69
532.991	534.286	39	58
532.992	534.286	46	58
532.992	533.754	51	69
533.243	534.286	55	56
533.243	534.286	58	56
533.246	533.755	63	56
533.25	533.502	67	66
533.499	533.754	79	66
533.5	534.286	75	56
533.502	534.286	67	56
533.502	534.286	70	56
533.751	534.02	91	72
533.752	534.286	82	61
533.752	534.286	87	72
533.754	534.286	51	68
533.754	534.286	79	61
533.755	534.286	63	85
534.017	534.286	99	77
534.017	534.286	103	77
534.02	534.286	91	65
534.02	534.286	94	65
534.667	534.801	43	79
534.668	534.801	55	79
534.731	536.365	27	58
534.766	536.365	34	58
534.804	535.322	44	75
534.804	535.323	56	86
534.805	536.365	38	69
535.061	536.365	41	58
535.061	536.365	46	58
535.063	536.365	50	69
535.318	536.365	53	56
535.319	536.365	58	56
535.319	536.365	62	56
535.322	535.833	44	72
535.322	535.575	65	66
535.323	535.834	56	82
535.571	535.833	77	66
535.574	536.365	74	56
535.575	536.365	65	56
535.575	536.365	70	56
535.698	536.365	43	79
535.7	536.365	55	79
535.83	536.097	89	72
535.831	536.365	82	61
535.831	536.365	86	61
535.833	536.365	44	85
535.833	536.365	77	61
535.834	536.365	56	85
536.096	536.365	98	81
536.096	536.365	101	81
536.097	536.365	89	68
536.097	536.365	94	68
536.363	536.82	45	84
536.365	536.821	57	84
536.824	538.434	27	58
536.856	538.434	34	58
536.883	537.146	46	86
536.887	537.146	39	69
536.887	537.401	58	86
537.146	538.434	39	58
537.146	538.434	46	58
537.147	538.434	51	69
537.401	538.434	55	56
537.401	538.434	58	56
537.402	538.434	63	56
537.405	537.66	67	66
537.658	538.434	75	56
537.658	537.915	79	66
537.66	538.434	67	56
537.66	538.434	70	56
537.912	538.176	91	73
537.913	538.434	82	62
537.913	538.434	87	73
537.915	538.434	79	62
538.173	538.434	103	81
538.175	538.434	94	68
538.175	538.434	99	81
538.176	538.434	91	68
538.696	538.784	34	62
538.696	538.783	46	71
538.784	538.871	48	73
538.787	538.872	36	65
538.872	538.924	50	75
538.874	538.925	38	68
538.925	540.491	27	58
538.934	540.491	31	58
538.945	540.491	34	58
538.952	539.214	39	69
538.952	539.218	51	86
539.214	540.491	39	58
539.217	540.491	46	58
539.218	540.491	51	69
539.469	540.491	63	56
539.47	539.831	55	56
539.47	540.491	58	56
539.471	539.711	67	66
539.711	540.491	67	56
539.712	540.491	70	56
539.712	539.964	79	66
539.715	540.491	75	56
539.83	540.491	43	79
539.831	540.491	55	79
539.963	540.491	82	60
539.964	540.491	79	60
539.967	540.222	91	71
539.968	540.491	44	85
539.968	540.491	87	71
539.97	540.491	56	85
540.222	540.491	91	66
540.223	540.491	99	78
540.223	540.491	103	78
540.226	540.491	94	66
540.485	540.943	45	84
540.488	540.943	57	84
540.944	542.558	27	58
540.961	542.558	31	58
540.982	542.558	34	58
541.006	541.269	39	69
541.006	541.27	46	86
541.006	541.525	58	86
541.269	542.558	39	58
541.27	542.558	46	58
541.272	542.032	51	69
541.524	542.558	55	56
541.524	541.773	67	66
541.525	542.558	58	56
541.525	542.032	63	56
541.773	542.558	67	56
541.773	542.031	79	66
541.776	542.558	75	56
541.777	542.558	70	56
542.029	542.558	82	61
542.029	542.292	91	72
542.03	542.558	87	72
542.031	542.558	79	61
542.032	542.558	51	71
542.032	542.558	63	85
542.288	542.558	103	77
542.291	542.558	94	65
542.291	542.558	99	77
542.292	542.558	91	65
542.945	543.075	43	79
542.945	543.074	55	79
543.008	544.643	27	58
543.043	544.643	34	58
543.075	543.6	44	75
543.078	543.6	56	86
543.079	544.643	38	69
543.338	544.641	41	58
543.341	544.643	46	58
543.341	544.643	50	69
543.596	544.642	53	56
543.596	544.643	58	56
543.597	544.643	62	56
543.6	544.114	44	72
543.6	544.114	56	82
543.6	543.853	65	66
543.852	544.111	77	66
543.853	544.643	65	56
543.853	544.643	70	56
543.853	544.643	74	56
543.976	544.643	43	79
543.977	544.643	55	79
544.107	544.375	89	72
544.108	544.643	86	61
544.111	544.643	77	61
544.111	544.643	82	61
544.114	544.643	44	85
544.114	544.643	56	85
544.373	544.643	101	81
544.374	544.643	94	68
544.374	544.643	98	81
544.375	544.643	89	68
544.641	545.101	41	84
544.642	545.102	53	84
545.102	546.729	27	58
545.115	546.729	31	58
545.14	546.729	34	58
545.164	545.424	39	69
545.164	545.427	51	86
545.424	546.729	39	58
545.424	546.711	46	58
545.427	546.729	51	69
545.671	546.729	55	56
545.672	546.712	58	56
545.672	546.729	63	66
545.935	546.729	70	56
545.935	546.729	75	66
545.936	546.729	67	56
546.183	546.729	87	73
546.184	546.729	82	73
546.186	546.729	79	62
546.45	546.729	94	81
546.45	546.729	99	81
546.452	546.729	91	68
546.711	547.183	46	80
546.712	547.183	58	80
547.166	548.787	27	58
547.187	548.787	31	58
547.212	548.787	34	58
547.232	547.754	63	82
547.237	547.499	51	75
547.239	547.496	39	69
547.496	548.787	39	58
547.499	548.787	46	58
547.499	548.787	51	69
547.617	548.136	55	62
547.751	548.787	58	53
547.754	548.787	63	53
547.754	547.877	67	62
547.877	548.136	67	57
548.004	548.787	75	53
548.004	548.132	79	62
548.006	548.787	70	53
548.132	548.389	79	56
548.136	548.787	55	76
548.136	548.787	67	76
548.262	548.521	82	57
548.262	548.521	87	67
548.262	548.52	91	67
548.265	548.787	56	81
548.266	548.787	68	81
548.389	548.787	79	60
548.52	548.655	91	70
548.521	548.787	82	58
548.521	548.787	87	58
548.655	548.787	91	62
548.783	549.316	103	81
548.784	549.316	94	62
548.784	549.316	99	78
548.787	549.316	57	80
548.787	549.316	69	80
549.246	550.886	27	58
549.269	550.886	31	58
549.291	550.886	34	58
549.315	549.823	58	73
549.315	550.079	70	82
549.316	549.575	39	69
549.575	550.886	39	58
549.575	550.886	46	58
549.577	550.886	51	69
549.693	550.886	55	62
549.823	550.886	58	53
549.827	550.335	63	53
549.827	549.95	67	62
549.95	550.886	67	57
550.078	550.335	75	53
550.078	550.205	79	62
550.079	550.886	70	53
550.205	550.467	79	56
550.331	550.593	91	67
550.334	550.594	82	57
550.334	550.594	87	67
550.335	550.886	63	81
550.335	550.886	75	84
550.467	550.886	79	60
550.593	550.729	91	70
550.594	550.886	82	58
550.594	550.886	87	58
550.729	550.886	91	62
550.862	551.391	103	81
550.863	551.391	94	62
550.863	551.391	99	78
551.251	551.391	55	76
551.255	551.391	67	76
551.317	552.939	27	58
551.352	552.939	34	58
551.389	552.41	68	82
551.391	552.939	38	69
551.391	552.41	56	73
551.644	552.939	41	58
551.646	552.939	46	58
551.647	552.939	50	69
551.768	552.939	53	62
551.903	552.939	58	53
551.905	552.939	62	53
551.906	552.028	65	62
552.028	552.939	65	57
552.154	552.939	74	53
552.154	552.28	77	62
552.157	552.939	70	53
552.28	552.939	55	76
552.28	552.54	77	56
552.281	552.939	67	76
552.406	552.673	86	67
552.406	552.672	89	67
552.409	552.673	82	57
552.41	552.939	56	81
552.41	552.939	68	81
552.54	552.939	77	60
552.672	552.801	89	70
552.673	552.939	82	58
552.673	552.939	86	58
552.801	552.939	89	62
552.934	553.469	101	81
552.935	553.469	94	62
552.935	553.469	98	74
552.938	553.469	57	80
552.939	553.469	69	80
553.393	555.072	27	58
553.413	555.072	31	58
553.441	555.072	34	58
553.462	554.23	70	82
553.466	553.975	58	73
553.467	553.719	39	69
553.719	555.072	39	58
553.719	555.072	46	58
553.722	555.072	51	69
553.841	554.486	55	62
553.975	555.072	58	53
553.977	555.072	63	53
553.977	554.099	67	62
554.099	554.486	67	57
554.229	554.356	79	62
554.23	555.072	70	53
554.23	555.072	75	53
554.356	554.611	79	56
554.482	554.743	87	67
554.482	554.741	91	67
554.485	554.744	82	57
554.486	555.072	55	81
554.486	555.072	67	84
554.611	555.072	79	60
554.741	554.877	91	70
554.743	555.072	87	58
554.744	555.072	82	58
554.877	555.072	91	62
555.007	555.543	103	81
555.008	555.543	99	78
555.01	555.543	94	62
555.394	555.543	46	76
555.398	555.543	58	76
555.465	557.09	27	58
555.489	557.09	31	58
555.514	557.09	34	58
555.542	555.801	51	75
555.542	556.049	63	82
555.543	555.798	39	69
555.798	557.09	39	58
555.798	557.09	46	58
555.801	557.09	51	69
555.92	556.431	55	62
556.046	557.09	58	53
556.049	557.09	63	53
556.05	556.173	67	62
556.173	556.432	67	57
556.298	556.428	79	62
556.302	557.09	70	53
556.302	557.09	75	53
556.428	556.689	79	56
556.431	557.09	55	76
556.432	557.09	67	72
556.557	556.817	87	67
556.557	556.816	91	67
556.558	556.819	82	57
556.56	557.09	56	81
556.56	557.09	68	76
556.689	557.09	79	60
556.816	556.95	91	70
556.817	557.09	87	58
556.819	557.09	82	58
556.95	557.09	91	62
557.085	557.612	103	81
557.086	557.612	94	62
557.086	557.612	99	78
557.089	557.612	57	80
557.089	557.612	69	80
557.54	559.161	27	58
557.562	559.161	31	58
557.586	559.161	34	58
557.611	557.87	39	69
557.611	558.126	58	73
557.611	558.379	70	82
557.87	559.161	39	58
557.871	559.161	46	58
557.871	559.161	51	69
557.991	559.161	55	62
558.126	559.161	58	53
558.126	558.629	63	53
558.128	558.251	67	62
558.251	559.161	67	57
558.378	558.63	75	53
558.378	558.5	79	62
558.379	559.161	70	53
558.5	558.762	79	56
558.626	558.892	91	67
558.629	559.161	63	81
558.629	558.895	82	57
558.629	558.895	87	67
558.63	559.161	75	84
558.762	559.161	79	60
558.892	559.023	91	70
558.895	559.161	82	58
558.895	559.161	87	58
559.023	559.161	91	62
559.157	559.693	103	81
559.158	559.693	94	62
559.158	559.693	99	78
559.55	559.693	55	76
559.55	559.693	67	76
559.619	561.236	27	58
559.651	561.236	34	58
559.69	560.709	56	73
559.69	560.711	68	82
559.693	561.236	38	69
559.942	561.236	41	58
559.942	561.236	46	58
559.942	561.236	50	69
560.064	561.233	53	62
560.201	561.236	58	53
560.201	561.236	62	53
560.201	560.324	65	62
560.324	561.233	65	57
560.449	560.579	77	62
560.45	561.236	74	53
560.452	561.236	70	53
560.579	560.841	77	56
560.58	561.236	55	76
560.582	561.236	67	76
560.708	560.964	89	67
560.709	561.236	56	81
560.709	560.968	82	57
560.709	560.968	86	67
560.711	561.236	68	81
560.841	561.236	77	60
560.964	561.103	89	70
560.968	561.236	82	58
560.968	561.236	86	58
561.103	561.236	89	62
561.23	561.765	98	74
561.23	561.765	101	81
561.232	561.765	94	62
561.233	561.765	53	80
561.233	561.765	65	80
561.692	563.309	27	58
561.712	563.309	31	58
561.737	563.309	34	58
561.762	562.024	51	73
561.762	562.279	63	82
561.763	562.02	39	69
562.02	563.309	39	58
562.021	563.309	46	58
562.024	563.309	51	69
562.143	563.309	55	62
562.277	563.309	58	53
562.279	563.308	63	62
562.395	563.309	67	57
562.521	563.309	75	62
562.522	563.309	70	53
562.65	562.913	79	56
562.777	563.042	87	70
562.778	563.043	82	58
562.913	563.309	79	60
563.042	563.309	87	76
563.043	563.309	82	64
563.172	563.309	91	62
563.306	563.808	99	86
563.308	563.808	63	68
563.308	563.808	94	69
563.309	563.808	67	68
563.309	563.808	73	80
563.8	564.281	68	65
563.802	564.281	72	77
563.914	564.281	75	60
564.037	564.152	87	62
564.038	564.281	80	52
564.152	564.281	87	64
564.272	564.495	92	55
564.272	564.495	99	65
564.273	564.723	67	63
564.274	564.726	70	75
564.383	564.608	87	60
564.495	564.726	92	54
564.495	564.726	99	64
564.498	564.726	65	63
564.499	564.726	68	75
564.608	564.726	87	60
564.723	565.189	63	67
564.723	565.195	67	79
564.839	565.195	70	60
564.954	565.185	94	63
564.957	565.195	58	63
564.957	565.188	87	53
564.958	565.195	65	75
565.073	565.195	82	60
565.185	565.43	94	64
565.188	565.433	87	54
565.189	565.685	55	63
565.189	565.433	63	75
565.311	565.549	82	60
565.43	565.685	94	64
565.433	565.685	63	64
565.433	565.685	67	76
565.433	565.685	87	54
565.549	565.685	82	60
565.668	566.137	65	68
565.669	566.137	68	80
565.782	566.143	70	60
565.899	566.134	94	63
565.902	566.136	86	53
566.021	566.143	64	63
566.021	566.143	82	60
566.022	566.143	67	75
566.134	566.361	94	64
566.136	566.361	86	54
566.137	566.613	65	63
566.137	566.613	68	75
566.252	566.48	82	60
566.361	566.613	86	54
566.361	566.613	94	64
566.362	566.613	66	66
566.362	566.613	69	78
566.48	566.613	82	60
566.585	567.057	67	68
566.585	566.701	70	80
566.701	567.537	70	60
566.823	567.057	87	53
566.823	567.054	94	63
566.939	567.177	82	60
567.054	567.292	94	64
567.057	567.537	63	68
567.057	567.537	67	68
567.057	567.295	87	54
567.061	567.537	73	80
567.177	567.414	82	60
567.292	567.537	94	64
567.295	567.537	87	54
567.414	567.537	82	60
567.534	568.02	68	65
567.536	568.02	72	77
567.652	568.02	75	60
567.768	567.891	87	62
567.771	568.02	80	52
567.891	568.02	87	64
568.015	568.24	99	65
568.016	568.467	67	63
568.016	568.241	92	55
568.02	568.474	70	75
568.128	568.355	87	60
568.24	568.474	99	64
568.241	568.474	92	54
568.244	568.474	65	63
568.244	568.474	68	75
568.355	568.474	87	60
568.465	568.94	63	67
568.467	568.947	67	79
568.583	568.947	70	60
568.699	568.937	94	63
568.7	568.938	87	53
568.701	568.947	58	63
568.702	568.947	65	75
568.824	568.947	82	60
568.937	569.178	94	64
568.938	569.181	87	54
568.94	569.44	55	63
568.94	569.181	63	75
569.062	569.305	82	60
569.178	569.44	94	64
569.181	569.44	63	64
569.181	569.44	87	54
569.182	569.44	67	76
569.305	569.44	82	60
569.426	569.893	65	68
569.427	569.896	68	80
569.539	569.899	70	60
569.658	569.892	86	53
569.658	569.892	94	63
569.776	569.899	82	60
569.777	569.899	64	63
569.777	569.899	67	75
569.892	570.117	86	54
569.892	570.116	94	64
569.893	570.117	65	63
569.896	570.364	68	75
570.001	570.228	82	60
570.116	570.341	94	64
570.117	570.364	58	66
570.117	570.364	65	78
570.117	570.364	86	54
570.228	570.364	82	60
570.341	570.63	87	53
570.341	570.63	94	63
570.343	570.63	55	68
570.344	570.63	63	80
570.809	571.284	39	65
570.809	571.284	82	75
570.812	571.284	51	77
570.928	571.159	97	60
571.047	571.284	87	67
571.048	571.284	43	61
571.048	571.284	55	72
571.159	571.284	97	60
571.277	571.75	80	72
571.278	571.75	44	68
571.278	571.75	56	80
571.393	571.618	96	57
571.506	571.75	48	62
571.506	571.75	87	57
571.507	571.75	60	73
571.618	571.75	96	57
571.737	572.199	51	62
571.737	572.199	79	69
571.74	572.199	63	73
571.845	572.199	94	56
571.958	572.199	56	62
571.958	572.199	77	67
571.961	572.199	68	73
572.066	572.199	92	56
572.185	572.65	58	62
572.185	572.637	75	67
572.186	572.65	70	73
572.29	572.65	91	56
572.406	572.65	74	66
572.517	572.65	90	56
572.637	573.112	75	67
572.638	573.112	39	65
572.64	573.112	51	77
572.749	572.983	91	56
572.868	573.112	76	68
572.871	573.112	43	61
572.871	573.112	55	72
572.983	573.112	91	57
573.102	573.584	46	68
573.102	573.559	77	67
573.103	573.584	58	80
573.214	573.584	92	60
573.333	573.584	76	66
573.336	573.584	50	58
573.337	573.584	62	69
573.448	573.584	91	60
573.559	574.025	77	67
573.56	574.025	53	62
573.56	574.025	65	73
573.666	574.025	92	57
573.781	574.025	78	65
573.782	574.025	57	65
573.782	574.025	61	65
573.784	574.025	69	77
573.886	574.025	93	57
574.008	574.484	79	70
574.009	574.484	58	69
574.009	574.484	67	69
574.011	574.484	70	82
574.12	574.351	94	58
574.236	574.484	87	58
574.351	574.484	94	58
574.471	574.949	82	75
574.474	574.949	39	65
574.474	574.949	51	77
574.585	574.817	97	60
574.702	574.949	87	67
574.704	574.949	43	61
574.704	574.949	55	72
574.817	574.949	97	60
574.94	575.415	80	72
574.942	575.415	44	68
574.942	575.415	56	80
575.055	575.282	96	57
575.167	575.415	87	57
575.169	575.415	48	62
575.17	575.415	60	73
575.282	575.415	96	57
575.401	575.859	51	62
575.401	575.859	79	69
575.402	575.859	63	73
575.506	575.859	94	56
575.619	575.859	77	67
575.622	575.859	56	62
575.622	575.859	68	73
575.727	575.859	92	56
575.84	576.293	75	67
575.843	576.307	58	62
575.843	576.307	70	73
575.948	576.307	91	56
576.066	576.307	74	66
576.175	576.307	90	56
576.293	576.773	75	67
576.294	576.773	39	65
576.294	576.773	51	77
576.406	576.64	91	56
576.525	576.773	76	68
576.528	576.773	43	61
576.529	576.773	55	72
576.64	576.773	91	57
576.759	577.242	46	68
576.759	577.222	77	67
576.76	577.242	58	80
576.872	577.242	92	60
576.991	577.242	50	58
576.991	577.242	76	66
576.994	577.242	62	69
577.102	577.242	91	60
577.222	577.676	77	67
577.224	577.676	53	62
577.224	577.676	65	73
577.33	577.676	92	57
577.445	577.676	57	65
577.445	577.676	61	65
577.445	577.676	78	65
577.446	577.676	69	77
577.551	577.676	93	57
577.666	578.134	79	70
577.667	578.134	58	69
577.667	578.134	67	69
577.669	578.134	70	82
577.771	578.002	94	58
577.887	578.134	87	58
578.002	578.134	94	58
578.125	578.597	39	65
578.125	578.597	82	75
578.126	578.597	51	77
578.237	578.468	97	60
578.355	578.597	87	67
578.356	578.597	43	61
578.356	578.597	55	72
578.468	578.597	97	60
578.587	579.059	44	68
578.587	579.059	80	72
578.589	579.059	56	80
578.702	578.926	96	57
578.818	579.059	87	57
578.82	579.059	48	62
578.821	579.059	60	73
578.926	579.059	96	57
579.045	579.51	51	62
579.045	579.51	79	69
579.046	579.51	63	73
579.16	579.51	94	56
579.272	579.51	56	62
579.272	579.51	77	67
579.273	579.51	68	73
579.377	579.51	92	56
579.493	579.965	58	62
579.493	579.951	75	67
579.494	579.965	70	73
579.608	579.965	91	56
579.72	579.965	74	66
579.833	579.965	90	56
579.951	580.176	75	67
580.064	580.284	91	56
580.176	580.406	63	54
580.176	580.406	75	64
580.284	580.406	79	48
580.284	580.406	91	57
580.4	580.836	62	51
580.4	580.836	74	72
580.501	580.836	80	51
580.502	580.836	92	61
580.606	580.836	65	44
580.607	580.836	77	62
580.715	580.836	79	49
580.717	580.836	91	58
580.826	581.258	61	59
580.827	581.258	73	70
580.929	581.258	80	50
580.931	581.258	92	59
581.043	581.258	65	55
581.044	581.258	77	65
581.151	581.258	79	46
581.152	581.258	91	55
581.257	581.695	60	51
581.257	581.695	72	72
581.366	581.695	80	50
581.368	581.695	92	59
581.47	581.695	65	44
581.471	581.695	77	62
581.582	581.695	79	47
581.583	581.695	91	56
581.684	582.124	59	59
581.688	582.124	71	70
581.789	582.124	80	49
581.792	582.124	92	58
581.894	582.124	62	55
581.897	582.124	74	65
582.003	582.124	82	47
582.005	582.124	79	47
582.006	582.124	91	56
582.11	582.538	56	61
582.111	582.538	68	72
582.213	582.538	83	50
582.216	582.538	80	50
582.216	582.538	92	59
582.32	582.538	59	52
582.321	582.538	71	62
582.422	582.538	82	45
582.423	582.538	79	45
582.425	582.538	91	54
582.528	582.937	54	71
582.531	582.937	66	71
582.625	582.937	83	60
582.626	582.937	80	51
582.629	582.937	92	60
582.731	582.937	59	66
582.733	582.937	71	66
582.829	582.937	82	48
582.832	582.937	79	48
582.832	582.937	91	57
582.934	583.356	52	63
582.937	583.356	64	74
583.039	583.356	80	53
583.039	583.356	83	63
583.041	583.356	92	63
583.137	583.356	56	54
583.14	583.356	68	65
583.241	583.356	79	51
583.241	583.356	82	51
583.245	583.356	91	60
583.347	583.76	51	74
583.347	583.76	63	74
583.444	583.76	83	54
583.445	583.76	80	54
583.447	583.76	92	63
583.55	583.76	56	69
583.55	583.76	68	69
583.654	583.76	88	52
583.655	583.76	79	52
583.655	583.76	91	62
583.759	584.172	52	65
583.76	584.172	64	77
583.858	584.172	80	55
583.858	584.172	89	65
583.859	584.172	92	65
583.956	584.172	56	56
583.958	584.172	68	67
584.06	584.172	88	53
584.061	584.172	79	53
584.061	584.172	91	63
584.165	584.569	48	77
584.169	584.569	60	77
584.264	584.569	80	56
584.264	584.569	89	56
584.264	584.569	92	66
584.362	584.569	56	72
584.364	584.569	68	72
584.467	584.569	79	54
584.467	584.569	88	54
584.47	584.569	91	64
584.568	584.966	47	68
584.569	584.966	59	80
584.663	584.966	89	68
584.664	584.966	80	57
584.665	584.966	92	68
584.758	584.966	50	58
584.76	584.966	62	70
584.863	584.966	79	55
584.863	584.966	88	55
584.865	584.966	91	65
584.96	585.363	44	79
584.961	585.363	56	79
585.058	585.363	89	58
585.059	585.363	80	58
585.061	585.363	92	68
585.159	585.363	47	74
585.159	585.363	59	74
585.254	585.363	88	56
585.258	585.363	79	56
585.258	585.363	91	66
585.362	585.758	41	70
585.363	585.758	53	83
585.454	585.758	80	59
585.454	585.758	89	70
585.457	585.758	92	70
585.554	585.758	44	60
585.555	585.758	56	72
585.65	585.758	88	57
585.652	585.758	79	57
585.653	585.758	91	67
585.751	586.143	38	83
585.752	586.143	50	83
585.842	586.143	89	61
585.843	586.143	80	61
585.843	586.143	92	72
585.94	586.143	41	79
585.944	586.143	53	79
586.038	586.143	88	60
586.041	586.143	79	60
586.042	586.143	91	71
586.139	586.534	37	76
586.14	586.534	49	90
586.234	586.534	89	76
586.238	586.534	80	64
586.238	586.534	92	76
586.331	586.534	41	65
586.332	586.534	53	79
586.427	586.534	88	62
586.43	586.534	79	62
586.43	586.534	91	74
586.528	586.99	35	90
586.528	586.99	47	90
586.63	586.99	89	66
586.633	586.987	80	66
586.633	586.989	92	78
586.745	586.99	41	85
586.745	586.99	53	85
586.857	586.99	87	65
586.86	586.99	79	65
586.861	586.99	91	77
586.987	587.848	80	77
586.987	587.848	86	77
586.989	587.844	34	72
586.989	587.351	92	91
586.99	587.407	46	85
587.193	587.848	65	72
587.196	587.617	62	61
587.197	587.62	53	61
587.301	587.843	94	78
587.351	587.848	92	78
587.406	587.848	79	74
587.406	587.848	91	88
587.407	587.848	46	66
587.407	587.619	58	78
587.616	587.848	77	69
587.617	587.848	62	73
587.617	587.848	89	82
587.619	587.848	58	61
587.62	587.848	53	61
587.84	588.719	82	75
587.843	588.719	94	90
587.844	588.715	34	69
587.848	588.274	46	82
588.057	588.719	74	68
588.057	588.713	86	81
588.058	588.495	67	72
588.061	588.499	55	61
588.061	588.495	63	61
588.27	588.719	75	74
588.271	588.719	87	88
588.274	588.716	46	68
588.275	588.719	58	80
588.495	588.719	63	62
588.495	588.719	67	74
588.499	588.719	55	62
588.712	589.57	80	77
588.713	589.57	86	77
588.715	589.569	34	72
588.715	589.076	92	91
588.716	589.132	46	85
588.918	589.57	65	72
588.921	589.345	53	61
588.921	589.342	62	61
589.024	589.566	94	78
589.076	589.57	92	78
589.129	589.57	79	74
589.132	589.569	46	66
589.132	589.343	58	78
589.132	589.57	91	88
589.338	589.57	77	69
589.342	589.57	62	73
589.342	589.57	89	82
589.343	589.57	58	61
589.345	589.57	53	61
589.565	590.476	82	75
589.566	590.476	94	90
589.569	590.476	34	69
589.569	589.997	46	82
589.783	590.476	74	68
589.783	590.476	86	81
589.784	590.217	63	61
589.784	590.214	67	72
589.787	590.217	55	61
589.996	590.476	75	74
589.997	590.476	46	68
589.997	590.476	87	88
590.0	590.476	58	80
590.214	590.476	67	74
590.217	590.476	55	62
590.217	590.476	63	62
590.473	590.581	36	71
590.474	590.582	48	84
590.703	590.836	53	61
590.703	590.839	57	61
590.707	590.843	35	66
590.707	590.84	63	72
590.707	590.84	65	72
590.71	590.844	47	78
590.966	591.096	53	63
590.966	591.091	58	63
590.967	591.096	62	75
590.969	591.099	34	70
590.969	591.097	65	75
590.97	591.099	46	83
591.469	591.893	56	77
591.47	591.893	68	91
591.673	591.893	82	77
591.673	591.893	86	77
591.676	591.893	74	64
591.676	591.893	77	64
591.89	592.317	55	74
591.891	592.317	67	88
592.085	592.317	98	77
592.086	592.317	89	64
592.086	592.317	94	77
592.089	592.317	86	64
592.09	592.317	53	69
592.09	592.317	65	82
592.31	592.74	58	75
592.313	592.74	70	90
592.516	592.74	91	77
592.517	592.74	79	64
592.517	592.74	87	77
592.519	592.74	50	68
592.519	592.74	82	64
592.52	592.74	62	81
592.726	593.15	51	74
592.727	593.15	63	88
592.933	593.15	99	77
592.933	593.15	103	77
592.936	593.15	91	64
592.936	593.15	94	64
593.149	593.566	44	77
593.15	593.566	56	91
593.346	593.566	70	77
593.346	593.566	74	77
593.347	593.566	62	64
593.35	593.566	65	64
593.563	593.99	43	74
593.563	593.99	55	88
593.758	593.99	86	77
593.759	593.99	77	64
593.759	593.99	82	77
593.762	593.99	74	64
593.763	593.99	41	69
593.763	593.99	53	82
593.983	594.42	46	75
593.983	594.42	58	90
594.193	594.42	79	77
594.194	594.42	75	77
594.196	594.42	67	64
594.196	594.42	70	64
594.197	594.42	38	68
594.197	594.42	50	81
594.402	594.872	39	74
594.403	594.872	51	88
594.613	594.872	87	77
594.613	594.872	91	77
594.614	594.872	82	64
594.616	594.872	79	64
594.868	594.984	36	71
594.868	594.984	48	84
595.102	595.236	53	61
595.103	595.239	57	61
595.106	595.239	63	72
595.107	595.243	65	72
595.109	595.243	35	66
595.11	595.243	47	78
595.365	595.491	53	63
595.366	595.495	62	75
595.366	595.496	65	75
595.368	595.498	34	70
595.369	595.498	46	83
595.369	595.499	58	63
595.873	596.52	77	77
595.873	596.752	85	77
595.874	596.752	37	72
595.874	596.749	82	77
595.876	596.752	49	85
595.877	596.52	89	91
596.094	596.524	61	61
596.094	596.524	65	72
596.097	596.317	58	61
596.313	596.752	76	74
596.314	596.752	46	66
596.314	596.752	88	88
596.317	596.525	58	78
596.52	596.752	77	69
596.52	596.752	89	82
596.524	596.752	61	61
596.524	596.752	65	73
596.525	596.752	58	61
596.748	597.206	91	91
596.749	597.206	39	72
596.749	597.206	79	77
596.749	597.186	82	77
596.751	597.206	51	85
596.969	597.206	67	72
596.971	597.206	63	61
596.972	597.206	58	61
597.186	597.692	77	74
597.186	597.692	82	74
597.189	597.692	37	72
597.189	597.692	89	88
597.19	597.692	49	85
597.407	597.692	58	61
597.407	597.692	65	72
597.409	597.692	61	61
597.662	597.78	36	71
597.663	597.78	48	84
597.896	598.029	53	61
597.9	598.03	57	61
597.9	598.032	63	72
597.901	598.036	35	66
597.901	598.032	65	72
597.903	598.036	47	78
598.162	598.291	53	63
598.165	598.292	62	75
598.165	598.292	65	75
598.166	598.294	34	70
598.169	598.295	46	83
598.169	598.295	58	63
598.672	599.575	82	68
598.673	599.575	79	68
598.676	599.135	37	72
598.676	599.575	91	81
598.68	599.135	49	85
598.83	599.575	77	57
598.83	599.575	89	68
598.904	599.345	58	61
598.904	599.341	61	61
598.904	599.341	65	72
598.978	599.575	76	57
598.98	599.575	88	68
599.131	599.575	75	63
599.135	599.575	37	66
599.135	599.575	49	78
599.135	599.575	87	75
599.268	599.575	74	59
599.269	599.575	86	70
599.341	599.575	61	61
599.341	599.575	65	73
599.345	599.575	58	61
599.419	599.575	73	59
599.422	599.575	85	70
599.569	600.02	72	71
599.573	600.038	36	72
599.573	600.038	48	85
599.573	599.796	84	84
599.796	600.02	84	64
599.796	600.038	96	77
599.797	600.038	64	72
599.8	600.038	55	61
599.8	600.038	58	61
600.02	600.479	72	70
600.02	600.248	84	83
600.024	600.479	41	66
600.024	600.479	53	78
600.248	600.479	63	61
600.248	600.479	84	64
600.248	600.479	96	77
600.252	600.479	57	61
600.252	600.479	65	73
600.476	600.597	36	71
600.476	600.598	48	84
600.717	600.839	53	61
600.717	600.84	57	61
600.718	600.842	63	72
600.72	600.843	35	66
600.72	600.843	65	72
600.724	600.846	47	78
600.965	601.095	53	63
600.969	601.095	62	75
600.97	601.096	65	75
600.972	601.098	34	70
600.972	601.098	46	83
600.973	601.102	58	63
601.473	601.907	53	77
601.473	601.907	61	77
601.473	601.906	65	91
601.477	601.91	58	77
601.686	601.854	73	69
601.686	601.854	82	82
601.69	601.854	70	69
601.911	602.012	52	74
601.913	602.015	64	88
602.117	602.235	82	68
602.117	602.233	85	68
602.117	602.232	94	81
602.121	602.235	53	69
602.121	602.236	65	82
602.348	602.786	63	77
602.351	602.786	55	77
602.351	602.786	67	91
602.352	602.787	58	77
602.565	602.761	82	82
602.566	602.761	70	69
602.566	602.761	75	69
602.789	603.255	53	74
602.789	603.255	61	74
602.79	603.255	58	74
602.793	603.255	65	88
603.006	603.255	85	68
603.006	603.255	94	81
603.007	603.255	82	68
603.254	603.37	36	71
603.255	603.374	48	84
603.499	603.625	53	61
603.5	603.625	57	61
603.5	603.629	63	72
603.5	603.629	65	72
603.502	603.63	35	66
603.503	603.632	47	78
603.752	603.888	53	63
603.755	603.889	62	75
603.755	603.889	65	75
603.759	603.891	34	70
603.759	603.892	46	83
603.759	603.892	58	63
604.276	604.711	55	68
604.276	604.711	67	81
604.434	604.711	53	57
604.437	604.711	65	68
604.507	604.711	73	69
604.511	604.711	70	69
604.511	604.711	77	69
604.512	604.711	82	82
604.588	604.735	52	57
604.588	604.735	64	68
604.735	605.187	51	63
604.739	605.187	63	75
604.876	605.187	50	59
604.878	605.187	62	70
604.948	605.187	82	68
604.948	605.187	85	68
604.948	605.187	89	68
604.952	605.187	94	81
605.027	605.187	49	59
605.029	605.187	61	70
605.184	605.617	55	77
605.186	605.617	60	91
605.187	605.618	48	77
605.187	605.62	52	77
605.396	605.592	79	69
605.397	605.592	84	82
605.399	605.592	76	69
605.4	605.592	72	69
605.62	606.099	48	74
605.624	606.1	41	74
605.624	606.1	45	74
605.625	606.1	53	88
605.837	606.1	96	68
605.841	606.1	93	68
605.841	606.1	101	81
605.842	606.1	89	68
606.097	606.215	36	71
606.099	606.215	48	84
606.341	606.478	53	61
606.345	606.479	57	61
606.345	606.479	63	72
606.349	606.481	35	66
606.349	606.481	47	78
606.349	606.479	65	72
606.604	606.726	53	63
606.607	606.727	62	75
606.607	606.729	65	75
606.608	606.73	34	70
606.608	606.73	46	83
606.611	606.73	58	63
606.968	607.023	68	64
607.024	607.076	70	64
607.077	607.917	68	73
607.282	607.917	74	52
607.353	607.917	77	54
607.424	607.917	82	55
607.489	607.917	86	57
607.49	607.917	67	69
607.556	607.917	89	59
607.626	607.917	94	60
607.696	607.917	98	62
607.697	607.917	65	62
607.917	608.367	70	70
608.123	608.367	79	53
608.126	608.367	62	63
608.2	608.367	82	55
608.27	608.367	87	57
608.34	608.41	91	59
608.344	608.693	63	71
608.411	608.606	94	61
608.487	608.606	99	64
608.557	608.696	103	66
608.697	608.753	64	64
608.754	608.809	66	64
608.81	609.226	63	73
609.018	609.653	70	52
609.09	609.653	73	54
609.153	609.653	78	56
609.226	609.653	63	69
609.226	609.653	82	58
609.292	609.653	85	60
609.362	609.653	90	61
609.433	609.653	61	62
609.433	609.653	94	63
609.648	610.086	66	70
609.859	610.086	71	54
609.863	610.086	58	63
609.933	610.086	75	55
610.006	610.086	78	57
610.077	610.146	83	58
610.079	610.534	59	71
610.146	610.289	87	60
610.216	610.289	90	61
610.279	610.419	95	63
610.419	610.475	60	64
610.475	610.535	62	64
610.538	611.379	60	73
610.748	611.379	66	54
610.818	611.379	68	56
610.885	611.379	74	57
610.955	611.379	78	58
610.956	611.379	59	69
611.024	611.379	80	59
611.091	611.379	86	60
611.161	611.379	90	62
611.162	611.379	57	62
611.378	611.829	62	70
611.584	611.829	67	54
611.585	611.829	54	63
611.655	611.829	71	55
611.731	611.829	74	57
611.797	611.866	79	58
611.801	612.123	55	71
611.868	612.059	83	59
611.937	612.059	86	60
612.008	612.126	91	62
612.237	612.686	44	55
612.242	612.686	56	65
612.346	612.686	59	45
612.35	612.686	71	54
612.456	612.686	50	46
612.459	612.686	62	55
612.56	612.686	77	55
612.563	612.686	65	46
612.666	612.767	45	55
612.668	612.77	57	65
612.77	613.074	72	56
612.771	613.074	60	47
612.868	613.074	63	56
612.872	613.074	51	47
612.974	613.074	66	47
612.974	613.074	78	56
613.072	613.168	46	59
613.074	613.169	58	70
613.169	613.782	75	60
613.172	613.478	63	51
613.275	613.579	67	60
613.277	613.904	55	51
613.373	613.904	82	60
613.375	613.676	70	51
613.478	613.904	63	72
613.481	613.904	51	61
613.578	613.904	79	61
613.579	613.904	67	51
613.676	613.904	70	61
613.677	613.904	58	51
613.779	613.904	87	61
613.782	613.904	75	51
613.894	614.713	53	61
613.897	614.496	65	72
613.996	614.594	82	62
613.998	614.292	70	52
614.094	614.392	74	62
614.097	614.713	62	52
614.191	614.713	89	62
614.194	614.492	77	52
614.292	614.713	70	75
614.293	614.713	58	63
614.391	614.713	86	63
614.392	614.713	74	53
614.492	614.713	77	63
614.496	614.713	65	53
614.594	614.713	82	53
614.594	614.713	94	63
614.71	615.552	56	62
614.71	615.552	68	73
614.915	615.552	74	52
614.986	615.552	77	54
615.056	615.552	82	55
615.122	615.552	55	58
615.122	615.552	86	57
615.123	615.552	67	69
615.189	615.552	89	59
615.258	615.552	94	60
615.329	615.552	53	52
615.329	615.552	98	62
615.332	615.552	65	62
615.549	616.0	58	59
615.55	616.0	70	70
615.758	616.0	79	53
615.759	616.0	50	53
615.759	616.0	62	63
615.835	616.0	82	55
615.903	616.0	87	57
615.973	616.326	51	60
615.973	616.043	91	59
615.976	616.33	63	71
616.043	616.273	94	61
616.12	616.273	99	64
616.189	616.33	103	66
616.441	617.288	52	62
616.442	617.288	64	73
616.652	617.288	70	52
616.722	617.288	73	54
616.792	617.288	78	56
616.859	617.288	51	58
616.859	617.288	82	58
616.861	617.288	63	69
616.925	617.288	85	60
616.995	617.288	90	61
617.065	617.288	94	63
617.067	617.288	49	52
617.068	617.288	61	62
617.285	617.719	54	59
617.286	617.719	66	70
617.495	617.719	71	54
617.496	617.719	46	53
617.496	617.719	58	63
617.566	617.719	75	55
617.639	617.719	78	57
617.709	617.778	83	58
617.71	618.048	47	60
617.711	618.052	59	71
617.779	617.947	87	60
617.842	617.947	90	61
617.911	618.055	95	63
618.167	619.011	48	62
618.168	619.011	60	73
618.381	619.011	66	54
618.454	619.011	68	56
618.518	619.011	74	57
618.588	619.011	78	58
618.59	619.011	47	58
618.59	619.011	59	69
618.657	619.011	80	59
618.724	619.011	86	60
618.79	619.011	90	62
618.791	619.011	45	52
618.791	619.011	57	62
619.007	619.462	50	59
619.007	619.462	62	70
619.217	619.462	67	54
619.218	619.462	42	53
619.22	619.462	54	63
619.294	619.462	71	55
619.361	619.462	74	57
619.434	619.5	79	58
619.435	619.755	43	60
619.435	619.76	55	71
619.504	619.71	83	59
619.571	619.71	86	60
619.643	619.76	91	62
619.875	620.312	44	55
619.875	620.312	56	65
619.98	620.312	59	45
619.981	620.312	71	54
620.089	620.312	50	46
620.092	620.312	62	55
620.194	620.312	77	55
620.197	620.312	65	46
620.299	620.4	45	55
620.3	620.404	57	65
620.404	620.709	72	56
620.407	620.709	60	47
620.502	620.709	63	56
620.505	620.709	51	47
620.608	620.709	66	47
620.608	620.709	78	56
620.705	620.802	46	58
620.708	620.803	58	69
620.806	621.422	75	57
620.807	621.111	63	48
620.909	621.212	67	57
620.911	621.531	55	48
621.006	621.532	82	57
621.009	621.314	70	48
621.111	621.532	63	69
621.114	621.532	51	58
621.212	621.531	67	48
621.212	621.532	79	57
621.314	621.532	70	57
621.317	621.532	58	48
621.419	621.532	87	58
621.422	621.532	75	49
621.531	622.346	55	60
621.531	622.129	67	71
621.628	622.228	82	59
621.629	621.926	70	50
621.727	622.025	75	59
621.73	622.346	63	50
621.825	622.346	91	59
621.828	622.126	79	50
621.926	622.346	58	61
621.926	622.346	70	72
622.024	622.346	87	55
622.025	622.346	75	55
622.126	622.346	79	55
622.129	622.346	67	55
622.227	622.346	94	55
622.228	622.346	82	55
622.342	623.151	65	64
622.343	622.64	77	64
622.441	623.152	92	50
622.444	623.152	80	50
622.542	623.152	62	58
622.542	622.843	74	58
622.639	623.152	89	50
622.64	623.152	77	50
622.742	623.152	58	57
622.745	623.04	70	57
622.841	623.152	86	50
622.843	623.152	74	50
622.941	623.152	56	57
622.941	623.152	68	57
623.04	623.152	70	50
623.04	623.152	82	50
623.151	623.963	53	64
623.151	623.448	65	64
623.249	623.964	68	50
623.249	623.964	80	50
623.348	623.964	50	58
623.35	623.651	62	58
623.446	623.849	77	50
623.448	623.848	65	50
623.547	623.964	46	57
623.547	623.964	58	57
623.649	623.964	74	51
623.651	623.964	62	51
623.74	623.964	44	59
623.742	623.964	56	59
623.848	623.964	65	53
623.849	623.964	77	53
623.96	624.768	41	70
623.963	624.768	53	70
624.062	624.768	80	56
624.064	624.768	68	56
624.16	624.768	38	66
624.163	624.768	50	66
624.26	624.768	82	58
624.261	624.768	70	58
624.365	624.768	34	68
624.366	624.768	46	68
624.461	624.768	86	61
624.464	624.768	74	61
624.562	624.768	33	71
624.563	624.768	45	71
624.66	624.768	77	64
624.661	624.768	89	64
624.765	625.597	32	84
624.765	625.597	44	84
624.863	625.597	92	67
624.864	625.597	80	67
624.96	625.597	31	80
624.961	625.597	43	80
625.059	625.597	82	70
625.059	625.597	94	70
625.159	625.597	29	81
625.16	625.597	41	81
625.262	625.597	96	73
625.266	625.597	84	73
625.36	625.597	34	85
625.363	625.597	46	85
625.466	625.597	86	75
625.468	625.597	98	75
625.57	625.667	27	79
625.574	625.668	39	94
625.668	625.982	99	82
625.671	625.982	87	70
625.774	625.982	34	73
625.776	625.982	46	87
625.871	625.982	101	73
625.873	625.982	98	73
625.874	625.982	89	62
625.874	625.982	94	62
625.973	626.382	39	78
625.975	626.379	51	93
626.07	626.382	99	77
626.07	626.382	103	77
626.071	626.274	94	66
626.074	626.382	91	66
626.175	626.382	46	73
626.176	626.382	58	87
626.273	626.382	101	77
626.274	626.382	94	66
626.274	626.382	98	77
626.276	626.382	89	66
626.379	626.781	51	78
626.382	626.798	63	93
626.476	626.798	103	77
626.48	626.798	91	66
626.48	626.682	94	66
626.48	626.798	99	77
626.578	626.798	46	69
626.578	626.798	58	81
626.68	626.798	101	77
626.682	626.798	94	66
626.682	626.798	98	77
626.683	626.798	89	66
626.781	626.871	39	74
626.781	626.876	51	88
626.878	627.191	103	77
626.879	627.191	91	66
626.879	627.191	99	77
626.88	627.082	94	66
626.977	627.191	34	71
626.977	627.191	46	84
627.079	627.191	101	77
627.082	627.191	89	66
627.082	627.191	94	66
627.082	627.191	98	77
627.188	627.599	39	78
627.188	627.586	51	93
627.285	627.489	94	66
627.285	627.599	99	77
627.285	627.599	103	77
627.286	627.599	91	66
627.383	627.599	46	69
627.386	627.599	58	81
627.488	627.599	98	77
627.488	627.599	101	77
627.489	627.599	89	66
627.489	627.599	94	66
627.586	627.68	51	74
627.589	627.684	63	88
627.684	628.003	103	77
627.685	628.003	99	77
627.687	628.003	91	66
627.687	627.89	94	66
627.785	628.003	46	71
627.785	628.003	58	84
627.886	628.003	101	77
627.887	628.003	98	77
627.89	628.003	94	66
627.891	628.003	89	66
628.0	628.394	39	78
628.002	628.395	51	93
628.097	628.412	103	77
628.098	628.412	99	77
628.1	628.412	91	66
628.1	628.296	94	66
628.195	628.412	34	69
628.199	628.412	46	81
628.293	628.412	101	77
628.294	628.412	98	77
628.296	628.412	89	66
628.296	628.412	94	66
628.394	628.492	39	74
628.395	628.495	51	88
628.496	628.815	99	77
628.496	628.815	103	77
628.5	628.811	91	66
628.5	628.702	94	66
628.597	628.818	46	71
628.598	628.818	58	84
628.7	628.818	101	77
628.702	628.818	89	66
628.702	628.814	94	66
628.702	628.818	98	77
628.811	632.234	91	77
628.814	632.878	94	77
628.815	629.133	51	78
628.815	632.235	99	77
628.815	632.878	103	93
628.818	629.133	63	93
629.125	629.245	70	68
629.13	629.244	67	68
629.13	629.248	75	68
629.13	629.249	79	80
629.132	629.251	55	64
629.133	629.249	51	64
629.133	629.252	58	64
629.133	629.252	63	75
629.244	629.994	67	75
629.245	629.987	70	75
629.248	629.987	75	75
629.249	629.56	51	68
629.249	631.38	79	89
629.251	629.556	55	68
629.252	629.557	58	68
629.252	629.557	63	80
629.556	629.666	55	70
629.557	629.668	58	70
629.557	629.668	63	82
629.559	629.669	39	65
629.56	629.672	46	65
629.56	629.672	51	76
629.666	629.99	55	76
629.668	629.991	58	76
629.668	629.991	63	91
629.669	630.42	39	68
629.672	630.421	46	68
629.672	630.421	51	80
629.987	630.098	70	68
629.987	630.099	75	68
629.99	630.103	55	64
629.99	630.099	82	80
629.991	630.1	58	64
629.991	630.103	63	64
629.994	630.103	67	75
630.098	632.237	70	75
630.099	631.38	75	75
630.099	632.878	82	89
630.1	630.418	58	68
630.103	630.413	55	68
630.103	630.418	63	68
630.103	631.386	67	80
630.413	630.526	55	70
630.418	630.529	58	70
630.418	630.53	63	82
630.42	630.53	39	65
630.421	630.532	46	65
630.421	630.532	51	76
630.526	631.383	55	76
630.529	631.383	58	76
630.53	632.878	39	68
630.53	631.383	63	91
630.532	632.878	46	68
630.532	632.878	51	80
631.38	632.237	75	84
631.38	632.238	79	84
631.381	632.234	87	99
631.383	632.878	55	74
631.383	632.878	58	74
631.383	632.878	63	74
631.386	632.235	67	88
632.234	632.878	87	84
632.234	632.878	91	84
632.235	632.878	67	74
632.235	632.878	99	99
632.237	632.878	70	74
632.237	632.878	75	74
632.238	632.878	79	88
