OnsetTime	OffsetTime	MidiPitch	Velocity
0.521985	1.76597	69	77
0.86099	1.15897	66	68
0.865992	1.15998	50	59
1.01198	1.76597	73	70
1.15598	1.76597	74	71
1.15897	1.45097	66	60
1.15998	1.45297	50	52
1.15998	1.45297	57	52
1.15998	1.45297	62	52
1.29897	1.76597	76	71
1.44998	1.67697	78	72
1.45097	1.76597	66	61
1.45297	1.76597	50	52
1.45297	1.76597	57	52
1.45297	1.76597	62	52
1.58897	1.71896	79	73
1.67697	1.76496	78	70
1.71896	1.76597	79	68
1.76496	2.65497	45	59
1.76496	2.65497	78	76
2.06198	2.36297	67	62
2.06297	2.36398	52	54
2.06297	2.65497	76	74
2.06597	2.36697	57	54
2.06597	2.36697	61	54
2.21297	2.65497	74	74
2.36297	2.65497	67	62
2.36297	2.65497	73	73
2.36398	2.65497	52	54
2.36697	2.65497	57	54
2.36697	2.65497	61	54
2.50297	2.65497	71	72
2.65398	3.55396	69	74
2.65497	3.55396	38	59
2.79397	2.94098	74	70
2.93698	3.24997	66	62
2.94098	3.25197	50	54
2.94098	3.14098	74	74
2.94198	3.25297	57	54
2.94198	3.25297	62	54
3.04198	3.55396	76	70
3.14098	3.55396	74	70
3.24997	3.55396	66	59
3.25197	3.55396	50	54
3.25197	3.55296	73	70
3.25297	3.55396	57	54
3.25297	3.55396	62	54
3.39596	3.55396	71	70
3.55296	4.56894	73	73
3.55396	4.56894	45	59
3.86397	4.20096	64	44
3.86496	4.20096	69	53
3.86796	4.20096	57	43
4.19995	4.56894	67	57
4.20096	4.56894	57	56
4.20096	4.56894	64	56
4.20096	4.56795	69	68
4.56795	5.46393	69	74
4.56894	5.15595	50	59
4.71596	5.46393	73	70
4.85895	5.46393	74	71
4.86195	5.15595	57	52
4.86195	5.15294	66	60
4.86294	5.15694	62	52
5.00195	5.46393	76	71
5.15195	5.37695	78	72
5.15294	5.46393	66	61
5.15595	5.46393	50	52
5.15595	5.46393	57	52
5.15694	5.46393	62	52
5.29294	5.41894	79	73
5.37695	5.46094	78	70
5.41894	5.46393	79	68
5.46094	6.35294	78	76
5.46393	6.35294	43	59
5.75794	6.05293	67	62
5.76095	6.35294	76	74
5.76194	6.05592	59	54
5.76194	6.05592	64	54
5.90494	6.35294	74	74
6.05293	6.35294	67	62
6.05493	6.35294	73	73
6.05592	6.35294	52	54
6.05592	6.35294	59	54
6.05592	6.35294	64	54
6.19894	6.35294	71	72
6.34993	7.24992	45	59
6.34993	7.09492	69	74
6.48593	6.63093	73	70
6.62994	6.94793	67	62
6.63093	6.83594	73	74
6.63194	6.94892	57	54
6.63295	6.94892	64	54
6.73494	7.24892	74	70
6.83594	7.24992	73	70
6.94793	7.24992	67	59
6.94793	7.24992	71	70
6.94892	7.24992	57	54
6.94892	7.24992	64	54
7.09492	7.24992	69	70
7.24892	8.25391	38	59
7.24892	8.25391	74	73
7.55691	7.87692	50	36
7.55691	7.87591	66	53
7.56091	7.87692	57	36
7.56091	7.87891	62	43
7.87591	8.53392	66	47
7.87692	8.53492	50	39
7.87692	8.53691	57	39
7.87891	8.53691	62	39
8.22591	9.14992	69	40
8.37692	9.14992	73	39
8.53392	8.82891	66	33
8.53392	9.14992	74	39
8.53492	8.83091	50	23
8.53691	8.83091	57	23
8.53691	8.83091	62	23
8.68091	9.14992	76	39
8.82792	9.05592	78	40
8.82891	9.14992	66	33
8.83091	9.14992	50	23
8.83091	9.14992	57	23
8.83091	9.14992	62	23
8.97492	9.10092	79	40
9.05592	9.14692	78	39
9.10092	9.14992	79	37
9.14692	10.0629	78	42
9.14992	10.0629	45	27
9.45092	9.75592	67	34
9.45192	10.0629	76	40
9.45392	9.75992	52	24
9.45392	9.75992	57	24
9.45491	9.76192	61	24
9.60193	10.0629	74	40
9.75592	10.0629	67	34
9.75893	10.0629	73	40
9.75992	10.0629	52	24
9.75992	10.0629	57	24
9.76192	10.0629	61	24
9.90292	10.0629	71	40
10.0599	10.9799	69	40
10.0609	10.9799	38	27
10.1999	10.3459	74	39
10.3439	10.6689	66	34
10.3459	10.6719	50	24
10.3459	10.5609	74	40
10.3469	10.6719	57	24
10.3499	10.6729	62	24
10.4549	10.9799	76	39
10.5609	10.9799	74	39
10.6689	10.9799	66	32
10.6689	10.9769	73	39
10.6719	10.9799	50	24
10.6719	10.9799	57	24
10.6729	10.9799	62	24
10.8229	10.9799	71	39
10.9769	11.9999	45	27
10.9769	11.9999	73	40
11.2949	11.6459	64	24
11.2979	11.6449	69	29
11.2989	11.6459	57	20
11.2989	11.9999	61	20
11.6419	11.9999	67	31
11.6449	11.9989	69	37
11.6459	12.2989	57	26
11.6459	11.9999	64	26
11.9989	12.9119	69	40
11.9999	12.5909	50	27
12.1419	12.9119	73	39
12.2969	12.9119	74	39
12.2989	12.5929	57	23
12.2989	12.5909	66	33
12.2999	12.5929	62	23
12.4399	12.9119	76	39
12.5899	12.8249	78	40
12.5909	12.9119	50	23
12.5909	12.9119	66	33
12.5929	12.9119	57	23
12.5929	12.9119	62	23
12.7409	12.8639	79	40
12.8249	12.9089	78	39
12.8639	12.9119	79	37
12.9089	13.8229	43	27
12.9089	13.8229	78	42
13.2139	13.5179	67	34
13.2139	13.8229	76	40
13.2159	13.5219	59	24
13.2159	13.5219	64	24
13.3639	13.8229	74	40
13.5179	13.8229	67	34
13.5209	13.8229	73	40
13.5219	13.8229	52	24
13.5219	13.8229	59	24
13.5219	13.8229	64	24
13.6659	13.8229	71	40
13.819	14.585	69	40
13.8229	14.744	45	27
13.963	14.117	73	39
14.113	14.4279	67	34
14.117	14.4319	57	24
14.117	14.4329	64	24
14.117	14.323	73	40
14.218	14.7429	74	39
14.323	14.744	73	39
14.4279	14.744	67	32
14.4319	14.744	57	24
14.4319	14.744	71	39
14.4329	14.744	64	24
14.585	14.744	69	39
14.7429	16.6269	38	27
14.7429	16.4509	74	40
15.0569	15.3869	66	29
15.0579	15.3869	50	17
15.0609	15.3909	57	17
15.0619	15.3909	62	20
15.3869	16.6269	50	26
15.3869	16.6269	66	37
15.3909	16.0209	57	26
15.3909	16.6269	62	26
15.7259	16.6269	64	73
15.7269	16.0199	45	59
15.8729	16.6269	68	70
16.0169	16.6269	69	71
16.0199	16.3069	45	52
16.0199	16.3079	52	52
16.0199	16.3069	61	60
16.0209	16.3109	57	52
16.1609	16.6269	71	71
16.3049	16.5389	73	72
16.3069	16.6269	45	52
16.3069	16.6269	61	61
16.3079	16.6269	52	52
16.3109	16.6269	57	52
16.4509	16.5799	74	73
16.5389	16.6259	73	70
16.5799	16.6269	74	68
16.6259	17.5159	40	59
16.6259	17.5159	73	76
16.9199	17.2209	62	62
16.9229	17.5159	71	74
16.9239	17.2239	52	54
16.9269	17.2249	59	54
17.0669	17.5159	69	74
17.2209	17.5159	62	62
17.2219	17.5159	68	73
17.2239	17.5159	52	54
17.2249	17.5159	59	54
17.3649	17.5159	66	72
17.5119	18.4149	64	74
17.5149	18.4149	33	59
17.6549	17.8009	69	70
17.7989	18.1099	61	62
17.8009	18.0019	69	74
17.8019	18.1139	45	54
17.8019	18.1139	52	54
17.8029	18.1139	57	54
17.8959	18.4149	71	70
18.0019	18.4149	69	70
18.1099	18.4149	61	59
18.1129	18.4109	68	70
18.1139	18.4149	45	54
18.1139	18.4149	52	54
18.1139	18.4149	57	54
18.2569	18.4149	66	70
18.4109	19.4259	68	73
18.4149	19.4259	40	59
18.7249	19.0649	59	44
18.7259	19.0619	64	53
18.7289	19.0619	52	43
19.0609	19.4259	62	57
19.0619	19.4259	52	56
19.0619	19.4229	64	68
19.0649	19.4259	59	56
19.4229	20.3188	64	74
19.4249	20.0038	45	59
19.5659	20.3188	68	70
19.7099	20.0038	61	60
19.7099	20.3188	69	71
19.7118	20.0048	52	52
19.7128	20.0058	57	52
19.8528	20.3188	71	71
20.0028	20.2308	73	72
20.0038	20.3188	45	52
20.0038	20.3188	61	61
20.0048	20.3188	52	52
20.0058	20.3188	57	52
20.1438	20.2728	74	73
20.2308	20.3158	73	70
20.2728	20.3188	74	68
20.3158	21.2068	73	76
20.3188	21.2068	38	59
20.6128	20.9069	62	62
20.6148	21.2068	71	74
20.6158	20.9109	54	54
20.6158	20.9139	59	54
20.7598	21.2068	69	74
20.9069	21.2068	62	62
20.9098	21.2068	47	54
20.9098	21.2068	68	73
20.9109	21.2068	54	54
20.9139	21.2068	59	54
21.0568	21.2068	66	72
21.2048	21.9498	64	74
21.2068	22.1068	40	59
21.3468	21.4868	68	70
21.4838	21.8018	62	62
21.4868	21.6938	68	74
21.4878	21.8028	52	54
21.4878	21.8058	59	54
21.5888	22.1038	69	70
21.6938	22.1068	68	70
21.8018	22.1068	62	59
21.8028	22.1068	52	54
21.8028	22.1068	66	70
21.8058	22.1068	59	54
21.9498	22.1068	64	70
22.1038	23.1218	69	73
22.1068	23.1218	33	59
22.4108	22.7438	61	53
22.4148	22.7438	45	36
22.4148	22.7448	52	36
22.4158	22.7448	57	43
22.7438	23.4018	45	39
22.7438	23.3988	61	47
22.7448	23.4018	52	39
22.7448	23.4028	57	39
23.0938	24.0278	64	40
23.2448	24.0278	68	39
23.3988	23.6968	61	33
23.3988	24.0278	69	39
23.4018	23.6968	45	23
23.4018	23.6988	52	23
23.4028	23.6988	57	23
23.5388	24.0278	71	39
23.6958	23.9338	73	40
23.6968	24.0278	45	23
23.6968	24.0278	61	33
23.6988	24.0278	52	23
23.6988	24.0278	57	23
23.8468	23.9768	74	40
23.9338	24.0258	73	39
23.9768	24.0278	74	37
24.0258	24.9388	73	42
24.0278	24.9388	40	27
24.3288	24.6348	62	34
24.3298	24.9388	71	40
24.3328	24.6378	52	24
24.3328	24.6378	59	24
24.4798	24.9388	69	40
24.6348	24.9388	62	34
24.6368	24.9388	68	40
24.6378	24.9388	52	24
24.6378	24.9388	59	24
24.7848	24.9388	66	40
24.9348	25.8628	64	40
24.9378	25.8628	33	27
25.0788	25.2288	69	39
25.2288	25.5468	61	34
25.2288	25.4388	69	40
25.2318	25.5478	45	24
25.2328	25.5498	52	24
25.2328	25.5508	57	24
25.3338	25.8628	71	39
25.4388	25.8628	69	39
25.5468	25.8628	61	32
25.5478	25.8628	45	24
25.5478	25.8588	68	39
25.5498	25.8628	52	24
25.5508	25.8628	57	24
25.6978	25.8628	66	39
25.8588	26.8878	68	40
25.8618	26.8878	40	27
26.1798	26.5228	59	24
26.1808	26.5208	52	20
26.1808	26.5208	64	29
26.5198	26.8878	62	31
26.5208	27.1958	52	26
26.5208	26.8868	64	37
26.5228	26.8878	59	26
26.8868	27.8298	64	40
26.8878	27.4978	45	27
27.0418	27.8298	68	39
27.1948	27.8298	69	39
27.1958	27.4998	52	23
27.1958	27.5008	57	23
27.1958	27.4968	61	33
27.3428	27.8298	71	39
27.4968	27.8298	61	33
27.4968	27.7388	73	40
27.4978	27.8298	45	23
27.4998	27.8298	52	23
27.5008	27.8298	57	23
27.6508	27.7768	74	40
27.7388	27.8258	73	39
27.7768	27.8298	74	37
27.8258	28.7638	73	42
27.8298	28.7638	38	27
28.1378	28.4548	62	34
28.1378	28.7638	71	40
28.1398	28.4588	54	24
28.1408	28.4598	59	24
28.2948	28.7638	69	40
28.4548	28.7638	62	34
28.4558	28.7638	47	24
28.4558	28.7638	68	40
28.4588	28.7638	54	24
28.4598	28.7638	59	24
28.6028	28.7638	66	40
28.7628	29.5438	64	40
28.7638	29.7088	40	27
28.9108	29.0618	68	39
29.0578	29.3898	62	34
29.0618	29.3908	52	24
29.0618	29.2748	68	40
29.0648	29.3928	59	24
29.1708	29.7078	69	39
29.2748	29.7088	68	39
29.3898	29.7088	62	32
29.3908	29.7088	52	24
29.3908	29.7088	66	39
29.3928	29.7088	59	24
29.5438	29.7088	64	39
29.7078	31.6168	69	40
29.7088	31.6168	33	32
30.0278	30.3708	61	37
30.0298	30.3718	57	25
30.0308	30.3718	64	30
30.3708	31.6168	61	73
30.3708	31.6168	67	73
30.3718	31.0148	57	60
30.3718	31.6168	64	60
30.7198	31.0138	66	78
30.7208	31.0148	50	67
30.8668	31.6168	73	80
31.0118	31.6168	74	81
31.0138	31.3058	66	69
31.0148	31.3088	50	59
31.0148	31.3088	57	59
31.0158	31.3088	62	59
31.1548	31.6168	76	81
31.3048	31.5248	78	82
31.3058	31.6168	66	70
31.3088	31.6168	50	59
31.3088	31.6168	57	59
31.3088	31.6168	62	59
31.4458	31.5708	79	83
31.5248	31.6128	78	80
31.5708	31.6168	79	78
31.6128	32.5048	78	87
31.6138	32.5048	45	67
31.9108	32.2038	67	71
31.9118	32.5048	76	85
31.9138	32.2078	52	62
31.9138	32.2078	57	62
31.9138	32.2088	61	62
32.0538	32.5048	74	85
32.2038	32.5048	67	71
32.2078	32.5048	52	62
32.2078	32.5048	57	62
32.2078	32.5048	73	83
32.2088	32.5048	61	62
32.3518	32.5048	71	82
32.5018	33.4047	69	85
32.5028	33.4047	38	67
32.6448	32.7828	74	80
32.7818	33.0997	66	71
32.7828	32.9888	74	85
32.7848	33.1007	50	62
32.7848	33.1037	57	62
32.7857	33.1047	62	62
32.8867	33.4047	76	80
32.9888	33.4047	74	80
33.0997	33.4047	66	67
33.1007	33.4047	50	62
33.1007	33.4007	73	80
33.1037	33.4047	57	62
33.1047	33.4047	62	62
33.2437	33.4047	71	80
33.4007	34.3847	73	83
33.4017	34.3847	45	67
33.7087	34.0357	64	50
33.7097	34.0357	69	60
33.7127	34.0357	57	49
34.0317	34.3847	67	65
34.0357	34.3847	57	64
34.0357	34.3847	64	64
34.0357	34.3817	69	78
34.3817	34.9697	50	67
34.3817	35.2847	69	85
34.5297	35.2847	73	80
34.6727	35.2847	74	81
34.6747	34.9687	66	69
34.6757	34.9697	57	59
34.6787	34.9717	62	59
34.8187	35.2847	76	81
34.9657	35.1897	78	82
34.9687	35.2847	66	70
34.9697	35.2847	50	59
34.9697	35.2847	57	59
34.9717	35.2847	62	59
35.1087	35.2317	79	83
35.1897	35.2807	78	80
35.2317	35.2847	79	78
35.2807	36.1737	78	87
35.2837	36.1737	43	67
35.5817	35.8727	67	71
35.5817	36.1737	76	85
35.5827	35.8757	59	62
35.5827	35.8757	64	62
35.7257	36.1737	74	85
35.8727	36.1737	67	71
35.8747	36.1737	73	83
35.8757	36.1737	52	62
35.8757	36.1737	59	62
35.8757	36.1737	64	62
36.0157	36.1737	71	82
36.1697	36.9157	69	85
36.1707	37.0727	45	67
36.3067	36.4537	73	80
36.4497	36.7617	67	71
36.4537	36.7647	57	62
36.4537	36.7647	64	62
36.4537	36.6597	73	85
36.5547	37.0697	74	80
36.6597	37.0727	73	80
36.7617	37.0727	67	67
36.7627	37.0727	71	80
36.7647	37.0727	57	62
36.7647	37.0727	64	62
36.9157	37.0727	69	80
37.0697	38.0807	38	67
37.0697	38.0807	74	83
37.3767	37.7097	50	41
37.3767	37.7057	66	60
37.3807	37.7097	57	41
37.3807	37.7097	62	49
37.7057	38.3647	66	54
37.7097	38.3677	50	44
37.7097	38.3677	57	44
37.7097	38.3677	62	44
38.0527	39.0007	69	40
38.2037	39.0007	73	39
38.3637	39.0007	74	39
38.3647	38.6617	66	33
38.3677	38.6627	50	23
38.3677	38.6647	57	23
38.3677	38.6647	62	23
38.5047	39.0007	76	39
38.6617	39.0007	66	33
38.6617	38.9007	78	40
38.6627	39.0007	50	23
38.6647	39.0007	57	23
38.6647	39.0007	62	23
38.8127	38.9457	79	40
38.9007	38.9977	78	39
38.9457	39.0007	79	37
38.9977	39.9227	78	42
38.9987	39.9227	45	27
39.3057	39.6177	67	34
39.3067	39.9227	76	40
39.3087	39.6207	52	24
39.3087	39.6217	57	24
39.3097	39.6217	61	24
39.4567	39.9227	74	40
39.6177	39.9227	67	34
39.6207	39.9227	52	24
39.6207	39.9227	73	40
39.6217	39.9227	57	24
39.6217	39.9227	61	24
39.7647	39.9227	71	40
39.9187	40.8626	69	40
39.9217	40.8626	38	27
40.0686	40.2187	74	39
40.2167	40.5476	66	34
40.2187	40.5486	50	24
40.2187	40.4327	74	40
40.2197	40.5516	57	24
40.2227	40.5516	62	24
40.3277	40.8626	76	39
40.4327	40.8626	74	39
40.5476	40.8626	66	32
40.5486	40.8626	50	24
40.5486	40.8606	73	39
40.5516	40.8626	57	24
40.5516	40.8626	62	24
40.6986	40.8626	71	39
40.8606	41.9066	45	27
40.8606	41.9066	73	40
41.1846	41.5356	64	24
41.1856	41.5326	69	29
41.1886	41.5346	57	20
41.1886	41.9066	61	20
41.5316	41.9066	67	31
41.5326	41.9036	69	37
41.5346	42.2316	57	26
41.5356	41.9066	64	26
41.9036	42.8786	69	40
41.9056	42.5466	50	27
42.0636	42.8786	73	39
42.2286	42.5436	66	33
42.2286	42.8786	74	39
42.2316	42.5466	57	23
42.2316	42.5476	62	23
42.3826	42.8786	76	39
42.5436	42.8786	66	33
42.5436	42.7856	78	40
42.5466	42.8786	50	23
42.5466	42.8786	57	23
42.5476	42.8786	62	23
42.6976	42.8296	79	40
42.7856	42.8756	78	39
42.8296	42.8786	79	37
42.8756	43.8456	78	42
42.8766	43.8456	43	27
43.2006	43.5226	67	34
43.2046	43.5276	59	24
43.2046	43.8456	76	40
43.2056	43.5276	64	24
43.3586	43.8456	74	40
43.5226	43.8456	67	34
43.5266	43.8456	52	24
43.5266	43.8456	73	40
43.5276	43.8456	59	24
43.5276	43.8456	64	24
43.6806	43.8456	71	40
43.8426	44.6576	69	40
43.8446	44.8256	45	27
43.9966	44.1566	73	39
44.1536	44.4996	67	34
44.1566	44.5006	57	24
44.1566	44.3816	73	40
44.1576	44.5026	64	24
44.2686	44.8246	74	39
44.3816	44.8256	73	39
44.4996	44.8256	67	32
44.5006	44.8256	57	24
44.5006	44.8256	71	39
44.5026	44.8256	64	24
44.6576	44.8256	69	39
44.8246	46.1656	74	40
44.8256	45.9066	38	27
45.1576	45.5156	66	29
45.1606	45.5156	50	17
45.1606	45.5186	57	17
45.1616	45.5186	62	20
45.5156	45.9066	50	26
45.5156	45.9066	66	37
45.5186	45.9066	57	26
45.5186	45.9066	62	26
45.9036	46.9986	65	54
45.9066	46.9986	46	44
46.1656	46.9986	74	58
46.2556	46.9986	75	62
46.2566	46.6236	58	33
46.2566	46.6206	62	40
46.2606	46.6206	53	33
46.6176	48.0836	70	42
46.6206	46.9986	53	34
46.6206	46.9986	62	41
46.6206	46.9986	76	55
46.6236	46.9986	58	34
46.9956	48.0836	41	46
46.9956	48.0836	79	64
47.2576	48.0836	77	60
47.3486	48.0836	69	49
47.3496	47.7066	72	64
47.3516	47.7066	63	43
47.3526	47.7096	53	35
47.3526	47.7086	60	35
47.5206	48.0836	67	47
47.7066	48.0836	63	44
47.7066	48.4336	65	48
47.7066	48.0836	72	57
47.7086	48.0836	60	36
47.7096	48.0836	53	36
48.0806	49.1586	46	49
48.0806	48.3386	74	64
48.3386	49.1586	74	64
48.4336	48.7906	65	50
48.4346	48.7916	70	50
48.4376	48.7956	62	45
48.4376	49.1586	75	69
48.4386	48.7946	53	37
48.4386	48.7976	58	37
48.7906	49.5086	65	51
48.7916	49.1586	70	51
48.7946	49.1586	53	38
48.7946	49.1586	76	61
48.7956	49.1586	62	46
48.7976	49.1586	58	38
49.1556	49.5086	72	52
49.1586	50.2636	45	51
49.1586	50.2636	79	71
49.4176	49.8616	77	66
49.5086	50.2636	65	59
49.5086	50.2636	72	71
49.5096	50.2636	60	47
49.7676	50.2636	43	48
49.8616	50.2636	69	67
49.8616	50.2636	77	81
49.8626	50.2636	41	62
50.2406	50.5186	70	69
50.2406	50.5196	76	73
50.2426	50.5226	82	86
50.2436	51.3666	36	55
50.2436	51.3666	48	64
50.5186	50.6076	70	66
50.5196	50.6076	76	69
50.5226	50.6106	82	82
50.6076	50.9786	70	70
50.6076	50.9786	76	72
50.6106	51.3666	67	64
50.6106	50.9816	82	85
50.6116	51.3666	60	55
50.9786	51.3496	70	70
50.9786	51.3666	76	70
50.9816	51.3506	82	83
51.3466	51.6256	77	73
51.3496	51.6216	70	73
51.3506	52.1396	41	64
51.3506	51.6256	82	86
51.6216	51.7136	70	69
51.6256	51.7166	77	69
51.6256	51.7166	82	82
51.6266	52.1396	59	65
51.7136	52.1396	70	72
51.7166	52.0886	60	72
51.7166	52.0876	77	72
51.7166	52.1396	82	85
51.9826	52.1396	61	68
52.0846	52.4476	69	67
52.0876	52.4486	77	70
52.0876	52.4486	81	83
52.0886	52.4506	60	72
52.4516	52.7316	70	64
52.4516	52.7316	76	64
52.4546	52.7356	81	78
52.4556	53.2496	48	58
52.7316	52.8186	70	61
52.7316	52.8196	76	61
52.7356	53.2496	59	58
52.7356	52.8196	81	73
52.8186	53.1896	70	63
52.8196	53.1906	76	63
52.8196	53.2496	81	76
52.8226	53.1906	60	63
53.0926	53.2496	62	58
53.1896	53.5646	70	60
53.1906	53.5656	60	62
53.1906	53.5656	76	60
53.1906	53.5656	79	72
53.5676	53.8546	75	58
53.5686	54.3796	53	52
53.5686	53.8516	69	58
53.5686	53.8556	79	70
53.8516	53.9426	69	52
53.8546	53.9466	75	52
53.8556	54.3796	59	46
53.8556	53.9466	79	62
53.9426	54.3206	69	54
53.9466	54.3246	75	54
53.9466	54.3796	79	64
53.9476	54.3796	60	54
54.2226	54.3796	64	45
54.3206	54.7126	69	46
54.3246	54.7126	75	46
54.3246	54.7126	77	56
54.3256	54.7165	65	47
54.7165	55.8115	46	44
54.7165	54.9785	74	61
54.9785	55.8115	74	58
55.0666	55.4266	65	45
55.0696	55.4276	70	45
55.0705	55.4306	58	33
55.0705	55.4306	62	40
55.0705	55.8115	75	62
55.0725	55.4306	53	33
55.4266	55.8115	65	46
55.4276	55.8115	70	46
55.4295	55.8115	76	55
55.4306	55.8115	53	34
55.4306	55.8115	58	34
55.4306	55.8115	62	41
55.8086	56.8965	78	64
55.8115	56.8965	45	46
56.0676	56.8965	77	60
56.1516	56.5116	65	53
56.1545	56.5125	72	64
56.1556	56.5146	60	35
56.1556	56.5125	63	43
56.1576	56.5146	53	35
56.4216	56.8965	66	47
56.5116	56.8965	65	48
56.5125	56.8965	63	44
56.5125	56.8965	72	57
56.5146	56.8965	53	36
56.5146	56.8965	60	36
56.8936	57.1496	73	68
56.8945	57.9645	46	49
57.1496	57.9645	73	64
57.2396	57.5976	65	50
57.2406	57.6005	70	50
57.2436	57.6015	61	45
57.2436	57.9645	75	69
57.2445	57.6005	53	37
57.2445	57.6035	58	37
57.5976	57.9645	65	50
57.6005	57.9645	53	37
57.6005	57.9645	70	50
57.6005	57.9645	76	60
57.6015	57.9645	61	45
57.6035	57.9645	58	37
57.9615	59.0775	78	74
57.9645	58.6895	44	53
58.2235	59.1015	77	72
58.3135	58.6885	73	62
58.3145	59.1015	68	62
58.3145	59.1015	80	75
58.3175	59.1015	53	46
58.3185	59.1015	56	46
58.3185	59.1015	65	54
58.3195	59.1015	61	46
58.5945	59.1015	46	54
58.6885	59.1015	73	73
58.6895	59.1015	44	67
58.6895	59.1015	85	89
59.0745	59.3505	72	80
59.0765	59.3495	66	80
59.0775	60.2045	32	70
59.0775	59.3535	78	94
59.3495	59.4415	66	75
59.3505	59.4425	72	75
59.3535	59.4445	78	90
59.4415	59.8085	66	79
59.4425	59.8095	72	79
59.4445	60.2045	63	70
59.4445	59.8125	78	93
59.4455	60.2045	56	60
59.8085	60.1795	66	75
59.8095	60.2045	72	75
59.8125	60.1795	78	90
60.1775	60.4525	73	79
60.1795	60.9735	37	69
60.1795	60.4525	66	79
60.1795	60.4535	78	93
60.4525	60.5435	66	73
60.4525	60.5475	73	73
60.4535	60.5475	78	88
60.4565	60.9735	55	73
60.5435	60.9735	66	77
60.5475	60.9185	56	77
60.5475	60.9175	73	77
60.5475	60.9735	78	91
60.8205	60.9735	58	72
60.9155	61.2815	65	73
60.9175	61.2825	73	73
60.9185	61.2865	56	75
60.9185	61.2855	77	88
61.2865	61.5625	72	67
61.2895	62.0805	44	60
61.2895	61.5616	66	67
61.2895	61.5625	77	81
61.5616	61.6536	66	63
61.5625	61.6536	72	63
61.5625	61.6565	77	76
61.5655	62.0805	55	60
61.6536	62.0175	66	59
61.6536	62.0205	72	65
61.6565	62.0805	77	77
61.6575	62.0215	56	65
61.9265	62.0805	57	63
62.0175	62.3955	66	63
62.0205	62.3985	72	63
62.0215	62.4025	56	64
62.0215	62.3995	75	74
62.4025	62.6825	66	59
62.4035	63.2105	49	53
62.4035	62.6855	75	72
62.6825	62.7735	66	53
62.6825	62.7735	68	53
62.6855	62.7765	75	63
62.6865	63.2105	55	46
62.7735	63.2105	66	55
62.7735	63.5395	68	55
62.7765	63.2105	56	55
62.7765	63.2105	75	65
63.0535	63.2105	60	45
63.1485	63.5425	65	46
63.1516	63.5435	61	47
63.1516	63.5435	73	56
63.5465	63.7325	68	52
63.5475	63.7356	74	62
63.5495	64.5485	41	40
63.6405	63.8295	62	56
63.7325	64.5485	68	47
63.7356	64.1845	74	56
63.8295	64.1845	62	66
63.8305	64.1875	59	35
63.8335	64.1865	53	29
64.1845	64.5485	62	58
64.1845	64.5475	74	63
64.1865	64.5485	53	30
64.1875	64.5485	59	36
64.5445	64.7435	69	56
64.5475	65.5765	42	43
64.5475	64.7435	74	66
64.6465	64.8445	62	59
64.7435	65.5765	69	50
64.7435	65.5735	74	60
64.8445	65.5765	62	70
64.8485	65.1885	57	37
64.8495	65.1875	54	31
65.1875	65.5765	54	32
65.1885	65.5765	57	38
65.3785	65.5765	61	60
65.3805	65.5765	73	64
65.5725	65.7595	68	59
65.5735	66.5565	41	45
65.5735	65.7595	74	70
65.6615	65.8495	62	63
65.7595	66.5565	68	53
65.7595	66.2005	74	63
65.8495	66.1995	62	74
65.8505	66.2005	59	40
65.8525	66.2005	53	33
66.1995	66.5565	62	65
66.2005	66.5565	53	34
66.2005	66.5565	59	40
66.2005	66.5535	74	70
66.5525	66.7535	69	62
66.5535	67.5555	42	48
66.5535	66.7535	74	74
66.6485	66.8465	62	66
66.7535	67.5555	69	56
66.7535	67.5545	74	67
66.8465	67.5555	62	78
66.8505	67.1955	57	42
66.8535	67.1945	54	35
67.1945	67.5555	54	36
67.1955	67.5555	57	43
67.3685	67.5555	61	67
67.3725	67.5555	73	72
67.5515	67.7405	68	66
67.5545	67.7405	74	78
67.5555	68.5485	40	51
67.6465	67.8305	62	70
67.7405	68.5485	68	59
67.7405	68.1855	74	70
67.8305	68.1875	59	44
67.8305	68.1855	62	82
67.8315	68.1855	52	37
68.1855	68.5485	52	37
68.1855	68.5485	62	70
68.1855	68.5455	74	76
68.1875	68.5485	59	44
68.5455	68.7445	69	66
68.5455	68.7445	74	78
68.5485	69.5465	45	51
68.6475	68.8425	62	70
68.7445	69.5465	69	59
68.7445	69.5455	74	70
68.8425	69.1885	57	44
68.8425	69.5465	62	82
68.8435	69.1855	52	37
69.1855	69.5465	52	37
69.1885	69.5465	57	44
69.3605	69.5465	61	68
69.3635	69.5465	73	73
69.5435	69.7525	68	66
69.5455	70.5925	40	51
69.5455	69.7555	74	78
69.6515	69.8575	62	70
69.7525	70.5925	68	59
69.7555	70.2005	74	70
69.8575	70.2015	59	44
69.8575	70.2005	62	82
69.8585	70.2015	52	37
70.2005	70.5925	62	70
70.2005	70.5895	74	76
70.2015	70.5925	52	37
70.2015	70.5925	59	44
70.5885	70.8095	69	66
70.5895	70.8105	74	78
70.5925	71.6985	45	51
70.6945	70.9245	62	70
70.8095	71.6985	69	59
70.8105	71.6975	74	70
70.9245	71.2995	52	37
70.9245	71.2995	57	44
70.9245	71.6985	62	82
71.2995	71.6985	52	37
71.2995	71.6985	57	44
71.4965	71.6985	61	68
71.4965	71.6985	73	73
71.6955	71.9125	68	52
71.6975	71.9155	74	62
71.6985	72.7565	41	40
71.8035	72.0235	62	56
71.9125	72.7565	68	47
71.9155	72.3705	74	56
72.0235	72.3695	62	65
72.0245	72.3705	53	29
72.0245	72.3735	59	35
72.3695	72.7565	62	56
72.3705	72.7565	53	29
72.3705	72.7555	74	61
72.3735	72.7565	59	35
72.7525	72.9625	69	54
72.7555	73.7845	42	41
72.7555	72.9645	74	63
72.8605	73.0735	62	57
72.9625	73.7845	69	48
72.9645	73.7815	74	58
73.0735	73.4135	57	36
73.0735	73.7845	62	68
73.0745	73.4135	54	30
73.4135	73.7845	54	31
73.4135	73.7845	57	36
73.5995	73.7845	61	57
73.5995	73.7845	73	61
73.7805	73.9795	68	56
73.7815	74.7995	41	43
73.7815	73.9805	74	66
73.8825	74.0815	62	59
73.9795	74.7995	68	50
73.9805	74.4255	74	59
74.0815	74.4285	59	37
74.0815	74.4245	62	69
74.0855	74.4255	53	31
74.4245	74.7995	62	60
74.4255	74.7995	53	31
74.4255	74.7995	74	65
74.4285	74.7995	59	37
74.7965	75.0095	69	57
74.7995	75.8625	42	44
74.7995	75.0124	74	67
74.9045	75.1215	62	60
75.0095	75.8625	69	51
75.0124	75.8605	74	61
75.1215	75.4855	57	38
75.1215	75.8625	62	72
75.1245	75.4855	54	32
75.4855	75.8625	54	32
75.4855	75.8625	57	39
75.6715	75.8625	61	60
75.6715	75.8625	73	64
75.8605	76.0625	68	59
75.8605	76.0635	74	70
75.8615	76.8715	40	45
75.9615	76.1675	62	63
76.0625	76.8715	68	53
76.0635	76.5145	74	63
76.1675	76.5145	62	73
76.1685	76.5155	52	33
76.1685	76.5175	59	39
76.5145	76.8715	62	63
76.5145	76.8705	74	68
76.5155	76.8715	52	33
76.5175	76.8715	59	39
76.8685	77.0775	69	59
76.8705	77.0815	74	70
76.8715	77.9285	45	45
76.9765	77.1895	62	63
77.0775	77.9285	69	53
77.0815	77.9265	74	63
77.1895	77.9285	62	73
77.1905	77.5365	52	33
77.1905	77.5405	57	39
77.5365	77.9285	52	33
77.5405	77.9285	57	39
77.7295	77.9285	61	61
77.7325	77.9285	73	65
77.9255	78.1425	68	59
77.9265	78.1425	74	70
77.9285	78.9965	40	45
78.0335	78.2505	62	63
78.1425	78.9965	68	52
78.1425	78.6115	74	62
78.2505	78.6145	59	38
78.2505	78.6105	62	72
78.2515	78.6115	52	32
78.6105	78.9965	62	59
78.6115	78.9965	52	31
78.6115	78.9955	74	64
78.6145	78.9965	59	36
78.9925	79.2235	67	54
78.9955	80.1505	45	42
78.9955	79.2245	74	64
79.1045	79.3354	62	57
79.2235	80.1505	67	47
79.2245	80.1505	74	56
79.3354	80.1505	62	65
79.3354	79.7205	64	35
79.3385	79.7205	57	29
79.7174	80.1505	61	53
79.7205	80.1505	57	28
79.7205	80.1505	64	34
79.9174	80.1505	73	56
80.1304	81.1134	69	68
80.1334	80.4664	50	59
80.2955	81.1134	73	70
80.4624	81.1134	74	71
80.4654	80.7814	66	60
80.4664	80.7834	50	52
80.4664	80.7844	57	52
80.4664	80.7844	62	52
80.6195	81.1134	76	71
80.7814	81.1134	66	61
80.7814	81.0225	78	72
80.7834	81.1134	50	52
80.7844	81.1134	57	52
80.7844	81.1134	62	52
80.9344	81.0684	79	73
81.0225	81.1104	78	70
81.0684	81.1134	79	68
81.1104	82.0374	78	76
81.1124	82.0374	45	59
81.4214	81.7265	67	62
81.4214	82.0374	76	74
81.4244	81.7294	52	54
81.4254	81.7304	57	54
81.4254	81.7334	61	54
81.5714	82.0374	74	74
81.7265	82.0374	67	62
81.7294	82.0374	52	54
81.7294	82.0374	73	73
81.7304	82.0374	57	54
81.7334	82.0374	61	54
81.8734	82.0374	71	72
82.0344	82.9614	69	74
82.0374	82.9614	38	59
82.1774	82.3294	74	70
82.3284	82.6504	66	62
82.3294	82.5414	74	74
82.3314	82.6534	50	54
82.3314	82.6534	57	54
82.3314	82.6544	62	54
82.4294	82.9614	76	70
82.5414	82.9614	74	70
82.6504	82.9614	66	59
82.6534	82.9614	50	54
82.6534	82.9614	57	54
82.6534	82.9584	73	70
82.6544	82.9614	62	54
82.7974	82.9614	71	70
82.9584	83.9554	73	73
82.9614	83.9554	45	59
83.2664	83.6034	64	44
83.2664	83.6024	69	53
83.2694	83.6024	57	43
83.6014	83.9554	67	57
83.6024	83.9554	57	56
83.6024	83.9524	69	68
83.6034	83.9554	64	56
83.9524	84.5574	50	59
83.9524	84.8764	69	74
84.1034	84.8764	73	70
84.2534	84.8764	74	71
84.2554	84.5554	66	60
84.2564	84.5574	57	52
84.2564	84.5574	62	52
84.3994	84.8764	76	71
84.5544	84.7824	78	72
84.5554	84.8764	66	61
84.5574	84.8764	50	52
84.5574	84.8764	57	52
84.5574	84.8764	62	52
84.7014	84.8234	79	73
84.7824	84.8724	78	70
84.8234	84.8764	79	68
84.8724	85.7764	78	76
84.8764	85.7764	43	59
85.1764	85.4774	67	62
85.1774	85.7764	76	74
85.1804	85.4814	59	54
85.1804	85.4814	64	54
85.3244	85.7764	74	74
85.4774	85.7764	67	62
85.4784	85.7764	52	54
85.4784	85.7764	73	73
85.4814	85.7764	59	54
85.4814	85.7764	64	54
85.6184	85.7764	71	72
85.7724	86.5244	69	74
85.7754	86.6864	45	59
85.9154	86.0594	73	70
86.0594	86.3774	67	62
86.0594	86.2694	73	74
86.0624	86.3784	57	54
86.0624	86.3804	64	54
86.1644	86.6854	74	70
86.2694	86.6864	73	70
86.3774	86.6864	67	59
86.3784	86.6864	57	54
86.3784	86.6864	71	70
86.3804	86.6864	64	54
86.5244	86.6864	69	70
86.6854	87.7074	74	73
86.6864	87.7074	38	59
86.9934	87.3224	66	53
86.9944	87.3234	50	36
86.9964	87.3254	57	36
86.9974	87.3264	62	43
87.3224	87.9874	66	47
87.3234	87.9884	50	39
87.3254	87.9884	57	39
87.3264	87.9904	62	39
87.6804	88.6044	69	40
87.8304	88.6044	73	39
87.9844	88.6044	74	39
87.9874	88.2774	66	33
87.9884	88.2784	50	23
87.9884	88.2784	57	23
87.9904	88.2784	62	23
88.1274	88.6044	76	39
88.2754	88.5094	78	40
88.2774	88.6044	66	33
88.2784	88.6044	50	23
88.2784	88.6044	57	23
88.2784	88.6044	62	23
88.4214	88.5514	79	40
88.5094	88.6004	78	39
88.5514	88.6044	79	37
88.6004	89.5104	78	42
88.6044	89.5104	45	27
88.9044	89.2094	67	34
88.9044	89.5104	76	40
88.9054	89.2124	52	24
88.9074	89.2124	57	24
88.9084	89.2124	61	24
89.0544	89.5104	74	40
89.2094	89.5104	67	34
89.2114	89.5104	73	40
89.2124	89.5104	52	24
89.2124	89.5104	57	24
89.2124	89.5104	61	24
89.3554	89.5104	71	40
89.5064	90.4314	38	27
89.5064	90.4314	69	40
89.6544	89.8004	74	39
89.7974	90.1224	66	34
89.8004	90.1264	50	24
89.8004	90.1264	57	24
89.8004	90.0134	74	40
89.8014	90.1264	62	24
89.9024	90.4314	76	39
90.0134	90.4314	74	39
90.1224	90.4314	66	32
90.1224	90.4304	73	39
90.1264	90.4314	50	24
90.1264	90.4314	57	24
90.1264	90.4314	62	24
90.2704	90.4314	71	39
90.4304	91.4524	45	27
90.4304	91.4524	73	40
90.7524	91.0944	64	24
90.7564	91.0924	69	29
90.7594	91.0934	57	20
90.7594	91.4524	61	20
91.0924	91.4524	67	31
91.0924	91.4494	69	37
91.0934	91.7464	57	26
91.0944	91.4524	64	26
91.4494	92.3704	69	40
91.4524	92.0444	50	27
91.6004	92.3704	73	39
91.7454	92.3704	74	39
91.7464	92.0464	57	23
91.7464	92.0444	66	33
91.7474	92.0474	62	23
91.8944	92.3704	76	39
92.0444	92.3704	50	23
92.0444	92.3704	66	33
92.0444	92.2784	78	40
92.0464	92.3704	57	23
92.0474	92.3704	62	23
92.1884	92.3244	79	40
92.2784	92.3694	78	39
92.3244	92.3704	79	37
92.3694	93.2824	78	42
92.3704	93.2824	43	27
92.6774	92.9784	67	34
92.6774	93.2824	76	40
92.6814	92.9794	59	24
92.6814	92.9824	64	24
92.8244	93.2824	74	40
92.9784	93.2824	67	34
92.9784	93.2824	73	40
92.9794	93.2824	52	24
92.9794	93.2824	59	24
92.9824	93.2824	64	24
93.1264	93.2824	71	40
93.2794	94.0424	69	40
93.2804	94.2044	45	27
93.4224	93.5734	73	39
93.5704	93.8884	67	34
93.5734	93.8894	57	24
93.5734	93.7804	73	40
93.5744	93.8914	64	24
93.6754	94.2034	74	39
93.7804	94.2044	73	39
93.8884	94.2044	67	32
93.8894	94.2044	57	24
93.8894	94.2044	71	39
93.8914	94.2044	64	24
94.0424	94.2044	69	39
94.2034	96.0913	38	27
94.2034	95.9153	74	40
94.5144	94.8473	66	29
94.5154	94.8484	50	17
94.5184	94.8484	57	17
94.5194	94.8503	62	20
94.8473	96.0913	66	37
94.8484	96.0913	50	26
94.8484	95.4853	57	26
94.8503	96.0913	62	26
95.1944	96.0913	64	73
95.1973	95.4843	45	59
95.3373	96.0913	68	70
95.4813	95.7783	61	60
95.4813	96.0913	69	71
95.4843	95.7783	45	52
95.4843	95.7793	52	52
95.4853	95.7793	57	52
95.6283	96.0913	71	71
95.7753	96.0023	73	72
95.7783	96.0913	45	52
95.7783	96.0913	61	61
95.7793	96.0913	52	52
95.7793	96.0913	57	52
95.9153	96.0453	74	73
96.0023	96.0903	73	70
96.0453	96.0913	74	68
96.0903	96.9793	40	59
96.0903	96.9793	73	76
96.3883	96.6803	62	62
96.3883	96.9793	71	74
96.3903	96.6813	52	54
96.3913	96.6843	59	54
96.5313	96.9793	69	74
96.6803	96.9793	62	62
96.6813	96.9793	52	54
96.6813	96.9793	68	73
96.6843	96.9793	59	54
96.8223	96.9793	66	72
96.9753	97.8793	64	74
96.9783	97.8793	33	59
97.1193	97.2603	69	70
97.2593	97.5743	61	62
97.2603	97.5773	45	54
97.2603	97.4653	69	74
97.2613	97.5773	52	54
97.2623	97.5783	57	54
97.3633	97.8793	71	70
97.4653	97.8793	69	70
97.5743	97.8793	61	59
97.5773	97.8793	45	54
97.5773	97.8793	52	54
97.5773	97.8783	68	70
97.5783	97.8793	57	54
97.7213	97.8793	66	70
97.8783	98.8663	40	59
97.8783	98.8663	68	73
98.1863	98.5163	59	44
98.1863	98.5163	64	53
98.1873	98.5163	52	43
98.5153	98.8663	62	57
98.5163	98.8663	52	56
98.5163	98.8663	59	56
98.5163	98.8653	64	68
98.8653	99.4513	45	59
98.8653	99.7613	64	74
99.0123	99.7613	68	70
99.1563	99.7613	69	71
99.1573	99.4503	61	60
99.1593	99.4533	52	52
99.1593	99.4533	57	52
99.3003	99.7613	71	71
99.4503	99.7613	61	61
99.4503	99.6733	73	72
99.4513	99.7613	45	52
99.4533	99.7613	52	52
99.4533	99.7613	57	52
99.5903	99.7133	74	73
99.6733	99.7573	73	70
99.7133	99.7613	74	68
99.7573	100.654	73	76
99.7583	100.654	38	59
100.058	100.356	62	62
100.062	100.357	54	54
100.062	100.654	71	74
100.065	100.359	59	54
100.206	100.654	69	74
100.356	100.654	62	62
100.357	100.654	47	54
100.357	100.654	54	54
100.357	100.654	68	73
100.359	100.654	59	54
100.496	100.654	66	72
100.653	101.396	64	74
100.654	101.554	40	59
100.788	100.934	68	70
100.933	101.242	62	62
100.934	101.246	52	54
100.934	101.246	59	54
100.934	101.14	68	74
101.035	101.55	69	70
101.14	101.554	68	70
101.242	101.554	62	59
101.245	101.554	66	70
101.246	101.554	52	54
101.246	101.554	59	54
101.396	101.554	64	70
101.55	102.561	69	73
101.554	102.561	33	59
101.864	102.194	61	53
101.865	102.198	45	36
101.868	102.198	52	36
101.869	102.198	57	43
102.194	102.842	61	47
102.198	102.842	45	39
102.198	102.844	52	39
102.198	102.845	57	39
102.534	103.457	64	40
102.684	103.457	68	39
102.842	103.139	45	23
102.842	103.139	61	33
102.842	103.457	69	39
102.844	103.139	52	23
102.845	103.14	57	23
102.984	103.457	71	39
103.135	103.37	73	40
103.139	103.457	45	23
103.139	103.457	52	23
103.139	103.457	61	33
103.14	103.457	57	23
103.283	103.412	74	40
103.37	103.456	73	39
103.412	103.457	74	37
103.456	104.368	73	42
103.457	104.368	40	27
103.764	104.063	62	34
103.765	104.368	71	40
103.768	104.066	52	24
103.769	104.066	59	24
103.916	104.368	69	40
104.063	104.368	62	34
104.065	104.368	68	40
104.066	104.368	52	24
104.066	104.368	59	24
104.213	104.368	66	40
104.367	105.295	33	27
104.367	105.295	64	40
104.515	104.659	69	39
104.658	104.983	61	34
104.659	104.868	69	40
104.661	104.987	45	24
104.661	104.987	52	24
104.661	104.987	57	24
104.763	105.295	71	39
104.868	105.295	69	39
104.983	105.295	61	32
104.984	105.291	68	39
104.987	105.295	45	24
104.987	105.295	52	24
104.987	105.295	57	24
105.131	105.295	66	39
105.291	106.303	40	27
105.291	106.303	68	40
105.603	105.953	59	24
105.603	105.953	64	29
105.606	105.953	52	20
105.95	106.303	62	31
105.953	106.607	52	26
105.953	106.303	59	26
105.953	106.299	64	37
106.299	107.231	64	40
106.3	106.912	45	27
106.453	107.231	68	39
106.605	107.231	69	39
106.607	106.912	52	23
106.607	106.909	61	33
106.608	106.912	57	23
106.755	107.231	71	39
106.908	107.143	73	40
106.909	107.231	61	33
106.912	107.231	45	23
106.912	107.231	52	23
106.912	107.231	57	23
107.063	107.185	74	40
107.143	107.228	73	39
107.185	107.231	74	37
107.228	108.161	73	42
107.23	108.161	38	27
107.538	107.849	62	34
107.539	108.161	71	40
107.542	107.853	54	24
107.542	107.853	59	24
107.695	108.161	69	40
107.849	108.161	62	34
107.85	108.161	47	24
107.85	108.161	68	40
107.853	108.161	54	24
107.853	108.161	59	24
107.997	108.161	66	40
108.157	108.935	64	40
108.158	109.1	40	27
108.299	108.452	68	39
108.451	108.784	62	34
108.452	108.785	52	24
108.452	108.787	59	24
108.452	108.669	68	40
108.56	109.099	69	39
108.669	109.1	68	39
108.784	109.1	62	32
108.785	109.1	52	24
108.785	109.1	66	39
108.787	109.1	59	24
108.935	109.1	64	39
109.099	111.014	69	40
109.1	111.014	33	27
109.421	109.772	61	37
109.424	109.772	57	21
109.425	109.772	64	25
109.771	111.014	67	73
109.772	110.416	57	60
109.772	111.014	61	73
109.772	111.014	64	60
110.121	110.415	50	67
110.121	110.412	66	78
110.268	111.014	73	80
110.412	110.706	66	69
110.412	111.014	74	81
110.415	110.709	50	59
110.416	110.71	57	59
110.416	110.71	62	59
110.555	111.014	76	81
110.706	111.014	66	70
110.706	110.926	78	82
110.709	111.014	50	59
110.71	111.014	57	59
110.71	111.014	62	59
110.846	110.969	79	83
110.926	111.013	78	80
110.969	111.014	79	78
111.013	111.91	78	87
111.014	111.91	45	67
111.312	111.613	67	71
111.312	111.91	76	85
111.314	111.615	52	62
111.315	111.616	57	62
111.315	111.616	61	62
111.462	111.91	74	85
111.613	111.91	67	71
111.613	111.91	73	83
111.615	111.91	52	62
111.616	111.91	57	62
111.616	111.91	61	62
111.752	111.91	71	82
111.907	112.809	69	85
111.91	112.809	38	67
112.046	112.19	74	80
112.186	112.499	66	71
112.19	112.501	50	62
112.19	112.396	74	85
112.191	112.502	57	62
112.193	112.505	62	62
112.292	112.809	76	80
112.396	112.809	74	80
112.499	112.809	66	67
112.501	112.809	50	62
112.501	112.807	73	80
112.502	112.809	57	62
112.505	112.809	62	62
112.652	112.809	71	80
112.807	113.809	73	83
112.809	113.809	45	67
113.114	113.458	64	50
113.117	113.457	57	49
113.117	113.457	69	60
113.457	113.809	57	64
113.457	113.809	67	65
113.457	113.807	69	78
113.458	113.809	64	64
113.807	114.703	69	85
113.808	114.388	50	67
113.947	114.703	73	80
114.09	114.703	74	81
114.094	114.389	57	59
114.094	114.388	66	69
114.095	114.389	62	59
114.238	114.703	76	81
114.384	114.615	78	82
114.388	114.703	50	59
114.388	114.703	66	70
114.389	114.703	57	59
114.389	114.703	62	59
114.535	114.657	79	83
114.615	114.699	78	80
114.657	114.703	79	78
114.699	115.591	78	87
114.7	115.591	43	67
114.997	115.29	67	71
114.998	115.591	76	85
115.0	115.295	59	62
115.0	115.295	64	62
115.14	115.591	74	85
115.29	115.591	67	71
115.291	115.591	73	83
115.294	115.591	52	62
115.295	115.591	59	62
115.295	115.591	64	62
115.438	115.591	71	82
115.589	116.489	45	67
115.589	116.33	69	85
115.732	115.876	73	80
115.875	116.186	67	71
115.876	116.187	57	62
115.876	116.078	73	85
115.878	116.19	64	62
115.973	116.488	74	80
116.078	116.489	73	80
116.186	116.489	67	67
116.187	116.489	57	62
116.187	116.489	71	80
116.19	116.489	64	62
116.33	116.489	69	80
116.488	117.481	38	67
116.488	117.481	74	83
116.795	117.125	66	60
116.799	117.125	50	41
116.8	117.128	57	41
116.8	117.129	62	49
117.125	117.768	50	44
117.125	117.766	66	54
117.128	117.769	57	44
117.129	117.769	62	44
117.458	118.402	69	40
117.611	118.402	73	39
117.766	118.069	66	33
117.766	118.402	74	39
117.768	118.07	50	23
117.769	118.07	57	23
117.769	118.071	62	23
117.912	118.402	76	39
118.067	118.301	78	40
118.069	118.402	66	33
118.07	118.402	50	23
118.07	118.402	57	23
118.071	118.402	62	23
118.214	118.346	79	40
118.301	118.398	78	39
118.346	118.402	79	37
118.398	119.323	78	42
118.399	119.323	45	27
118.707	119.012	67	34
118.707	119.323	76	40
118.711	119.015	52	24
118.711	119.015	57	24
118.711	119.016	61	24
118.858	119.323	74	40
119.012	119.323	67	34
119.015	119.323	52	24
119.015	119.323	57	24
119.015	119.323	73	40
119.016	119.323	61	24
119.166	119.323	71	40
119.32	120.257	69	40
119.323	120.257	38	27
119.469	119.613	74	39
119.61	119.943	66	34
119.613	119.946	50	24
119.613	119.827	74	40
119.617	119.946	57	24
119.617	119.947	62	24
119.722	120.257	76	39
119.827	120.257	74	39
119.943	120.257	66	32
119.943	120.255	73	39
119.946	120.257	50	24
119.946	120.257	57	24
119.947	120.257	62	24
120.093	120.257	71	39
120.255	121.319	73	40
120.257	121.319	45	27
120.586	120.943	64	24
120.586	120.941	69	29
120.59	120.941	57	20
120.59	121.319	61	20
120.94	121.319	67	31
120.941	121.644	57	26
120.941	121.318	69	37
120.943	121.319	64	26
121.318	121.952	50	27
121.318	122.284	69	40
121.476	122.284	73	39
121.64	122.284	74	39
121.641	121.952	66	33
121.644	121.953	57	23
121.644	121.955	62	23
121.79	122.284	76	39
121.948	122.189	78	40
121.952	122.284	50	23
121.952	122.284	66	33
121.953	122.284	57	23
121.955	122.284	62	23
122.112	122.235	79	40
122.189	122.281	78	39
122.235	122.284	79	37
122.281	123.254	78	42
122.284	123.254	43	27
122.606	122.932	67	34
122.61	122.934	59	24
122.61	123.254	76	40
122.612	122.935	64	24
122.767	123.254	74	40
122.932	123.254	67	34
122.932	123.254	73	40
122.933	123.254	52	24
122.934	123.254	59	24
122.935	123.254	64	24
123.09	123.254	71	40
123.251	124.083	69	40
123.253	124.257	45	27
123.405	123.561	73	39
123.558	123.922	67	34
123.561	123.926	57	24
123.561	123.797	73	40
123.564	123.926	64	24
123.681	124.255	74	39
123.797	124.257	73	39
123.922	124.257	67	32
123.926	124.257	57	24
123.926	124.257	64	24
123.926	124.257	71	39
124.083	124.257	69	39
124.255	125.333	38	27
124.255	125.328	74	40
124.593	124.951	66	29
124.594	124.951	50	17
124.594	124.954	57	17
124.595	124.955	62	20
124.951	125.332	50	26
124.951	125.329	66	37
124.954	125.332	57	26
124.955	125.333	62	26
125.328	126.298	74	43
125.329	125.493	66	47
125.332	125.654	50	26
125.332	125.655	57	31
125.493	125.655	69	45
125.657	125.777	69	49
125.658	125.972	60	27
125.661	125.976	50	23
125.777	125.819	71	41
125.819	125.977	69	46
125.977	126.137	68	46
125.979	126.299	50	23
125.98	126.299	59	28
126.137	126.301	64	45
126.302	127.281	74	44
126.305	126.47	64	50
126.306	126.637	50	26
126.306	126.638	55	32
126.47	126.638	67	47
126.638	126.753	67	51
126.641	126.95	50	24
126.641	126.949	58	28
126.753	126.792	69	43
126.792	126.95	67	48
126.952	127.114	66	48
126.953	127.282	50	24
126.953	127.282	57	29
127.114	127.282	62	43
127.285	128.233	74	45
127.286	127.603	50	27
127.286	127.443	66	50
127.288	127.604	57	33
127.443	127.607	69	48
127.608	127.719	69	52
127.611	127.908	50	24
127.611	127.904	60	29
127.723	127.761	71	44
127.765	127.909	69	48
127.911	128.069	68	48
127.912	128.234	50	24
127.912	128.234	59	29
128.073	128.234	64	44
128.237	129.178	74	46
128.238	128.555	50	28
128.238	128.556	55	33
128.238	128.395	64	53
128.395	128.559	67	50
128.56	128.671	67	53
128.562	128.853	58	30
128.563	128.854	50	25
128.675	128.71	69	46
128.71	128.854	67	50
128.856	129.018	66	51
128.857	129.179	50	25
128.857	129.179	57	30
129.018	129.182	62	44
129.183	129.34	62	53
129.183	130.099	69	48
129.186	129.497	50	29
129.186	129.498	54	35
129.34	129.5	66	51
129.501	129.787	57	31
129.501	129.613	66	55
129.502	129.788	50	26
129.616	129.655	67	46
129.655	129.791	66	51
129.792	130.102	50	26
129.792	129.945	64	51
129.793	130.103	56	31
129.945	130.106	59	46
130.107	130.257	61	55
130.107	131.02	69	48
130.109	130.414	50	29
130.11	130.415	52	35
130.26	130.415	64	52
130.417	130.522	64	55
130.418	130.698	55	31
130.421	130.698	50	26
130.526	130.565	66	47
130.568	130.702	64	52
130.702	130.855	62	52
130.705	131.02	50	26
130.705	131.021	54	31
130.859	131.024	57	46
131.024	131.173	62	53
131.024	131.912	69	48
131.025	131.328	50	29
131.026	131.328	54	35
131.174	131.328	66	51
131.331	131.597	57	30
131.331	131.436	66	54
131.332	131.601	50	25
131.437	131.471	67	45
131.472	131.601	66	50
131.602	131.754	64	49
131.604	131.912	50	25
131.604	131.913	56	30
131.755	131.916	59	45
131.916	132.801	69	46
131.919	132.22	50	28
131.919	132.062	61	53
131.92	132.221	52	33
132.063	132.221	64	50
132.224	132.329	64	52
132.225	132.5	50	24
132.225	132.497	55	29
132.333	132.368	66	45
132.368	132.501	64	49
132.504	132.651	62	49
132.505	132.802	50	24
132.505	132.802	54	29
132.651	132.805	57	41
132.805	133.684	62	40
132.806	133.112	38	24
132.806	132.959	54	44
132.808	133.116	45	29
132.959	133.117	57	42
133.117	133.225	57	45
133.119	133.386	38	21
133.119	133.385	48	25
133.225	133.26	59	38
133.26	133.389	57	41
133.39	133.686	38	21
133.39	133.533	56	41
133.393	133.687	47	24
133.533	133.687	52	35
133.687	134.558	62	39
133.691	133.991	38	23
133.691	133.992	43	28
133.691	133.834	52	44
133.835	133.992	55	41
133.995	134.265	38	20
133.995	134.265	46	24
133.995	134.1	55	44
134.101	134.135	57	37
134.138	134.266	55	41
134.268	134.562	38	20
134.268	134.407	54	40
134.269	134.562	45	24
134.408	134.563	50	34
134.565	134.715	54	36
134.565	135.437	62	33
134.566	134.866	38	20
134.566	134.866	45	23
134.716	134.867	57	35
134.87	135.139	48	20
134.87	134.978	57	38
134.873	135.14	38	17
134.979	135.013	59	31
135.014	135.143	57	34
135.143	135.29	56	34
135.146	135.438	38	17
135.146	135.438	47	20
135.29	135.438	52	30
135.44	136.318	62	32
135.441	135.738	38	19
135.441	135.588	52	37
135.444	135.739	43	22
135.588	135.739	55	34
135.741	135.846	55	37
135.742	136.018	38	17
135.742	136.014	46	20
135.85	135.889	57	31
135.889	136.018	55	34
136.021	136.168	54	34
136.022	136.319	38	17
136.022	136.319	45	20
136.168	136.322	50	30
136.323	136.639	50	39
136.323	136.64	57	46
136.325	140.281	38	26
136.326	140.281	45	31
136.638	136.956	62	41
136.638	136.959	69	49
136.639	140.281	50	28
136.64	140.281	57	34
136.956	140.281	62	28
136.956	140.281	74	48
136.959	140.281	69	34
137.096	140.281	81	49
137.243	140.281	86	51
137.386	140.281	90	53
137.534	140.281	92	55
137.67	140.281	93	57
137.817	140.281	95	59
137.96	140.281	97	62
138.128	140.281	98	64
