OnsetTime	OffsetTime	MidiPitch	Velocity
0.500004	1.33526	62	67
0.500004	1.33526	74	75
1.33526	1.45458	62	65
1.33526	1.45458	74	73
1.45458	2.28983	62	67
1.45458	2.28983	74	75
2.28983	2.40915	62	63
2.28983	2.40915	74	71
2.40915	3.2444	62	70
2.40915	3.2444	74	78
3.2444	3.36372	62	66
3.2444	3.36372	74	74
3.36372	4.19897	62	70
3.36372	4.19897	74	78
4.19897	4.31829	62	67
4.19897	4.31829	74	75
4.31829	4.92475	47	61
4.31829	4.92475	55	68
4.31829	4.78587	62	70
4.31829	4.78587	74	78
4.78587	5.65682	62	70
4.78587	5.65682	74	78
4.92475	5.06364	47	56
4.92475	5.06364	55	63
5.06364	5.21281	47	56
5.06364	5.21281	55	63
5.21281	5.79619	47	62
5.21281	5.79619	55	69
5.65682	6.52243	62	70
5.65682	6.52243	74	78
5.79619	5.93556	47	56
5.79619	5.93556	55	63
5.93556	6.07493	47	55
5.93556	6.07493	55	62
6.07493	6.76235	47	61
6.07493	6.75061	55	68
6.52243	7.22011	62	70
6.52243	7.22011	74	78
6.75061	6.86799	55	55
6.75061	6.86799	59	62
6.98536	7.10274	57	61
6.98536	7.10274	60	68
7.22011	7.33748	55	55
7.22011	7.33748	59	62
7.22011	7.6896	62	67
7.22011	7.6896	74	75
7.45486	7.57223	57	61
7.45486	7.57223	60	68
7.6896	7.80698	50	60
7.6896	7.80698	57	67
7.6896	7.80698	62	68
7.6896	7.80698	74	76
7.92435	8.52243	59	61
7.92435	8.52243	62	68
8.38257	9.25489	67	83
8.38257	9.25489	79	83
8.52243	8.66229	59	56
8.52243	8.66229	62	63
8.66229	8.81087	59	56
8.66229	8.81087	62	63
8.81087	9.39426	59	62
8.81087	9.39426	62	69
9.25489	9.9123	67	70
9.25489	9.9123	79	78
9.39426	9.53881	59	56
9.39426	9.53881	62	63
9.53881	9.69973	59	55
9.53881	9.69973	62	62
9.68855	9.80042	60	61
9.68855	9.80042	64	68
9.9123	10.0242	59	54
9.9123	10.0242	62	61
9.9123	10.3642	67	70
9.9123	10.3642	79	78
10.136	10.2501	57	58
10.136	10.2501	60	65
10.3642	10.4816	55	53
10.3642	10.4816	59	59
10.3642	10.4816	67	68
10.3642	10.4816	79	76
10.599	10.7163	50	71
10.599	10.7163	57	79
10.599	10.7163	74	87
10.599	10.7163	78	87
10.599	10.7163	86	97
10.8337	10.9511	55	66
10.8337	10.9511	59	74
10.8337	10.9511	74	79
10.8337	10.9511	79	79
10.8337	10.9511	86	88
11.0685	11.3032	50	71
11.0685	11.3032	57	79
11.0685	11.3032	74	84
11.0685	11.3032	78	84
11.0685	11.3032	86	94
11.538	12.1454	59	72
11.538	12.1454	67	80
12.0055	13.7438	51	64
12.0055	13.7438	63	72
12.1454	12.2853	59	67
12.1454	12.2853	67	75
12.2853	12.4344	59	67
12.2853	12.4344	67	75
12.4344	13.0166	59	72
12.4344	13.0166	67	81
12.8767	13.9769	50	63
12.8767	13.9769	62	70
13.0166	13.1565	59	67
13.0166	13.1565	67	75
13.1565	13.2963	59	66
13.1565	13.2963	67	74
13.2963	13.9769	59	72
13.2963	13.9702	67	80
13.7438	14.6567	51	64
13.7438	14.6567	63	72
13.9702	14.0852	67	66
13.9702	14.0852	71	74
14.2002	14.3134	69	72
14.2002	14.3134	72	80
14.4266	14.5417	67	66
14.4266	14.5417	71	74
14.6567	15.1095	50	62
14.6567	14.8831	62	69
14.6567	14.7699	69	72
14.6567	14.7699	72	80
14.8831	15.1095	62	71
14.8831	14.9963	69	79
15.1095	15.7076	71	72
15.1095	15.7076	74	80
15.5677	16.0024	55	61
15.5677	16.0024	67	68
15.7076	15.8474	71	67
15.7076	15.8474	74	75
15.8474	15.996	71	67
15.8474	15.996	74	75
15.996	16.442	54	64
15.996	16.442	66	72
15.996	16.5736	71	72
15.996	16.5736	74	81
16.4332	16.8684	53	62
16.4332	16.8684	65	69
16.5736	16.7186	71	67
16.5736	16.7186	74	75
16.7186	16.8684	71	66
16.7186	16.8684	74	74
16.8684	17.5441	52	64
16.8684	17.5441	64	72
16.8684	16.9803	72	72
16.8684	16.9803	76	80
17.0921	17.204	71	69
17.0921	17.204	74	77
17.3159	17.43	69	69
17.3159	17.43	72	77
17.5441	17.6614	50	54
17.5441	17.6614	52	54
17.5441	17.6614	62	60
17.5441	17.6614	64	67
17.5441	17.6614	68	75
17.5441	17.6614	71	75
17.7788	17.8948	48	59
17.7788	17.8948	52	59
17.7788	17.8948	60	66
17.7788	17.8948	64	73
17.7788	17.8948	69	82
18.0107	18.1286	47	51
18.0107	18.1286	52	51
18.0107	18.1286	59	57
18.0107	18.1286	64	69
18.0107	18.1286	68	69
18.0107	18.1286	71	77
18.2464	18.3628	45	54
18.2464	18.3628	52	54
18.2464	18.3628	57	60
18.2464	18.3628	64	67
18.2464	18.3628	69	73
18.2464	18.3628	72	82
18.4792	18.5966	43	49
18.4792	18.5966	55	55
18.714	18.8262	42	54
18.714	18.8262	54	60
18.714	18.8262	74	64
18.714	18.8262	78	72
18.9385	19.0535	73	59
18.9385	19.0535	76	66
19.1685	19.2816	71	63
19.1685	19.2816	74	71
19.3948	19.5098	52	51
19.3948	19.5098	64	57
19.3948	19.5098	66	60
19.3948	19.5098	70	67
19.3948	19.5098	73	67
19.6248	19.7388	50	54
19.6248	19.7388	62	60
19.6248	19.7388	66	62
19.6248	19.7388	71	69
19.8529	19.9684	49	50
19.8529	19.9684	61	56
19.8529	19.9684	66	57
19.8529	19.9684	70	64
19.8529	19.9684	73	64
20.0839	20.198	47	53
20.0839	20.198	59	59
20.0839	20.198	66	60
20.0839	20.198	71	67
20.0839	20.198	74	67
20.312	20.427	45	50
20.312	20.427	57	56
20.542	20.653	44	54
20.542	20.653	56	60
20.542	20.653	76	64
20.542	20.653	80	72
20.7641	20.8773	75	59
20.7641	20.8773	78	66
20.9905	21.1023	73	63
20.9905	21.1023	76	71
21.2142	21.3279	54	51
21.2142	21.3279	66	57
21.2142	21.3279	68	60
21.2142	21.3279	72	67
21.2142	21.3279	75	67
21.4415	21.5529	52	54
21.4415	21.5529	56	54
21.4415	21.5529	64	60
21.4415	21.5529	68	62
21.4415	21.5529	73	69
21.6644	21.7776	51	50
21.6644	21.7776	56	51
21.6644	21.7776	63	56
21.6644	21.7776	68	57
21.6644	21.7776	72	64
21.6644	21.7776	75	64
21.8908	22.0035	49	53
21.8908	22.0035	56	53
21.8908	22.0035	61	59
21.8908	22.0035	68	60
21.8908	22.0035	73	67
21.8908	22.0035	76	67
22.1163	22.2313	47	50
22.1163	22.2313	59	56
22.3463	22.8011	45	54
22.3463	22.792	57	60
22.3463	22.792	78	54
22.3463	22.8011	81	61
22.5691	22.8011	76	49
22.5691	22.8011	79	55
22.792	23.2366	47	50
22.792	23.2292	57	56
22.792	23.2366	59	56
22.792	23.2366	74	54
22.792	23.2292	78	60
23.0115	23.2366	69	50
23.0115	23.2366	76	56
23.2292	24.123	48	54
23.2292	23.8901	57	60
23.2292	24.123	60	60
23.2292	23.6715	78	54
23.2292	23.6843	81	61
23.4504	23.6843	76	49
23.4504	23.6843	79	55
23.6715	24.123	74	54
23.6715	24.113	78	60
23.8901	24.123	49	51
23.8901	24.113	57	57
23.8901	24.123	61	57
23.8901	24.123	69	52
23.8901	24.123	76	58
24.113	24.5602	45	55
24.113	24.5511	57	62
24.113	24.5511	78	55
24.113	24.5602	81	62
24.3308	24.5602	76	51
24.3308	24.5602	79	57
24.5511	25.0023	47	52
24.5511	24.9951	57	58
24.5511	25.0023	59	58
24.5511	25.0023	74	56
24.5511	24.9951	78	63
24.7714	25.0023	69	53
24.7714	25.0023	76	59
24.9951	25.8854	48	55
24.9951	25.6527	57	62
24.9951	25.8854	60	62
24.9951	25.4324	78	56
24.9951	25.4379	81	63
25.2121	25.4379	76	53
25.2121	25.4379	79	59
25.4324	25.8854	74	56
25.4324	25.8854	78	63
25.6527	25.8854	49	54
25.6527	25.8854	57	60
25.6527	25.8854	61	60
25.6527	25.8854	69	54
25.6527	25.8854	76	61
25.8764	26.3142	50	62
25.8764	26.3087	62	69
25.8764	26.3087	83	62
25.8764	26.3142	86	69
26.0926	26.3142	81	56
26.0926	26.3142	84	63
26.3087	26.7572	52	56
26.3087	26.7536	62	63
26.3087	26.7572	64	63
26.3087	26.7572	79	61
26.3087	26.7536	83	68
26.529	26.7572	74	56
26.529	26.7572	81	63
26.7536	27.6339	53	62
26.7536	27.4021	62	69
26.7536	27.6339	65	69
26.7536	27.1843	83	63
26.7536	27.1934	86	71
26.9689	27.1934	81	57
26.9689	27.1934	84	64
27.1843	27.6339	79	62
27.1843	27.6249	83	69
27.4021	27.6339	54	58
27.4021	27.6249	62	65
27.4021	27.6339	66	65
27.4021	27.6339	74	59
27.4021	27.6339	81	66
27.6249	28.064	50	63
27.6249	28.0539	62	71
27.6249	28.0539	83	64
27.6249	28.064	86	72
27.8394	28.064	81	58
27.8394	28.064	84	65
28.0539	28.4915	52	59
28.0539	28.4879	62	66
28.0539	28.4915	64	66
28.0539	28.4915	79	63
28.0539	28.4879	83	71
28.2726	28.4915	74	61
28.2726	28.4915	81	68
28.4879	29.3676	53	65
28.4879	29.1413	62	73
28.4879	29.3676	65	73
28.4879	28.9226	83	65
28.4879	28.9299	86	73
28.704	28.9299	81	61
28.704	28.9299	84	68
28.9226	29.3676	79	64
28.9226	29.3676	83	72
29.1413	29.3676	54	61
29.1413	29.3676	62	68
29.1413	29.3676	66	68
29.1413	29.3676	74	70
29.1413	29.3676	81	70
29.3676	29.8352	55	79
29.3676	29.9761	67	82
29.3676	29.9761	71	82
29.3676	29.9761	79	92
29.8352	31.5986	53	71
29.8352	30.7033	55	71
29.8352	31.5986	65	79
29.9761	30.1169	67	77
29.9761	30.1169	71	77
29.9761	30.1169	79	86
30.1169	30.2661	67	77
30.1169	30.2661	71	77
30.1169	30.2661	79	86
30.2661	30.8452	67	83
30.2661	30.8452	71	83
30.2661	30.8452	79	93
30.7033	31.5986	52	69
30.7033	31.5763	55	69
30.7033	31.5986	64	77
30.8452	30.987	67	77
30.8452	30.987	71	77
30.8452	30.987	79	86
30.987	31.1288	67	76
30.987	31.1288	71	76
30.987	31.1288	79	85
31.1288	31.7899	67	82
31.1288	31.7899	71	82
31.1288	31.7899	79	92
31.5763	32.4616	51	71
31.5763	32.4616	55	71
31.5763	32.4616	63	79
31.7899	31.9026	71	73
31.7899	31.9026	79	82
31.7899	31.9026	83	82
32.0154	32.1259	72	78
32.0154	32.1259	81	87
32.0154	32.1259	84	87
32.2365	32.3493	71	76
32.2365	32.3493	79	85
32.2365	32.3493	83	85
32.4616	32.91	50	67
32.4616	32.91	54	67
32.4616	32.91	62	75
32.4616	32.5721	72	78
32.4616	32.5721	81	87
32.4616	32.5721	84	87
32.6827	32.7964	69	72
32.6827	32.7964	74	81
32.6827	32.7964	81	81
32.91	33.8022	38	66
32.91	33.3682	50	74
32.91	33.5091	74	90
32.91	33.5091	83	101
32.91	33.5091	86	101
33.3682	33.8022	40	66
33.3682	33.7985	50	74
33.3682	33.8022	52	74
33.5091	33.6499	74	84
33.5091	33.6499	83	94
33.5091	33.6499	86	94
33.6499	33.7985	74	84
33.6499	33.7985	83	94
33.6499	33.7985	86	94
33.7985	34.2419	42	71
33.7985	34.2357	50	79
33.7985	34.2419	54	79
33.7985	34.3766	74	91
33.7985	34.3766	83	102
33.7985	34.3766	86	102
34.2357	34.6716	43	67
34.2357	34.6716	50	75
34.2357	34.6716	55	75
34.3766	34.5219	74	84
34.3766	34.5219	83	94
34.3766	34.5219	86	94
34.5219	34.6716	74	83
34.5219	34.6716	83	93
34.5219	34.6716	86	93
34.6716	34.7835	76	83
34.6716	34.7835	84	93
34.6716	34.7835	88	93
34.8954	35.0072	43	64
34.8954	35.0072	50	64
34.8954	35.0072	55	72
34.8954	35.0072	74	77
34.8954	35.0072	83	86
34.8954	35.0072	86	86
35.1191	35.2332	45	66
35.1191	35.2332	50	66
35.1191	35.2332	57	74
35.1191	35.2332	72	81
35.1191	35.2332	81	91
35.1191	35.2332	84	91
35.3473	35.4647	47	59
35.3473	35.4647	50	59
35.3473	35.4647	59	66
35.3473	35.4647	71	76
35.3473	35.4647	74	85
35.3473	35.4647	79	85
35.3473	35.4647	83	85
35.582	35.6994	50	70
35.582	35.6994	54	70
35.582	35.6994	57	78
35.582	35.6994	62	78
35.582	35.6994	69	84
35.582	35.6994	74	84
35.582	35.6994	78	94
35.582	35.6994	81	94
35.8168	35.9342	55	65
35.8168	35.9342	59	73
35.8168	35.9342	62	73
35.8168	35.9342	71	80
35.8168	35.9342	74	80
35.8168	35.9342	79	89
35.8168	35.9342	83	89
36.0515	36.1689	50	68
36.0515	36.1689	54	68
36.0515	36.1689	57	76
36.0515	36.1689	62	76
36.0515	36.1689	69	77
36.0515	36.1689	74	77
36.0515	36.1689	78	94
36.0515	36.1689	81	94
36.521	36.9886	55	79
36.521	37.1304	67	82
36.521	37.1304	71	82
36.521	37.1304	79	92
36.9886	39.18	53	71
36.9886	37.8587	55	71
36.9886	39.18	65	79
37.1304	37.2723	67	77
37.1304	37.2723	71	77
37.1304	37.2723	79	86
37.2723	37.4215	67	77
37.2723	37.4215	71	77
37.2723	37.4215	79	86
37.4215	38.0	67	83
37.4215	38.0	71	83
37.4215	38.0	79	93
37.8587	39.18	52	69
37.8587	38.7302	55	69
37.8587	39.18	64	77
38.0	38.1414	67	77
38.0	38.1414	71	77
38.0	38.1414	79	86
38.1414	38.2827	67	76
38.1414	38.2827	71	76
38.1414	38.2827	79	85
38.2827	39.18	67	82
38.2827	38.9472	71	82
38.2827	38.9472	79	92
38.7302	39.18	51	71
38.7302	39.18	55	71
38.7302	39.18	63	79
38.9472	39.18	71	73
38.9472	39.18	79	82
38.9472	39.18	83	82
39.1718	39.8345	50	67
39.1718	39.8345	54	67
39.1718	39.8345	62	75
39.1718	39.615	72	78
39.1718	39.615	81	87
39.1718	39.615	84	87
39.3904	39.7504	71	76
39.3904	39.7504	80	85
39.3904	39.7504	83	85
39.615	39.7504	72	78
39.615	39.7504	81	87
39.615	39.7504	84	87
39.8345	39.9468	48	61
39.8345	39.9468	54	61
39.8345	39.9468	60	68
39.8345	39.9468	69	72
39.8345	39.9468	74	81
39.8345	39.9468	81	81
40.0591	40.2828	47	64
40.0591	40.2828	50	64
40.0591	40.2828	55	72
40.0591	40.2828	59	72
40.0591	40.7236	74	82
40.0591	40.9456	79	87
40.0591	40.7236	86	96
40.2828	40.5066	48	60
40.2828	40.5066	60	67
40.5066	40.7236	47	64
40.5066	40.7236	59	72
40.7236	40.9456	45	60
40.7236	40.9456	57	67
40.7236	40.9456	72	73
40.7236	40.9456	84	82
40.9456	41.6074	43	63
40.9456	41.8311	50	71
40.9456	41.6074	55	71
40.9456	41.5555	71	78
40.9456	41.5555	79	87
40.9456	41.3888	83	87
41.165	41.5555	72	76
41.165	41.5555	81	85
41.165	41.5555	84	85
41.3888	41.5555	74	78
41.3888	41.5555	83	87
41.3888	41.5555	86	87
41.6074	41.7192	41	60
41.6074	41.7192	53	67
41.6074	41.7192	71	72
41.6074	41.7192	79	81
41.6074	41.7192	83	81
41.8311	41.943	40	64
41.8311	41.943	52	72
41.8311	42.4972	79	82
41.8311	42.4972	84	87
41.8311	42.4972	91	96
42.0549	42.1667	42	60
42.0549	42.1667	54	67
42.2786	42.3879	40	64
42.2786	42.3879	52	72
42.4972	42.6072	38	63
42.4972	42.6072	50	70
42.4972	42.6072	78	69
42.4972	42.6072	84	69
42.4972	42.6072	90	77
42.7171	43.37	36	66
42.7171	43.37	48	74
42.7171	42.8249	76	74
42.7171	42.8249	84	82
42.7171	42.8249	88	82
42.9327	43.0435	78	72
42.9327	43.0435	86	80
42.9327	43.0435	90	80
43.1543	43.2621	76	74
43.1543	43.2621	84	82
43.1543	43.2621	88	82
43.37	43.4808	38	65
43.37	43.4808	50	65
43.37	43.4808	74	68
43.37	43.4808	83	76
43.37	43.4808	86	76
43.5916	44.241	39	70
43.5916	44.241	51	70
43.5916	43.7006	72	73
43.5916	43.7006	81	81
43.5916	43.7006	84	81
43.8097	43.9188	74	66
43.8097	43.9188	83	74
43.8097	43.9188	86	74
44.0278	44.1344	72	71
44.0278	44.1344	81	79
44.0278	44.1344	84	79
44.241	44.3509	40	64
44.241	44.3509	52	64
44.241	44.3509	71	64
44.241	44.3509	79	72
44.241	44.3509	83	72
44.4609	45.1137	42	71
44.4609	45.1137	54	71
44.4609	44.5687	69	69
44.4609	44.5687	78	77
44.4609	44.5687	81	77
44.6765	44.7873	71	66
44.6765	44.7873	79	74
44.6765	44.7873	83	74
44.8981	45.0059	69	69
44.8981	45.0059	78	77
44.8981	45.0059	81	77
45.1137	45.2245	43	65
45.1137	45.2245	55	65
45.1137	45.2245	67	65
45.1137	45.2245	76	73
45.1137	45.2245	79	73
45.3353	45.9848	45	70
45.3353	45.9848	57	70
45.3353	45.4444	66	73
45.3353	45.4444	74	81
45.3353	45.4444	78	81
45.5535	45.6626	67	66
45.5535	45.6626	76	74
45.5535	45.6626	79	74
45.7716	45.8782	66	71
45.7716	45.8782	74	79
45.7716	45.8782	78	79
45.9848	46.0947	46	64
45.9848	46.0947	58	64
45.9848	46.0947	64	64
45.9848	46.0947	72	72
45.9848	46.0947	76	72
46.2047	46.8575	47	67
46.2047	46.8575	59	67
46.2047	46.3125	62	65
46.2047	46.3125	71	73
46.2047	46.3125	74	73
46.4203	46.5311	64	62
46.4203	46.5311	72	70
46.4203	46.5311	76	70
46.6419	46.7497	62	65
46.6419	46.7497	71	73
46.6419	46.7497	74	73
46.8575	46.9683	48	60
46.8575	46.9683	60	60
46.8575	46.9683	64	61
46.8575	46.9683	69	69
46.8575	46.9683	72	69
47.0791	47.5529	50	63
47.0791	47.5529	62	63
47.0791	47.6891	67	65
47.0791	47.6891	71	73
47.5467	47.9915	51	56
47.5467	47.9915	63	63
47.6891	47.8314	59	61
47.6891	47.8314	67	61
47.6891	47.8314	71	68
47.8314	47.9806	59	61
47.8314	47.9806	67	61
47.8314	47.9806	71	68
47.9806	48.4284	50	63
47.9806	48.5586	59	62
47.9806	48.4284	62	63
47.9806	48.5586	67	62
47.9806	48.5586	71	70
48.4178	48.8469	51	55
48.4178	48.8469	63	61
48.5586	48.6995	59	61
48.5586	48.6995	67	61
48.5586	48.6995	71	68
48.6995	48.8403	59	60
48.6995	48.8403	67	60
48.6995	48.8403	71	68
48.8403	49.5638	50	63
48.8403	49.2878	59	61
48.8403	49.5048	62	63
48.8403	49.5048	67	61
48.8403	49.5638	71	69
49.2878	49.7294	47	56
49.2878	49.7294	59	63
49.5048	49.6171	62	58
49.5048	49.6171	67	65
49.5048	49.6171	74	65
49.7294	50.1675	46	53
49.7294	50.1675	58	60
49.7294	49.8379	64	62
49.7294	49.8379	67	62
49.7294	49.8379	73	69
49.7294	49.8379	76	69
49.9464	50.057	62	60
49.9464	50.057	74	68
50.1675	50.6091	45	48
50.1675	50.6091	57	54
50.1675	50.276	64	62
50.1675	50.276	72	69
50.1675	50.276	76	69
50.3845	50.4968	66	57
50.3845	50.4968	78	64
50.6091	50.8337	43	54
50.6091	50.8337	55	60
50.6091	50.8337	67	62
50.6091	50.8337	71	62
50.6091	50.8337	79	69
51.0583	51.5015	51	58
51.0583	51.5015	63	66
51.2017	51.3451	71	67
51.2017	51.3451	79	67
51.2017	51.3451	83	74
51.3451	51.4942	71	67
51.3451	51.4942	79	67
51.3451	51.4942	83	74
51.4942	51.9412	50	66
51.4942	51.9412	62	66
51.4942	52.0733	71	68
51.4942	52.0733	79	68
51.4942	52.0733	83	77
51.9315	52.3663	51	57
51.9315	52.3663	63	64
52.0733	52.2152	71	67
52.0733	52.2152	79	67
52.0733	52.2152	83	74
52.2152	52.357	71	66
52.2152	52.357	79	66
52.2152	52.357	83	74
52.357	52.9853	50	66
52.357	52.9853	62	66
52.357	52.9853	71	67
52.357	52.9853	79	67
52.357	52.9853	83	75
52.8045	53.2461	47	58
52.8045	53.2461	59	66
53.0215	53.1338	74	66
53.0215	53.1338	79	74
53.0215	53.1338	86	74
53.2461	53.6851	46	55
53.2461	53.6851	58	63
53.2461	53.3546	76	71
53.2461	53.3546	79	71
53.2461	53.3546	85	78
53.2461	53.3546	88	78
53.463	53.574	74	69
53.463	53.574	86	77
53.6851	54.1275	45	50
53.6851	54.1275	57	56
53.6851	53.9028	76	71
53.6851	53.9028	84	78
53.6851	53.9028	88	78
53.9028	54.1275	78	65
53.9028	54.1275	84	65
53.9028	54.1275	86	73
53.9028	54.1275	90	73
54.1275	54.3521	43	56
54.1275	54.3521	55	63
54.1275	54.3521	79	71
54.1275	54.3521	83	71
54.1275	54.3521	86	71
54.1275	54.3521	91	78
54.5767	55.0088	47	53
54.5767	55.0088	50	53
54.5767	55.0088	54	53
54.5767	55.0088	62	59
54.5767	54.6852	74	68
54.5767	54.6852	86	76
54.7213	54.8294	76	68
54.7213	54.8294	88	76
54.8654	54.9731	78	69
54.8654	54.9731	90	77
55.0088	55.1203	55	56
55.0088	55.1203	59	56
55.0088	55.1203	62	63
55.0088	55.1203	79	70
55.0088	55.1203	91	78
55.4546	55.8867	47	53
55.4546	55.8867	50	53
55.4546	55.8867	54	53
55.4546	55.8867	62	59
55.4546	55.5631	74	68
55.4546	55.5631	86	76
55.5992	55.7073	76	68
55.5992	55.7073	88	76
55.7433	55.851	78	69
55.7433	55.851	90	77
55.8867	55.996	55	56
55.8867	55.996	59	56
55.8867	55.996	62	63
55.8867	55.996	79	70
55.8867	55.996	91	78
56.3239	56.7618	47	53
56.3239	56.7618	50	53
56.3239	56.7618	54	53
56.3239	56.7618	62	59
56.3239	56.4321	74	68
56.3239	56.4321	86	76
56.4684	56.5778	76	68
56.4684	56.5778	88	76
56.6143	56.7248	78	69
56.6143	56.7248	90	77
56.7618	56.9846	55	56
56.7618	56.9846	59	56
56.7618	56.9846	62	63
56.7618	56.9846	79	70
56.7618	56.9846	91	78
57.2075	57.4283	59	35
57.2075	57.4283	62	39
57.2075	57.2809	67	55
57.3545	57.4283	69	55
57.5025	57.5769	70	51
57.6517	58.5374	71	55
58.0787	58.5374	57	31
58.0787	58.5374	59	31
58.0787	58.5374	63	35
58.5244	58.9702	72	55
58.9702	59.1906	55	31
58.9702	59.1906	60	31
58.9702	59.1906	64	35
58.9702	59.0433	67	55
59.1167	59.1906	69	55
59.2647	59.3393	71	51
59.4143	60.187	72	55
59.8429	60.187	54	30
59.8429	60.187	57	30
59.8429	60.187	60	30
59.8429	60.187	64	34
60.1803	60.2949	76	55
60.2949	60.7406	71	55
60.7406	60.814	54	55
60.7406	60.9615	59	35
60.7406	60.9615	63	39
60.8876	60.9615	55	55
61.0356	61.1101	57	51
61.1848	62.0591	59	55
61.6133	62.0136	45	28
61.6133	62.0136	47	28
61.6133	62.0136	57	32
61.6133	62.0136	63	35
61.6133	62.0136	66	39
62.0591	62.5048	60	55
62.5048	62.7252	43	27
62.5048	62.7252	48	27
62.5048	62.7252	55	55
62.5048	62.7252	64	39
62.5048	62.7252	67	39
62.6514	62.7252	57	55
62.7994	62.874	59	51
62.949	63.7232	60	55
63.3791	63.7232	42	29
63.3791	63.7232	48	29
63.3791	63.7232	54	33
63.3791	63.7232	69	39
63.3791	63.7232	72	39
63.7165	63.8311	64	55
63.8311	64.2768	59	55
64.2768	64.4977	47	31
64.2768	64.4977	54	31
64.2768	64.4977	59	35
64.2768	64.4977	63	39
64.2768	64.3502	66	55
64.4238	64.4977	68	55
64.5718	64.6462	70	51
64.721	65.6056	71	55
65.1599	65.5954	57	31
65.1599	65.5954	59	31
65.1599	65.5954	63	35
65.6056	66.0513	72	55
66.0513	66.2718	55	31
66.0513	66.2718	60	31
66.0513	66.2718	64	35
66.0513	66.1245	67	55
66.1979	66.2718	69	55
66.3459	66.4205	71	51
66.4955	67.2682	72	55
66.9241	67.2682	54	30
66.9241	67.2682	57	30
66.9241	67.2682	60	30
66.9241	67.2682	64	34
67.2615	67.3761	76	55
67.3761	67.8218	71	55
67.8218	67.8952	54	55
67.8218	68.0427	59	35
67.8218	68.0427	63	39
67.9688	68.0427	55	55
68.1168	68.1912	57	51
68.266	69.1523	59	55
68.7066	69.1133	45	28
68.7066	69.1133	47	28
68.7066	69.1133	57	32
68.7066	69.1133	63	39
68.7066	69.1133	66	39
69.1523	69.598	60	55
69.598	69.8185	43	27
69.598	69.8185	48	27
69.598	69.8185	55	55
69.598	69.8185	64	39
69.598	69.8185	67	39
69.7446	69.8185	57	55
69.8926	69.9672	59	51
70.0422	70.8269	60	55
70.4828	70.8269	42	29
70.4828	70.8269	48	29
70.4828	70.8269	54	33
70.4828	70.8269	69	39
70.4828	70.8269	72	39
70.8202	70.9348	64	55
70.9348	71.3805	59	55
71.3805	71.6014	47	33
71.3805	71.6014	54	33
71.3805	71.6014	59	37
71.3805	71.4539	63	59
71.3805	71.6014	71	42
71.5275	71.6014	64	59
71.6755	71.7499	65	57
71.8247	72.7005	66	62
72.2548	72.7005	45	36
72.2548	72.7005	54	41
72.2548	72.7005	57	41
72.2548	72.7005	61	46
72.7005	72.9234	44	44
72.7005	72.9234	56	49
72.7005	72.9234	60	64
72.7005	72.9234	68	67
73.1462	73.2202	44	57
73.1462	73.5902	68	61
73.1462	73.5902	80	68
73.2942	73.3682	43	52
73.4422	73.5162	44	52
73.5902	73.6642	46	59
73.5902	74.0343	67	60
73.5902	74.0343	79	67
73.7383	73.8123	44	53
73.8863	73.9603	46	53
74.0343	74.1085	48	59
74.0343	74.48	66	60
74.0343	74.48	68	60
74.0343	74.48	78	67
74.1828	74.2571	46	55
74.3314	74.4057	48	55
74.48	74.7037	49	60
74.48	74.7037	64	54
74.48	74.7037	68	54
74.48	74.7037	76	67
74.9275	75.1483	49	39
74.9275	75.1483	56	39
74.9275	75.1483	61	44
74.9275	75.0745	64	61
75.0745	75.2225	66	61
75.2225	75.3716	67	59
75.3716	76.2493	68	65
75.8017	76.2493	47	43
75.8017	76.2493	56	48
75.8017	76.2493	59	48
75.8017	76.2493	63	48
76.2475	76.4703	46	45
76.2475	76.4703	58	51
76.2475	76.4703	62	67
76.2475	76.4703	70	69
76.6932	76.7663	46	61
76.6932	77.1321	70	63
76.6932	77.1321	82	70
76.8395	76.9127	45	56
76.9858	77.059	46	56
77.1321	77.2058	48	64
77.1321	77.5744	69	63
77.1321	77.5744	81	70
77.2795	77.3533	46	57
77.427	77.5007	48	57
77.5744	77.6484	50	64
77.5744	78.0184	68	59
77.5744	78.0184	70	59
77.5744	78.0184	80	66
77.7224	77.7964	49	59
77.8704	77.9444	50	59
78.0184	78.243	51	66
78.0184	78.243	66	56
78.0184	78.243	70	56
78.0184	78.243	78	70
78.4676	78.6896	56	37
78.4676	78.6896	58	37
78.4676	78.6896	68	41
78.4676	78.5416	70	59
78.6156	78.6896	72	57
78.7636	78.8376	74	57
78.9116	79.1337	54	39
78.9116	79.1337	58	39
78.9116	79.1337	66	44
78.9116	78.9856	75	60
79.0597	79.1337	74	57
79.2077	79.2817	75	57
79.3557	79.5777	50	36
79.3557	79.5777	58	40
79.3557	79.5777	62	40
79.3557	79.4297	82	60
79.5037	79.5777	81	56
79.6517	79.7257	82	56
79.7997	80.0217	51	39
79.7997	80.0217	58	39
79.7997	80.0217	63	44
79.7997	79.8737	78	60
79.9477	80.0217	77	57
80.0957	80.1697	78	57
80.2437	80.464	53	36
80.2437	80.464	58	36
80.2437	80.464	65	40
80.2437	80.3171	74	61
80.3905	80.464	73	59
80.5374	80.6108	74	59
80.6842	80.9062	54	39
80.6842	80.9062	58	39
80.6842	80.9062	66	44
80.6842	80.7582	75	60
80.8322	80.9062	74	58
80.9802	81.0543	75	58
81.1283	81.352	56	35
81.1283	81.352	58	35
81.1283	81.352	68	39
81.1283	81.2028	70	59
81.2774	81.352	69	57
81.4266	81.5011	70	57
81.5757	81.8003	54	39
81.5757	81.8003	58	39
81.5757	81.8003	66	44
81.5757	81.6506	75	60
81.7255	81.8003	74	57
81.8752	81.9501	75	58
82.025	82.179	58	70
82.179	82.3329	58	67
82.3329	82.9451	58	66
82.4869	82.9508	54	72
82.4869	82.9508	63	72
82.6397	82.9451	82	71
82.7924	82.9508	81	66
82.9451	83.4209	58	68
82.9451	83.4209	65	68
82.9451	83.2494	82	71
83.0973	83.4209	70	65
83.2494	83.4015	82	67
83.4015	83.8788	63	71
83.4015	83.8788	66	71
83.4015	83.7119	82	71
83.5567	83.8788	70	67
83.7119	83.8788	82	67
83.8672	84.0224	58	73
84.0224	84.1776	58	70
84.1776	84.791	58	70
84.3328	84.7977	54	72
84.3328	84.7977	63	72
84.4856	84.791	82	71
84.6383	84.7977	81	66
84.791	85.261	58	68
84.791	85.261	65	68
84.791	85.0953	82	71
84.9432	85.261	70	65
85.0953	85.2474	82	67
85.2474	85.7131	63	71
85.2474	85.7131	66	71
85.2474	85.5579	82	71
85.4026	85.6801	70	67
85.5579	85.7131	82	67
85.7131	85.9351	57	37
85.7131	85.9351	59	37
85.7131	85.9351	69	41
85.7131	85.7871	71	59
85.8611	85.9351	73	57
86.0091	86.0831	75	57
86.1571	86.3791	55	39
86.1571	86.3791	59	39
86.1571	86.3791	67	44
86.1571	86.2311	76	60
86.3051	86.3791	75	57
86.4531	86.5271	76	57
86.6011	86.8231	51	36
86.6011	86.8231	59	40
86.6011	86.8231	63	40
86.6011	86.6751	83	60
86.7491	86.8231	82	56
86.8971	86.9711	83	56
87.0451	87.2671	52	39
87.0451	87.2671	59	39
87.0451	87.2671	64	44
87.0451	87.1191	79	60
87.1931	87.2671	78	57
87.3411	87.4151	79	57
87.4891	87.7094	54	36
87.4891	87.7094	59	36
87.4891	87.7094	66	40
87.4891	87.5626	75	61
87.636	87.7094	74	59
87.7828	87.8563	75	59
87.9297	88.1517	55	39
87.9297	88.1517	59	39
87.9297	88.1517	67	44
87.9297	88.0037	76	60
88.0777	88.1517	75	58
88.2257	88.2997	76	58
88.3737	88.5974	57	35
88.3737	88.5974	59	35
88.3737	88.5974	69	39
88.3737	88.4483	71	59
88.5229	88.5974	70	57
88.672	88.7466	71	57
88.8212	89.0458	55	39
88.8212	89.0458	59	39
88.8212	89.0458	67	44
88.8212	88.896	76	60
88.9709	89.0458	75	57
89.1207	89.1955	76	58
89.2704	89.4244	59	70
89.4244	89.5784	59	67
89.5784	90.1906	59	66
89.7324	90.2001	55	72
89.7324	90.2001	64	72
89.8851	90.1906	83	71
90.0378	90.2001	82	66
90.1906	90.6596	59	68
90.1906	90.6596	66	68
90.1906	90.4948	83	71
90.3427	90.6596	71	65
90.4948	90.647	83	67
90.647	91.1204	64	71
90.647	91.1204	67	71
90.647	90.9574	83	71
90.8022	91.1204	71	67
90.9574	91.1204	83	67
91.1126	91.2678	59	73
91.2678	91.4231	59	70
91.4231	92.0365	59	70
91.5783	92.0422	55	72
91.5783	92.0422	64	72
91.731	92.0365	83	71
91.8838	92.0422	82	66
92.0365	92.5074	59	68
92.0365	92.5074	66	68
92.0365	92.3407	83	71
92.1886	92.5074	71	65
92.3407	92.4929	83	67
92.4929	92.9585	64	71
92.4929	92.9671	67	71
92.4929	92.8033	83	71
92.6481	92.9671	71	67
92.8033	92.9671	83	67
92.9585	93.4252	58	44
92.9585	93.4186	60	44
92.9585	93.4252	64	49
92.9585	93.2652	84	60
93.1119	93.4252	72	56
93.2652	93.4186	84	56
93.4186	93.8816	57	45
93.4186	93.8749	60	45
93.4186	93.8816	65	51
93.4186	93.7228	84	62
93.5707	93.8816	72	59
93.7228	93.8816	84	58
93.8749	94.3374	60	46
93.8749	94.3307	62	46
93.8749	94.3374	66	52
93.8749	94.1792	86	64
94.0271	94.3374	74	59
94.1792	94.3307	86	62
94.3307	94.793	59	48
94.3307	94.7864	62	48
94.3307	94.793	67	54
94.3307	94.6348	86	67
94.4829	94.793	74	62
94.6348	94.793	86	63
94.7864	95.2443	62	50
94.7864	95.2387	64	50
94.7864	95.2443	68	56
94.7864	95.0884	88	69
94.9374	95.2443	76	65
95.0884	95.2387	88	67
95.2387	95.6938	61	52
95.2387	95.6882	64	52
95.2387	95.6938	69	58
95.2387	95.5385	88	71
95.3887	95.6938	76	67
95.5385	95.6938	88	66
95.6882	96.1477	64	53
95.6882	96.1375	66	53
95.6882	96.1477	70	59
95.6882	95.9877	90	72
95.838	96.1477	78	68
95.9877	96.1375	90	68
96.1375	96.5891	63	54
96.1375	96.5826	66	61
96.1375	96.5891	71	61
96.1375	96.4346	90	76
96.286	96.5891	78	69
96.4346	96.5826	90	72
96.5826	97.0255	61	56
96.5826	97.0255	64	56
96.5826	97.0255	66	63
96.5826	97.0255	70	63
96.5826	96.878	90	78
96.7306	97.0255	78	71
96.878	97.0255	90	73
97.0255	97.4743	59	58
97.0255	97.4743	63	58
97.0255	97.466	66	65
97.0255	97.4743	71	65
97.0255	97.3192	90	80
97.1723	97.4743	78	73
97.3192	97.466	90	76
97.466	97.9132	61	58
97.466	97.9132	64	58
97.466	97.9066	66	65
97.466	97.9132	70	65
97.466	97.7598	90	80
97.6129	97.9132	78	73
97.7598	97.9066	90	76
97.9066	98.3632	59	58
97.9066	98.3632	63	58
97.9066	98.3632	66	65
97.9066	98.3632	71	65
97.9066	98.2049	90	80
98.0558	98.3541	78	73
98.2049	98.3632	90	76
98.3541	98.7913	49	50
98.3541	98.7913	52	50
98.3541	98.7913	54	50
98.3541	98.7913	58	56
98.3541	98.6456	78	78
98.4999	98.7913	66	71
98.6456	98.7913	78	73
98.7913	99.2474	47	52
98.7913	99.2474	51	52
98.7913	99.2354	54	52
98.7913	99.2474	59	58
98.7913	99.0874	78	80
98.9394	99.2474	66	73
99.0874	99.2354	78	78
99.2354	99.6896	49	54
99.2354	99.6896	52	54
99.2354	99.6794	54	54
99.2354	99.6896	58	60
99.2354	99.5314	78	84
99.3834	99.6896	66	77
99.5314	99.6794	78	82
99.6794	100.134	47	57
99.6794	100.134	51	57
99.6794	100.127	54	57
99.6794	100.134	59	63
99.6794	99.9777	78	88
99.8285	100.134	66	81
99.9777	100.127	78	85
100.127	100.583	49	59
100.127	100.583	52	59
100.127	100.583	54	59
100.127	100.583	58	66
100.127	100.429	78	92
100.277	100.583	66	84
100.429	100.583	78	89
100.583	100.733	47	55
100.583	100.733	51	55
100.583	100.733	54	55
100.583	100.733	59	65
100.583	100.733	71	79
100.583	100.733	75	79
100.583	100.733	78	79
100.583	100.733	83	94
100.733	100.881	47	49
100.733	100.881	51	49
100.733	100.881	54	49
100.733	100.881	59	58
100.733	100.881	71	71
100.733	100.881	75	71
100.733	100.881	78	71
100.733	100.881	83	84
100.881	101.033	47	49
100.881	101.033	51	49
100.881	101.033	54	49
100.881	101.033	59	58
100.881	101.033	71	71
100.881	101.033	75	71
100.881	101.033	78	71
100.881	101.033	83	84
101.033	101.262	47	55
101.033	101.262	51	55
101.033	101.262	54	55
101.033	101.262	59	65
101.033	101.262	71	79
101.033	101.262	75	79
101.033	101.262	78	79
101.033	101.262	83	94
101.483	101.632	47	55
101.483	101.632	51	55
101.483	101.632	54	55
101.483	101.632	59	65
101.483	101.632	71	79
101.483	101.632	75	79
101.483	101.632	78	79
101.483	101.632	83	94
101.632	101.78	47	49
101.632	101.78	51	49
101.632	101.78	54	49
101.632	101.78	59	58
101.632	101.78	71	71
101.632	101.78	75	71
101.632	101.78	78	71
101.632	101.78	83	84
101.78	101.931	47	49
101.78	101.931	51	49
101.78	101.931	54	49
101.78	101.931	59	58
101.78	101.931	71	71
101.78	101.931	75	71
101.78	101.931	78	71
101.78	101.931	83	84
101.931	102.156	47	55
101.931	102.156	51	55
101.931	102.156	54	55
101.931	102.156	59	65
101.931	102.156	71	79
101.931	102.156	75	79
101.931	102.156	78	79
101.931	102.156	83	94
102.381	102.528	47	55
102.381	102.528	51	55
102.381	102.528	54	55
102.381	102.528	59	65
102.381	102.528	71	79
102.381	102.528	75	79
102.381	102.528	78	79
102.381	102.528	83	94
102.528	102.675	47	49
102.528	102.675	51	49
102.528	102.675	54	49
102.528	102.675	59	58
102.528	102.675	71	71
102.528	102.675	75	71
102.528	102.675	78	71
102.528	102.675	83	84
102.675	102.827	47	49
102.675	102.827	51	49
102.675	102.827	54	49
102.675	102.827	59	58
102.675	102.827	71	71
102.675	102.827	75	71
102.675	102.827	78	71
102.675	102.827	83	84
102.827	103.056	47	55
102.827	103.056	51	55
102.827	103.056	54	55
102.827	103.056	59	65
102.827	103.056	71	79
102.827	103.056	75	79
102.827	103.056	78	79
102.827	103.056	83	94
103.277	103.425	47	55
103.277	103.425	51	55
103.277	103.425	54	55
103.277	103.425	59	65
103.277	103.425	71	79
103.277	103.425	75	79
103.277	103.425	78	79
103.277	103.425	83	94
103.425	103.573	47	49
103.425	103.573	51	49
103.425	103.573	54	49
103.425	103.573	59	58
103.425	103.573	71	71
103.425	103.573	75	71
103.425	103.573	78	71
103.425	103.573	83	84
103.573	103.724	47	49
103.573	103.724	51	49
103.573	103.724	54	49
103.573	103.724	59	58
103.573	103.724	71	71
103.573	103.724	75	71
103.573	103.724	78	71
103.573	103.724	83	84
103.724	103.948	47	55
103.724	103.948	51	55
103.724	103.948	54	55
103.724	103.948	59	65
103.724	103.948	71	79
103.724	103.948	75	79
103.724	103.948	78	79
103.724	103.948	83	94
104.173	104.322	50	55
104.173	104.322	62	65
104.173	104.322	74	79
104.173	104.322	86	94
104.322	104.47	50	49
104.322	104.47	62	58
104.322	104.47	74	71
104.322	104.47	86	84
104.47	104.622	50	49
104.47	104.622	62	58
104.47	104.622	74	71
104.47	104.622	86	84
104.622	105.071	50	55
104.622	105.071	62	65
104.622	105.071	74	79
104.622	105.071	86	94
105.071	105.22	50	55
105.071	105.22	62	65
105.071	105.22	74	79
105.071	105.22	86	94
105.22	105.368	50	49
105.22	105.368	62	58
105.22	105.368	74	71
105.22	105.368	86	84
105.368	105.52	50	49
105.368	105.52	62	58
105.368	105.52	74	71
105.368	105.52	86	84
105.52	105.979	50	55
105.52	105.97	62	65
105.52	105.97	74	79
105.52	105.979	86	94
105.97	106.119	62	71
105.97	106.119	74	84
106.119	106.268	62	63
106.119	106.268	74	75
106.268	106.419	62	63
106.268	106.419	74	75
106.419	106.869	62	71
106.419	106.869	74	84
106.869	107.018	62	71
106.869	107.018	74	84
107.018	107.168	62	63
107.018	107.168	74	75
107.168	107.32	62	63
107.168	107.32	74	75
107.32	107.769	62	71
107.32	107.769	74	84
107.769	108.369	47	61
107.769	108.369	55	68
107.769	107.92	62	70
107.769	107.92	74	78
107.92	108.072	62	65
107.92	108.072	74	73
108.072	108.224	62	65
108.072	108.224	74	73
108.224	108.821	62	70
108.224	108.821	74	78
108.369	108.515	47	56
108.369	108.515	55	63
108.515	108.669	47	56
108.515	108.669	55	63
108.669	109.273	47	62
108.669	109.273	55	69
108.821	108.973	62	64
108.821	108.973	74	72
108.973	109.124	62	64
108.973	109.124	74	72
109.124	109.722	62	70
109.124	109.722	74	78
109.273	109.422	47	56
109.273	109.422	55	63
109.422	109.572	47	55
109.422	109.572	55	62
109.572	110.427	47	61
109.572	110.247	55	68
109.722	109.87	62	64
109.722	109.87	74	72
109.87	110.019	62	64
109.87	110.019	74	72
110.019	110.717	62	70
110.019	110.717	74	78
110.247	110.427	55	55
110.247	110.427	59	62
110.482	110.599	57	61
110.482	110.599	60	68
110.717	110.834	55	55
110.717	110.834	59	62
110.717	111.186	62	67
110.717	111.186	74	75
110.951	111.069	57	61
110.951	111.069	60	68
111.186	111.304	50	60
111.186	111.304	57	67
111.186	111.304	62	68
111.186	111.304	74	76
111.421	112.019	59	61
111.421	112.019	62	68
111.572	111.723	67	67
111.572	111.723	79	75
111.723	111.874	67	67
111.723	111.874	79	75
111.874	112.461	67	74
111.874	112.461	79	83
112.019	112.164	59	56
112.019	112.164	62	63
112.164	112.313	59	56
112.164	112.313	62	63
112.313	112.901	59	62
112.313	112.901	62	69
112.461	112.609	67	67
112.461	112.609	79	75
112.609	112.757	67	67
112.609	112.757	79	75
112.757	113.422	67	70
112.757	113.422	79	78
112.901	113.049	59	56
112.901	113.049	62	63
113.049	113.198	59	55
113.049	113.198	62	62
113.198	113.31	60	61
113.198	113.31	64	68
113.422	113.534	59	54
113.422	113.534	62	61
113.422	113.874	67	70
113.422	113.874	79	78
113.646	113.76	57	58
113.646	113.76	60	65
113.874	113.991	55	53
113.874	113.991	59	59
113.874	113.991	67	68
113.874	113.991	79	76
114.109	114.226	50	71
114.109	114.226	57	79
114.109	114.226	74	87
114.109	114.226	78	87
114.109	114.226	86	97
114.344	114.461	55	66
114.344	114.461	59	74
114.344	114.461	74	79
114.344	114.461	79	79
114.344	114.461	86	88
114.578	114.813	50	71
114.578	114.813	57	79
114.578	114.813	74	84
114.578	114.813	78	84
114.578	114.813	86	94
115.048	115.654	59	72
115.048	115.654	67	80
115.515	117.252	51	64
115.515	117.252	63	72
115.654	115.793	59	67
115.654	115.793	67	75
115.793	115.942	59	67
115.793	115.942	67	75
115.942	116.524	59	72
115.942	116.524	67	81
116.385	117.425	50	63
116.385	117.425	62	70
116.524	116.664	59	67
116.524	116.664	67	75
116.664	116.804	59	66
116.664	116.804	67	74
116.804	117.478	59	72
116.804	117.478	67	80
117.252	118.165	51	64
117.252	118.165	63	72
117.478	117.593	67	66
117.478	117.593	71	74
117.708	117.821	69	72
117.708	117.821	72	80
117.934	118.05	67	66
117.934	118.05	71	74
118.165	118.617	50	62
118.165	118.391	62	69
118.165	118.278	69	72
118.165	118.278	72	80
118.391	118.617	62	71
118.391	118.504	69	79
118.617	119.215	71	72
118.617	119.215	74	80
119.076	119.511	55	61
119.076	119.511	67	68
119.215	119.354	71	67
119.215	119.354	74	75
119.354	119.503	71	67
119.354	119.503	74	75
119.503	119.947	54	64
119.503	119.947	66	72
119.503	120.08	71	72
119.503	120.08	74	81
119.94	120.375	53	62
119.94	120.375	65	69
120.08	120.225	71	67
120.08	120.225	74	75
120.225	120.375	71	66
120.225	120.375	74	74
120.375	121.051	52	64
120.375	121.051	64	72
120.375	120.487	72	72
120.375	120.487	76	80
120.599	120.711	71	69
120.599	120.711	74	77
120.823	120.937	69	69
120.823	120.937	72	77
121.051	121.168	50	54
121.051	121.168	52	54
121.051	121.168	62	60
121.051	121.168	64	67
121.051	121.168	68	75
121.051	121.168	71	75
121.286	121.402	48	59
121.286	121.402	52	59
121.286	121.402	60	66
121.286	121.402	64	73
121.286	121.402	69	82
121.518	121.635	47	51
121.518	121.635	52	51
121.518	121.635	59	57
121.518	121.635	64	69
121.518	121.635	68	69
121.518	121.635	71	77
121.753	121.87	45	54
121.753	121.87	52	54
121.753	121.87	57	60
121.753	121.87	64	67
121.753	121.87	69	73
121.753	121.87	72	82
121.986	122.103	43	49
121.986	122.103	55	55
122.221	122.333	42	54
122.221	122.333	54	60
122.221	122.333	74	64
122.221	122.333	78	72
122.445	122.56	73	59
122.445	122.56	76	66
122.675	122.788	71	63
122.675	122.788	74	71
122.902	123.017	52	51
122.902	123.017	64	57
122.902	123.017	66	60
122.902	123.017	70	67
122.902	123.017	73	67
123.132	123.246	50	54
123.132	123.246	62	60
123.132	123.246	66	62
123.132	123.246	71	69
123.36	123.475	49	50
123.36	123.475	61	56
123.36	123.475	66	57
123.36	123.475	70	64
123.36	123.475	73	64
123.591	123.705	47	53
123.591	123.705	59	59
123.591	123.705	66	60
123.591	123.705	71	67
123.591	123.705	74	67
123.819	123.934	45	50
123.819	123.934	57	56
124.049	124.16	44	54
124.049	124.16	56	60
124.049	124.16	76	64
124.049	124.16	80	72
124.271	124.384	75	59
124.271	124.384	78	66
124.497	124.609	73	63
124.497	124.609	76	71
124.721	124.835	54	51
124.721	124.835	66	57
124.721	124.835	68	60
124.721	124.835	72	67
124.721	124.835	75	67
124.948	125.06	52	54
124.948	125.06	56	54
124.948	125.06	64	60
124.948	125.06	68	62
124.948	125.06	73	69
125.171	125.284	51	50
125.171	125.284	56	51
125.171	125.284	63	56
125.171	125.284	68	57
125.171	125.284	72	64
125.171	125.284	75	64
125.398	125.51	49	53
125.398	125.51	56	53
125.398	125.51	61	59
125.398	125.51	68	60
125.398	125.51	73	67
125.398	125.51	76	67
125.623	125.738	47	50
125.623	125.738	59	56
125.853	126.305	45	54
125.853	126.299	57	60
125.853	126.299	78	54
125.853	126.305	81	61
126.076	126.305	76	49
126.076	126.305	79	55
126.299	126.746	47	50
126.299	126.736	57	56
126.299	126.746	59	56
126.299	126.746	74	54
126.299	126.736	78	60
126.518	126.746	69	50
126.518	126.746	76	56
126.736	127.627	48	54
126.736	127.397	57	60
126.736	127.627	60	60
126.736	127.178	78	54
126.736	127.192	81	61
126.957	127.192	76	49
126.957	127.192	79	55
127.178	127.627	74	54
127.178	127.62	78	60
127.397	127.627	49	51
127.397	127.62	57	57
127.397	127.627	61	57
127.397	127.627	69	52
127.397	127.627	76	58
127.62	128.064	45	55
127.62	128.058	57	62
127.62	128.058	78	55
127.62	128.064	81	62
127.838	128.064	76	51
127.838	128.064	79	57
128.058	128.514	47	52
128.058	128.502	57	58
128.058	128.514	59	58
128.058	128.514	74	56
128.058	128.502	78	63
128.278	128.514	69	53
128.278	128.514	76	59
128.502	129.392	48	55
128.502	129.159	57	62
128.502	129.392	60	62
128.502	128.939	78	56
128.502	128.954	81	63
128.719	128.954	76	53
128.719	128.954	79	59
128.939	129.392	74	56
128.939	129.392	78	63
129.159	129.392	49	54
129.159	129.392	57	60
129.159	129.392	61	60
129.159	129.392	69	54
129.159	129.392	76	61
129.383	129.824	50	62
129.383	129.816	62	69
129.383	129.816	83	62
129.383	129.824	86	69
129.599	129.824	81	56
129.599	129.824	84	63
129.816	130.269	52	56
129.816	130.26	62	63
129.816	130.269	64	63
129.816	130.269	79	61
129.816	130.26	83	68
130.036	130.269	74	56
130.036	130.269	81	63
130.26	131.14	53	62
130.26	130.909	62	69
130.26	131.14	65	69
130.26	130.691	83	63
130.26	130.697	86	71
130.476	130.697	81	57
130.476	130.697	84	64
130.691	131.14	79	62
130.691	131.132	83	69
130.909	131.14	54	58
130.909	131.132	62	65
130.909	131.14	66	65
130.909	131.14	74	59
130.909	131.14	81	66
131.132	131.57	50	63
131.132	131.561	62	71
131.132	131.561	83	64
131.132	131.57	86	72
131.346	131.57	81	58
131.346	131.57	84	65
131.561	132.001	52	59
131.561	131.995	62	66
131.561	132.001	64	66
131.561	132.001	79	63
131.561	131.995	83	71
131.779	132.001	74	61
131.779	132.001	81	68
131.995	132.88	53	65
131.995	132.648	62	73
131.995	132.88	65	73
131.995	132.429	83	65
131.995	132.437	86	73
132.211	132.437	81	61
132.211	132.437	84	68
132.429	132.874	79	64
132.429	132.88	83	72
132.648	132.88	54	61
132.648	132.88	62	68
132.648	132.88	66	68
132.648	132.88	74	70
132.648	132.88	81	70
132.874	133.342	55	79
132.874	133.482	67	82
132.874	133.482	71	82
132.874	133.482	79	92
133.342	135.089	53	71
133.342	134.209	55	71
133.342	135.089	65	79
133.482	133.623	67	77
133.482	133.623	71	77
133.482	133.623	79	86
133.623	133.772	67	77
133.623	133.772	71	77
133.623	133.772	79	86
133.772	134.349	67	83
133.772	134.349	71	83
133.772	134.349	79	93
134.209	135.089	52	69
134.209	135.076	55	69
134.209	135.089	64	77
134.349	134.489	67	77
134.349	134.489	71	77
134.349	134.489	79	86
134.489	134.629	67	76
134.489	134.629	71	76
134.489	134.629	79	85
134.629	135.29	67	82
134.629	135.29	71	82
134.629	135.29	79	92
135.076	135.955	51	71
135.076	135.955	55	71
135.076	135.955	63	79
135.29	135.515	71	73
135.29	135.515	79	82
135.29	135.515	83	82
135.515	135.73	72	78
135.515	135.73	81	87
135.515	135.73	84	87
135.73	135.955	71	76
135.73	135.955	79	85
135.73	135.955	83	85
135.955	136.404	50	67
135.955	136.404	54	67
135.955	136.404	62	75
135.955	136.177	72	78
135.955	136.177	81	87
135.955	136.177	84	87
136.177	136.404	69	72
136.177	136.404	74	81
136.177	136.404	81	81
136.404	137.307	38	66
136.404	136.862	50	74
136.404	137.002	74	90
136.404	137.002	83	101
136.404	137.002	86	101
136.862	137.307	40	66
136.862	137.29	50	74
136.862	137.307	52	74
137.002	137.142	74	84
137.002	137.142	83	94
137.002	137.142	86	94
137.142	137.29	74	84
137.142	137.29	83	94
137.142	137.29	86	94
137.29	137.735	42	71
137.29	137.728	50	79
137.29	137.735	54	79
137.29	137.868	74	91
137.29	137.868	83	102
137.29	137.868	86	102
137.728	138.176	43	67
137.728	138.176	50	75
137.728	138.176	55	75
137.868	138.013	74	84
137.868	138.013	83	94
137.868	138.013	86	94
138.013	138.176	74	83
138.013	138.176	83	93
138.013	138.176	86	93
138.163	138.275	76	83
138.163	138.275	84	93
138.163	138.275	88	93
138.386	138.498	43	64
138.386	138.498	50	64
138.386	138.498	55	72
138.386	138.498	74	77
138.386	138.498	83	86
138.386	138.498	86	86
138.61	138.724	45	66
138.61	138.724	50	66
138.61	138.724	57	74
138.61	138.724	72	81
138.61	138.724	81	91
138.61	138.724	84	91
138.838	138.956	47	59
138.838	138.956	50	59
138.838	138.956	59	66
138.838	138.956	71	76
138.838	138.956	74	85
138.838	138.956	79	85
138.838	138.956	83	85
139.073	139.19	50	70
139.073	139.19	54	70
139.073	139.19	57	78
139.073	139.19	62	78
139.073	139.19	69	84
139.073	139.19	74	84
139.073	139.19	78	94
139.073	139.19	81	94
139.308	139.425	55	65
139.308	139.425	59	73
139.308	139.425	62	73
139.308	139.425	71	80
139.308	139.425	74	80
139.308	139.425	79	89
139.308	139.425	83	89
139.543	139.66	50	68
139.543	139.66	54	68
139.543	139.66	57	76
139.543	139.66	62	76
139.543	139.66	69	77
139.543	139.66	74	77
139.543	139.66	78	94
139.543	139.66	81	94
140.012	140.48	55	79
140.012	140.622	67	82
140.012	140.622	71	82
140.012	140.622	79	92
140.48	142.243	53	71
140.48	141.35	55	71
140.48	142.243	65	79
140.622	140.763	67	77
140.622	140.763	71	77
140.622	140.763	79	86
140.763	140.913	67	77
140.763	140.913	71	77
140.763	140.913	79	86
140.913	141.492	67	83
140.913	141.492	71	83
140.913	141.492	79	93
141.35	142.243	52	69
141.35	142.223	55	69
141.35	142.243	64	77
141.492	141.633	67	77
141.492	141.633	71	77
141.492	141.633	79	86
141.633	141.775	67	76
141.633	141.775	71	76
141.633	141.775	79	85
141.775	142.436	67	82
141.775	142.436	71	82
141.775	142.436	79	92
142.223	142.661	51	71
142.223	142.661	55	71
142.223	142.661	63	79
142.436	142.661	71	73
142.436	142.661	79	82
142.436	142.661	83	82
142.661	143.32	50	67
142.661	143.32	54	67
142.661	143.32	62	75
142.661	142.876	72	78
142.661	142.876	81	87
142.661	142.876	84	87
142.876	143.101	71	76
142.876	143.101	80	85
142.876	143.101	83	85
143.101	143.21	72	78
143.101	143.21	81	87
143.101	143.21	84	87
143.32	143.432	48	61
143.32	143.432	54	61
143.32	143.432	60	68
143.32	143.432	69	72
143.32	143.432	74	81
143.32	143.432	81	81
143.545	143.768	47	64
143.545	143.768	50	64
143.545	143.768	55	72
143.545	143.768	59	72
143.545	144.209	74	82
143.545	144.431	79	87
143.545	144.209	86	96
143.768	143.992	48	60
143.768	143.992	60	67
143.992	144.209	47	64
143.992	144.209	59	72
144.209	144.431	45	60
144.209	144.431	57	67
144.209	144.431	72	73
144.209	144.431	84	82
144.431	145.093	43	63
144.431	145.317	50	71
144.431	145.093	55	71
144.431	144.651	71	78
144.431	144.651	79	87
144.431	144.651	83	87
144.651	144.874	72	76
144.651	144.874	81	85
144.651	144.874	84	85
144.874	144.984	74	78
144.874	144.984	83	87
144.874	144.984	86	87
145.093	145.205	41	60
145.093	145.205	53	67
145.093	145.205	71	72
145.093	145.205	79	81
145.093	145.205	83	81
145.317	145.429	40	64
145.317	145.429	52	72
145.317	145.983	79	82
145.317	145.983	84	87
145.317	145.983	91	96
145.54	145.652	42	60
145.54	145.652	54	67
145.764	145.873	40	64
145.764	145.873	52	72
145.983	146.093	38	63
145.983	146.093	50	70
145.983	146.093	78	69
145.983	146.093	84	69
145.983	146.093	90	77
146.203	146.856	36	66
146.203	146.856	48	74
146.203	146.31	76	74
146.203	146.31	84	82
146.203	146.31	88	82
146.418	146.529	78	72
146.418	146.529	86	80
146.418	146.529	90	80
146.64	146.748	76	74
146.64	146.748	84	82
146.64	146.748	88	82
146.856	146.966	38	65
146.856	146.966	50	65
146.856	146.966	74	68
146.856	146.966	83	76
146.856	146.966	86	76
147.077	147.727	39	70
147.077	147.727	51	70
147.077	147.186	72	73
147.077	147.186	81	81
147.077	147.186	84	81
147.295	147.404	74	66
147.295	147.404	83	74
147.295	147.404	86	74
147.513	147.62	72	71
147.513	147.62	81	79
147.513	147.62	84	79
147.727	147.837	40	64
147.727	147.837	52	64
147.727	147.837	71	64
147.727	147.837	79	72
147.727	147.837	83	72
147.946	148.599	42	71
147.946	148.599	54	71
147.946	148.054	69	69
147.946	148.054	78	77
147.946	148.054	81	77
148.162	148.273	71	66
148.162	148.273	79	74
148.162	148.273	83	74
148.384	148.492	69	69
148.384	148.492	78	77
148.384	148.492	81	77
148.599	148.71	43	65
148.599	148.71	55	65
148.599	148.71	67	65
148.599	148.71	76	73
148.599	148.71	79	73
148.821	149.47	45	70
148.821	149.47	57	70
148.821	148.93	66	73
148.821	148.93	74	81
148.821	148.93	78	81
149.039	149.148	67	66
149.039	149.148	76	74
149.039	149.148	79	74
149.257	149.364	66	71
149.257	149.364	74	79
149.257	149.364	78	79
149.47	149.58	46	64
149.47	149.58	58	64
149.47	149.58	64	64
149.47	149.58	72	72
149.47	149.58	76	72
149.69	150.343	47	67
149.69	150.343	59	67
149.69	149.798	62	65
149.69	149.798	71	73
149.69	149.798	74	73
149.906	150.017	64	62
149.906	150.017	72	70
149.906	150.017	76	70
150.127	150.235	62	65
150.127	150.235	71	73
150.127	150.235	74	73
150.343	150.454	48	60
150.343	150.454	60	60
150.343	150.454	64	61
150.343	150.454	69	69
150.343	150.454	72	69
150.565	151.044	50	63
150.565	151.044	62	63
150.565	151.175	67	65
150.565	151.175	71	73
151.032	151.483	51	56
151.032	151.483	63	63
151.175	151.317	59	61
151.175	151.317	67	61
151.175	151.317	71	68
151.317	151.466	59	61
151.317	151.466	67	61
151.317	151.466	71	68
151.466	151.911	50	63
151.466	152.045	59	62
151.466	151.911	62	63
151.466	152.045	67	62
151.466	152.045	71	70
151.903	152.337	51	55
151.903	152.337	63	61
152.045	152.187	59	61
152.045	152.187	67	61
152.045	152.187	71	68
152.187	152.329	59	60
152.187	152.329	67	60
152.187	152.329	71	68
152.329	152.943	50	63
152.329	152.776	59	61
152.329	152.943	62	63
152.329	152.943	67	61
152.329	152.943	71	69
152.776	153.218	47	56
152.776	153.218	59	63
152.993	153.218	62	58
152.993	153.218	67	65
152.993	153.218	74	65
153.218	153.656	46	53
153.218	153.656	58	60
153.218	153.435	64	62
153.218	153.435	67	62
153.218	153.435	73	69
153.218	153.435	76	69
153.435	153.656	62	60
153.435	153.656	74	68
153.656	154.098	45	48
153.656	154.098	57	54
153.656	153.873	64	62
153.656	153.873	72	69
153.656	153.873	76	69
153.873	154.098	66	57
153.873	154.098	78	64
154.098	154.322	43	54
154.098	154.322	55	60
154.098	154.322	67	62
154.098	154.322	71	62
154.098	154.322	79	69
154.547	154.996	51	58
154.547	154.996	63	66
154.69	154.834	71	67
154.69	154.834	79	67
154.69	154.834	83	74
154.834	154.983	71	67
154.834	154.983	79	67
154.834	154.983	83	74
154.983	155.432	50	66
154.983	155.432	62	66
154.983	155.561	71	68
154.983	155.561	79	68
154.983	155.561	83	77
155.42	155.854	51	57
155.42	155.854	63	64
155.561	155.703	71	67
155.561	155.703	79	67
155.561	155.703	83	74
155.703	155.844	71	66
155.703	155.844	79	66
155.703	155.844	83	74
155.844	156.743	50	66
155.844	156.743	62	66
155.844	156.743	71	67
155.844	156.509	79	67
155.844	156.743	83	75
156.292	156.743	47	58
156.292	156.743	59	66
156.509	156.743	74	72
156.509	156.733	79	81
156.509	156.743	86	81
156.733	157.179	46	60
156.733	157.179	58	69
156.733	157.172	76	78
156.733	157.179	79	78
156.733	157.179	85	85
156.733	157.172	88	85
156.95	157.179	74	75
156.95	157.179	86	84
157.172	157.617	45	55
157.172	157.617	57	61
157.172	157.617	76	78
157.172	157.39	84	85
157.172	157.617	88	85
157.39	157.617	78	71
157.39	157.617	84	71
157.39	157.615	86	80
157.39	157.617	90	80
157.615	157.839	43	61
157.615	157.839	55	69
157.615	157.839	79	78
157.615	157.839	83	78
157.615	157.839	86	78
157.615	157.839	91	85
158.064	158.496	47	58
158.064	158.496	50	58
158.064	158.496	54	58
158.064	158.496	62	64
158.064	158.172	74	74
158.064	158.172	86	83
158.208	158.316	76	74
158.208	158.316	88	83
158.352	158.46	78	75
158.352	158.46	90	84
158.496	158.785	55	61
158.496	158.785	59	61
158.496	158.785	62	69
158.496	158.785	79	77
158.496	158.785	91	85
158.942	159.374	47	58
158.942	159.374	50	58
158.942	159.374	54	58
158.942	159.374	62	64
158.942	159.05	74	74
158.942	159.05	86	83
159.086	159.194	76	74
159.086	159.194	88	83
159.23	159.338	78	75
159.23	159.338	90	84
159.374	159.628	55	61
159.374	159.628	59	61
159.374	159.628	62	69
159.374	159.628	79	77
159.374	159.628	91	85
159.854	160.168	55	61
159.854	160.168	59	61
159.854	160.168	62	68
159.854	160.168	67	71
159.854	160.168	71	71
159.854	160.168	74	71
159.854	160.168	79	79
160.417	162.686	43	65
160.417	162.686	50	65
160.417	162.686	55	73
160.417	162.686	59	79
160.417	162.686	62	79
160.417	162.686	67	88
