OnsetTime	OffsetTime	MidiPitch	Velocity
0.501265	1.70917	48	35
0.501265	1.70917	57	35
0.501265	1.70786	62	44
0.501265	1.70917	66	44
1.70786	2.96626	47	36
1.70786	2.96626	55	36
1.70786	2.96626	62	46
1.70786	2.96626	67	46
2.96626	4.77804	45	37
2.96626	4.77804	54	37
2.96626	4.77804	62	47
2.96626	4.77804	72	47
4.77804	5.39576	47	30
4.77804	5.39576	55	30
4.77804	5.39576	62	39
4.77804	5.39576	71	39
5.39576	6.65627	48	31
5.39576	6.65627	55	31
5.39576	6.65627	64	40
5.39576	6.17222	69	40
6.17222	6.29127	71	32
6.29127	6.41032	69	32
6.41032	6.5318	67	32
6.5318	6.65627	69	32
6.65627	7.9002	49	24
6.65627	7.9002	55	24
6.65627	7.9002	64	39
6.65627	7.82644	71	39
7.5841	7.9002	67	32
7.9002	10.4283	50	27
7.9002	9.16455	55	27
7.9002	10.4283	62	38
7.9002	9.16455	71	38
9.16455	10.4283	54	24
9.16455	10.4283	69	33
10.4283	11.6638	50	35
10.4283	11.6638	59	35
10.4283	11.6638	65	44
10.4283	11.6638	68	44
11.6638	12.9708	48	35
11.6638	12.9708	57	35
11.6638	12.9708	64	46
11.6638	12.9708	69	46
12.9708	14.3655	47	36
12.9708	13.7948	56	36
12.9708	14.3655	65	48
12.9708	14.3655	74	48
13.7948	13.9226	57	32
13.9226	14.0564	56	32
14.0564	14.2013	55	32
14.2013	14.3655	56	32
14.2518	15.6725	64	34
14.3655	15.6725	48	35
14.3655	15.6725	72	44
16.2791	17.6882	50	39
16.2791	17.6882	62	44
16.2791	17.6882	65	44
16.2791	17.6882	71	35
17.8291	18.0053	52	37
17.8291	18.0053	59	41
17.8291	18.0053	64	41
17.8291	18.0053	68	32
18.0053	19.2998	52	37
18.0053	19.2998	59	41
18.0053	19.947	64	41
18.0053	19.2998	68	32
19.2998	19.947	45	36
19.2998	19.947	60	38
19.2998	19.947	69	30
20.5943	21.8324	48	32
20.5943	21.8324	66	36
20.8962	21.755	62	29
21.1982	21.755	57	29
21.5008	21.8324	50	29
21.8324	23.1212	47	33
21.8324	23.1212	67	36
22.1371	23.1212	62	29
22.4418	23.1212	55	29
22.7476	23.1212	50	29
23.1212	26.2787	45	36
23.1212	27.5241	72	32
23.4681	26.2787	63	26
23.8337	26.8826	54	24
24.2412	27.1853	48	20
26.2787	27.5451	45	31
26.2787	27.5451	63	33
26.5807	27.5241	60	28
26.8826	27.5241	54	28
27.1853	27.5451	48	28
27.5451	28.8605	43	32
27.5451	28.8605	64	33
27.851	28.8605	59	28
28.1605	28.8605	52	28
28.474	28.8605	47	28
28.8605	31.5181	42	32
28.8605	31.5181	69	31
29.2281	32.1363	60	26
29.626	31.5181	51	22
30.099	31.5181	45	19
31.7263	31.9451	69	32
31.9323	32.1489	71	35
32.1363	32.3511	72	33
32.3384	32.5533	71	36
32.5406	32.7706	69	37
32.7706	34.1031	78	39
33.7277	34.0728	76	32
34.0728	34.8459	76	32
34.8001	35.6456	75	28
35.6456	35.7785	75	37
35.7785	36.0442	75	39
35.9113	36.3862	76	40
36.0442	36.3098	75	40
36.177	36.3862	74	42
36.3098	37.1156	75	44
36.4427	39.0223	58	45
36.4427	39.0223	76	45
36.6536	37.1156	64	35
36.8629	37.1156	66	37
37.0706	37.7995	67	40
37.2766	37.7995	66	39
37.4826	37.7995	64	41
37.7185	39.0223	73	44
38.3665	39.0223	59	39
38.6905	39.0223	71	42
38.8564	40.4077	61	37
38.9393	40.4077	64	37
39.0223	39.7764	71	44
39.0223	39.3094	76	44
39.3094	39.7764	76	42
39.5246	39.7764	78	45
39.735	42.043	70	39
39.735	40.4077	79	48
39.9422	40.4077	78	46
40.1495	40.4077	76	45
40.4077	41.0966	91	38
40.6482	41.0966	88	37
40.8947	41.1479	85	36
41.1479	42.043	82	32
41.4281	42.043	79	29
41.7257	42.043	76	26
42.0445	43.6891	48	24
42.0445	43.6891	57	24
42.0445	43.5296	62	24
42.0445	43.6891	66	24
43.5296	44.9611	47	24
43.5296	44.9611	55	24
43.5296	44.9611	62	28
43.5296	44.9611	67	28
44.9611	46.7728	45	28
44.9611	46.7728	54	28
44.9611	46.7728	62	31
44.9611	46.7728	72	31
46.7728	47.3906	47	26
46.7728	47.3906	55	26
46.7728	47.3906	62	33
46.7728	47.3906	71	33
47.3906	48.6443	48	27
47.3906	48.6443	55	27
47.3906	48.6443	64	35
47.3906	48.1654	69	35
48.1654	48.2832	71	28
48.2832	48.4009	69	28
48.4009	48.5211	67	28
48.5211	48.6443	69	28
48.6443	49.8882	49	21
48.6443	49.8882	55	21
48.6443	49.8882	64	33
48.6443	49.8882	71	33
49.5722	49.8882	67	28
49.8882	52.4164	50	23
49.8882	51.3633	55	23
49.8882	52.4164	62	32
49.8882	51.3633	71	32
51.1526	52.4164	54	21
51.1526	52.4164	69	29
52.4164	53.6518	50	31
52.4164	53.6518	59	31
52.4164	53.6518	65	39
52.4164	53.6518	68	39
53.6518	54.9589	48	31
53.6518	54.9589	57	31
53.6518	54.9589	64	40
53.6518	54.9589	69	40
54.9589	56.3668	47	31
54.9589	55.7848	56	31
54.9589	56.3668	65	42
54.9589	56.3668	74	42
55.7848	55.9141	57	28
55.9141	56.0455	56	29
56.0455	56.1893	55	29
56.1893	56.3668	56	29
56.2407	57.6738	64	30
56.3668	57.6738	48	31
56.3668	57.6738	72	39
58.2851	59.7048	50	22
58.2851	59.7048	62	24
58.2851	59.7048	65	24
58.2851	59.7048	71	29
59.8468	60.0243	52	20
59.8468	60.0243	59	22
59.8468	60.0243	64	22
59.8468	60.0243	68	26
60.0243	61.3286	52	20
60.0243	61.3286	59	22
60.0243	61.9808	64	22
60.0243	61.3286	68	26
61.3286	61.9808	45	18
61.3286	61.9808	60	20
61.3286	61.9808	69	24
63.2442	64.6796	48	19
63.2442	64.6796	60	20
63.2442	64.6796	63	20
63.2442	64.6796	69	24
64.8232	65.026	50	17
64.8232	65.026	57	18
64.8232	65.026	62	18
64.8232	65.026	66	22
65.026	66.3822	50	17
65.026	66.3822	57	18
65.026	67.0604	62	18
65.026	66.3822	66	22
66.3822	67.0604	47	16
66.3822	67.0604	55	16
66.3822	67.0604	67	19
68.4166	70.5355	48	16
68.4166	70.5355	55	16
68.4166	70.5355	60	16
68.4166	70.5355	64	20
71.2418	74.1218	38	14
71.2418	74.1218	48	14
71.2418	74.1218	54	14
71.2418	74.1218	57	15
71.2418	74.1218	62	19
74.1218	77.9618	31	12
74.1218	77.9618	47	12
74.1218	77.9618	55	14
74.1218	77.9618	62	19
