OnsetTime	OffsetTime	MidiPitch	Velocity
0.500004	2.34531	42	29
0.500004	2.34531	49	35
0.500004	2.34531	70	44
0.662184	1.2943	58	26
0.822741	1.13873	61	26
0.981555	1.90079	66	29
1.13873	1.44822	61	25
1.2943	1.6006	58	22
1.44822	1.75147	61	30
1.6006	2.19716	58	25
1.75147	2.04901	61	25
1.90079	2.78647	66	29
2.04901	2.63942	61	26
2.19716	2.49236	58	23
2.34531	3.22874	42	29
2.34531	3.22874	49	35
2.34531	3.22874	70	41
2.49236	3.08167	58	27
2.63942	2.93407	61	29
2.78647	3.67605	66	31
2.93407	3.52477	61	26
3.08167	3.37607	58	29
3.22874	4.16927	42	29
3.22874	4.16927	49	35
3.22874	4.16417	70	44
3.37607	4.00124	58	28
3.52477	3.83865	61	30
3.67605	4.16927	66	35
3.83865	4.16927	61	31
4.00124	4.16927	58	33
4.16417	7.84421	39	29
4.16417	7.84421	51	35
4.16417	7.84421	70	49
4.32603	4.95828	58	27
4.48627	4.8024	63	27
4.64508	5.5681	66	34
4.8024	5.1128	63	29
4.95828	5.26592	58	26
5.1128	5.41765	63	37
5.26592	5.86667	58	29
5.41765	5.71741	63	29
5.5681	6.01592	66	36
5.71741	6.45707	63	29
5.86667	6.31002	58	25
6.01592	7.84421	66	49
6.16297	6.75118	54	30
6.31002	6.60413	58	30
6.45707	7.35642	63	36
6.60413	6.89865	58	30
6.75118	7.04967	54	30
6.89865	7.20227	58	37
7.04967	7.68161	54	30
7.20227	7.51901	58	30
7.35642	7.84421	63	35
7.51901	7.84421	58	30
7.68161	7.84421	54	27
7.84421	9.6581	35	29
7.84421	9.6581	47	35
7.84421	9.6581	68	49
8.00171	8.61546	56	29
8.15719	8.46401	59	29
8.31126	9.20804	63	37
8.46401	8.76549	59	29
8.61546	8.91426	56	29
8.76549	9.0618	59	37
8.91426	9.49896	56	29
9.0618	9.3535	59	29
9.20804	9.6581	63	36
9.3535	9.6581	59	29
9.49896	9.6581	56	29
9.64441	11.4578	37	29
9.64441	10.9859	49	35
9.64441	11.4528	66	46
9.7904	10.2304	56	29
9.93638	10.3795	59	29
10.0824	11.4578	65	45
10.2304	10.6817	56	28
10.3795	10.8338	59	28
10.5296	11.4578	63	44
10.6817	11.2972	56	29
10.8338	11.4578	59	30
10.9859	11.4578	47	20
10.9859	11.4528	49	26
10.9859	11.4578	61	40
11.1415	11.4578	53	29
11.2972	11.4578	56	30
11.4528	12.4037	46	29
11.4528	12.4037	49	35
11.4528	12.4037	66	49
11.6138	12.2426	54	32
11.7732	12.0877	58	33
11.9313	12.4037	61	35
12.0877	12.4037	58	36
12.2426	12.4037	54	38
12.396	13.3015	42	29
12.396	13.3015	51	35
12.396	13.3015	70	48
12.548	13.1441	60	38
12.6986	12.996	63	36
12.8478	13.3015	66	35
12.996	13.3015	63	33
13.1441	13.3015	60	32
13.1812	15.1196	37	29
13.2923	15.1196	53	35
13.2923	14.6461	68	41
13.4388	14.0227	56	27
13.5848	13.8767	61	27
13.7307	14.6318	65	30
13.8767	14.1702	61	27
14.0227	14.3217	56	27
14.1702	14.4756	61	30
14.3217	14.6461	56	27
14.4756	14.6461	61	27
14.6318	15.1196	65	31
14.6318	15.1196	69	39
14.7944	15.1196	61	24
14.957	15.1196	57	24
15.1196	16.96	42	29
15.1196	16.96	49	35
15.1196	16.96	70	44
15.2818	15.9139	58	26
15.4424	15.7584	61	26
15.6012	16.5204	66	29
15.7584	16.0678	61	25
15.9139	16.2202	58	25
16.0678	16.3711	61	30
16.2202	16.8134	58	25
16.3711	16.6669	61	21
16.5204	17.3979	66	29
16.6669	17.2519	61	26
16.8134	17.1059	58	24
16.96	17.8298	42	29
16.96	17.8298	49	35
16.96	17.8298	70	41
17.1059	17.6857	58	27
17.2519	17.5423	61	29
17.3979	18.2878	66	31
17.5423	18.1331	61	26
17.6857	17.9805	58	29
17.8298	18.7811	42	29
17.8298	18.7811	49	35
17.8298	18.776	70	44
17.9805	18.613	58	28
18.1331	18.4504	61	30
18.2878	18.7811	66	35
18.4504	18.7811	61	31
18.613	18.7811	58	33
18.776	20.624	39	29
18.776	20.624	51	35
18.776	21.5161	70	49
18.9378	19.5701	58	27
19.0981	19.4142	63	27
19.2569	20.1799	66	34
19.4142	19.7246	63	29
19.5701	19.8777	58	29
19.7246	20.0294	63	37
19.8777	20.4764	58	29
20.0294	20.3288	63	29
20.1799	20.624	66	36
20.3288	21.0652	63	29
20.4764	20.9181	58	29
20.624	21.5161	39	29
20.624	21.5161	51	35
20.624	21.5161	66	49
20.7711	21.3593	54	30
20.9181	21.2122	58	30
21.0652	21.5161	63	36
21.2122	21.5161	58	30
21.3593	21.5161	54	30
21.5067	22.4296	34	29
21.5067	22.4296	46	35
21.5067	22.4296	65	49
21.6578	22.2746	53	30
21.8104	22.1195	56	30
21.9645	22.4296	62	35
22.1195	22.4296	56	30
22.2746	22.4296	53	30
22.4296	23.363	35	29
22.4296	23.363	47	35
22.4296	23.363	63	49
22.5871	23.2009	51	35
22.7426	23.0494	54	38
22.8967	23.363	59	43
23.0494	23.363	54	45
23.2009	23.363	51	49
23.3509	24.2435	32	29
23.3509	24.2435	44	35
23.3509	24.2435	68	58
23.4997	24.0844	56	41
23.6472	23.9389	59	41
23.7935	24.2435	63	47
23.9389	24.2435	59	33
24.0844	24.2435	56	33
24.2298	26.0434	37	29
24.2298	26.0383	49	35
24.2298	26.0434	66	46
24.3758	24.8158	59	29
24.5218	24.9649	56	29
24.6678	25.5713	65	45
24.8158	25.2671	59	28
24.9649	25.4192	56	28
25.115	26.0434	63	44
25.2671	25.727	59	29
25.4192	25.8826	56	30
25.5713	26.0434	65	40
25.727	26.0434	59	29
25.8826	26.0434	56	30
26.0383	29.6648	42	29
26.0383	29.6648	49	35
26.0383	27.8484	68	49
26.1999	26.8011	59	27
26.3561	26.654	61	27
26.507	27.3953	65	34
26.654	26.9481	61	29
26.8011	27.0968	59	29
26.9481	27.2455	61	37
27.0968	27.6894	59	29
27.2455	27.5423	61	29
27.3953	27.8484	65	36
27.5423	27.8484	61	29
27.6894	27.8484	59	29
27.8365	29.6648	66	49
27.9835	28.5717	54	30
28.1306	28.4247	58	24
28.2776	29.177	61	36
28.4247	28.7192	58	30
28.5717	28.8702	54	24
28.7192	29.0228	58	37
28.8702	29.5022	54	30
29.0228	29.3396	58	26
29.177	29.6648	61	35
29.3396	29.6648	58	30
29.5022	29.6648	54	26
29.6648	31.4908	49	29
29.6648	31.4908	53	35
29.6648	31.4908	68	44
29.8243	30.4452	56	26
29.9821	30.2925	61	26
30.1381	31.0401	65	29
30.2925	30.5962	61	25
30.4452	30.7457	56	25
30.5962	30.8936	61	30
30.7457	31.332	56	26
30.8936	31.1861	61	26
31.0401	31.4908	65	30
31.1861	31.4908	61	27
31.332	31.4908	56	27
31.478	33.2313	46	34
31.478	33.2265	51	34
31.478	33.2313	55	40
31.478	33.2313	70	43
31.6235	32.1981	61	29
31.7689	32.0562	63	31
31.9144	32.7806	67	39
32.0562	32.3413	63	31
32.1981	32.4878	61	44
32.3413	32.6343	63	47
32.4878	33.0756	61	51
32.6343	32.9275	63	54
32.7806	33.2313	67	55
32.9275	33.2313	63	62
33.0756	33.2313	61	67
33.2265	35.009	44	41
33.2265	35.009	51	41
33.2265	35.009	56	50
33.2265	35.0154	73	74
33.3798	33.9838	61	51
33.5313	33.834	63	51
33.683	34.5726	68	66
33.834	34.1325	63	49
33.9838	34.2803	61	49
34.1325	34.427	63	55
34.2803	35.0154	61	37
34.427	34.7181	63	33
34.5726	35.0154	68	37
34.5726	35.009	71	50
34.7181	35.0154	63	33
34.8635	35.0154	59	33
35.009	36.8373	44	29
35.009	36.8373	51	29
35.009	36.8373	56	35
35.009	36.8373	71	41
35.156	35.7443	59	28
35.3031	35.5972	63	28
35.4502	36.3495	68	30
35.5972	35.8917	63	25
35.7443	36.0428	59	25
35.8917	36.1954	63	31
36.0428	36.6747	59	25
36.1954	36.5121	63	25
36.3495	36.8373	68	29
36.5121	36.8373	63	25
36.6747	36.8373	59	25
36.8373	38.643	52	33
36.8373	38.643	56	40
36.8373	38.6307	71	54
36.9968	37.6163	59	33
37.1546	37.4648	64	33
37.3107	38.199	68	37
37.4648	37.7652	64	32
37.6163	37.9116	59	32
37.7652	38.0556	64	39
37.9116	38.4868	59	33
38.0556	38.3429	64	33
38.199	38.643	68	39
38.3429	38.643	64	35
38.4868	38.643	59	36
38.6307	39.4997	51	39
38.6307	39.4887	54	46
38.6307	39.4997	71	49
38.7716	39.3431	59	37
38.9124	39.1982	63	40
39.0532	39.4997	66	44
39.1982	39.4997	63	37
39.3431	39.4997	59	39
39.4887	40.3787	49	39
39.4887	40.3739	54	39
39.4887	40.3787	58	46
39.4887	40.3787	73	55
39.6352	40.223	64	49
39.7817	40.0749	66	51
39.928	40.3787	70	60
40.0749	40.3787	66	64
40.223	40.3787	64	63
40.3739	42.1673	47	47
40.3739	42.1673	54	47
40.3739	42.1673	59	57
40.3739	42.1738	76	69
40.5271	41.1312	64	57
40.6787	40.9814	66	57
40.8304	41.7199	71	63
40.9814	41.2799	66	48
41.1312	41.4277	64	48
41.2799	41.5743	66	54
41.4277	42.1738	64	35
41.5743	41.8688	66	37
41.7199	42.1738	71	42
41.7199	42.1673	75	57
41.8688	42.1738	66	37
42.0181	42.1738	63	37
42.1673	43.988	47	33
42.1673	43.988	54	33
42.1673	43.988	59	40
42.1673	43.988	75	45
42.3144	42.9026	63	31
42.4614	42.7556	66	31
42.6085	43.5005	71	34
42.7556	43.0501	66	28
42.9026	43.1982	63	28
43.0501	43.3481	66	35
43.1982	43.8257	63	28
43.3481	43.6631	66	28
43.5005	43.988	71	34
43.6631	43.988	66	28
43.8257	43.988	63	28
43.988	45.7675	47	29
43.988	45.7813	54	35
43.988	45.7675	75	47
44.144	44.7483	63	32
44.2981	44.6002	66	32
44.4501	45.3312	71	45
44.6002	44.8946	66	32
44.7483	45.0401	63	35
44.8946	45.1855	66	31
45.0401	45.6221	63	31
45.1855	45.4766	66	31
45.3312	45.7813	71	36
45.4766	45.7813	66	30
45.6221	45.7813	63	30
45.7675	47.5309	47	29
45.7675	46.6577	56	35
45.7675	46.6577	75	46
45.9141	46.3536	68	29
46.0606	46.5001	65	29
46.2071	46.6577	71	43
46.3536	46.6577	68	28
46.5001	46.6577	65	28
46.6466	47.5309	53	35
46.6466	47.5309	70	43
46.7937	47.2354	65	28
46.9407	47.383	61	28
47.0878	47.5309	68	39
47.2354	47.5309	65	28
47.383	47.5309	61	28
47.5309	49.3021	46	29
47.5309	49.2884	54	35
47.5309	49.2884	73	47
47.6832	48.278	61	32
47.8339	48.1313	66	32
47.9833	48.852	70	32
48.1313	48.4233	66	32
48.278	48.5656	61	31
48.4233	48.7079	66	41
48.5656	49.143	61	31
48.7079	48.9975	66	27
48.852	49.3021	70	36
48.9975	49.3021	66	30
49.143	49.3021	61	26
49.2884	51.0756	47	29
49.2884	50.1785	54	35
49.2884	50.1785	73	46
49.4349	49.8745	66	29
49.5814	50.021	63	29
49.728	50.1785	71	43
49.8745	50.1785	66	28
50.021	50.1785	63	28
50.1675	50.9199	56	35
50.1675	51.0756	68	43
50.3146	50.6087	63	28
50.4616	50.7643	59	28
50.6087	51.0756	63	39
50.7643	51.0756	59	28
50.9199	51.0756	56	28
51.0756	52.8382	49	35
51.0756	52.8382	66	47
51.2278	51.8226	54	29
51.3786	51.676	58	29
51.528	52.4019	61	39
51.676	51.9679	58	29
51.8226	52.1123	54	29
51.9679	52.2567	58	36
52.1123	52.6928	54	30
52.2567	52.5473	58	30
52.4019	52.852	61	36
52.5473	52.852	58	30
52.6928	52.852	54	30
52.7292	52.852	37	35
52.8382	54.6254	49	35
52.8382	53.7284	66	45
52.9848	53.4243	59	29
53.1313	53.5708	56	29
53.2778	53.7284	65	41
53.4243	53.7284	59	28
53.5708	53.7284	56	28
53.7173	54.6254	54	35
53.7173	54.6254	70	42
53.8644	54.3141	61	28
54.0114	54.4698	59	28
54.1585	54.6254	53	35
54.1585	54.6254	68	39
54.3141	54.6254	61	26
54.4698	54.6254	59	26
54.6254	56.3881	42	30
54.6254	56.3881	49	35
54.6254	56.3881	66	47
54.7777	55.3725	54	29
54.9284	55.2258	58	29
55.0778	55.9517	61	29
55.2258	55.5178	58	29
55.3725	55.6622	54	26
55.5178	55.8066	58	36
55.6622	56.2426	54	30
55.8066	56.0972	58	30
55.9517	56.3881	61	36
56.0972	56.3881	58	30
56.2426	56.3881	54	30
56.3881	57.2804	46	30
56.3881	57.2804	49	35
56.3881	57.2931	66	47
56.5403	57.1351	54	29
56.6911	56.9885	58	29
56.8405	57.2931	61	36
56.9885	57.2931	58	29
57.1351	57.2931	54	31
57.2804	58.1707	46	30
57.2804	58.1707	49	35
57.2804	58.1707	67	47
57.4248	58.0186	55	30
57.5692	57.8665	58	30
57.7144	58.1707	61	36
57.8665	58.1707	58	30
58.0186	58.1707	55	30
58.1707	59.9782	49	29
58.1707	59.9782	53	35
58.1707	59.9782	68	44
58.3302	58.9508	56	26
58.488	58.7986	61	26
58.644	59.5359	65	29
58.7986	59.1004	61	25
58.9508	59.2477	56	25
59.1004	59.3925	61	30
59.2477	59.8226	56	26
59.3925	59.6793	61	26
59.5359	59.9782	65	30
59.6793	59.9782	61	27
59.8226	59.9782	56	27
59.966	61.711	46	34
59.966	60.8338	52	34
59.966	61.7062	55	40
59.966	61.711	70	43
60.1058	60.6754	61	29
60.2457	60.5305	64	31
60.3856	60.8338	67	42
60.5305	60.8338	64	38
60.6754	60.8338	61	43
60.821	61.1141	63	48
60.8256	61.7062	51	55
60.9675	61.5554	61	52
61.1141	61.4072	63	57
61.2603	61.711	67	62
61.4072	61.711	63	58
61.5554	61.711	61	60
61.7062	63.4887	44	41
61.7062	63.4887	51	41
61.7062	63.4951	55	50
61.7062	63.4951	73	78
61.8595	62.4635	61	59
62.011	62.3137	63	57
62.1628	63.4951	70	68
62.3137	62.6123	63	42
62.4635	62.76	61	47
62.6123	62.9067	63	56
62.76	63.4951	61	35
62.9067	63.1978	63	36
63.0523	63.4887	56	44
63.0523	63.4951	68	37
63.0523	63.4887	71	50
63.1978	63.4951	63	33
63.3432	63.4951	59	33
63.4887	65.317	44	29
63.4887	65.317	51	29
63.4887	65.317	56	35
63.4887	65.317	71	41
63.6358	64.224	59	28
63.7828	64.0769	63	28
63.9299	64.8292	68	30
64.0769	64.3714	63	25
64.224	64.5225	59	25
64.3714	64.6751	63	31
64.5225	65.1544	59	25
64.6751	64.9918	63	25
64.8292	65.317	68	29
64.9918	65.317	63	25
65.0731	65.317	42	60
65.1544	65.317	59	25
65.317	67.1227	40	68
65.317	67.1104	71	54
65.4765	66.096	59	33
65.6343	65.9446	64	33
65.7904	66.6788	68	37
65.9446	66.2449	64	32
66.096	66.3913	59	32
66.2449	66.5353	64	39
66.3913	66.9665	59	33
66.5353	66.8226	64	33
66.6788	67.1227	68	43
66.8226	67.1227	64	36
66.9665	67.1227	59	37
67.1104	67.9779	39	55
67.1104	67.9779	71	58
67.2508	67.8213	59	39
67.3911	67.6764	63	40
67.5315	67.9779	66	49
67.6764	67.9779	63	43
67.8213	67.9779	59	45
67.9669	68.1867	37	56
67.9669	68.8569	73	54
68.0768	68.2966	39	39
68.1134	68.7012	64	46
68.1867	68.4062	37	42
68.2599	68.5531	66	49
68.2966	68.8569	39	44
68.4062	68.7012	37	55
68.4062	68.8569	70	62
68.5531	68.8521	35	46
68.5531	68.8569	66	59
68.7012	68.8569	37	56
68.7012	68.8569	64	67
68.8521	72.4624	35	67
68.8521	70.652	76	77
69.0053	69.6094	64	53
69.1569	69.4596	66	52
69.3086	70.652	73	63
69.4596	69.7581	66	46
69.6094	69.9059	64	46
69.7581	70.0525	66	54
69.9059	70.652	64	40
70.0525	70.347	66	40
70.1981	70.652	71	51
70.1981	70.6455	75	51
70.347	70.652	66	37
70.4963	70.652	63	37
70.6455	72.4624	75	55
70.7926	71.3808	63	35
70.9396	71.2338	66	35
71.0867	71.975	71	45
71.2338	71.5283	66	30
71.3808	71.6758	63	32
71.5283	71.8244	66	42
71.6758	72.3002	63	31
71.8244	72.1376	66	31
71.975	72.4624	71	41
72.1376	72.4624	66	31
72.3002	72.4624	63	31
72.4624	74.242	47	29
72.4624	74.2557	54	35
72.4624	74.242	75	47
72.6185	73.2228	63	32
72.7725	73.0746	66	32
72.9246	73.8056	71	37
73.0746	73.3691	66	32
73.2228	73.5145	63	33
73.3691	73.66	66	35
73.5145	74.0966	63	31
73.66	73.9511	66	31
73.8056	74.2557	71	36
73.9511	74.2557	66	30
74.0966	74.2557	63	30
74.242	76.0054	47	29
74.242	75.1321	56	35
74.242	75.1321	75	50
74.3885	74.8281	68	29
74.535	74.9746	65	29
74.6816	75.1321	74	48
74.8281	75.1321	68	28
74.9746	75.1321	65	28
75.1211	76.0054	53	35
75.1211	76.0054	71	42
75.2682	75.7099	65	28
75.4152	76.0054	62	28
75.5623	76.0054	68	39
75.7099	76.0054	65	28
75.8575	76.0054	61	28
76.0054	77.7818	46	29
76.0054	77.7818	54	35
76.0054	77.768	73	47
76.1576	76.7524	61	32
76.3084	76.6058	66	32
76.4578	77.3317	70	36
76.6058	76.8977	66	32
76.7524	77.0421	61	32
76.8977	77.1865	66	36
77.0421	77.6226	61	31
77.1865	77.4771	66	31
77.3317	77.7818	70	36
77.4771	77.7818	66	30
77.6226	77.7818	61	30
77.768	79.5552	47	29
77.768	78.6582	55	35
77.768	78.6582	73	46
77.9146	78.6582	67	29
78.0611	78.5006	63	29
78.2076	78.6582	56	35
78.2076	78.6582	71	43
78.3541	78.6471	68	28
78.5006	78.6582	63	28
78.6471	79.5552	51	35
78.6471	79.5552	68	43
78.7942	79.0883	63	28
78.9412	79.5552	59	28
79.0883	79.5552	48	29
79.0883	79.5552	63	39
79.2439	79.5552	60	28
79.3996	79.5552	56	28
79.5552	81.3179	49	35
79.5552	81.3179	66	47
79.7075	80.3023	54	29
79.8583	80.1556	58	29
80.0077	80.8815	61	34
80.1556	80.4476	58	29
80.3023	80.592	54	30
80.4476	80.7364	58	34
80.592	81.1724	54	30
80.7364	81.027	58	30
80.8815	81.3316	61	36
81.027	81.3316	58	30
81.1724	81.3316	54	30
81.2088	81.3316	37	35
81.3179	83.1051	49	35
81.3179	82.208	66	45
81.4644	81.9039	59	29
81.6109	82.0505	56	29
81.7574	82.208	65	41
81.9039	82.208	59	28
82.0505	82.208	56	28
82.197	83.1051	54	35
82.197	83.1051	70	42
82.344	82.7938	61	28
82.4911	82.9494	59	28
82.6381	83.1051	53	35
82.6381	83.1051	68	39
82.7938	83.1051	61	26
82.9494	83.1051	59	26
83.1051	85.7727	42	30
83.1051	85.7727	49	35
83.1051	86.6503	66	47
83.2573	83.8521	54	29
83.4081	83.7055	58	29
83.5575	84.4314	61	33
83.7055	83.9974	58	29
83.8521	84.1418	54	29
83.9974	84.2862	58	32
84.1418	84.7223	54	30
84.2862	84.5768	58	30
84.4314	85.3201	61	36
84.5768	84.8677	58	30
84.7223	85.02	54	30
84.8677	85.1707	58	37
85.02	85.6148	54	29
85.1707	85.4681	58	29
85.3201	85.7727	61	32
85.4681	85.7601	58	29
85.6148	85.7727	54	45
85.7601	86.6503	41	55
85.7601	86.6503	50	55
85.7601	86.0489	58	48
85.9045	86.4982	54	51
86.0489	86.3461	58	53
86.194	86.6503	62	56
86.3461	86.6503	58	59
86.4982	86.6503	54	61
86.6503	87.9766	39	58
86.6503	88.4235	51	58
86.6503	88.413	70	76
86.8025	87.3973	58	50
86.9533	87.2507	63	50
87.1027	87.9766	66	63
87.2507	87.5426	63	49
87.3973	87.687	58	48
87.5426	87.8315	63	61
87.687	88.2675	58	48
87.8315	88.122	63	48
87.9766	88.4235	39	57
87.9766	88.4235	66	55
88.122	88.4235	41	61
88.122	88.4235	63	47
88.2675	88.413	42	65
88.2675	88.4235	58	47
88.413	89.7392	42	69
88.413	90.1955	70	73
88.5652	89.16	58	44
88.716	89.0133	63	44
88.8654	89.7392	66	53
89.0133	89.3053	63	43
89.16	89.4497	58	43
89.3053	89.5941	63	55
89.4497	90.0434	58	44
89.5941	89.8913	63	45
89.7392	90.1955	42	60
89.7392	90.1955	66	51
89.8913	90.1955	44	63
89.8913	90.1955	63	46
90.0434	90.1955	46	67
90.0434	90.1955	58	46
90.1955	93.8096	46	77
90.1955	91.1054	70	68
90.3476	91.1054	62	54
90.4997	90.8	65	54
90.6518	91.1054	59	56
90.6518	91.1054	77	65
90.8	91.1054	65	44
90.9481	91.1054	68	44
91.0963	92.0061	56	54
91.0963	92.0061	74	61
91.2423	91.6881	65	41
91.3882	91.8419	68	41
91.5342	92.0061	53	49
91.5342	91.9958	71	52
91.6881	92.0061	65	35
91.8419	92.0061	68	35
91.9958	93.6886	50	49
91.9958	92.9162	71	53
92.1456	92.5985	65	38
92.2954	92.7517	68	38
92.4452	92.905	70	50
92.5985	92.9162	65	35
92.7517	92.9162	68	35
92.905	93.8096	70	49
93.0543	93.502	58	37
93.2035	93.6513	65	38
93.3528	93.8005	68	47
93.502	93.8096	58	32
93.5766	93.8096	48	35
93.6513	93.8096	65	31
93.6886	93.8096	50	35
93.8005	94.6959	51	44
93.8005	94.6959	68	44
93.9455	94.384	58	33
94.0904	94.5327	63	35
94.2353	94.6959	66	44
94.384	94.6959	58	32
94.5327	94.6959	63	32
94.6814	95.5724	44	44
94.6814	95.5724	65	40
94.8264	95.2644	56	31
94.9713	95.4125	59	31
95.1162	95.5724	68	44
95.2644	95.5724	56	30
95.4125	95.5724	59	30
95.5607	97.3225	46	42
95.5607	96.4428	63	42
95.7051	96.2859	51	32
95.8495	96.1399	54	32
95.9939	96.4428	58	39
96.1399	96.4428	54	32
96.2859	96.4428	51	32
96.4318	97.3225	62	42
96.5783	97.3225	50	33
96.7249	97.0218	53	33
96.8714	97.3225	44	59
96.8714	97.3225	58	43
97.0218	97.3225	42	62
97.0218	97.3225	53	48
97.1721	97.3225	41	66
97.1721	97.3225	70	54
97.3225	98.6488	39	69
97.3225	99.0957	51	69
97.3225	99.0852	70	66
97.4747	98.0695	58	48
97.6255	97.9229	63	48
97.7749	98.6488	66	56
97.9229	98.2148	63	48
98.0695	98.3592	58	48
98.2148	98.5037	63	56
98.3592	98.9397	58	48
98.5037	98.7942	63	48
98.6488	99.0957	39	61
98.6488	99.0957	66	48
98.7942	99.0957	41	64
98.7942	99.0957	63	48
98.9397	99.0852	42	67
98.9397	99.0957	58	44
99.0852	100.411	42	70
99.0852	100.868	70	62
99.2374	99.8322	58	41
99.3882	99.6855	63	44
99.5376	100.411	66	49
99.6855	99.9775	63	45
99.8322	100.122	58	44
99.9775	100.266	63	51
100.122	100.716	58	47
100.266	100.564	63	44
100.411	100.868	42	58
100.411	100.868	66	47
100.411	100.868	71	60
100.564	100.868	44	61
100.564	100.868	63	42
100.716	100.868	46	64
100.716	100.868	58	42
100.868	104.465	46	74
100.868	101.778	70	55
101.02	101.778	62	46
101.172	101.472	65	46
101.324	101.778	59	56
101.324	101.778	77	59
101.472	101.778	65	44
101.62	101.778	68	44
101.768	102.678	56	54
101.768	102.678	74	53
101.914	102.36	65	41
102.06	102.514	68	41
102.206	102.678	53	49
102.206	102.678	71	47
102.36	102.678	65	35
102.514	102.678	68	35
102.668	103.56	50	49
102.668	103.56	70	53
102.818	103.265	65	38
102.968	103.413	68	38
103.117	103.571	71	50
103.265	103.571	65	35
103.413	103.571	68	35
103.56	103.759	50	35
103.56	104.465	70	49
103.66	103.859	51	30
103.709	104.157	58	37
103.759	103.959	50	35
103.859	104.058	51	30
103.859	104.307	65	38
103.959	104.158	50	35
104.008	104.456	68	47
104.058	104.456	51	32
104.157	104.465	58	32
104.158	104.357	50	35
104.257	104.465	48	32
104.307	104.465	65	31
104.357	104.465	50	38
104.456	105.351	51	44
104.456	105.351	68	44
104.601	105.039	58	33
104.746	105.188	63	35
104.891	105.351	66	44
105.039	105.351	58	32
105.188	105.351	63	32
105.337	106.228	44	44
105.337	106.068	65	40
105.482	106.228	56	31
105.627	105.92	59	31
105.771	106.228	71	44
105.92	106.228	59	30
106.068	106.228	65	30
106.216	107.987	46	42
106.216	107.098	63	42
106.36	106.941	51	32
106.505	106.795	54	32
106.649	107.098	58	32
106.795	107.098	54	32
106.941	107.098	51	32
107.087	107.987	62	42
107.234	107.527	50	33
107.38	107.987	53	33
107.38	107.677	58	33
107.527	107.987	38	35
107.527	107.987	50	40
107.527	107.987	70	33
107.677	107.987	58	33
107.827	107.987	65	44
107.978	108.873	39	31
107.978	108.873	51	37
107.978	108.873	68	37
108.123	108.561	58	28
108.268	108.71	63	29
108.413	108.873	66	37
108.561	108.873	58	27
108.71	108.873	63	27
108.859	109.75	32	31
108.859	109.75	44	37
108.859	109.59	64	34
109.004	109.75	56	26
109.149	109.442	59	26
109.293	109.75	71	37
109.442	109.75	59	25
109.59	109.75	64	25
109.738	110.62	30	29
109.738	110.62	42	35
109.738	110.62	63	35
109.882	110.463	51	27
110.027	110.317	54	27
110.171	110.62	59	27
110.317	110.62	54	27
110.463	110.62	51	27
110.609	111.532	40	35
110.609	111.532	61	35
110.756	111.349	49	28
110.902	111.199	54	28
111.049	111.532	58	28
111.199	111.532	54	28
111.349	111.532	49	31
111.5	113.275	39	35
111.5	113.262	66	39
111.65	112.24	54	24
111.8	112.095	59	24
111.948	112.82	63	24
112.095	112.385	59	24
112.24	112.53	54	24
112.385	112.675	59	27
112.53	113.115	54	24
112.675	112.967	59	22
112.82	113.275	63	25
112.967	113.275	59	23
113.115	113.275	54	22
113.262	115.045	37	32
113.262	114.567	66	35
113.407	113.988	54	25
113.551	113.842	58	26
113.696	114.422	64	28
113.842	114.278	58	25
113.988	115.045	54	25
114.133	115.045	68	34
114.278	114.867	58	27
114.422	114.717	64	27
114.567	115.045	66	33
114.717	115.045	64	27
114.867	115.045	58	27
115.043	116.832	35	37
115.043	116.832	75	41
115.195	115.79	63	25
115.346	115.643	66	25
115.495	116.832	71	31
115.643	115.935	66	25
115.79	116.079	63	25
115.935	116.229	66	28
116.079	116.673	63	25
116.229	116.832	66	28
116.383	116.818	73	31
116.528	116.832	67	23
116.673	116.832	63	23
116.818	118.605	40	33
116.818	118.605	73	37
116.964	117.404	68	25
117.111	117.55	59	23
117.257	118.605	71	36
117.404	117.697	68	22
117.55	117.991	59	22
117.697	118.605	68	35
117.844	118.138	64	23
117.991	118.605	59	23
118.138	118.605	64	31
118.294	118.605	61	22
118.449	118.605	56	22
118.605	120.368	42	37
118.605	119.931	63	38
118.757	119.352	51	26
118.908	119.205	54	26
119.057	119.931	59	28
119.205	119.497	54	26
119.352	119.642	51	26
119.497	119.786	54	27
119.642	120.222	51	26
119.786	120.077	54	28
119.931	120.376	59	28
119.931	120.376	63	35
120.077	120.376	54	28
120.222	120.376	51	28
120.368	122.155	42	33
120.368	122.155	49	33
120.368	122.155	68	38
120.514	120.954	58	28
120.661	121.1	61	28
120.807	122.155	66	36
120.954	121.541	58	27
121.1	121.688	61	28
121.247	122.155	64	35
121.394	121.844	54	27
121.541	121.999	58	27
121.688	122.155	52	33
121.688	122.155	61	34
121.844	122.155	54	26
121.999	122.155	58	26
122.155	123.917	35	29
122.155	123.917	59	30
122.307	122.902	47	20
122.458	122.755	51	20
122.607	123.481	54	22
122.755	123.047	51	20
122.902	123.192	47	20
123.047	123.336	51	21
123.192	123.772	47	20
123.336	123.627	51	22
123.481	123.917	54	22
123.627	123.917	51	22
123.772	123.917	47	22
123.917	125.244	31	29
123.917	125.68	59	30
124.07	124.665	47	20
124.22	124.518	52	20
124.37	125.244	55	22
124.518	124.81	52	20
124.665	124.954	47	20
124.81	125.099	52	21
124.954	125.535	47	20
125.099	125.389	52	22
125.244	125.68	31	29
125.244	125.68	55	22
125.389	125.68	33	29
125.389	125.68	52	22
125.535	125.68	35	29
125.535	125.68	47	22
125.68	127.443	35	29
125.68	127.443	59	30
125.832	126.427	47	20
125.983	126.281	51	20
126.133	127.006	54	22
126.281	126.572	51	20
126.427	126.717	47	20
126.572	126.861	51	25
126.717	127.297	47	34
126.861	127.152	51	38
127.006	127.443	37	49
127.006	127.443	54	42
127.116	127.443	39	51
127.152	127.443	51	46
127.225	127.443	40	54
127.297	127.443	47	50
127.334	127.443	42	58
127.443	128.345	43	61
127.443	128.345	59	54
127.595	128.19	47	51
127.746	128.043	50	47
127.895	128.345	53	42
128.043	128.345	50	38
128.19	128.345	47	34
128.335	129.205	42	38
128.335	129.205	58	39
128.479	129.06	49	20
128.624	128.914	52	22
128.769	129.205	54	22
128.914	129.205	52	22
129.06	129.205	49	22
129.205	130.978	35	29
129.205	130.968	59	30
129.358	129.952	47	20
129.508	129.806	51	20
129.658	130.532	54	22
129.806	130.098	51	20
129.952	130.242	47	20
130.098	130.387	51	21
130.242	130.823	47	20
130.387	130.677	51	22
130.532	130.978	54	22
130.677	130.978	51	22
130.823	130.978	47	22
130.968	132.294	32	29
130.968	132.731	59	30
131.12	131.715	47	20
131.271	131.568	52	20
131.42	132.294	56	22
131.568	131.86	52	20
131.715	132.005	47	20
131.86	132.149	52	21
132.005	132.585	47	20
132.149	132.44	52	22
132.294	132.731	32	29
132.294	132.731	56	22
132.44	132.731	34	29
132.44	132.731	52	22
132.585	132.731	35	29
132.585	132.731	47	22
132.731	134.493	35	29
132.731	134.493	59	30
132.883	133.478	47	20
133.034	133.331	51	20
133.183	134.057	54	22
133.331	133.623	51	20
133.478	133.767	47	20
133.623	133.912	51	25
133.767	134.348	47	33
133.912	134.202	51	36
134.057	134.493	37	50
134.057	134.493	54	39
134.166	134.493	39	53
134.202	134.493	51	42
134.275	134.493	40	57
134.348	134.493	47	45
134.384	134.493	42	61
134.493	135.396	44	65
134.493	135.396	59	48
134.646	135.24	47	45
134.796	135.094	50	42
134.946	135.396	53	40
135.094	135.396	50	37
135.24	135.396	47	35
135.386	136.256	42	38
135.386	136.256	58	39
135.53	136.111	49	20
135.674	135.965	52	22
135.82	136.256	54	22
135.965	136.256	52	22
136.111	136.256	49	22
136.256	139.744	35	29
136.256	138.019	59	30
136.408	137.003	47	20
136.559	136.856	51	20
136.708	137.582	54	22
136.856	137.148	51	20
137.003	137.293	47	20
137.148	137.437	51	25
137.293	137.873	47	28
137.437	137.728	51	31
137.582	138.306	54	34
137.728	138.163	51	37
137.873	139.744	47	40
138.019	138.735	59	49
138.163	139.744	51	41
138.306	138.593	54	41
138.45	139.159	63	54
138.593	139.744	54	46
138.735	139.018	59	42
138.877	139.596	66	62
139.018	139.744	59	49
139.159	139.448	63	53
139.3	139.744	71	67
139.448	139.744	63	55
139.596	139.744	66	58
139.744	141.071	44	74
139.744	141.528	71	77
139.897	140.491	59	60
140.047	140.345	62	60
140.197	141.071	65	68
140.345	140.637	62	49
140.491	140.781	59	57
140.637	140.925	62	65
140.781	141.369	59	54
140.925	141.22	62	54
141.071	141.528	44	55
141.071	141.528	65	63
141.22	141.528	46	59
141.22	141.528	62	54
141.369	141.518	47	63
141.369	141.528	59	54
141.518	142.844	47	73
141.518	143.305	70	75
141.67	142.265	56	50
141.821	142.118	62	50
141.97	142.844	65	46
141.97	143.305	68	68
142.118	142.41	62	49
142.265	142.554	56	44
142.41	142.699	62	56
142.554	143.145	56	46
142.699	142.994	62	41
142.844	143.305	47	56
142.844	143.305	65	57
142.994	143.305	49	61
142.994	143.305	62	46
143.145	143.295	50	64
143.145	143.305	56	46
143.295	144.621	50	73
143.295	145.083	66	75
143.447	144.042	56	53
143.598	143.895	58	53
143.747	144.621	59	46
143.747	145.083	65	68
143.895	144.187	58	44
144.042	144.332	56	46
144.187	144.476	58	56
144.332	144.922	56	46
144.476	144.772	58	41
144.621	145.083	50	56
144.621	145.083	59	53
144.772	145.083	51	61
144.772	145.083	58	46
144.922	145.072	53	64
144.922	145.083	56	46
145.072	146.85	53	73
145.072	146.85	63	75
145.225	145.819	56	53
145.375	145.673	58	53
145.525	146.399	59	46
145.525	146.85	62	68
145.673	145.965	58	50
145.819	146.109	56	50
145.965	146.254	58	56
146.109	146.699	56	41
146.254	146.549	58	35
146.399	146.85	41	56
146.399	146.85	59	49
146.549	146.85	58	37
146.699	146.85	56	35
146.85	147.745	42	40
146.85	147.745	65	45
146.996	147.439	54	30
147.143	147.588	58	24
147.289	147.745	63	44
147.439	147.745	54	29
147.588	147.745	58	24
147.737	148.635	38	40
147.737	148.635	66	47
147.884	148.325	56	30
148.03	148.474	59	24
148.177	148.635	65	44
148.325	148.635	56	35
148.474	148.635	59	30
148.623	149.516	39	49
148.623	149.516	68	54
148.768	149.208	58	37
148.914	149.357	63	30
149.059	149.516	66	47
149.208	149.516	58	30
149.357	149.516	63	26
149.505	150.396	32	40
149.505	150.396	65	50
149.653	150.097	56	29
149.801	150.246	59	24
149.948	150.396	68	45
150.097	150.396	56	29
150.246	150.396	59	25
150.396	151.577	34	29
150.396	152.168	63	30
150.548	151.143	51	20
150.699	150.996	54	20
150.848	151.722	58	22
150.996	151.288	54	20
151.143	151.432	51	20
151.288	151.577	54	25
151.432	152.013	33	25
151.432	152.013	51	28
151.577	151.867	34	25
151.577	151.867	54	28
151.722	152.168	35	29
151.722	152.168	58	34
151.867	152.158	34	25
151.867	152.168	54	37
152.013	152.168	33	25
152.013	152.168	51	40
152.158	153.44	34	29
152.158	153.299	62	49
152.302	152.875	50	41
152.446	152.732	53	41
152.59	153.158	58	40
152.732	153.884	53	42
152.875	153.884	50	42
153.017	153.736	65	58
153.158	153.884	58	49
153.299	153.588	62	53
153.44	153.884	34	29
153.44	153.884	46	29
153.44	153.884	70	64
153.588	153.884	62	54
153.736	153.884	65	58
153.884	155.668	32	64
153.884	155.21	44	74
153.884	155.668	71	77
154.036	154.631	59	51
154.187	154.484	62	56
154.336	155.21	65	66
154.484	154.776	62	49
154.631	154.921	59	56
154.776	155.065	62	61
154.921	155.508	59	56
155.065	155.359	62	56
155.21	155.668	44	55
155.21	155.668	65	56
155.359	155.668	46	59
155.359	155.668	62	56
155.508	155.657	47	63
155.508	155.668	59	57
155.657	157.445	35	64
155.657	156.983	47	73
155.657	157.445	70	75
155.809	156.404	56	52
155.96	156.258	62	52
156.11	156.983	65	46
156.11	157.445	68	68
156.258	156.549	62	48
156.404	156.694	56	48
156.549	156.838	62	56
156.694	157.284	56	46
156.838	157.134	62	41
156.983	157.445	47	56
156.983	157.445	65	53
157.134	157.445	49	61
157.134	157.445	62	46
157.284	157.435	50	64
157.284	157.445	56	46
157.435	158.761	50	73
157.435	159.223	66	75
157.441	159.223	38	64
157.587	158.182	56	52
157.738	158.035	58	53
157.887	158.761	59	46
157.887	159.223	65	68
158.035	158.327	58	44
158.182	158.471	56	50
158.327	158.616	58	56
158.471	159.062	56	46
158.616	158.911	58	41
158.761	159.223	50	56
158.761	159.223	59	53
158.911	159.223	51	61
158.911	159.223	58	46
159.062	159.212	53	64
159.062	159.223	56	46
159.212	160.538	41	64
159.212	160.989	53	73
159.212	160.989	63	75
159.364	159.959	56	56
159.515	159.812	58	56
159.664	160.538	59	46
159.664	160.989	62	68
159.812	160.104	58	47
159.959	160.249	56	47
160.104	160.393	58	56
160.249	160.839	56	41
160.393	160.689	58	39
160.538	160.989	41	56
160.538	160.989	59	49
160.689	160.989	58	37
160.839	160.989	56	35
160.989	161.884	42	40
160.989	161.884	65	45
161.136	161.578	54	30
161.283	161.728	58	24
161.429	161.884	63	44
161.578	161.884	54	29
161.728	161.884	58	24
161.877	162.127	38	40
161.877	162.774	66	47
162.002	162.252	39	36
162.023	162.465	56	30
162.127	162.379	38	40
162.17	162.614	59	24
162.252	162.762	39	36
162.316	162.774	65	44
162.379	162.633	38	40
162.465	162.774	56	35
162.506	162.774	36	35
162.614	162.774	59	30
162.633	162.774	38	36
162.762	163.656	39	49
162.762	163.656	68	54
162.908	163.348	58	37
163.053	163.496	63	30
163.199	163.656	66	47
163.348	163.656	58	30
163.496	163.656	63	26
163.645	164.535	32	40
163.645	164.535	64	50
163.793	164.237	56	29
163.94	164.386	59	24
164.075	164.535	71	45
164.237	164.535	56	29
164.386	164.535	59	25
164.535	165.716	34	29
164.535	166.308	63	30
164.688	165.282	51	20
164.838	165.136	54	20
164.988	165.862	58	22
165.136	165.428	54	20
165.282	165.572	51	20
165.428	165.716	54	25
165.572	166.152	33	25
165.572	166.152	51	28
165.716	166.007	34	25
165.716	166.007	54	28
165.862	166.308	35	29
165.862	166.308	58	34
166.007	166.298	34	25
166.007	166.308	54	37
166.152	166.308	33	25
166.152	166.308	51	40
166.298	168.024	34	29
166.298	168.024	62	49
166.442	167.014	50	41
166.586	166.872	53	38
166.73	167.579	58	40
166.872	167.157	53	35
167.014	167.297	50	36
167.157	168.024	32	29
167.157	167.438	53	40
167.297	167.875	50	35
167.438	167.727	53	35
167.579	168.024	58	40
167.727	168.024	53	35
167.875	168.024	50	36
168.024	169.817	31	29
168.024	169.817	43	35
168.024	169.803	70	47
168.18	168.784	58	32
168.334	168.636	63	32
168.486	169.367	67	37
168.636	168.93	63	32
168.784	169.076	58	33
168.93	169.221	63	35
169.076	169.658	58	31
169.221	169.512	63	31
169.367	169.817	67	36
169.512	169.817	63	30
169.658	169.817	58	30
169.803	171.585	41	35
169.803	171.111	70	50
169.947	170.524	58	29
170.09	170.379	62	29
170.233	170.964	68	38
170.379	170.817	62	28
170.524	171.585	58	28
170.67	171.585	72	42
170.817	171.427	62	28
170.964	171.269	68	28
171.111	171.585	70	39
171.269	171.585	68	28
171.427	171.585	62	28
171.585	173.374	39	37
171.585	173.374	79	41
171.737	172.332	67	25
171.888	172.185	70	25
172.037	173.374	75	31
172.185	172.477	70	25
172.332	172.621	67	25
172.477	172.771	70	28
172.621	173.215	67	25
172.771	173.374	70	28
172.925	173.36	77	31
173.07	173.374	71	23
173.215	173.374	67	23
173.36	175.147	44	33
173.36	174.25	77	37
173.506	173.946	72	25
173.653	174.092	63	23
173.799	174.25	75	36
173.946	174.239	72	22
174.092	174.25	63	22
174.239	175.147	72	35
174.386	174.68	68	23
174.533	175.147	63	23
174.68	175.147	68	31
174.836	175.147	65	22
174.991	175.147	60	22
175.147	176.911	46	35
175.147	176.475	67	39
175.301	175.895	55	24
175.451	175.749	58	24
175.601	176.475	63	29
175.749	176.041	58	25
175.895	176.185	55	25
176.041	176.329	58	29
176.185	176.766	55	24
176.329	176.62	58	24
176.475	176.925	63	38
176.475	176.925	67	38
176.62	176.925	58	25
176.766	176.925	55	25
176.911	178.698	46	29
176.911	178.698	53	35
176.911	177.801	72	36
177.058	177.497	62	26
177.204	177.644	65	26
177.351	177.801	70	36
177.497	177.801	62	22
177.644	177.801	65	22
177.79	178.698	68	33
177.937	178.387	58	24
178.084	178.543	62	24
178.231	178.698	56	35
178.231	178.698	65	33
178.387	178.698	58	22
178.543	178.698	62	22
178.698	180.47	39	29
178.698	180.461	63	30
178.85	179.445	51	20
179.001	179.299	55	20
179.151	180.024	58	22
179.299	179.591	55	20
179.445	179.735	51	20
179.591	179.879	55	21
179.735	180.315	51	20
179.879	180.17	55	22
180.024	180.47	58	22
180.17	180.47	55	22
180.315	180.47	51	22
180.461	182.078	37	35
180.461	182.223	63	30
180.613	181.208	51	20
180.764	181.061	55	20
180.913	181.366	58	22
181.061	181.353	55	20
181.208	181.366	51	20
181.353	181.642	55	21
181.498	182.078	51	20
181.642	181.933	55	22
181.787	182.223	40	24
181.787	182.223	58	22
181.933	182.223	39	28
181.933	182.223	55	22
182.078	182.223	37	31
182.078	182.223	51	22
182.223	183.996	35	29
182.223	183.986	63	30
182.376	182.971	51	20
182.527	182.824	56	20
182.676	183.55	59	22
182.824	183.116	56	20
182.971	183.26	51	20
183.116	183.405	56	21
183.26	183.841	51	20
183.405	183.695	56	22
183.55	183.996	59	22
183.695	183.996	56	22
183.841	183.996	51	22
183.986	185.167	34	35
183.986	185.749	63	30
184.138	184.733	51	20
184.289	184.587	55	20
184.439	185.312	61	22
184.587	184.878	55	20
184.733	185.023	51	20
184.878	185.167	55	21
185.023	185.458	35	24
185.023	185.603	51	20
185.167	185.603	34	24
185.167	185.458	55	22
185.312	185.749	37	27
185.312	185.749	61	22
185.458	185.749	35	24
185.458	185.749	55	22
185.603	185.749	34	24
185.603	185.749	51	22
185.749	187.521	32	29
185.749	187.521	63	30
185.901	186.496	51	20
186.052	186.349	56	20
186.201	187.075	59	22
186.349	186.641	56	20
186.496	186.786	51	20
186.641	186.93	56	21
186.786	187.366	51	20
186.93	187.221	56	22
187.075	187.521	59	22
187.221	187.521	56	22
187.366	187.521	51	22
187.511	187.739	30	22
187.511	189.274	68	36
187.626	187.852	32	18
187.664	188.258	56	24
187.739	187.964	30	24
187.814	188.112	59	24
187.852	188.075	32	21
187.964	188.185	30	27
187.964	188.838	62	27
188.075	188.295	32	23
188.112	188.404	59	25
188.185	188.404	30	31
188.258	188.548	56	25
188.295	188.512	32	26
188.404	188.62	30	35
188.404	188.693	59	39
188.512	188.729	32	29
188.548	189.129	56	43
188.62	188.838	30	38
188.693	188.983	59	46
188.729	189.274	32	32
188.838	189.129	30	42
188.838	189.274	62	50
188.983	189.274	29	37
188.983	189.274	59	54
189.129	189.274	30	38
189.129	189.274	56	57
189.274	191.066	29	60
189.274	190.166	41	68
189.274	193.242	71	74
189.426	190.021	59	55
189.577	189.875	61	55
189.727	190.6	68	64
189.875	190.166	61	48
190.021	190.311	59	48
190.166	191.056	41	50
190.166	190.455	61	52
190.311	190.902	59	42
190.383	191.066	44	41
190.455	190.75	61	42
190.6	191.066	47	41
190.6	191.066	68	51
190.75	191.066	61	38
190.824	191.066	49	41
190.902	191.066	59	36
191.056	192.014	41	40
191.056	192.014	50	49
191.056	191.364	62	46
191.209	191.838	59	38
191.364	191.678	62	37
191.52	192.014	68	36
191.678	192.014	62	36
191.838	192.014	59	35
191.999	193.229	49	31
191.999	192.34	61	34
192.168	192.873	59	33
192.34	192.693	61	32
192.515	193.242	68	31
192.693	193.242	61	30
192.873	193.242	59	29
193.229	195.085	42	29
193.229	195.085	49	35
193.229	195.085	70	44
193.404	194.039	58	26
193.571	193.887	61	26
193.732	194.641	66	29
193.887	194.19	61	25
194.039	194.341	58	25
194.19	194.492	61	30
194.341	194.937	58	25
194.492	194.789	61	25
194.641	195.095	66	29
194.789	195.095	61	26
194.937	195.095	58	26
195.085	195.959	42	29
195.085	195.959	49	35
195.085	195.959	70	41
195.23	195.812	58	27
195.375	195.666	61	29
195.52	196.406	66	31
195.666	196.255	61	26
195.812	196.106	58	29
195.959	196.895	42	29
195.959	196.895	49	35
195.959	196.895	70	44
196.106	196.732	58	28
196.255	196.569	61	30
196.406	196.895	66	35
196.569	196.895	61	31
196.732	196.895	58	33
196.895	200.56	39	29
196.895	200.56	51	35
196.895	198.758	70	49
197.056	197.689	58	27
197.217	197.533	63	27
197.375	197.851	66	34
197.533	197.843	63	29
197.689	197.851	58	29
197.843	198.148	63	37
197.996	198.597	58	29
198.148	198.448	63	29
198.299	198.746	66	36
198.448	198.758	63	29
198.597	198.758	58	29
198.746	200.56	66	49
198.893	199.479	54	30
199.039	199.332	58	30
199.186	199.637	63	36
199.332	199.626	58	30
199.479	199.637	54	30
199.626	199.922	58	37
199.773	200.397	54	30
199.922	200.235	58	30
200.072	200.56	63	35
200.235	200.56	58	30
200.397	200.56	54	30
200.56	202.37	68	49
200.564	202.37	35	29
200.567	202.37	47	35
200.718	201.331	56	29
200.873	201.18	59	29
201.027	201.924	63	37
201.18	201.481	59	29
201.331	201.63	56	29
201.481	201.778	59	37
201.63	202.215	56	29
201.778	202.069	59	29
201.924	202.37	63	36
202.069	202.37	59	29
202.215	202.37	56	29
202.36	204.169	37	29
202.36	203.702	49	35
202.36	204.169	66	46
202.506	202.946	56	29
202.652	203.095	59	29
202.798	204.169	65	45
202.946	203.398	56	28
203.095	203.55	59	28
203.245	204.169	63	44
203.398	204.013	56	29
203.55	204.169	59	30
203.702	204.169	47	20
203.702	204.169	49	26
203.702	204.169	61	40
203.857	204.169	53	29
204.013	204.169	56	30
204.169	205.12	46	29
204.169	205.12	49	35
204.169	205.12	66	49
204.33	204.958	54	32
204.489	204.804	58	33
204.647	205.12	61	35
204.804	205.12	58	36
204.958	205.12	54	38
205.112	206.017	42	29
205.112	206.017	51	35
205.112	206.017	70	48
205.264	205.86	60	38
205.414	205.712	63	36
205.564	206.017	66	35
205.712	206.017	63	33
205.86	206.017	60	32
205.897	207.814	37	29
206.008	207.814	53	35
206.008	207.34	68	41
206.155	206.73	56	27
206.301	206.588	61	27
206.447	207.326	65	30
206.588	206.875	61	27
206.73	207.023	56	27
206.875	207.172	61	30
207.023	207.34	56	27
207.172	207.34	61	27
207.326	207.814	65	31
207.326	207.814	69	39
207.489	207.814	61	24
207.651	207.814	57	24
207.814	209.654	42	29
207.814	209.654	49	35
207.814	209.654	70	44
207.976	208.608	58	26
208.137	208.453	61	26
208.295	209.215	66	29
208.453	208.762	61	25
208.608	208.914	58	25
208.762	209.065	61	30
208.914	209.508	58	25
209.065	209.361	61	25
209.215	209.664	66	29
209.361	209.664	61	26
209.508	209.664	58	26
209.654	210.514	42	29
209.654	210.514	49	35
209.654	210.514	70	41
209.797	210.371	58	27
209.94	210.227	61	29
210.083	210.958	66	31
210.227	210.807	61	26
210.371	210.659	58	29
210.514	211.446	42	29
210.514	211.446	49	35
210.514	211.446	70	44
210.659	211.283	58	28
210.807	211.12	61	30
210.958	211.446	66	35
211.12	211.446	61	31
211.283	211.446	58	33
211.446	214.175	39	29
211.446	214.175	51	35
211.446	213.294	70	49
211.608	212.235	58	27
211.768	212.081	63	27
211.927	212.394	66	34
212.081	212.387	63	29
212.235	212.394	58	29
212.387	212.687	63	37
212.537	213.133	58	29
212.687	212.984	63	29
212.835	213.282	66	36
212.984	213.294	63	29
213.133	213.294	58	29
213.282	214.175	66	49
213.429	214.018	54	30
213.576	213.871	58	30
213.724	214.175	63	36
213.871	214.175	58	30
214.018	214.175	54	30
214.165	215.088	34	29
214.165	215.088	46	35
214.165	215.088	65	49
214.316	214.933	53	30
214.469	214.778	56	30
214.623	215.088	62	35
214.778	215.088	56	30
214.933	215.088	53	30
215.088	216.018	63	49
215.092	216.018	35	29
215.095	216.018	47	35
215.246	215.857	51	35
215.401	215.707	54	40
215.555	216.018	59	45
215.707	216.018	54	50
215.857	216.018	51	56
216.006	216.877	32	33
216.006	216.877	44	40
216.006	216.877	68	65
216.153	216.726	56	48
216.298	216.584	59	45
216.443	216.877	63	55
216.584	216.877	59	33
216.726	216.877	56	36
216.867	218.66	37	29
216.867	218.66	49	35
216.867	218.66	66	46
217.012	217.444	56	29
217.155	217.589	59	29
217.298	218.193	65	45
217.444	217.888	56	28
217.589	218.041	59	28
217.736	218.66	63	44
217.888	218.348	56	29
218.041	218.504	59	30
218.193	218.66	65	40
218.348	218.66	56	29
218.504	218.66	59	30
218.66	222.286	42	29
218.66	222.286	49	35
218.66	220.47	68	49
218.821	219.422	59	27
218.977	219.275	61	27
219.128	220.017	65	34
219.275	219.569	61	29
219.422	219.718	59	29
219.569	219.867	61	37
219.718	220.311	59	29
219.867	220.164	61	29
220.017	220.47	65	36
220.164	220.47	61	29
220.311	220.47	59	29
220.458	222.286	66	49
220.605	221.193	54	30
220.752	221.046	58	30
220.899	221.798	61	36
221.046	221.341	58	30
221.193	221.492	54	30
221.341	221.644	58	37
221.492	222.123	54	30
221.644	221.961	58	30
221.798	222.286	61	35
221.961	222.286	58	30
222.123	222.286	54	30
222.286	224.112	49	29
222.286	224.112	53	35
222.286	224.112	68	44
222.446	223.067	56	26
222.603	222.914	61	26
222.759	223.661	65	29
222.914	223.218	61	25
223.067	223.367	56	25
223.218	223.515	61	30
223.367	223.953	56	26
223.515	223.807	61	26
223.661	224.112	65	30
223.807	224.112	61	27
223.953	224.112	56	27
224.099	225.848	46	34
224.099	224.974	52	34
224.099	225.848	55	40
224.099	225.848	70	43
224.245	224.819	61	29
224.39	224.678	64	31
224.536	224.974	67	39
224.678	224.974	64	31
224.819	224.974	61	38
224.963	225.848	51	41
224.963	225.256	63	42
225.109	225.697	61	45
225.256	225.549	63	49
225.402	225.848	67	55
225.549	225.848	63	53
225.697	225.848	61	59
225.848	227.63	44	41
225.848	227.63	51	41
225.848	227.637	73	70
225.855	227.637	55	50
226.001	226.605	61	48
226.153	226.455	63	49
226.298	227.637	70	58
226.455	226.754	63	39
226.605	226.902	61	42
226.754	227.048	63	53
226.902	227.637	61	40
227.048	227.339	63	33
227.194	227.637	68	37
227.194	227.63	71	50
227.207	227.63	56	44
227.339	227.637	63	33
227.485	227.637	59	33
227.63	229.459	44	29
227.63	229.459	51	29
227.63	229.459	56	35
227.63	229.459	71	41
227.777	228.366	59	28
227.924	228.219	63	28
228.071	228.524	68	30
228.219	228.513	63	25
228.366	228.524	59	25
228.513	228.817	63	31
228.664	229.296	59	25
228.817	229.133	63	25
228.971	229.459	68	29
229.133	229.459	63	25
229.215	229.459	42	43
229.296	229.459	59	25
229.459	231.264	40	68
229.459	231.252	71	54
229.618	230.238	59	33
229.776	230.086	64	33
229.932	230.82	68	37
230.086	230.386	64	32
230.238	230.533	59	32
230.386	230.677	64	39
230.533	231.108	59	33
230.677	230.964	64	33
230.82	231.264	68	39
230.964	231.264	64	35
231.108	231.264	59	36
231.252	232.121	39	55
231.252	232.121	71	49
231.393	231.964	59	37
231.534	231.819	63	40
231.675	232.121	66	44
231.819	232.121	63	38
231.964	232.121	59	40
232.11	232.22	37	56
232.11	233.0	73	51
232.22	232.44	39	39
232.256	232.844	64	46
232.33	232.549	37	42
232.403	232.696	66	49
232.44	233.0	39	44
232.549	232.844	37	55
232.549	233.0	70	58
232.696	232.995	35	46
232.696	233.0	66	54
232.844	233.0	37	56
232.844	233.0	64	62
232.995	236.607	35	67
232.995	234.795	76	69
233.148	233.753	64	49
233.3	233.603	66	49
233.452	234.795	73	63
233.603	233.901	66	46
233.753	234.049	64	46
233.901	234.196	66	54
234.049	234.795	64	36
234.196	234.49	66	37
234.341	234.795	71	42
234.341	234.789	75	57
234.49	234.795	66	37
234.639	234.795	63	37
234.789	236.607	75	45
234.936	235.524	63	31
235.083	235.377	66	31
235.23	236.12	71	34
235.377	235.671	66	28
235.524	235.819	63	28
235.671	235.969	66	35
235.819	236.445	63	28
235.969	236.282	66	28
236.12	236.607	71	34
236.282	236.607	66	28
236.445	236.607	63	28
236.607	238.396	54	35
236.607	238.382	75	47
236.611	238.382	47	29
236.763	237.368	63	32
236.917	237.219	66	32
237.069	237.95	71	32
237.219	237.514	66	32
237.368	237.659	63	43
237.514	237.805	66	31
237.659	238.238	63	31
237.805	238.094	66	31
237.95	238.396	71	36
238.094	238.396	66	30
238.238	238.396	63	30
238.382	240.137	47	29
238.382	239.264	56	35
238.382	239.264	75	46
238.528	238.962	68	29
238.673	239.107	65	29
238.817	239.264	71	43
238.962	239.264	68	28
239.107	239.264	65	28
239.252	240.137	53	35
239.252	240.137	70	43
239.4	239.841	65	28
239.547	239.989	61	28
239.694	240.137	68	39
239.841	240.137	65	28
239.989	240.137	61	28
240.137	241.909	46	29
240.137	241.896	54	35
240.137	241.896	73	47
240.289	240.884	61	32
240.44	240.737	66	32
240.589	241.459	70	42
240.737	241.029	66	32
240.884	241.172	61	32
241.029	241.315	66	35
241.172	241.75	61	31
241.315	241.605	66	31
241.459	241.909	70	36
241.605	241.909	66	30
241.75	241.909	61	30
241.896	243.678	47	29
241.896	242.78	54	35
241.896	242.78	73	46
242.042	242.478	66	29
242.187	242.623	63	29
242.332	242.78	71	43
242.478	242.78	66	28
242.623	242.78	63	28
242.769	243.522	56	35
242.769	243.678	68	43
242.917	243.211	63	28
243.064	243.366	59	28
243.211	243.678	63	39
243.366	243.678	59	28
243.522	243.678	56	28
243.678	245.44	49	35
243.678	245.44	66	47
243.83	244.425	54	29
243.981	244.278	58	29
244.13	245.004	61	38
244.278	244.57	58	29
244.425	244.714	54	31
244.57	244.859	58	35
244.714	245.295	54	30
244.859	245.149	58	30
245.004	245.454	61	36
245.149	245.454	58	30
245.295	245.454	54	30
245.331	245.454	37	35
245.44	247.227	49	42
245.44	246.33	66	45
245.587	246.026	59	29
245.733	246.173	56	29
245.88	246.33	65	41
246.026	246.33	59	28
246.173	246.33	56	28
246.319	247.227	54	35
246.319	247.227	70	42
246.466	246.916	61	28
246.613	247.072	59	28
246.76	247.227	53	35
246.76	247.227	68	39
246.916	247.227	61	26
247.072	247.227	59	26
247.227	248.986	51	30
247.227	248.986	54	35
247.227	248.986	71	47
247.38	247.974	59	29
247.53	247.828	63	29
247.68	248.55	66	29
247.828	248.12	63	29
247.974	248.263	59	26
248.12	248.405	63	36
248.263	248.841	59	30
248.405	248.695	63	30
248.55	248.986	66	48
248.695	248.986	63	37
248.841	248.986	59	37
248.986	250.769	54	35
248.986	250.769	58	42
248.986	249.891	73	58
249.138	249.733	64	41
249.289	249.587	66	36
249.439	249.891	70	54
249.587	249.891	66	44
249.733	249.891	64	45
249.879	250.769	74	67
250.023	250.617	64	44
250.167	250.465	66	44
250.312	250.769	70	56
250.465	250.769	66	51
250.617	250.769	64	53
250.769	252.548	47	46
250.769	252.562	54	46
250.769	252.562	59	57
250.769	252.548	75	71
250.925	251.529	63	38
251.079	251.381	66	37
251.231	252.112	71	42
251.381	251.675	66	36
251.529	251.821	63	36
251.675	251.966	66	38
251.821	252.403	63	33
251.966	252.257	66	33
252.112	252.562	71	37
252.257	252.562	66	31
252.403	252.562	63	30
252.548	254.312	47	29
252.548	253.438	56	35
252.548	253.438	75	50
252.695	253.134	68	29
252.841	253.281	65	29
252.988	253.438	74	48
253.134	253.438	68	28
253.281	253.438	65	28
253.427	254.312	53	35
253.427	254.312	71	42
253.574	254.016	65	28
253.722	254.312	62	28
253.869	254.312	68	39
254.016	254.312	65	28
254.164	254.312	61	28
254.312	256.088	46	29
254.312	256.088	54	35
254.312	256.074	73	47
254.464	255.059	61	32
254.615	254.912	66	32
254.764	255.638	70	36
254.912	255.204	66	32
255.059	255.348	61	32
255.204	255.493	66	36
255.348	255.929	61	31
255.493	255.783	66	31
255.638	256.088	70	36
255.783	256.088	66	30
255.929	256.088	61	30
256.074	257.861	47	29
256.074	256.964	55	35
256.074	256.964	73	46
256.22	256.964	67	29
256.363	256.804	63	29
256.507	256.964	56	35
256.507	256.964	71	43
256.656	256.953	68	28
256.804	256.964	63	28
256.953	257.861	51	35
256.953	257.861	68	43
257.1	257.394	63	28
257.247	257.861	59	28
257.394	257.861	48	29
257.394	257.861	63	39
257.55	257.861	60	28
257.705	257.861	56	28
257.861	259.624	49	35
257.861	259.624	66	47
258.013	258.608	54	29
258.164	258.461	58	29
258.313	259.187	61	34
258.461	258.753	58	29
258.608	258.898	54	30
258.753	259.042	58	34
258.898	259.478	54	30
259.042	259.333	58	30
259.187	259.637	61	36
259.333	259.637	58	30
259.478	259.637	54	30
259.515	259.637	37	35
259.624	261.411	49	35
259.624	260.514	66	45
259.77	260.21	59	29
259.917	260.356	56	29
260.063	260.514	65	41
260.21	260.514	59	28
260.356	260.514	56	28
260.503	261.411	54	35
260.503	261.411	70	42
260.65	261.1	61	28
260.797	261.255	59	28
260.944	261.411	53	35
260.944	261.411	68	39
261.1	261.411	61	26
261.255	261.411	59	26
261.411	263.187	42	35
261.411	263.174	66	47
261.563	262.158	54	29
261.714	262.011	58	29
261.863	262.737	61	33
262.011	262.303	58	29
262.158	262.448	54	29
262.303	262.592	58	32
262.448	263.028	54	30
262.592	262.883	58	30
262.737	263.187	61	36
262.883	263.187	58	30
263.028	263.187	54	30
263.174	264.956	40	43
263.174	264.956	66	47
263.326	263.921	54	29
263.477	263.774	58	29
263.626	264.5	61	32
263.774	264.066	58	29
263.921	264.21	54	37
264.066	264.355	58	41
264.21	264.804	54	43
264.355	264.652	58	45
264.5	264.956	61	47
264.652	264.956	58	50
264.804	264.956	54	52
264.956	266.715	38	63
264.956	266.715	66	60
265.108	265.703	54	47
265.259	265.556	59	43
265.408	266.279	62	57
265.556	265.848	59	46
265.703	265.992	54	46
265.848	266.135	59	58
265.992	266.57	54	44
266.135	266.424	59	45
266.279	266.729	62	61
266.424	266.729	59	51
266.57	266.729	54	53
266.715	266.846	38	44
266.715	268.042	66	72
266.846	266.975	37	45
266.867	267.462	54	48
266.974	267.23	38	47
267.018	267.316	58	48
267.102	267.356	37	48
267.168	268.042	64	61
267.23	267.481	38	50
267.316	267.608	58	52
267.356	267.608	37	51
267.462	267.752	54	52
267.481	267.731	38	52
267.608	267.855	37	54
267.608	267.896	58	58
267.608	268.498	67	66
267.731	267.979	38	55
267.752	268.346	54	59
267.855	268.106	37	56
267.896	268.194	58	59
267.979	268.498	38	58
268.042	268.498	64	67
268.042	268.498	66	67
268.106	268.366	37	59
268.194	268.498	58	62
268.235	268.498	35	60
268.346	268.498	54	62
268.366	268.498	37	62
268.498	270.274	35	84
268.498	270.274	66	80
268.65	269.245	54	58
268.801	269.098	59	59
268.95	269.824	62	70
269.098	269.39	59	60
269.245	269.535	54	61
269.39	269.679	59	71
269.535	270.115	54	63
269.679	269.97	59	59
269.824	270.274	62	75
269.97	270.274	59	63
270.115	270.274	54	64
270.26	272.111	38	77
270.26	272.111	60	82
270.413	271.007	48	67
270.563	270.861	54	65
270.713	271.587	57	63
270.861	271.153	54	61
271.007	271.297	48	59
271.153	271.442	54	56
271.297	271.903	48	54
271.442	271.742	54	50
271.587	272.111	57	46
271.742	272.111	54	42
271.903	272.111	48	39
272.111	273.874	37	40
272.111	273.874	61	45
272.263	272.858	49	33
272.414	272.712	54	33
272.564	273.437	58	36
272.712	273.003	54	32
272.858	273.148	49	32
273.003	273.292	54	35
273.148	273.728	49	31
273.292	273.583	54	31
273.437	273.888	58	37
273.583	273.888	54	30
273.728	273.888	49	30
273.874	274.764	37	35
273.874	274.606	61	45
274.02	274.753	53	29
274.167	274.764	56	29
274.313	275.661	49	35
274.313	274.764	71	41
274.46	274.764	59	28
274.606	274.764	61	28
274.753	275.661	53	31
274.753	275.661	68	42
274.9	275.35	59	28
275.047	275.505	61	28
275.194	275.661	56	31
275.194	275.661	65	39
275.35	275.661	59	26
275.505	275.661	61	26
275.661	277.437	42	35
275.661	277.424	66	47
275.813	276.408	54	27
275.964	276.261	58	27
276.113	276.987	61	33
276.261	276.553	58	27
276.408	276.698	54	27
276.553	276.842	58	32
276.698	277.278	54	30
276.842	277.133	58	30
276.987	277.437	61	36
277.133	277.437	58	30
277.278	277.437	54	30
277.424	279.206	40	43
277.424	279.206	66	47
277.576	278.171	54	29
277.727	278.024	58	29
277.876	278.75	61	32
278.024	278.316	58	29
278.171	278.46	54	37
278.316	278.605	58	41
278.46	279.054	54	43
278.605	278.902	58	45
278.75	279.206	61	47
278.902	279.206	58	50
279.054	279.206	54	52
279.206	280.982	38	63
279.206	280.969	66	60
279.358	279.953	54	44
279.509	279.807	59	43
279.659	280.533	62	52
279.807	280.099	59	46
279.953	280.243	54	46
280.099	280.387	59	53
280.243	280.823	54	44
280.387	280.678	59	45
280.533	280.982	62	56
280.678	280.982	59	46
280.823	280.982	54	46
280.969	281.083	36	38
280.969	282.751	66	64
281.083	281.309	38	39
281.121	281.716	54	48
281.197	281.421	36	41
281.272	281.569	57	48
281.309	281.532	38	44
281.421	281.643	36	45
281.421	282.295	62	58
281.532	281.752	38	47
281.569	281.861	57	47
281.643	281.861	36	50
281.716	282.006	54	48
281.752	281.97	38	51
281.861	282.078	36	54
281.861	282.15	57	58
281.97	282.186	38	55
282.006	282.599	54	59
282.078	282.295	36	58
282.15	282.447	57	59
282.186	282.751	38	60
282.295	282.599	36	62
282.295	282.751	62	67
282.447	282.751	34	65
282.447	282.751	57	62
282.599	282.751	36	68
282.599	282.751	54	62
282.751	284.527	67	80
282.756	284.527	34	84
282.904	283.498	55	53
283.054	283.352	58	54
283.204	284.078	62	67
283.352	283.644	58	56
283.498	283.788	55	56
283.644	283.933	58	70
283.788	284.369	55	58
283.933	284.223	58	59
284.078	284.527	62	72
284.223	284.527	58	55
284.369	284.527	55	60
284.514	286.365	38	77
284.514	286.365	60	83
284.666	285.261	48	67
284.817	285.114	54	65
284.967	285.84	57	63
285.114	285.406	54	61
285.261	285.551	48	59
285.406	285.695	54	56
285.551	286.157	48	54
285.695	285.995	54	50
285.84	286.365	57	46
285.995	286.365	54	42
286.157	286.365	48	39
286.365	288.127	37	40
286.365	288.127	61	45
286.517	287.112	49	33
286.668	286.965	54	33
286.817	287.691	58	36
286.965	287.257	54	32
287.112	287.402	49	32
287.257	287.546	54	35
287.402	287.982	49	31
287.546	287.837	54	31
287.691	288.154	58	37
287.837	288.154	54	30
287.982	288.154	49	30
288.127	289.03	37	35
288.127	288.86	61	45
288.274	289.006	53	29
288.42	289.03	56	29
288.567	289.914	49	35
288.567	289.03	71	41
288.713	289.03	59	28
288.86	289.03	61	28
289.006	289.914	53	31
289.006	289.914	68	42
289.153	289.602	59	28
289.301	289.758	61	28
289.448	289.914	56	31
289.448	289.914	65	39
289.602	289.914	59	26
289.758	289.914	61	26
289.914	291.703	42	40
289.914	291.703	66	45
290.066	290.514	54	32
290.217	290.661	58	32
290.366	290.818	46	27
290.366	290.818	49	27
290.366	290.818	61	34
290.514	290.818	54	30
290.661	290.818	58	30
290.806	291.252	47	26
290.806	291.252	51	30
290.806	291.252	63	38
290.95	291.252	54	28
291.095	291.252	59	27
291.24	291.703	46	24
291.24	291.703	49	24
291.24	291.703	61	32
291.385	291.703	54	26
291.531	291.703	58	26
291.676	292.579	37	28
291.676	292.579	65	40
291.823	292.555	53	23
291.969	292.579	56	23
292.116	293.463	49	28
292.116	292.579	71	38
292.262	292.579	59	25
292.409	292.579	61	25
292.555	293.463	53	24
292.555	293.463	68	39
292.702	293.151	59	22
292.849	293.307	61	26
292.996	293.463	56	24
292.996	293.463	65	35
293.151	293.463	59	20
293.307	293.463	61	20
293.463	295.256	42	40
293.463	295.256	66	42
293.615	294.063	54	25
293.766	294.21	58	26
293.915	294.367	46	24
293.915	294.367	49	24
293.915	294.367	61	32
294.063	294.367	54	26
294.21	294.367	58	26
294.355	294.801	47	23
294.355	294.801	51	27
294.355	294.801	63	38
294.499	294.801	54	25
294.644	294.801	59	25
294.789	295.256	46	21
294.789	295.256	49	21
294.789	295.256	61	32
294.934	295.256	54	26
295.08	295.256	58	26
295.225	296.191	37	28
295.225	295.874	65	36
295.393	296.191	53	23
295.56	296.167	56	23
295.727	297.074	49	28
295.727	296.191	75	40
295.874	296.191	65	22
296.02	296.191	68	22
296.167	297.074	56	24
296.167	297.074	71	37
296.314	296.763	61	22
296.461	296.919	65	22
296.608	297.074	59	24
296.608	297.074	68	31
296.763	297.074	61	20
296.919	297.074	65	20
297.074	298.838	42	28
297.074	298.838	49	32
297.074	298.838	66	36
297.228	297.823	54	26
297.379	297.676	58	26
297.528	298.402	61	28
297.676	297.968	58	25
297.823	298.112	54	25
297.968	298.257	58	32
298.112	298.693	54	24
298.257	298.547	58	24
298.402	299.291	61	29
298.547	298.838	58	24
298.693	298.99	54	24
298.838	299.731	42	25
298.838	299.731	49	28
298.838	299.141	58	32
298.838	299.731	66	36
298.99	299.585	54	26
299.141	299.439	58	26
299.291	300.165	61	28
299.439	299.731	58	25
299.585	299.875	54	25
299.731	300.601	42	25
299.731	300.601	49	28
299.731	300.019	58	32
299.731	300.601	66	36
299.875	300.455	54	24
300.019	300.31	58	24
300.165	300.601	61	29
300.31	300.601	58	24
300.455	300.601	54	24
300.601	302.375	54	25
300.601	302.375	58	25
300.601	302.375	66	36
300.753	301.351	42	26
300.904	301.203	46	25
301.053	301.939	49	27
301.203	301.498	46	24
301.351	301.645	42	24
301.498	301.792	46	30
301.645	302.23	42	22
301.792	302.084	46	22
301.939	302.827	49	26
302.084	302.375	46	22
302.23	302.527	42	21
302.375	302.678	46	28
302.375	303.268	54	22
302.375	303.268	58	22
302.375	303.268	66	32
302.527	303.122	42	23
302.678	302.975	46	23
302.827	313.312	49	24
302.975	303.268	46	21
303.122	303.415	42	21
303.268	313.312	46	27
303.268	304.268	54	20
303.268	304.268	58	20
303.268	304.268	66	30
303.415	303.715	42	20
303.564	303.881	37	20
303.715	304.268	42	24
303.881	304.268	37	19
304.052	313.312	34	19
304.268	313.312	30	20
304.268	313.312	37	20
304.268	313.312	42	23
304.268	313.312	54	19
304.268	313.312	58	19
304.268	313.312	66	28
