OnsetTime	OffsetTime	MidiPitch	Velocity
0.500004	1.12996	61	56
0.537502	1.12996	67	58
0.574999	1.12996	70	60
0.612496	1.12996	76	62
0.649994	1.12996	79	72
0.687491	1.12996	85	72
0.724988	1.12996	88	77
0.762485	1.12996	94	79
1.69996	2.29742	56	54
1.73746	2.29742	62	55
1.77495	2.29742	65	58
1.81245	2.29742	71	61
1.84995	2.29742	74	68
1.88744	2.29742	80	69
1.92494	2.29742	83	71
1.96244	2.29742	89	73
2.95967	3.32553	51	44
2.97556	3.32553	57	45
2.99146	3.32553	60	47
3.00735	3.32553	66	48
3.02324	3.32553	69	59
3.03913	3.32553	75	61
3.05502	3.32553	78	64
3.07092	3.32553	84	66
3.44993	3.77989	46	42
3.46493	3.77989	52	43
3.47994	3.77989	55	45
3.49489	3.77989	61	47
3.50985	3.77989	64	59
3.5248	3.77989	70	60
3.53973	3.77989	73	63
3.55461	3.79167	79	64
3.92367	4.24818	41	44
3.93828	4.24818	47	46
3.95288	4.24818	50	49
3.96749	4.24818	56	51
3.98204	4.24818	59	59
3.99659	4.24818	65	62
4.01114	4.24818	68	65
4.02569	4.25678	74	68
4.38544	4.657	36	46
4.39968	4.657	42	48
4.4139	4.657	45	51
4.42812	4.657	51	53
4.44233	4.66824	54	62
4.45655	4.68224	60	65
4.47075	4.69624	63	68
4.48491	4.71024	69	71
4.8358	5.1656	37	47
4.84969	5.1656	43	49
4.86359	5.1656	46	51
4.87748	5.1656	52	53
4.89137	5.1656	55	65
4.90527	5.1656	61	67
4.91916	5.1656	64	69
4.93305	5.1656	70	71
5.2944	5.59366	38	49
5.3083	5.59366	44	51
5.32219	5.59366	47	54
5.3361	5.59366	53	56
5.34999	5.59366	56	69
5.36389	5.59366	59	73
5.37778	5.60015	65	77
5.73914	6.0217	34	50
5.75303	6.0217	41	52
5.76693	6.0217	44	54
5.78082	6.0217	50	56
5.79472	6.0217	53	70
5.80861	6.03096	56	73
5.8225	6.04486	62	76
6.16996	6.58185	33	53
6.18385	6.58185	38	54
6.19774	6.58185	41	57
6.21164	6.58185	45	59
6.22553	6.58185	57	70
6.23943	6.58185	62	74
6.25332	6.58185	65	77
6.26721	6.58185	69	78
7.17699	7.62012	45	53
7.17699	7.62012	50	53
7.17699	7.62012	53	53
7.17699	7.62012	57	63
7.17699	7.62012	69	71
7.17699	7.62012	74	71
7.17699	7.62012	77	71
7.17699	7.62012	81	84
8.14162	8.73811	57	53
8.14162	8.73811	61	53
8.14162	8.73811	64	53
8.14162	8.73811	69	63
8.14162	8.73811	79	71
8.14162	8.73811	81	71
8.14162	8.73811	85	71
8.14162	8.73811	88	71
8.14162	8.73811	93	84
10.1877	10.355	45	39
10.1896	10.3568	33	29
10.2992	10.4712	46	42
10.3011	10.4733	34	31
10.4107	10.5889	49	43
10.4117	10.5899	37	32
10.5307	10.668	41	34
10.5318	10.6689	53	46
10.6232	10.7604	52	45
10.6242	10.7614	40	34
10.7147	10.8519	38	33
10.7147	10.8519	50	44
10.8033	10.9405	37	32
10.8061	10.9433	49	43
10.8947	11.0389	34	30
10.8976	11.0423	46	41
10.9891	11.1232	45	43
10.9913	11.1254	33	32
11.0766	11.2096	34	32
11.0777	11.2107	46	43
11.1642	11.2972	37	32
11.1664	11.2994	49	44
11.254	11.387	38	34
11.2551	11.3881	50	45
11.3426	11.4842	40	35
11.3438	11.4854	52	47
11.4343	11.5764	41	36
11.4368	11.5787	53	48
11.5341	11.6678	58	50
11.5352	11.6689	46	37
11.6232	11.7569	57	49
11.6244	11.758	45	36
11.7124	11.8461	43	36
11.7124	11.8461	55	48
11.8015	11.9352	53	47
11.8037	11.9374	41	34
11.8906	12.0243	52	45
11.8917	12.0254	40	34
11.9797	12.1183	50	44
11.9808	12.1195	38	32
12.0707	12.1774	49	45
12.0731	12.1797	37	33
12.142	12.248	50	44
12.1432	12.2491	38	33
12.2092	12.3144	40	33
12.2127	12.3179	52	45
12.283	12.3874	53	46
12.2842	12.3886	41	34
12.3492	12.453	43	35
12.3527	12.4565	55	48
12.4209	12.524	45	35
12.422	12.5251	57	48
12.4909	12.5932	58	49
12.492	12.5943	46	36
12.5592	12.6559	61	49
12.5604	12.6569	49	37
12.6271	12.7654	65	51
12.628	12.7664	53	38
12.7174	12.8558	52	37
12.7193	12.8577	64	51
12.8096	12.948	50	37
12.8116	12.9499	62	50
12.9038	13.0422	61	50
12.9048	13.0431	49	37
12.996	13.1415	58	50
12.998	13.1437	46	37
13.0873	13.2202	45	38
13.0883	13.2213	57	50
13.177	13.31	58	51
13.1792	13.3122	46	39
13.2656	13.3986	61	52
13.2668	13.3998	49	40
13.351	13.484	50	41
13.3543	13.4873	62	53
13.443	13.5792	52	41
13.443	13.5792	64	54
13.5333	13.6695	65	56
13.5344	13.6706	53	42
13.6217	13.7548	58	43
13.6251	13.7581	70	57
13.7138	13.8468	57	43
13.7138	13.8468	69	57
13.8025	13.9355	67	56
13.8036	13.9366	55	43
13.8878	14.0208	53	42
13.8912	14.0242	65	54
13.9798	14.1128	64	53
13.982	14.1151	52	42
14.0685	14.2101	62	52
14.0707	14.2126	50	40
14.1604	14.2719	61	53
14.1617	14.2732	49	40
14.2349	14.3457	62	54
14.2373	14.3481	50	40
14.3065	14.4166	52	41
14.3089	14.419	64	56
14.3824	14.4925	65	56
14.3848	14.4949	53	42
14.4519	14.5625	55	43
14.4556	14.5662	67	57
14.5269	14.6374	57	43
14.5293	14.6399	69	57
14.603	14.7184	70	59
14.6042	14.7198	58	43
14.6783	14.7873	73	60
14.6797	14.7882	61	44
14.7567	14.8913	65	45
14.7594	14.8932	77	61
14.8467	14.9805	64	45
14.8486	14.9824	76	61
14.9378	15.0716	74	60
14.9396	15.0734	62	45
15.027	15.1608	73	59
15.0279	15.1617	61	44
15.1162	15.2585	70	58
15.1171	15.2597	58	44
15.2053	15.3384	69	58
15.2076	15.3406	57	44
15.294	15.427	70	58
15.2951	15.4281	58	44
15.3805	15.5135	61	46
15.3827	15.5157	73	60
15.4714	15.6044	62	47
15.4714	15.6044	74	61
15.56	15.693	76	62
15.5622	15.6953	64	48
15.6487	15.7817	65	48
15.6487	15.7817	77	63
15.7351	15.8682	70	48
15.7374	15.8704	82	63
15.8249	15.9579	69	47
15.826	15.959	81	63
15.9147	16.0477	79	62
15.9169	16.0499	67	46
16.0034	16.1364	77	61
16.0056	16.1386	65	46
16.0921	16.2251	76	60
16.0943	16.2273	64	44
16.1785	16.3259	62	43
16.1807	16.3285	74	59
16.2751	16.3939	61	43
16.2751	16.3939	73	58
16.3549	16.4706	74	58
16.3562	16.4719	62	44
16.4297	16.5447	64	45
16.4323	16.5473	76	59
16.5064	16.621	65	46
16.509	16.6236	77	60
16.5842	16.6984	67	47
16.5854	16.6997	79	62
16.6579	16.7717	69	48
16.6617	16.7755	81	63
16.7376	16.8549	82	64
16.7389	16.8562	70	49
16.8135	16.9221	73	51
16.8148	16.923	85	65
16.8953	17.0285	77	52
16.8953	17.0285	89	66
16.9841	17.1173	88	66
16.985	17.1182	76	52
17.072	17.2052	74	50
17.0729	17.2061	86	65
17.1608	17.294	73	51
17.1617	17.2949	85	65
17.2496	17.3828	70	49
17.2505	17.3837	82	64
17.3393	17.4725	81	65
17.3403	17.4735	69	48
17.4281	17.5613	82	68
17.4291	17.5623	70	50
17.516	17.6492	73	51
17.5169	17.6502	85	70
17.6057	17.739	86	71
17.6076	17.7408	74	53
17.6927	17.8259	76	54
17.6946	17.8278	88	72
17.7834	17.9166	89	74
17.7852	17.9184	77	55
17.8703	18.0035	79	56
17.8722	18.0054	91	76
17.961	18.0942	93	78
17.9628	18.096	81	58
18.0498	18.183	94	80
18.0516	18.1849	82	59
18.1367	18.4873	85	60
18.1386	18.4928	97	81
18.2385	18.8451	89	63
18.2427	20.2372	101	85
18.3219	18.9339	88	63
18.3261	20.2372	100	85
18.4094	19.0214	86	63
18.4094	20.2372	98	84
18.4873	19.1077	85	63
18.4928	20.2372	97	84
18.5748	19.1926	82	62
18.5762	20.2372	94	83
18.656	19.2766	81	62
18.6637	20.2372	93	83
18.7551	19.3592	79	62
18.7551	20.2372	91	83
18.8451	20.2372	89	82
18.8481	19.4409	77	61
18.9265	19.5214	76	61
18.9339	20.2372	88	82
19.0214	20.2372	86	81
19.0286	19.6009	74	60
19.1062	19.6798	73	60
19.1077	20.2372	85	81
19.187	19.7584	70	60
19.1926	20.2372	82	80
19.2766	20.2372	81	80
19.2821	19.8366	69	60
19.3592	20.2372	79	80
19.3647	19.9146	67	60
19.4409	20.2372	77	79
19.4463	19.9925	65	59
19.5201	20.0701	64	59
19.5214	20.2372	76	79
19.6009	20.2372	74	79
19.6036	20.1474	62	59
19.6798	20.2372	73	79
19.6837	20.2244	61	59
19.7584	20.2372	70	78
19.7597	20.2372	58	58
19.8366	20.2372	69	78
19.8405	20.2372	57	58
19.9081	20.2372	55	58
19.9146	20.2372	67	78
19.9925	20.2372	65	77
19.9964	20.2372	53	58
20.0701	20.2372	64	77
20.0752	20.2372	52	58
20.1435	20.2372	50	57
20.1474	20.2372	62	77
20.2206	20.7574	49	58
20.2244	21.1313	61	78
20.3	20.8325	46	58
20.3013	21.1313	58	78
20.3754	20.8926	45	58
20.3779	21.1313	57	79
20.4517	20.9524	43	59
20.4543	21.1313	55	80
20.5304	21.1313	53	81
20.5329	21.0122	41	60
20.6025	21.0717	40	61
20.6063	21.1313	52	82
20.6757	21.1313	38	61
20.682	21.1313	50	82
20.7574	21.1313	49	82
20.7586	21.1313	37	62
20.8275	21.1313	34	63
20.8325	21.1313	46	80
20.8926	21.1313	33	63
20.8926	21.1313	45	80
20.9524	21.1313	43	82
21.0122	21.1313	41	83
21.0717	21.1313	40	84
21.1313	22.1168	38	59
21.1313	22.1168	45	59
21.1313	22.1168	50	74
21.1313	22.1168	74	76
21.1313	22.1168	77	76
21.1313	22.1168	86	97
21.4168	22.1358	52	48
21.4168	22.1358	56	60
21.5348	22.1358	53	50
21.5348	22.1358	57	63
21.6523	22.1358	61	51
21.6523	21.8857	64	65
21.7692	22.1358	62	54
21.7692	22.0015	65	67
21.8857	22.1358	64	55
21.8857	22.1358	68	69
22.0015	22.1358	65	56
22.0015	22.1358	69	71
22.1168	23.1124	38	62
22.1168	23.1124	45	62
22.1168	23.1124	50	78
22.1168	23.1124	74	75
22.1168	23.1124	77	79
22.1168	23.1124	86	101
22.3568	23.1124	52	48
22.3568	23.1124	56	60
22.4758	23.1124	53	50
22.4758	23.1124	57	63
22.5937	23.1124	61	51
22.5937	22.8264	64	65
22.7106	23.1124	62	54
22.7106	22.9694	65	67
22.8264	23.1124	64	69
22.8264	23.1124	68	69
22.9694	23.1124	65	56
22.9694	23.1124	69	71
23.0409	23.1124	72	70
23.0409	23.1124	84	89
23.1124	24.0526	38	63
23.1124	24.0526	43	63
23.1124	24.0526	50	79
23.1124	23.9373	70	75
23.1124	24.0526	76	77
23.1124	24.0526	82	100
23.3526	24.1056	54	48
23.3526	24.1056	57	60
23.4706	24.1056	55	50
23.4706	24.1056	58	63
23.5881	24.1056	63	51
23.5881	23.8215	66	65
23.705	24.1056	64	54
23.705	23.9373	67	67
23.8215	24.1056	66	55
23.8215	24.1056	69	69
23.9373	24.1056	67	56
23.9373	24.0526	70	71
24.0526	25.0283	38	59
24.0526	25.0283	43	59
24.0526	25.0283	50	75
24.0526	24.8873	70	72
24.0526	25.0283	76	72
24.0526	24.9578	82	92
24.2926	25.0283	54	48
24.2926	25.0283	57	60
24.4116	25.0283	55	50
24.4116	25.0283	58	63
24.5295	25.0283	63	51
24.5295	24.7622	66	65
24.6464	25.0283	64	54
24.6464	24.8873	67	67
24.7622	25.0283	66	69
24.7622	25.0283	69	69
24.8873	25.0283	67	56
24.8873	24.9578	70	71
24.9578	25.0283	70	70
24.9578	25.0283	82	89
25.0283	26.0185	37	59
25.0283	26.0185	49	75
25.0283	25.9313	69	75
25.0283	25.9995	76	75
25.0283	25.9313	81	95
25.2683	26.0185	51	48
25.2683	26.0185	54	60
25.3874	26.0185	52	50
25.3874	26.0185	55	63
25.5052	26.0185	60	51
25.5052	25.7379	63	65
25.6221	26.0185	61	54
25.6221	25.863	64	67
25.7379	26.0185	63	69
25.7379	26.0185	66	69
25.863	26.0185	64	56
25.863	26.0185	67	71
25.9313	26.0185	69	70
25.9313	26.0185	81	89
25.9995	26.9573	33	59
25.9995	26.9573	45	75
25.9995	26.9573	76	75
25.9995	26.8953	79	75
25.9995	26.9573	88	95
26.2395	26.9573	51	48
26.2395	26.9573	54	60
26.3586	26.9573	52	50
26.3586	26.9573	55	63
26.4764	26.9573	60	51
26.4764	26.7092	63	65
26.5933	26.9573	61	54
26.5933	26.8332	64	67
26.7092	26.9573	63	69
26.7092	26.9573	66	69
26.8332	26.9573	64	56
26.8332	26.8953	67	71
26.8953	26.9573	67	62
26.8953	26.9573	79	80
26.9573	27.912	38	59
26.9573	27.912	50	75
26.9573	27.5511	65	67
26.9573	27.7895	69	67
26.9573	27.925	77	85
27.1973	27.925	52	43
27.1973	27.925	56	56
27.3164	27.925	53	46
27.3164	27.925	57	57
27.4342	27.925	61	46
27.4342	27.6669	64	59
27.5511	27.912	62	48
27.5511	27.7895	65	60
27.6669	27.925	64	62
27.6669	27.925	68	62
27.7895	27.912	65	49
27.7895	27.8508	69	63
27.8508	27.925	69	64
27.8508	27.925	81	82
27.912	28.8846	38	55
27.912	28.8846	45	55
27.912	28.8846	50	70
27.912	28.5058	62	70
27.912	28.5058	65	70
27.912	28.8846	74	88
28.152	28.8846	52	43
28.152	28.8846	56	55
28.2711	28.8846	53	44
28.2711	28.8846	57	56
28.3889	28.8846	61	46
28.3889	28.6218	64	57
28.5058	28.8846	62	47
28.5058	28.741	65	58
28.6218	28.8846	64	59
28.6218	28.8846	68	59
28.741	28.8846	65	48
28.741	28.8846	69	60
28.8846	29.8248	36	52
28.8846	29.8248	48	66
28.8846	29.7095	72	65
28.8846	29.8248	76	65
28.8846	29.8248	84	83
29.1249	29.8739	54	40
29.1249	29.3603	59	51
29.2429	29.8739	55	42
29.2429	29.4773	60	52
29.3603	29.8739	59	43
29.3603	29.8739	63	55
29.4773	29.8739	60	44
29.4773	29.8739	64	57
29.5937	29.8739	66	46
29.5937	29.8739	71	58
29.7095	29.8739	67	47
29.7095	29.8248	72	59
29.8248	30.8002	36	50
29.8248	30.8002	48	64
29.8248	30.8002	72	58
29.8248	30.8002	76	58
29.8248	30.8002	84	73
30.0648	30.8002	54	40
30.0648	30.3017	59	51
30.1839	30.8002	55	42
30.1839	30.4186	60	52
30.3017	30.8002	59	43
30.3017	30.5345	63	55
30.4186	30.8002	60	44
30.4186	30.6673	64	57
30.5345	30.8002	63	58
30.5345	30.8002	66	58
30.6673	30.8002	64	47
30.6673	30.8002	67	59
30.7338	30.8002	70	54
30.7338	30.8002	82	69
30.8002	31.7624	41	50
30.8002	31.7624	53	64
30.8002	31.6324	69	58
30.8002	31.7624	77	58
30.8002	31.8084	81	73
31.0402	31.8084	56	40
31.0402	31.2771	59	51
31.1592	31.8084	57	42
31.1592	31.394	60	52
31.2771	31.8084	59	43
31.2771	31.8084	64	55
31.394	31.8084	60	44
31.394	31.7624	65	57
31.5098	31.8084	68	58
31.5098	31.8084	71	58
31.6324	31.7624	69	47
31.6324	31.6974	72	59
31.6974	31.8084	72	54
31.6974	31.8084	84	69
31.7624	32.7391	41	50
31.7624	32.7391	53	64
31.7624	32.3562	65	58
31.7624	32.6056	69	58
31.7624	32.7391	77	73
32.0024	32.7391	56	40
32.0024	32.2392	59	51
32.1214	32.7391	57	42
32.1214	32.3562	60	52
32.2392	32.7391	59	43
32.2392	32.4722	64	55
32.3562	32.7391	60	44
32.3562	32.6056	65	57
32.4722	32.7391	64	58
32.4722	32.7391	68	58
32.6056	32.7391	65	47
32.6056	32.7391	69	59
32.7391	33.6883	40	52
32.7391	33.6883	52	66
32.7391	33.6793	76	65
32.7391	33.6883	80	69
32.7391	33.6793	88	90
32.9793	33.6883	55	37
32.9793	33.6883	58	48
33.0973	33.6793	56	40
33.0973	33.6883	59	50
33.2148	33.6883	63	41
33.2148	33.4481	67	52
33.3317	33.6883	64	43
33.3317	33.564	68	55
33.4481	33.6883	67	43
33.4481	33.6883	70	56
33.564	33.6883	68	46
33.564	33.6883	71	58
33.6793	34.6513	44	51
33.6793	34.0383	56	66
33.6793	34.6513	76	65
33.6793	34.6513	83	65
33.6793	34.6513	88	82
33.9193	34.6513	55	40
33.9193	34.6513	58	50
34.0383	34.6513	56	42
34.0383	34.6513	59	52
34.1561	34.6513	63	43
34.1561	34.3889	67	55
34.2731	34.6513	64	44
34.2731	34.5167	68	57
34.3889	34.6513	67	58
34.3889	34.6513	70	58
34.5167	34.6513	68	51
34.5167	34.6513	71	65
34.584	34.6513	74	58
34.584	34.6513	86	74
34.6513	35.6111	45	54
34.6513	35.6111	52	54
34.6513	35.6111	57	69
34.6513	35.2451	73	63
34.6513	35.6111	81	63
34.6513	35.6241	85	79
34.8913	35.6241	60	42
34.8913	35.6241	63	52
35.0104	35.6241	61	43
35.0104	35.6241	64	55
35.1282	35.6241	68	44
35.1282	35.3609	72	57
35.2451	35.6111	69	47
35.2451	35.486	73	59
35.3609	35.6241	72	62
35.3609	35.6241	75	62
35.486	35.6111	73	52
35.486	35.5486	76	66
35.5486	35.6241	76	60
35.5486	35.6241	88	78
35.6111	36.5801	45	56
35.6111	36.5771	52	56
35.6111	36.5801	57	72
35.6111	36.2049	69	65
35.6111	36.2049	73	65
35.6111	36.511	81	82
35.8511	36.5801	60	46
35.8511	36.5801	63	58
35.9702	36.5801	61	48
35.9702	36.5801	64	60
36.088	36.5801	68	50
36.088	36.3208	72	63
36.2049	36.511	69	52
36.2049	36.4448	73	65
36.3208	36.5801	72	67
36.3208	36.5801	75	67
36.4448	36.5801	73	55
36.4448	36.5801	76	70
36.511	36.5801	69	63
36.511	36.5801	81	80
36.5771	37.5524	46	65
36.5771	37.5524	52	65
36.5771	37.5524	58	82
36.5771	37.402	79	78
36.5771	37.5524	85	78
36.5771	37.5524	91	98
36.8173	37.5524	63	48
36.8173	37.5524	66	60
36.9354	37.5524	64	50
36.9354	37.5524	67	63
37.0528	37.5524	72	51
37.0528	37.2862	75	65
37.1697	37.5524	73	54
37.1697	37.402	76	67
37.2862	37.5524	75	55
37.2862	37.5524	78	69
37.402	37.5524	76	56
37.402	37.5524	79	71
37.5173	38.4878	45	62
37.5173	38.4878	57	78
37.5173	38.4202	69	69
37.5173	38.4202	81	87
37.7573	38.4878	63	48
37.7573	38.4878	66	60
37.8764	38.4878	64	50
37.8764	38.4878	67	63
37.9942	38.4878	72	51
37.9942	38.2269	75	65
38.1111	38.4878	73	54
38.1111	38.3526	76	67
38.2269	38.4878	75	69
38.2269	38.4878	78	69
38.3526	38.4878	76	56
38.3526	38.4878	79	71
38.4202	38.4878	69	64
38.4202	38.4878	81	81
38.4878	39.4371	46	63
38.4878	39.4371	51	63
38.4878	39.4371	58	79
38.4878	39.3127	78	78
38.4878	39.4371	84	78
38.4878	39.4371	90	98
38.7281	39.4371	62	48
38.7281	39.4371	65	60
38.8461	39.4371	63	50
38.8461	39.4371	66	63
38.9635	39.4371	71	51
38.9635	39.1969	74	65
39.0805	39.4371	72	54
39.0805	39.3127	75	67
39.1969	39.4371	74	55
39.1969	39.4371	77	69
39.3127	39.4371	75	56
39.3127	39.4371	78	71
39.428	40.3965	45	59
39.428	40.3965	57	75
39.428	40.3274	69	69
39.428	40.3274	81	87
39.668	40.3965	62	48
39.668	40.3965	65	60
39.7871	40.3965	63	50
39.7871	40.3965	66	63
39.9049	40.3965	71	51
39.9049	40.1377	74	65
40.0218	40.3965	72	54
40.0218	40.2612	75	67
40.1377	40.3965	74	69
40.1377	40.3935	77	69
40.2612	40.3965	75	56
40.2612	40.3965	78	71
40.3274	40.3965	69	64
40.3274	40.3965	81	81
40.3935	41.3654	47	59
40.3935	41.3704	50	59
40.3935	41.3704	59	75
40.3935	41.2282	77	69
40.3935	41.3654	80	69
40.3935	41.2968	89	87
40.6335	41.3704	61	48
40.6335	41.3704	64	60
40.7526	41.3704	62	50
40.7526	41.3704	65	63
40.8704	41.3704	67	51
40.8704	41.3704	70	65
40.9873	41.3704	68	54
40.9873	41.3704	71	67
41.1031	41.3704	73	69
41.1031	41.3654	76	69
41.2282	41.3704	74	56
41.2282	41.2968	77	71
41.2968	41.3704	77	64
41.2968	41.3704	89	81
41.3654	42.3392	40	59
41.3654	42.3392	47	59
41.3654	42.3362	52	75
41.3654	42.3392	76	69
41.3654	42.3392	80	69
41.3654	42.3392	88	87
41.6054	42.3392	55	48
41.6054	42.3392	58	60
41.7244	42.3392	56	50
41.7244	42.3392	59	63
41.8422	42.3392	63	51
41.8422	42.075	67	65
41.9592	42.3392	64	67
41.9592	42.1991	68	54
42.075	42.3392	67	69
42.075	42.3392	70	69
42.1991	42.3392	68	56
42.1991	42.3392	71	71
42.2676	42.3392	74	64
42.2676	42.3392	86	81
42.3362	43.3018	45	59
42.3362	43.3018	52	59
42.3362	43.3018	57	75
42.3362	42.93	73	69
42.3362	43.3018	81	69
42.3362	43.3088	85	87
42.5762	43.3088	60	48
42.5762	43.3088	63	60
42.6952	43.3088	61	50
42.6952	43.3088	64	63
42.8131	43.3088	68	51
42.8131	43.0458	72	65
42.93	43.3018	69	54
42.93	43.1684	73	67
43.0458	43.3088	72	69
43.0458	43.3088	75	69
43.1684	43.3018	73	56
43.1684	43.2351	76	71
43.2351	43.3088	76	64
43.2351	43.3088	88	81
43.3018	44.2499	45	59
43.3018	44.2499	52	59
43.3018	43.6608	57	75
43.3018	44.1307	69	69
43.3018	44.2499	73	69
43.3018	44.2499	81	87
43.5418	44.2499	56	48
43.5418	43.7787	60	60
43.6608	44.2499	57	50
43.6608	43.8956	61	63
43.7787	44.2499	60	51
43.7787	44.0116	63	65
43.8956	44.2499	61	54
43.8956	44.1307	64	67
44.0116	44.2499	63	69
44.0116	44.2499	68	69
44.1307	44.2499	64	56
44.1307	44.2499	69	71
44.2499	45.2041	34	58
44.2499	45.2041	40	58
44.2499	45.2041	46	73
44.2499	45.0748	67	70
44.2499	45.2041	73	70
44.2499	45.2041	79	88
44.4901	45.2041	51	42
44.4901	45.2041	54	54
44.6081	45.2041	52	44
44.6081	45.2041	55	56
44.7256	45.2041	60	46
44.7256	44.9589	63	58
44.8425	45.2041	61	48
44.8425	45.0748	64	60
44.9589	45.2041	63	49
44.9589	45.2041	66	62
45.0748	45.2041	64	50
45.0748	45.2041	67	63
45.1901	46.1695	33	55
45.1901	46.1695	45	70
45.1901	46.0956	57	62
45.1901	46.0956	69	78
45.4301	46.1695	51	42
45.4301	46.1695	54	54
45.5491	46.1695	52	44
45.5491	46.1695	55	56
45.667	46.1695	60	46
45.667	45.8997	63	58
45.7839	46.1695	61	48
45.7839	46.0238	64	60
45.8997	46.1695	63	62
45.8997	46.1675	66	62
46.0238	46.1695	64	50
46.0238	46.1695	67	63
46.0956	46.1695	57	57
46.0956	46.1695	69	72
46.1675	47.1207	34	56
46.1675	47.1207	39	56
46.1675	47.1207	46	71
46.1675	46.9924	66	70
46.1675	47.1207	72	70
46.1675	47.1207	78	88
46.4077	47.1207	50	42
46.4077	47.1207	53	54
46.5257	47.1207	51	44
46.5257	47.1207	54	56
46.6431	47.1207	59	46
46.6431	46.8765	62	58
46.7601	47.1207	60	48
46.7601	46.9924	63	60
46.8765	47.1207	62	49
46.8765	47.1207	65	62
46.9924	47.1207	63	50
46.9924	47.1207	66	63
47.1077	48.0838	33	52
47.1077	48.0838	45	67
47.1077	48.0103	57	62
47.1077	48.0103	69	78
47.3476	48.0838	50	42
47.3476	48.0838	53	54
47.4667	48.0838	51	44
47.4667	48.0838	54	56
47.5845	48.0838	59	46
47.5845	47.8173	62	58
47.7014	48.0838	60	48
47.7014	47.9398	63	60
47.8173	48.0838	62	62
47.8173	48.0808	65	62
47.9398	48.0838	63	50
47.9398	48.0838	66	63
48.0103	48.0838	57	57
48.0103	48.0838	69	72
48.0808	49.0456	35	52
48.0808	49.0406	38	52
48.0808	49.0456	47	67
48.0808	48.9155	65	62
48.0808	49.0406	68	62
48.0808	48.9781	77	78
48.3208	49.0456	49	42
48.3208	49.0456	52	54
48.4399	49.0456	50	44
48.4399	49.0456	53	56
48.5577	49.0456	55	46
48.5577	49.0456	58	58
48.6746	49.0456	56	48
48.6746	49.0456	59	60
48.7904	49.0456	61	62
48.7904	49.0406	64	62
48.9155	49.0456	62	50
48.9155	48.9781	65	63
48.9781	49.0456	65	57
48.9781	49.0456	77	72
49.0406	49.9984	34	52
49.0406	49.9984	38	52
49.0406	49.9984	46	67
49.0406	49.8743	64	62
49.0406	49.9984	68	62
49.0406	49.9984	76	78
49.2806	49.9984	49	42
49.2806	49.9984	52	54
49.3997	49.9984	50	44
49.3997	49.9984	53	56
49.5175	49.9984	57	46
49.5175	49.9984	61	58
49.6344	49.9984	58	60
49.6344	49.9364	62	48
49.7502	49.9984	55	62
49.7502	49.9984	63	62
49.8743	49.9984	56	50
49.8743	49.9984	64	63
49.9364	49.9984	62	57
49.9364	49.9984	74	72
49.9984	50.1588	33	52
49.9984	50.1588	40	52
49.9984	50.1588	45	67
49.9984	50.1588	57	62
49.9984	50.1588	61	62
49.9984	50.1588	69	78
50.3185	50.6178	46	56
50.3185	50.6178	55	39
50.3185	50.6178	64	46
50.3185	50.6178	73	70
50.4181	50.6178	56	39
50.4181	50.6178	65	46
50.5174	50.6178	57	39
50.5174	50.6178	66	47
50.6166	50.9173	49	59
50.6166	50.9173	58	40
50.6166	50.9173	67	48
50.6166	50.9173	76	73
50.7156	50.9173	59	41
50.7156	50.9173	68	48
50.8144	50.9173	60	41
50.8144	50.9173	69	49
50.913	51.2132	52	62
50.913	51.2132	61	41
50.913	51.2132	70	50
50.913	51.2132	79	77
51.0114	51.2132	62	42
51.0114	51.2132	71	50
51.1097	51.2132	63	43
51.1097	51.2132	72	51
51.2077	51.5139	55	65
51.2077	51.5139	64	43
51.2077	51.5139	73	51
51.2077	51.5139	82	80
51.3056	51.5139	62	43
51.3056	51.5139	74	52
51.4033	51.5139	61	44
51.4033	51.5139	76	52
51.5008	51.8001	50	31
51.5008	51.8001	56	51
51.5008	51.8001	59	36
51.5008	51.8001	65	36
51.5008	51.8001	71	43
51.5008	51.8001	83	77
51.6006	51.8001	77	55
51.7003	51.8001	80	55
51.8001	51.9674	45	52
51.8001	51.9674	52	52
51.8001	51.9674	57	67
51.8001	51.9674	76	62
51.8001	51.9674	81	62
51.8001	51.9674	85	62
51.8001	51.9674	88	78
52.1046	52.4023	58	56
52.1046	52.4023	67	39
52.1046	52.4023	76	46
52.1046	52.4023	85	70
52.2033	52.4023	68	39
52.2033	52.4023	77	46
52.302	52.4023	69	39
52.302	52.4023	78	47
52.4005	52.698	61	59
52.4005	52.698	70	40
52.4005	52.698	79	48
52.4005	52.698	88	73
52.4988	52.698	71	41
52.4988	52.698	80	48
52.5969	52.698	72	41
52.5969	52.698	81	49
52.6949	52.9922	64	62
52.6949	52.9922	73	41
52.6949	52.9922	82	50
52.6949	52.9922	91	77
52.7927	52.9922	74	42
52.7927	52.9922	83	50
52.8904	52.9922	75	43
52.8904	52.9922	84	51
52.988	53.2833	67	65
52.988	53.2833	76	43
52.988	53.2833	85	51
52.988	53.2833	94	80
53.0853	53.2833	74	43
53.0853	53.2833	86	52
53.1825	53.2833	73	44
53.1825	53.2833	88	52
53.2796	53.5767	62	31
53.2796	53.5767	68	51
53.2796	53.5767	71	36
53.2796	53.5767	77	36
53.2796	53.5767	83	50
53.2796	53.5767	95	77
53.3786	53.5767	89	55
53.4776	53.5767	92	55
53.5767	53.7216	57	52
53.5767	53.7216	61	52
53.5767	53.7216	64	52
53.5767	53.7216	69	67
53.5767	53.7216	88	67
53.5767	53.7216	93	67
53.5767	53.7216	97	67
53.5767	53.7216	100	85
53.8665	54.1606	50	51
53.8665	54.1606	53	51
53.8665	54.1606	56	51
53.8665	54.1606	62	51
53.8665	54.1606	83	55
53.8665	54.1643	95	67
53.9658	54.1606	89	55
54.065	54.1643	92	55
54.1643	54.3089	45	51
54.1643	54.3089	49	51
54.1643	54.3089	52	51
54.1643	54.3089	57	51
54.1643	54.3089	88	67
54.1643	54.3089	93	67
54.1643	54.3089	97	67
54.1643	54.3089	100	85
54.4535	54.7543	38	51
54.4535	54.7543	41	51
54.4535	54.7543	44	51
54.4535	54.7543	50	51
54.4535	54.7543	83	55
54.4535	54.7543	95	67
54.5517	54.7543	89	55
54.65	54.7543	92	55
54.7483	54.8932	33	51
54.7483	54.8932	37	51
54.7483	54.8932	40	51
54.7483	54.8932	45	51
54.7483	54.8932	88	67
54.7483	54.8932	93	67
54.7483	54.8932	97	67
54.7483	54.8932	100	85
55.0381	55.3315	38	51
55.0381	55.3315	41	51
55.0381	55.3315	44	51
55.0381	55.3315	50	51
55.0381	55.3315	83	55
55.0381	55.3315	95	67
55.1359	55.3315	89	55
55.2337	55.3315	92	55
55.3315	55.7663	33	52
55.3315	55.7663	37	52
55.3315	55.7663	40	52
55.3315	55.7663	45	67
55.3315	55.7663	88	67
55.3315	55.7663	93	67
55.3315	55.7663	97	67
55.3315	55.7663	100	85
55.9202	56.8443	46	46
55.9227	56.8443	70	62
55.9227	56.8443	82	73
55.9235	56.8443	58	54
56.1949	56.8443	45	42
56.1958	56.8443	57	50
56.1967	56.8443	69	56
56.1967	56.8443	81	67
56.3314	56.8443	55	55
56.3322	56.8443	43	46
56.333	56.8443	67	62
56.333	56.8443	79	74
56.4569	56.8443	53	52
56.4577	56.8443	41	44
56.4584	56.8443	65	59
56.4584	56.8443	77	70
56.5829	56.8443	52	52
56.5829	56.8443	64	59
56.5829	56.8443	76	70
56.5845	56.8443	40	44
56.7057	56.8443	50	48
56.7065	56.8443	62	54
56.7065	56.8443	74	64
56.708	56.8443	38	40
56.8275	57.0895	49	53
56.8291	57.0895	37	45
56.8291	57.0895	61	60
56.8291	57.0895	73	71
56.9499	57.0895	40	42
56.9507	57.0895	52	50
56.9507	57.0895	64	56
56.9507	57.0895	76	67
57.0699	57.3316	48	54
57.0707	57.3316	36	46
57.0714	57.3316	60	62
57.0714	57.3316	72	73
57.1912	57.3316	64	58
57.1912	57.3316	76	69
57.1927	57.3316	40	43
57.1927	57.3316	52	51
57.3101	57.8599	59	62
57.3101	57.8599	71	73
57.3109	57.8599	47	54
57.3116	57.8599	35	46
57.4268	57.6775	40	42
57.4283	57.6775	64	56
57.4283	57.6775	76	67
57.4298	57.6792	52	50
57.5481	57.8599	46	57
57.5489	57.8599	34	48
57.5496	57.8599	58	64
57.5496	57.8599	70	76
57.6775	57.8599	40	44
57.6775	57.8599	64	59
57.6775	57.8599	76	70
57.6792	57.8599	52	52
57.8092	58.0227	33	51
57.8101	58.0236	45	60
57.8101	58.0236	57	68
57.8101	58.0236	69	81
58.2371	59.0248	61	56
58.2371	59.0248	73	76
58.2371	59.0248	85	76
58.2388	59.0248	49	47
58.5094	59.0248	46	45
58.5111	59.0248	58	53
58.512	59.0248	70	57
58.512	59.0248	82	68
58.6494	59.0248	69	62
58.6494	59.0248	81	73
58.6512	59.0248	45	48
58.6512	59.0248	57	57
58.7737	59.0248	43	43
58.7737	59.0248	55	51
58.7753	59.0248	67	59
58.7753	59.0248	79	70
58.8986	59.0248	53	51
58.8994	59.0248	65	57
58.8994	59.0248	77	68
58.9002	59.0248	41	43
59.0217	59.2716	52	56
59.0225	59.2716	40	47
59.0225	59.2716	64	61
59.0225	59.2716	76	72
59.1431	59.2716	55	50
59.1446	59.2716	43	42
59.1446	59.2716	67	54
59.1446	59.2716	79	64
59.2656	59.5091	51	56
59.2656	59.5091	63	61
59.2656	59.5091	75	72
59.2671	59.5091	39	47
59.3834	59.5091	55	49
59.3856	59.5091	67	56
59.3856	59.5091	79	66
59.3864	59.5091	43	41
59.5047	60.1657	38	48
59.5047	60.1657	50	57
59.5047	60.1657	62	62
59.5047	60.1657	74	73
59.622	59.8577	43	42
59.6228	59.8592	55	50
59.6228	59.8584	67	56
59.6228	59.8584	79	66
59.7376	60.1657	37	48
59.7398	60.1657	49	57
59.7398	60.1657	61	62
59.7398	60.1657	73	74
59.8577	60.1207	43	42
59.8584	60.1217	67	56
59.8584	60.1217	79	67
59.8592	60.1198	55	50
59.9798	60.1657	34	51
59.9806	60.1657	46	60
59.9806	60.1657	58	63
59.9806	60.1657	70	75
60.1198	60.2144	55	61
60.1207	60.2152	43	49
60.1217	60.216	67	69
60.1217	60.216	79	86
60.3104	60.4386	33	45
60.3104	60.4386	45	54
60.3104	60.4386	57	63
60.3104	60.4386	69	74
60.5646	61.3725	52	44
60.5646	61.3725	64	52
60.5668	61.3725	76	63
60.5668	61.3725	88	74
60.84	61.3725	62	45
60.8417	61.3725	74	54
60.8417	61.3725	86	64
60.8434	61.3725	50	37
60.9745	61.3725	61	49
60.9754	61.3725	49	41
60.977	61.3725	73	60
60.977	61.3725	85	71
61.1041	61.3725	58	41
61.1065	61.3725	46	35
61.1065	61.3725	70	50
61.1065	61.3725	82	60
61.2321	61.3725	57	41
61.2344	61.3725	69	50
61.2344	61.3725	81	60
61.2353	61.3725	45	35
61.3685	62.0238	55	41
61.3685	62.0238	67	49
61.3701	62.0238	79	60
61.3701	62.0238	91	71
61.4992	62.0238	53	41
61.5	62.0238	77	59
61.5	62.0238	89	70
61.5016	62.0238	65	48
61.6299	62.0238	52	39
61.6299	62.0238	76	57
61.6299	62.0238	88	68
61.6307	62.0238	64	47
61.7581	62.0238	50	38
61.7598	62.0238	74	55
61.7598	62.0238	86	66
61.7606	62.0238	62	45
61.8888	62.0238	49	38
61.8896	62.0238	73	55
61.8896	62.0238	85	65
61.8913	62.0238	61	45
62.0187	62.6886	70	46
62.0195	62.6886	82	57
62.0195	62.6886	94	67
62.0212	62.6886	58	39
62.1557	62.6886	57	44
62.1557	62.6886	69	53
62.1565	62.6886	81	64
62.1565	62.6886	93	76
62.284	62.6886	55	43
62.2856	62.6886	79	62
62.2856	62.6886	91	74
62.2864	62.6886	67	51
62.413	62.6886	65	48
62.4138	62.6886	53	40
62.4146	62.6886	77	58
62.4146	62.6886	89	69
62.5436	62.6886	52	38
62.5436	62.6743	64	45
62.5436	62.6726	76	55
62.5436	62.6726	88	65
62.6726	63.4452	76	57
62.6726	63.4452	88	69
62.6726	63.4452	100	82
62.6743	63.4452	64	48
62.8057	63.4452	62	47
62.8073	63.4452	74	56
62.8073	63.4452	86	68
62.8073	63.4452	98	81
62.936	63.4452	61	46
62.936	63.4452	85	67
62.936	63.4452	97	79
62.9368	63.4452	73	55
63.063	63.3202	70	51
63.0646	63.3218	82	62
63.0646	63.3218	94	74
63.0654	63.3202	58	43
63.1916	63.4452	69	56
63.1932	63.4452	81	68
63.1932	63.4452	93	80
63.1948	63.4452	57	47
63.3202	63.4484	58	42
63.3202	63.4484	70	50
63.3218	63.45	82	61
63.3218	63.45	94	72
63.45	63.831	67	56
63.45	63.8318	79	68
63.45	63.8318	91	81
63.4508	63.8318	55	47
63.5761	64.7069	58	42
63.5777	64.7077	70	49
63.5777	64.7077	82	60
63.5777	64.8295	94	71
63.7026	64.8295	53	47
63.705	64.8295	65	56
63.705	64.8295	77	68
63.705	64.8295	89	80
63.831	64.0818	67	50
63.8318	64.0826	55	42
63.8318	64.0842	79	61
63.8318	64.0842	91	72
63.9559	64.3364	64	56
63.9582	64.3364	52	47
63.9582	64.3348	76	68
63.9582	64.3348	88	81
64.0818	64.8295	67	50
64.0826	64.8295	55	42
64.0842	64.8295	79	61
64.0842	64.8295	91	72
64.2089	64.8295	50	48
64.2097	64.8295	74	69
64.2097	64.8295	86	82
64.2105	64.8295	62	57
64.3348	64.5838	76	62
64.3348	64.5838	88	74
64.3364	64.583	52	43
64.3364	64.5838	64	51
64.4587	64.8295	49	47
64.4595	64.8295	73	68
64.4595	64.8295	85	81
64.4611	64.8295	61	56
64.583	64.8295	52	42
64.5838	64.8295	64	50
64.5838	64.8295	76	61
64.5838	64.8295	88	72
64.7069	64.8303	46	46
64.7069	64.8303	58	55
64.7077	64.831	70	67
64.7077	64.831	82	79
64.8303	66.1862	49	41
64.8303	66.1847	61	49
64.831	66.1847	73	59
64.831	67.0553	85	70
64.9534	66.6824	45	45
64.9534	66.6809	57	53
64.9541	66.6809	69	65
64.9541	67.0553	81	77
65.0757	65.321	46	39
65.0772	65.3233	70	57
65.0772	65.3233	82	68
65.078	65.3218	58	47
65.198	65.5687	55	51
65.2003	65.5694	67	62
65.2003	65.5694	79	74
65.2018	65.5679	43	43
65.321	66.4323	46	39
65.3218	66.4323	58	46
65.3233	66.4323	70	56
65.3233	67.0553	82	67
65.4456	67.0553	53	54
65.4464	67.0553	41	46
65.4464	67.0553	65	66
65.4464	67.0553	77	78
65.5679	65.8133	43	40
65.5687	65.8164	55	48
65.5694	65.8149	67	58
65.5694	65.8149	79	69
65.6921	66.0612	64	63
65.6921	66.0612	76	75
65.6937	66.0596	40	44
65.6937	66.0589	52	52
65.8133	67.0553	43	40
65.8149	67.0553	67	58
65.8149	67.0553	79	69
65.8164	67.0553	55	48
65.9372	67.0553	38	44
65.938	67.0553	50	53
65.938	67.0553	62	64
65.938	67.0553	74	76
66.0589	66.3061	52	49
66.0596	66.3084	40	41
66.0612	66.3084	64	59
66.0612	66.3084	76	70
66.1839	66.5549	37	44
66.1847	66.5565	61	64
66.1847	66.5565	73	76
66.1862	66.5557	49	53
66.3061	67.0553	52	48
66.3084	67.0553	40	40
66.3084	67.0553	64	58
66.3084	67.0553	76	69
66.4307	66.8047	34	45
66.4323	66.807	46	53
66.4323	66.8055	58	65
66.4323	66.8055	70	77
66.5549	67.0553	37	42
66.5557	67.0553	49	49
66.5565	67.0553	61	60
66.5565	67.0553	73	71
66.6809	67.0546	33	46
66.6809	67.0553	57	66
66.6809	67.0553	69	78
66.6824	67.0553	45	54
66.8047	67.0553	34	42
66.8055	67.0553	58	61
66.8055	67.0553	70	72
66.807	67.0553	46	50
66.9296	67.0553	44	55
66.9303	67.0553	32	46
66.9303	67.0553	56	67
66.9303	67.0553	68	79
67.0546	67.3077	33	42
67.0553	67.3061	57	60
67.0553	67.3061	69	71
67.0569	67.3069	45	49
67.1799	68.1784	43	55
67.1807	68.1784	31	46
67.1807	68.1784	55	67
67.1807	68.1784	67	79
67.3061	67.5569	57	61
67.3061	67.5569	69	72
67.3069	67.5569	45	50
67.3077	67.5569	33	42
67.4291	68.1784	30	46
67.4315	68.1784	54	67
67.4315	68.1784	66	79
67.433	68.1784	42	55
67.5569	67.8061	33	43
67.5569	67.8053	45	51
67.5569	67.8076	57	62
67.5569	67.8076	69	73
67.6815	68.1784	29	47
67.6815	68.1784	41	56
67.6823	68.1784	53	68
67.6823	68.1784	65	80
67.8053	68.0574	45	50
67.8061	68.0582	33	42
67.8076	68.059	57	61
67.8076	68.059	69	72
67.9323	68.1784	28	47
67.9331	68.1784	52	68
67.9331	68.1784	64	81
67.9339	68.1784	40	56
68.0574	68.181	45	51
68.0582	68.1816	33	43
68.059	68.1822	57	62
68.059	68.1822	69	74
68.1822	69.1556	51	68
68.1822	69.1556	63	81
68.1835	69.1556	27	47
68.1835	69.1556	39	56
68.3335	68.6465	45	49
68.3348	68.6485	33	42
68.3355	68.6472	57	60
68.3355	68.6472	69	71
68.4888	69.1556	24	48
68.4888	69.1556	36	57
68.4901	69.1556	48	69
68.4901	69.1556	60	82
68.6465	68.9706	45	52
68.6472	68.9698	57	63
68.6472	68.9698	69	75
68.6485	68.9706	33	44
68.8057	69.1556	25	49
68.8071	69.1556	49	70
68.8071	69.1556	61	83
68.8078	69.1556	37	58
68.9698	69.1556	57	65
68.9698	69.1556	69	77
68.9706	69.1567	33	45
68.9706	69.1556	45	53
69.1556	69.8811	38	59
69.1556	70.0158	45	59
69.1556	70.0158	50	74
69.1556	70.0158	74	76
69.1556	70.0158	77	76
69.1556	70.0158	86	97
69.3266	70.0323	52	48
69.3266	70.0323	56	60
69.4711	70.0323	53	50
69.4711	70.0323	57	63
69.6085	70.0323	61	51
69.6085	70.0323	64	65
69.7452	70.0323	62	54
69.7452	70.0323	65	67
69.8811	70.7175	38	75
70.0158	70.8736	45	62
70.0158	70.8736	50	78
70.0158	70.8736	74	75
70.0158	70.8736	77	79
70.0158	70.8736	86	101
70.1548	70.8736	52	48
70.1548	70.8736	56	60
70.2937	70.8736	53	50
70.2937	70.8736	57	63
70.4319	70.8736	61	51
70.4319	70.8736	64	65
70.5697	70.8736	62	54
70.5697	70.8736	65	67
70.7175	71.5604	38	75
70.7571	70.8736	72	70
70.7571	70.8736	84	89
70.8736	71.6949	43	63
70.8736	71.6949	50	79
70.8736	71.6949	70	75
70.8736	71.6949	76	77
70.8736	71.6949	82	100
71.0121	71.7411	54	48
71.0121	71.7411	57	60
71.1501	71.7411	55	50
71.1501	71.7411	58	63
71.2875	71.7411	63	51
71.2875	71.7411	66	65
71.4242	71.7411	64	54
71.4242	71.7411	67	67
71.5604	71.8343	38	75
71.6949	71.8343	43	59
71.6949	71.8343	50	75
71.6949	72.4224	70	72
71.6949	72.5412	76	72
71.6949	72.4224	82	92
71.8343	72.5412	54	48
71.8343	72.5412	57	60
71.9725	72.5412	55	50
71.9725	72.5412	58	63
72.11	72.5412	63	51
72.11	72.5412	66	65
72.2467	72.5412	64	54
72.2467	72.5412	67	67
72.3865	73.3821	37	75
72.4224	72.5412	70	70
72.4224	72.5412	82	89
72.5412	73.3821	45	59
72.5412	73.3985	49	75
72.5412	73.2645	69	75
72.5412	73.3821	76	75
72.5412	73.2645	81	95
72.6791	73.3985	51	48
72.6791	73.3985	54	60
72.8164	73.3985	52	50
72.8164	73.3985	55	63
72.953	73.3985	60	51
72.953	73.3985	63	65
73.089	73.3985	61	54
73.089	73.3985	64	67
73.2286	73.3985	33	75
73.2645	73.3985	69	70
73.2645	73.3985	81	89
73.3821	74.2111	37	68
73.3821	74.2111	45	75
73.3821	74.2111	76	75
73.3821	74.1043	79	75
73.3821	74.2111	88	95
73.5198	74.2111	51	47
73.5198	74.2111	54	59
73.657	74.2111	52	49
73.657	74.2111	55	61
73.7936	74.2111	60	48
73.7936	74.2111	63	62
73.9296	74.2111	61	51
73.9296	74.2111	64	63
74.0686	74.8966	38	70
74.1043	74.2111	67	57
74.1043	74.2111	79	74
74.2111	75.0364	50	69
74.2111	74.7586	65	61
74.2111	74.9318	69	61
74.2111	75.0477	77	78
74.2137	75.0364	45	59
74.349	75.0477	52	39
74.349	75.0477	56	50
74.4863	75.0477	53	40
74.4863	75.0477	57	50
74.6228	75.0477	61	40
74.6228	75.0477	64	51
74.7586	75.0364	62	41
74.7586	75.0364	65	52
74.8966	75.1748	38	63
74.9318	75.0477	69	53
74.9318	75.0477	81	69
75.0364	75.1748	45	46
75.0364	75.1748	50	58
75.0364	75.5853	62	58
75.0364	75.5853	65	58
75.0364	75.8795	74	73
75.1748	75.8795	52	35
75.1748	75.8795	56	45
75.3125	75.8795	53	35
75.3125	75.8795	57	45
75.4493	75.8795	61	36
75.4493	75.8795	64	45
75.5853	75.8795	62	36
75.5853	75.8795	65	45
75.7215	76.7325	36	57
75.8795	76.7325	43	45
75.8795	76.7161	48	57
75.8795	76.7161	72	57
75.8795	76.7325	76	57
75.8795	76.7161	84	73
76.0174	76.7325	51	37
76.0174	76.7325	54	46
76.1547	76.7161	52	38
76.1547	76.7325	55	48
76.2903	76.7325	59	39
76.2903	76.7325	63	50
76.4244	76.7325	60	42
76.4244	76.7325	64	51
76.5626	77.5412	40	57
76.7161	77.5412	48	55
76.7161	77.5412	52	57
76.7161	77.5412	72	57
76.7161	77.5412	79	57
76.7161	77.5412	84	73
76.8541	77.5412	54	37
76.8541	77.5412	59	46
76.9914	77.5412	55	38
76.9914	77.5412	60	48
77.127	77.5412	63	39
77.127	77.5412	66	50
77.2611	77.5412	64	42
77.2611	77.5412	67	51
77.3987	78.2229	41	57
77.4343	77.5412	70	48
77.4343	77.5412	82	62
77.5412	78.3637	48	55
77.5412	78.3637	53	57
77.5412	78.0861	68	51
77.5412	78.2581	72	51
77.5412	78.3749	80	66
77.6792	78.3749	55	32
77.6792	78.3749	59	43
77.8164	78.3749	56	34
77.8164	78.3749	60	44
77.952	78.3749	64	34
77.952	78.3749	67	45
78.0861	78.3637	65	37
78.0861	78.3637	68	46
78.2229	79.2016	41	57
78.2581	78.3749	72	49
78.2581	78.3749	84	63
78.3637	79.2016	48	42
78.3637	79.2016	53	54
78.3637	78.9086	65	54
78.3637	78.9086	68	54
78.3637	79.2016	77	68
78.5016	79.2016	55	32
78.5016	79.2016	58	42
78.6389	79.2016	56	33
78.6389	79.2016	60	43
78.7745	79.2016	64	34
78.7745	79.2016	67	44
78.9086	79.2016	65	36
78.9086	79.2016	68	44
79.0436	80.0546	39	57
79.2016	80.0546	46	48
79.2016	80.0382	51	60
79.2016	80.0382	75	60
79.2016	80.0546	79	60
79.2016	80.0382	87	79
79.3395	80.0546	54	39
79.3395	80.0546	57	49
79.4768	80.0382	55	40
79.4768	80.0546	58	51
79.6124	80.0546	62	42
79.6124	80.0546	66	54
79.7464	80.0546	63	44
79.7464	80.0546	67	55
79.8847	80.8633	43	61
80.0382	80.8633	51	59
80.0382	80.8633	55	61
80.0382	80.8633	75	61
80.0382	80.8633	82	61
80.0382	80.8633	87	79
80.1761	80.8633	57	38
80.1761	80.8633	62	49
80.3134	80.8633	58	42
80.3134	80.8633	63	52
80.449	80.8633	66	43
80.449	80.8633	69	54
80.5831	80.8633	67	44
80.5831	80.8633	70	55
80.7208	81.545	44	61
80.7564	80.8633	73	52
80.7564	80.8633	85	68
80.8633	81.6857	51	59
80.8633	81.6857	56	64
80.8633	81.4082	72	55
80.8633	81.6857	80	55
80.8633	81.6969	84	72
81.0012	81.6969	59	35
81.0012	81.6969	62	47
81.1385	81.6969	60	37
81.1385	81.6969	63	48
81.2741	81.6969	67	36
81.2741	81.6969	71	49
81.4082	81.6857	68	39
81.4082	81.6857	72	51
81.545	82.3656	44	64
81.5802	81.6969	75	53
81.5802	81.6969	87	71
81.6857	82.5203	51	46
81.6857	82.5203	56	59
81.6857	82.2306	68	59
81.6857	82.2306	72	59
81.6857	82.5203	80	75
81.8237	82.5203	59	35
81.8237	82.5203	62	46
81.961	82.5203	60	36
81.961	82.5203	63	47
82.0965	82.5203	67	37
82.0965	82.5203	71	48
82.2306	82.5203	68	39
82.2306	82.5203	72	49
82.3656	83.1918	44	64
82.5203	83.3453	50	47
82.5203	83.3453	56	59
82.5203	83.3453	77	59
82.5203	83.3453	83	59
82.5203	83.3453	89	76
82.6555	83.3615	61	38
82.6555	83.3615	64	48
82.7896	83.3615	62	39
82.7896	83.3615	65	50
82.9226	83.3615	70	40
82.9226	83.3615	73	52
83.0545	83.3615	71	44
83.0545	83.3615	74	53
83.1918	84.0167	44	59
83.3453	84.1562	50	57
83.3453	84.1562	56	59
83.3453	84.0516	77	59
83.3453	84.1562	83	59
83.3453	84.0516	89	76
83.4812	84.1562	61	39
83.4812	84.1562	64	48
83.6156	84.1562	62	40
83.6156	84.1562	65	50
83.7486	84.1562	70	41
83.7486	84.1562	73	53
83.8803	84.1562	71	44
83.8803	84.1562	74	54
84.0167	84.8286	44	60
84.0516	84.1562	77	50
84.0516	84.1562	89	65
84.1562	84.978	51	58
84.1562	84.9671	56	60
84.1562	84.9671	80	67
84.1562	84.978	84	67
84.1562	84.978	92	79
84.2923	84.978	59	34
84.2923	84.978	62	46
84.4276	84.978	60	36
84.4276	84.978	63	47
84.5613	84.978	67	46
84.5613	84.978	71	55
84.6936	84.978	68	46
84.6936	84.978	72	55
84.8286	85.632	44	60
84.9671	85.7682	48	44
84.9671	85.7682	56	57
84.9671	85.7682	75	56
84.9671	85.7682	80	62
84.9671	85.7682	87	72
85.1014	85.7682	59	34
85.1014	85.7682	62	44
85.2348	85.7682	60	35
85.2348	85.7682	63	46
85.3671	85.7682	67	45
85.3671	85.7682	71	53
85.4983	85.7682	68	45
85.4983	85.7682	72	53
85.632	86.4372	44	61
85.7682	86.5744	50	48
85.7682	86.5744	56	61
85.7682	86.5744	77	61
85.7682	86.5744	83	61
85.7682	86.5744	89	78
85.9029	86.5902	61	39
85.9029	86.5902	64	49
86.0376	86.5902	62	41
86.0376	86.5902	65	52
86.171	86.5902	70	42
86.171	86.5902	73	54
86.3025	86.5902	71	45
86.3025	86.5902	74	55
86.4372	87.2401	44	62
86.5744	87.3815	50	59
86.5744	87.3815	56	62
86.5744	87.2757	77	62
86.5744	87.3815	83	62
86.5744	87.2757	89	79
86.7078	87.3815	61	40
86.7078	87.3815	64	50
86.8411	87.3815	62	41
86.8411	87.3815	65	52
86.9732	87.3815	70	42
86.9732	87.3815	73	55
87.1039	87.3815	71	46
87.1039	87.3815	74	56
87.2401	88.0441	44	62
87.2757	87.3815	77	52
87.2757	87.3815	89	68
87.3815	88.1948	51	49
87.3815	88.1789	56	62
87.3815	88.1789	80	62
87.3815	88.1948	84	62
87.3815	88.1789	92	80
87.5149	88.1948	59	40
87.5149	88.1948	62	50
87.6484	88.1948	60	41
87.6484	88.1948	63	52
87.7807	88.1948	67	43
87.7807	88.1948	71	55
87.9111	88.1948	68	46
87.9111	88.1948	72	56
88.0441	88.8465	44	63
88.1789	88.8465	56	63
88.1789	88.8822	80	63
88.1789	88.8822	92	81
88.3129	89.0131	61	41
88.3129	89.0131	64	51
88.4459	89.0131	62	42
88.4459	89.0131	65	53
88.5781	89.0131	70	43
88.5781	89.0131	73	56
88.7094	89.0131	71	47
88.7094	89.0131	74	57
88.8465	89.0131	44	63
88.8465	89.0131	56	63
88.8822	89.0131	80	53
88.8822	89.0131	92	69
89.0131	89.7761	45	63
89.0131	89.7761	57	63
89.0131	89.7761	81	73
89.0131	89.7761	93	87
89.1401	89.7761	64	41
89.1401	89.7761	68	51
89.2663	89.7761	65	42
89.2663	89.7761	69	53
89.3914	89.7761	73	43
89.3914	89.7761	76	56
89.5157	89.7761	74	47
89.5157	89.7617	77	57
89.6391	90.4907	41	64
89.7617	90.4907	53	64
89.7617	90.4907	77	69
89.7617	90.4907	89	82
89.8833	90.4907	61	41
89.8833	90.4907	64	51
90.0048	90.4907	62	42
90.0048	90.4907	65	54
90.1264	90.4907	68	44
90.1264	90.4907	73	56
90.248	90.4907	69	47
90.248	90.4907	74	58
90.3696	91.2191	38	64
90.4907	91.2191	50	64
90.4907	91.2191	74	72
90.4907	91.2191	86	85
90.6097	91.2191	56	42
90.6097	91.2191	61	52
90.7288	91.2191	57	43
90.7288	91.2191	62	54
90.8478	91.2191	64	44
90.8478	91.2191	68	57
90.9669	91.2191	65	48
90.9669	91.205	69	58
91.0859	91.9247	33	65
91.205	91.9247	45	65
91.205	91.9247	69	55
91.205	91.9247	81	83
91.324	91.9247	52	42
91.324	91.9247	56	52
91.4431	91.9247	53	43
91.4431	91.9247	57	55
91.5621	91.9247	61	44
91.5621	91.9247	64	57
91.683	91.9247	62	48
91.683	91.9247	65	58
91.8038	92.6387	34	66
91.9247	92.6387	46	66
91.9247	92.6387	70	74
91.9247	92.6387	82	88
92.0413	92.6387	54	42
92.0413	92.6387	57	53
92.1579	92.6387	55	44
92.1579	92.6387	58	55
92.2746	92.6387	62	45
92.2746	92.6387	66	58
92.3912	92.6387	63	48
92.3912	92.6244	67	59
92.5078	93.3473	31	66
92.6244	93.3473	43	66
92.6244	93.3473	67	72
92.6244	93.3473	79	85
92.7449	93.3473	50	43
92.7449	93.3473	54	53
92.8654	93.3473	51	44
92.8654	93.3473	55	56
92.9859	93.3473	57	45
92.9859	93.3473	62	58
93.1064	93.3473	58	49
93.1064	93.3473	63	59
93.2268	94.0715	28	66
93.3473	94.0715	40	67
93.3473	94.0715	64	73
93.3473	94.0715	76	86
93.4657	94.0574	45	43
93.4657	94.0715	49	54
93.584	94.0715	46	44
93.584	94.0715	50	56
93.7023	94.0715	54	46
93.7023	94.0715	57	59
93.8207	94.0715	55	49
93.8207	94.0715	58	60
93.939	94.6824	33	67
94.0574	94.6824	45	67
94.0574	94.6824	69	72
94.0574	94.7935	81	85
94.1764	94.7935	51	44
94.1764	94.7935	54	54
94.2955	94.7935	52	45
94.2955	94.7935	55	57
94.4145	94.7935	60	46
94.4145	94.7935	63	59
94.5336	94.7935	61	49
94.5336	94.7935	64	60
94.6824	94.7935	33	64
94.6824	94.7935	45	64
94.6824	94.7935	57	52
94.6824	94.7935	69	73
94.7935	96.0572	38	62
94.7935	96.0572	50	74
94.7935	96.0572	62	62
94.7935	96.0572	74	86
95.0311	96.0572	52	37
95.0311	96.0572	56	56
95.1496	96.0572	54	45
95.1496	96.0572	57	54
95.2675	96.0572	64	51
95.2675	96.0572	68	61
95.3849	96.0572	65	54
95.3849	96.0572	69	64
95.5017	96.0572	76	56
95.5017	96.0572	80	67
95.6179	96.0572	77	59
95.6179	96.0572	81	70
95.7336	96.0572	88	62
95.7336	96.0572	92	73
95.8487	96.0977	89	70
95.8487	96.0977	93	83
96.2222	96.3403	38	60
96.2222	96.3403	50	71
96.2222	96.3403	62	66
96.2222	96.3403	74	78
96.3403	97.6058	38	62
96.3403	97.6058	45	62
96.3403	97.6058	50	74
96.3403	96.9317	72	62
96.3403	97.6058	78	62
96.3403	97.1647	84	86
96.5779	97.6058	56	37
96.5779	97.6058	59	56
96.6964	97.6058	57	45
96.6964	97.6058	60	54
96.8143	97.6058	68	51
96.8143	97.6058	71	61
96.9317	97.6058	69	54
96.9317	97.6058	72	64
97.0485	97.6058	80	56
97.0485	97.6058	83	67
97.1647	97.6058	81	59
97.1647	97.6058	84	70
97.2804	97.6058	92	62
97.2804	97.6058	95	73
97.3955	97.6466	93	70
97.3955	97.6466	96	83
97.7721	97.8897	38	60
97.7721	97.8897	50	71
97.7721	97.8897	62	66
97.7721	97.8897	74	78
97.8897	99.1397	38	62
97.8897	99.1397	44	62
97.8897	99.1397	50	74
97.8897	98.4812	71	62
97.8897	99.1397	77	62
97.8897	98.7142	83	86
98.1273	99.1397	55	37
98.1273	99.1397	58	56
98.2459	99.1397	56	45
98.2459	99.1397	59	54
98.3638	99.1397	67	51
98.3638	99.1397	70	61
98.4812	99.1397	68	54
98.4812	99.1397	71	64
98.5979	99.1397	79	56
98.5979	99.1397	82	67
98.7142	99.1397	80	59
98.7142	99.1397	83	70
98.8299	99.1397	91	62
98.8299	99.1397	94	73
98.945	99.1775	92	70
98.945	99.1775	95	83
99.2938	99.4101	38	60
99.2938	99.4101	50	71
99.2938	99.4101	62	66
99.2938	99.4101	74	78
99.4101	100.037	34	67
99.4101	100.037	46	67
99.4101	100.037	70	73
99.4101	100.037	82	86
99.5295	100.141	51	43
99.5295	100.141	54	54
99.649	100.141	52	44
99.649	100.141	55	56
99.7685	100.141	60	46
99.7685	100.141	63	59
99.888	100.141	61	49
99.888	100.141	64	60
100.037	100.141	34	67
100.037	100.141	46	67
100.037	100.141	70	73
100.037	100.141	82	73
100.127	100.865	33	67
100.127	100.865	45	67
100.127	100.865	69	72
100.127	100.865	81	85
100.246	100.865	51	44
100.246	100.865	54	54
100.366	100.865	52	45
100.366	100.865	55	57
100.485	100.865	60	46
100.485	100.865	63	59
100.605	100.865	61	49
100.605	100.865	64	60
100.754	100.865	31	64
100.754	100.865	43	64
100.754	100.865	67	52
100.754	100.865	79	73
100.865	102.151	38	62
100.865	102.151	45	62
100.865	102.151	50	74
100.865	102.151	62	62
100.865	101.457	66	62
100.865	102.151	74	86
101.103	102.151	52	37
101.103	102.151	56	56
101.221	102.151	54	45
101.221	102.151	57	54
101.339	102.151	65	51
101.339	102.151	68	61
101.457	102.151	66	54
101.457	102.151	69	64
101.574	102.151	77	56
101.574	102.151	80	67
101.69	102.151	78	59
101.69	102.151	81	70
101.805	102.151	89	62
101.805	102.151	92	73
101.921	102.196	90	70
101.921	102.196	93	83
102.333	102.46	38	60
102.333	102.46	50	71
102.333	102.46	62	66
102.333	102.46	74	78
102.46	103.724	39	62
102.46	103.724	45	62
102.46	103.724	51	74
102.46	103.052	72	62
102.46	103.724	78	62
102.46	103.285	84	86
102.698	103.724	56	37
102.698	103.724	59	56
102.817	103.724	57	45
102.817	103.724	60	54
102.935	103.724	68	51
102.935	103.724	71	61
103.052	103.724	69	54
103.052	103.724	72	64
103.169	103.724	80	56
103.169	103.724	83	67
103.285	103.724	81	59
103.285	103.724	84	70
103.401	103.724	92	62
103.401	103.724	95	73
103.516	103.765	93	70
103.516	103.765	96	83
103.889	104.007	38	60
103.889	104.007	50	71
103.889	104.007	62	66
103.889	104.007	74	78
104.007	105.261	39	62
104.007	105.261	44	62
104.007	105.261	51	74
104.007	104.599	71	62
104.007	105.261	77	62
104.007	104.832	83	86
104.245	105.261	55	37
104.245	105.261	58	56
104.363	105.261	56	45
104.363	105.261	59	54
104.481	105.261	67	51
104.481	105.261	70	61
104.599	105.261	68	54
104.599	105.261	71	64
104.716	105.261	79	56
104.716	105.261	82	67
104.832	105.261	80	59
104.832	105.261	83	70
104.947	105.261	91	62
104.947	105.261	94	73
105.063	105.3	92	70
105.063	105.3	95	83
105.418	105.531	38	60
105.418	105.531	50	71
105.418	105.531	62	66
105.418	105.531	74	78
105.531	106.159	34	67
105.531	106.159	46	67
105.531	106.159	70	73
105.531	106.159	82	86
105.651	106.262	51	43
105.651	106.262	54	54
105.77	106.262	52	44
105.77	106.262	55	56
105.89	106.262	60	46
105.89	106.262	63	59
106.009	106.262	61	49
106.009	106.262	64	60
106.159	106.262	34	67
106.159	106.262	46	67
106.159	106.262	70	73
106.159	106.262	82	73
106.248	106.987	33	67
106.248	106.987	45	67
106.248	106.987	69	72
106.248	106.987	81	85
106.368	106.987	51	44
106.368	106.987	54	54
106.487	106.987	52	45
106.487	106.987	55	57
106.607	106.987	60	46
106.607	106.987	63	59
106.726	106.987	61	49
106.726	106.987	64	60
106.876	106.987	31	64
106.876	106.987	43	64
106.876	106.987	67	52
106.876	106.987	79	73
106.987	107.147	38	52
106.987	107.147	45	52
106.987	107.147	50	67
106.987	107.147	62	62
106.987	107.147	66	62
106.987	107.147	74	78
107.307	107.593	67	56
107.307	107.593	76	39
107.307	107.593	85	46
107.307	107.593	94	70
107.402	107.593	75	39
107.402	107.593	84	46
107.497	107.593	74	39
107.497	107.593	83	47
107.592	107.88	64	59
107.592	107.88	73	40
107.592	107.88	82	48
107.592	107.88	91	73
107.687	107.88	72	41
107.687	107.88	81	48
107.781	107.88	71	41
107.781	107.88	80	49
107.876	108.163	61	62
107.876	108.163	70	41
107.876	108.163	79	50
107.876	108.163	88	77
107.97	108.163	69	42
107.97	108.163	78	50
108.064	108.163	68	43
108.064	108.163	77	51
108.157	108.45	58	65
108.157	108.45	67	43
108.157	108.45	76	51
108.157	108.45	85	80
108.437	108.727	43	34
108.437	108.727	49	56
108.437	108.727	52	39
108.437	108.727	55	39
108.437	108.727	70	47
108.437	108.727	82	84
108.534	108.727	73	60
108.63	108.727	76	60
108.727	108.884	50	57
108.727	108.884	54	57
108.727	108.884	57	57
108.727	108.884	62	73
108.727	108.884	74	68
108.727	108.884	78	68
108.727	108.884	86	85
109.041	109.331	55	56
109.041	109.331	64	39
109.041	109.331	73	46
109.041	109.331	82	70
109.138	109.331	63	39
109.138	109.331	72	46
109.234	109.331	62	39
109.234	109.331	71	47
109.33	109.62	52	59
109.33	109.62	61	40
109.33	109.62	70	48
109.33	109.62	79	73
109.426	109.62	60	41
109.426	109.62	69	48
109.521	109.62	59	41
109.521	109.62	68	49
109.616	109.905	49	62
109.616	109.905	58	41
109.616	109.905	67	50
109.616	109.905	76	77
109.711	109.905	57	42
109.711	109.905	66	50
109.806	109.905	56	43
109.806	109.905	65	51
109.9	110.194	46	65
109.9	110.181	55	43
109.9	110.194	64	51
109.9	110.194	73	80
110.181	110.48	43	34
110.181	110.48	49	56
110.181	110.48	52	39
110.181	110.48	55	39
110.181	110.48	58	47
110.181	110.48	70	84
110.281	110.48	61	60
110.381	110.48	64	60
110.48	110.625	38	57
110.48	110.625	42	57
110.48	110.625	45	57
110.48	110.625	50	73
110.48	110.625	62	73
110.48	110.625	66	73
110.48	110.625	74	93
110.769	111.059	43	53
110.769	111.059	46	53
110.769	111.059	49	53
110.769	111.059	55	53
110.769	111.059	64	57
110.769	111.063	76	70
110.867	111.059	70	57
110.965	111.063	73	57
111.063	111.207	50	54
111.063	111.207	54	54
111.063	111.207	57	54
111.063	111.207	62	54
111.063	111.207	66	71
111.063	111.207	69	71
111.063	111.207	78	90
111.351	111.649	43	54
111.351	111.649	46	54
111.351	111.649	49	54
111.351	111.649	55	54
111.351	111.649	70	58
111.351	111.649	82	71
111.448	111.649	73	58
111.545	111.649	76	59
111.643	111.786	38	55
111.643	111.786	42	55
111.643	111.786	45	55
111.643	111.786	50	55
111.643	111.786	74	72
111.643	111.786	78	72
111.643	111.786	86	91
111.929	112.223	31	56
111.929	112.223	34	56
111.929	112.223	37	56
111.929	112.223	43	56
111.929	112.223	76	60
111.929	112.223	88	73
112.027	112.223	82	60
112.125	112.223	85	60
112.223	112.366	38	57
112.223	112.366	42	57
112.223	112.366	45	57
112.223	112.366	50	74
112.223	112.366	78	74
112.223	112.366	81	74
112.223	112.366	90	94
112.51	112.801	31	57
112.51	112.801	34	57
112.51	112.801	37	57
112.51	112.801	43	57
112.51	112.801	82	61
112.51	112.804	94	75
112.608	112.801	85	61
112.706	112.804	88	62
112.804	112.948	38	57
112.804	112.948	42	57
112.804	112.948	45	57
112.804	112.948	50	57
112.804	112.948	86	75
112.804	112.948	90	75
112.804	112.948	98	96
113.092	113.393	31	58
113.092	113.393	34	58
113.092	113.393	37	58
113.092	113.393	43	58
113.092	113.393	82	63
113.092	113.393	94	77
113.19	113.393	85	63
113.289	113.393	88	63
113.387	113.531	38	59
113.387	113.531	42	59
113.387	113.531	45	59
113.387	113.531	50	59
113.387	113.531	86	77
113.387	113.531	90	77
113.387	113.531	98	98
113.674	113.971	31	59
113.674	113.971	34	59
113.674	113.971	37	59
113.674	113.971	43	59
113.674	113.971	82	64
113.674	113.971	94	78
113.772	113.971	85	64
113.87	113.971	88	64
113.968	115.705	38	59
113.968	115.559	42	59
113.968	115.415	45	59
113.968	115.702	50	59
113.968	114.551	86	66
113.968	115.705	90	78
113.968	115.705	98	78
114.114	114.695	82	63
114.114	115.705	94	75
114.261	114.839	69	56
114.261	115.705	81	66
114.406	114.983	66	56
114.406	115.705	78	66
114.551	115.127	74	62
114.551	115.705	86	74
114.695	115.271	70	62
114.695	115.705	82	74
114.839	115.415	57	51
114.839	115.705	69	61
114.983	115.559	54	51
114.983	115.705	66	61
115.127	115.702	62	62
115.127	115.705	74	73
115.271	115.705	58	62
115.271	115.705	70	73
115.415	115.705	45	52
115.415	115.705	57	62
115.559	115.705	42	52
115.559	115.705	54	62
115.702	115.991	50	61
115.702	115.991	62	72
115.847	117.465	36	47
115.847	117.465	48	56
115.991	116.28	50	60
115.991	116.28	62	71
116.136	117.465	35	45
116.136	117.465	47	54
116.28	116.57	50	59
116.28	116.57	62	70
116.425	117.465	34	45
116.425	117.465	46	53
116.57	116.863	50	58
116.57	116.863	62	69
116.716	117.465	31	43
116.716	117.465	43	51
116.863	117.161	50	57
116.863	117.161	62	68
117.011	117.465	32	41
117.011	117.465	44	49
117.161	117.465	50	56
117.161	117.465	62	67
117.312	117.465	33	39
117.312	117.465	45	47
117.465	117.583	26	46
117.465	117.583	38	56
117.543	117.62	39	50
117.543	117.62	51	61
117.62	117.723	28	46
117.62	117.723	40	56
117.698	117.775	41	50
117.698	117.775	53	61
117.775	117.881	30	46
117.775	117.881	42	56
117.852	117.929	43	50
117.852	117.929	55	61
117.929	118.039	32	46
117.929	118.039	44	56
118.006	118.083	45	50
118.006	118.083	57	61
118.083	118.192	34	46
118.083	118.192	46	56
118.16	118.237	47	50
118.16	118.237	59	61
118.237	118.35	36	46
118.237	118.35	48	56
118.313	118.39	49	50
118.313	118.39	61	61
118.39	118.495	38	46
118.39	118.495	50	56
118.466	118.543	51	50
118.466	118.543	63	61
118.543	118.67	40	46
118.543	118.67	52	56
118.619	118.695	53	50
118.619	118.695	65	61
118.695	118.822	42	46
118.695	118.822	54	56
118.771	118.848	55	52
118.771	118.848	67	62
118.848	118.96	44	48
118.848	118.96	56	57
118.923	118.999	57	54
118.923	118.999	69	63
118.999	119.1	46	49
118.999	119.1	58	58
119.075	119.151	59	55
119.075	119.151	71	66
119.151	119.255	48	51
119.151	119.255	60	61
119.227	119.367	61	56
119.227	119.367	73	67
119.302	119.378	50	52
119.302	119.378	62	62
119.378	119.453	63	57
119.378	119.453	75	68
119.453	119.553	52	54
119.453	119.553	64	63
119.528	119.604	65	58
119.528	119.604	77	69
119.604	119.693	54	54
119.604	119.693	66	64
119.679	119.754	67	58
119.679	119.754	79	70
119.754	119.864	56	55
119.754	119.864	68	66
119.829	119.904	69	60
119.829	119.904	81	72
119.904	120.039	58	56
119.904	120.039	70	67
119.979	120.054	71	61
119.979	120.054	83	73
120.054	120.167	60	57
120.054	120.167	72	68
120.128	120.202	73	74
120.128	120.202	85	74
120.202	120.319	62	58
120.202	120.319	74	69
120.277	120.351	73	63
120.277	120.351	85	75
120.351	120.436	60	57
120.351	120.436	72	68
120.425	120.499	71	62
120.425	120.499	83	74
120.499	120.613	58	56
120.499	120.613	70	67
120.574	120.648	69	61
120.574	120.648	81	73
120.648	120.783	56	55
120.648	120.783	68	66
120.722	120.797	67	60
120.722	120.797	79	72
120.797	120.928	54	54
120.797	120.928	66	64
120.871	120.946	65	58
120.871	120.946	77	70
120.946	121.048	52	54
120.946	121.048	64	63
121.02	121.205	63	58
121.02	121.205	75	69
121.095	121.205	50	52
121.095	121.205	62	62
121.169	121.244	61	57
121.169	121.244	73	68
121.244	121.393	48	51
121.244	121.393	60	61
121.319	121.393	59	56
121.319	121.393	71	67
121.393	121.551	46	50
121.393	121.551	58	60
121.468	121.551	57	55
121.468	121.551	69	66
121.543	121.697	44	49
121.543	121.697	56	58
121.619	121.697	55	52
121.619	121.697	67	62
121.694	121.849	42	48
121.694	121.849	54	57
121.77	121.849	53	50
121.77	121.849	65	61
121.846	122.002	40	46
121.846	122.002	52	56
121.922	122.002	51	50
121.922	122.002	63	61
121.999	122.148	38	46
121.999	122.148	50	55
122.075	122.152	49	50
122.075	122.152	61	60
122.152	122.313	36	45
122.152	122.313	48	54
122.229	122.313	47	48
122.229	122.313	59	57
122.306	122.469	34	44
122.306	122.469	46	52
122.384	122.469	45	46
122.384	122.469	57	56
122.462	122.64	32	43
122.462	122.64	44	51
122.541	122.64	43	45
122.541	122.64	55	55
122.621	122.79	30	42
122.621	122.79	42	50
122.701	122.79	41	44
122.701	122.79	53	54
122.783	122.948	28	40
122.783	122.948	40	49
122.865	122.948	39	44
122.865	122.948	51	52
122.948	124.745	26	49
122.948	123.743	38	49
123.743	124.745	38	42
123.743	124.243	50	42
124.243	124.834	50	43
124.243	124.834	62	43
124.896	125.791	46	29
124.958	125.842	53	35
125.021	125.893	58	40
125.083	125.254	62	52
125.254	125.943	62	25
125.254	126.645	65	30
125.398	126.497	70	26
125.398	125.536	74	31
125.536	126.359	74	27
125.536	126.359	77	32
125.673	126.221	82	28
125.673	125.808	86	33
125.741	126.649	34	29
125.791	126.649	46	32
125.808	126.082	86	28
125.808	126.082	89	34
125.842	126.649	53	35
125.893	126.649	58	38
125.943	126.645	62	49
125.943	126.649	94	29
125.943	126.649	98	35
126.082	126.221	86	31
126.082	126.649	89	37
126.221	126.649	82	29
126.221	126.649	86	35
126.359	126.497	74	28
126.359	126.649	77	34
126.497	126.649	70	27
126.497	126.649	74	32
126.566	126.714	60	46
126.645	126.704	62	25
126.645	126.704	65	30
126.714	127.512	46	35
126.744	127.562	50	38
126.773	127.613	53	42
126.803	127.663	58	52
126.974	128.365	62	25
126.974	128.365	65	30
127.118	128.217	70	26
127.118	127.256	74	31
127.256	128.079	74	27
127.256	128.079	77	32
127.393	127.941	82	28
127.393	127.529	86	33
127.461	128.404	34	33
127.512	128.404	46	36
127.529	127.802	86	28
127.529	127.802	89	34
127.562	128.404	50	40
127.613	128.404	53	44
127.663	128.286	58	48
127.663	128.404	94	29
127.663	128.404	98	35
127.802	127.941	86	31
127.802	128.404	89	37
127.941	128.404	82	29
127.941	128.404	86	35
128.079	128.217	74	28
128.079	128.404	77	34
128.217	128.404	70	27
128.217	128.404	74	32
128.286	128.434	58	49
128.365	128.424	62	25
128.365	128.424	65	30
128.434	130.143	46	35
128.464	130.143	51	39
128.493	129.344	54	42
128.523	129.181	57	52
128.694	130.103	63	25
128.694	129.402	66	30
128.839	129.955	72	26
128.839	128.976	75	31
128.976	129.818	75	27
128.976	129.818	78	32
129.113	129.679	84	28
129.113	129.249	87	33
129.181	129.374	57	56
129.249	129.541	87	28
129.249	129.541	90	34
129.344	130.143	54	40
129.374	130.024	57	43
129.402	130.103	66	60
129.402	130.143	96	29
129.402	130.143	99	35
129.541	129.679	87	31
129.541	130.143	90	37
129.679	130.143	84	29
129.679	130.143	87	35
129.818	129.955	75	28
129.818	130.143	78	34
129.955	130.143	72	27
129.955	130.143	75	32
130.024	130.202	57	49
130.103	130.163	63	25
130.103	130.163	66	30
130.202	131.735	46	37
130.232	131.735	53	44
130.261	131.735	60	55
130.432	131.735	62	25
130.432	131.735	65	30
130.577	131.66	70	26
130.577	130.714	74	31
130.714	131.524	74	27
130.714	131.524	77	32
130.851	131.389	82	28
130.851	130.987	86	33
130.987	131.255	86	28
130.987	131.255	89	34
131.121	131.735	58	50
131.121	131.735	94	29
131.121	131.735	98	35
131.255	131.389	86	31
131.255	131.735	89	37
131.389	131.735	82	29
131.389	131.735	86	35
131.524	131.66	74	28
131.524	131.735	77	34
131.66	132.29	70	27
131.66	132.29	74	32
131.808	131.975	62	25
131.808	133.541	65	30
131.881	132.683	50	29
131.912	132.734	55	35
131.944	132.785	58	40
131.975	132.146	62	52
132.146	132.835	62	25
132.146	133.537	67	30
132.29	133.389	70	26
132.29	132.428	74	31
132.428	133.251	74	27
132.428	133.251	79	32
132.564	133.113	82	28
132.564	132.7	86	33
132.632	133.541	31	29
132.658	133.541	43	29
132.683	133.541	50	32
132.7	132.974	86	28
132.7	132.974	91	34
132.734	133.541	55	35
132.785	133.541	58	38
132.835	133.537	62	49
132.835	133.541	94	29
132.835	133.541	98	35
132.974	133.113	86	31
132.974	133.541	91	37
133.113	133.541	82	29
133.113	133.541	86	35
133.251	133.389	74	28
133.251	133.541	79	34
133.389	133.541	70	27
133.389	133.541	74	32
133.457	133.606	60	46
133.537	133.866	62	25
133.537	133.866	67	30
133.635	134.403	43	35
133.665	134.454	50	38
133.695	134.555	58	52
133.866	135.257	62	25
133.866	135.257	67	30
134.01	135.109	70	26
134.01	134.148	74	31
134.148	134.971	74	27
134.148	134.971	79	32
134.284	134.833	82	28
134.284	134.42	86	33
134.352	135.296	31	33
134.403	135.296	43	36
134.42	134.694	86	28
134.42	134.694	91	34
134.454	135.296	50	40
134.505	135.296	55	44
134.555	135.178	58	48
134.555	135.296	94	29
134.555	135.296	98	35
134.694	134.833	86	31
134.694	135.296	91	37
134.833	135.296	82	29
134.833	135.296	86	35
134.971	135.109	74	28
134.971	135.296	79	34
135.109	135.296	70	27
135.109	135.296	74	32
135.178	135.326	58	49
135.257	137.035	62	25
135.257	135.586	67	30
135.326	137.035	48	35
135.356	137.035	52	39
135.385	137.035	58	42
135.415	137.035	61	52
135.586	136.916	64	25
135.586	136.995	67	30
135.73	136.293	70	26
135.73	135.868	76	31
135.868	136.709	76	27
135.868	136.709	79	32
136.005	136.571	82	28
136.005	136.14	88	33
136.073	136.266	60	56
136.14	136.432	88	28
136.14	136.432	91	34
136.235	137.035	55	40
136.266	137.035	60	43
136.293	136.847	70	60
136.293	137.035	94	29
136.293	137.035	100	35
136.432	136.571	88	31
136.432	137.035	91	37
136.571	137.035	82	29
136.571	137.035	88	35
136.709	136.847	76	28
136.709	137.035	79	34
136.847	137.035	70	27
136.847	137.035	76	32
136.916	137.094	64	49
136.995	138.777	67	30
137.064	138.777	41	37
137.094	138.777	48	37
137.124	138.777	57	44
137.153	137.324	65	55
137.324	138.7	65	25
137.324	138.7	69	30
137.469	138.552	72	26
137.469	137.606	77	31
137.606	138.416	77	27
137.606	138.416	81	32
137.743	138.281	84	28
137.743	137.879	89	33
137.879	138.147	89	28
137.879	138.147	93	34
138.013	138.777	96	29
138.013	138.777	101	35
138.147	138.281	89	31
138.147	138.777	93	37
138.281	138.777	84	29
138.281	138.777	89	35
138.416	138.552	77	28
138.416	138.777	81	34
138.552	138.777	72	27
138.552	138.777	77	32
138.7	138.866	65	27
138.7	138.866	69	30
138.773	139.575	49	29
138.804	139.626	56	35
138.835	139.677	61	40
138.866	139.037	65	52
139.037	139.727	65	25
139.037	140.428	68	30
139.182	140.281	73	26
139.182	139.319	77	31
139.319	140.143	77	27
139.319	140.143	80	32
139.456	140.005	85	28
139.456	139.592	89	33
139.524	140.473	37	29
139.575	140.473	49	32
139.592	139.866	89	28
139.592	139.866	92	34
139.626	140.473	56	35
139.677	140.473	61	38
139.727	140.349	65	49
139.727	140.473	97	29
139.727	140.473	101	35
139.866	140.005	89	31
139.866	140.473	92	37
140.005	140.473	85	29
140.005	140.473	89	35
140.143	140.281	77	28
140.143	140.473	80	34
140.281	140.473	73	27
140.281	140.473	77	32
140.349	140.498	65	46
140.428	140.488	68	30
140.498	141.346	56	35
140.527	142.098	61	38
140.557	140.758	63	42
140.587	140.758	68	52
140.758	141.447	63	25
140.758	142.098	68	30
140.902	142.098	73	26
140.902	141.039	75	31
141.039	141.863	75	27
141.039	141.863	80	32
141.176	142.098	85	28
141.176	141.312	87	33
141.244	142.098	44	33
141.295	142.098	51	36
141.312	141.586	87	28
141.312	141.586	92	34
141.346	142.098	56	40
141.397	142.098	60	44
141.447	142.098	63	48
141.447	142.098	96	29
141.447	142.098	99	35
141.586	141.725	87	31
141.586	142.098	92	37
141.725	142.098	84	29
141.725	142.098	87	35
141.863	142.001	75	28
141.863	142.098	80	34
142.001	142.631	72	27
142.001	142.631	75	32
142.149	142.316	63	28
142.149	143.882	68	30
142.222	143.024	48	29
142.253	143.075	55	35
142.285	143.126	60	40
142.316	142.487	63	52
142.487	143.176	63	25
142.487	143.878	67	30
142.631	143.73	72	26
142.631	142.769	75	31
142.769	143.592	75	27
142.769	143.592	79	32
142.905	143.454	84	28
142.905	143.041	87	33
142.973	143.882	36	29
143.024	143.882	48	32
143.041	143.315	87	28
143.041	143.315	91	34
143.075	143.882	55	35
143.126	143.882	60	38
143.176	143.798	63	49
143.176	143.882	96	29
143.176	143.882	99	35
143.315	143.454	87	31
143.315	143.882	91	37
143.454	143.882	84	29
143.454	143.882	87	35
143.592	143.73	75	28
143.592	143.882	79	34
143.73	143.882	72	27
143.73	143.882	75	32
143.798	143.947	63	46
143.878	143.957	67	30
143.947	144.795	55	35
143.976	145.532	60	38
144.006	144.207	62	42
144.036	144.207	67	52
144.207	144.896	62	25
144.207	145.532	67	30
144.351	145.532	72	26
144.351	144.489	74	31
144.489	145.312	74	27
144.489	145.312	79	32
144.625	145.532	84	28
144.625	144.761	86	33
144.693	145.532	43	33
144.744	145.532	50	36
144.761	145.035	86	28
144.761	145.035	91	34
144.795	145.532	55	40
144.846	145.532	59	44
144.896	145.532	62	48
144.896	145.532	95	29
144.896	145.532	98	35
145.035	145.174	86	31
145.035	145.532	91	37
145.174	145.532	83	29
145.174	145.532	86	35
145.312	145.45	74	28
145.312	145.532	79	34
145.45	147.331	71	27
145.45	146.08	74	32
145.599	145.765	62	26
145.599	147.331	67	30
145.671	146.473	46	29
145.703	146.524	53	35
145.734	146.575	58	40
145.765	145.936	62	52
145.936	146.625	62	25
145.936	147.327	65	30
146.08	147.179	70	26
146.08	146.218	74	31
146.218	147.041	74	27
146.218	147.041	77	32
146.355	146.903	82	28
146.355	146.49	86	33
146.423	147.331	34	29
146.473	147.331	46	32
146.49	146.764	86	28
146.49	146.764	89	34
146.524	147.331	53	35
146.575	147.331	58	38
146.625	147.327	62	49
146.625	147.331	94	29
146.625	147.331	98	35
146.764	146.903	86	31
146.764	147.331	89	37
146.903	147.331	82	29
146.903	147.331	86	35
147.041	147.179	74	28
147.041	147.331	77	34
147.179	147.331	70	27
147.179	147.331	74	32
147.248	147.396	60	46
147.327	147.386	62	27
147.327	147.406	65	30
147.426	148.194	43	38
147.455	148.244	50	42
147.485	148.345	58	52
147.656	149.047	62	25
147.656	149.047	67	30
147.801	148.899	70	26
147.801	147.938	74	31
147.938	148.761	74	27
147.938	148.761	79	32
148.075	148.623	82	28
148.075	148.211	86	33
148.143	149.205	31	33
148.194	149.205	43	36
148.211	148.484	86	28
148.211	148.484	91	34
148.244	149.205	50	40
148.295	149.205	55	44
148.345	148.968	58	48
148.345	149.205	94	29
148.345	149.205	98	35
148.484	148.623	86	31
148.484	149.205	91	37
148.623	149.205	82	29
148.623	149.205	86	35
148.761	148.899	74	28
148.761	149.205	79	34
148.899	149.205	70	27
148.899	149.205	74	32
148.968	149.205	58	46
149.047	149.205	62	25
149.047	149.205	67	30
149.205	149.626	51	40
149.205	149.626	55	40
149.205	149.626	62	50
149.345	149.626	63	32
149.345	149.626	67	32
149.484	149.626	74	32
149.624	150.033	39	38
149.624	150.045	60	48
149.764	150.033	72	34
149.764	150.033	75	34
149.904	150.045	79	34
149.904	150.045	84	34
150.045	150.476	51	38
150.045	150.476	55	38
150.045	150.476	58	48
150.184	150.476	82	34
150.184	150.476	87	34
150.324	150.476	91	34
150.324	150.476	94	34
150.463	150.898	39	37
150.463	150.898	60	47
150.608	150.898	84	32
150.608	150.898	87	32
150.753	150.898	91	32
150.753	150.898	96	32
150.817	153.911	38	37
150.844	155.754	45	41
150.871	153.325	54	44
150.898	151.042	62	47
151.042	152.738	62	25
151.042	152.738	66	30
151.187	152.591	69	26
151.187	151.324	74	31
151.324	152.148	74	27
151.324	152.148	78	32
151.461	152.009	81	28
151.461	151.597	86	33
151.597	151.871	86	28
151.597	151.871	90	34
151.732	155.754	93	29
151.732	155.087	98	35
151.871	152.009	86	31
151.871	155.754	90	37
152.009	152.285	81	29
152.009	152.285	86	35
152.148	152.433	74	28
152.148	152.433	78	34
152.285	155.754	81	27
152.285	154.84	86	32
152.433	152.591	74	25
152.433	155.754	78	30
152.591	152.885	69	28
152.591	152.885	74	33
152.738	153.031	62	25
152.738	153.031	66	30
152.885	155.754	69	28
152.885	154.599	74	34
153.031	153.178	62	25
153.031	155.754	66	30
153.178	153.471	57	28
153.178	153.471	62	34
153.325	153.618	50	24
153.325	153.618	54	29
153.471	155.754	57	28
153.471	154.364	62	33
153.618	154.135	50	25
153.618	155.754	54	30
153.764	155.754	26	37
153.911	155.754	38	31
154.135	155.754	50	37
154.364	155.754	62	36
154.599	155.754	74	42
154.84	155.754	86	38
155.087	155.754	98	45
155.895	156.058	74	29
155.895	156.058	86	35
156.058	156.217	74	31
156.058	156.217	86	37
156.217	156.371	74	33
156.217	156.371	86	41
156.371	156.521	74	35
156.371	156.521	86	43
156.521	156.667	74	38
156.521	156.667	86	46
156.667	157.585	46	41
156.667	157.578	74	52
156.667	157.578	86	62
156.832	157.585	53	18
156.832	156.983	62	22
156.832	156.983	65	22
156.832	156.983	77	26
156.832	156.983	82	26
156.983	157.585	54	19
156.983	157.132	62	23
156.983	157.132	65	23
156.983	157.132	77	28
156.983	157.132	82	28
157.132	157.585	55	20
157.132	157.281	62	24
157.132	157.281	65	24
157.132	157.281	77	29
157.132	157.281	82	29
157.281	157.585	56	22
157.281	157.43	62	26
157.281	157.43	65	26
157.281	157.43	77	31
157.281	157.43	82	31
157.43	157.585	57	22
157.43	157.578	62	27
157.43	157.578	65	27
157.43	157.585	77	32
157.43	157.585	82	32
157.578	158.461	58	23
157.578	157.724	62	28
157.578	157.724	65	28
157.578	158.461	74	49
157.578	158.461	86	58
157.724	158.461	59	24
157.724	157.869	62	29
157.724	157.869	65	29
157.724	157.869	77	35
157.724	157.869	82	35
157.869	158.461	60	25
157.869	158.012	62	30
157.869	158.012	65	30
157.869	158.012	77	36
157.869	158.012	82	36
158.012	158.461	61	27
158.012	158.154	62	32
158.012	158.154	65	32
158.012	158.154	77	38
158.012	158.154	82	38
158.154	158.461	62	33
158.154	158.461	65	33
158.154	158.461	77	39
158.154	158.461	82	39
158.303	158.461	72	46
158.303	158.461	84	55
158.461	159.354	46	41
158.461	159.34	70	52
158.461	159.34	82	62
158.627	159.354	53	18
158.627	158.771	62	22
158.627	158.771	65	22
158.627	158.771	74	26
158.627	158.771	77	26
158.771	159.354	54	19
158.771	158.914	62	23
158.771	158.914	65	23
158.771	158.914	74	28
158.771	158.914	77	28
158.914	159.354	55	20
158.914	159.057	62	24
158.914	159.057	65	24
158.914	159.057	74	29
158.914	159.057	77	29
159.057	159.354	56	22
159.057	159.199	62	26
159.057	159.199	65	26
159.057	159.199	74	31
159.057	159.199	77	31
159.199	159.354	57	22
159.199	159.34	62	27
159.199	159.34	65	27
159.199	159.354	74	32
159.199	159.354	77	32
159.34	160.21	58	23
159.34	159.483	62	28
159.34	159.483	65	28
159.34	160.052	70	48
159.34	160.052	82	57
159.483	160.21	59	24
159.483	159.624	62	29
159.483	159.624	65	29
159.483	159.624	74	35
159.483	159.624	77	35
159.624	160.21	60	25
159.624	159.764	62	30
159.624	159.764	65	30
159.624	159.764	74	36
159.624	159.764	77	36
159.764	160.21	61	27
159.764	159.904	62	32
159.764	159.904	65	32
159.764	159.904	74	38
159.764	159.904	77	38
159.904	160.21	62	33
159.904	160.21	65	33
159.904	160.21	74	39
159.904	160.21	77	39
160.052	160.21	70	49
160.052	160.21	82	58
160.21	161.119	46	41
160.21	160.955	69	52
160.21	160.955	81	62
160.381	161.119	54	19
160.381	160.526	63	24
160.381	160.526	66	24
160.381	160.526	72	28
160.381	160.526	75	28
160.526	161.119	55	20
160.526	160.669	63	25
160.526	160.669	66	25
160.526	160.669	72	30
160.526	160.669	75	30
160.669	161.119	56	22
160.669	160.812	63	26
160.669	160.812	66	26
160.669	160.812	72	31
160.669	160.812	75	31
160.812	161.119	57	24
160.812	160.955	63	28
160.812	160.955	66	28
160.812	161.119	72	34
160.812	161.119	75	34
160.955	161.119	58	24
160.955	161.108	63	29
160.955	161.108	66	29
160.955	161.119	69	56
160.955	161.119	81	67
161.108	162.009	59	25
161.108	161.253	63	30
161.108	161.253	66	30
161.108	162.009	78	60
161.108	162.009	90	72
161.253	162.009	60	26
161.253	161.396	63	31
161.253	161.396	66	31
161.253	161.396	81	38
161.253	161.396	84	38
161.396	162.009	61	27
161.396	161.54	63	33
161.396	161.54	66	33
161.396	161.54	81	39
161.396	161.54	84	39
161.54	162.009	62	29
161.54	161.683	63	35
161.54	161.683	66	35
161.54	161.683	81	41
161.54	161.683	84	41
161.683	162.009	63	36
161.683	162.009	66	36
161.683	161.839	81	42
161.683	162.009	84	42
161.839	162.009	69	49
161.839	162.009	81	58
162.009	162.926	46	41
162.009	162.926	72	55
162.009	162.926	84	66
162.179	162.926	53	19
162.179	162.328	62	24
162.179	162.328	65	24
162.179	162.328	74	28
162.179	162.328	77	28
162.328	162.926	54	20
162.328	162.477	62	25
162.328	162.477	65	25
162.328	162.477	74	30
162.328	162.477	77	30
162.477	162.926	55	22
162.477	162.623	62	26
162.477	162.623	65	26
162.477	162.623	74	31
162.477	162.623	77	31
162.623	162.926	56	24
162.623	162.769	62	28
162.623	162.769	65	28
162.623	162.769	74	34
162.623	162.769	77	34
162.769	162.926	57	24
162.769	162.914	62	29
162.769	162.914	65	29
162.769	162.926	74	35
162.769	162.926	77	35
162.914	163.798	58	25
162.914	163.057	62	30
162.914	163.057	65	30
162.914	163.798	70	50
162.914	163.798	82	60
163.057	163.798	59	26
163.057	163.2	62	31
163.057	163.2	65	31
163.057	163.2	74	38
163.057	163.2	77	38
163.2	163.798	60	27
163.2	163.343	62	33
163.2	163.343	65	33
163.2	163.343	74	39
163.2	163.343	77	39
163.343	163.798	61	29
163.343	163.485	62	35
163.343	163.485	65	35
163.343	163.485	74	41
163.343	163.485	77	41
163.485	163.798	62	36
163.485	163.798	65	36
163.485	163.626	74	43
163.485	163.626	77	43
163.626	163.797	74	44
163.626	163.798	77	44
163.797	164.723	43	45
163.797	164.716	74	57
163.797	164.716	86	68
163.959	164.723	58	19
163.959	164.111	67	24
163.959	164.111	70	24
163.959	164.111	79	28
163.959	164.111	82	28
164.111	164.723	59	20
164.111	164.263	67	25
164.111	164.263	70	25
164.111	164.263	79	30
164.111	164.263	82	30
164.263	164.723	60	22
164.263	164.415	67	26
164.263	164.415	70	26
164.263	164.415	79	31
164.263	164.415	82	31
164.415	164.723	61	24
164.415	164.566	67	28
164.415	164.566	70	28
164.415	164.566	79	34
164.415	164.566	82	34
164.566	164.723	62	24
164.566	164.716	67	29
164.566	164.716	70	29
164.566	164.723	79	35
164.566	164.723	82	35
164.716	165.6	63	25
164.716	164.864	67	30
164.716	164.864	70	30
164.716	165.6	74	53
164.716	165.6	86	63
164.864	165.6	64	26
164.864	165.01	67	31
164.864	165.01	70	31
164.864	165.01	79	38
164.864	165.01	82	38
165.01	165.6	65	27
165.01	165.153	67	33
165.01	165.153	70	33
165.01	165.153	79	39
165.01	165.153	82	39
165.153	165.6	66	29
165.153	165.293	67	35
165.153	165.293	70	35
165.153	165.293	79	41
165.153	165.293	82	41
165.293	165.6	67	36
165.293	165.6	70	36
165.293	165.6	79	42
165.293	165.6	82	42
165.442	165.6	72	50
165.442	165.6	84	60
165.6	166.493	43	45
165.6	166.493	70	57
165.6	166.493	82	68
165.766	166.493	55	19
165.766	165.91	62	24
165.766	165.91	67	24
165.766	165.91	74	28
165.766	165.91	79	28
165.91	166.493	56	20
165.91	166.053	62	25
165.91	166.053	67	25
165.91	166.053	74	30
165.91	166.053	79	30
166.053	166.493	57	22
166.053	166.196	62	26
166.053	166.196	67	26
166.053	166.196	74	31
166.053	166.196	79	31
166.196	166.493	58	24
166.196	166.338	62	28
166.196	166.338	67	28
166.196	166.338	74	34
166.196	166.338	79	34
166.338	166.493	59	24
166.338	166.479	62	29
166.338	166.479	67	29
166.338	166.479	74	35
166.338	166.479	79	35
166.479	167.349	60	25
166.479	166.762	62	30
166.479	166.621	67	30
166.479	166.621	74	34
166.479	166.621	79	34
166.621	167.349	61	31
166.621	166.762	67	31
166.621	166.762	74	38
166.621	166.762	79	38
166.762	167.349	62	33
166.762	166.903	67	33
166.762	166.903	74	39
166.762	166.903	79	39
166.903	167.349	58	29
166.903	167.349	67	35
166.903	167.043	74	41
166.903	167.043	79	41
167.043	167.349	74	41
167.043	167.349	79	41
167.191	167.349	70	53
167.191	167.349	82	63
167.349	168.267	36	45
167.349	168.267	48	45
167.349	168.267	73	57
167.349	168.267	85	68
167.52	168.267	58	19
167.52	167.665	67	24
167.52	167.665	70	24
167.52	167.665	76	28
167.52	167.665	82	28
167.665	168.267	59	20
167.665	167.808	67	25
167.665	167.808	70	25
167.665	167.808	76	30
167.665	167.808	82	30
167.808	168.267	60	22
167.808	167.951	67	26
167.808	167.951	70	26
167.808	167.951	76	31
167.808	167.951	82	31
167.951	168.267	61	24
167.951	168.094	67	28
167.951	168.094	70	28
167.951	168.267	76	34
167.951	168.256	82	34
168.094	168.267	62	24
168.094	168.256	67	29
168.094	168.256	70	29
168.094	168.267	72	61
168.094	168.267	84	73
168.256	169.158	63	25
168.256	168.401	67	30
168.256	168.401	70	30
168.256	169.158	82	66
168.256	169.158	94	79
168.401	169.158	64	26
168.401	168.545	67	31
168.401	168.545	70	31
168.401	168.545	85	38
168.401	168.545	88	38
168.545	169.158	65	27
168.545	168.688	67	33
168.545	168.688	70	33
168.545	168.688	85	39
168.545	168.688	88	39
168.688	169.158	66	29
168.688	168.831	67	35
168.688	168.831	70	35
168.688	168.831	85	41
168.688	168.831	88	41
168.831	169.158	67	36
168.831	169.158	70	36
168.831	169.158	85	42
168.831	168.988	88	42
168.988	169.158	76	53
168.988	169.158	88	63
169.158	170.086	41	45
169.158	170.086	77	60
169.158	170.086	89	72
169.321	170.086	57	21
169.321	169.474	65	27
169.321	169.474	69	27
169.321	169.474	81	32
169.321	169.474	84	32
169.474	170.086	58	23
169.474	169.625	65	28
169.474	169.625	69	28
169.474	169.625	81	34
169.474	169.625	84	34
169.625	170.086	59	25
169.625	169.776	65	29
169.625	169.776	69	29
169.625	169.776	81	35
169.625	169.776	84	35
169.776	170.086	60	27
169.776	169.925	65	32
169.776	169.925	69	32
169.776	169.925	81	39
169.776	169.925	84	39
169.925	170.086	61	27
169.925	170.073	65	33
169.925	170.073	69	33
169.925	170.073	81	41
169.925	170.073	84	41
170.073	170.947	62	29
170.073	170.217	65	35
170.073	170.217	69	35
170.073	170.217	81	36
170.073	170.217	84	36
170.217	170.947	63	31
170.217	170.358	65	36
170.217	170.358	69	36
170.217	170.358	81	45
170.217	170.358	84	45
170.358	170.947	64	32
170.358	170.497	65	39
170.358	170.497	69	39
170.358	170.497	81	49
170.358	170.497	84	49
170.497	170.947	65	42
170.497	170.947	69	42
170.497	170.635	81	53
170.497	170.635	84	53
170.635	170.767	81	57
170.635	170.767	84	57
170.767	170.947	81	59
170.767	170.954	84	59
170.939	171.845	37	51
170.939	171.845	49	51
170.939	171.838	77	64
170.939	171.838	89	78
171.106	171.845	53	23
171.106	171.254	61	30
171.106	171.254	65	30
171.106	171.254	80	36
171.106	171.254	85	36
171.254	171.845	54	26
171.254	171.4	61	31
171.254	171.4	65	31
171.254	171.4	80	38
171.254	171.4	85	38
171.4	171.845	55	28
171.4	171.547	61	34
171.4	171.547	65	34
171.4	171.547	80	39
171.4	171.547	85	39
171.547	171.845	56	30
171.547	171.693	61	36
171.547	171.693	65	36
171.547	171.693	80	45
171.547	171.693	85	45
171.693	171.845	57	30
171.693	171.838	61	38
171.693	171.838	65	38
171.693	171.845	80	46
171.693	171.845	85	46
171.838	172.722	58	34
171.838	171.983	61	39
171.838	171.983	65	39
171.838	172.564	77	62
171.838	172.564	89	74
171.983	172.722	59	35
171.983	172.128	61	40
171.983	172.128	65	40
171.983	172.128	80	51
171.983	172.128	85	51
172.128	172.722	60	36
172.128	172.272	61	45
172.128	172.272	65	45
172.128	172.272	80	52
172.128	172.272	85	52
172.272	172.722	61	47
172.272	172.722	65	47
172.272	172.415	80	56
172.272	172.415	85	56
172.415	172.722	80	57
172.415	172.722	85	57
172.564	172.722	77	60
172.564	172.722	89	72
172.722	173.611	32	55
172.722	173.611	44	55
172.722	173.611	80	69
172.722	173.611	92	83
172.888	173.611	56	26
172.888	173.032	63	34
172.888	173.032	68	34
172.888	173.032	85	38
172.888	173.032	87	38
173.032	173.611	57	27
173.032	173.175	63	35
173.032	173.175	68	35
173.032	173.175	85	40
173.032	173.175	87	40
173.175	173.611	58	30
173.175	173.318	63	36
173.175	173.318	68	36
173.175	173.318	85	44
173.175	173.318	87	44
173.318	173.611	59	34
173.318	173.46	63	39
173.318	173.46	68	39
173.318	173.46	85	48
173.318	173.46	87	48
173.46	173.611	60	34
173.46	173.611	63	40
173.46	173.611	68	40
173.46	173.611	85	50
173.46	173.602	87	50
173.602	174.479	75	67
173.602	174.479	87	80
173.743	174.479	59	44
173.743	173.885	63	44
173.743	173.885	68	44
173.743	173.885	80	55
173.743	173.885	84	55
173.885	174.479	60	45
173.885	174.025	63	47
173.885	174.025	68	47
173.885	174.025	80	56
173.885	174.025	84	56
174.025	174.479	61	45
174.025	174.314	63	42
174.025	174.165	68	51
174.025	174.165	80	60
174.025	174.165	84	60
174.165	174.479	62	42
174.165	174.314	68	51
174.165	174.314	80	60
174.165	174.314	84	60
174.314	174.479	63	42
174.314	174.479	68	51
174.314	174.472	80	60
174.314	174.479	84	60
174.472	175.378	40	59
174.472	175.378	52	59
174.472	175.371	80	74
174.472	175.371	92	89
174.638	175.378	56	27
174.638	174.786	64	35
174.638	174.786	68	35
174.638	174.786	83	40
174.638	174.786	88	40
174.786	175.378	57	29
174.786	174.933	64	37
174.786	174.933	68	37
174.786	174.933	83	45
174.786	174.933	88	45
174.933	175.378	58	31
174.933	175.079	64	38
174.933	175.079	68	38
174.933	175.079	83	46
174.933	175.079	88	46
175.079	175.378	59	36
175.079	175.225	64	42
175.079	175.225	68	42
175.079	175.225	83	51
175.079	175.225	88	51
175.225	175.378	60	36
175.225	175.371	64	44
175.225	175.371	68	44
175.225	175.378	83	53
175.225	175.378	88	53
175.371	176.255	61	37
175.371	175.516	64	45
175.371	175.516	68	45
175.371	176.097	80	71
175.371	176.097	92	84
175.516	176.255	62	39
175.516	175.66	64	47
175.516	175.66	68	47
175.516	175.66	83	59
175.516	175.66	88	59
175.66	176.255	63	40
175.66	175.804	64	51
175.66	175.804	68	51
175.66	175.804	83	60
175.66	175.804	88	60
175.804	176.255	64	53
175.804	176.255	68	53
175.804	175.947	83	63
175.804	175.947	88	63
175.947	176.255	83	64
175.947	176.255	88	64
176.097	176.255	80	69
176.097	176.255	92	82
176.255	177.147	35	62
176.255	177.147	47	62
176.255	177.147	83	79
176.255	177.147	95	94
176.421	177.147	59	29
176.421	176.565	66	37
176.421	176.565	71	37
176.421	176.565	88	44
176.421	176.565	90	44
176.565	177.147	60	30
176.565	176.708	66	39
176.565	176.708	71	39
176.565	176.708	88	47
176.565	176.708	90	47
176.708	177.147	61	35
176.708	176.85	66	40
176.708	176.85	71	40
176.708	176.85	88	48
176.708	176.85	90	48
176.85	177.147	62	38
176.85	176.992	66	45
176.85	176.992	71	45
176.85	176.992	88	55
176.85	176.992	90	55
176.992	177.147	63	38
176.992	177.147	66	46
176.992	177.147	71	46
176.992	177.147	88	56
176.992	177.134	90	56
177.134	177.95	78	75
177.134	177.95	90	90
177.276	177.95	62	50
177.276	177.417	66	50
177.276	177.417	71	50
177.276	177.417	83	61
177.276	177.417	87	61
177.417	177.95	63	50
177.417	177.557	66	53
177.417	177.557	71	53
177.417	177.557	83	63
177.417	177.557	87	63
177.557	177.95	64	51
177.557	177.846	66	47
177.557	177.698	71	57
177.557	177.698	83	68
177.557	177.698	87	68
177.698	177.95	65	47
177.698	177.846	71	57
177.698	177.846	83	68
177.698	177.846	87	68
177.846	177.965	66	47
177.846	177.965	71	57
177.846	177.965	83	68
177.846	177.965	87	68
177.96	178.92	56	46
177.975	178.479	62	52
177.989	178.92	65	59
178.004	178.321	71	79
178.321	178.92	61	34
178.321	178.479	71	40
178.479	178.92	62	34
178.479	178.626	71	40
178.626	178.92	63	34
178.626	178.773	71	40
178.773	178.92	64	34
178.773	178.92	71	40
178.838	179.748	44	45
178.865	179.771	50	49
178.893	179.771	53	53
178.92	179.528	59	73
178.92	179.771	65	34
178.92	179.068	71	40
179.068	179.771	66	34
179.068	179.215	71	40
179.215	179.771	67	34
179.215	179.362	71	40
179.362	179.771	68	34
179.362	179.509	71	40
179.509	179.771	69	34
179.509	179.656	71	40
179.528	179.771	59	71
179.656	179.803	70	34
179.656	179.803	71	40
179.748	181.44	44	40
179.776	181.44	51	40
179.803	181.44	59	75
179.803	179.95	71	40
179.95	180.097	71	35
179.95	181.44	72	41
180.097	180.242	71	36
180.097	181.44	73	42
180.242	180.387	71	37
180.242	181.44	74	44
180.387	180.532	71	37
180.387	181.44	75	45
180.532	180.676	71	38
180.532	181.44	76	46
180.568	180.676	32	52
180.568	180.676	39	52
180.676	181.44	32	61
180.676	181.44	39	61
180.676	180.82	71	39
180.676	181.44	77	47
180.82	180.964	71	40
180.82	181.44	78	48
180.964	181.109	71	42
180.964	181.44	79	50
181.109	181.255	71	42
181.109	181.44	80	51
181.255	181.401	71	44
181.255	181.44	81	52
181.401	181.55	71	45
181.401	182.466	82	53
181.505	182.466	56	46
181.52	182.466	62	52
181.535	182.466	65	59
181.55	182.466	71	79
181.55	181.708	83	51
181.708	182.466	72	52
181.708	181.866	83	44
181.866	182.466	73	52
181.866	182.025	83	44
182.025	182.466	74	53
182.025	182.172	83	45
182.172	182.466	75	55
182.172	182.319	83	46
182.319	182.466	76	56
182.319	182.466	83	47
182.383	183.288	44	45
182.411	183.311	50	49
182.439	183.311	53	53
182.466	183.069	59	73
182.466	183.311	77	57
182.466	182.612	83	48
182.612	183.311	78	58
182.612	182.758	83	49
182.758	183.311	79	59
182.758	182.904	83	49
182.904	183.311	80	60
182.904	183.051	83	50
183.051	183.311	81	60
183.051	183.197	83	50
183.069	183.311	59	71
183.197	183.343	82	61
183.197	183.343	83	51
183.288	184.961	44	40
183.315	184.961	51	40
183.343	184.961	59	75
183.343	183.488	83	62
183.488	183.632	83	53
183.488	184.961	84	63
183.632	183.776	83	55
183.632	184.961	85	64
183.776	183.919	83	55
183.776	184.961	86	64
183.919	184.061	83	56
183.919	184.961	87	66
184.061	184.202	83	56
184.061	184.961	88	67
184.096	184.202	32	52
184.096	184.202	39	52
184.202	184.961	32	62
184.202	184.961	39	62
184.202	184.344	83	57
184.202	184.961	89	68
184.344	184.487	83	58
184.344	184.961	90	69
184.487	184.631	83	59
184.487	184.961	91	70
184.631	184.776	83	59
184.631	184.961	92	70
184.776	184.922	83	60
184.776	184.961	93	71
184.922	185.067	83	61
184.922	185.946	94	72
185.026	185.946	56	48
185.04	185.946	62	55
185.054	185.946	65	62
185.067	185.946	71	84
185.067	185.946	83	72
185.067	185.218	95	61
185.218	185.946	84	73
185.218	185.368	95	61
185.368	185.946	85	74
185.368	185.518	95	62
185.518	185.946	86	74
185.518	185.662	95	62
185.662	185.946	87	75
185.662	185.805	95	63
185.805	185.946	88	77
185.805	185.946	95	64
185.867	186.718	44	49
185.893	186.718	50	53
185.919	186.718	53	58
185.946	186.596	59	80
186.091	186.235	86	79
186.091	186.718	88	79
186.091	186.235	95	67
186.235	186.379	86	68
186.235	186.718	89	80
186.235	186.379	95	68
186.379	186.524	86	68
186.379	186.718	90	81
186.379	186.524	95	68
186.524	186.674	86	69
186.524	186.718	91	82
186.524	186.674	95	69
186.596	187.7	59	80
186.674	187.689	86	70
186.674	187.545	92	83
186.674	187.117	95	70
186.713	187.689	43	51
186.771	187.7	52	64
186.8	187.7	55	69
186.83	187.7	60	85
186.83	187.7	64	85
186.974	187.689	91	73
186.974	187.545	96	73
186.974	187.7	100	86
187.117	187.7	90	73
187.117	187.689	95	73
187.117	187.7	99	86
187.258	187.7	89	72
187.258	187.7	94	72
187.258	187.7	98	85
187.401	187.7	88	71
187.401	187.7	93	71
187.401	187.7	97	84
187.545	187.7	87	71
187.545	187.7	92	71
187.545	187.7	96	84
187.689	188.572	31	78
187.689	188.572	43	78
187.689	188.422	86	70
187.689	188.272	91	70
187.689	188.572	95	83
187.834	188.572	85	70
187.834	188.422	90	83
187.834	188.572	94	83
187.978	188.572	84	69
187.978	188.572	89	69
187.978	188.572	93	82
188.122	188.572	55	69
188.122	188.572	60	69
188.122	188.572	64	82
188.122	188.572	83	68
188.122	188.572	88	68
188.122	188.572	92	81
188.272	188.572	82	68
188.272	188.572	87	68
188.272	188.572	91	81
188.422	188.572	81	68
188.422	188.572	86	68
188.422	188.572	90	80
188.572	189.394	56	72
188.572	189.394	61	72
188.572	189.394	65	85
188.572	189.294	80	56
188.572	189.149	85	56
188.572	189.394	89	79
188.718	189.394	79	56
188.718	189.294	84	56
188.718	189.394	88	79
188.862	189.394	78	56
188.862	189.394	83	78
188.862	189.394	87	78
189.004	189.394	77	55
189.004	189.394	82	55
189.004	189.394	86	77
189.149	189.394	76	55
189.149	189.394	81	55
189.149	189.394	85	77
189.294	190.321	75	53
189.294	190.028	80	53
189.294	190.321	84	75
189.358	190.321	43	49
189.385	190.103	50	53
189.413	190.103	53	58
189.44	190.103	59	80
189.586	190.028	74	62
189.586	190.178	79	62
189.586	190.321	83	74
189.732	190.321	73	62
189.732	190.321	78	62
189.732	190.321	82	74
189.878	190.321	72	61
189.878	190.321	77	73
189.878	190.321	81	73
190.028	190.178	71	61
190.028	190.178	74	61
190.028	190.321	80	72
190.103	190.328	50	62
190.103	190.328	53	62
190.103	190.328	59	80
190.178	190.328	71	61
190.178	190.328	74	61
190.178	190.328	79	72
190.328	191.208	55	72
190.328	191.208	60	72
190.328	191.208	64	85
190.474	191.198	79	61
190.474	191.052	84	61
190.474	191.208	88	73
190.618	191.208	78	61
190.618	191.198	83	61
190.618	191.208	87	73
190.762	191.208	77	61
190.762	191.208	82	61
190.762	191.208	86	71
190.907	191.208	76	59
190.907	191.208	81	59
190.907	191.208	85	70
191.052	191.208	75	59
191.052	191.208	80	59
191.052	191.208	84	70
191.198	192.086	31	64
191.198	192.086	43	76
191.198	191.936	74	58
191.198	191.786	79	58
191.198	192.086	83	69
191.344	192.086	73	58
191.344	191.936	78	58
191.344	192.086	82	69
191.49	192.086	72	56
191.49	192.086	77	56
191.49	192.086	81	67
191.636	192.086	55	67
191.636	192.086	60	67
191.636	192.086	64	80
191.636	192.086	71	55
191.636	192.086	76	55
191.636	192.086	80	66
191.786	192.086	70	55
191.786	192.086	75	55
191.786	192.086	79	65
191.936	192.086	69	55
191.936	192.086	74	55
191.936	192.086	78	65
192.086	193.016	56	69
192.086	193.016	61	69
192.086	193.264	65	81
192.086	192.822	68	53
192.086	192.675	73	53
192.086	193.016	77	64
192.233	192.822	72	54
192.233	193.016	76	65
192.38	192.969	71	53
192.38	193.016	75	64
192.528	193.016	70	52
192.528	193.016	74	62
192.675	193.016	64	50
192.675	193.016	69	50
192.675	193.016	73	61
192.822	193.016	63	50
192.822	193.016	68	50
192.822	193.016	72	60
192.969	193.705	62	50
192.969	193.558	67	50
192.969	193.858	71	59
193.116	193.852	61	50
193.116	193.705	66	50
193.116	193.858	70	59
193.264	193.858	60	48
193.264	193.852	65	48
193.264	193.858	69	58
193.411	193.858	59	47
193.411	193.858	64	47
193.411	193.858	68	57
193.558	193.858	58	47
193.558	193.858	63	47
193.558	193.858	67	56
193.705	193.858	57	46
193.705	193.858	62	46
193.705	193.858	66	54
193.852	193.998	56	46
193.852	193.998	61	54
193.852	193.998	65	54
193.998	194.143	55	45
193.998	194.143	60	45
193.998	194.143	64	53
194.143	194.289	54	44
194.143	194.289	59	44
194.143	194.289	63	53
194.289	194.433	53	44
194.289	194.433	58	44
194.289	194.433	62	52
194.433	194.577	52	44
194.433	194.577	57	44
194.433	194.577	61	52
194.577	194.721	51	42
194.577	194.721	56	42
194.577	194.721	60	50
194.721	194.864	50	42
194.721	194.864	55	42
194.721	194.864	59	50
194.864	195.006	49	41
194.864	195.006	54	41
194.864	195.006	58	49
195.006	195.147	48	40
195.006	195.147	53	40
195.006	195.147	57	48
195.147	195.288	47	40
195.147	195.288	52	40
195.147	195.288	56	48
195.288	195.429	46	39
195.288	195.429	51	39
195.288	195.429	55	47
195.429	195.569	45	39
195.429	195.569	50	39
195.429	195.569	54	47
195.569	195.709	44	39
195.569	195.709	49	39
195.569	195.709	53	46
195.709	195.848	43	39
195.709	195.848	48	39
195.709	195.848	52	46
195.848	195.988	42	38
195.848	195.988	47	38
195.848	195.988	51	45
195.988	196.127	41	37
195.988	196.127	46	44
195.988	196.127	50	44
196.127	196.267	40	37
196.127	196.267	45	37
196.127	196.267	49	44
196.267	196.406	39	36
196.267	196.406	44	36
196.267	196.406	48	43
196.406	196.545	38	36
196.406	196.545	43	36
196.406	196.545	47	42
196.545	196.684	37	35
196.545	196.684	42	35
196.545	196.684	46	42
196.684	196.824	36	34
196.684	196.824	41	34
196.684	196.824	45	41
196.824	196.964	35	34
196.824	196.964	40	34
196.824	196.964	44	41
196.964	197.105	34	34
196.964	197.105	39	34
196.964	197.105	43	41
197.105	197.247	33	33
197.105	197.247	38	33
197.105	197.247	42	39
197.247	198.098	32	31
197.247	198.098	37	31
197.247	198.098	41	36
197.39	197.955	33	32
197.39	197.955	38	32
197.39	197.955	42	38
197.531	197.813	34	36
197.531	197.813	39	36
197.531	197.813	43	43
197.672	198.105	35	37
197.672	198.105	40	37
197.672	198.105	44	44
197.813	198.105	34	36
197.813	198.105	39	36
197.813	198.105	43	42
197.955	198.105	33	35
197.955	198.105	38	35
197.955	198.105	42	41
198.098	198.946	32	33
198.098	198.946	37	33
198.098	198.946	41	40
198.24	198.804	33	36
198.24	198.804	38	36
198.24	198.804	42	42
198.382	198.663	34	36
198.382	198.663	39	36
198.382	198.663	43	44
198.523	198.946	35	39
198.523	198.946	40	39
198.523	198.946	44	46
198.663	198.946	34	37
198.663	198.946	39	37
198.663	198.946	43	44
198.804	198.946	33	36
198.804	198.946	38	36
198.804	198.946	42	43
198.946	199.863	32	40
198.946	199.863	37	40
198.946	199.863	41	47
199.097	199.704	33	38
199.097	199.704	38	38
199.097	199.704	42	45
199.249	199.552	34	40
199.249	199.552	39	40
199.249	199.552	43	47
199.4	199.888	35	40
199.4	199.888	40	40
199.4	199.888	44	48
199.552	199.888	34	42
199.552	199.888	39	42
199.552	199.888	43	50
199.704	199.888	33	44
199.704	199.888	38	44
199.704	199.888	42	52
199.863	201.041	32	40
199.863	201.041	37	40
199.863	200.584	41	48
200.037	201.041	33	40
200.037	201.041	38	40
200.037	201.041	42	48
200.215	201.041	34	39
200.215	201.041	39	39
200.215	200.775	43	46
200.398	201.041	35	40
200.398	200.971	40	48
200.398	201.041	44	48
200.584	201.041	25	39
200.584	201.041	41	47
200.775	201.563	43	47
200.971	201.563	24	48
200.971	201.563	36	48
200.971	201.563	40	48
201.563	201.862	48	38
201.563	202.018	60	48
201.713	202.018	52	27
201.713	202.018	55	32
201.862	202.018	36	27
201.862	202.018	48	32
202.009	202.455	49	40
202.009	202.455	61	49
202.154	202.455	53	29
202.154	202.455	56	35
202.298	202.455	35	29
202.298	202.455	47	35
202.441	202.871	50	41
202.441	202.871	62	52
202.583	202.871	53	29
202.583	202.871	56	34
202.725	202.871	34	29
202.725	202.871	46	34
202.864	203.277	51	45
202.864	203.277	63	53
202.999	203.277	55	32
202.999	203.277	58	38
203.134	203.277	27	32
203.134	203.277	39	39
203.268	203.68	52	46
203.268	203.68	64	57
203.403	203.68	56	32
203.403	203.68	59	39
203.537	203.68	38	32
203.537	203.68	50	39
203.67	204.081	53	46
203.67	204.081	65	58
203.804	204.081	56	34
203.804	204.081	59	41
203.938	204.081	37	36
203.938	204.081	49	43
204.071	204.475	54	49
204.071	204.475	66	61
204.204	204.475	58	36
204.204	204.475	61	43
204.337	204.475	30	36
204.337	204.475	42	44
204.47	204.874	55	52
204.47	204.874	67	65
204.602	204.874	59	39
204.602	204.874	62	46
204.735	204.874	29	39
204.735	204.874	41	46
204.867	205.274	56	53
204.867	205.274	68	66
205.0	205.274	59	38
205.0	205.274	62	46
205.132	205.274	28	39
205.132	205.274	40	46
205.265	205.676	57	55
205.265	205.676	69	69
205.396	205.676	61	39
205.396	205.676	64	47
205.528	205.676	33	40
205.528	205.676	45	48
205.66	206.06	58	56
205.66	206.06	70	71
205.791	206.06	62	43
205.791	206.06	65	51
205.923	206.06	33	44
205.923	206.06	45	52
206.055	206.462	59	59
206.055	206.462	71	75
206.186	206.462	63	44
206.186	206.462	66	53
206.319	206.462	33	45
206.319	206.462	45	53
206.452	206.862	60	61
206.452	206.862	72	78
206.587	206.862	64	46
206.587	206.862	67	54
206.722	206.862	33	46
206.722	206.857	45	55
206.857	207.077	45	54
206.857	207.077	52	54
206.857	207.077	55	64
206.857	207.077	61	70
206.857	207.077	73	80
207.294	208.086	58	68
207.297	208.086	70	75
207.297	208.086	82	90
207.298	208.086	46	57
207.957	208.086	57	50
207.957	208.086	69	55
207.957	208.086	81	66
207.959	208.086	45	40
208.079	208.587	43	40
208.079	208.587	55	48
208.083	208.587	67	53
208.083	208.587	79	63
208.206	208.587	41	40
208.206	208.587	65	53
208.207	208.587	77	63
208.211	208.587	53	48
208.327	208.587	40	44
208.331	208.587	64	59
208.331	208.587	76	70
208.334	208.587	52	52
208.451	208.587	62	55
208.454	208.587	38	40
208.455	208.587	50	50
208.455	208.587	74	65
208.575	208.831	37	46
208.577	208.831	61	62
208.577	208.831	73	73
208.58	208.831	49	55
208.7	208.831	64	55
208.7	208.831	76	65
208.702	208.831	40	40
208.702	208.831	52	50
208.819	209.075	48	52
208.82	209.075	36	44
208.821	209.075	60	60
208.821	209.075	72	72
208.943	209.075	40	40
208.943	209.075	52	50
208.943	209.075	64	55
208.943	209.075	76	65
209.069	209.334	47	52
209.071	209.334	35	44
209.071	209.334	59	60
209.071	209.334	71	72
209.201	209.334	52	50
209.203	209.334	64	55
209.203	209.334	76	65
209.205	209.334	40	40
209.326	209.588	34	44
209.327	209.588	58	60
209.327	209.588	70	72
209.331	209.588	46	52
209.452	209.588	64	55
209.452	209.588	76	66
209.455	209.588	40	40
209.456	209.588	52	50
209.582	209.788	45	52
209.584	209.79	57	60
209.584	209.79	69	72
209.586	209.792	33	44
209.996	210.375	73	75
209.996	210.375	85	90
209.997	210.375	49	57
210.001	210.375	61	68
210.244	210.375	46	40
210.247	210.375	70	55
210.247	210.375	82	66
210.249	210.375	58	50
210.368	210.745	57	48
210.372	210.745	45	40
210.372	210.745	69	53
210.372	210.745	81	63
210.492	210.745	55	48
210.496	210.745	67	53
210.496	210.745	79	63
210.5	210.745	43	40
210.618	210.745	41	44
210.619	210.745	65	59
210.619	210.745	77	70
210.621	210.745	53	52
210.742	210.994	64	60
210.742	210.994	76	72
210.744	210.994	40	46
210.744	210.994	52	55
210.862	210.994	43	38
210.863	210.994	55	46
210.864	210.994	67	55
210.864	210.994	79	65
210.982	211.236	39	48
210.985	211.236	63	60
210.985	211.236	75	72
210.989	211.236	51	57
211.103	211.236	55	52
211.106	211.236	43	36
211.106	211.236	67	52
211.106	211.236	79	62
211.222	211.476	50	58
211.226	211.476	62	62
211.226	211.476	74	73
211.227	211.476	38	50
211.346	211.476	43	38
211.347	211.476	55	48
211.348	211.476	67	52
211.348	211.476	79	62
211.471	211.723	61	60
211.471	211.723	73	72
211.473	211.723	37	50
211.474	211.723	49	58
211.591	211.723	67	53
211.591	211.723	79	63
211.592	211.723	55	48
211.593	211.723	43	38
211.711	211.896	34	50
211.715	211.896	58	48
211.715	211.896	70	64
211.72	211.896	46	58
211.857	211.96	67	58
211.857	211.96	79	73
211.858	211.961	43	36
211.861	211.964	55	45
212.063	212.22	57	63
212.063	212.22	69	75
212.064	212.22	45	55
212.067	212.22	33	46
212.264	212.664	52	57
212.267	212.664	76	75
212.267	212.664	88	90
212.271	212.664	64	68
212.521	212.664	50	40
212.525	212.664	74	55
212.525	212.664	86	66
212.527	212.664	62	50
212.66	213.054	73	53
212.66	213.054	85	63
212.663	213.054	49	40
212.664	213.054	61	48
212.787	213.054	46	40
212.789	213.054	58	48
212.79	213.054	70	53
212.79	213.054	82	63
212.92	213.054	45	44
212.92	213.054	69	59
212.92	213.054	81	70
212.924	213.054	57	52
213.047	213.706	55	49
213.048	213.706	67	58
213.05	213.706	79	64
213.05	213.706	91	77
213.178	213.706	65	53
213.18	213.706	77	61
213.18	213.706	89	72
213.181	213.706	53	46
213.306	213.706	64	53
213.309	213.706	52	45
213.31	213.706	76	60
213.31	213.706	88	71
213.443	213.706	50	44
213.446	213.706	62	51
213.447	213.706	74	57
213.447	213.706	86	68
213.573	213.706	61	51
213.575	213.706	49	44
213.576	213.706	73	57
213.576	213.706	85	68
213.703	214.36	70	57
213.705	214.36	82	63
213.705	214.36	94	75
213.709	214.36	58	48
213.834	214.36	81	64
213.834	214.36	93	77
213.835	214.36	69	58
213.836	214.36	57	49
213.96	214.36	67	57
213.963	214.36	79	63
213.963	214.36	91	75
213.967	214.36	55	48
214.096	214.36	65	55
214.098	214.36	53	47
214.098	214.36	77	62
214.098	214.36	89	73
214.226	214.36	52	46
214.226	214.356	64	53
214.226	214.356	76	61
214.226	214.355	88	72
214.355	215.13	88	71
214.355	215.13	100	84
214.356	215.13	64	53
214.356	215.13	76	64
214.483	215.13	74	62
214.483	215.13	86	69
214.483	215.13	98	82
214.486	215.13	62	51
214.61	215.13	73	59
214.612	215.13	61	50
214.612	215.13	85	65
214.612	215.13	97	78
214.74	214.995	82	67
214.74	214.995	94	79
214.743	214.994	70	60
214.744	214.998	58	51
214.864	215.13	69	59
214.868	215.13	81	66
214.868	215.13	93	78
214.872	215.13	57	50
214.994	215.13	70	53
214.995	215.13	82	61
214.995	215.13	94	72
214.998	215.13	58	46
215.122	215.374	55	48
215.122	215.374	79	63
215.122	215.374	91	76
215.123	215.374	67	57
215.248	215.374	58	45
215.248	215.374	70	52
215.248	215.374	82	59
215.248	215.374	94	70
215.371	215.629	53	48
215.374	215.629	77	63
215.374	215.629	89	76
215.376	215.629	65	57
215.5	215.629	79	70
215.5	215.629	91	70
215.502	215.629	55	52
215.502	215.629	67	52
215.621	215.882	64	57
215.625	215.882	76	63
215.625	215.882	88	76
215.628	215.882	52	48
215.747	215.882	55	52
215.748	215.882	67	52
215.75	215.882	79	70
215.75	215.882	91	70
215.873	216.129	50	48
215.873	216.129	62	57
215.874	216.129	74	63
215.874	216.129	86	76
215.995	216.129	52	45
215.998	216.129	76	60
215.998	216.129	88	71
216.001	216.129	64	52
216.121	216.37	73	64
216.121	216.37	85	77
216.122	216.37	49	48
216.125	216.37	61	58
216.242	216.37	52	46
216.244	216.37	64	55
216.244	216.37	76	61
216.244	216.37	88	73
216.365	216.617	46	49
216.367	216.617	70	64
216.367	216.617	82	78
216.371	216.617	58	58
216.487	216.617	61	51
216.488	216.617	49	42
216.49	216.617	73	59
216.49	216.617	85	69
216.61	216.863	45	49
216.614	216.863	69	66
216.614	216.863	81	79
216.616	216.863	57	60
216.735	216.863	46	45
216.736	216.863	58	52
216.737	216.863	70	61
216.737	216.863	82	72
216.86	217.111	43	50
216.86	217.111	67	67
216.86	217.111	79	79
216.863	217.111	55	60
216.98	217.111	46	46
216.981	217.111	58	53
216.982	217.111	70	61
216.982	217.111	82	73
217.101	217.359	41	51
217.103	217.359	53	61
217.105	217.359	65	67
217.105	217.359	77	81
217.225	217.359	43	47
217.228	217.359	67	62
217.228	217.359	79	74
217.232	217.359	55	55
217.351	217.603	52	61
217.351	217.603	64	69
217.351	217.603	76	82
217.355	217.603	40	52
217.473	217.603	55	56
217.474	217.603	43	47
217.475	217.603	67	63
217.475	217.603	79	74
217.599	217.855	62	70
217.599	217.855	74	84
217.6	217.855	50	63
217.601	217.855	38	52
217.722	217.855	40	48
217.723	217.855	64	64
217.723	217.855	76	75
217.726	217.855	52	57
217.847	218.109	61	68
217.847	218.109	73	82
217.848	218.109	37	51
217.849	218.109	49	62
217.967	218.109	52	57
217.97	218.109	40	47
217.971	218.109	64	63
217.971	218.109	76	73
218.092	218.352	34	51
218.096	218.352	58	69
218.096	218.352	70	83
218.098	218.352	46	62
218.217	218.352	37	48
218.221	218.352	49	57
218.221	218.352	61	64
218.221	218.352	73	75
218.343	218.605	33	53
218.346	218.605	45	63
218.346	218.605	57	71
218.346	218.605	69	85
218.468	218.605	46	58
218.469	218.605	34	49
218.471	218.605	58	65
218.471	218.605	70	76
218.592	218.851	32	53
218.595	218.851	44	63
218.596	218.851	56	71
218.596	218.851	68	86
218.722	218.851	57	66
218.722	218.851	69	79
218.725	218.851	33	49
218.725	218.851	45	60
218.843	219.105	31	55
218.843	219.105	43	66
218.847	219.105	55	73
218.847	219.105	67	86
218.973	219.105	45	60
218.973	219.105	57	66
218.973	219.105	69	79
218.974	219.105	33	49
219.097	219.358	42	64
219.098	219.358	54	74
219.098	219.358	66	86
219.099	219.358	30	55
219.222	219.358	45	59
219.223	219.358	57	65
219.223	219.358	69	77
219.224	219.358	33	48
219.348	219.61	29	57
219.349	219.61	53	74
219.349	219.61	65	88
219.351	219.61	41	66
219.472	219.61	45	60
219.475	219.61	57	67
219.475	219.61	69	80
219.477	219.61	33	51
219.598	219.864	40	66
219.602	219.864	52	75
219.602	219.864	64	88
219.606	219.864	28	57
219.725	219.864	33	51
219.728	219.864	45	60
219.729	219.864	57	68
219.729	219.864	69	80
219.856	220.181	27	57
219.856	220.181	39	68
219.856	220.181	51	76
219.856	220.181	63	90
220.014	220.181	33	52
220.014	220.181	45	63
220.014	220.181	57	71
220.014	220.181	69	83
220.174	220.511	24	59
220.174	220.511	36	68
220.174	220.511	48	77
220.174	220.511	60	91
220.337	220.511	33	55
220.337	220.511	45	63
220.337	220.511	57	71
220.337	220.511	69	83
220.502	220.934	25	58
220.502	220.934	37	68
220.502	220.934	49	77
220.502	220.934	61	91
220.682	220.956	33	53
220.682	220.956	45	63
220.682	220.956	57	70
220.682	220.956	69	83
221.048	221.621	38	35
221.048	221.621	45	35
221.048	221.621	50	42
221.048	221.621	74	50
221.048	221.621	77	50
221.048	221.621	86	59
221.257	221.343	52	27
221.257	221.343	56	32
221.322	221.353	53	34
221.322	221.353	57	40
221.509	221.621	61	31
221.509	221.621	64	26
221.572	221.621	62	35
221.572	221.621	65	35
221.832	222.358	38	35
221.832	222.358	45	35
221.832	222.358	50	42
221.832	222.358	74	50
221.832	222.358	77	50
221.832	222.358	86	59
222.019	222.111	56	27
222.019	222.111	61	32
222.085	222.116	57	34
222.085	222.116	62	40
222.274	222.358	64	26
222.274	222.358	68	31
222.337	222.368	65	29
222.337	222.368	69	35
222.463	222.589	72	45
222.463	222.589	84	54
222.589	223.125	38	35
222.589	223.125	43	35
222.589	223.125	50	42
222.589	223.125	70	50
222.589	223.125	76	50
222.589	223.125	82	59
222.792	222.863	54	27
222.792	222.863	57	32
222.857	222.889	55	35
222.857	222.889	58	42
223.045	223.125	63	27
223.045	223.125	66	32
223.107	223.139	64	29
223.107	223.139	67	35
223.361	223.907	38	35
223.361	223.907	43	35
223.361	223.907	50	42
223.361	223.907	70	50
223.361	223.907	76	50
223.361	223.907	82	59
223.545	223.619	54	27
223.545	223.619	57	32
223.611	223.642	55	34
223.611	223.642	58	41
223.798	223.907	63	26
223.798	223.907	66	31
223.861	223.907	64	29
223.861	223.907	67	35
223.99	224.119	70	47
223.99	224.119	82	56
224.119	224.648	37	34
224.119	224.648	49	41
224.119	224.648	69	52
224.119	224.648	76	52
224.119	224.648	81	62
224.319	224.383	51	28
224.319	224.383	54	33
224.383	224.414	52	35
224.383	224.414	55	42
224.571	224.648	60	28
224.571	224.648	63	33
224.633	224.665	61	35
224.633	224.665	64	42
224.761	225.158	69	51
224.761	225.158	81	61
224.889	225.424	33	34
224.889	225.424	45	41
224.889	225.424	76	54
224.889	225.424	79	54
224.889	225.424	88	64
225.077	225.158	51	27
225.077	225.158	54	32
225.143	225.175	52	34
225.143	225.175	55	41
225.331	225.424	60	27
225.331	225.424	63	32
225.394	225.426	61	42
225.394	225.426	64	35
225.523	225.652	67	52
225.523	225.652	79	62
225.652	226.201	38	41
225.652	226.201	50	41
225.652	226.171	65	55
225.652	226.201	69	55
225.652	226.201	77	65
225.852	225.92	52	26
225.852	225.92	56	31
225.917	225.949	53	29
225.917	225.949	57	35
226.108	226.201	61	27
226.108	226.201	64	32
226.171	226.203	62	29
226.171	226.203	65	35
226.299	226.69	69	49
226.299	226.69	81	58
226.428	226.981	38	34
226.428	226.981	45	34
226.428	226.981	50	41
226.428	226.941	62	52
226.428	226.941	65	52
226.428	226.981	74	62
226.621	226.69	52	27
226.621	226.69	56	32
226.685	226.717	53	29
226.685	226.717	57	35
226.877	226.981	61	28
226.877	226.981	64	33
226.941	226.981	62	29
226.941	226.981	65	35
227.198	227.77	36	35
227.198	227.77	48	42
227.198	227.77	72	50
227.198	227.77	76	50
227.198	227.77	84	59
227.407	227.492	51	27
227.407	227.492	54	32
227.471	227.503	52	34
227.471	227.503	55	40
227.659	227.77	59	31
227.659	227.77	63	26
227.721	227.77	60	35
227.721	227.77	64	35
227.981	228.507	40	36
227.981	228.507	52	43
227.981	228.507	72	51
227.981	228.507	79	51
227.981	228.507	84	60
228.169	228.26	54	27
228.169	228.26	59	32
228.234	228.266	55	35
228.234	228.266	60	41
228.423	228.507	63	27
228.423	228.507	66	32
228.486	228.518	64	30
228.486	228.518	67	36
228.612	228.738	70	47
228.612	228.738	82	56
228.738	229.275	41	37
228.738	229.275	48	37
228.738	229.275	53	44
228.738	229.257	69	53
228.738	229.275	77	53
228.738	229.275	81	62
228.942	229.012	56	28
228.942	229.012	59	34
229.007	229.038	57	37
229.007	229.038	60	44
229.194	229.275	64	29
229.194	229.275	68	34
229.257	229.289	65	31
229.257	229.289	69	37
229.384	229.51	72	50
229.384	229.51	84	60
229.51	230.057	41	38
229.51	230.057	53	45
229.51	230.01	65	54
229.51	230.01	69	54
229.51	230.057	77	64
229.695	229.769	56	29
229.695	229.769	59	35
229.76	229.792	57	37
229.76	229.792	60	45
229.948	230.057	64	28
229.948	230.057	68	34
230.01	230.057	65	32
230.01	230.057	69	38
230.269	230.842	40	39
230.269	230.842	52	47
230.269	230.842	76	56
230.269	230.842	80	56
230.269	230.842	88	66
230.478	230.564	55	30
230.478	230.564	58	36
230.543	230.574	56	38
230.543	230.574	59	45
230.73	230.842	63	35
230.73	230.842	67	29
230.793	230.842	64	39
230.793	230.842	68	39
231.053	231.579	44	40
231.053	231.579	56	48
231.053	231.579	76	57
231.053	231.579	83	57
231.053	231.579	88	67
231.24	231.332	58	31
231.24	231.332	63	37
231.306	231.337	59	39
231.306	231.337	64	46
231.495	231.579	67	30
231.495	231.579	70	36
231.558	231.589	68	33
231.558	231.589	71	40
231.684	231.81	74	53
231.684	231.81	86	63
231.81	232.346	45	41
231.81	232.346	52	41
231.81	232.346	57	49
231.81	232.328	73	59
231.81	232.346	81	59
231.81	232.346	85	69
232.014	232.084	60	32
232.014	232.084	63	38
232.078	232.11	61	41
232.078	232.11	64	49
232.266	232.346	68	32
232.266	232.346	72	38
232.328	232.36	69	34
232.328	232.36	73	42
232.455	232.582	76	56
232.455	232.582	88	67
232.582	233.128	45	42
232.582	233.128	52	42
232.582	233.128	57	50
232.582	233.082	69	60
232.582	233.082	73	60
232.582	233.128	81	71
232.766	232.84	60	32
232.766	232.84	63	39
232.832	232.863	61	41
232.832	232.863	64	50
233.019	233.128	68	31
233.019	233.128	72	38
233.082	233.128	69	35
233.082	233.128	73	43
233.211	233.635	45	47
233.211	233.635	57	54
233.211	233.635	69	58
233.211	233.635	81	69
233.34	233.913	46	43
233.34	233.913	52	43
233.34	233.913	58	52
233.34	233.913	79	62
233.34	233.913	85	62
233.34	233.913	91	73
233.55	233.635	63	33
233.55	233.635	66	40
233.614	233.646	64	42
233.614	233.646	67	50
233.802	233.913	72	38
233.802	233.913	75	32
233.864	233.913	73	43
233.864	233.913	76	43
234.124	234.65	45	43
234.124	234.65	57	52
234.124	234.65	69	62
234.124	234.65	81	73
234.312	234.403	63	33
234.312	234.403	66	40
234.377	234.409	64	42
234.377	234.409	67	50
234.566	234.65	72	32
234.566	234.65	75	38
234.629	234.661	73	36
234.629	234.661	76	43
234.755	234.881	45	38
234.755	234.881	57	47
234.755	234.881	69	56
234.755	234.881	81	67
234.881	235.418	46	43
234.881	235.418	51	43
234.881	235.418	58	52
234.881	235.418	78	62
234.881	235.418	84	62
234.881	235.418	90	73
235.085	235.155	62	33
235.085	235.155	65	40
235.15	235.181	63	43
235.15	235.181	66	52
235.337	235.418	71	33
235.337	235.418	74	40
235.4	235.432	72	36
235.4	235.432	75	43
235.653	236.2	45	43
235.653	236.2	57	52
235.653	236.2	69	62
235.653	236.2	81	73
235.838	235.912	62	33
235.838	235.912	65	40
235.903	235.935	63	42
235.903	235.935	66	51
236.091	236.2	71	32
236.091	236.2	74	38
236.153	236.2	72	36
236.153	236.2	75	43
236.283	236.412	45	33
236.283	236.412	57	47
236.283	236.412	69	58
236.283	236.412	81	70
236.412	236.941	47	42
236.412	236.941	50	42
236.412	236.941	59	51
236.412	236.941	77	65
236.412	236.941	80	65
236.412	236.941	89	77
236.611	236.676	61	35
236.611	236.676	64	41
236.676	236.707	62	43
236.676	236.707	65	52
236.863	236.941	67	35
236.863	236.941	70	41
236.926	236.958	68	43
236.926	236.958	71	52
237.053	237.45	77	63
237.053	237.45	89	76
237.181	237.717	40	42
237.181	237.717	47	42
237.181	237.717	52	51
237.181	237.717	76	67
237.181	237.717	80	67
237.181	237.717	88	80
237.369	237.45	55	33
237.369	237.45	58	40
237.436	237.467	56	42
237.436	237.467	59	51
237.624	237.717	63	33
237.624	237.717	67	40
237.687	237.719	64	52
237.687	237.719	68	43
237.816	237.944	74	65
237.816	237.944	86	77
237.944	238.494	45	51
237.944	238.494	52	51
237.944	238.494	57	51
237.944	238.464	73	68
237.944	238.494	81	68
237.944	238.494	85	81
238.144	238.213	60	32
238.144	238.213	63	38
238.21	238.242	61	36
238.21	238.242	64	43
238.4	238.494	68	33
238.4	238.494	72	40
238.464	238.496	69	36
238.464	238.496	73	43
238.591	238.983	76	61
238.591	238.983	88	72
238.721	239.273	45	42
238.721	239.273	52	42
238.721	239.273	57	51
238.721	239.234	69	65
238.721	239.234	73	65
238.721	239.273	81	77
238.913	238.983	60	33
238.913	238.983	63	40
238.977	239.009	61	36
238.977	239.009	64	43
239.169	239.273	68	35
239.169	239.273	72	41
239.234	239.273	69	36
239.234	239.273	73	43
239.362	239.49	33	41
239.362	239.49	45	47
239.362	239.49	57	61
239.362	239.49	69	72
239.49	240.063	34	40
239.49	240.063	40	40
239.49	240.063	46	48
239.49	240.063	67	57
239.49	240.063	73	57
239.49	240.063	79	67
239.699	239.785	51	31
239.699	239.785	54	36
239.764	239.795	52	39
239.764	239.795	55	46
239.951	240.063	60	35
239.951	240.063	63	29
240.014	240.063	61	40
240.014	240.063	64	40
240.274	240.8	33	40
240.274	240.8	45	48
240.274	240.8	57	57
240.274	240.8	69	67
240.461	240.553	51	31
240.461	240.553	54	36
240.527	240.558	52	39
240.527	240.558	55	46
240.716	240.8	60	29
240.716	240.8	63	35
240.779	240.81	61	33
240.779	240.81	64	40
240.905	241.031	33	35
240.905	241.031	45	43
240.905	241.031	57	51
240.905	241.031	69	62
241.031	241.567	34	40
241.031	241.567	39	40
241.031	241.567	46	48
241.031	241.567	66	57
241.031	241.567	72	57
241.031	241.567	78	67
241.235	241.305	50	31
241.235	241.305	53	36
241.299	241.331	51	40
241.299	241.331	54	48
241.487	241.567	59	31
241.487	241.567	62	36
241.549	241.581	60	33
241.549	241.581	63	40
241.803	242.349	33	40
241.803	242.349	45	48
241.803	242.349	57	57
241.803	242.349	69	67
241.987	242.061	50	31
241.987	242.061	53	36
242.053	242.084	51	39
242.053	242.084	54	47
242.24	242.349	59	29
242.24	242.349	62	35
242.303	242.349	60	33
242.303	242.349	63	40
242.432	242.561	33	31
242.432	242.561	45	43
242.432	242.561	57	54
242.432	242.561	69	64
242.561	243.09	35	39
242.561	243.09	38	39
242.561	243.09	47	47
242.561	243.075	65	59
242.561	243.09	68	59
242.561	243.09	77	71
242.761	242.825	52	32
242.761	242.825	55	37
242.825	242.857	53	40
242.825	242.857	56	48
243.013	243.09	61	32
243.013	243.09	64	37
243.075	243.107	62	40
243.075	243.107	65	48
243.203	243.6	65	58
243.203	243.6	77	70
243.331	243.866	34	39
243.331	243.866	38	39
243.331	243.866	46	47
243.331	243.866	64	62
243.331	243.866	68	62
243.331	243.866	76	73
243.519	243.6	51	36
243.585	243.617	52	47
243.774	243.866	55	36
243.836	243.868	56	40
243.965	244.094	62	59
243.965	244.094	74	71
244.094	245.35	33	47
244.094	245.35	40	47
244.094	245.35	45	47
244.094	244.852	61	63
244.094	245.35	69	63
244.094	244.484	73	74
244.359	245.35	46	43
244.359	245.096	55	51
244.484	245.096	64	49
244.484	245.22	73	58
244.609	245.35	49	44
244.609	245.35	58	53
244.731	245.35	67	51
244.731	245.35	76	60
244.852	245.35	52	47
244.852	245.35	61	55
244.974	245.35	70	63
244.974	245.35	79	63
245.096	245.35	55	49
245.096	245.35	64	58
245.22	245.35	73	54
245.22	245.35	82	65
245.345	245.483	50	59
245.345	245.483	62	72
245.345	245.483	71	67
245.345	245.483	77	67
245.345	245.483	80	67
245.345	245.483	83	80
245.62	245.752	45	63
245.62	245.752	57	75
245.62	245.752	76	71
245.62	245.752	81	71
245.62	245.752	85	71
245.62	245.752	88	84
245.883	246.931	58	55
245.883	246.617	67	66
246.008	246.617	76	53
246.008	246.742	85	64
246.131	246.931	61	57
246.131	246.931	70	69
246.253	246.931	79	55
246.253	246.931	88	66
246.373	246.931	64	60
246.373	246.931	73	69
246.494	246.931	82	69
246.494	246.931	91	69
246.617	246.931	67	64
246.617	246.931	76	75
246.742	246.931	85	59
246.742	246.931	94	71
246.869	247.007	62	72
246.869	247.007	74	86
246.869	247.007	83	64
246.869	247.007	89	64
246.869	247.007	92	64
246.869	247.007	95	77
247.146	247.276	57	59
247.146	247.276	69	71
247.146	247.276	88	67
247.146	247.276	93	67
247.146	247.276	97	67
247.146	247.276	100	79
247.534	247.793	50	72
247.534	247.793	62	86
247.534	247.793	83	57
247.534	247.793	89	57
247.534	247.793	92	57
247.534	247.793	95	69
247.672	247.797	45	53
247.672	247.797	57	64
247.672	247.797	88	59
247.672	247.797	93	59
247.672	247.797	97	59
247.672	247.797	100	71
247.923	248.326	38	72
247.923	248.326	50	86
247.923	248.326	83	57
247.923	248.326	89	57
247.923	248.326	92	57
247.923	248.326	95	70
248.191	248.326	33	55
248.191	248.326	45	65
248.191	248.326	88	61
248.191	248.326	93	61
248.191	248.326	97	61
248.191	248.326	100	73
248.445	248.714	38	72
248.445	248.714	50	86
248.445	248.714	83	59
248.445	248.714	89	59
248.445	248.714	92	59
248.445	248.714	95	71
248.714	248.84	33	55
248.714	248.84	45	66
248.714	248.84	88	61
248.714	248.84	93	61
248.714	248.84	97	61
248.714	248.84	100	74
249.097	249.357	50	72
249.097	249.357	62	86
249.097	249.357	83	60
249.097	249.357	89	60
249.097	249.357	92	60
249.097	249.357	95	73
249.235	249.362	45	56
249.235	249.362	57	67
249.235	249.362	88	64
249.235	249.362	93	64
249.235	249.362	97	64
249.235	249.362	100	75
249.488	249.89	38	72
249.488	249.89	50	86
249.488	249.89	83	61
249.488	249.89	89	61
249.488	249.89	92	61
249.488	249.89	95	73
249.754	249.89	33	57
249.754	249.89	45	68
249.754	249.89	88	64
249.754	249.89	93	64
249.754	249.89	97	64
249.754	249.89	100	76
250.009	250.28	38	72
250.009	250.28	50	86
250.009	250.28	83	61
250.009	250.28	89	61
250.009	250.28	92	61
250.009	250.28	95	74
250.28	250.416	33	58
250.28	250.416	45	69
250.28	250.416	88	66
250.28	250.416	93	66
250.28	250.416	97	66
250.28	250.416	100	78
250.551	250.822	44	34
250.551	250.822	56	40
250.551	250.822	68	47
250.551	250.822	80	55
250.677	250.822	45	34
250.677	250.822	57	40
250.677	250.822	69	47
250.677	250.822	81	55
250.804	250.935	46	36
250.804	250.935	58	45
250.804	250.935	70	50
250.804	250.935	82	59
251.067	251.303	45	35
251.067	251.303	57	42
251.067	251.303	69	49
251.067	251.303	81	57
251.194	251.321	46	35
251.194	251.321	58	44
251.194	251.321	70	49
251.194	251.321	82	58
251.321	251.452	47	38
251.321	251.452	59	47
251.321	251.452	71	53
251.321	251.452	83	63
251.583	251.837	46	37
251.583	251.837	58	46
251.583	251.837	70	51
251.583	251.837	82	60
251.71	251.837	47	38
251.71	251.837	59	46
251.71	251.837	71	52
251.71	251.837	83	61
251.837	251.968	48	40
251.837	251.968	60	49
251.837	251.968	72	55
251.837	251.968	84	67
252.099	252.37	45	37
252.099	252.37	57	46
252.099	252.37	69	51
252.099	252.37	81	60
252.229	252.37	46	37
252.229	252.37	58	46
252.229	252.37	70	51
252.229	252.37	82	60
252.358	252.49	47	39
252.358	252.49	59	48
252.358	252.49	71	54
252.358	252.49	83	64
252.621	252.904	46	38
252.621	252.904	58	46
252.621	252.904	70	52
252.621	252.904	82	61
252.75	252.904	47	38
252.75	252.904	59	47
252.75	252.904	71	53
252.75	252.904	83	63
252.879	253.011	48	42
252.879	253.011	60	50
252.879	253.011	72	57
252.879	253.011	84	68
253.144	253.426	47	40
253.144	253.426	59	49
253.144	253.426	71	55
253.144	253.426	83	66
253.272	253.426	48	42
253.272	253.426	60	49
253.272	253.426	72	56
253.272	253.426	84	67
253.401	253.532	49	46
253.401	253.532	61	53
253.401	253.532	73	60
253.401	253.532	85	72
253.664	253.951	46	42
253.664	253.951	58	51
253.664	253.951	70	57
253.664	253.951	82	69
253.792	253.951	47	42
253.792	253.951	59	51
253.792	253.951	71	57
253.792	253.951	83	69
253.92	254.052	48	46
253.92	254.052	60	55
253.92	254.052	72	61
253.92	254.052	84	74
254.185	254.486	47	45
254.185	254.486	59	52
254.185	254.486	71	59
254.185	254.486	83	71
254.313	254.486	48	46
254.313	254.486	60	53
254.313	254.486	72	60
254.313	254.486	84	72
254.442	254.575	49	48
254.442	254.575	61	57
254.442	254.575	73	64
254.442	254.575	85	77
254.709	255.11	48	46
254.709	255.11	60	55
254.709	255.11	72	61
254.709	255.11	84	74
254.839	255.11	49	46
254.839	255.11	61	55
254.839	255.11	73	61
254.839	255.11	85	74
255.019	255.502	38	49
255.019	255.502	50	58
255.019	255.502	74	70
255.019	255.502	86	83
255.228	255.502	53	29
255.228	255.502	56	35
255.228	255.502	62	29
255.228	255.502	65	42
255.228	255.502	68	50
255.294	255.502	54	35
255.294	255.502	57	42
255.294	255.502	66	51
255.294	255.502	69	60
255.559	256.098	38	49
255.559	256.098	50	49
255.559	256.098	74	70
255.559	256.098	86	83
255.757	256.098	53	29
255.757	256.098	56	35
255.757	256.098	62	29
255.757	256.098	65	42
255.757	256.098	68	50
255.824	256.098	54	35
255.824	256.098	57	42
255.824	256.098	66	51
255.824	256.098	69	60
255.956	256.098	72	57
255.956	256.098	84	68
256.098	256.611	38	49
256.098	256.611	50	58
256.098	256.611	70	70
256.098	256.611	82	83
256.296	256.611	54	29
256.296	256.611	57	35
256.296	256.611	63	42
256.296	256.611	66	50
256.362	256.611	55	35
256.362	256.611	58	42
256.362	256.611	64	51
256.362	256.611	67	60
256.635	257.123	38	49
256.635	257.123	50	58
256.635	257.035	70	71
256.635	257.035	82	84
256.835	257.123	54	29
256.835	257.123	57	35
256.835	257.123	63	42
256.835	257.123	66	50
256.901	257.123	55	35
256.901	257.123	58	42
256.901	257.123	64	51
256.901	257.123	67	60
257.035	257.178	70	57
257.035	257.178	82	68
257.178	257.759	37	48
257.178	257.759	49	57
257.178	257.59	69	69
257.178	257.59	81	82
257.379	257.759	51	29
257.379	257.759	54	35
257.379	257.759	60	42
257.379	257.759	63	50
257.446	257.759	52	35
257.446	257.759	55	42
257.446	257.759	61	51
257.446	257.759	64	60
257.59	257.759	69	63
257.59	257.759	81	75
257.733	258.24	33	47
257.733	258.24	45	56
257.733	258.24	76	68
257.733	258.24	88	80
257.939	258.24	51	29
257.939	258.24	54	35
257.939	258.24	60	42
257.939	258.24	63	50
258.007	258.24	52	35
258.007	258.24	55	42
258.007	258.24	61	51
258.007	258.24	64	60
258.144	258.288	67	57
258.144	258.288	79	68
258.288	258.831	38	48
258.288	258.831	50	57
258.288	258.56	66	69
258.288	258.847	78	82
258.492	258.847	53	29
258.492	258.847	56	35
258.492	258.831	62	29
258.492	258.847	65	42
258.492	258.847	68	50
258.56	258.847	54	35
258.56	258.847	57	42
258.56	258.847	66	51
258.56	258.695	69	60
258.695	258.847	69	55
258.695	258.847	81	65
258.831	259.409	38	46
258.831	259.409	50	55
258.831	259.109	62	67
258.831	259.409	74	79
259.04	259.409	53	29
259.04	259.409	56	35
259.04	259.409	61	42
259.04	259.409	65	50
259.109	259.409	54	35
259.109	259.409	57	42
259.109	259.409	62	51
259.109	259.409	66	60
259.409	259.892	37	49
259.409	259.892	49	58
259.409	259.892	73	70
259.409	259.892	85	83
259.618	259.892	52	29
259.618	259.892	55	35
259.618	259.892	61	29
259.618	259.892	64	42
259.618	259.892	67	50
259.685	259.892	53	35
259.685	259.892	56	42
259.685	259.892	65	51
259.685	259.892	68	60
259.95	260.488	41	49
259.95	260.488	53	49
259.95	260.488	73	70
259.95	260.488	85	83
260.148	260.488	55	35
260.148	260.488	61	29
260.148	260.488	64	42
260.148	260.488	67	50
260.214	260.488	56	42
260.214	260.488	65	51
260.214	260.488	68	60
260.346	260.488	71	57
260.346	260.488	83	68
260.488	261.028	42	49
260.488	261.028	54	58
260.488	260.753	69	70
260.488	261.028	81	83
260.687	261.028	56	29
260.687	261.028	61	35
260.687	261.028	65	42
260.687	261.028	68	50
260.753	261.025	57	42
260.753	261.025	66	51
260.753	261.028	69	60
261.025	261.514	45	49
261.025	261.292	57	58
261.025	261.292	66	71
261.025	261.514	78	84
261.225	261.514	56	29
261.225	261.514	61	35
261.225	261.514	65	42
261.225	261.514	68	50
261.292	261.514	57	42
261.292	261.514	66	51
261.292	261.425	69	60
261.425	261.569	69	57
261.425	261.569	81	68
261.569	262.052	40	49
261.569	262.052	52	58
261.569	262.052	76	70
261.569	262.052	88	83
261.778	262.052	55	29
261.778	262.052	58	35
261.778	262.052	64	29
261.778	262.052	67	42
261.778	262.052	70	50
261.844	262.052	56	35
261.844	262.052	59	42
261.844	262.052	68	51
261.844	262.052	71	60
262.109	262.648	44	49
262.109	262.648	56	49
262.109	262.648	76	70
262.109	262.648	88	83
262.307	262.648	58	35
262.307	262.648	64	29
262.307	262.648	67	42
262.307	262.648	70	50
262.373	262.648	59	42
262.373	262.648	68	51
262.373	262.648	71	60
262.506	262.648	74	57
262.506	262.648	86	68
262.648	263.2	45	49
262.648	263.2	57	58
262.648	262.912	73	70
262.648	263.2	85	83
262.846	263.2	60	29
262.846	263.2	64	35
262.846	263.2	68	42
262.846	263.2	72	50
262.912	263.184	61	42
262.912	263.184	69	51
262.912	263.2	73	60
263.184	263.673	49	49
263.184	263.451	61	58
263.184	263.451	69	71
263.184	263.584	81	84
263.384	263.673	60	29
263.384	263.673	64	35
263.384	263.673	68	42
263.384	263.673	72	50
263.451	263.673	61	42
263.451	263.584	69	51
263.451	263.673	73	60
263.584	263.728	45	42
263.584	263.728	57	54
263.584	263.728	69	57
263.584	263.728	81	68
263.728	264.268	45	39
263.728	264.268	51	39
263.728	264.268	57	46
263.728	264.268	78	56
263.728	264.268	84	56
263.728	264.268	90	66
263.937	264.272	62	23
263.937	264.272	65	28
263.937	264.272	71	33
263.937	264.272	74	40
264.004	264.272	63	28
264.004	264.272	66	33
264.004	264.272	72	40
264.004	264.272	75	48
264.268	264.665	45	39
264.268	264.665	51	39
264.268	264.665	57	39
264.268	264.665	78	56
264.268	264.665	84	56
264.268	264.665	90	66
264.467	264.807	62	28
264.467	264.807	65	23
264.467	264.807	71	33
264.467	264.807	74	40
264.533	264.807	63	28
264.533	264.807	66	33
264.533	264.807	72	40
264.533	264.807	75	48
264.665	264.807	45	35
264.665	264.807	51	35
264.665	264.807	57	40
264.665	264.807	78	45
264.665	264.807	84	45
264.665	264.807	90	54
264.807	265.344	45	39
264.807	265.352	52	39
264.807	265.344	57	46
264.807	265.344	81	56
264.807	265.352	85	56
264.807	265.352	93	66
265.005	265.352	60	23
265.005	265.352	63	28
265.005	265.352	72	33
265.005	265.352	75	40
265.071	265.352	61	28
265.071	265.352	64	33
265.071	265.352	73	40
265.071	265.344	76	48
265.344	265.832	45	39
265.344	265.832	49	39
265.344	265.832	57	46
265.344	265.832	76	56
265.344	265.832	81	56
265.344	265.832	88	67
265.544	265.832	60	23
265.544	265.832	63	28
265.544	265.832	68	33
265.544	265.832	72	40
265.61	265.832	61	28
265.61	265.832	64	33
265.61	265.832	69	40
265.61	265.832	73	48
265.887	266.428	45	40
265.887	266.428	51	40
265.887	266.428	57	48
265.887	266.428	78	58
265.887	266.428	84	58
265.887	266.428	90	69
266.097	266.431	62	24
266.097	266.431	65	29
266.097	266.431	71	34
266.097	266.431	74	42
266.163	266.431	63	29
266.163	266.431	66	34
266.163	266.431	72	42
266.163	266.431	75	50
266.428	266.824	45	40
266.428	266.824	51	40
266.428	266.824	57	40
266.428	266.824	78	58
266.428	266.824	84	58
266.428	266.824	90	69
266.626	266.966	62	29
266.626	266.966	65	24
266.626	266.966	71	34
266.626	266.966	74	42
266.692	266.966	63	29
266.692	266.966	66	34
266.692	266.966	72	42
266.692	266.966	75	50
266.824	266.966	45	36
266.824	266.966	51	36
266.824	266.966	57	42
266.824	266.966	78	47
266.824	266.966	84	47
266.824	266.966	90	56
266.966	267.503	46	40
266.966	267.511	53	40
266.966	267.503	58	48
266.966	267.503	82	58
266.966	267.511	86	58
266.966	267.511	94	69
267.165	267.511	61	24
267.165	267.511	64	29
267.165	267.511	73	34
267.165	267.511	76	42
267.231	267.511	62	29
267.231	267.511	65	34
267.231	267.511	74	42
267.231	267.503	77	50
267.503	267.992	46	40
267.503	267.992	50	40
267.503	267.992	58	48
267.503	267.992	77	58
267.503	267.992	82	58
267.503	267.992	89	70
267.703	267.992	61	24
267.703	267.992	64	29
267.703	267.992	69	34
267.703	267.992	73	42
267.77	267.992	62	29
267.77	267.992	65	34
267.77	267.992	70	42
267.77	267.992	74	50
268.047	268.587	46	42
268.047	268.587	52	42
268.047	268.587	58	50
268.047	268.587	79	60
268.047	268.587	85	60
268.047	268.587	91	72
268.256	268.59	63	25
268.256	268.59	66	30
268.256	268.59	72	36
268.256	268.59	75	44
268.322	268.59	64	30
268.322	268.59	67	36
268.322	268.59	73	44
268.322	268.59	76	53
268.587	268.984	46	43
268.587	268.984	52	43
268.587	268.984	58	43
268.587	268.984	79	62
268.587	268.984	85	62
268.587	268.984	91	74
268.785	269.126	63	31
268.785	269.126	66	26
268.785	269.126	72	37
268.785	269.126	75	45
268.851	269.126	64	31
268.851	269.126	67	37
268.851	269.126	73	46
268.851	269.126	76	55
268.984	269.126	46	39
268.984	269.126	52	39
268.984	269.126	58	46
268.984	269.126	79	51
268.984	269.126	85	51
268.984	269.126	91	61
269.126	269.666	47	44
269.126	269.67	54	44
269.126	269.666	59	53
269.126	269.666	83	64
269.126	269.67	87	64
269.126	269.666	95	76
269.335	269.67	62	26
269.335	269.67	65	32
269.335	269.67	70	38
269.335	269.67	74	47
269.401	269.67	63	32
269.401	269.67	66	38
269.401	269.67	71	47
269.401	269.67	75	56
269.666	270.063	47	46
269.666	270.063	59	46
269.666	270.063	83	66
269.666	270.063	95	79
269.865	270.205	64	33
269.865	270.205	67	27
269.865	270.205	73	39
269.865	270.205	76	48
269.931	270.205	65	33
269.931	270.205	68	39
269.931	270.205	74	48
269.931	270.205	77	58
270.063	270.205	47	42
270.063	270.205	59	49
270.063	270.205	83	54
270.063	270.205	95	65
270.205	270.749	48	47
270.205	270.749	60	56
270.205	270.749	84	68
270.205	270.749	96	81
270.414	270.749	63	28
270.414	270.749	66	34
270.414	270.749	71	40
270.414	270.749	75	49
270.481	270.749	64	34
270.481	270.749	67	40
270.481	270.749	72	50
270.481	270.749	76	60
270.745	271.142	49	48
270.745	271.142	61	48
270.745	271.142	85	70
270.745	271.142	97	83
270.944	271.297	66	35
270.944	271.297	69	29
270.944	271.297	75	41
270.944	271.297	78	51
271.01	271.297	67	35
271.01	271.297	70	41
271.01	271.297	76	51
271.01	271.297	79	61
271.142	271.297	49	44
271.142	271.297	61	52
271.142	271.297	85	58
271.142	271.297	97	69
271.297	271.836	50	50
271.297	271.836	62	59
271.297	271.836	86	72
271.297	271.836	98	85
271.492	271.836	64	32
271.492	271.836	68	38
271.492	271.836	76	45
271.492	271.836	80	53
271.557	271.836	65	38
271.557	271.836	69	45
271.557	271.836	77	52
271.557	271.828	81	62
271.828	272.359	45	45
271.828	272.359	57	53
271.828	272.359	81	66
271.828	272.359	93	78
272.024	272.359	61	33
272.024	272.359	64	39
272.024	272.359	73	45
272.024	272.359	76	53
272.089	272.359	62	39
272.089	272.359	65	47
272.089	272.359	74	51
272.089	272.359	77	60
272.359	272.898	41	50
272.359	272.898	53	59
272.359	272.898	77	72
272.359	272.898	89	85
272.555	272.898	56	32
272.555	272.898	61	38
272.555	272.898	68	45
272.555	272.898	73	53
272.62	272.898	57	38
272.62	272.898	62	45
272.62	272.898	69	52
272.62	272.89	74	62
272.89	273.424	38	45
272.89	273.424	50	53
272.89	273.424	74	66
272.89	273.424	86	78
273.088	273.424	52	33
273.088	273.424	56	39
273.088	273.424	64	45
273.088	273.424	68	53
273.154	273.424	53	39
273.154	273.424	57	47
273.154	273.424	65	51
273.154	273.424	69	60
273.424	273.955	46	50
273.424	273.955	58	59
273.424	273.955	82	72
273.424	273.955	94	85
273.617	273.955	61	32
273.617	273.955	64	38
273.617	273.955	73	45
273.617	273.955	76	53
273.681	273.955	62	38
273.681	273.955	65	45
273.681	273.955	74	52
273.681	273.947	77	62
273.947	274.477	41	45
273.947	274.477	53	53
273.947	274.477	77	66
273.947	274.477	89	78
274.143	274.477	57	33
274.143	274.477	61	39
274.143	274.477	69	45
274.143	274.477	73	53
274.208	274.477	58	39
274.208	274.477	62	47
274.208	274.477	70	51
274.208	274.477	74	60
274.477	275.016	38	50
274.477	275.016	50	59
274.477	275.016	74	72
274.477	275.016	86	85
274.672	275.016	52	32
274.672	275.016	57	38
274.672	275.016	64	45
274.672	275.016	69	53
274.738	275.016	53	38
274.738	275.016	58	45
274.738	275.016	65	52
274.738	275.008	70	62
275.008	275.54	34	45
275.008	275.54	46	53
275.008	275.54	70	66
275.008	275.54	82	78
275.204	275.54	49	33
275.204	275.54	52	39
275.204	275.54	61	45
275.204	275.54	64	53
275.269	275.54	50	39
275.269	275.54	53	47
275.269	275.54	62	51
275.269	275.54	65	60
275.54	276.075	39	50
275.54	276.075	51	59
275.54	276.075	75	72
275.54	276.075	87	85
275.734	276.075	54	32
275.734	276.075	57	38
275.734	276.075	62	45
275.734	276.075	66	53
275.798	276.075	55	38
275.798	276.075	58	45
275.798	276.075	63	52
275.798	276.075	67	62
276.068	276.601	34	45
276.068	276.601	46	53
276.068	276.601	70	66
276.068	276.601	82	78
276.263	276.601	54	33
276.263	276.601	57	39
276.263	276.601	62	45
276.263	276.601	66	53
276.328	276.601	55	39
276.328	276.601	58	47
276.328	276.601	63	51
276.328	276.601	67	60
276.601	277.14	39	50
276.601	277.14	51	59
276.601	277.14	75	72
276.601	277.14	87	85
276.797	277.14	54	32
276.797	277.14	57	38
276.797	277.14	62	45
276.797	277.14	66	53
276.862	277.14	55	38
276.862	277.14	58	45
276.862	277.14	63	52
276.862	277.14	67	62
277.133	277.671	34	45
277.133	277.671	46	53
277.133	277.671	70	66
277.133	277.671	82	78
277.33	277.671	54	33
277.33	277.671	57	39
277.33	277.671	62	45
277.33	277.671	66	53
277.396	277.671	55	39
277.396	277.671	58	47
277.396	277.671	63	51
277.396	277.671	67	60
277.671	278.223	33	50
277.671	278.223	45	59
277.671	278.223	69	72
277.671	278.223	81	85
277.87	278.223	52	32
277.87	278.223	56	38
277.87	278.223	61	45
277.87	278.223	64	53
277.936	278.223	53	38
277.936	278.223	57	45
277.936	278.223	62	52
277.936	278.215	65	62
278.215	278.76	29	45
278.215	278.76	41	53
278.215	278.76	65	66
278.215	278.76	77	78
278.416	278.76	52	39
278.416	278.76	56	45
278.416	278.76	61	53
278.483	278.76	53	47
278.483	278.76	57	51
278.483	278.76	62	60
278.76	279.325	28	50
278.76	279.325	40	59
278.76	279.325	64	72
278.76	279.325	76	85
279.03	279.325	46	38
279.03	279.325	50	38
279.03	279.325	52	45
279.03	279.325	55	52
279.03	279.325	58	52
279.03	279.325	62	62
279.317	279.917	33	45
279.317	279.596	45	53
279.317	279.596	69	66
279.317	279.917	81	78
279.596	279.917	45	38
279.596	279.917	49	38
279.596	279.917	52	38
279.596	279.917	55	47
279.596	279.917	57	51
279.596	279.917	61	51
279.596	279.917	64	51
279.596	279.917	69	60
279.917	281.04	38	56
279.917	281.213	45	56
279.917	281.04	50	56
279.917	281.229	53	67
279.917	281.229	57	67
279.917	280.027	62	70
280.027	281.103	62	53
280.137	280.247	74	54
280.247	280.882	74	54
280.352	280.458	86	54
280.458	280.67	86	58
280.564	281.229	98	62
280.67	280.776	86	54
280.776	281.229	86	58
280.882	280.987	74	54
280.987	281.229	74	58
281.04	281.229	38	58
281.04	281.229	50	69
281.103	281.229	62	54
281.182	282.563	39	66
281.197	282.563	42	66
281.213	282.563	45	66
281.229	282.563	51	78
281.339	282.412	62	45
281.339	282.412	66	54
281.45	282.297	72	45
281.45	281.56	74	54
281.56	282.192	74	46
281.56	282.192	78	55
281.666	282.087	84	49
281.666	281.771	86	58
281.771	281.981	86	46
281.771	281.981	90	55
281.876	282.563	96	53
281.876	282.563	98	63
281.981	282.087	86	46
281.981	282.563	90	55
282.087	282.563	84	51
282.087	282.563	86	60
282.192	282.297	74	46
282.192	282.563	78	55
282.297	282.563	72	49
282.297	282.563	74	58
282.35	282.563	38	57
282.35	282.563	50	68
282.412	282.563	62	45
282.412	282.563	66	54
282.489	283.886	41	65
282.504	283.886	44	65
282.52	283.886	47	65
282.535	283.886	53	77
282.646	283.729	62	45
282.646	283.729	65	53
282.757	283.617	71	45
282.757	282.868	74	53
282.868	283.51	74	45
282.868	283.51	77	53
282.975	283.403	83	47
282.975	283.082	86	56
283.082	283.296	86	45
283.082	283.296	89	53
283.189	283.886	95	51
283.189	283.886	98	60
283.296	283.403	86	45
283.296	283.886	89	53
283.403	283.886	83	47
283.403	283.886	86	56
283.51	283.617	74	45
283.51	283.886	77	53
283.617	283.886	71	48
283.617	283.886	74	57
283.671	283.886	38	56
283.671	283.818	50	67
283.729	283.886	62	45
283.729	283.886	65	53
283.803	284.335	46	65
283.818	284.51	50	65
283.832	284.51	55	65
283.847	284.335	58	77
283.957	284.51	62	45
283.957	284.51	64	53
284.067	284.51	70	45
284.067	284.177	74	53
284.177	284.51	74	45
284.177	284.51	76	53
284.283	284.51	82	47
284.283	284.388	86	56
284.335	284.51	46	56
284.335	284.51	58	67
284.388	284.51	86	45
284.388	284.51	88	53
284.494	285.206	45	65
284.494	285.238	57	77
284.494	285.238	94	51
284.494	285.238	98	60
284.6	284.708	86	45
284.6	285.238	88	53
284.708	285.238	82	47
284.708	285.238	86	56
284.818	284.928	74	45
284.818	285.238	76	53
284.928	285.238	70	48
284.928	285.238	74	57
284.983	285.238	43	56
284.983	285.238	55	67
285.064	285.238	62	45
285.064	285.238	64	53
285.166	286.351	38	66
285.186	286.498	42	66
285.206	286.513	45	66
285.227	286.351	50	78
285.338	286.41	62	45
285.338	286.41	66	54
285.45	286.299	69	45
285.45	285.562	74	54
285.562	286.193	74	46
285.562	286.193	78	55
285.667	286.088	81	49
285.667	285.772	86	58
285.772	285.983	86	46
285.772	285.983	90	55
285.877	286.528	93	53
285.877	286.528	98	63
285.983	286.088	86	46
285.983	286.528	90	55
286.088	286.528	81	51
286.088	286.528	86	60
286.193	286.299	74	46
286.193	286.528	78	55
286.299	286.528	69	49
286.299	286.528	74	58
286.351	286.528	38	57
286.351	286.528	50	68
286.41	286.528	62	45
286.41	286.528	66	54
286.484	287.838	39	66
286.498	287.838	42	66
286.513	287.838	45	66
286.528	287.838	51	78
286.639	287.72	60	45
286.639	287.72	63	54
286.751	287.607	66	45
286.751	286.863	72	54
286.863	287.501	72	46
286.863	287.501	75	55
286.969	287.395	78	49
286.969	287.076	84	58
287.076	287.288	84	46
287.076	287.288	87	55
287.182	287.838	90	53
287.182	287.838	96	63
287.288	287.395	84	46
287.288	287.838	87	55
287.395	287.838	78	51
287.395	287.838	84	60
287.501	287.607	72	46
287.501	287.838	75	55
287.607	287.838	66	49
287.607	287.838	72	58
287.661	287.838	38	57
287.661	287.838	50	68
287.72	287.838	60	45
287.72	287.838	63	54
287.794	289.147	35	65
287.809	289.147	41	65
287.823	289.147	44	65
287.838	289.147	47	77
287.949	289.029	59	45
287.949	289.029	62	53
288.06	288.916	65	45
288.06	288.172	71	53
288.172	288.81	71	45
288.172	288.81	74	53
288.278	288.703	77	47
288.278	288.384	83	56
288.384	288.597	83	45
288.384	288.597	86	53
288.491	289.147	89	51
288.491	289.147	95	60
288.597	288.703	83	45
288.597	289.147	86	53
288.703	289.147	77	47
288.703	289.147	83	56
288.81	288.916	71	45
288.81	289.147	74	53
288.916	289.147	65	48
288.916	289.147	71	57
288.969	289.147	38	56
288.969	289.147	50	67
289.029	289.147	59	45
289.029	289.147	62	53
289.147	289.641	34	65
289.147	289.8	37	65
289.147	289.8	40	65
289.147	289.641	46	77
289.147	289.8	58	45
289.147	289.81	61	53
289.259	289.81	64	45
289.259	289.37	70	53
289.37	289.81	70	45
289.37	289.81	73	53
289.482	289.81	76	47
289.482	289.588	82	56
289.588	289.81	82	45
289.588	289.81	85	53
289.641	289.81	34	56
289.641	289.81	46	67
289.694	289.81	88	51
289.694	289.81	94	60
289.8	290.276	31	65
289.8	290.476	37	65
289.8	290.476	40	65
289.8	290.276	43	77
289.8	290.476	55	45
289.8	290.476	58	53
289.905	290.476	61	45
289.905	290.011	67	53
290.011	290.476	67	45
290.011	290.476	70	53
290.117	290.476	73	47
290.117	290.223	79	56
290.223	290.476	79	45
290.223	290.476	82	53
290.276	290.476	31	56
290.276	290.476	43	67
290.336	290.476	85	51
290.336	290.476	91	60
290.455	290.635	38	56
290.455	290.635	45	56
290.455	290.635	50	56
290.455	290.635	53	67
290.455	290.635	57	67
290.455	290.635	62	70
290.815	291.725	67	59
290.815	291.725	76	60
290.815	291.725	85	60
290.815	291.725	94	70
290.914	291.725	75	60
290.914	291.725	84	60
291.013	291.725	74	60
291.013	291.725	83	60
291.112	291.725	64	63
291.112	291.725	73	60
291.112	291.725	82	60
291.112	291.725	91	76
291.211	291.725	72	60
291.211	291.725	81	60
291.31	291.725	71	60
291.31	291.725	80	60
291.409	291.725	61	58
291.409	291.725	70	60
291.409	291.725	79	60
291.409	291.725	88	70
291.514	291.725	69	60
291.514	291.725	78	60
291.619	291.725	68	60
291.619	291.725	77	60
291.725	291.882	58	53
291.725	291.882	67	63
291.725	291.882	76	64
291.725	291.882	85	76
292.04	292.994	43	53
292.04	292.828	55	63
292.04	292.828	70	59
292.04	292.994	82	70
292.196	292.507	49	48
292.196	292.507	52	57
292.196	292.507	73	52
292.196	292.507	76	62
292.351	292.994	45	53
292.351	292.994	57	63
292.351	292.994	69	59
292.351	292.994	81	70
292.507	292.994	49	49
292.507	292.828	52	58
292.507	292.828	73	52
292.507	292.994	76	62
292.662	292.994	46	53
292.662	292.994	58	63
292.662	292.994	67	59
292.662	292.994	79	70
292.828	292.994	52	48
292.828	292.994	55	57
292.828	292.994	70	53
292.828	292.994	73	63
292.994	293.147	50	64
292.994	293.147	54	64
292.994	293.147	57	64
292.994	293.147	62	64
292.994	293.147	74	60
292.994	293.147	78	60
292.994	293.147	86	72
293.3	294.221	55	53
293.3	294.221	64	54
293.3	294.221	73	54
293.3	294.221	82	63
293.399	294.221	63	54
293.399	294.221	72	54
293.499	294.221	62	54
293.499	294.221	71	54
293.598	294.221	52	56
293.598	294.221	61	54
293.598	294.221	70	54
293.598	294.221	79	68
293.698	294.221	60	54
293.698	294.221	69	54
293.797	294.221	59	54
293.797	294.221	68	54
293.897	294.221	49	52
293.897	294.221	58	54
293.897	294.221	67	54
293.897	294.221	76	63
294.005	294.221	57	54
294.005	294.221	66	54
294.113	294.221	56	54
294.113	294.221	65	54
294.221	294.376	46	47
294.221	294.376	55	56
294.221	294.376	64	57
294.221	294.376	73	68
294.532	295.476	31	51
294.532	295.315	43	61
294.532	295.315	58	58
294.532	295.476	70	69
294.687	294.998	37	47
294.687	294.998	40	56
294.687	294.998	61	50
294.687	294.998	64	60
294.843	295.476	33	51
294.843	295.476	45	61
294.843	295.476	57	58
294.843	295.476	69	69
294.998	295.476	37	48
294.998	295.315	40	57
294.998	295.315	61	50
294.998	295.476	64	60
295.154	295.476	34	51
295.154	295.476	46	61
295.154	295.476	55	58
295.154	295.476	67	69
295.315	295.476	40	47
295.315	295.476	43	56
295.315	295.476	58	51
295.315	295.476	61	61
295.476	295.634	38	62
295.476	295.634	42	62
295.476	295.634	45	62
295.476	295.634	50	62
295.476	295.634	62	59
295.476	295.634	66	59
295.476	295.634	74	70
295.792	295.941	43	46
295.792	295.941	46	46
295.792	295.941	49	46
295.792	295.941	55	55
295.792	295.941	64	58
295.792	295.941	70	58
295.792	295.941	73	58
295.792	295.941	76	69
295.941	296.105	43	46
295.941	296.105	46	46
295.941	296.105	49	46
295.941	296.105	55	55
295.941	296.105	64	58
295.941	296.105	70	58
295.941	296.105	73	58
295.941	296.105	76	69
296.09	296.245	50	54
296.09	296.245	54	54
296.09	296.245	57	54
296.09	296.245	62	64
296.09	296.245	66	65
296.09	296.245	69	65
296.09	296.245	74	65
296.09	296.245	78	77
296.4	296.545	43	49
296.4	296.545	46	49
296.4	296.545	49	49
296.4	296.545	55	58
296.4	296.545	70	61
296.4	296.545	73	61
296.4	296.545	76	61
296.4	296.545	82	73
296.545	296.69	43	49
296.545	296.69	46	49
296.545	296.69	49	49
296.545	296.69	55	58
296.545	296.69	70	61
296.545	296.69	73	61
296.545	296.69	76	61
296.545	296.69	82	73
296.69	296.845	38	57
296.69	296.845	42	57
296.69	296.845	45	57
296.69	296.845	50	68
296.69	296.845	74	58
296.69	296.845	78	58
296.69	296.845	81	65
296.69	296.845	86	85
297.0	297.147	43	51
297.0	297.147	46	51
297.0	297.147	49	51
297.0	297.147	55	60
297.0	297.147	76	61
297.0	297.147	82	61
297.0	297.147	85	61
297.0	297.147	88	72
297.147	297.309	43	49
297.147	297.309	46	49
297.147	297.309	49	49
297.147	297.309	55	58
297.147	297.309	76	61
297.147	297.309	82	61
297.147	297.309	85	61
297.147	297.309	88	72
297.295	297.449	50	56
297.295	297.449	54	56
297.295	297.449	57	56
297.295	297.449	62	66
297.295	297.449	78	69
297.295	297.449	81	69
297.295	297.449	86	69
297.295	297.449	90	82
297.604	297.753	43	50
297.604	297.753	46	50
297.604	297.753	49	50
297.604	297.753	55	59
297.604	297.753	82	65
297.604	297.753	85	65
297.604	297.753	88	65
297.604	297.753	94	77
297.753	297.902	43	50
297.753	297.902	46	50
297.753	297.902	49	50
297.753	297.902	55	59
297.753	297.902	82	65
297.753	297.902	85	65
297.753	297.902	88	65
297.753	297.902	94	77
297.902	298.058	38	57
297.902	298.058	42	57
297.902	298.058	45	57
297.902	298.058	50	68
297.902	298.058	86	73
297.902	298.058	90	73
297.902	298.058	98	87
298.213	298.363	31	51
298.213	298.363	37	51
298.213	298.363	40	60
298.213	298.363	43	60
298.213	298.363	82	66
298.213	298.363	85	66
298.213	298.363	88	66
298.213	298.363	94	78
298.363	298.513	31	51
298.363	298.513	37	51
298.363	298.513	40	60
298.363	298.513	43	60
298.363	298.513	82	66
298.363	298.513	85	66
298.363	298.513	88	66
298.363	298.513	94	78
298.513	298.669	38	59
298.513	298.669	42	59
298.513	298.669	45	59
298.513	298.669	50	71
298.513	298.669	86	76
298.513	298.669	90	76
298.513	298.669	98	91
298.824	298.975	31	52
298.824	298.975	37	52
298.824	298.975	40	52
298.824	298.975	43	62
298.824	298.975	82	72
298.824	298.975	85	72
298.824	298.975	88	72
298.824	298.975	94	85
298.975	299.126	31	52
298.975	299.126	37	52
298.975	299.126	40	52
298.975	299.126	43	62
298.975	299.126	82	72
298.975	299.126	85	72
298.975	299.126	88	72
298.975	299.126	94	85
299.126	299.436	38	62
299.126	299.436	42	62
299.126	299.436	45	62
299.126	299.436	50	74
299.126	299.436	86	79
299.126	299.436	90	79
299.126	299.436	98	93
299.436	299.748	31	53
299.436	299.748	37	53
299.436	299.748	40	53
299.436	299.748	43	63
299.436	299.748	82	73
299.436	299.748	85	73
299.436	299.748	88	73
299.436	299.748	94	86
300.062	300.377	31	53
300.062	300.377	37	53
300.062	300.377	40	53
300.062	300.377	43	63
300.062	300.377	82	73
300.062	300.377	85	73
300.062	300.377	88	73
300.062	300.377	94	86
300.727	301.051	31	53
300.727	301.051	37	53
300.727	301.051	40	53
300.727	301.051	43	63
300.727	301.051	82	70
300.727	301.051	85	70
300.727	301.051	88	70
300.727	301.051	94	83
301.051	301.379	38	52
301.051	301.379	41	52
301.051	301.379	44	52
301.051	301.379	50	62
301.051	301.379	77	70
301.051	301.379	80	70
301.051	301.379	83	83
301.051	301.379	89	83
301.379	301.714	38	52
301.379	301.714	42	52
301.379	301.714	45	52
301.379	301.714	51	62
301.379	301.714	72	70
301.379	301.714	75	70
301.379	301.714	78	70
301.379	301.714	84	83
301.714	302.054	38	51
301.714	302.054	43	51
301.714	302.054	46	51
301.714	302.054	52	61
301.714	302.054	67	70
301.714	302.054	70	70
301.714	302.054	73	70
301.714	302.054	79	83
302.054	302.402	38	51
302.054	302.402	44	51
302.054	302.402	47	51
302.054	302.402	53	61
302.054	302.402	62	70
302.054	302.402	65	70
302.054	302.402	68	70
302.054	302.402	74	83
302.402	302.764	38	51
302.402	302.764	45	51
302.402	302.764	48	51
302.402	302.764	54	61
302.402	302.764	57	70
302.402	302.764	60	70
302.402	302.764	63	70
302.402	302.764	69	83
302.764	303.122	38	51
302.764	303.122	46	51
302.764	303.122	49	51
302.764	303.122	55	61
302.764	303.122	58	70
302.764	303.122	61	70
302.764	303.122	64	70
302.764	303.122	70	83
303.815	304.643	38	47
303.815	304.643	47	47
303.815	304.643	53	68
303.815	304.643	56	56
303.815	304.643	59	68
303.815	304.99	65	81
304.99	305.337	61	72
305.337	305.857	62	72
305.857	306.027	64	72
306.027	306.198	64	72
306.198	307.388	67	81
307.388	307.722	65	77
307.722	308.108	64	79
308.108	308.494	62	75
308.494	308.881	61	75
308.881	309.267	60	80
309.267	309.654	59	76
309.654	310.106	53	57
309.654	310.106	56	57
309.654	310.106	58	68
310.106	311.425	39	54
310.106	311.41	46	64
310.106	311.425	54	58
310.106	311.41	58	69
311.41	312.753	37	54
311.41	312.551	46	64
311.41	312.753	53	58
311.41	312.742	58	69
312.551	312.742	46	67
312.742	314.047	35	58
312.742	314.058	46	69
312.742	314.047	51	58
312.742	314.058	58	58
312.742	314.047	63	69
314.047	315.261	35	55
314.047	315.261	44	65
314.047	315.479	51	63
314.047	315.261	56	63
314.047	315.479	63	75
315.261	315.479	35	50
315.261	315.479	44	59
315.261	315.479	53	62
315.261	315.479	56	62
315.261	315.479	62	62
315.261	315.479	65	74
315.479	315.917	35	57
315.479	315.917	44	68
315.479	315.917	53	68
315.479	315.917	56	68
315.479	315.917	62	68
315.479	315.917	65	80
316.793	318.545	53	48
317.231	318.983	62	54
318.545	318.983	53	51
320.735	321.173	34	44
320.735	321.173	44	44
320.735	321.173	53	44
320.735	321.173	56	44
320.735	321.173	61	54
320.735	321.173	65	54
322.331	322.571	35	39
322.331	322.571	44	39
322.331	322.571	53	39
322.331	322.571	56	39
322.331	322.571	62	49
322.331	322.571	65	49
322.571	322.863	35	44
322.571	322.863	44	44
322.571	322.863	53	44
322.571	322.863	56	44
322.571	322.863	62	54
322.571	322.863	65	54
323.885	325.637	53	48
324.323	326.074	62	54
325.637	326.074	53	51
327.826	328.264	34	44
327.826	328.264	44	44
327.826	328.264	53	44
327.826	328.264	56	44
327.826	328.264	61	54
327.826	328.264	65	54
329.422	329.662	35	39
329.422	329.662	44	39
329.422	329.662	53	39
329.422	329.662	56	39
329.422	329.662	62	49
329.422	329.662	65	49
329.662	329.954	35	44
329.662	329.954	44	44
329.662	329.954	53	44
329.662	329.954	56	44
329.662	329.954	62	54
329.662	329.954	65	54
330.976	332.728	62	48
331.414	333.166	71	54
332.728	333.166	62	51
334.48	336.232	56	43
334.918	336.669	65	51
336.232	336.669	56	46
338.018	340.649	50	38
338.49	340.649	59	44
339.908	340.649	44	37
340.622	346.336	53	37
348.455	348.721	41	39
348.455	348.721	53	46
348.455	348.721	65	55
348.697	348.958	40	41
348.697	348.958	52	49
348.697	348.958	64	57
348.934	349.191	38	43
348.934	349.191	50	51
348.934	349.191	62	59
349.168	349.419	37	45
349.168	349.419	49	54
349.168	349.419	61	61
349.396	349.642	36	47
349.396	349.642	48	56
349.396	349.642	60	63
349.62	349.861	35	50
349.62	349.861	47	59
349.62	349.861	59	65
349.84	350.074	34	51
349.84	350.074	46	61
349.84	350.074	58	67
350.054	353.056	33	56
350.054	353.056	45	66
350.054	351.454	57	76
351.454	351.551	57	47
351.454	351.551	62	47
351.454	351.551	66	56
351.454	351.551	69	54
351.454	351.551	74	54
351.454	351.551	78	54
351.454	351.551	81	64
351.551	351.647	57	47
351.551	351.647	62	47
351.551	351.647	66	56
351.551	351.647	69	54
351.551	351.647	74	54
351.551	351.647	78	54
351.551	351.647	81	64
351.647	353.056	57	53
351.647	353.302	62	53
351.647	353.302	66	63
351.647	353.302	69	61
351.647	353.302	74	61
351.647	353.302	78	61
351.647	353.302	81	72
353.056	353.302	33	59
353.056	353.302	45	59
353.056	353.302	57	74
353.257	356.204	35	54
353.257	356.204	47	64
353.257	354.63	59	78
354.63	354.722	54	45
354.63	354.722	59	45
354.63	354.722	62	45
354.63	354.722	66	54
354.63	354.722	74	54
354.63	354.722	78	54
354.63	354.722	83	54
354.63	354.722	86	64
354.722	354.814	54	45
354.722	354.814	59	45
354.722	354.814	62	45
354.722	354.814	66	54
354.722	354.814	74	54
354.722	354.814	78	54
354.722	354.814	83	54
354.722	354.814	86	64
354.814	356.399	54	51
354.814	356.204	59	51
354.814	356.421	62	51
354.814	356.399	66	61
354.814	356.421	74	58
354.814	356.421	78	58
354.814	356.421	83	58
354.814	356.421	86	69
356.204	356.421	35	62
356.204	356.421	47	62
356.204	356.421	59	75
356.399	357.964	30	51
356.399	357.964	42	60
356.399	356.983	54	67
356.399	356.983	66	79
356.983	357.073	54	47
356.983	357.073	58	47
356.983	357.073	61	47
356.983	357.073	66	56
356.983	357.073	78	54
356.983	357.073	82	54
356.983	357.073	85	54
356.983	357.073	90	64
357.073	357.163	54	48
357.073	357.163	58	48
357.073	357.163	61	48
357.073	357.163	66	57
357.073	357.163	78	54
357.073	357.163	82	54
357.073	357.163	85	54
357.073	357.163	90	64
357.163	357.964	54	53
357.163	357.964	58	53
357.163	357.964	61	53
357.163	357.964	66	63
357.163	357.964	78	57
357.163	357.964	82	57
357.163	357.964	85	57
357.163	357.964	90	68
357.937	359.254	33	55
357.937	359.44	45	66
357.937	358.518	57	65
357.937	358.518	69	77
358.518	358.606	57	50
358.518	358.606	61	50
358.518	358.606	64	50
358.518	358.606	69	59
358.518	358.606	81	54
358.518	358.606	85	54
358.518	358.606	88	54
358.518	358.606	93	64
358.606	358.695	57	50
358.606	358.695	61	50
358.606	358.695	64	50
358.606	358.695	69	59
358.606	358.695	81	54
358.606	358.695	85	54
358.606	358.695	88	54
358.606	358.695	93	64
358.695	359.254	57	55
358.695	359.44	61	55
358.695	359.44	64	55
358.695	359.254	69	65
358.695	359.44	81	58
358.695	359.44	85	58
358.695	359.44	88	58
358.695	359.44	93	69
359.254	359.44	26	56
359.254	359.44	33	56
359.254	359.44	38	66
359.254	359.44	57	68
359.254	359.44	62	68
359.254	359.44	66	68
359.254	359.44	69	81
359.44	366.35	26	51
359.44	364.895	33	51
359.44	364.178	38	73
359.44	360.509	57	57
359.44	360.509	62	57
359.44	360.509	66	57
359.44	360.509	69	80
360.509	360.617	57	56
360.509	360.617	62	56
360.509	360.617	66	56
360.509	360.617	69	67
360.509	360.617	81	56
360.509	360.617	86	56
360.509	360.617	90	56
360.509	360.617	93	67
360.617	361.635	57	66
360.617	360.897	62	66
360.617	360.897	66	66
360.617	360.897	69	78
360.617	361.635	81	66
360.617	360.897	86	66
360.617	360.897	90	66
360.617	360.897	93	78
360.897	360.99	62	59
360.897	360.99	66	59
360.897	360.99	69	59
360.897	360.99	74	70
360.897	360.99	86	59
360.897	360.99	90	59
360.897	360.99	93	59
360.897	360.99	98	70
360.99	361.267	62	67
360.99	361.267	66	67
360.99	361.635	69	67
360.99	362.002	74	79
360.99	361.267	86	67
360.99	361.267	90	67
360.99	361.635	93	67
360.99	366.431	98	79
361.267	361.359	54	60
361.267	361.359	62	60
361.267	361.359	66	71
361.267	361.359	78	60
361.267	361.359	86	60
361.267	361.359	90	71
361.359	362.002	54	68
361.359	361.635	62	68
361.359	361.635	66	80
361.359	362.002	78	68
361.359	361.635	86	68
361.359	361.635	90	80
361.635	361.726	57	59
361.635	361.726	62	59
361.635	361.726	66	59
361.635	361.726	69	70
361.635	361.726	81	59
361.635	361.726	86	59
361.635	361.726	90	59
361.635	361.726	93	70
361.726	362.002	57	68
361.726	362.002	62	68
361.726	362.367	66	68
361.726	362.732	69	80
361.726	362.002	81	68
361.726	362.002	86	68
361.726	362.367	90	68
361.726	366.431	93	80
362.002	362.093	50	61
362.002	362.093	54	61
362.002	362.093	57	61
362.002	362.093	62	72
362.002	362.093	74	61
362.002	362.093	78	61
362.002	362.093	81	61
362.002	362.093	86	72
362.093	362.732	50	67
362.093	362.367	54	67
362.093	362.732	57	67
362.093	362.367	62	79
362.093	362.732	74	67
362.093	362.367	78	67
362.093	362.732	81	67
362.093	362.367	86	79
362.367	362.458	54	62
362.367	362.458	62	62
362.367	362.458	66	62
362.367	362.458	78	62
362.367	362.458	86	62
362.367	362.458	90	74
362.458	362.732	54	68
362.458	363.095	62	68
362.458	363.457	66	68
362.458	362.732	78	68
362.458	363.095	86	68
362.458	366.431	90	81
362.732	362.823	45	56
362.732	362.823	50	56
362.732	362.823	54	56
362.732	362.823	57	67
362.732	362.823	69	56
362.732	362.823	74	56
362.732	362.823	78	56
362.732	362.823	81	67
362.823	363.818	45	66
362.823	363.095	50	66
362.823	363.095	54	66
362.823	363.095	57	78
362.823	363.818	69	66
362.823	363.095	74	66
362.823	363.095	78	66
362.823	363.095	81	78
363.095	363.185	50	59
363.095	363.185	54	59
363.095	363.185	57	59
363.095	363.185	62	70
363.095	363.185	74	59
363.095	363.185	78	59
363.095	363.185	81	59
363.095	363.185	86	70
363.185	363.457	50	67
363.185	363.457	54	67
363.185	363.818	57	67
363.185	364.178	62	79
363.185	363.457	74	67
363.185	363.457	78	67
363.185	363.818	81	67
363.185	366.431	86	79
363.457	363.548	42	60
363.457	363.548	50	60
363.457	363.548	54	71
363.457	363.548	66	60
363.457	363.548	74	60
363.457	363.548	78	71
363.548	364.178	42	68
363.548	363.818	50	68
363.548	363.818	54	80
363.548	364.178	66	68
363.548	363.818	74	68
363.548	363.818	78	80
363.818	363.908	45	59
363.818	363.908	50	59
363.818	363.908	54	59
363.818	363.908	57	70
363.818	363.908	69	59
363.818	363.908	74	59
363.818	363.908	78	59
363.818	363.908	81	70
363.908	364.178	45	68
363.908	364.178	50	68
363.908	364.537	54	68
363.908	364.895	57	80
363.908	364.178	69	68
363.908	364.178	74	68
363.908	364.537	78	68
363.908	366.431	81	80
364.178	364.269	38	61
364.178	364.269	42	61
364.178	364.269	45	61
364.178	364.269	50	72
364.178	364.269	62	61
364.178	364.269	66	61
364.178	364.269	69	61
364.178	364.269	74	72
364.269	364.895	38	67
364.269	364.537	42	67
364.269	364.895	45	67
364.269	364.537	50	79
364.269	364.895	62	67
364.269	364.537	66	67
364.269	364.895	69	67
364.269	364.537	74	79
364.537	364.627	42	62
364.537	364.627	50	62
364.537	364.627	54	74
364.537	364.627	66	62
364.537	364.627	74	62
364.537	364.627	78	74
364.627	364.895	42	68
364.627	365.256	50	68
364.627	365.617	54	81
364.627	364.895	66	68
364.627	365.256	74	68
364.627	366.431	78	81
364.895	364.985	33	56
364.895	364.985	38	56
364.895	364.985	42	56
364.895	364.985	45	67
364.895	364.985	57	56
364.895	364.985	62	56
364.895	364.985	66	56
364.895	364.985	69	67
364.985	365.983	33	66
364.985	365.256	38	66
364.985	365.256	42	66
364.985	365.256	45	78
364.985	365.983	57	66
364.985	365.256	62	66
364.985	365.256	66	66
364.985	365.256	69	78
365.256	365.346	38	59
365.256	365.346	42	59
365.256	365.346	45	59
365.256	365.346	50	70
365.256	365.346	62	59
365.256	365.346	66	59
365.256	365.346	69	59
365.256	365.346	74	70
365.346	365.617	38	67
365.346	365.617	42	67
365.346	365.983	45	67
365.346	366.35	50	79
365.346	365.617	62	67
365.346	365.617	66	67
365.346	365.983	69	67
365.346	366.431	74	79
365.617	365.708	30	60
365.617	365.708	38	60
365.617	365.708	42	71
365.617	365.708	54	60
365.617	365.708	62	60
365.617	365.708	66	71
365.708	366.431	30	68
365.708	365.983	38	68
365.708	365.983	42	80
365.708	366.35	54	68
365.708	365.983	62	68
365.708	365.983	66	80
365.983	366.075	33	59
365.983	366.075	38	59
365.983	366.075	42	59
365.983	366.075	45	70
365.983	366.075	57	59
365.983	366.075	62	59
365.983	366.075	66	59
365.983	366.075	69	70
366.075	366.35	33	68
366.075	366.35	38	68
366.075	366.431	42	68
366.075	366.431	45	80
366.075	366.35	57	68
366.075	366.35	62	68
366.075	366.431	66	68
366.075	366.431	69	80
366.35	366.442	26	51
366.35	366.442	33	51
366.35	366.442	38	61
366.35	366.442	50	59
366.35	366.442	54	59
366.35	366.442	57	59
366.35	366.442	62	70
366.442	366.608	26	56
366.442	366.608	33	56
366.442	366.608	38	67
366.442	366.608	50	65
366.442	366.608	54	65
366.442	366.608	57	65
366.442	366.608	62	77
366.626	366.794	26	51
366.626	366.794	34	51
366.626	366.794	38	61
366.626	366.794	50	59
366.626	366.794	55	59
366.626	366.794	58	59
366.626	366.794	62	70
366.813	366.982	26	56
366.813	366.982	33	56
366.813	366.982	38	67
366.813	366.982	50	65
366.813	366.982	54	65
366.813	366.982	57	65
366.813	366.982	62	77
367.001	367.173	26	51
367.001	367.173	34	51
367.001	367.173	38	61
367.001	367.173	50	59
367.001	367.173	55	59
367.001	367.173	58	59
367.001	367.173	62	70
367.192	367.364	26	56
367.192	367.364	33	56
367.192	367.364	38	67
367.192	367.364	50	65
367.192	367.364	54	65
367.192	367.364	57	65
367.192	367.364	62	77
367.383	367.554	26	51
367.383	367.554	34	51
367.383	367.554	38	61
367.383	367.554	50	59
367.383	367.554	55	59
367.383	367.554	58	59
367.383	367.554	62	70
367.573	367.745	26	56
367.573	367.745	33	56
367.573	367.745	38	67
367.573	367.745	50	65
367.573	367.745	54	65
367.573	367.745	57	65
367.573	367.745	62	77
367.764	367.935	26	51
367.764	367.935	34	51
367.764	367.935	38	61
367.764	367.935	50	59
367.764	367.935	55	59
367.764	367.935	58	59
367.764	367.935	62	70
367.954	368.097	26	56
367.954	368.097	33	56
367.954	368.097	38	67
367.954	368.097	50	65
367.954	368.097	54	65
367.954	368.097	57	65
367.954	368.097	62	77
368.145	368.288	26	51
368.145	368.288	34	51
368.145	368.288	38	61
368.145	368.288	50	59
368.145	368.288	55	59
368.145	368.288	58	59
368.145	368.288	62	70
368.335	368.487	26	56
368.335	368.487	33	56
368.335	368.487	38	67
368.335	368.487	50	65
368.335	368.487	54	65
368.335	368.487	57	65
368.335	368.487	62	77
368.538	368.69	26	51
368.538	368.69	34	51
368.538	368.69	38	61
368.538	368.69	50	59
368.538	368.69	55	59
368.538	368.69	58	59
368.538	368.69	62	70
368.741	370.445	26	53
368.741	373.327	33	53
368.741	369.139	38	63
368.741	369.139	50	67
368.741	369.538	54	67
368.741	369.538	57	67
368.741	369.139	62	79
369.139	370.445	38	55
369.139	373.327	42	55
369.139	373.327	45	55
369.139	369.538	50	65
369.139	369.538	62	67
369.139	369.937	66	67
369.139	369.937	69	67
369.139	369.538	74	79
369.538	370.445	50	57
369.538	373.327	54	57
369.538	373.327	57	57
369.538	369.937	62	68
369.538	369.937	74	71
369.538	373.327	78	71
369.538	373.327	81	71
369.538	369.937	86	84
369.937	370.445	62	59
369.937	373.327	66	59
369.937	373.327	69	59
369.937	373.327	74	70
369.937	373.327	86	75
369.937	373.327	90	75
369.937	373.327	93	75
369.937	373.327	98	89
370.445	373.327	26	74
370.445	373.327	38	74
370.445	373.327	50	88
370.445	373.327	62	103
