OnsetTime	OffsetTime	MidiPitch	Velocity
1.53	1.873	52	55
1.87399	1.95298	45	55
2.04099	2.128	64	48
2.04099	2.12899	69	48
2.04199	2.13	60	38
2.04199	2.12899	76	55
2.045	2.13099	52	31
2.20899	2.293	48	55
2.37999	2.46399	69	48
2.384	2.46499	76	48
2.384	2.46499	81	55
2.38699	2.46499	64	38
2.388	2.46699	57	31
2.55199	2.632	47	55
2.71601	2.8	69	48
2.72	2.80099	74	48
2.72301	2.80099	81	55
2.724	2.804	53	31
2.724	2.80299	62	38
2.88401	2.968	52	55
3.04902	3.132	68	48
3.05201	3.13301	76	48
3.05301	3.13301	64	38
3.05301	3.13301	80	55
3.05501	3.136	59	31
3.22001	3.30101	48	55
3.37701	3.461	69	48
3.382	3.462	64	38
3.382	3.462	76	55
3.38401	3.465	57	31
3.54199	3.63	45	55
3.71001	3.79399	72	48
3.714	3.79499	64	38
3.714	3.79499	76	48
3.714	3.79499	84	55
3.718	3.798	57	31
3.87499	3.95497	50	56
4.03498	4.11597	84	56
4.03599	4.11998	77	49
4.03898	4.12098	72	49
4.03999	4.12297	57	33
4.03999	4.12297	65	39
4.19997	4.28098	50	58
4.36097	4.44096	71	51
4.36197	4.44496	77	51
4.36397	4.44597	83	58
4.36496	4.44896	56	35
4.36496	4.44597	65	41
4.52595	4.60996	48	60
4.68997	4.77396	81	61
4.69297	4.77495	77	53
4.69396	4.77796	65	41
4.69396	4.77495	69	53
4.69697	4.77796	57	35
4.85495	4.93496	48	61
5.01897	5.09996	88	62
5.01996	5.10095	76	55
5.01996	5.10095	81	55
5.02296	5.10395	57	37
5.02296	5.10296	64	44
5.18396	5.27496	47	63
5.34795	5.42897	74	57
5.34896	5.42996	81	57
5.35096	5.43196	86	64
5.35195	5.43596	53	37
5.35195	5.43297	62	45
5.51295	5.58997	40	66
5.67297	5.76097	88	66
5.67396	5.76497	76	58
5.67396	5.76197	80	58
5.67697	5.76598	62	46
5.67797	5.76598	52	38
5.67797	5.76598	59	38
5.84898	5.92597	45	68
6.00897	6.08997	84	66
6.00998	6.09496	72	58
6.00998	6.09397	76	58
6.01297	6.09496	60	46
6.01397	6.09696	52	38
6.17798	6.25796	47	66
6.34197	6.42296	80	63
6.34297	6.42596	62	44
6.34297	6.42396	68	56
6.34297	6.42296	76	56
6.34596	6.42596	52	37
6.50997	6.59097	48	61
6.67098	6.75197	81	58
6.67197	6.75597	69	51
6.67197	6.75497	76	51
6.67498	6.75897	52	35
6.67498	6.75597	64	41
6.83197	6.91697	45	58
7.00297	7.08396	84	55
7.00398	7.08497	72	48
7.00398	7.08497	76	48
7.00697	7.08796	60	38
7.00797	7.08796	52	31
7.17196	7.25197	40	55
7.33198	7.41999	71	48
7.33298	7.42398	76	48
7.33598	7.42498	83	55
7.33697	7.42498	62	38
7.33898	7.42498	52	31
7.50098	7.58398	45	55
7.66499	7.74598	69	48
7.66599	7.74698	76	48
7.66599	7.74698	81	55
7.66798	7.74897	60	38
7.66899	7.74897	52	31
7.82599	7.90598	47	55
7.99398	8.07797	64	48
7.99698	8.07898	71	48
7.99798	8.07898	52	31
7.99798	8.07898	76	55
8.00199	8.08197	56	31
8.00199	8.08197	62	38
8.15896	8.23998	45	55
8.31897	8.39996	69	48
8.32397	8.40496	52	31
8.32397	8.40396	76	48
8.32397	8.40496	81	55
8.32597	8.40795	57	31
8.32597	8.40696	60	38
8.48395	8.56496	40	55
8.64497	8.72596	76	48
8.64596	8.72896	71	48
8.64596	8.72995	83	55
8.64797	8.72995	52	31
8.64896	8.73296	62	38
8.65197	8.73296	56	31
8.80295	8.88396	45	55
8.96296	9.05096	69	48
8.96794	9.05496	52	31
8.96794	9.05195	76	48
8.96794	9.05195	81	55
8.96994	9.05595	60	38
8.97095	9.05795	57	31
9.12795	9.20895	47	56
9.28897	9.36995	76	57
9.28996	9.37395	64	50
9.28996	9.37296	71	50
9.29196	9.37696	52	35
9.29296	9.37696	62	41
9.29597	9.37795	56	35
9.45395	9.53495	45	60
9.61394	9.69194	69	53
9.61495	9.69295	76	53
9.61795	9.69295	81	61
9.61894	9.69494	57	38
9.61894	9.69494	60	46
9.61995	9.69594	52	38
9.77595	9.86395	43	64
9.94294	10.0279	83	66
9.94694	10.0279	76	58
9.94794	10.0289	71	58
9.95093	10.0309	55	38
9.95093	10.0309	64	46
10.1119	10.1889	45	68
10.2759	10.3569	84	72
10.2799	10.3569	76	62
10.2809	10.3609	57	37
10.2809	10.3609	64	44
10.2809	10.3599	72	62
10.4409	10.5209	47	63
10.6089	10.6889	67	56
10.6099	10.6889	71	56
10.6099	10.6899	79	63
10.6119	10.6929	64	45
10.6129	10.6929	59	37
10.7699	10.8499	47	62
10.9339	11.0149	78	62
10.9349	11.0179	63	44
10.9349	11.0179	69	55
10.9349	11.0149	71	55
10.9379	11.0189	59	37
11.0959	11.1749	52	61
11.2559	11.3399	76	62
11.2599	11.3409	71	55
11.2609	11.3439	64	44
11.2609	11.3409	68	55
11.2629	11.3439	59	37
11.4209	11.5009	51	60
11.5819	11.6689	78	61
11.5859	11.6699	69	53
11.5859	11.6689	72	53
11.5889	11.6729	60	37
11.5889	11.6729	66	44
11.7499	11.8329	50	61
11.9139	12.0019	71	51
11.9149	12.0029	77	51
11.9149	12.0019	79	58
11.9179	12.0049	65	41
11.9179	12.0029	67	51
11.9189	12.0059	59	35
12.0829	12.1689	40	58
12.2499	12.3379	71	48
12.2539	12.3379	80	55
12.2549	12.3409	64	38
12.2549	12.3409	68	48
12.2549	12.3389	76	48
12.2569	12.3419	59	31
12.4189	12.5049	45	55
12.5859	12.6739	69	47
12.5899	12.6769	72	47
12.5899	12.6769	76	47
12.5909	12.6809	64	38
12.5909	12.678	81	56
12.5929	12.6809	57	31
12.7619	12.841	48	55
12.929	13.01	69	51
12.93	13.0129	76	51
12.93	13.605	81	71
12.933	13.0129	64	38
12.934	13.017	57	31
13.098	13.184	47	55
13.272	13.353	69	48
13.276	13.357	62	38
13.276	13.353	74	57
13.277	13.357	53	31
13.44	13.521	52	55
13.605	13.693	68	44
13.606	13.693	76	44
13.608	13.694	64	38
13.608	13.694	80	53
13.609	13.696	59	31
13.772	13.853	48	55
13.934	14.015	69	47
13.934	14.018	76	56
13.935	14.018	64	38
13.937	14.018	57	31
14.098	14.182	45	55
14.266	14.347	72	52
14.266	14.347	76	52
14.267	14.351	64	38
14.267	14.921	84	71
14.27	14.351	57	31
14.427	14.515	50	56
14.595	14.68	72	47
14.595	14.676	77	56
14.596	14.68	65	39
14.599	14.681	57	33
14.759	14.84	50	58
14.921	15.005	71	47
14.924	15.005	77	47
14.924	15.25	83	56
14.925	15.006	56	35
14.925	15.006	65	41
15.088	15.173	48	60
15.253	15.334	77	49
15.253	15.414	81	58
15.257	15.3349	65	41
15.257	15.334	69	49
15.258	15.3349	57	35
15.415	15.495	48	61
15.579	15.66	81	51
15.579	15.901	88	75
15.58	15.661	64	44
15.58	15.66	76	51
15.582	15.663	57	37
15.739	15.82	47	63
15.901	15.985	74	55
15.904	15.985	81	55
15.904	16.226	86	77
15.905	15.985	62	45
15.908	15.986	53	37
16.065	16.146	40	66
16.226	16.559	88	82
16.23	16.311	76	58
16.23	16.31	80	58
16.231	16.311	62	46
16.233	16.314	52	38
16.233	16.312	59	38
16.39	16.478	45	68
16.559	16.719	84	77
16.56	16.647	76	55
16.562	16.65	52	38
16.562	16.648	60	46
16.562	16.647	72	55
16.72	16.807	47	66
16.888	17.22	83	66
16.891	16.972	71	51
16.891	16.972	76	51
16.892	16.972	56	37
16.895	16.976	52	37
16.895	16.973	62	44
17.052	17.14	48	61
17.22	17.717	81	61
17.221	17.301	76	47
17.224	17.305	57	35
17.224	17.301	69	47
17.225	17.305	52	35
17.225	17.305	64	41
17.381	17.462	45	58
17.546	17.634	72	44
17.546	17.633	76	52
17.549	17.637	52	31
17.549	17.634	60	38
17.72	17.798	40	55
17.882	18.042	71	53
17.882	18.046	76	53
17.883	18.207	83	71
17.886	17.963	52	31
17.886	17.962	62	38
18.047	18.1229	45	55
18.207	18.375	69	51
18.208	18.376	76	51
18.211	18.295	52	31
18.211	18.291	60	38
18.211	18.537	81	66
18.376	18.456	47	55
18.537	18.697	64	50
18.54	18.702	71	50
18.54	18.862	76	64
18.544	18.621	52	31
18.544	18.622	56	31
18.544	18.621	62	38
18.702	18.781	45	55
18.866	19.026	69	46
18.866	19.027	76	46
18.866	19.027	81	60
18.867	18.946	52	31
18.869	18.946	57	31
18.869	18.946	60	38
19.03	19.103	40	55
19.188	19.3479	71	50
19.188	19.268	76	50
19.189	19.5129	83	67
19.1909	19.272	52	31
19.1909	19.272	62	38
19.192	19.272	56	31
19.3489	19.4319	45	55
19.5129	19.6739	69	53
19.517	19.594	76	53
19.517	19.839	81	69
19.518	19.5969	52	31
19.518	19.5969	60	38
19.5199	19.5979	57	31
19.6769	19.7579	47	56
19.839	20.1569	76	75
19.84	19.9919	71	58
19.8419	19.912	52	35
19.8419	19.9959	64	58
19.843	19.916	56	35
19.843	19.916	62	41
19.9969	20.0759	45	60
20.1609	20.3249	69	57
20.1609	20.3259	76	57
20.1619	20.2379	57	38
20.1619	20.3289	81	67
20.1639	20.2409	52	38
20.1639	20.2409	60	46
20.3289	20.4089	43	64
20.4859	20.8189	83	75
20.4899	20.6579	71	61
20.4899	20.6569	76	61
20.4909	20.5729	64	46
20.4929	20.5769	55	38
20.6579	20.7379	45	68
20.8189	21.1479	84	77
20.8219	20.9869	72	63
20.8219	20.9859	76	63
20.8229	20.9059	64	44
20.8259	20.9099	57	37
20.9899	21.0699	47	63
21.1509	21.3119	67	59
21.1509	21.3129	71	59
21.1549	21.2319	59	37
21.1549	21.2309	64	45
21.1549	21.4769	79	73
21.3149	21.3919	47	62
21.4769	21.7989	78	68
21.4779	21.6509	69	56
21.4779	21.6479	71	56
21.4799	21.5569	59	37
21.4799	21.5559	63	44
21.6519	21.7179	52	61
21.7989	22.9779	76	64
21.8019	21.9629	67	53
21.8019	21.9589	71	53
21.8029	21.8849	64	44
21.8059	21.8889	59	37
21.9659	22.0499	45	60
22.1309	22.2919	72	53
22.1349	22.2149	57	37
22.1349	22.2109	64	44
22.1349	22.2929	69	44
22.2949	22.3789	52	61
22.4599	22.6279	71	51
22.4639	22.5439	59	35
22.4639	22.5429	62	41
22.4639	22.6289	67	42
22.6309	22.7119	45	58
22.7999	22.9809	69	39
22.7999	22.9789	72	48
22.8009	22.8869	57	31
22.8009	22.8829	64	38
22.9819	23.0649	43	55
23.1459	23.4879	83	61
23.1499	23.2329	64	38
23.1499	23.3239	71	51
23.1499	23.3209	76	51
23.1509	23.2379	55	31
23.3239	23.4019	45	57
23.4889	23.8219	84	64
23.4929	23.6569	72	53
23.4929	23.6569	76	53
23.4959	23.5739	57	30
23.4959	23.5689	64	37
23.6599	23.7379	47	53
23.8219	23.9889	67	49
23.8219	23.9889	71	49
23.8229	24.1569	79	60
23.8249	23.9099	59	30
23.8249	23.9049	64	37
23.9929	24.0739	47	52
24.1579	24.3249	78	56
24.1599	24.3249	71	47
24.1609	24.2409	63	37
24.1609	24.3259	69	47
24.1619	24.2449	59	30
24.3289	24.4059	52	59
24.4859	25.1469	76	63
24.4869	24.6539	71	53
24.4889	24.6579	67	53
24.4899	24.5699	55	36
24.4899	24.5709	64	45
24.4939	24.5709	59	36
24.6579	24.7389	51	63
24.8179	24.9799	71	60
24.8219	24.9799	67	50
24.8229	24.8999	55	40
24.8229	24.8989	59	40
24.8229	24.8999	64	50
24.9829	25.0639	50	72
25.1479	25.6549	77	80
25.1519	25.3159	68	53
25.1519	25.3159	71	63
25.1549	25.2319	56	44
25.1549	25.2329	59	44
25.1549	25.2329	65	51
25.3189	25.3999	49	77
25.4869	25.6549	71	64
25.4879	25.5679	56	42
25.4879	25.6559	68	52
25.4889	25.5689	65	51
25.4909	25.5689	59	42
25.6559	25.9809	48	77
25.8159	26.1699	69	74
25.8169	26.1699	72	74
25.8199	26.1699	81	89
25.8209	26.1699	57	44
25.8209	26.1499	65	53
25.9809	26.1699	48	77
26.1459	26.5089	68	71
26.1459	26.5089	71	71
26.1489	26.5089	80	84
26.1499	26.5089	56	44
26.1499	26.5089	65	53
26.3099	26.5089	48	77
26.478	26.5509	67	70
26.4789	26.5549	70	70
26.4789	26.5579	79	82
26.48	26.5579	55	44
26.4809	26.5589	64	53
26.6359	26.7159	48	77
26.8	26.8799	64	63
26.8009	26.8839	55	44
26.8009	26.8809	70	63
26.8009	26.8809	72	77
26.8029	26.8839	60	53
26.9539	27.0379	48	77
27.118	27.1989	67	70
27.1189	27.1999	70	70
27.1189	27.1999	79	82
27.122	27.2019	55	44
27.1229	27.2019	64	53
27.2789	27.3599	48	77
27.444	27.5169	64	63
27.4449	27.5209	55	44
27.4449	27.5179	70	63
27.4449	27.5179	72	77
27.4469	27.5209	60	53
27.5979	27.6819	48	77
27.7619	27.8429	67	70
27.7629	27.8439	70	70
27.7659	27.8439	79	82
27.7669	27.8459	55	44
27.7669	27.8459	64	53
27.9229	28.0029	53	77
28.0879	28.1679	69	63
28.0889	28.1719	57	44
28.0889	28.1689	77	77
28.0909	28.1719	65	53
28.2489	28.5819	44	61
28.4169	28.7739	65	59
28.4179	28.7739	68	59
28.4199	28.7739	77	70
28.4209	28.7739	53	35
28.4209	28.7499	61	42
28.5819	28.7739	44	61
28.7469	29.075	64	57
28.7469	29.0759	67	57
28.7489	29.0759	76	67
28.7499	29.0679	52	35
28.7499	29.0679	61	42
28.9109	29.0679	44	61
29.0779	29.1549	63	56
29.0789	29.1559	66	56
29.0789	29.1559	75	66
29.0799	29.1589	51	35
29.0819	29.1589	60	42
29.2359	29.317	44	61
29.4	29.474	60	50
29.401	29.4749	66	50
29.401	29.4769	68	61
29.404	29.478	51	35
29.405	29.478	56	42
29.5549	29.639	44	61
29.7189	29.7989	66	56
29.7199	29.7999	68	56
29.7199	29.7999	75	66
29.7219	29.8029	51	35
29.7229	29.8029	60	42
29.8799	29.9609	44	61
30.0369	30.1179	60	50
30.0379	30.1189	66	50
30.0379	30.1209	68	61
30.0409	30.1219	51	35
30.0419	30.1219	56	42
30.2059	30.2859	44	61
30.3699	30.4499	66	56
30.3709	30.4509	70	56
30.3709	30.4539	75	66
30.3719	30.4539	51	35
30.3729	30.4549	60	42
30.5309	30.6119	44	61
30.6919	30.8529	68	50
30.6929	30.8569	65	50
30.6959	30.7759	53	35
30.6959	31.0169	73	61
30.6989	30.7769	61	42
30.8599	30.9359	44	61
31.0209	31.1819	63	56
31.0219	31.1819	68	56
31.0219	31.3429	72	66
31.0229	31.1009	51	35
31.0239	31.1019	60	42
31.1819	31.2629	44	61
31.3439	31.5039	61	50
31.3439	31.5079	68	50
31.3459	31.6679	70	62
31.3469	31.4229	49	35
31.3469	31.4269	58	42
31.5079	31.5879	44	62
31.6719	31.8299	60	57
31.6729	31.7489	48	35
31.6729	31.9979	68	67
31.6739	31.7529	56	44
31.8329	31.9169	44	63
32.0009	32.1659	68	52
32.0019	32.1689	66	52
32.0019	32.3299	75	63
32.0049	32.0809	54	36
32.0049	32.0819	63	44
32.1689	32.2489	44	64
32.3309	32.4909	65	59
32.3329	32.4949	68	59
32.3339	32.4139	53	37
32.3339	32.6549	73	70
32.3369	32.4149	61	45
32.4949	32.5749	44	64
32.6559	32.8169	61	53
32.6559	32.8199	68	53
32.6589	32.7359	49	37
32.6589	32.9809	70	66
32.6599	32.7369	58	46
32.8199	32.8969	44	67
32.9809	33.1419	68	61
32.9819	33.1459	65	61
32.9839	33.3099	73	72
32.9849	33.0609	53	38
32.9849	33.0649	61	46
33.1459	33.2259	44	67
33.3109	33.4749	68	56
33.3139	33.3939	51	38
33.3139	33.4749	63	56
33.3139	33.6349	72	68
33.3179	33.3949	60	47
33.4779	33.5549	44	68
33.6389	33.8039	66	62
33.6399	33.8039	68	62
33.6399	33.9679	75	73
33.6419	33.7229	54	39
33.6429	33.7259	63	48
33.8069	33.8879	44	69
33.9689	34.1289	65	57
33.9689	34.1289	68	57
33.9709	34.2929	73	69
33.9719	34.0479	53	39
33.9719	34.0489	61	48
34.1329	34.2099	44	70
34.2938	34.4548	63	64
34.2938	34.4548	68	64
34.2949	34.6148	72	75
34.2969	34.3738	51	40
34.2979	34.3749	60	49
34.4558	34.5348	45	71
34.6158	34.7798	72	58
34.6198	34.7798	66	58
34.6198	34.9408	77	71
34.6218	34.6988	54	40
34.6228	34.6998	65	49
34.7838	34.8608	44	72
34.9448	35.1058	66	66
34.9448	35.1058	72	66
34.9478	35.2698	75	78
34.9488	35.0248	54	41
34.9488	35.0258	63	50
35.1068	35.1848	44	73
35.2708	35.4308	63	60
35.2708	35.4308	66	60
35.2718	35.5988	72	73
35.2728	35.3538	54	41
35.2738	35.3548	60	51
35.4348	35.5148	46	73
35.5998	35.7638	66	68
35.5998	35.7598	70	68
35.6018	35.9208	75	80
35.6028	35.6788	54	42
35.6028	35.6828	63	51
35.7638	35.8438	47	74
35.9248	36.0888	70	62
35.9278	36.0928	65	62
35.9288	36.0048	53	42
35.9288	36.0058	62	52
35.9288	36.2528	74	75
36.0958	36.1728	47	77
36.2538	36.4178	68	71
36.2578	36.4178	74	71
36.2578	36.5788	80	84
36.2598	36.3368	65	53
36.2608	36.3378	56	44
36.4178	36.4978	47	77
36.5798	36.7468	67	71
36.5798	36.7468	74	71
36.5818	36.9108	79	84
36.5828	36.6628	55	44
36.5828	36.6588	65	53
36.7508	36.8268	48	77
36.9118	37.2368	64	70
36.9118	37.2378	70	70
36.9128	37.0728	72	82
36.9148	36.9918	55	44
36.9158	36.9918	60	53
37.0728	37.1518	41	77
37.2378	37.3948	65	63
37.2378	37.3948	68	63
37.2398	37.3958	77	77
37.2408	37.3458	53	44
37.2408	37.3458	60	53
37.3978	37.4778	47	77
37.5588	37.7238	68	70
37.5618	37.7238	74	70
37.5628	37.7238	80	83
37.5658	37.6428	65	53
37.5668	37.6438	56	44
37.7268	37.8038	47	77
37.8878	38.0558	67	71
37.8888	38.0558	74	71
37.8888	38.0558	79	84
37.8898	37.9648	65	53
37.8908	37.9688	55	44
38.0568	38.1338	48	77
38.2168	38.3778	64	70
38.2178	38.3778	70	70
38.2178	38.3778	72	82
38.2198	38.2978	55	44
38.2208	38.3008	60	53
38.3818	38.4618	41	77
38.5348	38.6998	65	63
38.5388	38.6998	68	63
38.5388	38.6998	77	77
38.5398	38.6158	53	44
38.5398	38.6158	60	53
38.7038	38.7768	39	69
38.8678	38.9488	67	62
38.8688	38.9488	72	62
38.8688	38.9498	79	74
38.8708	38.9528	51	39
38.8708	38.9518	60	48
39.0288	39.1088	41	69
39.1928	39.2738	68	63
39.1938	39.2778	60	48
39.1938	39.2748	72	63
39.1938	39.2748	80	75
39.1968	39.2778	53	39
39.3618	39.4418	43	69
39.5218	39.6028	63	62
39.5228	39.6068	67	62
39.5228	39.6068	75	73
39.5258	39.6078	55	39
39.5268	39.6098	60	48
39.6838	39.7708	43	69
39.8548	39.9358	65	57
39.8558	39.9358	67	57
39.8578	39.9388	55	39
39.8578	39.9368	74	69
39.8588	39.9388	59	48
40.0228	40.1028	48	61
40.1838	40.3518	63	56
40.1848	40.3518	67	56
40.1868	41.3448	72	67
40.1878	40.2688	55	35
40.1878	40.2678	60	42
40.3518	40.4288	41	61
40.5128	40.6778	65	57
40.5158	40.6778	68	57
40.5168	40.5968	60	42
40.5198	40.5968	53	35
40.6808	40.7578	48	61
40.8418	41.0028	63	56
40.8428	40.9228	55	35
40.8428	41.0028	67	56
40.8448	40.9228	60	42
41.0028	41.0828	41	61
41.1708	41.3458	65	50
41.1718	41.3488	68	50
41.1738	41.2588	53	35
41.1738	41.2588	60	42
41.3498	41.6819	39	55
41.5068	42.0319	67	44
41.5098	41.8508	72	44
41.5108	41.6819	60	34
41.5108	42.0319	79	52
41.5138	41.6819	51	27
41.6788	42.0319	41	49
41.8498	42.3089	68	45
41.8508	42.0319	60	34
41.8508	42.3089	72	45
41.8508	42.3089	80	53
41.8538	42.0319	53	27
42.0108	42.3089	43	49
42.1789	42.6838	63	44
42.1799	42.5189	67	44
42.1828	42.3089	55	27
42.1828	42.6838	75	51
42.1839	42.3089	60	34
42.3429	42.6838	43	49
42.5149	42.6838	65	39
42.5189	42.6838	67	39
42.5199	42.6838	55	27
42.5199	42.6838	59	34
42.5199	42.9698	74	49
42.6838	42.9698	48	42
42.8548	43.0218	63	39
42.8558	43.0228	67	39
42.8578	42.9698	60	29
42.8578	44.0369	72	47
42.8588	42.9698	55	24
43.0228	43.1028	41	39
43.1908	43.3618	65	45
43.1938	43.3628	68	45
43.1948	43.2748	53	27
43.1948	43.2708	60	34
43.3628	43.4458	48	41
43.5268	43.6978	63	44
43.5299	43.6988	67	44
43.5308	43.6138	55	27
43.5338	43.6138	60	34
43.6988	43.7849	41	42
43.8659	44.0409	65	39
43.8659	44.0419	68	39
43.8699	43.9539	53	27
43.8699	43.9539	60	34
44.0439	44.2069	39	58
44.2019	44.5489	67	57
44.2019	44.5429	72	57
44.2059	44.5489	51	35
44.2059	44.5449	60	44
44.2059	44.5489	79	68
44.3699	44.5489	41	64
44.5419	44.8849	68	60
44.5429	44.8719	72	60
44.5449	44.8779	60	46
44.5449	44.8849	80	72
44.5459	44.8849	53	36
44.6989	44.8849	44	68
44.8719	45.3809	72	59
44.8739	45.3809	77	59
44.8739	45.3809	84	73
44.8779	45.3809	56	37
44.8779	45.3809	60	37
44.8779	45.3809	65	47
45.0379	45.3809	43	70
45.2079	45.3809	74	53
45.2099	45.3809	79	53
45.2099	45.3809	83	72
45.2109	45.3809	62	39
45.2139	45.3809	55	39
45.2139	45.3809	67	49
45.3789	45.6268	48	71
45.5429	45.8749	70	52
45.5429	45.8749	82	63
45.5439	45.8749	76	52
45.5459	45.6268	60	34
45.5459	45.6268	67	42
45.7099	45.7909	53	60
45.8759	46.2109	68	53
45.8789	46.2109	72	53
45.8789	46.2109	80	64
45.8799	45.9619	60	33
45.8799	45.9589	65	40
46.0429	46.1239	55	57
46.2119	46.5509	67	50
46.2149	46.2909	60	30
46.2149	46.7199	75	50
46.2149	46.7199	79	59
46.2179	46.2919	63	38
46.3719	46.7199	43	55
46.5509	46.7199	65	39
46.5509	46.7199	67	39
46.5509	46.8759	71	50
46.5539	46.7199	55	27
46.5549	46.7199	62	35
46.7189	46.7959	48	49
46.8769	47.0408	64	45
46.8799	47.0408	67	44
46.8799	47.2018	72	52
46.8839	46.9559	55	27
46.8839	46.9609	60	34
47.0418	47.1208	47	49
47.2018	47.3658	65	39
47.2058	47.2848	56	27
47.2058	47.3658	68	39
47.2058	47.5308	73	49
47.2088	47.2858	61	34
47.3698	47.4468	48	49
47.5308	47.6918	67	45
47.5318	47.6918	64	47
47.5318	47.8599	72	52
47.5348	47.6068	55	27
47.5348	47.6078	60	35
47.6928	47.7788	47	50
47.8599	48.0278	65	41
47.8599	48.0278	68	41
47.8638	47.9469	56	28
47.8638	47.9479	62	35
47.8638	48.1878	74	50
48.0288	48.1078	48	51
48.1888	48.3528	64	49
48.1928	48.2688	55	29
48.1928	48.3528	67	47
48.1928	48.5148	72	56
48.1948	48.2718	60	35
48.3538	48.4338	47	51
48.5148	48.6788	65	42
48.5148	48.6788	68	42
48.5178	48.5938	56	29
48.5178	48.8428	73	52
48.5208	48.5988	61	36
48.6818	48.7588	48	52
48.8438	49.0078	67	49
48.8468	49.0078	64	49
48.8498	48.9198	55	29
48.8498	49.1688	72	58
48.8508	48.9208	60	36
49.0108	49.0918	47	52
49.1728	49.3328	65	44
49.1728	49.3328	68	44
49.1758	49.2518	56	29
49.1758	49.2528	62	37
49.1758	49.4978	74	53
49.3368	49.4208	48	53
49.4978	49.6658	64	48
49.4988	49.6658	67	49
49.4988	49.8268	72	58
49.5018	49.5808	55	29
49.5018	49.5818	60	37
49.6668	49.7458	47	52
49.8268	49.9908	65	42
49.8268	49.9908	68	42
49.8308	49.9068	56	29
49.8308	49.9098	62	36
49.8308	50.1488	74	52
49.9918	50.0718	48	52
50.1518	50.3128	67	48
50.1548	50.3128	64	47
50.1558	50.2318	55	29
50.1558	50.2328	60	36
50.1558	50.4768	72	57
50.3168	50.3968	47	51
50.4778	50.6388	65	41
50.4778	50.6388	68	41
50.4808	50.8028	73	51
50.4818	50.5578	56	29
50.4818	50.5588	61	35
50.6418	50.7188	48	51
50.8038	50.9638	64	39
50.8038	50.9638	67	47
50.8058	51.1248	72	55
50.8068	50.8828	55	29
50.8068	50.8838	60	35
50.9678	51.0518	47	50
51.1258	51.2968	65	40
51.1288	51.2968	68	40
51.1288	51.4568	74	50
51.1318	51.2118	56	28
51.1328	51.2158	62	35
51.2978	51.3768	47	49
51.4578	51.6218	69	45
51.4608	51.6218	66	45
51.4618	51.5378	57	28
51.4618	51.5388	63	34
51.4618	51.9558	75	52
51.6228	51.9558	40	49
51.7838	51.9558	68	39
51.7868	51.9558	64	45
51.7868	52.1158	76	49
51.7878	51.9558	59	27
51.7908	51.9558	52	27
51.7908	51.9558	62	34
51.9558	52.0318	45	55
52.1158	52.2768	64	45
52.1168	52.2768	69	50
52.1188	52.4438	76	50
52.1198	52.1958	52	30
52.1198	52.1918	60	38
52.2778	52.3568	48	64
52.4448	52.6088	69	60
52.4448	53.0948	81	70
52.4478	52.6088	76	60
52.4488	52.5278	57	37
52.4488	52.5248	64	50
52.6098	52.6898	47	64
52.7698	52.9308	74	60
52.7708	52.8498	53	37
52.7708	52.9308	69	59
52.7738	52.8508	62	45
52.9348	53.0148	52	64
53.0958	53.2568	68	53
53.0958	53.2598	76	53
53.0988	53.2598	80	64
53.0998	53.1758	59	37
53.0998	53.1768	64	38
53.2608	53.3368	48	55
53.4208	53.5818	69	50
53.4218	53.5828	64	45
53.4218	53.5818	76	50
53.4248	53.5008	57	30
53.5858	53.6628	45	64
53.7428	54.4008	84	70
53.7468	53.9148	69	60
53.7468	53.9148	76	60
53.7508	53.8298	57	37
53.7508	53.8338	64	44
53.9158	53.9938	50	64
54.0748	54.2368	77	60
54.0758	54.2398	72	59
54.0788	54.1558	57	37
54.0798	54.1568	65	45
54.2398	54.3198	50	64
54.4018	54.5588	71	53
54.4038	54.7187	83	64
54.4048	54.4808	65	45
54.4048	54.5588	77	53
54.4078	54.4818	56	37
54.5598	54.6388	48	55
54.7197	54.8837	81	64
54.7227	54.7997	69	48
54.7237	54.8037	65	38
54.7237	54.8027	77	55
54.7257	54.8037	57	31
54.8837	54.9647	48	61
55.0448	55.1247	88	68
55.0458	55.1257	81	55
55.0477	55.1287	76	55
55.0488	55.1297	57	37
55.0488	55.1287	64	41
55.2127	55.2978	47	63
55.3767	55.4577	74	57
55.3777	55.4587	81	57
55.3777	55.4587	86	70
55.3807	55.4617	62	45
55.3817	55.4617	53	37
55.5387	55.6197	40	66
55.7027	55.7797	88	72
55.7037	55.7847	76	58
55.7037	55.7837	80	58
55.7047	55.7867	62	46
55.7057	55.7867	59	38
55.7067	55.7877	52	38
55.8747	55.9547	45	68
56.0387	56.1157	84	72
56.0397	56.1227	72	58
56.0397	56.1197	76	58
56.0417	56.1227	60	46
56.0427	56.1237	52	38
56.1997	56.2867	47	66
56.3677	56.4487	80	63
56.3717	56.4527	62	44
56.3717	56.4527	68	56
56.3717	56.4517	76	56
56.3747	56.4557	52	37
56.5327	56.6167	48	61
56.6997	56.7807	81	58
56.7007	56.7847	69	51
56.7007	56.7817	76	51
56.7037	56.7847	64	48
56.7047	56.7857	52	35
56.8617	56.9457	45	58
57.0257	57.1097	84	55
57.0267	57.1147	72	48
57.0267	57.1137	76	48
57.0287	57.1147	60	38
57.0297	57.1167	52	31
57.2007	57.2787	40	55
57.3617	57.4427	71	48
57.3627	57.4437	76	48
57.3627	57.4437	83	55
57.3647	57.4457	62	38
57.3657	57.4457	52	31
57.5297	57.6107	45	55
57.6907	57.7747	69	48
57.6917	57.7757	76	48
57.6947	57.7757	60	38
57.6947	57.7757	81	55
57.6977	57.7787	52	31
57.8517	57.9367	47	55
58.0157	58.0967	64	50
58.0197	58.0977	71	48
58.0207	58.1017	52	31
58.0207	58.1037	62	38
58.0207	58.1007	76	55
58.0227	58.1047	56	31
58.1807	58.2687	45	55
58.3417	58.4227	69	48
58.3427	58.4257	76	48
58.3427	58.4267	81	55
58.3447	58.4267	52	31
58.3457	58.4297	57	31
58.3457	58.4267	60	38
58.5097	58.5877	40	55
58.6667	58.7477	76	48
58.6677	58.7487	71	48
58.6677	58.7517	83	55
58.6707	58.7517	52	31
58.6717	58.7547	56	31
58.6717	58.7527	62	38
58.8286	58.9127	45	55
58.9927	59.0737	69	48
58.9937	59.0737	76	48
58.9967	59.0767	52	31
58.9967	59.0767	60	38
58.9967	59.0747	81	55
58.9977	59.0807	57	31
59.1537	59.2377	47	56
59.3176	59.3986	76	57
59.3186	59.4026	64	46
59.3186	59.3986	71	50
59.3216	59.4026	52	35
59.3226	59.4036	56	35
59.3226	59.4036	62	41
59.4866	59.5596	45	60
59.6506	59.7276	69	53
59.6516	59.7346	57	38
59.6516	59.7316	76	53
59.6516	59.7326	81	61
59.6536	59.7346	60	46
59.6546	59.7356	52	38
59.8116	59.8996	43	64
59.9796	60.0606	83	66
59.9806	60.0636	71	58
59.9806	60.0616	76	58
59.9826	60.0636	64	44
59.9836	60.0646	55	38
60.1406	60.2286	45	68
60.3086	60.3926	84	72
60.3096	60.3936	76	62
60.3126	60.3936	72	62
60.3136	60.3966	57	37
60.3136	60.3966	64	45
60.4736	60.5616	47	63
60.6416	60.7216	67	56
60.6426	60.7216	71	56
60.6426	60.7226	79	63
60.6446	60.7256	64	44
60.6456	60.7256	59	37
60.8026	60.8856	47	62
60.9666	61.0476	78	62
60.9676	61.0486	69	55
60.9676	61.0476	71	55
60.9706	61.0506	59	37
60.9706	61.0506	63	44
61.1286	61.2076	52	61
61.2926	61.3726	76	62
61.2936	61.3766	64	38
61.2936	61.3766	68	55
61.2936	61.3726	71	55
61.2956	61.3776	59	37
61.4536	61.5366	51	60
61.6246	61.7016	78	61
61.6256	61.7086	66	44
61.6256	61.7066	69	53
61.6256	61.7056	72	53
61.6266	61.7086	60	37
61.7826	61.8656	50	61
61.9536	62.0346	71	51
61.9546	62.0376	67	51
61.9546	62.0356	77	51
61.9546	62.0346	79	58
61.9576	62.0376	65	41
61.9586	62.0386	59	35
62.1156	62.2026	40	58
62.2826	62.3706	71	48
62.2836	62.3736	80	55
62.2866	62.3736	76	48
62.2876	62.3746	64	38
62.2876	62.3746	68	48
62.2896	62.3776	59	31
62.4516	62.5376	45	55
62.6256	62.7066	69	47
62.6266	62.7096	72	47
62.6296	62.7096	76	47
62.6296	62.7096	81	56
62.6306	62.7136	64	38
62.6326	62.7146	57	31
62.7946	62.8736	48	55
62.9616	63.0496	69	51
62.9656	63.0496	76	51
62.9666	63.6406	81	71
62.9686	63.0526	57	31
62.9686	63.0526	64	38
63.1296	63.2206	47	55
63.3046	63.3886	69	48
63.3056	63.3886	74	57
63.3086	63.3896	53	31
63.3086	63.3896	62	38
63.4726	63.5566	52	55
63.6406	63.7256	68	44
63.6446	63.7256	76	44
63.6446	63.9666	80	53
63.6476	63.7286	59	31
63.6476	63.7266	64	38
63.8046	63.8856	48	55
63.9666	64.2986	81	58
63.9696	64.0546	69	47
63.9706	64.0546	76	56
63.9736	64.0576	57	31
63.9736	64.0576	64	38
64.1336	64.2186	45	55
64.2986	64.3796	72	52
64.3026	64.3796	76	52
64.3026	64.9536	84	71
64.3036	64.3836	57	31
64.3036	64.3806	64	44
64.4626	64.5476	50	56
64.6276	64.7086	77	56
64.6316	64.7126	65	39
64.6316	64.7126	72	47
64.6346	64.7156	57	33
64.7916	64.8726	50	58
64.9536	65.0416	71	47
64.9566	65.0416	77	47
64.9566	65.2856	83	56
64.9576	65.0436	65	41
64.9606	65.0446	56	35
65.1256	65.2016	48	60
65.2856	65.6076	81	58
65.2866	65.3666	69	49
65.2866	65.3666	77	49
65.2896	65.3706	57	35
65.2896	65.3706	65	41
65.4466	65.5306	48	61
65.6116	65.9366	88	73
65.6146	65.6936	64	41
65.6146	65.6926	76	51
65.6146	65.6926	81	51
65.6156	65.6946	57	37
65.7716	65.8526	47	63
65.9366	66.0176	74	55
65.9376	66.0176	81	55
65.9406	66.0206	53	37
65.9406	66.0186	62	45
65.9406	66.2586	86	70
66.0976	66.1786	40	66
66.2586	66.5916	88	82
66.2626	66.3506	76	58
66.2626	66.3466	80	58
66.2656	66.3506	59	38
66.2656	66.3506	62	46
66.2666	66.3536	52	38
66.4296	66.5106	45	68
66.5916	66.7516	84	70
66.5926	66.7566	76	55
66.5946	66.6726	60	46
66.5946	66.7566	72	55
66.5956	66.6726	52	38
66.7586	66.8396	47	66
66.9206	67.0846	76	51
66.9206	67.2526	83	66
66.9236	67.0876	71	51
66.9276	67.0046	52	37
66.9276	67.0046	56	37
66.9276	67.0046	62	44
67.0886	67.1726	48	61
67.2566	67.4136	76	47
67.2566	67.7566	81	61
67.2576	67.3336	57	35
67.2576	67.4176	69	47
67.2596	67.3376	52	35
67.2596	67.3336	64	50
67.4176	67.4976	45	58
67.5816	67.7576	76	52
67.5856	67.7576	72	44
67.5886	67.6666	52	31
67.5886	67.6666	60	38
67.7576	67.8336	40	55
67.9146	68.0786	71	53
67.9146	68.0796	76	53
67.9176	67.9956	62	38
67.9176	68.2436	83	69
67.9186	67.9956	52	31
68.0796	68.1666	45	55
68.2466	68.4076	69	51
68.2466	68.4086	76	51
68.2506	68.3276	52	31
68.2506	68.3266	60	38
68.2506	68.5726	81	66
68.4106	68.4886	47	55
68.5726	68.7326	64	58
68.5736	68.7326	71	50
68.5736	68.8946	76	64
68.5766	68.6556	52	31
68.5766	68.6606	56	31
68.5766	68.6566	62	38
68.7366	68.8136	45	55
68.8946	69.0586	69	46
68.8986	69.0586	76	46
68.8986	69.2196	81	60
68.9016	68.9776	52	31
68.9016	68.9785	60	38
68.9026	68.9785	57	31
69.0596	69.1395	40	55
69.2236	69.3846	76	50
69.2276	69.3846	71	50
69.2306	69.2996	52	31
69.2306	69.3005	62	38
69.2306	69.5456	83	64
69.3856	69.4646	45	55
69.5456	69.7096	69	53
69.5496	69.6256	52	31
69.5496	69.7106	76	53
69.5496	69.8716	81	69
69.5526	69.6295	60	38
69.7106	69.7906	47	56
69.8716	70.1896	76	75
69.8746	69.9506	52	35
69.8746	70.0286	64	46
69.8746	70.0275	71	58
69.8786	69.9516	62	41
70.0286	70.1086	49	60
70.1896	70.3606	67	57
70.1936	70.3616	70	57
70.1936	70.3616	79	67
70.1966	70.2696	58	38
70.1966	70.2736	64	48
70.3616	71.0296	50	64
70.5296	70.6905	66	61
70.5296	70.6905	70	61
70.5296	70.6896	78	75
70.5306	70.6066	62	46
70.5326	70.6095	58	38
70.6936	70.7776	53	68
70.8586	71.0306	70	63
70.8586	71.0306	77	77
70.8616	70.9446	62	44
70.8616	71.0306	65	63
70.8656	70.9456	58	37
71.0326	71.3936	38	63
71.1946	71.3936	65	59
71.1976	71.3936	70	59
71.1976	71.3936	74	73
71.1986	71.3936	58	45
71.2016	71.3936	53	37
71.3616	71.4386	40	62
71.5266	71.6946	62	52
71.5266	71.6946	68	52
71.5266	71.6946	71	63
71.5306	71.6946	52	35
71.5306	71.6946	59	41
71.6916	71.7676	45	58
71.8556	72.0195	60	50
71.8556	73.0345	69	61
71.8596	71.9385	52	35
71.8596	71.9365	57	41
72.0206	72.1005	50	57
72.1885	72.3495	62	41
72.1885	72.3485	65	50
72.1895	72.2675	57	41
72.1915	72.2685	53	35
72.3495	72.4365	45	58
72.5176	72.6895	60	40
72.5176	72.6885	64	38
72.5206	72.6015	52	33
72.5206	72.5965	57	39
72.6895	72.7655	50	55
72.8565	73.0356	62	37
72.8565	73.0345	65	45
72.8575	72.9475	57	36
72.8605	72.9485	53	29
73.0385	73.1226	45	51
73.2096	73.5456	64	42
73.2106	73.2906	57	28
73.2106	73.5466	60	38
73.2126	73.2915	52	23
73.3775	73.4626	36	45
73.5466	73.8816	76	51
73.5486	73.8826	69	42
73.5496	73.6346	52	24
73.5496	73.6336	57	29
73.5496	73.8856	64	47
73.7136	73.7946	38	42
73.8856	74.0536	65	39
73.8856	74.0536	70	39
73.8896	73.9636	53	24
73.8896	73.9626	58	29
73.8896	74.2176	74	50
74.0546	74.1306	40	41
74.2186	74.5496	71	44
74.2216	74.5536	62	37
74.2216	74.5506	68	37
74.2256	74.3025	52	24
74.2256	74.3016	59	29
74.3856	74.4706	45	44
74.5546	74.7116	60	42
74.5546	76.2056	69	50
74.5555	74.6305	52	25
74.5566	74.6315	57	30
74.7145	74.7925	50	41
74.8755	75.0436	65	45
74.8766	74.9566	57	28
74.8766	75.0436	62	37
74.8795	74.9576	53	23
75.0446	75.1246	45	39
75.2046	75.3766	64	50
75.2056	75.3766	60	40
75.2076	75.2856	52	25
75.2086	75.2895	57	30
75.3776	75.4525	50	38
75.5446	75.7125	65	48
75.5456	75.6216	53	27
75.5456	75.7125	62	39
75.5476	75.6245	57	33
75.7136	75.7895	45	40
75.8735	76.0455	60	41
75.8746	75.9535	57	34
75.8746	76.0455	64	63
75.8766	75.9575	52	28
76.0455	76.1225	48	64
76.2065	76.3775	69	63
76.2065	76.5735	76	75
76.2095	76.3775	64	48
76.2105	76.2895	55	39
76.3815	76.5735	47	62
76.5425	76.8535	69	62
76.5425	76.8535	75	62
76.5455	76.8635	81	73
76.5466	76.8535	59	39
76.5466	76.8535	65	48
76.7065	76.8535	52	62
76.8675	77.0365	68	57
76.8685	77.0365	76	57
76.8705	77.0365	59	39
76.8705	77.2206	80	69
76.8715	77.0365	64	48
77.0355	77.2206	45	69
77.1965	77.5045	67	62
77.1995	77.5045	73	62
77.2005	77.5045	57	39
77.2005	77.5216	79	73
77.2035	77.5045	64	48
77.3616	77.5045	50	59
77.5255	77.6946	66	57
77.5266	77.6946	57	39
77.5266	77.6946	74	57
77.5266	78.0546	78	69
77.5286	77.6946	62	48
77.6936	78.0546	38	59
77.8556	78.0546	65	52
77.8556	78.0546	70	52
77.8576	78.3515	77	62
77.8586	78.0546	53	33
77.8586	78.0546	58	40
78.0156	78.3515	40	41
78.1836	78.5156	71	44
78.1866	78.5156	68	37
78.1876	78.3515	59	29
78.1876	78.5166	62	37
78.1905	78.3515	52	24
78.3515	78.4316	45	44
78.5166	78.6776	65	42
78.5196	78.6776	60	42
78.5196	79.0066	69	50
78.5206	78.5966	52	25
78.5226	78.5976	57	30
78.6776	78.7606	50	41
78.8376	79.0066	65	48
78.8416	78.9256	57	30
78.8416	79.0096	62	39
78.8446	78.9286	53	25
79.0136	79.0896	38	39
79.1706	79.5066	74	47
79.1716	79.5066	70	40
79.1736	79.2576	53	25
79.1746	79.2616	58	30
79.3386	79.4196	40	38
79.5096	80.0146	62	35
79.5106	80.0146	68	35
79.5106	80.0146	71	42
79.5136	79.5946	52	24
79.5146	79.5976	59	28
79.6786	80.0146	41	36
79.8396	80.3226	60	37
79.8426	80.1786	69	45
79.8436	80.0146	53	25
79.8436	80.0146	57	29
80.0076	80.3226	36	55
80.1756	80.6856	64	50
80.1786	80.6856	69	50
80.1786	80.6856	76	60
80.1796	80.3226	57	38
80.1816	80.3226	48	30
80.3436	80.6856	38	55
80.5076	81.0116	65	49
80.5106	81.0116	70	49
80.5116	80.6856	50	30
80.5116	81.0116	74	58
80.5146	80.6856	58	38
80.6716	81.0116	40	55
80.8466	81.1726	62	45
80.8476	81.0116	52	30
80.8476	81.0116	59	38
80.8476	81.1726	68	55
81.0106	81.0916	45	41
81.1736	81.8476	69	47
81.1756	81.3396	60	40
81.1766	81.2606	52	23
81.1796	81.2606	57	28
81.3406	81.4246	50	39
81.5116	81.6806	62	37
81.5116	81.6796	65	45
81.5126	81.5926	53	23
81.5126	81.5896	57	28
81.6806	81.7636	45	38
81.8476	82.1876	72	46
81.8486	82.0196	64	46
81.8516	81.9356	52	24
81.8516	82.0226	60	39
81.8526	81.9356	57	29
82.0236	82.1036	50	36
82.1916	82.3626	65	38
82.1916	82.5376	70	42
82.1926	82.3636	62	37
82.1946	82.2756	53	26
82.1946	82.2786	57	30
82.3636	82.4496	45	39
82.5376	83.2587	69	42
82.5416	82.6246	52	20
82.5416	82.6256	57	26
82.5416	82.7086	60	37
82.7126	82.7996	50	36
82.8916	83.0657	65	40
82.8946	82.9786	57	25
82.8946	83.0657	62	33
82.8956	82.9786	53	20
83.0696	83.1577	45	35
83.2587	87.4027	72	41
83.2626	83.3496	52	22
83.2626	87.4027	60	35
83.2626	87.4027	64	41
83.2636	83.3526	57	26
83.4517	83.8436	45	33
83.6477	84.3537	70	38
83.6516	83.9226	50	23
83.6516	84.1797	62	34
83.6516	84.2667	65	35
83.6526	84.0917	58	28
83.8436	87.4027	45	27
83.9226	87.4027	50	27
84.0106	87.4027	53	33
84.0917	87.4027	58	33
84.1797	87.4027	62	35
84.2667	87.4027	65	35
84.3537	87.4027	70	41
86.2417	87.4027	74	41
86.8047	87.4027	73	41
87.4027	91.3677	45	27
87.4907	91.3677	52	27
87.5807	91.3677	57	33
87.6757	91.3677	61	35
87.7707	91.3677	64	35
87.8677	91.3677	69	41
