OnsetTime	OffsetTime	MidiPitch	Velocity
1.78572	1.99644	80	44
1.78572	1.99644	83	49
2.0	2.21072	78	40
2.0	2.21072	81	46
2.21429	2.60715	76	47
2.21429	2.60715	80	52
2.64286	2.84773	76	38
2.64286	2.84773	80	42
2.8512	3.05607	71	36
2.8512	3.05607	78	40
3.05954	3.45241	68	39
3.05954	3.45241	76	45
3.48812	3.69157	80	42
3.48812	3.69157	83	48
3.69501	3.89846	78	39
3.69501	3.89846	81	45
3.90191	4.29477	76	45
3.90191	4.29477	80	50
4.33048	4.53535	76	38
4.33048	4.53535	80	42
4.53882	4.74369	71	36
4.53882	4.74369	78	40
4.74716	5.14003	68	41
4.74716	5.14003	76	47
5.17574	5.37779	68	41
5.17574	5.37779	76	47
5.38121	5.58326	71	38
5.38121	5.58326	78	42
5.58668	5.96599	76	45
5.58668	5.96599	80	50
6.00047	6.19455	71	44
6.00047	6.19455	78	49
6.19784	6.39717	76	39
6.19784	6.39717	80	45
6.40055	6.7747	78	53
6.40055	6.7747	81	53
6.80871	7.0028	71	45
6.80871	7.0028	78	50
7.00608	7.20541	78	42
7.00608	7.20541	81	48
7.20879	7.57546	80	49
7.20879	7.57546	83	56
7.6088	7.80161	78	39
7.6088	7.80161	81	44
7.80488	8.01264	76	37
7.80488	8.01264	80	41
8.01616	8.39032	71	44
8.01616	8.39032	78	49
8.42433	8.61841	80	44
8.42433	8.61841	83	49
8.6217	8.81837	78	40
8.6217	8.81837	81	46
8.82171	9.19587	76	49
8.82171	9.19587	80	55
9.22988	9.42655	76	39
9.22988	9.42655	80	45
9.42989	9.62656	71	37
9.42989	9.62656	78	41
9.6299	10.0041	68	44
9.6299	10.0041	76	49
10.0381	10.2284	80	48
10.0381	10.2284	83	53
10.2316	10.4244	78	44
10.2316	10.4244	81	49
10.4277	10.7944	76	52
10.4277	10.7944	80	59
10.8277	11.0193	76	39
10.8277	11.0193	80	44
11.0225	11.2179	71	36
11.0225	11.2179	78	40
11.2212	11.5879	68	49
11.2212	11.5879	76	49
11.6212	11.8205	68	45
11.6212	11.8205	76	50
11.8239	12.0288	71	40
11.8239	12.0288	78	46
12.0322	12.409	76	44
12.0322	12.409	80	49
12.4432	12.6495	78	39
12.4432	12.6495	81	44
12.653	12.8593	76	35
12.653	12.8593	80	39
12.8628	13.2395	71	37
12.8628	13.2395	78	41
13.2738	13.486	76	36
13.2738	13.486	80	40
13.4896	13.7237	71	31
13.4896	13.7237	78	36
13.7277	14.6039	68	34
13.7277	14.6039	76	38
15.0039	15.0928	56	67
15.0039	15.0928	64	74
15.1879	15.2809	64	63
15.1879	15.2809	68	71
15.3802	15.7374	59	73
15.3802	15.7374	66	82
15.7698	15.8572	64	67
15.7698	15.8572	68	74
15.9506	16.0406	66	63
15.9506	16.0406	69	71
16.1369	16.485	68	71
16.1369	16.485	71	80
16.5167	16.6035	69	66
16.5167	16.6035	73	73
16.6974	16.7916	68	62
16.6974	16.7916	71	70
16.8922	17.2448	66	70
16.8922	17.2448	69	79
17.2768	17.3658	64	70
17.2768	17.3658	68	79
17.4609	17.5538	66	67
17.4609	17.5538	69	74
17.6532	18.0351	59	74
17.6532	18.0351	66	83
18.0699	18.1594	56	67
18.0699	18.1594	64	74
18.255	18.3474	64	64
18.255	18.3474	68	72
18.4461	18.7987	59	73
18.4461	18.7987	66	82
18.8308	18.9151	64	67
18.8308	18.9151	68	74
19.0052	19.0964	66	63
19.0052	19.0964	69	71
19.1939	19.5232	68	71
19.1939	19.5232	71	80
19.5531	19.6415	69	66
19.5531	19.6415	73	73
19.7361	19.8302	68	63
19.7361	19.8302	71	71
19.9309	20.2975	66	69
19.9309	20.2975	69	77
20.3309	20.4316	64	70
20.3309	20.4316	68	79
20.5392	20.6534	66	67
20.5392	20.6534	69	74
20.7754	21.1216	59	67
20.7754	21.1216	66	74
21.237	21.4363	80	48
21.237	21.4363	83	53
21.4397	21.6403	78	46
21.4397	21.6403	81	51
21.6438	22.0205	76	52
21.6438	22.0205	80	59
22.0547	22.2501	76	39
22.0547	22.2501	80	44
22.2534	22.4554	71	37
22.2534	22.4554	78	41
22.4589	22.8462	68	44
22.4589	22.8462	76	49
22.8814	22.9704	68	67
22.8814	22.9704	71	74
23.0655	23.1567	66	61
23.0655	23.1567	69	69
23.2541	23.6208	64	72
23.2541	23.6208	68	81
23.6541	23.7448	64	66
23.6541	23.7448	68	73
23.8416	23.9377	59	61
23.8416	23.9377	66	69
24.0403	24.3528	56	71
24.0403	24.3528	64	80
24.457	24.6563	68	45
24.457	24.6563	76	50
24.6597	24.8646	71	40
24.6597	24.8646	78	46
24.868	25.2448	76	44
24.868	25.2448	80	49
25.279	25.4853	78	39
25.279	25.4853	81	44
25.4888	25.6951	76	35
25.4888	25.6951	80	39
25.6986	26.0753	71	37
25.6986	26.0753	78	41
26.1096	26.3365	76	36
26.1096	26.3365	80	40
26.3403	26.6295	71	31
26.3403	26.6295	78	36
26.6344	27.6601	68	34
26.6344	27.6601	76	38
28.1578	28.3303	92	42
28.1578	28.3303	95	48
28.3332	28.5058	90	39
28.3332	28.5058	93	44
28.5087	29.5783	52	42
28.5087	29.3986	59	42
28.5087	28.8701	88	47
28.5087	28.8701	92	52
28.6894	29.219	64	39
28.8701	29.219	71	36
28.8701	29.219	88	38
28.8701	29.8124	92	42
29.0446	29.5783	83	35
29.0446	29.8124	90	39
29.219	29.8124	64	42
29.219	30.2844	71	42
29.219	29.5783	80	40
29.219	29.8124	88	46
29.3986	29.8124	59	40
29.5783	29.9106	52	39
29.5783	29.8124	80	41
29.5783	29.8124	83	47
29.7517	29.9222	78	37
29.7517	29.9222	81	41
29.9251	30.9884	52	36
29.9251	30.8098	59	40
29.9251	30.2844	76	45
29.9251	30.2844	80	50
30.1047	30.6312	64	39
30.2844	30.4578	71	39
30.2844	30.6312	76	38
30.2844	31.1579	80	42
30.4578	30.6312	71	35
30.4578	31.1579	78	39
30.6312	31.1579	64	41
30.6312	30.9884	68	47
30.6312	31.1579	71	41
30.6312	30.9884	76	47
30.8098	31.1579	59	39
30.9884	31.3248	52	39
30.9884	31.1579	68	41
30.9884	31.1579	76	47
31.1579	31.695	71	38
31.1579	31.337	78	42
31.34	32.5772	52	40
31.34	32.2207	59	40
31.34	31.8645	76	45
31.34	31.8645	80	50
31.5175	32.5772	64	37
31.695	32.0442	71	42
31.695	32.0442	78	48
31.8645	32.5772	76	38
31.8645	32.5772	80	42
32.0442	32.5772	63	36
32.0442	32.3972	71	40
32.0442	32.3972	78	48
32.0442	32.5667	81	53
32.2207	32.5772	59	37
32.3972	32.5772	71	45
32.3972	32.5667	78	50
32.5667	32.7434	78	41
32.5667	32.7434	81	47
32.7463	33.3292	52	35
32.7463	33.3292	59	39
32.7463	33.2678	80	49
32.7463	33.3292	83	56
32.9228	33.3292	64	37
33.0993	33.3292	78	39
33.0993	33.3292	81	44
33.2678	33.4403	76	36
33.2678	33.4403	80	40
33.4433	33.7835	63	35
33.4433	33.7835	66	39
33.4433	33.7835	71	44
33.4433	33.7835	78	49
33.6208	33.7953	59	36
33.7983	33.9708	92	42
33.7983	33.9708	95	48
33.9737	34.1462	90	39
33.9737	34.1462	93	44
34.1492	35.2188	52	38
34.1492	35.0391	59	42
34.1492	34.5106	88	47
34.1492	34.5106	92	52
34.3299	34.8595	64	39
34.5106	34.8595	71	36
34.5106	34.8595	88	38
34.5106	35.4529	92	42
34.685	35.2188	83	35
34.685	35.4529	90	39
34.8595	35.4529	64	42
34.8595	35.9227	71	42
34.8595	35.2188	80	40
34.8595	35.4529	88	46
35.0391	35.4529	59	39
35.2188	35.5511	52	39
35.2188	35.4529	80	41
35.2188	35.4529	83	47
35.3922	35.5627	78	38
35.3922	35.5627	81	42
35.5656	36.6137	52	36
35.5656	36.4372	59	40
35.5656	35.9227	76	45
35.5656	35.9227	80	50
35.7442	36.2608	64	39
35.9227	36.0913	71	39
35.9227	36.2608	76	38
35.9227	36.7822	80	42
36.0913	36.2608	71	35
36.0913	36.7822	78	39
36.2608	36.7822	64	41
36.2608	36.6137	68	41
36.2608	36.7822	71	41
36.2608	36.6137	76	47
36.4372	36.7822	59	39
36.6137	36.9385	52	39
36.6137	36.7822	68	41
36.6137	36.7822	76	47
36.7822	37.6577	71	38
36.7822	36.9499	78	42
36.9527	38.1912	52	40
36.9527	37.8291	59	40
36.9527	37.478	76	45
36.9527	37.478	80	50
37.1292	38.1912	64	37
37.3056	37.6577	78	44
37.3056	38.1912	81	49
37.478	38.0006	76	39
37.478	38.0006	80	44
37.6577	38.1912	63	40
37.6577	38.1912	69	40
37.6577	38.1802	71	40
37.6577	38.1802	78	46
37.8291	38.1912	59	37
38.0006	38.1912	76	45
38.0006	38.1912	80	50
38.1802	38.3646	71	38
38.1802	38.3646	78	42
38.3677	39.3495	52	44
38.3677	38.7338	68	39
38.3677	39.3495	76	44
38.5552	39.3495	59	36
38.7338	39.3495	68	38
38.9167	39.3495	64	36
39.0981	39.4402	71	44
39.4551	39.5375	56	67
39.4551	39.5375	64	74
39.6255	39.7134	64	62
39.6255	39.7134	68	70
39.8074	40.1328	59	73
39.8074	40.1328	66	82
40.1624	40.2421	64	67
40.1624	40.2421	68	74
40.3272	40.4096	66	64
40.3272	40.4096	69	72
40.4977	40.8193	68	71
40.4977	40.8193	71	80
40.8486	40.9269	69	69
40.8486	40.9269	73	77
41.0107	41.0931	68	64
41.0107	41.0931	71	72
41.1812	41.5085	66	74
41.1812	41.5085	69	83
41.5383	41.6158	64	68
41.5383	41.6158	68	75
41.6987	41.7811	66	64
41.6987	41.7811	69	72
41.8692	42.1966	59	74
41.8692	42.1966	66	83
42.2245	42.3074	56	67
42.2245	42.3074	64	74
42.3959	42.4817	64	63
42.3959	42.4817	68	71
42.5734	42.9048	59	73
42.5734	42.9048	66	82
42.9349	43.0124	64	67
42.9349	43.0124	68	74
43.0953	43.1801	66	63
43.0953	43.1801	69	71
43.2708	43.5869	68	71
43.2708	43.5869	71	80
43.6156	43.6966	69	71
43.6156	43.6966	73	80
43.7832	43.87	68	69
43.7832	43.87	71	77
43.9628	44.3614	66	74
43.9628	44.3614	69	83
44.3976	44.5271	64	67
44.3976	44.5271	68	74
44.6655	44.8091	66	63
44.6655	44.8091	69	71
44.9625	45.6768	59	64
44.9625	45.6768	66	72
45.9149	46.0874	92	42
45.9149	46.0874	95	48
46.0903	46.2629	90	40
46.0903	46.2629	93	46
46.2658	47.3354	52	38
46.2658	47.1557	59	42
46.2658	46.6272	88	47
46.2658	46.6272	92	52
46.4465	46.9761	64	38
46.6272	46.9761	71	36
46.6272	46.9761	88	38
46.6272	47.5695	92	42
46.8017	47.3354	83	35
46.8017	47.5695	90	39
46.9761	47.5695	64	42
46.9761	48.0415	71	42
46.9761	47.3354	80	40
46.9761	47.5695	88	46
47.1557	47.5695	59	38
47.3354	47.6678	52	39
47.3354	47.5695	80	41
47.3354	47.5695	83	47
47.5088	47.6793	78	38
47.5088	47.6793	81	42
47.6822	48.7455	52	36
47.6822	48.5669	59	40
47.6822	48.0415	76	45
47.6822	48.0415	80	50
47.8619	48.3883	64	39
48.0415	48.2149	71	39
48.0415	48.3883	76	38
48.0415	48.933	80	42
48.2149	48.3883	71	36
48.2149	48.933	78	40
48.3883	48.7455	64	41
48.3883	48.933	68	41
48.3883	49.1205	71	41
48.3883	48.933	76	47
48.5669	48.933	59	39
48.7455	49.1048	52	39
48.7455	48.933	56	41
48.7455	48.933	64	47
48.933	49.0236	59	37
48.933	49.0236	66	41
49.1205	49.4988	64	45
49.1205	49.4988	68	50
49.5152	49.6218	66	41
49.5152	49.6218	69	47
49.7358	49.8424	64	37
49.7358	49.8424	68	41
49.9569	50.386	59	37
49.9569	50.386	66	41
50.4047	50.5353	64	40
50.4047	50.5353	68	46
50.6749	50.826	59	35
50.6749	50.826	66	39
50.9812	52.0821	56	36
50.9812	52.0821	64	40
52.4173	52.6359	59	66
52.4173	52.6359	71	74
52.8618	53.1521	40	66
52.8618	53.1521	47	74
52.8618	53.2489	59	74
52.8618	53.2489	64	74
52.8618	53.2489	67	74
52.8618	53.2489	71	82
53.2489	53.3739	57	74
53.4155	53.5142	55	70
53.6196	53.8991	39	62
53.6196	53.8991	47	69
53.6196	53.9923	57	74
53.6196	53.9923	66	74
53.6196	53.9923	69	82
53.9923	54.118	55	74
54.1599	54.2559	54	69
54.3586	54.6381	40	66
54.3586	54.6381	47	74
54.3586	54.7312	55	74
54.3586	54.7312	60	74
54.3586	54.7312	64	82
54.7312	54.8576	54	74
54.8998	54.9945	52	70
55.0958	55.3753	36	61
55.0958	55.3753	48	68
55.0958	55.4685	55	78
55.0958	55.4685	60	78
55.0958	55.4685	64	88
55.4685	55.5971	54	74
55.6399	55.7373	52	69
55.8413	56.1208	35	64
55.8413	56.1208	47	72
55.8413	56.2139	55	75
55.8413	56.2139	59	75
55.8413	56.2139	64	75
55.8413	56.2139	67	84
56.2139	56.3448	54	74
56.3884	56.485	52	69
56.5884	56.8679	34	61
56.5884	56.8679	46	68
56.5884	56.961	52	73
56.5884	56.961	55	73
56.5884	56.961	61	73
56.5884	56.961	64	81
56.961	57.1062	51	74
57.1546	57.32	52	69
57.3752	58.2143	35	68
57.3752	58.2143	47	77
57.3752	58.2143	55	78
57.3752	58.2143	59	78
57.3752	58.2143	64	78
57.3752	58.2143	67	88
58.2143	58.6339	35	64
58.2143	58.6339	47	73
58.2143	58.6339	54	73
58.2143	58.6339	63	73
58.2143	58.6339	66	81
58.6339	58.8319	50	80
58.6339	58.8319	62	80
59.0366	59.3269	31	74
59.0366	59.3269	43	82
59.0366	59.4237	55	85
59.0366	59.4237	59	85
59.0366	59.4237	62	85
59.0366	59.4237	67	94
59.4237	59.5061	54	74
59.5941	59.6928	55	68
59.7982	60.0777	38	66
59.7982	60.0777	50	74
59.7982	60.1709	57	80
59.7982	60.1709	62	80
59.7982	60.1709	66	80
59.7982	60.1709	69	90
60.1709	60.2547	55	74
60.3443	60.4403	57	68
60.543	60.8225	43	66
60.543	60.8225	55	74
60.543	60.9156	59	74
60.543	60.9156	62	74
60.543	60.9156	67	74
60.543	60.9156	71	82
60.9156	61.0014	57	74
61.0931	61.1931	59	69
61.3	61.5778	36	62
61.3	61.5778	48	69
61.3	61.6704	60	84
61.3	61.6704	64	84
61.3	61.6704	67	84
61.3	61.6704	72	93
61.6704	61.7542	62	74
61.8438	61.9323	64	69
62.0268	62.2962	38	64
62.0268	62.2962	50	72
62.0268	62.386	55	77
62.0268	62.386	59	77
62.0268	62.386	62	77
62.0268	62.386	71	86
62.386	62.4689	57	74
62.5575	62.651	59	69
62.751	63.0305	38	61
62.751	63.0305	50	68
62.751	63.1237	57	75
62.751	63.1237	60	75
62.751	63.1237	66	75
62.751	63.1237	69	85
63.1237	63.2216	59	74
63.3264	63.4354	54	68
63.5519	64.3683	31	73
63.5519	64.3683	43	81
63.5519	64.3683	55	82
63.5519	64.3683	59	82
63.5519	64.3683	62	82
63.5519	64.3683	67	92
64.7764	64.9744	59	69
64.7764	64.9744	71	78
65.1791	65.4639	39	66
65.1791	65.4639	47	66
65.1791	65.4639	51	74
65.1791	65.5589	57	75
65.1791	65.5589	66	75
65.1791	65.5589	69	85
65.5589	65.6412	55	70
65.7293	65.8247	54	68
65.9267	66.2079	40	60
65.9267	66.2079	47	60
65.9267	66.2079	52	67
65.9267	66.3017	55	70
65.9267	66.3017	60	70
65.9267	66.3017	64	79
66.3017	66.385	54	72
66.4741	66.5671	52	68
66.6664	66.9442	35	60
66.6664	66.9442	42	60
66.6664	66.9442	47	67
66.6664	67.0368	51	72
66.6664	67.0368	59	72
66.6664	67.0368	63	80
67.0368	67.1439	47	68
67.0368	67.1439	59	77
67.1796	67.2981	48	64
67.1796	67.2981	60	73
67.3375	67.5142	47	75
67.3375	67.5142	59	85
67.6968	67.8884	59	70
67.6968	67.8884	71	79
68.0864	68.3677	39	67
68.0864	68.3677	47	67
68.0864	68.3677	51	75
68.0864	68.4614	57	74
68.0864	68.4614	66	74
68.0864	68.4614	69	82
68.4614	68.5438	55	69
68.6319	68.7273	54	66
68.8293	69.1159	40	60
68.8293	69.1159	47	60
68.8293	69.1159	52	67
68.8293	69.2114	55	70
68.8293	69.2114	60	70
68.8293	69.2114	64	79
69.2114	69.2924	54	70
69.379	69.4628	52	67
69.5524	69.8219	35	60
69.5524	69.8219	42	60
69.5524	69.8219	47	67
69.5524	69.9117	59	72
69.5524	69.9117	63	72
69.5524	69.9117	71	80
69.9117	70.0194	58	74
70.0553	70.1775	60	72
70.2183	70.4038	59	81
70.5956	70.7872	59	69
70.5956	70.7872	71	78
70.9853	71.2702	44	70
70.9853	71.2702	52	70
70.9853	71.2702	56	79
70.9853	71.3654	64	81
70.9853	71.3654	71	81
70.9853	71.3654	76	91
71.3654	71.4371	62	72
71.5139	71.5972	59	66
71.6863	71.9526	45	55
71.6863	71.9526	52	55
71.6863	71.9526	57	62
71.6863	72.0413	60	61
71.6863	72.0413	64	61
71.6863	72.0413	72	68
72.0413	72.112	59	66
72.1877	72.2788	57	62
72.3763	72.6507	42	64
72.3763	72.6507	50	64
72.3763	72.6507	54	73
72.3763	72.7422	62	77
72.3763	72.7422	69	77
72.3763	72.7422	74	86
72.7422	72.8116	60	70
72.8857	72.9695	57	64
73.0591	73.3239	43	55
73.0591	73.3239	50	55
73.0591	73.3239	55	62
73.0591	73.4121	59	61
73.0591	73.4121	62	61
73.0591	73.4121	71	68
73.4121	73.4839	57	66
73.5606	73.6496	55	63
73.7446	74.0157	40	64
73.7446	74.0157	48	64
73.7446	74.0157	52	72
73.7446	74.1061	60	78
73.7446	74.1061	67	78
73.7446	74.1061	72	88
74.1061	74.1812	59	68
74.2636	74.3446	55	63
74.4312	74.6884	42	52
74.4312	74.6884	48	52
74.4312	74.6884	54	58
74.4312	74.7741	57	62
74.4312	74.7741	60	62
74.4312	74.7741	69	69
74.7741	74.8492	55	67
74.9294	75.0224	54	63
75.1217	75.3968	39	62
75.1217	75.3968	47	62
75.1217	75.3968	51	69
75.1217	75.4885	59	75
75.1217	75.4885	66	75
75.1217	75.4885	71	84
75.4885	75.5644	57	68
75.6455	75.7305	54	63
75.8214	76.0786	40	53
75.8214	76.0786	47	53
75.8214	76.0786	52	61
75.8214	76.1643	55	63
75.8214	76.1643	59	63
75.8214	76.1643	67	70
76.1643	76.2397	54	67
76.3296	76.4882	52	63
76.541	76.8232	36	52
76.541	76.8232	48	58
76.541	76.917	55	56
76.541	76.917	60	56
76.541	76.917	64	56
76.541	76.917	67	63
76.917	76.9925	54	70
77.0732	77.1733	52	75
77.2802	77.5512	34	57
77.2802	77.5512	46	64
77.2802	77.6416	55	70
77.2802	77.6416	61	70
77.2802	77.6416	64	70
77.2802	77.6416	67	79
77.6416	77.7217	54	75
77.8073	77.9117	52	70
78.0232	78.3154	35	61
78.0232	78.3154	47	68
78.0232	78.4128	51	75
78.0232	78.4128	59	75
78.0232	78.4128	63	84
78.4128	78.4942	52	64
78.5813	78.6755	54	61
78.7761	79.0627	36	49
78.7761	79.0627	48	55
78.7761	79.1583	52	62
78.7761	79.1583	55	62
78.7761	79.1583	64	69
79.1583	79.2362	54	62
79.3196	79.4176	55	62
79.5223	79.7886	33	56
79.5223	79.7886	45	63
79.5223	79.8773	53	67
79.5223	79.8773	60	75
79.8773	79.9583	60	55
79.8773	79.9583	65	53
79.8773	79.9583	69	61
80.0449	80.1456	57	55
80.0449	80.1456	60	51
80.0449	80.1456	65	57
80.2532	80.5493	35	57
80.2532	80.5493	47	64
80.2532	80.5493	55	64
80.2532	80.5493	59	64
80.2532	80.5493	64	73
80.648	80.773	57	60
80.648	80.773	59	60
80.648	80.773	66	67
80.9066	81.141	54	57
80.9066	81.141	59	56
80.9066	81.141	63	63
81.2191	82.6308	40	67
81.2191	82.6308	52	75
81.2191	82.6308	55	69
81.2191	82.6308	59	69
81.2191	82.6308	64	78
83.3378	83.5119	92	42
83.3378	83.5119	95	48
83.5149	83.6889	90	39
83.5149	83.6889	93	44
83.6919	84.7713	52	38
83.6919	84.59	59	42
83.6919	84.0566	88	47
83.6919	84.0566	92	52
83.8743	84.4087	64	39
84.0566	84.4087	71	36
84.0566	84.4087	88	38
84.0566	85.0075	92	42
84.2327	84.7713	83	35
84.2327	85.0075	90	39
84.4087	85.0075	64	42
84.4087	85.4838	71	42
84.4087	84.7713	80	40
84.4087	85.0075	88	46
84.59	85.0075	59	40
84.7713	85.1067	52	39
84.7713	85.0075	80	41
84.7713	85.0075	83	47
84.9463	85.1183	78	38
84.9463	85.1183	81	42
85.1212	86.1942	52	36
85.1212	86.014	59	40
85.1212	85.4838	76	45
85.1212	85.4838	80	50
85.3025	85.8338	64	39
85.4838	85.6588	71	39
85.4838	85.8338	76	38
85.4838	86.3653	80	42
85.6588	85.8338	71	35
85.6588	86.3653	78	39
85.8338	86.3653	64	41
85.8338	86.1942	68	41
85.8338	86.3653	71	41
85.8338	86.1942	76	47
86.014	86.3653	59	39
86.1942	86.5337	52	39
86.1942	86.3653	68	41
86.1942	86.3653	76	47
86.3653	86.9073	71	38
86.3653	86.546	78	42
86.5491	87.7975	52	40
86.5491	87.4378	59	36
86.5491	87.0784	76	45
86.5491	87.0784	80	50
86.7282	87.7975	64	37
86.9073	87.2597	71	42
86.9073	87.2597	78	48
87.0784	87.7975	76	39
87.0784	87.7975	80	44
87.2597	87.7975	63	36
87.2597	87.6158	71	40
87.2597	87.6158	78	48
87.2597	87.7869	81	53
87.4378	87.7975	59	40
87.6158	87.7975	71	45
87.6158	87.7869	78	50
87.7869	87.9652	78	41
87.7869	87.9652	81	47
87.9682	88.5564	52	35
87.9682	88.5564	59	39
87.9682	88.4944	80	49
87.9682	88.5564	83	56
88.1463	88.5564	64	37
88.3244	88.5564	78	39
88.3244	88.5564	81	44
88.4944	88.6685	76	37
88.4944	88.6685	80	41
88.6715	89.0148	63	35
88.6715	89.0148	66	39
88.6715	89.0148	71	44
88.6715	89.0148	78	49
88.8506	89.0267	59	37
89.0297	89.2038	92	42
89.0297	89.2038	95	48
89.2068	89.3809	90	39
89.2068	89.3809	93	44
89.3838	90.4632	52	38
89.3838	90.2819	59	42
89.3838	89.7486	88	47
89.3838	89.7486	92	52
89.5662	90.1006	64	39
89.7486	90.1006	71	36
89.7486	90.1006	88	38
89.7486	90.696	92	42
89.9246	90.4632	83	36
89.9246	90.696	90	40
90.1006	90.696	64	42
90.1006	91.1705	71	42
90.1006	90.4632	80	46
90.1006	90.696	88	46
90.2819	90.696	59	39
90.4632	90.7954	52	39
90.4632	90.696	80	41
90.4632	90.696	83	47
90.6346	90.8071	78	39
90.6346	90.8071	81	44
90.8101	91.8677	52	36
90.8101	91.6897	59	40
90.8101	91.1705	76	45
90.8101	91.1705	80	50
90.9903	91.5116	64	39
91.1705	91.3405	71	39
91.1705	91.5116	76	38
91.1705	92.0378	80	42
91.3405	91.5116	71	34
91.3405	92.0378	78	38
91.5116	92.0378	64	41
91.5116	91.8677	68	41
91.5116	92.0378	71	41
91.5116	91.8677	76	47
91.6897	92.0378	59	39
91.8677	92.1955	52	39
91.8677	92.0378	68	41
91.8677	92.0378	76	47
92.0378	92.9213	71	38
92.0378	92.207	78	42
92.2098	93.4596	52	40
92.2098	93.0943	59	36
92.2098	92.74	76	45
92.2098	92.74	80	50
92.3879	93.4596	64	37
92.566	92.9213	78	44
92.566	93.4596	81	49
92.74	93.2673	76	39
92.74	93.2673	80	44
92.9213	93.4596	63	36
92.9213	93.4596	69	40
92.9213	93.4486	71	40
92.9213	93.4486	78	46
93.0943	93.4596	59	37
93.2673	93.4596	76	45
93.2673	93.4596	80	50
93.4486	93.6346	71	38
93.4486	93.6346	78	42
93.6378	94.6112	52	44
93.6378	93.9983	68	39
93.6378	94.6112	76	44
93.8218	94.6112	59	36
93.9983	94.6112	68	38
94.179	94.6112	64	36
94.3595	94.7019	71	44
94.7168	94.7991	56	67
94.7168	94.7991	64	74
94.8872	94.9751	64	62
94.8872	94.9751	68	70
95.069	95.3945	59	73
95.069	95.3945	66	82
95.4241	95.5037	64	67
95.4241	95.5037	68	74
95.5889	95.6713	66	64
95.5889	95.6713	69	72
95.7594	96.081	68	71
95.7594	96.081	71	80
96.1102	96.1886	69	69
96.1102	96.1886	73	77
96.2724	96.3548	68	64
96.2724	96.3548	71	72
96.4428	96.7702	66	74
96.4428	96.7702	69	83
96.8	96.8775	64	68
96.8	96.8775	68	75
96.9604	97.0428	66	63
96.9604	97.0428	69	71
97.1309	97.4582	59	74
97.1309	97.4582	66	83
97.4862	97.569	56	67
97.4862	97.569	64	74
97.6576	97.7434	64	63
97.6576	97.7434	68	71
97.8351	98.1664	59	73
97.8351	98.1664	66	82
98.1966	98.2741	64	67
98.1966	98.2741	68	74
98.357	98.4418	66	63
98.357	98.4418	69	71
98.5324	98.8485	68	71
98.5324	98.8485	71	80
98.8773	98.9583	69	71
98.8773	98.9583	73	80
99.0449	99.1317	68	69
99.0449	99.1317	71	77
99.2245	99.6202	66	74
99.2245	99.6202	69	83
99.6562	99.7845	64	67
99.6562	99.7845	68	74
99.9217	100.07	66	62
99.9217	100.07	69	70
100.228	101.031	59	64
100.228	101.031	66	72
101.299	101.47	92	42
101.299	101.47	95	48
101.473	101.643	90	39
101.473	101.643	93	44
101.646	102.709	52	38
101.646	102.53	59	42
101.646	102.005	88	47
101.646	102.005	92	52
101.826	102.35	64	38
102.005	102.35	71	36
102.005	102.35	88	38
102.005	102.941	92	42
102.178	102.709	83	35
102.178	102.941	90	39
102.35	102.941	64	42
102.35	103.412	71	42
102.35	102.709	80	40
102.35	102.941	88	46
102.53	102.941	59	38
102.709	103.038	52	39
102.709	102.941	80	41
102.709	102.941	83	47
102.881	103.049	78	38
102.881	103.049	81	42
103.052	104.107	52	36
103.052	103.931	59	40
103.052	103.412	76	45
103.052	103.412	80	50
103.232	103.754	64	39
103.412	103.583	71	39
103.412	103.754	76	38
103.412	104.295	80	42
103.583	103.754	71	40
103.583	104.295	78	40
103.754	104.107	64	41
103.754	104.295	68	41
103.754	104.482	71	41
103.754	104.295	76	47
103.931	104.295	59	39
104.107	104.467	52	39
104.107	104.295	56	41
104.107	104.295	64	47
104.295	104.386	59	38
104.295	104.386	66	42
104.482	104.861	64	45
104.482	104.861	68	50
104.877	104.984	66	41
104.877	104.984	69	47
105.098	105.204	64	36
105.098	105.204	68	40
105.319	105.765	59	37
105.319	105.765	66	41
105.784	105.921	64	40
105.784	105.921	68	46
106.067	106.242	59	35
106.067	106.242	66	39
106.428	107.366	56	36
106.428	107.366	64	40
107.835	108.065	40	79
107.835	108.065	52	79
107.835	108.065	64	79
107.835	108.065	76	88
108.303	109.457	45	86
108.303	109.457	57	86
108.303	109.457	69	88
108.303	109.457	81	97
109.457	109.751	40	81
109.457	109.751	52	81
109.457	109.751	64	81
109.457	109.751	76	91
109.849	110.249	36	88
109.849	110.249	48	88
109.849	110.249	60	88
109.849	110.249	72	97
110.249	110.718	33	84
110.249	110.718	45	84
110.249	110.718	57	83
110.249	110.718	69	93
111.178	111.234	48	41
111.178	111.234	57	48
111.231	111.287	50	41
111.231	111.287	59	48
111.284	111.34	52	41
111.284	111.34	60	48
111.337	111.393	53	42
111.337	111.393	62	48
111.39	111.445	55	42
111.39	111.445	64	49
111.442	111.498	57	42
111.442	111.498	65	49
111.494	111.549	59	44
111.494	111.549	67	49
111.549	111.604	60	44
111.549	111.604	69	49
111.601	111.656	62	44
111.601	111.656	71	49
111.653	111.707	64	44
111.653	111.707	72	49
111.704	111.759	65	44
111.704	111.759	74	49
111.756	111.81	67	44
111.756	111.81	76	50
111.807	111.86	69	45
111.807	111.86	77	50
111.857	111.911	71	45
111.857	111.911	79	50
111.911	111.964	72	44
111.911	111.964	81	49
111.961	112.015	74	44
111.961	112.015	83	49
112.012	112.065	76	44
112.012	112.065	84	49
112.062	112.114	77	44
112.062	112.114	86	49
112.112	112.164	79	44
112.112	112.164	88	49
112.161	112.214	81	42
112.161	112.214	89	48
112.211	112.263	83	42
112.211	112.263	91	48
112.263	112.45	84	48
112.263	112.45	93	53
112.643	112.737	74	31
112.643	112.737	77	31
112.643	112.737	83	36
112.643	112.737	86	38
112.643	112.737	89	38
112.643	112.737	96	61
112.839	112.933	74	31
112.839	112.933	77	31
112.839	112.933	83	36
112.839	112.933	86	38
112.839	112.933	89	38
112.839	112.933	95	52
112.937	113.032	64	40
113.035	113.776	72	36
113.035	113.776	76	36
113.035	113.776	81	40
113.035	113.776	84	44
113.035	113.112	95	53
113.112	113.189	93	49
113.189	113.266	95	53
113.266	113.343	93	49
113.343	113.421	95	53
113.421	113.498	93	49
113.498	113.587	92	50
113.59	113.68	95	57
113.683	113.773	93	53
113.776	114.1	71	29
113.776	114.1	76	29
113.776	114.1	80	34
113.776	114.1	83	39
113.776	114.1	92	48
114.146	114.376	38	79
114.146	114.376	50	79
114.146	114.376	62	79
114.146	114.376	74	88
114.615	115.769	41	86
114.615	115.769	53	86
114.615	115.769	65	88
114.615	115.769	77	97
115.769	116.05	38	81
115.769	116.05	50	81
115.769	116.05	62	81
115.769	116.05	74	91
116.144	116.512	35	88
116.144	116.512	47	88
116.144	116.512	59	88
116.144	116.512	71	97
116.528	116.997	32	83
116.528	116.997	44	83
116.528	116.997	56	83
116.528	116.997	68	93
117.457	117.513	50	41
117.457	117.513	59	48
117.51	117.566	52	41
117.51	117.566	60	48
117.563	117.619	53	41
117.563	117.619	62	48
117.616	117.672	55	42
117.616	117.672	64	48
117.669	117.724	57	42
117.669	117.724	65	49
117.721	117.776	59	42
117.721	117.776	67	49
117.773	117.828	60	44
117.773	117.828	69	49
117.828	117.883	62	44
117.828	117.883	71	49
117.88	117.935	64	44
117.88	117.935	72	49
117.932	117.986	65	44
117.932	117.986	74	49
117.983	118.037	67	44
117.983	118.037	76	49
118.034	118.088	69	44
118.034	118.088	77	50
118.085	118.139	71	45
118.085	118.139	79	50
118.136	118.19	72	45
118.136	118.19	81	50
118.19	118.243	74	44
118.19	118.243	83	49
118.24	118.293	76	44
118.24	118.293	84	49
118.29	118.343	77	44
118.29	118.343	86	49
118.34	118.393	79	44
118.34	118.393	88	49
118.39	118.443	81	44
118.39	118.443	89	49
118.44	118.492	83	42
118.44	118.492	91	48
118.49	118.542	84	42
118.49	118.542	93	48
118.542	118.722	86	48
118.542	118.722	95	53
118.908	118.999	68	31
118.908	118.999	77	36
118.908	118.999	89	38
118.908	118.999	98	55
119.096	119.187	68	31
119.096	119.187	76	36
119.096	119.187	88	38
119.096	119.187	96	51
119.285	120.026	69	36
119.285	120.026	77	36
119.285	120.026	80	40
119.285	120.026	86	44
119.285	119.362	96	53
119.362	119.439	95	49
119.439	119.516	96	53
119.516	119.594	95	49
119.594	119.671	96	53
119.671	119.748	95	49
119.748	119.837	93	50
119.84	119.93	96	57
119.933	120.023	95	53
120.026	120.334	69	34
120.026	120.334	76	34
120.026	120.334	81	38
120.026	120.334	84	39
120.026	120.334	93	48
120.396	120.486	88	57
120.396	120.486	100	63
120.766	120.852	93	62
120.766	120.852	105	70
121.121	121.202	64	51
121.205	121.285	62	48
121.288	121.369	61	51
121.33	121.724	67	31
121.371	121.452	59	49
121.371	121.724	73	31
121.413	121.724	76	31
121.455	121.724	57	56
121.455	121.724	81	37
121.814	121.895	93	49
121.898	121.979	91	46
121.982	122.063	89	49
122.065	122.146	88	45
122.149	122.408	89	53
122.494	122.575	69	51
122.494	122.744	74	30
122.494	122.744	77	30
122.494	122.744	81	35
122.577	122.658	67	47
122.661	122.741	65	51
122.744	122.825	64	48
122.827	123.095	62	55
122.827	123.095	77	36
122.827	123.095	81	36
122.827	123.095	86	40
123.185	123.273	93	63
123.185	123.273	101	63
123.553	123.639	89	70
123.553	123.639	98	70
123.912	123.995	62	51
123.998	124.08	60	48
124.083	124.166	59	51
124.126	124.536	65	31
124.169	124.252	57	49
124.169	124.536	71	31
124.212	124.536	74	31
124.255	124.536	55	55
124.255	124.536	79	38
124.63	124.707	91	47
124.71	124.788	89	44
124.79	124.868	88	47
124.87	124.948	86	44
124.951	125.209	88	51
125.295	125.376	67	51
125.295	125.545	72	30
125.295	125.545	76	30
125.295	125.545	79	35
125.379	125.459	65	48
125.462	125.543	64	51
125.545	125.626	62	48
125.629	125.897	60	55
125.629	125.897	76	36
125.629	125.897	79	36
125.629	125.897	84	40
125.986	126.075	91	67
125.986	126.075	100	67
126.354	126.441	89	72
126.354	126.441	98	72
126.713	126.796	74	52
126.799	126.882	72	48
126.885	126.968	71	52
126.97	127.053	69	48
127.056	127.331	68	58
127.056	127.331	77	37
127.056	127.331	83	37
127.056	127.331	86	41
127.422	127.511	89	67
127.422	127.511	98	67
127.79	127.877	88	72
127.79	127.877	96	72
128.149	128.23	76	52
128.233	128.314	74	48
128.317	128.398	72	52
128.401	128.482	71	49
128.485	128.749	69	58
128.485	128.749	76	37
128.485	128.749	81	37
128.485	128.749	84	41
128.838	128.919	72	52
128.921	129.002	71	49
129.005	129.086	69	52
129.089	129.17	67	50
129.173	129.439	65	58
129.173	129.439	77	37
129.173	129.439	81	37
129.173	129.439	84	41
129.528	129.609	69	52
129.612	129.693	67	50
129.696	129.781	65	52
129.783	129.87	64	49
129.873	130.147	63	58
129.873	130.147	72	37
129.873	130.147	77	37
129.873	130.147	81	41
130.239	130.321	96	53
130.323	130.405	93	50
130.408	130.49	89	53
130.493	130.575	87	50
130.578	130.842	64	31
130.578	130.842	71	31
130.578	130.842	80	36
130.578	130.842	88	59
130.931	131.012	76	48
131.015	131.096	71	45
131.099	131.18	68	49
131.183	131.265	71	47
131.268	131.578	64	53
131.681	131.931	43	79
131.681	131.931	55	79
131.681	131.931	67	79
131.681	131.931	79	88
132.19	133.344	48	86
132.19	133.344	60	86
132.19	133.344	72	88
132.19	133.344	84	97
133.344	133.625	43	81
133.344	133.625	55	81
133.344	133.625	67	81
133.344	133.625	79	91
133.719	134.072	40	88
133.719	134.072	52	88
133.719	134.072	64	88
133.719	134.072	76	97
134.072	134.54	36	85
134.072	134.54	48	85
134.072	134.54	60	84
134.072	134.54	72	94
135.0	135.057	52	41
135.0	135.057	60	48
135.053	135.11	53	41
135.053	135.11	62	48
135.107	135.162	55	41
135.107	135.162	64	48
135.159	135.215	57	42
135.159	135.215	65	48
135.212	135.268	59	42
135.212	135.268	67	49
135.264	135.32	60	42
135.264	135.32	69	49
135.317	135.372	62	44
135.317	135.372	71	49
135.372	135.427	64	44
135.372	135.427	72	49
135.424	135.478	65	44
135.424	135.478	74	49
135.475	135.53	67	44
135.475	135.53	76	49
135.527	135.581	69	44
135.527	135.581	77	49
135.578	135.632	71	44
135.578	135.632	79	50
135.629	135.683	72	45
135.629	135.683	81	50
135.68	135.733	74	45
135.68	135.733	83	50
135.733	135.787	76	44
135.733	135.787	84	49
135.784	135.837	77	44
135.784	135.837	86	49
135.834	135.887	79	44
135.834	135.887	88	49
135.884	135.937	81	44
135.884	135.937	89	49
135.934	135.986	83	44
135.934	135.986	91	49
135.983	136.036	84	42
135.983	136.036	93	48
136.033	136.085	86	42
136.033	136.085	95	48
136.085	136.257	88	48
136.085	136.257	96	53
136.434	136.522	77	31
136.434	136.522	81	31
136.434	136.522	86	36
136.434	136.522	89	38
136.434	136.522	93	38
136.434	136.522	100	61
136.616	136.704	77	31
136.616	136.704	81	31
136.616	136.704	86	36
136.616	136.704	89	38
136.616	136.704	93	38
136.616	136.704	98	51
136.707	137.508	67	40
136.752	137.508	79	40
136.798	137.508	76	40
136.798	137.508	84	40
136.798	137.508	88	44
136.798	136.872	98	53
136.872	136.946	96	49
136.946	137.019	98	53
137.019	137.093	96	49
137.093	137.167	98	53
137.167	137.241	96	49
137.241	137.327	95	50
137.33	137.416	98	57
137.419	137.505	96	53
137.508	137.818	67	38
137.508	137.818	74	38
137.508	137.818	79	38
137.508	137.818	83	38
137.508	137.818	86	44
137.508	137.818	95	48
137.863	138.093	38	70
137.863	138.093	50	70
137.863	138.093	62	70
137.863	138.093	74	79
138.331	139.485	41	78
138.331	139.485	53	78
138.331	139.485	65	79
138.331	139.485	77	88
139.485	139.791	38	72
139.485	139.791	50	72
139.485	139.791	62	72
139.485	139.791	74	81
139.893	140.291	35	79
139.893	140.291	47	79
139.893	140.291	59	79
139.893	140.291	71	88
140.291	140.76	31	75
140.291	140.76	43	75
140.291	140.76	55	75
140.291	140.76	67	75
141.22	141.276	50	41
141.22	141.276	59	48
141.273	141.329	52	41
141.273	141.329	60	48
141.326	141.382	53	41
141.326	141.382	62	48
141.379	141.434	55	42
141.379	141.434	64	48
141.431	141.487	57	42
141.431	141.487	65	49
141.484	141.539	59	42
141.484	141.539	67	49
141.536	141.591	60	44
141.536	141.591	69	49
141.591	141.646	62	44
141.591	141.646	71	49
141.643	141.697	64	44
141.643	141.697	72	49
141.694	141.749	65	44
141.694	141.749	74	49
141.746	141.8	67	44
141.746	141.8	76	49
141.797	141.851	69	44
141.797	141.851	77	50
141.848	141.902	71	45
141.848	141.902	79	50
141.899	141.952	72	45
141.899	141.952	81	50
141.952	142.006	74	44
141.952	142.006	83	49
142.003	142.056	76	44
142.003	142.056	84	49
142.053	142.106	77	44
142.053	142.106	86	49
142.103	142.156	79	44
142.103	142.156	88	49
142.153	142.206	81	44
142.153	142.206	89	49
142.203	142.255	83	42
142.203	142.255	91	48
142.252	142.304	84	42
142.252	142.304	93	48
142.304	142.484	86	48
142.304	142.484	95	53
142.67	142.761	71	31
142.67	142.761	81	36
142.67	142.761	93	38
142.67	142.761	101	57
142.859	142.95	71	31
142.859	142.95	79	36
142.859	142.95	91	38
142.859	142.95	100	51
143.048	143.788	67	36
143.048	143.788	71	36
143.048	143.788	77	40
143.048	143.788	89	44
143.048	143.125	100	53
143.125	143.202	98	49
143.202	143.279	100	53
143.279	143.356	98	49
143.356	143.433	100	53
143.433	143.511	98	49
143.511	143.6	97	50
143.603	143.693	100	57
143.696	143.785	98	53
143.788	144.089	72	34
143.788	144.089	76	38
143.788	144.089	88	39
143.788	144.089	96	48
144.15	144.237	91	73
144.511	144.597	96	82
144.866	144.947	67	51
144.95	145.03	65	48
145.033	145.113	64	51
145.075	145.469	70	31
145.116	145.197	62	48
145.116	145.469	76	31
145.158	145.469	79	31
145.2	145.469	60	56
145.2	145.469	84	37
145.559	145.638	84	48
145.641	145.721	88	44
145.724	145.803	91	48
145.806	145.886	88	44
145.889	146.147	89	51
146.233	146.314	72	51
146.233	146.483	77	30
146.233	146.483	81	35
146.317	146.397	70	47
146.4	146.481	69	51
146.483	146.564	67	48
146.567	146.835	65	55
146.567	146.835	72	36
146.567	146.835	77	36
146.567	146.835	81	40
146.924	147.013	93	57
146.924	147.013	101	63
147.292	147.379	90	62
147.292	147.379	98	70
147.651	147.734	69	51
147.737	147.82	67	47
147.823	147.905	66	51
147.865	148.275	72	31
147.908	147.991	64	48
147.908	148.275	78	31
147.951	148.275	81	31
147.994	148.275	62	55
147.994	148.275	86	38
148.369	148.447	86	55
148.449	148.527	90	57
148.529	148.607	93	59
148.61	148.687	90	56
148.69	148.949	91	58
149.035	149.113	74	53
149.035	149.277	79	34
149.035	149.277	83	38
149.115	149.193	72	49
149.196	149.274	71	53
149.277	149.355	69	49
149.357	149.61	67	58
149.357	149.61	74	39
149.357	149.61	79	39
149.357	149.61	83	45
149.694	149.779	95	64
149.694	149.779	103	72
150.045	150.132	92	71
150.045	150.132	100	80
150.405	150.486	71	56
150.489	150.571	69	53
150.574	150.656	68	56
150.616	151.004	74	36
150.659	150.741	66	52
150.659	151.004	80	36
150.701	151.004	83	36
150.744	151.004	64	60
150.744	151.004	88	41
151.09	151.17	88	60
151.172	151.252	92	61
151.254	151.334	95	63
151.336	151.416	92	59
151.418	151.677	93	63
151.763	151.842	76	58
151.763	152.008	81	37
151.763	152.008	84	41
151.845	151.923	74	55
151.926	152.005	72	57
152.008	152.086	71	53
152.089	152.343	69	61
152.089	152.343	76	40
152.089	152.343	81	40
152.089	152.343	84	46
152.427	152.505	76	57
152.508	152.586	72	53
152.589	152.667	69	57
152.67	152.749	67	53
152.751	153.006	65	61
153.09	153.332	72	26
153.09	153.332	77	26
153.09	153.332	81	29
153.09	153.168	89	56
153.171	153.249	93	53
153.252	153.329	96	56
153.332	153.41	93	52
153.413	153.666	77	28
153.413	153.666	81	28
153.413	153.666	84	31
153.413	153.666	89	60
153.75	153.826	77	53
153.829	153.905	72	48
153.908	153.984	69	53
153.987	154.063	65	50
154.066	154.317	64	61
154.4	154.643	72	26
154.4	154.643	76	26
154.4	154.643	81	29
154.4	154.478	88	50
154.481	154.559	93	46
154.562	154.641	96	50
154.643	154.722	93	47
154.724	154.976	76	28
154.724	154.976	81	28
154.724	154.976	84	31
154.724	154.976	88	55
155.06	155.137	76	50
155.139	155.216	72	47
155.219	155.296	69	50
155.299	155.376	64	47
155.379	155.633	63	53
155.716	155.962	72	26
155.716	155.962	78	26
155.716	155.962	81	29
155.716	155.796	87	49
155.798	155.878	93	46
155.88	155.96	96	49
155.962	156.042	93	45
156.044	156.303	78	28
156.044	156.303	81	28
156.044	156.303	84	31
156.044	156.303	87	51
156.389	156.467	75	51
156.469	156.547	72	46
156.55	156.627	69	51
156.63	156.707	66	47
156.71	156.964	64	56
157.048	157.296	71	29
157.048	157.296	76	29
157.048	157.296	79	33
157.048	157.128	88	49
157.131	157.211	91	45
157.213	157.294	95	49
157.296	157.376	91	45
157.379	157.638	76	31
157.379	157.638	79	31
157.379	157.638	83	36
157.379	157.638	88	52
157.724	157.802	71	52
157.805	157.883	67	48
157.885	157.963	64	52
157.966	158.044	62	48
158.047	158.301	60	57
158.386	158.622	67	33
158.386	158.622	76	33
158.386	158.622	79	37
158.386	158.701	84	48
158.386	158.462	88	55
158.464	158.541	91	50
158.543	158.62	96	55
158.622	158.699	91	50
158.701	158.863	72	36
158.701	158.863	76	36
158.701	158.863	79	40
158.701	158.863	84	48
158.701	158.863	88	58
159.029	159.105	72	55
159.108	159.184	67	50
159.186	159.262	64	55
159.265	159.341	60	51
159.343	159.589	59	59
159.671	159.911	67	34
159.671	159.911	76	34
159.671	159.911	79	38
159.671	159.99	83	48
159.671	159.748	88	55
159.751	159.828	91	51
159.831	159.908	95	55
159.911	159.988	91	51
159.99	160.154	71	36
159.99	160.154	76	36
159.99	160.154	79	40
159.99	160.154	83	48
159.99	160.154	88	57
160.324	160.4	71	56
160.403	160.48	67	51
160.482	160.559	64	56
160.562	160.639	59	52
160.641	160.898	58	60
160.984	161.244	67	34
160.984	161.244	76	34
160.984	161.244	79	38
160.984	161.331	82	59
160.984	161.068	88	59
161.071	161.155	91	55
161.157	161.241	94	59
161.244	161.328	91	55
161.331	161.496	73	36
161.331	161.496	76	36
161.331	161.496	79	40
161.331	161.496	82	63
161.331	161.496	88	63
161.666	161.748	70	57
161.666	161.922	73	31
161.666	161.922	76	31
161.666	161.922	79	36
161.751	161.834	67	53
161.837	161.919	64	57
161.922	162.004	61	53
162.007	162.261	59	60
162.007	162.261	75	34
162.007	162.261	78	34
162.007	162.261	83	38
162.345	162.423	87	56
162.425	162.503	95	52
162.506	162.584	90	56
162.587	162.665	87	51
162.667	162.736	75	58
162.667	162.738	83	59
162.738	162.881	83	51
162.81	162.879	78	56
162.881	162.95	75	52
162.953	163.022	81	56
163.024	163.094	83	52
163.097	163.166	81	56
163.169	163.239	78	53
163.241	163.312	67	57
163.241	163.314	76	59
163.314	163.46	76	52
163.387	163.457	71	56
163.46	163.53	67	52
163.533	163.601	76	59
163.603	163.671	79	53
163.673	163.742	76	56
163.744	163.813	74	53
163.815	163.884	64	59
163.815	163.886	72	60
163.886	164.029	72	53
163.957	164.026	67	57
164.029	164.098	64	55
164.1	164.169	72	61
164.172	164.241	76	55
164.243	164.313	72	58
164.316	164.385	70	56
164.388	164.458	63	60
164.388	164.461	71	61
164.461	164.606	71	56
164.533	164.604	66	58
164.606	164.677	63	55
164.679	164.747	75	61
164.749	164.817	83	56
164.819	164.887	78	59
164.889	164.957	75	56
164.96	165.028	63	60
164.96	165.03	71	62
165.03	165.171	71	56
165.101	165.169	66	60
165.171	165.24	63	57
165.242	165.311	69	64
165.313	165.382	71	58
165.384	165.453	69	62
165.455	165.524	66	60
165.526	165.596	55	70
165.526	165.598	64	70
165.598	165.743	64	62
165.671	165.74	59	66
165.743	165.812	55	61
165.815	165.882	64	70
165.884	165.951	67	62
165.954	166.021	64	67
166.024	166.091	62	61
166.094	166.161	52	70
166.094	166.164	60	72
166.164	166.305	60	62
166.234	166.303	55	66
166.305	166.374	52	63
166.376	166.445	60	70
166.447	166.516	64	62
166.518	166.588	60	67
166.59	166.66	58	62
166.662	166.746	51	74
166.662	167.033	59	73
166.734	166.806	55	68
166.806	166.89	54	68
166.878	166.95	51	66
166.95	167.033	47	58
167.021	167.103	54	59
167.021	167.103	63	62
167.092	167.162	58	60
167.092	167.174	66	63
167.162	167.231	59	61
167.162	167.231	70	64
167.231	167.312	63	63
167.231	167.312	71	66
167.3	167.38	66	64
167.3	167.38	75	67
167.368	167.447	70	66
167.368	167.447	78	68
167.436	167.503	71	68
167.436	167.503	82	69
167.503	167.58	75	70
167.503	167.58	83	70
167.569	167.645	78	71
167.569	167.645	87	71
167.635	167.71	82	73
167.635	167.71	90	73
167.7	167.764	83	74
167.7	167.764	94	75
167.764	168.142	87	77
167.764	168.142	95	77
169.277	169.411	92	42
169.277	169.411	95	48
169.413	169.547	90	38
169.413	169.547	93	42
169.549	169.645	76	38
169.549	169.645	83	38
169.549	169.784	88	47
169.549	169.784	92	52
169.677	169.773	76	37
169.677	169.773	83	37
169.805	169.932	88	38
169.805	169.932	92	42
169.934	170.063	83	35
169.934	170.063	90	39
170.065	170.161	71	38
170.065	170.161	76	38
170.065	170.3	80	40
170.065	170.3	88	46
170.193	170.29	71	37
170.193	170.29	76	37
170.322	170.448	80	41
170.322	170.448	83	47
170.45	170.58	78	37
170.45	170.58	81	41
170.582	170.678	64	38
170.582	170.678	71	38
170.582	170.817	76	45
170.582	170.817	80	50
170.71	170.806	64	35
170.71	170.806	71	35
170.838	170.964	76	38
170.838	170.964	80	42
170.967	171.095	71	35
170.967	171.095	78	39
171.098	171.194	59	38
171.098	171.194	64	38
171.098	171.334	68	41
171.098	171.334	76	47
171.226	171.323	59	35
171.226	171.323	64	35
171.355	171.48	68	41
171.355	171.48	76	47
171.482	171.609	71	37
171.482	171.609	78	41
171.611	171.708	52	38
171.611	171.708	59	38
171.611	171.848	76	45
171.611	171.848	80	50
171.74	171.837	52	36
171.74	171.837	59	36
171.87	171.995	71	42
171.87	171.995	78	48
171.997	172.126	76	39
171.997	172.126	80	44
172.128	172.226	63	40
172.128	172.226	71	40
172.128	172.368	78	48
172.128	172.368	81	53
172.259	172.357	63	37
172.259	172.357	71	37
172.39	172.516	71	45
172.39	172.516	78	50
172.518	172.649	78	40
172.518	172.649	81	46
172.651	172.749	52	49
172.651	172.749	59	49
172.651	172.889	80	49
172.651	172.889	83	56
172.781	172.879	52	46
172.781	172.879	59	46
172.911	173.037	78	39
172.911	173.037	81	44
173.039	173.168	76	35
173.039	173.168	80	39
173.17	173.267	59	56
173.17	173.3	71	44
173.17	173.402	78	49
173.3	173.392	59	51
173.3	173.402	71	51
173.423	173.548	92	42
173.423	173.548	95	48
173.55	173.675	90	39
173.55	173.675	93	44
173.677	173.771	76	38
173.677	173.771	83	38
173.677	173.907	88	47
173.677	173.907	92	52
173.803	173.897	76	35
173.803	173.897	83	35
173.928	174.052	88	38
173.928	174.052	92	42
174.054	174.18	83	34
174.054	174.18	90	38
174.182	174.276	71	38
174.182	174.276	76	38
174.182	174.412	80	40
174.182	174.412	88	46
174.308	174.402	71	36
174.308	174.402	76	36
174.433	174.557	80	41
174.433	174.557	83	47
174.559	174.684	78	38
174.559	174.684	81	42
174.686	174.78	64	38
174.686	174.78	71	38
174.686	174.916	76	45
174.686	174.916	80	50
174.811	174.905	64	36
174.811	174.905	71	36
174.936	175.059	76	38
174.936	175.059	80	42
175.061	175.189	71	38
175.061	175.189	78	42
175.191	175.287	59	38
175.191	175.287	64	38
175.191	175.425	68	41
175.191	175.425	76	47
175.319	175.415	59	36
175.319	175.415	64	36
175.447	175.572	68	41
175.447	175.572	76	47
175.574	175.702	71	38
175.574	175.702	78	42
175.705	175.8	52	39
175.705	175.8	59	39
175.705	175.939	76	45
175.705	175.939	80	50
175.832	175.928	52	36
175.832	175.928	59	36
175.96	176.088	78	44
175.96	176.088	81	49
176.09	176.223	76	39
176.09	176.223	80	45
176.225	176.322	59	38
176.225	176.322	63	38
176.225	176.463	71	40
176.225	176.463	78	46
176.355	176.452	59	37
176.355	176.452	63	37
176.485	176.615	76	45
176.485	176.615	80	50
176.617	176.751	71	37
176.617	176.751	78	41
176.754	176.855	52	50
176.754	176.855	59	50
176.754	177.269	68	39
176.754	177.269	76	44
176.888	176.984	52	48
176.888	176.984	59	48
177.016	177.109	64	53
177.14	177.237	64	50
177.269	177.532	71	59
177.532	177.592	56	59
177.532	177.592	64	67
177.656	177.721	64	57
177.656	177.721	68	63
177.789	178.027	59	66
177.789	178.027	66	73
178.049	178.108	64	59
178.049	178.108	68	67
178.171	178.232	66	56
178.171	178.232	69	62
178.298	178.533	68	63
178.298	178.533	71	71
178.554	178.613	69	61
178.554	178.613	73	69
178.676	178.737	68	58
178.676	178.737	71	64
178.803	179.042	66	67
178.803	179.042	69	74
179.064	179.123	64	60
179.064	179.123	68	68
179.186	179.248	66	60
179.186	179.248	69	68
179.313	179.553	59	67
179.313	179.553	66	74
179.573	179.634	56	59
179.573	179.634	64	67
179.699	179.762	64	56
179.699	179.762	68	62
179.829	180.071	59	66
179.829	180.071	66	73
180.093	180.154	64	59
180.093	180.154	68	67
180.218	180.282	66	55
180.218	180.282	69	61
180.35	180.586	68	63
180.35	180.586	71	71
180.608	180.669	69	63
180.608	180.669	73	71
180.733	180.797	68	59
180.733	180.797	71	67
180.865	181.213	66	67
180.865	181.213	69	74
181.244	181.369	64	59
181.244	181.369	68	67
181.503	181.65	66	56
181.503	181.65	69	62
181.806	182.394	59	58
181.806	182.394	66	64
182.59	182.713	92	42
182.59	182.713	95	48
182.715	182.839	90	39
182.715	182.839	93	45
182.841	182.934	76	38
182.841	182.934	83	38
182.841	183.068	88	47
182.841	183.068	92	52
182.965	183.058	76	36
182.965	183.058	83	36
183.089	183.211	88	38
183.089	183.211	92	42
183.213	183.338	83	35
183.213	183.338	90	39
183.34	183.433	71	38
183.34	183.433	76	38
183.34	183.567	80	40
183.34	183.567	88	46
183.464	183.557	71	35
183.464	183.557	76	35
183.588	183.71	80	41
183.588	183.71	83	47
183.712	183.836	78	39
183.712	183.836	81	44
183.838	183.931	64	38
183.838	183.931	71	38
183.838	184.065	76	45
183.838	184.065	80	50
183.962	184.055	64	35
183.962	184.055	71	35
184.086	184.208	76	38
184.086	184.208	80	42
184.21	184.338	71	35
184.21	184.338	78	39
184.34	184.436	59	38
184.34	184.436	64	38
184.34	184.574	68	41
184.34	184.574	76	47
184.468	184.563	59	36
184.468	184.563	64	36
184.595	184.721	56	41
184.595	184.721	64	47
184.723	184.851	59	39
184.723	184.851	66	44
184.853	184.952	52	38
184.853	184.952	59	38
184.853	185.107	64	45
184.853	185.107	68	50
184.986	185.085	52	36
184.986	185.085	59	36
185.118	185.246	66	44
185.118	185.246	69	49
185.248	185.38	64	39
185.248	185.38	68	45
185.383	185.481	47	38
185.383	185.481	51	38
185.383	185.635	59	40
185.383	185.635	66	46
185.514	185.613	47	36
185.514	185.613	51	36
185.646	185.776	64	45
185.646	185.776	68	50
185.779	185.913	59	37
185.779	185.913	66	41
185.915	186.019	40	41
185.915	186.019	47	41
185.915	186.468	56	39
185.915	186.468	64	44
186.053	186.157	40	39
186.053	186.157	47	39
186.191	186.468	40	41
186.191	186.468	47	41
186.468	186.725	59	38
186.468	186.725	66	42
186.737	186.874	64	41
186.737	186.874	68	47
186.876	187.017	59	36
186.876	187.017	66	40
187.019	187.138	40	39
187.019	187.138	47	39
187.019	187.654	56	37
187.019	187.654	64	41
187.178	187.297	40	37
187.178	187.297	47	37
187.337	187.654	40	39
187.337	187.654	47	39
187.654	188.03	59	33
187.654	188.03	66	37
188.046	188.288	64	34
188.046	188.288	68	38
188.292	188.579	59	29
188.292	188.579	66	34
188.583	189.306	56	30
188.583	189.306	64	35
189.668	189.789	40	82
189.668	189.789	47	82
189.668	189.789	52	82
189.668	189.789	64	79
189.668	189.789	68	79
189.668	189.789	76	88
189.791	191.016	40	86
189.791	191.016	47	86
189.791	191.016	52	86
189.791	191.016	64	83
189.791	191.016	68	83
189.791	191.016	76	93
