OnsetTime	OffsetTime	MidiPitch	Velocity
0.822996	4.869	65	43
0.824002	4.869	68	43
1.757	4.42099	80	43
1.75799	3.53699	77	43
3.53699	5.283	73	39
3.53699	5.278	77	39
4.869	8.64198	69	36
4.873	8.64298	66	36
5.285	5.67699	72	37
5.28599	5.678	75	37
5.678	6.10499	73	32
5.67899	6.10798	77	32
6.10798	9.07998	75	30
6.10899	9.07998	72	30
8.64298	12.513	65	39
8.64597	12.514	68	39
9.08099	9.48998	70	40
9.08099	9.48899	73	40
9.49198	9.88798	75	34
9.49299	9.89097	72	34
9.89198	13.333	70	32
9.89497	11.866	73	32
10.564	12.233	77	46
11.866	13.336	73	45
12.517	16.286	63	38
12.518	16.29	66	38
12.934	13.753	72	34
12.937	13.753	68	34
13.333	15.765	70	31
13.336	15.765	73	31
13.753	16.714	68	27
13.753	16.713	72	27
16.29	18.701	66	39
16.291	18.702	63	37
16.293	18.705	61	37
16.714	17.123	70	39
17.124	17.525	72	36
17.525	18.284	70	36
17.932	18.309	75	39
18.31	18.705	70	37
18.706	19.09	68	40
18.708	19.864	66	33
18.709	19.864	60	33
18.709	19.867	63	33
19.09	19.475	70	37
19.475	20.262	68	36
19.867	22.204	63	36
19.871	22.205	58	36
19.871	22.205	61	33
20.265	20.654	66	34
20.655	21.029	68	33
21.029	22.206	66	33
22.208	23.381	63	36
22.209	23.381	57	33
22.209	23.793	65	34
22.21	23.385	60	33
23.385	25.781	61	34
23.386	25.786	56	33
23.388	26.951	58	33
23.794	24.2	65	38
24.201	24.602	66	37
24.603	25.005	65	37
25.005	25.551	70	39
25.39	25.786	65	37
25.788	26.167	63	39
25.789	26.951	54	38
26.168	26.562	65	37
26.562	27.347	63	37
26.955	29.296	53	31
26.955	29.295	58	33
26.956	29.299	56	31
27.347	27.734	61	34
27.735	28.123	63	34
28.124	29.3	61	34
29.3	31.227	56	27
29.303	31.227	51	28
29.303	31.227	54	28
29.303	31.227	60	27
30.003	31.385	44	28
30.948	31.385	37	30
31.386	34.556	56	28
31.389	34.556	53	28
31.784	35.004	65	36
31.784	35.004	68	36
32.337	34.556	80	39
32.338	33.671	77	39
33.668	35.414	73	35
33.671	35.418	77	35
35.005	37.493	42	33
35.005	35.418	49	33
35.419	38.731	66	27
35.419	35.809	75	42
35.421	38.733	58	27
35.421	38.732	61	27
35.421	38.732	70	27
35.425	38.736	49	27
35.425	38.735	54	27
35.81	36.24	77	37
36.241	39.166	75	31
38.736	41.311	41	36
38.737	41.315	49	36
39.167	40.048	68	39
39.167	39.576	73	39
39.168	39.579	61	39
39.169	40.049	53	33
39.17	40.049	56	33
39.58	40.051	75	40
39.583	40.052	63	40
40.052	41.315	68	40
40.055	41.316	73	40
40.056	41.319	61	33
40.056	41.319	65	33
40.056	41.318	80	40
41.321	42.579	73	38
41.322	42.579	65	38
41.322	42.991	77	38
41.323	42.5819	56	32
41.325	42.5819	61	32
42.5819	45.085	42	33
42.5859	42.9919	49	33
42.9919	43.3829	75	42
42.995	46.351	66	27
42.9959	46.355	58	27
42.9959	46.352	61	27
42.9959	46.351	70	27
42.9979	46.356	49	27
42.9979	46.355	54	27
43.3869	43.821	77	37
43.821	45.0879	75	31
45.089	46.785	73	37
46.358	50.293	44	36
46.789	47.675	68	39
46.789	47.198	73	39
46.793	47.675	53	33
46.793	47.678	59	33
46.793	47.199	61	39
47.2019	47.678	63	40
47.203	47.679	75	40
47.682	48.371	70	48
47.682	48.371	82	48
47.6829	49.6589	77	45
47.6849	49.453	61	33
47.6849	49.449	65	33
47.686	49.453	59	33
48.375	49.6639	68	46
48.375	49.663	80	46
49.6639	50.706	65	44
49.6659	50.706	77	44
50.293	52.8999	46	39
50.707	54.7339	65	32
50.709	52.207	63	40
50.709	53.585	70	32
50.709	51.083	75	40
50.71	54.7349	53	32
50.7129	54.7369	58	32
51.084	51.493	77	37
51.497	52.2109	75	33
52.212	53.5859	73	37
52.214	54.738	61	37
53.587	54.738	70	33
54.738	57.1839	27	36
54.7409	57.1839	39	36
55.3779	56.4179	82	37
55.3789	57.1879	77	37
55.3809	57.1879	89	40
55.3819	56.4209	66	38
55.3819	56.4209	70	38
55.3849	57.1879	65	38
56.4219	56.8029	82	36
56.4219	56.7989	87	39
56.4249	56.8029	75	36
56.4259	56.8059	63	37
56.4259	56.8059	66	37
56.4279	56.8059	70	37
56.8069	57.1889	82	36
56.8099	57.1569	63	37
56.8099	57.1559	75	36
56.8099	57.1559	87	39
56.8109	57.1909	66	37
56.8129	57.1909	70	37
57.1909	57.5789	75	38
57.1919	57.5799	87	41
57.1949	57.5829	63	38
57.1949	57.5839	66	38
57.1949	57.5799	82	38
57.1979	57.5839	70	38
57.5839	57.9609	82	37
57.5869	57.9649	61	37
57.5869	57.9639	73	37
57.5869	57.9649	85	40
57.5909	57.9679	66	37
57.5909	57.9689	70	37
57.9689	58.3109	73	37
57.9689	58.3119	85	40
57.9709	58.3119	61	37
57.9709	58.3119	82	37
57.9719	58.3139	66	37
57.9719	58.3149	70	37
58.3459	58.7419	73	38
58.3459	58.7419	85	41
58.3469	58.7429	82	38
58.3499	58.7429	61	40
58.3499	58.7449	66	40
58.3509	58.7449	70	40
58.7459	59.1229	78	36
58.7459	59.1219	82	36
58.7489	59.1229	72	36
58.7489	59.1259	84	39
58.7499	59.1269	60	38
58.7499	59.1269	66	38
58.7519	59.1279	70	38
59.1299	59.4699	72	36
59.1299	59.4729	82	36
59.1339	59.4769	60	38
59.1339	59.4729	78	36
59.1339	59.4729	84	39
59.1349	59.4769	66	38
59.1369	59.4769	70	38
59.5019	60.1029	72	36
59.5019	60.1069	82	36
59.5019	60.1029	84	39
59.5029	60.1069	78	36
59.5049	60.1069	60	37
59.5049	60.1079	66	37
59.5049	60.1099	70	37
60.1099	60.7819	82	33
60.1139	60.7859	61	36
60.1139	60.7829	73	33
60.1139	60.7859	85	36
60.1149	60.7859	66	36
60.1169	60.7899	70	36
60.7899	62.1749	70	33
60.7929	62.1789	78	33
60.7929	62.1789	82	36
60.7939	62.1789	58	34
60.7969	62.1829	61	34
60.7969	62.1829	66	34
62.1829	64.6079	46	36
62.1849	64.6079	27	36
62.1859	64.6109	39	36
62.8189	63.8659	82	46
62.8229	63.8669	70	40
62.8229	64.2379	77	46
62.8229	64.2369	89	48
62.8269	64.2379	65	40
62.8269	63.8669	66	40
63.8689	64.2399	78	40
63.8699	64.2409	82	40
63.8699	64.2399	90	42
63.8729	64.2439	66	40
63.8729	64.2439	75	40
63.8739	64.2469	70	40
64.2469	64.6109	82	37
64.2479	64.6149	77	37
64.2479	64.6119	89	38
64.2509	64.6159	65	38
64.2509	64.6159	66	38
64.2519	64.6179	70	38
64.6179	64.9579	87	40
64.6189	64.9579	75	39
64.6219	64.9609	63	39
64.6219	64.9609	66	39
64.6219	64.9589	82	39
64.6229	64.9609	70	39
64.9849	65.3559	77	38
64.9859	65.3569	89	39
64.9899	65.3609	65	38
64.9899	65.3609	66	38
64.9899	65.3599	82	38
64.9909	65.3639	70	38
65.3639	65.7269	82	38
65.3639	65.7279	87	39
65.3679	65.7319	63	38
65.3679	65.7319	66	38
65.3679	65.7309	75	38
65.3689	65.7339	70	38
65.7349	66.0839	82	39
65.7349	66.0809	85	40
65.7379	66.0849	73	39
65.7389	66.0849	61	42
65.7409	66.0879	66	42
65.7419	66.0889	70	42
66.1189	66.5009	82	37
66.1199	66.5049	63	39
66.1199	66.5009	75	37
66.1199	66.5019	87	38
66.1229	66.5049	66	39
66.1229	66.5059	70	39
66.5079	66.8479	73	37
66.5089	66.8479	82	37
66.5089	66.8509	85	38
66.5119	66.8509	61	39
66.5129	66.8549	66	39
66.5129	66.8549	70	39
66.8789	67.4319	72	37
66.8789	67.4289	82	37
66.8799	67.4329	84	38
66.8829	67.4809	60	38
66.8829	67.4849	66	38
66.8839	67.4849	70	38
67.4329	67.4859	87	43
67.4859	68.1639	85	37
67.4879	68.1639	73	34
67.4889	68.1649	61	37
67.4889	68.1649	82	34
67.4919	68.1669	66	37
67.4919	68.1669	70	37
68.1679	70.0358	70	33
68.1679	70.0368	78	33
68.1709	69.4828	58	36
68.1709	69.4869	63	36
68.1709	70.0368	82	35
68.1718	69.4869	66	36
69.4869	71.6038	32	42
69.4898	71.6048	44	42
70.0398	70.5538	78	51
70.0408	70.5548	66	49
70.0428	70.5548	54	48
70.5578	71.0718	68	45
70.5578	71.0688	75	45
70.5578	71.0718	80	47
70.5588	71.6048	63	39
70.5618	71.0758	56	45
70.5618	71.0728	60	39
71.0758	71.6068	72	49
71.0768	71.6078	84	51
71.0788	71.6078	60	50
71.6078	72.1498	70	46
71.6108	72.1508	82	48
71.6118	72.1528	66	40
71.6118	72.1508	78	46
71.6138	72.6928	63	40
71.6148	72.1538	58	46
72.1538	72.6958	66	44
72.1568	72.6998	78	46
72.1578	72.6998	54	44
72.7008	74.7158	33	42
72.7008	74.7158	45	42
73.0598	73.4038	66	36
73.0598	73.4068	75	36
73.0608	73.4068	78	39
73.0638	73.4098	60	36
73.0638	73.4078	63	36
73.0638	73.4068	72	36
73.0668	73.4108	54	36
73.4038	73.7248	66	36
73.4068	73.7258	72	36
73.4068	73.7218	75	36
73.4068	73.7248	78	39
73.4078	73.7288	63	36
73.4098	73.7288	60	36
73.4108	73.7288	54	36
73.7218	74.0618	75	39
73.7248	74.0648	66	39
73.7248	74.0628	78	42
73.7258	74.0618	72	39
73.7288	74.0688	54	39
73.7288	74.0648	60	39
73.7288	74.0648	63	39
74.0618	74.3518	72	37
74.0618	74.3518	75	37
74.0628	74.3528	78	40
74.0648	74.3548	60	37
74.0648	74.3548	63	37
74.0648	74.3528	66	37
74.0688	74.3548	54	37
74.3728	74.7198	72	40
74.3728	74.7168	80	44
74.3738	74.7198	68	40
74.3758	74.7228	56	40
74.3758	74.7208	75	40
74.3768	74.7228	60	40
74.3768	74.7228	63	40
74.7268	75.7488	66	39
74.7268	75.7488	78	42
74.7278	75.7488	72	39
74.7278	75.7508	75	39
74.7298	75.7518	54	39
74.7298	75.7518	60	39
74.7308	75.7548	63	39
75.7558	77.8028	34	46
75.7558	77.8058	46	46
76.2768	76.7798	66	49
76.2768	76.7838	78	53
76.2778	77.2848	73	45
76.2798	77.2878	58	45
76.2798	77.2878	61	45
76.2808	76.7848	54	48
76.7848	77.2888	68	55
76.7858	77.2918	80	60
76.7868	77.2918	56	54
77.2928	77.8058	85	60
77.2948	77.8068	61	52
77.2948	77.8068	73	55
77.8098	78.3388	70	52
77.8108	78.3388	78	52
77.8108	78.3388	82	57
77.8128	78.3418	66	51
77.8138	78.3418	58	51
77.8138	78.8698	61	51
78.3418	78.8738	78	52
78.3428	78.8748	66	48
78.3458	78.8748	54	49
78.8768	80.8407	36	45
78.8768	80.8407	48	45
79.2198	79.5538	66	39
79.2198	79.5528	70	39
79.2208	79.5538	75	39
79.2238	79.5558	63	39
79.2238	79.5558	78	42
79.2248	79.5558	58	39
79.2268	79.5568	54	39
79.5528	79.8638	70	39
79.5538	79.8678	66	39
79.5538	79.8678	75	39
79.5558	79.8708	58	39
79.5558	79.8678	63	39
79.5558	79.8648	78	42
79.5568	79.8708	54	39
79.8638	80.1978	70	42
79.8648	80.1998	78	46
79.8678	80.1998	63	42
79.8678	80.1968	66	42
79.8678	80.1978	75	42
79.8708	80.2037	54	42
79.8708	80.2008	58	42
80.1968	80.4797	66	40
80.1978	80.4807	70	40
80.1978	80.4807	75	40
80.1998	80.4837	63	40
80.1998	80.4807	78	44
80.2008	80.4847	58	40
80.2037	80.4847	54	40
80.5077	80.8417	68	43
80.5077	80.8417	72	43
80.5087	80.8437	80	47
80.5117	80.8437	56	43
80.5117	80.8447	60	43
80.5117	80.8437	77	43
80.5148	80.8477	65	43
80.8477	81.8457	70	42
80.8487	81.8457	75	42
80.8507	81.8487	66	42
80.8507	81.8467	78	46
80.8517	81.8487	54	42
80.8547	81.8487	58	42
80.8547	81.8497	63	42
81.8527	83.8887	37	51
81.8527	83.8897	49	51
82.3697	82.8807	78	61
82.3737	83.3817	73	49
82.3747	83.3827	70	49
82.3767	83.3827	61	49
82.3767	82.8817	66	54
82.3777	82.8847	54	52
82.3777	83.3847	58	49
82.8877	83.3847	68	61
82.8887	83.3887	56	58
82.8887	83.3857	80	70
83.3917	83.8907	75	62
83.3917	83.8897	87	71
83.3927	83.8917	63	61
83.8927	84.4207	73	57
83.8927	84.9567	78	49
83.8937	84.4207	82	49
83.8957	84.4247	85	65
83.8967	84.4247	61	56
83.8967	84.9577	66	56
83.8967	84.4247	70	56
84.4257	84.9577	70	57
84.4287	84.9597	58	58
84.4287	84.9577	82	65
84.9597	86.9307	39	49
84.9607	86.9317	51	49
85.3027	85.6287	82	50
85.3037	85.6297	70	48
85.3067	85.6327	63	48
85.3067	85.6317	78	48
85.3077	85.6357	54	48
85.3077	85.6327	58	48
85.6357	85.9367	82	50
85.6367	85.9377	78	48
85.6387	85.9377	63	48
85.6387	85.9467	70	48
85.6397	85.9397	54	48
85.6397	85.9397	58	48
85.9467	86.2727	82	53
85.9507	86.2737	70	51
85.9507	86.2757	78	51
85.9517	86.2767	63	51
85.9537	86.2797	54	51
85.9537	86.2767	58	51
86.2797	86.5697	70	49
86.2807	86.5707	82	51
86.2827	86.5707	63	49
86.2827	86.5707	78	49
86.2837	86.5737	54	49
86.2837	86.5737	58	49
86.5907	86.9317	80	50
86.5917	86.9317	72	50
86.5947	86.9337	56	50
86.5947	86.9337	84	52
86.5957	86.9347	60	50
86.5977	86.9347	65	50
86.9377	87.2487	70	50
86.9377	87.2457	78	50
86.9387	87.2497	82	52
86.9407	87.2527	58	50
86.9407	87.2527	63	50
86.9417	87.2537	54	50
87.2767	87.6097	73	51
87.2767	87.6057	82	51
87.2807	87.6107	61	51
87.2807	87.6107	85	53
87.2817	87.6127	66	51
87.2817	87.6137	70	51
87.6137	87.7807	87	57
87.6167	87.7817	75	55
87.6167	87.7837	82	55
87.6177	87.7847	63	54
87.6177	87.7847	66	54
87.6197	87.7877	70	54
87.7887	89.8567	65	38
87.8267	89.8577	68	39
87.8757	89.8577	73	40
87.9207	89.8577	77	42
87.9667	89.8597	80	51
88.0127	89.8597	85	56
88.0617	89.8607	92	65
89.8607	90.9806	64	33
89.8947	90.9806	68	34
89.9337	90.9836	70	34
89.9757	90.9836	73	36
90.0176	90.9836	76	37
90.0516	90.9846	80	45
90.0946	90.9876	85	50
90.1326	90.9876	92	55
90.9876	93.0766	63	33
91.0246	93.0776	66	34
91.0746	93.0776	68	34
91.1126	93.0796	73	36
91.1616	93.0796	75	37
91.2077	93.0806	80	45
91.2466	93.0836	85	50
91.2916	93.0836	92	55
93.0846	94.8816	56	27
93.1566	94.8826	63	28
93.2446	94.8826	66	30
93.3316	94.8856	72	31
93.4266	94.8866	68	32
93.5246	94.8866	75	33
93.6216	94.8876	80	39
94.8896	95.9076	37	32
94.8896	96.7776	65	37
94.8896	96.9576	68	40
95.0536	95.9076	44	30
95.2256	95.9076	49	30
95.4016	95.9076	53	30
95.5686	95.9076	56	30
95.7436	95.9216	61	30
95.9226	96.9646	41	33
96.0936	96.9646	48	26
96.2656	96.9646	53	27
96.4336	96.9646	56	28
96.6056	96.9646	60	30
96.7776	96.9646	65	31
96.9576	97.8436	68	36
96.9586	98.0506	44	34
96.9586	98.0506	71	39
97.1266	98.0506	52	32
97.3046	98.0506	56	32
97.4796	98.0506	59	32
97.6476	98.0506	73	37
97.6486	98.0506	64	32
97.8436	98.0506	68	32
98.0476	99.9055	65	37
98.0506	99.0875	37	33
98.0506	100.084	68	40
98.2146	99.0875	44	30
98.3865	99.0875	49	30
98.5615	99.0875	53	30
98.7325	99.0875	56	30
98.9045	99.0875	61	30
99.0865	100.067	41	33
99.2465	100.067	48	30
99.4085	100.067	53	30
99.5755	100.067	56	31
99.7375	100.067	60	32
99.9055	100.084	65	32
100.084	100.739	68	37
100.085	101.057	71	40
100.088	101.057	44	34
100.245	101.057	52	32
100.41	101.057	56	32
100.574	101.057	59	32
100.739	101.057	68	40
100.889	101.057	64	32
101.054	101.974	65	42
101.057	101.974	37	33
101.057	101.974	73	46
101.212	101.974	44	33
101.376	101.974	49	33
101.53	101.974	53	33
101.691	102.006	68	40
101.691	102.006	75	44
101.692	101.974	56	33
101.842	102.007	61	33
102.009	102.933	73	44
102.009	102.94	77	48
102.01	102.314	65	34
102.157	102.94	68	34
102.314	102.931	65	34
102.465	102.94	61	34
102.622	102.934	56	34
102.776	102.94	53	36
102.931	103.904	65	43
102.933	103.57	73	47
102.934	103.904	56	36
103.091	103.904	53	36
103.248	103.571	49	36
103.41	103.728	44	36
103.57	103.904	73	44
103.571	103.904	49	36
103.571	103.904	77	48
103.728	103.904	44	37
103.903	104.809	75	49
103.903	104.809	79	53
103.904	104.809	39	37
104.054	104.809	46	37
104.215	104.809	51	37
104.215	104.522	73	43
104.215	104.809	77	47
104.362	104.809	55	37
104.522	104.826	73	47
104.523	104.809	58	37
104.523	104.826	70	43
104.665	104.827	63	37
104.83	105.761	70	39
104.831	105.761	67	39
104.831	105.761	73	42
104.977	105.761	63	36
105.135	105.761	65	36
105.138	105.761	58	36
105.285	105.761	55	34
105.436	105.754	61	34
105.439	105.761	51	34
105.593	105.761	46	34
105.754	106.693	61	38
105.755	106.693	39	33
105.901	106.521	46	33
106.056	106.364	51	33
106.209	106.693	58	36
106.213	106.693	55	33
106.364	106.693	51	33
106.521	106.693	46	33
106.692	108.477	70	52
106.693	107.587	44	37
106.836	107.587	51	33
106.987	107.587	54	33
107.133	107.587	58	33
107.276	107.587	60	33
107.427	107.587	66	33
107.585	108.477	42	38
107.727	108.439	49	32
107.875	108.439	54	33
108.026	108.439	58	34
108.169	108.439	61	34
108.32	108.478	66	36
108.481	109.408	41	40
108.481	109.408	72	51
108.62	109.408	48	36
108.775	109.408	53	37
108.926	109.408	56	38
109.084	109.408	77	56
109.086	109.408	60	39
109.086	109.408	68	38
109.233	109.408	65	38
109.422	111.2	70	52
109.426	110.318	44	37
109.576	110.272	51	33
109.721	110.272	54	33
109.871	110.272	58	33
110.017	110.272	60	33
110.168	110.319	66	34
110.319	111.201	42	39
110.468	111.12	49	34
110.615	111.12	54	37
110.759	111.12	58	38
110.903	111.12	61	38
111.05	111.201	66	39
111.203	112.096	72	56
111.204	112.109	41	44
111.351	112.096	48	39
111.498	112.096	53	40
111.641	112.096	56	43
111.788	112.11	77	60
111.789	112.113	60	44
111.795	112.096	68	38
111.942	112.099	65	38
112.093	112.982	39	45
112.093	113.415	78	64
112.239	112.911	46	40
112.39	112.911	51	40
112.537	112.911	54	40
112.684	112.911	58	40
112.839	112.982	63	40
112.985	113.125	66	60
113.129	113.42	66	46
113.272	113.42	70	46
113.42	113.853	77	58
113.423	113.854	65	58
113.559	113.705	66	46
113.706	113.854	70	46
113.856	114.287	74	58
113.857	114.291	62	57
113.997	114.143	66	46
114.144	114.292	70	46
114.292	114.715	75	60
114.294	114.715	63	58
114.427	114.574	66	49
114.575	114.715	70	49
114.716	115.417	82	67
114.717	115.558	62	55
114.85	115.558	66	43
114.991	115.137	70	43
115.137	115.558	70	43
115.274	115.558	78	43
115.417	116.265	82	43
115.554	116.356	63	50
115.698	116.356	66	38
115.838	115.979	70	38
115.979	116.356	70	38
116.118	116.356	78	38
116.265	116.408	82	38
116.409	117.318	60	44
116.409	117.154	80	51
116.411	117.318	56	44
116.552	117.318	64	37
116.699	117.318	68	36
116.846	117.318	72	34
116.993	117.318	76	34
117.154	117.315	80	33
117.315	118.922	77	51
117.315	119.068	80	51
117.316	118.211	49	43
117.469	118.208	56	37
117.623	118.211	61	37
117.773	118.211	65	37
117.917	118.211	68	37
118.061	118.211	73	37
118.208	119.061	56	46
118.211	119.069	53	46
118.348	119.061	60	38
118.491	119.061	65	40
118.638	119.061	68	42
118.775	119.061	72	44
118.922	119.069	77	46
119.069	119.793	80	57
119.07	119.954	83	57
119.071	119.954	59	50
119.072	119.954	56	50
119.205	119.954	64	43
119.345	119.954	68	43
119.488	119.954	71	43
119.637	119.954	85	60
119.639	119.954	76	43
119.793	119.953	80	43
119.952	121.522	77	57
119.953	121.665	80	57
119.954	120.811	49	48
120.094	120.809	56	43
120.234	120.811	61	43
120.38	120.811	65	43
120.524	120.811	68	43
120.665	120.811	73	43
120.809	121.644	56	51
120.811	121.668	53	51
120.954	121.644	60	40
121.092	121.644	65	42
121.239	121.644	68	43
121.385	121.644	72	44
121.522	121.669	77	45
121.669	122.397	83	62
121.672	122.397	59	54
121.672	122.209	80	62
121.673	122.46	56	54
121.805	122.397	64	45
121.939	122.397	68	45
122.075	122.397	71	45
122.209	122.463	80	70
122.334	122.463	76	45
122.463	123.24	85	87
122.467	123.24	59	52
122.467	123.234	61	52
122.597	123.234	64	50
122.722	123.24	68	50
122.859	123.24	73	51
122.86	123.24	71	50
122.986	123.24	80	73
123.107	123.24	76	51
123.234	123.954	61	52
123.234	123.954	64	52
123.234	123.965	88	86
123.352	123.954	68	50
123.479	123.954	71	50
123.601	123.966	73	50
123.601	123.954	76	54
123.727	123.966	85	70
123.842	123.968	80	54
123.968	124.707	92	90
123.972	124.714	64	55
123.973	124.708	68	55
124.087	124.714	71	52
124.21	124.714	73	52
124.339	124.714	80	56
124.34	124.714	76	52
124.459	124.714	88	70
124.573	124.714	83	56
124.707	125.448	92	92
124.708	125.438	68	57
124.829	125.438	69	54
124.955	125.438	73	54
125.078	125.438	80	56
125.204	125.438	85	56
125.326	125.452	81	56
125.452	126.944	90	91
125.454	126.169	66	56
125.57	126.169	69	52
125.697	126.169	73	52
125.824	126.169	78	52
125.947	126.169	85	52
126.069	126.194	81	52
126.195	126.947	66	56
126.197	126.947	65	56
126.317	126.947	69	52
126.44	126.947	73	52
126.569	126.947	78	52
126.688	126.947	85	52
126.814	126.947	81	52
126.944	128.423	90	91
126.947	127.605	64	56
127.066	127.605	66	52
127.189	127.605	69	52
127.315	127.605	78	52
127.437	127.605	85	52
127.559	127.685	81	52
127.689	128.354	63	56
127.689	128.354	66	56
127.808	128.354	69	52
127.934	128.354	73	52
128.053	128.354	78	52
128.176	128.354	85	52
128.301	128.424	81	52
128.427	129.195	93	91
128.428	129.195	61	56
128.428	129.195	64	56
128.551	129.195	69	52
128.673	129.195	73	52
128.803	129.195	76	52
128.931	129.195	97	91
129.064	129.195	85	52
129.191	130.667	78	82
129.194	129.911	59	56
129.317	129.911	63	52
129.439	129.562	66	52
129.562	129.911	66	52
129.684	129.911	73	52
129.811	129.933	69	52
129.933	130.656	57	56
130.054	130.656	61	52
130.177	130.656	64	52
130.307	130.656	66	52
130.43	130.656	73	52
130.548	130.67	69	52
130.671	131.315	81	84
130.675	131.374	56	56
130.797	131.374	61	52
130.927	131.374	64	52
131.053	131.374	69	52
131.176	131.374	76	52
131.178	131.455	85	79
131.315	131.455	81	52
131.456	131.731	88	79
131.458	133.841	54	56
131.458	131.735	85	79
131.592	131.735	61	43
131.736	132.012	83	69
131.736	132.011	87	69
131.738	131.871	64	45
131.875	132.012	66	46
132.014	132.287	85	69
132.015	132.151	69	49
132.015	132.288	81	69
132.151	132.292	73	50
132.292	132.729	80	74
132.295	132.435	76	50
132.295	132.732	83	74
132.436	132.578	78	50
132.579	132.733	76	49
132.736	133.424	78	67
132.737	132.876	73	48
132.737	133.428	81	67
132.876	133.015	69	46
133.017	133.148	66	46
133.148	133.287	64	43
133.288	133.428	66	42
133.429	133.701	80	60
133.431	133.702	76	60
133.432	133.565	64	40
133.568	133.702	61	39
133.702	133.977	78	60
133.704	133.841	57	38
133.704	133.978	75	60
133.842	133.978	54	37
133.981	134.253	73	62
133.982	134.258	76	62
133.984	134.117	42	43
134.117	134.26	49	38
134.261	134.541	71	58
134.261	134.54	75	58
134.262	134.394	52	39
134.397	134.544	54	40
134.545	134.821	69	56
134.545	134.821	73	56
134.546	134.681	57	42
134.682	134.822	61	43
134.825	135.115	68	57
134.825	135.115	71	57
134.826	134.964	64	42
134.965	135.119	61	42
135.119	135.412	66	52
135.122	135.265	57	40
135.122	135.412	69	52
135.266	135.413	54	40
135.416	135.977	64	49
135.416	135.976	68	49
135.417	135.552	52	39
135.553	135.696	49	38
135.696	136.567	57	46
135.697	135.836	42	37
135.836	135.977	49	34
135.977	136.259	66	43
135.979	136.26	63	43
135.98	136.12	42	37
136.12	136.26	49	34
136.263	136.568	61	40
136.264	136.417	42	37
136.264	136.568	64	40
136.417	136.571	49	34
136.571	138.173	61	37
136.572	138.464	63	40
136.574	137.61	54	37
136.575	136.904	44	32
136.736	137.072	51	31
136.904	137.243	44	33
137.072	137.404	51	31
137.24	137.61	56	36
137.243	137.569	44	33
137.404	137.61	51	32
137.568	138.453	58	38
137.569	137.869	44	34
137.719	138.016	51	32
137.869	138.174	44	34
138.016	138.321	51	34
138.173	138.465	61	37
138.174	138.453	44	36
138.321	138.468	51	34
138.468	139.067	66	44
138.472	138.769	44	33
138.472	139.392	60	37
138.472	139.067	63	37
138.615	138.919	51	31
138.769	139.07	44	33
138.919	139.227	51	31
139.067	139.389	63	40
139.067	139.392	66	37
139.07	139.392	44	33
139.07	139.392	70	44
139.227	139.392	51	31
139.389	140.96	61	37
139.389	141.25	63	40
139.39	140.382	54	37
139.392	139.707	44	32
139.547	139.871	51	31
139.707	140.036	44	33
139.871	140.197	51	31
140.036	140.355	44	33
140.036	140.382	56	34
140.197	140.382	51	32
140.355	140.655	44	34
140.355	141.212	58	38
140.505	140.807	51	32
140.655	140.96	44	34
140.807	141.1	51	33
140.96	141.212	44	36
140.96	141.25	61	37
141.1	141.254	51	34
141.254	141.853	66	40
141.257	142.164	60	37
141.258	141.555	44	33
141.258	141.852	63	37
141.405	141.706	51	31
141.555	141.857	44	33
141.706	142.007	51	31
141.852	142.164	63	36
141.853	142.762	66	36
141.856	142.76	70	39
141.857	142.161	44	33
142.007	142.164	51	31
142.16	143.003	61	34
142.161	142.469	44	37
142.311	143.003	39	33
142.465	143.003	68	39
142.466	143.003	77	42
142.468	143.003	72	39
142.469	142.763	44	37
142.609	142.903	51	36
142.76	143.049	70	38
142.76	143.053	75	41
142.762	143.053	66	38
142.763	143.003	44	37
142.903	143.056	51	36
143.057	143.646	61	36
143.057	143.932	66	36
143.058	143.935	70	39
143.06	143.351	56	39
143.197	143.789	51	34
143.347	143.847	58	34
143.351	143.648	56	37
143.494	143.847	63	34
143.646	143.935	61	34
143.648	143.847	56	36
143.789	143.939	51	34
143.939	144.813	58	31
143.939	144.813	68	36
143.94	144.807	66	33
143.942	144.813	56	37
144.079	144.377	51	34
144.23	144.813	60	34
144.233	144.523	44	34
144.377	144.813	51	33
144.523	144.811	44	34
144.523	144.813	63	34
144.667	144.813	39	33
144.807	145.388	66	34
144.81	145.392	70	34
144.811	145.105	44	37
144.811	145.646	61	34
144.957	145.646	39	33
145.1	145.646	68	39
145.104	145.646	72	39
145.104	145.646	77	42
145.105	145.394	44	37
145.248	145.531	51	36
145.388	145.674	66	38
145.391	145.675	75	41
145.392	145.678	70	38
145.394	145.646	44	37
145.531	145.679	51	36
145.679	146.564	66	36
145.681	146.564	70	39
145.682	145.982	56	39
145.682	146.273	61	36
145.825	146.417	51	34
145.98	146.542	58	34
145.982	146.277	56	37
146.13	146.542	63	34
146.273	146.565	61	34
146.277	146.542	56	36
146.417	146.567	51	34
146.567	147.482	58	31
146.567	147.482	68	36
146.571	146.868	56	37
146.571	147.482	66	33
146.715	147.011	51	37
146.867	147.482	60	34
146.868	147.166	56	34
147.011	147.313	51	33
147.163	147.482	63	34
147.166	147.482	56	34
147.313	147.482	51	33
147.481	148.401	54	40
147.481	149.011	61	40
147.481	149.304	75	48
147.631	148.248	63	32
147.789	148.1	66	34
147.94	148.401	70	32
148.1	148.401	56	39
148.1	148.401	66	34
148.248	148.401	63	32
148.399	149.286	58	42
148.547	149.161	63	32
148.698	149.01	66	36
148.856	149.286	70	32
149.01	149.286	66	36
149.011	149.305	61	40
149.161	149.305	63	32
149.307	150.267	78	53
149.308	150.267	60	40
149.458	150.267	63	30
149.619	150.267	66	30
149.773	150.267	70	30
149.934	150.267	82	50
149.935	150.267	72	30
150.095	150.264	75	32
150.264	152.223	75	48
150.266	151.852	61	40
150.267	151.19	54	40
150.417	151.047	63	32
150.575	150.89	66	34
150.732	151.19	70	32
150.89	151.19	66	34
150.891	151.194	56	39
151.047	151.195	63	32
151.197	152.223	58	42
151.359	152.02	63	32
151.524	151.849	66	36
151.684	152.223	70	32
151.849	152.223	66	36
151.852	152.223	61	40
152.02	152.223	63	32
152.198	153.274	78	53
152.199	153.274	60	40
152.363	153.274	63	30
152.532	153.273	66	30
152.699	153.274	70	30
152.871	153.274	72	32
152.871	153.274	82	52
153.067	153.274	75	32
153.273	154.211	66	44
153.273	157.987	87	52
153.43	154.25	70	37
153.588	154.25	73	37
153.746	154.25	75	36
153.903	154.25	78	33
154.057	154.25	82	32
154.211	155.142	66	36
154.371	155.131	70	32
154.522	155.131	73	32
154.68	155.131	75	36
154.834	155.131	78	33
154.988	155.143	84	32
155.145	156.084	66	37
155.3	156.087	70	31
155.458	156.087	73	31
155.615	156.087	75	33
155.773	156.087	78	32
155.926	156.087	82	31
156.084	157.057	66	39
156.252	156.99	69	30
156.417	156.99	73	30
156.57	156.99	75	32
156.735	156.99	78	31
156.896	157.987	81	31
157.056	158.05	85	52
157.057	158.051	66	34
157.221	157.987	69	30
157.386	157.987	73	28
157.554	157.987	75	31
157.715	157.987	78	30
157.883	158.051	83	28
158.054	159.245	87	52
158.055	159.245	66	34
158.219	159.245	69	28
158.401	159.245	73	28
158.586	159.245	75	28
158.779	159.245	78	28
158.975	159.245	81	27
159.245	161.883	65	32
159.489	160.721	68	32
159.707	160.721	72	32
159.91	160.721	77	32
160.102	160.721	80	32
160.281	160.721	84	32
160.547	161.884	89	38
160.55	161.884	92	38
161.886	164.005	89	39
161.887	163.22	65	29
163.221	165.663	65	30
163.423	164.456	69	30
163.62	164.4	84	33
163.623	164.456	72	29
163.623	164.4	87	36
163.812	164.456	75	28
164.005	164.456	89	31
164.008	164.456	77	27
164.008	164.456	85	29
164.194	164.456	81	27
164.4	167.697	84	27
164.4	167.697	87	29
165.663	166.927	65	28
166.93	169.412	65	29
167.122	168.109	68	29
167.319	168.088	82	36
167.322	168.109	70	28
167.322	168.086	85	39
167.509	168.109	73	28
167.697	168.109	84	30
167.697	168.109	87	33
167.698	168.109	77	27
167.893	168.109	80	27
168.086	168.759	85	30
168.088	170.066	82	28
168.758	170.567	89	41
168.759	170.063	85	38
169.412	170.706	65	28
170.063	171.471	85	36
170.066	171.47	82	33
170.707	173.122	63	28
170.91	173.951	66	28
171.106	171.855	84	30
171.107	173.951	68	26
171.107	171.855	80	28
171.288	173.951	72	25
171.47	173.951	82	27
171.471	173.951	85	29
171.473	173.951	75	25
171.659	173.951	78	23
171.855	174.389	80	24
171.855	174.385	84	26
173.122	174.389	63	27
174.39	176.685	61	32
174.577	175.443	63	32
174.77	175.443	78	35
174.774	175.443	66	32
174.774	175.443	82	38
174.957	175.443	70	32
175.145	175.522	84	35
175.146	175.526	80	32
175.149	175.443	73	32
175.334	175.527	75	32
175.527	175.929	82	35
175.53	176.688	78	29
175.932	176.349	87	38
176.31	176.688	82	36
176.311	177.836	60	24
176.405	177.837	63	24
176.506	177.837	65	24
176.597	177.839	68	24
176.689	178.578	77	29
176.689	177.074	80	39
176.692	178.879	72	24
177.074	177.444	82	36
177.448	178.575	80	35
177.84	180.121	48	30
178.018	178.879	54	30
178.211	178.879	78	33
178.212	178.879	58	29
178.212	178.879	75	30
178.386	178.879	60	29
178.575	178.942	80	31
178.578	178.879	63	28
178.578	178.946	77	29
178.761	178.946	66	28
178.947	180.122	78	31
178.949	180.125	70	29
178.949	180.122	75	29
180.126	181.302	69	32
180.128	181.687	77	33
180.129	182.351	53	29
180.129	181.302	60	29
180.129	181.302	63	29
181.305	183.621	56	30
181.49	182.351	58	28
181.687	182.351	73	34
181.687	182.351	77	37
181.69	182.351	61	28
181.875	182.351	65	27
182.065	182.442	75	33
182.066	182.446	78	36
182.067	182.351	68	27
182.254	182.447	70	27
182.449	183.241	77	36
182.45	183.622	73	29
182.852	183.261	82	38
183.241	183.622	77	36
183.338	184.752	54	27
183.436	184.756	58	27
183.531	184.757	61	27
183.626	184.759	73	28
183.626	183.989	75	37
183.628	184.759	63	27
183.99	184.36	77	36
184.361	185.495	75	36
184.76	187.076	53	29
184.942	185.774	56	29
185.128	185.774	73	33
185.13	185.774	58	28
185.13	185.774	70	30
185.306	185.774	61	28
185.495	185.868	75	31
185.498	185.774	65	27
185.498	185.872	72	29
185.68	185.873	68	27
185.873	187.076	73	31
185.874	187.077	70	29
187.08	188.844	68	24
187.08	188.84	72	26
187.081	188.676	51	32
187.083	188.844	54	32
187.083	188.844	60	32
187.822	192.742	44	32
188.847	192.742	37	28
189.313	192.742	53	26
189.313	192.742	56	26
189.733	193.212	65	33
189.733	193.215	68	33
190.342	192.742	80	36
190.346	191.802	77	36
190.349	193.216	59	33
191.801	193.646	73	33
191.802	193.65	77	33
193.216	195.858	42	31
193.219	193.65	49	31
193.653	197.167	70	25
193.653	194.066	75	39
193.654	197.168	61	25
193.654	197.167	66	25
193.656	197.171	58	25
193.657	197.171	49	25
193.657	197.171	54	25
194.067	194.524	77	34
194.524	197.629	75	29
197.172	199.911	44	33
197.63	198.563	68	36
197.632	198.066	61	36
197.633	198.564	53	31
197.633	198.067	73	36
197.636	198.566	56	31
198.067	198.567	75	37
198.07	198.567	63	37
198.571	199.912	68	37
198.571	199.914	80	37
198.572	199.915	77	37
198.574	201.258	59	31
198.574	199.918	61	31
198.574	199.915	65	31
199.919	201.259	73	33
199.919	201.693	77	33
199.921	201.262	65	33
199.922	201.263	61	30
201.263	203.918	46	31
201.693	205.347	65	25
201.696	205.347	70	25
201.696	202.113	75	39
201.7	205.348	53	25
201.7	205.347	58	25
201.7	203.919	63	25
202.113	202.567	77	34
202.571	203.919	75	29
203.919	205.35	73	29
203.922	205.35	61	30
205.35	209.693	41	34
205.826	206.442	61	37
205.829	206.901	56	33
206.306	206.901	63	40
206.904	208.293	65	33
206.904	208.297	70	37
206.905	208.297	61	33
208.297	209.694	56	27
208.298	209.694	61	27
208.3	209.697	65	31
209.697	212.665	39	34
210.18	211.247	58	33
210.184	211.252	61	33
210.184	211.146	66	37
210.657	211.252	68	40
211.254	212.666	66	29
211.255	212.666	70	29
211.255	212.668	73	33
211.256	212.668	51	25
212.672	214.083	70	29
212.673	214.083	61	26
212.673	214.086	63	26
212.673	214.086	66	26
214.086	217.204	44	34
214.576	215.644	60	35
214.577	215.644	66	35
214.577	215.468	70	35
214.814	215.645	51	31
215.052	215.647	72	37
215.647	217.205	72	29
215.648	217.205	77	29
215.651	217.208	68	29
215.651	217.209	80	25
217.209	218.843	60	25
217.211	218.843	68	25
217.212	218.844	66	25
217.215	218.846	56	25
218.847	220.253	37	31
219.14	220.19	44	27
219.372	220.19	49	26
219.599	220.19	53	26
219.819	220.19	56	25
220.037	220.253	61	25
220.254	221.499	41	31
220.477	221.383	48	28
220.695	221.383	53	27
220.904	221.383	56	26
221.108	221.383	60	26
221.304	221.503	65	26
221.504	222.735	37	31
221.726	222.735	44	28
221.934	222.735	49	28
222.134	222.735	53	27
222.339	222.735	56	28
222.535	222.735	61	26
222.732	224.001	41	31
222.955	223.908	48	28
223.169	223.908	53	28
223.372	223.908	56	27
223.568	223.908	60	27
223.771	224.005	65	27
224.005	225.35	68	30
224.006	226.735	44	31
224.006	226.532	71	33
224.23	226.532	52	28
224.439	226.532	56	28
224.649	226.532	59	27
224.863	225.349	64	27
225.094	226.532	66	27
225.346	226.739	73	29
225.349	226.739	64	27
225.35	226.74	68	27
226.742	228.111	49	31
226.998	228.111	56	30
227.226	228.111	61	26
227.453	228.111	65	26
227.673	228.111	68	25
227.88	228.111	73	25
228.094	229.339	53	31
228.317	229.301	60	28
228.531	229.301	65	27
228.741	229.301	68	26
228.944	229.301	72	26
229.14	229.339	77	26
229.34	230.572	49	31
229.563	230.572	56	28
229.767	230.572	61	28
229.973	230.572	65	27
230.173	230.572	68	28
230.372	230.572	73	26
230.571	231.838	53	31
230.795	231.747	60	28
231.002	231.747	65	28
231.208	231.747	68	27
231.405	231.747	72	27
231.607	231.838	77	27
231.839	234.404	83	33
231.842	234.576	80	30
231.843	234.576	56	31
232.065	234.404	59	25
232.276	234.404	64	25
232.487	234.404	68	24
232.7	234.404	71	24
232.93	234.577	76	22
233.175	234.577	85	34
234.579	238.526	56	31
234.579	238.737	80	30
234.579	238.526	83	33
234.796	238.526	59	25
235.003	238.526	64	25
235.213	238.526	68	24
235.427	238.526	71	24
235.661	238.526	76	22
235.909	238.526	85	34
237.306	238.738	44	30
237.306	238.737	88	37
238.738	244.404	89	37
238.74	243.497	37	33
238.74	244.557	92	40
238.996	243.497	44	26
239.266	243.497	49	24
239.532	243.497	53	22
239.794	243.497	56	21
240.06	243.497	61	20
240.326	243.497	65	27
240.883	243.497	68	22
241.436	243.497	73	22
241.995	243.497	77	27
242.556	243.497	80	22
243.137	243.63	85	22
243.63	248.303	61	20
243.71	248.303	68	22
243.801	248.303	73	22
243.934	248.303	77	25
244.088	248.303	80	24
244.242	248.303	85	26
244.404	248.303	89	28
244.557	248.303	92	34
