OnsetTime	OffsetTime	MidiPitch	Velocity
0.517989	0.826	61	53
0.517989	0.826	73	68
0.826993	1.15099	71	62
0.828991	1.15099	59	49
1.15499	2.39999	76	63
1.15599	2.40099	64	50
1.76999	2.40099	68	44
1.77399	2.40399	59	37
1.77399	2.40099	71	44
1.77698	2.40399	52	37
2.40499	2.70799	80	67
2.40699	2.70898	68	52
2.70898	3.01998	83	63
2.70999	3.02398	71	50
3.02398	3.32799	85	69
3.02498	3.32899	73	55
3.32899	3.65298	83	62
3.33098	3.65399	71	49
3.65399	4.90297	80	64
3.65799	4.27697	68	51
4.27398	4.90397	71	44
4.27697	4.90497	52	37
4.27697	4.90397	68	44
4.28098	4.90596	59	37
4.90697	5.21797	64	50
4.90697	5.21398	76	63
5.21897	5.52998	61	48
5.21897	5.52597	73	60
5.53297	5.84098	80	63
5.53398	5.84198	68	50
5.84397	6.16298	78	59
5.84498	6.16398	66	47
6.16398	7.41596	73	62
6.16498	7.41596	61	49
6.78597	7.41696	66	44
6.78996	7.41996	59	37
6.78996	7.41696	69	44
6.79196	7.41996	52	37
7.42095	7.72096	73	61
7.42295	7.72395	61	48
7.72395	8.03596	71	57
7.72795	8.03596	59	41
8.03895	8.35096	66	47
8.03895	8.35096	78	62
8.35096	8.66896	76	57
8.35396	8.66896	64	39
8.67296	9.92897	59	41
8.67296	9.92897	71	58
9.30295	9.93296	64	44
9.30295	9.93296	68	44
9.30396	9.93396	52	37
9.30596	9.93396	56	37
9.93595	10.244	58	48
9.93595	10.241	70	61
10.244	10.563	71	59
10.245	10.563	59	47
10.564	10.871	73	68
10.566	10.871	61	53
10.872	11.189	71	62
10.874	11.189	59	49
11.193	12.4359	64	50
11.193	12.435	76	63
11.808	12.4379	68	44
11.809	12.4379	71	44
11.812	12.442	59	37
11.813	12.442	52	37
12.443	12.75	80	67
12.4449	12.751	68	52
12.751	13.0579	83	63
12.753	13.0589	71	50
13.0589	13.366	85	69
13.0609	13.3669	73	55
13.3669	13.695	83	62
13.368	13.6959	71	49
13.6979	14.9439	80	64
13.6989	14.3119	68	51
14.3119	14.9449	68	44
14.3139	14.9479	71	44
14.3149	14.9489	52	37
14.3149	14.9489	59	37
14.9489	15.2559	76	63
14.9509	15.2599	64	50
15.2599	15.5719	61	48
15.2599	15.5719	73	60
15.5719	15.8829	71	63
15.5749	15.8829	59	50
15.8869	16.2079	75	59
15.8899	16.2119	63	47
16.2119	16.8349	71	49
16.2119	17.4649	83	62
16.8309	17.4649	75	44
16.8349	17.4679	51	37
16.8349	17.4679	56	37
16.8349	17.4659	71	44
16.8359	17.4679	59	37
17.4689	17.7759	82	61
17.4709	17.7799	70	48
17.7799	18.0979	80	57
17.7809	18.0979	68	41
18.0989	18.7249	64	48
18.0989	18.7249	76	57
18.7259	19.3729	70	44
18.7279	19.3729	67	44
18.7279	19.3729	75	57
18.7289	19.3729	58	37
18.7289	19.3689	63	48
18.7319	19.3729	51	37
19.0439	19.3689	73	53
19.0469	19.3719	61	41
19.3689	20.0349	63	40
19.3689	20.0409	73	57
19.3699	20.0409	68	40
19.3719	20.0409	56	34
19.3719	20.0409	61	46
19.6839	20.0409	71	52
19.6849	20.0339	59	39
19.9259	20.6709	44	31
19.9779	20.6709	51	31
20.0339	20.6719	59	37
20.0339	20.4989	70	52
20.0349	20.4989	58	40
20.0349	20.6719	63	38
20.3519	20.6739	56	37
20.3519	20.6739	68	52
20.6749	20.9859	69	64
20.9889	21.3149	65	60
21.3149	22.2679	66	64
21.4679	22.5709	42	39
21.6259	22.5709	49	37
21.7909	22.5709	54	37
21.9449	22.5709	57	39
22.1089	22.5709	61	39
22.2679	22.5709	66	39
22.4279	22.5889	69	42
22.5889	22.9039	78	67
22.9049	23.2329	76	63
23.2329	23.5549	76	67
23.5549	23.8729	74	63
23.8729	25.1679	75	66
24.0339	25.1189	47	39
24.1929	25.1189	54	37
24.3569	25.1189	57	37
24.5169	25.1189	59	39
24.6789	25.1189	63	39
24.8369	25.1189	66	39
25.0079	25.1679	69	42
25.1689	25.4899	73	67
25.4899	25.8159	71	67
25.8189	26.1409	69	64
26.1419	26.4599	65	60
26.4629	27.4339	66	64
26.6239	27.7339	42	37
26.7889	27.7339	49	40
26.9499	27.7339	54	44
27.1119	27.7339	57	48
27.2689	27.7339	61	46
27.4339	27.7339	66	50
27.5869	27.7479	69	55
27.7509	27.9709	81	68
27.9719	28.1929	80	64
28.1929	28.4089	78	63
28.4129	28.7309	76	68
28.7319	29.0569	63	35
28.7319	29.0579	69	35
28.7349	29.0599	47	29
28.7349	29.0579	75	60
28.7359	29.0609	59	35
28.7379	29.0609	54	29
29.0639	29.3819	73	68
29.3829	29.7079	64	35
29.3859	29.7089	69	35
29.3859	29.7089	75	59
29.3869	29.7109	49	25
29.3869	29.7089	52	25
29.3869	29.7109	57	35
29.7119	30.0259	73	63
30.0269	30.3529	65	35
30.0269	30.3519	71	56
30.0299	30.3529	50	29
30.0299	30.3549	56	35
30.3549	30.6739	70	59
30.6769	30.9989	66	35
30.6779	31.0029	71	57
30.6809	31.0039	51	29
30.6809	31.0059	57	35
31.0059	31.3209	69	64
31.3219	31.6429	65	60
31.6469	32.6059	66	64
31.8079	32.9029	42	39
31.9659	32.9029	49	37
32.1269	32.9029	54	37
32.2869	32.9029	57	39
32.4419	32.9029	61	39
32.6059	32.9029	66	39
32.7669	32.9239	69	42
32.9249	33.2429	78	67
33.2439	33.5679	76	63
33.5689	33.8869	76	67
33.8879	34.2119	74	63
34.2129	35.5069	75	66
34.3699	35.4509	47	39
34.5319	35.4509	54	37
34.6959	35.4509	57	37
34.8529	35.4509	59	39
35.0139	35.4509	63	39
35.1759	35.4509	66	39
35.3399	35.5079	69	42
35.5079	35.8259	73	67
35.8269	36.1549	71	67
36.1579	36.4729	69	64
36.4769	36.7989	65	60
36.8019	37.7659	66	64
36.9639	38.0689	42	37
37.1249	38.0689	49	40
37.2889	38.0689	54	44
37.4469	38.0689	57	48
37.6079	38.0689	61	46
37.7659	38.0689	66	50
37.9259	38.0869	69	55
38.0909	38.3069	81	68
38.3109	38.5239	80	64
38.5239	38.7449	78	63
38.7459	39.0699	76	68
39.0709	39.3989	63	35
39.0739	39.4029	69	35
39.0739	39.4039	75	60
39.0749	39.4039	47	29
39.0749	39.4059	59	35
39.0769	39.4069	54	29
39.4069	39.6169	80	64
39.6169	39.8299	78	61
39.8299	40.0499	76	60
40.0509	40.3689	75	63
40.3729	40.6939	64	29
40.3729	40.6949	69	29
40.3729	40.6949	73	59
40.3759	40.6979	49	24
40.3769	40.7009	52	24
40.3769	40.6989	57	24
40.3769	40.7019	61	29
40.7019	40.9149	78	63
40.9189	41.1319	76	60
41.1319	41.3489	75	60
41.3529	41.6709	73	71
41.3559	41.6719	61	59
41.6719	41.9959	69	37
41.6739	41.9969	66	37
41.6739	41.9969	71	66
41.6749	41.9999	54	37
41.6779	42.0009	51	37
41.6779	42.0009	59	37
42.0029	42.3219	73	80
42.0039	42.3229	61	67
42.3229	42.6469	71	73
42.3249	42.6479	64	42
42.3259	42.6509	52	42
42.3259	42.6479	56	42
42.3259	42.6479	68	42
42.3289	42.6519	59	42
42.6519	42.9729	61	71
42.6519	42.9689	73	84
42.9739	43.2949	62	48
42.9739	43.2989	71	79
42.9759	43.2989	68	48
42.9769	43.3019	53	48
42.9769	43.2989	56	48
42.9799	43.3029	59	48
43.3029	43.6309	73	86
43.3049	43.6349	61	72
43.6349	43.9698	63	55
43.6379	43.9708	69	55
43.6389	43.9748	54	55
43.6389	43.9739	59	55
43.6389	43.9708	71	89
43.9748	44.2889	73	88
43.9768	44.2898	61	70
44.2898	44.6069	59	64
44.2918	44.6109	71	81
44.6118	46.4058	64	69
44.6118	45.8398	71	69
44.6118	45.8398	76	85
44.6138	45.8368	68	69
44.8168	46.4058	40	61
45.0198	45.4268	47	61
45.2238	45.6328	52	66
45.4268	46.4058	47	62
45.6328	46.0428	52	62
45.8368	46.4058	68	69
45.8398	46.1438	71	69
45.8398	46.1468	76	69
45.8398	46.1478	80	86
45.8428	46.2458	59	69
46.0428	46.4058	52	62
46.1438	46.4548	71	66
46.1468	46.4558	76	66
46.1478	46.4558	80	66
46.1478	46.4568	83	82
46.2458	46.4578	59	61
46.4588	46.7588	76	70
46.4588	46.7598	85	89
46.4598	46.7628	80	70
46.4618	46.7638	73	70
46.4628	46.7668	64	71
46.7668	47.0858	71	64
46.7668	47.0848	83	81
47.0888	48.3248	68	66
47.0888	48.3258	71	66
47.0918	48.3248	76	66
47.0928	48.9447	80	83
47.2958	48.9477	40	61
47.4988	47.9048	47	61
47.7018	48.1148	52	66
47.9048	48.9477	47	62
48.1148	48.5278	52	62
48.3248	48.6328	68	66
48.3248	48.9477	76	82
48.3258	48.9477	64	66
48.3258	48.6287	71	66
48.3278	48.7308	59	69
48.5278	48.9477	52	62
48.6287	48.9477	71	61
48.6298	48.9477	73	78
48.6328	48.9477	61	61
48.6328	48.9437	68	61
48.7308	48.9477	59	61
48.9437	49.2447	68	66
48.9447	49.2487	80	82
48.9477	49.2497	63	71
48.9477	49.2487	71	66
49.2517	49.5527	66	61
49.2527	49.5557	78	77
49.5557	50.7957	61	64
49.5567	50.7957	66	64
49.5567	50.7987	73	81
49.5597	50.7987	69	64
49.7627	51.4187	40	55
49.9727	50.3797	47	55
50.1757	50.5817	54	59
50.3797	51.4187	47	56
50.5817	50.9987	54	56
50.7957	51.4187	61	62
50.7957	51.1037	66	62
50.7987	51.4187	69	62
50.7987	51.4187	73	79
50.7997	51.2017	59	61
50.9987	51.4187	54	56
51.1027	51.4187	63	58
51.1037	51.4177	66	58
51.1037	51.4157	71	73
51.2017	51.4187	59	55
51.4157	51.7187	71	61
51.4157	51.7197	78	77
51.4177	51.7227	66	61
51.4177	51.7227	68	61
51.4187	51.7237	64	63
51.7237	52.0267	64	58
51.7257	52.0277	76	73
52.0277	53.2707	64	59
52.0307	53.5826	71	74
52.0317	53.5816	59	59
52.0317	53.2697	68	59
52.2377	53.8966	40	55
52.4397	52.8537	47	55
52.6507	53.0607	52	59
52.8537	53.8966	47	56
53.0607	53.4726	52	56
53.2697	53.8906	68	62
53.2697	53.8966	70	79
53.2707	53.8896	64	62
53.2737	53.6766	56	61
53.2737	53.8966	58	62
53.4726	53.8966	52	56
53.5816	53.8916	59	61
53.5826	53.8966	71	77
53.6766	53.8966	56	55
53.8896	54.2056	61	70
53.8896	54.2046	64	70
53.8896	54.2046	73	88
53.8906	54.2076	68	70
53.8916	54.2076	59	63
54.2076	54.5266	59	64
54.2086	54.5296	71	81
54.2116	54.5296	64	64
54.2116	54.5326	68	64
54.5336	56.3896	64	69
54.5336	55.7686	76	85
54.5346	55.7656	68	69
54.5356	55.7666	71	69
54.7326	56.3916	40	61
54.9396	55.3456	47	61
55.1456	55.5526	52	66
55.3456	56.3916	47	62
55.5526	55.9686	52	62
55.7656	56.3916	68	69
55.7666	56.0736	71	69
55.7666	56.0746	80	86
55.7686	56.1716	59	69
55.7686	56.0736	76	69
55.9686	56.3916	52	62
56.0736	56.3916	71	66
56.0736	56.3886	76	66
56.0746	56.3856	80	66
56.0746	56.3916	83	82
56.1716	56.3916	59	61
56.3856	56.6926	80	70
56.3886	56.6966	73	70
56.3886	56.6966	76	70
56.3896	56.6996	64	71
56.3896	56.6976	85	89
56.6996	57.0186	71	64
56.7006	57.0186	83	81
57.0216	58.2546	71	66
57.0216	58.8735	80	83
57.0226	58.2546	76	66
57.0256	58.2566	68	66
57.2276	58.8765	40	61
57.4316	57.8376	47	61
57.6346	58.0416	52	66
57.8376	58.8765	47	62
58.0416	58.4536	52	62
58.2546	58.5645	71	66
58.2546	58.8765	76	82
58.2566	58.5645	68	66
58.2576	58.6635	59	69
58.2576	58.8765	64	66
58.4536	58.8765	52	62
58.5616	58.8765	61	61
58.5625	58.8765	73	78
58.5645	58.8705	68	61
58.5645	58.8725	71	61
58.6635	58.8765	59	61
58.8705	59.1775	68	66
58.8725	59.1785	71	66
58.8735	59.1805	63	71
58.8735	59.1785	80	82
59.1815	59.4855	78	77
59.1845	59.4865	66	61
59.4865	60.7275	61	64
59.4885	60.7285	66	64
59.4895	60.7315	69	64
59.4895	60.7325	73	81
59.6955	61.3475	40	55
59.8995	60.3045	47	55
60.1025	60.5155	54	59
60.3045	61.3475	47	56
60.5155	60.9275	54	56
60.7275	61.3475	61	62
60.7285	61.0325	66	62
60.7315	61.3475	69	62
60.7325	61.1375	59	61
60.7325	61.3475	73	79
60.9275	61.3475	54	56
61.0325	61.3405	66	58
61.0365	61.3475	63	58
61.0365	61.3445	71	73
61.1375	61.3475	59	55
61.3405	61.6525	66	61
61.3445	61.6535	68	61
61.3445	61.6535	71	61
61.3445	61.6525	78	77
61.3475	61.6555	64	63
61.6555	61.9605	64	58
61.6565	61.9605	76	73
61.9615	63.1995	68	59
61.9635	63.5104	59	59
61.9635	63.1965	64	59
61.9635	63.5104	71	74
62.1595	63.8224	40	55
62.3735	62.7795	47	55
62.5725	62.9825	52	59
62.7795	63.8224	47	56
62.9825	63.3995	52	56
63.1955	63.8224	58	59
63.1965	63.5075	64	59
63.1965	63.8224	70	74
63.1995	63.6015	56	61
63.1995	63.5084	68	59
63.3995	63.8224	52	56
63.5075	63.8184	64	58
63.5084	63.8184	68	58
63.5104	63.8194	59	58
63.5104	63.8224	71	72
63.6015	63.8224	56	55
63.8164	64.1154	61	58
63.8184	64.1194	64	58
63.8184	64.1204	68	58
63.8194	64.1234	59	63
63.8194	64.1224	73	72
64.1234	64.4304	70	67
64.1264	64.4314	58	52
64.4344	65.9894	59	52
64.4354	65.6744	64	52
64.4354	65.9854	71	66
64.4374	65.6764	68	52
64.6334	66.3064	40	51
64.8454	65.2574	47	50
65.0544	65.4604	52	52
65.2574	66.3064	47	49
65.4604	65.8804	52	48
65.6734	66.3064	58	44
65.6744	65.9894	64	44
65.6764	65.9854	68	44
65.6774	66.0874	56	51
65.6774	66.3064	70	56
65.8804	66.3064	52	46
65.9854	66.2934	68	42
65.9854	66.3064	71	53
65.9894	66.2994	59	42
65.9894	66.2974	64	42
66.0874	66.3064	56	45
66.2934	66.6044	68	40
66.2964	66.6054	73	51
66.2974	66.6064	61	40
66.2974	66.6054	64	40
66.2994	66.6074	59	50
66.6084	66.9134	58	37
66.6084	66.9134	70	48
66.9134	68.7924	64	37
66.9144	68.7924	71	47
66.9154	68.7924	68	37
66.9164	68.7924	59	37
67.1194	68.7924	40	40
67.3254	67.7354	47	39
67.5324	67.9384	52	41
67.7354	68.7924	47	39
67.9384	68.3584	52	38
68.1514	68.5654	56	40
68.3584	68.7924	52	36
68.5654	68.7924	56	35
68.7814	69.8323	45	42
68.8164	69.8323	52	47
68.8554	69.8254	57	52
68.8934	69.8214	60	62
68.9314	69.8323	64	67
68.9704	69.8323	69	69
69.0124	69.5944	72	73
69.5944	69.8224	72	62
69.8214	70.2933	60	60
69.8214	70.2974	66	60
69.8224	70.2474	72	68
69.8244	70.2983	50	48
69.8254	70.3003	57	53
70.1754	70.2474	71	62
70.2384	70.3003	69	62
70.3013	70.4123	62	63
70.3013	70.4123	67	71
70.3043	70.4123	43	50
70.3043	70.4163	50	50
70.3053	70.4163	59	57
70.5203	70.6363	62	62
70.5213	70.6373	67	62
70.5213	70.6403	74	70
70.5243	70.6403	47	49
70.5253	70.6413	55	49
70.5253	70.6433	59	56
70.7593	70.8743	64	68
70.7593	70.8753	67	68
70.7603	70.8773	72	68
70.7623	70.8783	48	53
70.7623	70.8823	55	53
70.7623	70.8783	76	75
70.7663	70.8823	60	60
70.9973	71.1273	67	66
70.9973	71.1273	72	66
70.9983	71.1273	79	73
71.0003	71.1283	52	51
71.0013	71.1293	60	51
71.0013	71.1303	64	58
71.2453	72.1063	67	69
71.2483	72.1073	71	69
71.2493	72.1093	74	78
71.2523	72.1103	59	55
71.2523	72.1103	62	61
71.2533	72.1113	55	55
72.1133	72.3093	68	64
72.1143	72.3093	71	64
72.1143	72.2043	76	81
72.1153	72.3103	52	58
72.1173	72.3133	59	58
72.1173	72.3133	64	58
72.2053	72.3143	74	71
72.3143	72.4083	72	66
72.4083	72.5123	71	59
72.5133	72.6173	72	55
72.5153	72.6173	69	46
72.5163	72.6183	63	46
72.6913	72.7163	83	55
72.7163	72.8203	78	59
72.7173	72.8213	84	59
72.7183	72.8213	57	49
72.9253	73.0233	69	48
72.9253	73.0233	72	57
72.9263	73.0243	63	48
73.1033	73.1283	83	55
73.1293	73.2333	84	58
73.1313	73.2343	78	58
73.1323	73.2343	57	49
73.3313	73.4373	69	46
73.3313	73.4363	72	55
73.3323	73.4373	63	46
73.5093	73.5383	83	55
73.5393	73.6363	84	59
73.5413	73.6363	78	59
73.5453	73.6393	57	49
73.7443	73.9443	68	64
73.7453	73.9443	71	64
73.7453	73.8383	76	81
73.7473	73.9473	52	58
73.7483	73.9513	59	58
73.7483	73.9513	64	58
73.8423	73.9513	74	71
73.9523	74.0463	72	66
74.0463	74.1463	71	59
74.1503	74.2553	72	55
74.1513	74.2553	69	46
74.1533	74.2563	63	46
74.3293	74.3533	83	55
74.3543	74.4543	78	59
74.3553	74.4593	84	59
74.3573	74.4593	57	49
74.5603	74.6583	69	48
74.5603	74.6583	72	57
74.5633	74.6623	63	48
74.7413	74.7623	83	55
74.7673	74.8683	78	58
74.7673	74.8683	84	58
74.7683	74.8713	57	49
74.9733	75.0753	69	46
74.9733	75.0703	72	55
74.9763	75.0753	63	46
75.1482	75.1763	83	55
75.1773	75.2812	84	59
75.1793	75.2812	78	59
75.1802	75.2843	57	49
75.3782	75.5822	68	64
75.3792	75.5822	71	64
75.3822	75.4772	76	81
75.3833	75.5852	52	58
75.3833	75.5852	64	58
75.3862	75.5892	59	58
75.4802	75.5892	74	71
75.5892	75.6862	72	66
75.6872	75.7812	71	59
75.7822	76.8352	45	42
75.8202	76.8352	52	47
75.8552	76.8312	57	52
75.8972	76.8242	60	62
75.9352	76.8352	64	67
75.9782	76.8352	69	69
76.0122	76.5932	72	73
76.5932	76.8282	72	62
76.8242	77.3002	60	60
76.8282	77.3012	66	60
76.8282	77.2552	72	68
76.8292	77.3012	50	48
76.8312	77.3042	57	53
77.1852	77.2552	71	62
77.2442	77.3042	69	62
77.3072	77.4162	62	63
77.3082	77.4192	43	50
77.3082	77.4172	67	71
77.3092	77.4202	50	50
77.3112	77.4202	59	57
77.5352	77.6462	62	62
77.5352	77.6512	67	62
77.5362	77.6512	74	70
77.5382	77.6532	47	49
77.5382	77.6542	55	49
77.5382	77.6542	59	56
77.7692	77.8852	64	68
77.7702	77.8882	67	68
77.7702	77.8882	72	68
77.7702	77.8922	76	75
77.7732	77.8922	48	53
77.7732	77.8922	55	53
77.7742	77.8952	60	60
78.0072	78.1302	67	66
78.0102	78.1312	72	66
78.0112	78.1332	79	73
78.0142	78.1332	52	51
78.0152	78.1372	60	51
78.0152	78.1372	64	58
78.2602	79.1172	67	69
78.2602	79.1202	71	69
78.2602	79.1202	74	78
78.2632	79.1242	55	55
78.2632	79.1242	59	55
78.2632	79.1212	62	61
79.1252	79.3122	71	64
79.1252	79.2152	76	81
79.1272	79.3192	55	58
79.1272	79.3172	59	58
79.1282	79.3202	64	58
79.1312	79.3202	61	58
79.2192	79.3202	74	71
79.3232	79.4212	73	66
79.4222	79.5202	71	59
79.5202	79.6202	62	46
79.5212	79.6252	66	46
79.5232	79.6252	59	46
79.6982	79.7292	79	55
79.7302	79.8342	71	59
79.7302	79.8312	74	59
79.7302	79.8352	78	59
79.7332	79.8352	54	49
79.9282	80.0342	62	48
79.9332	80.0372	59	48
79.9332	80.0352	66	48
80.1112	80.1392	79	55
80.1422	80.2362	74	58
80.1432	80.2412	71	58
80.1432	80.2412	78	58
80.1462	80.2432	54	49
80.3422	80.4472	62	46
80.3432	80.4502	66	46
80.3452	80.4512	59	46
80.5232	80.5442	79	55
80.5492	80.6492	74	59
80.5492	80.6502	78	59
80.5502	80.6532	71	59
80.5512	80.6542	54	49
80.7552	80.9502	71	64
80.7552	80.8522	76	81
80.7562	80.9552	59	58
80.7582	80.9552	55	58
80.7582	80.9572	64	58
80.7592	80.9582	61	58
80.8532	80.9582	74	71
80.9582	81.0562	73	66
81.0571	81.1611	71	59
81.1651	81.2582	62	46
81.1651	81.2631	66	46
81.1662	81.2631	59	46
81.3432	81.3642	79	55
81.3652	81.4691	74	59
81.3672	81.4691	71	59
81.3682	81.4732	54	49
81.3682	81.4691	78	59
81.5661	81.6722	62	48
81.5672	81.6731	66	48
81.5701	81.6751	59	48
81.7491	81.7771	79	55
81.7771	81.8811	74	58
81.7781	81.8821	78	58
81.7802	81.8851	54	49
81.7802	81.8821	71	58
81.9801	82.0851	62	46
81.9811	82.0851	66	46
81.9831	82.0861	59	46
82.1611	82.1891	79	55
82.1901	82.2881	74	59
82.1911	82.2891	78	59
82.1931	82.2911	71	59
82.1941	82.2921	54	49
82.3931	82.5961	71	64
82.3931	82.4911	76	81
82.3941	82.5971	59	58
82.3961	82.5991	55	58
82.3961	82.6001	64	58
82.3971	82.6001	61	58
82.4911	82.6001	74	71
82.6031	82.6941	73	66
82.6941	82.7991	71	59
82.7991	82.8961	54	46
82.8001	82.8971	57	46
82.8031	82.9001	50	46
82.9771	83.0021	71	55
83.0021	83.1071	66	59
83.0051	83.1071	62	59
83.0051	83.1081	69	59
83.0061	83.1081	45	49
83.2111	83.3101	54	48
83.2121	83.3131	50	48
83.2121	83.3111	57	48
83.3831	83.4151	71	55
83.4151	83.5191	66	58
83.4161	83.5201	69	58
83.4191	83.5211	45	49
83.4191	83.5201	62	58
83.6181	83.7231	54	46
83.6191	83.7241	51	46
83.6191	83.7231	57	46
83.7971	83.8271	71	55
83.8281	83.9291	66	59
83.8281	83.9331	69	59
83.8291	83.9331	60	59
83.8311	83.9341	45	49
84.0311	84.2341	61	64
84.0311	84.1281	69	81
84.0321	84.2351	52	58
84.0321	84.2351	57	58
84.0341	84.2371	55	58
84.1291	84.2381	67	71
84.2381	84.3321	66	66
84.3321	84.4371	64	59
84.4371	84.5341	62	80
84.5351	84.6331	61	68
84.6331	84.7371	59	66
84.7381	84.8351	57	70
84.8361	84.9411	55	78
84.9411	85.0391	54	66
85.0391	85.1361	52	66
85.1411	85.2421	50	64
85.2431	85.3431	50	73
85.3431	85.4441	49	64
85.4451	85.5501	47	63
85.551	85.655	45	61
85.655	85.759	43	69
85.76	85.865	42	62
85.866	85.973	40	60
85.977	86.078	38	58
86.079	87.118	45	42
86.116	87.118	52	47
86.155	87.118	57	52
86.194	87.114	60	62
86.229	87.118	64	67
86.271	87.118	69	69
86.306	86.876	72	73
86.876	87.115	72	62
87.114	87.583	60	60
87.115	87.583	66	60
87.115	87.541	72	68
87.116	87.584	50	48
87.118	87.584	57	53
87.469	87.541	71	62
87.525	87.587	69	62
87.587	87.698	62	63
87.588	87.699	43	50
87.588	87.699	67	71
87.59	87.7	50	50
87.59	87.703	59	57
87.814	87.93	62	62
87.815	87.93	67	62
87.815	87.933	74	70
87.818	87.933	47	49
87.818	87.933	55	49
87.819	87.937	59	56
88.052	88.175	64	68
88.053	88.176	67	68
88.056	88.178	48	53
88.056	88.176	72	68
88.056	88.178	76	75
88.057	88.179	55	53
88.06	88.179	60	60
88.291	88.419	67	66
88.291	88.42	72	66
88.292	88.42	79	73
88.294	88.421	52	51
88.294	88.423	60	51
88.294	88.424	64	58
88.546	89.396	67	69
88.546	89.4	71	69
88.549	89.403	62	61
88.549	89.4	74	78
88.55	89.404	55	55
88.55	89.404	59	55
89.407	89.603	68	64
89.408	89.603	52	58
89.408	89.603	71	64
89.408	89.501	76	81
89.41	89.607	59	58
89.41	89.604	64	58
89.502	89.607	74	71
89.607	89.7	72	66
89.701	89.802	71	59
89.806	89.911	72	55
89.809	89.912	63	46
89.809	89.911	69	46
89.984	90.012	83	55
90.016	90.11	78	59
90.016	90.114	84	59
90.019	90.115	57	49
90.219	90.324	69	48
90.219	90.32	72	57
90.22	90.324	63	48
90.397	90.418	83	55
90.422	90.523	84	58
90.423	90.523	78	58
90.425	90.527	57	49
90.628	90.726	72	55
90.632	90.731	63	46
90.632	90.73	69	46
90.81	90.831	83	55
90.831	90.936	84	59
90.835	90.94	78	59
90.836	90.94	57	49
91.034	91.238	68	64
91.039	91.238	71	64
91.039	91.139	76	81
91.041	91.241	52	58
91.041	91.241	64	58
91.042	91.245	59	58
91.139	91.245	74	71
91.245	91.342	72	66
91.343	91.44	71	59
91.444	91.546	72	55
91.445	91.546	69	46
91.447	91.5489	63	46
91.6219	91.6499	83	55
91.6539	91.7479	78	59
91.6539	91.752	84	59
91.655	91.7529	57	49
91.8539	91.9619	69	48
91.8539	91.9579	72	57
91.8569	91.9619	63	48
92.0349	92.0629	83	55
92.0639	92.1619	84	58
92.0669	92.1649	57	49
92.0669	92.1619	78	58
92.2659	92.3709	72	55
92.2669	92.3749	63	46
92.2669	92.3719	69	46
92.4449	92.4689	83	55
92.4689	92.5739	84	59
92.4729	92.5749	57	49
92.4729	92.5749	78	59
92.6789	92.8759	68	64
92.6799	92.8759	71	64
92.6799	92.7769	76	81
92.6829	92.8789	52	58
92.6829	92.8789	64	58
92.6839	92.8789	59	58
92.7769	92.8829	74	71
92.8829	92.9799	72	66
92.9809	93.0709	71	59
93.0719	94.1249	45	42
93.1129	94.1249	52	47
93.1489	94.1179	57	52
93.1909	94.1149	60	62
93.2279	94.1249	64	67
93.2669	94.1249	69	69
93.3059	93.8799	72	73
93.8799	94.1159	72	62
94.1149	94.5829	60	60
94.1149	94.5839	66	60
94.1159	94.5339	72	68
94.1179	94.5869	50	48
94.1179	94.5879	57	53
94.4679	94.5339	71	62
94.5239	94.5879	69	62
94.5879	94.6989	62	63
94.5899	94.6989	67	71
94.5909	94.6999	43	50
94.5909	94.7019	50	50
94.5939	94.7019	59	57
94.8109	94.9299	62	62
94.8109	94.9309	67	62
94.8119	94.9339	47	49
94.8119	94.9329	74	70
94.8149	94.9339	55	49
94.8149	94.9369	59	56
95.0449	95.1719	64	68
95.0489	95.1719	67	68
95.0489	95.1719	72	68
95.0519	95.1749	48	53
95.0519	95.1729	76	75
95.0529	95.1749	55	53
95.0529	95.1749	60	60
95.2899	95.4129	67	66
95.2909	95.4129	72	66
95.2939	95.4169	52	51
95.2939	95.4169	79	73
95.2949	95.4169	60	51
95.2969	95.4179	64	58
95.5379	96.3929	67	69
95.5419	96.3969	71	69
95.5429	96.3969	74	78
95.5449	96.3969	62	61
95.5459	96.3999	55	55
95.5459	96.3989	59	55
96.3999	96.5959	71	64
96.4029	96.4969	76	81
96.4039	96.5989	55	58
96.4039	96.5969	59	58
96.4049	96.5989	64	58
96.4069	96.5999	61	58
96.4979	96.6029	74	71
96.6039	96.7009	73	66
96.7049	96.7989	71	59
96.8019	96.9069	62	46
96.8029	96.9079	59	46
96.8029	96.9079	66	46
96.9809	97.0089	79	55
97.0089	97.1069	74	59
97.0129	97.1109	54	49
97.0129	97.1109	71	59
97.0129	97.1109	78	59
97.2119	97.3169	62	48
97.2129	97.3179	59	48
97.2129	97.3179	66	48
97.3909	97.4149	79	55
97.4149	97.5199	74	58
97.4189	97.5209	71	58
97.4189	97.5209	78	58
97.4199	97.5228	54	49
97.6249	97.7228	62	46
97.6258	97.7268	66	46
97.6278	97.7268	59	46
97.8028	97.8278	79	55
97.8288	97.9328	74	59
97.8288	97.9338	78	59
97.8308	97.9338	71	59
97.8318	97.9358	54	49
98.0348	98.2338	71	64
98.0378	98.1348	76	81
98.0418	98.2348	55	58
98.0418	98.2348	59	58
98.0418	98.2368	64	58
98.0428	98.2378	61	58
98.1358	98.2378	74	71
98.2408	98.3388	73	66
98.3388	98.4428	71	59
98.4438	98.5418	62	46
98.4438	98.5428	66	46
98.4478	98.5428	59	46
98.6188	98.6468	79	55
98.6468	98.7478	74	59
98.6478	98.7518	71	59
98.6508	98.7558	54	49
98.6508	98.7548	78	59
98.8498	98.9548	62	48
98.8508	98.9558	59	48
98.8508	98.9548	66	48
99.0288	99.0558	79	55
99.0598	99.1578	74	58
99.0598	99.1588	78	58
99.0638	99.1608	54	49
99.0638	99.1588	71	58
99.2628	99.3648	62	46
99.2628	99.3678	66	46
99.2638	99.3678	59	46
99.4408	99.4658	79	55
99.4668	99.5668	74	59
99.4668	99.5678	78	59
99.4688	99.5708	71	59
99.4698	99.5708	54	49
99.6728	99.8678	71	64
99.6758	99.8718	59	58
99.6758	99.7698	76	81
99.6798	99.8748	55	58
99.6798	99.8758	61	58
99.6798	99.8748	64	58
99.7738	99.8758	74	71
99.8788	99.9768	73	66
99.9768	100.078	71	59
100.081	100.18	63	46
100.082	100.181	66	46
100.085	100.181	59	46
100.254	100.285	80	55
100.285	100.386	75	59
100.286	100.39	71	59
100.286	100.39	78	59
100.289	100.39	54	49
100.491	100.59	63	48
100.492	100.59	66	48
100.495	100.593	59	48
100.666	100.694	80	55
100.698	100.799	75	58
100.698	100.8	78	58
100.699	100.804	54	49
100.699	100.803	71	58
100.898	101.003	63	46
100.898	101.006	66	46
100.901	101.006	59	46
101.076	101.107	80	55
101.108	101.205	75	59
101.111	101.205	78	59
101.112	101.209	54	49
101.112	101.209	71	59
101.31	101.415	59	46
101.311	101.416	63	46
101.311	101.419	66	46
101.492	101.513	80	55
101.513	101.619	71	59
101.517	101.619	75	59
101.517	101.62	78	59
101.518	101.622	54	49
101.723	101.828	69	46
101.724	101.829	66	46
101.724	101.828	71	46
101.902	101.93	85	55
101.934	102.028	75	59
101.934	102.032	78	59
101.937	102.035	59	49
101.937	102.032	83	59
102.136	102.238	69	48
102.137	102.242	66	48
102.137	102.242	71	48
102.314	102.342	85	55
102.343	102.444	75	58
102.347	102.445	78	58
102.347	102.445	83	58
102.348	102.445	59	49
102.546	102.651	69	46
102.55	102.651	71	46
102.551	102.655	66	46
102.728	102.749	85	55
102.75	102.854	75	59
102.752	102.854	83	59
102.753	102.858	78	59
102.756	102.858	59	49
102.958	103.057	66	46
102.959	103.058	69	46
102.963	103.06	71	46
103.141	103.162	85	55
103.162	103.267	83	59
103.163	103.267	75	59
103.166	103.271	59	49
103.166	103.271	78	59
103.372	103.477	59	52
103.373	103.478	66	52
103.373	103.478	69	52
103.375	103.48	71	52
103.48	103.526	76	59
103.579	103.627	74	62
103.68	103.732	75	59
103.785	103.834	71	63
103.887	103.938	76	62
103.988	104.04	74	66
104.093	104.142	75	62
104.195	104.299	63	57
104.198	104.3	69	57
104.198	104.3	71	57
104.303	104.348	80	66
104.401	104.45	77	70
104.503	104.555	78	66
104.607	104.66	71	71
104.712	104.758	80	67
104.811	104.863	77	73
104.915	104.968	78	71
105.02	105.122	66	59
105.021	105.126	71	59
105.021	105.129	75	59
105.129	105.171	83	75
105.223	105.276	80	80
105.328	105.381	81	77
105.43	105.483	78	79
105.534	105.583	83	71
105.636	105.689	80	77
105.738	105.791	81	71
105.843	105.895	78	76
105.948	106.0	83	70
106.046	106.099	80	75
106.151	106.203	81	69
106.256	106.308	78	75
106.361	106.414	83	68
106.459	106.512	80	73
106.564	106.616	81	67
106.669	106.721	78	72
106.771	106.827	83	65
106.872	106.924	80	69
106.977	107.029	81	64
107.079	107.134	78	65
107.187	107.236	83	57
107.288	107.341	80	60
107.397	107.446	81	55
107.499	107.551	78	57
107.603	107.656	83	52
107.709	107.761	80	54
107.81	107.862	81	49
107.918	107.971	78	51
108.02	108.073	83	45
108.125	108.178	80	48
108.237	108.286	81	43
108.349	108.794	61	53
108.349	108.783	76	44
108.451	108.794	83	39
108.562	108.794	79	44
108.563	108.794	59	49
108.671	108.794	80	39
108.783	109.656	64	50
108.783	109.21	76	44
108.891	109.322	83	40
108.997	109.434	79	44
109.105	109.542	80	40
109.21	109.655	76	44
109.213	109.656	52	37
109.214	109.656	59	37
109.322	109.656	83	39
109.434	109.656	79	44
109.542	109.656	80	39
109.655	110.082	76	46
109.656	110.098	68	52
109.756	110.098	83	43
109.869	110.098	71	50
109.869	110.098	79	47
109.973	110.098	80	43
110.082	110.134	76	50
110.083	110.54	73	55
110.186	110.54	83	45
110.299	110.54	80	47
110.3	110.54	71	49
110.407	110.54	85	45
110.522	110.575	76	44
110.526	111.391	68	51
110.628	111.058	83	40
110.735	111.17	80	44
110.841	111.279	85	40
110.953	111.391	52	37
110.953	111.387	76	44
110.957	111.391	59	37
111.058	111.391	83	40
111.17	111.391	80	44
111.279	111.391	85	40
111.387	111.828	76	45
111.391	111.828	64	50
111.499	111.828	83	43
111.604	111.828	80	46
111.605	111.828	61	48
111.713	111.828	85	43
111.825	112.276	68	50
111.825	112.266	78	49
111.93	112.276	83	40
112.038	112.276	66	47
112.038	112.276	81	45
112.15	112.276	87	40
112.266	113.131	61	49
112.266	112.318	78	46
112.371	112.804	83	44
112.479	112.92	81	45
112.584	113.018	87	42
112.693	113.13	78	47
112.696	113.137	52	37
112.696	113.137	54	37
112.7	113.137	57	37
112.804	113.137	83	44
112.92	113.137	81	44
113.018	113.137	87	43
113.13	113.182	78	46
113.131	113.571	61	48
113.239	113.571	83	43
113.344	113.561	81	45
113.347	113.571	59	41
113.455	113.571	87	42
113.561	114.011	81	44
113.562	114.011	66	47
113.669	114.011	83	40
113.781	114.011	80	44
113.782	114.011	64	39
113.89	114.011	88	40
113.998	114.057	79	44
114.002	114.884	59	41
114.11	114.548	83	40
114.222	114.656	80	44
114.331	114.768	88	40
114.435	114.877	79	44
114.436	114.884	52	37
114.548	114.884	83	40
114.656	114.884	80	44
114.768	114.884	88	40
114.877	114.929	79	46
114.88	115.324	58	48
114.981	115.324	85	40
115.093	115.324	80	46
115.094	115.324	59	47
115.202	115.324	83	43
115.311	115.366	76	49
115.315	115.751	61	53
115.415	115.751	83	43
115.528	115.751	79	46
115.529	115.751	59	49
115.637	115.751	80	44
115.748	116.182	76	44
115.749	116.624	64	50
115.857	116.288	83	40
115.961	116.4	79	44
116.073	116.508	80	40
116.182	116.617	76	44
116.186	116.624	52	37
116.186	116.624	59	37
116.288	116.624	83	39
116.4	116.624	79	47
116.508	116.624	80	43
116.617	116.672	76	49
116.62	117.051	68	52
116.724	117.051	83	44
116.833	117.051	79	47
116.834	117.051	71	50
116.938	117.051	80	44
117.046	117.099	76	50
117.05	117.51	73	55
117.152	117.51	83	44
117.264	117.51	71	49
117.264	117.51	80	49
117.373	117.51	85	44
117.489	117.54	76	47
117.491	118.367	68	51
117.593	118.031	83	43
117.705	118.136	80	46
117.811	118.244	85	44
117.919	118.353	76	44
117.922	118.367	52	37
117.923	118.367	59	37
118.031	118.367	83	40
118.136	118.367	80	44
118.244	118.367	85	40
118.353	118.413	76	45
118.356	118.808	64	50
118.465	118.808	83	42
118.578	118.808	61	48
118.578	118.808	80	45
118.685	118.808	85	42
118.798	118.847	79	45
118.799	119.249	51	45
118.801	119.249	59	50
118.907	119.249	87	42
119.021	119.249	80	47
119.022	119.249	63	47
119.13	119.249	83	43
119.242	119.301	79	50
119.243	120.131	71	49
119.354	119.795	87	44
119.463	119.904	80	49
119.574	120.016	83	46
119.679	120.128	79	44
119.68	120.131	63	37
119.795	120.131	87	40
119.904	120.131	80	44
120.016	120.131	83	40
120.128	120.582	79	47
120.129	120.582	70	48
120.236	120.582	87	44
120.348	120.582	80	47
120.349	120.582	68	41
120.464	120.582	83	45
120.573	121.025	64	48
120.573	121.02	82	49
120.681	121.025	91	44
120.799	121.025	84	47
120.908	121.025	85	44
121.02	121.08	82	50
121.021	121.499	51	37
121.024	121.499	63	48
121.136	121.499	91	44
121.248	121.499	86	47
121.251	121.489	61	41
121.367	121.499	87	43
121.486	122.476	56	34
121.486	121.541	80	50
121.489	121.965	61	46
121.601	121.965	92	45
121.717	121.965	87	46
121.718	121.965	59	39
121.839	121.955	80	43
121.955	122.018	80	45
121.958	122.476	58	40
122.077	122.193	75	42
122.193	122.476	59	37
122.193	122.476	75	44
122.319	122.476	68	36
122.456	123.569	69	61
122.609	124.377	42	37
122.771	124.377	65	57
122.772	124.377	49	35
122.932	124.377	54	35
123.093	123.415	66	61
123.096	124.377	57	37
123.257	124.377	61	37
123.415	123.89	66	37
123.569	124.051	69	40
123.733	124.208	73	46
123.89	124.377	66	42
124.051	124.377	69	49
124.208	124.377	73	45
124.37	124.688	78	62
124.688	125.014	76	60
125.014	126.963	76	62
125.174	126.963	47	37
125.337	126.963	54	35
125.337	126.963	74	60
125.494	126.963	57	35
125.654	126.963	75	62
125.655	126.963	59	37
125.816	126.46	63	37
125.98	126.624	66	37
126.141	126.298	69	40
126.298	126.785	69	44
126.46	126.963	63	40
126.624	126.963	66	47
126.785	126.963	69	45
126.949	127.271	73	62
127.271	127.6	71	62
127.604	128.735	69	61
127.764	129.543	42	35
127.923	129.543	65	57
127.926	129.543	49	38
128.084	129.543	54	41
128.248	128.574	66	61
128.251	129.543	57	45
128.412	129.543	61	42
128.574	129.543	66	47
128.735	129.056	69	51
128.892	129.21	73	55
129.056	129.543	69	52
129.21	129.543	73	54
129.375	129.543	78	56
129.536	129.696	81	63
129.756	129.918	80	61
129.973	130.141	78	60
130.19	130.516	76	63
130.516	130.834	63	33
130.519	130.838	69	33
130.519	130.838	75	57
130.523	130.841	47	28
130.523	130.841	54	28
130.523	130.841	59	33
130.842	131.163	73	63
131.163	131.485	64	33
131.164	131.485	69	33
131.164	131.489	75	56
131.167	131.489	49	23
131.167	131.489	52	23
131.167	131.492	57	33
131.492	131.811	73	60
131.814	132.136	65	33
131.814	132.137	71	52
131.815	132.137	50	28
131.815	132.14	56	28
132.14	132.455	70	56
132.458	132.787	66	33
132.458	132.787	71	53
132.459	132.788	51	28
132.462	132.791	57	33
132.791	133.908	69	61
132.944	134.726	42	37
133.107	134.726	65	57
133.109	134.726	49	35
133.271	134.726	54	35
133.435	134.726	57	37
133.435	133.751	66	61
133.589	134.726	61	37
133.751	134.226	66	37
133.908	134.383	69	40
134.065	134.547	73	45
134.226	134.726	66	41
134.383	134.726	69	45
134.547	134.726	73	43
134.709	135.027	78	62
135.027	135.353	76	60
135.353	137.299	76	62
135.51	137.299	47	37
135.675	137.299	54	35
135.675	137.299	74	60
135.829	137.299	57	35
135.993	137.299	59	37
135.993	137.299	75	62
136.155	136.799	63	37
136.312	136.956	66	37
136.476	136.638	69	37
136.638	137.124	69	46
136.799	137.299	63	41
136.956	137.299	66	48
137.124	137.299	69	46
137.288	137.61	73	62
137.61	137.936	71	62
137.936	139.07	69	61
138.096	139.889	42	35
138.265	139.889	49	38
138.265	139.889	65	57
138.425	139.889	54	41
138.581	138.909	66	61
138.583	139.889	57	45
138.741	139.889	61	42
138.909	139.889	66	47
139.07	139.389	69	51
139.231	139.549	73	48
139.389	139.889	69	50
139.549	139.889	73	52
139.714	139.889	78	54
139.871	140.088	81	63
140.092	140.308	80	61
140.309	140.533	78	60
140.533	140.848	76	63
140.851	141.18	63	33
140.852	141.184	69	33
140.855	141.185	47	28
140.855	141.184	75	57
140.856	141.185	54	33
140.856	141.187	59	33
141.187	141.394	80	61
141.397	141.615	78	58
141.618	141.831	76	57
141.831	142.15	75	60
142.153	142.482	64	27
142.154	142.483	49	22
142.154	142.482	69	27
142.154	142.483	73	56
142.157	142.486	52	22
142.157	142.486	57	22
142.158	142.486	61	27
142.487	142.696	78	60
142.697	142.917	76	57
142.917	143.13	75	57
143.133	143.459	73	67
143.134	143.459	61	56
143.46	143.781	66	35
143.46	143.781	69	35
143.462	143.785	51	35
143.462	143.784	71	62
143.463	143.785	54	35
143.463	143.788	59	35
143.788	144.103	73	71
143.789	144.103	61	58
144.104	144.425	64	37
144.104	144.425	68	37
144.106	144.428	52	37
144.106	144.428	71	63
144.107	144.429	56	37
144.107	144.432	59	37
144.432	144.75	73	74
144.433	144.754	61	61
144.754	145.083	62	40
144.755	145.083	68	40
144.755	145.084	71	68
144.757	145.086	53	40
144.757	145.086	56	40
144.758	145.087	59	40
145.087	145.419	73	75
145.09	145.42	61	61
145.422	145.748	63	46
145.422	145.751	69	46
145.423	145.752	54	46
145.423	145.752	71	75
145.424	145.755	59	46
145.755	145.801	69	59
145.853	145.905	73	53
145.958	146.01	70	59
145.959	146.063	51	45
146.063	146.109	71	55
146.161	146.266	66	45
146.161	146.213	69	59
146.164	146.267	57	45
146.165	146.267	59	45
146.269	146.318	73	55
146.371	146.424	70	59
146.476	146.528	71	53
146.574	146.626	69	59
146.679	146.732	76	55
146.781	146.833	74	59
146.784	146.889	47	45
146.89	146.938	75	53
146.987	147.036	69	60
146.988	147.092	57	45
146.988	147.092	66	45
146.99	147.092	59	45
147.093	147.141	76	56
147.196	147.246	74	59
147.298	147.351	75	53
147.411	147.463	75	53
147.511	147.564	80	47
147.62	147.673	77	51
147.722	147.775	78	47
147.826	147.879	75	50
147.925	147.981	80	46
148.03	148.083	77	49
148.134	148.187	78	43
148.24	148.292	78	48
148.345	148.398	83	44
148.446	148.502	80	47
148.555	148.604	81	41
148.656	148.709	78	46
148.768	148.82	83	43
148.87	148.926	80	44
148.978	149.031	81	42
149.086	149.521	76	44
149.087	149.535	61	53
149.199	149.535	83	39
149.3	149.535	59	49
149.3	149.535	79	44
149.413	149.535	80	39
149.521	149.58	76	44
149.522	150.399	64	50
149.633	150.067	83	40
149.742	150.175	79	44
149.846	150.284	80	40
149.958	150.399	52	37
149.958	150.393	76	44
149.959	150.399	59	37
150.067	150.399	83	39
150.175	150.399	79	44
150.284	150.399	80	39
150.393	150.823	76	46
150.396	150.84	68	52
150.497	150.84	83	43
150.609	150.84	79	47
150.61	150.84	71	50
150.715	150.84	80	43
150.823	150.875	76	50
150.826	151.271	73	55
150.931	151.271	83	45
151.037	151.271	80	47
151.04	151.271	71	49
151.155	151.271	85	45
151.264	152.142	68	51
151.264	151.317	76	44
151.373	151.803	83	40
151.477	151.915	80	44
151.59	152.02	85	40
151.695	152.142	52	37
151.695	152.142	59	37
151.695	152.128	76	44
151.803	152.142	83	40
151.915	152.142	80	44
152.02	152.142	85	40
152.128	152.577	76	45
152.132	152.577	64	50
152.241	152.577	83	43
152.349	152.577	80	46
152.353	152.577	61	48
152.454	152.577	85	43
152.566	152.619	78	49
152.567	153.01	68	50
152.675	153.01	83	40
152.787	153.01	66	47
152.787	153.01	81	45
152.895	153.01	87	40
153.003	153.056	78	46
153.007	153.88	61	49
153.115	153.546	83	44
153.221	153.658	81	45
153.332	153.766	87	42
153.434	153.879	78	47
153.437	153.882	54	37
153.438	153.882	52	37
153.438	153.882	57	37
153.546	153.882	83	44
153.658	153.882	81	44
153.766	153.882	87	43
153.879	153.928	78	46
153.88	154.312	61	48
153.979	154.312	83	43
154.093	154.312	59	41
154.093	154.306	81	45
154.194	154.312	87	42
154.306	154.753	66	47
154.306	154.753	81	44
154.41	154.753	83	40
154.523	154.753	80	44
154.524	154.753	64	39
154.631	154.753	88	40
154.746	154.799	79	44
154.747	155.622	59	41
154.852	155.292	83	40
154.963	155.404	80	44
155.072	155.506	88	40
155.184	155.622	52	37
155.184	155.618	79	44
155.292	155.622	83	40
155.404	155.622	80	44
155.506	155.622	88	40
155.618	155.67	79	46
155.622	156.066	58	48
155.726	156.066	85	40
155.839	156.066	80	46
155.842	156.066	59	47
155.943	156.066	83	43
156.052	156.104	76	49
156.055	156.5	61	53
156.164	156.5	83	43
156.269	156.5	59	49
156.269	156.5	79	46
156.377	156.5	80	44
156.49	157.371	64	50
156.49	156.923	76	44
156.597	157.032	83	40
156.71	157.141	79	44
156.812	157.248	80	40
156.923	157.361	76	44
156.927	157.371	52	37
156.927	157.371	59	37
157.032	157.371	83	39
157.141	157.371	79	47
157.248	157.371	80	43
157.361	157.41	76	49
157.362	157.802	68	52
157.47	157.802	83	44
157.575	157.802	79	47
157.578	157.802	71	50
157.686	157.802	80	44
157.788	157.841	76	50
157.792	158.232	73	55
157.899	158.232	83	44
158.005	158.232	80	49
158.006	158.232	71	49
158.114	158.232	85	44
158.225	158.274	76	47
158.226	159.101	68	51
158.33	158.765	83	43
158.439	158.877	80	46
158.543	158.978	85	44
158.652	159.09	76	44
158.653	159.101	52	37
158.656	159.101	59	37
158.765	159.101	83	40
158.877	159.101	80	44
158.978	159.101	85	40
159.09	159.146	76	45
159.091	159.531	64	50
159.198	159.531	83	42
159.31	159.531	80	45
159.311	159.531	61	48
159.416	159.531	85	42
159.524	159.958	78	45
159.528	159.972	68	50
159.629	159.972	83	42
159.741	159.972	66	47
159.741	159.972	81	47
159.853	159.972	87	43
159.958	160.011	78	47
159.961	160.834	61	49
160.07	160.5	83	44
160.175	160.612	81	46
160.283	160.721	87	42
160.396	160.836	52	37
160.396	160.833	78	44
160.397	160.836	54	37
160.399	160.836	57	37
160.5	160.836	83	40
160.612	160.836	81	44
160.721	160.836	87	40
160.833	160.882	78	47
160.834	161.277	61	48
160.941	161.277	83	44
161.047	161.267	81	47
161.048	161.277	59	41
161.158	161.277	87	45
161.267	161.323	81	49
161.27	161.712	66	48
161.376	161.712	83	44
161.488	161.712	64	41
161.488	161.712	80	47
161.596	161.712	88	44
161.701	162.593	59	48
161.701	161.761	79	50
161.813	162.149	83	44
161.921	162.149	80	47
162.034	162.149	88	43
162.142	162.194	79	50
162.144	162.593	52	41
162.254	162.593	83	45
162.363	162.593	80	46
162.475	162.593	88	43
162.591	163.039	58	40
162.591	162.644	79	45
162.703	163.039	85	42
162.812	163.039	80	44
162.815	163.039	59	37
162.924	163.039	83	36
163.032	163.473	76	49
163.033	163.473	61	42
163.14	163.473	83	44
163.245	163.473	79	47
163.249	163.473	59	39
163.358	163.473	80	44
163.466	163.518	71	47
163.47	164.362	56	42
163.578	163.791	76	44
163.683	163.914	75	47
163.791	163.914	76	43
163.904	165.235	52	39
163.904	163.96	71	46
164.012	164.239	76	43
164.124	164.362	75	45
164.239	164.362	76	43
164.352	164.803	55	40
164.352	164.408	71	45
164.46	164.683	76	42
164.576	164.803	75	44
164.579	164.803	56	37
164.683	164.803	76	36
164.799	165.237	64	43
164.8	165.237	57	42
164.901	165.121	71	39
165.013	165.237	70	43
165.014	165.237	56	39
165.121	165.237	71	37
165.234	165.668	59	43
165.235	165.681	52	40
165.334	165.556	68	36
165.447	165.681	67	43
165.556	165.681	68	36
165.668	166.119	59	43
165.671	167.492	40	39
165.776	165.997	68	36
165.888	166.119	67	42
165.997	166.119	68	36
166.115	166.172	56	42
166.116	166.571	46	40
166.224	166.451	64	36
166.34	166.571	63	41
166.343	166.571	47	37
166.451	166.571	64	36
166.564	166.62	56	37
166.565	167.036	49	42
166.679	166.903	64	35
166.787	167.036	63	37
166.788	167.036	47	39
166.903	167.036	64	34
167.018	167.491	52	37
167.022	167.988	44	40
167.134	167.368	59	32
167.253	167.502	58	37
167.368	167.502	59	32
167.491	167.978	52	37
167.492	169.507	40	39
167.61	167.855	59	33
167.732	167.988	58	36
167.855	167.988	59	33
167.978	168.475	52	36
167.982	168.489	43	40
168.107	168.355	59	33
168.226	168.489	58	36
168.355	168.489	59	33
168.475	168.983	52	37
168.478	168.992	44	42
168.604	168.853	59	35
168.726	168.992	58	37
168.853	168.992	59	34
168.983	169.514	45	40
168.983	169.504	52	37
169.108	169.37	59	32
169.238	169.514	58	37
169.37	169.514	59	32
169.504	170.039	52	37
169.507	175.917	40	39
169.507	170.049	44	42
169.636	169.906	59	33
169.773	170.049	58	36
169.906	170.049	59	33
170.039	170.589	52	36
170.042	170.606	43	40
170.179	170.449	59	33
170.312	170.606	58	36
170.449	170.606	59	33
170.589	171.219	52	37
170.593	175.917	44	39
170.746	171.061	59	35
170.903	171.232	58	37
171.061	171.232	59	33
171.219	171.873	52	36
171.38	171.705	59	30
171.541	171.89	58	36
171.705	171.89	59	30
171.873	172.608	52	35
172.052	172.419	59	30
172.233	172.632	58	31
172.419	172.632	59	25
172.608	172.706	52	27
172.808	173.213	59	23
173.007	173.521	58	27
173.213	173.521	59	24
173.514	173.813	52	22
