OnsetTime	OffsetTime	MidiPitch	Velocity
1.98773	2.08874	72	33
2.08874	2.18976	74	34
2.18976	2.29077	76	41
2.29077	2.39178	72	34
2.39178	2.50717	69	34
2.62256	3.03307	57	23
2.62256	3.03307	60	23
2.62256	3.03307	64	27
2.7297	2.83105	76	35
2.83105	2.93206	72	35
2.93206	3.03307	69	35
3.03307	3.13408	77	41
3.13408	3.23509	74	35
3.23509	3.35004	69	35
3.46499	3.88266	57	23
3.46499	3.88266	62	23
3.46499	3.88266	65	27
3.57213	3.67927	77	35
3.67927	3.78096	74	35
3.78096	3.88266	69	35
3.88266	3.98436	74	41
3.98436	4.08605	71	36
4.08605	4.20144	68	36
4.31683	4.72906	57	23
4.31683	4.72906	59	23
4.31683	4.72906	62	27
4.42397	4.52567	74	36
4.52567	4.62736	71	36
4.62736	4.72906	68	36
4.72906	4.83076	76	41
4.83076	4.93245	72	35
4.93245	5.04696	69	35
5.16146	5.57473	57	23
5.16146	5.57473	60	23
5.16146	5.57473	64	27
5.2686	5.37064	71	38
5.37064	5.47269	72	38
5.47269	5.57473	74	38
5.57473	5.67678	76	45
5.67678	5.77882	72	37
5.77882	5.89377	69	38
6.00872	6.42304	57	25
6.00872	6.42304	60	25
6.00872	6.42304	64	31
6.11586	6.21825	76	44
6.21825	6.32064	72	42
6.32064	6.42304	69	42
6.42304	6.52543	77	46
6.52543	6.62782	74	43
6.62782	6.74233	69	43
6.85683	7.27011	57	27
6.85683	7.27011	62	27
6.85683	7.27011	65	34
6.96397	7.06602	77	46
7.06602	7.16806	74	46
7.16806	7.27011	69	46
7.27011	7.37215	74	52
7.37215	7.47419	71	47
7.47419	7.5887	68	47
7.7032	8.11543	57	29
7.7032	8.11543	59	29
7.7032	8.11543	62	36
7.81034	7.91204	74	48
7.91204	8.01373	71	48
8.01373	8.11543	68	48
8.11543	8.22654	76	56
8.22654	8.33765	72	52
8.33765	8.44794	57	31
8.33765	8.44794	60	31
8.33765	8.44794	64	38
8.33765	8.44794	69	52
8.55824	8.97047	57	31
8.55824	8.97047	62	31
8.55824	8.97047	65	38
8.66538	8.76707	74	55
8.76707	8.86877	71	55
8.86877	8.97047	68	55
8.97047	9.08076	76	64
9.08076	9.19105	72	55
9.19105	9.30134	57	34
9.19105	9.30134	60	34
9.19105	9.30134	64	42
9.19105	9.30134	69	55
9.41164	9.82089	57	34
9.41164	9.82089	62	34
9.41164	9.82089	65	42
9.5158	9.6175	74	58
9.6175	9.71919	71	58
9.71919	9.82089	68	58
9.82089	9.93078	76	69
9.93078	10.0407	72	57
10.0407	10.1506	57	37
10.0407	10.1506	60	37
10.0407	10.1506	64	46
10.0407	10.1506	69	58
10.2604	10.6669	57	37
10.2604	10.6669	62	37
10.2604	10.6669	65	46
10.3639	10.4649	74	64
10.4649	10.5659	71	65
10.5659	10.6669	68	65
10.6669	11.7622	76	71
10.7685	11.7622	72	65
10.871	11.7622	69	64
10.9749	11.7622	64	63
11.0801	11.7622	60	60
11.1865	11.7622	57	58
11.2941	11.7622	52	58
11.4031	11.7622	48	57
11.5133	11.7622	33	57
11.5133	11.7622	45	57
11.9971	12.4383	52	56
11.9971	12.4383	64	71
12.4383	13.328	48	54
12.4383	13.3151	57	58
12.4383	13.1001	64	64
12.4383	13.3151	69	71
13.1001	13.328	52	52
13.1001	13.328	59	57
13.1001	13.328	64	62
13.1001	13.328	71	68
13.3151	13.7563	57	54
13.3151	13.7563	60	58
13.3151	13.7563	69	64
13.3151	13.7563	72	71
13.7563	14.1975	59	54
13.7563	14.1975	62	58
13.7563	14.1975	71	64
13.7563	14.1975	74	71
14.1975	14.6503	60	54
14.1975	14.6503	64	58
14.1975	14.6503	72	64
14.1975	14.6503	76	73
14.6503	15.5326	64	57
14.6503	15.5326	67	65
14.6503	15.5326	76	68
14.6503	15.5326	79	76
15.5326	15.8564	62	56
15.5326	15.8564	65	63
15.5326	15.8564	74	64
15.5326	15.8564	77	73
15.8564	15.9643	60	54
15.8564	15.9643	64	58
15.8564	15.9643	72	60
15.8564	15.9643	76	67
15.9643	16.4055	60	56
15.9643	16.4055	64	63
15.9643	16.4055	72	64
15.9643	16.4055	76	71
16.4055	16.7331	59	54
16.4055	16.7331	62	58
16.4055	16.7331	71	64
16.4055	16.7331	74	71
16.7331	16.8422	57	50
16.7331	16.8422	60	56
16.7331	16.8422	69	60
16.7331	16.8422	72	67
16.8422	17.2901	57	54
16.8422	17.2901	60	58
16.8422	17.2901	69	64
16.8422	17.2901	72	71
17.2901	17.7559	50	54
17.2901	17.7465	60	56
17.2901	17.7559	64	63
17.2901	17.7559	65	65
17.2901	17.7465	72	65
17.2901	17.7559	76	74
17.626	17.7559	59	50
17.626	17.7559	62	56
17.626	17.7559	71	60
17.626	17.7559	74	67
17.7465	18.8828	52	49
17.7465	18.6556	57	49
17.7465	18.6556	60	56
17.7465	18.6556	69	58
17.7465	18.6556	72	66
18.6556	18.8828	56	48
18.6556	18.8828	59	55
18.6556	18.8828	68	57
18.6556	18.8828	71	65
19.1101	19.5513	52	56
19.1101	19.5513	62	64
19.1101	19.5513	64	71
19.5513	20.441	45	54
19.5513	20.441	48	54
19.5513	20.4281	57	58
19.5513	20.4281	60	64
19.5513	20.213	64	64
19.5513	20.4281	69	71
20.213	20.441	52	52
20.213	20.441	59	57
20.213	20.441	64	62
20.213	20.441	71	68
20.4281	20.8693	57	54
20.4281	20.8693	60	58
20.4281	20.8693	69	64
20.4281	20.8693	72	71
20.8693	21.3104	59	54
20.8693	21.3104	62	58
20.8693	21.3104	71	64
20.8693	21.3104	74	71
21.3104	21.7633	60	54
21.3104	21.7633	64	58
21.3104	21.7633	72	64
21.3104	21.7633	76	73
21.7633	21.872	52	67
21.7633	22.6508	64	67
21.7633	22.6508	67	68
21.7633	22.6508	76	68
21.7633	22.6508	79	76
21.9807	22.0952	53	69
22.2097	23.5237	55	75
22.6508	22.9746	62	56
22.6508	22.9746	65	63
22.6508	22.9746	74	64
22.6508	22.9746	77	73
22.9746	23.0825	60	54
22.9746	23.0825	64	58
22.9746	23.0825	72	60
22.9746	23.0825	76	67
23.0825	23.5237	60	56
23.0825	23.5237	64	63
23.0825	23.5237	72	64
23.0825	23.5237	76	71
23.5237	23.9604	55	54
23.5237	23.8513	59	54
23.5237	23.8513	62	58
23.5237	23.8513	71	64
23.5237	23.8513	74	71
23.8513	23.9604	57	50
23.8513	23.9604	60	56
23.8513	23.9604	69	60
23.8513	23.9604	72	67
23.9604	24.4083	57	54
23.9604	24.4083	60	58
23.9604	24.4083	69	64
23.9604	24.4083	72	71
24.4083	24.8647	52	52
24.4083	24.8647	55	52
24.4083	24.8647	59	57
24.4083	24.7442	67	65
24.4083	24.7442	71	74
24.7442	24.8647	65	60
24.7442	24.8647	69	67
24.8647	25.3178	53	42
24.8647	25.0918	57	47
24.8647	24.9783	65	57
24.8647	24.9783	69	64
25.0918	25.3178	56	49
25.0918	25.205	59	57
25.0918	25.205	68	57
25.0918	25.205	71	65
25.3178	25.4303	52	46
25.3178	25.5425	57	52
25.3178	25.4303	60	59
25.3178	25.4303	69	59
25.3178	25.4303	72	67
25.5425	25.6544	50	47
25.5425	25.766	59	54
25.5425	25.6544	62	62
25.5425	25.6544	71	62
25.5425	25.6544	74	69
25.766	25.8772	48	48
25.766	25.9889	60	55
25.766	25.8772	64	64
25.766	25.8772	72	64
25.766	25.8772	76	71
25.9889	26.1011	50	46
25.9889	26.2142	59	53
25.9889	26.1011	62	62
25.9889	26.1011	71	62
25.9889	26.1011	74	69
26.2142	26.328	52	45
26.2142	26.4425	57	50
26.2142	26.328	60	59
26.2142	26.328	69	59
26.2142	26.328	72	67
26.5574	26.6793	52	48
26.5574	26.6793	59	57
26.5574	26.6793	64	57
26.5574	26.6793	71	65
26.6793	27.6096	52	52
26.6793	27.6096	59	53
26.6793	27.6096	64	53
26.6793	27.6096	71	66
27.6096	27.8421	45	48
27.6096	27.8421	57	55
27.6096	27.8421	60	57
27.6096	27.8421	69	65
28.2839	28.3859	68	35
28.3859	28.488	69	35
28.488	28.59	71	41
28.59	28.6921	68	35
28.6921	28.8075	64	35
28.9228	29.3351	52	23
28.9228	29.3351	56	23
28.9228	29.3351	59	27
29.03	29.1317	71	35
29.1317	29.2334	68	35
29.2334	29.3351	64	35
29.3351	29.4368	72	41
29.4368	29.5385	69	35
29.5385	29.6534	64	35
29.7684	30.1816	52	23
29.7684	30.1816	57	23
29.7684	30.1816	60	27
29.8755	29.9775	72	36
29.9775	30.0796	69	36
30.0796	30.1816	64	36
30.1816	30.2837	69	41
30.2837	30.3857	66	35
30.3857	30.5011	63	35
30.6165	31.0287	52	23
30.6165	31.0287	54	23
30.6165	31.0287	57	27
30.7236	30.8253	69	36
30.8253	30.927	66	36
30.927	31.0287	63	36
31.0287	31.1304	71	41
31.1304	31.2321	68	35
31.2321	31.3466	64	35
31.4611	31.8744	52	23
31.4611	31.8744	56	23
31.4611	31.8744	59	27
31.5683	31.6703	66	38
31.6703	31.7724	68	38
31.7724	31.8744	69	38
31.8744	31.9764	71	45
31.9764	32.0785	68	37
32.0785	32.1934	64	38
32.3084	32.7217	52	25
32.3084	32.7217	59	25
32.3084	32.7217	62	31
32.4155	32.5176	71	45
32.5176	32.6196	68	46
32.6196	32.7217	64	46
32.7217	32.8237	72	50
32.8237	32.9257	69	46
32.9257	33.0402	64	46
33.1548	33.567	52	29
33.1548	33.567	57	29
33.1548	33.567	60	37
33.2619	33.3636	72	52
33.3636	33.4653	69	52
33.4653	33.567	64	52
33.567	33.6687	69	57
33.6687	33.7704	66	53
33.7704	33.8849	63	53
33.9994	34.4137	52	35
33.9994	34.4137	54	35
33.9994	34.4137	57	35
33.9994	34.4137	60	42
34.1065	34.2089	69	58
34.2089	34.3113	66	58
34.3113	34.4137	63	60
34.4137	34.5248	71	66
34.5248	34.6359	68	58
34.6359	34.7462	64	57
34.8565	35.0838	52	56
34.8565	35.0838	56	56
34.8565	35.0838	59	66
35.0838	35.3111	52	56
35.0838	35.3111	64	71
35.3111	36.2008	56	54
35.3111	36.1879	59	58
35.3111	36.2008	64	64
35.3111	36.2008	71	71
35.9728	36.2008	57	52
35.9728	36.2008	60	57
35.9728	36.2008	69	62
35.9728	36.2008	72	68
36.1879	36.6291	59	54
36.1879	36.6291	62	58
36.1879	36.6291	68	64
36.1879	36.6291	74	71
36.6291	37.0702	57	54
36.6291	37.0702	60	58
36.6291	37.0702	69	64
36.6291	37.0702	72	71
37.0702	37.1834	62	54
37.0702	37.1834	65	58
37.0702	37.1834	68	64
37.0702	37.1834	77	73
37.4099	37.4948	60	54
37.4099	37.4948	64	58
37.4099	37.4948	68	64
37.4099	37.4948	76	73
37.5231	38.4054	59	57
37.5231	38.4054	62	65
37.5231	38.4054	68	68
37.5231	38.4054	74	76
38.4054	38.8371	62	56
38.4054	38.8371	65	63
38.4054	38.8371	68	64
38.4054	38.8371	77	73
38.8371	39.2782	60	56
38.8371	39.2782	64	63
38.8371	39.2782	69	64
38.8371	39.2782	76	71
39.2782	39.715	57	54
39.2782	39.715	60	58
39.2782	39.715	64	64
39.2782	39.715	72	71
39.715	40.1629	56	56
39.715	40.1629	59	61
39.715	40.1629	64	64
39.715	40.1629	71	69
40.1629	40.6192	54	55
40.1629	40.6192	57	60
40.1629	40.6192	60	57
40.1629	40.6192	63	65
40.1629	40.6192	69	70
40.4987	40.6192	59	56
40.4987	40.6192	71	67
40.6192	41.9829	52	49
40.6192	41.5283	57	56
40.6192	41.5283	60	58
40.6192	41.5283	63	58
40.6192	41.5283	69	66
41.5283	41.9829	56	55
41.5283	41.9829	59	57
41.5283	41.9829	64	57
41.5283	41.9829	68	65
41.9829	42.424	52	56
41.9829	42.424	64	71
42.424	43.3091	56	58
42.424	43.3009	59	64
42.424	43.3091	64	64
42.424	43.3091	71	71
43.0858	43.3091	57	57
43.0858	43.3091	60	62
43.0858	43.3091	69	62
43.0858	43.3091	72	68
43.3009	43.742	59	58
43.3009	43.742	62	64
43.3009	43.742	68	64
43.3009	43.742	74	71
43.742	44.1832	62	58
43.742	44.1832	65	64
43.742	44.1832	68	64
43.742	44.1832	77	71
44.1832	44.2964	60	58
44.1832	44.2964	64	64
44.1832	44.2964	69	64
44.1832	44.2964	76	73
44.5228	44.6077	59	58
44.5228	44.6077	62	64
44.5228	44.6077	69	64
44.5228	44.6077	74	73
44.636	45.5184	57	60
44.636	45.5184	60	64
44.636	45.5184	69	68
44.636	45.5184	72	75
45.5184	45.9678	45	61
45.5184	45.9678	54	68
45.5184	45.9678	64	69
45.5184	45.9678	72	69
45.5184	45.9678	76	78
45.9678	46.4156	47	61
45.9678	46.4156	55	68
45.9678	46.4156	62	69
45.9678	46.4156	71	69
45.9678	46.4156	74	77
46.4156	46.8552	48	58
46.4156	46.8552	60	65
46.4156	46.8552	64	69
46.4156	46.8552	69	69
46.4156	46.8552	72	77
46.8552	47.3153	50	58
46.8552	47.3153	59	65
46.8552	47.3153	62	68
46.8552	47.3153	67	72
46.8552	47.3153	71	75
47.3153	47.7716	50	61
47.3153	47.7716	57	68
47.3153	47.7716	60	71
47.3153	47.7716	62	71
47.3153	47.7716	66	71
47.3153	47.7716	69	79
47.6511	47.7716	59	62
47.6511	47.7716	71	74
47.7716	48.6807	50	55
47.7716	48.6807	57	62
47.7716	48.6807	60	65
47.7716	48.6807	62	65
47.7716	48.6807	66	65
47.7716	48.6807	69	73
48.6807	49.1458	43	52
48.6807	49.1458	55	59
48.6807	49.1458	59	64
48.6807	49.1458	62	64
48.6807	49.1458	67	71
49.1458	49.622	53	62
49.1458	49.622	55	67
49.1458	49.622	67	82
49.622	50.94	52	63
49.622	50.4988	64	66
49.622	50.508	67	71
49.622	50.4988	76	71
49.622	50.508	79	79
50.2837	50.508	62	64
50.2837	50.508	65	69
50.2837	50.508	74	69
50.2837	50.508	77	76
50.4988	50.94	60	66
50.4988	50.94	64	71
50.4988	50.94	72	71
50.4988	50.94	76	79
50.94	51.3811	50	59
50.94	51.3811	62	66
50.94	51.3811	65	71
50.94	51.3811	74	71
50.94	51.3811	77	79
51.3811	52.4957	55	66
51.3811	51.834	60	66
51.3811	51.834	64	71
51.3811	51.834	72	71
51.3811	51.834	76	80
51.834	52.2751	59	68
51.834	52.2751	62	73
51.834	52.2751	71	73
51.834	52.2751	74	80
52.1648	52.2843	57	73
52.1648	52.2843	60	69
52.1648	52.2843	69	69
52.1648	52.2843	72	76
52.2751	52.7163	59	66
52.2751	52.7163	62	69
52.2751	52.7163	71	69
52.2751	52.7163	74	79
52.4957	52.606	53	73
52.7163	52.8242	52	76
52.7163	53.148	55	71
52.7163	53.148	65	70
52.7163	53.148	67	85
52.9321	53.04	50	73
53.148	54.4738	48	62
53.148	53.8077	60	70
53.148	53.8077	64	71
53.148	53.8077	72	71
53.148	53.8077	76	79
53.8077	54.0259	59	63
53.8077	53.9168	62	71
53.8077	53.9168	71	71
53.8077	53.9168	74	79
54.0259	54.2457	57	64
54.0259	54.1358	60	64
54.0259	54.1358	69	64
54.0259	54.1358	72	76
54.2457	54.4738	59	68
54.2457	54.3597	62	65
54.2457	54.3597	71	65
54.2457	54.3597	74	77
54.4738	54.9301	47	68
54.4738	54.6977	60	68
54.4738	54.5858	64	67
54.4738	54.5858	72	67
54.4738	54.5858	76	79
54.6977	54.9301	59	66
54.6977	54.8096	62	65
54.6977	54.8096	71	65
54.6977	54.8096	74	77
54.9301	56.0447	52	66
54.9301	55.383	57	66
54.9301	55.383	60	71
54.9301	55.383	69	71
54.9301	55.383	72	80
55.383	55.8241	56	68
55.383	55.8241	59	73
55.383	55.8241	68	73
55.383	55.8241	71	80
55.7138	55.8333	54	68
55.7138	55.8333	57	65
55.7138	55.8333	66	65
55.7138	55.8333	69	73
55.8241	56.2653	56	62
55.8241	56.2653	59	65
55.8241	56.2653	68	65
55.8241	56.2653	71	76
56.0447	56.155	50	76
56.2653	56.3789	48	79
56.2653	56.7198	52	74
56.2653	56.7198	62	71
56.2653	56.7198	64	80
56.4926	56.6062	45	76
56.7198	57.6058	45	59
56.7198	57.6058	48	59
56.7198	57.5967	57	66
56.7198	57.5967	60	71
56.7198	57.3816	64	71
56.7198	57.5967	69	79
57.3816	57.6058	52	57
57.3816	57.6058	59	64
57.3816	57.6058	64	69
57.3816	57.6058	71	76
57.5967	58.0378	57	59
57.5967	58.0378	60	66
57.5967	58.0378	69	71
57.5967	58.0378	72	79
58.0378	58.479	59	59
58.0378	58.479	62	66
58.0378	58.479	71	71
58.0378	58.479	74	79
58.479	58.9318	60	59
58.479	58.9318	64	66
58.479	58.9318	72	71
58.479	58.9318	76	80
58.9318	59.0405	52	76
58.9318	59.8194	64	76
58.9318	59.8194	67	76
58.9318	59.8194	76	76
58.9318	59.8194	79	86
59.1492	59.2637	53	77
59.3782	60.6922	55	84
59.8194	60.1431	62	62
59.8194	60.1431	65	70
59.8194	60.1431	74	71
59.8194	60.1431	77	80
60.1431	60.2511	60	59
60.1431	60.2511	64	66
60.1431	60.2511	72	68
60.1431	60.2511	76	76
60.2511	60.6922	60	62
60.2511	60.6922	64	70
60.2511	60.6922	72	71
60.2511	60.6922	76	79
60.6922	61.129	56	59
60.6922	61.0199	59	59
60.6922	61.0199	62	66
60.6922	61.0199	71	71
60.6922	61.0199	74	79
61.0199	61.129	57	57
61.0199	61.129	60	63
61.0199	61.129	69	68
61.0199	61.129	72	76
61.129	61.5769	57	59
61.129	61.5769	60	66
61.129	61.3488	69	71
61.129	61.3488	72	79
61.3488	61.5769	72	85
61.5769	62.0678	50	57
61.5769	62.0584	60	64
61.5769	62.0678	64	68
61.5769	62.0678	65	73
61.5769	62.0584	72	73
61.5769	62.0678	76	79
61.9312	62.0678	59	63
61.9312	62.0678	62	63
61.9312	62.0678	71	68
61.9312	62.0678	74	76
62.0584	63.2084	52	56
62.0584	62.9811	57	56
62.0584	62.9811	60	63
62.0584	62.9811	69	66
62.0584	62.9811	72	75
62.5129	62.8616	63	76
62.8616	62.9811	64	66
62.9811	63.2084	56	52
62.9811	63.2084	59	57
62.9811	63.2084	68	61
62.9811	63.2084	71	69
63.4357	63.8902	52	74
63.4357	63.8902	62	71
63.4357	63.8902	64	80
63.8902	64.7762	45	59
63.8902	64.7762	48	59
63.8902	64.767	57	66
63.8902	64.767	60	71
63.8902	64.552	64	71
63.8902	64.767	69	79
64.552	64.7762	52	57
64.552	64.7762	59	64
64.552	64.7762	64	69
64.552	64.7762	71	76
64.767	65.2082	57	59
64.767	65.2082	60	67
64.767	65.2082	69	71
64.767	65.2082	72	79
65.0979	65.2174	52	53
65.0979	65.2174	59	63
65.0979	65.2174	64	71
65.0979	65.2174	71	79
65.2082	65.656	57	57
65.2082	65.6494	60	68
65.2082	65.656	69	71
65.2082	65.6494	72	79
65.5391	65.656	59	52
65.5391	65.656	62	54
65.5391	65.656	71	71
65.5391	65.656	74	79
65.6494	66.1022	60	59
65.6494	66.1022	64	66
65.6494	66.1022	72	71
65.6494	66.1022	76	80
66.1022	66.9898	64	76
66.1022	66.9898	67	76
66.1022	66.9898	76	76
66.1022	66.9898	79	86
66.9898	68.6198	67	75
66.9898	68.6198	70	75
66.9898	68.6198	79	77
66.9898	68.6198	82	88
67.642	67.7523	65	75
67.8626	67.9686	64	71
68.0746	68.1806	62	71
68.2885	68.7314	61	66
68.6198	68.7035	67	63
68.6198	68.7035	70	67
68.6198	68.7035	79	67
68.6198	68.7035	82	79
68.7314	69.1708	65	65
68.7314	69.1745	69	73
68.7314	69.1708	77	73
68.7314	69.1745	81	81
69.0563	69.1745	64	59
69.0563	69.1745	67	68
69.0563	69.1745	76	68
69.0563	69.1745	79	76
69.1708	70.3676	62	71
69.1708	70.3676	65	75
69.1708	70.3676	74	75
69.1708	70.3676	77	84
69.3914	69.5017	60	71
69.6096	69.7156	59	71
69.8216	69.9276	57	71
70.0363	70.4791	56	66
70.3676	70.4512	62	63
70.3676	70.4512	65	67
70.3676	70.4512	74	67
70.3676	70.4512	77	79
70.4791	70.9165	60	65
70.4791	70.9211	64	73
70.4791	70.9165	72	73
70.4791	70.9211	76	81
70.8029	70.9211	59	59
70.8029	70.9211	62	68
70.8029	70.9211	71	68
70.8029	70.9211	74	76
70.9165	72.1179	57	71
70.9165	72.0064	60	75
70.9165	72.0064	69	75
70.9165	72.0064	72	84
71.1371	71.2474	55	71
71.3549	71.4644	54	71
71.5739	71.6834	52	71
71.7929	72.2294	51	66
72.0064	72.09	56	63
72.0064	72.09	59	67
72.0064	72.09	68	67
72.0064	72.09	71	79
72.2294	72.341	54	65
72.2294	72.341	57	73
72.2294	72.341	66	73
72.2294	72.341	69	81
72.4525	72.5361	56	59
72.4525	72.5361	59	68
72.4525	72.5361	68	68
72.4525	72.5361	71	76
72.676	74.1609	52	59
72.676	72.7875	57	71
72.676	72.7875	60	64
72.676	72.7875	69	64
72.676	72.7875	72	76
72.8986	73.0093	59	73
72.8986	73.0093	62	65
72.8986	73.0093	71	65
72.8986	73.0093	74	77
73.1195	73.2292	60	74
73.1195	73.2292	64	67
73.1195	73.2292	72	67
73.1195	73.2292	76	79
73.3386	73.4474	62	75
73.3386	73.4474	65	69
73.3386	73.4474	74	69
73.3386	73.4474	77	81
73.5569	73.6676	60	76
73.5569	73.6676	64	66
73.5569	73.6676	72	66
73.5569	73.6676	76	78
73.7795	73.8927	59	75
73.7795	73.8927	62	65
73.7795	73.8927	71	65
73.7795	73.8927	74	77
74.0071	74.1225	57	73
74.0071	74.1225	60	64
74.0071	74.1225	69	64
74.0071	74.1225	72	76
74.3639	74.4585	52	58
74.3639	74.4585	59	70
74.3639	74.4585	64	64
74.3639	74.4585	71	76
74.49	75.4984	52	58
74.49	75.4984	59	70
74.49	75.4984	64	64
74.49	75.4984	71	76
75.4984	76.0026	45	59
75.4984	76.0026	57	71
75.4984	76.0026	60	64
75.4984	76.0026	69	76
76.1097	76.2169	69	34
76.2169	76.324	68	34
76.324	76.4311	69	34
76.4311	76.5335	71	41
76.5335	76.6359	68	35
76.6359	76.7513	64	35
76.8667	77.2842	52	23
76.8667	77.2842	56	23
76.8667	77.2842	59	27
76.9738	77.0773	71	34
77.0773	77.1807	68	34
77.1807	77.2842	64	34
77.2842	77.3862	72	41
77.3862	77.4883	69	34
77.4883	77.6032	64	34
77.7182	78.1367	52	23
77.7182	78.1367	57	23
77.7182	78.1367	60	27
77.8253	77.9291	72	36
77.9291	78.0329	69	36
78.0329	78.1367	64	36
78.1367	78.2395	69	41
78.2395	78.3422	66	36
78.3422	78.4576	63	36
78.573	78.9915	52	23
78.573	78.9915	54	23
78.573	78.9915	57	27
78.6801	78.7839	69	36
78.7839	78.8877	66	36
78.8877	78.9915	63	36
78.9915	79.0939	71	41
79.0939	79.1963	68	35
79.1963	79.3108	64	35
79.4253	79.8417	52	23
79.4253	79.8417	56	23
79.4253	79.8417	59	27
79.5325	79.6356	66	39
79.6356	79.7387	68	39
79.7387	79.8417	69	39
79.8417	80.2784	40	27
79.8417	80.2757	52	32
79.8417	80.2784	71	42
79.9438	80.2784	68	38
80.0458	80.2784	64	38
80.2757	80.697	52	25
80.2757	80.697	59	25
80.2757	80.697	62	31
80.3829	80.697	71	46
80.4856	80.697	68	47
80.5884	80.697	64	47
80.6911	81.127	72	53
80.7928	81.127	69	48
80.8945	81.127	64	48
81.1235	81.5399	52	32
81.1235	81.5441	57	32
81.1235	81.5441	60	38
81.2306	81.5441	72	53
81.3337	81.5399	69	54
81.4368	81.5441	64	54
81.5399	81.9792	40	33
81.5399	81.973	52	38
81.5399	81.9792	69	60
81.6419	81.9792	66	56
81.744	81.9792	63	56
81.973	82.396	52	37
81.973	82.396	54	37
81.973	82.396	57	37
81.973	82.396	60	45
82.0801	82.396	69	58
82.1836	82.396	66	58
82.287	82.396	63	58
82.3905	82.8418	71	71
82.5016	82.8418	68	59
82.6127	82.8418	64	60
82.8333	83.0606	52	57
82.8333	83.2916	56	63
82.8333	83.287	59	78
83.0606	83.2916	40	57
83.0606	83.287	52	63
83.0606	83.287	64	79
83.287	84.173	44	59
83.287	83.9487	52	66
83.287	84.173	59	71
83.287	83.9487	64	71
83.287	84.173	71	79
83.9487	84.173	45	57
83.9487	84.1638	52	64
83.9487	84.173	60	69
83.9487	84.1638	64	69
83.9487	84.173	72	76
84.1638	84.605	47	59
84.1638	84.605	52	66
84.1638	84.605	62	71
84.1638	84.605	64	71
84.1638	84.605	74	79
84.605	85.0461	45	59
84.605	85.0461	52	66
84.605	85.0461	60	71
84.605	85.0461	64	71
84.605	85.0461	72	79
85.0461	85.1593	50	59
85.0461	85.1593	52	66
85.0461	85.1593	65	71
85.0461	85.1593	68	71
85.0461	85.1593	77	80
85.3858	85.4707	48	59
85.3858	85.4707	52	66
85.3858	85.4707	64	71
85.3858	85.4707	68	71
85.3858	85.4707	76	80
85.499	86.3813	47	64
85.499	86.3813	52	73
85.499	86.3813	62	76
85.499	86.3813	68	76
85.499	86.3813	74	86
86.3813	86.813	50	62
86.3813	86.813	52	62
86.3813	86.813	62	70
86.3813	86.813	65	71
86.3813	86.813	68	71
86.3813	86.813	77	80
86.813	87.2542	48	62
86.813	87.2542	52	62
86.813	87.2542	60	70
86.813	87.2542	64	71
86.813	87.2542	69	71
86.813	87.2542	76	79
87.2542	87.6909	45	59
87.2542	87.6909	52	59
87.2542	87.6909	57	66
87.2542	87.6909	60	71
87.2542	87.6909	64	71
87.2542	87.6909	72	79
87.6909	88.1388	44	62
87.6909	88.1388	52	62
87.6909	88.1388	56	69
87.6909	88.1388	59	75
87.6909	88.1388	64	71
87.6909	88.1388	71	75
88.1388	88.601	42	57
88.1388	88.5952	52	57
88.1388	88.601	54	70
88.1388	88.5952	60	66
88.1388	88.5952	63	73
88.1388	88.5952	69	76
88.4747	88.601	71	76
88.5952	89.0639	40	56
88.5952	89.5458	52	67
88.5952	89.5458	60	66
88.5952	89.5458	63	66
88.5952	89.5458	69	75
89.0639	89.9909	28	66
89.0639	89.9909	40	76
89.5364	89.9909	59	65
89.5364	89.9909	64	65
89.5364	89.9909	68	73
89.9909	90.4524	40	56
89.9909	90.4524	52	63
89.9909	90.4524	64	79
90.4524	91.3458	50	56
90.4524	91.1216	52	56
90.4524	91.3458	56	66
90.4524	91.3366	59	71
90.4524	91.3458	64	71
90.4524	91.3458	71	79
91.1216	91.3458	48	54
91.1216	91.3366	52	54
91.1216	91.3458	57	64
91.1216	91.3458	60	69
91.1216	91.3458	69	69
91.1216	91.3458	72	76
91.3366	91.7778	47	56
91.3366	91.7778	52	56
91.3366	91.7778	59	66
91.3366	91.776	62	71
91.3366	91.7778	68	71
91.3366	91.7778	74	79
91.7778	92.219	50	56
91.7778	92.219	52	56
91.7778	92.219	62	66
91.7778	92.219	65	71
91.7778	92.219	68	71
91.7778	92.219	77	79
92.219	92.3322	48	56
92.219	92.3322	52	56
92.219	92.3322	60	66
92.219	92.3322	64	71
92.219	92.3322	69	71
92.219	92.3322	76	80
92.5586	92.6435	47	56
92.5586	92.6435	52	56
92.5586	92.6435	59	66
92.5586	92.6435	62	71
92.5586	92.6435	69	71
92.5586	92.6435	74	80
92.6718	93.5542	45	57
92.6718	93.5542	52	57
92.6718	93.5542	57	68
92.6718	93.5542	60	71
92.6718	93.5542	69	76
92.6718	93.5542	72	84
93.5542	94.0211	33	65
93.5542	94.0211	45	74
93.5542	94.0211	64	75
93.5542	94.0211	66	75
93.5542	94.0211	72	75
93.5542	94.0211	76	84
94.0211	94.5011	35	65
94.0211	94.5011	47	74
94.0211	94.5011	62	75
94.0211	94.5011	67	75
94.0211	94.5011	71	75
94.0211	94.5011	74	83
94.5011	94.9662	36	62
94.5011	94.9662	48	69
94.5011	94.9662	60	75
94.5011	94.9662	64	75
94.5011	94.9662	69	75
94.5011	94.9662	72	83
94.9662	95.4405	38	62
94.9662	95.4405	50	69
94.9662	95.4405	59	74
94.9662	95.4405	62	74
94.9662	95.4405	67	76
94.9662	95.4405	71	80
95.4405	95.9413	38	65
95.4405	95.9413	50	74
95.4405	95.9357	57	76
95.4405	95.9357	60	76
95.4405	95.9357	66	76
95.4405	95.9357	69	85
95.8064	95.9413	59	78
95.8064	95.9413	71	78
95.9357	96.8656	31	63
95.9357	96.3868	43	73
95.9357	96.8656	57	69
95.9357	96.8656	60	69
95.9357	96.8656	66	69
95.9357	96.8656	69	77
96.3868	97.3394	43	77
96.3868	97.3394	55	90
96.8556	97.3394	59	68
96.8556	97.3394	62	68
96.8556	97.3394	67	76
97.3394	97.8612	41	69
97.3394	97.8612	53	78
97.3394	97.8612	67	88
97.8612	99.2577	40	66
97.8612	99.2577	43	66
97.8612	99.2577	48	66
97.8612	98.3431	52	70
97.8612	99.2577	67	75
97.8612	98.7954	76	76
97.8612	99.2577	79	88
98.3431	99.2577	52	66
98.3431	99.2577	55	66
98.3431	99.2577	60	66
98.3431	98.7954	64	66
98.5757	99.2483	65	73
98.5757	99.2483	74	73
98.5757	99.2483	77	79
98.7954	99.2577	64	75
98.7954	99.2577	72	75
98.7954	99.2577	76	83
99.2483	99.7011	38	57
99.2483	99.7011	50	69
99.2483	99.7011	65	75
99.2483	99.7011	74	75
99.2483	99.7011	77	83
99.7011	100.168	43	48
99.7011	100.168	55	57
99.7011	100.168	64	75
99.7011	100.168	72	75
99.7011	100.168	76	84
100.168	100.842	31	48
100.168	100.842	43	57
100.168	100.616	62	76
100.168	100.616	71	76
100.168	100.616	74	84
100.504	100.624	60	73
100.504	100.624	69	73
100.504	100.624	72	79
100.616	101.069	62	73
100.616	101.069	71	73
100.616	101.069	74	83
100.842	101.069	41	59
100.842	101.069	53	69
101.069	101.241	40	61
101.069	101.241	52	73
101.069	101.528	65	74
101.069	101.528	67	89
101.298	101.471	38	59
101.298	101.471	50	69
101.528	102.889	36	66
101.528	101.986	48	71
101.528	102.88	64	75
101.528	102.43	72	76
101.528	102.88	76	85
101.986	102.889	48	66
101.986	102.889	52	66
101.986	102.889	57	66
101.986	102.43	60	66
102.209	102.655	62	75
102.209	102.655	71	75
102.209	102.655	74	83
102.43	102.889	60	67
102.43	102.889	69	67
102.43	102.88	72	78
102.655	102.889	62	68
102.655	102.889	71	68
102.655	102.889	74	80
102.88	103.338	35	67
102.88	103.338	47	71
102.88	102.994	64	70
102.88	102.994	72	70
102.88	102.994	76	83
103.109	103.223	62	68
103.109	103.223	71	68
103.109	103.223	74	80
103.338	103.799	40	57
103.338	103.799	52	69
103.338	103.799	60	75
103.338	103.799	69	75
103.338	103.799	72	84
103.799	104.474	28	57
103.799	104.474	40	69
103.799	104.251	59	76
103.799	104.251	68	76
103.799	104.251	71	84
104.138	104.26	57	68
104.138	104.26	66	68
104.138	104.26	69	76
104.251	104.697	59	68
104.251	104.697	68	68
104.251	104.697	71	78
104.474	104.697	38	63
104.474	104.697	50	76
104.697	104.874	36	67
104.697	104.874	48	79
104.697	105.191	62	75
104.697	105.191	64	84
104.935	105.125	35	63
104.935	105.125	47	76
105.191	106.09	33	65
105.191	106.081	45	76
105.191	106.081	57	75
105.191	106.081	60	75
105.191	105.865	64	75
105.191	106.081	69	83
105.417	105.865	40	57
105.417	105.865	52	69
105.641	106.09	36	60
105.641	106.09	48	74
105.865	106.09	40	57
105.865	106.09	52	69
105.865	106.09	59	73
105.865	106.09	64	73
105.865	106.09	71	79
106.081	106.538	45	62
106.081	106.538	57	75
106.081	106.538	60	75
106.081	106.538	69	75
106.081	106.538	72	83
106.305	106.538	40	57
106.305	106.538	52	69
106.529	106.99	47	62
106.529	106.99	59	75
106.529	106.99	62	75
106.529	106.99	71	75
106.529	106.99	74	83
106.755	106.99	40	57
106.755	106.99	52	69
106.982	107.205	48	63
106.982	107.205	60	76
106.982	107.429	64	75
106.982	107.429	72	75
106.982	107.429	76	84
107.205	107.429	47	57
107.205	107.429	59	69
107.429	107.647	48	58
107.429	107.647	60	70
107.429	108.314	67	79
107.429	108.314	76	79
107.429	108.314	79	90
107.647	107.871	50	59
107.647	107.871	62	73
107.871	108.092	52	60
107.871	108.092	64	74
108.092	108.314	43	56
108.092	108.314	55	67
108.314	108.753	45	58
108.314	108.753	57	70
108.314	108.753	65	75
108.314	108.753	74	75
108.314	108.753	77	84
108.525	108.753	47	60
108.525	108.753	59	74
108.636	108.747	64	71
108.636	108.747	72	71
108.636	108.747	76	78
108.747	108.963	48	63
108.747	108.963	60	76
108.747	109.179	64	75
108.747	109.179	72	75
108.747	109.179	76	83
108.963	109.179	40	56
108.963	109.179	52	67
109.179	109.623	42	57
109.179	109.623	54	69
109.179	109.623	62	75
109.179	109.623	71	75
109.179	109.623	74	83
109.393	109.623	44	58
109.393	109.623	56	70
109.503	109.613	60	71
109.503	109.613	69	71
109.503	109.613	72	78
109.613	109.84	45	59
109.613	109.84	57	73
109.613	110.063	60	75
109.613	110.063	69	75
109.613	110.063	72	83
109.84	110.063	36	57
109.84	110.063	48	69
110.063	110.544	41	60
110.063	110.544	53	74
110.063	110.544	64	76
110.063	110.534	72	76
110.063	110.544	76	85
110.294	110.544	38	57
110.294	110.544	50	69
110.41	110.544	62	71
110.41	110.544	71	71
110.41	110.544	74	78
110.534	110.761	40	62
110.534	110.761	52	75
110.534	111.44	60	69
110.534	111.44	69	69
110.534	111.44	72	77
110.761	110.987	39	57
110.761	110.987	51	69
110.987	111.214	40	57
110.987	111.214	52	69
111.214	111.44	39	57
111.214	111.44	51	69
111.44	111.9	40	60
111.44	111.9	52	74
111.44	111.9	59	68
111.44	111.9	68	68
111.44	111.9	71	76
111.667	111.9	38	57
111.667	111.9	50	69
111.893	112.344	35	57
111.893	112.344	47	69
111.893	112.344	62	75
111.893	112.338	64	84
112.116	112.344	36	57
112.116	112.344	48	69
112.338	113.218	33	65
112.338	113.209	45	76
112.338	113.209	57	75
112.338	113.209	60	75
112.338	112.997	64	75
112.338	113.209	69	83
112.559	112.997	40	57
112.559	112.997	52	69
112.779	113.218	36	60
112.779	113.218	48	74
112.997	113.218	40	57
112.997	113.218	52	69
112.997	113.218	59	73
112.997	113.218	64	73
112.997	113.218	71	79
113.209	113.643	45	62
113.209	113.643	57	75
113.209	113.643	60	75
113.209	113.643	69	75
113.209	113.643	72	83
113.426	113.653	40	57
113.426	113.653	52	69
113.535	113.653	59	75
113.535	113.653	68	75
113.535	113.653	71	83
113.643	114.085	45	62
113.643	114.085	57	75
113.643	114.078	60	75
113.643	114.085	69	75
113.643	114.078	72	83
113.861	114.085	47	57
113.861	114.085	59	69
113.97	114.085	62	75
113.97	114.085	71	75
113.97	114.085	74	83
114.078	114.3	48	63
114.078	114.3	60	76
114.078	114.522	64	75
114.078	114.522	72	75
114.078	114.522	76	84
114.3	114.522	47	57
114.3	114.522	59	69
114.522	114.735	48	58
114.522	114.735	60	70
114.522	115.396	67	79
114.522	115.396	76	79
114.522	115.396	79	90
114.735	114.959	50	59
114.735	114.959	62	73
114.959	115.177	52	60
114.959	115.177	64	74
115.177	115.396	53	56
115.177	115.396	65	67
115.396	115.62	55	58
115.396	115.62	67	70
115.396	115.859	70	80
115.396	117.053	79	80
115.396	117.053	82	92
115.62	115.859	57	60
115.62	115.859	69	74
115.859	116.732	58	62
115.859	117.053	70	76
116.08	116.732	55	66
116.08	116.732	67	77
116.301	116.732	52	62
116.301	116.732	64	75
116.513	116.732	50	62
116.513	116.732	62	75
116.726	117.642	49	65
116.726	117.642	61	69
117.053	117.512	67	66
117.053	117.642	70	76
117.053	117.512	79	76
117.053	117.642	82	83
117.165	117.636	65	68
117.165	117.642	69	76
117.165	117.636	77	76
117.165	117.642	81	85
117.512	117.642	64	62
117.512	117.642	67	71
117.512	117.642	76	71
117.512	117.642	79	78
117.636	117.857	50	65
117.636	117.857	62	77
117.636	118.843	65	77
117.636	118.843	74	77
117.636	118.843	77	88
117.857	117.968	48	65
117.857	117.968	60	74
118.078	118.185	47	65
118.078	118.185	59	74
118.292	118.404	45	65
118.292	118.404	57	74
118.516	119.433	44	59
118.516	119.433	56	73
118.843	119.301	62	66
118.843	119.433	65	70
118.843	119.301	74	70
118.843	119.433	77	83
118.954	119.426	60	68
118.954	119.433	64	76
118.954	119.426	72	76
118.954	119.433	76	85
119.301	119.433	59	62
119.301	119.433	62	71
119.301	119.433	71	71
119.301	119.433	74	78
119.426	119.648	45	65
119.426	119.648	57	73
119.426	120.643	60	74
119.426	120.643	69	77
119.426	120.643	72	82
119.648	119.758	43	63
119.648	119.758	55	73
119.869	119.978	42	65
119.869	119.978	54	74
120.086	120.199	40	65
120.086	120.199	52	74
120.311	120.531	39	59
120.311	120.531	51	73
120.531	120.643	56	49
120.531	120.643	59	42
120.531	120.643	68	42
120.531	120.643	71	60
120.755	120.864	54	53
120.755	120.864	57	53
120.755	120.864	66	53
120.755	120.864	69	64
120.973	121.082	56	48
120.973	121.082	59	52
120.973	121.082	68	52
120.973	121.082	71	62
121.191	121.298	40	48
121.191	121.298	52	52
121.191	121.298	60	52
121.191	121.298	69	52
121.191	121.298	72	63
121.405	121.515	59	54
121.405	121.515	62	54
121.405	121.515	71	54
121.405	121.515	74	65
121.626	121.733	60	55
121.626	121.733	64	56
121.626	121.733	72	56
121.626	121.733	76	67
121.839	121.949	62	57
121.839	121.949	65	57
121.839	121.949	74	57
121.839	121.949	77	69
122.058	122.164	60	58
122.058	122.164	64	57
122.058	122.164	72	57
122.058	122.164	76	68
122.271	122.378	59	58
122.271	122.378	62	57
122.271	122.378	71	57
122.271	122.378	74	68
122.486	122.593	57	57
122.486	122.593	60	57
122.486	122.593	69	57
122.486	122.593	72	68
122.7	122.807	52	56
122.7	122.807	59	58
122.7	122.807	68	58
122.7	122.807	71	68
122.914	123.02	57	57
122.914	123.02	60	59
122.914	123.02	69	59
122.914	123.02	72	70
123.125	123.233	59	58
123.125	123.233	62	59
123.125	123.233	71	59
123.125	123.233	74	71
123.342	123.447	60	62
123.342	123.447	64	63
123.342	123.447	72	63
123.342	123.447	76	76
123.552	123.661	62	64
123.552	123.661	65	65
123.552	123.661	74	65
123.552	123.661	77	78
123.769	123.875	60	65
123.769	123.875	64	63
123.769	123.875	72	63
123.769	123.875	76	76
123.981	124.086	59	66
123.981	124.086	62	64
123.981	124.086	71	64
123.981	124.086	74	76
124.192	124.296	57	65
124.192	124.296	60	64
124.192	124.296	69	64
124.192	124.296	72	76
124.401	124.505	44	53
124.401	124.505	47	53
124.401	124.505	56	63
124.401	124.505	59	64
124.401	124.505	68	64
124.401	124.505	71	76
124.61	124.716	45	56
124.61	124.716	48	56
124.61	124.716	57	66
124.61	124.716	60	66
124.61	124.716	69	66
124.61	124.716	72	79
124.821	124.929	47	57
124.821	124.929	50	57
124.821	124.929	59	68
124.821	124.929	62	68
124.821	124.929	71	68
124.821	124.929	74	81
125.038	125.141	48	58
125.038	125.141	52	58
125.038	125.141	60	69
125.038	125.141	64	70
125.038	125.141	72	70
125.038	125.141	76	84
125.244	125.35	50	58
125.244	125.35	53	58
125.244	125.35	62	70
125.244	125.35	65	73
125.244	125.35	74	73
125.244	125.35	77	86
125.456	125.561	48	59
125.456	125.561	52	59
125.456	125.561	60	71
125.456	125.561	64	69
125.456	125.561	72	69
125.456	125.561	76	83
125.667	125.773	47	58
125.667	125.773	50	58
125.667	125.773	59	70
125.667	125.773	62	68
125.667	125.773	71	68
125.667	125.773	74	81
125.878	125.984	45	57
125.878	125.984	48	57
125.878	125.984	57	68
125.878	125.984	60	67
125.878	125.984	69	67
125.878	125.984	72	80
126.088	126.193	44	57
126.088	126.193	47	57
126.088	126.193	56	67
126.088	126.193	59	68
126.088	126.193	68	68
126.088	126.193	71	80
126.297	126.402	45	56
126.297	126.402	48	56
126.297	126.402	57	66
126.297	126.402	60	70
126.297	126.402	69	70
126.297	126.402	72	84
126.507	126.615	47	56
126.507	126.615	50	56
126.507	126.615	59	67
126.507	126.615	62	71
126.507	126.615	71	71
126.507	126.615	74	85
126.723	126.828	48	57
126.723	126.828	52	57
126.723	126.828	60	68
126.723	126.828	64	74
126.723	126.828	72	74
126.723	126.828	76	88
126.934	127.042	50	58
126.934	127.042	53	58
126.934	127.042	62	69
126.934	127.042	65	76
126.934	127.042	74	76
126.934	127.042	77	90
127.151	127.256	48	59
127.151	127.256	52	59
127.151	127.256	60	71
127.151	127.256	64	74
127.151	127.256	72	74
127.151	127.256	76	87
127.361	127.467	47	59
127.361	127.467	50	59
127.361	127.467	59	71
127.361	127.467	62	74
127.361	127.467	71	74
127.361	127.467	74	87
127.572	127.677	45	57
127.572	127.677	48	57
127.572	127.677	57	68
127.572	127.677	60	73
127.572	127.677	69	73
127.572	127.677	72	86
127.782	127.892	44	57
127.782	127.892	47	57
127.782	127.892	56	67
127.782	127.892	59	73
127.782	127.892	68	73
127.782	127.892	71	86
128.002	128.162	45	54
128.002	128.162	48	54
128.002	128.162	57	71
128.002	128.162	60	72
128.002	128.162	69	72
128.002	128.162	72	93
128.216	128.378	44	52
128.216	128.378	47	52
128.216	128.378	56	65
128.216	128.378	59	69
128.216	128.378	68	69
128.216	128.378	71	89
128.432	128.594	45	54
128.432	128.594	48	54
128.432	128.594	57	71
128.432	128.594	60	72
128.432	128.594	69	72
128.432	128.594	72	93
128.648	128.811	44	51
128.648	128.811	47	51
128.648	128.811	56	64
128.648	128.811	59	67
128.648	128.811	68	67
128.648	128.811	71	85
128.866	129.03	45	54
128.866	129.03	48	54
128.866	129.03	57	71
128.866	129.03	60	72
128.866	129.03	69	72
128.866	129.03	72	93
129.084	129.249	44	51
129.084	129.249	47	51
129.084	129.249	56	64
129.084	129.249	59	66
129.084	129.249	68	66
129.084	129.249	71	83
129.304	129.47	45	54
129.304	129.47	48	54
129.304	129.47	57	71
129.304	129.47	60	72
129.304	129.47	69	72
129.304	129.47	72	93
129.527	129.698	44	50
129.527	129.698	47	50
129.527	129.698	56	63
129.527	129.698	59	66
129.527	129.698	68	66
129.527	129.698	71	83
129.756	130.223	45	54
129.756	130.223	48	54
129.756	130.223	57	71
129.756	129.931	60	72
129.756	129.931	69	72
129.756	129.931	72	93
129.989	130.165	59	67
129.989	130.165	68	67
129.989	130.165	71	85
130.223	130.756	41	53
130.223	130.756	45	53
130.223	130.756	53	66
130.223	130.756	60	72
130.223	130.756	69	72
130.223	130.709	72	93
130.462	130.756	62	66
130.462	130.756	71	66
130.462	130.756	74	83
130.709	131.203	40	53
130.709	131.203	44	53
130.709	131.203	52	66
130.709	131.203	64	72
130.709	131.203	72	72
130.709	131.203	76	93
131.203	131.697	40	52
131.203	131.697	47	67
131.203	131.697	52	67
131.203	131.697	59	68
131.203	131.697	64	68
131.203	131.697	71	88
131.573	131.703	48	58
131.573	131.703	60	63
131.573	131.703	72	81
131.697	132.709	40	52
131.697	132.709	47	52
131.697	132.709	52	67
131.697	132.709	59	68
131.697	132.709	64	68
131.697	132.709	71	88
132.709	133.216	33	49
132.709	133.216	45	62
132.709	133.216	57	63
132.709	133.216	69	81
133.323	133.426	71	68
133.426	133.53	72	69
133.53	133.633	74	66
133.633	133.971	76	76
133.734	133.971	72	64
133.835	133.971	69	64
134.066	134.484	57	38
134.066	134.484	60	38
134.066	134.484	64	46
134.173	134.277	76	70
134.277	134.381	72	69
134.381	134.484	69	69
134.484	134.869	77	76
134.585	134.869	74	64
134.686	134.869	69	64
134.916	135.652	57	38
134.916	135.652	62	38
134.916	135.652	65	46
135.023	135.127	77	68
135.127	135.23	74	68
135.23	135.652	69	68
135.334	135.652	74	76
135.436	135.652	71	64
135.537	135.652	68	64
135.768	136.187	57	39
135.768	136.187	59	39
135.768	136.187	62	48
135.875	135.979	74	64
135.979	136.083	71	64
136.083	136.187	68	64
136.187	136.553	76	75
136.288	136.553	72	62
136.389	136.553	69	63
136.618	137.037	57	33
136.618	137.037	60	33
136.618	137.037	64	38
136.726	136.829	71	47
136.829	136.933	72	47
136.933	137.037	74	48
137.037	137.37	76	57
137.138	137.37	73	46
137.239	137.37	69	46
137.469	137.887	57	32
137.469	137.887	64	32
137.469	137.887	67	37
137.576	137.68	76	44
137.68	137.784	73	44
137.784	137.887	69	44
137.887	138.243	77	52
137.989	138.243	74	42
138.09	138.243	69	42
138.319	138.738	57	28
138.319	138.738	62	28
138.319	138.738	65	36
138.426	138.53	77	44
138.53	138.634	74	44
138.634	138.738	69	44
138.738	139.103	74	50
138.839	139.103	71	42
138.94	139.103	68	42
139.169	139.587	57	27
139.169	139.587	59	27
139.169	139.587	62	27
139.169	139.587	65	33
139.276	139.38	74	43
139.38	139.483	71	43
139.483	139.587	68	43
139.587	139.855	76	49
139.689	139.855	72	41
139.791	139.902	57	26
139.791	139.902	60	26
139.791	139.902	64	35
139.791	139.902	69	41
140.012	140.637	57	26
140.012	140.689	62	26
140.012	140.689	65	34
140.119	140.223	74	43
140.223	140.327	71	43
140.327	140.689	68	43
140.432	140.689	76	52
140.534	140.689	72	43
140.637	140.747	57	28
140.637	140.747	60	28
140.637	140.747	64	37
140.637	140.747	69	43
140.858	141.275	57	27
140.858	141.275	62	27
140.858	141.275	65	34
140.964	141.067	74	39
141.067	141.171	71	39
141.171	141.275	68	39
141.275	142.525	57	27
141.275	141.703	60	27
141.275	141.703	64	34
141.275	141.703	76	47
141.378	141.703	72	39
141.481	141.703	69	38
141.587	141.703	74	38
141.694	142.117	62	25
141.694	142.117	65	31
141.694	142.117	71	38
141.8	142.117	68	38
141.906	142.117	76	46
142.008	142.117	72	41
142.111	142.525	60	25
142.111	142.525	64	32
142.111	142.531	69	38
142.216	142.531	74	38
142.319	142.531	62	25
142.319	142.531	65	32
142.319	142.531	71	38
142.422	142.531	68	38
142.525	143.781	57	33
142.525	142.95	60	27
142.525	142.95	64	33
142.525	142.95	76	45
142.628	142.95	72	38
142.73	142.95	69	38
142.836	142.95	74	38
142.942	143.368	62	24
142.942	143.368	65	29
142.942	143.368	71	38
143.048	143.368	68	37
143.154	143.368	76	44
143.257	143.368	72	37
143.36	143.781	60	24
143.36	143.781	64	28
143.36	143.79	69	37
143.465	143.79	74	37
143.57	143.79	62	24
143.57	143.79	65	28
143.57	143.79	71	37
143.675	143.79	68	37
143.781	151.635	57	25
143.781	151.635	60	25
143.781	151.635	64	32
143.781	144.104	76	41
143.889	144.212	72	35
143.997	144.319	69	35
144.104	144.425	76	35
144.212	144.532	72	35
144.319	144.639	69	34
144.425	144.746	76	42
144.532	144.854	72	35
144.639	144.961	69	35
144.746	145.069	76	35
144.854	145.177	72	36
144.961	145.286	69	36
145.069	145.394	76	41
145.177	145.503	72	36
145.286	145.613	69	36
145.394	145.723	76	36
145.503	145.833	72	36
145.613	145.945	69	34
145.723	146.056	76	39
145.833	146.169	72	33
145.945	146.281	69	33
146.056	146.395	76	33
146.169	147.341	72	33
146.281	147.901	69	33
146.395	151.635	33	25
146.395	151.635	45	31
146.395	151.635	76	38
147.341	151.635	72	35
147.901	151.635	69	35
