OnsetTime	OffsetTime	MidiPitch	Velocity
0.500004	1.93377	49	34
0.809505	1.01343	68	39
0.884835	1.01343	65	39
0.962055	1.06938	61	39
1.04144	1.20913	56	44
1.37682	1.97417	56	33
1.37682	1.97417	61	33
1.37682	1.97417	65	39
1.37682	1.97417	68	40
1.67239	1.97417	44	34
1.97417	2.30233	50	39
1.97417	2.30233	56	36
1.97417	2.30233	59	36
1.97417	2.30233	65	43
1.97417	2.30233	68	43
2.30233	3.72918	51	49
2.61183	2.81786	68	39
2.68817	2.81786	66	39
2.76614	2.87377	60	39
2.84597	3.01275	56	44
3.17953	3.77331	56	34
3.17953	3.77331	60	34
3.17953	3.77331	66	41
3.17953	3.77331	68	42
3.47079	3.77331	44	39
3.77331	4.11809	48	35
3.77331	4.11809	56	32
3.77331	4.11809	64	38
3.77331	4.11809	68	38
4.11809	5.54378	49	27
4.42761	4.63117	68	27
4.50294	4.63117	65	27
4.58001	4.68687	61	27
4.65907	4.82585	56	30
4.99263	5.58399	56	27
4.99263	5.58399	61	27
4.99263	5.58399	65	27
4.99263	5.58399	68	29
5.28248	5.58399	44	27
5.58399	5.91214	50	31
5.58399	5.91214	56	26
5.58399	5.91214	59	26
5.58399	5.91214	65	26
5.58399	5.91214	68	26
5.91214	7.36971	51	36
6.22164	6.43094	68	27
6.29916	6.43094	66	27
6.37838	6.48745	60	27
6.4595	6.62719	56	30
6.79488	7.40561	56	31
6.79488	7.40561	60	31
6.79488	7.40561	66	31
6.79488	7.40561	68	33
7.09792	7.40561	44	31
7.40561	7.72353	48	34
7.40561	7.72353	56	31
7.40561	7.72353	64	31
7.40561	7.72353	68	31
7.75243	8.34488	49	39
7.75243	8.34488	65	45
7.75243	8.34488	77	46
8.13602	8.34488	55	32
8.21265	8.34488	56	32
8.29093	8.37109	61	31
8.37109	9.29884	65	45
8.37109	9.29884	77	47
8.70465	9.29884	68	42
8.99733	9.29884	44	38
9.29884	9.46292	56	34
9.29884	9.46292	61	34
9.29884	9.627	65	41
9.29884	9.46292	68	34
9.29884	9.627	77	41
9.627	10.1687	49	39
9.627	10.1687	65	46
9.627	10.1687	77	46
9.97375	10.1687	55	32
10.0519	10.1687	56	32
10.0914	10.2126	68	43
10.0914	10.2126	80	43
10.1314	10.2405	61	31
10.2126	10.5479	65	38
10.2126	11.4795	68	43
10.2126	11.4795	80	43
10.5479	11.0521	56	40
10.5479	11.0521	61	40
10.5479	11.0521	65	40
10.8421	11.0521	44	38
11.1513	11.3154	56	30
11.1513	11.3154	61	30
11.1513	11.3154	65	30
11.4795	12.0302	51	46
11.7864	12.0302	55	38
11.7864	12.0834	66	55
11.7864	12.1076	78	55
11.8854	12.0302	56	38
11.9844	12.1076	60	37
12.0834	12.3733	66	45
12.0834	12.5961	68	58
12.0834	12.5961	80	58
12.3733	12.6703	56	49
12.3733	12.6703	60	49
12.3733	12.6703	66	49
12.3733	13.2947	70	61
12.3733	13.2947	82	61
12.6703	13.2947	44	47
12.6703	13.2947	73	64
12.6703	13.2947	85	64
12.9734	13.2947	56	38
12.9734	13.2947	60	38
12.9734	13.2947	66	38
12.9734	13.3205	72	62
12.9734	13.3205	84	62
13.2947	13.9488	51	53
13.2947	13.9488	75	71
13.2947	13.9488	87	71
13.6047	13.9488	55	38
13.6047	13.9488	70	56
13.6047	13.9488	82	56
13.7055	13.9488	56	38
13.8063	13.9488	60	37
13.907	14.0685	66	45
13.907	15.159	68	55
13.907	15.159	80	55
14.2301	14.7362	56	43
14.2301	14.7362	60	43
14.2301	14.7362	66	43
14.5213	14.7362	44	37
14.8377	14.9983	56	36
14.8377	14.9983	60	36
14.8377	14.9983	66	36
15.159	15.7519	49	46
15.159	15.7519	65	53
15.159	15.7519	77	53
15.5426	15.7519	55	38
15.6195	15.7519	56	38
15.6979	15.7781	61	37
15.7781	16.7002	65	53
15.7781	16.7002	77	53
16.1117	16.7002	68	50
16.3987	16.7002	44	45
16.7002	16.8643	56	40
16.7002	16.8643	61	40
16.7002	17.0284	65	49
16.7002	16.8643	68	40
16.7002	17.0284	77	49
17.0284	17.5742	49	46
17.0284	17.5742	65	55
17.0284	17.5742	77	55
17.3751	17.5742	55	38
17.456	17.5742	56	38
17.4964	17.6177	68	51
17.4964	17.6177	80	51
17.5369	17.6457	61	37
17.6177	17.9531	65	45
17.6177	18.8832	68	51
17.6177	18.8832	80	51
17.9531	18.4558	56	48
17.9531	18.4558	61	48
17.9531	18.4558	65	48
18.2458	18.4558	44	45
18.5551	18.7191	56	36
18.5551	18.7191	61	36
18.5551	18.7191	65	36
18.8832	19.4339	51	46
19.1901	19.4339	55	38
19.1901	19.4871	66	55
19.1901	19.5115	78	55
19.2891	19.4339	56	38
19.3881	19.5115	60	37
19.4871	19.7798	66	45
19.4871	20.0026	68	58
19.4871	20.0026	80	58
19.7798	20.0769	56	49
19.7798	20.0769	60	49
19.7798	20.0769	66	49
19.7798	20.7012	70	61
19.7798	20.7012	82	61
20.0769	20.7012	44	47
20.0769	20.7012	73	64
20.0769	20.7012	85	64
20.3799	20.7012	56	38
20.3799	20.7012	60	38
20.3799	20.7012	66	38
20.3799	20.7271	72	62
20.3799	20.7271	84	62
20.7012	21.3629	51	53
20.7012	21.3629	78	59
20.7012	21.3629	90	68
21.0112	21.3629	55	38
21.0112	21.3629	70	56
21.0112	21.3629	82	56
21.1145	21.3629	56	38
21.2178	21.3629	60	37
21.3212	21.4827	66	45
21.3212	22.5731	68	55
21.3212	22.5731	80	55
21.6442	22.1503	56	43
21.6442	22.1503	60	43
21.6442	22.1503	66	43
21.9354	22.1503	44	37
22.2518	22.4125	56	36
22.2518	22.4125	60	36
22.2518	22.4125	64	36
22.5731	23.1697	53	50
22.5731	23.1697	73	58
22.5731	23.1697	85	58
22.9567	23.1697	57	41
23.0363	23.1697	61	41
23.1159	23.1955	65	40
23.1955	24.1384	69	55
23.1955	24.1384	73	58
23.1955	24.1384	85	58
23.5291	24.1384	61	49
23.5291	24.1384	65	49
23.8291	24.1384	53	49
24.1384	24.3025	57	44
24.1384	24.3025	63	44
24.1384	24.4665	72	53
24.1384	24.4665	84	53
24.4665	25.0345	54	50
24.4665	25.0604	72	58
24.4665	25.0604	84	58
24.8216	25.0345	60	41
24.9012	25.0345	61	41
24.9808	25.0604	66	40
25.0604	25.9922	70	55
25.0604	25.9922	82	55
25.3847	26.3204	62	55
25.3847	25.9922	65	55
25.3847	26.3204	77	55
25.6885	26.3204	50	49
25.6885	26.3204	68	58
25.6885	26.3204	80	58
25.9922	26.3204	58	44
25.9922	26.3204	65	44
25.9922	26.3204	70	53
25.9922	26.3204	82	53
26.3204	26.9169	51	50
26.3204	26.9428	68	58
26.3204	26.9428	80	58
26.7039	26.9169	57	41
26.7836	26.9169	58	41
26.8632	26.9428	63	40
26.9428	27.2745	66	58
26.9428	27.2745	78	58
27.2745	28.2349	58	50
27.2745	27.5106	71	57
27.2745	27.9067	74	57
27.5106	27.9067	71	53
27.5892	27.9067	70	46
27.5892	27.9067	78	58
27.9067	28.2349	68	43
27.9067	28.1528	71	54
27.9067	28.1528	77	54
28.1528	30.1074	66	41
28.2349	28.7987	51	46
28.2349	28.8246	77	56
28.5858	28.7987	57	38
28.6654	28.7987	58	38
28.745	28.8246	59	37
28.8186	29.1514	58	50
28.8246	30.1074	75	56
29.1636	29.7849	62	50
29.473	29.7889	65	55
29.7889	30.1115	63	51
30.1074	30.7246	39	46
30.1074	30.7246	65	47
30.1074	30.4335	67	47
30.1074	30.7246	73	56
30.4335	30.7246	50	38
30.4335	30.76	63	45
30.4335	30.76	67	45
30.4335	30.76	72	53
30.5423	30.7246	51	38
30.6512	30.76	53	37
30.76	30.9221	51	50
30.76	31.3984	61	45
30.76	31.3984	67	45
30.76	31.7237	72	53
31.0843	31.7237	51	50
31.3984	31.6443	61	47
31.3984	31.684	67	47
31.3984	31.7237	70	56
31.6443	32.0346	61	35
31.684	32.0346	67	42
31.7237	32.0346	51	46
31.7237	32.0346	75	55
32.0346	33.9575	51	49
32.0346	32.6598	60	49
32.0346	32.6598	63	54
32.0346	32.6598	68	54
32.352	32.6746	61	46
32.352	32.6746	65	49
32.352	32.6746	70	49
32.6746	33.2413	65	49
32.6746	33.232	68	54
32.6746	33.2413	73	54
32.991	33.6207	63	45
32.991	33.2413	67	50
32.991	33.2413	72	50
33.232	33.8545	68	50
33.3123	33.6207	67	48
33.3123	33.8545	75	55
33.6207	33.9575	63	45
33.6207	33.864	67	50
33.6207	33.864	72	50
33.864	34.5775	61	41
33.9107	34.5775	67	41
33.9575	34.5447	51	46
33.9575	34.5775	73	56
34.2892	34.5447	62	38
34.3814	34.5447	63	38
34.4775	34.5775	65	37
34.5775	34.7434	63	43
34.5775	35.5487	65	55
34.5775	35.224	67	55
34.5775	35.5487	73	55
34.9092	35.5487	63	50
35.224	35.8651	61	52
35.224	35.8651	67	52
35.224	35.8651	72	52
35.5487	35.8651	63	46
35.8651	37.9232	56	49
35.8651	36.5169	60	49
35.8651	36.5169	63	48
35.8651	36.5169	68	54
36.1986	36.5322	61	46
36.1986	36.5322	65	48
36.1986	36.5322	70	54
36.5322	37.1222	63	49
36.5322	37.1222	66	53
36.5322	36.8552	72	59
36.8552	37.5549	70	50
36.8552	37.1991	72	54
36.8552	37.5549	78	59
37.1991	37.5549	68	50
37.1991	37.5549	72	52
37.1991	37.5549	77	58
37.5549	37.9232	66	47
37.5549	37.9232	72	45
37.5549	37.9232	76	54
37.9232	38.5853	49	55
37.9232	38.5853	65	50
37.9232	38.5853	77	56
38.3548	38.5853	55	49
38.4392	38.5853	56	49
38.5256	38.6143	61	48
38.6143	39.5485	65	55
38.6143	39.5485	77	62
38.9572	39.5485	68	61
39.247	39.5485	44	59
39.5485	39.7171	56	52
39.5485	39.7171	61	52
39.5485	39.8856	65	56
39.5485	39.7171	68	52
39.5485	39.8856	77	63
39.8856	40.4509	49	60
39.8856	40.4509	65	61
39.8856	40.4509	77	68
40.2449	40.4509	55	49
40.3275	40.4509	56	49
40.3694	40.4972	68	61
40.3694	40.4972	80	68
40.4116	40.5252	61	48
40.4972	40.8326	65	60
40.4972	41.7612	68	61
40.4972	41.7612	80	68
40.8326	41.3343	56	57
40.8326	41.3343	61	57
40.8326	41.3343	65	57
41.1253	41.3343	44	61
41.433	41.5971	56	49
41.433	41.5971	61	49
41.433	41.5971	65	49
41.7612	42.3107	51	57
42.068	42.3107	55	47
42.068	42.3636	66	61
42.068	42.388	78	69
42.1666	42.3107	56	47
42.2651	42.388	60	46
42.3636	42.6563	66	56
42.3636	42.8871	68	63
42.3636	42.8871	80	71
42.6563	42.964	56	59
42.6563	42.964	60	59
42.6563	42.964	66	59
42.6563	43.5853	70	66
42.6563	43.5853	82	73
42.964	43.5853	44	56
42.964	43.5853	73	69
42.964	43.5853	85	77
43.264	43.5853	56	44
43.264	43.5853	60	44
43.264	43.5853	66	44
43.264	43.6112	72	64
43.264	43.6112	84	72
43.5853	44.2394	51	60
43.5853	44.2394	75	72
43.5853	44.2394	87	83
43.8953	44.2394	55	47
43.8953	44.2394	70	62
43.8953	44.2394	82	70
43.9961	44.2394	56	47
44.0969	44.2394	60	44
44.1977	44.3592	66	55
44.1977	45.451	68	59
44.1977	45.451	80	66
44.5207	45.0282	56	51
44.5207	45.0282	60	51
44.5207	45.0282	66	51
44.8134	45.0282	44	42
45.1297	45.2904	56	40
45.1297	45.2904	60	40
45.1297	45.2904	66	40
45.451	46.0444	49	39
45.451	46.0444	65	45
45.451	46.0444	77	45
45.8346	46.0444	55	32
45.9118	46.0444	56	32
45.9904	46.0706	61	31
46.0706	46.9969	65	45
46.0706	46.9969	77	45
46.4042	46.9969	68	42
46.6954	46.9969	44	38
46.9969	47.161	56	34
46.9969	47.161	61	34
46.9969	47.3251	65	41
46.9969	47.161	68	34
46.9969	47.3251	77	41
47.3251	47.8709	49	39
47.3251	47.8709	65	46
47.3251	47.8709	77	46
47.6718	47.8709	55	32
47.7527	47.8709	56	32
47.7931	47.9144	68	43
47.7931	47.9144	80	43
47.8335	47.9423	61	31
47.9144	48.2498	65	38
47.9144	49.1887	68	43
47.9144	49.1887	80	43
48.2498	48.7613	56	40
48.2498	48.7613	61	40
48.2498	48.7613	65	40
48.5513	48.7613	44	38
48.8606	49.0247	56	30
48.8606	49.0247	61	30
48.8606	49.0247	65	30
49.1887	49.7425	51	46
49.4956	49.7425	55	38
49.4956	49.7964	66	55
49.4956	49.8211	78	55
49.5959	49.7425	56	38
49.6962	49.8211	60	37
49.7964	50.0929	66	45
49.7964	50.3197	68	57
49.7964	50.3197	80	57
50.0929	50.3953	56	48
50.0929	50.3953	60	48
50.0929	50.3953	66	48
50.0929	51.0166	70	59
50.0929	51.0166	82	59
50.3953	51.0166	44	45
50.3953	51.0166	73	61
50.3953	51.0166	85	61
50.6953	51.0166	56	36
50.6953	51.0166	60	36
50.6953	51.0166	66	36
50.6953	51.0424	72	58
50.6953	51.0424	84	58
51.0166	51.6784	51	49
51.0166	51.6784	78	65
51.0166	51.6784	90	65
51.3266	51.6784	55	38
51.3266	51.6784	70	56
51.3266	51.6784	82	56
51.4299	51.6784	56	38
51.5332	51.6784	60	37
51.6365	51.7987	66	45
51.6365	52.2887	68	55
51.6365	52.2887	80	55
51.9609	52.2887	56	43
51.9609	52.2887	60	43
51.9609	52.2887	66	43
52.2887	52.9411	47	33
52.2887	52.9411	69	33
52.2887	52.9411	75	33
52.2887	52.9411	80	40
52.5294	52.9411	58	23
52.6096	52.9411	59	28
52.6096	52.9411	79	37
52.9411	53.5376	52	42
52.9411	53.5376	68	45
52.9411	53.5376	80	49
53.3247	53.5376	58	36
53.4043	53.5376	59	36
53.4839	53.5635	61	36
53.5635	53.8971	59	49
53.5635	54.5035	68	52
53.5635	54.5035	80	52
53.8971	54.5035	59	44
54.1926	54.8317	47	44
54.5035	54.8317	53	44
54.5035	54.8317	59	44
54.5035	54.8317	62	44
54.5035	54.8317	68	53
54.5035	54.8317	80	53
54.8317	55.3857	54	50
54.8317	55.3857	71	52
54.8317	55.3857	83	58
55.1272	55.3857	58	41
55.1272	55.4171	69	52
55.1272	55.4171	81	58
55.2238	55.3857	59	41
55.3204	55.4171	61	40
55.4171	55.7263	59	55
55.4171	56.567	73	58
55.4171	56.567	85	65
55.7263	56.325	59	56
55.7263	56.567	75	54
55.7263	56.567	87	61
56.0219	56.567	47	51
56.0219	56.567	80	64
56.0219	56.567	92	72
56.325	56.567	59	47
56.325	56.567	63	47
56.325	56.567	69	47
56.325	56.6531	78	61
56.325	56.6531	90	68
56.6531	57.2462	52	42
56.6531	57.2462	68	49
56.6531	57.2462	80	49
57.0367	57.2462	58	34
57.1135	57.2462	59	34
57.1921	57.2725	61	34
57.2725	57.6061	59	46
57.2725	58.2154	68	49
57.2725	58.2154	80	49
57.6061	58.2154	59	41
57.9061	58.5436	47	41
58.2154	58.5436	53	37
58.2154	58.5436	59	37
58.2154	58.5436	62	37
58.2154	58.5436	68	45
58.2154	58.5436	80	45
58.5436	59.1293	54	42
58.5436	59.1293	71	49
58.5436	59.1293	83	49
58.8577	59.1293	58	34
58.8577	59.1623	69	49
58.8577	59.1623	81	49
58.9592	59.1293	59	34
59.0608	59.1623	61	34
59.1623	59.4797	59	46
59.1623	60.334	73	51
59.1623	60.334	85	51
59.4797	60.092	59	46
59.4797	60.334	75	48
59.4797	60.334	87	48
59.7082	60.334	80	48
59.7843	60.334	47	48
59.7843	60.334	92	55
60.092	60.334	59	43
60.092	60.334	63	43
60.092	60.334	69	43
60.092	60.4202	78	52
60.092	60.4202	90	52
60.4202	60.8214	64	69
60.4202	61.0146	68	53
60.4202	61.0146	80	63
60.7247	60.918	63	56
60.8214	60.9832	64	56
60.918	61.0146	63	56
61.0146	61.6301	62	66
61.0146	61.6301	68	49
61.0146	61.6301	78	58
61.0146	61.6301	80	58
61.3271	61.6301	63	53
61.6301	62.2251	60	60
61.6301	62.5648	68	56
61.6301	62.2617	76	66
61.6301	62.5648	80	66
61.9476	62.2617	56	55
62.2617	62.5648	61	60
62.2617	62.5648	77	66
62.5648	62.888	57	55
62.5648	62.888	66	48
62.5648	62.888	72	57
62.5648	62.888	75	57
62.8574	63.1905	58	58
62.8574	63.1905	65	53
62.8574	63.1905	73	63
63.1766	63.4796	53	54
63.1766	63.4796	63	47
63.1766	63.4796	69	56
63.1766	63.4796	72	56
63.4796	63.8517	54	57
63.4796	63.8517	61	51
63.4796	63.8517	70	60
63.7889	64.1168	50	53
63.7889	64.1168	59	53
63.7889	64.1168	65	53
63.7889	64.1168	68	53
64.1168	65.9748	51	49
64.1168	65.9748	58	49
64.1168	64.7498	66	58
64.4276	64.7498	68	55
64.7261	65.374	69	55
65.0419	65.374	70	60
65.3465	65.8543	73	65
65.6606	65.8962	66	58
65.8962	66.568	60	50
65.9355	66.5279	66	51
65.9748	66.568	44	50
65.9748	66.568	70	58
66.3157	66.568	55	41
66.41	66.568	56	41
66.5044	66.5987	58	40
66.5279	67.8908	66	48
66.5987	66.9305	56	50
66.5987	67.5626	77	58
66.9305	67.5626	56	50
67.2452	67.8908	44	46
67.5626	67.8908	56	43
67.5626	67.8908	72	53
67.8908	69.3137	49	40
68.2003	68.4034	68	46
68.2754	68.4034	65	46
68.3523	68.4593	61	46
68.4313	68.599	56	52
68.7667	69.3539	56	39
68.7667	69.3539	61	39
68.7667	69.3539	65	46
68.7667	69.3539	68	48
69.0524	69.3539	44	40
69.3539	69.6821	50	47
69.3539	69.6821	56	43
69.3539	69.6821	59	43
69.3539	69.6821	65	51
69.3539	69.6821	68	51
69.6821	71.1152	51	58
69.9916	70.1951	68	46
70.0666	70.1951	66	46
70.1437	70.2509	60	46
70.2231	70.3899	56	52
70.5567	71.1466	56	41
70.5567	71.1466	60	41
70.5567	71.1466	66	49
70.5567	71.1466	68	51
70.8451	71.1466	44	47
71.1466	71.4914	48	42
71.1466	71.4914	56	38
71.1466	71.4914	64	45
71.1466	71.4914	68	45
71.4914	72.9199	49	27
71.8009	72.0046	68	27
71.8764	72.0046	65	27
71.9535	72.0602	61	27
72.0324	72.1992	56	30
72.3659	72.9601	56	27
72.3659	72.9601	61	27
72.3659	72.9601	65	27
72.3659	72.9601	68	28
72.6586	72.9601	44	27
72.9601	73.2883	50	31
72.9601	73.2883	56	26
72.9601	73.2883	59	26
72.9601	73.2883	65	26
72.9601	73.2883	68	26
73.2883	74.9615	51	36
73.5978	73.8061	68	27
73.6749	73.8061	66	27
73.7538	73.8625	60	27
73.8346	74.0023	56	30
74.17	74.7792	56	31
74.17	74.9615	60	31
74.17	74.9615	66	31
74.17	74.7792	68	31
74.47	74.9615	44	31
74.7792	75.1057	48	34
74.7792	75.1057	56	31
74.7792	75.1057	64	31
74.7792	75.1057	68	31
75.1057	75.51	61	63
75.1057	75.4166	64	40
75.1057	75.4166	68	40
75.4166	75.6035	59	56
75.4166	75.6666	64	41
75.4166	75.6666	68	41
75.51	75.6666	61	56
75.6035	75.6969	59	56
75.6969	76.2762	57	62
75.6969	75.997	64	40
75.6969	75.997	68	40
75.997	76.2896	59	56
75.997	76.2762	64	42
75.997	76.2762	68	42
76.2896	76.8852	61	63
76.2896	76.5911	64	45
76.2896	76.5911	68	45
76.5911	76.8852	63	58
76.5911	76.8852	64	48
76.5911	76.8852	68	48
76.8852	77.2878	61	68
76.8852	77.1978	64	50
76.8852	77.1978	68	50
77.1978	77.3779	60	52
77.1978	77.4387	64	45
77.1978	77.4387	68	45
77.2878	77.4387	61	52
77.3779	77.468	60	52
77.468	78.6931	56	57
77.468	77.7741	64	47
77.468	77.7741	68	47
77.7741	78.0712	64	32
77.7741	78.0712	68	32
78.0712	78.3773	64	29
78.0712	78.3773	68	29
78.3773	78.6233	64	28
78.3773	78.6233	68	28
78.6931	79.082	61	34
78.6931	78.9931	64	24
78.6931	78.9931	68	24
78.6931	82.2371	76	33
78.9931	79.1709	59	30
78.9931	79.2309	64	24
78.9931	79.2309	68	24
79.082	79.2309	61	30
79.1709	79.2597	59	30
79.2597	79.839	57	33
79.2597	79.5597	64	24
79.2597	79.5597	68	24
79.5597	79.8524	59	30
79.5597	79.839	64	24
79.5597	79.839	68	24
79.8524	80.448	61	34
79.8524	80.1539	64	27
79.8524	80.1539	68	27
80.1539	80.448	63	31
80.1539	80.448	64	28
80.1539	80.448	68	28
80.448	80.8423	61	39
80.448	80.7526	64	30
80.448	80.7526	68	30
80.7526	80.932	60	28
80.7526	80.9925	64	27
80.7526	80.9925	68	27
80.8423	80.9925	61	28
80.932	81.0217	60	28
81.0217	82.2371	56	30
81.0217	81.3278	64	27
81.0217	81.3278	68	27
81.3278	81.6248	64	23
81.3278	81.6248	68	23
81.6248	81.9309	64	21
81.6248	81.9309	68	21
81.9309	82.1694	64	21
81.9309	82.1694	68	21
82.2371	83.3857	54	46
82.2371	83.3857	61	52
82.2371	83.3857	69	54
82.2371	82.6214	76	73
82.5356	82.7072	75	64
82.6214	82.8018	76	63
82.7072	82.8018	75	63
82.7931	83.3601	73	74
83.0931	83.3857	75	63
83.3857	83.9814	49	47
83.3857	83.9814	56	47
83.3857	83.9814	64	50
83.3857	83.9385	76	70
83.6872	83.9814	73	62
83.9814	85.1312	54	37
83.9814	85.1312	61	37
83.9814	85.1312	69	38
83.9814	84.3661	76	47
84.2799	84.4523	75	42
84.3661	84.5472	76	41
84.4523	84.5472	75	41
84.5385	85.1055	73	48
84.8385	85.1312	75	41
85.1312	85.7268	49	33
85.1312	85.7268	56	33
85.1312	85.7268	64	35
85.1312	85.6839	76	45
85.4327	85.7268	73	40
85.7268	88.9832	56	37
85.7268	86.2839	63	41
85.7268	86.2927	64	38
85.7268	86.1115	71	47
86.0253	86.2927	61	37
86.0253	86.1977	69	42
86.1115	86.2927	71	41
86.1977	86.2927	69	41
86.2839	86.8766	60	41
86.2839	86.5839	63	35
86.2839	86.8766	68	48
86.5839	86.8766	63	39
86.8766	87.4722	61	34
86.8766	87.4722	64	41
86.8766	87.4722	69	46
87.1707	87.4722	63	36
87.1707	87.4722	66	44
87.1707	87.4722	71	49
87.4722	87.996	64	39
87.4722	87.996	68	46
87.4722	87.996	73	52
87.7649	88.0679	63	36
87.7649	88.0679	66	44
87.7649	88.0679	71	49
88.0679	88.6771	61	39
88.0679	88.6771	64	43
88.0679	88.6771	69	48
88.3709	88.6771	63	34
88.3709	88.6771	66	41
88.3709	88.6771	71	46
88.6771	89.1732	60	37
88.6771	89.2893	63	40
88.6771	89.2893	68	45
88.9832	89.2893	56	34
89.2893	89.6899	61	48
89.2893	89.6002	64	30
89.2893	89.6002	68	30
89.6002	89.7795	59	41
89.6002	89.8692	64	30
89.6002	89.8692	68	30
89.6899	89.8867	61	41
89.7795	89.8867	59	41
89.8692	90.4485	57	47
89.8692	90.1692	64	30
89.8692	90.1692	68	30
90.1692	90.4619	59	41
90.1692	90.4485	64	31
90.1692	90.4485	68	31
90.4619	91.0575	61	48
90.4619	90.7634	64	34
90.4619	90.7634	68	34
90.7634	91.0575	63	43
90.7634	91.0575	64	36
90.7634	91.0575	68	36
91.0575	91.4522	61	53
91.0575	91.3621	64	38
91.0575	91.3621	68	38
91.3621	91.5423	60	39
91.3621	91.6324	64	34
91.3621	91.6324	68	34
91.4522	91.6694	61	39
91.5423	91.6694	60	39
91.6324	92.8574	56	42
91.6324	91.9385	64	35
91.6324	91.9385	68	35
91.9385	92.2355	64	25
91.9385	92.2355	68	25
92.2355	92.5416	64	24
92.2355	92.5416	68	24
92.5416	92.7877	64	23
92.5416	92.7877	68	23
92.8574	93.2463	61	34
92.8574	93.1574	64	24
92.8574	93.1574	68	24
92.8574	96.4014	76	33
93.1574	93.3352	59	30
93.1574	93.4241	64	24
93.1574	93.4241	68	24
93.2463	93.4641	61	30
93.3352	93.4641	59	30
93.4241	94.0034	57	33
93.4241	93.7241	64	24
93.4241	93.7241	68	24
93.7241	94.0168	59	30
93.7241	94.0034	64	24
93.7241	94.0034	68	24
94.0168	94.6124	61	34
94.0168	94.3183	64	27
94.0168	94.3183	68	27
94.3183	94.6124	63	31
94.3183	94.6124	64	28
94.3183	94.6124	68	28
94.6124	95.0067	61	39
94.6124	94.917	64	30
94.6124	94.917	68	30
94.917	95.0963	60	28
94.917	95.186	64	27
94.917	95.186	68	27
95.0067	95.2077	61	28
95.0963	95.2077	60	28
95.186	96.4014	56	30
95.186	95.4922	64	27
95.186	95.4922	68	27
95.4922	95.7892	64	23
95.4922	95.7892	68	23
95.7892	96.0953	64	21
95.7892	96.0953	68	21
96.0953	96.3338	64	21
96.0953	96.3338	68	21
96.4014	97.5501	54	47
96.4014	97.5501	61	52
96.4014	97.5501	69	54
96.4014	96.7858	76	73
96.6999	96.8716	75	64
96.7858	97.0099	76	63
96.8716	97.0099	75	63
96.9574	97.5245	73	74
97.2574	97.5501	75	63
97.5501	98.1458	49	47
97.5501	98.1458	56	47
97.5501	98.1458	64	50
97.5501	98.1029	76	70
97.8516	98.1458	73	62
98.1458	99.2956	54	37
98.1458	99.2956	61	37
98.1458	99.2956	69	38
98.1458	98.5305	76	47
98.4443	98.6167	75	42
98.5305	98.7604	76	41
98.6167	98.7604	75	41
98.7029	99.27	73	48
99.0029	99.2956	75	41
99.2956	99.8912	49	33
99.2956	99.8912	56	33
99.2956	99.8912	64	35
99.2956	99.8483	76	45
99.5971	99.8912	73	40
99.8912	100.291	59	51
99.8912	100.2	61	34
99.8912	100.2	64	34
100.2	100.382	57	46
100.2	100.522	61	30
100.2	100.473	64	30
100.291	100.522	59	45
100.382	100.522	57	45
100.473	101.066	56	52
100.473	101.04	60	34
100.473	100.773	64	34
100.773	101.066	61	30
100.773	101.066	64	30
101.066	101.636	59	41
101.066	101.636	63	48
101.066	101.636	68	48
101.369	101.605	57	39
101.369	101.636	61	44
101.369	101.636	66	44
101.531	102.302	44	37
101.568	102.302	54	45
101.605	102.302	57	41
101.642	102.302	60	41
101.679	102.082	64	48
101.987	102.178	63	42
102.082	102.302	64	42
102.178	102.302	63	42
102.274	103.591	49	40
102.274	102.835	52	40
102.274	102.835	56	47
102.274	102.835	61	47
102.596	102.928	54	39
102.596	102.845	57	45
102.845	103.591	56	45
102.928	103.591	52	40
102.928	103.591	61	45
103.591	104.683	56	50
103.591	103.903	60	36
103.591	103.903	63	36
103.903	104.252	60	36
103.903	104.216	63	36
104.216	104.528	61	36
104.216	104.528	63	36
104.528	105.293	54	50
104.528	104.838	61	36
104.528	104.838	63	36
104.683	105.445	56	48
104.838	105.142	57	52
104.838	105.142	61	41
104.838	105.142	63	41
104.99	105.445	59	50
105.142	105.445	57	50
105.142	105.445	61	39
105.142	105.445	63	39
105.293	105.445	54	46
105.445	106.053	56	52
105.445	106.053	60	45
105.445	105.767	63	45
105.767	105.958	57	47
105.767	106.08	61	45
105.767	106.687	63	45
105.862	106.08	59	47
105.958	106.08	57	47
106.053	106.687	56	52
106.053	106.687	60	45
106.364	106.555	69	54
106.364	106.687	73	48
106.364	107.198	75	48
106.459	106.687	71	54
106.555	106.687	69	55
106.651	107.198	68	65
106.651	107.198	72	47
106.962	107.29	80	63
107.29	107.941	44	57
107.29	108.227	69	66
107.29	108.227	72	66
107.29	107.941	80	66
107.609	107.805	63	51
107.707	107.941	64	51
107.805	107.941	63	51
107.903	111.139	56	60
107.903	108.53	78	62
108.227	108.545	63	50
108.227	108.545	69	58
108.227	108.545	72	58
108.545	109.173	68	53
108.545	109.173	69	50
108.545	109.173	72	50
108.545	109.173	76	63
108.856	109.173	66	50
108.856	109.173	75	57
109.173	109.642	64	56
109.173	109.804	68	52
109.173	109.377	73	58
109.275	109.804	75	54
109.377	109.804	73	55
109.479	109.804	63	52
109.479	109.804	66	52
109.479	109.804	71	58
109.642	109.804	61	52
109.642	109.831	64	51
109.642	109.831	69	57
109.804	110.465	60	55
109.804	110.465	63	47
109.804	110.465	68	53
110.128	110.53	61	53
110.128	110.53	64	45
110.465	111.139	60	53
110.465	111.139	63	49
110.465	111.139	68	55
111.139	112.231	56	45
111.139	111.452	60	32
111.139	111.452	63	32
111.452	111.801	60	32
111.452	111.764	63	32
111.764	112.077	61	32
111.764	112.077	63	32
112.077	112.842	54	45
112.077	112.386	61	32
112.077	112.386	63	32
112.231	112.993	56	43
112.386	112.69	57	46
112.386	112.69	61	36
112.386	112.69	63	36
112.539	112.993	59	45
112.69	112.993	57	45
112.69	112.993	61	35
112.69	112.993	63	35
112.842	112.993	54	41
112.993	113.602	56	46
112.993	113.602	60	40
112.993	113.316	63	40
113.316	113.506	57	42
113.316	113.62	61	40
113.316	114.26	63	40
113.411	113.62	59	42
113.506	113.628	57	42
113.602	114.26	56	46
113.602	114.26	60	40
113.922	114.122	69	48
113.922	114.26	73	43
113.922	114.548	75	43
114.022	114.26	71	48
114.122	114.26	69	48
114.222	114.548	68	50
114.222	114.548	72	40
114.548	114.891	59	30
114.548	114.891	69	39
114.548	114.891	71	43
114.548	114.891	75	43
114.891	116.714	64	40
114.891	115.548	68	40
114.891	115.548	71	45
114.891	115.303	76	45
115.207	115.399	75	42
115.303	115.548	76	42
115.399	115.548	75	42
115.496	116.111	69	40
115.496	115.954	73	45
115.954	116.111	73	42
116.111	116.679	66	42
116.111	116.563	71	48
116.111	116.413	75	48
116.262	116.679	78	45
116.413	116.714	69	39
116.413	116.679	75	47
116.563	116.714	71	45
116.714	118.552	64	41
116.714	117.346	69	41
116.714	117.022	73	46
117.022	117.217	73	43
117.119	117.346	75	43
117.217	117.346	73	43
117.315	117.927	68	41
117.315	117.927	71	46
117.465	117.941	76	42
117.615	117.941	69	39
117.615	117.941	73	44
117.771	117.941	75	43
117.927	118.552	68	39
117.927	118.552	71	43
118.552	118.875	57	62
118.552	119.16	61	53
118.552	119.788	63	53
118.875	119.065	57	56
118.97	119.139	59	56
119.065	119.187	57	56
119.16	119.635	56	62
119.16	119.824	60	53
119.483	119.824	51	58
119.635	119.824	56	58
119.788	120.098	57	62
119.788	120.426	61	57
119.788	120.426	63	57
120.098	120.317	57	56
120.208	120.426	59	56
120.317	120.454	57	56
120.426	121.022	56	62
120.426	121.022	60	53
120.426	120.754	63	57
120.754	121.022	63	38
120.754	121.022	87	48
120.906	121.059	64	35
120.906	121.059	88	45
121.059	121.349	66	38
121.059	121.349	90	48
121.204	122.192	68	35
121.204	122.192	92	45
121.349	122.192	66	35
121.349	122.192	90	45
121.494	121.949	63	35
121.494	121.949	87	45
121.648	122.192	60	38
121.648	122.192	84	48
121.798	122.192	64	35
121.798	122.192	88	45
121.949	122.192	63	35
121.949	122.192	87	45
122.1	122.26	57	35
122.1	122.26	81	45
122.26	122.869	56	57
122.26	122.902	80	55
122.583	122.773	57	56
122.678	122.902	59	56
122.773	122.902	57	56
122.869	123.343	56	62
122.869	123.532	60	53
122.869	123.496	63	53
123.191	123.532	51	58
123.343	123.532	56	58
123.496	123.807	57	62
123.496	124.134	61	57
123.496	124.134	63	57
123.807	124.025	57	56
123.916	124.134	59	56
124.025	124.159	57	56
124.134	124.705	56	62
124.134	124.705	60	53
124.134	124.435	63	57
124.435	124.705	63	49
124.435	124.705	87	62
124.588	124.742	64	46
124.588	124.742	88	58
124.742	125.033	66	49
124.742	125.033	90	62
124.888	125.878	68	46
124.888	125.878	92	58
125.033	125.878	66	46
125.033	125.878	90	58
125.179	125.635	63	46
125.179	125.635	87	58
125.333	125.878	60	54
125.333	125.878	84	66
125.484	125.878	64	48
125.484	125.878	88	63
125.635	125.878	63	48
125.635	125.878	87	61
125.786	125.946	57	48
125.786	125.946	81	61
125.946	126.414	56	62
125.946	126.414	80	66
126.262	126.559	54	54
126.262	126.559	78	68
126.414	126.566	56	50
126.414	126.566	80	63
126.566	127.302	57	54
126.566	127.302	81	68
126.711	127.689	61	50
126.711	127.689	85	63
126.856	127.689	59	50
126.856	127.689	83	63
127.001	127.45	56	50
127.001	127.45	80	63
127.155	127.689	54	54
127.155	127.689	78	68
127.302	127.689	57	50
127.302	127.689	81	63
127.45	127.689	56	50
127.45	127.689	80	63
127.597	127.908	52	50
127.597	127.908	76	63
127.757	128.289	51	54
127.757	128.289	75	68
127.908	128.289	52	52
127.908	128.289	76	66
128.055	128.289	54	52
128.055	128.289	78	66
128.202	128.349	56	52
128.202	128.349	80	66
128.349	128.962	54	57
128.349	128.962	78	72
128.498	128.953	51	55
128.498	128.953	75	69
128.648	128.962	52	56
128.648	128.962	76	70
128.8	128.962	49	54
128.8	128.962	73	68
128.953	129.584	51	54
128.953	129.584	75	68
129.108	129.584	47	52
129.108	129.584	71	65
129.265	129.584	49	54
129.265	129.584	73	68
129.423	129.584	45	51
129.423	129.584	69	64
129.584	129.923	44	68
129.584	129.923	68	68
129.923	130.265	51	49
129.923	130.265	57	58
129.923	130.265	61	68
129.923	130.265	66	68
130.03	130.245	68	58
130.138	130.265	69	57
130.245	130.596	56	44
130.245	130.596	60	52
130.245	130.596	63	63
130.245	130.469	68	63
130.357	130.596	69	54
130.469	130.596	68	55
130.581	130.932	51	48
130.581	130.932	57	57
130.581	130.932	61	68
130.581	130.932	66	68
130.689	130.907	68	56
130.798	130.932	69	56
130.907	131.244	56	42
130.907	131.244	60	50
130.907	131.244	63	59
130.907	131.131	68	59
131.019	131.244	69	55
131.131	131.244	68	55
131.244	131.589	51	46
131.244	131.589	57	55
131.244	131.589	61	65
131.244	131.558	66	65
131.359	131.558	68	55
131.474	131.589	69	55
131.589	131.92	56	42
131.589	133.388	60	50
131.589	133.388	63	68
131.589	133.388	68	68
131.92	132.583	56	57
132.583	133.246	56	65
133.246	133.578	56	68
133.578	135.011	49	48
133.887	134.091	68	55
133.962	134.091	65	55
134.04	134.147	61	55
134.119	134.287	56	62
134.454	135.051	56	46
134.454	135.051	61	46
134.454	135.051	65	55
134.454	135.051	68	57
134.75	135.051	44	48
135.051	135.38	50	56
135.051	135.38	56	51
135.051	135.38	59	51
135.051	135.38	65	61
135.051	135.38	68	61
135.38	136.825	51	69
135.689	135.895	68	55
135.765	135.895	66	55
135.843	135.951	60	55
135.923	136.09	56	62
136.257	136.851	56	49
136.257	136.851	60	49
136.257	136.851	66	58
136.257	136.851	68	60
136.55	136.851	44	56
136.851	137.196	48	50
136.851	137.196	56	45
136.851	137.196	64	54
136.851	137.196	68	54
137.196	138.624	49	30
137.505	137.709	68	30
137.581	137.709	65	30
137.658	137.765	61	30
137.737	137.904	56	34
138.07	138.665	56	30
138.07	138.665	61	30
138.07	138.665	65	30
138.07	138.665	68	32
138.363	138.665	44	30
138.665	138.993	50	35
138.665	138.993	56	29
138.665	138.993	59	29
138.665	138.993	65	29
138.665	138.993	68	29
138.993	140.431	51	40
139.302	139.512	68	30
139.38	139.512	66	30
139.459	139.568	60	30
139.54	139.708	56	34
139.875	140.485	56	35
139.875	140.485	60	35
139.875	140.485	66	35
139.875	140.485	68	37
140.175	140.485	44	35
140.485	140.799	48	39
140.485	140.799	56	35
140.485	140.799	64	35
140.485	140.799	68	35
140.844	141.436	49	39
140.844	141.436	65	45
140.844	141.436	77	45
141.228	141.436	55	32
141.304	141.436	56	32
141.383	141.463	61	31
141.463	142.385	65	45
141.463	142.385	77	47
141.796	142.385	68	42
142.083	142.385	44	38
142.385	142.549	56	34
142.385	142.549	61	34
142.385	142.713	65	41
142.385	142.549	68	34
142.385	142.713	77	41
142.713	143.255	49	39
142.713	143.255	65	46
142.713	143.255	77	46
143.06	143.255	55	32
143.138	143.255	56	32
143.177	143.299	68	43
143.177	143.299	80	43
143.217	143.326	61	31
143.299	143.634	65	38
143.299	144.571	68	43
143.299	144.571	80	43
143.634	144.144	56	40
143.634	144.144	61	40
143.634	144.144	65	40
143.934	144.144	44	38
144.243	144.407	56	30
144.243	144.407	61	30
144.243	144.407	65	30
144.571	145.121	51	46
144.878	145.121	55	38
144.878	145.174	66	55
144.878	145.198	78	55
144.977	145.121	56	38
145.075	145.198	60	37
145.174	145.465	66	45
145.174	145.692	68	58
145.174	145.692	80	58
145.465	145.767	56	49
145.465	145.767	60	49
145.465	145.767	66	49
145.465	146.396	70	61
145.465	146.396	82	61
145.767	146.396	44	47
145.767	146.396	73	64
145.767	146.396	85	64
146.074	146.396	56	38
146.074	146.396	60	38
146.074	146.396	66	38
146.074	146.421	72	62
146.074	146.421	84	62
146.396	147.05	51	53
146.396	147.05	75	71
146.396	147.05	87	71
146.706	147.05	55	38
146.706	147.05	70	56
146.706	147.05	82	56
146.806	147.05	56	38
146.907	147.05	60	37
147.008	147.169	66	45
147.008	148.259	68	55
147.008	148.259	80	55
147.331	147.836	56	43
147.331	147.836	60	43
147.331	147.836	66	43
147.621	147.836	44	37
147.937	148.098	56	36
147.937	148.098	60	36
147.937	148.098	66	36
148.259	148.851	49	39
148.259	148.851	65	45
148.259	148.851	77	45
148.642	148.851	55	32
148.719	148.851	56	32
148.797	148.878	61	31
148.878	149.798	65	45
148.878	149.798	77	45
149.211	149.798	68	42
149.497	149.798	44	38
149.798	149.962	56	34
149.798	149.962	61	34
149.798	150.127	65	41
149.798	149.962	68	34
149.798	150.127	77	41
150.127	150.672	49	39
150.127	150.672	65	46
150.127	150.672	77	46
150.473	150.672	55	32
150.554	150.672	56	32
150.595	150.716	68	43
150.595	150.716	80	43
150.635	150.744	61	31
150.716	151.051	65	38
150.716	151.981	68	43
150.716	151.981	80	43
151.051	151.554	56	40
151.051	151.554	61	40
151.051	151.554	65	40
151.345	151.554	44	38
151.653	151.817	56	30
151.653	151.817	61	30
151.653	151.817	65	30
151.981	152.531	51	46
152.288	152.531	55	38
152.288	152.584	66	55
152.288	152.608	78	55
152.387	152.531	56	38
152.485	152.608	60	37
152.584	152.875	66	45
152.584	153.102	68	58
152.584	153.102	80	58
152.875	153.177	56	49
152.875	153.177	60	49
152.875	153.177	66	49
152.875	153.806	70	61
152.875	153.806	82	61
153.177	153.806	44	47
153.177	153.806	73	64
153.177	153.806	85	64
153.484	153.806	56	38
153.484	153.806	60	38
153.484	153.806	66	38
153.484	153.831	72	62
153.484	153.831	84	62
153.806	154.467	51	53
153.806	154.467	78	65
153.806	154.467	90	69
154.115	154.467	55	38
154.115	154.467	70	56
154.115	154.467	82	56
154.219	154.467	56	38
154.322	154.467	60	37
154.425	154.587	66	45
154.425	155.687	68	55
154.425	155.687	80	55
154.748	155.264	56	43
154.748	155.264	60	43
154.748	155.264	66	43
155.049	155.264	44	37
155.366	155.526	56	36
155.366	155.526	60	36
155.366	155.526	64	36
155.687	156.284	53	50
155.687	156.284	73	58
155.687	156.284	85	58
156.071	156.284	57	41
156.15	156.284	61	41
156.23	156.309	65	40
156.309	157.249	69	55
156.309	157.249	73	58
156.309	157.249	85	58
156.643	157.249	61	49
156.643	157.249	65	49
156.939	157.249	53	49
157.249	157.413	57	44
157.249	157.413	63	44
157.249	157.578	72	53
157.249	157.578	84	53
157.578	158.146	54	50
157.578	158.171	72	58
157.578	158.171	84	58
157.933	158.146	60	41
158.012	158.146	61	41
158.092	158.171	66	40
158.171	159.087	70	55
158.171	159.087	82	55
158.496	159.415	62	55
158.496	159.087	65	55
158.496	159.415	77	55
158.786	159.415	50	49
158.786	159.415	68	58
158.786	159.415	80	58
159.087	159.415	58	44
159.087	159.415	65	44
159.087	159.415	70	53
159.087	159.415	82	53
159.415	160.012	51	50
159.415	160.038	68	58
159.415	160.038	80	58
159.799	160.012	57	41
159.878	160.012	58	41
159.958	160.038	63	40
160.038	160.369	66	58
160.038	160.369	78	58
160.369	161.33	58	50
160.369	160.605	71	57
160.369	161.002	74	57
160.605	161.002	71	53
160.684	161.002	70	46
160.684	161.002	78	58
161.002	161.33	68	43
161.002	161.248	71	54
161.002	161.248	77	54
161.248	163.202	66	41
161.33	161.952	51	46
161.33	161.952	77	56
161.681	161.952	57	38
161.76	161.919	58	38
161.84	161.952	59	37
161.919	162.88	58	50
161.919	163.202	75	56
162.255	162.88	62	50
162.564	162.88	65	55
162.88	163.202	63	51
163.202	163.819	39	46
163.202	163.819	65	47
163.202	163.528	67	47
163.202	163.819	73	56
163.528	163.819	50	38
163.528	163.855	63	45
163.528	163.855	67	45
163.528	163.855	72	53
163.637	163.819	51	38
163.746	163.855	53	37
163.855	164.017	51	50
163.855	164.493	61	45
163.855	164.493	67	45
163.855	164.819	72	53
164.179	164.819	51	50
164.493	164.739	61	47
164.493	164.779	67	47
164.493	164.819	70	56
164.739	165.129	61	35
164.779	165.129	67	42
164.819	165.129	51	46
164.819	165.129	75	55
165.129	167.052	51	41
165.129	165.755	60	41
165.129	165.755	63	45
165.129	165.755	68	45
165.447	165.77	61	39
165.447	165.77	65	41
165.447	165.77	70	41
165.77	166.336	65	41
165.77	166.327	68	45
165.77	166.336	73	45
166.086	166.716	63	38
166.086	166.336	67	42
166.086	166.336	72	42
166.327	166.949	68	42
166.407	166.716	67	40
166.407	166.949	75	46
166.716	167.052	63	38
166.716	166.959	67	42
166.716	166.959	72	42
166.959	167.672	61	34
167.006	167.672	67	34
167.052	167.64	51	39
167.052	167.672	73	47
167.384	167.64	62	32
167.476	167.64	63	32
167.572	167.672	65	31
167.672	167.838	63	36
167.672	168.644	65	46
167.672	168.319	67	46
167.672	168.644	73	46
168.004	168.644	63	42
168.319	168.96	61	44
168.319	168.96	67	44
168.319	168.96	72	44
168.644	168.96	63	39
168.96	171.018	56	41
168.96	169.612	60	41
168.96	169.612	63	45
168.96	169.612	68	45
169.294	169.627	61	40
169.294	169.627	65	42
169.294	169.627	70	42
169.627	170.217	63	44
169.627	170.217	66	48
169.627	169.95	72	48
169.95	170.65	70	47
169.95	170.294	72	47
169.95	170.65	78	53
170.294	170.65	68	44
170.294	170.65	72	41
170.294	170.65	77	46
170.65	171.018	66	36
170.65	171.018	72	34
170.65	171.018	76	38
171.018	171.68	49	54
171.018	171.68	65	46
171.018	171.68	77	52
171.45	171.68	55	49
171.534	171.68	56	49
171.621	171.709	61	48
171.709	172.641	65	55
171.709	172.641	77	62
172.052	172.641	68	59
172.339	172.641	44	58
172.641	172.809	56	52
172.641	172.809	61	52
172.641	172.978	65	56
172.641	172.809	68	52
172.641	172.978	77	63
172.978	173.543	49	59
172.978	173.543	65	63
172.978	173.543	77	71
173.337	173.543	55	49
173.42	173.543	56	49
173.461	173.589	68	60
173.461	173.589	80	67
173.504	173.617	61	48
173.589	173.925	65	59
173.589	174.858	68	60
173.589	174.858	80	67
173.925	174.43	56	56
173.925	174.43	61	56
173.925	174.43	65	56
174.22	174.43	44	61
174.53	174.694	56	49
174.53	174.694	61	49
174.53	174.694	65	49
174.858	175.408	51	55
175.165	175.408	55	45
175.165	175.462	66	59
175.165	175.486	78	66
175.264	175.408	56	45
175.363	175.486	60	44
175.462	175.754	66	53
175.462	175.978	68	61
175.462	175.978	80	68
175.754	176.053	56	57
175.754	176.053	60	57
175.754	176.053	66	57
175.754	176.671	70	63
175.754	176.671	82	70
176.053	176.671	44	53
176.053	176.671	73	65
176.053	176.671	85	73
176.35	176.671	56	42
176.35	176.671	60	42
176.35	176.671	66	42
176.35	176.697	72	62
176.35	176.697	84	69
176.671	177.325	51	58
176.671	177.325	75	70
176.671	177.325	87	83
176.981	177.325	55	45
176.981	177.325	70	60
176.981	177.325	82	67
177.082	177.325	56	45
177.183	177.325	60	42
177.284	177.445	66	52
177.284	178.537	68	56
177.284	178.537	80	63
177.607	178.114	56	49
177.607	178.114	60	49
177.607	178.114	66	49
177.899	178.114	44	41
178.216	178.376	56	39
178.216	178.376	60	39
178.216	178.376	66	39
178.537	179.13	49	39
178.537	179.13	65	45
178.537	179.13	77	45
178.921	179.13	55	32
178.998	179.13	56	32
179.076	179.156	61	31
179.156	180.081	65	45
179.156	180.081	77	45
179.49	180.081	68	42
179.78	180.081	44	38
180.081	180.245	56	34
180.081	180.245	61	34
180.081	180.41	65	41
180.081	180.245	68	34
180.081	180.41	77	41
180.41	180.955	49	39
180.41	180.955	65	46
180.41	180.955	77	46
180.756	180.955	55	32
180.837	180.955	56	32
180.878	180.999	68	43
180.878	180.999	80	43
180.918	181.027	61	31
180.999	181.334	65	38
180.999	182.269	68	43
180.999	182.269	80	43
181.334	181.841	56	40
181.334	181.841	61	40
181.334	181.841	65	40
181.631	181.841	44	38
181.941	182.105	56	30
181.941	182.105	61	30
181.941	182.105	65	30
182.269	182.819	51	46
182.576	182.819	55	38
182.576	182.873	66	55
182.576	182.897	78	55
182.675	182.819	56	38
182.774	182.897	60	37
182.873	183.165	66	45
182.873	183.392	68	57
182.873	183.392	80	57
183.165	183.468	56	48
183.165	183.468	60	48
183.165	183.468	66	48
183.165	184.096	70	59
183.165	184.096	82	59
183.468	184.096	44	45
183.468	184.096	73	61
183.468	184.096	85	61
183.775	184.096	56	36
183.775	184.096	60	36
183.775	184.096	66	36
183.775	184.122	72	58
183.775	184.122	84	58
184.096	184.758	51	49
184.096	184.758	78	65
184.096	184.758	90	65
184.406	184.758	55	38
184.406	184.758	70	56
184.406	184.758	82	56
184.509	184.758	56	38
184.613	184.758	60	37
184.716	184.878	66	45
184.716	185.37	68	55
184.716	185.37	80	55
185.04	185.37	56	43
185.04	185.37	60	43
185.04	185.37	66	43
185.37	186.029	47	33
185.37	186.029	69	33
185.37	186.029	75	33
185.37	186.012	80	40
185.607	186.029	58	23
185.686	186.029	59	28
185.686	186.029	79	37
186.012	186.608	52	42
186.012	186.608	68	49
186.012	186.608	80	49
186.395	186.608	58	36
186.475	186.608	59	36
186.554	186.634	61	36
186.634	186.968	59	49
186.634	187.577	68	52
186.634	187.577	80	52
186.968	187.577	59	44
187.266	187.905	47	44
187.577	187.905	53	44
187.577	187.905	59	44
187.577	187.905	62	44
187.577	187.905	68	53
187.577	187.905	80	53
187.905	188.475	54	50
187.905	188.475	71	52
187.905	188.475	83	58
188.21	188.475	58	41
188.21	188.507	69	52
188.21	188.507	81	58
188.309	188.475	59	41
188.408	188.507	61	40
188.507	188.816	59	55
188.507	189.654	73	58
188.507	189.654	85	65
188.816	189.407	59	56
188.816	189.654	75	54
188.816	189.654	87	61
189.106	189.654	47	51
189.106	189.654	80	64
189.106	189.654	92	72
189.407	189.654	59	47
189.407	189.654	63	47
189.407	189.654	69	47
189.407	189.736	78	61
189.407	189.736	90	68
189.736	190.329	52	42
189.736	190.329	68	49
189.736	190.329	80	49
190.119	190.329	58	34
190.196	190.329	59	34
190.275	190.355	61	34
190.355	190.689	59	46
190.355	191.295	68	49
190.355	191.295	80	49
190.689	191.295	59	41
190.986	191.623	47	41
191.295	191.623	53	37
191.295	191.623	59	37
191.295	191.623	62	37
191.295	191.623	68	45
191.295	191.623	80	45
191.623	192.192	54	42
191.623	192.192	71	49
191.623	192.192	83	49
191.928	192.192	58	34
191.928	192.225	69	49
191.928	192.225	81	49
192.027	192.192	59	34
192.126	192.225	61	34
192.225	192.534	59	46
192.225	193.141	73	51
192.225	193.141	85	51
192.534	193.141	59	46
192.534	193.141	75	48
192.534	193.141	87	48
192.762	193.141	80	48
192.838	193.141	47	48
192.838	193.141	92	55
193.141	193.305	59	43
193.141	193.305	63	43
193.141	193.305	69	43
193.141	193.47	78	52
193.141	193.47	90	52
193.47	193.871	64	69
193.47	194.064	68	53
193.47	194.064	80	63
193.774	193.967	63	56
193.871	194.033	64	56
193.967	194.064	63	56
194.064	194.68	62	66
194.064	194.68	68	49
194.064	194.68	78	58
194.064	194.68	80	58
194.376	194.68	63	53
194.68	195.274	60	60
194.68	195.613	68	56
194.68	195.311	76	66
194.68	195.613	80	66
194.997	195.311	56	55
195.311	195.613	61	60
195.311	195.613	77	66
195.613	195.905	57	55
195.613	195.905	66	48
195.613	195.905	72	57
195.613	195.905	75	57
195.905	196.267	58	58
195.905	196.267	65	53
195.905	196.267	73	63
196.224	196.557	53	54
196.224	196.557	63	47
196.224	196.557	69	56
196.224	196.557	72	56
196.527	196.899	54	57
196.527	196.899	61	51
196.527	196.899	70	60
196.837	197.161	50	53
196.837	197.161	59	53
196.837	197.161	65	53
196.837	197.161	68	53
197.161	199.024	51	49
197.161	199.024	58	49
197.161	197.893	66	58
197.472	197.893	68	55
197.772	198.492	69	55
198.088	198.492	70	60
198.395	198.852	73	65
198.71	198.945	66	58
198.945	199.617	60	50
198.984	199.577	66	51
199.024	199.617	44	50
199.024	199.617	70	58
199.365	199.617	55	41
199.459	199.617	56	41
199.553	199.648	58	40
199.577	200.94	66	48
199.648	199.979	56	50
199.648	200.612	77	58
199.979	200.612	56	50
200.294	200.94	44	46
200.612	200.94	56	43
200.612	200.94	72	53
200.94	202.373	49	34
201.249	201.452	68	39
201.324	201.452	65	39
201.401	201.508	61	39
201.48	201.648	56	44
201.816	202.413	56	33
201.816	202.413	61	33
201.816	202.413	65	39
201.816	202.413	68	40
202.111	202.413	44	34
202.413	202.741	50	39
202.413	202.741	56	36
202.413	202.741	59	36
202.413	202.741	65	43
202.413	202.741	68	43
202.741	204.153	51	49
203.05	203.254	68	39
203.125	203.254	66	39
203.203	203.31	60	39
203.282	203.449	56	44
203.615	204.211	56	34
203.615	204.211	60	34
203.615	204.211	66	41
203.615	204.211	68	43
203.91	204.211	44	39
204.211	204.556	48	35
204.211	204.556	56	32
204.211	204.556	64	38
204.211	204.556	68	38
204.556	205.982	49	27
204.865	205.069	68	27
204.941	205.069	65	27
205.018	205.125	61	27
205.097	205.264	56	30
205.43	206.022	56	27
205.43	206.022	61	27
205.43	206.022	65	27
205.43	206.022	68	28
205.72	206.022	44	27
206.022	206.35	50	31
206.022	206.35	56	26
206.022	206.35	59	26
206.022	206.35	65	26
206.022	206.35	68	26
206.35	207.809	51	36
206.659	206.868	68	27
206.736	206.868	66	27
206.815	206.924	60	27
206.896	207.064	56	30
207.232	207.841	56	31
207.232	207.841	60	31
207.232	207.841	66	31
207.232	207.841	68	33
207.532	207.841	44	31
207.841	208.167	48	34
207.841	208.167	56	31
207.841	208.167	64	31
207.841	208.167	68	31
208.167	212.221	49	31
208.167	208.529	56	31
208.167	208.698	65	31
208.167	209.036	68	31
208.529	212.221	56	32
208.698	208.867	61	33
208.698	209.036	65	33
208.867	212.221	61	32
209.036	209.204	65	33
209.036	209.371	68	33
209.204	212.221	65	31
209.371	209.537	68	33
209.371	209.703	73	33
209.537	210.527	68	31
209.703	209.868	73	32
209.703	210.033	77	32
209.868	210.697	73	30
210.033	210.197	77	32
210.033	210.36	80	32
210.197	210.697	77	30
210.36	211.045	80	31
210.36	211.405	85	31
210.527	212.221	68	29
210.697	210.869	73	31
210.697	211.045	77	31
210.869	212.221	73	29
211.045	211.223	77	30
211.045	211.405	80	30
211.223	212.221	77	29
211.405	211.59	80	30
211.405	211.78	85	30
211.59	212.221	80	28
211.78	211.974	85	30
211.78	212.171	89	30
211.974	212.221	85	28
212.171	212.38	89	29
212.171	217.024	92	29
212.29	217.024	73	28
212.34	217.024	80	28
212.35	217.024	85	29
212.38	217.024	89	35
212.409	217.024	97	35
214.515	217.086	37	17
214.515	217.086	44	17
214.515	217.086	49	22
214.515	217.086	53	20
214.515	217.086	61	20
214.515	217.086	65	26
