OnsetTime	OffsetTime	MidiPitch	Velocity
2.12817	2.64682	36	27
2.12817	2.64682	60	35
2.64682	2.78342	32	25
2.64682	2.78342	56	31
2.78342	4.45276	29	22
2.78342	4.45276	53	28
4.45276	4.93009	32	27
4.45276	4.93009	56	35
4.93009	5.03751	36	24
4.93009	5.03751	60	30
5.03751	5.5658	41	27
5.03751	5.5658	65	35
5.5658	6.0339	44	27
5.5658	6.0339	68	35
6.0339	6.13545	48	24
6.0339	6.13545	72	30
6.13545	6.69421	53	27
6.13545	6.69421	77	35
6.70238	7.25883	56	26
6.70238	7.25883	65	33
7.25883	8.38498	52	26
7.25883	8.38498	55	26
7.25883	8.38498	60	26
7.25883	8.24089	72	35
8.18624	8.33529	74	33
8.33529	8.38498	72	31
8.38498	9.48076	53	26
8.38498	9.48076	56	26
8.38498	9.48076	59	26
8.38498	8.50001	74	32
8.4427	8.55695	76	28
8.50001	8.61349	74	32
8.55695	8.66967	76	28
8.61349	8.72542	74	32
8.66967	8.78121	76	29
8.72542	8.83715	74	32
8.78121	8.89341	76	28
8.83715	8.94983	74	31
8.89341	9.00657	76	29
8.94983	9.06347	74	27
9.00657	9.2599	76	32
9.06347	9.36529	74	27
9.15452	9.48076	72	28
9.2599	9.48076	76	31
9.36529	9.48076	74	28
9.48076	9.94262	52	19
9.48076	9.94262	55	22
9.48076	9.94262	60	26
9.48076	9.94262	72	35
11.5591	12.0574	37	27
11.5591	12.0574	61	35
12.0574	12.1934	34	25
12.0574	12.1934	58	31
12.1934	13.882	30	22
12.1934	13.882	54	28
13.882	14.371	34	27
13.882	14.371	58	35
14.371	14.4784	37	24
14.371	14.4784	61	30
14.4784	15.0067	42	27
14.4784	15.0067	66	35
15.0067	15.4724	46	27
15.0067	15.4724	70	35
15.4724	15.5739	49	24
15.4724	15.5739	73	30
15.5739	16.1408	54	29
15.5739	16.1408	78	34
16.1408	16.6973	58	26
16.1408	16.6973	66	33
16.6973	17.8214	53	26
16.6973	17.8214	56	26
16.6973	17.8214	61	26
16.6973	17.6793	73	35
17.6247	17.7738	75	32
17.7738	17.8214	73	31
17.8214	18.9212	54	26
17.8214	18.9212	57	26
17.8214	18.9212	60	26
17.8214	17.9385	75	30
17.8802	17.9961	77	27
17.9385	18.0532	75	30
17.9961	18.1098	77	27
18.0532	18.1657	75	30
18.1098	18.2213	77	27
18.1657	18.2769	75	29
18.2213	18.3329	77	27
18.2769	18.389	75	29
18.3329	18.4455	77	28
18.389	18.5029	75	30
18.4455	18.7004	77	28
18.5029	18.8057	75	26
18.595	18.9212	73	28
18.7004	18.9212	77	31
18.8057	18.9212	75	29
18.9212	19.2937	53	19
18.9212	19.2937	56	22
18.9212	19.2937	61	26
18.9212	19.2937	73	35
21.1564	22.2812	64	26
21.1564	22.2812	67	26
21.1564	22.1371	72	35
22.0825	22.2315	74	42
22.2315	22.2812	72	38
22.2812	23.3729	65	26
22.2812	23.3729	68	26
22.2812	23.3729	71	26
22.2812	22.394	74	43
22.3377	22.4501	76	35
22.394	22.5061	74	40
22.4501	22.5618	76	36
22.5061	22.6173	74	39
22.5618	22.6727	76	36
22.6173	22.7285	74	41
22.6727	22.7844	76	37
22.7285	22.8406	74	40
22.7844	22.897	76	35
22.8406	22.9546	74	31
22.897	23.1521	76	37
22.9546	23.2575	74	33
23.0467	23.3729	72	33
23.1521	23.3729	76	37
23.2575	23.3729	74	33
23.3729	23.718	64	22
23.3729	23.718	67	26
23.3729	23.718	72	35
23.8906	23.9864	37	27
24.0804	24.1756	37	26
24.2709	24.3673	37	26
24.4638	24.6501	36	26
25.5814	26.7054	67	26
25.5814	26.7054	70	26
25.5814	26.7054	73	26
25.5814	26.5621	76	35
26.5074	26.7054	77	38
26.7054	27.779	68	26
26.7054	27.779	70	26
26.7054	27.779	73	26
26.7054	26.8167	77	39
26.7611	26.8721	79	34
26.8167	26.9273	77	39
26.8721	26.9824	79	35
26.9273	27.0374	77	39
26.9824	27.0922	79	35
27.0374	27.1471	77	39
27.0922	27.2023	79	35
27.1471	27.2576	77	39
27.2023	27.3131	79	36
27.2576	27.3688	77	33
27.3131	27.5581	79	39
27.3688	27.6635	77	33
27.4527	27.779	76	34
27.5581	27.779	79	40
27.6635	27.779	77	35
27.779	28.125	67	22
27.779	28.125	70	22
27.779	28.125	73	26
27.779	28.125	76	35
28.298	28.3926	37	27
28.4873	28.5828	37	26
28.6783	28.7754	37	26
28.8725	29.0582	36	26
29.4297	29.6762	76	35
29.4297	29.6762	79	35
29.6762	29.9227	76	31
29.6762	29.9227	79	31
29.9227	30.1903	76	35
29.9227	30.1903	79	35
30.1903	30.6364	79	35
30.1903	30.6364	82	35
30.8594	31.1249	37	27
31.1249	31.4039	37	26
31.4039	31.706	37	26
31.706	32.3023	36	26
32.5964	32.8345	79	83
32.5964	32.8345	82	83
32.8345	33.0835	79	77
32.8345	33.0835	82	77
33.0835	34.1679	79	83
33.0835	33.4284	82	83
33.3455	33.5938	88	85
33.4284	34.0046	82	76
33.5112	33.7585	91	85
33.5938	33.8407	88	75
33.6762	34.3232	94	85
33.7585	33.9227	91	76
33.8407	34.0863	88	85
33.9227	34.3232	91	76
34.0046	34.2493	82	83
34.0863	34.3232	88	75
34.1679	34.3232	79	83
34.2493	34.3306	82	74
34.3306	34.5739	76	81
34.4117	35.3036	79	74
34.4928	34.736	70	81
34.5739	35.3036	76	71
34.655	34.8982	67	80
34.736	35.3036	70	73
34.8171	35.0604	64	80
34.8982	35.3036	67	70
34.9793	35.2225	58	79
35.0604	35.3036	64	71
35.1415	35.3036	55	75
35.2225	35.3036	58	63
35.3036	35.5514	52	75
35.3848	35.8224	55	64
35.4662	35.8224	46	75
35.5514	35.8224	52	60
35.6498	35.8224	31	73
35.7322	35.8224	34	67
35.8148	36.4423	40	77
35.8978	36.4423	43	67
35.9811	36.4423	46	77
36.0645	36.4423	49	67
36.1484	36.4423	52	82
36.2326	36.4423	55	73
36.317	36.4877	58	89
36.9775	37.3602	29	72
36.9775	37.3602	41	72
36.9775	37.3602	49	86
36.9775	37.3602	56	86
36.9775	37.3602	61	86
37.8642	40.2505	40	40
37.8642	40.2505	48	40
37.8642	40.2505	52	48
37.8642	40.2505	55	48
37.8642	40.2505	60	48
40.3187	40.8558	36	27
40.3187	40.8558	60	35
40.8558	40.9513	32	25
40.8558	40.9513	56	31
40.9513	41.3387	29	81
40.9513	41.1752	53	103
41.1752	41.507	53	75
41.1752	41.5022	56	75
41.1752	41.5022	60	85
41.1752	41.5022	65	101
41.3387	41.6657	29	61
41.3387	41.6657	32	61
41.3387	41.6657	36	69
41.3387	41.6657	41	81
41.5022	41.8775	56	72
41.5022	41.8292	60	72
41.5022	41.8292	65	81
41.5022	41.8292	68	96
41.6657	41.9927	29	57
41.6657	41.9927	32	57
41.6657	41.9927	36	64
41.6657	41.9927	41	76
41.8292	42.2236	60	71
41.8292	42.1562	65	71
41.8292	42.1562	68	79
41.8292	42.1562	72	96
41.9927	42.3197	29	55
41.9927	42.3197	32	55
41.9927	42.3197	36	63
41.9927	42.3197	41	73
42.1562	42.5315	65	72
42.1562	42.4831	68	72
42.1562	42.4831	72	80
42.1562	42.4831	77	95
42.3197	42.6466	29	61
42.3197	42.6466	32	61
42.3197	42.6466	36	69
42.3197	42.6466	41	81
42.4831	42.8518	68	76
42.4831	42.8101	72	76
42.4831	42.8101	77	86
42.4831	42.8101	80	103
42.6466	42.9887	29	55
42.6466	42.9887	32	55
42.6466	42.9887	36	63
42.6466	42.9887	41	73
42.8101	42.9887	72	71
42.8101	42.9887	77	78
42.8101	42.9887	80	78
42.8101	42.9887	84	94
42.9887	44.5958	29	61
42.9887	44.5958	32	61
42.9887	44.5958	36	69
42.9887	44.5958	41	81
42.9887	44.5958	77	76
42.9887	44.5958	80	86
42.9887	44.5958	84	86
42.9887	44.5958	89	103
44.5958	45.0399	32	33
44.5958	45.0399	56	41
45.0399	45.1382	36	28
45.0399	45.1382	60	35
45.1382	45.6217	41	33
45.1382	45.6217	65	39
45.6217	46.0501	44	33
45.6217	46.0501	68	41
46.0501	46.143	48	28
46.0501	46.143	72	36
46.143	46.6581	53	33
46.143	46.6581	77	39
46.6618	47.1877	41	30
46.6618	47.1877	65	39
47.1877	47.7433	52	81
47.1877	47.4115	55	81
47.1877	47.4115	60	103
47.4115	47.7433	55	75
47.4115	47.7385	60	85
47.4115	47.7385	64	101
47.575	47.902	40	61
47.575	47.902	43	69
47.575	47.902	48	81
47.7385	48.1139	60	72
47.7385	48.0655	64	81
47.7385	48.0655	67	96
47.902	48.229	40	57
47.902	48.229	43	64
47.902	48.229	48	76
48.0655	48.4599	64	71
48.0655	48.3925	67	79
48.0655	48.3925	72	96
48.229	48.556	40	55
48.229	48.556	43	63
48.229	48.556	48	73
48.3925	48.7678	67	72
48.3925	48.7195	72	80
48.3925	48.7195	76	95
48.556	48.883	40	61
48.556	48.883	43	69
48.556	48.883	48	81
48.7195	49.2346	72	76
48.7195	49.0465	76	86
48.7195	49.0465	79	103
48.883	49.3495	40	55
48.883	49.3495	43	63
48.883	49.3495	48	73
49.0465	49.3495	76	78
49.0465	49.3495	79	78
49.0465	49.3495	84	94
49.3495	50.3788	64	30
49.3495	50.3788	67	30
49.3495	50.247	72	41
50.1969	50.3788	74	45
50.3788	51.4432	65	30
50.3788	51.4432	68	30
50.3788	51.4432	71	30
50.3788	50.4926	74	39
50.4358	50.5492	76	35
50.4926	50.6056	74	39
50.5492	50.6618	76	36
50.6056	50.7178	74	38
50.6618	50.7736	76	36
50.7178	50.829	74	38
50.7736	50.8852	76	36
50.829	50.9419	74	39
50.8852	50.9992	76	37
50.9419	51.0571	74	35
50.9992	51.2411	76	39
51.0571	51.3375	74	35
51.1446	51.4432	72	36
51.2411	51.4432	76	41
51.3375	51.4432	74	38
51.4432	51.9988	52	81
51.4432	51.6671	55	81
51.4432	51.6671	60	103
51.6671	51.9988	55	75
51.6671	51.9941	60	85
51.6671	51.9941	64	101
51.8306	52.1575	40	61
51.8306	52.1575	43	69
51.8306	52.1575	48	81
51.9941	52.3694	60	72
51.9941	52.321	64	81
51.9941	52.321	67	96
52.1575	52.4845	40	57
52.1575	52.4845	43	64
52.1575	52.4845	48	76
52.321	52.7155	64	71
52.321	52.648	67	79
52.321	52.648	72	96
52.4845	52.8115	40	55
52.4845	52.8115	43	63
52.4845	52.8115	48	73
52.648	53.0234	67	72
52.648	52.975	72	80
52.648	52.975	76	95
52.8115	53.1385	40	61
52.8115	53.1385	43	69
52.8115	53.1385	48	81
52.975	53.4892	72	76
52.975	53.302	76	86
52.975	53.302	79	103
53.1385	53.6035	40	55
53.1385	53.6035	43	63
53.1385	53.6035	48	73
53.302	53.6035	76	78
53.302	53.6035	79	78
53.302	53.6035	84	94
53.6035	54.6328	64	36
53.6035	54.6328	67	36
53.6035	54.501	72	48
54.4509	54.5874	73	52
54.5874	54.6328	72	48
54.6328	55.8611	63	36
54.6328	55.8611	67	36
54.6328	54.7466	73	46
54.6898	54.8031	75	41
54.7466	54.8595	73	46
54.8031	54.9157	75	41
54.8595	54.9718	73	44
54.9157	55.0276	75	41
54.9718	55.083	73	46
55.0276	55.1392	75	42
55.083	55.2245	73	46
55.1392	55.3111	75	43
55.2245	55.3986	73	40
55.3111	55.654	75	46
55.3986	55.5915	73	42
55.4951	55.654	72	48
55.5915	55.6972	73	44
55.6972	56.1863	79	58
55.6972	56.1863	82	58
55.8611	56.0102	75	36
56.0237	56.1727	75	36
56.1863	56.3366	75	39
56.3502	56.5005	75	37
56.5142	56.6644	75	36
56.6781	56.8284	75	39
56.842	56.9911	75	35
57.0046	57.1537	75	35
57.1672	57.3175	75	39
57.3312	57.4814	75	36
57.4951	57.6454	75	36
57.659	58.1464	80	56
57.659	58.1464	83	56
57.823	57.9712	75	38
57.9847	58.1329	75	38
58.1464	58.3104	68	39
58.1464	58.3104	71	39
58.3104	58.4606	75	37
58.4743	58.6246	75	37
58.6382	58.7885	75	41
58.8022	58.9512	75	37
58.9648	59.1138	75	38
59.1274	59.2776	75	46
59.2913	59.4416	75	40
59.4552	59.6055	75	40
59.6192	61.5797	80	75
59.6192	61.5797	83	75
59.6192	61.5797	88	75
59.7831	59.9322	75	38
59.9457	60.0948	75	38
60.1083	60.2709	68	40
60.1083	60.2709	71	40
60.2709	60.4199	75	37
60.4335	60.5825	75	37
60.5961	60.76	68	37
60.5961	60.76	71	37
60.76	60.9103	75	37
60.924	61.0742	75	37
61.0879	61.2518	68	37
61.0879	61.2518	71	37
61.2518	61.4021	75	37
61.4158	61.566	75	37
61.5797	61.7436	67	39
61.5797	61.7436	70	39
61.5797	61.9067	79	52
61.5797	61.9067	82	52
61.5797	61.9067	87	52
61.7436	61.8931	63	37
61.9067	62.0561	63	37
62.0697	62.22	63	38
62.2337	62.3839	63	37
62.3976	62.5479	63	37
62.5615	62.7118	63	37
62.7255	62.8745	63	37
62.8881	63.0371	63	37
63.0507	63.2009	63	38
63.0507	63.454	79	56
63.0507	63.454	82	56
63.2146	63.3609	63	37
63.3742	63.5365	63	37
63.454	63.553	79	52
63.454	63.553	82	52
63.553	63.7032	63	39
63.553	63.8808	80	58
63.553	63.8808	83	58
63.7169	63.8672	63	37
63.8808	64.0283	63	37
63.8808	64.0417	79	52
63.8808	64.0417	82	52
64.0417	64.1892	63	38
64.2026	64.35	63	37
64.3634	64.5137	63	37
64.3634	64.5274	67	50
64.3634	64.5274	70	50
64.5274	64.6764	63	38
64.69	64.839	63	39
64.8526	65.0152	55	49
64.8526	65.0152	58	49
64.8526	65.0016	63	37
65.0152	65.1777	58	44
65.0152	65.1777	61	44
65.1777	65.3284	63	37
65.3421	65.4981	63	37
65.4223	65.5144	79	58
65.4223	65.5144	82	58
65.5144	65.6647	63	39
65.5144	65.8423	82	61
65.5144	65.8423	85	61
65.6784	65.8286	63	37
65.8423	65.9901	63	37
65.8423	66.0036	80	52
65.8423	66.0036	83	52
66.0036	66.1514	63	37
66.1649	66.3127	63	37
66.3262	66.4764	63	37
66.3262	66.4901	68	49
66.3262	66.4901	71	49
66.4901	66.6404	63	38
66.654	66.8027	63	37
66.8162	66.975	56	47
66.8162	66.975	59	47
66.8162	66.9648	63	37
66.9784	67.1405	56	44
66.9784	67.1405	59	48
67.1405	67.2912	63	37
67.3049	67.4718	63	37
67.3871	67.4888	80	52
67.3871	67.4888	83	52
67.4888	69.4534	80	75
67.4888	69.4534	83	75
67.4888	69.4534	88	75
67.6527	67.8018	63	38
67.8153	67.9644	63	38
67.9779	68.1419	56	40
67.9779	68.1419	59	40
68.1419	68.2921	63	37
68.3058	68.4561	63	37
68.4697	68.6337	56	37
68.4697	68.6337	59	37
68.6337	68.7839	63	37
68.7976	68.9479	63	37
68.9615	69.1255	56	36
68.9615	69.1255	59	36
69.1255	69.2758	63	37
69.2894	69.4397	63	37
69.4534	69.7799	79	61
69.4534	69.7799	82	61
69.4534	69.7799	87	61
69.6173	69.7663	63	38
69.7799	69.9289	63	38
69.9425	70.1064	55	40
69.9425	70.1064	58	40
70.1064	70.2567	63	37
70.2704	70.4206	63	37
70.4343	71.4152	66	52
70.4343	71.4152	69	52
70.4343	71.4152	75	52
70.5982	70.7473	63	37
70.7608	70.9099	63	37
70.9234	71.0874	54	36
70.9234	71.0874	57	36
71.0874	71.2376	63	37
71.2513	71.4016	63	37
71.4152	71.7458	65	52
71.4152	71.7458	68	52
71.4152	71.7458	74	52
71.5814	71.7321	63	37
71.7458	71.8965	63	36
71.9102	72.0769	53	38
71.9102	72.0769	56	38
72.0769	72.2296	63	34
72.2435	72.3963	63	34
72.4102	72.7426	64	46
72.4102	72.7426	67	46
72.4102	72.7426	73	46
72.5778	72.7289	63	32
72.7426	72.8937	63	32
72.9075	73.0723	52	30
72.9075	73.0723	55	30
73.0723	73.2234	63	31
73.2371	73.3957	63	30
73.4101	73.9133	63	41
73.4101	73.9133	67	41
73.4101	73.9133	73	41
73.5777	73.7313	51	25
73.7453	73.8993	51	26
73.9133	74.0674	51	28
74.0814	74.2359	51	26
74.2499	74.4044	51	26
74.4185	74.5734	51	28
74.5875	74.7424	51	26
74.7565	74.9118	51	26
74.926	75.0813	51	28
75.0955	75.2513	51	26
75.2654	75.4212	51	27
75.4354	75.9556	55	41
75.4354	75.9556	58	41
75.4354	75.9556	61	41
75.6144	75.7707	39	25
75.7849	75.9414	39	26
75.9556	76.1124	39	28
76.1267	76.2838	39	26
76.2981	76.4555	39	26
76.4698	76.6275	39	28
76.6418	76.8006	39	26
76.8151	76.9755	39	26
76.9902	77.1523	39	28
77.1671	77.3309	39	26
77.3459	77.5116	39	27
77.5267	77.8993	32	28
77.7177	78.0809	36	20
77.7177	78.0809	39	20
77.7177	78.0809	44	25
77.8993	78.2625	32	26
78.0809	78.4441	36	22
78.0809	78.4441	39	22
78.0809	78.4441	44	28
78.2625	78.6257	32	26
78.4441	78.7165	36	20
78.4441	78.7165	39	20
78.4441	78.7165	44	26
78.6257	78.9889	32	28
78.8073	79.1706	36	20
78.8073	79.1706	39	20
78.8073	79.1706	44	26
78.9889	79.3522	32	26
79.1706	79.5431	36	22
79.1706	79.5431	39	22
79.1706	79.5431	44	28
79.1706	79.8352	48	40
79.1706	79.8352	60	44
79.3522	79.7597	32	26
79.5431	79.8352	36	21
79.5431	79.8352	39	21
79.5431	79.8352	44	27
79.6386	79.8352	51	37
79.6386	79.8352	63	40
79.7597	80.1028	32	28
79.7597	80.7301	56	38
79.7597	80.7301	68	41
79.931	80.2745	36	20
79.931	80.2745	39	20
79.931	80.2745	44	25
80.1028	80.4546	32	26
80.2745	80.6383	36	22
80.2745	80.6383	39	22
80.2745	80.6383	44	28
80.2745	80.9029	60	40
80.2745	80.9029	72	44
80.4546	80.9029	32	26
80.6383	80.9029	36	20
80.6383	80.9029	39	20
80.6383	80.9029	44	26
80.7301	80.9029	56	36
80.7301	80.9029	68	39
80.8351	81.1911	34	28
80.8351	81.826	55	38
80.8351	81.826	67	41
81.016	81.3661	37	20
81.016	81.3661	39	20
81.016	81.3661	46	26
81.1911	81.5446	34	26
81.3661	81.7322	37	22
81.3661	81.7322	39	22
81.3661	81.7322	46	28
81.3661	81.9689	58	40
81.3661	81.9689	70	44
81.5446	81.9689	34	26
81.7322	81.9689	37	21
81.7322	81.9689	39	21
81.7322	81.9689	46	27
81.826	81.9689	55	36
81.826	81.9689	67	39
81.9388	82.2823	36	28
81.9388	83.0145	56	38
81.9388	83.0145	68	41
82.1106	82.454	39	20
82.1106	82.454	44	20
82.1106	82.454	48	25
82.2823	82.6305	36	26
82.454	82.8071	39	22
82.454	82.8071	44	22
82.454	82.8071	48	28
82.454	84.0573	51	40
82.454	84.0573	63	40
82.6305	82.9836	36	26
82.8071	83.0145	39	20
82.8071	83.0145	44	20
82.8071	83.0145	48	26
82.9836	83.3367	36	28
83.1601	84.0573	39	20
83.1601	83.5132	44	20
83.1601	84.0573	48	26
83.3367	84.0573	36	26
83.5132	83.8773	44	28
83.5132	84.0573	53	40
83.5132	84.0573	65	44
83.6897	84.0573	37	26
83.8773	84.0835	44	27
83.9711	84.0835	49	37
83.9711	84.0835	61	40
84.0835	84.4261	39	28
84.0835	85.0543	48	40
84.0835	85.0543	60	44
84.2548	84.5973	44	25
84.4261	84.7779	39	26
84.5973	84.9622	44	28
84.5973	85.1776	51	40
84.5973	85.1776	63	44
84.7779	85.1593	39	25
84.9622	85.1776	44	25
85.0543	85.1776	48	36
85.0543	85.1776	60	39
85.1593	85.5152	39	28
85.1593	86.2802	46	40
85.1593	86.2802	58	44
85.3402	85.6903	43	25
85.5152	85.8688	39	25
85.6903	86.0609	43	28
85.6903	86.2802	51	40
85.6903	86.2802	63	44
85.8688	86.2802	39	25
86.0609	86.2802	43	25
86.1569	86.2802	49	36
86.1569	86.2802	61	39
86.2749	86.6423	44	28
86.2749	87.3856	60	42
86.4586	86.826	48	20
86.4586	86.826	51	20
86.4586	86.826	56	25
86.6423	87.0056	44	27
86.826	87.1851	48	23
86.826	87.1851	51	23
86.826	87.1851	56	29
86.826	88.3642	63	42
87.0056	87.3647	44	28
87.1851	87.3856	48	22
87.1851	87.3856	51	22
87.1851	87.3856	56	29
87.3647	87.7238	44	32
87.5442	87.9033	48	24
87.5442	87.9033	51	24
87.5442	87.9033	56	31
87.7238	88.0828	44	31
87.9033	88.2704	48	27
87.9033	88.2704	51	27
87.9033	88.2704	56	35
87.9033	88.5064	60	51
87.9033	88.5064	72	55
88.0828	88.4857	44	33
88.2704	88.5064	48	27
88.2704	88.5064	51	27
88.2704	88.5064	56	34
88.3642	88.5064	63	49
88.3642	88.5064	75	53
88.4857	88.8398	44	37
88.4857	89.468	68	51
88.4857	89.468	80	56
88.6627	89.0168	48	27
88.6627	89.0168	51	27
88.6627	89.0168	56	34
88.8398	89.1956	44	36
89.0168	89.3772	48	30
89.0168	89.3772	51	30
89.0168	89.3772	56	39
89.0168	89.5914	72	57
89.0168	89.5914	84	62
89.1956	89.5914	44	37
89.3772	89.5914	48	29
89.3772	89.5914	51	29
89.3772	89.5914	56	38
89.468	89.5914	68	53
89.468	89.5914	80	58
89.573	89.9289	46	40
89.573	90.5685	67	57
89.573	90.5685	79	61
89.7539	90.104	49	29
89.7539	90.104	51	29
89.7539	90.104	58	38
89.9289	90.2872	46	39
90.104	90.4747	49	34
90.104	90.4747	51	34
90.104	90.4747	58	42
90.104	90.7619	70	62
90.104	90.7619	82	68
90.2872	90.7619	46	40
90.4747	90.7619	49	33
90.4747	90.7043	51	33
90.4747	90.7619	58	42
90.5685	90.7619	67	58
90.5685	90.7619	79	63
90.7043	92.8659	48	28
90.7043	92.8659	51	28
90.7043	92.8055	56	36
90.7043	92.8659	60	36
90.7043	92.8659	68	51
90.7043	92.8659	80	57
91.2429	92.8659	63	45
91.2429	92.8659	75	52
92.8055	94.8364	49	50
92.8055	94.8364	52	50
92.8055	93.5136	56	59
92.8055	93.5136	64	72
92.8055	93.5136	76	85
93.3493	94.8364	57	57
93.3493	94.8364	61	69
93.3493	94.8364	73	81
94.8287	96.8752	51	28
94.8287	96.8752	56	36
94.8287	96.8752	59	36
94.8287	96.6878	71	58
96.3329	96.6878	70	51
96.6787	96.8272	68	49
96.8272	96.8752	69	38
96.8752	100.975	51	25
96.8752	100.975	55	31
96.8752	100.975	61	31
96.8752	97.0538	71	44
96.9649	97.141	70	38
97.0538	97.2293	71	46
97.141	97.3172	70	40
97.2293	97.4034	71	47
97.3172	97.4892	70	40
97.4034	97.5741	71	48
97.4892	97.6594	70	41
97.5741	97.7436	71	49
97.6594	97.8287	70	42
97.7436	97.9136	71	50
97.8287	97.9986	70	42
97.9136	98.084	71	51
97.9986	98.1694	70	44
98.084	98.2548	71	51
98.1694	98.3407	70	45
98.2548	98.426	71	52
98.3407	98.5125	70	46
98.426	98.5984	71	53
98.5125	98.6846	70	48
98.5984	98.7713	71	55
98.6846	98.8588	70	48
98.7713	98.8843	71	56
98.8588	100.975	70	48
98.9468	99.1319	76	46
99.0453	99.218	75	39
99.1319	99.3042	76	46
99.218	99.3893	75	40
99.3042	99.4742	76	48
99.3893	99.5592	75	41
99.4742	99.6435	76	50
99.5592	99.7276	75	44
99.6435	99.8119	76	51
99.7276	99.8962	75	45
99.8119	99.9807	76	53
99.8962	100.065	75	47
99.9807	100.15	76	56
100.065	100.235	75	48
100.15	100.32	76	56
100.235	100.405	75	47
100.32	100.49	76	56
100.405	100.576	75	48
100.49	100.662	76	56
100.576	100.748	75	49
100.662	100.975	76	56
100.748	100.921	75	49
100.834	100.975	74	56
100.921	103.024	75	48
101.009	101.193	88	55
101.107	101.278	87	46
101.193	101.362	88	55
101.278	101.445	87	48
101.362	101.527	88	57
101.445	101.608	87	50
101.527	101.69	88	60
101.608	101.771	87	51
101.69	101.852	88	62
101.771	101.933	87	52
101.852	102.014	88	63
101.933	102.096	87	55
102.014	102.177	88	67
102.096	102.258	87	56
102.177	102.34	88	68
102.258	102.423	87	57
102.34	102.507	88	67
102.423	102.592	87	56
102.507	102.677	88	67
102.592	102.763	87	58
102.677	103.024	88	67
102.763	102.936	87	58
102.849	103.024	86	67
102.936	103.024	87	56
103.024	103.205	88	64
103.205	103.385	87	55
103.385	103.566	85	48
103.566	103.747	83	49
103.747	103.928	82	48
103.928	104.108	80	48
104.108	104.289	79	49
104.289	104.47	78	47
104.47	104.65	76	47
104.65	104.831	75	48
104.831	105.012	73	48
105.012	105.193	71	45
105.193	105.373	70	48
105.373	105.556	68	44
105.556	105.739	67	44
105.739	105.924	66	45
105.924	106.111	64	45
106.111	106.297	63	45
106.297	106.483	61	45
106.483	106.67	59	44
106.67	106.856	58	42
106.856	107.042	56	42
107.042	107.229	55	41
107.229	107.415	54	39
107.415	107.601	52	42
107.601	107.787	51	41
107.787	107.974	49	41
107.974	108.162	47	40
108.162	108.35	46	39
108.35	108.538	44	39
108.538	108.728	43	42
108.728	108.917	42	41
108.917	109.106	41	41
109.106	109.295	39	41
109.295	109.485	37	41
109.485	109.685	35	41
109.685	109.878	34	42
109.878	110.071	35	42
110.071	110.264	37	42
110.264	110.457	39	42
110.457	110.65	40	41
110.65	110.851	39	39
110.851	111.045	37	42
111.045	111.24	35	40
111.24	111.437	34	40
111.437	111.635	39	45
111.635	111.835	37	42
111.835	112.045	39	40
112.045	112.411	32	64
112.045	112.411	56	83
112.137	112.319	39	52
112.137	112.319	51	66
112.228	112.527	44	52
112.228	112.527	47	66
112.319	112.508	39	52
112.319	112.508	51	66
112.411	112.527	32	58
112.411	112.527	56	80
112.508	112.605	39	51
112.508	112.605	51	64
112.605	112.736	32	68
112.605	112.736	59	84
112.697	112.789	39	52
112.697	112.789	51	66
112.789	112.916	32	64
112.789	112.916	58	83
112.881	112.972	39	52
112.881	112.972	51	66
112.972	113.093	32	62
112.972	113.093	56	81
113.066	113.16	39	52
113.066	113.16	51	66
113.16	113.521	32	64
113.16	113.521	56	83
113.25	113.431	39	52
113.25	113.431	51	63
113.34	113.658	44	52
113.34	113.658	47	63
113.431	113.617	39	52
113.431	113.617	51	63
113.521	113.658	32	58
113.521	113.658	56	79
113.617	113.713	39	51
113.617	113.713	51	62
113.713	113.865	32	68
113.713	113.865	59	83
113.804	113.895	39	52
113.804	113.895	51	63
113.895	114.03	32	64
113.895	114.03	58	80
113.987	114.078	39	52
113.987	114.078	51	66
114.078	114.227	32	62
114.078	114.227	56	80
114.175	114.273	39	52
114.175	114.273	51	64
114.273	114.634	32	64
114.273	114.634	64	83
114.363	114.544	40	52
114.363	114.544	59	66
114.454	114.75	44	52
114.454	114.75	56	66
114.544	114.732	40	52
114.544	114.732	59	66
114.634	114.75	32	58
114.634	114.75	64	80
114.732	114.829	40	51
114.732	114.829	59	64
114.829	114.96	32	68
114.829	114.96	68	84
114.921	115.012	40	52
114.921	115.012	59	66
115.012	115.139	32	64
115.012	115.139	66	83
115.104	115.196	40	52
115.104	115.196	59	66
115.196	115.316	32	62
115.196	115.316	64	81
115.29	115.383	40	52
115.29	115.383	59	66
115.383	115.745	32	64
115.383	115.745	64	83
115.474	115.654	40	52
115.474	115.654	59	63
115.564	115.881	44	52
115.564	115.881	56	63
115.654	115.841	40	52
115.654	115.841	59	63
115.745	115.881	32	58
115.745	115.881	64	80
115.841	115.937	40	51
115.841	115.937	59	62
115.937	116.089	32	68
115.937	116.089	68	83
116.028	116.12	40	52
116.028	116.12	59	63
116.12	116.255	32	64
116.12	116.255	66	80
116.212	116.303	40	52
116.212	116.303	59	66
116.303	116.448	32	62
116.303	116.448	64	80
116.398	116.493	40	52
116.398	116.493	59	64
116.493	118.14	33	90
116.493	118.14	45	106
116.493	116.673	73	92
116.583	116.763	76	67
116.673	116.854	73	77
116.763	116.943	76	67
116.854	117.033	73	74
116.943	117.123	76	67
117.033	117.213	73	73
117.123	117.303	76	67
117.213	117.393	73	73
117.303	117.484	76	67
117.393	117.574	73	73
117.484	117.664	76	67
117.574	117.754	73	73
117.664	117.844	76	67
117.754	117.934	73	73
117.844	118.024	76	67
117.934	118.114	73	72
118.024	118.14	76	67
118.114	118.667	34	74
118.114	118.667	46	88
118.114	118.388	73	95
118.205	118.667	76	78
118.297	118.667	37	72
118.297	118.573	70	89
118.388	118.667	73	78
118.48	118.667	40	82
118.48	118.667	67	84
118.573	118.667	70	77
118.667	119.191	43	95
118.667	118.938	64	82
118.757	119.191	67	70
118.847	119.191	46	82
118.847	119.118	61	81
118.938	119.191	64	71
119.028	119.208	49	82
119.028	119.191	58	82
119.118	119.208	61	68
119.208	119.389	52	85
119.208	119.57	56	81
119.299	119.479	58	70
119.389	119.57	52	83
119.389	119.723	61	80
119.479	119.667	58	70
119.57	119.756	52	83
119.57	119.723	56	80
119.667	119.764	58	69
119.764	120.349	52	97
119.854	120.125	56	70
119.945	120.216	61	80
120.035	120.349	58	69
120.125	120.349	56	77
120.216	120.349	61	70
120.306	120.848	51	89
120.396	120.667	55	69
120.487	120.758	61	80
120.577	120.805	58	69
120.667	120.805	55	78
120.758	120.848	61	69
120.848	121.214	44	64
120.848	121.214	68	83
120.939	121.122	51	52
120.939	121.122	63	66
121.031	121.362	56	52
121.031	121.362	59	66
121.122	121.311	51	52
121.122	121.311	63	66
121.214	121.362	44	58
121.214	121.362	68	80
121.311	121.408	51	51
121.311	121.408	63	64
121.408	121.538	44	68
121.408	121.538	71	84
121.499	121.591	51	52
121.499	121.591	63	66
121.591	121.717	44	64
121.591	121.717	70	83
121.682	121.774	51	52
121.682	121.774	63	66
121.774	121.894	44	62
121.774	121.894	68	81
121.867	121.961	51	52
121.867	121.961	63	66
121.961	122.323	44	64
121.961	122.323	68	83
122.052	122.232	51	52
122.052	122.232	63	63
122.142	122.459	56	52
122.142	122.459	59	63
122.232	122.419	51	52
122.232	122.419	63	63
122.323	122.459	44	58
122.323	122.459	68	80
122.419	122.514	51	51
122.419	122.514	63	62
122.514	122.667	44	68
122.514	122.667	71	83
122.606	122.697	51	52
122.606	122.697	63	63
122.697	122.832	44	64
122.697	122.832	70	80
122.789	122.88	51	52
122.789	122.88	63	66
122.88	123.029	44	62
122.88	123.029	68	80
122.978	123.076	51	52
122.978	123.076	63	64
123.076	123.437	44	64
123.076	123.437	76	83
123.166	123.347	52	52
123.166	123.347	71	66
123.256	123.553	56	52
123.256	123.553	68	66
123.347	123.534	52	52
123.347	123.534	71	66
123.437	123.553	44	58
123.437	123.553	76	80
123.534	123.631	52	51
123.534	123.631	71	64
123.631	123.762	44	68
123.631	123.762	80	84
123.723	123.814	52	52
123.723	123.814	71	66
123.814	123.941	44	64
123.814	123.941	78	83
123.906	123.997	52	52
123.906	123.997	71	66
123.997	124.118	44	62
123.997	124.118	76	81
124.091	124.185	52	52
124.091	124.185	71	66
124.185	124.546	44	64
124.185	124.546	76	83
124.275	124.456	52	52
124.275	124.456	71	63
124.365	124.683	56	52
124.365	124.683	68	63
124.456	124.642	52	52
124.456	124.642	71	63
124.546	124.683	44	58
124.546	124.683	76	80
124.642	124.738	52	51
124.642	124.738	71	62
124.738	124.89	44	68
124.738	124.89	80	83
124.829	124.921	52	52
124.829	124.921	71	63
124.921	125.056	44	64
124.921	125.056	78	80
125.012	125.104	52	52
125.012	125.104	71	66
125.104	125.249	44	62
125.104	125.249	76	80
125.199	125.294	52	52
125.199	125.294	71	64
125.294	126.94	45	90
125.294	126.94	57	106
125.294	125.473	85	94
125.383	125.563	88	77
125.473	125.654	85	78
125.563	125.744	88	69
125.654	125.834	85	75
125.744	125.924	88	69
125.834	126.014	85	75
125.924	126.104	88	69
126.014	126.194	85	74
126.104	126.284	88	69
126.194	126.375	85	71
126.284	126.465	88	69
126.375	126.555	85	71
126.465	126.644	88	69
126.555	126.735	85	71
126.644	126.824	88	69
126.735	126.914	85	73
126.824	126.94	88	69
126.914	127.467	46	59
126.914	127.467	58	88
126.914	127.097	85	76
127.006	127.189	88	69
127.097	127.467	49	58
127.097	127.467	61	72
127.097	127.28	85	77
127.189	127.374	88	69
127.28	127.467	52	63
127.28	127.467	64	82
127.28	127.467	85	77
127.374	127.467	88	69
127.467	127.992	55	75
127.467	127.992	67	95
127.467	127.738	85	82
127.557	127.992	88	70
127.648	127.992	58	63
127.648	127.992	70	82
127.648	127.919	82	81
127.738	127.992	85	71
127.828	128.009	61	63
127.828	128.009	73	82
127.828	127.992	80	82
127.919	128.009	82	68
128.009	128.19	64	68
128.009	128.19	76	85
128.009	128.37	80	81
128.099	128.28	82	70
128.19	128.37	64	64
128.19	128.37	76	83
128.19	128.523	85	80
128.28	128.467	82	70
128.37	128.556	64	64
128.37	128.556	76	83
128.37	128.523	80	80
128.467	128.565	82	69
128.565	129.149	64	80
128.565	129.149	76	102
128.655	128.926	80	72
128.745	129.016	85	77
128.836	129.149	82	70
128.926	129.149	80	74
129.016	129.149	85	69
129.106	129.654	63	69
129.106	129.654	75	86
129.197	129.468	79	67
129.287	129.552	85	71
129.377	129.552	82	64
129.468	129.561	79	68
129.561	129.654	85	62
129.654	130.239	68	102
129.744	130.015	76	72
129.835	130.106	85	78
129.925	130.239	82	70
130.015	130.239	76	77
130.106	130.239	85	69
130.196	130.743	67	86
130.286	130.557	75	67
130.377	130.642	85	74
130.467	130.642	82	64
130.557	130.65	75	70
130.65	130.743	85	62
130.743	131.328	76	102
130.834	131.104	80	72
130.924	131.195	85	78
131.014	131.328	82	70
131.104	131.328	80	76
131.195	131.328	85	69
131.285	131.827	75	86
131.375	131.646	79	67
131.466	131.728	85	73
131.556	131.728	82	64
131.646	131.737	79	70
131.737	131.827	85	62
131.827	132.891	74	97
131.917	132.891	77	91
132.007	132.891	80	97
132.096	132.883	83	79
132.186	132.54	86	83
132.275	132.452	89	74
132.364	132.804	92	85
132.452	132.883	89	81
132.54	132.883	86	86
132.628	132.883	95	83
132.716	132.883	94	86
132.804	132.891	92	78
132.891	133.966	75	85
132.891	133.153	91	83
132.979	133.966	79	77
132.979	133.882	94	81
133.066	133.882	92	84
133.153	133.882	91	82
133.24	133.503	88	81
133.328	133.591	87	74
133.415	133.679	85	78
133.503	133.882	88	75
133.591	133.882	87	74
133.679	133.882	85	72
133.767	133.882	83	71
133.855	133.966	82	66
133.966	134.5	68	45
133.966	134.5	71	45
134.059	134.413	80	42
134.151	134.459	83	45
134.238	134.459	87	47
134.326	134.459	92	49
134.413	134.5	80	45
134.5	135.027	73	44
134.5	135.027	76	44
134.765	134.94	92	49
134.852	134.99	80	45
134.94	135.027	92	49
135.027	135.553	71	45
135.027	135.553	75	45
135.292	135.466	92	48
135.379	135.495	80	45
135.466	135.553	92	48
135.553	136.067	70	60
135.553	136.067	73	60
135.553	136.067	75	60
135.806	135.98	91	48
135.893	136.005	79	45
135.98	136.067	91	49
136.067	136.601	68	45
136.067	136.601	71	45
136.16	136.514	80	42
136.252	136.56	83	45
136.339	136.56	87	47
136.427	136.56	92	49
136.514	136.601	80	45
136.601	137.128	61	44
136.601	137.128	64	44
136.866	137.041	80	49
136.954	137.091	68	45
137.041	137.128	80	49
137.128	137.654	59	45
137.128	137.654	63	45
137.393	137.567	80	48
137.48	137.596	68	45
137.567	137.654	80	48
137.654	138.168	58	60
137.654	138.168	61	60
137.654	138.168	63	60
137.907	138.081	79	48
137.994	138.106	67	45
138.081	138.168	79	49
138.168	138.702	56	45
138.168	138.702	59	45
138.261	138.615	80	42
138.353	138.661	83	45
138.44	138.661	87	47
138.528	138.661	92	49
138.615	138.702	80	45
138.702	139.229	49	44
138.702	139.229	52	44
138.967	139.142	92	49
139.055	139.192	80	45
139.142	139.229	92	49
139.229	139.755	47	45
139.229	139.755	51	45
139.494	139.668	92	48
139.581	139.697	80	45
139.668	139.755	92	48
139.755	140.282	46	60
139.755	140.282	49	60
139.755	140.282	51	60
140.008	140.188	91	48
140.095	140.215	79	45
140.188	140.282	91	49
140.282	141.396	44	48
140.282	140.635	92	48
140.369	140.546	87	45
140.458	140.813	83	44
140.546	140.724	87	39
140.635	140.992	92	42
140.724	140.902	87	39
140.813	141.172	83	46
140.902	141.082	87	41
140.992	141.371	92	41
141.082	141.271	87	37
141.172	141.396	83	40
141.271	141.396	87	36
141.371	142.046	39	38
141.371	141.795	92	42
141.475	141.687	87	39
141.581	142.046	83	39
141.687	141.904	87	35
141.795	142.015	92	38
141.904	142.046	87	34
142.015	142.836	35	30
142.015	142.239	92	39
142.126	142.354	87	35
142.239	142.47	92	37
142.354	142.588	87	31
142.47	142.712	92	36
142.588	142.836	87	30
142.712	144.389	32	27
142.712	144.389	92	33
144.389	144.905	47	27
144.389	144.905	59	35
144.905	145.04	44	25
144.905	145.04	56	31
145.04	146.701	39	22
145.04	146.701	51	28
146.701	147.211	47	27
146.701	147.211	59	35
147.211	147.346	44	25
147.211	147.346	56	31
147.346	149.026	40	22
147.346	149.026	52	28
149.026	149.507	44	27
149.026	149.507	56	35
149.507	149.614	47	24
149.507	149.614	59	30
149.614	150.14	52	27
149.614	150.14	64	35
150.14	150.605	56	28
150.14	150.605	68	36
150.605	150.706	59	25
150.605	150.706	71	31
150.706	151.266	64	28
150.706	151.266	76	36
151.27	151.824	52	27
151.27	151.824	64	34
151.824	152.942	51	26
151.824	152.942	54	26
151.824	152.942	59	26
151.824	152.8	71	35
152.746	152.894	73	33
152.894	152.942	71	34
152.942	154.025	52	26
152.942	154.025	55	26
152.942	154.025	58	26
152.942	153.055	73	31
152.999	153.112	75	27
153.055	153.168	73	31
153.112	153.223	75	27
153.168	153.279	73	31
153.223	153.334	75	28
153.279	153.389	73	31
153.334	153.444	75	27
153.389	153.5	73	31
153.444	153.557	75	28
153.5	153.613	73	26
153.557	153.804	75	31
153.613	153.91	73	26
153.699	154.025	71	30
153.804	154.025	75	35
153.91	154.025	73	31
154.025	154.398	51	19
154.025	154.398	54	22
154.025	154.398	59	26
154.025	154.398	71	35
156.261	157.38	69	26
156.261	157.38	73	26
156.261	157.237	78	35
157.183	157.38	80	35
157.38	158.458	71	28
157.38	158.458	74	28
157.38	158.458	77	35
157.38	157.493	80	44
157.437	157.549	81	35
157.493	157.604	80	40
157.549	157.66	81	36
157.604	157.715	80	39
157.66	157.769	81	36
157.715	157.824	80	38
157.769	157.88	81	34
157.824	157.935	80	37
157.88	157.991	81	35
157.935	158.047	80	31
157.991	158.237	81	36
158.047	158.342	80	33
158.132	158.458	78	33
158.237	158.458	81	37
158.342	158.458	80	33
158.458	158.831	69	22
158.458	158.831	73	26
158.458	158.831	78	35
160.694	161.844	56	26
160.694	161.844	59	26
160.694	161.701	64	35
161.646	161.844	66	35
161.844	162.931	57	28
161.844	162.931	60	28
161.844	162.931	63	35
161.844	161.956	66	44
161.9	162.011	68	35
161.956	162.067	66	40
162.011	162.122	68	36
162.067	162.177	66	39
162.122	162.232	68	36
162.177	162.287	66	39
162.232	162.342	68	35
162.287	162.397	66	39
162.342	162.452	68	35
162.397	162.51	66	31
162.452	162.711	68	36
162.51	162.816	66	33
162.605	162.931	64	33
162.711	162.931	68	37
162.816	162.931	66	33
162.931	163.474	56	22
162.931	163.474	59	26
162.931	163.474	64	35
163.474	164.571	42	44
163.474	164.571	57	45
163.474	164.571	61	45
163.474	164.571	69	53
164.571	165.13	45	40
164.571	165.13	57	36
164.571	165.13	61	36
164.571	165.13	66	44
165.034	165.13	68	39
165.13	166.397	47	35
165.13	166.397	56	35
165.13	166.397	59	35
165.13	166.397	64	42
166.243	167.356	35	30
166.243	167.356	54	30
166.243	167.356	57	30
166.243	167.356	63	36
167.356	168.475	68	26
167.356	168.475	71	26
167.356	168.331	76	35
168.277	168.475	78	35
168.475	169.549	69	28
168.475	169.549	72	28
168.475	169.549	75	29
168.475	168.587	78	36
168.531	168.643	80	33
168.587	168.698	78	36
168.643	168.753	80	34
168.698	168.808	78	36
168.753	168.863	80	34
168.808	168.918	78	36
168.863	168.973	80	32
168.918	169.029	78	36
168.973	169.084	80	33
169.029	169.14	78	30
169.084	169.329	80	34
169.14	169.434	78	31
169.224	169.549	76	33
169.329	169.549	80	37
169.434	169.549	78	33
169.549	170.09	68	22
169.549	170.09	71	26
169.549	170.09	76	35
170.09	171.189	54	38
170.09	171.189	66	44
170.09	171.189	69	45
170.09	171.189	73	45
170.09	171.189	81	53
171.189	171.749	57	40
171.189	171.749	69	36
171.189	171.749	73	36
171.189	171.749	78	44
171.652	171.749	80	39
171.749	172.954	59	35
171.749	172.954	68	35
171.749	172.954	71	35
171.749	172.954	76	42
172.861	173.254	47	30
172.861	173.254	66	30
172.861	173.254	69	30
172.861	173.254	75	36
173.418	173.873	47	83
173.873	175.1	43	75
173.974	176.034	40	80
173.974	174.145	67	70
174.059	174.23	64	61
174.145	174.316	67	70
174.23	174.401	64	60
174.316	174.487	67	70
174.401	174.573	64	61
174.487	174.659	67	70
174.573	174.745	64	60
174.659	174.83	67	70
174.745	174.916	64	60
174.83	175.002	67	70
174.916	175.09	64	59
175.002	175.1	67	70
175.09	175.263	64	61
175.176	175.35	67	70
175.263	175.435	64	60
175.35	175.522	67	70
175.435	175.608	64	61
175.522	176.034	43	81
175.522	175.695	67	70
175.608	175.779	64	60
175.695	175.864	67	70
175.779	175.948	64	60
175.864	176.034	67	70
175.948	176.034	47	73
175.948	176.034	64	59
176.034	177.096	52	81
176.034	176.197	67	70
176.115	176.278	64	61
176.197	176.36	67	70
176.278	176.442	64	60
176.36	176.524	67	70
176.442	176.608	64	61
176.524	177.096	55	83
176.524	176.692	67	70
176.608	176.778	64	60
176.692	176.864	67	70
176.778	176.95	64	60
176.864	177.041	67	70
176.95	177.096	59	73
176.95	177.041	64	59
177.041	177.126	64	82
177.041	177.126	67	70
177.126	177.295	64	61
177.21	177.379	67	70
177.295	177.464	64	60
177.379	177.549	67	70
177.464	177.549	64	61
177.549	177.632	64	79
177.549	177.716	67	70
177.632	177.799	64	60
177.716	177.883	67	70
177.799	177.967	64	60
177.883	178.052	67	70
177.967	178.052	64	59
178.052	178.444	65	83
178.15	178.345	67	67
178.247	178.55	71	70
178.345	178.55	67	68
178.444	178.55	65	68
178.545	178.947	62	81
178.645	178.846	65	67
178.746	179.05	67	70
178.846	179.05	65	68
178.947	179.05	62	68
179.048	179.446	59	77
179.147	179.347	62	62
179.247	179.551	65	67
179.347	179.551	62	63
179.446	179.551	59	63
179.546	179.945	55	70
179.546	180.088	71	89
179.646	179.845	59	59
179.746	180.088	62	62
179.845	180.088	59	60
179.945	180.088	55	60
179.962	180.088	74	80
180.047	180.438	53	70
180.047	181.056	79	89
180.145	180.34	55	59
180.243	181.076	59	62
180.34	180.741	55	60
180.438	180.639	53	60
180.537	180.948	50	70
180.537	181.076	83	91
180.639	180.844	53	59
180.741	181.076	55	62
180.844	181.076	53	60
180.948	181.076	50	60
180.965	181.076	86	80
181.056	181.39	47	70
181.056	181.564	79	82
181.056	181.564	91	90
181.14	181.307	50	59
181.223	182.063	53	60
181.307	182.063	50	66
181.39	181.73	47	59
181.477	181.647	43	60
181.564	181.895	41	70
181.564	182.063	79	79
181.564	182.063	91	86
181.647	181.812	43	60
181.73	182.063	47	60
181.812	182.063	43	66
181.895	182.063	41	66
181.979	182.063	38	60
182.063	183.585	36	80
182.063	182.546	79	91
182.063	182.257	91	91
182.16	182.353	87	73
182.257	183.076	91	77
182.353	182.743	87	74
182.449	182.644	84	74
182.546	182.941	79	91
182.644	182.842	84	73
182.743	183.076	87	77
182.842	183.076	84	74
182.941	183.076	79	74
183.04	183.435	75	91
183.139	183.336	79	73
183.237	183.585	84	77
183.336	183.585	79	74
183.435	183.585	75	74
183.534	184.036	39	81
183.534	183.929	72	91
183.633	183.83	75	73
183.732	184.036	79	77
183.83	184.036	75	74
183.929	184.036	72	74
183.946	184.036	43	73
184.036	185.086	48	81
184.036	184.427	67	91
184.134	184.329	72	73
184.231	185.086	75	77
184.329	184.73	72	74
184.427	184.627	67	74
184.526	185.086	51	83
184.526	184.936	63	91
184.627	184.833	67	73
184.73	185.086	72	77
184.833	185.086	67	74
184.936	185.045	63	74
184.954	185.086	55	73
185.045	185.543	60	82
185.045	185.444	63	91
185.145	185.344	67	73
185.244	185.743	72	77
185.344	185.643	67	74
185.444	185.543	63	74
185.543	186.046	60	79
185.543	185.944	63	91
185.643	185.843	67	73
185.743	186.006	72	77
185.843	186.006	67	74
185.944	186.046	63	74
186.046	186.439	61	83
186.143	186.339	63	67
186.241	186.546	67	70
186.339	186.546	63	68
186.439	186.546	61	68
186.541	186.942	58	81
186.641	186.841	61	67
186.741	187.046	63	70
186.841	187.046	61	68
186.942	187.046	58	68
187.043	187.442	55	77
187.142	187.342	58	62
187.242	187.546	61	67
187.342	187.546	58	63
187.442	187.546	55	63
187.541	187.935	51	70
187.541	188.078	67	89
187.64	187.836	55	59
187.738	188.078	58	62
187.836	188.078	55	60
187.935	188.078	51	60
187.951	188.078	70	80
188.038	188.429	49	70
188.038	189.046	75	89
188.135	188.331	51	59
188.233	189.076	55	62
188.331	188.731	51	60
188.429	188.629	49	60
188.527	188.938	46	70
188.527	189.076	79	91
188.629	188.835	49	59
188.731	189.076	51	62
188.835	189.076	49	60
188.938	189.076	46	60
188.955	189.076	82	80
189.046	189.383	43	70
189.046	189.558	75	82
189.046	189.558	87	90
189.131	189.299	46	59
189.215	190.062	49	60
189.299	190.062	46	66
189.383	189.725	43	59
189.471	189.642	39	60
189.558	189.892	37	70
189.558	190.062	75	79
189.558	190.062	87	86
189.642	189.808	39	60
189.725	190.062	43	60
189.808	190.062	39	66
189.892	190.062	37	66
189.975	190.062	34	60
190.062	191.57	32	80
190.062	190.454	87	100
190.162	190.357	92	80
190.26	191.089	96	83
190.357	190.747	92	81
190.454	190.649	87	80
190.551	190.942	84	97
190.649	190.845	87	78
190.747	191.089	92	81
190.845	191.089	87	79
190.942	191.089	84	75
191.04	191.434	80	95
191.139	191.335	84	77
191.237	191.57	87	79
191.335	191.57	84	77
191.434	191.57	80	77
191.532	192.032	36	81
191.532	191.925	75	93
191.63	191.827	80	74
191.729	192.032	84	78
191.827	192.032	80	74
191.925	192.032	75	74
191.942	192.032	39	73
192.032	193.074	44	81
192.032	192.423	72	91
192.13	192.325	75	73
192.228	193.074	80	77
192.325	192.726	75	74
192.423	192.623	72	74
192.522	193.074	48	83
192.522	192.932	68	91
192.623	192.829	72	73
192.726	193.074	75	77
192.829	193.074	72	74
192.932	193.074	68	74
192.95	193.074	51	73
193.041	193.531	56	82
193.041	193.433	63	91
193.139	193.335	68	73
193.237	194.031	72	77
193.335	193.731	68	74
193.433	193.631	63	74
193.531	194.031	56	79
193.531	193.931	60	91
193.631	193.831	63	73
193.731	194.031	68	77
193.831	194.031	63	74
193.931	194.031	60	74
194.031	194.425	57	83
194.031	195.529	66	83
194.129	194.324	60	67
194.227	194.532	63	70
194.324	194.532	60	68
194.425	194.532	57	68
194.527	194.927	54	81
194.627	194.827	57	67
194.727	195.031	60	70
194.827	195.031	57	68
194.927	195.031	54	68
195.028	195.426	51	77
195.128	195.327	54	62
195.228	195.529	57	67
195.327	195.529	54	63
195.426	195.529	51	63
195.524	195.925	48	70
195.524	196.074	72	89
195.624	195.825	51	59
195.724	196.074	54	62
195.825	196.074	51	60
195.925	196.074	48	60
195.942	196.074	75	85
196.033	196.424	45	70
196.033	197.086	78	92
196.131	196.326	48	59
196.229	197.086	51	62
196.326	196.727	48	60
196.424	196.625	45	60
196.523	196.934	42	70
196.523	197.086	84	95
196.625	196.83	45	59
196.727	197.086	48	62
196.83	197.086	45	60
196.934	197.086	42	60
196.951	197.086	87	84
197.05	197.395	39	70
197.05	197.578	90	96
197.137	197.309	42	59
197.223	198.055	45	60
197.309	197.836	42	66
197.395	197.75	39	59
197.487	197.664	36	60
197.578	198.055	33	70
197.578	198.095	90	93
197.664	198.009	36	60
197.75	197.923	39	60
197.836	198.055	42	66
197.923	198.055	39	66
198.009	198.095	36	60
198.095	198.606	32	70
198.095	198.766	90	105
198.179	198.514	36	60
198.263	198.43	39	60
198.347	198.606	42	66
198.43	198.606	39	66
198.514	198.606	36	60
198.598	199.11	33	70
198.682	199.024	36	60
198.766	198.938	39	60
198.766	199.11	90	77
198.852	199.11	42	66
198.852	199.11	87	76
198.938	199.11	39	66
198.938	199.11	84	75
199.024	199.11	36	60
199.024	199.11	78	75
199.11	199.635	32	70
199.11	200.121	90	103
199.194	199.528	36	60
199.278	199.445	39	60
199.361	199.635	42	66
199.445	199.635	39	66
199.528	199.635	36	60
199.612	200.121	33	70
199.695	200.035	36	60
199.779	199.95	39	60
199.779	200.121	78	77
199.864	200.121	42	66
199.864	200.121	75	76
199.95	200.121	39	66
199.95	200.121	72	75
200.035	200.121	36	60
200.035	200.121	66	75
200.121	200.656	32	70
200.121	201.136	78	94
200.205	200.54	36	60
200.288	200.456	39	60
200.372	200.656	42	60
200.456	200.656	39	66
200.54	200.656	36	60
200.624	201.136	33	70
200.707	201.05	36	60
200.791	200.964	39	60
200.791	201.136	66	72
200.877	201.136	42	61
200.877	201.136	63	71
200.964	201.136	39	66
200.964	201.136	60	69
201.05	201.136	36	60
201.05	201.136	54	69
201.136	201.68	32	70
201.136	201.303	66	91
201.22	201.562	36	60
201.303	201.476	39	60
201.303	201.648	66	74
201.389	201.68	42	61
201.389	201.68	63	70
201.476	201.68	39	66
201.476	201.68	60	70
201.562	201.68	36	60
201.562	201.68	54	69
201.648	202.162	33	70
201.648	201.816	66	89
201.732	202.075	36	60
201.816	201.989	39	60
201.816	202.162	66	74
201.903	202.162	42	60
201.903	202.162	63	72
201.989	202.162	39	66
201.989	202.162	60	72
202.075	202.162	36	60
202.075	202.162	54	71
202.162	202.33	32	60
202.162	202.33	44	60
202.162	202.656	66	84
202.33	202.48	56	36
202.493	202.642	56	36
202.656	202.806	56	39
202.82	202.97	56	37
202.984	203.134	56	36
203.147	203.298	56	39
203.311	203.46	56	35
203.474	203.623	56	35
203.637	203.787	56	39
203.801	203.951	56	36
203.964	204.115	56	36
204.128	204.622	60	58
204.128	204.622	63	58
204.297	204.446	56	36
204.46	204.609	56	36
204.622	204.772	56	39
204.786	204.936	56	37
204.95	205.1	56	36
205.114	205.278	54	39
205.114	205.603	72	59
205.114	205.603	75	59
205.278	205.427	56	35
205.44	205.59	56	35
205.603	205.753	56	39
205.767	205.917	56	36
205.931	206.081	56	36
206.095	206.589	61	55
206.095	206.589	65	55
206.263	206.412	56	36
206.426	206.575	56	36
206.589	206.739	56	39
206.753	206.903	56	37
206.916	207.067	56	36
207.08	207.244	53	39
207.08	207.57	73	58
207.08	207.57	77	58
207.244	207.393	56	35
207.407	207.556	56	35
207.57	207.72	56	39
207.733	207.884	56	36
207.897	208.048	56	36
208.061	210.022	61	61
208.061	210.022	65	61
208.061	210.022	70	61
208.225	208.374	56	38
208.388	208.537	56	38
208.55	208.713	49	40
208.55	208.713	53	40
208.713	208.862	56	37
208.876	209.025	56	37
209.038	209.202	49	37
209.038	209.202	53	37
209.202	209.352	56	37
209.366	209.516	56	37
209.53	209.694	49	37
209.53	209.694	53	37
209.694	209.844	56	37
209.858	210.008	56	37
210.022	210.186	48	39
210.022	210.186	51	39
210.022	210.349	60	52
210.022	210.349	63	52
210.022	210.349	68	52
210.186	210.335	56	37
210.349	210.498	56	37
210.512	210.662	56	38
210.676	210.826	56	37
210.84	210.99	56	37
211.004	211.154	56	37
211.168	211.317	56	37
211.33	211.479	56	37
211.493	211.643	56	38
211.493	211.896	60	55
211.493	211.896	63	55
211.657	211.803	56	37
211.816	211.979	56	37
211.896	211.995	60	50
211.896	211.995	63	50
211.995	212.145	56	39
211.995	212.323	61	55
211.995	212.323	65	55
212.159	212.309	56	37
212.323	212.47	56	37
212.323	212.484	60	50
212.323	212.484	63	50
212.484	212.631	56	38
212.645	212.792	56	37
212.806	212.956	56	37
212.806	212.97	72	58
212.806	212.97	75	58
212.97	213.119	56	38
213.132	213.281	56	39
213.295	213.457	84	56
213.295	213.457	87	56
213.457	213.62	51	44
213.457	213.62	54	44
213.62	213.771	56	37
213.784	213.94	56	37
213.865	213.957	60	53
213.865	213.957	63	53
213.957	214.107	56	39
213.957	214.284	63	57
213.957	214.284	66	57
214.121	214.271	56	37
214.284	214.432	56	37
214.284	214.446	61	52
214.284	214.446	65	52
214.446	214.594	56	37
214.607	214.755	56	37
214.768	214.919	56	37
214.768	214.932	73	60
214.768	214.932	77	60
214.932	215.083	56	38
215.096	215.245	56	37
215.258	215.407	56	37
215.258	215.417	85	56
215.258	215.417	89	56
215.421	215.583	49	44
215.421	215.583	53	48
215.583	215.733	56	37
215.747	215.914	56	37
215.829	215.931	61	52
215.829	215.931	65	52
215.931	217.896	61	61
215.931	217.896	65	61
215.931	217.896	70	61
216.095	216.244	56	38
216.258	216.407	56	38
216.42	216.584	49	40
216.42	216.584	53	40
216.584	216.734	56	37
216.748	216.898	56	37
216.912	217.076	49	37
216.912	217.076	53	37
217.076	217.226	56	37
217.24	217.39	56	37
217.404	217.568	49	36
217.404	217.568	53	36
217.568	217.718	56	37
217.732	217.882	56	37
217.896	218.222	60	56
217.896	218.222	63	56
217.896	218.222	68	56
218.059	218.209	56	38
218.222	218.371	56	38
218.385	218.549	48	40
218.385	218.549	51	40
218.549	218.699	56	37
218.713	218.863	56	37
218.876	219.857	61	52
218.876	219.857	64	52
218.876	219.857	69	52
219.04	219.189	56	37
219.203	219.352	56	37
219.366	219.53	49	36
219.366	219.53	52	36
219.53	219.68	56	37
219.693	219.844	56	37
219.857	220.184	60	57
219.857	220.184	63	57
219.857	220.184	68	57
220.021	220.17	56	38
220.184	220.333	56	38
220.347	220.51	48	40
220.347	220.51	51	40
220.51	220.661	56	37
220.674	220.825	56	37
220.838	221.819	73	58
220.838	221.819	76	58
220.838	221.819	81	58
221.002	221.151	56	37
221.165	221.314	56	37
221.327	221.491	49	36
221.327	221.491	52	36
221.491	221.642	56	37
221.655	221.806	56	37
221.819	222.148	72	56
221.819	222.148	75	56
221.819	222.148	80	56
221.983	222.134	56	37
222.148	222.298	56	36
222.312	222.479	48	38
222.312	222.479	51	38
222.479	222.631	56	34
222.645	222.798	56	34
222.812	223.144	59	46
222.812	223.144	62	46
222.812	223.144	68	46
222.98	223.131	56	32
223.144	223.296	56	32
223.309	223.474	47	30
223.309	223.474	50	30
223.474	223.625	56	31
223.639	223.797	56	30
223.812	224.144	58	44
223.812	224.144	61	44
223.812	224.144	67	44
223.977	224.13	56	31
224.144	224.298	56	30
224.311	224.478	46	32
224.311	224.478	49	32
224.478	224.631	56	28
224.645	224.802	56	28
224.816	225.152	57	39
224.816	225.152	60	39
224.816	225.152	66	39
224.985	225.138	56	27
225.152	225.306	56	27
225.32	225.488	45	25
225.32	225.488	48	25
225.488	225.643	56	26
225.658	225.816	56	25
225.83	226.177	56	47
225.83	226.177	60	47
225.83	226.177	66	47
226.006	226.349	44	44
226.177	226.349	43	39
226.349	226.69	44	44
226.52	226.69	46	41
226.69	227.029	44	45
226.861	227.029	42	41
226.861	227.029	75	67
227.029	227.859	44	41
227.029	227.194	77	61
227.194	227.36	42	48
227.194	227.36	75	59
227.36	227.528	41	42
227.36	227.528	73	69
227.528	227.694	42	42
227.528	227.694	75	66
227.694	227.859	41	47
227.694	227.859	73	64
227.859	228.033	39	55
227.859	228.033	72	70
228.033	228.373	44	48
228.033	228.203	78	66
228.203	228.373	43	42
228.373	228.713	44	48
228.543	228.713	46	45
228.713	229.877	44	49
228.883	229.05	39	46
228.883	229.05	78	73
229.05	229.215	41	46
229.05	229.215	80	70
229.215	229.38	39	50
229.215	229.38	78	70
229.38	229.547	37	47
229.38	229.547	77	74
229.547	229.712	39	47
229.547	229.712	78	71
229.712	229.877	37	51
229.712	229.877	77	68
229.877	230.049	36	57
229.877	230.049	75	81
230.049	230.387	44	52
230.049	230.218	87	72
230.218	230.387	43	47
230.387	230.725	44	52
230.556	230.725	46	49
230.725	231.901	44	53
230.894	231.061	36	50
230.894	231.061	87	83
231.061	231.229	37	50
231.061	231.229	89	77
231.229	231.396	36	54
231.229	231.396	87	73
231.396	231.563	34	50
231.396	231.563	85	77
231.563	231.73	36	51
231.563	231.73	87	75
231.73	231.901	34	51
231.73	231.901	85	73
231.901	232.071	32	55
231.901	232.071	84	76
232.071	232.239	31	49
232.071	232.239	85	75
232.239	232.407	32	49
232.239	232.407	84	72
232.407	232.576	34	53
232.407	232.576	82	76
232.576	232.744	32	46
232.576	232.744	84	73
232.744	232.909	34	45
232.744	232.909	82	69
232.909	233.078	35	50
232.909	233.078	80	74
233.078	233.247	34	44
233.078	233.247	82	70
233.247	233.418	35	42
233.247	233.418	80	67
233.418	233.589	36	47
233.418	233.589	78	72
233.589	233.761	35	40
233.589	233.761	80	66
233.761	233.935	36	40
233.761	233.935	78	63
233.935	234.307	37	36
233.935	235.076	77	73
234.126	234.489	41	26
234.126	234.489	44	26
234.126	234.489	49	32
234.307	234.67	37	33
234.489	234.852	41	28
234.489	234.852	44	28
234.489	234.852	49	36
234.67	235.034	37	33
234.852	235.076	41	26
234.852	235.076	44	26
234.852	235.076	49	33
235.034	235.397	37	36
235.215	235.579	41	26
235.215	235.579	44	26
235.215	235.579	49	33
235.397	235.76	37	33
235.579	235.951	41	28
235.579	235.951	44	28
235.579	235.951	49	36
235.579	236.204	53	44
235.579	236.204	65	55
235.76	236.168	37	33
235.951	236.204	41	27
235.951	236.204	44	27
235.951	236.204	49	35
236.047	236.204	56	39
236.047	236.204	68	49
236.168	236.511	37	36
236.168	237.138	61	49
236.168	237.138	73	53
236.339	236.682	41	26
236.339	236.682	44	26
236.339	236.682	49	32
236.511	236.863	37	33
236.682	237.046	41	28
236.682	237.046	44	28
236.682	237.046	49	36
236.682	237.291	65	52
236.682	237.291	77	57
236.863	237.291	37	33
237.046	237.291	41	26
237.046	237.291	44	26
237.046	237.291	49	33
237.138	237.291	61	46
237.138	237.291	73	50
237.243	237.599	39	36
237.243	238.234	60	49
237.243	238.234	72	53
237.424	237.774	42	26
237.424	237.774	44	26
237.424	237.774	51	33
237.599	237.953	39	33
237.774	238.14	42	28
237.774	238.14	44	28
237.774	238.14	51	36
237.774	238.383	63	52
237.774	238.383	75	57
237.953	238.383	39	33
238.14	238.383	42	27
238.14	238.383	44	27
238.14	238.383	51	35
238.234	238.383	60	46
238.234	238.383	72	50
238.347	238.69	41	36
238.347	239.425	61	49
238.347	239.425	73	53
238.519	238.862	44	26
238.519	238.862	49	26
238.519	238.862	53	32
238.69	239.039	41	33
238.862	239.215	44	28
238.862	239.215	49	28
238.862	239.215	53	36
238.862	240.465	56	52
238.862	240.465	68	52
239.039	239.392	41	33
239.215	239.425	44	26
239.215	239.425	49	26
239.215	239.425	53	33
239.392	239.745	41	36
239.568	240.465	44	26
239.568	239.921	49	26
239.568	240.465	53	33
239.745	240.465	41	33
239.921	240.285	49	28
239.921	240.285	51	28
239.921	240.285	54	36
239.921	240.465	58	52
239.921	240.465	70	57
240.098	240.465	42	33
240.285	240.491	49	27
240.285	240.491	51	27
240.285	240.491	54	35
240.379	240.491	66	53
240.491	240.834	44	37
240.491	241.462	65	59
240.663	241.005	49	27
240.663	241.005	53	27
240.663	241.005	56	33
240.834	241.186	44	34
241.005	241.37	49	30
241.005	241.37	53	30
241.005	241.37	56	38
241.005	241.614	68	61
241.186	241.567	44	34
241.37	241.614	49	28
241.37	241.614	53	28
241.37	241.614	56	35
241.462	241.614	65	55
241.567	241.923	44	40
241.567	242.565	63	63
241.748	242.098	48	29
241.748	242.098	51	29
241.748	242.098	56	36
241.923	242.277	44	36
242.098	242.469	48	32
242.098	242.469	51	32
242.098	242.469	56	41
242.098	242.71	66	66
242.277	242.71	44	37
242.469	242.71	48	30
242.469	242.71	51	30
242.469	242.71	56	37
242.565	242.71	63	59
242.683	243.05	45	51
242.683	244.311	60	72
242.867	243.234	48	33
242.867	243.234	53	33
242.867	243.234	57	41
243.05	243.413	45	45
243.234	243.593	48	29
243.234	243.593	53	29
243.234	243.593	57	38
243.234	244.311	65	63
243.413	243.773	45	36
243.593	243.952	48	28
243.593	243.952	53	28
243.593	243.952	57	38
243.773	244.132	45	39
243.952	244.311	48	28
243.952	244.311	53	28
243.952	244.311	57	36
244.132	244.311	45	39
244.311	244.678	49	27
244.311	244.678	53	27
244.311	244.678	58	35
244.311	244.93	61	56
244.311	244.93	73	60
244.491	244.894	46	33
244.678	244.93	49	27
244.678	244.93	53	27
244.678	244.93	58	34
244.772	244.93	65	53
244.772	244.93	77	58
244.894	245.248	46	37
244.894	245.876	70	51
244.894	245.876	82	60
245.071	245.425	49	27
245.071	245.425	53	27
245.071	245.425	58	34
245.248	245.604	46	36
245.425	245.785	49	30
245.425	245.785	53	30
245.425	245.785	58	39
245.425	246.074	73	57
245.425	246.074	85	62
245.604	246.074	46	37
245.785	246.074	49	29
245.785	246.074	53	29
245.785	246.074	58	38
245.876	246.074	70	53
245.876	246.074	82	58
245.981	246.337	48	40
245.981	246.976	69	57
245.981	246.976	81	61
246.162	246.512	51	29
246.162	246.512	53	29
246.162	246.512	60	38
246.337	246.695	48	39
246.512	246.883	51	34
246.512	246.883	53	34
246.512	246.883	60	42
246.512	247.128	72	59
246.512	247.128	84	65
246.695	247.128	48	40
246.883	247.128	51	33
246.883	247.128	53	33
246.883	247.128	60	42
246.976	247.128	69	58
246.976	247.128	81	63
247.112	247.466	49	37
247.112	248.246	70	51
247.112	248.246	82	57
247.289	247.643	53	27
247.289	247.643	58	27
247.289	247.643	61	34
247.466	247.822	49	36
247.643	248.004	53	30
247.643	248.004	58	30
247.643	248.004	61	39
247.643	249.273	65	52
247.643	249.273	77	52
247.822	248.199	49	37
248.004	248.246	53	29
248.004	248.246	58	29
248.004	248.246	61	38
248.199	248.555	49	40
248.38	249.273	53	29
248.38	248.73	58	29
248.38	249.273	61	38
248.555	249.273	49	39
248.73	249.093	54	28
248.73	249.093	58	28
248.73	249.093	63	36
248.73	249.299	66	62
248.73	249.273	78	68
248.906	249.273	51	33
249.093	249.299	54	27
249.093	249.299	58	27
249.093	249.299	63	35
249.187	249.299	75	63
249.299	249.642	53	37
249.299	250.27	73	70
249.471	249.813	58	27
249.471	249.813	61	27
249.471	249.813	65	33
249.642	249.994	53	34
249.813	250.178	58	30
249.813	250.178	61	30
249.813	250.178	65	38
249.813	250.428	77	67
249.994	250.375	53	34
250.178	250.428	58	28
250.178	250.428	61	28
250.178	250.428	65	35
250.27	250.428	73	61
250.375	250.731	53	40
250.375	251.373	72	70
250.556	250.906	57	29
250.556	250.906	60	29
250.556	250.906	63	37
250.731	251.085	53	37
250.906	251.277	57	33
250.906	251.277	60	33
250.906	251.277	63	42
250.906	251.566	75	71
251.085	251.566	53	38
251.277	251.566	57	31
251.277	251.566	60	31
251.277	251.566	63	38
251.373	251.566	72	67
251.491	251.858	54	53
251.491	253.119	70	78
251.674	252.042	58	34
251.674	252.042	61	34
251.674	252.042	66	43
251.858	252.221	54	47
252.042	252.401	58	35
252.042	252.401	61	35
252.042	252.401	66	46
252.042	253.119	73	73
252.221	252.58	54	43
252.401	252.76	58	34
252.401	252.76	61	34
252.401	252.76	66	46
252.58	252.94	54	47
252.76	253.119	58	34
252.76	253.119	61	34
252.76	253.119	66	44
252.94	253.119	54	47
253.119	253.481	58	35
253.119	253.481	61	35
253.119	253.481	66	46
253.119	253.754	70	73
253.119	253.754	82	79
253.299	253.676	54	42
253.481	253.754	58	35
253.481	253.754	61	35
253.481	253.754	66	44
253.572	253.754	73	69
253.572	253.754	85	75
253.676	254.03	54	48
253.676	254.658	78	71
253.676	254.658	90	80
253.853	254.207	58	35
253.853	254.207	61	35
253.853	254.207	66	44
254.03	254.386	54	47
254.207	254.568	58	39
254.207	254.568	61	39
254.207	254.568	66	50
254.207	254.857	82	74
254.207	254.857	94	81
254.386	254.857	54	48
254.568	254.857	58	37
254.568	254.857	61	37
254.568	254.857	66	49
254.658	254.857	78	69
254.658	254.857	90	75
254.763	255.119	56	52
254.763	255.752	77	74
254.763	255.752	89	80
254.944	255.294	59	37
254.944	255.294	61	37
254.944	255.294	68	49
255.119	255.475	56	50
255.294	255.66	59	44
255.294	255.66	61	44
255.294	255.66	68	55
255.294	255.94	80	77
255.294	255.94	92	85
255.475	255.94	56	52
255.66	255.94	59	42
255.66	255.94	61	42
255.66	255.94	68	55
255.752	255.94	77	75
255.752	255.94	89	82
255.862	256.216	58	48
255.862	257.022	78	80
255.862	257.022	90	89
256.039	256.393	61	35
256.039	256.393	66	35
256.039	256.393	70	44
256.216	256.572	58	47
256.393	256.753	61	33
256.393	256.753	66	33
256.393	256.753	70	42
256.393	258.097	73	68
256.393	258.097	85	81
256.572	256.935	58	40
256.753	257.022	61	33
256.753	257.022	66	33
256.753	257.022	70	44
256.935	257.282	58	50
257.109	257.454	61	37
257.109	257.454	66	37
257.109	257.454	70	49
257.282	257.625	58	52
257.454	257.813	61	38
257.454	257.813	66	38
257.454	257.813	70	51
257.625	258.097	58	48
257.813	258.097	61	41
257.813	258.097	66	41
257.813	258.097	70	55
258.019	258.373	59	57
258.019	259.179	78	80
258.019	259.179	90	89
258.196	258.55	62	35
258.196	258.55	66	35
258.196	258.55	71	44
258.373	258.729	59	47
258.55	258.91	62	33
258.55	258.91	66	33
258.55	258.91	71	42
258.55	260.246	74	70
258.55	260.246	86	83
258.729	259.092	59	40
258.91	259.179	62	33
258.91	259.179	66	33
258.91	259.179	71	44
259.092	259.438	59	50
259.266	259.607	62	37
259.266	259.607	66	37
259.266	259.607	71	49
259.438	259.775	59	53
259.607	259.962	62	38
259.607	259.962	66	38
259.607	259.962	71	52
259.775	260.168	59	49
259.962	260.246	62	42
259.962	260.246	66	42
259.962	260.246	71	56
260.168	260.518	59	60
260.168	261.321	79	96
260.168	261.321	91	96
260.343	260.693	62	36
260.343	260.693	67	36
260.343	260.693	71	46
260.518	260.872	59	49
260.693	261.054	62	34
260.693	261.054	67	34
260.693	261.054	71	45
260.693	262.38	74	74
260.693	262.38	86	89
260.872	261.235	59	42
261.054	261.321	62	35
261.054	261.321	67	35
261.054	261.321	71	47
261.235	261.576	59	53
261.407	261.744	62	39
261.407	261.744	67	39
261.407	261.744	71	51
261.576	261.909	59	56
261.744	262.097	62	40
261.744	262.097	67	40
261.744	262.097	71	55
261.909	262.38	59	51
262.097	262.38	62	44
262.097	262.38	67	44
262.097	262.38	71	59
262.303	262.652	60	64
262.303	263.454	79	102
262.303	263.454	91	102
262.478	262.826	64	38
262.478	262.826	67	38
262.478	262.826	72	48
262.652	263.005	60	51
262.826	263.187	64	37
262.826	263.187	67	37
262.826	263.187	72	48
262.826	264.427	76	80
262.826	264.427	88	94
263.005	263.368	60	47
263.187	263.454	64	37
263.187	263.454	67	37
263.187	263.454	72	50
263.368	263.708	60	57
263.54	263.875	64	41
263.54	263.875	67	41
263.54	263.875	72	55
263.708	264.04	60	59
263.875	264.223	64	44
263.875	264.223	67	44
263.875	264.223	72	58
264.04	264.401	60	55
264.223	264.427	64	47
264.223	264.427	67	47
264.223	264.427	72	61
264.427	265.459	61	102
264.509	265.448	64	78
264.591	265.459	67	78
264.673	265.459	70	78
264.755	265.459	73	78
264.942	265.354	79	75
265.025	265.459	82	71
265.107	265.459	85	70
265.189	265.459	88	70
265.272	265.459	91	73
265.354	265.459	79	71
265.448	266.47	64	101
265.53	266.47	67	78
265.613	266.47	70	78
265.696	266.47	73	78
265.778	266.47	76	79
265.965	266.377	79	77
266.047	266.47	82	72
266.129	266.47	85	72
266.212	266.47	88	70
266.294	266.47	91	74
266.377	266.47	79	72
266.47	267.463	67	101
266.553	267.459	70	84
266.635	267.463	73	84
266.718	267.463	76	84
266.962	267.375	79	77
267.045	267.463	82	71
267.127	267.463	85	71
267.209	267.463	88	70
267.292	267.463	91	76
267.375	267.463	79	71
267.459	268.452	70	100
267.539	268.452	73	84
267.619	268.452	76	86
267.938	268.358	79	77
268.022	268.403	82	71
268.106	268.403	85	73
268.19	268.403	88	70
268.274	268.403	91	76
268.358	268.452	79	71
268.452	268.946	73	96
268.533	268.942	76	84
268.615	268.946	79	84
268.615	268.946	82	77
268.696	268.946	85	71
268.777	268.946	88	74
268.859	268.946	91	70
268.942	269.432	76	98
269.023	269.432	79	84
269.105	269.432	82	84
269.105	269.432	85	77
269.186	269.432	88	72
269.267	269.424	91	74
269.349	269.432	94	70
269.432	270.416	79	100
269.513	269.923	82	84
269.595	270.005	85	84
269.677	270.086	88	73
269.758	270.249	91	74
269.84	270.331	94	73
269.923	270.416	82	100
270.005	270.416	85	84
270.086	270.168	88	84
270.168	270.416	88	73
270.249	270.416	91	74
270.331	270.416	94	73
270.416	270.98	85	102
270.497	270.578	88	84
270.578	271.139	88	77
270.658	271.218	91	75
270.739	272.32	94	74
270.9	271.456	82	97
270.98	271.06	85	84
271.06	271.614	85	77
271.139	271.693	88	75
271.218	272.32	91	74
271.377	271.929	79	96
271.456	271.535	82	84
271.535	272.085	82	77
271.614	272.164	85	75
271.693	272.32	88	74
271.85	272.32	76	96
271.929	272.007	79	84
272.007	272.32	79	77
272.085	272.32	82	75
272.164	272.32	85	74
272.32	272.865	73	96
272.398	272.476	76	84
272.476	273.02	76	77
272.554	273.097	79	72
272.632	274.185	82	74
272.787	273.331	70	96
272.865	272.942	73	84
272.942	273.486	73	77
273.02	273.564	76	75
273.097	274.185	79	74
273.253	273.797	67	96
273.331	273.408	70	84
273.408	273.952	70	77
273.486	274.03	73	75
273.564	274.185	76	74
273.719	274.185	64	96
273.797	273.875	67	84
273.875	274.185	67	77
273.952	274.185	70	75
274.03	274.185	73	74
274.185	274.729	61	91
274.263	274.341	64	80
274.341	274.885	64	72
274.419	274.963	67	71
274.496	276.051	70	70
274.652	275.196	58	91
274.729	274.807	61	80
274.807	275.351	61	72
274.885	275.429	64	71
274.963	276.051	67	70
275.118	275.662	55	91
275.196	275.273	58	80
275.273	275.817	58	72
275.351	275.895	61	71
275.429	276.051	64	70
275.584	276.051	52	91
275.662	275.74	55	80
275.74	276.051	55	72
275.817	276.051	58	71
275.895	276.051	61	70
276.051	276.555	49	91
276.129	276.208	52	80
276.208	276.555	52	72
276.286	276.555	55	71
276.365	276.555	58	70
276.525	277.029	46	91
276.605	276.685	49	80
276.685	277.029	49	72
276.765	277.029	52	71
276.846	277.029	55	70
277.009	277.541	43	91
277.091	277.173	46	80
277.173	277.541	46	72
277.256	277.541	49	71
277.339	277.541	52	70
277.505	278.048	40	91
277.589	277.674	43	80
277.674	278.013	43	72
277.758	278.013	46	71
277.843	278.048	49	70
278.013	278.561	37	104
278.013	278.103	43	71
278.013	278.103	46	71
278.103	278.283	52	63
278.193	278.373	43	71
278.193	278.373	46	71
278.283	278.463	52	63
278.373	278.553	43	71
278.373	278.553	46	71
278.463	278.561	52	63
278.553	278.729	43	71
278.553	278.729	46	71
278.553	278.729	73	106
278.641	278.817	52	63
278.729	278.905	43	71
278.729	278.905	46	71
278.729	278.905	73	100
278.817	278.993	52	63
278.905	279.081	43	71
278.905	279.081	46	71
278.905	279.081	73	100
278.993	279.169	52	63
279.081	279.256	43	71
279.081	279.256	46	71
279.081	279.617	73	105
279.169	279.344	52	63
279.256	279.432	43	71
279.256	279.432	46	71
279.344	279.523	52	63
279.432	279.613	43	71
279.432	279.613	46	71
279.523	279.617	52	63
279.613	279.789	37	98
279.613	279.789	43	71
279.613	279.789	46	71
279.701	279.877	52	63
279.789	279.965	37	93
279.789	279.965	43	71
279.789	279.965	46	71
279.877	280.053	52	63
279.965	280.141	37	93
279.965	280.141	43	71
279.965	280.141	46	71
280.053	280.141	52	63
280.141	280.672	37	100
280.141	280.32	43	71
280.141	280.32	46	71
280.231	280.41	52	63
280.32	280.5	43	71
280.32	280.5	46	71
280.41	280.59	52	63
280.5	280.672	43	71
280.5	280.672	46	71
280.59	280.68	52	63
280.68	280.856	43	71
280.68	280.856	46	71
280.68	280.856	73	106
280.768	280.944	52	63
280.856	281.032	43	71
280.856	281.032	46	71
280.856	281.032	73	100
280.944	281.12	52	63
281.032	281.208	43	71
281.032	281.208	46	71
281.032	281.208	73	100
281.12	281.296	52	63
281.208	281.384	43	71
281.208	281.384	46	71
281.208	281.732	73	105
281.296	281.472	52	63
281.384	281.56	43	71
281.384	281.56	46	71
281.472	281.65	52	63
281.56	281.732	43	71
281.56	281.732	46	71
281.65	281.74	52	63
281.74	281.916	37	98
281.74	281.916	43	71
281.74	281.916	46	71
281.828	282.004	52	63
281.916	282.092	37	93
281.916	282.092	43	71
281.916	282.092	46	71
282.004	282.18	52	63
282.092	282.306	37	93
282.092	282.268	43	71
282.092	282.268	46	71
282.18	282.306	52	63
282.268	282.799	36	100
282.268	282.358	43	71
282.268	282.358	46	71
282.358	282.538	52	63
282.448	282.628	43	71
282.448	282.628	46	71
282.538	282.718	52	63
282.628	282.799	43	71
282.628	282.799	46	71
282.718	282.807	52	63
282.807	282.983	43	71
282.807	282.983	46	71
282.807	282.983	73	106
282.895	283.071	52	63
282.983	283.159	43	71
282.983	283.159	46	71
282.983	283.159	73	100
283.071	283.247	52	63
283.159	283.335	43	71
283.159	283.335	46	71
283.159	283.859	73	100
283.247	283.423	52	63
283.335	283.511	43	71
283.335	283.511	46	71
283.335	283.859	72	105
283.423	283.599	52	63
283.511	283.687	43	71
283.511	283.687	46	71
283.599	283.777	52	63
283.687	283.859	43	71
283.687	283.859	46	71
283.777	283.868	52	63
283.868	284.044	37	98
283.868	284.044	43	71
283.868	284.044	46	71
283.956	284.132	52	63
284.044	284.22	37	93
284.044	284.22	43	71
284.044	284.22	46	71
284.132	284.307	52	63
284.22	284.434	37	93
284.22	284.395	43	71
284.22	284.395	46	71
284.307	284.434	52	63
284.395	284.927	36	100
284.395	284.485	43	71
284.395	284.485	46	71
284.485	284.665	52	63
284.575	284.755	43	71
284.575	284.755	46	71
284.665	284.845	52	63
284.755	284.927	43	71
284.755	284.927	46	71
284.845	284.935	52	63
284.935	285.111	43	71
284.935	285.111	46	71
284.935	285.111	73	106
285.023	285.199	52	63
285.111	285.287	43	71
285.111	285.287	46	71
285.111	285.287	73	100
285.199	285.375	52	63
285.287	285.463	43	71
285.287	285.463	46	71
285.287	285.987	73	100
285.375	285.551	52	63
285.463	285.639	43	71
285.463	285.639	46	71
285.463	285.987	72	105
285.551	285.727	52	63
285.639	285.815	43	71
285.639	285.815	46	71
285.727	285.905	52	63
285.815	285.987	43	71
285.815	285.987	46	71
285.905	285.995	52	63
285.995	286.171	37	100
285.995	286.171	43	71
285.995	286.171	46	71
286.083	286.259	52	63
286.171	286.347	37	96
286.171	286.347	43	71
286.171	286.347	46	71
286.259	286.435	52	63
286.347	286.523	37	96
286.347	286.464	43	71
286.347	286.464	46	71
286.435	286.523	52	63
286.523	286.691	36	59
286.523	286.89	43	65
286.523	286.89	46	65
286.523	286.89	52	65
286.706	286.875	36	30
286.89	287.058	36	30
287.073	287.242	36	32
287.257	287.425	36	27
287.44	287.609	36	27
287.624	287.792	36	30
287.807	287.975	36	24
287.991	288.159	36	24
288.174	288.342	36	28
288.358	288.526	36	22
288.541	288.709	36	22
288.725	288.893	36	24
288.908	289.076	36	22
289.092	289.26	36	22
289.275	289.443	36	24
289.459	289.627	36	20
289.642	289.81	36	20
289.826	289.994	36	23
290.009	290.177	36	18
290.193	290.361	36	23
290.376	290.544	36	23
290.376	290.835	48	27
290.376	290.835	60	35
290.56	290.728	36	20
290.743	290.911	36	22
290.835	290.927	44	25
290.835	290.927	56	31
290.927	291.095	36	23
290.927	292.599	41	22
290.927	292.599	53	28
291.11	291.278	36	20
291.294	291.462	36	22
291.477	291.645	36	23
291.661	291.829	36	20
291.844	292.012	36	22
292.028	292.202	36	23
292.218	292.393	36	20
292.409	292.583	36	22
292.599	292.774	36	23
292.599	293.08	44	27
292.599	293.08	56	35
292.79	292.967	36	20
292.983	293.169	36	22
293.08	293.187	48	24
293.08	293.187	60	30
293.187	293.347	36	23
293.187	293.711	53	27
293.187	293.711	65	35
293.362	293.522	36	20
293.536	293.697	36	22
293.711	293.88	36	23
293.711	294.176	56	28
293.711	294.176	68	36
293.896	294.067	36	20
294.083	294.26	36	22
294.176	294.277	60	25
294.176	294.277	72	31
294.277	294.446	36	23
294.277	294.836	65	31
294.277	294.836	77	40
294.461	294.63	36	20
294.646	294.824	36	22
294.84	295.009	36	23
294.84	295.393	53	26
294.84	295.393	65	33
295.025	295.194	36	20
295.209	295.378	36	22
295.393	295.577	36	23
295.393	296.512	64	26
295.393	296.512	67	26
295.393	296.48	72	35
295.577	295.762	36	20
295.762	295.946	36	22
295.946	296.13	36	23
296.13	296.314	36	20
296.314	296.495	36	22
296.314	296.512	74	33
296.512	296.679	36	23
296.512	297.597	65	26
296.512	297.597	71	26
296.512	296.623	74	33
296.568	296.679	76	29
296.623	296.734	74	33
296.679	296.844	36	20
296.679	296.789	76	29
296.734	296.844	74	33
296.789	296.899	76	30
296.844	297.009	36	22
296.844	296.954	74	33
296.899	297.009	76	29
296.954	297.065	74	33
297.009	297.178	36	23
297.009	297.121	76	30
297.065	297.178	74	28
297.121	297.378	76	33
297.178	297.378	36	20
297.178	297.483	74	28
297.273	297.597	72	30
297.378	297.597	36	22
297.378	297.597	76	35
297.483	297.597	74	31
297.597	297.769	36	23
297.597	297.971	64	19
297.597	297.971	67	22
297.597	297.971	72	35
297.784	297.956	36	20
297.971	298.142	36	22
298.158	298.329	36	23
298.345	298.516	36	20
298.532	298.703	36	22
298.719	298.904	36	23
298.921	299.097	37	20
299.112	299.288	37	22
299.304	299.479	37	23
299.304	299.799	49	27
299.304	299.799	61	35
299.495	299.681	37	20
299.698	299.912	37	22
299.799	299.934	46	25
299.799	299.934	58	31
299.934	300.103	37	23
299.934	301.612	42	22
299.934	301.612	54	28
300.118	300.287	37	20
300.303	300.472	37	22
300.487	300.656	37	23
300.671	300.84	37	20
300.855	301.024	37	22
301.04	301.214	37	23
301.23	301.405	37	20
301.421	301.596	37	22
301.612	301.786	37	23
301.612	302.097	46	27
301.612	302.097	58	35
301.802	301.983	37	20
301.999	302.186	37	22
302.097	302.204	49	24
302.097	302.204	61	30
302.204	302.364	37	23
302.204	302.729	54	27
302.204	302.729	66	35
302.379	302.539	37	20
302.554	302.714	37	22
302.729	302.898	37	23
302.729	303.191	58	28
302.729	303.191	70	36
302.913	303.083	37	20
303.099	303.275	37	22
303.191	303.292	61	25
303.191	303.292	73	31
303.292	303.461	37	23
303.292	303.855	66	31
303.292	303.855	78	40
303.476	303.645	37	20
303.661	303.839	37	22
303.855	304.024	37	23
303.855	304.408	54	26
303.855	304.408	66	33
304.04	304.209	37	20
304.224	304.393	37	22
304.408	304.592	37	23
304.408	305.527	65	26
304.408	305.527	68	26
304.408	305.506	73	35
304.592	304.777	37	20
304.777	304.961	37	22
304.961	305.145	37	23
305.145	305.329	37	20
305.329	305.51	37	22
305.329	305.527	75	33
305.527	305.695	37	23
305.527	306.615	66	26
305.527	306.615	72	26
305.527	305.639	75	28
305.583	305.695	77	25
305.639	305.75	75	28
305.695	305.861	37	20
305.695	305.806	77	25
305.75	305.861	75	28
305.806	305.916	77	25
305.861	306.027	37	22
305.861	305.971	75	29
305.916	306.027	77	25
305.971	306.082	75	29
306.027	306.196	37	23
306.027	306.138	77	26
306.082	306.196	75	29
306.138	306.396	77	27
306.196	306.396	37	20
306.196	306.5	75	24
306.291	306.615	73	30
306.396	306.615	37	22
306.396	306.615	77	35
306.5	306.615	75	31
306.615	306.785	37	23
306.615	306.985	65	19
306.615	306.985	68	22
306.615	306.985	73	35
306.8	306.97	35	15
306.8	306.97	41	20
306.985	307.155	35	16
306.985	307.155	41	22
307.17	307.34	35	17
307.17	307.34	41	23
307.355	307.525	35	15
307.355	307.525	41	20
307.54	307.71	35	16
307.54	307.71	41	22
307.725	307.895	35	17
307.725	307.895	41	23
307.91	308.08	35	15
307.91	308.08	41	20
308.095	308.265	35	16
308.095	308.265	41	22
308.28	308.45	35	17
308.28	308.45	41	23
308.465	308.635	35	15
308.465	308.635	41	20
308.65	308.82	35	16
308.65	308.82	41	22
308.835	309.953	40	26
308.835	309.81	72	35
309.019	309.203	36	20
309.203	309.387	36	22
309.387	309.571	36	23
309.571	309.755	36	20
309.755	309.936	36	22
309.755	309.903	74	38
309.903	309.953	72	38
309.953	311.028	41	26
309.953	310.065	74	37
310.009	310.121	76	32
310.065	310.176	74	37
310.121	310.287	36	20
310.121	310.232	76	33
310.176	310.287	74	37
310.232	310.342	76	33
310.287	310.453	36	22
310.287	310.397	74	37
310.342	310.453	76	33
310.397	310.508	74	37
310.453	310.62	36	23
310.453	310.564	76	34
310.508	310.62	74	31
310.564	310.809	76	37
310.62	310.809	36	20
310.62	310.914	74	31
310.704	311.028	72	34
310.809	311.028	36	22
310.809	311.028	76	40
310.914	311.028	74	35
311.028	311.202	40	26
311.028	311.407	72	35
311.218	311.391	36	20
311.407	311.58	36	22
311.596	311.772	36	23
311.596	311.772	49	27
311.788	311.967	36	20
311.788	311.967	49	26
311.984	312.17	36	22
311.984	312.17	49	26
312.187	312.357	36	26
312.187	312.357	48	26
312.372	312.542	36	20
312.557	312.727	36	22
312.742	312.912	36	23
312.927	313.097	36	20
313.112	313.282	36	22
313.297	314.415	43	26
313.297	314.271	76	40
313.481	313.665	36	20
313.665	313.849	36	22
313.849	314.033	36	23
314.033	314.217	36	20
314.217	314.398	36	22
314.217	314.365	77	38
314.365	314.415	76	38
314.415	315.492	44	26
314.415	314.527	77	37
314.471	314.583	79	32
314.527	314.638	77	37
314.583	314.749	36	20
314.583	314.694	79	33
314.638	314.749	77	37
314.694	314.805	79	33
314.749	314.916	36	22
314.749	314.86	77	37
314.805	314.916	79	33
314.86	314.972	77	37
314.916	315.084	36	23
314.916	315.027	79	34
314.972	315.084	77	31
315.027	315.273	79	37
315.084	315.273	36	20
315.084	315.377	77	31
315.168	315.492	76	34
315.273	315.492	36	22
315.273	315.492	79	40
315.377	315.492	77	35
315.492	315.661	43	26
315.492	315.86	76	35
315.676	315.845	36	20
315.86	316.029	36	22
316.044	316.221	36	23
316.044	316.221	49	27
316.237	316.417	36	20
316.237	316.417	49	26
316.434	316.62	36	22
316.434	316.62	49	26
316.637	316.806	36	26
316.637	316.806	48	26
316.822	316.991	36	20
317.006	317.175	36	22
317.191	317.366	36	23
317.191	317.382	76	35
317.191	317.382	79	35
317.382	317.565	36	20
317.382	317.582	76	31
317.382	317.582	79	31
317.582	317.771	36	22
317.582	317.788	76	35
317.582	317.788	79	35
317.788	317.958	36	26
317.788	318.158	79	35
317.788	318.158	82	35
317.973	318.143	36	20
318.158	318.328	36	22
318.344	318.522	36	23
318.344	318.522	49	27
318.538	318.72	36	20
318.538	318.72	49	26
318.737	318.927	36	22
318.737	318.927	49	26
318.945	319.116	36	26
318.945	319.317	48	26
319.132	319.302	36	20
319.317	319.488	36	22
319.503	319.682	36	43
319.503	319.699	79	66
319.503	319.699	82	66
319.699	319.883	36	38
319.699	319.899	79	62
319.699	319.899	82	62
319.899	320.088	36	41
319.899	320.927	79	68
319.899	320.188	82	68
320.105	320.27	36	50
320.105	320.353	88	71
320.188	320.764	82	64
320.27	320.435	36	40
320.27	320.518	91	72
320.353	320.6	88	64
320.435	320.6	36	43
320.435	321.082	94	73
320.518	320.682	91	66
320.6	320.764	36	47
320.6	320.846	88	74
320.682	321.082	91	67
320.764	320.927	36	43
320.764	321.009	82	74
320.846	321.082	88	68
320.927	321.082	36	45
320.927	321.082	79	75
321.009	321.09	82	68
321.09	321.252	36	55
321.09	321.333	76	75
321.171	322.063	79	69
321.252	321.414	36	45
321.252	321.495	70	76
321.333	322.063	76	67
321.414	321.576	36	48
321.414	321.657	67	76
321.495	322.063	70	70
321.576	321.739	36	52
321.576	321.82	64	77
321.657	322.063	67	68
321.739	321.901	36	47
321.739	321.982	58	78
321.82	322.063	64	71
321.901	322.063	36	50
321.901	322.063	55	75
321.982	322.063	58	63
322.063	322.225	36	61
322.063	322.311	52	76
322.144	322.582	55	65
322.225	322.409	36	49
322.225	322.491	46	77
322.311	322.582	52	62
322.409	322.574	36	52
322.409	322.582	43	76
322.491	322.582	46	69
322.574	322.74	36	57
322.574	322.824	49	80
322.657	323.092	46	70
322.74	322.908	36	51
322.74	322.992	52	81
322.824	323.092	49	71
322.908	323.092	36	54
322.908	323.092	55	86
322.992	323.092	52	78
323.076	323.253	31	61
323.076	323.253	43	66
323.076	323.253	58	94
323.247	323.492	36	58
323.492	323.737	36	57
323.737	323.982	29	57
323.737	323.982	41	62
323.737	323.982	49	93
323.737	323.982	56	93
323.737	323.982	61	93
323.982	324.303	36	71
324.303	324.623	36	60
324.623	327.01	36	40
324.623	327.01	40	40
324.623	327.01	52	48
324.623	327.01	55	48
324.623	327.01	60	48
327.078	327.64	36	27
327.078	327.64	60	35
327.64	327.736	33	25
327.64	327.736	57	31
327.736	328.123	29	81
327.736	327.959	53	103
327.959	328.291	53	75
327.959	328.286	57	75
327.959	328.286	60	85
327.959	328.286	65	101
328.123	328.45	29	61
328.123	328.45	33	61
328.123	328.45	36	69
328.123	328.45	41	81
328.286	328.662	57	72
328.286	328.613	60	72
328.286	328.613	65	81
328.286	328.613	69	96
328.45	328.777	29	57
328.45	328.777	33	57
328.45	328.777	36	64
328.45	328.777	41	76
328.613	329.008	60	71
328.613	328.94	65	71
328.613	328.94	69	79
328.613	328.94	72	96
328.777	329.104	29	55
328.777	329.104	33	55
328.777	329.104	36	63
328.777	329.104	41	73
328.94	329.316	65	72
328.94	329.267	69	72
328.94	329.267	72	80
328.94	329.267	77	95
329.104	329.431	29	61
329.104	329.431	33	61
329.104	329.431	36	69
329.104	329.431	41	81
329.267	329.636	69	76
329.267	329.594	72	76
329.267	329.594	77	86
329.267	329.594	81	103
329.431	329.773	29	55
329.431	329.773	33	55
329.431	329.773	36	63
329.431	329.773	41	73
329.594	329.773	72	71
329.594	329.773	77	78
329.594	329.773	81	78
329.594	329.773	84	94
329.773	331.38	29	61
329.773	331.38	33	61
329.773	331.38	36	69
329.773	331.38	41	81
329.773	331.38	77	76
329.773	331.38	81	86
329.773	331.38	84	86
329.773	331.38	89	103
331.38	331.824	33	33
331.38	331.824	57	41
331.824	331.922	36	28
331.824	331.922	60	35
331.922	332.406	41	34
331.922	332.406	65	40
332.406	332.834	45	34
332.406	332.834	69	43
332.834	332.927	48	29
332.834	332.927	72	37
332.927	333.442	53	34
332.927	333.442	77	40
333.446	333.972	41	31
333.446	333.972	65	40
333.972	334.528	52	81
333.972	334.196	55	81
333.972	334.196	60	103
334.196	334.528	55	75
334.196	334.523	60	85
334.196	334.523	64	101
334.359	334.686	40	61
334.359	334.686	43	69
334.359	334.686	48	81
334.523	334.898	60	72
334.523	334.85	64	81
334.523	334.85	67	96
334.686	335.013	40	57
334.686	335.013	43	64
334.686	335.013	48	76
334.85	335.244	64	72
334.85	335.177	67	81
334.85	335.177	72	98
335.013	335.34	40	55
335.013	335.34	43	63
335.013	335.34	48	73
335.177	335.552	67	72
335.177	335.504	72	80
335.177	335.504	76	95
335.34	335.667	40	61
335.34	335.667	43	69
335.34	335.667	48	81
335.504	336.019	72	76
335.504	335.831	76	86
335.504	335.831	79	103
335.667	336.134	40	55
335.667	336.134	43	63
335.667	336.134	48	73
335.831	336.134	76	78
335.831	336.134	79	78
335.831	336.134	84	94
336.134	337.163	64	30
336.134	337.163	67	30
336.134	337.123	72	41
336.981	337.163	74	45
337.163	338.227	65	30
337.163	338.227	68	30
337.163	338.227	71	30
337.163	337.277	74	38
337.22	337.333	76	35
337.277	337.39	74	38
337.333	337.446	76	36
337.39	337.502	74	39
337.446	337.558	76	36
337.502	337.613	74	38
337.558	337.669	76	36
337.613	337.726	74	39
337.669	337.783	76	37
337.726	337.841	74	35
337.783	338.025	76	39
337.841	338.122	74	35
337.929	338.227	72	36
338.025	338.227	76	41
338.122	338.227	74	38
338.227	338.783	52	81
338.227	338.451	55	81
338.227	338.451	60	103
338.451	338.783	55	75
338.451	338.778	60	85
338.451	338.778	64	101
338.615	338.942	40	61
338.615	338.942	43	69
338.615	338.942	48	81
338.778	339.154	60	72
338.778	339.105	64	81
338.778	339.105	67	96
338.942	339.269	40	57
338.942	339.269	43	64
338.942	339.269	48	76
339.105	339.5	64	72
339.105	339.432	67	81
339.105	339.432	72	98
339.269	339.596	40	55
339.269	339.596	43	63
339.269	339.596	48	73
339.432	339.808	67	72
339.432	339.759	72	80
339.432	339.759	76	95
339.596	339.923	40	61
339.596	339.923	43	69
339.596	339.923	48	81
339.759	340.273	72	76
339.759	340.086	76	86
339.759	340.086	79	103
339.923	340.388	40	55
339.923	340.388	43	63
339.923	340.388	48	73
340.086	340.388	76	78
340.086	340.388	79	78
340.086	340.388	84	94
340.388	341.417	64	30
340.388	341.417	67	30
340.388	341.285	72	41
341.235	341.417	74	45
341.417	342.481	65	30
341.417	342.481	68	29
341.417	341.531	74	44
341.474	341.587	76	39
341.531	341.644	74	42
341.587	341.7	76	37
341.644	341.756	74	41
341.7	341.812	76	36
341.756	341.867	74	40
341.812	341.923	76	37
341.867	342.009	74	41
341.923	342.095	76	38
342.009	342.183	74	37
342.095	342.481	76	42
342.183	342.376	74	41
342.279	342.481	72	48
342.376	342.481	74	44
342.481	343.037	55	81
342.481	342.705	58	81
342.481	342.705	64	103
342.705	343.037	58	85
342.705	343.032	64	85
342.705	343.032	67	101
342.869	343.196	43	61
342.869	343.196	46	69
342.869	343.196	52	81
343.032	343.408	64	72
343.032	343.359	67	81
343.032	343.359	70	96
343.196	343.523	43	57
343.196	343.523	46	64
343.196	343.523	52	76
343.359	343.754	67	75
343.359	343.686	70	85
343.359	343.686	76	101
343.523	343.85	43	55
343.523	343.85	46	63
343.523	343.85	52	73
343.686	344.062	70	72
343.686	344.013	76	80
343.686	344.013	79	95
343.85	344.177	43	61
343.85	344.177	46	69
343.85	344.177	52	81
344.013	344.527	76	76
344.013	344.34	79	86
344.013	344.34	82	103
344.177	344.642	43	55
344.177	344.642	46	63
344.177	344.642	52	73
344.34	344.642	79	78
344.34	344.642	82	78
344.34	344.642	88	94
344.642	345.671	67	36
344.642	345.671	70	36
344.642	345.539	76	48
345.489	345.671	77	52
345.671	346.735	68	36
345.671	346.735	72	36
345.671	345.785	77	46
345.728	345.841	79	41
345.785	345.898	77	46
345.841	345.954	79	41
345.898	346.01	77	46
345.954	346.066	79	41
346.01	346.121	77	46
346.066	346.177	79	42
346.121	346.263	77	46
346.177	346.349	79	43
346.263	346.437	77	40
346.349	346.692	79	46
346.437	346.63	77	42
346.533	346.692	76	48
346.63	346.735	77	44
346.735	347.291	64	81
346.735	347.291	67	103
346.959	347.291	73	85
346.959	347.286	76	101
347.123	347.662	46	61
347.123	347.662	49	61
347.123	347.662	52	69
347.123	347.662	55	81
347.286	347.662	76	81
347.286	347.613	79	96
347.45	347.777	58	57
347.45	347.777	61	57
347.45	347.777	64	64
347.45	347.777	67	76
347.613	348.008	79	85
347.613	347.94	82	101
347.777	348.104	58	55
347.777	348.104	61	55
347.777	348.104	64	63
347.777	348.104	67	73
347.94	348.316	82	80
347.94	348.267	85	95
348.104	348.431	58	61
348.104	348.431	61	61
348.104	348.431	64	69
348.104	348.431	67	81
348.267	348.781	85	86
348.267	348.594	88	103
348.431	348.896	58	55
348.431	348.896	61	55
348.431	348.896	64	63
348.431	348.896	67	73
348.594	348.896	88	78
348.594	348.896	91	94
348.896	349.925	70	59
348.896	349.925	73	59
348.896	349.925	76	59
348.896	349.793	79	79
349.743	349.925	80	87
349.925	350.992	71	59
349.925	350.992	74	59
349.925	350.992	77	64
349.925	350.097	80	76
350.011	350.182	82	68
350.097	350.266	80	76
350.182	350.35	82	68
350.266	350.434	80	76
350.35	350.519	82	68
350.434	350.606	80	76
350.519	350.79	82	67
350.606	350.886	80	67
350.693	350.949	79	70
350.79	350.949	82	79
350.886	350.992	80	73
350.992	351.156	60	39
350.992	351.481	76	58
350.992	351.481	79	58
351.156	351.305	72	36
351.318	351.467	72	36
351.481	351.631	72	39
351.645	351.795	72	37
351.809	351.959	72	36
351.973	352.123	72	39
352.137	352.286	72	35
352.299	352.448	72	35
352.462	352.612	72	39
352.626	352.776	72	36
352.79	352.94	72	36
352.954	353.441	77	56
352.954	353.441	80	56
353.118	353.266	72	38
353.279	353.428	72	38
353.441	353.605	65	39
353.441	353.605	68	39
353.605	353.755	72	37
353.769	353.919	72	37
353.933	354.083	72	41
354.097	354.246	72	37
354.259	354.408	72	38
354.422	354.572	72	46
354.586	354.736	72	40
354.75	354.9	72	40
354.914	356.874	77	75
354.914	356.874	80	75
354.914	356.874	85	75
355.078	355.227	72	38
355.24	355.389	72	38
355.403	355.565	65	40
355.403	355.565	68	40
355.565	355.715	72	37
355.728	355.877	72	37
355.891	356.055	65	37
355.891	356.055	68	37
356.055	356.205	72	37
356.219	356.369	72	37
356.382	356.546	65	37
356.382	356.546	68	37
356.546	356.697	72	37
356.71	356.861	72	37
356.874	357.038	64	39
356.874	357.038	67	39
356.874	357.201	76	52
356.874	357.201	79	52
356.874	357.201	84	52
357.038	357.188	60	37
357.201	357.351	60	37
357.364	357.515	60	38
357.528	357.678	60	37
357.692	357.842	60	37
357.856	358.006	60	37
358.02	358.169	60	37
358.183	358.332	60	37
358.345	358.495	60	38
358.345	358.749	76	56
358.345	358.749	79	56
358.509	358.655	60	37
358.669	358.831	60	37
358.749	358.848	76	52
358.749	358.848	79	52
358.848	358.998	60	39
358.848	359.175	77	58
358.848	359.175	80	58
359.011	359.162	60	37
359.175	359.323	60	37
359.175	359.336	76	52
359.175	359.336	79	52
359.336	359.484	60	38
359.497	359.645	60	37
359.658	359.808	60	37
359.658	359.822	64	50
359.658	359.822	67	50
359.822	359.971	60	38
359.985	360.134	60	39
360.147	360.31	52	49
360.147	360.31	55	49
360.147	360.296	60	37
360.31	360.472	55	44
360.31	360.472	58	44
360.472	360.623	60	37
360.637	360.793	60	37
360.717	360.809	76	58
360.717	360.809	79	58
360.809	360.959	60	39
360.809	361.137	79	61
360.809	361.137	82	61
360.973	361.123	60	37
361.137	361.285	60	37
361.137	361.298	77	52
361.137	361.298	80	52
361.298	361.446	60	37
361.459	361.607	60	37
361.621	361.771	60	37
361.621	361.785	65	49
361.621	361.785	68	49
361.785	361.935	60	38
361.949	362.097	60	37
362.111	362.27	53	47
362.111	362.27	56	47
362.111	362.259	60	37
362.273	362.435	53	44
362.273	362.435	56	48
362.435	362.586	60	37
362.599	362.766	60	37
362.682	362.783	77	52
362.682	362.783	80	52
362.783	364.748	77	75
362.783	364.748	80	75
362.783	364.748	85	75
362.947	363.096	60	38
363.11	363.259	60	38
363.272	363.436	53	40
363.272	363.436	56	40
363.436	363.587	60	37
363.6	363.751	60	37
363.764	363.928	53	37
363.764	363.928	56	37
363.928	364.079	60	37
364.092	364.242	60	37
364.256	364.42	53	36
364.256	364.42	56	36
364.42	364.57	60	37
364.584	364.734	60	37
364.748	365.074	76	61
364.748	365.074	79	61
364.748	365.074	84	61
364.912	365.061	60	38
365.074	365.223	60	38
365.237	365.401	52	40
365.237	365.401	55	40
365.401	365.551	60	37
365.565	365.715	60	37
365.729	366.71	63	52
365.729	366.71	66	52
365.729	366.71	72	52
365.893	366.042	60	37
366.055	366.204	60	37
366.218	366.382	51	36
366.218	366.382	54	36
366.382	366.532	60	37
366.546	366.696	60	37
366.71	367.04	62	52
366.71	367.04	65	52
366.71	367.04	71	52
366.876	367.027	60	37
367.04	367.191	60	36
367.205	367.371	50	38
367.205	367.371	53	38
367.371	367.524	60	34
367.538	367.691	60	34
367.705	368.037	61	46
367.705	368.037	65	46
367.705	368.037	70	46
367.872	368.023	60	32
368.037	368.188	60	32
368.202	368.367	49	30
368.202	368.367	53	30
368.367	368.518	60	31
368.532	368.69	60	30
368.705	369.208	60	41
368.705	369.208	65	41
368.705	369.208	68	41
368.872	369.026	48	25
369.04	369.194	48	26
369.208	369.362	48	28
369.376	369.53	48	26
369.544	369.699	48	26
369.713	369.868	48	28
369.882	370.037	48	26
370.051	370.206	48	26
370.221	370.376	48	28
370.39	370.546	48	26
370.56	370.716	48	27
370.73	371.25	46	41
370.73	371.25	48	41
370.73	371.25	52	41
370.73	371.25	55	41
370.909	371.079	36	25
371.079	371.25	36	26
371.25	371.421	36	28
371.421	371.593	36	26
371.593	371.764	36	26
371.764	371.936	36	28
371.936	372.11	36	26
372.11	372.285	36	26
372.285	372.462	36	28
372.462	372.64	36	26
372.64	372.821	36	27
372.821	373.194	29	28
373.012	373.375	33	20
373.012	373.375	36	20
373.012	373.375	41	25
373.194	373.557	29	26
373.375	373.739	33	22
373.375	373.739	36	22
373.375	373.739	41	28
373.557	373.92	29	26
373.739	373.969	33	20
373.739	373.969	36	20
373.739	373.969	41	26
373.92	374.284	29	28
374.102	374.465	33	20
374.102	374.465	36	20
374.102	374.465	41	26
374.284	374.647	29	26
374.465	374.838	33	22
374.465	374.838	36	22
374.465	374.838	41	28
374.465	375.1	45	40
374.465	375.1	57	44
374.647	375.054	29	26
374.838	375.1	33	21
374.838	375.1	36	21
374.838	375.1	41	27
374.933	375.1	48	37
374.933	375.1	60	40
375.054	375.397	29	28
375.054	376.025	53	38
375.054	376.025	65	41
375.226	375.569	33	20
375.226	375.569	36	20
375.226	375.569	41	25
375.397	375.749	29	26
375.569	375.933	33	22
375.569	375.933	36	22
375.569	375.933	41	28
375.569	376.176	57	40
375.569	376.176	69	44
375.749	376.176	29	26
375.933	376.176	33	20
375.933	376.176	36	20
375.933	376.176	41	26
376.025	376.176	53	36
376.025	376.176	65	39
376.13	376.486	31	28
376.13	377.121	52	38
376.13	377.121	64	41
376.311	376.661	34	20
376.311	376.661	40	20
376.311	376.661	43	26
376.486	376.839	31	26
376.661	377.027	34	22
376.661	377.027	40	22
376.661	377.027	43	28
376.661	377.279	55	40
376.661	377.279	67	44
376.839	377.279	31	26
377.027	377.279	34	21
377.027	377.279	40	21
377.027	377.279	43	27
377.121	377.279	52	36
377.121	377.279	64	39
377.233	377.577	33	28
377.233	378.299	53	38
377.233	378.299	65	41
377.405	377.749	36	20
377.405	377.749	41	20
377.405	377.749	45	25
377.577	377.925	33	26
377.749	378.102	36	22
377.749	378.102	41	22
377.749	378.102	45	28
377.749	379.352	48	40
377.749	379.352	60	40
377.925	378.278	33	26
378.102	378.299	36	20
378.102	378.299	41	20
378.102	378.299	45	26
378.278	378.631	33	28
378.455	379.352	36	20
378.455	378.808	41	20
378.455	379.352	45	26
378.631	379.352	33	26
378.808	379.172	41	28
378.808	379.352	50	40
378.808	379.352	62	44
378.984	379.352	34	26
379.172	379.378	41	27
379.266	379.378	46	37
379.266	379.378	58	40
379.378	379.721	36	28
379.378	380.349	45	40
379.378	380.349	57	44
379.549	379.892	41	25
379.721	380.073	36	26
379.892	380.257	41	28
379.892	380.466	48	40
379.892	380.466	60	44
380.073	380.454	36	25
380.257	380.466	41	25
380.349	380.466	45	36
380.349	380.466	57	39
380.454	380.81	36	28
380.454	381.624	43	40
380.454	381.624	55	44
380.635	380.985	40	25
380.81	381.163	36	25
380.985	381.355	40	28
380.985	381.624	48	40
380.985	381.624	60	44
381.163	381.624	36	25
381.355	381.624	40	25
381.452	381.624	46	36
381.452	381.624	58	39
381.569	381.937	41	28
381.569	382.696	57	42
381.753	382.121	45	20
381.753	382.121	48	20
381.753	382.121	53	25
381.937	382.3	41	27
382.121	382.48	45	23
382.121	382.48	48	23
382.121	382.48	53	29
382.121	383.659	60	42
382.3	382.659	41	28
382.48	382.696	45	22
382.48	382.696	48	22
382.48	382.696	53	29
382.659	383.018	41	32
382.839	383.198	45	24
382.839	383.198	48	24
382.839	383.198	53	31
383.018	383.377	41	31
383.198	383.565	45	27
383.198	383.565	48	27
383.198	383.565	53	35
383.198	383.816	57	51
383.198	383.816	69	55
383.377	383.78	41	33
383.565	383.816	45	27
383.565	383.816	48	27
383.565	383.816	53	34
383.659	383.816	60	49
383.659	383.816	72	53
383.78	384.134	41	37
383.78	384.763	65	51
383.78	384.763	77	56
383.957	384.311	45	27
383.957	384.311	48	27
383.957	384.311	53	34
384.134	384.49	41	36
384.311	384.672	45	30
384.311	384.672	48	30
384.311	384.672	53	39
384.311	384.904	69	57
384.311	384.904	81	62
384.49	384.904	41	37
384.672	384.904	45	29
384.672	384.904	48	29
384.672	384.904	53	38
384.763	384.904	65	53
384.763	384.904	77	58
384.868	385.223	43	40
384.868	385.863	64	57
384.868	385.863	76	61
385.048	385.399	46	29
385.048	385.399	48	29
385.048	385.399	55	38
385.223	385.582	43	39
385.399	385.769	46	34
385.399	385.769	48	34
385.399	385.769	55	42
385.399	385.999	67	62
385.399	385.999	79	68
385.582	385.999	43	40
385.769	385.999	46	33
385.769	385.999	48	33
385.769	385.999	55	42
385.863	385.999	64	58
385.863	385.999	76	63
385.999	388.16	45	28
385.999	388.16	48	28
385.999	388.1	53	36
385.999	388.16	57	36
385.999	388.16	65	51
385.999	388.16	77	57
386.537	388.16	60	48
386.537	388.16	72	52
388.1	390.131	46	50
388.1	390.131	49	50
388.1	388.808	53	59
388.1	388.808	61	72
388.1	388.808	73	85
388.644	390.131	54	57
388.644	390.131	58	69
388.644	390.131	70	81
390.123	392.17	48	28
390.123	392.17	53	36
390.123	392.17	56	36
390.123	392.17	68	58
391.627	392.17	67	51
391.973	392.17	65	49
392.17	396.27	48	25
392.17	396.27	52	31
392.17	396.27	58	31
392.17	392.348	67	46
392.26	392.436	68	39
392.348	392.524	67	46
392.436	392.612	68	40
392.524	392.698	67	47
392.612	392.784	68	40
392.698	392.869	67	48
392.784	392.954	68	41
392.869	393.038	67	49
392.954	393.123	68	42
393.038	393.208	67	50
393.123	393.293	68	42
393.208	393.379	67	51
393.293	393.464	68	44
393.379	393.549	67	51
393.464	393.635	68	45
393.549	393.721	67	52
393.635	393.807	68	46
393.721	393.893	67	53
393.807	393.979	68	48
393.893	394.066	67	55
393.979	394.153	68	48
394.066	394.179	67	56
394.153	396.27	68	48
394.241	394.426	73	46
394.34	394.513	72	39
394.426	394.599	73	46
394.513	394.684	72	40
394.599	394.769	73	48
394.684	394.854	72	41
394.769	394.938	73	50
394.854	395.022	72	44
394.938	395.107	73	51
395.022	395.191	72	45
395.107	395.275	73	53
395.191	395.36	72	47
395.275	395.445	73	56
395.36	395.529	72	48
395.445	395.614	73	56
395.529	395.7	72	47
395.614	395.785	73	56
395.7	395.87	72	48
395.785	395.956	73	56
395.87	396.042	72	49
395.956	396.27	73	56
396.042	396.216	72	49
396.129	396.27	71	56
396.216	398.292	72	48
396.303	396.488	85	49
396.402	396.572	84	41
396.488	396.656	85	49
396.572	396.739	84	43
396.656	396.821	85	51
396.739	396.903	84	45
396.821	396.984	85	54
396.903	397.065	84	45
396.984	397.146	85	55
397.065	397.227	84	46
397.146	397.308	85	56
397.227	397.39	84	49
397.308	397.471	85	60
397.39	397.553	84	49
397.471	397.635	85	58
397.553	397.717	84	48
397.635	397.802	85	55
397.717	397.886	84	45
397.802	397.971	85	54
397.886	398.057	84	45
397.971	398.292	85	52
398.057	398.234	84	44
398.144	398.292	83	50
398.234	398.329	84	40
398.329	398.509	85	47
398.509	398.69	84	47
398.69	398.871	82	45
398.871	399.051	80	42
399.051	399.232	79	43
399.232	399.413	78	42
399.413	399.594	77	42
399.594	399.774	76	42
399.774	399.955	75	42
399.955	400.136	73	42
400.136	400.317	72	41
400.317	400.497	70	41
400.497	400.673	68	41
400.673	400.855	67	39
400.855	401.038	66	39
401.038	401.224	65	38
401.224	401.41	64	37
401.41	401.596	63	36
401.596	401.783	61	36
401.783	401.969	60	36
401.969	402.155	58	35
402.155	402.342	56	34
402.342	402.528	55	35
402.528	402.714	54	33
402.714	402.9	53	34
402.9	403.086	52	33
403.086	403.273	51	33
403.273	403.461	49	33
403.461	403.649	48	32
403.649	403.838	46	32
403.838	404.027	44	34
404.027	404.216	43	33
404.216	404.405	42	33
404.405	404.595	41	33
404.595	404.784	40	33
404.784	404.985	39	33
404.985	405.178	37	34
405.178	405.37	36	34
405.37	405.563	34	34
405.563	405.756	32	34
405.756	405.949	31	33
405.949	406.151	32	31
406.151	406.344	34	34
406.344	406.539	36	33
406.539	406.736	35	33
406.736	406.934	36	36
406.934	407.135	35	34
407.135	407.344	36	33
407.344	407.71	29	64
407.344	407.71	53	83
407.436	407.618	36	52
407.436	407.618	48	66
407.527	407.825	41	52
407.527	407.825	44	66
407.618	407.807	36	52
407.618	407.807	48	66
407.71	407.825	29	58
407.71	407.825	53	72
407.807	407.904	36	51
407.807	407.904	48	64
407.904	408.034	29	68
407.904	408.034	56	84
407.995	408.087	36	52
407.995	408.087	48	66
408.087	408.213	29	64
408.087	408.213	55	83
408.178	408.27	36	52
408.178	408.27	48	66
408.27	408.39	29	62
408.27	408.39	53	81
408.363	408.457	36	52
408.363	408.457	48	66
408.457	408.818	29	64
408.457	408.818	53	83
408.547	408.728	36	52
408.547	408.728	48	63
408.637	408.954	41	52
408.637	408.954	44	63
408.728	408.914	36	52
408.728	408.914	48	63
408.818	408.954	29	58
408.818	408.954	53	66
408.914	409.01	36	51
408.914	409.01	48	62
409.01	409.162	29	68
409.01	409.162	56	83
409.101	409.192	36	52
409.101	409.192	48	63
409.192	409.327	29	64
409.192	409.327	55	80
409.284	409.375	36	52
409.284	409.375	48	66
409.375	409.524	29	62
409.375	409.524	53	80
409.473	409.57	36	52
409.473	409.57	48	64
409.57	409.931	29	64
409.57	409.931	61	83
409.661	409.841	37	52
409.661	409.841	56	66
409.751	410.068	41	52
409.751	410.068	53	66
409.841	410.029	37	52
409.841	410.029	56	66
409.931	410.068	29	58
409.931	410.068	61	77
410.029	410.126	37	51
410.029	410.126	56	64
410.126	410.256	29	68
410.126	410.256	65	84
410.217	410.308	37	52
410.217	410.308	56	66
410.308	410.434	29	64
410.308	410.434	63	83
410.399	410.49	37	52
410.399	410.49	56	66
410.49	410.61	29	62
410.49	410.61	61	81
410.584	410.678	37	52
410.584	410.678	56	66
410.678	411.039	29	64
410.678	411.039	61	83
410.768	410.948	37	52
410.768	410.948	56	63
410.858	411.175	41	52
410.858	411.175	53	63
410.948	411.134	37	52
410.948	411.134	56	63
411.039	411.175	29	58
411.039	411.175	61	75
411.134	411.23	37	51
411.134	411.23	56	62
411.23	411.383	29	68
411.23	411.383	65	83
411.322	411.413	37	52
411.322	411.413	56	63
411.413	411.548	29	64
411.413	411.548	63	80
411.505	411.596	37	52
411.505	411.596	56	66
411.596	411.741	29	62
411.596	411.741	61	80
411.691	411.786	37	52
411.691	411.786	56	64
411.786	413.43	30	91
411.786	413.43	42	107
411.786	411.965	70	93
411.875	412.055	73	74
411.965	412.146	70	76
412.055	412.235	73	67
412.146	412.325	70	72
412.235	412.415	73	67
412.325	412.505	70	72
412.415	412.595	73	67
412.505	412.684	70	72
412.595	412.775	73	67
412.684	412.865	70	72
412.775	412.955	73	67
412.865	413.045	70	76
412.955	413.134	73	67
413.045	413.225	70	76
413.134	413.314	73	67
413.225	413.404	70	76
413.314	413.43	73	67
413.404	413.956	31	74
413.404	413.956	43	88
413.404	413.678	70	95
413.495	413.956	73	78
413.587	413.956	34	72
413.587	413.863	67	89
413.678	413.956	70	78
413.769	413.956	37	82
413.769	413.956	64	84
413.863	413.956	67	77
413.956	414.48	40	95
413.956	414.227	61	82
414.046	414.48	64	70
414.136	414.48	43	82
414.136	414.407	58	81
414.227	414.48	61	71
414.317	414.497	46	82
414.317	414.48	55	82
414.407	414.497	58	68
414.497	414.678	49	85
414.497	414.858	53	81
414.588	414.768	55	70
414.678	414.858	49	83
414.678	415.011	58	80
414.768	414.955	55	70
414.858	415.044	49	83
414.858	415.011	53	80
414.955	415.052	55	69
415.052	415.636	49	97
415.142	415.413	53	70
415.233	415.503	58	80
415.323	415.636	55	69
415.413	415.636	53	77
415.503	415.636	58	70
415.594	416.135	48	89
415.684	415.954	52	69
415.774	416.036	58	80
415.864	416.036	55	69
415.954	416.045	52	78
416.045	416.135	58	69
416.135	416.5	41	64
416.135	416.5	65	83
416.226	416.409	48	52
416.226	416.409	60	66
416.317	416.616	53	52
416.317	416.616	56	66
416.409	416.597	48	52
416.409	416.597	60	66
416.5	416.616	41	58
416.5	416.616	65	80
416.597	416.694	48	51
416.597	416.694	60	64
416.694	416.824	41	68
416.694	416.824	68	84
416.786	416.877	48	52
416.786	416.877	60	66
416.877	417.003	41	64
416.877	417.003	67	83
416.968	417.059	48	52
416.968	417.059	60	66
417.059	417.179	41	62
417.059	417.179	65	81
417.153	417.246	48	52
417.153	417.246	60	66
417.246	417.607	41	64
417.246	417.607	65	83
417.337	417.517	48	52
417.337	417.517	60	63
417.427	417.744	53	52
417.427	417.744	56	63
417.517	417.703	48	52
417.517	417.703	60	63
417.607	417.744	41	58
417.607	417.744	65	80
417.703	417.799	48	51
417.703	417.799	60	62
417.799	417.951	41	68
417.799	417.951	68	83
417.89	417.982	48	52
417.89	417.982	60	63
417.982	418.117	41	64
417.982	418.117	67	80
418.073	418.165	48	52
418.073	418.165	60	66
418.165	418.313	41	62
418.165	418.313	65	80
418.262	418.36	48	52
418.262	418.36	60	64
418.36	418.721	41	64
418.36	418.721	73	83
418.45	418.63	49	52
418.45	418.63	68	66
418.54	418.836	53	52
418.54	418.836	65	66
418.63	418.818	49	52
418.63	418.818	68	66
418.721	418.836	41	58
418.721	418.836	73	80
418.818	418.915	49	51
418.818	418.915	68	64
418.915	419.045	41	68
418.915	419.045	77	84
419.006	419.098	49	52
419.006	419.098	68	66
419.098	419.224	41	64
419.098	419.224	75	83
419.189	419.281	49	52
419.189	419.281	68	66
419.281	419.401	41	62
419.281	419.401	73	81
419.374	419.468	49	52
419.374	419.468	68	66
419.468	419.829	41	64
419.468	419.829	73	83
419.558	419.739	49	52
419.558	419.739	68	63
419.648	419.966	53	52
419.648	419.966	65	63
419.739	419.925	49	52
419.739	419.925	68	63
419.829	419.966	41	58
419.829	419.966	73	80
419.925	420.021	49	51
419.925	420.021	68	62
420.021	420.173	41	68
420.021	420.173	77	83
420.112	420.203	49	52
420.112	420.203	68	63
420.203	420.337	41	64
420.203	420.337	75	80
420.294	420.385	49	52
420.294	420.385	68	66
420.385	420.53	41	62
420.385	420.53	73	80
420.48	420.575	49	52
420.48	420.575	68	64
420.575	422.219	42	90
420.575	422.219	54	106
420.575	420.754	82	93
420.664	420.844	85	75
420.754	420.935	82	80
420.844	421.024	85	69
420.935	421.114	82	77
421.024	421.204	85	69
421.114	421.294	82	78
421.204	421.384	85	69
421.294	421.474	82	74
421.384	421.564	85	69
421.474	421.654	82	74
421.564	421.744	85	69
421.654	421.834	82	74
421.744	421.923	85	69
421.834	422.014	82	74
421.923	422.103	85	69
422.014	422.193	82	74
422.103	422.219	85	69
422.193	422.745	43	59
422.193	422.745	55	88
422.193	422.376	82	75
422.285	422.467	85	69
422.376	422.745	46	58
422.376	422.745	58	72
422.376	422.559	82	77
422.467	422.652	85	69
422.559	422.745	49	63
422.559	422.745	61	82
422.559	422.745	82	77
422.652	422.745	85	69
422.745	423.269	52	75
422.745	423.269	64	95
422.745	423.016	82	82
422.836	423.269	85	70
422.926	423.269	55	63
422.926	423.269	67	82
422.926	423.196	79	81
423.016	423.269	82	71
423.106	423.287	58	63
423.106	423.287	70	82
423.106	423.269	77	82
423.196	423.287	79	68
423.287	423.467	61	68
423.287	423.467	73	85
423.287	423.648	77	81
423.377	423.557	79	70
423.467	423.648	61	64
423.467	423.648	73	83
423.467	423.8	82	80
423.557	423.745	79	70
423.648	423.833	61	64
423.648	423.833	73	83
423.648	423.8	77	80
423.745	423.842	79	69
423.842	424.426	61	80
423.842	424.426	73	102
423.932	424.202	77	72
424.022	424.293	82	82
424.112	424.426	79	70
424.202	424.426	77	77
424.293	424.426	82	69
424.383	424.93	60	69
424.383	424.93	72	86
424.473	424.744	76	67
424.563	424.828	82	75
424.654	424.828	79	64
424.744	424.837	76	72
424.837	424.93	82	62
424.93	425.514	65	102
425.02	425.291	73	72
425.11	425.381	82	82
425.201	425.514	79	70
425.291	425.514	73	77
425.381	425.514	82	69
425.471	426.018	64	86
425.561	425.832	72	67
425.652	425.916	82	75
425.742	425.916	79	64
425.832	425.925	72	72
425.925	426.018	82	62
426.018	426.602	73	102
426.108	426.378	77	72
426.198	426.469	82	82
426.288	426.602	79	70
426.378	426.602	77	77
426.469	426.602	82	69
426.559	427.1	72	86
426.649	426.92	76	67
426.739	427.002	82	75
426.83	427.002	79	64
426.92	427.01	76	72
427.01	427.1	82	62
427.1	428.163	71	97
427.19	428.163	74	91
427.28	428.163	77	95
427.369	428.163	80	87
427.458	427.813	83	83
427.547	427.724	86	79
427.636	428.076	89	87
427.724	428.155	86	79
427.813	428.155	83	86
427.901	428.155	92	83
427.988	428.155	91	84
428.076	428.163	89	79
428.163	429.236	72	85
428.163	428.424	88	79
428.25	429.236	76	77
428.25	429.152	91	74
428.337	429.126	79	77
428.337	429.152	89	79
428.424	429.152	88	72
428.512	428.774	85	73
428.599	428.862	84	72
428.686	428.95	82	78
428.774	429.152	85	73
428.862	429.152	84	75
428.95	429.152	82	72
429.037	429.152	80	71
429.126	429.236	79	70
429.236	429.77	65	41
429.236	429.77	68	41
429.329	429.683	77	39
429.422	429.729	80	41
429.509	429.729	84	43
429.596	429.729	89	45
429.683	429.77	77	41
429.77	430.297	70	40
429.77	430.297	73	40
430.036	430.21	89	45
430.123	430.26	77	41
430.21	430.297	89	45
430.297	430.823	68	41
430.297	430.823	72	41
430.562	430.736	89	44
430.649	430.765	77	41
430.736	430.823	89	44
430.823	431.337	67	55
430.823	431.337	70	55
430.823	431.337	72	55
431.076	431.25	88	44
431.163	431.275	76	41
431.25	431.337	88	45
431.337	431.871	65	41
431.337	431.871	68	41
431.43	431.784	77	39
431.523	431.83	80	41
431.61	431.83	84	43
431.697	431.83	89	45
431.784	431.871	77	41
431.871	432.398	58	40
431.871	432.398	61	40
432.137	432.311	77	45
432.224	432.361	65	41
432.311	432.398	77	45
432.398	432.924	56	41
432.398	432.924	60	41
432.663	432.837	77	44
432.75	432.866	65	41
432.837	432.924	77	44
432.924	433.438	55	55
432.924	433.438	58	55
432.924	433.438	60	55
433.177	433.351	76	44
433.264	433.376	64	41
433.351	433.438	76	45
433.438	433.972	53	41
433.438	433.972	56	41
433.531	433.885	77	39
433.624	433.931	80	41
433.711	433.931	84	43
433.798	433.931	89	45
433.885	433.972	77	41
433.972	434.499	46	40
433.972	434.499	49	40
434.238	434.412	89	45
434.325	434.462	77	41
434.412	434.499	89	45
434.499	435.025	44	41
434.499	435.025	48	41
434.764	434.938	89	44
434.851	434.967	77	41
434.938	435.025	89	44
435.025	435.552	43	55
435.025	435.552	46	55
435.025	435.552	48	55
435.278	435.459	88	44
435.365	435.485	76	41
435.459	435.552	88	45
435.552	436.666	41	44
435.552	435.905	89	44
435.64	435.816	84	41
435.728	436.083	80	40
435.816	435.994	84	36
435.905	436.262	89	39
435.994	436.173	84	36
436.083	436.443	80	42
436.173	436.353	84	38
436.262	436.641	89	38
436.353	436.542	84	34
436.443	436.666	80	37
436.542	436.666	84	33
436.641	437.29	36	36
436.641	437.05	89	39
436.742	436.947	84	36
436.844	437.29	80	36
436.947	437.155	84	32
437.05	437.26	89	35
437.155	437.29	84	31
437.26	437.912	32	30
437.26	437.474	89	36
437.367	437.582	84	34
437.474	437.692	89	34
437.582	437.802	84	30
437.692	437.912	89	33
437.802	437.912	84	30
437.912	439.733	29	24
437.912	438.311	89	38
438.013	438.212	84	30
438.113	438.505	80	37
438.212	438.409	84	30
438.311	438.698	89	33
438.409	438.601	84	30
438.505	438.89	80	36
438.601	438.794	84	30
438.698	439.082	89	35
438.794	438.986	84	30
438.89	439.273	80	31
438.986	439.178	84	30
439.082	439.463	89	38
439.178	439.368	84	30
439.273	439.733	80	33
439.368	439.559	84	29
439.463	439.654	89	33
439.559	439.733	84	28
439.654	440.262	32	29
439.654	439.749	89	37
439.749	439.941	84	33
439.845	440.262	80	34
439.941	440.135	84	29
440.038	440.241	89	33
440.135	440.262	36	26
440.135	440.262	84	29
440.241	441.319	41	29
440.241	440.597	89	38
440.331	440.509	84	30
440.42	440.955	80	37
440.509	440.684	84	30
440.597	440.771	89	33
440.684	440.863	84	30
440.771	441.319	44	29
440.771	441.142	89	36
440.863	441.049	84	30
440.955	441.319	80	35
441.049	441.236	84	30
441.142	441.319	89	31
441.236	441.337	48	26
441.236	441.337	84	30
441.337	442.452	53	29
441.337	441.705	89	38
441.429	441.613	84	30
441.521	442.084	80	33
441.613	441.802	84	29
441.705	441.9	89	33
441.802	441.992	84	28
441.9	442.452	41	28
441.9	442.268	89	37
441.992	442.176	84	33
442.084	442.452	80	34
442.176	442.36	84	29
442.268	442.452	89	33
442.36	442.452	84	29
442.452	444.186	42	34
442.452	442.818	87	38
442.544	442.727	84	30
442.636	442.999	80	37
442.727	442.909	84	30
442.818	443.181	87	33
442.909	443.09	84	30
442.999	443.364	80	36
443.09	443.272	84	30
443.181	443.548	87	35
443.272	443.456	84	30
443.364	443.733	80	31
443.456	443.641	84	30
443.548	443.92	87	38
443.641	443.827	84	30
443.733	444.186	80	33
443.827	444.014	84	29
443.92	444.108	87	33
444.014	444.186	84	28
444.108	444.711	48	33
444.108	444.202	87	37
444.202	444.393	84	33
444.297	444.711	80	34
444.393	444.587	84	29
444.49	444.69	87	33
444.587	444.711	51	28
444.587	444.711	84	29
444.69	445.77	54	33
444.69	445.047	87	38
444.78	444.958	84	30
444.87	445.406	80	37
444.958	445.135	84	30
445.047	445.222	87	33
445.135	445.314	84	30
445.222	445.77	60	33
445.222	445.593	87	36
445.314	445.5	84	30
445.406	445.77	80	35
445.5	445.687	84	30
445.593	445.77	87	31
445.687	445.788	63	28
445.687	445.788	84	30
445.788	446.924	66	33
445.788	446.156	87	38
445.88	446.064	84	30
445.972	446.535	80	33
446.064	446.253	84	29
446.156	446.351	87	33
446.253	446.443	84	28
446.351	446.924	54	30
446.351	446.719	87	37
446.443	446.627	84	33
446.535	446.924	80	34
446.627	446.811	84	29
446.719	446.924	87	33
446.811	446.924	84	29
446.903	447.976	53	33
446.903	447.254	89	38
446.992	447.167	85	30
447.08	447.612	80	37
447.167	447.341	85	30
447.254	447.428	89	33
447.341	447.52	85	31
447.428	447.976	56	34
447.428	447.8	89	37
447.52	447.706	85	30
447.612	447.976	80	36
447.706	447.893	85	31
447.8	447.976	89	34
447.893	447.994	61	30
447.893	447.994	85	33
447.994	449.105	65	36
447.994	448.362	89	40
448.086	448.27	85	33
448.178	448.741	80	35
448.27	448.46	85	31
448.362	448.557	89	35
448.46	448.649	85	30
448.557	449.105	53	35
448.557	448.922	89	40
448.649	448.832	85	36
448.741	449.105	80	37
448.832	449.013	85	33
448.922	449.105	89	36
449.013	449.105	85	33
449.105	450.259	51	40
449.105	449.476	90	40
449.197	449.383	84	35
449.289	449.855	80	40
449.383	449.57	84	35
449.476	449.671	90	37
449.57	450.259	54	36
449.57	449.763	84	36
449.671	450.259	56	42
449.671	450.042	90	42
449.763	449.949	84	35
449.855	450.259	80	41
449.949	450.136	84	37
450.042	450.237	90	38
450.136	450.259	60	38
450.136	450.259	84	37
450.237	451.374	63	44
450.237	450.608	90	44
450.329	450.514	84	36
450.421	450.987	80	44
450.514	450.702	84	38
450.608	450.802	90	39
450.702	451.374	66	39
450.702	451.374	84	38
450.802	451.374	68	47
450.802	451.174	90	45
450.895	451.08	87	38
450.987	451.374	80	44
451.08	451.267	87	39
451.174	451.374	90	39
451.267	451.374	72	42
451.267	451.374	87	39
451.374	451.747	61	33
451.374	452.51	89	55
451.565	451.928	65	24
451.565	451.928	68	24
451.565	451.928	73	30
451.747	452.11	61	31
451.928	452.292	65	26
451.928	452.292	68	26
451.928	452.292	73	33
452.11	452.473	61	31
452.292	452.51	65	24
452.292	452.51	68	24
452.292	452.51	73	31
452.473	452.836	61	33
452.655	453.018	65	24
452.655	453.018	68	24
452.655	453.018	73	31
452.836	453.2	61	31
453.018	453.391	65	26
453.018	453.391	68	26
453.018	453.391	73	33
453.018	453.644	77	62
453.2	453.607	61	31
453.391	453.644	65	25
453.391	453.644	68	25
453.391	453.644	73	32
453.486	453.644	80	57
453.607	453.95	61	33
453.607	454.578	85	66
453.778	454.122	65	24
453.778	454.122	68	24
453.778	454.122	73	30
453.95	454.302	61	31
454.122	454.486	65	26
454.122	454.486	68	26
454.122	454.486	73	33
454.122	454.736	89	62
454.302	454.736	61	31
454.486	454.736	65	24
454.486	454.736	68	24
454.486	454.736	73	31
454.578	454.736	85	55
454.683	455.038	63	33
454.683	455.673	84	63
454.863	455.214	66	24
454.863	455.214	68	24
454.863	455.214	75	31
455.038	455.392	63	31
455.214	455.58	66	26
455.214	455.58	68	26
455.214	455.58	75	33
455.214	455.826	87	66
455.392	455.826	63	31
455.58	455.826	66	25
455.58	455.826	68	25
455.58	455.826	75	32
455.673	455.826	84	55
455.786	456.13	65	33
455.786	456.878	85	66
455.958	456.301	68	24
455.958	456.301	73	24
455.958	456.301	77	30
456.13	456.478	65	31
456.301	456.655	68	26
456.301	456.655	73	26
456.301	456.655	77	33
456.301	457.818	80	59
456.478	456.831	65	31
456.655	456.878	68	24
456.655	456.878	73	24
456.655	456.878	77	31
456.831	457.184	65	33
457.008	457.361	68	24
457.008	457.361	73	24
457.008	457.361	77	31
457.184	457.905	65	31
457.361	457.537	68	36
457.361	457.725	73	36
457.361	457.905	77	68
457.537	457.725	68	34
457.725	457.931	68	35
457.725	457.931	73	35
457.818	457.931	80	62
457.931	458.274	65	36
457.931	458.902	85	71
458.102	458.445	68	26
458.102	458.445	73	26
458.102	458.445	77	33
458.274	458.625	65	34
458.445	458.81	68	29
458.445	458.81	73	29
458.445	458.81	77	37
458.445	459.059	89	74
458.625	459.059	65	35
458.81	459.059	68	27
458.81	459.059	73	27
458.81	459.059	77	36
458.902	459.059	85	64
459.007	459.363	66	39
459.007	460.004	84	75
459.188	459.538	69	28
459.188	459.538	72	28
459.188	459.538	75	37
459.363	459.716	66	38
459.538	459.908	69	40
459.538	459.908	72	40
459.538	459.908	75	40
459.538	460.163	87	80
459.716	460.163	66	38
459.908	460.163	69	40
459.908	460.163	72	40
459.908	460.163	75	40
460.004	460.163	84	71
460.122	460.47	65	49
460.122	461.236	83	85
460.296	460.644	68	30
460.296	460.644	71	30
460.296	460.644	74	39
460.47	460.824	65	41
460.644	461.003	68	35
460.644	461.003	71	35
460.644	461.003	74	44
460.644	461.721	86	95
460.824	461.183	65	42
461.003	461.236	68	34
461.003	461.236	71	34
461.003	461.236	74	44
461.183	461.542	65	49
461.362	461.721	68	36
461.362	461.721	71	36
461.362	461.721	74	48
461.542	461.901	65	48
461.721	462.084	68	41
461.721	462.084	71	41
461.721	462.084	74	55
461.721	462.337	86	84
461.901	462.337	65	50
462.084	462.337	68	41
462.084	462.337	71	41
462.084	462.337	74	52
462.175	462.337	83	79
462.297	462.646	64	54
462.297	463.407	84	85
462.471	462.82	67	37
462.471	462.82	72	37
462.471	462.82	76	47
462.646	463.0	64	51
462.82	463.179	67	42
462.82	463.179	72	42
462.82	463.179	76	53
462.82	464.471	88	97
463.0	463.359	64	47
463.179	463.407	67	41
463.179	463.407	72	41
463.179	463.407	76	52
463.359	463.718	64	49
463.538	463.897	67	43
463.538	463.897	72	43
463.538	463.897	76	54
463.718	464.077	64	48
463.897	464.259	67	41
463.897	464.259	72	41
463.897	464.259	76	55
463.897	464.491	79	71
463.897	464.491	91	84
464.077	464.491	64	50
464.259	464.491	67	41
464.259	464.491	72	41
464.259	464.471	76	52
464.35	464.491	77	67
464.35	464.491	89	79
464.471	464.82	58	54
464.471	465.57	76	72
464.471	465.57	88	85
464.646	464.994	61	37
464.646	464.994	64	37
464.646	464.994	67	47
464.82	465.174	58	51
464.994	465.353	61	42
464.994	465.353	64	42
464.994	465.353	67	53
464.994	466.072	79	79
464.994	466.072	91	93
465.174	465.533	58	47
465.353	465.57	61	41
465.353	465.57	64	41
465.353	465.57	67	52
465.533	465.892	58	49
465.713	466.072	61	43
465.713	466.072	64	43
465.713	466.072	67	54
465.892	466.251	58	48
466.072	466.433	61	43
466.072	466.433	64	43
466.072	466.433	67	57
466.072	466.686	79	74
466.072	466.686	91	88
466.251	466.686	58	52
466.433	466.686	61	43
466.433	466.686	64	43
466.433	466.686	67	54
466.524	466.686	76	70
466.524	466.686	88	82
466.645	466.994	56	56
466.645	467.749	77	75
466.645	467.749	89	89
466.82	467.169	60	38
466.82	467.169	65	38
466.82	467.169	68	49
466.994	467.348	56	53
467.169	467.528	60	44
467.169	467.528	65	44
467.169	467.528	68	55
467.169	468.246	80	81
467.169	468.246	92	96
467.348	467.707	56	49
467.528	467.749	60	43
467.528	467.749	65	43
467.528	467.749	68	54
467.707	468.066	56	51
467.887	468.246	60	45
467.887	468.246	65	45
467.887	468.246	68	56
468.066	468.426	56	50
468.246	468.613	60	43
468.246	468.613	65	43
468.246	468.613	68	57
468.246	468.828	80	74
468.246	468.828	92	88
468.426	468.828	56	52
468.613	468.828	60	43
468.613	468.828	65	43
468.613	468.828	68	54
468.707	468.828	77	70
468.707	468.828	89	82
468.828	469.408	34	101
468.828	469.408	46	101
468.942	469.408	61	80
469.028	469.372	58	77
469.113	469.408	66	72
469.197	469.408	49	75
469.281	469.408	54	69
469.372	469.79	58	86
469.456	469.945	66	75
469.539	469.882	61	78
469.623	469.945	70	73
469.706	469.945	54	75
469.79	469.945	58	73
469.882	470.3	61	86
469.966	470.458	70	74
470.049	470.391	66	80
470.133	470.458	73	74
470.216	470.458	58	78
470.3	470.458	61	73
470.391	470.806	66	84
470.474	470.898	73	75
470.557	470.898	70	80
470.64	470.898	78	72
470.723	470.898	61	77
470.806	470.898	66	71
470.898	471.313	70	81
470.981	471.44	78	74
471.064	471.404	73	77
471.147	471.44	82	72
471.23	471.44	66	75
471.313	471.44	70	74
471.404	471.819	73	81
471.487	471.942	82	71
471.57	471.91	78	75
471.653	471.942	85	73
471.736	471.942	70	75
471.819	471.942	73	73
471.91	472.328	78	84
471.994	472.573	85	74
472.077	472.42	82	80
472.161	472.573	90	74
472.244	472.573	73	75
472.328	472.573	78	74
472.42	472.59	82	83
472.59	472.947	90	82
472.677	472.947	85	79
472.767	473.045	94	84
473.045	473.651	36	101
473.045	473.651	48	101
473.185	473.651	63	80
473.271	473.615	60	77
473.356	473.651	69	72
473.44	473.651	51	80
473.524	473.651	57	73
473.615	474.033	60	89
473.699	474.188	69	75
473.782	474.125	63	78
473.866	474.188	72	73
473.949	474.188	57	78
474.033	474.188	60	73
474.125	474.543	63	86
474.208	474.701	72	74
474.292	474.634	69	80
474.376	474.701	75	74
474.459	474.701	60	78
474.543	474.701	63	73
474.634	475.049	69	84
474.717	475.141	75	75
474.8	475.141	72	80
474.883	475.141	81	72
474.966	475.141	63	77
475.049	475.141	69	71
475.141	475.556	72	82
475.224	475.683	81	75
475.307	475.647	75	77
475.39	475.683	84	72
475.473	475.683	69	75
475.556	475.683	72	73
475.647	476.062	75	85
475.73	476.185	84	71
475.813	476.153	81	75
475.896	476.185	87	73
475.979	476.185	72	75
476.062	476.185	75	73
476.153	476.571	81	84
476.236	476.828	87	74
476.32	476.663	84	80
476.404	476.828	93	74
476.487	476.828	75	80
476.571	476.828	81	74
476.663	476.833	84	85
476.833	477.18	93	83
476.92	477.18	87	77
477.01	477.238	96	83
477.238	478.216	37	101
477.238	478.216	49	101
477.324	478.005	65	74
477.41	477.754	61	77
477.495	477.921	70	72
477.58	478.216	53	78
477.663	478.216	58	73
477.754	478.216	61	84
477.921	478.216	70	75
478.005	478.216	65	72
478.088	478.264	73	73
478.264	479.264	40	101
478.264	479.264	52	101
478.354	479.035	67	75
478.44	478.785	64	77
478.525	478.952	72	72
478.61	479.264	55	80
478.693	479.264	60	73
478.785	479.264	64	82
478.952	479.264	72	75
479.035	479.264	67	72
479.119	479.294	76	73
479.294	480.281	41	101
479.294	480.281	53	101
479.384	480.065	68	73
479.47	479.815	65	77
479.555	479.982	73	72
479.64	480.281	56	80
479.724	480.281	61	73
479.815	480.281	65	86
479.982	480.281	73	75
480.065	480.281	68	71
480.149	480.324	77	73
480.324	481.285	43	101
480.324	481.285	55	101
480.415	481.095	70	80
480.5	480.845	67	77
480.586	481.012	76	72
480.67	481.285	58	80
480.754	481.285	64	73
480.845	481.285	67	86
481.012	481.285	76	75
481.095	481.285	70	73
481.179	481.355	79	73
481.355	481.894	44	75
481.437	481.894	72	64
481.52	481.894	68	69
481.602	481.894	77	64
481.685	481.894	56	69
481.768	481.894	60	61
481.859	482.394	46	77
481.942	482.394	73	64
482.024	482.394	70	69
482.107	482.394	79	67
482.189	482.394	58	69
482.271	482.394	61	64
482.362	482.912	48	78
482.445	482.912	75	69
482.528	482.912	72	73
482.611	482.912	81	69
482.694	482.912	60	71
482.777	482.912	63	67
482.869	483.372	49	81
482.951	483.372	77	71
483.034	483.372	73	68
483.117	483.372	82	70
483.2	483.372	61	77
483.283	483.372	65	71
483.372	483.911	52	80
483.455	483.911	79	71
483.537	483.911	76	73
483.62	483.911	84	70
483.702	483.911	64	77
483.784	483.911	67	73
483.876	484.411	53	83
483.959	484.411	80	69
484.041	484.411	77	73
484.123	484.411	85	72
484.206	484.411	65	77
484.288	484.411	68	72
484.379	484.926	55	84
484.461	484.926	82	74
484.544	484.926	79	78
484.626	484.926	88	74
484.709	484.926	67	78
484.791	484.926	70	74
484.883	485.386	56	85
484.966	485.386	84	75
485.048	485.386	80	77
485.131	485.386	89	75
485.214	485.386	68	77
485.296	485.386	72	73
485.386	485.926	58	86
485.469	485.926	85	78
485.551	485.926	82	79
485.634	485.926	91	74
485.717	485.926	70	81
485.799	485.926	73	77
485.891	486.427	60	89
485.974	486.427	87	74
486.056	486.427	84	79
486.139	486.427	93	74
486.221	486.427	72	80
486.304	486.427	75	78
486.395	486.9	61	89
486.478	486.944	89	79
486.56	486.944	85	80
486.643	486.944	94	79
486.725	486.944	73	83
486.808	486.944	77	80
486.9	487.445	61	92
486.984	487.445	89	81
487.07	487.445	85	83
487.158	487.445	94	80
487.247	487.445	73	84
487.339	487.445	77	80
487.445	488.45	41	108
487.531	488.45	53	100
487.618	488.45	56	92
487.703	487.958	89	78
487.789	488.042	85	82
487.873	488.45	94	79
487.958	488.45	89	89
488.042	488.45	85	83
488.126	488.375	82	78
488.209	488.45	77	78
488.292	488.45	73	82
488.375	488.458	82	79
488.458	489.459	77	86
488.54	489.459	73	82
488.623	488.872	70	80
488.706	488.955	65	74
488.789	489.039	61	78
488.872	489.459	70	73
488.955	489.459	65	81
489.039	489.459	61	78
489.122	489.375	58	74
489.206	489.459	53	74
489.29	489.459	49	74
489.375	489.459	58	74
489.459	489.796	53	79
489.544	489.712	49	71
489.628	490.494	46	74
489.712	490.494	49	71
489.796	490.494	53	74
489.88	490.494	58	72
489.964	490.494	61	80
490.047	490.494	65	75
490.131	490.465	70	75
490.214	490.381	73	75
490.297	490.494	77	79
490.381	490.494	73	73
490.465	491.521	70	80
490.549	491.521	73	74
490.633	491.521	77	79
490.717	490.886	82	74
490.802	491.056	85	82
490.886	491.406	82	75
490.971	491.229	89	83
491.056	491.317	85	78
491.142	491.521	94	83
491.229	491.521	89	78
491.317	491.521	85	80
491.406	491.521	82	75
491.521	492.525	62	105
491.608	492.525	74	100
491.693	492.45	77	92
491.779	492.033	92	78
491.864	492.117	89	85
491.949	492.525	95	81
492.033	492.525	92	92
492.117	492.525	89	80
492.201	492.525	86	81
492.285	492.525	83	77
492.368	492.525	80	81
492.45	492.533	77	79
492.533	493.527	83	85
492.616	493.527	80	82
492.698	493.527	77	78
492.781	493.029	74	74
492.864	493.111	71	75
492.946	493.194	68	73
493.029	493.527	74	81
493.111	493.527	71	78
493.194	493.527	68	74
493.277	493.527	65	74
493.36	493.527	62	74
493.443	493.527	59	74
493.527	494.566	68	79
493.611	494.566	65	71
493.695	494.522	62	74
493.778	494.44	59	71
493.862	494.357	56	74
493.945	494.275	53	72
494.028	494.193	50	80
494.11	494.566	47	75
494.193	494.566	50	75
494.275	494.566	53	75
494.357	494.566	56	79
494.44	494.566	59	73
494.522	495.659	62	80
494.605	495.659	65	74
494.689	495.659	68	79
494.772	495.659	71	74
494.856	495.659	74	82
494.941	495.659	77	75
495.026	495.659	80	83
495.113	495.659	83	78
495.201	495.659	86	83
495.291	495.659	89	78
495.381	495.659	92	80
495.473	495.659	95	75
495.659	496.83	36	122
495.977	496.313	92	78
496.083	496.402	89	82
496.21	496.83	96	79
496.313	496.83	92	92
496.402	496.83	89	83
496.49	496.752	84	82
496.578	496.83	80	78
496.665	496.83	77	82
496.752	496.838	84	79
496.838	497.853	80	86
496.924	497.853	77	82
497.01	497.266	72	80
497.096	497.35	68	74
497.181	497.434	65	78
497.266	497.853	72	73
497.35	497.853	68	81
497.434	497.853	65	78
497.518	497.769	60	74
497.601	497.853	56	74
497.685	497.853	53	74
497.769	497.853	60	74
497.853	498.691	56	79
497.938	498.608	53	71
498.022	498.525	48	74
498.107	498.442	44	71
498.191	498.358	41	74
498.274	498.884	36	72
498.358	498.884	41	80
498.442	498.884	44	75
498.525	498.884	48	75
498.608	498.884	53	75
498.691	498.884	56	79
498.775	498.884	60	73
498.859	499.889	65	80
498.943	499.889	68	74
499.027	499.889	72	79
499.111	499.889	77	74
499.196	499.889	80	78
499.28	499.8	84	75
499.365	499.711	89	83
499.45	499.623	92	78
499.536	499.889	96	83
499.623	499.889	92	78
499.711	499.889	89	80
499.8	499.889	84	75
499.889	500.9	36	82
499.976	500.9	48	72
500.062	500.9	52	73
500.148	500.9	55	74
500.148	500.404	91	72
500.234	500.9	58	74
500.234	500.489	88	77
500.319	500.9	94	73
500.404	500.9	91	78
500.489	500.9	88	77
500.573	500.9	84	74
500.657	500.9	82	72
500.741	500.9	79	77
500.824	500.908	76	73
500.908	501.913	72	78
500.991	501.913	70	75
501.075	501.913	67	71
501.158	501.913	64	70
501.242	501.913	60	73
501.325	501.913	58	69
501.409	501.913	55	74
501.493	501.913	52	69
501.577	501.913	48	71
501.661	501.913	46	70
501.745	501.913	43	70
501.829	501.913	40	70
501.913	502.947	36	75
501.998	502.947	40	67
502.082	502.947	43	70
502.166	502.947	46	67
502.25	502.947	48	70
502.334	502.947	52	68
502.418	502.947	55	76
502.502	502.947	58	71
502.585	502.947	60	71
502.668	502.947	64	71
502.751	502.947	67	73
502.835	502.947	70	69
502.919	503.256	72	73
503.003	503.171	76	66
503.087	503.427	79	70
503.171	503.341	76	66
503.256	503.987	72	70
503.341	503.514	76	66
503.427	503.691	79	70
503.514	503.781	76	60
503.602	503.987	82	65
503.691	503.872	79	58
503.781	503.987	76	63
503.872	503.987	79	56
503.987	505.579	82	57
504.632	504.916	49	37
504.916	505.207	49	35
505.207	505.579	49	35
505.509	507.015	48	36
506.146	506.429	76	46
506.146	506.429	79	46
506.429	506.713	76	42
506.429	506.713	79	42
506.713	507.015	76	46
506.713	507.015	79	46
507.015	508.637	79	46
507.015	508.637	82	46
507.688	507.973	49	35
507.973	508.265	49	33
508.265	508.637	49	33
508.569	510.312	48	34
509.279	509.579	64	39
509.279	509.579	67	39
509.579	509.879	64	37
509.579	509.879	67	37
509.879	510.312	64	37
509.879	510.191	67	37
510.191	512.105	67	41
510.191	512.105	70	41
511.079	511.423	37	32
511.423	511.771	37	30
511.771	512.125	37	30
512.125	513.274	36	31
513.23	513.603	37	31
513.603	513.975	37	29
513.975	514.347	37	29
514.347	515.464	36	29
515.464	515.87	37	21
515.464	515.87	67	32
515.464	515.87	70	32
515.464	515.87	76	32
515.87	516.298	37	24
515.87	516.298	67	36
515.87	516.298	70	36
515.87	516.298	76	36
516.298	517.01	37	26
516.298	516.859	67	39
516.298	516.859	70	39
516.298	516.859	76	39
516.859	518.438	36	28
516.859	518.438	67	43
516.859	518.438	70	43
516.859	518.438	76	43
518.438	518.605	36	70
518.438	518.605	48	83
518.438	518.605	76	87
518.438	518.605	79	87
518.438	518.605	82	87
518.438	518.605	84	87
518.438	518.605	88	102
518.605	518.772	36	65
518.605	518.772	48	78
518.605	518.772	76	78
518.605	518.772	79	78
518.605	518.772	82	78
518.605	518.772	84	78
518.605	518.772	88	93
518.772	518.939	36	65
518.772	518.939	48	78
518.772	518.939	76	78
518.772	518.939	79	78
518.772	518.939	82	78
518.772	518.939	84	78
518.772	518.939	88	93
518.939	519.834	29	71
518.939	519.834	41	85
518.939	519.834	77	87
518.939	519.834	80	87
518.939	519.834	84	87
518.939	519.834	89	102
519.107	519.371	60	30
519.107	519.371	65	30
519.239	519.503	56	37
519.371	519.636	60	32
519.371	519.636	65	42
519.503	519.768	56	37
519.636	519.834	60	30
519.636	519.834	65	37
519.768	520.033	56	42
519.9	520.165	60	30
519.9	520.165	65	37
520.033	520.297	56	37
520.165	520.436	60	32
520.165	520.436	65	42
520.165	520.608	68	66
520.297	520.594	56	37
520.436	520.608	60	31
520.436	520.608	65	41
520.506	520.608	72	58
520.594	520.844	56	42
520.594	521.301	77	63
520.719	520.969	60	30
520.719	520.969	65	36
520.844	521.1	56	37
520.969	521.234	60	32
520.969	521.234	65	42
520.969	521.4	80	68
521.1	521.4	56	37
521.234	521.4	60	30
521.234	521.4	65	37
521.301	521.4	77	60
521.378	521.637	58	42
521.378	522.099	76	63
521.509	521.764	60	30
521.509	521.764	67	37
521.637	521.894	58	37
521.764	522.031	60	32
521.764	522.031	67	42
521.764	522.208	79	68
521.894	522.208	58	37
522.031	522.208	60	31
522.031	522.208	67	41
522.099	522.208	76	60
522.182	522.432	56	42
522.182	522.965	77	63
522.307	522.557	60	30
522.307	522.557	65	36
522.432	522.685	56	37
522.557	522.814	60	32
522.557	522.814	65	42
522.557	523.656	72	62
522.685	522.943	56	37
522.814	522.965	60	30
522.814	522.965	65	37
522.943	523.2	56	42
523.071	523.328	60	30
523.071	523.328	65	37
523.2	523.457	56	42
523.328	523.59	60	34
523.328	523.59	65	44
523.328	523.759	68	60
523.328	523.759	80	71
523.457	523.744	56	40
523.59	523.759	60	33
523.59	523.759	65	44
523.656	523.759	72	52
523.656	523.759	84	62
523.744	523.994	56	46
523.744	524.451	77	61
523.744	524.451	89	73
523.869	524.119	60	34
523.869	524.119	65	40
523.869	524.119	68	40
523.994	524.25	56	42
524.119	524.384	60	36
524.119	524.384	65	47
524.119	524.384	68	47
524.119	524.559	80	65
524.119	524.559	92	78
524.25	524.559	56	43
524.384	524.559	60	36
524.384	524.559	65	44
524.384	524.559	68	44
524.451	524.559	77	59
524.451	524.559	89	71
524.531	524.791	58	49
524.531	525.251	76	64
524.531	525.251	88	76
524.664	524.919	60	36
524.664	524.919	64	36
524.664	524.919	67	45
524.791	525.049	58	46
524.919	525.184	60	39
524.919	525.184	64	39
524.919	525.184	67	51
524.919	525.355	79	68
524.919	525.355	91	82
525.049	525.355	58	47
525.184	525.355	60	38
525.184	525.355	64	38
525.184	525.355	67	51
525.251	525.355	76	65
525.251	525.355	88	77
525.344	525.594	57	55
525.344	526.502	78	82
525.344	526.502	90	99
525.469	525.719	60	39
525.469	525.719	63	48
525.469	525.719	66	48
525.594	525.848	57	49
525.719	525.977	60	41
525.719	525.977	63	55
525.719	525.977	66	55
525.719	526.502	72	63
525.719	526.502	84	79
525.848	526.105	57	49
525.977	526.234	60	39
525.977	526.234	63	49
525.977	526.234	66	49
526.105	526.362	57	55
526.234	526.491	60	39
526.234	526.491	63	49
526.234	526.491	66	49
526.362	526.502	57	55
526.491	526.756	60	40
526.491	526.756	63	40
526.491	526.756	66	53
526.491	526.943	75	70
526.491	526.943	87	84
526.621	526.916	57	48
526.756	526.943	60	39
526.756	526.943	63	39
526.756	526.943	66	52
526.823	526.943	72	66
526.823	526.943	84	78
526.916	527.166	57	55
526.916	527.304	77	82
526.916	527.304	89	99
527.041	527.304	60	39
527.041	527.304	63	48
527.041	527.292	65	48
527.166	527.304	57	49
527.292	527.549	61	55
527.292	527.549	65	55
527.292	528.075	70	63
527.292	528.075	82	79
527.42	527.677	58	49
527.549	527.806	61	49
527.549	527.806	65	49
527.677	527.935	58	55
527.806	528.075	61	49
527.806	528.075	65	49
527.935	528.075	58	55
528.063	528.328	64	40
528.063	528.328	67	53
528.063	528.515	73	70
528.063	528.515	85	84
528.193	528.515	58	48
528.328	528.515	64	39
528.328	528.515	67	52
528.395	528.515	70	66
528.395	528.515	82	78
528.488	528.739	48	55
528.488	528.875	68	75
528.488	528.875	80	90
528.613	528.864	53	39
528.613	528.864	56	48
528.613	528.864	60	48
528.739	528.875	48	49
528.864	529.128	53	40
528.864	529.128	56	40
528.864	529.128	60	53
528.864	529.31	72	70
528.864	529.31	84	84
528.994	529.31	48	48
529.128	529.31	53	39
529.128	529.31	56	39
529.128	529.31	60	52
529.196	529.31	68	66
529.196	529.31	80	78
529.289	529.539	46	55
529.289	529.665	67	75
529.289	529.665	79	90
529.414	529.665	48	39
529.414	529.665	52	48
529.414	529.665	55	48
529.539	529.665	46	49
529.665	529.93	48	39
529.665	529.93	52	39
529.665	529.93	55	51
529.665	530.112	79	77
529.665	530.112	91	92
529.795	530.112	46	47
529.93	530.112	48	38
529.93	530.112	52	38
529.93	530.112	55	50
530.001	530.112	76	72
530.001	530.112	88	85
530.086	530.473	78	84
530.086	530.473	90	103
530.096	530.336	45	53
530.221	530.472	51	38
530.221	530.472	54	47
530.221	530.472	57	47
530.336	530.473	45	48
530.472	530.729	51	53
530.472	530.729	54	53
530.472	530.729	57	53
530.472	531.255	72	69
530.472	531.255	84	86
530.6	530.857	45	48
530.729	530.986	51	48
530.729	530.986	54	48
530.729	530.986	57	48
530.857	531.115	45	53
530.986	531.243	51	48
530.986	531.243	54	48
530.986	531.243	57	48
531.115	531.255	45	53
531.243	531.508	51	45
531.243	531.508	54	45
531.243	531.508	57	59
531.243	531.695	75	77
531.243	531.695	87	92
531.373	531.668	45	49
531.508	531.695	51	39
531.508	531.695	54	39
531.508	531.695	57	55
531.575	531.695	72	72
531.575	531.695	84	85
531.668	531.919	45	57
531.668	532.056	77	84
531.668	532.056	89	103
531.794	532.056	51	39
531.794	532.044	53	49
531.794	532.056	57	49
531.919	532.056	45	49
532.044	532.301	49	57
532.044	532.301	53	57
532.044	532.301	58	57
532.044	532.827	70	69
532.044	532.827	82	86
532.172	532.43	46	49
532.301	532.558	49	49
532.301	532.558	53	49
532.301	532.558	58	49
532.43	532.687	46	57
532.558	532.827	49	49
532.558	532.827	53	49
532.558	532.815	58	49
532.687	532.827	46	57
532.815	533.08	52	40
532.815	533.08	55	56
532.815	533.08	58	56
532.815	533.267	73	77
532.815	533.267	85	92
532.945	533.267	46	49
533.08	533.267	52	39
533.08	533.267	55	55
533.08	533.267	58	55
533.147	533.267	70	72
533.147	533.267	82	85
533.241	533.491	48	57
533.241	533.627	68	82
533.241	533.627	80	99
533.366	533.616	53	39
533.366	533.616	56	49
533.366	533.616	60	49
533.491	533.627	48	49
533.616	533.88	53	40
533.616	533.88	56	40
533.616	533.88	60	56
533.616	534.068	72	77
533.616	534.068	84	92
533.746	534.041	48	49
533.88	534.068	53	39
533.88	534.068	56	39
533.88	534.068	60	55
533.948	534.068	68	72
533.948	534.068	80	85
534.041	534.291	48	57
534.041	534.417	67	82
534.041	534.417	79	99
534.166	534.417	52	49
534.166	534.417	55	39
534.166	534.417	60	49
534.291	534.417	48	49
534.417	534.682	52	37
534.417	534.682	55	37
534.417	534.682	60	49
534.417	534.682	72	84
534.417	534.682	84	101
534.547	534.842	48	44
534.682	534.842	52	36
534.682	534.842	55	36
534.682	534.842	60	48
534.682	534.842	72	80
534.682	534.842	84	95
534.842	535.36	41	63
534.842	535.36	44	63
534.842	535.36	48	63
534.842	535.36	53	75
534.842	534.969	72	87
534.842	535.36	84	105
534.969	535.097	60	59
534.969	535.097	65	59
534.969	535.097	68	66
534.969	535.097	72	79
535.097	535.225	60	59
535.097	535.225	65	59
535.097	535.225	68	66
535.097	535.225	72	79
535.225	535.617	60	62
535.225	535.617	65	62
535.225	535.617	68	69
535.225	535.617	72	84
535.36	535.479	53	79
535.36	535.479	56	79
535.489	535.606	53	76
535.489	535.606	56	76
535.617	536.146	52	80
535.617	536.146	55	80
535.757	535.885	60	59
535.757	535.885	64	66
535.757	535.885	67	66
535.757	535.885	72	79
535.885	536.013	60	59
535.885	536.146	64	66
535.885	536.013	67	66
535.885	536.013	72	79
536.013	536.402	60	62
536.013	536.402	67	62
536.013	536.402	70	69
536.013	536.402	72	84
536.146	536.263	55	79
536.146	536.263	58	79
536.274	536.391	55	76
536.274	536.391	58	76
536.402	536.661	53	80
536.402	536.661	56	80
536.534	536.651	60	59
536.534	536.651	65	59
536.534	536.651	68	66
536.534	536.651	72	79
536.661	536.779	60	59
536.661	536.779	65	59
536.661	536.779	68	66
536.661	536.779	72	79
536.789	537.18	60	62
536.789	537.18	65	62
536.789	537.18	68	69
536.789	537.18	72	84
536.923	537.041	53	79
536.923	537.041	56	79
537.052	537.169	53	76
537.052	537.169	56	76
537.18	537.711	52	80
537.18	537.711	55	80
537.32	537.447	60	59
537.32	537.447	64	66
537.32	537.447	67	66
537.32	537.447	72	79
537.447	537.575	60	59
537.447	537.711	64	66
537.447	537.575	67	66
537.447	537.575	72	79
537.575	538.106	60	62
537.575	538.369	67	62
537.575	538.375	70	69
537.575	538.106	72	84
537.711	537.828	55	79
537.711	537.828	58	79
537.839	537.965	55	76
537.839	537.965	58	76
537.977	538.235	53	66
537.977	538.235	56	80
538.106	538.375	60	65
538.106	538.369	65	65
538.106	538.375	68	65
538.106	538.375	72	77
538.235	538.375	53	63
538.235	538.375	56	76
538.369	538.627	61	73
538.369	538.627	65	73
538.369	538.627	67	73
538.369	538.627	73	85
538.498	538.762	46	59
538.498	538.762	53	59
538.498	538.762	55	73
538.627	538.762	61	65
538.627	538.762	65	65
538.627	538.762	67	65
538.627	538.762	73	77
538.762	539.017	48	66
538.762	539.017	53	66
538.762	539.017	56	80
538.889	539.143	60	69
538.889	539.143	65	69
538.889	539.143	68	69
538.889	539.143	72	83
539.017	539.143	48	63
539.017	539.143	53	63
539.017	539.143	56	76
539.149	539.407	60	70
539.149	539.407	64	70
539.149	539.407	67	70
539.149	539.407	72	82
539.278	539.558	48	63
539.278	539.558	52	63
539.278	539.558	55	76
539.407	539.558	60	59
539.407	539.558	64	59
539.407	539.558	67	59
539.407	539.558	72	71
539.558	540.077	41	61
539.558	540.077	44	61
539.558	539.686	48	61
539.558	539.686	53	73
539.558	539.686	60	76
539.558	540.077	65	76
539.558	540.077	68	76
539.558	540.077	72	92
539.686	539.814	48	59
539.686	539.814	53	59
539.686	539.814	56	66
539.686	539.814	60	79
539.814	539.941	48	59
539.814	539.941	53	59
539.814	539.941	56	66
539.814	539.941	60	79
539.941	540.333	48	62
539.941	540.333	53	62
539.941	540.333	56	69
539.941	540.333	60	84
540.077	540.195	41	75
540.077	540.195	44	75
540.206	540.323	41	72
540.206	540.323	44	72
540.333	540.863	40	76
540.333	540.863	43	76
540.473	540.601	48	59
540.473	540.601	52	66
540.473	540.601	55	66
540.473	540.601	60	79
540.601	540.729	48	59
540.601	540.863	52	66
540.601	540.729	55	66
540.601	540.729	60	79
540.729	541.118	48	62
540.729	541.118	55	62
540.729	541.118	58	69
540.729	541.118	60	84
540.863	540.98	43	75
540.863	540.98	46	75
540.99	541.108	43	72
540.99	541.108	46	72
541.118	541.64	41	76
541.118	541.64	44	76
541.25	541.378	48	59
541.25	541.378	53	59
541.25	541.378	56	66
541.25	541.378	60	79
541.378	541.506	48	59
541.378	541.506	53	59
541.378	541.506	56	66
541.378	541.506	60	79
541.506	541.896	48	62
541.506	541.896	53	62
541.506	541.896	56	69
541.506	541.896	60	84
541.64	541.758	41	75
541.64	541.758	44	75
541.768	541.885	41	72
541.768	541.885	44	72
541.896	542.427	40	76
541.896	542.427	43	76
542.036	542.164	48	59
542.036	542.164	52	66
542.036	542.164	55	66
542.036	542.164	60	79
542.164	542.292	48	59
542.164	542.427	52	66
542.164	542.292	55	66
542.164	542.292	60	79
542.292	542.822	48	62
542.292	543.086	55	62
542.292	543.092	58	69
542.292	542.822	60	84
542.427	542.545	43	75
542.427	542.545	46	75
542.555	542.682	43	72
542.555	542.682	46	72
542.693	542.951	41	66
542.693	542.951	44	79
542.822	543.092	48	63
542.822	543.086	53	63
542.822	543.092	56	63
542.822	543.092	60	81
542.951	543.092	41	59
542.951	543.092	44	71
543.086	543.343	49	69
543.086	543.343	53	69
543.086	543.343	55	69
543.086	543.343	61	89
543.215	543.478	34	55
543.215	543.478	41	55
543.215	543.478	43	66
543.343	543.478	49	63
543.343	543.478	53	63
543.343	543.478	55	63
543.343	543.478	61	81
543.478	543.733	36	62
543.478	543.733	41	62
543.478	543.733	44	75
543.606	543.859	48	66
543.606	543.859	53	66
543.606	543.859	56	66
543.606	543.859	60	87
543.733	543.859	36	59
543.733	543.859	41	59
543.733	543.859	44	71
543.865	544.123	48	66
543.865	544.123	52	66
543.865	544.123	55	66
543.865	544.123	60	87
543.994	544.267	36	59
543.994	544.267	40	59
543.994	544.267	43	71
544.123	544.267	48	63
544.123	544.267	52	63
544.123	544.267	55	63
544.123	544.267	60	81
544.267	544.525	32	62
544.267	544.525	36	62
544.267	544.525	41	62
544.267	544.525	44	75
544.396	544.697	60	63
544.396	544.66	65	63
544.396	544.697	68	63
544.396	544.697	72	81
544.525	544.697	32	59
544.525	544.697	36	59
544.525	544.697	41	59
544.525	544.697	44	71
544.66	544.917	61	69
544.66	544.917	65	69
544.66	544.917	67	69
544.66	544.917	73	89
544.788	545.052	34	55
544.788	545.052	41	55
544.788	545.052	43	60
544.788	545.052	46	66
544.917	545.052	61	63
544.917	545.052	65	63
544.917	545.052	67	63
544.917	545.052	73	81
545.052	545.307	36	62
545.052	545.307	41	62
545.052	545.307	44	69
545.052	545.307	48	75
545.18	545.433	60	66
545.18	545.433	65	66
545.18	545.433	68	66
545.18	545.433	72	87
545.307	545.433	36	59
545.307	545.433	41	59
545.307	545.433	44	66
545.307	545.433	48	71
545.439	545.697	60	66
545.439	545.697	64	66
545.439	545.697	67	66
545.439	545.697	72	87
545.568	545.844	34	59
545.568	545.844	40	59
545.568	545.844	43	66
545.568	545.844	46	71
545.697	545.844	60	63
545.697	545.844	64	63
545.697	545.844	67	63
545.697	545.844	72	81
545.844	546.11	32	65
545.844	546.11	36	65
545.844	546.11	41	65
545.844	546.11	44	77
545.977	546.232	72	72
545.977	546.232	77	72
545.977	546.232	80	72
545.977	546.232	84	93
546.11	546.24	32	62
546.11	546.24	36	62
546.11	546.24	41	62
546.11	546.24	44	74
546.252	546.523	73	79
546.252	546.523	77	79
546.252	546.523	79	79
546.252	546.523	85	101
546.388	546.665	34	57
546.388	546.665	41	57
546.388	546.665	43	63
546.388	546.665	46	69
546.523	546.665	73	72
546.523	546.665	77	72
546.523	546.665	79	72
546.523	546.665	85	93
546.665	546.945	36	65
546.665	546.945	41	65
546.665	546.945	44	72
546.665	546.945	48	77
546.805	547.091	72	76
546.805	547.091	77	76
546.805	547.091	80	76
546.805	547.091	84	99
546.945	547.091	36	62
546.945	547.091	41	62
546.945	547.091	44	69
546.945	547.091	48	74
547.098	547.381	72	75
547.098	547.381	76	75
547.098	547.381	79	75
547.098	547.381	84	99
547.239	547.548	36	62
547.239	547.548	40	62
547.239	547.548	43	69
547.239	547.548	48	74
547.381	547.548	72	72
547.381	547.548	76	72
547.381	547.548	79	72
547.381	547.548	84	93
547.548	548.011	29	82
547.548	548.011	41	110
547.548	547.7	60	64
547.624	547.775	56	55
547.7	547.851	60	59
547.775	547.926	56	50
547.851	548.002	60	55
547.926	548.011	56	48
548.002	548.153	60	43
548.002	548.872	68	62
548.078	548.228	56	37
548.153	548.303	60	43
548.228	548.377	56	37
548.303	548.47	60	43
548.377	548.536	56	36
548.377	548.872	72	54
548.47	548.602	60	43
548.47	548.872	77	59
548.536	548.669	56	36
548.602	548.735	60	42
548.669	548.802	56	36
548.735	548.868	60	42
548.802	548.872	56	35
548.868	549.001	60	42
548.868	549.725	80	60
548.934	549.074	56	35
549.001	549.149	60	41
549.074	549.224	56	35
549.149	549.316	60	41
549.224	549.386	56	35
549.224	549.717	84	52
549.316	549.452	60	41
549.316	549.725	89	56
549.386	549.518	56	35
549.452	549.585	60	41
549.518	549.651	56	34
549.585	549.717	60	40
549.651	549.725	56	34
549.717	549.85	60	40
549.717	550.571	84	58
549.784	549.924	56	34
549.85	549.998	60	40
549.924	550.073	56	33
549.998	550.165	60	40
550.073	550.235	56	33
550.073	550.571	80	50
550.165	550.301	60	40
550.165	550.571	77	54
550.235	550.368	56	33
550.301	550.434	60	39
550.368	550.5	56	33
550.434	550.567	60	39
550.5	550.571	56	33
550.567	550.7	60	39
550.567	551.419	72	56
550.633	550.773	56	32
550.7	550.848	60	38
550.773	550.923	56	32
550.848	551.015	60	38
550.923	551.082	56	32
550.923	551.427	68	48
551.015	551.15	60	38
551.015	551.427	65	52
551.082	551.217	56	32
551.15	551.285	60	37
551.217	551.352	56	31
551.285	551.419	60	37
551.352	551.427	56	31
551.419	552.287	60	47
551.419	551.554	72	37
551.487	551.628	68	31
551.554	551.703	72	37
551.628	551.777	68	31
551.703	551.87	72	36
551.777	552.287	56	41
551.777	551.938	68	31
551.87	552.287	53	44
551.87	552.007	72	36
551.938	552.076	68	30
552.007	552.145	72	36
552.076	552.214	68	30
552.145	552.282	72	35
552.214	552.287	68	30
552.282	553.174	48	45
552.282	552.42	72	35
552.351	552.496	68	30
552.42	552.571	72	35
552.496	552.647	68	30
552.571	552.739	72	34
552.647	553.174	44	39
552.647	552.811	68	29
552.739	553.174	41	42
552.739	552.883	72	34
552.811	552.955	68	29
552.883	553.026	72	34
552.955	553.098	68	28
553.026	553.17	72	33
553.098	553.174	68	27
553.17	554.122	36	38
553.17	553.313	72	33
553.242	553.39	68	27
553.313	553.466	72	32
553.39	553.542	68	27
553.466	553.635	72	31
553.542	554.122	32	27
553.542	553.709	68	26
553.635	554.078	29	28
553.635	553.783	72	31
553.709	553.857	68	26
553.783	553.931	72	31
553.857	554.004	68	25
553.931	554.078	72	30
554.004	554.122	68	25
554.078	554.522	29	27
554.078	554.226	72	29
554.152	554.3	68	25
554.226	554.374	72	29
554.3	554.448	68	24
554.374	554.522	72	29
554.448	554.596	68	24
554.522	555.419	29	27
554.522	554.67	72	28
554.596	554.744	68	24
554.67	554.818	72	28
554.744	554.893	68	24
554.818	554.967	72	28
554.893	555.042	68	24
554.967	555.117	72	28
555.042	555.193	68	24
555.117	555.268	72	28
555.193	555.344	68	24
555.268	555.419	72	28
555.344	555.495	68	24
555.419	556.42	29	26
555.419	555.572	72	28
555.495	555.65	68	24
555.572	555.729	72	28
555.65	555.809	68	24
555.729	555.891	72	28
555.809	555.973	68	24
555.891	556.057	72	28
555.973	556.141	68	24
556.057	556.227	72	28
556.141	556.313	68	24
556.227	556.42	72	28
556.313	556.42	68	24
556.42	558.677	29	15
556.42	558.677	68	18
556.42	558.677	72	21
