# onset,offset,note,velocity
0.969083	1.235668	45.000000	38.000000
0.995462	1.245511	52.000000	42.000000
1.021842	1.147088	57.000000	46.000000
1.048221	1.245511	60.000000	49.000000
1.068016	1.245511	64.000000	49.000000
1.087811	1.245511	69.000000	54.000000
1.107606	1.245511	72.000000	59.000000
1.127400	1.245511	81.000000	68.000000
1.548279	1.634217	69.000000	54.000000
1.642036	1.760147	69.000000	64.000000
1.760147	1.878258	72.000000	60.000000
1.878258	1.991045	71.000000	64.000000
1.991045	2.103832	69.000000	60.000000
2.103832	2.343099	52.000000	40.000000
2.125665	2.352943	59.000000	43.000000
2.147499	2.254519	64.000000	47.000000
2.169332	2.352943	68.000000	50.000000
2.185707	2.352943	71.000000	51.000000
2.202082	2.352943	76.000000	55.000000
2.218457	2.352943	80.000000	59.000000
2.234831	2.352943	88.000000	66.000000
2.656542	2.742480	64.000000	54.000000
2.750299	2.868410	64.000000	64.000000
2.868410	2.986521	68.000000	60.000000
2.986521	3.099308	66.000000	64.000000
3.099308	3.212095	64.000000	60.000000
3.212095	3.451080	45.000000	37.000000
3.233888	3.460924	52.000000	40.000000
3.255681	3.362500	57.000000	44.000000
3.277474	3.460924	60.000000	47.000000
3.293808	3.460924	64.000000	49.000000
3.310143	3.460924	69.000000	53.000000
3.326478	3.460924	72.000000	57.000000
3.342812	3.460924	81.000000	66.000000
3.766240	3.852178	69.000000	54.000000
3.859996	3.978107	69.000000	64.000000
3.978107	4.096219	72.000000	60.000000
4.096219	4.214330	71.000000	64.000000
4.214330	4.332441	69.000000	60.000000
4.332441	4.577099	52.000000	43.000000
4.353630	4.587787	59.000000	41.000000
4.374820	4.480942	64.000000	46.000000
4.396009	4.587787	68.000000	50.000000
4.411901	4.587787	71.000000	54.000000
4.427794	4.587787	80.000000	57.000000
4.443686	4.587787	88.000000	61.000000
4.459578	4.972403	76.000000	71.000000
4.972403	5.100613	64.000000	69.000000
5.485228	5.726828	45.000000	33.000000
5.507021	5.736914	52.000000	36.000000
5.528814	5.636103	57.000000	37.000000
5.550607	5.736914	60.000000	40.000000
5.566942	5.736914	64.000000	41.000000
5.583277	5.736914	69.000000	45.000000
5.599611	5.736914	72.000000	47.000000
5.615946	5.736914	81.000000	51.000000
6.045676	6.131614	69.000000	40.000000
6.139433	6.257544	69.000000	48.000000
6.257544	6.375655	72.000000	45.000000
6.375655	6.488442	71.000000	48.000000
6.488442	6.601229	69.000000	45.000000
6.601229	6.840214	52.000000	32.000000
6.623022	6.850058	59.000000	35.000000
6.644815	6.751634	64.000000	37.000000
6.666608	6.850058	68.000000	40.000000
6.682943	6.850058	71.000000	40.000000
6.699277	6.850058	76.000000	44.000000
6.715612	6.850058	80.000000	46.000000
6.731947	6.850058	88.000000	49.000000
7.156259	7.242197	64.000000	40.000000
7.250016	7.368127	64.000000	48.000000
7.368127	7.486238	68.000000	45.000000
7.486238	7.599870	66.000000	48.000000
7.599870	7.713502	64.000000	45.000000
7.713502	7.952218	45.000000	32.000000
7.735241	7.962062	52.000000	35.000000
7.756980	7.863638	57.000000	37.000000
7.778720	7.962062	60.000000	40.000000
7.795028	7.962062	64.000000	40.000000
7.811335	7.962062	69.000000	44.000000
7.827643	7.962062	72.000000	46.000000
7.843951	7.962062	81.000000	49.000000
8.268263	8.354201	69.000000	40.000000
8.362020	8.480131	69.000000	48.000000
8.480131	8.598242	72.000000	45.000000
8.598242	8.716353	71.000000	48.000000
8.716353	8.834465	69.000000	45.000000
8.834465	9.076963	52.000000	32.000000
8.855292	9.087652	59.000000	35.000000
8.876119	8.980806	64.000000	37.000000
8.896947	9.087652	68.000000	40.000000
8.912571	9.087652	71.000000	40.000000
8.928194	9.087652	80.000000	46.000000
8.943818	9.087652	88.000000	48.000000
8.959442	9.472268	76.000000	59.000000
9.472268	9.600477	64.000000	59.000000
9.985093	10.217399	45.000000	38.000000
10.006832	10.226653	52.000000	41.000000
10.028571	10.134063	57.000000	45.000000
10.050311	10.226653	61.000000	48.000000
10.066619	10.226653	76.000000	52.000000
10.082926	10.226653	81.000000	56.000000
10.099234	10.226653	85.000000	59.000000
10.115542	10.226653	93.000000	68.000000
10.520797	10.606735	81.000000	54.000000
10.614554	10.732665	81.000000	64.000000
10.732665	10.846297	82.000000	60.000000
10.846297	10.959929	81.000000	64.000000
10.959929	11.073561	79.000000	60.000000
11.073561	11.308429	50.000000	40.000000
11.094750	11.318272	57.000000	42.000000
11.115940	11.219849	62.000000	45.000000
11.137129	11.318272	65.000000	48.000000
11.152887	11.318272	69.000000	51.000000
11.168645	11.318272	77.000000	55.000000
11.184403	11.318272	81.000000	58.000000
11.200161	11.318272	89.000000	68.000000
11.624473	11.710411	74.000000	54.000000
11.718230	11.831862	74.000000	64.000000
11.831862	11.945494	77.000000	60.000000
11.945494	12.059126	76.000000	64.000000
12.059126	12.172758	74.000000	60.000000
12.172758	12.411743	43.000000	39.000000
12.194551	12.421586	50.000000	42.000000
12.216343	12.323163	55.000000	46.000000
12.238136	12.421586	59.000000	50.000000
12.254471	12.421586	74.000000	50.000000
12.270806	12.421586	79.000000	54.000000
12.287140	12.421586	83.000000	58.000000
12.303475	12.421586	91.000000	68.000000
12.722731	12.808670	79.000000	54.000000
12.816488	12.929275	79.000000	64.000000
12.929275	13.042062	81.000000	60.000000
13.042062	13.154849	79.000000	64.000000
13.154849	13.267636	77.000000	60.000000
13.267636	13.501431	48.000000	44.000000
13.288557	13.511275	55.000000	44.000000
13.309478	13.412851	60.000000	47.000000
13.330400	13.511275	64.000000	50.000000
13.346091	13.511275	67.000000	50.000000
13.361782	13.511275	76.000000	54.000000
13.377473	13.511275	79.000000	58.000000
13.393163	13.511275	88.000000	68.000000
13.817771	13.903709	72.000000	54.000000
13.911528	14.029639	72.000000	57.000000
14.029639	14.147750	76.000000	54.000000
14.147750	14.259692	74.000000	56.000000
14.259692	14.371634	72.000000	53.000000
14.371634	14.610351	50.000000	37.000000
14.393373	14.620194	53.000000	39.000000
14.415113	14.521771	59.000000	42.000000
14.436852	14.620194	65.000000	44.000000
14.453160	14.620194	71.000000	44.000000
14.469468	14.620194	77.000000	47.000000
14.485775	14.620194	83.000000	50.000000
14.502083	14.620194	89.000000	59.000000
14.926986	15.012924	71.000000	45.000000
15.020742	15.137928	71.000000	53.000000
15.137928	15.255114	74.000000	50.000000
15.255114	15.372300	72.000000	53.000000
15.372300	15.489486	71.000000	49.000000
15.489486	15.729061	48.000000	36.000000
15.533246	15.640481	60.000000	40.000000
15.555133	15.738904	64.000000	43.000000
15.571548	15.738904	69.000000	41.000000
15.587963	15.738904	76.000000	44.000000
15.604378	15.738904	81.000000	47.000000
15.620793	15.738904	88.000000	54.000000
16.046916	16.132854	69.000000	45.000000
16.140673	16.258784	69.000000	54.000000
16.258784	16.376895	72.000000	50.000000
16.376895	16.495006	71.000000	54.000000
16.495006	16.639939	69.000000	50.000000
16.639939	17.152684	65.000000	58.000000
16.639939	17.152684	53.000000	49.000000
17.018761	17.152684	75.000000	45.000000
17.018761	17.152684	63.000000	40.000000
17.018761	17.152684	57.000000	40.000000
17.152684	17.727442	64.000000	52.000000
17.152684	17.727442	52.000000	45.000000
17.286607	17.420530	76.000000	45.000000
17.420530	17.550966	74.000000	52.000000
17.550966	17.727442	71.000000	45.000000
17.550966	17.727442	62.000000	37.000000
17.550966	17.727442	56.000000	37.000000
17.727442	18.260772	64.000000	51.000000
17.727442	18.260772	69.000000	51.000000
17.727442	18.260772	60.000000	45.000000
17.727442	18.260772	57.000000	45.000000
18.260772	18.394105	81.000000	45.000000
18.260772	18.394105	72.000000	45.000000
18.260772	18.394105	69.000000	37.000000
18.260772	18.394105	64.000000	37.000000
18.794103	19.086290	45.000000	33.000000
18.823862	19.096616	52.000000	36.000000
18.853622	18.993311	57.000000	37.000000
18.883381	19.096616	61.000000	40.000000
18.905697	19.096616	76.000000	41.000000
18.928013	19.096616	81.000000	45.000000
18.950329	19.096616	85.000000	47.000000
18.972645	19.096616	93.000000	51.000000
19.402616	19.466869	81.000000	40.000000
19.472716	19.593201	81.000000	48.000000
19.472716	19.713686	61.000000	30.000000
19.472716	19.713686	64.000000	30.000000
19.472716	19.713686	69.000000	36.000000
19.593201	19.713686	82.000000	45.000000
19.713686	19.834171	81.000000	48.000000
19.834171	19.954656	79.000000	45.000000
19.954656	20.247794	50.000000	33.000000
19.999301	20.258215	57.000000	36.000000
20.043946	20.258215	65.000000	40.000000
20.066262	20.258215	69.000000	41.000000
20.088578	20.258215	77.000000	45.000000
20.110894	20.258215	81.000000	47.000000
20.133210	20.258215	89.000000	51.000000
20.560446	20.624699	74.000000	40.000000
20.630546	20.749582	74.000000	48.000000
20.630546	20.868632	62.000000	30.000000
20.630546	20.868632	65.000000	30.000000
20.630546	20.868632	69.000000	36.000000
20.749582	20.868632	77.000000	45.000000
20.868632	20.987682	76.000000	48.000000
20.987682	21.106719	74.000000	45.000000
21.106719	21.400340	43.000000	33.000000
21.151364	21.410801	50.000000	36.000000
21.196010	21.410801	59.000000	40.000000
21.218326	21.410801	74.000000	41.000000
21.240642	21.410801	79.000000	45.000000
21.262958	21.410801	83.000000	47.000000
21.285274	21.410801	91.000000	51.000000
21.716989	21.784393	79.000000	40.000000
21.790522	21.910524	79.000000	48.000000
21.790522	22.030526	59.000000	30.000000
21.790522	22.030526	62.000000	30.000000
21.790522	22.030526	67.000000	36.000000
21.910524	22.030526	81.000000	45.000000
22.030526	22.150528	79.000000	48.000000
22.150528	22.270530	77.000000	45.000000
22.270530	22.564634	48.000000	33.000000
22.315175	22.575135	55.000000	36.000000
22.359821	22.575135	64.000000	40.000000
22.382137	22.575135	67.000000	41.000000
22.404453	22.575135	76.000000	45.000000
22.426769	22.575135	79.000000	47.000000
22.449085	22.575135	88.000000	51.000000
22.876200	22.938414	72.000000	40.000000
22.944073	23.062185	72.000000	52.000000
22.944073	23.180296	64.000000	33.000000
22.944073	23.180296	67.000000	39.000000
23.062185	23.180296	76.000000	49.000000
23.180296	23.298407	74.000000	52.000000
23.298407	23.416518	72.000000	49.000000
23.416518	23.711105	50.000000	36.000000
23.461150	23.616168	58.000000	40.000000
23.505795	23.721660	65.000000	44.000000
23.550441	23.721660	70.000000	45.000000
23.572757	23.721660	77.000000	49.000000
23.595073	23.721660	89.000000	56.000000
24.016864	24.073217	70.000000	44.000000
24.078340	24.196451	70.000000	52.000000
24.078340	24.314562	65.000000	39.000000
24.078340	24.314562	62.000000	33.000000
24.196451	24.314562	74.000000	49.000000
24.314562	24.432674	72.000000	52.000000
24.432674	24.550785	70.000000	49.000000
24.550785	24.844406	48.000000	36.000000
24.595430	24.750261	60.000000	40.000000
24.640062	24.854867	64.000000	44.000000
24.684707	24.854867	69.000000	45.000000
24.707023	24.854867	76.000000	49.000000
24.729339	24.854867	88.000000	56.000000
25.181292	25.267230	69.000000	42.000000
25.275049	25.399020	69.000000	51.000000
25.275049	25.522992	64.000000	38.000000
25.275049	25.522992	60.000000	32.000000
25.399020	25.522992	72.000000	47.000000
25.522992	25.646964	71.000000	51.000000
25.646964	25.791897	69.000000	47.000000
25.791897	26.325376	65.000000	50.000000
25.791897	26.325376	53.000000	42.000000
26.181140	26.325376	75.000000	42.000000
26.181140	26.325376	63.000000	38.000000
26.181140	26.325376	57.000000	38.000000
26.325376	26.941654	64.000000	49.000000
26.325376	26.941654	52.000000	42.000000
26.469611	26.613847	76.000000	42.000000
26.613847	26.744283	74.000000	49.000000
26.744283	26.941654	71.000000	42.000000
26.744283	26.941654	62.000000	35.000000
26.744283	26.941654	56.000000	35.000000
26.941654	27.560212	64.000000	48.000000
26.941654	27.560212	69.000000	48.000000
26.941654	27.560212	60.000000	42.000000
26.941654	27.560212	57.000000	42.000000
27.560212	27.774494	81.000000	42.000000
27.560212	27.774494	72.000000	42.000000
27.560212	27.774494	69.000000	35.000000
27.560212	27.774494	64.000000	35.000000
28.242432	28.281807	72.000000	46.000000
28.281807	28.321182	81.000000	51.000000
28.321182	28.442646	88.000000	65.000000
28.321182	28.442646	57.000000	68.000000
28.483134	28.601701	84.000000	55.000000
28.639292	28.759871	81.000000	55.000000
28.739124	28.796174	57.000000	54.000000
28.801365	28.920884	76.000000	58.000000
28.801365	28.920884	57.000000	64.000000
28.920884	29.040403	60.000000	60.000000
28.960728	29.080247	72.000000	54.000000
29.040403	29.159936	59.000000	64.000000
29.120092	29.201953	69.000000	54.000000
29.159936	29.285986	57.000000	60.000000
29.201953	29.243970	68.000000	46.000000
29.243970	29.285986	76.000000	51.000000
29.285986	29.406954	83.000000	68.000000
29.285986	29.406954	64.000000	66.000000
29.447281	29.565245	80.000000	60.000000
29.602554	29.723200	76.000000	59.000000
29.702373	29.759665	52.000000	54.000000
29.764868	29.884388	71.000000	58.000000
29.764868	29.884388	52.000000	64.000000
29.884388	30.003907	55.000000	60.000000
29.924232	30.043751	68.000000	50.000000
30.003907	30.123440	54.000000	64.000000
30.083595	30.165108	64.000000	50.000000
30.123440	30.248444	52.000000	60.000000
30.165108	30.206776	72.000000	46.000000
30.206776	30.248444	81.000000	51.000000
30.248444	30.368942	88.000000	65.000000
30.248444	30.328776	57.000000	68.000000
30.248444	30.593202	45.000000	43.000000
30.288610	30.602630	52.000000	46.000000
30.328776	30.508297	57.000000	50.000000
30.368942	30.602630	60.000000	54.000000
30.409109	30.527166	84.000000	55.000000
30.564905	30.684934	81.000000	55.000000
30.664361	30.720942	57.000000	54.000000
30.726092	30.845612	76.000000	58.000000
30.726092	30.845612	57.000000	64.000000
30.845612	30.965131	60.000000	60.000000
30.885456	31.004975	72.000000	54.000000
30.965131	31.084664	59.000000	64.000000
31.044819	31.187754	69.000000	54.000000
31.084664	31.239306	57.000000	60.000000
31.239306	31.842267	64.000000	68.000000
31.426216	31.573443	68.000000	55.000000
31.426216	31.573443	76.000000	55.000000
31.627208	31.788502	71.000000	52.000000
31.627208	31.788502	80.000000	52.000000
31.842267	32.003562	88.000000	49.000000
31.842267	32.003562	76.000000	49.000000
31.842267	32.003562	52.000000	52.000000
32.354221	32.393596	72.000000	36.000000
32.393596	32.432971	81.000000	40.000000
32.432971	32.554435	88.000000	52.000000
32.432971	32.554435	57.000000	54.000000
32.594923	32.712256	84.000000	44.000000
32.748613	32.867958	81.000000	44.000000
32.847211	32.904262	57.000000	43.000000
32.909452	33.028971	76.000000	46.000000
32.909452	33.028971	57.000000	51.000000
33.028971	33.148491	60.000000	48.000000
33.068816	33.188335	72.000000	43.000000
33.148491	33.268023	59.000000	51.000000
33.228179	33.316799	69.000000	43.000000
33.268023	33.414351	57.000000	48.000000
33.316799	33.365575	68.000000	36.000000
33.365575	33.414351	76.000000	40.000000
33.414351	33.532932	83.000000	54.000000
33.414351	33.532932	64.000000	52.000000
33.572454	33.688822	80.000000	48.000000
33.726132	33.846777	76.000000	47.000000
33.825950	33.883242	52.000000	43.000000
33.888446	34.007965	71.000000	46.000000
33.888446	34.007965	52.000000	51.000000
34.007965	34.127484	55.000000	48.000000
34.047809	34.167328	68.000000	41.000000
34.127484	34.247017	54.000000	51.000000
34.207173	34.296034	64.000000	40.000000
34.247017	34.394069	52.000000	48.000000
34.296034	34.345052	72.000000	36.000000
34.345052	34.394069	81.000000	40.000000
34.394069	34.514554	88.000000	52.000000
34.394069	34.514554	57.000000	54.000000
34.554720	34.672778	84.000000	44.000000
34.710516	34.830559	81.000000	44.000000
34.809986	34.866567	57.000000	43.000000
34.871717	34.991236	76.000000	46.000000
34.871717	34.991236	57.000000	51.000000
34.991236	35.107966	60.000000	48.000000
35.030142	35.146872	72.000000	43.000000
35.107966	35.224683	59.000000	51.000000
35.185777	35.346629	69.000000	43.000000
35.224683	35.407609	57.000000	48.000000
35.407609	36.023472	64.000000	54.000000
35.597188	35.747218	68.000000	44.000000
35.597188	35.747218	76.000000	44.000000
35.802471	35.968218	71.000000	41.000000
35.802471	35.968218	80.000000	41.000000
36.023472	36.189219	88.000000	39.000000
36.023472	36.189219	76.000000	39.000000
36.023472	36.189219	52.000000	41.000000
36.467458	36.744544	57.000000	44.000000
36.504956	36.744544	64.000000	46.000000
36.534487	36.744544	69.000000	48.000000
36.564018	36.744544	81.000000	46.000000
36.593549	36.744544	85.000000	51.000000
36.623080	36.744544	93.000000	65.000000
36.785032	36.903599	88.000000	55.000000
36.941190	37.061769	85.000000	55.000000
37.041022	37.098073	69.000000	54.000000
37.103263	37.222782	81.000000	58.000000
37.103263	37.222782	69.000000	64.000000
37.222782	37.342301	70.000000	60.000000
37.262626	37.382146	76.000000	54.000000
37.342301	37.461834	69.000000	64.000000
37.421990	37.545868	73.000000	54.000000
37.461834	37.545868	67.000000	60.000000
37.545868	37.708852	50.000000	59.000000
37.587885	37.708852	65.000000	66.000000
37.749179	37.867143	69.000000	51.000000
37.749179	37.867143	74.000000	60.000000
37.904453	38.025098	74.000000	50.000000
37.904453	38.025098	77.000000	59.000000
38.004271	38.061563	62.000000	54.000000
38.066767	38.186286	77.000000	49.000000
38.066767	38.186286	81.000000	58.000000
38.066767	38.186286	62.000000	64.000000
38.186286	38.305805	65.000000	60.000000
38.226130	38.345649	81.000000	45.000000
38.226130	38.345649	86.000000	54.000000
38.305805	38.425338	64.000000	64.000000
38.385494	38.486318	86.000000	46.000000
38.385494	38.486318	89.000000	55.000000
38.425338	38.516801	62.000000	60.000000
38.516801	38.768688	55.000000	42.000000
38.542886	38.768688	62.000000	45.000000
38.568970	38.768688	67.000000	49.000000
38.595055	38.768688	79.000000	53.000000
38.621139	38.768688	83.000000	56.000000
38.647224	38.768688	91.000000	65.000000
38.809176	38.927743	86.000000	55.000000
38.965334	39.085913	83.000000	55.000000
39.065166	39.122217	67.000000	54.000000
39.127407	39.246926	79.000000	58.000000
39.127407	39.246926	67.000000	64.000000
39.246926	39.366445	69.000000	60.000000
39.286770	39.406289	74.000000	54.000000
39.366445	39.485978	67.000000	64.000000
39.446134	39.570012	71.000000	54.000000
39.485978	39.570012	65.000000	60.000000
39.570012	39.732996	48.000000	59.000000
39.612028	39.732996	64.000000	66.000000
39.773323	39.891287	67.000000	51.000000
39.773323	39.891287	72.000000	60.000000
39.928596	40.049242	72.000000	50.000000
39.928596	40.049242	76.000000	59.000000
40.028415	40.085707	60.000000	54.000000
40.090910	40.210430	76.000000	49.000000
40.090910	40.210430	79.000000	58.000000
40.090910	40.210430	60.000000	64.000000
40.210430	40.329949	64.000000	60.000000
40.250274	40.369793	79.000000	45.000000
40.250274	40.369793	84.000000	54.000000
40.329949	40.449482	62.000000	64.000000
40.409637	40.541146	84.000000	46.000000
40.409637	40.541146	88.000000	55.000000
40.449482	40.516148	60.000000	60.000000
40.516148	40.715114	50.000000	36.000000
40.553645	40.715114	56.000000	40.000000
40.591143	40.715114	83.000000	44.000000
40.591143	40.715114	89.000000	52.000000
40.591143	40.715114	65.000000	54.000000
40.756434	40.876677	80.000000	37.000000
40.756434	40.876677	86.000000	44.000000
40.914269	41.034847	77.000000	37.000000
40.914269	41.034847	83.000000	44.000000
41.014100	41.071151	59.000000	43.000000
41.076341	41.195860	74.000000	39.000000
41.076341	41.195860	80.000000	46.000000
41.076341	41.195860	59.000000	51.000000
41.195860	41.315380	62.000000	48.000000
41.235705	41.355224	71.000000	36.000000
41.235705	41.355224	77.000000	43.000000
41.315380	41.434913	60.000000	51.000000
41.395068	41.483689	74.000000	43.000000
41.434913	41.508083	59.000000	48.000000
41.483689	41.532478	76.000000	36.000000
41.508083	41.581254	48.000000	47.000000
41.532478	41.581254	81.000000	40.000000
41.581254	41.702222	88.000000	54.000000
41.581254	41.702222	64.000000	52.000000
41.742549	41.860512	84.000000	48.000000
41.897822	42.018468	81.000000	47.000000
41.997640	42.054932	57.000000	43.000000
42.060136	42.179655	76.000000	46.000000
42.060136	42.179655	57.000000	51.000000
42.179655	42.299174	60.000000	48.000000
42.219499	42.339019	72.000000	43.000000
42.299174	42.418707	59.000000	51.000000
42.378863	42.516742	69.000000	44.000000
42.418707	42.565759	57.000000	48.000000
42.565759	43.095308	53.000000	54.000000
42.736697	42.864906	63.000000	37.000000
42.736697	42.864906	71.000000	44.000000
42.907647	43.047002	75.000000	41.000000
42.907647	43.047002	69.000000	41.000000
42.950388	43.095308	59.000000	43.000000
43.095308	43.666525	52.000000	51.000000
43.226884	43.358460	64.000000	48.000000
43.270738	43.404970	76.000000	44.000000
43.270738	43.404970	68.000000	37.000000
43.358460	43.497989	62.000000	51.000000
43.451479	43.610346	80.000000	41.000000
43.451479	43.610346	71.000000	34.000000
43.497989	43.666525	59.000000	48.000000
43.666525	44.392788	57.000000	54.000000
43.861643	44.024989	81.000000	44.000000
43.861643	44.024989	72.000000	37.000000
44.090784	44.314051	76.000000	34.000000
44.090784	44.314051	84.000000	41.000000
44.392788	44.629010	81.000000	43.000000
44.392788	44.629010	93.000000	51.000000
44.392788	44.629010	64.000000	31.000000
44.392788	44.629010	72.000000	41.000000
45.337677	45.839800	41.000000	54.000000
45.337677	45.473665	45.000000	64.000000
45.463204	45.598937	44.000000	60.000000
45.588732	45.722252	45.000000	64.000000
45.711188	45.839800	44.000000	60.000000
45.777559	45.849925	46.000000	63.000000
45.839800	45.971389	45.000000	64.000000
45.961264	46.092853	47.000000	60.000000
46.082728	46.214693	48.000000	64.000000
46.204192	46.330242	50.000000	59.000000
46.330242	46.461831	52.000000	64.000000
46.330242	46.833894	40.000000	54.000000
46.330242	46.833894	44.000000	54.000000
46.451706	46.583134	51.000000	60.000000
46.573170	46.705859	52.000000	64.000000
46.692703	46.833894	51.000000	60.000000
46.771654	46.843859	53.000000	63.000000
46.833894	46.963231	52.000000	64.000000
46.953427	47.080872	50.000000	60.000000
47.071069	47.200620	48.000000	64.000000
47.188711	47.331579	47.000000	59.000000
47.331579	47.846576	41.000000	48.000000
47.331579	47.467003	45.000000	57.000000
47.456583	47.591833	44.000000	54.000000
47.581587	47.717844	45.000000	56.000000
47.704540	47.846576	44.000000	52.000000
47.784336	47.856541	46.000000	61.000000
47.846576	47.976074	45.000000	56.000000
47.966109	48.095606	47.000000	52.000000
48.085642	48.216185	48.000000	55.000000
48.205175	48.337327	50.000000	50.000000
48.337327	48.928366	40.000000	45.000000
48.337327	48.928366	44.000000	45.000000
48.337327	48.476225	52.000000	54.000000
48.465537	48.604073	51.000000	50.000000
48.593746	48.740852	52.000000	53.000000
48.717705	48.928366	51.000000	49.000000
48.856590	48.939229	53.000000	51.000000
48.928366	49.124006	52.000000	45.000000
49.445710	49.947834	53.000000	54.000000
49.445710	49.581699	57.000000	64.000000
49.571238	49.706971	56.000000	60.000000
49.696765	49.830286	57.000000	64.000000
49.819222	49.947834	56.000000	60.000000
49.885593	49.957959	58.000000	64.000000
49.947834	50.079423	57.000000	64.000000
50.069298	50.200887	59.000000	60.000000
50.190762	50.322726	60.000000	64.000000
50.312225	50.438276	62.000000	59.000000
50.438276	50.941928	52.000000	54.000000
50.438276	50.941928	56.000000	54.000000
50.438276	50.569865	64.000000	64.000000
50.559740	50.691168	63.000000	60.000000
50.681204	50.813893	64.000000	64.000000
50.800737	50.941928	63.000000	60.000000
50.879687	50.951893	65.000000	63.000000
50.941928	51.071264	64.000000	64.000000
51.061461	51.188906	62.000000	60.000000
51.179103	51.308653	60.000000	64.000000
51.296744	51.439612	59.000000	59.000000
51.439612	51.954610	53.000000	48.000000
51.439612	51.575037	57.000000	57.000000
51.564617	51.699867	56.000000	54.000000
51.689621	51.825877	57.000000	56.000000
51.812574	51.954610	56.000000	52.000000
51.892369	51.964575	58.000000	57.000000
51.954610	52.084107	57.000000	56.000000
52.074143	52.203640	59.000000	52.000000
52.193676	52.324219	60.000000	55.000000
52.313208	52.445361	62.000000	50.000000
52.445361	53.035809	52.000000	45.000000
52.445361	53.035809	56.000000	45.000000
52.445361	52.583656	64.000000	54.000000
52.573021	52.711047	63.000000	50.000000
52.700681	52.848296	64.000000	53.000000
52.825149	53.035809	63.000000	49.000000
52.964033	53.035809	65.000000	51.000000
53.035809	53.231463	64.000000	45.000000
53.553168	54.055291	65.000000	54.000000
53.553168	53.689156	69.000000	64.000000
53.678695	53.814428	68.000000	60.000000
53.804222	53.937743	69.000000	64.000000
53.926679	54.055291	68.000000	60.000000
53.993050	54.065416	70.000000	63.000000
54.055291	54.186880	69.000000	64.000000
54.176755	54.308344	67.000000	60.000000
54.298219	54.430183	65.000000	64.000000
54.419683	54.545733	64.000000	59.000000
54.545733	55.049385	53.000000	54.000000
54.545733	55.049385	57.000000	54.000000
54.545733	54.677322	62.000000	64.000000
54.667197	54.798625	61.000000	60.000000
54.788661	54.921350	62.000000	64.000000
54.908194	55.049385	61.000000	60.000000
54.987145	55.059350	63.000000	61.000000
55.049385	55.178923	62.000000	62.000000
55.168918	55.298925	64.000000	60.000000
55.288920	55.420831	65.000000	64.000000
55.408922	55.551790	62.000000	59.000000
55.551790	56.066788	59.000000	49.000000
55.551790	56.066788	62.000000	52.000000
55.551790	55.687215	67.000000	62.000000
55.676795	55.812045	66.000000	59.000000
55.801799	55.938055	67.000000	61.000000
55.924752	56.066788	66.000000	57.000000
56.004547	56.076833	68.000000	62.000000
56.066788	56.197318	67.000000	61.000000
56.187273	56.317803	65.000000	57.000000
56.307758	56.439253	64.000000	60.000000
56.428243	56.560395	62.000000	55.000000
56.560395	57.064047	52.000000	54.000000
56.560395	57.064047	55.000000	54.000000
56.560395	56.691984	60.000000	64.000000
56.681859	56.813287	59.000000	60.000000
56.803323	56.936012	60.000000	64.000000
56.922856	57.064047	59.000000	60.000000
57.001807	57.074132	61.000000	58.000000
57.064047	57.194979	60.000000	61.000000
57.185015	57.314512	62.000000	60.000000
57.304548	57.435990	64.000000	64.000000
57.424080	57.566948	60.000000	59.000000
57.566948	58.069072	50.000000	49.000000
57.566948	58.069072	56.000000	54.000000
57.566948	57.702937	65.000000	64.000000
57.692476	57.828209	64.000000	60.000000
57.818003	57.951524	65.000000	64.000000
57.940460	58.069072	64.000000	60.000000
58.006831	58.079197	67.000000	60.000000
58.069072	58.200661	65.000000	62.000000
58.190536	58.322125	62.000000	60.000000
58.312000	58.443964	60.000000	64.000000
58.433463	58.559514	59.000000	59.000000
58.559514	59.063166	48.000000	54.000000
58.559514	59.063166	57.000000	54.000000
58.559514	58.691103	64.000000	64.000000
58.680978	58.812406	63.000000	60.000000
58.802442	58.935131	64.000000	64.000000
58.921975	59.063166	63.000000	60.000000
59.000925	59.073251	65.000000	61.000000
59.063166	59.194219	64.000000	61.000000
59.184134	59.315187	60.000000	60.000000
59.305101	59.437978	59.000000	64.000000
59.426069	59.568937	57.000000	59.000000
59.568937	60.083935	50.000000	45.000000
59.568937	60.083935	53.000000	48.000000
59.568937	59.704362	58.000000	57.000000
59.693942	59.829192	57.000000	54.000000
59.818946	59.955202	58.000000	56.000000
59.941899	60.083935	57.000000	52.000000
60.021694	60.094101	60.000000	56.000000
60.083935	60.216061	59.000000	56.000000
60.083935	60.327855	52.000000	45.000000
60.083935	60.327855	56.000000	54.000000
60.205895	60.338021	65.000000	52.000000
60.327855	60.460826	64.000000	55.000000
60.449815	60.581968	56.000000	50.000000
60.581968	60.720786	57.000000	55.000000
60.709628	60.855071	56.000000	51.000000
60.843551	60.912671	50.000000	52.000000
60.843551	60.912671	53.000000	52.000000
60.843551	60.994948	57.000000	57.000000
60.981792	61.122635	56.000000	49.000000
61.122635	61.183856	48.000000	52.000000
61.122635	61.183856	52.000000	52.000000
61.122635	61.367534	57.000000	54.000000
61.612433	61.748421	45.000000	64.000000
61.737961	61.873694	44.000000	60.000000
61.863488	61.997008	45.000000	64.000000
61.985944	62.052316	44.000000	60.000000
62.052316	62.124682	46.000000	63.000000
62.114556	62.604999	61.000000	54.000000
62.114556	62.604999	52.000000	45.000000
62.114556	62.604999	55.000000	45.000000
62.114556	62.246146	45.000000	64.000000
62.236020	62.367610	43.000000	60.000000
62.357484	62.489449	41.000000	64.000000
62.478948	62.604999	40.000000	59.000000
62.604999	62.736588	38.000000	64.000000
62.726462	62.857891	37.000000	60.000000
62.847926	62.980615	38.000000	64.000000
62.967459	63.046410	37.000000	60.000000
63.046410	63.118615	39.000000	63.000000
63.108651	63.606335	65.000000	54.000000
63.108651	63.606335	53.000000	45.000000
63.108651	63.606335	57.000000	45.000000
63.108651	63.237987	38.000000	64.000000
63.228183	63.355629	40.000000	60.000000
63.345825	63.475376	41.000000	64.000000
63.463467	63.616796	38.000000	59.000000
63.606335	63.742323	43.000000	64.000000
63.731862	63.867596	42.000000	60.000000
63.857390	63.990910	43.000000	64.000000
63.979846	64.046217	42.000000	60.000000
64.046217	64.118584	44.000000	63.000000
64.108458	64.598900	59.000000	54.000000
64.108458	64.598900	50.000000	45.000000
64.108458	64.598900	53.000000	45.000000
64.108458	64.240047	43.000000	64.000000
64.229922	64.361511	41.000000	60.000000
64.351386	64.483351	40.000000	64.000000
64.472850	64.598900	38.000000	59.000000
64.598900	64.730490	36.000000	64.000000
64.720364	64.851793	35.000000	60.000000
64.841828	64.974517	36.000000	64.000000
64.961361	65.040312	35.000000	60.000000
65.040312	65.112517	37.000000	63.000000
65.102553	65.600237	64.000000	54.000000
65.102553	65.600237	52.000000	45.000000
65.102553	65.600237	55.000000	45.000000
65.102553	65.231889	36.000000	64.000000
65.222085	65.349530	38.000000	60.000000
65.339727	65.469278	40.000000	64.000000
65.457369	65.610697	36.000000	59.000000
65.600237	65.736225	41.000000	64.000000
65.725764	65.861497	40.000000	60.000000
65.851292	65.984812	41.000000	64.000000
65.973748	66.040119	40.000000	60.000000
66.040119	66.112485	43.000000	63.000000
66.102360	66.592802	59.000000	54.000000
66.102360	66.592802	50.000000	45.000000
66.102360	66.592802	56.000000	45.000000
66.102360	66.233949	41.000000	64.000000
66.223824	66.355413	38.000000	60.000000
66.345288	66.477253	36.000000	64.000000
66.466752	66.602928	35.000000	59.000000
66.592802	66.724392	40.000000	64.000000
66.714266	66.845694	39.000000	60.000000
66.835730	66.968419	40.000000	64.000000
66.955263	67.034214	39.000000	60.000000
67.034214	67.106419	41.000000	63.000000
67.096454	67.594139	60.000000	54.000000
67.096454	67.594139	52.000000	45.000000
67.096454	67.594139	57.000000	45.000000
67.096454	67.225791	40.000000	64.000000
67.215987	67.343432	36.000000	60.000000
67.333629	67.463180	35.000000	64.000000
67.451271	67.594139	33.000000	59.000000
67.594139	67.860817	62.000000	54.000000
67.594139	68.134778	53.000000	45.000000
67.594139	68.134778	57.000000	45.000000
67.594139	67.738589	35.000000	64.000000
67.727471	67.872230	34.000000	60.000000
67.860817	68.134778	63.000000	54.000000
67.860817	68.009211	35.000000	64.000000
67.997798	68.134778	34.000000	60.000000
68.134778	68.724114	64.000000	54.000000
68.134778	68.724114	52.000000	45.000000
68.134778	68.724114	56.000000	45.000000
68.134778	68.384613	36.000000	64.000000
68.353754	68.793556	35.000000	60.000000
68.724114	69.569359	41.000000	64.000000
69.557450	69.700318	40.000000	59.000000
69.700318	69.820320	33.000000	54.000000
69.820320	69.940322	32.000000	51.000000
69.940322	70.058903	33.000000	54.000000
70.058903	70.123557	32.000000	51.000000
70.123557	70.195682	34.000000	53.000000
70.185798	70.422959	62.000000	45.000000
70.185798	70.422959	53.000000	38.000000
70.185798	70.422959	57.000000	38.000000
70.185798	70.304378	33.000000	54.000000
70.304378	70.422959	32.000000	51.000000
70.422959	70.541540	33.000000	54.000000
70.541540	70.663003	32.000000	50.000000
70.663003	70.901103	52.000000	38.000000
70.663003	70.901103	57.000000	38.000000
70.663003	70.901103	60.000000	45.000000
70.663003	70.782053	33.000000	54.000000
70.782053	70.901103	32.000000	51.000000
70.901103	71.022071	33.000000	54.000000
71.022071	71.088442	32.000000	51.000000
71.088442	71.160808	34.000000	53.000000
71.150683	71.393611	50.000000	35.000000
71.150683	71.393611	53.000000	35.000000
71.150683	71.393611	57.000000	43.000000
71.150683	71.272147	33.000000	51.000000
71.272147	71.393611	32.000000	47.000000
71.393611	71.515075	33.000000	50.000000
71.515075	71.641125	32.000000	45.000000
71.641125	71.911385	48.000000	34.000000
71.641125	71.911385	52.000000	34.000000
71.641125	71.911385	57.000000	40.000000
71.641125	71.776255	33.000000	48.000000
71.776255	71.911385	32.000000	44.000000
71.911385	72.042384	33.000000	45.000000
72.042384	72.115917	32.000000	41.000000
72.115917	72.195257	34.000000	43.000000
72.183790	72.459012	50.000000	30.000000
72.183790	72.459012	53.000000	36.000000
72.183790	72.321401	33.000000	43.000000
72.321401	72.459012	32.000000	39.000000
72.459012	72.601866	33.000000	40.000000
72.601866	72.785920	32.000000	36.000000
72.785920	73.154013	48.000000	24.000000
72.785920	73.154013	52.000000	24.000000
72.785920	73.154013	57.000000	29.000000
72.785920	73.154013	33.000000	35.000000
74.258306	74.387468	69.000000	78.000000
74.258306	74.387468	57.000000	68.000000
74.258306	74.810358	36.000000	56.000000
74.258306	74.810358	48.000000	67.000000
74.387468	74.452055	63.000000	61.000000
74.387468	74.452055	66.000000	74.000000
74.657821	74.810358	57.000000	53.000000
74.657821	74.810358	69.000000	61.000000
74.657821	74.810358	51.000000	46.000000
74.657821	74.810358	54.000000	46.000000
74.657821	74.810358	60.000000	54.000000
74.810358	74.939520	69.000000	74.000000
74.810358	74.939520	57.000000	65.000000
74.810358	74.939520	51.000000	51.000000
74.810358	74.939520	54.000000	51.000000
74.810358	74.939520	60.000000	60.000000
74.939520	75.068682	72.000000	69.000000
74.939520	75.068682	60.000000	60.000000
75.068682	75.198769	71.000000	74.000000
75.068682	75.198769	59.000000	65.000000
75.068682	75.333081	33.000000	52.000000
75.068682	75.333081	45.000000	62.000000
75.198769	75.333081	69.000000	69.000000
75.198769	75.333081	57.000000	60.000000
75.333081	75.462793	76.000000	78.000000
75.333081	75.462793	64.000000	68.000000
75.333081	75.592504	32.000000	62.000000
75.333081	75.592504	44.000000	74.000000
75.462793	75.527649	68.000000	61.000000
75.462793	75.527649	71.000000	74.000000
75.592504	75.878442	35.000000	59.000000
75.592504	75.878442	47.000000	72.000000
75.731094	75.878442	64.000000	53.000000
75.731094	75.878442	76.000000	61.000000
75.878442	76.009830	76.000000	74.000000
75.878442	76.009830	64.000000	65.000000
75.878442	76.410592	40.000000	67.000000
75.878442	76.410592	44.000000	67.000000
75.878442	76.410592	52.000000	81.000000
76.009830	76.141218	79.000000	69.000000
76.009830	76.141218	67.000000	60.000000
76.141218	76.272619	77.000000	74.000000
76.141218	76.272619	65.000000	65.000000
76.272619	76.410592	76.000000	69.000000
76.272619	76.410592	64.000000	60.000000
76.410592	76.539754	69.000000	81.000000
76.410592	76.539754	57.000000	71.000000
76.410592	76.948362	36.000000	63.000000
76.410592	76.948362	48.000000	75.000000
76.539754	76.604342	63.000000	65.000000
76.539754	76.604342	66.000000	76.000000
76.798091	76.948362	57.000000	56.000000
76.798091	76.948362	69.000000	65.000000
76.798091	76.948362	51.000000	48.000000
76.798091	76.948362	54.000000	48.000000
76.798091	76.948362	60.000000	57.000000
76.948362	77.077524	69.000000	76.000000
76.948362	77.077524	57.000000	67.000000
76.948362	77.077524	51.000000	53.000000
76.948362	77.077524	54.000000	53.000000
76.948362	77.077524	60.000000	63.000000
77.077524	77.206686	72.000000	72.000000
77.077524	77.206686	60.000000	63.000000
77.206686	77.336773	71.000000	76.000000
77.206686	77.336773	59.000000	67.000000
77.206686	77.471085	33.000000	55.000000
77.206686	77.471085	45.000000	64.000000
77.336773	77.471085	69.000000	72.000000
77.336773	77.471085	57.000000	63.000000
77.471085	77.604216	68.000000	81.000000
77.471085	77.604216	56.000000	71.000000
77.471085	77.737348	35.000000	59.000000
77.471085	77.737348	47.000000	71.000000
77.604216	77.670789	59.000000	76.000000
77.737348	78.022359	39.000000	66.000000
77.737348	78.022359	51.000000	79.000000
77.879854	78.022359	63.000000	72.000000
78.022359	78.307371	56.000000	70.000000
78.022359	78.307371	65.000000	82.000000
78.022359	78.307371	59.000000	70.000000
78.022359	78.307371	41.000000	73.000000
78.022359	78.307371	53.000000	86.000000
78.307371	78.449877	64.000000	78.000000
78.307371	78.592383	40.000000	70.000000
78.307371	78.592383	52.000000	82.000000
78.592383	78.721545	81.000000	86.000000
78.592383	78.721545	69.000000	74.000000
78.592383	79.144435	36.000000	61.000000
78.592383	79.144435	48.000000	73.000000
78.721545	78.786132	75.000000	68.000000
78.721545	78.786132	78.000000	81.000000
78.991898	79.144435	69.000000	58.000000
78.991898	79.144435	81.000000	68.000000
78.991898	79.144435	51.000000	46.000000
78.991898	79.144435	54.000000	46.000000
78.991898	79.144435	60.000000	54.000000
79.144435	79.273597	81.000000	81.000000
79.144435	79.273597	69.000000	70.000000
79.144435	79.273597	51.000000	51.000000
79.144435	79.273597	54.000000	51.000000
79.144435	79.273597	60.000000	60.000000
79.273597	79.402759	84.000000	75.000000
79.273597	79.402759	72.000000	67.000000
79.402759	79.532846	83.000000	81.000000
79.402759	79.532846	71.000000	70.000000
79.402759	79.667158	33.000000	52.000000
79.402759	79.667158	45.000000	62.000000
79.532846	79.667158	81.000000	75.000000
79.532846	79.667158	69.000000	67.000000
79.667158	79.796870	88.000000	86.000000
79.667158	79.796870	76.000000	74.000000
79.667158	79.926582	32.000000	62.000000
79.667158	79.926582	44.000000	74.000000
79.796870	79.861726	80.000000	68.000000
79.796870	79.861726	83.000000	81.000000
79.926582	80.212519	35.000000	59.000000
79.926582	80.212519	47.000000	72.000000
80.065171	80.212519	76.000000	58.000000
80.065171	80.212519	88.000000	68.000000
80.212519	80.343907	88.000000	81.000000
80.212519	80.343907	76.000000	70.000000
80.212519	80.744669	40.000000	67.000000
80.212519	80.744669	44.000000	67.000000
80.212519	80.744669	52.000000	81.000000
80.343907	80.475295	91.000000	75.000000
80.343907	80.475295	79.000000	67.000000
80.475295	80.606696	89.000000	81.000000
80.475295	80.606696	77.000000	70.000000
80.606696	80.744669	88.000000	75.000000
80.606696	80.744669	76.000000	67.000000
80.744669	80.873831	81.000000	89.000000
80.744669	80.873831	69.000000	77.000000
80.744669	81.282439	36.000000	63.000000
80.744669	81.282439	48.000000	75.000000
80.873831	80.938419	75.000000	71.000000
80.873831	80.938419	78.000000	84.000000
81.132168	81.282439	69.000000	61.000000
81.132168	81.282439	81.000000	71.000000
81.132168	81.282439	51.000000	48.000000
81.132168	81.282439	54.000000	48.000000
81.132168	81.282439	60.000000	57.000000
81.282439	81.411601	81.000000	80.000000
81.282439	81.411601	69.000000	70.000000
81.282439	81.411601	51.000000	53.000000
81.282439	81.411601	54.000000	53.000000
81.282439	81.411601	60.000000	63.000000
81.411601	81.540763	84.000000	75.000000
81.411601	81.540763	72.000000	67.000000
81.540763	81.670850	83.000000	80.000000
81.540763	81.670850	71.000000	70.000000
81.540763	81.805162	33.000000	55.000000
81.540763	81.805162	45.000000	64.000000
81.670850	81.805162	81.000000	75.000000
81.670850	81.805162	69.000000	67.000000
81.805162	81.938293	80.000000	86.000000
81.805162	81.938293	68.000000	74.000000
81.805162	82.071425	35.000000	59.000000
81.805162	82.071425	47.000000	71.000000
81.938293	82.004866	83.000000	80.000000
81.938293	82.004866	71.000000	75.000000
82.071425	82.356437	39.000000	66.000000
82.071425	82.356437	51.000000	79.000000
82.213931	82.356437	87.000000	75.000000
82.213931	82.356437	75.000000	64.000000
82.356437	82.641448	89.000000	87.000000
82.356437	82.641448	77.000000	63.000000
82.356437	82.641448	41.000000	73.000000
82.356437	82.641448	53.000000	86.000000
82.641448	82.783954	88.000000	82.000000
82.641448	82.783954	76.000000	69.000000
82.641448	82.926460	40.000000	70.000000
82.641448	82.926460	52.000000	82.000000
82.926460	83.055622	81.000000	77.000000
82.926460	83.055622	93.000000	90.000000
82.926460	83.055622	79.000000	77.000000
82.926460	83.478513	45.000000	61.000000
82.926460	83.478513	52.000000	61.000000
82.926460	83.325975	61.000000	73.000000
83.055622	83.120209	85.000000	70.000000
83.055622	83.120209	88.000000	85.000000
83.325975	83.478513	81.000000	60.000000
83.325975	83.478513	93.000000	70.000000
83.325975	83.478513	61.000000	46.000000
83.325975	83.478513	64.000000	46.000000
83.325975	83.478513	69.000000	54.000000
83.478513	83.607674	93.000000	85.000000
83.478513	83.607674	81.000000	74.000000
83.478513	83.607674	61.000000	51.000000
83.478513	83.607674	64.000000	51.000000
83.478513	83.607674	69.000000	60.000000
83.607674	83.736836	94.000000	78.000000
83.607674	83.736836	82.000000	69.000000
83.736836	83.866924	93.000000	85.000000
83.736836	83.866924	81.000000	74.000000
83.736836	84.001235	37.000000	52.000000
83.736836	84.001235	52.000000	62.000000
83.866924	84.001235	91.000000	78.000000
83.866924	84.001235	79.000000	69.000000
84.001235	84.130947	89.000000	90.000000
84.001235	84.130947	77.000000	77.000000
84.001235	84.260659	38.000000	62.000000
84.001235	84.260659	53.000000	74.000000
84.130947	84.195803	81.000000	70.000000
84.130947	84.195803	86.000000	85.000000
84.260659	84.546596	40.000000	59.000000
84.260659	84.546596	55.000000	72.000000
84.399248	84.546596	73.000000	60.000000
84.399248	84.546596	85.000000	70.000000
84.546596	84.677984	86.000000	85.000000
84.546596	84.677984	74.000000	74.000000
84.546596	84.809372	41.000000	67.000000
84.546596	84.809372	56.000000	81.000000
84.677984	84.809372	89.000000	78.000000
84.677984	84.809372	77.000000	69.000000
84.809372	84.940773	87.000000	85.000000
84.809372	84.940773	75.000000	74.000000
84.809372	85.078746	42.000000	72.000000
84.809372	85.078746	57.000000	85.000000
84.940773	85.078746	86.000000	78.000000
84.940773	85.078746	74.000000	69.000000
85.078746	85.207908	79.000000	77.000000
85.078746	85.207908	91.000000	90.000000
85.078746	85.207908	77.000000	77.000000
85.078746	85.630799	43.000000	61.000000
85.078746	85.630799	50.000000	61.000000
85.078746	85.478262	59.000000	73.000000
85.207908	85.272496	83.000000	70.000000
85.207908	85.272496	86.000000	85.000000
85.478262	85.630799	79.000000	60.000000
85.478262	85.630799	91.000000	70.000000
85.478262	85.630799	59.000000	46.000000
85.478262	85.630799	62.000000	46.000000
85.478262	85.630799	67.000000	54.000000
85.630799	85.759961	91.000000	85.000000
85.630799	85.759961	79.000000	74.000000
85.630799	85.759961	59.000000	51.000000
85.630799	85.759961	62.000000	51.000000
85.630799	85.759961	67.000000	60.000000
85.759961	85.889123	92.000000	78.000000
85.759961	85.889123	80.000000	69.000000
85.889123	86.019210	91.000000	85.000000
85.889123	86.019210	79.000000	74.000000
85.889123	86.153522	35.000000	52.000000
85.889123	86.153522	50.000000	62.000000
86.019210	86.153522	89.000000	78.000000
86.019210	86.153522	77.000000	69.000000
86.153522	86.283233	88.000000	90.000000
86.153522	86.283233	76.000000	77.000000
86.153522	86.412945	36.000000	62.000000
86.153522	86.412945	52.000000	74.000000
86.283233	86.348089	79.000000	70.000000
86.283233	86.348089	84.000000	85.000000
86.412945	86.698882	38.000000	59.000000
86.412945	86.698882	53.000000	72.000000
86.551535	86.698882	71.000000	60.000000
86.551535	86.698882	83.000000	70.000000
86.698882	86.830270	84.000000	85.000000
86.698882	86.830270	72.000000	74.000000
86.698882	86.961658	39.000000	67.000000
86.698882	86.961658	54.000000	81.000000
86.830270	86.961658	87.000000	78.000000
86.830270	86.961658	75.000000	69.000000
86.961658	87.093060	85.000000	85.000000
86.961658	87.093060	73.000000	74.000000
86.961658	87.231033	40.000000	72.000000
86.961658	87.231033	55.000000	85.000000
87.093060	87.231033	84.000000	78.000000
87.093060	87.231033	72.000000	69.000000
87.231033	87.360195	89.000000	90.000000
87.231033	87.360195	77.000000	77.000000
87.231033	87.360195	50.000000	61.000000
87.231033	87.360195	41.000000	61.000000
87.231033	87.360195	47.000000	61.000000
87.231033	87.360195	56.000000	73.000000
87.360195	87.424782	80.000000	70.000000
87.360195	87.424782	83.000000	85.000000
87.630548	87.783085	68.000000	53.000000
87.630548	87.783085	71.000000	61.000000
87.630548	87.783085	62.000000	46.000000
87.630548	87.783085	65.000000	54.000000
87.783085	87.912247	71.000000	74.000000
87.783085	88.305808	68.000000	65.000000
87.783085	87.912247	62.000000	51.000000
87.783085	88.305808	65.000000	60.000000
87.912247	88.041409	74.000000	69.000000
87.912247	88.041409	59.000000	51.000000
88.041409	88.171496	72.000000	74.000000
88.041409	88.171496	60.000000	51.000000
88.171496	88.305808	71.000000	69.000000
88.171496	88.305808	62.000000	51.000000
88.305808	88.434970	88.000000	90.000000
88.305808	88.434970	76.000000	77.000000
88.305808	88.434970	40.000000	56.000000
88.305808	88.434970	48.000000	56.000000
88.305808	88.434970	57.000000	67.000000
88.434970	88.499557	81.000000	70.000000
88.434970	88.499557	84.000000	85.000000
88.705323	88.857861	64.000000	65.000000
88.705323	88.857861	69.000000	73.000000
88.705323	88.857861	60.000000	59.000000
88.857861	88.987022	69.000000	81.000000
88.857861	89.392197	64.000000	72.000000
88.857861	88.987022	60.000000	65.000000
88.987022	89.116184	72.000000	75.000000
88.987022	89.116184	57.000000	56.000000
89.116184	89.246272	71.000000	81.000000
89.116184	89.246272	59.000000	56.000000
89.246272	89.392197	69.000000	76.000000
89.246272	89.392197	60.000000	56.000000
89.392197	89.564610	62.000000	65.000000
89.392197	89.564610	74.000000	77.000000
89.392197	89.998015	47.000000	49.000000
89.392197	89.998015	53.000000	49.000000
89.392197	89.998015	57.000000	58.000000
89.564610	89.708148	65.000000	64.000000
89.564610	89.708148	77.000000	75.000000
89.708148	89.853081	64.000000	64.000000
89.708148	89.853081	76.000000	75.000000
89.853081	89.998015	63.000000	59.000000
89.853081	89.998015	75.000000	71.000000
89.998015	90.145067	64.000000	64.000000
89.998015	90.145067	76.000000	75.000000
89.998015	90.615513	40.000000	47.000000
89.998015	90.615513	56.000000	56.000000
90.145067	90.304645	59.000000	58.000000
90.145067	90.304645	71.000000	70.000000
90.304645	90.460079	62.000000	62.000000
90.304645	90.460079	74.000000	73.000000
90.460079	90.615513	60.000000	58.000000
90.460079	90.615513	72.000000	70.000000
90.615513	90.791976	64.000000	75.000000
90.615513	91.261135	59.000000	43.000000
90.615513	91.261135	71.000000	57.000000
90.615513	90.791976	52.000000	58.000000
90.615513	91.261135	45.000000	31.000000
90.615513	91.261135	50.000000	58.000000
90.615513	91.261135	56.000000	37.000000
90.791976	90.945036	67.000000	69.000000
90.791976	90.945036	55.000000	58.000000
90.945036	91.098097	65.000000	65.000000
90.945036	91.098097	53.000000	55.000000
91.098097	91.424173	64.000000	63.000000
91.098097	91.424173	52.000000	51.000000
91.261135	91.424173	57.000000	53.000000
91.261135	91.424173	69.000000	63.000000
91.261135	91.424173	45.000000	48.000000
91.261135	91.424173	48.000000	58.000000
91.962707	92.261774	81.000000	50.000000
91.962707	92.044676	57.000000	40.000000
91.962707	92.044676	60.000000	40.000000
91.962707	92.044676	69.000000	48.000000
92.126644	92.285243	93.000000	57.000000
92.261774	92.427253	92.000000	57.000000
92.261774	92.427253	80.000000	48.000000
92.261774	92.332195	64.000000	40.000000
92.261774	92.332195	72.000000	48.000000
92.402617	92.573769	91.000000	56.000000
92.402617	92.573769	79.000000	47.000000
92.550406	92.713954	90.000000	56.000000
92.550406	92.713954	78.000000	47.000000
92.550406	92.620493	62.000000	39.000000
92.550406	92.620493	71.000000	47.000000
92.690592	92.854140	89.000000	55.000000
92.690592	92.854140	77.000000	46.000000
92.830778	92.994661	88.000000	55.000000
92.830778	92.994661	76.000000	46.000000
92.830778	92.900864	60.000000	38.000000
92.830778	92.900864	69.000000	45.000000
92.970964	93.113148	87.000000	54.000000
92.970964	93.113148	75.000000	45.000000
93.113148	93.272391	77.000000	48.000000
93.113148	93.272391	89.000000	57.000000
93.113148	93.181893	52.000000	40.000000
93.113148	93.181893	56.000000	40.000000
93.113148	93.181893	64.000000	48.000000
93.249458	93.410323	76.000000	42.000000
93.249458	93.410323	88.000000	50.000000
93.387069	93.549852	75.000000	45.000000
93.387069	93.549852	87.000000	54.000000
93.387069	93.456833	59.000000	37.000000
93.387069	93.456833	67.000000	44.000000
93.526597	93.666126	89.000000	50.000000
93.526597	93.666126	77.000000	42.000000
93.666126	93.829124	76.000000	45.000000
93.666126	93.829124	88.000000	53.000000
93.666126	93.735890	57.000000	42.000000
93.666126	93.735890	65.000000	50.000000
93.805654	93.969967	83.000000	52.000000
93.946497	94.110809	71.000000	43.000000
93.946497	94.110809	80.000000	51.000000
93.946497	94.016919	56.000000	39.000000
93.946497	94.016919	64.000000	47.000000
94.087340	94.228183	76.000000	50.000000
94.228183	94.527249	81.000000	50.000000
94.228183	94.310151	57.000000	40.000000
94.228183	94.310151	60.000000	40.000000
94.228183	94.310151	69.000000	48.000000
94.392120	94.551054	93.000000	57.000000
94.527249	94.693694	92.000000	57.000000
94.527249	94.693694	80.000000	48.000000
94.527249	94.598677	64.000000	40.000000
94.527249	94.598677	72.000000	48.000000
94.670104	94.834658	91.000000	56.000000
94.670104	94.834658	79.000000	47.000000
94.811617	94.972899	90.000000	56.000000
94.811617	94.972899	78.000000	47.000000
94.811617	94.880738	62.000000	39.000000
94.811617	94.880738	71.000000	47.000000
94.949859	95.111140	89.000000	55.000000
94.949859	95.111140	77.000000	46.000000
95.088100	95.250038	88.000000	55.000000
95.088100	95.250038	76.000000	46.000000
95.088100	95.157220	60.000000	38.000000
95.088100	95.157220	69.000000	45.000000
95.226341	95.368525	87.000000	54.000000
95.226341	95.368525	75.000000	45.000000
95.368525	95.527768	77.000000	48.000000
95.368525	95.527768	89.000000	57.000000
95.368525	95.504835	57.000000	40.000000
95.368525	95.504835	60.000000	40.000000
95.368525	95.504835	65.000000	48.000000
95.504835	95.664051	76.000000	42.000000
95.504835	95.664051	88.000000	50.000000
95.641695	95.799529	75.000000	45.000000
95.641695	95.799529	87.000000	54.000000
95.776757	95.940480	89.000000	50.000000
95.776757	95.940480	77.000000	42.000000
95.914167	96.072055	76.000000	45.000000
95.914167	96.072055	88.000000	53.000000
95.914167	96.072055	52.000000	42.000000
95.914167	96.072055	56.000000	42.000000
95.914167	96.072055	64.000000	50.000000
96.229944	96.387832	76.000000	53.000000
96.545720	96.838081	81.000000	50.000000
96.545720	96.627689	57.000000	40.000000
96.545720	96.627689	60.000000	40.000000
96.545720	96.627689	69.000000	48.000000
96.709657	96.860639	93.000000	57.000000
96.838081	96.997043	92.000000	57.000000
96.838081	96.997043	80.000000	48.000000
96.838081	96.905767	64.000000	40.000000
96.838081	96.905767	72.000000	48.000000
96.973453	97.138663	91.000000	56.000000
96.973453	97.138663	79.000000	47.000000
97.114966	97.280847	90.000000	56.000000
97.114966	97.280847	78.000000	47.000000
97.114966	97.186058	62.000000	39.000000
97.114966	97.186058	71.000000	47.000000
97.257150	97.423031	89.000000	55.000000
97.257150	97.423031	77.000000	46.000000
97.399334	97.565215	88.000000	55.000000
97.399334	97.565215	76.000000	46.000000
97.399334	97.470426	60.000000	38.000000
97.399334	97.470426	69.000000	45.000000
97.541518	97.683702	87.000000	54.000000
97.541518	97.683702	75.000000	45.000000
97.683702	97.842945	77.000000	48.000000
97.683702	97.842945	89.000000	57.000000
97.683702	97.752447	52.000000	40.000000
97.683702	97.752447	56.000000	40.000000
97.683702	97.752447	64.000000	48.000000
97.820012	97.980556	76.000000	42.000000
97.820012	97.980556	88.000000	50.000000
97.957623	98.118166	75.000000	45.000000
97.957623	98.118166	87.000000	54.000000
97.957623	98.026421	59.000000	37.000000
97.957623	98.026421	67.000000	44.000000
98.095234	98.232844	89.000000	50.000000
98.095234	98.232844	77.000000	42.000000
98.232844	98.393938	76.000000	45.000000
98.232844	98.393938	88.000000	53.000000
98.232844	98.301656	57.000000	42.000000
98.232844	98.301656	65.000000	50.000000
98.370469	98.534781	83.000000	52.000000
98.511311	98.675624	71.000000	43.000000
98.511311	98.675624	80.000000	51.000000
98.511311	98.581733	56.000000	39.000000
98.511311	98.581733	64.000000	47.000000
98.652154	98.792997	76.000000	50.000000
98.792997	99.078894	81.000000	50.000000
98.792997	98.868381	57.000000	40.000000
98.792997	98.868381	60.000000	40.000000
98.792997	98.868381	69.000000	48.000000
98.943764	99.101063	93.000000	57.000000
99.078894	99.235468	92.000000	57.000000
99.078894	99.235468	80.000000	48.000000
99.078894	99.145386	64.000000	40.000000
99.078894	99.145386	72.000000	48.000000
99.211878	99.376432	91.000000	56.000000
99.211878	99.376432	79.000000	47.000000
99.353392	99.514673	90.000000	56.000000
99.353392	99.514673	78.000000	47.000000
99.353392	99.422512	62.000000	39.000000
99.353392	99.422512	71.000000	47.000000
99.491633	99.653276	89.000000	55.000000
99.491633	99.653276	77.000000	46.000000
99.629874	99.794012	88.000000	55.000000
99.629874	99.794012	76.000000	46.000000
99.629874	99.700094	60.000000	38.000000
99.629874	99.700094	69.000000	45.000000
99.770314	99.912498	87.000000	54.000000
99.770314	99.912498	75.000000	45.000000
99.912498	100.071741	77.000000	48.000000
99.912498	100.071741	89.000000	57.000000
99.912498	100.048808	57.000000	40.000000
99.912498	100.048808	60.000000	40.000000
99.912498	100.048808	65.000000	48.000000
100.048808	100.210116	76.000000	42.000000
100.048808	100.210116	88.000000	50.000000
100.186419	100.352300	75.000000	45.000000
100.186419	100.352300	87.000000	54.000000
100.328603	100.497100	89.000000	50.000000
100.328603	100.497100	77.000000	42.000000
100.470787	100.628675	76.000000	45.000000
100.470787	100.628675	88.000000	53.000000
100.470787	100.628675	52.000000	42.000000
100.470787	100.628675	56.000000	42.000000
100.470787	100.628675	64.000000	50.000000
100.786564	100.944452	76.000000	53.000000
101.102340	101.400522	81.000000	55.000000
101.102340	101.183866	57.000000	44.000000
101.102340	101.183866	61.000000	44.000000
101.102340	101.183866	69.000000	52.000000
101.265392	101.424554	93.000000	62.000000
101.400522	101.569380	92.000000	62.000000
101.400522	101.569380	80.000000	52.000000
101.400522	101.472633	62.000000	44.000000
101.400522	101.472633	70.000000	52.000000
101.544744	101.715896	91.000000	61.000000
101.544744	101.715896	79.000000	51.000000
101.692534	101.856082	90.000000	61.000000
101.692534	101.856082	78.000000	51.000000
101.692534	101.762620	61.000000	42.000000
101.692534	101.762620	69.000000	51.000000
101.832720	101.996268	89.000000	60.000000
101.832720	101.996268	77.000000	50.000000
101.972906	102.136789	88.000000	60.000000
101.972906	102.136789	76.000000	50.000000
101.972906	102.042992	58.000000	41.000000
101.972906	102.042992	67.000000	49.000000
102.113091	102.255275	86.000000	59.000000
102.113091	102.255275	74.000000	49.000000
102.255275	102.529196	73.000000	52.000000
102.255275	102.414518	85.000000	62.000000
102.255275	102.324020	57.000000	44.000000
102.255275	102.324020	65.000000	52.000000
102.391585	102.552451	88.000000	55.000000
102.529196	102.808253	73.000000	49.000000
102.529196	102.691979	81.000000	59.000000
102.529196	102.598960	55.000000	40.000000
102.529196	102.598960	64.000000	48.000000
102.668725	102.808253	85.000000	55.000000
102.808253	103.088625	74.000000	49.000000
102.808253	102.971251	86.000000	58.000000
102.808253	102.878018	53.000000	46.000000
102.808253	102.878018	62.000000	55.000000
102.947782	103.112094	81.000000	57.000000
103.088625	103.370311	69.000000	47.000000
103.088625	103.252937	77.000000	56.000000
103.088625	103.159046	50.000000	42.000000
103.088625	103.159046	65.000000	51.000000
103.229468	103.370311	74.000000	55.000000
103.370311	103.653954	79.000000	57.000000
103.370311	103.444568	55.000000	46.000000
103.370311	103.444568	59.000000	46.000000
103.370311	103.444568	67.000000	54.000000
103.518825	103.677987	91.000000	65.000000
103.653954	103.822813	90.000000	65.000000
103.653954	103.822813	78.000000	54.000000
103.653954	103.726066	60.000000	46.000000
103.653954	103.726066	68.000000	54.000000
103.798177	103.969329	89.000000	64.000000
103.798177	103.969329	77.000000	53.000000
103.945967	104.104391	88.000000	64.000000
103.945967	104.104391	76.000000	53.000000
103.945967	104.014953	59.000000	44.000000
103.945967	104.014953	67.000000	53.000000
104.082035	104.238556	87.000000	63.000000
104.082035	104.238556	75.000000	52.000000
104.216199	104.374061	86.000000	63.000000
104.216199	104.374061	74.000000	52.000000
104.216199	104.283281	56.000000	43.000000
104.216199	104.283281	65.000000	51.000000
104.350364	104.492548	84.000000	61.000000
104.350364	104.492548	72.000000	51.000000
104.492548	104.766468	71.000000	54.000000
104.492548	104.651790	83.000000	65.000000
104.492548	104.561293	55.000000	46.000000
104.492548	104.561293	64.000000	54.000000
104.628858	104.789723	86.000000	57.000000
104.766468	105.045526	71.000000	51.000000
104.766468	104.929252	79.000000	61.000000
104.766468	104.836233	53.000000	42.000000
104.766468	104.836233	62.000000	50.000000
104.905997	105.045526	83.000000	57.000000
105.045526	105.325897	72.000000	51.000000
105.045526	105.208524	84.000000	60.000000
105.045526	105.115290	52.000000	48.000000
105.045526	105.115290	60.000000	57.000000
105.185054	105.349366	79.000000	59.000000
105.325897	105.621383	67.000000	49.000000
105.325897	105.492516	76.000000	58.000000
105.325897	105.396318	48.000000	44.000000
105.325897	105.396318	64.000000	53.000000
105.466740	105.621383	72.000000	57.000000
105.621383	105.829710	77.000000	56.000000
105.621383	105.829710	59.000000	40.000000
105.621383	105.829710	50.000000	40.000000
105.621383	105.829710	56.000000	40.000000
105.621383	105.829710	65.000000	48.000000
105.725546	105.829710	93.000000	70.000000
105.978224	106.136823	88.000000	57.000000
105.978224	106.136823	76.000000	48.000000
106.113354	106.276929	87.000000	56.000000
106.113354	106.276929	75.000000	47.000000
106.254197	106.413292	74.000000	56.000000
106.390560	106.549656	85.000000	55.000000
106.390560	106.549656	73.000000	46.000000
106.526924	106.689332	84.000000	55.000000
106.526924	106.689332	72.000000	46.000000
106.663288	106.819540	83.000000	54.000000
106.663288	106.819540	71.000000	45.000000
106.819540	107.030818	76.000000	60.000000
106.819540	107.030818	57.000000	40.000000
106.819540	107.030818	48.000000	40.000000
106.819540	107.030818	64.000000	48.000000
106.925179	107.030818	91.000000	74.000000
107.175053	107.335436	87.000000	57.000000
107.175053	107.335436	75.000000	48.000000
107.310800	107.481322	86.000000	56.000000
107.310800	107.481322	74.000000	47.000000
107.458590	107.617685	72.000000	56.000000
107.594953	107.754049	83.000000	55.000000
107.594953	107.754049	71.000000	46.000000
107.731317	107.891378	82.000000	55.000000
107.731317	107.891378	70.000000	46.000000
107.867681	108.009865	81.000000	54.000000
107.867681	108.009865	69.000000	45.000000
108.009865	108.079964	57.000000	48.000000
108.009865	108.079964	65.000000	56.000000
108.150064	108.313612	76.000000	55.000000
108.150064	108.313612	64.000000	46.000000
108.290250	108.454133	75.000000	55.000000
108.290250	108.454133	63.000000	46.000000
108.430435	108.572619	74.000000	54.000000
108.430435	108.572619	62.000000	45.000000
108.572619	108.642719	56.000000	48.000000
108.572619	108.642719	64.000000	56.000000
108.712818	108.876366	72.000000	55.000000
108.712818	108.876366	60.000000	46.000000
108.853004	109.016887	71.000000	55.000000
108.853004	109.016887	59.000000	46.000000
108.993190	109.135374	70.000000	54.000000
108.993190	109.135374	58.000000	45.000000
109.135374	109.321573	57.000000	58.000000
109.297540	109.465688	65.000000	56.000000
109.297540	109.465688	53.000000	49.000000
109.441763	109.609455	64.000000	55.000000
109.441763	109.609455	52.000000	49.000000
109.585422	109.754147	63.000000	54.000000
109.585422	109.754147	51.000000	48.000000
109.729993	109.900019	62.000000	52.000000
109.729993	109.900019	50.000000	47.000000
109.875624	110.046843	60.000000	51.000000
109.875624	110.046843	48.000000	46.000000
110.022327	110.194874	59.000000	50.000000
110.022327	110.194874	47.000000	46.000000
110.170117	110.319007	58.000000	49.000000
110.170117	110.319007	46.000000	45.000000
110.319007	110.482943	57.000000	50.000000
110.319007	110.482943	45.000000	48.000000
110.646880	110.812359	89.000000	57.000000
110.646880	110.812359	81.000000	48.000000
110.787723	110.958875	84.000000	56.000000
110.787723	110.958875	77.000000	47.000000
110.935513	111.103325	76.000000	50.000000
110.935513	111.103325	69.000000	42.000000
111.075699	111.265599	72.000000	49.000000
111.075699	111.265599	64.000000	41.000000
111.241446	111.338059	60.000000	53.000000
111.241446	111.338059	48.000000	51.000000
111.338059	111.434672	59.000000	52.000000
111.338059	111.434672	47.000000	49.000000
111.434672	111.531286	57.000000	51.000000
111.434672	111.531286	45.000000	47.000000
111.531286	111.691709	56.000000	50.000000
111.531286	111.691709	44.000000	48.000000
111.852132	112.017611	87.000000	57.000000
111.852132	112.017611	80.000000	48.000000
111.992974	112.164126	83.000000	56.000000
111.992974	112.164126	75.000000	47.000000
112.140764	112.308577	76.000000	50.000000
112.140764	112.308577	68.000000	42.000000
112.280950	112.470623	71.000000	49.000000
112.280950	112.470623	64.000000	41.000000
112.446697	112.542399	52.000000	44.000000
112.446697	112.542399	40.000000	40.000000
112.542399	112.637644	54.000000	46.000000
112.542399	112.637644	42.000000	44.000000
112.637644	112.732433	56.000000	48.000000
112.637644	112.732433	44.000000	47.000000
112.732433	112.893728	57.000000	50.000000
112.732433	112.893728	45.000000	48.000000
113.055023	113.214185	89.000000	57.000000
113.055023	113.214185	81.000000	48.000000
113.190152	113.357737	84.000000	56.000000
113.190152	113.357737	77.000000	47.000000
113.334375	113.502335	76.000000	50.000000
113.334375	113.502335	69.000000	42.000000
113.474561	113.665252	72.000000	49.000000
113.474561	113.665252	64.000000	41.000000
113.641220	113.737364	60.000000	53.000000
113.641220	113.737364	48.000000	51.000000
113.737364	113.833521	59.000000	52.000000
113.737364	113.833521	47.000000	49.000000
113.833521	113.929678	57.000000	51.000000
113.833521	113.929678	45.000000	47.000000
113.929678	114.081196	56.000000	50.000000
113.929678	114.081196	44.000000	48.000000
114.232714	114.398193	87.000000	57.000000
114.232714	114.398193	80.000000	48.000000
114.373557	114.544709	83.000000	56.000000
114.373557	114.544709	75.000000	47.000000
114.521347	114.684895	76.000000	50.000000
114.521347	114.684895	68.000000	42.000000
114.661533	114.857897	71.000000	49.000000
114.661533	114.857897	64.000000	41.000000
114.970255	115.043077	52.000000	84.000000
114.970255	115.043077	40.000000	70.000000
115.043077	115.115899	54.000000	88.000000
115.043077	115.115899	42.000000	74.000000
115.115899	115.188721	56.000000	90.000000
115.115899	115.188721	44.000000	78.000000
115.188721	115.352658	57.000000	93.000000
115.188721	115.352658	33.000000	81.000000
115.188721	115.352658	45.000000	81.000000
115.516595	115.681363	89.000000	89.000000
115.516595	115.681363	81.000000	75.000000
115.657438	115.824338	84.000000	88.000000
115.657438	115.824338	77.000000	73.000000
115.800976	115.968789	76.000000	78.000000
115.800976	115.968789	69.000000	66.000000
115.941162	116.131062	72.000000	76.000000
115.941162	116.131062	64.000000	64.000000
116.106909	116.203522	60.000000	91.000000
116.106909	116.203522	48.000000	83.000000
116.203522	116.300136	59.000000	89.000000
116.203522	116.300136	47.000000	80.000000
116.300136	116.396749	57.000000	86.000000
116.300136	116.396749	45.000000	77.000000
116.396749	116.557172	56.000000	91.000000
116.396749	116.557172	44.000000	83.000000
116.400759	116.561182	32.000000	83.000000
116.717595	116.877039	87.000000	89.000000
116.717595	116.877039	80.000000	75.000000
116.853342	117.018888	83.000000	88.000000
116.853342	117.018888	75.000000	73.000000
116.995526	117.163646	76.000000	78.000000
116.995526	117.163646	68.000000	66.000000
117.135711	117.327235	71.000000	76.000000
117.135711	117.327235	64.000000	64.000000
117.303309	117.399010	52.000000	74.000000
117.303309	117.399010	40.000000	72.000000
117.399010	117.494256	54.000000	81.000000
117.399010	117.494256	42.000000	77.000000
117.494256	117.589045	56.000000	86.000000
117.494256	117.589045	44.000000	80.000000
117.589045	117.742897	57.000000	93.000000
117.589045	117.742897	33.000000	84.000000
117.589045	117.742897	45.000000	84.000000
117.896748	118.066318	89.000000	89.000000
117.896748	118.066318	81.000000	75.000000
118.041682	118.212833	84.000000	88.000000
118.041682	118.212833	77.000000	73.000000
118.189471	118.357753	76.000000	78.000000
118.189471	118.357753	69.000000	66.000000
118.329657	118.522240	72.000000	76.000000
118.329657	118.522240	64.000000	64.000000
118.498207	118.594351	60.000000	86.000000
118.498207	118.594351	48.000000	86.000000
118.594351	118.690508	59.000000	85.000000
118.594351	118.690508	47.000000	84.000000
118.690508	118.786666	57.000000	83.000000
118.690508	118.786666	45.000000	81.000000
118.786666	118.938184	56.000000	82.000000
118.786666	118.938184	44.000000	82.000000
118.791722	118.943240	32.000000	82.000000
119.089702	119.255181	87.000000	89.000000
119.089702	119.255181	80.000000	75.000000
119.230545	119.400758	83.000000	88.000000
119.230545	119.400758	75.000000	73.000000
119.378335	119.536330	76.000000	78.000000
119.378335	119.536330	68.000000	66.000000
119.512861	119.702721	71.000000	76.000000
119.512861	119.702721	64.000000	64.000000
119.800756	119.873578	57.000000	47.000000
119.800756	119.873578	45.000000	42.000000
119.873578	119.946400	59.000000	49.000000
119.873578	119.946400	47.000000	45.000000
119.946400	120.019222	60.000000	51.000000
119.946400	120.019222	48.000000	48.000000
120.019222	120.183159	61.000000	53.000000
120.019222	120.183159	37.000000	43.000000
120.019222	120.183159	49.000000	50.000000
120.347095	120.512574	94.000000	57.000000
120.347095	120.512574	88.000000	48.000000
120.487938	120.659090	91.000000	56.000000
120.487938	120.659090	82.000000	47.000000
120.635728	120.803849	81.000000	50.000000
120.635728	120.803849	76.000000	42.000000
120.775914	120.967678	79.000000	49.000000
120.775914	120.967678	69.000000	41.000000
120.943525	121.040138	57.000000	52.000000
120.943525	121.040138	45.000000	54.000000
121.040138	121.136752	59.000000	56.000000
121.040138	121.136752	47.000000	56.000000
121.136752	121.233365	61.000000	58.000000
121.136752	121.233365	49.000000	58.000000
121.233365	121.393788	62.000000	62.000000
121.233365	121.393788	38.000000	53.000000
121.233365	121.393788	50.000000	60.000000
121.554211	121.713427	88.000000	66.000000
121.554211	121.713427	81.000000	56.000000
121.689958	121.854163	86.000000	65.000000
121.689958	121.854163	76.000000	55.000000
121.830801	121.998761	77.000000	58.000000
121.830801	121.998761	69.000000	48.000000
121.970986	122.161571	74.000000	57.000000
121.970986	122.161571	65.000000	47.000000
122.137645	122.233347	64.000000	57.000000
122.137645	122.233347	52.000000	51.000000
122.233347	122.328592	62.000000	59.000000
122.233347	122.328592	50.000000	54.000000
122.328592	122.423381	60.000000	61.000000
122.328592	122.423381	48.000000	58.000000
122.423381	122.587318	59.000000	64.000000
122.423381	122.587318	35.000000	57.000000
122.423381	122.587318	47.000000	60.000000
122.751255	122.916734	92.000000	70.000000
122.751255	122.916734	86.000000	58.000000
122.892098	123.063813	89.000000	69.000000
122.892098	123.063813	80.000000	57.000000
123.039887	123.211200	79.000000	61.000000
123.039887	123.211200	74.000000	52.000000
123.183426	123.374238	77.000000	60.000000
123.183426	123.374238	67.000000	50.000000
123.350085	123.446698	55.000000	74.000000
123.350085	123.446698	43.000000	71.000000
123.446698	123.543312	57.000000	78.000000
123.446698	123.543312	45.000000	73.000000
123.543312	123.639925	59.000000	82.000000
123.543312	123.639925	47.000000	75.000000
123.639925	123.796995	60.000000	85.000000
123.639925	123.796995	36.000000	65.000000
123.639925	123.796995	48.000000	77.000000
123.954065	124.119544	87.000000	80.000000
123.954065	124.119544	79.000000	68.000000
124.094908	124.266060	84.000000	79.000000
124.094908	124.266060	75.000000	67.000000
124.242698	124.410658	76.000000	70.000000
124.242698	124.410658	67.000000	59.000000
124.382884	124.573696	72.000000	69.000000
124.382884	124.573696	64.000000	58.000000
124.549543	124.646156	59.000000	78.000000
124.549543	124.646156	47.000000	75.000000
124.646156	124.742769	60.000000	80.000000
124.646156	124.742769	48.000000	78.000000
124.742769	124.839383	61.000000	83.000000
124.742769	124.839383	49.000000	82.000000
124.839383	125.003319	62.000000	86.000000
124.839383	125.003319	38.000000	72.000000
124.839383	125.003319	50.000000	85.000000
125.167256	125.327089	95.000000	86.000000
125.167256	125.327089	86.000000	72.000000
125.301179	125.479988	89.000000	85.000000
125.301179	125.479988	83.000000	71.000000
125.456626	125.624747	82.000000	74.000000
125.456626	125.624747	74.000000	63.000000
125.596812	125.788577	77.000000	73.000000
125.596812	125.788577	70.000000	60.000000
125.764424	125.861037	58.000000	83.000000
125.764424	125.861037	46.000000	79.000000
125.861037	125.957650	60.000000	87.000000
125.861037	125.957650	48.000000	83.000000
125.957650	126.054263	62.000000	91.000000
125.957650	126.054263	50.000000	87.000000
126.054263	126.218200	64.000000	94.000000
126.054263	126.218200	40.000000	77.000000
126.054263	126.218200	52.000000	91.000000
126.382137	126.547616	92.000000	94.000000
126.382137	126.547616	83.000000	79.000000
126.522980	126.694131	86.000000	93.000000
126.522980	126.694131	80.000000	78.000000
126.670769	126.838729	81.000000	82.000000
126.670769	126.838729	72.000000	70.000000
126.810955	127.001768	76.000000	81.000000
126.810955	127.001768	69.000000	68.000000
126.977614	127.074227	65.000000	87.000000
126.977614	127.074227	53.000000	85.000000
127.074227	127.170841	64.000000	90.000000
127.074227	127.170841	52.000000	88.000000
127.170841	127.267454	63.000000	94.000000
127.170841	127.267454	51.000000	90.000000
127.267454	127.431391	62.000000	97.000000
127.267454	127.431391	38.000000	79.000000
127.267454	127.431391	50.000000	93.000000
127.595327	127.760806	89.000000	94.000000
127.595327	127.760806	81.000000	94.000000
127.595327	127.689218	47.000000	77.000000
127.689218	127.785443	48.000000	79.000000
127.736170	127.909468	83.000000	91.000000
127.736170	127.909468	77.000000	91.000000
127.785443	127.883960	50.000000	82.000000
127.883960	128.062528	68.000000	88.000000
127.883960	128.062528	76.000000	88.000000
127.883960	128.037020	52.000000	80.000000
127.883960	128.037020	40.000000	77.000000
128.037020	128.217386	64.000000	85.000000
128.037020	128.217386	71.000000	85.000000
128.190067	128.299810	62.000000	82.000000
128.190067	128.299810	50.000000	77.000000
128.299810	128.411859	60.000000	86.000000
128.299810	128.411859	48.000000	86.000000
128.411859	128.526484	59.000000	90.000000
128.411859	128.526484	47.000000	90.000000
128.526484	128.695020	57.000000	97.000000
128.526484	128.695020	33.000000	93.000000
128.526484	128.695020	45.000000	93.000000
128.863557	129.053350	96.000000	106.000000
128.863557	129.053350	88.000000	89.000000
128.863557	129.025724	64.000000	78.000000
128.863557	129.025724	72.000000	88.000000
129.025724	129.219098	84.000000	103.000000
129.191471	129.384845	88.000000	89.000000
129.191471	129.384845	93.000000	106.000000
129.191471	129.357218	60.000000	76.000000
129.191471	129.357218	69.000000	88.000000
129.357218	129.550579	81.000000	103.000000
129.851214	130.708556	100.000000	105.000000
129.851214	130.708556	96.000000	89.000000
129.851214	130.708556	88.000000	89.000000
129.851214	129.960796	33.000000	60.000000
129.851214	129.960796	36.000000	71.000000
129.997207	130.105729	35.000000	53.000000
129.997207	130.105729	38.000000	63.000000
130.141791	130.249281	36.000000	61.000000
130.141791	130.249281	40.000000	72.000000
130.284995	130.391465	38.000000	56.000000
130.284995	130.391465	41.000000	66.000000
130.426843	130.532482	40.000000	62.000000
130.426843	130.532482	44.000000	74.000000
130.567700	130.673339	41.000000	58.000000
130.567700	130.673339	45.000000	68.000000
130.708556	130.814195	98.000000	88.000000
130.708556	130.814195	95.000000	74.000000
130.708556	130.814195	86.000000	74.000000
130.708556	130.814195	44.000000	63.000000
130.708556	130.814195	47.000000	75.000000
130.849412	130.955051	84.000000	74.000000
130.849412	130.955051	93.000000	74.000000
130.849412	130.955051	96.000000	88.000000
130.849412	130.955051	45.000000	59.000000
130.849412	130.955051	48.000000	69.000000
130.990269	131.091616	95.000000	97.000000
130.990269	131.091616	92.000000	97.000000
130.990269	131.091616	83.000000	82.000000
130.990269	131.091616	47.000000	66.000000
130.990269	131.091616	50.000000	78.000000
131.125398	131.226746	81.000000	74.000000
131.125398	131.226746	89.000000	74.000000
131.125398	131.226746	93.000000	88.000000
131.125398	131.226746	48.000000	60.000000
131.125398	131.226746	52.000000	70.000000
131.260528	131.361876	80.000000	78.000000
131.260528	131.361876	88.000000	78.000000
131.260528	131.361876	92.000000	92.000000
131.260528	131.361876	50.000000	66.000000
131.260528	131.361876	53.000000	78.000000
131.395658	131.501297	77.000000	74.000000
131.395658	131.501297	86.000000	74.000000
131.395658	131.501297	89.000000	88.000000
131.395658	131.501297	52.000000	60.000000
131.395658	131.501297	56.000000	70.000000
131.536514	131.638787	88.000000	92.000000
131.536514	131.638787	84.000000	78.000000
131.536514	131.638787	76.000000	78.000000
131.536514	131.638787	53.000000	66.000000
131.536514	131.638787	57.000000	78.000000
131.672878	131.775151	86.000000	90.000000
131.672878	131.775151	83.000000	75.000000
131.672878	131.775151	74.000000	75.000000
131.672878	131.775151	56.000000	66.000000
131.672878	131.775151	59.000000	78.000000
131.809241	131.911514	84.000000	91.000000
131.809241	131.911514	81.000000	77.000000
131.809241	131.911514	72.000000	77.000000
131.809241	131.911514	57.000000	66.000000
131.809241	131.911514	60.000000	78.000000
131.945605	132.055898	71.000000	77.000000
131.945605	132.055898	83.000000	90.000000
131.945605	132.055898	80.000000	77.000000
131.945605	132.055898	59.000000	61.000000
131.945605	132.055898	62.000000	72.000000
132.092657	132.946512	84.000000	95.000000
132.092657	132.946512	81.000000	81.000000
132.092657	132.946512	72.000000	81.000000
132.092657	132.194930	60.000000	78.000000
132.092657	132.194930	57.000000	66.000000
132.229437	132.334096	59.000000	62.000000
132.229437	132.334096	62.000000	74.000000
132.369421	132.478641	60.000000	64.000000
132.369421	132.478641	64.000000	77.000000
132.515052	132.634102	62.000000	67.000000
132.515052	132.634102	65.000000	79.000000
132.673785	132.776058	62.000000	69.000000
132.673785	132.776058	65.000000	82.000000
132.810149	132.912421	60.000000	67.000000
132.810149	132.912421	64.000000	80.000000
132.946512	133.082876	86.000000	88.000000
132.946512	133.082876	83.000000	74.000000
132.946512	133.082876	74.000000	74.000000
132.946512	133.082876	59.000000	66.000000
132.946512	133.082876	62.000000	79.000000
133.082876	133.231390	88.000000	88.000000
133.082876	133.231390	84.000000	74.000000
133.082876	133.231390	76.000000	74.000000
133.082876	133.231390	57.000000	64.000000
133.082876	133.231390	60.000000	77.000000
133.231390	133.372233	74.000000	80.000000
133.231390	133.372233	83.000000	95.000000
133.231390	133.372233	86.000000	95.000000
133.231390	133.372233	59.000000	60.000000
133.231390	133.372233	62.000000	71.000000
133.372233	133.513076	84.000000	93.000000
133.372233	133.513076	81.000000	79.000000
133.372233	133.513076	72.000000	79.000000
133.372233	133.513076	60.000000	70.000000
133.372233	133.513076	57.000000	58.000000
133.513076	133.653932	83.000000	90.000000
133.513076	133.653932	80.000000	75.000000
133.513076	133.653932	71.000000	75.000000
133.513076	133.653932	59.000000	67.000000
133.513076	133.653932	56.000000	57.000000
133.653932	133.800984	69.000000	74.000000
133.653932	133.800984	77.000000	74.000000
133.653932	133.800984	81.000000	88.000000
133.653932	133.800984	53.000000	55.000000
133.653932	133.800984	57.000000	64.000000
133.800984	134.443937	68.000000	72.000000
133.800984	134.443937	76.000000	72.000000
133.800984	134.443937	80.000000	85.000000
133.800984	134.443937	52.000000	51.000000
133.800984	134.443937	56.000000	62.000000
134.443937	135.303103	100.000000	105.000000
134.443937	135.303103	96.000000	89.000000
134.443937	135.303103	88.000000	89.000000
134.443937	134.555342	33.000000	60.000000
134.443937	134.555342	45.000000	71.000000
134.591753	134.700276	35.000000	53.000000
134.591753	134.700276	47.000000	63.000000
134.736338	134.843828	36.000000	61.000000
134.736338	134.843828	48.000000	72.000000
134.879541	134.986012	38.000000	56.000000
134.879541	134.986012	50.000000	66.000000
135.021390	135.127029	40.000000	62.000000
135.021390	135.127029	52.000000	74.000000
135.162246	135.267885	41.000000	58.000000
135.162246	135.267885	53.000000	68.000000
135.303103	135.408741	98.000000	88.000000
135.303103	135.408741	95.000000	74.000000
135.303103	135.408741	86.000000	74.000000
135.303103	135.408741	44.000000	63.000000
135.303103	135.408741	56.000000	75.000000
135.443959	135.549598	84.000000	74.000000
135.443959	135.549598	93.000000	74.000000
135.443959	135.549598	96.000000	88.000000
135.443959	135.549598	45.000000	59.000000
135.443959	135.549598	57.000000	69.000000
135.584815	135.686163	95.000000	97.000000
135.584815	135.686163	92.000000	97.000000
135.584815	135.686163	83.000000	82.000000
135.584815	135.686163	47.000000	66.000000
135.584815	135.686163	59.000000	78.000000
135.719945	135.821292	81.000000	74.000000
135.719945	135.821292	89.000000	74.000000
135.719945	135.821292	93.000000	88.000000
135.719945	135.821292	48.000000	60.000000
135.719945	135.821292	60.000000	70.000000
135.855075	135.956422	80.000000	78.000000
135.855075	135.956422	88.000000	78.000000
135.855075	135.956422	92.000000	92.000000
135.855075	135.956422	50.000000	66.000000
135.855075	135.956422	62.000000	78.000000
135.990205	136.095843	77.000000	74.000000
135.990205	136.095843	86.000000	74.000000
135.990205	136.095843	89.000000	88.000000
135.990205	136.095843	52.000000	60.000000
135.990205	136.095843	64.000000	70.000000
136.131061	136.233334	88.000000	92.000000
136.131061	136.233334	84.000000	78.000000
136.131061	136.233334	76.000000	78.000000
136.131061	136.233334	53.000000	66.000000
136.131061	136.233334	65.000000	78.000000
136.267424	136.369697	86.000000	91.000000
136.267424	136.369697	83.000000	77.000000
136.267424	136.369697	74.000000	77.000000
136.267424	136.369697	56.000000	66.000000
136.267424	136.369697	68.000000	78.000000
136.403788	136.506061	84.000000	93.000000
136.403788	136.506061	81.000000	78.000000
136.403788	136.506061	72.000000	78.000000
136.403788	136.506061	57.000000	66.000000
136.403788	136.506061	69.000000	78.000000
136.540152	136.650444	83.000000	92.000000
136.540152	136.650444	80.000000	78.000000
136.540152	136.650444	59.000000	61.000000
136.540152	136.650444	71.000000	72.000000
136.687204	137.528801	84.000000	91.000000
136.687204	137.528801	81.000000	77.000000
136.687204	137.528801	72.000000	77.000000
136.687204	136.789477	69.000000	78.000000
136.687204	136.789477	57.000000	66.000000
136.823983	136.928643	56.000000	62.000000
136.823983	136.928643	68.000000	74.000000
136.963968	137.072436	53.000000	64.000000
136.963968	137.072436	65.000000	77.000000
137.109022	137.219314	52.000000	67.000000
137.109022	137.219314	64.000000	79.000000
137.256074	137.358347	53.000000	69.000000
137.256074	137.358347	65.000000	82.000000
137.392437	137.494710	52.000000	67.000000
137.392437	137.494710	64.000000	80.000000
137.528801	137.665165	86.000000	88.000000
137.528801	137.665165	83.000000	74.000000
137.528801	137.665165	74.000000	74.000000
137.528801	137.665165	50.000000	66.000000
137.528801	137.665165	62.000000	79.000000
137.665165	137.813679	88.000000	88.000000
137.665165	137.813679	84.000000	74.000000
137.665165	137.813679	76.000000	74.000000
137.665165	137.813679	60.000000	77.000000
137.665165	137.813679	48.000000	64.000000
137.813679	137.954522	74.000000	80.000000
137.813679	137.954522	86.000000	95.000000
137.813679	137.954522	59.000000	71.000000
137.813679	137.954522	47.000000	60.000000
137.954522	138.095364	84.000000	93.000000
137.954522	138.095364	72.000000	79.000000
137.954522	138.095364	45.000000	58.000000
137.954522	138.095364	57.000000	70.000000
138.095364	138.236221	83.000000	90.000000
138.095364	138.236221	71.000000	75.000000
138.095364	138.236221	44.000000	57.000000
138.095364	138.236221	56.000000	67.000000
138.236221	138.383273	69.000000	74.000000
138.236221	138.383273	81.000000	88.000000
138.236221	138.383273	65.000000	64.000000
138.236221	138.383273	53.000000	55.000000
138.383273	138.971509	68.000000	72.000000
138.383273	138.971509	80.000000	85.000000
138.383273	138.971509	64.000000	62.000000
138.383273	138.971509	52.000000	51.000000
138.971509	139.690194	85.000000	105.000000
138.971509	139.549337	76.000000	89.000000
138.971509	139.690194	73.000000	89.000000
138.971509	139.091189	70.000000	82.000000
138.971509	139.091189	58.000000	69.000000
139.128297	139.235103	69.000000	75.000000
139.128297	139.235103	57.000000	63.000000
139.270481	139.375838	55.000000	62.000000
139.270481	139.375838	67.000000	74.000000
139.410774	139.514884	52.000000	62.000000
139.410774	139.514884	64.000000	74.000000
139.549337	139.690194	81.000000	100.000000
139.549337	139.654976	49.000000	61.000000
139.549337	139.654976	61.000000	73.000000
139.690194	139.795832	46.000000	61.000000
139.690194	139.795832	58.000000	72.000000
139.831050	139.936689	86.000000	88.000000
139.831050	139.936689	83.000000	62.000000
139.831050	139.936689	74.000000	62.000000
139.831050	140.112762	45.000000	60.000000
139.831050	139.936689	57.000000	71.000000
139.971906	140.077545	76.000000	74.000000
139.971906	140.077545	85.000000	74.000000
139.971906	140.077545	88.000000	88.000000
139.971906	140.077545	55.000000	71.000000
140.112762	140.214110	89.000000	89.000000
140.112762	140.214110	86.000000	74.000000
140.112762	140.214110	77.000000	74.000000
140.112762	140.214110	50.000000	58.000000
140.112762	140.214110	53.000000	69.000000
140.247892	140.349240	79.000000	77.000000
140.247892	140.349240	88.000000	77.000000
140.247892	140.349240	91.000000	91.000000
140.247892	140.349240	49.000000	59.000000
140.247892	140.349240	52.000000	70.000000
140.383022	140.484369	81.000000	79.000000
140.383022	140.484369	89.000000	79.000000
140.383022	140.484369	93.000000	93.000000
140.383022	140.484369	47.000000	60.000000
140.383022	140.484369	50.000000	71.000000
140.518152	140.623791	83.000000	80.000000
140.518152	140.623791	91.000000	80.000000
140.518152	140.623791	95.000000	93.000000
140.518152	140.623791	45.000000	61.000000
140.518152	140.623791	49.000000	73.000000
140.659008	140.761281	97.000000	96.000000
140.659008	140.761281	93.000000	81.000000
140.659008	140.761281	85.000000	81.000000
140.659008	140.761281	43.000000	62.000000
140.659008	140.761281	47.000000	74.000000
140.795372	140.897644	98.000000	97.000000
140.795372	140.897644	95.000000	82.000000
140.795372	140.897644	86.000000	82.000000
140.795372	140.897644	41.000000	63.000000
140.795372	140.897644	45.000000	75.000000
140.931735	141.034008	100.000000	100.000000
140.931735	141.034008	97.000000	84.000000
140.931735	141.034008	88.000000	84.000000
140.931735	141.034008	40.000000	66.000000
140.931735	141.034008	43.000000	78.000000
141.068099	141.178391	98.000000	86.000000
141.068099	141.178391	101.000000	102.000000
141.068099	141.178391	89.000000	86.000000
141.068099	141.178391	38.000000	67.000000
141.068099	141.178391	41.000000	79.000000
141.215151	141.933836	83.000000	105.000000
141.215151	141.792980	74.000000	89.000000
141.215151	141.933836	71.000000	89.000000
141.215151	141.334831	56.000000	69.000000
141.215151	141.334831	68.000000	82.000000
141.371940	141.478745	55.000000	63.000000
141.371940	141.478745	67.000000	75.000000
141.514124	141.619481	53.000000	62.000000
141.514124	141.619481	65.000000	74.000000
141.654417	141.758527	50.000000	62.000000
141.654417	141.758527	62.000000	74.000000
141.792980	141.933836	79.000000	100.000000
141.792980	141.898619	47.000000	61.000000
141.792980	141.898619	59.000000	73.000000
141.933836	142.039475	44.000000	61.000000
141.933836	142.039475	56.000000	72.000000
142.074692	142.180331	84.000000	88.000000
142.074692	142.180331	81.000000	62.000000
142.074692	142.180331	72.000000	62.000000
142.074692	142.356405	43.000000	60.000000
142.074692	142.180331	55.000000	71.000000
142.215549	142.321188	74.000000	74.000000
142.215549	142.321188	83.000000	74.000000
142.215549	142.321188	86.000000	88.000000
142.215549	142.321188	53.000000	71.000000
142.356405	142.457752	88.000000	89.000000
142.356405	142.457752	84.000000	74.000000
142.356405	142.457752	76.000000	74.000000
142.356405	142.457752	48.000000	58.000000
142.356405	142.457752	52.000000	69.000000
142.491535	142.592882	77.000000	77.000000
142.491535	142.592882	86.000000	77.000000
142.491535	142.592882	89.000000	91.000000
142.491535	142.592882	47.000000	59.000000
142.491535	142.592882	50.000000	70.000000
142.626664	142.728012	79.000000	79.000000
142.626664	142.728012	88.000000	79.000000
142.626664	142.728012	91.000000	93.000000
142.626664	142.728012	45.000000	60.000000
142.626664	142.728012	48.000000	71.000000
142.761794	142.867433	81.000000	80.000000
142.761794	142.867433	89.000000	80.000000
142.761794	142.867433	93.000000	93.000000
142.761794	142.867433	43.000000	61.000000
142.761794	142.867433	47.000000	73.000000
142.902651	143.004923	95.000000	96.000000
142.902651	143.004923	91.000000	81.000000
142.902651	143.004923	83.000000	81.000000
142.902651	143.004923	45.000000	74.000000
142.902651	143.004923	41.000000	62.000000
143.039014	143.141287	96.000000	97.000000
143.039014	143.141287	93.000000	82.000000
143.039014	143.141287	84.000000	82.000000
143.039014	143.141287	43.000000	75.000000
143.039014	143.141287	40.000000	63.000000
143.175378	143.277650	98.000000	100.000000
143.175378	143.277650	95.000000	84.000000
143.175378	143.277650	86.000000	84.000000
143.175378	143.277650	41.000000	78.000000
143.175378	143.277650	38.000000	66.000000
143.311741	143.422034	96.000000	86.000000
143.311741	143.422034	100.000000	102.000000
143.311741	143.422034	88.000000	86.000000
143.311741	143.422034	40.000000	79.000000
143.311741	143.422034	36.000000	67.000000
143.458794	143.598537	89.000000	88.000000
143.458794	143.598537	95.000000	88.000000
143.458794	143.598537	92.000000	88.000000
143.458794	143.598537	101.000000	104.000000
143.458794	143.598537	44.000000	70.000000
143.458794	143.598537	47.000000	70.000000
143.458794	143.598537	50.000000	83.000000
143.458794	143.598537	38.000000	70.000000
143.645127	143.745133	86.000000	84.000000
143.645127	143.745133	98.000000	100.000000
143.645127	143.745133	53.000000	74.000000
143.645127	143.745133	41.000000	62.000000
143.778473	143.879834	83.000000	81.000000
143.778473	143.879834	95.000000	96.000000
143.778473	143.879834	44.000000	62.000000
143.778473	143.879834	56.000000	74.000000
143.913616	144.014963	80.000000	81.000000
143.913616	144.014963	92.000000	96.000000
143.913616	144.014963	47.000000	62.000000
143.913616	144.014963	59.000000	74.000000
144.048746	144.155377	77.000000	79.000000
144.048746	144.155377	80.000000	79.000000
144.048746	144.155377	83.000000	79.000000
144.048746	144.155377	89.000000	93.000000
144.048746	144.155377	59.000000	67.000000
144.048746	144.155377	62.000000	79.000000
144.048746	144.155377	50.000000	67.000000
144.048746	144.155377	56.000000	67.000000
144.190916	144.297548	75.000000	73.000000
144.190916	144.297548	87.000000	86.000000
144.190916	144.297548	63.000000	69.000000
144.190916	144.297548	51.000000	58.000000
144.333087	144.441784	76.000000	78.000000
144.333087	144.441784	88.000000	92.000000
144.333087	144.441784	52.000000	61.000000
144.333087	144.441784	64.000000	73.000000
144.478020	144.590526	74.000000	83.000000
144.478020	144.590526	86.000000	99.000000
144.478020	144.590526	65.000000	78.000000
144.478020	144.590526	53.000000	66.000000
144.628023	144.766049	84.000000	88.000000
144.628023	144.766049	90.000000	88.000000
144.628023	144.766049	87.000000	88.000000
144.628023	144.766049	96.000000	104.000000
144.628023	144.766049	33.000000	70.000000
144.628023	144.766049	45.000000	83.000000
144.628023	144.766049	42.000000	70.000000
144.628023	144.766049	39.000000	70.000000
144.812063	144.912512	81.000000	84.000000
144.812063	144.912512	93.000000	100.000000
144.812063	144.912512	36.000000	62.000000
144.812063	144.912512	48.000000	74.000000
144.945999	145.047816	78.000000	81.000000
144.945999	145.047816	90.000000	96.000000
144.945999	145.047816	39.000000	62.000000
144.945999	145.047816	51.000000	74.000000
145.081746	145.183549	75.000000	81.000000
145.081746	145.183549	87.000000	96.000000
145.081746	145.183549	42.000000	62.000000
145.081746	145.183549	54.000000	74.000000
145.217479	145.324070	72.000000	79.000000
145.217479	145.324070	75.000000	79.000000
145.217479	145.324070	78.000000	79.000000
145.217479	145.324070	84.000000	93.000000
145.217479	145.324070	54.000000	67.000000
145.217479	145.324070	57.000000	79.000000
145.217479	145.324070	45.000000	67.000000
145.217479	145.324070	51.000000	67.000000
145.359784	145.468480	70.000000	73.000000
145.359784	145.468480	82.000000	86.000000
145.359784	145.468480	58.000000	69.000000
145.359784	145.468480	46.000000	58.000000
145.504717	145.613400	71.000000	78.000000
145.504717	145.613400	83.000000	92.000000
145.504717	145.613400	47.000000	61.000000
145.504717	145.613400	59.000000	73.000000
145.649637	145.762142	69.000000	83.000000
145.649637	145.762142	81.000000	99.000000
145.649637	145.762142	60.000000	78.000000
145.649637	145.762142	48.000000	66.000000
145.799639	145.907813	65.000000	74.000000
145.799639	145.907813	71.000000	74.000000
145.799639	145.907813	69.000000	74.000000
145.799639	145.907813	77.000000	88.000000
145.799639	145.907813	50.000000	62.000000
145.799639	145.907813	57.000000	62.000000
145.799639	145.907813	59.000000	74.000000
145.943875	146.046617	63.000000	71.000000
145.943875	146.046617	75.000000	84.000000
145.943875	146.046617	51.000000	67.000000
146.080869	146.183598	64.000000	68.000000
146.080869	146.183598	76.000000	81.000000
146.080869	146.183598	52.000000	67.000000
146.217850	146.327606	62.000000	68.000000
146.217850	146.327606	74.000000	81.000000
146.217850	146.327606	53.000000	67.000000
146.364191	146.470822	61.000000	67.000000
146.364191	146.470822	73.000000	79.000000
146.364191	146.653414	52.000000	67.000000
146.364191	146.653414	56.000000	67.000000
146.364191	146.653414	64.000000	79.000000
146.506362	146.616654	59.000000	61.000000
146.506362	146.616654	71.000000	73.000000
146.653414	146.771230	60.000000	66.000000
146.653414	146.771230	72.000000	78.000000
146.653414	146.977170	62.000000	73.000000
146.653414	146.977170	56.000000	61.000000
146.653414	146.977170	52.000000	61.000000
146.810498	146.935502	59.000000	70.000000
146.810498	146.935502	71.000000	83.000000
146.977170	147.731891	62.000000	71.000000
146.977170	147.731891	65.000000	71.000000
146.977170	148.337950	57.000000	71.000000
146.977170	148.337950	69.000000	84.000000
146.977170	148.337950	45.000000	61.000000
146.977170	147.731891	50.000000	61.000000
146.977170	147.731891	53.000000	73.000000
147.731891	148.337950	60.000000	66.000000
147.731891	148.337950	64.000000	78.000000
147.731891	148.337950	48.000000	56.000000
147.731891	148.337950	52.000000	66.000000
148.944008	149.136310	88.000000	58.000000
148.944008	149.136310	64.000000	49.000000
149.136310	149.287828	89.000000	50.000000
149.136310	149.287828	65.000000	42.000000
149.287828	149.439346	88.000000	50.000000
149.287828	149.439346	64.000000	42.000000
149.439346	150.490611	84.000000	55.000000
149.439346	150.490611	60.000000	46.000000
150.021868	150.256240	72.000000	37.000000
150.021868	150.256240	76.000000	37.000000
150.021868	150.256240	45.000000	31.000000
150.021868	150.256240	52.000000	31.000000
150.490611	150.659202	81.000000	54.000000
150.490611	150.659202	57.000000	45.000000
150.643283	150.786580	83.000000	50.000000
150.643283	150.786580	59.000000	42.000000
150.770661	150.913569	81.000000	50.000000
150.770661	150.913569	57.000000	42.000000
150.898039	151.037796	83.000000	53.000000
150.898039	151.037796	59.000000	45.000000
151.022266	151.162022	84.000000	50.000000
151.022266	151.162022	60.000000	42.000000
151.146492	151.286249	83.000000	50.000000
151.146492	151.286249	59.000000	42.000000
151.270719	151.410476	80.000000	53.000000
151.270719	151.410476	56.000000	45.000000
151.394946	151.534702	81.000000	49.000000
151.394946	151.534702	57.000000	41.000000
151.519172	151.659841	80.000000	49.000000
151.519172	151.659841	56.000000	41.000000
151.643399	151.791417	76.000000	52.000000
151.643399	151.791417	52.000000	44.000000
151.774975	151.943860	77.000000	46.000000
151.774975	151.943860	53.000000	39.000000
151.906550	152.221496	76.000000	47.000000
151.906550	152.221496	52.000000	39.000000
152.205054	152.402411	62.000000	34.000000
152.205054	152.402411	64.000000	34.000000
152.205054	152.402411	71.000000	34.000000
152.205054	152.402411	45.000000	28.000000
152.205054	152.402411	56.000000	28.000000
152.599781	152.792096	88.000000	58.000000
152.599781	152.792096	64.000000	49.000000
152.792096	152.944767	89.000000	50.000000
152.792096	152.944767	65.000000	42.000000
152.944767	153.097439	88.000000	50.000000
152.944767	153.097439	64.000000	42.000000
153.097439	154.141315	84.000000	55.000000
153.097439	154.141315	60.000000	46.000000
153.668870	153.905093	72.000000	42.000000
153.668870	153.905093	76.000000	42.000000
153.668870	153.905093	45.000000	35.000000
153.668870	153.905093	52.000000	35.000000
154.141315	154.536042	64.000000	50.000000
154.141315	154.272891	60.000000	60.000000
154.141315	154.272891	57.000000	50.000000
154.272891	154.404467	62.000000	59.000000
154.272891	154.404467	59.000000	49.000000
154.404467	154.536042	60.000000	63.000000
154.404467	154.536042	57.000000	52.000000
154.536042	154.908722	64.000000	57.000000
154.536042	154.660269	59.000000	70.000000
154.536042	154.660269	56.000000	59.000000
154.660269	154.784496	60.000000	71.000000
154.660269	154.784496	57.000000	59.000000
154.784496	154.908722	59.000000	75.000000
154.784496	154.908722	55.000000	63.000000
154.908722	155.293338	63.000000	63.000000
154.908722	155.036918	69.000000	81.000000
154.908722	155.036918	54.000000	68.000000
155.036918	155.165128	71.000000	75.000000
155.036918	155.165128	55.000000	63.000000
155.165128	155.293338	69.000000	76.000000
155.165128	155.293338	53.000000	64.000000
155.293338	155.758514	64.000000	63.000000
155.293338	155.424914	68.000000	83.000000
155.293338	155.424914	52.000000	70.000000
155.424914	155.556489	69.000000	74.000000
155.424914	155.556489	53.000000	63.000000
155.556489	155.758514	68.000000	77.000000
155.556489	155.758514	52.000000	63.000000
155.758514	156.006457	40.000000	81.000000
156.254387	156.446688	88.000000	58.000000
156.254387	156.446688	64.000000	49.000000
156.446688	156.598206	89.000000	50.000000
156.446688	156.598206	65.000000	42.000000
156.598206	156.749725	88.000000	50.000000
156.598206	156.749725	64.000000	42.000000
156.749725	157.800990	84.000000	55.000000
156.749725	157.800990	60.000000	46.000000
157.332247	157.566619	72.000000	37.000000
157.332247	157.566619	76.000000	37.000000
157.332247	157.566619	45.000000	31.000000
157.332247	157.566619	52.000000	31.000000
157.800990	157.969581	81.000000	54.000000
157.800990	157.969581	57.000000	45.000000
157.953662	158.096959	83.000000	50.000000
157.953662	158.096959	59.000000	42.000000
158.081040	158.223948	81.000000	50.000000
158.081040	158.223948	57.000000	42.000000
158.208418	158.348175	83.000000	53.000000
158.208418	158.348175	59.000000	45.000000
158.332645	158.472401	84.000000	50.000000
158.332645	158.472401	60.000000	42.000000
158.456871	158.596628	83.000000	50.000000
158.456871	158.596628	59.000000	42.000000
158.581098	158.720854	80.000000	53.000000
158.581098	158.720854	56.000000	45.000000
158.705324	158.845081	81.000000	49.000000
158.705324	158.845081	57.000000	41.000000
158.829551	158.970220	80.000000	49.000000
158.829551	158.970220	56.000000	41.000000
158.953778	159.101795	76.000000	52.000000
158.953778	159.101795	52.000000	44.000000
159.085353	159.254239	77.000000	46.000000
159.085353	159.254239	53.000000	39.000000
159.216929	159.531874	76.000000	47.000000
159.216929	159.531874	52.000000	39.000000
159.515433	159.712790	62.000000	34.000000
159.515433	159.712790	64.000000	34.000000
159.515433	159.712790	71.000000	34.000000
159.515433	159.712790	45.000000	28.000000
159.515433	159.712790	56.000000	28.000000
159.910160	160.102475	88.000000	58.000000
159.910160	160.102475	64.000000	49.000000
160.102475	160.255146	89.000000	50.000000
160.102475	160.255146	65.000000	42.000000
160.255146	160.407817	88.000000	50.000000
160.255146	160.407817	64.000000	42.000000
160.407817	161.451694	84.000000	55.000000
160.407817	161.451694	60.000000	46.000000
160.979249	161.215471	72.000000	42.000000
160.979249	161.215471	76.000000	42.000000
160.979249	161.215471	45.000000	35.000000
160.979249	161.215471	52.000000	35.000000
161.451694	161.846421	64.000000	50.000000
161.451694	161.583270	60.000000	60.000000
161.451694	161.583270	57.000000	50.000000
161.583270	161.714845	62.000000	59.000000
161.583270	161.714845	59.000000	49.000000
161.714845	161.846421	60.000000	63.000000
161.714845	161.846421	57.000000	52.000000
161.846421	162.219101	64.000000	57.000000
161.846421	161.970648	59.000000	70.000000
161.846421	161.970648	56.000000	59.000000
161.970648	162.094874	60.000000	71.000000
161.970648	162.094874	57.000000	59.000000
162.094874	162.219101	59.000000	75.000000
162.094874	162.219101	55.000000	63.000000
162.219101	162.603717	63.000000	63.000000
162.219101	162.347297	69.000000	81.000000
162.219101	162.347297	54.000000	68.000000
162.347297	162.475507	71.000000	75.000000
162.347297	162.475507	55.000000	63.000000
162.475507	162.603717	69.000000	76.000000
162.475507	162.603717	53.000000	64.000000
162.603717	163.068892	64.000000	63.000000
162.603717	162.735292	68.000000	83.000000
162.603717	162.735292	52.000000	70.000000
162.735292	162.866868	69.000000	74.000000
162.735292	162.866868	53.000000	63.000000
162.866868	163.068892	68.000000	77.000000
162.866868	163.068892	52.000000	63.000000
163.068892	163.320980	40.000000	81.000000
163.573081	163.765382	88.000000	58.000000
163.573081	163.765382	64.000000	49.000000
163.765382	163.916900	89.000000	50.000000
163.765382	163.916900	65.000000	42.000000
163.916900	164.068418	88.000000	50.000000
163.916900	164.068418	64.000000	42.000000
164.068418	165.119684	85.000000	55.000000
164.068418	165.119684	61.000000	46.000000
164.650941	164.885312	73.000000	37.000000
164.650941	164.885312	76.000000	37.000000
164.650941	164.885312	55.000000	31.000000
164.650941	164.885312	45.000000	31.000000
164.650941	164.885312	58.000000	31.000000
165.119684	165.306406	81.000000	54.000000
165.119684	165.306406	57.000000	45.000000
165.287751	165.455658	82.000000	50.000000
165.287751	165.455658	58.000000	42.000000
165.437003	165.605191	81.000000	50.000000
165.437003	165.605191	57.000000	42.000000
165.586254	165.756709	86.000000	53.000000
165.586254	165.756709	62.000000	45.000000
165.737773	165.914289	88.000000	50.000000
165.737773	165.914289	64.000000	42.000000
165.889291	166.108092	86.000000	50.000000
165.889291	166.108092	62.000000	42.000000
166.089290	166.509954	61.000000	64.000000
166.089290	166.374811	69.000000	75.000000
166.239681	166.391709	64.000000	59.000000
166.239681	166.391709	70.000000	69.000000
166.374811	166.528073	69.000000	69.000000
166.509954	166.928017	57.000000	63.000000
166.509954	166.799807	65.000000	73.000000
166.654874	166.863912	62.000000	58.000000
166.654874	166.863912	67.000000	68.000000
166.799807	167.068431	65.000000	68.000000
166.928017	167.249359	53.000000	77.000000
166.990003	167.249359	57.000000	80.000000
167.051989	167.249359	62.000000	82.000000
167.446730	167.639031	86.000000	58.000000
167.446730	167.639031	62.000000	49.000000
167.639031	167.790549	88.000000	50.000000
167.639031	167.790549	64.000000	42.000000
167.790549	167.942067	86.000000	50.000000
167.790549	167.942067	62.000000	42.000000
167.942067	168.993333	83.000000	55.000000
167.942067	168.993333	59.000000	46.000000
168.524590	168.758961	71.000000	37.000000
168.524590	168.758961	74.000000	37.000000
168.524590	168.758961	53.000000	31.000000
168.524590	168.758961	43.000000	31.000000
168.524590	168.758961	56.000000	31.000000
168.993333	169.180055	79.000000	54.000000
168.993333	169.180055	55.000000	45.000000
169.161400	169.329306	81.000000	50.000000
169.161400	169.329306	57.000000	42.000000
169.310652	169.478840	79.000000	50.000000
169.310652	169.478840	55.000000	42.000000
169.459903	169.630358	84.000000	53.000000
169.459903	169.630358	60.000000	45.000000
169.611421	169.787938	86.000000	50.000000
169.611421	169.787938	62.000000	42.000000
169.762939	169.981741	84.000000	50.000000
169.762939	169.981741	60.000000	42.000000
169.962938	170.383603	59.000000	64.000000
169.962938	170.248460	67.000000	75.000000
170.113330	170.265358	62.000000	59.000000
170.113330	170.265358	69.000000	69.000000
170.248460	170.401721	67.000000	69.000000
170.383603	170.801666	55.000000	63.000000
170.383603	170.673456	64.000000	73.000000
170.528523	170.737561	60.000000	58.000000
170.528523	170.737561	65.000000	68.000000
170.673456	170.952232	64.000000	68.000000
170.801666	171.244780	52.000000	77.000000
170.863652	171.244780	55.000000	80.000000
170.925638	171.244780	60.000000	82.000000
171.563923	171.770118	86.000000	58.000000
171.563923	171.770118	62.000000	49.000000
171.770118	171.942531	88.000000	50.000000
171.770118	171.942531	64.000000	42.000000
171.942531	172.114943	86.000000	50.000000
171.942531	172.114943	62.000000	42.000000
172.114943	173.619355	89.000000	55.000000
172.114943	173.619355	65.000000	46.000000
172.774284	173.196826	77.000000	37.000000
172.774284	173.196826	80.000000	37.000000
172.774284	173.196826	50.000000	31.000000
172.774284	173.196826	59.000000	31.000000
173.619355	173.703389	62.000000	40.000000
173.619355	173.703389	65.000000	40.000000
173.619355	173.703389	68.000000	48.000000
173.619355	173.703389	71.000000	49.000000
173.703389	173.787422	64.000000	37.000000
173.703389	173.787422	72.000000	37.000000
173.787422	173.824732	62.000000	37.000000
173.787422	173.824732	71.000000	37.000000
174.314893	174.521087	84.000000	58.000000
174.314893	174.521087	60.000000	49.000000
174.521087	174.693500	86.000000	50.000000
174.521087	174.693500	62.000000	42.000000
174.693500	174.865912	84.000000	50.000000
174.693500	174.865912	60.000000	42.000000
174.865912	176.284748	88.000000	55.000000
174.865912	176.284748	64.000000	46.000000
175.525254	175.905001	76.000000	37.000000
175.525254	175.905001	81.000000	37.000000
175.525254	175.905001	48.000000	31.000000
175.525254	175.905001	57.000000	31.000000
176.284748	176.368782	60.000000	40.000000
176.284748	176.368782	64.000000	48.000000
176.284748	176.368782	69.000000	49.000000
176.368782	176.452816	62.000000	37.000000
176.368782	176.452816	70.000000	37.000000
176.452816	176.490125	60.000000	37.000000
176.452816	176.490125	69.000000	37.000000
177.056045	177.131227	65.000000	51.000000
177.056045	177.131227	71.000000	51.000000
177.056045	177.551865	50.000000	31.000000
177.131227	177.206410	69.000000	35.000000
177.131227	177.206410	72.000000	35.000000
177.206410	177.244001	65.000000	31.000000
177.206410	177.244001	71.000000	31.000000
177.551865	177.628791	69.000000	53.000000
177.551865	177.628791	77.000000	53.000000
177.551865	178.048128	65.000000	32.000000
177.551865	178.048128	62.000000	32.000000
177.628791	177.705717	71.000000	36.000000
177.628791	177.705717	79.000000	36.000000
177.705717	177.744179	69.000000	32.000000
177.705717	177.744179	77.000000	32.000000
178.048128	178.124463	77.000000	38.000000
178.048128	178.124463	68.000000	55.000000
178.048128	178.124463	76.000000	55.000000
178.048128	178.552370	52.000000	33.000000
178.124463	178.200799	71.000000	38.000000
178.200799	178.238967	68.000000	34.000000
178.200799	178.238967	76.000000	34.000000
178.552370	178.627552	74.000000	57.000000
178.552370	178.627552	83.000000	57.000000
178.552370	179.043402	68.000000	35.000000
178.552370	179.043402	64.000000	35.000000
178.627552	178.702735	76.000000	39.000000
178.627552	178.702735	84.000000	39.000000
178.702735	178.740326	74.000000	35.000000
178.702735	178.740326	83.000000	35.000000
179.043402	179.119161	72.000000	59.000000
179.043402	179.119161	81.000000	59.000000
179.043402	179.611575	64.000000	36.000000
179.043402	179.611575	69.000000	36.000000
179.043402	179.611575	57.000000	36.000000
179.119161	179.194920	76.000000	41.000000
179.119161	179.194920	83.000000	41.000000
179.194920	179.232793	72.000000	36.000000
179.194920	179.232793	81.000000	36.000000
179.611575	179.692873	81.000000	51.000000
179.611575	179.692873	89.000000	51.000000
179.611575	179.855468	38.000000	31.000000
179.611575	179.855468	45.000000	31.000000
179.692873	179.774170	83.000000	35.000000
179.692873	179.774170	91.000000	35.000000
179.774170	179.814819	81.000000	31.000000
179.774170	179.814819	89.000000	31.000000
180.277997	180.700526	96.000000	45.000000
180.277997	180.700526	88.000000	38.000000
180.277997	180.700526	84.000000	38.000000
180.277997	180.700526	33.000000	31.000000
180.277997	180.700526	45.000000	31.000000
181.968125	182.070585	64.000000	82.000000
181.968125	182.070585	57.000000	66.000000
181.968125	182.070585	60.000000	66.000000
181.968125	182.070585	52.000000	84.000000
181.968125	182.070585	45.000000	71.000000
182.173046	182.255108	48.000000	51.000000
182.173046	182.255108	52.000000	61.000000
182.255108	182.337170	64.000000	68.000000
182.337170	182.419233	52.000000	61.000000
182.337170	182.419233	47.000000	51.000000
182.419233	182.501295	64.000000	68.000000
182.419233	182.501295	62.000000	57.000000
182.501295	182.592477	52.000000	61.000000
182.501295	182.592477	45.000000	51.000000
182.592477	182.660860	64.000000	65.000000
182.592477	182.660860	60.000000	52.000000
182.683658	182.774693	52.000000	71.000000
182.683658	182.774693	44.000000	60.000000
182.774693	182.865713	64.000000	76.000000
182.774693	182.865713	59.000000	56.000000
182.865713	182.952013	52.000000	64.000000
182.865713	182.952013	40.000000	54.000000
182.952013	183.038314	71.000000	67.000000
182.952013	183.038314	59.000000	50.000000
182.952013	183.038314	64.000000	50.000000
183.038314	183.129348	42.000000	53.000000
183.038314	183.129348	52.000000	63.000000
183.129348	183.220369	64.000000	59.000000
183.129348	183.220369	57.000000	63.000000
183.220369	183.321180	52.000000	63.000000
183.220369	183.321180	44.000000	53.000000
183.321180	183.396791	64.000000	58.000000
183.321180	183.396791	59.000000	60.000000
183.421990	183.520414	64.000000	82.000000
183.421990	183.520414	57.000000	66.000000
183.421990	183.520414	60.000000	66.000000
183.421990	183.520414	52.000000	84.000000
183.421990	183.520414	45.000000	71.000000
183.618838	183.703207	52.000000	61.000000
183.618838	183.703207	48.000000	51.000000
183.703207	183.787576	64.000000	68.000000
183.787576	183.871931	52.000000	61.000000
183.787576	183.871931	47.000000	51.000000
183.871931	183.956300	64.000000	68.000000
183.871931	183.956300	62.000000	57.000000
183.956300	184.046771	52.000000	61.000000
183.956300	184.046771	45.000000	51.000000
184.046771	184.114618	64.000000	65.000000
184.046771	184.114618	60.000000	52.000000
184.137229	184.231683	52.000000	71.000000
184.137229	184.231683	44.000000	60.000000
184.231683	184.326137	64.000000	71.000000
184.231683	184.326137	59.000000	56.000000
184.326137	184.413952	51.000000	64.000000
184.326137	184.413952	41.000000	54.000000
184.413952	184.501768	69.000000	63.000000
184.413952	184.501768	59.000000	50.000000
184.413952	184.501768	63.000000	50.000000
184.501768	184.599561	52.000000	63.000000
184.501768	184.599561	40.000000	53.000000
184.599561	184.697341	68.000000	63.000000
184.599561	184.697341	64.000000	50.000000
184.599561	184.697341	59.000000	50.000000
184.697341	184.805408	56.000000	63.000000
184.697341	184.805408	52.000000	53.000000
184.805408	184.886451	64.000000	63.000000
184.913474	185.015934	64.000000	69.000000
184.913474	185.015934	76.000000	86.000000
184.913474	185.015934	69.000000	69.000000
184.913474	185.015934	72.000000	69.000000
184.913474	185.015934	57.000000	88.000000
184.913474	185.015934	45.000000	74.000000
185.118395	185.199478	60.000000	66.000000
185.118395	185.199478	48.000000	55.000000
185.199478	185.280561	64.000000	59.000000
185.199478	185.280561	76.000000	74.000000
185.280561	185.361645	59.000000	66.000000
185.280561	185.361645	47.000000	55.000000
185.361645	185.442728	74.000000	74.000000
185.361645	185.442728	64.000000	59.000000
185.363670	185.445088	76.000000	59.000000
185.442728	185.537356	57.000000	66.000000
185.442728	185.537356	45.000000	55.000000
185.537356	185.608328	64.000000	56.000000
185.537356	185.608328	76.000000	72.000000
185.537356	185.608328	72.000000	56.000000
185.631985	185.724132	56.000000	77.000000
185.631985	185.724132	44.000000	65.000000
185.724132	185.816266	64.000000	62.000000
185.724132	185.816266	76.000000	77.000000
185.724132	185.816266	71.000000	62.000000
185.816266	185.903076	52.000000	71.000000
185.816266	185.903076	40.000000	60.000000
185.903076	185.989885	83.000000	69.000000
185.903076	185.989885	71.000000	54.000000
185.989885	186.081469	54.000000	69.000000
185.989885	186.081469	42.000000	57.000000
186.081469	186.173040	64.000000	54.000000
186.081469	186.173040	76.000000	69.000000
186.081469	186.173040	69.000000	59.000000
186.173040	186.275219	56.000000	69.000000
186.173040	186.275219	44.000000	57.000000
186.275219	186.351863	64.000000	54.000000
186.275219	186.351863	76.000000	69.000000
186.275219	186.351863	71.000000	58.000000
186.377411	186.475835	64.000000	69.000000
186.377411	186.475835	76.000000	86.000000
186.377411	186.475835	69.000000	69.000000
186.377411	186.475835	72.000000	69.000000
186.377411	186.475835	57.000000	88.000000
186.377411	186.475835	45.000000	74.000000
186.574259	186.657126	60.000000	67.000000
186.574259	186.657126	48.000000	56.000000
186.657126	186.739992	76.000000	76.000000
186.657126	186.739992	64.000000	64.000000
186.739992	186.822859	59.000000	68.000000
186.739992	186.822859	47.000000	57.000000
186.822859	186.905726	74.000000	78.000000
186.822859	186.905726	76.000000	66.000000
186.822859	186.905726	64.000000	66.000000
186.905726	186.996197	57.000000	71.000000
186.905726	186.996197	45.000000	59.000000
186.996197	187.064044	64.000000	61.000000
186.996197	187.064044	76.000000	77.000000
186.996197	187.064044	72.000000	61.000000
187.086655	187.184193	56.000000	83.000000
187.086655	187.184193	44.000000	71.000000
187.184193	187.281719	64.000000	67.000000
187.184193	187.281719	76.000000	84.000000
187.184193	187.281719	71.000000	67.000000
187.281719	187.369025	53.000000	81.000000
187.281719	187.369025	41.000000	69.000000
187.369025	187.456330	81.000000	80.000000
187.369025	187.456330	69.000000	63.000000
187.369025	187.456330	75.000000	63.000000
187.456330	187.550194	52.000000	81.000000
187.456330	187.550194	40.000000	66.000000
187.550194	187.644058	80.000000	81.000000
187.550194	187.644058	76.000000	63.000000
187.550194	187.644058	68.000000	63.000000
187.644058	187.742764	56.000000	67.000000
187.644058	187.742764	64.000000	81.000000
187.644058	187.742764	59.000000	67.000000
187.742764	187.824048	76.000000	82.000000
187.742764	187.824048	68.000000	69.000000
187.742764	187.824048	71.000000	69.000000
187.851139	187.953599	76.000000	92.000000
187.851139	187.953599	69.000000	72.000000
187.851139	187.953599	73.000000	75.000000
187.851139	187.953599	64.000000	72.000000
187.851139	187.953599	57.000000	92.000000
187.851139	187.953599	45.000000	77.000000
188.056059	188.137585	59.000000	69.000000
188.056059	188.137585	47.000000	58.000000
188.137585	188.219111	64.000000	62.000000
188.137585	188.219111	74.000000	62.000000
188.137585	188.219111	69.000000	62.000000
188.137585	188.219111	76.000000	78.000000
188.219111	188.300623	49.000000	58.000000
188.219111	188.300623	61.000000	69.000000
188.300623	188.382149	76.000000	73.000000
188.300623	188.382149	69.000000	62.000000
188.300623	188.382149	64.000000	62.000000
188.382149	188.471011	57.000000	69.000000
188.382149	188.471011	45.000000	58.000000
188.471011	188.537650	64.000000	59.000000
188.471011	188.537650	76.000000	75.000000
188.471011	188.537650	73.000000	59.000000
188.559872	188.652020	62.000000	81.000000
188.559872	188.652020	50.000000	68.000000
188.652020	188.744154	74.000000	67.000000
188.652020	188.744154	86.000000	84.000000
188.652020	188.744154	77.000000	67.000000
188.744154	188.830964	61.000000	68.000000
188.744154	188.830964	70.000000	81.000000
188.830964	188.917773	76.000000	63.000000
188.830964	188.917773	88.000000	79.000000
188.830964	188.917773	79.000000	63.000000
188.917773	189.009357	69.000000	79.000000
188.917773	189.009357	62.000000	65.000000
189.009357	189.100928	77.000000	63.000000
189.009357	189.100928	89.000000	79.000000
189.009357	189.100928	81.000000	63.000000
189.100928	189.197206	69.000000	79.000000
189.100928	189.197206	65.000000	65.000000
189.197206	189.269411	74.000000	63.000000
189.197206	189.269411	86.000000	79.000000
189.197206	189.269411	77.000000	63.000000
189.293484	189.394295	62.000000	72.000000
189.293484	189.394295	74.000000	90.000000
189.293484	189.394295	67.000000	72.000000
189.293484	189.394295	71.000000	72.000000
189.293484	189.394295	55.000000	92.000000
189.293484	189.394295	43.000000	77.000000
189.495106	189.577517	57.000000	69.000000
189.495106	189.577517	45.000000	58.000000
189.577517	189.659928	72.000000	65.000000
189.577517	189.659928	67.000000	65.000000
189.577517	189.659928	74.000000	78.000000
189.577517	189.659928	62.000000	65.000000
189.659928	189.742338	59.000000	69.000000
189.659928	189.742338	47.000000	58.000000
189.742338	189.824749	67.000000	65.000000
189.742338	189.824749	74.000000	78.000000
189.742338	189.824749	62.000000	65.000000
189.824749	189.913611	55.000000	69.000000
189.824749	189.913611	43.000000	58.000000
189.913611	189.980264	62.000000	59.000000
189.913611	189.980264	74.000000	75.000000
189.913611	189.980264	71.000000	59.000000
190.002486	190.096350	60.000000	81.000000
190.002486	190.096350	48.000000	68.000000
190.096350	190.190214	76.000000	67.000000
190.096350	190.190214	88.000000	84.000000
190.096350	190.190214	84.000000	67.000000
190.190214	190.278030	67.000000	81.000000
190.190214	190.278030	62.000000	68.000000
190.278030	190.365845	89.000000	79.000000
190.278030	190.365845	77.000000	63.000000
190.278030	190.365845	84.000000	63.000000
190.365845	190.459709	67.000000	79.000000
190.365845	190.459709	64.000000	65.000000
190.459709	190.553573	91.000000	79.000000
190.459709	190.553573	84.000000	63.000000
190.459709	190.553573	79.000000	63.000000
190.553573	190.660111	67.000000	79.000000
190.553573	190.660111	60.000000	65.000000
190.660111	190.740000	88.000000	79.000000
190.660111	190.740000	76.000000	65.000000
190.660111	190.740000	84.000000	65.000000
190.766635	190.865058	89.000000	92.000000
190.766635	190.865058	80.000000	72.000000
190.766635	190.865058	83.000000	77.000000
190.766635	190.865058	77.000000	72.000000
190.766635	190.865058	62.000000	92.000000
190.766635	190.865058	50.000000	77.000000
190.963482	191.087105	65.000000	58.000000
190.963482	191.087105	68.000000	58.000000
190.963482	191.087105	71.000000	69.000000
191.045893	191.169529	83.000000	65.000000
191.045893	191.169529	80.000000	65.000000
191.045893	191.169529	86.000000	78.000000
191.045893	191.169529	74.000000	65.000000
191.128317	191.251940	64.000000	58.000000
191.128317	191.251940	68.000000	58.000000
191.128317	191.251940	71.000000	69.000000
191.210728	191.338334	76.000000	65.000000
191.210728	191.338334	83.000000	65.000000
191.210728	191.338334	88.000000	78.000000
191.210728	191.338334	80.000000	65.000000
191.293153	191.428698	62.000000	58.000000
191.293153	191.428698	68.000000	58.000000
191.293153	191.428698	71.000000	69.000000
191.383516	191.473880	77.000000	59.000000
191.383516	191.473880	80.000000	59.000000
191.383516	191.473880	89.000000	75.000000
191.383516	191.473880	83.000000	59.000000
191.473880	191.615380	60.000000	68.000000
191.473880	191.615380	72.000000	81.000000
191.473880	191.615380	69.000000	68.000000
191.568213	191.705905	76.000000	67.000000
191.568213	191.705905	88.000000	84.000000
191.568213	191.705905	81.000000	67.000000
191.662547	191.792620	65.000000	65.000000
191.662547	191.792620	68.000000	77.000000
191.662547	191.792620	59.000000	65.000000
191.749262	191.882273	80.000000	60.000000
191.749262	191.882273	86.000000	75.000000
191.749262	191.882273	74.000000	60.000000
191.749262	191.882273	77.000000	60.000000
191.835978	191.974863	57.000000	63.000000
191.835978	191.974863	69.000000	75.000000
191.835978	191.974863	64.000000	63.000000
191.928568	192.069545	76.000000	60.000000
191.928568	192.069545	84.000000	75.000000
191.928568	192.069545	81.000000	60.000000
191.928568	192.069545	72.000000	60.000000
192.021158	192.166319	61.000000	63.000000
192.021158	192.166319	64.000000	75.000000
192.021158	192.166319	55.000000	63.000000
192.117932	192.214706	76.000000	63.000000
192.117932	192.214706	85.000000	75.000000
192.117932	192.214706	73.000000	63.000000
192.117932	192.214706	82.000000	63.000000
192.214706	192.365715	53.000000	68.000000
192.214706	192.365715	65.000000	81.000000
192.214706	192.365715	62.000000	68.000000
192.315383	192.464809	82.000000	67.000000
192.315383	192.464809	74.000000	67.000000
192.315383	192.464809	86.000000	84.000000
192.315383	192.464809	77.000000	67.000000
192.416047	192.562334	51.000000	65.000000
192.416047	192.562334	63.000000	77.000000
192.416047	192.562334	60.000000	65.000000
192.416047	192.562334	57.000000	65.000000
192.513572	192.663615	89.000000	61.000000
192.513572	192.663615	93.000000	76.000000
192.513572	192.663615	81.000000	61.000000
192.513572	192.663615	84.000000	61.000000
192.611097	192.768650	60.000000	64.000000
192.611097	192.768650	52.000000	64.000000
192.611097	192.768650	64.000000	77.000000
192.611097	192.768650	57.000000	64.000000
192.716132	192.879399	84.000000	62.000000
192.716132	192.879399	93.000000	78.000000
192.716132	192.879399	88.000000	62.000000
192.716132	192.879399	81.000000	62.000000
192.821168	192.995860	56.000000	65.000000
192.821168	192.995860	59.000000	65.000000
192.821168	192.995860	64.000000	79.000000
192.821168	192.995860	52.000000	65.000000
192.937629	193.054091	83.000000	65.000000
192.937629	193.054091	92.000000	79.000000
192.937629	193.054091	80.000000	65.000000
192.937629	193.054091	88.000000	65.000000
193.054091	193.519924	81.000000	67.000000
193.054091	193.519924	84.000000	68.000000
193.054091	193.519924	88.000000	71.000000
193.054091	193.519924	93.000000	83.000000
193.054091	193.519924	45.000000	72.000000
193.054091	193.519924	52.000000	72.000000
193.054091	193.519924	57.000000	84.000000
193.519924	193.801878	72.000000	68.000000
193.519924	193.801878	76.000000	68.000000
193.519924	193.801878	81.000000	75.000000
193.519924	193.801878	64.000000	61.000000
193.519924	193.801878	69.000000	69.000000
193.519924	193.801878	60.000000	61.000000
194.433847	194.735046	76.000000	43.000000
194.501908	194.559509	84.000000	57.000000
194.501908	194.559509	57.000000	43.000000
194.617109	194.676077	81.000000	45.000000
194.617109	194.676077	64.000000	36.000000
194.735046	194.795919	76.000000	46.000000
194.735046	194.795919	52.000000	36.000000
194.856791	194.919716	72.000000	40.000000
194.856791	194.919716	64.000000	36.000000
194.982641	195.051319	69.000000	41.000000
194.982641	195.051319	60.000000	38.000000
195.119997	195.180869	76.000000	43.000000
195.119997	195.180869	64.000000	35.000000
195.241742	195.305847	72.000000	43.000000
195.241742	195.305847	57.000000	33.000000
195.369952	195.423529	69.000000	43.000000
195.369952	195.441393	64.000000	34.000000
195.441393	195.747755	76.000000	43.000000
195.512820	195.570863	83.000000	57.000000
195.512820	195.570863	56.000000	43.000000
195.628906	195.688330	80.000000	45.000000
195.628906	195.688330	64.000000	36.000000
195.747755	195.822602	76.000000	46.000000
195.747755	195.822602	52.000000	36.000000
195.897449	195.960374	86.000000	46.000000
195.897449	195.960374	64.000000	36.000000
196.023298	196.083782	83.000000	50.000000
196.023298	196.083782	56.000000	43.000000
196.144266	196.204750	76.000000	46.000000
196.144266	196.204750	64.000000	36.000000
196.265234	196.329338	80.000000	43.000000
196.265234	196.329338	59.000000	33.000000
196.393443	196.451607	76.000000	43.000000
196.393443	196.467700	64.000000	34.000000
196.467700	196.770281	76.000000	43.000000
196.535265	196.592866	84.000000	57.000000
196.535265	196.592866	57.000000	43.000000
196.650466	196.710373	81.000000	45.000000
196.650466	196.710373	64.000000	36.000000
196.770281	196.842258	76.000000	46.000000
196.770281	196.842258	52.000000	36.000000
196.914235	196.977682	72.000000	46.000000
196.914235	196.977682	64.000000	36.000000
197.041130	197.101614	69.000000	44.000000
197.041130	197.101614	60.000000	41.000000
197.162098	197.222582	76.000000	51.000000
197.162098	197.222582	64.000000	36.000000
197.283066	197.347170	72.000000	45.000000
197.283066	197.347170	57.000000	33.000000
197.411275	197.465724	69.000000	43.000000
197.411275	197.485532	64.000000	34.000000
197.485532	197.809396	76.000000	43.000000
197.559789	197.622191	83.000000	57.000000
197.559789	197.622191	56.000000	43.000000
197.684593	197.746994	80.000000	45.000000
197.684593	197.746994	64.000000	36.000000
197.809396	197.880689	76.000000	42.000000
197.809396	197.880689	52.000000	36.000000
197.951982	198.017093	76.000000	35.000000
197.951982	198.017093	64.000000	36.000000
198.082203	198.145235	71.000000	43.000000
198.082203	198.145235	56.000000	39.000000
198.208267	198.283262	68.000000	38.000000
198.208267	198.283262	59.000000	33.000000
198.358257	198.690395	64.000000	44.000000
198.622347	198.925410	84.000000	43.000000
198.656371	198.925410	88.000000	43.000000
198.690395	198.747995	96.000000	57.000000
198.690395	198.747995	57.000000	43.000000
198.805596	198.865503	93.000000	45.000000
198.805596	198.865503	64.000000	36.000000
198.925410	198.985317	88.000000	46.000000
198.925410	198.985317	52.000000	36.000000
199.045224	199.108149	84.000000	40.000000
199.045224	199.108149	64.000000	36.000000
199.171074	199.239752	81.000000	41.000000
199.171074	199.239752	60.000000	38.000000
199.308430	199.369303	88.000000	43.000000
199.308430	199.369303	64.000000	35.000000
199.430175	199.494280	84.000000	43.000000
199.430175	199.494280	57.000000	33.000000
199.558385	199.619097	81.000000	43.000000
199.558385	199.629812	64.000000	34.000000
199.629812	199.944811	83.000000	43.000000
199.665526	199.944811	88.000000	43.000000
199.701240	199.761147	95.000000	57.000000
199.701240	199.761147	56.000000	43.000000
199.821054	199.882932	92.000000	45.000000
199.821054	199.882932	64.000000	36.000000
199.944811	200.019658	88.000000	46.000000
199.944811	200.019658	52.000000	36.000000
200.094505	200.157430	98.000000	46.000000
200.094505	200.157430	64.000000	36.000000
200.220355	200.280838	95.000000	50.000000
200.220355	200.280838	56.000000	43.000000
200.341322	200.401806	88.000000	46.000000
200.341322	200.401806	64.000000	36.000000
200.462290	200.526395	92.000000	43.000000
200.462290	200.526395	59.000000	33.000000
200.590500	200.654859	88.000000	43.000000
200.590500	200.664757	64.000000	34.000000
200.664757	200.979836	84.000000	43.000000
200.698539	200.979836	88.000000	43.000000
200.732322	200.794200	96.000000	57.000000
200.732322	200.794200	57.000000	43.000000
200.856079	200.917957	93.000000	45.000000
200.856079	200.917957	64.000000	36.000000
200.979836	201.051813	88.000000	46.000000
200.979836	201.051813	52.000000	36.000000
201.123790	201.187238	84.000000	46.000000
201.123790	201.187238	64.000000	36.000000
201.250686	201.311169	81.000000	44.000000
201.250686	201.311169	60.000000	41.000000
201.371653	201.432137	88.000000	51.000000
201.371653	201.432137	64.000000	36.000000
201.492621	201.556726	84.000000	45.000000
201.492621	201.556726	57.000000	33.000000
201.620831	201.680242	81.000000	43.000000
201.620831	201.695088	64.000000	34.000000
201.695088	202.014834	83.000000	43.000000
201.732223	202.014834	88.000000	43.000000
201.769358	201.830727	95.000000	57.000000
201.769358	201.830727	56.000000	43.000000
201.892096	201.953465	92.000000	45.000000
201.892096	201.953465	64.000000	36.000000
202.014834	202.086127	88.000000	42.000000
202.014834	202.086127	52.000000	36.000000
202.157420	202.222531	83.000000	35.000000
202.157420	202.222531	64.000000	36.000000
202.287642	202.350674	80.000000	42.000000
202.287642	202.350674	59.000000	37.000000
202.413706	202.488700	71.000000	35.000000
202.413706	202.488700	68.000000	29.000000
202.563695	202.763788	76.000000	42.000000
202.563695	202.843624	64.000000	36.000000
202.775563	203.075836	76.000000	55.000000
202.843624	202.958825	88.000000	74.000000
202.843624	202.958825	61.000000	55.000000
202.958825	203.075836	85.000000	58.000000
202.958825	203.075836	69.000000	46.000000
203.075836	203.195651	81.000000	59.000000
203.075836	203.195651	57.000000	46.000000
203.195651	203.321486	76.000000	52.000000
203.195651	203.321486	69.000000	46.000000
203.321486	203.386034	73.000000	49.000000
203.450581	203.572340	69.000000	57.000000
203.572340	203.700550	67.000000	60.000000
203.700550	203.833064	64.000000	63.000000
203.833064	203.893066	65.000000	71.000000
203.833064	204.084414	50.000000	61.000000
203.833064	204.084414	57.000000	61.000000
203.953067	204.018741	62.000000	64.000000
204.084414	204.145783	86.000000	68.000000
204.207152	204.270077	81.000000	64.000000
204.333002	204.393486	77.000000	63.000000
204.453969	204.514453	74.000000	55.000000
204.574937	204.639042	65.000000	59.000000
204.703147	204.769974	62.000000	59.000000
204.777404	205.085469	79.000000	52.000000
204.845465	204.965467	86.000000	70.000000
204.845465	204.965467	59.000000	52.000000
204.965467	205.085469	83.000000	55.000000
204.965467	205.085469	67.000000	43.000000
205.085469	205.205471	79.000000	56.000000
205.085469	205.205471	55.000000	43.000000
205.205471	205.331307	77.000000	49.000000
205.205471	205.331307	67.000000	43.000000
205.331307	205.395855	74.000000	46.000000
205.460402	205.582161	71.000000	54.000000
205.582161	205.710371	65.000000	57.000000
205.710371	205.842885	62.000000	59.000000
205.842885	205.902886	64.000000	67.000000
205.842885	206.094235	48.000000	57.000000
205.842885	206.094235	55.000000	57.000000
205.962887	206.028561	60.000000	60.000000
206.094235	206.155604	84.000000	64.000000
206.216973	206.279898	79.000000	60.000000
206.342823	206.403306	76.000000	59.000000
206.463790	206.524274	72.000000	52.000000
206.584758	206.648863	64.000000	56.000000
206.712968	206.792589	60.000000	50.000000
206.872210	206.933579	83.000000	60.000000
206.872210	207.117686	65.000000	43.000000
206.872210	207.117686	56.000000	36.000000
206.872210	207.117686	62.000000	36.000000
206.994948	207.056317	81.000000	59.000000
206.994948	207.056317	89.000000	45.000000
207.117686	207.178157	80.000000	59.000000
207.236656	207.295155	77.000000	58.000000
207.236656	207.295155	86.000000	45.000000
207.353828	207.412797	76.000000	59.000000
207.471765	207.531122	74.000000	57.000000
207.471765	207.531122	83.000000	43.000000
207.590547	207.649971	72.000000	58.000000
207.709825	207.769732	71.000000	57.000000
207.709825	207.769732	80.000000	42.000000
207.829813	207.890203	69.000000	57.000000
207.829813	208.071373	64.000000	43.000000
207.829813	208.071373	60.000000	36.000000
207.950593	208.010983	67.000000	56.000000
207.950593	208.010983	76.000000	45.000000
208.071373	208.131763	65.000000	50.000000
208.192153	208.252543	64.000000	50.000000
208.192153	208.252543	72.000000	44.000000
208.312933	208.373323	62.000000	50.000000
208.433713	208.494103	60.000000	50.000000
208.433713	208.494103	69.000000	43.000000
208.554493	208.614883	59.000000	50.000000
208.675273	208.743334	57.000000	49.000000
208.675273	208.743334	64.000000	41.000000
208.811395	208.871785	65.000000	50.000000
208.932175	208.992565	50.000000	50.000000
209.052955	209.113345	81.000000	56.000000
209.052955	209.113345	71.000000	47.000000
209.173735	209.234125	77.000000	50.000000
209.173735	209.234125	74.000000	42.000000
209.294515	209.354905	68.000000	50.000000
209.415295	209.475685	52.000000	50.000000
209.536075	209.599523	83.000000	56.000000
209.536075	209.599523	71.000000	47.000000
209.662970	209.726418	80.000000	49.000000
209.662970	209.726418	74.000000	41.000000
209.789866	209.861843	81.000000	50.000000
209.789866	209.861843	72.000000	42.000000
209.933820	210.017907	69.000000	47.000000
209.933820	210.017907	64.000000	39.000000
210.101995	210.201733	60.000000	47.000000
210.301471	210.447959	57.000000	42.000000
210.594448	211.180391	45.000000	43.000000
211.757576	213.959698	93.000000	62.000000
211.757576	214.733153	81.000000	43.000000
211.757576	214.733153	84.000000	43.000000
211.757576	214.733153	69.000000	43.000000
211.757576	211.820232	76.000000	18.000000
211.820232	211.882312	77.000000	18.000000
211.882312	211.943627	76.000000	18.000000
211.943627	212.004205	77.000000	18.000000
212.004205	212.064407	76.000000	19.000000
212.064407	212.123899	77.000000	19.000000
212.123899	212.183041	76.000000	20.000000
212.183041	212.242707	77.000000	20.000000
212.242707	212.302199	76.000000	21.000000
212.302199	212.361167	77.000000	21.000000
212.361167	212.419961	76.000000	21.000000
212.419961	212.478232	77.000000	22.000000
212.478232	212.536007	76.000000	22.000000
212.536007	212.593607	77.000000	22.000000
212.593607	212.651208	76.000000	23.000000
212.651208	212.708808	77.000000	23.000000
212.708808	212.766409	76.000000	23.000000
212.766409	212.824009	77.000000	24.000000
212.824009	212.881610	76.000000	24.000000
212.881610	212.939720	77.000000	24.000000
212.939720	212.998688	76.000000	25.000000
212.998688	213.059078	77.000000	26.000000
213.059078	213.120970	76.000000	27.000000
213.120970	213.184431	77.000000	28.000000
213.184431	213.248697	76.000000	29.000000
213.248697	213.316128	77.000000	29.000000
213.316128	213.383559	76.000000	31.000000
213.383559	213.447824	77.000000	31.000000
213.447824	213.511487	76.000000	33.000000
213.511487	213.574344	77.000000	33.000000
213.574344	213.636424	76.000000	32.000000
213.636424	213.698504	77.000000	32.000000
213.698504	213.761160	76.000000	32.000000
213.761160	213.824823	77.000000	32.000000
213.824823	213.891690	76.000000	31.000000
213.891690	213.959698	77.000000	29.000000
213.959698	214.348578	88.000000	58.000000
213.959698	214.026324	76.000000	28.000000
214.026324	214.093164	77.000000	29.000000
214.093164	214.160005	76.000000	29.000000
214.160005	214.222004	77.000000	29.000000
214.222004	214.284299	76.000000	29.000000
214.284299	214.348578	77.000000	29.000000
214.348578	214.733153	96.000000	61.000000
214.348578	214.414989	76.000000	28.000000
214.414989	214.480409	77.000000	27.000000
214.480409	214.541724	76.000000	27.000000
214.541724	214.604380	77.000000	27.000000
214.604380	214.668043	76.000000	27.000000
214.668043	214.733153	77.000000	26.000000
214.733153	215.124622	95.000000	61.000000
214.733153	217.727667	83.000000	42.000000
214.733153	216.203367	88.000000	42.000000
214.733153	217.727667	69.000000	43.000000
214.733153	217.727667	74.000000	43.000000
214.733153	214.799122	76.000000	26.000000
214.799122	214.865078	77.000000	26.000000
214.865078	214.931047	76.000000	27.000000
214.931047	214.997016	77.000000	27.000000
214.997016	215.062153	76.000000	27.000000
215.062153	215.124622	77.000000	27.000000
215.124622	215.483850	93.000000	58.000000
215.124622	215.186313	76.000000	27.000000
215.186313	215.247253	77.000000	27.000000
215.247253	215.307455	76.000000	27.000000
215.307455	215.366946	77.000000	27.000000
215.366946	215.425740	76.000000	27.000000
215.425740	215.483850	77.000000	27.000000
215.483850	215.834858	92.000000	57.000000
215.483850	215.541290	76.000000	26.000000
215.541290	215.598408	77.000000	26.000000
215.598408	215.656182	76.000000	26.000000
215.656182	215.714977	77.000000	26.000000
215.714977	215.774468	76.000000	26.000000
215.774468	215.834858	77.000000	26.000000
215.834858	216.203367	90.000000	55.000000
215.834858	215.895986	76.000000	26.000000
215.895986	215.957113	77.000000	26.000000
215.957113	216.018241	76.000000	26.000000
216.018241	216.079368	77.000000	26.000000
216.079368	216.140496	76.000000	26.000000
216.140496	216.203367	77.000000	26.000000
216.203367	217.321138	88.000000	57.000000
216.203367	216.266627	76.000000	25.000000
216.266627	216.329283	77.000000	26.000000
216.329283	216.391363	76.000000	27.000000
216.391363	216.452678	77.000000	27.000000
216.452678	216.513618	76.000000	28.000000
216.513618	216.574008	77.000000	29.000000
216.574008	216.931681	90.000000	55.000000
216.574008	216.633848	76.000000	30.000000
216.633848	216.692991	77.000000	30.000000
216.692991	216.751959	76.000000	30.000000
216.751959	216.811451	77.000000	30.000000
216.811451	216.871291	76.000000	30.000000
216.871291	216.931681	77.000000	30.000000
216.931681	217.321138	92.000000	58.000000
216.931681	216.991709	76.000000	30.000000
216.991709	217.053038	77.000000	31.000000
217.053038	217.116499	76.000000	31.000000
217.116499	217.182253	77.000000	30.000000
217.182253	217.250247	76.000000	30.000000
217.250247	217.321138	77.000000	29.000000
217.321138	217.727667	88.000000	61.000000
217.321138	217.388301	76.000000	28.000000
217.388301	217.456053	77.000000	28.000000
217.456053	217.523806	76.000000	27.000000
217.523806	217.591558	77.000000	27.000000
217.591558	217.659311	76.000000	26.000000
217.659311	217.727667	77.000000	26.000000
217.727667	219.049595	93.000000	64.000000
217.727667	220.613766	84.000000	44.000000
217.727667	220.613766	88.000000	44.000000
217.727667	220.613766	72.000000	43.000000
217.727667	220.613766	69.000000	43.000000
217.727667	217.796707	76.000000	26.000000
217.796707	217.860826	77.000000	26.000000
217.860826	217.922825	76.000000	26.000000
217.922825	217.983456	77.000000	26.000000
217.983456	218.044959	76.000000	26.000000
218.044959	218.106409	77.000000	27.000000
218.106409	218.166906	76.000000	27.000000
218.166906	218.224735	77.000000	27.000000
218.224735	218.281892	76.000000	28.000000
218.281892	218.338836	77.000000	28.000000
218.338836	218.398233	76.000000	29.000000
218.398233	218.459106	77.000000	29.000000
218.459106	218.518182	76.000000	30.000000
218.518182	218.576010	77.000000	30.000000
218.576010	218.633503	76.000000	30.000000
218.633503	218.690447	77.000000	30.000000
218.690447	218.748758	76.000000	30.000000
218.748758	218.807726	77.000000	30.000000
218.807726	218.868143	76.000000	30.000000
218.868143	218.929271	77.000000	30.000000
218.929271	218.990398	76.000000	30.000000
218.990398	219.049595	95.000000	53.000000
218.990398	219.049595	77.000000	30.000000
219.049595	219.166137	93.000000	47.000000
219.049595	219.107866	76.000000	30.000000
219.107866	219.166137	92.000000	47.000000
219.107866	219.166137	77.000000	30.000000
219.166137	219.515763	93.000000	65.000000
219.166137	219.224408	76.000000	28.000000
219.224408	219.282679	77.000000	29.000000
219.282679	219.340950	76.000000	30.000000
219.340950	219.399221	77.000000	32.000000
219.399221	219.457492	76.000000	32.000000
219.457492	219.515763	77.000000	32.000000
219.515763	219.865564	95.000000	61.000000
219.515763	219.574034	76.000000	33.000000
219.574034	219.632305	77.000000	33.000000
219.632305	219.690576	76.000000	33.000000
219.690576	219.748847	77.000000	33.000000
219.748847	219.807118	76.000000	33.000000
219.807118	219.865564	77.000000	33.000000
219.865564	220.219374	96.000000	62.000000
219.865564	219.924532	76.000000	31.000000
219.924532	219.983500	77.000000	31.000000
219.983500	220.042469	76.000000	32.000000
220.042469	220.101437	77.000000	32.000000
220.101437	220.160406	76.000000	33.000000
220.160406	220.219374	77.000000	33.000000
220.219374	220.613766	98.000000	65.000000
220.219374	220.280126	76.000000	36.000000
220.280126	220.342394	77.000000	36.000000
220.342394	220.407075	76.000000	36.000000
220.407075	220.473473	77.000000	37.000000
220.473473	220.542634	76.000000	37.000000
220.542634	220.613766	77.000000	37.000000
220.613766	223.514832	86.000000	46.000000
220.613766	221.654772	99.000000	69.000000
220.613766	223.514832	92.000000	46.000000
220.613766	223.514832	71.000000	43.000000
220.613766	223.514832	69.000000	43.000000
220.613766	220.687514	76.000000	37.000000
220.687514	220.750184	77.000000	36.000000
220.750184	220.808978	76.000000	36.000000
220.808978	220.867249	77.000000	36.000000
220.867249	220.925023	76.000000	35.000000
220.925023	220.982624	77.000000	35.000000
220.982624	221.039742	76.000000	32.000000
221.039742	221.096524	77.000000	31.000000
221.096524	221.152837	76.000000	31.000000
221.152837	221.208667	77.000000	30.000000
221.208667	221.264189	76.000000	30.000000
221.264189	221.319255	77.000000	30.000000
221.319255	221.374321	76.000000	29.000000
221.374321	221.429842	77.000000	29.000000
221.429842	221.485525	76.000000	30.000000
221.485525	221.541677	77.000000	31.000000
221.541677	221.597990	76.000000	32.000000
221.597990	221.654772	77.000000	33.000000
221.654772	222.037645	100.000000	60.000000
221.654772	221.712386	76.000000	34.000000
221.712386	221.771355	77.000000	32.000000
221.771355	221.831745	76.000000	31.000000
221.831745	221.893436	77.000000	29.000000
221.893436	221.961497	76.000000	28.000000
221.961497	222.037645	77.000000	26.000000
222.037645	223.514832	88.000000	65.000000
222.037645	222.099550	76.000000	24.000000
222.099550	222.161630	77.000000	24.000000
222.161630	222.222757	76.000000	24.000000
222.222757	222.282960	77.000000	24.000000
222.282960	222.342451	76.000000	24.000000
222.342451	222.400896	77.000000	24.000000
222.400896	222.458510	76.000000	25.000000
222.458510	222.515454	77.000000	23.000000
222.515454	222.572893	76.000000	23.000000
222.572893	222.630668	77.000000	23.000000
222.630668	222.688939	76.000000	23.000000
222.688939	222.747733	77.000000	23.000000
222.747733	222.807225	76.000000	21.000000
222.807225	222.866193	77.000000	21.000000
222.866193	222.924464	76.000000	21.000000
222.924464	222.983258	77.000000	21.000000
222.983258	223.042401	76.000000	21.000000
223.042401	223.102067	77.000000	21.000000
223.102067	223.162269	76.000000	19.000000
223.162269	223.223289	77.000000	19.000000
223.223289	223.286428	76.000000	19.000000
223.286428	223.355884	77.000000	19.000000
223.355884	223.432823	76.000000	19.000000
223.432823	223.514832	77.000000	19.000000
223.514832	226.507951	84.000000	43.000000
223.514832	225.734496	93.000000	62.000000
223.514832	226.507951	81.000000	43.000000
223.514832	226.507951	69.000000	43.000000
223.514832	223.591476	76.000000	19.000000
223.591476	223.658813	77.000000	18.000000
223.658813	223.718975	76.000000	18.000000
223.718975	223.779003	77.000000	18.000000
223.779003	223.839205	76.000000	19.000000
223.839205	223.898697	77.000000	19.000000
223.898697	223.957839	76.000000	20.000000
223.957839	224.017505	77.000000	20.000000
224.017505	224.076997	76.000000	21.000000
224.076997	224.135965	77.000000	21.000000
224.135965	224.194759	76.000000	21.000000
224.194759	224.253030	77.000000	22.000000
224.253030	224.310805	76.000000	22.000000
224.310805	224.368405	77.000000	22.000000
224.368405	224.426006	76.000000	23.000000
224.426006	224.483606	77.000000	23.000000
224.483606	224.541207	76.000000	23.000000
224.541207	224.598807	77.000000	24.000000
224.598807	224.656408	76.000000	24.000000
224.656408	224.714518	77.000000	24.000000
224.714518	224.773486	76.000000	25.000000
224.773486	224.833876	77.000000	26.000000
224.833876	224.895768	76.000000	27.000000
224.895768	224.959229	77.000000	28.000000
224.959229	225.023495	76.000000	29.000000
225.023495	225.090926	77.000000	29.000000
225.090926	225.158357	76.000000	31.000000
225.158357	225.222622	77.000000	31.000000
225.222622	225.286285	76.000000	33.000000
225.286285	225.349142	77.000000	33.000000
225.349142	225.411222	76.000000	32.000000
225.411222	225.473302	77.000000	32.000000
225.473302	225.535958	76.000000	32.000000
225.535958	225.599621	77.000000	32.000000
225.599621	225.666488	76.000000	31.000000
225.666488	225.734496	77.000000	29.000000
225.734496	226.123376	88.000000	63.000000
225.734496	225.801122	76.000000	28.000000
225.801122	225.867962	77.000000	29.000000
225.867962	225.934803	76.000000	29.000000
225.934803	225.996802	77.000000	29.000000
225.996802	226.059097	76.000000	29.000000
226.059097	226.123376	77.000000	29.000000
226.123376	226.507951	96.000000	62.000000
226.123376	226.189787	76.000000	28.000000
226.189787	226.255207	77.000000	27.000000
226.255207	226.316522	76.000000	27.000000
226.316522	226.379178	77.000000	27.000000
226.379178	226.442841	76.000000	27.000000
226.442841	226.507951	77.000000	26.000000
226.507951	226.899420	95.000000	61.000000
226.507951	229.502103	83.000000	42.000000
226.507951	227.978165	88.000000	42.000000
226.507951	229.502103	69.000000	43.000000
226.507951	229.502103	74.000000	43.000000
226.507951	226.573920	76.000000	26.000000
226.573920	226.639876	77.000000	26.000000
226.639876	226.705845	76.000000	27.000000
226.705845	226.771814	77.000000	27.000000
226.771814	226.836951	76.000000	27.000000
226.836951	226.899420	77.000000	27.000000
226.899420	227.258648	93.000000	57.000000
226.899420	226.961111	76.000000	27.000000
226.961111	227.022051	77.000000	27.000000
227.022051	227.082253	76.000000	27.000000
227.082253	227.141744	77.000000	27.000000
227.141744	227.200538	76.000000	27.000000
227.200538	227.258648	77.000000	27.000000
227.258648	227.609656	92.000000	57.000000
227.258648	227.316088	76.000000	26.000000
227.316088	227.373206	77.000000	26.000000
227.373206	227.430980	76.000000	26.000000
227.430980	227.489774	77.000000	26.000000
227.489774	227.549266	76.000000	26.000000
227.549266	227.609656	77.000000	26.000000
227.609656	227.978165	90.000000	57.000000
227.609656	227.670783	76.000000	26.000000
227.670783	227.731911	77.000000	26.000000
227.731911	227.793039	76.000000	26.000000
227.793039	227.854166	77.000000	26.000000
227.854166	227.915294	76.000000	26.000000
227.915294	227.978165	77.000000	26.000000
227.978165	229.095936	88.000000	58.000000
227.978165	228.041425	76.000000	25.000000
228.041425	228.104081	77.000000	26.000000
228.104081	228.166161	76.000000	27.000000
228.166161	228.227476	77.000000	27.000000
228.227476	228.288416	76.000000	28.000000
228.288416	228.348806	77.000000	29.000000
228.348806	228.706479	90.000000	57.000000
228.348806	228.408646	76.000000	30.000000
228.408646	228.467789	77.000000	30.000000
228.467789	228.526757	76.000000	30.000000
228.526757	228.586249	77.000000	30.000000
228.586249	228.646089	76.000000	30.000000
228.646089	228.706479	77.000000	30.000000
228.706479	229.095936	92.000000	58.000000
228.706479	228.766507	76.000000	30.000000
228.766507	228.827836	77.000000	30.000000
228.827836	228.891297	76.000000	30.000000
228.891297	228.957051	77.000000	30.000000
228.957051	229.025045	76.000000	30.000000
229.025045	229.095936	77.000000	30.000000
229.095936	229.502103	88.000000	61.000000
229.095936	229.163098	76.000000	30.000000
229.163098	229.230851	77.000000	29.000000
229.230851	229.298604	76.000000	29.000000
229.298604	229.366356	77.000000	29.000000
229.366356	229.434109	76.000000	29.000000
229.434109	229.502103	77.000000	29.000000
229.502103	232.384420	84.000000	44.000000
229.502103	232.384420	88.000000	44.000000
229.502103	230.834746	93.000000	64.000000
229.502103	232.384420	69.000000	43.000000
229.502103	232.384420	72.000000	43.000000
229.502103	229.571894	76.000000	26.000000
229.571894	229.639781	77.000000	26.000000
229.639781	229.705884	76.000000	26.000000
229.705884	229.770284	77.000000	26.000000
229.770284	229.833061	76.000000	26.000000
229.833061	229.894296	77.000000	27.000000
229.894296	229.954190	76.000000	27.000000
229.954190	230.013856	77.000000	27.000000
230.013856	230.073521	76.000000	28.000000
230.073521	230.133187	77.000000	28.000000
230.133187	230.192383	76.000000	29.000000
230.192383	230.251352	77.000000	29.000000
230.251352	230.310320	76.000000	30.000000
230.310320	230.369289	77.000000	30.000000
230.369289	230.428726	76.000000	30.000000
230.428726	230.488513	77.000000	30.000000
230.488513	230.548903	76.000000	30.000000
230.548903	230.606973	77.000000	30.000000
230.606973	230.663916	76.000000	30.000000
230.663916	230.720859	77.000000	30.000000
230.720859	230.777803	76.000000	30.000000
230.777803	230.834746	95.000000	53.000000
230.777803	230.834746	77.000000	30.000000
230.834746	230.951503	93.000000	47.000000
230.834746	230.893057	76.000000	30.000000
230.893057	230.951503	92.000000	47.000000
230.893057	230.951503	77.000000	30.000000
230.951503	231.301129	93.000000	65.000000
230.951503	231.009774	76.000000	28.000000
231.009774	231.068045	77.000000	29.000000
231.068045	231.126316	76.000000	30.000000
231.126316	231.184587	77.000000	32.000000
231.184587	231.242858	76.000000	32.000000
231.242858	231.301129	77.000000	32.000000
231.301129	231.650929	95.000000	60.000000
231.301129	231.359400	76.000000	33.000000
231.359400	231.417671	77.000000	33.000000
231.417671	231.475942	76.000000	33.000000
231.475942	231.534213	77.000000	33.000000
231.534213	231.592484	76.000000	33.000000
231.592484	231.650929	77.000000	33.000000
231.650929	232.004740	96.000000	62.000000
231.650929	231.709898	76.000000	31.000000
231.709898	231.768866	77.000000	31.000000
231.768866	231.827835	76.000000	32.000000
231.827835	231.886803	77.000000	32.000000
231.886803	231.945771	76.000000	33.000000
231.945771	232.004740	77.000000	33.000000
232.004740	232.384420	98.000000	64.000000
232.004740	232.064406	76.000000	36.000000
232.064406	232.125533	77.000000	36.000000
232.125533	232.188190	76.000000	36.000000
232.188190	232.253314	77.000000	37.000000
232.253314	232.322019	76.000000	37.000000
232.322019	232.384420	77.000000	37.000000
232.384420	235.297462	86.000000	46.000000
232.384420	233.407818	99.000000	66.000000
232.384420	235.297462	92.000000	46.000000
232.384420	235.297462	71.000000	43.000000
232.384420	235.297462	69.000000	43.000000
232.384420	232.444086	76.000000	37.000000
232.444086	232.503229	77.000000	36.000000
232.503229	232.562023	76.000000	36.000000
232.562023	232.620294	77.000000	36.000000
232.620294	232.678069	76.000000	35.000000
232.678069	232.735669	77.000000	35.000000
232.735669	232.792787	76.000000	32.000000
232.792787	232.849569	77.000000	31.000000
232.849569	232.905882	76.000000	31.000000
232.905882	232.961712	77.000000	30.000000
232.961712	233.017234	76.000000	30.000000
233.017234	233.072300	77.000000	30.000000
233.072300	233.127366	76.000000	29.000000
233.127366	233.182888	77.000000	29.000000
233.182888	233.238570	76.000000	30.000000
233.238570	233.294722	77.000000	31.000000
233.294722	233.351035	76.000000	32.000000
233.351035	233.407818	77.000000	33.000000
233.407818	233.790690	100.000000	60.000000
233.407818	233.465432	76.000000	31.000000
233.465432	233.524400	77.000000	30.000000
233.524400	233.584790	76.000000	29.000000
233.584790	233.646481	77.000000	28.000000
233.646481	233.714542	76.000000	26.000000
233.714542	233.790690	77.000000	25.000000
233.790690	235.297462	88.000000	65.000000
233.790690	233.852595	76.000000	26.000000
233.852595	233.914675	77.000000	26.000000
233.914675	233.975803	76.000000	26.000000
233.975803	234.036005	77.000000	25.000000
234.036005	234.095496	76.000000	25.000000
234.095496	234.153942	77.000000	25.000000
234.153942	234.211556	76.000000	24.000000
234.211556	234.268499	77.000000	24.000000
234.268499	234.325938	76.000000	24.000000
234.325938	234.383713	77.000000	24.000000
234.383713	234.441984	76.000000	23.000000
234.441984	234.500778	77.000000	23.000000
234.500778	234.560270	76.000000	22.000000
234.560270	234.619238	77.000000	20.000000
234.619238	234.677509	76.000000	20.000000
234.677509	234.736303	77.000000	20.000000
234.736303	234.795446	76.000000	20.000000
234.795446	234.855112	77.000000	20.000000
234.855112	234.914992	76.000000	19.000000
234.914992	234.976200	77.000000	19.000000
234.976200	235.039179	76.000000	19.000000
235.039179	235.109412	77.000000	19.000000
235.109412	235.211041	76.000000	19.000000
235.211041	235.297462	77.000000	19.000000
235.297462	237.150816	93.000000	62.000000
235.297462	238.204643	79.000000	43.000000
235.297462	238.204643	85.000000	43.000000
235.297462	236.765208	69.000000	43.000000
235.297462	235.385586	76.000000	18.000000
235.385586	235.455632	77.000000	18.000000
235.455632	235.520863	76.000000	18.000000
235.520863	235.584311	77.000000	18.000000
235.584311	235.645546	76.000000	19.000000
235.645546	235.705198	77.000000	19.000000
235.705198	235.763818	76.000000	20.000000
235.763818	235.823484	77.000000	20.000000
235.823484	235.882975	76.000000	21.000000
235.882975	235.941944	77.000000	21.000000
235.941944	236.000738	76.000000	21.000000
236.000738	236.059009	77.000000	22.000000
236.059009	236.116784	76.000000	22.000000
236.116784	236.174384	77.000000	22.000000
236.174384	236.231984	76.000000	23.000000
236.231984	236.289585	77.000000	23.000000
236.289585	236.347185	76.000000	23.000000
236.347185	236.404786	77.000000	24.000000
236.404786	236.462386	76.000000	24.000000
236.462386	236.520496	77.000000	24.000000
236.520496	236.579465	76.000000	25.000000
236.579465	236.639855	77.000000	26.000000
236.639855	236.701747	76.000000	27.000000
236.701747	236.765208	77.000000	28.000000
236.765208	237.508811	76.000000	34.000000
237.150816	237.508811	100.000000	55.000000
237.508811	237.866805	97.000000	55.000000
237.866805	238.204643	93.000000	59.000000
238.204643	238.542468	91.000000	61.000000
238.542468	238.880306	88.000000	58.000000
238.880306	239.218143	85.000000	57.000000
239.218143	239.567796	81.000000	56.000000
239.567796	239.917436	79.000000	56.000000
239.917436	240.267089	77.000000	55.000000
240.267089	240.626519	89.000000	59.000000
240.267089	240.626519	86.000000	50.000000
240.267089	240.626519	81.000000	50.000000
240.267089	240.626519	76.000000	54.000000
240.626519	241.075910	74.000000	52.000000
241.075910	242.900215	91.000000	62.000000
241.075910	243.990976	79.000000	43.000000
241.075910	243.990976	86.000000	43.000000
241.075910	242.510302	71.000000	43.000000
241.075910	241.148852	77.000000	18.000000
241.148852	241.209081	76.000000	18.000000
241.209081	241.269498	77.000000	18.000000
241.269498	241.330076	76.000000	18.000000
241.330076	241.390278	77.000000	19.000000
241.390278	241.449770	76.000000	19.000000
241.449770	241.508912	77.000000	20.000000
241.508912	241.568578	76.000000	20.000000
241.568578	241.628070	77.000000	21.000000
241.628070	241.687038	76.000000	21.000000
241.687038	241.745832	77.000000	21.000000
241.745832	241.804103	76.000000	22.000000
241.804103	241.861878	77.000000	22.000000
241.861878	241.919478	76.000000	22.000000
241.919478	241.977079	77.000000	23.000000
241.977079	242.034679	76.000000	23.000000
242.034679	242.092280	77.000000	23.000000
242.092280	242.149880	76.000000	24.000000
242.149880	242.207481	77.000000	24.000000
242.207481	242.265591	76.000000	24.000000
242.265591	242.324559	77.000000	25.000000
242.324559	242.384949	76.000000	26.000000
242.384949	242.446841	77.000000	27.000000
242.446841	242.510302	76.000000	28.000000
242.510302	243.274987	77.000000	33.000000
242.900215	243.274987	98.000000	55.000000
243.274987	243.632982	95.000000	55.000000
243.632982	243.990976	91.000000	59.000000
243.990976	244.348985	89.000000	61.000000
244.348985	244.690671	86.000000	58.000000
244.690671	245.032358	83.000000	57.000000
245.032358	245.374045	79.000000	56.000000
245.374045	245.723685	77.000000	56.000000
245.723685	246.078058	76.000000	55.000000
246.078058	246.467515	88.000000	59.000000
246.078058	246.467515	84.000000	50.000000
246.078058	246.467515	79.000000	50.000000
246.078058	246.467515	74.000000	54.000000
246.467515	246.895475	72.000000	52.000000
246.895475	248.726205	89.000000	62.000000
246.895475	248.726205	83.000000	43.000000
246.895475	248.334267	68.000000	40.000000
246.895475	248.334267	74.000000	43.000000
246.895475	246.967479	77.000000	18.000000
246.967479	247.032335	76.000000	18.000000
247.032335	247.093463	77.000000	18.000000
247.093463	247.154041	76.000000	18.000000
247.154041	247.214243	77.000000	19.000000
247.214243	247.273734	76.000000	19.000000
247.273734	247.332877	77.000000	20.000000
247.332877	247.392543	76.000000	20.000000
247.392543	247.452034	77.000000	21.000000
247.452034	247.511003	76.000000	21.000000
247.511003	247.569797	77.000000	21.000000
247.569797	247.628068	76.000000	22.000000
247.628068	247.685843	77.000000	22.000000
247.685843	247.743443	76.000000	22.000000
247.743443	247.801043	77.000000	23.000000
247.801043	247.858644	76.000000	23.000000
247.858644	247.916244	77.000000	23.000000
247.916244	247.973845	76.000000	24.000000
247.973845	248.031445	77.000000	24.000000
248.031445	248.089555	76.000000	24.000000
248.089555	248.148524	77.000000	25.000000
248.148524	248.208914	76.000000	26.000000
248.208914	248.270806	77.000000	27.000000
248.270806	248.334267	76.000000	28.000000
248.334267	249.079975	77.000000	32.000000
248.726205	249.079975	86.000000	55.000000
249.079975	249.433745	83.000000	55.000000
249.433745	249.787516	81.000000	59.000000
249.787516	250.145564	80.000000	55.000000
250.145564	250.491180	76.000000	55.000000
250.491180	250.840833	74.000000	50.000000
250.491180	250.840833	88.000000	55.000000
250.491180	250.840833	80.000000	46.000000
250.840833	251.236607	71.000000	50.000000
251.236607	251.598920	72.000000	53.000000
251.236607	251.598920	88.000000	53.000000
251.236607	251.598920	81.000000	45.000000
251.598920	251.961233	76.000000	55.000000
251.961233	252.310886	81.000000	55.000000
251.961233	252.310886	88.000000	53.000000
251.961233	252.310886	85.000000	45.000000
252.310886	252.660539	79.000000	55.000000
252.660539	253.022852	77.000000	55.000000
252.660539	253.022852	89.000000	55.000000
252.660539	253.022852	86.000000	46.000000
253.022852	253.385165	86.000000	53.000000
253.385165	253.747478	83.000000	53.000000
253.747478	254.109791	81.000000	53.000000
254.109791	254.521886	80.000000	55.000000
254.109791	254.521886	76.000000	41.000000
254.109791	254.521886	86.000000	49.000000
254.521886	254.933967	95.000000	55.000000
254.933967	255.346049	92.000000	51.000000
255.346049	255.705009	88.000000	44.000000
255.705009	255.839415	92.000000	43.000000
255.839415	257.373948	93.000000	43.000000
255.839415	259.060267	84.000000	45.000000
255.839415	257.373948	81.000000	38.000000
257.373948	259.060267	81.000000	30.000000
258.733453	258.842391	40.000000	70.000000
258.842391	258.951329	42.000000	76.000000
258.951329	259.060267	44.000000	80.000000
259.060267	259.622083	45.000000	83.000000
259.060267	259.622083	33.000000	70.000000
259.153903	259.247539	52.000000	70.000000
259.247539	259.341175	57.000000	70.000000
259.341175	259.434811	64.000000	79.000000
259.341175	259.434811	60.000000	67.000000
259.341175	259.622083	57.000000	80.000000
259.434811	259.528447	64.000000	68.000000
259.528447	259.622083	69.000000	68.000000
259.622083	259.712339	76.000000	80.000000
259.622083	259.712339	72.000000	68.000000
259.622083	260.163621	48.000000	84.000000
259.622083	260.163621	36.000000	71.000000
259.712339	259.802596	76.000000	70.000000
259.802596	259.892852	81.000000	69.000000
259.892852	259.983108	88.000000	81.000000
259.892852	259.983108	84.000000	68.000000
259.892852	260.163621	60.000000	80.000000
259.983108	260.073365	88.000000	73.000000
260.073365	260.163621	93.000000	73.000000
260.163621	260.256385	100.000000	81.000000
260.163621	260.256385	98.000000	68.000000
260.163621	260.720207	47.000000	84.000000
260.163621	260.720207	35.000000	71.000000
260.256385	260.349150	92.000000	72.000000
260.349150	260.441914	88.000000	72.000000
260.441914	260.534678	88.000000	80.000000
260.441914	260.534678	86.000000	68.000000
260.441914	260.720207	59.000000	78.000000
260.534678	260.627442	80.000000	72.000000
260.627442	260.720207	76.000000	68.000000
260.720207	260.817477	76.000000	75.000000
260.720207	260.817477	72.000000	63.000000
260.720207	261.332998	45.000000	83.000000
260.720207	261.332998	33.000000	70.000000
260.817477	260.914747	69.000000	71.000000
260.914747	261.012018	64.000000	66.000000
261.012018	261.332998	64.000000	65.000000
261.012018	261.332998	60.000000	55.000000
261.012018	261.332998	57.000000	78.000000
261.332998	261.484838	64.000000	73.000000
261.332998	261.484838	56.000000	62.000000
261.332998	261.484838	59.000000	62.000000
261.434225	261.535451	32.000000	59.000000
261.535451	261.636664	35.000000	61.000000
261.636664	262.178203	88.000000	86.000000
261.636664	262.178203	83.000000	73.000000
261.636664	262.178203	80.000000	73.000000
261.636664	262.178203	76.000000	73.000000
261.636664	261.726921	40.000000	62.000000
261.726921	261.817177	44.000000	63.000000
261.817177	261.907434	47.000000	64.000000
261.907434	261.997690	52.000000	66.000000
261.997690	262.087946	56.000000	65.000000
262.087946	262.178203	59.000000	67.000000
262.178203	262.719741	91.000000	86.000000
262.178203	262.719741	86.000000	73.000000
262.178203	262.719741	83.000000	73.000000
262.178203	262.719741	79.000000	73.000000
262.178203	262.268459	64.000000	68.000000
262.268459	262.358716	68.000000	69.000000
262.358716	262.448972	71.000000	71.000000
262.448972	262.539228	76.000000	75.000000
262.539228	262.629485	71.000000	72.000000
262.629485	262.719741	68.000000	72.000000
262.719741	263.281557	89.000000	86.000000
262.719741	263.281557	86.000000	73.000000
262.719741	263.281557	83.000000	73.000000
262.719741	263.281557	77.000000	73.000000
262.719741	262.813377	64.000000	71.000000
262.813377	262.907013	59.000000	70.000000
262.907013	263.000649	56.000000	69.000000
263.000649	263.094285	52.000000	68.000000
263.094285	263.187921	47.000000	67.000000
263.187921	263.281557	44.000000	66.000000
263.281557	263.616994	88.000000	81.000000
263.281557	263.616994	86.000000	68.000000
263.281557	263.616994	83.000000	68.000000
263.281557	263.616994	76.000000	68.000000
263.281557	263.375193	40.000000	65.000000
263.375193	263.469499	35.000000	64.000000
263.469499	263.616994	32.000000	63.000000
263.616994	264.191604	33.000000	70.000000
263.616994	264.191604	45.000000	83.000000
263.723424	263.817060	52.000000	70.000000
263.817060	263.910696	57.000000	70.000000
263.910696	264.004332	64.000000	79.000000
263.910696	264.004332	60.000000	67.000000
263.910696	264.191604	57.000000	80.000000
264.004332	264.097968	64.000000	68.000000
264.097968	264.191604	69.000000	68.000000
264.191604	264.281861	76.000000	80.000000
264.191604	264.281861	72.000000	68.000000
264.191604	264.733143	48.000000	84.000000
264.191604	264.733143	36.000000	71.000000
264.281861	264.372117	76.000000	70.000000
264.372117	264.462373	81.000000	69.000000
264.462373	264.552630	88.000000	81.000000
264.462373	264.552630	84.000000	68.000000
264.462373	264.733143	60.000000	80.000000
264.552630	264.642886	88.000000	73.000000
264.642886	264.733143	93.000000	73.000000
264.733143	264.823399	100.000000	81.000000
264.733143	264.823399	98.000000	68.000000
264.733143	265.289889	47.000000	84.000000
264.733143	265.289889	35.000000	71.000000
264.823399	264.915345	92.000000	72.000000
264.915345	265.008981	88.000000	72.000000
265.008981	265.102617	88.000000	80.000000
265.008981	265.102617	86.000000	68.000000
265.008981	265.289889	59.000000	78.000000
265.102617	265.196253	80.000000	72.000000
265.196253	265.289889	76.000000	68.000000
265.289889	265.387159	76.000000	75.000000
265.289889	265.387159	72.000000	63.000000
265.289889	265.907052	45.000000	83.000000
265.289889	265.907052	33.000000	70.000000
265.387159	265.484430	69.000000	71.000000
265.484430	265.581700	64.000000	66.000000
265.581700	265.907052	64.000000	65.000000
265.581700	265.907052	60.000000	55.000000
265.581700	265.907052	57.000000	78.000000
265.907052	266.068347	64.000000	73.000000
265.907052	266.068347	56.000000	52.000000
265.907052	266.068347	52.000000	72.000000
265.907052	266.068347	40.000000	61.000000
265.907052	266.068347	47.000000	61.000000
266.068347	266.192171	76.000000	61.000000
266.068347	266.192171	64.000000	51.000000
266.068347	266.192171	52.000000	53.000000
266.192171	266.314145	77.000000	62.000000
266.192171	266.314145	65.000000	52.000000
266.192171	266.314145	53.000000	54.000000
266.314145	266.434482	78.000000	63.000000
266.314145	266.434482	66.000000	53.000000
266.314145	266.434482	54.000000	55.000000
266.434482	266.553076	79.000000	65.000000
266.434482	266.553076	67.000000	55.000000
266.434482	266.553076	55.000000	56.000000
266.553076	266.669980	80.000000	66.000000
266.553076	266.669980	68.000000	56.000000
266.553076	266.669980	56.000000	57.000000
266.669980	266.785087	81.000000	68.000000
266.669980	266.785087	69.000000	57.000000
266.669980	266.785087	57.000000	58.000000
266.785087	266.900677	82.000000	69.000000
266.785087	266.900677	70.000000	58.000000
266.785087	266.900677	58.000000	59.000000
266.900677	267.017139	83.000000	71.000000
266.900677	267.017139	71.000000	60.000000
266.900677	267.017139	59.000000	61.000000
267.017139	267.133601	84.000000	72.000000
267.017139	267.133601	72.000000	61.000000
267.017139	267.133601	60.000000	62.000000
267.133601	267.250062	85.000000	74.000000
267.133601	267.250062	73.000000	62.000000
267.133601	267.250062	61.000000	63.000000
267.250062	267.367771	86.000000	75.000000
267.250062	267.367771	74.000000	63.000000
267.250062	267.367771	62.000000	64.000000
267.367771	267.488980	87.000000	77.000000
267.367771	267.488980	75.000000	65.000000
267.367771	267.488980	63.000000	65.000000
267.488980	267.614239	88.000000	80.000000
267.488980	267.614239	76.000000	68.000000
267.488980	267.614239	64.000000	66.000000
267.614239	267.743280	89.000000	83.000000
267.614239	267.743280	77.000000	70.000000
267.614239	267.743280	65.000000	64.000000
267.743280	267.963007	88.000000	77.000000
267.743280	267.963007	76.000000	65.000000
267.743280	267.963007	64.000000	63.000000
268.036245	268.145183	40.000000	70.000000
268.145183	268.254121	42.000000	76.000000
268.254121	268.363059	44.000000	80.000000
268.363059	268.924875	45.000000	83.000000
268.363059	268.924875	33.000000	70.000000
268.456695	268.550331	52.000000	70.000000
268.550331	268.643967	57.000000	70.000000
268.643967	268.737603	64.000000	79.000000
268.643967	268.737603	60.000000	67.000000
268.643967	268.924875	57.000000	80.000000
268.737603	268.831239	64.000000	68.000000
268.831239	268.924875	69.000000	68.000000
268.924875	269.015131	76.000000	80.000000
268.924875	269.015131	72.000000	68.000000
268.924875	269.466413	48.000000	84.000000
268.924875	269.466413	36.000000	71.000000
269.015131	269.105388	76.000000	70.000000
269.105388	269.195644	81.000000	69.000000
269.195644	269.285900	88.000000	81.000000
269.195644	269.285900	84.000000	68.000000
269.195644	269.466413	60.000000	80.000000
269.285900	269.376157	88.000000	73.000000
269.376157	269.466413	93.000000	73.000000
269.466413	269.559177	100.000000	81.000000
269.466413	269.559177	98.000000	68.000000
269.466413	270.022999	47.000000	84.000000
269.466413	270.022999	35.000000	71.000000
269.559177	269.651942	92.000000	72.000000
269.651942	269.744706	88.000000	72.000000
269.744706	269.837470	88.000000	80.000000
269.744706	269.837470	86.000000	68.000000
269.744706	270.022999	59.000000	78.000000
269.837470	269.930234	80.000000	72.000000
269.930234	270.022999	76.000000	68.000000
270.022999	270.120269	76.000000	75.000000
270.022999	270.120269	72.000000	63.000000
270.022999	270.635790	45.000000	83.000000
270.022999	270.635790	33.000000	70.000000
270.120269	270.217539	69.000000	71.000000
270.217539	270.314810	64.000000	66.000000
270.314810	270.635790	64.000000	65.000000
270.314810	270.635790	60.000000	55.000000
270.314810	270.635790	57.000000	78.000000
270.635790	270.787630	64.000000	73.000000
270.635790	270.787630	56.000000	62.000000
270.635790	270.787630	59.000000	62.000000
270.737017	270.838243	32.000000	59.000000
270.838243	270.939456	35.000000	61.000000
270.939456	271.480995	88.000000	86.000000
270.939456	271.480995	83.000000	73.000000
270.939456	271.480995	80.000000	73.000000
270.939456	271.480995	76.000000	73.000000
270.939456	271.029713	40.000000	62.000000
271.029713	271.119969	44.000000	63.000000
271.119969	271.210226	47.000000	64.000000
271.210226	271.300482	52.000000	66.000000
271.300482	271.390738	56.000000	65.000000
271.390738	271.480995	59.000000	67.000000
271.480995	272.022533	91.000000	86.000000
271.480995	272.022533	86.000000	73.000000
271.480995	272.022533	83.000000	73.000000
271.480995	272.022533	79.000000	73.000000
271.480995	271.571251	64.000000	68.000000
271.571251	271.661508	68.000000	69.000000
271.661508	271.751764	71.000000	71.000000
271.751764	271.842020	76.000000	75.000000
271.842020	271.932277	71.000000	72.000000
271.932277	272.022533	68.000000	72.000000
272.022533	272.584349	89.000000	86.000000
272.022533	272.584349	86.000000	73.000000
272.022533	272.584349	83.000000	73.000000
272.022533	272.584349	77.000000	73.000000
272.022533	272.116169	64.000000	71.000000
272.116169	272.209805	59.000000	70.000000
272.209805	272.303441	56.000000	69.000000
272.303441	272.397077	52.000000	68.000000
272.397077	272.490713	47.000000	67.000000
272.490713	272.584349	44.000000	66.000000
272.584349	272.919786	88.000000	81.000000
272.584349	272.919786	86.000000	68.000000
272.584349	272.919786	83.000000	68.000000
272.584349	272.919786	76.000000	68.000000
272.584349	272.677985	40.000000	65.000000
272.677985	272.772292	35.000000	64.000000
272.772292	272.919786	32.000000	63.000000
272.919786	273.494396	33.000000	70.000000
272.919786	273.494396	45.000000	83.000000
273.026216	273.119852	52.000000	70.000000
273.119852	273.213488	57.000000	70.000000
273.213488	273.307124	64.000000	79.000000
273.213488	273.307124	60.000000	67.000000
273.213488	273.494396	57.000000	80.000000
273.307124	273.400760	64.000000	68.000000
273.400760	273.494396	69.000000	68.000000
273.494396	273.584653	76.000000	80.000000
273.494396	273.584653	72.000000	68.000000
273.494396	274.035935	48.000000	84.000000
273.494396	274.035935	36.000000	71.000000
273.584653	273.674909	76.000000	70.000000
273.674909	273.765165	81.000000	69.000000
273.765165	273.855422	88.000000	81.000000
273.765165	273.855422	84.000000	68.000000
273.765165	274.035935	60.000000	80.000000
273.855422	273.945678	88.000000	73.000000
273.945678	274.035935	93.000000	73.000000
274.035935	274.126191	100.000000	81.000000
274.035935	274.126191	98.000000	68.000000
274.035935	274.592681	47.000000	84.000000
274.035935	274.592681	35.000000	71.000000
274.126191	274.218137	92.000000	72.000000
274.218137	274.311773	88.000000	72.000000
274.311773	274.405409	88.000000	80.000000
274.311773	274.405409	86.000000	68.000000
274.311773	274.592681	59.000000	78.000000
274.405409	274.499045	80.000000	72.000000
274.499045	274.592681	76.000000	68.000000
274.592681	274.689952	76.000000	75.000000
274.592681	274.689952	72.000000	63.000000
274.592681	275.209844	45.000000	83.000000
274.592681	275.209844	33.000000	70.000000
274.689952	274.787222	69.000000	71.000000
274.787222	274.884492	64.000000	66.000000
274.884492	275.209844	64.000000	65.000000
274.884492	275.209844	60.000000	55.000000
274.884492	275.209844	57.000000	78.000000
275.209844	275.371139	64.000000	73.000000
275.209844	275.371139	56.000000	52.000000
275.209844	275.371139	52.000000	72.000000
275.209844	275.371139	40.000000	61.000000
275.209844	275.371139	47.000000	61.000000
275.371139	275.494963	76.000000	61.000000
275.371139	275.494963	64.000000	51.000000
275.371139	275.494963	52.000000	53.000000
275.494963	275.616937	77.000000	62.000000
275.494963	275.616937	65.000000	52.000000
275.494963	275.616937	53.000000	54.000000
275.616937	275.737274	78.000000	63.000000
275.616937	275.737274	66.000000	53.000000
275.616937	275.737274	54.000000	55.000000
275.737274	275.855868	79.000000	65.000000
275.737274	275.855868	67.000000	55.000000
275.737274	275.855868	55.000000	56.000000
275.855868	275.972772	80.000000	66.000000
275.855868	275.972772	68.000000	56.000000
275.855868	275.972772	56.000000	57.000000
275.972772	276.087880	81.000000	68.000000
275.972772	276.087880	69.000000	57.000000
275.972772	276.087880	57.000000	58.000000
276.087880	276.203469	82.000000	69.000000
276.087880	276.203469	70.000000	58.000000
276.087880	276.203469	58.000000	59.000000
276.203469	276.319931	83.000000	71.000000
276.203469	276.319931	71.000000	60.000000
276.203469	276.319931	59.000000	61.000000
276.319931	276.436393	84.000000	72.000000
276.319931	276.436393	72.000000	61.000000
276.319931	276.436393	60.000000	62.000000
276.436393	276.552854	85.000000	74.000000
276.436393	276.552854	73.000000	62.000000
276.436393	276.552854	61.000000	63.000000
276.552854	276.670563	86.000000	75.000000
276.552854	276.670563	74.000000	63.000000
276.552854	276.670563	62.000000	64.000000
276.670563	276.791772	87.000000	77.000000
276.670563	276.791772	75.000000	65.000000
276.670563	276.791772	63.000000	65.000000
276.791772	276.917031	88.000000	80.000000
276.791772	276.917031	76.000000	68.000000
276.791772	276.917031	64.000000	66.000000
276.917031	277.046073	89.000000	83.000000
276.917031	277.046073	77.000000	70.000000
276.917031	277.046073	65.000000	64.000000
277.046073	277.449303	88.000000	77.000000
277.046073	277.449303	76.000000	65.000000
277.046073	277.449303	64.000000	63.000000
277.449303	278.023913	57.000000	72.000000
277.449303	278.023913	49.000000	61.000000
277.449303	278.023913	52.000000	61.000000
277.555733	277.649369	61.000000	60.000000
277.649369	277.743005	64.000000	60.000000
277.743005	277.836641	69.000000	70.000000
277.743005	278.023913	37.000000	68.000000
277.836641	277.930277	69.000000	61.000000
277.930277	278.023913	73.000000	61.000000
278.023913	278.114169	82.000000	73.000000
278.023913	278.114169	79.000000	62.000000
278.023913	278.565451	58.000000	74.000000
278.023913	278.565451	49.000000	62.000000
278.023913	278.565451	55.000000	62.000000
278.114169	278.204425	82.000000	64.000000
278.204425	278.294682	85.000000	64.000000
278.294682	278.384938	94.000000	76.000000
278.294682	278.384938	91.000000	64.000000
278.294682	278.565451	45.000000	68.000000
278.384938	278.475195	85.000000	67.000000
278.475195	278.565451	82.000000	67.000000
278.565451	278.655707	93.000000	74.000000
278.565451	278.655707	89.000000	62.000000
278.565451	279.122198	57.000000	76.000000
278.565451	279.122198	49.000000	64.000000
278.565451	279.122198	53.000000	64.000000
278.655707	278.747654	85.000000	66.000000
278.747654	278.841290	81.000000	66.000000
278.841290	278.934926	81.000000	72.000000
278.841290	278.934926	77.000000	61.000000
278.841290	279.122198	37.000000	68.000000
278.934926	279.028562	73.000000	72.000000
279.028562	279.122198	69.000000	64.000000
279.122198	279.219468	79.000000	63.000000
279.122198	279.219468	76.000000	45.000000
279.122198	279.739347	55.000000	78.000000
279.122198	279.739347	49.000000	60.000000
279.122198	279.739347	52.000000	66.000000
279.219468	279.316738	70.000000	69.000000
279.316738	279.414009	69.000000	65.000000
279.414009	279.511279	67.000000	64.000000
279.414009	279.511279	64.000000	54.000000
279.414009	279.739347	45.000000	71.000000
279.511279	279.608549	58.000000	63.000000
279.608549	279.739347	57.000000	61.000000
279.739347	279.888653	62.000000	67.000000
279.739347	279.888653	65.000000	77.000000
279.739347	279.888653	53.000000	77.000000
279.739347	279.888653	38.000000	65.000000
280.022669	280.122555	73.000000	55.000000
280.022669	280.287363	67.000000	55.000000
280.022669	280.155559	64.000000	66.000000
280.022669	280.155559	55.000000	56.000000
280.022669	280.155559	58.000000	56.000000
280.111477	280.210572	74.000000	54.000000
280.199575	280.298266	76.000000	55.000000
280.287363	280.385519	77.000000	56.000000
280.287363	280.547766	74.000000	56.000000
280.287363	280.418094	65.000000	69.000000
280.287363	280.418094	57.000000	58.000000
280.287363	280.418094	62.000000	58.000000
280.374616	280.472154	79.000000	57.000000
280.461345	280.558481	81.000000	58.000000
280.547766	280.644245	85.000000	59.000000
280.547766	280.802468	79.000000	59.000000
280.547766	280.676405	76.000000	71.000000
280.547766	280.676405	67.000000	60.000000
280.547766	280.676405	70.000000	60.000000
280.633529	280.729392	86.000000	60.000000
280.718851	280.812822	88.000000	61.000000
280.802468	280.894079	89.000000	62.000000
280.802468	281.041547	86.000000	62.000000
280.802468	280.924053	77.000000	73.000000
280.802468	280.924053	69.000000	62.000000
280.802468	280.924053	74.000000	62.000000
280.884048	280.973513	91.000000	63.000000
280.963669	281.051270	93.000000	64.000000
281.041547	281.130288	97.000000	64.000000
281.041547	281.282906	91.000000	64.000000
281.041547	281.160316	88.000000	76.000000
281.041547	281.160316	82.000000	64.000000
281.041547	281.160316	79.000000	64.000000
281.120310	281.210969	98.000000	65.000000
281.200817	281.293300	100.000000	66.000000
281.282906	281.409091	101.000000	67.000000
281.282906	281.409091	98.000000	67.000000
281.282906	281.409091	93.000000	67.000000
281.282906	281.409091	89.000000	78.000000
281.282906	281.409091	81.000000	66.000000
281.282906	281.409091	86.000000	66.000000
281.789804	282.364414	55.000000	72.000000
281.789804	282.364414	47.000000	61.000000
281.789804	282.364414	50.000000	61.000000
281.896234	281.989870	59.000000	60.000000
281.989870	282.083506	62.000000	60.000000
282.083506	282.177142	67.000000	70.000000
282.083506	282.364414	35.000000	68.000000
282.177142	282.270778	67.000000	61.000000
282.270778	282.364414	71.000000	61.000000
282.364414	282.454670	80.000000	73.000000
282.364414	282.454670	77.000000	62.000000
282.364414	282.905952	56.000000	74.000000
282.364414	282.905952	47.000000	62.000000
282.364414	282.905952	53.000000	62.000000
282.454670	282.544926	80.000000	64.000000
282.544926	282.635183	83.000000	64.000000
282.635183	282.725439	92.000000	76.000000
282.635183	282.725439	89.000000	64.000000
282.635183	282.905952	43.000000	68.000000
282.725439	282.815696	83.000000	67.000000
282.815696	282.905952	80.000000	67.000000
282.905952	282.996208	91.000000	74.000000
282.905952	282.996208	88.000000	62.000000
282.905952	283.462698	55.000000	76.000000
282.905952	283.462698	47.000000	64.000000
282.905952	283.462698	52.000000	64.000000
282.996208	283.088155	83.000000	66.000000
283.088155	283.181791	79.000000	66.000000
283.181791	283.275427	79.000000	72.000000
283.181791	283.275427	76.000000	61.000000
283.181791	283.462698	35.000000	68.000000
283.275427	283.369063	71.000000	69.000000
283.369063	283.462698	67.000000	64.000000
283.462698	283.559969	77.000000	63.000000
283.462698	283.559969	74.000000	45.000000
283.462698	284.079848	53.000000	78.000000
283.462698	284.079848	47.000000	61.000000
283.462698	284.079848	50.000000	66.000000
283.559969	283.657239	68.000000	69.000000
283.657239	283.754510	67.000000	65.000000
283.754510	283.851780	65.000000	64.000000
283.754510	283.851780	62.000000	54.000000
283.754510	284.079848	43.000000	71.000000
283.851780	283.949050	56.000000	63.000000
283.949050	284.079848	55.000000	61.000000
284.079848	284.229154	60.000000	65.000000
284.079848	284.229154	64.000000	77.000000
284.079848	284.229154	52.000000	73.000000
284.079848	284.229154	36.000000	65.000000
284.363170	284.463056	71.000000	55.000000
284.363170	284.627864	65.000000	55.000000
284.363170	284.496060	62.000000	66.000000
284.363170	284.496060	53.000000	56.000000
284.363170	284.496060	56.000000	56.000000
284.451978	284.551073	72.000000	54.000000
284.540076	284.638767	74.000000	55.000000
284.627864	284.726020	76.000000	56.000000
284.627864	284.888267	72.000000	56.000000
284.627864	284.758595	64.000000	69.000000
284.627864	284.758595	55.000000	58.000000
284.627864	284.758595	60.000000	58.000000
284.715117	284.812655	77.000000	57.000000
284.801846	284.898982	79.000000	58.000000
284.888267	284.984746	83.000000	59.000000
284.888267	285.142969	77.000000	59.000000
284.888267	285.016906	68.000000	60.000000
284.888267	285.016906	74.000000	71.000000
284.888267	285.016906	65.000000	60.000000
284.974030	285.069893	84.000000	60.000000
285.059352	285.153323	86.000000	61.000000
285.142969	285.234580	88.000000	62.000000
285.142969	285.382048	84.000000	62.000000
285.142969	285.264554	76.000000	73.000000
285.142969	285.264554	67.000000	62.000000
285.142969	285.264554	72.000000	62.000000
285.224549	285.314014	89.000000	63.000000
285.304170	285.391771	91.000000	64.000000
285.382048	285.470789	95.000000	64.000000
285.382048	285.623327	89.000000	64.000000
285.382048	285.500817	86.000000	76.000000
285.382048	285.500817	80.000000	64.000000
285.382048	285.500817	77.000000	64.000000
285.460811	285.551470	96.000000	65.000000
285.541318	285.634793	98.000000	66.000000
285.623327	285.760951	100.000000	67.000000
285.623327	285.760951	96.000000	67.000000
285.623327	285.760951	91.000000	67.000000
285.623327	285.760951	88.000000	78.000000
285.623327	285.760951	79.000000	66.000000
285.623327	285.760951	84.000000	66.000000
285.898562	285.987852	60.000000	68.000000
285.898562	285.987852	48.000000	63.000000
285.987852	286.077546	62.000000	72.000000
285.987852	286.077546	50.000000	67.000000
286.077546	286.167641	64.000000	73.000000
286.077546	286.167641	52.000000	70.000000
286.167641	286.451888	65.000000	82.000000
286.167641	286.451888	53.000000	76.000000
286.167641	286.451888	41.000000	76.000000
286.451888	286.717374	89.000000	76.000000
286.451888	286.717374	77.000000	64.000000
286.451888	286.717374	68.000000	70.000000
286.451888	286.717374	62.000000	59.000000
286.451888	286.717374	59.000000	59.000000
286.717374	287.003096	83.000000	78.000000
286.717374	287.003096	71.000000	66.000000
286.717374	287.003096	68.000000	70.000000
286.717374	287.003096	62.000000	60.000000
286.717374	287.003096	59.000000	60.000000
287.003096	287.092387	59.000000	69.000000
287.003096	287.272175	35.000000	62.000000
287.003096	287.272175	47.000000	74.000000
287.092387	287.182080	60.000000	73.000000
287.182080	287.272175	62.000000	75.000000
287.272175	287.556436	63.000000	83.000000
287.272175	287.556436	51.000000	80.000000
287.272175	287.556436	39.000000	80.000000
287.556436	287.821921	87.000000	78.000000
287.556436	287.821921	75.000000	66.000000
287.556436	287.821921	66.000000	71.000000
287.556436	287.821921	60.000000	60.000000
287.556436	287.821921	57.000000	60.000000
287.821921	288.110380	81.000000	79.000000
287.821921	288.110380	69.000000	67.000000
287.821921	288.110380	66.000000	69.000000
287.821921	288.110380	60.000000	59.000000
287.821921	288.110380	57.000000	56.000000
288.110380	288.199657	57.000000	70.000000
288.110380	288.379446	33.000000	64.000000
288.110380	288.379446	45.000000	76.000000
288.199657	288.289350	59.000000	74.000000
288.289350	288.379446	60.000000	77.000000
288.379446	288.663706	61.000000	86.000000
288.379446	288.663706	49.000000	81.000000
288.379446	288.663706	37.000000	81.000000
288.663706	288.929192	85.000000	79.000000
288.663706	288.929192	73.000000	67.000000
288.663706	288.929192	64.000000	73.000000
288.663706	288.929192	58.000000	62.000000
288.663706	288.929192	55.000000	62.000000
288.929192	289.217650	79.000000	81.000000
288.929192	289.217650	67.000000	69.000000
288.929192	289.217650	64.000000	74.000000
288.929192	289.217650	58.000000	62.000000
288.929192	289.217650	55.000000	62.000000
289.217650	289.310240	55.000000	72.000000
289.217650	289.491678	31.000000	65.000000
289.217650	289.491678	43.000000	77.000000
289.310240	289.401583	56.000000	76.000000
289.401583	289.491678	58.000000	78.000000
289.491678	289.783382	59.000000	88.000000
289.491678	289.783382	47.000000	85.000000
289.491678	289.783382	35.000000	85.000000
289.783382	290.063753	83.000000	81.000000
289.783382	290.063753	71.000000	69.000000
289.783382	290.063753	62.000000	74.000000
289.783382	290.063753	56.000000	63.000000
289.783382	290.063753	53.000000	63.000000
290.063753	290.351541	77.000000	83.000000
290.063753	290.351541	65.000000	70.000000
290.063753	290.351541	62.000000	75.000000
290.063753	290.351541	56.000000	64.000000
290.063753	290.351541	53.000000	64.000000
290.351541	290.444131	53.000000	73.000000
290.351541	290.632074	29.000000	66.000000
290.351541	290.632074	41.000000	79.000000
290.444131	290.537740	56.000000	77.000000
290.537740	290.632074	58.000000	79.000000
290.632074	290.929544	59.000000	89.000000
290.632074	290.929544	47.000000	87.000000
290.632074	290.929544	35.000000	87.000000
290.929544	291.215253	83.000000	83.000000
290.929544	291.215253	71.000000	70.000000
290.929544	291.215253	62.000000	76.000000
290.929544	291.215253	57.000000	64.000000
290.929544	291.215253	53.000000	64.000000
291.215253	291.503457	77.000000	85.000000
291.215253	291.503457	65.000000	72.000000
291.215253	291.503457	62.000000	77.000000
291.215253	291.503457	57.000000	65.000000
291.215253	291.503457	53.000000	65.000000
291.503457	291.598863	53.000000	75.000000
291.503457	291.798835	29.000000	68.000000
291.503457	291.798835	41.000000	81.000000
291.598863	291.697823	57.000000	79.000000
291.697823	291.798835	58.000000	81.000000
291.798835	292.106887	59.000000	92.000000
291.798835	292.106887	47.000000	88.000000
291.798835	292.106887	35.000000	88.000000
292.106887	292.389901	83.000000	85.000000
292.106887	292.389901	71.000000	72.000000
292.106887	292.389901	63.000000	78.000000
292.106887	292.389901	57.000000	66.000000
292.106887	292.389901	53.000000	66.000000
292.389901	292.702405	77.000000	86.000000
292.389901	292.702405	65.000000	73.000000
292.389901	292.702405	63.000000	78.000000
292.389901	292.702405	57.000000	66.000000
292.389901	292.702405	53.000000	66.000000
292.702405	292.813408	57.000000	94.000000
292.702405	292.813408	45.000000	81.000000
292.813408	292.936656	55.000000	97.000000
292.813408	292.936656	43.000000	84.000000
292.936656	293.061271	53.000000	100.000000
292.936656	293.061271	41.000000	87.000000
293.061271	293.352533	52.000000	102.000000
293.061271	293.352533	40.000000	91.000000
293.643794	293.980867	83.000000	92.000000
293.643794	293.980867	81.000000	92.000000
293.643794	293.980867	76.000000	78.000000
293.643794	293.980867	71.000000	78.000000
293.643794	293.980867	64.000000	82.000000
293.643794	293.980867	59.000000	82.000000
293.643794	293.980867	57.000000	69.000000
293.643794	293.980867	52.000000	69.000000
294.317941	294.644044	64.000000	98.000000
294.317941	294.644044	52.000000	90.000000
294.317941	294.644044	40.000000	76.000000
294.970134	295.331575	88.000000	91.000000
294.970134	295.331575	83.000000	91.000000
294.970134	295.331575	80.000000	77.000000
294.970134	295.331575	76.000000	77.000000
294.970134	295.331575	64.000000	82.000000
294.970134	295.331575	59.000000	82.000000
294.970134	295.331575	56.000000	69.000000
294.970134	295.331575	52.000000	69.000000
295.693016	295.967380	45.000000	89.000000
295.693016	295.967380	33.000000	75.000000
295.693016	295.967380	36.000000	75.000000
295.696409	295.970746	40.000000	75.000000
295.785915	295.877619	52.000000	60.000000
295.877619	295.967380	57.000000	60.000000
295.967380	296.057140	64.000000	70.000000
295.967380	296.057140	60.000000	70.000000
296.057140	296.146913	64.000000	61.000000
296.102027	296.236674	57.000000	79.000000
296.146913	296.236674	69.000000	61.000000
296.236674	296.324073	76.000000	73.000000
296.236674	296.324073	72.000000	62.000000
296.236674	296.367780	57.000000	84.000000
296.324073	296.411487	76.000000	64.000000
296.367780	296.498900	60.000000	80.000000
296.411487	296.498900	81.000000	64.000000
296.498900	296.586313	88.000000	76.000000
296.498900	296.586313	84.000000	64.000000
296.498900	296.630020	59.000000	85.000000
296.586313	296.678849	88.000000	67.000000
296.630020	296.776509	57.000000	81.000000
296.678849	296.776509	93.000000	67.000000
296.776509	296.870493	100.000000	74.000000
296.776509	296.870493	96.000000	62.000000
296.776509	297.052133	64.000000	87.000000
296.870493	296.962373	93.000000	66.000000
296.962373	297.052133	88.000000	66.000000
297.052133	297.141893	88.000000	72.000000
297.052133	297.141893	84.000000	61.000000
297.141893	297.231667	81.000000	67.000000
297.186780	297.321427	40.000000	82.000000
297.231667	297.321427	76.000000	64.000000
297.321427	297.414540	76.000000	63.000000
297.321427	297.414540	72.000000	45.000000
297.321427	297.461089	40.000000	87.000000
297.414540	297.507639	69.000000	69.000000
297.461089	297.600752	43.000000	82.000000
297.507639	297.600752	64.000000	65.000000
297.600752	297.693865	64.000000	64.000000
297.600752	297.693865	60.000000	54.000000
297.600752	297.740415	41.000000	88.000000
297.693865	297.789727	57.000000	63.000000
297.740415	297.888352	40.000000	82.000000
297.789727	297.888352	52.000000	61.000000
297.888352	298.162716	45.000000	89.000000
297.888352	298.162716	33.000000	75.000000
297.888352	298.162716	37.000000	75.000000
297.891745	298.166028	40.000000	75.000000
297.981251	298.072955	52.000000	60.000000
298.072955	298.162716	57.000000	60.000000
298.162716	298.250907	64.000000	70.000000
298.162716	298.250907	61.000000	70.000000
298.250907	298.339098	64.000000	61.000000
298.295002	298.427275	57.000000	80.000000
298.339098	298.427275	69.000000	61.000000
298.427275	298.515466	76.000000	73.000000
298.427275	298.515466	73.000000	62.000000
298.427275	298.559562	57.000000	85.000000
298.515466	298.603658	76.000000	64.000000
298.559562	298.691835	60.000000	79.000000
298.603658	298.691835	81.000000	64.000000
298.691835	298.780013	88.000000	76.000000
298.691835	298.780013	85.000000	64.000000
298.691835	298.824108	58.000000	84.000000
298.780013	298.871543	88.000000	67.000000
298.824108	298.966427	57.000000	81.000000
298.871543	298.966427	93.000000	67.000000
298.966427	299.061310	100.000000	74.000000
298.966427	299.061310	97.000000	62.000000
298.966427	299.244612	67.000000	85.000000
299.061310	299.154034	93.000000	66.000000
299.154034	299.244612	88.000000	66.000000
299.244612	299.335190	88.000000	72.000000
299.244612	299.335190	85.000000	61.000000
299.335190	299.425769	81.000000	67.000000
299.380479	299.516347	45.000000	83.000000
299.425769	299.516347	76.000000	64.000000
299.516347	299.613617	76.000000	63.000000
299.516347	299.613617	73.000000	45.000000
299.516347	299.662259	45.000000	88.000000
299.613617	299.708809	69.000000	69.000000
299.662259	299.801922	48.000000	83.000000
299.708809	299.801922	64.000000	65.000000
299.801922	299.895035	64.000000	64.000000
299.801922	299.895035	61.000000	54.000000
299.801922	299.941585	46.000000	88.000000
299.895035	299.989945	57.000000	63.000000
299.941585	300.086652	45.000000	81.000000
299.989945	300.086652	52.000000	61.000000
300.086652	300.366836	45.000000	75.000000
300.086652	300.366836	50.000000	89.000000
300.086652	300.366836	38.000000	75.000000
300.086652	300.366836	41.000000	75.000000
300.179564	300.273200	53.000000	60.000000
300.273200	300.366836	57.000000	60.000000
300.366836	300.460472	65.000000	70.000000
300.366836	300.460472	62.000000	70.000000
300.460472	300.554108	65.000000	61.000000
300.507290	300.647744	57.000000	81.000000
300.554108	300.647744	69.000000	61.000000
300.647744	300.738000	77.000000	73.000000
300.647744	300.738000	74.000000	62.000000
300.647744	300.783128	57.000000	85.000000
300.738000	300.826835	77.000000	64.000000
300.783128	300.914248	60.000000	78.000000
300.826835	300.914248	81.000000	64.000000
300.914248	301.001661	89.000000	76.000000
300.914248	301.001661	86.000000	64.000000
300.914248	301.045368	58.000000	84.000000
301.001661	301.089075	89.000000	67.000000
301.045368	301.176488	57.000000	75.000000
301.089075	301.176488	93.000000	67.000000
301.176488	301.263901	101.000000	74.000000
301.176488	301.263901	98.000000	62.000000
301.176488	301.443475	65.000000	87.000000
301.263901	301.352897	93.000000	66.000000
301.352897	301.443475	89.000000	66.000000
301.443475	301.534053	89.000000	72.000000
301.443475	301.534053	86.000000	61.000000
301.534053	301.624632	81.000000	67.000000
301.579342	301.715210	38.000000	83.000000
301.624632	301.715210	77.000000	64.000000
301.715210	301.809194	77.000000	63.000000
301.715210	301.809194	74.000000	45.000000
301.715210	301.856187	38.000000	91.000000
301.809194	301.903179	69.000000	69.000000
301.856187	301.997164	37.000000	84.000000
301.903179	301.997164	65.000000	65.000000
301.997164	302.091148	65.000000	66.000000
301.997164	302.091148	62.000000	66.000000
301.997164	302.138141	38.000000	89.000000
302.091148	302.185133	57.000000	66.000000
302.138141	302.279118	40.000000	82.000000
302.185133	302.279118	53.000000	68.000000
302.279118	302.821045	53.000000	90.000000
302.279118	302.821045	41.000000	76.000000
302.539091	302.821045	83.000000	87.000000
302.539091	302.821045	71.000000	73.000000
302.539091	302.821045	74.000000	73.000000
302.539091	302.821045	65.000000	82.000000
302.539091	302.821045	56.000000	69.000000
302.539091	302.821045	62.000000	69.000000
302.821045	303.364917	56.000000	91.000000
302.821045	303.364917	44.000000	77.000000
303.085591	303.364917	86.000000	87.000000
303.085591	303.364917	74.000000	73.000000
303.085591	303.364917	77.000000	73.000000
303.085591	303.364917	68.000000	83.000000
303.085591	303.364917	65.000000	70.000000
303.085591	303.364917	59.000000	70.000000
303.364917	303.916178	59.000000	90.000000
303.364917	303.916178	47.000000	76.000000
303.634224	303.916178	89.000000	87.000000
303.634224	303.916178	77.000000	73.000000
303.634224	303.916178	80.000000	73.000000
303.634224	303.916178	71.000000	82.000000
303.634224	303.916178	68.000000	69.000000
303.634224	303.916178	62.000000	69.000000
303.916178	304.460050	52.000000	92.000000
303.916178	304.460050	40.000000	78.000000
304.180725	304.460050	88.000000	87.000000
304.180725	304.460050	76.000000	73.000000
304.180725	304.460050	80.000000	73.000000
304.180725	304.460050	64.000000	85.000000
304.180725	304.460050	59.000000	72.000000
304.180725	304.460050	56.000000	72.000000
304.460050	304.734414	45.000000	89.000000
304.460050	304.734414	33.000000	75.000000
304.460050	304.734414	36.000000	75.000000
304.463443	304.737780	40.000000	75.000000
304.552949	304.644653	52.000000	60.000000
304.644653	304.734414	57.000000	60.000000
304.734414	304.824174	64.000000	70.000000
304.734414	304.824174	60.000000	70.000000
304.824174	304.913947	64.000000	61.000000
304.869060	305.003707	57.000000	81.000000
304.913947	305.003707	69.000000	61.000000
305.003707	305.091107	76.000000	73.000000
305.003707	305.091107	72.000000	62.000000
305.003707	305.134814	57.000000	86.000000
305.091107	305.178521	76.000000	64.000000
305.134814	305.265934	60.000000	80.000000
305.178521	305.265934	81.000000	64.000000
305.265934	305.353347	88.000000	76.000000
305.265934	305.353347	84.000000	64.000000
305.265934	305.397054	59.000000	88.000000
305.353347	305.443603	88.000000	67.000000
305.397054	305.536716	57.000000	80.000000
305.443603	305.536716	93.000000	67.000000
305.536716	305.627295	100.000000	74.000000
305.536716	305.627295	96.000000	62.000000
305.536716	305.807231	64.000000	89.000000
305.627295	305.717471	93.000000	66.000000
305.717471	305.807231	88.000000	66.000000
305.807231	305.896991	88.000000	72.000000
305.807231	305.896991	84.000000	61.000000
305.896991	305.986765	81.000000	67.000000
305.941878	306.076525	40.000000	82.000000
305.986765	306.076525	76.000000	64.000000
306.076525	306.169638	76.000000	63.000000
306.076525	306.169638	72.000000	45.000000
306.076525	306.216187	40.000000	87.000000
306.169638	306.262737	69.000000	69.000000
306.216187	306.355850	43.000000	82.000000
306.262737	306.355850	64.000000	65.000000
306.355850	306.448963	64.000000	64.000000
306.355850	306.448963	60.000000	54.000000
306.355850	306.495513	41.000000	88.000000
306.448963	306.542063	57.000000	63.000000
306.495513	306.635176	40.000000	82.000000
306.542063	306.635176	52.000000	61.000000
306.635176	306.909539	45.000000	89.000000
306.635176	306.909539	33.000000	75.000000
306.635176	306.909539	37.000000	75.000000
306.638569	306.912851	40.000000	75.000000
306.728074	306.819779	52.000000	60.000000
306.819779	306.909539	57.000000	60.000000
306.909539	306.997730	64.000000	70.000000
306.909539	306.997730	61.000000	70.000000
306.997730	307.085921	64.000000	61.000000
307.041826	307.174099	57.000000	80.000000
307.085921	307.174099	69.000000	61.000000
307.174099	307.262290	76.000000	73.000000
307.174099	307.262290	73.000000	62.000000
307.174099	307.306385	57.000000	85.000000
307.262290	307.350481	76.000000	64.000000
307.306385	307.438659	60.000000	80.000000
307.350481	307.438659	81.000000	64.000000
307.438659	307.526836	88.000000	76.000000
307.438659	307.526836	85.000000	64.000000
307.438659	307.570932	58.000000	84.000000
307.526836	307.618367	88.000000	67.000000
307.570932	307.713250	57.000000	79.000000
307.618367	307.713250	93.000000	67.000000
307.713250	307.808133	100.000000	74.000000
307.713250	307.808133	97.000000	62.000000
307.713250	307.991435	67.000000	86.000000
307.808133	307.900857	93.000000	66.000000
307.900857	307.991435	88.000000	66.000000
307.991435	308.082014	88.000000	72.000000
307.991435	308.082014	85.000000	61.000000
308.082014	308.172592	81.000000	67.000000
308.127303	308.263170	45.000000	83.000000
308.172592	308.263170	76.000000	64.000000
308.263170	308.360441	76.000000	63.000000
308.263170	308.360441	73.000000	45.000000
308.263170	308.409082	45.000000	88.000000
308.360441	308.455632	69.000000	69.000000
308.409082	308.548745	48.000000	83.000000
308.455632	308.548745	64.000000	65.000000
308.548745	308.641858	64.000000	64.000000
308.548745	308.641858	61.000000	54.000000
308.548745	308.688408	46.000000	88.000000
308.641858	308.734958	57.000000	63.000000
308.688408	308.828071	45.000000	81.000000
308.734958	308.828071	52.000000	61.000000
308.828071	309.108254	45.000000	75.000000
308.828071	309.108254	50.000000	89.000000
308.828071	309.108254	38.000000	75.000000
308.828071	309.108254	41.000000	75.000000
308.920982	309.014618	53.000000	60.000000
309.014618	309.108254	57.000000	60.000000
309.108254	309.201890	65.000000	70.000000
309.108254	309.201890	62.000000	70.000000
309.201890	309.295526	65.000000	61.000000
309.248708	309.389162	57.000000	82.000000
309.295526	309.389162	69.000000	61.000000
309.389162	309.479419	77.000000	73.000000
309.389162	309.479419	74.000000	62.000000
309.389162	309.524547	57.000000	85.000000
309.479419	309.568254	77.000000	64.000000
309.524547	309.655667	60.000000	81.000000
309.568254	309.655667	81.000000	64.000000
309.655667	309.743080	89.000000	76.000000
309.655667	309.743080	86.000000	64.000000
309.655667	309.786787	58.000000	85.000000
309.743080	309.834222	89.000000	67.000000
309.786787	309.929105	57.000000	78.000000
309.834222	309.929105	93.000000	67.000000
309.929105	310.018878	101.000000	74.000000
309.929105	310.018878	98.000000	62.000000
309.929105	310.199633	65.000000	84.000000
310.018878	310.109054	93.000000	66.000000
310.109054	310.199633	89.000000	66.000000
310.199633	310.290211	89.000000	72.000000
310.199633	310.290211	86.000000	61.000000
310.290211	310.380789	81.000000	67.000000
310.335500	310.471367	38.000000	83.000000
310.380789	310.471367	77.000000	64.000000
310.471367	310.565352	77.000000	63.000000
310.471367	310.565352	74.000000	45.000000
310.471367	310.612344	38.000000	91.000000
310.565352	310.659337	69.000000	69.000000
310.612344	310.753321	37.000000	84.000000
310.659337	310.753321	65.000000	65.000000
310.753321	310.847306	65.000000	66.000000
310.753321	310.847306	62.000000	66.000000
310.753321	310.894298	38.000000	89.000000
310.847306	310.941291	57.000000	66.000000
310.894298	311.035275	40.000000	82.000000
310.941291	311.035275	53.000000	68.000000
311.035275	311.588964	53.000000	90.000000
311.035275	311.588964	41.000000	76.000000
311.307010	311.588964	83.000000	87.000000
311.307010	311.588964	71.000000	73.000000
311.307010	311.588964	74.000000	73.000000
311.307010	311.588964	65.000000	82.000000
311.307010	311.588964	56.000000	69.000000
311.307010	311.588964	62.000000	69.000000
311.588964	312.148393	56.000000	91.000000
311.588964	312.148393	44.000000	77.000000
311.858258	312.148393	86.000000	87.000000
311.858258	312.148393	74.000000	73.000000
311.858258	312.148393	77.000000	73.000000
311.858258	312.148393	68.000000	83.000000
311.858258	312.148393	65.000000	70.000000
311.858258	312.148393	59.000000	70.000000
312.148393	312.784627	59.000000	90.000000
312.148393	312.784627	47.000000	76.000000
312.456404	312.784627	89.000000	87.000000
312.456404	312.784627	77.000000	73.000000
312.456404	312.784627	80.000000	73.000000
312.456404	312.784627	71.000000	82.000000
312.456404	312.784627	68.000000	69.000000
312.456404	312.784627	62.000000	69.000000
312.784627	313.529731	52.000000	92.000000
312.784627	313.529731	40.000000	78.000000
313.131852	313.529731	88.000000	87.000000
313.131852	313.529731	76.000000	73.000000
313.131852	313.529731	80.000000	73.000000
313.131852	313.529731	64.000000	85.000000
313.131852	313.529731	59.000000	72.000000
313.131852	313.529731	56.000000	72.000000
313.529731	314.024760	45.000000	99.000000
313.529731	314.875477	33.000000	89.000000
313.828114	313.931553	49.000000	68.000000
313.828114	313.931553	37.000000	63.000000
313.931553	314.024760	52.000000	70.000000
313.931553	314.024760	40.000000	64.000000
314.024760	314.121467	57.000000	71.000000
314.024760	314.875477	45.000000	65.000000
314.121467	314.217665	61.000000	73.000000
314.121467	314.217665	49.000000	65.000000
314.217665	314.313446	64.000000	74.000000
314.217665	314.313446	52.000000	66.000000
314.313446	314.408370	69.000000	76.000000
314.313446	314.408370	57.000000	67.000000
314.408370	314.502931	73.000000	78.000000
314.408370	314.502931	61.000000	68.000000
314.502931	314.596916	76.000000	79.000000
314.502931	314.596916	64.000000	69.000000
314.596916	314.690243	81.000000	81.000000
314.596916	314.690243	69.000000	70.000000
314.690243	314.783222	85.000000	82.000000
314.690243	314.783222	73.000000	71.000000
314.783222	314.875477	88.000000	84.000000
314.783222	314.875477	76.000000	71.000000
314.875477	314.988854	93.000000	97.000000
314.875477	314.988854	81.000000	82.000000
314.988854	315.079593	88.000000	86.000000
314.988854	315.079593	76.000000	72.000000
315.079593	315.172116	85.000000	86.000000
315.079593	315.172116	73.000000	72.000000
315.172116	315.266101	81.000000	85.000000
315.172116	315.266101	69.000000	71.000000
315.266101	315.360930	76.000000	83.000000
315.266101	315.360930	64.000000	71.000000
315.360930	315.456122	73.000000	82.000000
315.360930	315.456122	61.000000	69.000000
315.456122	315.551904	69.000000	80.000000
315.456122	315.551904	57.000000	68.000000
315.551904	315.648383	64.000000	79.000000
315.551904	315.648383	52.000000	67.000000
315.648383	315.744902	61.000000	77.000000
315.648383	315.744902	49.000000	66.000000
315.744902	315.841676	57.000000	76.000000
315.744902	315.841676	45.000000	65.000000
315.841676	315.942085	52.000000	74.000000
315.841676	315.942085	40.000000	65.000000
315.942085	316.046101	49.000000	73.000000
315.942085	316.046101	37.000000	63.000000
316.046101	316.518881	45.000000	101.000000
316.046101	317.382325	33.000000	87.000000
316.325440	316.427726	49.000000	69.000000
316.325440	316.427726	37.000000	57.000000
316.427726	316.518881	52.000000	71.000000
316.427726	316.518881	40.000000	59.000000
316.518881	316.608654	57.000000	73.000000
316.518881	317.382325	45.000000	61.000000
316.608654	316.697234	61.000000	74.000000
316.608654	316.697234	49.000000	62.000000
316.697234	316.784835	64.000000	76.000000
316.697234	316.784835	52.000000	64.000000
316.784835	316.871524	69.000000	78.000000
316.784835	316.871524	57.000000	66.000000
316.871524	316.957328	73.000000	80.000000
316.871524	316.957328	61.000000	68.000000
316.957328	317.047129	76.000000	82.000000
316.957328	317.047129	64.000000	70.000000
317.047129	317.134341	81.000000	84.000000
317.047129	317.134341	69.000000	72.000000
317.134341	317.219126	85.000000	85.000000
317.134341	317.219126	73.000000	73.000000
317.219126	317.301791	88.000000	87.000000
317.219126	317.301791	76.000000	74.000000
317.301791	317.382325	93.000000	88.000000
317.301791	317.382325	81.000000	76.000000
317.382325	317.483404	97.000000	89.000000
317.382325	317.483404	85.000000	77.000000
317.483404	317.572467	93.000000	88.000000
317.483404	317.572467	81.000000	76.000000
317.572467	317.655441	88.000000	88.000000
317.572467	317.655441	76.000000	75.000000
317.655441	317.735786	85.000000	86.000000
317.655441	317.735786	73.000000	74.000000
317.735786	317.818372	81.000000	84.000000
317.735786	317.818372	69.000000	72.000000
317.818372	317.902338	76.000000	83.000000
317.818372	317.902338	64.000000	71.000000
317.902338	317.987887	73.000000	81.000000
317.902338	317.987887	61.000000	70.000000
317.987887	318.074925	69.000000	80.000000
317.987887	318.074925	57.000000	68.000000
318.074925	318.163666	64.000000	78.000000
318.074925	318.163666	52.000000	66.000000
318.163666	318.254003	61.000000	76.000000
318.163666	318.254003	49.000000	65.000000
318.254003	318.346003	57.000000	75.000000
318.254003	318.346003	45.000000	63.000000
318.346003	318.439907	52.000000	73.000000
318.346003	318.439907	40.000000	62.000000
318.439907	318.536078	49.000000	72.000000
318.439907	318.536078	37.000000	60.000000
318.536078	318.954006	45.000000	99.000000
318.536078	319.706487	33.000000	89.000000
318.778831	318.866969	49.000000	73.000000
318.778831	318.866969	37.000000	60.000000
318.866969	318.954006	52.000000	70.000000
318.866969	318.954006	40.000000	61.000000
318.954006	319.040293	57.000000	72.000000
318.954006	319.706487	45.000000	63.000000
319.040293	319.125842	61.000000	73.000000
319.040293	319.125842	49.000000	64.000000
319.125842	319.210801	64.000000	75.000000
319.125842	319.210801	52.000000	65.000000
319.210801	319.295049	69.000000	77.000000
319.210801	319.295049	57.000000	67.000000
319.295049	319.378587	73.000000	78.000000
319.295049	319.378587	61.000000	68.000000
319.378587	319.461574	76.000000	80.000000
319.378587	319.461574	64.000000	70.000000
319.461574	319.543878	81.000000	82.000000
319.461574	319.543878	69.000000	71.000000
319.543878	319.625511	85.000000	83.000000
319.543878	319.625511	73.000000	73.000000
319.625511	319.706487	88.000000	88.000000
319.625511	319.706487	76.000000	74.000000
319.706487	319.804750	93.000000	90.000000
319.706487	319.804750	81.000000	76.000000
319.804750	319.970819	97.000000	91.000000
319.804750	319.970819	85.000000	77.000000
319.970819	320.104567	101.000000	94.000000
319.970819	320.104567	89.000000	79.000000
320.104567	320.217328	100.000000	93.000000
320.104567	320.217328	88.000000	78.000000
320.217328	320.313056	97.000000	91.000000
320.217328	320.313056	85.000000	78.000000
320.316073	320.397425	93.000000	89.000000
320.316073	320.397425	81.000000	76.000000
320.397425	320.480265	88.000000	86.000000
320.397425	320.480265	76.000000	74.000000
320.480265	320.564593	85.000000	85.000000
320.480265	320.564593	73.000000	73.000000
320.564593	320.650411	81.000000	84.000000
320.564593	320.650411	69.000000	71.000000
320.650411	320.738039	76.000000	83.000000
320.650411	320.738039	64.000000	70.000000
320.738039	320.827236	73.000000	81.000000
320.738039	320.827236	61.000000	68.000000
320.827236	320.918203	69.000000	80.000000
320.827236	320.918203	57.000000	67.000000
320.918203	321.011034	64.000000	79.000000
320.918203	321.011034	52.000000	65.000000
321.011034	321.105743	61.000000	78.000000
321.011034	321.105743	49.000000	64.000000
321.105743	321.202343	57.000000	77.000000
321.105743	321.202343	45.000000	62.000000
321.202343	321.301598	52.000000	76.000000
321.202343	321.301598	40.000000	61.000000
321.301598	321.407237	49.000000	75.000000
321.301598	321.407237	37.000000	59.000000
321.401658	321.546752	45.000000	78.000000
321.401658	321.546752	33.000000	68.000000
321.513265	321.624925	46.000000	71.000000
321.513265	321.624925	34.000000	61.000000
321.602475	321.698391	45.000000	78.000000
321.602475	321.698391	33.000000	66.000000
321.676584	321.769966	46.000000	72.000000
321.676584	321.769966	34.000000	59.000000
321.748575	321.843740	45.000000	80.000000
321.748575	321.843740	33.000000	66.000000
321.821504	321.917849	46.000000	71.000000
321.821504	321.917849	34.000000	59.000000
321.895614	321.991074	45.000000	78.000000
321.895614	321.991074	33.000000	66.000000
321.969482	322.061964	46.000000	72.000000
321.969482	322.061964	34.000000	59.000000
322.040775	322.134076	45.000000	79.000000
322.040775	322.134076	33.000000	66.000000
322.111626	322.208923	46.000000	70.000000
322.111626	322.208923	34.000000	59.000000
322.186473	322.280833	45.000000	75.000000
322.186473	322.280833	33.000000	67.000000
322.259643	322.350195	46.000000	72.000000
322.259643	322.350195	34.000000	61.000000
322.329394	322.420308	45.000000	77.000000
322.329394	322.420308	33.000000	67.000000
322.398501	322.494162	46.000000	72.000000
322.398501	322.494162	34.000000	62.000000
322.472141	322.564718	45.000000	78.000000
322.472141	322.564718	33.000000	67.000000
322.543917	322.634040	46.000000	76.000000
322.543917	322.634040	34.000000	61.000000
322.613239	322.686008	45.000000	81.000000
322.613239	322.686008	33.000000	64.000000
322.686008	322.761619	46.000000	80.000000
322.686008	322.761619	34.000000	66.000000
322.761619	322.835970	47.000000	82.000000
322.761619	322.835970	35.000000	68.000000
322.835970	322.914679	48.000000	85.000000
322.835970	322.914679	36.000000	70.000000
322.914679	322.992209	49.000000	87.000000
322.914679	322.992209	37.000000	73.000000
322.992209	323.070502	50.000000	89.000000
322.992209	323.070502	38.000000	75.000000
323.070502	323.150003	51.000000	91.000000
323.070502	323.150003	39.000000	77.000000
323.150003	323.230309	52.000000	93.000000
323.150003	323.230309	40.000000	79.000000
323.230309	323.311593	53.000000	96.000000
323.230309	323.311593	41.000000	82.000000
323.311593	323.393709	52.000000	98.000000
323.311593	323.393709	40.000000	83.000000
323.393709	323.474470	51.000000	99.000000
323.393709	323.474470	39.000000	82.000000
323.474470	323.553636	50.000000	98.000000
323.474470	323.553636	38.000000	82.000000
323.553636	323.632037	49.000000	96.000000
323.553636	323.632037	37.000000	81.000000
323.632037	323.708936	48.000000	95.000000
323.632037	323.708936	36.000000	80.000000
323.708936	323.784641	47.000000	94.000000
323.708936	323.784641	35.000000	80.000000
323.784641	323.860253	46.000000	92.000000
323.784641	323.860253	34.000000	79.000000
323.860253	324.105742	45.000000	107.000000
323.860253	324.105742	33.000000	90.000000
324.351245	324.596747	81.000000	100.000000
324.351245	324.596747	76.000000	100.000000
324.351245	324.596747	73.000000	85.000000
324.351245	324.596747	69.000000	85.000000
324.351245	324.596747	57.000000	86.000000
324.351245	324.596747	52.000000	78.000000
324.351245	324.596747	49.000000	72.000000
324.351245	324.596747	45.000000	72.000000
324.842250	325.087753	93.000000	100.000000
324.842250	325.087753	88.000000	100.000000
324.842250	325.087753	85.000000	85.000000
324.842250	325.087753	81.000000	85.000000
324.842250	325.087753	69.000000	86.000000
324.842250	325.087753	64.000000	78.000000
324.842250	325.087753	61.000000	72.000000
324.842250	325.087753	57.000000	72.000000
