OnsetTime	OffsetTime	MidiPitch	Velocity
0.500004	1.482	51	41
0.500004	1.482	55	56
0.500004	1.482	58	56
0.500004	1.482	63	66
1.482	2.49723	46	46
1.482	2.49723	53	55
1.482	2.49723	58	61
1.482	2.49723	62	72
2.49723	3.54344	41	43
2.49723	3.54344	53	51
2.49723	3.54344	57	57
2.49723	3.54344	60	68
3.54344	4.56299	46	45
3.54344	4.56299	53	54
3.54344	4.56299	58	59
3.54344	4.56299	62	70
4.56299	5.6092	39	45
4.56299	5.6092	51	54
4.56299	5.6092	55	68
4.56299	5.6092	58	81
5.6092	6.65998	44	46
5.6092	6.65998	51	55
5.6092	6.65998	56	69
5.6092	6.65998	60	82
6.65998	7.73429	41	50
6.65998	7.73429	46	60
6.65998	7.73429	56	70
6.65998	7.73429	62	83
7.73429	8.80859	39	50
7.73429	8.80859	46	60
7.73429	8.80859	55	76
7.73429	8.80859	63	86
8.80859	11.3906	39	39
8.90466	11.3906	46	35
9.00072	11.3906	51	35
9.09678	11.3906	55	39
9.18845	11.3906	58	35
9.28011	11.3906	63	35
9.37178	9.728	67	50
9.46216	9.64008	70	44
9.5515	9.90164	75	44
9.64008	9.81512	70	54
9.728	11.3906	67	51
9.81512	11.3906	70	52
9.90164	11.3906	75	61
9.98739	11.3906	79	57
10.0725	11.3906	82	61
10.1578	11.3906	87	67
10.2484	11.3906	91	58
10.3459	11.3906	94	53
10.4515	11.4335	99	60
11.4335	12.4621	48	41
11.4335	12.4621	55	49
11.4335	12.4621	60	69
11.4335	12.4621	63	59
12.4621	13.486	44	45
12.4621	13.486	56	54
12.4621	13.486	60	62
12.4621	13.486	63	74
13.486	14.5368	43	39
13.486	14.5368	51	54
13.486	14.5368	58	75
14.5368	15.5695	38	44
14.5368	15.5695	46	53
14.5368	15.5695	53	61
14.5368	15.5695	58	73
15.5695	16.639	39	45
15.5695	16.639	46	54
15.5695	16.639	51	66
15.5695	16.639	55	77
16.639	17.6898	40	49
16.639	17.6898	49	59
16.639	17.6898	55	68
16.639	17.6898	58	81
17.6898	18.2198	41	66
17.6898	18.7692	48	59
17.6898	18.7692	53	57
17.6898	18.7692	56	68
18.2198	18.7692	44	61
18.7692	19.82	36	50
18.7692	19.82	48	60
18.7692	19.82	51	61
18.7692	19.82	55	73
19.82	22.357	36	39
19.9161	22.357	48	35
20.0121	22.357	51	35
20.1082	22.357	55	39
20.1999	22.357	60	35
20.2915	22.357	63	35
20.3832	20.7394	67	50
20.4736	20.6515	72	44
20.5629	20.9131	75	44
20.6515	20.8265	72	54
20.7394	22.357	67	51
20.8265	22.357	72	52
20.9131	22.357	75	61
20.9988	22.357	79	57
21.084	22.357	84	61
21.1692	22.357	87	67
21.2366	22.357	91	59
21.3076	22.357	96	56
21.3829	22.357	99	55
21.463	22.445	103	63
22.445	22.9708	48	51
22.445	23.4967	51	55
22.445	23.4967	55	66
22.9708	23.4967	46	58
23.4967	24.5119	44	43
23.4967	24.5119	51	51
23.4967	24.5119	56	62
23.4967	24.5119	60	74
24.5119	25.5627	41	41
24.5119	25.5627	50	50
24.5119	25.5627	56	61
24.5119	25.5627	60	72
25.5627	26.5954	43	45
25.5627	26.5954	51	54
25.5627	26.5954	58	79
26.5954	27.6462	47	44
26.5954	27.6462	53	52
26.5954	27.6462	56	69
26.5954	27.6462	62	82
27.6462	28.697	48	48
27.6462	28.697	51	56
27.6462	28.697	55	74
27.6462	28.697	63	86
28.697	29.7665	41	41
28.697	29.7665	51	50
28.697	29.7665	57	61
28.697	29.7665	60	76
29.7665	30.836	46	44
29.7665	30.836	50	52
29.7665	30.836	58	76
30.836	33.1996	46	39
30.9321	33.1996	53	35
31.0281	33.1996	58	35
31.1242	33.1996	62	39
31.2159	33.1996	65	35
31.3075	33.1996	70	35
31.3992	31.7554	74	50
31.4896	31.6675	77	44
31.5789	31.9291	82	44
31.6675	31.8425	77	57
31.7554	33.1996	74	54
31.8425	33.1996	77	54
31.9291	33.1996	82	67
32.021	33.1996	86	63
32.1231	33.1996	89	61
32.235	33.1996	94	57
33.1996	34.2323	48	38
33.1996	34.2323	55	45
33.1996	34.2323	60	67
33.1996	34.2323	63	80
34.2323	35.2606	43	43
34.2323	35.2606	55	51
34.2323	35.2606	58	72
34.2323	35.2606	62	85
35.2606	36.3254	44	43
35.2606	36.3254	51	52
35.2606	36.3254	56	71
35.2606	36.3254	60	85
36.3254	37.3808	39	46
36.3254	37.3808	51	55
36.3254	37.3808	55	76
36.3254	37.3808	58	89
37.3808	38.4316	40	44
37.3808	38.4316	49	55
37.3808	38.4316	55	85
38.4316	39.487	41	38
38.4316	39.487	48	45
38.4316	38.9593	53	58
38.4316	38.9593	56	69
38.9593	39.487	55	63
39.487	40.547	34	33
39.487	40.547	44	39
39.487	40.547	50	50
39.487	40.547	53	60
40.547	41.6071	39	38
40.547	41.6071	43	45
40.547	41.6071	51	67
41.6071	44.189	39	39
41.7031	44.189	46	35
41.7992	44.189	51	35
41.8953	44.189	55	39
41.9869	44.189	58	35
42.0786	44.189	63	35
42.1703	42.5265	67	50
42.2606	42.4386	70	44
42.35	42.7001	75	44
42.4386	42.6136	70	54
42.5265	44.189	67	51
42.6136	44.189	70	52
42.7001	44.189	75	61
42.7859	44.189	79	57
42.871	44.189	82	61
42.9563	44.189	87	67
43.0468	44.189	91	58
43.1444	44.189	94	53
43.25	44.232	99	60
45.1867	45.7179	67	60
45.7179	45.894	67	54
45.894	46.5993	43	44
45.894	46.2381	55	51
45.894	46.925	67	60
46.2381	46.5821	55	25
46.2381	46.5821	59	25
46.2381	46.5821	62	34
46.5821	46.925	55	25
46.5821	46.925	59	25
46.5821	46.925	62	34
46.7541	47.27	66	51
46.925	47.2576	55	25
46.925	47.2576	59	25
46.925	47.2576	62	34
46.925	47.27	67	56
47.0913	47.27	69	51
47.2576	47.5973	55	25
47.2576	47.5973	59	25
47.2576	47.5973	62	34
47.2576	47.5973	71	60
47.4239	47.9536	70	56
47.5973	47.9536	55	25
47.5973	47.9536	59	25
47.5973	47.9536	62	34
47.5973	47.9536	71	54
47.7754	47.9536	72	59
47.9536	50.0547	43	44
47.9536	48.2996	55	51
47.9536	50.0547	74	64
48.2996	48.6456	55	25
48.2996	48.6456	59	25
48.2996	48.6456	62	34
48.6456	48.9916	55	25
48.6456	48.9916	59	25
48.6456	48.9916	62	34
48.9916	49.3385	55	25
48.9916	49.3385	59	25
48.9916	49.3385	62	34
49.3385	49.6927	55	25
49.3385	49.6927	59	25
49.3385	49.6927	62	34
49.3385	49.8698	67	66
49.6927	50.0547	55	25
49.6927	50.0547	59	25
49.6927	50.0547	62	34
49.8698	50.046	67	58
50.046	50.7539	36	44
50.046	50.7539	48	51
50.046	51.0835	67	68
50.392	50.7381	55	28
50.392	50.7381	60	28
50.392	50.7381	63	38
50.7381	51.0835	55	28
50.7381	51.0835	60	28
50.7381	51.0835	63	38
50.9111	51.4364	66	56
51.0835	51.4236	55	28
51.0835	51.4236	60	28
51.0835	51.4236	63	38
51.0835	51.4364	67	62
51.2536	51.4364	71	59
51.4236	51.7652	55	28
51.4236	51.7652	60	28
51.4236	51.7652	63	38
51.4236	51.7652	72	69
51.5937	52.1243	71	58
51.7652	52.1243	55	28
51.7652	52.1243	60	28
51.7652	52.1243	63	38
51.7652	52.1243	72	67
51.9423	52.1243	74	64
52.1185	54.2163	48	51
52.1185	54.2163	75	74
52.4646	52.8106	55	28
52.4646	52.8106	60	28
52.4646	52.8106	63	38
52.8106	53.1566	55	28
52.8106	53.1566	60	28
52.8106	53.1566	63	38
53.1566	53.5037	55	28
53.1566	53.5037	60	28
53.1566	53.5037	63	38
53.5037	53.86	55	28
53.5037	53.86	60	28
53.5037	53.86	63	38
53.5037	54.0381	72	71
53.86	54.2163	55	28
53.86	54.2163	60	28
53.86	54.2163	63	38
54.0381	54.2163	72	65
54.2163	54.9172	34	44
54.2163	54.9172	46	51
54.2163	55.2484	70	71
54.5603	54.9043	56	32
54.5603	54.9043	58	32
54.5603	54.9043	62	43
54.9043	55.2484	56	32
54.9043	55.2484	58	32
54.9043	55.2484	62	43
55.0764	55.594	69	57
55.2484	55.5828	56	32
55.2484	55.5828	58	32
55.2484	55.5828	62	43
55.2484	55.594	70	65
55.4156	55.594	72	60
55.5828	55.9199	56	32
55.5828	55.9199	58	32
55.5828	55.9199	62	43
55.5828	55.9199	74	70
55.75	56.2788	73	60
55.9199	56.2788	56	32
55.9199	56.2788	58	32
55.9199	56.2788	62	43
55.9199	56.2788	74	65
56.1002	56.2788	75	69
56.2788	56.9812	46	51
56.2788	57.31	77	74
56.6229	56.9669	56	32
56.6229	56.9669	58	32
56.6229	56.9669	62	43
56.9669	57.31	56	32
56.9669	57.31	58	32
56.9669	57.31	62	43
57.1389	57.657	76	56
57.31	57.6444	56	32
57.31	57.6444	58	32
57.31	57.6444	62	43
57.31	57.657	77	61
57.4772	57.657	79	62
57.6444	57.9789	56	32
57.6444	57.9789	58	32
57.6444	57.9789	62	43
57.6444	57.9789	80	64
57.8116	58.3133	79	56
57.9789	58.3133	56	32
57.9789	58.3133	58	32
57.9789	58.3133	62	43
57.9789	58.3133	80	62
58.1461	58.3133	81	58
58.3133	58.9822	56	51
58.3133	58.9822	58	51
58.3133	58.9822	62	61
58.3133	58.6477	82	68
58.4805	58.9278	81	59
58.6477	58.9278	82	63
58.815	58.9822	84	59
58.9822	59.1494	86	73
59.1494	59.3166	85	61
59.3166	59.4906	86	66
59.4906	59.6647	87	62
59.5341	60.2051	46	48
59.5777	60.2467	53	48
59.6212	60.2883	56	52
59.6647	60.3299	62	55
59.6647	59.9973	89	72
59.831	60.3299	88	61
59.9973	60.3299	89	64
60.1636	60.3299	91	66
60.2051	61.5499	46	48
60.2467	61.5937	53	52
60.2883	61.6374	56	55
60.3299	61.6794	62	58
60.3299	60.6624	92	74
60.4962	61.6891	91	64
60.6624	61.6891	92	67
60.8287	61.1613	93	62
60.995	61.3311	94	74
61.1613	61.6891	93	66
61.3311	61.6891	94	68
61.5062	61.6891	96	69
61.5499	62.2199	46	56
61.5937	62.2615	53	56
61.6374	62.3031	56	59
61.6794	62.3446	62	62
61.6794	62.361	98	72
61.8457	62.361	99	73
62.012	62.361	101	76
62.1783	62.361	103	77
62.2199	64.4808	46	60
62.2615	64.2257	53	60
62.3031	64.1426	56	62
62.3446	63.9802	62	65
62.3446	65.6431	104	79
62.5082	65.6431	101	78
62.6718	65.6431	98	76
62.8354	65.6431	94	75
62.9995	65.6431	92	73
63.1104	65.6431	89	71
63.2207	65.6431	86	70
63.3317	65.6431	82	68
63.4434	65.6431	80	67
63.5561	65.6431	77	65
63.6696	65.6431	74	63
63.7454	65.6431	70	61
63.8236	65.6431	68	63
63.9014	65.6431	65	66
63.9802	65.6431	62	68
64.0616	65.6431	58	69
64.1426	65.6431	56	72
64.2257	65.6431	53	74
64.318	65.6431	50	76
64.4808	65.6431	34	76
64.4808	65.6431	46	81
65.9783	66.0648	63	62
65.9783	66.0648	65	62
65.9783	66.0648	68	73
66.0648	66.4297	47	45
66.0648	66.4297	53	45
66.0648	66.4297	56	54
66.0648	66.4297	63	68
66.0648	66.4297	65	68
66.0648	66.4297	68	80
66.7947	67.6919	46	45
66.7947	67.6919	53	45
66.7947	67.6919	56	54
66.7947	67.6919	62	66
66.7947	67.6919	65	66
66.7947	67.6919	68	78
68.1566	68.2496	75	62
68.1566	68.2496	77	62
68.1566	68.2496	80	73
68.2496	68.6123	59	51
68.2496	68.6123	65	51
68.2496	68.6123	68	61
68.2496	68.6123	75	68
68.2496	68.6123	77	68
68.2496	68.6123	80	80
68.9751	72.0612	58	51
68.9751	71.841	65	51
68.9751	71.7356	68	61
68.9751	71.529	74	66
68.9751	71.4268	77	66
68.9751	71.325	80	78
69.7628	72.3053	96	93
70.5869	72.3053	94	84
70.6952	72.3053	92	82
70.8025	72.3053	89	89
70.9089	72.3053	86	80
71.0142	71.2224	82	80
71.1187	72.3053	81	85
71.2224	72.3053	82	77
71.325	72.3053	80	78
71.4268	72.3053	77	81
71.529	72.3053	74	79
71.6319	72.3053	70	77
71.7356	72.3053	68	75
71.841	72.3053	65	74
71.9507	72.3053	62	72
72.0612	72.3053	58	80
73.2814	73.3744	54	38
73.2814	73.3744	59	45
73.3744	73.7844	45	35
73.3744	73.7844	51	41
73.3744	73.7844	54	43
73.3744	73.7844	59	51
74.1944	76.7966	44	39
74.1944	76.7966	51	46
74.1944	76.7966	54	49
74.1944	76.7966	60	58
76.7966	79.3989	41	27
76.7966	79.3989	46	27
76.7966	79.3989	53	33
76.7966	79.3989	56	37
76.7966	79.3989	58	37
76.7966	79.3989	62	44
79.3989	79.7347	39	29
79.3989	79.7347	51	37
79.3989	79.7347	55	37
79.3989	80.0429	58	37
79.3989	80.3511	63	44
79.7347	80.9675	55	33
80.0429	80.6593	58	33
80.3511	82.2031	63	37
80.6593	81.907	58	33
80.9675	81.611	55	30
81.2996	83.1131	51	35
81.611	82.7951	55	31
81.907	82.4991	58	31
82.2031	83.9927	63	37
82.4991	83.7024	58	32
82.7951	83.4121	55	32
83.1131	86.6733	39	37
83.1131	84.8914	51	37
83.4121	84.5734	55	33
83.7024	84.2831	58	33
83.9927	85.7624	63	37
84.2831	85.4749	58	33
84.5734	85.1874	55	30
84.8914	86.6733	51	35
85.1874	86.3375	55	31
85.4749	86.05	58	31
85.7624	86.6733	63	37
86.05	86.6733	58	32
86.3375	86.6733	55	32
86.6733	88.5136	39	37
86.6733	88.4837	51	37
86.6733	87.8439	67	44
86.6733	87.8439	70	44
86.9723	88.1552	55	33
87.2571	87.8439	58	33
87.5419	88.4837	63	37
87.5419	88.5136	68	41
87.5419	88.5136	72	41
87.8439	88.5136	58	33
87.8439	88.4837	67	45
87.8439	88.5136	70	45
88.1552	88.5136	55	30
88.4837	88.7827	51	32
88.4837	89.3577	63	37
88.4837	90.2787	67	37
88.7827	89.9503	55	28
89.0702	89.6452	58	28
89.3577	90.2787	63	34
89.6452	90.2787	58	28
89.9503	90.2787	55	28
90.2787	92.1315	39	37
90.2787	92.0991	51	37
90.2787	91.4523	67	44
90.2787	91.4523	70	44
90.5777	91.767	55	33
90.8625	91.4523	58	33
91.1473	92.0991	63	37
91.1473	92.1315	68	41
91.1473	92.1315	72	41
91.4523	92.1315	58	33
91.4523	92.0991	67	45
91.4523	92.1315	70	45
91.767	92.1315	55	30
92.0991	93.9053	51	35
92.0991	92.9731	63	37
92.0991	93.9053	67	37
92.3981	93.5657	55	26
92.6856	93.2606	58	26
92.9731	93.9053	63	33
93.2606	93.9053	58	28
93.5657	93.9053	55	28
93.7355	93.9053	65	37
93.8204	95.0458	68	42
93.9053	95.7063	34	37
93.9053	95.6739	46	37
93.9053	95.0458	77	46
94.2043	95.3418	56	33
94.4891	95.0458	58	33
94.7739	95.7063	62	37
95.0458	95.7063	58	36
95.0458	95.6739	68	51
95.0458	95.7063	77	51
95.3418	95.7063	56	41
95.5078	95.6739	74	49
95.6739	97.4801	46	43
95.6739	97.4801	68	44
95.6739	97.4801	74	44
95.9729	97.1405	56	26
96.2604	96.8354	58	26
96.5479	97.4801	62	33
96.8354	97.4801	58	28
97.1405	97.4801	56	28
97.3103	97.4801	63	37
97.3952	98.6205	67	42
97.4801	99.2594	39	37
97.4801	99.2234	51	37
97.4801	98.6205	75	46
97.7791	98.8876	55	33
98.0639	98.6205	58	33
98.3487	99.2594	63	37
98.6205	99.2594	58	36
98.6205	99.2234	67	51
98.6205	99.2594	75	51
98.8876	99.2594	55	41
99.0555	99.2234	70	49
99.2234	101.053	51	43
99.2234	101.053	67	44
99.2234	101.053	70	44
99.5555	100.731	55	26
99.8458	100.426	58	26
100.136	101.053	63	33
100.426	101.053	58	28
100.731	101.053	55	28
101.053	102.802	44	37
101.053	101.352	56	37
101.053	102.198	68	44
101.053	102.198	72	44
101.352	102.497	56	33
101.637	102.198	60	33
101.921	102.832	63	37
102.198	102.832	60	38
102.198	102.832	68	47
102.198	102.726	72	47
102.497	102.802	56	42
102.726	103.94	72	52
102.802	103.101	44	46
102.802	103.101	56	46
102.802	104.551	75	56
103.101	104.245	56	33
103.371	103.94	60	36
103.656	104.551	63	42
103.656	104.551	70	50
103.656	104.551	74	50
103.94	104.551	60	28
103.94	104.551	68	45
103.94	104.551	72	45
104.245	104.551	56	28
104.551	106.341	39	37
104.551	106.311	51	37
104.551	105.691	67	44
104.551	105.691	70	44
104.85	105.993	55	33
105.126	105.691	58	33
105.403	106.311	63	37
105.403	106.341	68	41
105.403	106.341	72	41
105.691	106.341	58	33
105.691	106.311	67	45
105.691	106.341	70	45
105.993	106.341	55	30
106.311	106.61	51	32
106.311	107.169	63	37
106.311	108.071	67	37
106.61	107.753	55	28
106.889	107.448	58	28
107.169	108.071	63	34
107.448	108.071	58	28
107.753	108.071	55	28
108.071	109.821	44	37
108.071	108.37	56	37
108.071	109.217	68	44
108.071	109.217	72	44
108.37	109.516	56	33
108.655	109.217	60	33
108.94	109.851	63	37
109.217	109.851	60	38
109.217	109.851	68	47
109.217	109.745	72	47
109.516	109.821	56	42
109.745	110.959	72	52
109.821	110.12	44	46
109.821	110.12	56	46
109.821	111.569	75	56
110.12	111.264	56	33
110.389	110.959	60	36
110.674	111.569	63	42
110.674	111.569	70	50
110.674	111.569	74	50
110.959	111.569	60	28
110.959	111.569	68	45
110.959	111.569	72	45
111.264	111.569	56	28
111.569	113.362	39	37
111.569	113.332	51	37
111.569	112.712	67	44
111.569	112.712	70	44
111.868	113.014	55	33
112.145	112.712	58	33
112.422	113.332	63	37
112.422	113.362	68	41
112.422	113.362	72	41
112.712	113.362	58	33
112.712	113.332	67	45
112.712	113.362	70	45
113.014	113.362	55	30
113.332	113.631	51	32
113.332	114.193	63	37
113.332	115.108	67	37
113.631	114.78	55	28
113.911	114.475	58	28
114.193	115.108	63	34
114.475	115.108	58	28
114.78	115.108	55	28
114.944	115.108	65	44
115.026	116.782	70	44
115.108	116.888	34	37
115.108	116.858	46	37
115.108	116.254	77	44
115.407	116.553	56	33
115.692	116.254	58	33
115.977	116.888	62	37
116.254	116.888	58	38
116.254	116.888	77	51
116.553	116.888	56	42
116.705	116.888	68	52
116.782	118.606	70	59
116.858	117.157	46	51
116.858	118.606	80	59
117.157	118.301	56	36
117.426	117.996	58	39
117.711	118.606	62	42
117.711	118.606	77	52
117.996	118.606	58	28
117.996	118.606	74	47
118.301	118.606	56	28
118.53	120.385	67	44
118.606	120.385	39	37
118.606	120.356	51	37
118.606	120.385	75	44
118.905	120.05	55	33
119.19	119.751	58	33
119.475	120.385	63	37
119.751	120.385	58	26
120.05	120.385	55	25
120.356	120.655	51	31
120.356	122.126	70	41
120.356	122.126	79	41
120.655	121.809	55	24
120.929	121.504	58	24
121.216	121.962	63	24
121.504	122.126	58	27
121.809	122.126	55	22
121.962	122.126	63	44
122.044	123.271	67	44
122.126	123.875	46	37
122.126	123.905	75	44
122.425	123.57	55	33
122.71	123.271	58	33
122.994	123.905	63	37
122.994	123.875	70	51
123.271	123.905	58	38
123.271	123.905	67	44
123.57	123.905	55	42
123.723	123.905	62	52
123.875	124.174	34	48
123.875	124.174	46	51
123.875	125.623	70	55
124.174	125.318	56	36
124.444	125.013	58	39
124.729	125.623	62	42
124.729	125.623	68	47
125.013	125.623	58	28
125.013	125.623	65	42
125.318	125.623	56	28
125.623	127.606	39	37
125.623	127.576	51	37
125.623	126.53	63	39
125.938	127.161	55	28
126.234	126.818	58	28
126.53	129.37	63	35
126.818	127.606	58	29
127.161	127.606	55	30
127.576	129.37	51	39
129.146	129.37	65	38
129.22	131.081	70	42
129.295	131.16	74	45
129.37	131.19	34	37
129.37	131.19	46	37
129.37	130.54	77	48
129.669	130.842	53	33
129.954	130.54	58	33
130.238	131.19	62	37
130.238	131.19	79	41
130.54	131.19	58	33
130.54	131.19	77	45
130.842	131.19	53	30
131.001	132.758	65	40
131.081	132.982	70	44
131.16	131.459	50	32
131.16	132.982	74	47
131.459	132.627	53	28
131.747	132.322	58	28
132.034	132.982	62	34
132.322	132.982	58	28
132.627	132.982	53	28
132.758	132.982	65	38
132.832	134.693	69	42
132.907	134.802	75	45
132.982	134.802	34	37
132.982	134.773	46	37
132.982	134.153	77	48
133.281	134.455	53	33
133.566	134.153	57	33
133.851	134.802	63	37
133.851	134.802	79	41
134.153	134.802	57	33
134.153	134.802	77	45
134.455	134.802	53	30
134.614	136.321	65	40
134.693	136.545	69	44
134.773	135.071	46	32
134.773	136.545	72	47
135.071	136.239	53	28
135.359	135.934	57	28
135.647	136.545	63	34
135.934	136.545	57	28
136.239	136.545	53	28
136.321	136.545	65	38
136.396	136.545	70	42
136.471	137.702	74	38
136.545	138.351	34	37
136.545	138.351	46	37
136.545	137.702	77	48
136.844	138.004	53	33
137.129	137.702	58	33
137.414	138.351	62	38
137.414	138.351	73	40
137.414	138.351	76	48
137.702	138.351	58	36
137.702	138.351	74	46
137.702	138.351	77	55
138.004	138.351	53	41
138.322	138.621	39	47
138.322	138.621	51	47
138.322	139.467	75	56
138.322	140.083	79	66
138.621	139.772	51	37
138.903	139.467	55	36
139.185	140.083	60	44
139.185	140.083	74	47
139.185	140.083	77	56
139.467	140.083	55	33
139.467	140.083	72	51
139.467	140.083	75	60
139.772	140.083	51	32
140.083	141.856	41	42
140.083	140.382	53	42
140.083	141.886	70	54
140.083	141.886	74	64
140.382	141.538	53	35
140.667	141.245	58	33
140.952	141.886	62	37
141.245	141.886	58	33
141.245	141.886	77	59
141.538	141.856	53	30
141.856	142.155	41	32
141.856	142.155	53	32
141.856	143.629	69	47
141.856	143.629	72	56
142.155	143.323	53	28
142.443	143.018	57	28
142.73	143.629	60	34
143.018	143.629	57	28
143.323	143.629	53	28
143.405	143.629	65	41
143.48	145.34	70	46
143.554	145.42	74	49
143.629	145.45	34	40
143.629	145.42	46	40
143.629	144.8	77	52
143.928	145.102	53	36
144.213	144.8	58	36
144.498	145.45	62	40
144.498	145.45	79	45
144.8	145.45	58	36
144.8	145.45	77	49
145.102	145.45	53	33
145.261	147.241	65	44
145.34	147.241	70	48
145.42	145.719	46	35
145.42	147.092	74	51
145.719	146.886	53	30
146.006	146.581	58	30
146.294	147.241	62	37
146.581	147.241	58	30
146.886	147.241	53	30
147.017	147.241	69	47
147.092	148.952	74	52
147.167	149.032	78	56
147.241	149.062	38	42
147.241	149.032	50	42
147.241	148.412	81	60
147.54	148.714	54	37
147.825	148.412	57	37
148.11	149.062	62	42
148.11	149.062	83	55
148.412	149.062	57	37
148.412	149.062	81	56
148.714	149.062	54	34
148.873	150.655	69	50
148.952	150.805	74	55
149.032	149.331	50	36
149.032	150.805	78	59
149.331	150.498	54	32
149.618	150.193	57	32
149.906	150.805	62	39
150.193	150.805	57	32
150.498	150.805	54	32
150.655	151.991	69	52
150.73	151.673	73	47
150.805	151.991	38	42
150.805	151.991	50	42
150.805	151.673	81	60
151.104	151.991	55	37
151.389	151.961	57	38
151.673	151.991	61	45
151.673	151.991	73	52
151.673	151.991	76	52
151.673	151.961	81	62
151.961	152.611	57	43
151.961	152.611	74	60
151.961	152.611	78	60
151.961	152.581	81	73
152.263	152.611	55	50
152.581	153.188	50	59
152.581	153.162	76	63
152.581	153.744	79	70
152.581	153.162	81	78
152.88	153.188	55	47
153.162	153.726	57	46
153.162	153.726	76	61
153.162	153.744	78	61
153.162	153.726	81	72
153.444	153.744	61	57
153.726	154.343	57	42
153.726	154.343	73	67
153.726	154.343	76	67
153.726	154.343	81	80
154.031	154.343	55	42
154.343	156.186	50	61
154.343	157.357	54	61
154.343	157.357	57	61
154.343	157.318	62	72
154.343	154.424	86	54
154.424	154.507	87	46
154.507	154.672	86	54
154.59	154.755	87	46
154.672	154.836	86	54
154.755	154.918	87	48
154.836	154.998	86	54
154.918	155.075	87	47
154.998	155.148	86	55
155.075	155.219	87	48
155.148	155.288	86	56
155.219	155.359	87	47
155.288	155.431	86	56
155.359	155.504	87	47
155.431	155.579	86	57
155.504	155.654	87	50
155.579	157.357	38	69
155.579	155.731	86	57
155.654	155.808	87	49
155.731	155.885	86	58
155.808	155.962	87	50
155.885	156.038	86	59
155.962	156.114	87	51
156.038	156.186	86	59
156.114	156.257	87	50
156.186	157.357	50	78
156.186	156.328	86	60
156.257	156.398	87	52
156.328	156.468	86	60
156.398	156.536	87	53
156.468	156.605	86	61
156.536	156.675	87	53
156.605	156.744	86	62
156.675	156.814	87	54
156.744	156.885	86	62
156.814	156.956	87	55
156.885	157.026	86	63
156.956	157.099	87	54
157.026	157.172	86	63
157.099	157.246	87	54
157.172	157.318	86	63
157.246	157.357	87	55
157.318	157.894	55	56
157.318	157.894	58	56
157.318	157.883	62	66
157.318	157.391	86	64
157.391	157.534	87	58
157.463	157.605	86	64
157.534	157.675	87	57
157.605	157.745	86	65
157.675	157.814	87	59
157.745	157.883	86	65
157.814	157.894	87	57
157.883	160.851	54	73
157.883	160.851	57	71
157.883	160.851	62	80
157.883	157.951	86	67
157.951	158.087	87	58
158.019	158.156	86	67
158.087	158.223	87	57
158.156	158.29	86	66
158.223	158.358	87	57
158.29	158.427	86	65
158.358	158.496	87	56
158.427	158.566	86	65
158.496	158.635	87	57
158.566	158.705	86	65
158.635	158.774	87	55
158.705	158.844	86	64
158.774	158.913	87	55
158.844	158.983	86	64
158.913	159.057	87	55
158.983	160.851	38	74
158.983	159.132	86	63
159.057	159.207	87	54
159.132	159.281	86	63
159.207	159.355	87	54
159.281	159.429	86	63
159.355	159.501	87	54
159.429	159.577	86	63
159.501	159.654	87	53
159.577	160.851	50	84
159.577	159.731	86	62
159.654	159.809	87	54
159.731	159.887	86	62
159.809	159.965	87	55
159.887	160.043	86	62
159.965	160.122	87	54
160.043	160.201	86	61
160.122	160.28	87	54
160.201	160.359	86	60
160.28	160.439	87	53
160.359	160.519	86	60
160.439	160.598	87	53
160.519	160.678	86	60
160.598	160.758	87	53
160.678	160.837	86	59
160.758	160.851	87	53
160.837	161.05	86	54
160.867	161.475	62	69
160.944	161.475	87	55
161.05	161.315	86	59
161.156	161.475	85	74
161.236	165.799	46	58
161.315	165.799	53	64
161.315	161.475	86	81
161.395	165.799	56	69
161.475	165.799	62	76
161.475	165.799	98	95
163.505	165.799	96	65
163.623	164.095	91	65
163.741	165.799	94	70
163.859	165.799	92	64
163.977	165.799	88	70
164.095	165.799	91	70
164.214	165.799	89	63
164.33	165.799	85	63
164.446	165.799	87	70
164.561	165.799	86	62
164.675	165.799	81	62
164.788	165.799	84	70
164.901	165.124	82	63
165.013	165.453	79	62
165.124	165.799	82	63
165.234	165.799	80	57
165.344	165.799	76	56
165.453	165.799	79	62
165.562	165.799	77	54
165.672	165.799	73	54
165.784	165.9	75	58
165.9	166.036	74	44
166.036	166.199	69	44
166.199	166.995	72	49
166.995	167.792	71	42
167.792	169.568	70	40
169.636	170.948	39	60
169.636	170.948	51	70
169.636	170.948	70	67
169.8	170.72	75	56
169.942	170.262	79	60
170.084	170.415	82	54
170.262	170.948	55	46
170.262	170.948	58	46
170.262	170.948	63	55
170.262	170.567	79	62
170.415	170.948	82	53
170.567	170.948	79	58
170.72	170.948	75	51
170.887	172.153	44	60
170.887	171.52	56	70
170.887	172.153	72	65
171.037	171.983	75	53
171.187	171.52	80	57
171.338	171.674	84	52
171.52	172.153	56	48
171.52	172.153	60	48
171.52	172.153	63	56
171.52	171.829	80	57
171.674	172.153	84	53
171.829	172.153	80	58
171.983	172.153	75	53
172.153	173.368	39	60
172.153	173.356	51	70
172.153	173.368	70	68
172.305	172.895	75	53
172.452	172.746	79	57
172.599	173.368	82	53
172.746	173.368	55	54
172.746	174.591	63	54
172.746	173.368	79	57
172.895	173.368	75	51
173.044	173.368	53	50
173.044	173.368	68	61
173.193	173.368	80	51
173.356	173.957	51	55
173.356	173.957	67	62
173.508	173.957	70	53
173.654	173.957	75	59
173.801	173.957	79	52
173.948	174.591	53	52
173.948	174.591	68	61
174.095	174.563	70	52
174.242	174.591	75	59
174.389	174.591	80	62
174.563	175.864	39	60
174.563	175.864	51	70
174.563	175.864	70	67
174.723	175.635	75	56
174.867	175.175	79	60
175.012	175.328	82	54
175.175	175.864	55	46
175.175	175.864	58	46
175.175	175.864	63	55
175.175	175.482	79	62
175.328	175.864	82	53
175.482	175.864	79	58
175.635	175.864	75	51
175.804	177.054	44	60
175.804	176.421	56	70
175.804	177.054	72	65
175.95	176.887	75	53
176.099	176.421	80	57
176.248	176.577	84	52
176.421	177.054	56	48
176.421	177.054	60	48
176.421	177.054	63	56
176.421	176.732	80	57
176.577	177.054	84	53
176.732	177.054	80	58
176.887	177.054	75	53
177.054	178.281	39	60
177.054	178.269	51	70
177.054	178.281	70	68
177.206	177.799	75	53
177.355	177.651	79	57
177.503	178.281	82	53
177.651	178.281	55	54
177.651	179.477	63	54
177.651	178.281	79	57
177.799	178.281	75	51
177.948	178.281	53	50
177.948	178.281	68	61
178.096	178.281	80	51
178.269	178.868	51	55
178.269	178.868	67	61
178.419	178.868	70	52
178.565	178.868	75	58
178.712	178.868	79	54
178.859	179.477	53	52
178.859	179.477	68	61
179.006	179.477	70	49
179.153	179.477	75	60
179.3	179.477	80	62
179.477	180.781	39	60
179.477	180.781	51	70
179.477	180.719	70	67
179.642	180.564	75	56
179.794	180.098	79	60
179.946	180.253	82	54
180.098	180.781	55	46
180.098	180.781	58	46
180.098	180.781	63	55
180.098	180.409	79	62
180.253	180.781	82	53
180.409	180.781	79	58
180.564	180.781	75	51
180.719	181.976	38	60
180.719	181.976	50	70
180.719	181.976	70	72
180.871	181.812	74	57
181.023	181.327	77	62
181.175	181.485	82	56
181.327	181.976	53	48
181.327	181.976	58	48
181.327	181.976	65	56
181.327	181.644	77	62
181.485	181.976	82	57
181.644	181.976	77	65
181.812	181.985	74	60
181.976	183.221	36	76
181.976	183.221	48	76
181.976	183.221	72	71
182.132	183.044	75	57
182.284	182.588	81	65
182.436	182.74	84	58
182.588	183.221	57	60
182.588	183.221	63	60
182.588	182.892	81	63
182.597	183.207	53	60
182.74	183.221	84	57
182.892	183.221	81	57
183.044	183.221	75	51
183.207	183.846	46	65
183.207	183.846	53	65
183.207	183.846	58	77
183.207	183.846	74	73
183.367	183.846	77	63
183.523	183.846	82	68
183.68	183.846	86	64
183.837	184.482	51	55
183.837	184.482	55	59
183.837	184.482	60	70
183.837	184.482	75	79
183.994	184.482	79	62
184.151	184.482	84	70
184.309	184.482	87	66
184.482	185.103	53	60
184.482	185.822	58	60
184.482	185.822	62	70
184.482	185.822	74	83
184.637	185.594	77	66
184.792	185.103	82	74
184.948	185.266	86	66
185.103	185.822	41	74
185.103	185.757	53	74
185.103	185.43	82	79
185.266	185.822	86	66
185.43	185.822	82	73
185.594	185.822	77	65
185.757	186.394	53	60
185.757	187.091	57	60
185.757	187.091	63	70
185.757	187.091	72	79
185.917	186.889	75	61
186.076	186.394	81	75
186.235	186.558	84	62
186.394	187.091	41	75
186.394	187.091	53	75
186.394	186.723	81	74
186.558	187.091	84	60
186.723	187.091	81	71
186.889	187.091	75	62
187.068	188.42	34	64
187.068	188.42	46	75
187.068	188.392	70	85
187.247	188.42	74	76
187.403	188.42	77	73
187.558	187.713	82	71
187.713	188.42	53	64
187.713	188.42	58	64
187.713	188.392	62	64
187.713	188.392	82	75
187.875	188.42	86	73
188.037	188.42	89	70
188.209	188.42	94	67
188.392	188.576	62	55
188.392	188.576	65	55
188.392	188.576	70	55
188.392	188.576	82	76
189.77	190.135	62	56
189.862	190.943	34	42
189.862	190.943	46	50
189.862	190.943	65	62
190.135	190.409	56	35
190.135	190.409	58	35
190.135	190.409	62	42
190.409	190.666	56	35
190.409	190.666	58	35
190.409	190.666	62	42
190.409	190.666	77	65
190.537	190.943	79	55
190.666	190.939	56	35
190.666	190.939	58	35
190.666	190.939	62	42
190.666	190.939	77	55
190.795	190.943	76	55
190.939	191.212	56	39
190.939	191.212	58	39
190.939	191.212	62	46
190.939	191.468	77	64
191.212	191.484	56	35
191.212	191.484	58	35
191.212	191.484	62	42
191.484	191.763	58	41
191.484	191.763	61	41
191.484	191.763	64	49
191.484	192.041	79	74
191.763	192.041	58	38
191.763	192.041	61	38
191.763	192.041	64	45
192.041	193.119	46	42
192.041	192.316	58	50
192.041	192.851	80	79
192.316	192.591	58	36
192.316	192.591	62	36
192.316	192.591	65	43
192.591	192.851	58	37
192.591	192.851	62	37
192.591	192.851	65	44
192.721	193.119	82	62
192.851	193.112	58	33
192.851	193.112	62	33
192.851	193.112	65	39
192.851	193.112	80	70
192.982	193.119	79	66
193.112	193.387	58	39
193.112	193.387	62	39
193.112	193.387	65	46
193.112	193.981	80	58
193.387	193.661	58	28
193.387	193.661	62	28
193.387	193.661	65	34
193.661	193.936	58	28
193.661	193.936	62	28
193.661	193.936	65	34
193.936	194.142	58	28
193.936	194.142	62	28
193.936	194.142	65	34
194.176	194.484	63	65
194.211	195.299	39	42
194.211	195.299	51	50
194.211	195.299	67	70
194.484	194.758	55	35
194.484	194.758	58	35
194.484	194.758	63	42
194.758	195.018	55	35
194.758	195.018	58	35
194.758	195.018	63	42
194.758	195.018	79	72
194.888	195.299	80	61
195.018	195.296	55	35
195.018	195.296	58	35
195.018	195.296	63	42
195.018	195.296	79	61
195.149	195.299	78	61
195.296	195.57	55	39
195.296	195.57	58	39
195.296	195.57	63	46
195.296	195.827	79	73
195.57	195.843	55	35
195.57	195.843	58	35
195.57	195.843	63	42
195.843	196.122	56	41
195.843	196.122	58	41
195.843	196.122	65	49
195.843	196.4	80	74
196.122	196.4	56	38
196.122	196.4	58	38
196.122	196.4	65	45
196.4	197.489	39	42
196.4	197.489	51	50
196.4	197.211	82	79
196.674	196.947	58	36
196.674	196.947	63	36
196.674	196.947	67	43
196.947	197.211	58	37
196.947	197.211	63	37
196.947	197.211	67	44
197.079	197.489	84	62
197.211	197.475	58	33
197.211	197.475	63	33
197.211	197.475	67	39
197.211	197.475	82	70
197.343	197.489	81	66
197.475	197.749	58	39
197.475	197.749	63	39
197.475	197.749	67	46
197.475	198.501	82	60
197.749	198.022	58	28
197.749	198.022	63	28
197.749	198.022	67	34
198.022	198.296	58	28
198.022	198.296	63	28
198.022	198.296	67	34
198.296	198.547	58	28
198.296	198.547	63	28
198.296	198.547	67	34
198.57	199.109	48	49
198.57	198.836	60	58
198.57	199.109	87	80
198.703	198.969	75	51
198.836	199.109	60	42
198.836	199.109	63	50
198.836	199.109	79	60
198.969	199.109	75	51
199.103	199.656	46	51
199.103	199.371	58	60
199.103	199.656	86	77
199.237	199.506	74	53
199.371	199.656	58	42
199.371	199.656	62	50
199.371	199.656	79	60
199.506	199.656	74	52
199.64	200.18	44	50
199.64	199.91	56	59
199.64	200.18	84	75
199.775	200.045	72	56
199.91	200.18	56	42
199.91	200.18	60	50
199.91	200.18	75	60
200.045	200.18	72	55
200.18	200.748	43	49
200.18	200.464	55	58
200.18	200.748	82	74
200.322	200.606	70	53
200.464	200.748	55	42
200.464	200.748	58	50
200.464	200.748	75	60
200.606	200.748	70	60
200.748	201.301	48	49
200.748	201.021	60	58
200.748	201.301	87	85
200.884	201.158	75	51
201.021	201.301	60	42
201.021	201.301	63	50
201.021	201.301	79	60
201.158	201.301	75	51
201.295	201.858	44	51
201.295	201.568	56	60
201.295	201.858	84	77
201.431	201.705	72	53
201.568	201.858	56	42
201.568	201.858	62	50
201.568	201.858	77	60
201.705	201.858	72	52
201.842	202.396	43	50
201.842	202.396	55	59
201.842	202.396	82	76
201.98	202.258	70	56
202.119	202.396	58	42
202.119	202.396	63	50
202.119	202.396	75	60
202.258	202.396	70	55
202.396	202.964	44	49
202.396	202.964	56	58
202.396	202.964	80	76
202.538	202.822	68	53
202.68	202.964	60	42
202.68	202.964	65	50
202.68	202.964	72	60
202.822	202.964	68	60
202.964	204.058	46	49
202.964	203.511	58	58
202.964	204.075	79	80
203.101	203.375	67	51
203.238	203.785	70	60
203.375	203.648	67	51
203.511	204.075	58	51
203.511	204.075	63	60
203.648	203.922	67	53
203.785	204.075	70	60
203.922	204.075	67	52
204.058	205.181	34	50
204.058	205.181	46	59
204.058	205.181	77	73
204.197	204.474	65	56
204.336	204.897	68	60
204.474	204.755	65	55
204.613	205.181	56	49
204.613	205.181	58	49
204.613	205.181	62	58
204.755	205.039	65	53
204.897	205.181	68	60
205.039	205.181	65	60
205.181	206.644	39	62
205.181	206.644	51	62
205.181	205.599	75	73
205.322	206.281	67	63
205.461	206.644	70	66
205.599	206.644	75	68
205.736	206.644	55	55
205.736	206.281	58	55
205.736	206.281	63	65
205.736	206.644	79	70
205.844	206.644	82	72
205.952	206.644	87	74
206.06	206.644	91	76
206.17	206.644	94	78
206.281	206.644	58	58
206.281	206.644	63	58
206.281	206.644	67	69
206.281	206.644	99	87
207.335	208.485	65	49
207.37	208.485	70	52
207.404	208.485	34	42
207.404	208.485	46	50
207.404	208.485	77	62
207.677	207.951	56	35
207.677	207.951	58	35
207.677	207.951	62	42
207.951	208.208	56	35
207.951	208.208	58	35
207.951	208.208	62	42
207.951	208.208	89	65
208.079	208.485	91	55
208.208	208.481	56	35
208.208	208.481	58	35
208.208	208.481	62	42
208.208	208.481	89	55
208.337	208.485	88	55
208.481	208.754	56	39
208.481	208.754	58	39
208.481	208.754	62	46
208.481	209.01	89	64
208.754	209.026	56	35
208.754	209.026	58	35
208.754	209.026	62	42
209.026	209.304	58	41
209.026	209.304	61	41
209.026	209.304	64	49
209.026	209.583	91	74
209.304	209.583	58	38
209.304	209.583	61	38
209.304	209.583	64	45
209.583	211.523	46	42
209.583	209.858	58	50
209.583	210.306	92	79
209.858	210.133	58	36
209.858	210.133	62	36
209.858	210.133	65	43
210.133	210.393	58	37
210.133	210.393	62	37
210.133	210.393	65	44
210.22	211.523	94	62
210.306	211.523	92	62
210.393	210.654	58	33
210.393	210.654	62	33
210.393	210.654	65	39
210.393	211.523	89	70
210.48	211.523	86	66
210.567	211.523	82	62
210.654	210.928	58	35
210.654	210.928	62	35
210.654	210.928	65	41
210.654	211.523	80	58
210.928	211.203	58	25
210.928	211.203	62	25
210.928	211.203	65	30
211.203	211.478	58	25
211.203	211.478	62	25
211.203	211.478	65	30
211.478	211.684	58	25
211.478	211.684	62	25
211.478	211.684	65	30
211.684	212.841	67	62
211.718	212.841	75	65
211.753	212.841	39	42
211.753	212.841	51	50
211.753	212.841	79	70
212.026	212.3	55	35
212.026	212.3	58	35
212.026	212.3	63	42
212.3	212.56	55	35
212.3	212.56	58	35
212.3	212.56	63	42
212.3	212.56	91	72
212.43	212.841	92	61
212.56	212.838	55	35
212.56	212.838	58	35
212.56	212.838	63	42
212.56	212.838	91	61
212.69	212.841	90	61
212.838	213.111	55	39
212.838	213.111	58	39
212.838	213.111	63	46
212.838	213.369	91	73
213.111	213.385	55	35
213.111	213.385	58	35
213.111	213.385	63	42
213.385	213.664	56	41
213.385	213.664	58	41
213.385	213.664	65	49
213.385	213.942	92	74
213.664	213.942	56	38
213.664	213.942	58	38
213.664	213.942	65	45
213.942	216.043	39	42
213.942	216.043	51	50
213.942	214.665	94	79
214.216	214.489	58	36
214.216	214.489	63	36
214.216	214.489	67	43
214.489	214.753	58	37
214.489	214.753	63	37
214.489	214.753	67	44
214.577	216.043	96	62
214.665	216.043	94	62
214.753	215.017	58	33
214.753	215.017	63	33
214.753	215.017	67	39
214.753	216.043	91	70
214.841	216.043	87	66
214.929	216.043	84	62
215.017	215.291	58	35
215.017	215.291	63	35
215.017	215.291	67	41
215.017	216.043	82	58
215.291	215.564	58	25
215.291	215.564	63	25
215.291	215.564	67	30
215.564	215.838	58	25
215.564	215.838	63	25
215.564	215.838	67	30
215.838	216.089	58	25
215.838	216.089	63	25
215.838	216.089	67	30
216.111	216.652	48	56
216.111	216.378	60	66
216.111	216.652	87	92
216.245	216.512	75	58
216.378	216.652	60	48
216.378	216.652	63	48
216.378	216.652	67	57
216.378	216.652	79	69
216.512	216.652	75	58
216.645	217.205	46	58
216.645	216.917	58	69
216.645	217.205	86	88
216.781	217.053	74	60
216.917	217.205	58	48
216.917	217.205	62	48
216.917	217.205	67	57
216.917	217.205	79	69
217.053	217.205	74	59
217.189	217.744	44	57
217.189	217.744	56	67
217.189	217.744	84	86
217.327	217.605	72	64
217.466	217.744	60	48
217.466	217.744	63	48
217.466	217.744	67	57
217.466	217.744	75	69
217.605	217.744	72	63
217.744	218.312	43	56
217.744	218.028	55	66
217.744	218.312	82	85
217.886	218.17	70	60
218.028	218.312	55	48
218.028	218.312	58	48
218.028	218.312	63	57
218.028	218.312	75	69
218.17	218.312	70	69
218.312	218.867	48	56
218.312	218.586	60	66
218.312	218.867	87	97
218.449	218.723	75	58
218.586	218.867	60	48
218.586	218.867	63	48
218.586	218.867	67	57
218.586	218.867	79	69
218.723	218.867	75	58
218.86	219.425	44	58
218.86	219.134	56	68
218.86	219.425	84	87
218.997	219.271	72	60
219.134	219.425	56	47
219.134	219.425	62	57
219.134	219.425	77	68
219.271	219.425	72	58
219.408	219.969	43	56
219.408	219.689	55	66
219.408	219.969	82	85
219.548	219.829	70	63
219.689	219.969	55	47
219.689	219.969	58	47
219.689	219.969	63	56
219.689	219.969	75	67
219.829	219.969	70	61
219.969	220.555	44	54
219.969	220.262	56	64
219.969	220.555	80	85
220.116	220.408	68	58
220.262	220.555	56	46
220.262	220.555	60	46
220.262	220.555	65	55
220.262	220.555	72	66
220.408	220.555	68	66
220.555	221.656	46	53
220.555	221.105	58	63
220.555	221.672	79	88
220.692	220.968	67	56
220.83	221.381	70	65
220.968	221.243	67	55
221.105	221.672	55	55
221.105	221.672	58	55
221.105	221.672	63	64
221.243	221.518	67	56
221.381	221.672	70	64
221.518	221.672	67	55
221.656	222.797	34	52
221.656	222.797	46	61
221.656	222.797	77	76
221.796	222.077	65	58
221.936	222.507	68	62
222.077	222.362	65	57
222.217	222.797	56	50
222.217	222.797	58	50
222.217	222.797	62	59
222.362	222.652	65	54
222.507	222.797	68	61
222.652	222.797	65	60
222.76	223.947	67	59
222.797	223.928	39	45
222.797	222.938	51	54
222.797	223.947	75	73
222.938	223.928	51	39
223.079	223.947	55	41
223.22	223.947	58	43
223.368	223.947	63	46
223.503	223.778	79	59
223.64	223.947	78	62
223.778	223.947	79	64
223.928	225.077	39	43
223.928	224.07	51	51
223.928	225.077	84	75
224.07	225.077	51	39
224.211	225.077	55	41
224.352	225.077	58	44
224.494	225.077	63	46
224.635	225.077	82	68
224.773	225.077	79	65
224.911	225.077	75	63
225.057	226.198	41	45
225.057	225.198	53	54
225.057	226.198	74	71
225.198	226.198	53	34
225.339	226.198	56	37
225.481	226.198	58	39
225.622	226.198	62	42
225.761	226.04	70	51
225.901	226.198	69	55
226.04	226.198	70	59
226.186	227.324	34	38
226.186	227.324	46	45
226.186	227.324	72	68
226.327	227.324	53	35
226.467	227.324	56	37
226.608	227.324	58	39
226.749	227.324	62	41
226.889	227.324	70	61
227.031	227.324	65	58
227.173	227.324	66	55
227.321	228.443	39	45
227.321	227.462	51	54
227.321	228.457	67	66
227.462	228.443	51	39
227.603	228.457	55	41
227.743	228.457	58	43
227.89	228.457	63	46
228.024	228.298	79	59
228.161	228.457	78	62
228.298	228.457	79	64
228.443	229.582	39	43
228.443	228.584	51	51
228.443	229.582	84	75
228.584	229.582	51	39
228.725	229.582	55	41
228.865	229.582	58	44
229.006	229.582	63	46
229.146	229.582	82	68
229.284	229.582	79	65
229.421	229.582	75	63
229.568	230.703	41	45
229.568	229.709	53	54
229.568	230.703	74	71
229.709	230.703	53	34
229.849	230.703	56	37
229.99	230.703	58	39
230.131	230.703	62	42
230.271	230.546	70	51
230.409	230.703	69	55
230.546	230.703	70	59
230.689	231.828	34	38
230.689	231.828	46	45
230.689	231.828	72	68
230.829	231.828	53	35
230.97	231.828	56	37
231.11	231.828	58	39
231.251	231.828	62	41
231.392	231.828	70	61
231.534	231.828	65	58
231.676	231.828	66	55
231.826	232.903	39	45
231.826	231.967	51	54
231.826	232.903	67	66
231.967	232.903	51	39
232.107	232.903	55	41
232.248	232.903	58	43
232.394	232.903	63	46
232.529	232.803	79	59
232.666	232.903	78	62
232.803	232.912	79	64
232.912	232.948	76	64
232.948	234.075	39	43
232.948	234.075	51	51
232.948	233.651	85	75
233.089	234.075	55	39
233.229	234.075	58	41
233.37	234.075	60	44
233.511	234.075	64	46
233.651	234.075	85	68
233.789	234.075	84	65
233.926	234.075	82	63
234.073	235.156	41	45
234.073	234.213	53	54
234.073	235.156	80	69
234.213	235.156	53	39
234.354	235.156	56	41
234.495	235.156	60	43
234.635	235.156	65	46
234.776	235.049	84	64
234.913	235.156	83	69
235.049	235.158	84	72
235.158	235.195	78	64
235.195	236.322	38	43
235.195	236.322	50	51
235.195	235.898	87	85
235.335	236.322	57	39
235.476	236.322	60	41
235.617	236.322	62	44
235.757	236.322	66	46
235.898	236.322	87	72
236.035	236.322	86	69
236.173	236.322	84	66
236.32	237.403	43	45
236.32	236.46	55	54
236.32	237.403	82	76
236.46	237.403	55	39
236.601	237.403	58	41
236.741	237.403	62	43
236.882	237.403	67	46
237.023	237.296	91	67
237.159	237.403	90	71
237.296	237.405	91	76
237.405	237.442	84	64
237.442	238.569	44	43
237.442	237.586	56	51
237.442	238.569	94	85
237.586	238.569	56	39
237.723	238.569	60	41
237.863	238.569	65	44
238.004	238.569	68	46
238.145	238.569	92	77
238.279	238.569	86	72
238.419	238.566	89	66
238.53	238.569	79	65
238.566	239.649	46	45
238.566	238.847	58	54
238.566	239.649	89	76
238.707	239.649	55	39
238.847	239.649	58	41
238.988	239.649	63	43
239.129	239.649	67	46
239.269	239.649	87	71
239.406	239.649	79	63
239.543	239.652	84	70
239.652	239.688	74	58
239.688	240.813	34	43
239.688	240.813	46	51
239.688	240.813	84	76
239.829	240.813	53	39
239.969	240.813	56	41
240.11	240.813	58	44
240.251	240.813	62	46
240.391	240.813	82	65
240.529	240.813	80	59
240.666	240.813	77	55
240.813	241.963	39	45
240.813	240.954	51	54
240.813	241.963	75	64
240.954	241.963	51	39
241.096	241.963	55	41
241.237	241.963	58	43
241.384	241.963	63	46
241.519	241.794	79	59
241.657	241.963	78	62
241.794	241.963	79	64
241.945	243.073	34	43
241.945	243.073	46	51
241.945	243.073	84	70
242.086	243.073	82	63
242.227	243.073	80	62
242.369	242.789	77	60
242.51	243.073	56	39
242.51	243.073	58	39
242.51	243.073	62	46
242.51	243.073	74	55
242.651	243.073	75	53
242.789	243.073	77	51
242.927	243.073	79	50
243.073	244.224	39	45
243.073	243.215	51	54
243.073	244.224	75	64
243.215	244.224	51	39
243.356	244.224	55	41
243.497	244.224	58	43
243.644	244.224	63	46
243.78	244.054	79	59
243.917	244.224	78	62
244.054	244.224	79	64
244.205	245.334	34	43
244.205	245.334	46	51
244.205	245.334	84	70
244.346	245.334	82	63
244.488	245.334	80	62
244.629	245.049	77	60
244.77	245.334	56	39
244.77	245.334	58	39
244.77	245.334	62	46
244.77	245.334	74	55
244.911	245.334	75	53
245.049	245.334	77	51
245.187	245.334	79	50
245.334	247.578	39	45
245.334	245.475	51	54
245.334	246.04	75	64
245.475	247.578	51	39
245.616	247.578	55	41
245.757	247.578	58	43
245.905	246.455	63	46
246.04	247.578	75	54
246.178	247.578	77	55
246.316	247.578	79	57
246.455	247.578	63	51
246.455	247.001	67	51
246.455	247.578	80	59
246.566	247.578	82	60
246.676	247.578	84	61
246.785	247.578	86	65
246.894	247.578	87	67
247.001	247.578	67	55
247.001	247.578	70	55
247.001	247.578	89	69
247.089	247.578	91	71
247.178	247.578	92	73
247.269	247.578	94	74
247.363	247.578	96	76
247.465	247.578	98	78
247.578	249.417	75	61
247.578	249.417	79	61
247.578	249.417	99	79
249.692	249.913	67	69
249.913	250.137	67	62
250.137	250.376	67	62
250.376	251.068	48	51
250.376	251.057	55	47
250.376	251.068	60	60
250.376	251.068	63	59
250.376	251.057	67	64
250.376	251.068	72	77
251.057	251.759	55	45
251.057	251.759	59	45
251.057	251.759	62	53
251.057	251.283	67	67
251.057	251.283	71	67
251.057	251.283	74	79
251.283	251.506	67	63
251.283	251.506	71	63
251.283	251.506	74	75
251.506	251.742	67	63
251.506	251.759	71	63
251.506	251.759	74	75
251.742	252.437	60	47
251.742	252.437	63	56
251.742	252.423	67	68
251.742	252.437	72	68
251.742	252.437	75	80
252.423	253.11	55	44
252.423	253.11	59	44
252.423	253.11	62	52
252.423	252.644	67	68
252.423	252.644	71	68
252.423	252.644	74	80
252.644	252.87	67	63
252.644	252.87	71	63
252.644	252.87	74	75
252.87	253.11	67	63
252.87	253.11	71	63
252.87	253.11	74	75
253.11	253.859	48	51
253.11	253.863	55	51
253.11	253.859	60	60
253.11	253.863	63	68
253.11	253.863	67	60
253.11	253.863	72	81
253.859	254.585	48	50
253.859	254.603	53	50
253.859	254.603	56	60
253.859	254.097	60	70
253.859	254.097	65	70
253.859	254.097	68	84
254.097	254.334	60	67
254.097	254.334	65	67
254.097	254.334	68	79
254.334	254.585	60	67
254.334	254.603	65	67
254.334	254.603	68	79
254.585	255.295	48	51
254.585	255.295	55	61
254.585	255.295	60	64
254.585	255.295	63	70
254.585	255.286	67	84
255.286	255.513	67	70
255.513	255.745	67	62
255.745	255.99	67	62
255.99	256.693	48	53
255.99	256.693	55	53
255.99	256.693	60	63
255.99	256.682	67	67
255.99	256.693	72	67
255.99	256.682	75	80
256.682	257.388	39	52
256.682	257.388	51	62
256.682	256.907	67	75
256.682	256.907	75	75
256.682	256.907	79	90
256.907	257.134	67	68
256.907	257.134	75	68
256.907	257.134	79	81
257.134	257.388	67	68
257.134	257.388	75	68
257.134	257.388	79	81
257.376	258.091	41	56
257.376	258.091	53	66
257.376	258.091	68	74
257.376	258.091	74	74
257.376	258.091	77	88
258.077	258.793	42	50
258.077	258.793	54	59
258.077	258.305	69	71
258.077	258.305	72	71
258.077	258.305	75	84
258.305	258.538	69	63
258.305	258.538	72	63
258.305	258.538	75	75
258.538	258.793	69	63
258.538	258.793	72	63
258.538	258.793	75	75
258.786	259.512	43	53
258.786	259.512	55	63
258.786	259.512	67	71
258.786	259.512	71	71
258.786	260.959	74	84
259.499	260.246	50	45
259.499	260.246	57	45
259.499	260.246	60	53
259.499	259.742	62	57
259.499	259.742	66	57
259.499	259.742	69	68
259.742	259.985	62	48
259.742	259.985	66	48
259.742	259.985	69	57
259.985	260.229	62	48
259.985	260.246	66	48
259.985	260.246	69	57
260.229	260.959	55	44
260.229	260.959	59	52
260.229	260.959	62	52
260.229	260.959	67	52
260.229	260.959	71	62
260.959	261.186	67	70
261.186	261.416	67	63
261.416	261.676	67	63
261.676	262.367	48	48
261.676	262.356	55	51
261.676	262.367	60	60
261.676	262.367	64	64
261.676	262.356	67	59
261.676	262.367	72	77
262.356	263.065	55	45
262.356	263.065	59	45
262.356	263.065	62	53
262.356	262.582	67	67
262.356	262.582	71	67
262.356	262.582	74	79
262.582	262.807	67	63
262.582	262.807	71	63
262.582	262.807	74	75
262.807	263.048	67	63
262.807	263.065	71	63
262.807	263.065	74	75
263.048	263.743	60	47
263.048	263.743	64	56
263.048	263.729	67	68
263.048	263.743	72	68
263.048	263.743	76	80
263.729	264.425	55	44
263.729	264.425	59	44
263.729	264.425	62	52
263.729	263.955	67	68
263.729	263.955	71	68
263.729	263.955	74	80
263.955	264.183	67	63
263.955	264.183	71	63
263.955	264.183	74	75
264.183	264.425	67	63
264.183	264.425	71	63
264.183	264.425	74	75
264.425	265.144	48	51
264.425	265.148	55	51
264.425	265.144	60	60
264.425	265.148	64	68
264.425	265.148	67	68
264.425	265.148	72	81
265.144	265.893	48	50
265.144	265.91	53	50
265.144	265.91	57	60
265.144	265.386	60	70
265.144	265.386	65	70
265.144	265.386	69	84
265.386	265.628	60	67
265.386	265.628	65	67
265.386	265.628	69	79
265.628	265.893	60	67
265.628	265.91	65	67
265.628	265.91	69	79
265.893	266.603	48	51
265.893	266.603	55	61
265.893	266.603	60	70
265.893	266.593	64	70
265.893	266.603	67	84
266.593	267.403	45	51
266.593	267.403	54	51
266.593	267.403	57	61
266.593	266.826	64	70
266.593	266.826	66	70
266.599	266.827	76	77
266.826	267.057	64	70
266.826	267.057	66	70
266.827	267.054	76	71
267.054	267.403	76	71
267.057	267.403	64	70
267.057	267.403	66	70
267.304	268.008	47	53
267.304	267.997	55	53
267.304	267.997	59	63
267.304	268.008	62	67
267.304	267.997	67	67
267.304	268.008	74	80
267.997	268.712	52	52
267.997	268.701	55	46
267.997	268.712	59	62
267.997	268.229	64	72
267.997	268.229	67	86
268.229	268.459	64	66
268.229	268.459	67	78
268.459	268.701	64	66
268.459	268.701	67	78
268.701	269.416	48	56
268.701	269.416	55	56
268.701	269.416	57	66
268.701	269.416	64	71
268.701	269.416	67	71
268.701	269.416	69	84
269.401	270.136	38	50
269.401	270.136	50	59
269.401	269.639	60	71
269.401	269.639	66	71
269.401	269.639	71	84
269.639	269.876	60	63
269.639	269.876	66	63
269.639	269.876	71	75
269.876	270.136	60	63
269.876	270.136	66	63
269.876	270.136	71	75
270.129	270.842	43	66
270.129	272.302	55	66
270.129	272.302	59	71
270.129	272.302	62	71
270.129	272.302	67	84
270.842	272.302	43	65
271.572	272.302	31	69
272.302	272.765	67	55
272.842	273.78	62	57
272.881	276.326	68	61
272.92	276.326	34	48
272.92	274.607	46	48
272.92	273.78	70	65
273.208	274.336	56	42
273.496	274.06	58	42
273.78	275.467	62	48
273.78	274.06	70	59
273.921	276.326	65	55
274.06	275.18	58	42
274.06	276.04	70	59
274.199	276.326	74	62
274.336	274.893	56	42
274.336	276.326	77	66
274.427	276.326	82	69
274.517	276.326	86	71
274.607	276.326	46	48
274.607	276.326	89	74
274.893	276.04	56	41
275.18	275.753	58	41
275.467	276.326	62	48
275.753	276.326	58	40
276.04	276.326	56	41
276.04	276.326	70	56
276.255	277.186	63	58
276.291	277.326	67	62
276.326	279.739	34	48
276.326	278.008	46	48
276.326	277.186	70	66
276.613	277.738	55	41
276.9	277.465	58	41
277.186	278.864	63	48
277.186	277.465	70	56
277.326	279.701	67	53
277.465	278.579	58	42
277.465	279.437	70	63
277.602	279.743	75	58
277.738	278.293	55	42
277.738	279.743	79	64
277.827	279.743	82	68
277.916	279.743	87	71
278.008	279.739	46	48
278.008	279.743	91	75
278.293	279.437	55	42
278.579	279.149	58	42
278.864	279.743	63	48
279.149	279.743	58	42
279.437	279.743	55	42
279.437	279.739	70	59
279.663	280.596	64	64
279.701	280.733	67	67
279.739	283.116	34	48
279.739	281.406	46	48
279.739	280.596	70	70
280.027	281.139	55	43
280.312	280.869	58	43
280.596	282.258	64	52
280.596	280.869	70	67
280.733	283.116	67	62
280.869	281.974	58	43
280.869	282.829	70	66
281.005	283.116	76	69
281.139	281.69	55	44
281.139	283.116	79	72
281.228	283.116	82	74
281.316	283.116	88	77
281.406	283.116	46	50
281.406	283.116	91	79
281.69	282.826	55	43
281.974	282.542	58	43
282.258	283.116	64	51
282.542	283.116	58	44
282.826	283.116	55	44
282.829	283.116	70	58
283.116	283.971	46	51
283.116	283.971	56	51
283.116	283.959	58	61
283.116	283.399	70	61
283.116	283.971	80	72
283.399	283.678	70	57
283.678	283.959	70	57
283.959	284.8	58	43
283.959	284.814	64	43
283.959	284.814	67	51
283.959	284.238	70	62
283.959	284.814	79	73
284.238	284.519	70	56
284.519	284.8	70	57
284.8	285.64	58	44
284.8	285.648	65	44
284.8	285.648	68	53
284.8	285.082	70	64
284.8	285.648	80	76
285.082	285.359	70	57
285.359	285.64	70	57
285.64	286.484	58	43
285.64	286.484	64	43
285.64	286.484	67	51
285.64	285.921	70	63
285.64	286.484	79	76
285.921	286.203	70	59
286.203	286.484	70	59
286.484	287.334	58	57
286.484	287.334	65	57
286.484	287.334	68	68
286.484	286.774	70	64
286.484	287.334	80	75
286.774	287.054	70	50
286.774	287.054	82	59
287.054	287.334	57	53
287.054	287.334	69	63
287.054	287.334	70	50
287.054	287.334	82	59
287.334	289.839	56	58
287.334	289.839	68	68
287.334	287.614	70	54
287.334	287.614	82	64
287.614	287.894	70	50
287.614	287.894	82	60
287.894	289.839	55	59
287.894	289.839	67	70
287.894	288.174	70	51
287.894	288.174	82	60
288.174	289.839	53	59
288.174	289.839	65	71
288.174	288.453	70	57
288.174	288.453	82	68
288.453	288.735	70	51
288.453	288.735	82	60
288.735	289.839	51	61
288.735	289.839	63	73
288.735	289.011	70	51
288.735	289.011	82	61
289.011	289.839	50	62
289.011	289.839	62	74
289.011	289.287	70	58
289.011	289.287	82	69
289.287	289.563	70	52
289.287	289.563	82	62
289.563	289.839	48	65
289.563	289.839	60	77
289.563	289.839	70	52
289.563	289.839	82	62
289.839	291.497	46	67
289.839	291.497	58	79
289.839	290.111	70	56
289.839	290.111	82	66
290.111	290.386	70	56
290.111	290.386	82	67
290.386	291.497	45	68
290.386	291.497	57	81
290.386	290.656	70	58
290.386	290.656	82	69
290.656	291.497	44	69
290.656	291.497	56	83
290.656	290.929	70	59
290.656	290.929	82	71
290.929	291.206	70	61
290.929	291.206	82	72
291.206	291.497	43	72
291.206	291.497	55	86
291.206	291.484	70	62
291.206	291.484	82	75
291.484	293.23	41	73
291.484	293.23	53	87
291.484	291.766	70	63
291.484	291.766	82	76
291.766	292.052	70	65
291.766	292.052	82	77
292.052	293.23	39	75
292.052	293.23	51	89
292.052	292.341	70	67
292.052	292.341	82	80
292.341	293.23	38	76
292.341	293.23	50	90
292.341	292.633	70	68
292.341	292.633	82	81
292.633	292.93	70	70
292.633	292.93	82	84
292.93	293.23	36	78
292.93	293.23	48	93
292.93	293.23	70	71
292.93	293.23	82	85
293.23	294.957	34	83
293.23	294.957	46	100
293.23	293.519	70	73
293.23	293.519	82	87
293.519	293.799	70	66
293.519	293.799	82	79
293.799	294.079	70	66
293.799	294.079	82	79
294.079	294.957	53	70
294.079	294.957	58	70
294.079	294.957	62	82
294.079	294.359	70	77
294.079	294.957	74	77
294.079	294.957	77	77
294.079	294.359	82	90
294.359	294.639	70	71
294.359	294.639	82	85
294.639	294.957	70	71
294.639	294.957	82	85
294.944	296.639	33	83
294.944	296.639	45	98
294.944	295.224	71	78
294.944	295.224	83	93
295.224	295.504	71	69
295.224	295.504	83	81
295.504	295.784	71	69
295.504	295.784	83	81
295.784	296.639	57	67
295.784	296.639	63	67
295.784	296.639	66	80
295.784	296.064	71	78
295.784	296.639	75	78
295.784	296.639	78	78
295.784	296.064	83	93
296.064	296.344	71	69
296.064	296.344	83	81
296.344	296.639	71	67
296.344	296.639	83	80
296.639	298.341	32	83
296.639	298.341	44	100
296.639	296.919	72	73
296.639	296.919	84	87
296.919	297.199	72	66
296.919	297.199	84	79
297.199	297.479	72	66
297.199	297.479	84	79
297.479	298.341	56	70
297.479	298.341	63	70
297.479	298.341	66	82
297.479	297.759	72	77
297.479	298.341	75	77
297.479	298.341	78	77
297.479	297.759	84	90
297.759	298.039	72	71
297.759	298.039	84	85
298.039	298.341	72	71
298.039	298.341	84	85
298.331	300.01	29	83
298.331	300.01	41	98
298.331	298.611	74	78
298.331	298.611	86	93
298.611	298.891	74	69
298.611	298.891	86	81
298.891	299.171	74	69
298.891	299.171	86	81
299.171	300.01	56	67
299.171	300.01	58	67
299.171	300.01	62	67
299.171	300.01	65	80
299.171	302.573	74	78
299.171	302.645	77	78
299.171	302.719	80	78
299.171	304.637	86	93
300.01	304.637	34	98
301.819	304.637	41	51
301.889	304.637	44	53
301.957	304.637	46	54
302.025	304.637	50	56
302.093	304.637	53	57
302.161	304.637	56	59
302.228	304.637	58	60
302.295	304.637	62	56
302.363	304.637	65	61
302.432	304.637	68	63
302.502	304.637	70	66
302.573	304.637	74	69
302.645	304.637	77	72
302.719	304.637	80	74
302.794	304.92	82	82
305.206	305.529	70	47
305.206	305.529	82	58
305.529	305.857	69	44
305.529	305.857	81	55
305.857	306.19	70	49
305.857	306.19	82	61
306.19	306.528	71	53
306.19	306.528	83	66
306.528	306.917	72	56
306.528	306.917	84	70
306.917	308.005	73	55
306.917	308.005	85	69
308.005	309.619	74	50
308.005	309.619	86	62
309.619	311.211	39	62
309.619	311.211	51	74
309.619	311.211	75	72
309.619	311.211	87	85
309.9	310.15	79	62
309.9	310.15	82	62
310.15	310.665	79	62
310.15	310.665	82	62
310.4	311.211	55	53
310.4	311.211	58	53
310.4	311.211	63	63
310.665	310.919	79	62
310.665	310.919	82	62
310.919	311.211	79	62
310.919	311.211	82	62
311.202	312.782	34	62
311.202	312.782	46	74
311.202	312.782	74	69
311.202	312.782	86	82
311.482	311.731	77	61
311.482	311.731	82	61
311.731	312.229	77	61
311.731	312.229	82	61
311.98	312.767	53	54
311.98	312.782	58	54
311.98	312.782	62	64
312.229	312.478	77	59
312.229	312.478	82	59
312.478	312.782	77	59
312.478	312.782	82	59
312.767	314.362	41	62
312.767	313.542	53	74
312.767	314.362	72	68
312.767	314.362	84	81
313.036	313.289	77	60
313.036	313.289	81	60
313.289	313.8	77	60
313.289	313.8	81	60
313.542	314.362	53	56
313.542	314.362	57	56
313.542	314.362	60	66
313.8	314.063	77	62
313.8	314.063	81	62
314.063	314.362	77	62
314.063	314.362	81	62
314.353	315.952	34	62
314.353	315.952	46	74
314.353	315.952	74	74
314.353	315.952	86	88
314.635	314.888	77	65
314.635	314.888	82	65
314.888	315.395	77	66
314.888	315.395	82	66
315.141	315.952	53	56
315.141	315.952	58	56
315.141	315.952	62	67
315.395	315.648	77	65
315.395	315.648	82	65
315.648	315.952	77	65
315.648	315.938	82	65
315.938	317.523	39	69
315.938	317.523	51	82
315.938	317.523	70	71
315.938	317.523	82	84
316.217	316.472	75	72
316.217	316.472	79	72
316.472	316.974	75	72
316.472	316.974	79	72
316.723	317.523	55	63
316.723	317.523	58	63
316.723	317.523	63	75
316.974	317.226	75	71
316.974	317.226	79	71
317.226	317.523	75	71
317.226	317.523	79	71
317.511	319.117	44	69
317.511	318.304	56	82
317.511	319.117	72	73
317.511	319.117	84	86
317.794	318.051	75	72
317.794	318.051	80	72
318.051	318.557	75	72
318.051	318.557	80	72
318.304	319.117	56	63
318.304	319.117	60	63
318.304	319.117	63	75
318.557	318.811	75	72
318.557	318.811	80	72
318.811	319.117	75	68
318.811	319.117	80	68
319.106	320.712	41	69
319.106	319.897	53	82
319.106	320.712	74	73
319.106	320.712	86	87
319.385	319.643	77	75
319.385	319.643	80	75
319.643	320.152	77	75
319.643	320.152	80	75
319.897	320.712	53	61
319.897	320.712	56	61
319.897	320.712	58	61
319.897	320.712	62	72
320.152	320.406	77	68
320.152	320.406	80	68
320.406	320.712	77	74
320.406	320.712	80	74
320.712	321.35	39	79
320.712	321.35	51	93
320.712	321.532	75	76
320.712	321.532	87	90
320.994	321.259	79	77
320.994	321.259	82	77
321.259	321.532	79	77
321.259	321.532	82	77
321.532	324.663	39	58
321.628	324.663	46	52
321.724	324.663	51	52
321.82	324.663	55	58
321.912	324.663	58	52
322.004	324.663	63	52
322.095	322.452	67	70
322.186	322.364	70	66
322.275	322.625	75	66
322.364	322.539	70	75
322.452	324.663	67	73
322.539	324.663	70	70
322.625	324.663	75	84
322.711	324.663	79	80
322.796	324.663	82	80
322.881	324.663	87	100
322.972	324.663	91	87
323.07	324.663	94	95
323.175	324.663	99	100
324.663	326.254	48	62
324.663	325.443	60	74
324.663	326.245	75	72
324.663	326.245	87	85
324.943	325.193	79	62
324.943	325.193	84	62
325.193	325.709	79	62
325.193	325.709	84	62
325.443	326.254	55	53
325.443	326.254	60	53
325.443	326.254	63	63
325.709	325.962	79	62
325.709	325.962	84	62
325.962	326.254	79	62
325.962	326.254	84	62
326.245	327.826	44	62
326.245	327.023	56	74
326.245	327.826	75	74
326.245	327.826	87	87
326.525	326.774	80	67
326.525	326.774	84	67
326.774	327.273	80	67
326.774	327.273	84	67
327.023	327.826	56	54
327.023	327.826	60	54
327.023	327.826	63	64
327.273	327.522	80	64
327.273	327.522	84	64
327.522	327.826	80	64
327.522	327.826	84	64
327.81	329.406	43	62
327.81	328.586	55	74
327.81	329.396	70	68
327.81	329.396	82	81
328.079	328.332	75	60
328.079	328.332	79	64
328.332	328.843	75	60
328.332	328.843	79	64
328.586	329.406	55	56
328.586	329.406	58	56
328.586	329.406	63	66
328.843	329.106	75	62
328.843	329.106	79	65
329.106	329.406	75	62
329.106	329.406	79	65
329.396	330.995	34	62
329.396	330.995	46	74
329.396	330.995	70	74
329.396	330.995	82	88
329.678	329.931	77	65
329.931	330.438	77	66
330.185	330.995	53	56
330.185	330.995	58	56
330.185	330.995	65	67
330.438	330.691	77	65
330.691	330.995	77	65
330.981	332.566	39	69
330.981	332.566	51	82
330.981	332.566	67	71
330.981	332.566	79	84
331.26	331.516	70	64
331.26	331.516	75	64
331.516	332.018	70	64
331.516	332.018	75	64
331.767	332.566	55	63
331.767	332.566	58	63
331.767	332.566	63	75
332.018	332.269	70	63
332.018	332.269	75	63
332.269	332.555	70	63
332.269	332.566	75	63
332.555	334.16	40	69
332.555	333.347	52	82
332.555	334.16	70	73
332.555	334.16	82	86
332.838	333.094	73	72
332.838	333.094	79	72
333.094	333.601	73	72
333.094	333.601	79	72
333.347	334.16	52	63
333.347	334.16	58	63
333.347	334.16	61	75
333.601	333.854	73	72
333.601	333.854	79	72
333.854	334.16	73	68
333.854	334.16	79	68
334.15	335.755	41	69
334.15	334.941	53	82
334.15	335.755	68	73
334.15	335.755	80	87
334.429	334.686	72	75
334.429	334.686	77	75
334.686	335.195	72	75
334.686	335.195	77	75
334.941	335.755	53	61
334.941	335.755	56	61
334.941	335.755	60	72
335.195	335.755	72	68
335.195	335.755	77	68
335.449	335.755	34	74
335.449	335.755	46	74
335.755	336.563	36	79
335.755	336.563	48	93
335.755	336.576	67	76
335.755	336.576	79	90
336.037	336.303	72	77
336.037	336.303	75	77
336.303	336.576	72	77
336.303	336.576	75	77
336.576	339.247	36	58
336.672	339.247	48	52
336.768	339.247	51	52
336.864	339.247	55	58
336.955	339.247	60	52
337.047	339.247	63	52
337.139	337.495	67	75
337.229	337.407	72	66
337.318	337.669	75	66
337.407	337.582	72	81
337.495	339.247	67	76
337.582	339.247	72	76
337.669	339.247	75	87
337.754	339.247	79	85
337.839	339.247	84	85
337.925	339.247	87	86
337.992	339.247	91	89
338.063	339.247	96	92
338.138	339.247	99	95
338.218	339.706	103	98
339.706	341.298	36	62
339.706	341.298	48	74
339.706	341.298	67	72
339.706	341.298	79	85
339.986	340.236	72	62
339.986	340.236	75	62
340.236	340.752	72	62
340.236	340.752	75	62
340.486	341.298	55	53
340.486	341.298	60	53
340.486	341.298	63	63
340.752	341.005	72	62
340.752	341.005	75	62
341.005	341.288	72	62
341.005	341.298	75	62
341.288	342.853	44	62
341.288	342.067	56	74
341.288	342.853	72	69
341.288	342.853	84	83
341.569	341.818	75	61
341.569	341.818	80	61
341.818	342.316	75	61
341.818	342.316	80	61
342.067	342.853	56	54
342.067	342.869	60	54
342.067	342.869	63	64
342.316	342.565	75	59
342.316	342.565	80	59
342.565	342.869	75	59
342.565	342.869	80	59
342.853	344.449	44	68
342.853	343.629	56	81
342.853	344.449	72	74
342.853	344.449	84	89
343.123	343.376	74	66
343.123	343.376	77	66
343.376	343.887	74	66
343.376	343.887	77	66
343.629	344.449	56	61
343.629	344.449	58	61
343.629	344.449	62	61
343.629	344.449	65	72
343.887	344.15	74	68
343.887	344.15	77	68
344.15	344.449	74	68
344.15	344.449	77	68
344.44	346.038	43	62
344.44	345.228	55	74
344.44	346.038	70	74
344.44	346.038	82	88
344.721	344.975	75	65
344.721	344.975	79	65
344.975	345.481	75	66
344.975	345.481	79	66
345.228	346.038	55	56
345.228	346.038	58	56
345.228	346.038	63	67
345.481	345.734	75	65
345.481	345.734	79	65
345.734	346.038	75	65
345.734	346.038	79	65
346.024	347.61	35	69
346.024	347.61	47	82
346.024	347.61	74	75
346.024	347.61	86	87
346.303	346.559	77	72
346.303	346.559	80	72
346.559	347.061	77	72
346.559	347.061	80	72
346.81	347.61	53	63
346.81	347.61	56	63
346.81	347.61	62	75
347.061	347.312	77	71
347.061	347.312	80	71
347.312	347.61	77	71
347.312	347.61	80	71
347.598	349.203	36	69
347.598	349.203	48	82
347.598	349.203	75	81
347.598	349.203	87	96
347.881	348.138	79	72
347.881	348.138	84	72
348.138	348.644	79	72
348.138	348.644	84	72
348.391	349.203	55	63
348.391	349.203	60	63
348.391	349.203	63	75
348.644	348.897	79	72
348.644	348.897	84	72
348.897	349.203	79	68
348.897	349.193	84	68
349.193	350.799	41	69
349.193	349.984	53	82
349.193	350.799	72	73
349.193	350.799	84	87
349.472	349.73	75	75
349.472	349.73	81	75
349.73	350.238	75	75
349.73	350.238	81	75
349.984	350.799	53	61
349.984	350.799	57	61
349.984	350.799	63	72
350.238	350.493	75	68
350.238	350.493	81	68
350.493	350.799	75	74
350.493	350.799	81	74
350.799	351.598	34	79
350.799	351.598	46	93
350.799	351.619	70	76
350.799	351.619	82	90
351.081	351.346	74	77
351.081	351.346	77	77
351.346	351.619	74	77
351.346	351.619	77	77
351.619	353.657	46	60
351.715	353.657	53	53
351.811	353.657	58	53
351.907	353.657	62	65
351.999	353.657	65	59
352.09	353.657	70	60
352.182	352.538	74	70
352.272	352.45	77	63
352.362	352.712	82	65
352.45	352.625	77	75
352.538	353.657	74	69
352.625	353.657	77	73
352.712	353.657	82	81
352.804	353.657	86	86
352.906	353.657	89	92
353.018	353.982	94	103
353.982	355.577	48	65
353.982	354.763	60	77
353.982	355.577	75	75
353.982	355.577	87	89
354.263	354.513	79	65
354.263	354.513	84	65
354.513	355.029	79	65
354.513	355.029	84	65
354.763	355.565	55	55
354.763	355.577	60	55
354.763	355.577	63	66
355.029	355.282	79	65
355.029	355.282	84	65
355.282	355.577	79	65
355.282	355.577	84	65
355.565	357.146	43	65
355.565	356.343	55	77
355.565	357.146	74	72
355.565	357.146	86	91
355.845	356.094	79	64
355.845	356.094	82	64
356.094	356.592	79	64
356.094	356.592	82	64
356.343	357.146	55	56
356.343	357.146	58	56
356.343	357.146	62	67
356.592	356.842	79	61
356.592	356.842	82	61
356.842	357.146	79	61
356.842	357.146	82	61
357.13	358.726	44	65
357.13	357.906	56	77
357.13	358.726	72	71
357.13	358.726	84	85
357.399	357.652	75	63
357.399	357.652	80	63
357.652	358.163	75	63
357.652	358.163	80	63
357.906	358.726	53	58
357.906	358.726	56	58
357.906	358.726	60	69
358.163	358.426	75	65
358.163	358.426	80	65
358.426	358.726	75	65
358.426	358.726	80	65
358.716	360.315	39	62
358.716	360.315	51	74
358.716	360.315	70	74
358.716	360.315	82	88
358.998	359.251	75	68
358.998	359.251	79	68
359.251	359.758	75	66
359.251	359.758	79	66
359.505	360.315	55	56
359.505	360.315	58	56
359.505	360.315	63	67
359.758	360.011	75	65
359.758	360.011	79	65
360.011	360.315	75	65
360.011	360.301	79	65
360.301	361.886	40	69
360.301	361.087	52	82
360.301	361.886	67	71
360.301	361.886	79	84
360.58	360.836	70	68
360.58	360.836	73	68
360.836	361.338	70	68
360.836	361.338	73	68
361.087	361.886	52	63
361.087	361.886	58	63
361.087	361.886	61	75
361.338	361.589	70	67
361.338	361.589	73	67
361.589	361.886	70	67
361.589	361.886	73	67
361.875	362.682	41	69
361.875	362.682	53	82
361.875	362.682	68	73
361.875	362.682	80	86
362.158	362.414	72	68
362.158	362.414	77	68
362.414	362.682	72	70
362.414	362.682	77	70
362.667	363.486	43	72
362.667	363.486	55	86
362.667	363.486	67	76
362.667	363.486	79	90
362.928	363.18	70	72
362.928	363.18	75	72
363.18	363.486	70	69
363.18	363.486	75	69
363.475	364.966	46	73
363.475	364.266	58	86
363.475	365.081	65	77
363.475	365.081	77	90
363.754	364.012	70	68
363.754	364.012	75	81
364.012	364.521	70	68
364.012	364.521	75	81
364.266	365.081	58	67
364.266	365.081	63	79
364.521	364.775	70	67
364.521	364.775	75	79
364.775	365.081	70	68
364.775	365.081	75	80
364.966	366.72	46	51
365.005	366.72	53	55
365.043	366.72	56	57
365.081	366.72	62	61
365.081	366.72	65	73
365.081	366.72	68	73
365.081	366.72	74	73
365.081	366.72	77	87
366.447	366.72	75	80
366.72	369.935	39	61
366.72	366.992	51	72
366.72	367.538	63	72
366.72	367.67	67	72
366.72	367.933	75	72
366.992	367.265	51	46
366.992	367.265	55	46
366.992	367.265	58	55
367.265	367.538	51	47
367.265	367.538	55	47
367.265	367.538	58	56
367.538	367.802	51	44
367.538	367.802	55	44
367.538	367.802	58	52
367.538	369.656	63	65
367.67	369.935	67	68
367.802	368.063	51	38
367.802	368.063	55	38
367.802	368.063	58	45
367.802	369.935	70	70
367.933	369.656	75	73
368.063	368.334	51	38
368.063	368.334	55	38
368.063	368.334	58	45
368.063	369.935	79	75
368.198	369.935	82	78
368.334	368.599	51	44
368.334	368.599	55	44
368.334	368.599	58	52
368.334	369.935	87	89
368.599	368.863	51	37
368.599	368.863	55	37
368.599	368.863	58	43
368.863	369.127	51	38
368.863	369.127	55	38
368.863	369.127	58	44
369.127	369.392	51	41
369.127	369.392	55	41
369.127	369.392	58	49
369.392	369.656	51	38
369.392	369.656	55	38
369.392	369.656	58	47
369.656	369.935	51	42
369.656	369.935	55	42
369.656	369.935	58	50
369.656	369.935	63	69
369.656	369.935	75	74
369.935	373.151	37	63
369.935	370.207	49	74
369.935	370.75	63	63
369.935	370.882	67	63
369.935	371.013	70	63
369.935	371.143	75	74
370.207	370.478	49	48
370.207	370.478	51	48
370.207	370.478	55	48
370.207	370.478	58	57
370.478	370.75	49	49
370.478	370.75	51	49
370.478	370.75	55	49
370.478	370.75	58	58
370.75	371.013	49	45
370.75	371.013	51	45
370.75	371.013	55	45
370.75	371.013	58	54
370.75	372.865	63	67
370.882	373.151	67	65
371.013	371.274	49	40
371.013	371.274	51	40
371.013	371.274	55	40
371.013	371.274	58	47
371.013	373.151	70	74
371.143	372.865	75	77
371.274	371.548	49	40
371.274	371.548	51	40
371.274	371.548	55	40
371.274	371.548	58	47
371.274	373.151	79	79
371.411	373.151	82	78
371.548	371.812	49	45
371.548	371.812	51	45
371.548	371.812	55	45
371.548	371.812	58	54
371.548	373.151	87	92
371.812	372.077	49	38
371.812	372.077	51	38
371.812	372.077	55	38
371.812	372.077	58	46
372.077	372.338	49	38
372.077	372.338	51	38
372.077	372.338	55	38
372.077	372.338	58	46
372.338	372.6	49	42
372.338	372.6	51	42
372.338	372.6	55	42
372.338	372.6	58	51
372.6	372.865	49	40
372.6	372.865	51	40
372.6	372.865	55	40
372.6	372.865	58	49
372.865	373.151	49	43
372.865	373.151	51	43
372.865	373.151	55	43
372.865	373.151	58	52
372.865	373.151	63	72
372.865	373.151	75	76
373.151	376.372	36	65
373.151	373.421	48	76
373.151	373.962	63	65
373.151	374.091	68	65
373.151	374.348	75	76
373.421	373.692	48	49
373.421	373.692	51	49
373.421	373.692	56	49
373.421	373.692	60	59
373.692	373.962	48	51
373.692	373.962	51	51
373.692	373.962	56	51
373.692	373.962	60	61
373.962	374.22	48	47
373.962	374.22	51	47
373.962	374.22	56	47
373.962	374.22	60	56
373.962	376.081	63	73
374.091	376.372	68	76
374.22	374.475	48	41
374.22	374.475	51	41
374.22	374.475	56	41
374.22	374.475	60	49
374.22	376.372	72	79
374.348	376.081	75	80
374.475	374.749	48	42
374.475	374.749	51	42
374.475	374.749	56	42
374.475	374.749	60	49
374.475	376.372	80	86
374.612	376.372	84	85
374.749	375.021	48	46
374.749	375.021	51	46
374.749	375.021	56	46
374.749	375.021	60	55
374.749	376.372	87	97
375.021	375.285	48	40
375.021	375.285	51	40
375.021	375.285	56	40
375.021	375.285	60	47
375.285	375.547	48	40
375.285	375.547	51	40
375.285	375.547	56	40
375.285	375.547	60	47
375.547	375.813	48	44
375.547	375.813	51	44
375.547	375.813	56	44
375.547	375.813	60	53
375.813	376.081	48	42
375.813	376.081	51	42
375.813	376.081	56	42
375.813	376.081	60	51
376.081	376.372	48	45
376.081	376.372	51	45
376.081	376.372	56	45
376.081	376.372	60	54
376.081	376.372	63	74
376.081	376.372	75	79
376.372	379.595	32	68
376.372	379.595	44	80
376.372	379.595	68	68
376.372	377.317	71	68
376.372	377.446	75	68
376.372	377.575	77	80
376.644	376.915	51	52
376.644	376.915	56	52
376.644	376.915	59	62
376.915	377.187	51	53
376.915	377.187	56	53
376.915	377.187	59	63
377.187	377.446	51	49
377.187	377.446	56	49
377.187	377.446	59	58
377.187	379.313	65	75
377.317	379.595	71	73
377.446	377.702	51	43
377.446	377.702	56	43
377.446	377.702	59	51
377.446	379.595	75	82
377.575	379.313	77	79
377.702	377.98	51	43
377.702	377.98	56	43
377.702	377.98	59	51
377.702	379.595	83	88
377.841	379.595	87	88
377.98	378.25	51	48
377.98	378.25	56	48
377.98	378.25	59	57
377.98	379.595	89	99
378.25	378.517	51	41
378.25	378.517	56	41
378.25	378.517	59	49
378.517	378.78	51	41
378.517	378.78	56	41
378.517	378.78	59	49
378.78	379.045	51	45
378.78	379.045	56	45
378.78	379.045	59	54
379.045	379.313	51	42
379.045	379.313	56	42
379.045	379.313	59	51
379.313	379.595	51	45
379.313	379.595	56	45
379.313	379.595	59	54
379.313	379.595	65	75
379.313	379.595	77	80
379.595	385.991	27	68
379.595	382.809	39	80
379.595	380.408	67	68
379.595	380.54	70	68
379.595	380.672	75	68
379.595	380.803	79	80
379.868	380.141	51	52
379.868	380.141	55	52
379.868	380.141	58	52
379.868	380.141	63	62
380.141	380.408	51	54
380.141	380.408	55	54
380.141	380.408	58	54
380.141	380.408	63	64
380.408	380.672	51	56
380.408	380.672	55	56
380.408	380.672	58	56
380.408	380.672	63	66
380.408	387.505	67	81
380.54	387.505	70	70
380.672	380.935	51	49
380.672	380.935	55	49
380.672	380.935	58	49
380.672	380.935	63	58
380.672	387.505	75	88
380.803	381.603	79	83
380.935	381.199	51	49
380.935	381.199	55	49
380.935	381.199	58	49
380.935	387.57	63	59
380.935	381.471	82	95
381.067	381.335	87	87
381.199	381.471	46	56
381.199	381.471	51	56
381.199	381.471	55	56
381.199	381.471	58	67
381.199	382.0	91	102
381.335	381.867	87	81
381.471	381.735	46	51
381.471	381.735	51	51
381.471	381.735	55	51
381.471	381.735	58	61
381.471	381.735	82	93
381.603	382.397	79	87
381.735	382.0	46	51
381.735	382.0	51	51
381.735	382.0	55	51
381.735	387.57	58	61
381.735	382.264	82	94
381.867	382.131	87	89
382.0	382.264	43	57
382.0	382.264	46	57
382.0	382.264	51	57
382.0	382.264	55	68
382.0	382.809	91	110
382.131	382.67	87	85
382.264	382.53	43	55
382.264	382.53	46	55
382.264	382.53	51	55
382.264	382.53	55	65
382.264	382.53	82	96
382.397	383.617	79	86
382.53	383.617	43	55
382.53	382.809	46	55
382.53	382.809	51	55
382.53	387.57	55	66
382.53	383.749	82	98
382.67	383.881	87	84
382.809	383.079	39	74
382.809	383.079	46	74
382.809	383.079	51	88
382.809	384.012	91	107
383.079	383.348	39	57
383.079	383.348	46	57
383.079	383.348	51	68
383.348	383.617	39	58
383.348	383.617	46	58
383.348	383.617	51	69
383.617	383.881	39	60
383.617	383.881	43	60
383.617	383.881	46	60
383.617	383.881	51	71
383.617	387.505	79	90
383.749	393.828	82	87
383.881	384.143	39	53
383.881	384.143	43	53
383.881	384.143	46	53
383.881	384.143	51	63
383.881	393.828	87	97
384.012	384.793	91	91
384.143	384.403	39	53
384.143	384.403	43	53
384.143	384.403	46	53
384.143	387.57	51	63
384.143	384.663	94	104
384.273	384.533	99	100
384.403	384.663	34	59
384.403	384.663	39	59
384.403	384.663	43	59
384.403	384.663	46	71
384.403	385.184	103	111
384.533	385.054	99	97
384.663	384.924	34	54
384.663	384.924	39	54
384.663	384.924	43	54
384.663	384.924	46	64
384.663	384.924	94	104
384.793	385.574	91	99
384.924	385.184	34	54
384.924	385.184	39	54
384.924	385.184	43	54
384.924	389.205	46	64
384.924	385.444	94	104
385.054	385.314	99	95
385.184	385.444	31	60
385.184	385.444	34	60
385.184	385.444	39	60
385.184	385.444	43	71
385.184	385.991	103	111
385.314	385.848	99	96
385.444	385.705	31	57
385.444	385.705	34	57
385.444	385.705	39	57
385.444	385.705	43	68
385.444	385.705	94	101
385.574	385.991	91	97
385.705	393.828	31	57
385.705	385.991	34	57
385.705	385.991	39	57
385.705	393.828	43	68
385.705	385.991	94	102
385.848	385.991	99	95
385.991	393.828	27	74
385.991	393.828	34	74
385.991	389.205	39	90
385.991	393.828	91	83
385.991	393.828	94	83
385.991	393.828	99	98
385.991	393.828	103	116
387.505	387.57	67	56
387.505	387.57	70	56
387.505	387.57	75	67
387.505	387.57	79	80
387.57	389.205	51	68
387.57	389.124	55	68
387.57	389.124	58	68
387.57	389.124	63	81
387.57	393.828	67	84
387.57	393.828	70	84
387.57	393.828	75	99
387.57	393.828	79	99
389.124	389.205	55	67
389.124	389.205	58	67
389.124	389.205	63	80
389.205	393.828	39	68
389.205	393.828	46	68
389.205	393.828	51	81
389.205	393.828	55	84
389.205	393.828	58	84
389.205	393.828	63	99
