OnsetTime	OffsetTime	MidiPitch	Velocity
0.500004	1.68095	37	32
0.500004	1.68095	44	32
0.500004	1.68095	49	38
0.500004	1.48137	53	39
0.500004	1.48137	56	46
1.38236	1.78622	54	31
1.38236	1.78622	58	37
1.68095	2.31252	37	25
1.68095	2.31252	44	25
1.68095	2.31252	49	30
1.68095	2.30726	53	31
1.68095	2.31252	56	37
2.31252	4.01147	37	27
2.31252	4.01147	44	27
2.31252	4.01147	49	32
2.31252	4.01147	53	46
2.45815	3.44829	56	39
2.60262	3.44829	61	43
2.7457	3.44829	65	40
2.88743	4.01147	68	43
3.02784	4.01147	73	43
3.16694	4.01147	77	44
3.30541	4.01147	80	47
3.44829	4.05269	56	25
3.44829	4.05269	61	30
3.44829	4.05269	65	30
3.44829	4.05269	85	52
4.10763	5.27471	49	26
4.10763	5.27471	56	26
4.10763	5.27471	61	31
4.10763	5.0785	65	38
4.10763	5.0785	68	38
4.98142	5.37998	66	35
4.98142	5.37998	70	35
5.27471	5.9063	49	25
5.27471	5.9063	56	25
5.27471	5.9063	61	30
5.27471	5.9063	65	36
5.27471	6.05193	68	36
5.9063	7.64863	49	27
5.9063	7.64863	56	27
5.9063	7.64863	61	32
5.9063	7.64863	65	38
6.05193	7.03874	68	32
6.19639	7.03874	73	36
6.33947	7.03874	77	34
6.4812	7.64863	80	36
6.62161	7.64863	85	36
6.76071	7.64863	89	37
6.89854	7.64863	92	38
7.03874	10.2171	68	21
7.03874	11.2464	73	21
7.03874	11.2464	77	25
7.03874	11.2464	97	42
7.69808	8.86312	44	34
7.69808	8.86312	48	40
7.69808	8.86312	54	39
7.69808	8.86312	63	46
8.86312	9.48434	44	39
8.86312	10.6416	48	39
8.86312	9.48434	54	39
8.86312	10.5001	63	46
9.31766	9.48434	51	36
9.31766	9.48434	60	42
9.48434	10.6416	44	35
9.48434	11.2464	51	42
9.48434	11.074	54	35
9.48434	10.6416	60	42
9.65101	11.2464	80	46
9.79252	11.2464	78	43
9.93404	11.2464	75	43
10.0756	11.2464	72	49
10.2171	11.2464	68	48
10.3586	11.2464	66	44
10.5001	11.2464	63	44
10.6416	11.2464	44	29
10.6416	11.2464	48	35
10.6416	11.2464	60	46
10.7827	11.2464	56	42
10.9269	11.2464	55	46
11.074	11.2464	54	42
11.2464	12.4114	37	33
11.2464	12.4114	44	33
11.2464	12.4114	49	39
11.2464	12.4114	53	39
11.2464	12.4114	61	46
12.4114	13.0364	37	31
12.4114	13.0364	44	31
12.4114	13.0364	49	37
12.4114	13.0364	53	37
12.4114	13.7638	61	44
13.0364	14.6353	37	29
13.0364	14.3305	44	29
13.0364	14.1883	49	35
13.0364	14.0468	53	35
13.0364	13.9053	56	42
13.1977	14.8276	77	49
13.3392	14.8276	73	46
13.4807	14.8276	68	46
13.6223	14.8276	65	49
13.7638	14.8276	61	43
13.9053	14.8276	56	46
14.0468	14.8276	53	43
14.1883	14.8276	49	42
14.3305	14.8276	44	38
14.4793	14.8276	41	40
14.6353	14.8276	37	39
14.8276	15.9285	34	33
14.8276	15.9285	41	33
14.8276	15.9285	46	39
14.8276	15.9285	50	36
14.8276	15.9285	56	36
14.8276	15.6533	58	43
15.6533	15.9285	59	42
15.9285	17.7333	34	32
15.9285	17.7333	41	32
15.9285	16.5	46	38
15.9285	17.7333	50	33
15.9285	17.7333	56	33
15.9285	16.909	58	39
16.5	17.7333	39	30
16.5	17.7333	46	36
16.5	16.6363	51	33
16.5	16.7727	54	39
16.6363	17.7333	51	39
16.7727	17.5909	54	42
16.909	17.5909	58	42
17.0454	17.5909	63	48
17.1818	17.4545	66	44
17.3181	17.7333	70	49
17.4545	17.7333	66	50
17.5909	18.236	54	26
17.5909	18.236	58	26
17.5909	18.236	63	31
17.5909	18.236	75	63
18.236	19.3077	46	33
18.236	19.3077	53	33
18.236	19.3077	58	39
18.236	19.3077	62	45
18.236	19.3077	68	45
18.236	19.0468	70	54
19.0468	19.3077	71	52
19.3077	21.2553	46	32
19.3077	21.2553	53	32
19.3077	19.8737	58	38
19.3077	21.2553	62	44
19.3077	21.2553	68	44
19.3077	20.2755	70	52
19.8737	21.2553	51	41
19.8737	20.9451	58	49
19.8737	20.0077	63	57
19.8737	20.1416	66	57
20.0077	20.9451	63	49
20.1416	21.2553	66	57
20.2755	21.2553	70	51
20.4094	21.2553	75	55
20.5434	20.8112	78	59
20.6773	21.2553	82	64
20.8112	21.2553	78	69
20.9451	21.5214	54	45
20.9451	21.5214	58	45
20.9451	21.5214	63	53
20.9451	21.3618	87	75
21.3618	21.5214	85	65
21.5214	22.582	32	54
21.5214	22.582	44	64
21.5214	21.659	84	71
21.659	21.7926	92	76
21.7926	21.9241	90	72
21.9241	22.0557	87	72
22.0557	22.1873	84	77
22.1873	22.3189	80	72
22.3189	22.4505	78	72
22.4505	22.582	75	72
22.582	23.1083	56	51
22.582	23.0974	60	51
22.582	22.8452	66	60
22.582	22.7136	72	74
22.7136	22.8452	68	72
22.8452	23.1083	66	72
22.9768	23.1083	63	72
23.1083	24.2197	32	55
23.1083	24.2197	44	65
23.1083	23.246	60	71
23.246	23.3836	56	67
23.3836	23.5212	55	71
23.5212	23.6588	56	67
23.6588	23.7964	58	66
23.7964	23.934	56	59
23.934	24.0769	55	66
24.0769	24.6653	56	59
24.2197	24.8138	44	51
24.2197	24.8138	48	60
24.2197	24.6653	65	65
24.6653	24.8138	54	51
24.6653	24.8138	63	61
24.8138	27.0888	37	51
24.8138	27.0888	44	51
24.8138	27.0888	49	60
24.8138	24.9553	53	55
24.8138	25.2237	61	65
24.9553	27.0888	53	64
25.091	25.8922	56	64
25.2237	25.8922	61	64
25.3564	25.8922	65	64
25.4892	27.0888	68	63
25.6227	27.0888	73	61
25.757	27.0888	77	61
25.8922	26.4849	56	36
25.8922	26.4849	61	36
25.8922	26.4849	65	43
25.8922	27.0888	80	61
26.0281	27.0888	85	63
26.1688	27.0888	89	64
26.3163	27.0888	92	65
26.4849	27.159	56	36
26.4849	27.159	61	36
26.4849	27.159	65	43
26.4849	27.159	97	77
27.784	28.2528	61	61
28.2528	28.409	65	54
28.409	29.7485	39	45
28.409	28.6938	51	54
28.409	29.4038	65	63
28.6938	29.261	51	49
28.978	29.5476	55	41
28.978	29.5476	61	49
29.261	29.7485	51	49
29.261	29.7485	63	57
29.4038	29.7485	65	58
29.5476	29.839	55	41
29.5476	29.839	61	49
29.5476	29.7485	67	59
29.6928	29.839	68	61
29.839	30.1343	51	49
29.839	29.9861	70	63
29.9861	31.8913	72	64
30.1343	31.8913	39	45
30.1343	30.419	51	54
30.1343	31.8913	73	66
30.419	30.9871	51	47
30.7037	31.2761	55	39
30.7037	31.2761	61	47
30.8457	30.9397	75	64
30.8927	31.2761	77	64
30.9397	31.1304	75	64
30.9871	31.5729	51	47
30.9871	31.8913	74	64
31.1304	31.8913	75	66
31.2761	31.8913	55	39
31.2761	31.8913	61	47
31.2761	31.8913	77	70
31.4238	31.8913	79	73
31.5729	31.8913	51	47
31.5729	31.8913	80	76
31.7246	31.8913	82	80
31.8913	33.6844	32	45
31.8913	33.6844	44	54
31.8913	34.6353	84	84
32.2103	32.7912	51	48
32.5007	33.0816	56	40
32.5007	33.0816	60	48
32.7912	33.3903	51	42
32.7912	33.2359	82	64
32.9364	33.3903	80	64
33.0816	34.2748	56	35
33.0816	34.2748	60	42
33.0816	34.6353	79	70
33.2359	34.6353	82	63
33.3903	33.9786	51	42
33.3903	34.6353	80	65
33.5374	34.6353	77	60
33.6844	34.6353	32	45
33.6844	34.6353	44	54
33.6844	34.8673	75	60
33.9786	34.5711	51	37
34.2748	34.6353	56	31
34.2748	34.6353	60	37
34.5711	34.8673	51	37
34.8673	35.1607	56	31
34.8673	35.1607	60	37
34.8673	35.3073	72	51
34.8673	35.3073	75	60
35.1607	35.4685	51	37
35.3073	35.4685	73	48
35.3073	35.4685	77	57
35.4685	37.211	39	45
35.4685	35.756	51	54
35.4685	36.3427	73	51
35.4685	36.3427	77	60
35.756	36.3427	51	37
35.756	36.6257	67	57
36.0493	36.6257	55	31
36.0493	36.6257	61	37
36.3427	36.9087	51	37
36.3427	36.9087	73	49
36.3427	36.9087	77	58
36.6257	37.7919	55	31
36.6257	37.7919	61	37
36.6257	37.4986	67	53
36.9087	37.211	51	37
36.9087	37.211	73	49
36.9087	37.211	77	58
37.211	37.7919	39	45
37.211	37.4986	51	54
37.211	37.7919	73	51
37.211	37.7919	77	60
37.4986	37.7919	51	37
37.4986	37.7919	67	58
37.7919	38.0852	55	31
37.7919	38.0852	61	37
38.0852	38.3785	51	37
38.0852	38.3785	65	51
38.0852	38.3785	73	60
38.3785	38.6719	55	37
38.3785	38.6719	63	51
38.3785	38.6719	72	60
38.6719	38.9742	51	37
38.6719	38.9742	61	48
38.6719	38.9742	70	57
38.9742	40.6998	32	45
38.9742	40.6998	44	54
38.9742	39.561	60	54
39.1254	41.7381	72	60
39.2706	39.8514	51	37
39.561	40.133	56	31
39.561	40.133	60	37
39.8514	40.4137	51	37
39.8514	40.2727	70	59
39.9924	40.4137	68	57
40.133	41.2807	56	31
40.133	41.2807	60	37
40.133	41.7381	67	57
40.2727	41.7381	70	59
40.4137	40.9902	51	37
40.4137	41.7381	68	58
40.556	41.7381	65	54
40.6998	41.7381	32	45
40.6998	41.7381	44	54
40.6998	41.8615	63	53
40.9902	41.5711	51	37
41.2807	41.7381	56	31
41.2807	41.7381	60	37
41.5711	41.8615	51	37
41.8615	42.1638	56	31
41.8615	42.1638	60	37
41.8615	42.315	63	64
42.1638	42.4817	51	37
42.315	42.4817	65	59
42.4817	43.8212	39	45
42.4817	42.7664	51	54
42.4817	43.4765	65	63
42.7664	43.3336	51	49
43.0507	43.6203	55	41
43.0507	43.6203	61	49
43.3336	43.8212	51	49
43.3336	43.8212	63	57
43.4765	43.8212	65	58
43.6203	43.9117	55	41
43.6203	43.9117	61	49
43.6203	43.8212	67	59
43.7655	43.9117	68	61
43.9117	44.207	51	49
43.9117	44.0588	70	63
44.0588	45.964	72	64
44.207	45.964	39	45
44.207	44.4917	51	54
44.207	45.964	73	66
44.4917	45.0598	51	47
44.7764	45.3488	55	39
44.7764	45.3488	61	47
44.9184	45.0124	75	64
44.9654	45.3488	77	64
45.0124	45.2031	75	64
45.0598	45.6456	51	47
45.0598	45.964	74	64
45.2031	45.964	75	66
45.3488	45.964	55	39
45.3488	45.964	61	47
45.3488	45.964	77	70
45.4965	45.964	79	73
45.6456	45.964	51	47
45.6456	45.964	80	76
45.7973	45.964	82	80
45.964	47.7718	32	45
45.964	47.7718	44	54
45.964	48.7373	84	84
46.283	46.8639	51	48
46.5734	47.1543	56	40
46.5734	47.1543	60	48
46.8639	47.463	51	42
46.8639	47.3086	82	64
47.0091	47.463	80	64
47.1543	48.3768	56	35
47.1543	48.3768	60	42
47.1543	48.7373	79	70
47.3086	48.7373	82	63
47.463	48.0806	51	42
47.463	48.7373	80	65
47.6174	48.7373	77	60
47.7718	48.7373	32	45
47.7718	48.7373	44	54
47.7718	48.9694	75	60
48.0806	48.6731	51	37
48.3768	48.7373	56	31
48.3768	48.7373	60	37
48.6731	48.9694	51	37
48.9694	49.2627	56	31
48.9694	49.2627	60	37
48.9694	49.4093	72	51
48.9694	49.4093	75	60
49.2627	49.5705	51	37
49.4093	49.5705	73	48
49.4093	49.5705	77	57
49.5705	51.3131	39	45
49.5705	49.858	51	54
49.5705	50.4447	73	51
49.5705	50.4447	77	60
49.858	50.4447	51	37
49.858	50.7277	67	57
50.1514	50.7277	55	31
50.1514	50.7277	61	37
50.4447	51.0107	51	37
50.4447	51.0107	73	49
50.4447	51.0107	77	58
50.7277	51.8939	55	31
50.7277	51.8939	61	37
50.7277	51.6006	67	53
51.0107	51.3131	51	37
51.0107	51.3131	73	49
51.0107	51.3131	77	58
51.3131	51.8939	39	45
51.3131	51.6006	51	54
51.3131	51.8939	73	51
51.3131	51.8939	77	60
51.6006	51.8939	51	37
51.6006	51.8939	67	58
51.8939	52.1873	55	31
51.8939	52.1873	61	37
52.1873	52.4806	51	37
52.1873	52.3339	65	51
52.1873	52.3339	73	60
52.4806	52.7739	55	37
52.4806	52.6272	63	51
52.4806	52.6272	72	60
52.7739	53.0762	51	37
52.7739	52.925	61	48
52.7739	52.925	70	57
53.0762	53.2309	44	31
53.0762	53.2309	56	37
53.0762	53.6796	60	48
53.0762	53.8267	68	57
53.3855	53.6796	51	37
53.6796	53.9737	56	31
53.6796	53.9737	60	37
53.8267	53.9737	63	57
53.9737	54.2678	51	37
53.9737	54.1208	68	52
54.1208	54.2678	72	51
54.2678	54.5619	56	31
54.2678	54.5619	60	37
54.2678	54.4149	75	49
54.4149	54.5619	80	47
54.5619	54.8561	51	37
54.5619	54.709	84	44
54.709	54.8561	87	42
54.8511	54.9982	92	44
54.8561	55.4443	56	31
54.8561	55.4443	60	37
55.0056	55.1159	80	37
55.1477	55.2948	80	37
55.3021	55.4124	92	37
55.4467	55.5938	92	44
55.5913	55.7016	80	37
55.7384	55.8854	80	37
55.8928	56.0031	92	37
56.0374	56.1845	92	43
56.1845	56.2947	80	37
56.3242	56.4712	80	37
56.4737	57.5342	61	46
56.481	56.5913	92	37
56.5472	57.5342	65	39
56.6207	57.5342	68	52
56.6255	56.7697	92	44
56.7673	56.8755	80	37
56.9068	57.051	80	37
57.0486	57.1568	92	37
57.1928	57.3371	92	44
57.3419	57.45	80	37
57.4813	57.6255	80	37
57.4861	57.8261	70	52
57.6255	57.7337	92	37
57.7745	58.2385	61	35
57.7745	58.2385	65	35
57.7745	58.2385	68	42
57.7823	57.9369	92	40
57.9292	58.0452	80	35
58.0787	58.2333	80	35
58.2333	58.3606	92	35
58.2385	59.9955	56	38
58.3237	59.9955	61	32
58.4032	58.5484	92	34
58.4089	59.9955	65	46
58.5532	58.6613	80	28
58.6998	58.844	80	28
58.844	58.9522	92	28
58.9883	59.1325	92	32
59.1325	59.2407	80	27
59.2695	59.4138	80	27
59.421	59.5291	92	27
59.5628	59.707	92	34
59.707	59.8152	80	28
59.8465	59.9907	80	27
59.9955	61.072	61	46
59.9982	60.1205	92	27
60.077	61.072	65	39
60.1585	61.072	68	52
60.1633	60.3076	92	48
60.3076	60.4158	80	37
60.4494	60.5936	80	37
60.5888	60.697	92	37
60.7427	60.8869	92	44
60.8845	60.9927	80	37
61.0239	61.3124	70	53
61.0311	61.1753	80	37
61.1753	61.2835	92	37
61.3124	61.7715	61	36
61.3124	61.7715	65	36
61.3124	61.7715	68	43
61.3149	61.468	92	39
61.4603	61.5751	80	35
61.6185	61.7715	80	35
61.769	61.8938	92	35
61.7715	67.1037	56	40
61.8549	67.1037	61	34
61.9382	67.0223	65	47
61.9454	62.0897	92	32
62.08	62.1882	80	26
62.2315	62.3757	80	26
62.3781	62.4863	92	27
62.5224	62.6666	92	35
62.6666	62.7748	80	28
62.806	62.9502	80	28
62.9478	63.056	92	28
63.0897	63.2339	92	36
63.2339	63.3421	80	28
63.3877	63.536	80	28
63.4527	64.5785	66	51
63.5231	63.6391	92	28
63.5282	64.6599	68	51
63.6056	64.7483	72	43
63.6766	63.817	82	37
63.6813	64.8367	75	63
63.7529	63.8914	80	31
63.817	63.9569	82	37
63.8914	64.0231	80	30
63.9569	64.0893	82	37
64.0231	64.165	80	32
64.0893	64.2296	82	38
64.165	64.2963	80	32
64.2296	64.3584	82	39
64.2963	64.4389	80	34
64.3584	64.5096	82	39
64.4389	64.5811	80	34
64.5096	64.6571	82	40
64.5785	65.3023	66	49
64.5811	64.7424	80	35
64.6571	64.8308	82	42
64.6599	65.3889	68	49
64.7424	64.9137	80	35
64.7483	65.4754	72	41
64.8308	64.9858	82	42
64.8367	67.1037	75	61
64.9137	65.0631	80	34
64.9858	65.1532	82	40
65.0631	65.2227	80	34
65.1532	65.2969	82	39
65.2227	67.1037	63	39
65.2227	65.3831	80	34
65.2969	65.4696	82	38
65.3023	67.1037	66	47
65.3831	65.5449	80	31
65.3889	67.1037	68	39
65.4696	65.6156	82	37
65.4754	67.1037	72	58
65.5449	65.6845	80	32
65.6156	65.751	82	35
65.6845	65.8205	80	30
65.751	65.8811	82	35
65.8205	65.9536	80	31
65.8811	66.019	82	35
65.9536	66.0856	80	35
66.019	66.1503	82	35
66.0856	66.2257	80	30
66.1503	66.2975	82	38
66.2257	66.3657	80	35
66.2975	66.4314	82	39
66.3657	66.4978	80	35
66.4314	66.5798	82	40
66.4978	66.6523	80	36
66.5798	66.7298	82	43
66.6523	66.8048	80	38
66.7298	66.8748	82	43
66.8048	66.9423	80	38
66.8748	67.0223	82	43
66.9423	67.1037	80	37
67.0223	68.1729	65	52
67.0223	67.1386	82	42
67.1066	67.2652	80	36
67.1095	68.2602	68	44
67.1995	68.3475	73	66
67.2063	67.3399	82	43
67.2652	67.4112	80	38
67.3399	67.4789	82	43
67.4112	67.5473	80	37
67.4789	67.6108	82	43
67.5473	67.6777	80	37
67.6108	67.7431	82	42
67.6777	67.8134	80	36
67.7431	67.892	82	43
67.8134	67.9498	80	38
67.892	68.0285	82	44
67.9498	68.096	80	37
68.0285	68.1787	82	42
68.096	68.2544	80	37
68.1729	68.9084	65	50
68.1787	68.3417	82	42
68.2544	68.4359	80	36
68.2602	68.9872	68	42
68.3417	68.5051	82	42
68.3475	70.3467	73	64
68.4359	68.5848	80	39
68.5051	68.6699	82	42
68.5848	68.7524	80	36
68.6699	68.835	82	42
68.7524	68.9138	80	37
68.8269	70.4821	61	46
68.835	68.9872	82	39
68.9084	70.4821	65	46
68.9138	69.0543	80	37
68.9872	70.4821	68	45
68.9872	69.1291	82	37
69.0543	69.1938	80	31
69.1291	69.2607	82	34
69.1938	69.3338	80	30
69.2607	69.4011	82	34
69.3338	69.4591	80	34
69.4011	69.5323	82	34
69.4591	69.597	80	30
69.5323	69.6678	82	34
69.597	69.732	80	34
69.6678	69.7987	82	34
69.732	69.8638	80	30
69.7987	69.9253	82	34
69.8638	69.995	80	30
69.9253	70.0642	82	34
69.995	70.1369	80	30
70.0642	70.2062	82	35
70.1369	70.2846	80	30
70.2062	70.3467	82	35
70.2846	70.3762	80	29
70.3512	70.4416	82	35
70.4146	70.5046	80	29
70.4799	70.5703	82	35
70.4821	71.5324	61	46
70.5497	71.5324	65	39
70.5497	70.643	80	30
70.6189	71.5324	68	52
70.6237	70.768	92	44
70.7656	70.8737	80	37
70.905	71.0492	80	37
71.0468	71.155	92	37
71.191	71.3353	92	44
71.3401	71.4482	80	37
71.4795	71.6237	80	37
71.4843	71.8243	70	52
71.6237	71.7319	92	37
71.7728	72.2367	61	35
71.7728	72.2367	65	35
71.7728	72.2367	68	42
71.7805	71.9351	92	40
71.9274	72.0434	80	35
72.0769	72.2315	80	35
72.2315	72.3588	92	35
72.2367	73.9937	56	38
72.3219	73.9937	61	32
72.4015	72.5466	92	34
72.4072	73.9937	65	46
72.5514	72.6595	80	28
72.698	72.8422	80	28
72.8422	72.9504	92	28
72.9865	73.1307	92	32
73.1307	73.2389	80	27
73.2677	73.412	80	27
73.4192	73.5274	92	27
73.561	73.7052	92	34
73.7052	73.8134	80	28
73.8447	73.9889	80	27
73.9937	75.0702	61	46
73.9964	74.1187	92	27
74.0752	75.0702	65	39
74.1568	75.0702	68	52
74.1616	74.3058	92	48
74.3058	74.414	80	37
74.4476	74.5918	80	37
74.587	74.6952	92	37
74.7409	74.8851	92	44
74.8827	74.9909	80	37
75.0221	75.3106	70	53
75.0293	75.1736	80	37
75.1736	75.2817	92	37
75.3106	75.7698	61	36
75.3106	75.7698	65	36
75.3106	75.7698	68	43
75.3131	75.4662	92	39
75.4585	75.5733	80	35
75.6167	75.7698	80	35
75.7672	75.892	92	35
75.7698	77.4509	56	40
75.8531	77.4509	61	34
75.9364	77.4509	65	47
75.9436	76.0879	92	32
76.0783	76.1864	80	26
76.2297	76.3739	80	26
76.3763	76.4845	92	27
76.5206	76.6648	92	35
76.6648	76.773	80	28
76.8042	76.9485	80	28
76.9461	77.0542	92	28
77.0879	77.2321	92	36
77.2321	77.3403	80	28
77.386	77.5342	80	28
77.4509	78.6054	56	50
77.5213	77.6373	92	28
77.5265	78.6054	60	50
77.6038	78.6054	63	42
77.677	78.6054	66	58
77.6792	77.7667	82	37
77.7427	77.8316	80	30
77.8045	77.8916	82	38
77.8789	77.9653	80	32
77.941	78.0292	82	39
78.0007	78.0884	80	35
78.0775	78.1645	82	40
78.1322	78.2182	80	37
78.2075	78.2934	82	42
78.2696	78.3576	80	38
78.3289	78.4165	82	44
78.3969	78.4875	80	38
78.46	78.5521	82	46
78.5403	78.64	80	39
78.6054	79.2105	56	54
78.6107	78.7171	82	47
78.6798	78.7848	80	40
78.6852	79.2105	61	54
78.765	79.2105	65	51
78.7724	78.8714	82	47
78.8442	78.9432	80	40
78.916	79.015	82	49
78.9853	79.0843	80	49
79.0595	79.1585	82	50
79.1412	79.2421	80	44
79.2105	80.2122	56	57
79.2105	79.3141	82	53
79.2842	79.3752	80	47
79.2895	80.2122	60	48
79.358	80.2122	63	65
79.3601	79.447	82	55
79.4274	79.5126	80	47
79.4876	79.5721	82	49
79.5483	79.6346	80	44
79.6176	79.7007	82	49
79.6823	79.7655	80	49
79.7445	79.8283	82	49
79.8072	79.8943	80	44
79.868	79.9557	82	49
79.9294	80.0201	80	42
80.0018	80.0935	82	47
80.0774	80.1723	80	39
80.1367	80.2309	82	44
80.2122	80.8135	53	53
80.2145	80.3114	80	39
80.2819	80.8135	59	53
80.2845	80.3921	82	42
80.3625	80.8135	62	45
80.3625	80.468	80	38
80.4378	80.5357	82	42
80.4431	80.8135	65	61
80.5237	80.6206	80	39
80.5959	80.697	82	42
80.6664	80.7672	80	39
80.7401	80.8375	82	42
80.8135	82.7199	56	51
80.8135	80.9112	80	39
80.8865	82.7199	60	60
80.8865	80.9855	82	42
80.9607	82.7199	63	51
80.9682	81.0336	80	38
81.0336	82.7199	66	69
81.0336	81.1778	80	52
81.1778	81.322	82	54
81.322	81.4649	84	57
81.4649	81.6077	85	59
81.6077	81.7501	87	63
81.7501	81.8912	89	65
81.8912	82.031	90	67
82.031	82.1694	92	70
82.1694	82.3071	94	71
82.3071	82.4447	92	71
82.4447	82.5823	90	70
82.5823	82.7199	89	69
82.7199	82.8575	87	69
82.8575	82.9951	85	67
82.9951	83.1327	84	66
83.1327	83.2703	82	66
83.2703	83.4067	80	66
83.4067	83.5431	78	66
83.5431	83.6794	77	65
83.6794	83.815	75	64
83.815	83.9501	73	63
83.9501	84.0852	72	63
84.0852	84.2196	70	61
84.2196	84.3535	68	60
84.3535	84.4874	66	60
84.4874	84.6209	65	58
84.6209	84.7537	63	60
84.7537	84.8864	61	63
84.8864	85.0188	60	59
85.0188	85.1503	58	60
85.1503	85.2819	56	63
85.2819	85.4131	54	64
85.4131	85.5183	53	66
85.5183	85.6268	51	67
85.6268	85.739	49	69
85.739	85.8551	48	70
85.8551	85.9752	46	72
85.9752	87.2123	32	84
85.9752	87.2123	44	84
87.8308	88.7714	68	46
88.7219	89.0733	70	43
89.019	91.4019	68	43
89.6711	91.4019	44	26
89.6711	91.4019	51	26
89.6711	91.4019	54	31
89.6711	91.4019	60	28
91.4019	92.3333	68	46
92.2842	92.6299	70	43
92.5784	94.9277	68	43
93.1969	94.9277	44	27
93.1969	94.9277	53	32
93.1969	94.9277	61	28
94.9277	95.859	68	46
95.81	96.1552	70	40
96.1041	98.7525	68	40
96.7164	97.993	44	25
96.7164	97.993	47	25
96.7164	97.993	53	30
96.7164	97.993	62	35
97.993	98.7525	44	25
97.993	98.7525	48	25
97.993	98.7525	54	30
97.993	98.7525	63	38
98.7525	102.121	44	24
98.7525	102.121	51	24
98.7525	102.121	56	29
98.7525	102.121	60	34
98.7525	102.121	66	34
98.7525	102.121	68	40
102.773	103.949	49	27
102.773	103.949	56	27
102.773	103.949	61	32
102.773	103.704	65	34
102.773	103.704	68	40
103.655	104.003	66	38
103.655	104.003	70	38
103.949	104.588	49	23
103.949	104.588	56	23
103.949	104.582	61	28
103.949	104.588	65	30
103.949	104.637	68	36
104.588	106.303	49	23
104.588	106.303	56	28
104.588	106.303	61	31
104.588	106.303	65	37
106.352	107.529	49	27
106.352	107.529	56	27
106.352	107.529	61	32
106.352	107.284	65	34
106.352	107.284	68	40
107.235	107.581	66	32
107.235	107.581	70	38
107.529	108.16	49	24
107.529	108.16	56	24
107.529	108.155	61	29
107.529	108.16	65	30
107.529	108.213	68	36
108.16	109.919	49	24
108.16	109.919	56	29
108.16	109.919	61	30
108.16	109.919	65	36
109.968	111.145	56	36
109.968	111.145	60	43
109.968	111.145	66	45
109.968	111.145	75	53
111.145	111.766	56	35
111.145	111.549	60	42
111.145	111.766	66	35
111.145	111.549	75	51
111.599	111.766	63	35
111.599	111.766	72	42
111.766	113.482	56	29
111.766	113.482	63	35
111.766	113.482	66	35
111.766	113.482	72	42
113.531	114.707	49	31
113.531	114.707	61	37
113.531	114.707	65	40
113.531	114.707	73	48
114.707	115.325	49	29
114.707	115.325	61	35
114.707	115.325	65	35
114.707	115.111	73	42
115.162	115.325	68	38
115.325	117.041	49	27
115.325	117.041	61	32
115.325	117.041	65	32
115.325	117.041	68	38
117.09	118.266	54	35
117.09	118.266	61	42
117.09	118.266	66	40
117.09	118.266	70	48
118.266	118.885	54	36
118.266	118.885	61	43
118.266	118.885	66	44
118.266	118.885	70	52
118.885	120.047	54	40
118.885	120.047	61	48
118.885	119.814	70	45
118.885	119.814	73	54
119.767	120.098	68	41
119.767	120.098	72	49
120.047	120.66	54	37
120.047	120.66	61	44
120.047	120.66	66	45
120.047	120.66	70	54
120.66	121.822	49	33
120.66	121.822	61	39
120.66	121.589	65	45
120.66	121.589	68	53
121.542	121.874	66	36
121.542	121.874	70	43
121.822	122.441	49	32
121.822	122.436	61	38
121.822	122.441	65	39
121.822	122.49	68	46
122.441	124.157	49	30
122.441	124.157	56	36
122.441	124.157	61	36
122.441	124.157	65	43
124.206	125.382	54	35
124.206	125.382	61	42
124.206	125.382	66	40
124.206	125.382	70	48
125.382	126.001	54	36
125.382	126.001	61	43
125.382	126.001	66	44
125.382	126.001	70	52
126.001	127.163	54	40
126.001	127.163	61	48
126.001	126.93	70	45
126.001	126.93	73	54
126.883	127.214	68	41
126.883	127.214	72	49
127.163	127.776	54	37
127.163	127.776	61	44
127.163	127.776	66	45
127.163	127.776	70	54
127.776	128.921	49	34
127.776	128.921	61	40
127.776	128.688	65	45
127.776	128.688	68	53
128.641	128.973	66	36
128.641	128.973	70	43
128.921	129.54	49	33
128.921	129.535	61	39
128.921	129.54	65	39
128.921	129.589	68	46
129.54	131.256	49	30
129.54	131.256	56	36
129.54	131.256	61	36
129.54	131.256	65	43
131.305	132.481	56	36
131.305	132.481	60	43
131.305	132.481	66	45
131.305	132.481	75	54
132.481	133.113	56	37
132.481	133.113	60	44
132.481	133.113	66	45
132.481	133.113	75	54
133.113	134.289	56	43
133.113	134.289	60	51
133.113	134.289	66	51
133.113	134.044	78	60
133.995	134.342	75	55
134.289	134.921	56	42
134.289	134.921	63	50
134.289	134.921	66	46
134.289	134.921	72	55
134.921	138.02	49	30
134.921	138.02	56	36
134.921	138.02	61	36
134.921	138.02	65	44
134.921	136.892	73	52
136.843	138.02	68	32
136.843	138.02	77	38
138.608	139.784	49	29
138.608	139.784	56	29
138.608	139.784	61	35
138.608	139.784	65	36
138.608	139.539	73	43
139.49	139.835	68	40
139.784	140.397	49	26
139.784	140.397	56	31
139.784	140.397	61	34
139.784	140.397	65	40
140.397	141.573	44	30
140.397	141.573	56	36
140.397	141.573	60	37
140.397	141.279	65	37
140.397	141.328	68	44
141.279	141.573	63	33
141.279	141.627	66	39
141.573	142.243	44	26
141.573	142.243	54	31
141.573	142.243	60	31
141.573	142.243	63	37
142.274	143.451	49	17
142.274	143.451	56	17
142.274	143.451	61	21
142.274	143.451	65	26
142.274	143.451	68	26
142.274	143.205	77	31
143.156	143.5	73	28
143.451	144.064	49	16
143.451	144.064	56	16
143.451	144.064	61	19
143.451	143.745	65	23
143.451	143.798	68	28
143.745	144.064	65	28
144.064	145.229	44	19
144.064	145.229	51	19
144.064	145.229	56	23
144.064	145.229	60	25
144.064	145.229	66	30
144.064	144.986	70	30
144.938	145.277	68	29
145.229	145.829	44	17
145.229	145.829	54	21
145.229	145.829	60	24
145.229	145.572	63	29
145.52	145.829	65	29
145.829	146.448	49	21
145.829	146.448	53	21
145.829	148.922	61	27
146.448	147.067	37	12
146.448	147.067	44	12
146.448	147.067	49	15
146.448	147.067	53	14
147.067	147.685	37	12
147.067	147.685	44	12
147.067	147.685	49	15
147.067	147.685	53	14
147.685	148.922	37	12
147.685	148.922	44	12
147.685	148.922	49	15
147.685	148.922	53	14
149.541	151.334	37	22
149.541	151.334	49	27
149.541	150.717	56	39
149.835	150.423	61	19
149.835	150.423	65	19
149.835	150.423	68	23
150.423	151.385	58	36
150.423	151.011	61	16
150.423	151.011	65	16
150.423	151.011	68	19
150.717	151.385	56	37
151.011	151.385	61	19
151.011	151.385	65	19
151.011	151.385	68	23
151.334	152.916	37	22
151.334	152.916	49	27
151.334	154.91	53	34
151.628	152.216	61	16
151.628	152.216	65	16
151.628	152.216	68	19
152.216	152.805	61	16
152.216	152.805	65	16
152.216	152.805	68	19
152.805	153.418	61	16
152.805	153.418	65	16
152.805	153.418	68	19
153.124	154.91	37	22
153.124	154.91	49	27
153.124	154.3	56	38
153.418	154.006	61	19
153.418	154.006	65	19
153.418	154.006	68	23
154.006	155.136	58	36
154.006	154.594	61	16
154.006	154.594	65	16
154.006	154.594	68	19
154.3	155.136	56	39
154.594	155.136	61	19
154.594	155.136	65	19
154.594	155.136	68	23
154.91	155.204	37	22
154.91	155.204	49	27
154.91	158.541	53	37
155.204	155.792	61	16
155.204	155.792	65	16
155.204	155.792	68	19
155.792	156.381	61	16
155.792	156.381	65	16
155.792	156.381	68	19
156.381	158.541	61	16
156.381	158.541	65	16
156.381	156.987	68	19
156.693	158.48	32	25
156.693	158.48	44	30
156.693	157.87	63	46
156.987	157.576	66	21
156.987	157.576	68	25
157.576	158.164	66	17
157.576	158.164	68	21
157.87	158.541	63	43
158.164	158.541	66	19
158.164	158.541	68	23
158.322	158.48	60	38
158.48	160.09	32	26
158.48	160.09	44	31
158.48	162.079	60	38
158.774	159.362	66	22
158.774	159.362	68	26
159.362	159.95	66	20
159.362	159.95	68	24
159.95	162.079	66	22
159.95	160.56	68	27
160.266	162.052	37	27
160.266	162.052	49	32
160.266	161.442	61	52
160.56	161.148	65	23
160.56	161.148	68	28
161.148	161.736	65	20
161.148	161.736	68	24
161.442	162.079	61	50
161.736	162.079	65	23
161.736	162.079	68	28
161.894	162.052	56	42
162.052	163.661	37	26
162.052	163.661	49	31
162.052	165.694	56	42
162.346	162.935	65	22
162.346	162.935	68	27
162.935	163.523	65	23
162.935	163.523	68	28
163.523	165.694	65	23
163.523	165.694	68	28
163.835	165.625	30	31
163.835	165.625	42	37
163.835	165.012	58	60
164.129	164.718	61	24
164.129	164.718	66	24
164.129	164.718	70	29
164.718	165.306	61	24
164.718	165.306	66	24
164.718	165.306	70	29
165.012	165.694	58	58
165.306	165.625	61	24
165.306	165.694	66	24
165.306	165.694	70	29
165.625	167.411	30	35
165.625	167.411	42	42
165.625	167.411	61	63
165.919	166.507	66	30
165.919	166.507	70	36
166.507	167.411	60	53
166.507	167.096	66	30
166.507	167.096	70	36
166.802	167.411	58	58
167.096	167.411	66	30
167.096	167.411	70	36
167.411	169.195	37	29
167.411	169.195	49	35
167.411	168.588	56	61
167.706	168.294	61	24
167.706	168.294	65	24
167.706	168.294	68	29
168.294	169.212	58	55
168.294	168.882	61	24
168.294	168.882	65	24
168.294	168.882	68	29
168.588	169.212	56	59
168.882	169.212	61	24
168.882	169.212	65	24
168.882	169.212	68	29
169.195	170.72	37	28
169.195	170.72	49	34
169.195	172.905	53	53
169.489	170.077	61	24
169.489	170.077	65	24
169.489	170.077	68	29
170.077	170.665	61	24
170.077	170.665	65	24
170.077	170.665	68	29
170.665	171.272	61	24
170.665	172.905	65	24
170.665	172.905	68	29
170.978	172.767	30	31
170.978	172.767	42	37
170.978	172.154	58	60
171.272	171.86	61	24
171.272	171.86	66	24
171.272	171.86	70	29
171.86	172.448	61	24
171.86	172.448	66	24
171.86	172.448	70	29
172.154	172.905	58	58
172.448	172.767	61	24
172.448	172.905	66	24
172.448	172.905	70	29
172.767	174.571	30	36
172.767	174.571	42	43
172.767	174.571	61	63
173.062	173.65	66	32
173.062	173.65	70	38
173.65	174.571	60	53
173.65	174.238	66	32
173.65	174.238	70	38
173.944	174.571	58	58
174.238	174.571	66	32
174.238	174.571	70	38
174.554	176.337	37	29
174.554	176.337	49	35
174.554	175.73	56	61
174.848	175.436	61	24
174.848	175.436	65	24
174.848	175.436	68	29
175.436	176.371	58	55
175.436	176.024	61	24
175.436	176.024	65	24
175.436	176.024	68	29
175.73	176.371	56	59
176.024	176.371	61	24
176.024	176.371	65	24
176.024	176.371	68	29
176.337	177.862	37	28
176.337	177.862	49	34
176.337	178.12	53	53
176.631	177.219	61	24
176.631	177.219	65	24
176.631	177.219	68	29
177.219	177.807	61	24
177.219	177.807	65	24
177.219	177.807	68	29
177.807	178.12	61	24
177.807	178.12	65	24
177.807	178.12	68	29
178.12	179.906	32	32
178.12	179.906	44	38
178.12	179.296	63	66
178.414	179.002	66	28
178.414	179.002	68	28
178.414	179.002	72	34
179.002	179.591	66	28
179.002	179.591	68	28
179.002	179.591	72	34
179.296	179.938	63	64
179.591	179.906	66	28
179.591	179.938	68	28
179.591	179.938	72	34
179.906	181.693	32	33
179.906	181.693	44	39
179.906	181.377	66	71
180.2	180.789	68	29
180.2	180.789	72	35
180.789	181.693	63	65
180.789	181.377	68	29
180.789	181.377	72	35
181.083	181.693	60	64
181.377	181.693	66	29
181.377	181.693	68	29
181.377	181.693	72	35
181.693	183.497	37	36
181.693	183.497	49	43
181.693	183.602	61	71
181.99	182.584	65	29
181.99	182.584	68	29
181.99	182.584	73	35
182.584	183.178	65	29
182.584	183.178	68	29
182.584	183.178	73	35
183.178	183.497	65	29
183.178	183.602	68	29
183.178	183.602	73	35
183.497	185.052	37	32
183.497	185.052	49	38
183.497	185.052	65	61
183.797	184.397	68	24
183.797	184.397	73	24
183.797	184.397	77	29
184.397	184.997	68	24
184.397	184.997	73	24
184.397	184.997	77	29
184.997	185.607	68	24
184.997	187.12	73	24
184.997	187.12	77	29
185.313	187.12	37	36
185.313	187.12	49	43
185.313	186.195	61	71
185.607	186.195	65	29
185.607	186.195	68	35
186.195	187.103	56	65
186.195	186.783	61	29
186.195	186.783	65	29
186.195	186.783	68	35
186.489	187.12	53	60
186.783	187.12	61	29
186.783	187.12	65	29
186.783	187.12	68	35
187.103	188.922	32	32
187.103	188.922	44	38
187.103	188.603	56	66
187.403	188.003	60	24
187.403	188.922	65	24
187.403	188.003	68	29
188.003	188.922	54	58
188.003	188.603	60	24
188.003	188.922	63	24
188.003	188.922	68	29
188.303	188.922	51	54
188.603	188.922	56	29
188.603	188.922	60	24
188.603	188.922	66	29
188.922	190.837	37	32
188.922	192.113	49	53
189.241	189.879	56	28
189.241	189.879	61	23
189.241	189.879	65	28
189.879	190.517	56	28
189.879	190.517	61	23
189.879	190.517	65	28
190.517	191.475	56	28
190.517	191.475	61	23
190.517	191.475	65	28
190.837	192.113	37	34
192.113	192.692	65	64
192.62	193.556	61	37
192.692	194.484	34	33
192.692	194.442	46	39
192.692	193.844	65	75
192.98	194.143	53	32
193.268	193.844	58	32
193.556	194.442	61	32
193.556	194.484	66	64
193.844	194.442	58	32
193.844	194.484	65	64
194.143	194.484	53	32
194.442	195.058	46	31
194.442	195.058	58	37
194.442	195.058	61	75
194.442	195.058	73	75
194.718	195.058	65	53
194.994	195.588	48	29
194.994	195.588	57	35
194.994	195.588	63	72
194.994	195.588	72	72
195.269	195.588	65	53
195.545	196.041	49	31
195.545	196.041	58	37
195.545	196.041	61	72
195.545	196.117	70	72
195.831	197.779	65	54
196.046	196.96	63	57
196.117	197.779	41	34
196.117	196.398	53	40
196.117	199.139	70	74
196.398	197.506	53	32
196.679	197.233	57	32
196.96	197.711	63	32
196.96	197.233	69	60
197.233	198.347	57	32
197.233	199.139	69	64
197.506	198.063	53	32
197.506	199.139	72	57
197.711	198.645	63	31
197.779	199.139	29	33
197.779	199.139	41	39
197.779	198.943	65	70
198.063	199.139	53	32
198.347	198.943	57	32
198.645	199.139	63	32
198.943	199.227	57	32
198.943	199.51	65	64
199.227	199.794	53	32
199.439	200.361	61	32
199.51	201.22	34	33
199.51	201.22	46	39
199.51	200.645	65	75
199.794	200.937	53	32
200.078	200.645	58	32
200.361	201.22	61	32
200.361	201.22	66	64
200.645	201.22	58	32
200.645	201.23	65	64
200.937	201.23	53	32
201.23	201.781	46	31
201.23	201.781	58	37
201.23	201.781	61	75
201.23	201.781	73	75
201.505	201.781	65	52
201.781	202.375	48	29
201.781	202.375	57	35
201.781	202.375	63	72
201.781	202.375	72	72
202.056	202.375	65	52
202.332	202.711	49	37
202.332	202.711	58	37
202.332	202.711	61	72
202.332	202.905	70	72
202.618	204.566	65	53
202.833	203.747	63	60
202.905	204.566	41	34
202.905	203.185	53	40
202.905	206.297	70	74
203.185	204.293	53	32
203.466	204.02	57	32
203.747	204.498	63	32
203.747	204.02	69	60
204.02	205.134	57	32
204.02	206.297	69	64
204.293	204.566	53	32
204.293	206.297	72	57
204.498	205.432	63	39
204.566	206.297	41	33
204.566	204.85	53	39
204.566	205.73	65	70
204.85	206.014	53	32
205.134	205.73	57	32
205.432	206.297	63	32
205.73	206.297	57	32
205.73	206.297	65	73
206.014	206.297	53	32
206.227	206.297	61	35
206.297	208.042	34	44
206.297	208.042	46	52
206.297	207.432	65	80
206.581	207.724	53	38
206.865	207.432	58	38
207.148	208.042	61	38
207.148	208.042	66	67
207.432	208.042	58	38
207.432	208.017	65	67
207.724	208.042	53	38
208.017	208.568	37	39
208.017	208.568	49	46
208.017	208.568	65	56
208.017	208.568	77	82
208.292	208.568	70	57
208.292	208.568	73	57
208.568	209.119	36	29
208.568	209.119	48	35
208.568	209.119	63	49
208.568	209.119	75	80
208.843	209.119	69	57
208.843	209.119	72	57
209.119	209.692	34	31
209.119	209.692	46	37
209.119	209.692	61	48
209.119	209.692	73	77
209.405	209.599	65	57
209.405	209.599	70	57
209.548	211.411	63	59
209.62	211.475	66	50
209.692	211.475	39	44
209.692	209.975	51	52
209.692	210.826	72	75
209.975	211.119	51	36
210.259	210.826	54	36
210.543	211.475	60	37
210.543	211.475	73	69
210.826	211.475	54	37
210.826	211.475	72	69
211.119	211.475	51	37
211.411	211.962	36	39
211.411	211.962	48	47
211.411	211.962	63	51
211.411	211.962	75	84
211.686	211.962	66	60
211.686	211.962	72	60
211.962	212.589	37	34
211.962	212.589	49	40
211.962	212.589	61	50
211.962	212.589	73	82
212.237	212.589	65	58
212.237	212.589	70	58
212.513	214.566	39	34
212.513	214.566	51	40
212.513	214.566	60	46
212.513	214.566	72	78
212.799	213.038	63	52
212.799	213.038	66	55
212.881	213.038	58	41
212.962	213.043	61	47
213.043	214.566	65	47
213.124	214.566	41	44
213.124	213.403	53	52
213.124	214.237	70	82
213.403	214.539	53	36
213.681	214.237	58	36
213.959	214.566	61	36
214.237	214.566	58	36
214.237	214.84	70	82
214.539	214.84	53	36
214.689	214.765	58	46
214.765	214.84	64	46
214.84	216.559	42	44
214.84	215.126	54	52
214.84	215.842	70	82
215.126	216.272	54	36
215.413	216.559	60	36
215.699	216.559	64	36
215.699	216.559	72	78
215.842	216.272	70	78
215.986	216.559	58	36
215.986	216.559	69	78
216.272	216.559	54	36
216.272	216.559	70	75
216.559	218.277	41	44
216.559	216.845	53	52
216.559	220.097	72	86
216.845	217.991	53	38
217.131	217.704	57	38
217.131	217.704	65	74
217.418	218.859	60	38
217.704	219.465	57	38
217.704	218.277	65	74
217.991	218.565	53	38
218.277	218.859	41	46
218.277	218.859	65	74
218.565	219.159	53	34
218.859	219.465	41	46
218.859	219.465	60	51
218.859	220.097	63	51
218.859	219.465	65	60
219.159	219.778	53	34
219.465	220.097	41	46
219.465	220.097	57	50
219.465	220.097	60	50
219.465	220.097	65	59
219.778	220.097	53	34
220.017	220.097	61	30
220.097	221.858	34	33
220.097	221.817	46	39
220.097	221.232	65	75
220.381	221.524	53	32
220.665	221.232	58	32
220.948	221.817	61	32
220.948	221.858	66	64
221.232	221.817	58	32
221.232	221.858	65	64
221.524	221.858	53	32
221.817	222.358	46	31
221.817	222.358	58	37
221.817	222.358	61	75
221.817	222.368	73	75
222.092	222.368	65	57
222.368	222.886	48	29
222.368	222.886	57	35
222.368	222.886	63	72
222.368	222.919	72	72
222.643	222.919	65	57
222.919	223.491	49	31
222.919	223.491	58	37
222.919	223.491	61	72
222.919	223.491	70	72
223.205	223.491	65	57
223.42	223.491	63	57
223.491	225.153	41	34
223.491	223.772	53	40
223.491	226.884	70	74
223.772	224.88	53	32
224.053	224.607	57	32
224.334	226.019	63	32
224.334	224.607	69	60
224.607	225.721	57	32
224.607	226.884	69	64
224.88	225.437	53	32
224.88	226.884	72	57
225.085	226.814	61	36
225.153	226.884	29	33
225.153	226.884	41	39
225.153	226.317	65	70
225.437	226.601	53	32
225.721	226.317	57	32
226.019	226.884	63	32
226.317	226.884	57	32
226.317	226.884	65	64
226.601	226.884	53	32
226.814	226.884	61	30
226.884	228.613	34	33
226.884	228.604	46	39
226.884	228.019	65	75
227.168	228.311	53	32
227.452	228.019	58	32
227.735	228.604	61	32
227.735	228.613	66	64
228.019	228.604	58	32
228.019	228.613	65	64
228.311	228.613	53	32
228.604	229.123	46	31
228.604	229.123	58	37
228.604	229.123	61	75
228.604	229.155	73	75
228.879	229.155	65	55
229.155	229.681	48	29
229.155	229.681	57	35
229.155	229.681	63	72
229.155	229.706	72	72
229.43	229.706	65	55
229.706	230.279	49	31
229.706	230.279	58	37
229.706	230.207	61	72
229.706	230.279	70	72
229.992	230.279	65	55
230.207	230.279	61	52
230.279	231.94	39	34
230.279	230.56	51	40
230.279	233.672	68	74
230.56	231.667	51	32
230.841	231.394	55	32
231.121	231.872	61	32
231.121	231.394	67	60
231.394	232.508	55	32
231.394	233.672	67	64
231.667	231.94	51	32
231.667	233.672	70	57
231.872	232.806	61	44
231.94	233.672	39	33
231.94	232.224	51	39
231.94	233.672	63	70
232.224	233.388	51	32
232.508	233.104	55	32
232.806	233.672	61	32
233.104	233.672	55	32
233.104	233.672	73	56
233.104	233.672	75	66
233.388	233.672	51	32
233.672	235.921	44	40
233.672	235.375	72	62
233.672	234.79	75	74
233.955	235.921	51	32
234.239	235.921	56	32
234.523	235.921	60	32
234.523	235.921	77	64
234.79	235.921	63	32
234.79	235.302	75	64
235.083	235.921	68	32
235.302	235.921	75	53
235.375	236.467	72	38
235.375	236.467	80	77
236.467	237.891	79	71
237.04	239.287	49	40
237.04	238.741	73	62
237.04	238.156	77	74
237.323	239.287	53	32
237.607	239.287	58	32
237.891	239.287	61	32
237.891	239.287	79	64
238.156	239.287	65	32
238.156	238.668	77	64
238.449	239.287	70	32
238.668	239.287	77	53
238.741	239.833	73	38
238.741	239.833	82	77
239.833	243.872	80	71
240.262	240.334	70	59
240.334	242.108	73	59
240.406	242.108	39	34
240.406	240.689	51	40
240.406	243.872	79	74
240.689	241.824	51	32
240.973	241.54	55	32
241.257	242.958	61	32
241.257	243.872	77	64
241.54	242.675	55	32
241.54	243.872	75	64
241.824	242.108	51	32
241.966	243.872	63	43
242.037	243.872	67	51
242.108	243.872	39	33
242.108	242.391	51	39
242.108	243.872	73	74
242.391	243.544	51	32
242.675	243.242	55	32
242.958	243.872	61	32
242.958	243.872	72	64
243.242	243.872	55	32
243.242	243.872	70	64
243.544	243.872	51	32
243.708	243.872	68	50
243.79	243.872	71	51
243.872	245.331	44	33
243.872	245.331	56	39
243.872	245.574	77	60
244.156	245.29	59	29
244.439	245.007	62	29
244.723	245.331	65	29
245.007	245.331	62	29
245.29	245.574	59	29
245.574	245.858	56	36
245.574	246.715	75	61
245.858	246.141	60	32
246.141	246.426	63	32
246.426	246.715	68	32
246.715	249.559	67	32
246.715	249.559	73	56
246.715	247.309	75	66
247.01	248.428	63	32
247.309	249.559	44	40
247.309	249.013	72	62
247.309	248.428	75	74
247.593	249.559	51	32
247.877	249.559	56	32
248.16	249.559	60	32
248.16	249.559	77	64
248.428	249.559	63	32
248.428	248.94	75	64
248.721	249.559	68	32
248.94	249.559	75	55
249.013	250.105	72	38
249.013	250.105	80	77
250.105	251.529	79	70
250.678	252.925	49	40
250.678	252.379	73	62
250.678	251.794	77	74
250.961	252.925	53	32
251.245	252.925	58	32
251.529	252.925	61	32
251.529	252.925	79	64
251.794	252.925	65	32
251.794	252.306	77	64
252.086	252.925	70	32
252.306	252.925	77	55
252.379	253.471	73	38
252.379	253.471	82	77
253.471	257.483	80	67
253.9	253.972	70	57
253.972	255.745	73	57
254.043	255.745	39	34
254.043	254.327	51	40
254.043	257.483	79	74
254.327	255.462	51	32
254.611	255.178	55	32
254.894	256.596	61	32
254.894	257.483	77	64
255.178	256.313	55	32
255.178	257.483	75	64
255.462	255.745	51	32
255.604	257.483	63	42
255.674	257.483	67	51
255.745	257.483	39	33
255.745	256.029	51	39
255.745	257.483	73	66
256.029	257.181	51	32
256.313	256.88	55	32
256.596	257.483	61	32
256.596	257.483	72	64
256.88	257.483	55	32
256.88	257.483	70	60
257.181	257.483	51	32
257.483	259.858	56	36
257.483	259.858	60	43
257.483	258.05	68	65
257.766	259.858	63	37
257.766	258.334	72	55
258.05	259.858	68	36
258.05	258.627	75	54
258.334	259.858	72	36
258.334	258.931	80	53
258.627	259.858	75	35
258.627	259.243	84	52
258.931	259.858	80	34
258.931	259.858	87	51
259.243	259.858	84	32
259.243	260.472	92	50
261.139	262.079	68	46
262.03	262.381	70	43
262.327	264.71	68	43
262.979	264.71	44	26
262.979	264.71	51	26
262.979	264.71	54	31
262.979	264.71	60	28
264.71	265.641	68	46
265.592	265.938	70	43
265.886	268.236	68	43
266.505	268.236	44	27
266.505	268.236	53	32
266.505	268.236	61	28
268.236	269.167	68	46
269.118	269.463	70	40
269.412	272.06	68	40
270.024	271.301	44	25
270.024	271.301	47	25
270.024	271.301	53	30
270.024	271.301	62	35
271.301	272.06	44	25
271.301	272.06	48	25
271.301	272.06	54	30
271.301	272.06	63	38
272.06	275.579	44	24
272.06	275.579	51	24
272.06	275.579	56	29
272.06	275.579	60	34
272.06	275.579	66	34
272.06	275.579	68	40
276.182	278.076	65	34
276.268	279.868	37	31
276.268	278.076	49	37
276.268	277.298	68	46
276.562	277.751	53	30
276.856	277.445	56	30
277.151	278.936	61	30
277.151	277.445	67	43
277.298	277.598	68	40
277.445	278.648	56	30
277.445	279.868	67	44
277.598	277.904	68	40
277.751	278.362	53	30
277.751	279.753	70	44
277.904	279.868	68	40
278.076	279.868	49	35
278.076	279.811	65	46
278.362	279.539	53	19
278.648	279.233	56	19
278.648	279.868	89	35
278.743	279.868	87	35
278.839	279.868	85	36
278.936	279.868	61	19
278.936	279.868	84	36
279.034	279.868	82	37
279.133	279.868	80	37
279.233	279.868	56	19
279.233	279.868	78	38
279.334	279.868	77	38
279.436	279.868	75	39
279.539	279.868	53	19
279.539	279.868	73	39
279.644	279.868	72	40
279.753	279.868	70	40
279.811	279.868	65	35
279.868	283.466	37	31
279.868	281.676	49	37
279.868	280.897	68	46
280.162	281.351	53	30
280.456	281.044	56	30
280.75	282.536	61	30
280.75	281.044	67	43
280.897	281.198	68	40
281.044	282.247	56	30
281.044	283.466	67	44
281.198	281.504	68	40
281.351	281.962	53	30
281.351	283.466	70	43
281.504	283.466	68	40
281.676	283.466	49	35
281.676	283.466	65	46
281.962	283.139	53	19
282.247	282.833	56	19
282.247	283.466	89	34
282.343	283.466	87	34
282.439	283.466	85	34
282.536	283.466	61	19
282.536	283.466	84	35
282.634	283.466	82	35
282.733	283.466	80	36
282.833	283.466	56	19
282.833	283.466	78	36
282.934	283.466	77	37
283.036	283.466	75	37
283.139	283.466	53	19
283.139	283.352	73	38
283.243	283.466	72	38
283.352	283.466	73	38
283.466	285.274	44	31
283.466	283.76	56	37
283.466	284.495	75	46
283.76	284.948	56	30
284.054	284.642	60	30
284.348	286.134	66	30
284.348	287.064	74	42
284.495	284.948	75	40
284.642	285.845	60	30
284.642	286.532	78	43
284.795	286.634	77	40
284.948	285.274	56	30
284.948	286.737	75	40
285.101	286.841	73	40
285.274	287.064	44	37
285.274	285.56	56	37
285.274	287.064	72	46
285.56	286.737	56	19
285.845	286.431	60	19
285.845	287.064	90	35
285.941	287.064	89	35
286.037	287.064	87	35
286.134	287.064	66	19
286.134	287.064	85	36
286.232	287.064	84	36
286.331	287.064	82	36
286.431	287.064	60	19
286.431	287.064	80	37
286.532	287.064	78	37
286.634	287.064	77	37
286.737	287.064	56	19
286.737	287.064	75	38
286.841	286.95	73	38
286.95	287.064	73	38
287.007	287.064	65	34
287.064	290.661	37	31
287.064	288.872	49	37
287.064	288.093	73	46
287.358	288.546	53	30
287.652	288.24	56	30
287.946	289.732	61	30
287.946	288.24	72	42
288.093	288.393	73	40
288.24	289.443	56	30
288.24	290.439	72	40
288.393	288.699	73	40
288.546	289.157	53	30
288.546	290.13	77	43
288.699	290.335	73	40
288.872	290.661	49	35
288.872	290.661	68	46
289.157	290.335	53	19
289.443	290.029	56	19
289.443	290.661	89	35
289.538	290.661	87	35
289.635	290.661	85	35
289.732	290.661	61	19
289.732	290.661	84	36
289.83	290.661	82	36
289.929	290.661	80	37
290.029	290.661	56	19
290.029	290.661	78	37
290.13	290.661	77	38
290.232	290.661	75	38
290.335	290.661	53	19
290.335	290.548	73	39
290.439	290.661	72	39
290.548	290.661	73	39
290.605	290.661	66	34
290.661	292.47	42	31
290.661	292.47	54	37
290.661	291.691	70	46
290.956	292.144	58	30
291.25	294.261	60	30
291.544	293.329	66	30
291.544	292.144	69	43
291.691	291.991	70	40
291.838	293.041	61	30
291.838	294.037	72	44
291.991	292.297	70	40
292.144	292.755	58	30
292.144	294.261	69	43
292.297	294.146	70	40
292.47	294.261	42	31
292.47	294.261	54	37
292.47	293.933	73	46
292.755	293.933	58	19
292.755	294.261	94	35
292.85	294.261	92	35
292.946	294.261	90	35
293.041	293.626	61	19
293.041	294.261	89	36
293.136	294.261	87	36
293.232	294.261	85	37
293.329	294.261	66	19
293.329	294.261	84	37
293.427	294.261	82	38
293.526	294.261	80	38
293.626	294.261	61	19
293.626	294.261	78	38
293.727	294.261	77	39
293.83	294.261	75	39
293.933	294.261	58	19
293.933	294.261	73	40
294.037	294.261	72	40
294.146	294.261	70	42
294.204	294.261	65	34
294.261	296.069	37	31
294.261	296.069	49	37
294.261	295.291	68	46
294.555	295.744	56	30
294.85	295.438	61	30
295.144	296.069	65	30
295.144	295.438	67	43
295.291	295.591	68	40
295.438	296.641	61	30
295.438	297.861	67	44
295.591	295.897	68	40
295.744	296.355	56	30
295.744	297.429	70	44
295.897	297.532	68	40
296.069	297.861	37	31
296.069	297.861	49	37
296.069	296.929	65	46
296.355	297.532	56	19
296.355	297.861	89	35
296.45	297.861	87	35
296.545	297.861	85	35
296.641	297.226	61	19
296.641	297.861	84	36
296.736	297.861	82	36
296.832	297.861	80	37
296.929	297.746	65	19
296.929	297.861	78	37
297.027	297.861	77	38
297.126	297.861	75	38
297.226	297.861	61	19
297.226	297.861	73	38
297.327	297.861	72	39
297.429	297.861	70	39
297.532	297.861	56	19
297.532	297.861	68	40
297.637	297.804	66	40
297.746	297.861	65	42
297.804	297.861	66	34
297.861	299.669	42	31
297.861	299.669	54	37
297.861	298.89	70	46
298.155	299.344	58	30
298.449	301.461	60	30
298.743	300.529	66	30
298.743	299.344	69	43
298.89	299.191	70	40
299.038	300.241	61	30
299.038	301.236	72	43
299.191	299.497	70	40
299.344	299.955	58	30
299.344	301.461	69	43
299.497	301.346	70	40
299.669	301.461	42	31
299.669	301.461	54	37
299.669	301.132	73	46
299.955	301.132	58	19
299.955	301.461	94	43
300.05	301.461	92	43
300.145	301.461	90	43
300.241	300.826	61	19
300.241	301.461	89	43
300.336	301.461	87	43
300.432	301.461	85	42
300.529	301.461	66	19
300.529	301.461	84	42
300.627	301.461	82	42
300.726	301.461	80	42
300.826	301.461	61	19
300.826	301.461	78	42
300.927	301.461	77	40
301.029	301.461	75	40
301.132	301.461	58	19
301.132	301.461	73	40
301.236	301.461	72	40
301.346	301.461	70	40
301.403	301.461	65	34
301.461	303.269	37	31
301.461	303.269	49	37
301.461	302.49	68	46
301.755	302.943	56	30
302.049	302.637	61	30
302.343	303.269	65	30
302.343	302.637	67	43
302.49	302.79	68	40
302.637	303.84	61	30
302.637	305.061	67	43
302.79	303.096	68	40
302.943	303.555	56	30
302.943	305.061	70	43
303.096	305.061	68	40
303.269	305.061	37	31
303.269	305.061	49	37
303.269	304.129	65	46
303.555	304.732	56	19
303.84	304.426	61	19
303.84	305.061	89	36
303.936	305.061	87	36
304.032	305.061	85	37
304.129	305.061	65	19
304.129	305.061	84	37
304.227	305.061	82	38
304.326	305.061	80	39
304.426	305.061	61	19
304.426	305.061	78	39
304.527	305.061	77	40
304.629	305.061	75	42
304.732	305.061	56	19
304.732	304.946	73	42
304.836	305.032	72	43
304.946	305.061	73	43
305.003	305.061	66	34
305.032	305.061	72	34
305.061	306.869	32	31
305.061	306.869	44	37
305.061	306.09	75	46
305.355	306.543	56	30
305.649	306.237	60	30
305.943	306.811	66	30
305.943	306.543	74	44
306.09	306.39	75	40
306.237	307.44	60	30
306.237	307.926	77	44
306.39	306.696	75	40
306.543	307.154	56	30
306.543	308.66	74	43
306.696	308.026	75	40
306.811	307.729	66	34
306.84	308.127	73	34
306.869	308.66	32	31
306.869	308.66	44	37
306.869	307.827	78	46
307.154	308.332	56	19
307.154	308.66	90	35
307.25	308.66	89	35
307.345	308.66	87	35
307.44	308.026	60	19
307.44	308.66	85	36
307.535	308.66	84	36
307.631	308.66	82	37
307.729	308.545	66	19
307.729	308.66	80	37
307.827	308.66	78	38
307.926	308.66	77	38
308.026	308.66	60	19
308.026	308.66	75	39
308.127	308.66	73	39
308.229	308.66	72	40
308.332	308.66	56	19
308.332	308.66	70	40
308.436	308.66	68	42
308.545	308.66	66	42
308.66	308.807	37	31
308.66	308.807	49	37
308.66	309.543	65	39
308.66	309.69	73	46
308.955	310.143	56	30
309.249	309.837	61	30
309.543	310.468	65	30
309.543	310.143	72	44
309.69	309.99	73	40
309.837	311.04	61	30
309.837	311.625	75	44
309.99	310.296	73	40
310.143	310.754	56	30
310.143	311.828	72	44
310.296	311.726	73	40
310.468	312.26	37	31
310.468	312.26	49	37
310.468	311.328	65	46
310.468	311.525	77	46
310.754	311.932	56	19
310.754	312.26	90	40
310.849	312.26	89	40
310.945	312.26	87	40
311.04	311.625	61	19
311.04	312.26	85	40
311.135	312.26	84	40
311.231	312.26	82	39
311.328	312.203	65	19
311.328	312.26	80	39
311.426	312.26	78	39
311.525	312.26	77	39
311.625	312.26	61	19
311.625	312.26	75	38
311.726	312.26	73	38
311.828	312.26	72	38
311.932	312.26	56	19
311.932	312.26	70	38
312.036	312.26	68	38
312.145	312.26	66	39
312.203	312.26	65	34
312.26	314.197	37	28
312.26	314.197	49	34
312.26	314.197	73	46
312.573	313.805	53	23
312.885	313.486	56	23
313.198	314.197	61	23
313.198	314.124	68	39
313.486	314.197	56	23
313.486	314.197	65	39
313.805	314.197	53	23
314.124	314.281	32	27
314.124	314.281	44	32
314.124	316.033	60	36
314.124	316.033	68	43
314.437	316.033	44	24
314.749	316.033	48	24
315.062	316.033	51	24
315.062	316.033	66	40
315.374	316.033	54	24
315.374	316.033	63	40
315.687	316.033	56	24
315.97	316.033	77	25
316.001	316.033	80	25
316.033	317.823	37	24
316.033	317.823	49	29
316.033	317.823	89	40
316.339	317.519	56	18
316.645	317.228	61	18
316.791	317.823	85	36
316.937	317.519	65	18
316.937	317.823	80	36
317.082	317.823	77	36
317.228	317.68	61	18
317.228	317.823	73	36
317.374	317.823	68	36
317.519	317.842	56	18
317.519	317.823	65	36
317.68	317.823	61	36
317.788	317.823	60	25
317.815	317.842	66	25
317.842	319.678	32	22
317.842	318.148	44	27
317.842	319.678	70	39
318.148	319.678	44	17
318.454	319.678	48	17
318.76	319.678	51	17
318.76	319.678	68	35
319.066	319.678	54	17
319.066	319.678	63	35
319.372	319.678	56	17
319.372	319.678	65	35
319.678	320.291	49	14
319.678	320.291	53	17
319.678	320.138	61	35
319.832	320.291	65	32
319.985	320.291	56	32
320.138	320.902	61	32
320.291	321.86	49	14
320.291	321.86	53	14
320.291	320.902	56	17
320.291	320.902	65	36
320.441	321.86	68	35
320.593	321.86	73	35
320.746	321.86	77	35
320.902	321.546	56	14
320.902	321.546	61	14
320.902	321.546	65	17
320.902	321.86	80	34
321.06	321.86	85	34
321.22	321.86	89	34
321.382	321.86	92	34
321.546	322.213	56	14
321.546	322.213	61	14
321.546	322.213	65	17
321.546	322.157	97	38
322.213	322.713	68	53
322.88	323.376	68	53
323.5	323.531	60	35
323.531	327.22	63	36
323.562	325.415	32	32
323.562	325.415	44	38
323.562	324.779	68	53
323.867	325.083	56	31
324.171	324.779	60	31
324.475	326.327	66	31
324.475	326.619	70	48
324.779	326.023	60	31
324.779	325.36	68	48
325.083	325.719	56	31
325.36	326.175	68	39
325.387	327.22	72	39
325.415	327.22	32	32
325.415	327.22	44	38
325.415	327.22	78	63
325.719	326.911	56	38
326.023	326.619	60	30
326.175	326.473	68	46
326.327	327.22	66	30
326.327	326.911	67	46
326.473	326.765	68	46
326.619	327.22	60	30
326.619	327.22	70	46
326.765	327.057	68	46
326.911	327.22	56	30
326.911	327.22	67	46
327.057	327.22	68	46
327.193	327.22	65	39
327.22	329.002	37	32
327.22	329.002	49	38
327.22	328.399	68	53
327.518	328.685	56	31
327.816	328.399	61	31
328.113	328.949	65	31
328.113	330.807	70	48
328.399	329.61	61	31
328.399	328.976	68	48
328.685	329.306	56	31
328.949	329.915	65	39
328.976	330.807	68	39
329.002	330.807	37	32
329.002	330.807	49	38
329.002	329.763	77	63
329.306	330.499	56	38
329.61	330.207	61	30
329.763	330.807	77	46
329.915	330.807	65	30
329.915	330.499	75	46
330.061	330.353	73	46
330.207	330.807	61	30
330.207	330.78	72	46
330.353	330.645	73	46
330.499	330.807	56	30
330.499	330.807	75	46
330.645	330.807	73	46
330.78	330.807	72	39
330.807	332.576	32	32
330.807	332.576	44	38
330.807	331.192	78	65
331.096	332.273	56	31
331.096	331.686	80	47
331.192	331.385	78	47
331.289	332.865	77	47
331.385	331.981	60	31
331.385	332.273	78	59
331.686	332.524	66	31
331.686	334.351	80	54
331.981	333.154	60	31
331.981	334.351	82	59
332.273	332.865	56	31
332.273	333.744	78	50
332.524	333.455	66	39
332.55	334.045	72	39
332.576	334.351	32	32
332.576	334.351	44	38
332.576	332.961	75	65
332.865	334.045	56	38
332.865	333.455	77	47
332.961	333.154	75	47
333.058	334.351	74	47
333.154	333.744	60	30
333.154	334.351	75	59
333.455	334.351	66	31
333.455	334.351	77	54
333.744	334.351	60	30
333.744	334.351	78	59
334.045	334.351	56	30
334.045	334.351	72	50
334.299	334.351	65	39
334.325	334.351	68	39
334.351	336.096	37	32
334.351	336.096	49	38
334.351	336.096	75	65
334.64	335.809	56	38
334.929	335.519	61	30
335.08	335.375	73	47
335.23	336.096	65	31
335.23	335.519	72	47
335.375	335.664	73	47
335.519	336.096	61	30
335.519	336.096	72	47
335.664	335.953	73	47
335.809	336.106	56	30
335.809	336.096	77	47
335.953	336.096	73	47
336.106	337.794	37	32
336.106	337.794	49	38
336.106	337.794	68	47
336.404	337.595	56	38
336.702	337.298	61	30
337.0	337.794	65	31
337.298	337.794	61	30
337.298	337.909	73	47
337.595	338.213	56	30
337.854	337.881	65	36
337.881	339.67	71	38
337.909	339.721	37	32
337.909	339.721	49	38
337.909	339.116	73	53
338.213	339.411	56	31
338.517	339.116	61	31
338.821	340.615	65	31
338.821	341.333	75	48
339.116	340.317	61	31
339.116	339.695	73	48
339.411	340.019	56	31
339.67	341.333	71	39
339.695	340.913	73	39
339.721	341.333	37	32
339.721	341.333	49	38
339.721	341.333	80	63
340.019	341.211	56	38
340.317	340.913	61	30
340.615	341.333	65	30
340.913	341.333	61	30
340.913	341.522	73	63
341.211	344.825	56	30
341.468	341.495	66	39
341.495	345.136	70	39
341.522	343.335	37	32
341.522	343.335	49	38
341.522	342.729	73	53
341.826	343.024	58	31
342.13	342.729	61	31
342.435	344.229	66	31
342.435	345.136	75	48
342.729	343.931	61	31
342.729	343.309	73	48
343.024	345.136	58	31
343.283	345.136	69	35
343.309	345.136	73	35
343.335	345.136	37	32
343.335	345.136	49	38
343.335	345.136	78	54
343.633	345.136	57	38
343.931	344.527	61	30
344.229	345.136	66	30
344.527	345.136	61	30
344.527	345.136	77	54
344.825	345.136	56	30
345.109	345.136	72	35
345.136	346.853	37	32
345.136	346.853	49	38
345.136	346.853	75	54
345.279	346.853	78	55
345.422	346.853	81	57
345.565	346.853	84	58
345.708	346.853	57	25
345.708	346.853	60	25
345.708	346.853	63	25
345.708	346.853	66	30
345.708	346.853	87	59
345.851	346.853	90	59
345.995	346.853	93	60
346.138	346.71	96	61
346.281	346.567	99	63
346.424	346.853	102	64
346.567	346.853	99	64
346.71	346.853	96	65
346.853	348.571	25	29
346.853	348.571	37	35
346.853	348.571	93	66
346.997	348.571	90	65
347.14	348.571	87	65
347.283	348.571	84	65
347.426	348.571	49	24
347.426	348.571	51	24
347.426	348.571	54	24
347.426	348.571	56	29
347.426	348.571	81	64
347.569	348.571	78	64
347.712	348.571	75	65
347.855	348.571	72	66
347.998	348.571	69	67
348.142	348.571	66	69
348.285	348.571	63	69
348.428	348.571	60	70
348.571	349.0	61	69
348.714	350.555	65	70
348.857	349.285	56	69
349.0	350.555	61	72
349.144	349.575	53	70
349.285	350.555	56	73
349.429	349.874	49	72
349.575	350.555	53	75
349.724	350.182	44	73
349.874	350.555	49	77
350.027	350.555	41	75
350.182	350.555	44	80
350.339	350.899	37	86
350.98	351.306	68	67
351.632	351.958	68	67
352.284	353.461	49	46
352.284	353.461	56	55
352.284	353.461	61	55
352.284	353.223	65	50
352.284	353.223	68	59
353.175	353.517	70	57
353.461	354.128	49	42
353.461	354.128	56	50
353.461	354.128	61	50
353.461	354.128	65	48
353.461	355.335	68	57
354.128	355.965	49	39
354.128	355.965	56	46
354.128	355.965	61	45
354.128	355.636	65	53
354.444	354.741	80	27
354.444	354.741	85	32
354.444	355.905	89	32
354.741	355.038	77	27
354.741	355.038	80	32
354.741	355.905	85	32
355.038	355.335	73	27
355.038	355.335	77	32
355.038	355.905	80	32
355.335	355.636	68	27
355.335	355.636	73	32
355.335	355.905	77	32
355.636	355.965	65	27
355.636	355.905	68	32
355.636	355.905	73	32
355.965	357.142	49	46
355.965	357.142	56	46
355.965	357.142	61	55
355.965	356.904	65	51
355.965	356.904	68	60
356.856	357.194	70	58
357.142	357.767	49	42
357.142	357.767	56	42
357.142	357.767	61	50
357.142	357.767	65	49
357.142	358.98	68	58
357.767	359.593	49	46
357.767	359.593	56	46
357.767	359.593	61	46
357.767	359.277	65	55
358.089	358.386	80	27
358.089	358.386	85	32
358.089	359.523	89	32
358.386	358.683	77	27
358.386	358.683	80	32
358.386	359.523	85	32
358.683	358.98	73	27
358.683	358.98	77	32
358.683	359.523	80	32
358.98	359.277	68	27
358.98	359.277	73	32
358.98	359.523	77	32
359.277	359.593	65	27
359.277	359.523	68	32
359.277	359.523	73	32
359.593	360.769	49	46
359.593	360.769	56	46
359.593	360.769	61	55
359.593	360.531	65	51
359.593	360.531	68	61
360.484	360.821	70	58
360.769	361.394	49	42
360.769	361.394	56	42
360.769	361.389	61	50
360.769	361.394	65	49
360.769	361.394	68	58
361.394	362.574	49	45
361.394	362.574	56	54
361.394	362.334	61	53
361.394	362.334	65	63
362.285	362.627	66	57
362.574	363.212	49	40
362.574	363.212	56	48
362.574	363.212	61	48
362.574	363.212	65	57
363.212	364.095	49	40
363.212	364.683	56	48
363.212	364.977	61	42
363.212	366.153	65	50
363.506	373.686	32	23
363.506	363.8	37	23
363.506	363.8	41	28
363.8	373.686	37	23
363.8	364.095	41	23
363.8	364.095	44	28
364.095	373.686	41	23
364.095	364.389	44	23
364.095	364.389	49	28
364.389	365.271	44	23
364.389	364.683	49	23
364.389	364.683	53	28
364.683	365.271	49	23
364.683	364.977	53	23
364.683	364.977	56	28
364.977	365.271	53	23
364.977	365.565	56	23
364.977	365.859	61	28
365.271	373.686	44	23
365.271	365.565	49	23
365.271	365.565	53	28
365.565	373.686	49	23
365.565	365.859	53	23
365.565	365.859	56	28
365.859	373.686	53	23
365.859	366.153	56	23
365.859	366.153	61	28
366.153	367.036	56	23
366.153	366.447	61	23
366.153	366.447	65	28
366.447	367.036	61	23
366.447	366.741	65	23
366.447	366.741	68	28
366.741	367.036	65	23
366.741	367.33	68	23
366.741	367.636	73	28
367.036	373.686	56	23
367.036	367.33	61	23
367.036	367.33	65	28
367.33	373.686	61	23
367.33	367.636	65	28
367.33	367.636	68	23
367.636	373.686	65	23
367.636	367.942	68	23
367.636	367.942	73	28
367.942	368.858	68	23
367.942	368.248	73	28
367.942	368.248	77	28
368.248	368.858	73	23
368.248	368.554	77	28
368.248	368.554	80	28
368.554	368.858	77	23
368.554	369.173	80	28
368.554	369.502	85	28
368.858	373.686	68	23
368.858	369.173	73	28
368.858	369.173	77	28
369.173	373.686	73	23
369.173	369.502	77	28
369.173	369.502	80	28
369.502	373.686	77	23
369.502	369.844	80	28
369.502	369.844	85	28
369.844	373.686	80	23
369.844	370.202	85	28
369.844	370.202	89	28
370.202	373.686	85	23
370.202	370.713	89	28
370.202	370.713	92	28
370.713	373.686	89	26
370.713	373.686	92	31
370.713	373.686	97	31
374.242	375.19	32	23
374.242	375.19	44	28
374.242	375.506	56	19
374.242	375.506	61	19
374.242	375.506	65	23
375.19	375.506	34	19
375.19	375.506	46	23
375.506	376.203	32	19
375.506	376.203	44	23
375.506	376.203	56	19
375.506	376.203	61	19
375.506	376.203	65	23
376.203	377.224	29	23
376.203	377.224	41	28
376.203	377.585	56	19
376.203	377.585	61	19
376.203	377.585	65	23
377.224	377.585	30	19
377.224	377.585	42	23
377.585	378.481	29	19
377.585	378.481	41	23
377.585	378.481	56	19
377.585	378.481	61	19
377.585	378.481	65	23
378.481	383.854	25	23
378.481	383.854	37	28
378.481	383.854	56	19
378.481	383.854	61	19
378.481	383.854	65	23
