OnsetTime	OffsetTime	MidiPitch	Velocity
0.500004	1.41279	44	37
0.804382	1.10337	51	27
0.804382	1.10337	56	27
0.804382	1.10337	60	32
0.804382	1.41279	68	59
1.10337	1.41279	51	24
1.10337	1.41279	56	24
1.10337	1.41279	60	27
1.10337	1.41279	63	39
1.40593	2.30431	39	44
1.40593	2.30431	70	57
1.70492	2.00755	51	19
1.70492	2.00755	56	19
1.70492	2.00755	60	22
1.70492	2.30431	63	28
1.70492	2.30431	68	31
2.00755	2.30431	51	26
2.00755	2.30431	56	26
2.00755	2.30431	60	29
2.00755	2.30431	72	57
2.30431	3.22222	46	39
2.60596	2.90467	51	30
2.60596	2.90467	55	30
2.60596	2.90467	61	34
2.60596	3.22222	73	63
2.90467	3.22222	51	22
2.90467	3.22222	55	22
2.90467	3.22222	61	25
2.90467	3.22222	63	34
2.90467	3.22222	67	38
3.2083	4.11919	39	39
3.2083	4.11919	72	62
3.51194	3.81557	51	20
3.51194	3.81557	55	20
3.51194	3.81557	61	23
3.51194	4.11919	63	30
3.51194	4.11919	67	35
3.81557	4.11919	51	27
3.81557	4.11919	55	27
3.81557	4.11919	61	32
3.81557	4.11919	70	51
4.11919	5.04873	44	50
4.42895	4.73158	51	33
4.42895	4.73158	56	33
4.42895	4.73158	60	36
4.42895	5.04873	72	63
4.73158	5.04873	51	27
4.73158	5.04873	56	27
4.73158	5.04873	60	33
4.73158	5.04873	63	38
4.73158	5.04873	68	42
5.0424	5.94543	39	55
5.0424	5.94543	73	68
5.34603	5.64867	54	27
5.34603	5.64867	56	27
5.34603	5.64867	60	32
5.34603	5.94543	63	37
5.34603	5.94543	68	41
5.64867	5.94543	54	34
5.64867	5.94543	56	34
5.64867	5.94543	60	37
5.64867	5.94543	75	71
5.94543	6.93449	44	57
5.94543	6.93449	77	73
6.16777	6.50175	53	31
6.18963	6.52361	56	37
6.21149	6.54547	59	44
6.23335	6.56733	68	51
6.25521	6.58919	74	56
6.27707	6.93449	79	74
6.50175	6.93449	53	33
6.52361	6.93449	56	40
6.54547	6.93449	59	45
6.56733	6.93449	68	51
6.58919	6.93449	74	56
6.61105	6.93449	80	77
6.93449	7.86814	44	63
6.93449	7.86814	75	81
7.24538	7.55626	51	22
7.24538	7.55626	56	22
7.24538	7.55626	60	25
7.24538	7.55626	63	38
7.24538	7.55626	68	38
7.24538	7.55626	72	44
7.55626	7.86814	51	22
7.55626	7.86814	56	22
7.55626	7.86814	60	25
7.55626	7.86814	63	38
7.55626	7.86814	68	38
7.55626	7.86814	72	43
7.86814	8.78494	45	37
8.1738	8.46648	53	27
8.1738	8.46648	60	27
8.1738	8.46648	63	32
8.1738	8.62189	78	59
8.32014	8.77729	77	56
8.46648	8.78494	53	24
8.46648	8.78494	60	24
8.46648	8.78494	63	27
8.46648	8.78494	75	59
8.62189	8.78494	78	56
8.77729	9.38558	46	37
8.77729	9.38558	77	62
9.08294	9.38558	53	27
9.08294	9.38558	58	27
9.08294	9.38558	61	32
9.23426	9.38558	73	59
9.38558	9.69639	53	24
9.38558	9.69639	58	24
9.38558	9.69639	61	27
9.38558	9.54099	70	55
9.54099	9.69639	65	50
9.69639	10.6132	43	37
10.002	10.2947	51	27
10.002	10.2947	58	27
10.002	10.2947	61	32
10.002	10.4501	76	59
10.1484	10.6055	75	56
10.2947	10.6132	51	24
10.2947	10.6132	58	24
10.2947	10.6132	61	27
10.2947	10.6132	73	59
10.4501	10.6132	76	56
10.6055	11.2138	44	37
10.6055	11.2138	75	62
10.9112	11.2138	51	27
10.9112	11.2138	56	27
10.9112	11.2138	60	32
11.0625	11.2138	72	59
11.2138	11.5246	51	24
11.2138	11.5246	56	24
11.2138	11.5246	60	27
11.2138	11.3692	68	57
11.3692	11.5246	63	52
11.5246	12.4567	42	37
11.8344	12.137	54	31
11.8344	12.137	56	36
11.8344	12.137	60	35
11.8344	12.137	63	39
11.8344	12.4567	68	59
12.137	12.4567	54	27
12.137	12.4567	56	30
12.137	12.4567	60	35
12.137	12.4567	63	39
12.4478	13.3509	41	44
12.4478	13.3509	67	63
12.7515	13.0541	53	25
12.7515	13.0541	56	28
12.7515	13.0541	60	31
12.7515	13.0541	65	36
13.0541	13.3509	53	29
13.0541	13.3509	56	33
13.0541	13.3509	60	31
13.0541	13.3509	65	36
13.0541	13.3509	68	59
13.3509	14.2791	40	37
13.3509	13.9592	70	68
13.6565	13.9592	52	31
13.6565	13.9592	56	36
13.6565	13.9592	62	31
13.6565	13.9592	68	36
13.8078	14.1146	71	61
13.9592	14.2791	52	27
13.9592	14.2791	56	30
13.9592	14.2791	62	31
13.9592	14.2791	68	36
13.9592	14.2791	70	59
14.1146	14.2791	71	52
14.27	15.1991	39	37
14.27	15.1991	67	59
14.5817	14.8843	51	29
14.5817	14.8843	58	34
14.5817	14.8843	61	36
14.5817	14.8843	63	40
14.8843	15.1991	51	25
14.8843	15.1991	58	28
14.8843	15.1991	61	35
14.8843	15.1991	63	39
15.1991	16.1196	44	37
15.5089	15.8079	51	27
15.5089	15.8079	56	27
15.5089	15.8079	60	32
15.5089	16.1196	68	59
15.8079	16.1196	51	24
15.8079	16.1196	56	24
15.8079	16.1196	60	27
15.8079	16.1196	63	39
16.1113	17.0143	39	44
16.1113	17.0143	70	58
16.415	16.7176	51	19
16.415	16.7176	56	19
16.415	16.7176	60	22
16.415	17.0143	63	28
16.415	17.0143	68	31
16.7176	17.0143	51	26
16.7176	17.0143	56	26
16.7176	17.0143	60	29
16.7176	17.0143	72	57
17.0143	17.9272	46	39
17.316	17.6147	51	30
17.316	17.6147	55	30
17.316	17.6147	61	34
17.316	17.9272	73	63
17.6147	17.9272	51	22
17.6147	17.9272	55	22
17.6147	17.9272	61	25
17.6147	17.9272	63	34
17.6147	17.9272	67	38
17.9183	18.8292	39	39
17.9183	18.8292	72	62
18.222	18.5256	51	20
18.222	18.5256	55	20
18.222	18.5256	61	23
18.222	18.8292	63	30
18.222	18.8292	67	35
18.5256	18.8292	51	27
18.5256	18.8292	55	27
18.5256	18.8292	61	32
18.5256	18.8292	70	51
18.8292	19.7594	44	38
19.139	19.4416	51	30
19.139	19.4416	56	30
19.139	19.4416	60	34
19.139	19.7594	72	63
19.4416	19.7594	51	26
19.4416	19.7594	56	26
19.4416	19.7594	60	30
19.4416	19.7594	63	38
19.4416	19.7594	68	42
19.7524	20.663	39	55
19.7524	20.663	73	68
20.056	20.3587	54	27
20.056	20.3587	56	27
20.056	20.3587	60	32
20.056	20.663	63	37
20.056	20.663	68	41
20.3587	20.663	54	34
20.3587	20.663	56	34
20.3587	20.663	60	37
20.3587	20.663	75	71
20.6554	21.6616	44	56
20.6554	21.6694	77	73
20.8837	21.2223	53	29
20.9057	21.2442	56	36
20.9276	21.2661	59	44
20.9495	21.2881	68	48
20.9714	21.31	74	56
20.9934	21.6694	79	74
21.2223	21.6694	53	33
21.2442	21.6694	56	39
21.2661	21.6694	59	45
21.2881	21.6694	68	48
21.31	21.6694	74	55
21.3319	21.6694	80	77
21.6616	22.5953	44	59
21.6616	22.5953	75	81
21.9725	22.2834	51	22
21.9725	22.2834	56	22
21.9725	22.2834	60	25
21.9725	22.2834	63	38
21.9725	22.2834	68	38
21.9725	22.2834	72	44
22.2834	22.5953	51	22
22.2834	22.5953	56	22
22.2834	22.5953	60	25
22.2834	22.5953	63	38
22.2834	22.5953	68	38
22.2834	22.5953	72	43
22.5953	23.4978	45	37
22.9009	23.1859	53	31
22.9009	23.1859	60	31
22.9009	23.1859	63	36
22.9009	23.3345	78	59
23.0434	23.4895	77	56
23.1859	23.4978	53	27
23.1859	23.4978	60	27
23.1859	23.4978	63	30
23.1859	23.4978	75	59
23.3345	23.4978	78	56
23.4895	24.0978	46	37
23.4895	24.0978	77	62
23.7952	24.0978	53	31
23.7952	24.0978	58	31
23.7952	24.0978	61	36
23.9465	24.0978	73	59
24.0978	24.4086	53	27
24.0978	24.4086	58	27
24.0978	24.4086	61	30
24.0978	24.2532	70	55
24.2532	24.4086	65	50
24.4086	25.3212	47	42
24.7143	25.0048	55	33
24.7143	25.0048	62	33
24.7143	25.0048	65	37
24.7143	25.1563	80	66
24.8595	25.311	79	61
25.0048	25.3212	55	28
25.0048	25.3212	62	28
25.0048	25.3212	65	31
25.0048	25.3212	77	64
25.1563	25.3212	80	60
25.311	25.9193	48	38
25.311	25.9193	79	68
25.6166	25.9193	55	33
25.6166	25.9193	60	33
25.6166	25.9193	64	37
25.7679	25.9193	76	61
25.9193	26.2301	55	28
25.9193	26.2301	60	28
25.9193	26.2301	64	31
25.9193	26.0747	72	59
26.0747	26.2301	67	55
26.2301	27.1299	48	44
26.5313	26.8284	56	37
26.5313	26.8284	60	37
26.5313	26.8284	62	42
26.5313	27.138	74	70
26.8284	27.138	56	31
26.8284	27.138	60	31
26.8284	27.138	62	36
26.8284	27.138	66	46
26.8284	27.138	72	46
27.1299	28.0307	48	45
27.1299	28.0307	76	70
27.4279	27.7323	55	26
27.4279	27.7323	60	26
27.4279	27.7323	64	29
27.4279	28.0307	67	34
27.4279	28.0307	72	37
27.7323	28.0307	55	35
27.7323	28.0307	60	35
27.7323	28.0307	64	38
27.7323	28.0307	79	70
28.0307	28.9309	48	46
28.3305	28.6285	53	39
28.3305	28.6285	56	39
28.3305	28.6285	62	45
28.3305	28.9409	74	75
28.6285	28.9409	53	29
28.6285	28.9409	56	29
28.6285	28.9409	62	34
28.6285	28.9409	65	39
28.6285	28.9409	71	45
28.9309	29.8312	48	46
28.9309	29.8312	76	73
29.2298	29.5278	55	27
29.2298	29.5278	60	30
29.2298	29.8312	64	36
29.2298	29.8312	67	40
29.5278	29.8312	55	37
29.5278	29.8312	60	42
29.5278	29.8312	72	61
29.8312	30.7332	48	45
30.1318	30.4298	56	39
30.1318	30.4298	60	39
30.1318	30.4298	62	45
30.1318	30.7457	74	71
30.4298	30.7457	56	35
30.4298	30.7457	60	35
30.4298	30.7457	62	39
30.4298	30.7457	66	45
30.4298	30.7457	72	50
30.7332	31.6339	48	44
30.7332	31.6422	76	73
31.0347	31.3318	55	35
31.0347	31.3318	60	35
31.0347	31.3318	64	38
31.0347	31.6422	67	44
31.0347	31.6422	72	48
31.3318	31.6422	55	38
31.3318	31.6422	60	38
31.3318	31.6422	64	43
31.3318	31.6422	79	69
31.6339	32.5488	48	44
31.6339	32.2407	74	73
31.9394	32.2407	53	35
31.9394	32.2407	56	35
31.9394	32.2407	62	39
31.9394	32.2407	65	39
31.9394	32.2407	71	41
32.0901	32.3947	76	70
32.2407	32.5539	53	31
32.2407	32.5539	56	31
32.2407	32.5539	62	36
32.2407	32.5539	65	45
32.2407	32.5539	71	44
32.2407	32.5539	74	64
32.3947	32.5539	76	60
32.5488	33.4638	48	44
32.5488	33.4638	72	66
32.8544	33.4689	55	29
32.8544	33.4689	60	29
32.8544	33.4689	64	34
33.005	33.3097	76	55
33.1556	33.4689	75	58
33.3097	33.4689	76	56
33.4638	34.3838	48	44
33.4638	34.3838	72	66
33.7693	34.3896	55	29
33.7693	34.3896	60	29
33.7693	34.3896	64	34
33.9199	34.2284	76	55
34.073	34.3896	75	58
34.2284	34.3896	76	56
34.3838	35.0031	48	44
34.3838	34.993	72	66
34.5369	34.8403	76	55
34.6877	35.0031	55	29
34.6877	35.0031	60	29
34.6877	35.0031	64	34
34.6877	35.0031	75	58
34.8403	35.0031	76	55
34.993	35.5959	72	62
35.1445	35.4444	76	56
35.2942	35.6053	75	59
35.4444	35.6053	76	55
35.5959	36.1988	72	63
35.7465	36.0473	76	55
35.8959	36.1988	75	58
36.0473	36.1988	76	56
36.1988	37.093	58	44
36.1988	36.7938	73	59
36.3473	36.6464	77	55
36.4975	36.7938	61	33
36.4975	36.7938	65	37
36.4975	37.093	76	64
36.6464	36.9434	77	56
36.7938	37.093	61	34
36.7938	37.093	65	38
36.7938	37.093	73	60
36.9434	37.093	77	58
37.093	37.9937	56	46
37.093	37.6875	76	62
37.2412	37.5401	77	58
37.3843	37.9937	73	68
37.3912	37.6875	58	34
37.3912	37.6875	61	34
37.3912	37.6875	65	38
37.5401	37.8375	77	60
37.6875	37.9937	58	35
37.6875	37.9937	61	35
37.6875	37.9937	65	39
37.6875	37.9937	76	63
37.8375	37.9937	77	62
37.9875	38.8921	55	49
37.9875	38.8921	71	67
38.1364	38.4385	77	62
38.2809	38.8921	76	72
38.2879	38.5878	59	36
38.2879	38.5878	62	36
38.2879	38.5878	65	40
38.4385	38.8921	77	63
38.5878	38.8921	59	36
38.5878	38.8921	62	36
38.5878	38.8921	65	41
38.5878	38.8921	80	75
38.7393	38.8921	79	71
38.8921	39.8071	48	55
38.8921	39.8071	75	82
39.1941	39.4958	55	44
39.1941	39.4958	60	44
39.1941	39.4958	67	44
39.3439	39.8071	76	70
39.4958	39.8071	55	49
39.4958	39.8071	60	49
39.4958	39.8071	67	49
39.4958	39.8071	79	72
39.6477	39.8071	84	68
39.7996	40.7136	53	49
39.7996	40.7136	69	67
39.9498	40.2519	75	62
40.1012	40.4012	57	36
40.1012	40.4012	60	36
40.1012	40.4012	65	40
40.1012	40.7136	74	72
40.2519	40.7136	75	63
40.4012	40.7136	57	36
40.4012	40.7136	60	36
40.4012	40.7136	65	41
40.4012	40.7136	78	69
40.5527	40.7136	77	66
40.7054	41.6199	46	52
40.7054	41.6199	72	71
41.0075	41.3092	58	39
41.0075	41.3092	61	39
41.0075	41.3092	65	39
41.1573	41.6199	73	69
41.3092	41.6199	58	44
41.3092	41.6199	61	44
41.3092	41.6199	65	44
41.3092	41.6199	77	68
41.4611	41.6199	82	64
41.613	42.5287	49	48
41.613	42.5287	69	72
41.915	42.2167	58	39
41.915	42.2167	61	39
41.915	42.2167	65	39
42.0648	42.5287	70	67
42.2167	42.5287	58	39
42.2167	42.5287	61	39
42.2167	42.5287	65	39
42.2167	42.5287	73	70
42.3686	42.5287	80	66
42.5205	43.4434	51	48
42.5205	43.4434	79	66
42.6724	43.128	77	60
42.8243	43.128	58	35
42.8243	43.128	61	35
42.8243	43.128	63	39
42.8243	43.2819	75	61
42.9762	43.4434	74	56
43.128	43.4357	58	36
43.128	43.4434	61	36
43.128	43.4434	63	40
43.128	43.4434	77	59
43.2819	43.4434	75	56
43.4357	44.3521	58	45
43.4357	44.0418	73	59
43.5884	43.8918	77	55
43.7399	44.0418	61	34
43.7399	44.0418	65	38
43.7399	44.3447	76	64
43.8918	44.1932	77	56
44.0418	44.3521	61	35
44.0418	44.3521	65	39
44.0418	44.3521	73	60
44.1932	44.3521	77	58
44.3447	45.247	56	48
44.3447	44.9421	76	62
44.4936	44.7943	77	58
44.6381	45.247	73	68
44.645	44.9421	58	36
44.645	44.9421	61	36
44.645	44.9421	65	40
44.7943	45.0917	77	60
44.9421	45.247	58	37
44.9421	45.247	61	37
44.9421	45.247	65	41
44.9421	45.247	76	63
45.0917	45.247	77	62
45.2413	46.1535	55	52
45.2413	46.1535	71	67
45.3915	45.6936	77	62
45.536	46.1535	76	72
45.543	45.843	59	39
45.543	45.843	62	39
45.543	45.843	65	43
45.6936	46.1535	77	63
45.843	46.1535	59	39
45.843	46.1535	62	39
45.843	46.1535	65	44
45.843	46.1535	80	75
45.9944	46.1535	79	71
46.1472	47.061	48	58
46.1472	47.061	75	82
46.4493	46.7509	55	49
46.4493	46.7509	60	49
46.4493	46.7509	67	49
46.599	47.061	76	69
46.7509	47.061	55	49
46.7509	47.061	60	49
46.7509	47.061	67	49
46.7509	47.061	79	72
46.9028	47.061	84	69
47.0547	47.9681	53	49
47.0547	47.9681	69	67
47.2049	47.507	75	62
47.3564	47.6563	57	36
47.3564	47.6563	60	36
47.3564	47.6563	65	40
47.3564	47.9681	74	72
47.507	47.9681	75	63
47.6563	47.9681	57	36
47.6563	47.9681	60	36
47.6563	47.9681	65	41
47.6563	47.9681	78	69
47.8078	47.9681	77	66
47.9606	48.875	46	52
47.9606	48.875	72	74
48.2626	48.5643	58	39
48.2626	48.5643	61	39
48.2626	48.5643	65	39
48.4124	48.875	73	67
48.5643	48.875	58	44
48.5643	48.875	61	44
48.5643	48.875	65	44
48.5643	48.875	77	70
48.7162	48.875	82	64
48.8681	49.7825	49	48
48.8681	49.7825	69	68
49.1702	49.4718	58	39
49.1702	49.4718	61	39
49.1702	49.4718	65	39
49.3199	49.7825	70	60
49.4718	49.7825	58	39
49.4718	49.7825	61	39
49.4718	49.7825	65	39
49.4718	49.7825	72	62
49.6237	49.7825	73	59
49.7756	50.5749	51	45
49.7756	50.5749	66	63
50.0777	50.3793	58	37
50.0777	50.3793	61	37
50.0777	50.3793	63	37
50.2275	50.5749	67	57
50.3793	50.6831	58	37
50.3793	50.6831	61	37
50.3793	50.6831	63	37
50.3793	50.5749	69	59
50.5312	50.6831	70	56
50.6831	51.5984	44	37
50.9875	51.2865	51	27
50.9875	51.2865	56	27
50.9875	51.2865	60	32
50.9875	51.5984	68	59
51.2865	51.5984	51	24
51.2865	51.5984	56	24
51.2865	51.5984	60	27
51.2865	51.5984	63	39
51.5891	52.4875	39	44
51.5891	52.4875	70	59
51.8881	52.1907	51	19
51.8881	52.1907	56	19
51.8881	52.1907	60	22
51.8881	52.4875	63	28
51.8881	52.4875	68	31
52.1907	52.4875	51	26
52.1907	52.4875	56	26
52.1907	52.4875	60	29
52.1907	52.4875	72	59
52.4875	53.4009	46	39
52.7891	53.0878	51	30
52.7891	53.0878	55	30
52.7891	53.0878	61	34
52.7891	53.4009	73	63
53.0878	53.4009	51	22
53.0878	53.4009	55	22
53.0878	53.4009	61	25
53.0878	53.4009	63	34
53.0878	53.4009	67	38
53.3914	54.3069	39	39
53.3914	54.3069	72	62
53.6951	53.9987	51	20
53.6951	53.9987	55	20
53.6951	53.9987	61	23
53.6951	54.3069	63	30
53.6951	54.3069	67	35
53.9987	54.3069	51	27
53.9987	54.3069	55	27
53.9987	54.3069	61	32
53.9987	54.3069	70	51
54.3023	55.2382	44	51
54.6121	54.9147	51	33
54.6121	54.9147	56	33
54.6121	54.9147	60	36
54.6121	55.2382	72	63
54.9147	55.2382	51	27
54.9147	55.2382	56	27
54.9147	55.2382	60	33
54.9147	55.2382	63	38
54.9147	55.2382	68	42
55.2255	56.1429	39	59
55.2255	56.1429	73	68
55.5292	55.8345	54	27
55.5292	55.8345	56	27
55.5292	55.8345	60	32
55.5292	56.1429	63	37
55.5292	56.1429	68	41
55.8345	56.1429	54	34
55.8345	56.1429	56	34
55.8345	56.1429	60	37
55.8345	56.1429	75	71
56.136	57.1443	44	52
56.136	57.1522	77	73
56.3643	56.7041	53	31
56.3863	56.726	56	37
56.4082	56.748	59	44
56.4301	56.7699	68	51
56.452	56.7918	74	56
56.474	57.1522	79	74
56.7041	57.1522	53	33
56.726	57.1522	56	40
56.748	57.1522	59	45
56.7699	57.1522	68	51
56.7918	57.1522	74	56
56.8137	57.1522	80	77
57.1443	58.0878	44	57
57.1443	58.0878	75	81
57.4601	57.7759	51	22
57.4601	57.7759	56	22
57.4601	57.7759	60	25
57.4601	57.7759	63	38
57.4601	57.7759	68	38
57.4601	57.7759	72	44
57.7759	58.0878	51	22
57.7759	58.0878	56	22
57.7759	58.0878	60	25
57.7759	58.0878	63	38
57.7759	58.0878	68	38
57.7759	58.0878	72	43
58.0878	59.0028	45	37
58.3934	58.6799	53	31
58.3934	58.6799	60	31
58.3934	58.6799	63	36
58.3934	58.8353	78	59
58.5366	58.9907	77	56
58.6799	59.0028	53	27
58.6799	59.0028	60	27
58.6799	59.0028	63	30
58.6799	59.0028	75	59
58.8353	59.0028	78	56
58.9907	59.9136	46	37
58.9907	59.9136	77	62
59.2963	59.599	53	31
59.2963	59.599	58	31
59.2963	59.599	61	36
59.4476	59.9136	73	59
59.599	59.9136	53	27
59.599	59.9136	58	27
59.599	59.9136	61	30
59.599	59.9136	70	55
59.7544	59.9136	65	50
59.9098	60.8225	43	37
60.2154	60.506	51	31
60.2154	60.506	58	31
60.2154	60.506	61	36
60.2154	60.6614	76	59
60.3607	60.8168	75	56
60.506	60.8225	51	27
60.506	60.8225	58	27
60.506	60.8225	61	30
60.506	60.8225	73	59
60.6614	60.8225	76	56
60.8168	61.7398	44	37
60.8168	61.7398	75	62
61.1224	61.4251	51	31
61.1224	61.4251	56	31
61.1224	61.4251	60	36
61.2738	61.7398	72	59
61.4251	61.7398	51	27
61.4251	61.7398	56	27
61.4251	61.7398	60	30
61.4251	61.7398	68	57
61.5805	61.7398	63	52
61.7359	62.661	42	37
62.0457	62.3483	54	31
62.0457	62.3483	56	36
62.0457	62.3483	60	35
62.0457	62.3483	63	39
62.0457	62.661	68	59
62.3483	62.661	54	27
62.3483	62.661	56	30
62.3483	62.661	60	35
62.3483	62.661	63	39
62.6591	63.5685	41	44
62.6591	63.5685	67	63
62.9628	63.2654	53	25
62.9628	63.2654	56	28
62.9628	63.2654	60	31
62.9628	63.2654	65	36
63.2654	63.5685	53	29
63.2654	63.5685	56	33
63.2654	63.5685	60	31
63.2654	63.5685	65	36
63.2654	63.5685	68	59
63.5621	64.4864	40	37
63.5621	64.1704	70	68
63.8678	64.1704	52	31
63.8678	64.1704	56	36
63.8678	64.1704	62	31
63.8678	64.1704	68	36
64.0191	64.3258	71	61
64.1704	64.4864	52	27
64.1704	64.4864	56	30
64.1704	64.4864	62	31
64.1704	64.4864	68	36
64.1704	64.4864	70	59
64.3258	64.4864	71	52
64.4812	65.4085	39	37
64.4812	65.4085	67	59
64.791	65.0936	51	29
64.791	65.0936	58	34
64.791	65.0936	61	36
64.791	65.0936	63	40
65.0936	65.4085	51	25
65.0936	65.4085	58	28
65.0936	65.4085	61	35
65.0936	65.4085	63	39
65.4085	66.3289	44	37
65.7182	66.0172	51	27
65.7182	66.0172	56	27
65.7182	66.0172	60	32
65.7182	66.3289	68	59
66.0172	66.3289	51	24
66.0172	66.3289	56	24
66.0172	66.3289	60	27
66.0172	66.3289	63	39
66.3207	67.2275	39	44
66.3207	67.2275	70	59
66.6243	66.9269	51	19
66.6243	66.9269	56	19
66.6243	66.9269	60	22
66.6243	67.2275	63	28
66.6243	67.2275	68	31
66.9269	67.2275	51	26
66.9269	67.2275	56	26
66.9269	67.2275	60	29
66.9269	67.2275	72	56
67.2237	68.1359	46	39
67.5253	67.8241	51	30
67.5253	67.8241	55	30
67.5253	67.8241	61	34
67.5253	68.1359	73	63
67.8241	68.1359	51	22
67.8241	68.1359	55	22
67.8241	68.1359	61	25
67.8241	68.1359	63	34
67.8241	68.1359	67	38
68.1277	69.0437	39	39
68.1277	69.0437	72	62
68.4313	68.7349	51	20
68.4313	68.7349	55	20
68.4313	68.7349	61	23
68.4313	69.0437	63	30
68.4313	69.0437	67	35
68.7349	69.0437	51	27
68.7349	69.0437	55	27
68.7349	69.0437	61	32
68.7349	69.0437	70	51
69.0386	69.9681	44	38
69.3483	69.651	51	30
69.3483	69.651	56	30
69.3483	69.651	60	34
69.3483	69.9681	72	63
69.651	69.9681	51	26
69.651	69.9681	56	26
69.651	69.9681	60	30
69.651	69.9681	63	38
69.651	69.9681	68	42
69.9618	70.8709	39	55
69.9618	70.8709	73	68
70.2654	70.568	54	27
70.2654	70.568	56	27
70.2654	70.568	60	32
70.2654	70.8709	63	37
70.2654	70.8709	68	41
70.568	70.8709	54	34
70.568	70.8709	56	34
70.568	70.8709	60	37
70.568	70.8709	75	71
70.8648	71.8584	44	57
70.8648	71.8629	77	73
71.0895	71.4227	53	29
71.1114	71.4446	56	36
71.1334	71.4665	59	44
71.1553	71.4884	68	48
71.1772	71.5104	74	56
71.1991	71.8629	79	74
71.4227	71.8629	53	33
71.4446	71.8629	56	39
71.4665	71.8629	59	45
71.4884	71.8629	68	48
71.5104	71.8629	74	55
71.5323	71.8629	80	77
71.8584	72.7985	44	63
71.8584	72.7985	75	81
72.1709	72.4834	51	22
72.1709	72.4834	56	22
72.1709	72.4834	60	25
72.1709	72.4834	63	38
72.1709	72.4834	68	38
72.1709	72.4834	72	44
72.4834	72.7985	51	22
72.4834	72.7985	56	22
72.4834	72.7985	60	25
72.4834	72.7985	63	38
72.4834	72.7985	68	38
72.4834	72.7985	72	43
72.7953	73.7005	45	37
73.1009	73.384	53	31
73.1009	73.384	60	31
73.1009	73.384	63	36
73.1009	73.5394	78	59
73.2424	73.6948	77	56
73.384	73.7005	53	27
73.384	73.7005	60	27
73.384	73.7005	63	30
73.384	73.7005	75	59
73.5394	73.7005	78	56
73.6948	74.303	46	37
73.6948	74.303	77	62
74.0004	74.303	53	31
74.0004	74.303	58	31
74.0004	74.303	61	36
74.1517	74.303	73	59
74.303	74.6139	53	27
74.303	74.6139	58	27
74.303	74.6139	61	30
74.303	74.4585	70	55
74.4585	74.6139	65	50
74.6139	75.5217	47	42
74.9195	75.2087	55	33
74.9195	75.2087	62	33
74.9195	75.2087	65	37
74.9195	75.3591	80	66
75.0641	75.5141	79	61
75.2087	75.5217	55	28
75.2087	75.5217	62	28
75.2087	75.5217	65	31
75.2087	75.5217	77	64
75.3591	75.5217	80	60
75.5141	76.1224	48	38
75.5141	76.1224	79	68
75.8198	76.1224	55	33
75.8198	76.1224	60	33
75.8198	76.1224	64	37
75.9711	76.1224	76	61
76.1224	76.4332	55	28
76.1224	76.4332	60	28
76.1224	76.4332	64	31
76.1224	76.2778	72	59
76.2778	76.4332	67	55
76.4332	77.3557	49	45
76.7389	77.0385	58	35
76.7389	77.0385	61	35
76.7389	77.0385	65	39
76.7389	77.1939	82	70
76.8887	77.3494	80	64
77.0385	77.3557	58	29
77.0385	77.3557	61	29
77.0385	77.3557	65	34
77.0385	77.3557	79	69
77.1939	77.3557	82	63
77.3494	77.9576	50	40
77.3494	77.9576	80	72
77.655	77.9576	56	35
77.655	77.9576	59	35
77.655	77.9576	65	39
77.8063	77.9576	77	64
77.9576	78.2685	56	29
77.9576	78.2685	59	29
77.9576	78.2685	65	34
77.9576	78.113	71	62
78.113	78.2685	68	58
78.2685	79.2047	51	36
78.2685	79.2047	77	64
78.5741	78.881	55	30
78.5741	78.881	61	30
78.5741	78.881	63	35
78.7276	79.2047	73	58
78.881	79.2047	55	26
78.881	79.2047	61	26
78.881	79.2047	63	29
78.881	79.2002	70	56
79.0406	79.2047	67	51
79.2002	79.8188	44	31
79.2002	79.8188	70	58
79.5127	79.8188	51	27
79.5127	79.8188	56	27
79.5127	79.8188	60	30
79.6657	79.8188	68	51
79.8188	80.1445	51	23
79.8188	80.1445	56	23
79.8188	79.9788	60	26
79.8188	79.9788	63	49
79.9788	80.1445	60	46
80.1445	81.0589	59	47
80.4527	81.9727	52	39
80.4527	81.9727	68	51
80.6034	80.9065	58	44
80.7541	81.0645	61	47
80.9065	81.0645	58	42
81.0589	81.9671	59	46
81.3567	82.8765	51	47
81.6614	82.8765	66	51
81.9671	82.8714	59	47
82.2656	83.7898	49	45
82.5729	83.7898	64	51
82.8714	83.7828	59	47
83.1774	83.7898	47	48
83.3277	83.6304	63	46
83.478	83.7898	62	49
83.6304	83.7898	63	47
83.7828	84.6935	59	47
84.091	85.6058	52	39
84.091	85.6058	68	51
84.2399	84.5412	58	44
84.3888	84.6997	61	47
84.5412	84.6997	58	42
84.6935	85.6002	59	46
84.9898	86.5081	51	47
85.2946	87.2567	66	51
85.6002	86.5018	59	47
85.898	87.4091	49	45
86.2048	87.4091	76	68
86.5018	87.4091	59	47
86.8038	87.4091	47	48
86.954	87.4091	75	56
87.1043	87.4091	71	59
87.2567	87.4091	66	55
87.4091	88.3184	59	47
87.7173	89.2325	52	39
87.7173	89.2325	68	51
87.8655	88.166	58	44
88.0136	88.324	61	47
88.166	88.324	58	42
88.3184	89.2251	59	46
88.6147	90.1344	51	47
88.9195	90.1344	66	51
89.2251	90.1287	59	47
89.5236	91.0373	49	45
89.8309	91.0373	64	51
90.1287	91.0373	59	47
90.4347	91.0373	47	48
90.5836	90.8849	63	46
90.7325	91.0373	62	49
90.8849	91.0373	63	47
91.0373	91.9473	59	47
91.3455	92.8597	52	39
91.3455	92.8597	68	51
91.494	91.7949	58	44
91.6425	91.9535	61	47
91.7949	91.9535	58	42
91.9473	92.8597	59	46
92.2443	93.1532	51	47
92.5491	93.7634	66	51
92.8547	93.7634	58	47
93.1532	93.7634	51	45
93.4609	94.4325	67	63
93.7571	94.4325	44	51
93.9081	94.4325	75	63
94.0591	94.4325	51	36
94.0591	94.4325	56	36
94.0591	94.4325	59	42
94.0591	94.4325	71	64
94.2093	94.4325	70	61
94.3596	94.6665	68	62
94.6665	95.5762	54	57
94.6665	95.5762	69	73
94.97	95.5762	57	46
94.97	95.5762	61	46
94.97	95.5762	66	52
95.1189	95.5704	73	68
95.2678	95.5762	78	72
95.4181	95.5762	81	68
95.5704	96.5064	52	57
95.5704	96.5064	68	67
95.5704	96.5064	73	64
95.5704	96.5064	80	75
95.8781	96.5064	57	45
95.8781	96.5064	61	51
96.1833	96.5064	66	64
96.1833	96.5064	78	72
96.4885	97.2505	51	57
96.7967	97.4028	59	52
96.7967	97.4028	66	52
96.7967	97.4028	69	52
96.7967	97.4028	71	52
96.9474	97.4028	49	53
97.0981	97.4028	52	58
97.2505	97.4028	51	53
97.4028	97.479	49	56
97.4028	97.479	61	63
97.4028	97.479	66	63
97.4028	97.479	69	63
97.4028	97.479	73	70
97.7076	97.7838	48	52
97.7076	97.7838	63	57
97.7076	97.7838	66	57
97.7076	97.7838	69	57
97.7076	97.7838	75	64
98.0124	98.0886	47	52
98.0124	98.0886	64	55
98.0124	98.0886	68	55
98.0124	98.0886	76	62
98.3171	98.6254	46	52
98.3171	99.0728	66	63
98.6254	99.2333	52	39
98.6254	99.2333	54	39
98.6254	99.2333	61	44
98.7739	99.2333	65	57
98.9224	99.2333	68	64
99.0728	99.2333	66	58
99.225	100.14	45	50
99.225	100.14	75	63
99.5296	100.14	51	34
99.5296	100.14	54	34
99.5296	100.14	59	39
99.5296	100.14	73	61
99.8342	100.14	71	61
100.14	100.895	44	56
100.448	101.06	59	53
100.448	101.06	64	53
100.448	101.06	71	53
100.592	101.06	43	51
100.75	101.06	45	57
100.895	101.06	44	52
101.055	101.974	49	56
101.359	101.974	47	53
101.359	101.974	56	48
101.359	101.974	64	48
101.359	101.974	68	53
101.664	101.974	40	53
101.974	102.886	54	57
101.974	102.886	69	73
102.277	102.886	57	46
102.277	102.886	61	46
102.277	102.886	66	52
102.426	102.879	73	68
102.574	102.886	78	72
102.727	102.886	81	68
102.879	103.797	52	57
102.879	103.797	68	67
102.879	103.797	73	64
102.879	103.797	80	75
103.187	103.797	57	45
103.187	103.797	61	51
103.492	103.797	66	64
103.492	103.797	78	72
103.797	104.559	51	57
104.106	104.712	59	52
104.106	104.712	66	52
104.106	104.712	69	52
104.106	104.712	71	52
104.256	104.712	49	53
104.407	104.712	52	58
104.559	104.712	51	53
104.712	104.788	49	56
104.712	104.788	61	63
104.712	104.788	66	63
104.712	104.788	69	63
104.712	104.788	73	70
105.016	105.093	48	52
105.016	105.093	63	57
105.016	105.093	66	57
105.016	105.093	69	57
105.016	105.093	75	64
105.321	105.397	47	52
105.321	105.397	64	55
105.321	105.397	68	55
105.321	105.397	76	62
105.626	105.934	46	52
105.626	106.383	66	63
105.934	106.542	52	39
105.934	106.542	54	39
105.934	106.542	61	44
106.082	106.542	65	57
106.23	106.542	68	64
106.383	106.542	66	58
106.535	107.451	45	50
106.535	107.451	75	63
106.84	107.451	51	34
106.84	107.451	54	34
106.84	107.451	59	39
106.84	107.451	73	61
107.145	107.451	71	61
107.451	108.206	44	56
107.759	108.365	59	53
107.759	108.365	64	53
107.759	108.365	71	53
107.903	108.365	43	51
108.061	108.365	45	57
108.206	108.365	44	52
108.365	108.442	51	56
108.678	108.757	49	52
108.678	108.757	64	57
108.678	108.757	66	57
108.678	108.757	70	57
108.994	109.076	47	52
108.994	109.076	63	55
108.994	109.076	66	55
108.994	109.076	71	62
109.321	110.231	59	47
109.629	111.142	52	39
109.629	111.142	68	51
109.778	110.079	58	44
109.927	110.239	61	47
110.079	110.239	58	42
110.231	111.136	59	46
110.525	112.047	51	47
110.83	112.047	66	51
111.136	112.039	59	47
111.433	112.836	49	45
111.74	112.836	64	51
112.039	112.945	59	47
112.345	112.945	47	48
112.492	112.793	63	46
112.64	112.836	62	49
112.793	112.945	63	47
112.945	113.856	59	47
113.253	114.768	52	39
113.253	114.768	68	51
113.402	113.703	58	44
113.551	113.864	61	47
113.703	113.864	58	42
113.856	114.763	59	46
114.152	115.675	51	47
114.457	116.422	66	51
114.763	115.667	59	47
115.06	116.574	49	45
115.368	116.574	76	68
115.667	116.574	59	47
115.969	116.574	47	48
116.119	116.574	75	50
116.27	116.574	71	55
116.422	116.574	66	47
116.574	117.484	59	47
116.883	118.4	52	39
116.883	118.4	68	51
117.031	117.332	58	44
117.18	117.492	61	47
117.332	117.492	58	42
117.484	118.392	59	46
117.781	119.306	51	47
118.086	119.306	66	51
118.392	119.298	59	47
118.691	120.205	49	45
118.998	120.205	64	51
119.298	120.205	59	47
119.604	120.205	47	48
119.752	120.052	63	46
119.9	120.205	62	49
120.052	120.205	63	47
120.205	121.115	59	47
120.513	122.028	52	39
120.513	122.028	68	51
120.662	120.963	58	44
120.811	121.123	61	47
120.963	121.123	58	42
121.115	122.028	59	46
121.412	122.321	51	47
121.716	122.934	66	56
122.022	122.934	58	50
122.022	122.934	61	50
122.321	123.232	51	48
122.628	123.834	67	59
122.927	123.834	59	52
122.927	123.834	63	52
123.232	124.138	51	49
123.529	123.834	68	59
123.834	124.747	55	47
123.834	124.747	61	47
123.834	124.741	63	52
124.138	125.038	51	49
124.287	124.588	70	55
124.436	124.747	71	59
124.588	124.747	70	56
124.741	125.648	56	41
124.741	125.648	59	41
124.741	125.648	63	47
124.741	125.648	73	60
125.038	125.648	51	49
125.342	125.648	71	56
125.648	126.562	59	44
125.648	126.562	63	44
125.648	126.562	68	49
125.952	126.562	51	51
126.101	126.403	74	57
126.25	126.555	76	61
126.403	126.562	74	58
126.555	127.472	58	44
126.555	127.472	61	44
126.555	127.472	67	49
126.555	127.472	76	63
126.86	127.472	51	51
127.166	127.472	75	58
127.472	128.386	55	41
127.472	128.386	61	41
127.472	128.378	63	47
127.776	128.68	51	49
127.925	128.225	70	55
128.073	128.386	71	59
128.225	128.386	70	56
128.378	129.29	56	41
128.378	129.29	59	41
128.378	129.29	63	47
128.378	129.29	73	60
128.68	129.29	51	49
128.984	129.29	71	56
129.29	130.208	59	44
129.29	130.208	63	44
129.29	130.208	68	49
129.594	130.208	51	51
129.744	130.047	74	57
129.893	130.201	76	61
130.047	130.208	74	58
130.201	131.133	58	44
130.201	131.133	61	44
130.201	131.133	67	49
130.201	131.133	76	67
130.516	131.141	51	51
130.67	130.979	75	58
130.825	131.141	74	62
130.979	131.141	75	58
131.133	132.09	58	44
131.133	132.09	61	44
131.133	132.09	67	49
131.133	132.09	76	67
131.445	132.09	51	51
131.603	131.923	75	58
131.762	132.09	74	62
131.923	132.09	75	58
132.085	133.026	82	70
132.257	133.026	80	69
132.409	133.026	79	68
132.56	133.019	76	67
132.713	133.026	75	64
132.865	133.026	73	62
133.019	133.938	76	68
133.17	133.938	75	67
133.322	133.938	73	66
133.474	133.938	71	64
133.626	133.938	70	64
133.779	133.938	68	63
133.932	134.877	67	60
134.085	134.877	68	60
134.24	134.877	69	59
134.395	134.877	70	58
134.552	134.877	71	57
134.71	134.877	72	57
134.869	135.2	73	59
135.029	135.2	72	53
135.194	135.894	75	58
135.358	135.894	73	56
135.527	135.894	72	53
135.7	135.894	70	51
135.894	136.806	44	37
136.199	136.498	51	27
136.199	136.498	56	27
136.199	136.498	60	32
136.199	136.806	68	59
136.498	136.806	51	24
136.498	136.806	56	24
136.498	136.806	60	27
136.498	136.806	63	39
136.8	137.699	39	44
136.8	137.699	70	59
137.099	137.402	51	19
137.099	137.402	56	19
137.099	137.402	60	22
137.099	137.699	63	28
137.099	137.699	68	31
137.402	137.699	51	26
137.402	137.699	56	26
137.402	137.699	60	29
137.402	137.699	72	57
137.699	138.612	46	39
138.0	138.299	51	30
138.0	138.299	55	30
138.0	138.299	61	34
138.0	138.612	73	63
138.299	138.612	51	22
138.299	138.612	55	22
138.299	138.612	61	25
138.299	138.612	63	34
138.299	138.612	67	38
138.603	139.513	39	39
138.603	139.513	72	62
138.906	139.21	51	20
138.906	139.21	55	20
138.906	139.21	61	23
138.906	139.513	63	30
138.906	139.513	67	35
139.21	139.513	51	27
139.21	139.513	55	27
139.21	139.513	61	32
139.21	139.513	70	51
139.513	140.444	44	38
139.823	140.126	51	30
139.823	140.126	56	30
139.823	140.126	60	34
139.823	140.444	72	63
140.126	140.444	51	26
140.126	140.444	56	26
140.126	140.444	60	30
140.126	140.444	63	38
140.126	140.444	68	42
140.437	141.34	39	55
140.437	141.34	73	68
140.74	141.043	54	27
140.74	141.043	56	27
140.74	141.043	60	32
140.74	141.34	63	37
140.74	141.34	68	41
141.043	141.34	54	34
141.043	141.34	56	34
141.043	141.34	60	37
141.043	141.34	75	71
141.34	142.354	44	56
141.34	142.358	77	73
141.567	141.905	53	31
141.589	141.927	56	37
141.611	141.949	59	44
141.633	141.971	68	51
141.655	141.993	74	56
141.677	142.358	79	74
141.905	142.358	53	33
141.927	142.358	56	40
141.949	142.358	59	45
141.971	142.358	68	51
141.993	142.358	74	56
142.015	142.358	80	77
142.354	143.309	44	60
142.354	143.309	75	81
142.675	142.997	51	22
142.675	142.997	56	22
142.675	142.997	60	25
142.675	142.997	63	38
142.675	142.997	68	38
142.675	142.997	72	44
142.997	143.309	51	22
142.997	143.309	56	22
142.997	143.309	60	25
142.997	143.309	63	38
142.997	143.309	68	38
142.997	143.309	72	43
143.309	144.23	45	37
143.615	143.909	53	31
143.615	143.909	60	31
143.615	143.909	63	36
143.615	144.065	78	59
143.762	144.22	77	56
143.909	144.23	53	27
143.909	144.23	60	27
143.909	144.23	63	30
143.909	144.23	75	59
144.065	144.23	78	56
144.22	145.139	46	37
144.22	145.139	77	62
144.526	144.829	53	31
144.526	144.829	58	31
144.526	144.829	61	36
144.677	145.139	73	59
144.829	145.139	53	27
144.829	145.139	58	27
144.829	145.139	61	30
144.829	145.139	70	55
144.984	145.139	65	50
145.139	146.059	43	37
145.445	145.741	51	31
145.445	145.741	58	31
145.445	145.741	61	36
145.445	145.897	76	59
145.593	146.052	75	56
145.741	146.059	51	27
145.741	146.059	58	27
145.741	146.059	61	30
145.741	146.059	73	59
145.897	146.059	76	56
146.052	146.971	44	37
146.052	146.971	75	62
146.358	146.66	51	31
146.358	146.66	56	31
146.358	146.66	60	36
146.509	146.971	72	59
146.66	146.971	51	27
146.66	146.971	56	27
146.66	146.971	60	30
146.66	146.971	68	57
146.816	146.971	63	52
146.971	147.901	42	37
147.281	147.584	54	31
147.281	147.584	56	36
147.281	147.584	60	35
147.281	147.584	63	39
147.281	147.901	68	59
147.584	147.901	54	27
147.584	147.901	56	30
147.584	147.901	60	35
147.584	147.901	63	39
147.894	148.805	41	44
147.894	148.805	67	63
148.198	148.501	53	25
148.198	148.501	56	28
148.198	148.501	60	31
148.198	148.501	65	36
148.501	148.805	53	29
148.501	148.805	56	33
148.501	148.805	60	31
148.501	148.805	65	36
148.501	148.805	68	59
148.797	149.734	40	37
148.797	149.409	70	68
149.103	149.409	52	31
149.103	149.409	56	36
149.103	149.409	62	31
149.103	149.409	68	36
149.254	149.567	71	61
149.409	149.734	52	27
149.409	149.734	56	30
149.409	149.734	62	31
149.409	149.734	68	36
149.409	149.734	70	59
149.567	149.734	71	52
149.725	150.652	39	37
149.725	150.652	67	59
150.035	150.338	51	29
150.035	150.338	58	34
150.035	150.338	61	36
150.035	150.338	63	40
150.338	150.652	51	25
150.338	150.652	58	28
150.338	150.652	61	35
150.338	150.652	63	39
150.652	151.572	44	37
150.962	151.261	51	27
150.962	151.261	56	27
150.962	151.261	60	32
150.962	151.572	68	59
151.261	151.572	51	24
151.261	151.572	56	24
151.261	151.572	60	27
151.261	151.572	63	39
151.565	152.468	39	44
151.565	152.468	70	57
151.868	152.171	51	19
151.868	152.171	56	19
151.868	152.171	60	22
151.868	152.468	63	28
151.868	152.468	68	31
152.171	152.468	51	26
152.171	152.468	56	26
152.171	152.468	60	29
152.171	152.468	72	57
152.468	153.386	46	39
152.769	153.068	51	30
152.769	153.068	55	30
152.769	153.068	61	34
152.769	153.386	73	63
153.068	153.386	51	22
153.068	153.386	55	22
153.068	153.386	61	25
153.068	153.386	63	34
153.068	153.386	67	38
153.372	154.283	39	39
153.372	154.283	72	62
153.675	153.979	51	20
153.675	153.979	55	20
153.675	153.979	61	23
153.675	154.283	63	30
153.675	154.283	67	35
153.979	154.283	51	27
153.979	154.283	55	27
153.979	154.283	61	32
153.979	154.283	70	51
154.283	155.212	44	38
154.592	154.895	51	30
154.592	154.895	56	30
154.592	154.895	60	34
154.592	155.212	72	63
154.895	155.212	51	26
154.895	155.212	56	26
154.895	155.212	60	30
154.895	155.212	63	38
154.895	155.212	68	42
155.206	156.115	39	55
155.206	156.115	73	68
155.509	155.812	54	27
155.509	155.812	56	27
155.509	155.812	60	32
155.509	156.115	63	37
155.509	156.115	68	41
155.812	156.115	54	34
155.812	156.115	56	34
155.812	156.115	60	37
155.812	156.115	75	71
156.109	157.099	44	60
156.109	157.105	77	73
156.331	156.663	53	29
156.353	156.685	56	36
156.375	156.707	59	44
156.397	156.729	68	48
156.419	156.751	74	56
156.441	157.105	79	74
156.663	157.105	53	33
156.685	157.105	56	39
156.707	157.105	59	45
156.729	157.105	68	48
156.751	157.105	74	55
156.773	157.105	80	77
157.099	158.047	44	63
157.099	158.047	75	81
157.417	157.735	51	22
157.417	157.735	56	22
157.417	157.735	60	25
157.417	157.735	63	38
157.417	157.735	68	38
157.417	157.735	72	44
157.735	158.047	51	22
157.735	158.047	56	22
157.735	158.047	60	25
157.735	158.047	63	38
157.735	158.047	68	38
157.735	158.047	72	43
158.047	158.958	45	37
158.353	158.639	53	31
158.353	158.639	60	31
158.353	158.639	63	36
158.353	158.795	78	59
158.496	158.95	77	56
158.639	158.958	53	27
158.639	158.958	60	27
158.639	158.958	63	30
158.639	158.958	75	59
158.795	158.958	78	56
158.95	159.558	46	37
158.95	159.558	77	62
159.256	159.558	53	31
159.256	159.558	58	31
159.256	159.558	61	36
159.407	159.558	73	59
159.558	159.869	53	27
159.558	159.869	58	27
159.558	159.869	61	30
159.558	159.714	70	55
159.714	159.869	65	50
159.869	160.776	47	42
160.168	160.458	55	33
160.168	160.458	62	33
160.168	160.458	65	37
160.168	160.614	80	66
160.313	160.769	79	61
160.458	160.776	55	28
160.458	160.776	62	28
160.458	160.776	65	31
160.458	160.776	77	64
160.614	160.776	80	60
160.769	161.377	48	38
160.769	161.377	79	68
161.075	161.377	55	33
161.075	161.377	60	33
161.075	161.377	64	37
161.226	161.377	76	61
161.377	161.688	55	28
161.377	161.688	60	28
161.377	161.688	64	31
161.377	161.533	72	59
161.533	161.688	67	55
161.688	162.585	48	44
161.989	162.283	56	37
161.989	162.283	60	37
161.989	162.283	62	42
161.989	162.592	74	70
162.283	162.592	56	31
162.283	162.592	60	31
162.283	162.592	62	36
162.283	162.592	66	46
162.283	162.592	72	46
162.585	163.486	48	45
162.585	163.486	76	70
162.883	163.187	55	26
162.883	163.187	60	26
162.883	163.187	64	29
162.883	163.486	67	34
162.883	163.486	72	37
163.187	163.486	55	35
163.187	163.486	60	35
163.187	163.486	64	38
163.187	163.486	79	70
163.486	164.381	48	46
163.786	164.079	53	39
163.786	164.079	56	39
163.786	164.079	62	45
163.786	164.389	74	75
164.079	164.389	53	29
164.079	164.389	56	29
164.079	164.389	62	34
164.079	164.389	65	39
164.079	164.389	71	45
164.381	165.282	48	46
164.381	165.282	76	73
164.68	164.978	55	27
164.68	164.978	60	30
164.68	165.282	64	36
164.68	165.282	67	40
164.978	165.282	55	37
164.978	165.282	60	42
164.978	165.282	72	61
165.282	166.18	48	45
165.582	165.877	56	39
165.582	165.877	60	39
165.582	165.877	62	45
165.582	166.188	74	71
165.877	166.188	56	35
165.877	166.188	60	35
165.877	166.188	62	39
165.877	166.188	66	45
165.877	166.188	72	50
166.18	167.081	48	44
166.18	167.081	76	73
166.482	166.779	55	35
166.482	166.779	60	35
166.482	166.779	64	38
166.482	167.081	67	44
166.482	167.081	72	48
166.779	167.081	55	40
166.779	167.081	60	40
166.779	167.081	64	46
166.779	167.081	79	69
167.081	167.996	48	44
167.081	167.688	74	73
167.387	167.688	53	37
167.387	167.688	56	37
167.387	167.688	62	42
167.387	167.688	65	42
167.387	167.688	71	44
167.537	167.842	76	70
167.688	168.004	53	31
167.688	168.004	56	31
167.688	168.004	62	36
167.688	168.004	65	45
167.688	168.004	71	44
167.688	168.004	74	64
167.842	168.004	76	60
167.996	168.609	48	44
167.996	168.609	72	66
168.302	168.609	55	29
168.302	168.609	60	29
168.302	168.609	64	34
168.452	168.609	76	55
168.609	168.772	75	58
168.772	168.934	76	56
168.934	169.556	48	44
168.934	169.556	72	66
169.249	169.556	55	29
169.249	169.556	60	29
169.249	169.556	64	34
169.403	169.556	76	55
169.556	169.713	75	58
169.713	169.87	76	56
169.87	170.492	48	44
169.87	170.483	72	66
170.024	170.329	76	55
170.175	170.492	55	29
170.175	170.492	60	29
170.175	170.492	64	34
170.175	170.492	75	58
170.329	170.492	76	55
170.483	171.089	72	62
170.635	170.937	76	56
170.785	171.096	75	59
170.937	171.096	76	55
171.089	171.698	72	63
171.24	171.541	76	55
171.389	171.698	75	58
171.541	171.698	76	56
171.693	172.596	58	44
171.693	172.29	73	59
171.842	172.142	77	55
171.993	172.29	61	33
171.993	172.29	65	37
171.993	172.589	76	64
172.142	172.439	77	56
172.29	172.596	61	34
172.29	172.596	65	38
172.29	172.596	73	60
172.439	172.596	77	58
172.589	173.488	56	46
172.589	173.182	76	62
172.737	173.036	77	58
172.88	173.488	73	68
172.887	173.182	58	34
172.887	173.182	61	34
172.887	173.182	65	38
173.036	173.332	77	60
173.182	173.488	58	35
173.182	173.488	61	35
173.182	173.488	65	39
173.182	173.488	76	63
173.332	173.488	77	62
173.482	174.385	55	49
173.482	174.385	71	67
173.629	173.931	77	62
173.774	174.385	76	72
173.781	174.081	59	36
173.781	174.081	62	36
173.781	174.081	65	40
173.931	174.385	77	63
174.081	174.385	59	36
174.081	174.385	62	36
174.081	174.385	65	41
174.081	174.385	80	75
174.232	174.385	79	71
174.385	175.299	48	55
174.385	175.299	75	82
174.687	174.989	55	44
174.687	174.989	60	44
174.687	174.989	67	44
174.837	175.299	76	70
174.989	175.299	55	49
174.989	175.299	60	49
174.989	175.299	67	49
174.989	175.299	79	72
175.141	175.299	84	68
175.293	176.205	53	49
175.293	176.205	69	67
175.443	175.745	75	62
175.594	175.894	57	36
175.594	175.894	60	36
175.594	175.894	65	40
175.594	176.205	74	72
175.745	176.205	75	63
175.894	176.205	57	36
175.894	176.205	60	36
175.894	176.205	65	41
175.894	176.205	78	70
176.046	176.205	77	66
176.198	177.11	46	52
176.198	177.11	72	72
176.5	176.802	58	39
176.5	176.802	61	39
176.5	176.802	65	39
176.65	177.11	73	68
176.802	177.11	58	44
176.802	177.11	61	44
176.802	177.11	65	44
176.802	177.11	77	69
176.954	177.11	82	67
177.106	178.023	49	48
177.106	178.023	69	72
177.408	177.71	58	39
177.408	177.71	61	39
177.408	177.71	65	39
177.558	178.023	70	67
177.71	178.023	58	39
177.71	178.023	61	39
177.71	178.023	65	39
177.71	178.023	73	70
177.862	178.023	80	66
178.013	178.952	51	48
178.013	178.952	79	66
178.169	178.635	77	60
178.324	178.635	58	35
178.324	178.635	61	35
178.324	178.635	63	39
178.324	178.791	75	61
178.48	178.952	74	56
178.635	178.946	58	35
178.635	178.952	61	35
178.635	178.952	63	39
178.635	178.952	77	59
178.791	178.952	75	56
178.946	179.862	58	44
178.946	179.551	73	59
179.099	179.401	77	55
179.251	179.551	61	33
179.251	179.551	65	37
179.251	179.855	76	64
179.401	179.703	77	56
179.551	179.862	61	34
179.551	179.862	65	38
179.551	179.862	73	60
179.703	179.862	77	58
179.855	180.761	56	46
179.855	180.457	76	62
180.006	180.309	77	58
180.152	180.761	73	68
180.159	180.457	58	34
180.159	180.457	61	34
180.159	180.457	65	38
180.309	180.606	77	60
180.457	180.761	58	35
180.457	180.761	61	35
180.457	180.761	65	39
180.457	180.761	76	63
180.606	180.761	77	62
180.756	181.667	55	49
180.756	181.667	71	67
180.906	181.208	77	62
181.051	181.667	76	72
181.058	181.358	59	36
181.058	181.358	62	36
181.058	181.358	65	40
181.208	181.667	77	63
181.358	181.667	59	36
181.358	181.667	62	36
181.358	181.667	65	41
181.358	181.667	80	75
181.509	181.667	79	71
181.662	182.575	48	55
181.662	182.575	75	82
181.964	182.266	55	49
181.964	182.266	60	49
181.964	182.266	67	49
182.114	182.575	76	69
182.266	182.575	55	49
182.266	182.575	60	49
182.266	182.575	67	49
182.266	182.575	79	72
182.417	182.575	84	69
182.569	183.481	53	49
182.569	183.481	69	67
182.719	183.022	75	62
182.871	183.171	57	36
182.871	183.171	60	36
182.871	183.171	65	40
182.871	183.481	74	72
183.022	183.481	75	63
183.171	183.481	57	36
183.171	183.481	60	36
183.171	183.481	65	41
183.171	183.481	78	69
183.322	183.481	77	66
183.475	184.388	46	52
183.475	184.388	72	74
183.777	184.079	58	39
183.777	184.079	61	39
183.777	184.079	65	39
183.927	184.388	73	67
184.079	184.388	58	44
184.079	184.388	61	44
184.079	184.388	65	44
184.079	184.388	77	70
184.231	184.388	82	64
184.383	185.296	49	48
184.383	185.296	69	68
184.685	184.986	58	39
184.685	184.986	61	39
184.685	184.986	65	39
184.835	185.296	70	60
184.986	185.296	58	39
184.986	185.296	61	39
184.986	185.296	65	39
184.986	185.296	72	62
185.138	185.296	73	59
185.29	186.198	51	45
185.29	186.198	66	63
185.592	185.894	58	37
185.592	185.894	61	37
185.592	185.894	63	37
185.742	186.198	67	57
185.894	186.198	58	37
185.894	186.198	61	37
185.894	186.198	63	37
185.894	186.198	69	59
186.046	186.198	70	56
186.198	187.111	44	37
186.502	186.801	51	31
186.502	186.801	56	31
186.502	186.801	60	36
186.502	187.111	68	59
186.801	187.111	51	27
186.801	187.111	56	27
186.801	187.111	60	30
186.801	187.111	63	39
187.104	188.002	39	44
187.104	188.002	70	59
187.403	187.705	51	22
187.403	187.705	56	22
187.403	187.705	60	25
187.403	188.002	63	28
187.403	188.002	68	31
187.705	188.002	51	29
187.705	188.002	56	29
187.705	188.002	60	33
187.705	188.002	72	59
188.002	188.914	46	39
188.304	188.602	51	34
188.304	188.602	55	34
188.304	188.602	61	38
188.304	188.914	73	63
188.602	188.914	51	25
188.602	188.914	55	25
188.602	188.914	61	28
188.602	188.914	63	34
188.602	188.914	67	38
188.906	189.817	39	39
188.906	189.817	72	62
189.21	189.513	51	23
189.21	189.513	55	23
189.21	189.513	61	26
189.21	189.817	63	30
189.21	189.817	67	35
189.513	189.817	51	31
189.513	189.817	55	31
189.513	189.817	61	36
189.513	189.817	70	51
189.817	190.747	44	38
190.127	190.429	51	34
190.127	190.429	56	34
190.127	190.429	60	38
190.127	190.747	72	63
190.429	190.747	51	29
190.429	190.747	56	29
190.429	190.747	60	34
190.429	190.747	63	38
190.429	190.747	68	42
190.74	191.67	39	55
190.74	191.67	73	68
191.049	191.356	54	31
191.049	191.356	56	31
191.049	191.356	60	36
191.049	191.67	63	37
191.049	191.67	68	41
191.356	191.67	54	38
191.356	191.67	56	38
191.356	191.67	60	42
191.356	191.67	75	71
191.67	192.682	44	55
191.67	192.682	77	73
191.897	192.238	53	31
191.919	192.26	56	37
191.941	192.282	59	44
191.963	192.304	68	51
191.985	192.325	74	56
192.007	192.682	79	74
192.238	192.682	53	33
192.26	192.682	56	40
192.282	192.682	59	45
192.304	192.682	68	51
192.325	192.682	74	56
192.347	192.682	80	77
192.682	193.637	44	60
192.682	193.637	75	81
193.003	193.325	51	27
193.003	193.325	56	27
193.003	193.325	60	30
193.003	193.325	63	41
193.003	193.325	68	41
193.003	193.325	72	47
193.325	193.637	51	27
193.325	193.637	56	27
193.325	193.637	60	30
193.325	193.637	63	41
193.325	193.637	68	41
193.325	193.637	72	46
193.637	194.54	45	37
193.943	194.226	53	31
193.943	194.226	60	31
193.943	194.226	63	36
193.943	194.376	78	59
194.085	194.532	77	56
194.226	194.54	53	27
194.226	194.54	60	27
194.226	194.54	63	30
194.226	194.54	75	59
194.376	194.54	78	56
194.532	195.141	46	37
194.532	195.141	77	62
194.838	195.141	53	31
194.838	195.141	58	31
194.838	195.141	61	36
194.989	195.141	73	59
195.141	195.451	53	27
195.141	195.451	58	27
195.141	195.451	61	30
195.141	195.296	70	55
195.296	195.451	65	50
195.451	196.37	43	37
195.757	196.052	51	31
195.757	196.052	58	31
195.757	196.052	61	36
195.757	196.207	76	59
195.904	196.363	75	56
196.052	196.37	51	27
196.052	196.37	58	27
196.052	196.37	61	30
196.052	196.37	73	59
196.207	196.37	76	56
196.363	196.971	44	37
196.363	196.971	75	62
196.668	196.971	51	31
196.668	196.971	56	31
196.668	196.971	60	36
196.82	196.971	72	59
196.971	197.282	51	27
196.971	197.282	56	27
196.971	197.282	60	30
196.971	197.126	68	57
197.126	197.282	63	52
197.282	198.205	42	37
197.592	197.894	54	31
197.592	197.894	56	36
197.592	197.894	60	35
197.592	197.894	63	39
197.592	198.205	68	59
197.894	198.205	54	27
197.894	198.205	56	30
197.894	198.205	60	35
197.894	198.205	63	39
198.205	199.118	41	44
198.205	199.118	67	63
198.509	198.811	53	25
198.509	198.811	56	28
198.509	198.811	60	31
198.509	198.811	65	36
198.811	199.118	53	29
198.811	199.118	56	33
198.811	199.118	60	31
198.811	199.118	65	36
198.811	199.118	68	59
199.108	200.033	40	37
199.108	199.716	70	68
199.414	199.716	52	31
199.414	199.716	56	36
199.414	199.716	62	31
199.414	199.716	68	36
199.565	199.872	71	61
199.716	200.033	52	27
199.716	200.033	56	30
199.716	200.033	62	31
199.716	200.033	68	36
199.716	200.033	70	59
199.872	200.033	71	52
200.027	200.981	39	37
200.027	200.981	67	59
200.344	200.655	51	29
200.344	200.655	58	34
200.344	200.655	61	36
200.344	200.655	63	40
200.655	200.981	51	25
200.655	200.981	58	28
200.655	200.981	61	35
200.655	200.981	63	39
200.981	201.903	44	37
201.29	201.589	51	27
201.29	201.589	56	27
201.29	201.589	60	32
201.29	201.903	68	59
201.589	201.903	51	24
201.589	201.903	56	24
201.589	201.903	60	27
201.589	201.903	63	39
201.893	202.796	39	44
201.893	202.796	70	59
202.196	202.499	51	19
202.196	202.499	56	19
202.196	202.499	60	22
202.196	202.796	63	28
202.196	202.796	68	31
202.499	202.796	51	26
202.499	202.796	56	26
202.499	202.796	60	29
202.499	202.796	72	59
202.796	203.707	46	39
203.098	203.396	51	30
203.098	203.396	55	30
203.098	203.396	61	34
203.098	203.707	73	63
203.396	203.707	51	22
203.396	203.707	55	22
203.396	203.707	61	25
203.396	203.707	63	34
203.396	203.707	67	38
203.7	204.615	39	39
203.7	204.615	72	62
204.003	204.307	51	20
204.003	204.307	55	20
204.003	204.307	61	23
204.003	204.615	63	30
204.003	204.615	67	35
204.307	204.615	51	27
204.307	204.615	55	27
204.307	204.615	61	32
204.307	204.615	70	51
204.611	205.539	44	38
204.92	205.223	51	30
204.92	205.223	56	30
204.92	205.223	60	34
204.92	205.539	72	63
205.223	205.539	51	26
205.223	205.539	56	26
205.223	205.539	60	30
205.223	205.539	63	38
205.223	205.539	68	42
205.534	206.444	39	59
205.534	206.444	73	68
205.838	206.14	54	27
205.838	206.14	56	27
205.838	206.14	60	32
205.838	206.444	63	37
205.838	206.444	68	41
206.14	206.444	54	34
206.14	206.444	56	34
206.14	206.444	60	37
206.14	206.444	75	71
206.437	207.435	44	60
206.437	207.442	77	73
206.659	206.992	53	29
206.681	207.014	56	36
206.703	207.036	59	44
206.725	207.058	68	48
206.747	207.08	74	56
206.769	207.442	79	74
206.992	207.442	53	33
207.014	207.442	56	39
207.036	207.442	59	45
207.058	207.442	68	48
207.08	207.442	74	55
207.102	207.442	80	77
207.435	208.396	44	68
207.435	208.396	75	81
207.76	208.084	51	22
207.76	208.084	56	22
207.76	208.084	60	25
207.76	208.084	63	38
207.76	208.084	68	38
207.76	208.084	72	44
208.084	208.396	51	22
208.084	208.396	56	22
208.084	208.396	60	25
208.084	208.396	63	38
208.084	208.396	68	38
208.084	208.396	72	43
208.396	209.309	45	37
208.701	208.99	53	31
208.701	208.99	60	31
208.701	208.99	63	36
208.701	209.145	78	59
208.846	209.301	77	56
208.99	209.309	53	27
208.99	209.309	60	27
208.99	209.309	63	30
208.99	209.309	75	59
209.145	209.309	78	56
209.301	209.909	46	37
209.301	209.909	77	62
209.606	209.909	53	31
209.606	209.909	58	31
209.606	209.909	61	36
209.758	209.909	73	59
209.909	210.22	53	27
209.909	210.22	58	27
209.909	210.22	61	30
209.909	210.064	70	55
210.064	210.22	65	50
210.22	211.141	47	42
210.525	210.825	55	33
210.525	210.825	62	33
210.525	210.825	65	37
210.525	210.981	80	66
210.675	211.136	79	61
210.825	211.141	55	28
210.825	211.141	62	28
210.825	211.141	65	31
210.825	211.141	77	64
210.981	211.141	80	60
211.136	211.744	48	38
211.136	211.744	79	68
211.442	211.744	55	33
211.442	211.744	60	33
211.442	211.744	64	37
211.593	211.744	76	61
211.744	212.055	55	28
211.744	212.055	60	28
211.744	212.055	64	31
211.744	211.9	72	59
211.9	212.055	67	55
212.055	212.976	49	45
212.361	212.66	58	35
212.361	212.66	61	35
212.361	212.66	65	39
212.361	212.816	82	70
212.511	212.971	80	64
212.66	212.976	58	29
212.66	212.976	61	29
212.66	212.976	65	34
212.66	212.976	79	69
212.816	212.976	82	63
212.971	213.579	50	40
212.971	213.579	80	72
213.277	213.579	56	35
213.277	213.579	59	35
213.277	213.579	65	39
213.428	213.579	77	64
213.579	213.89	56	29
213.579	213.89	59	29
213.579	213.89	65	34
213.579	213.735	71	62
213.735	213.89	68	58
213.89	214.499	51	36
213.89	214.499	77	64
214.196	214.499	55	30
214.196	214.499	61	30
214.196	214.499	63	35
214.347	214.499	73	58
214.499	214.811	55	26
214.499	214.811	61	26
214.499	214.811	63	29
214.499	214.655	70	56
214.655	214.811	67	51
214.811	215.423	44	31
214.811	215.423	70	58
215.119	215.423	51	27
215.119	215.423	56	27
215.119	215.423	60	30
215.271	215.423	68	51
215.423	215.741	51	23
215.423	215.741	56	23
215.423	215.582	60	26
215.423	215.582	63	49
215.582	215.741	60	46
215.741	216.622	44	37
216.038	216.328	50	31
216.038	216.328	53	31
216.038	216.328	56	36
216.038	216.328	59	39
216.038	216.328	62	39
216.038	216.627	65	59
216.328	216.627	50	27
216.328	216.627	53	27
216.328	216.627	56	30
216.328	216.627	59	39
216.328	216.627	62	39
216.622	217.487	44	44
216.622	217.487	67	61
216.911	217.202	50	22
216.911	217.202	53	22
216.911	217.202	56	25
216.911	217.202	59	39
216.911	217.202	62	39
217.202	217.487	50	29
217.202	217.487	53	29
217.202	217.487	56	33
217.202	217.487	59	39
217.202	217.487	62	39
217.202	217.487	68	59
217.487	217.782	39	53
217.487	217.782	51	53
217.487	217.782	60	42
217.487	217.782	63	42
217.487	217.782	67	48
217.771	218.339	41	58
217.771	218.339	53	58
218.048	218.339	60	47
218.048	218.339	63	47
218.048	218.339	67	52
218.331	219.171	43	62
218.331	219.171	55	62
218.607	219.171	60	46
218.607	219.171	63	51
218.888	219.171	44	57
218.888	219.171	56	57
219.171	219.998	50	63
219.449	219.72	52	37
219.449	219.72	56	42
219.449	219.72	59	42
219.449	219.72	64	42
219.449	220.006	68	64
219.72	220.006	52	31
219.72	220.006	56	36
219.72	220.006	59	42
219.72	220.006	64	42
219.998	220.828	50	48
219.998	220.828	70	67
220.27	220.547	52	24
220.27	220.547	56	27
220.27	220.547	59	42
220.27	220.547	64	42
220.547	220.828	52	31
220.547	220.828	56	36
220.547	220.828	59	42
220.547	220.828	64	42
220.547	220.828	71	64
220.82	221.105	39	58
220.82	221.105	51	58
220.82	221.105	60	46
220.82	221.105	63	46
220.82	221.105	72	52
221.094	221.649	41	63
221.094	221.649	53	63
221.364	221.649	60	52
221.364	221.649	63	52
221.364	221.649	72	58
221.639	222.456	43	69
221.639	222.456	55	69
221.91	222.456	60	51
221.91	222.456	63	52
221.91	222.456	72	57
222.186	222.456	44	63
222.186	222.456	56	63
222.456	223.272	56	63
222.729	222.998	62	41
222.729	222.998	65	41
222.729	222.998	68	47
222.729	222.998	71	48
222.729	222.998	74	48
222.729	223.282	77	72
222.998	223.282	62	36
222.998	223.282	65	36
222.998	223.282	68	40
222.998	223.282	71	48
222.998	223.282	74	48
223.272	224.089	56	55
223.272	224.089	79	76
223.542	223.817	62	27
223.542	223.817	65	27
223.542	223.817	68	30
223.542	223.817	71	48
223.542	223.817	74	48
223.817	224.089	62	36
223.817	224.089	65	36
223.817	224.089	68	40
223.817	224.089	71	48
223.817	224.089	74	48
223.817	224.089	80	73
224.089	224.373	51	68
224.089	224.373	63	68
224.089	224.373	72	53
224.089	224.373	75	53
224.089	224.373	79	60
224.361	224.899	53	73
224.361	224.899	65	73
224.628	224.899	72	59
224.628	224.899	75	59
224.628	224.899	79	66
224.899	225.714	55	79
224.899	225.714	67	79
225.166	225.714	72	59
225.166	225.714	75	65
225.44	225.714	56	74
225.44	225.714	68	74
225.714	226.519	62	71
225.984	226.25	64	43
225.984	226.25	68	50
225.984	226.25	71	54
225.984	226.25	76	54
225.984	226.527	80	83
226.25	226.527	64	38
226.25	226.527	68	42
226.25	226.527	71	54
226.25	226.527	76	54
226.519	227.325	62	61
226.519	227.325	82	87
226.786	227.056	64	30
226.786	227.056	68	36
226.786	227.056	71	55
226.786	227.056	76	55
227.056	227.325	64	40
227.056	227.325	68	46
227.056	227.325	71	56
227.056	227.325	76	56
227.056	227.325	83	86
227.325	227.61	51	76
227.325	227.61	63	76
227.325	227.61	72	61
227.325	227.61	75	61
227.325	227.61	84	68
227.599	228.131	53	84
227.599	228.131	65	84
227.861	228.131	72	67
227.861	228.131	75	67
227.861	228.131	84	75
228.131	228.936	55	91
228.131	228.936	67	91
228.393	228.936	72	67
228.393	228.936	75	68
228.393	228.936	84	75
228.666	228.936	56	84
228.666	228.936	68	84
228.936	229.794	56	89
229.226	229.794	62	64
229.226	229.794	64	64
229.226	229.79	68	64
229.226	229.794	71	72
229.226	229.794	76	76
229.226	229.794	80	76
229.226	229.794	83	76
229.226	229.794	88	87
229.79	230.391	63	73
229.79	230.391	68	73
229.79	230.338	72	73
229.79	230.391	87	82
229.927	230.391	84	76
230.063	230.391	80	79
230.2	230.391	75	77
230.338	230.408	72	80
230.617	231.475	44	80
230.907	231.475	50	57
230.907	231.475	52	57
230.907	231.47	56	57
230.907	231.475	59	65
230.907	231.475	64	69
230.907	231.475	68	69
230.907	231.475	71	69
230.907	231.475	76	77
231.47	232.093	51	70
231.47	232.093	56	70
231.47	232.037	60	70
231.47	232.093	75	78
231.612	232.093	72	72
231.754	232.093	68	75
231.896	232.093	63	72
232.037	232.11	60	76
232.327	232.96	44	65
232.327	232.96	75	74
232.469	232.96	72	67
232.612	232.96	51	51
232.612	232.96	56	51
232.612	232.904	60	51
232.612	232.96	68	71
232.758	232.96	63	67
232.904	232.977	60	71
233.196	233.836	44	58
233.196	233.836	75	65
233.34	233.836	72	60
233.485	233.836	51	45
233.485	233.836	56	45
233.485	233.78	60	45
233.485	233.836	68	62
233.632	233.836	63	59
233.78	233.853	60	62
234.074	234.715	44	53
234.074	234.715	75	61
234.219	234.715	72	56
234.364	234.715	51	41
234.364	234.715	56	41
234.364	234.659	60	41
234.364	234.715	68	58
234.511	234.715	63	55
234.659	234.732	60	58
234.953	235.598	44	49
234.953	235.598	75	56
235.1	235.598	72	51
235.247	235.598	51	39
235.247	235.598	56	39
235.247	235.542	60	39
235.247	235.598	68	53
235.394	235.598	63	51
235.542	235.615	60	55
235.836	237.643	44	49
235.987	236.138	60	46
236.138	237.643	51	39
236.138	237.041	56	39
236.138	237.041	60	39
236.138	237.041	63	48
236.287	237.191	68	49
236.437	237.041	72	51
236.587	236.89	75	52
236.738	237.643	77	55
236.89	237.492	75	52
237.041	237.342	56	35
237.041	237.342	60	35
237.041	237.342	63	35
237.041	237.342	72	51
237.191	237.643	68	49
237.342	237.643	56	35
237.342	237.643	60	35
237.342	237.643	63	35
237.342	237.643	72	51
237.492	237.643	75	55
237.643	237.719	56	37
237.643	237.719	60	37
237.643	237.719	63	37
237.643	237.719	80	58
237.947	238.024	68	35
237.947	238.024	72	35
237.947	238.024	75	35
237.947	238.024	80	55
237.947	238.024	84	55
238.256	238.334	68	35
238.256	238.334	72	35
238.256	238.334	75	35
238.256	238.334	80	55
238.256	238.334	84	55
238.256	238.334	87	55
238.57	238.648	68	39
238.57	238.648	72	39
238.57	238.648	75	39
238.57	238.648	80	57
238.57	238.648	84	57
238.57	238.648	92	57
