OnsetTime	OffsetTime	MidiPitch	Velocity
0.500004	1.42165	57	45
0.500004	1.42165	64	38
0.500004	1.42165	73	50
1.20855	1.44075	59	35
1.20855	1.44075	74	43
1.42165	1.94861	57	35
1.42165	1.9309	64	29
1.42165	1.94861	73	43
1.9309	2.87564	61	39
1.9309	2.87564	64	29
1.9309	2.87564	76	48
2.87564	3.41279	61	32
2.87564	3.41279	64	23
2.87564	3.41279	76	42
3.41279	4.31788	56	45
3.41279	4.31788	64	38
3.41279	4.31788	71	50
4.10477	4.332	57	38
4.10477	4.332	73	45
4.31788	4.82477	56	38
4.31788	4.80198	64	32
4.31788	4.82477	71	45
4.80198	5.71383	59	38
4.80198	5.71383	64	36
4.80198	5.71383	74	49
5.71383	6.22308	59	31
5.71383	6.22308	64	28
5.71383	6.22308	74	45
6.22308	7.14573	54	43
6.22308	7.14573	64	36
6.22308	7.14573	69	53
7.14573	7.64905	54	38
7.14573	7.62983	64	32
7.14573	7.64905	69	46
7.62983	8.55248	56	46
7.62983	8.55248	64	39
7.62983	8.55248	71	50
8.55248	9.06244	56	41
8.55248	9.05525	64	34
8.55248	9.06244	71	46
9.05525	9.93192	57	45
9.05525	9.93192	64	38
9.05525	9.93192	73	53
9.91707	10.4151	50	38
9.91707	10.4151	71	35
9.91707	10.4151	76	49
10.1399	10.4151	74	47
10.3912	11.8706	52	45
10.3912	11.8706	69	45
10.3912	11.8706	73	53
11.3477	11.8706	68	41
11.3477	11.8706	71	49
11.8706	12.7922	57	45
11.8706	12.7922	64	38
11.8706	12.7922	73	50
12.5791	12.8113	59	35
12.5791	12.8113	74	43
12.7922	13.3231	57	35
12.7922	13.3014	64	29
12.7922	13.3231	73	43
13.3014	14.2462	61	39
13.3014	14.2462	64	29
13.3014	14.2462	76	48
14.2462	14.791	61	32
14.2462	14.7833	64	23
14.2462	14.791	76	42
14.7833	15.6884	56	45
14.7833	15.6884	64	38
14.7833	15.6884	71	50
15.4753	15.7025	57	38
15.4753	15.7025	73	45
15.6884	16.1953	56	38
15.6884	16.1725	64	32
15.6884	16.1953	71	45
16.1725	17.0844	59	40
16.1725	17.0844	64	36
16.1725	17.0844	74	49
17.0844	17.597	59	31
17.0844	17.5871	64	28
17.0844	17.597	74	45
17.5871	19.0459	54	45
17.5871	18.5319	64	37
17.5871	19.0459	69	55
18.5319	19.0459	56	49
18.5319	19.0282	64	49
18.5319	19.0459	71	63
19.0282	19.9937	57	55
19.0282	19.9937	64	55
19.0282	19.9937	73	68
19.9729	20.5407	50	55
19.9729	20.5407	66	56
19.9729	20.5407	71	56
19.9729	20.5407	74	67
20.5252	21.6135	52	46
20.5252	21.5849	64	47
20.5252	21.6135	69	47
20.5252	21.6135	73	56
21.5849	22.233	40	36
21.5849	22.233	62	34
21.5849	22.2073	64	34
21.5849	22.233	68	34
21.5849	22.233	71	40
22.2073	23.3276	45	34
22.2073	23.3276	61	32
22.2073	23.3276	64	32
22.2073	23.3276	69	38
23.8877	24.8093	57	38
23.8877	24.8093	64	32
23.8877	24.8093	73	42
24.5962	24.8284	59	29
24.5962	24.8284	74	36
24.8093	25.3462	57	29
24.8093	25.3186	64	24
24.8093	25.3462	73	36
25.3186	26.2633	61	33
25.3186	26.2633	64	29
25.3186	26.2633	76	40
26.2633	26.8082	61	26
26.2633	26.8005	64	23
26.2633	26.8082	76	35
26.8005	27.7056	56	38
26.8005	27.7056	64	32
26.8005	27.7056	71	42
27.4925	27.7197	57	32
27.4925	27.7197	73	38
27.7056	28.2125	56	32
27.7056	28.1897	64	27
27.7056	28.2125	71	38
28.1897	29.1015	59	32
28.1897	29.1015	64	30
28.1897	29.1015	74	41
29.1015	29.6108	59	26
29.1015	29.6108	64	23
29.1015	29.6108	74	38
29.6108	30.5334	54	36
29.6108	30.5334	64	30
29.6108	30.5334	69	45
30.5334	31.0367	54	32
30.5334	31.0175	64	27
30.5334	31.0367	69	39
31.0175	31.9402	56	39
31.0175	31.9402	64	33
31.0175	31.9402	71	42
31.9402	32.4501	56	34
31.9402	32.4429	64	28
31.9402	32.4501	71	39
32.4429	33.3196	57	38
32.4429	33.3196	64	32
32.4429	33.3196	73	45
33.3048	33.8626	50	32
33.3048	33.8626	71	29
33.3048	33.8626	76	41
33.5276	33.8626	74	39
33.7789	35.2642	52	38
33.7789	35.2642	69	38
33.7789	35.2583	73	45
34.7354	35.2642	68	34
34.7354	35.2642	71	41
35.2583	36.1799	57	45
35.2583	36.1799	64	38
35.2583	36.1799	73	50
35.9668	36.199	59	35
35.9668	36.199	74	43
36.1799	36.7088	57	35
36.1799	36.6891	64	29
36.1799	36.7088	73	43
36.6891	37.6339	61	39
36.6891	37.6339	64	35
36.6891	37.6339	76	48
37.6339	38.1807	61	32
37.6339	38.171	64	28
37.6339	38.1807	76	42
38.171	39.0761	56	45
38.171	39.0761	64	38
38.171	39.0761	71	50
38.863	39.0902	57	38
38.863	39.0902	73	45
39.0761	39.583	56	38
39.0761	39.5602	64	32
39.0761	39.583	71	45
39.5602	40.4721	59	40
39.5602	40.4721	64	36
39.5602	40.4721	74	49
40.4721	40.9807	59	31
40.4721	40.9748	64	28
40.4721	40.9807	74	45
40.9748	42.4376	54	45
40.9748	41.9196	64	37
40.9748	42.4376	69	55
41.9196	42.4376	56	49
41.9196	42.4159	64	49
41.9196	42.4376	71	63
42.4159	43.386	57	55
42.4159	43.386	64	55
42.4159	43.386	73	68
43.3607	43.9284	50	55
43.3607	43.9284	66	56
43.3607	43.9284	71	56
43.3607	43.9284	74	67
43.9129	45.0012	52	46
43.9129	44.9726	64	47
43.9129	45.0012	69	47
43.9129	45.0012	73	56
44.9726	45.6207	40	36
44.9726	45.6207	62	34
44.9726	45.595	64	34
44.9726	45.6207	68	34
44.9726	45.6207	71	40
45.595	46.7153	45	34
45.595	46.7153	61	32
45.595	46.7153	64	32
45.595	46.7153	69	38
47.2754	48.6443	57	39
47.2754	48.1602	76	50
47.7232	48.666	61	33
47.9471	48.6443	78	45
48.1602	48.666	64	34
48.1602	48.666	76	46
48.6443	50.0166	57	37
48.6443	49.5138	78	53
49.079	50.0166	62	32
49.5138	50.0166	66	32
49.5138	49.8909	78	42
49.8909	50.0166	78	49
49.9537	50.0166	80	53
50.0166	50.9256	57	39
50.0166	50.9256	81	57
50.4711	50.9256	62	33
50.6984	50.9256	80	47
50.9115	51.4182	66	34
50.9115	51.3956	78	50
51.3956	52.5795	57	37
51.3956	52.5795	78	53
51.8463	52.5795	61	32
51.8463	52.3131	76	45
52.3131	52.5795	64	32
52.3131	52.5795	76	42
52.8049	53.673	57	51
52.8049	53.673	61	51
52.8049	53.5728	76	59
53.2275	53.673	73	50
53.673	53.7911	69	49
54.1454	55.0135	56	43
54.1454	55.0135	62	43
54.1454	54.9801	76	61
54.5679	55.0135	74	53
55.0135	55.1316	71	48
55.4859	56.6244	57	50
55.4859	56.6244	61	50
55.4859	56.6244	76	62
55.9026	56.6244	73	51
56.3481	56.8121	54	48
56.3481	56.8121	63	48
56.3481	56.8121	69	45
56.8543	58.2703	52	40
56.8543	58.2703	64	40
56.8543	57.8805	69	44
56.8543	57.8805	73	44
57.7661	58.2703	68	37
57.7661	58.2703	71	37
58.3263	59.2479	57	45
58.3263	59.2479	64	38
58.3263	59.2479	73	50
59.0348	59.267	59	35
59.0348	59.267	74	43
59.2479	59.7788	57	35
59.2479	59.7572	64	29
59.2479	59.7788	73	43
59.7572	60.7019	61	39
59.7572	60.7019	64	35
59.7572	60.7019	76	48
60.7019	61.2448	61	32
60.7019	61.239	64	28
60.7019	61.2448	76	42
61.239	62.1441	56	45
61.239	62.1441	64	38
61.239	62.1441	71	50
61.931	62.1582	57	38
61.931	62.1582	73	45
62.1441	62.651	56	38
62.1441	62.6282	64	32
62.1441	62.651	71	45
62.6282	63.5401	59	40
62.6282	63.5401	64	36
62.6282	63.5401	74	49
63.5401	64.0429	59	31
63.5401	64.0429	64	28
63.5401	64.0429	74	45
64.0429	65.5391	54	45
64.0429	64.9876	64	37
64.0429	65.5391	69	55
64.9876	65.5391	56	49
64.9876	65.5174	64	49
64.9876	65.5391	71	63
65.5174	66.4883	57	55
65.5174	66.4883	64	55
65.5174	66.4883	73	68
66.4622	66.9989	50	55
66.4622	66.9989	66	56
66.4622	66.9989	71	56
66.4622	66.9989	74	67
66.985	67.9675	52	46
66.985	67.9414	64	47
66.985	67.9675	69	47
66.985	67.9675	73	56
67.9414	68.5315	40	45
67.9414	68.5097	64	42
67.9414	68.5097	68	42
67.9414	68.5097	71	50
68.5097	70.0782	45	42
68.5097	70.0782	64	40
68.5097	69.5554	68	40
68.5097	69.5554	71	47
69.5554	70.0782	69	47
69.5554	70.0782	73	47
70.0782	71.1023	45	48
70.0782	71.1023	57	57
70.0782	71.0709	64	63
70.0782	71.1023	69	63
70.0782	71.1023	73	75
71.0709	71.6308	47	53
71.0709	71.6308	59	63
71.0709	71.6081	64	63
71.0709	71.6308	68	63
71.0709	71.6308	74	75
71.6081	72.6544	49	57
71.6081	72.6544	61	69
71.6081	72.6544	64	68
71.6081	72.6544	69	68
71.6081	72.6544	76	80
72.6257	73.178	50	32
72.6257	73.178	62	38
72.6257	73.178	78	56
72.8906	73.178	80	44
73.0231	73.178	81	46
73.1556	74.2299	52	34
73.1556	74.2645	61	41
73.1556	74.2645	69	53
74.2299	74.8488	52	34
74.2299	74.8488	62	40
74.2299	74.8488	68	34
74.2299	74.527	73	41
74.527	74.8488	71	39
74.8241	76.0124	57	34
74.8241	76.0124	61	40
74.8241	76.0124	69	39
76.6066	77.9754	57	39
76.6066	77.4913	76	50
77.0543	77.9935	61	33
77.2782	77.9754	78	45
77.4913	77.9935	64	34
77.4913	77.9935	76	46
77.9754	79.3478	57	37
77.9754	78.845	78	53
78.4102	79.3478	62	32
78.845	79.3478	66	32
78.845	79.2221	78	42
79.2221	79.3478	78	49
79.2849	79.3478	80	53
79.3478	80.2568	57	39
79.3478	80.2568	81	57
79.8023	80.2568	62	33
80.0296	80.2568	80	47
80.2427	80.7531	66	34
80.2427	80.7268	78	50
80.7268	81.9201	57	37
80.7268	81.9201	78	53
81.1775	81.9201	61	32
81.1775	81.6443	76	45
81.6443	81.9201	64	32
81.6443	81.9201	76	42
82.1535	83.0216	57	51
82.1535	83.0216	61	51
82.1535	82.9214	76	59
82.5761	83.0216	73	50
83.0216	83.1397	69	49
83.494	84.3621	56	43
83.494	84.3621	62	43
83.494	84.3287	76	61
83.9165	84.3621	74	53
84.3621	84.4802	71	48
84.8345	85.9735	57	50
84.8345	85.9735	61	50
84.8345	85.9735	76	62
85.257	85.9735	73	51
85.7026	86.1576	54	48
85.7026	86.1576	63	48
85.7026	86.1576	69	45
86.1989	87.6149	52	40
86.1989	87.6149	64	40
86.1989	87.2252	69	44
86.1989	87.2252	73	44
87.1108	87.6149	68	37
87.1108	87.6149	71	37
87.6709	88.5926	57	38
87.6709	88.5926	64	32
87.6709	88.5926	73	42
88.3795	88.6117	59	29
88.3795	88.6117	74	36
88.5926	89.1215	57	29
88.5926	89.1018	64	24
88.5926	89.1215	73	36
89.1018	90.0466	61	33
89.1018	90.0466	64	29
89.1018	90.0466	76	40
90.0466	90.5914	61	26
90.0466	90.5837	64	23
90.0466	90.5914	76	35
90.5837	91.4888	56	38
90.5837	91.4888	64	32
90.5837	91.4888	71	42
91.2757	91.5029	57	32
91.2757	91.5029	73	38
91.4888	91.9957	56	32
91.4888	91.9729	64	27
91.4888	91.9957	71	38
91.9729	92.8848	59	34
91.9729	92.8848	64	30
91.9729	92.8848	74	41
92.8848	93.3875	59	26
92.8848	93.3875	64	23
92.8848	93.3875	74	38
93.3875	94.8818	54	45
93.3875	94.3323	64	37
93.3875	94.8818	69	55
94.3323	94.8818	56	49
94.3323	94.8621	64	49
94.3323	94.8818	71	63
94.8621	95.8299	57	55
94.8621	95.8299	64	55
94.8621	95.8299	73	68
95.8068	96.3731	50	55
95.8068	96.3731	66	56
95.8068	96.3731	71	56
95.8068	96.3731	74	67
96.3591	97.3413	52	52
96.3591	97.3156	64	54
96.3591	97.3413	69	54
96.3591	97.3413	73	64
97.3156	97.9084	40	51
97.3156	97.8757	64	48
97.3156	97.8757	68	48
97.3156	97.8757	71	57
97.8757	99.466	45	48
97.8757	99.466	64	46
97.8757	98.9214	68	51
97.8757	98.9214	71	61
98.9214	99.466	69	54
98.9214	99.466	73	54
99.466	100.511	45	48
99.466	100.511	57	57
99.466	100.478	64	63
99.466	100.511	69	63
99.466	100.511	73	75
100.478	101.065	47	53
100.478	101.065	59	63
100.478	101.042	64	63
100.478	101.065	68	63
100.478	101.065	74	75
101.042	102.214	49	57
101.042	102.214	61	69
101.042	102.214	64	68
101.042	102.214	69	68
101.042	102.214	76	80
102.188	102.769	50	32
102.188	102.769	62	38
102.188	102.769	78	56
102.469	102.769	80	44
102.608	102.769	81	46
102.747	103.869	52	32
102.747	103.905	61	39
102.747	103.905	69	51
103.869	104.572	52	30
103.869	104.572	62	36
103.869	104.572	68	30
103.869	104.175	73	36
104.175	104.572	71	35
104.541	106.005	57	30
104.541	106.005	61	36
104.541	106.005	69	35
109.169	109.343	72	50
109.343	109.493	73	46
109.531	109.662	57	30
109.531	109.662	64	39
109.706	109.885	73	45
109.885	110.063	72	45
110.063	110.253	73	46
110.253	110.424	75	50
110.424	110.57	76	46
110.607	110.735	61	30
110.607	110.735	64	39
110.778	110.957	76	47
110.957	111.135	78	50
111.135	111.312	76	48
111.312	111.482	76	50
111.482	111.628	71	47
111.664	111.806	56	30
111.664	111.806	64	39
111.854	112.027	71	48
112.027	112.204	70	49
112.204	112.38	71	50
112.38	112.559	73	51
112.559	112.703	74	48
112.74	112.87	59	30
112.74	112.87	64	39
112.913	113.092	74	49
113.092	113.27	76	52
113.27	113.406	74	50
113.451	113.619	74	53
113.619	113.773	69	47
113.812	113.943	54	34
113.812	113.943	64	45
113.987	114.166	69	51
114.166	114.344	68	52
114.344	114.534	69	52
114.534	114.705	70	57
114.705	114.853	71	50
114.89	115.029	56	35
114.89	115.029	64	46
115.075	115.249	71	52
115.249	115.424	70	52
115.424	115.602	71	52
115.602	116.352	57	33
115.602	116.352	64	42
115.602	115.968	72	61
115.785	116.166	73	56
115.968	116.352	72	62
116.166	116.352	73	54
116.34	116.703	50	33
116.34	116.703	54	39
116.34	116.703	76	62
116.515	116.703	74	53
116.692	117.802	52	33
116.692	117.802	56	42
116.692	117.793	73	56
116.873	117.802	71	58
117.054	117.793	69	61
117.234	117.802	68	64
117.415	117.802	66	66
117.596	117.793	64	69
117.793	118.892	45	65
117.793	118.91	64	64
117.793	118.91	69	64
117.793	118.91	73	77
117.974	118.155	57	59
118.155	118.335	57	59
118.335	118.516	57	59
118.516	118.697	57	59
118.516	118.91	71	64
118.516	118.91	74	77
118.697	118.91	57	59
118.892	119.981	45	65
118.892	119.981	72	69
118.892	119.981	75	82
119.072	119.253	57	59
119.253	119.434	57	59
119.253	119.795	73	66
119.253	119.981	76	78
119.434	119.615	57	58
119.615	119.795	57	58
119.795	119.981	57	58
119.795	119.981	69	64
119.795	119.981	73	77
119.976	121.079	40	65
119.976	120.338	64	69
119.976	120.338	68	69
119.976	120.338	71	82
120.157	120.338	52	57
120.338	120.518	52	57
120.338	120.699	64	64
120.338	121.094	68	64
120.338	121.094	71	77
120.518	120.699	52	57
120.699	120.889	52	57
120.699	121.079	64	68
120.699	121.094	69	68
120.699	121.079	73	80
120.889	121.094	52	57
121.079	121.257	40	65
121.079	121.815	64	69
121.079	121.815	70	69
121.079	121.815	73	82
121.257	121.436	52	58
121.436	121.614	52	58
121.436	121.815	71	68
121.436	121.815	74	80
121.614	121.793	52	58
121.793	121.932	52	58
121.978	122.117	52	58
121.978	122.163	68	59
121.978	122.163	71	70
122.163	122.893	42	65
122.163	122.516	69	76
122.34	122.516	54	57
122.516	122.693	54	57
122.516	122.893	69	70
122.693	122.893	54	57
122.876	123.242	44	65
122.876	122.935	71	70
122.935	123.229	73	68
122.993	123.14	71	68
123.052	123.242	56	57
123.052	123.242	69	70
123.14	123.242	71	70
123.229	123.967	45	65
123.229	123.582	73	77
123.405	123.582	57	58
123.582	123.767	57	58
123.582	123.967	73	70
123.767	123.967	57	59
123.952	124.311	38	65
123.952	124.311	66	62
123.952	124.311	71	62
123.952	124.311	74	73
124.128	124.311	50	59
124.305	125.033	40	65
124.305	124.658	64	64
124.305	124.658	69	64
124.305	124.658	73	76
124.481	124.658	52	58
124.658	124.845	52	58
124.658	125.033	64	62
124.658	125.047	69	62
124.658	125.047	73	74
124.845	125.047	52	58
125.033	125.441	40	65
125.033	125.441	62	61
125.033	125.408	64	61
125.033	125.441	68	61
125.033	125.441	71	72
125.22	125.441	52	56
125.408	125.838	33	75
125.408	125.838	61	64
125.408	125.838	64	64
125.408	125.838	69	76
125.783	126.158	45	67
126.533	126.707	72	50
126.707	126.848	73	46
126.884	127.019	57	30
126.884	127.019	64	39
127.065	127.243	73	45
127.243	127.422	72	45
127.422	127.602	73	46
127.602	127.788	75	50
127.788	127.934	76	46
127.97	128.101	61	30
127.97	128.101	64	39
128.144	128.322	76	47
128.322	128.501	78	50
128.501	128.686	76	48
128.686	128.857	76	50
128.857	129.005	71	47
129.042	129.177	56	30
129.042	129.177	64	39
129.223	129.403	71	48
129.403	129.58	70	49
129.58	129.763	71	50
129.763	129.95	73	51
129.95	130.102	74	48
130.14	130.269	59	30
130.14	130.269	64	39
130.312	130.49	74	49
130.49	130.669	76	52
130.669	130.804	74	50
130.849	131.026	74	53
131.026	131.18	69	47
131.218	131.348	54	34
131.218	131.348	64	45
131.392	131.57	69	51
131.57	131.749	68	52
131.749	131.936	69	52
131.936	132.107	70	57
132.107	132.255	71	50
132.292	132.421	56	35
132.292	132.421	64	46
132.463	132.638	71	52
132.638	132.812	70	52
132.812	132.993	71	52
132.993	133.737	57	33
132.993	133.737	64	42
132.993	133.359	72	61
133.176	133.554	73	56
133.359	133.737	72	62
133.554	133.737	73	54
133.728	134.091	50	33
133.728	134.091	54	39
133.728	134.091	76	62
133.903	134.091	74	53
134.08	135.186	52	33
134.08	135.186	56	42
134.08	135.181	73	56
134.261	135.186	71	58
134.442	135.181	69	61
134.622	135.186	68	64
134.803	135.186	66	66
134.984	135.181	64	69
135.181	136.28	45	65
135.181	136.296	64	64
135.181	136.296	69	64
135.181	136.296	73	77
135.362	135.543	57	59
135.543	135.723	57	59
135.723	135.904	57	59
135.904	136.085	57	59
135.904	136.296	71	64
135.904	136.296	74	77
136.085	136.296	57	59
136.28	137.369	45	65
136.28	137.369	72	69
136.28	137.369	75	82
136.46	136.641	57	59
136.641	136.822	57	59
136.641	137.183	73	66
136.641	137.369	76	78
136.822	137.003	57	58
137.003	137.183	57	58
137.183	137.369	57	58
137.183	137.369	69	64
137.183	137.369	73	77
137.364	138.467	40	65
137.364	137.726	64	69
137.364	137.726	68	69
137.364	137.726	71	82
137.545	137.726	52	57
137.726	137.906	52	57
137.726	138.087	64	64
137.726	138.482	68	64
137.726	138.482	71	77
137.906	138.087	52	57
138.087	138.277	52	57
138.087	138.467	64	68
138.087	138.482	69	68
138.087	138.467	73	80
138.277	138.482	52	57
138.467	138.645	40	65
138.467	139.203	64	69
138.467	139.203	70	69
138.467	139.203	73	82
138.645	138.824	52	58
138.824	139.002	52	58
138.824	139.203	71	68
138.824	139.203	74	80
139.002	139.181	52	58
139.181	139.32	52	58
139.366	139.505	52	58
139.366	139.551	68	59
139.366	139.551	71	70
139.551	140.281	42	65
139.551	139.904	69	76
139.728	139.904	54	57
139.904	140.081	54	57
139.904	140.281	69	70
140.081	140.281	54	57
140.264	140.63	44	65
140.264	140.323	71	70
140.323	140.617	73	68
140.381	140.528	71	68
140.44	140.63	56	57
140.44	140.63	69	70
140.528	140.63	71	70
140.617	141.358	45	65
140.617	140.97	73	77
140.793	140.97	57	58
140.97	141.155	57	58
140.97	141.358	73	70
141.155	141.358	57	59
141.34	141.697	38	65
141.34	141.697	66	62
141.34	141.697	71	62
141.34	141.697	74	73
141.516	141.697	50	59
141.693	142.421	40	65
141.693	142.046	64	64
141.693	142.046	69	64
141.693	142.046	73	76
141.869	142.046	52	58
142.046	142.233	52	58
142.046	142.421	64	62
142.046	142.435	69	62
142.046	142.435	73	74
142.233	142.435	52	58
142.421	142.813	40	65
142.421	142.813	62	61
142.421	142.796	64	61
142.421	142.813	68	61
142.421	142.813	71	72
142.608	142.813	52	56
142.796	143.226	33	75
142.796	143.226	61	64
142.796	143.226	64	64
142.796	143.226	69	76
143.171	143.546	45	67
143.921	144.095	75	50
144.095	144.245	76	46
144.283	144.413	57	30
144.283	144.413	61	39
144.456	144.635	76	45
144.635	144.813	75	45
144.813	145.003	76	46
145.003	145.174	77	50
145.174	145.32	78	46
145.357	145.487	57	30
145.357	145.487	62	39
145.53	145.709	78	47
145.709	145.887	77	50
145.887	146.064	78	48
146.064	146.197	57	26
146.064	146.197	66	31
146.064	146.241	80	55
146.241	146.387	81	47
146.423	146.554	57	24
146.423	146.554	64	29
146.423	146.597	79	55
146.597	146.747	80	48
146.784	146.916	57	24
146.784	146.916	62	29
146.784	146.96	77	55
146.96	147.105	78	47
147.141	147.324	75	55
147.324	147.474	76	46
147.511	147.652	57	31
147.511	147.652	61	37
147.699	147.866	76	55
147.884	148.051	76	57
148.069	148.249	76	58
148.269	149.393	57	46
148.269	149.393	61	46
148.269	149.393	64	55
148.269	148.825	76	72
148.455	148.836	73	64
148.64	148.836	69	59
148.825	148.992	76	57
149.01	149.177	76	59
149.195	149.373	76	61
149.393	150.516	59	43
149.393	150.516	62	43
149.393	150.516	64	51
149.393	149.948	76	70
149.578	150.035	74	62
149.763	150.035	68	58
149.948	150.115	76	59
150.133	150.3	76	62
150.319	150.496	76	64
150.516	151.305	61	50
150.516	151.305	64	59
150.516	151.098	76	69
150.701	151.285	73	63
150.886	151.305	69	48
151.098	151.305	76	52
151.285	151.718	54	26
151.285	151.718	57	26
151.285	151.718	63	31
151.285	151.697	73	51
151.48	151.697	69	49
151.697	152.913	52	34
151.697	152.913	64	40
151.697	152.626	69	43
151.697	152.626	73	51
152.508	152.913	68	39
152.508	152.913	71	47
152.913	153.088	72	50
153.088	153.238	73	46
153.275	153.405	57	30
153.275	153.405	64	39
153.449	153.627	73	45
153.627	153.806	72	45
153.806	154.009	73	46
154.009	154.179	75	50
154.179	154.319	76	46
154.354	154.487	61	30
154.354	154.487	64	39
154.532	154.711	76	47
154.711	154.889	78	50
154.889	155.028	76	48
155.074	155.245	76	50
155.245	155.397	71	47
155.435	155.57	56	34
155.435	155.57	64	44
155.615	155.796	71	48
155.796	155.977	70	49
155.977	156.164	71	50
156.164	156.347	73	51
156.347	156.501	74	48
156.54	156.684	59	34
156.54	156.684	64	44
156.732	156.911	74	49
156.911	157.089	76	52
157.089	157.235	74	50
157.284	157.452	74	53
157.452	157.606	69	47
157.645	158.013	54	45
157.645	158.013	64	53
157.835	158.013	69	51
158.013	158.368	56	43
158.013	158.368	64	51
158.013	158.192	73	52
158.192	158.368	71	52
158.368	158.539	74	57
158.539	158.687	73	50
158.724	159.084	56	45
158.724	159.084	64	53
158.909	159.084	73	52
159.084	159.454	50	44
159.084	159.454	59	52
159.084	159.262	76	57
159.262	159.454	74	54
159.454	159.633	72	60
159.633	159.787	73	54
159.825	160.194	52	48
159.825	160.194	57	57
160.015	160.194	73	55
160.194	160.578	52	43
160.194	160.578	56	51
160.194	160.372	74	59
160.372	160.578	71	54
160.578	160.967	57	61
160.578	161.357	68	48
160.578	161.162	71	60
160.967	161.357	52	55
161.162	161.357	72	59
161.357	161.768	45	55
161.357	161.768	69	51
161.357	161.768	73	64
161.768	162.513	33	71
161.768	162.134	64	64
161.768	162.134	69	64
161.768	162.134	73	76
161.951	162.134	45	60
162.134	162.317	45	60
162.134	162.5	64	64
162.134	162.513	69	64
162.134	162.513	73	76
162.317	162.513	45	60
162.5	162.906	35	67
162.5	162.891	64	60
162.5	162.906	68	60
162.5	162.906	74	71
162.683	162.906	47	59
162.891	163.703	37	66
162.891	163.703	64	63
162.891	163.257	69	63
162.891	163.257	76	75
163.074	163.257	49	59
163.257	163.44	49	57
163.257	163.657	69	57
163.257	163.703	76	68
163.44	163.703	49	57
163.657	163.852	38	68
163.657	163.852	69	61
163.657	163.852	78	72
163.852	164.076	50	62
163.852	163.964	80	68
163.964	164.076	81	68
164.076	164.846	40	69
164.076	164.446	61	64
164.076	164.446	64	64
164.076	164.446	69	76
164.261	164.446	52	55
164.446	164.646	52	55
164.446	164.861	61	62
164.446	164.846	64	62
164.446	164.861	69	74
164.646	164.861	52	55
164.846	165.264	40	64
164.846	165.264	62	61
164.846	165.246	64	61
164.846	165.264	68	61
164.846	165.264	71	72
165.046	165.264	52	55
165.246	165.704	33	73
165.246	165.704	61	64
165.246	165.704	64	64
165.246	165.704	69	76
165.646	166.046	45	67
166.446	166.621	75	50
166.621	166.771	76	46
166.808	166.941	57	30
166.808	166.941	61	39
166.986	167.164	76	45
167.164	167.343	75	45
167.343	167.533	76	46
167.533	167.703	77	50
167.703	167.849	78	46
167.886	168.015	57	30
167.886	168.015	62	39
168.057	168.236	78	47
168.236	168.415	77	50
168.415	168.591	78	48
168.591	168.721	57	26
168.591	168.721	66	31
168.591	168.764	80	55
168.764	168.914	81	47
168.952	169.083	57	24
168.952	169.083	64	29
168.952	169.126	79	55
169.126	169.28	80	48
169.319	169.451	57	24
169.319	169.451	62	29
169.319	169.495	77	55
169.495	169.64	78	47
169.676	169.859	75	55
169.859	170.009	76	46
170.046	170.187	57	31
170.046	170.187	61	37
170.234	170.401	76	55
170.419	170.586	76	57
170.604	170.784	76	58
170.804	171.927	57	46
170.804	171.927	61	46
170.804	171.927	64	55
170.804	171.36	76	72
170.989	171.371	73	64
171.175	171.371	69	59
171.36	171.526	76	57
171.545	171.712	76	59
171.73	171.908	76	61
171.927	173.051	59	43
171.927	173.051	62	43
171.927	173.051	64	51
171.927	172.483	76	70
172.113	172.569	74	62
172.298	172.569	68	58
172.483	172.65	76	59
172.668	172.835	76	62
172.853	173.031	76	64
173.051	173.839	61	50
173.051	173.839	64	59
173.051	173.632	76	69
173.236	173.82	73	63
173.421	173.839	69	48
173.632	173.839	76	52
173.82	174.252	54	26
173.82	174.252	57	26
173.82	174.252	63	31
173.82	174.232	73	51
174.015	174.232	69	49
174.232	175.448	52	34
174.232	175.448	64	40
174.232	175.161	69	43
174.232	175.161	73	51
175.043	175.448	68	39
175.043	175.448	71	47
175.448	175.623	72	50
175.623	175.773	73	46
175.81	175.942	57	30
175.81	175.942	64	39
175.986	176.164	73	45
176.164	176.343	72	45
176.343	176.546	73	46
176.546	176.716	75	50
176.716	176.862	76	46
176.899	177.029	61	30
176.899	177.029	64	39
177.072	177.251	76	47
177.251	177.43	78	50
177.43	177.568	76	48
177.615	177.785	76	50
177.785	177.937	71	47
177.975	178.111	56	34
177.975	178.111	64	44
178.156	178.336	71	48
178.336	178.517	70	49
178.517	178.698	71	50
178.698	178.881	73	51
178.881	179.035	74	48
179.073	179.217	59	34
179.073	179.217	64	44
179.265	179.444	74	49
179.444	179.623	76	52
179.623	179.769	74	50
179.817	179.986	74	53
179.986	180.14	69	47
180.178	180.547	54	45
180.178	180.547	64	53
180.368	180.547	69	51
180.547	180.902	56	43
180.547	180.902	64	51
180.547	180.725	73	52
180.725	180.902	71	52
180.902	181.072	74	57
181.072	181.22	73	50
181.257	181.617	56	45
181.257	181.617	64	53
181.443	181.617	73	52
181.617	181.988	50	44
181.617	181.988	59	52
181.617	181.796	76	57
181.796	181.988	74	54
181.988	182.166	72	60
182.166	182.32	73	54
182.359	182.727	52	48
182.359	182.727	57	57
182.549	182.727	73	55
182.727	183.111	52	43
182.727	183.111	56	51
182.727	182.906	74	59
182.906	183.111	71	54
183.111	183.501	57	61
183.111	183.89	68	48
183.111	183.696	71	60
183.501	183.89	52	55
183.696	183.89	72	59
183.89	184.301	45	55
183.89	184.301	69	51
183.89	184.301	73	64
184.301	185.048	33	71
184.301	184.667	64	64
184.301	184.667	69	64
184.301	184.667	73	76
184.484	184.667	45	60
184.667	184.85	45	60
184.667	185.033	64	64
184.667	185.048	69	64
184.667	185.048	73	76
184.85	185.048	45	60
185.033	185.45	35	67
185.033	185.434	64	60
185.033	185.45	68	60
185.033	185.45	74	71
185.225	185.45	47	59
185.434	186.279	37	66
185.434	186.279	64	63
185.434	185.818	69	63
185.434	185.818	76	75
185.626	185.818	49	59
185.818	186.011	49	57
185.818	186.231	69	57
185.818	186.279	76	68
186.011	186.279	49	57
186.231	186.434	38	68
186.231	186.434	69	61
186.231	186.434	78	72
186.434	186.661	50	62
186.434	186.548	80	68
186.548	186.661	81	68
186.661	187.49	40	69
186.661	187.061	61	64
186.661	187.061	64	64
186.661	187.061	69	76
186.861	187.061	52	55
187.061	187.276	52	55
187.061	187.507	61	62
187.061	187.49	64	62
187.061	187.507	69	74
187.276	187.507	52	55
187.49	187.98	40	64
187.49	187.98	62	61
187.49	187.959	64	61
187.49	187.98	68	61
187.49	187.98	71	72
187.724	187.98	52	55
187.959	188.496	33	73
187.959	188.496	61	64
187.959	188.496	64	64
187.959	188.496	69	76
188.427	188.896	45	67
192.177	192.319	57	44
192.177	192.266	73	53
192.295	192.436	63	31
192.413	192.53	64	31
192.53	192.671	57	40
192.53	192.619	73	49
192.648	192.792	63	30
192.768	192.89	64	30
192.89	193.238	59	40
192.89	193.007	74	49
192.948	193.238	76	47
193.007	193.238	63	30
193.007	193.154	74	47
193.066	193.238	73	49
193.125	193.243	64	30
193.154	193.243	74	49
193.243	193.384	61	41
193.243	193.596	76	53
193.36	193.501	63	29
193.478	193.596	64	29
193.596	193.737	61	40
193.713	193.861	63	31
193.835	193.959	64	31
193.959	194.097	57	40
193.959	194.053	78	53
194.045	194.141	76	52
194.074	194.215	63	36
194.132	194.23	74	51
194.191	194.312	64	36
194.221	194.321	73	49
194.312	194.453	56	44
194.312	194.4	71	53
194.43	194.571	63	31
194.547	194.665	64	31
194.665	194.806	56	40
194.665	194.753	71	49
194.783	194.927	63	33
194.902	195.024	64	33
195.024	195.339	57	40
195.024	195.142	73	49
195.083	195.339	74	47
195.142	195.339	63	34
195.142	195.289	73	47
195.201	195.339	71	49
195.26	195.377	64	34
195.289	195.377	73	49
195.377	195.519	59	45
195.377	195.73	74	53
195.495	195.636	63	34
195.613	195.73	64	34
195.73	195.871	59	38
195.848	195.995	63	31
195.97	196.094	64	31
196.094	196.232	56	40
196.094	196.188	76	53
196.179	196.276	74	52
196.208	196.35	63	36
196.267	196.365	73	51
196.326	196.447	64	36
196.356	196.456	71	49
196.447	196.588	54	44
196.447	196.535	69	53
196.565	196.706	63	33
196.682	196.8	64	33
196.8	196.941	54	40
196.8	196.888	69	49
196.917	197.062	63	35
197.037	197.159	64	35
197.159	197.49	54	40
197.159	197.277	69	49
197.218	197.49	71	47
197.277	197.49	63	35
197.277	197.424	69	47
197.336	197.49	68	49
197.394	197.512	64	36
197.424	197.512	69	49
197.512	197.653	56	44
197.512	197.6	71	53
197.63	197.771	62	35
197.747	197.865	64	35
197.865	198.006	56	40
197.865	197.953	71	49
197.983	198.127	62	35
198.102	198.224	64	35
198.224	198.577	56	40
198.224	198.342	71	49
198.283	198.577	73	47
198.342	198.577	62	34
198.342	198.489	71	47
198.401	198.577	69	49
198.46	198.577	64	34
198.489	198.577	71	49
198.577	198.719	57	44
198.577	198.666	73	58
198.695	198.836	61	34
198.813	198.93	64	34
198.93	199.071	57	40
198.93	199.019	73	54
199.048	199.198	61	33
199.172	199.302	64	33
199.302	199.443	50	42
199.302	199.39	76	61
199.39	199.683	74	51
199.419	199.574	54	37
199.547	199.683	59	37
199.683	200.054	52	44
199.683	200.441	69	55
199.683	200.441	73	55
199.807	200.177	57	40
199.93	200.301	61	40
200.054	200.424	52	44
200.177	200.441	57	42
200.301	200.441	61	44
200.424	200.795	52	48
200.424	200.795	68	53
200.424	200.795	71	53
200.548	200.795	56	41
200.671	200.795	59	42
200.795	201.059	45	74
200.795	201.059	73	74
200.912	201.059	69	53
201.03	201.148	64	53
201.103	201.148	56	67
201.148	201.324	57	74
201.148	201.289	73	72
201.265	201.409	69	53
201.385	201.507	64	53
201.507	201.873	74	71
201.625	201.873	71	53
201.742	201.873	64	53
201.86	202.186	45	74
201.86	202.186	76	70
201.977	202.186	73	53
202.095	202.213	64	53
202.169	202.213	56	67
202.213	202.389	57	72
202.213	202.354	76	71
202.33	202.478	73	53
202.453	202.576	64	53
202.576	202.662	78	68
202.662	202.935	76	66
202.749	202.935	74	64
202.838	202.935	73	62
202.929	203.269	40	74
202.929	203.269	71	74
203.047	203.269	68	53
203.165	203.282	64	53
203.194	203.269	51	67
203.282	203.459	52	74
203.282	203.423	71	72
203.4	203.544	68	53
203.52	203.642	64	53
203.642	204.009	73	71
203.759	204.009	69	53
203.877	204.009	64	53
203.995	204.348	40	74
203.995	204.348	74	70
204.112	204.348	71	53
204.23	204.348	64	53
204.259	204.348	51	67
204.348	204.524	52	72
204.348	204.489	74	71
204.465	204.613	71	53
204.587	204.711	64	53
204.711	204.797	76	68
204.797	205.069	74	66
204.884	205.069	73	64
204.973	205.069	71	62
205.064	205.388	40	74
205.064	205.388	69	74
205.182	205.388	64	53
205.3	205.417	61	53
205.329	205.388	53	59
205.417	205.594	54	68
205.417	205.558	69	72
205.535	205.676	64	53
205.652	205.77	61	53
205.682	205.77	55	62
205.77	205.939	56	70
205.77	205.905	71	71
205.882	206.017	64	53
205.995	206.107	62	53
206.107	206.46	45	74
206.107	206.46	73	74
206.225	206.46	69	53
206.342	206.46	64	53
206.372	206.46	56	63
206.46	206.637	57	67
206.46	206.601	73	72
206.578	206.719	69	53
206.695	206.813	64	53
206.725	206.813	49	63
206.813	206.987	50	69
206.813	206.953	74	71
206.929	207.069	71	53
207.046	207.162	66	53
207.162	207.477	40	74
207.162	207.477	73	74
207.28	207.477	69	53
207.397	207.515	64	53
207.427	207.477	51	62
207.515	207.691	52	67
207.515	207.656	73	72
207.632	207.774	69	53
207.75	207.868	64	53
207.779	207.868	51	61
207.868	208.044	52	68
207.868	208.009	71	71
207.985	208.127	68	53
208.103	208.221	62	53
208.221	208.608	33	74
208.221	208.608	69	74
208.344	208.608	64	53
208.468	208.616	61	53
208.498	208.608	44	61
208.591	208.776	45	67
208.591	208.776	57	72
209.332	209.473	57	44
209.332	209.42	73	53
209.449	209.591	63	33
209.567	209.685	64	33
209.685	209.826	57	40
209.685	209.773	73	49
209.802	209.947	63	32
209.922	210.044	64	32
210.044	210.393	59	40
210.044	210.162	74	49
210.103	210.393	76	47
210.162	210.393	63	32
210.162	210.309	74	47
210.221	210.393	73	49
210.279	210.397	64	32
210.309	210.397	74	49
210.397	210.538	61	41
210.397	210.75	76	53
210.515	210.656	63	30
210.632	210.75	64	30
210.75	210.891	61	40
210.868	211.015	63	28
210.99	211.113	64	28
211.113	211.251	57	40
211.113	211.208	78	53
211.199	211.295	76	52
211.228	211.37	63	34
211.287	211.384	74	51
211.346	211.467	64	36
211.375	211.475	73	49
211.467	211.608	56	44
211.467	211.555	71	53
211.584	211.725	63	33
211.702	211.819	64	33
211.819	211.961	56	40
211.819	211.908	71	49
211.937	212.081	63	33
212.057	212.179	64	33
212.179	212.494	57	40
212.179	212.296	73	49
212.238	212.494	74	47
212.296	212.494	63	33
212.296	212.444	73	47
212.355	212.494	71	49
212.414	212.532	64	33
212.444	212.532	73	49
212.532	212.673	59	45
212.532	212.885	74	53
212.649	212.791	63	34
212.767	212.885	64	34
212.885	213.026	59	38
213.002	213.15	63	30
213.124	213.248	64	31
213.248	213.386	56	40
213.248	213.343	76	53
213.334	213.43	74	52
213.363	213.504	63	36
213.421	213.519	73	51
213.48	213.601	64	36
213.51	213.61	71	49
213.601	213.742	54	44
213.601	213.69	69	53
213.719	213.86	63	35
213.837	213.954	64	35
213.954	214.095	54	40
213.954	214.042	69	49
214.072	214.216	63	32
214.192	214.314	64	32
214.314	214.644	54	40
214.314	214.431	69	49
214.372	214.644	71	47
214.431	214.644	63	32
214.431	214.578	69	47
214.49	214.644	68	49
214.549	214.667	64	32
214.578	214.667	69	49
214.667	214.808	56	44
214.667	214.755	71	53
214.784	214.925	62	34
214.902	215.019	64	34
215.019	215.161	56	40
215.019	215.108	71	49
215.137	215.281	62	32
215.257	215.379	64	32
215.379	215.732	56	40
215.379	215.496	71	49
215.438	215.732	73	47
215.496	215.732	62	32
215.496	215.644	71	47
215.555	215.732	69	49
215.614	215.732	64	32
215.644	215.732	71	49
215.732	215.873	57	44
215.732	215.82	73	58
215.849	215.991	61	35
215.967	216.085	64	33
216.085	216.226	57	40
216.085	216.173	73	54
216.202	216.352	61	35
216.326	216.456	64	35
216.456	216.597	50	42
216.456	216.544	76	61
216.544	216.838	74	51
216.574	216.728	54	37
216.701	216.838	59	37
216.838	217.208	52	44
216.838	217.596	69	55
216.838	217.596	73	55
216.961	217.332	57	40
217.085	217.455	61	40
217.208	217.579	52	44
217.332	217.596	57	42
217.455	217.596	61	44
217.579	217.949	52	48
217.579	217.949	68	53
217.579	217.949	71	53
217.702	217.949	56	41
217.824	217.949	59	42
217.949	218.214	45	74
217.949	218.214	73	74
218.067	218.214	69	53
218.184	218.302	64	53
218.258	218.302	56	67
218.302	218.478	57	74
218.302	218.443	73	72
218.42	218.564	69	53
218.539	218.661	64	53
218.661	219.03	74	71
218.779	219.03	71	53
218.895	219.03	64	53
219.014	219.341	45	74
219.014	219.341	76	70
219.132	219.341	73	53
219.25	219.367	64	53
219.323	219.367	56	67
219.367	219.544	57	72
219.367	219.508	76	71
219.485	219.632	73	53
219.607	219.73	64	53
219.73	219.816	78	68
219.816	220.094	76	66
219.904	220.094	74	64
219.993	220.094	73	62
220.084	220.419	40	74
220.084	220.419	71	74
220.201	220.419	68	53
220.319	220.437	64	53
220.348	220.419	51	67
220.437	220.613	52	74
220.437	220.578	71	72
220.554	220.699	68	53
220.674	220.796	64	53
220.796	221.159	73	71
220.914	221.159	69	53
221.031	221.159	64	53
221.149	221.489	40	74
221.149	221.489	74	70
221.267	221.489	71	53
221.384	221.502	64	53
221.414	221.489	51	67
221.502	221.678	52	72
221.502	221.643	74	71
221.62	221.767	71	53
221.742	221.865	64	53
221.865	221.951	76	68
221.951	222.223	74	66
222.039	222.223	73	64
222.128	222.223	71	62
222.219	222.538	40	74
222.219	222.538	69	74
222.336	222.538	64	53
222.454	222.572	61	53
222.483	222.538	53	59
222.572	222.748	54	68
222.572	222.713	69	72
222.689	222.83	64	53
222.807	222.924	61	53
222.836	222.924	55	62
222.924	223.093	56	70
222.924	223.059	71	71
223.037	223.172	64	53
223.149	223.262	62	53
223.262	223.615	45	74
223.262	223.615	73	74
223.379	223.615	69	53
223.497	223.615	64	53
223.526	223.615	56	63
223.615	223.791	57	67
223.615	223.756	73	72
223.732	223.873	69	53
223.85	223.967	64	53
223.879	223.967	49	63
223.967	224.142	50	69
223.967	224.107	74	71
224.084	224.223	71	53
224.2	224.316	66	53
224.316	224.64	40	74
224.316	224.64	73	74
224.434	224.64	69	53
224.552	224.669	64	53
224.581	224.64	51	62
224.669	224.846	52	67
224.669	224.81	73	72
224.787	224.928	69	53
224.904	225.022	64	53
224.934	225.022	51	61
225.022	225.199	52	68
225.022	225.163	71	71
225.14	225.281	68	53
225.257	225.375	62	53
225.375	225.753	33	74
225.375	225.753	69	74
225.499	225.753	64	53
225.622	225.77	61	53
225.653	225.753	44	61
225.745	225.931	45	67
225.745	225.931	57	72
226.486	226.634	57	37
226.486	226.579	76	50
226.61	226.758	61	30
226.735	226.858	64	29
226.857	227.005	57	38
226.857	226.949	74	48
226.98	227.128	59	30
227.103	227.227	62	30
227.227	227.385	57	38
227.227	227.326	76	50
227.358	227.516	61	30
227.49	227.622	64	30
227.622	227.77	57	38
227.622	227.807	78	50
227.745	227.893	62	28
227.869	227.992	66	28
227.992	228.14	57	35
228.115	228.264	62	28
228.239	228.633	66	28
228.362	228.768	57	38
228.362	228.43	78	50
228.396	228.666	80	44
228.43	228.565	78	44
228.464	228.768	76	50
228.497	228.768	62	32
228.565	228.768	78	49
228.633	228.768	66	32
228.666	228.768	80	49
228.768	228.92	57	37
228.768	228.958	81	56
228.894	229.046	66	33
229.021	229.147	69	33
229.147	229.299	57	38
229.147	229.242	80	52
229.274	229.426	64	33
229.401	229.527	68	33
229.527	229.679	57	38
229.527	229.622	78	50
229.654	229.806	62	34
229.78	229.907	66	31
229.907	230.055	57	36
229.907	230.092	76	50
230.03	230.179	61	27
230.154	230.277	64	27
230.277	230.426	57	35
230.401	230.549	61	28
230.524	230.648	64	28
230.648	231.051	57	38
230.648	230.682	73	50
230.682	230.952	74	44
230.715	230.85	73	44
230.749	231.051	71	50
230.783	231.051	61	33
230.85	231.051	73	51
230.918	231.053	64	33
230.952	231.053	74	55
231.053	231.433	57	42
231.053	231.446	76	60
231.18	231.446	61	34
231.306	231.446	64	34
231.433	231.734	57	38
231.433	231.528	73	58
231.559	231.734	61	33
231.686	231.813	64	33
231.813	231.975	57	38
231.948	232.11	61	34
232.083	232.218	64	35
232.117	232.218	69	58
232.218	232.598	59	41
232.218	232.612	76	65
232.345	232.612	62	36
232.471	232.612	64	37
232.598	232.978	59	44
232.598	232.693	74	59
232.724	232.993	62	37
232.851	232.993	64	39
232.978	233.14	59	46
233.113	233.275	62	41
233.248	233.636	64	42
233.282	234.221	71	66
233.383	233.763	57	47
233.383	234.221	76	73
233.51	233.904	61	40
233.636	234.044	64	40
233.763	234.221	57	47
233.763	234.221	73	66
233.904	234.221	61	38
234.044	234.221	64	33
234.185	234.66	54	38
234.185	234.64	69	50
234.337	234.66	57	29
234.488	234.66	63	29
234.64	235.944	52	23
234.64	235.944	64	29
234.64	235.555	69	50
234.64	235.555	73	50
235.509	235.944	68	46
235.509	235.944	71	46
235.944	236.085	57	44
235.944	236.032	73	53
236.062	236.203	63	34
236.179	236.297	64	34
236.297	236.438	57	40
236.297	236.385	73	49
236.415	236.559	63	31
236.534	236.656	64	31
236.656	237.005	59	40
236.656	236.774	74	49
236.715	237.005	76	47
236.774	237.005	63	32
236.774	236.921	74	47
236.833	237.005	73	49
236.892	237.009	64	32
236.921	237.009	74	49
237.009	237.151	61	41
237.009	237.362	76	53
237.127	237.268	63	31
237.245	237.362	64	31
237.362	237.503	61	40
237.48	237.627	63	30
237.602	237.726	64	30
237.726	237.864	57	40
237.726	237.82	78	53
237.811	237.908	76	52
237.84	237.982	63	35
237.899	237.997	74	51
237.958	238.079	64	35
237.988	238.088	73	49
238.079	238.22	56	44
238.079	238.167	71	53
238.197	238.338	63	31
238.314	238.432	64	32
238.432	238.573	56	40
238.432	238.52	71	49
238.549	238.694	63	35
238.669	238.791	64	35
238.791	239.106	57	40
238.791	238.909	73	49
238.85	239.106	74	47
238.909	239.106	63	33
238.909	239.056	73	47
238.968	239.106	71	49
239.026	239.144	64	35
239.056	239.144	73	49
239.144	239.285	59	45
239.144	239.497	74	53
239.262	239.403	63	34
239.379	239.497	64	34
239.497	239.638	59	38
239.615	239.762	63	28
239.737	239.86	64	28
239.86	239.998	56	40
239.86	239.955	76	53
239.946	240.043	74	52
239.975	240.117	63	35
240.034	240.132	73	51
240.093	240.214	64	35
240.123	240.222	71	49
240.214	240.355	54	44
240.214	240.302	69	53
240.331	240.472	63	35
240.449	240.567	64	35
240.567	240.708	54	40
240.567	240.655	69	49
240.684	240.828	63	35
240.804	240.926	64	34
240.926	241.257	54	40
240.926	241.044	71	49
240.985	241.257	73	47
241.044	241.257	62	35
241.044	241.191	71	47
241.102	241.257	69	49
241.161	241.279	64	35
241.191	241.279	71	49
241.279	241.42	57	44
241.279	241.367	73	53
241.397	241.538	61	35
241.514	241.632	64	33
241.632	241.773	57	40
241.632	241.72	73	49
241.749	241.894	61	33
241.869	241.991	64	33
241.991	242.356	50	40
241.991	242.109	74	49
242.05	242.356	76	47
242.109	242.356	54	33
242.109	242.256	74	47
242.168	242.344	73	49
242.226	242.356	59	33
242.256	242.356	74	49
242.344	242.485	52	44
242.344	242.432	73	53
242.462	242.603	57	35
242.579	242.697	61	33
242.697	242.838	52	40
242.697	242.785	73	49
242.815	242.959	57	35
242.934	243.056	61	35
243.056	243.387	52	40
243.056	243.174	71	49
243.115	243.387	73	47
243.174	243.387	56	35
243.174	243.321	71	47
243.233	243.387	69	49
243.292	243.409	62	35
243.321	243.409	71	49
243.409	244.549	57	34
243.409	244.169	62	40
243.409	244.549	64	34
243.409	244.169	68	45
243.409	243.789	71	53
243.789	244.169	72	55
244.169	244.549	61	45
244.169	244.549	69	47
244.169	244.549	73	56
244.549	244.879	45	74
244.549	244.879	73	74
244.666	244.879	69	53
244.784	244.902	64	53
244.813	244.879	56	59
244.902	245.078	57	68
244.902	245.043	73	72
245.019	245.16	69	53
245.137	245.254	64	53
245.166	245.254	58	62
245.254	245.423	59	70
245.254	245.389	74	71
245.367	245.502	68	53
245.479	245.592	64	53
245.592	245.965	52	74
245.592	245.945	76	74
245.709	245.965	73	53
245.827	245.965	69	53
245.856	245.965	60	63
245.945	246.121	61	67
245.945	246.086	76	72
246.062	246.203	73	53
246.18	246.297	69	53
246.209	246.297	61	63
246.297	246.472	62	69
246.297	246.437	78	71
246.414	246.553	71	53
246.53	246.646	69	53
246.646	247.004	40	74
246.646	246.999	73	74
246.764	247.004	69	53
246.882	247.004	64	53
246.911	247.004	51	62
246.999	247.176	52	67
246.999	247.14	73	72
247.117	247.258	69	53
247.234	247.352	64	53
247.264	247.352	51	61
247.352	247.529	52	68
247.352	247.493	71	71
247.47	247.611	68	53
247.587	247.705	62	53
247.705	248.097	33	74
247.705	248.097	69	74
247.829	248.097	64	53
247.952	248.1	61	53
247.983	248.097	44	61
248.075	248.261	45	67
248.075	248.261	57	72
248.816	248.964	57	37
248.816	248.909	76	50
248.94	249.088	61	31
249.065	249.188	64	32
249.187	249.335	57	38
249.187	249.279	74	48
249.31	249.458	59	30
249.433	249.557	62	30
249.557	249.715	57	38
249.557	249.656	76	50
249.688	249.846	61	30
249.82	249.952	64	30
249.952	250.1	57	38
249.952	250.137	78	50
250.075	250.223	62	27
250.199	250.322	66	27
250.322	250.47	57	35
250.445	250.594	62	28
250.569	250.963	66	26
250.692	251.098	57	38
250.692	250.76	78	50
250.726	250.996	80	44
250.76	250.895	78	44
250.794	251.098	76	50
250.827	251.098	62	32
250.895	251.098	78	49
250.963	251.098	66	32
250.996	251.098	80	49
251.098	251.25	57	37
251.098	251.288	81	56
251.224	251.376	66	31
251.351	251.477	69	32
251.477	251.629	57	38
251.477	251.572	80	52
251.604	251.756	64	30
251.731	251.857	68	30
251.857	252.009	57	38
251.857	251.952	78	50
251.984	252.136	62	34
252.11	252.237	66	31
252.237	252.385	57	36
252.237	252.422	76	50
252.36	252.509	61	27
252.484	252.607	64	27
252.607	252.756	57	35
252.731	252.879	61	28
252.854	252.978	64	28
252.978	253.381	57	38
252.978	253.012	73	50
253.012	253.282	74	44
253.045	253.18	73	44
253.079	253.381	71	50
253.113	253.381	61	32
253.18	253.381	73	51
253.248	253.383	64	32
253.282	253.383	74	55
253.383	253.763	57	42
253.383	253.79	76	60
253.51	253.79	61	33
253.636	253.79	64	33
253.763	254.064	57	38
253.763	253.858	73	58
253.889	254.064	61	33
254.016	254.143	64	31
254.143	254.305	57	38
254.278	254.44	61	34
254.413	254.548	64	35
254.447	254.548	69	58
254.548	254.928	59	41
254.548	254.942	76	65
254.675	254.942	62	36
254.801	254.942	64	37
254.928	255.308	59	44
254.928	255.023	74	59
255.054	255.323	62	37
255.181	255.323	64	39
255.308	255.47	59	46
255.443	255.605	62	41
255.578	255.966	64	42
255.612	256.551	71	66
255.713	256.093	57	47
255.713	256.551	76	73
255.84	256.234	61	40
255.966	256.374	64	40
256.093	256.551	57	47
256.093	256.551	73	66
256.234	256.551	61	38
256.374	256.551	64	33
256.515	256.988	54	38
256.515	256.97	69	50
256.667	256.988	57	29
256.818	256.988	63	29
256.97	258.274	52	23
256.97	258.274	64	29
256.97	257.885	69	50
256.97	257.885	73	50
257.839	258.274	68	46
257.839	258.274	71	46
258.274	258.415	57	44
258.274	258.362	73	53
258.392	258.533	63	32
258.509	258.627	64	32
258.627	258.768	57	40
258.627	258.715	73	49
258.745	258.889	63	32
258.864	258.986	64	32
258.986	259.335	59	40
258.986	259.104	74	49
259.045	259.335	76	47
259.104	259.335	63	34
259.104	259.251	74	47
259.163	259.335	73	49
259.222	259.339	64	34
259.251	259.339	74	49
259.339	259.481	61	41
259.339	259.692	76	53
259.457	259.598	63	31
259.575	259.692	64	31
259.692	259.833	61	40
259.81	259.957	63	30
259.932	260.056	64	30
260.056	260.194	57	40
260.056	260.15	78	53
260.141	260.238	76	52
260.17	260.312	63	36
260.229	260.327	74	51
260.288	260.409	64	36
260.318	260.418	73	49
260.409	260.55	56	44
260.409	260.497	71	53
260.527	260.668	63	33
260.644	260.762	64	33
260.762	260.903	56	40
260.762	260.85	71	49
260.879	261.024	63	33
260.999	261.121	64	33
261.121	261.436	57	40
261.121	261.239	73	49
261.18	261.436	74	47
261.239	261.436	63	33
261.239	261.386	73	47
261.298	261.436	71	49
261.356	261.474	64	33
261.386	261.474	73	49
261.474	261.615	59	45
261.474	261.827	74	53
261.592	261.733	63	33
261.709	261.827	64	33
261.827	261.968	59	38
261.945	262.092	63	29
262.067	262.19	64	29
262.19	262.328	56	40
262.19	262.285	76	53
262.276	262.373	74	52
262.305	262.447	63	35
262.364	262.462	73	51
262.423	262.544	64	36
262.453	262.552	71	49
262.544	262.685	54	44
262.544	262.632	69	53
262.661	262.802	63	34
262.779	262.897	64	34
262.897	263.038	54	40
262.897	262.985	69	49
263.014	263.158	63	33
263.134	263.256	64	33
263.256	263.587	54	40
263.256	263.374	71	49
263.315	263.587	73	47
263.374	263.587	62	33
263.374	263.521	71	47
263.432	263.587	69	49
263.491	263.609	64	33
263.521	263.609	71	49
263.609	263.75	57	44
263.609	263.697	73	53
263.727	263.868	61	35
263.844	263.962	64	33
263.962	264.103	57	40
263.962	264.05	73	49
264.079	264.224	61	33
264.199	264.321	64	33
264.321	264.686	50	40
264.321	264.439	74	49
264.38	264.686	76	47
264.439	264.686	54	31
264.439	264.586	74	47
264.498	264.674	73	49
264.556	264.686	59	31
264.586	264.686	74	49
264.674	264.815	52	44
264.674	264.762	73	53
264.792	264.933	57	33
264.909	265.027	61	33
265.027	265.168	52	40
265.027	265.115	73	49
265.145	265.289	57	35
265.264	265.386	61	35
265.386	265.717	52	40
265.386	265.504	71	49
265.445	265.717	73	47
265.504	265.717	56	35
265.504	265.651	71	47
265.563	265.717	69	49
265.622	265.739	62	35
265.651	265.739	71	49
265.739	266.879	57	34
265.739	266.499	62	40
265.739	266.879	64	34
265.739	266.499	68	45
265.739	266.119	71	53
266.119	266.499	72	55
266.499	266.879	61	45
266.499	266.879	69	47
266.499	266.879	73	56
266.879	267.223	45	74
266.879	267.223	73	74
266.996	267.223	69	53
267.114	267.232	64	53
267.143	267.223	56	59
267.232	267.408	57	68
267.232	267.373	73	72
267.349	267.49	69	53
267.467	267.584	64	53
267.496	267.584	58	62
267.584	267.753	59	70
267.584	267.719	74	71
267.697	267.832	68	53
267.809	267.922	64	53
267.922	268.291	52	74
267.922	268.275	76	74
268.039	268.291	73	53
268.157	268.291	69	53
268.186	268.291	60	63
268.275	268.451	61	67
268.275	268.416	76	72
268.392	268.533	73	53
268.51	268.627	69	53
268.539	268.627	61	63
268.627	268.815	62	69
268.627	268.777	78	71
268.752	268.902	71	53
268.877	269.002	69	53
269.002	269.35	40	74
269.002	269.35	73	74
269.123	269.35	69	53
269.243	269.364	64	53
269.274	269.35	51	62
269.364	269.545	52	67
269.364	269.508	73	72
269.484	269.629	69	53
269.605	269.725	64	53
269.635	269.725	51	61
269.725	269.918	52	68
269.725	269.879	71	71
269.854	270.007	68	53
269.982	270.11	62	53
270.11	270.561	33	74
270.11	270.561	69	74
270.249	270.561	64	53
270.388	270.561	61	53
270.422	270.561	44	61
270.527	270.735	45	67
270.527	270.735	57	72
273.86	275.065	57	43
273.86	275.065	72	50
274.193	274.77	64	34
274.193	274.77	71	47
274.487	275.673	60	40
274.487	275.673	69	50
274.77	275.348	64	35
274.77	275.673	71	46
275.065	275.648	57	41
275.065	275.673	72	47
275.348	275.673	64	34
275.348	275.673	74	48
275.648	276.267	57	42
275.648	276.267	76	50
275.954	276.267	64	36
275.954	276.267	75	46
276.242	277.477	60	41
276.242	277.477	77	55
276.542	277.114	64	36
276.542	277.477	76	53
276.82	277.477	57	41
276.82	277.477	74	51
277.114	277.477	64	36
277.114	277.477	72	48
277.447	278.627	52	43
277.447	278.627	71	50
277.767	278.344	64	34
277.767	278.344	69	47
278.067	279.228	59	40
278.067	279.228	68	50
278.344	278.921	64	35
278.344	279.228	69	46
278.627	279.216	52	41
278.627	279.228	71	47
278.921	279.228	64	34
278.921	279.228	72	48
279.216	279.825	52	42
279.216	279.825	74	50
279.516	279.825	64	36
279.516	279.825	73	46
279.793	280.943	59	41
279.793	280.943	76	54
280.082	280.649	64	36
280.082	280.943	74	52
280.355	280.943	52	41
280.355	280.943	72	51
280.649	280.943	64	36
280.649	280.943	71	49
280.943	282.11	57	43
280.943	282.145	69	50
281.255	281.822	64	34
281.255	281.822	76	47
281.533	282.145	60	40
281.533	282.145	75	50
281.822	282.145	64	35
281.822	282.145	76	46
282.11	282.724	57	41
282.11	282.724	72	47
282.41	282.724	64	34
282.41	282.724	69	48
282.71	283.341	59	42
282.71	283.341	68	50
283.036	283.341	64	36
283.036	283.341	76	46
283.314	284.545	62	41
283.314	284.545	77	55
283.608	284.18	64	36
283.608	284.545	76	53
283.886	284.545	59	41
283.886	284.545	74	51
284.18	284.545	64	36
284.18	284.537	71	48
284.537	285.191	60	43
284.537	285.191	71	50
284.863	285.191	64	34
284.863	285.191	69	47
285.163	286.456	59	40
285.163	286.456	68	50
285.463	286.082	64	35
285.463	286.439	69	46
285.763	286.456	57	41
285.763	286.456	71	47
286.082	286.456	64	34
286.082	286.439	72	48
286.439	287.737	52	42
286.439	287.759	69	41
286.439	287.759	72	41
286.773	287.411	64	36
287.085	287.759	63	41
287.411	287.759	64	36
287.737	288.417	52	41
287.737	288.417	68	41
287.737	288.417	71	41
288.064	288.417	64	36
288.39	289.594	57	41
288.39	289.594	72	44
288.39	289.594	84	53
288.723	289.3	64	33
288.723	289.3	71	40
288.723	289.3	83	48
289.017	290.214	60	39
289.017	290.214	69	46
289.017	290.214	81	55
289.3	289.888	64	36
289.3	290.214	71	44
289.3	290.214	83	52
289.594	290.188	57	43
289.594	290.214	72	47
289.594	290.214	84	55
289.888	290.214	64	36
289.888	290.214	74	43
289.888	290.214	86	52
290.188	290.806	57	46
290.188	290.806	76	53
290.188	290.806	88	63
290.494	290.806	64	39
290.494	290.806	75	43
290.494	290.806	87	58
290.783	292.011	60	46
290.783	292.011	77	53
290.783	292.011	89	63
291.066	291.648	64	40
291.066	292.011	76	50
291.066	292.011	88	60
291.354	292.011	57	46
291.354	292.011	74	54
291.354	292.011	86	64
291.648	292.011	64	40
291.648	292.011	72	48
291.648	292.011	84	57
291.982	293.172	52	49
291.982	293.172	71	56
291.982	293.172	83	66
292.301	292.889	64	39
292.301	292.889	69	49
292.301	292.889	81	58
292.601	293.773	59	46
292.601	293.773	68	54
292.601	293.773	80	64
292.889	293.467	64	40
292.889	293.773	69	49
292.889	293.773	81	58
293.172	293.761	52	47
293.172	293.773	71	54
293.172	293.773	83	64
293.467	293.773	64	39
293.467	293.773	72	51
293.467	293.773	84	60
293.761	294.375	52	48
293.761	294.375	74	49
293.761	294.375	86	66
294.061	294.375	64	41
294.061	294.375	73	45
294.061	294.375	85	60
294.338	295.501	59	47
294.338	295.501	76	60
294.338	295.501	88	71
294.627	295.194	64	41
294.627	295.501	74	57
294.627	295.501	86	68
294.9	295.501	52	47
294.9	295.501	72	55
294.9	295.501	84	65
295.194	295.501	64	41
295.194	295.501	71	52
295.194	295.501	83	62
295.488	296.7	57	49
295.488	296.088	69	55
295.488	296.088	81	65
295.794	296.377	64	39
295.794	296.7	68	51
295.794	296.7	80	60
296.088	296.7	60	46
296.088	296.7	69	56
296.088	296.7	81	66
296.377	296.7	64	40
296.377	296.7	72	51
296.377	296.7	84	60
296.665	297.293	56	47
296.665	297.293	71	53
296.665	297.293	83	63
296.965	297.293	64	39
296.965	297.293	74	53
296.965	297.293	86	63
297.265	297.887	57	48
297.265	297.86	72	56
297.265	297.86	84	66
297.571	297.887	64	41
297.571	297.887	71	51
297.571	297.887	83	60
297.86	299.114	60	47
297.86	299.114	72	60
297.86	299.114	84	71
298.154	299.114	64	41
298.154	299.093	76	56
298.154	299.093	88	67
298.442	299.114	53	47
298.442	299.114	74	55
298.442	299.114	86	65
298.736	299.114	62	41
298.736	299.114	77	55
298.736	299.114	89	65
299.093	299.748	52	49
299.093	299.718	76	56
299.093	299.718	88	67
299.406	299.748	60	39
299.406	299.748	75	50
299.406	299.748	87	59
299.718	301.172	57	46
299.718	300.038	76	56
299.718	301.172	88	66
300.038	301.172	60	40
300.038	301.172	64	51
300.038	301.172	76	60
300.371	301.172	52	47
300.371	301.172	66	53
300.371	301.172	78	63
300.712	301.172	59	39
300.712	301.172	68	53
300.712	301.172	80	63
301.107	301.192	45	54
301.107	302.538	69	53
301.107	302.538	81	63
301.448	301.533	48	52
301.788	301.882	52	57
302.163	302.257	57	54
302.538	302.726	45	60
303.288	304.487	57	43
303.288	304.487	72	50
303.622	304.193	64	34
303.622	304.193	71	47
303.91	305.094	60	40
303.91	305.094	69	50
304.193	304.77	64	35
304.193	305.094	71	46
304.487	305.07	57	41
304.487	305.094	72	47
304.77	305.094	64	34
304.77	305.094	74	48
305.07	305.671	57	42
305.07	305.671	76	50
305.359	305.671	64	36
305.359	305.671	75	46
305.647	306.87	60	41
305.647	306.87	77	55
305.936	306.508	64	36
305.936	306.87	76	53
306.214	306.87	57	41
306.214	306.87	74	51
306.508	306.87	64	36
306.508	306.87	72	48
306.841	308.021	52	43
306.841	308.021	71	50
307.16	307.738	64	34
307.16	307.738	69	47
307.46	308.621	59	40
307.46	308.621	68	50
307.738	308.315	64	35
307.738	308.621	69	46
308.021	308.609	52	41
308.021	308.621	71	47
308.315	308.621	64	34
308.315	308.621	72	48
308.609	309.199	52	42
308.609	309.199	74	50
308.892	309.199	64	36
308.892	309.199	73	46
309.17	309.464	59	41
309.17	309.464	76	54
309.464	310.031	64	36
309.464	310.333	74	52
309.737	310.333	52	41
309.737	310.333	72	51
310.031	310.333	64	36
310.031	310.333	71	49
310.325	311.492	57	43
310.325	311.532	69	50
310.638	311.204	64	34
310.638	311.204	76	47
310.915	311.532	60	40
310.915	311.532	75	50
311.204	311.532	64	35
311.204	311.532	76	46
311.492	312.106	57	41
311.492	312.106	72	47
311.792	312.106	64	34
311.792	312.106	69	48
312.092	312.723	59	42
312.092	312.723	68	50
312.418	312.723	64	36
312.418	312.723	76	46
312.696	313.924	62	41
312.696	313.924	77	55
312.985	313.556	64	36
312.985	313.924	76	53
313.262	313.924	59	41
313.262	313.924	74	51
313.556	313.924	64	36
313.556	313.914	71	48
313.914	314.566	60	43
313.914	314.566	71	50
314.24	314.566	64	34
314.24	314.566	69	47
314.54	315.852	59	40
314.54	315.852	68	50
314.828	315.447	64	35
314.828	315.804	69	46
315.128	315.852	57	41
315.128	315.852	71	47
315.447	315.852	64	34
315.447	315.804	72	48
315.804	317.102	52	42
315.804	317.124	69	41
315.804	317.124	72	41
316.138	316.776	64	36
316.45	317.124	63	41
316.776	317.124	64	36
317.102	317.782	52	41
317.102	317.782	68	41
317.102	317.782	71	41
317.429	317.782	64	36
317.755	318.959	57	41
317.755	318.959	72	44
317.755	318.959	84	53
318.088	318.665	64	33
318.088	318.665	71	40
318.088	318.665	83	48
318.382	319.578	60	39
318.382	319.578	69	46
318.382	319.578	81	55
318.665	319.253	64	36
318.665	319.578	71	44
318.665	319.578	83	52
318.959	319.553	57	43
318.959	319.578	72	47
318.959	319.578	84	55
319.253	319.578	64	36
319.253	319.578	74	43
319.253	319.578	86	52
319.553	320.159	57	46
319.553	320.159	76	53
319.553	320.159	88	63
319.847	320.159	64	39
319.847	320.159	75	43
319.847	320.159	87	58
320.136	321.354	60	46
320.136	321.354	77	53
320.136	321.354	89	63
320.409	320.991	64	40
320.409	321.354	76	50
320.409	321.354	88	60
320.697	321.354	57	46
320.697	321.354	74	54
320.697	321.354	86	64
320.991	321.354	64	40
320.991	321.354	72	48
320.991	321.354	84	57
321.325	322.5	52	49
321.325	322.5	71	56
321.325	322.5	83	66
321.644	322.232	64	39
321.644	322.232	69	49
321.644	322.232	81	58
321.944	323.1	59	46
321.944	323.1	68	54
321.944	323.1	80	64
322.232	322.794	64	40
322.232	323.1	69	49
322.232	323.1	81	58
322.5	323.088	52	47
322.5	323.1	71	54
322.5	323.1	83	64
322.794	323.1	64	39
322.794	323.1	72	51
322.794	323.1	84	60
323.088	323.686	52	48
323.088	323.686	74	49
323.088	323.686	86	66
323.377	323.686	64	41
323.377	323.686	73	45
323.377	323.686	85	60
323.655	324.814	59	47
323.655	324.814	76	60
323.655	324.814	88	71
323.943	324.51	64	41
323.943	324.814	74	57
323.943	324.814	86	68
324.216	324.814	52	47
324.216	324.814	72	55
324.216	324.814	84	65
324.51	324.814	64	41
324.51	324.814	71	52
324.51	324.814	83	62
324.804	326.007	57	49
324.804	325.398	69	55
324.804	325.398	81	65
325.104	325.681	64	39
325.104	326.007	68	51
325.104	326.007	80	60
325.398	326.007	60	46
325.398	326.007	69	56
325.398	326.007	81	66
325.681	326.007	64	40
325.681	326.007	72	51
325.681	326.007	84	60
325.97	326.598	56	47
325.97	326.598	71	53
325.97	326.598	83	63
326.27	326.598	64	39
326.27	326.598	74	53
326.27	326.598	86	63
326.57	327.191	57	48
326.57	327.164	72	56
326.57	327.164	84	66
326.876	327.191	64	41
326.876	327.191	71	51
326.876	327.191	83	60
327.164	328.408	60	47
327.164	328.408	72	60
327.164	328.408	84	71
327.458	328.408	64	41
327.458	328.398	76	56
327.458	328.398	88	67
327.747	328.408	53	47
327.747	328.408	74	55
327.747	328.408	86	65
328.041	328.408	62	41
328.041	328.408	77	55
328.041	328.408	89	65
328.398	329.052	52	49
328.398	329.023	76	56
328.398	329.023	88	67
328.71	329.052	60	39
328.71	329.052	75	50
328.71	329.052	87	59
329.023	330.476	57	46
329.023	329.342	76	56
329.023	330.476	88	66
329.342	330.476	60	40
329.342	330.476	64	51
329.342	330.476	76	60
329.675	330.476	52	47
329.675	330.476	66	53
329.675	330.476	78	63
330.016	330.476	59	39
330.016	330.476	68	53
330.016	330.476	80	63
330.411	330.496	45	54
330.411	331.843	69	53
330.411	331.843	81	63
330.752	330.837	48	52
331.093	331.187	52	57
331.468	331.562	57	54
331.843	332.03	45	60
332.593	334.412	57	37
332.593	333.841	60	44
332.593	333.225	69	50
332.919	333.841	68	46
333.225	333.841	69	50
333.508	333.841	81	55
333.808	334.438	61	44
333.808	334.438	80	54
334.086	334.412	79	53
334.412	336.212	57	37
334.412	336.219	62	44
334.412	336.219	79	50
334.701	335.267	77	48
334.989	335.561	76	48
335.267	335.855	77	48
335.561	336.219	76	50
335.855	336.219	77	48
336.212	337.962	57	34
336.212	336.768	65	41
336.212	336.768	81	50
336.495	337.046	64	39
336.495	337.046	80	45
336.768	337.334	65	41
336.768	337.334	81	50
337.046	337.376	64	37
337.046	337.376	80	45
337.334	337.996	65	41
337.334	337.996	81	50
337.628	337.962	62	38
337.628	337.962	77	46
337.962	339.723	57	34
337.962	338.577	62	41
337.962	338.577	77	50
338.256	338.577	60	37
338.256	338.577	76	47
338.539	339.116	59	41
338.539	339.116	75	47
338.827	339.404	60	38
338.827	339.404	76	47
339.116	339.733	59	41
339.116	339.733	75	50
339.404	339.723	60	38
339.404	339.723	76	45
339.723	341.518	57	34
339.723	340.878	60	41
339.723	340.907	76	50
340.023	340.595	62	39
340.023	340.907	74	46
340.306	340.907	64	39
340.306	340.907	72	46
340.595	340.907	62	41
340.595	340.907	71	46
340.878	341.518	60	39
340.878	341.518	69	44
341.172	341.518	76	50
341.505	342.13	56	28
341.505	342.1	59	34
341.505	342.13	77	47
341.811	342.13	57	30
341.811	342.13	60	36
341.811	342.13	74	47
342.1	342.706	59	31
342.1	342.688	62	37
342.1	342.706	71	47
342.4	342.706	60	32
342.4	342.706	64	38
342.4	342.706	69	47
342.688	343.324	62	34
342.688	343.324	65	40
342.688	343.324	68	50
342.988	343.307	71	47
343.307	343.955	60	32
343.307	343.921	64	38
343.307	343.955	71	50
343.601	343.955	69	43
343.921	344.591	56	34
343.921	344.548	64	41
343.921	344.591	72	55
344.215	344.591	71	49
344.548	345.243	57	37
344.548	345.243	64	44
344.548	345.243	74	58
344.854	345.243	72	51
345.148	345.257	71	54
345.257	345.366	72	56
345.366	345.474	74	58
345.474	346.717	51	49
345.474	346.717	69	55
345.474	346.717	72	65
346.691	347.226	52	33
346.691	347.226	68	36
346.691	347.226	71	51
347.405	348.595	57	43
347.405	348.595	72	50
347.724	348.301	64	34
347.724	348.301	71	47
348.018	349.204	60	40
348.018	349.204	69	50
348.301	348.878	64	35
348.301	349.204	71	46
348.595	349.178	57	41
348.595	349.204	72	47
348.878	349.204	64	34
348.878	349.204	74	48
349.178	349.798	57	42
349.178	349.798	76	50
349.484	349.798	64	36
349.484	349.798	75	46
349.773	351.006	60	41
349.773	351.006	77	55
350.073	350.645	64	36
350.073	351.006	76	53
350.351	351.006	57	41
350.351	351.006	74	51
350.645	351.006	64	36
350.645	351.006	72	48
350.978	352.139	52	43
350.978	352.139	71	50
351.278	351.856	64	34
351.278	351.856	69	47
351.578	352.74	59	40
351.578	352.74	68	50
351.856	352.433	64	35
351.856	352.74	69	46
352.139	352.727	52	41
352.139	352.74	71	47
352.433	352.74	64	34
352.433	352.74	72	48
352.727	353.336	52	42
352.727	353.336	74	50
353.027	353.336	64	36
353.027	353.336	73	46
353.305	354.487	59	41
353.305	354.487	76	54
353.611	354.178	64	36
353.611	354.487	74	52
353.884	354.487	52	41
353.884	354.487	72	51
354.178	354.487	64	36
354.178	354.487	71	49
354.472	355.653	57	43
354.472	355.044	69	50
354.766	355.332	64	34
354.766	355.653	68	47
355.044	355.653	60	40
355.044	355.653	69	50
355.332	355.653	64	35
355.332	355.653	72	46
355.621	356.251	56	41
355.621	356.251	71	52
355.921	356.251	64	34
355.921	356.251	74	48
356.221	356.852	57	42
356.221	356.825	72	56
356.547	356.852	64	36
356.547	356.852	71	50
356.825	358.059	60	41
356.825	358.059	72	54
357.119	358.059	64	36
357.119	358.048	76	50
357.397	358.059	53	41
357.397	358.059	74	55
357.691	358.059	62	36
357.691	358.059	77	48
358.048	358.701	52	43
358.048	358.674	76	60
358.374	358.701	60	34
358.374	358.701	75	54
358.674	359.95	57	40
358.674	359.989	76	56
358.974	359.989	60	35
358.974	359.989	64	43
359.274	359.989	52	41
359.274	359.989	66	43
359.593	359.989	59	34
359.593	359.989	68	46
359.95	361.235	45	43
359.95	361.235	57	46
359.95	360.596	69	51
360.284	361.235	68	44
360.596	361.235	69	50
360.902	361.235	64	45
361.208	361.855	60	49
361.527	361.855	64	46
361.847	363.069	45	49
361.847	362.46	69	55
361.847	362.46	81	65
362.166	362.748	52	39
362.166	363.069	68	51
362.166	363.069	80	60
362.46	363.069	48	46
362.46	363.069	69	56
362.46	363.069	81	66
362.748	363.069	52	40
362.748	363.069	72	51
362.748	363.069	84	60
363.037	363.665	44	47
363.037	363.665	71	53
363.037	363.665	83	63
363.337	363.665	52	39
363.337	363.665	74	53
363.337	363.665	86	63
363.637	364.265	45	48
363.637	364.238	72	56
363.637	364.238	84	66
363.949	364.265	52	41
363.949	364.265	71	51
363.949	364.265	83	60
364.238	365.482	48	47
364.238	365.482	72	60
364.238	365.482	84	71
364.532	365.482	52	41
364.532	365.472	76	56
364.532	365.472	88	67
364.82	365.482	41	47
364.82	365.482	74	55
364.82	365.482	86	65
365.114	365.482	50	41
365.114	365.482	77	55
365.114	365.482	89	65
365.472	366.126	40	49
365.472	366.097	76	56
365.472	366.097	88	67
365.784	366.126	48	39
365.784	366.126	75	50
365.784	366.126	87	59
366.097	367.55	45	46
366.097	366.416	76	56
366.097	367.55	88	66
366.416	367.55	48	40
366.416	367.55	64	51
366.416	367.55	76	60
366.749	367.55	40	47
366.749	367.55	66	53
366.749	367.55	78	63
367.09	367.55	47	39
367.09	367.55	68	53
367.09	367.55	80	63
367.485	367.57	33	54
367.485	368.917	69	53
367.485	368.917	81	63
367.826	367.911	36	52
368.167	368.26	40	57
368.542	368.635	45	54
368.917	369.104	33	60
369.667	371.466	57	37
369.667	370.897	60	44
369.667	370.279	69	50
369.973	370.897	68	46
370.279	370.897	69	50
370.562	370.897	81	55
370.862	371.492	61	44
370.862	371.492	80	54
371.14	371.466	79	53
371.466	373.266	57	37
371.466	373.276	62	44
371.466	373.276	79	50
371.754	372.32	77	48
372.043	372.615	76	48
372.32	372.909	77	48
372.615	373.276	76	50
372.909	373.276	77	48
373.266	375.026	57	34
373.266	373.833	65	41
373.266	373.833	81	50
373.56	374.11	64	39
373.56	374.11	80	45
373.833	374.399	65	41
373.833	374.399	81	50
374.11	374.433	64	37
374.11	374.433	80	45
374.399	375.062	65	41
374.399	375.062	81	50
374.693	375.026	62	38
374.693	375.026	77	46
375.026	376.784	57	34
375.026	375.649	62	41
375.026	375.649	77	50
375.332	375.649	60	37
375.332	375.649	76	47
375.615	376.182	59	41
375.615	376.182	75	47
375.904	376.465	60	38
375.904	376.465	76	47
376.182	376.794	59	41
376.182	376.794	75	50
376.465	376.784	60	38
376.465	376.784	76	45
376.784	378.591	57	34
376.784	377.951	60	41
376.784	377.98	76	50
377.096	377.668	62	39
377.096	377.98	74	46
377.379	377.98	64	39
377.379	377.98	72	46
377.668	377.98	62	41
377.668	377.98	71	46
377.951	378.591	60	39
377.951	378.591	69	44
378.245	378.591	76	50
378.578	379.207	56	28
378.578	379.179	59	34
378.578	379.207	77	47
378.891	379.207	57	30
378.891	379.207	60	36
378.891	379.207	74	47
379.179	379.785	59	31
379.179	379.768	62	37
379.179	379.785	71	47
379.479	379.785	60	32
379.479	379.785	64	38
379.479	379.785	69	47
379.768	380.404	62	34
379.768	380.404	65	40
379.768	380.404	68	50
380.068	380.387	71	47
380.387	381.027	60	32
380.387	381.0	64	38
380.387	381.027	71	50
380.681	381.027	69	43
381.0	381.661	56	34
381.0	381.628	64	41
381.0	381.661	72	55
381.294	381.661	71	49
381.628	382.323	57	37
381.628	382.323	64	44
381.628	382.323	74	58
381.934	382.323	72	51
382.228	382.336	71	54
382.336	382.445	72	56
382.445	382.554	74	58
382.554	383.8	51	49
382.554	383.8	69	55
382.554	383.8	72	65
383.77	384.306	52	33
383.77	384.306	68	36
383.77	384.306	71	51
384.484	385.676	57	43
384.484	385.676	72	50
384.81	385.388	64	34
384.81	385.388	71	47
385.105	386.285	60	40
385.105	386.285	69	50
385.388	385.959	64	35
385.388	386.285	71	46
385.676	386.259	57	41
385.676	386.285	72	47
385.959	386.285	64	34
385.959	386.285	74	48
386.259	386.879	57	42
386.259	386.879	76	50
386.565	386.879	64	36
386.565	386.879	75	46
386.854	388.086	60	41
386.854	388.086	77	55
387.154	387.726	64	36
387.154	388.086	76	53
387.431	388.086	57	41
387.431	388.086	74	51
387.726	388.086	64	36
387.726	388.086	72	48
388.059	389.22	52	43
388.059	389.22	71	50
388.359	388.937	64	34
388.359	388.937	69	47
388.659	389.82	59	40
388.659	389.82	68	50
388.937	389.514	64	35
388.937	389.82	69	46
389.22	389.808	52	41
389.22	389.82	71	47
389.514	389.82	64	34
389.514	389.82	72	48
389.808	390.417	52	42
389.808	390.417	74	50
390.108	390.417	64	36
390.108	390.417	73	46
390.381	391.543	59	41
390.381	391.543	76	54
390.675	391.242	64	36
390.675	391.543	74	52
390.948	391.543	52	41
390.948	391.543	72	51
391.242	391.543	64	36
391.242	391.543	71	49
391.536	392.716	57	43
391.536	392.12	69	50
391.842	392.397	64	34
391.842	392.716	68	47
392.12	392.716	60	40
392.12	392.716	69	50
392.397	392.716	64	35
392.397	392.716	72	46
392.686	393.313	56	41
392.686	393.313	71	52
392.986	393.313	64	34
392.986	393.313	74	48
393.286	393.885	57	42
393.286	393.858	72	56
393.58	393.885	64	36
393.58	393.885	71	50
393.858	395.095	60	41
393.858	395.095	72	54
394.152	395.095	64	36
394.152	395.081	76	50
394.43	395.095	53	41
394.43	395.095	74	55
394.724	395.095	62	36
394.724	395.095	77	48
395.081	395.735	52	43
395.081	395.707	76	60
395.407	395.735	60	34
395.407	395.735	75	54
395.707	396.983	57	40
395.707	397.025	76	56
396.007	397.025	60	35
396.007	397.025	64	43
396.307	397.025	52	41
396.307	397.025	66	43
396.626	397.025	59	34
396.626	397.025	68	46
396.983	398.263	45	43
396.983	398.263	57	46
396.983	397.629	69	51
397.317	398.263	68	44
397.629	398.263	69	50
397.935	398.263	64	45
398.241	398.892	60	49
398.561	398.892	64	46
398.88	400.066	45	49
398.88	399.452	69	55
398.88	399.452	81	65
399.174	399.74	52	39
399.174	400.066	68	51
399.174	400.066	80	60
399.452	400.066	48	46
399.452	400.066	69	56
399.452	400.066	81	66
399.74	400.066	52	40
399.74	400.066	72	51
399.74	400.066	84	60
400.029	400.656	44	47
400.029	400.656	71	53
400.029	400.656	83	63
400.329	400.656	52	39
400.329	400.656	74	53
400.329	400.656	86	63
400.629	401.233	45	48
400.629	401.206	72	56
400.629	401.206	84	66
400.929	401.233	52	41
400.929	401.233	71	51
400.929	401.233	83	60
401.206	402.451	48	47
401.206	402.451	72	60
401.206	402.451	84	71
401.5	402.451	52	41
401.5	402.44	76	56
401.5	402.44	88	67
401.789	402.451	41	47
401.789	402.451	74	55
401.789	402.451	86	65
402.083	402.451	50	41
402.083	402.451	77	55
402.083	402.451	89	65
402.44	403.094	40	49
402.44	403.065	76	56
402.44	403.065	88	67
402.753	403.094	48	39
402.753	403.094	75	50
402.753	403.094	87	59
403.065	404.536	45	46
403.065	403.384	76	56
403.065	404.536	88	66
403.384	404.536	48	40
403.384	404.536	64	51
403.384	404.536	76	60
403.718	404.536	40	47
403.718	404.536	66	53
403.718	404.536	78	63
404.059	404.536	47	39
404.059	404.536	68	53
404.059	404.536	80	63
404.464	404.558	33	52
404.464	406.061	69	53
404.464	406.061	81	63
404.839	404.933	36	49
405.214	405.315	40	56
405.619	405.73	45	51
406.061	406.281	33	58
410.856	413.436	45	39
410.856	413.436	57	47
410.856	411.348	69	50
410.856	411.348	73	50
411.102	411.556	64	50
411.348	412.986	69	44
411.348	412.182	73	44
411.348	412.986	81	52
411.348	412.182	85	52
411.556	411.973	64	49
411.773	412.577	71	45
411.773	412.577	74	45
411.773	412.577	83	53
411.773	412.577	86	53
411.973	412.385	64	50
412.182	412.986	73	46
412.182	413.436	76	46
412.182	412.986	85	55
412.182	413.436	88	55
412.385	412.777	64	50
412.577	413.427	71	45
412.577	413.436	74	45
412.577	413.436	83	53
412.577	413.436	86	53
412.777	413.206	64	49
412.986	413.436	69	44
412.986	413.436	73	44
412.986	413.436	81	52
412.986	413.436	85	52
413.206	413.436	64	48
413.427	415.949	40	39
413.427	415.949	52	47
413.427	413.875	68	50
413.427	413.875	71	50
413.651	414.08	64	50
413.875	415.503	68	44
413.875	414.697	71	44
413.875	415.503	80	52
413.875	414.697	83	52
414.08	414.489	64	49
414.291	415.092	69	45
414.291	415.092	73	45
414.291	415.092	81	53
414.291	415.092	85	53
414.489	414.897	64	50
414.697	415.503	71	46
414.697	415.949	74	46
414.697	415.503	83	55
414.697	415.949	86	55
414.897	415.292	64	50
415.092	415.938	69	45
415.092	415.949	73	45
415.092	415.949	81	53
415.092	415.949	85	53
415.292	415.721	64	49
415.503	415.949	68	44
415.503	415.949	71	44
415.503	415.949	80	52
415.503	415.949	83	52
415.721	415.938	64	48
415.938	416.793	45	44
415.938	416.793	57	52
415.938	416.379	64	54
415.938	416.379	69	54
416.155	416.591	61	50
416.379	416.793	64	45
416.379	416.793	69	45
416.379	417.226	81	54
416.591	416.993	61	50
416.793	417.226	45	39
416.793	417.226	57	47
416.793	417.226	64	54
416.793	417.226	69	54
416.993	417.226	61	50
417.208	418.019	40	43
417.208	418.019	52	51
417.208	417.608	68	55
417.208	417.608	71	55
417.405	417.808	64	51
417.608	418.019	68	47
417.608	418.019	71	47
417.608	418.459	83	56
417.808	418.233	64	51
418.019	418.459	40	39
418.019	418.459	52	47
418.019	418.459	68	50
418.019	418.459	71	50
418.233	418.459	64	48
418.447	418.886	69	46
418.447	418.886	73	46
418.447	418.886	81	55
418.447	418.886	85	55
418.653	418.886	64	50
418.867	419.293	71	45
418.867	419.293	74	45
418.867	419.293	83	53
418.867	419.293	86	53
419.067	419.293	64	49
419.276	419.738	69	44
419.276	419.738	73	44
419.276	419.738	81	52
419.276	419.738	85	52
419.49	419.738	64	48
419.714	420.13	68	44
419.714	420.13	71	44
419.714	420.161	80	52
419.714	420.161	83	52
419.938	420.161	64	49
420.161	420.396	64	48
420.161	420.396	75	56
420.396	420.63	76	53
420.63	420.898	52	43
420.63	420.898	75	56
420.898	421.166	76	53
421.166	423.742	45	65
421.166	423.742	57	80
421.166	421.658	69	60
421.166	421.658	73	60
421.412	421.866	64	60
421.658	423.296	69	52
421.658	422.492	73	52
421.658	423.296	81	57
421.658	422.492	85	68
421.866	422.283	64	58
422.083	422.887	71	54
422.083	422.887	74	54
422.083	422.887	83	58
422.083	422.887	86	69
422.283	422.694	64	60
422.492	423.296	73	55
422.492	423.742	76	55
422.492	423.296	85	61
422.492	423.742	88	72
422.694	423.087	64	60
422.887	423.731	71	54
422.887	423.742	74	54
422.887	423.742	83	58
422.887	423.742	86	69
423.087	423.51	64	58
423.296	423.742	69	52
423.296	423.742	73	52
423.296	423.742	81	57
423.296	423.742	85	68
423.51	423.742	64	57
423.731	426.264	40	65
423.731	426.264	52	80
423.731	424.178	68	60
423.731	424.178	71	60
423.955	424.384	64	60
424.178	425.812	68	52
424.178	425.006	71	52
424.178	425.812	80	57
424.178	425.006	83	68
424.384	424.798	64	58
424.595	425.401	69	54
424.595	425.401	73	54
424.595	425.401	81	58
424.595	425.401	85	69
424.798	425.206	64	60
425.006	425.812	71	55
425.006	426.264	74	55
425.006	425.812	83	61
425.006	426.264	86	72
425.206	425.601	64	60
425.401	426.253	69	54
425.401	426.264	73	54
425.401	426.264	81	58
425.401	426.264	85	69
425.601	426.033	64	58
425.812	426.264	68	52
425.812	426.264	71	52
425.812	426.264	80	57
425.812	426.264	83	68
426.033	426.253	64	57
426.253	427.523	45	65
426.253	427.523	57	77
426.253	426.667	64	64
426.253	426.667	69	64
426.459	426.87	61	60
426.667	427.29	64	54
426.667	427.504	69	54
426.667	427.504	73	59
426.667	427.504	81	70
426.87	427.523	61	60
427.084	427.523	68	64
427.084	427.523	71	64
427.084	427.523	76	59
427.084	427.523	83	70
427.29	427.523	64	60
427.504	427.915	69	66
427.504	427.915	73	66
427.504	428.787	81	61
427.504	428.787	85	73
427.709	428.787	64	61
427.915	428.787	42	63
427.915	428.787	54	76
427.915	428.773	69	56
427.915	428.773	73	56
428.126	428.555	66	61
428.347	428.787	38	57
428.347	428.787	50	70
428.347	428.787	71	60
428.347	428.787	74	60
428.555	428.787	66	57
428.773	429.231	40	71
428.773	429.231	52	84
428.773	429.211	69	60
428.773	429.211	73	60
428.987	429.231	64	66
429.211	429.675	69	47
429.211	429.675	73	47
429.211	429.675	81	50
429.211	429.675	85	60
429.428	429.675	64	50
429.655	430.138	68	45
429.655	430.138	71	45
429.655	430.138	80	49
429.655	430.138	83	59
429.886	430.138	64	49
430.117	430.581	69	53
430.117	430.617	81	53
430.367	430.617	64	48
430.617	430.88	57	49
430.617	430.88	61	50
430.88	431.174	64	41
431.174	431.615	45	44
431.174	431.615	69	48
432.056	434.637	45	39
432.056	434.637	57	47
432.056	432.548	69	50
432.056	432.548	73	50
432.302	432.757	64	50
432.548	434.186	69	44
432.548	433.382	73	44
432.548	434.186	81	52
432.548	433.382	85	52
432.757	433.174	64	49
432.974	433.778	71	45
432.974	433.778	74	45
432.974	433.778	83	53
432.974	433.778	86	53
433.174	433.585	64	50
433.382	434.186	73	46
433.382	434.637	76	46
433.382	434.186	85	55
433.382	434.637	88	55
433.585	433.978	64	50
433.778	434.627	71	45
433.778	434.637	74	45
433.778	434.637	83	53
433.778	434.637	86	53
433.978	434.407	64	49
434.186	434.637	69	44
434.186	434.637	73	44
434.186	434.637	81	52
434.186	434.637	85	52
434.407	434.637	64	48
434.627	437.149	40	39
434.627	437.149	52	47
434.627	435.075	68	50
434.627	435.075	71	50
434.851	435.281	64	50
435.075	436.704	68	44
435.075	435.898	71	44
435.075	436.704	80	52
435.075	435.898	83	52
435.281	435.689	64	49
435.492	436.293	69	45
435.492	436.293	73	45
435.492	436.293	81	53
435.492	436.293	85	53
435.689	436.098	64	50
435.898	436.704	71	46
435.898	437.149	74	46
435.898	436.704	83	55
435.898	437.149	86	55
436.098	436.493	64	50
436.293	437.139	69	45
436.293	437.149	73	45
436.293	437.149	81	53
436.293	437.149	85	53
436.493	436.921	64	49
436.704	437.149	68	44
436.704	437.149	71	44
436.704	437.149	80	52
436.704	437.149	83	52
436.921	437.139	64	48
437.139	437.997	45	44
437.139	437.997	57	52
437.139	437.58	64	54
437.139	437.58	69	54
437.356	437.791	61	50
437.58	437.997	64	45
437.58	437.997	69	45
437.58	438.429	81	54
437.791	438.197	61	50
437.997	438.429	45	39
437.997	438.429	57	47
437.997	438.429	64	54
437.997	438.429	69	54
438.197	438.429	61	50
438.411	439.225	40	43
438.411	439.225	52	51
438.411	438.811	68	55
438.411	438.811	71	55
438.608	439.014	64	51
438.811	439.225	68	47
438.811	439.225	71	47
438.811	439.662	83	56
439.014	439.439	64	51
439.225	439.662	40	39
439.225	439.662	52	47
439.225	439.662	68	50
439.225	439.662	71	50
439.439	439.662	64	48
439.653	440.092	69	46
439.653	440.092	73	46
439.653	440.092	81	55
439.653	440.092	85	55
439.859	440.092	64	50
440.073	440.499	71	45
440.073	440.499	74	45
440.073	440.499	83	53
440.073	440.499	86	53
440.273	440.499	64	49
440.482	440.938	69	44
440.482	440.938	73	44
440.482	440.938	81	52
440.482	440.938	85	52
440.696	440.938	64	48
440.92	441.336	68	44
440.92	441.336	71	44
440.92	441.367	80	52
440.92	441.367	83	52
441.144	441.367	64	49
441.367	441.602	64	48
441.367	441.602	75	56
441.602	441.836	76	53
441.836	442.104	52	43
441.836	442.104	75	56
442.104	442.372	76	53
442.372	444.948	45	65
442.372	444.948	57	80
442.372	442.864	69	60
442.372	442.864	73	60
442.618	443.072	64	60
442.864	444.502	69	52
442.864	443.698	73	52
442.864	444.502	81	57
442.864	443.698	85	68
443.072	443.489	64	58
443.289	444.093	71	54
443.289	444.093	74	54
443.289	444.093	83	58
443.289	444.093	86	69
443.489	443.901	64	60
443.698	444.502	73	55
443.698	444.948	76	55
443.698	444.502	85	61
443.698	444.948	88	72
443.901	444.293	64	60
444.093	444.937	71	54
444.093	444.948	74	54
444.093	444.948	83	58
444.093	444.948	86	69
444.293	444.716	64	58
444.502	444.948	69	52
444.502	444.948	73	52
444.502	444.948	81	57
444.502	444.948	85	68
444.716	444.948	64	57
444.937	447.468	40	65
444.937	447.468	52	80
444.937	445.384	68	60
444.937	445.384	71	60
445.161	445.59	64	60
445.384	447.018	68	52
445.384	446.212	71	52
445.384	447.018	80	57
445.384	446.212	83	68
445.59	446.004	64	58
445.801	446.607	69	54
445.801	446.607	73	54
445.801	446.607	81	58
445.801	446.607	85	69
446.004	446.412	64	60
446.212	447.018	71	55
446.212	447.468	74	55
446.212	447.018	83	61
446.212	447.468	86	72
446.412	446.807	64	60
446.607	447.459	69	54
446.607	447.468	73	54
446.607	447.468	81	58
446.607	447.468	85	69
446.807	447.239	64	58
447.018	447.468	68	52
447.018	447.468	71	52
447.018	447.468	80	57
447.018	447.468	83	68
447.239	447.459	64	57
447.459	448.729	45	65
447.459	448.729	57	77
447.459	447.873	64	64
447.459	447.873	69	64
447.665	448.076	61	60
447.873	448.496	64	54
447.873	448.71	69	54
447.873	448.71	73	59
447.873	448.71	81	70
448.076	448.729	61	60
448.29	448.729	68	64
448.29	448.729	71	64
448.29	448.729	76	59
448.29	448.729	83	70
448.496	448.729	64	60
448.71	449.121	69	66
448.71	449.121	73	66
448.71	449.991	81	61
448.71	449.991	85	73
448.915	449.991	64	61
449.121	449.991	42	63
449.121	449.991	54	76
449.121	449.979	69	56
449.121	449.979	73	56
449.332	449.761	66	61
449.553	449.991	38	57
449.553	449.991	50	70
449.553	449.991	71	60
449.553	449.991	74	60
449.761	449.991	66	57
449.979	450.437	40	71
449.979	450.437	52	84
449.979	450.417	69	60
449.979	450.417	73	60
450.193	450.437	64	66
450.417	450.884	69	47
450.417	450.884	73	47
450.417	450.884	81	50
450.417	450.884	85	60
450.634	450.884	64	50
450.861	451.348	68	45
450.861	451.348	71	45
450.861	451.348	80	49
450.861	451.348	83	59
451.092	451.348	64	49
451.323	451.787	69	53
451.323	451.823	81	53
451.573	451.823	64	48
451.823	452.086	57	49
451.823	452.086	61	50
452.086	452.38	64	41
452.38	452.821	45	44
452.38	452.821	69	48
453.262	453.922	57	42
453.262	453.942	76	54
453.493	453.922	61	31
453.728	453.942	64	34
453.942	454.182	61	32
453.942	454.065	78	54
454.065	454.182	76	50
454.182	454.396	64	34
454.182	454.289	74	55
454.289	454.396	73	54
454.396	454.624	61	30
454.396	454.51	71	53
454.51	454.624	69	52
454.624	454.879	57	40
454.624	454.879	77	57
454.874	455.335	62	30
454.874	455.104	78	54
455.104	455.577	66	33
455.104	456.073	78	54
455.335	455.812	62	31
455.577	456.073	66	33
455.812	456.073	62	32
456.061	456.554	57	40
456.061	456.554	81	58
456.3	456.554	62	31
456.3	456.554	80	55
456.538	456.996	66	34
456.538	457.504	83	58
456.762	457.23	62	34
456.762	457.504	81	58
456.996	457.504	66	39
456.996	457.504	80	59
457.23	457.504	62	33
457.23	457.504	78	60
457.495	457.994	57	43
457.495	457.994	75	62
457.733	457.994	61	33
457.733	457.971	76	57
457.971	458.479	64	33
457.971	458.988	76	57
458.225	458.733	61	31
458.479	459.001	64	33
458.733	459.001	61	31
458.988	459.73	45	52
458.988	459.73	49	52
458.988	459.73	76	63
459.439	459.73	57	45
459.439	459.73	61	45
459.689	459.807	78	55
459.807	459.924	76	50
459.924	460.034	74	58
460.034	460.144	73	56
460.144	460.255	71	54
460.255	460.365	69	53
460.365	461.014	47	52
460.365	461.014	50	52
460.365	461.014	76	63
460.633	461.117	74	63
460.871	461.117	59	45
460.871	461.117	62	45
461.117	461.229	78	55
461.229	461.341	76	50
461.341	461.453	74	58
461.453	461.565	73	56
461.565	461.677	71	54
461.677	461.789	69	53
461.789	462.312	61	37
461.789	462.312	64	43
461.789	462.312	69	62
462.289	462.822	59	35
462.289	462.822	62	42
462.289	462.822	68	58
462.797	463.353	57	36
462.797	463.353	61	43
462.797	463.353	69	59
463.353	465.019	52	42
463.353	464.487	57	42
463.353	464.487	61	50
463.353	465.019	64	53
463.353	464.487	69	53
463.353	464.487	73	63
464.464	465.019	56	32
464.464	465.019	59	38
464.464	465.019	68	39
464.464	465.019	71	47
465.019	467.646	45	53
465.019	467.646	57	66
465.019	465.519	69	49
465.019	465.519	73	49
465.269	465.743	64	49
465.519	467.2	69	43
465.519	466.396	73	43
465.519	467.2	81	47
465.519	466.396	85	56
465.743	466.179	64	48
465.97	466.792	71	44
465.97	466.792	74	44
465.97	466.792	83	48
465.97	466.792	86	57
466.179	466.599	64	49
466.396	467.2	73	45
466.396	467.646	76	45
466.396	467.2	85	50
466.396	467.646	88	59
466.599	466.992	64	49
466.792	467.635	71	44
466.792	467.646	74	44
466.792	467.646	83	48
466.792	467.646	86	57
466.992	467.414	64	48
467.2	467.646	69	43
467.2	467.646	73	43
467.2	467.646	81	47
467.2	467.646	85	56
467.414	467.646	64	47
467.635	470.168	40	53
467.635	470.168	52	66
467.635	468.083	68	49
467.635	468.083	71	49
467.859	468.288	64	49
468.083	469.717	68	43
468.083	468.91	71	43
468.083	469.717	80	47
468.083	468.91	83	56
468.288	468.702	64	48
468.499	469.305	69	44
468.499	469.305	73	44
468.499	469.305	81	48
468.499	469.305	85	57
468.702	469.11	64	49
468.91	469.717	71	45
468.91	470.168	74	45
468.91	469.717	83	50
468.91	470.168	86	59
469.11	469.505	64	49
469.305	470.158	69	44
469.305	470.168	73	44
469.305	470.168	81	48
469.305	470.168	85	57
469.505	469.937	64	48
469.717	470.168	68	43
469.717	470.168	71	43
469.717	470.168	80	47
469.717	470.168	83	56
469.937	470.158	64	47
470.158	471.427	45	53
470.158	471.427	57	63
470.158	470.572	64	53
470.158	470.572	69	53
470.363	470.774	61	49
470.572	471.194	64	44
470.572	471.408	69	44
470.572	471.408	73	48
470.572	471.408	81	58
470.774	471.427	61	49
470.989	471.427	68	53
470.989	471.427	71	53
470.989	471.427	76	48
470.989	471.427	83	58
471.194	471.427	64	49
471.408	471.614	69	54
471.408	471.614	73	54
471.408	472.689	81	50
471.408	472.689	85	60
471.614	472.689	64	50
471.819	472.689	42	52
471.819	472.689	54	63
471.819	472.677	69	46
471.819	472.677	73	46
472.031	472.459	66	50
472.251	472.689	38	47
472.251	472.689	50	58
472.251	472.689	71	49
472.251	472.689	74	49
472.459	472.689	66	47
472.677	473.112	40	58
472.677	473.112	52	69
472.677	473.093	69	49
472.677	473.093	73	49
472.885	473.112	64	54
473.093	473.53	69	39
473.093	473.53	73	39
473.093	473.53	81	41
473.093	473.53	85	49
473.299	473.53	64	44
473.513	473.936	68	37
473.513	473.936	71	37
473.513	473.936	80	40
473.513	473.936	83	48
473.719	473.955	64	40
473.936	474.371	68	44
473.936	474.39	71	44
473.936	474.39	80	49
473.936	474.39	83	49
474.147	474.39	64	46
474.371	474.855	68	42
474.371	474.855	72	43
474.371	474.855	84	49
474.599	474.855	64	45
474.833	475.349	69	42
474.833	475.349	73	42
474.833	475.359	81	49
474.833	475.359	85	49
475.059	475.359	64	42
475.349	476.645	45	60
475.349	476.645	57	72
475.349	475.79	69	60
475.349	475.79	73	60
475.566	475.993	64	56
475.79	476.645	69	50
475.79	476.627	73	50
475.79	476.645	81	55
475.79	476.627	85	66
475.993	476.412	64	56
476.207	476.645	71	60
476.207	476.645	74	60
476.207	476.645	83	55
476.207	476.645	86	66
476.412	476.645	64	56
476.627	476.832	73	62
476.627	476.832	76	62
476.627	477.906	85	57
476.627	477.906	88	69
476.832	477.249	69	57
477.038	477.906	45	59
477.038	477.906	57	72
477.038	477.895	73	52
477.038	477.906	76	52
477.249	477.678	69	57
477.469	477.906	38	54
477.469	477.906	50	66
477.469	477.906	74	56
477.469	477.906	78	56
477.678	477.895	69	54
477.895	478.353	40	66
477.895	478.353	52	79
477.895	478.333	69	56
477.895	478.333	73	56
478.109	478.353	64	62
478.333	478.799	69	55
478.333	478.799	73	55
478.333	478.799	81	59
478.333	478.799	85	71
478.551	478.799	64	59
478.778	479.262	68	54
478.778	479.262	71	54
478.778	479.262	80	58
478.778	479.262	83	70
479.009	479.262	64	58
479.24	479.704	69	63
479.24	479.74	81	63
479.49	479.74	64	56
479.74	480.003	57	58
479.74	480.003	61	59
480.003	480.297	64	49
480.297	480.738	45	52
480.297	480.738	69	57
481.179	481.839	57	42
481.179	481.859	76	54
481.41	481.839	61	31
481.644	481.859	64	34
481.859	482.099	61	32
481.859	481.982	78	54
481.982	482.099	76	50
482.099	482.313	64	34
482.099	482.206	74	55
482.206	482.313	73	54
482.313	482.54	61	30
482.313	482.427	71	53
482.427	482.54	69	52
482.54	482.796	57	40
482.54	482.796	77	57
482.79	483.252	62	30
482.79	483.021	78	54
483.021	483.494	66	33
483.021	483.986	78	54
483.252	483.728	62	31
483.494	483.986	66	33
483.728	483.986	62	32
483.978	484.473	57	40
483.978	484.473	81	58
484.216	484.473	62	31
484.216	484.473	80	55
484.454	484.913	66	34
484.454	485.421	83	58
484.678	485.147	62	34
484.678	485.421	81	58
484.913	485.421	66	39
484.913	485.421	80	59
485.147	485.421	62	33
485.147	485.421	78	60
485.411	485.911	57	43
485.411	485.911	75	62
485.649	485.911	61	33
485.649	485.887	76	57
485.887	486.396	64	33
485.887	486.904	76	57
486.142	486.65	61	31
486.396	486.918	64	33
486.65	486.918	61	31
486.904	487.647	45	52
486.904	487.647	49	52
486.904	487.647	76	63
487.356	487.647	57	45
487.356	487.647	61	45
487.606	487.723	78	55
487.723	487.841	76	50
487.841	487.951	74	58
487.951	488.061	73	56
488.061	488.171	71	54
488.171	488.282	69	53
488.282	488.931	47	52
488.282	488.931	50	52
488.282	488.931	76	63
488.55	489.034	74	63
488.788	489.034	59	45
488.788	489.034	62	45
489.034	489.145	78	55
489.145	489.257	76	50
489.257	489.369	74	58
489.369	489.481	73	56
489.481	489.593	71	54
489.593	489.705	69	53
489.705	490.226	61	37
489.705	490.226	64	43
489.705	490.226	69	62
490.205	490.737	59	35
490.205	490.737	62	42
490.205	490.737	68	58
490.714	491.269	57	36
490.714	491.269	61	43
490.714	491.269	69	59
491.269	492.936	52	42
491.269	492.403	57	42
491.269	492.403	61	50
491.269	492.936	64	53
491.269	492.403	69	53
491.269	492.403	73	63
492.38	492.936	56	32
492.38	492.936	59	38
492.38	492.936	68	39
492.38	492.936	71	47
492.936	495.622	45	53
492.936	495.622	57	66
492.936	493.491	69	49
492.936	493.491	73	49
493.214	493.715	64	49
493.491	495.173	69	43
493.491	494.369	73	43
493.491	495.173	81	47
493.491	494.369	85	56
493.715	494.154	64	48
493.946	494.764	71	44
493.946	494.764	74	44
493.946	494.764	83	48
493.946	494.764	86	57
494.154	494.571	64	49
494.369	495.173	73	45
494.369	495.622	76	45
494.369	495.173	85	50
494.369	495.622	88	59
494.571	494.964	64	49
494.764	495.608	71	44
494.764	495.622	74	44
494.764	495.622	83	48
494.764	495.622	86	57
494.964	495.387	64	48
495.173	495.622	69	43
495.173	495.622	73	43
495.173	495.622	81	47
495.173	495.622	85	56
495.387	495.622	64	47
495.608	498.144	40	53
495.608	498.144	52	66
495.608	496.055	68	49
495.608	496.055	71	49
495.831	496.261	64	49
496.055	497.689	68	43
496.055	496.883	71	43
496.055	497.689	80	47
496.055	496.883	83	56
496.261	496.675	64	48
496.472	497.278	69	44
496.472	497.278	73	44
496.472	497.278	81	48
496.472	497.278	85	57
496.675	497.083	64	49
496.883	497.689	71	45
496.883	498.144	74	45
496.883	497.689	83	50
496.883	498.144	86	59
497.083	497.478	64	49
497.278	498.13	69	44
497.278	498.144	73	44
497.278	498.144	81	48
497.278	498.144	85	57
497.478	497.91	64	48
497.689	498.144	68	43
497.689	498.144	71	43
497.689	498.144	80	47
497.689	498.144	83	56
497.91	498.13	64	47
498.13	499.398	45	53
498.13	499.398	57	63
498.13	498.544	64	53
498.13	498.544	69	53
498.336	498.747	61	49
498.544	499.167	64	44
498.544	499.381	69	44
498.544	499.381	73	48
498.544	499.381	81	58
498.747	499.398	61	49
498.961	499.398	68	53
498.961	499.398	71	53
498.961	499.398	76	48
498.961	499.398	83	58
499.167	499.398	64	49
499.381	499.792	69	54
499.381	499.792	73	54
499.381	500.66	81	50
499.381	500.66	85	60
499.586	500.66	64	50
499.792	500.66	42	52
499.792	500.66	54	63
499.792	500.649	69	46
499.792	500.649	73	46
500.003	500.432	66	50
500.224	500.66	38	47
500.224	500.66	50	58
500.224	500.66	71	49
500.224	500.66	74	49
500.432	500.66	66	47
500.649	501.085	40	58
500.649	501.085	52	69
500.649	501.066	69	49
500.649	501.066	73	49
500.858	501.085	64	54
501.066	501.503	69	39
501.066	501.503	73	39
501.066	501.503	81	41
501.066	501.503	85	49
501.272	501.503	64	44
501.486	501.909	68	37
501.486	501.909	71	37
501.486	501.909	80	40
501.486	501.909	83	48
501.691	501.93	64	40
501.909	502.344	68	44
501.909	502.363	71	44
501.909	502.363	80	49
501.909	502.363	83	49
502.12	502.363	64	46
502.344	502.828	68	42
502.344	502.828	72	43
502.344	502.828	84	49
502.571	502.828	64	45
502.805	503.321	69	42
502.805	503.321	73	42
502.805	503.339	81	49
502.805	503.339	85	49
503.032	503.339	64	42
503.321	504.618	45	60
503.321	504.618	57	72
503.321	503.762	69	60
503.321	503.762	73	60
503.539	503.965	64	56
503.762	504.618	69	50
503.762	504.599	73	50
503.762	504.618	81	55
503.762	504.599	85	66
503.965	504.385	64	56
504.179	504.618	71	60
504.179	504.618	74	60
504.179	504.618	83	55
504.179	504.618	86	66
504.385	504.618	64	56
504.599	505.01	73	62
504.599	505.01	76	62
504.599	505.889	85	57
504.599	505.889	88	69
504.805	505.221	69	57
505.01	505.889	45	59
505.01	505.889	57	72
505.01	505.868	73	52
505.01	505.889	76	52
505.221	505.65	69	57
505.442	505.889	38	54
505.442	505.889	50	66
505.442	505.889	74	56
505.442	505.889	78	56
505.65	505.868	69	54
505.868	506.326	40	66
505.868	506.326	52	79
505.868	506.306	69	56
505.868	506.306	73	56
506.082	506.326	64	62
506.306	506.792	69	55
506.306	506.792	73	55
506.306	506.792	81	59
506.306	506.792	85	71
506.53	506.792	64	59
506.768	507.283	68	54
506.768	507.283	71	54
506.768	507.283	80	58
506.768	507.283	83	70
507.01	507.283	64	58
507.252	507.788	69	63
507.252	507.829	81	63
507.54	507.829	64	56
507.829	508.17	57	58
507.829	508.17	61	59
508.17	508.554	64	49
508.554	508.995	45	52
508.554	508.995	69	57
514.731	515.861	57	43
514.731	515.861	73	50
515.013	515.578	64	26
515.296	516.396	61	30
515.578	516.128	64	21
515.861	516.914	57	36
515.861	517.962	73	50
516.128	516.655	64	29
516.396	517.949	61	30
516.655	517.156	64	28
516.914	517.962	57	38
517.156	517.661	64	31
517.397	517.962	59	33
517.397	517.962	74	53
517.661	517.962	64	35
517.949	518.521	61	41
517.949	518.521	78	56
518.212	518.521	64	30
518.475	518.739	57	30
518.475	519.002	76	50
518.739	519.002	64	30
519.002	520.039	61	36
519.248	519.766	64	25
519.493	520.06	57	29
519.493	520.06	76	50
519.766	520.06	64	27
520.039	521.107	61	36
520.039	521.107	78	54
520.293	520.802	64	30
520.293	521.107	76	50
520.547	521.107	57	30
520.547	521.107	74	50
520.802	521.107	64	24
520.802	521.085	73	50
521.085	521.64	56	38
521.085	521.64	73	54
521.353	521.64	64	23
521.62	522.17	63	25
521.62	522.147	71	50
521.884	522.17	64	23
522.147	523.155	56	36
522.147	524.178	71	50
522.401	522.905	64	25
522.655	524.178	63	28
522.905	523.393	64	25
523.155	524.178	56	41
523.393	523.886	64	29
523.631	524.178	57	32
523.631	524.178	73	54
523.886	524.178	64	29
524.158	524.727	58	40
524.158	524.727	76	57
524.426	524.727	64	28
524.694	524.94	63	31
524.694	525.186	74	53
524.94	525.186	64	29
525.186	526.233	59	36
525.432	525.945	64	25
525.678	526.233	63	29
525.678	526.233	74	50
525.945	526.233	64	26
526.213	527.294	56	36
526.213	527.294	76	56
526.472	526.989	64	28
526.472	527.294	74	50
526.731	527.294	52	30
526.731	527.294	73	50
526.989	527.294	64	28
526.989	527.272	71	50
527.272	527.819	54	38
527.272	527.819	71	57
527.535	527.819	64	28
527.799	528.306	63	30
527.799	528.306	69	53
528.049	528.306	64	26
528.299	529.271	54	40
528.537	528.775	69	53
528.775	529.029	68	56
529.029	529.271	69	53
529.271	529.517	71	58
529.517	529.763	69	55
529.763	530.021	74	62
530.021	530.28	73	58
530.28	530.817	56	43
530.28	530.817	70	63
530.548	530.817	64	34
530.802	531.311	63	34
530.802	531.311	71	58
531.056	531.311	64	34
531.311	532.271	56	47
531.556	531.802	71	49
531.802	532.037	70	53
532.037	532.271	71	49
532.271	532.521	73	53
532.521	532.771	71	49
532.771	533.03	76	53
533.03	533.288	74	49
533.288	534.249	58	39
533.288	534.259	64	47
533.288	534.249	74	53
533.523	534.003	73	45
533.757	534.259	72	49
534.003	534.259	73	46
534.249	535.256	54	40
534.249	535.256	58	48
534.249	535.256	74	55
534.483	534.976	73	46
534.718	535.256	72	50
534.976	535.256	73	47
535.235	536.227	50	43
535.235	536.227	59	51
535.235	536.227	76	59
535.466	535.935	74	51
535.697	536.173	73	53
535.935	536.227	74	51
536.173	537.118	52	44
536.173	537.118	56	52
536.173	536.407	73	62
536.407	536.642	71	52
536.642	536.88	70	53
536.88	537.118	71	49
537.118	537.356	69	63
537.356	537.594	68	50
537.594	537.832	67	54
537.832	538.081	68	51
538.081	538.318	66	64
538.318	538.564	64	54
538.564	538.82	63	56
538.82	539.092	64	54
539.092	541.202	45	64
539.092	539.638	69	71
539.092	539.638	73	71
539.365	539.638	57	48
539.638	539.901	57	51
539.638	540.656	69	65
539.638	540.656	73	65
539.901	540.164	57	49
540.164	540.41	57	50
540.41	540.656	57	35
540.656	540.919	57	38
540.656	541.202	69	50
540.656	541.202	73	50
540.919	541.182	57	37
541.182	541.424	57	42
541.182	541.684	71	50
541.182	541.684	74	50
541.424	541.666	57	37
541.666	541.908	57	40
541.666	542.173	72	50
541.666	542.173	75	50
541.908	542.153	57	37
542.153	543.138	57	47
542.153	542.398	73	53
542.153	542.398	76	53
542.398	542.528	69	49
542.644	542.773	71	50
542.89	543.019	73	51
543.138	543.265	74	52
543.38	543.507	76	53
543.622	543.749	78	54
543.864	543.991	80	55
544.116	544.366	81	56
544.366	544.616	83	57
544.616	544.913	85	58
545.21	547.32	40	64
545.21	547.306	69	71
545.21	547.32	73	71
545.486	545.761	52	46
545.486	545.761	68	62
545.486	545.761	71	63
545.761	546.025	52	51
545.761	546.78	68	65
545.761	546.78	71	65
546.025	546.288	52	47
546.288	546.534	52	50
546.534	546.78	52	36
546.78	547.043	52	40
546.78	547.32	68	50
546.78	547.32	71	50
547.043	547.306	52	36
547.306	547.552	52	42
547.306	547.817	69	50
547.306	547.817	72	50
547.552	547.798	52	35
547.798	548.052	52	38
547.798	548.342	70	50
547.798	548.342	73	50
548.052	548.306	52	38
548.306	549.32	52	47
548.306	548.56	71	53
548.306	548.56	74	53
548.56	548.694	71	49
548.82	548.951	73	50
549.07	549.201	74	51
549.32	549.449	76	52
549.566	549.695	78	53
549.811	549.94	80	54
550.057	550.186	81	55
550.303	550.553	83	56
550.553	550.803	85	57
550.803	551.086	86	58
551.369	551.619	71	57
551.619	551.869	69	53
551.869	552.628	69	53
552.378	553.407	54	40
552.378	553.386	64	40
552.628	553.407	69	53
552.878	553.407	74	56
553.136	553.407	73	53
553.386	554.406	56	40
553.386	554.395	64	40
553.386	554.406	70	55
553.632	554.406	71	52
553.878	554.406	76	52
554.137	554.406	74	53
554.395	557.544	57	40
554.395	557.568	64	40
554.395	554.641	72	58
554.641	554.887	73	53
554.887	555.146	81	54
555.146	555.404	81	55
555.404	555.663	81	57
555.663	555.922	81	55
555.922	556.189	81	55
556.189	556.473	81	55
556.473	557.568	50	39
556.473	557.568	54	39
556.473	557.568	59	47
556.473	557.568	81	58
556.74	557.568	78	52
557.008	557.568	74	54
557.276	557.568	71	52
557.544	561.213	52	39
557.544	561.198	57	39
557.544	561.213	61	47
557.544	557.688	76	59
557.688	558.409	78	54
557.784	557.977	76	54
557.88	558.733	75	54
557.977	558.733	76	59
558.409	558.733	78	56
558.706	561.213	69	58
559.865	561.213	59	30
559.865	561.198	62	40
560.483	561.198	68	53
560.483	561.213	73	53
560.81	561.198	71	50
561.198	563.978	57	28
561.198	562.704	62	34
561.198	563.815	64	45
561.198	562.704	68	45
561.198	562.704	71	53
562.674	563.978	61	30
562.674	563.527	69	44
563.815	563.978	64	43
563.978	564.114	66	46
564.114	564.248	69	42
564.248	564.381	68	46
564.381	564.512	71	44
564.512	564.641	69	44
564.641	564.772	73	40
564.772	564.907	71	44
564.907	565.067	74	41
565.067	566.197	57	43
565.067	566.197	73	50
565.349	565.914	64	26
565.632	566.732	61	30
565.914	566.464	64	25
566.197	567.249	57	42
566.197	568.298	73	50
566.464	566.991	64	29
566.732	568.285	61	32
566.991	567.491	64	29
567.249	568.298	57	43
567.491	567.997	64	31
567.733	568.298	59	33
567.733	568.298	74	53
567.997	568.298	64	30
568.285	568.835	61	42
568.285	568.835	78	56
568.548	568.835	64	29
568.811	569.074	57	31
568.811	569.338	76	50
569.074	569.338	64	28
569.338	570.375	61	36
569.583	570.102	64	26
569.829	570.396	57	29
569.829	570.396	76	50
570.102	570.396	64	26
570.375	571.447	61	36
570.375	571.447	78	54
570.629	571.138	64	28
570.629	571.447	76	50
570.883	571.447	57	30
570.883	571.447	74	50
571.138	571.447	64	26
571.138	571.421	73	50
571.421	571.974	56	38
571.421	571.974	73	54
571.688	571.974	64	22
571.956	572.506	63	27
571.956	572.483	71	50
572.219	572.506	64	23
572.483	573.491	56	36
572.483	574.508	71	50
572.737	573.241	64	26
572.991	574.508	63	30
573.241	573.729	64	29
573.491	574.508	56	39
573.729	574.221	64	31
573.967	574.508	57	33
573.967	574.508	73	54
574.221	574.508	64	38
574.494	575.04	58	42
574.494	575.04	76	57
574.762	575.04	64	28
575.03	575.276	63	31
575.03	575.522	74	53
575.276	575.522	64	28
575.522	576.573	59	36
575.768	576.281	64	27
576.014	576.573	63	29
576.014	576.573	74	50
576.281	576.573	64	27
576.549	576.808	56	36
576.549	576.808	76	56
576.808	577.325	64	28
576.808	577.63	74	50
577.066	577.63	52	30
577.066	577.63	73	50
577.325	577.63	64	28
577.325	577.608	71	50
577.608	578.153	54	38
577.608	578.153	71	57
577.871	578.153	64	29
578.134	578.642	63	30
578.134	578.642	69	53
578.384	578.642	64	28
578.634	579.607	54	40
578.873	579.111	69	53
579.111	579.365	68	56
579.365	579.607	69	53
579.607	579.853	71	58
579.853	580.099	69	55
580.099	580.357	74	62
580.357	580.616	73	58
580.616	581.155	56	43
580.616	581.155	70	63
580.884	581.155	64	32
581.138	581.646	63	34
581.138	581.646	71	58
581.392	581.646	64	30
581.646	582.607	56	47
581.892	582.138	71	49
582.138	582.373	70	53
582.373	582.607	71	49
582.607	582.857	73	53
582.857	583.107	71	49
583.107	583.366	76	53
583.366	583.624	74	49
583.624	584.6	58	35
583.624	584.61	64	42
583.624	584.6	74	53
583.862	584.35	73	49
584.1	584.61	72	49
584.35	584.61	73	49
584.6	585.608	54	36
584.6	585.608	58	43
584.6	585.608	74	55
584.835	585.328	73	50
585.069	585.608	72	50
585.328	585.608	73	50
585.586	586.558	50	38
585.586	586.558	59	45
585.586	586.558	76	59
585.821	586.297	74	53
586.055	586.539	73	53
586.297	586.558	74	53
586.539	587.492	52	39
586.539	587.492	56	46
586.539	586.773	73	62
586.773	587.008	71	53
587.008	587.25	70	53
587.25	587.492	71	53
587.492	587.73	69	63
587.73	587.968	68	54
587.968	588.206	67	54
588.206	588.455	68	54
588.455	588.692	66	64
588.692	588.938	64	56
588.938	589.194	63	56
589.194	589.466	64	56
589.466	591.58	45	64
589.466	590.012	69	71
589.466	590.012	73	71
589.739	590.012	57	47
590.012	590.275	57	51
590.012	591.03	69	65
590.012	591.03	73	65
590.275	590.538	57	46
590.538	590.784	57	50
590.784	591.03	57	32
591.03	591.293	57	37
591.03	591.58	69	50
591.03	591.58	73	50
591.293	591.556	57	33
591.556	591.798	57	42
591.556	592.058	71	50
591.556	592.058	74	50
591.798	592.04	57	35
592.04	592.282	57	39
592.04	592.549	72	50
592.04	592.549	75	50
592.282	592.526	57	34
592.526	593.512	57	47
592.526	592.772	73	53
592.526	592.772	76	53
592.772	592.901	69	49
593.018	593.147	71	50
593.264	593.393	73	51
593.512	593.639	74	52
593.754	593.881	76	53
593.996	594.123	78	54
594.238	594.365	80	55
594.49	594.74	81	56
594.74	594.99	83	57
594.99	595.287	85	58
595.584	597.702	40	64
595.584	597.68	69	71
595.584	597.702	73	71
595.86	596.135	52	46
595.86	596.135	68	62
595.86	596.135	71	63
596.135	596.398	52	51
596.135	597.153	68	65
596.135	597.153	71	65
596.398	596.662	52	46
596.662	596.907	52	50
596.907	597.153	52	34
597.153	597.417	52	38
597.153	597.702	68	50
597.153	597.702	71	50
597.417	597.68	52	34
597.68	597.926	52	42
597.68	598.191	69	50
597.68	598.191	72	50
597.926	598.172	52	34
598.172	598.426	52	38
598.172	598.699	70	50
598.172	598.699	73	50
598.426	598.68	52	35
598.68	599.693	52	47
598.68	598.934	71	53
598.68	598.934	74	53
598.934	599.068	71	49
599.193	599.325	73	50
599.443	599.575	74	51
599.693	599.823	76	52
599.939	600.068	78	53
600.185	600.314	80	54
600.431	600.56	81	55
600.677	600.927	83	56
600.927	601.177	85	57
601.177	601.46	86	58
601.743	601.997	71	57
601.997	602.252	69	53
602.252	603.01	69	53
602.76	603.787	54	43
602.76	603.769	64	43
603.01	603.787	69	53
603.26	603.787	74	56
603.519	603.787	73	53
603.769	604.788	56	43
603.769	604.778	64	43
603.769	604.788	70	55
604.015	604.788	71	52
604.26	604.788	76	52
604.519	604.788	74	53
604.778	607.926	57	43
604.778	607.942	64	43
604.778	605.024	72	58
605.024	605.269	73	53
605.269	605.528	81	54
605.528	605.787	81	55
605.787	606.045	81	57
606.045	606.304	81	55
606.304	606.572	81	55
606.572	606.855	81	55
606.855	607.942	50	39
606.855	607.942	54	39
606.855	607.942	59	47
606.855	607.942	81	58
607.123	607.942	78	56
607.391	607.942	74	54
607.658	607.942	71	49
607.926	611.543	52	39
607.926	611.519	57	39
607.926	611.543	61	47
607.926	608.06	76	59
608.06	608.73	78	54
608.149	608.328	76	54
608.239	609.049	75	54
608.328	609.049	76	59
608.73	609.049	78	56
609.027	611.543	69	58
610.185	611.543	59	30
610.185	611.519	62	40
610.804	611.519	68	53
610.804	611.543	73	53
611.131	611.519	71	50
611.519	614.294	57	28
611.519	613.02	62	34
611.519	614.294	64	45
611.519	613.02	68	45
611.519	613.02	71	53
612.995	614.294	61	33
612.995	613.62	69	46
613.55	613.758	71	43
613.62	613.758	69	45
613.689	613.758	68	46
613.758	614.026	69	52
614.026	614.294	71	54
614.294	614.763	73	55
614.763	614.832	74	40
614.832	614.902	73	40
614.902	614.971	71	40
614.971	615.26	73	51
615.26	615.548	74	52
615.548	616.62	57	43
615.548	616.488	76	57
615.821	616.357	69	32
616.094	616.635	61	37
616.357	616.635	69	32
616.357	616.635	78	47
616.488	616.635	76	47
616.62	617.673	57	45
616.62	617.686	74	58
616.879	617.405	68	34
617.137	617.686	61	37
617.137	617.686	73	53
617.405	617.686	68	34
617.673	618.783	57	47
617.673	618.805	71	57
617.941	618.476	67	36
618.209	618.805	61	42
618.209	618.783	69	52
618.476	618.805	67	38
618.783	620.362	57	50
618.783	620.871	69	64
619.05	619.586	66	43
619.318	620.108	62	46
619.586	620.871	66	43
619.586	619.854	78	57
619.854	620.871	54	54
619.854	620.871	78	61
620.108	620.617	62	44
620.362	620.871	57	47
620.617	620.871	62	44
620.871	621.956	50	51
620.871	622.344	62	68
621.139	621.675	57	43
621.407	621.956	54	46
621.675	621.956	57	43
621.942	623.024	45	56
622.076	622.612	66	44
622.21	622.746	54	46
622.21	622.478	64	45
622.344	623.041	62	46
622.478	623.041	50	49
622.478	623.041	64	47
622.612	623.041	66	48
622.746	623.041	54	47
622.746	623.041	67	49
622.88	623.041	69	50
623.024	624.102	45	60
623.024	623.155	71	51
623.155	625.37	73	52
623.287	623.813	54	52
623.287	625.37	74	53
623.418	625.37	76	54
623.55	624.668	50	55
623.55	625.167	78	55
623.725	625.37	79	56
623.813	624.385	54	58
623.909	625.345	81	57
624.102	625.345	45	70
624.102	625.37	83	62
624.385	624.988	54	57
624.385	625.37	85	68
624.668	625.345	50	61
624.668	625.37	86	75
624.988	625.37	54	59
625.167	625.37	78	61
625.345	626.534	45	70
625.345	626.548	50	70
625.345	626.548	81	68
626.237	626.548	78	60
626.534	628.829	45	53
626.534	628.829	49	53
626.534	627.1	76	65
627.1	627.666	76	57
627.666	628.232	76	57
628.232	628.829	76	57
628.809	632.091	57	43
628.809	632.091	61	43
628.809	632.071	64	51
628.809	629.077	78	59
629.077	630.435	76	47
629.342	632.091	73	47
629.601	632.091	71	47
629.89	632.091	69	53
630.435	630.98	76	47
630.98	631.526	76	47
631.526	632.091	76	47
632.071	635.402	59	43
632.071	635.402	62	43
632.071	635.389	64	51
632.071	635.389	78	58
632.344	633.723	76	48
632.608	635.402	74	48
632.881	635.402	71	48
633.167	635.402	68	52
633.723	634.278	76	49
634.278	634.834	76	51
634.834	635.402	76	53
635.389	636.489	57	45
635.389	636.489	61	45
635.389	636.467	64	54
635.389	636.467	78	65
635.652	636.489	76	55
635.915	636.489	73	58
636.179	636.489	69	55
636.467	637.532	56	45
636.467	637.532	59	45
636.467	637.521	64	53
636.467	637.521	78	68
636.726	637.532	76	57
636.984	637.532	74	59
637.243	637.532	71	57
637.521	638.628	57	45
637.521	638.628	61	45
637.521	638.652	64	53
637.521	638.652	78	70
637.784	638.652	76	57
638.047	638.628	73	60
638.31	638.652	69	57
638.628	642.044	52	43
638.628	639.798	57	48
638.628	639.798	61	57
638.628	639.798	73	71
639.772	642.044	56	43
639.772	642.044	59	51
639.772	642.044	71	61
640.058	640.617	64	43
640.344	642.044	76	53
640.617	641.17	64	43
640.892	642.044	75	51
641.17	641.738	64	43
641.452	642.044	74	52
641.738	642.044	64	42
642.028	643.139	57	37
642.028	643.139	73	55
642.305	642.861	64	28
642.583	643.67	61	33
642.861	643.411	64	28
643.139	644.179	57	42
643.139	644.306	73	51
643.411	643.929	64	31
643.67	645.249	61	37
643.929	644.433	64	33
644.179	645.264	57	42
644.179	644.687	74	48
644.306	644.56	73	47
644.433	644.96	64	32
644.433	645.264	71	47
644.56	645.264	73	47
644.687	645.264	59	37
644.687	645.264	74	51
644.96	645.264	64	32
645.249	646.336	61	44
645.249	646.352	78	54
645.512	646.048	64	28
645.775	646.352	57	31
645.775	646.352	76	51
646.048	646.352	64	27
646.336	647.458	61	34
646.336	647.475	87	62
646.604	647.165	64	22
646.872	647.475	57	28
646.872	647.475	88	57
647.165	647.475	64	23
647.312	647.475	76	51
647.458	648.537	61	37
647.458	648.537	78	57
647.713	648.221	64	28
647.713	648.537	76	51
647.967	648.537	57	32
647.967	648.537	74	51
648.221	648.537	64	28
648.221	648.521	73	51
648.521	649.069	56	37
648.521	649.069	73	55
648.789	649.069	64	29
649.057	650.14	63	33
649.057	650.14	71	55
649.34	649.882	64	30
649.623	650.655	56	37
649.882	650.401	64	31
650.14	651.786	63	33
650.14	651.006	71	51
650.401	650.919	64	30
650.655	651.786	56	37
650.919	651.465	64	30
650.919	651.465	73	47
651.006	651.182	71	47
651.094	651.786	70	47
651.182	651.786	57	33
651.182	651.786	71	51
651.465	651.786	64	30
651.465	651.786	73	51
651.771	652.868	76	54
651.777	652.868	59	37
652.03	652.566	64	29
652.288	652.868	63	31
652.288	652.868	74	51
652.566	652.868	64	28
652.844	653.978	56	34
652.844	653.978	85	60
653.112	653.668	64	25
653.379	653.978	59	28
653.379	653.978	86	57
653.668	653.978	64	26
653.812	653.978	74	51
653.956	655.043	52	40
653.956	655.043	76	57
654.219	654.746	64	30
654.219	655.043	74	51
654.483	655.043	56	33
654.483	655.043	73	51
654.746	655.043	64	30
654.746	655.034	71	51
655.034	655.576	54	39
655.034	655.576	71	57
655.307	655.576	64	28
655.553	656.601	63	31
655.553	656.343	69	54
655.821	656.343	64	27
656.084	657.211	54	42
656.343	656.88	64	32
656.343	657.211	69	57
656.601	657.211	63	36
656.601	657.211	74	61
656.88	657.211	64	34
656.88	657.211	73	57
657.194	658.269	56	42
657.194	658.269	70	61
657.457	657.983	64	35
657.457	658.269	71	57
657.72	658.269	63	36
657.72	658.269	76	57
657.983	658.269	64	34
657.983	658.269	74	57
658.246	660.467	57	42
658.246	660.467	72	60
658.524	660.467	73	57
658.802	659.08	81	60
659.08	659.352	81	61
659.352	659.615	81	62
659.615	659.884	81	64
659.884	660.16	81	66
660.16	660.443	81	68
660.443	661.6	50	37
660.443	661.6	54	43
660.443	661.6	59	51
660.443	661.6	81	69
660.726	661.6	78	59
661.009	661.6	74	62
661.292	661.6	71	59
661.575	665.112	52	44
661.575	663.901	57	44
661.575	663.901	61	54
661.575	661.724	76	67
661.724	662.467	78	62
661.823	662.021	76	62
661.922	662.787	75	62
662.021	662.787	76	67
662.467	662.787	78	64
662.764	664.493	69	66
663.875	665.112	59	34
663.875	665.112	62	46
664.493	665.112	68	45
664.493	665.112	71	45
665.112	668.772	57	33
665.112	667.527	62	33
665.112	668.594	64	39
665.112	667.527	68	52
665.112	666.95	71	52
666.925	667.527	72	51
667.527	668.772	61	39
667.527	668.67	69	51
667.527	668.747	73	51
668.594	668.772	64	61
668.67	668.772	69	62
668.747	669.858	45	61
668.747	670.389	73	68
669.024	669.878	49	50
669.302	669.878	52	54
669.58	669.878	57	50
669.858	670.922	45	61
670.038	670.74	76	63
670.126	670.922	49	50
670.213	670.564	74	63
670.389	670.922	52	54
670.389	670.922	73	66
670.564	670.915	74	62
670.652	670.922	57	50
670.74	670.922	76	62
670.915	671.997	47	61
670.915	671.442	74	66
671.091	671.792	78	62
671.178	671.997	50	52
671.266	671.617	76	62
671.442	671.997	56	56
671.442	671.997	74	66
671.617	671.978	76	63
671.705	671.997	59	52
671.792	671.997	78	63
671.978	674.199	49	51
671.978	674.176	57	61
671.978	672.673	76	62
672.117	674.199	69	63
672.256	674.199	71	64
672.395	674.199	73	65
672.534	674.199	74	65
672.673	674.199	76	65
672.806	673.897	78	66
672.943	673.758	80	67
673.079	673.624	81	68
673.215	673.488	83	69
673.352	674.199	85	70
673.488	674.199	83	71
673.624	674.199	81	71
673.758	674.199	80	70
673.897	674.176	78	70
674.036	674.199	77	69
674.176	675.335	50	56
674.176	675.335	57	66
674.176	675.174	78	68
674.317	674.6	80	67
674.458	674.885	81	65
674.6	675.029	80	64
674.742	675.335	83	62
674.885	675.335	81	61
675.029	675.335	80	59
675.174	675.335	78	58
675.319	676.551	52	35
675.319	676.551	61	42
675.319	676.551	76	62
675.645	677.784	88	52
675.954	677.784	85	52
676.242	676.873	81	60
676.551	677.763	52	35
676.551	677.784	61	42
676.551	677.159	76	52
676.873	677.784	81	52
677.159	677.763	76	51
677.445	677.784	73	51
677.763	679.045	52	31
677.763	679.045	56	31
677.763	679.034	62	37
677.763	679.045	76	57
678.081	679.045	74	51
678.374	679.045	73	51
678.671	679.034	71	51
679.034	681.447	57	34
679.034	680.35	62	41
679.034	680.35	68	51
679.034	680.35	71	58
680.323	681.447	61	41
680.323	680.528	69	52
680.528	680.672	64	45
680.72	680.861	66	45
680.907	681.045	67	50
681.091	681.226	68	47
681.271	681.404	69	47
681.447	681.578	70	49
681.621	681.752	71	44
681.796	681.932	72	44
681.977	682.117	73	48
682.163	682.301	74	44
682.347	682.498	75	44
682.549	683.641	57	39
682.549	683.51	76	57
682.832	683.378	69	29
683.115	683.661	61	36
683.378	683.661	69	32
683.378	683.661	78	47
683.51	683.661	76	47
683.641	684.694	57	45
683.641	684.708	74	58
683.9	684.426	68	34
684.159	684.708	61	37
684.159	684.708	73	53
684.426	684.708	68	34
684.694	685.804	57	47
684.694	685.826	71	57
684.962	685.498	67	36
685.23	685.826	61	42
685.23	685.804	69	52
685.498	685.826	67	38
685.804	687.384	57	48
685.804	687.892	69	61
686.072	686.608	66	41
686.34	687.13	62	44
686.608	687.892	66	41
686.608	686.875	78	55
686.875	687.892	54	52
686.875	687.892	78	59
687.13	687.638	62	41
687.384	687.892	57	45
687.638	687.892	62	41
687.892	688.973	50	51
687.892	689.366	62	68
688.16	688.696	57	43
688.428	688.973	54	46
688.696	688.973	57	43
688.964	690.045	45	56
689.098	689.633	66	44
689.232	689.767	54	47
689.232	689.499	64	45
689.366	690.067	62	46
689.499	690.067	50	49
689.499	690.067	64	47
689.633	690.067	66	48
689.767	690.067	54	47
689.767	690.067	67	49
689.901	690.067	69	50
690.045	691.123	45	60
690.045	690.177	71	51
690.177	692.392	73	52
690.308	690.834	54	52
690.308	692.392	74	53
690.44	692.392	76	54
690.571	691.689	50	55
690.571	692.188	78	55
690.747	692.392	79	56
690.834	691.406	54	58
690.93	692.367	81	57
691.123	692.367	45	70
691.123	692.392	83	62
691.406	692.009	54	59
691.406	692.392	85	68
691.689	692.367	50	61
691.689	692.392	86	75
692.009	692.392	54	57
692.188	692.392	78	61
692.367	693.555	45	70
692.367	693.576	50	70
692.367	693.576	81	68
693.258	693.576	78	60
693.555	695.852	45	53
693.555	695.852	49	53
693.555	694.121	76	65
694.121	694.687	76	57
694.687	695.253	76	57
695.253	695.852	76	57
695.83	699.119	57	43
695.83	699.119	61	43
695.83	699.1	64	51
695.83	696.098	78	60
696.098	697.463	76	50
696.366	699.119	73	50
696.629	699.119	71	50
696.918	699.119	69	55
697.463	698.009	76	46
698.009	698.554	76	46
698.554	699.119	76	46
699.1	702.416	59	43
699.1	702.416	62	43
699.1	702.403	64	51
699.1	702.403	78	61
699.358	700.736	76	51
699.621	702.416	74	51
699.894	702.416	71	51
700.181	702.416	68	54
700.736	701.292	76	52
701.292	701.847	76	53
701.847	702.416	76	55
702.403	703.508	57	45
702.403	703.508	61	45
702.403	703.495	64	54
702.403	703.495	78	65
702.671	703.508	76	55
702.939	703.508	73	58
703.206	703.508	69	54
703.495	704.559	56	45
703.495	704.559	59	45
703.495	704.549	64	53
703.495	704.549	78	68
703.754	704.559	76	56
704.012	704.559	74	59
704.271	704.559	71	54
704.549	705.629	57	45
704.549	705.629	61	45
704.549	705.653	64	53
704.549	705.653	78	70
704.803	705.653	76	56
705.057	705.629	73	60
705.311	705.653	69	55
705.629	709.045	52	43
705.629	706.799	57	48
705.629	706.799	61	57
705.629	706.799	73	71
706.773	709.045	56	43
706.773	709.045	59	51
706.773	709.045	71	61
707.059	707.618	64	44
707.345	709.045	76	53
707.618	708.171	64	40
707.893	709.045	75	51
708.171	708.739	64	39
708.453	709.045	74	52
708.739	709.045	64	40
709.029	710.153	57	37
709.029	710.153	73	55
709.312	709.875	64	29
709.595	710.699	61	33
709.875	710.436	64	28
710.153	711.225	57	42
710.153	711.35	73	51
710.436	710.962	64	33
710.699	712.287	61	37
710.962	711.475	64	28
711.225	712.302	57	42
711.225	711.725	74	48
711.35	711.6	73	47
711.475	711.998	64	30
711.475	712.302	71	47
711.6	712.302	73	47
711.725	712.302	59	37
711.725	712.302	74	51
711.998	712.302	64	30
712.287	713.365	61	44
712.287	713.387	78	54
712.545	713.077	64	27
712.804	713.387	57	31
712.804	713.387	76	51
713.077	713.387	64	27
713.365	714.487	61	34
713.365	714.511	87	61
713.633	714.194	64	26
713.901	714.511	57	28
713.901	714.511	88	57
714.194	714.511	64	26
714.341	714.511	76	51
714.487	715.565	61	37
714.487	715.565	78	57
714.742	715.25	64	29
714.742	715.565	76	51
714.996	715.565	57	32
714.996	715.565	74	51
715.25	715.565	64	28
715.25	715.55	73	51
715.55	716.087	56	37
715.55	716.087	73	55
715.813	716.087	64	30
716.076	717.148	63	33
716.076	717.148	71	55
716.344	716.88	64	29
716.612	717.67	56	37
716.88	717.411	64	30
717.148	718.794	63	33
717.148	718.021	71	51
717.411	717.933	64	28
717.67	718.794	56	37
717.933	718.479	64	30
717.933	718.479	73	47
718.021	718.196	71	47
718.108	718.794	70	47
718.196	718.794	57	33
718.196	718.794	71	51
718.479	718.794	64	28
718.479	718.794	73	51
718.779	719.874	76	54
718.786	719.874	59	37
719.038	719.574	64	28
719.296	719.874	63	31
719.296	719.874	74	51
719.574	719.874	64	27
719.852	720.98	56	34
719.852	720.98	85	60
720.12	720.676	64	25
720.388	720.98	59	28
720.388	720.98	86	57
720.676	720.98	64	25
720.82	720.98	74	51
720.965	722.047	52	40
720.965	722.047	76	57
721.228	721.754	64	30
721.228	722.047	74	51
721.491	722.047	56	33
721.491	722.047	73	51
721.754	722.047	64	29
721.754	722.042	71	51
722.042	722.596	54	39
722.042	722.596	71	57
722.315	722.596	64	28
722.574	723.615	63	31
722.574	723.352	69	54
722.832	723.352	64	30
723.089	724.225	54	42
723.352	723.894	64	34
723.352	724.225	69	57
723.615	724.225	63	36
723.615	724.225	74	61
723.894	724.225	64	33
723.894	724.225	73	57
724.208	725.283	56	42
724.208	725.283	70	61
724.471	724.997	64	33
724.471	725.283	71	57
724.734	725.283	63	36
724.734	725.283	76	57
724.997	725.283	64	34
724.997	725.283	74	57
725.26	727.54	57	42
725.26	727.54	72	60
725.538	727.54	73	57
725.816	726.079	81	60
726.079	726.355	81	61
726.355	726.623	81	62
726.623	726.912	81	64
726.912	727.209	81	66
727.209	727.516	81	68
727.516	728.673	50	37
727.516	728.673	54	43
727.516	728.673	59	51
727.516	728.673	81	69
727.799	728.673	78	57
728.082	728.673	74	62
728.365	728.673	71	55
728.648	732.185	52	44
728.648	730.976	57	44
728.648	730.976	61	54
728.648	728.797	76	67
728.797	729.539	78	62
728.896	729.094	76	62
728.995	729.86	75	62
729.094	729.86	76	67
729.539	729.86	78	64
729.837	731.566	69	66
730.948	732.185	59	34
730.948	732.185	62	46
731.566	732.185	68	45
731.566	732.185	71	45
732.185	735.843	57	33
732.185	734.599	62	33
732.185	735.667	64	39
732.185	734.599	68	52
732.185	734.022	71	52
733.997	734.599	72	51
734.599	735.843	61	39
734.599	735.743	69	51
734.599	735.819	73	51
735.667	735.843	64	61
735.743	735.843	69	62
735.819	736.931	45	61
735.819	737.462	73	68
736.097	736.951	49	51
736.375	736.951	52	54
736.653	736.951	57	51
736.931	737.999	45	61
737.111	737.813	76	63
737.199	737.999	49	51
737.286	737.637	74	63
737.462	737.999	52	54
737.462	737.999	73	66
737.637	737.988	74	62
737.725	737.999	57	51
737.813	737.999	76	62
737.988	739.07	47	61
737.988	738.514	74	66
738.163	738.865	78	62
738.251	739.07	50	52
738.339	738.69	76	62
738.514	739.07	56	56
738.514	739.07	74	66
738.69	739.051	76	63
738.778	739.07	59	51
738.865	739.07	78	63
739.051	741.272	49	51
739.051	741.249	57	61
739.051	739.746	76	62
739.19	741.272	69	63
739.329	741.272	71	64
739.468	741.272	73	65
739.607	741.272	74	65
739.746	741.272	76	65
739.879	740.97	78	66
740.015	740.831	80	67
740.152	740.697	81	68
740.288	740.561	83	69
740.424	741.272	85	70
740.561	741.272	83	71
740.697	741.272	81	71
740.831	741.272	80	70
740.97	741.249	78	70
741.109	741.272	77	69
741.249	742.406	50	56
741.249	742.406	57	66
741.249	742.247	78	68
741.39	741.672	80	67
741.531	741.958	81	65
741.672	742.102	80	64
741.815	742.406	83	62
741.958	742.406	81	61
742.102	742.406	80	59
742.247	742.406	78	58
742.391	743.568	52	35
742.391	743.568	61	42
742.391	742.536	76	62
742.681	744.801	88	52
742.971	744.801	85	52
743.259	743.89	81	60
743.568	744.78	52	35
743.568	744.801	61	42
743.568	744.176	76	52
743.89	744.801	81	52
744.176	744.78	76	51
744.462	744.801	73	51
744.78	746.291	52	31
744.78	746.291	56	31
744.78	746.272	62	37
744.78	746.291	76	57
745.098	746.291	74	47
745.417	746.291	73	51
745.736	746.272	71	46
746.272	749.908	57	24
746.272	748.12	62	28
746.272	748.12	64	32
746.272	748.12	68	36
746.272	748.12	71	41
748.09	749.908	61	22
748.09	749.908	69	34
754.629	754.855	57	41
754.629	754.687	73	50
754.828	754.855	74	47
754.855	755.071	64	32
754.855	754.963	73	47
754.963	755.071	71	52
755.071	755.284	59	37
755.071	755.124	73	47
755.284	755.501	64	32
755.284	755.338	74	51
755.501	755.727	61	42
755.501	755.727	78	53
755.727	755.943	64	33
755.727	755.943	76	46
755.943	756.159	57	36
755.943	755.997	74	51
756.159	756.384	64	33
756.159	756.215	73	49
756.384	756.611	56	42
756.384	756.442	71	50
756.584	756.611	73	46
756.611	756.825	64	33
756.611	756.718	71	46
756.718	756.825	70	50
756.825	757.038	57	36
756.825	756.878	71	46
757.038	757.254	64	33
757.038	757.092	73	47
757.254	757.478	59	42
757.254	757.478	76	50
757.478	757.693	64	31
757.478	757.693	74	47
757.693	757.909	62	35
757.693	757.747	73	47
757.909	758.135	64	31
757.909	757.966	71	47
758.135	758.351	61	40
758.135	758.351	68	53
758.351	758.574	64	31
758.351	758.407	69	50
758.574	758.79	61	34
758.79	759.013	64	31
758.79	758.846	70	50
759.013	759.228	56	39
759.228	759.449	64	31
759.228	759.284	71	50
759.449	759.665	56	33
759.665	759.889	64	31
759.665	759.721	72	50
759.861	759.889	74	41
759.889	760.104	57	40
759.889	759.943	73	54
760.104	760.32	64	31
760.104	760.158	73	50
760.293	760.32	76	41
760.32	760.539	59	34
760.32	760.375	74	50
760.539	760.768	64	31
760.539	760.597	74	50
760.768	761.43	52	31
760.768	761.206	57	38
760.768	761.206	73	55
761.206	761.43	56	41
761.206	761.43	71	50
761.57	762.095	33	59
761.598	762.095	37	64
761.626	762.095	40	69
761.654	762.095	45	73
761.654	762.086	73	71
761.762	761.978	69	58
761.87	762.095	64	58
761.978	762.095	69	58
762.086	762.407	73	71
762.194	762.407	69	59
762.302	762.413	74	71
762.413	762.959	71	59
762.441	762.959	57	53
762.469	762.959	61	57
762.497	762.959	64	62
762.525	762.959	69	65
762.525	762.737	76	72
762.631	762.842	73	60
762.737	762.959	76	74
762.842	762.959	73	62
762.948	763.292	78	77
763.057	763.292	76	75
763.167	763.292	74	73
763.276	763.386	73	72
763.304	763.836	40	64
763.331	763.836	44	66
763.359	763.836	47	70
763.386	763.836	52	73
763.386	763.818	71	70
763.494	763.71	68	59
763.602	763.836	64	59
763.71	763.836	68	59
763.818	764.169	71	71
763.926	764.169	68	58
764.033	764.169	73	72
764.144	764.686	69	58
764.171	764.686	52	53
764.199	764.686	56	62
764.226	764.686	59	57
764.254	764.686	64	65
764.254	764.465	74	73
764.36	764.571	71	59
764.465	764.686	74	73
764.571	764.686	71	63
764.677	765.105	76	77
764.784	765.105	74	77
764.891	765.105	73	74
764.998	765.105	71	72
765.105	765.161	42	73
765.105	765.217	69	75
765.217	765.329	73	60
765.329	765.383	54	67
765.329	765.438	71	60
765.438	765.546	69	60
765.546	765.603	44	73
765.546	765.659	71	78
765.659	765.772	74	60
765.772	765.826	56	67
765.772	765.88	73	60
765.88	765.988	71	60
765.988	766.043	57	69
765.988	766.098	73	75
766.098	766.208	76	63
766.208	766.262	61	70
766.208	766.316	81	68
766.316	766.424	76	63
766.424	766.478	62	76
766.424	766.532	78	76
766.532	766.64	81	65
766.64	766.696	56	71
766.64	766.753	74	65
766.753	766.866	78	65
766.866	766.92	57	77
766.866	766.974	73	77
766.974	767.083	76	63
767.083	767.137	54	70
767.083	767.192	69	73
767.192	767.3	73	63
767.3	767.355	50	73
767.3	767.41	71	74
767.41	767.519	74	63
767.519	767.574	52	72
767.519	767.629	68	74
767.629	767.738	71	63
767.738	768.186	45	69
767.738	768.179	69	72
767.849	768.069	64	63
767.959	768.186	61	63
768.069	768.186	64	63
768.179	768.657	33	56
768.179	768.657	37	56
768.179	768.657	40	71
768.179	768.657	69	75
768.725	768.951	57	41
768.725	768.782	73	50
768.924	768.951	74	47
768.951	769.167	64	32
768.951	769.059	73	47
769.059	769.167	71	52
769.167	769.38	59	37
769.167	769.22	73	47
769.38	769.597	64	32
769.38	769.434	74	51
769.597	769.823	61	42
769.597	769.823	78	53
769.823	770.038	64	33
769.823	770.038	76	46
770.038	770.254	57	36
770.038	770.092	74	51
770.254	770.48	64	33
770.254	770.311	73	49
770.48	770.706	56	42
770.48	770.537	71	50
770.68	770.706	73	46
770.706	770.921	64	33
770.706	770.814	71	46
770.814	770.921	70	50
770.921	771.133	57	36
770.921	770.974	71	46
771.133	771.349	64	33
771.133	771.187	73	47
771.349	771.573	59	42
771.349	771.573	76	50
771.573	771.789	64	31
771.573	771.789	74	47
771.789	772.005	62	35
771.789	771.843	73	47
772.005	772.23	64	31
772.005	772.061	71	47
772.23	772.446	61	40
772.23	772.446	68	53
772.446	772.67	64	31
772.446	772.502	69	50
772.67	772.886	61	34
772.886	773.108	64	31
772.886	772.941	70	50
773.108	773.324	56	39
773.324	773.545	64	31
773.324	773.379	71	50
773.545	773.76	56	33
773.76	773.984	64	31
773.76	773.816	72	50
773.956	773.984	74	41
773.984	774.2	57	40
773.984	774.038	73	54
774.2	774.416	64	31
774.2	774.254	73	50
774.389	774.416	76	41
774.416	774.635	59	34
774.416	774.471	74	50
774.635	774.864	64	31
774.635	774.692	74	50
774.864	775.526	52	31
774.864	775.302	57	38
774.864	775.302	73	55
775.302	775.526	56	41
775.302	775.526	71	50
775.666	776.19	33	59
775.694	776.19	37	64
775.722	776.19	40	69
775.75	776.19	45	73
775.75	776.181	73	71
775.858	776.073	69	58
775.965	776.19	64	58
776.073	776.19	69	58
776.181	776.503	73	71
776.289	776.503	69	59
776.397	776.509	74	71
776.509	777.055	71	59
776.537	777.055	57	53
776.565	777.055	61	57
776.593	777.055	64	62
776.621	777.055	69	65
776.621	776.832	76	72
776.727	776.938	73	60
776.832	777.055	76	74
776.938	777.055	73	62
777.044	777.388	78	77
777.153	777.388	76	75
777.263	777.388	74	73
777.372	777.482	73	72
777.399	777.932	40	64
777.427	777.932	44	66
777.454	777.932	47	70
777.482	777.932	52	73
777.482	777.913	71	70
777.589	777.805	68	59
777.697	777.932	64	59
777.805	777.932	68	59
777.913	778.265	71	71
778.021	778.265	68	58
778.129	778.265	73	72
778.239	778.782	69	58
778.267	778.782	52	53
778.294	778.782	56	62
778.322	778.782	59	57
778.35	778.782	64	65
778.35	778.561	74	73
778.455	778.667	71	59
778.561	778.782	74	73
778.667	778.782	71	63
778.772	779.201	76	77
778.879	779.201	74	77
778.986	779.201	73	74
779.094	779.201	71	72
779.201	779.257	42	73
779.201	779.313	69	75
779.313	779.425	73	60
779.425	779.479	54	67
779.425	779.533	71	60
779.533	779.642	69	60
779.642	779.698	44	73
779.642	779.755	71	78
779.755	779.868	74	60
779.868	779.921	56	67
779.868	779.975	73	60
779.975	780.083	71	60
780.083	780.139	57	69
780.083	780.194	73	75
780.194	780.304	76	63
780.304	780.358	61	70
780.304	780.412	81	68
780.412	780.52	76	63
780.52	780.574	62	76
780.52	780.628	78	76
780.628	780.736	81	65
780.736	780.792	56	71
780.736	780.848	74	65
780.848	780.961	78	65
780.961	781.016	57	77
780.961	781.07	73	77
781.07	781.179	76	63
781.179	781.233	54	70
781.179	781.287	69	73
781.287	781.396	73	63
781.396	781.451	50	73
781.396	781.505	71	74
781.505	781.615	74	63
781.615	781.67	52	72
781.615	781.724	68	74
781.724	781.834	71	63
781.834	782.281	45	69
781.834	782.275	69	72
781.944	782.165	64	63
782.054	782.281	61	63
782.165	782.281	64	63
782.275	783.64	33	56
782.275	783.64	37	56
782.275	783.64	40	71
782.275	782.775	69	75
782.775	783.64	57	40
782.775	783.64	69	55
782.882	783.64	71	49
782.989	783.418	64	36
782.989	783.64	73	50
783.096	783.64	74	50
783.204	783.64	61	36
783.204	783.64	76	51
783.311	783.64	78	52
783.418	783.64	64	36
783.418	783.64	80	53
783.525	783.64	81	54
783.64	783.855	57	43
783.64	783.747	80	56
783.747	783.855	78	50
783.855	784.076	66	35
783.855	783.966	77	52
783.966	784.076	78	50
784.076	784.297	62	35
784.076	784.186	77	52
784.186	784.297	78	50
784.297	784.523	66	35
784.297	784.407	77	52
784.407	784.523	78	50
784.523	784.975	57	43
784.523	784.742	81	55
784.633	784.852	80	51
784.742	784.975	66	35
784.742	784.975	81	55
784.852	784.975	80	51
784.961	785.439	62	37
784.961	785.439	83	54
785.071	785.439	81	55
785.18	785.439	66	39
785.18	785.439	80	56
785.29	785.409	78	58
785.409	785.627	57	44
785.409	785.517	78	59
785.517	785.627	76	54
785.627	785.867	64	35
785.627	785.852	75	58
785.74	785.867	76	52
785.852	786.088	61	35
785.852	786.078	75	54
785.965	786.088	76	50
786.078	786.362	64	35
786.078	786.312	75	55
786.191	786.362	76	51
786.264	786.802	45	53
786.303	786.802	49	57
786.332	786.802	52	62
786.362	786.802	57	65
786.362	786.802	76	71
786.47	786.793	81	69
786.578	786.802	85	72
786.685	786.802	83	68
786.793	786.901	81	71
786.901	787.009	80	71
787.009	787.121	78	70
787.121	787.667	76	69
787.149	787.667	47	53
787.177	787.667	50	57
787.205	787.667	56	62
787.233	787.667	59	65
787.233	787.667	74	71
787.339	787.656	80	66
787.444	787.667	83	74
787.55	787.667	81	70
787.656	787.765	80	73
787.765	787.875	78	71
787.875	787.984	76	70
787.984	788.094	74	68
788.012	788.318	49	57
788.039	788.318	52	59
788.066	788.308	57	63
788.094	788.318	61	65
788.094	788.217	73	70
788.206	788.329	76	67
788.318	788.441	81	70
788.429	788.553	80	67
788.457	788.765	50	57
788.485	788.765	54	59
788.513	788.756	59	63
788.541	788.765	62	65
788.541	788.665	78	70
788.653	788.776	76	68
788.765	788.887	74	70
788.876	788.996	73	67
788.903	789.197	52	53
788.931	789.197	56	62
788.958	789.197	59	57
788.986	789.197	64	65
788.986	789.102	71	69
789.092	789.208	69	65
789.197	789.313	68	63
789.303	789.419	66	61
789.408	789.515	64	59
789.515	789.623	62	47
789.623	789.732	61	44
789.732	789.842	59	41
789.842	790.069	57	41
789.842	789.9	73	50
790.041	790.069	74	47
790.069	790.284	64	32
790.069	790.177	73	47
790.177	790.284	71	52
790.284	790.497	59	37
790.284	790.338	73	47
790.497	790.715	64	32
790.497	790.552	74	51
790.715	790.94	61	42
790.715	790.94	78	53
790.94	791.156	64	33
790.94	791.156	76	46
791.156	791.372	57	36
791.156	791.21	74	51
791.372	791.597	64	33
791.372	791.428	73	49
791.597	791.824	56	42
791.597	791.655	71	50
791.797	791.824	73	46
791.824	792.038	64	33
791.824	791.931	71	46
791.931	792.038	70	50
792.038	792.251	57	36
792.038	792.091	71	46
792.251	792.467	64	33
792.251	792.305	73	47
792.467	792.691	59	42
792.467	792.691	76	50
792.691	792.907	64	31
792.691	792.907	74	47
792.907	793.122	56	35
792.907	792.961	73	47
793.122	793.348	64	31
793.122	793.179	71	47
793.348	793.564	54	40
793.348	793.564	68	53
793.564	793.788	64	31
793.564	793.62	69	50
793.788	794.003	56	34
794.003	794.226	64	31
794.003	794.059	71	50
794.226	794.442	57	39
794.415	794.442	72	40
794.442	794.662	64	31
794.442	794.497	73	50
794.662	794.878	50	33
794.851	794.878	76	40
794.878	795.102	59	31
794.878	794.934	74	50
795.102	795.318	52	40
795.291	795.318	74	40
795.318	795.534	57	31
795.318	795.372	73	50
795.534	795.752	52	34
795.725	795.752	73	40
795.752	796.02	56	31
795.752	795.819	71	50
796.02	796.774	57	26
796.02	796.538	62	38
796.02	796.774	64	32
796.02	796.538	68	43
796.02	796.279	71	51
796.279	796.538	72	51
796.538	796.774	61	31
796.538	796.774	69	40
796.538	796.774	73	48
797.01	797.458	45	60
797.01	797.343	73	75
797.122	797.458	49	51
797.122	797.458	69	60
797.234	797.458	52	50
797.234	797.458	76	74
797.343	797.458	57	50
797.343	797.458	73	60
797.451	797.9	47	60
797.451	797.785	74	78
797.564	797.9	50	51
797.564	797.9	71	60
797.677	797.9	56	51
797.677	797.9	78	72
797.785	797.9	59	51
797.785	797.9	74	60
797.893	798.338	49	60
797.893	798.221	76	75
798.003	798.338	52	50
798.003	798.338	73	63
798.113	798.338	57	50
798.113	798.338	81	68
798.221	798.338	61	50
798.221	798.338	76	63
798.329	798.777	50	60
798.329	798.777	80	76
798.437	798.777	54	49
798.437	798.777	78	65
798.545	798.777	59	49
798.545	798.777	76	65
798.658	798.777	62	49
798.658	798.777	74	65
798.771	799.214	52	60
798.771	799.097	73	77
798.879	799.214	57	51
798.879	799.214	76	63
798.988	799.214	61	50
798.988	799.214	69	73
799.097	799.214	64	50
799.097	799.214	73	63
799.205	799.646	40	61
799.205	799.534	71	74
799.315	799.646	44	51
799.315	799.646	74	63
799.424	799.646	47	51
799.424	799.646	68	74
799.534	799.646	52	51
799.534	799.646	71	63
799.643	800.084	45	62
799.643	800.084	69	72
799.754	800.108	49	52
799.754	799.974	64	63
799.864	800.108	52	52
799.864	800.108	61	63
799.974	800.108	57	52
799.974	800.108	64	63
800.084	800.562	45	61
800.084	800.562	69	75
800.63	801.494	57	40
800.63	801.494	69	55
800.737	801.494	71	49
800.844	801.273	64	36
800.844	801.494	73	50
800.951	801.494	74	50
801.058	801.494	61	36
801.058	801.494	76	51
801.166	801.494	78	52
801.273	801.494	64	36
801.273	801.494	80	53
801.38	801.494	81	54
801.494	801.71	57	43
801.494	801.602	80	56
801.602	801.71	78	50
801.71	801.931	66	35
801.71	801.821	77	52
801.821	801.931	78	50
801.931	802.151	62	35
801.931	802.041	77	52
802.041	802.151	78	50
802.151	802.378	66	35
802.151	802.262	77	52
802.262	802.378	78	50
802.378	802.83	57	43
802.378	802.597	81	55
802.487	802.706	80	51
802.597	802.83	66	35
802.597	802.83	81	55
802.706	802.83	80	51
802.816	803.294	62	37
802.816	803.294	83	54
802.925	803.294	81	55
803.035	803.294	66	39
803.035	803.294	80	56
803.144	803.263	78	58
803.263	803.482	57	44
803.263	803.371	78	59
803.371	803.482	76	54
803.482	803.721	64	35
803.482	803.707	75	58
803.595	803.721	76	52
803.707	803.943	61	35
803.707	803.933	75	54
803.82	803.943	76	50
803.933	804.217	64	35
803.933	804.167	75	55
804.046	804.217	76	51
804.119	804.657	45	53
804.158	804.657	49	57
804.187	804.657	52	62
804.217	804.657	57	65
804.217	804.657	76	71
804.324	804.648	81	69
804.432	804.657	85	72
804.54	804.657	83	68
804.648	804.756	81	71
804.756	804.864	80	71
804.864	804.976	78	70
804.976	805.521	76	69
805.004	805.521	47	53
805.032	805.521	50	57
805.06	805.521	56	62
805.088	805.521	59	65
805.088	805.521	74	71
805.194	805.511	80	66
805.299	805.521	83	74
805.405	805.521	81	70
805.511	805.62	80	73
805.62	805.73	78	71
805.73	805.839	76	70
805.839	805.948	74	68
805.866	806.172	49	51
805.894	806.172	52	54
805.921	806.163	57	57
805.948	806.172	61	60
805.948	806.072	73	70
806.06	806.184	76	67
806.172	806.296	81	70
806.284	806.407	80	67
806.312	806.62	50	53
806.34	806.62	54	56
806.368	806.611	59	58
806.396	806.62	62	61
806.396	806.519	78	70
806.508	806.631	76	68
806.62	806.741	74	70
806.73	806.851	73	67
806.758	807.052	52	54
806.786	807.052	56	57
806.813	807.052	59	60
806.841	807.052	64	63
806.841	806.957	71	69
806.946	807.063	69	65
807.052	807.168	68	63
807.158	807.274	66	61
807.263	807.37	64	59
807.37	807.478	62	47
807.478	807.587	61	44
807.587	807.697	59	41
807.697	807.923	57	41
807.697	807.755	73	50
807.896	807.923	74	47
807.923	808.139	64	32
807.923	808.031	73	47
808.031	808.139	71	52
808.139	808.352	59	37
808.139	808.192	73	47
808.352	808.569	64	32
808.352	808.406	74	51
808.569	808.795	61	42
808.569	808.795	78	53
808.795	809.011	64	33
808.795	809.011	76	46
809.011	809.227	57	36
809.011	809.065	74	51
809.227	809.452	64	33
809.227	809.283	73	49
809.452	809.679	56	42
809.452	809.51	71	50
809.652	809.679	73	46
809.679	809.893	64	33
809.679	809.786	71	46
809.786	809.893	70	50
809.893	810.106	57	36
809.893	809.946	71	46
810.106	810.322	64	33
810.106	810.16	73	47
810.322	810.546	59	42
810.322	810.546	76	50
810.546	810.761	64	31
810.546	810.761	74	47
810.761	810.977	56	35
810.761	810.815	73	47
810.977	811.203	64	31
810.977	811.034	71	47
811.203	811.419	54	40
811.203	811.419	68	53
811.419	811.643	64	31
811.419	811.475	69	50
811.643	811.858	56	34
811.858	812.081	64	31
811.858	811.914	71	50
812.081	812.296	57	39
812.269	812.296	72	40
812.296	812.517	64	31
812.296	812.352	73	50
812.517	812.733	50	33
812.706	812.733	76	40
812.733	812.957	59	31
812.733	812.789	74	50
812.957	813.173	52	40
813.146	813.173	74	40
813.173	813.388	57	31
813.173	813.226	73	50
813.388	813.607	52	34
813.58	813.607	73	40
813.607	813.875	56	31
813.607	813.674	71	50
813.875	814.629	57	26
813.875	814.392	62	38
813.875	814.629	64	32
813.875	814.392	68	43
813.875	814.134	71	51
814.134	814.392	72	51
814.392	814.629	61	31
814.392	814.629	69	40
814.392	814.629	73	48
814.865	815.313	45	60
814.865	815.197	73	75
814.977	815.313	49	51
814.977	815.313	69	60
815.089	815.313	52	50
815.089	815.313	76	74
815.197	815.313	57	50
815.197	815.313	73	60
815.306	815.755	47	60
815.306	815.64	74	78
815.419	815.755	50	51
815.419	815.755	71	60
815.532	815.755	56	51
815.532	815.755	78	72
815.64	815.755	59	51
815.64	815.755	74	60
815.748	816.193	49	60
815.748	816.076	76	75
815.858	816.193	52	50
815.858	816.193	73	63
815.968	816.193	57	50
815.968	816.193	81	68
816.076	816.193	61	50
816.076	816.193	76	63
816.184	816.632	50	60
816.184	816.632	80	76
816.292	816.632	54	49
816.292	816.632	78	65
816.4	816.632	59	49
816.4	816.632	76	65
816.513	816.632	62	49
816.513	816.632	74	65
816.625	817.06	52	60
816.625	816.951	73	77
816.734	817.068	57	51
816.734	817.068	76	63
816.843	817.068	61	50
816.843	817.068	69	73
816.951	817.068	64	50
816.951	817.068	73	63
817.06	817.405	52	61
817.06	817.389	71	74
817.17	817.405	56	51
817.17	817.405	74	63
817.279	817.405	59	51
817.279	817.405	68	74
817.389	817.514	62	51
817.389	817.514	71	63
817.525	817.985	57	36
817.525	817.746	61	43
817.525	817.985	69	51
817.635	817.985	71	49
817.746	817.966	61	30
817.746	817.966	64	36
817.746	817.985	73	50
817.856	817.985	74	51
817.966	818.185	61	30
817.966	818.185	64	36
817.966	818.354	76	52
818.075	818.354	78	53
818.185	818.391	61	28
818.185	818.391	64	34
818.185	818.354	80	54
818.297	818.391	81	55
818.41	818.862	57	41
818.41	818.862	80	55
818.52	818.739	78	51
818.629	818.848	62	28
818.629	818.848	66	33
818.629	818.862	77	55
818.739	818.862	78	51
818.848	819.067	62	28
818.848	819.067	66	33
818.848	819.08	83	48
818.958	819.08	81	50
819.067	819.296	62	28
819.067	819.296	66	33
819.067	819.122	80	52
819.177	819.236	78	54
819.296	819.524	57	37
819.296	819.524	78	56
819.404	819.524	76	47
819.514	819.74	61	27
819.514	819.74	64	32
819.514	819.754	75	54
819.627	819.754	76	47
819.74	819.965	61	27
819.74	819.965	64	32
819.74	819.976	69	52
819.852	819.976	73	46
819.965	820.198	61	27
819.965	820.198	64	32
819.965	820.149	76	52
820.081	820.198	81	46
820.198	820.649	57	41
820.198	820.649	80	55
820.307	820.526	78	51
820.417	820.636	62	28
820.417	820.636	66	33
820.417	820.649	77	55
820.526	820.649	78	51
820.636	820.855	62	28
820.636	820.855	66	33
820.636	820.862	83	48
820.745	820.862	81	50
820.855	821.083	62	28
820.855	821.083	66	33
820.855	820.909	80	52
820.964	821.024	78	54
821.083	821.277	57	41
821.083	821.277	61	41
821.083	821.277	64	41
821.083	821.37	76	52
821.373	821.426	76	52
821.426	821.456	78	38
821.456	821.486	76	37
821.486	821.516	75	37
821.516	821.901	76	52
821.901	822.091	50	41
821.901	822.091	59	41
822.186	822.239	74	52
822.239	822.269	76	35
822.269	822.299	74	35
822.299	822.329	73	35
822.329	822.718	74	52
822.718	822.912	52	41
822.718	822.912	57	41
823.008	823.063	73	52
823.063	823.093	74	36
823.093	823.122	73	36
823.122	823.151	71	36
823.151	823.541	73	52
823.541	823.733	50	41
823.541	823.733	56	41
823.829	823.885	71	52
823.885	823.914	73	35
823.914	823.943	71	35
823.943	823.972	69	35
823.972	824.369	71	52
824.369	824.808	49	53
824.369	824.808	57	53
824.48	824.699	76	53
824.591	824.808	75	62
824.699	824.808	76	56
824.806	825.21	78	62
824.913	825.135	76	56
825.02	825.21	75	56
825.135	825.249	76	56
825.249	825.696	50	53
825.249	825.696	59	53
825.36	825.58	74	53
825.471	825.696	73	62
825.58	825.696	74	56
825.687	826.08	76	62
825.795	826.014	74	56
825.902	826.08	73	56
826.014	826.131	74	56
826.131	826.577	52	53
826.131	826.577	57	53
826.241	826.459	73	53
826.35	826.577	72	62
826.459	826.577	73	56
826.567	826.942	74	62
826.675	826.895	73	56
826.783	826.942	72	56
826.895	827.006	73	56
827.006	827.446	52	53
827.006	827.446	56	53
827.117	827.334	71	53
827.227	827.446	70	62
827.334	827.446	71	56
827.441	827.883	73	62
827.548	827.767	71	56
827.656	827.883	70	56
827.767	827.883	71	56
827.878	828.34	57	53
827.878	828.0	69	64
828.122	828.34	73	48
828.23	828.34	69	47
828.338	828.769	76	55
828.445	828.769	74	48
828.553	828.769	71	48
828.661	828.769	68	47
828.769	829.201	69	60
829.201	829.37	52	61
829.201	829.37	56	61
829.201	829.37	59	61
829.201	829.37	64	73
829.201	829.37	68	67
829.201	829.37	71	67
829.201	829.37	76	80
829.645	829.821	45	67
829.645	829.821	49	67
829.645	829.821	52	67
829.645	829.821	57	79
829.645	829.821	69	73
829.645	829.821	73	73
829.645	829.821	76	73
829.645	829.821	81	86
829.885	830.001	73	52
829.992	830.098	69	50
830.098	830.53	76	57
830.206	830.53	74	50
830.314	830.53	71	50
830.422	830.53	68	50
830.53	830.642	69	62
830.978	831.159	52	60
830.978	831.159	56	60
830.978	831.159	59	60
830.978	831.159	64	72
830.978	831.159	68	67
830.978	831.159	71	67
830.978	831.159	76	79
831.461	831.805	45	67
831.461	831.805	49	67
831.461	831.805	52	67
831.461	831.805	57	79
831.461	831.805	69	72
831.461	831.805	73	72
831.461	831.805	76	72
831.461	831.805	81	85
