OnsetTime	OffsetTime	MidiPitch	Velocity
0.500004	0.923043	38	57
0.500004	0.923043	45	57
0.500004	0.923043	50	69
0.500004	0.923043	66	60
0.500004	0.923043	69	60
0.500004	0.923043	74	73
1.34608	1.75195	62	37
1.34608	1.75195	66	45
1.34608	1.4577	79	66
1.44755	1.55917	78	55
1.54902	1.66064	76	54
1.65048	1.76211	78	54
1.75195	2.17574	64	37
1.75195	2.17574	67	45
1.75195	1.86357	81	65
1.85342	1.96593	79	55
1.95489	2.07635	78	55
2.06532	2.18583	79	55
2.17574	2.57889	66	37
2.17574	2.57889	69	45
2.17574	2.57889	81	62
2.98753	3.03793	81	50
3.18911	3.23951	83	45
3.39069	3.44109	85	45
3.59227	3.64441	86	45
3.80085	4.60713	54	38
3.80085	4.60713	81	54
4.00242	4.40556	62	32
4.20399	4.60713	50	38
4.20399	4.60713	78	45
4.40556	4.60713	62	33
4.60713	4.80869	52	37
4.60713	4.70791	81	50
4.70791	4.80869	79	44
4.80869	5.01026	62	32
4.80869	4.90948	78	44
4.90948	5.01026	79	44
5.01026	5.06066	57	37
5.01026	5.06066	81	49
5.21184	5.26586	61	30
5.21184	5.26586	79	46
5.42794	5.83675	50	42
5.42794	5.83675	62	42
5.42794	5.63652	77	54
5.63652	5.83675	78	45
6.25103	6.6569	62	37
6.25103	6.6569	66	45
6.25103	6.36265	79	66
6.35249	6.46411	78	55
6.45396	6.56558	76	54
6.55543	6.66705	78	54
6.6569	7.08069	64	37
6.6569	7.08069	67	45
6.6569	6.76852	81	65
6.75837	6.87087	79	55
6.85983	6.9813	78	55
6.97026	7.09077	79	55
7.08069	7.48384	66	37
7.08069	7.48384	69	45
7.08069	7.48384	81	62
7.89247	7.94287	81	50
8.09405	8.14445	83	45
8.29564	8.34603	85	45
8.49722	8.54936	86	45
8.7058	9.51207	54	38
8.7058	9.51207	81	54
8.90737	9.3105	62	32
9.10894	9.51207	50	38
9.10894	9.51207	78	45
9.3105	9.51207	62	33
9.51207	9.71364	52	37
9.51207	9.61286	81	50
9.61286	9.71364	79	44
9.71364	9.91521	62	32
9.71364	9.81442	78	44
9.81442	9.91521	79	44
9.91521	10.1168	57	37
9.91521	10.016	81	50
10.016	10.1168	79	44
10.1168	10.3253	61	32
10.1168	10.2211	78	44
10.2211	10.3253	76	44
10.3253	10.4296	62	37
10.3253	10.4296	74	50
10.5339	10.634	66	26
10.7341	10.8343	62	35
10.7341	10.8343	69	42
10.9344	11.0345	66	28
11.1364	11.2425	62	36
11.1364	11.2145	78	47
11.2075	11.2841	79	43
11.2764	11.3517	78	48
11.3449	11.4188	79	43
11.3457	11.4462	66	26
11.4121	11.4851	78	48
11.4785	11.551	79	44
11.5445	11.6166	78	48
11.5453	11.6438	62	35
11.6092	11.6817	79	44
11.6751	11.7481	78	44
11.7431	11.8432	66	30
11.7431	11.8532	76	48
11.8432	11.9533	74	44
11.9433	12.0434	64	37
11.9433	12.0434	73	50
12.1435	12.2436	67	29
12.3437	12.4438	64	37
12.3437	12.4438	69	42
12.5439	12.6441	67	29
12.7442	12.855	64	43
12.7442	12.845	76	50
12.845	12.9558	66	38
12.9458	13.0559	67	38
13.0459	13.1559	66	38
13.146	13.2556	64	38
13.2456	13.3563	62	40
13.3462	13.4582	61	40
13.448	13.5613	59	40
13.5509	13.6552	57	37
13.5509	13.6552	76	50
13.7594	13.8596	61	26
13.9597	14.0598	57	35
13.9597	14.0598	69	42
14.1599	14.26	61	28
14.3619	14.4681	57	36
14.3619	14.44	79	47
14.433	14.5097	81	43
14.5019	14.5772	79	48
14.5704	14.6444	81	43
14.5713	14.6717	61	26
14.6377	14.7107	79	48
14.7041	14.7766	81	44
14.77	14.8421	79	48
14.7709	14.8693	55	35
14.8347	14.9073	81	44
14.9006	14.9736	79	44
14.9686	15.0687	61	30
14.9686	15.0787	78	48
15.0687	15.1788	76	44
15.1688	15.2689	54	37
15.1688	15.2689	74	50
15.369	15.4691	62	29
15.5693	15.6694	54	37
15.5693	15.6694	69	42
15.7695	15.8696	62	29
15.9697	16.0806	54	43
15.9697	16.0705	78	50
16.0705	16.1813	50	36
16.1713	16.2814	52	37
16.2714	16.3814	54	38
16.3715	16.4811	55	39
16.4711	16.5819	57	40
16.5717	16.6838	59	41
16.6735	16.7868	61	42
16.7764	17.1912	62	44
16.7764	16.8803	78	54
16.8803	16.995	74	47
16.9846	17.0985	76	48
17.0882	17.2015	78	49
17.1912	17.3039	79	50
17.2937	17.406	81	51
17.3959	17.5075	83	52
17.4973	17.6082	85	53
17.5983	17.7069	86	55
17.6971	17.8063	85	56
17.7964	17.8962	54	31
17.7964	17.8962	57	37
17.7964	17.9062	83	56
17.8962	18.0065	81	56
17.9964	18.0972	54	31
17.9964	18.0972	57	37
17.9964	18.1074	79	56
18.0972	18.2088	78	55
18.1987	18.3007	54	31
18.1987	18.3007	57	37
18.1987	18.3109	76	50
18.3007	18.4135	74	49
18.4032	18.8138	55	37
18.4032	18.8138	59	44
18.4032	18.5163	76	51
18.5061	18.6192	78	48
18.6089	18.7218	76	45
18.7116	18.824	75	43
18.8138	18.9261	76	45
18.9159	19.0277	78	47
19.0176	19.1292	79	49
19.119	19.2304	81	51
19.2203	19.3312	83	53
19.3211	19.432	81	54
19.4219	19.5231	55	30
19.4219	19.5231	59	36
19.4219	19.5332	79	53
19.5231	19.6347	78	51
19.6245	19.726	55	30
19.6245	19.726	59	36
19.6245	19.7362	76	49
19.726	19.8384	74	48
19.8282	19.9303	56	30
19.8282	19.9303	59	36
19.8282	19.9406	73	46
19.9303	20.0429	71	44
20.0329	20.2345	57	46
20.0329	20.1437	73	50
20.1337	20.2445	74	42
20.2345	20.4449	55	40
20.2345	20.3462	73	42
20.3352	20.455	69	40
20.4449	20.5457	54	40
20.4449	20.5457	74	47
20.6465	20.7515	50	40
20.8565	21.0581	49	50
20.8565	20.9674	79	55
20.9573	21.0682	81	46
21.0581	21.2597	45	44
21.0581	21.169	79	46
21.1589	21.2698	76	46
21.2597	21.3605	50	44
21.2597	21.3706	79	56
21.3605	21.4714	78	47
21.4613	21.5621	54	44
21.4613	21.5731	76	48
21.5621	21.6825	74	48
21.6725	21.8727	57	51
21.6725	21.7826	73	57
21.7726	21.8827	74	44
21.8727	22.0729	55	44
21.8727	21.9828	73	44
21.9728	22.0829	69	44
22.0729	22.173	54	45
22.0729	22.173	74	57
22.2731	22.3789	50	45
22.4846	22.6862	49	54
22.4846	22.5955	79	65
22.5854	22.6963	81	54
22.6862	22.8878	45	47
22.6862	22.7971	79	54
22.787	22.8979	76	56
22.8878	22.9886	50	48
22.8878	22.9987	79	69
22.9886	23.0998	78	56
23.0894	23.1937	54	48
23.0894	23.2041	76	56
23.1937	23.308	74	59
23.298	23.4982	45	50
23.298	23.4982	52	50
23.298	23.4982	57	60
23.298	23.3981	73	79
23.3981	23.4982	76	63
23.4982	23.5983	73	63
23.5983	23.7056	69	63
23.7056	23.9058	50	51
23.7056	23.9058	54	51
23.7056	23.9058	57	60
23.7056	23.8057	78	74
23.8057	23.9058	81	64
23.9058	24.0131	78	64
24.0131	24.1204	74	64
24.1204	24.3233	45	51
24.1204	24.3233	52	51
24.1204	24.3233	57	61
24.1204	24.2218	73	77
24.2218	24.3233	76	64
24.3233	24.4248	73	64
24.4248	24.5313	69	64
24.5313	24.7342	50	52
24.5313	24.7342	54	52
24.5313	24.7342	57	62
24.5313	24.6328	78	77
24.6328	24.7342	81	64
24.7342	24.8415	78	64
24.8415	24.9488	74	64
24.9488	25.0259	73	69
24.9488	25.0259	76	84
25.1545	25.2316	45	45
25.1545	25.2316	49	45
25.1545	25.2316	52	45
25.1545	25.2316	57	55
25.1545	25.2316	73	60
25.1545	25.2316	76	60
25.1545	25.2316	81	74
25.3602	25.4373	45	45
25.3602	25.4373	49	45
25.3602	25.4373	52	45
25.3602	25.4373	57	55
25.3602	25.4373	73	60
25.3602	25.4373	76	60
25.3602	25.4373	81	74
25.5659	25.643	45	45
25.5659	25.643	49	45
25.5659	25.643	52	45
25.5659	25.643	57	55
25.5659	25.643	73	60
25.5659	25.643	76	60
25.5659	25.643	81	74
25.7716	26.1962	45	49
25.7716	26.1962	49	49
25.7716	26.1962	52	49
25.7716	26.1962	57	58
25.7716	26.1962	73	60
25.7716	26.1962	76	60
25.7716	26.1962	81	74
26.1962	26.2483	74	41
26.2483	26.3519	73	42
26.3519	26.4555	71	40
26.4555	26.559	73	40
26.559	26.6746	74	40
26.6746	26.9368	57	34
26.6746	26.9368	75	45
26.8876	27.0947	61	27
26.8876	27.0947	76	42
27.0947	27.3124	59	30
27.3124	27.5181	62	27
27.3124	27.5181	76	40
27.5181	27.7324	61	32
27.5181	27.7324	81	46
27.7238	27.9296	64	26
27.7238	27.9296	80	42
27.9296	28.1353	57	29
27.9296	28.1353	78	44
28.1353	28.3529	61	26
28.1353	28.3529	76	42
28.3529	28.5757	59	34
28.3529	28.5757	73	48
28.563	28.7659	66	28
28.563	28.7659	74	42
28.7659	28.9836	62	32
28.9836	29.1893	59	28
28.9836	29.1893	74	40
29.1893	29.395	56	34
29.1893	29.395	76	45
29.395	29.6007	59	29
29.395	29.6007	74	42
29.6007	29.8065	52	30
29.6007	29.8065	73	45
29.8065	30.0257	62	28
29.8065	30.0257	71	42
30.0257	30.2388	61	34
30.0257	30.2388	68	48
30.2328	30.4358	64	28
30.2328	30.4358	69	44
30.4358	30.6387	56	30
30.6387	30.8517	64	28
30.6387	30.8517	71	45
30.8517	31.0698	57	34
30.8517	31.0698	72	50
31.0589	31.2605	64	26
31.0589	31.2605	73	46
31.2605	31.462	54	29
31.4116	31.462	76	42
31.462	31.6781	57	26
31.462	31.6781	74	47
31.6781	32.5242	52	34
31.6781	32.4184	73	51
31.8896	32.3127	57	27
32.1012	32.5348	61	30
32.3127	32.5348	57	27
32.3127	32.5348	74	44
32.4184	32.5348	73	42
32.5242	32.9485	52	33
32.5242	32.9485	56	33
32.5242	32.7357	71	47
32.7357	32.8421	73	42
32.9485	33.058	74	44
33.1675	33.2795	75	47
33.3916	33.6159	57	34
33.3916	33.6159	75	43
33.6046	33.8118	61	27
33.6046	33.8118	76	42
33.8118	34.032	59	30
34.0294	34.2352	62	27
34.0294	34.0809	78	40
34.0809	34.1323	76	37
34.1323	34.1837	75	37
34.1837	34.2352	76	37
34.2352	34.4769	61	32
34.2352	34.4769	81	46
34.4409	34.5437	64	26
34.4409	34.5437	80	42
34.6466	34.8523	57	29
34.6466	34.7495	78	44
34.8523	34.9612	61	26
34.8523	34.9612	76	42
35.07	35.313	59	34
35.07	35.313	73	48
35.28	35.483	66	28
35.28	35.483	74	42
35.483	35.7006	62	32
35.7006	35.9064	59	28
35.7006	35.7521	76	40
35.7521	35.8035	74	37
35.8035	35.8549	73	37
35.8549	35.9064	74	37
35.9064	36.1206	56	34
35.9064	36.1206	76	45
36.1121	36.2149	59	29
36.1121	36.2149	74	42
36.3178	36.5235	52	30
36.3178	36.4207	73	45
36.5235	36.6331	56	28
36.5235	36.6331	71	42
36.7428	37.1922	57	30
36.7428	37.1922	73	45
37.0716	37.1922	76	42
37.1812	37.6261	50	30
37.1812	37.6261	62	30
37.1812	37.6261	66	45
37.5101	37.6261	71	41
37.6197	38.4967	52	30
37.6197	38.0701	61	30
37.6197	38.0701	69	45
38.0582	38.4967	59	30
38.0582	38.1679	68	43
38.113	38.2227	69	39
38.1679	38.2775	68	43
38.2227	38.4967	69	40
38.2775	38.4236	68	43
38.3506	38.4967	66	40
38.4236	38.4967	68	40
38.4967	38.9233	57	38
38.4967	38.6071	69	46
38.6071	38.7176	76	44
38.7176	38.8204	75	47
38.8204	38.9233	76	43
38.9233	39.0262	78	50
39.0262	39.129	76	47
39.129	39.2386	69	49
39.129	39.2386	75	51
39.2386	39.3483	76	51
39.3483	39.4533	71	55
39.3483	39.4533	74	59
39.4533	39.5583	76	50
39.5583	39.6612	69	49
39.5583	39.6612	74	52
39.6612	39.764	76	50
39.764	39.8669	68	56
39.764	39.8669	74	62
39.8669	39.9698	76	49
39.9698	40.0786	64	48
39.9698	40.0786	74	52
40.0786	40.1874	76	49
40.1874	40.6126	69	55
40.1874	40.2978	73	50
40.2978	40.4083	76	44
40.4083	40.5104	75	47
40.5104	40.6126	76	43
40.6126	40.7148	78	50
40.7148	40.8169	76	47
40.8169	40.9266	57	50
40.8169	40.9266	75	51
40.9266	41.0362	76	51
41.0362	41.1419	59	56
41.0362	41.1419	74	59
41.1419	41.2477	76	50
41.2477	41.3506	57	50
41.2477	41.3506	74	52
41.3506	41.4534	76	50
41.4534	41.5563	56	56
41.4534	41.5563	74	62
41.5563	41.6591	76	49
41.6591	41.768	52	51
41.6591	41.768	74	52
41.768	41.8768	76	49
41.8768	41.9872	57	45
41.8768	42.3034	69	41
41.9872	42.0977	64	35
42.0977	42.2005	63	37
42.2005	42.3034	64	34
42.3034	42.4075	66	40
42.4075	42.5117	64	37
42.5117	42.6189	63	40
42.5117	42.6189	81	57
42.6189	42.726	64	40
42.726	42.831	62	47
42.726	42.831	83	63
42.831	42.936	64	39
42.936	43.0389	62	41
42.936	43.0389	81	58
43.0389	43.1418	64	39
43.1418	43.2446	62	49
43.1418	43.2446	80	63
43.2446	43.3475	64	39
43.3475	43.4563	62	41
43.3475	43.4563	76	58
43.4563	43.5652	64	39
43.5652	43.6756	61	39
43.5652	43.9917	81	60
43.6756	43.786	64	35
43.786	43.8889	63	37
43.8889	43.9917	64	34
43.9917	44.0946	66	40
44.0946	44.1975	64	37
44.1975	44.3071	45	57
44.1975	44.3071	63	40
44.3071	44.4167	64	40
44.4167	44.524	47	63
44.4167	44.524	62	47
44.524	44.6312	64	39
44.6312	44.734	45	58
44.6312	44.734	62	41
44.734	44.8367	64	39
44.8367	44.9395	44	60
44.8367	44.9395	62	49
44.9395	45.0422	64	39
45.0422	45.151	40	58
45.0422	45.151	62	41
45.151	45.2599	64	39
45.2599	45.6952	45	60
45.2599	45.6952	61	41
45.6952	45.9067	61	35
45.6952	46.129	76	50
45.801	46.0125	69	29
45.9067	46.129	61	29
46.0125	46.129	69	29
46.1182	46.2255	59	35
46.1182	46.5586	74	47
46.2255	46.4401	69	30
46.3328	46.5586	59	30
46.4401	46.5586	69	30
46.5473	46.6594	57	35
46.5473	46.9957	73	46
46.6594	46.8836	69	31
46.7715	46.9957	57	31
46.8836	46.9957	69	31
46.9957	47.439	62	35
46.9957	47.3595	78	50
47.1037	47.3198	69	30
47.2118	47.4408	68	30
47.3198	47.4408	69	30
47.3198	47.4408	80	45
47.3595	47.439	78	45
47.3993	47.4408	76	45
47.439	47.5463	62	35
47.439	47.5463	78	50
47.5463	47.6536	69	30
47.6536	47.7656	68	30
47.6536	47.7656	80	47
47.7656	47.8777	69	30
47.8777	48.1014	62	30
47.8777	48.1014	83	50
47.9842	48.1014	69	32
48.0907	48.3126	68	32
48.0907	48.3126	81	45
48.1972	48.3126	69	32
48.3037	48.5274	62	34
48.3037	48.5274	80	47
48.4103	48.5274	69	30
48.5168	48.7478	68	30
48.5168	48.7478	78	45
48.6323	48.7478	69	30
48.7478	48.8616	61	37
48.7478	48.9754	76	50
48.8616	48.9754	69	37
48.9754	49.0892	68	28
49.0892	49.203	69	28
49.203	49.4145	61	45
49.203	49.6367	76	60
49.3087	49.5202	69	37
49.4145	49.6367	61	37
49.5202	49.6367	69	37
49.626	49.7333	59	45
49.626	50.0663	74	60
49.7333	49.9478	69	39
49.8405	50.0663	59	39
49.9478	50.0663	69	39
50.0551	50.1672	57	45
50.0551	50.5034	73	59
50.1672	50.3913	69	40
50.2793	50.5034	57	40
50.3913	50.5034	69	40
50.5034	50.9468	50	45
50.5034	50.9485	71	68
50.6115	50.8275	59	39
50.7195	50.9485	54	39
50.8275	50.9485	59	39
50.8275	50.9485	78	53
50.9468	51.3961	50	45
50.9468	51.3961	76	60
51.054	51.2734	59	39
51.054	51.3961	74	58
51.1613	51.3961	54	39
51.1613	51.3961	73	58
51.2734	51.3961	59	39
51.2734	51.3961	71	58
51.3855	51.8115	52	39
51.3855	51.8204	69	63
51.492	51.705	61	41
51.5985	51.8204	57	41
51.705	51.8204	61	41
51.8115	52.2595	52	44
51.8115	51.9221	71	55
51.8657	51.9778	73	49
51.9221	52.1448	62	39
51.9221	52.0326	71	56
51.9778	52.2595	73	50
52.0326	52.2595	56	39
52.0326	52.1831	71	56
52.1066	52.2595	69	48
52.1448	52.2595	62	39
52.1831	52.2595	71	48
52.2595	52.3668	57	48
52.2595	52.474	69	66
52.3668	52.474	64	42
52.474	52.5845	61	36
52.5845	52.7198	64	36
52.7198	52.9313	61	35
52.7198	53.1536	76	50
52.8256	53.0371	69	29
52.9313	53.1536	61	29
53.0371	53.1536	69	29
53.1429	53.2501	59	35
53.1429	53.5832	74	47
53.2501	53.4647	69	30
53.3574	53.5832	59	30
53.4647	53.5832	69	30
53.572	53.684	57	35
53.572	54.0203	73	46
53.684	53.9082	69	31
53.7961	54.0203	57	31
53.9082	54.0203	69	31
54.0203	54.4636	62	35
54.0203	54.3841	78	50
54.1283	54.3444	69	30
54.2364	54.4654	68	30
54.3444	54.4654	69	30
54.3444	54.4654	80	45
54.3841	54.4636	78	45
54.4239	54.4654	76	45
54.4636	54.5709	62	35
54.4636	54.5709	78	50
54.5709	54.6782	69	30
54.6782	54.7902	68	30
54.6782	54.7902	80	47
54.7902	54.9023	69	30
54.9023	55.126	62	30
54.9023	55.126	83	50
55.0088	55.126	69	32
55.1153	55.3372	68	32
55.1153	55.3372	81	45
55.2219	55.3372	69	32
55.3284	55.552	62	34
55.3284	55.552	80	47
55.4349	55.552	69	30
55.5414	55.7725	68	30
55.5414	55.7725	78	45
55.6569	55.7725	69	30
55.7725	55.8862	61	37
55.7725	56.0	76	50
55.8862	56.0	69	37
56.0	56.1138	68	28
56.1138	56.2276	69	28
56.2276	56.4391	61	45
56.2276	56.6613	76	60
56.3333	56.5449	69	37
56.4391	56.6613	61	37
56.5449	56.6613	69	37
56.6506	56.7579	59	45
56.6506	57.0909	74	60
56.7579	56.9724	69	39
56.8652	57.0909	59	39
56.9724	57.0909	69	39
57.0797	57.1918	57	45
57.0797	57.528	73	59
57.1918	57.416	69	40
57.3039	57.528	57	40
57.416	57.528	69	40
57.528	57.9714	50	45
57.528	57.9732	71	68
57.6361	57.8522	59	39
57.7441	57.9732	54	39
57.8522	57.9732	59	39
57.8522	57.9732	78	53
57.9714	58.4207	50	45
57.9714	58.4207	76	60
58.0786	58.298	59	39
58.0786	58.4207	74	58
58.1859	58.4207	54	39
58.1859	58.4207	73	58
58.298	58.4207	59	39
58.298	58.4207	71	58
58.4101	58.8361	52	39
58.4101	58.845	69	63
58.5166	58.7296	61	41
58.6231	58.845	57	41
58.7296	58.845	61	41
58.8361	59.2841	52	44
58.8361	58.9467	71	55
58.8903	59.0024	73	49
58.9467	59.1695	62	39
58.9467	59.0572	71	56
59.0024	59.2841	73	50
59.0572	59.2841	56	39
59.0572	59.2077	71	56
59.1312	59.2841	69	48
59.1695	59.2841	62	39
59.2077	59.2841	71	48
59.2841	59.9438	57	45
59.2841	59.9438	61	54
59.2841	59.4987	69	66
59.3914	59.9438	64	59
59.4987	59.9438	69	66
59.6059	59.8205	73	58
59.7132	59.9438	76	66
59.8205	59.9438	73	60
59.9278	60.0407	52	46
59.9278	60.0407	56	46
59.9278	60.0407	59	55
59.9278	60.0407	74	66
60.0407	60.1536	71	59
60.1536	60.8293	57	45
60.1536	60.8293	61	54
60.1536	60.3682	69	66
60.2609	60.8293	64	59
60.3682	60.8293	69	66
60.4754	60.69	73	58
60.5827	60.8293	76	66
60.69	60.8293	73	60
60.8029	60.9158	52	46
60.8029	60.9158	56	46
60.8029	60.9158	59	55
60.8029	60.9158	74	66
60.9158	61.2215	71	59
61.0288	61.2672	57	52
61.0288	61.2672	61	63
61.0288	61.2672	69	75
61.5056	61.7914	41	52
61.5056	61.7914	53	63
61.5056	61.7914	71	64
61.5056	61.7914	74	64
61.5056	61.7914	80	75
62.0063	62.3516	42	52
62.0063	62.3516	54	63
62.0063	62.3516	69	64
62.0063	62.3516	73	64
62.0063	62.3516	81	75
63.0077	63.9352	50	40
63.0077	63.2404	66	39
63.0077	63.2404	74	47
63.2286	63.3469	64	36
63.2286	63.3469	73	43
63.4651	63.7062	64	39
63.4651	63.7062	73	47
63.691	63.8131	62	35
63.691	63.8131	71	42
63.9352	65.5061	52	40
63.9352	64.1793	62	39
63.9352	64.1793	71	47
64.1663	64.2958	61	34
64.1663	64.2958	69	41
64.4253	64.6891	61	39
64.4253	64.6891	69	47
64.6736	64.8167	59	34
64.6736	64.8167	68	41
64.9598	66.168	57	39
64.9598	66.168	59	37
64.9598	66.168	62	45
64.9598	66.168	68	54
65.5061	66.168	52	39
66.1322	66.7045	45	35
66.1322	66.7045	61	35
66.1322	66.7045	69	42
67.2769	67.6999	38	57
67.2769	67.6999	45	57
67.2769	67.6999	50	69
67.2769	67.6999	66	60
67.2769	67.6999	69	60
67.2769	67.6999	74	73
68.123	68.5339	62	37
68.123	68.5339	66	45
68.123	68.236	79	66
68.2257	68.3387	78	55
68.3284	68.4415	76	54
68.4312	68.5441	78	54
68.5339	68.9575	64	37
68.5339	68.9575	67	45
68.5339	68.6454	81	65
68.6353	68.7477	79	55
68.7367	68.8581	78	55
68.8471	68.9676	79	55
68.9575	69.3607	66	37
68.9575	69.3607	69	45
68.9575	69.3607	81	62
69.7693	69.8197	81	50
69.9709	70.0213	83	45
70.1725	70.2229	85	45
70.374	70.4262	86	45
70.5826	71.3889	54	38
70.5826	71.3889	81	54
70.7842	71.1873	62	32
70.9858	71.3889	50	38
70.9858	71.3889	78	45
71.1873	71.3889	62	33
71.3889	71.5905	52	37
71.3889	71.4897	81	50
71.4897	71.5905	79	44
71.5905	71.792	62	32
71.5905	71.6912	78	44
71.6912	71.792	79	44
71.792	71.8424	57	37
71.792	71.8424	81	49
71.9936	72.0476	61	30
71.9936	72.0476	79	46
72.2097	72.6185	50	42
72.2097	72.6185	62	42
72.2097	72.4183	77	54
72.4183	72.6185	78	45
73.0538	73.4597	62	37
73.0538	73.4597	66	45
73.0538	73.1655	79	66
73.1553	73.2669	78	55
73.2568	73.3684	76	54
73.3582	73.4699	78	54
73.4597	73.8835	64	37
73.4597	73.8835	67	45
73.4597	73.5713	81	65
73.5612	73.6737	79	55
73.6626	73.7841	78	55
73.7731	73.8936	79	55
73.8835	74.2866	66	37
73.8835	74.2866	69	45
73.8835	74.2866	81	62
74.6953	74.7457	81	50
74.8969	74.9473	83	45
75.0984	75.1488	85	45
75.3	75.3522	86	45
75.5086	76.3149	54	38
75.5086	76.3149	81	54
75.7102	76.1133	62	32
75.9117	76.3149	50	38
75.9117	76.3149	78	45
76.1133	76.3149	62	33
76.3149	76.5164	52	37
76.3149	76.4157	81	50
76.4157	76.5164	79	44
76.5164	76.718	62	32
76.5164	76.6172	78	44
76.6172	76.718	79	44
76.718	76.9196	57	37
76.718	76.8188	81	50
76.8188	76.9196	79	44
76.9196	77.1282	61	32
76.9196	77.0239	78	44
77.0239	77.1282	76	44
77.1282	77.2324	62	37
77.1282	77.2324	74	50
77.3367	77.4368	66	26
77.5369	77.6371	62	35
77.5369	77.6371	69	42
77.7372	77.8373	66	28
77.9392	78.0453	62	36
77.9392	78.0173	78	47
78.0103	78.0869	79	43
78.0792	78.1545	78	48
78.1477	78.2216	79	43
78.1485	78.249	66	26
78.215	78.288	78	48
78.2813	78.3539	79	44
78.3473	78.4194	78	48
78.3481	78.4466	62	35
78.412	78.4845	79	44
78.4779	78.5509	78	44
78.5459	78.646	66	30
78.5459	78.656	76	48
78.646	78.7561	74	44
78.7461	78.8462	64	37
78.7461	78.8462	73	50
78.9463	79.0464	67	29
79.1465	79.2466	64	37
79.1465	79.2466	69	42
79.3468	79.4469	67	29
79.547	79.6579	64	43
79.547	79.6478	76	50
79.6478	79.7586	66	38
79.7486	79.8587	67	38
79.8487	79.9587	66	38
79.9488	80.0584	64	38
80.0484	80.1591	62	40
80.149	80.261	61	40
80.2508	80.3641	59	40
80.3537	80.458	57	37
80.3537	80.458	76	50
80.5623	80.6624	61	26
80.7625	80.8626	57	35
80.7625	80.8626	69	42
80.9627	81.0628	61	28
81.1647	81.2709	57	36
81.1647	81.2428	79	47
81.2358	81.3125	81	43
81.3047	81.38	79	48
81.3732	81.4472	81	43
81.3741	81.4745	61	26
81.4405	81.5135	79	48
81.5069	81.5794	81	44
81.5728	81.645	79	48
81.5737	81.6721	55	35
81.6376	81.7101	81	44
81.7035	81.7764	79	44
81.7714	81.8715	61	30
81.7714	81.8815	78	48
81.8715	81.9816	76	44
81.9716	82.0717	54	37
81.9716	82.0717	74	50
82.1718	82.2719	62	29
82.3721	82.4722	54	37
82.3721	82.4722	69	42
82.5723	82.6724	62	29
82.7725	82.8834	54	43
82.7725	82.8733	78	50
82.8733	82.9841	50	36
82.9741	83.0842	52	37
83.0742	83.1842	54	38
83.1743	83.2839	55	39
83.2739	83.3847	57	40
83.3745	83.4866	59	41
83.4763	83.5896	61	42
83.5792	83.994	62	44
83.5792	83.6831	78	54
83.6831	83.7978	74	47
83.7874	83.9013	76	48
83.891	84.0043	78	49
83.994	84.1067	79	50
84.0965	84.2088	81	51
84.1987	84.3103	83	52
84.3001	84.411	85	53
84.4011	84.5098	86	55
84.4999	84.6091	85	56
84.5992	84.699	54	31
84.5992	84.699	57	37
84.5992	84.709	83	56
84.699	84.8093	81	56
84.7992	84.8989	54	31
84.7992	84.8989	57	37
84.7992	84.9089	79	56
84.8989	85.0102	78	55
85.0	85.1026	54	31
85.0	85.1026	57	37
85.0	85.1129	76	50
85.1026	85.2163	74	49
85.206	85.6165	55	37
85.206	85.6165	59	44
85.206	85.3191	76	51
85.3088	85.422	78	48
85.4117	85.5246	76	45
85.5144	85.6268	75	43
85.6165	85.7289	76	45
85.7187	85.8305	78	47
85.8204	85.932	79	49
85.9218	86.0332	81	51
86.0231	86.134	83	53
86.1239	86.2348	81	54
86.2247	86.3258	55	30
86.2247	86.3258	59	36
86.2247	86.336	79	53
86.3258	86.4375	78	51
86.4273	86.5288	55	30
86.4273	86.5288	59	36
86.4273	86.539	76	49
86.5288	86.6412	74	48
86.631	86.7331	56	30
86.631	86.7331	59	36
86.631	86.7433	73	46
86.7331	86.8457	71	44
86.8356	87.0372	57	46
86.8356	86.9465	73	50
86.9364	87.0473	74	42
87.0372	87.2476	55	40
87.0372	87.149	73	42
87.138	87.2577	69	40
87.2476	87.3484	54	40
87.2476	87.3484	74	47
87.4492	87.5589	50	40
87.6685	87.8701	49	50
87.6685	87.7793	79	55
87.7693	87.8801	81	46
87.8701	88.0717	45	44
87.8701	87.9809	79	46
87.9709	88.0817	76	46
88.0717	88.1724	50	44
88.0717	88.1825	79	56
88.1724	88.2833	78	47
88.2732	88.374	54	44
88.2732	88.3851	76	48
88.374	88.4945	74	48
88.4845	88.6847	57	51
88.4845	88.5946	73	57
88.5846	88.6947	74	47
88.6847	88.8849	55	44
88.6847	88.7948	73	47
88.7848	88.8949	69	47
88.8849	88.985	54	45
88.8849	88.985	74	57
89.0851	89.193	50	45
89.3009	89.5025	49	54
89.3009	89.4118	79	65
89.4017	89.5126	81	54
89.5025	89.7041	45	47
89.5025	89.6134	79	54
89.6033	89.7142	76	56
89.7041	89.8049	50	48
89.7041	89.815	79	70
89.8049	89.9161	78	56
89.9057	90.01	54	48
89.9057	90.0204	76	56
90.01	90.1243	74	59
90.1143	90.3145	45	50
90.1143	90.3145	52	50
90.1143	90.3145	57	60
90.1143	90.2144	73	79
90.2144	90.3145	76	63
90.3145	90.4146	73	63
90.4146	90.5219	69	63
90.5219	90.7221	50	51
90.5219	90.7221	54	51
90.5219	90.7221	57	60
90.5219	90.622	78	74
90.622	90.7221	81	64
90.7221	90.8294	78	64
90.8294	90.9367	74	64
90.9367	91.1396	45	51
90.9367	91.1396	52	51
90.9367	91.1396	57	61
90.9367	91.0381	73	77
91.0381	91.1396	76	62
91.1396	91.2411	73	62
91.2411	91.3476	69	62
91.3476	91.5505	50	52
91.3476	91.5505	54	52
91.3476	91.5505	57	62
91.3476	91.4491	78	77
91.4491	91.5505	81	64
91.5505	91.6578	78	64
91.6578	91.7651	74	64
91.7651	91.8422	73	69
91.7651	91.8422	76	84
91.9708	92.0479	45	45
91.9708	92.0479	49	45
91.9708	92.0479	52	45
91.9708	92.0479	57	55
91.9708	92.0479	73	60
91.9708	92.0479	76	60
91.9708	92.0479	81	74
92.1765	92.2536	45	45
92.1765	92.2536	49	45
92.1765	92.2536	52	45
92.1765	92.2536	57	55
92.1765	92.2536	73	60
92.1765	92.2536	76	60
92.1765	92.2536	81	74
92.3822	92.4593	45	45
92.3822	92.4593	49	45
92.3822	92.4593	52	45
92.3822	92.4593	57	55
92.3822	92.4593	73	60
92.3822	92.4593	76	60
92.3822	92.4593	81	74
92.5879	93.0316	45	49
92.5879	93.0316	49	49
92.5879	93.0316	52	49
92.5879	93.0316	57	58
92.5879	93.0316	73	60
92.5879	93.0316	76	60
92.5879	93.0316	81	74
93.0316	93.0834	74	41
93.0834	93.1869	73	42
93.1869	93.2905	71	40
93.2905	93.3941	73	40
93.3941	93.5096	74	40
93.5096	93.7718	57	34
93.5096	93.7718	75	45
93.7226	93.9298	61	27
93.7226	93.9298	76	42
93.9298	94.1474	59	30
94.1474	94.3532	62	27
94.1474	94.3532	76	40
94.3532	94.5674	61	32
94.3532	94.5674	81	46
94.5589	94.7646	64	26
94.5589	94.7646	80	42
94.7646	94.9703	57	29
94.7646	94.9703	78	44
94.9703	95.188	61	26
94.9703	95.188	76	42
95.188	95.4107	59	34
95.188	95.4107	73	48
95.398	95.6009	66	28
95.398	95.6009	74	42
95.6009	95.8186	62	32
95.8186	96.0243	59	28
95.8186	96.0243	74	40
96.0243	96.2301	56	34
96.0243	96.2301	76	45
96.2301	96.4358	59	29
96.2301	96.4358	74	42
96.4358	96.6415	52	30
96.4358	96.6415	73	45
96.6415	96.8607	62	28
96.6415	96.8607	71	42
96.8607	97.0738	61	34
96.8607	97.0738	68	48
97.0679	97.2708	64	28
97.0679	97.2708	69	44
97.2708	97.4738	56	30
97.4738	97.6868	64	28
97.4738	97.6868	71	45
97.6868	97.9048	57	34
97.6868	97.9048	72	50
97.8939	98.0955	64	26
97.8939	98.0955	73	46
98.0955	98.2971	54	29
98.2467	98.2971	76	42
98.2971	98.5132	57	26
98.2971	98.5132	74	47
98.5132	99.3592	52	34
98.5132	99.2535	73	51
98.7247	99.1477	57	27
98.9362	99.3698	61	30
99.1477	99.3698	57	27
99.1477	99.3698	74	44
99.2535	99.3698	73	42
99.3592	99.7823	52	33
99.3592	99.7823	56	33
99.3592	99.5708	71	47
99.5708	99.6765	73	42
99.7823	99.8918	74	44
100.001	100.116	75	47
100.23	100.455	57	34
100.23	100.455	75	45
100.443	100.65	61	27
100.443	100.65	76	42
100.65	100.871	59	30
100.868	101.074	62	27
100.868	100.92	78	40
100.92	100.971	76	37
100.971	101.022	75	37
101.022	101.074	76	37
101.074	101.316	61	32
101.074	101.316	81	46
101.28	101.382	64	26
101.28	101.382	80	42
101.485	101.691	57	29
101.485	101.588	78	44
101.691	101.8	61	26
101.691	101.8	76	42
101.909	102.152	59	34
101.909	102.152	73	48
102.119	102.322	66	28
102.119	102.322	74	42
102.322	102.539	62	32
102.539	102.745	59	28
102.539	102.591	76	40
102.591	102.642	74	37
102.642	102.694	73	37
102.694	102.745	74	37
102.745	102.959	56	34
102.745	102.959	76	45
102.951	103.054	59	29
102.951	103.054	74	42
103.156	103.362	52	30
103.156	103.259	73	45
103.362	103.472	56	28
103.362	103.472	71	42
103.581	104.031	57	30
103.581	104.031	73	45
103.91	104.031	76	42
104.02	104.465	50	30
104.02	104.465	62	30
104.02	104.465	66	45
104.349	104.465	71	41
104.458	105.335	52	30
104.458	104.909	61	30
104.458	104.909	69	45
104.897	105.335	59	30
104.897	105.007	68	43
104.952	105.061	69	39
105.007	105.116	68	43
105.061	105.335	69	40
105.116	105.262	68	43
105.189	105.335	66	40
105.262	105.335	68	40
105.335	105.762	57	38
105.335	105.446	69	46
105.446	105.556	76	44
105.556	105.659	75	47
105.659	105.762	76	43
105.762	105.867	78	50
105.867	105.972	76	47
105.972	106.081	69	51
105.972	106.081	75	51
106.081	106.191	76	51
106.191	106.296	71	55
106.191	106.296	74	59
106.296	106.401	76	50
106.401	106.504	69	51
106.401	106.504	74	52
106.504	106.607	76	50
106.607	106.71	68	58
106.607	106.71	74	62
106.71	106.812	76	49
106.812	106.921	64	53
106.812	106.921	74	52
106.921	107.03	76	49
107.03	107.455	69	55
107.03	107.141	73	50
107.141	107.251	76	44
107.251	107.353	75	47
107.353	107.455	76	43
107.455	107.557	78	50
107.557	107.66	76	47
107.66	107.769	57	52
107.66	107.769	75	51
107.769	107.879	76	51
107.879	107.985	59	57
107.879	107.985	74	59
107.985	108.09	76	50
108.09	108.193	57	51
108.09	108.193	74	52
108.193	108.296	76	50
108.296	108.399	56	57
108.296	108.399	74	62
108.399	108.502	76	49
108.502	108.611	52	53
108.502	108.611	74	52
108.611	108.72	76	49
108.72	108.83	57	56
108.72	109.146	69	41
108.83	108.94	64	35
108.94	109.043	63	37
109.043	109.146	64	34
109.146	109.251	66	40
109.251	109.356	64	37
109.356	109.464	63	40
109.356	109.464	81	57
109.464	109.572	64	40
109.572	109.677	62	47
109.572	109.677	83	63
109.677	109.782	64	39
109.782	109.885	62	41
109.782	109.885	81	58
109.885	109.988	64	39
109.988	110.09	62	49
109.988	110.09	80	63
110.09	110.193	64	39
110.193	110.302	62	41
110.193	110.302	76	58
110.302	110.411	64	39
110.411	110.521	61	39
110.411	110.837	81	60
110.521	110.632	64	35
110.632	110.735	63	37
110.735	110.837	64	34
110.837	110.943	66	40
110.943	111.049	64	37
111.049	111.157	45	57
111.049	111.157	63	40
111.157	111.265	64	40
111.265	111.372	47	63
111.265	111.372	62	47
111.372	111.479	64	39
111.479	111.583	45	58
111.479	111.583	62	41
111.583	111.687	64	39
111.687	111.792	44	60
111.687	111.792	62	49
111.792	111.896	64	39
111.896	112.005	40	58
111.896	112.005	62	41
112.005	112.113	64	39
112.113	112.549	45	60
112.113	112.549	61	41
112.549	112.76	61	35
112.549	112.983	76	50
112.655	112.866	69	29
112.76	112.983	61	29
112.866	112.983	69	29
112.972	113.079	59	35
112.972	113.412	74	47
113.079	113.294	69	30
113.186	113.412	59	30
113.294	113.412	69	30
113.401	113.513	57	35
113.401	113.849	73	46
113.513	113.737	69	31
113.625	113.849	57	31
113.737	113.849	69	31
113.849	114.293	62	35
113.849	114.213	78	50
113.957	114.173	69	30
114.065	114.294	68	30
114.173	114.294	69	30
114.173	114.294	80	45
114.213	114.293	78	45
114.253	114.294	76	45
114.293	114.4	62	35
114.293	114.4	78	50
114.4	114.507	69	30
114.507	114.619	68	30
114.507	114.619	80	47
114.619	114.731	69	30
114.731	114.955	62	30
114.731	114.955	83	50
114.838	114.955	69	32
114.944	115.166	68	32
114.944	115.166	81	45
115.051	115.166	69	32
115.157	115.381	62	34
115.157	115.381	80	47
115.264	115.381	69	30
115.37	115.601	68	30
115.37	115.601	78	45
115.486	115.601	69	30
115.601	115.715	61	37
115.601	115.829	76	50
115.715	115.829	69	37
115.829	115.943	68	28
115.943	116.057	69	28
116.057	116.268	61	45
116.057	116.49	76	60
116.162	116.374	69	37
116.268	116.49	61	37
116.374	116.49	69	37
116.48	116.587	59	45
116.48	116.92	74	60
116.587	116.801	69	39
116.694	116.92	59	39
116.801	116.92	69	39
116.909	117.021	57	45
116.909	117.357	73	59
117.021	117.245	69	40
117.133	117.357	57	40
117.245	117.357	69	40
117.357	117.8	50	45
117.357	117.802	71	68
117.465	117.681	59	39
117.573	117.802	54	39
117.681	117.802	59	39
117.681	117.802	78	53
117.8	118.25	50	45
117.8	118.25	76	60
117.908	118.127	59	39
117.908	118.25	74	58
118.015	118.25	54	39
118.015	118.25	73	58
118.127	118.25	59	39
118.127	118.25	71	58
118.239	118.665	52	39
118.239	118.674	69	63
118.346	118.559	61	41
118.452	118.674	57	41
118.559	118.674	61	41
118.665	119.113	52	44
118.665	118.776	71	55
118.719	118.831	73	49
118.776	118.998	62	39
118.776	118.886	71	56
118.831	119.113	73	50
118.886	119.113	56	39
118.886	119.037	71	56
118.96	119.113	69	48
118.998	119.113	62	39
119.037	119.113	71	48
119.113	119.22	57	48
119.113	119.328	69	66
119.22	119.328	64	42
119.328	119.438	61	36
119.438	119.573	64	36
119.573	119.785	61	35
119.573	120.007	76	50
119.679	119.891	69	29
119.785	120.007	61	29
119.891	120.007	69	29
119.996	120.104	59	35
119.996	120.437	74	47
120.104	120.318	69	30
120.211	120.437	59	30
120.318	120.437	69	30
120.426	120.538	57	35
120.426	120.874	73	46
120.538	120.762	69	31
120.65	120.874	57	31
120.762	120.874	69	31
120.874	121.317	62	35
120.874	121.238	78	50
120.982	121.198	69	30
121.09	121.319	68	30
121.198	121.319	69	30
121.198	121.319	80	45
121.238	121.317	78	45
121.277	121.319	76	45
121.317	121.424	62	35
121.317	121.424	78	50
121.424	121.532	69	30
121.532	121.644	68	30
121.532	121.644	80	47
121.644	121.756	69	30
121.756	121.98	62	30
121.756	121.98	83	50
121.862	121.98	69	32
121.969	122.191	68	32
121.969	122.191	81	45
122.075	122.191	69	32
122.182	122.406	62	34
122.182	122.406	80	47
122.288	122.406	69	30
122.395	122.626	68	30
122.395	122.626	78	45
122.511	122.626	69	30
122.626	122.74	61	37
122.626	122.854	76	50
122.74	122.854	69	37
122.854	122.967	68	28
122.967	123.081	69	28
123.081	123.293	61	45
123.081	123.515	76	60
123.187	123.398	69	37
123.293	123.515	61	37
123.398	123.515	69	37
123.504	123.611	59	45
123.504	123.945	74	60
123.611	123.826	69	39
123.719	123.945	59	39
123.826	123.945	69	39
123.933	124.045	57	45
123.933	124.382	73	59
124.045	124.27	69	40
124.157	124.382	57	40
124.27	124.382	69	40
124.382	124.825	50	45
124.382	124.827	71	68
124.49	124.706	59	39
124.598	124.827	54	39
124.706	124.827	59	39
124.706	124.827	78	53
124.825	125.274	50	45
124.825	125.274	76	60
124.932	125.152	59	39
124.932	125.274	74	58
125.04	125.274	54	39
125.04	125.274	73	58
125.152	125.274	59	39
125.152	125.274	71	58
125.264	125.69	52	39
125.264	125.699	69	63
125.37	125.583	61	41
125.477	125.699	57	41
125.583	125.699	61	41
125.69	126.138	52	44
125.69	125.8	71	55
125.744	125.856	73	49
125.8	126.023	62	39
125.8	125.911	71	56
125.856	126.138	73	50
125.911	126.138	56	39
125.911	126.061	71	56
125.985	126.138	69	48
126.023	126.138	62	39
126.061	126.138	71	48
126.138	126.797	57	45
126.138	126.797	61	54
126.138	126.352	69	66
126.245	126.797	64	59
126.352	126.797	69	66
126.46	126.674	73	58
126.567	126.797	76	66
126.674	126.797	73	60
126.781	126.894	52	46
126.781	126.894	56	46
126.781	126.894	59	55
126.781	126.894	74	66
126.894	127.007	71	59
127.007	127.683	57	45
127.007	127.683	61	54
127.007	127.222	69	66
127.114	127.683	64	59
127.222	127.683	69	66
127.329	127.544	73	58
127.436	127.683	76	66
127.544	127.683	73	60
127.656	127.769	52	46
127.656	127.769	56	46
127.656	127.769	59	55
127.656	127.769	74	66
127.769	128.075	71	59
127.882	128.121	57	52
127.882	128.121	61	63
127.882	128.121	69	75
128.359	128.645	41	52
128.359	128.645	53	63
128.359	128.645	71	64
128.359	128.645	74	64
128.359	128.645	80	75
128.86	129.205	42	52
128.86	129.205	54	63
128.86	129.205	69	64
128.86	129.205	73	64
128.86	129.205	81	75
129.861	130.789	50	40
129.861	130.094	66	39
129.861	130.094	74	47
130.082	130.2	64	36
130.082	130.2	73	43
130.319	130.56	64	39
130.319	130.56	73	47
130.545	130.667	62	35
130.545	130.667	71	42
130.789	132.36	52	40
130.789	131.033	62	39
130.789	131.033	71	47
131.02	131.149	61	34
131.02	131.149	69	41
131.279	131.543	61	39
131.279	131.543	69	47
131.527	131.67	59	34
131.527	131.67	68	41
131.813	133.022	57	39
131.813	133.022	59	37
131.813	133.022	62	45
131.813	133.022	68	54
132.36	133.022	52	39
132.986	133.558	45	35
132.986	133.558	61	35
132.986	133.558	69	42
134.13	134.339	81	47
134.339	134.449	79	43
134.558	134.767	79	47
134.767	134.877	78	42
134.986	135.195	78	51
135.195	135.304	76	45
135.414	135.624	76	55
135.624	135.738	75	50
135.852	137.558	47	44
135.852	137.558	59	44
135.852	136.054	72	62
135.852	137.558	75	62
136.054	136.164	71	55
136.274	136.478	71	61
136.478	136.588	69	53
136.699	136.905	69	58
136.905	137.016	67	49
137.127	137.337	67	58
137.337	137.448	66	44
137.558	137.776	75	47
137.776	137.877	76	43
137.979	138.195	67	36
137.979	138.195	71	43
138.195	138.409	79	43
138.409	138.63	77	47
138.63	138.734	78	43
138.839	139.053	63	36
138.839	139.053	71	43
139.053	139.268	81	43
139.268	139.472	47	69
139.268	140.123	75	57
139.268	140.123	78	57
139.472	139.584	45	62
139.696	139.901	45	67
139.901	140.012	43	59
140.123	140.333	43	61
140.123	140.554	76	51
140.123	140.554	79	51
140.333	140.444	42	52
140.554	140.763	42	51
140.763	140.875	40	45
140.987	141.188	79	47
141.188	141.297	78	43
141.406	141.61	78	47
141.61	141.719	76	42
141.828	142.032	76	51
142.032	142.142	74	45
142.251	142.46	74	55
142.46	142.573	73	50
142.686	144.403	45	44
142.686	144.403	57	44
142.686	142.893	70	68
142.686	144.403	73	62
142.893	143.003	69	60
143.113	143.322	69	67
143.322	143.431	67	58
143.541	143.749	67	63
143.749	143.859	66	53
143.969	144.179	66	63
144.179	144.291	64	48
144.403	144.621	73	47
144.621	144.722	74	43
144.824	145.04	66	36
144.824	145.04	69	43
145.04	145.254	78	43
145.254	145.475	75	47
145.475	145.577	76	43
145.679	145.894	61	36
145.679	145.894	69	43
145.894	146.108	79	43
146.108	146.311	45	69
146.108	146.956	73	57
146.108	146.956	76	57
146.311	146.421	43	62
146.531	146.736	43	67
146.736	146.846	42	59
146.956	147.163	42	61
146.956	147.382	74	51
146.956	147.382	78	51
147.163	147.272	40	52
147.382	147.592	40	51
147.592	147.706	38	45
147.82	148.176	62	47
147.82	148.03	78	47
147.925	148.139	86	44
148.03	148.176	61	42
148.03	148.176	78	48
148.139	148.249	86	44
148.249	148.605	61	53
148.249	148.459	78	51
148.354	148.569	86	47
148.459	148.605	59	46
148.459	148.605	78	52
148.569	148.678	86	47
148.678	149.035	59	58
148.678	148.888	78	55
148.783	148.999	86	50
148.888	149.035	57	50
148.888	149.035	78	57
148.999	149.109	86	51
149.109	149.549	57	60
149.109	149.322	78	58
149.216	149.436	86	55
149.322	149.549	56	52
149.322	149.549	78	60
149.436	149.549	86	55
149.549	150.437	44	56
149.549	150.437	56	66
149.549	149.773	76	64
149.661	149.885	86	57
149.773	149.996	76	63
149.885	150.107	86	57
149.996	150.216	76	63
150.107	150.323	86	57
150.216	150.432	76	63
150.323	150.437	86	57
150.432	151.303	46	51
150.432	151.303	58	61
150.432	150.65	76	63
150.541	150.758	85	57
150.65	150.867	76	62
150.758	150.976	85	57
150.867	151.085	76	60
150.976	151.194	85	55
151.085	151.248	76	59
151.194	151.303	85	52
151.303	151.511	74	47
151.309	151.658	59	47
151.407	151.622	85	44
151.511	151.658	57	42
151.511	151.658	74	48
151.622	151.732	85	44
151.732	152.086	57	53
151.732	151.942	74	51
151.837	152.052	85	47
151.942	152.086	55	46
151.942	152.086	74	52
152.052	152.161	85	47
152.161	152.519	55	58
152.161	152.371	74	55
152.266	152.482	83	50
152.371	152.519	54	50
152.371	152.519	74	57
152.482	152.592	83	51
152.592	153.033	54	60
152.592	152.805	74	58
152.699	152.919	83	55
152.805	153.033	53	52
152.805	153.033	74	60
152.919	153.033	83	55
153.033	153.909	41	56
153.033	153.909	53	66
153.033	153.252	73	64
153.142	153.361	83	57
153.252	153.469	73	63
153.361	153.576	83	57
153.469	153.684	73	63
153.576	153.793	83	57
153.684	153.904	73	63
153.793	153.909	83	57
153.904	154.774	42	51
153.904	154.774	54	61
153.904	154.121	73	63
154.012	154.23	81	57
154.121	154.339	73	62
154.23	154.448	81	57
154.339	154.557	73	60
154.448	154.665	81	55
154.557	154.774	73	59
154.665	154.774	81	52
154.774	155.203	55	41
154.774	155.222	71	41
154.774	155.222	81	51
154.879	155.094	62	36
154.984	155.222	59	41
154.984	155.203	79	47
155.094	155.222	62	35
155.203	155.646	55	41
155.203	155.646	79	51
155.309	155.53	62	36
155.414	155.646	59	41
155.414	155.646	78	46
155.53	155.646	62	35
155.646	156.077	55	41
155.646	156.096	77	40
155.646	156.096	86	51
155.751	155.966	62	36
155.855	156.096	59	41
155.855	156.077	85	47
155.966	156.096	62	35
156.077	156.512	55	41
156.077	156.512	85	51
156.183	156.4	62	36
156.288	156.512	59	41
156.288	156.512	83	46
156.4	156.512	62	35
156.512	156.943	54	45
156.512	156.961	79	59
156.512	157.377	82	59
156.617	156.832	61	39
156.722	156.961	58	45
156.722	156.943	78	52
156.832	156.961	61	38
156.943	157.377	54	45
156.943	157.377	78	59
157.048	157.265	61	39
157.153	157.377	58	45
157.153	157.377	76	51
157.265	157.377	61	38
157.377	157.809	53	45
157.377	157.828	74	61
157.377	158.242	83	61
157.482	157.698	62	39
157.587	157.828	56	45
157.587	157.809	73	51
157.698	157.828	62	38
157.809	158.242	53	45
157.809	158.242	73	61
157.914	158.131	62	39
158.019	158.242	56	45
158.019	158.242	71	55
158.131	158.242	62	38
158.242	159.131	54	40
158.242	158.469	67	39
158.242	158.469	76	47
158.458	158.572	66	36
158.458	158.572	74	43
158.686	158.917	66	39
158.686	158.917	74	47
158.903	159.017	64	35
158.903	159.017	73	42
159.131	160.552	42	40
159.131	159.362	64	39
159.131	159.362	73	47
159.35	159.47	62	34
159.35	159.47	71	41
159.59	159.827	62	39
159.59	159.827	71	47
159.815	159.933	61	34
159.815	159.933	70	41
160.051	161.129	47	39
160.051	161.129	61	37
160.051	161.129	64	45
160.051	161.129	70	54
160.552	161.129	42	39
161.098	161.599	35	35
161.098	161.599	62	35
161.098	161.599	71	42
162.099	163.114	47	54
162.099	163.114	59	65
162.099	163.101	62	57
162.099	163.101	66	57
162.099	163.114	71	68
163.101	163.602	45	49
163.101	163.602	57	58
163.101	163.602	62	51
163.101	163.602	66	51
163.101	163.602	72	61
164.102	165.133	43	32
164.102	165.133	55	38
164.102	165.133	71	39
164.102	165.133	74	46
164.853	165.133	75	40
165.122	165.658	42	32
165.122	165.658	54	38
165.122	165.658	72	39
165.122	165.658	76	46
166.731	166.943	59	42
166.731	167.165	74	60
166.837	167.049	67	34
166.943	167.165	59	34
167.049	167.165	67	34
167.154	167.262	57	42
167.154	167.595	72	56
167.262	167.476	67	36
167.369	167.595	57	36
167.476	167.595	67	36
167.583	167.695	55	42
167.583	168.032	71	55
167.695	167.92	67	37
167.808	168.032	55	37
167.92	168.032	67	37
168.032	168.475	60	42
168.032	168.396	76	60
168.14	168.356	67	36
168.248	168.477	66	36
168.356	168.477	67	36
168.356	168.477	78	54
168.396	168.475	76	54
168.435	168.477	74	54
168.475	168.582	60	42
168.475	168.582	76	60
168.582	168.69	67	36
168.69	168.802	66	36
168.69	168.802	78	56
168.802	168.914	67	36
168.914	169.137	60	36
168.914	169.137	81	60
169.02	169.137	67	38
169.127	169.349	66	38
169.127	169.349	79	54
169.233	169.349	67	38
169.34	169.563	60	40
169.34	169.563	78	56
169.446	169.563	67	36
169.553	169.784	66	36
169.553	169.784	76	54
169.668	169.784	67	36
169.784	169.898	59	44
169.784	170.011	74	60
169.898	170.011	67	44
170.011	170.125	66	33
170.125	170.239	67	33
170.239	170.45	59	37
170.239	170.673	74	49
170.345	170.556	67	30
170.45	170.673	59	30
170.556	170.673	67	30
170.662	170.769	57	37
170.662	171.102	72	49
170.769	170.984	67	32
170.877	171.102	57	32
170.984	171.102	67	32
171.091	171.203	55	37
171.091	171.539	71	48
171.203	171.427	67	33
171.315	171.539	55	33
171.427	171.539	67	33
171.539	171.983	48	37
171.539	171.985	69	56
171.647	171.864	57	32
171.756	171.985	52	32
171.864	171.985	57	32
171.864	171.985	76	43
171.983	172.432	48	37
171.983	172.432	74	49
172.09	172.309	57	32
172.09	172.432	72	48
172.197	172.432	52	32
172.197	172.432	71	48
172.309	172.432	57	32
172.309	172.432	69	48
172.421	172.848	50	32
172.421	172.856	67	52
172.528	172.741	59	34
172.635	172.856	55	34
172.741	172.856	59	34
172.848	173.296	50	36
172.848	172.958	69	45
172.902	173.014	71	40
172.958	173.181	60	32
172.958	173.069	69	46
173.014	173.296	71	41
173.069	173.296	54	32
173.069	173.219	69	46
173.143	173.296	67	39
173.181	173.296	60	32
173.219	173.296	69	39
173.296	173.762	55	39
173.296	173.762	67	54
173.403	173.62	62	34
173.51	173.756	59	29
173.62	173.762	62	29
173.756	173.967	59	42
173.756	174.19	74	60
173.862	174.073	67	34
173.967	174.19	59	34
174.073	174.19	67	34
174.179	174.286	57	42
174.179	174.619	72	56
174.286	174.501	67	36
174.393	174.619	57	36
174.501	174.619	67	36
174.608	174.72	55	42
174.608	175.056	71	55
174.72	174.944	67	37
174.832	175.056	55	37
174.944	175.056	67	37
175.056	175.5	60	42
175.056	175.42	76	60
175.164	175.38	67	36
175.272	175.501	66	36
175.38	175.501	67	36
175.38	175.501	78	54
175.42	175.5	76	54
175.46	175.501	74	54
175.5	175.607	60	42
175.5	175.607	76	60
175.607	175.714	67	36
175.714	175.826	66	36
175.714	175.826	78	56
175.826	175.938	67	36
175.938	176.16	60	36
175.938	176.16	81	60
176.044	176.16	67	38
176.149	176.371	66	38
176.149	176.371	79	54
176.256	176.371	67	38
176.362	176.585	60	40
176.362	176.585	78	56
176.468	176.585	67	36
176.575	176.806	66	36
176.575	176.806	76	54
176.69	176.806	67	36
176.806	176.92	59	44
176.806	177.033	74	60
176.92	177.033	67	44
177.033	177.147	66	33
177.147	177.261	67	33
177.261	177.473	59	37
177.261	177.695	74	49
177.367	177.578	67	30
177.473	177.695	59	30
177.578	177.695	67	30
177.684	177.791	57	37
177.684	178.124	72	49
177.791	178.006	67	32
177.899	178.124	57	32
178.006	178.124	67	32
178.113	178.225	55	37
178.113	178.562	71	48
178.225	178.449	67	33
178.337	178.562	55	33
178.449	178.562	67	33
178.562	179.005	48	37
178.562	179.007	69	56
178.67	178.886	57	32
178.778	179.007	52	32
178.886	179.007	57	32
178.886	179.007	76	43
179.005	179.454	48	37
179.005	179.454	74	49
179.112	179.331	57	32
179.112	179.454	72	48
179.219	179.454	52	32
179.219	179.454	71	48
179.331	179.454	57	32
179.331	179.454	69	48
179.444	179.87	50	32
179.444	179.878	67	52
179.55	179.763	59	34
179.657	179.878	55	34
179.763	179.878	59	34
179.87	180.318	50	36
179.87	179.98	69	45
179.924	180.036	71	40
179.98	180.203	60	32
179.98	180.091	69	46
180.036	180.318	71	41
180.091	180.318	54	32
180.091	180.241	69	46
180.165	180.318	67	39
180.203	180.318	60	32
180.241	180.318	69	39
180.318	180.735	55	44
180.318	180.735	59	52
180.318	180.422	67	59
180.422	180.526	69	53
180.526	180.63	67	59
180.63	180.735	66	52
180.735	180.839	67	59
180.839	180.943	71	54
180.943	181.053	54	40
180.943	181.053	62	48
180.943	181.053	69	59
181.053	181.163	72	53
181.163	181.58	55	44
181.163	181.58	62	52
181.163	181.267	71	59
181.267	181.371	69	53
181.371	181.475	67	59
181.475	181.58	66	52
181.58	181.684	67	59
181.684	181.793	71	54
181.793	181.902	54	39
181.793	181.902	62	47
181.793	181.902	69	59
181.902	182.01	72	53
182.01	182.428	55	43
182.01	182.428	62	51
182.01	182.115	71	59
182.115	182.219	69	53
182.219	182.323	67	59
182.323	182.428	66	52
182.428	182.532	67	59
182.532	182.636	71	54
182.636	182.744	54	39
182.636	182.744	62	46
182.636	182.744	69	59
182.744	182.852	72	53
182.852	182.957	55	42
182.852	182.957	62	50
182.852	182.957	71	59
182.957	183.062	74	53
183.062	183.168	54	39
183.062	183.168	62	46
183.062	183.168	72	59
183.168	183.274	69	52
183.274	183.379	55	39
183.274	183.379	62	46
183.274	183.379	71	59
183.379	183.489	74	54
183.489	183.6	52	39
183.489	183.6	55	46
183.489	183.6	73	59
183.6	183.71	76	53
183.71	184.127	54	42
183.71	184.127	57	50
183.71	183.814	74	59
183.814	183.919	76	53
183.919	184.023	74	59
184.023	184.127	73	52
184.127	184.231	74	59
184.231	184.336	78	54
184.336	184.445	49	42
184.336	184.445	57	50
184.336	184.445	76	59
184.445	184.555	79	53
184.555	184.972	50	44
184.555	184.972	57	52
184.555	184.659	78	59
184.659	184.764	76	53
184.764	184.868	74	59
184.868	184.972	73	52
184.972	185.076	74	59
185.076	185.186	78	54
185.186	185.296	49	42
185.186	185.296	57	50
185.186	185.296	76	59
185.296	185.405	79	53
185.405	185.82	50	45
185.405	185.82	57	54
185.405	185.509	78	59
185.509	185.612	76	53
185.612	185.716	74	59
185.716	185.82	73	52
185.82	185.923	74	59
185.923	186.027	76	54
186.027	186.135	51	45
186.027	186.135	59	54
186.027	186.135	78	64
186.135	186.243	81	58
186.243	186.657	52	47
186.243	186.657	59	56
186.243	186.346	79	64
186.346	186.45	78	58
186.45	186.554	76	64
186.554	186.657	75	57
186.657	186.761	76	64
186.761	186.869	78	59
186.869	186.977	51	45
186.869	186.977	59	53
186.869	186.977	79	64
186.977	187.085	81	58
187.085	187.502	52	51
187.085	187.502	59	60
187.085	187.189	79	69
187.189	187.293	78	67
187.293	187.398	76	65
187.398	187.502	75	62
187.502	187.606	76	64
187.606	187.711	78	65
187.711	187.819	52	46
187.711	187.819	61	55
187.711	187.819	79	67
187.819	187.928	83	60
187.928	188.342	54	52
187.928	188.342	62	62
187.928	188.032	81	67
188.032	188.135	79	60
188.135	188.239	78	67
188.239	188.342	76	59
188.342	188.446	78	67
188.446	188.555	79	61
188.555	188.664	52	48
188.555	188.664	61	57
188.555	188.664	81	67
188.664	188.773	83	60
188.773	189.184	54	52
188.773	189.184	62	62
188.773	188.875	81	67
188.875	188.978	79	66
188.978	189.081	78	65
189.081	189.184	76	64
189.184	189.296	78	67
189.296	189.408	79	61
189.408	189.517	66	54
189.408	189.517	81	67
189.517	189.626	84	60
189.626	189.732	67	62
189.626	189.732	83	67
189.732	189.837	86	57
189.837	189.939	66	56
189.837	189.939	81	62
189.939	190.04	86	57
190.04	190.142	67	61
190.04	190.142	83	67
190.142	190.243	86	56
190.243	190.348	63	53
190.243	190.348	78	62
190.348	190.454	83	56
190.454	190.558	64	62
190.454	190.558	79	67
190.558	190.661	83	57
190.661	190.762	63	56
190.661	190.762	78	62
190.762	190.863	83	57
190.863	190.963	64	64
190.863	190.963	79	67
190.963	191.064	83	58
191.064	191.168	61	56
191.064	191.168	76	62
191.168	191.271	81	57
191.271	191.372	62	66
191.271	191.372	78	67
191.372	191.472	81	57
191.472	191.572	61	57
191.472	191.572	76	62
191.572	191.672	81	57
191.672	191.775	62	66
191.672	191.775	78	67
191.775	191.879	81	57
191.879	191.983	58	57
191.879	191.983	73	62
191.983	192.086	78	57
192.086	192.186	59	66
192.086	192.186	74	67
192.186	192.285	78	59
192.285	192.389	58	57
192.285	192.389	73	61
192.389	192.494	78	58
192.494	192.593	59	63
192.494	192.593	74	67
192.593	192.693	78	59
192.693	192.797	57	57
192.693	192.797	60	57
192.693	192.797	75	62
192.797	192.901	78	59
192.901	193.299	55	53
192.901	193.299	59	64
192.901	193.001	76	67
193.001	193.1	75	61
193.1	193.199	76	65
193.199	193.299	78	60
193.299	193.398	79	70
193.398	193.498	78	60
193.498	193.599	79	65
193.599	193.706	81	60
193.706	193.815	55	42
193.706	193.815	64	50
193.706	193.825	83	59
193.815	193.93	85	60
193.92	194.022	55	34
193.92	194.022	64	40
193.92	194.032	86	61
194.022	194.134	85	64
194.124	194.226	55	34
194.124	194.226	64	40
194.124	194.237	83	65
194.226	194.338	81	66
194.328	194.429	55	34
194.328	194.429	64	40
194.328	194.44	79	66
194.429	194.541	78	65
194.531	194.632	55	42
194.531	194.632	64	50
194.531	194.642	76	63
194.632	194.742	78	64
194.732	194.833	55	34
194.732	194.833	64	40
194.732	194.844	79	67
194.833	194.945	78	70
194.935	195.036	56	34
194.935	195.036	64	40
194.935	195.047	76	68
195.036	195.149	74	67
195.139	195.241	56	34
195.139	195.241	64	40
195.139	195.251	73	65
195.241	195.353	71	64
195.343	195.545	57	48
195.343	195.454	73	67
195.444	195.555	74	67
195.545	195.755	55	42
195.545	195.657	73	57
195.646	195.765	69	57
195.755	195.856	54	42
195.755	195.856	74	66
195.957	196.062	50	42
196.167	196.368	49	52
196.167	196.278	79	66
196.268	196.379	81	56
196.368	196.57	45	46
196.368	196.479	79	56
196.469	196.58	76	56
196.57	196.671	50	46
196.57	196.681	79	66
196.671	196.782	78	57
196.772	196.872	54	46
196.772	196.884	76	57
196.872	196.993	74	57
196.983	197.183	57	53
196.983	197.093	73	68
197.083	197.193	74	56
197.183	197.383	55	46
197.183	197.293	73	55
197.283	197.393	69	55
197.383	197.483	54	47
197.383	197.483	74	68
197.584	197.689	50	47
197.795	197.997	49	56
197.795	197.906	79	68
197.896	198.007	81	56
197.997	198.198	45	49
197.997	198.107	79	56
198.097	198.208	76	58
198.198	198.299	50	50
198.198	198.309	79	73
198.299	198.41	78	58
198.4	198.504	54	50
198.4	198.515	76	58
198.504	198.618	74	61
198.608	198.809	45	50
198.608	198.809	52	50
198.608	198.809	57	60
198.608	198.708	73	79
198.708	198.809	76	63
198.809	198.909	73	63
198.909	199.016	69	63
199.016	199.216	50	51
199.016	199.216	54	51
199.016	199.216	57	60
199.016	199.116	78	74
199.116	199.216	81	64
199.216	199.324	78	64
199.324	199.431	74	64
199.431	199.634	45	51
199.431	199.634	52	51
199.431	199.634	57	61
199.431	199.532	73	77
199.532	199.634	76	59
199.634	199.735	73	60
199.735	199.842	69	60
199.842	200.045	50	52
199.842	200.045	54	52
199.842	200.045	57	62
199.842	199.943	78	77
199.943	200.045	81	64
200.045	200.152	78	64
200.152	200.259	74	64
200.259	200.336	73	69
200.259	200.336	76	84
200.465	200.542	45	45
200.465	200.542	49	45
200.465	200.542	52	45
200.465	200.542	57	55
200.465	200.542	73	60
200.465	200.542	76	60
200.465	200.542	81	74
200.671	200.748	45	45
200.671	200.748	49	45
200.671	200.748	52	45
200.671	200.748	57	55
200.671	200.748	73	60
200.671	200.748	76	60
200.671	200.748	81	74
200.876	200.953	45	45
200.876	200.953	49	45
200.876	200.953	52	45
200.876	200.953	57	55
200.876	200.953	73	60
200.876	200.953	76	60
200.876	200.953	81	74
201.082	201.522	45	49
201.082	201.522	49	49
201.082	201.522	52	49
201.082	201.522	57	58
201.082	201.522	73	60
201.082	201.522	76	60
201.082	201.522	81	74
201.522	201.574	79	41
201.574	201.677	78	42
201.677	201.781	76	40
201.781	201.884	78	40
201.884	202.0	79	40
202.0	202.262	62	30
202.0	202.262	80	45
202.213	202.42	66	23
202.213	202.42	81	42
202.42	202.638	64	30
202.638	202.843	67	27
202.638	202.843	81	40
202.843	203.058	66	32
202.843	203.058	86	46
203.049	203.255	69	26
203.049	203.255	85	42
203.255	203.46	62	29
203.255	203.46	83	44
203.46	203.678	66	26
203.46	203.678	81	42
203.678	203.901	64	34
203.678	203.901	78	48
203.888	204.091	71	28
203.888	204.091	79	42
204.091	204.309	67	32
204.309	204.514	64	28
204.309	204.514	79	40
204.514	204.72	61	34
204.514	204.72	81	45
204.72	204.926	64	29
204.72	204.926	79	42
204.926	205.132	57	30
204.926	205.132	78	45
205.132	205.351	67	28
205.132	205.351	76	42
205.351	205.564	66	34
205.351	205.564	73	48
205.558	205.761	69	28
205.558	205.761	74	44
205.761	205.964	61	30
205.964	206.177	69	28
205.964	206.177	76	45
206.177	206.395	62	34
206.177	206.395	77	50
206.384	206.586	69	26
206.384	206.586	78	46
206.586	206.787	59	29
206.737	206.787	81	42
206.787	207.003	62	26
206.787	207.003	79	47
207.003	207.849	57	34
207.003	207.744	78	51
207.215	207.638	62	27
207.426	207.861	66	30
207.638	207.861	62	27
207.638	207.861	79	44
207.744	207.861	78	42
207.849	208.286	57	33
207.849	208.286	61	33
207.849	208.073	76	47
208.073	208.18	78	42
208.286	208.393	79	44
208.5	208.612	80	47
208.724	208.955	62	34
208.724	208.955	80	45
208.943	209.152	65	27
208.943	209.152	81	42
209.152	209.372	64	30
209.369	209.575	67	27
209.369	209.575	81	40
209.575	209.817	65	32
209.575	209.817	86	46
209.781	209.884	69	26
209.781	209.884	84	42
209.987	210.192	62	29
209.987	210.089	82	44
210.192	210.301	65	26
210.192	210.301	81	42
210.41	210.653	64	34
210.41	210.653	78	48
210.62	210.823	70	28
210.62	210.823	79	42
210.823	211.041	67	32
211.041	211.246	64	28
211.041	211.092	81	40
211.092	211.143	79	37
211.143	211.195	78	37
211.195	211.246	79	37
211.246	211.461	61	34
211.246	211.461	81	45
211.452	211.555	64	29
211.452	211.555	79	42
211.658	211.864	57	30
211.658	211.761	77	45
211.864	211.973	61	28
211.864	211.973	76	42
212.083	212.307	62	34
212.083	212.307	79	45
212.296	212.503	69	27
212.296	212.503	77	42
212.503	212.723	60	30
212.721	212.926	69	27
212.721	212.926	76	40
212.926	213.168	58	32
212.926	213.168	73	46
213.132	213.338	65	26
213.132	213.338	74	42
213.338	213.543	64	29
213.543	213.761	62	26
213.543	213.761	80	46
213.761	214.632	57	33
213.761	214.663	80	49
213.979	214.414	62	22
214.196	214.663	65	28
214.414	214.663	62	24
214.632	214.849	57	24
214.632	214.849	61	31
214.632	214.849	81	42
214.849	214.958	43	45
214.849	214.958	55	53
215.067	215.176	42	48
215.067	215.176	54	57
215.285	215.394	40	51
215.285	215.394	52	61
215.502	215.929	38	55
215.502	215.929	50	65
215.502	215.613	78	46
215.613	215.723	81	44
215.723	215.826	80	47
215.826	215.929	81	43
215.929	216.032	83	50
216.032	216.135	81	47
216.135	216.244	74	49
216.135	216.244	80	53
216.244	216.354	81	53
216.354	216.459	76	55
216.354	216.459	79	62
216.459	216.564	81	53
216.564	216.667	74	49
216.564	216.667	79	55
216.667	216.77	81	52
216.77	216.873	73	58
216.77	216.873	79	64
216.873	216.975	81	51
216.975	217.084	69	48
216.975	217.084	79	55
217.084	217.193	81	49
217.193	217.618	74	54
217.193	217.304	78	56
217.304	217.414	81	49
217.414	217.516	80	51
217.516	217.618	81	47
217.618	217.72	83	54
217.72	217.823	81	47
217.823	217.931	62	49
217.823	217.931	80	51
217.931	218.038	81	53
218.038	218.144	64	55
218.038	218.144	79	59
218.144	218.25	81	50
218.25	218.353	62	48
218.25	218.353	79	55
218.353	218.456	81	52
218.456	218.559	61	54
218.456	218.559	79	62
218.559	218.661	81	49
218.661	218.77	57	47
218.661	218.77	79	55
218.77	218.879	81	49
218.879	218.985	62	52
218.879	219.298	74	41
218.985	219.092	69	35
219.092	219.195	68	42
219.195	219.298	69	38
219.298	219.4	71	47
219.4	219.503	69	39
219.503	219.609	68	44
219.503	219.609	86	57
219.609	219.715	69	40
219.715	219.82	67	47
219.715	219.82	88	63
219.82	219.925	69	39
219.925	220.028	67	41
219.925	220.028	86	58
220.028	220.13	69	39
220.13	220.233	67	49
220.13	220.233	85	63
220.233	220.336	69	39
220.336	220.445	67	44
220.336	220.445	81	58
220.445	220.554	69	39
220.554	220.664	66	39
220.554	220.98	86	60
220.664	220.775	69	38
220.775	220.877	68	41
220.877	220.98	69	37
220.98	221.083	71	40
221.083	221.186	69	37
221.186	221.293	50	57
221.186	221.293	68	44
221.293	221.4	69	40
221.4	221.508	52	63
221.4	221.508	67	47
221.508	221.615	69	42
221.615	221.717	50	58
221.615	221.717	67	44
221.717	221.819	69	39
221.819	221.921	49	60
221.819	221.921	67	49
221.921	222.024	69	43
222.024	222.132	45	58
222.024	222.132	67	47
222.132	222.241	69	39
222.241	222.677	50	60
222.241	222.677	66	41
222.677	222.888	66	35
222.677	223.11	81	50
222.782	222.994	74	29
222.888	223.11	66	29
222.994	223.11	74	29
223.1	223.207	64	35
223.1	223.54	79	47
223.207	223.421	74	30
223.314	223.54	64	30
223.421	223.54	74	30
223.529	223.641	62	35
223.529	223.977	78	46
223.641	223.865	74	31
223.753	223.977	62	31
223.865	223.977	74	31
223.977	224.42	67	35
223.977	224.341	83	50
224.085	224.301	74	30
224.193	224.422	73	30
224.301	224.422	74	30
224.301	224.422	85	45
224.341	224.42	83	45
224.381	224.422	81	45
224.42	224.528	67	35
224.42	224.528	83	50
224.528	224.635	74	30
224.635	224.747	73	30
224.635	224.747	85	47
224.747	224.859	74	30
224.859	225.083	67	30
224.859	225.083	88	50
224.966	225.083	74	32
225.072	225.294	73	32
225.072	225.294	86	45
225.179	225.294	74	32
225.285	225.509	67	34
225.285	225.509	85	47
225.392	225.509	74	30
225.498	225.729	73	30
225.498	225.729	83	45
225.614	225.729	74	30
225.729	225.843	66	37
225.729	225.957	81	50
225.843	225.957	74	37
225.957	226.071	73	28
226.071	226.184	74	28
226.184	226.396	66	45
226.184	226.618	81	60
226.29	226.502	74	37
226.396	226.618	66	37
226.502	226.618	74	37
226.607	226.715	64	45
226.607	227.048	79	60
226.715	226.929	74	39
226.822	227.048	64	39
226.929	227.048	74	39
227.036	227.149	62	45
227.036	227.485	78	59
227.149	227.373	74	40
227.261	227.485	62	40
227.373	227.485	74	40
227.485	227.928	55	45
227.485	227.93	76	68
227.593	227.809	64	39
227.701	227.93	59	39
227.809	227.93	64	39
227.809	227.93	83	53
227.928	228.377	55	45
227.928	228.377	81	60
228.035	228.255	64	39
228.035	228.377	79	58
228.143	228.377	59	39
228.143	228.377	78	58
228.255	228.377	64	39
228.255	228.377	76	58
228.367	228.793	57	39
228.367	228.802	74	63
228.473	228.686	66	41
228.58	228.802	62	41
228.686	228.802	66	41
228.793	229.241	57	44
228.793	228.903	76	55
228.847	228.959	78	49
228.903	229.126	67	39
228.903	229.014	76	56
228.959	229.241	78	50
229.014	229.241	61	39
229.014	229.164	76	56
229.088	229.241	74	48
229.126	229.241	67	39
229.164	229.241	76	48
229.241	229.348	62	48
229.241	229.455	74	66
229.348	229.455	69	42
229.455	229.566	66	36
229.566	229.701	69	36
229.701	229.913	54	35
229.701	230.135	69	50
229.807	230.018	62	29
229.913	230.135	54	29
230.018	230.135	62	29
230.124	230.231	52	35
230.124	230.564	67	47
230.231	230.446	62	30
230.339	230.564	52	30
230.446	230.564	62	30
230.553	230.665	50	35
230.553	231.002	66	46
230.665	230.89	62	31
230.777	231.002	50	31
230.89	231.002	62	31
231.002	231.445	55	35
231.002	231.365	71	50
231.11	231.326	62	30
231.218	231.447	61	30
231.326	231.447	62	30
231.326	231.447	73	45
231.365	231.445	71	45
231.405	231.447	69	45
231.445	231.552	55	35
231.445	231.552	71	50
231.552	231.659	62	30
231.659	231.772	61	30
231.659	231.772	73	47
231.772	231.884	62	30
231.884	232.107	55	30
231.884	232.107	76	50
231.99	232.107	62	32
232.097	232.319	61	32
232.097	232.319	74	45
232.203	232.319	62	32
232.31	232.533	55	34
232.31	232.533	73	47
232.416	232.533	62	30
232.523	232.754	61	30
232.523	232.754	71	45
232.638	232.754	62	30
232.754	232.868	54	37
232.754	232.981	69	50
232.868	232.981	62	37
232.981	233.095	61	28
233.095	233.209	62	28
233.209	233.42	42	49
233.209	233.643	69	56
233.209	233.643	81	66
233.315	233.526	50	40
233.42	233.643	42	40
233.526	233.643	50	40
233.632	233.739	40	49
233.632	234.072	67	56
233.632	234.072	79	66
233.739	233.954	50	42
233.846	234.072	40	42
233.954	234.072	50	42
234.061	234.173	38	49
234.061	234.509	66	55
234.061	234.509	78	64
234.173	234.397	50	44
234.285	234.509	38	44
234.397	234.509	50	44
234.509	234.953	43	49
234.509	234.954	64	57
234.509	234.954	76	70
234.617	234.833	52	42
234.725	234.954	47	42
234.833	234.954	52	42
234.833	234.954	83	58
234.953	235.402	43	49
234.953	235.402	81	66
235.06	235.279	52	42
235.06	235.402	79	63
235.167	235.402	47	42
235.167	235.402	78	63
235.279	235.402	52	42
235.279	235.402	76	63
235.391	235.817	45	42
235.391	235.826	74	69
235.498	235.711	54	45
235.604	235.826	50	45
235.711	235.826	54	45
235.817	236.265	45	48
235.817	235.928	76	60
235.872	235.984	78	53
235.928	236.151	55	42
235.928	236.039	76	61
235.984	236.265	78	55
236.039	236.265	49	42
236.039	236.189	76	61
236.113	236.265	74	52
236.151	236.265	55	42
236.189	236.265	76	52
236.265	236.688	38	59
236.265	236.688	45	59
236.265	236.688	50	70
236.265	236.688	66	62
236.265	236.688	69	62
236.265	236.688	74	74
237.112	237.517	62	37
237.112	237.517	66	45
237.112	237.223	79	66
237.213	237.325	78	55
237.314	237.426	76	54
237.416	237.528	78	54
237.517	237.941	64	37
237.517	237.941	67	45
237.517	237.629	81	65
237.619	237.731	79	55
237.72	237.842	78	55
237.831	237.951	79	55
237.941	238.344	66	37
237.941	238.344	69	45
237.941	238.344	81	62
238.753	238.803	81	50
238.955	239.005	83	45
239.156	239.207	85	45
239.358	239.41	86	45
239.566	240.373	54	38
239.566	240.373	81	54
239.768	240.171	62	32
239.969	240.373	50	38
239.969	240.373	78	45
240.171	240.373	62	33
240.373	240.574	52	37
240.373	240.473	81	50
240.473	240.574	79	44
240.574	240.776	62	32
240.574	240.675	78	44
240.675	240.776	79	44
240.776	240.826	57	37
240.776	240.826	81	49
240.977	241.031	61	30
240.977	241.031	79	46
241.193	241.602	50	42
241.193	241.602	62	42
241.193	241.402	77	54
241.402	241.602	78	45
242.003	242.104	62	37
242.003	242.104	66	45
242.003	242.114	79	66
242.104	242.216	78	55
242.206	242.307	62	31
242.206	242.307	66	38
242.206	242.317	76	54
242.307	242.419	78	54
242.409	242.51	64	37
242.409	242.51	67	45
242.409	242.52	81	65
242.51	242.622	79	55
242.611	242.722	64	31
242.611	242.722	67	38
242.611	242.733	78	55
242.722	242.842	79	55
242.832	243.235	66	37
242.832	243.235	69	45
242.832	243.235	81	62
243.644	243.694	81	50
243.846	243.896	83	45
244.047	244.098	85	45
244.249	244.301	86	45
244.457	245.264	54	38
244.457	245.264	81	54
244.659	245.062	62	32
244.861	245.264	50	38
244.861	245.264	78	45
245.062	245.264	62	33
245.264	245.465	52	37
245.264	245.364	81	50
245.364	245.465	79	44
245.465	245.667	62	32
245.465	245.566	78	44
245.566	245.667	79	44
245.667	245.868	57	37
245.667	245.768	81	50
245.768	245.868	79	44
245.868	246.076	61	32
245.868	245.973	78	44
245.973	246.076	76	44
246.076	246.179	54	47
246.076	246.179	74	45
246.179	246.281	62	39
246.179	246.281	76	46
246.281	246.383	57	39
246.281	246.383	78	48
246.383	246.484	62	39
246.383	246.484	79	49
246.484	246.584	54	48
246.484	246.584	81	50
246.584	246.685	62	40
246.584	246.685	83	51
246.685	246.785	57	40
246.685	246.785	85	53
246.785	246.897	62	40
246.785	246.897	86	54
246.897	247.3	55	48
246.897	247.711	86	58
246.998	247.199	62	40
247.098	247.501	59	40
247.199	247.401	62	40
247.3	247.711	55	49
247.3	247.711	83	49
247.401	247.602	62	40
247.501	247.711	59	40
247.602	247.711	62	40
247.602	247.711	79	54
247.711	247.811	57	47
247.711	248.529	78	59
247.811	248.011	66	38
247.911	248.312	62	38
248.011	248.212	66	38
248.112	248.519	57	48
248.112	248.529	81	54
248.212	248.412	66	40
248.312	248.529	62	40
248.412	248.529	66	40
248.412	248.529	74	54
248.519	248.92	57	48
248.519	249.328	76	59
248.619	248.819	67	39
248.719	249.12	64	39
248.819	249.02	67	39
248.92	249.328	57	49
248.92	249.328	79	54
249.02	249.22	67	40
249.12	249.328	64	40
249.22	249.328	67	40
249.22	249.328	73	54
249.328	249.432	54	47
249.328	249.432	74	53
249.432	249.537	62	39
249.432	249.537	76	53
249.537	249.641	57	41
249.537	249.641	78	54
249.641	249.744	62	42
249.641	249.744	79	55
249.744	249.846	54	48
249.744	249.846	81	56
249.846	249.948	62	41
249.846	249.948	83	56
249.948	250.05	57	42
249.948	250.05	85	57
250.05	250.16	62	44
250.05	250.16	86	60
250.16	250.265	55	52
250.16	250.265	88	63
250.265	250.366	62	43
250.265	250.366	86	55
250.366	250.467	59	43
250.366	250.467	85	55
250.467	250.567	62	43
250.467	250.567	86	55
250.567	250.668	55	49
250.567	250.668	85	63
250.668	250.769	62	40
250.668	250.769	83	51
250.769	250.87	59	40
250.769	250.87	81	54
250.87	250.978	62	40
250.87	250.978	79	54
250.978	251.084	57	47
250.978	251.084	78	61
251.084	251.185	66	37
251.084	251.185	79	51
251.185	251.286	62	37
251.185	251.286	80	54
251.286	251.387	66	37
251.286	251.387	81	54
251.387	251.487	57	48
251.387	251.487	79	58
251.487	251.588	66	39
251.487	251.588	78	51
251.588	251.689	62	39
251.588	251.689	76	54
251.689	251.798	66	39
251.689	251.798	74	50
251.798	251.902	57	47
251.798	251.902	75	59
251.902	252.003	67	37
251.902	252.003	76	51
252.003	252.104	64	37
252.003	252.104	78	54
252.104	252.204	67	37
252.104	252.204	79	54
252.204	252.305	57	48
252.204	252.305	78	57
252.305	252.406	67	38
252.305	252.406	76	53
252.406	252.507	64	38
252.406	252.507	74	56
252.507	252.616	67	38
252.507	252.616	73	54
252.616	253.276	62	45
252.616	253.276	66	54
252.616	252.831	74	66
252.724	253.276	69	59
252.831	253.276	74	66
252.938	253.153	78	58
253.045	253.276	81	66
253.153	253.276	78	60
253.26	253.373	57	46
253.26	253.373	64	55
253.26	253.373	79	66
253.373	253.486	76	59
253.486	254.162	62	45
253.486	254.162	66	54
253.486	253.7	74	66
253.593	254.162	69	59
253.7	254.162	74	66
253.808	254.022	78	58
253.915	254.162	81	66
254.022	254.162	78	60
254.135	254.248	57	46
254.135	254.248	64	55
254.135	254.248	79	66
254.248	254.554	76	59
254.361	254.599	62	52
254.361	254.599	66	63
254.361	254.599	74	75
254.838	255.124	46	52
254.838	255.124	58	63
254.838	255.124	76	64
254.838	255.124	79	64
254.838	255.124	85	75
255.339	255.684	47	52
255.339	255.684	59	63
255.339	255.684	74	64
255.339	255.684	78	64
255.339	255.684	86	75
256.34	257.268	43	40
256.34	257.268	55	40
256.34	256.573	71	39
256.34	256.573	79	47
256.561	256.679	69	36
256.561	256.679	78	43
256.797	257.039	69	39
256.797	257.039	78	47
257.023	257.145	67	35
257.023	257.145	76	42
257.268	258.838	45	40
257.268	259.5	57	40
257.268	257.512	67	39
257.268	257.512	76	47
257.499	257.628	66	34
257.499	257.628	74	41
257.758	258.021	66	39
257.758	258.021	74	47
258.006	258.149	64	34
258.006	258.149	73	41
258.292	259.5	50	39
258.292	259.5	64	37
258.292	259.5	67	45
258.292	259.5	73	54
258.838	259.5	45	39
259.464	260.037	38	35
259.464	260.037	66	35
259.464	260.037	74	42
