OnsetTime	OffsetTime	MidiPitch	Velocity
0.500997	0.679605	44	45
0.500997	0.679605	51	45
0.500997	0.679605	56	54
0.500997	0.679605	59	48
0.500997	0.620731	63	56
0.619738	0.679605	64	42
0.739472	0.853412	32	30
0.739472	0.853412	44	36
0.739472	0.914768	59	43
0.739472	0.856336	64	51
0.856336	0.914768	65	43
0.9732	1.11854	39	30
0.9732	1.11854	51	36
0.9732	1.14897	59	44
0.9732	1.14897	63	44
0.9732	1.11854	65	52
1.09006	1.14897	66	44
1.20787	1.38251	44	37
1.20787	1.38251	51	37
1.20787	1.38251	56	44
1.20787	1.38251	59	44
1.20787	1.38251	63	44
1.20787	1.33496	66	53
1.32429	1.38251	67	46
1.44071	1.6095	32	32
1.44071	1.6095	44	39
1.44071	1.61532	59	47
1.44071	1.61532	63	47
1.44071	1.6095	67	56
1.55712	1.61532	68	47
1.67353	1.81745	39	33
1.67353	1.81745	51	40
1.67353	1.85097	59	48
1.67353	1.85097	63	48
1.67353	1.81745	68	57
1.79182	1.85097	69	48
1.91011	2.08472	51	41
1.91011	2.08472	56	41
1.91011	2.08472	59	49
1.91011	2.08472	63	50
1.91011	2.07599	69	59
2.02652	2.08472	70	52
2.14293	2.31172	32	36
2.14293	2.31172	44	43
2.14293	2.31754	63	52
2.14293	2.31172	70	61
2.25933	2.31754	71	54
2.37574	2.52222	39	38
2.37574	2.52222	51	46
2.37574	2.55035	63	55
2.37574	2.55035	68	66
2.37574	2.52222	71	66
2.49215	2.55035	72	56
2.60856	2.78249	51	48
2.60856	2.78249	56	48
2.60856	2.78249	59	57
2.60856	2.78249	63	58
2.60856	2.78249	68	58
2.60856	2.74094	72	69
2.72451	2.78249	73	59
2.83986	3.01486	32	41
2.83986	3.01486	44	50
2.83986	3.01486	63	61
2.83986	3.01486	68	61
2.83986	3.01486	73	71
2.95447	3.01486	74	62
3.06951	3.21413	39	44
3.06951	3.21413	51	51
3.06951	3.24979	63	62
3.06951	3.24979	68	62
3.06951	3.21413	74	75
3.18686	3.24979	75	66
3.31273	3.54557	51	47
3.31273	3.54557	58	56
3.31273	3.54557	63	68
3.31273	3.54557	70	68
3.31273	3.54557	75	81
3.42823	3.54557	76	77
3.54557	3.77886	43	48
3.54557	3.77301	51	57
3.54557	3.77301	70	69
3.54557	3.77886	76	82
3.65929	3.77301	75	78
3.77301	4.00674	51	50
3.77301	4.00674	58	59
3.77301	4.00674	63	70
3.77301	4.00674	70	70
3.77301	4.00674	75	84
3.88988	4.00674	73	84
4.00674	4.22468	44	47
4.00674	4.22468	51	56
4.00674	4.22468	63	69
4.00674	4.22468	68	69
4.00674	4.22468	73	82
4.12454	4.22468	71	79
4.24236	4.47426	51	48
4.24236	4.47426	59	57
4.24236	4.47426	63	70
4.24236	4.47426	68	70
4.24236	4.47426	71	83
4.35831	4.47426	73	79
4.47426	4.66848	44	50
4.47426	4.66848	51	59
4.47426	4.66848	63	72
4.47426	4.66848	68	72
4.47426	4.66848	73	85
4.59021	4.66848	75	86
4.70617	4.92626	49	50
4.70617	4.92626	56	60
4.70617	4.92626	64	73
4.70617	4.92626	68	73
4.70617	4.92626	75	87
4.82303	4.92626	73	86
4.93989	5.15609	37	49
4.93989	5.15609	49	58
4.93989	5.15609	64	71
4.93989	5.15609	68	71
4.93989	5.15609	73	84
5.05676	5.15609	71	83
5.17362	5.41309	49	47
5.17362	5.41309	56	56
5.17362	5.41309	61	68
5.17362	5.41309	64	68
5.17362	5.41309	71	81
5.29336	5.41309	70	80
5.41309	5.64361	51	42
5.41309	5.64361	55	51
5.41309	5.6495	61	79
5.53138	5.6495	71	69
5.6495	5.89573	39	38
5.6495	5.88672	51	46
5.6495	5.88672	61	55
5.6495	5.89573	71	66
5.76764	5.88672	70	62
5.88672	6.09178	51	34
5.88672	6.09178	55	40
5.88672	6.13786	61	48
5.88672	6.09178	70	57
6.00971	6.13786	63	54
6.13786	6.31746	44	37
6.13786	6.31746	51	37
6.13786	6.31746	56	45
6.13786	6.31746	59	45
6.13786	6.2576	63	53
6.2576	6.31746	64	45
6.37733	6.50594	32	31
6.37733	6.50594	44	37
6.37733	6.55405	59	45
6.37733	6.50594	64	54
6.49515	6.55405	65	45
6.61295	6.71655	39	32
6.61295	6.71655	51	39
6.61295	6.79255	59	46
6.61295	6.79255	63	46
6.61295	6.73365	65	55
6.73365	6.79255	66	47
6.85145	7.02608	44	39
6.85145	7.02608	51	39
6.85145	7.02608	56	47
6.85145	7.02608	59	47
6.85145	7.02608	63	47
6.85145	6.96787	66	57
6.96787	7.02608	67	48
7.08428	7.19778	32	34
7.08428	7.19778	44	41
7.08428	7.25889	59	49
7.08428	7.25889	63	49
7.08428	7.20069	67	58
7.20069	7.25889	68	50
7.3171	7.46596	39	34
7.3171	7.46596	51	41
7.3171	7.49455	59	50
7.3171	7.49455	63	50
7.3171	7.46596	68	60
7.4354	7.49455	69	50
7.5537	7.72831	43	43
7.5537	7.72831	52	43
7.5537	7.72831	55	51
7.5537	7.72831	59	52
7.5537	7.72831	64	52
7.5537	7.69242	69	62
7.6701	7.72831	70	54
7.78651	7.9553	31	38
7.78651	7.9553	43	45
7.78651	7.96112	59	54
7.78651	7.96112	64	54
7.78651	7.9553	70	64
7.90292	7.96112	71	56
8.01933	8.1658	40	40
8.01933	8.1658	52	47
8.01933	8.19394	59	57
8.01933	8.19394	64	68
8.01933	8.1658	71	68
8.13574	8.19394	72	59
8.25214	8.42607	50	52
8.25214	8.42607	55	52
8.25214	8.42607	59	61
8.25214	8.42607	65	62
8.25214	8.38742	72	73
8.3681	8.42607	73	69
8.48344	8.61148	31	44
8.48344	8.61148	43	53
8.48344	8.65557	65	64
8.48344	8.61148	73	76
8.59805	8.65557	74	71
8.71309	8.86456	43	47
8.71309	8.86456	55	55
8.71309	8.8916	65	66
8.71309	8.8916	71	80
8.83044	8.8916	74	75
8.954	9.1827	42	51
8.954	9.1827	54	61
8.954	9.1827	66	76
8.954	9.1827	71	76
8.954	9.1827	75	90
9.06995	9.1827	76	85
9.18968	9.42341	54	50
9.18968	9.42341	63	60
9.18968	9.42341	66	75
9.18968	9.42341	71	75
9.18968	9.42341	76	89
9.30655	9.42341	75	87
9.42341	9.65714	42	51
9.42341	9.65714	54	61
9.42341	9.65714	66	76
9.42341	9.65714	71	76
9.42341	9.65714	75	90
9.54027	9.65714	78	88
9.65714	9.88723	54	51
9.65714	9.88723	64	61
9.65714	9.88723	66	76
9.65714	9.88723	70	76
9.65714	9.88723	78	90
9.77219	9.88723	73	85
9.88723	10.1254	42	50
9.88723	10.1147	54	60
9.88723	10.1147	66	75
9.88723	10.1147	70	75
9.88723	10.1254	73	89
10.0009	10.1147	75	87
10.1147	10.3484	54	51
10.1147	10.3484	64	61
10.1147	10.3484	66	76
10.1147	10.3484	70	76
10.1147	10.3484	75	90
10.2315	10.3484	76	88
10.3484	10.4059	42	45
10.3484	10.4059	54	54
10.3484	10.5785	66	68
10.3484	10.5785	71	68
10.3484	10.5852	76	81
10.4634	10.5785	75	75
10.5785	10.8086	54	44
10.5785	10.8261	63	52
10.5785	10.8086	66	66
10.5785	10.8261	71	66
10.5785	10.8261	75	78
10.6935	10.8086	80	75
10.8086	11.0423	42	43
10.8086	11.0423	54	51
10.8086	11.0423	66	64
10.8086	11.0423	80	76
10.9254	11.0423	78	73
11.0423	11.2715	54	42
11.0423	11.2715	64	50
11.0423	11.2782	66	63
11.0423	11.2715	70	63
11.0423	11.2782	78	74
11.1569	11.2715	73	69
11.2715	11.5046	42	40
11.2715	11.5007	54	47
11.2715	11.5007	64	60
11.2715	11.5007	70	60
11.2715	11.5046	73	71
11.3861	11.5007	75	68
11.5007	11.7345	54	40
11.5007	11.7345	61	47
11.5007	11.7345	64	59
11.5007	11.7345	70	59
11.5007	11.7345	75	70
11.6176	11.7345	76	67
11.7345	11.9563	47	40
11.7345	11.9563	54	48
11.7345	11.9563	63	60
11.7345	11.9563	71	60
11.7345	11.9563	76	72
11.8482	11.9563	75	68
11.965	12.1916	47	40
11.965	12.2003	54	40
11.965	12.1916	59	48
11.965	12.2003	63	61
11.965	12.2003	75	72
12.0783	12.1916	71	72
12.1916	12.4235	47	43
12.1916	12.4235	55	43
12.1916	12.4235	59	51
12.1916	12.4235	64	64
12.1916	12.4235	71	76
12.3076	12.4235	67	75
12.4235	12.6611	47	45
12.4235	12.6611	54	45
12.4235	12.6611	59	53
12.4235	12.6611	63	66
12.4235	12.664	67	78
12.5423	12.6611	66	74
12.6611	12.8912	47	45
12.6611	12.8942	54	45
12.6611	12.8912	59	54
12.6611	12.8942	63	67
12.6611	12.8942	66	80
12.7761	12.8912	71	75
12.8912	13.1326	47	46
12.8912	13.1326	55	46
12.8912	13.1326	59	55
12.8912	13.1326	64	69
12.8912	13.1326	71	82
13.0119	13.1326	67	78
13.1326	13.3643	47	48
13.1326	13.3643	54	48
13.1326	13.3643	59	57
13.1326	13.3643	63	72
13.1326	13.3643	66	85
13.2499	13.3643	71	81
13.3673	13.5873	52	48
13.3673	13.5873	55	48
13.3673	13.5873	59	57
13.3673	13.5873	64	72
13.3673	13.5873	71	86
13.489	13.5873	67	85
13.6107	13.8491	47	51
13.6107	13.8491	54	51
13.6107	13.8491	59	61
13.6107	13.8491	63	76
13.6107	13.8491	66	90
13.7299	13.8491	71	88
13.8491	14.0576	52	52
13.8491	14.0576	55	52
13.8491	14.0576	59	62
13.8491	14.0576	64	77
13.8491	14.0576	71	91
13.9723	14.0576	67	87
14.0956	14.3292	47	53
14.0956	14.3292	54	53
14.0956	14.3292	59	63
14.0956	14.3292	62	78
14.0956	14.3292	66	93
14.2139	14.3292	71	92
14.3322	14.5468	52	54
14.3322	14.5468	55	54
14.3322	14.5468	59	64
14.3322	14.5468	64	81
14.3322	14.5468	71	96
14.458	14.5468	67	95
14.5963	14.8392	47	60
14.5963	14.8501	54	60
14.5963	14.8501	59	72
14.5963	14.8501	64	77
14.5963	14.8088	67	92
14.5963	16.0525	71	92
14.7177	14.8392	62	74
14.7177	14.8392	66	87
14.8088	14.8501	67	72
14.8392	15.0695	35	56
14.8392	15.0695	47	66
14.8392	15.0695	62	77
14.8392	15.0695	66	92
14.9578	15.0765	61	72
14.9578	15.0765	64	85
15.0765	15.5638	47	56
15.0765	15.3219	54	66
15.0765	15.3219	62	77
15.0765	15.3219	66	92
15.3219	15.5746	54	57
15.3219	15.5746	59	68
15.3219	15.5746	64	73
15.3219	15.5336	67	87
15.4428	15.5638	62	70
15.4428	15.5638	66	82
15.5336	15.5746	67	71
15.5638	15.8104	35	53
15.5638	15.7993	47	62
15.5638	15.7993	62	73
15.5638	15.7993	66	87
15.6815	15.8104	61	68
15.6815	15.8104	64	80
15.7993	16.0525	47	53
15.7993	16.0525	54	62
15.7993	16.0525	62	73
15.7993	16.0525	66	87
16.0525	16.2889	52	54
16.0525	16.2889	59	64
16.0525	16.2889	62	61
16.0525	16.2889	68	61
16.0525	16.2889	71	72
16.1722	16.2889	64	61
16.1722	16.2889	72	72
16.2919	16.5256	40	54
16.2919	16.5256	52	64
16.2919	16.5256	64	61
16.2919	16.5256	68	61
16.2919	16.5256	72	72
16.4102	16.5256	62	61
16.4102	16.5256	71	72
16.5285	16.725	52	54
16.5285	16.725	59	64
16.5285	16.725	62	61
16.5285	16.725	68	61
16.5285	16.725	71	72
16.6482	16.725	64	61
16.6482	16.725	72	72
16.778	17.0199	45	57
16.778	17.2572	52	57
16.778	17.2684	57	68
16.778	16.9826	62	73
16.778	16.9826	65	87
16.778	17.5026	69	87
16.899	17.0199	60	70
16.899	17.0199	64	82
16.9897	17.2684	65	63
17.0199	17.2684	33	53
17.0199	17.2572	45	62
17.0199	17.2572	60	73
17.0199	17.2572	64	87
17.1385	17.2684	59	68
17.1385	17.2684	62	80
17.2572	17.7421	45	53
17.2572	17.5026	52	62
17.2572	17.5026	60	73
17.2572	17.5026	64	87
17.5026	17.9758	52	54
17.5026	17.9901	57	64
17.5026	17.6912	62	69
17.5026	17.6912	65	82
17.5026	18.9469	69	84
17.6224	17.7421	60	66
17.6224	17.7421	64	77
17.7122	17.9901	65	59
17.7421	17.9901	33	50
17.7421	17.9758	45	58
17.7421	17.9758	60	69
17.7421	17.9758	64	82
17.859	17.9901	59	64
17.859	17.9901	62	76
17.9758	18.4607	45	50
17.9758	18.2213	52	58
17.9758	18.2352	60	69
17.9758	18.2352	64	82
18.2213	18.6945	52	54
18.2213	18.7149	57	64
18.2213	18.4148	62	69
18.2213	18.4148	65	82
18.341	18.4607	60	66
18.341	18.4607	64	77
18.4308	18.7149	65	59
18.4607	18.7149	33	50
18.4607	18.6945	45	58
18.4607	18.6945	60	69
18.4607	18.6945	64	82
18.5776	18.7149	59	64
18.5776	18.7149	62	76
18.6945	18.8972	45	50
18.6945	18.8972	52	58
18.6945	18.9469	60	69
18.6945	19.1834	64	82
18.9469	19.1834	50	54
18.9469	19.1834	57	64
18.9469	19.1834	60	61
18.9469	19.1834	66	61
18.9469	19.1834	69	72
19.0667	19.1834	62	61
19.0667	19.1834	71	72
19.1864	19.423	38	54
19.1864	19.423	50	64
19.1864	19.423	62	61
19.1864	19.423	66	61
19.1864	19.423	71	72
19.3047	19.423	60	61
19.3047	19.423	69	72
19.423	19.6136	50	54
19.423	19.6136	57	64
19.423	19.6136	60	61
19.423	19.6136	66	61
19.423	19.6136	69	72
19.5427	19.6136	62	61
19.5427	19.6136	71	72
19.6625	19.9019	43	51
19.6625	20.1327	50	51
19.6625	20.1327	55	61
19.6625	19.873	60	65
19.6625	19.872	64	78
19.6625	20.391	67	78
19.7822	19.9019	59	63
19.7822	19.9019	62	73
19.872	20.1327	64	56
19.9019	20.1327	31	47
19.9019	20.1327	43	55
19.9019	20.1327	59	65
19.9019	20.1327	62	78
20.0188	20.1356	57	61
20.0188	20.1356	60	72
20.1356	20.3313	43	47
20.1356	20.3313	55	55
20.1356	20.391	59	65
20.1356	20.391	62	78
20.391	20.6245	48	32
20.391	20.6245	55	38
20.391	20.6245	64	37
20.391	20.6245	67	44
20.5108	20.6245	69	45
20.6305	20.868	48	32
20.6305	20.868	55	32
20.6305	20.868	60	38
20.6305	20.868	64	40
20.6305	20.868	69	49
20.7493	20.868	71	51
20.868	21.1046	48	35
20.868	21.1046	55	35
20.868	21.1046	60	42
20.868	21.1046	64	45
20.868	21.1046	71	54
20.9868	21.1046	72	57
21.1046	21.3374	48	43
21.1046	21.351	55	43
21.1046	21.3374	60	52
21.1046	21.3374	64	51
21.1046	21.351	72	61
21.221	21.3374	74	63
21.3374	21.5644	48	43
21.3374	21.5644	54	43
21.3374	21.5644	60	52
21.3374	21.5644	64	55
21.3374	21.5644	69	55
21.3374	21.5644	74	66
21.4539	21.5644	76	69
21.5703	21.773	47	47
21.5703	21.773	54	47
21.5703	21.773	59	56
21.5703	21.773	64	60
21.5703	21.773	69	60
21.5703	21.773	76	72
21.6905	21.773	63	57
21.6905	21.773	75	68
21.8191	22.0586	52	34
21.8191	22.0586	59	40
21.8191	22.0586	64	39
21.8191	22.0586	67	47
21.9388	22.0586	69	48
22.0586	22.2951	48	33
22.0586	22.2951	55	33
22.0586	22.2951	60	39
22.0586	22.2951	64	41
22.0586	22.2951	69	50
22.1768	22.2951	71	51
22.2951	22.5312	48	35
22.2951	22.5312	55	35
22.2951	22.5312	60	42
22.2951	22.5312	64	45
22.2951	22.5312	71	54
22.4134	22.5312	72	55
22.5312	22.7641	48	41
22.5312	22.7776	55	41
22.5312	22.7641	60	49
22.5312	22.7641	64	48
22.5312	22.7776	72	57
22.6476	22.7641	74	58
22.7641	22.9911	48	39
22.7641	23.2578	54	39
22.7641	22.9911	60	48
22.7641	22.9911	64	51
22.7641	22.9911	69	51
22.7641	22.9911	74	61
22.8805	22.9911	76	63
22.9969	23.2345	47	42
22.9969	23.2345	59	50
22.9969	23.2345	69	54
22.9969	23.2345	76	64
23.1176	23.2345	75	66
23.1176	23.2345	78	66
23.2578	23.4737	52	43
23.2578	23.4737	59	51
23.2578	23.4737	67	56
23.2578	23.4737	76	56
23.2578	23.4737	79	67
23.4944	23.7379	47	41
23.4944	23.731	59	49
23.4944	23.7379	69	56
23.4944	23.7379	76	56
23.4944	23.7379	79	67
23.6127	23.731	75	54
23.6127	23.731	78	64
23.731	23.9674	52	41
23.731	23.9674	59	49
23.731	23.9674	67	56
23.731	23.9674	75	56
23.731	23.9674	78	67
23.8493	23.9674	76	55
23.8493	23.9674	79	65
23.9674	24.2169	47	43
23.9674	24.2079	59	51
23.9674	24.2169	69	58
23.9674	24.2169	76	58
23.9674	24.2169	79	70
24.0876	24.2079	75	58
24.0876	24.2079	78	69
24.2079	24.4602	52	45
24.2079	24.4503	59	54
24.2079	24.4503	67	62
24.2079	24.4602	75	62
24.2079	24.4602	78	74
24.3281	24.4503	76	61
24.3281	24.4503	79	72
24.4503	24.6897	47	47
24.4503	24.6897	59	56
24.4503	24.6999	67	64
24.4503	24.6999	76	64
24.4503	24.6999	79	77
24.57	24.6897	68	62
24.57	24.6897	77	62
24.57	24.6897	80	73
24.6897	24.935	47	47
24.6897	24.9251	59	56
24.6897	24.935	68	64
24.6897	24.935	77	64
24.6897	24.935	80	77
24.8075	24.9251	69	62
24.8075	24.9251	78	62
24.8075	24.9251	81	73
24.9251	25.173	53	47
24.9251	25.163	59	47
24.9251	25.173	62	57
24.9251	25.173	69	65
24.9251	25.173	78	65
24.9251	25.173	81	78
25.0437	25.163	68	63
25.0437	25.163	77	63
25.0437	25.163	80	75
25.163	25.4138	54	49
25.163	25.4038	59	49
25.163	25.4138	63	58
25.163	25.4138	68	67
25.163	25.4138	77	67
25.163	25.4138	80	80
25.2831	25.4038	69	65
25.2831	25.4038	78	65
25.2831	25.4038	81	77
25.4038	25.6572	53	50
25.4038	25.6469	59	50
25.4038	25.6572	62	59
25.4038	25.6572	69	68
25.4038	25.6572	78	68
25.4038	25.6572	81	82
25.5247	25.6469	68	66
25.5247	25.6469	77	66
25.5247	25.6469	80	78
25.6469	25.9068	54	51
25.6469	25.9068	59	51
25.6469	25.9068	63	61
25.6469	25.9068	68	70
25.6469	25.9068	77	70
25.6469	25.9068	80	84
25.7706	25.8957	69	68
25.7706	25.8957	78	68
25.7706	25.8957	81	81
25.8957	26.1785	35	52
25.8957	26.1785	47	62
25.8957	26.1785	69	71
25.8957	26.1669	78	71
25.8957	26.1785	81	86
26.0273	26.1669	70	70
26.0273	26.1669	82	82
26.1669	26.4403	34	56
26.1669	26.4403	46	66
26.1669	26.4197	70	73
26.1669	26.4197	78	73
26.1669	26.4197	82	88
26.4197	26.6814	54	49
26.4197	26.6672	58	49
26.4197	26.6672	63	58
26.4197	26.6672	70	70
26.4197	26.6814	78	70
26.4197	26.6672	82	83
26.5435	26.6672	77	65
26.5435	26.6672	80	77
26.6672	26.9187	58	44
26.6672	26.9302	63	44
26.6672	26.9302	66	52
26.6672	26.9187	70	63
26.6672	26.9187	77	63
26.6672	26.9187	80	75
26.6672	26.9187	82	75
26.7884	26.9302	75	58
26.7884	26.9302	78	69
26.9187	27.19	46	56
26.9187	27.19	58	66
26.9187	27.1694	70	73
26.9187	27.1694	77	73
26.9187	27.1694	80	73
26.9187	27.1694	82	88
27.1694	27.4376	53	49
27.1694	27.4376	62	58
27.1694	27.4228	70	70
27.1694	27.4376	77	70
27.1694	27.4376	80	70
27.1694	27.4228	82	83
27.2958	27.4228	75	65
27.2958	27.4228	78	77
27.4228	27.6881	58	44
27.4228	27.6881	65	44
27.4228	27.6881	68	52
27.4228	27.6767	70	63
27.4228	27.6767	75	63
27.4228	27.6767	78	75
27.4228	27.6767	82	75
27.5498	27.6881	74	58
27.5498	27.6881	77	69
27.6767	27.9702	39	50
27.6767	27.9487	51	59
27.6767	27.9487	70	65
27.6767	27.9702	75	65
27.6767	27.9487	78	65
27.6767	27.9702	82	79
27.9487	28.7341	51	44
27.9487	28.221	58	52
27.9487	28.221	70	63
27.9487	28.221	78	63
28.0773	28.206	68	57
28.0773	28.206	77	68
28.206	28.4778	62	44
28.206	28.4778	68	54
28.206	28.4778	77	64
28.3346	28.4655	67	49
28.3346	28.4655	75	59
28.4655	28.7543	63	55
28.4655	28.7341	67	61
28.4655	28.7543	75	74
28.7341	28.9951	39	36
28.7341	28.9804	51	42
28.7341	28.9804	67	52
28.7341	28.9951	70	52
28.8561	28.9804	64	45
28.9804	29.2321	51	31
28.9804	29.1881	61	33
28.9804	29.1881	64	41
28.9804	29.1881	67	48
28.9804	29.1881	71	48
29.1063	29.1881	63	35
29.2321	29.4125	44	34
29.2321	29.4125	51	34
29.2321	29.4125	56	41
29.2321	29.4125	59	46
29.2321	29.3523	63	54
29.3523	29.4125	64	42
29.4726	29.5845	32	30
29.4726	29.5845	44	36
29.4726	29.6493	59	43
29.4726	29.5904	64	51
29.5904	29.6493	65	43
29.7082	29.8545	39	30
29.7082	29.8545	51	36
29.7082	29.8849	59	44
29.7082	29.8849	63	44
29.7082	29.8545	65	52
29.826	29.8849	66	44
29.9438	30.1184	44	37
29.9438	30.1184	51	37
29.9438	30.1184	56	44
29.9438	30.1184	59	44
29.9438	30.1184	63	44
29.9438	30.0854	66	53
30.0602	30.1184	67	46
30.1766	30.3066	32	32
30.1766	30.3066	44	39
30.1766	30.3513	59	47
30.1766	30.3513	63	47
30.1766	30.3066	67	56
30.293	30.3513	68	47
30.4095	30.5534	39	33
30.4095	30.5534	51	40
30.4095	30.5869	59	48
30.4095	30.5869	63	48
30.4095	30.5534	68	57
30.5278	30.5869	69	49
30.646	30.8207	51	41
30.646	30.8207	56	41
30.646	30.8207	59	49
30.646	30.8207	63	50
30.646	30.7789	69	59
30.7624	30.8207	70	52
30.8789	30.9982	32	36
30.8789	30.9982	44	43
30.8789	31.0535	63	52
30.8789	30.9982	70	61
30.9953	31.0535	71	54
31.1117	31.2281	39	38
31.1117	31.2281	51	46
31.1117	31.2863	63	55
31.1117	31.2863	68	66
31.1117	31.2281	71	66
31.2281	31.2863	72	56
31.3445	31.5184	51	48
31.3445	31.5184	56	48
31.3445	31.5184	59	57
31.3445	31.5184	63	58
31.3445	31.5184	68	58
31.3445	31.4769	72	69
31.4605	31.5184	73	60
31.5758	31.7508	32	41
31.5758	31.7508	44	50
31.5758	31.7508	63	61
31.5758	31.7508	68	61
31.5758	31.7508	73	71
31.6904	31.7508	74	62
31.8055	31.9482	39	44
31.8055	31.9482	51	52
31.8055	31.9815	63	63
31.8055	31.9815	68	63
31.8055	31.9482	74	76
31.9228	31.9815	75	66
32.0401	32.2712	51	47
32.0401	32.2712	58	56
32.0401	32.2712	63	68
32.0401	32.2712	70	68
32.0401	32.2712	75	81
32.1539	32.2712	76	77
32.2712	32.5045	43	48
32.2712	32.4986	51	57
32.2712	32.4986	70	69
32.2712	32.5045	76	82
32.3849	32.4986	75	78
32.4986	32.7324	51	50
32.4986	32.7324	58	59
32.4986	32.7324	63	70
32.4986	32.7324	70	70
32.4986	32.7324	75	84
32.6155	32.7324	73	84
32.7324	32.9503	44	47
32.7324	32.9503	51	56
32.7324	32.9503	63	69
32.7324	32.9503	68	69
32.7324	32.9503	73	82
32.8502	32.9503	71	79
32.968	33.1999	51	48
32.968	33.1999	59	57
32.968	33.1999	63	70
32.968	33.1999	68	70
32.968	33.1999	71	83
33.0839	33.1999	73	79
33.1999	33.3941	44	50
33.1999	33.3941	51	59
33.1999	33.3941	63	72
33.1999	33.3941	68	72
33.1999	33.3941	73	85
33.3158	33.3941	75	86
33.4318	33.6519	49	50
33.4318	33.6519	56	60
33.4318	33.6519	64	73
33.4318	33.6519	68	73
33.4318	33.6519	75	87
33.5487	33.6519	73	86
33.6655	33.8817	37	49
33.6655	33.8817	49	58
33.6655	33.8817	64	71
33.6655	33.8817	68	71
33.6655	33.8817	73	84
33.7824	33.8817	71	83
33.8993	34.1387	49	47
33.8993	34.1387	56	56
33.8993	34.1387	61	68
33.8993	34.1387	64	68
33.8993	34.1387	71	81
34.019	34.1387	70	80
34.1387	34.3692	51	42
34.1387	34.3692	55	51
34.1387	34.3751	61	79
34.257	34.3751	71	71
34.3751	34.6294	39	41
34.3751	34.6123	51	49
34.3751	34.6123	61	58
34.3751	34.6294	71	70
34.4933	34.6123	70	67
34.6123	34.8174	51	38
34.6123	34.8174	55	45
34.6123	34.8635	61	54
34.6123	34.8174	70	64
34.7354	34.8635	63	62
34.8635	35.0431	44	54
34.8635	35.0431	51	54
34.8635	35.0431	56	63
34.8635	35.0431	59	45
34.8635	34.9832	63	53
34.9832	35.0431	64	45
35.103	35.2345	32	68
35.103	35.2345	44	81
35.103	35.2797	59	46
35.103	35.2345	64	54
35.2208	35.2797	65	46
35.3386	35.4502	39	40
35.3386	35.4502	51	49
35.3386	35.5182	59	49
35.3386	35.5182	63	49
35.3386	35.4593	65	58
35.4593	35.5182	66	49
35.5771	35.7517	44	60
35.5771	35.7517	51	60
35.5771	35.7517	56	73
35.5771	35.7517	59	51
35.5771	35.7517	63	51
35.5771	35.6935	66	60
35.6935	35.7517	67	51
35.8099	35.9651	30	78
35.8099	35.9651	42	95
35.8099	35.9845	59	53
35.8099	35.9845	63	53
35.8099	35.9651	67	63
35.9263	35.9845	68	54
36.0427	36.1975	42	46
36.0427	36.1975	51	55
36.0427	36.2202	59	55
36.0427	36.2202	63	55
36.0427	36.1975	68	65
36.161	36.2202	69	56
36.2793	36.454	52	71
36.2793	36.454	56	85
36.2793	36.454	59	60
36.2793	36.454	64	60
36.2793	36.4181	69	71
36.3957	36.454	70	61
36.5122	36.6538	28	84
36.5122	36.6538	40	101
36.5122	36.6868	59	61
36.5122	36.6868	64	61
36.5122	36.6538	70	72
36.6286	36.6868	71	62
36.745	36.8915	52	52
36.745	36.8915	56	62
36.745	36.9196	59	62
36.745	36.9196	64	74
36.745	36.8915	71	74
36.8614	36.9196	72	64
36.9778	37.1517	51	71
36.9778	37.1517	56	71
36.9778	37.1517	59	84
36.9778	37.1517	63	65
36.9778	37.1131	72	77
37.0938	37.1517	73	72
37.2091	37.3563	27	85
37.2091	37.3563	39	103
37.2091	37.3812	63	66
37.2091	37.3812	68	66
37.2091	37.3563	73	79
37.3237	37.3812	74	73
37.4388	37.5893	51	57
37.4388	37.5893	56	57
37.4388	37.5893	59	68
37.4388	37.6148	63	68
37.4388	37.6148	68	68
37.4388	37.6148	74	82
37.5561	37.6148	75	76
37.6734	37.9033	49	66
37.6734	37.9033	56	66
37.6734	37.9033	59	80
37.6734	37.9033	64	76
37.6734	37.9033	68	76
37.6734	37.9033	75	90
37.7909	37.9033	73	77
37.9103	38.1453	73	81
38.0278	38.1453	71	73
38.1453	38.384	71	78
38.2646	38.384	70	71
38.384	38.6139	51	66
38.384	38.6139	56	66
38.384	38.6139	59	80
38.384	38.6139	63	76
38.384	38.6139	68	76
38.384	38.6139	73	90
38.5015	38.6139	71	77
38.6208	38.8558	71	81
38.7383	38.8558	70	73
38.8558	39.0945	70	78
38.9752	39.0945	68	71
39.0945	39.3244	49	66
39.0945	39.3244	56	66
39.0945	39.3244	59	80
39.0945	39.3244	64	76
39.0945	39.3244	68	76
39.0945	39.3244	75	90
39.212	39.3244	73	77
39.3314	39.5664	73	81
39.4489	39.5664	71	73
39.5664	39.8051	71	78
39.6857	39.8051	70	71
39.8051	40.035	51	66
39.8051	40.035	56	66
39.8051	40.035	59	80
39.8051	40.035	63	76
39.8051	40.035	68	76
39.8051	40.035	73	90
39.9226	40.035	71	77
40.0419	40.2769	71	81
40.1594	40.2769	70	73
40.2769	40.5156	70	78
40.3963	40.5156	68	71
40.5156	40.7455	52	61
40.5156	40.7455	56	72
40.5156	40.7455	61	76
40.5156	40.7455	68	76
40.5156	40.7455	71	90
40.6331	40.7455	70	77
40.7525	40.9874	70	81
40.87	40.9874	71	73
40.9874	41.2262	71	79
41.1068	41.2262	70	73
41.2262	41.456	70	93
41.3437	41.456	71	80
41.463	41.698	71	85
41.5805	41.698	70	78
41.698	41.9367	70	84
41.8174	41.9367	71	77
41.9367	42.291	71	90
42.0542	42.1736	70	83
42.1736	42.5279	70	85
42.291	42.4085	71	75
42.4085	42.6472	71	79
42.5279	42.6472	70	71
42.6472	43.0016	70	88
42.7647	42.8841	71	73
42.8841	43.2408	71	76
43.0016	43.1191	70	67
43.1191	43.3082	70	70
43.2408	43.3082	71	62
43.3672	43.5072	64	72
43.3672	45.5154	68	66
43.3672	45.9885	70	66
43.4859	43.5466	63	60
43.6072	43.7606	63	62
43.7259	43.7853	61	55
43.8447	44.0237	61	58
43.964	44.0237	59	53
44.0834	44.2218	59	60
44.2009	44.2606	58	52
44.3203	44.472	58	54
44.4378	44.4965	56	47
44.5552	44.7343	56	53
44.6746	44.7343	54	45
44.794	44.9324	54	52
44.9115	44.9712	52	44
45.0308	45.1826	52	46
45.1483	45.2071	51	40
45.2658	45.4503	51	44
45.3852	45.4503	49	40
45.5154	46.4846	51	41
45.5154	46.2251	61	48
45.5154	46.2251	67	48
45.9885	46.2251	39	41
45.9885	46.2251	71	48
46.2251	46.3548	44	41
46.2251	46.3548	59	48
46.2251	46.3548	68	48
46.4846	46.6979	37	34
46.4846	46.6979	49	40
46.4846	46.6979	61	45
46.4846	46.6979	64	45
46.4846	46.6979	68	53
46.6095	46.6979	71	45
46.7344	46.976	39	30
46.7344	46.976	51	37
46.7344	46.976	61	45
46.7344	46.976	67	45
46.7344	46.976	71	53
46.8552	46.976	70	45
46.976	47.1603	44	30
46.976	47.1603	56	37
46.976	47.1603	59	45
46.976	47.1603	70	53
47.0979	47.1603	68	45
47.2228	47.4551	37	34
47.2228	47.4551	49	40
47.2228	47.4551	61	45
47.2228	47.4551	64	45
47.2228	47.4551	68	53
47.3444	47.4551	71	45
47.4663	47.706	39	30
47.4663	47.706	51	37
47.4663	47.706	61	45
47.4663	47.706	67	45
47.4663	47.706	71	53
47.5861	47.706	70	45
47.706	47.8592	40	30
47.706	47.8592	52	37
47.706	47.8927	59	45
47.706	47.8592	70	53
47.8278	47.8927	68	45
47.9576	48.153	35	34
47.9576	48.153	47	40
47.9576	48.153	63	45
47.9576	48.153	66	53
48.0785	48.153	75	45
48.1993	48.4371	37	30
48.1993	48.4371	49	37
48.1993	48.4371	64	45
48.1993	48.4371	70	45
48.1993	48.4371	75	53
48.3182	48.4371	73	45
48.4371	48.6649	39	30
48.4371	48.6649	51	37
48.4371	48.6649	63	45
48.4371	48.6649	68	45
48.4371	48.6649	73	53
48.5589	48.6649	71	45
48.6972	48.9248	51	40
48.6972	48.9248	63	53
48.8181	48.9248	71	45
48.9389	49.1845	39	30
48.9389	49.1845	51	37
48.9389	49.1845	61	45
48.9389	49.1845	67	45
48.9389	49.1845	71	53
49.0617	49.1845	70	45
49.1845	49.3464	44	30
49.1845	49.3464	51	37
49.1845	49.3464	59	45
49.1845	49.3464	68	53
49.4471	49.6579	37	34
49.4471	49.6579	49	40
49.4471	49.6579	61	45
49.4471	49.6579	64	45
49.4471	49.6579	68	53
49.5705	49.6579	71	45
49.6938	49.9367	39	30
49.6938	49.9367	51	37
49.6938	49.9367	61	45
49.6938	49.9367	67	45
49.6938	49.9367	71	53
49.8153	49.9367	70	45
49.9367	50.1223	44	30
49.9367	50.1223	56	37
49.9367	50.1223	59	45
49.9367	50.1223	70	53
50.0599	50.1223	68	45
50.1847	50.4182	37	34
50.1847	50.4182	49	40
50.1847	50.4182	61	45
50.1847	50.4182	64	45
50.1847	50.4182	68	53
50.3071	50.4182	71	45
50.4294	50.669	39	30
50.4294	50.669	51	37
50.4294	50.669	61	45
50.4294	50.669	67	45
50.4294	50.669	71	53
50.5491	50.669	70	45
50.669	50.8287	40	30
50.669	50.8287	52	37
50.669	50.866	59	45
50.669	50.8287	70	53
50.7938	50.866	68	45
50.9381	51.191	33	34
50.9381	51.191	45	40
50.9381	51.191	61	45
50.9381	51.191	64	53
51.0646	51.191	73	45
51.191	51.4385	35	30
51.191	51.4385	47	37
51.191	51.4385	62	45
51.191	51.4385	68	45
51.191	51.4385	73	53
51.3147	51.4385	71	45
51.4385	51.6335	37	30
51.4385	51.6335	49	37
51.4385	51.6335	61	45
51.4385	51.6335	64	45
51.4385	51.6335	71	53
51.5643	51.6335	69	45
51.7026	51.9395	39	38
51.7026	51.9395	51	40
51.7026	51.9395	59	45
51.7026	51.9395	63	53
51.8269	51.9395	71	45
51.9544	52.1958	27	30
51.9544	52.1958	39	37
51.9544	52.1958	58	45
51.9544	52.4702	63	45
51.9544	52.1958	68	53
52.0859	52.1958	67	45
52.2248	52.4702	32	30
52.2248	52.4702	44	37
52.2248	52.4702	59	45
52.2248	52.4702	68	53
52.949	54.1312	39	63
52.949	54.1312	51	63
52.949	54.1312	63	69
53.1885	53.3044	56	59
53.1885	53.3044	59	59
53.3044	53.3914	55	55
53.3044	53.3914	58	55
53.4204	53.5363	55	55
53.4204	53.5363	58	55
53.5363	53.6523	58	55
53.5363	53.6523	61	55
53.6523	53.8917	56	63
53.6523	53.8917	59	63
54.1312	54.3873	64	63
54.3873	55.7123	39	56
54.3873	55.7123	51	56
54.3873	55.4393	63	63
54.6369	54.7644	56	53
54.6369	54.7644	59	53
54.7644	54.86	55	49
54.7644	54.86	58	49
54.8919	55.0194	55	49
54.8919	55.0194	58	49
55.0194	55.1469	58	49
55.0194	55.1469	61	49
55.1469	55.4393	56	56
55.1469	55.4393	59	56
55.4393	55.7123	66	59
55.7123	56.0089	64	52
56.0089	56.2931	64	57
56.2931	56.9498	63	50
56.6397	56.7947	27	81
56.6397	56.7947	39	90
56.6397	56.7947	51	99
56.9498	57.1319	32	90
56.9498	57.1319	44	101
56.9498	57.1319	56	110
