# onset,offset,note,velocity
0.500004	0.730889	82.000000	64.000000
0.500004	0.615447	58.000000	37.000000
0.500004	0.615447	62.000000	45.000000
0.615447	0.730889	65.000000	30.000000
0.730889	0.961774	81.000000	56.000000
0.730889	0.846331	58.000000	29.000000
0.730889	0.846331	62.000000	35.000000
0.846331	0.961774	65.000000	29.000000
0.961774	1.192672	82.000000	56.000000
0.961774	1.077229	62.000000	35.000000
0.961774	1.077229	58.000000	29.000000
1.077229	1.192672	65.000000	30.000000
1.192672	1.420807	79.000000	60.000000
1.192672	1.306733	63.000000	40.000000
1.192672	1.306733	58.000000	34.000000
1.306733	1.420807	67.000000	30.000000
1.420807	1.533956	81.000000	55.000000
1.420807	1.533956	63.000000	35.000000
1.420807	1.533956	58.000000	29.000000
1.533956	1.647119	82.000000	56.000000
1.533956	1.647119	67.000000	29.000000
1.647119	1.760281	84.000000	58.000000
1.647119	1.760281	58.000000	29.000000
1.647119	1.760281	63.000000	35.000000
1.760281	1.873444	86.000000	59.000000
1.760281	1.873444	67.000000	29.000000
1.873444	2.102518	82.000000	63.000000
1.873444	1.987974	58.000000	40.000000
1.873444	1.987974	62.000000	48.000000
1.987974	2.102518	65.000000	30.000000
2.102518	2.215667	84.000000	64.000000
2.102518	2.215667	62.000000	35.000000
2.102518	2.215667	58.000000	29.000000
2.215667	2.328829	82.000000	56.000000
2.215667	2.328829	65.000000	29.000000
2.328829	2.441992	81.000000	60.000000
2.328829	2.441992	58.000000	29.000000
2.328829	2.441992	62.000000	35.000000
2.441992	2.555154	79.000000	56.000000
2.441992	2.555154	65.000000	29.000000
2.555154	2.613117	77.000000	66.000000
2.555154	2.671080	63.000000	41.000000
2.555154	2.671080	57.000000	35.000000
2.671080	2.787018	65.000000	30.000000
2.787018	2.844981	77.000000	60.000000
2.787018	2.902943	57.000000	29.000000
2.787018	2.902943	63.000000	35.000000
2.902943	3.018882	65.000000	31.000000
3.018882	3.078212	77.000000	59.000000
3.018882	3.137543	57.000000	29.000000
3.018882	3.137543	63.000000	35.000000
3.137543	3.256190	65.000000	30.000000
3.256190	3.488041	78.000000	72.000000
3.256190	3.372116	63.000000	44.000000
3.256190	3.372116	57.000000	37.000000
3.372116	3.488041	66.000000	30.000000
3.488041	3.719878	90.000000	68.000000
3.488041	3.603966	57.000000	29.000000
3.488041	3.603966	63.000000	35.000000
3.603966	3.719878	66.000000	30.000000
3.719878	3.778980	90.000000	68.000000
3.719878	3.838083	57.000000	29.000000
3.719878	3.838083	63.000000	35.000000
3.838083	3.956274	66.000000	30.000000
3.956274	4.188111	91.000000	77.000000
3.956274	4.072199	58.000000	35.000000
3.956274	4.072199	63.000000	41.000000
4.072199	4.188111	67.000000	30.000000
4.188111	4.419961	79.000000	60.000000
4.188111	4.304036	63.000000	35.000000
4.188111	4.304036	58.000000	29.000000
4.304036	4.419961	67.000000	30.000000
4.419961	4.477924	79.000000	60.000000
4.419961	4.535887	58.000000	29.000000
4.419961	4.535887	63.000000	35.000000
4.535887	4.651812	67.000000	30.000000
4.651812	4.709774	81.000000	63.000000
4.651812	4.767737	60.000000	35.000000
4.651812	4.767737	63.000000	41.000000
4.767737	4.883662	65.000000	30.000000
4.854681	4.883662	94.000000	55.000000
4.883662	4.996825	93.000000	62.000000
4.883662	4.996825	60.000000	29.000000
4.883662	4.996825	63.000000	35.000000
4.996825	5.109987	91.000000	60.000000
4.996825	5.109987	65.000000	30.000000
5.109987	5.339075	93.000000	62.000000
5.109987	5.224531	60.000000	29.000000
5.109987	5.224531	63.000000	35.000000
5.224531	5.339075	65.000000	30.000000
5.339075	5.396340	94.000000	64.000000
5.339075	5.453605	58.000000	35.000000
5.339075	5.453605	62.000000	41.000000
5.453605	5.568149	65.000000	30.000000
5.539516	5.568149	84.000000	53.000000
5.568149	5.681311	82.000000	60.000000
5.568149	5.681311	58.000000	29.000000
5.568149	5.681311	62.000000	35.000000
5.681311	5.794474	81.000000	56.000000
5.681311	5.794474	65.000000	30.000000
5.794474	5.915522	82.000000	60.000000
5.794474	5.915522	58.000000	29.000000
5.794474	5.915522	62.000000	35.000000
5.915522	6.036570	65.000000	30.000000
6.036570	6.152938	70.000000	40.000000
6.036570	6.152938	74.000000	48.000000
6.036570	6.269306	58.000000	57.000000
6.152938	6.269306	77.000000	42.000000
6.269306	6.385673	70.000000	41.000000
6.269306	6.385673	74.000000	49.000000
6.269306	6.502041	57.000000	48.000000
6.385673	6.502041	77.000000	41.000000
6.502041	6.618409	74.000000	49.000000
6.502041	6.618409	70.000000	41.000000
6.502041	6.734776	58.000000	48.000000
6.618409	6.734776	77.000000	42.000000
6.734776	6.848851	70.000000	42.000000
6.734776	6.848851	74.000000	50.000000
6.734776	6.962925	55.000000	57.000000
6.848851	6.962925	79.000000	42.000000
6.962925	7.076088	70.000000	41.000000
6.962925	7.076088	74.000000	49.000000
6.962925	7.076088	57.000000	46.000000
7.076088	7.189250	79.000000	41.000000
7.076088	7.189250	58.000000	46.000000
7.189250	7.302413	70.000000	41.000000
7.189250	7.302413	74.000000	49.000000
7.189250	7.302413	60.000000	48.000000
7.302413	7.415575	79.000000	41.000000
7.302413	7.415575	62.000000	48.000000
7.415575	7.530119	70.000000	44.000000
7.415575	7.530119	74.000000	52.000000
7.415575	7.644663	58.000000	55.000000
7.530119	7.644663	77.000000	42.000000
7.644663	7.757825	70.000000	41.000000
7.644663	7.757825	74.000000	49.000000
7.644663	7.757825	60.000000	52.000000
7.757825	7.870988	77.000000	41.000000
7.757825	7.870988	58.000000	48.000000
7.870988	7.984150	74.000000	49.000000
7.870988	7.984150	70.000000	41.000000
7.870988	7.984150	57.000000	52.000000
7.984150	8.097313	77.000000	41.000000
7.984150	8.097313	55.000000	48.000000
8.097313	8.213238	75.000000	56.000000
8.097313	8.213238	69.000000	47.000000
8.097313	8.155275	53.000000	56.000000
8.213238	8.329176	77.000000	42.000000
8.329176	8.445102	75.000000	49.000000
8.329176	8.445102	69.000000	41.000000
8.329176	8.387139	53.000000	48.000000
8.445102	8.561040	77.000000	44.000000
8.561040	8.679245	75.000000	49.000000
8.561040	8.679245	69.000000	41.000000
8.561040	8.620143	53.000000	48.000000
8.679245	8.797437	77.000000	42.000000
8.797437	8.913362	69.000000	45.000000
8.797437	8.913362	75.000000	53.000000
8.797437	9.029287	54.000000	61.000000
8.913362	9.029287	81.000000	42.000000
9.029287	9.145212	69.000000	41.000000
9.029287	9.145212	75.000000	49.000000
9.029287	9.261137	66.000000	46.000000
9.145212	9.261137	81.000000	42.000000
9.261137	9.379798	69.000000	41.000000
9.261137	9.379798	75.000000	49.000000
9.261137	9.320468	66.000000	49.000000
9.379798	9.498446	81.000000	42.000000
9.498446	9.614371	75.000000	52.000000
9.498446	9.614371	70.000000	44.000000
9.498446	9.730296	67.000000	61.000000
9.614371	9.730296	82.000000	42.000000
9.730296	9.846221	70.000000	41.000000
9.730296	9.846221	75.000000	49.000000
9.730296	9.962147	55.000000	53.000000
9.846221	9.962147	81.000000	42.000000
9.962147	10.078072	70.000000	41.000000
9.962147	10.078072	75.000000	49.000000
9.962147	10.020109	55.000000	55.000000
10.078072	10.193997	79.000000	42.000000
10.193997	10.309922	68.000000	41.000000
10.193997	10.309922	74.000000	49.000000
10.193997	10.251959	58.000000	60.000000
10.309922	10.425847	77.000000	42.000000
10.367885	10.444703	48.000000	47.000000
10.425847	10.538996	68.000000	41.000000
10.425847	10.538996	74.000000	49.000000
10.425847	10.557852	46.000000	55.000000
10.538996	10.652145	77.000000	42.000000
10.538996	10.672637	45.000000	50.000000
10.652145	10.775111	74.000000	49.000000
10.652145	10.775111	68.000000	41.000000
10.652145	10.898077	46.000000	53.000000
10.775111	10.898077	77.000000	42.000000
10.898077	11.013519	75.000000	49.000000
10.898077	11.013519	67.000000	41.000000
10.898077	10.955798	51.000000	50.000000
11.013519	11.128962	79.000000	42.000000
11.071241	11.147818	41.000000	44.000000
11.128962	11.242111	75.000000	49.000000
11.128962	11.242111	67.000000	41.000000
11.128962	11.260967	39.000000	50.000000
11.242111	11.355260	79.000000	42.000000
11.242111	11.375564	38.000000	47.000000
11.355260	11.477059	75.000000	49.000000
11.355260	11.477059	67.000000	41.000000
11.355260	11.477059	39.000000	50.000000
11.598858	11.660361	82.000000	66.000000
11.598858	11.721865	63.000000	35.000000
11.598858	11.721865	67.000000	41.000000
11.721865	11.844871	70.000000	33.000000
11.783368	11.844871	80.000000	59.000000
11.844871	11.958114	79.000000	67.000000
11.844871	11.958114	63.000000	31.000000
11.844871	11.958114	67.000000	38.000000
11.958114	12.071276	77.000000	62.000000
11.958114	12.071276	70.000000	33.000000
12.071276	12.300337	79.000000	66.000000
12.071276	12.185793	63.000000	31.000000
12.071276	12.185793	67.000000	38.000000
12.185793	12.300337	70.000000	33.000000
12.300337	12.360620	82.000000	66.000000
12.300337	12.420889	62.000000	31.000000
12.300337	12.420889	65.000000	38.000000
12.420889	12.541441	70.000000	33.000000
12.481158	12.541441	79.000000	58.000000
12.541441	12.654657	77.000000	67.000000
12.541441	12.654657	62.000000	31.000000
12.541441	12.654657	65.000000	38.000000
12.654657	12.767819	76.000000	62.000000
12.654657	12.767819	70.000000	33.000000
12.767819	13.001386	77.000000	66.000000
12.767819	12.884603	61.000000	31.000000
12.767819	12.884603	65.000000	38.000000
12.884603	13.001386	70.000000	33.000000
13.001386	13.242490	84.000000	69.000000
13.001386	13.121938	60.000000	31.000000
13.001386	13.121938	65.000000	38.000000
13.121938	13.242490	68.000000	33.000000
13.242490	13.355706	82.000000	70.000000
13.242490	13.355706	60.000000	31.000000
13.242490	13.355706	65.000000	38.000000
13.355706	13.468869	80.000000	64.000000
13.355706	13.468869	68.000000	33.000000
13.468869	13.588616	79.000000	69.000000
13.468869	13.588616	60.000000	31.000000
13.468869	13.588616	65.000000	38.000000
13.588616	13.708363	77.000000	69.000000
13.588616	13.708363	68.000000	33.000000
13.708363	13.954067	84.000000	69.000000
13.708363	13.831222	60.000000	31.000000
13.708363	13.831222	65.000000	38.000000
13.831222	13.954067	67.000000	33.000000
13.954067	14.190558	72.000000	67.000000
13.954067	14.072313	60.000000	31.000000
13.954067	14.072313	64.000000	38.000000
14.072313	14.190558	67.000000	33.000000
14.190558	14.427048	72.000000	67.000000
14.190558	14.308803	60.000000	31.000000
14.190558	14.308803	64.000000	38.000000
14.308803	14.427048	67.000000	36.000000
14.427048	14.547292	68.000000	44.000000
14.427048	14.547292	72.000000	52.000000
14.427048	15.148737	56.000000	44.000000
14.427048	14.667535	60.000000	52.000000
14.547292	14.667535	75.000000	46.000000
14.667535	14.787283	68.000000	45.000000
14.667535	14.787283	72.000000	53.000000
14.667535	14.907030	61.000000	48.000000
14.787283	14.907030	75.000000	45.000000
14.907030	15.028306	68.000000	45.000000
14.907030	15.028306	72.000000	53.000000
14.907030	15.148737	60.000000	48.000000
15.028306	15.148737	75.000000	46.000000
15.148737	15.268981	68.000000	44.000000
15.148737	15.268981	77.000000	52.000000
15.148737	15.866202	49.000000	44.000000
15.148737	15.389224	58.000000	52.000000
15.268981	15.389224	80.000000	46.000000
15.389224	15.507966	68.000000	47.000000
15.389224	15.507966	77.000000	56.000000
15.389224	15.626707	53.000000	50.000000
15.507966	15.626707	80.000000	47.000000
15.626707	15.745449	68.000000	49.000000
15.626707	15.745449	77.000000	58.000000
15.626707	15.866202	55.000000	52.000000
15.745449	15.866202	80.000000	51.000000
15.805825	15.866202	58.000000	52.000000
15.866202	15.984850	68.000000	44.000000
15.866202	15.984850	72.000000	52.000000
15.866202	17.309178	51.000000	44.000000
15.866202	16.103497	56.000000	52.000000
15.984850	16.103497	75.000000	45.000000
16.103497	16.222145	68.000000	42.000000
16.103497	16.222145	72.000000	50.000000
16.103497	16.340792	55.000000	45.000000
16.222145	16.340792	75.000000	41.000000
16.340792	16.462592	68.000000	40.000000
16.340792	16.462592	72.000000	48.000000
16.340792	16.584391	56.000000	42.000000
16.462592	16.584391	75.000000	39.000000
16.584391	16.703628	67.000000	37.000000
16.584391	16.703628	73.000000	44.000000
16.584391	17.065056	58.000000	44.000000
16.703628	16.823537	75.000000	38.000000
16.823537	16.943955	67.000000	37.000000
16.823537	16.943955	73.000000	45.000000
16.943955	17.065056	75.000000	37.000000
17.065056	17.186681	67.000000	37.000000
17.065056	17.186681	73.000000	45.000000
17.065056	17.309178	59.000000	40.000000
17.186681	17.309178	75.000000	38.000000
17.309178	17.370681	68.000000	56.000000
17.309178	17.370681	72.000000	56.000000
17.309178	17.370681	75.000000	66.000000
17.309178	17.432184	56.000000	35.000000
17.309178	17.432184	60.000000	41.000000
17.432184	17.555204	63.000000	33.000000
17.493687	17.555204	73.000000	57.000000
17.555204	17.668446	72.000000	67.000000
17.555204	17.668446	56.000000	31.000000
17.555204	17.668446	60.000000	38.000000
17.668446	17.781609	70.000000	62.000000
17.668446	17.781609	63.000000	33.000000
17.781609	18.010683	72.000000	66.000000
17.781609	17.896139	56.000000	31.000000
17.781609	17.896139	60.000000	38.000000
17.896139	18.010683	63.000000	33.000000
18.010683	18.070966	75.000000	66.000000
18.010683	18.131235	55.000000	31.000000
18.010683	18.131235	58.000000	38.000000
18.131235	18.251787	63.000000	33.000000
18.191504	18.251787	72.000000	57.000000
18.251787	18.365003	70.000000	67.000000
18.251787	18.365003	55.000000	31.000000
18.251787	18.365003	58.000000	38.000000
18.365003	18.478166	69.000000	62.000000
18.365003	18.478166	63.000000	33.000000
18.478166	18.711733	70.000000	66.000000
18.478166	18.594949	54.000000	31.000000
18.478166	18.594949	58.000000	38.000000
18.594949	18.711733	63.000000	33.000000
18.711733	18.952837	77.000000	69.000000
18.711733	18.832285	53.000000	31.000000
18.711733	18.832285	58.000000	38.000000
18.832285	18.952837	61.000000	33.000000
18.952837	19.066053	75.000000	70.000000
18.952837	19.066053	53.000000	31.000000
18.952837	19.066053	58.000000	38.000000
19.066053	19.179215	73.000000	64.000000
19.066053	19.179215	61.000000	33.000000
19.179215	19.298453	72.000000	69.000000
19.179215	19.298453	53.000000	31.000000
19.179215	19.298453	58.000000	38.000000
19.298453	19.417690	70.000000	69.000000
19.298453	19.417690	61.000000	33.000000
19.417690	19.661289	77.000000	69.000000
19.417690	19.539490	53.000000	31.000000
19.417690	19.539490	58.000000	38.000000
19.539490	19.661289	60.000000	33.000000
19.661289	19.898772	65.000000	67.000000
19.661289	19.780030	53.000000	31.000000
19.661289	19.780030	57.000000	38.000000
19.780030	19.898772	60.000000	33.000000
19.898772	20.136255	65.000000	67.000000
19.898772	20.017513	53.000000	31.000000
19.898772	20.017513	57.000000	38.000000
20.017513	20.136255	60.000000	36.000000
20.136255	20.256498	73.000000	44.000000
20.136255	20.256498	77.000000	52.000000
20.136255	20.854551	61.000000	44.000000
20.136255	20.376742	65.000000	52.000000
20.256498	20.376742	80.000000	46.000000
20.376742	20.496489	73.000000	45.000000
20.376742	20.496489	77.000000	53.000000
20.376742	20.616236	66.000000	48.000000
20.496489	20.616236	80.000000	45.000000
20.616236	20.735474	73.000000	45.000000
20.616236	20.735474	77.000000	53.000000
20.616236	20.854551	65.000000	48.000000
20.735474	20.854551	80.000000	46.000000
20.854551	20.975827	73.000000	44.000000
20.854551	20.975827	82.000000	52.000000
20.854551	21.572592	54.000000	44.000000
20.854551	21.097103	63.000000	52.000000
20.975827	21.097103	85.000000	46.000000
21.097103	21.215348	73.000000	47.000000
21.097103	21.215348	82.000000	56.000000
21.097103	21.333594	58.000000	50.000000
21.215348	21.333594	85.000000	47.000000
21.333594	21.451839	73.000000	49.000000
21.333594	21.451839	82.000000	58.000000
21.333594	21.572592	60.000000	52.000000
21.451839	21.572592	85.000000	51.000000
21.512215	21.572592	63.000000	49.000000
21.572592	21.691240	73.000000	44.000000
21.572592	21.691240	77.000000	52.000000
21.572592	23.002009	56.000000	44.000000
21.572592	21.809887	61.000000	52.000000
21.691240	21.809887	80.000000	45.000000
21.809887	21.928535	73.000000	42.000000
21.809887	21.928535	77.000000	50.000000
21.809887	22.047182	60.000000	45.000000
21.928535	22.047182	80.000000	41.000000
22.047182	22.165830	73.000000	40.000000
22.047182	22.165830	77.000000	48.000000
22.047182	22.284478	61.000000	42.000000
22.165830	22.284478	80.000000	39.000000
22.284478	22.402709	72.000000	37.000000
22.284478	22.402709	78.000000	44.000000
22.284478	22.760637	63.000000	44.000000
22.402709	22.521478	80.000000	38.000000
22.521478	22.640796	72.000000	37.000000
22.521478	22.640796	78.000000	45.000000
22.640796	22.760637	80.000000	37.000000
22.760637	22.881041	72.000000	37.000000
22.760637	22.881041	78.000000	45.000000
22.760637	23.002009	64.000000	40.000000
22.881041	23.002009	80.000000	38.000000
23.002009	23.244106	73.000000	37.000000
23.002009	23.244106	77.000000	37.000000
23.002009	23.244106	80.000000	44.000000
23.002009	23.062533	61.000000	35.000000
23.002009	23.062533	65.000000	41.000000
23.244106	23.305260	49.000000	33.000000
23.488737	23.551795	49.000000	33.000000
23.740985	23.801362	61.000000	31.000000
23.744003	23.804379	65.000000	38.000000
23.982491	24.043914	49.000000	33.000000
24.228195	24.290972	49.000000	33.000000
24.416540	24.596114	73.000000	48.000000
24.447935	24.596114	77.000000	48.000000
24.479331	24.596114	80.000000	60.000000
24.479331	24.537722	61.000000	33.000000
24.479331	24.537722	65.000000	39.000000
24.712898	24.828259	78.000000	48.000000
24.712898	24.770578	49.000000	33.000000
24.828259	24.943621	77.000000	48.000000
24.943621	25.064374	75.000000	48.000000
24.943621	25.003998	49.000000	33.000000
25.064374	25.185128	73.000000	48.000000
25.124751	25.301428	68.000000	48.000000
25.154939	25.301428	72.000000	48.000000
25.185128	25.301428	75.000000	58.000000
25.185128	25.243278	61.000000	34.000000
25.185128	25.243278	66.000000	40.000000
25.417729	25.533091	73.000000	48.000000
25.417729	25.475410	49.000000	33.000000
25.533091	25.648453	72.000000	48.000000
25.648453	25.768187	70.000000	48.000000
25.648453	25.708320	49.000000	33.000000
25.768187	25.887920	68.000000	48.000000
25.828053	26.009720	73.000000	48.000000
25.857987	26.009720	77.000000	48.000000
25.887920	26.009720	80.000000	63.000000
25.887920	25.948820	61.000000	33.000000
25.887920	25.948820	65.000000	39.000000
26.131519	26.246881	78.000000	50.000000
26.131519	26.189200	49.000000	34.000000
26.246881	26.362243	77.000000	53.000000
26.362243	26.477604	75.000000	56.000000
26.362243	26.419924	49.000000	39.000000
26.477604	26.592966	73.000000	60.000000
26.592966	26.652833	85.000000	68.000000
26.592966	26.652833	82.000000	68.000000
26.592966	26.652833	78.000000	68.000000
26.592966	26.652833	61.000000	37.000000
26.592966	26.652833	66.000000	45.000000
26.833453	26.894085	78.000000	61.000000
26.833453	26.894085	82.000000	61.000000
26.833453	26.894085	85.000000	61.000000
26.833453	26.894085	49.000000	33.000000
27.077038	27.138461	78.000000	61.000000
27.077038	27.138461	82.000000	61.000000
27.077038	27.138461	85.000000	61.000000
27.077038	27.138461	49.000000	33.000000
27.322742	27.556296	58.000000	33.000000
27.322742	27.556296	61.000000	33.000000
27.322742	27.556296	66.000000	39.000000
27.556296	27.795777	49.000000	30.000000
27.795777	28.040421	49.000000	30.000000
28.040421	28.273023	58.000000	30.000000
28.040421	28.273023	61.000000	30.000000
28.040421	28.273023	66.000000	36.000000
28.273023	28.512504	49.000000	30.000000
28.512504	28.757162	49.000000	30.000000
28.757162	28.990916	65.000000	58.000000
28.757162	28.990916	56.000000	29.000000
28.757162	28.990916	61.000000	35.000000
28.936763	28.990916	68.000000	38.000000
28.990916	29.227394	66.000000	49.000000
28.990916	29.227394	49.000000	29.000000
29.227394	29.463871	65.000000	49.000000
29.227394	29.463871	49.000000	29.000000
29.463871	29.697424	63.000000	57.000000
29.463871	29.697424	54.000000	30.000000
29.463871	29.697424	58.000000	36.000000
29.697424	29.811847	65.000000	49.000000
29.697424	29.925962	42.000000	29.000000
29.811847	29.925962	66.000000	49.000000
29.925962	30.039768	68.000000	51.000000
29.925962	30.153118	42.000000	29.000000
30.039768	30.153118	70.000000	52.000000
30.153118	30.385733	72.000000	62.000000
30.153118	30.385733	63.000000	29.000000
30.153118	30.385733	66.000000	35.000000
30.385733	30.500143	70.000000	59.000000
30.385733	30.614566	56.000000	29.000000
30.500143	30.614566	72.000000	55.000000
30.614566	30.728989	73.000000	57.000000
30.614566	30.843412	56.000000	29.000000
30.728989	30.843412	75.000000	59.000000
30.843412	30.903789	77.000000	63.000000
30.843412	31.084918	65.000000	35.000000
30.843412	31.084918	61.000000	29.000000
31.084918	31.145295	77.000000	53.000000
31.084918	31.326425	49.000000	29.000000
31.326425	31.385755	77.000000	52.000000
31.326425	31.563733	49.000000	29.000000
31.563733	31.624365	61.000000	30.000000
31.563733	31.624365	65.000000	36.000000
31.806272	31.867695	49.000000	30.000000
32.051976	32.115035	49.000000	30.000000
32.304225	32.364601	61.000000	30.000000
32.307242	32.367619	65.000000	37.000000
32.545731	32.607153	49.000000	33.000000
32.791435	32.854212	49.000000	33.000000
32.979780	33.160319	73.000000	48.000000
33.011175	33.160319	77.000000	48.000000
33.042570	33.160319	80.000000	60.000000
33.042570	33.101445	61.000000	33.000000
33.042570	33.101445	65.000000	39.000000
33.278068	33.393430	78.000000	48.000000
33.278068	33.335749	49.000000	33.000000
33.393430	33.508792	77.000000	48.000000
33.508792	33.628016	75.000000	48.000000
33.508792	33.568404	49.000000	33.000000
33.628016	33.747254	73.000000	48.000000
33.687628	33.863555	68.000000	48.000000
33.717441	33.863555	72.000000	48.000000
33.747254	33.863555	75.000000	58.000000
33.747254	33.805404	61.000000	34.000000
33.747254	33.805404	66.000000	40.000000
33.979855	34.095217	73.000000	48.000000
33.979855	34.037536	49.000000	33.000000
34.095217	34.210579	72.000000	48.000000
34.210579	34.330823	70.000000	48.000000
34.210579	34.270701	49.000000	33.000000
34.330823	34.451053	68.000000	48.000000
34.390944	34.572852	73.000000	48.000000
34.420998	34.572852	77.000000	48.000000
34.451053	34.572852	80.000000	63.000000
34.451053	34.511952	61.000000	33.000000
34.451053	34.511952	65.000000	39.000000
34.694651	34.810013	78.000000	50.000000
34.694651	34.752332	49.000000	34.000000
34.810013	34.925375	77.000000	53.000000
34.925375	35.040737	75.000000	56.000000
34.925375	34.983056	49.000000	39.000000
35.040737	35.156099	73.000000	60.000000
35.156099	35.216730	85.000000	68.000000
35.156099	35.216730	81.000000	68.000000
35.156099	35.216730	78.000000	68.000000
35.156099	35.216730	61.000000	37.000000
35.156099	35.216730	66.000000	45.000000
35.398637	35.459269	78.000000	61.000000
35.398637	35.459269	81.000000	61.000000
35.398637	35.459269	85.000000	61.000000
35.398637	35.459269	49.000000	33.000000
35.641176	35.702867	78.000000	61.000000
35.641176	35.702867	81.000000	61.000000
35.641176	35.702867	85.000000	61.000000
35.641176	35.702867	49.000000	33.000000
35.887940	36.121493	57.000000	33.000000
35.887940	36.121493	61.000000	33.000000
35.887940	36.121493	66.000000	39.000000
36.121493	36.364032	54.000000	30.000000
36.364032	36.610809	54.000000	30.000000
36.610809	36.843410	57.000000	30.000000
36.610809	36.843410	61.000000	30.000000
36.610809	36.843410	66.000000	36.000000
36.843410	37.085949	54.000000	30.000000
37.085949	37.334872	54.000000	30.000000
37.334872	37.569605	73.000000	63.000000
37.334872	37.569605	66.000000	35.000000
37.334872	37.569605	57.000000	29.000000
37.334872	37.569605	61.000000	29.000000
37.515237	37.569605	76.000000	45.000000
37.569605	37.806083	74.000000	53.000000
37.569605	37.806083	54.000000	29.000000
37.806083	38.042560	73.000000	53.000000
37.806083	38.042560	54.000000	29.000000
38.042560	38.273270	71.000000	62.000000
38.042560	38.273270	62.000000	30.000000
38.042560	38.273270	66.000000	36.000000
38.273270	38.387693	73.000000	53.000000
38.273270	38.502116	50.000000	29.000000
38.387693	38.502116	74.000000	53.000000
38.502116	38.616539	76.000000	56.000000
38.502116	38.730962	50.000000	29.000000
38.616539	38.730962	78.000000	57.000000
38.730962	38.962625	80.000000	62.000000
38.730962	38.962625	62.000000	29.000000
38.730962	38.962625	64.000000	35.000000
38.962625	39.077048	78.000000	63.000000
38.962625	39.191471	52.000000	29.000000
39.077048	39.191471	80.000000	51.000000
39.191471	39.308737	81.000000	55.000000
39.191471	39.426004	52.000000	29.000000
39.308737	39.426004	83.000000	58.000000
39.426004	39.486125	85.000000	62.000000
39.426004	39.666491	64.000000	35.000000
39.426004	39.666491	61.000000	29.000000
39.666491	39.726612	85.000000	58.000000
39.666491	39.906978	57.000000	29.000000
39.906978	39.966308	85.000000	57.000000
39.906978	40.144286	57.000000	29.000000
40.144286	40.204918	61.000000	30.000000
40.144286	40.204918	64.000000	36.000000
40.386825	40.447457	57.000000	30.000000
40.629364	40.692423	57.000000	31.000000
40.881613	41.118103	73.000000	63.000000
40.881613	41.118103	64.000000	35.000000
40.881613	41.118103	61.000000	29.000000
41.118103	41.354580	73.000000	53.000000
41.118103	41.354580	57.000000	29.000000
41.354580	41.591057	73.000000	53.000000
41.354580	41.591057	57.000000	29.000000
41.591057	41.821768	73.000000	62.000000
41.591057	41.821768	61.000000	30.000000
41.591057	41.821768	64.000000	36.000000
41.821768	41.937116	76.000000	53.000000
41.821768	42.052478	58.000000	29.000000
41.937116	42.052478	74.000000	53.000000
42.052478	42.167840	73.000000	56.000000
42.052478	42.283202	58.000000	29.000000
42.167840	42.283202	76.000000	57.000000
42.283202	42.341594	74.000000	62.000000
42.283202	42.516755	62.000000	29.000000
42.283202	42.516755	64.000000	35.000000
42.516755	42.574195	74.000000	62.000000
42.516755	42.746527	59.000000	29.000000
42.746527	42.806649	74.000000	60.000000
42.746527	42.987014	59.000000	29.000000
42.987014	43.047391	86.000000	62.000000
42.987014	43.228520	64.000000	35.000000
42.987014	43.228520	62.000000	29.000000
43.228520	43.288897	86.000000	58.000000
43.228520	43.470027	59.000000	29.000000
43.470027	43.529357	86.000000	57.000000
43.470027	43.707335	59.000000	29.000000
43.707335	43.767967	62.000000	26.000000
43.707335	43.767967	64.000000	30.000000
43.949874	44.010505	59.000000	27.000000
44.192413	44.255472	59.000000	27.000000
44.444661	44.681152	74.000000	63.000000
44.444661	44.681152	64.000000	35.000000
44.444661	44.681152	62.000000	29.000000
44.681152	44.917629	74.000000	53.000000
44.681152	44.917629	59.000000	29.000000
44.917629	45.154106	74.000000	53.000000
44.917629	45.154106	59.000000	29.000000
45.154106	45.384817	74.000000	62.000000
45.154106	45.384817	62.000000	30.000000
45.154106	45.384817	65.000000	36.000000
45.384817	45.499240	77.000000	53.000000
45.384817	45.613663	59.000000	29.000000
45.499240	45.613663	76.000000	53.000000
45.613663	45.728086	74.000000	56.000000
45.613663	45.842509	59.000000	29.000000
45.728086	45.842509	77.000000	57.000000
45.842509	45.901142	74.000000	62.000000
45.842509	46.077028	62.000000	29.000000
45.842509	46.077028	65.000000	35.000000
46.077028	46.134012	74.000000	62.000000
46.077028	46.304962	59.000000	29.000000
46.304962	46.367740	74.000000	62.000000
46.304962	46.556084	59.000000	29.000000
46.556084	46.616461	86.000000	62.000000
46.556084	46.797591	65.000000	35.000000
46.556084	46.797591	62.000000	29.000000
46.797591	46.859013	86.000000	58.000000
46.797591	47.043295	59.000000	29.000000
47.043295	47.106072	86.000000	57.000000
47.043295	47.294417	59.000000	29.000000
47.294417	47.527983	74.000000	66.000000
47.294417	47.411200	59.000000	31.000000
47.294417	47.411200	62.000000	38.000000
47.411200	47.527983	65.000000	31.000000
47.527983	47.761524	73.000000	62.000000
47.527983	47.644753	62.000000	33.000000
47.527983	47.644753	59.000000	27.000000
47.644753	47.761524	65.000000	31.000000
47.761524	48.001005	74.000000	62.000000
47.761524	47.881257	62.000000	33.000000
47.761524	47.881257	59.000000	27.000000
47.881257	48.001005	65.000000	31.000000
48.001005	48.233619	86.000000	66.000000
48.001005	48.117319	58.000000	31.000000
48.001005	48.117319	62.000000	38.000000
48.117319	48.233619	65.000000	31.000000
48.233619	48.466248	85.000000	62.000000
48.233619	48.349934	62.000000	33.000000
48.233619	48.349934	58.000000	27.000000
48.349934	48.466248	65.000000	31.000000
48.466248	48.705729	86.000000	62.000000
48.466248	48.585981	62.000000	33.000000
48.466248	48.585981	58.000000	27.000000
48.585981	48.705729	65.000000	31.000000
48.705729	48.936613	82.000000	64.000000
48.705729	48.821171	58.000000	37.000000
48.705729	48.821171	62.000000	45.000000
48.821171	48.936613	65.000000	30.000000
48.936613	49.167498	81.000000	56.000000
48.936613	49.052056	58.000000	29.000000
48.936613	49.052056	62.000000	35.000000
49.052056	49.167498	65.000000	29.000000
49.167498	49.398396	82.000000	57.000000
49.167498	49.282954	58.000000	29.000000
49.167498	49.282954	62.000000	35.000000
49.282954	49.398396	65.000000	30.000000
49.398396	49.626532	79.000000	61.000000
49.398396	49.512457	58.000000	35.000000
49.398396	49.512457	63.000000	41.000000
49.512457	49.626532	67.000000	31.000000
49.626532	49.739681	81.000000	57.000000
49.626532	49.739681	58.000000	30.000000
49.626532	49.739681	63.000000	36.000000
49.739681	49.852843	82.000000	58.000000
49.739681	49.852843	67.000000	30.000000
49.852843	49.966006	84.000000	61.000000
49.852843	49.966006	58.000000	30.000000
49.852843	49.966006	63.000000	36.000000
49.966006	50.079168	86.000000	62.000000
49.966006	50.079168	67.000000	30.000000
50.079168	50.308242	82.000000	68.000000
50.079168	50.193699	58.000000	42.000000
50.079168	50.193699	62.000000	51.000000
50.193699	50.308242	65.000000	33.000000
50.308242	50.421405	84.000000	69.000000
50.308242	50.421405	62.000000	37.000000
50.308242	50.421405	58.000000	30.000000
50.421405	50.534567	82.000000	60.000000
50.421405	50.534567	65.000000	31.000000
50.534567	50.647730	81.000000	66.000000
50.534567	50.647730	58.000000	31.000000
50.534567	50.647730	62.000000	38.000000
50.647730	50.760892	79.000000	61.000000
50.647730	50.760892	65.000000	31.000000
50.760892	50.818855	77.000000	72.000000
50.760892	50.876817	57.000000	38.000000
50.760892	50.876817	63.000000	46.000000
50.876817	50.992756	65.000000	34.000000
50.992756	51.050719	77.000000	67.000000
50.992756	51.108681	57.000000	31.000000
50.992756	51.108681	63.000000	38.000000
51.108681	51.224620	65.000000	35.000000
51.224620	51.283950	77.000000	67.000000
51.224620	51.343281	57.000000	33.000000
51.224620	51.343281	63.000000	39.000000
51.343281	51.461928	65.000000	34.000000
51.461928	51.693779	78.000000	82.000000
51.461928	51.577853	57.000000	42.000000
51.461928	51.577853	63.000000	50.000000
51.577853	51.693779	66.000000	35.000000
51.693779	51.925615	90.000000	78.000000
51.693779	51.809704	57.000000	34.000000
51.693779	51.809704	63.000000	40.000000
51.809704	51.925615	66.000000	35.000000
51.925615	51.984718	90.000000	79.000000
51.925615	52.043821	57.000000	34.000000
51.925615	52.043821	63.000000	40.000000
52.043821	52.162012	66.000000	36.000000
52.162012	52.393862	91.000000	90.000000
52.162012	52.277937	58.000000	40.000000
52.162012	52.277937	63.000000	48.000000
52.277937	52.393862	67.000000	36.000000
52.393862	52.625699	79.000000	72.000000
52.393862	52.509788	58.000000	35.000000
52.393862	52.509788	63.000000	41.000000
52.509788	52.625699	67.000000	36.000000
52.625699	52.683662	79.000000	72.000000
52.625699	52.741624	58.000000	35.000000
52.625699	52.741624	63.000000	41.000000
52.741624	52.857550	67.000000	36.000000
52.857550	52.915512	81.000000	77.000000
52.857550	52.973475	60.000000	42.000000
52.857550	52.973475	63.000000	50.000000
52.973475	53.089400	67.000000	37.000000
53.060419	53.089400	94.000000	73.000000
53.089400	53.202562	93.000000	77.000000
53.089400	53.202562	60.000000	36.000000
53.089400	53.202562	63.000000	42.000000
53.202562	53.315725	91.000000	74.000000
53.202562	53.315725	67.000000	37.000000
53.315725	53.544812	93.000000	78.000000
53.315725	53.430269	60.000000	37.000000
53.315725	53.430269	63.000000	44.000000
53.430269	53.544812	67.000000	38.000000
53.544812	53.602078	94.000000	81.000000
53.544812	53.659343	55.000000	42.000000
53.544812	53.659343	62.000000	51.000000
53.659343	53.773887	67.000000	38.000000
53.745254	53.773887	84.000000	72.000000
53.773887	53.887049	82.000000	75.000000
53.773887	53.887049	55.000000	37.000000
53.773887	53.887049	62.000000	44.000000
53.887049	54.000212	81.000000	71.000000
53.887049	54.000212	67.000000	38.000000
54.000212	54.121260	82.000000	77.000000
54.000212	54.121260	55.000000	37.000000
54.000212	54.121260	62.000000	44.000000
54.121260	54.242308	67.000000	39.000000
54.242308	54.358676	75.000000	52.000000
54.242308	54.358676	79.000000	62.000000
54.242308	54.475043	63.000000	73.000000
54.358676	54.475043	82.000000	55.000000
54.475043	54.591411	75.000000	53.000000
54.475043	54.591411	79.000000	63.000000
54.475043	54.707779	62.000000	62.000000
54.591411	54.707779	82.000000	53.000000
54.707779	54.824147	75.000000	53.000000
54.707779	54.824147	79.000000	63.000000
54.707779	54.940514	63.000000	62.000000
54.824147	54.940514	82.000000	55.000000
54.940514	55.054589	75.000000	55.000000
54.940514	55.054589	79.000000	64.000000
54.940514	55.168663	60.000000	73.000000
55.054589	55.168663	84.000000	55.000000
55.168663	55.281826	75.000000	53.000000
55.168663	55.281826	79.000000	63.000000
55.168663	55.281826	62.000000	59.000000
55.281826	55.394988	84.000000	53.000000
55.281826	55.394988	63.000000	59.000000
55.394988	55.508151	75.000000	53.000000
55.394988	55.508151	79.000000	63.000000
55.394988	55.508151	65.000000	62.000000
55.508151	55.621313	84.000000	53.000000
55.508151	55.621313	67.000000	62.000000
55.621313	55.735857	75.000000	57.000000
55.621313	55.735857	79.000000	68.000000
55.621313	55.850401	63.000000	71.000000
55.735857	55.850401	82.000000	55.000000
55.850401	55.963563	79.000000	63.000000
55.850401	55.963563	75.000000	53.000000
55.850401	55.963563	65.000000	68.000000
55.963563	56.076726	82.000000	53.000000
55.963563	56.076726	63.000000	62.000000
56.076726	56.189888	75.000000	53.000000
56.076726	56.189888	79.000000	63.000000
56.076726	56.189888	62.000000	68.000000
56.189888	56.303051	82.000000	53.000000
56.189888	56.303051	60.000000	62.000000
56.303051	56.418976	74.000000	61.000000
56.303051	56.418976	80.000000	72.000000
56.303051	56.361013	58.000000	72.000000
56.418976	56.534914	82.000000	55.000000
56.534914	56.650839	74.000000	53.000000
56.534914	56.650839	80.000000	63.000000
56.534914	56.592877	58.000000	62.000000
56.650839	56.766778	82.000000	57.000000
56.766778	56.884983	74.000000	53.000000
56.766778	56.884983	80.000000	63.000000
56.766778	56.825880	58.000000	62.000000
56.884983	57.003175	82.000000	55.000000
57.003175	57.119100	74.000000	58.000000
57.003175	57.119100	80.000000	69.000000
57.003175	57.235025	59.000000	71.000000
57.119100	57.235025	86.000000	55.000000
57.235025	57.350950	74.000000	53.000000
57.235025	57.350950	80.000000	63.000000
57.235025	57.466875	71.000000	59.000000
57.350950	57.466875	86.000000	55.000000
57.466875	57.585536	74.000000	53.000000
57.466875	57.585536	80.000000	63.000000
57.466875	57.526206	71.000000	63.000000
57.585536	57.704184	86.000000	55.000000
57.704184	57.820109	75.000000	57.000000
57.704184	57.820109	79.000000	68.000000
57.704184	57.936034	72.000000	73.000000
57.820109	57.936034	87.000000	55.000000
57.936034	58.051959	75.000000	53.000000
57.936034	58.051959	79.000000	63.000000
57.936034	58.167884	60.000000	69.000000
58.051959	58.167884	87.000000	55.000000
58.167884	58.283810	75.000000	53.000000
58.167884	58.283810	79.000000	63.000000
58.167884	58.225847	60.000000	71.000000
58.283810	58.399735	86.000000	55.000000
58.399735	58.515660	75.000000	53.000000
58.399735	58.515660	81.000000	63.000000
58.399735	58.457697	65.000000	78.000000
58.515660	58.631585	84.000000	55.000000
58.573622	58.650441	55.000000	69.000000
58.631585	58.744734	75.000000	53.000000
58.631585	58.744734	81.000000	63.000000
58.631585	58.763590	53.000000	79.000000
58.744734	58.857883	84.000000	55.000000
58.744734	58.878375	52.000000	73.000000
58.857883	58.980849	75.000000	53.000000
58.857883	58.980849	81.000000	63.000000
58.857883	59.103815	53.000000	78.000000
58.980849	59.103815	84.000000	55.000000
59.103815	59.219257	74.000000	53.000000
59.103815	59.219257	82.000000	63.000000
59.103815	59.161536	58.000000	73.000000
59.219257	59.334700	86.000000	55.000000
59.276979	59.353556	48.000000	64.000000
59.334700	59.447849	74.000000	53.000000
59.334700	59.447849	82.000000	63.000000
59.334700	59.466705	46.000000	73.000000
59.447849	59.560998	86.000000	55.000000
59.447849	59.582013	45.000000	68.000000
59.560998	59.687115	74.000000	53.000000
59.560998	59.687115	82.000000	63.000000
59.560998	59.813246	46.000000	73.000000
59.687115	59.813246	86.000000	55.000000
59.813246	59.927321	75.000000	55.000000
59.813246	59.927321	81.000000	64.000000
59.813246	60.041395	41.000000	66.000000
59.927321	60.041395	84.000000	55.000000
60.041395	60.154544	75.000000	53.000000
60.041395	60.154544	81.000000	63.000000
60.041395	60.154544	43.000000	52.000000
60.154544	60.267707	84.000000	53.000000
60.154544	60.267707	45.000000	52.000000
60.267707	60.384973	75.000000	53.000000
60.267707	60.384973	81.000000	63.000000
60.267707	60.384973	46.000000	56.000000
60.384973	60.502239	84.000000	53.000000
60.384973	60.502239	48.000000	56.000000
60.502239	60.621316	74.000000	57.000000
60.502239	60.621316	82.000000	68.000000
60.502239	60.741734	46.000000	63.000000
60.621316	60.741734	86.000000	55.000000
60.741734	60.862836	82.000000	63.000000
60.741734	60.862836	74.000000	53.000000
60.741734	60.984809	46.000000	63.000000
60.862836	60.984809	86.000000	53.000000
60.984809	61.107654	74.000000	53.000000
60.984809	61.107654	82.000000	63.000000
60.984809	61.230500	46.000000	63.000000
61.107654	61.230500	86.000000	53.000000
61.230500	61.347753	75.000000	49.000000
61.230500	61.347753	81.000000	58.000000
61.230500	61.465019	53.000000	59.000000
61.347753	61.465019	84.000000	49.000000
61.465019	61.579442	75.000000	48.000000
61.465019	61.579442	81.000000	57.000000
61.465019	61.579442	55.000000	47.000000
61.579442	61.693865	84.000000	48.000000
61.579442	61.693865	57.000000	47.000000
61.693865	61.810648	75.000000	48.000000
61.693865	61.810648	81.000000	57.000000
61.693865	61.810648	58.000000	49.000000
61.810648	61.927432	84.000000	48.000000
61.810648	61.927432	60.000000	49.000000
61.927432	62.048882	74.000000	50.000000
61.927432	62.048882	82.000000	60.000000
61.927432	62.171030	58.000000	57.000000
62.048882	62.171030	86.000000	49.000000
62.171030	62.294063	82.000000	57.000000
62.171030	62.294063	74.000000	48.000000
62.171030	62.417096	58.000000	57.000000
62.294063	62.417096	86.000000	48.000000
62.417096	62.541551	74.000000	48.000000
62.417096	62.541551	82.000000	57.000000
62.417096	62.666005	58.000000	57.000000
62.541551	62.666005	86.000000	48.000000
62.666005	62.787282	75.000000	42.000000
62.666005	62.787282	81.000000	51.000000
62.666005	62.908558	65.000000	52.000000
62.787282	62.908558	84.000000	44.000000
62.908558	63.022981	75.000000	42.000000
62.908558	63.022981	81.000000	50.000000
62.908558	63.022981	67.000000	41.000000
63.022981	63.137404	84.000000	42.000000
63.022981	63.137404	69.000000	41.000000
63.137404	63.258157	75.000000	42.000000
63.137404	63.258157	81.000000	50.000000
63.137404	63.258157	70.000000	44.000000
63.258157	63.378910	84.000000	42.000000
63.258157	63.378910	72.000000	44.000000
63.378910	63.503915	74.000000	45.000000
63.378910	63.503915	82.000000	53.000000
63.378910	63.628919	70.000000	50.000000
63.503915	63.628919	86.000000	44.000000
63.628919	63.753924	82.000000	50.000000
63.628919	63.753924	74.000000	42.000000
63.628919	63.878928	70.000000	50.000000
63.753924	63.878928	86.000000	42.000000
63.878928	64.201410	74.000000	42.000000
63.878928	64.201410	82.000000	50.000000
63.878928	64.201410	70.000000	50.000000
64.201410	64.262913	82.000000	66.000000
64.201410	64.324416	63.000000	35.000000
64.201410	64.324416	67.000000	41.000000
64.324416	64.447423	70.000000	33.000000
64.385919	64.447423	80.000000	57.000000
64.447423	64.560665	79.000000	67.000000
64.447423	64.560665	63.000000	31.000000
64.447423	64.560665	67.000000	38.000000
64.560665	64.673828	77.000000	62.000000
64.560665	64.673828	70.000000	33.000000
64.673828	64.902902	79.000000	66.000000
64.673828	64.788358	63.000000	31.000000
64.673828	64.788358	67.000000	38.000000
64.788358	64.902902	70.000000	33.000000
64.902902	64.963185	82.000000	66.000000
64.902902	65.023454	62.000000	31.000000
64.902902	65.023454	65.000000	38.000000
65.023454	65.143993	70.000000	33.000000
65.083723	65.143993	79.000000	57.000000
65.143993	65.257209	77.000000	67.000000
65.143993	65.257209	62.000000	31.000000
65.143993	65.257209	65.000000	38.000000
65.257209	65.370371	76.000000	62.000000
65.257209	65.370371	70.000000	33.000000
65.370371	65.603938	77.000000	66.000000
65.370371	65.487155	61.000000	31.000000
65.370371	65.487155	65.000000	38.000000
65.487155	65.603938	70.000000	33.000000
65.603938	65.845042	84.000000	69.000000
65.603938	65.724490	60.000000	31.000000
65.603938	65.724490	65.000000	38.000000
65.724490	65.845042	68.000000	33.000000
65.845042	65.958272	82.000000	70.000000
65.845042	65.958272	60.000000	31.000000
65.845042	65.958272	65.000000	38.000000
65.958272	66.071434	80.000000	64.000000
65.958272	66.071434	68.000000	33.000000
66.071434	66.191181	79.000000	69.000000
66.071434	66.191181	60.000000	31.000000
66.071434	66.191181	65.000000	38.000000
66.191181	66.310929	77.000000	69.000000
66.191181	66.310929	68.000000	33.000000
66.310929	66.556633	84.000000	69.000000
66.310929	66.433787	60.000000	31.000000
66.310929	66.433787	65.000000	38.000000
66.433787	66.556633	67.000000	33.000000
66.556633	66.793123	72.000000	67.000000
66.556633	66.674878	60.000000	31.000000
66.556633	66.674878	64.000000	38.000000
66.674878	66.793123	67.000000	33.000000
66.793123	67.029614	72.000000	67.000000
66.793123	66.911368	60.000000	31.000000
66.793123	66.911368	64.000000	38.000000
66.911368	67.029614	67.000000	36.000000
67.029614	67.149857	68.000000	44.000000
67.029614	67.149857	72.000000	52.000000
67.029614	67.751303	56.000000	44.000000
67.029614	67.270101	60.000000	52.000000
67.149857	67.270101	75.000000	46.000000
67.270101	67.389848	68.000000	45.000000
67.270101	67.389848	72.000000	53.000000
67.270101	67.509595	61.000000	48.000000
67.389848	67.509595	75.000000	45.000000
67.509595	67.630871	68.000000	45.000000
67.509595	67.630871	72.000000	53.000000
67.509595	67.751303	60.000000	48.000000
67.630871	67.751303	75.000000	46.000000
67.751303	67.871546	68.000000	44.000000
67.751303	67.871546	77.000000	52.000000
67.751303	68.468767	49.000000	44.000000
67.751303	67.991790	58.000000	52.000000
67.871546	67.991790	80.000000	46.000000
67.991790	68.110531	68.000000	47.000000
67.991790	68.110531	77.000000	56.000000
67.991790	68.229273	53.000000	50.000000
68.110531	68.229273	80.000000	47.000000
68.229273	68.348014	68.000000	49.000000
68.229273	68.348014	77.000000	58.000000
68.229273	68.468767	55.000000	52.000000
68.348014	68.468767	80.000000	51.000000
68.408391	68.468767	58.000000	47.000000
68.468767	68.587415	68.000000	44.000000
68.468767	68.587415	72.000000	52.000000
68.468767	69.911743	51.000000	44.000000
68.468767	68.706062	56.000000	52.000000
68.587415	68.706062	75.000000	45.000000
68.706062	68.824710	68.000000	42.000000
68.706062	68.824710	72.000000	50.000000
68.706062	68.943358	55.000000	45.000000
68.824710	68.943358	75.000000	41.000000
68.943358	69.065157	68.000000	40.000000
68.943358	69.065157	72.000000	48.000000
68.943358	69.186956	56.000000	42.000000
69.065157	69.186956	75.000000	39.000000
69.186956	69.306194	67.000000	37.000000
69.186956	69.306194	73.000000	44.000000
69.186956	69.667622	58.000000	44.000000
69.306194	69.426102	75.000000	38.000000
69.426102	69.546520	67.000000	37.000000
69.426102	69.546520	73.000000	45.000000
69.546520	69.667622	75.000000	37.000000
69.667622	69.789246	67.000000	37.000000
69.667622	69.789246	73.000000	45.000000
69.667622	69.911743	59.000000	40.000000
69.789246	69.911743	75.000000	38.000000
69.911743	69.973246	68.000000	56.000000
69.911743	69.973246	72.000000	56.000000
69.911743	69.973246	75.000000	66.000000
69.911743	70.034749	56.000000	35.000000
69.911743	70.034749	60.000000	41.000000
70.034749	70.157755	63.000000	33.000000
70.096252	70.157755	73.000000	58.000000
70.157755	70.270998	72.000000	67.000000
70.157755	70.270998	56.000000	31.000000
70.157755	70.270998	60.000000	38.000000
70.270998	70.384161	70.000000	62.000000
70.270998	70.384161	63.000000	33.000000
70.384161	70.613235	72.000000	66.000000
70.384161	70.498691	56.000000	31.000000
70.384161	70.498691	60.000000	38.000000
70.498691	70.613235	63.000000	33.000000
70.613235	70.673518	75.000000	66.000000
70.613235	70.733787	55.000000	31.000000
70.613235	70.733787	58.000000	38.000000
70.733787	70.854339	63.000000	33.000000
70.794056	70.854339	72.000000	58.000000
70.854339	70.967555	70.000000	67.000000
70.854339	70.967555	55.000000	31.000000
70.854339	70.967555	58.000000	38.000000
70.967555	71.080718	69.000000	62.000000
70.967555	71.080718	63.000000	33.000000
71.080718	71.314284	70.000000	66.000000
71.080718	71.197501	54.000000	31.000000
71.080718	71.197501	58.000000	38.000000
71.197501	71.314284	63.000000	33.000000
71.314284	71.555388	77.000000	69.000000
71.314284	71.434836	53.000000	31.000000
71.314284	71.434836	58.000000	38.000000
71.434836	71.555388	61.000000	33.000000
71.555388	71.668604	75.000000	70.000000
71.555388	71.668604	53.000000	31.000000
71.555388	71.668604	58.000000	38.000000
71.668604	71.781767	73.000000	64.000000
71.668604	71.781767	61.000000	33.000000
71.781767	71.901005	72.000000	69.000000
71.781767	71.901005	53.000000	31.000000
71.781767	71.901005	58.000000	38.000000
71.901005	72.020242	70.000000	69.000000
71.901005	72.020242	61.000000	33.000000
72.020242	72.263841	77.000000	69.000000
72.020242	72.142041	53.000000	31.000000
72.020242	72.142041	58.000000	38.000000
72.142041	72.263841	60.000000	33.000000
72.263841	72.501324	65.000000	67.000000
72.263841	72.382582	53.000000	31.000000
72.263841	72.382582	57.000000	38.000000
72.382582	72.501324	60.000000	33.000000
72.501324	72.738807	65.000000	67.000000
72.501324	72.620065	53.000000	31.000000
72.501324	72.620065	57.000000	38.000000
72.620065	72.738807	60.000000	36.000000
72.738807	72.859050	73.000000	44.000000
72.738807	72.859050	77.000000	52.000000
72.738807	73.457103	61.000000	44.000000
72.738807	72.979294	65.000000	52.000000
72.859050	72.979294	80.000000	46.000000
72.979294	73.099041	73.000000	45.000000
72.979294	73.099041	77.000000	53.000000
72.979294	73.218788	66.000000	48.000000
73.099041	73.218788	80.000000	45.000000
73.218788	73.338026	73.000000	45.000000
73.218788	73.338026	77.000000	53.000000
73.218788	73.457103	65.000000	48.000000
73.338026	73.457103	80.000000	46.000000
73.457103	73.578379	73.000000	44.000000
73.457103	73.578379	82.000000	52.000000
73.457103	74.175144	54.000000	44.000000
73.457103	73.699655	63.000000	52.000000
73.578379	73.699655	85.000000	46.000000
73.699655	73.817900	73.000000	47.000000
73.699655	73.817900	82.000000	56.000000
73.699655	73.936145	58.000000	50.000000
73.817900	73.936145	85.000000	47.000000
73.936145	74.054391	73.000000	49.000000
73.936145	74.054391	82.000000	58.000000
73.936145	74.175144	60.000000	52.000000
74.054391	74.175144	85.000000	51.000000
74.114767	74.175144	63.000000	48.000000
74.175144	74.293791	73.000000	44.000000
74.175144	74.293791	77.000000	52.000000
74.175144	75.604561	56.000000	44.000000
74.175144	74.412439	61.000000	52.000000
74.293791	74.412439	80.000000	45.000000
74.412439	74.531087	73.000000	42.000000
74.412439	74.531087	77.000000	50.000000
74.412439	74.649734	60.000000	45.000000
74.531087	74.649734	80.000000	41.000000
74.649734	74.768382	73.000000	40.000000
74.649734	74.768382	77.000000	48.000000
74.649734	74.887029	61.000000	42.000000
74.768382	74.887029	80.000000	39.000000
74.887029	75.005261	72.000000	37.000000
74.887029	75.005261	78.000000	44.000000
74.887029	75.363189	63.000000	44.000000
75.005261	75.124030	80.000000	38.000000
75.124030	75.243348	72.000000	37.000000
75.124030	75.243348	78.000000	45.000000
75.243348	75.363189	80.000000	37.000000
75.363189	75.483593	72.000000	37.000000
75.363189	75.483593	78.000000	45.000000
75.363189	75.604561	64.000000	40.000000
75.483593	75.604561	80.000000	38.000000
75.604561	75.850587	73.000000	37.000000
75.604561	75.850587	77.000000	37.000000
75.604561	75.850587	80.000000	44.000000
75.604561	75.666064	61.000000	35.000000
75.604561	75.666064	65.000000	41.000000
75.850587	75.911741	49.000000	33.000000
76.095218	76.158277	49.000000	33.000000
76.347466	76.407843	61.000000	31.000000
76.350484	76.410860	65.000000	38.000000
76.588973	76.650395	49.000000	33.000000
76.834677	76.897454	49.000000	33.000000
77.023021	77.202595	73.000000	48.000000
77.054417	77.202595	77.000000	48.000000
77.085812	77.202595	80.000000	60.000000
77.085812	77.144204	61.000000	33.000000
77.085812	77.144204	65.000000	39.000000
77.319379	77.434741	78.000000	48.000000
77.319379	77.377060	49.000000	33.000000
77.434741	77.550103	77.000000	48.000000
77.550103	77.670856	75.000000	48.000000
77.550103	77.610479	49.000000	33.000000
77.670856	77.791609	73.000000	48.000000
77.731232	77.907910	68.000000	48.000000
77.761421	77.907910	72.000000	48.000000
77.791609	77.907910	75.000000	58.000000
77.791609	77.849759	61.000000	34.000000
77.791609	77.849759	66.000000	40.000000
78.024210	78.139572	73.000000	48.000000
78.024210	78.081891	49.000000	33.000000
78.139572	78.254934	72.000000	48.000000
78.254934	78.374668	70.000000	48.000000
78.254934	78.314801	49.000000	33.000000
78.374668	78.494402	68.000000	48.000000
78.434535	78.616201	73.000000	48.000000
78.464468	78.616201	77.000000	48.000000
78.494402	78.616201	80.000000	63.000000
78.494402	78.555301	61.000000	33.000000
78.494402	78.555301	65.000000	39.000000
78.738000	78.853362	78.000000	50.000000
78.738000	78.795681	49.000000	34.000000
78.853362	78.968724	77.000000	53.000000
78.968724	79.084086	75.000000	56.000000
78.968724	79.026405	49.000000	39.000000
79.084086	79.199448	73.000000	60.000000
79.199448	79.260079	85.000000	68.000000
79.199448	79.260079	82.000000	68.000000
79.199448	79.260079	78.000000	68.000000
79.199448	79.260079	61.000000	37.000000
79.199448	79.260079	66.000000	45.000000
79.441987	79.502618	78.000000	61.000000
79.441987	79.502618	82.000000	61.000000
79.441987	79.502618	85.000000	61.000000
79.441987	79.502618	49.000000	33.000000
79.684525	79.745157	78.000000	61.000000
79.684525	79.745157	82.000000	61.000000
79.684525	79.745157	85.000000	61.000000
79.684525	79.745157	49.000000	33.000000
79.927064	80.160618	58.000000	33.000000
79.927064	80.160618	61.000000	33.000000
79.927064	80.160618	66.000000	39.000000
80.160618	80.400099	49.000000	30.000000
80.400099	80.644743	49.000000	30.000000
80.644743	80.877345	58.000000	30.000000
80.644743	80.877345	61.000000	30.000000
80.644743	80.877345	66.000000	36.000000
80.877345	81.116826	49.000000	30.000000
81.116826	81.361484	49.000000	30.000000
81.361484	81.595239	65.000000	58.000000
81.361484	81.595239	56.000000	29.000000
81.361484	81.595239	61.000000	35.000000
81.541085	81.595239	68.000000	38.000000
81.595239	81.831716	66.000000	49.000000
81.595239	81.831716	49.000000	29.000000
81.831716	82.068193	65.000000	49.000000
81.831716	82.068193	49.000000	29.000000
82.068193	82.301746	63.000000	57.000000
82.068193	82.301746	54.000000	30.000000
82.068193	82.301746	58.000000	36.000000
82.301746	82.416169	65.000000	49.000000
82.301746	82.530284	42.000000	29.000000
82.416169	82.530284	66.000000	49.000000
82.530284	82.644090	68.000000	51.000000
82.530284	82.757440	42.000000	29.000000
82.644090	82.757440	70.000000	52.000000
82.757440	82.990055	72.000000	62.000000
82.757440	82.990055	63.000000	29.000000
82.757440	82.990055	66.000000	35.000000
82.990055	83.104478	70.000000	59.000000
82.990055	83.218901	56.000000	29.000000
83.104478	83.218901	72.000000	55.000000
83.218901	83.333324	73.000000	57.000000
83.218901	83.447748	56.000000	29.000000
83.333324	83.447748	75.000000	59.000000
83.447748	83.506864	77.000000	63.000000
83.447748	83.684882	65.000000	35.000000
83.447748	83.684882	61.000000	29.000000
83.684882	83.744494	77.000000	53.000000
83.684882	83.924350	49.000000	29.000000
83.924350	83.984726	77.000000	52.000000
83.924350	84.165856	49.000000	29.000000
84.165856	84.226487	61.000000	30.000000
84.165856	84.226487	65.000000	36.000000
84.408395	84.469817	49.000000	30.000000
84.654099	84.717157	49.000000	30.000000
84.906347	84.966724	61.000000	30.000000
84.909365	84.969741	65.000000	37.000000
85.147853	85.209276	49.000000	33.000000
85.393557	85.456335	49.000000	33.000000
85.581902	85.762442	73.000000	48.000000
85.613298	85.762442	77.000000	48.000000
85.644693	85.762442	80.000000	60.000000
85.644693	85.703567	61.000000	33.000000
85.644693	85.703567	65.000000	39.000000
85.880191	85.995553	78.000000	48.000000
85.880191	85.937872	49.000000	33.000000
85.995553	86.110915	77.000000	48.000000
86.110915	86.230139	75.000000	48.000000
86.110915	86.170527	49.000000	33.000000
86.230139	86.349377	73.000000	48.000000
86.289751	86.465677	68.000000	48.000000
86.319564	86.465677	72.000000	48.000000
86.349377	86.465677	75.000000	58.000000
86.349377	86.407527	61.000000	34.000000
86.349377	86.407527	66.000000	40.000000
86.581978	86.697340	73.000000	48.000000
86.581978	86.639659	49.000000	33.000000
86.697340	86.812702	72.000000	48.000000
86.812702	86.932945	70.000000	48.000000
86.812702	86.872823	49.000000	33.000000
86.932945	87.053175	68.000000	48.000000
86.993067	87.174975	73.000000	48.000000
87.023121	87.174975	77.000000	48.000000
87.053175	87.174975	80.000000	63.000000
87.053175	87.114075	61.000000	33.000000
87.053175	87.114075	65.000000	39.000000
87.296774	87.412136	78.000000	50.000000
87.296774	87.354455	49.000000	34.000000
87.412136	87.527497	77.000000	53.000000
87.527497	87.642859	75.000000	56.000000
87.527497	87.585178	49.000000	39.000000
87.642859	87.759683	73.000000	60.000000
87.759683	87.819630	85.000000	68.000000
87.759683	87.819630	81.000000	68.000000
87.759683	87.819630	78.000000	68.000000
87.759683	87.819630	61.000000	37.000000
87.759683	87.819630	66.000000	45.000000
88.000854	88.061754	78.000000	61.000000
88.000854	88.061754	81.000000	61.000000
88.000854	88.061754	85.000000	61.000000
88.000854	88.061754	49.000000	33.000000
88.245861	88.307820	78.000000	61.000000
88.245861	88.307820	81.000000	61.000000
88.245861	88.307820	85.000000	61.000000
88.245861	88.307820	49.000000	33.000000
88.493697	88.727250	57.000000	33.000000
88.493697	88.727250	61.000000	33.000000
88.493697	88.727250	66.000000	39.000000
88.727250	88.969789	54.000000	30.000000
88.969789	89.216566	54.000000	30.000000
89.216566	89.449167	57.000000	30.000000
89.216566	89.449167	61.000000	30.000000
89.216566	89.449167	66.000000	36.000000
89.449167	89.691706	54.000000	30.000000
89.691706	89.940629	54.000000	30.000000
89.940629	90.175363	73.000000	63.000000
89.940629	90.175363	66.000000	35.000000
89.940629	90.175363	57.000000	29.000000
89.940629	90.175363	61.000000	29.000000
90.120994	90.175363	76.000000	45.000000
90.175363	90.411840	74.000000	53.000000
90.175363	90.411840	54.000000	29.000000
90.411840	90.648317	73.000000	53.000000
90.411840	90.648317	54.000000	29.000000
90.648317	90.879027	71.000000	62.000000
90.648317	90.879027	62.000000	30.000000
90.648317	90.879027	66.000000	36.000000
90.879027	90.993450	73.000000	53.000000
90.879027	91.107873	50.000000	29.000000
90.993450	91.107873	74.000000	53.000000
91.107873	91.222296	76.000000	56.000000
91.107873	91.336720	50.000000	29.000000
91.222296	91.336720	78.000000	57.000000
91.336720	91.568382	80.000000	62.000000
91.336720	91.568382	62.000000	29.000000
91.336720	91.568382	64.000000	35.000000
91.568382	91.682805	78.000000	63.000000
91.568382	91.797228	52.000000	29.000000
91.682805	91.797228	80.000000	51.000000
91.797228	91.914495	81.000000	55.000000
91.797228	92.031761	52.000000	29.000000
91.914495	92.031761	83.000000	58.000000
92.031761	92.089723	85.000000	62.000000
92.031761	92.263625	64.000000	35.000000
92.031761	92.263625	61.000000	29.000000
92.263625	92.321587	85.000000	58.000000
92.263625	92.495488	57.000000	29.000000
92.495488	92.554819	85.000000	57.000000
92.495488	92.732797	57.000000	29.000000
92.732797	92.793428	61.000000	30.000000
92.732797	92.793428	64.000000	36.000000
92.975336	93.035967	57.000000	30.000000
93.217875	93.280933	57.000000	31.000000
93.470123	93.706614	73.000000	63.000000
93.470123	93.706614	64.000000	35.000000
93.470123	93.706614	61.000000	29.000000
93.706614	93.943091	73.000000	53.000000
93.706614	93.943091	57.000000	29.000000
93.943091	94.179568	73.000000	53.000000
93.943091	94.179568	57.000000	29.000000
94.179568	94.410278	73.000000	62.000000
94.179568	94.410278	61.000000	30.000000
94.179568	94.410278	64.000000	36.000000
94.410278	94.525627	76.000000	53.000000
94.410278	94.640989	58.000000	29.000000
94.525627	94.640989	74.000000	53.000000
94.640989	94.756351	73.000000	56.000000
94.640989	94.871712	58.000000	29.000000
94.756351	94.871712	76.000000	57.000000
94.871712	94.930104	74.000000	62.000000
94.871712	95.105266	62.000000	29.000000
94.871712	95.105266	64.000000	35.000000
95.105266	95.162705	74.000000	62.000000
95.105266	95.335037	59.000000	29.000000
95.335037	95.395159	74.000000	60.000000
95.335037	95.575524	59.000000	29.000000
95.575524	95.634895	86.000000	62.000000
95.575524	95.812994	64.000000	35.000000
95.575524	95.812994	62.000000	29.000000
95.812994	95.872365	86.000000	58.000000
95.812994	96.050464	59.000000	29.000000
96.050464	96.109794	86.000000	57.000000
96.050464	96.287772	59.000000	29.000000
96.287772	96.348404	62.000000	26.000000
96.287772	96.348404	64.000000	30.000000
96.530311	96.590942	59.000000	27.000000
96.772850	96.835909	59.000000	27.000000
97.025098	97.261589	74.000000	63.000000
97.025098	97.261589	64.000000	35.000000
97.025098	97.261589	62.000000	29.000000
97.261589	97.498066	74.000000	53.000000
97.261589	97.498066	59.000000	29.000000
97.498066	97.734543	74.000000	53.000000
97.498066	97.734543	59.000000	29.000000
97.734543	97.965254	74.000000	62.000000
97.734543	97.965254	62.000000	30.000000
97.734543	97.965254	65.000000	36.000000
97.965254	98.079677	77.000000	53.000000
97.965254	98.194100	59.000000	29.000000
98.079677	98.194100	76.000000	53.000000
98.194100	98.308523	74.000000	56.000000
98.194100	98.422946	59.000000	29.000000
98.308523	98.422946	77.000000	57.000000
98.422946	98.481579	74.000000	62.000000
98.422946	98.657465	62.000000	29.000000
98.422946	98.657465	65.000000	35.000000
98.657465	98.714449	74.000000	62.000000
98.657465	98.885399	59.000000	29.000000
98.885399	98.948177	74.000000	62.000000
98.885399	99.136521	59.000000	29.000000
99.136521	99.196898	86.000000	62.000000
99.136521	99.378028	65.000000	35.000000
99.136521	99.378028	62.000000	29.000000
99.378028	99.439450	86.000000	58.000000
99.378028	99.623732	59.000000	29.000000
99.623732	99.686509	86.000000	57.000000
99.623732	99.874854	59.000000	29.000000
99.874854	100.108420	74.000000	66.000000
99.874854	99.991637	59.000000	31.000000
99.874854	99.991637	62.000000	38.000000
99.991637	100.108420	65.000000	31.000000
100.108420	100.341987	73.000000	62.000000
100.108420	100.225204	62.000000	33.000000
100.108420	100.225204	59.000000	27.000000
100.225204	100.341987	65.000000	31.000000
100.341987	100.581482	74.000000	62.000000
100.341987	100.461735	62.000000	33.000000
100.341987	100.461735	59.000000	27.000000
100.461735	100.581482	65.000000	31.000000
100.581482	100.814097	86.000000	66.000000
100.581482	100.697796	58.000000	31.000000
100.581482	100.697796	62.000000	38.000000
100.697796	100.814097	65.000000	31.000000
100.814097	101.046698	85.000000	62.000000
100.814097	100.930397	62.000000	33.000000
100.814097	100.930397	58.000000	27.000000
100.930397	101.046698	65.000000	31.000000
101.046698	101.286179	86.000000	62.000000
101.046698	101.166432	62.000000	33.000000
101.046698	101.166432	58.000000	27.000000
101.166432	101.286179	65.000000	31.000000
101.286179	101.517064	82.000000	64.000000
101.286179	101.401622	58.000000	37.000000
101.286179	101.401622	62.000000	45.000000
101.401622	101.517064	65.000000	30.000000
101.517064	101.747949	81.000000	56.000000
101.517064	101.632506	58.000000	29.000000
101.517064	101.632506	62.000000	35.000000
101.632506	101.747949	65.000000	29.000000
101.747949	101.978833	82.000000	57.000000
101.747949	101.863391	58.000000	29.000000
101.747949	101.863391	62.000000	35.000000
101.863391	101.978833	65.000000	30.000000
101.978833	102.206969	79.000000	61.000000
101.978833	102.092894	58.000000	35.000000
101.978833	102.092894	63.000000	41.000000
102.092894	102.206969	67.000000	31.000000
102.206969	102.320118	81.000000	57.000000
102.206969	102.320118	58.000000	30.000000
102.206969	102.320118	63.000000	36.000000
102.320118	102.433280	82.000000	58.000000
102.320118	102.433280	67.000000	30.000000
102.433280	102.546443	84.000000	61.000000
102.433280	102.546443	58.000000	30.000000
102.433280	102.546443	63.000000	36.000000
102.546443	102.659605	86.000000	62.000000
102.546443	102.659605	67.000000	30.000000
102.659605	102.891107	82.000000	68.000000
102.659605	102.775356	58.000000	42.000000
102.659605	102.775356	62.000000	51.000000
102.775356	102.891107	65.000000	33.000000
102.891107	103.005463	84.000000	69.000000
102.891107	103.005463	62.000000	37.000000
102.891107	103.005463	58.000000	30.000000
103.005463	103.119832	82.000000	60.000000
103.005463	103.119832	65.000000	31.000000
103.119832	103.234202	81.000000	66.000000
103.119832	103.234202	58.000000	31.000000
103.119832	103.234202	62.000000	38.000000
103.234202	103.348571	79.000000	61.000000
103.234202	103.348571	65.000000	31.000000
103.348571	103.407164	77.000000	72.000000
103.348571	103.465757	57.000000	38.000000
103.348571	103.465757	63.000000	46.000000
103.465757	103.582929	65.000000	34.000000
103.582929	103.641522	77.000000	67.000000
103.582929	103.700115	57.000000	31.000000
103.582929	103.700115	63.000000	38.000000
103.700115	103.817288	65.000000	35.000000
103.817288	103.877248	77.000000	67.000000
103.817288	103.937209	57.000000	33.000000
103.817288	103.937209	63.000000	39.000000
103.937209	104.057131	65.000000	34.000000
104.057131	104.291449	78.000000	82.000000
104.057131	104.174290	57.000000	42.000000
104.057131	104.174290	63.000000	50.000000
104.174290	104.291449	66.000000	35.000000
104.291449	104.525767	90.000000	78.000000
104.291449	104.408608	57.000000	34.000000
104.291449	104.408608	63.000000	40.000000
104.408608	104.525767	66.000000	35.000000
104.525767	104.585486	90.000000	79.000000
104.525767	104.645206	57.000000	34.000000
104.525767	104.645206	63.000000	40.000000
104.645206	104.764658	66.000000	36.000000
104.764658	104.998976	91.000000	90.000000
104.764658	104.881817	58.000000	40.000000
104.764658	104.881817	63.000000	48.000000
104.881817	104.998976	67.000000	36.000000
104.998976	105.233294	79.000000	72.000000
104.998976	105.116135	58.000000	35.000000
104.998976	105.116135	63.000000	41.000000
105.116135	105.233294	67.000000	36.000000
105.233294	105.291873	79.000000	72.000000
105.233294	105.350453	58.000000	35.000000
105.233294	105.350453	63.000000	41.000000
105.350453	105.467612	67.000000	36.000000
105.467612	105.526191	81.000000	77.000000
105.467612	105.584771	60.000000	42.000000
105.467612	105.584771	63.000000	50.000000
105.584771	105.701930	67.000000	37.000000
105.672640	105.701930	94.000000	73.000000
105.701930	105.816299	93.000000	77.000000
105.701930	105.816299	60.000000	36.000000
105.701930	105.816299	63.000000	42.000000
105.816299	105.930669	91.000000	74.000000
105.816299	105.930669	67.000000	37.000000
105.930669	106.162170	93.000000	78.000000
105.930669	106.046419	60.000000	37.000000
105.930669	106.046419	63.000000	44.000000
106.046419	106.162170	67.000000	38.000000
106.162170	106.220039	94.000000	81.000000
106.162170	106.277908	55.000000	42.000000
106.162170	106.277908	62.000000	51.000000
106.277908	106.393658	67.000000	38.000000
106.364717	106.393658	84.000000	72.000000
106.393658	106.508014	82.000000	75.000000
106.393658	106.508014	55.000000	37.000000
106.393658	106.508014	62.000000	44.000000
106.508014	106.622384	81.000000	71.000000
106.508014	106.622384	67.000000	38.000000
106.622384	106.744719	82.000000	77.000000
106.622384	106.744719	55.000000	37.000000
106.622384	106.744719	62.000000	44.000000
106.744719	106.867055	67.000000	39.000000
106.867055	106.984657	75.000000	52.000000
106.867055	106.984657	79.000000	62.000000
106.867055	107.102258	63.000000	73.000000
106.984657	107.102258	82.000000	55.000000
107.102258	107.219860	75.000000	53.000000
107.102258	107.219860	79.000000	63.000000
107.102258	107.337461	62.000000	62.000000
107.219860	107.337461	82.000000	53.000000
107.337461	107.455063	75.000000	53.000000
107.337461	107.455063	79.000000	63.000000
107.337461	107.572664	63.000000	62.000000
107.455063	107.572664	82.000000	55.000000
107.572664	107.687946	75.000000	55.000000
107.572664	107.687946	79.000000	64.000000
107.572664	107.803227	60.000000	73.000000
107.687946	107.803227	84.000000	55.000000
107.803227	107.917597	75.000000	53.000000
107.803227	107.917597	79.000000	63.000000
107.803227	107.917597	62.000000	59.000000
107.917597	108.031966	84.000000	53.000000
107.917597	108.031966	63.000000	59.000000
108.031966	108.146336	75.000000	53.000000
108.031966	108.146336	79.000000	63.000000
108.031966	108.146336	65.000000	62.000000
108.146336	108.260705	84.000000	53.000000
108.146336	108.260705	67.000000	62.000000
108.260705	108.376456	75.000000	57.000000
108.260705	108.376456	79.000000	68.000000
108.260705	108.492207	63.000000	71.000000
108.376456	108.492207	82.000000	55.000000
108.492207	108.606576	79.000000	63.000000
108.492207	108.606576	75.000000	53.000000
108.492207	108.606576	65.000000	68.000000
108.606576	108.720946	82.000000	53.000000
108.606576	108.720946	63.000000	62.000000
108.720946	108.835315	75.000000	53.000000
108.720946	108.835315	79.000000	63.000000
108.720946	108.835315	62.000000	68.000000
108.835315	108.949684	82.000000	53.000000
108.835315	108.949684	60.000000	62.000000
108.949684	109.066870	74.000000	61.000000
108.949684	109.066870	80.000000	72.000000
108.949684	109.008277	58.000000	72.000000
109.066870	109.184043	82.000000	55.000000
109.184043	109.301228	74.000000	53.000000
109.184043	109.301228	80.000000	63.000000
109.184043	109.242636	58.000000	62.000000
109.301228	109.418401	82.000000	57.000000
109.418401	109.537840	74.000000	53.000000
109.418401	109.537840	80.000000	63.000000
109.418401	109.478120	58.000000	62.000000
109.537840	109.657292	82.000000	55.000000
109.657292	109.774451	74.000000	58.000000
109.657292	109.774451	80.000000	69.000000
109.657292	109.891610	59.000000	71.000000
109.774451	109.891610	86.000000	55.000000
109.891610	110.008769	74.000000	53.000000
109.891610	110.008769	80.000000	63.000000
109.891610	110.125928	71.000000	59.000000
110.008769	110.125928	86.000000	55.000000
110.125928	110.245849	74.000000	53.000000
110.125928	110.245849	80.000000	63.000000
110.125928	110.185889	71.000000	63.000000
110.245849	110.365771	86.000000	55.000000
110.365771	110.482930	75.000000	57.000000
110.365771	110.482930	79.000000	68.000000
110.365771	110.600089	72.000000	73.000000
110.482930	110.600089	87.000000	55.000000
110.600089	110.717248	75.000000	53.000000
110.600089	110.717248	79.000000	63.000000
110.600089	110.834407	60.000000	69.000000
110.717248	110.834407	87.000000	55.000000
110.834407	110.951566	75.000000	53.000000
110.834407	110.951566	79.000000	63.000000
110.834407	110.892986	60.000000	71.000000
110.951566	111.068725	86.000000	55.000000
111.068725	111.185884	75.000000	53.000000
111.068725	111.185884	81.000000	63.000000
111.068725	111.127304	65.000000	78.000000
111.185884	111.303043	84.000000	55.000000
111.244463	111.322100	55.000000	69.000000
111.303043	111.417399	75.000000	53.000000
111.303043	111.417399	81.000000	63.000000
111.303043	111.436456	53.000000	79.000000
111.417399	111.531755	84.000000	55.000000
111.417399	111.552462	52.000000	73.000000
111.531755	111.656022	75.000000	53.000000
111.531755	111.656022	81.000000	63.000000
111.531755	111.780302	53.000000	78.000000
111.656022	111.780302	84.000000	55.000000
111.780302	111.896978	74.000000	53.000000
111.780302	111.896978	82.000000	63.000000
111.780302	111.838640	58.000000	73.000000
111.896978	112.013654	86.000000	55.000000
111.955316	112.032711	48.000000	66.000000
112.013654	112.128010	74.000000	53.000000
112.013654	112.128010	82.000000	63.000000
112.013654	112.147067	46.000000	73.000000
112.128010	112.242366	86.000000	55.000000
112.128010	112.263610	45.000000	68.000000
112.242366	112.369825	74.000000	53.000000
112.242366	112.369825	82.000000	63.000000
112.242366	112.497284	46.000000	73.000000
112.369825	112.497284	86.000000	55.000000
112.497284	112.612565	75.000000	55.000000
112.497284	112.612565	81.000000	64.000000
112.497284	112.727847	41.000000	66.000000
112.612565	112.727847	84.000000	55.000000
112.727847	112.842216	75.000000	53.000000
112.727847	112.842216	81.000000	63.000000
112.727847	112.842216	43.000000	52.000000
112.842216	112.956586	84.000000	53.000000
112.842216	112.956586	45.000000	52.000000
112.956586	113.070955	75.000000	53.000000
112.956586	113.070955	81.000000	63.000000
112.956586	113.070955	46.000000	56.000000
113.070955	113.185324	84.000000	53.000000
113.070955	113.185324	48.000000	56.000000
113.185324	113.303234	74.000000	57.000000
113.185324	113.303234	82.000000	68.000000
113.185324	113.421802	46.000000	63.000000
113.303234	113.421802	86.000000	55.000000
113.421802	113.541200	82.000000	63.000000
113.421802	113.541200	74.000000	53.000000
113.421802	113.661269	46.000000	63.000000
113.541200	113.661269	86.000000	53.000000
113.661269	113.783310	74.000000	53.000000
113.661269	113.783310	82.000000	63.000000
113.661269	113.905351	46.000000	63.000000
113.783310	113.905351	86.000000	53.000000
113.905351	114.023864	75.000000	49.000000
113.905351	114.023864	81.000000	58.000000
113.905351	114.142377	53.000000	59.000000
114.023864	114.142377	84.000000	49.000000
114.142377	114.258021	75.000000	48.000000
114.142377	114.258021	81.000000	57.000000
114.142377	114.258021	55.000000	47.000000
114.258021	114.373665	84.000000	48.000000
114.258021	114.373665	57.000000	47.000000
114.373665	114.491695	75.000000	48.000000
114.373665	114.491695	81.000000	57.000000
114.373665	114.491695	58.000000	49.000000
114.491695	114.609726	84.000000	48.000000
114.491695	114.609726	60.000000	49.000000
114.609726	114.729124	74.000000	50.000000
114.609726	114.729124	82.000000	60.000000
114.609726	114.849194	58.000000	57.000000
114.729124	114.849194	86.000000	49.000000
114.849194	114.970295	82.000000	57.000000
114.849194	114.970295	74.000000	48.000000
114.849194	115.091572	58.000000	57.000000
114.970295	115.091572	86.000000	48.000000
115.091572	115.217354	74.000000	48.000000
115.091572	115.217354	82.000000	57.000000
115.091572	115.343136	58.000000	57.000000
115.217354	115.343136	86.000000	48.000000
115.343136	115.465686	75.000000	42.000000
115.343136	115.465686	81.000000	51.000000
115.343136	115.588250	65.000000	52.000000
115.465686	115.588250	84.000000	44.000000
115.588250	115.703894	75.000000	42.000000
115.588250	115.703894	81.000000	50.000000
115.588250	115.703894	67.000000	41.000000
115.703894	115.819537	84.000000	42.000000
115.703894	115.819537	69.000000	41.000000
115.819537	115.941578	75.000000	42.000000
115.819537	115.941578	81.000000	50.000000
115.819537	115.941578	70.000000	44.000000
115.941578	116.063618	84.000000	42.000000
115.941578	116.063618	72.000000	44.000000
116.063618	116.316296	86.000000	53.000000
116.063618	116.316296	74.000000	45.000000
116.063618	116.316296	82.000000	53.000000
116.063618	116.316296	70.000000	50.000000
117.013617	117.605232	61.000000	53.000000
117.013617	117.605232	65.000000	53.000000
117.313622	117.459427	46.000000	53.000000
117.605232	118.025079	61.000000	53.000000
117.605232	118.025079	65.000000	53.000000
117.880011	118.025079	49.000000	61.000000
118.170146	118.275208	60.000000	41.000000
118.170146	118.275208	63.000000	49.000000
118.170146	118.275208	65.000000	49.000000
118.450316	118.559120	58.000000	42.000000
118.450316	118.559120	61.000000	50.000000
118.450316	118.559120	65.000000	50.000000
118.740451	119.308020	57.000000	45.000000
118.740451	119.308020	60.000000	53.000000
118.740451	119.308020	65.000000	53.000000
119.017886	119.308020	42.000000	53.000000
119.308020	119.733258	57.000000	45.000000
119.308020	119.733258	60.000000	53.000000
119.308020	119.733258	65.000000	53.000000
119.588191	119.733258	41.000000	61.000000
119.878325	119.983388	58.000000	41.000000
119.878325	119.983388	61.000000	49.000000
119.878325	119.983388	65.000000	49.000000
120.158496	120.267300	60.000000	42.000000
120.158496	120.267300	63.000000	50.000000
120.158496	120.267300	65.000000	50.000000
120.448630	121.021832	61.000000	53.000000
120.448630	121.021832	65.000000	53.000000
120.730236	121.021832	46.000000	53.000000
121.021832	121.586746	61.000000	53.000000
121.021832	121.586746	65.000000	53.000000
121.296611	121.586746	49.000000	61.000000
121.586746	121.691808	60.000000	41.000000
121.586746	121.691808	63.000000	49.000000
121.586746	121.691808	65.000000	49.000000
121.866916	121.975720	58.000000	42.000000
121.866916	121.975720	61.000000	50.000000
121.866916	121.975720	65.000000	50.000000
122.157051	122.724634	56.000000	38.000000
122.157051	122.724634	61.000000	45.000000
122.157051	122.724634	65.000000	45.000000
122.434499	122.724634	41.000000	45.000000
122.724634	123.153653	56.000000	38.000000
122.724634	123.153653	61.000000	45.000000
122.724634	123.153653	65.000000	45.000000
123.004804	123.153653	32.000000	51.000000
123.302503	123.407565	56.000000	34.000000
123.302503	123.407565	65.000000	41.000000
123.302503	123.407565	68.000000	41.000000
123.582673	123.693730	56.000000	35.000000
123.582673	123.693730	65.000000	42.000000
123.582673	123.693730	68.000000	42.000000
123.878829	124.459206	56.000000	38.000000
123.878829	124.459206	61.000000	45.000000
123.878829	124.459206	65.000000	45.000000
124.164592	124.459206	37.000000	45.000000
124.459206	125.045484	56.000000	38.000000
124.459206	125.045484	61.000000	45.000000
124.459206	125.045484	65.000000	45.000000
124.749341	124.897412	37.000000	46.000000
125.045484	125.193555	49.000000	38.000000
125.341627	125.497101	48.000000	35.000000
125.652575	126.233985	61.000000	53.000000
125.652575	126.233985	65.000000	53.000000
125.942375	126.088180	46.000000	53.000000
126.233985	126.653831	61.000000	53.000000
126.233985	126.653831	65.000000	53.000000
126.508764	126.653831	49.000000	61.000000
126.798899	126.903961	60.000000	41.000000
126.798899	126.903961	63.000000	49.000000
126.798899	126.903961	65.000000	49.000000
127.079069	127.187873	58.000000	42.000000
127.079069	127.187873	61.000000	50.000000
127.079069	127.187873	65.000000	50.000000
127.369204	127.936773	57.000000	45.000000
127.369204	127.936773	60.000000	53.000000
127.369204	127.936773	65.000000	53.000000
127.646638	127.936773	42.000000	53.000000
127.936773	128.362011	57.000000	45.000000
127.936773	128.362011	60.000000	53.000000
127.936773	128.362011	65.000000	53.000000
128.216943	128.362011	41.000000	61.000000
128.507078	128.612140	58.000000	41.000000
128.507078	128.612140	61.000000	49.000000
128.507078	128.612140	65.000000	49.000000
128.787248	128.896052	60.000000	42.000000
128.787248	128.896052	63.000000	50.000000
128.787248	128.896052	65.000000	50.000000
129.077383	129.650585	61.000000	53.000000
129.077383	129.650585	65.000000	53.000000
129.358988	129.650585	46.000000	53.000000
129.650585	130.215499	61.000000	53.000000
129.650585	130.215499	65.000000	53.000000
129.925364	130.215499	49.000000	61.000000
130.215499	130.320561	60.000000	41.000000
130.215499	130.320561	63.000000	49.000000
130.215499	130.320561	65.000000	49.000000
130.495669	130.604473	58.000000	42.000000
130.495669	130.604473	61.000000	50.000000
130.495669	130.604473	65.000000	50.000000
130.785804	131.353386	56.000000	38.000000
130.785804	131.353386	61.000000	45.000000
130.785804	131.353386	65.000000	45.000000
131.063252	131.353386	41.000000	45.000000
131.353386	131.782406	56.000000	38.000000
131.353386	131.782406	61.000000	45.000000
131.353386	131.782406	65.000000	45.000000
131.633557	131.782406	32.000000	51.000000
131.931255	132.036317	56.000000	34.000000
131.931255	132.036317	65.000000	41.000000
131.931255	132.036317	68.000000	41.000000
132.211426	132.322482	56.000000	35.000000
132.211426	132.322482	65.000000	42.000000
132.211426	132.322482	68.000000	42.000000
132.507582	133.087959	56.000000	38.000000
132.507582	133.087959	61.000000	45.000000
132.507582	133.087959	65.000000	45.000000
132.793345	133.087959	37.000000	45.000000
133.087959	133.693414	56.000000	38.000000
133.087959	133.693414	61.000000	45.000000
133.087959	133.693414	65.000000	45.000000
133.397271	133.545343	37.000000	46.000000
133.693414	133.841485	49.000000	38.000000
133.989557	134.143435	48.000000	35.000000
134.297314	134.881540	58.000000	45.000000
134.297314	134.881540	61.000000	53.000000
134.297314	134.881540	66.000000	53.000000
134.591405	134.881540	46.000000	53.000000
134.881540	135.451845	58.000000	47.000000
134.881540	135.451845	61.000000	56.000000
134.881540	135.451845	66.000000	56.000000
135.161710	135.451845	49.000000	64.000000
135.451845	135.556907	58.000000	45.000000
135.451845	135.556907	61.000000	53.000000
135.451845	135.556907	68.000000	53.000000
135.732015	135.840819	58.000000	47.000000
135.732015	135.840819	61.000000	56.000000
135.732015	135.840819	70.000000	56.000000
136.022150	136.589732	56.000000	51.000000
136.022150	136.589732	60.000000	60.000000
136.022150	136.589732	65.000000	60.000000
136.299598	136.589732	48.000000	61.000000
136.589732	137.160037	56.000000	50.000000
136.589732	137.160037	60.000000	59.000000
136.589732	137.160037	65.000000	59.000000
136.869903	137.160037	36.000000	70.000000
137.160037	137.265100	55.000000	47.000000
137.160037	137.265100	60.000000	56.000000
137.160037	137.265100	64.000000	56.000000
137.440208	137.549012	55.000000	48.000000
137.440208	137.549012	60.000000	57.000000
137.440208	137.549012	64.000000	57.000000
137.730342	138.317505	63.000000	53.000000
137.730342	138.317505	56.000000	45.000000
137.730342	138.317505	60.000000	53.000000
138.027370	138.317505	48.000000	51.000000
138.317505	138.597675	56.000000	45.000000
138.317505	138.597675	60.000000	53.000000
138.317505	138.896179	63.000000	53.000000
138.597675	138.896179	58.000000	37.000000
138.597675	138.896179	61.000000	44.000000
138.597675	138.896179	51.000000	42.000000
138.896179	139.003306	55.000000	41.000000
138.896179	139.003306	58.000000	49.000000
138.896179	139.003306	63.000000	49.000000
139.181848	139.293240	55.000000	42.000000
139.181848	139.293240	58.000000	50.000000
139.181848	139.293240	63.000000	50.000000
139.478889	140.071456	68.000000	53.000000
139.478889	140.071456	60.000000	45.000000
139.478889	140.071456	63.000000	53.000000
139.760508	139.915982	44.000000	53.000000
140.071456	140.673023	60.000000	50.000000
140.071456	140.673023	63.000000	59.000000
140.071456	140.369960	68.000000	59.000000
140.071456	140.220708	42.000000	57.000000
140.369960	140.673023	69.000000	56.000000
140.369960	140.521491	41.000000	50.000000
140.673023	140.783865	60.000000	41.000000
140.673023	140.783865	63.000000	49.000000
140.673023	140.783865	65.000000	49.000000
140.968589	141.083401	60.000000	42.000000
140.968589	141.083401	63.000000	50.000000
140.968589	141.083401	65.000000	50.000000
141.274750	141.860437	65.000000	53.000000
141.274750	141.860437	73.000000	53.000000
141.568841	141.860437	58.000000	53.000000
141.860437	142.430836	65.000000	53.000000
141.860437	142.430836	73.000000	53.000000
142.140702	142.430836	61.000000	61.000000
142.430836	142.535898	63.000000	49.000000
142.430836	142.535898	65.000000	49.000000
142.430836	142.535898	72.000000	49.000000
142.711007	142.819810	61.000000	42.000000
142.711007	142.819810	65.000000	50.000000
142.711007	142.819810	70.000000	50.000000
143.001141	143.574343	65.000000	53.000000
143.001141	143.574343	60.000000	45.000000
143.001141	143.574343	69.000000	53.000000
143.282747	143.574343	54.000000	53.000000
143.574343	144.139257	65.000000	53.000000
143.574343	144.139257	60.000000	45.000000
143.574343	144.139257	69.000000	53.000000
143.849122	144.139257	53.000000	61.000000
144.139257	144.244319	61.000000	41.000000
144.139257	144.244319	65.000000	49.000000
144.139257	144.244319	70.000000	49.000000
144.419427	144.528231	63.000000	42.000000
144.419427	144.528231	65.000000	50.000000
144.419427	144.528231	72.000000	50.000000
144.709562	145.282764	61.000000	53.000000
144.709562	145.282764	65.000000	53.000000
144.991167	145.282764	46.000000	53.000000
145.282764	145.847678	61.000000	53.000000
145.282764	145.847678	65.000000	53.000000
145.557543	145.847678	49.000000	61.000000
145.847678	145.952740	60.000000	41.000000
145.847678	145.952740	63.000000	49.000000
145.847678	145.952740	65.000000	49.000000
146.127848	146.236652	58.000000	42.000000
146.127848	146.236652	61.000000	50.000000
146.127848	146.236652	65.000000	50.000000
146.417983	147.014721	56.000000	38.000000
146.417983	147.014721	61.000000	45.000000
146.417983	147.014721	65.000000	45.000000
146.695431	147.014721	41.000000	53.000000
147.014721	147.618514	56.000000	38.000000
147.014721	147.618514	61.000000	45.000000
147.014721	147.618514	65.000000	45.000000
147.305956	147.618514	29.000000	60.000000
147.618514	147.726137	54.000000	34.000000
147.618514	147.726137	57.000000	41.000000
147.618514	147.726137	60.000000	41.000000
147.618514	147.726137	63.000000	41.000000
147.905510	148.016567	54.000000	35.000000
147.905510	148.016567	57.000000	35.000000
147.905510	148.016567	60.000000	42.000000
147.905510	148.016567	63.000000	42.000000
148.201666	148.782043	53.000000	38.000000
148.201666	148.782043	58.000000	45.000000
148.201666	148.782043	61.000000	45.000000
148.487429	148.782043	34.000000	45.000000
148.782043	149.368321	53.000000	38.000000
148.782043	149.368321	58.000000	45.000000
148.782043	149.368321	61.000000	45.000000
149.072178	149.220249	46.000000	46.000000
149.368321	149.516392	49.000000	38.000000
149.664464	149.819938	48.000000	35.000000
149.975412	150.575570	58.000000	45.000000
149.975412	150.575570	61.000000	53.000000
149.975412	150.575570	66.000000	53.000000
150.280004	150.575570	46.000000	53.000000
150.575570	151.151361	58.000000	47.000000
150.575570	151.151361	61.000000	56.000000
150.575570	151.151361	66.000000	56.000000
150.861226	151.151361	49.000000	64.000000
151.151361	151.257978	58.000000	45.000000
151.151361	151.257978	61.000000	53.000000
151.151361	151.257978	68.000000	53.000000
151.435675	151.544479	58.000000	47.000000
151.435675	151.544479	61.000000	56.000000
151.435675	151.544479	70.000000	56.000000
151.725810	152.297550	56.000000	51.000000
151.725810	152.297550	60.000000	60.000000
151.725810	152.297550	65.000000	60.000000
152.007415	152.297550	48.000000	61.000000
152.297550	152.869290	56.000000	50.000000
152.297550	152.869290	60.000000	59.000000
152.297550	152.869290	65.000000	59.000000
152.579155	152.869290	36.000000	70.000000
152.869290	152.975398	55.000000	47.000000
152.869290	152.975398	60.000000	56.000000
152.869290	152.975398	64.000000	56.000000
153.152236	153.261040	55.000000	48.000000
153.152236	153.261040	60.000000	57.000000
153.152236	153.261040	64.000000	57.000000
153.442371	154.029534	63.000000	53.000000
153.442371	154.029534	56.000000	45.000000
153.442371	154.029534	60.000000	53.000000
153.739399	154.029534	48.000000	51.000000
154.029534	154.309704	56.000000	45.000000
154.029534	154.309704	60.000000	53.000000
154.029534	154.608207	63.000000	53.000000
154.309704	154.608207	58.000000	37.000000
154.309704	154.608207	61.000000	44.000000
154.309704	154.608207	51.000000	42.000000
154.608207	154.715335	55.000000	41.000000
154.608207	154.715335	58.000000	49.000000
154.608207	154.715335	63.000000	49.000000
154.893876	155.005268	55.000000	42.000000
154.893876	155.005268	58.000000	50.000000
154.893876	155.005268	63.000000	50.000000
155.190918	155.783485	68.000000	53.000000
155.190918	155.783485	60.000000	45.000000
155.190918	155.783485	63.000000	53.000000
155.472536	155.628011	44.000000	53.000000
155.783485	156.411015	60.000000	50.000000
155.783485	156.411015	63.000000	50.000000
155.783485	156.107952	68.000000	59.000000
155.783485	155.945718	42.000000	57.000000
156.107952	156.411015	69.000000	56.000000
156.107952	156.259483	41.000000	50.000000
156.411015	156.521857	60.000000	41.000000
156.411015	156.521857	63.000000	41.000000
156.411015	156.521857	65.000000	49.000000
156.706581	156.821393	60.000000	42.000000
156.706581	156.821393	63.000000	42.000000
156.706581	156.821393	65.000000	50.000000
157.012742	157.598430	65.000000	53.000000
157.012742	157.598430	73.000000	53.000000
157.306833	157.598430	58.000000	53.000000
157.598430	158.168829	65.000000	53.000000
157.598430	158.168829	73.000000	53.000000
157.878694	158.168829	61.000000	61.000000
158.168829	158.273891	63.000000	41.000000
158.168829	158.273891	65.000000	49.000000
158.168829	158.273891	72.000000	49.000000
158.448999	158.557803	61.000000	42.000000
158.448999	158.557803	65.000000	50.000000
158.448999	158.557803	70.000000	50.000000
158.739134	159.312336	65.000000	53.000000
158.739134	159.312336	60.000000	45.000000
158.739134	159.312336	69.000000	53.000000
159.020739	159.312336	54.000000	53.000000
159.312336	159.877249	65.000000	53.000000
159.312336	159.877249	60.000000	45.000000
159.312336	159.877249	69.000000	53.000000
159.587115	159.877249	53.000000	61.000000
159.877249	159.982312	61.000000	41.000000
159.877249	159.982312	65.000000	49.000000
159.877249	159.982312	70.000000	49.000000
160.157420	160.266224	63.000000	42.000000
160.157420	160.266224	65.000000	50.000000
160.157420	160.266224	72.000000	50.000000
160.447554	161.020756	61.000000	53.000000
160.447554	161.020756	65.000000	53.000000
160.729160	161.020756	46.000000	53.000000
161.020756	161.585670	61.000000	53.000000
161.020756	161.585670	65.000000	53.000000
161.295535	161.585670	49.000000	61.000000
161.585670	161.690732	60.000000	41.000000
161.585670	161.690732	63.000000	49.000000
161.585670	161.690732	65.000000	49.000000
161.865840	161.974644	58.000000	42.000000
161.865840	161.974644	61.000000	50.000000
161.865840	161.974644	65.000000	50.000000
162.155975	162.752713	56.000000	38.000000
162.155975	162.752713	61.000000	45.000000
162.155975	162.752713	65.000000	45.000000
162.433423	162.752713	41.000000	53.000000
162.752713	163.365277	56.000000	38.000000
162.752713	163.365277	61.000000	45.000000
162.752713	163.365277	65.000000	45.000000
163.052719	163.365277	29.000000	60.000000
163.365277	163.476119	54.000000	34.000000
163.365277	163.476119	57.000000	34.000000
163.365277	163.476119	60.000000	41.000000
163.365277	163.476119	63.000000	41.000000
163.660843	163.775655	54.000000	35.000000
163.660843	163.775655	57.000000	35.000000
163.660843	163.775655	60.000000	42.000000
163.660843	163.775655	63.000000	42.000000
163.967004	164.614731	53.000000	38.000000
163.967004	164.614731	58.000000	45.000000
163.967004	164.614731	61.000000	45.000000
164.281211	164.614731	34.000000	45.000000
164.614731	165.281770	53.000000	38.000000
164.614731	165.281770	58.000000	45.000000
164.614731	165.281770	61.000000	45.000000
164.948250	165.281770	46.000000	46.000000
165.926238	166.157123	82.000000	64.000000
165.926238	166.041680	58.000000	37.000000
165.926238	166.041680	62.000000	45.000000
166.041680	166.157123	65.000000	30.000000
166.157123	166.388008	81.000000	56.000000
166.157123	166.272565	58.000000	29.000000
166.157123	166.272565	62.000000	35.000000
166.272565	166.388008	65.000000	29.000000
166.388008	166.618906	82.000000	56.000000
166.388008	166.503463	58.000000	29.000000
166.388008	166.503463	62.000000	35.000000
166.503463	166.618906	65.000000	30.000000
166.618906	166.847041	79.000000	60.000000
166.618906	166.732967	58.000000	34.000000
166.618906	166.732967	63.000000	40.000000
166.732967	166.847041	67.000000	30.000000
166.847041	166.960204	81.000000	55.000000
166.847041	166.960204	58.000000	29.000000
166.847041	166.960204	63.000000	35.000000
166.960204	167.073366	82.000000	56.000000
166.960204	167.073366	67.000000	29.000000
167.073366	167.186528	84.000000	58.000000
167.073366	167.186528	58.000000	29.000000
167.073366	167.186528	63.000000	35.000000
167.186528	167.299691	86.000000	59.000000
167.186528	167.299691	67.000000	29.000000
167.299691	167.528765	82.000000	63.000000
167.299691	167.414221	58.000000	40.000000
167.299691	167.414221	62.000000	48.000000
167.414221	167.528765	65.000000	30.000000
167.528765	167.641914	84.000000	64.000000
167.528765	167.641914	62.000000	35.000000
167.528765	167.641914	58.000000	29.000000
167.641914	167.755077	82.000000	56.000000
167.641914	167.755077	65.000000	29.000000
167.755077	167.868239	81.000000	60.000000
167.755077	167.868239	58.000000	29.000000
167.755077	167.868239	62.000000	35.000000
167.868239	167.981402	79.000000	56.000000
167.868239	167.981402	65.000000	29.000000
167.981402	168.039364	77.000000	66.000000
167.981402	168.097327	57.000000	35.000000
167.981402	168.097327	63.000000	41.000000
168.097327	168.213265	65.000000	30.000000
168.213265	168.271228	77.000000	60.000000
168.213265	168.329191	57.000000	29.000000
168.213265	168.329191	63.000000	35.000000
168.329191	168.445129	65.000000	31.000000
168.445129	168.504460	77.000000	59.000000
168.445129	168.563790	57.000000	29.000000
168.445129	168.563790	63.000000	35.000000
168.563790	168.682438	65.000000	30.000000
168.682438	168.914288	78.000000	72.000000
168.682438	168.798363	57.000000	37.000000
168.682438	168.798363	63.000000	44.000000
168.798363	168.914288	66.000000	30.000000
168.914288	169.146125	90.000000	68.000000
168.914288	169.030213	57.000000	29.000000
168.914288	169.030213	63.000000	35.000000
169.030213	169.146125	66.000000	30.000000
169.146125	169.205227	90.000000	68.000000
169.146125	169.264330	57.000000	29.000000
169.146125	169.264330	63.000000	35.000000
169.264330	169.382521	66.000000	30.000000
169.382521	169.614358	91.000000	77.000000
169.382521	169.498433	58.000000	35.000000
169.382521	169.498433	63.000000	41.000000
169.498433	169.614358	67.000000	30.000000
169.614358	169.846209	79.000000	60.000000
169.614358	169.730284	58.000000	29.000000
169.614358	169.730284	63.000000	35.000000
169.730284	169.846209	67.000000	30.000000
169.846209	169.904171	79.000000	60.000000
169.846209	169.962134	58.000000	29.000000
169.846209	169.962134	63.000000	35.000000
169.962134	170.078059	67.000000	30.000000
170.078059	170.136008	81.000000	63.000000
170.078059	170.193971	60.000000	35.000000
170.078059	170.193971	63.000000	41.000000
170.193971	170.309882	65.000000	30.000000
170.280901	170.309882	94.000000	54.000000
170.309882	170.423045	93.000000	62.000000
170.309882	170.423045	60.000000	29.000000
170.309882	170.423045	63.000000	35.000000
170.423045	170.536207	91.000000	60.000000
170.423045	170.536207	65.000000	30.000000
170.536207	170.765295	93.000000	62.000000
170.536207	170.650751	60.000000	29.000000
170.536207	170.650751	63.000000	35.000000
170.650751	170.765295	65.000000	30.000000
170.765295	170.822560	94.000000	64.000000
170.765295	170.879825	58.000000	35.000000
170.765295	170.879825	62.000000	41.000000
170.879825	170.994369	65.000000	30.000000
170.965723	170.994369	84.000000	53.000000
170.994369	171.107532	82.000000	60.000000
170.994369	171.107532	58.000000	29.000000
170.994369	171.107532	62.000000	35.000000
171.107532	171.220694	81.000000	56.000000
171.107532	171.220694	65.000000	30.000000
171.220694	171.341742	82.000000	60.000000
171.220694	171.341742	58.000000	29.000000
171.220694	171.341742	62.000000	35.000000
171.341742	171.462791	65.000000	30.000000
171.462791	171.579158	70.000000	40.000000
171.462791	171.579158	74.000000	48.000000
171.462791	171.695526	58.000000	57.000000
171.579158	171.695526	77.000000	42.000000
171.695526	171.811894	70.000000	41.000000
171.695526	171.811894	74.000000	49.000000
171.695526	171.928261	57.000000	48.000000
171.811894	171.928261	77.000000	41.000000
171.928261	172.044629	70.000000	41.000000
171.928261	172.044629	74.000000	49.000000
171.928261	172.160997	58.000000	48.000000
172.044629	172.160997	77.000000	42.000000
172.160997	172.275071	70.000000	42.000000
172.160997	172.275071	74.000000	50.000000
172.160997	172.389146	55.000000	57.000000
172.275071	172.389146	79.000000	42.000000
172.389146	172.502308	70.000000	41.000000
172.389146	172.502308	74.000000	49.000000
172.389146	172.502308	57.000000	46.000000
172.502308	172.615471	79.000000	41.000000
172.502308	172.615471	58.000000	46.000000
172.615471	172.728633	70.000000	41.000000
172.615471	172.728633	74.000000	49.000000
172.615471	172.728633	60.000000	48.000000
172.728633	172.841796	79.000000	41.000000
172.728633	172.841796	62.000000	48.000000
172.841796	172.956339	70.000000	44.000000
172.841796	172.956339	74.000000	52.000000
172.841796	173.070883	58.000000	55.000000
172.956339	173.070883	77.000000	42.000000
173.070883	173.184046	74.000000	49.000000
173.070883	173.184046	70.000000	41.000000
173.070883	173.184046	60.000000	52.000000
173.184046	173.297208	77.000000	41.000000
173.184046	173.297208	58.000000	48.000000
173.297208	173.410371	70.000000	41.000000
173.297208	173.410371	74.000000	49.000000
173.297208	173.410371	57.000000	52.000000
173.410371	173.523533	77.000000	41.000000
173.410371	173.523533	55.000000	48.000000
173.523533	173.639472	69.000000	47.000000
173.523533	173.639472	75.000000	56.000000
173.523533	173.639472	53.000000	56.000000
173.639472	173.755410	77.000000	42.000000
173.755410	173.871349	69.000000	41.000000
173.755410	173.871349	75.000000	49.000000
173.755410	173.871349	53.000000	48.000000
173.871349	173.987287	77.000000	44.000000
173.987287	174.105479	69.000000	41.000000
173.987287	174.105479	75.000000	49.000000
173.987287	174.105479	53.000000	48.000000
174.105479	174.223671	77.000000	42.000000
174.223671	174.339596	69.000000	45.000000
174.223671	174.339596	75.000000	53.000000
174.223671	174.455521	54.000000	61.000000
174.339596	174.455521	81.000000	42.000000
174.455521	174.571446	69.000000	41.000000
174.455521	174.571446	75.000000	49.000000
174.455521	174.687371	66.000000	46.000000
174.571446	174.687371	81.000000	42.000000
174.687371	174.806019	69.000000	41.000000
174.687371	174.806019	75.000000	49.000000
174.687371	174.806019	66.000000	49.000000
174.806019	174.924666	81.000000	42.000000
174.924666	175.040591	70.000000	44.000000
174.924666	175.040591	75.000000	52.000000
174.924666	175.156517	67.000000	61.000000
175.040591	175.156517	82.000000	42.000000
175.156517	175.272442	70.000000	41.000000
175.156517	175.272442	75.000000	49.000000
175.156517	175.388367	55.000000	53.000000
175.272442	175.388367	81.000000	42.000000
175.388367	175.504292	70.000000	41.000000
175.388367	175.504292	75.000000	49.000000
175.388367	175.504292	55.000000	55.000000
175.504292	175.620217	79.000000	42.000000
175.620217	175.736142	68.000000	41.000000
175.620217	175.736142	74.000000	49.000000
175.620217	175.678180	58.000000	60.000000
175.736142	175.852067	77.000000	42.000000
175.794105	175.870923	48.000000	46.000000
175.852067	175.965217	68.000000	41.000000
175.852067	175.965217	74.000000	49.000000
175.852067	175.984072	46.000000	55.000000
175.965217	176.078366	77.000000	42.000000
175.965217	176.098858	45.000000	50.000000
176.078366	176.201332	68.000000	41.000000
176.078366	176.201332	74.000000	49.000000
176.078366	176.324298	46.000000	53.000000
176.201332	176.324298	77.000000	42.000000
176.324298	176.439740	67.000000	41.000000
176.324298	176.439740	75.000000	49.000000
176.324298	176.382019	51.000000	50.000000
176.439740	176.555182	79.000000	42.000000
176.497461	176.574038	41.000000	46.000000
176.555182	176.668331	67.000000	41.000000
176.555182	176.668331	75.000000	49.000000
176.555182	176.687187	39.000000	50.000000
176.668331	176.781480	79.000000	42.000000
176.668331	176.801785	38.000000	47.000000
176.781480	176.903280	67.000000	41.000000
176.781480	176.903280	75.000000	49.000000
176.781480	176.903280	39.000000	50.000000
177.025079	177.086582	82.000000	66.000000
177.025079	177.148085	63.000000	35.000000
177.025079	177.148085	67.000000	41.000000
177.148085	177.271091	70.000000	33.000000
177.209588	177.271091	80.000000	56.000000
177.271091	177.384334	79.000000	67.000000
177.271091	177.384334	63.000000	31.000000
177.271091	177.384334	67.000000	38.000000
177.384334	177.497483	77.000000	62.000000
177.384334	177.497483	70.000000	33.000000
177.497483	177.726557	79.000000	66.000000
177.497483	177.612013	63.000000	31.000000
177.497483	177.612013	67.000000	38.000000
177.612013	177.726557	70.000000	33.000000
177.726557	177.786840	82.000000	66.000000
177.726557	177.847109	62.000000	31.000000
177.726557	177.847109	65.000000	38.000000
177.847109	177.967648	70.000000	33.000000
177.907379	177.967648	79.000000	57.000000
177.967648	178.080864	77.000000	67.000000
177.967648	178.080864	62.000000	31.000000
177.967648	178.080864	65.000000	38.000000
178.080864	178.194026	76.000000	62.000000
178.080864	178.194026	70.000000	33.000000
178.194026	178.427593	77.000000	66.000000
178.194026	178.310810	61.000000	31.000000
178.194026	178.310810	65.000000	38.000000
178.310810	178.427593	70.000000	33.000000
178.427593	178.668697	84.000000	69.000000
178.427593	178.548145	60.000000	31.000000
178.427593	178.548145	65.000000	38.000000
178.548145	178.668697	68.000000	33.000000
178.668697	178.781913	82.000000	70.000000
178.668697	178.781913	60.000000	31.000000
178.668697	178.781913	65.000000	38.000000
178.781913	178.895076	80.000000	64.000000
178.781913	178.895076	68.000000	33.000000
178.895076	179.014823	79.000000	69.000000
178.895076	179.014823	60.000000	31.000000
178.895076	179.014823	65.000000	38.000000
179.014823	179.134570	77.000000	69.000000
179.014823	179.134570	68.000000	33.000000
179.134570	179.380274	84.000000	69.000000
179.134570	179.257429	60.000000	31.000000
179.134570	179.257429	65.000000	38.000000
179.257429	179.380274	67.000000	33.000000
179.380274	179.616765	72.000000	67.000000
179.380274	179.498520	60.000000	31.000000
179.380274	179.498520	64.000000	38.000000
179.498520	179.616765	67.000000	33.000000
179.616765	179.853255	72.000000	67.000000
179.616765	179.735010	60.000000	31.000000
179.616765	179.735010	64.000000	38.000000
179.735010	179.853255	67.000000	36.000000
179.853255	179.973499	68.000000	44.000000
179.853255	179.973499	72.000000	52.000000
179.853255	180.574944	56.000000	44.000000
179.853255	180.093742	60.000000	52.000000
179.973499	180.093742	75.000000	46.000000
180.093742	180.213490	68.000000	45.000000
180.093742	180.213490	72.000000	53.000000
180.093742	180.333237	61.000000	48.000000
180.213490	180.333237	75.000000	45.000000
180.333237	180.454513	68.000000	45.000000
180.333237	180.454513	72.000000	53.000000
180.333237	180.574944	60.000000	48.000000
180.454513	180.574944	75.000000	46.000000
180.574944	180.695188	68.000000	44.000000
180.574944	180.695188	77.000000	52.000000
180.574944	181.292409	49.000000	44.000000
180.574944	180.815431	58.000000	52.000000
180.695188	180.815431	80.000000	46.000000
180.815431	180.934173	68.000000	47.000000
180.815431	180.934173	77.000000	56.000000
180.815431	181.052914	53.000000	50.000000
180.934173	181.052914	80.000000	47.000000
181.052914	181.171656	68.000000	49.000000
181.052914	181.171656	77.000000	58.000000
181.052914	181.292409	55.000000	52.000000
181.171656	181.292409	80.000000	51.000000
181.232032	181.292409	58.000000	49.000000
181.292409	181.411057	68.000000	44.000000
181.292409	181.411057	72.000000	52.000000
181.292409	182.735385	51.000000	44.000000
181.292409	181.529704	56.000000	52.000000
181.411057	181.529704	75.000000	45.000000
181.529704	181.648352	68.000000	42.000000
181.529704	181.648352	72.000000	50.000000
181.529704	181.766999	55.000000	45.000000
181.648352	181.766999	75.000000	41.000000
181.766999	181.888799	68.000000	40.000000
181.766999	181.888799	72.000000	48.000000
181.766999	182.010598	56.000000	42.000000
181.888799	182.010598	75.000000	39.000000
182.010598	182.129835	67.000000	37.000000
182.010598	182.129835	73.000000	44.000000
182.010598	182.491263	58.000000	44.000000
182.129835	182.249744	75.000000	38.000000
182.249744	182.370162	67.000000	37.000000
182.249744	182.370162	73.000000	45.000000
182.370162	182.491263	75.000000	37.000000
182.491263	182.612888	67.000000	37.000000
182.491263	182.612888	73.000000	45.000000
182.491263	182.735385	59.000000	40.000000
182.612888	182.735385	75.000000	38.000000
182.735385	182.796888	68.000000	56.000000
182.735385	182.796888	72.000000	56.000000
182.735385	182.796888	75.000000	66.000000
182.735385	182.858391	56.000000	35.000000
182.735385	182.858391	60.000000	41.000000
182.858391	182.981397	63.000000	33.000000
182.919894	182.981397	73.000000	58.000000
182.981397	183.094640	72.000000	67.000000
182.981397	183.094640	56.000000	31.000000
182.981397	183.094640	60.000000	38.000000
183.094640	183.207803	70.000000	62.000000
183.094640	183.207803	63.000000	33.000000
183.207803	183.436877	72.000000	66.000000
183.207803	183.322333	56.000000	31.000000
183.207803	183.322333	60.000000	38.000000
183.322333	183.436877	63.000000	33.000000
183.436877	183.497159	75.000000	66.000000
183.436877	183.557429	55.000000	31.000000
183.436877	183.557429	58.000000	38.000000
183.557429	183.677967	63.000000	33.000000
183.617698	183.677967	72.000000	58.000000
183.677967	183.791183	70.000000	67.000000
183.677967	183.791183	55.000000	31.000000
183.677967	183.791183	58.000000	38.000000
183.791183	183.904332	69.000000	62.000000
183.791183	183.904332	63.000000	33.000000
183.904332	184.137899	70.000000	66.000000
183.904332	184.021116	54.000000	31.000000
183.904332	184.021116	58.000000	38.000000
184.021116	184.137899	63.000000	33.000000
184.137899	184.379003	77.000000	69.000000
184.137899	184.258451	53.000000	31.000000
184.137899	184.258451	58.000000	38.000000
184.258451	184.379003	61.000000	33.000000
184.379003	184.492219	75.000000	70.000000
184.379003	184.492219	53.000000	31.000000
184.379003	184.492219	58.000000	38.000000
184.492219	184.605382	73.000000	64.000000
184.492219	184.605382	61.000000	33.000000
184.605382	184.724620	72.000000	69.000000
184.605382	184.724620	53.000000	31.000000
184.605382	184.724620	58.000000	38.000000
184.724620	184.843857	70.000000	69.000000
184.724620	184.843857	61.000000	33.000000
184.843857	185.087456	77.000000	69.000000
184.843857	184.965656	53.000000	31.000000
184.843857	184.965656	58.000000	38.000000
184.965656	185.087456	60.000000	33.000000
185.087456	185.324939	65.000000	67.000000
185.087456	185.206197	53.000000	31.000000
185.087456	185.206197	57.000000	38.000000
185.206197	185.324939	60.000000	33.000000
185.324939	185.562421	65.000000	67.000000
185.324939	185.443680	53.000000	31.000000
185.324939	185.443680	57.000000	38.000000
185.443680	185.562421	60.000000	36.000000
185.562421	185.682665	73.000000	44.000000
185.562421	185.682665	77.000000	52.000000
185.562421	186.280718	61.000000	44.000000
185.562421	185.802908	65.000000	52.000000
185.682665	185.802908	80.000000	46.000000
185.802908	185.922656	73.000000	45.000000
185.802908	185.922656	77.000000	53.000000
185.802908	186.042403	66.000000	48.000000
185.922656	186.042403	80.000000	45.000000
186.042403	186.161641	73.000000	45.000000
186.042403	186.161641	77.000000	53.000000
186.042403	186.280718	65.000000	48.000000
186.161641	186.280718	80.000000	46.000000
186.280718	186.401994	73.000000	44.000000
186.280718	186.401994	82.000000	52.000000
186.280718	186.998759	54.000000	44.000000
186.280718	186.523270	63.000000	52.000000
186.401994	186.523270	85.000000	46.000000
186.523270	186.641515	73.000000	47.000000
186.523270	186.641515	82.000000	56.000000
186.523270	186.759760	58.000000	50.000000
186.641515	186.759760	85.000000	47.000000
186.759760	186.878006	73.000000	49.000000
186.759760	186.878006	82.000000	58.000000
186.759760	186.998759	60.000000	52.000000
186.878006	186.998759	85.000000	51.000000
186.938382	186.998759	63.000000	49.000000
186.998759	187.117406	73.000000	44.000000
186.998759	187.117406	77.000000	52.000000
186.998759	188.428176	56.000000	44.000000
186.998759	187.236054	61.000000	52.000000
187.117406	187.236054	80.000000	45.000000
187.236054	187.354702	73.000000	42.000000
187.236054	187.354702	77.000000	50.000000
187.236054	187.473349	60.000000	45.000000
187.354702	187.473349	80.000000	41.000000
187.473349	187.591997	73.000000	40.000000
187.473349	187.591997	77.000000	48.000000
187.473349	187.710644	61.000000	42.000000
187.591997	187.710644	80.000000	39.000000
187.710644	187.828876	72.000000	37.000000
187.710644	187.828876	78.000000	44.000000
187.710644	188.186804	63.000000	44.000000
187.828876	187.947644	80.000000	38.000000
187.947644	188.066963	72.000000	37.000000
187.947644	188.066963	78.000000	45.000000
188.066963	188.186804	80.000000	37.000000
188.186804	188.307208	72.000000	37.000000
188.186804	188.307208	78.000000	45.000000
188.186804	188.428176	64.000000	40.000000
188.307208	188.428176	80.000000	38.000000
188.428176	188.674202	73.000000	37.000000
188.428176	188.674202	77.000000	37.000000
188.428176	188.674202	80.000000	44.000000
188.428176	188.489679	61.000000	35.000000
188.428176	188.489679	65.000000	41.000000
188.674202	188.735356	49.000000	33.000000
188.918833	188.981892	49.000000	33.000000
189.171081	189.231458	61.000000	31.000000
189.174099	189.234475	65.000000	38.000000
189.412587	189.474010	49.000000	33.000000
189.658291	189.721069	49.000000	33.000000
189.846636	190.026210	73.000000	48.000000
189.878032	190.026210	77.000000	48.000000
189.909427	190.026210	80.000000	60.000000
189.909427	189.967819	61.000000	33.000000
189.909427	189.967819	65.000000	39.000000
190.142994	190.258356	78.000000	48.000000
190.142994	190.200675	49.000000	33.000000
190.258356	190.373717	77.000000	48.000000
190.373717	190.494471	75.000000	48.000000
190.373717	190.434094	49.000000	33.000000
190.494471	190.615224	73.000000	48.000000
190.554847	190.731524	68.000000	48.000000
190.585035	190.731524	72.000000	48.000000
190.615224	190.731524	75.000000	58.000000
190.615224	190.673374	61.000000	34.000000
190.615224	190.673374	66.000000	40.000000
190.847825	190.963187	73.000000	48.000000
190.847825	190.905506	49.000000	33.000000
190.963187	191.078549	72.000000	48.000000
191.078549	191.198283	70.000000	48.000000
191.078549	191.138416	49.000000	33.000000
191.198283	191.318017	68.000000	48.000000
191.258150	191.439816	73.000000	48.000000
191.288083	191.439816	77.000000	48.000000
191.318017	191.439816	80.000000	63.000000
191.318017	191.378916	61.000000	33.000000
191.318017	191.378916	65.000000	39.000000
191.561615	191.676977	78.000000	50.000000
191.561615	191.619296	49.000000	34.000000
191.676977	191.792339	77.000000	53.000000
191.792339	191.907701	75.000000	56.000000
191.792339	191.850020	49.000000	39.000000
191.907701	192.024189	73.000000	60.000000
192.024189	192.083560	85.000000	68.000000
192.024189	192.083560	82.000000	68.000000
192.024189	192.083560	78.000000	68.000000
192.024189	192.083560	61.000000	37.000000
192.024189	192.083560	66.000000	45.000000
192.262503	192.322370	78.000000	61.000000
192.262503	192.322370	82.000000	61.000000
192.262503	192.322370	85.000000	61.000000
192.262503	192.322370	49.000000	33.000000
192.502816	192.563193	78.000000	61.000000
192.502816	192.563193	82.000000	61.000000
192.502816	192.563193	85.000000	61.000000
192.502816	192.563193	49.000000	33.000000
192.745355	192.978909	58.000000	33.000000
192.745355	192.978909	61.000000	33.000000
192.745355	192.978909	66.000000	39.000000
192.978909	193.218390	49.000000	30.000000
193.218390	193.463034	49.000000	30.000000
193.463034	193.695649	58.000000	30.000000
193.463034	193.695649	61.000000	30.000000
193.463034	193.695649	66.000000	36.000000
193.695649	193.935130	49.000000	30.000000
193.935130	194.179788	49.000000	30.000000
194.179788	194.413543	65.000000	58.000000
194.179788	194.413543	56.000000	29.000000
194.179788	194.413543	61.000000	35.000000
194.359389	194.413543	68.000000	40.000000
194.413543	194.650020	66.000000	49.000000
194.413543	194.650020	49.000000	29.000000
194.650020	194.886497	65.000000	49.000000
194.650020	194.886497	49.000000	29.000000
194.886497	195.120050	63.000000	57.000000
194.886497	195.120050	54.000000	30.000000
194.886497	195.120050	58.000000	36.000000
195.120050	195.234473	65.000000	49.000000
195.120050	195.348588	42.000000	29.000000
195.234473	195.348588	66.000000	49.000000
195.348588	195.462394	68.000000	51.000000
195.348588	195.575745	42.000000	29.000000
195.462394	195.575745	70.000000	52.000000
195.575745	195.808359	72.000000	62.000000
195.575745	195.808359	63.000000	29.000000
195.575745	195.808359	66.000000	35.000000
195.808359	195.922782	70.000000	59.000000
195.808359	196.037206	56.000000	29.000000
195.922782	196.037206	72.000000	55.000000
196.037206	196.151629	73.000000	57.000000
196.037206	196.266052	56.000000	29.000000
196.151629	196.266052	75.000000	59.000000
196.266052	196.324014	77.000000	63.000000
196.266052	196.497915	65.000000	35.000000
196.266052	196.497915	61.000000	29.000000
196.497915	196.555878	77.000000	53.000000
196.497915	196.729779	49.000000	29.000000
196.729779	196.789110	77.000000	52.000000
196.729779	196.967088	49.000000	29.000000
196.967088	197.027719	61.000000	30.000000
196.967088	197.027719	65.000000	36.000000
197.209627	197.271049	49.000000	30.000000
197.455331	197.518389	49.000000	30.000000
197.707579	197.767956	61.000000	30.000000
197.710597	197.770973	65.000000	37.000000
197.949085	198.010508	49.000000	33.000000
198.194789	198.257566	49.000000	33.000000
198.383134	198.563674	73.000000	48.000000
198.414529	198.563674	77.000000	48.000000
198.445925	198.563674	80.000000	60.000000
198.445925	198.504799	61.000000	33.000000
198.445925	198.504799	65.000000	39.000000
198.681423	198.796785	78.000000	48.000000
198.681423	198.739104	49.000000	33.000000
198.796785	198.912147	77.000000	48.000000
198.912147	199.031371	75.000000	48.000000
198.912147	198.971759	49.000000	33.000000
199.031371	199.150608	73.000000	48.000000
199.090983	199.266909	68.000000	48.000000
199.120796	199.266909	72.000000	48.000000
199.150608	199.266909	75.000000	58.000000
199.150608	199.208759	61.000000	34.000000
199.150608	199.208759	66.000000	40.000000
199.383210	199.498572	73.000000	48.000000
199.383210	199.440891	49.000000	33.000000
199.498572	199.613934	72.000000	48.000000
199.613934	199.734177	70.000000	48.000000
199.613934	199.674055	49.000000	33.000000
199.734177	199.854407	68.000000	48.000000
199.794299	199.976206	73.000000	48.000000
199.824353	199.976206	77.000000	48.000000
199.854407	199.976206	80.000000	63.000000
199.854407	199.915307	61.000000	33.000000
199.854407	199.915307	65.000000	39.000000
200.098006	200.213367	78.000000	50.000000
200.098006	200.155686	49.000000	34.000000
200.213367	200.328729	77.000000	53.000000
200.328729	200.444091	75.000000	56.000000
200.328729	200.386410	49.000000	39.000000
200.444091	200.559453	73.000000	60.000000
200.559453	200.619400	85.000000	68.000000
200.559453	200.619400	81.000000	68.000000
200.559453	200.619400	78.000000	68.000000
200.559453	200.619400	61.000000	37.000000
200.559453	200.619400	66.000000	45.000000
200.798586	200.858707	78.000000	61.000000
200.798586	200.858707	81.000000	61.000000
200.798586	200.858707	85.000000	61.000000
200.798586	200.858707	49.000000	33.000000
201.040092	201.100723	78.000000	61.000000
201.040092	201.100723	81.000000	61.000000
201.040092	201.100723	85.000000	61.000000
201.040092	201.100723	49.000000	33.000000
201.282631	201.516184	57.000000	33.000000
201.282631	201.516184	61.000000	33.000000
201.282631	201.516184	66.000000	39.000000
201.516184	201.758723	54.000000	30.000000
201.758723	202.005500	54.000000	30.000000
202.005500	202.238101	57.000000	30.000000
202.005500	202.238101	61.000000	30.000000
202.005500	202.238101	66.000000	36.000000
202.238101	202.480640	54.000000	30.000000
202.480640	202.729563	54.000000	30.000000
202.729563	202.964296	73.000000	63.000000
202.729563	202.964296	66.000000	35.000000
202.729563	202.964296	57.000000	29.000000
202.729563	202.964296	61.000000	29.000000
202.909928	202.964296	76.000000	45.000000
202.964296	203.200774	74.000000	53.000000
202.964296	203.200774	54.000000	29.000000
203.200774	203.437251	73.000000	53.000000
203.200774	203.437251	54.000000	29.000000
203.437251	203.667961	71.000000	62.000000
203.437251	203.667961	62.000000	30.000000
203.437251	203.667961	66.000000	36.000000
203.667961	203.782384	73.000000	53.000000
203.667961	203.896807	50.000000	29.000000
203.782384	203.896807	74.000000	53.000000
203.896807	204.011230	76.000000	56.000000
203.896807	204.125653	50.000000	29.000000
204.011230	204.125653	78.000000	57.000000
204.125653	204.357316	80.000000	62.000000
204.125653	204.357316	62.000000	29.000000
204.125653	204.357316	64.000000	35.000000
204.357316	204.471726	78.000000	63.000000
204.357316	204.586149	52.000000	29.000000
204.471726	204.586149	80.000000	51.000000
204.586149	204.703415	81.000000	55.000000
204.586149	204.820681	52.000000	29.000000
204.703415	204.820681	83.000000	58.000000
204.820681	204.878644	85.000000	62.000000
204.820681	205.052545	64.000000	35.000000
204.820681	205.052545	61.000000	29.000000
205.052545	205.110508	85.000000	58.000000
205.052545	205.284409	57.000000	29.000000
205.284409	205.343739	85.000000	57.000000
205.284409	205.521717	57.000000	29.000000
205.521717	205.582349	61.000000	30.000000
205.521717	205.582349	64.000000	36.000000
205.764256	205.824888	57.000000	30.000000
206.006795	206.069854	57.000000	31.000000
206.259044	206.495534	73.000000	63.000000
206.259044	206.495534	64.000000	35.000000
206.259044	206.495534	61.000000	29.000000
206.495534	206.732011	73.000000	53.000000
206.495534	206.732011	57.000000	29.000000
206.732011	206.968488	73.000000	53.000000
206.732011	206.968488	57.000000	29.000000
206.968488	207.199199	73.000000	62.000000
206.968488	207.199199	61.000000	30.000000
206.968488	207.199199	64.000000	36.000000
207.199199	207.314561	76.000000	53.000000
207.199199	207.429923	58.000000	29.000000
207.314561	207.429923	74.000000	53.000000
207.429923	207.545284	73.000000	56.000000
207.429923	207.660646	58.000000	29.000000
207.545284	207.660646	76.000000	57.000000
207.660646	207.719038	74.000000	62.000000
207.660646	207.894200	62.000000	29.000000
207.660646	207.894200	64.000000	35.000000
207.894200	207.951639	74.000000	62.000000
207.894200	208.123971	59.000000	29.000000
208.123971	208.184093	74.000000	60.000000
208.123971	208.364458	59.000000	29.000000
208.364458	208.423829	86.000000	62.000000
208.364458	208.601928	64.000000	35.000000
208.364458	208.601928	62.000000	29.000000
208.601928	208.661299	86.000000	58.000000
208.601928	208.839397	59.000000	29.000000
208.839397	208.898728	86.000000	57.000000
208.839397	209.076706	59.000000	29.000000
209.076706	209.137337	62.000000	26.000000
209.076706	209.137337	64.000000	30.000000
209.319245	209.379876	59.000000	27.000000
209.561784	209.624843	59.000000	27.000000
209.814032	210.050523	74.000000	63.000000
209.814032	210.050523	64.000000	35.000000
209.814032	210.050523	62.000000	29.000000
210.050523	210.287000	74.000000	53.000000
210.050523	210.287000	59.000000	29.000000
210.287000	210.523477	74.000000	53.000000
210.287000	210.523477	59.000000	29.000000
210.523477	210.754188	74.000000	62.000000
210.523477	210.754188	62.000000	30.000000
210.523477	210.754188	65.000000	36.000000
210.754188	210.868611	77.000000	53.000000
210.754188	210.983034	59.000000	29.000000
210.868611	210.983034	76.000000	53.000000
210.983034	211.097457	74.000000	56.000000
210.983034	211.211880	59.000000	29.000000
211.097457	211.211880	77.000000	57.000000
211.211880	211.270513	74.000000	62.000000
211.211880	211.446399	62.000000	29.000000
211.211880	211.446399	65.000000	35.000000
211.446399	211.503383	74.000000	62.000000
211.446399	211.674333	59.000000	29.000000
211.674333	211.737110	74.000000	62.000000
211.674333	211.925455	59.000000	29.000000
211.925455	211.985832	86.000000	62.000000
211.925455	212.166962	65.000000	35.000000
211.925455	212.166962	62.000000	29.000000
212.166962	212.228384	86.000000	58.000000
212.166962	212.412665	59.000000	29.000000
212.412665	212.475443	86.000000	57.000000
212.412665	212.663787	59.000000	29.000000
212.663787	212.897354	74.000000	66.000000
212.663787	212.780571	59.000000	31.000000
212.663787	212.780571	62.000000	38.000000
212.780571	212.897354	65.000000	31.000000
212.897354	213.130921	73.000000	62.000000
212.897354	213.014138	62.000000	33.000000
212.897354	213.014138	59.000000	27.000000
213.014138	213.130921	65.000000	31.000000
213.130921	213.370402	74.000000	62.000000
213.130921	213.250655	62.000000	33.000000
213.130921	213.250655	59.000000	27.000000
213.250655	213.370402	65.000000	31.000000
213.370402	213.603017	86.000000	66.000000
213.370402	213.486717	58.000000	31.000000
213.370402	213.486717	62.000000	38.000000
213.486717	213.603017	65.000000	31.000000
213.603017	213.835619	85.000000	62.000000
213.603017	213.719318	62.000000	33.000000
213.603017	213.719318	58.000000	27.000000
213.719318	213.835619	65.000000	31.000000
213.835619	214.075100	86.000000	62.000000
213.835619	213.955352	62.000000	33.000000
213.835619	213.955352	58.000000	27.000000
213.955352	214.075100	65.000000	31.000000
214.075100	214.305984	82.000000	64.000000
214.075100	214.190542	58.000000	37.000000
214.075100	214.190542	62.000000	45.000000
214.190542	214.305984	65.000000	30.000000
214.305984	214.536869	81.000000	56.000000
214.305984	214.421427	58.000000	29.000000
214.305984	214.421427	62.000000	35.000000
214.421427	214.536869	65.000000	29.000000
214.536869	214.767767	82.000000	57.000000
214.536869	214.652325	58.000000	29.000000
214.536869	214.652325	62.000000	35.000000
214.652325	214.767767	65.000000	30.000000
214.767767	214.995903	79.000000	61.000000
214.767767	214.881828	58.000000	35.000000
214.767767	214.881828	63.000000	41.000000
214.881828	214.995903	67.000000	31.000000
214.995903	215.109065	81.000000	57.000000
214.995903	215.109065	58.000000	30.000000
214.995903	215.109065	63.000000	36.000000
215.109065	215.222228	82.000000	58.000000
215.109065	215.222228	67.000000	30.000000
215.222228	215.335390	84.000000	61.000000
215.222228	215.335390	58.000000	30.000000
215.222228	215.335390	63.000000	36.000000
215.335390	215.448553	86.000000	62.000000
215.335390	215.448553	67.000000	30.000000
215.448553	215.680054	82.000000	68.000000
215.448553	215.564303	58.000000	42.000000
215.448553	215.564303	62.000000	51.000000
215.564303	215.680054	65.000000	33.000000
215.680054	215.794424	84.000000	69.000000
215.680054	215.794424	62.000000	37.000000
215.680054	215.794424	58.000000	30.000000
215.794424	215.908793	82.000000	60.000000
215.794424	215.908793	65.000000	31.000000
215.908793	216.023163	81.000000	66.000000
215.908793	216.023163	58.000000	31.000000
215.908793	216.023163	62.000000	38.000000
216.023163	216.137532	79.000000	61.000000
216.023163	216.137532	65.000000	31.000000
216.137532	216.196125	77.000000	72.000000
216.137532	216.254718	57.000000	38.000000
216.137532	216.254718	63.000000	46.000000
216.254718	216.371890	65.000000	34.000000
216.371890	216.430483	77.000000	67.000000
216.371890	216.489076	57.000000	31.000000
216.371890	216.489076	63.000000	38.000000
216.489076	216.606248	65.000000	35.000000
216.606248	216.666209	77.000000	67.000000
216.606248	216.726170	57.000000	33.000000
216.606248	216.726170	63.000000	39.000000
216.726170	216.846092	65.000000	34.000000
216.846092	217.080410	78.000000	82.000000
216.846092	216.963251	57.000000	42.000000
216.846092	216.963251	63.000000	50.000000
216.963251	217.080410	66.000000	35.000000
217.080410	217.314728	90.000000	78.000000
217.080410	217.197569	57.000000	34.000000
217.080410	217.197569	63.000000	40.000000
217.197569	217.314728	66.000000	35.000000
217.314728	217.374460	90.000000	79.000000
217.314728	217.434180	57.000000	34.000000
217.314728	217.434180	63.000000	40.000000
217.434180	217.553632	66.000000	36.000000
217.553632	217.787950	91.000000	90.000000
217.553632	217.670791	58.000000	40.000000
217.553632	217.670791	63.000000	48.000000
217.670791	217.787950	67.000000	36.000000
217.787950	218.022268	79.000000	72.000000
217.787950	217.905109	58.000000	35.000000
217.787950	217.905109	63.000000	41.000000
217.905109	218.022268	67.000000	36.000000
218.022268	218.080847	79.000000	72.000000
218.022268	218.139427	58.000000	35.000000
218.022268	218.139427	63.000000	41.000000
218.139427	218.256586	67.000000	36.000000
218.256586	218.315165	81.000000	77.000000
218.256586	218.373745	60.000000	42.000000
218.256586	218.373745	63.000000	50.000000
218.373745	218.490904	67.000000	37.000000
218.461614	218.490904	94.000000	73.000000
218.490904	218.605273	93.000000	77.000000
218.490904	218.605273	60.000000	36.000000
218.490904	218.605273	63.000000	42.000000
218.605273	218.719643	91.000000	74.000000
218.605273	218.719643	67.000000	37.000000
218.719643	218.951144	93.000000	78.000000
218.719643	218.835393	60.000000	37.000000
218.719643	218.835393	63.000000	44.000000
218.835393	218.951144	67.000000	38.000000
218.951144	219.009013	94.000000	81.000000
218.951144	219.066882	55.000000	42.000000
218.951144	219.066882	62.000000	51.000000
219.066882	219.182632	67.000000	38.000000
219.153691	219.182632	84.000000	72.000000
219.182632	219.297002	82.000000	75.000000
219.182632	219.297002	55.000000	37.000000
219.182632	219.297002	62.000000	44.000000
219.297002	219.411371	81.000000	71.000000
219.297002	219.411371	67.000000	38.000000
219.411371	219.533707	82.000000	77.000000
219.411371	219.533707	55.000000	37.000000
219.411371	219.533707	62.000000	44.000000
219.533707	219.656043	67.000000	39.000000
219.656043	219.773644	75.000000	52.000000
219.656043	219.773644	79.000000	62.000000
219.656043	219.891246	63.000000	73.000000
219.773644	219.891246	82.000000	55.000000
219.891246	220.008847	75.000000	53.000000
219.891246	220.008847	79.000000	63.000000
219.891246	220.126449	62.000000	62.000000
220.008847	220.126449	82.000000	53.000000
220.126449	220.244050	75.000000	53.000000
220.126449	220.244050	79.000000	63.000000
220.126449	220.361652	63.000000	62.000000
220.244050	220.361652	82.000000	55.000000
220.361652	220.476933	75.000000	55.000000
220.361652	220.476933	79.000000	64.000000
220.361652	220.592215	60.000000	73.000000
220.476933	220.592215	84.000000	55.000000
220.592215	220.706584	75.000000	53.000000
220.592215	220.706584	79.000000	63.000000
220.592215	220.706584	62.000000	59.000000
220.706584	220.820954	84.000000	53.000000
220.706584	220.820954	63.000000	59.000000
220.820954	220.935323	75.000000	53.000000
220.820954	220.935323	79.000000	63.000000
220.820954	220.935323	65.000000	62.000000
220.935323	221.049693	84.000000	53.000000
220.935323	221.049693	67.000000	62.000000
221.049693	221.165443	75.000000	57.000000
221.049693	221.165443	79.000000	68.000000
221.049693	221.281194	63.000000	71.000000
221.165443	221.281194	82.000000	55.000000
221.281194	221.395564	79.000000	63.000000
221.281194	221.395564	75.000000	53.000000
221.281194	221.395564	65.000000	68.000000
221.395564	221.509933	82.000000	53.000000
221.395564	221.509933	63.000000	62.000000
221.509933	221.624303	75.000000	53.000000
221.509933	221.624303	79.000000	63.000000
221.509933	221.624303	62.000000	68.000000
221.624303	221.739638	82.000000	53.000000
221.624303	221.739638	60.000000	62.000000
221.739638	221.857065	74.000000	61.000000
221.739638	221.857065	80.000000	72.000000
221.739638	221.798271	58.000000	72.000000
221.857065	221.975136	82.000000	55.000000
221.975136	222.094038	74.000000	53.000000
221.975136	222.094038	80.000000	63.000000
221.975136	222.034506	58.000000	62.000000
222.094038	222.213611	82.000000	57.000000
222.213611	222.333855	74.000000	53.000000
222.213611	222.333855	80.000000	63.000000
222.213611	222.273733	58.000000	62.000000
222.333855	222.454098	82.000000	55.000000
222.454098	222.571257	74.000000	58.000000
222.454098	222.571257	80.000000	69.000000
222.454098	222.688416	59.000000	71.000000
222.571257	222.688416	86.000000	55.000000
222.688416	222.805575	74.000000	53.000000
222.688416	222.805575	80.000000	63.000000
222.688416	222.922734	71.000000	59.000000
222.805575	222.922734	86.000000	55.000000
222.922734	223.042656	74.000000	53.000000
222.922734	223.042656	80.000000	63.000000
222.922734	223.042656	71.000000	63.000000
223.042656	223.162577	86.000000	55.000000
223.162577	223.279736	75.000000	57.000000
223.162577	223.279736	80.000000	68.000000
223.162577	223.396895	72.000000	73.000000
223.279736	223.396895	87.000000	55.000000
223.396895	223.514054	75.000000	53.000000
223.396895	223.514054	80.000000	63.000000
223.396895	223.631213	60.000000	69.000000
223.514054	223.631213	87.000000	55.000000
223.631213	223.748372	75.000000	53.000000
223.631213	223.748372	80.000000	63.000000
223.631213	223.748372	60.000000	71.000000
223.748372	223.865531	86.000000	55.000000
223.865531	223.982690	75.000000	53.000000
223.865531	223.982690	81.000000	63.000000
223.865531	223.924111	65.000000	78.000000
223.982690	224.099849	84.000000	55.000000
224.041270	224.118906	55.000000	69.000000
224.099849	224.214205	75.000000	53.000000
224.099849	224.214205	81.000000	63.000000
224.099849	224.233262	53.000000	79.000000
224.214205	224.328561	84.000000	55.000000
224.214205	224.349268	52.000000	73.000000
224.328561	224.452828	75.000000	53.000000
224.328561	224.452828	81.000000	63.000000
224.328561	224.577108	53.000000	78.000000
224.452828	224.577108	84.000000	55.000000
224.577108	224.693784	74.000000	53.000000
224.577108	224.693784	82.000000	63.000000
224.577108	224.635446	58.000000	73.000000
224.693784	224.810461	86.000000	55.000000
224.752122	224.829518	48.000000	65.000000
224.810461	224.924817	74.000000	53.000000
224.810461	224.924817	82.000000	63.000000
224.810461	224.943874	46.000000	73.000000
224.924817	225.039173	86.000000	55.000000
224.924817	225.060416	45.000000	68.000000
225.039173	225.166631	74.000000	53.000000
225.039173	225.166631	82.000000	63.000000
225.039173	225.294090	46.000000	73.000000
225.166631	225.294090	86.000000	55.000000
225.294090	225.409371	75.000000	55.000000
225.294090	225.409371	81.000000	64.000000
225.294090	225.524653	41.000000	66.000000
225.409371	225.524653	84.000000	55.000000
225.524653	225.639022	75.000000	53.000000
225.524653	225.639022	81.000000	63.000000
225.524653	225.639022	43.000000	52.000000
225.639022	225.753392	84.000000	53.000000
225.639022	225.753392	45.000000	52.000000
225.753392	225.867761	75.000000	53.000000
225.753392	225.867761	81.000000	63.000000
225.753392	225.867761	46.000000	56.000000
225.867761	225.982131	84.000000	53.000000
225.867761	225.982131	48.000000	56.000000
225.982131	226.099558	74.000000	57.000000
225.982131	226.099558	82.000000	68.000000
225.982131	226.217803	46.000000	63.000000
226.099558	226.217803	86.000000	55.000000
226.217803	226.336880	82.000000	63.000000
226.217803	226.336880	74.000000	53.000000
226.217803	226.456118	46.000000	63.000000
226.336880	226.456118	86.000000	53.000000
226.456118	226.578158	74.000000	53.000000
226.456118	226.578158	82.000000	63.000000
226.456118	226.700199	46.000000	63.000000
226.578158	226.700199	86.000000	53.000000
226.700199	226.818712	75.000000	49.000000
226.700199	226.818712	81.000000	58.000000
226.700199	226.937226	53.000000	59.000000
226.818712	226.937226	84.000000	49.000000
226.937226	227.052869	75.000000	48.000000
226.937226	227.052869	81.000000	57.000000
226.937226	227.052869	55.000000	47.000000
227.052869	227.168513	84.000000	48.000000
227.052869	227.168513	57.000000	47.000000
227.168513	227.286543	75.000000	48.000000
227.168513	227.286543	81.000000	57.000000
227.168513	227.286543	58.000000	49.000000
227.286543	227.404574	84.000000	48.000000
227.286543	227.404574	60.000000	49.000000
227.404574	227.523088	74.000000	50.000000
227.404574	227.523088	82.000000	60.000000
227.404574	227.642661	58.000000	57.000000
227.523088	227.642661	86.000000	49.000000
227.642661	227.762904	82.000000	57.000000
227.642661	227.762904	74.000000	48.000000
227.642661	227.883148	58.000000	57.000000
227.762904	227.883148	86.000000	48.000000
227.883148	228.008930	74.000000	48.000000
227.883148	228.008930	82.000000	57.000000
227.883148	228.134712	58.000000	57.000000
228.008930	228.134712	86.000000	48.000000
228.134712	228.257262	75.000000	42.000000
228.134712	228.257262	81.000000	51.000000
228.134712	228.379826	65.000000	52.000000
228.257262	228.379826	84.000000	44.000000
228.379826	228.495469	75.000000	42.000000
228.379826	228.495469	81.000000	50.000000
228.379826	228.495469	67.000000	41.000000
228.495469	228.611113	84.000000	42.000000
228.495469	228.611113	69.000000	41.000000
228.611113	228.733154	75.000000	42.000000
228.611113	228.733154	81.000000	50.000000
228.611113	228.733154	70.000000	44.000000
228.733154	228.855194	84.000000	42.000000
228.733154	228.855194	72.000000	44.000000
228.855194	229.107872	86.000000	53.000000
228.855194	229.107872	74.000000	45.000000
228.855194	229.107872	82.000000	53.000000
228.855194	229.107872	70.000000	50.000000
229.613214	229.865891	74.000000	39.000000
229.613214	229.865891	82.000000	47.000000
229.613214	229.865891	86.000000	47.000000
229.613214	229.865891	65.000000	33.000000
229.613214	229.865891	70.000000	39.000000
230.371233	230.628042	74.000000	38.000000
230.371233	230.628042	82.000000	45.000000
230.371233	230.628042	86.000000	45.000000
230.371233	230.628042	62.000000	31.000000
230.371233	230.628042	65.000000	31.000000
230.371233	230.628042	70.000000	37.000000
231.141658	232.168878	74.000000	34.000000
231.141658	232.168878	82.000000	41.000000
231.141658	232.168878	86.000000	41.000000
231.141658	232.168878	58.000000	31.000000
231.141658	232.168878	65.000000	31.000000
231.141658	232.168878	70.000000	37.000000
