OnsetTime	OffsetTime	MidiPitch	Velocity
0.500004	0.810899	53	42
0.500004	0.810899	60	42
0.500004	0.810899	65	42
0.500004	0.779075	69	46
0.500004	0.810899	77	56
0.779075	0.960902	64	37
0.779075	1.05182	69	46
0.779075	0.960902	76	50
0.869988	1.06765	65	35
0.869988	1.06765	77	47
0.960902	1.06765	64	35
0.960902	1.06765	76	47
1.05182	1.37483	62	37
1.05182	1.32775	69	33
1.05182	1.37483	74	50
1.18756	1.37483	64	35
1.18756	1.37483	76	47
1.32775	1.58301	65	40
1.32775	1.60863	69	34
1.32775	1.58301	77	53
1.46229	1.60863	62	36
1.46229	1.60863	74	49
1.60863	1.71577	64	38
1.60863	1.71577	69	43
1.60863	1.71577	76	51
1.89434	2.00356	60	32
1.89434	2.00356	69	38
1.89434	2.00356	72	44
2.1856	2.49649	53	42
2.1856	2.49649	60	42
2.1856	2.49649	65	42
2.1856	2.46467	69	46
2.1856	2.49649	77	56
2.46467	2.6465	64	37
2.46467	2.73741	69	46
2.46467	2.6465	76	50
2.55558	2.75325	65	35
2.55558	2.75325	77	47
2.6465	2.75325	64	35
2.6465	2.75325	76	47
2.73741	3.06043	62	37
2.73741	3.01334	69	32
2.73741	3.06043	74	50
2.87316	3.06043	64	35
2.87316	3.06043	76	47
3.01334	3.26803	65	40
3.01334	3.29351	69	33
3.01334	3.26803	77	53
3.14788	3.29351	62	36
3.14788	3.29351	74	49
3.29351	3.40065	64	38
3.29351	3.40065	69	43
3.29351	3.40065	76	51
3.57922	3.68844	60	32
3.57922	3.68844	69	38
3.57922	3.68844	72	44
3.87048	4.13891	62	44
3.87048	4.14697	69	43
3.87048	4.13891	74	58
4.00872	4.14697	64	39
4.00872	4.14697	76	52
4.14697	4.39938	60	36
4.14697	4.39938	69	38
4.14697	4.39938	72	54
4.43544	4.71133	62	44
4.43544	4.71133	69	43
4.43544	4.71133	74	58
4.5718	4.71133	64	45
4.5718	4.71133	76	60
4.71133	4.95552	65	48
4.71133	4.95552	69	45
4.71133	4.95552	77	64
4.9904	5.25076	62	44
4.9904	5.2669	69	43
4.9904	5.25076	74	58
5.12864	5.2669	64	39
5.12864	5.2669	76	52
5.2669	5.52051	60	32
5.2669	5.52051	69	34
5.2669	5.52051	72	48
5.55675	5.83897	62	42
5.55675	5.83075	69	41
5.55675	5.83897	74	56
5.6925	5.83897	64	38
5.6925	5.83897	76	51
5.83075	6.08136	60	31
5.83075	6.08136	69	32
5.83075	6.08136	72	47
6.11795	6.39701	62	36
6.11795	6.39701	69	46
6.11795	6.39701	74	52
6.25748	6.39701	64	38
6.25748	6.39701	76	54
6.39701	6.68013	67	43
6.39701	6.68013	69	43
6.39701	6.68013	79	57
6.53589	6.68013	65	38
6.53589	6.68013	77	51
6.68013	6.93329	62	42
6.68013	6.96727	69	43
6.68013	6.93329	74	55
6.82164	6.96727	64	40
6.82164	6.96727	76	54
6.96727	7.25853	60	36
6.96727	7.25853	69	40
6.96727	7.25853	72	49
7.25853	7.56943	57	38
7.25853	7.56943	64	38
7.25853	7.56943	69	44
7.25853	7.5376	73	43
7.25853	7.56943	81	52
7.5376	7.71943	68	38
7.5376	7.81034	73	43
7.5376	7.71943	80	47
7.62852	7.82618	69	36
7.62852	7.82618	81	44
7.71943	7.82618	68	36
7.71943	7.82618	80	44
7.81034	8.13336	66	38
7.81034	8.08628	73	37
7.81034	8.13336	78	47
7.94609	8.13336	68	36
7.94609	8.13336	80	44
8.08628	8.33981	69	42
8.08628	8.36505	73	36
8.08628	8.33981	81	49
8.22082	8.36505	66	37
8.22082	8.36505	78	46
8.36505	8.47219	68	39
8.36505	8.47219	73	39
8.36505	8.47219	80	47
8.65076	8.75998	64	37
8.65076	8.75998	73	39
8.65076	8.75998	76	46
8.94202	9.25292	57	38
8.94202	9.25292	64	38
8.94202	9.25292	69	44
8.94202	9.22109	73	43
8.94202	9.25292	81	52
9.22109	9.40292	68	38
9.22109	9.49383	73	43
9.22109	9.40292	80	47
9.31201	9.50967	69	36
9.31201	9.50967	81	44
9.40292	9.50967	68	36
9.40292	9.50967	80	44
9.49383	9.81685	66	38
9.49383	9.76976	73	37
9.49383	9.81685	78	47
9.62958	9.81685	68	36
9.62958	9.81685	80	44
9.76976	10.0233	69	42
9.76976	10.0485	73	36
9.76976	10.0233	81	49
9.9043	10.0485	66	37
9.9043	10.0485	78	46
10.0485	10.1557	68	39
10.0485	10.1557	73	39
10.0485	10.1557	80	47
10.3342	10.4435	64	37
10.3342	10.4435	73	39
10.3342	10.4435	76	46
10.6255	10.8939	66	46
10.6255	10.902	73	45
10.6255	10.8939	78	54
10.7638	10.902	68	40
10.7638	10.902	80	48
10.902	11.1544	64	37
10.902	11.1544	73	40
10.902	11.1544	76	50
11.1905	11.4664	66	46
11.1905	11.4664	73	45
11.1905	11.4664	78	54
11.3268	11.4664	68	47
11.3268	11.4664	80	56
11.4664	11.7696	69	50
11.4664	11.7454	73	47
11.4664	11.7696	81	59
11.7454	12.0058	66	46
11.7454	12.0219	73	45
11.7454	12.0058	78	54
11.8837	12.0219	68	40
11.8837	12.0219	80	48
12.0219	12.2755	64	33
12.0219	12.2755	73	36
12.0219	12.2755	76	45
12.3118	12.594	66	44
12.3118	12.5858	73	43
12.3118	12.594	78	52
12.4475	12.594	68	39
12.4475	12.594	80	47
12.5858	12.8811	64	32
12.5858	12.873	73	34
12.5858	12.8811	76	44
12.873	13.152	66	37
12.873	13.152	73	48
12.873	13.152	78	48
13.0125	13.152	68	39
13.0125	13.152	80	50
13.152	13.4352	71	45
13.152	13.4352	73	45
13.152	13.4352	83	53
13.2909	13.4352	69	39
13.2909	13.4352	81	47
13.4352	13.6883	66	44
13.4352	13.7223	73	45
13.4352	13.6883	78	51
13.5767	13.7223	68	42
13.5767	13.7223	80	50
13.7223	14.0136	64	37
13.7223	14.0136	73	42
13.7223	14.0136	76	46
14.0136	14.3245	48	55
14.0136	14.2926	55	62
14.0136	14.2926	76	56
14.0136	14.3245	84	84
14.2926	14.5812	43	50
14.2926	14.5654	55	56
14.2926	14.5654	76	56
14.2926	14.4744	83	76
14.3835	14.5812	84	66
14.4744	14.5812	83	66
14.5654	14.8884	48	43
14.5654	14.8413	55	49
14.5654	14.8884	76	41
14.5654	14.8884	81	72
14.7011	14.8884	83	66
14.8413	15.0926	50	55
14.8413	15.0926	55	62
14.8413	15.1173	77	42
14.8413	15.0926	84	76
14.9758	15.1173	81	67
15.1173	15.2245	43	50
15.1173	15.2245	55	56
15.1173	15.2245	77	51
15.1173	15.2245	83	77
15.4031	15.515	50	50
15.4031	15.515	55	56
15.4031	15.515	77	51
15.4031	15.515	79	73
15.7016	16.0124	48	55
15.7016	15.9806	55	62
15.7016	15.9806	76	56
15.7016	16.0124	84	84
15.9806	16.2692	43	50
15.9806	16.2534	55	56
15.9806	16.2534	76	56
15.9806	16.1624	83	76
16.0715	16.2692	84	67
16.1624	16.2692	83	67
16.2534	16.5764	48	42
16.2534	16.5293	55	49
16.2534	16.5764	76	41
16.2534	16.5764	81	73
16.3891	16.5764	83	68
16.5293	16.7806	50	55
16.5293	16.7806	55	62
16.5293	16.8053	77	40
16.5293	16.7806	84	77
16.6638	16.8053	81	67
16.8053	16.9125	43	50
16.8053	16.9125	55	56
16.8053	16.9125	77	51
16.8053	16.9125	83	77
17.091	17.2003	50	50
17.091	17.2003	55	56
17.091	17.2003	77	51
17.091	17.2003	79	73
17.3823	17.6736	48	45
17.3823	17.5279	55	48
17.3823	17.5279	60	54
17.3823	17.5279	64	61
17.5279	17.6736	56	45
17.5279	17.6736	62	51
17.5279	17.6736	65	57
17.6736	17.9648	58	49
17.6736	17.9648	64	55
17.6736	17.9648	67	62
17.9648	18.107	58	45
17.9648	18.107	64	51
17.9648	18.107	67	57
18.107	18.2493	56	45
18.107	18.2493	62	51
18.107	18.2493	65	57
18.2493	18.3922	55	43
18.2493	18.3922	60	48
18.2493	18.3922	64	54
18.3922	18.5347	56	43
18.3922	18.5347	62	48
18.3922	18.5347	65	54
18.5347	18.6769	58	44
18.5347	18.6769	64	49
18.5347	18.6769	67	55
18.6769	18.819	60	45
18.6769	18.819	65	51
18.6769	18.819	68	57
18.819	18.9599	61	46
18.819	18.9599	67	52
18.819	18.9599	70	58
18.9599	19.1007	63	48
18.9599	19.1007	68	54
18.9599	19.1007	72	60
19.1007	19.2485	61	47
19.1007	19.2485	67	53
19.1007	19.2485	70	59
19.2485	19.3894	65	49
19.2485	19.3894	70	55
19.2485	19.3894	73	62
19.3894	19.5302	64	49
19.3894	19.5302	68	55
19.3894	19.5302	72	62
19.5302	19.6711	60	45
19.5302	19.6711	65	51
19.5302	19.6711	68	57
19.6711	19.8119	61	48
19.6711	19.8119	67	54
19.6711	19.8119	70	60
19.8119	19.9527	58	45
19.8119	19.9527	64	51
19.8119	19.9527	67	57
19.9527	20.0943	56	45
19.9527	20.0943	60	51
19.9527	20.0943	65	57
20.0943	20.2406	58	40
20.0943	20.2406	61	45
20.0943	20.2406	67	51
20.2406	20.3828	55	44
20.2406	20.3828	58	49
20.2406	20.3828	64	55
20.3828	20.5298	56	40
20.3828	20.5298	60	45
20.3828	20.5298	65	50
20.5298	20.6741	53	42
20.5298	20.6741	56	47
20.5298	20.6741	61	53
20.6741	20.8455	55	40
20.6741	20.8455	58	45
20.6741	20.8455	63	50
20.8455	21.1564	48	55
20.8455	21.1246	55	62
20.8455	21.1246	76	56
20.8455	21.1564	84	84
21.1246	21.4131	43	50
21.1246	21.3973	55	56
21.1246	21.3973	76	56
21.1246	21.3064	83	76
21.2155	21.4131	84	66
21.3064	21.4131	83	66
21.3973	21.7203	48	43
21.3973	21.6732	55	48
21.3973	21.7203	76	42
21.3973	21.7203	81	73
21.533	21.7203	83	69
21.6732	21.9239	50	55
21.6732	21.9239	55	62
21.6732	21.9486	77	41
21.6732	21.9239	84	75
21.8078	21.9486	81	66
21.9486	22.0557	43	50
21.9486	22.0557	55	56
21.9486	22.0557	77	51
21.9486	22.0557	83	77
22.2343	22.3435	50	50
22.2343	22.3435	55	56
22.2343	22.3435	77	51
22.2343	22.3435	79	73
22.5256	22.8365	48	55
22.5256	22.8046	55	62
22.5256	22.8046	76	56
22.5256	22.8365	84	84
22.8046	23.0932	43	50
22.8046	23.0774	55	56
22.8046	23.0774	76	56
22.8046	22.9865	83	76
22.8956	23.0932	84	67
22.9865	23.0932	83	67
23.0774	23.4004	48	41
23.0774	23.3533	55	49
23.0774	23.4004	76	39
23.0774	23.4004	81	72
23.2131	23.4004	83	68
23.3533	23.6035	50	55
23.3533	23.6035	55	62
23.3533	23.628	77	41
23.3533	23.6035	84	75
23.4878	23.628	81	65
23.628	23.7352	43	50
23.628	23.7352	55	56
23.628	23.7352	77	51
23.628	23.7352	83	77
23.9137	24.023	50	50
23.9137	24.023	55	56
23.9137	24.023	77	51
23.9137	24.023	79	73
24.205	24.505	60	40
24.205	24.355	67	43
24.205	24.355	72	48
24.205	24.355	76	54
24.355	24.505	68	40
24.355	24.505	74	45
24.355	24.505	77	51
24.505	24.805	70	44
24.505	24.805	76	49
24.505	24.805	79	55
24.805	24.9472	70	40
24.805	24.9472	76	45
24.805	24.9472	79	51
24.9472	25.0895	68	40
24.9472	25.0895	74	45
24.9472	25.0895	77	51
25.0895	25.2323	67	38
25.0895	25.2323	72	43
25.0895	25.2323	76	48
25.2323	25.3749	68	38
25.2323	25.3749	74	43
25.2323	25.3749	77	48
25.3749	25.517	70	39
25.3749	25.517	76	44
25.3749	25.517	79	49
25.517	25.6592	72	40
25.517	25.6592	77	45
25.517	25.6592	80	51
25.6592	25.8001	73	41
25.6592	25.8001	79	46
25.6592	25.8001	82	52
25.8001	25.9409	75	43
25.8001	25.9409	80	48
25.8001	25.9409	84	53
25.9409	26.0887	73	42
25.9409	26.0887	79	47
25.9409	26.0887	82	52
26.0887	26.2295	77	44
26.0887	26.2295	82	49
26.0887	26.2295	85	55
26.2295	26.3704	76	44
26.2295	26.3704	80	49
26.2295	26.3704	84	55
26.3704	26.5112	72	40
26.3704	26.5112	77	45
26.3704	26.5112	80	51
26.5112	26.6521	73	43
26.5112	26.6521	79	48
26.5112	26.6521	82	53
26.6521	26.7929	70	40
26.6521	26.7929	76	45
26.6521	26.7929	79	51
26.7929	26.9344	68	40
26.7929	26.9344	72	45
26.7929	26.9344	77	51
26.9344	27.0808	70	36
26.9344	27.0808	73	40
26.9344	27.0808	79	45
27.0808	27.223	67	39
27.0808	27.223	70	44
27.0808	27.223	76	49
27.223	27.37	68	36
27.223	27.37	72	40
27.223	27.37	77	44
27.37	27.5142	65	37
27.37	27.5142	68	42
27.37	27.5142	73	47
27.5142	27.6857	67	36
27.5142	27.6857	70	40
27.5142	27.6857	75	44
27.6857	27.9966	60	45
27.6857	27.9647	64	45
27.6857	27.9966	72	67
27.9647	28.2375	64	45
27.9647	28.1465	71	60
27.9647	28.2533	79	65
28.0556	28.2533	72	54
28.1465	28.2533	71	54
28.2375	28.5605	55	41
28.2375	28.5605	64	33
28.2375	28.5605	69	60
28.3732	28.5605	71	56
28.5134	28.7636	62	45
28.5134	28.7881	65	33
28.5134	28.7636	72	59
28.6479	28.7881	69	58
28.7881	28.8953	65	41
28.7881	28.8953	71	61
28.7881	28.8953	79	65
29.0738	29.183	55	41
29.0738	29.183	65	41
29.0738	29.183	67	58
29.3651	29.676	60	45
29.3651	29.6441	64	45
29.3651	29.676	72	67
29.6441	29.9169	64	45
29.6441	29.826	71	60
29.6441	29.9327	79	64
29.7351	29.9327	72	56
29.826	29.9327	71	52
29.9169	30.2399	55	41
29.9169	30.2399	64	30
29.9169	30.2399	69	60
30.0526	30.2399	71	56
30.1928	30.443	62	45
30.1928	30.4675	65	32
30.1928	30.443	72	59
30.3273	30.4675	69	58
30.4675	30.5747	65	41
30.4675	30.5747	71	61
30.4675	30.5747	79	65
30.7532	30.8625	55	41
30.7532	30.8625	65	41
30.7532	30.8625	67	58
31.0445	31.3236	60	43
31.0445	31.3554	64	45
31.0445	31.3236	67	45
31.0445	31.3554	72	67
31.3236	31.5963	60	41
31.3236	31.6121	65	50
31.3236	31.5963	67	43
31.3236	31.6121	70	45
31.3236	31.5054	74	60
31.4145	31.6121	76	53
31.5054	31.6121	74	53
31.5963	31.7321	60	36
31.5963	31.7321	64	38
31.5963	31.6981	67	57
31.5963	31.6981	72	57
31.8722	32.145	72	45
31.8722	32.1608	77	55
31.8722	32.145	79	47
31.8722	32.1608	82	49
31.8722	32.0541	86	66
31.9632	32.1608	88	58
32.0541	32.1608	86	58
32.145	32.2807	72	39
32.145	32.2807	76	41
32.145	32.2468	79	62
32.145	32.2468	84	62
32.4209	32.6937	84	45
32.4209	32.71	89	55
32.4209	32.6937	91	47
32.4209	32.71	94	49
32.4209	32.6027	98	66
32.5118	32.71	100	58
32.6027	32.71	98	58
32.6937	32.8338	84	40
32.6937	32.8338	88	43
32.6937	32.7988	91	65
32.6937	32.7988	96	65
32.974	33.2468	72	51
32.974	33.2635	77	63
32.974	33.2468	79	53
32.974	33.2635	82	55
32.974	33.1559	86	75
33.0649	33.2635	88	66
33.1559	33.2635	86	66
33.2468	33.3903	72	44
33.2468	33.3903	76	47
33.2468	33.3544	79	71
33.2468	33.3544	84	71
33.5339	33.8129	60	58
33.5339	33.8305	65	72
33.5339	33.8129	67	60
33.5339	33.8305	70	62
33.5339	33.7199	74	85
33.6269	33.8305	76	73
33.7199	33.8305	74	69
33.8129	33.9637	60	50
33.8129	33.9637	64	53
33.8129	33.926	67	81
33.8129	33.926	72	81
34.1144	34.3709	36	61
34.1144	34.3709	48	61
34.1144	34.4253	72	88
34.1144	34.4253	76	88
34.1144	34.4253	82	88
34.1144	34.4253	84	88
34.4253	34.7362	53	64
34.4253	34.7362	60	64
34.4253	34.7362	65	64
34.4253	34.7044	69	71
34.4253	34.7362	77	87
34.7044	34.8862	64	57
34.7044	34.9771	69	71
34.7044	34.8862	76	78
34.7953	34.9933	65	50
34.7953	34.9933	77	69
34.8862	34.9933	64	50
34.8862	34.9933	76	69
34.9771	35.3014	62	57
34.9771	35.2543	69	54
34.9771	35.3014	74	74
35.1154	35.3014	64	53
35.1154	35.3014	76	71
35.2543	35.509	65	61
35.2543	35.5344	69	55
35.2543	35.509	77	76
35.3888	35.5344	62	56
35.3888	35.5344	74	72
35.5344	35.6431	64	59
35.5344	35.6431	69	67
35.5344	35.6431	76	79
35.8243	35.9335	60	50
35.8243	35.9335	69	60
35.8243	35.9335	72	68
36.1156	36.4264	53	61
36.1156	36.4264	60	61
36.1156	36.4264	65	61
36.1156	36.3946	69	68
36.1156	36.4264	77	83
36.3946	36.5764	64	55
36.3946	36.6674	69	68
36.3946	36.5764	76	75
36.4855	36.6836	65	50
36.4855	36.6836	77	69
36.5764	36.6836	64	50
36.5764	36.6836	76	69
36.6674	36.9929	62	55
36.6674	36.9458	69	54
36.6674	36.9929	74	75
36.8063	36.9929	64	50
36.8063	36.9929	76	69
36.9458	37.2011	65	56
36.9458	37.2267	69	51
36.9458	37.2011	77	77
37.0803	37.2267	62	54
37.0803	37.2267	74	70
37.2267	37.3354	64	57
37.2267	37.3354	69	64
37.2267	37.3354	76	76
37.5165	37.6257	60	49
37.5165	37.6257	69	57
37.5165	37.6257	72	64
37.8078	38.0762	62	54
37.8078	38.0843	69	53
37.8078	38.0762	74	78
37.946	38.0843	64	48
37.946	38.0843	76	72
38.0843	38.3367	60	45
38.0843	38.3367	69	43
38.0843	38.3367	72	76
38.3727	38.6486	62	48
38.3727	38.6486	69	51
38.3727	38.6486	74	72
38.5091	38.6486	64	51
38.5091	38.6486	76	73
38.6486	38.968	65	55
38.6486	38.9277	69	53
38.6486	38.968	77	77
38.9277	39.1881	62	54
38.9277	39.2042	69	53
38.9277	39.1881	74	78
39.0659	39.2042	64	48
39.0659	39.2042	76	72
39.2042	39.4941	60	42
39.2042	39.4941	69	43
39.2042	39.4941	72	73
39.4941	39.7763	62	51
39.4941	39.7681	69	45
39.4941	39.7763	74	79
39.6298	39.7763	64	48
39.6298	39.7763	76	71
39.7681	40.0797	60	39
39.7681	40.0553	69	40
39.7681	40.0797	72	72
40.0553	40.3748	62	43
40.0553	40.3343	69	50
40.0553	40.3748	74	71
40.1948	40.3748	64	44
40.1948	40.3748	76	73
40.3343	40.6175	67	48
40.3343	40.9046	69	53
40.3343	40.6175	79	78
40.4732	40.6175	65	44
40.4732	40.6175	77	71
40.6175	40.8706	62	49
40.6175	40.8706	74	77
40.759	40.9046	64	46
40.759	40.9046	76	72
40.9046	41.1959	60	46
40.9046	41.1959	72	68
41.1959	41.5068	56	61
41.1959	41.5068	63	61
41.1959	41.5068	68	61
41.1959	41.4749	72	68
41.1959	41.5068	80	83
41.4749	41.6568	67	55
41.4749	41.7477	72	68
41.4749	41.6568	79	75
41.5658	41.7638	68	50
41.5658	41.7638	80	67
41.6568	41.7638	67	50
41.6568	41.7638	79	67
41.7477	42.0732	65	55
41.7477	42.0261	72	57
41.7477	42.0732	77	75
41.8859	42.0732	67	50
41.8859	42.0732	79	69
42.0261	42.2758	68	59
42.0261	42.3002	72	54
42.0261	42.2758	80	79
42.1607	42.3002	65	54
42.1607	42.3002	77	72
42.3002	42.4089	67	57
42.3002	42.4089	73	64
42.3002	42.4089	79	76
42.59	42.6993	63	54
42.59	42.6993	73	64
42.59	42.6993	75	72
42.8813	43.1922	56	61
42.8813	43.1922	63	61
42.8813	43.1922	68	61
42.8813	43.1604	72	68
42.8813	43.1922	80	83
43.1604	43.3422	67	55
43.1604	43.4331	72	68
43.1604	43.3422	79	75
43.2513	43.4494	68	50
43.2513	43.4494	80	67
43.3422	43.4494	67	50
43.3422	43.4494	79	69
43.4331	43.7626	65	55
43.4331	43.7155	72	58
43.4331	43.7626	77	75
43.5727	43.7626	67	50
43.5727	43.7626	79	69
43.7155	43.9646	68	59
43.7155	43.9889	72	53
43.7155	43.9646	80	79
43.8501	43.9889	65	54
43.8501	43.9889	77	72
43.9889	44.0976	67	57
43.9889	44.0976	73	64
43.9889	44.0976	79	76
44.2788	44.388	63	54
44.2788	44.388	73	64
44.2788	44.388	75	72
44.5701	44.8465	56	44
44.5701	44.8385	65	54
44.5701	44.8465	72	53
44.5701	44.8385	77	78
44.7083	44.8465	67	48
44.7083	44.8465	79	72
44.8465	45.1748	63	45
44.8465	45.135	72	43
44.8465	45.1748	75	76
45.135	45.4109	65	48
45.135	45.4109	72	51
45.135	45.4109	77	72
45.2714	45.4109	67	51
45.2714	45.4109	79	73
45.4109	45.7061	68	55
45.4109	45.69	72	53
45.4109	45.7061	80	77
45.69	45.9503	65	54
45.69	45.9665	72	53
45.69	45.9503	77	78
45.8282	45.9665	67	48
45.8282	45.9665	79	72
45.9665	46.2201	63	42
45.9665	46.2201	72	40
45.9665	46.2201	75	72
46.2563	46.5385	56	41
46.2563	46.5385	65	51
46.2563	46.5303	72	45
46.2563	46.5385	77	79
46.3921	46.5385	67	48
46.3921	46.5385	79	71
46.5303	46.8338	63	40
46.5303	46.8175	72	37
46.5303	46.8338	75	71
46.8175	47.0966	65	43
46.8175	47.0966	72	50
46.8175	47.0966	77	71
46.957	47.0966	67	44
46.957	47.0966	79	73
47.0966	47.3797	70	48
47.0966	47.3797	72	53
47.0966	47.3797	82	78
47.2355	47.3797	68	44
47.2355	47.3797	80	71
47.3797	47.6329	65	49
47.3797	47.6668	72	49
47.3797	47.6329	77	77
47.5212	47.6668	67	46
47.5212	47.6668	79	72
47.6668	47.9581	63	46
47.6668	47.9581	72	44
47.6668	47.9581	75	68
47.9581	48.8961	36	92
48.2627	48.8961	58	53
48.2627	48.8961	61	60
48.2627	48.8961	65	68
48.3877	48.8961	53	58
48.5247	48.8961	60	53
48.8145	48.94	70	60
48.8145	48.94	73	60
48.8145	48.94	77	68
48.94	49.481	65	57
49.0764	49.481	72	54
49.3555	49.481	79	60
49.3555	49.481	82	60
49.3555	49.481	85	68
49.481	49.6906	77	61
49.6167	49.7645	84	55
49.9123	49.9808	67	51
49.9123	49.9808	73	56
49.9123	49.9808	77	67
49.9123	49.9808	82	75
50.0493	50.1178	67	51
50.0493	50.1178	73	56
50.0493	50.1178	77	67
50.0493	50.1178	82	75
50.1863	50.3271	79	63
50.1863	50.3271	82	72
50.1863	50.3271	89	80
50.468	50.6122	67	45
50.468	50.6122	73	52
50.468	50.6122	77	69
50.468	50.6122	82	77
50.7564	50.9007	79	54
50.7564	50.9007	82	72
50.7564	50.9007	89	81
51.0449	51.1891	67	45
51.0449	51.1891	73	52
51.0449	51.1891	77	70
51.0449	51.1891	82	78
51.3334	52.2627	36	92
51.6411	52.2627	58	60
51.6411	52.2627	61	60
51.6411	52.2627	65	68
51.7661	52.2627	53	56
51.9024	52.2627	60	54
52.1815	52.7582	70	60
52.1815	52.7582	73	60
52.1815	52.7582	77	68
52.3065	52.7582	65	57
52.4429	52.7582	72	54
52.7219	53.0345	79	60
52.7219	53.0345	82	60
52.7219	53.0345	85	68
52.8464	53.0345	77	57
52.9827	53.1305	84	54
53.2783	53.3468	67	51
53.2783	53.3468	73	56
53.2783	53.3468	77	67
53.2783	53.3468	82	75
53.4153	53.4838	67	51
53.4153	53.4838	73	56
53.4153	53.4838	77	67
53.4153	53.4838	82	75
53.5523	53.6931	79	63
53.5523	53.6931	82	72
53.5523	53.6931	89	80
53.834	53.9782	67	45
53.834	53.9782	73	52
53.834	53.9782	77	69
53.834	53.9782	82	77
54.1224	54.2667	79	54
54.1224	54.2667	82	72
54.1224	54.2667	89	81
54.4109	54.5551	67	45
54.4109	54.5551	73	52
54.4109	54.5551	77	70
54.4109	54.5551	82	78
54.6994	56.3874	72	44
54.6994	55.0103	79	58
54.6994	55.2512	84	63
54.6994	55.0103	88	75
54.9785	55.1603	77	52
54.9785	55.1603	86	70
55.0694	55.267	79	48
55.0694	55.267	88	65
55.1603	55.267	77	48
55.1603	55.267	86	65
55.2512	55.5744	76	52
55.2512	55.6623	84	70
55.3869	55.5744	77	48
55.3869	55.5744	86	65
55.5271	55.8312	79	56
55.5271	55.8312	88	74
55.6623	55.8312	76	46
55.6623	55.8312	84	64
55.8038	56.0895	77	50
55.8038	56.0895	80	48
55.8038	56.0895	85	68
55.9467	56.1101	76	45
55.9467	56.1101	84	62
56.0895	56.3874	77	49
56.0895	56.2351	80	52
56.0895	56.3874	85	67
56.2351	56.3874	80	45
56.2351	56.3874	89	62
56.3874	58.0688	72	44
56.3874	56.6983	79	58
56.3874	56.9392	84	63
56.3874	56.6983	88	75
56.6665	56.8483	77	52
56.6665	56.8483	86	70
56.7574	56.9551	79	48
56.7574	56.9551	88	65
56.8483	56.9551	77	48
56.8483	56.9551	86	65
56.9392	57.2625	76	52
56.9392	57.3503	84	70
57.075	57.2625	77	48
57.075	57.2625	86	65
57.2152	57.5121	79	56
57.2152	57.5121	88	74
57.3503	57.5121	76	46
57.3503	57.5121	84	64
57.4918	57.7775	77	50
57.4918	57.7775	80	51
57.4918	57.7775	85	68
57.6347	57.8054	76	45
57.6347	57.8054	84	62
57.7775	58.0851	77	49
57.7775	57.9232	80	49
57.7775	58.0851	85	67
57.9232	58.0851	80	45
57.9232	58.0851	89	62
58.0688	58.8965	60	44
58.0688	58.3797	67	58
58.0688	58.6206	72	63
58.0688	58.3797	76	75
58.3479	58.5297	65	52
58.3479	58.5297	74	70
58.4388	58.6364	67	48
58.4388	58.6364	76	65
58.5297	58.6364	65	48
58.5297	58.6364	74	65
58.6206	58.6885	64	52
58.6206	58.6885	72	70
58.7563	58.8264	65	48
58.7563	58.8264	74	65
58.8965	58.9657	67	46
58.8965	58.9657	76	66
59.0347	59.1035	68	48
59.0347	59.1035	77	67
59.1721	59.2405	70	50
59.1721	59.2405	79	69
59.3087	59.3766	72	52
59.3087	59.3766	80	71
59.4451	59.5142	73	54
59.4451	59.5142	82	73
59.584	59.6566	75	55
59.584	59.6566	84	74
59.7339	59.9133	73	54
59.7339	59.9133	82	72
59.8236	60.009	75	51
59.8236	60.009	84	68
59.9133	60.009	73	51
59.9133	60.009	82	68
60.009	60.1876	72	53
60.009	60.1876	80	70
60.0983	60.2571	73	49
60.0983	60.2571	82	65
60.1876	60.2819	72	52
60.1876	60.2819	80	69
60.2819	60.4621	70	51
60.2819	60.4621	79	68
60.372	60.5569	72	49
60.372	60.5569	80	65
60.4621	60.5569	70	48
60.4621	60.5569	79	64
60.5569	60.7384	68	50
60.5569	60.7384	77	66
60.6474	60.8434	70	45
60.6474	60.8434	79	61
60.7384	60.8434	68	45
60.7384	60.8434	77	61
60.835	61.021	67	48
60.835	61.021	75	64
60.9283	61.1035	68	45
60.9283	61.1035	77	60
61.021	61.121	67	45
61.021	61.121	75	60
61.121	61.3093	65	46
61.121	61.3093	73	62
61.2149	61.3653	67	43
61.2149	61.3653	75	57
61.3093	61.4409	65	43
61.3093	61.4409	73	57
61.4409	62.3019	36	77
61.7502	62.3019	70	51
61.7502	62.3019	73	51
61.7502	62.3019	77	57
61.8757	62.3019	67	53
62.0121	62.3019	72	50
62.3019	62.8811	82	51
62.3019	62.8811	85	51
62.3019	62.8811	89	57
62.4269	62.8811	79	52
62.5633	62.8811	84	52
62.8518	63.1919	70	51
62.8518	63.1919	73	51
62.8518	63.1919	77	57
62.9773	63.1919	67	53
63.1137	63.2539	72	51
63.394	63.4625	67	46
63.394	63.4625	73	52
63.394	63.4625	77	61
63.394	63.4625	82	69
63.531	63.5995	67	46
63.531	63.5995	73	52
63.531	63.5995	77	61
63.531	63.5995	82	69
63.668	63.8088	79	57
63.668	63.8088	82	66
63.668	63.8088	89	73
63.9497	64.0939	67	42
63.9497	64.0939	73	47
63.9497	64.0939	77	63
63.9497	64.0939	82	70
64.2382	64.3824	79	49
64.2382	64.3824	82	66
64.2382	64.3824	89	74
64.5266	64.6751	67	42
64.5266	64.6751	73	47
64.5266	64.6751	77	64
64.5266	64.6751	82	71
64.8237	65.6922	36	73
65.1267	65.6922	70	48
65.1267	65.6922	73	48
65.1267	65.6922	77	53
65.2566	65.6922	67	51
65.3981	65.6922	72	45
65.6922	66.2236	82	46
65.6922	66.2236	85	46
65.6922	66.2236	89	52
65.8221	66.2236	79	49
65.9629	66.2236	84	46
66.2486	66.6685	70	45
66.2486	66.6685	73	45
66.2486	66.6685	77	51
66.3785	66.6685	67	46
66.52	66.6685	72	44
66.817	66.8855	55	41
66.817	66.8855	61	46
66.817	66.8855	65	54
66.817	66.8855	70	62
66.954	67.0225	55	41
66.954	67.0225	61	45
66.954	67.0225	65	54
66.954	67.0225	70	61
67.091	67.2318	67	50
67.091	67.2318	70	58
67.091	67.2318	77	64
67.3727	67.5169	55	36
67.3727	67.5169	61	41
67.3727	67.5169	65	55
67.3727	67.5169	70	61
67.6611	67.8054	67	42
67.6611	67.8054	70	57
67.6611	67.8054	77	64
67.9496	68.096	55	36
67.9496	68.096	61	40
67.9496	68.096	65	55
67.9496	68.096	70	61
68.2423	70.192	48	56
68.5267	69.1152	70	45
68.5267	69.1152	73	45
68.5267	69.1152	77	50
68.6624	69.2668	67	50
68.8059	69.4255	72	38
69.1152	69.7826	70	41
69.1152	69.7826	73	41
69.1152	69.7826	77	44
69.2668	69.9531	67	44
69.4255	70.1406	72	34
69.7826	70.192	70	36
69.7826	70.192	73	36
69.7826	70.192	77	40
69.9531	70.192	67	39
70.1406	70.3171	72	32
70.4935	70.6357	48	38
70.6357	70.7784	48	38
70.7784	70.9218	48	38
70.9218	71.0658	48	38
71.0658	71.2103	48	37
71.2103	71.3555	48	37
71.3555	71.5014	48	37
71.5014	71.6478	48	36
71.6478	71.7949	48	36
71.7949	71.9427	48	36
71.9427	73.027	48	36
73.027	74.2824	36	49
73.027	73.4503	70	59
73.027	73.4503	74	59
73.4503	73.6511	70	56
73.4503	73.6511	74	56
73.6511	74.1571	70	56
73.6511	74.1571	74	56
73.859	75.5659	76	59
73.859	75.5659	79	59
74.2824	75.5659	48	47
74.6957	75.5659	72	37
75.1213	75.5659	60	37
75.3436	75.5659	74	54
75.3436	75.5659	77	54
75.5659	76.8439	41	46
75.5659	75.9841	72	45
75.5659	75.8447	76	45
75.7053	75.9109	77	45
75.8447	75.9841	76	45
75.9841	76.4023	69	45
75.9841	76.4023	72	51
76.4023	76.6136	69	43
76.6136	76.8439	65	27
76.6136	76.8439	69	27
76.6136	76.8439	72	33
76.8249	77.3064	64	41
77.0318	77.2387	65	25
77.0318	77.3064	69	25
77.0318	77.3064	72	29
77.2387	77.447	65	44
77.447	77.8731	65	27
77.447	77.8731	69	27
77.447	77.8731	72	33
77.6554	78.0894	60	41
77.8731	78.0894	65	22
77.8731	78.0894	69	22
77.8731	78.0894	72	27
78.0894	79.3389	37	51
78.0894	78.7106	77	59
78.0894	79.3389	81	59
78.5107	79.3389	69	45
78.5107	79.3389	76	53
78.5107	79.3389	79	53
78.7106	78.9176	74	53
78.7106	78.9176	77	53
78.9176	79.3389	57	47
78.9176	79.9624	74	57
78.9176	80.6169	77	57
79.3389	80.6169	38	47
79.7504	80.6169	50	37
79.7504	80.3956	72	45
79.7504	80.3956	75	50
79.9624	80.1744	74	35
79.9624	80.6169	78	39
80.1744	80.6169	66	38
80.1744	80.6169	70	45
80.1744	80.6169	74	50
80.3956	80.6169	72	37
80.3956	80.6169	75	42
80.6169	81.4524	43	46
80.6169	81.0333	69	45
80.6169	80.8945	72	45
80.7557	80.9604	74	45
80.8945	81.0333	72	45
81.0333	81.4524	67	46
81.0333	81.4524	70	51
81.4524	81.9206	66	43
81.6606	81.9206	62	27
81.6606	81.9206	67	27
81.6606	81.9206	70	33
81.8687	82.3495	61	41
82.076	82.3495	62	25
82.076	82.3495	67	25
82.076	82.3495	70	29
82.2833	82.721	63	44
82.4869	82.6905	62	27
82.4869	82.721	67	27
82.4869	82.721	70	33
82.6905	82.9056	62	41
82.9056	83.1381	62	22
82.9056	83.1381	67	22
82.9056	83.1381	70	27
83.1381	84.41	36	52
83.1381	83.5614	70	64
83.1381	83.5614	74	64
83.5614	83.7662	70	61
83.5614	83.7662	74	61
83.7662	84.41	70	61
83.7662	84.41	74	61
83.9799	85.7687	76	64
83.9799	85.7687	79	64
84.41	85.7687	48	51
84.8569	85.7687	72	40
85.3038	85.7687	60	38
85.5362	85.7687	74	54
85.5362	85.7687	77	54
85.7687	87.0571	41	46
85.7687	86.187	72	45
85.7687	86.0475	76	45
85.9081	86.1138	77	45
86.0475	86.187	76	45
86.187	86.6211	69	41
86.187	86.6211	72	46
86.6211	86.8296	69	43
86.8296	87.0571	65	27
86.8296	87.0571	69	27
86.8296	87.0571	72	33
87.0381	87.5189	64	41
87.2454	87.4527	65	25
87.2454	87.5189	69	25
87.2454	87.5189	72	29
87.4527	87.6563	65	44
87.6563	88.0777	65	27
87.6563	88.0777	69	27
87.6563	88.0777	72	33
87.8599	88.1733	60	41
88.0777	88.1947	65	22
88.0777	88.1947	69	22
88.0777	88.1947	72	27
88.1947	88.3016	48	44
88.1947	88.3016	72	52
88.3016	89.4265	33	56
88.3016	88.9229	81	64
88.3016	89.4265	84	64
88.723	89.5512	40	49
88.723	89.4265	79	58
88.723	89.4265	82	58
88.9229	89.1298	77	58
88.9229	89.1298	81	58
89.1298	89.5512	77	62
89.1298	89.5512	81	62
89.5512	90.9915	48	51
89.5512	90.9786	76	58
89.5512	90.9786	79	58
89.7649	90.9915	74	58
89.7649	89.9913	77	58
89.9913	91.423	60	40
89.9913	90.9915	77	58
89.9913	90.9915	81	58
90.9786	91.2008	76	50
90.9786	91.423	79	50
91.2008	91.423	72	45
91.2008	91.423	76	45
91.423	91.8594	51	35
91.423	91.8397	70	45
91.423	91.8594	74	45
91.6313	91.8594	52	31
91.8397	92.2698	60	41
91.8397	92.2698	67	40
91.8397	92.1264	70	40
91.9831	92.2698	72	40
92.1264	92.2698	70	40
92.2698	92.7175	60	41
92.2698	92.7175	64	38
92.2698	92.7175	67	43
92.7175	93.2246	65	38
92.9349	93.1534	64	27
92.9349	93.2246	70	27
92.9349	93.2246	72	27
93.1534	93.3729	64	41
93.3729	93.625	64	31
93.3729	93.625	70	31
93.3729	93.625	72	31
93.5935	94.0482	62	38
93.8157	94.0482	64	25
93.8157	94.0482	70	25
93.8157	94.0482	72	25
94.0482	95.3036	36	49
94.0482	95.1783	67	59
94.0482	94.6724	70	59
94.4715	95.1783	69	56
94.4715	95.1783	72	56
94.6724	95.1783	70	56
94.6724	95.1783	74	56
94.8803	96.5871	76	59
94.8803	96.5871	79	59
95.3036	96.5871	48	47
95.7169	96.5871	72	37
96.1425	96.5871	60	37
96.3648	96.5871	74	54
96.3648	96.5871	77	54
96.5871	97.433	41	46
96.5871	97.0053	72	45
96.5871	96.8659	76	45
96.7265	97.0178	77	45
96.8659	97.0178	76	45
97.0053	97.433	69	41
97.0053	97.433	72	46
97.433	97.6473	69	43
97.6473	97.881	65	27
97.6473	97.881	69	27
97.6473	97.881	72	33
97.8616	98.3519	64	41
98.0729	98.2841	65	25
98.0729	98.3519	69	25
98.0729	98.3519	72	29
98.2841	98.4925	65	44
98.4925	98.9186	65	27
98.4925	98.9186	69	27
98.4925	98.9186	72	33
98.7008	99.1348	60	41
98.9186	99.1348	65	22
98.9186	99.1348	69	22
98.9186	99.1348	72	27
99.1348	100.384	37	51
99.1348	99.756	77	59
99.1348	100.384	81	59
99.5561	100.384	69	45
99.5561	100.384	76	53
99.5561	100.384	79	53
99.756	99.963	74	53
99.756	99.963	77	53
99.963	100.384	57	47
99.963	101.008	74	57
99.963	101.662	77	57
100.384	101.662	38	47
100.796	101.662	50	37
100.796	101.441	72	45
100.796	101.441	75	51
101.008	101.219	74	36
101.008	101.662	78	40
101.219	101.662	66	38
101.219	101.662	70	45
101.219	101.662	74	51
101.441	101.662	72	36
101.441	101.662	75	41
101.662	102.497	43	46
101.662	102.078	69	45
101.662	101.94	72	45
101.801	102.073	74	45
101.94	102.078	72	45
102.078	102.497	67	44
102.078	102.497	70	51
102.497	102.976	66	43
102.71	102.976	62	27
102.71	102.976	67	27
102.71	102.976	70	33
102.923	103.413	61	41
103.134	103.413	62	25
103.134	103.413	67	25
103.134	103.413	70	29
103.346	103.793	63	44
103.554	103.762	62	27
103.554	103.793	67	27
103.554	103.793	70	33
103.762	103.977	62	41
103.977	104.21	62	22
103.977	104.21	67	22
103.977	104.21	70	27
104.21	105.465	36	51
104.21	104.633	79	59
104.21	105.34	82	59
104.633	104.834	76	56
104.633	105.34	79	56
104.834	105.042	72	56
104.834	105.34	76	56
105.042	106.749	69	59
105.042	105.878	72	59
105.465	106.749	60	47
105.878	106.749	72	37
106.304	106.749	48	39
106.304	106.749	70	46
106.304	106.749	74	51
106.749	107.173	41	46
106.749	107.173	67	45
106.749	107.027	70	45
106.888	107.173	72	45
107.027	107.173	70	45
107.173	107.714	47	31
107.173	107.714	65	43
107.173	107.714	69	45
107.411	107.714	48	29
107.661	108.161	57	30
108.161	108.5	36	42
108.467	108.658	53	37
108.467	108.754	57	46
108.467	108.658	65	50
108.562	108.77	55	35
108.562	108.77	67	47
108.658	108.77	53	35
108.658	108.77	65	47
108.754	109.094	52	37
108.754	109.044	57	43
108.754	109.094	64	50
108.897	109.094	50	35
108.897	109.094	62	47
109.044	109.34	41	40
109.044	109.34	53	40
109.044	109.34	57	39
109.044	109.34	65	53
109.34	109.794	52	43
109.34	109.641	57	43
109.34	109.794	64	51
109.49	109.947	50	40
109.49	109.947	62	48
109.641	109.947	48	41
109.641	109.947	57	43
109.641	109.947	60	49
109.794	109.947	52	39
109.794	109.947	64	46
109.947	110.267	50	43
109.947	110.253	57	39
109.947	110.267	62	51
110.099	110.267	52	40
110.099	110.267	64	48
110.253	110.445	53	37
110.253	110.541	57	46
110.253	110.445	65	50
110.349	110.557	55	35
110.349	110.557	67	47
110.445	110.557	53	35
110.445	110.557	65	47
110.541	110.881	52	37
110.541	110.831	57	43
110.541	110.881	64	50
110.683	110.881	50	35
110.683	110.881	62	47
110.831	111.127	41	40
110.831	111.127	53	40
110.831	111.127	57	39
110.831	111.127	65	53
111.127	111.581	52	43
111.127	111.428	57	43
111.127	111.581	64	51
111.277	111.734	50	40
111.277	111.734	62	48
111.428	111.734	48	41
111.428	111.734	57	43
111.428	111.734	60	49
111.581	111.734	52	39
111.581	111.734	64	46
111.734	112.053	50	43
111.734	112.04	57	39
111.734	112.053	62	51
111.885	112.053	52	40
111.885	112.053	64	48
112.04	112.233	53	37
112.04	112.332	57	46
112.04	112.233	65	50
112.136	112.349	55	35
112.136	112.349	67	47
112.233	112.349	53	35
112.233	112.349	65	47
112.332	112.696	52	37
112.332	112.642	57	43
112.332	112.696	64	50
112.475	112.696	50	35
112.475	112.696	62	47
112.642	113.005	53	40
112.642	112.959	57	51
112.642	113.005	65	60
112.796	113.005	52	40
112.796	113.005	64	48
112.959	113.615	50	43
112.959	113.281	57	48
112.959	113.615	62	57
113.116	113.438	52	40
113.116	113.438	64	48
113.281	113.615	48	41
113.281	113.615	57	45
113.281	113.615	60	54
113.438	113.615	52	39
113.438	113.615	64	46
113.615	113.938	50	43
113.615	113.921	57	39
113.615	113.938	62	51
113.766	113.938	52	40
113.766	113.938	64	48
113.921	114.114	53	37
113.921	114.213	57	46
113.921	114.114	65	50
114.017	114.229	55	35
114.017	114.229	67	47
114.114	114.229	53	35
114.114	114.229	65	47
114.213	114.565	52	37
114.213	114.565	57	43
114.213	114.565	64	50
114.356	114.565	50	35
114.356	114.565	62	47
114.511	115.466	43	40
114.511	114.856	53	40
114.511	114.828	58	51
114.511	114.856	65	57
114.665	114.856	52	40
114.665	114.856	64	48
114.828	115.345	50	43
114.828	115.15	58	48
114.828	115.345	62	53
114.985	115.345	53	40
114.985	115.345	65	48
115.15	115.466	52	41
115.15	115.466	58	45
115.15	115.466	64	54
115.466	115.766	36	54
115.766	116.055	73	57
115.766	116.063	79	67
115.766	115.964	82	67
115.864	116.055	84	57
115.914	116.063	76	52
115.964	116.063	82	57
116.063	116.332	72	57
116.063	116.367	78	65
116.063	116.265	81	65
116.164	116.332	82	57
116.215	116.367	75	52
116.265	116.367	81	57
116.367	116.533	71	57
116.367	116.699	77	66
116.367	116.699	80	66
116.699	116.774	71	65
116.699	116.774	89	78
116.849	116.927	74	56
116.849	116.927	77	70
116.849	116.927	80	70
117.004	117.162	68	65
117.004	117.162	95	76
117.32	117.62	35	54
117.62	117.907	71	57
117.62	117.916	77	67
117.62	117.817	80	67
117.718	117.907	82	57
117.767	117.916	74	52
117.817	117.916	80	57
117.916	118.185	70	57
117.916	118.221	76	65
117.916	118.118	79	65
118.017	118.185	80	57
118.067	118.221	73	52
118.118	118.221	79	57
118.221	118.392	69	57
118.221	118.564	75	66
118.221	118.564	78	66
118.564	118.639	71	65
118.564	118.639	87	78
118.714	118.791	72	56
118.714	118.791	75	70
118.714	118.791	78	70
118.869	119.029	66	65
118.869	119.029	93	76
119.188	119.488	54	54
119.488	119.77	69	63
119.488	119.77	75	58
119.488	119.681	78	74
119.585	119.77	80	63
119.633	119.779	72	58
119.681	119.779	78	63
119.779	120.072	68	61
119.779	120.072	74	56
119.779	119.974	77	72
119.876	120.072	78	63
119.925	120.072	71	57
119.974	120.072	77	63
120.072	120.379	67	59
120.072	120.379	73	54
120.072	120.269	76	71
120.17	120.379	78	61
120.219	120.379	70	53
120.269	120.379	76	60
120.368	120.678	66	59
120.368	120.678	72	54
120.368	120.566	75	69
120.467	120.678	77	59
120.517	120.678	69	52
120.566	120.678	75	59
120.666	120.968	65	57
120.666	120.968	71	52
120.666	120.867	74	67
120.767	120.968	75	55
120.817	120.968	68	50
120.867	120.968	74	55
120.968	121.285	65	56
120.968	121.273	70	51
120.968	121.171	73	65
121.069	121.285	75	56
121.12	121.285	67	49
121.171	121.285	73	55
121.273	121.674	64	53
121.273	121.674	70	49
121.273	121.495	72	63
121.384	121.628	74	54
121.439	121.674	67	48
121.495	121.674	72	54
121.628	121.951	48	52
121.628	121.843	74	68
121.628	121.951	82	68
121.736	121.951	72	56
121.843	121.951	74	56
121.951	122.288	41	56
121.951	122.195	72	61
121.951	122.195	81	69
122.132	122.21	77	48
122.21	122.288	79	48
122.288	122.603	59	49
122.288	122.612	69	57
122.288	122.603	77	57
122.45	122.612	60	49
122.45	122.612	74	57
122.612	122.936	69	54
122.612	122.936	72	63
122.936	123.278	36	42
123.244	123.437	53	37
123.244	123.533	57	46
123.244	123.437	65	50
123.341	123.55	55	35
123.341	123.55	67	47
123.437	123.55	53	35
123.437	123.55	65	47
123.533	123.876	52	37
123.533	123.826	57	43
123.533	123.876	64	50
123.678	123.876	50	35
123.678	123.876	62	47
123.826	124.124	41	40
123.826	124.124	53	40
123.826	124.124	57	39
123.826	124.124	65	53
124.124	124.582	52	43
124.124	124.428	57	43
124.124	124.582	64	51
124.276	124.737	50	40
124.276	124.737	62	48
124.428	124.737	48	41
124.428	124.737	57	43
124.428	124.737	60	49
124.582	124.737	52	39
124.582	124.737	64	46
124.737	125.079	50	43
124.737	125.045	57	39
124.737	125.079	62	51
124.889	125.079	52	40
124.889	125.079	64	48
125.045	125.238	53	37
125.045	125.335	57	46
125.045	125.238	65	50
125.142	125.352	55	35
125.142	125.352	67	47
125.238	125.352	53	35
125.238	125.352	65	47
125.335	125.678	52	37
125.335	125.628	57	43
125.335	125.678	64	50
125.479	125.678	50	35
125.479	125.678	62	47
125.628	125.926	41	40
125.628	125.926	53	40
125.628	125.926	57	39
125.628	125.926	65	53
125.926	126.383	52	43
125.926	126.229	57	43
125.926	126.383	64	51
126.077	126.538	50	40
126.077	126.538	62	48
126.229	126.538	48	41
126.229	126.538	57	43
126.229	126.538	60	49
126.383	126.538	52	39
126.383	126.538	64	46
126.538	126.863	50	43
126.538	126.846	57	39
126.538	126.863	62	51
126.69	126.863	52	40
126.69	126.863	64	48
126.846	127.041	53	37
126.846	127.141	57	46
126.846	127.041	65	50
126.943	127.157	55	35
126.943	127.157	67	47
127.041	127.157	53	35
127.041	127.157	65	47
127.141	127.508	52	37
127.141	127.453	57	43
127.141	127.508	64	50
127.285	127.508	50	35
127.285	127.508	62	47
127.453	127.828	53	40
127.453	127.773	57	51
127.453	127.828	65	60
127.609	127.828	52	40
127.609	127.828	64	48
127.773	128.434	50	43
127.773	128.097	57	48
127.773	128.434	62	57
127.931	128.256	52	40
127.931	128.256	64	48
128.097	128.434	48	41
128.097	128.434	57	45
128.097	128.434	60	54
128.256	128.434	52	39
128.256	128.434	64	46
128.434	128.756	50	43
128.434	128.742	57	39
128.434	128.756	62	51
128.586	128.756	52	40
128.586	128.756	64	48
128.742	128.937	53	37
128.742	129.037	57	46
128.742	128.937	65	50
128.839	129.053	55	35
128.839	129.053	67	47
128.937	129.053	53	35
128.937	129.053	65	47
129.037	129.392	52	37
129.037	129.392	57	43
129.037	129.392	64	50
129.181	129.392	50	35
129.181	129.392	62	47
129.338	130.3	43	40
129.338	129.694	53	40
129.338	129.657	58	51
129.338	129.694	65	57
129.493	129.694	52	40
129.493	129.694	64	48
129.657	130.178	50	43
129.657	129.981	58	48
129.657	130.178	62	53
129.815	130.178	53	40
129.815	130.178	65	48
129.981	130.3	52	41
129.981	130.3	58	45
129.981	130.3	64	54
130.3	130.6	31	56
130.6	130.889	74	59
130.6	130.897	79	69
130.6	130.798	82	69
130.698	130.889	84	58
130.748	130.897	76	53
130.798	130.897	82	58
130.897	131.165	70	59
130.897	131.099	79	67
130.998	131.165	81	58
131.049	131.201	74	53
131.099	131.201	79	58
131.201	132.063	67	59
131.201	132.063	76	68
131.533	132.063	70	62
131.533	132.063	86	71
131.533	132.063	88	76
131.683	132.063	74	54
131.683	132.063	79	68
131.838	132.154	64	62
131.838	132.154	91	74
132.154	132.454	52	56
132.454	132.741	70	59
132.454	132.75	76	69
132.454	132.651	79	69
132.552	132.741	81	58
132.601	132.75	74	53
132.651	132.75	79	58
132.75	133.019	67	59
132.75	132.952	76	67
132.851	133.019	77	58
132.901	133.055	70	53
132.952	133.055	76	58
133.055	133.848	64	59
133.055	133.848	73	68
133.397	133.848	61	59
133.397	133.848	81	69
133.397	133.848	88	73
133.547	133.848	69	52
133.547	133.848	79	65
133.703	134.022	57	59
133.703	134.022	85	48
133.703	134.022	93	70
134.022	134.322	45	56
134.322	134.515	55	45
134.322	134.604	70	59
134.322	134.515	76	76
134.419	134.604	57	38
134.419	134.604	77	65
134.515	134.612	55	38
134.515	134.612	76	65
134.612	134.808	53	44
134.612	134.906	69	57
134.612	134.808	74	75
134.71	134.906	55	38
134.71	134.906	76	65
134.808	134.906	53	38
134.808	134.906	74	65
134.906	135.103	52	43
134.906	135.213	67	56
134.906	135.103	73	74
135.004	135.213	53	37
135.004	135.213	74	63
135.103	135.213	52	37
135.103	135.213	73	62
135.202	135.4	50	42
135.202	135.512	65	56
135.202	135.4	70	71
135.301	135.512	52	36
135.301	135.512	72	60
135.4	135.512	50	36
135.4	135.512	70	60
135.5	135.701	49	41
135.5	135.802	64	54
135.5	135.701	69	69
135.601	135.802	50	34
135.601	135.802	70	57
135.701	135.802	49	34
135.701	135.802	69	57
135.802	136.715	45	41
135.802	136.118	58	41
135.802	136.715	61	53
135.802	136.005	67	67
135.903	136.118	69	57
136.005	136.118	67	57
136.106	136.454	57	41
136.106	136.309	65	65
136.208	136.454	67	56
136.309	136.454	65	56
136.411	136.715	55	41
136.411	136.614	64	63
136.512	136.715	65	54
136.614	136.715	64	54
136.715	136.872	38	64
137.029	137.332	74	68
137.029	137.982	77	68
137.029	137.948	81	68
137.176	137.982	69	60
137.332	137.982	74	71
137.643	137.982	38	42
137.948	138.526	62	37
137.948	138.252	72	37
137.948	138.575	75	39
137.948	138.139	81	50
138.044	138.252	82	47
138.139	138.252	81	47
138.235	138.575	70	37
138.235	138.575	79	50
138.378	138.575	69	35
138.378	138.575	78	47
138.526	140.324	62	38
138.526	138.821	72	40
138.526	138.821	74	39
138.526	138.821	81	53
138.821	139.429	70	43
138.821	139.429	74	39
138.821	139.429	79	51
138.972	139.276	69	40
138.972	139.276	77	48
139.122	139.429	67	41
139.122	139.429	76	49
139.276	139.429	69	39
139.276	139.429	77	46
139.429	139.752	67	43
139.429	139.735	73	39
139.429	139.752	76	51
139.58	139.752	69	40
139.58	139.752	77	48
139.735	140.039	70	37
139.735	140.022	73	46
139.735	139.926	79	50
139.831	140.039	81	47
139.926	140.039	79	47
140.022	140.378	69	37
140.022	140.324	73	43
140.022	140.378	77	50
140.169	140.378	67	35
140.169	140.378	76	47
140.324	140.97	62	40
140.324	140.97	70	40
140.324	140.97	73	39
140.324	140.97	79	53
140.631	140.97	67	43
140.631	140.97	76	51
140.785	140.943	69	40
140.785	140.97	77	48
140.943	141.25	65	41
140.943	141.25	69	43
140.943	141.25	74	49
141.25	141.555	38	42
141.555	142.133	62	37
141.555	141.859	72	37
141.555	142.182	75	39
141.555	141.746	81	50
141.651	141.859	82	47
141.746	141.859	81	47
141.842	142.182	70	37
141.842	142.182	79	50
141.985	142.182	69	35
141.985	142.182	78	47
142.133	143.931	62	38
142.133	142.428	72	40
142.133	142.428	74	39
142.133	142.428	81	53
142.428	143.036	70	43
142.428	143.036	74	39
142.428	143.036	79	51
142.579	142.882	69	40
142.579	142.882	77	48
142.729	143.036	67	41
142.729	143.036	76	49
142.882	143.036	69	39
142.882	143.036	77	46
143.036	143.372	67	43
143.036	143.342	73	39
143.036	143.372	76	51
143.187	143.372	69	40
143.187	143.372	77	48
143.342	143.646	70	37
143.342	143.629	73	46
143.342	143.533	79	50
143.437	143.646	81	47
143.533	143.646	79	47
143.629	143.984	69	37
143.629	143.931	73	43
143.629	143.984	77	50
143.776	143.984	67	35
143.776	143.984	76	47
143.931	144.55	62	40
143.931	144.55	70	40
143.931	144.55	73	39
143.931	144.55	79	53
144.238	144.55	67	43
144.238	144.55	76	51
144.392	144.55	69	40
144.392	144.55	77	48
144.55	144.857	65	41
144.55	144.857	69	43
144.55	144.857	74	49
144.857	145.157	38	45
145.157	145.454	72	43
145.157	145.454	75	57
145.157	145.354	81	57
145.255	145.446	82	48
145.354	145.454	81	48
145.454	145.892	70	43
145.454	145.892	79	55
145.606	145.892	69	40
145.606	145.892	78	48
145.758	145.924	72	43
145.758	145.924	75	56
145.758	145.924	81	56
146.09	146.591	66	49
146.09	146.591	81	59
146.09	146.591	87	59
146.24	146.591	72	42
146.24	146.591	75	57
146.395	146.591	63	49
146.395	146.591	93	63
146.711	147.011	54	48
147.011	147.309	72	46
147.011	147.309	75	60
147.011	147.209	81	60
147.11	147.3	82	51
147.209	147.309	81	51
147.309	147.747	70	46
147.309	147.747	79	58
147.46	147.747	69	43
147.46	147.747	78	51
147.613	147.778	72	46
147.613	147.778	75	59
147.613	147.778	81	59
147.944	148.446	66	52
147.944	148.446	81	63
147.944	148.446	87	63
148.094	148.446	72	45
148.094	148.446	75	57
148.25	148.446	63	52
148.25	148.446	93	65
148.565	148.865	54	48
148.865	149.163	72	48
148.865	149.163	75	63
148.865	149.063	81	63
148.964	149.154	82	53
149.063	149.163	81	53
149.163	149.601	70	47
149.163	149.601	79	60
149.314	149.601	69	44
149.314	149.601	78	53
149.467	149.633	72	47
149.467	149.633	75	60
149.467	149.633	81	60
149.799	150.096	72	48
149.799	150.096	75	64
149.799	149.997	81	64
149.897	150.088	82	54
149.997	150.096	81	53
150.096	150.534	70	47
150.096	150.534	79	60
150.248	150.534	69	44
150.248	150.534	78	52
150.4	150.566	72	46
150.4	150.566	75	60
150.4	150.566	81	60
150.732	151.665	41	61
150.732	151.665	53	61
150.732	151.03	75	74
150.732	150.93	81	74
150.831	151.021	83	65
150.93	151.03	81	66
151.03	151.468	80	72
151.181	151.334	81	67
151.334	151.499	75	83
151.334	151.499	81	83
151.334	151.499	87	83
151.665	152.286	29	61
151.665	152.286	41	61
151.665	151.973	87	81
151.665	151.87	93	81
151.768	151.964	95	71
151.87	151.973	93	72
151.973	152.286	92	79
152.127	152.246	93	73
152.246	154.605	93	74
152.266	154.605	97	78
152.286	154.605	28	53
152.286	154.605	40	61
152.286	154.605	100	95
152.635	153.021	81	38
152.66	153.045	85	39
152.685	153.069	88	45
153.021	153.405	81	40
153.045	153.429	85	41
153.069	153.453	88	45
153.405	153.789	81	41
153.429	153.813	85	41
153.453	153.837	88	45
153.789	154.173	81	40
153.813	154.197	85	40
153.837	154.221	88	45
154.173	154.605	81	39
154.197	154.605	85	40
154.221	154.605	88	45
154.533	154.925	76	34
154.557	154.95	80	34
154.581	154.975	86	39
154.605	155.0	88	45
154.925	155.315	76	34
154.95	155.339	80	34
154.975	155.363	86	39
155.0	155.461	59	53
155.0	155.387	88	45
155.194	155.461	61	49
155.315	155.702	76	34
155.339	155.726	80	34
155.363	155.75	86	39
155.387	156.16	62	54
155.387	155.774	88	45
155.702	156.092	76	34
155.726	156.117	80	34
155.75	156.142	86	39
155.774	156.16	88	45
155.968	156.167	64	51
156.092	156.479	76	34
156.117	156.503	80	34
156.142	156.527	86	39
156.167	156.955	66	54
156.167	156.551	88	45
156.479	156.955	76	34
156.503	156.903	80	34
156.527	156.929	86	39
156.551	156.955	88	45
156.749	156.955	69	50
156.903	157.291	80	34
156.929	157.315	86	39
156.955	157.211	66	54
156.955	157.339	88	45
157.083	157.418	68	49
157.211	157.418	66	50
157.291	157.68	80	34
157.315	157.704	86	39
157.339	157.959	64	50
157.339	157.728	88	45
157.68	158.076	80	34
157.704	158.099	86	39
157.728	158.122	88	45
157.938	159.282	59	42
158.076	158.461	80	34
158.099	158.485	86	39
158.122	159.282	56	45
158.122	158.509	88	45
158.461	158.843	80	34
158.485	158.867	86	39
158.509	158.89	88	45
158.703	159.282	47	42
158.843	159.282	80	34
158.867	159.282	86	39
158.89	159.282	40	46
158.89	159.282	88	45
159.233	159.617	81	41
159.258	159.641	85	41
159.282	159.665	88	45
159.617	160.006	81	40
159.641	160.03	85	40
159.665	160.437	64	52
159.665	160.054	88	45
160.006	160.389	81	39
160.03	160.413	85	40
160.054	160.853	69	50
160.054	160.437	88	45
160.389	160.771	81	41
160.413	160.795	85	41
160.437	160.819	88	45
160.628	160.853	71	50
160.771	161.162	81	40
160.795	161.187	85	40
160.819	161.2	68	53
160.819	161.2	88	45
161.015	161.211	69	50
161.162	161.695	81	39
161.187	161.695	85	40
161.211	161.695	66	53
161.211	161.626	88	45
161.414	161.695	68	50
161.573	161.969	80	41
161.6	161.993	86	41
161.626	161.724	64	50
161.626	162.018	88	45
161.724	162.052	66	46
161.822	162.052	64	49
161.92	162.052	62	43
161.969	162.36	80	40
161.993	162.385	86	40
162.018	162.611	59	47
162.018	162.409	88	45
162.36	162.749	80	39
162.385	162.772	86	40
162.409	162.795	88	45
162.611	163.898	59	42
162.749	163.133	80	34
162.772	163.158	86	39
162.795	163.898	52	45
162.795	163.182	88	45
163.133	163.516	80	34
163.158	163.539	86	39
163.182	163.563	88	45
163.375	163.898	47	42
163.516	163.906	80	34
163.539	163.906	86	39
163.563	163.955	40	46
163.563	163.906	88	45
163.906	164.296	80	34
163.931	164.32	86	39
163.955	164.344	88	45
164.296	164.682	80	34
164.32	164.706	86	39
164.344	164.805	59	53
164.344	164.731	88	45
164.537	164.805	61	49
164.682	165.069	80	34
164.706	165.094	86	39
164.731	165.504	62	54
164.731	165.118	88	45
165.069	165.461	80	34
165.094	165.486	86	39
165.118	165.504	88	45
165.311	165.51	64	51
165.461	165.847	80	34
165.486	165.871	86	39
165.51	166.298	66	54
165.51	165.895	88	45
165.847	166.298	80	34
165.871	166.298	86	39
165.895	166.298	88	45
166.093	166.298	69	50
166.247	166.634	81	34
166.273	166.658	85	39
166.298	166.554	66	54
166.298	166.682	88	45
166.426	166.762	68	48
166.554	166.762	66	50
166.634	167.023	81	34
166.658	167.047	85	39
166.682	167.299	64	50
166.682	167.072	88	45
167.023	167.415	81	34
167.047	167.438	85	39
167.072	167.461	88	45
167.277	168.621	52	42
167.415	167.8	81	34
167.438	167.824	85	39
167.461	168.621	45	45
167.461	167.848	88	45
167.8	168.182	81	34
167.824	168.206	85	39
167.848	168.229	88	45
168.042	168.621	40	42
168.182	168.572	81	34
168.206	168.597	85	39
168.229	169.814	33	46
168.229	168.621	88	45
168.572	168.982	81	41
168.597	169.006	85	41
168.621	169.03	88	45
168.839	169.814	64	48
168.982	169.38	81	41
169.006	169.406	85	41
169.03	169.814	69	51
169.03	169.431	88	46
169.227	169.814	71	54
169.38	169.766	81	41
169.406	169.79	85	42
169.431	170.23	74	59
169.431	169.814	88	48
169.766	170.148	81	41
169.79	170.172	85	41
169.814	170.196	88	45
170.005	170.23	73	52
170.148	170.539	81	40
170.172	170.564	85	40
170.196	170.577	71	55
170.196	170.577	88	45
170.392	170.588	69	52
170.539	171.072	81	39
170.564	171.072	85	40
170.588	171.072	66	55
170.588	171.003	88	45
170.791	171.072	68	52
170.924	171.322	76	34
170.95	171.346	80	34
170.977	171.37	86	39
171.003	171.101	64	52
171.003	171.395	88	45
171.101	171.429	66	48
171.199	171.429	64	52
171.297	171.429	62	48
171.322	171.713	76	34
171.346	171.738	80	34
171.37	171.762	86	39
171.395	171.991	59	52
171.395	171.787	88	45
171.713	172.106	76	34
171.738	172.129	80	34
171.762	172.152	86	39
171.787	172.175	88	45
171.991	173.278	59	42
172.106	172.489	76	34
172.129	172.513	80	34
172.152	172.537	86	39
172.175	173.278	52	45
172.175	172.562	88	45
172.489	172.872	76	34
172.513	172.896	80	34
172.537	172.919	86	39
172.562	172.943	88	45
172.755	173.278	47	42
172.872	173.261	76	34
172.896	173.278	80	34
172.919	173.278	86	39
172.943	173.335	40	46
172.943	173.278	88	45
173.261	173.652	76	34
173.286	173.676	80	34
173.31	173.699	86	39
173.335	173.722	88	45
173.652	174.037	76	34
173.676	174.061	80	34
173.699	174.085	86	39
173.722	174.184	59	53
173.722	174.109	88	45
173.916	174.184	61	49
174.037	174.424	76	34
174.061	174.448	80	34
174.085	174.472	86	39
174.109	174.883	62	54
174.109	174.497	88	45
174.424	174.815	76	34
174.448	174.839	80	34
174.472	174.864	86	39
174.497	174.883	88	45
174.69	174.889	64	51
174.815	175.201	76	34
174.839	175.225	80	34
174.864	175.249	86	39
174.889	175.677	66	54
174.889	175.273	88	45
175.201	175.6	76	34
175.225	175.677	80	34
175.249	175.677	86	39
175.273	175.677	88	45
175.471	175.677	69	50
175.6	175.989	76	34
175.626	176.013	81	34
175.651	176.037	85	39
175.677	175.933	66	54
175.677	176.061	88	45
175.805	176.141	68	46
175.933	176.141	66	50
175.989	176.377	76	34
176.013	176.402	81	34
176.037	176.426	85	39
176.061	178.046	64	50
176.061	176.45	88	45
176.377	176.767	76	34
176.402	176.791	81	34
176.426	176.815	85	39
176.45	176.84	88	45
176.767	177.155	76	34
176.791	177.18	81	34
176.815	177.204	85	39
176.84	177.229	88	44
177.155	177.549	76	31
177.18	177.574	81	31
177.204	177.599	85	36
177.229	177.624	88	41
177.549	177.975	76	29
177.574	177.999	81	29
177.599	178.046	85	33
177.624	178.046	88	38
177.975	178.365	76	27
177.999	178.389	81	27
178.022	178.414	84	31
178.046	178.308	65	44
178.046	178.438	88	36
178.177	178.521	67	37
178.308	178.521	65	37
178.365	178.766	76	27
178.389	178.791	81	27
178.414	178.816	84	31
178.438	180.487	64	38
178.438	178.841	88	36
178.766	179.168	76	27
178.791	179.193	81	27
178.816	179.219	84	31
178.841	179.244	88	36
179.168	179.571	76	27
179.193	179.596	81	27
179.219	179.621	84	31
179.244	179.647	88	36
179.571	179.974	76	27
179.596	179.999	81	27
179.621	180.024	84	31
179.647	180.049	88	36
179.974	180.405	76	27
179.999	180.405	81	27
180.024	180.405	84	31
180.049	180.405	88	36
180.487	180.798	37	69
180.766	181.039	61	49
180.766	181.055	66	60
180.766	181.039	68	51
180.766	181.039	71	54
180.766	180.948	74	72
180.857	181.055	76	60
180.948	181.055	74	59
181.039	181.175	61	43
181.039	181.175	65	45
181.039	181.141	68	68
181.039	181.175	71	54
181.039	181.141	73	68
181.315	181.588	73	49
181.315	181.603	78	60
181.315	181.588	80	51
181.315	181.588	83	53
181.315	181.497	86	72
181.406	181.603	88	61
181.497	181.603	86	61
181.588	181.723	73	42
181.588	181.723	77	45
181.588	181.689	80	62
181.588	181.689	83	61
181.588	181.689	85	68
181.864	182.136	85	49
181.864	182.153	90	60
181.864	182.136	92	51
181.864	182.136	95	53
181.864	182.045	98	72
181.954	182.153	100	60
182.045	182.153	98	61
182.136	182.277	85	44
182.136	182.277	89	47
182.136	182.241	92	64
182.136	182.241	95	62
182.136	182.241	97	71
182.417	182.689	73	51
182.417	182.707	78	63
182.417	182.689	80	53
182.417	182.689	83	55
182.417	182.599	86	75
182.508	182.707	88	65
182.599	182.707	86	67
182.689	182.843	73	44
182.689	182.843	77	47
182.689	182.805	80	59
182.689	182.805	83	59
182.689	182.805	85	71
182.997	183.281	60	55
182.997	183.299	65	69
182.997	183.281	67	57
182.997	183.281	70	59
182.997	183.187	74	81
183.092	183.299	76	72
183.187	183.299	74	72
183.281	183.431	60	48
183.281	183.431	64	51
183.281	183.393	67	70
183.281	183.393	70	70
183.281	183.393	72	77
183.58	183.838	36	58
183.58	183.838	48	58
183.58	183.892	84	84
183.58	183.892	88	84
183.58	183.892	94	84
183.58	183.892	96	84
183.892	184.203	41	64
183.892	184.203	53	64
183.892	184.172	69	71
183.892	184.203	77	87
184.172	184.444	57	58
184.172	184.444	60	58
184.172	184.444	65	58
184.172	184.444	69	71
184.172	184.353	76	77
184.262	184.46	77	66
184.353	184.46	76	67
184.444	184.769	57	58
184.444	184.769	60	58
184.444	184.769	65	58
184.444	184.721	69	67
184.444	184.769	74	77
184.583	184.769	76	70
184.721	185.002	36	64
184.721	185.002	48	64
184.721	185.002	69	58
184.721	184.976	77	79
184.856	185.002	74	71
185.002	185.147	57	58
185.002	185.147	60	58
185.002	185.147	65	58
185.002	185.11	69	67
185.002	185.11	76	78
185.291	185.437	57	58
185.291	185.437	60	58
185.291	185.437	65	58
185.291	185.401	69	67
185.291	185.401	72	75
185.583	185.894	41	64
185.583	185.894	53	64
185.583	185.862	69	68
185.583	185.894	77	83
185.862	186.135	57	58
185.862	186.135	60	58
185.862	186.135	65	58
185.862	186.135	69	68
185.862	186.044	76	74
185.953	186.151	77	67
186.044	186.151	76	67
186.135	186.46	57	58
186.135	186.46	60	58
186.135	186.46	65	58
186.135	186.413	69	64
186.135	186.46	74	74
186.273	186.46	76	69
186.413	186.694	36	64
186.413	186.694	48	64
186.413	186.694	69	56
186.413	186.668	77	76
186.548	186.694	74	67
186.694	186.839	57	58
186.694	186.839	60	58
186.694	186.839	65	58
186.694	186.803	69	64
186.694	186.803	76	75
186.984	187.129	57	58
186.984	187.129	60	58
186.984	187.129	65	58
186.984	187.093	69	64
186.984	187.093	72	72
187.275	187.551	53	58
187.275	187.551	69	59
187.275	187.543	74	77
187.413	187.551	76	72
187.551	187.877	59	59
187.551	187.845	69	48
187.551	187.877	72	75
187.696	187.877	60	52
187.845	188.124	48	51
187.845	188.124	69	56
187.845	188.124	74	72
187.981	188.124	76	73
188.053	188.124	62	52
188.124	188.403	60	59
188.124	188.403	69	59
188.124	188.403	77	76
188.264	188.403	59	50
188.403	188.664	60	58
188.403	188.68	69	59
188.403	188.664	74	77
188.541	188.68	62	51
188.541	188.68	76	72
188.68	188.933	60	49
188.68	188.933	69	48
188.68	188.933	72	68
188.97	189.252	53	58
188.97	189.244	69	50
188.97	189.252	74	78
189.105	189.252	76	71
189.244	189.567	59	58
189.244	189.534	69	45
189.244	189.567	72	74
189.388	189.567	60	53
189.534	189.818	48	51
189.534	189.818	69	55
189.534	189.818	74	71
189.674	189.818	76	73
189.746	189.818	62	52
189.818	190.104	60	59
189.818	190.104	69	59
189.818	190.104	79	77
189.959	190.104	59	49
189.959	190.104	77	71
190.104	190.357	60	58
190.104	190.391	69	59
190.104	190.357	74	76
190.245	190.391	62	49
190.245	190.391	76	72
190.391	190.673	60	49
190.391	190.713	69	49
190.391	190.713	72	68
190.713	191.565	36	55
191.013	191.565	58	35
191.013	191.565	62	41
191.013	191.565	65	46
191.14	191.565	55	40
191.276	191.565	60	36
191.565	192.064	70	41
191.565	192.064	74	41
191.565	192.064	77	46
191.691	192.064	67	38
191.827	192.064	72	36
192.114	192.451	82	41
192.114	192.451	86	41
192.114	192.451	89	46
192.241	192.451	79	43
192.377	192.525	84	36
192.673	192.741	67	36
192.673	192.741	74	40
192.673	192.741	77	42
192.673	192.741	82	48
192.81	192.878	67	36
192.81	192.878	74	40
192.81	192.878	77	42
192.81	192.878	82	48
192.947	193.088	79	44
192.947	193.088	82	46
192.947	193.088	89	51
193.228	193.373	67	32
193.228	193.373	74	37
193.228	193.373	77	44
193.228	193.373	82	49
193.517	193.661	79	38
193.517	193.661	82	46
193.517	193.661	89	51
193.805	193.95	67	32
193.805	193.95	74	37
193.805	193.95	77	44
193.805	193.95	82	49
194.094	194.939	36	52
194.394	194.939	58	41
194.394	194.939	62	41
194.394	194.939	65	46
194.52	194.939	55	38
194.657	194.939	60	37
194.939	195.417	70	41
194.939	195.417	74	41
194.939	195.417	77	46
195.065	195.417	67	39
195.202	195.417	72	38
195.483	195.797	82	41
195.483	195.797	86	41
195.483	195.797	89	46
195.609	195.797	79	38
195.745	195.893	84	38
196.041	196.111	72	36
196.041	196.111	77	40
196.041	196.111	79	42
196.041	196.111	82	42
196.041	196.111	86	48
196.181	196.251	72	36
196.181	196.251	77	40
196.181	196.251	79	42
196.181	196.251	82	42
196.181	196.251	86	48
196.321	196.467	72	44
196.321	196.467	77	44
196.321	196.467	79	46
196.321	196.467	82	46
196.321	196.467	91	51
196.612	196.684	72	36
196.612	196.684	77	40
196.612	196.684	79	42
196.612	196.684	82	42
196.612	196.684	86	48
196.755	196.826	72	36
196.755	196.826	77	40
196.755	196.826	79	42
196.755	196.826	82	42
196.755	196.826	86	48
196.898	197.042	72	44
196.898	197.042	77	44
196.898	197.042	79	46
196.898	197.042	82	46
196.898	197.042	91	51
197.186	197.344	72	32
197.186	197.344	76	37
197.186	197.344	79	44
197.186	197.344	82	44
197.186	197.344	84	49
197.502	197.813	41	66
197.502	197.813	53	66
197.502	197.781	69	73
197.502	197.813	77	89
197.781	198.054	57	60
197.781	198.054	60	60
197.781	198.054	65	60
197.781	198.054	69	73
197.781	197.963	76	79
197.872	198.07	77	69
197.963	198.07	76	69
198.054	198.378	57	60
198.054	198.378	60	60
198.054	198.378	65	60
198.054	198.331	69	69
198.054	198.378	74	79
198.192	198.378	76	69
198.331	198.611	36	66
198.331	198.611	48	66
198.331	198.611	69	60
198.331	198.586	77	81
198.466	198.611	74	72
198.611	198.756	57	60
198.611	198.756	60	60
198.611	198.756	65	60
198.611	198.72	69	69
198.611	198.72	76	80
198.901	199.047	57	60
198.901	199.047	60	60
198.901	199.047	65	60
198.901	199.01	69	69
198.901	199.01	72	77
199.192	199.503	41	66
199.192	199.503	53	66
199.192	199.471	69	70
199.192	199.503	77	85
199.471	199.744	57	60
199.471	199.744	60	60
199.471	199.744	65	60
199.471	199.744	69	70
199.471	199.653	76	76
199.562	199.76	77	68
199.653	199.76	76	68
199.744	200.07	57	60
199.744	200.07	60	60
199.744	200.07	65	60
199.744	200.023	69	66
199.744	200.07	74	76
199.883	200.07	76	69
200.023	200.304	36	66
200.023	200.304	48	66
200.023	200.304	69	58
200.023	200.278	77	78
200.157	200.304	74	71
200.304	200.448	57	60
200.304	200.448	60	60
200.304	200.448	65	60
200.304	200.412	69	66
200.304	200.412	76	77
200.593	200.739	57	60
200.593	200.739	60	60
200.593	200.739	65	60
200.593	200.703	69	66
200.593	200.703	72	74
200.885	201.161	53	60
200.885	201.161	69	61
200.885	201.153	74	79
201.023	201.161	76	74
201.161	201.306	59	61
201.161	201.417	69	49
201.161	201.417	72	77
201.306	201.455	60	54
201.455	201.734	48	53
201.455	201.734	69	58
201.455	201.734	74	74
201.591	201.734	76	75
201.662	201.734	62	54
201.734	201.873	60	61
201.734	201.978	69	61
201.734	201.978	77	78
201.873	202.013	59	51
202.013	202.273	60	60
202.013	202.289	69	61
202.013	202.273	74	79
202.151	202.289	62	53
202.151	202.289	76	74
202.289	202.543	60	50
202.289	202.543	69	49
202.289	202.543	72	77
202.579	202.862	53	60
202.579	202.853	69	52
202.579	202.862	74	80
202.715	202.862	76	73
202.853	202.997	59	64
202.853	203.107	69	46
202.853	203.107	72	76
202.997	203.144	60	55
203.144	203.428	48	53
203.144	203.428	69	57
203.144	203.428	74	73
203.283	203.428	76	75
203.355	203.428	62	54
203.428	203.713	60	61
203.428	203.713	69	61
203.428	203.713	79	79
203.569	203.713	59	49
203.569	203.713	77	73
203.713	203.966	60	60
203.713	204.0	69	61
203.713	203.966	74	78
203.855	204.0	62	53
203.855	204.0	76	74
204.0	204.255	60	50
204.0	204.292	69	51
204.0	204.292	72	70
204.292	205.143	36	98
204.589	205.143	58	56
204.589	205.143	62	66
204.589	205.143	65	74
204.715	205.143	55	69
204.852	205.143	60	62
205.143	205.678	70	66
205.143	205.678	74	66
205.143	205.678	77	74
205.269	205.678	67	65
205.405	205.678	72	60
205.686	206.021	82	66
205.686	206.021	86	66
205.686	206.021	89	74
205.812	206.021	79	67
205.948	206.095	84	61
206.243	206.312	67	54
206.243	206.312	74	62
206.243	206.312	77	72
206.243	206.312	82	82
206.38	206.449	67	54
206.38	206.449	74	62
206.38	206.449	77	72
206.38	206.449	82	82
206.517	206.658	79	67
206.517	206.658	82	78
206.517	206.658	89	87
206.799	206.943	67	48
206.799	206.943	74	56
206.799	206.943	77	75
206.799	206.943	82	84
207.087	207.231	79	58
207.087	207.231	82	78
207.087	207.231	89	87
207.376	207.52	67	48
207.376	207.52	74	56
207.376	207.52	77	75
207.376	207.52	82	84
207.664	208.508	36	98
207.964	208.508	58	66
207.964	208.508	62	66
207.964	208.508	65	74
208.09	208.508	55	67
208.227	208.508	60	59
208.508	209.05	70	66
208.508	209.05	74	66
208.508	209.05	77	74
208.634	209.05	67	69
208.77	209.05	72	60
209.05	209.362	82	66
209.05	209.362	86	66
209.05	209.362	89	72
209.176	209.362	79	68
209.31	209.458	84	59
209.606	209.676	72	54
209.606	209.676	77	62
209.606	209.676	79	72
209.606	209.676	82	72
209.606	209.676	86	82
209.747	209.818	72	54
209.747	209.818	77	62
209.747	209.818	79	72
209.747	209.818	82	72
209.747	209.818	86	82
209.889	210.039	72	67
209.889	210.039	77	67
209.889	210.039	79	78
209.889	210.039	82	78
209.889	210.039	91	87
210.189	210.261	72	54
210.189	210.261	77	62
210.189	210.261	79	72
210.189	210.261	82	72
210.189	210.261	86	82
210.334	210.407	72	54
210.334	210.407	77	62
210.334	210.407	79	72
210.334	210.407	82	72
210.334	210.407	86	82
210.48	210.631	72	67
210.48	210.631	77	67
210.48	210.631	79	78
210.48	210.631	82	78
210.48	210.631	91	87
210.781	210.935	72	48
210.781	210.935	76	56
210.781	210.935	79	75
210.781	210.935	82	75
210.781	210.935	84	84
211.089	211.388	53	35
211.089	211.388	60	35
211.089	211.388	65	35
211.089	211.313	69	54
211.089	211.313	77	54
211.089	211.313	81	54
211.238	211.313	79	45
211.313	211.992	81	45
211.388	211.686	53	32
211.388	211.686	60	32
211.388	211.686	65	32
211.388	211.992	79	53
211.537	211.832	77	49
211.686	211.992	53	27
211.686	211.992	60	27
211.686	211.992	65	27
211.686	211.992	69	46
211.832	211.992	77	46
211.992	212.292	53	35
211.992	212.292	61	35
211.992	212.292	65	35
211.992	212.306	81	51
212.142	212.306	79	47
212.292	212.592	53	31
212.292	212.592	61	31
212.292	212.592	65	31
212.292	212.898	77	53
212.442	212.741	69	45
212.592	212.898	53	28
212.592	212.898	61	28
212.592	212.898	65	48
212.741	212.898	69	44
212.898	213.196	53	37
212.898	213.196	62	37
212.898	213.196	65	37
212.898	213.122	77	57
212.898	213.122	81	57
213.047	213.122	79	51
213.122	213.801	81	51
213.196	213.495	53	34
213.196	213.495	62	34
213.196	213.495	65	34
213.196	213.801	79	57
213.345	213.641	77	55
213.495	213.801	53	30
213.495	213.801	62	30
213.495	213.801	65	30
213.495	213.801	69	51
213.641	213.801	77	53
213.801	214.101	53	40
213.801	214.101	61	40
213.801	214.101	65	40
213.801	214.114	81	60
213.951	214.114	79	56
214.101	214.401	53	36
214.101	214.401	61	36
214.101	214.401	65	36
214.101	214.706	77	62
214.251	214.549	69	49
214.401	214.706	53	33
214.401	214.706	61	33
214.401	214.706	65	57
214.549	214.706	69	51
214.706	215.005	53	42
214.706	215.005	60	42
214.706	215.005	65	42
214.706	214.93	69	66
214.706	214.93	77	66
214.706	214.93	81	66
214.855	214.93	79	58
214.93	215.619	81	59
215.005	215.303	53	39
215.005	215.303	60	39
215.005	215.303	65	39
215.005	215.619	79	67
215.154	215.45	77	64
215.303	215.619	53	34
215.303	215.619	60	34
215.303	215.619	65	34
215.303	215.619	69	59
215.45	215.619	77	61
215.619	215.917	47	45
215.619	215.843	74	70
215.619	215.843	77	70
215.619	215.843	81	70
215.768	215.843	79	61
215.843	215.917	81	61
215.917	216.795	55	42
215.917	216.475	59	42
215.917	216.475	79	71
216.067	216.475	77	60
216.216	216.522	65	36
216.216	216.475	69	63
216.362	216.795	67	58
216.522	216.825	36	63
216.522	216.825	65	57
216.522	216.825	69	57
216.522	216.795	74	78
216.668	216.825	72	70
216.825	217.106	59	62
216.825	217.128	69	61
216.825	217.128	72	61
216.825	217.106	79	82
216.972	217.128	60	57
216.972	217.128	77	75
217.128	217.428	57	64
217.128	217.428	77	63
217.128	217.428	81	63
217.128	217.428	86	85
217.274	217.428	53	57
217.274	217.428	84	75
217.428	217.769	36	82
217.428	217.769	76	75
217.428	217.769	82	75
217.428	217.769	86	100
217.578	217.769	84	83
217.734	218.065	72	78
217.734	218.065	88	74
217.734	218.065	94	74
217.734	218.065	98	99
217.884	218.065	96	80
218.046	218.329	60	79
218.046	218.605	76	74
218.046	218.605	82	74
218.046	218.329	86	99
218.207	218.605	84	79
218.395	218.693	53	35
218.395	218.693	60	35
218.395	218.693	65	35
218.395	218.618	69	54
218.395	218.618	77	54
218.395	218.618	81	54
218.544	218.618	79	48
218.618	219.297	81	48
218.693	218.992	53	32
218.693	218.992	60	32
218.693	218.992	65	32
218.693	219.297	79	53
218.842	219.138	77	49
218.992	219.297	53	27
218.992	219.297	60	27
218.992	219.297	65	27
218.992	219.297	69	46
219.138	219.297	77	46
219.297	219.597	53	35
219.297	219.597	61	35
219.297	219.597	65	35
219.297	219.611	81	51
219.447	219.611	79	47
219.597	219.897	53	31
219.597	219.897	61	31
219.597	219.897	65	31
219.597	220.203	77	53
219.747	220.046	69	45
219.897	220.203	53	28
219.897	220.203	61	28
219.897	220.203	65	48
220.046	220.203	69	43
220.203	220.502	53	37
220.203	220.502	62	37
220.203	220.502	65	37
220.203	220.427	77	57
220.203	220.427	81	57
220.352	220.427	79	51
220.427	221.106	81	51
220.502	220.8	53	34
220.502	220.8	62	34
220.502	220.8	65	34
220.502	221.106	79	57
220.651	220.946	77	55
220.8	221.106	53	30
220.8	221.106	62	30
220.8	221.106	65	30
220.8	221.106	69	51
220.946	221.106	77	53
221.106	221.406	53	40
221.106	221.406	61	40
221.106	221.406	65	40
221.106	221.42	81	60
221.256	221.42	79	56
221.406	221.706	53	36
221.406	221.706	61	36
221.406	221.706	65	36
221.406	222.012	77	62
221.556	221.855	69	52
221.706	222.012	53	33
221.706	222.012	61	33
221.706	222.012	65	57
221.855	222.012	69	50
222.012	222.31	53	42
222.012	222.31	60	42
222.012	222.31	65	42
222.012	222.235	69	66
222.012	222.235	77	66
222.012	222.235	81	66
222.161	222.235	79	58
222.235	222.924	81	56
222.31	222.609	53	39
222.31	222.609	60	39
222.31	222.609	65	39
222.31	222.924	79	67
222.459	222.755	77	64
222.609	222.924	53	34
222.609	222.924	60	34
222.609	222.924	65	34
222.609	222.924	69	59
222.755	222.924	77	61
222.924	223.223	47	45
222.924	223.148	74	70
222.924	223.148	77	70
222.924	223.148	81	70
223.074	223.148	79	63
223.148	223.223	81	63
223.223	224.101	55	42
223.223	223.781	59	42
223.223	223.781	79	71
223.372	223.781	77	63
223.521	223.827	65	36
223.521	223.781	69	63
223.668	224.101	67	57
223.827	224.131	36	63
223.827	224.131	65	57
223.827	224.131	69	57
223.827	224.101	74	78
223.973	224.131	72	69
224.131	224.411	59	62
224.131	224.433	69	61
224.131	224.433	72	61
224.131	224.411	79	82
224.277	224.433	60	57
224.277	224.433	77	73
224.433	224.734	57	64
224.433	224.734	77	63
224.433	224.734	81	63
224.433	224.734	86	85
224.58	224.734	53	57
224.58	224.734	84	76
224.734	225.075	36	82
224.734	225.075	76	75
224.734	225.075	82	75
224.734	225.075	86	100
224.884	225.075	84	77
225.04	225.37	72	78
225.04	225.37	88	74
225.04	225.37	94	74
225.04	225.37	98	99
225.19	225.37	96	80
225.351	225.634	60	79
225.351	225.699	76	74
225.351	225.699	82	74
225.351	225.634	86	99
225.512	225.699	84	76
225.699	226.524	41	107
225.98	226.524	56	60
225.98	226.524	61	73
225.98	226.524	65	80
226.099	226.524	53	71
226.228	226.524	59	70
226.49	226.988	68	73
226.49	226.988	73	73
226.49	226.988	77	80
226.609	226.988	65	71
226.738	226.988	71	70
227.0	227.376	80	72
227.0	227.376	85	72
227.0	227.376	89	79
227.119	227.376	77	72
227.249	227.389	83	69
227.529	227.658	65	54
227.529	227.658	73	60
227.529	227.658	83	71
227.529	227.658	89	81
227.658	228.055	65	54
227.658	227.788	73	60
227.658	228.055	83	71
227.658	227.788	89	81
227.788	228.055	73	65
227.788	228.328	79	65
227.788	228.055	89	76
227.788	228.328	95	85
228.055	228.602	65	47
228.055	228.328	73	55
228.055	228.602	83	73
228.055	228.328	89	82
228.328	228.602	73	56
228.328	228.726	79	56
228.328	228.602	89	76
228.328	228.726	95	85
228.602	228.738	65	47
228.602	228.738	73	55
228.602	228.738	83	73
228.602	228.738	89	82
228.875	229.669	41	107
229.156	229.669	56	60
229.156	229.669	61	73
229.156	229.669	65	80
229.275	229.669	53	71
229.404	229.669	59	68
229.669	230.178	68	73
229.669	230.178	73	73
229.669	230.178	77	80
229.787	230.178	65	71
229.916	230.178	71	68
230.178	230.519	80	73
230.178	230.519	85	73
230.178	230.519	89	80
230.297	230.519	77	73
230.426	230.566	83	69
230.706	230.836	65	60
230.706	230.836	73	67
230.706	230.836	83	79
230.706	230.836	89	90
230.836	231.232	65	54
230.836	230.965	73	60
230.836	231.232	83	71
230.836	230.965	89	81
230.965	231.232	73	65
230.965	231.506	79	65
230.965	231.232	89	76
230.965	231.506	95	85
231.232	231.779	65	47
231.232	231.506	73	55
231.232	231.779	83	73
231.232	231.506	89	82
231.506	231.779	73	56
231.506	232.052	79	56
231.506	231.779	89	76
231.506	232.052	95	85
231.779	232.052	65	47
231.779	232.052	73	55
231.779	232.052	83	73
231.779	232.052	89	82
232.052	232.189	41	69
232.052	232.189	48	69
232.052	232.189	57	69
232.052	232.173	89	76
232.052	232.173	96	78
232.052	232.173	101	90
232.189	232.253	91	69
232.253	232.823	93	70
232.317	232.823	91	75
232.439	232.823	89	68
232.566	232.823	86	72
232.693	232.823	84	63
232.823	233.024	81	68
232.961	233.024	79	62
233.024	233.609	81	63
233.088	233.609	79	69
233.211	233.609	77	68
233.337	233.609	74	72
233.464	233.609	72	63
233.595	233.796	69	68
233.732	233.796	67	62
233.796	234.366	69	63
233.859	234.366	67	69
233.982	234.366	65	68
234.109	234.366	62	72
234.235	234.366	60	63
234.366	234.503	57	68
234.503	234.569	55	63
234.569	234.634	57	63
234.634	235.22	55	70
234.769	235.22	53	67
234.907	235.22	48	73
235.055	235.22	45	63
235.22	236.842	41	76
235.963	236.842	46	57
235.977	236.842	53	57
235.99	236.842	61	57
236.004	236.842	65	68
236.018	236.842	70	74
236.031	236.842	73	79
236.045	236.842	77	87
236.842	237.661	41	71
236.842	237.661	48	71
236.842	237.661	57	84
236.842	237.661	77	85
236.842	237.661	81	85
236.842	237.661	84	85
236.842	237.661	89	101
237.935	238.071	65	74
237.935	238.071	72	74
237.935	238.071	77	74
237.935	238.071	81	91
237.935	238.071	84	91
237.935	238.071	89	107
237.935	238.071	93	107
238.208	238.682	29	74
238.208	238.682	41	88
238.208	238.682	53	107
