OnsetTime	OffsetTime	MidiPitch	Velocity
1.34599	1.75899	72	61
1.76299	1.969	65	50
1.76299	1.95498	74	73
1.76398	1.96999	48	31
1.76398	1.95498	57	38
1.86098	2.08499	72	52
1.86199	1.96999	53	35
1.96999	2.08499	77	64
1.972	2.08598	41	31
2.20699	2.42098	60	46
2.208	2.42098	57	36
2.208	2.42098	67	67
2.20899	2.42098	48	29
2.30099	2.51798	65	47
2.30199	2.42098	53	33
2.41399	2.52298	72	63
2.41498	2.52298	41	29
2.63699	2.83598	65	48
2.63798	2.83998	48	29
2.63798	2.83298	57	36
2.63798	2.83298	74	69
2.73698	2.94897	72	49
2.73898	2.84098	53	33
2.84397	2.94998	77	63
2.84498	2.94998	41	28
3.06498	3.28097	67	50
3.06798	3.28097	58	38
3.06798	3.28097	74	73
3.06897	3.28097	48	31
3.16597	3.37996	72	51
3.16698	3.28097	52	35
3.27198	3.37996	79	61
3.27397	3.38097	41	30
3.49497	3.70896	60	44
3.49597	3.70896	58	32
3.49597	3.70896	69	64
3.49796	3.70896	48	29
3.59697	3.70896	52	33
3.59697	3.80596	67	47
3.70196	3.80996	72	59
3.70297	3.80996	41	28
3.92496	4.15595	67	48
3.92597	4.15595	58	36
3.92597	4.15595	74	69
3.92897	4.15595	48	29
4.02695	4.15595	52	33
4.02695	4.23695	72	52
4.13195	4.24095	41	28
4.13195	4.23996	79	66
4.34895	4.57293	69	52
4.34895	4.57293	74	76
4.34994	4.57293	57	39
4.35295	4.57293	48	32
4.44694	4.66093	72	53
4.44995	4.57293	53	36
4.56194	4.66394	81	65
4.56294	4.66394	41	32
4.77994	4.99294	57	37
4.77994	4.99294	65	49
4.77994	4.99294	74	71
4.78095	4.99294	50	30
4.87095	5.08994	72	49
4.87394	4.99294	53	34
4.98394	5.09493	77	63
4.98593	5.09493	41	29
5.20594	5.42292	74	50
5.20994	5.42292	81	72
5.21093	5.42292	50	30
5.21093	5.42292	59	37
5.30194	5.52093	79	54
5.30493	5.42292	53	34
5.41293	5.52192	86	66
5.41693	5.52192	43	30
5.63693	6.51289	67	52
5.63693	6.93188	74	76
5.63793	6.1699	64	40
5.64093	6.28091	55	33
5.73893	6.93188	58	37
5.73893	6.06991	72	57
5.84992	6.16891	79	66
5.85092	6.93188	48	32
6.06991	6.93188	72	51
6.07391	6.93188	81	72
6.07491	6.73289	60	31
6.07491	6.61689	70	38
6.16891	6.93188	79	51
6.1699	6.93188	64	35
6.27889	6.5079	84	64
6.28091	6.93188	55	28
6.5079	6.93188	84	51
6.50889	6.93188	93	75
6.5119	6.93188	76	38
6.51289	6.93188	67	31
6.6149	6.93188	91	53
6.61689	6.93188	70	35
6.73188	6.93188	96	69
6.73289	6.93188	60	30
7.00887	7.20487	57	38
7.00887	7.21587	65	50
7.00887	7.20487	74	73
7.00988	7.21587	48	31
7.10787	7.32787	72	51
7.10888	7.21886	53	35
7.21886	7.32787	77	69
7.21987	7.32886	41	31
7.45286	7.66585	60	46
7.45386	7.66585	67	67
7.45687	7.66585	57	36
7.45786	7.66585	48	29
7.55186	7.66585	53	33
7.55186	7.76485	65	47
7.66085	7.76786	72	65
7.66286	7.76885	41	29
7.89085	8.09684	65	48
7.89085	8.08986	74	69
7.89186	8.09785	48	29
7.89186	8.08986	57	36
7.98886	8.20984	72	53
7.98985	8.10084	53	33
8.10185	8.20984	77	67
8.10384	8.21084	41	28
8.32385	8.54583	67	50
8.32484	8.54583	58	38
8.32484	8.54583	74	73
8.32785	8.54583	48	31
8.42584	8.63684	72	51
8.42685	8.54583	52	35
8.53584	8.63983	79	65
8.53883	8.63983	41	30
8.75484	8.97583	60	40
8.75584	8.97583	58	32
8.75584	8.97583	69	64
8.75884	8.97583	48	29
8.85683	8.97583	52	33
8.85683	9.06983	67	47
8.96683	9.07383	72	63
8.96782	9.07683	41	28
9.18982	9.41982	67	48
9.18982	9.41982	74	69
9.19282	9.41982	48	29
9.19282	9.41982	58	36
9.28382	9.50082	72	49
9.28682	9.41982	52	33
9.39581	9.50482	79	66
9.3968	9.50482	41	28
9.61983	9.8408	69	52
9.62282	9.8408	74	76
9.62383	9.8408	48	32
9.62383	9.8408	57	39
9.7188	9.9308	72	53
9.72181	9.8408	53	36
9.8268	9.9318	81	70
9.82781	9.9348	41	32
10.0468	10.2708	69	49
10.0498	10.2708	59	37
10.0498	10.2708	76	71
10.0538	10.2708	50	30
10.1498	10.3688	74	49
10.1518	10.2708	53	34
10.2608	10.3698	81	66
10.2638	10.3698	43	29
10.4778	10.6988	67	50
10.4778	10.6988	74	72
10.4808	10.6988	55	30
10.4808	10.6988	64	37
10.5788	10.8028	72	53
10.5798	10.6988	58	34
10.6978	10.8068	79	65
10.6988	10.8068	48	30
10.9178	11.4618	65	54
10.9218	12.1787	48	33
10.9218	12.1787	57	40
10.9218	12.1787	74	80
11.0208	11.8117	72	57
11.0228	11.5768	53	37
11.1318	12.1787	41	32
11.1318	11.3588	77	71
11.3588	11.9227	77	51
11.3598	12.1787	86	72
11.3628	12.1787	60	31
11.3628	12.1787	69	38
11.4618	12.0387	65	35
11.4618	12.1787	84	51
11.5727	11.8077	89	65
11.5768	12.1787	53	28
11.8077	12.1787	89	51
11.8108	12.1787	98	75
11.8117	12.1787	72	31
11.8117	12.1787	81	38
11.9197	12.1787	96	58
11.9227	12.1787	77	35
12.0377	12.1787	101	71
12.0387	12.1787	65	30
12.3037	12.5147	65	50
12.3077	12.4067	74	73
12.3107	12.5037	57	38
12.3117	12.5177	48	31
12.3537	12.4587	72	58
12.4067	12.5037	74	63
12.4097	12.5177	53	35
12.4587	12.6257	72	52
12.5217	12.6267	41	31
12.5217	12.6267	77	67
12.7487	12.9617	60	46
12.7487	12.8497	67	67
12.7497	12.9617	57	36
12.7527	12.9617	48	29
12.7947	12.8997	65	53
12.8497	12.9617	67	57
12.8507	12.9617	53	33
12.8997	13.0607	65	47
12.9587	13.0637	72	66
12.9597	13.0647	41	29
13.1787	13.3857	65	48
13.1797	13.3787	57	36
13.1797	13.2777	74	69
13.1807	13.3867	48	29
13.2327	13.3297	72	55
13.2777	13.3787	74	59
13.2807	13.3897	53	33
13.3297	13.4947	72	49
13.3897	13.4977	77	66
13.3927	13.4977	41	28
13.6057	13.8267	67	50
13.6067	13.7087	74	73
13.6097	13.8267	58	38
13.6107	13.8267	48	31
13.6597	13.7637	72	57
13.7087	13.8267	52	35
13.7087	13.8267	74	63
13.7637	13.9247	72	51
13.8187	13.9277	79	66
13.8197	13.9287	41	30
14.0407	14.2567	60	40
14.0437	14.2567	58	32
14.0437	14.0897	69	64
14.0477	14.2567	48	29
14.0897	14.1947	67	53
14.1387	14.2567	52	33
14.1387	14.2567	69	57
14.1947	14.3557	67	57
14.2497	14.3557	72	64
14.2507	14.3587	41	28
14.4707	14.6987	67	48
14.4707	14.5157	74	69
14.4747	14.6987	48	29
14.4747	14.6987	58	36
14.5207	14.6187	72	59
14.5687	14.6987	74	61
14.5697	14.6987	52	33
14.6187	14.7787	72	52
14.6787	14.7787	79	65
14.6807	14.7827	41	28
14.8937	15.1147	69	52
14.8977	14.9957	74	76
14.8987	15.1147	48	32
14.8987	15.1147	57	39
14.9437	15.0447	72	57
14.9957	15.1147	74	64
14.9967	15.1147	53	36
15.0447	15.2087	72	53
15.1017	15.2097	81	66
15.1047	15.2127	41	32
15.3177	15.5377	65	49
15.3207	15.4207	74	71
15.3217	15.5377	57	37
15.3247	15.5377	50	30
15.3737	15.4717	72	57
15.4207	15.5377	74	63
15.4227	15.5377	53	34
15.4717	15.6327	72	49
15.5317	15.6337	77	67
15.5347	15.6357	41	29
15.7487	15.9687	74	50
15.7517	15.9687	59	37
15.7517	15.8507	81	72
15.7527	15.9687	50	30
15.8017	15.8997	79	58
15.8507	15.9687	53	34
15.8507	15.9687	81	64
15.8997	16.0667	79	54
15.9617	16.0707	43	30
15.9617	16.0667	86	71
16.1857	17.0537	67	52
16.1867	16.7177	64	40
16.1867	16.2847	74	76
16.1887	16.8267	55	33
16.2317	16.3367	72	57
16.2847	17.4807	74	65
16.2877	17.4807	58	37
16.3367	16.6127	72	57
16.3927	17.4807	48	32
16.3927	16.6617	79	70
16.6127	17.4807	72	51
16.6137	16.7157	81	72
16.6167	17.1587	70	38
16.6177	17.2757	60	31
16.6617	16.7667	79	55
16.7157	17.4807	81	61
16.7177	17.4807	64	35
16.7667	17.4807	79	51
16.8267	17.4807	55	28
16.8267	17.0507	84	64
17.0507	17.4807	84	51
17.0507	17.1557	93	75
17.0537	17.4807	67	31
17.0537	17.4807	76	38
17.1037	17.2117	91	59
17.1557	17.4807	93	63
17.1587	17.4807	70	35
17.2117	17.4807	91	53
17.2747	17.4807	96	72
17.2757	17.4807	60	30
17.5507	17.7567	65	50
17.5517	17.7467	57	38
17.5517	17.6497	74	73
17.5537	17.7577	48	31
17.5997	17.7087	72	53
17.6497	17.7467	74	61
17.6527	17.7577	53	35
17.7087	17.8727	72	51
17.7617	17.8757	41	31
17.7617	17.8737	77	69
17.9957	18.2097	60	46
17.9957	18.0967	67	67
17.9967	18.2097	57	36
17.9987	18.2097	48	29
18.0477	18.1497	65	51
18.0967	18.2097	67	59
18.0977	18.2097	53	33
18.1497	18.3137	65	47
18.2087	18.3137	72	65
18.2097	18.3177	41	29
18.4357	18.6397	65	48
18.4397	18.5317	74	69
18.4407	18.6397	48	29
18.4407	18.6327	57	36
18.4847	18.5867	72	54
18.5317	18.6327	74	61
18.5337	18.6407	53	33
18.5867	18.7547	72	53
18.6427	18.7577	41	28
18.6427	18.7557	77	67
18.8667	19.0867	67	50
18.8677	18.9687	74	73
18.8697	19.0867	48	31
18.8697	19.0867	58	38
18.9197	19.0247	72	58
18.9687	19.0867	52	35
18.9687	19.0867	74	65
19.0247	19.1847	72	51
19.0797	19.1857	79	65
19.0807	19.1857	41	30
19.3007	19.5157	60	40
19.3007	19.3467	69	64
19.3047	19.5157	48	29
19.3047	19.5157	58	32
19.3497	19.4557	67	51
19.4027	19.5157	69	57
19.4037	19.5157	52	33
19.4557	19.6157	67	47
19.5147	19.6167	41	28
19.5147	19.6157	72	63
19.7307	19.9627	67	48
19.7317	19.9627	58	36
19.7317	19.7837	74	69
19.7357	19.9627	48	29
19.7847	19.8817	72	54
19.8297	19.9627	74	61
19.8327	19.9627	52	33
19.8817	20.0497	72	49
19.9447	20.0537	41	28
19.9447	20.0537	79	66
20.1617	20.3857	69	52
20.1627	20.3857	57	39
20.1627	20.2607	74	76
20.1647	20.3857	48	32
20.2147	20.3197	72	59
20.2607	20.3857	74	67
20.2636	20.3857	53	36
20.3197	20.4797	72	53
20.3727	20.4807	81	70
20.3757	20.4807	41	32
20.5957	20.8127	69	49
20.5957	20.6906	76	71
20.5997	20.8127	50	30
20.5997	20.8127	59	37
20.6447	20.7496	74	58
20.6906	20.8127	76	65
20.6916	20.8127	53	34
20.7496	20.9106	74	49
20.8017	20.9106	81	66
20.8057	20.9117	43	29
21.0256	21.2466	67	50
21.0266	21.2466	58	37
21.0266	21.1286	74	72
21.0296	21.2466	48	30
21.0796	21.1777	72	58
21.1286	21.2466	52	34
21.1286	21.2466	74	64
21.1777	21.3447	72	53
21.2377	21.3457	79	65
21.2397	21.3476	36	30
21.4597	22.0216	65	54
21.4637	22.7657	57	40
21.4637	21.5667	74	80
21.4647	22.7657	48	33
21.5126	21.6247	72	59
21.5667	22.7657	74	66
21.5686	22.1467	53	37
21.6247	22.3946	72	57
21.6847	21.9117	77	71
21.6877	22.7657	41	32
21.9117	22.4997	77	51
21.9157	22.7657	69	38
21.9157	22.0207	86	72
21.9187	22.7657	60	31
21.9676	22.0836	84	55
22.0207	22.7657	86	61
22.0216	22.6157	65	35
22.0836	22.7657	84	51
22.1427	22.3877	89	65
22.1467	22.7657	53	28
22.3877	22.7657	89	51
22.3917	22.7657	81	38
22.3917	22.4967	98	75
22.3946	22.7657	72	31
22.4447	22.5527	96	60
22.4967	22.7657	98	66
22.4997	22.7657	77	35
22.5527	22.7657	96	58
22.6137	22.7657	101	71
22.6157	22.7657	65	30
22.9097	23.3507	67	39
22.9097	23.3537	74	58
22.9107	23.3547	55	25
22.9107	23.3547	64	30
23.0077	23.3547	72	47
23.0107	23.3547	60	31
23.1197	23.3547	79	65
23.1207	23.3547	48	31
23.3507	23.7666	67	37
23.3537	23.7666	74	56
23.3547	23.7666	55	24
23.3547	23.7666	63	29
23.4487	23.7847	72	44
23.4517	23.7666	60	30
23.5606	23.7856	79	66
23.5617	23.7856	48	30
23.7876	24.2196	69	38
23.7876	24.2196	74	58
23.7886	24.2196	60	25
23.7886	24.2156	65	31
23.8767	24.2186	72	47
23.8786	24.2186	63	32
23.9916	24.2186	53	31
23.9916	24.2196	81	70
24.2156	24.6456	65	42
24.2186	24.6496	53	26
24.2186	24.6496	63	31
24.2186	24.6486	72	61
24.3066	24.6496	70	47
24.3086	24.6496	58	32
24.4186	24.6496	82	64
24.4226	24.6496	46	31
24.6456	25.0826	65	34
24.6486	25.0836	72	52
24.6496	25.0836	53	23
24.6496	25.0836	62	29
24.7446	25.1806	58	30
24.7446	25.1806	70	44
24.8556	25.2926	46	29
24.8556	25.2896	77	59
25.0826	25.5166	65	32
25.0836	25.5176	53	24
25.0836	25.5206	62	29
25.0836	25.5166	72	50
25.1806	25.5206	58	30
25.1806	25.5206	70	44
25.2896	25.5206	77	59
25.2926	25.5206	46	29
25.5166	25.9576	65	38
25.5166	25.9586	72	56
25.5176	25.9606	53	24
25.5176	25.9586	61	30
25.6116	25.9616	70	47
25.6146	25.9616	58	31
25.7266	25.9616	77	65
25.7276	25.9616	46	31
25.9576	26.3746	65	37
25.9586	26.3746	61	29
25.9586	26.3746	72	56
25.9606	26.3746	53	24
26.0556	26.3846	70	44
26.0566	26.3746	58	30
26.1686	26.3856	46	30
26.1686	26.3846	77	66
26.3886	26.8216	67	38
26.3886	26.8216	72	58
26.3896	26.8206	51	25
26.3896	26.8196	61	31
26.4866	26.8216	58	32
26.4866	26.8196	70	47
26.5966	26.8216	79	70
26.5976	26.8216	39	31
26.8186	27.2536	63	42
26.8196	27.2566	61	31
26.8196	27.2536	70	61
26.8206	27.2566	51	26
26.9136	27.2566	68	47
26.9166	27.2566	56	32
27.0266	27.2566	80	64
27.0286	27.2566	44	31
27.2536	27.6875	63	34
27.2536	27.6905	70	52
27.2556	27.6905	60	29
27.2566	27.6915	51	23
27.3556	27.7855	68	44
27.3576	27.7885	56	30
27.4635	27.8975	44	29
27.4635	27.8965	75	59
27.6875	28.1245	63	32
27.6905	28.1255	60	29
27.6905	28.1245	70	50
27.6915	28.1255	51	24
27.7855	28.1285	68	44
27.7885	28.1285	56	30
27.8965	28.1285	75	59
27.8975	28.1285	44	29
28.1245	28.5625	63	38
28.1245	28.5655	70	56
28.1255	28.5655	51	24
28.1255	28.5655	60	30
28.2195	28.5665	68	47
28.2215	28.5665	56	31
28.3315	28.5665	75	65
28.3345	28.5665	43	31
28.5625	28.9745	63	37
28.5655	28.9745	51	24
28.5655	28.9745	60	29
28.5655	28.9745	70	56
28.6605	28.9925	68	44
28.6635	28.9745	56	30
28.7725	28.9925	75	66
28.7755	28.9935	43	30
28.9935	29.4345	63	40
28.9955	29.4405	51	25
28.9955	29.4375	60	31
28.9955	29.4405	70	59
29.0905	29.4375	68	47
29.0945	29.4405	56	32
29.2015	29.4405	77	68
29.2025	29.4405	43	31
29.4345	29.8785	63	33
29.4375	29.8785	60	27
29.4375	29.8775	68	58
29.4385	29.8785	50	23
29.5275	29.8785	67	46
29.5285	29.8785	55	31
29.6445	29.8785	43	30
29.6445	29.8785	75	61
29.8755	30.3185	62	30
29.8775	30.3185	68	52
29.8785	30.3195	50	23
29.8785	30.3195	59	29
29.9735	30.4135	67	44
29.9755	30.4175	55	30
30.0905	30.5255	74	59
30.0915	30.5265	43	29
30.3185	30.7695	62	27
30.3185	30.7695	68	50
30.3195	30.7695	50	24
30.3195	30.7695	59	29
30.4135	30.7695	67	44
30.4175	30.7695	55	30
30.5255	30.7695	74	59
30.5265	30.7695	43	29
30.7635	31.2084	63	28
30.7675	31.2115	60	25
30.7675	31.2115	70	48
30.7685	31.2115	51	18
30.8545	31.2115	68	38
30.8575	31.2115	56	26
30.9735	31.2045	75	55
30.9745	31.2115	43	26
31.2045	31.6134	75	34
31.2075	31.6134	82	52
31.2084	31.6134	63	22
31.2084	31.6134	72	28
31.2965	31.6314	80	42
31.2984	31.6134	68	29
31.4074	31.6314	87	64
31.4115	31.6325	55	28
31.6344	32.0714	75	38
31.6344	32.0754	82	58
31.6354	32.0724	72	29
31.6384	32.0754	63	23
31.7324	32.0724	80	45
31.7334	32.0754	68	30
31.8444	32.0754	89	66
31.8454	32.0754	55	29
32.0714	32.5094	75	37
32.0724	32.5094	72	28
32.0724	32.5074	80	56
32.0734	32.5094	62	23
32.1674	32.5094	79	44
32.1704	32.5094	67	29
32.2794	32.5094	87	58
32.2824	32.5094	55	28
32.5064	32.9404	74	33
32.5074	32.9434	71	28
32.5074	32.9414	80	50
32.5094	32.9434	62	21
32.6014	33.0374	79	42
32.6044	33.0384	67	29
32.7154	33.1504	86	57
32.7164	33.1514	55	27
32.9404	33.3704	74	29
32.9414	33.3744	80	49
32.9434	33.3734	62	22
32.9434	33.3714	71	28
33.0374	33.3714	79	42
33.0384	33.3744	67	29
33.1504	33.3744	86	57
33.1514	33.3744	55	27
33.3704	33.7904	74	34
33.3714	33.7904	71	27
33.3714	33.7904	79	50
33.3734	33.7904	62	19
33.4664	33.8084	78	42
33.4684	33.7904	66	28
33.5804	33.8114	54	27
33.5804	33.8094	86	59
33.8124	34.2284	62	30
33.8124	34.2284	67	47
33.8154	34.2284	50	18
33.8154	34.2284	59	25
33.9094	34.2284	54	26
33.9094	34.2454	66	36
34.0214	34.2454	74	57
34.0224	34.2464	42	25
34.2494	34.6804	64	33
34.2494	34.6764	67	51
34.2504	34.6804	50	19
34.2504	34.6804	61	26
34.3374	34.6804	66	38
34.3404	34.6804	54	27
34.4524	34.6804	76	59
34.4534	34.6804	42	26
34.6754	35.1174	62	33
34.6764	35.1133	67	50
34.6794	35.1174	59	25
34.6804	35.1143	49	19
34.7754	35.1174	66	37
34.7764	35.1174	54	26
34.8863	35.1174	42	25
34.8863	35.1174	74	51
35.1113	35.5473	61	29
35.1133	35.5483	58	25
35.1133	35.5483	67	46
35.1143	35.5513	49	18
35.2043	35.6463	54	26
35.2043	35.6453	66	36
35.3203	35.7583	42	24
35.3203	35.7573	73	51
35.5473	35.9923	61	27
35.5483	35.9923	58	25
35.5483	35.9893	67	43
35.5513	35.9923	49	18
35.6453	35.9923	66	36
35.6463	35.9923	54	26
35.7573	35.9923	73	51
35.7583	35.9923	42	24
35.9883	36.4293	59	37
35.9893	36.4333	55	29
35.9893	36.4303	67	56
35.9923	36.4333	50	23
36.0863	36.4343	66	47
36.0873	36.4343	54	30
36.1963	36.4343	71	65
36.1983	36.4343	42	30
36.4293	36.8493	59	36
36.4303	36.8493	67	56
36.4333	36.8493	50	23
36.4333	36.8493	55	29
36.5273	36.8493	54	31
36.5273	36.8673	66	44
36.6433	36.8673	71	67
36.6463	36.8713	42	29
36.8713	37.3333	61	38
36.8743	37.3323	55	31
36.8743	37.3303	67	60
36.8753	37.3333	52	25
36.9753	37.3333	66	47
36.9763	37.3333	54	32
37.0923	37.3333	42	31
37.0923	37.3333	73	72
37.3293	37.8053	59	40
37.3303	37.8013	67	61
37.3323	37.8013	55	31
37.3333	37.8053	50	25
37.4313	37.8053	66	47
37.4343	37.8053	54	32
37.5563	37.8053	71	63
37.5573	37.8053	42	29
37.7993	38.3053	58	35
37.8013	38.7253	55	29
37.8013	38.7253	67	54
37.8023	38.3083	49	22
37.9143	38.4183	66	44
37.9163	38.3063	54	30
38.0373	38.5533	70	59
38.0393	38.5543	42	28
38.3053	38.7253	58	31
38.3063	38.7253	54	29
38.3063	38.7253	68	50
38.3083	38.7253	49	23
38.4183	38.8313	66	43
38.4213	38.7253	52	30
38.5533	38.8313	70	59
38.5543	38.8323	42	27
38.8343	39.2763	59	48
38.8343	39.2763	68	72
38.8353	39.2753	51	42
38.9293	39.2763	66	57
38.9323	39.2763	42	38
39.0413	39.2763	71	78
39.0443	39.2763	35	34
39.2743	39.6703	54	45
39.2753	39.6703	51	39
39.2753	39.6703	61	66
39.3673	39.6703	42	36
39.3673	39.7023	59	51
39.4763	39.7033	66	74
39.4783	39.7033	35	31
39.7053	40.1363	59	46
39.7053	40.1343	68	67
39.7063	40.1363	51	39
39.8013	40.1363	66	53
39.8043	40.1363	42	36
39.9113	40.1363	71	78
39.9123	40.1363	35	30
40.1343	40.5523	61	48
40.1343	40.5523	68	72
40.1363	40.5523	52	42
40.2313	40.5523	42	38
40.2313	40.5593	66	55
40.3403	40.5603	73	81
40.3423	40.5603	35	32
40.5623	40.9833	54	47
40.5633	40.9833	52	40
40.5633	40.9833	63	66
40.6613	40.9833	42	37
40.6613	40.9903	61	53
40.7713	40.9903	66	75
40.7733	40.9913	35	31
40.9933	41.4253	61	46
40.9933	41.4243	68	67
40.9943	41.4253	52	39
41.0923	41.4253	42	36
41.0923	41.4253	66	57
41.2003	41.4253	73	76
41.2013	41.4253	35	30
41.4223	41.8122	63	51
41.4243	41.8122	51	43
41.4243	41.8122	68	75
41.5143	41.8402	66	58
41.5152	41.8122	42	39
41.6242	41.8442	75	78
41.6252	41.8442	35	35
41.8472	42.2812	59	47
41.8482	42.2812	51	40
41.8482	42.2752	68	69
41.9432	42.2812	66	53
41.9452	42.2812	42	37
42.0542	42.2812	71	76
42.0552	42.2812	35	31
42.2752	42.7122	68	48
42.2762	42.7162	75	70
42.2782	42.7162	53	40
42.3732	42.7162	73	59
42.3742	42.7162	47	37
42.4812	42.7162	80	76
42.4842	42.7162	37	32
42.7122	43.5802	61	51
42.7122	43.9972	68	75
42.7132	43.2402	58	44
42.7162	43.3502	49	36
42.8032	43.9972	52	40
42.8032	43.1392	66	63
42.9152	43.2372	73	81
42.9162	43.9972	42	35
43.1392	43.9972	66	49
43.1432	43.7972	54	34
43.1432	43.6822	64	42
43.1432	43.9972	75	70
43.2372	43.9972	73	55
43.2402	43.9972	58	38
43.3492	43.5762	78	76
43.3502	43.9972	49	30
43.5762	43.9972	78	49
43.5772	43.9972	87	74
43.5802	43.9972	61	34
43.5802	43.9972	70	42
43.6782	44.0732	85	58
43.6822	43.9972	64	38
43.7962	44.0742	90	82
43.7972	44.0742	54	32
44.0752	44.4932	59	48
44.0762	44.4932	68	72
44.0772	44.4932	51	42
44.1722	44.5112	66	57
44.1752	44.4932	42	38
44.2812	44.5142	71	78
44.2832	44.5152	35	34
44.5152	44.9482	54	45
44.5182	44.9482	61	66
44.5192	44.9462	51	39
44.6122	44.9452	59	46
44.6132	44.9482	42	36
44.7252	44.9482	35	31
44.7252	44.9482	66	74
44.9452	45.3832	59	46
44.9462	45.3832	51	39
44.9462	45.3832	68	67
45.0432	45.3832	42	36
45.0432	45.3832	66	53
45.1552	45.3832	71	78
45.1562	45.3832	35	30
45.3802	45.7712	61	48
45.3832	45.7712	52	42
45.3832	45.7712	68	72
45.4782	45.8062	66	55
45.4802	45.7712	42	38
45.5832	45.8072	73	81
45.5852	45.8092	35	32
45.8092	46.2191	54	47
45.8132	46.2191	63	66
45.8142	46.2191	52	40
45.9082	46.2191	42	37
45.9082	46.2362	61	53
46.0132	46.2372	35	31
46.0132	46.2362	66	75
46.2401	46.6671	61	46
46.2401	46.6641	68	67
46.2412	46.6671	52	39
46.3311	46.6671	66	57
46.3321	46.6671	42	36
46.4431	46.6671	73	76
46.4441	46.6671	35	30
46.6641	47.0551	63	51
46.6641	47.0551	68	75
46.6671	47.0551	51	43
46.7611	47.0901	66	58
46.7621	47.0551	42	39
46.8661	47.0911	75	78
46.8671	47.0911	35	35
47.0921	47.4791	63	47
47.0951	47.4791	53	40
47.0951	47.4791	70	69
47.1851	47.4791	47	37
47.1851	47.5211	68	53
47.2971	47.5221	37	31
47.2971	47.5211	75	76
47.5221	47.9551	61	48
47.5241	47.9551	68	70
47.5251	47.9551	58	40
47.6131	47.9551	66	59
47.6161	47.9551	52	37
47.7251	47.9551	73	76
47.7271	47.9551	42	32
47.9521	49.0431	59	51
47.9551	49.2421	51	44
47.9551	49.2421	68	75
48.0501	48.9271	66	63
48.0511	49.2421	42	40
48.1591	48.3831	71	81
48.1611	49.2421	35	35
48.3831	49.2421	71	49
48.3841	49.2421	80	70
48.3851	49.2421	63	42
48.4801	49.2421	54	38
48.4801	49.2421	78	55
48.5891	48.8191	83	76
48.5921	49.2421	47	30
48.8191	49.2421	83	49
48.8191	49.2421	92	74
48.8201	49.2421	75	42
48.9251	49.3191	90	58
48.9271	49.2421	66	38
49.0411	49.3201	95	82
49.0431	49.3201	59	32
49.3241	49.7431	58	33
49.3241	49.7431	61	44
49.3241	49.7431	68	65
49.4141	49.7611	66	51
49.4151	49.7431	49	34
49.5301	49.7611	73	71
49.5341	49.7621	42	31
49.7641	50.2201	61	40
49.7651	50.1961	57	32
49.7651	50.1951	68	59
49.8531	50.2201	66	48
49.8561	50.2201	49	33
49.9641	50.2201	73	70
49.9681	50.2201	42	29
50.1951	50.626	63	44
50.1951	50.626	68	65
50.1961	50.626	57	33
50.2901	50.626	66	51
50.2921	50.626	47	34
50.401	50.626	42	29
50.401	50.626	75	76
50.6231	51.049	64	46
50.6251	51.049	69	68
50.626	51.049	57	35
50.721	51.052	68	52
50.723	51.049	47	36
50.837	51.056	76	76
50.839	51.057	40	29
51.059	51.494	59	39
51.06	51.497	56	31
51.06	51.494	66	56
51.155	51.497	64	46
51.158	51.497	47	32
51.266	51.497	40	26
51.266	51.497	71	63
51.494	51.928	59	39
51.494	51.931	66	59
51.497	51.932	56	30
51.591	51.932	64	49
51.592	51.932	47	31
51.703	51.932	71	66
51.704	51.932	40	25
51.928	52.347	59	44
51.931	52.347	66	65
51.932	52.347	55	33
52.026	52.365	64	51
52.029	52.347	47	34
52.134	52.368	71	71
52.138	52.368	40	31
52.369	52.827	59	40
52.372	52.803	55	32
52.372	52.803	66	59
52.463	52.827	47	33
52.463	52.827	64	48
52.572	52.827	71	70
52.575	52.827	40	29
52.799	53.238	61	44
52.803	53.237	55	33
52.803	53.238	66	65
52.898	53.238	64	51
52.899	53.238	45	34
53.009	53.238	40	29
53.009	53.238	73	76
53.236	53.656	62	46
53.237	53.656	55	35
53.237	53.656	67	68
53.332	53.667	66	52
53.334	53.656	45	36
53.443	53.668	38	29
53.443	53.667	74	76
53.67	54.105	57	39
53.671	54.108	54	31
53.671	54.108	64	56
53.762	54.108	62	46
53.765	54.108	45	32
53.878	54.108	69	63
53.88	54.108	38	26
54.105	54.5359	57	39
54.108	54.5389	54	30
54.108	54.5389	64	59
54.199	54.5379	62	49
54.2	54.5389	45	31
54.3139	54.5389	69	66
54.3149	54.5389	38	25
54.5359	54.9549	57	40
54.5379	54.9549	62	60
54.5389	54.9549	54	31
54.6329	54.9549	45	32
54.6329	54.9719	61	48
54.7449	54.9759	37	29
54.7449	54.9719	69	67
54.9759	55.43	69	37
54.977	55.4069	74	56
54.979	55.4069	57	24
54.979	55.43	66	30
55.074	55.43	73	45
55.0749	55.43	61	31
55.1859	55.43	81	66
55.1869	55.43	49	27
55.4069	55.8399	57	24
55.4069	55.8399	71	40
55.4069	55.8379	74	60
55.4089	55.8399	68	31
55.5049	55.8399	61	32
55.5049	55.8399	73	48
55.6159	55.8399	49	27
55.6159	55.8399	83	70
55.8369	56.2569	69	46
55.8379	56.2569	56	24
55.8379	56.2569	74	68
55.8389	56.2569	66	35
55.9319	56.2669	73	52
55.9349	56.2569	61	36
56.0439	56.2679	81	72
56.0469	56.2679	49	29
56.2709	56.7059	68	39
56.2719	56.7089	74	52
56.2739	56.7089	56	24
56.2749	56.7089	65	31
56.3669	56.7099	73	46
56.3689	56.7099	61	32
56.4819	56.7099	49	26
56.4819	56.7099	80	63
56.7059	57.1399	68	39
56.7089	57.1399	56	24
56.7089	57.1399	65	30
56.7089	57.1389	74	55
56.8039	57.1399	73	49
56.8059	57.1399	61	31
56.9089	57.1399	80	66
56.9109	57.1399	49	25
57.1369	57.5589	69	34
57.1389	57.5589	74	51
57.1399	57.5589	57	19
57.1399	57.5589	66	26
57.2329	57.5729	73	40
57.2339	57.5589	61	27
57.3459	57.5759	49	25
57.3459	57.5729	81	55
57.5769	58.0309	81	36
57.5799	58.0139	69	23
57.5799	58.0119	86	53
57.5809	58.0309	78	29
57.6749	58.0309	73	26
57.6749	58.0309	85	37
57.7869	58.0309	61	23
57.7869	58.0309	93	54
58.0119	58.4379	86	57
58.0139	58.4409	69	23
58.0139	58.4409	80	38
58.1019	58.4409	85	40
58.1049	58.4409	73	27
58.2169	58.4409	61	23
58.2169	58.4409	95	60
58.4369	58.8569	81	43
58.4379	58.8569	68	23
58.4379	58.8569	78	33
58.4379	58.8569	86	64
58.5329	58.8678	85	44
58.5349	58.8569	73	30
58.6438	58.8688	93	64
58.6478	58.8688	61	25
58.8708	59.3088	80	37
58.8708	59.3088	86	53
58.8718	59.3098	68	23
58.8748	59.3098	77	29
58.9698	59.3128	85	38
58.9708	59.3128	73	27
59.0798	59.3128	92	53
59.0808	59.3128	61	22
59.3088	59.7438	80	37
59.3088	59.7468	86	55
59.3098	59.7458	68	23
59.3098	59.7468	77	29
59.4038	59.7448	85	40
59.4068	59.7468	73	26
59.5158	59.7468	92	54
59.5188	59.7468	61	21
59.7438	60.1628	80	38
59.7448	60.1628	85	57
59.7458	60.1628	68	23
59.7468	60.1628	77	29
59.8338	60.1808	84	40
59.8348	60.1628	72	27
59.9528	60.1818	60	25
59.9528	60.1808	92	55
60.1838	60.6388	68	35
60.1838	60.6148	73	52
60.1848	60.6148	56	22
60.1848	60.6388	65	28
60.2758	60.6388	60	25
60.2758	60.6388	72	36
60.3868	60.6388	80	53
60.3878	60.6388	48	22
60.6148	61.0458	56	22
60.6148	61.0458	70	37
60.6148	61.0448	73	55
60.6158	61.0458	67	28
60.7118	61.0458	72	39
60.7128	61.0458	60	26
60.8148	61.0458	82	58
60.8168	61.0458	48	22
61.0418	61.4648	68	40
61.0448	61.4648	73	61
61.0458	61.4648	55	22
61.0458	61.4648	65	32
61.1398	61.4758	72	42
61.1428	61.4648	60	28
61.2508	61.4758	80	60
61.2518	61.4768	48	24
61.4788	61.9128	67	35
61.4798	61.9168	55	21
61.4798	61.9128	73	50
61.4828	61.9168	64	27
61.5748	61.9168	72	36
61.5768	61.9168	60	25
61.6888	61.9168	79	50
61.6898	61.9168	48	19
61.9128	62.3538	67	35
61.9128	62.3538	73	52
61.9168	62.3508	55	21
61.9168	62.3538	64	27
62.0118	62.3538	72	37
62.0128	62.3538	60	24
62.1168	62.3538	48	18
62.1168	62.3538	79	51
62.3478	62.7738	65	35
62.3498	62.7738	74	52
62.3508	62.7738	55	21
62.3508	62.7738	62	27
62.4488	62.7738	60	25
62.4488	62.7948	72	37
62.5638	62.7958	48	23
62.5638	62.7948	77	51
62.7958	63.2668	65	32
62.7988	63.2428	74	49
62.7998	63.2458	55	21
62.7998	63.2668	62	26
62.8928	63.2668	72	34
62.8938	63.2668	60	23
63.0088	63.2668	77	49
63.0118	63.2668	48	21
63.2428	63.7118	67	34
63.2428	63.7088	74	51
63.2458	63.7088	55	19
63.2468	63.7118	64	26
63.3448	63.7118	72	36
63.3478	63.7118	60	24
63.4638	63.7118	48	19
63.4638	63.7118	79	53
63.7078	64.1668	65	37
63.7088	64.1668	55	19
63.7088	64.1668	62	29
63.7088	64.1668	74	55
63.8098	64.1848	72	38
63.8108	64.1668	60	26
63.9328	64.1848	77	55
63.9368	64.1878	48	22
64.1878	64.6778	64	32
64.1918	64.6788	55	19
64.1918	64.6808	62	25
64.1918	64.6788	74	47
64.2968	64.6808	72	32
64.2998	64.6788	60	23
64.4228	64.6808	48	18
64.4228	64.6808	76	46
64.6778	65.1188	64	31
64.6788	65.1188	55	19
64.6788	65.1188	60	25
64.6788	65.1188	74	48
64.7908	65.2028	72	34
64.7938	65.1188	58	22
64.9228	65.2038	76	47
64.9238	65.2038	48	17
65.2058	65.4128	65	59
65.2068	65.4058	57	46
65.2068	65.4058	74	87
65.2078	65.4128	48	37
65.3018	65.4138	72	63
65.3038	65.4138	53	42
65.4168	65.4688	41	37
65.4168	65.4688	77	76
65.6438	65.8638	60	54
65.6448	65.8638	48	34
65.6448	65.8638	57	44
65.6448	65.8638	67	80
65.7428	65.8638	65	55
65.7458	65.8638	53	39
65.8578	65.9038	41	34
65.8578	65.9028	72	75
66.0778	66.2808	65	57
66.0818	66.2738	57	44
66.0818	66.2738	74	82
66.0828	66.2818	48	34
66.1728	66.2838	72	58
66.1738	66.2838	53	39
66.2848	66.3348	41	33
66.2848	66.3338	77	75
66.5078	66.7218	67	59
66.5088	66.7218	58	46
66.5088	66.7218	74	87
66.5118	66.7218	48	37
66.6068	66.7218	72	61
66.6098	66.7218	52	42
66.7148	66.7678	79	73
66.7158	66.7678	41	35
66.9348	67.1518	60	54
66.9388	67.1518	69	76
66.9398	67.1518	58	44
66.9418	67.1518	48	34
67.0408	67.1518	52	39
67.0408	67.1518	67	55
67.1458	67.1978	72	71
67.1468	67.1988	41	33
67.3658	67.5928	67	57
67.3698	67.5928	58	44
67.3698	67.5928	74	82
67.3708	67.5928	48	34
67.4678	67.5928	72	63
67.4688	67.5928	52	39
67.5758	67.6208	79	78
67.5768	67.6218	41	33
67.7888	68.0097	69	63
67.7898	68.0097	74	92
67.7928	68.0097	57	47
67.7938	68.0097	48	38
67.8918	68.0097	72	64
67.8938	68.0097	53	44
68.0028	68.0518	81	77
68.0068	68.0518	41	38
68.2198	68.4367	65	58
68.2207	68.4367	57	45
68.2207	68.4367	74	85
68.2227	68.4367	50	35
68.3157	68.4367	53	40
68.3157	68.4367	72	58
68.4267	68.4747	77	75
68.4297	68.4757	41	34
68.6507	68.8637	74	59
68.6507	68.8637	81	86
68.6517	68.8637	59	45
68.6537	68.8637	50	35
68.7447	68.8637	53	40
68.7447	68.8637	79	65
68.8567	68.9087	86	78
68.8577	68.9127	43	35
69.0777	69.9537	67	63
69.0807	69.6107	64	48
69.0807	70.3727	74	92
69.0837	69.7227	55	39
69.1797	69.5077	72	69
69.1817	70.3727	58	45
69.2907	69.6097	79	78
69.2947	70.3727	48	38
69.5077	70.3727	72	61
69.5107	70.3727	81	86
69.5117	70.1767	60	37
69.5117	70.0577	70	46
69.6097	70.3727	79	61
69.6107	70.3727	64	42
69.7217	69.9487	84	76
69.7227	70.3727	55	33
69.9487	70.3727	84	61
69.9527	70.3727	76	46
69.9527	70.3727	93	90
69.9537	70.3727	67	37
70.0567	70.3727	91	64
70.0577	70.3727	70	42
70.1757	70.3727	96	82
70.1767	70.3727	60	35
70.4487	70.6587	65	59
70.4497	70.6457	57	46
70.4497	70.6457	74	87
70.4527	70.6597	48	37
70.5507	70.6597	72	61
70.5517	70.6627	53	42
70.6627	70.7087	41	37
70.6627	70.7076	77	82
70.8977	71.1106	60	54
70.8977	71.1106	67	80
70.8986	71.1106	57	44
70.9006	71.1106	48	34
70.9917	71.1106	53	39
70.9917	71.1106	65	55
71.1046	71.1556	41	34
71.1046	71.1556	72	77
71.3316	71.5416	65	57
71.3316	71.5346	74	82
71.3326	71.5346	57	44
71.3346	71.5416	48	34
71.4326	71.5426	72	64
71.4336	71.5426	53	39
71.5446	71.5936	77	80
71.5456	71.5936	41	33
71.7646	71.9856	67	59
71.7696	71.9856	48	37
71.7696	71.9856	58	46
71.7696	71.9856	74	87
71.8676	71.9856	72	61
71.8706	71.9856	52	42
71.9756	72.0286	41	35
71.9756	72.0276	79	77
72.1956	72.4156	60	54
72.1996	72.4156	58	44
72.1996	72.4156	69	76
72.2006	72.4156	48	34
72.2976	72.4156	52	39
72.2976	72.4156	67	55
72.4096	72.4586	41	33
72.4096	72.4576	72	75
72.6336	72.8576	58	44
72.6336	72.8576	67	57
72.6336	72.8576	74	82
72.6346	72.8576	48	34
72.7276	72.8576	72	58
72.7286	72.8576	52	39
72.8396	72.8856	79	78
72.8406	72.8886	41	33
73.0596	73.2846	69	63
73.0606	73.2846	74	92
73.0636	73.2846	57	47
73.0646	73.2846	48	38
73.1626	73.2846	53	44
73.1626	73.2846	72	64
73.2696	73.3186	81	84
73.2706	73.3236	41	38
73.4906	73.7106	69	58
73.4906	73.7106	76	85
73.4916	73.7106	59	45
73.4946	73.7106	50	35
73.5916	73.7106	74	58
73.5926	73.7106	53	40
73.7046	73.7525	43	34
73.7046	73.7496	81	78
73.9215	74.1415	64	45
73.9215	74.1415	67	59
73.9215	74.1415	74	86
73.9225	74.1415	55	35
74.0195	74.1415	72	64
74.0225	74.1415	58	40
74.1345	74.1875	48	35
74.1345	74.1875	79	77
74.3615	74.8065	65	65
74.3625	74.8065	74	96
74.3655	74.8065	57	48
74.3665	74.8065	48	35
74.4635	74.8065	53	45
74.4635	74.8035	72	69
74.5755	74.8065	41	38
74.5755	74.8065	77	85
74.8035	75.2405	72	61
74.8035	75.2615	79	86
74.8045	75.2615	69	46
74.8065	75.2425	60	33
74.9045	75.2615	65	42
74.9045	75.2615	77	61
75.0165	75.2615	84	77
75.0175	75.2615	53	33
75.2405	75.7125	72	55
75.2415	75.7125	70	37
75.2415	75.7125	81	80
75.2425	75.6815	60	30
75.3395	75.6785	79	63
75.3415	75.7125	64	37
75.4505	75.7125	84	73
75.4515	75.7125	53	29
75.6775	75.7835	65	57
75.6785	76.1475	79	86
75.6815	76.1475	60	32
75.6815	76.1475	69	43
75.7805	76.1475	77	61
75.7835	76.1475	65	39
75.8935	76.1475	53	34
75.8935	76.1195	84	75
76.1195	76.5565	84	54
76.1225	76.5775	81	40
76.1225	76.5775	91	76
76.1235	76.5605	72	28
76.2215	76.5775	89	54
76.2245	76.5775	77	37
76.3335	76.5775	65	29
76.3335	76.5775	96	70
76.5565	77.0015	84	49
76.5595	77.0015	93	77
76.5605	77.0005	72	24
76.5605	77.0015	82	36
76.6555	76.9985	91	58
76.6575	77.0015	76	35
76.7705	77.0015	96	69
76.7715	77.0015	65	27
76.9975	77.0955	77	58
76.9985	77.4985	81	43
76.9985	77.4985	91	86
77.0005	77.4315	72	35
77.0935	77.4985	89	61
77.0955	77.4985	77	39
77.2095	77.4985	96	75
77.2115	77.4985	65	34
77.4315	77.8695	72	44
77.4315	77.8735	79	61
77.4355	77.8735	60	29
77.4355	77.8735	69	36
77.5335	77.8735	77	49
77.5345	77.8735	65	33
77.6455	77.8735	53	26
77.6455	77.8735	84	61
77.8695	78.3145	72	44
77.8725	78.3145	81	65
77.8735	78.3145	60	29
77.8735	78.3145	70	36
77.9675	78.3135	79	54
77.9705	78.3145	64	33
78.0825	78.3145	53	26
78.0825	78.3145	84	65
78.3105	78.4115	65	46
78.3135	78.7555	69	37
78.3135	78.7555	79	68
78.3145	78.7555	60	31
78.4115	78.7555	65	35
78.4115	78.7555	77	54
78.5215	78.7525	84	67
78.5235	78.7555	53	30
78.7525	79.1895	84	44
78.7545	79.2195	81	36
78.7545	79.2195	91	61
78.7555	79.1925	72	29
78.8455	79.2195	89	49
78.8465	79.2195	77	33
78.9645	79.2195	96	61
78.9655	79.2195	65	26
79.1895	79.6274	84	42
79.1905	79.6274	82	33
79.1905	79.6274	93	65
79.1925	79.6274	72	27
79.2875	79.6274	76	33
79.2875	79.6235	91	54
79.3985	79.6274	96	65
79.3995	79.6274	65	26
79.6235	79.7245	77	46
79.6235	80.0645	91	68
79.6265	80.0645	81	37
79.6274	80.0845	72	31
79.7215	80.0845	89	54
79.7245	80.0845	77	35
79.8334	80.0845	96	67
79.8344	80.0845	65	30
80.0635	80.4904	83	46
80.0645	80.4904	81	37
80.0645	80.4904	91	65
80.0675	80.4904	71	30
80.1625	80.4904	90	46
80.1645	80.4904	75	34
80.2745	80.4904	95	56
80.2774	80.4904	59	27
80.4974	80.9424	83	45
80.4985	80.9394	89	66
80.5005	80.9424	80	37
80.5014	80.9424	71	29
80.5994	80.9424	88	49
80.6004	80.9424	74	33
80.7114	80.9424	95	61
80.7124	80.9424	64	28
80.9384	81.3764	81	46
80.9394	81.4014	79	37
80.9394	81.4014	89	68
80.9424	81.4014	69	31
81.0334	81.3764	88	48
81.0364	81.4014	73	35
81.1464	81.4014	93	59
81.1484	81.4014	57	30
81.3764	81.8024	81	45
81.3764	81.8024	88	61
81.3774	81.8024	67	29
81.3774	81.8024	74	36
81.4744	81.8024	86	45
81.4774	81.8024	70	33
81.5864	81.8024	93	55
81.5874	81.8024	58	26
81.8094	82.2544	79	42
81.8104	82.2544	76	34
81.8104	82.2524	86	63
81.8134	82.2544	67	28
81.9094	82.2544	84	47
81.9114	82.2544	70	32
82.0234	82.2544	60	26
82.0234	82.2544	91	56
82.2514	82.3524	65	43
82.2524	82.6854	69	35
82.2524	82.6854	86	65
82.2544	82.6854	60	29
82.3524	82.6854	65	33
82.3524	82.6854	84	46
82.4624	82.6854	89	56
82.4644	82.6854	53	28
82.6894	83.1154	71	43
82.6894	83.1154	79	59
82.6904	83.1154	59	28
82.6904	83.1154	69	35
82.7874	83.1154	63	32
82.7874	83.1154	78	43
82.8984	83.1154	83	54
82.8994	83.1154	47	25
83.1254	83.5674	71	39
83.1264	83.5674	68	33
83.1264	83.5634	77	58
83.1294	83.5674	59	25
83.2214	83.5674	76	44
83.2244	83.5674	62	29
83.3334	83.5674	83	54
83.3364	83.5674	52	24
83.5634	84.0044	69	39
83.5634	84.0264	77	60
83.5644	84.0264	67	33
83.5674	84.0264	57	27
83.6634	84.0054	76	43
83.6654	84.0264	61	31
83.7764	84.0264	81	53
83.7774	84.0264	45	26
84.0044	84.4314	69	39
84.0054	84.4314	62	34
84.0054	84.4314	76	58
84.0084	84.4314	55	27
84.0984	84.4314	74	39
84.0994	84.4314	58	31
84.2184	84.4314	81	51
84.2194	84.4314	46	24
84.4383	84.8793	67	37
84.4393	84.8793	64	32
84.4393	84.8763	74	57
84.4413	84.8793	55	26
84.5403	84.8793	72	44
84.5413	84.8793	58	30
84.6523	84.8793	48	24
84.6523	84.8793	79	54
84.8723	85.7433	65	39
84.8763	85.3213	57	33
84.8763	85.7433	74	60
84.8793	85.3213	48	27
84.9743	85.3173	72	43
84.9773	85.4183	53	31
85.0893	85.4153	77	54
85.0903	85.5303	41	26
85.3173	85.7433	72	43
85.3183	85.7433	79	61
85.3213	85.7433	48	27
85.3213	85.7433	57	35
85.4153	85.7433	77	44
85.4183	85.7433	53	33
85.5283	85.7503	84	55
85.5303	85.7513	41	25
85.7513	86.1933	72	39
85.7543	86.1993	81	61
85.7553	86.1963	48	27
85.7553	86.1993	58	34
85.8523	86.1993	52	32
85.8523	86.1953	79	46
85.9643	86.1993	84	59
85.9653	86.1993	41	25
86.1933	86.6293	72	43
86.1953	86.6323	57	35
86.1953	86.6303	79	63
86.1963	86.6333	48	29
86.2873	86.7303	53	33
86.2873	86.7283	77	46
86.4063	86.8433	41	27
86.4063	86.8393	84	56
86.6293	87.0563	72	43
86.6303	87.0563	79	63
86.6323	87.0563	57	34
86.6333	87.0563	48	27
86.7283	87.0563	77	44
86.7303	87.0563	53	32
86.8393	87.0633	84	54
86.8433	87.0643	41	24
87.0643	87.5053	72	37
87.0673	87.5093	81	58
87.0683	87.5083	48	26
87.0683	87.5093	58	32
87.1653	87.5093	52	30
87.1653	87.5083	79	44
87.2763	87.5093	84	54
87.2773	87.5093	41	23
87.5053	87.9423	72	38
87.5083	88.3843	48	27
87.5083	88.3863	57	33
87.5083	87.9423	79	59
87.6033	88.0403	77	43
87.6053	88.8213	53	31
87.7183	88.1563	84	54
87.7193	88.3843	41	25
87.9423	88.3803	72	40
87.9423	88.3833	79	58
87.9463	89.2643	29	27
88.0403	88.4773	77	40
88.1563	88.5863	84	52
88.3803	88.8203	72	35
88.3833	88.8203	79	56
88.3843	89.6963	41	22
88.3843	89.6963	48	22
88.3863	89.6963	57	26
88.4773	88.8633	77	42
88.5863	89.0283	84	51
88.8203	89.2623	72	37
88.8203	88.9153	79	56
88.8213	90.1473	53	21
88.8213	90.1473	60	21
88.8243	90.1473	69	26
88.8633	88.9683	77	40
88.9153	89.2633	79	46
88.9683	89.3043	77	38
89.0283	89.4713	84	49
89.2623	89.6923	72	37
89.2633	89.3573	79	54
89.2643	93.6414	29	25
89.3043	89.4083	77	37
89.3573	89.6953	79	40
89.4083	89.7373	77	37
89.4713	89.9023	84	47
89.6923	90.1443	72	32
89.6953	89.7903	79	51
89.6963	93.6414	41	19
89.6963	93.6414	48	19
89.6963	93.6414	57	24
89.7373	89.8433	77	37
89.7903	90.1453	79	38
89.8433	90.1933	77	37
89.9023	90.3583	84	46
90.1443	90.5853	72	33
90.1453	90.2453	79	51
90.1473	93.6414	53	18
90.1473	93.6414	60	18
90.1473	93.6414	69	23
90.1933	90.2983	77	36
90.2453	90.3573	79	40
90.2983	90.4063	77	34
90.3573	90.4663	79	48
90.3583	90.7983	84	45
90.4063	90.5223	77	34
90.4663	90.5863	79	48
90.5223	90.6343	77	34
90.5853	91.0183	72	33
90.5863	90.6873	79	47
90.6343	90.7383	77	33
90.6873	90.7983	79	35
90.7383	90.8473	77	33
90.7983	90.9073	79	35
90.7983	91.2353	84	42
90.8473	90.9663	77	33
90.9073	91.0193	79	35
90.9663	91.0673	77	32
91.0183	91.4543	72	28
91.0193	91.1203	79	45
91.0673	91.1803	77	32
91.1203	91.2323	79	34
91.1803	91.2923	77	32
91.2323	91.3443	79	33
91.2353	92.2613	84	40
91.2923	91.4003	77	32
91.3443	91.4563	79	33
91.4003	91.5123	77	31
91.4543	93.6414	72	28
91.4563	91.5613	79	45
91.5123	91.6143	77	32
91.5613	91.6743	79	34
91.6143	91.7253	77	32
91.6743	93.6414	79	33
91.7253	91.8973	77	32
91.7823	93.6414	76	33
91.8973	93.6414	77	44
91.9573	93.6414	80	44
92.0193	93.6414	82	45
92.0793	93.6414	81	46
92.1353	93.6414	83	46
92.2023	93.6414	86	47
92.2613	93.6414	84	48
92.3243	93.6414	88	48
92.3803	93.6414	91	49
92.4404	93.6414	89	50
92.5033	93.6414	92	50
92.5664	93.6414	94	51
92.6323	93.6414	93	51
92.6954	93.6414	95	52
92.7583	93.6414	98	53
92.8214	93.6414	96	53
92.8873	93.6414	101	60
94.3893	95.1373	57	31
94.3893	95.1383	60	31
94.3903	95.1383	69	36
94.3933	95.1413	36	23
94.3933	95.1423	48	29
95.1423	97.3963	57	31
95.1443	97.3963	65	31
95.1453	104.588	29	23
95.1453	97.3993	41	29
95.1453	97.3983	69	36
97.3963	104.588	57	31
97.3963	104.588	65	31
97.3983	104.588	69	36
97.3993	104.588	41	23
97.3993	104.588	48	29
