# onset,offset,note,velocity
0.503062	0.639238	72.000000	96.000000
0.503062	0.639238	48.000000	88.000000
0.618558	0.750147	63.000000	80.000000
0.620436	0.752025	55.000000	73.000000
0.730406	0.863042	62.000000	77.000000
0.732284	0.865026	53.000000	72.000000
0.843193	0.981863	63.000000	77.000000
0.845178	0.983821	55.000000	72.000000
0.963236	1.099720	51.000000	80.000000
0.965194	1.101611	60.000000	80.000000
1.079898	1.211984	55.000000	72.000000
1.081789	1.213875	63.000000	76.000000
1.195005	1.328150	62.000000	76.000000
1.195944	1.329143	53.000000	73.000000
1.305378	1.424375	63.000000	76.000000
1.305378	1.424375	55.000000	73.000000
1.428398	1.568356	72.000000	96.000000
1.428398	1.568356	48.000000	88.000000
1.545812	1.676985	55.000000	74.000000
1.548695	1.679788	63.000000	80.000000
1.658250	1.790027	53.000000	74.000000
1.660128	1.791972	62.000000	78.000000
1.770608	1.906904	63.000000	78.000000
1.772512	1.908862	55.000000	72.000000
1.886332	2.022105	60.000000	80.000000
1.891213	2.026598	51.000000	80.000000
2.003960	2.130011	63.000000	78.000000
2.003960	2.130011	55.000000	73.000000
2.112026	2.240035	53.000000	73.000000
2.113823	2.242073	62.000000	77.000000
2.219945	2.341664	63.000000	77.000000
2.222761	2.344695	55.000000	73.000000
2.341664	2.479731	68.000000	96.000000
2.343702	2.481622	48.000000	88.000000
2.460767	2.592933	56.000000	73.000000
2.465582	2.597654	65.000000	80.000000
2.575016	2.707652	55.000000	73.000000
2.575955	2.708631	64.000000	76.000000
2.687280	2.823630	65.000000	76.000000
2.692081	2.828552	56.000000	73.000000
2.803956	2.940937	60.000000	80.000000
2.804935	2.941876	53.000000	80.000000
2.922054	3.053710	65.000000	76.000000
2.922054	3.053710	56.000000	73.000000
3.034921	3.167436	55.000000	73.000000
3.036799	3.169421	64.000000	76.000000
3.150565	3.269602	65.000000	76.000000
3.152550	3.271573	56.000000	73.000000
3.266638	3.403846	48.000000	88.000000
3.269602	3.406703	68.000000	96.000000
3.384762	3.517921	56.000000	74.000000
3.387686	3.520777	65.000000	80.000000
3.498904	3.632961	55.000000	72.000000
3.501760	3.635978	64.000000	77.000000
3.612978	3.752668	65.000000	77.000000
3.614882	3.754585	56.000000	72.000000
3.736333	3.870484	60.000000	80.000000
3.738251	3.872361	53.000000	80.000000
3.850743	3.982332	65.000000	76.000000
3.850743	3.982332	56.000000	74.000000
3.963530	4.096487	64.000000	76.000000
3.963530	4.096487	55.000000	74.000000
4.074439	4.195273	65.000000	76.000000
4.079348	4.200248	56.000000	74.000000
4.198277	4.335002	71.000000	96.000000
4.200248	4.336867	48.000000	88.000000
4.316334	4.446945	56.000000	74.000000
4.317273	4.447883	65.000000	80.000000
4.429215	4.560952	63.000000	76.000000
4.430154	4.561931	55.000000	74.000000
4.540285	4.677601	65.000000	75.000000
4.541264	4.678567	56.000000	74.000000
4.656425	4.790589	62.000000	80.000000
4.657404	4.791528	53.000000	80.000000
4.771841	4.902947	56.000000	74.000000
4.775609	4.906689	65.000000	76.000000
4.883287	5.015090	55.000000	74.000000
4.887028	5.018993	63.000000	76.000000
4.998488	5.115687	56.000000	73.000000
5.000446	5.117658	65.000000	76.000000
5.117658	5.254813	71.000000	96.000000
5.117658	5.254813	48.000000	88.000000
5.233275	5.364368	56.000000	75.000000
5.234214	5.365307	65.000000	80.000000
5.343768	5.475867	63.000000	76.000000
5.344707	5.476860	55.000000	75.000000
5.458004	5.596513	65.000000	80.000000
5.458996	5.597492	56.000000	75.000000
5.576061	5.711647	62.000000	80.000000
5.576061	5.711647	53.000000	80.000000
5.695675	5.827250	56.000000	74.000000
5.696613	5.828189	65.000000	77.000000
5.805632	5.938509	63.000000	77.000000
5.809387	5.942545	55.000000	74.000000
5.919358	6.040325	56.000000	74.000000
5.921369	6.042417	65.000000	77.000000
6.043463	6.187069	72.000000	96.000000
6.043463	6.187069	48.000000	88.000000
6.163761	6.293164	51.000000	75.000000
6.168615	6.297777	67.000000	80.000000
6.279324	6.409719	65.000000	75.000000
6.279324	6.409719	50.000000	75.000000
6.388235	6.525363	67.000000	75.000000
6.388235	6.525363	51.000000	75.000000
6.504442	6.641824	63.000000	80.000000
6.506440	6.643608	55.000000	80.000000
6.622968	6.747959	67.000000	76.000000
6.624859	6.749730	51.000000	75.000000
6.729318	6.855074	50.000000	75.000000
6.730217	6.856053	65.000000	76.000000
6.836607	6.953712	51.000000	75.000000
6.840429	6.957695	67.000000	76.000000
6.952733	7.091363	72.000000	96.000000
6.954691	7.093214	48.000000	88.000000
7.072695	7.202474	51.000000	75.000000
7.074693	7.204324	67.000000	80.000000
7.183953	7.315207	65.000000	75.000000
7.185804	7.317245	50.000000	75.000000
7.295063	7.436805	51.000000	75.000000
7.298953	7.440788	67.000000	75.000000
7.416836	7.555184	63.000000	80.000000
7.419867	7.557987	55.000000	80.000000
7.536409	7.666469	67.000000	76.000000
7.541196	7.670948	51.000000	75.000000
7.648472	7.776842	50.000000	75.000000
7.653031	7.782113	65.000000	76.000000
7.756967	7.883380	67.000000	76.000000
7.759971	7.886585	51.000000	75.000000
7.883380	8.031116	75.000000	96.000000
7.885512	8.033007	48.000000	88.000000
8.014137	8.146223	68.000000	80.000000
8.015076	8.147162	60.000000	75.000000
8.128292	8.261880	67.000000	76.000000
8.128292	8.261880	58.000000	75.000000
8.240623	8.381828	60.000000	75.000000
8.242648	8.383800	68.000000	76.000000
8.363053	8.500248	63.000000	80.000000
8.363053	8.500248	56.000000	80.000000
8.477677	8.608850	60.000000	75.000000
8.479648	8.610728	68.000000	75.000000
8.591067	8.723663	67.000000	75.000000
8.593870	8.726707	58.000000	75.000000
8.706389	8.827813	68.000000	76.000000
8.706389	8.827813	60.000000	74.000000
8.825815	8.964217	75.000000	96.000000
8.827813	8.966108	48.000000	88.000000
8.943349	9.075542	60.000000	76.000000
8.945347	9.077433	68.000000	80.000000
9.061393	9.194404	67.000000	75.000000
9.061393	9.194404	58.000000	76.000000
9.172758	9.310624	60.000000	76.000000
9.173737	9.311617	68.000000	75.000000
9.287906	9.425181	63.000000	80.000000
9.291849	9.428896	56.000000	80.000000
9.406473	9.536694	60.000000	75.000000
9.409383	9.539484	68.000000	75.000000
9.519971	9.651734	67.000000	76.000000
9.520896	9.652740	58.000000	75.000000
9.633522	9.754959	68.000000	76.000000
9.634528	9.755965	60.000000	75.000000
9.750922	9.896607	48.000000	88.000000
9.753953	9.899369	74.000000	96.000000
9.878944	10.008227	57.000000	76.000000
9.880929	10.010078	66.000000	80.000000
9.988848	10.119552	55.000000	76.000000
9.990699	10.121564	64.000000	76.000000
10.099556	10.240386	66.000000	76.000000
10.104424	10.245388	57.000000	76.000000
10.221369	10.359596	62.000000	80.000000
10.223380	10.361407	54.000000	80.000000
10.341384	10.468052	57.000000	75.000000
10.342390	10.468950	66.000000	76.000000
10.452870	10.579726	64.000000	76.000000
10.453769	10.580705	55.000000	75.000000
10.558241	10.675427	57.000000	75.000000
10.559220	10.676433	66.000000	76.000000
10.677438	10.812193	48.000000	88.000000
10.678444	10.813118	74.000000	96.000000
10.791003	10.919736	57.000000	75.000000
10.793806	10.922499	66.000000	80.000000
10.900437	11.030015	55.000000	75.000000
10.902275	11.031960	64.000000	75.000000
11.011655	11.147281	66.000000	75.000000
11.011655	11.147281	57.000000	75.000000
11.129834	11.264239	62.000000	80.000000
11.129834	11.264239	54.000000	80.000000
11.245155	11.372413	66.000000	76.000000
11.247878	11.375135	57.000000	74.000000
11.352417	11.481310	64.000000	77.000000
11.352417	11.481310	55.000000	74.000000
11.465311	11.585407	66.000000	77.000000
11.466317	11.586453	57.000000	74.000000
11.583315	11.727162	46.000000	88.000000
11.584361	11.728074	74.000000	96.000000
11.706750	11.835215	67.000000	80.000000
11.706750	11.835215	58.000000	75.000000
11.820570	11.950697	57.000000	75.000000
11.821482	11.951703	66.000000	75.000000
11.926785	12.066475	67.000000	75.000000
11.927697	12.067441	58.000000	75.000000
12.051991	12.186061	62.000000	80.000000
12.051991	12.186061	55.000000	80.000000
12.166763	12.295428	67.000000	75.000000
12.166763	12.295428	58.000000	74.000000
12.274293	12.404206	66.000000	75.000000
12.277967	12.408148	57.000000	74.000000
12.384585	12.502629	58.000000	74.000000
12.385511	12.503608	67.000000	75.000000
12.501650	12.637330	74.000000	96.000000
12.503608	12.639167	46.000000	88.000000
12.618836	12.747622	58.000000	74.000000
12.623543	12.752222	67.000000	80.000000
12.732910	12.862703	66.000000	76.000000
12.732910	12.862703	57.000000	74.000000
12.839542	12.975114	67.000000	77.000000
12.839542	12.975114	58.000000	74.000000
12.957666	13.091804	55.000000	80.000000
12.960577	13.094486	62.000000	80.000000
13.072988	13.198046	58.000000	74.000000
13.075737	13.200728	67.000000	75.000000
13.181980	13.309398	66.000000	75.000000
13.183763	13.311410	57.000000	74.000000
13.286438	13.407178	58.000000	74.000000
13.287337	13.408184	67.000000	74.000000
13.408184	13.546157	72.000000	96.000000
13.408184	13.546157	46.000000	88.000000
13.528186	13.653311	55.000000	75.000000
13.530975	13.655993	64.000000	80.000000
13.635448	13.761900	53.000000	75.000000
13.636346	13.762866	62.000000	76.000000
13.741703	13.877410	64.000000	76.000000
13.741703	13.877410	55.000000	75.000000
13.860740	13.996862	60.000000	80.000000
13.860740	13.996862	52.000000	80.000000
13.979267	14.108898	64.000000	76.000000
13.980192	14.109823	55.000000	74.000000
14.088527	14.219164	62.000000	76.000000
14.091303	14.222087	53.000000	74.000000
14.198712	14.315844	64.000000	75.000000
14.198712	14.315844	55.000000	74.000000
14.317789	14.451376	72.000000	96.000000
14.318754	14.452288	46.000000	88.000000
14.433124	14.560864	55.000000	73.000000
14.434036	14.561776	64.000000	80.000000
14.542611	14.671545	53.000000	73.000000
14.543523	14.672511	62.000000	76.000000
14.653132	14.788704	64.000000	76.000000
14.654098	14.789670	55.000000	73.000000
14.767475	14.901625	60.000000	80.000000
14.767475	14.901625	52.000000	80.000000
14.881375	15.009678	64.000000	75.000000
14.886055	15.014251	55.000000	73.000000
14.993196	15.123163	62.000000	75.000000
14.994108	15.124168	53.000000	73.000000
15.101249	15.221559	55.000000	73.000000
15.106090	15.226803	64.000000	75.000000
15.221559	15.369483	72.000000	96.000000
15.224644	15.372246	44.000000	88.000000
15.353806	15.482954	65.000000	80.000000
15.353806	15.482954	56.000000	73.000000
15.463575	15.593663	55.000000	73.000000
15.464501	15.594628	64.000000	76.000000
15.574284	15.709950	65.000000	76.000000
15.577194	15.712860	56.000000	73.000000
15.688626	15.823394	60.000000	80.000000
15.691536	15.826157	53.000000	80.000000
15.807770	15.936449	56.000000	73.000000
15.809607	15.938286	65.000000	74.000000
15.918063	16.048512	55.000000	73.000000
15.919900	16.050524	64.000000	74.000000
16.026518	16.146909	56.000000	74.000000
16.028436	16.148920	65.000000	74.000000
16.147915	16.286920	72.000000	96.000000
16.147915	16.286920	44.000000	88.000000
16.268400	16.398031	65.000000	80.000000
16.268400	16.398031	56.000000	75.000000
16.377659	16.508203	55.000000	76.000000
16.379510	16.510161	64.000000	75.000000
16.492579	16.629304	56.000000	74.000000
16.493558	16.630283	65.000000	75.000000
16.606841	16.742172	60.000000	80.000000
16.606841	16.742172	53.000000	80.000000
16.723061	16.849568	56.000000	74.000000
16.725019	16.851378	65.000000	75.000000
16.832428	16.961161	64.000000	75.000000
16.833327	16.962194	55.000000	74.000000
16.942654	17.066156	56.000000	74.000000
16.944706	17.068315	65.000000	75.000000
17.063018	17.210942	44.000000	88.000000
17.064051	17.211867	70.000000	96.000000
17.193320	17.322173	50.000000	75.000000
17.196230	17.324936	65.000000	80.000000
17.302861	17.432452	48.000000	75.000000
17.305624	17.435362	63.000000	76.000000
17.414092	17.549557	65.000000	76.000000
17.415983	17.551475	50.000000	75.000000
17.531292	17.665402	53.000000	79.000000
17.533209	17.667280	62.000000	79.000000
17.647606	17.778712	50.000000	74.000000
17.649483	17.780590	65.000000	75.000000
17.759038	17.890869	63.000000	74.000000
17.760916	17.892813	48.000000	74.000000
17.871409	17.988139	50.000000	74.000000
17.872388	17.989118	65.000000	74.000000
17.990097	18.125562	44.000000	86.000000
17.991076	18.126501	70.000000	94.000000
18.102938	18.234581	65.000000	78.000000
18.104882	18.236458	50.000000	73.000000
18.220486	18.352638	63.000000	74.000000
18.220486	18.352638	48.000000	72.000000
18.331409	18.466471	65.000000	74.000000
18.331409	18.466471	50.000000	77.000000
18.444343	18.578454	62.000000	77.000000
18.445309	18.579392	53.000000	77.000000
18.562602	18.693199	65.000000	76.000000
18.564466	18.695063	50.000000	72.000000
18.672680	18.803960	63.000000	73.000000
18.676408	18.807836	48.000000	72.000000
18.785547	18.901834	50.000000	72.000000
18.788457	18.904999	65.000000	72.000000
18.902894	19.047934	70.000000	91.000000
18.904999	19.049798	43.000000	83.000000
19.027362	19.157610	51.000000	72.000000
19.029347	19.159474	67.000000	76.000000
19.139022	19.270035	65.000000	72.000000
19.142737	19.273937	50.000000	72.000000
19.252453	19.389259	51.000000	72.000000
19.254411	19.391217	67.000000	72.000000
19.366715	19.503052	63.000000	75.000000
19.368673	19.504916	55.000000	75.000000
19.484357	19.614578	67.000000	72.000000
19.487254	19.617368	51.000000	70.000000
19.599705	19.730852	65.000000	72.000000
19.599705	19.730852	50.000000	70.000000
19.707517	19.824609	51.000000	70.000000
19.708442	19.825588	67.000000	71.000000
19.825588	19.962300	43.000000	81.000000
19.829490	19.966095	70.000000	89.000000
19.942773	20.075127	67.000000	74.000000
19.942773	20.075127	51.000000	69.000000
20.057264	20.189590	65.000000	69.000000
20.057264	20.189590	50.000000	69.000000
20.168173	20.304550	67.000000	69.000000
20.172988	20.309351	51.000000	69.000000
20.289168	20.423305	63.000000	73.000000
20.289168	20.423305	55.000000	73.000000
20.404503	20.536092	51.000000	67.000000
20.405441	20.537031	67.000000	68.000000
20.517290	20.650287	65.000000	68.000000
20.518228	20.651293	50.000000	66.000000
20.628199	20.748684	51.000000	66.000000
20.629205	20.749757	67.000000	68.000000
20.748684	20.896568	48.000000	79.000000
20.750830	20.898432	68.000000	86.000000
20.876907	21.007169	67.000000	72.000000
20.880769	21.010883	51.000000	69.000000
20.987655	21.118681	65.000000	68.000000
20.988581	21.119660	50.000000	69.000000
21.099168	21.236323	67.000000	68.000000
21.101033	21.238281	51.000000	65.000000
21.216716	21.353227	63.000000	71.000000
21.219653	21.356044	56.000000	71.000000
21.336316	21.467878	51.000000	65.000000
21.338194	21.469756	67.000000	67.000000
21.450967	21.583428	50.000000	63.000000
21.451906	21.584407	65.000000	67.000000
21.560924	21.678526	67.000000	66.000000
21.563821	21.681476	51.000000	63.000000
21.677547	21.814729	68.000000	84.000000
21.681476	21.818537	48.000000	77.000000
21.798568	21.931646	67.000000	70.000000
21.799520	21.932598	51.000000	64.000000
21.909786	22.043333	65.000000	65.000000
21.909786	22.043333	50.000000	64.000000
22.023847	22.160264	67.000000	65.000000
22.024799	22.161230	51.000000	64.000000
22.141972	22.275439	56.000000	69.000000
22.142951	22.276337	63.000000	69.000000
22.260150	22.386053	67.000000	63.000000
22.260150	22.386053	51.000000	61.000000
22.368069	22.496815	65.000000	63.000000
22.368967	22.497847	50.000000	61.000000
22.474177	22.597465	51.000000	61.000000
22.475210	22.598524	67.000000	63.000000
22.595426	22.741486	68.000000	81.000000
22.598524	22.744208	50.000000	74.000000
22.722992	22.850572	53.000000	59.000000
22.725125	22.852395	62.000000	68.000000
22.833298	22.961789	60.000000	64.000000
22.836933	22.965679	51.000000	60.000000
22.942397	23.078452	53.000000	59.000000
22.945254	23.081362	62.000000	64.000000
23.059060	23.193720	58.000000	67.000000
23.061004	23.195557	56.000000	66.000000
23.176326	23.304536	62.000000	61.000000
23.177238	23.305448	53.000000	59.000000
23.285304	23.414506	60.000000	61.000000
23.286216	23.415472	51.000000	59.000000
23.397072	23.513359	62.000000	61.000000
23.398038	23.514338	53.000000	59.000000
23.510436	23.646880	50.000000	73.000000
23.513359	23.649683	68.000000	79.000000
23.628064	23.759224	53.000000	56.000000
23.630961	23.762027	62.000000	60.000000
23.740502	23.872226	60.000000	57.000000
23.740502	23.872226	51.000000	55.000000
23.852847	23.989022	53.000000	55.000000
23.855690	23.991946	62.000000	57.000000
23.971454	24.107067	56.000000	61.000000
23.974378	24.109829	58.000000	60.000000
24.087647	24.216849	53.000000	56.000000
24.090464	24.219612	62.000000	54.000000
24.201159	24.332654	51.000000	56.000000
24.202084	24.333687	60.000000	54.000000
24.308179	24.431426	53.000000	56.000000
24.309104	24.432459	62.000000	55.000000
24.433492	24.580705	67.000000	76.000000
24.433492	24.580705	51.000000	70.000000
24.560105	24.689562	55.000000	53.000000
24.561178	24.690488	58.000000	58.000000
24.674797	24.805836	53.000000	53.000000
24.675722	24.806842	56.000000	54.000000
24.783668	24.924229	58.000000	54.000000
24.785679	24.926187	55.000000	53.000000
24.903616	25.039725	56.000000	57.000000
24.907559	25.043400	63.000000	64.000000
25.020306	25.149092	58.000000	54.000000
25.024101	25.152767	55.000000	53.000000
25.133468	25.263663	56.000000	54.000000
25.133468	25.263663	53.000000	53.000000
25.240998	25.359887	58.000000	54.000000
25.243828	25.362864	55.000000	53.000000
25.361872	25.498638	67.000000	76.000000
25.362864	25.499550	51.000000	70.000000
25.478481	25.605899	55.000000	53.000000
25.483188	25.610446	58.000000	57.000000
25.587727	25.716286	56.000000	53.000000
25.590450	25.719223	53.000000	53.000000
25.696813	25.834142	55.000000	53.000000
25.701574	25.839104	58.000000	53.000000
25.815300	25.952602	63.000000	57.000000
25.819256	25.956236	56.000000	56.000000
25.934336	26.061701	58.000000	53.000000
25.935328	26.062613	55.000000	52.000000
26.046238	26.175695	56.000000	53.000000
26.047150	26.176701	53.000000	52.000000
26.153526	26.274481	58.000000	53.000000
26.155538	26.276653	55.000000	52.000000
26.273475	26.421265	65.000000	76.000000
26.275567	26.423048	51.000000	70.000000
26.405252	26.529800	60.000000	58.000000
26.406137	26.530685	57.000000	52.000000
26.512017	26.638296	58.000000	53.000000
26.512902	26.639275	55.000000	52.000000
26.617871	26.753899	60.000000	53.000000
26.617871	26.732656	57.000000	52.000000
26.734600	26.848487	57.000000	58.000000
26.734600	26.869221	53.000000	55.000000
26.848487	26.980117	57.000000	52.000000
26.851357	26.982933	60.000000	53.000000
26.964144	27.096498	58.000000	53.000000
26.965083	27.097477	55.000000	52.000000
27.075040	27.192212	57.000000	52.000000
27.078916	27.196115	60.000000	53.000000
27.191233	27.327101	51.000000	70.000000
27.195136	27.330816	65.000000	76.000000
27.309398	27.439553	57.000000	51.000000
27.311303	27.441417	60.000000	59.000000
27.423754	27.554646	58.000000	54.000000
27.423754	27.554646	55.000000	51.000000
27.532491	27.646351	57.000000	51.000000
27.534382	27.669512	60.000000	54.000000
27.648282	27.782795	53.000000	56.000000
27.649248	27.765066	57.000000	59.000000
27.764100	27.894724	60.000000	54.000000
27.765066	27.895662	57.000000	51.000000
27.875144	28.007698	55.000000	51.000000
27.878872	28.011869	58.000000	54.000000
27.988950	28.113954	57.000000	51.000000
27.989996	28.115081	60.000000	53.000000
28.115081	28.267725	50.000000	70.000000
28.117320	28.269563	65.000000	76.000000
28.247367	28.375792	62.000000	60.000000
28.249406	28.377629	53.000000	52.000000
28.357472	28.486781	60.000000	55.000000
28.360221	28.489705	51.000000	52.000000
28.468288	28.604423	53.000000	52.000000
28.469267	28.605389	62.000000	55.000000
28.585031	28.720053	56.000000	58.000000
28.586975	28.721931	59.000000	60.000000
28.702257	28.833350	62.000000	55.000000
28.704134	28.835227	53.000000	52.000000
28.813689	28.946633	60.000000	55.000000
28.816492	28.949718	51.000000	52.000000
28.926047	29.049509	62.000000	55.000000
28.927080	29.050542	53.000000	52.000000
29.047457	29.189641	65.000000	76.000000
29.052594	29.194268	50.000000	70.000000
29.170906	29.300752	53.000000	54.000000
29.174822	29.304453	62.000000	60.000000
29.285007	29.415551	60.000000	56.000000
29.285007	29.415551	51.000000	54.000000
29.396158	29.531757	62.000000	56.000000
29.398103	29.533689	53.000000	54.000000
29.511480	29.645309	56.000000	60.000000
29.513411	29.647106	59.000000	60.000000
29.626359	29.752316	53.000000	53.000000
29.629122	29.755011	62.000000	55.000000
29.733433	29.861736	60.000000	55.000000
29.734331	29.862769	51.000000	54.000000
29.841338	29.965042	53.000000	54.000000
29.844168	29.968193	62.000000	55.000000
29.968193	30.116908	48.000000	70.000000
29.970366	30.118759	65.000000	76.000000
30.097543	30.226691	53.000000	52.000000
30.100306	30.229454	62.000000	61.000000
30.206400	30.336380	52.000000	52.000000
30.209163	30.339291	60.000000	52.000000
30.317095	30.452681	53.000000	52.000000
30.320877	30.456557	62.000000	54.000000
30.433289	30.568231	59.000000	61.000000
30.435233	30.570095	56.000000	60.000000
30.553371	30.683485	62.000000	55.000000
30.554297	30.684411	53.000000	53.000000
30.665823	30.797291	60.000000	55.000000
30.665823	30.797291	52.000000	53.000000
30.773634	30.892148	62.000000	55.000000
30.774560	30.893140	53.000000	53.000000
30.894119	31.030081	65.000000	76.000000
30.895098	31.031019	48.000000	70.000000
31.009360	31.140977	62.000000	61.000000
31.011278	31.142854	53.000000	53.000000
31.122188	31.254595	60.000000	55.000000
31.125004	31.257545	52.000000	53.000000
31.234022	31.371647	62.000000	55.000000
31.238850	31.376555	53.000000	53.000000
31.354977	31.491381	56.000000	60.000000
31.356935	31.493258	59.000000	61.000000
31.472592	31.604168	53.000000	53.000000
31.474469	31.606045	62.000000	54.000000
31.582549	31.715573	52.000000	53.000000
31.586304	31.719650	60.000000	54.000000
31.695336	31.817604	62.000000	54.000000
31.699252	31.821802	53.000000	53.000000
31.818624	31.966910	63.000000	76.000000
31.819643	31.967822	48.000000	70.000000
31.947343	32.075888	60.000000	61.000000
31.950428	32.078637	51.000000	54.000000
32.057568	32.186610	59.000000	61.000000
32.060318	32.189493	50.000000	54.000000
32.170262	32.305351	60.000000	55.000000
32.170262	32.305351	51.000000	54.000000
32.286656	32.423020	55.000000	61.000000
32.286656	32.423020	53.000000	60.000000
32.403708	32.532387	60.000000	55.000000
32.404633	32.533312	51.000000	54.000000
32.513088	32.643712	59.000000	55.000000
32.513088	32.643712	50.000000	54.000000
32.621543	32.743302	51.000000	54.000000
32.623381	32.745341	60.000000	55.000000
32.744322	32.885124	63.000000	76.000000
32.744322	32.885124	46.000000	70.000000
32.867784	32.995524	60.000000	61.000000
32.867784	32.995524	51.000000	54.000000
32.976360	33.105106	50.000000	54.000000
32.978184	33.107037	59.000000	55.000000
33.084936	33.219972	60.000000	55.000000
33.088691	33.223834	51.000000	54.000000
33.201625	33.336165	55.000000	61.000000
33.202591	33.337104	53.000000	61.000000
33.320300	33.450923	60.000000	55.000000
33.321238	33.451862	51.000000	53.000000
33.428527	33.560639	50.000000	53.000000
33.429466	33.561658	59.000000	55.000000
33.544385	33.666426	60.000000	56.000000
33.544385	33.666426	51.000000	53.000000
33.665366	33.810568	44.000000	70.000000
33.667485	33.812338	53.000000	76.000000
33.794608	33.918714	63.000000	64.000000
33.794608	33.918714	48.000000	54.000000
33.897444	34.024782	47.000000	53.000000
33.900100	34.027692	62.000000	57.000000
34.005390	34.141432	63.000000	57.000000
34.007334	34.143403	48.000000	53.000000
34.125620	34.262453	65.000000	64.000000
34.125620	34.262453	50.000000	64.000000
34.239252	34.368548	63.000000	58.000000
34.243074	34.372236	48.000000	54.000000
34.350094	34.480356	62.000000	58.000000
34.354708	34.485278	47.000000	54.000000
34.461714	34.579772	48.000000	54.000000
34.464611	34.582722	63.000000	58.000000
34.581743	34.718375	53.000000	76.000000
34.583701	34.720239	44.000000	70.000000
34.699787	34.829901	63.000000	64.000000
34.700713	34.830827	48.000000	55.000000
34.813178	34.944365	62.000000	57.000000
34.813178	34.944365	47.000000	55.000000
34.920051	35.056669	63.000000	59.000000
34.924838	35.061551	48.000000	55.000000
35.042024	35.177731	65.000000	64.000000
35.042024	35.177731	50.000000	64.000000
35.157212	35.287795	63.000000	57.000000
35.157212	35.287795	48.000000	56.000000
35.267276	35.399616	62.000000	57.000000
35.267276	35.399616	47.000000	56.000000
35.378279	35.501044	63.000000	57.000000
35.381176	35.504182	48.000000	56.000000
35.502063	35.651248	45.000000	70.000000
35.504182	35.653059	54.000000	76.000000
35.633009	35.759556	60.000000	64.000000
35.633009	35.759556	51.000000	56.000000
35.741504	35.870090	59.000000	57.000000
35.744213	35.873147	50.000000	56.000000
35.852749	35.994960	51.000000	56.000000
35.853768	35.995952	60.000000	58.000000
35.972121	36.109584	48.000000	64.000000
35.974133	36.111422	63.000000	64.000000
36.093102	36.221312	60.000000	58.000000
36.094014	36.222224	51.000000	56.000000
36.200243	36.330344	59.000000	58.000000
36.202080	36.332382	50.000000	56.000000
36.310133	36.432388	51.000000	56.000000
36.311970	36.434427	60.000000	58.000000
36.434427	36.574706	54.000000	76.000000
36.436465	36.576544	45.000000	70.000000
36.556387	36.684597	60.000000	64.000000
36.559136	36.687346	51.000000	57.000000
36.664453	36.793682	50.000000	58.000000
36.668114	36.797571	59.000000	58.000000
36.775255	36.911391	51.000000	58.000000
36.777146	36.913336	60.000000	58.000000
36.892897	37.027759	63.000000	64.000000
36.893876	37.028671	48.000000	64.000000
37.009640	37.136469	51.000000	56.000000
37.011451	37.138279	60.000000	58.000000
37.119249	37.248639	59.000000	58.000000
37.120161	37.249671	50.000000	56.000000
37.226135	37.349463	51.000000	56.000000
37.228066	37.351569	60.000000	58.000000
37.350496	37.497159	63.000000	76.000000
37.352641	37.499010	43.000000	70.000000
37.476573	37.606030	60.000000	64.000000
37.481481	37.610643	51.000000	56.000000
37.587576	37.717704	50.000000	56.000000
37.591264	37.721606	59.000000	58.000000
37.698284	37.835024	60.000000	58.000000
37.701101	37.837974	51.000000	56.000000
37.818300	37.954784	55.000000	63.000000
37.819279	37.955710	53.000000	64.000000
37.934426	38.063655	51.000000	56.000000
37.938181	38.067343	60.000000	57.000000
38.044276	38.174551	50.000000	56.000000
38.046127	38.176523	59.000000	57.000000
38.155910	38.273967	51.000000	56.000000
38.158807	38.276918	60.000000	57.000000
38.274946	38.412101	63.000000	76.000000
38.276918	38.413965	43.000000	70.000000
38.393514	38.523628	60.000000	58.000000
38.396303	38.526417	51.000000	57.000000
38.505979	38.637072	50.000000	57.000000
38.506904	38.638051	59.000000	58.000000
38.616566	38.753681	51.000000	57.000000
38.617545	38.754673	60.000000	58.000000
38.733752	38.871859	55.000000	63.000000
38.735750	38.873723	53.000000	64.000000
38.852279	38.982460	51.000000	57.000000
38.856061	38.986175	60.000000	57.000000
38.965736	39.097755	59.000000	58.000000
38.965736	39.097755	50.000000	57.000000
39.075399	39.197761	60.000000	58.000000
39.075399	39.197761	51.000000	57.000000
39.197761	39.345068	43.000000	70.000000
39.198780	39.345993	66.000000	76.000000
39.325394	39.454851	60.000000	64.000000
39.330302	39.459464	51.000000	56.000000
39.437323	39.567504	50.000000	56.000000
39.440085	39.570427	59.000000	57.000000
39.547106	39.683711	51.000000	56.000000
39.551880	39.688592	60.000000	58.000000
39.667108	39.802988	57.000000	63.000000
39.668087	39.803927	48.000000	64.000000
39.781370	39.912557	60.000000	57.000000
39.781370	39.912557	51.000000	56.000000
39.893822	40.026363	50.000000	56.000000
39.894760	40.027382	59.000000	57.000000
40.006193	40.127992	60.000000	57.000000
40.006193	40.127992	51.000000	56.000000
40.130030	40.265281	43.000000	71.000000
40.131009	40.266179	66.000000	76.000000
40.245272	40.371765	60.000000	64.000000
40.248128	40.374474	51.000000	56.000000
40.355524	40.483278	50.000000	56.000000
40.358233	40.486201	59.000000	57.000000
40.463818	40.600021	51.000000	56.000000
40.466742	40.602944	60.000000	57.000000
40.580561	40.715892	48.000000	65.000000
40.581540	40.716818	57.000000	64.000000
40.695360	40.825554	51.000000	56.000000
40.699169	40.829269	60.000000	58.000000
40.809756	40.941694	50.000000	57.000000
40.811620	40.943733	59.000000	58.000000
40.918493	41.040279	60.000000	58.000000
40.922382	41.044450	51.000000	57.000000
41.040279	41.186164	67.000000	79.000000
41.042317	41.187961	43.000000	73.000000
41.170876	41.296779	51.000000	58.000000
41.171774	41.297677	60.000000	65.000000
41.278794	41.406240	59.000000	57.000000
41.280592	41.408184	50.000000	58.000000
41.384903	41.521038	60.000000	58.000000
41.386780	41.522983	51.000000	58.000000
41.500600	41.635596	62.000000	66.000000
41.503523	41.638318	53.000000	66.000000
41.617343	41.744306	51.000000	58.000000
41.618322	41.745217	60.000000	58.000000
41.727998	41.857200	50.000000	58.000000
41.728910	41.858219	59.000000	58.000000
41.835796	41.958547	51.000000	58.000000
41.836708	41.959566	60.000000	58.000000
41.958547	42.097808	67.000000	79.000000
41.959566	42.098719	43.000000	73.000000
42.080534	42.207818	60.000000	67.000000
42.083257	42.210541	51.000000	58.000000
42.189633	42.318889	50.000000	58.000000
42.190545	42.319895	59.000000	58.000000
42.296908	42.437134	51.000000	58.000000
42.300744	42.441010	60.000000	58.000000
42.420665	42.555487	53.000000	67.000000
42.421631	42.556412	62.000000	67.000000
42.536899	42.667013	60.000000	59.000000
42.537824	42.667938	51.000000	58.000000
42.648425	42.780256	59.000000	59.000000
42.649351	42.781262	50.000000	58.000000
42.761038	42.882435	60.000000	59.000000
42.762044	42.883427	51.000000	58.000000
42.883427	43.019724	68.000000	80.000000
42.883427	43.019724	43.000000	75.000000
42.997059	43.123136	60.000000	67.000000
42.998051	43.124035	51.000000	59.000000
43.107848	43.235212	59.000000	61.000000
43.109645	43.237157	50.000000	59.000000
43.214868	43.351070	60.000000	61.000000
43.215833	43.352063	51.000000	59.000000
43.330176	43.468323	62.000000	68.000000
43.333140	43.471113	53.000000	68.000000
43.448676	43.578911	60.000000	60.000000
43.452525	43.582626	51.000000	58.000000
43.564051	43.695104	50.000000	58.000000
43.564977	43.696083	59.000000	60.000000
43.671849	43.788499	60.000000	60.000000
43.676624	43.793380	51.000000	59.000000
43.790443	43.926472	68.000000	83.000000
43.793380	43.929234	43.000000	75.000000
43.909011	44.037690	60.000000	69.000000
43.910848	44.039527	51.000000	60.000000
44.017466	44.147379	59.000000	62.000000
44.019303	44.149350	50.000000	60.000000
44.128684	44.266549	51.000000	60.000000
44.129663	44.267542	60.000000	62.000000
44.244823	44.382045	53.000000	69.000000
44.245802	44.382971	62.000000	69.000000
44.364383	44.494081	60.000000	61.000000
44.365375	44.495007	51.000000	61.000000
44.474635	44.605889	59.000000	61.000000
44.478337	44.609953	50.000000	61.000000
44.587596	44.709543	51.000000	61.000000
44.589635	44.711743	60.000000	61.000000
44.709543	44.861799	43.000000	65.000000
44.841132	44.984403	47.000000	68.000000
44.965104	45.100073	50.000000	71.000000
45.080922	45.215006	53.000000	74.000000
45.195855	45.329939	56.000000	74.000000
45.310788	45.444871	53.000000	70.000000
45.425720	45.559804	52.000000	70.000000
45.540653	45.674737	53.000000	70.000000
45.655586	45.789669	59.000000	74.000000
45.770518	45.904978	53.000000	70.000000
45.885451	46.022163	62.000000	74.000000
46.002637	46.139349	59.000000	70.000000
46.119823	46.256535	56.000000	72.000000
46.237009	46.373721	53.000000	71.000000
46.354194	46.490907	52.000000	70.000000
46.471380	46.588566	53.000000	69.000000
46.588566	46.733204	43.000000	64.000000
46.713047	46.853622	48.000000	66.000000
46.834015	46.970808	51.000000	68.000000
46.951657	47.085741	55.000000	72.000000
47.066590	47.200673	60.000000	75.000000
47.181522	47.315606	55.000000	70.000000
47.296455	47.430539	54.000000	70.000000
47.411388	47.545471	55.000000	70.000000
47.526320	47.660404	63.000000	74.000000
47.641253	47.775645	60.000000	70.000000
47.756186	47.892375	67.000000	74.000000
47.872916	48.009105	63.000000	70.000000
47.989646	48.125835	60.000000	74.000000
48.106375	48.242565	56.000000	70.000000
48.223105	48.359294	55.000000	72.000000
48.339835	48.456565	56.000000	70.000000
48.456565	48.595463	43.000000	67.000000
48.575856	48.711455	45.000000	70.000000
48.692371	48.825959	54.000000	70.000000
48.806875	48.940462	60.000000	71.000000
48.921379	49.054966	63.000000	75.000000
49.035882	49.169470	60.000000	70.000000
49.150386	49.283973	59.000000	70.000000
49.264889	49.398477	60.000000	70.000000
49.379393	49.512980	66.000000	74.000000
49.493896	49.627484	60.000000	70.000000
49.608400	49.741987	69.000000	74.000000
49.722904	49.856491	66.000000	70.000000
49.837407	49.970995	63.000000	73.000000
49.951911	50.085498	60.000000	70.000000
50.066414	50.200002	59.000000	70.000000
50.180918	50.295421	60.000000	70.000000
50.295421	51.925213	43.000000	67.000000
50.392826	50.506458	74.000000	67.000000
50.490230	50.603849	72.000000	65.000000
50.587621	50.700838	74.000000	65.000000
50.685013	50.795774	75.000000	72.000000
50.779949	50.890711	72.000000	67.000000
50.874886	50.985648	71.000000	63.000000
50.969823	51.080585	72.000000	63.000000
51.064760	51.175522	69.000000	73.000000
51.159697	51.270459	72.000000	67.000000
51.254634	51.365396	71.000000	64.000000
51.349570	51.460078	72.000000	64.000000
51.444507	51.553526	74.000000	67.000000
51.537956	51.646974	71.000000	64.000000
51.631404	51.741415	69.000000	64.000000
51.724852	51.824201	71.000000	64.000000
51.824201	51.941038	67.000000	75.000000
51.925213	52.035975	71.000000	67.000000
51.925213	52.035975	62.000000	60.000000
52.020150	52.130912	69.000000	64.000000
52.020150	52.130912	60.000000	60.000000
52.115087	52.225554	71.000000	64.000000
52.115087	52.225554	62.000000	61.000000
52.210024	52.318720	72.000000	70.000000
52.210024	52.318720	63.000000	70.000000
52.303190	52.411887	69.000000	64.000000
52.303190	52.411887	60.000000	67.000000
52.396357	52.505053	67.000000	64.000000
52.396357	52.505053	59.000000	60.000000
52.489523	52.585439	69.000000	65.000000
52.489523	52.585439	60.000000	60.000000
52.585439	52.696201	66.000000	75.000000
52.585439	52.696201	57.000000	75.000000
52.680376	52.791138	69.000000	67.000000
52.680376	52.791138	60.000000	61.000000
52.775313	52.886075	67.000000	64.000000
52.775313	52.886075	59.000000	61.000000
52.870250	52.980757	69.000000	64.000000
52.870250	52.980757	60.000000	61.000000
52.965187	53.074205	71.000000	70.000000
52.965187	53.074205	62.000000	70.000000
53.058635	53.167653	67.000000	65.000000
53.058635	53.167653	59.000000	61.000000
53.152083	53.262201	66.000000	65.000000
53.152083	53.262201	57.000000	61.000000
53.245531	53.345538	67.000000	65.000000
53.245531	53.345538	59.000000	61.000000
53.345538	53.465111	62.000000	75.000000
53.345538	53.465111	55.000000	74.000000
53.449339	53.559752	79.000000	70.000000
53.449339	53.559752	59.000000	61.000000
53.543981	53.654394	77.000000	67.000000
53.543981	53.654394	57.000000	61.000000
53.638623	53.748835	79.000000	67.000000
53.638623	53.748835	59.000000	61.000000
53.733265	53.842283	80.000000	73.000000
53.733265	53.842283	60.000000	71.000000
53.826713	53.935731	77.000000	68.000000
53.826713	53.935731	56.000000	61.000000
53.920161	54.029743	75.000000	68.000000
53.920161	54.029743	55.000000	61.000000
54.013609	54.110383	77.000000	68.000000
54.013609	54.110383	56.000000	61.000000
54.110383	54.220797	74.000000	77.000000
54.110383	54.220797	53.000000	74.000000
54.205025	54.315438	77.000000	70.000000
54.205025	54.315438	57.000000	63.000000
54.299667	54.410080	75.000000	66.000000
54.299667	54.410080	55.000000	63.000000
54.394309	54.504575	77.000000	66.000000
54.394309	54.504575	57.000000	63.000000
54.488951	54.598318	79.000000	73.000000
54.488951	54.598318	59.000000	71.000000
54.582694	54.692061	75.000000	67.000000
54.582694	54.692061	55.000000	62.000000
54.676437	54.786743	74.000000	67.000000
54.676437	54.786743	53.000000	62.000000
54.770180	54.869530	75.000000	68.000000
54.770180	54.869530	55.000000	62.000000
54.869530	54.985254	72.000000	75.000000
54.869530	54.985254	51.000000	76.000000
54.969536	55.079587	75.000000	67.000000
54.969536	55.079587	67.000000	63.000000
55.063869	55.173920	74.000000	65.000000
55.063869	55.173920	65.000000	63.000000
55.158202	55.268106	75.000000	67.000000
55.158202	55.268106	67.000000	63.000000
55.252536	55.361554	77.000000	71.000000
55.252536	55.361554	68.000000	71.000000
55.345984	55.455003	74.000000	65.000000
55.345984	55.455003	65.000000	63.000000
55.439432	55.549014	72.000000	65.000000
55.439432	55.549014	63.000000	63.000000
55.532881	55.629655	74.000000	65.000000
55.532881	55.629655	65.000000	63.000000
55.629655	55.740068	71.000000	75.000000
55.629655	55.740068	62.000000	76.000000
55.724296	55.834710	74.000000	67.000000
55.724296	55.834710	65.000000	64.000000
55.818938	55.929351	72.000000	65.000000
55.818938	55.929351	63.000000	65.000000
55.913580	56.023792	74.000000	67.000000
55.913580	56.023792	65.000000	63.000000
56.008222	56.117240	75.000000	71.000000
56.008222	56.117240	67.000000	71.000000
56.101670	56.210689	72.000000	65.000000
56.101670	56.210689	63.000000	63.000000
56.195118	56.305237	71.000000	65.000000
56.195118	56.305237	62.000000	62.000000
56.288567	56.388573	72.000000	65.000000
56.288567	56.388573	63.000000	62.000000
56.388573	56.506295	67.000000	75.000000
56.388573	56.506295	60.000000	74.000000
56.490269	56.602452	72.000000	67.000000
56.490269	56.602452	63.000000	63.000000
56.586426	56.698610	71.000000	64.000000
56.586426	56.698610	62.000000	63.000000
56.682583	56.794660	72.000000	65.000000
56.682583	56.794660	63.000000	63.000000
56.778741	56.890200	68.000000	80.000000
56.778741	56.890200	65.000000	77.000000
56.874281	56.985740	77.000000	65.000000
56.874281	56.985740	62.000000	60.000000
56.969821	57.081589	75.000000	65.000000
56.969821	57.081589	60.000000	60.000000
57.065362	57.162753	77.000000	64.000000
57.065362	57.162753	62.000000	61.000000
57.162753	57.274936	67.000000	80.000000
57.162753	57.274936	63.000000	77.000000
57.258910	57.371093	75.000000	67.000000
57.258910	57.371093	60.000000	62.000000
57.355067	57.467251	74.000000	65.000000
57.355067	57.467251	59.000000	63.000000
57.451224	57.563301	75.000000	67.000000
57.451224	57.563301	60.000000	63.000000
57.547382	57.658841	65.000000	81.000000
57.547382	57.658841	62.000000	77.000000
57.642922	57.754381	74.000000	65.000000
57.642922	57.754381	59.000000	63.000000
57.738462	57.850337	72.000000	65.000000
57.738462	57.850337	57.000000	63.000000
57.834003	57.932038	74.000000	65.000000
57.834003	57.932038	59.000000	62.000000
57.932038	58.030072	63.000000	81.000000
57.932038	58.046407	60.000000	77.000000
58.030072	58.144442	72.000000	67.000000
58.030072	58.144442	63.000000	60.000000
58.128107	58.242477	71.000000	65.000000
58.128107	58.242477	62.000000	60.000000
58.226142	58.340511	72.000000	67.000000
58.226142	58.340511	63.000000	61.000000
58.324177	58.438546	68.000000	81.000000
58.324177	58.438546	53.000000	77.000000
58.422212	58.536581	65.000000	66.000000
58.422212	58.536581	62.000000	62.000000
58.520246	58.634616	63.000000	66.000000
58.520246	58.634616	60.000000	62.000000
58.618281	58.716316	65.000000	66.000000
58.618281	58.716316	62.000000	62.000000
58.716316	58.837418	67.000000	81.000000
58.716316	58.837418	51.000000	77.000000
58.820118	58.941219	63.000000	67.000000
58.820118	58.941219	60.000000	62.000000
58.923919	59.045021	62.000000	65.000000
58.923919	59.045021	59.000000	62.000000
59.027721	59.149976	63.000000	65.000000
59.027721	59.149976	60.000000	62.000000
59.131522	59.260684	65.000000	81.000000
59.131522	59.260684	50.000000	77.000000
59.242230	59.371392	62.000000	66.000000
59.242230	59.371392	59.000000	61.000000
59.352939	59.482101	60.000000	66.000000
59.352939	59.482101	57.000000	61.000000
59.463647	59.574355	62.000000	67.000000
59.463647	59.574355	59.000000	61.000000
59.574355	61.541582	48.000000	67.000000
59.635831	61.541582	55.000000	67.000000
59.697308	61.541582	58.000000	67.000000
59.758784	60.803867	60.000000	67.000000
59.820260	60.803867	64.000000	67.000000
60.803867	61.541582	60.000000	58.000000
61.049772	61.295677	62.000000	60.000000
61.295677	61.541582	64.000000	63.000000
61.541582	61.664535	65.000000	66.000000
61.664535	61.787488	67.000000	67.000000
61.787488	61.910440	68.000000	68.000000
61.910440	62.033393	70.000000	68.000000
62.033393	62.156345	72.000000	66.000000
62.156345	62.279298	70.000000	65.000000
62.279298	62.402250	68.000000	64.000000
62.402250	62.525203	67.000000	63.000000
62.525203	63.017000	65.000000	62.000000
63.017000	63.262905	67.000000	67.000000
63.262905	63.508810	64.000000	67.000000
63.508810	65.476037	48.000000	67.000000
63.570286	65.476037	53.000000	67.000000
63.631762	65.476037	56.000000	67.000000
63.693239	65.476037	60.000000	67.000000
63.754715	63.836683	65.000000	80.000000
63.836683	63.918652	64.000000	70.000000
63.918652	64.738322	65.000000	78.000000
64.738322	64.984227	67.000000	67.000000
64.984227	65.230132	65.000000	64.000000
65.230132	65.476037	64.000000	64.000000
65.476037	65.721942	65.000000	65.000000
65.721942	65.967847	67.000000	65.000000
65.967847	66.213752	68.000000	67.000000
66.213752	66.459657	67.000000	67.000000
66.459657	66.582610	65.000000	66.000000
66.582610	66.705562	63.000000	65.000000
66.705562	66.828515	62.000000	64.000000
66.828515	66.951467	63.000000	65.000000
66.951467	67.074420	65.000000	68.000000
67.074420	67.197373	62.000000	63.000000
67.197373	67.320325	63.000000	65.000000
67.320325	67.443278	65.000000	67.000000
67.443278	67.785501	59.000000	67.000000
67.557352	67.690443	36.000000	60.000000
67.671426	69.179714	47.000000	65.000000
67.785501	67.917372	50.000000	69.000000
67.899575	68.024137	53.000000	69.000000
68.006341	68.130903	56.000000	72.000000
68.113106	68.237668	55.000000	71.000000
68.219872	68.344433	53.000000	69.000000
68.326637	68.451199	59.000000	72.000000
68.433402	68.557964	53.000000	67.000000
68.540168	68.664730	62.000000	74.000000
68.646933	68.771307	53.000000	67.000000
68.753699	68.876946	59.000000	70.000000
68.859337	68.982585	56.000000	69.000000
68.964976	69.088801	55.000000	68.000000
69.070615	69.179714	53.000000	67.000000
69.179714	69.313851	52.000000	72.000000
69.295988	69.421006	61.000000	67.000000
69.403142	69.528160	58.000000	67.000000
69.510297	69.635046	55.000000	67.000000
69.617317	69.741423	60.000000	72.000000
69.723693	69.847799	56.000000	67.000000
69.830070	69.954497	53.000000	67.000000
69.936446	70.062617	56.000000	67.000000
70.044754	70.169772	55.000000	72.000000
70.151908	70.276551	58.000000	67.000000
70.259062	70.382216	55.000000	67.000000
70.363964	70.492039	52.000000	67.000000
70.473452	70.602841	56.000000	72.000000
70.584978	70.709620	53.000000	67.000000
70.692132	70.815286	50.000000	67.000000
70.797033	70.924774	53.000000	67.000000
70.906521	71.033873	52.000000	71.000000
71.016009	71.140652	55.000000	67.000000
71.123164	71.246384	52.000000	67.000000
71.228065	71.355818	48.000000	67.000000
71.337955	71.462973	53.000000	73.000000
71.445109	71.569685	50.000000	67.000000
71.552264	71.675042	47.000000	67.000000
71.656789	71.766277	50.000000	67.000000
71.766277	76.449444	36.000000	72.000000
71.878219	72.008078	43.000000	67.000000
71.990161	76.449444	48.000000	67.000000
72.097678	72.223125	50.000000	67.000000
72.205208	72.330641	52.000000	68.000000
72.312724	72.438158	55.000000	67.000000
72.420240	72.545674	58.000000	71.000000
72.527757	72.653593	55.000000	67.000000
72.635273	72.763483	56.000000	68.000000
72.745163	72.874285	60.000000	65.000000
72.855054	72.989674	65.000000	68.000000
72.970442	73.107383	62.000000	67.000000
73.085831	73.236692	65.000000	64.000000
73.215140	73.368147	68.000000	59.000000
73.344450	73.510331	72.000000	62.000000
73.486634	73.656136	71.000000	57.000000
73.628818	73.823063	72.000000	59.000000
73.792754	74.007693	67.000000	54.000000
73.974582	74.252619	65.000000	52.000000
74.173253	74.749445	62.000000	49.000000
74.649439	76.449444	64.000000	42.000000
78.737946	78.944705	72.000000	81.000000
78.944705	79.151463	71.000000	81.000000
79.151463	79.358221	72.000000	86.000000
79.564979	79.991424	67.000000	71.000000
79.991424	80.198182	68.000000	72.000000
80.404940	80.611699	72.000000	81.000000
80.611699	80.818457	71.000000	81.000000
80.818457	81.025215	72.000000	86.000000
81.231973	81.645476	74.000000	76.000000
81.645476	81.852235	67.000000	73.000000
82.058993	82.265751	72.000000	81.000000
82.265751	82.472509	71.000000	81.000000
82.472509	82.679267	72.000000	86.000000
82.886026	83.092784	74.000000	77.000000
83.299542	83.511410	65.000000	75.000000
83.511410	83.723278	67.000000	75.000000
83.723278	84.560516	68.000000	81.000000
84.560516	84.767275	67.000000	73.000000
84.767275	84.974033	65.000000	71.000000
84.974033	85.077405	63.000000	75.000000
85.180778	85.387536	72.000000	71.000000
85.387536	85.594294	79.000000	81.000000
85.387536	85.594294	71.000000	62.000000
85.594294	85.801052	78.000000	81.000000
85.594294	85.801052	68.000000	62.000000
85.801052	86.007810	79.000000	86.000000
85.801052	86.007810	67.000000	62.000000
86.007810	86.214569	65.000000	62.000000
86.214569	86.628085	72.000000	71.000000
86.214569	86.421327	63.000000	62.000000
86.421327	86.628085	62.000000	62.000000
86.628085	86.834843	75.000000	72.000000
86.628085	86.834843	60.000000	67.000000
87.041602	87.248360	79.000000	81.000000
87.041602	87.455118	75.000000	65.000000
87.248360	87.455118	78.000000	81.000000
87.455118	87.661876	79.000000	86.000000
87.455118	87.868634	74.000000	65.000000
87.868634	88.282137	81.000000	76.000000
87.868634	88.282137	72.000000	65.000000
88.282137	88.488896	74.000000	73.000000
88.282137	88.488896	70.000000	68.000000
88.695654	88.902412	79.000000	81.000000
88.695654	89.109170	69.000000	63.000000
88.902412	89.109170	78.000000	81.000000
89.109170	89.315929	79.000000	86.000000
89.109170	89.522687	70.000000	67.000000
89.522687	89.936190	81.000000	77.000000
89.522687	89.932743	72.000000	62.000000
89.936190	90.150726	72.000000	75.000000
89.936190	90.365263	66.000000	67.000000
90.150726	90.365263	74.000000	75.000000
90.365263	91.207826	75.000000	81.000000
90.365263	90.794323	67.000000	62.000000
90.794323	91.207826	69.000000	66.000000
91.207826	91.414584	74.000000	73.000000
91.207826	91.621342	66.000000	63.000000
91.414584	91.621342	72.000000	73.000000
91.621342	91.828101	70.000000	78.000000
91.621342	92.448375	67.000000	69.000000
92.034859	92.241617	75.000000	81.000000
92.241617	92.448375	74.000000	81.000000
92.448375	92.655133	75.000000	86.000000
92.655133	92.861892	60.000000	70.000000
92.861892	93.275408	67.000000	71.000000
92.861892	93.068650	62.000000	72.000000
93.068650	93.275408	63.000000	74.000000
93.275408	93.482166	68.000000	72.000000
93.275408	93.482166	65.000000	75.000000
93.482166	93.688925	67.000000	75.000000
93.688925	93.895683	77.000000	81.000000
93.688925	94.309199	68.000000	79.000000
93.895683	94.102441	75.000000	81.000000
94.102441	94.309199	77.000000	86.000000
94.309199	94.515957	62.000000	71.000000
94.515957	94.929474	69.000000	76.000000
94.515957	94.722716	63.000000	73.000000
94.722716	94.929474	65.000000	74.000000
94.929474	95.136232	70.000000	78.000000
94.929474	95.136232	67.000000	76.000000
95.136232	95.342990	69.000000	77.000000
95.342990	95.549748	79.000000	81.000000
95.342990	95.963265	70.000000	79.000000
95.549748	95.756507	77.000000	81.000000
95.756507	95.963265	79.000000	86.000000
95.963265	96.170023	63.000000	69.000000
96.170023	96.583540	71.000000	71.000000
96.170023	96.376781	65.000000	71.000000
96.376781	96.583540	67.000000	73.000000
96.583540	96.790298	72.000000	72.000000
96.583540	96.790298	68.000000	74.000000
96.790298	96.997056	67.000000	73.000000
96.997056	97.203814	74.000000	81.000000
96.997056	97.203814	65.000000	72.000000
97.203814	97.410572	75.000000	81.000000
97.203814	97.410572	63.000000	71.000000
97.410572	98.651122	77.000000	86.000000
97.410572	97.617331	62.000000	70.000000
97.824089	98.030847	72.000000	78.000000
98.030847	98.237605	71.000000	78.000000
98.237605	98.444363	72.000000	83.000000
98.651122	98.857880	75.000000	71.000000
98.651122	98.857880	60.000000	81.000000
98.857880	99.064638	74.000000	71.000000
98.857880	99.064638	59.000000	81.000000
99.064638	99.271396	72.000000	70.000000
99.064638	99.271396	60.000000	86.000000
99.271396	99.478155	70.000000	69.000000
99.478155	99.694073	68.000000	69.000000
99.478155	99.909990	55.000000	71.000000
99.694073	99.909990	67.000000	68.000000
99.909990	100.116749	65.000000	68.000000
99.909990	100.116749	56.000000	72.000000
100.323507	100.737023	80.000000	74.000000
100.323507	100.737023	77.000000	74.000000
100.323507	100.530265	60.000000	81.000000
100.530265	100.737023	59.000000	81.000000
100.737023	101.150540	79.000000	73.000000
100.737023	101.150540	75.000000	73.000000
100.737023	100.943782	60.000000	86.000000
101.150540	101.564043	77.000000	73.000000
101.150540	101.564043	74.000000	72.000000
101.150540	101.564043	62.000000	76.000000
101.564043	101.770801	75.000000	72.000000
101.564043	101.770801	55.000000	73.000000
101.977559	102.391076	74.000000	74.000000
101.977559	102.391076	68.000000	73.000000
101.977559	102.184317	60.000000	81.000000
102.184317	102.391076	59.000000	81.000000
102.391076	102.804592	75.000000	74.000000
102.391076	102.804592	67.000000	73.000000
102.391076	102.597834	60.000000	86.000000
102.804592	103.218109	77.000000	74.000000
102.804592	103.218109	65.000000	73.000000
102.804592	103.011350	62.000000	77.000000
103.218109	103.432645	71.000000	81.000000
103.218109	103.432645	67.000000	75.000000
103.218109	103.432645	53.000000	72.000000
103.432645	103.647182	55.000000	72.000000
103.647182	104.076255	72.000000	77.000000
103.647182	103.861718	65.000000	78.000000
103.647182	104.489771	56.000000	74.000000
103.861718	104.076255	63.000000	78.000000
104.076255	104.489771	74.000000	77.000000
104.076255	104.283013	65.000000	84.000000
104.489771	104.903288	71.000000	77.000000
104.489771	104.903288	62.000000	76.000000
104.489771	104.696530	55.000000	73.000000
104.696530	104.903288	53.000000	73.000000
104.903288	105.316791	72.000000	81.000000
104.903288	105.730307	67.000000	82.000000
104.903288	105.006660	51.000000	72.000000
105.110033	105.316791	60.000000	75.000000
105.316791	105.523549	79.000000	81.000000
105.316791	105.523549	59.000000	74.000000
105.523549	105.730307	78.000000	81.000000
105.523549	105.730307	57.000000	73.000000
105.730307	105.937066	79.000000	86.000000
105.730307	105.937066	55.000000	72.000000
105.937066	106.143824	53.000000	70.000000
106.143824	106.567559	74.000000	71.000000
106.143824	106.567559	71.000000	72.000000
106.143824	106.355692	51.000000	69.000000
106.355692	106.567559	50.000000	68.000000
106.567559	107.404812	75.000000	72.000000
106.567559	106.779427	72.000000	72.000000
106.567559	106.779427	48.000000	67.000000
106.779427	106.991295	50.000000	70.000000
106.991295	107.198053	72.000000	82.000000
106.991295	107.198053	51.000000	71.000000
107.198053	107.404812	71.000000	82.000000
107.198053	107.404812	50.000000	70.000000
107.404812	107.611570	72.000000	87.000000
107.404812	107.611570	48.000000	67.000000
107.611570	107.818328	46.000000	71.000000
107.818328	108.247401	76.000000	72.000000
107.818328	108.247401	67.000000	73.000000
107.818328	108.032865	44.000000	70.000000
108.032865	108.247401	43.000000	68.000000
108.247401	108.461924	77.000000	81.000000
108.247401	109.089978	68.000000	73.000000
108.247401	108.354663	41.000000	67.000000
108.461924	108.676461	58.000000	74.000000
108.676461	108.883219	77.000000	81.000000
108.676461	108.883219	56.000000	74.000000
108.883219	109.089978	76.000000	81.000000
108.883219	109.089978	55.000000	73.000000
109.089978	109.296736	77.000000	86.000000
109.089978	109.296736	53.000000	72.000000
109.296736	109.503494	51.000000	72.000000
109.503494	109.917010	72.000000	71.000000
109.503494	109.917010	69.000000	71.000000
109.503494	109.710252	50.000000	71.000000
109.710252	109.917010	48.000000	70.000000
109.917010	110.744043	74.000000	72.000000
109.917010	110.123769	70.000000	71.000000
109.917010	110.123769	46.000000	70.000000
110.123769	110.330527	48.000000	71.000000
110.330527	110.537285	70.000000	82.000000
110.330527	110.537285	50.000000	71.000000
110.537285	110.744043	69.000000	82.000000
110.537285	110.744043	48.000000	73.000000
110.744043	110.950801	70.000000	86.000000
110.744043	110.950801	46.000000	71.000000
110.950801	111.157560	44.000000	70.000000
111.157560	111.586633	74.000000	72.000000
111.157560	111.586633	65.000000	75.000000
111.157560	111.372096	43.000000	68.000000
111.372096	111.586633	41.000000	66.000000
111.586633	111.801156	75.000000	81.000000
111.586633	112.429209	67.000000	75.000000
111.586633	111.693895	39.000000	65.000000
111.801156	112.015693	56.000000	75.000000
112.015693	112.222451	75.000000	81.000000
112.015693	112.222451	55.000000	74.000000
112.222451	112.429209	74.000000	81.000000
112.222451	112.429209	53.000000	73.000000
112.429209	112.635967	75.000000	86.000000
112.429209	112.635967	51.000000	72.000000
112.635967	112.842726	49.000000	71.000000
112.842726	113.256242	70.000000	71.000000
112.842726	113.256242	67.000000	74.000000
112.842726	113.049484	48.000000	70.000000
113.049484	113.256242	46.000000	69.000000
113.256242	113.463000	72.000000	76.000000
113.256242	113.463000	68.000000	74.000000
113.256242	113.463000	44.000000	68.000000
113.669759	113.880339	75.000000	81.000000
113.669759	114.090919	68.000000	75.000000
113.669759	114.090919	60.000000	75.000000
113.880339	114.090919	74.000000	81.000000
114.090919	114.301500	75.000000	86.000000
114.090919	114.512080	67.000000	74.000000
114.090919	114.512080	58.000000	74.000000
114.512080	114.933254	77.000000	81.000000
114.512080	114.933254	65.000000	72.000000
114.512080	114.933254	56.000000	72.000000
114.933254	115.143834	70.000000	81.000000
114.933254	115.143834	55.000000	72.000000
115.354415	115.564995	75.000000	81.000000
115.354415	115.775576	56.000000	66.000000
115.354415	115.775576	53.000000	66.000000
115.564995	115.775576	74.000000	81.000000
115.775576	116.196750	75.000000	86.000000
115.775576	116.196750	58.000000	69.000000
115.775576	116.196750	55.000000	69.000000
116.196750	116.512634	77.000000	81.000000
116.196750	116.512634	60.000000	71.000000
116.196750	116.512634	56.000000	71.000000
116.617924	116.832461	68.000000	75.000000
116.617924	117.046997	50.000000	65.000000
116.832461	117.046997	70.000000	75.000000
117.046997	117.894710	72.000000	81.000000
117.046997	117.261534	56.000000	73.000000
117.046997	117.476070	51.000000	69.000000
117.261534	117.476070	55.000000	73.000000
117.476070	117.685390	56.000000	78.000000
117.476070	117.894710	53.000000	72.000000
117.894710	118.104030	70.000000	76.000000
117.894710	118.313349	53.000000	72.000000
117.894710	118.313349	50.000000	68.000000
118.104030	118.313349	68.000000	76.000000
118.313349	118.418009	67.000000	72.000000
118.313349	118.522669	58.000000	71.000000
118.313349	118.522669	51.000000	67.000000
118.522669	118.731989	63.000000	69.000000
118.731989	118.938747	65.000000	70.000000
118.731989	119.145505	60.000000	65.000000
118.731989	119.145505	56.000000	56.000000
118.938747	119.145505	67.000000	71.000000
119.145505	119.352263	68.000000	72.000000
119.145505	119.559022	58.000000	63.000000
119.145505	119.559022	55.000000	55.000000
119.352263	119.559022	70.000000	74.000000
119.559022	119.765780	72.000000	75.000000
119.559022	119.972538	56.000000	61.000000
119.559022	119.972538	53.000000	53.000000
119.765780	119.972538	74.000000	76.000000
119.972538	120.179296	75.000000	77.000000
119.972538	120.179296	58.000000	57.000000
119.972538	120.179296	55.000000	55.000000
120.179296	120.386054	74.000000	76.000000
120.386054	120.592813	72.000000	75.000000
120.386054	120.799571	55.000000	68.000000
120.386054	120.799571	53.000000	56.000000
120.592813	120.799571	74.000000	75.000000
120.799571	121.006329	75.000000	77.000000
120.799571	121.213087	53.000000	66.000000
120.799571	121.213087	50.000000	55.000000
121.006329	121.213087	77.000000	80.000000
121.213087	121.419846	79.000000	82.000000
121.213087	121.626604	51.000000	65.000000
121.213087	121.626604	48.000000	52.000000
121.419846	121.626604	81.000000	85.000000
121.626604	121.729976	82.000000	88.000000
121.626604	121.833349	53.000000	63.000000
121.626604	121.833349	50.000000	50.000000
121.833349	122.040107	65.000000	67.000000
122.040107	122.246865	67.000000	68.000000
122.040107	122.453623	61.000000	71.000000
122.040107	122.453623	58.000000	54.000000
122.246865	122.453623	68.000000	69.000000
122.453623	122.660381	70.000000	71.000000
122.453623	122.867140	60.000000	69.000000
122.453623	122.867140	56.000000	52.000000
122.660381	122.867140	72.000000	72.000000
122.867140	123.073898	74.000000	73.000000
122.867140	123.280656	58.000000	67.000000
122.867140	123.280656	55.000000	51.000000
123.073898	123.280656	76.000000	74.000000
123.280656	123.487414	77.000000	76.000000
123.280656	123.487414	60.000000	65.000000
123.280656	123.487414	56.000000	54.000000
123.487414	123.694173	75.000000	75.000000
123.694173	123.900931	74.000000	73.000000
123.694173	124.107689	56.000000	68.000000
123.694173	124.107689	53.000000	55.000000
123.900931	124.107689	75.000000	76.000000
124.107689	124.314447	77.000000	75.000000
124.107689	124.521205	55.000000	67.000000
124.107689	124.521205	51.000000	52.000000
124.314447	124.521205	79.000000	78.000000
124.521205	124.727964	81.000000	81.000000
124.521205	124.934722	53.000000	65.000000
124.521205	124.934722	50.000000	48.000000
124.727964	124.934722	83.000000	84.000000
124.934722	125.141480	84.000000	87.000000
124.934722	125.141480	55.000000	64.000000
124.934722	125.141480	51.000000	63.000000
125.348238	125.554997	83.000000	82.000000
125.348238	125.554997	67.000000	80.000000
125.554997	125.761755	81.000000	80.000000
125.554997	125.761755	66.000000	80.000000
125.761755	125.968513	79.000000	79.000000
125.761755	125.968513	67.000000	88.000000
125.968513	126.175271	77.000000	78.000000
126.175271	126.382029	75.000000	77.000000
126.175271	126.588788	60.000000	74.000000
126.382029	126.588788	74.000000	76.000000
126.588788	126.795546	72.000000	75.000000
126.588788	126.795546	63.000000	74.000000
127.002304	127.428749	75.000000	73.000000
127.002304	127.215526	67.000000	80.000000
127.002304	127.428749	48.000000	59.000000
127.215526	127.428749	66.000000	80.000000
127.428749	127.855193	74.000000	71.000000
127.428749	127.855193	67.000000	87.000000
127.428749	127.855193	46.000000	58.000000
127.855193	128.281638	72.000000	70.000000
127.855193	128.281638	69.000000	77.000000
127.855193	128.281638	45.000000	56.000000
128.281638	128.494860	70.000000	68.000000
128.281638	128.494860	62.000000	76.000000
128.708083	129.134527	69.000000	67.000000
128.708083	128.921305	67.000000	80.000000
128.708083	129.134527	51.000000	57.000000
128.921305	129.134527	66.000000	80.000000
129.134527	129.560972	70.000000	68.000000
129.134527	129.560972	67.000000	86.000000
129.134527	129.560972	50.000000	56.000000
129.560972	129.880799	72.000000	72.000000
129.560972	129.880799	69.000000	79.000000
129.560972	129.880799	48.000000	55.000000
129.987403	130.422190	66.000000	67.000000
129.987403	130.204797	60.000000	73.000000
129.987403	130.422190	50.000000	59.000000
130.204797	130.422190	62.000000	73.000000
130.422190	130.856976	67.000000	67.000000
130.422190	131.288624	63.000000	80.000000
130.422190	130.639583	48.000000	58.000000
130.639583	130.856976	46.000000	58.000000
130.856976	131.288624	69.000000	70.000000
130.856976	131.288624	48.000000	58.000000
131.288624	131.717698	66.000000	65.000000
131.288624	131.503161	62.000000	77.000000
131.288624	131.717698	50.000000	56.000000
131.503161	131.717698	60.000000	77.000000
131.717698	131.932234	67.000000	71.000000
131.717698	131.932234	58.000000	75.000000
131.717698	131.932234	43.000000	63.000000
132.146771	132.353529	74.000000	72.000000
132.146771	132.353529	58.000000	70.000000
132.353529	132.560287	72.000000	72.000000
132.353529	132.560287	57.000000	70.000000
132.560287	132.973804	74.000000	76.000000
132.560287	132.767045	58.000000	73.000000
132.767045	132.973804	62.000000	67.000000
132.973804	133.184384	64.000000	69.000000
132.973804	133.184384	50.000000	58.000000
133.184384	133.394964	66.000000	71.000000
133.394964	133.605545	67.000000	73.000000
133.394964	133.605545	51.000000	63.000000
133.605545	133.816125	69.000000	75.000000
133.816125	134.022883	76.000000	77.000000
133.816125	134.436400	70.000000	77.000000
133.816125	134.022883	60.000000	69.000000
134.022883	134.229642	74.000000	77.000000
134.022883	134.229642	59.000000	69.000000
134.229642	134.643158	76.000000	81.000000
134.229642	134.436400	60.000000	73.000000
134.436400	134.643158	64.000000	73.000000
134.643158	134.856380	65.000000	75.000000
134.643158	134.856380	52.000000	58.000000
134.856380	135.069603	67.000000	77.000000
135.069603	135.282825	69.000000	79.000000
135.069603	135.282825	53.000000	63.000000
135.282825	135.496047	70.000000	79.000000
135.496047	135.702806	78.000000	84.000000
135.496047	136.116322	72.000000	83.000000
135.496047	135.702806	62.000000	75.000000
135.702806	135.909564	76.000000	84.000000
135.702806	135.909564	60.000000	75.000000
135.909564	136.323080	78.000000	89.000000
135.909564	136.116322	62.000000	80.000000
136.116322	136.323080	66.000000	75.000000
136.323080	136.533661	67.000000	78.000000
136.323080	136.533661	54.000000	63.000000
136.533661	136.744241	69.000000	80.000000
136.744241	137.165402	70.000000	83.000000
136.744241	136.954821	55.000000	65.000000
137.165402	137.372160	67.000000	72.000000
137.165402	137.372160	63.000000	71.000000
137.372160	137.578918	65.000000	72.000000
137.372160	137.578918	62.000000	71.000000
137.578918	137.785676	67.000000	77.000000
137.578918	137.785676	63.000000	74.000000
137.785676	137.992435	43.000000	54.000000
137.992435	138.201754	55.000000	64.000000
137.992435	138.201754	45.000000	57.000000
138.201754	138.411074	47.000000	59.000000
138.411074	138.620394	56.000000	64.000000
138.411074	138.620394	48.000000	62.000000
138.620394	138.829714	50.000000	64.000000
138.829714	139.036472	69.000000	71.000000
138.829714	139.036472	65.000000	72.000000
138.829714	139.449988	51.000000	66.000000
139.036472	139.243230	67.000000	71.000000
139.036472	139.243230	63.000000	72.000000
139.243230	139.449988	69.000000	76.000000
139.243230	139.449988	65.000000	76.000000
139.449988	139.656746	45.000000	58.000000
139.656746	139.863505	57.000000	64.000000
139.656746	139.863505	46.000000	60.000000
139.863505	140.070263	48.000000	63.000000
140.070263	140.277021	58.000000	64.000000
140.070263	140.277021	50.000000	65.000000
140.277021	140.483779	51.000000	67.000000
140.483779	140.690537	71.000000	71.000000
140.483779	140.690537	67.000000	72.000000
140.483779	141.104054	53.000000	70.000000
140.690537	140.897296	69.000000	71.000000
140.690537	140.897296	65.000000	72.000000
140.897296	141.104054	71.000000	76.000000
140.897296	141.104054	67.000000	75.000000
141.104054	141.310812	47.000000	59.000000
141.310812	141.522680	59.000000	64.000000
141.310812	141.522680	48.000000	62.000000
141.522680	141.734548	50.000000	64.000000
141.734548	141.840482	60.000000	69.000000
141.734548	141.946416	51.000000	67.000000
141.946416	142.158283	65.000000	68.000000
142.158283	142.365042	72.000000	81.000000
142.158283	142.365042	63.000000	67.000000
142.365042	142.571800	71.000000	81.000000
142.365042	142.571800	62.000000	66.000000
142.571800	142.778558	72.000000	86.000000
142.571800	142.778558	60.000000	66.000000
142.778558	142.985316	58.000000	65.000000
142.985316	143.398833	67.000000	71.000000
142.985316	143.192075	56.000000	64.000000
142.985316	143.398833	52.000000	61.000000
143.192075	143.398833	55.000000	63.000000
143.398833	143.605591	68.000000	72.000000
143.398833	143.605591	53.000000	62.000000
143.398833	143.605591	56.000000	66.000000
143.812349	144.019107	72.000000	81.000000
143.812349	144.225866	68.000000	64.000000
143.812349	144.225866	41.000000	60.000000
144.019107	144.225866	71.000000	81.000000
144.225866	144.432624	72.000000	86.000000
144.225866	144.639382	67.000000	68.000000
144.225866	144.639382	39.000000	59.000000
144.639382	145.065827	74.000000	76.000000
144.639382	145.065827	65.000000	68.000000
144.639382	145.065827	38.000000	58.000000
145.065827	145.279049	67.000000	73.000000
145.065827	145.279049	63.000000	66.000000
145.492271	145.699030	72.000000	81.000000
145.492271	145.905788	62.000000	64.000000
145.492271	145.905788	44.000000	61.000000
145.699030	145.905788	71.000000	81.000000
145.905788	146.112546	72.000000	86.000000
145.905788	146.319304	63.000000	64.000000
145.905788	146.319304	43.000000	59.000000
146.319304	146.526062	74.000000	77.000000
146.319304	146.729374	65.000000	64.000000
146.319304	146.732821	41.000000	57.000000
146.732821	146.943401	65.000000	75.000000
146.732821	146.943401	59.000000	69.000000
146.732821	146.943401	43.000000	56.000000
146.943401	147.153981	67.000000	75.000000
147.153981	147.988659	68.000000	81.000000
147.153981	147.575142	60.000000	64.000000
147.153981	147.364562	41.000000	62.000000
147.364562	147.575142	39.000000	62.000000
147.575142	147.988659	62.000000	67.000000
147.575142	147.781900	41.000000	67.000000
147.988659	148.195417	67.000000	73.000000
147.988659	148.402175	59.000000	59.000000
147.988659	148.195417	43.000000	55.000000
148.195417	148.402175	65.000000	73.000000
148.402175	148.608933	63.000000	73.000000
148.402175	149.229208	60.000000	66.000000
148.402175	148.608933	48.000000	58.000000
148.608933	148.815691	50.000000	58.000000
148.815691	149.022450	72.000000	81.000000
148.815691	149.022450	51.000000	59.000000
149.022450	149.229208	71.000000	81.000000
149.022450	149.229208	50.000000	58.000000
149.229208	149.442430	72.000000	86.000000
149.229208	149.442430	48.000000	57.000000
149.442430	149.655653	46.000000	57.000000
149.655653	150.069169	67.000000	71.000000
149.655653	150.069169	64.000000	64.000000
149.655653	149.862411	44.000000	56.000000
149.862411	150.069169	43.000000	55.000000
150.069169	150.896188	68.000000	72.000000
150.069169	150.275914	65.000000	64.000000
150.069169	150.172541	41.000000	54.000000
150.275914	150.482672	58.000000	59.000000
150.482672	150.689430	65.000000	82.000000
150.482672	150.689430	56.000000	59.000000
150.689430	150.896188	64.000000	82.000000
150.689430	150.896188	55.000000	58.000000
150.896188	151.102947	65.000000	84.000000
150.896188	151.102947	53.000000	57.000000
151.102947	151.309705	51.000000	57.000000
151.309705	151.723221	69.000000	72.000000
151.309705	151.723221	60.000000	72.000000
151.309705	151.516463	50.000000	56.000000
151.516463	151.723221	48.000000	55.000000
151.723221	151.929980	70.000000	73.000000
151.723221	152.550254	62.000000	72.000000
151.723221	151.929980	46.000000	55.000000
151.929980	152.136738	48.000000	57.000000
152.136738	152.343496	70.000000	81.000000
152.136738	152.343496	50.000000	60.000000
152.343496	152.550254	69.000000	81.000000
152.343496	152.550254	48.000000	59.000000
152.550254	152.763477	70.000000	86.000000
152.550254	152.763477	46.000000	58.000000
152.763477	152.976699	44.000000	57.000000
152.976699	153.390215	65.000000	71.000000
152.976699	153.390215	62.000000	69.000000
152.976699	153.183457	43.000000	57.000000
153.183457	153.390215	41.000000	56.000000
153.390215	154.217235	67.000000	72.000000
153.390215	153.596960	63.000000	69.000000
153.390215	153.493588	39.000000	55.000000
153.596960	153.803718	56.000000	61.000000
153.803718	154.010477	63.000000	79.000000
153.803718	154.010477	55.000000	60.000000
154.010477	154.217235	62.000000	79.000000
154.010477	154.217235	53.000000	60.000000
154.217235	154.423993	63.000000	84.000000
154.217235	154.423993	51.000000	59.000000
154.423993	154.630751	50.000000	58.000000
154.630751	155.457784	67.000000	72.000000
154.630751	155.044268	58.000000	73.000000
154.630751	154.837509	48.000000	57.000000
154.837509	155.044268	46.000000	57.000000
155.044268	157.111836	60.000000	73.000000
155.044268	155.251026	44.000000	56.000000
155.251026	155.457784	46.000000	57.000000
155.457784	155.664542	68.000000	71.000000
155.457784	155.664542	48.000000	60.000000
155.664542	155.871301	70.000000	72.000000
155.664542	155.871301	46.000000	58.000000
155.871301	156.078059	72.000000	74.000000
155.871301	156.078059	44.000000	58.000000
156.078059	156.284817	71.000000	72.000000
156.078059	156.284817	43.000000	57.000000
156.284817	156.491575	72.000000	76.000000
156.284817	156.491575	41.000000	57.000000
156.491575	156.698333	68.000000	72.000000
156.491575	156.698333	39.000000	56.000000
156.698333	157.525353	65.000000	76.000000
156.698333	156.801706	38.000000	56.000000
156.905078	157.111836	55.000000	56.000000
157.111836	157.318595	62.000000	72.000000
157.111836	157.318595	53.000000	60.000000
157.318595	157.525353	63.000000	73.000000
157.318595	157.525353	51.000000	59.000000
157.525353	157.938869	65.000000	75.000000
157.525353	157.732111	50.000000	59.000000
157.732111	157.938869	63.000000	73.000000
157.732111	157.938869	48.000000	58.000000
157.938869	158.765902	65.000000	75.000000
157.938869	158.145628	47.000000	57.000000
158.145628	158.352386	62.000000	73.000000
158.145628	158.352386	45.000000	56.000000
158.352386	158.559144	59.000000	75.000000
158.352386	159.179419	43.000000	55.000000
158.765902	158.972660	74.000000	80.000000
158.972660	159.179419	72.000000	80.000000
159.179419	159.386177	74.000000	86.000000
159.592935	160.021995	65.000000	73.000000
159.592935	160.021995	59.000000	63.000000
160.021995	160.228753	63.000000	73.000000
160.021995	160.228753	60.000000	63.000000
160.228753	160.435511	43.000000	49.000000
160.435511	160.642270	75.000000	80.000000
160.435511	160.642270	45.000000	51.000000
160.642270	160.849028	74.000000	80.000000
160.642270	160.849028	47.000000	52.000000
160.849028	161.055786	75.000000	84.000000
160.849028	161.055786	48.000000	54.000000
161.055786	161.262544	50.000000	55.000000
161.262544	161.676061	67.000000	73.000000
161.262544	161.676061	63.000000	65.000000
161.262544	161.469302	51.000000	57.000000
161.469302	161.676061	53.000000	58.000000
161.676061	161.882819	65.000000	73.000000
161.676061	161.882819	62.000000	65.000000
161.676061	161.882819	55.000000	60.000000
161.882819	162.089577	53.000000	57.000000
162.089577	162.296335	77.000000	82.000000
162.089577	162.296335	56.000000	62.000000
162.296335	162.503093	75.000000	82.000000
162.296335	162.503093	55.000000	61.000000
162.503093	162.709852	77.000000	88.000000
162.503093	162.709852	53.000000	60.000000
162.709852	162.916610	51.000000	59.000000
162.916610	163.330126	68.000000	77.000000
162.916610	163.743629	65.000000	70.000000
162.916610	163.123368	50.000000	58.000000
163.123368	163.330126	48.000000	57.000000
163.330126	163.433499	67.000000	77.000000
163.330126	163.536871	47.000000	56.000000
163.536871	163.743629	77.000000	81.000000
163.743629	163.950388	75.000000	80.000000
163.743629	163.950388	48.000000	77.000000
163.950388	164.157146	74.000000	79.000000
163.950388	164.157146	47.000000	77.000000
164.157146	164.363904	72.000000	78.000000
164.157146	164.363904	48.000000	80.000000
164.363904	164.570662	71.000000	77.000000
164.570662	164.777420	69.000000	76.000000
164.570662	164.984179	65.000000	67.000000
164.570662	164.984179	43.000000	71.000000
164.777420	164.984179	67.000000	75.000000
164.984179	165.202832	72.000000	73.000000
164.984179	165.202832	63.000000	65.000000
164.984179	165.202832	44.000000	71.000000
165.421486	165.858794	77.000000	78.000000
165.421486	165.858794	68.000000	66.000000
165.421486	165.640140	48.000000	78.000000
165.640140	165.858794	47.000000	78.000000
165.858794	166.296102	75.000000	76.000000
165.858794	166.296102	67.000000	65.000000
165.858794	166.077448	48.000000	81.000000
166.296102	166.733423	74.000000	73.000000
166.296102	166.733423	65.000000	64.000000
166.296102	166.733423	50.000000	75.000000
166.733423	166.967110	63.000000	71.000000
166.733423	166.967110	43.000000	71.000000
167.200798	167.652670	68.000000	76.000000
167.200798	167.652670	62.000000	69.000000
167.200798	167.426734	48.000000	77.000000
167.426734	167.652670	47.000000	77.000000
167.652670	168.126375	67.000000	74.000000
167.652670	168.126375	63.000000	67.000000
167.652670	167.889523	48.000000	80.000000
168.126375	168.600080	65.000000	71.000000
168.126375	168.363228	50.000000	71.000000
168.600080	168.849083	67.000000	73.000000
168.600080	168.849083	59.000000	69.000000
168.600080	168.849083	41.000000	74.000000
168.849083	169.098086	43.000000	74.000000
169.098086	169.354627	65.000000	76.000000
169.098086	169.611167	60.000000	65.000000
169.098086	170.124247	44.000000	78.000000
169.354627	169.611167	63.000000	76.000000
169.611167	169.867707	65.000000	81.000000
169.611167	169.867707	62.000000	69.000000
170.124247	170.678981	62.000000	73.000000
170.124247	170.678981	59.000000	65.000000
170.124247	170.401614	43.000000	73.000000
170.401614	170.678981	41.000000	73.000000
170.678981	171.288246	68.000000	89.000000
170.678981	171.288246	59.000000	88.000000
170.678981	171.897510	39.000000	69.000000
171.288246	171.897510	67.000000	76.000000
171.288246	171.897510	60.000000	62.000000
172.506774	173.116038	69.000000	78.000000
172.506774	173.116038	60.000000	68.000000
172.506774	173.116038	51.000000	57.000000
173.116038	173.725302	71.000000	82.000000
173.116038	173.420670	65.000000	75.000000
173.116038	173.725302	50.000000	61.000000
173.420670	173.725302	62.000000	72.000000
173.725302	174.334567	72.000000	80.000000
173.725302	174.029934	63.000000	77.000000
173.725302	174.334567	48.000000	57.000000
174.029934	174.976554	60.000000	71.000000
174.334567	174.650531	65.000000	76.000000
174.334567	174.976554	55.000000	69.000000
174.650531	174.976554	63.000000	75.000000
174.976554	175.313305	62.000000	75.000000
174.976554	175.745329	59.000000	74.000000
174.976554	175.745329	43.000000	64.000000
175.313305	175.745329	60.000000	74.000000
175.745329	176.333444	60.000000	81.000000
175.745329	190.255781	48.000000	82.000000
175.745329	190.255781	36.000000	82.000000
176.333444	176.597896	72.000000	81.000000
176.597896	176.862349	71.000000	81.000000
176.862349	177.104284	72.000000	87.000000
177.346220	177.830091	67.000000	77.000000
177.346220	177.830091	64.000000	65.000000
177.830091	178.072026	68.000000	77.000000
177.830091	178.072026	65.000000	66.000000
178.313961	178.561248	72.000000	80.000000
178.561248	178.808534	71.000000	80.000000
178.808534	179.303094	72.000000	86.000000
179.303094	179.797653	74.000000	74.000000
179.303094	179.797653	71.000000	45.000000
179.303094	179.797653	68.000000	45.000000
179.303094	179.797653	65.000000	45.000000
179.797653	180.044940	67.000000	76.000000
179.797653	180.044940	65.000000	60.000000
180.292226	180.546808	72.000000	79.000000
180.292226	180.546808	63.000000	64.000000
180.546808	180.801390	71.000000	79.000000
180.546808	180.801390	62.000000	64.000000
180.801390	181.326232	72.000000	86.000000
180.801390	181.326232	63.000000	69.000000
181.326232	181.807340	74.000000	78.000000
181.326232	181.807340	68.000000	57.000000
181.326232	181.807340	65.000000	57.000000
181.855123	182.171048	65.000000	56.000000
181.855123	182.486972	59.000000	53.000000
181.855123	182.486972	62.000000	53.000000
182.171048	182.486972	67.000000	56.000000
182.486972	183.799659	68.000000	60.000000
183.130608	183.799659	59.000000	46.000000
183.130608	183.799659	62.000000	46.000000
183.799659	184.231683	67.000000	47.000000
184.231683	184.901029	65.000000	45.000000
184.901029	190.255781	64.000000	43.000000
184.901029	190.255781	55.000000	36.000000
184.901029	190.255781	60.000000	36.000000
