OnsetTime	OffsetTime	MidiPitch	Velocity
0.500004	0.89095	38	92
0.63032	1.42036	45	56
0.760635	1.55068	53	56
0.89095	1.29005	38	46
1.02127	1.81131	57	69
1.29005	1.681	38	75
1.42036	2.20923	45	53
1.55068	2.33954	53	53
1.681	2.07891	38	48
1.81131	2.60018	57	65
2.07891	2.46986	38	63
2.20923	2.99571	45	51
2.33954	3.12602	53	51
2.46986	2.86539	38	46
2.60018	3.38665	57	60
2.86539	3.25634	38	61
2.99571	3.78575	45	52
3.12602	3.91607	53	53
3.25634	3.65544	38	46
3.38665	4.1767	57	60
3.65544	4.04638	38	55
3.65544	4.44669	69	79
3.78575	4.44669	45	48
3.91607	4.44669	53	47
4.04638	4.44669	38	41
4.1767	4.44669	57	50
4.1767	4.44669	65	73
4.44669	4.84277	38	54
4.44669	6.82055	62	70
4.57871	5.3709	45	45
4.71074	5.50293	53	45
4.84277	5.23887	38	38
4.9748	5.76699	57	53
5.23887	5.63496	38	55
5.3709	6.16137	45	45
5.50293	6.29169	53	46
5.63496	6.03106	38	40
5.76699	6.55232	57	53
6.03106	6.422	38	54
6.03106	6.82055	65	72
6.16137	6.82055	45	47
6.29169	6.82055	53	47
6.29169	6.82055	69	77
6.422	6.81295	38	42
6.55232	6.82055	57	56
6.68263	6.82055	74	78
6.81295	7.2039	38	57
6.81295	8.3836	72	77
6.94326	7.72516	45	49
7.07358	7.85547	53	49
7.2039	7.59484	38	44
7.33421	8.11953	57	54
7.59484	7.9875	38	56
7.72516	8.3836	45	48
7.85547	8.3836	53	49
7.9875	8.3836	38	43
8.11953	8.3836	57	54
8.25157	8.3836	70	75
8.3836	8.77453	38	54
8.3836	9.82113	69	70
8.5139	9.29579	45	48
8.64422	9.42611	53	48
8.77453	9.16548	38	43
8.90485	9.68674	57	51
9.16548	9.55642	38	53
9.29579	9.95552	45	48
9.42611	9.95552	53	48
9.55642	9.95552	38	42
9.68674	9.95552	57	51
9.82113	9.95552	69	77
9.95552	10.3465	38	57
9.95552	11.3211	69	77
10.0858	11.1218	45	47
10.2161	11.2521	53	47
10.3465	10.9915	38	42
10.4768	11.3211	57	54
10.7087	10.9255	65	63
10.7935	11.2521	62	63
10.8595	10.9915	64	63
10.9255	11.3211	65	63
10.9915	11.3211	38	54
10.9915	11.3211	64	72
11.1218	11.9082	45	45
11.2521	12.0385	53	45
11.2521	13.3315	62	72
11.3835	11.7779	38	41
11.515	12.2991	57	53
11.7779	12.1688	38	55
11.9082	12.6884	45	45
12.0385	12.817	53	45
12.1688	12.5597	38	39
12.2991	13.0742	57	53
12.2991	13.3315	65	70
12.5597	12.9456	38	54
12.5597	13.3315	69	72
12.6884	13.3315	45	46
12.817	13.3315	53	46
12.817	13.3315	74	76
12.9456	13.3315	38	40
13.0742	13.3315	57	53
13.2029	13.3315	77	77
13.3315	13.7224	38	55
13.3315	14.8885	76	79
13.4618	14.2403	45	47
13.5921	14.3695	53	47
13.7224	14.1111	38	41
13.8527	14.6279	57	53
14.1111	14.4987	38	54
14.2403	14.8885	45	47
14.3695	14.8885	53	46
14.4987	14.8885	38	43
14.6279	14.8885	57	53
14.7582	14.8885	74	79
14.8885	15.2846	38	55
14.8885	15.2846	69	79
15.0205	15.7195	45	47
15.1526	15.7195	53	47
15.2846	15.7071	38	44
15.2846	15.7195	69	57
15.3506	15.4927	71	57
15.4166	15.7195	57	53
15.4166	15.567	72	58
15.4927	15.637	71	58
15.567	15.7071	72	59
15.637	15.7195	71	59
15.7071	16.1077	38	54
15.7071	15.8419	72	60
15.7746	15.9088	71	60
15.8419	16.5687	43	46
15.8419	15.9755	72	61
15.9088	16.0417	71	61
15.9755	16.5687	53	47
15.9755	16.1077	72	62
16.0417	16.1734	71	62
16.1077	16.5687	38	42
16.1077	16.2386	72	63
16.1734	16.3038	71	63
16.2386	16.5687	55	53
16.2386	16.4992	72	63
16.3038	16.4341	71	63
16.3689	16.5687	69	64
16.4341	16.5687	71	64
16.4992	16.8901	36	62
16.4992	17.2887	72	79
16.6295	17.2887	45	48
16.7598	17.2887	53	48
16.8901	17.2811	36	44
17.0205	17.2887	57	56
17.2811	17.672	36	60
17.2811	18.063	70	78
17.4114	18.063	45	49
17.5417	18.063	53	49
17.672	18.063	36	45
17.8024	18.063	57	55
17.8024	18.063	69	73
18.063	18.4884	36	59
18.063	18.2097	67	60
18.1369	18.281	69	61
18.2097	18.8792	43	48
18.2097	18.3513	67	61
18.281	18.4201	69	62
18.3513	18.8792	53	49
18.3513	18.4884	67	63
18.4201	18.5557	69	63
18.4884	18.8792	36	45
18.4884	18.6223	67	63
18.5557	18.6882	69	64
18.6223	18.8835	55	63
18.6223	18.8184	67	64
18.6882	18.8792	69	65
18.7532	18.8792	65	66
18.8184	18.8835	67	67
18.8835	19.2745	36	60
18.8835	19.67	69	78
19.0138	19.67	43	49
19.1442	19.67	53	49
19.2745	19.67	36	43
19.4048	19.67	55	62
19.5374	19.67	65	78
19.67	20.0661	36	63
19.67	21.244	60	72
19.8026	20.5896	46	50
19.9352	20.7205	53	50
20.0661	20.4587	36	45
20.197	20.9823	55	63
20.4587	20.8514	36	63
20.5896	21.244	46	48
20.7205	21.244	53	48
20.8514	21.244	36	42
20.9823	21.244	55	63
21.244	21.6476	36	61
21.244	21.4602	60	72
21.3794	22.1742	46	51
21.4064	21.621	62	61
21.4602	21.5675	60	62
21.514	22.3053	52	50
21.514	22.8336	59	63
21.5675	22.8336	60	63
21.621	22.8336	62	63
21.6476	22.0433	36	44
21.6742	22.8336	64	64
21.7274	22.8336	65	64
21.7804	22.5687	55	56
21.7804	22.8336	67	65
21.8332	22.8336	69	66
21.8859	22.8336	70	66
21.9385	22.8336	72	67
21.9909	22.8336	74	68
22.0433	22.4367	36	61
22.0433	22.8336	76	69
22.0956	22.8336	77	69
22.148	22.8336	79	70
22.1742	22.8336	46	49
22.2004	22.8336	81	71
22.2527	22.8336	82	71
22.3053	22.8336	52	49
22.3053	22.8336	84	72
22.3578	22.8336	86	72
22.4104	22.8336	88	72
22.4367	22.8336	36	45
22.4631	22.8336	89	73
22.5159	22.8336	91	74
22.5687	22.8336	55	57
22.5687	22.8336	93	75
22.6215	22.8336	94	75
22.6744	22.8336	96	76
22.7275	22.8336	98	77
22.7805	22.8336	100	77
22.8336	23.2245	41	64
22.8336	23.6312	101	90
22.9639	23.6312	48	52
23.0942	23.6312	57	52
23.2245	23.6236	41	45
23.3548	23.6312	60	59
23.6236	24.0145	41	64
23.7539	24.4124	48	52
23.8842	24.4124	57	52
24.0145	24.4124	41	45
24.1449	24.4124	60	59
24.4124	24.8309	41	64
24.4124	24.5577	71	64
24.4857	24.6281	72	64
24.5577	25.2056	51	54
24.5577	24.6971	71	64
24.6281	24.7646	72	64
24.6971	25.2056	57	54
24.6971	24.8309	71	64
24.7646	24.8969	72	64
24.8309	25.2056	41	46
24.8309	24.9629	71	65
24.8969	25.0286	72	65
24.9629	25.2239	59	60
24.9629	25.1591	71	65
25.0286	25.2056	72	65
25.094	25.2056	69	65
25.1591	25.2239	71	65
25.2239	25.6131	41	64
25.2239	26.0058	72	77
25.3537	26.0058	47	53
25.4834	26.0058	57	53
25.6131	26.0058	41	45
25.7429	26.0058	59	59
25.8743	26.0058	69	77
26.0058	26.3962	40	64
26.0058	27.4181	64	76
26.1372	26.9129	48	52
26.2686	27.0427	57	52
26.3962	26.7832	40	45
26.5237	27.3121	60	60
26.5237	27.5916	89	87
26.7832	27.1759	40	64
26.9129	27.5916	48	54
27.0427	27.5044	57	54
27.0823	27.5916	88	74
27.1231	27.5916	84	73
27.1646	27.5916	81	72
27.1759	27.5916	40	46
27.2064	27.5916	77	72
27.2483	27.5916	76	72
27.2904	27.5916	72	72
27.3121	27.4611	60	61
27.3327	27.5916	69	71
27.3753	27.5916	65	70
27.4181	27.5916	64	70
27.4611	27.5916	60	69
27.5044	27.5916	57	68
27.5478	27.5916	53	68
27.5916	27.9808	40	64
27.5916	28.1107	52	85
27.7213	28.5035	50	54
27.851	28.389	56	54
27.9808	28.3716	40	49
28.1107	28.25	52	64
28.1107	28.4591	59	60
28.2152	29.2541	53	65
28.25	28.3195	52	66
28.2847	29.2541	51	67
28.3195	29.2541	52	67
28.3542	29.2541	54	68
28.3716	28.7794	40	64
28.389	28.6389	56	68
28.4237	29.2541	57	68
28.4591	28.9274	59	69
28.4946	29.2541	60	69
28.5035	29.2541	50	53
28.5304	29.2541	62	70
28.5664	29.2541	64	70
28.6025	29.2541	66	71
28.6389	29.2541	56	53
28.6389	29.2541	68	71
28.6757	29.2541	69	72
28.7129	29.2541	71	72
28.7508	29.2541	72	72
28.7794	29.2541	40	47
28.789	29.2541	74	72
28.8278	29.2541	76	73
28.8672	29.2541	78	74
28.9072	29.2541	80	74
28.9274	29.2541	59	64
28.9477	29.2541	81	75
28.9886	29.2541	83	75
29.0305	29.2541	84	76
29.073	29.2541	86	76
29.1166	29.2541	88	77
29.1613	29.2541	90	77
29.2073	29.2541	92	78
29.2541	29.6483	33	67
29.2541	30.8287	93	85
29.3877	30.1695	40	53
29.518	30.2999	48	54
29.6483	30.0392	33	47
29.7786	30.5605	52	59
30.0392	30.4302	33	65
30.1695	30.8287	40	53
30.2999	30.8287	48	53
30.4302	30.8211	33	47
30.5605	30.8287	52	58
30.8211	31.2121	33	64
30.9514	31.7333	40	50
31.0817	31.8636	48	50
31.2121	31.603	33	45
31.3424	32.1242	52	59
31.603	31.9939	33	64
31.7333	32.5152	40	48
31.8636	32.6455	48	48
31.9939	32.3849	33	45
32.1242	32.9061	52	58
32.3849	32.7758	33	55
32.3849	33.1761	64	77
32.5152	33.1761	40	46
32.6455	33.1761	48	46
32.7758	33.1761	33	40
32.9061	33.1761	52	53
32.9061	33.1761	60	70
33.1761	33.5722	33	54
33.1761	35.55	57	67
33.3081	34.1003	40	45
33.4402	34.2323	48	46
33.5722	33.9683	33	41
33.7042	34.4964	52	53
33.9683	34.3644	33	55
34.1003	34.8908	40	46
34.2323	35.0211	48	47
34.3644	34.7605	33	41
34.4964	35.2817	52	53
34.7605	35.1514	33	54
34.7605	35.55	60	72
34.8908	35.55	40	48
35.0211	35.55	48	48
35.0211	35.55	64	77
35.1514	35.5424	33	43
35.2817	35.55	52	56
35.412	35.55	69	78
35.5424	35.9333	33	57
35.5424	37.113	67	77
35.6727	36.4546	40	48
35.803	36.5849	48	48
35.9333	36.3242	33	43
36.0636	36.8489	52	54
36.3242	36.7169	33	56
36.4546	37.113	40	48
36.5849	37.113	48	48
36.7169	37.113	33	44
36.8489	37.113	52	54
36.981	37.113	65	75
37.113	37.5039	33	54
37.113	38.5505	64	70
37.2433	38.0252	40	48
37.3736	38.1555	48	48
37.5039	37.8949	33	43
37.6342	38.4161	52	51
37.8949	38.2858	33	53
38.0252	38.6849	40	47
38.1555	38.6849	48	47
38.2858	38.6849	33	43
38.4161	38.6849	52	51
38.5505	38.6849	64	77
38.6849	39.0758	33	57
38.6849	40.0505	64	77
38.8152	39.8512	40	48
38.9455	39.9815	48	48
39.0758	39.7208	33	45
39.2062	40.0505	52	54
39.4381	39.6549	60	63
39.5229	39.9815	57	63
39.5889	39.7208	59	63
39.6549	40.0505	60	63
39.7208	40.0505	33	54
39.7208	40.0505	59	72
39.8512	40.0505	40	46
39.9815	40.7679	48	45
39.9815	42.0609	57	72
40.1129	40.5072	33	41
40.2444	41.0285	52	53
40.5072	40.8982	33	55
40.6376	41.4177	40	45
40.7679	41.5464	48	45
40.8982	41.2891	33	39
41.0285	41.8036	52	53
41.0285	42.0609	60	70
41.2891	41.675	33	54
41.2891	42.0609	64	72
41.4177	42.0609	40	47
41.5464	42.0609	48	47
41.5464	42.0609	69	76
41.675	42.0609	33	42
41.8036	42.0609	52	53
41.9322	42.0609	72	77
42.0609	42.4518	33	55
42.0609	43.6179	71	79
42.1912	42.9697	40	46
42.3215	43.0989	48	46
42.4518	42.8405	33	43
42.5821	43.3573	52	53
42.8405	43.2281	33	54
42.9697	43.6179	40	48
43.0989	43.6179	48	47
43.2281	43.6179	33	42
43.3573	43.6179	52	53
43.4876	43.6179	69	79
43.6179	44.014	33	55
43.6179	44.014	64	79
43.7499	44.4508	40	47
43.8819	44.4508	48	47
44.014	44.4385	33	44
44.014	44.4508	64	57
44.08	44.2221	66	57
44.146	44.4508	52	53
44.146	44.2964	67	58
44.2221	44.3683	66	58
44.2964	44.4385	67	59
44.3683	44.4508	66	59
44.4385	44.8391	33	54
44.4385	44.5732	67	60
44.5059	44.6401	66	60
44.5732	45.3	38	47
44.5732	44.7068	67	61
44.6401	44.773	66	61
44.7068	45.3	48	47
44.7068	44.8391	67	62
44.773	44.9047	66	62
44.8391	45.3	33	42
44.8391	44.9699	67	63
44.9047	45.0351	66	63
44.9699	45.3	50	53
44.9699	45.2305	67	63
45.0351	45.1654	66	63
45.1002	45.3	64	64
45.1654	45.3	66	64
45.2305	45.6215	31	62
45.2305	46.02	67	79
45.3608	46.02	40	48
45.4912	46.02	48	48
45.6215	46.0124	31	42
45.7518	46.02	52	56
46.0124	46.4033	31	60
46.0124	46.7943	65	78
46.1427	46.7943	40	50
46.273	46.7943	48	49
46.4033	46.7943	31	44
46.5337	46.7943	52	55
46.5337	46.7943	64	77
46.7943	47.2196	31	59
46.7943	46.941	62	60
46.8682	47.0123	64	61
46.941	47.6105	38	48
46.941	47.0826	62	61
47.0123	47.1514	64	62
47.0826	47.6105	48	48
47.0826	47.2196	62	63
47.1514	47.2869	64	63
47.2196	47.6105	31	44
47.2196	47.3536	62	63
47.2869	47.4195	64	64
47.3536	47.6148	50	53
47.3536	47.5497	62	64
47.4195	47.6105	64	65
47.4845	47.6105	60	66
47.5497	47.6148	62	67
47.6148	48.0058	31	60
47.6148	48.4013	64	78
47.7451	48.4013	38	50
47.8755	48.4013	48	50
48.0058	48.4013	31	44
48.1361	48.4013	50	56
48.2687	48.4013	60	78
48.4013	48.7974	31	60
48.4013	49.9753	55	72
48.5339	49.3209	38	50
48.6665	49.4518	48	49
48.7974	49.19	31	45
48.9283	49.7135	50	55
49.19	49.5827	31	60
49.3209	49.9753	38	50
49.4518	49.9753	48	48
49.5827	49.9753	31	44
49.7135	49.9753	50	55
49.9753	50.3789	31	61
49.9753	50.1915	55	72
50.1107	50.9055	41	51
50.1377	50.3523	57	61
50.1915	50.2988	55	62
50.2453	51.0366	47	50
50.2453	51.5649	54	63
50.2988	51.5649	55	63
50.3523	51.5649	57	63
50.3789	50.7746	31	44
50.4055	51.5649	59	64
50.4587	51.5649	60	64
50.5117	51.3	50	50
50.5117	51.5649	62	65
50.5645	51.5649	64	66
50.6172	51.5649	65	66
50.6698	51.5649	67	67
50.7222	51.5649	69	68
50.7746	51.168	31	61
50.7746	51.5649	71	69
50.827	51.5649	72	69
50.8793	51.5649	74	70
50.9055	51.5649	41	52
50.9317	51.5649	76	71
50.984	51.5649	77	71
51.0366	51.5649	47	51
51.0366	51.5649	79	72
51.0891	51.5649	81	72
51.1417	51.5649	83	72
51.168	51.5649	31	45
51.1944	51.5649	84	73
51.2472	51.5649	86	74
51.3	51.5649	50	57
51.3	51.5649	88	75
51.3528	51.5649	89	75
51.4057	51.5649	91	76
51.4588	51.5649	93	77
51.5118	51.5649	95	77
51.5649	51.9558	36	64
51.5649	52.3625	96	90
51.6952	52.3625	43	54
51.8255	52.3625	52	52
51.9558	52.3549	36	47
52.0861	52.3625	55	59
52.3549	52.7459	36	64
52.4852	53.1511	43	51
52.6155	53.1511	52	51
52.7459	53.1438	36	45
52.8762	53.1511	55	59
53.1438	53.5622	36	64
53.1438	53.217	66	64
53.217	53.3594	67	64
53.289	53.9369	42	53
53.289	53.4284	66	64
53.3594	53.4959	67	64
53.4284	53.9369	52	53
53.4284	53.5622	66	64
53.4959	53.6283	67	64
53.5622	53.9369	36	47
53.5622	53.6943	66	65
53.6283	53.7599	67	65
53.6943	53.9552	54	60
53.6943	53.8904	66	65
53.7599	53.9369	67	65
53.8253	53.9369	64	65
53.8904	53.9552	66	65
53.9552	54.3445	36	64
53.9552	54.7371	67	77
54.085	54.7371	42	52
54.2147	54.7371	52	52
54.3445	54.7371	36	45
54.4742	54.7371	54	59
54.6056	54.7371	64	77
54.7371	55.1275	35	64
54.7371	56.0508	59	76
54.8685	55.6443	43	51
55.0	55.774	52	51
55.1275	55.5145	35	45
55.255	56.0335	55	60
55.255	56.2929	84	87
55.5145	55.9037	35	64
55.5664	56.2929	83	74
55.627	56.2929	79	73
55.6443	56.2929	43	54
55.6875	56.2929	76	72
55.748	56.2929	72	72
55.774	56.1719	52	54
55.8086	56.2929	71	72
55.8691	56.2929	67	72
55.9037	56.2929	35	46
55.9297	56.2929	64	71
55.9902	56.2929	60	70
56.0335	56.1113	55	61
56.0508	56.2929	59	70
56.1113	56.2929	55	69
56.1719	56.2929	52	68
56.2324	56.2929	48	68
56.2929	56.6821	35	64
56.2929	57.9957	47	90
56.4227	57.2046	45	54
56.5524	57.1914	51	54
56.6821	57.0729	35	48
56.8121	57.2312	54	59
57.0729	57.4828	35	64
57.1516	57.9957	48	60
57.1914	57.3376	51	62
57.2046	57.9957	45	55
57.2312	57.6403	54	63
57.271	57.9957	57	63
57.3107	57.9957	60	64
57.3376	57.9957	51	55
57.3513	57.9957	63	65
57.3941	57.9957	66	67
57.438	57.9957	69	68
57.4828	57.9957	35	47
57.4828	57.9957	72	69
57.5288	57.9957	75	71
57.5758	57.9957	78	72
57.624	57.9957	81	72
57.6403	57.9957	54	61
57.6733	57.9957	84	73
57.7238	57.9957	87	75
57.7758	57.9957	90	76
57.8291	57.9957	93	77
57.8839	57.9957	96	78
57.9401	57.9957	99	79
57.9957	58.3899	40	64
57.9957	59.5709	100	90
58.1292	58.9193	47	54
58.2595	59.0496	55	54
58.3899	58.789	40	48
58.5202	59.3102	59	60
58.789	59.1799	40	62
58.789	60.0921	67	79
58.9193	59.5709	47	52
59.0496	59.5709	55	52
59.1799	59.5709	40	45
59.3102	59.5709	59	56
59.5709	59.9618	39	61
59.7012	60.3564	47	51
59.8315	60.3564	55	51
59.9618	60.3564	39	45
60.0921	60.3609	59	57
60.0921	60.2713	67	78
60.2713	60.3564	67	72
60.3161	60.3609	70	72
60.3609	60.7518	38	61
60.3609	61.1474	68	80
60.4912	61.1474	47	52
60.6215	61.1474	53	52
60.7518	61.1474	38	45
60.8822	61.1474	55	57
61.0148	61.1474	67	78
61.1474	61.5452	36	64
61.1474	63.7805	67	77
61.28	62.0757	43	52
61.4126	62.2077	51	52
61.5452	61.943	36	45
61.6778	62.47	55	57
61.6778	63.5199	63	80
61.943	62.3391	36	63
61.943	64.3283	60	78
62.0757	62.8602	43	53
62.2077	62.9905	51	53
62.3391	62.7299	36	45
62.47	63.2511	55	61
62.7299	63.1208	36	61
62.8602	63.6502	43	52
62.9905	63.7805	51	52
63.1208	63.5199	36	45
63.2511	64.0469	55	57
63.5199	63.9137	36	60
63.5199	64.3283	63	76
63.6502	64.3283	43	52
63.7805	64.3283	51	52
63.7805	64.3283	67	78
63.9137	64.3283	36	44
64.0469	64.3283	55	55
64.1876	64.3283	72	81
64.3283	64.7315	36	63
64.3283	65.1537	70	81
64.4627	65.1537	44	49
64.5971	65.1537	51	49
64.7315	65.1347	36	44
64.8659	65.1537	56	58
64.8659	65.1537	68	79
65.1347	65.5379	36	62
65.1347	66.7474	63	79
65.2691	65.9982	44	53
65.4035	65.9982	51	51
65.5379	65.9411	36	45
65.6723	65.9982	56	57
65.9411	66.3443	36	63
66.0755	66.7474	44	51
66.2099	66.7474	54	51
66.2099	66.613	68	81
66.3443	66.7474	36	45
66.4786	66.7474	56	58
66.613	66.7474	68	78
66.7474	67.1511	36	64
66.7474	67.6222	68	74
66.8791	67.6222	44	52
66.8791	67.6222	65	76
67.0133	67.6222	54	52
67.0133	67.2946	66	78
67.1511	67.6222	36	45
67.1511	67.6222	63	80
67.2946	67.4505	56	58
67.2946	67.6222	66	81
67.4505	67.6222	56	82
67.6222	68.0131	37	64
67.6222	69.9748	68	84
67.7525	68.5413	44	51
67.8828	68.6717	53	52
68.0131	68.411	37	45
68.1434	68.9323	56	57
68.1434	69.7142	65	82
68.411	68.802	37	64
68.411	70.778	61	82
68.5413	69.3232	44	53
68.6717	69.4535	53	52
68.802	69.1929	37	46
68.9323	69.7142	56	58
69.1929	69.5839	37	63
69.3232	70.1051	44	53
69.4535	70.2354	53	53
69.5839	69.9748	37	46
69.7142	70.496	56	59
69.7142	70.778	65	77
69.9748	70.3657	37	64
69.9748	70.778	68	79
70.1051	70.778	44	53
70.2354	70.778	53	53
70.2354	70.778	73	81
70.3657	70.766	37	45
70.496	70.778	56	58
70.631	70.778	77	82
70.766	71.157	37	62
70.766	72.3924	75	79
70.8964	71.6851	44	52
71.0267	71.8177	53	52
71.157	71.5525	37	45
71.2873	72.083	56	59
71.2873	72.3924	73	77
71.5525	71.9504	37	56
71.5525	72.3924	68	72
71.6851	72.3924	44	49
71.8177	72.3924	53	46
71.9504	72.3482	37	43
72.083	72.3924	56	50
72.3482	72.746	37	50
72.4808	73.2911	44	34
72.6134	73.4312	53	35
72.746	73.1511	37	29
72.8786	73.7112	56	42
72.8786	73.9913	65	54
73.1511	73.5712	37	48
73.1511	73.9913	68	56
73.2911	73.9913	44	34
73.4312	73.9913	53	34
73.4312	73.9913	73	58
73.5712	73.9913	37	27
73.7112	73.9913	56	42
73.8513	73.9913	77	61
73.9913	74.4114	37	43
73.9913	75.6707	75	60
74.1314	74.9642	45	32
74.2714	75.0968	53	32
74.4114	74.8316	37	27
74.5515	75.362	57	42
74.5515	75.6707	73	59
74.8316	75.2294	37	44
74.8316	75.8878	69	52
74.9642	75.6707	45	32
75.0968	75.6707	53	32
75.2294	75.6272	37	27
75.362	75.6707	57	41
75.6272	76.0182	37	46
75.7575	76.5446	45	33
75.8878	76.6766	53	33
75.8878	76.1485	69	60
76.0182	76.4125	37	27
76.1485	76.9407	57	41
76.1485	76.4125	69	58
76.4125	76.8086	37	45
76.4125	77.207	69	62
76.5446	77.207	45	33
76.6766	77.207	53	33
76.6766	77.207	65	55
76.8086	77.207	37	28
76.9407	77.207	57	41
77.0738	77.207	67	62
77.207	77.6066	37	45
77.207	79.0717	69	62
77.3402	78.1394	45	33
77.4734	78.2725	53	33
77.6066	78.0062	37	27
77.7398	78.5389	57	41
78.0062	78.4057	37	46
78.1394	78.8208	45	34
78.2725	78.8208	53	33
78.4057	78.8053	37	27
78.5389	78.8208	57	41
78.8053	79.2037	37	45
78.9385	79.7318	45	33
79.0717	79.8639	53	33
79.0717	79.3357	69	62
79.0717	79.3357	81	62
79.2037	79.5998	37	25
79.3357	80.1279	57	40
79.3357	79.5998	69	64
79.3357	79.5998	81	64
79.5998	79.9959	37	45
79.5998	80.2741	69	67
79.5998	80.2741	81	67
79.7318	80.4203	45	35
79.7978	80.4203	72	60
79.7978	80.4203	84	60
79.8639	80.4203	53	33
79.8639	80.4203	70	66
79.8639	80.4203	82	66
79.9959	80.4203	37	26
80.1279	80.4203	57	39
80.2741	80.4203	69	72
80.2741	80.4203	81	72
80.4203	80.5529	38	61
80.4203	82.0393	69	68
80.4203	82.0393	81	68
80.5529	81.3486	45	45
80.6855	81.4812	53	45
80.8181	81.216	38	40
80.9508	81.7464	57	56
80.9508	82.0393	65	66
80.9508	82.0393	77	66
81.216	81.6138	38	56
81.216	83.6647	62	66
81.216	83.0655	74	66
81.3486	82.0393	45	45
81.4812	82.0393	53	45
81.6138	82.0117	38	39
81.7464	82.0393	57	55
82.0117	82.4083	38	64
82.1443	82.9341	45	45
82.2769	83.0655	53	45
82.4083	82.8026	38	39
82.5398	83.3284	57	57
82.5398	83.6647	65	70
82.5398	83.4659	77	70
82.8026	83.197	38	59
82.8026	83.6647	69	72
82.8026	83.6647	81	72
82.9341	83.6647	45	49
83.0655	83.6647	53	47
83.0655	83.6647	74	75
83.0655	83.6647	86	75
83.197	83.6647	38	42
83.3284	83.6647	57	60
83.4659	83.6647	77	79
83.4659	83.6647	89	79
83.6034	83.7348	34	64
83.6034	85.1844	76	81
83.6034	85.1844	88	81
83.7348	84.53	43	51
83.8662	84.6609	50	51
83.9977	84.3991	34	43
84.1291	84.9226	52	63
84.1291	84.6609	74	76
84.1291	84.6609	86	76
84.3991	84.7917	34	64
84.3991	85.1844	67	80
84.3991	85.1844	79	80
84.53	85.1844	43	52
84.6609	85.1844	50	52
84.6609	85.1844	74	83
84.6609	85.1844	86	83
84.7917	85.1844	34	45
84.9226	85.1844	52	63
85.0535	85.1844	77	84
85.0535	85.1844	89	84
85.1844	85.577	34	72
85.1844	86.8485	76	84
85.1844	86.8485	88	84
85.3153	86.1005	44	59
85.4461	86.2314	50	58
85.577	85.9696	34	50
85.7079	86.5076	53	64
85.7079	86.2314	74	82
85.7079	86.2314	86	82
85.9696	86.3657	34	71
85.9696	86.8485	68	78
85.9696	86.8485	80	78
86.1005	86.8485	44	58
86.2314	86.8485	50	58
86.2314	86.8485	74	81
86.2314	86.8485	86	81
86.3657	86.8429	34	51
86.5076	86.8485	53	64
86.5076	86.8485	77	83
86.5076	86.8485	89	83
86.8429	87.2419	34	72
86.8429	87.1093	98	72
86.8429	89.9185	101	72
86.9317	87.1977	97	72
86.9317	89.9185	100	72
86.9761	87.77	44	61
87.0205	87.2861	96	72
87.0205	89.9185	99	72
87.1093	87.9015	50	61
87.1093	87.3745	95	71
87.1093	89.9185	98	71
87.1977	87.4625	94	71
87.1977	89.9185	97	71
87.2419	87.6386	34	54
87.2861	87.5506	93	71
87.2861	89.9185	96	71
87.3745	88.1632	53	64
87.3745	87.6386	92	70
87.3745	89.9185	95	70
87.4625	87.7262	91	70
87.4625	89.9185	94	70
87.5506	87.8138	90	70
87.5506	89.9185	93	70
87.6386	88.0323	34	70
87.6386	87.9015	89	69
87.6386	89.9185	92	69
87.7262	87.9887	88	69
87.7262	89.9185	91	69
87.77	88.5542	44	60
87.8138	88.076	87	69
87.8138	89.9185	90	69
87.9015	88.6845	50	60
87.9015	88.1632	86	68
87.9015	89.9185	89	68
87.9887	88.2501	85	68
87.9887	89.9185	88	68
88.0323	88.4238	34	53
88.076	88.337	84	68
88.076	89.9185	87	68
88.1632	88.9464	53	64
88.1632	88.4238	83	67
88.1632	89.9185	86	67
88.2501	88.5107	82	67
88.2501	89.9185	85	67
88.337	88.5976	81	67
88.337	89.9185	84	67
88.4238	88.8153	34	68
88.4238	88.6845	80	66
88.4238	89.9185	83	66
88.5107	88.7717	79	66
88.5107	89.9185	82	66
88.5542	89.3417	44	60
88.5976	88.859	78	66
88.5976	89.9185	81	66
88.6845	89.4743	50	60
88.6845	88.9464	77	65
88.6845	89.9185	80	65
88.7717	89.034	76	65
88.7717	89.9185	79	65
88.8153	89.2097	34	54
88.859	89.1217	75	65
88.859	89.9185	78	65
88.9464	89.7403	53	64
88.9464	89.2097	74	64
88.9464	89.9185	77	64
89.034	89.2977	73	64
89.034	89.9185	76	64
89.1217	89.3859	72	64
89.1217	89.9185	75	64
89.2097	89.6071	34	67
89.2097	89.4743	71	64
89.2097	89.9185	74	64
89.2977	89.5627	70	64
89.2977	89.9185	73	64
89.3417	89.9185	44	58
89.3859	89.6515	69	64
89.3859	89.9185	72	64
89.4743	89.9185	50	58
89.4743	89.7403	68	63
89.4743	89.9185	71	63
89.5627	89.8293	67	63
89.5627	89.9185	70	63
89.6071	89.9185	34	52
89.6515	89.9185	66	63
89.6515	89.9185	69	63
89.7403	90.0077	53	64
89.7403	89.9185	65	63
89.7403	89.9185	68	63
89.8293	89.9185	64	63
89.8293	89.9185	67	63
89.9185	90.0077	62	63
89.9185	90.0077	67	63
90.0077	90.4073	33	65
90.0077	90.8068	57	85
90.1409	90.8068	41	54
90.2741	90.8068	50	54
90.4073	90.8068	33	48
90.5404	90.8068	53	62
90.6736	90.8068	69	83
90.8068	91.1978	33	66
90.8068	92.3857	69	86
90.9371	91.5963	41	55
91.0674	91.5963	50	55
91.1978	91.5887	33	49
91.3281	91.5963	53	61
91.5887	91.9796	33	67
91.719	92.3857	41	55
91.8493	92.3857	50	55
91.8493	92.3857	67	81
91.9796	92.3706	33	50
92.1099	92.3857	53	63
92.2403	92.3857	65	78
92.3706	92.7581	33	66
92.3706	92.6074	64	76
92.4998	93.1457	41	56
92.4998	92.9304	65	78
92.6074	92.8227	64	78
92.6289	93.1457	50	56
92.7151	93.038	62	78
92.7581	93.1457	33	50
92.8227	93.1457	64	78
92.8873	93.1457	53	63
92.9304	93.1457	65	78
93.038	93.1457	62	73
93.1457	93.5418	33	67
93.1457	96.2974	57	78
93.1457	96.2974	69	78
93.2777	94.0647	41	57
93.4097	94.1951	50	57
93.5418	93.9344	33	49
93.6738	94.4557	53	61
93.6738	93.9344	81	84
93.6738	93.9344	93	84
93.9344	94.3254	33	67
93.9344	96.2974	81	84
93.9344	96.2974	93	84
94.0647	94.8466	41	59
94.1951	94.9769	50	59
94.3254	94.7163	33	54
94.4557	95.2376	53	63
94.7163	95.1073	33	70
94.8466	95.6285	41	59
94.9769	95.7588	50	59
94.9769	96.2974	79	85
94.9769	96.2974	91	85
95.1073	95.4982	33	53
95.2376	96.0194	53	67
95.3679	95.6285	77	87
95.3679	95.6285	89	87
95.4982	95.8891	33	71
95.4982	95.7371	76	80
95.4982	95.7371	88	80
95.6285	96.2974	41	59
95.6285	96.0629	77	82
95.6285	96.0629	89	82
95.7371	95.9543	76	82
95.7371	95.9543	88	82
95.7588	96.2974	50	59
95.8457	96.2236	74	82
95.8457	96.2236	86	82
95.8891	96.2974	33	52
95.9543	96.2974	76	82
95.9543	96.2974	88	82
96.0194	96.2974	53	67
96.0629	96.2974	77	82
96.0629	96.2974	89	82
96.2236	96.2974	74	82
96.2236	96.2974	86	82
96.2974	96.6883	33	72
96.2974	97.6075	82	89
96.2974	97.8751	94	89
96.4277	97.2166	43	61
96.558	97.3469	50	61
96.558	97.8751	76	84
96.558	97.8751	88	84
96.6883	97.0862	33	54
96.8186	97.6075	52	71
96.8186	97.8751	77	84
96.8186	97.8751	89	84
97.0862	97.4772	33	72
97.0862	97.8751	81	87
97.0862	97.8751	93	87
97.2166	97.8751	43	58
97.3469	97.8751	50	58
97.3469	97.8751	79	84
97.3469	97.8751	91	84
97.4772	97.8751	33	51
97.6075	97.8751	52	70
97.6075	97.8751	70	84
97.6075	97.8751	82	84
97.8751	98.266	33	72
97.8751	98.7417	74	88
97.8751	98.7417	86	88
98.0054	98.7417	43	63
98.1357	98.7417	50	63
98.1357	98.7417	67	83
98.1357	98.7417	79	83
98.266	98.657	33	57
98.3964	98.7417	52	68
98.3964	98.7417	69	80
98.3964	98.7417	81	80
98.657	99.0479	33	71
98.657	99.4446	72	86
98.657	99.4446	84	86
98.7873	99.4446	43	63
98.9176	99.4446	50	63
98.9176	99.4446	70	82
98.9176	99.4446	82	82
99.0479	99.4446	33	58
99.1782	99.4446	52	66
99.3114	99.4446	64	79
99.3114	99.4446	76	79
99.4446	99.8355	33	71
99.4446	100.219	67	87
99.4446	100.219	79	87
99.5749	100.219	43	61
99.7052	100.219	50	61
99.7052	100.219	58	81
99.7052	100.219	70	81
99.8355	100.219	33	56
99.9658	100.226	52	65
99.9658	100.226	60	79
99.9658	100.226	72	79
100.226	100.617	33	70
100.226	101.043	64	83
100.226	101.043	76	83
100.357	101.043	43	60
100.487	101.043	50	60
100.487	101.043	62	78
100.487	101.043	74	78
100.617	101.02	33	54
100.748	101.043	52	66
100.748	101.043	55	78
100.748	101.043	67	78
101.02	101.411	33	72
101.02	102.594	58	86
101.02	102.594	70	86
101.15	101.72	43	59
101.281	101.72	50	60
101.411	101.72	33	54
101.541	102.33	52	67
101.802	102.198	33	71
101.802	102.594	49	84
101.802	102.594	61	84
101.934	102.594	43	61
102.066	102.594	45	61
102.198	102.594	33	54
102.33	102.594	52	65
102.594	102.985	38	71
102.594	104.165	50	86
102.594	104.165	62	86
102.725	103.506	45	63
102.855	103.637	53	62
102.985	103.376	38	57
103.115	103.897	57	67
103.376	103.767	38	68
103.506	104.165	45	62
103.637	104.165	53	62
103.767	104.165	38	58
103.897	104.165	57	66
104.165	104.556	38	68
104.165	104.99	89	90
104.165	105.736	101	90
104.295	105.076	44	62
104.426	105.206	53	62
104.556	104.947	38	56
104.686	105.469	56	66
104.817	105.736	100	81
104.86	105.736	98	80
104.903	105.736	95	80
104.947	105.337	38	68
104.947	105.736	91	79
104.99	105.736	89	79
105.033	105.736	88	78
105.076	105.736	44	61
105.076	105.736	86	78
105.119	105.736	83	77
105.163	105.736	79	77
105.206	105.646	53	61
105.206	105.736	77	76
105.25	105.736	76	76
105.294	105.736	74	75
105.337	105.736	38	56
105.337	105.736	71	75
105.381	105.736	67	75
105.425	105.736	65	74
105.469	105.736	56	65
105.469	105.736	64	74
105.513	105.736	62	73
105.558	105.736	59	73
105.602	105.736	55	72
105.646	105.736	53	72
105.691	105.736	52	72
105.736	106.128	38	64
105.736	107.314	50	90
105.867	106.652	45	52
105.997	106.783	53	52
106.128	106.521	38	45
106.259	107.044	57	62
106.521	106.914	38	64
106.652	107.314	45	53
106.783	107.314	53	53
106.914	107.314	38	46
107.044	107.314	57	63
107.314	107.709	38	61
107.314	108.138	59	73
107.314	108.901	65	73
107.314	108.138	71	73
107.446	108.138	44	51
107.577	108.138	53	51
107.709	108.107	38	46
107.84	108.138	56	56
108.107	108.499	38	61
108.107	108.906	58	72
108.107	108.906	70	72
108.237	108.906	44	49
108.368	108.906	53	49
108.499	108.901	38	44
108.63	108.906	56	56
108.901	109.296	38	61
108.901	109.427	57	69
108.901	110.487	65	69
108.901	110.487	69	69
109.033	109.821	45	49
109.164	109.953	53	48
109.296	109.69	38	41
109.427	110.216	57	56
109.69	110.084	38	61
109.821	110.487	45	48
109.953	110.487	53	48
110.084	110.487	38	41
110.216	110.487	57	56
110.487	110.88	38	68
110.487	111.22	89	90
110.487	111.22	101	90
110.618	111.22	44	52
110.749	111.22	53	52
110.88	111.22	38	45
111.01	111.272	56	61
111.141	111.22	100	80
111.185	111.229	98	79
111.229	111.272	95	79
111.272	111.661	38	64
111.272	112.058	91	78
111.315	112.058	89	78
111.358	112.058	88	78
111.401	112.058	44	52
111.401	112.058	86	77
111.444	112.058	83	77
111.487	112.058	79	76
111.531	111.969	53	52
111.531	112.058	77	76
111.574	112.058	76	75
111.617	112.058	74	75
111.661	112.058	38	45
111.661	112.058	71	75
111.705	112.058	67	74
111.749	112.058	65	74
111.792	112.058	56	60
111.792	112.058	64	73
111.836	112.058	62	73
111.88	112.058	59	73
111.925	112.058	55	72
111.969	112.058	53	72
112.013	112.058	52	72
112.058	112.459	38	64
112.058	113.663	50	90
112.192	112.994	45	52
112.325	113.128	53	52
112.459	112.861	38	42
112.593	113.396	57	60
112.861	113.262	38	66
112.994	113.663	45	51
113.128	113.663	53	51
113.262	113.663	38	43
113.396	113.663	57	62
113.663	114.076	38	68
113.663	113.83	59	61
113.663	113.83	65	61
113.663	113.83	71	72
113.802	114.518	44	51
113.83	113.994	59	62
113.83	113.994	65	62
113.83	113.994	71	73
113.94	114.518	53	51
113.994	114.157	59	63
113.994	114.157	65	63
113.994	114.157	71	74
114.076	114.479	38	44
114.157	114.319	59	63
114.157	114.319	65	63
114.157	114.319	71	75
114.211	114.518	56	61
114.319	114.518	59	64
114.319	114.479	65	64
114.319	114.518	71	76
114.479	114.88	38	61
114.479	114.639	58	65
114.479	114.639	65	65
114.479	114.639	70	77
114.612	115.287	44	51
114.639	114.8	58	67
114.639	114.8	65	67
114.639	114.8	70	79
114.746	115.287	53	52
114.8	114.961	58	67
114.8	114.961	65	67
114.8	114.961	70	80
114.88	115.287	38	45
114.961	115.124	58	68
114.961	115.124	65	68
114.961	115.124	70	81
115.015	115.287	56	61
115.124	115.287	58	68
115.124	115.287	65	68
115.124	115.287	70	81
115.287	118.179	38	50
115.321	118.043	45	52
115.354	117.84	53	54
115.388	117.773	57	77
115.422	116.1	65	81
115.49	116.1	69	85
116.1	117.572	65	68
116.1	117.505	69	68
116.1	117.373	74	81
116.1	117.307	77	81
116.1	117.11	86	90
116.1	118.523	98	102
116.914	118.523	94	86
116.979	118.523	93	86
117.044	118.523	89	86
117.11	118.523	86	85
117.175	118.523	82	85
117.241	118.523	81	85
117.307	118.523	77	84
117.373	118.523	74	84
117.439	118.523	70	84
117.505	118.523	69	83
117.572	118.523	65	83
117.639	118.523	62	83
117.706	118.523	58	82
117.773	118.523	57	82
117.84	118.523	53	82
117.908	118.523	50	81
117.975	118.523	46	81
118.043	118.523	45	81
118.111	118.523	41	81
118.179	118.523	38	81
118.248	118.523	34	81
118.316	118.523	33	80
118.385	118.523	29	80
118.454	118.523	28	79
118.523	120.18	26	113
120.18	121.838	26	115
121.838	123.219	26	113
