OnsetTime	OffsetTime	MidiPitch	Velocity
0.517989	0.612992	65	42
0.603001	0.693003	66	42
0.674992	0.770009	65	42
0.748994	0.843998	67	43
0.826014	0.920991	68	43
0.903006	0.993987	69	43
0.98299	1.07799	68	44
1.05699	1.15201	70	44
1.134	1.22502	71	44
1.211	1.30203	72	46
1.28401	1.37903	71	46
1.36102	1.45302	73	46
1.43504	1.53004	74	47
1.51603	1.60304	75	47
1.59204	1.68003	74	47
1.66903	1.75402	76	48
1.74302	1.83101	77	48
1.82001	1.908	78	48
1.89402	1.981	77	49
1.93201	3.82709	53	37
1.97	2.05801	79	49
1.97101	2.64604	59	42
2.00501	2.64705	62	46
2.041	2.94007	68	57
2.041	2.13202	80	49
2.11401	2.20903	81	50
2.19102	2.28504	80	50
2.26804	2.35903	82	50
2.34105	2.43604	83	51
2.41504	2.50606	84	51
2.49204	2.57905	83	51
2.56905	2.65605	86	52
2.60405	3.52909	60	33
2.64705	3.23708	63	46
2.64705	2.73005	84	52
2.71304	2.80705	85	52
2.79005	2.88407	84	54
2.86406	2.95407	86	54
2.94107	3.02806	87	54
2.94307	3.23809	67	49
3.01306	3.10106	89	55
3.08406	3.17908	87	55
3.16107	3.24808	90	55
3.23809	3.38109	91	56
3.23908	3.82709	63	54
3.30707	3.82709	92	56
3.38109	3.82709	91	56
3.45809	3.82709	95	57
3.52909	3.82709	60	49
3.52909	3.67508	96	57
3.60108	3.82709	97	57
3.67508	3.82709	96	58
3.74508	3.83608	98	58
3.82609	3.97007	99	60
3.89308	4.99503	98	60
3.97007	4.99503	99	59
4.03907	4.99503	97	59
4.11308	4.26006	96	58
4.18307	4.99503	95	58
4.26006	4.99503	96	57
4.33406	4.99503	94	57
4.40306	4.55105	93	56
4.48105	4.99503	92	56
4.55105	4.99503	93	55
4.62704	4.99503	91	55
4.70104	4.84504	90	54
4.77404	4.99503	89	54
4.84504	4.99503	90	52
4.92203	4.99503	88	51
4.99103	5.14201	87	49
5.06502	5.55798	86	49
5.14201	5.55798	87	49
5.21202	5.55798	85	48
5.28601	5.432	84	48
5.35501	5.55798	83	48
5.432	5.55798	84	47
5.43301	7.32596	53	35
5.464	6.17696	57	37
5.50899	5.575	82	47
5.51	6.17696	60	41
5.54	6.17696	63	43
5.579	5.72598	81	46
5.57999	6.79295	66	46
5.65299	6.17696	80	46
5.72598	6.17696	81	46
5.80398	6.17696	79	44
5.87698	6.03096	78	44
5.95496	6.17696	77	43
6.03096	6.17696	78	43
6.10096	6.17696	75	42
6.13896	7.12296	58	36
6.17496	6.79796	62	48
6.17496	6.33196	74	42
6.25096	6.49194	73	42
6.33196	6.49194	74	41
6.40496	6.49194	72	41
6.48294	6.63594	70	40
6.48395	6.79796	65	35
6.56294	6.76895	69	40
6.63594	6.76895	70	40
6.71994	6.79796	68	39
6.79895	6.95795	67	39
6.80095	7.44795	61	46
6.87794	7.44894	66	37
6.95795	7.28396	67	37
7.03895	7.36396	65	37
7.12296	7.40695	58	34
7.12296	7.44894	73	36
7.20296	7.44894	70	36
7.28396	7.44894	67	35
7.32596	7.81496	53	34
7.36396	7.44894	65	35
7.36495	7.81895	55	34
7.40695	7.81995	58	34
7.44495	7.81995	64	43
7.44795	7.81995	61	34
8.11996	8.73891	97	48
8.12096	8.49994	88	34
8.12096	8.42194	91	34
8.19795	8.73891	94	48
8.27095	8.73891	90	47
8.27195	8.65592	81	29
8.27395	8.57893	84	29
8.34794	8.73891	87	46
8.42194	8.72991	85	29
8.42194	8.73891	91	46
8.42394	8.73891	82	29
8.49994	8.73891	88	44
8.57893	8.73891	84	44
8.57992	8.73891	75	29
8.58192	8.73891	78	29
8.65592	8.73891	81	43
8.72991	9.11388	76	34
8.72991	9.32389	85	42
8.73191	9.0379	79	34
8.80591	9.32389	82	41
8.8869	9.32389	78	41
8.88791	9.27188	69	29
8.88791	9.19489	72	29
8.96389	9.32389	75	40
9.0379	9.32389	70	29
9.0379	9.32389	73	29
9.0379	9.32389	79	39
9.11388	9.32389	76	39
9.19489	9.32389	72	37
9.19588	9.32389	63	29
9.19588	9.32389	66	29
9.27188	9.34187	69	36
9.34587	9.59687	64	34
9.34587	9.66787	73	36
9.34687	9.66787	67	34
9.42187	9.66787	70	35
9.50687	9.66787	66	35
9.50987	9.66787	57	31
9.51086	9.66787	60	31
9.59687	9.67386	64	34
9.67487	9.83187	64	34
9.67787	9.83286	58	34
9.67787	9.83486	61	34
9.67787	9.83286	67	34
10.0449	10.1429	41	41
10.2449	10.3259	85	44
10.2459	10.3259	73	37
10.2459	10.3259	76	37
10.2479	10.3269	53	21
10.2479	10.3289	58	21
10.2479	10.3289	67	26
10.2489	10.3289	61	21
10.4049	10.4859	84	39
10.4059	10.4869	73	32
10.4059	10.4899	76	32
10.4089	10.4899	58	21
10.4099	10.4929	53	21
10.4099	10.4909	61	21
10.4099	10.4939	67	26
10.5739	10.6549	76	35
10.5739	10.6549	83	42
10.5769	10.6579	67	26
10.5769	10.6579	73	35
10.5779	10.6579	53	21
10.5779	10.6619	58	21
10.5809	10.6619	61	21
10.7379	10.8288	73	32
10.7388	10.8299	76	32
10.7388	10.8299	82	37
10.7399	10.8328	67	27
10.7408	10.8328	53	23
10.7419	10.8339	58	23
10.7419	10.8339	61	23
10.9169	11.0049	73	36
10.9169	11.0039	76	36
10.9179	11.0049	85	43
10.9199	11.0079	58	25
10.9199	11.0079	61	25
10.9199	11.0069	67	31
10.9208	11.0089	53	25
11.0838	11.2598	73	39
11.0849	11.2598	76	39
11.0849	11.2529	84	47
11.0878	11.4268	67	25
11.0888	11.4278	53	20
11.0888	11.4278	61	20
11.0908	11.4308	58	20
11.1728	11.2608	83	46
11.2628	11.3398	82	44
11.7708	12.6978	99	48
11.7718	12.1558	90	34
11.7718	12.0778	93	34
11.8478	12.6978	96	48
11.9218	12.6978	92	47
11.9228	12.3078	83	29
11.9238	12.2288	86	29
11.9998	12.6978	89	46
12.0778	12.6978	93	46
12.0788	12.4578	84	29
12.0788	12.3798	87	29
12.1558	12.6978	90	44
12.2288	12.6978	86	44
12.2298	12.5338	80	29
12.2328	12.6138	77	29
12.3078	12.6978	83	43
12.3798	12.6978	78	34
12.3798	12.6978	87	42
12.3828	12.6878	81	34
12.4578	12.6978	84	41
12.5338	12.6978	80	41
12.5368	12.6978	74	29
12.5408	12.6978	71	29
12.6138	12.6978	77	40
12.6878	13.0738	72	29
12.6878	13.3167	81	39
12.6908	12.9958	75	29
12.7658	13.3167	78	39
12.8428	13.3167	74	37
12.8448	13.2307	65	29
12.8458	13.1527	68	29
12.9228	13.3167	71	36
12.9958	13.3167	75	36
12.9968	13.3047	69	34
12.9988	13.3037	66	34
13.0738	13.3167	72	35
13.1527	13.3167	68	35
13.1537	13.3167	59	31
13.1537	13.3167	62	31
13.2307	13.3167	65	34
13.3037	13.4647	66	34
13.3047	13.4657	60	34
13.3047	13.4647	69	34
13.3067	13.4677	63	34
13.9407	14.0347	41	44
14.1327	14.2207	81	44
14.1327	14.2177	90	52
14.1367	14.2247	60	25
14.1367	14.2237	78	44
14.1377	14.2247	63	25
14.1377	14.2257	69	31
14.3007	14.3817	89	46
14.3017	14.3847	78	37
14.3017	14.3827	81	37
14.3037	14.3857	69	31
14.3047	14.3857	60	25
14.3047	14.3887	63	25
14.4657	14.5497	78	42
14.4657	14.5497	81	42
14.4667	14.5537	63	25
14.4667	14.5537	88	50
14.4677	14.5537	60	25
14.4687	14.5567	69	31
14.6297	14.7177	78	37
14.6307	14.7187	87	44
14.6327	14.7207	81	37
14.6337	14.7217	69	32
14.6367	14.7247	60	27
14.6377	14.7247	63	27
14.8117	14.8987	81	43
14.8117	14.8997	90	51
14.8127	14.8997	78	43
14.8157	14.9037	60	29
14.8157	14.9027	69	35
14.8167	14.9037	63	29
14.9797	15.1377	89	56
14.9807	15.1477	78	46
14.9807	15.1477	81	46
14.9827	15.3227	69	29
14.9837	15.3237	60	23
14.9837	15.3237	63	23
15.0687	15.1487	88	54
15.1517	15.2357	87	48
15.5197	15.5997	75	35
15.5197	15.5987	87	43
15.5227	15.6037	60	20
15.5227	15.6037	63	20
15.5227	15.6037	78	35
15.5237	15.6057	69	25
15.6867	15.7747	86	37
15.6907	15.7777	75	31
15.6907	15.7787	78	31
15.6917	15.7817	60	20
15.6917	15.7787	69	25
15.6937	15.7817	63	20
15.8547	15.9417	85	41
15.8587	15.9467	63	20
15.8587	15.9427	75	33
15.8587	15.9457	78	33
15.8627	15.9467	60	20
15.8627	15.9487	69	25
16.0297	16.1247	78	31
16.0297	16.1247	84	35
16.0307	16.1257	75	31
16.0337	16.1277	60	21
16.0347	16.1277	69	26
16.0367	16.1277	63	21
16.2147	16.3027	75	34
16.2157	16.3037	78	34
16.2197	16.3067	63	23
16.2197	16.3077	69	29
16.2197	16.3037	87	42
16.2207	16.3077	60	23
16.3907	16.6287	86	44
16.3917	16.6287	75	37
16.3917	16.6287	78	37
16.3937	16.7507	63	19
16.3937	16.7507	69	23
16.3947	16.7507	60	19
16.4787	16.6287	85	43
16.5727	16.6567	84	42
16.9287	17.0167	84	41
16.9297	17.0207	75	33
16.9327	17.0207	72	33
16.9337	17.0217	63	21
16.9337	17.0217	66	21
16.9357	17.0237	69	28
17.0977	17.3877	72	36
17.0977	17.3877	83	43
17.1007	17.4647	63	18
17.1007	17.3877	75	36
17.1017	17.4657	66	18
17.1047	17.4657	69	21
17.1927	17.3877	82	42
17.2877	17.3877	81	42
17.6577	17.7487	75	32
17.6587	17.7527	66	20
17.6587	17.7487	72	32
17.6587	17.7497	81	39
17.6607	17.7527	69	27
17.8317	18.0497	80	41
17.8367	18.0497	75	34
17.8387	18.0497	72	34
17.8397	18.2167	66	17
17.8397	18.2177	69	20
17.9347	18.0497	79	40
18.0297	18.1267	78	39
18.4107	18.5047	69	27
18.4107	18.5037	72	32
18.4107	18.5007	77	40
18.4137	18.5087	75	35
18.6027	18.6937	75	27
18.6037	18.6967	72	28
18.6037	18.6937	78	34
18.7887	18.8787	72	32
18.7887	18.8827	77	40
18.7897	18.8837	69	27
18.7917	18.8837	75	35
18.9737	19.0647	75	27
18.9737	19.0687	79	35
18.9767	19.0687	72	31
19.1587	19.2537	77	40
19.1597	19.2547	72	32
19.1627	19.2547	69	27
19.1627	19.2547	75	35
19.3447	19.4397	75	27
19.3477	19.4397	72	29
19.3477	19.4397	78	34
19.5297	19.6177	77	40
19.5307	19.6177	72	32
19.5307	19.6207	75	35
19.5347	19.6207	69	27
19.7087	19.7687	79	36
19.8197	19.8767	77	40
19.9357	19.9887	78	34
20.0487	20.0967	77	40
20.1557	20.2087	79	33
20.2617	20.3208	77	40
20.3738	20.4218	78	36
20.4818	20.5348	77	40
20.5868	20.6398	79	34
20.6998	20.8568	77	40
20.7728	21.0938	78	35
20.8568	21.0148	77	40
20.9368	21.2517	79	35
21.0148	21.1688	77	40
21.0938	21.4067	78	35
21.1688	21.3327	77	40
21.2517	21.5647	79	35
21.3327	21.4877	77	40
21.4067	21.7248	78	35
21.4877	21.6447	77	41
21.5647	21.8827	79	34
21.6447	21.8027	77	40
21.7248	22.0507	78	35
21.8027	21.9667	77	40
21.8827	22.2107	79	35
21.9667	22.1317	77	40
22.0507	22.3027	78	35
22.1317	22.3027	77	40
22.2107	22.3027	79	36
22.3027	22.3857	77	40
22.3867	22.4737	78	36
22.4747	22.5607	77	40
22.5647	22.6487	79	35
22.6487	22.8417	77	40
22.6527	23.4467	63	46
22.6527	23.4437	65	36
22.6527	22.8448	69	33
22.7497	22.9427	72	31
22.7508	23.1387	78	36
22.8417	23.0407	77	40
22.8448	23.4427	69	33
22.9407	23.3417	79	35
22.9427	23.4467	72	29
23.0407	23.2367	70	33
23.0407	23.2377	77	40
23.0417	23.4467	62	36
23.1387	23.4467	78	36
23.1397	23.3427	74	31
23.2367	23.4467	70	33
23.2377	23.4437	77	40
23.3417	23.4467	79	35
23.3427	23.4467	74	29
23.4427	23.6337	69	33
23.4437	24.2417	60	43
23.4437	24.2377	65	34
23.4437	23.6337	77	40
23.5317	23.7237	75	31
23.5337	23.9277	78	36
23.6337	24.2417	69	33
23.6337	23.8257	77	40
23.7237	24.2417	75	29
23.7257	24.1327	79	35
23.8247	24.0247	70	33
23.8257	24.2417	58	37
23.8257	24.2417	77	40
23.9277	24.0237	78	36
23.9297	24.1297	74	31
24.0237	24.2417	78	47
24.0247	24.2417	70	47
24.1297	24.2377	74	41
24.1327	24.2417	79	41
24.2347	24.3837	80	50
24.2377	24.4307	53	28
24.2377	24.4297	65	28
24.2377	24.3837	74	42
24.2387	24.4307	62	36
24.3327	24.4337	81	43
24.3357	24.4337	77	36
24.4347	24.5987	74	43
24.4367	24.5987	81	51
24.5287	24.5987	82	43
24.5317	24.5987	77	36
24.6217	24.7907	72	44
24.6227	24.8187	53	26
24.6227	24.7907	82	52
24.6267	24.8217	63	33
24.6267	24.8227	65	26
24.7217	24.7907	81	46
24.7237	24.7907	75	39
24.8227	24.9617	72	43
24.8237	24.9617	81	51
24.9147	24.9617	75	36
24.9167	24.9617	80	43
25.0107	25.1787	72	40
25.0117	25.1787	80	48
25.0137	25.2007	63	37
25.0147	25.2037	57	29
25.0147	25.6137	65	29
25.1067	25.1787	75	35
25.1067	25.1787	79	42
25.2047	25.4147	79	47
25.2077	25.4147	72	39
25.3087	25.4147	75	33
25.3097	25.4147	78	40
25.4097	25.5077	77	40
25.4107	25.5117	70	33
25.4137	25.6167	58	26
25.4147	25.6207	62	33
25.5127	25.6207	78	36
25.5147	25.6207	74	31
25.6217	25.7117	70	33
25.6217	25.7107	77	40
25.7157	25.8227	74	29
25.7177	25.8237	79	35
25.8267	26.0187	77	40
25.8277	26.6217	65	36
25.8277	26.0197	69	33
25.8297	26.6217	63	46
25.9247	26.1177	72	31
25.9247	26.3137	78	36
26.0187	26.2157	77	40
26.0197	26.6177	69	33
26.1167	26.5176	79	35
26.1177	26.6217	72	29
26.2157	26.4127	70	33
26.2157	26.4117	77	40
26.2187	26.6217	62	36
26.3137	26.5167	74	31
26.3137	26.6217	78	36
26.4117	26.6177	77	40
26.4127	26.6217	70	33
26.5167	26.6217	74	29
26.5176	26.6217	79	35
26.6177	26.8096	69	33
26.6177	26.8066	77	40
26.6217	27.4156	60	43
26.6217	27.4126	65	34
26.7086	27.1036	78	36
26.7096	26.8986	75	31
26.8066	26.9996	77	40
26.8096	27.4156	69	33
26.8986	27.4156	75	29
26.9016	27.3076	79	35
26.9996	27.2026	70	33
26.9996	27.4156	77	40
27.0036	27.4156	58	37
27.1036	27.3076	74	31
27.1036	27.1986	78	36
27.1986	27.4156	78	47
27.2026	27.4156	70	47
27.3076	27.4096	74	41
27.3076	27.4156	79	41
27.4096	27.5516	74	42
27.4116	27.6036	53	28
27.4116	27.5516	80	50
27.4126	27.6086	62	36
27.4126	27.6086	65	28
27.5106	27.6096	77	36
27.5106	27.6086	81	43
27.6116	27.7726	74	43
27.6116	27.7726	81	51
27.7056	27.7726	82	43
27.7066	27.7726	77	36
27.7976	27.9646	72	44
27.7976	27.9646	82	52
27.8006	27.9926	63	33
27.8006	27.9936	65	26
27.8016	27.9966	53	26
27.8986	27.9646	75	39
27.8986	27.9646	81	46
27.9976	28.1406	81	51
27.9996	28.1406	72	43
28.0906	28.1406	75	36
28.0916	28.1406	80	43
28.1856	28.3536	80	48
28.1896	28.7916	65	29
28.1896	28.3536	72	40
28.1906	28.3776	63	37
28.1926	28.3786	57	29
28.2806	28.3536	79	42
28.2846	28.3536	75	35
28.3786	28.5916	79	47
28.3816	28.5916	72	39
28.4846	28.5916	78	40
28.4866	28.5916	75	33
28.5876	28.6856	77	40
28.5886	28.9906	62	33
28.5886	28.6866	74	33
28.5896	28.9936	58	26
28.6866	28.7916	78	36
28.6896	28.7926	70	31
28.7946	28.8896	74	33
28.7946	28.8896	77	40
28.8906	28.9936	81	40
28.9976	29.1926	82	40
28.9986	29.7926	68	46
28.9986	29.1936	74	33
29.0006	29.7896	70	36
29.0936	29.2876	77	31
29.0956	29.2846	83	36
29.1926	29.3856	82	40
29.1936	29.7886	74	33
29.2846	29.4816	83	35
29.2876	29.7926	77	29
29.3856	29.5866	82	40
29.3866	29.5896	75	33
29.3896	29.7926	66	36
29.4816	29.6846	83	36
29.4846	29.6866	78	31
29.5866	29.7856	82	40
29.5896	29.7926	75	33
29.6846	29.7926	83	35
29.6866	29.7926	78	29
29.7856	29.9786	82	40
29.7886	30.5866	65	43
29.7886	29.9776	74	33
29.7896	30.5836	70	34
29.8836	30.0736	83	36
29.8846	30.0756	80	31
29.9776	30.5866	74	33
29.9786	30.1706	82	40
30.0736	30.2746	83	35
30.0756	30.5866	80	29
30.1706	30.5866	63	37
30.1706	30.3696	75	33
30.1706	30.5866	82	40
30.2726	30.4746	78	31
30.2746	30.3656	83	36
30.3656	30.5866	83	47
30.3696	30.5866	75	47
30.4746	30.5806	78	41
30.4786	30.5866	84	41
30.5806	30.7266	78	42
30.5826	30.7266	85	50
30.5836	30.7756	58	28
30.5836	30.7766	66	36
30.5836	30.7756	70	28
30.6786	30.7796	82	36
30.6806	30.7796	86	43
30.7806	30.9436	86	51
30.7826	30.9436	78	43
30.8746	30.9436	87	43
30.8776	30.9436	82	36
30.9716	31.1356	87	52
30.9726	31.1636	68	33
30.9726	31.1356	77	44
30.9746	31.1646	70	26
30.9756	31.1646	58	26
31.0676	31.1356	86	46
31.0696	31.1356	80	39
31.1666	31.3146	86	51
31.1676	31.3146	77	43
31.2586	31.3146	80	36
31.2626	31.3146	85	43
31.3566	31.5246	77	40
31.3566	31.5246	85	48
31.3576	31.5456	62	29
31.3606	31.5466	68	37
31.3606	31.9476	70	29
31.4486	31.5246	80	35
31.4516	31.5246	84	42
31.5486	31.7596	84	47
31.5496	31.7596	77	39
31.6536	31.7596	83	40
31.6546	31.7596	80	33
31.7546	31.8566	78	33
31.7556	31.9486	66	33
31.7556	31.8576	82	40
31.7596	31.9486	63	26
31.8576	31.9516	83	36
31.8586	31.9516	75	31
31.9526	32.0466	82	40
31.9546	32.0466	78	33
32.0496	32.1406	75	29
32.0496	32.1396	83	35
32.1406	32.3406	74	33
32.1416	32.3406	82	40
32.1446	32.9386	68	46
32.1446	32.9356	70	36
32.2396	32.4336	83	36
32.2416	32.4316	77	31
32.3406	32.9346	74	33
32.3406	32.5336	82	40
32.4316	32.9386	77	29
32.4336	32.6306	83	35
32.5326	32.7326	75	33
32.5336	32.9386	66	36
32.5336	32.7356	82	40
32.6306	32.8336	78	31
32.6306	32.8306	83	36
32.7326	32.9386	75	33
32.7356	32.9326	82	40
32.8306	32.9386	83	35
32.8336	32.9386	78	29
32.9326	33.1246	82	40
32.9346	33.1236	74	33
32.9356	33.7336	65	43
32.9356	33.7296	70	34
33.0296	33.2166	83	36
33.0336	33.2156	80	31
33.1236	33.7336	74	33
33.1246	33.3166	82	40
33.2156	33.7336	80	29
33.2166	33.4186	83	35
33.3166	33.5166	75	33
33.3166	33.7336	82	40
33.3176	33.7336	63	37
33.4186	33.6246	78	31
33.4186	33.5156	83	36
33.5156	33.7336	83	47
33.5166	33.7336	75	47
33.6226	33.7336	84	41
33.6246	33.7266	78	41
33.7266	33.8726	78	42
33.7266	33.8726	85	50
33.7296	33.9216	58	28
33.7296	33.9226	66	36
33.7296	33.9226	70	28
33.8246	33.9226	82	36
33.8276	33.9256	86	43
33.9266	34.0896	78	43
33.9266	34.0896	86	51
34.0216	34.0896	87	43
34.0236	34.0896	82	36
34.1176	34.2826	87	52
34.1216	34.2826	77	44
34.1226	34.3106	68	33
34.1226	34.3106	70	26
34.1246	34.3116	58	26
34.2136	34.2826	80	39
34.2156	34.2826	86	46
34.3146	34.4536	77	43
34.3146	34.4536	86	51
34.4056	34.4536	85	43
34.4076	34.4536	80	36
34.5026	34.6716	77	40
34.5036	35.1115	70	29
34.5036	34.6716	85	48
34.5066	34.6926	68	37
34.5076	34.6956	62	29
34.5976	34.6716	80	35
34.5976	34.6716	84	42
34.6956	34.9056	77	39
34.6966	34.9056	84	47
34.8006	34.9056	80	33
34.8016	34.9056	83	40
34.9016	35.0076	78	33
34.9026	35.1126	63	26
34.9026	35.0076	82	40
34.9056	35.1126	66	33
35.0105	35.1135	75	31
35.0105	35.1165	83	36
35.1165	35.2165	78	33
35.1165	35.2165	82	40
35.2175	35.3325	87	37
35.3325	35.5356	78	42
35.3336	35.5325	90	51
35.3365	35.7345	46	34
35.3365	35.7345	61	41
35.4315	35.6265	85	33
35.4346	35.7345	87	40
35.5325	35.7345	90	43
35.5356	35.7246	78	35
35.6265	35.7345	85	33
35.6265	35.7255	88	40
35.7246	35.9255	78	44
35.7255	35.9245	88	54
35.7285	36.0985	47	27
35.7285	36.0985	63	33
35.8195	36.0985	86	39
35.8225	36.0125	83	32
35.9245	36.0985	88	43
35.9255	36.0985	78	35
36.0125	36.1095	83	33
36.0155	36.1105	87	40
36.1105	36.3105	87	51
36.1135	36.5245	49	32
36.1135	36.5245	64	39
36.1135	36.3125	76	51
36.2085	36.4075	82	31
36.2085	36.5245	84	37
36.3105	36.5245	87	43
36.3125	36.5245	76	35
36.4075	36.5245	82	39
36.4105	36.5225	85	39
36.5225	36.7195	85	51
36.5235	36.8055	51	23
36.5235	36.8055	66	28
36.5235	36.7215	75	42
36.6175	36.8055	82	37
36.6185	36.8055	78	31
36.7195	36.8095	85	43
36.7215	36.8125	75	35
36.8135	36.9145	78	39
36.8165	36.9145	83	39
36.9215	37.1205	73	39
36.9215	37.1185	84	47
36.9225	37.3275	52	29
36.9225	37.3275	67	35
37.0165	37.3275	81	37
37.0185	37.2155	79	37
37.1185	37.3275	84	40
37.1205	37.3275	73	33
37.2155	37.3275	79	36
37.2165	37.3245	82	36
37.3205	37.5205	72	39
37.3245	37.6595	69	28
37.3245	37.5235	82	46
37.3265	37.6595	53	24
37.4155	37.6145	77	31
37.4185	37.6595	80	36
37.5205	37.6595	72	33
37.5235	37.6595	82	40
37.6145	37.7225	77	29
37.6185	37.7235	81	35
37.7235	37.9265	81	46
37.7275	38.1395	64	31
37.7275	37.9265	70	39
37.7295	38.1395	55	25
37.8215	38.1395	78	35
37.8245	38.0235	76	29
37.9265	38.1395	70	33
37.9265	38.1395	81	40
37.9275	38.1395	61	26
38.0215	38.1365	79	35
38.0235	38.1395	76	29
38.1355	38.3325	69	36
38.1365	38.5455	57	27
38.1365	38.5455	65	33
38.1365	38.3315	79	43
38.2305	38.5455	76	33
38.2345	38.4305	72	27
38.3315	38.5455	79	40
38.3325	38.5455	60	28
38.3325	38.5455	69	33
38.4305	38.5455	72	28
38.4305	38.5365	77	34
38.5355	38.9725	73	32
38.5365	38.9725	67	33
38.5365	38.7285	77	37
38.5385	38.9725	58	33
38.6305	38.9355	75	32
38.7285	38.9725	77	37
38.7305	38.9725	70	32
38.7315	38.9725	61	27
38.8295	38.9725	76	32
38.9355	39.3395	75	29
38.9355	39.0355	79	35
38.9375	39.3395	60	27
38.9375	39.0365	69	33
39.0365	39.3395	76	31
39.1375	39.3395	72	31
39.1375	39.3395	79	36
39.1405	39.3395	63	27
39.2355	39.3375	77	28
39.3365	39.7565	70	28
39.3375	39.7565	67	33
39.3375	39.5325	77	34
39.3385	39.7565	61	27
39.4355	39.7565	75	29
39.5325	39.7565	77	35
39.6275	39.7565	76	29
39.7395	39.8375	79	36
39.7425	39.8385	69	33
39.7425	39.8375	72	31
39.7435	39.8405	63	27
39.8405	39.9345	75	32
39.9355	40.0255	79	35
40.0295	40.1275	78	32
40.1275	40.2185	77	40
40.2185	40.3125	78	35
40.3135	40.4035	77	41
40.4075	40.4915	79	34
40.4915	40.5855	77	40
40.5865	40.6805	78	35
40.6815	40.7715	77	40
40.7725	40.8625	79	35
40.8625	40.9565	77	40
40.9575	41.0515	78	35
41.0525	41.1495	77	40
41.1495	41.2405	79	36
41.2415	41.3415	77	40
41.3425	41.4335	78	36
41.4335	41.5315	77	40
41.5315	41.6255	79	35
41.6265	41.8255	69	33
41.6265	41.8265	77	40
41.6295	41.9015	51	46
41.7275	41.9015	78	36
41.7285	41.9015	72	31
41.7695	41.9015	67	40
41.8255	41.9165	69	33
41.8265	41.9015	65	46
41.8265	41.9165	77	40
41.9175	42.0135	72	29
41.9205	42.0145	79	35
42.0175	42.2215	70	33
42.0185	42.2865	50	46
42.0185	42.2215	77	40
42.1155	42.2865	74	31
42.1165	42.2865	78	36
42.1635	42.2865	66	40
42.2215	42.3145	70	33
42.2215	42.3155	77	40
42.2225	42.2865	65	46
42.3155	42.4135	74	29
42.3195	42.4135	79	35
42.4165	42.6125	69	33
42.4165	42.6085	77	40
42.4205	42.6934	48	46
42.5155	42.6934	78	36
42.5185	42.6934	72	31
42.5595	42.6934	67	41
42.6085	42.6965	77	40
42.6125	42.6934	65	46
42.6125	42.6965	69	33
42.7004	42.7984	72	29
42.7034	42.7984	79	35
42.7984	43.0994	77	40
42.8014	43.0994	46	46
42.8014	43.0084	70	33
42.9064	43.0114	78	36
42.9074	43.0994	74	31
42.9564	43.0994	66	39
43.0084	43.1064	70	47
43.0114	43.0994	65	46
43.0114	43.1064	78	47
43.1074	43.1584	74	41
43.1094	43.1584	79	41
43.2075	43.5094	80	50
43.2114	43.5094	41	49
43.2114	43.4104	74	50
43.3124	43.4104	81	43
43.3134	43.5094	77	43
43.3584	43.5094	67	44
43.4104	43.5094	74	51
43.4104	43.5094	81	51
43.4114	43.5094	65	50
43.5054	43.5504	82	43
43.5094	43.5514	77	43
43.6024	43.7964	72	52
43.6034	43.9214	41	52
43.6034	43.9214	82	52
43.6984	43.7954	81	46
43.7014	43.8904	75	46
43.7514	43.9214	66	44
43.7954	43.9214	81	51
43.7964	43.9214	72	51
43.7984	43.9214	65	50
43.8904	43.9354	75	43
43.8944	43.9364	80	43
43.9884	44.1824	72	48
43.9884	44.2884	80	48
43.9894	44.2884	45	50
44.0824	44.1814	79	42
44.0864	44.2864	75	42
44.1344	44.2884	67	41
44.1814	44.2884	79	47
44.1824	44.2884	65	46
44.1824	44.2884	72	47
44.2854	44.3344	78	40
44.2864	44.3344	75	40
44.3874	44.5894	74	33
44.3874	44.5904	77	40
44.3884	44.6704	46	46
44.4894	44.6704	70	31
44.4924	44.6704	78	36
44.5374	44.6704	66	40
44.5894	44.6844	74	33
44.5904	44.6704	65	46
44.5904	44.6844	77	40
44.6854	44.7924	79	35
44.6884	44.7934	70	29
44.7964	44.9924	69	33
44.7974	44.9894	77	40
44.7994	45.0664	51	46
44.8954	45.0664	72	31
44.8974	45.0664	78	36
44.9394	45.0664	67	40
44.9894	45.0824	77	40
44.9924	45.0664	65	46
44.9924	45.0834	69	33
45.0864	45.1774	72	29
45.0874	45.1784	79	35
45.1784	45.3844	77	40
45.1814	45.3854	70	33
45.1824	45.4544	50	46
45.2864	45.4544	74	31
45.2864	45.4544	78	36
45.3284	45.4544	66	40
45.3844	45.4854	77	40
45.3854	45.4544	65	46
45.3854	45.4864	70	33
45.4864	45.5834	74	29
45.4874	45.5844	79	35
45.5844	45.7804	77	40
45.5874	45.8634	48	46
45.5874	45.7794	69	33
45.6794	45.8634	78	36
45.6824	45.8634	75	31
45.7244	45.8634	67	41
45.7794	45.8674	69	33
45.7804	45.8634	65	46
45.7804	45.8684	77	40
45.8684	45.9624	75	29
45.8704	45.9624	79	35
45.9634	46.1714	70	33
45.9634	46.2634	77	40
45.9654	46.2634	46	46
46.0704	46.2634	74	31
46.0704	46.1694	78	36
46.1204	46.2634	66	39
46.1694	46.2734	78	47
46.1714	46.2774	70	47
46.1754	46.2634	65	46
46.2774	46.3264	74	41
46.2784	46.3264	79	41
46.3744	46.5754	74	50
46.3754	46.6794	41	49
46.3754	46.6794	80	50
46.4804	46.5744	81	43
46.4834	46.6694	77	43
46.5254	46.6794	67	44
46.5744	46.6794	81	51
46.5754	46.6794	65	50
46.5754	46.6794	74	51
46.6694	46.7213	77	43
46.6724	46.7213	82	43
46.7663	46.9593	72	52
46.7673	47.0853	41	52
46.7673	47.0853	82	52
46.8694	46.9603	81	46
46.8714	47.0603	75	46
46.9154	47.0853	66	44
46.9593	47.0853	72	51
46.9603	47.0853	81	51
46.9633	47.0853	65	50
47.0603	47.1064	75	43
47.0613	47.1073	80	43
47.1513	47.4573	80	48
47.1523	47.4573	45	50
47.1523	47.3443	72	48
47.2534	47.3453	79	42
47.2544	47.4534	75	42
47.2994	47.4573	67	41
47.3443	47.4573	72	47
47.3453	47.4573	65	46
47.3453	47.4573	79	47
47.4534	47.5054	75	40
47.4573	47.5064	78	40
47.5584	47.7584	74	33
47.5584	47.7584	77	40
47.5594	47.8413	46	50
47.6594	47.8413	70	31
47.6594	47.8413	78	36
47.7074	47.8413	67	46
47.7584	47.8594	74	33
47.7584	47.8584	77	40
47.7604	47.8413	65	50
47.8594	47.9644	81	39
47.9644	48.1534	74	33
47.9653	48.1523	82	40
47.9673	48.2264	56	56
48.0603	48.2264	77	31
48.0614	48.2264	83	36
48.1033	48.2264	71	49
48.1523	48.2443	82	40
48.1534	48.2264	70	56
48.1534	48.2443	74	33
48.2453	48.3423	77	29
48.2453	48.3423	84	35
48.3433	48.5383	82	40
48.3453	48.6044	55	57
48.3453	48.5354	75	33
48.4373	48.6044	83	36
48.4393	48.6044	78	31
48.4853	48.6044	72	50
48.5354	48.6294	75	33
48.5383	48.6324	82	40
48.5394	48.6044	70	57
48.6324	48.7304	78	29
48.6364	48.7313	84	35
48.7333	48.9123	77	33
48.7343	48.9673	50	57
48.7343	48.9123	82	40
48.8213	48.9673	83	36
48.8224	48.9673	80	31
48.8633	48.9673	71	51
48.9123	49.0023	77	33
48.9123	49.0033	82	40
48.9163	48.9673	70	57
49.0033	49.0943	80	29
49.0063	49.0953	84	35
49.0973	49.3013	75	33
49.1013	49.3913	82	40
49.1023	49.3913	51	57
49.1993	49.3913	79	31
49.1993	49.3013	83	36
49.2483	49.3913	71	51
49.3013	49.3953	75	47
49.3013	49.3983	83	47
49.3023	49.3913	70	57
49.3993	49.4473	79	41
49.4023	49.4483	84	41
49.4973	49.6933	79	50
49.4983	49.7903	46	59
49.4983	49.7903	85	50
49.5983	49.7903	82	43
49.5983	49.6903	86	43
49.6403	49.7903	72	52
49.6903	49.7903	86	51
49.6933	49.7903	70	59
49.6933	49.7903	79	51
49.7883	49.8333	87	43
49.7903	49.8343	82	43
49.8783	50.0683	77	52
49.8783	50.1623	87	52
49.8823	50.1623	46	59
49.9763	50.1563	80	46
49.9763	50.0643	86	46
50.0213	50.1623	71	52
50.0643	50.1623	86	51
50.0683	50.1623	70	59
50.0683	50.1623	77	51
50.1553	50.1973	85	43
50.1563	50.2003	80	43
50.2463	50.4323	77	48
50.2463	50.5543	85	48
50.2473	50.5543	50	59
50.3403	50.5303	80	42
50.3413	50.4323	84	42
50.3863	50.5543	72	50
50.4323	50.5543	77	47
50.4323	50.5543	84	47
50.4343	50.5543	70	58
50.5303	50.5823	80	40
50.5333	50.5823	83	40
50.6303	50.8202	79	33
50.6353	50.8172	82	40
50.6383	50.8622	51	57
50.7253	50.8622	83	36
50.7263	50.8622	75	31
50.7673	50.8622	71	51
50.8172	50.9072	82	40
50.8202	50.8652	70	57
50.8202	50.9072	79	33
50.9072	50.9982	75	29
50.9112	50.9992	84	35
51.0012	51.1942	82	40
51.0022	51.2612	56	51
51.0022	51.1942	74	33
51.1002	51.2612	83	36
51.1032	51.2612	77	31
51.1452	51.2612	72	44
51.1942	51.2812	74	33
51.1942	51.2822	82	40
51.1982	51.2612	70	51
51.2862	51.3842	84	35
51.2892	51.3842	77	29
51.3842	51.5792	82	40
51.3862	51.5762	75	33
51.3872	51.6422	55	50
51.4782	51.6422	78	31
51.4792	51.6422	83	36
51.5272	51.6422	71	43
51.5762	51.6732	75	33
51.5792	51.6422	70	50
51.5792	51.6742	82	40
51.6742	51.7722	78	29
51.6772	51.7732	84	35
51.7752	51.9602	82	40
51.7762	52.0552	50	50
51.7762	51.9612	77	33
51.8672	52.0552	83	36
51.8702	52.0522	80	31
51.9122	52.0552	72	44
51.9602	52.0552	82	40
51.9612	52.0552	70	50
51.9612	52.0552	77	33
52.0522	52.1432	80	29
52.0522	52.1432	84	35
52.1462	52.4192	82	40
52.1472	52.4192	51	50
52.1472	52.3502	75	33
52.2452	52.4192	79	31
52.2482	52.3462	83	36
52.2962	52.4192	71	46
52.3462	52.4442	83	47
52.3502	52.4192	70	50
52.3502	52.4442	75	47
52.4472	52.4962	79	41
52.4482	52.4962	84	41
52.5452	52.7392	79	50
52.5452	52.8322	85	50
52.5462	52.8322	46	55
52.6402	52.8302	82	43
52.6402	52.7382	86	43
52.6882	52.8322	72	48
52.7382	52.8322	86	51
52.7392	52.8322	79	51
52.7412	52.8322	70	55
52.8302	52.8742	82	43
52.8322	52.8742	87	43
52.9202	53.1092	77	52
52.9202	53.2042	87	52
52.9242	53.2042	46	55
53.0172	53.1102	86	46
53.0182	53.2032	80	46
53.0632	53.2042	71	49
53.1092	53.2042	77	51
53.1102	53.2042	70	55
53.1102	53.2042	86	51
53.2032	53.2462	80	43
53.2032	53.2462	85	43
53.2952	53.4802	77	48
53.2952	53.5922	85	48
53.2962	53.5922	50	50
53.3892	53.4812	84	42
53.3902	53.5922	80	42
53.4352	53.5922	72	44
53.4802	53.5922	77	47
53.4812	53.5922	84	47
53.4832	53.5922	70	50
53.5892	53.6402	83	40
53.5922	53.6412	80	40
53.6932	53.7882	79	33
53.6942	54.0992	51	33
53.6942	53.7882	82	43
53.7892	53.8862	75	31
53.7892	53.8862	84	40
53.8862	53.9762	79	33
53.8902	53.9772	82	43
53.9772	54.0992	87	39
54.1002	54.2152	80	48
54.1032	54.2152	35	39
54.1032	54.2152	47	47
54.1032	54.2952	91	60
54.2012	54.2982	86	37
54.2022	54.2992	88	46
54.2992	54.4182	80	40
54.3032	54.4182	56	31
54.3032	54.4182	62	37
54.3032	54.4182	91	50
54.3052	54.4182	53	31
54.4012	54.4952	89	47
54.4042	54.8872	48	39
54.4042	54.4952	86	37
54.4422	54.8872	55	39
54.4982	54.6942	79	50
54.4982	54.6922	89	62
54.4992	54.8872	63	47
54.5932	54.7862	84	36
54.5972	54.8872	86	44
54.6922	54.8872	89	50
54.6942	54.8872	79	40
54.7862	54.8932	84	37
54.7862	54.8942	87	47
54.8982	55.0162	50	47
54.8982	55.0162	77	58
54.8982	55.0932	87	58
54.8992	55.0162	38	39
54.9992	55.0932	83	35
55.0002	55.0942	85	42
55.0942	55.1992	87	50
55.0972	55.1992	65	39
55.0972	55.1992	77	40
55.0982	55.1992	56	32
55.0982	55.1992	59	32
55.1952	55.2892	82	44
55.1962	55.2902	86	44
55.1992	55.5902	51	39
55.2432	55.5902	60	39
55.2902	55.5002	86	56
55.2922	55.4992	75	48
55.2932	55.5902	67	47
55.3912	55.5902	83	42
55.3922	55.5902	79	35
55.4992	55.5972	75	40
55.5002	55.5982	86	49
55.5982	55.7062	84	44
55.6002	55.7062	79	44
55.7092	55.9091	79	44
55.7132	55.9362	40	40
55.7132	55.9091	84	54
55.8082	55.9362	73	42
55.8111	55.9362	81	42
55.9091	56.0041	79	36
55.9091	56.0032	84	44
55.9121	56.0041	46	32
56.0071	56.1051	73	40
56.0071	56.1051	82	40
56.1061	56.2831	52	39
56.1061	56.2831	73	42
56.1061	56.3041	81	50
56.2101	56.3081	70	33
56.2101	56.3051	78	39
56.3111	56.4061	81	42
56.3121	56.4071	58	31
56.3121	56.4061	73	35
56.4071	56.5041	70	31
56.4091	56.5041	79	37
56.5041	56.9141	70	40
56.5071	56.7031	77	48
56.5081	56.9201	55	20
56.5081	56.9201	61	32
56.6021	56.8091	67	31
56.6021	56.9201	75	36
56.7031	56.9201	77	41
56.7071	56.9201	58	26
56.7071	56.9201	73	33
56.8051	56.9201	76	35
56.8091	56.9201	67	29
56.8581	57.3261	53	23
56.9131	57.3371	79	47
56.9141	57.3371	62	33
56.9141	57.1141	70	36
57.0151	57.3371	65	33
57.1141	57.3371	70	40
57.2181	57.3371	77	37
57.3231	57.7491	74	47
57.3241	57.7841	59	25
57.3241	57.5261	68	36
57.3261	58.1691	53	20
57.4281	57.7841	65	36
57.5261	57.7841	68	36
57.6311	57.7841	75	37
57.7461	57.8471	70	36
57.7491	58.1691	74	47
57.7501	58.1691	60	25
57.7501	57.8481	64	36
57.8511	58.1621	67	36
57.9561	58.1691	64	36
58.0611	58.1691	72	37
58.1601	58.3691	63	36
58.1621	58.5861	67	47
58.1631	58.3691	40	37
58.2641	58.5861	60	36
58.2651	58.4751	41	33
58.3691	58.5861	40	39
58.3691	58.5861	63	36
58.4741	58.5861	69	37
58.4751	59.0041	41	33
58.5771	58.7831	62	36
58.5771	59.0171	72	47
58.5791	59.0171	53	33
58.6811	59.0171	65	33
58.7831	59.0171	62	40
58.9891	59.0171	70	37
59.0031	59.2101	56	36
59.0031	59.4681	67	47
59.0041	59.8571	41	20
59.0041	59.4681	47	25
59.1051	59.3141	62	36
59.2101	59.4681	56	36
59.3141	59.4681	62	36
59.3181	59.4311	65	37
59.4311	59.8571	65	47
59.4331	59.5311	55	36
59.4341	59.8571	48	25
59.5351	59.8491	60	36
59.6361	59.8571	55	36
59.7451	59.8571	63	37
59.8491	60.2771	60	47
59.8501	60.2771	42	37
59.8501	60.0631	51	36
59.9581	60.1681	57	36
60.0631	60.2771	51	36
60.0641	60.2771	41	33
60.1651	60.2771	62	37
60.1681	60.2771	57	36
60.2731	60.5291	58	47
60.2741	60.5321	50	43
60.2771	60.536	34	37
60.536	60.6231	50	35
60.5371	60.6271	53	29
60.5371	60.6271	58	25
60.6271	60.7171	62	28
60.718	60.8081	48	40
60.7191	60.8121	54	28
60.7211	60.8131	58	24
60.8131	60.9031	62	28
60.9031	60.9981	47	36
60.9041	60.9981	55	28
60.9071	60.9981	58	24
60.9991	61.0951	62	28
61.0961	61.1941	46	40
61.0961	61.1951	54	34
61.0991	61.1951	58	28
61.1971	61.2851	62	25
61.2881	61.3731	50	36
61.2881	61.3731	53	34
61.2891	61.3731	58	28
61.3751	61.4591	62	24
61.4601	61.6571	48	40
61.4631	61.6571	54	34
61.4641	61.656	58	28
61.5581	61.6571	47	35
61.5581	61.6571	62	28
61.656	61.7431	46	35
61.656	61.744	58	28
61.6571	61.7471	55	34
61.7471	61.8101	62	25
61.8111	61.9891	54	34
61.8271	61.9891	57	34
61.8411	61.9891	63	34
62.1321	62.608	87	42
62.1331	62.447	81	46
62.1351	62.531	78	46
62.2121	62.608	84	42
62.2901	62.608	80	41
62.293	62.608	71	44
62.293	62.604	74	44
62.369	62.608	77	41
62.447	62.608	75	43
62.447	62.608	81	40
62.45	62.608	72	43
62.531	62.608	78	39
62.604	63.259	74	39
62.605	62.93	68	43
62.608	63.013	65	43
62.688	63.259	71	37
62.766	63.259	75	37
62.768	63.259	66	42
62.769	63.091	69	42
62.85	63.259	72	36
62.93	63.259	68	36
62.931	63.259	59	41
62.933	63.259	62	41
63.013	63.259	65	35
63.091	63.259	69	34
63.094	63.259	60	40
63.094	63.259	63	40
63.175	63.259	78	34
63.256	63.514	70	43
63.257	63.518	41	50
63.257	63.514	77	43
63.518	63.609	50	35
63.519	63.609	53	29
63.521	63.609	58	25
63.61	63.699	62	28
63.7	63.794	48	40
63.703	63.794	58	24
63.704	63.795	54	28
63.798	63.885	62	28
63.885	63.979	47	36
63.889	63.98	55	28
63.889	63.983	58	24
63.984	64.071	62	28
64.074	64.176	46	40
64.075	64.176	54	34
64.075	64.179	58	28
64.179	64.264	62	25
64.264	64.354	50	36
64.267	64.358	53	34
64.267	64.358	58	28
64.361	64.445	62	24
64.446	64.642	48	40
64.446	64.642	54	34
64.447	64.641	58	28
64.54	64.642	47	35
64.54	64.642	62	28
64.638	64.729	46	35
64.639	64.73	55	34
64.641	64.73	58	28
64.732	64.792	62	25
64.793	64.97	54	28
64.809	64.974	57	28
64.827	64.974	63	34
65.11	65.58	87	42
65.114	65.418	81	46
65.115	65.499	78	39
65.191	65.58	84	42
65.265	65.58	71	37
65.265	65.576	74	44
65.265	65.58	80	41
65.345	65.58	77	41
65.418	65.58	81	40
65.419	65.58	75	43
65.422	65.58	72	36
65.499	65.58	78	39
65.576	66.2659	74	39
65.58	65.967	65	36
65.58	65.884	68	43
65.654	66.2659	71	37
65.726	66.2659	75	37
65.727	66.2659	66	35
65.73	66.042	69	42
65.811	66.2659	72	36
65.884	66.2659	68	36
65.888	66.2029	59	34
65.888	66.2029	62	41
65.967	66.2029	65	35
66.042	66.2659	60	33
66.042	66.2659	63	40
66.042	66.2659	69	34
66.125	66.2659	78	34
66.175	66.3489	46	40
66.185	66.35	56	40
66.2029	66.353	59	48
66.2029	66.35	62	41
66.2029	66.353	65	41
66.4929	66.8739	80	42
66.4929	66.9509	89	46
66.4939	66.7939	83	50
66.5729	66.9509	86	46
66.6439	66.9509	82	44
66.6469	66.9509	73	40
66.6469	66.9479	76	48
66.7239	66.9509	79	44
66.7939	66.9509	83	43
66.7969	66.9509	74	39
66.7969	66.9509	77	47
66.8739	66.9509	80	42
66.9479	67.2559	70	47
66.9479	67.6579	76	42
66.9489	67.3339	67	39
67.0249	67.6579	73	41
67.0979	67.6579	77	41
67.0989	67.6579	68	39
67.0989	67.4059	71	46
67.1799	67.6579	74	40
67.2559	67.5989	61	37
67.2559	67.6579	70	40
67.2569	67.6579	64	44
67.3339	67.5989	67	39
67.4059	67.6579	71	37
67.4069	67.6579	62	36
67.4069	67.6579	65	43
67.4879	67.6579	80	37
67.5599	67.7389	46	44
67.5959	67.7419	63	44
67.5989	67.7429	61	52
67.5989	67.7419	67	44
67.8849	68.4139	91	50
67.8859	68.2549	82	46
67.8859	68.1769	85	55
67.9589	68.4139	88	50
68.0299	68.4139	84	48
68.0329	68.1779	75	44
68.0329	68.4139	78	52
68.1099	68.4139	81	48
68.1769	68.4139	85	47
68.1779	68.4139	75	43
68.1799	68.4139	79	51
68.2549	68.4139	82	46
68.2849	68.4949	46	48
68.3159	68.4989	54	48
68.3519	68.4989	63	48
68.3519	68.4989	69	48
68.3549	68.4999	60	57
68.6209	69.1149	93	50
68.6239	68.9919	84	46
68.6249	68.9149	87	55
68.6979	69.1149	90	50
68.7679	69.1149	86	48
68.7719	69.1149	77	44
68.7719	69.1149	80	52
68.8479	69.1149	83	48
68.9149	69.1149	81	51
68.9149	69.1149	87	47
68.9159	69.0789	78	43
68.9919	69.1149	84	46
69.0759	69.1529	96	62
69.0789	69.1529	75	46
69.0789	69.1529	78	55
69.1539	69.6918	93	62
69.2299	69.6918	71	55
69.2299	69.6918	89	60
69.2309	69.6918	68	46
69.3069	69.6918	86	60
69.3798	69.5378	69	44
69.3798	69.6918	90	57
69.3808	69.6918	72	52
69.4578	69.6918	87	55
69.5378	69.6918	69	51
69.5378	69.6918	99	69
69.5388	69.6918	66	43
69.6148	69.6918	96	64
69.6878	69.9968	62	58
69.6878	69.9968	92	67
69.6888	69.9958	59	49
69.7688	69.9968	89	59
69.8358	69.9968	93	67
69.8388	69.9968	60	51
69.8388	69.9968	63	62
69.9228	69.9968	90	58
69.9928	70.3438	100	70
69.9958	70.3438	59	57
69.9958	70.3438	64	67
69.9968	70.3438	56	57
70.0748	70.2308	87	64
70.1508	70.3438	101	83
70.1518	70.3438	65	71
70.1528	70.3438	60	59
70.1538	70.3438	57	59
70.2308	70.3438	87	75
70.3428	71.0608	34	52
70.3438	71.0608	46	63
70.5348	71.0548	94	51
70.5358	71.0608	62	58
70.5358	70.6998	98	51
70.5368	71.0608	50	49
70.6168	71.0608	93	51
70.6998	71.0608	92	51
70.6998	70.8688	98	51
70.7008	71.0608	53	49
70.7028	71.0608	60	58
70.7838	71.0608	91	51
70.8678	71.0608	90	50
70.8688	71.0608	58	58
70.8688	71.0568	98	50
70.9478	71.0608	89	50
71.0548	71.2138	94	49
71.0568	71.7628	32	52
71.0568	71.7628	98	49
71.0608	71.7628	44	63
71.1338	71.7628	88	49
71.2138	71.7628	94	49
71.2148	71.7628	50	50
71.2148	71.3858	89	49
71.2178	71.7628	62	59
71.3018	71.5508	86	49
71.3858	71.7628	84	48
71.3858	71.7498	89	48
71.3868	71.7628	53	51
71.3898	71.7628	60	62
71.4658	71.7628	83	48
71.4668	71.7628	59	54
71.5508	71.7628	86	47
71.5538	71.7538	82	47
71.5548	71.7628	58	63
71.6318	71.7628	81	47
71.7498	72.4528	89	51
71.7538	72.4528	30	52
71.7538	71.9218	82	51
71.7548	72.4528	42	63
71.8338	72.0028	81	51
71.9218	72.2548	82	51
71.9218	72.0928	86	51
71.9248	72.4528	50	49
71.9248	72.4528	62	58
72.0028	72.4528	81	51
72.0928	72.4528	80	51
72.0928	72.4428	86	51
72.0938	72.4528	60	58
72.0968	72.4528	54	49
72.1708	72.4528	79	51
72.2538	72.4528	78	50
72.2548	72.4428	82	50
72.2568	72.4528	58	58
72.3388	72.4528	77	50
72.4428	73.1508	29	52
72.4428	72.6078	82	49
72.4428	73.1508	86	49
72.4438	73.1508	41	63
72.5278	73.1508	76	49
72.6068	72.7778	77	49
72.6078	73.1508	82	49
72.6108	73.1508	50	50
72.6108	73.1508	62	59
72.6918	72.9397	74	49
72.7778	73.1508	77	48
72.7788	73.1508	56	51
72.7788	73.1508	72	48
72.7798	73.1508	60	62
72.8588	73.1508	71	48
72.8597	73.1508	59	54
72.9397	73.1508	74	47
72.9408	73.1458	70	47
72.9427	73.1508	58	63
73.0247	73.1508	68	47
73.1438	73.8457	78	59
73.1458	73.8457	70	52
73.1468	73.8457	51	71
73.1468	73.3288	66	44
73.1497	73.8457	39	59
73.3248	73.6607	87	58
73.3248	73.4997	90	58
73.3288	73.8457	54	58
73.3288	73.8457	66	65
73.4077	73.8457	86	58
73.4967	73.8457	85	57
73.4997	73.6607	90	57
73.5008	73.8457	58	55
73.5008	73.8457	65	65
73.5767	73.8457	84	58
73.6607	73.8457	63	66
73.6607	73.8457	87	56
73.6607	73.8427	90	56
73.7377	73.8457	83	57
73.8397	73.9197	82	56
73.8427	74.5567	37	60
73.8427	73.9197	90	56
73.8437	74.5567	49	72
73.9207	74.5567	81	56
74.0037	74.5567	80	56
74.0047	74.1687	87	56
74.0077	74.5567	54	57
74.0077	74.5567	66	69
74.0877	74.5567	79	57
74.1687	74.5327	87	56
74.1717	74.3337	78	56
74.1727	74.5567	58	60
74.1727	74.5567	65	73
74.2517	74.5567	77	56
74.2527	74.5567	64	64
74.3327	74.5567	82	55
74.3337	74.5567	63	74
74.3337	74.5327	78	55
74.4197	74.5567	76	56
74.5327	74.6127	78	62
74.5327	74.6127	87	62
74.5357	75.2107	35	63
74.5357	75.2107	47	75
74.6167	74.7037	75	62
74.7037	75.0297	75	63
74.7047	75.2107	54	58
74.7047	75.2107	82	63
74.7067	75.2107	66	70
74.7847	75.2107	74	63
74.8677	75.2107	73	62
74.8687	75.2107	59	59
74.8687	75.2107	65	71
74.8687	75.0327	78	62
74.9487	75.2107	72	62
75.0297	75.2047	75	60
75.0327	75.2107	63	71
75.0327	75.2037	78	60
75.1107	75.2107	71	60
75.2037	75.2817	78	60
75.2047	75.2817	75	60
75.2077	75.9086	34	65
75.2077	75.9086	46	78
75.2837	75.6907	70	60
75.3657	75.5297	75	60
75.3657	75.9086	78	60
75.3667	75.6907	66	73
75.3677	75.9086	54	62
75.4467	75.9086	69	60
75.5297	75.9086	68	60
75.5297	75.9086	75	60
75.5307	75.9086	65	78
75.5327	75.9086	58	65
75.6107	75.9086	67	60
75.6117	75.9086	64	67
75.6907	75.9086	66	59
75.6907	75.9086	70	59
75.6937	75.7716	63	80
75.7716	75.9086	63	59
75.9077	76.2297	32	40
75.9077	76.0016	44	40
75.9846	76.0647	45	32
76.0687	76.2047	95	35
76.0696	76.2047	45	32
76.0696	76.2047	87	35
76.1496	76.2297	83	40
76.1526	76.2336	46	33
76.1526	76.2297	90	40
76.2336	76.3236	47	33
76.3166	76.3936	48	33
76.3977	76.5337	87	36
76.3986	76.5337	78	36
76.4006	76.5337	47	34
76.4816	76.5587	75	40
76.4816	76.5587	83	40
76.4826	76.5597	48	34
76.5627	76.8947	37	40
76.5627	76.6627	49	40
76.6457	76.7267	50	35
76.7277	76.8417	71	35
76.7297	76.8417	80	35
76.7307	76.8417	49	36
76.8177	76.8947	68	40
76.8177	76.8987	77	40
76.8187	76.8987	51	36
76.8997	77.0097	52	37
76.9847	77.2487	83	36
76.9887	77.1497	53	39
77.0417	77.2517	92	43
77.0877	77.2517	97	51
77.0907	77.1677	52	40
77.1677	77.2527	53	41
77.2557	77.5807	42	40
77.2557	77.3457	54	40
77.3317	77.4197	55	32
77.4197	77.5527	94	35
77.4207	77.5527	54	32
77.4207	77.5527	85	35
77.5007	77.5807	89	40
77.5037	77.5847	56	33
77.5037	77.5807	82	40
77.5847	77.6787	57	33
77.6607	77.7447	58	33
77.7447	77.8537	85	36
77.7457	77.8537	57	34
77.7457	77.8537	77	36
77.8327	77.9137	73	40
77.8327	77.9097	82	40
77.8367	77.9137	58	34
77.9147	78.2417	47	40
77.9167	78.0077	59	40
77.9937	78.0777	60	35
78.0807	78.1967	78	35
78.0817	78.1967	70	35
78.0847	78.1967	59	36
78.1657	78.2427	75	40
78.1667	78.2447	61	36
78.1667	78.2427	66	40
78.2457	78.3577	62	37
78.3397	78.5956	82	36
78.3437	78.5157	63	39
78.3857	78.5956	90	43
78.4357	78.5506	62	40
78.4357	78.5986	95	51
78.5157	78.5996	63	41
78.5996	78.6936	65	40
78.6026	78.9276	53	40
78.6756	78.7666	66	32
78.7666	78.8966	83	35
78.7676	78.8966	65	32
78.7676	78.8966	92	35
78.8476	78.9286	87	40
78.8516	78.9316	67	33
78.8516	78.9306	80	40
78.9316	79.0256	68	33
79.0086	79.0886	69	33
79.0886	79.1766	87	36
79.0926	79.1766	80	36
79.0936	79.1806	68	34
79.1806	79.2566	83	40
79.1816	79.2576	69	34
79.1816	79.2576	77	40
79.2606	79.5886	58	40
79.2606	79.3587	70	40
79.3376	79.4286	71	35
79.4286	79.5896	80	35
79.4296	79.5326	70	36
79.4296	79.5326	74	35
79.5096	79.5896	76	40
79.5126	79.5906	73	36
79.5936	79.7856	74	37
79.5936	79.9476	77	35
79.6886	79.9476	73	39
79.7826	79.9476	80	43
79.7856	79.9476	74	40
79.7856	79.9476	94	51
79.8626	79.9476	70	41
79.9466	80.2716	63	40
79.9476	80.0406	75	37
80.0236	80.1076	74	37
80.1076	80.2616	90	36
80.1086	80.2616	82	36
80.1116	80.2616	73	37
80.1956	80.2766	78	40
80.1956	80.2756	87	40
80.1986	80.2766	72	37
80.2786	80.3736	71	37
80.3556	80.4366	70	37
80.4366	80.6256	82	36
80.4406	80.6256	66	37
80.4406	80.6256	75	36
80.5206	80.6256	87	40
80.5246	80.6256	63	37
80.5246	80.6016	78	40
80.6016	80.9406	78	51
80.6046	80.9406	90	51
80.6056	80.9406	59	48
80.6056	80.9406	69	48
80.6856	80.9406	89	40
80.6886	80.9406	68	39
80.7696	80.9406	88	43
80.7706	80.9406	67	40
80.8496	80.9406	87	47
80.8536	80.9406	66	40
80.9346	81.2806	60	51
80.9346	81.2806	81	54
80.9346	81.0176	93	54
80.9366	81.0186	65	51
81.0186	81.2806	92	46
81.0206	81.2806	64	42
81.1056	81.2806	91	49
81.1086	81.2806	63	43
81.1926	81.2806	90	54
81.1936	81.2806	62	43
81.2776	81.3616	85	57
81.2776	81.3606	97	70
81.2796	81.3616	61	63
81.2806	81.3636	49	63
81.6266	81.9776	80	33
81.6276	81.9866	77	33
81.6296	81.9866	86	37
81.6306	81.9776	71	32
81.7146	81.9866	83	35
81.7176	81.9866	74	25
81.8056	81.9866	79	37
81.8066	81.9866	70	32
81.8896	81.9866	76	31
81.8926	81.9866	73	27
81.9776	82.3406	71	32
81.9776	82.3406	80	37
82.0646	82.3406	74	28
82.0646	82.3406	77	32
82.1516	82.3406	64	34
82.1516	82.3406	85	37
82.2366	82.3406	82	37
82.2386	82.3406	67	33
82.3236	82.6906	86	39
82.3266	82.6906	65	34
82.4176	82.6906	83	40
82.4186	82.6906	68	36
82.5056	82.6906	91	42
82.5066	82.6906	58	37
82.5966	82.6906	88	43
82.5996	82.6906	61	40
82.6846	82.8436	92	44
82.6866	82.8436	59	41
82.7776	82.8756	89	42
82.7786	82.8766	62	37
82.8766	83.0546	98	54
82.8776	83.0546	59	44
82.9886	83.0966	86	41
82.9886	83.0956	89	41
82.9896	83.0966	49	37
83.0996	83.2576	97	50
83.1006	83.2576	57	44
83.1886	83.2856	89	41
83.1906	83.2886	85	41
83.1916	83.2896	49	36
83.2896	83.4506	95	54
83.2926	83.4506	56	44
83.3876	83.4806	83	44
83.3906	83.4856	49	35
83.3906	83.4856	89	44
83.4876	83.6456	94	52
83.4886	83.6456	55	44
83.5796	83.6746	82	41
83.5806	83.6776	49	37
83.5806	83.6776	85	41
83.6786	83.8486	93	51
83.6816	83.8486	54	44
83.7756	83.8746	81	44
83.7756	83.8736	84	44
83.7786	83.8746	49	36
83.8766	84.0416	92	54
83.8776	84.0416	57	44
83.9726	84.0696	84	43
83.9746	84.0736	49	36
83.9746	84.0696	80	43
84.0736	84.1956	63	44
84.0736	84.1956	90	52
84.1646	84.2616	84	44
84.1676	84.2626	78	44
84.1686	84.2626	49	37
84.2656	84.4576	77	56
84.2666	84.4616	85	56
84.2666	84.4586	89	56
84.2686	84.3636	61	48
84.2686	84.3606	68	48
84.4616	84.5556	37	48
84.6506	85.0186	65	32
84.6506	85.0086	68	32
84.6546	85.0116	59	32
84.6546	85.0186	74	37
84.7386	85.0186	71	35
84.7416	85.0186	62	25
84.8336	85.0186	67	37
84.8346	85.0186	58	32
84.9196	85.0186	64	31
84.9206	85.0186	61	27
85.0086	85.3646	68	37
85.0116	85.3646	59	32
85.0946	85.3646	65	32
85.0956	85.3646	62	28
85.1796	85.3646	73	37
85.1836	85.3646	52	34
85.2696	85.3646	55	33
85.2696	85.3646	70	37
85.3556	85.7186	74	39
85.3576	85.7186	53	34
85.4416	85.7186	71	40
85.4446	85.7186	56	36
85.5296	85.7186	79	42
85.5326	85.7186	46	37
85.6246	85.7186	49	40
85.6246	85.7186	76	43
85.7146	85.8406	80	44
85.7186	85.8406	47	41
85.8066	85.9036	77	42
85.8086	85.9066	50	37
85.9076	86.0886	47	44
85.9076	86.0886	86	54
86.0186	86.1206	74	41
86.0196	86.1216	37	37
86.0196	86.1216	77	41
86.1236	86.2886	85	50
86.1246	86.2886	45	44
86.2196	86.3166	73	41
86.2216	86.3206	37	36
86.2216	86.3166	77	41
86.3206	86.4736	83	54
86.3216	86.4736	44	44
86.4176	86.5126	77	44
86.4186	86.5156	37	35
86.4186	86.5136	71	44
86.5156	86.6736	82	52
86.5196	86.6736	43	44
86.6156	86.7056	70	41
86.6156	86.7046	73	41
86.6176	86.7056	37	37
86.7076	86.8796	81	51
86.7086	86.8796	42	44
86.8076	86.9046	69	44
86.8076	86.9046	72	44
86.8096	86.9056	37	36
86.9086	87.0756	45	44
86.9086	87.0756	80	54
87.0026	87.1006	68	43
87.0056	87.1016	72	43
87.0066	87.1036	37	36
87.1036	87.2305	78	52
87.1046	87.2305	51	44
87.1956	87.2936	66	44
87.1986	87.2946	37	37
87.1986	87.2936	72	44
87.2966	87.4016	49	44
87.2966	87.4016	77	52
87.3915	87.4815	65	43
87.3946	87.4855	68	43
87.3955	87.4855	37	36
87.4885	87.6495	74	52
87.4895	87.6495	47	44
87.5845	87.6735	62	43
87.5875	87.6775	37	36
87.5875	87.6745	65	43
87.6785	87.8566	45	46
87.6785	87.8566	73	54
87.7755	87.8665	61	44
87.7765	87.8675	37	37
87.7765	87.8665	65	44
87.8705	88.0235	44	46
87.8705	88.0235	71	55
87.9655	88.0555	59	46
87.9685	88.0605	37	37
87.9685	88.0565	65	46
88.0625	88.2205	70	56
88.0635	88.2205	43	47
88.1535	88.2455	58	47
88.1535	88.2455	61	47
88.1545	88.2465	37	39
88.2485	88.4095	42	48
88.2485	88.4095	69	57
88.3435	88.4335	57	47
88.3465	88.4375	37	40
88.3465	88.4375	60	47
88.4385	88.6155	68	58
88.4405	88.6155	45	49
88.5395	88.6335	56	48
88.5395	88.6335	60	48
88.5405	88.6335	37	40
88.6375	88.7765	51	50
88.6375	88.7765	66	58
88.7345	88.8295	54	49
88.7355	88.8325	37	41
88.7355	88.8325	60	49
88.8335	89.0335	56	66
88.8335	89.0325	65	66
88.8365	89.0355	49	56
89.0365	89.1275	56	69
89.0365	89.1265	62	82
89.0395	89.1275	53	69
89.0405	89.1305	35	57
89.0405	89.1305	47	67
89.2255	89.3165	56	64
89.2255	89.3165	61	75
89.2265	89.3195	53	64
89.2285	89.3235	36	50
89.2285	89.3225	48	59
89.4105	89.5085	60	75
89.4115	89.5085	53	64
89.4135	89.5125	37	50
89.4135	89.5125	56	64
89.4145	89.5135	49	59
89.6035	89.6935	53	69
89.6035	89.6945	56	69
89.6045	89.6975	59	82
89.6065	89.6985	38	57
89.6065	89.7005	50	67
89.7885	89.8935	56	64
89.7885	89.8935	62	75
89.7895	89.8945	53	64
89.7915	89.8975	47	64
89.9915	90.1775	61	82
89.9925	90.1785	53	69
89.9925	90.1775	56	69
89.9945	90.1775	48	67
90.0865	90.1805	49	63
90.0865	90.1805	60	74
90.1815	90.3695	59	74
90.1845	90.3705	50	63
90.5555	90.6535	65	37
90.5555	90.6525	68	37
90.5565	90.6535	74	44
90.5585	90.6565	59	37
90.7435	90.8385	65	34
90.7445	90.8385	68	34
90.7475	90.8395	73	41
90.7485	90.8425	60	32
90.9295	91.0305	65	34
90.9335	91.0345	61	32
90.9335	91.0315	68	34
90.9335	91.0315	72	41
91.1225	91.2165	65	37
91.1225	91.2165	68	37
91.1255	91.2175	71	44
91.1265	91.2205	62	37
91.3145	91.4125	68	34
91.3155	91.4135	65	34
91.3155	91.4135	74	41
91.3175	91.4155	59	34
91.5145	91.7095	65	37
91.5145	91.7095	73	44
91.5155	91.7095	60	37
91.5155	91.7095	68	37
91.6055	91.7095	72	40
91.6095	91.7095	61	34
91.7075	91.8885	62	34
91.7075	91.8885	71	40
92.0915	92.1865	65	69
92.0955	92.1865	56	69
92.0955	92.1895	62	82
92.0965	92.1895	35	57
92.0985	92.1905	47	67
92.2765	92.3715	65	64
92.2815	92.3745	36	50
92.2815	92.3725	56	64
92.2815	92.3725	61	75
92.2835	92.3745	48	59
92.4695	92.5635	56	64
92.4735	92.5665	49	59
92.4735	92.5645	60	75
92.4735	92.5645	65	64
92.4745	92.5675	37	50
92.6545	92.7535	65	69
92.6555	92.7565	56	69
92.6585	92.7575	50	67
92.6585	92.7575	59	82
92.6595	92.7605	38	57
92.8475	92.9485	56	64
92.8475	92.9455	62	75
92.8475	92.9465	65	64
92.8505	92.9495	47	64
93.0505	93.2635	61	82
93.0515	93.2635	56	69
93.0515	93.2635	65	69
93.0545	93.2635	48	67
93.1455	93.2635	60	74
93.1465	93.2635	49	63
93.2405	93.4215	59	74
93.2415	93.4255	50	63
93.6245	93.7195	77	37
93.6255	93.7205	68	37
93.6255	93.7195	74	44
93.6275	93.7205	59	37
93.8105	93.9005	68	34
93.8105	93.9055	73	41
93.8135	93.9085	60	32
93.8135	93.9075	77	34
94.0025	94.0935	68	34
94.0035	94.0975	72	41
94.0035	94.0975	77	34
94.0055	94.0985	61	32
94.1945	94.2855	77	37
94.1955	94.2895	68	37
94.1955	94.2865	71	44
94.1965	94.2905	62	37
94.3805	94.4855	68	34
94.3805	94.4855	77	34
94.3815	94.4865	74	41
94.3845	94.4895	59	34
94.5835	94.7795	77	37
94.5845	94.7795	68	37
94.5845	94.7795	73	44
94.5865	94.7795	60	37
94.6785	94.7795	72	40
94.6795	94.7795	61	34
94.7725	94.9545	71	40
94.7735	94.9555	62	34
95.1535	95.2445	71	37
95.1545	95.2455	77	44
95.1545	95.2455	80	37
95.1555	95.2455	62	37
95.3325	95.4205	76	41
95.3335	95.4205	71	34
95.3335	95.4205	80	34
95.3365	95.4235	63	32
95.5105	95.5985	80	34
95.5155	95.6015	64	32
95.5155	95.5995	71	34
95.5155	95.5995	75	41
95.6935	95.7775	74	44
95.6935	95.7805	80	37
95.6945	95.7835	65	37
95.6945	95.7805	71	37
95.8645	95.9655	80	41
95.8655	95.9655	74	34
95.8675	95.9665	83	34
95.8685	95.9695	65	34
96.0645	96.2735	74	37
96.0645	96.2735	79	44
96.0655	96.2735	83	37
96.0675	96.2735	66	37
96.1595	96.2735	78	40
96.1605	96.2735	67	34
96.2465	96.4215	77	40
96.2495	96.4245	68	34
96.4245	96.7715	77	42
96.4275	96.7715	86	42
96.4285	96.5325	68	35
96.4285	96.5325	83	35
96.5125	96.5955	81	28
96.5135	96.5965	69	28
96.5995	96.6835	82	28
96.6005	96.6875	70	28
96.6875	96.7745	71	28
96.6885	96.7745	80	28
96.7745	97.1275	89	43
96.7785	96.9035	71	35
96.7785	97.1285	80	43
96.7785	96.9035	87	35
96.8595	96.9495	72	28
96.8625	96.9535	84	28
96.9535	97.0375	73	28
96.9545	97.0405	85	28
97.0405	97.1285	74	28
97.0445	97.1295	83	28
97.1325	97.2755	74	35
97.1325	97.4675	83	44
97.1325	97.4685	92	44
97.1335	97.2755	88	35
97.2155	97.2965	87	31
97.2165	97.2965	75	31
97.2975	97.3805	76	31
97.2975	97.3805	88	31
97.3835	97.4715	77	31
97.3835	97.4715	86	31
97.4715	97.8175	86	42
97.4755	97.5545	77	35
97.4755	97.5545	92	35
97.4755	97.8185	95	42
97.5555	97.6475	90	31
97.5585	97.6475	78	31
97.6435	97.7305	91	31
97.6465	97.7305	79	31
97.7315	97.8185	89	31
97.7335	97.8205	80	31
97.8215	98.1645	89	54
97.8215	98.1645	98	54
97.8225	98.1675	95	36
97.8245	98.1645	80	36
97.9015	98.2495	93	33
97.9025	98.2495	81	33
97.9865	98.3285	82	33
97.9895	98.3325	94	33
98.0735	98.4175	92	33
98.0765	98.4195	83	33
98.1645	98.5105	80	36
98.1645	98.5065	89	50
98.1645	98.5045	98	50
98.1675	98.5075	95	36
98.2495	98.5115	81	33
98.2495	98.5115	93	33
98.3285	98.5115	82	33
98.3325	98.5115	94	33
98.4175	98.5115	92	32
98.4195	98.5115	83	32
98.5045	98.8495	98	55
98.5065	98.8475	89	55
98.5075	98.8505	95	36
98.5105	98.8495	80	36
98.5915	98.9345	81	33
98.5925	98.9315	93	33
98.6765	99.0205	82	33
98.6785	99.0215	94	33
98.7595	99.1085	83	33
98.7595	99.1065	92	33
98.8475	99.1935	89	51
98.8495	99.1935	80	36
98.8495	99.1925	98	51
98.8505	99.1925	95	36
98.9315	99.1935	93	32
98.9345	99.1935	81	32
99.0205	99.1935	82	32
99.0215	99.1935	94	32
99.1065	99.1935	92	32
99.1085	99.1935	83	32
99.1905	99.3645	101	55
99.1925	99.3645	95	42
99.1925	99.3645	98	42
99.2775	100.568	100	42
99.2785	99.6215	94	34
99.2785	99.6205	97	34
99.3645	99.5335	95	34
99.3645	99.5325	98	34
99.3645	100.568	101	42
99.4525	99.7955	93	34
99.4525	99.7925	96	34
99.4525	100.568	99	42
99.5325	99.7085	92	42
99.5325	99.7075	98	52
99.5335	99.7085	95	42
99.6205	99.9635	91	34
99.6205	100.568	97	42
99.6215	99.9605	94	34
99.7075	100.568	98	42
99.7085	99.8835	92	34
99.7085	99.8795	95	34
99.7925	100.568	96	42
99.7945	100.138	90	34
99.7955	100.135	93	34
99.8795	100.048	95	54
99.8825	100.052	89	42
99.8835	100.052	92	42
99.9605	100.568	94	42
99.9635	100.314	88	35
99.9635	100.31	91	35
100.048	100.568	95	42
100.052	100.225	89	35
100.052	100.222	92	35
100.135	100.568	93	42
100.137	100.48	87	35
100.138	100.477	90	35
100.222	100.39	92	51
100.225	100.394	86	42
100.225	100.393	89	42
100.31	100.568	85	34
100.31	100.568	91	42
100.314	100.568	88	34
100.39	100.568	92	42
100.393	100.565	89	34
100.394	100.566	86	34
100.477	100.568	90	42
100.478	100.568	84	34
100.48	100.568	87	34
100.565	100.733	89	49
100.566	100.736	86	37
100.568	100.733	83	37
100.652	100.996	82	31
100.652	100.996	85	31
100.652	101.968	88	37
100.733	100.908	83	31
100.733	101.968	89	37
100.736	100.908	86	31
100.82	101.968	87	37
100.821	101.171	81	31
100.823	101.17	84	31
100.908	101.083	83	37
100.908	101.082	86	47
100.911	101.083	80	37
100.996	101.342	82	31
100.996	101.968	85	37
100.997	101.345	79	31
101.082	101.968	86	37
101.083	101.258	80	31
101.083	101.255	83	31
101.17	101.968	84	37
101.171	101.518	78	31
101.171	101.517	81	31
101.255	101.43	83	48
101.258	101.43	77	37
101.258	101.432	80	37
101.342	101.968	82	37
101.345	101.698	79	31
101.346	101.699	76	31
101.43	101.612	77	31
101.43	101.968	83	37
101.432	101.611	80	31
101.517	101.968	81	37
101.518	101.872	78	31
101.52	101.874	75	31
101.611	101.786	80	46
101.612	101.787	74	37
101.612	101.787	77	37
101.698	101.968	79	37
101.699	101.968	73	31
101.699	101.968	76	31
101.786	101.964	80	37
101.787	101.966	74	31
101.787	101.966	77	31
101.872	101.968	72	31
101.872	101.968	78	37
101.874	101.968	75	31
101.964	102.148	80	37
101.966	102.144	74	37
101.966	102.144	77	37
102.05	102.239	73	31
102.053	102.239	76	31
102.144	102.325	74	31
102.144	102.323	77	31
102.148	102.327	80	31
102.239	102.327	73	31
102.239	102.327	76	31
102.323	102.405	77	37
102.325	102.406	74	37
102.327	102.409	80	37
102.409	102.5	73	31
102.412	102.5	76	31
102.501	102.595	80	31
102.504	102.595	74	31
102.504	102.595	77	31
102.596	102.679	76	31
102.598	102.682	73	31
102.683	102.773	74	37
102.683	102.773	77	37
102.685	102.777	80	37
102.777	102.861	73	31
102.778	102.861	76	31
102.863	102.956	80	31
102.864	102.956	74	31
102.864	102.956	77	31
102.958	103.04	73	31
102.958	103.041	76	31
103.043	103.131	74	37
103.044	103.135	77	37
103.047	103.138	80	37
103.138	103.222	73	31
103.139	103.222	76	31
103.222	103.309	74	31
103.226	103.31	77	31
103.226	103.31	80	31
103.311	103.4	73	31
103.314	103.401	76	31
103.401	105.241	80	31
103.404	105.241	74	31
103.405	103.583	77	31
103.499	103.671	78	31
103.583	103.761	77	31
103.671	103.852	78	31
103.761	103.943	77	28
103.852	104.035	78	28
103.943	104.122	77	28
104.035	104.213	78	31
104.122	104.308	77	31
104.213	104.399	78	31
104.308	104.489	77	31
104.399	104.581	78	31
104.489	104.675	77	26
104.581	104.766	78	26
104.675	104.86	77	27
104.766	104.952	78	27
104.86	105.047	77	29
104.952	105.145	78	26
105.047	105.241	77	29
105.145	105.241	78	26
105.235	105.612	70	37
105.238	105.425	76	29
105.239	105.612	62	36
105.239	105.612	67	34
105.33	105.511	78	26
105.425	105.599	76	34
105.427	105.603	68	29
105.427	105.612	71	34
105.511	105.612	78	26
105.599	105.97	72	39
105.599	105.784	76	29
105.603	105.97	61	40
105.603	105.97	68	34
105.691	105.869	78	26
105.784	105.968	76	29
105.785	105.967	73	35
105.788	105.97	69	29
105.869	105.97	78	26
105.967	106.326	73	40
105.968	106.33	70	39
105.968	106.138	76	29
105.969	106.33	56	36
106.048	106.229	78	26
106.138	106.327	76	29
106.141	106.33	71	33
106.141	106.33	74	35
106.229	106.33	78	26
106.326	106.418	73	31
106.327	106.698	57	33
106.327	106.421	76	31
106.33	106.701	64	40
106.421	106.519	78	26
106.52	106.606	76	32
106.521	106.607	85	46
106.607	106.701	78	26
106.611	106.702	73	26
106.705	106.785	76	33
106.706	107.058	57	33
106.706	106.785	83	46
106.708	107.058	52	33
106.708	107.062	64	40
106.786	106.879	78	26
106.789	106.88	73	26
106.88	106.97	76	33
106.881	106.971	81	42
106.971	107.062	78	27
106.974	107.063	73	27
107.065	107.15	74	34
107.066	107.436	59	33
107.066	107.153	81	46
107.069	107.44	52	33
107.069	107.436	64	40
107.153	107.243	71	28
107.157	107.247	76	28
107.248	107.338	74	33
107.248	107.339	80	43
107.339	107.44	76	26
107.342	107.44	71	26
107.441	107.576	74	33
107.443	107.797	56	33
107.443	107.794	64	40
107.443	107.576	79	46
107.524	107.618	71	25
107.527	107.619	78	43
107.619	107.702	77	46
107.62	107.702	74	32
107.706	107.801	71	26
107.801	107.976	73	33
107.801	108.154	76	46
107.802	108.158	57	33
107.803	108.158	64	40
107.885	108.158	69	25
107.976	108.158	73	25
108.063	108.158	78	25
108.154	108.528	70	37
108.154	108.336	76	29
108.155	108.528	62	36
108.157	108.528	67	34
108.244	108.423	78	26
108.332	108.528	71	34
108.336	108.518	68	29
108.336	108.515	76	34
108.423	108.528	78	26
108.515	108.693	76	29
108.518	108.879	61	40
108.518	108.879	68	34
108.518	108.879	72	39
108.605	108.784	78	26
108.693	108.875	76	29
108.694	108.874	73	35
108.696	108.879	69	29
108.784	108.879	78	26
108.874	109.235	73	40
108.875	109.053	76	29
108.878	109.239	70	39
108.879	109.239	56	36
108.963	109.145	78	26
109.053	109.239	74	35
109.053	109.236	76	29
109.054	109.239	71	33
109.145	109.239	78	26
109.235	109.33	73	31
109.236	109.606	64	40
109.236	109.33	76	31
109.238	109.607	57	33
109.331	109.428	78	26
109.428	109.522	85	50
109.429	109.523	76	32
109.523	109.61	78	26
109.524	109.611	73	26
109.611	109.697	76	33
109.613	109.701	83	50
109.614	109.967	52	33
109.614	109.967	57	33
109.617	109.968	64	40
109.704	109.795	73	26
109.704	109.792	78	26
109.796	109.879	76	33
109.796	109.882	81	48
109.883	109.97	73	27
109.883	109.971	78	27
109.971	110.058	74	34
109.974	110.061	81	50
109.975	110.345	52	33
109.975	110.345	64	40
109.977	110.346	59	33
110.062	110.152	71	28
110.065	110.153	76	28
110.155	110.247	74	33
110.156	110.248	80	48
110.248	110.348	76	26
110.25	110.348	71	26
110.348	110.481	74	33
110.352	110.705	56	33
110.352	110.705	64	40
110.352	110.481	79	50
110.44	110.523	71	25
110.44	110.526	78	43
110.527	110.611	74	32
110.527	110.611	77	50
110.612	110.705	71	26
110.706	111.091	76	50
110.709	111.091	64	40
110.709	110.881	73	33
110.71	111.091	57	33
110.793	111.091	69	25
110.881	111.091	73	25
110.978	111.091	80	25
111.084	111.266	81	29
111.087	111.457	67	36
111.087	111.457	75	37
111.09	111.457	72	34
111.17	111.357	82	26
111.266	111.448	76	34
111.266	111.444	81	34
111.267	111.448	73	29
111.357	111.457	82	26
111.444	111.626	81	29
111.448	111.808	73	34
111.448	111.808	76	39
111.45	111.808	65	40
111.536	111.717	82	26
111.626	111.808	77	35
111.626	111.805	81	29
111.627	111.808	74	29
111.717	111.808	82	26
111.805	111.986	81	29
111.807	112.169	61	36
111.807	112.169	78	40
111.808	112.169	75	39
111.895	112.077	82	26
111.986	112.169	79	35
111.986	112.165	81	29
111.987	112.169	76	33
112.077	112.169	82	26
112.165	112.259	81	31
112.166	112.263	77	31
112.168	112.539	62	33
112.169	112.539	69	40
112.263	112.364	82	26
112.365	112.451	89	55
112.368	112.452	81	32
112.452	112.54	82	26
112.455	112.543	77	26
112.543	112.63	88	55
112.544	112.63	81	33
112.546	112.9	57	33
112.546	112.9	69	40
112.547	112.901	62	33
112.634	112.717	77	26
112.637	112.718	82	26
112.722	112.812	81	33
112.722	112.813	86	52
112.813	112.901	82	27
112.816	112.903	77	27
112.903	112.991	86	55
112.904	112.991	79	34
112.907	113.274	57	33
112.907	113.274	64	33
112.908	113.278	69	40
112.992	113.078	81	28
112.995	113.079	76	28
113.081	113.176	85	52
113.082	113.177	79	33
113.18	113.278	76	26
113.181	113.281	81	26
113.281	113.414	79	33
113.282	113.414	84	55
113.285	113.628	61	33
113.285	113.998	69	40
113.366	113.452	76	25
113.366	113.449	83	52
113.453	113.544	79	32
113.453	113.544	82	55
113.545	113.628	76	26
113.632	113.811	77	33
113.635	113.998	62	33
113.635	113.996	81	55
113.719	113.998	74	25
113.811	113.998	77	25
113.897	113.998	82	25
113.992	114.366	75	37
113.996	114.366	67	36
113.996	114.366	72	34
113.996	114.174	81	29
114.076	114.258	82	26
114.174	114.356	81	34
114.175	114.356	73	29
114.175	114.353	76	34
114.258	114.366	82	26
114.353	114.717	76	39
114.356	114.717	65	40
114.356	114.717	73	34
114.356	114.534	81	29
114.437	114.619	82	26
114.534	114.717	77	35
114.534	114.716	81	29
114.535	114.717	74	29
114.619	114.717	82	26
114.713	115.076	78	40
114.716	115.076	61	36
114.716	114.892	81	29
114.717	115.076	75	39
114.797	114.979	82	26
114.892	115.074	81	29
114.895	115.076	76	33
114.895	115.076	79	35
114.979	115.076	82	26
115.074	115.448	69	40
115.074	115.168	77	31
115.074	115.168	81	31
115.076	115.448	62	33
115.171	115.266	82	26
115.266	115.353	89	50
115.27	115.356	81	32
115.357	115.451	77	26
115.357	115.449	82	26
115.451	115.535	81	33
115.452	115.805	69	40
115.452	115.535	88	50
115.455	115.809	57	33
115.455	115.808	62	33
115.536	115.627	77	26
115.536	115.626	82	26
115.63	115.714	81	33
115.63	115.713	86	48
115.717	115.812	82	27
115.718	115.812	77	27
115.813	115.893	79	34
115.813	115.893	86	50
115.815	116.18	57	33
115.815	116.179	64	33
115.815	116.179	69	40
115.896	115.979	76	28
115.896	115.98	81	28
115.983	116.081	85	48
115.984	116.082	79	33
116.082	116.18	76	26
116.082	116.183	81	26
116.183	116.315	79	33
116.184	116.315	84	50
116.186	116.533	61	33
116.186	116.894	69	40
116.267	116.35	83	48
116.271	116.355	76	25
116.355	116.445	79	32
116.355	116.445	82	50
116.446	116.533	76	26
116.534	116.715	77	33
116.537	116.894	62	33
116.537	116.855	81	50
116.627	116.855	74	25
116.715	116.855	77	25
116.802	116.894	86	25
116.897	117.083	77	42
116.897	117.082	89	51
116.898	117.267	60	41
116.9	117.267	45	34
116.985	117.267	86	40
116.987	117.166	84	33
117.082	117.267	89	43
117.083	117.265	77	35
117.166	117.267	84	33
117.17	117.261	87	40
117.261	117.45	87	54
117.265	117.61	46	27
117.265	117.61	62	33
117.265	117.451	77	44
117.353	117.534	82	32
117.353	117.61	85	39
117.45	117.61	87	43
117.451	117.61	77	35
117.534	117.621	82	33
117.534	117.624	86	40
117.625	117.814	86	51
117.629	118.017	48	32
117.629	118.017	63	39
117.629	117.814	75	51
117.717	118.017	83	37
117.719	117.905	81	31
117.814	118.017	75	35
117.814	118.017	86	43
117.905	118.017	81	39
117.906	118.011	84	39
118.011	118.199	84	51
118.013	118.199	74	42
118.014	118.286	50	23
118.014	118.286	65	28
118.101	118.286	77	31
118.102	118.286	81	37
118.199	118.289	74	35
118.199	118.287	84	43
118.29	118.395	77	39
118.293	118.398	82	39
118.399	118.584	72	39
118.399	118.588	83	47
118.402	118.787	51	29
118.402	118.787	66	35
118.49	118.787	80	37
118.491	118.678	78	37
118.584	118.787	72	33
118.588	118.787	83	40
118.678	118.787	78	36
118.679	118.783	81	36
118.783	118.977	81	46
118.784	119.109	68	28
118.784	118.977	71	39
118.787	119.109	52	24
118.878	119.109	79	36
118.881	119.068	76	31
118.977	119.109	71	33
118.977	119.109	81	40
119.068	119.172	76	29
119.068	119.171	80	35
119.175	119.369	69	39
119.178	119.371	80	46
119.179	119.581	54	25
119.179	119.581	63	31
119.269	119.581	77	35
119.27	119.463	75	29
119.369	119.581	69	33
119.371	119.581	80	40
119.372	119.581	60	26
119.459	119.568	78	35
119.463	119.581	75	29
119.568	119.763	68	36
119.568	119.764	78	43
119.569	119.973	56	27
119.57	119.973	64	33
119.665	119.973	75	33
119.666	119.865	71	27
119.763	119.973	68	33
119.764	119.973	59	28
119.764	119.973	78	40
119.864	119.964	76	34
119.865	119.973	71	28
119.963	120.393	72	32
119.964	120.393	57	33
119.964	120.156	76	37
119.965	120.393	66	33
120.058	120.362	74	32
120.156	120.393	76	37
120.159	120.393	60	27
120.159	120.393	69	32
120.256	120.393	75	32
120.362	120.755	74	29
120.363	120.755	59	27
120.363	120.457	78	35
120.365	120.457	68	33
120.458	120.755	75	31
120.555	120.755	71	31
120.558	120.755	62	27
120.558	120.755	78	36
120.652	120.754	76	28
120.754	121.163	66	33
120.754	121.163	69	28
120.754	120.947	76	34
120.755	121.163	60	27
120.849	121.163	74	29
120.947	121.163	76	35
121.044	121.163	75	29
121.146	121.247	78	36
121.15	121.248	71	31
121.152	121.248	62	27
121.153	121.249	68	33
121.251	121.345	74	32
121.346	121.444	78	35
121.444	121.541	77	32
121.544	121.734	76	37
121.545	121.936	68	42
121.545	121.936	71	48
121.638	121.936	78	34
121.734	121.936	76	37
121.737	121.936	62	36
121.829	121.936	90	44
121.92	122.289	88	44
121.923	122.289	69	46
121.923	122.289	73	52
122.016	122.289	78	37
122.104	122.289	76	37
122.108	122.289	61	35
122.192	122.289	66	34
122.286	122.459	64	37
122.288	122.638	68	46
122.288	122.638	74	52
122.376	122.638	66	33
122.459	122.638	64	37
122.461	122.638	59	36
122.549	122.638	78	36
122.591	123.015	57	43
122.636	122.739	73	48
122.636	122.739	76	31
122.739	122.835	78	26
122.741	122.923	73	26
122.782	122.836	63	41
122.836	122.924	85	50
122.838	122.926	76	32
122.839	122.926	64	54
122.928	123.018	73	26
122.93	123.018	78	26
123.022	123.105	49	42
123.022	123.103	76	33
123.022	123.102	83	50
123.106	123.189	73	26
123.108	123.19	78	26
123.151	123.192	66	36
123.193	123.283	81	48
123.196	123.283	76	33
123.197	123.284	64	51
123.287	123.372	73	27
123.287	123.372	78	27
123.372	123.462	81	50
123.375	123.466	40	43
123.375	123.462	74	34
123.466	123.549	71	28
123.466	123.55	76	28
123.505	123.55	63	29
123.553	123.651	74	33
123.554	123.651	80	47
123.556	123.652	64	47
123.652	123.748	71	26
123.654	123.749	76	26
123.749	123.885	79	50
123.75	123.885	74	33
123.752	123.885	44	42
123.837	123.92	71	25
123.84	123.921	78	46
123.878	123.924	66	35
123.924	124.015	77	50
123.925	124.015	74	32
123.927	124.019	64	47
124.019	124.102	71	26
124.103	124.463	76	50
124.104	124.284	73	33
124.105	124.466	45	44
124.197	124.466	69	25
124.235	124.466	63	29
124.284	124.466	64	48
124.284	124.466	73	25
124.372	124.466	78	25
124.463	124.844	71	48
124.463	124.642	76	37
124.464	124.844	68	42
124.557	124.844	78	34
124.642	124.844	76	37
124.643	124.844	62	36
124.736	124.844	90	44
124.828	125.192	88	44
124.83	125.192	73	52
124.831	125.192	69	46
124.925	125.192	78	37
125.009	125.192	61	35
125.009	125.192	76	34
125.096	125.192	66	37
125.188	125.363	64	34
125.188	125.539	74	52
125.191	125.539	68	46
125.278	125.539	66	37
125.363	125.539	64	34
125.364	125.539	59	36
125.45	125.539	78	37
125.507	125.922	57	42
125.537	125.632	76	31
125.539	125.636	73	48
125.636	125.729	78	26
125.638	125.824	73	26
125.685	125.733	63	41
125.734	125.825	85	50
125.737	125.829	64	54
125.737	125.828	76	32
125.831	125.912	78	26
125.832	125.915	73	26
125.915	126.0	76	33
125.916	126.0	49	42
125.916	126.0	83	50
126.003	126.091	73	26
126.003	126.09	78	26
126.044	126.094	66	36
126.097	126.178	76	33
126.098	126.182	64	51
126.098	126.181	81	47
126.182	126.273	78	27
126.185	126.273	73	27
126.276	126.36	74	34
126.276	126.359	81	50
126.277	126.36	40	43
126.364	126.451	71	28
126.364	126.452	76	28
126.405	126.454	63	29
126.454	126.545	74	33
126.458	126.545	80	47
126.459	126.546	64	47
126.549	126.644	71	26
126.549	126.644	76	26
126.645	126.783	74	33
126.647	126.783	44	42
126.647	126.783	79	50
126.738	126.822	78	43
126.742	126.825	71	25
126.776	126.826	66	35
126.826	126.91	77	50
126.829	126.913	74	32
126.83	126.913	64	47
126.914	127.004	71	26
127.004	127.361	76	50
127.005	127.18	73	33
127.008	127.361	45	44
127.095	127.361	69	25
127.137	127.361	63	29
127.18	127.358	73	25
127.182	127.361	64	48
127.274	127.361	80	28
127.358	127.753	73	42
127.358	127.55	81	37
127.361	127.753	76	48
127.453	127.753	82	34
127.55	127.753	81	37
127.551	127.753	67	36
127.645	127.753	94	43
127.736	128.099	77	52
127.736	128.099	93	43
127.739	128.099	74	46
127.826	128.099	82	37
127.918	128.099	65	35
127.918	128.099	81	35
128.005	128.099	70	37
128.097	128.275	69	34
128.097	128.46	73	46
128.098	128.46	79	52
128.19	128.46	70	37
128.275	128.46	69	35
128.278	128.46	64	36
128.372	128.46	82	37
128.456	128.555	81	31
128.457	128.831	62	48
128.46	128.555	77	48
128.556	128.743	77	26
128.558	128.652	82	26
128.604	128.653	68	41
128.656	128.75	69	54
128.656	128.747	81	32
128.656	128.748	89	50
128.75	128.831	82	26
128.751	128.832	77	26
128.834	128.926	81	33
128.834	128.926	88	50
128.838	128.926	53	42
128.928	129.009	82	26
128.929	129.013	77	26
128.97	129.016	70	36
129.017	129.1	81	33
129.017	129.1	86	48
129.018	129.101	69	51
129.104	129.192	77	27
129.105	129.192	82	27
129.195	129.279	79	34
129.195	129.278	86	50
129.196	129.279	45	43
129.283	129.373	76	28
129.283	129.37	81	28
129.324	129.373	68	29
129.377	129.464	85	48
129.378	129.468	69	47
129.378	129.464	79	33
129.468	129.563	81	26
129.471	129.563	76	26
129.566	129.702	79	33
129.566	129.702	84	50
129.567	129.702	49	42
129.653	129.744	83	47
129.654	129.745	76	25
129.695	129.745	70	35
129.748	129.832	82	50
129.749	129.833	69	47
129.749	129.832	79	32
129.833	129.923	76	26
129.923	130.099	77	33
129.927	130.284	50	44
129.927	130.28	81	50
130.014	130.284	74	25
130.056	130.284	68	29
130.099	130.284	77	25
130.101	130.284	69	48
130.194	130.284	82	25
130.28	130.672	76	48
130.28	130.469	81	37
130.281	130.672	73	42
130.379	130.672	82	33
130.469	130.672	81	37
130.473	130.672	67	36
130.565	130.672	94	43
130.655	131.025	93	43
130.659	131.025	74	46
130.659	131.025	77	52
130.752	131.025	82	37
130.837	131.025	81	35
130.838	131.025	65	35
130.931	131.025	70	37
131.023	131.197	69	35
131.023	131.379	73	46
131.023	131.379	79	52
131.109	131.379	70	37
131.197	131.379	64	36
131.197	131.379	69	34
131.282	131.379	82	37
131.376	131.753	62	48
131.376	131.467	81	31
131.379	131.467	77	48
131.47	131.659	77	26
131.47	131.567	82	26
131.523	131.568	68	41
131.568	131.66	89	50
131.569	131.66	81	32
131.572	131.662	69	54
131.663	131.753	77	26
131.666	131.754	82	26
131.754	131.838	81	33
131.757	131.841	53	42
131.757	131.841	88	50
131.845	131.932	77	26
131.845	131.935	82	26
131.886	131.936	70	36
131.936	132.019	81	33
131.937	132.02	86	48
131.939	132.02	69	51
132.02	132.107	82	27
132.023	132.107	77	27
132.108	132.197	86	50
132.111	132.202	45	43
132.111	132.201	79	34
132.202	132.285	81	28
132.205	132.286	76	28
132.239	132.289	68	29
132.29	132.383	79	33
132.29	132.387	85	48
132.292	132.387	69	47
132.39	132.478	76	26
132.39	132.478	81	26
132.479	132.625	84	50
132.482	132.625	49	42
132.482	132.625	79	33
132.574	132.663	83	47
132.576	132.664	76	25
132.618	132.664	70	35
132.667	132.751	79	32
132.668	132.752	69	47
132.668	132.751	82	50
132.755	132.839	76	26
132.839	133.195	81	50
132.84	133.017	77	33
132.842	133.195	50	44
132.935	133.195	74	25
133.017	133.195	77	25
133.126	133.234	86	28
133.235	133.633	77	50
133.235	133.633	89	60
133.236	133.633	29	50
133.237	133.43	41	50
133.333	133.633	84	50
133.335	133.528	42	42
133.335	133.633	81	50
133.427	133.633	75	47
133.43	133.627	41	42
133.527	133.633	87	56
133.528	133.633	42	42
133.626	134.021	85	64
133.627	134.021	41	50
133.627	133.825	53	50
133.627	134.021	73	52
133.724	134.021	77	46
133.724	134.021	82	46
133.725	133.917	54	43
133.822	134.021	74	51
133.825	134.018	53	43
133.916	134.021	86	55
133.917	134.021	54	43
134.014	134.422	80	60
134.015	134.211	65	50
134.015	134.221	68	60
134.018	134.422	53	50
134.109	134.221	75	44
134.113	134.221	66	43
134.113	134.221	72	35
134.211	134.422	65	40
134.211	134.422	69	48
134.309	134.422	81	56
134.312	134.422	66	40
134.421	134.715	72	50
134.421	134.715	84	60
134.422	134.62	65	50
134.518	134.715	77	50
134.519	134.715	74	50
134.522	134.715	67	41
134.616	134.716	70	47
134.62	134.718	65	41
134.718	134.822	82	47
134.823	135.222	77	50
134.826	135.222	89	60
134.827	135.222	29	50
134.827	135.019	41	50
134.922	135.222	84	50
134.924	135.222	81	50
134.925	135.117	42	42
135.017	135.222	75	47
135.019	135.219	41	42
135.116	135.222	87	56
135.117	135.222	42	42
135.216	135.614	73	52
135.218	135.614	85	64
135.219	135.614	41	50
135.219	135.408	53	50
135.307	135.614	82	46
135.309	135.506	54	43
135.309	135.614	77	46
135.408	135.608	53	43
135.408	135.614	74	51
135.506	135.614	54	43
135.506	135.614	86	55
135.607	136.014	80	60
135.608	136.014	53	50
135.608	135.796	65	50
135.608	135.81	68	60
135.702	135.81	75	44
135.703	135.81	72	35
135.705	135.81	66	43
135.796	136.014	65	40
135.796	136.014	69	48
135.894	136.014	81	56
135.897	136.014	66	40
136.013	136.297	72	50
136.013	136.304	84	60
136.014	136.209	65	50
136.108	136.297	74	50
136.11	136.297	77	50
136.111	136.297	67	41
136.206	136.304	70	47
136.209	136.305	65	41
136.307	136.409	82	47
136.409	136.804	82	57
136.41	136.804	94	70
136.411	136.804	34	57
136.412	136.605	46	57
136.51	136.791	89	57
136.511	136.697	47	48
136.511	136.804	86	57
136.604	136.804	80	54
136.605	136.791	46	48
136.696	136.804	92	64
136.697	136.804	47	48
136.79	137.175	77	59
136.791	137.175	46	57
136.791	137.175	89	72
136.792	136.983	58	57
136.888	137.175	87	52
136.889	137.074	59	50
136.889	137.175	82	52
136.98	137.175	79	58
136.983	137.169	58	50
137.073	137.175	90	63
137.074	137.175	59	50
137.165	137.364	73	70
137.169	137.57	58	57
137.169	137.361	70	57
137.169	137.57	85	70
137.263	137.364	77	41
137.266	137.364	71	50
137.266	137.364	80	51
137.358	137.57	74	55
137.361	137.568	70	44
137.458	137.57	86	64
137.459	137.57	71	44
137.567	137.854	89	70
137.568	137.847	70	57
137.568	137.847	77	57
137.665	137.847	78	57
137.665	137.847	82	57
137.764	137.855	75	54
137.855	137.963	87	54
137.963	138.355	94	77
137.966	138.355	34	63
137.966	138.355	82	63
137.967	138.155	46	63
138.057	138.355	86	63
138.061	138.247	47	52
138.061	138.344	89	63
138.152	138.355	80	58
138.155	138.348	46	52
138.246	138.355	92	70
138.247	138.355	47	52
138.344	138.728	77	65
138.344	138.728	89	79
138.348	138.728	46	63
138.348	138.533	58	63
138.436	138.728	87	57
138.439	138.631	59	55
138.439	138.728	82	57
138.529	138.728	78	64
138.533	138.725	58	55
138.628	138.728	90	69
138.631	138.728	59	55
138.722	138.922	73	77
138.722	139.118	85	77
138.723	138.909	70	63
138.725	139.118	58	63
138.814	138.922	80	56
138.816	138.922	71	55
138.816	138.922	77	44
138.908	139.118	74	59
138.909	139.118	70	48
139.006	139.118	86	70
139.007	139.118	71	48
139.117	139.401	77	63
139.118	139.401	70	63
139.118	139.405	89	77
139.216	139.401	78	63
139.216	139.401	82	63
139.314	139.405	75	58
139.408	139.513	87	58
139.513	139.699	85	67
139.516	139.902	46	67
139.516	139.796	97	82
139.517	139.902	34	56
139.609	139.902	90	67
139.699	139.902	85	63
139.702	139.902	42	50
139.703	139.902	54	59
139.796	139.902	97	75
139.891	140.273	100	83
139.892	140.273	88	72
139.895	140.273	35	58
139.895	140.273	47	70
139.986	140.273	90	62
140.077	140.273	87	70
140.08	140.273	54	60
140.081	140.273	42	50
140.174	140.273	99	74
140.266	140.465	81	82
140.266	140.662	93	82
140.267	140.465	37	58
140.267	140.465	49	69
140.36	140.465	90	60
140.361	140.465	88	48
140.459	140.662	42	54
140.459	140.662	54	63
140.459	140.662	82	65
140.55	140.662	94	75
140.658	140.951	97	82
140.66	140.947	85	67
140.661	140.947	39	58
140.661	140.947	51	69
140.76	140.947	90	67
140.762	140.947	87	67
140.858	140.955	42	55
140.858	140.955	83	63
140.861	140.958	54	65
140.959	141.053	95	63
141.057	141.254	91	50
141.057	141.253	96	59
141.058	141.469	40	58
141.058	141.469	52	69
141.156	141.354	85	42
141.156	141.355	94	50
141.253	141.469	96	50
141.254	141.469	55	66
141.254	141.469	91	42
141.256	141.469	46	56
141.354	141.469	85	42
141.355	141.469	94	50
141.455	141.645	93	56
141.456	141.851	58	67
141.456	141.648	88	47
141.459	141.851	49	57
141.55	141.747	82	40
141.551	141.749	91	47
141.645	141.851	93	47
141.648	141.851	52	58
141.648	141.851	61	70
141.648	141.851	88	39
141.747	141.851	82	39
141.749	141.851	91	47
141.837	142.029	90	56
141.841	142.226	64	71
141.841	142.03	85	48
141.842	142.226	55	59
141.939	142.132	79	39
141.939	142.131	88	47
142.029	142.226	90	46
142.03	142.226	67	72
142.03	142.226	85	39
142.033	142.226	58	60
142.131	142.226	88	46
142.132	142.222	79	39
142.219	142.414	87	51
142.222	142.601	61	63
142.222	142.412	79	43
142.223	142.601	70	74
142.317	142.509	76	34
142.317	142.509	85	40
142.412	142.6	79	34
142.414	142.601	64	59
142.414	142.601	87	40
142.415	142.601	73	71
142.509	142.601	76	33
142.509	142.601	85	40
142.6	142.757	79	42
142.601	142.757	76	75
142.601	142.757	84	50
142.699	142.793	73	33
142.701	142.793	81	39
142.794	142.891	79	33
142.796	142.893	64	71
142.796	142.891	84	39
142.894	142.992	73	33
142.898	142.993	82	39
142.993	143.16	81	46
142.995	143.16	73	66
142.995	143.16	76	39
143.098	143.194	70	32
143.101	143.195	78	37
143.195	143.3	76	32
143.198	143.301	81	37
143.199	143.301	61	62
143.302	143.408	70	31
143.303	143.409	79	36
143.412	143.608	77	46
143.413	143.608	70	57
143.413	143.608	73	37
143.516	143.629	67	28
143.517	143.63	75	34
143.63	143.752	77	34
143.633	143.753	58	51
143.633	143.752	73	28
143.755	143.884	76	35
143.756	143.885	67	29
143.885	144.098	70	36
143.888	144.304	74	36
143.888	144.325	79	47
143.892	144.325	62	33
143.99	144.325	65	33
144.098	144.325	70	40
144.2	144.325	77	37
144.304	144.743	74	47
144.305	144.518	68	36
144.308	145.162	53	20
144.309	144.774	59	25
144.406	144.774	65	36
144.518	144.774	68	36
144.624	144.774	75	37
144.742	144.844	64	36
144.743	145.162	60	25
144.743	144.844	70	36
144.743	145.162	74	47
144.844	145.16	67	36
144.949	145.162	64	36
145.055	145.162	72	37
145.159	145.366	63	36
145.16	145.589	67	47
145.162	145.369	40	37
145.263	145.589	60	36
145.264	145.481	41	33
145.366	145.589	63	36
145.369	145.589	40	39
145.477	145.589	69	37
145.481	146.02	41	33
145.579	145.789	70	36
145.582	146.02	79	47
145.583	146.003	53	33
145.583	146.002	74	36
145.688	146.02	65	33
145.789	146.02	70	40
145.894	146.02	77	37
145.999	146.213	68	36
146.002	146.468	59	25
146.002	146.434	74	47
146.003	146.864	53	20
146.107	146.468	65	36
146.213	146.468	68	36
146.318	146.468	75	37
146.434	146.864	74	47
146.436	146.538	64	36
146.436	146.537	70	36
146.437	146.864	60	25
146.538	146.863	67	36
146.643	146.864	64	36
146.749	146.864	72	37
146.86	147.07	63	36
146.863	147.293	67	47
146.864	147.07	40	37
146.957	147.293	60	36
146.961	147.175	41	33
147.07	147.293	40	39
147.07	147.293	63	36
147.173	147.293	69	37
147.175	147.703	41	33
147.277	147.483	62	36
147.277	147.714	72	47
147.279	147.714	53	33
147.381	147.714	65	33
147.483	147.714	62	40
147.595	147.714	70	37
147.7	147.91	56	36
147.701	148.168	67	47
147.703	148.56	41	20
147.703	148.168	47	25
147.703	148.168	50	25
147.805	148.015	62	36
147.91	148.168	56	36
148.015	148.168	62	32
148.016	148.132	65	37
148.132	148.56	65	47
148.133	148.231	55	36
148.134	148.56	48	25
148.135	148.558	51	25
148.235	148.446	60	36
148.337	148.56	55	36
148.445	148.56	63	37
148.446	148.558	60	32
148.558	148.764	42	37
148.558	148.763	51	36
148.558	148.989	60	47
148.659	148.869	57	36
148.66	148.869	41	33
148.763	148.989	51	36
148.764	148.989	42	39
148.868	148.989	62	37
148.869	148.989	41	33
148.869	148.989	57	36
148.985	149.215	58	43
148.988	149.216	34	43
148.988	149.216	50	34
149.216	149.306	65	37
149.218	149.306	62	37
149.219	149.311	50	23
149.219	149.31	58	29
149.219	149.31	74	44
149.222	149.313	53	23
149.397	149.498	62	34
149.401	149.499	65	34
149.401	149.499	72	41
149.404	149.503	50	19
149.404	149.503	53	19
149.404	149.502	58	25
149.59	149.684	62	34
149.59	149.684	65	34
149.593	149.688	71	41
149.594	149.688	53	19
149.597	149.688	50	19
149.597	149.689	58	25
149.775	149.876	65	37
149.779	149.877	62	37
149.779	149.877	70	44
149.782	149.88	50	23
149.783	149.881	53	23
149.783	149.88	58	28
149.968	150.065	62	34
149.971	150.07	50	19
149.971	150.07	65	34
149.971	150.066	74	41
149.972	150.072	53	19
149.975	150.073	58	25
150.174	150.362	72	44
150.175	150.362	53	19
150.175	150.362	62	37
150.175	150.362	65	37
150.177	150.362	50	19
150.177	150.362	58	25
150.269	150.362	71	40
150.36	150.541	70	40
150.542	150.769	32	49
150.77	150.863	77	44
150.772	150.864	65	37
150.773	150.867	53	23
150.773	150.867	58	23
150.773	150.864	70	37
150.776	150.868	62	29
150.955	151.049	65	34
150.955	151.05	76	41
150.956	151.05	70	34
150.958	151.051	53	19
150.958	151.053	58	19
150.958	151.053	62	25
151.147	151.242	75	41
151.148	151.242	65	34
151.148	151.243	70	34
151.15	151.243	58	19
151.15	151.245	62	25
151.151	151.245	53	19
151.332	151.423	70	37
151.333	151.424	65	37
151.333	151.428	74	44
151.336	151.43	53	23
151.336	151.431	58	23
151.336	151.431	62	28
151.525	151.623	65	34
151.525	151.623	77	41
151.526	151.627	53	19
151.526	151.624	70	34
151.529	151.627	58	19
151.529	151.627	62	25
151.721	151.917	65	37
151.722	151.917	70	37
151.724	151.917	76	44
151.725	151.917	53	19
151.725	151.917	58	19
151.725	151.917	62	25
151.826	151.917	75	40
151.917	152.106	74	40
152.107	152.322	30	50
152.327	152.425	73	37
152.327	152.424	82	44
152.331	152.429	61	23
152.331	152.428	64	29
152.331	152.425	70	37
152.333	152.429	54	23
152.516	152.606	73	34
152.517	152.61	70	34
152.519	152.614	61	19
152.519	152.614	80	41
152.523	152.615	54	19
152.523	152.614	64	25
152.701	152.799	70	34
152.704	152.802	79	41
152.705	152.803	64	25
152.705	152.803	73	34
152.708	152.806	61	19
152.709	152.807	54	19
152.894	152.984	70	37
152.894	152.989	73	37
152.897	152.991	64	28
152.897	152.989	78	44
152.898	152.992	61	23
152.901	152.992	54	23
153.086	153.184	82	41
153.087	153.188	70	34
153.087	153.184	73	34
153.089	153.188	54	19
153.09	153.191	61	19
153.09	153.189	64	25
153.281	153.475	70	37
153.282	153.475	80	44
153.285	153.475	73	37
153.286	153.475	64	25
153.289	153.475	54	19
153.289	153.475	61	19
153.381	153.475	79	40
153.471	153.67	78	40
153.675	153.891	29	47
153.895	153.996	72	37
153.895	153.999	78	44
153.896	154.0	69	37
153.898	154.0	57	23
153.898	154.003	66	29
153.899	154.004	63	23
154.104	154.203	72	34
154.105	154.206	63	19
154.105	154.204	69	34
154.105	154.203	77	41
154.106	154.206	65	25
154.108	154.206	57	19
154.297	154.395	72	34
154.3	154.398	69	34
154.301	154.402	57	19
154.301	154.399	76	41
154.305	154.403	63	19
154.305	154.403	65	25
154.49	154.595	69	37
154.49	154.595	72	37
154.493	154.598	65	28
154.493	154.595	75	44
154.494	154.599	63	23
154.497	154.599	57	23
154.699	154.815	69	34
154.7	154.819	72	41
154.703	154.819	60	23
154.704	154.819	63	19
154.704	154.82	65	25
154.937	155.141	79	44
154.938	155.141	72	37
154.941	155.141	69	37
154.942	155.141	63	19
154.942	155.141	65	25
155.04	155.141	78	40
155.137	155.336	77	40
155.34	155.572	34	52
155.572	155.711	74	44
155.573	155.711	62	37
155.574	155.711	58	23
155.575	155.711	65	29
155.663	155.75	66	35
155.751	155.892	72	41
155.753	155.892	62	34
155.754	155.892	53	19
155.754	155.892	65	25
155.848	155.931	67	32
155.932	156.079	62	34
155.932	156.079	71	41
155.935	156.079	58	19
155.936	156.079	65	25
156.033	156.121	66	33
156.124	156.253	62	37
156.125	156.253	65	28
156.125	156.253	70	44
156.128	156.253	53	23
156.219	156.306	67	35
156.307	156.453	62	34
156.309	156.453	74	41
156.31	156.453	58	19
156.313	156.453	65	25
156.416	156.516	66	33
156.516	156.709	72	44
156.52	156.709	53	23
156.52	156.709	62	37
156.52	156.709	65	25
156.61	156.709	71	40
156.706	156.887	70	40
156.89	157.122	32	52
157.122	157.258	77	44
157.123	157.258	65	37
157.125	157.258	62	23
157.125	157.258	70	29
157.213	157.3	71	35
157.301	157.451	76	41
157.303	157.451	65	34
157.304	157.451	56	19
157.304	157.451	70	25
157.398	157.486	72	32
157.486	157.636	75	41
157.489	157.636	62	19
157.489	157.636	65	34
157.49	157.636	70	25
157.584	157.675	71	33
157.678	157.836	65	37
157.682	157.836	56	23
157.682	157.836	74	44
157.683	157.836	70	28
157.776	157.863	72	35
157.864	158.032	65	34
157.867	158.032	77	41
157.868	158.032	62	19
157.868	158.032	70	25
157.972	158.067	71	33
158.068	158.263	65	37
158.068	158.263	76	44
158.07	158.263	56	23
158.07	158.263	70	25
158.162	158.263	75	40
158.262	158.462	74	40
158.462	158.648	42	52
158.466	158.649	30	52
158.649	158.76	70	34
158.651	158.76	73	33
158.651	158.76	82	41
158.652	158.76	54	19
158.652	158.76	61	19
158.655	158.76	64	25
158.843	159.043	70	37
158.844	159.043	73	37
158.848	159.043	61	23
158.848	159.043	64	25
158.848	159.043	80	44
158.851	159.043	58	23
158.942	159.043	79	40
159.043	159.239	78	40
159.24	159.425	35	52
159.24	159.425	47	52
159.426	159.54	78	33
159.428	159.54	59	19
159.428	159.54	75	34
159.428	159.54	87	41
159.432	159.54	66	19
159.432	159.54	69	25
159.628	159.822	75	37
159.629	159.822	78	37
159.631	159.822	63	23
159.631	159.822	85	44
159.632	159.822	66	23
159.632	159.822	69	25
159.726	159.822	84	40
159.821	160.006	83	40
160.007	160.215	29	52
160.009	160.216	41	52
160.216	160.384	87	37
160.219	160.384	84	37
160.219	160.384	93	44
160.22	160.384	53	40
160.317	160.412	52	34
160.415	160.572	84	39
160.416	160.572	54	40
160.416	160.572	87	39
160.416	160.572	92	47
160.521	160.615	53	34
160.616	160.789	84	39
160.618	160.789	87	39
160.618	160.789	91	46
160.619	160.789	55	40
160.72	160.811	54	34
160.815	160.975	87	37
160.815	160.975	90	44
160.817	160.975	84	37
160.818	160.975	56	40
160.916	161.01	55	35
161.01	161.188	81	37
161.011	161.188	84	37
161.014	161.188	57	40
161.014	161.188	89	44
161.112	161.206	56	35
161.207	161.378	88	43
161.209	161.378	84	36
161.21	161.378	58	40
161.21	161.378	81	36
161.304	161.399	57	35
161.399	161.552	84	35
161.4	161.552	81	35
161.403	161.552	59	40
161.403	161.552	87	42
161.496	161.591	58	35
161.592	161.741	78	39
161.592	161.741	81	39
161.595	161.741	60	40
161.595	161.741	86	46
161.686	161.783	59	40
161.784	161.945	78	39
161.784	161.945	85	47
161.785	161.945	81	39
161.787	161.945	61	41
161.878	161.969	60	37
161.969	162.147	78	39
161.97	162.147	81	39
161.97	162.147	84	47
161.973	162.147	62	42
162.071	162.158	61	37
162.159	162.337	78	40
162.161	162.337	75	40
162.162	162.337	63	43
162.162	162.337	83	48
162.263	162.351	62	40
162.351	162.529	82	49
162.352	162.529	78	41
162.354	162.529	64	44
162.354	162.529	75	41
162.448	162.543	63	40
162.544	162.722	72	42
162.544	162.722	75	42
162.547	162.722	65	47
162.547	162.722	81	50
162.645	162.735	64	42
162.736	162.907	72	43
162.736	162.907	75	43
162.739	162.907	80	51
162.74	162.907	66	49
162.838	162.932	65	46
162.932	163.092	75	44
162.935	163.092	67	51
162.935	163.092	72	44
162.935	163.092	79	52
163.034	163.127	66	48
163.128	163.296	72	44
163.131	163.296	78	54
163.132	163.296	68	54
163.132	163.296	75	44
163.233	163.326	67	46
163.327	163.513	77	52
163.328	163.513	72	44
163.328	163.513	75	44
163.331	163.513	69	50
163.429	163.52	68	44
163.521	163.715	75	42
163.521	163.715	79	50
163.523	163.715	70	47
163.626	163.719	69	42
163.72	163.905	77	48
163.723	163.905	72	44
163.723	163.905	75	40
163.824	163.919	69	37
163.919	164.119	75	42
163.92	164.319	68	43
163.92	164.318	78	50
164.017	164.413	71	39
164.119	164.318	75	42
164.119	164.514	77	42
164.121	164.515	69	43
164.216	164.608	72	37
164.318	164.514	75	42
164.318	164.711	78	50
164.319	164.714	68	43
164.413	164.714	71	39
164.514	164.713	75	36
164.514	164.714	77	43
164.515	164.714	69	43
164.608	164.714	72	39
164.711	165.518	78	50
164.713	164.909	75	42
164.714	165.108	68	43
164.809	165.2	71	39
164.909	165.107	75	35
164.909	165.304	77	42
164.91	165.305	69	42
165.008	165.4	72	36
165.106	165.508	79	47
165.107	165.303	75	39
165.108	165.509	68	41
165.2	165.518	71	35
165.303	165.505	75	33
165.304	165.518	77	40
165.305	165.518	69	40
165.4	165.518	72	34
165.505	165.71	75	37
165.508	165.924	79	44
165.509	165.928	68	39
165.602	166.033	71	33
165.71	165.924	75	32
165.711	166.146	69	37
165.711	166.146	77	37
165.812	166.282	72	32
165.924	166.145	75	35
165.924	166.426	79	42
165.928	166.426	68	36
166.033	166.426	71	31
166.145	166.426	75	29
166.146	166.426	69	35
166.146	166.425	77	35
166.282	166.426	72	29
166.425	166.662	77	39
166.426	166.667	70	34
166.426	166.666	74	32
166.915	167.037	62	39
167.012	167.135	63	39
167.114	167.234	62	39
167.216	167.331	64	39
167.313	167.422	65	40
167.314	168.448	50	34
167.314	168.444	59	34
167.318	168.448	56	34
167.405	167.517	66	40
167.499	167.611	65	40
167.59	167.709	67	41
167.684	167.8	68	41
167.783	167.895	69	41
167.878	167.989	68	42
167.968	168.08	70	42
168.063	168.185	71	42
168.161	168.276	72	42
168.258	168.371	71	43
168.263	168.353	62	48
168.354	168.465	73	43
168.449	168.557	74	43
168.451	168.819	53	34
168.451	168.819	56	34
168.452	168.539	61	48
168.539	168.65	75	44
168.633	168.742	74	44
168.634	168.724	60	48
168.724	168.833	76	44
168.819	168.927	77	44
168.82	169.201	50	34
168.822	169.201	55	34
168.822	168.909	59	48
168.91	169.018	78	43
169.004	169.123	77	43
169.005	169.102	62	48
169.102	169.224	79	43
169.201	169.319	80	43
169.204	169.578	53	34
169.204	169.579	55	34
169.204	169.298	61	48
169.301	169.41	81	44
169.302	169.393	60	48
169.393	169.501	80	44
169.394	169.484	59	48
169.484	169.595	83	44
169.579	169.764	54	32
169.579	169.715	86	44
169.581	169.764	50	32
169.582	169.767	57	32
169.582	169.765	62	40
169.674	169.767	87	46
169.768	169.862	86	46
169.862	169.956	89	46
169.957	170.142	90	46
170.048	171.101	91	47
170.142	171.101	90	47
170.236	171.101	92	47
170.334	170.52	93	48
170.425	171.101	94	48
170.52	171.101	93	48
170.614	170.797	97	48
170.705	170.898	98	49
170.797	170.99	97	49
170.898	171.101	98	49
170.99	171.101	97	49
171.094	171.251	96	51
171.097	171.279	55	32
171.097	171.458	99	62
171.098	171.28	48	32
171.098	171.283	63	40
171.189	171.284	95	44
171.284	171.37	96	44
171.374	171.458	94	44
171.462	171.868	93	44
171.553	171.868	91	44
171.648	171.868	92	44
171.738	171.868	90	44
171.832	171.993	89	51
171.833	172.014	48	32
171.833	172.203	101	60
171.836	172.019	41	32
171.836	172.018	51	32
171.836	172.018	57	40
171.924	172.021	88	44
172.021	172.109	89	44
172.109	172.204	87	44
172.204	172.593	86	44
172.288	172.593	85	44
172.382	172.593	84	44
172.477	172.593	83	44
172.514	172.683	46	32
172.532	172.686	53	32
172.55	172.686	62	40
172.567	172.687	82	55
172.592	172.687	101	65
172.963	173.079	38	39
173.061	173.176	39	39
173.158	173.274	38	39
173.257	173.372	40	39
173.355	174.117	53	34
173.358	174.118	59	34
173.358	174.118	62	34
173.362	173.473	41	40
173.362	174.119	56	34
173.457	173.565	42	40
173.547	173.659	41	40
173.642	173.758	43	41
173.74	173.848	44	41
173.834	173.946	45	41
173.925	174.041	44	42
174.023	174.138	46	42
174.122	174.24	47	42
174.216	174.331	48	42
174.314	174.409	80	37
174.314	174.409	86	52
174.317	174.429	47	43
174.317	174.409	77	37
174.412	174.517	49	43
174.499	174.594	85	52
174.5	174.594	80	37
174.502	174.595	77	37
174.503	174.611	50	43
174.595	174.703	51	44
174.685	174.779	77	37
174.689	174.796	50	44
174.689	174.783	80	37
174.689	174.78	84	52
174.783	174.891	52	44
174.87	174.965	83	52
174.874	175.259	80	37
174.875	175.259	74	37
174.877	174.982	53	44
174.965	175.08	54	43
175.056	175.157	86	55
175.06	175.178	53	43
175.158	175.276	55	43
175.262	175.354	74	31
175.266	175.354	85	56
175.267	175.371	56	43
175.267	175.354	77	33
175.357	175.465	57	44
175.357	175.444	84	52
175.447	175.539	83	52
175.448	175.556	56	44
175.539	175.655	59	44
175.633	175.826	78	34
175.633	175.822	86	34
175.634	175.827	93	43
175.637	176.015	50	37
175.637	175.749	62	37
175.731	175.843	63	39
175.829	175.941	62	39
175.917	176.033	65	39
176.015	176.126	66	39
176.105	176.221	67	39
176.2	176.313	66	39
176.295	176.403	68	39
176.389	176.498	69	40
176.48	176.589	70	40
176.571	176.683	69	40
176.665	176.774	73	40
176.756	176.869	74	41
176.851	176.96	73	41
176.943	177.057	74	41
177.036	177.166	73	41
177.142	177.328	96	43
177.143	177.328	79	34
177.143	177.328	87	34
177.145	177.513	60	51
177.145	177.257	72	43
177.233	177.344	71	37
177.331	177.436	72	37
177.418	177.53	70	37
177.513	177.625	69	37
177.604	177.715	67	37
177.698	177.81	68	37
177.793	177.901	66	37
177.884	178.065	87	34
177.884	178.066	93	34
177.887	178.248	53	51
177.887	177.995	65	43
177.887	178.066	101	43
177.972	178.08	64	37
178.066	178.174	65	37
178.157	178.269	63	37
178.252	178.359	62	37
178.342	178.454	61	37
178.437	178.545	60	37
178.528	178.609	59	37
178.632	178.723	86	34
178.633	178.728	101	43
178.637	178.732	46	46
178.637	178.731	94	34
178.639	178.732	58	55
178.818	178.913	50	35
178.822	178.917	53	29
178.822	178.913	58	25
178.917	179.003	62	28
179.008	179.098	48	40
179.008	179.099	58	24
179.009	179.099	54	28
179.102	179.189	62	28
179.189	179.29	47	36
179.193	179.291	55	28
179.193	179.291	58	24
179.294	179.382	62	28
179.383	179.48	46	40
179.383	179.483	58	28
179.385	179.484	54	34
179.484	179.575	62	25
179.575	179.661	50	36
179.576	179.662	53	34
179.578	179.665	58	28
179.666	179.746	62	24
179.749	179.946	48	40
179.75	179.943	58	28
179.753	179.946	54	34
179.844	179.946	47	35
179.845	179.946	62	28
179.942	180.04	46	35
179.943	180.041	58	28
179.946	180.041	55	34
180.043	180.096	62	25
180.099	180.274	54	34
180.113	180.278	57	34
180.131	180.278	63	34
180.411	180.901	87	42
180.412	180.82	78	46
180.412	180.737	81	46
180.495	180.901	84	42
180.572	180.901	80	41
180.576	180.901	71	44
180.576	180.898	74	44
180.656	180.901	77	41
180.737	180.901	81	40
180.74	180.901	72	43
180.74	180.901	75	43
180.82	180.901	78	39
180.898	181.58	74	39
180.901	181.321	65	43
180.901	181.234	68	43
180.982	181.58	71	37
181.066	181.58	75	37
181.069	181.58	66	42
181.069	181.405	69	42
181.15	181.58	72	36
181.234	181.58	68	36
181.236	181.58	62	41
181.237	181.58	59	41
181.321	181.58	65	35
181.405	181.58	69	34
181.406	181.58	60	40
181.406	181.58	63	40
181.493	181.58	78	34
181.577	181.832	77	43
181.579	181.832	70	43
181.58	181.833	41	50
181.836	181.929	50	35
181.836	181.934	58	25
181.837	181.934	53	29
181.934	182.024	62	28
182.025	182.115	48	40
182.025	182.115	58	24
182.028	182.119	54	28
182.119	182.209	62	28
182.21	182.301	47	36
182.211	182.302	58	24
182.213	182.304	55	28
182.305	182.395	62	28
182.395	182.494	46	40
182.399	182.494	54	34
182.399	182.494	58	28
182.497	182.587	62	25
182.588	182.672	50	36
182.588	182.675	53	34
182.591	182.676	58	28
182.679	182.763	62	24
182.763	182.96	48	40
182.764	182.96	54	34
182.764	182.959	58	28
182.865	182.96	47	35
182.865	182.96	62	28
182.955	183.05	46	35
182.959	183.053	58	28
182.96	183.054	55	34
183.057	183.145	62	25
183.117	183.288	54	28
183.131	183.291	57	28
183.145	183.292	63	34
183.425	183.82	78	39
183.425	183.897	87	42
183.426	183.739	81	46
183.509	183.897	84	42
183.581	183.897	80	41
183.582	183.897	71	37
183.582	183.894	74	44
183.663	183.897	77	41
183.739	183.897	81	40
183.74	183.897	72	36
183.74	183.897	75	43
183.82	183.897	78	39
183.894	184.6	74	39
183.896	184.212	68	43
183.897	184.297	65	36
183.977	184.6	71	37
184.058	184.376	69	42
184.058	184.6	75	37
184.059	184.538	66	35
184.139	184.6	72	36
184.212	184.6	68	36
184.215	184.6	62	41
184.216	184.6	59	34
184.297	184.6	65	35
184.376	184.6	69	34
184.377	184.537	60	33
184.377	184.6	63	40
184.461	184.6	78	34
184.537	184.684	60	41
184.538	184.685	57	48
184.538	184.684	66	41
184.541	184.685	51	40
184.828	185.133	84	50
184.828	185.291	90	46
184.829	185.207	81	42
184.906	185.291	87	46
184.983	185.29	77	48
184.983	185.291	83	44
184.985	185.291	74	40
185.056	185.291	80	44
185.133	185.291	84	43
185.135	185.291	75	39
185.136	185.291	78	47
185.207	185.291	81	42
185.29	186.0	77	42
185.291	185.671	68	39
185.291	186.0	70	47
185.364	186.0	74	41
185.442	185.749	72	46
185.442	186.0	78	41
185.444	185.941	69	39
185.513	186.0	75	40
185.592	186.0	71	40
185.594	186.0	62	37
185.595	186.0	65	44
185.671	186.0	68	39
185.749	186.0	72	37
185.75	185.942	63	36
185.75	186.0	66	43
185.821	186.0	81	37
185.941	186.08	69	41
185.942	186.084	60	48
185.942	186.081	63	41
185.944	186.085	46	40
185.944	186.085	54	40
186.228	186.687	93	46
186.229	186.606	84	42
186.229	186.533	87	50
186.302	186.684	90	46
186.382	186.687	77	40
186.382	186.687	86	44
186.383	186.687	80	48
186.455	186.687	83	44
186.533	186.687	81	47
186.533	186.687	87	43
186.534	186.687	78	39
186.606	186.687	84	42
186.683	187.222	96	42
186.684	186.991	90	47
186.687	187.061	87	39
186.753	187.142	93	41
186.841	187.306	83	46
186.841	187.331	89	41
186.842	187.331	80	39
186.914	187.306	86	40
186.991	187.142	90	40
186.992	187.331	81	37
186.992	187.331	84	44
187.061	187.331	87	39
187.141	187.331	99	37
187.142	187.331	90	36
187.142	187.331	93	43
187.222	187.331	96	37
187.303	187.624	92	46
187.306	187.614	83	44
187.306	187.624	86	44
187.376	187.624	89	40
187.456	187.624	93	47
187.457	187.624	84	39
187.457	187.624	87	39
187.534	187.624	90	40
187.611	187.925	100	43
187.614	187.925	80	44
187.614	187.926	83	44
187.691	187.846	87	35
187.768	188.087	101	40
187.769	188.09	81	37
187.771	188.089	84	37
187.846	188.006	87	31
187.925	188.251	80	44
187.925	188.251	100	50
187.926	188.252	83	44
188.006	188.168	87	31
188.087	188.412	101	47
188.089	188.416	84	36
188.09	188.416	81	36
188.168	188.332	87	33
188.251	188.64	80	44
188.251	188.64	100	42
188.252	188.64	83	44
188.332	188.493	87	33
188.412	188.576	101	42
188.416	188.64	81	39
188.416	188.64	84	39
188.493	188.64	87	33
188.576	189.097	82	44
188.576	189.983	101	48
188.577	189.013	86	44
188.86	189.017	90	32
188.86	189.944	98	39
188.94	189.096	89	29
188.94	189.867	94	35
189.013	189.171	86	28
189.017	189.787	90	34
189.096	189.712	89	33
189.097	189.252	82	27
189.171	189.328	78	26
189.171	189.637	86	32
189.252	189.556	82	32
189.255	189.402	77	26
189.328	189.479	78	31
189.329	189.482	74	25
189.402	189.555	77	32
189.404	189.983	70	26
189.479	189.637	78	33
189.482	189.983	74	27
189.555	189.983	77	28
189.556	189.71	82	34
189.637	189.983	78	29
189.637	189.787	86	35
189.71	189.942	82	31
189.712	189.87	89	36
189.787	189.983	86	32
189.787	189.983	90	37
189.867	189.983	94	39
189.87	189.983	89	32
189.942	190.091	82	33
189.944	190.094	98	40
190.242	190.403	78	31
190.242	191.33	86	36
190.322	190.479	77	27
190.322	191.25	82	33
190.402	190.558	74	26
190.403	191.169	78	32
190.477	190.635	70	25
190.479	191.093	77	32
190.558	191.018	74	31
190.56	190.711	66	25
190.635	190.785	65	25
190.635	190.943	70	29
190.71	190.861	62	24
190.711	190.862	66	28
190.785	190.943	65	29
190.787	191.354	58	25
190.861	191.354	62	25
190.862	191.015	66	32
190.943	191.354	65	26
190.943	191.095	70	32
191.015	191.354	66	27
191.018	191.17	74	33
191.093	191.25	77	34
191.095	191.333	70	28
191.169	191.354	78	35
191.17	191.354	74	29
191.25	191.354	77	31
191.25	191.354	82	36
191.33	191.431	86	37
191.333	191.432	70	32
191.544	191.703	66	33
191.544	192.323	74	33
191.624	192.241	70	32
191.628	191.786	65	32
191.702	191.86	62	31
191.703	192.168	66	31
191.785	191.94	58	29
191.786	192.093	65	29
191.859	192.017	54	27
191.86	192.016	62	27
191.939	194.529	53	26
191.94	192.09	58	26
192.016	192.167	62	25
192.017	194.529	54	25
192.09	194.529	58	24
192.093	192.244	65	24
192.167	194.529	62	24
192.168	192.324	66	24
192.241	192.398	70	25
192.244	194.529	65	25
192.323	192.474	74	25
192.324	194.529	66	25
192.398	194.529	70	27
192.401	192.556	77	27
192.474	194.529	74	29
192.475	192.632	78	29
192.556	194.529	77	31
192.556	192.713	82	31
192.629	192.787	86	32
192.632	194.529	78	32
192.713	193.183	82	33
192.713	192.87	89	33
192.787	193.102	86	34
192.789	192.944	90	34
192.868	193.027	94	36
192.87	193.028	89	36
192.944	193.101	90	32
192.945	193.266	98	39
193.027	193.34	94	32
193.028	193.183	89	25
193.101	193.262	90	29
193.102	193.42	86	25
193.183	193.497	82	25
193.183	193.339	89	29
193.262	193.423	90	31
193.266	193.577	98	36
193.339	193.498	89	24
193.34	193.658	94	29
193.42	193.735	86	24
193.423	193.577	90	27
193.497	193.815	82	24
193.498	193.661	89	27
193.577	193.734	90	28
193.577	193.896	98	35
193.658	193.972	94	27
193.661	193.815	89	23
193.734	193.897	90	27
193.735	194.054	86	23
193.815	194.13	82	23
193.815	193.973	89	26
193.896	194.211	98	33
193.897	194.053	90	27
193.972	194.292	94	26
193.973	194.128	89	21
194.053	194.211	90	25
194.054	194.365	86	20
194.128	194.291	89	25
194.13	194.45	82	20
194.211	194.368	90	25
194.211	194.529	98	32
194.291	194.449	89	20
194.292	194.529	94	25
194.365	194.529	86	20
194.368	194.529	90	25
194.449	194.529	89	25
194.45	194.529	82	20
194.529	194.847	65	23
194.564	194.847	70	25
194.602	194.847	77	27
194.641	194.847	86	36
194.683	194.847	94	43
194.725	194.847	101	48
195.327	195.562	46	27
195.379	195.562	53	32
195.425	195.562	62	36
