OnsetTime	OffsetTime	MidiPitch	Velocity
0.519987	0.595987	39	45
0.67699	0.748981	46	41
0.826979	0.90699	39	41
0.984975	1.06499	34	41
1.13798	1.21497	39	45
1.29297	1.36597	46	41
1.44598	1.52297	39	41
1.60096	1.68095	63	45
1.60196	1.68095	34	41
1.68196	1.75395	65	45
1.75795	1.83094	66	49
1.75895	1.83195	39	45
1.75895	1.83195	70	49
1.83494	1.91196	65	45
1.91596	1.98895	63	45
1.91695	1.98895	46	42
1.98995	2.06996	65	45
2.06996	2.14594	66	47
2.07195	2.14695	70	47
2.07295	2.14695	39	42
2.14795	2.21995	65	45
2.22095	2.29794	34	42
2.22095	2.29694	63	45
2.29794	2.37793	65	45
2.37793	2.45092	70	49
2.37993	2.45193	66	49
2.38093	2.45393	39	45
2.53493	2.60893	66	45
2.53594	2.61192	46	42
2.53594	2.61192	63	45
2.68193	2.76594	66	46
2.68593	2.76693	63	46
2.68892	2.76693	39	42
2.84293	2.92393	66	45
2.84392	2.92492	34	42
2.84392	2.92393	70	45
2.99693	3.08193	65	50
2.99693	3.08193	69	50
3.00092	3.08193	39	45
3.15393	3.23192	60	45
3.15793	3.23292	65	45
3.15892	3.23292	46	42
3.31191	3.38991	60	46
3.31191	3.38991	65	46
3.31292	3.38991	39	42
3.4689	3.54289	65	45
3.4699	3.5469	34	42
3.4699	3.54289	69	45
3.62689	4.08487	65	54
3.62689	4.08187	69	54
3.62789	3.70089	39	45
3.77388	3.85088	46	41
3.92487	4.00887	39	41
4.08587	4.15886	68	46
4.08887	4.15987	34	41
4.16187	4.23986	70	49
4.23986	4.31686	71	54
4.24286	4.31785	39	49
4.24286	4.31686	75	54
4.31985	4.39684	70	51
4.39785	4.47385	68	51
4.39984	4.47484	46	45
4.47484	4.54784	70	51
4.54784	4.62783	75	54
4.54884	4.63183	71	54
4.55084	4.63183	39	45
4.63483	4.70483	70	50
4.70583	4.77782	68	50
4.70783	4.77881	34	45
4.78182	4.86282	70	50
4.86383	4.93582	71	54
4.86383	4.93981	75	54
4.86583	4.93981	39	49
5.01581	5.09281	71	50
5.01682	5.09381	68	50
5.02082	5.09381	46	45
5.17081	5.2478	68	50
5.1718	5.2548	39	45
5.1718	5.2508	71	50
5.33079	5.40778	75	50
5.33179	5.40879	34	45
5.33179	5.40879	71	50
5.4888	5.56579	70	54
5.48979	5.56579	74	54
5.49279	5.56678	39	49
5.63978	5.72378	46	45
5.63978	5.72378	65	50
5.63978	5.71979	70	50
5.79678	5.87777	70	50
5.79779	5.87878	39	45
5.79779	5.87777	65	50
5.95777	6.03577	70	50
5.95777	6.03076	74	50
5.96077	6.03577	34	45
6.10776	6.33876	70	58
6.10876	6.34375	74	58
6.11175	6.18575	39	49
6.26577	6.34375	46	45
6.41575	6.49374	39	45
6.56674	6.64675	78	74
6.65175	6.73074	80	74
6.73173	6.80874	82	86
6.73173	6.80973	85	86
6.73474	7.1937	66	67
6.73574	7.19671	73	67
6.80973	6.88172	80	73
6.88172	6.95472	78	73
6.95972	7.03172	80	73
7.03272	7.17571	85	79
7.03671	7.17971	82	79
7.19671	7.2707	73	73
7.2707	7.35071	75	73
7.3517	7.4277	77	85
7.35371	7.4277	80	85
7.3547	7.81669	61	67
7.3547	7.81669	68	67
7.4287	7.5017	75	73
7.50469	7.57769	73	71
7.57869	7.65868	75	71
7.65968	7.80569	77	80
7.66168	7.80569	80	80
7.81968	7.89667	71	73
7.89667	7.97369	73	73
7.97468	8.04669	78	86
7.97569	8.05167	75	86
7.97668	8.43565	66	67
7.97769	8.43964	59	67
8.05167	8.12467	73	71
8.12568	8.20467	71	71
8.20467	8.27766	73	71
8.27866	8.42566	78	80
8.28267	8.42666	75	80
8.43964	8.51666	66	74
8.51666	8.59265	68	74
8.59366	8.66964	73	89
8.59765	9.05163	54	67
8.59765	9.05163	61	67
8.59765	8.67065	70	89
8.67065	8.74364	68	71
8.74764	8.82765	66	71
8.82765	8.90164	68	71
8.90164	9.04164	73	79
8.90265	9.04263	70	79
9.05563	9.13562	53	69
9.05663	9.13562	41	67
9.13663	9.20963	42	67
9.13663	9.20963	54	69
9.21062	9.28961	56	79
9.21362	9.29261	44	79
9.29361	9.3666	42	67
9.29361	9.36361	54	67
9.36761	9.4406	53	67
9.37061	9.4406	41	67
9.52461	9.5986	42	70
9.52461	9.59761	54	73
9.6006	9.6706	53	63
9.6016	9.6746	41	64
9.6776	9.75559	51	63
9.6786	9.75559	39	64
9.82859	9.9136	41	69
9.82859	9.90959	53	69
9.9136	9.98559	51	61
9.9156	9.98659	39	60
9.98959	10.0636	49	61
9.99059	10.0636	37	60
10.1436	10.2166	51	66
10.1476	10.2216	39	67
10.2216	10.2936	49	59
10.2236	10.2946	37	59
10.2976	10.3716	48	59
10.2986	10.3716	36	59
11.0606	11.1376	39	45
11.0606	11.1376	51	45
11.1386	11.2116	37	41
11.1386	11.2106	49	40
11.2146	11.2915	47	40
11.2156	11.2945	35	41
11.6765	12.4955	34	67
11.6765	12.4955	46	73
11.6776	12.4955	41	67
11.7605	12.4955	53	67
11.8345	11.9105	58	67
11.9105	12.3065	58	67
11.9895	12.3045	65	72
12.0655	12.1425	70	74
12.1425	12.3035	70	78
12.2235	12.3005	77	81
12.3005	12.4955	77	85
12.3035	12.4955	70	85
12.3045	12.4955	65	81
12.3045	12.4955	82	85
12.3065	12.4955	58	81
12.7725	12.8485	32	61
12.8495	12.9295	34	61
12.9335	13.7105	47	45
12.9345	13.0065	35	68
12.9345	13.7105	50	45
12.9345	13.7105	53	45
13.0065	13.0875	34	61
13.0875	13.1635	32	61
13.1645	13.2375	34	61
13.2385	13.3185	35	64
13.3185	13.3955	34	61
13.3955	13.4685	32	61
13.4695	13.5485	34	61
13.5535	13.6265	35	73
13.7115	13.7845	32	67
13.8565	13.9415	32	67
14.0185	14.0925	50	42
14.0185	14.0925	53	42
14.0195	14.0925	59	51
14.1645	14.2425	50	46
14.1685	14.2435	53	46
14.1695	14.2455	59	55
14.3225	14.4005	50	42
14.3225	14.4005	53	42
14.3235	14.4005	58	51
14.3265	14.4025	46	52
14.4725	14.5505	50	42
14.4735	14.5514	53	42
14.4765	14.5534	58	51
14.4775	14.5534	46	52
14.6304	14.7084	50	46
14.6304	14.7084	53	46
14.6314	14.7084	57	55
14.6345	14.7104	47	54
14.7874	14.8614	50	49
14.7884	14.8644	53	49
14.7914	14.8654	57	59
14.7924	14.8654	47	56
14.9454	15.0194	50	48
14.9454	15.0224	53	48
14.9464	15.0224	56	57
15.0994	15.1834	50	46
15.1034	15.1844	53	46
15.1034	15.1844	56	55
15.2644	15.3374	35	61
15.3414	15.4214	37	61
15.4224	16.1914	50	46
15.4234	16.1924	53	46
15.4234	16.1954	56	46
15.4254	15.4944	38	68
15.4954	15.5724	37	61
15.5734	15.6524	35	61
15.6524	15.7294	37	61
15.7304	15.8024	38	64
15.8034	15.8804	37	61
15.8804	15.9604	35	61
15.9604	16.0374	37	61
16.0384	16.1174	38	73
16.1964	16.2684	35	67
16.3494	16.4254	35	67
16.4994	16.5764	53	35
16.5034	16.5764	56	35
16.5034	16.5774	62	59
16.6504	16.7274	53	36
16.6504	16.7274	56	36
16.6544	16.7274	62	60
16.8034	16.8814	53	35
16.8044	16.8844	56	35
16.8044	16.8884	61	59
16.8054	16.8884	49	54
16.9584	17.0354	53	35
16.9584	17.0354	56	35
16.9614	17.0364	49	54
16.9614	17.0364	61	59
17.1084	17.1854	53	37
17.1094	17.1863	56	37
17.1114	17.1863	60	63
17.1124	17.1893	50	56
17.2663	17.3433	53	41
17.2663	17.3433	56	41
17.2693	17.3443	50	61
17.2693	17.3443	60	70
17.4233	17.4973	53	39
17.4243	17.5003	56	39
17.4263	17.5013	59	67
17.5813	17.6553	53	38
17.5813	17.6553	56	38
17.5823	17.6583	59	64
17.7313	17.8053	56	35
17.7323	17.8083	59	35
17.7323	17.8093	65	60
17.8893	17.9633	56	37
17.8893	17.9633	59	37
17.8903	17.9633	65	64
18.0393	18.1203	56	35
18.0403	18.1213	59	35
18.0403	18.1233	64	60
18.0413	18.1243	52	58
18.1933	18.2713	56	35
18.1933	18.2713	59	35
18.1973	18.2723	64	60
18.2003	18.2743	52	58
18.3483	18.4273	56	39
18.3483	18.4283	60	39
18.3493	18.4323	53	63
18.3493	18.4313	63	66
18.5013	18.5783	56	44
18.5023	18.5783	59	44
18.5053	18.5793	63	73
18.5063	18.5823	53	67
18.6553	18.7283	56	40
18.6563	18.7292	59	40
18.6563	18.7323	62	70
18.8022	18.8862	56	39
18.8062	18.8862	59	39
18.8072	18.8872	62	67
18.9632	19.0362	59	47
18.9642	19.0372	62	47
18.9642	19.0372	68	66
19.1172	19.1942	59	49
19.1182	19.1952	62	49
19.1212	19.1952	68	70
19.2682	19.3442	59	47
19.2682	19.3452	62	47
19.2722	19.3482	55	63
19.2722	19.3452	67	66
19.4252	19.4992	59	47
19.4262	19.5022	62	47
19.4292	19.5022	67	66
19.4302	19.5062	55	63
19.5762	19.6522	59	51
19.5762	19.6532	62	51
19.5802	19.6542	56	68
19.5802	19.6532	66	72
19.7262	19.8072	59	54
19.7272	19.8102	62	54
19.7302	19.8112	56	69
19.7302	19.8102	66	76
19.8842	19.9612	59	51
19.8842	19.9612	62	51
19.8852	19.9612	65	72
20.0342	20.1152	59	49
20.0352	20.1182	62	49
20.0372	20.1182	65	69
20.1922	20.2692	62	53
20.1922	20.2692	65	53
20.1932	20.2692	71	75
20.3422	20.4191	62	58
20.3431	20.4201	65	58
20.3431	20.4201	71	81
20.4931	20.5771	62	56
20.4961	20.5771	65	56
20.4961	20.5771	70	79
20.4971	20.5781	58	70
20.6501	20.7271	62	54
20.6511	20.7281	65	54
20.6511	20.7281	70	76
20.6531	20.7281	58	76
20.8041	20.8751	65	55
20.8081	20.8781	68	55
20.8111	20.8781	74	78
20.9581	21.0351	65	60
20.9591	21.0361	68	60
20.9591	21.0361	74	86
21.1091	21.1821	65	58
21.1101	21.1861	68	58
21.1121	21.1901	61	74
21.1121	21.1861	73	81
21.2601	21.3391	65	56
21.2601	21.3401	68	56
21.2631	21.3441	61	78
21.2631	21.3431	73	79
21.4171	21.4901	68	57
21.4181	21.4941	71	57
21.4181	21.4941	77	80
21.5681	21.6441	68	62
21.5681	21.6451	71	86
21.5711	21.6451	77	86
21.7181	21.7981	68	60
21.7191	21.8021	71	60
21.7191	21.8021	76	86
21.7211	21.8051	64	76
21.8761	21.9481	68	58
21.8761	21.9531	71	58
21.8791	21.9531	64	82
21.8791	21.9531	76	81
22.0331	22.1061	71	71
22.0341	22.1101	74	71
22.0341	22.1111	80	85
22.1871	22.263	71	79
22.1911	22.2641	74	79
22.1911	22.2641	80	94
22.3441	22.4211	71	75
22.3491	22.4251	67	80
22.3491	22.4211	74	75
22.3491	22.422	79	89
22.502	22.582	71	72
22.502	22.586	74	72
22.5031	22.586	79	86
22.506	22.587	67	85
22.663	22.747	72	47
22.747	22.821	74	45
22.824	22.904	79	49
22.825	22.905	67	45
22.825	22.905	76	49
22.828	22.907	60	45
22.908	22.978	74	45
22.979	23.055	72	45
22.981	23.056	60	41
22.981	23.055	67	41
23.056	23.136	74	45
23.136	23.208	76	47
23.139	23.213	60	41
23.139	23.213	67	41
23.139	23.212	79	47
23.216	23.285	74	45
23.286	23.363	72	45
23.289	23.364	60	41
23.289	23.364	67	41
23.364	23.443	74	45
23.443	23.517	79	49
23.447	23.521	60	45
23.447	23.521	67	45
23.447	23.521	76	49
23.6	23.674	76	45
23.601	23.678	60	41
23.601	23.678	67	41
23.601	23.675	72	45
23.751	23.832	72	46
23.751	23.832	76	46
23.752	23.832	67	41
23.755	23.836	60	41
23.912	23.989	79	45
23.916	23.993	60	41
23.916	23.99	67	41
23.916	23.99	76	45
24.07	24.147	77	50
24.07	24.147	81	50
24.071	24.148	67	45
24.073	24.148	60	45
24.22	24.301	71	45
24.221	24.3039	74	45
24.223	24.3039	67	40
24.224	24.3049	60	40
24.3739	24.4589	71	46
24.3779	24.4589	74	46
24.3809	24.4619	60	40
24.3809	24.4599	67	40
24.5349	24.6119	77	51
24.5359	24.6189	67	40
24.5359	24.6159	81	51
24.5379	24.6199	60	40
24.6889	25.1519	77	55
24.6889	25.1519	81	55
24.6929	24.7669	60	45
24.6929	24.7669	67	45
24.8429	24.9239	67	40
24.8439	24.9249	60	40
24.9969	25.0749	60	40
24.9969	25.0749	67	40
25.1519	25.2239	72	45
25.1529	25.2279	60	40
25.1539	25.2289	67	40
25.2289	25.3049	74	45
25.3059	25.3819	79	49
25.3089	25.3819	76	49
25.3099	25.3829	60	45
25.3099	25.3829	67	45
25.4629	25.5359	76	45
25.4669	25.5429	60	41
25.4669	25.5398	67	41
25.4669	25.5398	72	45
25.6128	25.6938	76	46
25.6139	25.6938	72	46
25.6169	25.6968	60	41
25.6178	25.6968	67	41
25.7748	25.8508	79	45
25.7778	25.8538	67	41
25.7778	25.8518	76	45
25.7818	25.8548	60	41
25.9318	26.0088	77	50
25.9328	26.0088	81	50
25.9348	26.0098	60	45
25.9348	26.0118	67	45
26.0828	26.1658	71	45
26.0858	26.1668	67	40
26.0858	26.1668	74	45
26.0888	26.1668	60	40
26.2398	26.3198	71	46
26.2408	26.3238	74	46
26.2428	26.3268	60	40
26.2428	26.3248	67	40
26.3978	26.4808	77	51
26.3978	26.4818	81	51
26.4008	26.4818	60	40
26.4008	26.4828	67	40
26.5548	26.6278	76	55
26.5558	26.6318	67	45
26.5558	26.6318	79	55
26.5578	26.6328	60	45
26.7058	26.7848	72	50
26.7058	26.7858	76	50
26.7088	26.7898	60	40
26.7088	26.7858	67	40
26.8628	26.9358	77	58
26.8638	26.9398	60	41
26.8638	26.9398	67	41
26.8638	26.9358	81	58
27.0128	27.0858	71	52
27.0128	27.0898	74	52
27.0168	27.0908	60	42
27.0168	27.0908	67	42
27.1627	27.2368	76	60
27.1638	27.2407	67	47
27.1638	27.2377	79	60
27.1667	27.2407	60	47
27.3137	27.3917	72	54
27.3137	27.3917	76	54
27.3147	27.3927	67	43
27.3177	27.3947	60	43
27.4637	27.5417	77	63
27.4677	27.5427	81	63
27.4687	27.5427	60	45
27.4687	27.5447	67	45
27.6147	27.6927	71	56
27.6147	27.6927	74	56
27.6187	27.6957	60	45
27.6187	27.6937	67	45
27.7717	27.8497	76	64
27.7757	27.8507	79	64
27.7767	27.8527	60	51
27.7767	27.8507	67	51
27.9227	28.0007	72	59
27.9227	28.0007	76	59
27.9267	28.0017	60	46
27.9267	28.0007	67	46
28.0777	28.1537	71	63
28.0777	28.1517	81	78
28.0777	28.1507	85	78
28.0787	28.1547	64	63
28.2207	28.2937	75	72
28.2217	28.2977	71	58
28.2217	28.2977	78	72
28.2237	28.3007	64	58
28.3717	28.4477	80	79
28.3717	28.4437	83	79
28.3737	28.4487	64	63
28.3747	28.4487	71	63
28.5217	28.5987	76	73
28.5227	28.5996	64	58
28.5227	28.5996	80	73
28.5247	28.6017	71	58
28.6726	28.7486	85	79
28.6756	28.7497	64	63
28.6756	28.7497	81	79
28.6767	28.7516	71	63
28.8226	28.8996	75	72
28.8236	28.9006	78	72
28.8256	28.9006	64	58
28.8266	28.9026	71	58
28.9736	29.0436	80	79
28.9736	29.0426	83	79
28.9766	29.0456	64	63
28.9766	29.0466	71	63
29.1196	29.1936	76	76
29.1206	29.1966	64	59
29.1206	29.1946	80	76
29.1236	29.1966	71	59
29.2706	29.3406	80	82
29.2706	29.3406	83	82
29.2736	29.3446	64	64
29.2736	29.3446	71	64
29.4136	29.4906	76	79
29.4176	29.4946	64	61
29.4176	29.4916	80	79
29.4206	29.4956	71	61
29.5646	29.6346	83	87
29.5676	29.6386	64	68
29.5676	29.6386	80	87
29.5716	29.6416	71	68
29.7116	29.7826	64	64
29.7116	29.7816	76	83
29.7116	29.7826	80	83
29.7156	29.7846	71	64
29.8586	29.9246	80	90
29.8586	29.9246	83	90
29.8596	29.9286	64	72
29.8596	29.9286	71	72
30.0026	30.0786	76	87
30.0026	30.0796	80	87
30.0036	30.0796	64	67
30.0056	30.0816	71	67
30.1596	30.7396	58	79
30.7406	30.8176	80	87
30.7406	30.8136	83	87
30.7416	30.8185	64	68
30.7436	30.8185	71	68
30.8836	30.9605	76	83
30.8836	30.9616	80	83
30.8875	30.9616	64	64
30.8875	30.9645	71	64
31.0305	31.1045	80	90
31.0315	31.1075	64	72
31.0315	31.1075	83	90
31.0335	31.1085	71	72
31.1745	31.2555	76	87
31.1755	31.2555	80	87
31.1775	31.2585	64	67
31.1775	31.2585	71	67
31.3325	31.9165	58	76
31.9165	31.9865	83	85
31.9205	31.9905	64	64
31.9205	31.9865	80	85
31.9235	31.9905	71	64
32.0635	32.1335	76	79
32.0645	32.1345	64	61
32.0645	32.1345	80	79
32.0665	32.1365	71	61
32.2075	32.2775	80	85
32.2075	32.2775	83	85
32.2105	32.2805	64	64
32.2105	32.2805	71	64
32.3535	32.4305	76	81
32.3545	32.4315	64	59
32.3545	32.4315	80	81
32.3555	32.4315	71	59
32.5045	37.6634	58	72
32.6545	32.7245	57	45
32.7985	32.8685	56	45
32.9445	33.0155	55	45
33.0925	33.1655	54	45
33.2365	33.3085	53	45
33.3795	33.4564	52	45
33.5305	33.6004	51	45
33.8204	33.8975	50	45
33.9664	34.0444	49	45
34.1174	34.1884	48	45
34.2604	34.3314	47	45
34.4084	34.4824	46	45
34.5524	34.6284	45	45
34.7024	34.7724	44	45
35.1434	35.2974	43	41
35.7484	35.8984	42	40
36.3644	36.5224	41	37
37.0084	37.1704	40	36
37.8204	37.8974	63	45
37.8984	37.9784	65	45
37.9794	38.0524	70	49
37.9814	38.0554	66	49
37.9824	38.0554	39	45
38.0564	38.1294	65	45
38.1294	38.2094	63	45
38.1324	38.2104	46	42
38.2124	38.2864	65	45
38.2874	38.3604	66	47
38.2874	38.3634	70	47
38.2894	38.3634	39	42
38.3644	38.4334	65	45
38.4374	38.5174	63	45
38.4404	38.5184	34	42
38.5204	38.5944	65	45
38.5954	38.6714	66	49
38.5954	38.6674	70	49
38.5974	38.6714	39	45
38.7484	38.8254	63	45
38.7484	38.8244	66	45
38.7524	38.8254	46	42
38.9054	38.9824	66	46
38.9094	38.9834	39	42
38.9094	38.9824	63	46
39.0634	39.1404	66	45
39.0634	39.1394	70	45
39.0644	39.1404	34	42
39.2204	39.2944	65	50
39.2214	39.2974	39	45
39.2214	39.2944	69	50
39.3714	39.4524	60	45
39.3714	39.4524	65	45
39.3724	39.4544	46	42
39.5254	39.6094	60	46
39.5284	39.6104	65	46
39.5324	39.6104	39	42
39.6864	39.7634	65	45
39.6864	39.7674	69	45
39.6874	39.7674	34	42
39.8404	40.3023	65	54
39.8414	40.3023	69	54
39.8434	39.9244	39	45
39.9944	40.0704	46	41
40.1483	40.2253	39	41
40.3023	40.3783	68	46
40.3033	40.3833	34	41
40.3833	40.4553	70	49
40.4563	40.5403	71	54
40.4593	40.5413	75	54
40.4603	40.5413	39	49
40.5413	40.6133	70	51
40.6133	40.6873	68	51
40.6143	40.6913	46	45
40.6913	40.7673	70	51
40.7713	40.8443	71	54
40.7713	40.8453	75	54
40.7753	40.8453	39	45
40.8483	40.9213	70	50
40.9223	41.0023	34	45
40.9223	41.0023	68	50
41.0063	41.0753	70	50
41.0783	41.1523	71	54
41.0793	41.1533	39	49
41.0793	41.1533	75	54
41.2333	41.3103	68	50
41.2363	41.3103	71	50
41.2373	41.3143	46	45
41.3903	41.4673	71	50
41.3913	41.4683	39	45
41.3913	41.4683	68	50
41.5483	41.6293	71	50
41.5483	41.6293	75	50
41.5513	41.6303	34	45
41.7053	41.7793	70	54
41.7063	41.7833	39	49
41.7063	41.7823	74	54
41.8593	41.9373	65	50
41.8633	41.9383	46	45
41.8633	41.9373	70	50
42.0173	42.0943	65	50
42.0173	42.0953	70	50
42.0213	42.0973	39	45
42.1743	42.2522	70	50
42.1753	42.2533	34	45
42.1753	42.2522	74	50
42.3322	42.4052	39	49
42.3322	42.5592	70	58
42.3322	42.5602	74	58
42.4822	42.5602	46	45
42.6332	42.7102	39	45
42.7832	42.8672	83	78
42.8672	42.9482	85	78
42.9482	43.0212	87	90
42.9492	43.0222	90	90
42.9522	43.4112	71	70
42.9522	43.4102	78	70
43.0252	43.0952	85	77
43.0982	43.1722	83	77
43.1732	43.2492	85	77
43.2492	43.3922	90	81
43.2502	43.3932	87	81
43.4112	43.4872	78	77
43.4882	43.5682	80	77
43.5712	43.6452	82	90
43.5712	43.6412	85	90
43.5722	44.0332	66	70
43.5722	44.0342	73	70
43.6452	43.7182	80	77
43.7192	43.7952	78	74
43.7962	43.8762	80	74
43.8762	44.0152	85	83
43.8792	44.0162	82	83
44.0342	44.1102	76	77
44.1112	44.1872	78	77
44.1912	44.2642	80	90
44.1922	44.6531	64	70
44.1922	44.2642	83	90
44.1942	44.6531	71	70
44.2682	44.3382	78	74
44.3382	44.4212	76	74
44.4222	44.4952	78	74
44.4982	44.6412	83	83
44.4992	44.6422	80	83
44.6562	44.7331	71	78
44.7371	44.8101	73	78
44.8111	44.8871	78	91
44.8131	44.8871	75	91
44.8141	45.2691	59	70
44.8141	45.2691	66	70
44.8881	44.9601	73	74
44.9611	45.0411	71	74
45.0451	45.1181	73	74
45.1191	45.2551	78	81
45.1211	45.2581	75	81
45.2691	45.3501	58	72
45.2721	45.3531	46	70
45.3531	45.4271	47	70
45.3531	45.4221	59	72
45.4291	45.5071	61	81
45.4301	45.5081	49	81
45.5081	45.5841	59	70
45.5101	45.5841	47	70
45.5841	45.6571	58	70
45.5851	45.6581	46	70
45.7371	45.8151	59	77
45.7381	45.8161	47	73
45.8161	45.8921	58	65
45.8181	45.8921	46	67
45.8931	45.9731	44	67
45.8931	45.968	56	65
46.0451	46.1301	58	72
46.046	46.1301	46	72
46.1311	46.207	44	63
46.1311	46.2031	56	64
46.207	46.276	54	64
46.2081	46.28	42	63
46.3601	46.437	56	69
46.361	46.438	44	70
46.438	46.511	42	63
46.438	46.511	54	63
46.512	46.585	53	63
46.515	46.588	41	63
47.277	47.351	56	45
47.278	47.355	44	45
47.355	47.435	42	41
47.355	47.435	54	42
47.436	47.512	40	41
47.436	47.509	52	42
47.908	48.727	39	77
47.908	48.727	51	78
47.912	48.727	46	77
47.985	48.727	58	73
48.068	48.142	63	73
48.142	48.539	63	73
48.216	48.538	70	76
48.3	48.376	75	81
48.376	48.535	75	85
48.45	48.538	82	87
48.535	48.727	75	92
48.538	48.727	70	92
48.538	48.727	82	92
48.538	48.727	87	92
48.539	48.727	63	92
49.006	49.087	32	61
49.091	49.171	34	61
49.171	49.941	47	45
49.172	49.942	50	45
49.172	49.944	53	45
49.175	49.244	35	68
49.245	49.321	34	61
49.322	49.402	32	61
49.402	49.479	34	61
49.479	49.559	35	64
49.56	49.633	34	61
49.636	49.71	32	61
49.71	49.791	34	61
49.791	49.867	35	73
49.945	50.022	32	67
50.099	50.179	32	67
50.252	50.329	50	36
50.257	50.33	53	36
50.257	50.333	59	51
50.407	50.4829	50	38
50.407	50.484	53	38
50.408	50.484	59	55
50.557	50.6369	50	36
50.558	50.6379	53	36
50.56	50.6409	46	52
50.56	50.6409	58	51
50.7149	50.7909	50	36
50.7149	50.7919	53	36
50.7159	50.7929	46	52
50.7159	50.7919	58	51
50.8679	50.9449	50	38
50.8729	50.9459	53	38
50.8729	50.9489	57	55
50.8749	50.9489	47	54
51.0229	51.1029	50	41
51.0229	51.1029	53	41
51.0239	51.1069	47	56
51.0239	51.1039	57	59
51.1829	51.2599	50	40
51.1839	51.2609	53	40
51.1869	51.2609	56	57
51.3409	51.4219	50	38
51.3419	51.4219	53	38
51.3419	51.4249	56	55
51.5019	51.5789	35	61
51.5799	51.6599	37	61
51.6599	52.4319	50	46
51.6629	52.4329	53	46
51.6639	51.7369	38	68
51.6639	52.4329	56	46
51.7369	51.8099	37	61
51.8109	51.8869	35	61
51.8879	51.9679	37	61
51.9679	52.0449	38	64
52.0449	52.1169	37	61
52.1179	52.1979	35	61
52.2019	52.2749	37	61
52.2759	52.3559	38	73
52.4359	52.5059	35	67
52.5829	52.6639	35	67
52.7409	52.8139	53	49
52.7409	52.8149	56	49
52.7409	52.8179	62	59
52.8909	52.9649	53	50
52.8919	52.9689	56	50
52.8919	52.9689	62	60
53.0419	53.1189	53	49
53.0419	53.1199	56	49
53.0429	53.1199	61	59
53.0459	53.1208	49	54
53.1988	53.2728	53	49
53.1998	53.2768	56	49
53.1998	53.2768	61	59
53.2028	53.2778	49	54
53.3498	53.4228	53	53
53.3498	53.4238	56	53
53.3508	53.4278	60	63
53.3538	53.4278	50	56
53.5068	53.5808	53	59
53.5078	53.5818	56	59
53.5078	53.5848	60	70
53.5108	53.5848	50	61
53.6618	53.7378	53	56
53.6618	53.7388	56	56
53.6648	53.7388	59	67
53.8188	53.8918	53	55
53.8198	53.8958	56	55
53.8218	53.8968	59	64
53.9698	54.0458	56	51
53.9698	54.0468	59	51
53.9728	54.0468	65	60
54.1228	54.1998	56	53
54.1238	54.2038	59	53
54.1238	54.2048	65	64
54.2778	54.3538	56	51
54.2778	54.3548	59	51
54.2808	54.3558	52	58
54.2808	54.3548	64	60
54.4348	54.5078	56	51
54.4358	54.5118	59	51
54.4358	54.5128	64	60
54.4378	54.5148	52	58
54.5858	54.6628	56	55
54.5858	54.6628	60	55
54.5888	54.6638	53	63
54.5888	54.6638	63	66
54.7427	54.8157	56	61
54.7437	54.8197	59	61
54.7437	54.8207	63	73
54.7467	54.8227	53	67
54.8937	54.9667	56	58
54.8947	54.9707	59	58
54.8967	54.9707	62	70
55.0437	55.1237	56	56
55.0447	55.1247	59	56
55.0447	55.1277	62	67
55.2017	55.2747	59	55
55.2017	55.2787	62	66
55.2027	55.2787	68	66
55.3507	55.4317	59	58
55.3517	55.4327	62	58
55.3517	55.4357	68	70
55.5087	55.5827	59	55
55.5097	55.5867	62	55
55.5097	55.5867	67	66
55.5127	55.5877	55	63
55.6667	55.7397	59	55
55.6667	55.7437	62	55
55.6677	55.7447	55	63
55.6677	55.7447	67	66
55.8167	55.8907	59	60
55.8177	55.8907	62	60
55.8177	55.8947	66	72
55.8207	55.8947	56	68
55.9677	56.0477	59	65
55.9677	56.0487	62	65
55.9677	56.0487	66	76
55.9717	56.0516	56	69
56.1246	56.1986	59	60
56.1256	56.2026	62	60
56.1256	56.2026	65	72
56.2726	56.3486	59	58
56.2756	56.3496	62	58
56.2756	56.3526	65	69
56.4326	56.5066	62	53
56.4336	56.5066	65	53
56.4336	56.5106	71	75
56.5806	56.6576	62	58
56.5836	56.6576	65	58
56.5836	56.6616	71	81
56.7336	56.8146	62	56
56.7346	56.8156	65	56
56.7346	56.8156	70	79
56.7356	56.8186	58	70
56.8886	56.9656	62	54
56.8916	56.9656	65	54
56.8916	56.9686	70	76
56.8926	56.9686	58	76
57.0426	57.1226	65	55
57.0426	57.1236	68	55
57.0426	57.1236	74	78
57.1926	57.2736	65	60
57.1926	57.2736	68	60
57.1936	57.2766	74	86
57.3496	57.4236	65	58
57.3506	57.4246	68	58
57.3506	57.4246	73	81
57.3516	57.4266	61	74
57.5006	57.5816	65	56
57.5016	57.5846	61	78
57.5016	57.5816	68	56
57.5016	57.5846	73	79
57.6546	57.7316	68	57
57.6556	57.7326	71	57
57.6586	57.7326	77	80
57.8086	57.8826	68	62
57.8096	57.8826	71	62
57.8096	57.8856	77	86
57.9566	58.0395	68	60
57.9595	58.0405	71	60
57.9595	58.0405	76	86
57.9635	58.0425	64	76
58.1135	58.1905	68	58
58.1145	58.1915	71	58
58.1165	58.1935	64	82
58.1165	58.1915	76	81
58.2635	58.3475	71	71
58.2675	58.3485	74	71
58.2675	58.3485	80	85
58.4275	58.5015	71	79
58.4285	58.5055	74	79
58.4285	58.5065	80	94
58.5855	58.6625	71	75
58.5855	58.6635	74	75
58.5865	58.6635	79	89
58.5895	58.6645	67	80
58.7395	58.8235	71	72
58.7435	58.8235	74	72
58.7435	58.8245	79	86
58.7465	58.8275	67	85
58.9045	58.9845	72	45
58.9855	59.0615	74	45
59.0625	59.1355	76	49
59.0625	59.1355	79	49
59.0645	59.1385	67	45
59.0655	59.1385	60	45
59.1395	59.2155	74	45
59.2195	59.2925	72	45
59.2205	59.2935	67	41
59.2225	59.2965	60	41
59.2965	59.3765	74	45
59.3775	59.4505	76	47
59.3775	59.4505	79	47
59.3785	59.4515	67	41
59.3795	59.4535	60	41
59.4535	59.5235	74	45
59.5275	59.6015	67	41
59.5275	59.6005	72	45
59.5305	59.6045	60	41
59.6045	59.6844	74	45
59.6855	59.7594	76	49
59.6855	59.7584	79	49
59.6864	59.7594	67	45
59.6875	59.7614	60	45
59.8385	59.9164	72	45
59.8385	59.9124	76	45
59.8425	59.9164	60	41
59.8425	59.9164	67	41
59.9884	60.0694	76	46
59.9894	60.0744	67	41
59.9894	60.0734	72	46
59.9924	60.0744	60	41
60.1504	60.2274	79	45
60.1534	60.2284	67	41
60.1534	60.2274	76	45
60.1544	60.2314	60	41
60.3034	60.3844	77	50
60.3044	60.3884	67	45
60.3044	60.3854	81	50
60.3074	60.3884	60	45
60.4584	60.5424	71	45
60.4614	60.5424	74	45
60.4624	60.5434	60	40
60.4624	60.5424	67	40
60.6154	60.6924	71	46
60.6194	60.6934	67	40
60.6194	60.6934	74	46
60.6204	60.6954	60	40
60.7734	60.8504	77	51
60.7734	60.8504	81	51
60.7744	60.8514	67	40
60.7764	60.8514	60	40
60.9304	61.3854	77	55
60.9314	61.0034	67	45
60.9314	61.3894	81	55
60.9334	61.0074	60	45
61.0814	61.1614	60	40
61.0814	61.1614	67	40
61.2314	61.3114	67	40
61.2324	61.3154	60	40
61.3924	61.4694	72	45
61.3934	61.4694	60	40
61.3934	61.4704	67	40
61.4734	61.5473	74	45
61.5473	61.6194	79	49
61.5484	61.6233	76	49
61.5504	61.6243	60	45
61.5504	61.6243	67	45
61.7003	61.7773	76	45
61.7013	61.7773	72	45
61.7043	61.7783	67	41
61.7053	61.7813	60	41
61.8553	61.9353	60	41
61.8553	61.9353	72	46
61.8553	61.9343	76	46
61.8563	61.9393	67	41
62.0153	62.0923	79	45
62.0163	62.0933	67	41
62.0163	62.0923	76	45
62.0193	62.0933	60	41
62.1653	62.2463	77	50
62.1693	62.2473	81	50
62.1703	62.2493	60	45
62.1703	62.2503	67	45
62.3233	62.3973	71	45
62.3243	62.4003	67	40
62.3243	62.3983	74	45
62.3273	62.4003	60	40
62.4763	62.5543	71	46
62.4813	62.5553	74	46
62.4843	62.5573	67	40
62.4853	62.5583	60	40
62.6383	62.7153	77	51
62.6393	62.7203	60	40
62.6393	62.7193	81	51
62.6403	62.7223	67	40
62.7923	62.8693	76	55
62.7923	62.8703	79	55
62.7963	62.8703	60	45
62.7963	62.8703	67	45
62.9463	63.0203	72	50
62.9473	63.0232	60	40
62.9473	63.0213	67	40
62.9473	63.0203	76	50
63.1003	63.1773	77	58
63.1003	63.1783	81	58
63.1043	63.1783	60	41
63.1043	63.1793	67	41
63.2543	63.3282	71	52
63.2552	63.3312	60	42
63.2552	63.3292	67	42
63.2552	63.3292	74	52
63.4012	63.4792	76	60
63.4052	63.4822	67	47
63.4052	63.4792	79	60
63.4082	63.4822	60	47
63.5512	63.6292	72	54
63.5552	63.6302	76	54
63.5562	63.6322	60	43
63.5562	63.6302	67	43
63.7062	63.7792	77	63
63.7062	63.7792	81	63
63.7072	63.7832	60	45
63.7072	63.7832	67	45
63.8562	63.9292	71	56
63.8572	63.9332	67	45
63.8572	63.9332	74	56
63.8592	63.9342	60	45
64.0102	64.0872	76	64
64.0102	64.0872	79	64
64.0142	64.0912	60	51
64.0142	64.0872	67	51
64.1642	64.2372	72	59
64.1652	64.2422	67	46
64.1652	64.2412	76	59
64.1672	64.2422	60	46
64.3112	64.3812	85	78
64.3152	64.3852	81	78
64.3182	64.3882	64	63
64.3182	64.3852	71	63
64.4582	64.5352	75	72
64.4592	64.5362	78	72
64.4622	64.5382	64	58
64.4622	64.5362	71	58
64.6122	64.6862	83	79
64.6132	64.6872	64	63
64.6132	64.6892	71	63
64.6132	64.6862	80	79
64.7602	64.8362	76	73
64.7632	64.8391	64	58
64.7632	64.8371	80	73
64.7661	64.8402	71	58
64.9131	64.9871	85	79
64.9141	64.9881	64	63
64.9141	64.9901	71	63
64.9141	64.9871	81	79
65.0641	65.1371	75	72
65.0641	65.1411	78	72
65.0651	65.1411	64	58
65.0671	65.1411	71	58
65.2141	65.2841	83	79
65.2151	65.2841	80	79
65.2171	65.2851	64	63
65.2171	65.2881	71	63
65.3581	65.4351	76	76
65.3611	65.4361	64	59
65.3611	65.4391	71	59
65.3611	65.4351	80	76
65.5111	65.5781	80	82
65.5121	65.5821	64	64
65.5121	65.5791	83	82
65.5131	65.5821	71	64
65.6551	65.7321	76	79
65.6551	65.7331	80	79
65.6561	65.7331	64	61
65.6591	65.7341	71	61
65.8051	65.8751	83	87
65.8091	65.8791	80	87
65.8101	65.8801	64	68
65.8101	65.8801	71	68
65.9491	66.0191	76	83
65.9531	66.0231	64	64
65.9531	66.0231	80	83
65.9561	66.0261	71	64
66.0961	66.1661	80	90
66.0971	66.1671	83	90
66.0991	66.1691	64	72
66.1001	66.1691	71	72
66.2401	66.3171	76	87
66.2431	66.3181	64	67
66.2431	66.3171	80	87
66.2441	66.3201	71	67
66.3941	66.978	58	79
66.978	67.051	83	87
66.982	67.056	64	68
66.982	67.055	80	87
66.9831	67.058	71	68
67.1211	67.199	76	83
67.125	67.2	80	83
67.126	67.2	64	64
67.126	67.202	71	64
67.269	67.346	80	90
67.269	67.346	83	90
67.27	67.346	64	72
67.272	67.347	71	72
67.412	67.496	76	87
67.413	67.497	80	87
67.415	67.497	64	67
67.416	67.499	71	67
67.57	68.15	58	76
68.151	68.228	80	85
68.151	68.228	83	85
68.154	68.229	64	64
68.155	68.229	71	64
68.301	68.371	76	79
68.301	68.372	80	79
68.305	68.372	64	61
68.305	68.374	71	61
68.448	68.518	80	85
68.449	68.519	64	64
68.449	68.519	83	85
68.451	68.522	71	64
68.592	68.666	76	81
68.592	68.669	80	81
68.595	68.673	64	59
68.595	68.673	71	59
68.742	73.8979	58	72
68.889	68.963	57	45
69.039	69.109	56	45
69.183	69.26	55	45
69.33	69.403	54	45
69.474	69.551	53	45
69.625	69.694	52	45
69.771	69.8409	51	45
70.061	70.1349	50	45
70.2049	70.2789	49	45
70.3479	70.4259	48	45
70.5029	70.5689	47	45
70.6469	70.7159	46	45
70.7929	70.8669	45	45
70.9369	71.0129	44	45
71.3839	71.5349	43	41
71.9829	72.1409	42	40
72.6029	72.7599	41	37
73.2459	73.4109	40	36
74.0589	74.1359	63	45
74.1359	74.2099	65	45
74.2129	74.2939	66	49
74.2129	74.2929	70	49
74.2169	74.2939	39	45
74.2959	74.3669	65	45
74.3699	74.4439	63	45
74.3709	74.4439	46	42
74.4469	74.5249	65	45
74.5249	74.6009	66	47
74.5279	74.6019	39	42
74.5279	74.6019	70	47
74.6039	74.6749	65	45
74.6789	74.7589	34	42
74.6789	74.7589	63	45
74.7599	74.8319	65	45
74.8329	74.9089	70	49
74.8359	74.9099	39	45
74.8359	74.9099	66	49
74.9899	75.0629	66	45
74.9909	75.0669	46	42
74.9909	75.0669	63	45
75.1408	75.2208	63	46
75.1408	75.2199	66	46
75.1419	75.2238	39	42
75.3008	75.3778	70	45
75.3048	75.3788	66	45
75.3058	75.3788	34	42
75.4588	75.5348	65	50
75.4588	75.5358	69	50
75.4628	75.5358	39	45
75.6088	75.6928	60	45
75.6128	75.6928	65	45
75.6138	75.6938	46	42
75.7668	75.8468	60	46
75.7708	75.8508	39	42
75.7708	75.8498	65	46
75.9238	76.0048	65	45
75.9248	76.0088	34	42
75.9248	76.0078	69	45
76.0818	76.5358	65	54
76.0818	76.5398	69	54
76.0828	76.1548	39	45
76.2318	76.3128	46	41
76.3898	76.4628	39	41
76.5408	76.6208	68	46
76.5428	76.6218	34	41
76.6218	76.6978	70	49
76.6978	76.7748	71	54
76.6988	76.7808	39	49
76.6988	76.7788	75	54
76.7818	76.8508	70	51
76.8518	76.9288	68	51
76.8558	76.9298	46	45
76.9298	77.0088	70	51
77.0127	77.0827	71	54
77.0127	77.0868	75	54
77.0138	77.0868	39	45
77.0897	77.1587	70	50
77.1597	77.2367	68	50
77.1637	77.2377	34	45
77.2377	77.3167	70	50
77.3177	77.3907	71	54
77.3177	77.3947	75	54
77.3207	77.3947	39	49
77.4737	77.5477	68	50
77.4747	77.5517	46	45
77.4747	77.5487	71	50
77.6247	77.7057	68	50
77.6247	77.7057	71	50
77.6257	77.7097	39	45
77.7857	77.8627	71	50
77.7867	77.8637	75	50
77.7887	77.8637	34	45
77.9437	78.0207	70	54
77.9447	78.0207	74	54
77.9467	78.0217	39	49
78.1017	78.1787	46	45
78.1017	78.1737	65	50
78.1017	78.1787	70	50
78.2517	78.3357	65	50
78.2527	78.3357	70	50
78.2547	78.3367	39	45
78.4127	78.4887	70	50
78.4167	78.4927	34	45
78.4167	78.4897	74	50
78.5697	78.7967	70	58
78.5707	78.6467	39	49
78.5707	78.7977	74	58
78.7207	78.8007	46	45
78.8707	78.9477	39	45
79.0257	79.1046	83	78
79.1057	79.1856	85	78
79.1866	79.2626	87	90
79.1896	79.2626	90	90
79.1906	79.6516	71	70
79.1906	79.6516	78	70
79.2636	79.3366	85	77
79.3406	79.4126	83	77
79.4136	79.4866	85	77
79.4896	79.6336	90	81
79.4906	79.6336	87	81
79.6556	79.7256	78	77
79.7286	79.8046	80	77
79.8056	79.8826	85	90
79.8096	80.2706	66	70
79.8096	79.8836	82	90
79.8116	80.2706	73	70
79.8836	79.9596	80	77
79.9596	80.0336	78	74
80.0356	80.1126	80	74
80.1136	80.2536	85	83
80.1176	80.2546	82	83
80.2746	80.3476	76	77
80.3486	80.4276	78	77
80.4286	80.5056	80	90
80.4286	80.5066	83	90
80.4316	80.8906	64	70
80.4326	80.8936	71	70
80.5066	80.5786	78	74
80.5826	80.6566	76	74
80.6566	80.7366	78	74
80.7366	80.8836	83	83
80.7376	80.8846	80	83
80.8936	80.9676	71	78
80.9676	81.0506	73	78
81.0516	81.1246	78	91
81.0526	81.5066	59	70
81.0526	81.1256	75	91
81.0546	81.5096	66	70
81.1286	81.1986	73	74
81.2016	81.2826	71	74
81.2826	81.3586	73	74
81.3596	81.4956	78	81
81.3606	81.4966	75	81
81.5096	81.5906	58	72
81.5136	81.5906	46	70
81.5916	81.6665	59	72
81.5935	81.6676	47	70
81.6676	81.7435	61	81
81.6685	81.7485	49	81
81.7485	81.8215	59	70
81.7505	81.8225	47	70
81.8245	81.8985	58	70
81.8255	81.8985	46	70
81.9785	82.0515	59	77
81.9795	82.0555	47	73
82.0565	82.1295	58	65
82.0585	82.1305	46	67
82.1325	82.2095	56	65
82.1335	82.2095	44	67
82.2875	82.3675	46	72
82.2875	82.3665	58	72
82.3705	82.4405	56	64
82.3715	82.4415	44	63
82.4445	82.5175	54	64
82.4475	82.5175	42	63
82.5985	82.6745	56	69
82.6025	82.6755	44	70
82.6785	82.7485	54	63
82.6795	82.7525	42	63
82.7535	82.8255	41	63
82.7535	82.8255	53	63
83.5155	83.5925	44	45
83.5155	83.5925	56	45
83.5925	83.6725	54	42
83.5965	83.6735	42	41
83.6765	83.7495	40	41
83.6765	83.7465	52	42
84.1485	84.9674	51	82
84.1525	84.9674	39	81
84.1525	84.9674	46	81
84.2295	84.9674	58	76
84.3065	84.3845	63	76
84.3845	84.7784	63	76
84.4575	84.7784	70	80
84.5374	84.6145	75	85
84.6145	84.7754	75	89
84.6955	84.7764	82	92
84.7754	84.9674	75	95
84.7764	84.9674	82	95
84.7764	84.9674	87	95
84.7784	84.9674	63	97
84.7784	84.9674	70	97
