# onset,offset,note,velocity
0.500004	0.911134	72.000000	56.000000
0.500004	0.911134	69.000000	50.000000
0.500004	0.774086	33.000000	43.000000
0.774086	1.048181	45.000000	45.000000
0.911134	1.341736	72.000000	60.000000
0.911134	1.341736	69.000000	54.000000
1.048181	1.341736	52.000000	48.000000
1.341736	2.986253	74.000000	37.000000
1.341736	2.986253	65.000000	33.000000
1.341736	2.986253	69.000000	33.000000
1.341736	2.986253	45.000000	31.000000
1.341736	2.986253	50.000000	35.000000
2.986253	3.397382	69.000000	51.000000
2.986253	3.397382	72.000000	57.000000
2.986253	3.260334	33.000000	40.000000
3.260334	3.534430	45.000000	46.000000
3.397382	3.829942	72.000000	59.000000
3.397382	3.829942	69.000000	53.000000
3.534430	3.829942	52.000000	49.000000
3.829942	5.474459	62.000000	33.000000
3.829942	5.474459	71.000000	37.000000
3.829942	5.474459	68.000000	33.000000
3.829942	5.474459	45.000000	29.000000
3.829942	5.474459	53.000000	33.000000
5.474459	5.885588	69.000000	56.000000
5.474459	5.885588	66.000000	50.000000
5.474459	5.748541	33.000000	42.000000
5.748541	6.022636	45.000000	42.000000
5.885588	6.316191	66.000000	48.000000
5.885588	6.316191	69.000000	54.000000
6.022636	6.316191	48.000000	42.000000
6.316191	7.157707	72.000000	52.000000
6.316191	7.157707	60.000000	47.000000
6.316191	7.999224	45.000000	32.000000
6.316191	7.999224	51.000000	36.000000
7.157707	7.999224	66.000000	43.000000
7.157707	7.999224	69.000000	48.000000
7.999224	8.840741	64.000000	39.000000
7.999224	8.840741	68.000000	45.000000
7.999224	8.279730	40.000000	33.000000
8.279730	8.560235	47.000000	30.000000
8.560235	10.613790	52.000000	29.000000
8.840741	10.613790	59.000000	33.000000
8.840741	10.613790	68.000000	33.000000
8.840741	10.613790	71.000000	37.000000
8.840741	10.613790	40.000000	28.000000
10.613790	11.010878	72.000000	55.000000
10.613790	11.010878	69.000000	49.000000
10.613790	10.878510	33.000000	42.000000
10.878510	11.143245	45.000000	46.000000
11.010878	11.431099	69.000000	52.000000
11.010878	11.431099	72.000000	58.000000
11.143245	11.431099	52.000000	50.000000
11.431099	13.019451	76.000000	53.000000
11.431099	13.019451	64.000000	47.000000
11.431099	13.019451	73.000000	47.000000
11.431099	13.019451	45.000000	40.000000
11.431099	13.019451	57.000000	46.000000
13.019451	13.422400	74.000000	56.000000
13.019451	13.422400	77.000000	63.000000
13.019451	13.288088	38.000000	48.000000
13.288088	13.556711	50.000000	51.000000
13.422400	13.844566	77.000000	68.000000
13.422400	13.844566	74.000000	60.000000
13.556711	13.844566	57.000000	54.000000
13.844566	15.571682	69.000000	59.000000
13.844566	15.571682	81.000000	67.000000
13.844566	15.571682	78.000000	59.000000
13.844566	15.571682	51.000000	46.000000
13.844566	15.571682	60.000000	51.000000
15.571682	16.023970	67.000000	61.000000
15.571682	17.307407	72.000000	61.000000
15.571682	16.023970	79.000000	69.000000
15.571682	15.873203	40.000000	49.000000
15.873203	16.174737	52.000000	49.000000
16.023970	16.476257	67.000000	61.000000
16.023970	16.476257	79.000000	69.000000
16.174737	16.476257	55.000000	49.000000
16.476257	17.307407	76.000000	69.000000
16.476257	17.307407	68.000000	61.000000
16.476257	17.722989	60.000000	46.000000
16.476257	17.307407	52.000000	40.000000
17.307407	18.139885	72.000000	59.000000
17.307407	18.139885	69.000000	53.000000
17.307407	18.139885	53.000000	39.000000
17.722989	18.139885	57.000000	26.000000
18.139885	19.002699	71.000000	55.000000
18.139885	19.002699	68.000000	49.000000
18.139885	20.728326	64.000000	49.000000
18.139885	20.728326	76.000000	55.000000
18.139885	18.571292	52.000000	48.000000
18.571292	20.728326	52.000000	45.000000
19.002699	20.728326	69.000000	52.000000
19.002699	19.865512	48.000000	40.000000
19.865512	20.728326	45.000000	36.000000
20.728326	21.641847	59.000000	35.000000
20.728326	21.641847	56.000000	35.000000
20.728326	23.667841	64.000000	40.000000
20.728326	23.667841	52.000000	40.000000
20.728326	21.185093	40.000000	39.000000
21.185093	21.641847	40.000000	39.000000
21.641847	23.667841	57.000000	34.000000
21.641847	22.654851	36.000000	42.000000
22.654851	23.918346	33.000000	32.000000
23.667841	24.043592	69.000000	38.000000
23.667841	24.043592	72.000000	44.000000
23.918346	24.168838	45.000000	29.000000
24.043592	24.419343	69.000000	38.000000
24.043592	24.419343	72.000000	44.000000
24.168838	24.419343	52.000000	28.000000
24.419343	24.816431	71.000000	42.000000
24.419343	24.816431	65.000000	42.000000
24.419343	24.816431	74.000000	47.000000
24.419343	24.684064	45.000000	28.000000
24.684064	24.948798	50.000000	28.000000
24.816431	25.213519	69.000000	38.000000
24.816431	25.213519	72.000000	44.000000
24.948798	25.213519	53.000000	28.000000
25.213519	26.040646	65.000000	38.000000
25.213519	26.040646	71.000000	38.000000
25.213519	26.040646	74.000000	38.000000
25.213519	26.040646	45.000000	28.000000
26.040646	26.420487	72.000000	47.000000
26.040646	26.420487	69.000000	42.000000
26.040646	26.293873	33.000000	28.000000
26.293873	26.547101	45.000000	29.000000
26.420487	26.800328	69.000000	42.000000
26.420487	26.800328	72.000000	47.000000
26.547101	26.800328	52.000000	30.000000
26.800328	27.201989	71.000000	44.000000
26.800328	27.201989	62.000000	39.000000
26.800328	27.201989	68.000000	39.000000
26.800328	27.068107	45.000000	29.000000
27.068107	27.335872	53.000000	28.000000
27.201989	27.603650	65.000000	38.000000
27.201989	27.603650	69.000000	38.000000
27.335872	27.603650	50.000000	28.000000
27.603650	28.406972	68.000000	37.000000
27.603650	28.406972	71.000000	37.000000
27.603650	28.406972	62.000000	37.000000
27.603650	28.406972	45.000000	28.000000
28.406972	28.784748	69.000000	45.000000
28.406972	28.784748	66.000000	39.000000
28.406972	28.658818	33.000000	29.000000
28.658818	28.910678	45.000000	32.000000
28.784748	29.540327	69.000000	46.000000
28.784748	29.162538	66.000000	40.000000
28.910678	29.162538	48.000000	34.000000
29.162538	29.540327	60.000000	46.000000
29.162538	29.540327	72.000000	51.000000
29.162538	29.414397	45.000000	37.000000
29.414397	29.666257	54.000000	35.000000
29.540327	29.918116	71.000000	48.000000
29.540327	29.918116	68.000000	43.000000
29.666257	29.918116	51.000000	35.000000
29.918116	30.295892	60.000000	43.000000
29.918116	30.295892	72.000000	48.000000
29.918116	30.295892	69.000000	43.000000
29.918116	30.169963	45.000000	33.000000
30.169963	30.421822	54.000000	33.000000
30.295892	30.673682	69.000000	46.000000
30.295892	30.673682	66.000000	40.000000
30.421822	30.673682	51.000000	33.000000
30.673682	31.465229	64.000000	39.000000
30.673682	31.465229	68.000000	45.000000
30.673682	33.116988	40.000000	30.000000
30.937531	31.201380	47.000000	32.000000
31.201380	33.116988	52.000000	32.000000
31.465229	33.116988	68.000000	34.000000
31.465229	33.116988	71.000000	38.000000
31.465229	33.116988	59.000000	34.000000
33.116988	33.486771	72.000000	58.000000
33.116988	33.486771	69.000000	52.000000
33.116988	33.363510	33.000000	43.000000
33.363510	33.610032	45.000000	43.000000
33.486771	33.856554	72.000000	58.000000
33.486771	33.856554	69.000000	52.000000
33.610032	33.856554	52.000000	43.000000
33.856554	34.226337	76.000000	58.000000
33.856554	34.226337	73.000000	52.000000
33.856554	34.226337	64.000000	52.000000
33.856554	34.103076	45.000000	43.000000
34.103076	34.349598	57.000000	43.000000
34.226337	34.596120	71.000000	52.000000
34.226337	34.596120	65.000000	52.000000
34.226337	34.596120	74.000000	58.000000
34.349598	34.596120	50.000000	43.000000
34.596120	35.335673	76.000000	58.000000
34.596120	34.965890	64.000000	52.000000
34.596120	35.335673	73.000000	58.000000
34.596120	34.842629	45.000000	45.000000
34.842629	35.089151	57.000000	45.000000
34.965890	35.335673	79.000000	61.000000
34.965890	35.335673	69.000000	55.000000
35.089151	35.335673	52.000000	46.000000
35.335673	35.705456	74.000000	52.000000
35.335673	35.705456	77.000000	58.000000
35.335673	35.705456	69.000000	52.000000
35.335673	35.582195	38.000000	42.000000
35.582195	35.828717	50.000000	44.000000
35.705456	36.075239	74.000000	52.000000
35.705456	36.075239	69.000000	52.000000
35.705456	36.075239	77.000000	58.000000
35.828717	36.075239	57.000000	44.000000
36.075239	36.445008	81.000000	63.000000
36.075239	36.445008	78.000000	56.000000
36.075239	36.445008	72.000000	56.000000
36.075239	36.321747	51.000000	47.000000
36.321747	36.568269	60.000000	46.000000
36.445008	36.814791	77.000000	60.000000
36.445008	36.814791	80.000000	60.000000
36.445008	36.814791	71.000000	54.000000
36.568269	36.814791	57.000000	46.000000
36.814791	37.611086	81.000000	66.000000
36.814791	37.212938	72.000000	58.000000
36.814791	37.611086	78.000000	58.000000
36.814791	37.080223	51.000000	48.000000
37.080223	37.345654	60.000000	49.000000
37.212938	37.611086	84.000000	67.000000
37.345654	37.611086	57.000000	49.000000
37.611086	38.029269	79.000000	68.000000
37.611086	38.029269	72.000000	60.000000
37.611086	38.029269	67.000000	60.000000
37.611086	37.889875	40.000000	50.000000
37.889875	38.168664	52.000000	46.000000
38.029269	39.241629	72.000000	61.000000
38.029269	38.447453	67.000000	61.000000
38.029269	38.447453	79.000000	61.000000
38.168664	38.447453	55.000000	47.000000
38.447453	39.241629	68.000000	60.000000
38.447453	38.844541	77.000000	68.000000
38.447453	39.241629	52.000000	51.000000
38.712174	39.241629	60.000000	47.000000
38.844541	39.241629	76.000000	64.000000
39.241629	39.638716	74.000000	63.000000
39.241629	40.035804	69.000000	56.000000
39.241629	40.035804	53.000000	50.000000
39.506349	40.035804	57.000000	47.000000
39.638716	40.035804	72.000000	57.000000
40.035804	40.848595	71.000000	56.000000
40.035804	42.474175	64.000000	50.000000
40.035804	40.848595	68.000000	50.000000
40.035804	42.474175	76.000000	56.000000
40.035804	40.442200	52.000000	49.000000
40.442200	42.474175	52.000000	49.000000
40.848595	42.474175	69.000000	55.000000
40.848595	41.254990	50.000000	48.000000
41.254990	41.661385	48.000000	46.000000
41.661385	42.067780	47.000000	43.000000
42.067780	42.474175	45.000000	40.000000
42.474175	43.329412	59.000000	40.000000
42.474175	43.329412	56.000000	36.000000
42.474175	45.313886	64.000000	40.000000
42.474175	45.313886	52.000000	36.000000
42.899024	43.329412	40.000000	39.000000
43.329412	45.313886	57.000000	40.000000
43.329412	43.763206	38.000000	37.000000
43.763206	44.211644	36.000000	35.000000
44.211644	44.676565	35.000000	33.000000
44.676565	45.313886	33.000000	31.000000
45.313886	45.468153	76.000000	45.000000
45.313886	45.620167	68.000000	35.000000
45.313886	45.620167	64.000000	29.000000
45.468153	45.620167	88.000000	50.000000
45.620167	45.769620	86.000000	51.000000
45.620167	46.204782	69.000000	28.000000
45.620167	45.916940	65.000000	23.000000
45.769620	45.916940	74.000000	47.000000
45.916940	46.061860	77.000000	48.000000
45.916940	46.204782	62.000000	28.000000
46.061860	46.204782	89.000000	50.000000
46.204782	46.346081	88.000000	52.000000
46.204782	46.487380	68.000000	33.000000
46.204782	46.487380	64.000000	28.000000
46.346081	46.487380	76.000000	48.000000
46.487380	46.628678	74.000000	49.000000
46.487380	47.052575	69.000000	30.000000
46.487380	46.769977	65.000000	25.000000
46.628678	46.769977	86.000000	54.000000
46.769977	46.911276	84.000000	51.000000
46.769977	47.052575	62.000000	29.000000
46.911276	47.052575	72.000000	51.000000
47.052575	47.193874	71.000000	55.000000
47.052575	47.335173	64.000000	29.000000
47.052575	47.335173	68.000000	35.000000
47.193874	47.335173	83.000000	56.000000
47.335173	47.476472	86.000000	52.000000
47.335173	47.617770	65.000000	28.000000
47.335173	47.900368	69.000000	33.000000
47.476472	47.617770	74.000000	54.000000
47.617770	47.759069	72.000000	51.000000
47.617770	47.900368	62.000000	29.000000
47.759069	47.900368	84.000000	51.000000
47.900368	48.041667	83.000000	56.000000
47.900368	48.183502	68.000000	35.000000
47.900368	48.183502	64.000000	29.000000
48.041667	48.183502	74.000000	49.000000
48.183502	48.756744	69.000000	27.000000
48.183502	48.468916	65.000000	32.000000
48.325887	49.047040	81.000000	48.000000
48.468916	48.756744	62.000000	29.000000
48.756744	49.047040	59.000000	29.000000
48.756744	49.047040	63.000000	34.000000
49.047040	49.929729	69.000000	49.000000
49.047040	49.339844	60.000000	24.000000
49.047040	49.635195	64.000000	29.000000
49.193100	49.929729	81.000000	44.000000
49.339844	49.635195	57.000000	26.000000
49.635195	49.929729	59.000000	24.000000
49.635195	49.929729	63.000000	29.000000
49.929729	50.075333	67.000000	53.000000
49.929729	50.505318	64.000000	27.000000
49.929729	50.219689	60.000000	23.000000
50.075333	50.219689	79.000000	51.000000
50.219689	50.363053	78.000000	54.000000
50.219689	50.505318	57.000000	25.000000
50.363053	50.505318	66.000000	50.000000
50.505318	50.646617	71.000000	51.000000
50.505318	50.787916	59.000000	25.000000
50.505318	50.787916	63.000000	30.000000
50.646617	50.787916	83.000000	54.000000
50.787916	50.929214	81.000000	57.000000
50.787916	51.353111	64.000000	28.000000
50.787916	51.070513	60.000000	23.000000
50.929214	51.070513	69.000000	52.000000
51.070513	51.211812	67.000000	52.000000
51.070513	51.353111	57.000000	26.000000
51.211812	51.353111	79.000000	55.000000
51.353111	51.494410	78.000000	59.000000
51.353111	51.635709	59.000000	27.000000
51.353111	51.635709	63.000000	32.000000
51.494410	51.635709	66.000000	53.000000
51.635709	51.777008	69.000000	54.000000
51.635709	51.918306	60.000000	24.000000
51.635709	51.918306	64.000000	29.000000
51.777008	51.918306	81.000000	56.000000
51.918306	52.059605	84.000000	59.000000
51.918306	52.200904	57.000000	28.000000
51.918306	52.200904	66.000000	33.000000
52.059605	52.200904	72.000000	55.000000
52.200904	52.342203	71.000000	56.000000
52.200904	52.483502	64.000000	29.000000
52.200904	52.483502	68.000000	34.000000
52.342203	52.483502	83.000000	60.000000
52.483502	52.624801	86.000000	61.000000
52.483502	53.048697	69.000000	30.000000
52.483502	52.766100	65.000000	25.000000
52.624801	52.766100	74.000000	56.000000
52.766100	52.907399	77.000000	57.000000
52.766100	53.048697	62.000000	29.000000
52.907399	53.048697	89.000000	64.000000
53.048697	53.189996	88.000000	65.000000
53.048697	53.331295	64.000000	29.000000
53.048697	53.331295	68.000000	35.000000
53.189996	53.331295	76.000000	58.000000
53.331295	53.472594	74.000000	58.000000
53.331295	53.896491	69.000000	32.000000
53.331295	53.613893	65.000000	27.000000
53.472594	53.613893	86.000000	61.000000
53.613893	53.755192	89.000000	68.000000
53.613893	53.896491	62.000000	29.000000
53.755192	53.896491	77.000000	60.000000
53.896491	54.037789	76.000000	60.000000
53.896491	54.179088	64.000000	30.000000
53.896491	54.179088	68.000000	36.000000
54.037789	54.179088	88.000000	65.000000
54.179088	54.320387	86.000000	69.000000
54.179088	54.744284	69.000000	35.000000
54.179088	54.461686	65.000000	29.000000
54.320387	54.461686	74.000000	61.000000
54.461686	54.602985	77.000000	63.000000
54.461686	54.744284	62.000000	31.000000
54.602985	54.744284	89.000000	66.000000
54.744284	54.885583	88.000000	67.000000
54.744284	55.026881	64.000000	31.000000
54.744284	55.026881	68.000000	37.000000
54.885583	55.026881	76.000000	59.000000
55.026881	55.168180	74.000000	59.000000
55.026881	55.592077	69.000000	35.000000
55.026881	55.309479	65.000000	29.000000
55.168180	55.309479	86.000000	60.000000
55.309479	55.450778	84.000000	59.000000
55.309479	55.592077	62.000000	29.000000
55.450778	55.592077	72.000000	54.000000
55.592077	55.733376	71.000000	54.000000
55.592077	55.874675	64.000000	29.000000
55.592077	55.874675	68.000000	34.000000
55.733376	55.874675	83.000000	59.000000
55.874675	56.015973	86.000000	60.000000
55.874675	56.439870	69.000000	29.000000
55.874675	56.157272	65.000000	24.000000
56.015973	56.157272	74.000000	54.000000
56.157272	56.298571	72.000000	50.000000
56.157272	56.439870	62.000000	25.000000
56.298571	56.439870	84.000000	51.000000
56.439870	56.581169	83.000000	54.000000
56.439870	56.723004	68.000000	35.000000
56.439870	56.723004	64.000000	29.000000
56.581169	56.723004	74.000000	46.000000
56.723004	57.296233	69.000000	32.000000
56.723004	57.008405	65.000000	27.000000
56.865376	57.586529	81.000000	46.000000
57.008405	57.296233	62.000000	29.000000
57.296233	57.586529	59.000000	29.000000
57.296233	57.586529	63.000000	34.000000
57.586529	58.469217	69.000000	49.000000
57.586529	57.879332	60.000000	24.000000
57.586529	58.174684	64.000000	29.000000
57.732588	58.469217	81.000000	42.000000
57.879332	58.174684	57.000000	26.000000
58.174684	58.469217	59.000000	24.000000
58.174684	58.469217	63.000000	29.000000
58.469217	58.614821	67.000000	49.000000
58.469217	59.044806	64.000000	27.000000
58.469217	58.759178	60.000000	23.000000
58.614821	58.759178	79.000000	57.000000
58.759178	58.902542	78.000000	57.000000
58.759178	59.044806	57.000000	28.000000
58.902542	59.044806	66.000000	53.000000
59.044806	59.186105	71.000000	53.000000
59.044806	59.327404	59.000000	28.000000
59.044806	59.327404	63.000000	33.000000
59.186105	59.327404	83.000000	58.000000
59.327404	59.468703	81.000000	63.000000
59.327404	59.892600	64.000000	31.000000
59.327404	59.610002	60.000000	26.000000
59.468703	59.610002	69.000000	57.000000
59.610002	59.751301	67.000000	57.000000
59.610002	59.892600	57.000000	31.000000
59.751301	59.892600	79.000000	67.000000
59.892600	60.033898	78.000000	67.000000
59.892600	60.175197	59.000000	31.000000
59.892600	60.175197	63.000000	37.000000
60.033898	60.175197	66.000000	58.000000
60.175197	60.316496	69.000000	58.000000
60.175197	60.457795	60.000000	28.000000
60.175197	60.457795	64.000000	33.000000
60.316496	60.457795	81.000000	65.000000
60.457795	60.599094	84.000000	71.000000
60.457795	60.740393	57.000000	34.000000
60.457795	60.740393	66.000000	40.000000
60.599094	60.740393	72.000000	68.000000
60.740393	60.881692	71.000000	68.000000
60.740393	61.022990	64.000000	34.000000
60.740393	61.022990	68.000000	40.000000
60.881692	61.022990	83.000000	70.000000
61.022990	61.164289	86.000000	75.000000
61.022990	61.306232	69.000000	39.000000
61.022990	61.306232	65.000000	33.000000
61.164289	61.306232	74.000000	72.000000
61.306232	61.448174	77.000000	72.000000
61.306232	61.590117	71.000000	39.000000
61.306232	61.590117	62.000000	37.000000
61.448174	61.590117	89.000000	75.000000
61.590117	61.732717	88.000000	79.000000
61.590117	61.875317	69.000000	37.000000
61.590117	61.875317	73.000000	45.000000
61.732717	61.875317	76.000000	74.000000
61.875317	62.017916	79.000000	74.000000
61.875317	62.445715	74.000000	43.000000
61.875317	62.160516	70.000000	35.000000
62.017916	62.160516	91.000000	76.000000
62.160516	62.303116	89.000000	79.000000
62.160516	62.445715	67.000000	40.000000
62.303116	62.445715	77.000000	74.000000
62.445715	62.588650	76.000000	74.000000
62.445715	62.732779	69.000000	40.000000
62.445715	62.732779	73.000000	49.000000
62.588650	62.732779	88.000000	74.000000
62.732779	62.878048	91.000000	79.000000
62.732779	63.321202	74.000000	47.000000
62.732779	63.024563	70.000000	39.000000
62.878048	63.024563	79.000000	74.000000
63.024563	63.172233	77.000000	74.000000
63.024563	63.321202	67.000000	40.000000
63.172233	63.321202	89.000000	75.000000
63.321202	63.471366	88.000000	80.000000
63.321202	63.622884	73.000000	49.000000
63.321202	63.622884	69.000000	40.000000
63.471366	63.622884	76.000000	76.000000
63.622884	63.778452	81.000000	75.000000
63.622884	64.535547	74.000000	47.000000
63.622884	63.930829	65.000000	39.000000
63.778452	63.930829	93.000000	73.000000
63.930829	64.082830	89.000000	80.000000
63.930829	64.234348	70.000000	40.000000
64.082830	64.234348	77.000000	74.000000
64.234348	64.385262	79.000000	74.000000
64.234348	64.535547	64.000000	40.000000
64.385262	64.535547	91.000000	72.000000
64.535547	64.685348	88.000000	78.000000
64.535547	65.131453	72.000000	45.000000
64.535547	64.834680	69.000000	37.000000
64.685348	64.834680	76.000000	69.000000
64.834680	64.983422	77.000000	69.000000
64.834680	65.131453	62.000000	38.000000
64.983422	65.131453	89.000000	72.000000
65.131453	65.279002	86.000000	71.000000
65.131453	65.718656	70.000000	45.000000
65.131453	65.426094	67.000000	37.000000
65.279002	65.426094	74.000000	66.000000
65.426094	65.572717	76.000000	64.000000
65.426094	65.718656	61.000000	34.000000
65.572717	65.718656	88.000000	60.000000
65.718656	65.864153	85.000000	58.000000
65.718656	66.868171	69.000000	44.000000
65.718656	66.009073	65.000000	36.000000
65.864153	66.009073	73.000000	56.000000
66.009073	66.153537	76.000000	55.000000
66.009073	66.583736	59.000000	36.000000
66.153537	66.297451	88.000000	57.000000
66.297451	66.440815	86.000000	60.000000
66.440815	66.583736	74.000000	52.000000
66.583736	66.726229	72.000000	51.000000
66.583736	66.868171	62.000000	34.000000
66.726229	66.868171	84.000000	56.000000
66.868171	67.009470	83.000000	55.000000
66.868171	67.150769	68.000000	39.000000
66.868171	67.150769	64.000000	33.000000
67.009470	67.150769	71.000000	48.000000
67.150769	67.292068	74.000000	49.000000
67.150769	67.717896	69.000000	35.000000
67.150769	67.434011	65.000000	29.000000
67.292068	67.434011	86.000000	53.000000
67.434011	67.575953	84.000000	53.000000
67.434011	67.717896	62.000000	33.000000
67.575953	67.717896	72.000000	48.000000
67.717896	67.860496	71.000000	48.000000
67.717896	68.003095	64.000000	33.000000
67.717896	68.003095	68.000000	39.000000
67.860496	68.003095	83.000000	48.000000
68.003095	68.575452	86.000000	48.000000
68.003095	68.575452	69.000000	31.000000
68.003095	68.288952	65.000000	26.000000
68.145695	68.575452	74.000000	48.000000
68.288952	68.575452	62.000000	29.000000
68.575452	68.719366	72.000000	42.000000
68.575452	68.863280	68.000000	34.000000
68.575452	68.863280	64.000000	29.000000
68.719366	69.151108	84.000000	40.000000
68.863280	69.438936	69.000000	29.000000
68.863280	69.151108	65.000000	24.000000
69.151108	69.726764	83.000000	43.000000
69.151108	69.438936	62.000000	28.000000
69.295022	69.726764	71.000000	37.000000
69.438936	69.726764	64.000000	28.000000
69.438936	69.726764	68.000000	33.000000
69.726764	70.014592	61.000000	24.000000
69.726764	71.194001	69.000000	29.000000
69.870678	71.194001	81.000000	35.000000
70.014592	70.302420	62.000000	23.000000
70.014592	70.302420	65.000000	27.000000
70.302420	70.591254	59.000000	22.000000
70.302420	70.591254	67.000000	26.000000
70.591254	70.883146	61.000000	22.000000
70.591254	70.883146	64.000000	26.000000
70.883146	71.194001	57.000000	21.000000
70.883146	71.194001	65.000000	25.000000
71.194001	73.435900	69.000000	35.000000
71.194001	71.513948	59.000000	21.000000
71.194001	71.513948	62.000000	25.000000
71.352600	73.435900	81.000000	33.000000
71.513948	71.845282	55.000000	19.000000
71.513948	71.845282	64.000000	24.000000
71.845282	72.189128	57.000000	18.000000
71.845282	72.189128	61.000000	23.000000
72.189128	72.546157	54.000000	18.000000
72.189128	72.546157	64.000000	23.000000
72.546157	72.917764	53.000000	18.000000
72.546157	72.917764	57.000000	23.000000
72.917764	73.435900	50.000000	18.000000
72.917764	73.435900	62.000000	23.000000
73.435900	75.923758	57.000000	54.000000
73.435900	74.243326	61.000000	54.000000
73.435900	74.243326	69.000000	60.000000
73.435900	73.705046	33.000000	51.000000
73.705046	75.923758	45.000000	48.000000
73.974193	74.243326	52.000000	43.000000
74.108759	75.923758	62.000000	37.000000
74.243326	74.453383	68.000000	55.000000
74.243326	75.923758	50.000000	37.000000
74.453383	75.923758	66.000000	52.000000
75.923758	76.731183	57.000000	52.000000
75.923758	76.731183	61.000000	52.000000
75.923758	76.731183	69.000000	58.000000
75.923758	76.192904	33.000000	44.000000
76.192904	78.411602	45.000000	42.000000
76.462050	76.731183	52.000000	37.000000
76.596617	78.411602	59.000000	30.000000
76.731183	76.941227	64.000000	53.000000
76.731183	78.411602	54.000000	32.000000
76.941227	78.411602	62.000000	48.000000
78.411602	80.855431	57.000000	47.000000
78.411602	79.219041	66.000000	52.000000
78.411602	78.680748	33.000000	47.000000
78.680748	80.855431	45.000000	42.000000
78.949895	79.219041	49.000000	42.000000
79.219041	80.026467	61.000000	50.000000
79.219041	80.855431	51.000000	42.000000
80.026467	80.855431	66.000000	44.000000
80.855431	83.393151	56.000000	35.000000
80.855431	81.701347	64.000000	39.000000
80.855431	82.547249	40.000000	39.000000
81.278389	81.701347	47.000000	34.000000
81.701347	83.393151	59.000000	38.000000
81.701347	83.393151	52.000000	32.000000
83.393151	84.229277	69.000000	35.000000
83.393151	83.807633	81.000000	48.000000
83.393151	84.229277	73.000000	35.000000
83.393151	83.669473	45.000000	39.000000
83.669473	83.945794	57.000000	39.000000
83.807633	84.229277	81.000000	48.000000
83.945794	84.229277	64.000000	39.000000
84.014874	84.229277	80.000000	43.000000
84.229277	85.944537	78.000000	37.000000
84.229277	85.944537	74.000000	25.000000
84.229277	85.944537	69.000000	25.000000
84.229277	85.944537	57.000000	25.000000
84.229277	85.944537	62.000000	28.000000
85.944537	86.780663	73.000000	32.000000
85.944537	86.780663	69.000000	32.000000
85.944537	86.359019	81.000000	44.000000
85.944537	86.220858	45.000000	36.000000
86.220858	86.497180	57.000000	36.000000
86.359019	86.780663	81.000000	44.000000
86.497180	86.780663	64.000000	36.000000
86.566260	86.780663	76.000000	40.000000
86.780663	88.495923	71.000000	25.000000
86.780663	88.495923	74.000000	35.000000
86.780663	88.495923	57.000000	24.000000
86.780663	88.495923	66.000000	27.000000
88.495923	90.939739	69.000000	42.000000
88.495923	88.899636	78.000000	47.000000
88.495923	88.765070	45.000000	42.000000
88.765070	89.034203	57.000000	42.000000
88.899636	89.303349	78.000000	47.000000
89.034203	89.303349	61.000000	39.000000
89.303349	90.110775	73.000000	39.000000
89.303349	90.939739	57.000000	32.000000
89.303349	90.939739	63.000000	36.000000
90.110775	90.939739	78.000000	39.000000
90.939739	93.494732	68.000000	33.000000
90.939739	91.791394	76.000000	37.000000
90.939739	93.494732	52.000000	38.000000
91.365567	91.791394	59.000000	30.000000
91.791394	93.494732	71.000000	32.000000
91.791394	93.494732	64.000000	32.000000
93.494732	93.763879	33.000000	54.000000
93.763879	95.125664	45.000000	46.000000
93.898445	95.971553	57.000000	46.000000
93.898445	94.302158	66.000000	49.000000
94.033012	94.302158	49.000000	51.000000
94.302158	94.713918	61.000000	59.000000
94.302158	95.971553	51.000000	58.000000
94.713918	95.125664	68.000000	51.000000
95.125664	95.548609	61.000000	50.000000
95.125664	95.971553	45.000000	46.000000
95.548609	95.971553	66.000000	46.000000
95.971553	96.375266	40.000000	49.000000
95.971553	96.375266	47.000000	54.000000
96.375266	96.668539	56.000000	53.000000
96.375266	96.668539	64.000000	64.000000
96.766292	97.059565	52.000000	54.000000
96.766292	97.059565	59.000000	61.000000
97.157318	97.450591	68.000000	58.000000
97.157318	97.450591	76.000000	69.000000
97.548344	97.841617	64.000000	59.000000
97.548344	97.841617	71.000000	67.000000
97.939370	98.330396	88.000000	78.000000
97.939370	98.330396	76.000000	66.000000
97.939370	98.330396	80.000000	66.000000
98.330396	98.712558	77.000000	68.000000
98.330396	98.712558	83.000000	80.000000
98.330396	100.664805	64.000000	66.000000
98.330396	98.712558	74.000000	66.000000
98.712558	99.107299	86.000000	73.000000
98.712558	99.107299	74.000000	61.000000
98.712558	99.107299	71.000000	57.000000
99.107299	99.489460	77.000000	60.000000
99.107299	99.489460	81.000000	72.000000
99.107299	99.489460	72.000000	61.000000
99.489460	99.881626	84.000000	70.000000
99.489460	99.881626	72.000000	58.000000
99.489460	99.881626	69.000000	57.000000
99.881626	100.266242	79.000000	77.000000
99.881626	100.266242	74.000000	65.000000
99.881626	100.266242	71.000000	61.000000
100.266242	100.664805	83.000000	65.000000
100.266242	100.664805	71.000000	54.000000
100.266242	100.664805	67.000000	55.000000
100.664805	101.063381	77.000000	76.000000
100.664805	101.420692	72.000000	65.000000
100.664805	102.849962	64.000000	38.000000
100.664805	101.420692	69.000000	58.000000
101.063381	101.420692	81.000000	63.000000
101.420692	101.778003	74.000000	59.000000
101.420692	101.778003	79.000000	67.000000
101.420692	101.778003	71.000000	56.000000
101.778003	102.135327	77.000000	61.000000
101.778003	102.135327	72.000000	54.000000
101.778003	102.135327	69.000000	53.000000
102.135327	102.492638	76.000000	59.000000
102.135327	102.492638	71.000000	53.000000
102.135327	102.492638	67.000000	52.000000
102.492638	102.849962	75.000000	55.000000
102.492638	102.849962	69.000000	50.000000
102.492638	102.849962	65.000000	47.000000
102.849962	103.207272	68.000000	47.000000
102.849962	103.207272	76.000000	52.000000
102.849962	103.207272	64.000000	44.000000
103.207272	103.570873	79.000000	57.000000
103.207272	103.570873	73.000000	57.000000
103.207272	103.570873	57.000000	48.000000
103.570873	103.934822	72.000000	50.000000
103.570873	103.934822	78.000000	55.000000
103.570873	103.934822	50.000000	46.000000
103.934822	104.300542	71.000000	47.000000
103.934822	104.300542	77.000000	52.000000
103.934822	104.300542	43.000000	38.000000
104.300542	104.667347	70.000000	44.000000
104.300542	104.667347	76.000000	49.000000
104.300542	104.667347	36.000000	37.000000
104.667347	105.035212	69.000000	46.000000
104.667347	105.035212	75.000000	46.000000
104.667347	105.035212	41.000000	34.000000
105.035212	105.404566	74.000000	44.000000
105.035212	105.404566	68.000000	38.000000
105.035212	105.404566	40.000000	32.000000
105.404566	105.774671	73.000000	42.000000
105.404566	105.774671	67.000000	37.000000
105.404566	105.774671	45.000000	32.000000
105.774671	106.122017	74.000000	44.000000
105.774671	106.122017	66.000000	38.000000
105.774671	106.122017	38.000000	32.000000
106.122017	106.469364	65.000000	37.000000
106.122017	106.469364	71.000000	42.000000
106.122017	106.469364	31.000000	32.000000
106.469364	106.816710	72.000000	44.000000
106.469364	106.816710	64.000000	38.000000
106.469364	106.816710	36.000000	32.000000
106.816710	107.169971	67.000000	44.000000
106.816710	107.169971	73.000000	49.000000
106.816710	107.169971	45.000000	32.000000
107.169971	107.522574	66.000000	47.000000
107.169971	107.522574	74.000000	52.000000
107.169971	107.522574	38.000000	35.000000
107.522574	107.877860	65.000000	40.000000
107.522574	107.877860	71.000000	46.000000
107.522574	107.877860	31.000000	35.000000
107.877860	108.276423	64.000000	36.000000
107.877860	108.276423	72.000000	40.000000
107.877860	108.276423	36.000000	31.000000
108.276423	108.674986	73.000000	34.000000
108.276423	108.674986	67.000000	30.000000
108.276423	108.674986	45.000000	31.000000
108.674986	109.163363	74.000000	34.000000
108.674986	109.163363	66.000000	30.000000
108.674986	109.163363	38.000000	28.000000
109.163363	109.671695	71.000000	31.000000
109.163363	109.671695	65.000000	28.000000
109.163363	109.671695	26.000000	28.000000
109.671695	110.073021	72.000000	45.000000
109.671695	110.073021	64.000000	39.000000
109.671695	110.073021	69.000000	45.000000
109.671695	109.939246	33.000000	37.000000
109.939246	110.206796	45.000000	35.000000
110.073021	110.493324	72.000000	48.000000
110.073021	110.493324	69.000000	43.000000
110.206796	110.493324	52.000000	37.000000
110.493324	112.098694	74.000000	33.000000
110.493324	112.098694	65.000000	29.000000
110.493324	112.098694	69.000000	29.000000
110.493324	112.098694	45.000000	28.000000
110.493324	112.098694	50.000000	31.000000
112.098694	112.500020	72.000000	46.000000
112.098694	112.500020	69.000000	40.000000
112.098694	112.366244	33.000000	32.000000
112.366244	112.633795	45.000000	36.000000
112.500020	112.922226	72.000000	47.000000
112.500020	112.922226	69.000000	42.000000
112.633795	112.922226	52.000000	38.000000
112.922226	114.527583	68.000000	29.000000
112.922226	114.527583	62.000000	33.000000
112.922226	114.527583	71.000000	33.000000
112.922226	114.527583	45.000000	26.000000
112.922226	114.527583	53.000000	29.000000
114.527583	114.928922	66.000000	39.000000
114.527583	114.928922	69.000000	45.000000
114.527583	114.795147	33.000000	33.000000
114.795147	115.062698	45.000000	33.000000
114.928922	115.349225	66.000000	37.000000
114.928922	115.349225	69.000000	43.000000
115.062698	115.349225	48.000000	33.000000
115.349225	116.170799	60.000000	37.000000
115.349225	116.170799	72.000000	42.000000
115.349225	116.992374	45.000000	25.000000
115.349225	116.992374	51.000000	28.000000
116.170799	116.992374	69.000000	37.000000
116.170799	116.992374	66.000000	33.000000
116.992374	117.813935	68.000000	35.000000
116.992374	117.813935	64.000000	31.000000
116.992374	119.544538	40.000000	26.000000
117.266228	117.540081	47.000000	27.000000
117.540081	119.544538	52.000000	27.000000
117.813935	119.544538	68.000000	26.000000
117.813935	119.544538	59.000000	26.000000
117.813935	119.544538	71.000000	29.000000
119.544538	119.932144	69.000000	44.000000
119.544538	119.932144	72.000000	49.000000
119.544538	119.802942	33.000000	37.000000
119.802942	120.061346	45.000000	40.000000
119.932144	120.342321	72.000000	52.000000
119.932144	120.342321	69.000000	47.000000
120.061346	120.342321	52.000000	45.000000
120.342321	121.892706	73.000000	42.000000
120.342321	121.892706	64.000000	42.000000
120.342321	121.892706	76.000000	47.000000
120.342321	121.892706	45.000000	36.000000
120.342321	121.892706	57.000000	40.000000
121.892706	122.286039	74.000000	50.000000
121.892706	122.286039	77.000000	56.000000
121.892706	122.154932	38.000000	43.000000
122.154932	122.417145	50.000000	46.000000
122.286039	122.698134	74.000000	54.000000
122.286039	122.698134	77.000000	60.000000
122.417145	122.698134	57.000000	48.000000
122.698134	124.383997	78.000000	53.000000
122.698134	124.383997	69.000000	53.000000
122.698134	124.383997	81.000000	59.000000
122.698134	124.383997	51.000000	40.000000
122.698134	124.383997	60.000000	46.000000
124.383997	124.825502	79.000000	61.000000
124.383997	126.078256	72.000000	55.000000
124.383997	124.825502	67.000000	55.000000
124.383997	124.678329	40.000000	44.000000
124.678329	124.972675	52.000000	44.000000
124.825502	125.267008	67.000000	55.000000
124.825502	125.267008	79.000000	61.000000
124.972675	125.267008	55.000000	44.000000
125.267008	126.078256	76.000000	61.000000
125.267008	126.078256	68.000000	55.000000
125.267008	126.483886	60.000000	40.000000
125.267008	126.078256	52.000000	36.000000
126.078256	126.890805	69.000000	47.000000
126.078256	126.890805	72.000000	53.000000
126.078256	126.890805	53.000000	37.000000
126.483886	126.890805	57.000000	32.000000
126.890805	129.417460	64.000000	44.000000
126.890805	127.733019	68.000000	44.000000
126.890805	127.733019	71.000000	49.000000
126.890805	129.417460	76.000000	49.000000
126.890805	127.311912	52.000000	47.000000
127.311912	129.417460	52.000000	46.000000
127.733019	129.417460	69.000000	52.000000
127.733019	128.575233	48.000000	44.000000
128.575233	129.417460	45.000000	46.000000
129.417460	130.309269	59.000000	35.000000
129.417460	132.286863	52.000000	31.000000
129.417460	130.309269	56.000000	31.000000
129.417460	132.286863	64.000000	35.000000
129.863365	130.309269	40.000000	35.000000
130.309269	132.286863	57.000000	30.000000
130.309269	131.298066	36.000000	37.000000
131.298066	132.531386	33.000000	28.000000
132.286863	132.653655	72.000000	38.000000
132.286863	132.653655	69.000000	34.000000
132.531386	132.775924	45.000000	26.000000
132.653655	133.020447	69.000000	34.000000
132.653655	133.020447	72.000000	38.000000
132.775924	133.020447	52.000000	25.000000
133.020447	133.408054	71.000000	37.000000
133.020447	133.408054	74.000000	42.000000
133.020447	133.408054	65.000000	37.000000
133.020447	133.278852	45.000000	25.000000
133.278852	133.537256	50.000000	25.000000
133.408054	133.795660	72.000000	38.000000
133.408054	133.795660	69.000000	34.000000
133.537256	133.795660	53.000000	25.000000
133.795660	134.602885	71.000000	36.000000
133.795660	134.602885	65.000000	36.000000
133.795660	134.602885	74.000000	40.000000
133.795660	134.602885	45.000000	25.000000
134.602885	134.973673	69.000000	37.000000
134.602885	134.973673	72.000000	42.000000
134.602885	134.850077	33.000000	25.000000
134.850077	135.097270	45.000000	26.000000
134.973673	135.344462	72.000000	35.000000
134.973673	135.344462	69.000000	35.000000
135.097270	135.344462	52.000000	27.000000
135.344462	135.736521	68.000000	40.000000
135.344462	135.736521	62.000000	40.000000
135.344462	135.736521	71.000000	40.000000
135.344462	135.605830	45.000000	28.000000
135.605830	135.867212	53.000000	27.000000
135.736521	136.128580	65.000000	37.000000
135.736521	136.128580	69.000000	37.000000
135.867212	136.128580	50.000000	27.000000
136.128580	136.912684	62.000000	36.000000
136.128580	136.912684	71.000000	36.000000
136.128580	136.912684	68.000000	36.000000
136.128580	136.912684	45.000000	27.000000
136.912684	137.281421	66.000000	35.000000
136.912684	137.281421	69.000000	39.000000
136.912684	137.158508	33.000000	26.000000
137.158508	137.404333	45.000000	28.000000
137.281421	137.650158	66.000000	36.000000
137.281421	138.018908	69.000000	40.000000
137.404333	137.650158	48.000000	30.000000
137.650158	138.018908	60.000000	40.000000
137.650158	138.018908	72.000000	46.000000
137.650158	137.895996	45.000000	33.000000
137.895996	138.141820	54.000000	31.000000
138.018908	138.387645	68.000000	37.000000
138.018908	138.387645	71.000000	43.000000
138.141820	138.387645	51.000000	31.000000
138.387645	138.756382	69.000000	37.000000
138.387645	138.756382	60.000000	37.000000
138.387645	138.756382	72.000000	43.000000
138.387645	138.633470	45.000000	29.000000
138.633470	138.879294	54.000000	29.000000
138.756382	139.125119	66.000000	36.000000
138.756382	139.125119	69.000000	40.000000
138.879294	139.125119	51.000000	29.000000
139.125119	139.897716	64.000000	35.000000
139.125119	139.897716	68.000000	39.000000
139.125119	141.510409	40.000000	27.000000
139.382651	139.640184	47.000000	28.000000
139.640184	141.510409	52.000000	28.000000
139.897716	141.510409	59.000000	30.000000
139.897716	141.510409	71.000000	34.000000
139.897716	141.510409	68.000000	30.000000
141.510409	141.896567	69.000000	40.000000
141.510409	141.896567	72.000000	46.000000
141.510409	141.767847	33.000000	35.000000
141.767847	142.025286	45.000000	37.000000
141.896567	142.282725	69.000000	40.000000
141.896567	142.282725	72.000000	46.000000
142.025286	142.282725	52.000000	39.000000
142.282725	143.067379	67.000000	47.000000
142.282725	143.067379	73.000000	47.000000
142.282725	143.067379	76.000000	53.000000
142.282725	142.540566	45.000000	42.000000
142.540566	142.801665	57.000000	44.000000
142.801665	143.067379	50.000000	47.000000
143.067379	143.892896	71.000000	53.000000
143.067379	143.892896	77.000000	59.000000
143.067379	143.892896	65.000000	53.000000
143.067379	143.337866	62.000000	46.000000
143.337866	146.224502	57.000000	48.000000
143.612820	146.224502	69.000000	50.000000
143.892896	146.224502	79.000000	72.000000
143.892896	146.224502	73.000000	64.000000
143.892896	146.224502	64.000000	53.000000
146.224502	146.613114	77.000000	56.000000
146.224502	146.613114	74.000000	50.000000
146.224502	146.483576	38.000000	42.000000
146.483576	146.742651	50.000000	45.000000
146.613114	147.001712	74.000000	55.000000
146.613114	147.001712	77.000000	61.000000
146.742651	147.001712	57.000000	49.000000
147.001712	147.390311	78.000000	63.000000
147.001712	147.390311	81.000000	70.000000
147.001712	147.390311	72.000000	70.000000
147.001712	147.259969	50.000000	52.000000
147.259969	147.521471	62.000000	55.000000
147.390311	147.786326	79.000000	72.000000
147.390311	147.786326	70.000000	57.000000
147.521471	147.786326	55.000000	54.000000
147.786326	148.191394	76.000000	65.000000
147.786326	148.191394	73.000000	65.000000
147.786326	148.191394	82.000000	72.000000
147.786326	148.055486	67.000000	58.000000
148.055486	149.444750	62.000000	58.000000
148.191394	148.604534	69.000000	64.000000
148.191394	148.604534	81.000000	71.000000
148.191394	148.604534	78.000000	64.000000
148.328200	148.604534	74.000000	63.000000
148.604534	151.008882	72.000000	73.000000
148.604534	151.008882	84.000000	81.000000
148.604534	151.008882	78.000000	73.000000
148.604534	151.008882	69.000000	66.000000
149.444750	151.008882	63.000000	60.000000
151.008882	152.639438	72.000000	54.000000
151.008882	151.845249	67.000000	54.000000
151.008882	151.427065	79.000000	60.000000
151.008882	151.287671	40.000000	45.000000
151.287671	151.566460	52.000000	45.000000
151.427065	151.845249	79.000000	60.000000
151.566460	151.845249	55.000000	42.000000
151.845249	152.242350	77.000000	56.000000
151.845249	152.639438	68.000000	56.000000
151.845249	152.639438	52.000000	40.000000
152.109983	152.639438	60.000000	37.000000
152.242350	152.639438	76.000000	54.000000
152.639438	153.036526	74.000000	54.000000
152.639438	153.433614	69.000000	54.000000
152.639438	153.433614	53.000000	37.000000
152.904159	153.433614	57.000000	37.000000
153.036526	153.433614	72.000000	50.000000
153.433614	154.246404	68.000000	45.000000
153.433614	155.871984	76.000000	50.000000
153.433614	155.871984	64.000000	45.000000
153.433614	154.246404	71.000000	50.000000
153.433614	153.840009	52.000000	37.000000
153.840009	155.871984	52.000000	34.000000
154.246404	155.871984	69.000000	49.000000
154.246404	154.652799	50.000000	37.000000
154.652799	155.059194	48.000000	35.000000
155.059194	155.465589	47.000000	38.000000
155.465589	155.871984	45.000000	34.000000
155.871984	157.610500	56.000000	32.000000
155.871984	157.610500	64.000000	36.000000
155.871984	157.610500	59.000000	36.000000
155.871984	159.634536	52.000000	32.000000
156.293990	156.724297	40.000000	31.000000
156.724297	157.610500	38.000000	29.000000
157.610500	159.634536	57.000000	29.000000
157.610500	158.534012	36.000000	27.000000
158.534012	159.634536	35.000000	25.000000
159.634536	160.735047	33.000000	26.000000
