OnsetTime	OffsetTime	MidiPitch	Velocity
0.53199	1.74597	34	61
0.53199	1.74597	46	77
0.664987	1.74597	51	89
0.668984	1.74597	27	59
0.668984	1.74597	39	70
1.60298	1.74597	43	61
1.60298	1.74597	55	77
1.60698	1.74597	31	51
1.73598	1.86497	56	83
1.73897	1.86898	32	56
1.73897	1.86898	44	66
2.27198	2.40797	57	81
2.27497	2.40897	33	55
2.27497	2.40897	45	64
2.83797	3.96796	46	70
2.83797	3.87896	58	89
2.83897	3.96796	34	59
3.87496	3.99796	82	70
3.87496	3.99696	87	84
3.87596	3.99796	79	70
3.87795	4.00096	63	56
3.87795	4.00096	67	67
3.87795	3.99997	75	70
3.87896	4.00396	58	56
3.88195	4.00496	55	56
4.77396	5.97196	34	61
4.77396	5.97095	46	77
4.90395	5.97795	51	89
4.90595	5.97795	39	70
4.90696	5.97795	27	59
5.83495	5.97795	55	77
5.83795	5.97795	31	50
5.83795	5.97795	43	61
5.96795	6.09695	58	83
5.97095	6.10094	46	67
5.97196	6.10094	34	56
6.50596	6.64594	60	81
6.50695	6.64695	36	55
6.50695	6.64695	48	66
7.06294	8.19993	49	70
7.06294	8.19993	61	89
7.06395	8.19993	37	59
8.09894	8.22894	87	70
8.09894	8.22794	91	85
8.10194	8.23193	82	70
8.10295	8.23494	70	67
8.10295	8.23294	79	70
8.10394	8.23494	67	56
8.10594	8.23893	58	56
8.10594	8.23594	63	56
9.00493	10.1919	48	77
9.00893	10.1929	26	49
9.00893	10.1919	36	61
9.13793	10.1929	51	89
9.13894	10.1929	27	59
9.13894	10.1929	39	70
10.0559	10.1929	56	64
10.0569	10.1929	32	44
10.0569	10.1929	44	52
10.1889	10.5449	60	72
10.1919	10.5449	36	47
10.1919	10.5449	48	56
10.5379	10.9229	61	75
10.5389	10.9229	37	49
10.5389	10.9229	49	59
10.9159	11.4159	50	63
10.9159	11.4159	62	79
10.9169	11.4159	38	53
11.3229	12.4529	51	70
11.3229	12.3659	63	89
11.3239	12.4529	39	59
12.3609	12.4909	92	84
12.3619	12.4919	84	70
12.3619	12.4909	87	70
12.3629	12.4919	80	70
12.3649	12.4949	72	67
12.3659	12.4959	63	56
12.3659	12.4949	68	56
12.3679	12.4979	60	56
13.2709	14.4279	48	77
13.2719	14.4339	26	49
13.2749	14.4279	36	61
13.4059	14.4339	51	89
13.4069	14.4339	39	70
13.4079	14.4339	27	59
14.2979	14.4339	56	70
14.3009	14.4339	32	56
14.3009	14.4339	44	56
14.4279	14.9619	36	45
14.4279	14.9619	48	53
14.4279	14.9619	60	68
14.6819	14.9619	63	70
14.6829	14.9619	39	49
14.6829	14.9619	51	58
14.9559	15.5609	52	62
14.9559	15.5609	64	74
14.9569	15.5609	40	52
15.2499	15.5609	65	79
15.2529	15.5609	41	57
15.2529	15.5609	53	68
15.5469	16.6079	66	89
15.5479	16.7159	54	70
15.5509	16.7159	42	59
16.6039	16.7519	90	70
16.6039	16.7509	93	84
16.6049	16.7539	81	70
16.6049	16.7519	84	70
16.6079	16.7578	66	56
16.6079	16.7549	72	56
16.6079	16.7539	75	67
16.6109	16.7578	63	56
18.1058	18.1899	63	43
18.1058	18.1899	68	43
18.1069	18.1929	54	34
18.1069	18.1929	60	34
18.3919	18.4839	65	43
18.3958	18.4839	71	43
18.3968	18.4839	56	34
18.3989	18.4848	62	34
18.6788	18.7598	66	47
18.6799	18.7638	57	39
18.6799	18.7598	72	47
18.6828	18.7638	63	39
18.9488	19.0258	68	43
18.9518	19.0258	74	43
18.9528	19.0288	59	35
18.9558	19.0288	65	35
19.2068	19.2808	69	43
19.2078	19.2848	60	35
19.2078	19.2818	75	43
19.2108	19.2858	66	35
19.4638	19.5398	62	39
19.4638	19.5368	71	47
19.4638	19.5378	77	47
19.4648	19.5408	68	39
19.7048	19.7748	72	43
19.7088	19.7788	63	34
19.7088	19.7788	78	43
19.7098	19.7788	69	34
19.9428	20.0088	74	43
19.9458	20.0098	80	43
19.9468	20.0098	65	34
19.9468	20.0098	71	34
20.1698	20.2328	75	47
20.1708	20.2338	81	47
20.1738	20.2368	66	39
20.1738	20.2378	72	39
20.3908	20.4538	77	45
20.3908	20.4538	83	45
20.3918	20.4548	68	37
20.3948	20.4578	74	37
20.6038	20.6708	78	45
20.6078	20.6708	84	45
20.6088	20.6718	69	37
20.6088	20.6718	75	37
20.8208	20.8838	80	47
20.8218	20.8848	71	42
20.8218	20.8848	86	47
20.8248	20.8878	77	42
21.0318	21.0948	81	48
21.0318	21.0948	87	48
21.0328	21.0948	72	42
21.0328	21.0978	78	42
21.2378	21.2968	83	49
21.2388	21.2978	74	43
21.2388	21.2978	89	49
21.2408	21.3008	80	43
21.4378	21.5008	75	43
21.4378	21.4998	84	50
21.4378	21.5008	90	50
21.4388	21.5038	81	43
21.6328	21.6928	86	51
21.6338	21.6928	92	51
21.6368	21.6938	77	44
21.6368	21.6938	83	44
21.8218	21.8818	87	52
21.8268	21.8828	93	52
21.8288	21.8828	78	44
21.8298	21.8848	84	44
22.0118	22.0678	89	54
22.0118	22.0678	95	54
22.0128	22.0708	80	45
22.0148	22.0708	86	45
22.1968	22.2488	90	56
22.1978	22.2498	81	46
22.1978	22.2498	96	56
22.1998	22.2528	87	46
22.3758	22.4278	91	58
22.3758	22.4278	97	58
22.3788	22.4278	82	49
22.3788	22.4318	88	49
22.5498	22.5888	92	61
22.5508	22.5918	83	50
22.5508	22.5918	98	61
22.5538	22.5958	89	50
22.6838	22.7258	93	63
22.6838	22.7258	99	63
22.6868	22.7258	84	51
22.6868	22.7278	90	51
22.8128	22.8508	94	64
22.8138	22.8548	85	53
22.8138	22.8518	100	64
22.8148	22.8558	91	53
22.9428	22.9848	95	67
22.9458	22.9878	101	67
22.9498	22.9878	86	54
22.9498	22.9888	92	54
23.0718	23.1098	93	59
23.0718	23.1078	96	69
23.0718	23.1068	102	69
23.0758	23.1108	87	59
25.4518	26.3758	75	50
25.8298	27.3378	69	40
25.8308	26.5548	66	33
26.3768	26.4628	77	46
26.4628	26.5578	75	47
26.5578	26.9148	74	50
26.5618	26.9188	65	38
26.9188	27.1708	72	41
26.9198	27.1738	63	38
27.1748	27.6808	62	26
27.2298	27.6819	65	31
27.2898	27.6848	72	30
27.3428	27.6858	77	47
27.6858	28.0588	69	37
28.0599	28.4369	70	37
29.5089	30.7689	70	50
30.2289	31.7379	64	40
30.2299	30.9569	61	36
30.7719	30.8619	72	46
30.8659	30.9579	70	47
30.9579	31.3139	68	50
30.9609	31.3179	60	38
31.3189	31.5739	58	38
31.3189	31.5699	67	41
31.5739	32.0809	57	26
31.6289	33.2079	60	31
31.6819	32.0809	67	30
31.7419	32.0849	72	47
32.0849	32.4519	64	37
32.4559	32.8299	65	37
32.4569	32.8339	56	30
33.9609	35.2099	65	50
34.6639	36.1269	63	40
34.6679	36.1299	44	30
34.6679	36.1279	59	36
35.2129	35.2979	67	46
35.2979	35.3849	65	47
35.3849	35.7279	64	50
35.7279	35.9659	65	41
36.0189	36.8479	58	36
36.0739	36.4699	65	41
36.1309	36.4739	70	45
36.1339	37.6179	55	31
36.1349	37.6219	46	26
36.4739	36.8489	62	37
36.8489	37.2259	63	37
37.5019	38.3319	58	36
37.5619	37.9579	63	35
37.6219	37.9579	71	45
37.6249	39.1369	46	26
37.6249	39.1369	54	31
37.9589	38.3359	62	37
38.3359	38.7099	63	37
39.0179	39.1379	63	31
39.1379	40.6379	53	37
39.1409	40.6419	56	37
39.1409	39.5149	63	37
39.1419	39.8899	47	31
39.1439	40.6429	34	26
39.5149	39.8899	59	31
39.8899	40.2669	63	37
39.8929	40.6429	46	31
40.2679	40.6429	60	31
40.6459	41.1429	63	39
41.1459	41.6429	61	33
41.6439	42.1469	63	33
42.1469	42.6089	62	35
42.6099	42.7249	63	28
42.7259	42.8399	62	28
42.8399	42.9619	61	28
42.963	43.078	62	28
43.078	44.66	58	32
43.134	44.664	62	35
43.201	44.665	67	38
44.665	44.87	56	35
44.667	44.8739	65	35
44.8739	45.063	39	35
45.487	45.6509	46	33
45.5309	45.6519	55	34
45.5729	45.6519	63	35
46.7039	46.8439	46	33
46.7459	46.8449	55	34
46.7779	46.8469	63	36
47.2959	47.4529	39	35
47.8909	48.0519	46	33
47.9359	48.0519	55	34
47.9779	48.0519	63	36
49.1079	49.2519	46	35
49.1499	49.2559	55	37
49.1819	49.2559	63	38
49.6019	49.7419	58	60
49.7429	50.3969	63	68
49.7439	50.4379	39	38
50.3169	50.4589	46	37
50.3479	50.4639	55	38
50.3969	50.7849	63	39
50.7859	50.9149	67	57
50.9149	51.0579	68	57
51.4179	51.5619	46	37
51.4539	51.5659	55	38
51.4919	51.5659	63	39
51.4919	51.6319	69	66
52.0619	53.1999	70	71
52.0629	52.6779	39	38
52.6229	52.7589	46	36
52.6609	52.7599	55	38
52.6959	52.7599	63	40
53.2039	53.2729	75	68
53.7219	53.8689	46	38
53.7639	53.8689	55	39
53.7989	54.2189	67	49
53.7989	54.2189	70	63
53.8019	53.8719	63	41
54.2199	54.2849	65	46
54.2199	54.2859	68	59
54.2879	54.3549	67	47
54.2889	54.3559	70	59
54.3579	54.9009	65	54
54.3589	54.9009	68	69
54.3619	54.9009	39	38
54.8489	55.0309	46	35
54.8899	55.0319	53	37
54.9319	55.0319	56	39
54.9639	55.0339	62	40
55.2159	55.4649	67	60
55.2169	55.4679	64	50
55.4679	55.5339	68	66
55.4689	55.5349	65	51
55.9609	56.1089	53	38
55.9649	56.1089	46	38
55.9999	56.1118	56	39
56.0389	56.1118	67	50
56.0399	56.1158	62	40
56.0399	56.1129	70	64
56.6189	57.8268	67	68
56.6199	57.2738	63	54
56.6229	57.2388	39	38
57.1908	57.3438	46	39
57.2278	57.3438	55	41
57.2748	57.8278	63	42
58.0368	58.4528	58	58
58.2468	58.4528	59	50
58.3728	58.5228	46	37
58.4118	58.5238	55	39
58.4508	58.6388	60	51
58.4518	58.5268	63	40
58.6388	59.0418	61	55
58.8318	59.0418	62	58
59.0238	59.6788	63	68
59.0248	59.6858	39	38
59.5978	59.7418	46	38
59.6398	59.7458	55	39
59.6788	60.0678	63	41
60.0708	60.1928	67	57
60.1978	60.3398	68	57
60.7008	60.8438	46	38
60.7348	60.8448	55	40
60.7768	60.9138	69	66
60.7778	60.8478	63	41
61.2048	62.3628	69	49
61.2548	61.3448	70	44
61.2988	61.4108	72	47
61.3448	61.4748	70	54
61.3488	62.5348	39	38
61.4108	61.5368	72	49
61.4748	61.5998	70	50
61.5368	61.6668	72	47
61.5998	61.7298	70	50
61.6668	61.7928	72	47
61.7298	61.8568	70	50
61.7928	61.9218	72	47
61.8568	61.9858	70	50
61.9008	62.5348	46	38
61.9218	62.0308	72	45
61.9428	62.5348	55	39
61.9858	62.5348	63	41
61.9858	62.0838	70	50
62.0308	62.1358	72	46
62.0838	62.1818	70	50
62.1358	62.2348	72	45
62.1818	62.2968	70	50
62.2348	62.5348	72	47
62.2968	62.4198	70	53
62.3628	62.5348	69	50
62.4198	62.5348	70	50
62.4828	62.5588	79	68
62.4858	62.5588	75	58
63.0108	63.1508	46	38
63.0448	63.1538	55	40
63.0798	63.1538	63	42
63.3638	63.5038	67	49
63.3648	63.5048	70	63
63.5078	63.5668	65	46
63.5088	63.5708	68	59
63.5708	63.6448	67	47
63.5718	63.6448	70	59
63.6478	64.2078	65	54
63.6478	64.2078	68	69
63.6488	64.2078	39	38
64.1378	64.3098	46	37
64.1728	64.3128	53	38
64.2108	64.3128	56	39
64.2468	64.3168	62	41
64.4978	64.7468	64	50
64.4978	64.7478	67	60
64.7478	64.8168	68	66
64.7508	64.8178	65	51
65.2478	65.3938	46	36
65.2858	65.3948	53	38
65.3238	65.3948	62	50
65.3248	65.3958	56	39
65.3248	65.3958	70	64
65.9018	66.5598	63	68
65.9058	66.5738	39	38
66.4758	66.6288	46	35
66.5178	66.6298	55	38
66.5598	67.1088	63	41
67.6548	67.8058	46	34
67.6968	67.8098	55	37
67.7358	67.8098	63	39
68.3098	68.4638	39	38
68.8968	69.0588	46	36
68.9428	69.0598	55	39
68.9848	69.0618	63	42
70.1158	70.2628	46	36
70.1578	70.2638	55	38
70.1928	70.2638	63	41
70.6088	70.7498	70	60
70.7498	71.3658	63	62
70.7508	71.9108	75	74
70.7528	71.9108	39	48
71.2848	71.9108	46	42
71.3228	71.9108	55	46
71.3658	71.9108	63	48
71.7378	71.9108	67	52
71.7398	71.9108	79	62
71.8668	72.0018	68	52
71.8678	72.0018	80	62
72.3488	72.4948	46	39
72.3878	72.4958	55	41
72.4188	72.5658	69	56
72.4228	72.4998	63	44
72.4228	72.5668	81	67
72.8667	72.9438	70	44
72.9448	73.0138	75	46
73.0138	73.1718	82	53
73.0148	74.0978	39	38
73.0948	73.4098	84	41
73.1718	73.3288	82	41
73.2528	74.0978	81	41
73.3288	73.4868	82	41
73.4098	74.0978	84	48
73.4868	73.9838	82	41
73.4928	74.0978	46	39
73.5318	74.0978	55	42
73.5668	73.9028	75	48
73.5678	73.7348	63	46
73.6508	73.8158	70	42
73.7348	74.0978	63	46
73.8158	74.0978	70	52
73.9028	74.0978	75	63
73.9838	74.0978	82	73
74.0708	74.2138	87	81
74.5818	74.7218	46	35
74.6208	74.7218	55	37
74.6558	74.7218	63	38
74.9208	75.0608	67	54
74.9248	75.0638	70	54
75.0648	75.3438	67	33
75.0648	75.3438	70	40
75.1348	75.3438	66	33
75.1358	75.3438	69	40
75.1988	75.3438	65	39
75.2008	75.3438	39	35
75.2008	75.3438	68	49
75.5898	75.7578	79	36
75.5898	75.7578	82	42
75.6248	75.7818	46	31
75.6638	75.7578	78	37
75.6638	75.7578	81	43
75.6648	75.7828	53	33
75.6878	75.7828	56	34
75.7268	75.8448	77	44
75.7288	75.8448	80	50
75.7298	75.7858	62	36
76.0968	76.2798	94	41
76.0978	76.2798	91	36
76.1568	76.2798	90	37
76.1578	76.2798	93	41
76.2208	76.3518	89	44
76.2208	76.3488	92	48
76.6188	76.7518	64	36
76.6188	76.7528	67	42
76.6888	76.8218	46	32
76.6888	76.8228	53	32
76.7238	76.8248	56	34
76.7548	76.8258	65	43
76.7558	76.8288	62	36
76.7558	76.8258	68	49
77.0308	77.1048	67	38
77.0318	77.1088	70	44
77.3248	78.5337	67	52
77.3258	77.9758	63	44
77.3298	77.8888	39	35
77.8928	78.0468	46	35
77.9338	78.0477	55	37
77.9767	78.5367	63	39
78.7427	79.0927	70	52
78.7437	79.0927	58	52
78.9537	79.1567	59	52
78.9537	79.1777	71	52
79.0787	79.2227	46	37
79.1207	79.2267	55	39
79.1567	79.3697	72	50
79.1597	79.3447	60	50
79.1597	79.2267	63	41
79.3457	79.7577	73	56
79.3497	79.7577	61	56
79.5377	79.7577	74	60
79.5417	79.7577	62	60
79.7297	80.8947	75	84
79.7307	80.3457	63	71
79.7337	80.8947	39	53
80.2687	80.8947	46	42
80.3037	80.8947	55	45
80.3457	80.8947	63	48
80.7237	80.8947	79	66
80.7277	80.8947	67	56
80.8507	80.9897	80	73
80.8537	80.9907	68	61
81.3367	81.4807	46	44
81.3717	81.4807	55	46
81.4097	81.5467	69	66
81.4097	81.5457	81	78
81.4107	81.4817	63	47
81.8377	81.9067	70	44
81.9077	81.9767	75	46
81.9777	83.0517	39	48
81.9777	82.1347	82	60
82.0577	82.3667	84	45
82.1347	82.2857	82	45
82.2087	83.0517	81	45
82.2857	82.4397	82	45
82.3667	83.0517	84	52
82.4397	82.8847	82	45
82.4537	83.0517	46	36
82.4847	83.0517	55	38
82.5167	82.6637	63	40
82.5167	82.8137	75	52
82.5927	82.7367	70	47
82.6637	83.0517	63	51
82.7367	83.0517	70	58
82.8137	83.0517	75	62
82.8847	82.9607	82	68
82.9607	83.0517	82	74
83.0237	83.1707	91	85
83.0247	83.1747	87	75
83.5447	83.6887	46	35
83.5837	83.6887	55	37
83.6187	83.6897	63	38
83.8987	84.0317	67	54
83.8997	84.0317	70	54
84.0357	84.3217	67	33
84.0357	84.3217	70	40
84.1047	84.3217	66	33
84.1057	84.3217	69	40
84.1727	84.3217	65	39
84.1747	84.3217	68	49
84.1757	84.3217	39	35
84.5707	84.7387	82	42
84.5717	84.7387	79	36
84.6057	84.7667	46	31
84.6367	84.7387	81	43
84.6407	84.7387	78	37
84.6417	84.7707	53	33
84.6687	84.7707	56	34
84.7077	84.8267	77	44
84.7077	84.8267	80	50
84.7087	84.7717	62	36
85.0747	85.2597	94	41
85.0787	85.2597	91	36
85.1347	85.2597	90	37
85.1377	85.2597	93	41
85.2007	85.3297	92	48
85.2017	85.3337	89	44
85.5957	85.7327	64	36
85.5997	85.7327	67	42
85.6667	85.8027	46	32
85.6697	85.8037	53	32
85.7047	85.8037	56	34
85.7367	85.9177	65	41
85.7367	85.9177	68	49
85.7377	85.8057	62	36
85.9187	86.2327	68	38
85.9217	86.2337	72	44
86.2337	86.3487	67	38
86.2347	86.3487	70	44
86.3497	86.9997	63	44
86.3497	87.0177	67	52
86.3527	87.0177	39	35
86.9227	87.0667	46	35
86.9617	87.0667	55	37
86.9997	87.0697	63	39
88.0187	88.1437	46	35
88.0527	88.1487	55	37
88.0877	88.5817	85	69
88.0887	88.5857	82	55
88.0917	88.1507	63	39
88.5857	89.0537	84	58
88.5867	89.0827	39	36
88.5867	89.0827	80	48
88.9917	89.0827	86	43
89.0537	89.1167	84	49
89.0547	89.1797	48	36
89.0817	89.1797	56	38
89.1177	89.2437	79	46
89.1177	89.2437	82	54
89.1207	89.1807	63	40
89.3727	89.5057	80	49
89.3737	89.5067	77	40
89.6357	89.7677	75	43
89.6357	89.7647	79	51
89.8947	90.0277	70	38
89.8947	90.0267	77	46
90.0897	90.2267	51	35
90.1247	90.2267	58	37
90.1567	90.2967	67	46
90.1567	90.2967	75	54
90.1577	90.2277	63	39
90.5667	90.7127	67	48
90.5697	90.7137	63	40
90.7167	91.0467	68	61
90.7177	91.2177	39	36
90.7177	91.2177	65	52
90.9767	91.2177	70	45
91.0467	91.2177	68	45
91.1097	91.2417	64	43
91.1097	91.2417	67	51
91.1407	91.3047	46	36
91.1787	91.3087	53	38
91.2107	91.3087	56	38
91.2427	91.3087	68	56
91.2457	91.3127	62	40
91.2457	91.3097	65	47
91.5007	91.5677	69	54
91.5047	91.5677	66	46
91.7766	92.0547	67	50
91.7766	92.0536	70	59
92.2627	92.3966	51	35
92.3017	92.3977	55	37
92.3297	92.8307	85	69
92.3337	92.8347	82	55
92.3366	92.3977	63	39
92.8347	93.2967	84	58
92.8357	93.3487	39	36
92.8357	93.3487	80	48
93.2407	93.3487	86	43
93.2967	93.4227	48	36
93.2967	93.3657	84	49
93.3307	93.4257	56	38
93.3667	93.4887	82	54
93.3697	93.4887	79	46
93.3707	93.4257	63	40
93.6107	93.7377	80	49
93.6117	93.7377	77	40
93.8667	93.9937	75	43
93.8667	93.9927	79	51
94.1257	94.2557	70	38
94.1257	94.2547	77	46
94.3247	94.4587	51	35
94.3527	94.4587	58	37
94.3887	94.5217	67	46
94.3887	94.5217	75	54
94.3897	94.4587	63	39
94.7947	94.9387	63	40
94.7947	94.9377	67	48
94.9407	95.2707	68	61
94.9417	95.4767	65	52
94.9447	95.4777	39	36
95.2077	95.4777	70	45
95.2707	95.4757	68	45
95.3407	95.4777	64	43
95.3407	95.4777	67	51
95.3757	95.5357	46	36
95.4037	95.5407	53	38
95.4387	95.5407	56	38
95.4757	95.5407	68	56
95.4767	95.5437	62	40
95.4767	95.5427	65	47
95.7287	95.7987	62	46
95.7287	95.7977	70	54
96.0017	96.2847	63	59
96.4947	96.6347	51	35
96.5297	96.6357	55	37
96.5617	97.0346	82	63
96.5647	96.6357	63	39
96.5967	97.0346	87	67
96.6387	97.0377	97	71
97.0377	97.6676	80	64
97.0696	97.6676	87	66
97.1047	97.6676	39	36
97.1047	97.5776	96	69
97.5156	97.6407	94	40
97.5167	97.6676	98	48
97.5767	97.6676	92	42
97.5776	97.6957	48	36
97.5776	97.6676	96	55
97.6047	97.6957	56	38
97.6407	97.7587	91	61
97.6407	97.7587	94	61
97.6436	97.6967	63	40
97.8877	98.0107	92	51
97.8886	98.0107	89	51
98.1367	98.2667	91	56
98.1377	98.2677	87	56
98.3997	98.5326	82	49
98.3997	98.5317	89	49
98.5957	98.7287	51	35
98.6266	98.7316	58	37
98.6586	98.7977	87	55
98.6616	98.7316	63	39
98.6616	98.7986	79	55
99.1407	99.2106	63	40
99.1416	99.2146	67	48
99.2156	99.7326	39	36
99.2156	99.7326	65	52
99.2156	99.5436	68	61
99.4816	99.7326	70	45
99.5436	99.7326	68	45
99.6136	99.7476	64	43
99.6136	99.7476	67	51
99.6486	99.8096	46	36
99.6766	99.8106	53	38
99.7086	99.8106	56	38
99.7486	99.8126	68	56
99.7506	99.8136	62	40
99.7506	99.8136	65	47
100.003	100.07	66	46
100.003	100.07	69	54
100.272	100.559	70	59
100.276	100.56	67	50
100.769	100.906	51	35
100.8	100.906	55	37
100.839	101.245	82	61
100.84	100.909	63	39
100.871	101.315	87	65
100.909	101.315	97	68
101.315	101.938	80	61
101.347	101.938	87	64
101.385	101.852	96	67
101.386	101.938	39	36
101.786	101.914	94	31
101.788	101.938	98	51
101.851	101.938	92	42
101.852	101.973	48	36
101.852	101.938	96	55
101.882	101.973	56	38
101.914	102.04	91	60
101.914	102.036	94	60
101.915	101.977	63	40
102.162	102.288	92	54
102.163	102.288	89	54
102.41	102.544	91	58
102.411	102.545	87	58
102.673	102.806	89	54
102.674	102.807	82	54
102.873	103.009	51	35
102.904	103.01	58	37
102.939	103.01	63	39
102.939	103.08	79	63
102.939	103.079	87	63
103.355	103.503	67	48
103.356	103.503	63	40
103.504	104.349	68	61
103.506	104.059	39	36
103.506	104.35	65	52
103.965	104.14	46	36
104.003	104.141	53	38
104.034	104.141	56	38
104.076	104.143	62	40
104.35	104.657	64	43
104.354	104.675	67	51
104.658	104.745	65	47
104.661	104.745	68	56
105.319	105.41	62	46
105.32	105.414	70	54
105.952	106.033	34	61
106.034	106.803	39	68
106.513	106.695	58	40
106.555	106.698	63	42
106.589	106.698	67	44
106.624	106.699	70	46
106.803	106.897	43	64
106.985	107.076	44	64
107.164	107.258	45	68
107.349	107.451	46	64
107.541	107.636	51	64
107.622	107.797	67	40
107.657	107.797	70	42
107.692	107.801	75	44
107.727	107.819	55	68
107.727	107.801	79	46
107.912	108.0	56	64
108.095	108.139	57	64
108.14	108.185	57	56
108.186	108.231	58	50
108.232	108.273	60	46
108.276	108.392	58	58
108.334	108.441	60	50
108.392	108.501	58	57
108.441	108.554	60	50
108.501	108.61	58	56
108.554	108.663	60	49
108.61	108.714	58	55
108.663	108.774	60	50
108.714	108.828	58	56
108.725	109.355	79	42
108.76	109.355	82	44
108.774	108.879	60	48
108.792	109.355	87	45
108.827	109.355	91	47
108.828	108.925	58	55
108.879	108.978	60	50
108.925	109.029	58	58
108.978	109.082	60	51
109.029	109.138	58	60
109.082	109.355	60	56
109.138	109.268	58	63
109.201	109.355	57	60
109.268	109.355	58	60
109.33	109.471	63	74
109.823	109.964	46	52
109.851	109.965	55	56
109.893	109.965	63	58
110.31	110.451	70	40
110.314	110.451	67	34
110.451	111.014	68	45
110.454	111.014	39	35
110.454	111.014	65	38
110.594	110.867	75	40
110.595	111.014	72	34
110.727	111.014	70	38
110.727	111.007	74	45
110.866	111.014	79	41
110.867	111.014	75	34
110.898	111.524	46	31
110.93	111.524	53	33
110.968	111.524	56	34
111.004	111.382	77	48
111.007	111.524	62	36
111.007	111.524	74	40
111.126	111.382	80	36
111.126	111.524	84	43
111.248	111.524	82	43
111.249	111.515	79	36
111.382	111.524	77	36
111.382	111.524	80	43
111.515	112.064	79	49
111.516	111.781	75	49
111.648	112.064	77	44
111.651	111.917	74	37
111.781	112.064	75	44
111.783	112.049	72	37
111.917	112.064	70	37
111.917	112.064	74	44
111.983	112.411	46	32
111.983	112.411	53	32
112.011	112.411	56	34
112.049	112.411	72	47
112.05	112.411	62	36
112.05	112.411	68	39
112.187	112.411	70	45
112.189	112.411	67	38
112.326	112.418	69	43
112.327	112.418	66	36
112.592	112.666	68	40
112.593	112.669	65	34
112.669	113.324	67	45
112.673	113.303	39	35
112.673	113.324	63	38
113.243	113.393	46	32
113.282	113.394	55	35
113.325	113.394	63	38
114.422	114.57	46	31
114.461	114.573	55	34
114.5	114.574	63	36
114.997	115.07	34	61
115.073	115.836	39	68
115.546	115.721	58	40
115.581	115.722	63	42
115.617	115.722	67	44
115.658	115.725	70	46
115.836	115.924	43	64
116.017	116.109	44	64
116.197	116.296	45	68
116.389	116.481	46	64
116.583	116.672	51	64
116.661	116.833	67	40
116.693	116.837	70	42
116.732	116.837	75	44
116.763	116.838	79	46
116.764	116.858	55	68
116.949	117.043	56	64
117.139	117.183	57	64
117.183	117.229	57	56
117.233	117.278	58	50
117.278	117.323	60	46
117.324	117.433	58	58
117.383	117.492	60	50
117.433	117.545	58	57
117.492	117.6	60	50
117.545	117.654	58	56
117.6	117.714	60	49
117.654	117.766	58	55
117.714	117.825	60	50
117.766	117.879	58	56
117.772	118.399	79	42
117.804	118.399	82	44
117.825	117.93	60	48
117.842	118.399	87	45
117.878	118.399	91	47
117.879	117.975	58	55
117.93	118.028	60	50
117.975	118.078	58	58
118.028	118.127	60	51
118.078	118.189	58	60
118.127	118.399	60	56
118.189	118.315	58	63
118.252	118.399	57	60
118.315	118.399	58	60
118.375	118.518	67	74
118.378	118.522	63	68
118.868	119.008	46	57
118.903	119.009	55	61
118.937	119.011	63	63
119.361	119.502	70	40
119.362	119.502	67	34
119.502	120.208	67	40
119.505	120.208	39	35
119.505	120.076	70	45
119.614	120.208	66	36
119.614	120.208	69	41
119.73	120.208	65	36
119.73	120.208	68	41
119.852	120.208	72	40
119.853	120.188	75	45
119.96	120.208	71	40
120.058	120.621	46	31
120.076	120.208	70	34
120.079	120.208	74	40
120.103	120.621	53	33
120.146	120.621	56	34
120.188	120.621	75	44
120.191	120.621	62	36
120.191	120.621	79	51
120.304	120.621	78	49
120.425	120.621	74	42
120.429	120.621	77	49
120.552	120.79	84	60
120.555	120.79	80	53
121.626	121.805	79	45
121.627	121.805	76	45
121.808	121.973	77	45
121.808	121.972	80	45
121.976	122.13	76	45
121.977	122.134	73	45
122.134	122.28	74	45
122.135	122.281	77	45
122.284	122.414	72	45
122.285	122.417	69	45
122.417	122.553	70	45
122.418	122.554	74	45
122.554	122.693	67	45
122.556	122.693	71	45
122.588	122.77	46	25
122.623	122.77	53	28
122.658	122.77	56	34
122.694	122.772	68	45
122.697	122.774	62	36
122.697	122.774	72	45
122.849	122.923	64	45
122.85	122.924	67	45
123.0	123.078	67	45
123.0	123.078	70	45
123.154	123.231	65	45
123.158	123.232	68	45
123.312	123.966	63	38
123.312	123.973	67	45
123.315	123.973	39	35
123.882	124.033	46	32
123.921	124.037	55	35
123.966	124.037	63	38
125.065	125.219	46	31
125.107	125.22	55	34
125.142	125.22	63	36
125.636	125.706	58	38
125.706	126.361	63	52
125.71	126.378	39	35
126.2	126.28	67	39
126.28	126.437	46	34
126.28	126.378	67	36
126.319	126.438	55	35
126.361	126.438	63	36
126.361	126.419	68	39
126.44	126.493	68	36
126.511	126.57	69	39
126.595	126.648	69	36
126.669	126.72	70	39
126.745	126.794	70	36
126.815	126.871	75	39
126.89	126.943	75	36
126.96	127.02	79	39
127.034	127.085	79	35
127.103	127.163	80	39
127.18	127.233	80	35
127.254	127.31	81	39
127.331	127.391	81	34
127.407	127.464	82	39
127.481	127.541	82	34
127.482	127.639	46	34
127.523	127.639	55	35
127.558	127.639	63	36
127.558	127.622	87	39
127.643	127.701	87	34
127.719	127.782	91	39
127.807	127.866	91	35
127.891	127.947	92	41
127.972	128.035	92	36
128.051	128.108	93	42
128.132	128.195	93	37
128.213	130.098	93	43
128.214	130.098	39	35
128.301	128.476	94	38
128.392	130.098	96	38
128.476	130.015	94	34
128.563	129.932	91	42
128.644	129.858	87	35
128.727	130.098	84	41
128.804	129.782	82	34
128.808	130.016	46	33
128.846	130.054	55	37
128.882	129.701	79	40
128.883	129.253	63	35
128.961	129.627	75	33
129.032	130.098	72	38
129.103	129.55	70	32
129.179	129.474	67	38
129.253	129.399	63	33
129.33	130.098	62	37
129.399	130.097	63	34
129.474	130.098	67	33
129.55	130.098	70	34
129.627	130.098	75	35
129.701	130.098	79	36
129.782	130.098	82	38
129.858	130.098	87	39
129.932	130.098	91	40
130.015	130.098	94	41
130.016	130.169	46	35
130.054	130.169	55	36
130.097	130.173	63	38
130.097	130.393	99	47
130.548	130.625	67	33
130.548	130.624	70	39
130.698	130.792	68	47
130.701	130.792	65	39
130.702	130.838	39	35
130.891	130.995	82	39
131.104	131.209	67	39
131.107	131.209	64	33
131.192	131.384	46	31
131.234	131.385	53	33
131.272	131.385	56	34
131.314	131.408	68	46
131.315	131.387	62	36
131.315	131.408	65	39
131.5	131.597	94	41
131.702	131.801	70	41
131.703	131.801	67	34
131.912	132.003	72	47
131.913	132.007	68	39
132.101	132.206	82	41
132.308	132.409	74	41
132.309	132.413	70	34
132.459	132.577	46	25
132.476	132.581	53	28
132.49	132.581	56	34
132.507	132.602	75	45
132.511	132.584	62	36
132.511	132.603	72	38
132.7	132.805	94	40
132.906	133.025	77	40
132.907	133.026	74	34
133.159	133.375	75	39
133.159	133.59	79	46
133.162	134.512	39	35
133.274	133.488	77	40
133.275	133.489	70	34
133.375	133.593	75	40
133.379	134.512	67	34
133.488	133.687	77	40
133.489	134.512	70	34
133.59	133.796	79	40
133.593	134.512	75	34
133.687	134.512	77	34
133.69	133.9	82	41
133.718	134.512	46	33
133.757	134.512	55	37
133.796	134.512	79	36
133.796	134.005	87	43
133.797	134.512	63	35
133.897	134.111	89	44
133.9	134.512	82	37
134.003	134.218	91	45
134.005	134.512	87	38
134.111	134.512	89	38
134.111	134.324	94	45
134.218	134.512	91	39
134.218	134.433	99	46
134.324	134.512	94	39
134.324	134.512	101	47
134.433	134.59	99	57
134.435	134.59	103	57
134.963	135.118	46	35
135.005	135.118	55	36
135.041	135.118	63	38
135.498	135.635	58	38
135.635	136.29	63	52
135.639	136.291	39	35
136.126	136.206	67	39
136.206	136.291	67	36
136.207	136.367	46	34
136.248	136.367	55	35
136.286	136.353	68	39
136.29	136.371	63	36
136.371	136.427	68	36
136.443	136.5	69	39
136.521	136.578	69	36
136.595	136.652	70	39
136.669	136.729	70	36
136.746	136.798	75	39
136.816	136.875	75	36
136.893	136.945	79	39
136.959	137.019	79	35
137.037	137.088	80	39
137.114	137.166	80	35
137.183	137.239	81	39
137.257	137.313	81	34
137.334	137.39	82	39
137.415	137.572	46	34
137.415	137.474	82	34
137.449	137.572	55	35
137.491	137.554	87	39
137.492	137.573	63	36
137.575	137.635	87	34
137.653	137.716	91	39
137.732	137.796	91	35
137.813	137.88	92	41
137.901	137.961	92	36
137.982	138.04	93	42
138.066	138.121	93	37
138.146	140.026	93	43
138.147	140.026	39	35
138.234	138.409	94	38
138.322	140.022	96	38
138.409	139.945	94	34
138.497	139.865	91	42
138.576	139.791	87	35
138.65	140.026	84	41
138.734	139.707	82	34
138.735	139.949	46	33
138.772	139.98	55	37
138.815	139.634	79	40
138.818	139.186	63	35
138.891	139.557	75	33
138.965	140.026	72	38
139.035	139.483	70	32
139.113	139.407	67	38
139.186	139.333	63	33
139.256	140.026	62	37
139.333	140.025	63	34
139.407	140.026	67	33
139.483	140.026	70	34
139.557	140.026	75	36
139.634	140.026	79	38
139.707	140.026	82	41
139.791	140.026	87	43
139.865	140.026	91	45
139.945	140.026	94	47
139.949	140.102	46	35
139.98	140.103	55	36
140.022	140.33	96	46
140.023	140.33	99	54
140.025	140.103	63	38
140.554	140.607	67	33
140.555	140.607	70	39
140.631	140.723	65	39
140.631	140.722	68	47
140.632	140.771	39	35
140.823	140.925	82	39
141.03	141.142	67	39
141.031	141.143	64	33
141.124	141.31	46	31
141.163	141.31	53	33
141.205	141.313	56	34
141.247	141.335	65	39
141.247	141.331	68	46
141.248	141.314	62	36
141.432	141.531	94	41
141.629	141.737	67	34
141.629	141.733	70	41
141.846	141.937	72	47
141.847	141.937	68	39
142.034	142.136	82	41
142.238	142.342	67	34
142.241	142.343	70	41
142.384	142.51	46	25
142.405	142.512	53	28
142.422	142.514	56	34
142.444	142.535	65	38
142.444	142.535	68	45
142.445	142.514	62	36
142.633	142.731	94	40
142.836	142.946	58	34
142.836	142.947	65	40
143.062	143.644	55	40
143.064	143.805	39	35
143.064	143.679	63	40
143.603	143.805	46	36
143.644	143.805	55	38
143.679	143.805	63	39
144.837	145.436	51	35
144.879	145.436	58	36
144.921	145.436	82	46
144.922	145.436	67	38
145.002	145.178	87	45
145.089	145.436	97	60
145.178	145.345	87	45
145.258	145.436	89	45
145.345	145.436	87	45
145.432	146.493	80	53
145.433	146.493	39	35
145.52	145.692	87	46
145.608	146.493	96	46
145.692	145.873	87	57
145.786	146.493	89	46
145.873	146.493	87	46
145.894	146.493	48	34
145.922	146.493	56	36
145.961	146.493	63	38
145.961	146.493	79	48
146.094	146.493	94	52
146.221	146.493	77	44
146.356	146.493	92	52
146.489	146.987	75	44
146.612	147.109	91	47
146.738	147.49	74	41
146.857	147.49	90	45
146.923	147.49	51	35
146.951	147.49	58	36
146.987	147.49	67	38
146.987	147.49	75	40
147.109	147.358	91	45
147.238	147.49	76	41
147.358	147.49	91	45
147.487	148.508	39	35
147.487	148.002	77	42
147.616	148.131	92	47
147.749	148.508	76	43
147.876	148.508	91	49
147.938	148.508	46	33
147.966	148.508	56	35
148.002	148.508	77	46
148.005	148.508	62	36
148.131	148.508	92	52
148.264	148.508	78	43
148.393	148.515	93	46
148.52	149.006	79	47
148.652	149.006	94	55
148.978	149.545	51	31
149.009	149.545	58	34
149.044	149.545	67	37
149.044	149.545	70	45
149.121	149.293	75	38
149.206	149.545	85	58
149.293	149.454	75	42
149.373	149.545	77	38
149.454	149.545	75	40
149.541	150.063	68	45
149.545	150.063	39	35
149.63	149.798	75	35
149.709	150.063	84	51
149.798	149.973	75	35
149.886	150.063	77	35
149.973	150.063	75	35
149.994	150.539	48	32
150.025	150.539	56	34
150.06	150.539	63	35
150.06	150.539	67	42
150.186	150.539	82	48
150.316	150.539	65	44
150.442	150.567	80	48
150.568	151.072	63	40
150.69	151.072	79	47
150.82	151.072	62	39
150.942	151.072	78	46
151.005	151.576	51	32
151.04	151.576	58	34
151.072	151.576	63	38
151.072	151.576	67	35
151.19	151.447	79	45
151.32	151.576	64	38
151.447	151.576	79	47
151.569	152.086	65	41
151.57	152.611	39	33
151.695	152.212	80	44
151.828	152.611	64	38
151.957	152.611	79	46
152.019	152.611	46	27
152.055	152.611	56	28
152.086	152.6	62	29
152.086	152.611	65	40
152.212	152.611	80	45
152.345	152.611	61	38
152.472	152.611	76	44
152.6	152.927	62	40
152.734	152.927	77	46
153.058	153.637	51	31
153.086	153.637	58	33
153.121	153.637	82	50
153.122	153.637	67	35
153.21	153.379	87	45
153.293	153.637	97	54
153.379	153.546	87	45
153.466	153.637	89	45
153.546	153.637	87	45
153.634	154.701	80	50
153.637	154.701	39	35
153.722	153.9	87	46
153.808	154.701	96	54
153.9	154.075	87	46
153.99	154.701	89	46
154.075	154.701	87	46
154.099	154.701	48	34
154.127	154.701	56	36
154.163	154.701	79	42
154.166	154.701	63	38
154.295	154.701	94	49
154.424	154.701	77	44
154.558	154.701	92	47
154.69	155.191	75	41
154.819	155.318	91	48
154.943	155.692	74	41
155.069	155.692	90	46
155.125	155.692	51	35
155.16	155.692	58	36
155.191	155.692	75	41
155.195	155.692	67	38
155.318	155.566	91	46
155.44	155.692	76	40
155.566	155.692	91	45
155.689	156.206	77	39
155.691	156.71	39	35
155.819	156.34	92	47
155.951	156.71	76	40
156.08	156.71	91	46
156.143	156.71	46	34
156.175	156.71	56	35
156.206	156.71	77	43
156.21	156.71	62	38
156.34	156.71	92	48
156.469	156.71	78	45
156.595	156.727	93	51
156.728	157.211	79	47
156.857	157.211	94	52
157.179	157.75	51	30
157.211	157.75	58	33
157.246	157.75	70	45
157.25	157.75	67	37
157.327	157.494	75	38
157.415	157.75	85	50
157.494	157.658	75	38
157.579	157.75	77	38
157.658	157.75	75	40
157.746	158.267	68	45
157.747	158.267	39	35
157.83	158.006	75	38
157.918	158.267	84	48
158.006	158.176	75	38
158.085	158.267	77	38
158.176	158.267	75	38
158.197	158.781	48	31
158.231	158.781	56	34
158.261	158.774	63	36
158.261	158.781	67	40
158.39	158.781	82	46
158.516	158.781	65	39
158.645	158.781	80	47
158.774	159.272	63	39
158.901	159.274	79	45
159.02	159.274	62	40
159.149	159.274	78	45
159.206	159.783	51	32
159.24	159.783	58	34
159.272	159.783	63	39
159.272	159.783	67	36
159.397	159.65	79	43
159.521	159.783	64	38
159.65	159.783	79	37
159.768	161.326	65	44
159.772	161.326	39	35
159.905	161.326	80	37
160.032	161.326	67	47
160.165	161.326	82	38
160.293	161.326	68	47
160.294	161.32	59	30
160.296	161.323	56	25
160.297	161.322	47	25
160.297	161.322	51	25
160.419	161.326	83	38
160.549	161.326	71	45
160.675	161.326	88	33
160.805	161.326	74	47
160.931	161.326	89	37
161.056	161.326	76	45
161.186	161.326	91	33
161.32	162.316	59	30
161.32	162.33	77	45
161.322	162.32	47	25
161.322	162.321	51	25
161.323	162.321	56	25
161.438	162.33	92	33
161.564	162.33	79	47
161.693	162.33	94	34
161.816	162.33	80	52
161.935	162.33	95	37
162.064	162.33	83	50
162.187	162.33	100	37
162.313	162.81	86	57
162.316	162.811	59	30
162.32	162.813	47	25
162.321	162.814	51	25
162.321	162.814	56	25
162.436	162.823	101	43
162.555	162.823	85	53
162.677	162.823	100	44
162.81	163.322	86	58
162.811	163.324	59	30
162.813	163.324	47	25
162.814	163.324	51	25
162.814	163.325	56	25
162.929	163.338	101	44
163.055	163.338	85	53
163.188	163.338	100	44
163.322	163.857	86	62
163.324	165.134	47	25
163.324	165.134	51	25
163.324	165.134	59	30
163.325	165.134	56	25
163.451	164.605	101	51
163.584	165.134	85	60
163.717	164.91	100	57
163.857	165.134	86	46
163.944	165.057	92	50
164.032	164.451	95	54
164.119	164.368	98	59
164.199	165.134	103	66
164.287	164.525	102	49
164.368	164.686	98	49
164.451	164.756	95	48
164.525	165.134	102	59
164.605	164.84	101	46
164.686	165.134	98	45
164.756	164.983	95	45
164.84	165.134	101	57
164.91	165.133	100	41
164.983	165.134	95	41
165.057	165.134	92	41
165.133	166.194	100	55
165.198	165.407	99	40
165.267	166.194	95	40
165.337	165.541	92	40
165.407	166.194	99	53
165.476	165.673	98	40
165.541	165.799	92	40
165.61	165.869	89	40
165.673	166.194	98	52
165.739	165.935	97	38
165.799	166.058	92	38
165.869	166.12	89	38
165.935	166.194	97	50
165.995	166.185	96	38
166.058	166.194	92	38
166.12	166.194	89	38
166.185	167.216	96	53
166.247	166.435	95	35
166.313	166.999	92	35
166.377	166.562	89	35
166.435	167.216	95	52
166.5	166.685	94	35
166.562	166.811	89	35
166.622	166.877	86	35
166.685	167.216	94	51
166.748	166.933	93	35
166.811	167.063	89	35
166.877	167.13	86	35
166.933	167.216	93	52
166.999	167.199	92	35
167.063	167.216	89	35
167.13	167.216	86	35
167.199	168.224	92	54
167.265	167.455	91	38
167.329	167.577	86	35
167.392	167.643	83	35
167.455	168.224	91	53
167.521	167.707	90	35
167.577	167.832	86	35
167.643	167.899	83	35
167.707	168.224	90	54
167.769	167.962	89	35
167.832	168.224	86	35
167.899	168.085	83	35
167.962	168.224	89	53
168.021	168.221	88	35
168.085	168.224	83	35
168.152	168.224	80	35
168.221	169.264	88	55
168.291	168.483	87	35
168.358	169.264	83	35
168.421	168.606	80	35
168.483	169.264	87	55
168.55	168.735	86	35
168.606	168.854	80	35
168.669	168.918	77	35
168.735	169.264	86	56
168.795	168.981	85	35
168.854	169.11	80	35
168.918	169.18	77	35
168.981	169.264	85	51
169.046	169.25	84	35
169.11	169.264	80	35
169.18	169.264	77	35
169.25	169.312	84	55
169.313	169.505	83	35
169.379	170.08	80	35
169.44	169.632	77	35
169.505	170.303	83	53
169.569	169.761	82	35
169.632	169.887	77	35
169.699	169.954	74	35
169.761	170.303	82	55
169.824	170.017	81	35
169.887	170.142	77	35
169.954	170.22	74	35
170.017	170.303	81	53
170.08	170.289	80	35
170.142	170.303	77	35
170.22	170.303	74	35
170.289	170.814	80	56
170.353	170.545	79	37
170.416	170.679	74	34
170.478	170.742	71	35
170.545	170.814	79	56
170.615	170.807	78	38
170.679	170.814	74	36
170.742	170.814	71	36
170.807	171.332	78	57
170.871	171.06	77	40
170.934	171.332	74	35
170.997	171.193	71	35
171.06	171.332	77	55
171.129	171.323	76	40
171.193	171.332	71	36
171.259	171.332	68	36
171.323	171.872	76	58
171.393	171.591	75	39
171.455	171.872	71	35
171.522	171.717	68	36
171.591	171.872	75	58
171.655	171.851	74	39
171.717	171.872	68	37
171.787	171.872	65	37
171.851	171.92	74	61
171.921	172.116	73	45
171.984	172.252	68	40
172.046	172.317	65	40
172.116	172.396	73	61
172.183	172.383	72	45
172.252	172.396	68	39
172.317	172.396	65	39
172.383	172.946	72	63
172.453	172.659	71	47
172.519	172.946	68	43
172.588	172.789	65	44
172.659	172.946	71	63
172.719	172.946	70	49
172.789	172.946	65	46
172.854	172.946	62	39
172.924	174.224	61	66
173.013	174.224	62	39
173.104	174.224	65	39
173.188	174.224	68	40
173.265	174.224	69	41
173.335	174.224	70	42
173.404	174.224	71	43
173.475	174.224	74	43
173.545	174.224	77	44
173.615	174.224	80	45
173.684	174.224	81	46
173.755	174.224	82	47
173.818	174.224	83	49
173.888	174.224	86	50
173.958	174.224	89	51
174.024	174.224	92	53
174.091	174.224	93	54
174.161	174.224	94	56
174.224	175.843	95	63
174.294	175.843	98	51
174.356	174.493	96	51
174.427	175.843	93	57
174.493	175.843	96	45
174.563	174.692	94	45
174.627	174.893	91	53
174.692	175.843	94	43
174.759	175.843	92	43
174.829	175.843	88	47
174.893	175.843	91	41
174.962	175.843	89	41
175.032	175.843	85	48
175.095	175.843	87	38
175.158	175.298	86	38
175.229	175.843	83	48
175.298	175.843	86	35
175.361	175.494	84	35
175.431	175.843	81	47
175.494	175.843	84	35
175.565	175.697	82	35
175.63	175.843	79	44
175.697	175.843	82	35
175.764	175.843	80	35
175.83	176.667	76	44
175.897	176.667	79	35
175.966	176.667	77	35
176.03	176.667	73	41
176.1	176.667	75	35
176.17	176.309	74	35
176.24	176.667	71	41
176.309	176.667	74	34
176.373	176.517	72	34
176.443	176.667	68	41
176.517	176.667	72	33
176.589	176.667	70	33
176.656	176.943	67	40
176.726	177.538	70	31
176.796	177.538	68	31
176.873	177.538	64	40
176.943	177.538	67	29
177.01	177.538	65	29
177.087	177.538	61	39
177.157	177.538	63	30
177.23	177.381	62	30
177.307	177.538	59	39
177.381	177.538	62	30
177.451	177.538	60	30
177.528	177.854	57	38
177.604	177.766	58	31
177.685	178.076	60	31
177.766	177.94	58	39
177.854	178.076	57	32
177.94	178.076	58	47
178.056	178.101	62	49
178.241	178.433	53	39
178.434	178.605	46	41
178.434	178.773	62	56
178.609	178.931	39	34
178.777	178.857	60	52
178.931	179.088	53	40
179.089	179.396	60	56
179.092	179.239	46	41
179.239	179.554	39	35
179.397	179.47	55	52
179.554	179.707	51	37
179.708	179.827	58	46
179.712	179.865	46	41
179.865	180.17	39	34
179.978	180.015	60	48
180.016	180.131	58	49
180.17	180.323	51	40
180.247	180.324	57	46
180.328	180.488	46	41
180.328	180.485	58	52
180.489	180.807	39	37
180.653	180.73	53	52
180.807	180.884	55	49
180.808	180.961	50	39
180.965	181.115	46	41
180.965	181.03	56	50
181.115	181.192	60	50
181.116	181.416	39	36
181.266	181.335	58	52
181.416	181.493	56	48
181.419	181.567	50	39
181.567	181.717	46	41
181.567	181.643	55	49
181.72	181.769	53	49
181.721	182.025	39	36
181.829	181.868	57	46
181.871	181.945	58	52
182.029	182.19	55	39
182.19	182.297	58	46
182.191	182.339	46	41
182.34	182.641	39	35
182.34	182.413	58	48
182.417	182.49	60	48
182.49	182.599	58	49
182.641	182.791	55	39
182.718	182.795	57	46
182.795	183.117	58	52
182.796	182.955	46	41
182.956	183.284	39	36
183.118	183.159	62	49
183.285	183.453	53	39
183.456	183.768	62	55
183.457	183.61	46	41
183.611	183.921	39	34
183.768	183.849	60	52
183.922	184.086	53	40
184.086	184.387	60	56
184.09	184.236	46	41
184.237	184.544	39	35
184.391	184.465	55	49
184.545	184.702	51	37
184.703	184.859	46	41
184.703	184.818	58	56
184.86	185.161	39	34
184.968	185.007	60	48
185.01	185.126	58	49
185.161	185.315	51	40
185.241	185.318	57	46
185.322	185.48	58	52
185.323	185.48	46	41
185.483	185.798	39	37
185.647	185.721	53	52
185.798	185.874	55	49
185.802	185.955	50	39
185.955	186.029	56	50
185.959	186.099	46	41
186.103	186.407	39	36
186.103	186.179	60	50
186.256	186.333	58	52
186.411	186.557	50	39
186.411	186.484	56	48
186.558	186.634	55	49
186.562	186.712	46	41
186.712	186.784	53	49
186.713	187.012	39	36
186.858	186.935	55	53
187.012	187.162	46	39
187.163	187.313	39	41
187.163	187.765	51	56
187.313	187.614	46	36
187.618	187.769	46	39
187.769	187.842	54	45
187.77	187.919	39	41
187.843	187.92	55	47
187.92	187.992	57	49
187.922	188.07	46	36
187.992	188.07	58	51
188.071	188.107	62	49
188.23	188.395	53	39
188.395	188.714	62	55
188.396	188.549	46	41
188.552	188.871	39	34
188.714	188.793	60	51
188.872	189.032	53	40
189.032	189.333	60	56
189.036	189.182	46	41
189.183	189.49	39	35
189.337	189.416	55	52
189.491	189.655	51	37
189.655	189.763	58	46
189.656	189.805	46	41
189.806	190.113	39	34
189.921	189.953	60	48
189.956	190.071	58	49
190.114	190.26	51	40
190.187	190.264	57	46
190.265	190.424	58	52
190.267	190.425	46	41
190.428	190.743	39	37
190.593	190.67	53	52
190.744	190.827	55	49
190.747	190.901	50	39
190.904	191.052	46	41
190.904	190.975	56	50
191.052	191.128	60	50
191.055	191.353	39	36
191.202	191.279	58	52
191.356	191.503	50	39
191.356	191.429	56	48
191.503	191.58	55	49
191.506	191.656	46	41
191.657	191.969	39	36
191.657	191.712	53	49
191.772	191.807	57	46
191.808	191.888	58	52
191.972	192.126	55	39
192.127	192.242	58	46
192.129	192.277	46	41
192.28	192.578	39	35
192.28	192.353	58	48
192.354	192.427	60	48
192.43	192.543	58	49
192.578	192.731	55	39
192.655	192.732	57	46
192.732	193.053	58	52
192.735	192.893	46	41
192.893	193.225	39	36
193.054	193.095	62	49
193.225	193.389	53	39
193.39	193.704	62	54
193.393	193.547	46	41
193.551	193.869	39	34
193.705	193.785	60	49
193.869	194.023	53	40
194.026	194.327	60	55
194.027	194.177	46	41
194.177	194.482	39	35
194.328	194.408	55	52
194.482	194.638	51	37
194.642	194.754	58	46
194.643	194.796	46	41
194.796	195.104	39	34
194.911	194.946	60	48
194.95	195.062	58	49
195.104	195.255	51	40
195.182	195.258	57	46
195.259	195.424	46	41
195.259	195.423	58	52
195.426	195.741	39	37
195.588	195.661	53	52
195.741	195.819	55	49
195.745	195.895	50	39
195.896	196.042	46	41
195.896	195.969	56	50
196.046	196.12	60	50
196.047	196.347	39	36
196.197	196.273	58	52
196.348	196.498	50	39
196.348	196.42	56	48
196.498	196.575	55	49
196.501	196.648	46	41
196.649	196.95	39	36
196.649	196.725	53	49
196.799	196.875	55	56
196.95	197.103	46	39
197.104	197.253	39	41
197.104	197.554	51	58
197.254	197.555	46	36
197.555	197.705	51	39
197.628	197.706	66	41
197.67	197.708	69	49
197.709	197.856	46	41
197.709	198.007	67	41
197.709	198.006	70	49
197.856	198.5	39	36
198.009	198.346	74	49
198.01	198.346	65	41
198.013	198.347	70	41
198.178	198.685	53	39
198.346	198.685	65	41
198.346	198.685	74	49
198.347	198.685	70	41
198.349	198.685	46	41
198.5	199.13	39	34
198.667	198.976	72	52
198.668	198.98	68	44
198.822	199.284	53	40
198.976	199.284	72	47
198.979	199.284	62	39
198.98	199.284	46	41
198.98	199.284	68	39
199.13	199.749	39	35
199.283	199.599	67	52
199.284	199.91	63	44
199.441	199.91	55	37
199.599	199.907	67	46
199.599	199.907	70	46
199.602	199.91	58	39
199.603	199.91	46	41
199.749	200.379	39	34
199.823	199.91	72	48
199.907	200.219	67	41
199.907	200.216	70	49
200.057	200.554	55	40
200.131	200.554	69	46
200.134	200.554	66	39
200.216	200.554	70	52
200.219	200.554	46	41
200.219	200.554	67	44
200.379	200.694	39	37
200.536	200.617	65	52
200.54	201.149	58	44
200.694	200.771	67	49
200.695	200.844	50	39
200.848	200.918	68	50
200.849	200.995	46	41
200.995	201.072	72	50
200.999	201.3	39	36
201.15	201.222	70	52
201.3	201.373	68	48
201.301	201.45	50	39
201.451	201.6	46	41
201.451	201.527	67	49
201.601	202.209	39	36
201.601	201.681	65	49
201.751	202.052	67	52
201.751	202.056	70	52
201.901	202.371	51	39
202.052	202.361	67	46
202.056	202.371	46	41
202.056	202.371	58	39
202.056	202.36	70	46
202.209	202.816	39	36
202.318	202.371	72	48
202.36	202.665	70	49
202.361	202.668	67	41
202.51	202.969	51	39
202.584	202.969	69	46
202.588	202.969	66	39
202.665	202.969	70	52
202.668	202.969	46	41
202.668	202.969	67	44
202.816	203.46	39	36
202.962	203.298	86	49
202.966	203.298	77	41
202.966	203.299	82	41
203.133	203.638	53	39
203.298	203.638	77	41
203.298	203.638	86	49
203.299	203.638	46	41
203.299	203.638	82	41
203.46	204.086	39	34
203.617	203.935	84	52
203.62	203.939	80	44
203.771	204.241	53	40
203.935	204.241	84	47
203.936	204.241	74	39
203.939	204.241	46	41
203.939	204.241	80	39
204.086	204.706	39	35
204.24	204.859	75	44
204.24	204.548	79	52
204.394	204.859	55	37
204.548	204.859	79	46
204.551	204.859	70	39
204.551	204.856	82	46
204.555	204.859	46	41
204.706	205.332	39	34
204.82	204.859	84	48
204.856	205.168	82	49
204.859	205.169	79	41
205.013	205.51	55	40
205.09	205.51	78	39
205.09	205.51	81	46
205.168	205.51	82	52
205.169	205.51	79	44
205.17	205.51	46	41
205.332	205.646	39	37
205.492	206.105	70	44
205.492	205.57	77	52
205.647	205.8	50	39
205.647	205.72	79	49
205.8	205.871	80	50
205.804	205.954	46	41
205.955	206.256	39	36
205.955	206.028	84	50
206.105	206.707	70	44
206.108	206.179	82	52
206.256	206.332	80	48
206.257	206.406	50	39
206.409	206.483	79	49
206.41	206.557	46	41
206.557	206.633	77	49
206.56	207.162	39	36
206.708	207.012	70	52
206.71	207.323	79	52
206.861	207.323	51	39
207.012	207.618	70	46
207.012	207.618	75	46
207.015	207.614	67	39
207.016	207.323	46	41
207.162	207.771	39	36
207.463	207.932	51	39
207.579	207.932	74	46
207.614	207.932	67	36
207.618	207.932	70	37
207.618	207.932	75	43
207.619	207.932	46	41
207.771	207.932	39	36
207.917	207.991	89	52
207.918	208.527	82	44
208.068	208.149	91	49
208.069	208.223	68	39
208.223	208.299	92	50
208.226	208.373	62	41
208.373	208.45	96	50
208.376	208.527	58	36
208.527	209.129	82	44
208.528	208.6	94	52
208.674	208.751	92	48
208.677	208.828	50	39
208.828	208.901	91	49
208.829	208.978	46	41
208.979	209.129	39	36
208.979	209.052	89	49
209.129	209.448	82	44
209.133	209.451	91	44
209.133	209.451	94	52
209.286	209.764	67	37
209.448	209.759	82	44
209.451	209.764	63	41
209.451	209.763	91	41
209.451	209.763	94	49
209.601	209.764	58	34
209.678	209.764	93	46
209.679	209.764	90	39
209.759	210.431	82	44
209.763	210.431	91	44
209.763	210.431	94	52
209.92	210.431	51	40
210.081	210.431	46	41
210.25	210.431	39	37
210.417	210.487	77	52
210.418	211.023	70	44
210.567	210.644	79	49
210.568	210.718	68	39
210.722	210.795	80	50
210.723	210.868	62	41
210.869	210.945	84	50
210.873	211.023	58	36
211.024	211.623	70	44
211.024	211.096	82	52
211.173	211.246	80	48
211.174	211.323	50	39
211.323	211.397	79	49
211.324	211.474	46	41
211.474	211.55	77	49
211.477	211.623	39	36
211.627	211.93	70	52
211.628	212.247	79	52
211.775	212.247	63	39
211.93	212.533	67	39
211.93	212.535	70	46
211.93	212.535	75	46
211.932	212.247	58	41
212.08	212.247	51	36
212.381	212.856	51	39
212.496	212.856	74	46
212.533	212.856	67	36
212.535	212.856	46	41
212.535	212.856	70	37
212.535	212.856	75	43
212.685	212.856	39	36
212.833	212.912	89	52
212.835	213.441	82	44
212.99	213.14	68	39
212.99	213.067	91	49
213.14	213.29	62	41
213.14	213.213	92	50
213.29	213.367	96	50
213.293	213.441	58	36
213.441	214.049	82	44
213.444	213.52	94	52
213.598	213.671	92	48
213.599	213.748	50	39
213.748	213.825	91	49
213.752	213.902	46	41
213.902	213.969	89	49
213.903	214.053	39	36
214.053	214.364	82	44
214.054	214.368	94	52
214.056	214.368	91	44
214.206	214.68	67	37
214.364	214.677	82	44
214.368	214.679	91	41
214.368	214.679	94	49
214.369	214.68	63	41
214.522	214.68	58	34
214.6	214.68	90	39
214.6	214.68	93	46
214.677	215.351	82	44
214.679	215.351	91	44
214.679	215.351	94	52
214.836	215.351	51	40
215.005	215.351	46	41
215.166	215.351	39	37
215.338	215.414	77	52
215.341	215.971	70	44
215.494	215.579	79	49
215.498	215.659	68	39
215.659	215.739	80	50
215.66	215.816	62	41
215.817	215.974	58	36
215.817	215.897	84	50
215.974	216.615	70	44
215.975	216.052	82	52
216.135	216.209	80	48
216.136	216.293	50	39
216.293	216.374	79	49
216.294	216.453	46	41
216.454	216.538	77	49
216.458	216.618	39	36
216.576	216.618	78	49
216.622	216.705	79	49
216.965	217.336	55	38
216.965	217.336	67	37
216.965	217.15	70	44
216.968	217.34	39	32
217.151	217.245	75	49
217.34	217.521	74	42
217.343	217.711	41	32
217.343	217.711	56	38
217.343	217.706	68	35
217.525	217.616	77	49
217.711	217.896	65	42
217.713	218.102	62	35
217.714	218.103	43	32
217.714	218.103	59	38
217.896	217.994	71	49
218.105	219.31	72	46
218.106	220.175	67	39
218.109	220.175	63	47
218.11	220.175	48	39
218.11	220.175	55	39
219.15	219.807	71	47
219.31	219.636	72	41
219.474	220.175	74	41
219.636	219.979	72	45
219.807	220.175	71	40
219.979	220.175	72	45
220.174	222.835	44	37
220.245	222.81	53	38
220.324	222.835	60	39
220.405	222.835	65	47
220.489	222.835	72	49
220.569	222.835	77	51
222.097	222.572	75	49
222.572	222.835	75	42
222.736	225.106	46	37
222.81	225.106	53	38
222.886	225.107	58	39
222.963	225.107	62	47
223.037	225.11	68	49
223.135	225.11	74	51
225.111	225.296	34	35
225.111	225.295	62	46
225.169	225.298	68	50
225.228	225.299	77	58
225.613	225.701	75	56
225.614	225.704	67	47
225.617	225.704	39	43
225.788	225.865	77	49
225.789	225.866	70	41
225.946	226.026	79	50
225.947	226.026	75	42
225.949	226.03	63	31
225.949	226.03	67	37
225.95	226.03	55	31
226.104	226.195	77	37
226.104	226.194	80	44
226.233	226.282	84	56
226.283	226.366	82	50
226.285	226.366	79	42
226.526	226.607	81	45
226.527	226.608	78	38
226.611	226.695	82	50
226.612	226.698	63	29
226.612	226.696	67	35
226.612	226.695	79	50
226.614	226.698	58	29
226.95	227.223	56	97
226.951	227.223	32	63
226.951	227.223	44	74
227.297	227.381	84	56
227.3	227.381	72	47
227.3	227.382	75	47
227.301	227.382	68	48
227.304	227.385	56	40
227.304	227.385	63	40
227.549	227.615	67	41
227.55	227.615	55	35
227.619	227.703	84	66
227.622	227.707	72	56
227.622	227.707	80	56
227.623	227.71	56	46
227.623	227.708	68	55
227.626	227.71	63	46
227.871	227.955	83	51
227.874	227.956	71	42
227.875	227.956	79	42
227.958	228.036	80	42
227.958	228.036	84	51
227.959	228.039	72	42
228.291	228.616	43	74
228.291	228.616	55	96
228.292	228.616	31	63
228.637	228.722	70	47
228.637	228.722	82	56
228.641	228.723	75	47
228.644	228.725	55	40
228.644	228.725	67	48
228.645	228.725	63	40
228.889	228.959	66	41
228.89	228.959	54	35
228.96	229.046	82	66
228.963	229.048	67	55
228.963	229.047	70	56
228.963	229.047	79	56
228.964	229.051	55	46
228.966	229.051	63	46
229.215	229.295	81	51
229.216	229.295	69	42
229.216	229.296	78	42
229.299	229.376	79	42
229.299	229.376	82	51
229.3	229.377	70	42
229.639	229.961	41	74
229.639	229.961	53	95
229.64	229.961	29	63
229.985	230.072	80	56
229.989	230.075	65	48
229.989	230.073	68	47
229.989	230.073	74	47
229.99	230.076	53	40
229.992	230.076	62	40
230.237	230.307	52	35
230.237	230.307	64	41
230.308	230.394	77	56
230.308	230.39	80	66
230.311	230.395	65	55
230.311	230.395	68	56
230.312	230.397	53	46
230.312	230.398	62	46
230.559	230.643	79	51
230.562	230.643	67	42
230.562	230.643	76	42
230.644	230.723	80	51
230.647	230.727	68	42
230.647	230.724	77	42
230.99	231.256	39	74
230.99	231.252	51	99
230.993	231.256	27	63
231.332	231.416	79	56
231.333	231.421	67	47
231.333	231.423	70	47
231.336	231.424	51	40
231.336	231.424	58	40
231.336	231.423	63	48
231.581	231.651	62	41
231.585	231.654	50	35
231.655	231.746	75	56
231.655	231.745	79	66
231.656	231.746	67	56
231.658	231.749	51	46
231.658	231.749	63	55
231.661	231.75	58	46
231.914	231.994	66	42
231.914	231.993	78	51
231.917	231.994	74	42
231.998	232.082	75	42
231.998	232.081	79	51
232.001	232.085	67	42
232.34	232.424	80	52
232.344	232.425	34	48
232.344	232.425	72	44
232.508	232.592	79	47
232.512	232.593	70	39
232.679	232.76	77	47
232.68	232.761	62	42
232.68	232.761	68	39
232.684	232.764	53	35
232.684	232.764	56	35
232.841	232.929	75	47
232.844	232.929	67	39
233.015	233.096	74	52
233.016	233.1	46	47
233.016	233.097	65	44
233.184	233.268	62	38
233.184	233.265	70	45
233.351	233.439	72	45
233.352	233.443	58	40
233.352	233.439	63	38
233.355	233.443	53	34
233.356	233.444	56	34
233.527	233.622	65	38
233.527	233.621	74	45
233.709	233.789	75	56
233.71	233.79	39	43
233.71	233.789	67	47
233.87	233.95	77	49
233.874	233.951	70	41
234.031	234.111	79	50
234.034	234.115	63	37
234.034	234.111	75	42
234.035	234.115	58	31
234.038	234.118	55	31
234.196	234.283	77	37
234.196	234.282	80	44
234.321	234.37	84	56
234.371	234.451	79	42
234.371	234.451	82	50
234.374	234.452	46	43
234.611	234.692	81	45
234.612	234.696	78	38
234.697	234.773	82	50
234.699	234.776	79	50
234.7	234.78	55	29
234.7	234.777	58	29
234.7	234.776	63	35
235.035	235.119	92	52
235.036	235.119	84	44
235.039	235.12	34	48
235.204	235.288	82	39
235.204	235.287	91	47
235.364	235.448	89	47
235.368	235.448	80	39
235.371	235.452	56	35
235.371	235.449	62	42
235.372	235.452	53	35
235.529	235.616	87	47
235.533	235.617	79	39
235.704	235.784	77	44
235.704	235.784	86	52
235.705	235.788	46	47
235.871	235.952	82	45
235.872	235.956	74	38
236.04	236.128	75	38
236.04	236.128	84	45
236.041	236.131	58	40
236.043	236.131	53	34
236.044	236.131	56	34
236.214	236.309	86	45
236.215	236.31	77	38
236.393	236.478	79	47
236.393	236.478	87	56
236.397	236.479	39	43
236.557	236.638	89	49
236.558	236.639	82	41
236.719	236.8	91	50
236.722	236.803	63	37
236.722	236.8	87	42
236.723	236.807	55	31
236.723	236.803	58	31
236.89	236.978	92	44
236.891	236.979	89	37
237.016	237.062	96	56
237.062	237.142	94	50
237.063	237.146	91	42
237.065	237.146	46	43
237.307	237.387	93	45
237.308	237.387	90	38
237.391	237.475	91	50
237.391	237.474	94	50
237.392	237.479	58	29
237.392	237.475	63	35
237.394	237.479	55	29
237.731	238.014	44	74
237.731	238.014	56	93
237.732	238.014	32	63
238.077	238.161	72	47
238.077	238.16	84	56
238.081	238.165	68	48
238.081	238.161	75	47
238.084	238.165	56	40
238.084	238.165	63	40
238.322	238.399	67	41
238.323	238.399	55	35
238.4	238.483	80	56
238.4	238.482	84	66
238.403	238.487	68	55
238.403	238.487	72	56
238.404	238.49	56	46
238.404	238.49	63	46
238.658	238.746	83	51
238.659	238.746	71	42
238.659	238.749	79	42
238.749	238.83	84	51
238.75	238.83	72	42
238.75	238.83	80	42
239.089	239.396	43	74
239.089	239.396	55	101
239.09	239.396	31	63
239.435	239.52	70	47
239.435	239.519	82	56
239.439	239.521	67	48
239.439	239.52	75	47
239.442	239.522	55	40
239.442	239.523	63	40
239.68	239.757	54	35
239.68	239.756	66	41
239.757	239.841	82	66
239.76	239.842	79	56
239.761	239.848	67	55
239.761	239.844	70	56
239.762	239.849	55	46
239.764	239.849	63	46
240.009	240.1	69	42
240.009	240.097	81	51
240.013	240.1	78	42
240.1	240.18	82	51
240.104	240.181	70	42
240.104	240.181	79	42
240.439	240.771	53	96
240.44	240.771	41	74
240.442	240.771	29	63
240.789	240.87	80	56
240.79	240.871	68	47
240.793	240.877	53	40
240.793	240.873	65	48
240.793	240.871	74	47
240.794	240.878	62	40
241.038	241.108	52	35
241.038	241.107	64	41
241.108	241.195	80	66
241.112	241.199	65	55
241.112	241.196	68	56
241.112	241.196	77	56
241.115	241.2	53	46
241.115	241.2	62	46
241.371	241.451	67	42
241.371	241.454	76	42
241.371	241.45	79	51
241.455	241.532	77	42
241.455	241.531	80	51
241.458	241.535	68	42
241.794	242.105	51	92
241.795	242.105	27	63
241.795	242.105	39	74
242.137	242.224	79	56
242.138	242.224	67	47
242.138	242.225	70	47
242.14	242.225	63	48
242.141	242.228	51	40
242.141	242.228	58	40
242.385	242.462	62	41
242.389	242.463	50	35
242.463	242.546	79	66
242.464	242.55	75	56
242.466	242.551	67	56
242.467	242.553	51	46
242.467	242.554	58	46
242.467	242.551	63	55
242.715	242.798	78	51
242.717	242.799	66	42
242.718	242.799	74	42
242.802	242.886	79	51
242.803	242.887	67	42
242.803	242.886	75	42
243.145	243.225	92	52
243.146	243.226	84	44
243.148	243.229	34	48
243.306	243.39	91	47
243.31	243.39	82	39
243.47	243.551	89	47
243.474	243.552	80	39
243.475	243.555	53	35
243.475	243.554	56	35
243.475	243.554	62	42
243.639	243.726	87	47
243.641	243.727	79	39
243.813	243.901	86	52
243.814	243.902	46	47
243.814	243.901	77	44
243.982	244.066	74	38
243.982	244.062	82	45
244.149	244.234	84	45
244.15	244.235	58	40
244.15	244.234	75	38
244.153	244.235	53	34
244.154	244.237	56	34
244.318	244.405	86	45
244.32	244.406	77	38
244.492	244.573	87	56
244.496	244.577	39	43
244.496	244.573	79	47
244.656	244.73	89	49
244.657	244.731	82	41
244.811	244.892	91	50
244.814	244.892	87	42
244.815	244.899	55	31
244.815	244.895	58	31
244.815	244.895	63	37
244.972	245.063	92	44
244.976	245.064	89	37
245.108	245.15	96	56
245.15	245.231	94	50
245.151	245.232	46	43
245.151	245.231	91	42
245.312	245.392	90	38
245.312	245.393	93	45
245.472	245.553	96	50
245.476	245.557	63	35
245.476	245.553	92	50
245.477	245.557	58	29
245.479	245.56	55	29
245.636	245.717	94	50
245.637	245.721	91	50
245.801	245.886	72	44
245.801	245.886	80	52
245.802	245.887	34	48
245.969	246.046	79	47
245.97	246.05	70	39
246.134	246.215	77	47
246.137	246.218	68	39
246.138	246.222	56	35
246.138	246.218	62	42
246.141	246.222	53	35
246.298	246.379	75	47
246.299	246.38	67	39
246.466	246.547	74	52
246.47	246.551	46	47
246.47	246.547	65	44
246.627	246.715	70	45
246.628	246.716	62	38
246.799	246.883	63	38
246.799	246.882	72	45
246.8	246.887	53	34
246.8	246.886	58	40
246.803	246.887	56	34
246.967	247.051	74	45
246.968	247.052	65	38
247.139	247.219	75	56
247.142	247.223	39	43
247.142	247.219	67	47
247.306	247.39	77	49
247.31	247.391	70	41
247.471	247.555	75	42
247.471	247.552	79	50
247.475	247.556	55	31
247.475	247.555	58	31
247.475	247.555	63	37
247.635	247.719	80	44
247.636	247.72	77	37
247.807	247.888	79	42
247.807	247.887	82	50
247.811	247.891	46	43
247.968	248.052	78	38
247.972	248.053	81	45
248.133	248.219	84	50
248.136	248.22	63	35
248.136	248.22	80	50
248.137	248.224	55	29
248.137	248.221	58	29
248.3	248.381	82	50
248.301	248.381	79	50
248.465	248.546	84	44
248.465	248.542	92	52
248.466	248.549	34	48
248.633	248.713	91	47
248.634	248.713	82	39
248.794	248.882	80	39
248.794	248.881	89	47
248.795	248.882	62	42
248.798	248.885	53	35
248.798	248.885	56	35
248.962	249.049	87	47
248.963	249.05	79	39
249.141	249.224	86	52
249.144	249.225	46	47
249.144	249.225	77	44
249.312	249.393	82	45
249.313	249.393	74	38
249.473	249.561	75	38
249.473	249.56	84	45
249.477	249.564	53	34
249.477	249.565	56	34
249.477	249.561	62	40
249.648	249.729	86	45
249.649	249.732	77	38
249.809	249.9	79	47
249.809	249.896	87	56
249.813	249.901	39	43
249.977	250.061	89	49
249.978	250.061	82	41
250.138	250.222	91	50
250.142	250.223	87	42
250.145	250.226	55	31
250.145	250.225	58	31
250.145	250.223	63	37
250.306	250.387	92	44
250.307	250.387	89	37
250.471	250.554	94	50
250.474	250.555	46	43
250.474	250.555	91	42
250.635	250.716	90	38
250.636	250.716	93	45
250.796	250.877	92	42
250.796	250.876	96	50
250.8	250.883	55	29
250.8	250.881	58	29
250.8	250.88	63	35
250.964	251.052	94	50
250.967	251.052	91	42
251.145	251.226	92	56
251.146	251.227	34	59
251.146	251.227	84	47
251.307	251.388	91	53
251.308	251.391	82	45
251.468	251.552	89	53
251.472	251.553	53	29
251.472	251.553	80	45
251.475	251.555	56	29
251.475	251.555	62	35
251.632	251.72	79	45
251.632	251.72	87	53
251.8	251.881	86	56
251.801	251.882	77	47
251.965	252.06	74	42
251.965	252.06	82	50
252.143	252.224	81	50
252.144	252.228	67	44
252.144	252.227	73	42
252.147	252.228	64	37
252.304	252.392	82	50
252.305	252.396	74	42
252.308	252.396	65	37
252.308	252.396	68	44
252.472	252.556	83	51
252.477	252.557	69	42
252.477	252.557	75	43
252.479	252.56	66	35
252.637	252.721	84	43
252.638	252.721	76	36
252.641	252.722	67	36
252.641	252.722	70	43
252.798	252.882	85	45
252.801	252.883	77	38
252.802	252.883	68	37
252.802	252.883	71	44
252.966	253.05	86	46
252.97	253.05	72	45
252.97	253.05	78	39
252.971	253.051	69	38
253.13	253.211	87	48
253.131	253.212	79	40
253.134	253.214	73	46
253.135	253.214	70	39
253.292	253.376	88	50
253.295	253.376	80	42
253.296	253.379	71	39
253.296	253.377	74	47
253.456	253.536	89	51
253.457	253.54	75	48
253.457	253.537	81	43
253.459	253.541	72	40
253.617	253.694	82	45
253.617	253.694	90	53
253.621	253.698	73	41
253.621	253.695	76	49
253.774	253.855	91	55
253.775	253.856	83	46
253.778	253.858	77	50
253.779	253.858	74	42
253.936	254.02	92	56
253.939	254.02	84	47
253.94	254.021	78	51
253.943	254.023	75	43
254.093	254.173	93	58
254.094	254.178	79	53
254.094	254.177	85	49
254.097	254.18	76	45
254.25	254.328	86	51
254.25	254.328	94	60
254.254	254.331	77	45
254.254	254.329	80	54
254.408	254.486	79	55
254.408	254.486	85	57
254.408	254.485	93	68
254.411	254.486	76	46
254.562	254.646	94	69
254.565	254.646	86	58
254.566	254.647	80	56
254.569	254.65	77	47
254.72	254.8	93	73
254.723	254.803	81	62
254.887	254.982	94	71
254.891	254.986	82	60
255.08	255.43	98	85
255.083	255.431	86	72
255.084	255.79	44	71
255.084	255.431	94	72
255.088	255.79	32	60
255.43	255.79	98	78
255.431	255.79	86	66
255.431	255.79	94	66
255.433	255.79	65	64
255.434	255.79	53	54
255.434	255.79	60	54
255.784	256.105	84	72
255.784	256.102	96	85
255.787	256.106	92	72
255.788	256.462	34	60
255.788	256.462	46	71
256.102	256.462	96	80
256.105	256.462	84	68
256.106	256.462	62	55
256.106	256.462	65	65
256.106	256.462	92	68
256.109	256.462	53	55
256.452	256.778	91	84
256.455	257.856	79	71
256.456	257.128	39	60
256.456	257.128	51	71
256.456	257.856	87	71
256.774	257.124	94	76
256.777	257.125	82	64
256.778	257.456	67	65
256.778	257.127	91	64
256.782	257.457	55	55
256.782	257.457	63	55
257.124	257.453	94	81
257.125	257.454	82	68
257.127	257.454	91	68
257.128	257.856	39	60
257.128	257.856	51	71
257.366	257.856	93	72
257.37	257.856	81	61
257.372	257.856	90	61
257.453	257.856	94	80
257.454	257.856	82	68
257.454	257.856	91	68
257.456	257.856	67	65
257.457	257.856	55	55
257.457	257.856	63	55
257.796	257.88	89	75
257.799	257.88	77	63
257.799	257.881	80	63
257.8	258.448	53	71
257.803	258.448	41	60
257.964	258.448	79	62
257.964	258.448	91	74
257.965	258.443	82	62
258.121	258.448	92	74
258.125	258.448	80	62
258.126	258.286	84	62
258.128	258.448	65	65
258.129	258.448	56	55
258.129	258.448	60	55
258.283	258.448	87	74
258.283	258.448	96	74
258.286	258.448	84	62
258.44	259.099	86	76
258.443	258.77	82	64
258.443	259.091	94	76
258.447	259.099	46	71
258.448	259.099	34	60
258.601	259.099	92	73
258.602	258.934	80	62
258.605	259.099	84	62
258.765	259.092	91	74
258.769	259.099	79	62
258.77	259.094	82	62
258.772	259.099	62	55
258.772	259.099	65	65
258.773	259.099	56	55
258.934	259.099	77	62
258.934	259.099	80	62
258.934	259.099	89	74
259.091	259.424	94	84
259.092	259.423	91	84
259.094	259.424	82	71
259.098	259.771	51	71
259.099	259.774	39	60
259.423	259.77	91	76
259.424	259.771	82	64
259.424	259.77	94	76
259.427	260.099	63	55
259.427	260.096	67	65
259.428	260.099	55	55
259.675	260.46	81	61
259.679	260.46	90	72
259.682	260.46	93	72
259.77	260.46	91	81
259.77	260.456	94	81
259.771	260.46	51	71
259.771	260.46	82	68
259.774	260.46	39	60
260.096	260.46	67	65
260.099	260.46	55	55
260.099	260.46	63	55
260.454	260.834	98	85
260.456	260.834	86	72
260.456	260.835	94	72
260.457	261.216	32	60
260.457	261.216	44	71
260.834	261.216	86	66
260.834	261.216	98	78
260.835	261.216	94	66
260.838	261.216	53	54
260.838	261.216	60	54
260.838	261.216	65	64
261.212	261.549	84	72
261.212	261.548	96	85
261.213	261.549	92	72
261.216	261.92	34	60
261.216	261.92	46	71
261.548	261.92	96	80
261.549	261.92	84	68
261.549	261.92	92	68
261.551	261.92	65	65
261.552	261.92	53	55
261.552	261.92	62	55
261.913	262.242	91	84
261.915	263.315	79	71
261.916	262.585	51	71
261.916	263.315	87	71
261.92	262.585	39	60
262.237	262.58	94	76
262.242	262.92	67	65
262.242	262.581	82	64
262.242	262.584	91	64
262.244	262.921	63	55
262.245	262.921	55	55
262.58	262.916	94	81
262.581	262.917	82	68
262.584	262.917	91	68
262.585	263.315	39	60
262.585	263.315	51	71
262.833	263.315	81	61
262.833	263.315	90	61
262.833	263.315	93	72
262.916	263.315	94	80
262.917	263.315	82	68
262.917	263.315	91	68
262.92	263.315	67	65
262.921	263.315	55	55
262.921	263.315	63	55
263.252	263.34	89	66
263.253	263.34	77	56
263.256	263.91	53	71
263.256	263.344	80	56
263.259	263.91	41	60
263.425	263.91	79	57
263.425	263.91	91	68
263.428	263.901	82	57
263.585	263.91	92	70
263.586	263.91	80	59
263.586	263.91	83	59
263.588	263.91	60	55
263.588	263.91	65	65
263.589	263.91	56	55
263.746	263.91	84	61
263.747	263.91	81	61
263.747	263.91	93	72
263.9	264.566	94	74
263.901	264.566	82	62
263.901	264.566	85	62
263.903	264.566	46	71
263.904	264.566	34	60
264.065	264.566	83	64
264.065	264.566	95	76
264.068	264.397	86	64
264.222	264.566	96	78
264.225	264.566	84	66
264.226	264.566	65	65
264.226	264.562	87	66
264.229	264.566	62	55
264.23	264.566	56	55
264.395	264.566	98	79
264.397	264.566	86	67
264.397	264.566	89	67
264.561	264.642	99	81
264.562	265.384	39	60
264.562	264.643	87	68
264.562	264.643	91	68
264.565	265.384	51	71
265.212	265.384	75	68
265.213	265.384	79	68
265.213	265.384	82	68
265.214	265.384	87	81
265.216	265.384	63	60
265.217	265.384	55	60
265.217	265.384	58	60
265.217	265.384	67	71
266.843	266.91	58	57
266.911	266.987	60	54
266.987	267.064	58	55
267.065	267.134	57	55
267.135	267.207	58	55
267.208	267.288	62	60
267.418	267.515	61	53
267.61	267.693	60	53
267.611	267.694	46	34
267.611	267.698	53	41
267.788	267.876	59	53
267.964	268.055	39	45
267.964	268.055	58	57
268.149	268.233	57	54
268.324	268.409	46	37
268.324	268.412	53	44
268.324	268.408	56	54
268.495	268.59	60	54
268.678	268.761	55	57
268.849	268.944	56	54
269.031	269.118	57	54
269.032	269.119	46	34
269.032	269.119	51	40
269.21	269.255	58	54
269.304	269.347	57	49
269.347	269.391	58	49
269.392	269.43	60	49
269.431	269.511	58	57
269.434	269.512	39	45
269.588	269.668	57	53
269.752	269.843	58	57
269.753	269.843	46	36
269.753	269.844	51	43
269.931	270.021	55	54
270.123	270.214	53	57
270.301	270.389	55	51
270.473	270.568	56	51
270.477	270.571	46	35
270.48	270.571	50	42
270.655	270.742	60	51
270.83	270.918	39	45
270.83	270.918	58	54
271.005	271.096	56	51
271.184	271.272	46	36
271.184	271.271	55	51
271.187	271.272	50	43
271.358	271.446	53	51
271.537	271.625	57	54
271.719	271.803	58	45
271.894	271.979	46	34
271.894	271.978	58	47
271.895	271.982	55	41
272.073	272.16	59	48
272.241	272.329	39	45
272.241	272.328	59	50
272.416	272.5	60	52
272.584	272.672	46	41
272.584	272.671	60	54
272.585	272.672	55	49
272.752	272.839	61	55
272.944	273.035	62	58
273.13	273.214	61	53
273.308	273.403	60	53
273.309	273.404	46	34
273.311	273.404	53	41
273.49	273.574	59	53
273.661	273.756	58	57
273.665	273.756	39	45
273.844	273.931	57	54
274.015	274.103	56	54
274.019	274.103	46	37
274.02	274.106	53	44
274.19	274.277	60	54
274.365	274.456	55	57
274.55	274.638	56	54
274.726	274.813	57	54
274.727	274.813	46	34
274.727	274.814	51	40
274.904	274.949	58	54
274.999	275.037	57	49
275.041	275.079	58	49
275.079	275.125	60	49
275.125	275.205	58	57
275.128	275.209	39	45
275.289	275.37	57	53
275.45	275.545	46	36
275.45	275.542	58	57
275.454	275.545	51	43
275.632	275.716	55	54
275.822	275.908	53	57
275.996	276.084	55	51
276.171	276.262	56	51
276.172	276.263	46	35
276.172	276.265	50	42
276.35	276.437	60	51
276.524	276.612	58	54
276.525	276.613	39	45
276.7	276.791	56	51
276.878	276.966	55	51
276.879	276.969	46	36
276.881	276.969	50	43
277.053	277.141	53	51
277.238	277.326	55	54
277.414	277.501	51	51
277.585	277.68	55	53
277.589	277.68	46	34
277.59	277.683	51	41
277.768	277.854	58	55
277.939	278.026	63	57
277.942	278.026	39	45
278.106	278.197	66	52
278.278	278.366	67	53
278.446	278.533	70	55
278.639	278.713	74	63
278.813	278.898	65	55
278.985	279.321	46	54
278.985	279.321	74	76
278.989	279.321	56	63
279.149	279.321	82	55
279.314	279.392	72	59
279.318	279.64	39	47
279.471	279.559	65	55
279.64	279.955	72	76
279.643	279.955	46	46
279.647	279.955	56	56
279.793	279.955	80	55
279.955	280.032	67	63
280.112	280.189	58	55
280.27	280.606	46	54
280.27	280.606	67	75
280.271	280.606	55	63
280.423	280.606	75	55
280.581	280.651	70	59
280.582	280.886	39	47
280.724	280.808	63	55
280.886	281.191	70	72
280.887	281.191	46	46
280.889	281.191	55	56
281.033	281.191	79	55
281.145	281.191	73	59
281.19	281.257	74	63
281.331	281.4	65	55
281.477	281.788	74	77
281.478	281.788	46	54
281.478	281.788	56	63
281.667	281.788	82	55
281.743	281.788	76	56
281.782	282.054	39	47
281.782	281.848	77	59
281.918	281.985	70	55
282.058	282.36	77	79
282.059	282.36	46	46
282.061	282.36	56	56
282.209	282.36	86	61
282.317	282.36	78	60
282.356	282.422	79	64
282.492	282.562	70	56
282.629	282.934	79	79
282.633	282.934	46	55
282.636	282.934	55	64
282.776	282.934	87	58
282.888	282.934	81	57
282.927	282.986	82	61
282.928	283.196	39	48
283.055	283.126	75	57
283.196	283.486	82	78
283.197	283.486	46	48
283.199	283.486	55	57
283.339	283.486	91	57
283.444	283.486	85	62
283.484	283.549	86	66
283.62	283.689	77	57
283.752	284.047	86	81
283.753	284.047	46	56
283.753	284.047	56	67
283.896	284.047	94	58
284.0	284.047	83	58
284.047	284.308	39	49
284.047	284.106	84	62
284.176	284.239	77	58
284.309	284.594	46	49
284.309	284.594	84	83
284.313	284.594	56	60
284.449	284.594	92	58
284.553	284.594	78	63
284.594	284.655	79	68
284.725	284.792	70	59
284.862	285.146	46	57
284.862	285.146	79	81
284.863	285.146	55	68
285.001	285.146	87	59
285.103	285.146	81	60
285.145	285.209	82	64
285.146	285.408	39	51
285.271	285.341	75	59
285.408	285.692	82	81
285.409	285.692	46	50
285.411	285.692	55	61
285.545	285.692	91	60
285.649	285.692	85	68
285.689	285.754	86	69
285.817	285.883	77	61
285.954	286.241	46	58
285.954	286.241	56	69
285.954	286.241	86	87
286.09	286.241	94	61
286.168	286.241	88	70
286.24	286.3	89	66
286.241	286.5	39	52
286.37	286.433	82	61
286.5	286.788	89	84
286.501	286.788	46	51
286.501	286.788	56	62
286.643	286.788	98	62
286.748	286.788	90	64
286.787	286.853	91	83
286.912	286.979	86	62
287.049	287.357	91	70
287.05	287.357	46	51
287.05	287.357	55	60
287.193	287.357	99	62
287.343	287.858	63	79
287.344	287.637	39	47
287.638	287.931	46	39
287.638	287.932	55	47
287.858	287.934	64	48
287.935	288.019	65	48
288.02	288.114	67	50
288.114	288.198	68	52
288.2	288.495	72	54
288.201	288.495	46	42
288.201	288.495	56	42
288.299	288.495	70	53
288.39	288.495	68	52
288.493	289.051	67	51
288.494	289.051	39	44
288.578	289.051	65	50
288.664	289.051	63	49
288.759	289.051	46	40
288.759	289.051	62	48
288.761	289.051	56	40
288.856	289.051	60	48
288.951	289.051	58	47
289.051	289.139	57	49
289.143	289.226	58	50
289.227	289.317	60	51
289.321	289.632	46	40
289.321	289.632	62	51
289.324	289.632	55	40
289.419	289.632	63	52
289.51	289.632	66	53
289.611	290.164	67	54
289.615	290.164	39	44
289.695	290.164	68	54
289.79	290.164	70	55
289.878	290.164	72	56
289.879	290.164	46	41
289.88	290.164	55	41
289.968	290.126	74	57
290.07	290.164	75	58
290.126	290.248	74	56
290.161	290.249	77	63
290.249	290.339	79	58
290.339	290.427	80	59
290.431	290.711	53	40
290.431	290.7	84	64
290.432	290.714	56	40
290.432	290.714	62	40
290.522	290.7	82	63
290.619	290.718	80	62
290.718	291.27	79	60
290.719	291.27	39	44
290.798	291.27	77	59
290.893	291.27	75	58
290.981	291.27	74	57
290.983	291.27	56	40
290.983	291.27	62	40
290.984	291.27	53	40
291.075	291.27	72	55
291.166	291.27	70	54
291.268	291.351	69	55
291.351	291.439	70	55
291.439	291.522	72	56
291.526	291.795	74	56
291.527	291.802	55	41
291.529	291.803	58	41
291.53	291.805	63	41
291.62	291.795	75	57
291.712	291.806	78	58
291.806	292.356	79	58
291.81	292.356	39	44
291.898	292.356	80	59
291.984	292.356	82	60
292.072	292.356	84	60
292.075	292.356	63	42
292.076	292.356	55	42
292.076	292.356	58	42
292.164	292.313	86	61
292.258	292.356	87	63
292.313	292.436	86	52
292.353	292.436	89	63
292.44	292.527	91	58
292.53	292.614	92	59
292.618	292.88	96	64
292.619	292.894	53	40
292.621	292.894	56	40
292.621	292.895	62	40
292.713	292.88	94	63
292.804	292.898	92	62
292.898	293.441	91	60
292.901	293.441	39	44
292.982	293.441	89	59
293.07	293.441	87	58
293.158	293.441	86	57
293.16	293.441	62	40
293.161	293.441	53	40
293.161	293.441	56	40
293.248	293.441	84	55
293.343	293.441	82	54
293.44	293.521	81	55
293.524	293.608	82	55
293.608	293.695	84	56
293.696	293.969	86	56
293.699	293.973	55	41
293.7	293.976	58	41
293.7	293.976	63	41
293.79	293.969	87	57
293.881	293.98	89	58
293.98	294.519	91	58
293.981	294.519	39	44
294.064	294.519	92	58
294.148	294.519	94	57
294.238	294.519	96	56
294.239	294.519	58	42
294.239	294.519	63	42
294.242	294.519	55	42
294.33	294.519	98	56
294.421	294.519	99	55
294.518	294.603	100	55
294.603	294.693	101	50
294.694	294.781	94	54
294.784	295.334	97	50
294.785	295.339	58	32
294.785	295.338	68	32
294.786	295.338	62	32
294.875	295.428	98	54
294.974	295.52	89	50
295.072	295.612	39	35
295.072	295.612	100	54
295.153	295.612	101	50
295.247	295.612	94	54
295.334	295.612	97	50
295.338	295.612	62	33
295.338	295.612	68	33
295.339	295.612	58	33
295.428	295.612	98	55
295.52	295.612	89	50
295.611	295.697	102	55
295.698	295.785	103	50
295.786	295.873	94	54
295.873	296.42	98	50
295.876	296.423	58	32
295.876	296.423	63	32
295.877	296.422	67	32
295.968	296.513	99	54
296.059	296.612	91	50
296.156	296.71	102	54
296.157	296.71	39	35
296.241	296.71	103	50
296.328	296.71	94	54
296.42	296.71	98	50
296.422	296.71	67	33
296.423	296.71	58	33
296.423	296.71	63	33
296.513	296.71	99	55
296.612	296.71	91	50
296.709	296.79	100	55
296.791	296.885	101	50
296.885	296.969	94	54
296.972	297.525	97	50
296.973	297.526	68	32
296.975	297.526	58	32
296.976	297.526	62	32
297.064	297.62	98	54
297.164	297.715	89	50
297.259	297.813	39	35
297.259	297.813	100	54
297.344	297.813	101	50
297.435	297.813	94	54
297.525	297.813	97	50
297.526	297.813	58	33
297.526	297.813	62	33
297.526	297.813	68	33
297.62	297.813	98	55
297.715	297.813	89	50
297.812	297.893	102	55
297.896	297.986	103	50
297.987	298.071	94	54
298.074	298.624	98	50
298.075	298.628	58	32
298.078	298.628	63	32
298.079	298.628	67	32
298.173	298.723	99	54
298.264	298.817	91	50
298.362	298.922	102	54
298.363	298.922	39	35
298.452	298.922	103	50
298.54	298.922	94	54
298.624	298.922	98	50
298.628	298.922	58	33
298.628	298.922	63	33
298.628	298.922	67	33
298.723	298.922	99	55
298.817	298.922	91	50
298.918	299.002	100	55
299.003	299.089	101	50
299.089	299.181	94	54
299.184	299.737	97	50
299.185	299.737	68	32
299.188	299.738	58	32
299.188	299.738	62	32
299.278	299.828	98	54
299.367	299.922	89	50
299.464	300.025	100	54
299.465	300.025	39	35
299.555	300.025	101	50
299.642	300.025	94	54
299.737	300.025	68	33
299.737	300.025	97	50
299.738	300.025	58	33
299.738	300.025	62	33
299.828	300.025	98	55
299.922	300.025	89	50
300.024	300.112	102	55
300.112	300.199	103	50
300.199	300.29	94	54
300.291	300.856	98	50
300.293	300.858	58	32
300.294	300.857	63	32
300.294	300.857	67	32
300.388	300.949	99	54
300.483	301.04	91	50
300.58	301.144	102	54
300.581	301.144	39	35
300.669	301.144	103	50
300.763	301.144	94	54
300.856	301.144	98	50
300.857	301.144	63	33
300.857	301.144	67	33
300.858	301.144	58	33
300.949	301.144	99	55
301.04	301.144	91	50
301.144	301.231	100	55
301.232	301.319	101	50
301.32	301.41	94	54
301.41	301.978	97	50
301.414	301.98	58	32
301.414	301.978	68	32
301.415	301.978	62	32
301.512	302.068	98	54
301.603	302.159	89	50
301.7	302.265	39	35
301.7	302.265	100	54
301.788	302.265	101	50
301.883	302.265	94	54
301.978	302.265	62	33
301.978	302.265	68	33
301.978	302.265	97	50
301.98	302.265	58	33
302.068	302.265	98	55
302.159	302.265	89	50
302.264	302.369	102	50
302.265	302.369	93	50
302.33	302.474	94	55
302.331	302.474	103	55
302.803	303.46	58	32
302.841	303.066	74	47
302.842	303.461	39	33
302.842	303.066	66	47
302.916	303.073	67	52
302.918	303.073	75	52
303.426	304.364	41	30
303.461	303.622	86	45
303.464	303.622	77	45
303.465	304.364	56	33
303.562	303.752	89	51
303.563	303.752	80	51
304.178	304.987	43	30
304.228	304.364	62	46
304.231	304.987	59	33
304.231	304.364	71	46
304.337	304.553	65	52
304.34	304.554	74	52
304.991	306.357	48	33
305.036	306.357	55	33
305.098	305.267	72	36
305.099	306.357	63	33
305.184	305.351	74	33
305.267	305.435	72	37
305.351	305.516	74	33
305.435	305.59	72	37
305.516	305.673	74	33
305.59	305.75	72	37
305.673	305.824	74	33
305.75	305.897	72	37
305.824	305.974	74	33
305.897	306.051	72	37
305.974	306.125	74	33
306.051	306.201	72	37
306.125	306.275	74	33
306.201	306.357	72	37
306.275	306.357	74	33
306.356	307.588	71	38
306.426	307.588	72	33
306.509	306.66	74	34
306.583	306.734	75	34
306.66	307.588	74	41
306.734	307.588	75	36
306.811	306.961	78	37
306.884	307.037	79	44
306.961	307.588	78	38
307.037	307.588	79	39
307.112	307.262	83	39
307.188	307.339	84	40
307.262	307.588	83	47
307.339	307.588	84	42
307.41	307.56	86	42
307.486	307.588	87	43
307.56	308.75	86	51
307.63	308.75	87	45
307.703	307.85	90	45
307.774	307.924	91	54
307.85	308.75	90	47
307.924	308.75	91	47
307.994	308.147	95	48
308.071	308.214	96	49
308.147	308.75	95	57
308.214	308.75	96	50
308.291	308.438	98	51
308.362	308.511	99	52
308.438	308.75	98	61
308.511	308.75	99	53
308.585	308.75	102	54
308.669	308.75	103	65
308.75	309.191	95	61
308.823	309.261	96	53
308.9	310.535	98	53
308.97	310.535	99	53
309.044	309.475	90	54
309.114	309.545	91	48
309.191	310.535	95	49
309.261	310.535	96	49
309.331	309.768	86	51
309.405	309.845	87	45
309.475	310.535	90	45
309.545	310.535	91	45
309.621	310.073	83	47
309.692	310.15	84	42
309.768	310.535	86	42
309.845	310.535	87	43
309.926	310.37	78	44
310.003	310.451	79	39
310.073	310.535	83	40
310.15	310.535	84	40
310.22	310.535	74	40
310.293	310.535	75	36
310.37	310.535	78	37
310.451	310.535	79	36
310.531	310.966	71	41
310.608	311.043	72	38
310.682	311.252	74	40
310.755	311.326	75	41
310.822	311.738	66	43
310.895	311.738	67	44
310.966	311.112	71	46
311.043	311.182	72	47
311.112	311.704	71	49
311.182	311.738	72	49
311.252	311.396	74	51
311.326	311.469	75	53
311.396	311.738	74	55
311.469	311.738	75	57
311.546	311.738	78	59
311.63	311.738	79	61
311.704	311.781	71	41
311.781	312.215	72	38
311.854	312.425	74	40
311.925	312.498	75	41
312.002	312.884	66	43
312.072	312.884	67	44
312.138	312.285	71	46
312.215	312.355	72	47
312.285	312.883	71	49
312.355	312.884	72	49
312.425	312.569	74	51
312.498	312.646	75	53
312.569	312.884	74	55
312.646	312.884	75	57
312.722	312.884	78	59
312.799	312.884	79	61
312.883	313.325	71	54
312.954	313.394	72	49
313.03	314.101	74	47
313.104	314.101	75	47
313.174	313.608	66	47
313.248	313.685	67	53
313.325	313.906	71	45
313.394	313.982	72	45
313.464	314.101	62	50
313.538	314.101	63	41
313.608	313.762	66	41
313.685	313.828	67	41
313.762	314.101	66	46
313.828	314.101	67	43
313.906	314.101	71	43
313.982	314.101	72	43
314.056	317.814	44	43
314.101	317.814	53	43
314.153	317.814	60	43
314.206	317.814	65	43
314.258	317.814	72	43
314.314	314.708	77	43
314.613	315.995	76	43
314.708	314.899	77	42
314.798	314.959	79	43
314.899	315.032	77	48
314.959	315.099	79	43
315.032	315.172	77	47
315.099	315.239	79	43
315.172	315.315	77	47
315.239	315.372	79	43
315.315	315.442	77	50
315.372	315.512	79	43
315.442	315.575	77	49
315.512	315.646	79	43
315.575	315.715	77	48
315.646	315.785	79	43
315.715	315.855	77	46
315.785	315.925	79	43
315.855	316.285	77	49
315.925	317.506	79	43
315.995	317.814	76	47
316.285	317.797	77	47
316.569	317.814	86	58
316.695	317.814	85	56
316.824	317.814	84	55
316.954	317.814	83	54
317.083	317.814	82	53
317.224	317.814	81	52
317.37	317.814	80	51
317.506	317.814	79	50
317.661	317.814	78	49
317.797	317.972	77	49
317.976	318.168	71	48
318.171	318.378	72	46
318.382	318.634	77	45
318.637	318.907	76	44
318.907	319.116	75	43
319.117	319.292	75	43
319.292	321.664	46	37
319.365	321.665	53	38
319.442	321.668	58	39
319.515	321.669	62	47
319.593	321.669	68	49
319.693	321.67	74	51
321.671	321.857	62	46
321.672	321.857	34	35
321.727	321.858	68	50
321.794	321.861	77	58
322.176	322.26	67	47
322.176	322.256	75	56
322.177	322.26	39	43
322.336	322.42	77	49
322.337	322.421	70	41
322.501	322.582	79	50
322.502	322.585	46	46
322.502	322.582	75	42
322.662	322.749	80	44
322.665	322.75	77	37
322.799	322.837	84	56
322.838	322.918	82	50
322.841	322.921	55	51
322.841	322.921	79	42
323.082	323.17	81	45
323.083	323.17	78	38
323.171	323.25	82	59
323.173	323.251	63	68
323.173	323.25	79	50
323.492	323.576	56	68
323.649	323.729	63	51
323.65	323.733	72	51
323.807	323.894	68	37
323.807	323.894	72	44
323.974	324.058	75	43
323.975	324.059	84	51
324.132	324.213	75	51
324.132	324.213	84	60
324.293	324.373	79	55
324.294	324.377	83	55
324.451	324.535	80	54
324.451	324.535	84	64
324.787	324.871	55	68
324.944	325.024	63	51
324.945	325.025	70	51
325.102	325.189	67	37
325.102	325.189	70	44
325.269	325.35	75	43
325.27	325.353	82	51
325.427	325.508	82	60
325.428	325.508	75	51
325.588	325.668	78	55
325.591	325.669	81	55
325.753	325.826	79	54
325.753	325.83	82	64
326.082	326.159	53	68
326.239	326.319	62	51
326.24	326.32	68	51
326.4	326.484	68	44
326.404	326.484	65	37
326.565	326.645	74	43
326.565	326.646	80	51
326.722	326.803	80	60
326.723	326.803	74	51
326.883	326.963	76	55
326.884	326.967	79	55
327.041	327.121	77	54
327.041	327.121	80	64
327.377	327.461	51	68
327.534	327.614	63	51
327.535	327.615	67	51
327.695	327.779	63	37
327.695	327.776	67	44
327.856	327.943	75	43
327.859	327.947	79	51
328.014	328.105	79	60
328.017	328.105	75	51
328.181	328.265	74	55
328.186	328.266	78	55
328.343	328.42	75	54
328.343	328.423	79	64
328.672	328.759	72	44
328.672	328.759	80	52
328.673	328.76	46	48
328.84	328.927	79	47
328.844	328.928	70	39
329.008	329.096	68	39
329.008	329.095	77	47
329.011	329.096	62	42
329.175	329.263	75	47
329.179	329.264	67	39
329.351	329.439	65	44
329.351	329.439	74	52
329.354	329.439	46	47
329.518	329.606	70	45
329.519	329.607	62	38
329.687	329.775	63	38
329.687	329.775	72	45
329.69	329.778	56	40
329.865	329.953	74	45
329.869	329.954	65	38
330.04	330.124	75	56
330.044	330.125	39	43
330.044	330.125	67	47
330.208	330.292	77	49
330.211	330.292	70	41
330.373	330.453	79	50
330.376	330.456	46	46
330.376	330.454	75	42
330.537	330.621	80	44
330.538	330.621	77	37
330.663	330.709	84	56
330.709	330.789	82	50
330.712	330.793	55	51
330.712	330.793	79	42
330.869	330.954	78	38
330.873	330.954	81	45
331.035	331.115	79	50
331.035	331.114	82	59
331.038	331.118	63	68
331.364	331.447	68	68
331.521	331.601	75	51
331.522	331.605	84	51
331.686	331.759	80	37
331.686	331.758	84	44
331.835	331.909	87	43
331.836	331.913	96	51
331.986	332.067	87	51
331.986	332.066	96	60
332.154	332.228	91	55
332.155	332.231	95	55
332.312	332.385	92	54
332.312	332.389	96	64
332.641	332.721	67	68
332.805	332.886	75	51
332.806	332.886	82	51
332.972	333.05	82	44
332.973	333.051	79	37
333.123	333.197	87	43
333.124	333.201	94	51
333.267	333.359	94	60
333.271	333.359	87	51
333.435	333.512	90	55
333.439	333.513	93	55
333.593	333.669	91	54
333.593	333.67	94	64
333.925	334.003	65	68
334.082	334.163	74	51
334.083	334.163	80	51
334.244	334.321	77	37
334.244	334.317	80	44
334.394	334.471	86	43
334.395	334.472	92	51
334.545	334.629	86	51
334.545	334.626	92	60
334.709	334.79	88	55
334.71	334.791	91	55
334.87	334.948	89	54
334.87	334.948	92	64
335.199	335.283	63	68
335.363	335.444	75	51
335.367	335.445	79	51
335.528	335.605	75	37
335.528	335.602	79	44
335.678	335.752	87	43
335.679	335.753	91	51
335.822	335.914	87	51
335.822	335.91	91	60
335.99	336.067	86	55
335.991	336.068	90	55
336.148	336.221	87	54
336.148	336.225	91	64
336.484	336.561	92	52
336.487	336.562	58	48
336.487	336.561	84	44
336.641	336.722	91	47
336.642	336.726	82	39
336.806	336.887	80	39
336.806	336.886	89	47
336.807	336.887	74	42
336.966	337.054	87	47
336.967	337.055	79	39
337.142	337.223	77	44
337.142	337.223	86	52
337.143	337.225	58	47
337.302	337.383	82	45
337.303	337.387	74	38
337.46	337.548	75	38
337.46	337.548	84	45
337.464	337.549	68	40
337.635	337.716	86	45
337.636	337.717	77	38
337.803	337.884	79	47
337.803	337.884	87	56
337.804	337.888	51	43
337.957	338.041	89	49
337.961	338.042	82	41
338.122	338.203	87	42
338.122	338.203	91	50
338.125	338.206	58	41
338.279	338.363	92	44
338.28	338.367	89	37
338.447	338.525	91	42
338.447	338.525	94	50
338.448	338.525	67	48
338.604	338.678	90	38
338.605	338.679	93	45
338.762	338.836	96	50
338.763	338.84	75	51
338.763	338.836	92	50
338.916	339.0	91	38
338.916	339.001	94	45
339.084	339.169	92	52
339.085	339.169	84	44
339.088	339.169	58	48
339.248	339.328	91	47
339.249	339.33	82	39
339.41	339.494	89	47
339.413	339.495	74	42
339.413	339.494	80	39
339.574	339.654	87	48
339.575	339.655	79	40
339.742	339.822	77	45
339.742	339.821	86	54
339.745	339.822	58	48
339.903	339.979	82	47
339.905	339.98	74	39
340.06	340.144	75	40
340.06	340.14	84	48
340.062	340.144	68	42
340.22	340.305	86	48
340.224	340.306	77	41
340.385	340.463	79	51
340.385	340.459	87	61
340.389	340.463	51	46
340.536	340.614	82	45
340.536	340.613	89	53
340.693	340.767	91	55
340.694	340.771	87	46
340.697	340.771	58	46
340.843	340.924	92	49
340.844	340.928	89	41
341.005	341.082	94	57
341.006	341.082	91	47
341.008	341.083	67	51
341.162	341.239	90	43
341.163	341.24	93	51
341.32	341.39	92	58
341.32	341.39	96	58
341.321	341.391	75	57
341.47	341.547	91	44
341.471	341.548	94	52
341.621	341.701	92	61
341.622	341.701	84	52
341.624	341.705	58	57
341.785	341.858	91	56
341.786	341.863	82	46
341.943	342.023	89	56
341.944	342.024	65	43
341.944	342.027	74	50
341.944	342.023	80	47
342.097	342.187	79	47
342.097	342.184	87	57
342.272	342.359	86	63
342.275	342.359	77	54
342.608	342.769	70	51
342.611	342.769	82	60
342.612	342.773	56	41
342.612	342.776	68	49
342.776	342.933	71	51
342.776	342.933	83	60
342.777	342.937	67	49
342.78	342.937	55	41
342.938	343.091	72	53
342.938	343.091	84	63
342.94	343.095	54	48
342.94	343.092	66	57
343.095	343.252	73	49
343.096	343.256	65	52
343.096	343.255	85	58
343.098	343.256	53	44
343.259	343.417	74	49
343.26	343.418	52	44
343.26	343.418	64	52
343.26	343.417	86	58
343.42	343.57	75	49
343.42	343.574	87	58
343.421	343.575	63	52
343.423	343.575	51	44
343.577	343.735	86	63
343.578	343.739	62	58
343.578	343.735	74	53
343.581	343.739	50	49
343.739	343.896	87	59
343.74	343.9	75	50
343.741	343.9	61	53
343.742	343.9	49	45
343.903	344.061	88	59
343.904	344.063	48	45
343.904	344.061	60	53
343.904	344.061	76	50
344.064	344.214	77	50
344.064	344.218	89	59
344.067	344.219	47	45
344.068	344.219	59	53
344.221	344.372	76	58
344.222	344.376	58	59
344.222	344.376	88	69
344.225	344.377	46	50
344.379	344.529	77	52
344.379	344.53	89	62
344.38	344.533	45	45
344.38	344.53	57	54
344.534	344.687	78	52
344.536	344.687	90	62
344.537	344.688	44	46
344.537	344.691	56	55
344.691	344.844	79	52
344.692	344.845	91	62
344.694	344.848	43	46
344.694	344.845	55	55
344.848	344.999	78	59
344.849	345.002	90	70
344.851	345.002	42	46
344.851	345.002	54	55
345.006	345.152	79	54
345.006	345.153	91	64
345.007	345.153	41	53
345.009	345.153	53	63
345.156	345.307	80	54
345.157	345.31	40	48
345.157	345.31	92	64
345.159	345.311	52	57
345.311	345.464	81	54
345.314	345.465	39	48
345.314	345.465	93	64
345.317	345.467	51	57
345.468	346.086	80	62
345.471	346.086	92	74
345.472	346.086	38	56
345.472	346.086	50	66
345.622	346.086	81	53
345.622	346.086	93	63
345.623	346.086	37	50
345.625	346.086	49	59
345.776	346.079	82	54
345.776	346.08	94	64
345.779	346.086	36	51
345.78	346.086	48	60
345.927	346.086	83	54
345.929	346.086	35	51
345.929	346.086	95	64
345.93	346.086	47	60
346.079	346.752	82	64
346.08	346.752	34	59
346.08	346.749	94	75
346.081	346.752	46	71
346.234	346.752	83	59
346.235	346.752	95	71
346.392	346.752	84	64
346.392	346.752	96	77
346.395	346.752	33	60
346.395	346.752	45	72
346.552	346.752	85	69
346.553	346.752	97	82
346.748	347.102	98	93
346.749	347.103	86	79
346.749	347.103	94	79
346.75	347.466	32	66
346.75	347.466	44	78
347.102	347.466	98	85
347.103	347.466	86	72
347.103	347.466	94	72
347.105	347.466	65	70
347.106	347.466	53	59
347.106	347.466	60	59
347.428	347.757	84	79
347.428	347.757	96	93
347.431	348.089	46	78
347.431	347.76	92	79
347.432	348.089	34	66
347.757	348.089	84	74
347.757	348.089	96	88
347.76	348.089	65	71
347.76	348.089	92	74
347.761	348.089	53	60
347.761	348.089	62	60
348.083	348.391	91	92
348.085	349.412	79	78
348.085	349.412	87	78
348.086	348.726	39	66
348.086	348.723	51	78
348.39	348.722	94	83
348.391	348.723	82	70
348.391	348.723	91	70
348.393	349.031	67	71
348.394	349.031	63	60
348.397	349.034	55	60
348.722	349.028	94	89
348.723	349.412	51	78
348.723	349.03	82	74
348.723	349.031	91	74
348.726	349.412	39	66
348.873	349.412	81	67
348.873	349.412	90	67
348.874	349.412	93	79
349.028	349.412	94	88
349.03	349.412	82	74
349.031	349.412	63	60
349.031	349.412	67	71
349.031	349.412	91	74
349.034	349.412	55	60
349.367	349.996	89	82
349.368	349.996	53	78
349.368	349.996	77	69
349.37	349.996	41	66
349.518	349.996	91	81
349.521	349.996	79	68
349.678	349.996	92	81
349.679	349.996	60	60
349.679	349.996	65	71
349.679	349.996	80	68
349.681	349.996	56	60
349.832	349.996	96	81
349.833	349.996	84	68
349.993	350.623	94	83
349.994	350.623	34	66
349.994	350.623	46	78
349.994	350.623	82	70
350.144	350.623	92	80
350.147	350.623	80	68
350.298	350.62	91	81
350.3	350.622	79	68
350.301	350.623	56	60
350.301	350.623	62	60
350.301	350.623	65	71
350.459	350.623	77	68
350.459	350.623	89	81
350.62	351.901	87	92
350.62	350.921	91	92
350.622	351.901	79	78
350.623	351.257	39	66
350.623	351.257	51	78
350.921	351.253	91	83
350.921	351.252	94	83
350.923	351.256	82	70
350.924	351.564	63	60
350.924	351.561	67	71
350.925	351.565	55	60
351.169	351.901	81	67
351.17	351.901	90	79
351.17	351.901	93	79
351.252	351.9	94	89
351.253	351.901	91	89
351.256	351.901	82	74
351.257	351.901	39	66
351.257	351.901	51	78
351.561	351.901	67	71
351.564	351.901	63	60
351.565	351.901	55	60
351.897	352.251	86	79
351.897	352.25	98	93
351.9	352.251	94	79
351.901	352.594	32	66
351.901	352.594	44	78
352.25	352.594	98	85
352.251	352.594	86	72
352.251	352.594	94	72
352.254	352.594	65	70
352.255	352.594	53	59
352.255	352.594	60	59
352.587	352.93	96	93
352.59	352.93	84	79
352.591	353.284	46	78
352.591	352.933	92	79
352.594	353.284	34	66
352.93	353.284	84	74
352.93	353.284	96	88
352.933	353.284	92	74
352.934	353.284	53	60
352.934	353.284	62	60
352.934	353.284	65	71
353.277	353.588	91	92
353.279	354.63	79	78
353.28	353.92	51	78
353.28	354.63	87	78
353.283	353.921	39	66
353.585	353.917	94	83
353.586	353.917	82	70
353.588	354.232	63	60
353.588	354.232	67	71
353.588	353.92	91	70
353.591	354.235	55	60
353.917	354.23	82	74
353.917	354.229	94	89
353.92	354.63	51	78
353.92	354.231	91	74
353.921	354.63	39	66
354.071	354.63	81	67
354.074	354.63	90	67
354.074	354.63	93	79
354.229	354.63	94	88
354.23	354.63	82	74
354.231	354.63	91	74
354.232	354.63	63	60
354.232	354.63	67	71
354.235	354.63	55	60
354.579	355.236	89	72
354.581	355.236	77	61
354.582	355.236	53	78
354.582	354.904	80	61
354.585	355.236	41	66
354.739	355.236	91	74
354.74	355.236	79	62
354.743	355.23	82	62
354.904	355.236	80	64
354.904	355.236	83	64
354.904	355.236	92	77
354.907	355.236	65	71
354.908	355.236	56	60
354.908	355.236	60	60
355.065	355.236	81	67
355.065	355.236	93	79
355.066	355.236	84	67
355.226	355.862	94	81
355.23	355.862	46	78
355.23	355.862	82	68
355.23	355.862	85	68
355.232	355.862	34	66
355.383	355.862	83	70
355.383	355.862	95	83
355.387	355.698	86	70
355.541	355.862	96	85
355.542	355.862	84	72
355.544	355.856	87	72
355.545	355.862	62	60
355.545	355.862	65	71
355.547	355.862	56	60
355.696	355.862	98	86
355.698	355.862	86	73
355.698	355.862	89	73
355.856	355.933	87	74
355.856	355.932	99	89
355.859	355.933	91	74
355.86	356.997	39	66
355.86	356.997	51	78
356.181	356.836	75	68
356.182	356.839	79	68
356.184	356.84	87	81
356.185	356.84	55	60
356.185	356.842	58	60
356.185	356.843	63	60
356.188	356.843	67	71
356.836	356.997	75	61
356.839	356.997	79	61
356.84	356.997	55	54
356.84	356.997	87	72
356.842	356.997	58	54
356.843	356.997	63	54
356.843	356.997	67	63
357.154	357.312	62	51
357.157	357.238	65	63
357.158	357.315	56	36
357.158	357.315	58	43
357.161	357.315	51	36
357.319	357.392	67	59
357.469	358.077	62	52
357.47	358.081	58	39
357.47	357.549	68	59
357.472	358.082	56	33
357.473	358.082	51	33
357.627	357.707	72	59
357.784	357.857	70	64
357.935	358.004	68	55
358.082	358.235	62	50
358.086	358.235	58	39
358.086	358.151	67	56
358.088	358.236	56	33
358.089	358.239	51	33
358.239	358.313	65	57
358.389	358.459	70	63
358.393	358.464	67	53
358.396	358.464	61	51
358.397	358.466	51	51
358.648	358.683	72	57
358.684	358.757	67	53
358.685	358.758	70	63
358.687	359.275	51	33
358.687	359.275	61	39
358.908	358.985	66	47
358.911	358.985	69	56
358.988	359.601	67	52
358.988	359.601	70	62
359.276	359.436	61	43
359.279	359.439	51	40
359.601	359.747	60	51
359.604	359.754	51	36
359.604	359.751	56	43
359.604	359.673	65	63
359.755	359.824	67	59
359.909	360.493	60	52
359.909	359.979	68	59
359.91	360.493	56	39
359.912	360.494	51	33
360.052	360.125	72	59
360.196	360.273	70	64
360.345	360.416	68	55
360.496	360.65	62	50
360.497	360.57	67	56
360.5	360.653	51	33
360.5	360.651	59	43
360.654	360.724	65	57
360.808	360.889	63	53
360.808	360.889	67	63
360.809	360.892	51	51
360.809	360.892	58	51
361.144	361.722	58	46
361.144	361.725	63	52
361.145	361.726	55	39
361.147	361.726	51	33
361.69	361.742	62	46
361.691	361.742	54	37
361.722	361.869	58	53
361.725	361.869	63	63
361.726	361.872	51	40
361.726	361.872	55	43
362.019	362.096	65	53
362.02	362.096	77	63
362.022	362.166	39	43
362.166	362.24	67	50
362.167	362.243	79	59
362.316	362.757	68	50
362.317	362.758	80	59
362.32	362.908	56	39
362.321	362.909	46	33
362.321	362.908	50	33
362.46	363.202	72	50
362.464	363.202	84	59
362.606	363.199	70	54
362.607	363.198	82	64
362.757	363.202	68	46
362.758	363.202	80	55
362.906	363.202	67	47
362.908	363.202	50	33
362.908	363.202	56	39
362.908	363.202	79	56
362.909	363.202	46	33
363.058	363.202	65	48
363.059	363.202	77	57
363.198	363.268	82	63
363.199	363.269	70	53
363.202	363.272	39	51
363.451	363.482	84	57
363.486	363.788	70	53
363.486	363.79	82	63
363.487	364.081	55	33
363.489	364.082	49	33
363.489	364.081	58	39
363.709	364.424	69	47
363.71	364.424	81	56
363.788	364.424	70	52
363.79	364.424	82	62
364.081	364.424	55	40
364.081	364.424	58	43
364.082	364.424	49	40
364.396	364.469	65	53
364.399	364.469	77	63
364.4	364.55	39	43
364.553	364.626	67	50
364.553	364.627	79	59
364.7	365.145	68	50
364.703	365.291	48	33
364.703	365.145	80	59
364.707	365.298	51	33
364.707	365.295	56	39
364.854	365.277	72	50
364.854	365.277	84	59
364.997	365.277	70	54
364.998	365.277	82	64
365.145	365.277	68	46
365.145	365.277	80	55
365.299	365.446	47	33
365.299	365.368	67	47
365.299	365.368	79	56
365.302	365.446	56	43
365.303	365.447	51	33
365.449	365.526	65	48
365.449	365.53	77	57
365.599	365.69	79	63
365.604	365.691	67	53
365.606	365.691	39	51
365.939	366.524	63	46
365.94	366.528	55	39
365.94	366.525	75	52
365.942	366.528	46	33
366.485	366.544	74	46
366.524	366.681	63	53
366.525	366.681	75	63
366.528	366.685	46	40
366.528	366.685	55	43
366.793	366.821	66	36
366.821	366.908	67	50
366.822	366.909	59	42
366.825	366.912	43	32
366.825	366.913	50	40
367.165	367.759	55	31
367.165	367.759	60	36
367.165	367.745	63	41
367.167	367.759	48	26
367.71	367.759	62	36
367.745	367.888	59	42
367.745	367.889	63	50
367.746	367.892	51	34
367.749	367.892	44	32
368.043	368.974	79	42
368.043	368.974	91	50
368.044	368.974	39	40
368.375	368.957	75	36
368.379	368.96	55	31
368.379	368.957	87	41
368.382	368.96	46	26
368.921	368.974	86	36
368.957	369.113	75	42
368.957	369.118	87	50
368.96	369.118	46	32
368.96	369.118	55	34
369.229	369.261	66	36
369.261	369.348	67	50
369.262	369.348	59	42
369.264	369.349	43	32
369.264	369.349	50	40
369.593	370.202	60	36
369.597	370.182	63	41
369.598	370.202	55	31
369.6	370.202	48	26
370.142	370.202	62	36
370.181	370.332	59	42
370.182	370.335	63	50
370.184	370.335	51	34
370.185	370.336	44	32
370.489	370.577	55	42
370.493	370.58	39	32
370.493	370.578	58	42
370.493	370.577	67	50
370.496	370.58	51	40
370.849	371.49	55	36
370.853	371.49	60	36
370.854	371.49	36	26
370.854	371.49	48	31
370.854	371.473	63	41
371.43	371.49	62	36
371.47	371.62	56	42
371.473	371.627	44	34
371.473	371.623	59	42
371.473	371.623	63	50
371.476	371.627	32	32
371.777	371.872	55	42
371.781	371.873	58	42
371.781	371.873	67	50
371.784	371.875	39	32
371.785	371.875	51	40
372.144	372.778	55	36
372.145	372.778	60	36
372.145	372.757	63	41
372.148	372.778	48	31
372.149	372.778	36	26
372.718	372.778	62	36
372.754	372.925	56	42
372.755	372.929	59	42
372.757	372.932	63	50
372.758	372.932	32	32
372.758	372.932	44	34
373.103	373.787	55	39
373.107	373.804	67	46
373.11	373.804	58	39
373.111	373.804	39	33
373.111	373.804	51	39
373.787	374.462	55	33
373.787	374.462	60	33
373.789	374.462	36	22
373.789	374.462	63	39
373.79	374.462	48	31
375.081	375.116	62	36
375.116	375.707	56	33
375.12	375.711	59	33
375.12	375.712	63	39
375.121	375.788	32	22
375.121	375.788	44	31
375.712	376.866	55	37
375.75	377.014	63	39
375.792	377.014	70	40
375.795	377.014	27	22
375.795	377.014	39	31
376.135	377.014	43	31
376.289	377.014	44	30
376.43	377.014	45	30
376.573	377.014	46	30
376.72	377.014	51	30
376.866	377.014	55	30
377.013	377.153	56	30
377.157	377.293	57	30
377.294	377.44	58	30
377.44	377.58	63	28
377.581	377.717	67	28
377.717	377.856	68	27
377.857	377.989	69	26
377.993	378.13	70	25
378.13	379.628	75	27
378.263	379.628	79	27
378.403	379.628	80	27
378.536	379.628	81	27
378.669	379.628	82	27
378.809	379.628	87	27
378.949	379.628	91	27
379.089	379.628	92	27
379.228	379.628	93	27
379.373	379.628	94	27
379.519	379.67	99	33
381.619	381.98	70	81
381.619	381.98	82	96
381.62	381.981	46	61
381.623	381.981	58	72
381.98	382.043	70	77
381.98	382.043	82	91
381.981	382.044	46	57
381.981	382.046	58	68
382.151	382.218	70	77
382.155	382.219	46	57
382.155	382.219	58	68
382.155	382.219	82	91
382.319	382.877	75	85
382.323	382.879	51	63
382.323	382.877	87	101
382.326	382.88	63	75
382.877	382.935	75	74
382.877	382.939	87	89
382.879	382.94	51	55
382.88	382.94	63	66
383.051	383.394	73	79
383.055	383.394	49	58
383.055	383.394	61	69
383.055	383.394	85	93
383.219	383.394	71	79
383.222	383.394	83	93
383.223	383.394	47	58
383.226	383.394	59	69
383.386	383.453	70	78
383.391	383.454	46	57
383.391	383.454	82	92
383.393	383.456	58	68
383.562	383.625	68	81
383.562	383.628	80	96
383.565	383.628	44	61
383.566	383.632	56	72
383.736	383.806	70	80
383.737	383.807	46	60
383.737	383.807	82	94
383.74	383.81	58	70
383.922	383.984	63	75
383.922	383.989	75	90
383.926	383.989	39	56
383.926	383.99	51	67
384.1	384.514	63	75
384.105	384.517	39	56
384.105	384.515	75	90
384.107	384.518	51	67
384.521	384.874	67	57
384.522	384.881	63	51
384.522	384.874	70	68
384.874	384.944	67	54
384.874	384.944	70	64
384.875	384.944	61	40
384.881	384.948	63	48
385.049	385.112	70	64
385.05	385.113	61	40
385.05	385.113	67	54
385.052	385.115	63	48
385.221	385.767	66	60
385.224	385.767	75	71
385.228	385.77	59	45
385.228	385.771	63	53
385.767	385.833	66	52
385.767	385.833	75	62
385.77	385.834	59	39
385.771	385.837	63	46
385.948	386.134	67	56
385.949	386.134	63	55
385.949	386.134	73	66
385.952	386.134	58	49
386.113	386.173	70	66
386.117	386.176	61	49
386.278	386.453	63	55
386.278	386.341	71	65
386.282	386.345	56	48
386.456	386.523	68	68
386.457	386.526	59	51
386.631	386.813	63	56
386.634	386.697	70	67
386.635	386.698	55	50
386.813	386.883	63	63
386.817	386.887	58	47
386.998	387.405	63	57
387.408	387.765	67	57
387.409	387.765	63	51
387.409	387.765	70	68
387.772	387.835	67	54
387.773	387.839	61	40
387.773	387.839	70	64
387.776	387.839	63	48
387.941	388.006	61	40
387.941	388.004	67	54
387.941	388.003	70	64
387.944	388.007	63	48
388.115	388.664	66	60
388.115	388.657	75	71
388.116	388.658	59	45
388.116	388.661	63	53
388.469	388.664	67	60
388.657	388.724	75	62
388.658	388.725	59	39
388.658	388.725	68	52
388.661	388.728	63	46
388.833	389.014	64	56
388.836	389.014	68	56
388.836	389.014	73	66
388.837	389.014	58	49
389.005	389.06	71	66
389.007	389.061	61	49
389.165	389.351	61	55
389.165	389.351	67	55
389.166	389.235	70	65
389.169	389.236	51	48
389.352	389.414	63	68
389.354	389.414	55	51
389.53	389.599	63	58
389.533	389.574	56	43
389.533	389.603	59	52
389.533	389.6	68	70
389.715	389.785	63	66
389.718	389.788	59	49
389.904	390.174	63	60
389.904	390.177	68	70
389.905	390.177	56	47
389.905	390.177	59	56
390.267	390.621	70	81
390.268	390.621	82	96
390.271	390.621	46	61
390.272	390.621	58	72
390.624	390.691	70	77
390.628	390.692	82	91
390.631	390.695	46	57
390.631	390.695	58	68
390.803	390.862	70	77
390.803	390.867	82	91
390.804	390.869	46	57
390.804	390.87	58	68
390.971	391.525	75	85
390.972	391.528	51	63
390.972	391.528	63	75
390.972	391.528	87	101
391.525	391.59	75	74
391.528	391.594	51	55
391.528	391.595	63	66
391.528	391.591	87	89
391.703	392.042	73	79
391.703	392.042	85	93
391.704	392.042	49	58
391.704	392.042	61	69
391.87	392.042	71	79
391.871	392.042	47	58
391.871	392.042	83	93
391.874	392.042	59	69
392.039	392.108	70	78
392.039	392.109	82	92
392.04	392.109	46	57
392.042	392.11	58	68
392.217	392.284	68	81
392.22	392.285	80	96
392.221	392.285	44	61
392.221	392.285	56	72
392.392	392.456	70	80
392.392	392.459	82	94
392.393	392.459	46	60
392.396	392.459	58	70
392.57	392.641	63	75
392.574	392.644	75	90
392.575	392.645	39	56
392.577	392.648	51	67
392.76	393.173	39	56
392.76	393.169	63	75
392.76	393.172	75	90
392.764	393.173	51	67
393.176	393.522	67	57
393.177	393.522	63	51
393.177	393.522	70	68
393.536	393.6	67	54
393.537	393.603	61	40
393.537	393.601	70	64
393.538	393.603	63	48
393.705	393.775	67	54
393.705	393.775	70	64
393.706	393.775	61	40
393.708	393.776	63	48
393.879	394.43	66	60
393.88	394.431	59	45
393.88	394.43	75	71
393.883	394.433	63	53
394.43	394.489	66	52
394.43	394.488	75	62
394.431	394.489	59	39
394.433	394.492	63	46
394.604	394.793	67	56
394.605	394.793	63	55
394.605	394.793	73	66
394.608	394.793	58	49
394.773	394.828	70	66
394.775	394.832	61	49
394.933	395.115	63	55
394.933	395.003	71	65
394.937	395.003	56	48
395.116	395.178	68	68
395.119	395.179	59	51
395.287	395.468	63	56
395.29	395.354	55	50
395.29	395.354	70	67
395.469	395.539	63	63
395.472	395.54	58	47
395.647	396.064	63	57
396.064	396.42	67	57
396.065	396.425	63	51
396.065	396.425	70	68
396.42	396.484	67	54
396.425	396.487	61	40
396.425	396.488	63	48
396.425	396.485	70	64
396.589	396.656	70	64
396.592	396.657	61	40
396.592	396.656	67	54
396.593	396.657	63	48
396.756	397.31	66	60
396.76	397.301	75	71
396.761	397.303	59	45
396.761	397.303	63	53
397.106	397.31	67	60
397.301	397.369	75	62
397.303	397.37	59	39
397.303	397.371	63	46
397.303	397.37	68	52
397.481	397.671	64	56
397.482	397.671	68	56
397.485	397.671	73	66
397.488	397.671	58	49
397.653	397.72	71	66
397.654	397.72	61	49
397.824	398.016	61	55
397.828	398.02	67	55
397.829	397.894	70	65
397.831	397.898	51	48
398.021	398.087	55	51
398.021	398.086	63	68
398.202	398.394	63	58
398.206	398.28	68	70
398.207	398.251	56	43
398.207	398.28	59	52
398.398	398.468	63	66
398.402	398.472	59	49
398.591	398.888	63	60
398.595	398.889	56	47
398.595	398.892	59	56
398.595	398.888	68	70
398.982	399.081	63	55
399.172	399.267	65	49
399.364	399.455	67	48
399.557	399.647	68	47
399.718	400.124	39	33
399.742	400.113	61	51
399.743	400.124	63	51
399.743	400.117	70	60
399.746	400.124	55	41
399.936	400.124	51	37
400.113	400.201	61	44
400.117	400.201	70	52
400.288	400.386	63	44
400.289	400.387	72	52
400.456	400.849	44	32
400.477	400.722	60	49
400.477	400.722	63	49
400.481	400.722	56	43
400.481	400.722	68	58
400.673	400.757	51	35
400.852	400.942	63	42
401.037	401.128	56	36
401.199	401.6	39	33
401.223	401.587	61	51
401.223	401.6	63	51
401.223	401.591	70	60
401.224	401.6	55	41
401.409	401.6	51	37
401.587	401.671	61	44
401.591	401.672	70	52
401.755	401.853	63	44
401.758	401.856	72	52
401.922	402.318	44	32
401.947	402.186	60	49
401.948	402.186	63	49
401.948	402.186	68	58
401.95	402.186	56	43
402.136	402.228	51	35
402.322	402.413	63	42
402.504	402.598	56	36
402.689	402.875	63	51
402.69	403.05	67	51
402.693	403.043	51	43
402.693	403.05	70	60
402.875	403.051	63	33
403.053	403.138	67	44
403.054	403.138	63	44
403.057	403.141	49	43
403.057	403.141	70	52
403.224	403.319	67	44
403.225	403.32	63	44
403.225	403.32	70	52
403.228	403.32	61	37
403.41	403.782	63	51
403.41	403.796	66	51
403.411	403.783	75	60
403.414	403.796	47	43
403.595	403.796	59	33
403.782	403.866	63	44
403.782	403.865	71	44
403.783	403.867	42	43
403.783	403.866	75	52
403.949	404.04	71	44
403.95	404.044	63	44
403.953	404.047	75	52
403.954	404.047	54	37
404.142	404.229	64	50
404.142	404.23	73	59
404.143	404.232	43	43
404.317	404.401	63	43
404.318	404.404	51	38
404.318	404.404	71	51
404.495	404.583	61	43
404.496	404.586	70	51
404.498	404.587	44	43
404.67	404.762	59	43
404.671	404.765	51	40
404.671	404.762	68	51
404.848	405.216	58	51
404.852	405.212	63	51
404.853	405.241	39	43
404.853	405.216	70	60
405.034	405.241	46	33
405.212	405.297	63	44
405.216	405.298	58	44
405.216	405.3	70	52
405.217	405.3	51	43
405.385	405.483	58	44
405.385	405.482	63	44
405.386	405.483	70	52
405.388	405.485	46	37
405.577	405.668	55	50
405.578	405.671	39	43
405.578	405.668	61	50
405.578	405.669	63	59
405.756	405.842	56	43
405.756	405.843	65	51
405.759	405.846	46	38
405.937	406.021	58	43
405.938	406.021	61	43
405.938	406.025	67	51
405.941	406.025	51	43
406.116	406.207	55	43
406.116	406.208	63	51
406.117	406.21	46	40
406.305	406.522	56	51
406.308	406.522	60	51
406.308	406.522	68	60
406.312	406.522	44	47
406.312	406.522	51	47
406.484	406.574	39	38
406.672	406.767	32	43
407.044	407.144	63	52
407.044	407.145	75	63
407.236	407.327	65	47
407.237	407.327	77	56
407.422	407.512	67	46
407.422	407.516	79	55
407.607	408.16	68	44
407.608	408.16	80	54
407.61	408.16	39	37
407.788	408.146	70	58
407.789	408.15	73	58
407.789	408.15	82	69
407.79	408.16	55	47
407.971	408.16	51	42
408.146	408.237	70	50
408.15	408.238	63	47
408.15	408.238	73	50
408.15	408.238	82	59
408.321	408.521	72	50
408.325	408.94	75	50
408.325	408.94	84	59
408.326	408.94	44	36
408.52	408.94	68	56
408.521	408.94	56	49
408.521	408.94	72	56
408.521	408.94	80	66
408.706	408.94	51	40
408.888	408.972	63	48
409.063	409.62	39	41
409.255	409.616	70	58
409.255	409.616	73	58
409.256	409.617	82	69
409.259	409.62	55	47
409.441	409.62	51	42
409.616	409.703	70	50
409.616	409.704	73	50
409.617	409.704	82	59
409.62	409.707	63	47
409.784	409.977	72	50
409.785	410.55	75	50
409.785	410.55	84	59
409.787	410.55	44	36
409.977	410.55	68	56
409.977	410.55	72	56
409.978	410.55	80	66
409.98	410.522	56	49
410.165	410.55	51	40
410.347	410.55	63	48
410.522	410.614	56	41
410.714	411.083	70	58
410.715	411.087	75	58
410.715	411.086	79	58
410.716	411.087	82	69
410.718	411.089	51	49
410.897	411.089	63	37
411.083	411.166	70	50
411.086	411.167	79	50
411.087	411.17	49	49
411.087	411.167	75	50
411.087	411.17	82	59
411.251	411.351	70	50
411.254	411.352	75	50
411.254	411.352	79	50
411.258	411.356	61	42
411.258	411.355	82	59
411.457	411.821	75	58
411.458	411.856	78	58
411.458	411.822	87	69
411.46	411.856	47	49
411.636	411.856	59	37
411.821	411.905	75	50
411.821	411.905	83	50
411.822	411.906	42	49
411.822	411.906	87	59
411.995	412.094	83	50
411.996	412.097	75	50
411.996	412.098	87	59
411.999	412.098	54	42
412.189	412.273	73	57
412.189	412.276	76	57
412.19	412.276	85	67
412.192	412.276	43	49
412.36	412.451	71	49
412.364	412.452	75	49
412.364	412.452	83	58
412.367	412.452	51	36
412.368	412.454	55	43
412.535	412.622	70	49
412.535	412.626	73	49
412.539	412.626	44	49
412.539	412.626	82	58
412.71	412.804	68	49
412.711	412.804	71	49
412.711	412.805	80	58
412.713	412.805	51	39
412.714	412.808	56	46
412.888	413.26	70	58
412.892	413.263	39	49
412.892	413.26	75	58
412.892	413.26	82	69
413.074	413.263	46	37
413.26	413.344	70	50
413.26	413.343	75	50
413.26	413.344	82	59
413.263	413.348	51	49
413.431	413.522	75	50
413.432	413.522	70	50
413.432	413.526	82	59
413.434	413.526	58	42
413.619	413.711	67	57
413.624	413.712	73	57
413.624	413.712	75	67
413.625	413.712	63	49
413.802	413.886	68	49
413.802	413.89	77	58
413.803	413.89	58	43
413.977	414.068	70	49
413.978	414.072	51	49
413.978	414.071	73	49
413.978	414.072	79	58
414.163	414.254	67	49
414.163	414.254	75	58
414.164	414.255	61	46
414.348	414.771	68	58
414.349	414.771	60	54
414.349	414.771	75	58
414.349	414.771	80	69
414.53	414.771	51	43
414.712	414.807	44	49
415.101	415.472	70	66
415.104	415.473	75	66
415.104	415.472	79	66
415.104	415.475	82	79
415.108	415.489	39	54
415.108	415.489	51	64
415.286	415.489	40	46
415.29	415.489	52	55
415.472	415.551	70	57
415.472	415.556	79	57
415.473	415.558	75	57
415.475	415.559	37	56
415.475	415.559	82	67
415.476	415.559	49	67
415.643	415.741	70	57
415.644	415.744	75	57
415.644	415.741	79	57
415.646	415.744	82	67
415.647	415.744	39	50
415.647	415.745	51	59
415.832	416.209	75	66
415.836	416.207	78	66
415.836	416.21	87	79
415.837	416.214	35	58
415.839	416.214	47	69
416.021	416.214	37	51
416.022	416.214	49	60
416.207	416.29	78	57
416.209	416.294	75	57
416.21	416.295	33	56
416.21	416.295	87	67
416.213	416.297	45	66
416.378	416.473	78	57
416.381	416.473	75	57
416.381	416.474	87	67
416.382	416.476	35	50
416.385	416.476	47	59
416.57	416.658	73	65
416.571	416.659	76	65
416.571	416.659	85	77
416.574	416.924	31	59
416.575	416.925	43	70
416.742	416.833	71	56
416.746	416.833	75	56
416.749	416.833	83	66
416.927	417.011	70	56
416.928	417.011	73	56
416.928	417.012	82	66
416.932	417.309	32	60
416.932	417.309	44	71
417.099	417.203	68	56
417.099	417.204	71	56
417.103	417.204	80	66
417.31	417.674	70	66
417.312	417.676	75	66
417.312	417.676	82	79
417.313	417.673	39	67
417.488	417.673	46	59
417.677	417.764	75	57
417.68	417.768	70	57
417.681	417.771	51	67
417.681	417.768	82	67
417.855	417.953	75	57
417.856	417.954	70	57
417.856	417.954	82	67
417.857	417.956	58	61
418.044	418.138	67	65
418.048	418.139	73	65
418.048	418.139	75	77
418.049	418.141	63	69
418.226	418.317	68	56
418.227	418.32	58	57
418.227	418.318	77	66
418.405	418.492	70	56
418.408	418.495	51	67
418.408	418.492	73	56
418.408	418.492	79	66
418.586	418.688	67	56
418.587	418.692	61	61
418.587	418.692	75	66
418.786	419.209	68	66
418.79	419.209	60	76
418.79	419.209	75	66
418.79	419.209	80	79
418.971	419.209	51	64
419.153	419.251	44	71
419.619	420.505	71	35
419.619	420.025	81	50
419.62	420.088	63	34
419.735	419.976	73	25
419.858	420.088	66	25
419.974	420.088	83	36
419.976	420.088	73	25
420.025	420.088	81	36
420.074	420.511	59	31
420.074	420.511	80	50
420.183	420.403	73	25
420.299	420.511	78	41
420.302	420.511	66	25
420.403	420.511	73	25
420.505	421.404	71	29
420.505	420.967	83	43
420.506	420.967	64	34
420.617	420.845	73	25
420.736	420.967	68	25
420.736	420.967	75	45
420.845	420.967	73	25
420.904	420.967	78	35
420.956	421.446	76	43
420.957	421.446	59	31
421.065	421.285	73	25
421.174	421.446	68	25
421.285	421.446	73	25
421.404	422.263	71	35
421.404	421.79	81	50
421.405	421.859	63	34
421.51	421.748	73	25
421.628	421.859	66	25
421.744	421.859	83	36
421.748	421.859	73	25
421.79	421.859	81	36
421.842	422.272	80	50
421.845	422.272	59	31
421.954	422.157	73	25
422.055	422.272	78	41
422.059	422.272	66	25
422.157	422.272	73	25
422.263	423.183	71	29
422.265	422.723	64	34
422.265	422.723	83	44
422.377	422.601	73	25
422.486	422.723	75	45
422.489	422.723	68	25
422.601	422.723	73	25
422.661	422.723	78	35
422.716	423.183	76	43
422.717	423.183	59	31
422.822	423.183	73	25
422.934	423.183	68	25
423.053	423.183	64	25
423.179	423.623	37	44
423.182	423.623	49	52
423.284	423.623	42	47
423.284	423.623	54	36
423.386	423.623	58	41
423.497	423.623	66	36
423.498	423.623	64	28
423.616	424.155	35	32
423.616	424.155	47	38
423.722	424.155	54	24
423.724	424.155	42	35
423.834	424.155	59	27
423.963	424.155	66	24
423.964	424.152	63	19
424.151	425.02	71	35
424.152	424.617	63	34
424.152	424.547	81	50
424.267	424.505	73	25
424.383	424.617	66	25
424.502	424.617	83	36
424.505	424.617	73	25
424.547	424.617	81	36
424.601	425.026	80	50
424.603	425.026	59	31
424.711	424.918	73	25
424.814	425.026	78	41
424.816	425.026	66	25
424.918	425.026	73	25
425.02	425.913	71	29
425.02	425.482	83	43
425.021	425.482	64	34
425.135	425.36	73	25
425.252	425.482	75	45
425.254	425.482	68	25
425.36	425.482	73	25
425.419	425.482	78	35
425.472	425.964	76	43
425.475	425.964	59	31
425.58	425.8	73	25
425.691	425.964	68	25
425.8	425.964	73	25
425.913	426.785	71	35
425.916	426.381	63	34
425.916	426.319	81	50
426.035	426.269	73	25
426.15	426.381	66	25
426.267	426.381	83	36
426.269	426.381	73	25
426.319	426.381	81	36
426.364	426.794	80	50
426.367	426.794	59	31
426.476	426.686	73	25
426.582	426.794	66	25
426.582	426.794	78	41
426.686	426.794	73	25
426.785	427.704	71	29
426.787	427.246	83	44
426.788	427.246	64	34
426.899	427.123	73	25
427.015	427.246	75	45
427.018	427.246	68	25
427.123	427.246	73	25
427.183	427.246	78	35
427.235	427.704	76	43
427.239	427.704	59	31
427.344	427.704	73	25
427.456	427.704	68	25
427.579	427.704	64	25
427.701	428.138	37	44
427.704	428.138	49	52
427.806	428.138	42	47
427.806	428.138	54	36
427.915	428.138	58	41
428.019	428.138	66	36
428.02	428.138	64	28
428.135	428.694	35	32
428.135	428.694	47	38
428.24	428.694	54	24
428.241	428.694	42	35
428.363	428.694	59	27
428.485	428.694	66	24
428.486	428.694	63	19
428.691	429.56	71	35
428.692	429.143	62	34
428.692	429.087	78	50
428.803	429.038	73	25
428.919	429.15	66	25
429.035	429.15	80	36
429.038	429.15	73	25
429.087	429.15	78	36
429.14	429.563	77	50
429.143	429.563	62	31
429.245	429.451	73	25
429.356	429.563	66	25
429.356	429.563	78	41
429.451	429.563	73	25
429.507	429.563	81	35
429.56	430.007	71	29
429.56	429.959	80	43
429.562	430.014	64	34
429.668	429.899	73	25
429.783	430.014	68	25
429.899	430.014	73	25
429.959	430.014	80	35
430.007	430.455	71	29
430.007	430.455	78	43
430.008	430.455	62	31
430.116	430.341	73	25
430.231	430.455	66	25
430.341	430.455	73	25
430.453	430.886	37	44
430.455	430.886	49	52
430.557	430.886	42	47
430.557	430.886	54	36
430.662	430.886	58	41
430.77	430.886	66	36
430.771	430.886	64	28
430.883	431.442	35	32
430.886	431.442	47	38
430.991	431.442	54	24
430.994	431.442	42	35
431.11	431.442	59	27
431.235	431.442	66	24
431.236	431.442	63	19
431.393	431.442	81	37
431.441	431.599	80	50
431.442	431.663	62	34
431.548	431.663	73	25
431.599	431.663	80	37
431.649	431.809	78	50
431.65	431.872	66	25
431.757	431.872	73	25
431.809	431.872	78	37
431.856	432.023	77	50
431.859	432.083	62	31
431.974	432.083	71	25
432.023	432.083	77	37
432.071	432.321	74	50
432.072	432.321	66	25
432.192	432.321	71	25
432.308	432.551	73	50
432.31	432.551	65	34
432.426	432.551	71	25
432.535	432.769	85	50
432.537	432.779	68	25
432.653	432.779	71	25
432.769	433.007	66	31
432.769	433.007	85	50
432.884	433.007	76	25
432.993	433.238	97	50
432.996	433.238	70	25
433.112	433.238	76	25
433.238	433.679	42	46
433.343	433.679	49	42
433.343	433.679	54	32
433.445	433.679	58	36
433.557	433.679	64	25
433.557	433.679	66	32
433.672	434.232	35	34
433.776	434.232	54	21
433.777	434.232	47	31
433.892	434.232	59	24
434.022	434.232	66	21
434.023	434.232	63	17
434.228	435.092	71	35
434.229	434.674	62	34
434.229	434.624	78	50
434.34	434.575	73	25
434.459	434.687	66	25
434.572	434.687	80	36
434.575	434.687	73	25
434.624	434.687	78	36
434.673	435.099	77	50
434.674	435.099	62	31
434.782	434.991	73	25
434.887	435.099	78	41
434.89	435.099	66	25
434.991	435.099	73	25
435.044	435.099	81	35
435.092	435.544	71	29
435.093	435.551	64	34
435.093	435.492	80	43
435.205	435.439	73	25
435.32	435.551	68	25
435.439	435.551	73	25
435.492	435.551	80	35
435.544	435.993	71	29
435.545	435.993	78	43
435.548	435.993	62	31
435.653	435.873	73	25
435.765	435.993	66	25
435.873	435.993	73	25
435.992	436.42	37	39
435.993	436.42	49	46
436.094	436.42	42	42
436.094	436.42	54	32
436.199	436.42	58	36
436.3	436.42	66	32
436.304	436.42	64	25
436.416	436.976	35	28
436.42	436.976	47	34
436.522	436.976	54	21
436.524	436.976	42	31
436.647	436.976	59	24
436.773	436.976	66	24
436.776	436.976	63	19
436.924	436.976	81	37
436.973	437.189	62	34
436.973	437.13	80	50
437.081	437.189	73	25
437.13	437.189	80	37
437.182	437.346	78	50
437.183	437.409	66	25
437.291	437.409	73	25
437.346	437.409	78	37
437.396	437.62	62	31
437.396	437.56	77	50
437.505	437.62	71	25
437.56	437.62	77	37
437.609	437.844	74	50
437.613	437.844	66	25
437.725	437.844	71	25
437.833	438.078	73	50
437.837	438.078	65	34
437.953	438.078	71	25
438.068	438.309	68	25
438.068	438.296	85	50
438.184	438.309	71	25
438.296	438.53	66	31
438.296	438.53	85	50
438.411	438.53	76	25
438.526	438.789	97	50
438.527	438.789	70	25
438.66	438.789	76	25
438.786	439.325	42	44
438.919	439.325	49	39
438.919	439.325	54	30
439.048	439.325	58	34
439.181	439.325	66	30
439.184	439.325	64	23
439.325	440.066	35	32
439.471	440.066	54	20
439.472	440.066	47	29
439.619	440.066	59	22
439.769	440.066	66	20
439.77	440.066	63	16
440.063	440.527	81	42
440.064	440.527	51	34
440.064	440.458	93	50
440.217	440.527	61	25
440.372	440.527	59	25
440.413	440.527	95	36
440.458	440.527	93	36
440.514	440.951	80	42
440.514	440.951	92	50
440.515	440.951	69	31
440.623	440.951	66	25
440.735	440.951	78	34
440.735	440.951	90	41
440.736	440.951	61	25
440.836	440.951	59	25
440.943	441.403	83	36
440.945	441.403	52	34
440.945	441.403	95	43
441.099	441.403	61	25
441.175	441.403	75	38
441.176	441.403	87	45
441.249	441.403	59	25
441.345	441.403	90	35
441.396	441.879	76	36
441.397	441.879	88	43
441.4	441.879	68	31
441.505	441.879	64	25
441.614	441.879	61	25
441.725	441.879	59	25
441.838	442.299	81	42
441.839	442.299	51	34
441.839	442.23	93	50
441.992	442.299	61	25
442.142	442.299	59	25
442.184	442.299	95	36
442.23	442.299	93	36
442.285	442.712	80	42
442.286	442.712	69	31
442.286	442.712	92	50
442.387	442.712	66	25
442.499	442.712	78	34
442.499	442.712	90	41
442.503	442.712	61	25
442.596	442.712	59	25
442.702	443.164	83	37
442.705	443.164	52	34
442.705	443.164	95	44
442.849	443.164	61	25
442.926	443.164	75	38
442.929	443.164	87	45
443.006	443.164	59	25
443.101	443.164	90	35
443.15	443.622	76	36
443.15	443.622	88	43
443.151	443.622	68	31
443.265	443.622	64	25
443.374	443.622	61	25
443.497	443.622	59	25
443.62	444.06	37	41
443.622	444.06	49	49
443.72	444.06	54	34
443.724	444.06	42	44
443.826	444.06	58	38
443.931	444.06	66	34
443.934	444.06	64	26
444.056	444.593	35	30
444.057	444.593	47	36
444.165	444.593	42	33
444.165	444.593	54	22
444.274	444.593	59	25
444.392	444.593	66	22
444.396	444.593	63	18
444.592	445.054	81	42
444.593	445.054	51	34
444.593	444.987	93	50
444.743	445.054	61	25
444.9	445.054	59	25
444.943	445.054	95	36
444.987	445.054	93	36
445.043	445.477	80	42
445.043	445.477	92	50
445.044	445.477	69	31
445.149	445.477	66	25
445.264	445.477	78	34
445.265	445.477	61	25
445.265	445.477	90	41
445.362	445.477	59	25
445.472	445.931	83	36
445.473	445.931	52	34
445.473	445.931	95	43
445.62	445.931	61	25
445.7	445.931	75	38
445.704	445.931	87	45
445.774	445.931	59	25
445.871	445.931	90	35
445.924	446.407	76	36
445.924	446.407	88	43
445.925	446.407	68	31
446.029	446.407	64	25
446.142	446.407	61	25
446.25	446.407	59	25
446.366	446.82	81	42
446.366	446.758	93	50
446.367	446.82	51	34
446.52	446.82	61	25
446.67	446.82	59	25
446.705	446.82	95	36
446.758	446.82	93	36
446.81	447.233	80	42
446.813	447.233	92	50
446.814	447.233	69	31
446.916	447.233	66	25
447.027	447.233	78	34
447.028	447.233	61	25
447.028	447.233	90	41
447.122	447.233	59	25
447.23	447.689	83	37
447.231	447.689	52	34
447.231	447.689	95	44
447.377	447.689	61	25
447.454	447.689	75	38
447.457	447.689	87	45
447.528	447.689	59	25
447.629	447.689	90	35
447.682	448.148	76	36
447.682	448.148	88	43
447.685	448.148	68	31
447.79	448.148	64	25
447.902	448.148	61	25
448.021	448.148	59	25
448.147	448.585	37	41
448.148	448.585	49	49
448.249	448.585	42	44
448.249	448.585	54	34
448.354	448.585	58	38
448.455	448.585	66	34
448.458	448.585	64	26
448.584	449.123	35	30
448.584	449.123	47	36
448.69	449.123	54	22
448.693	449.123	42	33
448.795	449.123	59	25
448.924	449.123	63	18
448.924	449.123	66	22
449.117	449.575	78	42
449.117	449.515	90	50
449.12	449.575	50	34
449.267	449.575	61	25
449.427	449.575	59	25
449.464	449.575	92	36
449.515	449.575	90	36
449.569	449.995	77	42
449.569	449.995	89	50
449.571	449.995	66	34
449.705	449.995	61	25
449.782	449.995	78	34
449.785	449.995	90	41
449.845	449.995	59	25
449.932	449.995	93	35
449.986	450.443	80	36
449.988	450.443	52	34
449.988	450.386	92	43
450.136	450.443	59	29
450.289	450.443	68	28
450.386	450.443	92	35
450.433	450.884	78	24
450.436	450.884	50	34
450.436	450.884	90	43
450.58	450.884	59	27
450.733	450.884	66	27
450.88	451.318	37	44
450.881	451.318	49	52
450.982	451.318	42	47
450.982	451.318	54	36
451.088	451.318	58	41
451.199	451.318	66	36
451.2	451.318	64	28
451.315	451.808	35	32
451.318	451.808	47	38
451.424	451.808	54	24
451.426	451.808	42	35
451.535	451.808	59	27
451.661	451.808	66	24
451.665	451.808	63	19
451.756	451.808	93	37
451.804	452.024	80	42
451.804	451.961	92	50
451.805	452.024	50	34
451.948	452.242	61	25
451.961	452.024	92	37
452.011	452.242	78	42
452.011	452.179	90	50
452.088	452.242	59	25
452.179	452.242	90	37
452.226	452.449	76	42
452.228	452.449	66	34
452.228	452.392	88	50
452.376	452.675	61	25
452.392	452.449	88	37
452.446	452.675	74	42
452.448	452.675	86	50
452.515	452.675	59	25
452.673	452.914	53	34
452.673	452.914	73	50
452.823	452.973	59	29
452.897	453.124	85	50
452.974	453.141	68	28
453.124	453.369	85	50
453.125	453.369	54	34
453.282	453.642	64	27
453.355	453.642	97	50
453.449	453.642	70	27
453.639	454.157	42	44
453.761	454.157	49	39
453.761	454.157	54	30
453.884	454.157	58	34
454.007	454.157	64	23
454.007	454.157	66	30
454.157	454.727	35	32
454.271	454.727	54	20
454.276	454.727	42	29
454.401	454.727	59	22
454.524	454.727	63	16
454.524	454.727	66	20
454.717	455.181	78	42
454.72	455.123	90	50
454.721	455.181	50	34
454.873	455.181	61	25
455.028	455.181	59	25
455.07	455.181	92	36
455.123	455.181	90	36
455.175	455.612	77	42
455.179	455.612	66	34
455.179	455.612	89	50
455.319	455.612	61	25
455.389	455.612	78	34
455.392	455.612	90	41
455.466	455.612	59	25
455.55	455.612	93	35
455.606	456.072	80	36
455.609	456.015	92	43
455.61	456.072	52	34
455.76	456.072	59	29
455.917	456.072	68	28
456.015	456.072	92	35
456.071	456.512	78	24
456.071	456.512	90	43
456.072	456.512	50	34
456.211	456.512	59	27
456.365	456.512	66	27
456.511	456.968	37	44
456.512	456.968	49	52
456.618	456.968	54	36
456.62	456.968	42	47
456.729	456.968	58	41
456.841	456.968	66	36
456.842	456.968	64	28
456.967	457.463	35	32
456.968	457.463	47	38
457.079	457.463	54	24
457.08	457.463	42	35
457.201	457.463	59	27
457.32	457.463	63	19
457.324	457.463	66	24
457.454	458.36	50	34
457.454	458.36	93	45
457.524	458.36	92	44
457.607	458.36	90	44
457.608	458.057	61	25
457.681	458.36	88	43
457.763	458.36	86	43
457.765	458.195	59	25
457.832	458.36	85	42
457.909	458.36	66	34
457.909	458.36	83	42
457.978	458.36	81	41
458.056	458.36	80	41
458.057	458.36	61	25
458.129	458.36	78	40
458.193	458.36	76	39
458.195	458.36	59	25
458.263	458.36	74	39
458.34	459.098	73	40
458.342	461.706	52	34
458.454	458.57	85	36
458.493	461.706	59	29
458.57	458.899	85	36
458.65	461.676	68	28
458.693	458.801	97	38
458.801	459.508	97	39
458.899	459.001	85	36
459.001	459.312	85	36
459.098	459.214	73	37
459.214	459.91	73	44
459.312	459.409	85	36
459.409	459.708	85	36
459.508	459.606	97	41
459.606	460.32	97	41
459.708	459.812	85	36
459.812	460.123	85	36
459.91	460.026	73	36
460.026	461.706	73	42
460.123	460.222	85	37
460.222	460.526	85	37
460.32	460.417	97	40
460.417	460.722	97	40
460.526	460.624	85	37
460.624	460.936	85	37
460.722	460.838	97	37
460.838	461.14	97	42
460.936	461.037	85	37
461.037	461.342	85	37
461.14	461.241	97	39
461.241	461.556	97	39
461.342	461.448	85	37
461.448	461.706	85	37
461.556	461.706	97	37
461.655	462.569	64	37
461.676	462.572	68	42
461.704	462.572	74	49
461.704	461.858	98	39
461.781	462.572	100	38
461.858	462.572	98	37
461.931	462.572	97	36
462.008	462.572	95	36
462.079	462.572	93	36
462.149	462.572	73	47
462.149	462.572	92	35
462.218	462.572	90	34
462.288	462.572	88	33
462.355	462.572	86	32
462.358	462.572	71	41
462.425	462.572	85	31
462.495	462.572	83	30
462.567	462.714	81	29
462.569	463.436	64	38
462.572	463.491	73	38
462.572	463.491	76	45
462.641	463.491	80	28
462.714	463.491	81	29
462.792	463.491	83	31
462.793	463.456	68	39
462.864	463.491	85	32
462.942	463.491	86	33
463.015	463.491	88	34
463.019	463.491	69	45
463.086	463.491	90	35
463.156	463.491	92	36
463.225	463.491	93	36
463.302	463.491	95	37
463.397	463.491	97	38
463.436	464.357	64	37
463.456	464.36	68	42
463.487	463.638	98	39
463.488	464.36	74	49
463.561	464.36	100	38
463.638	464.36	98	37
463.712	464.36	97	36
463.789	464.36	95	36
463.859	464.36	93	36
463.93	464.357	73	47
463.93	464.36	92	35
463.999	464.36	90	34
464.066	464.36	88	33
464.136	464.36	86	32
464.138	464.36	71	41
464.212	464.36	85	31
464.275	464.36	83	30
464.356	464.496	81	29
464.357	465.213	64	38
464.357	465.273	73	38
464.359	465.273	76	45
464.419	465.273	80	28
464.496	465.273	81	29
464.574	465.273	83	31
464.576	465.237	68	39
464.649	465.273	85	32
464.724	465.273	86	33
464.8	465.273	88	34
464.801	465.273	69	45
464.867	465.273	90	35
464.937	465.273	92	36
465.007	465.273	93	36
465.083	465.273	95	37
465.182	465.273	97	38
465.213	466.134	64	37
465.237	466.144	68	42
465.269	465.413	98	39
465.273	466.144	74	49
465.343	466.144	100	38
465.413	466.144	98	37
465.497	466.144	97	36
465.57	466.144	95	36
465.64	466.144	93	36
465.707	466.135	73	47
465.707	466.144	92	35
465.774	466.144	90	34
465.85	466.144	88	33
465.92	466.144	86	32
465.921	466.144	71	41
465.987	466.144	85	31
466.056	466.144	83	30
466.134	467.009	64	38
466.134	466.281	81	29
466.135	467.043	73	38
466.135	467.043	76	45
466.204	467.043	80	28
466.281	467.043	81	29
466.355	467.043	83	31
466.357	467.009	68	39
466.424	467.043	85	32
466.501	467.043	86	33
466.578	467.043	69	45
466.578	467.043	88	34
466.645	467.043	90	35
466.722	467.043	92	36
466.792	467.043	93	36
466.862	467.043	95	37
466.936	467.043	97	38
467.008	467.078	98	41
467.009	468.728	64	39
467.009	468.728	68	39
467.009	468.728	71	39
467.012	469.591	74	49
467.078	467.359	99	44
467.149	467.289	100	46
467.219	468.728	101	49
467.289	468.728	100	49
467.359	468.728	99	47
467.436	468.728	98	46
467.506	468.728	97	45
467.575	468.728	96	44
467.643	468.08	95	43
467.719	468.009	94	41
467.789	467.933	93	40
467.866	468.289	92	39
467.933	468.219	93	44
468.009	468.15	94	46
468.08	468.728	95	48
468.15	468.728	94	49
468.219	468.728	93	48
468.289	468.728	92	47
468.363	468.728	91	46
468.433	468.728	90	45
468.503	468.728	89	45
468.58	468.728	88	44
468.653	468.728	87	43
468.727	469.147	86	41
468.794	469.077	87	44
468.867	469.007	88	46
468.938	469.591	89	49
469.007	469.591	88	49
469.077	469.591	87	47
469.147	469.591	86	46
469.218	469.591	85	45
469.294	469.591	84	44
469.361	469.591	83	43
469.431	469.591	82	41
469.508	469.591	81	40
469.578	470.004	80	39
469.654	469.935	81	44
469.725	469.865	82	46
469.791	470.443	83	48
469.865	470.443	82	49
469.935	470.443	81	48
470.004	470.443	80	47
470.075	470.443	79	46
470.152	470.443	78	45
470.221	470.443	77	45
470.289	470.443	76	44
470.365	470.443	75	43
470.442	470.87	74	41
470.509	470.803	75	44
470.586	470.726	76	46
470.656	471.335	77	49
470.726	471.335	76	49
470.803	471.335	75	47
470.87	471.335	74	46
470.947	471.335	73	45
471.016	471.335	72	44
471.093	471.335	71	43
471.163	471.335	70	41
471.237	471.335	69	40
471.314	471.741	68	39
471.38	471.671	69	44
471.457	471.597	70	46
471.528	472.021	71	48
471.597	472.021	70	49
471.671	472.021	69	48
471.741	472.021	68	45
471.801	472.021	67	45
471.853	472.021	66	47
471.909	472.021	65	49
471.968	472.083	64	50
472.255	472.531	67	45
472.258	472.531	70	54
472.259	472.325	63	40
472.436	472.507	64	38
472.623	472.685	67	43
472.623	472.689	70	51
472.626	472.689	61	38
472.79	472.86	67	43
472.791	472.861	63	38
472.797	472.864	70	51
472.966	473.494	66	48
472.966	473.494	75	56
472.967	473.029	59	40
473.137	473.207	61	38
473.319	473.381	57	38
473.497	473.557	75	49
473.498	473.558	59	38
473.498	473.557	66	41
473.673	473.844	64	44
473.673	473.735	73	52
473.676	473.739	55	44
473.844	473.9	70	52
473.845	473.9	61	39
474.012	474.076	56	38
474.012	474.18	63	44
474.012	474.075	71	52
474.18	474.247	68	54
474.181	474.247	59	40
474.352	474.533	67	44
474.355	474.425	51	40
474.355	474.421	70	53
474.537	474.607	63	50
474.54	474.607	58	37
474.719	475.1	63	45
475.101	475.373	67	49
475.104	475.374	70	59
475.105	475.17	63	44
475.286	475.349	64	41
475.468	475.531	67	47
475.469	475.532	61	41
475.469	475.531	70	56
475.639	475.706	67	47
475.643	475.707	63	41
475.643	475.707	70	56
475.811	476.339	66	52
475.812	475.878	59	44
475.812	476.34	75	61
475.99	476.052	61	41
476.161	476.231	57	41
476.34	476.409	75	53
476.341	476.41	66	45
476.343	476.41	59	41
476.518	476.687	64	48
476.519	476.581	73	57
476.522	476.581	56	48
476.687	476.749	71	57
476.689	476.752	61	39
476.854	477.029	67	48
476.854	476.917	70	58
476.858	476.921	51	41
477.03	477.093	55	39
477.03	477.092	63	61
477.032	477.095	61	45
477.197	477.267	56	46
477.197	477.266	68	60
477.382	477.452	63	58
477.383	477.453	59	42
477.568	477.645	63	55
477.568	477.646	68	62
477.572	477.646	56	48
477.572	477.647	59	52
477.974	478.247	70	58
477.975	478.247	75	58
477.978	478.202	51	44
477.978	478.251	79	58
477.978	478.251	82	70
477.982	478.202	63	52
478.16	478.226	52	41
478.163	478.226	64	49
478.341	478.404	70	55
478.342	478.405	75	55
478.342	478.405	79	55
478.345	478.408	82	66
478.346	478.409	49	41
478.346	478.411	61	49
478.51	478.579	70	55
478.51	478.58	75	55
478.511	478.58	79	55
478.513	478.582	51	41
478.513	478.583	63	49
478.513	478.583	82	66
478.681	479.21	75	62
478.685	479.21	78	62
478.685	479.213	87	72
478.688	478.888	47	44
478.689	478.888	59	52
478.856	478.927	49	41
478.856	478.927	61	49
479.038	479.101	45	41
479.039	479.101	57	49
479.213	479.279	75	53
479.217	479.284	78	53
479.217	479.284	87	63
479.219	479.284	47	41
479.22	479.286	59	49
479.391	479.455	73	57
479.395	479.455	76	57
479.395	479.456	85	67
479.396	479.728	43	48
479.396	479.728	55	57
479.559	479.626	70	67
479.56	479.627	82	67
479.731	479.794	71	57
479.732	479.794	75	57
479.732	479.795	83	67
479.735	480.071	44	41
479.735	480.071	56	49
479.902	479.965	68	70
479.903	479.969	80	70
480.072	480.141	70	57
480.074	480.141	75	57
480.074	480.142	82	68
480.075	480.144	39	44
480.078	480.144	51	52
480.25	480.315	63	57
480.253	480.316	43	40
480.253	480.316	75	65
480.256	480.319	55	48
480.424	480.494	63	57
480.424	480.494	75	68
480.428	480.498	46	40
480.428	480.498	58	48
480.606	480.676	50	40
480.607	480.677	62	48
480.792	481.065	70	60
480.792	481.065	75	60
480.793	481.065	79	60
480.795	480.994	51	46
480.795	480.994	63	54
480.795	481.068	82	73
480.977	481.04	52	43
480.978	481.04	64	51
481.156	481.222	70	57
481.159	481.223	75	57
481.159	481.223	79	57
481.159	481.224	82	69
481.16	481.225	49	43
481.163	481.226	61	51
481.33	481.394	70	57
481.331	481.397	75	57
481.331	481.397	79	57
481.334	481.397	51	43
481.335	481.398	63	51
481.335	481.401	82	69
481.498	482.205	75	65
481.499	482.206	78	65
481.499	482.209	87	75
481.502	481.568	47	46
481.502	481.569	59	54
481.677	481.744	49	43
481.681	481.744	61	51
481.852	481.915	45	43
481.853	481.918	57	51
482.027	482.097	47	43
482.027	482.097	59	51
482.21	482.573	74	63
482.213	482.574	79	63
482.213	482.574	83	63
482.213	482.576	86	76
482.216	482.577	43	48
482.217	482.577	55	56
482.388	482.577	45	45
482.388	482.577	57	53
482.573	482.636	74	59
482.574	482.637	79	59
482.574	482.639	83	59
482.576	482.639	86	72
482.577	482.64	41	45
482.577	482.643	53	53
482.741	482.804	74	59
482.741	482.804	86	72
482.742	482.808	79	59
482.745	482.808	43	45
482.745	482.812	55	53
482.745	482.808	83	59
482.916	483.62	79	68
482.917	483.62	82	68
482.917	483.621	87	68
482.919	483.621	91	78
482.92	483.119	39	48
482.92	483.119	51	56
483.088	483.157	41	45
483.09	483.161	53	53
483.269	483.333	37	45
483.27	483.333	49	53
483.44	483.511	39	45
483.445	483.514	51	53
483.623	483.973	79	66
483.623	483.973	84	66
483.624	483.973	88	66
483.624	483.973	91	79
483.627	483.973	36	67
483.802	483.973	48	55
483.984	484.047	79	61
483.984	484.047	84	61
483.985	484.05	88	61
483.987	484.155	35	64
483.987	484.05	91	75
484.158	484.221	91	75
484.162	484.222	79	61
484.163	484.225	47	55
484.163	484.222	84	61
484.163	484.225	88	61
484.327	485.044	84	71
484.327	485.044	88	71
484.328	485.044	91	71
484.33	484.663	33	70
484.33	485.044	96	81
484.508	484.663	45	55
484.68	485.044	31	67
484.862	485.044	43	56
485.037	485.377	67	67
485.041	485.377	72	67
485.041	485.377	76	67
485.042	485.377	79	80
485.044	485.377	36	68
485.216	485.377	48	56
485.397	485.464	67	62
485.398	485.465	72	62
485.402	485.467	76	62
485.405	485.569	35	65
485.405	485.468	79	77
485.569	485.639	79	77
485.57	485.639	67	62
485.57	485.64	72	62
485.573	485.643	47	56
485.573	485.64	76	62
485.744	486.462	72	73
485.745	486.462	76	73
485.745	486.455	79	73
485.746	486.458	84	83
485.747	486.462	40	72
485.923	486.462	52	75
486.455	486.811	79	69
486.458	486.812	84	69
486.459	486.812	88	69
486.459	486.815	91	82
486.461	486.822	36	58
486.462	486.63	48	70
486.63	486.822	48	48
486.63	486.822	60	57
486.811	486.882	79	64
486.812	486.882	84	64
486.812	486.883	88	64
486.815	486.885	35	56
486.815	486.883	91	78
486.816	486.885	47	67
486.983	487.05	91	78
486.987	487.05	79	64
486.987	487.05	84	64
486.987	487.051	88	64
486.99	487.054	47	48
486.99	487.053	59	57
487.158	487.877	84	75
487.159	487.877	88	75
487.159	487.877	91	75
487.161	487.877	96	85
487.162	487.333	45	74
487.165	487.526	33	62
487.332	487.526	57	58
487.333	487.526	45	48
487.512	487.877	31	59
487.512	487.687	43	71
487.686	487.877	55	58
487.687	487.877	43	49
487.872	488.226	67	70
487.873	488.226	72	70
487.873	488.229	76	70
487.876	487.932	36	59
487.876	488.229	79	84
487.877	487.932	48	71
488.047	488.233	48	49
488.048	488.233	60	58
488.226	488.289	67	65
488.226	488.292	72	65
488.229	488.292	76	65
488.229	488.296	79	81
488.233	488.296	38	58
488.233	488.296	50	69
488.4	488.463	79	81
488.401	488.464	67	65
488.401	488.467	72	65
488.404	488.468	76	65
488.405	488.47	50	49
488.405	488.468	62	59
488.569	489.311	72	76
488.572	489.311	76	76
488.572	489.311	79	76
488.573	489.311	84	87
488.576	489.311	40	63
488.576	488.75	52	75
488.747	489.311	64	80
488.75	489.311	52	65
489.308	489.671	85	72
489.308	489.674	93	72
489.309	489.675	97	86
489.311	489.685	33	61
489.311	489.479	45	73
489.479	489.685	45	50
489.482	489.685	57	60
489.671	489.737	85	67
489.674	489.738	93	67
489.675	489.738	32	59
489.675	489.738	97	82
489.679	489.741	44	70
489.839	489.909	97	82
489.843	489.913	85	67
489.843	489.913	93	67
489.844	489.913	56	60
489.846	489.916	44	50
490.021	490.743	97	78
490.022	490.743	88	78
490.022	490.743	93	78
490.024	490.743	100	89
490.025	490.367	30	64
490.025	490.196	42	77
490.193	490.367	54	60
490.196	490.367	42	50
490.381	490.557	40	73
490.382	490.743	28	61
490.553	490.743	52	60
490.557	490.743	40	50
490.739	491.106	73	72
490.739	491.106	81	72
490.742	491.107	85	86
490.743	491.131	33	61
490.743	490.92	45	73
490.92	491.131	45	50
490.921	491.131	57	60
491.106	491.169	73	67
491.106	491.173	81	67
491.107	491.173	85	82
491.11	491.174	35	59
491.11	491.174	47	70
491.281	491.351	85	82
491.282	491.352	73	67
491.282	491.352	81	67
491.284	491.353	59	60
491.285	491.354	47	50
491.46	492.181	85	78
491.461	492.188	76	78
491.463	492.188	81	78
491.463	492.188	88	89
491.464	492.188	37	64
491.464	491.642	49	77
491.641	492.188	61	81
491.642	492.188	49	66
492.181	492.551	85	72
492.182	492.552	93	72
492.184	492.557	33	61
492.184	492.556	97	86
492.185	492.366	45	73
492.366	492.557	45	50
492.367	492.557	57	60
492.551	492.614	85	67
492.552	492.615	93	67
492.556	492.619	32	59
492.556	492.619	44	70
492.556	492.618	97	82
492.727	492.797	97	82
492.728	492.798	56	60
492.728	492.797	85	67
492.728	492.798	93	67
492.73	492.8	44	50
492.905	493.651	97	78
492.906	493.651	88	78
492.908	493.651	93	78
492.909	493.276	30	64
492.909	493.087	42	77
492.909	493.651	100	89
493.087	493.276	42	50
493.087	493.276	54	60
493.269	493.458	40	73
493.272	493.651	28	61
493.458	493.651	40	50
493.458	493.651	52	60
493.648	494.032	73	72
493.648	494.032	81	72
493.65	494.033	85	86
493.651	494.043	33	61
493.651	493.833	45	73
493.833	494.043	45	50
493.837	494.043	57	60
494.032	494.102	73	67
494.032	494.102	81	67
494.033	494.103	85	82
494.036	494.106	35	59
494.036	494.106	47	70
494.218	494.284	73	67
494.218	494.28	85	82
494.221	494.285	81	67
494.222	494.287	47	50
494.222	494.285	59	60
494.4	495.181	76	78
494.4	495.18	85	78
494.401	495.184	81	78
494.401	495.184	88	89
494.403	495.093	37	64
494.403	494.614	49	77
494.613	495.135	61	81
494.614	495.135	49	66
495.184	495.576	54	73
495.188	495.566	58	73
495.188	495.569	61	73
495.189	495.576	66	87
495.191	495.576	30	55
495.191	495.573	34	55
495.191	495.573	37	55
495.194	495.576	42	65
495.566	495.947	58	68
495.569	495.954	53	68
495.569	495.954	61	68
495.569	495.954	65	80
495.572	495.954	29	51
495.573	495.951	34	51
495.573	495.954	37	51
495.575	495.954	41	60
495.944	496.325	51	72
495.947	496.318	54	72
495.947	496.319	58	72
495.948	496.325	63	85
495.95	496.325	27	55
495.95	496.321	30	55
495.951	496.322	34	55
495.954	496.325	39	65
496.318	496.706	54	68
496.319	496.713	49	68
496.319	496.706	58	68
496.319	496.707	61	80
496.321	496.713	25	51
496.321	496.71	30	51
496.322	496.71	34	51
496.322	496.711	37	51
496.706	496.881	54	73
496.706	496.882	58	73
496.707	496.884	61	73
496.71	496.888	30	55
496.71	496.889	34	55
496.71	496.885	66	86
496.711	496.889	37	55
496.713	496.891	42	65
496.881	497.088	54	68
496.882	497.088	58	68
496.884	497.071	61	68
496.885	497.088	66	80
496.888	497.088	30	51
496.889	497.088	34	51
496.889	497.074	37	51
496.891	497.088	42	60
497.066	497.466	56	73
497.071	497.459	61	73
497.071	497.466	68	86
497.074	497.466	32	55
497.074	497.463	37	55
497.074	497.466	44	65
497.459	497.822	58	75
497.459	497.823	61	75
497.459	497.823	66	75
497.462	497.826	70	89
497.463	497.827	34	57
497.463	497.827	37	57
497.463	497.827	42	57
497.465	497.829	46	68
498.201	498.582	54	73
498.202	498.575	58	73
498.202	498.575	61	73
498.202	498.582	66	87
498.204	498.582	30	55
498.204	498.579	34	55
498.205	498.58	37	55
498.205	498.582	42	65
498.575	498.943	58	68
498.575	498.947	61	68
498.576	498.947	53	68
498.576	498.947	65	80
498.579	498.947	29	51
498.579	498.946	34	51
498.58	498.947	37	51
498.58	498.947	41	60
498.94	499.307	51	72
498.94	499.3	54	72
498.943	499.3	58	72
498.943	499.307	63	85
498.944	499.307	27	55
498.946	499.304	30	55
498.946	499.307	34	55
498.947	499.307	39	65
499.3	499.682	54	68
499.3	499.685	58	68
499.303	499.692	25	51
499.303	499.692	49	68
499.303	499.685	61	80
499.304	499.688	30	51
499.307	499.689	34	51
499.307	499.689	37	51
499.682	499.853	54	73
499.685	499.856	58	73
499.685	499.857	61	73
499.685	499.857	66	86
499.688	499.86	30	55
499.689	499.861	34	55
499.689	499.861	37	55
499.69	499.863	42	65
499.853	500.059	54	68
499.856	500.059	58	68
499.857	500.035	61	68
499.857	500.059	66	80
499.86	500.059	30	51
499.861	500.059	34	51
499.861	500.039	37	51
499.863	500.059	42	60
500.034	500.431	56	73
500.035	500.425	61	73
500.035	500.431	68	86
500.038	500.431	32	55
500.039	500.427	37	55
500.039	500.431	44	65
500.424	500.787	58	75
500.425	500.788	61	75
500.426	500.791	66	75
500.426	500.792	70	89
500.427	500.794	34	57
500.427	500.795	37	57
500.43	500.795	42	57
500.43	500.798	46	68
501.165	501.732	61	77
501.166	501.733	66	77
501.169	501.733	70	77
501.17	501.736	42	62
501.17	501.735	73	91
501.172	501.736	46	62
501.172	501.736	49	62
501.173	501.739	54	73
501.732	501.932	61	72
501.733	501.925	66	72
501.733	501.932	70	72
501.735	501.932	73	85
501.736	501.932	42	57
501.736	501.932	46	57
501.736	501.932	49	57
501.739	501.929	54	68
501.925	502.31	63	78
501.925	502.303	66	78
501.926	502.31	71	78
501.926	502.31	75	92
501.929	502.31	47	62
501.929	502.31	51	62
501.929	502.307	54	62
501.93	502.31	59	73
502.3	502.684	61	73
502.303	502.684	66	73
502.303	502.681	70	73
502.303	502.684	73	86
502.304	502.684	42	59
502.307	502.681	46	59
502.307	502.684	49	59
502.307	502.684	54	70
502.678	503.238	58	79
502.681	503.426	34	62
502.681	503.241	46	74
502.681	503.426	70	93
503.238	503.423	58	73
503.239	503.426	68	87
503.241	503.426	38	56
503.241	503.426	46	67
503.423	503.51	58	77
503.424	503.515	39	61
503.424	503.514	66	91
503.426	503.515	46	72
503.597	503.692	58	72
503.598	503.693	65	85
503.599	503.693	41	58
503.602	503.694	46	69
503.783	503.968	58	71
503.783	503.973	63	84
503.787	503.973	42	58
503.787	503.973	46	69
504.154	504.529	66	66
504.158	504.305	70	78
504.159	504.529	54	66
504.161	504.529	58	78
504.228	504.522	71	73
504.305	504.448	70	73
504.372	504.529	69	73
504.448	504.529	70	73
504.52	504.609	68	62
504.522	504.612	56	58
504.522	504.61	71	73
504.526	504.613	59	69
504.7	504.798	66	59
504.701	504.802	70	70
504.704	504.802	54	58
504.705	504.805	58	69
504.9	504.995	53	62
504.9	504.99	65	68
504.9	504.994	68	80
504.904	504.995	56	74
505.089	505.184	63	62
505.092	505.187	51	58
505.092	505.184	66	73
505.093	505.187	54	69
505.275	505.467	58	62
505.278	505.47	46	58
505.278	505.47	65	73
505.281	505.471	53	69
505.659	505.89	54	75
505.66	505.89	58	75
505.663	505.89	63	89
505.664	505.89	39	64
505.664	505.89	46	64
505.664	505.89	51	76
506.408	506.975	73	77
506.408	506.976	78	77
506.409	506.976	82	77
506.412	506.979	42	62
506.412	506.979	46	62
506.412	506.976	85	91
506.415	506.98	49	62
506.415	506.982	54	73
506.975	507.175	73	72
506.976	507.168	78	72
506.976	507.175	82	72
506.976	507.175	85	85
506.979	507.175	42	57
506.979	507.175	46	57
506.98	507.175	49	57
506.982	507.172	54	68
507.165	507.55	75	78
507.168	507.543	78	78
507.168	507.55	83	78
507.168	507.55	87	92
507.171	507.55	47	62
507.172	507.55	51	62
507.172	507.55	54	62
507.173	507.55	59	73
507.543	507.931	73	73
507.543	507.931	78	73
507.544	507.928	82	73
507.546	507.931	42	59
507.546	507.929	46	59
507.546	507.931	85	86
507.549	507.931	49	59
507.55	507.931	54	70
507.928	508.673	34	62
507.928	508.673	70	79
507.928	508.673	82	93
507.929	508.482	46	74
508.481	508.673	68	73
508.481	508.673	80	87
508.482	508.669	46	56
508.483	508.673	38	56
508.484	508.673	50	67
508.666	508.754	66	77
508.669	508.757	46	61
508.669	508.754	78	91
508.67	508.757	39	61
508.67	508.757	51	72
508.84	508.935	65	72
508.841	508.936	46	58
508.841	508.936	77	85
508.844	508.936	41	58
508.845	508.939	53	69
509.026	509.212	63	71
509.026	509.213	75	84
509.027	509.213	46	58
509.03	509.215	42	58
509.03	509.216	54	69
509.398	509.758	78	66
509.398	509.538	82	78
509.4	509.758	58	66
509.401	509.758	54	66
509.401	509.758	66	78
509.468	509.752	83	73
509.538	509.677	82	73
509.608	509.758	81	73
509.677	509.758	82	73
509.751	509.834	71	62
509.752	509.835	83	73
509.755	509.835	56	58
509.755	509.836	68	69
509.926	510.024	70	59
509.927	510.028	54	58
509.927	510.024	82	70
509.929	510.028	66	69
510.128	510.216	68	68
510.129	510.217	80	80
510.133	510.217	53	62
510.133	510.22	65	74
510.307	510.395	66	62
510.307	510.395	78	73
510.311	510.399	51	58
510.311	510.399	63	69
510.482	510.679	65	62
510.485	510.682	77	73
510.486	510.682	46	58
510.486	510.686	58	69
510.871	511.101	63	75
510.872	511.101	70	75
510.874	511.101	75	89
510.875	511.101	51	64
510.878	511.101	54	64
510.879	511.101	58	76
511.616	511.794	54	65
511.616	511.795	58	65
511.617	511.795	61	65
511.617	511.798	66	78
511.62	511.984	30	66
511.62	511.981	34	66
511.62	511.981	37	66
511.623	511.984	42	78
511.794	511.984	54	55
511.795	511.984	58	55
511.795	511.984	61	55
511.798	511.984	66	65
511.978	512.341	29	61
511.981	512.341	34	61
511.981	512.341	37	61
511.982	512.341	41	72
512.148	512.341	58	54
512.152	512.341	61	54
512.153	512.341	53	54
512.153	512.341	65	64
512.338	512.707	27	66
512.338	512.704	30	66
512.341	512.704	34	66
512.341	512.707	39	78
512.516	512.707	51	57
512.517	512.707	54	57
512.517	512.707	58	57
512.519	512.707	63	68
512.704	513.085	25	61
512.704	513.079	30	61
512.704	513.081	34	61
512.705	513.082	37	61
512.886	513.085	54	54
512.886	513.085	58	54
512.889	513.085	49	54
512.889	513.085	61	64
513.079	513.453	30	66
513.081	513.453	34	66
513.082	513.443	37	66
513.082	513.453	42	78
513.25	513.453	54	54
513.25	513.453	58	54
513.253	513.453	61	54
513.257	513.453	66	64
513.442	513.825	32	66
513.443	513.824	37	66
513.443	513.825	44	78
513.621	513.825	56	58
513.625	513.825	61	58
513.625	513.825	68	69
513.821	514.181	34	68
513.824	514.182	37	68
513.824	514.182	42	68
513.825	514.184	46	81
513.996	514.184	58	60
513.996	514.185	61	60
513.996	514.185	66	60
513.998	514.188	70	72
514.556	514.737	54	65
514.559	514.738	58	65
514.559	514.738	61	65
514.563	514.92	30	66
514.563	514.738	66	78
514.564	514.916	34	66
514.566	514.916	37	66
514.566	514.92	42	78
514.737	514.92	54	55
514.738	514.92	58	55
514.738	514.92	61	55
514.738	514.92	66	65
514.913	515.278	29	61
514.916	515.277	34	61
514.916	515.278	37	61
514.917	515.278	41	72
515.087	515.278	58	54
515.088	515.278	53	54
515.088	515.278	61	54
515.088	515.278	65	64
515.273	515.644	27	66
515.277	515.642	30	66
515.277	515.643	34	66
515.277	515.644	39	78
515.451	515.644	51	57
515.451	515.644	54	57
515.452	515.644	58	57
515.455	515.644	63	68
515.641	516.023	25	61
515.642	516.018	30	61
515.643	516.019	34	61
515.644	516.019	37	61
515.815	516.023	54	54
515.819	516.023	58	54
515.819	516.023	61	64
515.82	516.023	49	54
516.018	516.393	30	66
516.019	516.393	34	66
516.019	516.375	37	66
516.022	516.393	42	78
516.19	516.393	54	54
516.19	516.393	58	54
516.191	516.393	61	54
516.194	516.393	66	64
516.372	516.757	32	66
516.375	516.754	37	66
516.376	516.757	44	78
516.561	516.757	56	58
516.561	516.757	61	58
516.561	516.757	68	69
516.753	517.114	34	68
516.754	517.114	37	68
516.754	517.115	42	68
516.754	517.115	46	81
516.931	517.117	58	60
516.932	517.117	61	60
516.935	517.118	66	60
516.936	517.118	70	72
517.489	518.062	61	77
517.489	518.063	66	77
517.49	518.063	70	77
517.492	518.066	42	62
517.492	518.066	73	91
517.496	518.067	46	62
517.496	518.067	49	62
517.497	518.069	54	73
518.062	518.259	61	72
518.063	518.253	66	72
518.063	518.259	70	72
518.066	518.259	42	57
518.066	518.259	73	85
518.067	518.259	46	57
518.067	518.259	49	57
518.069	518.258	54	68
518.252	518.633	63	78
518.253	518.627	66	78
518.254	518.633	71	78
518.255	518.633	47	62
518.255	518.633	75	92
518.256	518.633	51	62
518.258	518.63	54	62
518.259	518.633	59	73
518.623	519.011	61	73
518.627	519.011	66	73
518.627	519.008	70	73
518.627	519.011	73	86
518.628	519.011	42	59
518.629	519.011	46	59
518.63	519.011	49	59
518.63	519.011	54	70
519.007	519.554	58	79
519.008	519.746	34	62
519.008	519.746	70	93
519.011	519.557	46	74
519.554	519.74	58	73
519.556	519.746	68	87
519.557	519.746	38	56
519.557	519.744	46	67
519.74	519.823	58	77
519.743	519.823	39	61
519.743	519.823	66	91
519.744	519.827	46	72
519.907	519.998	58	72
519.911	519.999	65	85
519.914	519.999	41	58
519.915	520.001	46	69
520.089	520.274	58	71
520.093	520.278	42	58
520.093	520.275	63	84
520.094	520.279	46	69
520.46	520.82	66	66
520.46	520.601	70	78
520.464	520.82	54	66
520.464	520.82	58	78
520.53	520.815	71	73
520.601	520.74	70	73
520.67	520.82	69	73
520.74	520.82	70	73
520.814	520.901	68	62
520.815	520.904	71	73
520.816	520.905	56	58
520.817	520.908	59	69
520.995	521.097	66	59
520.996	521.101	70	70
520.999	521.104	54	58
520.999	521.104	58	69
521.198	521.289	65	68
521.199	521.293	53	62
521.199	521.29	68	80
521.202	521.294	56	74
521.384	521.474	63	62
521.384	521.479	66	73
521.388	521.479	51	58
521.388	521.481	54	69
521.569	521.766	58	62
521.57	521.769	65	73
521.573	521.769	46	58
521.574	521.773	53	69
521.958	522.189	54	75
521.959	522.189	58	75
521.961	522.189	39	64
521.961	522.189	63	89
521.962	522.189	46	64
521.965	522.189	51	76
522.707	523.268	73	77
522.711	523.268	78	77
522.711	523.27	82	77
522.712	523.271	85	91
522.714	523.271	42	62
522.714	523.271	46	62
522.714	523.274	49	62
522.715	523.275	54	73
523.268	523.464	73	72
523.268	523.455	78	72
523.27	523.464	82	72
523.271	523.464	42	57
523.271	523.464	46	57
523.271	523.464	85	85
523.274	523.464	49	57
523.275	523.46	54	68
523.453	523.821	75	78
523.455	523.814	78	78
523.456	523.821	47	62
523.456	523.821	83	78
523.456	523.821	87	92
523.459	523.821	51	62
523.46	523.821	54	62
523.46	523.821	59	73
523.814	524.194	73	73
523.814	524.194	78	73
523.815	524.192	82	73
523.816	524.194	85	86
523.817	524.194	42	59
523.817	524.194	46	59
523.82	524.194	49	59
523.821	524.194	54	70
524.191	524.923	70	79
524.192	524.923	34	62
524.192	524.923	82	93
524.194	524.74	46	74
524.737	524.923	68	73
524.738	524.923	80	87
524.74	524.92	46	56
524.741	524.923	38	56
524.741	524.923	50	67
524.919	524.999	66	77
524.92	525.003	46	61
524.92	525.0	78	91
524.923	525.003	39	61
524.923	525.006	51	72
525.087	525.174	65	72
525.088	525.174	77	85
525.09	525.175	46	58
525.091	525.178	41	58
525.091	525.178	53	69
525.262	525.447	63	71
525.262	525.448	75	84
525.263	525.451	46	58
525.266	525.452	42	58
525.266	525.452	54	69
525.63	526.008	78	66
525.63	525.78	82	78
525.631	526.008	54	66
525.631	526.008	58	66
525.633	526.008	66	78
525.703	526.005	83	73
525.78	525.924	82	73
525.853	526.008	81	73
525.924	526.008	82	73
526.004	526.091	71	62
526.005	526.092	83	73
526.008	526.095	56	58
526.008	526.096	68	69
526.179	526.284	70	59
526.179	526.284	82	70
526.18	526.288	54	58
526.182	526.288	66	69
526.382	526.469	68	68
526.383	526.473	53	62
526.383	526.47	80	80
526.385	526.473	65	74
526.561	526.652	66	62
526.564	526.652	78	73
526.565	526.653	51	58
526.568	526.653	63	69
526.742	526.921	65	62
526.743	526.925	46	58
526.743	526.925	77	73
526.746	526.925	58	69
527.106	527.481	66	66
527.11	527.257	70	78
527.111	527.481	54	66
527.111	527.481	58	78
527.183	527.474	71	73
527.257	527.4	70	73
527.331	527.481	69	73
527.4	527.481	70	73
527.471	527.562	68	62
527.474	527.562	71	73
527.475	527.563	56	58
527.477	527.565	59	69
527.652	527.75	66	59
527.656	527.755	54	58
527.656	527.754	70	70
527.657	527.757	58	69
527.856	527.956	65	68
527.856	527.957	68	80
527.859	527.957	53	62
527.859	527.958	56	74
528.055	528.156	63	62
528.056	528.161	51	58
528.056	528.164	54	69
528.056	528.16	66	73
528.258	528.475	46	58
528.258	528.471	58	62
528.258	528.471	65	73
528.262	528.475	53	69
528.692	529.147	54	66
528.693	529.147	42	66
528.693	528.867	58	78
528.695	529.147	46	78
528.779	529.134	59	73
528.867	529.043	58	73
528.955	529.147	57	73
529.043	529.147	58	73
529.133	529.238	56	62
529.134	529.238	44	58
529.134	529.238	59	73
529.137	529.242	47	69
529.346	529.469	54	59
529.351	529.473	42	58
529.351	529.473	58	70
529.353	529.474	46	69
529.584	529.707	53	68
529.588	529.71	41	62
529.588	529.71	56	80
529.591	529.711	44	74
529.83	529.962	51	62
529.83	529.967	54	73
529.833	529.967	39	58
529.833	529.967	42	69
530.099	530.375	46	62
530.099	530.376	53	73
530.1	530.379	34	58
530.1	530.38	41	69
530.592	532.214	27	58
530.613	532.214	31	58
530.634	532.214	34	58
530.659	530.925	51	86
530.66	530.922	39	69
530.922	532.214	39	58
530.922	532.214	46	58
530.925	532.214	51	69
531.175	531.552	55	56
531.177	532.214	58	56
531.177	532.214	63	56
531.177	531.429	67	66
531.427	532.214	75	56
531.427	531.685	79	66
531.429	532.214	67	56
531.429	532.214	70	56
531.551	532.214	43	79
531.552	532.214	55	79
531.682	531.951	91	71
531.684	532.214	82	60
531.684	532.214	87	71
531.685	532.214	44	85
531.685	532.214	79	60
531.688	532.214	56	85
531.948	532.214	103	78
531.949	532.214	99	78
531.95	532.214	94	66
531.951	532.214	91	66
532.213	532.661	45	84
532.214	532.664	57	84
532.664	534.281	27	58
532.685	534.281	31	58
532.71	534.281	34	58
532.728	532.99	46	82
532.728	533.243	58	86
532.731	532.987	39	69
532.987	534.281	39	58
532.99	534.281	46	58
532.99	533.757	51	69
533.243	534.281	55	56
533.243	534.281	58	56
533.245	533.757	63	56
533.246	533.501	67	66
533.498	533.757	79	66
533.499	534.281	75	56
533.5	534.281	70	56
533.501	534.281	67	56
533.753	534.019	91	72
533.754	534.281	82	61
533.754	534.281	87	72
533.757	534.281	51	68
533.757	534.281	63	85
533.757	534.281	79	61
534.016	534.281	103	77
534.017	534.281	94	65
534.017	534.281	99	77
534.019	534.281	91	65
534.667	534.799	43	79
534.668	534.8	55	79
534.737	536.364	27	58
534.765	536.364	34	58
534.803	535.319	44	75
534.804	536.364	38	69
534.804	535.321	56	86
535.059	536.364	41	58
535.06	536.364	46	58
535.062	536.364	50	69
535.315	536.364	53	56
535.318	536.364	58	56
535.318	536.364	62	56
535.319	535.836	44	72
535.319	535.58	65	66
535.321	535.839	56	82
535.576	535.836	77	66
535.577	536.364	70	56
535.577	536.364	74	56
535.58	536.364	65	56
535.703	536.364	43	79
535.703	536.364	55	79
535.833	536.102	89	72
535.835	536.364	86	61
535.836	536.364	44	85
535.836	536.364	77	61
535.836	536.364	82	61
535.839	536.364	56	85
536.099	536.364	98	81
536.099	536.364	101	81
536.102	536.364	89	68
536.102	536.364	94	68
536.361	536.819	45	84
536.362	536.82	57	84
536.822	538.439	27	58
536.854	538.439	34	58
536.889	537.145	46	86
536.889	537.401	58	86
536.892	537.144	39	69
537.144	538.439	39	58
537.145	538.439	46	58
537.145	538.439	51	69
537.4	538.439	55	56
537.401	538.439	58	56
537.401	538.439	63	56
537.402	537.659	67	66
537.656	538.439	75	56
537.656	537.912	79	66
537.657	538.439	70	56
537.659	538.439	67	56
537.909	538.173	91	73
537.911	538.439	87	73
537.912	538.439	79	62
537.912	538.439	82	62
538.17	538.439	103	81
538.171	538.439	99	81
538.173	538.439	91	68
538.173	538.439	94	68
538.695	538.782	46	71
538.696	538.783	34	62
538.783	538.867	48	73
538.786	538.87	36	65
538.87	538.919	50	75
538.874	538.919	38	68
538.923	540.492	27	58
538.933	540.492	31	58
538.943	540.492	34	58
538.954	539.214	51	86
538.958	539.213	39	69
539.213	540.492	39	58
539.213	540.492	46	58
539.214	540.492	51	69
539.466	540.492	63	56
539.468	539.833	55	56
539.468	540.492	58	56
539.469	539.71	67	66
539.71	540.492	67	56
539.711	540.492	70	56
539.711	539.962	79	66
539.713	540.492	75	56
539.833	540.492	43	79
539.833	540.492	55	79
539.961	540.492	82	60
539.962	540.492	79	60
539.962	540.221	91	71
539.965	540.492	87	71
539.966	540.492	44	85
539.966	540.492	56	85
540.221	540.492	91	66
540.222	540.492	99	78
540.222	540.492	103	78
540.225	540.492	94	66
540.491	540.942	45	84
540.492	540.942	57	84
540.943	542.556	27	58
540.963	542.556	31	58
540.98	542.556	34	58
541.005	541.523	58	86
541.006	541.268	46	86
541.008	541.265	39	69
541.265	542.556	39	58
541.268	542.556	46	58
541.268	542.03	51	69
541.52	541.776	67	66
541.521	542.556	55	56
541.523	542.556	58	56
541.523	542.031	63	56
541.776	542.556	67	56
541.776	542.028	79	66
541.779	542.556	75	56
541.78	542.556	70	56
542.027	542.296	91	72
542.028	542.556	79	61
542.028	542.556	82	61
542.028	542.556	87	72
542.03	542.556	51	71
542.031	542.556	63	85
542.294	542.556	94	65
542.294	542.556	103	77
542.295	542.556	99	77
542.296	542.556	91	65
542.944	543.077	55	79
542.945	543.077	43	79
543.007	544.641	27	58
543.042	544.641	34	58
543.081	543.598	44	75
543.081	543.599	56	86
543.082	544.641	38	69
543.337	544.639	41	58
543.337	544.641	46	58
543.339	544.641	50	69
543.592	544.641	53	56
543.596	544.641	58	56
543.596	544.641	62	56
543.596	543.851	65	66
543.598	544.11	44	72
543.599	544.113	56	82
543.847	544.11	77	66
543.851	544.641	65	56
543.851	544.641	70	56
543.851	544.641	74	56
543.974	544.641	43	79
543.976	544.641	55	79
544.106	544.373	89	72
544.107	544.641	82	61
544.107	544.641	86	61
544.11	544.641	44	85
544.11	544.641	77	61
544.113	544.641	56	85
544.37	544.641	101	81
544.372	544.641	98	81
544.373	544.641	89	68
544.373	544.641	94	68
544.639	545.097	41	84
544.641	545.1	53	84
545.1	546.728	27	58
545.121	546.728	31	58
545.142	546.728	34	58
545.163	545.422	39	69
545.163	545.426	51	86
545.422	546.728	39	58
545.423	546.71	46	58
545.426	546.728	51	69
545.675	546.728	55	56
545.678	546.71	58	56
545.678	546.728	63	66
545.933	546.728	75	66
545.934	546.728	67	56
545.934	546.728	70	56
546.188	546.728	87	73
546.189	546.728	79	62
546.189	546.728	82	73
546.448	546.728	99	81
546.449	546.728	94	81
546.451	546.728	91	68
546.71	547.182	46	80
546.71	547.182	58	80
547.165	548.793	27	58
547.186	548.793	31	58
547.217	548.793	34	58
547.238	547.498	51	75
547.238	547.753	63	82
547.242	547.495	39	69
547.495	548.793	39	58
547.496	548.793	46	58
547.498	548.793	51	69
547.617	548.132	55	62
547.75	548.793	58	53
547.753	548.793	63	53
547.753	547.875	67	62
547.875	548.134	67	57
548.002	548.131	79	62
548.003	548.793	75	53
548.005	548.793	70	53
548.131	548.391	79	56
548.132	548.793	55	76
548.134	548.793	67	76
548.261	548.519	91	67
548.262	548.793	56	81
548.262	548.52	82	57
548.262	548.52	87	67
548.264	548.793	68	81
548.391	548.793	79	60
548.519	548.654	91	70
548.52	548.793	82	58
548.52	548.793	87	58
548.654	548.793	91	62
548.789	549.314	103	81
548.79	549.314	94	62
548.79	549.314	99	78
548.791	549.314	57	80
548.792	549.314	69	80
549.245	550.886	27	58
549.265	550.886	31	58
549.29	550.886	34	58
549.311	549.829	58	73
549.311	550.079	70	82
549.314	549.573	39	69
549.573	550.886	39	58
549.574	550.886	46	58
549.574	550.886	51	69
549.696	550.886	55	62
549.829	550.886	58	53
549.829	550.333	63	53
549.83	549.955	67	62
549.955	550.886	67	57
550.078	550.333	75	53
550.078	550.203	79	62
550.079	550.886	70	53
550.203	550.464	79	56
550.329	550.595	91	67
550.33	550.599	87	67
550.333	550.886	63	81
550.333	550.886	75	84
550.333	550.599	82	57
550.464	550.886	79	60
550.595	550.726	91	70
550.599	550.886	82	58
550.599	550.886	87	58
550.726	550.886	91	62
550.861	551.396	103	81
550.862	551.396	94	62
550.862	551.396	99	78
551.25	551.396	55	76
551.253	551.396	67	76
551.313	552.94	27	58
551.348	552.94	34	58
551.393	552.415	68	82
551.394	552.94	38	69
551.394	552.412	56	73
551.643	552.94	41	58
551.646	552.94	46	58
551.646	552.94	50	69
551.767	552.94	53	62
551.902	552.94	58	53
551.904	552.94	62	53
551.904	552.027	65	62
552.027	552.94	65	57
552.154	552.94	70	53
552.154	552.94	74	53
552.154	552.282	77	62
552.282	552.538	77	56
552.283	552.94	55	76
552.283	552.94	67	76
552.409	552.668	89	67
552.411	552.671	82	57
552.411	552.671	86	67
552.412	552.94	56	81
552.415	552.94	68	81
552.538	552.94	77	60
552.668	552.798	89	70
552.671	552.94	82	58
552.671	552.94	86	58
552.798	552.94	89	62
552.933	553.469	98	74
552.933	553.469	101	81
552.934	553.469	94	62
552.937	553.469	57	80
552.937	553.469	69	80
553.396	555.079	27	58
553.416	555.079	31	58
553.441	555.079	34	58
553.462	554.229	70	82
553.465	553.721	39	69
553.465	553.98	58	73
553.721	555.079	39	58
553.724	555.079	46	58
553.725	555.079	51	69
553.847	554.484	55	62
553.98	555.079	58	53
553.98	555.079	63	53
553.983	554.096	67	62
554.096	554.484	67	57
554.228	555.079	75	53
554.228	554.355	79	62
554.229	555.079	70	53
554.355	554.617	79	56
554.48	554.74	91	67
554.481	554.743	82	57
554.481	554.743	87	67
554.484	555.079	55	81
554.484	555.079	67	84
554.617	555.079	79	60
554.74	554.877	91	70
554.743	555.079	82	58
554.743	555.079	87	58
554.877	555.079	91	62
555.009	555.541	103	81
555.012	555.541	94	62
555.012	555.541	99	78
555.401	555.541	46	76
555.402	555.541	58	76
555.464	557.088	27	58
555.488	557.088	31	58
555.513	557.088	34	58
555.538	556.053	63	82
555.539	555.797	51	75
555.541	555.796	39	69
555.796	557.088	39	58
555.797	557.088	46	58
555.797	557.088	51	69
555.918	556.433	55	62
556.052	557.088	58	53
556.053	557.088	63	53
556.053	556.177	67	62
556.177	556.434	67	57
556.303	556.433	79	62
556.304	557.088	70	53
556.304	557.088	75	53
556.433	557.088	55	76
556.433	556.689	79	56
556.434	557.088	67	72
556.56	556.822	87	67
556.56	556.822	91	67
556.563	557.088	56	81
556.563	557.088	68	76
556.563	556.823	82	57
556.689	557.088	79	60
556.822	557.088	87	58
556.822	556.948	91	70
556.823	557.088	82	58
556.948	557.088	91	62
557.084	557.612	99	78
557.084	557.612	103	81
557.085	557.612	57	80
557.085	557.612	94	62
557.088	557.612	69	80
557.54	559.164	27	58
557.56	559.164	31	58
557.588	559.164	34	58
557.605	558.379	70	82
557.609	557.868	39	69
557.609	558.124	58	73
557.868	559.164	39	58
557.869	559.164	46	58
557.869	559.164	51	69
557.991	559.164	55	62
558.124	559.164	58	53
558.124	558.635	63	53
558.125	558.247	67	62
558.247	559.164	67	57
558.376	558.506	79	62
558.379	559.164	70	53
558.379	558.636	75	53
558.506	558.761	79	56
558.631	558.891	91	67
558.632	558.893	87	67
558.635	559.164	63	81
558.635	558.894	82	57
558.636	559.164	75	84
558.761	559.164	79	60
558.891	559.027	91	70
558.893	559.164	87	58
558.894	559.164	82	58
559.027	559.164	91	62
559.156	559.692	103	81
559.157	559.692	94	62
559.157	559.692	99	78
559.544	559.692	55	76
559.545	559.692	67	76
559.615	561.24	27	58
559.65	561.24	34	58
559.688	560.71	68	82
559.689	561.24	38	69
559.689	560.708	56	73
559.945	561.24	41	58
559.947	561.24	46	58
559.948	561.24	50	69
560.07	561.239	53	62
560.196	561.24	58	53
560.197	561.24	62	53
560.2	560.329	65	62
560.329	561.239	65	57
560.448	560.578	77	62
560.449	561.24	74	53
560.452	561.24	70	53
560.578	561.24	55	76
560.578	560.839	77	56
560.581	561.24	67	76
560.707	560.967	86	67
560.707	560.966	89	67
560.708	561.24	56	81
560.708	560.967	82	57
560.71	561.24	68	81
560.839	561.24	77	60
560.966	561.1	89	70
560.967	561.24	82	58
560.967	561.24	86	58
561.1	561.24	89	62
561.233	561.762	101	81
561.235	561.762	98	74
561.236	561.762	94	62
561.239	561.762	53	80
561.239	561.762	65	80
561.691	563.311	27	58
561.712	563.311	31	58
561.736	563.311	34	58
561.761	562.02	39	69
561.761	562.021	51	73
561.761	562.276	63	82
562.02	563.311	39	58
562.02	563.311	46	58
562.021	563.311	51	69
562.141	563.311	55	62
562.276	563.311	58	53
562.276	563.308	63	62
562.399	563.309	67	57
562.524	563.311	75	62
562.527	563.311	70	53
562.656	562.909	79	56
562.779	563.042	87	70
562.782	563.043	82	58
562.909	563.311	79	60
563.042	563.311	87	76
563.043	563.311	82	64
563.172	563.311	91	62
563.304	563.808	99	86
563.308	563.808	63	68
563.308	563.808	94	69
563.309	563.808	67	68
563.309	563.808	73	80
563.805	564.277	68	65
563.805	564.277	72	77
563.916	564.277	75	60
564.036	564.277	80	52
564.036	564.152	87	62
564.152	564.277	87	64
564.27	564.494	92	55
564.27	564.491	99	65
564.271	564.722	67	63
564.271	564.731	70	75
564.387	564.613	87	60
564.491	564.731	99	64
564.494	564.731	92	54
564.497	564.731	65	63
564.497	564.731	68	75
564.613	564.731	87	60
564.721	565.187	63	67
564.722	565.194	67	79
564.838	565.194	70	60
564.953	565.183	94	63
564.954	565.184	87	53
564.956	565.194	58	63
564.956	565.194	65	75
565.072	565.194	82	60
565.183	565.429	94	64
565.184	565.429	87	54
565.187	565.683	55	63
565.187	565.432	63	75
565.31	565.554	82	60
565.429	565.683	87	54
565.429	565.683	94	64
565.432	565.683	63	64
565.433	565.683	67	76
565.554	565.683	82	60
565.674	566.14	65	68
565.674	566.142	68	80
565.785	566.146	70	60
565.905	566.139	94	63
565.906	566.14	86	53
566.024	566.146	64	63
566.024	566.146	82	60
566.026	566.146	67	75
566.139	566.356	94	64
566.14	566.612	65	63
566.14	566.356	86	54
566.142	566.612	68	75
566.251	566.475	82	60
566.356	566.612	86	54
566.356	566.612	94	64
566.359	566.612	66	66
566.36	566.612	69	78
566.475	566.612	82	60
566.584	567.063	67	68
566.585	566.705	70	80
566.705	567.543	70	60
566.821	567.06	87	53
566.821	567.059	94	63
566.938	567.176	82	60
567.059	567.291	94	64
567.06	567.543	63	68
567.06	567.294	87	54
567.063	567.543	67	68
567.064	567.543	73	80
567.176	567.416	82	60
567.291	567.543	94	64
567.294	567.543	87	54
567.416	567.543	82	60
567.533	568.022	68	65
567.536	568.022	72	77
567.65	568.022	75	60
567.773	568.022	80	52
567.773	567.89	87	62
567.89	568.022	87	64
568.015	568.239	99	65
568.016	568.466	67	63
568.016	568.239	92	55
568.018	568.473	70	75
568.124	568.358	87	60
568.239	568.473	92	54
568.239	568.473	99	64
568.24	568.473	65	63
568.243	568.473	68	75
568.358	568.473	87	60
568.463	568.943	63	67
568.466	568.949	67	79
568.582	568.949	70	60
568.702	568.939	94	63
568.704	568.949	58	63
568.704	568.942	87	53
568.705	568.949	65	75
568.82	568.949	82	60
568.939	569.177	94	64
568.942	569.181	87	54
568.943	569.439	55	63
568.943	569.181	63	75
569.059	569.304	82	60
569.177	569.439	94	64
569.181	569.439	63	64
569.181	569.439	67	76
569.181	569.439	87	54
569.304	569.439	82	60
569.422	569.891	65	68
569.423	569.891	68	80
569.538	569.898	70	60
569.654	569.888	94	63
569.656	569.891	86	53
569.773	569.898	82	60
569.775	569.898	64	63
569.776	569.898	67	75
569.888	570.112	94	64
569.891	570.115	65	63
569.891	570.36	68	75
569.891	570.113	86	54
570.006	570.233	82	60
570.112	570.342	94	64
570.113	570.36	86	54
570.115	570.36	58	66
570.115	570.36	65	78
570.233	570.36	82	60
570.339	570.629	87	53
570.342	570.629	55	68
570.342	570.629	94	63
570.343	570.629	63	80
570.815	571.291	39	65
570.815	571.291	51	77
570.815	571.291	82	75
570.931	571.158	97	60
571.043	571.291	87	67
571.046	571.291	43	61
571.046	571.291	55	72
571.158	571.291	97	60
571.274	571.75	80	72
571.277	571.75	44	68
571.277	571.75	56	80
571.39	571.617	96	57
571.508	571.75	87	57
571.511	571.75	48	62
571.512	571.75	60	73
571.617	571.75	96	57
571.736	572.2	51	62
571.736	572.2	79	69
571.737	572.2	63	73
571.841	572.2	94	56
571.956	572.2	77	67
571.957	572.2	56	62
571.957	572.2	68	73
572.061	572.2	92	56
572.18	572.635	75	67
572.183	572.649	58	62
572.184	572.649	70	73
572.289	572.649	91	56
572.408	572.649	74	66
572.523	572.649	90	56
572.635	573.115	39	65
572.635	573.115	75	67
572.636	573.115	51	77
572.747	572.981	91	56
572.867	573.115	76	68
572.869	573.115	43	61
572.87	573.115	55	72
572.981	573.115	91	57
573.101	573.583	46	68
573.101	573.563	77	67
573.102	573.583	58	80
573.213	573.583	92	60
573.331	573.583	50	58
573.331	573.583	76	66
573.332	573.583	62	69
573.444	573.583	91	60
573.563	574.025	77	67
573.566	574.025	53	62
573.566	574.025	65	73
573.671	574.025	92	57
573.784	574.025	61	65
573.784	574.025	78	65
573.787	574.025	57	65
573.787	574.025	69	77
573.892	574.025	93	57
574.011	574.49	79	70
574.014	574.49	58	69
574.014	574.49	67	69
574.014	574.49	70	82
574.119	574.35	94	58
574.235	574.49	87	58
574.35	574.49	94	58
574.469	574.952	39	65
574.469	574.952	82	75
574.473	574.952	51	77
574.582	574.82	97	60
574.707	574.952	43	61
574.707	574.952	87	67
574.708	574.952	55	72
574.82	574.952	97	60
574.938	575.41	80	72
574.941	575.41	44	68
574.941	575.41	56	80
575.054	575.277	96	57
575.172	575.41	87	57
575.173	575.41	48	62
575.173	575.41	60	73
575.277	575.41	96	57
575.398	575.858	79	69
575.399	575.858	51	62
575.4	575.858	63	73
575.506	575.858	94	56
575.621	575.858	56	62
575.621	575.858	77	67
575.622	575.858	68	73
575.726	575.858	92	56
575.838	576.292	75	67
575.841	576.303	58	62
575.842	576.303	70	73
575.953	576.303	91	56
576.062	576.303	74	66
576.18	576.303	90	56
576.292	576.772	39	65
576.292	576.772	75	67
576.293	576.772	51	77
576.405	576.639	91	56
576.524	576.772	43	61
576.524	576.772	76	68
576.527	576.772	55	72
576.639	576.772	91	57
576.755	577.22	77	67
576.758	577.241	46	68
576.759	577.241	58	80
576.871	577.241	92	60
576.989	577.241	50	58
576.989	577.241	76	66
576.99	577.241	62	69
577.102	577.241	91	60
577.22	577.675	77	67
577.221	577.675	53	62
577.223	577.675	65	73
577.329	577.675	92	57
577.441	577.675	61	65
577.441	577.675	78	65
577.444	577.675	57	65
577.445	577.675	69	77
577.549	577.675	93	57
577.662	578.14	79	70
577.665	578.14	58	69
577.665	578.14	67	69
577.666	578.14	70	82
577.776	578.001	94	58
577.885	578.14	87	58
578.001	578.14	94	58
578.12	578.599	82	75
578.123	578.599	39	65
578.124	578.599	51	77
578.235	578.467	97	60
578.354	578.599	43	61
578.354	578.599	55	72
578.354	578.599	87	67
578.467	578.599	97	60
578.585	579.061	44	68
578.585	579.061	80	72
578.586	579.061	56	80
578.698	578.928	96	57
578.816	579.061	87	57
578.817	579.061	48	62
578.819	579.061	60	73
578.928	579.061	96	57
579.05	579.509	79	69
579.051	579.509	51	62
579.051	579.509	63	73
579.159	579.509	94	56
579.269	579.509	77	67
579.271	579.509	56	62
579.271	579.509	68	73
579.377	579.509	92	56
579.491	579.963	58	62
579.491	579.954	75	67
579.492	579.963	70	73
579.604	579.963	91	56
579.72	579.963	74	66
579.835	579.963	90	56
579.954	580.174	75	67
580.063	580.283	91	56
580.171	580.405	63	54
580.174	580.405	75	64
580.282	580.405	79	48
580.283	580.405	91	57
580.398	580.839	62	51
580.399	580.839	74	72
580.5	580.839	80	51
580.5	580.839	92	61
580.608	580.839	65	44
580.611	580.839	77	62
580.714	580.839	79	49
580.716	580.839	91	58
580.832	581.263	61	59
580.832	581.263	73	70
580.934	581.263	80	50
580.935	581.263	92	59
581.039	581.263	65	55
581.042	581.263	77	65
581.148	581.263	79	46
581.151	581.263	91	55
581.259	581.7	60	51
581.259	581.7	72	72
581.365	581.7	80	50
581.366	581.7	92	59
581.469	581.7	65	44
581.47	581.7	77	62
581.578	581.7	79	47
581.58	581.7	91	56
581.689	582.124	59	59
581.69	582.124	71	70
581.792	582.124	80	49
581.795	582.124	92	58
581.899	582.124	62	55
581.9	582.124	74	65
582.002	582.124	82	47
582.004	582.124	79	47
582.004	582.124	91	56
582.114	582.533	56	61
582.117	582.533	68	72
582.211	582.533	80	50
582.211	582.533	83	50
582.214	582.533	92	59
582.317	582.533	59	52
582.319	582.533	71	62
582.421	582.533	82	45
582.422	582.533	79	45
582.422	582.533	91	54
582.526	582.94	54	71
582.526	582.94	66	71
582.624	582.94	83	60
582.625	582.94	80	51
582.627	582.94	92	60
582.73	582.94	59	66
582.73	582.94	71	66
582.832	582.94	82	48
582.834	582.94	79	48
582.834	582.94	91	57
582.939	583.352	52	63
582.94	583.352	64	74
583.037	583.352	83	63
583.038	583.352	80	53
583.038	583.352	92	63
583.142	583.352	56	54
583.142	583.352	68	65
583.237	583.352	82	51
583.241	583.352	79	51
583.241	583.352	91	60
583.345	583.759	51	74
583.346	583.759	63	74
583.45	583.759	80	54
583.45	583.759	83	54
583.451	583.759	92	63
583.548	583.759	56	69
583.548	583.759	68	69
583.65	583.759	88	52
583.653	583.759	79	52
583.653	583.759	91	62
583.758	584.17	52	65
583.758	584.17	64	77
583.853	584.17	89	65
583.856	584.17	80	55
583.856	584.17	92	65
583.954	584.17	56	56
583.955	584.17	68	67
584.059	584.17	88	53
584.06	584.17	79	53
584.06	584.17	91	63
584.164	584.567	48	77
584.164	584.567	60	77
584.259	584.567	89	56
584.263	584.567	80	56
584.265	584.567	92	66
584.361	584.567	56	72
584.364	584.567	68	72
584.465	584.567	79	54
584.465	584.567	88	54
584.465	584.567	91	64
584.564	584.972	47	68
584.566	584.972	59	80
584.662	584.972	80	57
584.662	584.972	89	68
584.664	584.972	92	68
584.763	584.972	50	58
584.764	584.972	62	70
584.861	584.972	79	55
584.861	584.972	88	55
584.861	584.972	91	65
584.965	585.361	44	79
584.966	585.361	56	79
585.057	585.361	89	58
585.058	585.361	80	58
585.06	585.361	92	68
585.157	585.361	47	74
585.158	585.361	59	74
585.259	585.361	88	56
585.26	585.361	79	56
585.26	585.361	91	66
585.359	585.756	41	70
585.361	585.756	53	83
585.45	585.756	89	70
585.452	585.756	80	59
585.452	585.756	92	70
585.551	585.756	44	60
585.551	585.756	56	72
585.649	585.756	88	57
585.65	585.756	79	57
585.651	585.756	91	67
585.75	586.139	38	83
585.75	586.139	50	83
585.847	586.139	89	61
585.848	586.139	80	61
585.848	586.139	92	72
585.939	586.139	41	79
585.942	586.139	53	79
586.037	586.139	88	60
586.04	586.139	79	60
586.04	586.139	91	71
586.138	586.533	37	76
586.138	586.533	49	90
586.233	586.533	89	76
586.236	586.533	80	64
586.237	586.533	92	76
586.334	586.533	41	65
586.335	586.533	53	79
586.425	586.533	88	62
586.429	586.533	79	62
586.429	586.533	91	74
586.526	586.99	35	90
586.527	586.99	47	90
586.635	586.99	89	66
586.636	586.985	80	66
586.639	586.986	92	78
586.74	586.99	41	85
586.74	586.99	53	85
586.855	586.99	87	65
586.856	586.99	79	65
586.859	586.99	91	77
586.985	587.846	80	77
586.985	587.846	86	77
586.986	587.349	92	91
586.989	587.843	34	72
586.989	587.411	46	85
587.192	587.846	65	72
587.195	587.619	53	61
587.195	587.616	62	61
587.3	587.842	94	78
587.349	587.846	92	78
587.409	587.846	79	74
587.409	587.846	91	88
587.411	587.843	46	66
587.412	587.616	58	78
587.615	587.846	77	69
587.615	587.846	89	82
587.616	587.846	58	61
587.616	587.846	62	73
587.619	587.846	53	61
587.839	588.718	82	75
587.842	588.718	94	90
587.843	588.714	34	69
587.843	588.278	46	82
588.06	588.718	74	68
588.06	588.712	86	81
588.063	588.494	63	61
588.063	588.493	67	72
588.066	588.494	55	61
588.277	588.718	75	74
588.277	588.718	87	88
588.278	588.714	46	68
588.28	588.718	58	80
588.493	588.718	67	74
588.494	588.718	55	62
588.494	588.718	63	62
588.711	589.568	80	77
588.712	589.568	86	77
588.714	589.566	34	72
588.714	589.13	46	85
588.714	589.072	92	91
588.917	589.568	65	72
588.918	589.341	62	61
588.921	589.342	53	61
589.022	589.565	94	78
589.072	589.568	92	78
589.128	589.568	79	74
589.128	589.568	91	88
589.13	589.568	46	66
589.131	589.342	58	78
589.337	589.568	77	69
589.341	589.568	62	73
589.341	589.568	89	82
589.342	589.568	53	61
589.342	589.568	58	61
589.565	590.474	82	75
589.565	590.474	94	90
589.566	590.474	34	69
589.568	589.995	46	82
589.778	590.474	74	68
589.779	590.474	86	81
589.781	590.217	67	72
589.782	590.219	55	61
589.782	590.219	63	61
589.991	590.474	75	74
589.992	590.474	87	88
589.995	590.474	46	68
589.998	590.474	58	80
590.217	590.474	67	74
590.219	590.474	55	62
590.219	590.474	63	62
590.472	590.587	36	71
590.472	590.587	48	84
590.702	590.835	53	61
590.703	590.838	57	61
590.705	590.838	63	72
590.706	590.839	35	66
590.706	590.842	47	78
590.706	590.839	65	72
590.968	591.091	53	63
590.968	591.09	58	63
590.971	591.091	62	75
590.972	591.094	65	75
590.975	591.094	34	70
590.975	591.095	46	83
591.475	591.892	56	77
591.475	591.892	68	91
591.671	591.892	86	77
591.672	591.892	82	77
591.675	591.892	74	64
591.676	591.892	77	64
591.886	592.315	55	74
591.889	592.315	67	88
592.084	592.315	98	77
592.085	592.315	89	64
592.085	592.315	94	77
592.088	592.315	86	64
592.089	592.315	53	69
592.089	592.315	65	82
592.308	592.746	58	75
592.313	592.746	70	90
592.512	592.746	87	77
592.512	592.746	91	77
592.515	592.746	79	64
592.515	592.746	82	64
592.519	592.746	50	68
592.519	592.746	62	81
592.728	593.156	51	74
592.729	593.156	63	88
592.932	593.156	99	77
592.932	593.156	103	77
592.934	593.156	94	64
592.935	593.156	91	64
593.152	593.565	44	77
593.153	593.565	56	91
593.341	593.565	74	77
593.344	593.565	70	77
593.345	593.565	62	64
593.348	593.565	65	64
593.559	593.992	43	74
593.562	593.992	55	88
593.761	593.992	86	77
593.765	593.992	77	64
593.765	593.992	82	77
593.766	593.992	41	69
593.766	593.992	74	64
593.768	593.992	53	82
593.988	594.423	46	75
593.989	594.423	58	90
594.192	594.423	75	77
594.192	594.423	79	77
594.195	594.423	67	64
594.195	594.423	70	64
594.196	594.423	38	68
594.196	594.423	50	81
594.401	594.867	39	74
594.402	594.867	51	88
594.608	594.867	91	77
594.611	594.867	87	77
594.612	594.867	79	64
594.612	594.867	82	64
594.865	594.979	36	71
594.866	594.982	48	84
595.102	595.234	53	61
595.102	595.239	57	61
595.105	595.239	63	72
595.105	595.239	65	72
595.106	595.241	35	66
595.109	595.242	47	78
595.371	595.494	53	63
595.372	595.494	62	75
595.372	595.495	65	75
595.374	595.495	34	70
595.374	595.496	46	83
595.375	595.497	58	63
595.868	596.75	85	77
595.869	596.519	77	77
595.869	596.748	82	77
595.872	596.75	37	72
595.872	596.75	49	85
595.876	596.52	89	91
596.092	596.523	61	61
596.092	596.52	65	72
596.093	596.313	58	61
596.31	596.75	76	74
596.312	596.75	88	88
596.313	596.75	46	66
596.313	596.523	58	78
596.519	596.75	77	69
596.52	596.75	65	73
596.52	596.75	89	82
596.523	596.75	58	61
596.523	596.75	61	61
596.747	597.205	79	77
596.747	597.205	91	91
596.748	597.205	39	72
596.748	597.191	82	77
596.75	597.205	51	85
596.968	597.205	67	72
596.969	597.205	63	61
596.97	597.205	58	61
597.191	597.699	82	74
597.192	597.699	77	74
597.192	597.699	89	88
597.193	597.699	37	72
597.194	597.699	49	85
597.409	597.699	58	61
597.412	597.699	61	61
597.412	597.699	65	72
597.667	597.779	36	71
597.668	597.779	48	84
597.901	598.028	53	61
597.902	598.028	57	61
597.902	598.031	63	72
597.905	598.031	65	72
597.906	598.031	35	66
597.906	598.032	47	78
598.161	598.286	53	63
598.165	598.29	62	75
598.165	598.294	65	75
598.168	598.294	34	70
598.168	598.295	46	83
598.168	598.295	58	63
598.672	599.579	79	68
598.672	599.579	82	68
598.675	599.133	37	72
598.675	599.134	49	85
598.675	599.579	91	81
598.833	599.579	77	57
598.834	599.579	89	68
598.902	599.34	65	72
598.903	599.34	58	61
598.903	599.34	61	61
598.976	599.579	76	57
598.98	599.579	88	68
599.131	599.579	75	63
599.131	599.579	87	75
599.133	599.579	37	66
599.134	599.579	49	78
599.271	599.579	74	59
599.274	599.579	86	70
599.34	599.579	58	61
599.34	599.579	61	61
599.34	599.579	65	73
599.417	599.579	73	59
599.418	599.579	85	70
599.574	600.019	72	71
599.575	599.798	84	84
599.578	600.044	36	72
599.578	600.044	48	85
599.798	600.019	84	64
599.799	600.044	64	72
599.799	600.044	96	77
599.802	600.044	58	61
599.803	600.044	55	61
600.019	600.475	72	70
600.019	600.247	84	83
600.023	600.475	41	66
600.023	600.475	53	78
600.247	600.475	84	64
600.248	600.475	57	61
600.248	600.475	63	61
600.248	600.475	96	77
600.254	600.475	65	73
600.474	600.593	36	71
600.475	600.597	48	84
600.716	600.838	53	61
600.716	600.839	57	61
600.719	600.842	35	66
600.719	600.839	63	72
600.719	600.841	65	72
600.72	600.842	47	78
600.968	601.093	53	63
600.968	601.094	62	75
600.969	601.098	34	70
600.969	601.098	65	75
600.971	601.098	46	83
600.971	601.099	58	63
601.471	601.906	65	91
601.472	601.909	53	77
601.472	601.907	61	77
601.475	601.909	58	77
601.692	601.853	73	69
601.692	601.853	82	82
601.693	601.853	70	69
601.91	602.011	52	74
601.913	602.011	64	88
602.119	602.231	94	81
602.12	602.231	85	68
602.122	602.235	82	68
602.123	602.235	53	69
602.126	602.236	65	82
602.346	602.78	63	77
602.351	602.785	55	77
602.351	602.785	58	77
602.351	602.784	67	91
602.567	602.766	75	69
602.567	602.766	82	82
602.571	602.766	70	69
602.787	603.253	61	74
602.788	603.253	53	74
602.788	603.253	58	74
602.791	603.253	65	88
603.005	603.253	85	68
603.005	603.253	94	81
603.006	603.253	82	68
603.25	603.368	36	71
603.253	603.369	48	84
603.495	603.624	53	61
603.498	603.624	57	61
603.499	603.625	63	72
603.499	603.628	65	72
603.502	603.628	35	66
603.503	603.628	47	78
603.757	603.887	53	63
603.758	603.887	62	75
603.76	603.888	65	75
603.761	603.888	34	70
603.764	603.89	46	83
603.765	603.89	58	63
604.279	604.709	55	68
604.282	604.709	67	81
604.439	604.709	53	57
604.44	604.709	65	68
604.513	604.709	70	69
604.513	604.709	73	69
604.514	604.709	77	69
604.517	604.709	82	82
604.584	604.733	52	57
604.587	604.734	64	68
604.734	605.185	51	63
604.738	605.185	63	75
604.881	605.185	50	59
604.881	605.185	62	70
604.947	605.185	82	68
604.948	605.185	89	68
604.951	605.185	85	68
604.951	605.185	94	81
605.025	605.185	49	59
605.027	605.185	61	70
605.182	605.616	55	77
605.183	605.616	60	91
605.185	605.617	48	77
605.185	605.62	52	77
605.398	605.599	79	69
605.402	605.599	76	69
605.402	605.599	84	82
605.403	605.599	72	69
605.62	606.096	48	74
605.621	606.099	41	74
605.623	606.099	45	74
605.623	606.099	53	88
605.836	606.099	96	68
605.836	606.099	101	81
605.837	606.099	93	68
605.84	606.099	89	68
606.095	606.218	36	71
606.096	606.218	48	84
606.34	606.473	53	61
606.344	606.473	57	61
606.344	606.477	63	72
606.344	606.477	65	72
606.347	606.478	35	66
606.348	606.48	47	78
606.606	606.729	53	63
606.61	606.732	62	75
606.61	606.732	65	75
606.613	606.733	34	70
606.614	606.736	46	83
606.614	606.737	58	63
606.966	607.019	68	64
607.02	607.072	70	64
607.073	607.916	68	73
607.288	607.916	74	52
607.352	607.916	77	54
607.422	607.916	82	55
607.486	607.916	86	57
607.488	607.916	67	69
607.562	607.916	89	59
607.631	607.916	94	60
607.703	607.916	65	62
607.703	607.916	98	62
607.915	608.367	70	70
608.122	608.367	62	63
608.122	608.367	79	53
608.199	608.367	82	55
608.269	608.367	87	57
608.34	608.692	63	71
608.34	608.412	91	59
608.413	608.608	94	61
608.482	608.608	99	64
608.553	608.693	103	66
608.693	608.748	64	64
608.752	608.808	66	64
608.808	609.224	63	73
609.018	609.652	70	52
609.088	609.652	73	54
609.158	609.652	78	56
609.221	609.652	82	58
609.224	609.652	63	69
609.291	609.652	85	60
609.364	609.652	90	61
609.434	609.652	94	63
609.438	609.652	61	62
609.651	610.085	66	70
609.857	610.085	71	54
609.858	610.085	58	63
609.928	610.085	75	55
610.005	610.085	78	57
610.082	610.533	59	71
610.082	610.145	83	58
610.145	610.288	87	60
610.215	610.288	90	61
610.278	610.421	95	63
610.421	610.473	60	64
610.474	610.534	62	64
610.534	611.377	60	73
610.747	611.377	66	54
610.817	611.377	68	56
610.887	611.377	74	57
610.951	611.377	78	58
610.953	611.377	59	69
611.02	611.377	80	59
611.09	611.377	86	60
611.163	611.377	90	62
611.164	611.377	57	62
611.373	611.823	62	70
611.583	611.823	67	54
611.584	611.823	54	63
611.66	611.823	71	55
611.733	611.823	74	57
611.804	612.122	55	71
611.804	611.873	79	58
611.874	612.059	83	59
611.94	612.059	86	60
612.007	612.123	91	62
612.241	612.685	44	55
612.242	612.685	56	65
612.351	612.685	59	45
612.353	612.685	71	54
612.455	612.685	50	46
612.458	612.685	62	55
612.561	612.685	77	55
612.563	612.685	65	46
612.664	612.765	45	55
612.667	612.769	57	65
612.769	613.074	60	47
612.769	613.074	72	56
612.875	613.074	51	47
612.875	613.074	63	56
612.972	613.074	66	47
612.972	613.074	78	56
613.069	613.171	46	59
613.073	613.174	58	70
613.175	613.785	75	60
613.178	613.476	63	51
613.273	613.582	67	60
613.274	613.906	55	51
613.375	613.683	70	51
613.375	613.906	82	60
613.476	613.906	63	72
613.477	613.906	51	61
613.582	613.906	67	51
613.582	613.906	79	61
613.683	613.906	58	51
613.683	613.906	70	61
613.784	613.906	87	61
613.785	613.906	75	51
613.897	614.708	53	61
613.897	614.494	65	72
613.994	614.592	82	62
613.995	614.295	70	52
614.091	614.397	74	62
614.092	614.708	62	52
614.198	614.492	77	52
614.198	614.708	89	62
614.295	614.708	70	75
614.296	614.708	58	63
614.393	614.708	86	63
614.397	614.708	74	53
614.492	614.708	77	63
614.494	614.708	65	53
614.59	614.708	94	63
614.592	614.708	82	53
614.708	615.549	56	62
614.708	615.549	68	73
614.921	615.549	74	52
614.985	615.549	77	54
615.055	615.549	82	55
615.12	615.549	86	57
615.121	615.549	55	58
615.121	615.549	67	69
615.194	615.549	89	59
615.264	615.549	94	60
615.331	615.549	98	62
615.335	615.549	53	52
615.335	615.549	65	62
615.548	615.999	58	59
615.549	615.999	70	70
615.757	615.999	79	53
615.758	615.999	50	53
615.758	615.999	62	63
615.832	615.999	82	55
615.901	615.999	87	57
615.979	616.044	91	59
615.98	616.324	51	60
615.98	616.325	63	71
616.049	616.28	94	61
616.116	616.28	99	64
616.186	616.325	103	66
616.44	617.284	52	62
616.441	617.284	64	73
616.653	617.284	70	52
616.721	617.284	73	54
616.791	617.284	78	56
616.857	617.284	82	58
616.858	617.284	51	58
616.858	617.284	63	69
616.924	617.284	85	60
617.001	617.284	90	61
617.064	617.284	94	63
617.066	617.284	49	52
617.067	617.284	61	62
617.283	617.717	54	59
617.284	617.717	66	70
617.49	617.717	46	53
617.49	617.717	71	54
617.491	617.717	58	63
617.56	617.717	75	55
617.638	617.717	78	57
617.708	618.054	47	60
617.708	617.777	83	58
617.709	618.055	59	71
617.778	617.953	87	60
617.847	617.953	90	61
617.914	618.057	95	63
618.166	619.01	48	62
618.166	619.01	60	73
618.379	619.01	66	54
618.45	619.01	68	56
618.519	619.01	74	57
618.586	619.01	47	58
618.586	619.01	78	58
618.59	619.01	59	69
618.653	619.01	80	59
618.726	619.01	86	60
618.796	619.01	45	52
618.796	619.01	90	62
618.797	619.01	57	62
619.005	619.461	50	59
619.01	619.461	62	70
619.22	619.461	67	54
619.223	619.461	42	53
619.223	619.461	54	63
619.292	619.461	71	55
619.359	619.461	74	57
619.436	619.503	79	58
619.44	619.755	43	60
619.44	619.758	55	71
619.506	619.709	83	59
619.57	619.709	86	60
619.64	619.759	91	62
619.871	620.318	44	55
619.871	620.318	56	65
619.983	620.318	59	45
619.986	620.318	71	54
620.088	620.318	50	46
620.088	620.318	62	55
620.193	620.318	77	55
620.196	620.318	65	46
620.297	620.399	45	55
620.298	620.402	57	65
620.403	620.707	60	47
620.403	620.707	72	56
620.508	620.707	51	47
620.508	620.707	63	56
620.605	620.707	78	56
620.606	620.707	66	47
620.704	620.805	46	58
620.704	620.809	58	69
620.809	621.418	75	57
620.81	621.11	63	48
620.907	621.21	67	57
620.909	621.529	55	48
621.011	621.536	82	57
621.012	621.316	70	48
621.11	621.536	51	58
621.11	621.536	63	69
621.208	621.536	79	57
621.21	621.53	67	48
621.316	621.536	70	57
621.317	621.536	58	48
621.418	621.536	75	49
621.418	621.536	87	58
621.529	622.345	55	60
621.53	622.128	67	71
621.628	622.226	82	59
621.631	621.929	70	50
621.726	622.03	75	59
621.729	622.345	63	50
621.824	622.345	91	59
621.825	622.126	79	50
621.929	622.345	70	72
621.931	622.345	58	61
622.027	622.345	87	55
622.03	622.345	75	55
622.126	622.345	79	55
622.128	622.345	67	55
622.223	622.345	94	55
622.226	622.345	82	55
622.342	623.15	65	64
622.345	622.646	77	64
622.44	623.151	92	50
622.443	623.151	80	50
622.538	623.151	62	58
622.539	622.842	74	58
622.643	623.151	89	50
622.646	623.151	77	50
622.744	623.151	58	57
622.744	623.045	70	57
622.841	623.151	86	50
622.842	623.151	74	50
622.937	623.151	56	57
622.94	623.151	68	57
623.042	623.151	82	50
623.045	623.151	70	50
623.15	623.962	53	64
623.15	623.445	65	64
623.248	623.965	80	50
623.249	623.965	68	50
623.346	623.965	50	58
623.346	623.648	62	58
623.444	623.846	77	50
623.445	623.843	65	50
623.549	623.965	46	57
623.549	623.965	58	57
623.647	623.965	74	51
623.648	623.965	62	51
623.746	623.965	44	59
623.749	623.965	56	59
623.843	623.965	65	53
623.846	623.965	77	53
623.962	624.764	41	70
623.962	624.764	53	70
624.058	624.764	80	56
624.06	624.764	68	56
624.164	624.764	38	66
624.165	624.764	50	66
624.264	624.764	82	58
624.265	624.764	70	58
624.362	624.764	34	68
624.364	624.764	46	68
624.459	624.764	86	61
624.463	624.764	74	61
624.558	624.764	33	71
624.56	624.764	45	71
624.663	624.764	77	64
624.665	624.764	89	64
624.764	625.593	32	84
624.764	625.593	44	84
624.862	625.593	80	67
624.862	625.593	92	67
624.959	625.593	31	80
624.959	625.593	43	80
625.065	625.593	94	70
625.066	625.593	82	70
625.163	625.593	29	81
625.163	625.593	41	81
625.26	625.593	96	73
625.261	625.593	84	73
625.362	625.593	34	85
625.362	625.593	46	85
625.463	625.593	86	75
625.466	625.593	98	75
625.576	625.67	27	79
625.576	625.674	39	94
625.674	625.978	99	82
625.677	625.978	87	70
625.771	625.978	34	73
625.774	625.978	46	87
625.87	625.978	101	73
625.871	625.978	98	73
625.873	625.978	89	62
625.873	625.978	94	62
625.971	626.382	39	78
625.972	626.381	51	93
626.073	626.382	103	77
626.076	626.382	91	66
626.076	626.272	94	66
626.076	626.382	99	77
626.175	626.382	46	73
626.175	626.382	58	87
626.269	626.382	101	77
626.272	626.382	94	66
626.272	626.382	98	77
626.273	626.382	89	66
626.381	626.78	51	78
626.381	626.796	63	93
626.483	626.682	94	66
626.483	626.796	99	77
626.483	626.796	103	77
626.484	626.796	91	66
626.583	626.796	46	69
626.584	626.796	58	81
626.678	626.796	98	77
626.678	626.796	101	77
626.682	626.796	89	66
626.682	626.796	94	66
626.776	626.87	39	74
626.78	626.874	51	88
626.875	627.186	103	77
626.877	627.186	91	66
626.877	627.186	99	77
626.878	627.081	94	66
626.983	627.186	34	71
626.983	627.186	46	84
627.077	627.186	101	77
627.081	627.186	94	66
627.081	627.186	98	77
627.082	627.186	89	66
627.185	627.605	39	78
627.186	627.584	51	93
627.287	627.605	103	77
627.291	627.486	94	66
627.291	627.605	99	77
627.292	627.605	91	66
627.389	627.605	46	69
627.39	627.605	58	81
627.484	627.605	101	77
627.485	627.605	98	77
627.486	627.605	94	66
627.487	627.605	89	66
627.584	627.679	51	74
627.585	627.683	63	88
627.683	628.001	103	77
627.684	628.001	99	77
627.686	628.001	91	66
627.686	627.886	94	66
627.788	628.001	46	71
627.789	628.001	58	84
627.885	628.001	98	77
627.885	628.001	101	77
627.886	628.001	94	66
627.889	628.001	89	66
627.998	628.397	39	78
627.998	628.399	51	93
628.095	628.41	103	77
628.096	628.41	91	66
628.096	628.299	94	66
628.096	628.41	99	77
628.194	628.41	34	69
628.197	628.41	46	81
628.295	628.41	101	77
628.299	628.41	89	66
628.299	628.41	94	66
628.299	628.41	98	77
628.397	628.491	39	74
628.399	628.494	51	88
628.495	628.814	103	77
628.498	628.81	91	66
628.498	628.813	99	77
628.499	628.706	94	66
628.6	628.816	46	71
628.603	628.816	58	84
628.705	628.816	98	77
628.705	628.816	101	77
628.706	628.81	94	66
628.708	628.816	89	66
628.81	632.236	91	77
628.81	632.873	94	77
628.813	632.236	99	77
628.814	629.129	51	78
628.814	632.873	103	93
628.816	629.132	63	93
629.124	629.245	70	68
629.125	629.245	67	68
629.125	629.247	75	68
629.128	629.247	79	80
629.129	629.248	51	64
629.129	629.248	55	64
629.131	629.251	58	64
629.132	629.251	63	75
629.245	629.99	67	75
629.245	629.985	70	75
629.247	629.986	75	75
629.247	631.378	79	89
629.248	629.56	51	68
629.248	629.555	55	68
629.251	629.555	58	68
629.251	629.556	63	80
629.555	629.671	55	70
629.555	629.672	58	70
629.556	629.674	63	82
629.559	629.674	39	65
629.559	629.674	46	65
629.56	629.677	51	76
629.671	629.989	55	76
629.672	629.989	58	76
629.674	630.416	39	68
629.674	630.417	46	68
629.674	629.989	63	91
629.677	630.419	51	80
629.985	630.102	70	68
629.986	630.104	75	68
629.986	630.104	82	80
629.989	630.105	55	64
629.989	630.105	58	64
629.989	630.108	63	64
629.99	630.109	67	75
630.102	632.24	70	75
630.104	631.375	75	75
630.104	632.873	82	89
630.105	630.412	55	68
630.105	630.413	58	68
630.108	630.416	63	68
630.109	631.385	67	80
630.412	630.525	55	70
630.413	630.526	58	70
630.416	630.528	39	65
630.416	630.526	63	82
630.417	630.528	46	65
630.419	630.529	51	76
630.525	631.382	55	76
630.526	631.383	58	76
630.526	631.383	63	91
630.528	632.873	39	68
630.528	632.873	46	68
630.529	632.873	51	80
631.375	632.242	75	84
631.378	632.243	79	84
631.379	632.236	87	99
631.382	632.873	55	74
631.383	632.873	58	74
631.383	632.873	63	74
631.385	632.24	67	88
632.236	632.873	87	84
632.236	632.873	91	84
632.236	632.873	99	99
632.24	632.873	67	74
632.24	632.873	70	74
632.242	632.873	75	74
632.243	632.873	79	88
