OnsetTime	OffsetTime	MidiPitch	Velocity
0.519987	0.943991	69	60
0.520993	0.944983	66	60
0.520993	0.944983	74	73
0.523983	0.947987	45	57
0.524989	0.947987	38	57
0.524989	0.94898	50	69
1.36798	1.77399	66	45
1.36798	1.47598	79	66
1.36899	1.77399	62	37
1.46598	1.58499	78	55
1.57097	1.68298	76	54
1.66899	1.78498	78	54
1.77399	1.88197	81	65
1.77798	2.19699	64	37
1.77798	2.19798	67	45
1.87099	1.99099	79	55
1.97698	2.09998	78	55
2.08798	2.20197	79	55
2.19798	2.59999	81	62
2.20098	2.59999	69	45
2.20197	2.60098	66	37
3.01298	3.05798	81	50
3.20898	3.25799	83	45
3.41099	3.46399	85	45
3.615	3.668	86	45
3.82501	4.63399	81	54
3.82601	4.63699	54	38
4.02101	4.427	62	32
4.225	4.63699	78	45
4.227	4.63699	50	38
4.427	4.63699	62	33
4.63399	4.72699	81	50
4.63499	4.82599	52	37
4.73198	4.82899	79	44
4.82999	4.93099	78	44
4.83298	5.03199	62	32
4.93099	5.03298	79	44
5.03298	5.08397	81	49
5.03399	5.08498	57	37
5.23197	5.28499	79	46
5.23498	5.28499	61	30
5.44898	5.65497	77	54
5.44998	5.85497	50	42
5.45198	5.85598	62	42
5.65897	5.85798	78	45
6.27197	6.38296	79	66
6.27497	6.67997	62	37
6.27497	6.68096	66	45
6.36898	6.48796	78	55
6.47397	6.58696	76	54
6.57596	6.68695	78	54
6.68096	6.78897	81	65
6.68396	7.10396	64	37
6.68495	7.10396	67	45
6.77496	6.88697	79	55
6.88397	7.00196	78	55
6.99196	7.10896	79	55
7.10496	7.50295	81	62
7.10795	7.50295	66	37
7.10795	7.50395	69	45
7.91695	7.96095	81	50
8.11194	8.16496	83	45
8.31496	8.36796	85	45
8.51897	8.56997	86	45
8.72797	9.53695	81	54
8.72897	9.54095	54	38
8.92496	9.33396	62	32
9.13196	9.54095	50	38
9.13196	9.54095	78	45
9.33396	9.54095	62	33
9.53695	9.63095	81	50
9.54095	9.73295	52	37
9.63496	9.73295	79	44
9.73394	9.83795	78	44
9.73596	9.93495	62	32
9.83795	9.93895	79	44
9.93994	10.1389	57	37
9.93994	10.0339	81	50
10.0369	10.1389	79	44
10.1399	10.2439	78	44
10.1429	10.3449	61	32
10.2439	10.3489	76	44
10.3519	10.4539	74	50
10.3529	10.4539	62	37
10.5519	10.6529	66	26
10.7509	10.8529	69	42
10.7549	10.8529	62	35
10.9579	11.0559	66	28
11.1539	11.2369	78	47
11.1579	11.2649	62	36
11.2299	11.3039	79	43
11.2969	11.3669	78	48
11.3639	11.4689	66	26
11.3639	11.4379	79	43
11.4339	11.5039	78	48
11.4969	11.5729	79	44
11.5659	11.6369	78	48
11.5669	11.6649	62	35
11.6299	11.6999	79	44
11.6959	11.7699	78	44
11.7669	11.8649	66	30
11.7669	11.8739	76	48
11.8649	11.9729	74	44
11.9619	12.0669	73	50
11.9629	12.0669	64	37
12.1659	12.2629	67	29
12.3609	12.4629	64	37
12.3609	12.4599	69	42
12.5639	12.6619	67	29
12.7639	12.8789	64	43
12.7639	12.8649	76	50
12.8689	12.9769	66	38
12.9629	13.0759	67	38
13.0649	13.1729	66	38
13.1629	13.2709	64	38
13.2679	13.3769	62	40
13.3659	13.4779	61	40
13.4629	13.5789	59	40
13.5689	13.6739	76	50
13.5699	13.6739	57	37
13.7789	13.8839	61	26
13.9819	14.0838	57	35
13.9819	14.0798	69	42
14.1769	14.2829	61	28
14.3848	14.4848	57	36
14.3848	14.4638	79	47
14.4538	14.5308	81	43
14.5238	14.5978	79	48
14.5908	14.6678	81	43
14.5918	14.6888	61	26
14.6538	14.7308	79	48
14.7238	14.7928	81	44
14.7898	14.8638	79	48
14.7908	14.8918	55	35
14.8528	14.9268	81	44
14.9228	14.9898	79	44
14.9858	15.0918	61	30
14.9858	15.0978	78	48
15.0918	15.1998	76	44
15.1888	15.2868	74	50
15.1898	15.2868	54	37
15.3928	15.4898	62	29
15.5878	15.6898	69	42
15.5888	15.6898	54	37
15.7908	15.8888	62	29
15.9908	16.0988	54	43
15.9908	16.0878	78	50
16.0888	16.1968	50	36
16.1938	16.3028	52	37
16.2918	16.4038	54	38
16.3898	16.5018	55	39
16.4908	16.5998	57	40
16.5928	16.7038	59	41
16.6938	16.8098	61	42
16.7958	16.9008	78	54
16.7988	17.2088	62	44
16.9008	17.0188	74	47
17.0058	17.1178	76	48
17.1108	17.2188	78	49
17.2088	17.3248	79	50
17.3138	17.4258	81	51
17.4178	17.5268	83	52
17.5168	17.6258	85	53
17.6218	17.7258	86	55
17.7228	17.8248	85	56
17.8178	17.9298	83	56
17.8208	17.9158	57	37
17.8218	17.9158	54	31
17.9198	18.0268	81	56
18.0168	18.1258	79	56
18.0178	18.1148	54	31
18.0178	18.1148	57	37
18.1158	18.2308	78	55
18.2198	18.3258	57	37
18.2198	18.3288	76	50
18.2208	18.3258	54	31
18.3258	18.4337	74	49
18.4228	18.5387	76	51
18.4238	18.8357	55	37
18.4238	18.8357	59	44
18.5277	18.6368	78	48
18.6298	18.7417	76	45
18.7307	18.8467	75	43
18.8367	18.9447	76	45
18.9377	19.0497	78	47
19.0387	19.1477	79	49
19.1407	19.2527	81	51
19.2387	19.3497	83	53
19.3397	19.4557	81	54
19.4447	19.5537	79	53
19.4457	19.5437	55	30
19.4457	19.5437	59	36
19.5447	19.6517	78	51
19.6437	19.7597	76	49
19.6487	19.7457	59	36
19.6507	19.7457	55	30
19.7467	19.8547	74	48
19.8517	19.9487	59	36
19.8517	19.9597	73	46
19.8527	19.9497	56	30
19.9527	20.0647	71	44
20.0537	20.1627	73	50
20.0547	20.2577	57	46
20.1517	20.2607	74	42
20.2577	20.3657	73	42
20.2587	20.4667	55	40
20.3547	20.4777	69	40
20.4667	20.5657	74	47
20.4677	20.5657	54	40
20.6667	20.7747	50	40
20.8767	20.9887	79	55
20.8807	21.0827	49	50
20.9737	21.0867	81	46
21.0827	21.1847	79	46
21.0837	21.2787	45	44
21.1817	21.2897	76	46
21.2797	21.3807	50	44
21.2797	21.3877	79	56
21.3837	21.4927	78	47
21.4787	21.5937	76	48
21.4827	21.5797	54	44
21.5807	21.7027	74	48
21.6887	21.8007	73	57
21.6927	21.8957	57	51
21.7937	21.9057	74	44
21.8957	22.0907	55	44
21.8957	22.0037	73	44
21.9927	22.1017	69	44
22.0907	22.1897	74	57
22.0947	22.1897	54	45
22.2937	22.3987	50	45
22.5007	22.6127	79	65
22.5047	22.7067	49	54
22.6087	22.7177	81	54
22.7077	22.9096	45	47
22.7077	22.8156	79	54
22.8057	22.9177	76	56
22.9107	23.0077	50	48
22.9107	23.0187	79	69
23.0077	23.1166	78	56
23.1067	23.2117	54	48
23.1067	23.2206	76	56
23.2117	23.3266	74	59
23.3156	23.4216	73	79
23.3166	23.5196	52	50
23.3166	23.5196	57	60
23.3196	23.5226	45	50
23.4216	23.5226	76	63
23.5226	23.6166	73	63
23.6206	23.7286	69	63
23.7296	23.9246	50	51
23.7296	23.8276	78	74
23.7326	23.9296	54	51
23.7326	23.9286	57	60
23.8276	23.9296	81	64
23.9306	24.0366	78	64
24.0376	24.1386	74	64
24.1426	24.2436	73	77
24.1436	24.3446	57	61
24.1456	24.3456	45	51
24.1456	24.3456	52	51
24.2446	24.3456	76	64
24.3486	24.4436	73	64
24.4436	24.5516	69	64
24.5526	24.6526	78	77
24.5556	24.7586	50	52
24.5556	24.7586	54	52
24.5566	24.7596	57	62
24.6536	24.7596	81	64
24.7616	24.8596	78	64
24.8596	24.9716	74	64
24.9726	25.0456	73	69
24.9726	25.0486	76	84
25.1746	25.2556	73	60
25.1746	25.2546	81	74
25.1756	25.2586	45	45
25.1756	25.2556	76	60
25.1786	25.2596	52	45
25.1786	25.2596	57	55
25.1796	25.2616	49	45
25.3816	25.4586	76	60
25.3846	25.4586	73	60
25.3846	25.4596	81	74
25.3856	25.4616	52	45
25.3886	25.4626	45	45
25.3886	25.4616	49	45
25.3896	25.4656	57	55
25.5876	25.6606	76	60
25.5886	25.6656	45	45
25.5886	25.6646	73	60
25.5886	25.6646	81	74
25.5906	25.6656	52	45
25.5916	25.6676	49	45
25.5916	25.6676	57	55
25.7946	26.2176	73	60
25.7946	26.2186	81	74
25.7956	26.2206	76	60
25.7976	26.2216	49	49
25.7976	26.2216	57	58
25.8016	26.2256	45	49
25.8016	26.2256	52	49
26.2256	26.2696	74	41
26.2706	26.3686	73	42
26.3686	26.4726	71	40
26.4766	26.5776	73	40
26.5786	26.6936	74	40
26.6936	26.9555	75	45
26.6976	26.9555	57	34
26.9116	27.1126	76	42
26.9136	27.1135	61	27
27.1135	27.3345	59	30
27.3355	27.5365	76	40
27.3375	27.5375	62	27
27.5375	27.7506	81	46
27.5405	27.7506	61	32
27.7476	27.9465	80	42
27.7506	27.9505	64	26
27.9505	28.1565	78	44
27.9535	28.1605	57	29
28.1605	28.3735	61	26
28.1605	28.3735	76	42
28.3745	28.5975	73	48
28.3775	28.5975	59	34
28.5845	28.7825	74	42
28.5865	28.7865	66	28
28.7875	29.0035	62	32
29.0035	29.2065	74	40
29.0075	29.2095	59	28
29.2105	29.4165	76	45
29.2135	29.4175	56	34
29.4195	29.6195	74	42
29.4205	29.6195	59	29
29.6235	29.8305	52	30
29.6235	29.8295	73	45
29.8325	30.0435	71	42
29.8335	30.0435	62	28
30.0465	30.2575	61	34
30.0465	30.2575	68	48
30.2565	30.4555	69	44
30.2575	30.4565	64	28
30.4565	30.6595	56	30
30.6595	30.8725	71	45
30.6625	30.8765	64	28
30.8765	31.0855	72	50
30.8795	31.0855	57	34
31.0785	31.2785	73	46
31.0795	31.2825	64	26
31.2825	31.4845	54	29
31.4325	31.4855	76	42
31.4855	31.6995	57	26
31.4855	31.6985	74	47
31.6995	32.4435	73	51
31.7015	32.5495	52	34
31.9085	32.3365	57	27
32.1225	32.5525	61	30
32.3325	32.5525	74	44
32.3365	32.5525	57	27
32.4435	32.5525	73	42
32.5495	32.9685	52	33
32.5495	32.7555	71	47
32.5505	32.9695	56	33
32.7565	32.8645	73	42
32.9725	33.0805	74	44
33.1895	33.2975	75	47
33.4095	33.6375	75	43
33.4105	33.6375	57	34
33.6275	33.8305	76	42
33.6285	33.8305	61	27
33.8315	34.0525	59	30
34.0515	34.2575	62	27
34.0515	34.1035	78	40
34.1045	34.1525	76	37
34.1555	34.2045	75	37
34.2085	34.2575	76	37
34.2605	34.4955	61	32
34.2605	34.4955	81	46
34.4635	34.5645	80	42
34.4645	34.5655	64	26
34.6625	34.7685	78	44
34.6635	34.8725	57	29
34.8734	34.9844	76	42
34.8765	34.9854	61	26
35.0864	35.3314	73	48
35.0904	35.3314	59	34
35.3004	35.5064	66	28
35.3004	35.5064	74	42
35.5074	35.7204	62	32
35.7234	35.7724	76	40
35.7244	35.9224	59	28
35.7764	35.8254	74	37
35.8254	35.8694	73	37
35.8734	35.9234	74	37
35.9274	36.1404	56	34
35.9274	36.1404	76	45
36.1334	36.2384	74	42
36.1364	36.2384	59	29
36.3354	36.4414	73	45
36.3364	36.5464	52	30
36.5464	36.6574	56	28
36.5464	36.6544	71	42
36.7594	37.2154	57	30
36.7594	37.2154	73	45
37.0934	37.2154	76	42
37.2044	37.6484	62	30
37.2044	37.6484	66	45
37.2054	37.6484	50	30
37.5334	37.6484	71	41
37.6394	38.0894	69	45
37.6424	38.5244	52	30
37.6424	38.0894	61	30
38.0804	38.1884	68	43
38.0824	38.5244	59	30
38.1314	38.2404	69	39
38.1884	38.3004	68	43
38.2404	38.5244	69	40
38.3004	38.4464	68	43
38.3694	38.5244	66	40
38.4464	38.5244	68	40
38.5244	38.9433	57	38
38.5244	38.6283	69	46
38.6313	38.7403	76	44
38.7403	38.8393	75	47
38.8413	38.9443	76	43
38.9443	39.0483	78	50
39.0483	39.1473	76	47
39.1473	39.2543	75	51
39.1483	39.2553	69	49
39.2583	39.3673	76	51
39.3673	39.4723	74	59
39.3703	39.4723	71	55
39.4733	39.5803	76	50
39.5833	39.6783	74	52
39.5843	39.6823	69	49
39.6823	39.7873	76	50
39.7873	39.8883	74	62
39.7883	39.8913	68	56
39.8923	39.9863	76	49
39.9903	40.0993	64	48
39.9903	40.0993	74	52
40.0993	40.2063	76	49
40.2073	40.3193	73	50
40.2103	40.6303	69	55
40.3203	40.4313	76	44
40.4313	40.5323	75	47
40.5353	40.6343	76	43
40.6343	40.7393	78	50
40.7393	40.8363	76	47
40.8373	40.9463	57	50
40.8373	40.9453	75	51
40.9463	41.0543	76	51
41.0572	41.1592	59	56
41.0572	41.1582	74	59
41.1623	41.2642	76	50
41.2672	41.3692	74	52
41.2682	41.3692	57	50
41.3722	41.4732	76	50
41.4742	41.5802	56	56
41.4742	41.5792	74	62
41.5822	41.6772	76	49
41.6772	41.7882	74	52
41.6802	41.7892	52	51
41.7892	41.8972	76	49
41.8982	42.0062	57	45
41.8982	42.3212	69	41
42.0092	42.1172	64	35
42.1212	42.2232	63	37
42.2242	42.3212	64	34
42.3242	42.4252	66	40
42.4302	42.5312	64	37
42.5322	42.6432	81	57
42.5342	42.6432	63	40
42.6432	42.7442	64	40
42.7472	42.8492	83	63
42.7482	42.8502	62	47
42.8502	42.9542	64	39
42.9542	43.0592	81	58
42.9582	43.0602	62	41
43.0602	43.1642	64	39
43.1652	43.2622	62	49
43.1652	43.2622	80	63
43.2632	43.3672	64	39
43.3682	43.4752	76	58
43.3692	43.4762	62	41
43.4792	43.5882	64	39
43.5882	44.0111	81	60
43.5892	43.6962	61	39
43.6971	43.8082	64	35
43.8092	43.9062	63	37
43.9062	44.0121	64	34
44.0121	44.1161	66	40
44.1172	44.2181	64	37
44.2211	44.3291	45	57
44.2221	44.3301	63	40
44.3301	44.4341	64	40
44.4351	44.5471	47	63
44.4381	44.5471	62	47
44.5481	44.6491	64	39
44.6491	44.7531	45	58
44.6521	44.7541	62	41
44.7541	44.8581	64	39
44.8581	44.9631	44	60
44.8621	44.9641	62	49
44.9641	45.0611	64	39
45.0621	45.1701	40	58
45.0621	45.1731	62	41
45.1731	45.2821	64	39
45.2821	45.7151	45	60
45.2831	45.7191	61	41
45.7201	45.9301	61	35
45.7201	46.1461	76	50
45.8221	46.0311	69	29
45.9301	46.1461	61	29
46.0311	46.1461	69	29
46.1441	46.5771	74	47
46.1461	46.2431	59	35
46.2441	46.4611	69	30
46.3531	46.5771	59	30
46.4611	46.5771	69	30
46.5741	47.0221	73	46
46.5751	46.6811	57	35
46.6821	46.9031	69	31
46.7901	47.0221	57	31
46.9031	47.0221	69	31
47.0181	47.379	78	50
47.0211	47.462	62	35
47.1231	47.3401	69	30
47.2351	47.463	68	30
47.339	47.463	80	45
47.3401	47.463	69	30
47.379	47.46	78	45
47.417	47.463	76	45
47.46	47.564	78	50
47.462	47.564	62	35
47.565	47.672	69	30
47.673	47.784	80	47
47.676	47.784	68	30
47.785	47.9	69	30
47.9	48.12	83	50
47.903	48.12	62	30
48.005	48.12	69	32
48.111	48.333	68	32
48.111	48.333	81	45
48.219	48.333	69	32
48.324	48.544	80	47
48.326	48.544	62	34
48.429	48.544	69	30
48.541	48.776	78	45
48.542	48.776	68	30
48.656	48.776	69	30
48.775	48.995	76	50
48.776	48.88	61	37
48.883	48.998	69	37
48.999	49.107	68	28
49.107	49.222	69	28
49.223	49.66	76	60
49.226	49.433	61	45
49.331	49.545	69	37
49.433	49.66	61	37
49.545	49.66	69	37
49.65	50.0869	74	60
49.651	49.751	59	45
49.751	49.969	69	39
49.864	50.0869	59	39
49.969	50.0869	69	39
50.078	50.5289	73	59
50.08	50.1859	57	45
50.189	50.413	69	40
50.2979	50.5289	57	40
50.413	50.5289	69	40
50.5259	50.9699	71	68
50.5289	50.9689	50	45
50.6369	50.8539	59	39
50.7379	50.9699	54	39
50.8519	50.9699	78	53
50.8539	50.9699	59	39
50.9669	51.4169	76	60
50.9689	51.4169	50	45
51.0779	51.2949	59	39
51.0779	51.4169	74	58
51.1799	51.4169	73	58
51.1819	51.4169	54	39
51.2919	51.4169	71	58
51.2949	51.4169	59	39
51.4099	51.8339	52	39
51.4099	51.8399	69	63
51.5119	51.7249	61	41
51.6169	51.8399	57	41
51.7249	51.8399	61	41
51.8329	51.8889	71	55
51.8339	52.2819	52	44
51.8899	51.9989	73	49
51.9429	52.0519	71	56
51.9439	52.1669	62	39
51.9989	52.2819	73	50
52.0519	52.2019	71	56
52.0539	52.2819	56	39
52.1279	52.2789	69	48
52.1669	52.2819	62	39
52.2019	52.2819	71	48
52.2789	52.4949	69	66
52.2819	52.3869	57	48
52.3869	52.4989	64	42
52.4989	52.6039	61	36
52.6049	52.7409	64	36
52.7409	53.1699	76	50
52.7439	52.9509	61	35
52.8459	53.0559	69	29
52.9509	53.1699	61	29
53.0559	53.1699	69	29
53.1679	53.2689	59	35
53.1679	53.6008	74	47
53.2699	53.4859	69	30
53.3808	53.6008	59	30
53.4859	53.6008	69	30
53.5918	54.0458	73	46
53.5938	53.7068	57	35
53.7068	53.9268	69	31
53.8148	54.0458	57	31
53.9268	54.0458	69	31
54.0438	54.4068	78	50
54.0458	54.4858	62	35
54.1478	54.3688	69	30
54.2568	54.4868	68	30
54.3688	54.4868	69	30
54.3688	54.4868	80	45
54.4068	54.4838	78	45
54.4448	54.4868	76	45
54.4838	54.5918	78	50
54.4858	54.5948	62	35
54.5948	54.6968	69	30
54.6968	54.8078	80	47
54.6978	54.8088	68	30
54.8088	54.9238	69	30
54.9238	55.1438	83	50
54.9278	55.1438	62	30
55.0298	55.1438	69	32
55.1348	55.3588	81	45
55.1368	55.3588	68	32
55.2438	55.3588	69	32
55.3508	55.5718	80	47
55.3518	55.5718	62	34
55.4528	55.5718	69	30
55.5658	55.7998	78	45
55.5678	55.7998	68	30
55.6808	55.7998	69	30
55.7958	56.0198	76	50
55.7988	55.9038	61	37
55.9038	56.0238	69	37
56.0238	56.1318	68	28
56.1328	56.2468	69	28
56.2468	56.6818	76	60
56.2478	56.4578	61	45
56.3528	56.5668	69	37
56.4578	56.6818	61	37
56.5668	56.6818	69	37
56.6708	57.1117	74	60
56.6748	56.7757	59	45
56.7768	56.9927	69	39
56.8848	57.1117	59	39
56.9927	57.1117	69	39
57.1017	57.5527	73	59
57.1047	57.2097	57	45
57.2107	57.4407	69	40
57.3217	57.5527	57	40
57.4407	57.5527	69	40
57.5487	57.9937	71	68
57.5527	57.9927	50	45
57.6577	57.8757	59	39
57.7637	57.9937	54	39
57.8747	57.9937	78	53
57.8757	57.9937	59	39
57.9907	58.4417	76	60
57.9927	58.4417	50	45
58.0997	58.4417	74	58
58.1017	58.3227	59	39
58.2067	58.4417	54	39
58.2067	58.4417	73	58
58.3227	58.4417	59	39
58.3227	58.4417	71	58
58.4317	58.8577	52	39
58.4317	58.8647	69	63
58.5357	58.7507	61	41
58.6447	58.8647	57	41
58.7507	58.8647	61	41
58.8547	58.9137	71	55
58.8577	59.3127	52	44
58.9147	59.0227	73	49
58.9667	59.1907	62	39
58.9667	59.0827	71	56
59.0227	59.3127	73	50
59.0827	59.3127	56	39
59.0827	59.2257	71	56
59.1487	59.3067	69	48
59.1907	59.3127	62	39
59.2257	59.3127	71	48
59.3067	59.5157	69	66
59.3097	59.9596	57	45
59.3097	59.9596	61	54
59.4117	59.9596	64	59
59.5157	59.9596	69	66
59.6286	59.8416	73	58
59.7396	59.9596	76	66
59.8416	59.9596	73	60
59.9466	60.0616	52	46
59.9466	60.0586	74	66
59.9506	60.0626	56	46
59.9506	60.0656	59	55
60.0656	60.1706	71	59
60.1706	60.3886	69	66
60.1746	60.8496	57	45
60.1746	60.8496	61	54
60.2826	60.8496	64	59
60.3886	60.8496	69	66
60.4956	60.7106	73	58
60.6036	60.8496	76	66
60.7106	60.8496	73	60
60.8216	60.9376	74	66
60.8256	60.9396	52	46
60.8256	60.9406	56	46
60.8256	60.9406	59	55
60.9406	61.0486	71	59
61.0496	61.2876	61	63
61.0496	61.2866	69	75
61.0526	61.2876	57	52
61.5256	61.8086	71	64
61.5256	61.8086	80	75
61.5266	61.8086	74	64
61.5286	61.8086	41	52
61.5286	61.8086	53	63
62.0256	62.3716	81	75
62.0266	62.3716	69	64
62.0266	62.3716	73	64
62.0276	62.3716	42	52
62.0286	62.3716	54	63
63.0265	63.2605	66	39
63.0296	63.2605	74	47
63.0306	63.9575	50	40
63.2506	63.3625	64	36
63.2506	63.3655	73	43
63.4856	63.7225	73	47
63.4885	63.7225	64	39
63.7135	63.8355	62	35
63.7155	63.8355	71	42
63.9585	64.1985	62	39
63.9585	64.1985	71	47
63.9605	64.9795	52	40
64.1885	64.3145	61	34
64.1915	64.3175	69	41
64.4445	64.7105	61	39
64.4445	64.7105	69	47
64.6965	64.8325	59	34
64.6965	64.8315	68	41
64.9795	66.1865	62	45
64.9805	66.1865	59	37
64.9825	66.1865	57	39
64.9825	66.1865	68	54
65.5265	66.1865	52	39
66.1555	66.7225	61	35
66.1555	66.7265	69	42
66.1565	66.7295	45	35
67.2925	67.7165	66	60
67.2965	67.7205	69	60
67.2965	67.7205	74	73
67.2975	67.7225	38	57
67.3005	67.7235	45	57
67.3005	67.7235	50	69
68.1435	68.2515	79	66
68.1445	68.5525	62	37
68.1445	68.5525	66	45
68.2445	68.3565	78	55
68.3505	68.4585	76	54
68.4475	68.5665	78	54
68.5565	68.9765	67	45
68.5565	68.6655	81	65
68.5575	68.9805	64	37
68.6515	68.7665	79	55
68.7555	68.8785	78	55
68.8675	68.9905	79	55
68.9805	69.3785	81	62
68.9815	69.3795	66	37
68.9835	69.3795	69	45
69.7885	69.8375	81	50
69.9885	70.0395	83	45
70.1905	70.2435	85	45
70.3935	70.4465	86	45
70.6045	71.4155	54	38
70.6045	71.4125	81	54
70.8075	71.2095	62	32
71.0065	71.4155	50	38
71.0065	71.4155	78	45
71.2095	71.4155	62	33
71.4125	71.5065	81	50
71.4135	71.6115	52	37
71.5065	71.6155	79	44
71.6155	71.7095	78	44
71.6165	71.8075	62	32
71.7145	71.8115	79	44
71.8125	71.8605	81	49
71.8145	71.8645	57	37
72.0145	72.0665	79	46
72.0155	72.0675	61	30
72.2285	72.6335	62	42
72.2285	72.4375	77	54
72.2295	72.6345	50	42
72.4375	72.6365	78	45
73.0675	73.1875	79	66
73.0715	73.4745	62	37
73.0725	73.4775	66	45
73.1735	73.2845	78	55
73.2735	73.3895	76	54
73.3755	73.4885	78	54
73.4775	73.5925	81	65
73.4815	73.9015	64	37
73.4815	73.9005	67	45
73.5815	73.6905	79	55
73.6805	73.8035	78	55
73.7965	73.9105	79	55
73.9015	74.3065	81	62
73.9035	74.3075	69	45
73.9045	74.3105	66	37
74.7125	74.7655	81	50
74.9155	74.9685	83	45
75.1195	75.1645	85	45
75.3145	75.3745	86	45
75.5245	76.3365	81	54
75.5255	76.3375	54	38
75.7315	76.1375	62	32
75.9345	76.3375	78	45
75.9355	76.3375	50	38
76.1375	76.3375	62	33
76.3365	76.4385	81	50
76.3375	76.5365	52	37
76.4385	76.5375	79	44
76.5375	76.6345	78	44
76.5395	76.7395	62	32
76.6355	76.7405	79	44
76.7405	76.8375	81	50
76.7435	76.9425	57	37
76.8375	76.9435	79	44
76.9435	77.0405	78	44
76.9455	77.1445	61	32
77.0445	77.1455	76	44
77.1455	77.2505	74	50
77.1495	77.2515	62	37
77.3525	77.4605	66	26
77.5585	77.6565	69	42
77.5595	77.6575	62	35
77.7535	77.8595	66	28
77.9575	78.0385	78	47
77.9585	78.0625	62	36
78.0275	78.1044	79	43
78.0974	78.1744	78	48
78.1684	78.2654	66	26
78.1684	78.2404	79	43
78.2334	78.3034	78	48
78.3005	78.3704	79	44
78.3634	78.4405	78	48
78.3704	78.4685	62	35
78.4264	78.5035	79	44
78.4965	78.5665	78	44
78.5625	78.6715	76	48
78.5635	78.6645	66	30
78.6685	78.7754	74	44
78.7665	78.8645	64	37
78.7665	78.8634	73	50
78.9694	79.0674	67	29
79.1644	79.2624	69	42
79.1684	79.2634	64	37
79.3684	79.4654	67	29
79.5634	79.6654	76	50
79.5674	79.6764	64	43
79.6654	79.7804	66	38
79.7704	79.8784	67	38
79.8684	79.9774	66	38
79.9664	80.0784	64	38
80.0714	80.1794	62	40
80.1694	80.2784	61	40
80.2674	80.3834	59	40
80.3714	80.4774	76	50
80.3724	80.4784	57	37
80.5824	80.6804	61	26
80.7784	80.8834	69	42
80.7814	80.8844	57	35
80.9814	81.0824	61	28
81.1844	81.2614	79	47
81.1854	81.2894	57	36
81.2544	81.3314	81	43
81.3244	81.3984	79	48
81.3944	81.4644	81	43
81.3974	81.4924	61	26
81.4604	81.5344	79	48
81.5274	81.5974	81	44
81.5904	81.6604	79	48
81.5944	81.6924	55	35
81.6534	81.7304	81	44
81.7194	81.7934	79	44
81.7894	81.8984	78	48
81.7904	81.8914	61	30
81.8954	82.0034	76	44
81.9934	82.0914	54	37
81.9934	82.0904	74	50
82.1884	82.2874	62	29
82.3914	82.4894	69	42
82.3964	82.4934	54	37
82.5884	82.6894	62	29
82.7944	82.8924	78	50
82.7954	82.9034	54	43
82.8924	83.0014	50	36
82.9904	83.1024	52	37
83.0954	83.2044	54	38
83.1934	83.3024	55	39
83.2904	83.4034	57	40
83.3894	83.5084	59	41
83.4944	83.6064	61	42
83.5994	84.0124	62	44
83.5994	83.7044	78	54
83.7054	83.8164	74	47
83.8094	83.9184	76	48
83.9074	84.0224	78	49
84.0134	84.1274	79	50
84.1174	84.2264	81	51
84.2154	84.3304	83	52
84.3204	84.4323	85	53
84.4184	84.5304	86	55
84.5164	84.6284	85	56
84.6134	84.7264	83	56
84.6144	84.7194	57	37
84.6184	84.7224	54	31
84.7234	84.8314	81	56
84.8174	84.9294	79	56
84.8214	84.9154	57	37
84.8224	84.9194	54	31
84.9194	85.0274	78	55
85.0164	85.1324	76	50
85.0174	85.1224	54	31
85.0174	85.1224	57	37
85.1234	85.2373	74	49
85.2234	85.3353	76	51
85.2274	85.6374	55	37
85.2274	85.6364	59	44
85.3313	85.4403	78	48
85.4294	85.5454	76	45
85.5313	85.6434	75	43
85.6394	85.7483	76	45
85.7373	85.8463	78	47
85.8394	85.9513	79	49
85.9373	86.0563	81	51
86.0453	86.1543	83	53
86.1443	86.2523	81	54
86.2423	86.3463	59	36
86.2423	86.3573	79	53
86.2433	86.3463	55	30
86.3473	86.4553	78	51
86.4413	86.5573	76	49
86.4453	86.5503	59	36
86.4483	86.5503	55	30
86.5503	86.6583	74	48
86.6473	86.7633	73	46
86.6483	86.7493	56	30
86.6483	86.7533	59	36
86.7563	86.8613	71	44
86.8573	86.9663	73	50
86.8583	87.0533	57	46
86.9553	87.0643	74	42
87.0533	87.1693	73	42
87.0573	87.2673	55	40
87.1593	87.2743	69	40
87.2713	87.3683	54	40
87.2713	87.3653	74	47
87.4633	87.5753	50	40
87.6873	87.7963	79	55
87.6883	87.8903	49	50
87.7923	87.9003	81	46
87.8913	88.0023	79	46
87.8933	88.0933	45	44
87.9883	88.1003	76	46
88.0933	88.2013	79	56
88.0943	88.1913	50	44
88.1923	88.3033	78	47
88.2893	88.4083	76	48
88.2933	88.3943	54	44
88.3943	88.5093	74	48
88.5063	88.7023	57	51
88.5063	88.6143	73	57
88.6043	88.7133	74	47
88.7023	88.8143	73	47
88.7063	88.9013	55	44
88.8003	88.9123	69	47
88.9023	89.0073	54	45
88.9023	89.0033	74	57
89.1013	89.2133	50	45
89.3183	89.4303	79	65
89.3193	89.5213	49	54
89.4233	89.5313	81	54
89.5223	89.7243	45	47
89.5223	89.6293	79	54
89.6193	89.7353	76	56
89.7243	89.8363	79	70
89.7283	89.8223	50	48
89.8233	89.9343	78	56
89.9233	90.0363	76	56
89.9243	90.0253	54	48
90.0253	90.1442	74	59
90.1383	90.3333	45	50
90.1383	90.2353	73	79
90.1393	90.3383	52	50
90.1393	90.3373	57	60
90.2363	90.3383	76	63
90.3403	90.4313	73	63
90.4353	90.5433	69	63
90.5442	90.7392	54	51
90.5442	90.6412	78	74
90.5462	90.7432	50	51
90.5473	90.7432	57	60
90.6422	90.7432	81	64
90.7462	90.8522	78	64
90.8522	90.9562	74	64
90.9572	91.1592	52	51
90.9572	91.0582	73	77
90.9602	91.1602	45	51
90.9602	91.1602	57	61
91.0612	91.1612	76	62
91.1632	91.2642	73	62
91.2652	91.3662	69	62
91.3692	91.5722	50	52
91.3692	91.4632	78	77
91.3702	91.5732	54	52
91.3732	91.5732	57	62
91.4672	91.5732	81	64
91.5752	91.6742	78	64
91.6772	91.7852	74	64
91.7862	91.8592	73	69
91.7872	91.8622	76	84
91.9852	92.0622	73	60
91.9892	92.0622	81	74
91.9922	92.0662	45	45
91.9922	92.0662	76	60
91.9932	92.0692	49	45
91.9932	92.0692	57	55
91.9962	92.0702	52	45
92.1952	92.2722	81	74
92.1982	92.2732	73	60
92.1992	92.2762	76	60
92.2022	92.2762	49	45
92.2032	92.2792	45	45
92.2032	92.2772	52	45
92.2032	92.2772	57	55
92.4022	92.4782	73	60
92.4022	92.4752	76	60
92.4022	92.4792	81	74
92.4032	92.4792	49	45
92.4062	92.4832	45	45
92.4062	92.4822	52	45
92.4062	92.4832	57	55
92.6122	93.0502	81	74
92.6132	93.0542	52	49
92.6132	93.0532	73	60
92.6132	93.0532	76	60
92.6142	93.0572	57	58
92.6152	93.0572	45	49
92.6152	93.0572	49	49
93.0582	93.1012	74	41
93.1052	93.2062	73	42
93.2072	93.3122	71	40
93.3122	93.4102	73	40
93.4142	93.5252	74	40
93.5282	93.7872	75	45
93.5292	93.7872	57	34
93.7432	93.9522	76	42
93.7452	93.9522	61	27
93.9531	94.1652	59	30
94.1662	94.3762	62	27
94.1662	94.3762	76	40
94.3772	94.5892	61	32
94.3772	94.5892	81	46
94.5792	94.7852	80	42
94.5802	94.7882	64	26
94.7892	94.9882	57	29
94.7892	94.9882	78	44
94.9922	95.2062	61	26
94.9922	95.2052	76	42
95.2062	95.4292	73	48
95.2092	95.4292	59	34
95.4192	95.6141	74	42
95.4222	95.6182	66	28
95.6182	95.8351	62	32
95.8392	96.0452	74	40
95.8402	96.0492	59	28
96.0492	96.2482	56	34
96.0492	96.2482	76	45
96.2522	96.4541	59	29
96.2522	96.4511	74	42
96.4552	96.6621	52	30
96.4552	96.6621	73	45
96.6621	96.8822	71	42
96.6641	96.8822	62	28
96.8851	97.0891	68	48
96.8861	97.0891	61	34
97.0851	97.2881	69	44
97.0881	97.2881	64	28
97.2921	97.4911	56	30
97.4941	97.7071	71	45
97.4951	97.7081	64	28
97.7081	97.9181	72	50
97.7091	97.9181	57	34
97.9151	98.1141	73	46
97.9181	98.1141	64	26
98.1151	98.3131	54	29
98.2611	98.3161	76	42
98.3171	98.5301	74	47
98.3211	98.5301	57	26
98.5311	99.2731	73	51
98.5341	99.3821	52	34
98.7451	99.1721	57	27
98.9541	99.3911	61	30
99.1711	99.3911	74	44
99.1721	99.3911	57	27
99.2731	99.3911	73	42
99.3811	99.5871	71	47
99.3821	99.8041	52	33
99.3821	99.8011	56	33
99.5881	99.6961	73	42
99.8041	99.9121	74	44
100.021	100.133	75	47
100.248	100.476	75	45
100.249	100.476	57	34
100.466	100.665	76	42
100.467	100.668	61	27
100.668	100.89	59	30
100.886	100.938	78	40
100.89	101.089	62	27
100.939	100.991	76	37
100.994	101.043	75	37
101.047	101.092	76	37
101.093	101.334	81	46
101.096	101.334	61	32
101.299	101.404	80	42
101.302	101.404	64	26
101.502	101.712	57	29
101.502	101.606	78	44
101.712	101.817	76	42
101.715	101.817	61	26
101.925	102.17	73	48
101.928	102.17	59	34
102.139	102.338	74	42
102.14	102.339	66	28
102.339	102.558	62	32
102.559	102.762	59	28
102.559	102.611	76	40
102.612	102.664	74	37
102.664	102.709	73	37
102.713	102.762	74	37
102.766	102.975	56	34
102.766	102.975	76	45
102.972	103.07	74	42
102.975	103.07	59	29
103.174	103.28	73	45
103.175	103.385	52	30
103.385	103.489	71	42
103.386	103.49	56	28
103.598	104.053	73	45
103.599	104.053	57	30
103.931	104.053	76	42
104.043	104.483	66	45
104.044	104.483	50	30
104.044	104.483	62	30
104.365	104.483	71	41
104.477	104.928	69	45
104.481	105.363	52	30
104.481	104.928	61	30
104.919	105.026	68	43
104.92	105.363	59	30
104.97	105.079	69	39
105.026	105.139	68	43
105.079	105.36	69	40
105.139	105.285	68	43
105.208	105.363	66	40
105.285	105.363	68	40
105.36	105.463	69	46
105.363	105.778	57	38
105.464	105.579	76	44
105.58	105.677	75	47
105.677	105.783	76	43
105.785	105.887	78	50
105.888	105.989	76	47
105.992	106.1	75	51
105.993	106.101	69	51
106.101	106.209	76	51
106.213	106.314	74	59
106.214	106.314	71	55
106.318	106.419	76	50
106.42	106.524	74	52
106.422	106.525	69	51
106.525	106.622	76	50
106.622	106.727	74	62
106.623	106.728	68	58
106.731	106.832	76	49
106.833	106.944	64	53
106.833	106.941	74	52
106.944	107.053	76	49
107.053	107.158	73	50
107.054	107.476	69	55
107.159	107.266	76	44
107.266	107.371	75	47
107.372	107.477	76	43
107.477	107.574	78	50
107.574	107.679	76	47
107.68	107.788	75	51
107.683	107.789	57	52
107.791	107.9	76	51
107.9	108.005	74	59
107.903	108.005	59	57
108.005	108.106	76	50
108.111	108.211	57	51
108.111	108.211	74	52
108.215	108.319	76	50
108.32	108.414	74	62
108.321	108.418	56	57
108.418	108.519	76	49
108.519	108.632	74	52
108.523	108.632	52	53
108.635	108.732	76	49
108.737	108.845	57	56
108.737	109.163	69	41
108.848	108.961	64	35
108.964	109.058	63	37
109.062	109.163	64	34
109.167	109.269	66	40
109.272	109.373	64	37
109.374	109.485	81	57
109.377	109.485	63	40
109.486	109.587	64	40
109.591	109.696	62	47
109.591	109.695	83	63
109.696	109.797	64	39
109.8	109.902	81	58
109.801	109.902	62	41
109.906	110.006	64	39
110.01	110.112	80	63
110.011	110.113	62	49
110.113	110.21	64	39
110.21	110.318	76	58
110.214	110.322	62	41
110.322	110.43	64	39
110.431	110.539	61	39
110.431	110.854	81	60
110.543	110.65	64	35
110.654	110.756	63	37
110.757	110.854	64	34
110.855	110.962	66	40
110.966	111.067	64	37
111.068	111.172	45	57
111.071	111.176	63	40
111.176	111.284	64	40
111.285	111.389	47	63
111.285	111.39	62	47
111.39	111.498	64	39
111.498	111.602	45	58
111.501	111.607	62	41
111.607	111.708	64	39
111.709	111.813	44	60
111.711	111.813	62	49
111.814	111.914	64	39
111.918	112.019	40	58
111.918	112.02	62	41
112.023	112.131	64	39
112.131	112.568	45	60
112.135	112.569	61	41
112.569	113.003	76	50
112.57	112.775	61	35
112.671	112.888	69	29
112.775	113.003	61	29
112.888	113.003	69	29
112.993	113.094	59	35
112.993	113.433	74	47
113.094	113.312	69	30
113.206	113.433	59	30
113.312	113.433	69	30
113.423	113.871	73	46
113.424	113.532	57	35
113.532	113.755	69	31
113.648	113.871	57	31
113.755	113.871	69	31
113.87	114.235	78	50
113.871	114.312	62	35
113.98	114.197	69	30
114.084	114.312	68	30
114.193	114.312	80	45
114.197	114.312	69	30
114.235	114.309	78	45
114.274	114.312	76	45
114.309	114.417	78	50
114.312	114.42	62	35
114.42	114.529	69	30
114.533	114.638	68	30
114.533	114.637	80	47
114.641	114.75	69	30
114.75	114.97	83	50
114.753	114.97	62	30
114.855	114.97	69	32
114.966	115.187	81	45
114.967	115.187	68	32
115.068	115.187	69	32
115.18	115.401	80	47
115.184	115.401	62	34
115.286	115.401	69	30
115.39	115.624	78	45
115.393	115.624	68	30
115.506	115.624	69	30
115.622	115.844	76	50
115.624	115.737	61	37
115.737	115.849	69	37
115.849	115.96	68	28
115.964	116.073	69	28
116.076	116.509	76	60
116.077	116.29	61	45
116.185	116.395	69	37
116.29	116.509	61	37
116.395	116.509	69	37
116.5	116.937	74	60
116.501	116.604	59	45
116.608	116.822	69	39
116.713	116.937	59	39
116.822	116.937	69	39
116.927	117.378	73	59
116.93	117.035	57	45
117.039	117.263	69	40
117.154	117.378	57	40
117.263	117.378	69	40
117.376	117.827	71	68
117.378	117.826	50	45
117.486	117.704	59	39
117.596	117.827	54	39
117.7	117.827	78	53
117.704	117.827	59	39
117.823	118.267	76	60
117.826	118.267	50	45
117.927	118.267	74	58
117.928	118.149	59	39
118.037	118.267	73	58
118.04	118.267	54	39
118.149	118.267	59	39
118.149	118.267	71	58
118.257	118.691	69	63
118.26	118.688	52	39
118.369	118.575	61	41
118.47	118.691	57	41
118.575	118.691	61	41
118.688	119.136	52	44
118.688	118.74	71	55
118.74	118.849	73	49
118.799	118.908	71	56
118.8	119.016	62	39
118.849	119.136	73	50
118.908	119.058	71	56
118.911	119.136	56	39
118.985	119.135	69	48
119.016	119.136	62	39
119.058	119.136	71	48
119.135	119.349	69	66
119.136	119.236	57	48
119.237	119.349	64	42
119.35	119.457	61	36
119.46	119.59	64	36
119.593	120.028	76	50
119.594	119.808	61	35
119.695	119.912	69	29
119.808	120.028	61	29
119.912	120.028	69	29
120.017	120.454	74	47
120.018	120.125	59	35
120.126	120.336	69	30
120.231	120.454	59	30
120.336	120.454	69	30
120.445	120.895	73	46
120.448	120.552	57	35
120.556	120.784	69	31
120.672	120.895	57	31
120.784	120.895	69	31
120.893	121.256	78	50
120.895	121.34	62	35
121.004	121.221	69	30
121.106	121.344	68	30
121.221	121.344	69	30
121.221	121.344	80	45
121.256	121.34	78	45
121.298	121.344	76	45
121.34	121.446	62	35
121.34	121.445	78	50
121.446	121.546	69	30
121.55	121.666	68	30
121.55	121.661	80	47
121.666	121.774	69	30
121.775	121.997	62	30
121.775	121.997	83	50
121.879	121.997	69	32
121.991	122.212	68	32
121.991	122.212	81	45
122.096	122.212	69	32
122.201	122.424	62	34
122.201	122.424	80	47
122.309	122.424	69	30
122.413	122.648	78	45
122.414	122.648	68	30
122.529	122.648	69	30
122.647	122.869	76	50
122.648	122.76	61	37
122.761	122.869	69	37
122.872	122.987	68	28
122.988	123.096	69	28
123.097	123.53	76	60
123.099	123.312	61	45
123.208	123.419	69	37
123.312	123.53	61	37
123.419	123.53	69	37
123.523	123.96	74	60
123.524	123.631	59	45
123.632	123.845	69	39
123.736	123.96	59	39
123.845	123.96	69	39
123.953	124.401	73	59
123.954	124.065	57	45
124.069	124.286	69	40
124.174	124.401	57	40
124.286	124.401	69	40
124.399	124.85	71	68
124.401	124.846	50	45
124.507	124.725	59	39
124.619	124.85	54	39
124.724	124.85	78	53
124.725	124.85	59	39
124.846	125.29	50	45
124.846	125.29	76	60
124.952	125.172	59	39
124.952	125.29	74	58
125.06	125.29	73	58
125.061	125.29	54	39
125.172	125.29	59	39
125.172	125.29	71	58
125.281	125.714	69	63
125.283	125.714	52	39
125.393	125.599	61	41
125.494	125.714	57	41
125.599	125.714	61	41
125.711	125.763	71	55
125.714	126.159	52	44
125.763	125.872	73	49
125.82	125.932	71	56
125.823	126.043	62	39
125.872	126.159	73	50
125.932	126.159	56	39
125.932	126.081	71	56
126.005	126.156	69	48
126.043	126.159	62	39
126.081	126.159	71	48
126.156	126.372	69	66
126.159	126.817	57	45
126.159	126.817	61	54
126.261	126.817	64	59
126.372	126.817	69	66
126.477	126.691	73	58
126.59	126.817	76	66
126.691	126.817	73	60
126.803	126.911	74	66
126.804	126.912	52	46
126.804	126.912	56	46
126.806	126.914	59	55
126.915	127.026	71	59
127.026	127.241	69	66
127.03	127.702	57	45
127.03	127.702	61	54
127.132	127.702	64	59
127.241	127.702	69	66
127.348	127.563	73	58
127.461	127.702	76	66
127.563	127.702	73	60
127.678	127.786	52	46
127.678	127.785	74	66
127.681	127.79	56	46
127.681	127.789	59	55
127.79	127.901	71	59
127.905	128.136	69	75
127.906	128.136	57	52
127.906	128.136	61	63
128.378	128.664	71	64
128.381	128.664	80	75
128.382	128.664	74	64
128.385	128.664	41	52
128.385	128.664	53	63
128.878	129.221	73	64
128.879	129.221	69	64
128.881	129.221	81	75
128.882	129.221	42	52
128.882	129.221	54	63
129.875	130.11	66	39
129.879	130.11	74	47
129.88	130.803	50	40
130.1	130.218	73	43
130.103	130.219	64	36
130.338	130.579	64	39
130.338	130.579	73	47
130.565	130.684	71	42
130.566	130.684	62	35
130.806	131.048	62	39
130.81	131.048	71	47
130.811	131.832	52	40
131.041	131.163	61	34
131.041	131.167	69	41
131.3	131.559	61	39
131.301	131.559	69	47
131.545	131.685	59	34
131.546	131.689	68	41
131.833	133.039	59	37
131.835	133.039	62	45
131.835	133.039	68	54
131.836	133.039	57	39
132.378	133.039	52	39
133.008	133.575	61	35
133.012	133.576	45	35
133.012	133.575	69	42
134.149	134.359	81	47
134.36	134.467	79	43
134.58	134.782	79	47
134.783	134.891	78	42
135.003	135.213	78	51
135.213	135.321	76	45
135.433	135.64	76	55
135.641	135.755	75	50
135.868	136.07	72	62
135.868	137.576	75	62
135.871	137.576	47	44
135.871	137.576	59	44
136.071	136.179	71	55
136.291	136.494	71	61
136.494	136.602	69	53
136.714	136.924	69	58
136.925	137.033	67	49
137.145	137.355	67	58
137.356	137.464	66	44
137.577	137.793	75	47
137.796	137.894	76	43
137.999	138.213	71	43
138.0	138.213	67	36
138.214	138.43	79	43
138.43	138.646	77	47
138.651	138.752	78	43
138.857	139.074	63	36
138.86	139.074	71	43
139.075	139.287	81	43
139.288	140.141	75	57
139.288	140.141	78	57
139.29	139.49	47	69
139.49	139.598	45	62
139.718	139.917	45	67
139.92	140.029	43	59
140.141	140.568	76	51
140.145	140.348	43	61
140.145	140.569	79	51
140.349	140.46	42	52
140.571	140.778	42	51
140.778	140.893	40	45
141.006	141.208	79	47
141.209	141.314	78	43
141.422	141.625	78	47
141.628	141.737	76	42
141.845	142.049	76	51
142.052	142.16	74	45
142.269	142.479	74	55
142.482	142.591	73	50
142.707	142.909	70	68
142.707	144.418	73	62
142.708	144.419	45	44
142.708	144.419	57	44
142.91	143.022	69	60
143.13	143.337	69	67
143.34	143.448	67	58
143.557	143.768	67	63
143.77	143.879	66	53
143.988	144.197	66	63
144.198	144.31	64	48
144.421	144.639	73	47
144.639	144.736	74	43
144.841	145.056	66	36
144.842	145.056	69	43
145.059	145.272	78	43
145.272	145.492	75	47
145.493	145.598	76	43
145.696	145.909	61	36
145.696	145.909	69	43
145.913	146.122	79	43
146.126	146.974	76	57
146.127	146.974	73	57
146.129	146.33	45	69
146.33	146.437	43	62
146.55	146.752	43	67
146.753	146.861	42	59
146.974	147.4	74	51
146.976	147.403	78	51
146.977	147.183	42	61
147.183	147.292	40	52
147.404	147.61	40	51
147.614	147.722	38	45
147.838	148.048	78	47
147.839	148.191	62	47
147.943	148.157	86	44
148.048	148.191	78	48
148.051	148.191	61	42
148.157	148.265	86	44
148.268	148.621	61	53
148.268	148.478	78	51
148.374	148.588	86	47
148.478	148.621	78	52
148.479	148.621	59	46
148.588	148.695	86	47
148.696	148.909	78	55
148.699	149.055	59	58
148.801	149.018	86	50
148.909	149.055	57	50
148.909	149.055	78	57
149.018	149.126	86	51
149.126	149.343	78	58
149.129	149.572	57	60
149.231	149.455	86	55
149.343	149.572	78	60
149.344	149.571	56	52
149.455	149.572	86	55
149.571	150.457	56	66
149.571	149.794	76	64
149.572	150.457	44	56
149.679	149.907	86	57
149.794	150.015	76	63
149.907	150.123	86	57
150.015	150.236	76	63
150.123	150.341	86	57
150.236	150.453	76	63
150.341	150.457	86	57
150.453	150.666	76	63
150.456	151.32	58	61
150.457	151.321	46	51
150.561	150.774	85	57
150.666	150.887	76	62
150.774	150.998	85	57
150.887	151.101	76	60
150.998	151.212	85	55
151.101	151.267	76	59
151.212	151.321	85	52
151.323	151.531	74	47
151.324	151.674	59	47
151.425	151.642	85	44
151.531	151.674	74	48
151.532	151.674	57	42
151.642	151.751	85	44
151.751	151.961	74	51
151.752	152.104	57	53
151.856	152.073	85	47
151.961	152.104	74	52
151.962	152.104	55	46
152.073	152.182	85	47
152.182	152.389	74	55
152.183	152.538	55	58
152.286	152.5	83	50
152.389	152.538	74	57
152.391	152.538	54	50
152.5	152.608	83	51
152.611	152.826	74	58
152.612	153.054	54	60
152.713	152.934	83	55
152.826	153.054	74	60
152.829	153.053	53	52
152.934	153.054	83	55
153.049	153.162	73	64
153.053	153.928	41	56
153.053	153.928	53	66
153.162	153.378	83	57
153.274	153.487	73	63
153.378	153.596	83	57
153.487	153.7	73	63
153.596	153.813	83	57
153.7	153.925	73	63
153.813	153.928	83	57
153.925	154.8	42	51
153.925	154.142	73	63
153.927	154.8	54	61
154.033	154.247	81	57
154.142	154.358	73	62
154.247	154.467	81	57
154.358	154.579	73	60
154.467	154.684	81	55
154.579	154.8	73	59
154.684	154.796	81	52
154.796	155.226	55	41
154.796	155.24	71	41
154.796	155.24	81	51
154.898	155.114	62	36
155.002	155.223	79	47
155.006	155.24	59	41
155.114	155.24	62	35
155.223	155.667	79	51
155.226	155.667	55	41
155.328	155.549	62	36
155.432	155.667	78	46
155.433	155.667	59	41
155.549	155.667	62	35
155.664	156.115	77	40
155.664	156.115	86	51
155.667	156.102	55	41
155.769	155.982	62	36
155.874	156.098	85	47
155.877	156.115	59	41
155.982	156.115	62	35
156.098	156.533	85	51
156.102	156.533	55	41
156.203	156.42	62	36
156.311	156.533	59	41
156.311	156.533	83	46
156.42	156.533	62	35
156.529	156.98	79	59
156.529	157.398	82	59
156.532	156.96	54	45
156.633	156.855	61	39
156.739	156.959	78	52
156.742	156.98	58	45
156.855	156.98	61	38
156.959	157.398	78	59
156.96	157.398	54	45
157.068	157.282	61	39
157.173	157.398	76	51
157.175	157.398	58	45
157.282	157.398	61	38
157.397	157.83	53	45
157.397	157.844	74	61
157.397	158.264	83	61
157.498	157.719	62	39
157.604	157.828	73	51
157.606	157.844	56	45
157.719	157.844	62	38
157.828	158.264	73	61
157.83	158.264	53	45
157.932	158.149	62	39
158.041	158.264	56	45
158.041	158.264	71	55
158.149	158.264	62	38
158.258	158.488	67	39
158.261	158.488	76	47
158.262	159.146	54	40
158.479	158.586	74	43
158.481	158.59	66	36
158.702	158.936	66	39
158.706	158.936	74	47
158.922	159.038	64	35
158.922	159.034	73	42
159.147	159.377	64	39
159.147	159.377	73	47
159.15	160.07	42	40
159.367	159.489	71	41
159.37	159.49	62	34
159.609	159.843	71	47
159.612	159.843	62	39
159.833	159.952	61	34
159.836	159.952	70	41
160.071	161.148	64	45
160.073	161.148	70	54
160.074	161.148	47	39
160.074	161.148	61	37
160.567	161.148	42	39
161.118	161.617	62	35
161.12	161.618	71	42
161.121	161.621	35	35
162.118	163.123	66	57
162.118	163.133	71	68
162.119	163.122	62	57
162.121	163.133	47	54
162.121	163.133	59	65
163.122	163.622	62	51
163.123	163.623	66	51
163.126	163.626	45	49
163.126	163.623	72	61
163.127	163.627	57	58
164.12	165.149	71	39
164.123	165.149	55	38
164.123	165.149	74	46
164.124	165.149	43	32
164.869	165.149	75	40
165.142	165.674	72	39
165.143	165.678	54	38
165.143	165.677	76	46
165.146	165.681	42	32
166.752	166.962	59	42
166.752	167.179	74	60
166.854	167.064	67	34
166.962	167.179	59	34
167.064	167.179	67	34
167.178	167.609	72	56
167.179	167.28	57	42
167.281	167.494	67	36
167.389	167.609	57	36
167.494	167.609	67	36
167.607	167.715	55	42
167.607	168.055	71	55
167.715	167.936	67	37
167.823	168.055	55	37
167.936	168.055	67	37
168.054	168.411	76	60
168.055	168.495	60	42
168.156	168.38	67	36
168.267	168.495	66	36
168.377	168.495	78	54
168.38	168.495	67	36
168.411	168.492	76	54
168.453	168.495	74	54
168.492	168.6	76	60
168.495	168.603	60	42
168.604	168.709	67	36
168.709	168.816	78	56
168.71	168.817	66	36
168.82	168.932	67	36
168.933	169.152	81	60
168.936	169.152	60	36
169.038	169.152	67	38
169.143	169.37	79	54
169.145	169.37	66	38
169.254	169.37	67	38
169.36	169.583	60	40
169.36	169.583	78	56
169.468	169.583	67	36
169.574	169.801	76	54
169.576	169.801	66	36
169.69	169.801	67	36
169.797	170.032	74	60
169.801	169.912	59	44
169.913	170.032	67	44
170.033	170.14	66	33
170.141	170.259	67	33
170.259	170.693	74	49
170.26	170.466	59	37
170.361	170.577	67	30
170.466	170.693	59	30
170.577	170.693	67	30
170.684	170.784	57	37
170.684	171.12	72	49
170.788	171.001	67	32
170.897	171.12	57	32
171.001	171.12	67	32
171.11	171.562	71	48
171.113	171.218	55	37
171.221	171.446	67	33
171.337	171.562	55	33
171.446	171.562	67	33
171.561	172.002	48	37
171.561	172.003	69	56
171.67	171.886	57	32
171.772	172.003	52	32
171.884	172.003	76	43
171.886	172.003	57	32
172.002	172.45	48	37
172.002	172.45	74	49
172.11	172.45	72	48
172.111	172.332	57	32
172.216	172.45	52	32
172.216	172.45	71	48
172.331	172.45	69	48
172.332	172.45	57	32
172.44	172.873	67	52
172.443	172.866	50	32
172.544	172.759	59	34
172.653	172.873	55	34
172.759	172.873	59	34
172.866	173.322	50	36
172.866	172.923	69	45
172.923	173.031	71	40
172.975	173.084	69	46
172.976	173.199	60	32
173.031	173.322	71	41
173.084	173.238	69	46
173.087	173.322	54	32
173.161	173.318	67	39
173.199	173.322	60	32
173.238	173.322	69	39
173.318	173.78	55	39
173.318	173.78	67	54
173.42	173.644	62	34
173.528	173.777	59	29
173.644	173.78	62	29
173.777	173.878	59	42
173.777	174.204	74	60
173.882	174.095	67	34
173.983	174.204	59	34
174.095	174.204	67	34
174.201	174.302	57	42
174.201	174.637	72	56
174.305	174.519	67	36
174.414	174.637	57	36
174.519	174.637	67	36
174.627	175.079	71	55
174.631	174.735	55	42
174.74	174.967	67	37
174.851	175.079	55	37
174.967	175.079	67	37
175.078	175.442	76	60
175.079	175.52	60	42
175.18	175.404	67	36
175.289	175.52	66	36
175.401	175.52	78	54
175.404	175.52	67	36
175.442	175.52	76	54
175.478	175.52	74	54
175.52	175.625	60	42
175.52	175.624	76	60
175.628	175.729	67	36
175.733	175.849	78	56
175.734	175.849	66	36
175.85	175.956	67	36
175.957	176.178	81	60
175.96	176.178	60	36
176.063	176.178	67	38
176.171	176.387	66	38
176.171	176.387	79	54
176.272	176.387	67	38
176.381	176.6	78	56
176.384	176.6	60	40
176.486	176.6	67	36
176.594	176.826	66	36
176.594	176.826	76	54
176.709	176.826	67	36
176.825	177.045	74	60
176.826	176.94	59	44
176.941	177.049	67	44
177.052	177.165	66	33
177.165	177.28	67	33
177.283	177.709	74	49
177.284	177.49	59	37
177.385	177.595	67	30
177.49	177.709	59	30
177.595	177.709	67	30
177.7	177.808	57	37
177.7	178.138	72	49
177.808	178.024	67	32
177.92	178.138	57	32
178.024	178.138	67	32
178.137	178.585	71	48
178.138	178.245	55	37
178.246	178.466	67	33
178.353	178.585	55	33
178.466	178.585	67	33
178.582	179.026	69	56
178.584	179.025	48	37
178.686	178.904	57	32
178.795	179.026	52	32
178.903	179.026	76	43
178.904	179.026	57	32
179.025	179.473	48	37
179.025	179.473	74	49
179.134	179.473	72	48
179.135	179.351	57	32
179.239	179.473	71	48
179.24	179.473	52	32
179.348	179.473	69	48
179.351	179.473	57	32
179.464	179.897	67	52
179.467	179.89	50	32
179.569	179.782	59	34
179.669	179.897	55	34
179.782	179.897	59	34
179.887	179.939	69	45
179.89	180.339	50	36
179.94	180.055	71	40
179.998	180.108	69	46
179.999	180.22	60	32
180.055	180.339	71	41
180.108	180.258	69	46
180.111	180.339	54	32
180.184	180.335	67	39
180.22	180.339	60	32
180.258	180.339	69	39
180.335	180.439	67	59
180.338	180.755	55	44
180.338	180.751	59	52
180.44	180.541	69	53
180.544	180.646	67	59
180.646	180.755	66	52
180.755	180.856	67	59
180.857	180.961	71	54
180.961	181.07	69	59
180.962	181.07	54	40
180.964	181.073	62	48
181.073	181.181	72	53
181.182	181.598	62	52
181.182	181.283	71	59
181.185	181.599	55	44
181.286	181.392	69	53
181.392	181.493	67	59
181.496	181.601	66	52
181.601	181.7	67	59
181.701	181.808	71	54
181.809	181.916	69	59
181.81	181.92	54	39
181.812	181.921	62	47
181.923	182.029	72	53
182.029	182.133	71	59
182.03	182.445	55	43
182.032	182.448	62	51
182.134	182.235	69	53
182.236	182.344	67	59
182.344	182.449	66	52
182.449	182.55	67	59
182.551	182.655	71	54
182.655	182.759	69	59
182.659	182.76	54	39
182.659	182.76	62	46
182.763	182.868	72	53
182.872	182.974	71	59
182.873	182.974	62	50
182.875	182.977	55	42
182.977	183.079	74	53
183.082	183.184	62	46
183.082	183.183	72	59
183.083	183.187	54	39
183.188	183.289	69	52
183.289	183.397	71	59
183.29	183.401	62	46
183.292	183.401	55	39
183.401	183.509	74	54
183.51	183.618	55	46
183.51	183.618	73	59
183.512	183.621	52	39
183.621	183.73	76	53
183.73	183.834	74	59
183.734	184.15	54	42
183.734	184.146	57	50
183.835	183.933	76	53
183.933	184.034	74	59
184.038	184.15	73	52
184.15	184.244	74	59
184.248	184.349	78	54
184.349	184.461	76	59
184.353	184.462	49	42
184.353	184.464	57	50
184.465	184.57	79	53
184.57	184.675	78	59
184.573	184.99	50	44
184.573	184.985	57	52
184.678	184.779	76	53
184.78	184.885	74	59
184.886	184.993	73	52
184.993	185.094	74	59
185.095	185.203	78	54
185.204	185.315	76	59
185.207	185.315	57	50
185.208	185.315	49	42
185.319	185.423	79	53
185.424	185.522	78	59
185.428	185.836	50	45
185.428	185.836	57	54
185.522	185.627	76	53
185.63	185.731	74	59
185.732	185.837	73	52
185.84	185.938	74	59
185.942	186.046	76	54
186.047	186.148	78	64
186.048	186.151	51	45
186.048	186.152	59	54
186.155	186.26	81	58
186.26	186.365	79	64
186.261	186.673	59	56
186.264	186.674	52	47
186.366	186.463	78	58
186.464	186.568	76	64
186.568	186.674	75	57
186.676	186.778	76	64
186.779	186.887	78	59
186.887	186.991	79	64
186.89	186.992	51	45
186.89	186.992	59	53
186.996	187.1	81	58
187.103	187.205	79	69
187.104	187.52	52	51
187.107	187.52	59	60
187.205	187.31	78	67
187.311	187.415	76	65
187.416	187.521	75	62
187.524	187.625	76	64
187.626	187.73	78	65
187.731	187.839	61	55
187.731	187.839	79	67
187.733	187.842	52	46
187.842	187.943	83	60
187.944	188.048	81	67
187.947	188.36	62	62
187.948	188.364	54	52
188.049	188.15	79	60
188.154	188.259	78	67
188.259	188.364	76	59
188.367	188.458	78	67
188.462	188.569	79	61
188.57	188.682	81	67
188.573	188.683	52	48
188.574	188.683	61	57
188.685	188.791	83	60
188.791	188.895	81	67
188.794	189.204	54	52
188.794	189.204	62	62
188.896	188.993	79	66
188.994	189.099	78	65
189.099	189.204	76	64
189.207	189.312	78	67
189.316	189.424	79	61
189.424	189.533	81	67
189.425	189.535	66	54
189.536	189.644	84	60
189.645	189.75	67	62
189.645	189.746	83	67
189.753	189.855	86	57
189.855	189.956	81	62
189.856	189.96	66	56
189.96	190.058	86	57
190.058	190.156	83	67
190.061	190.156	67	61
190.157	190.26	86	56
190.261	190.365	63	53
190.261	190.362	78	62
190.366	190.467	83	56
190.467	190.572	79	67
190.471	190.576	64	62
190.576	190.677	83	57
190.678	190.775	78	62
190.68	190.775	63	56
190.779	190.88	83	57
190.884	190.981	64	64
190.884	190.978	79	67
190.982	191.083	83	58
191.083	191.18	76	62
191.087	191.181	61	56
191.184	191.286	81	57
191.289	191.384	78	67
191.29	191.388	62	66
191.389	191.488	81	57
191.489	191.59	76	62
191.493	191.591	61	57
191.591	191.689	81	57
191.689	191.79	78	67
191.69	191.794	62	66
191.794	191.898	81	57
191.899	192.004	58	57
191.899	192.0	73	62
192.005	192.105	78	57
192.105	192.203	74	67
192.109	192.204	59	66
192.206	192.304	78	59
192.305	192.41	58	57
192.305	192.406	73	61
192.41	192.512	78	58
192.512	192.612	74	67
192.515	192.613	59	63
192.613	192.711	78	59
192.711	192.813	75	62
192.712	192.816	60	57
192.714	192.816	57	57
192.82	192.917	78	59
192.918	193.019	76	67
192.92	193.313	59	64
192.921	193.316	55	53
193.019	193.117	75	61
193.117	193.214	76	65
193.215	193.316	78	60
193.317	193.418	79	70
193.418	193.515	78	60
193.516	193.617	79	65
193.617	193.719	81	60
193.722	193.83	64	50
193.722	193.842	83	59
193.723	193.831	55	42
193.831	193.946	85	60
193.932	194.051	86	61
193.935	194.037	55	34
193.935	194.037	64	40
194.041	194.149	85	64
194.142	194.254	83	65
194.146	194.243	55	34
194.146	194.24	64	40
194.243	194.352	81	66
194.349	194.446	55	34
194.349	194.458	79	66
194.35	194.447	64	40
194.447	194.555	78	65
194.548	194.66	76	63
194.551	194.65	64	50
194.552	194.65	55	42
194.651	194.758	78	64
194.748	194.853	55	34
194.748	194.852	64	40
194.748	194.863	79	67
194.853	194.961	78	70
194.951	195.052	56	34
194.951	195.059	76	68
194.952	195.056	64	40
195.056	195.164	74	67
195.154	195.259	56	34
195.154	195.259	64	40
195.154	195.269	73	65
195.26	195.367	71	64
195.36	195.472	73	67
195.364	195.56	57	48
195.461	195.57	74	67
195.56	195.675	73	57
195.561	195.773	55	42
195.665	195.777	69	57
195.774	195.874	74	66
195.776	195.874	54	42
195.973	196.075	50	42
196.182	196.298	79	66
196.183	196.383	49	52
196.284	196.397	81	56
196.385	196.494	79	56
196.386	196.589	45	46
196.49	196.599	76	56
196.589	196.698	79	66
196.59	196.687	50	46
196.687	196.795	78	57
196.788	196.904	76	57
196.791	196.89	54	46
196.89	197.008	74	57
197.002	197.198	57	53
197.002	197.11	73	68
197.096	197.208	74	56
197.198	197.31	73	55
197.199	197.4	55	46
197.303	197.411	69	55
197.401	197.498	54	47
197.401	197.498	74	68
197.604	197.708	50	47
197.81	197.922	79	68
197.813	198.017	49	56
197.912	198.023	81	56
198.017	198.213	45	49
198.017	198.125	79	56
198.114	198.227	76	58
198.213	198.321	79	73
198.216	198.317	50	50
198.318	198.429	78	58
198.415	198.531	76	58
198.416	198.521	54	50
198.521	198.637	74	61
198.622	198.723	73	79
198.626	198.83	45	50
198.626	198.829	57	60
198.629	198.83	52	50
198.724	198.832	76	63
198.832	198.927	73	63
198.927	199.031	69	63
199.032	199.235	57	60
199.032	199.13	78	74
199.035	199.235	50	51
199.036	199.238	54	51
199.131	199.238	81	64
199.239	199.34	78	64
199.34	199.448	74	64
199.452	199.546	73	77
199.453	199.652	45	51
199.453	199.654	52	51
199.453	199.651	57	61
199.55	199.655	76	59
199.658	199.752	73	60
199.753	199.861	69	60
199.861	199.96	78	77
199.865	200.058	50	52
199.865	200.057	54	52
199.866	200.06	57	62
199.96	200.061	81	64
200.064	200.169	78	64
200.169	200.275	74	64
200.275	200.354	76	84
200.278	200.355	73	69
200.484	200.558	76	60
200.485	200.561	52	45
200.485	200.559	73	60
200.485	200.558	81	74
200.488	200.561	45	45
200.488	200.561	49	45
200.489	200.565	57	55
200.683	200.768	81	74
200.688	200.769	73	60
200.688	200.769	76	60
200.69	200.771	49	45
200.69	200.769	52	45
200.691	200.772	45	45
200.691	200.772	57	55
200.894	200.97	73	60
200.894	200.971	76	60
200.897	200.975	49	45
200.897	200.974	52	45
200.897	200.971	81	74
200.901	200.975	45	45
200.901	200.975	57	55
201.097	201.538	81	74
201.098	201.541	73	60
201.1	201.542	49	49
201.1	201.541	76	60
201.101	201.544	57	58
201.104	201.545	45	49
201.104	201.545	52	49
201.546	201.59	79	41
201.593	201.695	78	42
201.696	201.797	76	40
201.797	201.899	78	40
201.899	202.013	79	40
202.018	202.276	62	30
202.018	202.276	80	45
202.231	202.441	81	42
202.234	202.441	66	23
202.442	202.654	64	30
202.655	202.865	67	27
202.655	202.865	81	40
202.865	203.071	86	46
202.866	203.071	66	32
203.068	203.27	85	42
203.071	203.271	69	26
203.271	203.477	83	44
203.272	203.477	62	29
203.48	203.695	66	26
203.48	203.694	81	42
203.695	203.917	78	48
203.697	203.917	64	34
203.908	204.107	79	42
203.911	204.107	71	28
204.108	204.324	67	32
204.328	204.534	64	28
204.328	204.533	79	40
204.538	204.738	61	34
204.538	204.737	81	45
204.74	204.943	64	29
204.74	204.939	79	42
204.944	205.15	57	30
204.944	205.149	78	45
205.15	205.367	76	42
205.153	205.367	67	28
205.368	205.577	66	34
205.368	205.577	73	48
205.574	205.777	74	44
205.577	205.78	69	28
205.78	205.979	61	30
205.98	206.197	69	28
205.98	206.196	76	45
206.197	206.41	77	50
206.2	206.41	62	34
206.399	206.602	78	46
206.403	206.603	69	26
206.603	206.801	59	29
206.752	206.806	81	42
206.808	207.019	79	47
206.809	207.019	62	26
207.022	207.87	57	34
207.022	207.765	78	51
207.236	207.656	62	27
207.446	207.876	66	30
207.653	207.876	79	44
207.656	207.876	62	27
207.765	207.876	78	42
207.869	208.086	76	47
207.87	208.303	57	33
207.87	208.3	61	33
208.087	208.198	78	42
208.303	208.412	79	44
208.513	208.629	80	47
208.745	208.968	62	34
208.745	208.968	80	45
208.966	209.168	81	42
208.968	209.169	65	27
209.169	209.392	64	30
209.389	209.591	81	40
209.39	209.591	67	27
209.592	209.833	86	46
209.595	209.833	65	32
209.801	209.896	84	42
209.802	209.899	69	26
210.005	210.211	62	29
210.005	210.105	82	44
210.211	210.316	81	42
210.214	210.32	65	26
210.424	210.67	78	48
210.425	210.67	64	34
210.638	210.841	70	28
210.638	210.837	79	42
210.842	211.057	67	32
211.062	211.265	64	28
211.062	211.107	81	40
211.108	211.163	79	37
211.164	211.208	78	37
211.208	211.265	79	37
211.266	211.478	61	34
211.266	211.478	81	45
211.471	211.572	79	42
211.472	211.572	64	29
211.673	211.779	77	45
211.677	211.877	57	30
211.877	211.989	76	42
211.88	211.989	61	28
212.097	212.324	79	45
212.098	212.324	62	34
212.315	212.514	77	42
212.317	212.517	69	27
212.517	212.741	60	30
212.739	212.945	69	27
212.739	212.945	76	40
212.948	213.182	73	46
212.952	213.182	58	32
213.152	213.35	74	42
213.154	213.351	65	26
213.353	213.561	64	29
213.561	213.774	80	46
213.564	213.777	62	26
213.777	214.68	80	49
213.781	214.652	57	33
213.998	214.432	62	22
214.212	214.68	65	28
214.432	214.68	62	24
214.649	214.866	81	42
214.65	214.87	61	31
214.652	214.87	57	24
214.87	214.977	43	45
214.873	214.981	55	53
215.079	215.192	42	48
215.083	215.195	54	57
215.303	215.412	52	61
215.304	215.415	40	51
215.517	215.948	38	55
215.517	215.947	50	65
215.517	215.628	78	46
215.629	215.737	81	44
215.737	215.842	80	47
215.843	215.948	81	43
215.95	216.045	83	50
216.045	216.151	81	47
216.151	216.262	80	53
216.154	216.263	74	49
216.263	216.371	81	53
216.371	216.476	79	62
216.374	216.476	76	55
216.477	216.577	81	53
216.581	216.682	79	55
216.584	216.683	74	49
216.686	216.787	81	52
216.791	216.885	79	64
216.792	216.888	73	58
216.888	216.989	81	51
216.991	217.103	79	55
216.993	217.103	69	48
217.106	217.207	81	49
217.208	217.633	74	54
217.208	217.322	78	56
217.323	217.431	81	49
217.434	217.528	80	51
217.532	217.634	81	47
217.637	217.735	83	54
217.735	217.836	81	47
217.84	217.952	62	49
217.84	217.948	80	51
217.953	218.053	81	53
218.053	218.158	79	59
218.057	218.159	64	55
218.159	218.267	81	50
218.27	218.365	79	55
218.271	218.368	62	48
218.368	218.474	81	52
218.474	218.575	79	62
218.475	218.578	61	54
218.579	218.68	81	49
218.68	218.785	79	55
218.683	218.785	57	47
218.786	218.897	81	49
218.898	218.998	62	52
218.898	219.313	74	41
219.002	219.111	69	35
219.111	219.208	68	42
219.209	219.313	69	38
219.317	219.419	71	47
219.419	219.523	69	39
219.524	219.625	68	44
219.524	219.625	86	57
219.628	219.73	69	40
219.73	219.834	88	63
219.734	219.838	67	47
219.839	219.94	69	39
219.941	220.045	86	58
219.943	220.045	67	41
220.046	220.149	69	39
220.15	220.248	67	49
220.15	220.248	85	63
220.249	220.353	69	39
220.353	220.461	81	58
220.354	220.462	67	44
220.464	220.566	69	39
220.57	220.997	86	60
220.571	220.682	66	39
220.682	220.793	69	38
220.794	220.892	68	41
220.893	220.997	69	37
220.998	221.101	71	40
221.102	221.2	69	37
221.201	221.309	50	57
221.201	221.312	68	44
221.312	221.413	69	40
221.414	221.525	52	63
221.417	221.526	67	47
221.529	221.631	69	42
221.631	221.735	50	58
221.632	221.736	67	44
221.736	221.833	69	39
221.834	221.935	49	60
221.834	221.935	67	49
221.938	222.04	69	43
222.044	222.145	45	58
222.044	222.146	67	47
222.149	222.257	69	39
222.257	222.691	50	60
222.258	222.691	66	41
222.695	222.901	66	35
222.695	223.128	81	50
222.797	223.01	74	29
222.901	223.128	66	29
223.01	223.128	74	29
223.119	223.219	64	35
223.119	223.555	79	47
223.219	223.437	74	30
223.332	223.555	64	30
223.437	223.555	74	30
223.548	223.657	62	35
223.548	223.997	78	46
223.657	223.882	74	31
223.766	223.997	62	31
223.882	223.997	74	31
223.993	224.357	83	50
223.997	224.443	67	35
224.102	224.32	74	30
224.206	224.444	73	30
224.319	224.444	85	45
224.32	224.444	74	30
224.357	224.442	83	45
224.4	224.444	81	45
224.442	224.543	83	50
224.443	224.546	67	35
224.546	224.648	74	30
224.648	224.763	85	47
224.651	224.764	73	30
224.766	224.875	74	30
224.875	225.102	88	50
224.876	225.102	67	30
224.98	225.102	74	32
225.093	225.308	73	32
225.093	225.308	86	45
225.195	225.308	74	32
225.299	225.523	85	47
225.3	225.523	67	34
225.408	225.523	74	30
225.516	225.748	73	30
225.516	225.748	83	45
225.631	225.748	74	30
225.747	225.859	66	37
225.747	225.97	81	50
225.862	225.974	74	37
225.974	226.086	73	28
226.089	226.205	74	28
226.205	226.631	81	60
226.206	226.416	66	45
226.303	226.52	74	37
226.416	226.631	66	37
226.52	226.631	74	37
226.622	227.062	79	60
226.625	226.73	64	45
226.733	226.947	74	39
226.835	227.062	64	39
226.947	227.062	74	39
227.053	227.504	78	59
227.055	227.161	62	45
227.164	227.389	74	40
227.28	227.504	62	40
227.389	227.504	74	40
227.5	227.95	76	68
227.501	227.949	55	45
227.609	227.827	64	39
227.721	227.95	59	39
227.826	227.95	83	53
227.827	227.95	64	39
227.949	228.392	55	45
227.949	228.392	81	60
228.05	228.392	79	58
228.053	228.273	64	39
228.162	228.392	78	58
228.165	228.392	59	39
228.271	228.392	76	58
228.273	228.392	64	39
228.383	228.814	74	63
228.385	228.813	57	39
228.491	228.707	66	41
228.596	228.814	62	41
228.707	228.814	66	41
228.813	229.261	57	44
228.813	228.861	76	55
228.862	228.974	78	49
228.924	229.034	76	56
228.925	229.142	67	39
228.974	229.261	78	50
229.034	229.184	76	56
229.035	229.261	61	39
229.103	229.26	74	48
229.142	229.261	67	39
229.184	229.261	76	48
229.26	229.471	74	66
229.261	229.362	62	48
229.363	229.474	69	42
229.474	229.582	66	36
229.583	229.715	69	36
229.716	230.153	69	50
229.719	229.93	54	35
229.821	230.037	62	29
229.93	230.153	54	29
230.037	230.153	62	29
230.143	230.251	52	35
230.143	230.58	67	47
230.252	230.458	62	30
230.356	230.58	52	30
230.458	230.58	62	30
230.57	231.021	66	46
230.574	230.678	50	35
230.681	230.906	62	31
230.797	231.021	50	31
230.906	231.021	62	31
231.017	231.382	71	50
231.021	231.466	55	35
231.126	231.344	62	30
231.232	231.469	61	30
231.344	231.469	62	30
231.344	231.469	73	45
231.382	231.466	71	45
231.424	231.469	69	45
231.466	231.568	55	35
231.466	231.567	71	50
231.57	231.679	62	30
231.679	231.787	73	47
231.68	231.788	61	30
231.79	231.896	62	30
231.899	232.123	76	50
231.903	232.123	55	30
232.012	232.123	62	32
232.117	232.334	61	32
232.117	232.334	74	45
232.219	232.334	62	32
232.33	232.547	73	47
232.331	232.547	55	34
232.432	232.547	62	30
232.54	232.775	71	45
232.541	232.775	61	30
232.656	232.775	62	30
232.771	232.995	69	50
232.772	232.886	54	37
232.887	232.995	62	37
232.999	233.11	61	28
233.114	233.222	62	28
233.223	233.657	69	56
233.223	233.657	81	66
233.226	233.436	42	49
233.331	233.542	50	40
233.436	233.657	42	40
233.542	233.657	50	40
233.65	234.087	67	56
233.65	234.087	79	66
233.651	233.754	40	49
233.758	233.972	50	42
233.86	234.087	40	42
233.972	234.087	50	42
234.078	234.535	66	55
234.08	234.185	38	49
234.08	234.535	78	64
234.186	234.413	50	44
234.301	234.535	38	44
234.413	234.535	50	44
234.531	234.974	64	57
234.532	234.974	43	49
234.532	234.974	76	70
234.633	234.851	52	42
234.742	234.974	47	42
234.851	234.974	52	42
234.851	234.974	83	58
234.973	235.417	81	66
234.974	235.417	43	49
235.075	235.417	79	63
235.077	235.299	52	42
235.186	235.417	78	63
235.189	235.417	47	42
235.298	235.417	76	63
235.299	235.417	52	42
235.406	235.838	74	69
235.407	235.837	45	42
235.516	235.726	54	45
235.62	235.838	50	45
235.726	235.838	54	45
235.834	235.886	76	60
235.837	236.289	45	48
235.89	235.995	78	53
235.947	236.057	76	61
235.949	236.167	55	42
235.995	236.289	78	55
236.057	236.208	76	61
236.058	236.289	49	42
236.132	236.285	74	52
236.167	236.289	55	42
236.208	236.289	76	52
236.283	236.705	69	62
236.285	236.708	66	62
236.285	236.706	74	74
236.286	236.709	38	59
236.286	236.709	50	70
236.289	236.71	45	59
237.128	237.241	79	66
237.129	237.535	62	37
237.132	237.535	66	45
237.227	237.338	78	55
237.332	237.44	76	54
237.429	237.542	78	54
237.538	237.957	64	37
237.538	237.647	81	65
237.539	237.961	67	45
237.633	237.748	79	55
237.737	237.853	78	55
237.85	237.965	79	55
237.962	238.361	69	45
237.962	238.36	81	62
237.963	238.361	66	37
238.766	238.816	81	50
238.969	239.022	83	45
239.173	239.225	85	45
239.375	239.428	86	45
239.586	240.39	54	38
239.586	240.388	81	54
239.782	240.188	62	32
239.988	240.39	78	45
239.989	240.39	50	38
240.188	240.39	62	33
240.388	240.489	81	50
240.39	240.586	52	37
240.489	240.587	79	44
240.591	240.688	78	44
240.593	240.79	62	32
240.689	240.793	79	44
240.794	240.842	81	49
240.797	240.846	57	37
240.996	241.048	79	46
240.997	241.049	61	30
241.21	241.616	50	42
241.21	241.615	62	42
241.21	241.42	77	54
241.421	241.619	78	45
242.018	242.134	79	66
242.019	242.12	62	37
242.019	242.123	66	45
242.123	242.231	78	55
242.217	242.336	76	54
242.222	242.322	62	31
242.222	242.322	66	38
242.326	242.435	78	54
242.424	242.525	64	37
242.424	242.532	81	65
242.425	242.53	67	45
242.53	242.637	79	55
242.623	242.746	78	55
242.627	242.736	67	38
242.628	242.736	64	31
242.739	242.858	79	55
242.847	243.253	81	62
242.848	243.254	66	37
242.848	243.254	69	45
243.66	243.712	81	50
243.862	243.908	83	45
244.066	244.115	85	45
244.261	244.314	86	45
244.471	245.281	81	54
244.476	245.284	54	38
244.675	245.077	62	32
244.881	245.284	78	45
244.882	245.284	50	38
245.077	245.284	62	33
245.281	245.483	52	37
245.281	245.378	81	50
245.378	245.484	79	44
245.484	245.581	78	44
245.487	245.679	62	32
245.582	245.679	79	44
245.68	245.784	81	50
245.683	245.882	57	37
245.785	245.885	79	44
245.885	245.987	78	44
245.886	246.092	61	32
245.988	246.093	76	44
246.093	246.193	74	45
246.095	246.197	54	47
246.2	246.295	76	46
246.201	246.295	62	39
246.296	246.4	78	48
246.299	246.4	57	39
246.401	246.498	79	49
246.403	246.501	62	39
246.502	246.604	54	48
246.502	246.603	81	50
246.604	246.701	83	51
246.607	246.701	62	40
246.702	246.8	85	53
246.705	246.803	57	40
246.803	246.908	86	54
246.804	246.911	62	40
246.912	247.734	86	58
246.915	247.321	55	48
247.016	247.213	62	40
247.115	247.521	59	40
247.213	247.416	62	40
247.318	247.734	83	49
247.321	247.734	55	49
247.416	247.622	62	40
247.521	247.734	59	40
247.618	247.734	79	54
247.622	247.734	62	40
247.731	248.546	78	59
247.734	247.828	57	47
247.829	248.025	66	38
247.926	248.33	62	38
248.025	248.228	66	38
248.13	248.546	81	54
248.132	248.539	57	48
248.228	248.427	66	40
248.33	248.546	62	40
248.427	248.546	66	40
248.427	248.546	74	54
248.536	249.348	76	59
248.539	248.941	57	48
248.637	248.837	67	39
248.735	249.134	64	39
248.837	249.036	67	39
248.938	249.348	79	54
248.941	249.348	57	49
249.036	249.242	67	40
249.134	249.348	64	40
249.239	249.348	73	54
249.242	249.348	67	40
249.344	249.445	74	53
249.345	249.449	54	47
249.449	249.55	76	53
249.452	249.551	62	39
249.554	249.655	78	54
249.555	249.659	57	41
249.659	249.76	79	55
249.66	249.761	62	42
249.763	249.865	81	56
249.764	249.866	54	48
249.866	249.963	83	56
249.869	249.963	62	41
249.964	250.061	85	57
249.967	250.065	57	42
250.065	250.173	86	60
250.066	250.173	62	44
250.174	250.282	88	63
250.177	250.285	55	52
250.285	250.379	86	55
250.288	250.383	62	43
250.384	250.481	59	43
250.384	250.481	85	55
250.482	250.586	86	55
250.485	250.586	62	43
250.586	250.684	85	63
250.59	250.685	55	49
250.685	250.782	83	51
250.687	250.783	62	40
250.786	250.887	81	54
250.787	250.887	59	40
250.888	250.992	79	54
250.891	250.993	62	40
250.993	251.1	78	61
250.995	251.101	57	47
251.101	251.199	79	51
251.104	251.199	66	37
251.202	251.301	62	37
251.202	251.301	80	54
251.301	251.401	81	54
251.302	251.405	66	37
251.406	251.503	57	48
251.406	251.5	79	58
251.503	251.609	78	51
251.507	251.609	66	39
251.609	251.706	76	54
251.61	251.707	62	39
251.707	251.815	74	50
251.709	251.815	66	39
251.816	251.917	75	59
251.818	251.917	57	47
251.918	252.021	67	37
251.918	252.017	76	51
252.022	252.119	64	37
252.022	252.116	78	54
252.119	252.221	79	54
252.12	252.221	67	37
252.224	252.323	57	48
252.224	252.322	78	57
252.323	252.42	76	53
252.324	252.421	67	38
252.421	252.521	74	56
252.424	252.525	64	38
252.525	252.633	73	54
252.526	252.638	67	38
252.638	253.291	62	45
252.638	252.851	74	66
252.639	253.291	66	54
252.74	253.291	69	59
252.851	253.291	74	66
252.953	253.169	78	58
253.068	253.291	81	66
253.169	253.291	78	60
253.275	253.39	79	66
253.276	253.391	57	46
253.278	253.391	64	55
253.391	253.498	76	59
253.498	253.715	74	66
253.502	254.177	62	45
253.502	254.177	66	54
253.611	254.177	69	59
253.715	254.177	74	66
253.824	254.041	78	58
253.933	254.177	81	66
254.041	254.177	78	60
254.149	254.264	79	66
254.15	254.265	57	46
254.153	254.265	64	55
254.269	254.373	76	59
254.377	254.611	74	75
254.378	254.614	66	63
254.38	254.618	62	52
254.85	255.14	85	75
254.853	255.14	76	64
254.853	255.14	79	64
254.856	255.14	46	52
254.856	255.14	58	63
255.357	255.7	78	64
255.358	255.7	74	64
255.358	255.7	86	75
255.36	255.7	47	52
255.36	255.7	59	63
256.354	256.585	79	47
256.355	256.585	71	39
256.358	257.285	43	40
256.358	257.286	55	40
256.575	256.69	69	36
256.579	256.69	78	43
256.812	257.051	69	39
256.813	257.051	78	47
257.044	257.163	67	35
257.044	257.162	76	42
257.286	257.526	76	47
257.287	257.526	67	39
257.289	258.307	45	40
257.29	258.307	57	40
257.519	257.642	74	41
257.52	257.642	66	34
257.771	258.038	66	39
257.772	258.038	74	47
258.024	258.167	64	34
258.024	258.168	73	41
258.308	259.518	67	45
258.308	259.518	73	54
258.311	259.518	50	39
258.311	259.518	64	37
258.853	259.518	45	39
259.483	260.053	66	35
259.484	260.054	38	35
259.484	260.054	74	42
