OnsetTime	OffsetTime	MidiPitch	Velocity
0.500004	1.56988	61	64
0.566376	1.56195	64	64
0.632747	1.56988	45	59
0.632747	1.56988	57	70
0.632747	1.56988	69	76
1.56195	2.04846	40	53
1.56195	2.04846	52	63
1.56195	2.04846	64	70
2.03813	2.52662	49	48
2.03813	2.52662	61	57
2.03813	2.52662	73	72
2.28606	2.52662	74	74
2.40234	2.52662	71	70
2.51861	2.77261	45	45
2.51861	2.77261	57	53
2.51861	2.77261	69	70
3.47861	3.97062	73	50
3.71862	3.97062	74	52
3.83862	3.97062	71	46
3.95862	4.83141	69	49
4.45073	4.83141	57	40
4.45073	4.83141	66	40
4.45073	4.83141	85	57
4.93284	5.40529	59	40
4.93284	5.40529	69	40
4.93284	5.40529	75	50
5.40529	6.35017	64	40
5.40529	6.35017	68	40
5.40529	6.35017	76	52
6.11395	6.35017	77	51
6.35017	6.58274	80	57
6.58274	6.81896	78	56
6.81896	7.04972	76	54
7.04972	7.28409	74	53
7.28409	7.51486	73	52
7.51486	7.76076	71	51
7.76076	8.23889	52	39
7.76076	8.23889	69	51
7.99698	8.23889	62	33
7.99698	8.23889	68	46
8.23321	8.69125	59	33
8.23321	8.70109	76	53
8.46048	8.70109	62	28
8.46048	8.70109	74	51
8.69125	9.17256	59	31
8.92747	9.17256	62	29
9.16369	9.64276	52	40
9.16369	9.64276	71	57
9.39991	9.64276	61	34
9.39991	9.64276	69	53
9.63614	10.096	57	34
9.63614	10.1047	78	57
9.8634	10.1047	61	30
9.8634	10.1047	76	56
10.096	10.5706	57	32
10.3285	10.5706	61	28
10.5647	11.0331	50	42
10.5647	11.0331	76	63
10.7991	11.0331	59	36
10.7991	11.0331	74	59
11.0264	11.4898	54	36
11.0264	11.4956	79	62
11.2554	11.4956	59	34
11.2554	11.4956	78	59
11.4898	11.9634	54	36
11.7241	11.9634	59	34
11.9585	12.467	50	39
11.9585	12.467	66	51
12.4273	12.6545	76	53
12.6545	12.8853	74	51
12.8853	13.1143	73	51
13.1143	13.3524	71	49
13.3524	13.8301	52	33
13.3524	13.8301	62	39
13.3524	13.8212	69	51
13.5868	13.8301	68	48
13.8212	14.3112	57	33
13.8212	14.3112	61	39
13.8212	14.3112	69	51
14.595	14.6545	71	68
14.6545	14.714	76	71
14.714	14.7735	80	74
14.7735	15.7178	52	60
14.7735	16.1798	83	77
15.0079	15.4766	56	52
15.2423	15.7178	59	56
15.4766	15.7178	56	52
15.711	15.9454	54	56
15.9454	16.1798	52	51
16.1798	16.6509	51	60
16.1798	16.6509	83	73
16.2952	16.6509	81	72
16.4105	16.6509	52	50
16.4105	16.6509	80	71
16.5259	16.6413	78	70
16.6413	17.1126	54	50
16.6413	17.1126	78	72
16.7567	17.1126	76	71
16.8721	17.1126	47	51
16.8721	17.1126	75	69
16.9875	17.1126	73	68
17.1029	17.6296	49	54
17.1029	17.6296	71	70
17.2201	17.4563	69	67
17.3372	17.6296	51	51
17.3372	17.5753	68	67
17.4563	17.6296	69	67
17.5753	18.0499	52	60
17.5753	17.6916	68	67
17.6916	18.0499	71	69
17.8079	18.0499	56	52
17.8079	18.0499	76	70
17.9242	18.0499	80	72
18.0404	18.2677	59	52
18.0404	18.9565	83	73
18.2677	18.495	56	52
18.495	18.7258	54	55
18.7258	18.9565	52	52
18.9565	19.4277	51	60
18.9565	19.4277	83	73
19.0719	19.4277	81	72
19.1873	19.4277	52	50
19.1873	19.4277	80	71
19.3027	19.4181	78	70
19.4181	19.8894	54	50
19.4181	19.8894	78	72
19.5335	19.8894	76	71
19.6489	19.8894	47	51
19.6489	19.8894	75	69
19.7642	19.8894	73	68
19.8796	20.4064	49	54
19.8796	20.4064	71	70
19.9968	20.2331	69	67
20.114	20.4064	51	51
20.114	20.3521	68	67
20.2331	20.4064	69	67
20.3521	20.8231	52	60
20.3521	20.4684	68	67
20.4684	20.8231	71	64
20.5847	20.807	69	70
20.6992	20.8231	68	64
20.807	21.2759	69	68
20.9273	21.2759	71	68
21.0409	21.2759	73	69
21.1546	21.2759	75	70
21.2682	21.7376	76	70
21.3836	21.7376	78	71
21.499	21.7376	80	72
21.6144	21.7376	81	72
21.7291	22.1884	83	73
21.8427	22.1884	85	74
21.9555	22.1792	87	74
22.0677	22.1884	88	75
22.1792	22.6321	87	72
22.2903	22.6321	85	70
22.4014	22.6321	83	68
22.5125	22.6321	81	65
22.623	23.084	80	63
22.7334	23.084	78	61
22.8456	23.084	76	59
22.9599	23.084	75	57
23.0753	23.5404	57	38
23.0753	23.5404	66	45
23.0753	23.3078	73	50
23.4241	23.5404	85	50
23.5404	24.5837	59	33
23.5404	24.0544	68	39
23.5404	24.0544	76	54
23.9703	24.0544	80	50
24.0431	24.5837	69	39
24.0431	24.5837	75	53
24.0431	24.5837	78	53
24.5837	25.1242	64	35
24.5837	25.1242	68	42
24.5837	25.1242	76	51
25.0938	25.6344	52	35
26.2053	27.2752	61	64
26.2717	27.2672	64	64
26.338	27.2752	45	59
26.338	27.2752	57	70
26.338	27.2752	69	76
27.2672	27.7538	40	53
27.2672	27.7538	52	63
27.2672	27.7538	64	70
27.7434	28.2319	49	48
27.7434	28.2319	61	57
27.7434	28.2319	73	72
27.9914	28.2319	74	74
28.1076	28.2319	71	70
28.2239	28.4779	45	45
28.2239	28.4779	57	53
28.2239	28.4779	69	70
29.1839	29.6759	73	50
29.4239	29.6759	74	52
29.5439	29.6759	71	46
29.6639	30.5367	69	49
30.156	30.5367	57	40
30.156	30.5367	66	40
30.156	30.5367	85	57
30.6381	31.1106	59	40
30.6381	31.1106	69	40
30.6381	31.1106	75	50
31.1106	32.0555	64	40
31.1106	32.0555	68	40
31.1106	32.0555	76	52
31.8193	32.0555	77	51
32.0555	32.2862	80	57
32.2862	32.5225	78	56
32.5225	32.755	76	54
32.755	32.9912	74	53
32.9912	33.2256	73	52
33.2256	33.4715	71	51
33.4715	33.9497	52	39
33.4715	33.9497	69	51
33.7077	33.9497	62	33
33.7077	33.9497	68	46
33.944	34.402	59	33
33.944	34.4119	76	53
34.1712	34.4119	62	28
34.1712	34.4119	74	51
34.402	34.8833	59	31
34.6382	34.8833	62	29
34.8745	35.3535	52	40
34.8745	35.3535	71	57
35.1107	35.3535	61	34
35.1107	35.3535	69	53
35.3469	35.8067	57	34
35.3469	35.8154	78	57
35.5742	35.8154	61	30
35.5742	35.8154	76	56
35.8067	36.2814	57	32
36.0393	36.2814	61	28
36.2755	36.7455	50	42
36.2755	36.7455	76	63
36.5099	36.7455	59	36
36.5099	36.7455	74	59
36.7389	37.2022	54	36
36.7389	37.2081	79	62
36.9679	37.2081	59	34
36.9679	37.2081	78	59
37.2022	37.6759	54	36
37.4366	37.6759	59	34
37.671	38.1795	50	39
37.671	38.1795	66	51
38.1397	38.367	76	53
38.367	38.5978	74	51
38.5978	38.8251	73	51
38.8251	39.0632	71	49
39.0632	39.5409	52	33
39.0632	39.5409	62	39
39.0632	39.5319	69	51
39.2976	39.5409	68	48
39.5319	40.022	57	33
39.5319	40.022	61	39
39.5319	40.022	69	51
40.3057	40.3652	71	68
40.3652	40.4248	76	71
40.4248	40.4843	80	74
40.4843	41.4286	52	60
40.4843	41.8905	83	77
40.7187	41.1874	56	52
40.953	41.4286	59	56
41.1874	41.4286	56	52
41.4218	41.6562	54	56
41.6562	41.8905	52	51
41.8905	42.3617	51	60
41.8905	42.3617	83	73
42.0059	42.3617	81	72
42.1213	42.3617	52	50
42.1213	42.3617	80	71
42.2367	42.3521	78	70
42.3521	42.8234	54	50
42.3521	42.8234	78	72
42.4675	42.8234	76	71
42.5829	42.8234	47	51
42.5829	42.8234	75	69
42.6982	42.8234	73	68
42.8136	43.3404	49	54
42.8136	43.3404	71	70
42.9308	43.1671	69	67
43.048	43.3404	51	51
43.048	43.2861	68	67
43.1671	43.3404	69	67
43.2861	43.7607	52	60
43.2861	43.4024	68	67
43.4024	43.7607	71	69
43.5187	43.7607	56	52
43.5187	43.7607	76	70
43.6349	43.7607	80	72
43.7512	43.9785	59	52
43.7512	44.6673	83	73
43.9785	44.2058	56	52
44.2058	44.4365	54	55
44.4365	44.6673	52	52
44.6673	45.1385	51	60
44.6673	45.1385	83	73
44.7827	45.1385	81	72
44.8981	45.1385	52	50
44.8981	45.1385	80	71
45.0135	45.1288	78	70
45.1288	45.6002	54	50
45.1288	45.6002	78	72
45.2442	45.6002	76	71
45.3596	45.6002	47	51
45.3596	45.6002	75	69
45.475	45.6002	73	68
45.5904	46.1171	49	54
45.5904	46.1171	71	70
45.7076	45.9438	69	67
45.8248	46.1171	51	51
45.8248	46.0629	68	67
45.9438	46.1171	69	67
46.0629	46.5374	52	60
46.0629	46.1791	68	67
46.1791	46.5374	71	64
46.2954	46.5212	69	70
46.4117	46.5374	68	64
46.5212	46.9902	69	68
46.6416	46.9902	71	68
46.7552	46.9902	73	69
46.8689	46.9902	75	70
46.9825	47.4519	76	70
47.0979	47.4519	78	71
47.2133	47.4519	80	72
47.3287	47.4519	81	72
47.4434	47.9027	83	73
47.557	47.9027	85	74
47.6699	47.8935	87	74
47.782	47.9027	88	75
47.8935	48.3464	87	72
48.0046	48.3464	85	70
48.1157	48.3464	83	68
48.2268	48.3464	81	65
48.3373	48.7983	80	63
48.4477	48.7983	78	61
48.56	48.7983	76	59
48.6742	48.7983	75	57
48.7896	49.2547	57	38
48.7896	49.2547	66	45
48.7896	49.0221	73	50
49.1384	49.2547	85	50
49.2547	50.298	59	33
49.2547	49.7687	68	39
49.2547	49.7687	76	54
49.6846	49.7687	80	50
49.7575	50.298	69	39
49.7575	50.298	75	53
49.7575	50.298	78	53
50.298	50.8385	64	35
50.298	50.8385	68	42
50.298	50.8385	76	51
50.8081	51.3487	52	35
51.8521	52.3422	64	61
51.9196	52.3422	76	74
52.3363	52.8174	66	61
52.3958	52.8174	78	70
52.8125	53.352	67	61
52.872	53.352	79	70
53.352	53.8369	54	47
53.352	53.8369	71	56
53.5901	53.8369	61	39
53.8282	54.3002	66	39
53.8282	54.3002	70	52
54.0608	54.3002	64	39
54.2934	54.7795	62	39
54.5277	54.7795	61	39
54.6487	54.7795	70	51
54.7697	55.2488	54	47
54.7697	55.2488	73	57
55.0059	55.2488	62	42
55.2421	55.7125	66	42
55.2421	55.7125	71	56
55.4729	55.7125	62	42
55.7036	56.1867	61	42
55.9399	56.1867	59	42
56.058	56.1867	71	63
56.1761	56.651	54	56
56.1761	56.651	74	66
56.4068	56.651	58	47
56.6412	57.1197	64	47
56.6412	57.1197	73	60
56.8756	57.1197	61	47
57.11	57.5787	59	47
57.3443	57.5787	58	47
57.4615	57.5787	73	68
57.5787	58.0552	59	57
57.5787	58.0552	76	72
57.8095	58.0552	74	68
58.0476	58.515	77	72
58.2749	58.515	76	67
58.5111	58.9799	79	70
58.7436	58.9799	77	66
58.9799	59.461	52	47
58.9799	59.461	69	56
59.2161	59.461	59	39
59.4523	59.9243	64	39
59.4523	59.9243	68	52
59.6849	59.9243	62	39
59.9174	60.4036	60	39
60.1518	60.4036	59	39
60.2728	60.4036	68	51
60.3937	60.8729	52	47
60.3937	60.8729	71	57
60.63	60.8729	60	42
60.8662	61.3366	64	42
60.8662	61.3366	69	56
61.097	61.3366	60	42
61.3277	61.8108	59	42
61.5639	61.8108	57	42
61.682	61.8108	69	63
61.8002	62.2788	52	56
61.8002	62.2788	72	66
62.0327	62.2788	56	47
62.2689	62.7512	62	47
62.2689	62.7512	71	60
62.5052	62.7512	59	47
62.7414	63.2138	57	47
62.9776	63.2138	56	47
63.0957	63.2138	71	68
63.2138	64.1536	57	57
63.2138	63.6904	74	72
63.4446	63.6904	72	68
63.6827	64.1536	71	72
63.9135	64.1536	69	67
64.1497	64.6185	43	69
64.1497	64.6185	55	69
64.1497	64.3823	81	73
64.3823	64.5624	81	70
64.6185	65.561	41	72
64.6185	65.561	53	72
64.6185	65.561	83	78
64.8547	65.561	81	78
65.0909	65.561	79	77
65.3235	65.561	77	75
65.556	65.7923	76	79
65.7923	66.0423	75	75
66.0423	67.4676	54	61
66.0423	66.511	57	61
66.0423	66.9889	84	81
66.2767	66.9889	56	42
66.511	66.9889	57	46
66.7454	66.9889	60	41
66.9798	67.4676	59	46
66.9798	67.4676	75	55
67.2237	67.4676	57	41
67.4676	67.9363	52	57
67.4676	67.9363	56	57
67.4676	68.1707	76	55
68.1707	68.2917	78	57
68.2917	68.4126	76	46
68.4126	68.5336	76	55
68.5336	68.6546	74	53
68.6546	68.7755	73	52
68.7755	68.906	71	51
68.906	69.9759	61	64
68.9724	69.9679	64	64
69.0387	69.9759	45	59
69.0387	69.9759	57	70
69.0387	69.9759	69	76
69.9679	70.4544	40	53
69.9679	70.4544	52	63
69.9679	70.4544	64	70
70.4441	70.9326	49	48
70.4441	70.9326	61	57
70.4441	70.9326	73	72
70.692	70.9326	74	74
70.8083	70.9326	71	70
70.9246	71.1786	45	45
70.9246	71.1786	57	53
70.9246	71.1786	69	70
71.8846	72.3766	73	50
72.1246	72.3766	74	52
72.2446	72.3766	71	46
72.3646	73.2374	69	49
72.8567	73.2374	57	40
72.8567	73.2374	66	40
72.8567	73.2374	85	57
73.3388	73.8113	59	40
73.3388	73.8113	69	40
73.3388	73.8113	75	50
73.8113	74.7562	64	40
73.8113	74.7562	68	40
73.8113	74.7562	76	52
74.5199	74.7562	77	51
74.7562	74.9852	80	57
74.9852	75.2214	78	56
75.2214	75.4521	76	54
75.4521	75.6884	74	53
75.6884	75.9209	73	52
75.9209	76.1668	71	51
76.1668	76.6395	52	39
76.1668	76.6395	69	51
76.4031	76.6395	62	33
76.4031	76.6395	68	46
76.6338	77.0919	59	33
76.6338	77.1017	76	53
76.8611	77.1017	62	28
76.8611	77.1017	74	51
77.0919	77.5732	59	31
77.3281	77.5732	62	29
77.5643	78.0397	52	40
77.5643	78.0397	71	57
77.8005	78.0397	61	34
77.8005	78.0397	69	53
78.0331	78.4929	57	34
78.0331	78.5016	78	57
78.2604	78.5016	61	30
78.2604	78.5016	76	56
78.4929	78.9675	57	32
78.7255	78.9675	61	28
78.9617	79.4466	52	42
78.9617	79.4466	71	63
79.1961	79.4466	61	36
79.1961	79.4466	69	59
79.44	79.9033	57	36
79.44	79.9092	81	62
79.669	79.9092	61	34
79.669	79.9092	79	59
79.9033	80.3721	57	36
80.1377	80.3721	61	34
80.3721	80.8409	50	28
80.3721	80.8409	57	28
80.3721	80.8409	62	34
80.3721	80.6046	79	55
80.6046	80.8409	78	52
80.8409	81.0771	76	51
81.0771	81.3133	74	50
81.3133	81.5495	73	49
81.5495	81.7954	71	47
81.7954	82.1509	49	40
81.7954	81.9184	76	49
81.9184	81.9765	78	45
81.9765	82.0347	76	45
82.0347	82.0928	74	45
82.0928	82.1509	76	45
82.1509	82.2885	50	33
82.1509	82.2885	78	52
82.2885	83.2598	52	38
82.2885	82.7764	61	38
82.2885	82.7764	69	51
82.7764	83.2598	59	32
82.7764	83.2598	68	48
83.1408	83.2003	69	66
83.2003	83.2598	73	67
83.2598	84.1987	57	54
83.2598	83.7232	76	67
83.4888	83.9575	61	46
83.7232	84.1987	64	50
83.7232	84.657	76	69
83.9575	84.1987	61	46
84.1919	84.4245	59	50
84.4245	84.657	57	45
84.657	85.1282	56	54
84.657	85.1282	76	65
84.7724	85.1282	74	64
84.8878	85.1282	57	45
84.8878	85.1282	73	63
85.0032	85.1186	71	63
85.1186	85.5899	59	45
85.1186	85.5899	71	64
85.234	85.5899	69	63
85.3494	85.5899	52	45
85.3494	85.5899	68	62
85.4648	85.5899	66	61
85.5801	86.1069	54	48
85.5801	86.1069	64	63
85.6973	85.9336	62	60
85.8145	86.1069	56	45
85.8145	86.0526	61	60
85.9336	86.1069	62	60
86.0526	86.5272	57	54
86.0526	86.1689	61	60
86.1689	86.5177	64	62
86.2852	86.5272	61	46
86.2852	86.5272	69	63
86.4014	86.5272	73	64
86.5177	86.745	64	46
86.5177	87.203	76	65
86.745	86.9723	61	46
86.9723	87.203	59	49
87.203	87.4338	57	46
87.203	87.4338	88	65
87.4338	87.905	56	52
87.4338	87.905	88	70
87.5492	87.905	86	70
87.6646	87.905	57	44
87.6646	87.905	85	69
87.78	87.8953	83	69
87.8953	88.3667	59	51
87.8953	88.3667	83	68
88.0107	88.3667	81	67
88.1261	88.3667	52	44
88.1261	88.3667	80	67
88.2415	88.3667	78	66
88.3569	88.8836	54	50
88.3569	88.8836	76	66
88.4741	88.7103	74	65
88.5913	88.8836	56	46
88.5913	88.8294	73	65
88.7103	88.8836	74	64
88.8294	89.2927	57	51
88.8294	88.9456	73	63
88.9456	89.3022	76	64
89.0619	89.2927	74	60
89.1773	89.3022	73	61
89.2927	89.7472	54	40
89.2927	89.7472	57	48
89.2927	89.7549	74	62
89.4063	89.7549	76	63
89.52	89.7549	78	64
89.6336	89.7549	80	66
89.7472	90.2167	50	44
89.7472	90.2167	54	44
89.7472	90.2081	57	52
89.7472	90.2167	81	67
89.8626	90.2167	83	68
89.978	90.2167	85	70
90.0934	90.2167	86	71
90.2081	90.6675	49	47
90.2081	90.6675	52	47
90.2081	90.6675	57	56
90.2081	90.6675	88	72
90.3218	90.6675	86	71
90.4346	90.6675	85	69
90.5467	90.6675	83	68
90.6582	91.1112	81	66
90.7693	91.1112	80	65
90.8804	91.1112	78	63
90.9915	91.1112	76	62
91.1021	91.5846	74	60
91.2125	91.5846	73	59
91.3247	91.5846	71	57
91.4389	91.5846	69	56
91.5753	92.0818	50	38
91.5753	92.0818	59	45
91.5753	91.6993	80	59
91.6373	91.7612	78	55
91.6993	91.9472	80	59
91.7612	91.8852	78	55
91.8232	92.0818	76	59
91.8852	92.0818	78	55
91.9472	92.0818	80	55
92.0092	92.0818	81	55
92.0712	93.1066	52	33
92.0712	92.6088	61	39
92.0712	92.6088	69	59
92.5253	92.6088	73	50
92.5982	93.1066	62	39
92.5982	93.1066	68	53
92.5982	93.1066	71	53
93.1066	93.6571	57	35
93.1066	93.6571	61	42
93.1066	93.6571	69	51
93.6571	94.2076	45	35
94.6892	95.1794	64	61
94.7568	95.1794	76	74
95.1734	95.648	66	61
95.233	95.648	78	70
95.6431	96.1838	67	61
95.7017	96.1838	79	70
96.1838	96.665	54	47
96.1838	96.665	71	56
96.4201	96.665	61	39
96.6563	97.1282	66	39
96.6563	97.1282	70	52
96.8888	97.1282	64	39
97.1214	97.6076	62	39
97.3558	97.6076	61	39
97.4767	97.6076	70	51
97.5977	98.0769	54	47
97.5977	98.0769	73	57
97.8339	98.0769	62	42
98.0702	98.5405	66	42
98.0702	98.5405	71	56
98.3009	98.5405	62	42
98.5317	99.0146	61	42
98.7679	99.0146	59	42
98.886	99.0146	71	63
99.0041	99.4792	54	56
99.0041	99.4792	74	66
99.2331	99.4792	58	47
99.4694	99.9517	64	47
99.4694	99.9517	73	60
99.7056	99.9517	61	47
99.9418	100.414	59	47
100.178	100.414	58	47
100.296	100.414	73	68
100.414	100.887	59	57
100.414	100.887	76	72
100.642	100.887	74	68
100.88	101.351	77	72
101.11	101.351	76	67
101.347	101.815	79	70
101.579	101.815	77	66
101.815	102.291	52	47
101.815	102.291	69	56
102.046	102.291	59	39
102.282	102.749	64	39
102.282	102.749	68	52
102.511	102.749	62	39
102.742	103.228	60	39
102.977	103.228	59	39
103.098	103.228	68	51
103.218	103.698	52	47
103.218	103.698	71	57
103.455	103.698	60	42
103.691	104.161	64	42
103.691	104.161	69	56
103.922	104.161	60	42
104.152	104.636	59	42
104.389	104.636	57	42
104.507	104.636	69	63
104.625	105.107	52	56
104.625	105.107	72	66
104.861	105.107	56	47
105.097	105.572	62	47
105.097	105.572	71	60
105.33	105.572	59	47
105.562	106.035	57	47
105.799	106.035	56	47
105.917	106.035	71	68
106.035	106.975	57	57
106.035	106.511	74	72
106.266	106.511	72	68
106.504	106.975	71	72
106.735	106.975	69	67
106.971	107.44	43	69
106.971	107.44	55	69
106.971	107.203	81	73
107.203	107.383	81	70
107.44	108.384	41	72
107.44	108.384	53	72
107.44	108.384	83	78
107.67	108.384	81	78
107.907	108.384	79	77
108.143	108.384	77	75
108.379	108.615	76	79
108.615	108.872	75	75
108.872	110.297	54	61
108.872	109.34	57	61
108.872	109.818	84	81
109.106	109.818	56	42
109.34	109.818	57	46
109.575	109.818	60	41
109.809	110.297	59	46
109.809	110.297	75	55
110.053	110.297	57	41
110.297	110.766	52	57
110.297	110.766	56	57
110.297	111.0	76	55
111.0	111.121	78	57
111.121	111.242	76	46
111.242	111.36	76	55
111.36	111.478	74	53
111.478	111.6	73	52
111.6	111.731	71	51
111.731	112.8	61	64
111.797	112.793	64	64
111.863	112.8	45	59
111.863	112.8	57	70
111.863	112.8	69	76
112.793	113.279	40	53
112.793	113.279	52	63
112.793	113.279	64	70
113.269	113.757	49	48
113.269	113.757	61	57
113.269	113.757	73	72
113.517	113.757	74	74
113.633	113.757	71	70
113.749	114.003	45	45
113.749	114.003	57	53
113.749	114.003	69	70
114.709	115.198	73	50
114.946	115.198	74	52
115.066	115.198	71	46
115.186	116.059	69	49
115.678	116.059	57	40
115.678	116.059	66	40
115.678	116.059	85	57
116.161	116.633	59	40
116.161	116.633	69	40
116.161	116.633	75	50
116.633	117.578	64	40
116.633	117.578	68	40
116.633	117.578	76	52
117.342	117.578	77	51
117.578	117.807	80	57
117.807	118.043	78	56
118.043	118.274	76	54
118.274	118.51	74	53
118.51	118.746	73	52
118.746	118.992	71	51
118.992	119.463	52	39
118.992	119.463	69	51
119.228	119.463	62	33
119.228	119.463	68	46
119.457	119.916	59	33
119.457	119.925	76	53
119.685	119.925	62	28
119.685	119.925	74	51
119.916	120.397	59	31
120.152	120.397	62	29
120.388	120.863	52	40
120.388	120.863	71	57
120.624	120.863	61	34
120.624	120.863	69	53
120.857	121.317	57	34
120.857	121.325	78	57
121.084	121.325	61	30
121.084	121.325	76	56
121.317	121.791	57	32
121.549	121.791	61	28
121.785	122.27	52	42
121.785	122.27	71	63
122.02	122.27	61	36
122.02	122.27	69	59
122.264	122.727	57	36
122.264	122.733	81	62
122.493	122.733	61	34
122.493	122.733	79	59
122.727	123.196	57	36
122.961	123.196	61	34
123.196	123.665	50	28
123.196	123.665	57	28
123.196	123.665	62	34
123.196	123.428	79	55
123.428	123.665	78	52
123.665	123.901	76	51
123.901	124.137	74	50
124.137	124.373	73	49
124.373	124.619	71	47
124.619	124.975	49	40
124.619	124.742	76	49
124.742	124.8	78	45
124.8	124.858	76	45
124.858	124.916	74	45
124.916	124.975	76	45
124.975	125.112	50	33
124.975	125.112	78	52
125.112	126.083	52	38
125.112	125.6	61	38
125.112	125.6	69	51
125.6	126.083	59	32
125.6	126.083	68	48
125.964	126.024	69	66
126.024	126.083	73	67
126.083	127.024	57	54
126.083	126.552	76	67
126.318	126.785	61	46
126.552	127.024	64	50
126.552	127.486	76	69
126.785	127.024	61	46
127.017	127.252	59	50
127.252	127.486	57	45
127.486	127.954	56	54
127.486	127.954	76	65
127.601	127.954	74	64
127.717	127.954	57	45
127.717	127.954	73	63
127.831	127.944	71	63
127.944	128.412	59	45
127.944	128.412	71	64
128.059	128.412	69	63
128.173	128.412	52	45
128.173	128.412	68	62
128.288	128.412	66	61
128.402	128.929	54	48
128.402	128.929	64	63
128.519	128.756	62	60
128.637	128.929	56	45
128.637	128.875	61	60
128.756	128.929	62	60
128.875	129.349	57	54
128.875	128.991	61	60
128.991	129.34	64	62
129.107	129.349	61	46
129.107	129.349	69	63
129.223	129.349	73	64
129.34	129.567	64	46
129.34	130.025	76	65
129.567	129.794	61	46
129.794	130.025	59	49
130.025	130.256	57	46
130.025	130.256	88	65
130.256	130.722	56	52
130.256	130.722	88	70
130.369	130.722	86	70
130.483	130.722	57	44
130.483	130.722	85	69
130.598	130.712	83	69
130.712	131.18	59	51
130.712	131.18	83	68
130.827	131.18	81	67
130.941	131.18	52	44
130.941	131.18	80	67
131.056	131.18	78	66
131.17	131.697	54	50
131.17	131.697	76	66
131.287	131.524	74	65
131.404	131.697	56	46
131.404	131.643	73	65
131.524	131.697	74	64
131.643	132.108	57	51
131.643	131.759	73	63
131.759	132.117	76	64
131.875	132.108	74	60
131.991	132.117	73	61
132.108	132.562	54	40
132.108	132.562	57	48
132.108	132.57	74	62
132.221	132.57	76	63
132.335	132.57	78	64
132.449	132.57	80	66
132.562	133.032	50	44
132.562	133.032	54	44
132.562	133.023	57	52
132.562	133.032	81	67
132.678	133.032	83	68
132.793	133.032	85	70
132.908	133.032	86	71
133.023	133.482	49	47
133.023	133.482	52	47
133.023	133.482	57	56
133.023	133.482	88	72
133.137	133.482	86	71
133.25	133.482	85	69
133.362	133.482	83	68
133.473	133.926	81	66
133.584	133.926	80	65
133.695	133.926	78	63
133.807	133.926	76	62
133.917	134.4	74	60
134.027	134.4	73	59
134.14	134.4	71	57
134.254	134.4	69	56
134.39	134.905	50	38
134.39	134.905	59	45
134.39	134.516	80	59
134.453	134.579	78	55
134.516	134.768	80	59
134.579	134.705	78	55
134.642	134.905	76	59
134.705	134.905	78	55
134.768	134.905	80	55
134.831	134.905	81	55
134.895	135.972	52	33
134.895	135.443	61	39
134.895	135.443	69	59
135.359	135.443	73	50
135.431	135.972	62	39
135.431	135.972	68	53
135.431	135.972	71	53
135.972	136.513	57	35
135.972	136.513	61	42
135.972	136.513	69	51
136.513	137.053	45	35
139.215	141.315	38	37
139.215	141.315	50	44
139.215	139.769	66	42
139.215	140.793	69	50
139.498	140.025	57	45
139.769	140.793	62	42
139.769	140.793	66	50
140.025	140.523	57	47
140.271	140.793	64	44
140.271	140.793	67	52
140.523	140.793	57	49
140.793	141.304	66	45
140.793	141.315	69	54
141.056	141.315	57	48
141.304	141.802	62	42
141.304	141.802	66	50
141.552	141.813	61	39
141.552	141.813	64	47
141.802	142.306	62	42
141.802	142.306	66	50
142.056	142.306	64	39
142.056	142.306	67	47
142.306	142.817	66	42
142.306	142.817	69	50
142.554	142.817	62	45
142.807	143.32	67	45
142.807	143.33	71	53
143.057	143.33	62	47
143.32	143.835	45	34
143.32	143.835	57	41
143.32	143.835	67	45
143.32	143.835	73	54
143.572	143.835	64	47
143.835	144.367	38	34
143.835	144.367	50	41
143.835	144.357	66	45
143.835	144.367	74	54
144.096	144.367	69	49
144.357	144.855	62	42
144.357	144.855	66	50
144.357	144.855	78	55
144.605	144.865	61	39
144.605	144.865	64	47
144.605	144.865	76	46
144.855	145.359	62	42
144.855	145.359	66	50
144.855	145.359	78	54
145.109	145.359	64	39
145.109	145.359	67	47
145.109	145.359	79	47
145.359	145.872	66	42
145.359	145.872	69	50
145.359	145.872	81	53
145.607	145.872	62	45
145.861	146.376	67	45
145.861	146.387	71	53
145.861	146.387	83	53
146.115	146.387	62	47
146.376	146.898	67	45
146.376	146.898	73	54
146.376	146.898	85	53
146.63	146.898	64	47
146.898	147.444	66	45
146.898	147.444	74	54
146.898	147.457	86	54
147.166	147.457	69	49
147.444	147.698	66	45
147.444	147.698	74	54
147.698	147.957	64	41
147.698	147.957	73	49
147.957	148.205	62	41
147.957	148.205	71	49
148.205	148.477	61	41
148.205	148.477	69	49
148.477	149.004	52	41
148.477	149.004	59	45
148.477	149.004	68	54
148.734	149.004	64	47
148.995	149.518	49	35
148.995	149.518	61	43
148.995	149.507	69	51
149.249	149.518	64	42
149.507	150.017	45	35
149.507	150.017	69	44
149.507	150.017	73	52
149.76	150.017	64	42
150.012	150.542	52	40
150.012	150.542	68	43
150.012	150.542	71	51
150.264	150.542	64	44
150.532	151.047	66	45
150.532	151.047	74	54
150.532	151.047	86	60
150.78	151.047	64	41
150.78	151.047	73	49
150.78	151.047	85	58
151.036	151.566	62	41
151.036	151.566	71	49
151.036	151.566	83	56
151.29	151.566	61	41
151.29	151.566	69	49
151.29	151.566	81	56
151.489	151.566	87	54
151.556	152.056	59	45
151.556	152.056	68	54
151.556	152.046	88	65
151.802	152.056	64	47
151.985	152.056	87	54
152.046	152.543	61	43
152.046	152.533	69	51
152.046	152.533	88	65
152.291	152.543	64	42
152.473	152.543	87	54
152.533	153.038	69	44
152.533	153.038	73	52
152.533	153.027	88	66
152.777	153.038	64	42
152.965	153.038	87	54
153.027	153.544	68	43
153.027	153.544	71	51
153.027	153.544	88	65
153.277	153.54	64	44
153.54	153.797	45	51
153.54	155.047	64	64
153.54	153.797	73	64
153.797	154.045	44	47
153.797	154.045	71	59
154.045	154.289	45	51
154.045	154.289	73	61
154.289	154.539	47	47
154.289	154.539	74	54
154.539	155.047	49	51
154.539	155.047	76	66
154.783	155.037	69	59
155.037	155.547	52	46
155.037	155.547	69	64
155.037	155.547	73	64
155.281	155.547	64	58
155.537	156.04	40	49
155.537	156.04	68	64
155.537	156.04	71	64
155.781	156.04	64	58
156.04	156.554	45	49
156.04	156.551	69	64
156.288	156.554	64	58
156.551	156.807	69	64
156.551	156.807	73	64
156.551	156.807	85	58
156.807	157.055	68	59
156.807	157.055	71	59
156.807	157.055	83	53
157.055	157.307	69	61
157.055	157.307	73	61
157.055	157.307	85	59
157.307	157.557	71	54
157.307	157.557	74	54
157.307	157.557	86	52
157.557	158.055	73	66
157.557	158.065	76	66
157.557	158.065	88	58
157.801	158.055	69	59
158.055	158.566	69	64
158.055	158.566	73	64
158.055	158.566	85	62
158.299	158.566	64	58
158.556	159.058	68	64
158.556	159.058	71	64
158.556	159.058	83	59
158.799	159.058	64	58
159.058	159.57	69	64
159.058	159.57	81	56
159.306	159.57	64	58
159.56	160.064	50	36
159.56	160.064	59	43
159.56	160.064	66	61
159.804	160.064	74	53
160.054	160.565	52	32
160.054	160.565	62	38
160.054	160.565	71	61
160.3	160.565	68	55
160.554	161.061	57	36
160.554	161.061	61	43
160.554	161.061	69	59
160.802	161.061	64	50
161.05	161.567	50	32
161.05	161.567	59	38
161.05	161.567	66	56
161.3	161.567	74	50
161.557	162.086	52	36
161.557	162.086	62	43
161.557	162.086	71	57
161.813	162.086	68	48
162.076	162.584	57	34
162.076	162.584	61	40
162.076	162.572	69	52
162.324	162.584	68	46
162.572	162.82	69	52
162.82	163.068	71	45
163.068	163.333	67	48
163.333	163.627	64	48
163.627	165.727	38	37
163.627	165.727	50	44
163.627	164.181	66	42
163.627	165.205	69	50
163.91	164.437	57	45
164.181	165.205	62	42
164.181	165.205	66	50
164.437	164.935	57	47
164.683	165.205	64	44
164.683	165.205	67	52
164.935	165.205	57	49
165.205	165.717	66	45
165.205	165.727	69	54
165.469	165.727	57	48
165.717	166.214	62	42
165.717	166.214	66	50
165.964	166.225	61	39
165.964	166.225	64	47
166.214	166.719	62	42
166.214	166.719	66	50
166.469	166.719	64	39
166.469	166.719	67	47
166.719	167.229	66	42
166.719	167.229	69	50
166.967	167.229	62	45
167.219	167.732	67	45
167.219	167.742	71	53
167.469	167.742	62	47
167.732	168.247	45	34
167.732	168.247	57	41
167.732	168.247	67	45
167.732	168.247	73	54
167.984	168.247	64	47
168.247	168.779	38	34
168.247	168.779	50	41
168.247	168.769	66	45
168.247	168.779	74	54
168.508	168.779	69	49
168.769	169.267	62	42
168.769	169.267	66	50
168.769	169.267	78	55
169.017	169.277	61	39
169.017	169.277	64	47
169.017	169.277	76	46
169.267	169.771	62	42
169.267	169.771	66	50
169.267	169.771	78	54
169.521	169.771	64	39
169.521	169.771	67	47
169.521	169.771	79	47
169.771	170.284	66	42
169.771	170.284	69	50
169.771	170.284	81	53
170.019	170.284	62	45
170.273	170.788	67	45
170.273	170.799	71	53
170.273	170.799	83	53
170.527	170.799	62	47
170.788	171.31	67	45
170.788	171.31	73	54
170.788	171.31	85	53
171.043	171.31	64	47
171.31	171.856	66	45
171.31	171.856	74	54
171.31	171.869	86	54
171.578	171.869	69	49
171.856	172.11	66	45
171.856	172.11	74	54
172.11	172.369	64	41
172.11	172.369	73	49
172.369	172.617	62	41
172.369	172.617	71	49
172.617	172.89	61	41
172.617	172.89	69	49
172.89	173.416	52	41
172.89	173.416	59	45
172.89	173.416	68	54
173.146	173.416	64	47
173.407	173.93	49	35
173.407	173.93	61	43
173.407	173.92	69	51
173.661	173.93	64	42
173.92	174.429	45	35
173.92	174.429	69	44
173.92	174.429	73	52
174.172	174.429	64	42
174.424	174.954	52	40
174.424	174.954	68	43
174.424	174.954	71	51
174.676	174.954	64	44
174.944	175.459	66	45
174.944	175.459	74	54
174.944	175.459	86	60
175.192	175.459	64	41
175.192	175.459	73	49
175.192	175.459	85	58
175.448	175.978	62	41
175.448	175.978	71	49
175.448	175.978	83	56
175.702	175.978	61	41
175.702	175.978	69	49
175.702	175.978	81	56
175.902	175.978	87	54
175.968	176.468	59	45
175.968	176.468	68	54
175.968	176.458	88	65
176.214	176.468	64	47
176.397	176.468	87	54
176.458	176.956	61	43
176.458	176.946	69	51
176.458	176.946	88	65
176.704	176.956	64	42
176.885	176.956	87	54
176.946	177.45	69	44
176.946	177.45	73	52
176.946	177.439	88	66
177.189	177.45	64	42
177.377	177.45	87	54
177.439	177.958	68	43
177.439	177.958	71	51
177.439	177.958	88	65
177.689	177.953	64	44
177.953	178.209	45	51
177.953	179.459	64	64
177.953	178.209	73	64
178.209	178.457	44	47
178.209	178.457	71	59
178.457	178.701	45	51
178.457	178.701	73	61
178.701	178.951	47	47
178.701	178.951	74	54
178.951	179.459	49	51
178.951	179.459	76	66
179.195	179.449	69	59
179.449	179.959	52	46
179.449	179.959	69	64
179.449	179.959	73	64
179.693	179.959	64	58
179.949	180.452	40	49
179.949	180.452	68	64
179.949	180.452	71	64
180.193	180.452	64	58
180.452	180.966	45	49
180.452	180.963	69	64
180.7	180.966	64	58
180.963	181.219	69	64
180.963	181.219	73	64
180.963	181.219	85	58
181.219	181.467	68	59
181.219	181.467	71	59
181.219	181.467	83	53
181.467	181.719	69	61
181.467	181.719	73	61
181.467	181.719	85	59
181.719	181.969	71	54
181.719	181.969	74	54
181.719	181.969	86	52
181.969	182.467	73	66
181.969	182.478	76	66
181.969	182.478	88	58
182.213	182.467	69	59
182.467	182.978	69	64
182.467	182.978	73	64
182.467	182.978	85	62
182.711	182.978	64	58
182.968	183.47	68	64
182.968	183.47	71	64
182.968	183.47	83	59
183.212	183.47	64	58
183.47	183.983	69	64
183.47	183.983	81	56
183.718	183.983	64	58
183.972	184.477	50	36
183.972	184.477	59	43
183.972	184.477	66	61
184.216	184.477	74	53
184.466	184.977	52	32
184.466	184.977	62	38
184.466	184.977	71	61
184.712	184.977	68	55
184.967	185.473	57	36
184.967	185.473	61	43
184.967	185.473	69	59
185.214	185.473	64	50
185.462	185.979	50	32
185.462	185.979	59	38
185.462	185.979	66	56
185.712	185.979	74	50
185.969	186.499	52	36
185.969	186.499	62	43
185.969	186.499	71	57
186.225	186.499	68	48
186.488	186.997	57	34
186.488	186.997	61	40
186.488	186.984	69	52
186.736	186.997	68	46
186.984	187.232	69	52
187.232	187.48	71	45
187.48	187.734	67	48
187.734	187.989	64	48
187.989	190.088	35	37
187.989	190.088	47	44
187.989	188.542	66	42
187.989	189.566	69	50
188.272	188.798	59	45
188.542	189.566	63	42
188.542	189.566	66	50
188.798	189.296	59	47
189.044	189.566	64	44
189.044	189.566	67	52
189.296	189.566	59	49
189.566	190.078	66	45
189.566	190.088	69	54
189.83	190.088	59	48
190.078	190.584	63	37
190.078	190.584	66	45
190.078	190.584	84	54
190.328	190.584	59	42
190.328	190.584	83	50
190.574	191.09	64	39
190.574	191.09	67	46
190.574	191.09	81	54
190.821	191.09	59	44
190.821	191.09	79	50
191.08	191.578	66	40
191.08	191.588	69	48
191.08	191.588	78	54
191.33	191.588	59	43
191.578	192.082	63	37
191.578	192.082	66	45
191.578	192.082	81	54
191.826	192.082	59	42
191.826	192.082	79	50
192.072	192.58	64	39
192.072	192.58	67	46
192.072	192.58	78	55
192.318	192.58	59	44
192.318	192.58	76	50
192.576	193.148	66	40
192.576	193.148	69	48
192.576	193.148	75	54
193.103	193.321	47	49
193.103	193.321	59	59
193.103	193.321	71	60
193.103	193.321	83	71
193.345	193.564	45	46
193.345	193.564	57	55
193.345	193.564	69	56
193.345	193.564	81	66
193.589	193.812	43	49
193.589	193.812	55	59
193.589	193.812	67	60
193.589	193.812	79	71
193.837	194.068	42	46
193.837	194.068	54	55
193.837	194.068	66	56
193.837	194.068	78	67
194.093	194.571	40	50
194.093	194.571	52	60
194.093	194.571	64	62
194.093	194.571	76	74
194.624	195.65	40	46
194.624	195.65	52	55
194.624	195.65	64	60
194.624	195.65	76	71
195.137	196.036	47	50
195.137	196.036	59	60
195.137	196.036	71	61
195.137	196.036	83	73
195.65	196.096	40	46
195.65	196.096	52	55
195.65	196.096	64	60
195.65	196.096	76	71
196.146	196.365	47	49
196.146	196.365	59	59
196.146	196.365	71	60
196.146	196.365	83	71
196.39	196.613	45	46
196.39	196.613	57	55
196.39	196.613	69	56
196.39	196.613	81	66
196.638	196.864	43	49
196.638	196.864	55	59
196.638	196.864	67	60
196.638	196.864	79	71
196.89	197.124	42	46
196.89	197.124	54	55
196.89	197.124	66	56
196.89	197.124	78	67
197.151	197.628	40	50
197.151	197.628	52	60
197.151	197.628	64	62
197.151	197.628	76	74
197.681	198.707	40	46
197.681	198.707	52	55
197.681	198.707	64	60
197.681	198.707	76	71
198.194	199.047	47	50
198.194	199.047	59	60
198.194	199.047	71	61
198.194	199.047	83	73
198.707	199.185	40	46
198.707	199.185	52	55
198.707	199.185	64	60
198.707	199.185	76	71
199.238	199.49	76	50
199.49	199.749	74	46
199.749	200.001	76	50
200.001	201.29	77	47
200.26	201.29	60	42
200.26	200.772	79	51
200.518	201.027	64	39
200.772	201.29	67	42
200.772	201.535	79	53
201.027	201.29	64	39
201.281	201.801	59	35
201.281	201.801	65	42
201.535	201.801	62	37
201.535	201.801	79	50
201.792	202.81	60	42
201.792	202.81	84	55
202.046	202.55	64	37
202.3	202.81	67	42
202.3	202.81	79	50
202.55	202.81	64	37
202.8	203.32	59	35
202.8	203.32	65	42
203.05	203.32	62	38
203.309	204.313	60	46
203.309	203.807	79	56
203.561	204.057	64	42
203.807	204.313	67	46
203.807	204.561	79	58
204.057	204.313	64	42
204.307	204.826	59	38
204.307	204.826	65	46
204.561	204.826	62	40
204.561	204.826	79	55
204.815	205.809	60	46
204.815	206.337	84	60
205.067	205.561	64	40
205.313	206.337	67	46
205.313	206.193	79	55
205.561	206.059	64	40
205.809	206.337	60	46
206.059	206.337	64	41
206.193	206.337	79	61
206.327	207.844	58	53
206.327	207.834	88	70
206.577	207.573	60	45
206.823	207.323	64	51
206.823	207.703	79	55
207.073	207.844	67	43
207.323	207.844	64	52
207.573	207.844	60	46
207.703	207.844	79	65
207.834	209.33	57	58
207.834	209.33	88	74
208.084	209.069	61	51
208.327	208.821	64	58
208.327	209.2	79	61
208.573	209.33	67	50
208.821	209.33	64	58
209.069	209.33	61	51
209.2	209.33	79	55
209.33	210.314	57	48
209.33	210.314	62	57
209.33	209.574	79	60
209.574	209.818	77	58
209.818	210.066	76	58
210.066	210.314	77	54
210.314	210.81	56	41
210.314	210.562	64	49
210.314	210.562	76	58
210.562	210.81	65	43
210.562	210.81	74	55
210.81	211.308	57	44
210.81	211.308	64	52
210.81	211.056	73	58
211.056	211.308	80	55
211.308	211.55	81	58
211.55	211.795	80	55
211.795	212.041	81	58
212.041	212.287	76	55
212.287	213.767	58	43
212.287	213.767	62	43
212.287	213.767	68	51
212.287	212.531	79	60
212.531	212.775	77	58
212.775	213.023	76	58
213.023	213.271	77	54
213.271	213.519	76	58
213.519	213.767	74	55
213.767	214.263	57	44
213.767	214.263	61	44
213.767	214.263	69	52
213.767	214.011	81	58
214.011	214.263	80	55
214.263	214.505	81	58
214.505	214.753	76	55
214.753	215.249	57	37
214.753	215.249	62	37
214.753	215.249	65	44
214.753	215.001	77	58
215.001	215.249	74	55
215.249	215.745	57	44
215.249	215.745	61	44
215.249	215.745	64	52
215.249	215.492	81	58
215.492	215.745	80	55
215.745	215.987	81	58
215.987	216.232	76	55
216.232	216.724	57	37
216.232	216.724	62	37
216.232	216.724	65	44
216.232	216.478	77	58
216.478	216.724	74	49
216.724	217.227	57	44
216.724	217.227	61	44
216.724	217.227	64	52
216.724	216.974	69	51
216.974	217.227	68	45
217.227	217.481	69	51
217.481	217.737	68	47
217.737	217.998	69	51
217.998	219.844	68	44
218.266	220.366	38	37
218.266	220.366	50	44
218.266	218.82	66	42
218.266	219.844	69	50
218.549	219.076	57	45
218.82	219.844	62	42
218.82	219.844	66	50
219.076	219.574	57	47
219.322	219.844	64	44
219.322	219.844	67	52
219.574	219.844	57	49
219.844	220.366	66	45
219.844	220.366	69	54
220.108	220.366	62	48
220.356	220.853	71	42
220.356	220.864	74	50
220.603	220.864	69	39
220.603	220.864	73	47
220.853	221.358	67	42
220.853	221.358	71	50
221.108	221.358	66	39
221.108	221.358	69	47
221.358	221.868	47	53
221.358	221.868	67	50
221.606	221.868	62	45
221.858	222.381	45	49
221.858	222.381	66	45
221.858	222.381	69	53
222.108	222.381	62	47
222.371	222.886	43	47
222.371	222.886	67	45
222.371	222.886	71	54
222.623	222.886	62	47
222.886	223.408	50	53
222.886	223.408	66	45
222.886	223.408	69	54
223.149	223.408	62	48
223.397	223.895	71	39
223.397	223.906	74	47
223.397	223.906	86	55
223.645	223.906	69	37
223.645	223.906	73	44
223.645	223.906	85	51
223.895	224.399	67	39
223.895	224.399	71	47
223.895	224.399	83	55
224.149	224.399	66	37
224.149	224.399	69	44
224.149	224.399	81	51
224.399	224.91	64	42
224.399	224.91	67	47
224.399	224.91	79	55
224.647	224.91	62	42
224.899	225.423	66	42
224.899	225.423	69	50
224.899	225.423	81	58
225.149	225.423	62	44
225.413	225.928	67	42
225.413	225.928	71	51
225.413	225.928	83	59
225.665	225.928	62	44
225.928	226.449	66	42
225.928	226.449	69	51
225.928	226.449	81	59
226.191	226.449	62	45
226.439	226.937	67	42
226.439	226.947	71	50
226.687	226.947	66	39
226.687	226.947	69	47
226.937	227.441	64	42
226.937	227.441	67	50
227.191	227.441	62	39
227.191	227.441	66	47
227.441	227.952	45	53
227.441	227.952	61	45
227.441	227.952	64	50
227.689	227.952	57	45
227.941	228.465	42	49
227.941	228.454	62	45
227.941	228.465	69	53
228.191	228.465	57	47
228.454	228.97	38	47
228.454	228.97	62	45
228.454	228.97	66	54
228.706	228.97	57	47
228.97	229.491	45	53
228.97	229.491	61	45
228.97	229.491	64	54
229.233	229.491	57	48
229.481	229.979	67	39
229.481	229.989	71	47
229.481	229.989	83	55
229.729	229.989	66	37
229.729	229.989	69	44
229.729	229.989	81	51
229.979	230.483	64	39
229.979	230.483	67	47
229.979	230.483	79	55
230.233	230.483	62	37
230.233	230.483	66	44
230.233	230.483	78	51
230.42	230.483	80	48
230.483	230.991	61	42
230.483	230.991	64	47
230.483	230.981	81	63
230.729	230.991	57	42
230.918	230.991	80	48
230.981	231.479	66	42
230.981	231.489	69	50
230.981	231.479	81	63
231.227	231.489	57	44
231.416	231.489	80	48
231.479	231.979	62	42
231.479	231.979	66	51
231.479	231.979	81	64
231.727	231.979	57	44
231.916	231.979	80	48
231.979	232.493	61	42
231.979	232.493	64	51
231.979	232.493	81	64
232.242	232.493	69	45
232.49	232.746	59	46
232.49	233.986	62	50
232.49	232.746	74	64
232.746	232.994	58	41
232.746	232.994	73	59
232.994	233.238	59	47
232.994	233.238	74	61
233.238	233.488	55	41
233.238	233.488	71	54
233.488	233.996	54	48
233.488	233.996	69	63
233.732	233.996	57	55
233.986	234.497	52	44
233.986	234.497	62	54
233.986	234.497	67	61
234.23	234.497	59	54
234.487	234.989	45	44
234.487	234.989	61	54
234.487	234.989	64	61
234.731	234.989	57	51
234.989	235.511	50	49
234.989	235.511	62	52
234.989	235.511	66	64
235.237	235.511	69	55
235.5	235.757	71	64
235.5	235.757	74	64
235.5	235.757	86	58
235.757	236.005	70	56
235.757	236.005	73	56
235.757	236.005	85	53
236.005	236.257	71	61
236.005	236.257	74	61
236.005	236.257	86	59
236.257	236.507	67	54
236.257	236.507	71	54
236.257	236.507	83	52
236.507	237.015	66	56
236.507	237.015	69	66
236.507	237.015	81	58
236.751	237.015	62	51
237.005	237.505	64	54
237.005	237.515	67	64
237.005	237.515	79	62
237.249	237.515	59	51
237.505	238.008	61	54
237.505	238.008	64	64
237.505	238.008	76	59
237.749	238.008	57	52
238.008	238.52	62	54
238.008	238.52	66	64
238.008	238.52	74	56
238.256	238.51	69	54
238.51	239.014	43	43
238.51	239.014	59	50
238.51	239.014	69	61
238.754	239.014	67	51
239.004	239.514	45	32
239.004	239.514	55	38
239.004	239.514	64	61
239.25	239.514	61	52
239.504	240.01	50	36
239.504	240.01	54	43
239.504	240.01	62	59
239.752	240.0	69	50
240.0	240.517	43	38
240.0	240.517	59	50
240.0	240.517	69	56
240.25	240.517	67	50
240.506	241.036	45	36
240.506	241.036	55	43
240.506	241.036	64	57
240.763	241.036	61	48
241.026	241.534	50	34
241.026	241.534	54	40
241.026	241.522	62	52
241.274	241.534	61	46
241.522	241.77	62	52
241.77	242.017	64	45
242.017	242.283	66	48
242.283	242.577	67	48
242.577	244.677	35	37
242.577	244.677	47	44
242.577	243.13	66	42
242.577	244.155	69	50
242.86	243.387	59	45
243.13	244.155	63	42
243.13	244.155	66	50
243.387	243.885	59	47
243.633	244.155	64	44
243.633	244.155	67	52
243.885	244.155	59	49
244.155	244.666	66	45
244.155	244.677	69	54
244.418	244.677	59	48
244.666	245.172	63	37
244.666	245.172	66	45
244.666	245.172	84	54
244.916	245.172	59	42
244.916	245.172	83	50
245.162	245.679	64	39
245.162	245.679	67	46
245.162	245.679	81	54
245.41	245.679	59	44
245.41	245.679	79	50
245.669	246.167	66	40
245.669	246.177	69	48
245.669	246.177	78	54
245.919	246.177	59	43
246.167	246.671	63	37
246.167	246.671	66	45
246.167	246.671	81	54
246.414	246.671	59	42
246.414	246.671	79	50
246.66	247.168	64	39
246.66	247.168	67	46
246.66	247.168	78	55
246.906	247.168	59	44
246.906	247.168	76	50
247.165	247.737	66	40
247.165	247.737	69	48
247.165	247.737	75	54
247.692	247.909	47	49
247.692	247.909	59	59
247.692	247.909	71	60
247.692	247.909	83	71
247.934	248.153	45	46
247.934	248.153	57	55
247.934	248.153	69	56
247.934	248.153	81	66
248.177	248.401	43	49
248.177	248.401	55	59
248.177	248.401	67	60
248.177	248.401	79	71
248.425	248.656	42	46
248.425	248.656	54	55
248.425	248.656	66	56
248.425	248.656	78	67
248.682	249.16	40	50
248.682	249.16	52	60
248.682	249.16	64	62
248.682	249.16	76	74
249.213	250.238	40	46
249.213	250.238	52	55
249.213	250.238	64	60
249.213	250.238	76	71
249.726	250.625	47	50
249.726	250.625	59	60
249.726	250.625	71	61
249.726	250.625	83	73
250.238	250.685	40	46
250.238	250.685	52	55
250.238	250.685	64	60
250.238	250.685	76	71
250.734	250.954	47	49
250.734	250.954	59	59
250.734	250.954	71	60
250.734	250.954	83	71
250.978	251.201	45	46
250.978	251.201	57	55
250.978	251.201	69	56
250.978	251.201	81	66
251.226	251.453	43	49
251.226	251.453	55	59
251.226	251.453	67	60
251.226	251.453	79	71
251.478	251.713	42	46
251.478	251.713	54	55
251.478	251.713	66	56
251.478	251.713	78	67
251.739	252.217	40	50
251.739	252.217	52	60
251.739	252.217	64	62
251.739	252.217	76	74
252.27	253.296	40	46
252.27	253.296	52	55
252.27	253.296	64	60
252.27	253.296	76	71
252.783	253.635	47	50
252.783	253.635	59	60
252.783	253.635	71	61
252.783	253.635	83	73
253.296	253.774	40	46
253.296	253.774	52	55
253.296	253.774	64	60
253.296	253.774	76	71
253.827	254.079	76	50
254.079	254.337	74	46
254.337	254.589	76	50
254.589	255.879	77	47
254.848	255.879	60	42
254.848	255.361	79	51
255.107	255.615	64	39
255.361	255.879	67	42
255.361	256.124	79	53
255.615	255.879	64	39
255.869	256.39	59	35
255.869	256.39	65	42
256.124	256.39	62	37
256.124	256.39	79	50
256.38	257.399	60	42
256.38	257.399	84	55
256.634	257.139	64	37
256.889	257.399	67	42
256.889	257.399	79	50
257.139	257.399	64	37
257.389	257.909	59	35
257.389	257.909	65	42
257.639	257.909	62	38
257.897	258.902	60	46
257.897	258.395	79	56
258.149	258.645	64	42
258.395	258.902	67	46
258.395	259.149	79	58
258.645	258.902	64	42
258.895	259.414	59	38
258.895	259.414	65	46
259.149	259.414	62	40
259.149	259.414	79	55
259.404	260.398	60	46
259.404	260.926	84	60
259.656	260.15	64	40
259.902	260.926	67	46
259.902	260.781	79	55
260.15	260.648	64	40
260.398	260.926	60	46
260.648	260.926	64	41
260.781	260.926	79	61
260.915	262.433	58	53
260.915	262.422	88	70
261.165	262.161	60	45
261.411	261.911	64	51
261.411	262.292	79	55
261.661	262.433	67	43
261.911	262.433	64	52
262.161	262.433	60	46
262.292	262.433	79	65
262.422	263.919	57	58
262.422	263.919	88	74
262.672	263.658	61	51
262.916	263.41	64	58
262.916	263.788	79	61
263.162	263.919	67	50
263.41	263.919	64	58
263.658	263.919	61	51
263.788	263.919	79	55
263.919	264.902	57	48
263.919	264.902	62	57
263.919	264.163	79	60
264.163	264.406	77	58
264.406	264.654	76	58
264.654	264.902	77	54
264.902	265.398	56	41
264.902	265.15	64	49
264.902	265.15	76	58
265.15	265.398	65	43
265.15	265.398	74	55
265.398	265.896	57	44
265.398	265.896	64	52
265.398	265.644	73	58
265.644	265.896	80	55
265.896	266.138	81	58
266.138	266.384	80	55
266.384	266.63	81	58
266.63	266.876	76	55
266.876	268.355	58	43
266.876	268.355	62	43
266.876	268.355	68	51
266.876	267.12	79	60
267.12	267.364	77	58
267.364	267.612	76	58
267.612	267.86	77	54
267.86	268.107	76	58
268.107	268.355	74	55
268.355	268.851	57	44
268.355	268.851	61	44
268.355	268.851	69	52
268.355	268.599	81	58
268.599	268.851	80	55
268.851	269.093	81	58
269.093	269.341	76	55
269.341	269.837	57	37
269.341	269.837	62	37
269.341	269.837	65	44
269.341	269.589	77	58
269.589	269.837	74	55
269.837	270.333	57	44
269.837	270.333	61	44
269.837	270.333	64	52
269.837	270.081	81	58
270.081	270.333	80	55
270.333	270.575	81	58
270.575	270.821	76	55
270.821	271.313	57	37
270.821	271.313	62	37
270.821	271.313	65	44
270.821	271.067	77	58
271.067	271.313	74	49
271.313	271.815	57	44
271.313	271.815	61	44
271.313	271.815	64	52
271.313	271.563	69	51
271.563	271.815	68	45
271.815	272.07	69	51
272.07	272.326	68	47
272.326	272.587	69	51
272.587	274.433	68	44
272.855	274.954	38	37
272.855	274.954	50	44
272.855	273.408	66	42
272.855	274.433	69	50
273.138	273.665	57	45
273.408	274.433	62	42
273.408	274.433	66	50
273.665	274.163	57	47
273.911	274.433	64	44
273.911	274.433	67	52
274.163	274.433	57	49
274.433	274.954	66	45
274.433	274.954	69	54
274.696	274.954	62	48
274.944	275.442	71	42
274.944	275.453	74	50
275.192	275.453	69	39
275.192	275.453	73	47
275.442	275.946	67	42
275.442	275.946	71	50
275.696	275.946	66	39
275.696	275.946	69	47
275.946	276.457	47	53
275.946	276.457	67	50
276.194	276.457	62	45
276.446	276.97	45	49
276.446	276.97	66	45
276.446	276.97	69	53
276.696	276.97	62	47
276.959	277.475	43	47
276.959	277.475	67	45
276.959	277.475	71	54
277.212	277.475	62	47
277.475	277.996	50	53
277.475	277.996	66	45
277.475	277.996	69	54
277.738	277.996	62	48
277.986	278.484	71	39
277.986	278.494	74	47
277.986	278.494	86	55
278.234	278.494	69	37
278.234	278.494	73	44
278.234	278.494	85	51
278.484	278.988	67	39
278.484	278.988	71	47
278.484	278.988	83	55
278.738	278.988	66	37
278.738	278.988	69	44
278.738	278.988	81	51
278.988	279.498	64	42
278.988	279.498	67	47
278.988	279.498	79	55
279.236	279.498	62	42
279.488	280.012	66	42
279.488	280.012	69	50
279.488	280.012	81	58
279.738	280.012	62	44
280.001	280.516	67	42
280.001	280.516	71	51
280.001	280.516	83	59
280.253	280.516	62	44
280.516	281.038	66	42
280.516	281.038	69	51
280.516	281.038	81	59
280.78	281.038	62	45
281.027	281.525	67	42
281.027	281.536	71	50
281.275	281.536	66	39
281.275	281.536	69	47
281.525	282.03	64	42
281.525	282.03	67	50
281.78	282.03	62	39
281.78	282.03	66	47
282.03	282.54	45	53
282.03	282.54	61	45
282.03	282.54	64	50
282.278	282.54	57	45
282.53	283.053	42	49
282.53	283.043	62	45
282.53	283.053	69	53
282.78	283.053	57	47
283.043	283.558	38	47
283.043	283.558	62	45
283.043	283.558	66	54
283.295	283.558	57	47
283.558	284.08	45	53
283.558	284.08	61	45
283.558	284.08	64	54
283.821	284.08	57	48
284.069	284.567	67	39
284.069	284.578	71	47
284.069	284.578	83	55
284.317	284.578	66	37
284.317	284.578	69	44
284.317	284.578	81	51
284.567	285.071	64	39
284.567	285.071	67	47
284.567	285.071	79	55
284.821	285.071	62	37
284.821	285.071	66	44
284.821	285.071	78	51
285.009	285.071	80	48
285.071	285.58	61	42
285.071	285.58	64	47
285.071	285.569	81	63
285.317	285.58	57	42
285.506	285.58	80	48
285.569	286.067	66	42
285.569	286.078	69	50
285.569	286.067	81	63
285.815	286.078	57	44
286.004	286.078	80	48
286.067	286.567	62	42
286.067	286.567	66	51
286.067	286.567	81	64
286.315	286.567	57	44
286.504	286.567	80	48
286.567	287.082	61	42
286.567	287.082	64	51
286.567	287.082	81	64
286.831	287.082	69	45
287.079	287.335	59	46
287.079	288.575	62	50
287.079	287.335	74	64
287.335	287.583	58	41
287.335	287.583	73	59
287.583	287.827	59	47
287.583	287.827	74	61
287.827	288.077	55	41
287.827	288.077	71	54
288.077	288.585	54	48
288.077	288.585	69	63
288.321	288.585	57	55
288.575	289.085	52	44
288.575	289.085	62	54
288.575	289.085	67	61
288.819	289.085	59	54
289.075	289.578	45	44
289.075	289.578	61	54
289.075	289.578	64	61
289.319	289.578	57	51
289.578	290.1	50	49
289.578	290.1	62	52
289.578	290.1	66	64
289.826	290.1	69	55
290.089	290.345	71	64
290.089	290.345	74	64
290.089	290.345	86	58
290.345	290.593	70	56
290.345	290.593	73	56
290.345	290.593	85	53
290.593	290.845	71	61
290.593	290.845	74	61
290.593	290.845	86	59
290.845	291.095	67	54
290.845	291.095	71	54
290.845	291.095	83	52
291.095	291.604	66	56
291.095	291.604	69	66
291.095	291.604	81	58
291.339	291.604	62	51
291.593	292.094	64	54
291.593	292.104	67	64
291.593	292.104	79	62
291.837	292.104	59	51
292.094	292.596	61	54
292.094	292.596	64	64
292.094	292.596	76	59
292.338	292.596	57	52
292.596	293.109	62	54
292.596	293.109	66	64
292.596	293.109	74	56
292.844	293.098	69	54
293.098	293.603	43	43
293.098	293.603	59	50
293.098	293.603	69	61
293.342	293.603	67	51
293.592	294.103	45	32
293.592	294.103	55	38
293.592	294.103	64	61
293.838	294.103	61	52
294.092	294.599	50	36
294.092	294.599	54	43
294.092	294.599	62	59
294.34	294.588	69	50
294.588	295.105	43	38
294.588	295.105	59	50
294.588	295.105	69	56
294.838	295.105	67	50
295.095	295.627	45	36
295.095	295.627	55	43
295.095	295.627	64	57
295.351	295.627	61	48
295.614	296.506	50	34
295.614	296.506	54	40
295.614	296.506	62	52
296.233	296.542	38	40
297.47	298.54	61	64
297.536	298.532	64	64
297.603	298.54	45	59
297.603	298.54	57	70
297.603	298.54	69	76
298.532	299.018	40	53
298.532	299.018	52	63
298.532	299.018	64	70
299.008	299.497	49	48
299.008	299.497	61	57
299.008	299.497	73	72
299.256	299.497	74	74
299.372	299.497	71	70
299.489	299.743	45	45
299.489	299.743	57	53
299.489	299.743	69	70
300.449	300.941	73	50
300.689	300.941	74	52
300.809	300.941	71	46
300.929	301.801	69	49
301.421	301.801	57	40
301.421	301.801	66	40
301.421	301.801	85	57
301.903	302.375	59	40
301.903	302.375	69	40
301.903	302.375	75	50
302.375	303.32	64	40
302.375	303.32	68	40
302.375	303.32	76	52
303.084	303.32	77	51
303.32	303.549	80	57
303.549	303.785	78	56
303.785	304.013	76	54
304.013	304.249	74	53
304.249	304.485	73	52
304.485	304.731	71	51
304.731	305.209	52	39
304.731	305.209	69	51
304.967	305.209	62	33
304.967	305.209	68	46
305.203	305.661	59	33
305.203	305.671	76	53
305.431	305.671	62	28
305.431	305.671	74	51
305.661	306.143	59	31
305.898	306.143	62	29
306.134	306.613	52	40
306.134	306.613	71	57
306.37	306.613	61	34
306.37	306.613	69	53
306.606	307.066	57	34
306.606	307.075	78	57
306.834	307.075	61	30
306.834	307.075	76	56
307.066	307.541	57	32
307.299	307.541	61	28
307.535	308.003	50	42
307.535	308.003	76	63
307.769	308.003	59	36
307.769	308.003	74	59
307.997	308.46	54	36
307.997	308.466	79	62
308.226	308.466	59	34
308.226	308.466	78	59
308.46	308.934	54	36
308.694	308.934	59	34
308.929	309.437	50	39
308.929	309.437	66	51
309.397	309.623	76	53
309.623	309.856	74	51
309.856	310.088	73	51
310.088	310.326	71	49
310.326	310.804	52	33
310.326	310.804	62	39
310.326	310.795	69	51
310.561	310.804	68	48
310.795	311.285	57	33
310.795	311.285	61	39
310.795	311.285	69	51
311.569	311.628	71	68
311.628	311.688	76	71
311.688	311.747	80	74
311.747	312.692	52	60
311.747	313.154	83	77
311.982	312.451	56	52
312.216	312.692	59	56
312.451	312.692	56	52
312.685	312.919	54	56
312.919	313.154	52	51
313.154	313.625	51	60
313.154	313.625	83	73
313.269	313.625	81	72
313.384	313.625	52	50
313.384	313.625	80	71
313.5	313.615	78	70
313.615	314.087	54	50
313.615	314.087	78	72
313.731	314.087	76	71
313.846	314.087	47	51
313.846	314.087	75	69
313.961	314.087	73	68
314.077	314.603	49	54
314.077	314.603	71	70
314.194	314.43	69	67
314.311	314.603	51	51
314.311	314.549	68	67
314.43	314.603	69	67
314.549	315.024	52	60
314.549	314.665	68	67
314.665	315.024	71	69
314.782	315.024	56	52
314.782	315.024	76	70
314.898	315.024	80	72
315.014	315.242	59	52
315.014	315.93	83	73
315.242	315.469	56	52
315.469	315.7	54	55
315.7	315.93	52	52
315.93	316.402	51	60
315.93	316.402	83	73
316.046	316.402	81	72
316.161	316.402	52	50
316.161	316.402	80	71
316.277	316.392	78	70
316.392	316.863	54	50
316.392	316.863	78	72
316.507	316.863	76	71
316.623	316.863	47	51
316.623	316.863	75	69
316.738	316.863	73	68
316.854	317.38	49	54
316.854	317.38	71	70
316.971	317.207	69	67
317.088	317.38	51	51
317.088	317.326	68	67
317.207	317.38	69	67
317.326	317.797	52	60
317.326	317.442	68	67
317.442	317.797	71	64
317.559	317.781	69	70
317.673	317.797	68	64
317.781	318.25	69	68
317.901	318.25	71	68
318.015	318.25	73	69
318.128	318.25	75	70
318.242	318.711	76	70
318.357	318.711	78	71
318.473	318.711	80	72
318.588	318.711	81	72
318.703	319.162	83	73
318.817	319.162	85	74
318.929	319.153	87	74
319.042	319.162	88	75
319.153	319.606	87	72
319.264	319.606	85	70
319.375	319.606	83	68
319.486	319.606	81	65
319.597	320.058	80	63
319.707	320.058	78	61
319.82	320.058	76	59
319.934	320.058	75	57
320.049	320.514	57	38
320.049	320.514	66	45
320.049	320.282	73	50
320.398	320.514	85	50
320.514	321.558	59	33
320.514	321.028	68	39
320.514	321.028	76	54
320.944	321.028	80	50
321.017	321.558	69	39
321.017	321.558	75	53
321.017	321.558	78	53
321.558	322.098	64	35
321.558	322.098	68	42
321.558	322.098	76	51
322.068	322.608	52	35
323.112	323.602	64	61
323.179	323.602	76	74
323.596	324.07	66	61
323.655	324.07	78	70
324.066	324.606	67	61
324.124	324.606	79	70
324.606	325.087	54	47
324.606	325.087	71	56
324.842	325.087	61	39
325.079	325.551	66	39
325.079	325.551	70	52
325.311	325.551	64	39
325.544	326.03	62	39
325.778	326.03	61	39
325.899	326.03	70	51
326.02	326.499	54	47
326.02	326.499	73	57
326.256	326.499	62	42
326.493	326.963	66	42
326.493	326.963	71	56
326.723	326.963	62	42
326.954	327.437	61	42
327.19	327.437	59	42
327.308	327.437	71	63
327.427	327.902	54	56
327.427	327.902	74	66
327.656	327.902	58	47
327.892	328.374	64	47
327.892	328.374	73	60
328.128	328.374	61	47
328.364	328.837	59	47
328.6	328.837	58	47
328.719	328.837	73	68
328.837	329.31	59	57
328.837	329.31	76	72
329.064	329.31	74	68
329.302	329.773	77	72
329.533	329.773	76	67
329.769	330.238	79	70
330.002	330.238	77	66
330.238	330.713	52	47
330.238	330.713	69	56
330.469	330.713	59	39
330.705	331.171	64	39
330.705	331.171	68	52
330.934	331.171	62	39
331.165	331.651	60	39
331.399	331.651	59	39
331.52	331.651	68	51
331.641	332.12	52	47
331.641	332.12	71	57
331.877	332.12	60	42
332.113	332.584	64	42
332.113	332.584	69	56
332.344	332.584	60	42
332.575	333.058	59	42
332.811	333.058	57	42
332.929	333.058	69	63
333.047	333.529	52	56
333.047	333.529	72	66
333.283	333.529	56	47
333.52	333.995	62	47
333.52	333.995	71	60
333.752	333.995	59	47
333.985	334.457	57	47
334.221	334.457	56	47
334.339	334.457	71	68
334.457	335.397	57	57
334.457	334.934	74	72
334.688	334.934	72	68
334.926	335.397	71	72
335.157	335.397	69	67
335.393	335.862	43	69
335.393	335.862	55	69
335.393	335.626	81	73
335.626	335.806	81	70
335.862	336.806	41	72
335.862	336.806	53	72
335.862	336.806	83	78
336.093	336.806	81	78
336.329	336.806	79	77
336.565	336.806	77	75
336.801	337.038	76	79
337.038	337.294	75	75
337.294	338.719	54	61
337.294	337.763	57	61
337.294	338.241	84	81
337.528	338.241	56	42
337.763	338.241	57	46
337.997	338.241	60	41
338.232	338.719	59	46
338.232	338.719	75	55
338.475	338.719	57	41
338.719	339.188	52	57
338.719	339.188	56	57
338.719	339.422	76	55
339.422	339.543	78	57
339.543	339.664	76	46
339.664	339.782	76	55
339.782	339.901	74	53
339.901	340.023	73	52
340.023	340.153	71	51
340.153	341.223	61	64
340.219	341.215	64	64
340.286	341.223	45	59
340.286	341.223	57	70
340.286	341.223	69	76
341.215	341.701	40	53
341.215	341.701	52	63
341.215	341.701	64	70
341.691	342.18	49	48
341.691	342.18	61	57
341.691	342.18	73	72
341.939	342.18	74	74
342.055	342.18	71	70
342.172	342.426	45	45
342.172	342.426	57	53
342.172	342.426	69	70
343.132	343.621	73	50
343.369	343.621	74	52
343.489	343.621	71	46
343.609	344.482	69	49
344.101	344.482	57	40
344.101	344.482	66	40
344.101	344.482	85	57
344.583	345.055	59	40
344.583	345.055	69	40
344.583	345.055	75	50
345.055	346.0	64	40
345.055	346.0	68	40
345.055	346.0	76	52
345.764	346.0	77	51
346.0	346.228	80	57
346.228	346.464	78	56
346.464	346.691	76	54
346.691	346.927	74	53
346.927	347.156	73	52
347.156	347.402	71	51
347.402	347.873	52	39
347.402	347.873	69	51
347.638	347.873	62	33
347.638	347.873	68	46
347.867	348.326	59	33
347.867	348.335	76	53
348.095	348.335	62	28
348.095	348.335	74	51
348.326	348.807	59	31
348.562	348.807	62	29
348.798	349.273	52	40
348.798	349.273	71	57
349.034	349.273	61	34
349.034	349.273	69	53
349.267	349.727	57	34
349.267	349.735	78	57
349.494	349.735	61	30
349.494	349.735	76	56
349.727	350.201	57	32
349.959	350.201	61	28
350.195	350.68	52	42
350.195	350.68	71	63
350.43	350.68	61	36
350.43	350.68	69	59
350.674	351.137	57	36
350.674	351.143	81	62
350.903	351.143	61	34
350.903	351.143	79	59
351.137	351.606	57	36
351.371	351.606	61	34
351.606	352.075	50	28
351.606	352.075	57	28
351.606	352.075	62	34
351.606	351.838	79	55
351.838	352.075	78	52
352.075	352.311	76	51
352.311	352.547	74	50
352.547	352.783	73	49
352.783	353.029	71	47
353.029	353.385	49	40
353.029	353.152	76	49
353.152	353.21	78	45
353.21	353.268	76	45
353.268	353.326	74	45
353.326	353.385	76	45
353.385	353.522	50	33
353.385	353.522	78	52
353.522	354.493	52	38
353.522	354.01	61	38
353.522	354.01	69	51
354.01	354.493	59	32
354.01	354.493	68	48
354.374	354.434	69	66
354.434	354.493	73	67
354.493	355.434	57	54
354.493	354.962	76	67
354.728	355.195	61	46
354.962	355.434	64	50
354.962	355.896	76	69
355.195	355.434	61	46
355.427	355.662	59	50
355.662	355.896	57	45
355.896	356.364	56	54
355.896	356.364	76	65
356.011	356.364	74	64
356.127	356.364	57	45
356.127	356.364	73	63
356.24	356.354	71	63
356.354	356.822	59	45
356.354	356.822	71	64
356.469	356.822	69	63
356.583	356.822	52	45
356.583	356.822	68	62
356.698	356.822	66	61
356.812	357.339	54	48
356.812	357.339	64	63
356.929	357.166	62	60
357.046	357.339	56	45
357.046	357.285	61	60
357.166	357.339	62	60
357.285	357.759	57	54
357.285	357.401	61	60
357.401	357.75	64	62
357.517	357.759	61	46
357.517	357.759	69	63
357.633	357.759	73	64
357.75	357.977	64	46
357.75	358.435	76	65
357.977	358.204	61	46
358.204	358.435	59	49
358.435	358.666	57	46
358.435	358.666	88	65
358.666	359.132	56	52
358.666	359.132	88	70
358.779	359.132	86	70
358.893	359.132	57	44
358.893	359.132	85	69
359.008	359.122	83	69
359.122	359.59	59	51
359.122	359.59	83	68
359.237	359.59	81	67
359.351	359.59	52	44
359.351	359.59	80	67
359.466	359.59	78	66
359.58	360.107	54	50
359.58	360.107	76	66
359.697	359.933	74	65
359.814	360.107	56	46
359.814	360.053	73	65
359.933	360.107	74	64
360.053	360.518	57	51
360.053	360.169	73	63
360.169	360.527	76	64
360.285	360.518	74	60
360.401	360.527	73	61
360.518	360.972	54	40
360.518	360.972	57	48
360.518	360.98	74	62
360.631	360.98	76	63
360.745	360.98	78	64
360.859	360.98	80	66
360.972	361.442	50	44
360.972	361.442	54	44
360.972	361.433	57	52
360.972	361.442	81	67
361.088	361.442	83	68
361.203	361.442	85	70
361.318	361.442	86	71
361.433	361.892	49	47
361.433	361.892	52	47
361.433	361.892	57	56
361.433	361.892	88	72
361.547	361.892	86	71
361.66	361.892	85	69
361.772	361.892	83	68
361.883	362.336	81	66
361.994	362.336	80	65
362.105	362.336	78	63
362.216	362.336	76	62
362.327	362.81	74	60
362.437	362.81	73	59
362.55	362.81	71	57
362.664	362.81	69	56
362.8	363.315	50	38
362.8	363.315	59	45
362.8	362.926	80	59
362.863	362.989	78	55
362.926	363.178	80	59
362.989	363.115	78	55
363.052	363.315	76	59
363.115	363.315	78	55
363.178	363.315	80	55
363.241	363.315	81	55
363.304	364.392	52	33
363.304	363.853	61	39
363.304	363.853	69	59
363.769	363.853	73	50
363.841	364.392	62	39
363.841	364.392	68	53
363.841	364.392	71	53
364.392	365.01	57	35
364.392	365.01	61	42
364.392	365.01	69	51
365.01	365.629	45	35
