# onset,offset,note,velocity
0.500004	0.767863	67.000000	53.000000
0.500004	0.767863	71.000000	49.000000
0.500004	1.303554	43.000000	35.000000
0.500004	1.303554	55.000000	41.000000
0.501117	0.767863	62.000000	49.000000
0.767863	0.901786	62.000000	46.000000
0.767863	0.901786	67.000000	49.000000
0.767863	1.035709	71.000000	46.000000
0.901786	1.035709	66.000000	49.000000
1.035709	1.303554	65.000000	53.000000
1.035709	1.303554	71.000000	49.000000
1.303554	1.437477	64.000000	49.000000
1.303554	1.571413	71.000000	46.000000
1.303554	1.571413	38.000000	29.000000
1.303554	1.571413	50.000000	36.000000
1.437477	1.571413	63.000000	53.000000
1.571413	1.839272	62.000000	57.000000
1.571413	1.839272	66.000000	51.000000
1.571413	1.839272	72.000000	51.000000
1.571413	1.839272	45.000000	33.000000
1.571413	1.839272	57.000000	39.000000
1.839272	1.977849	66.000000	51.000000
1.839272	2.116425	72.000000	48.000000
1.839272	2.116425	38.000000	37.000000
1.839272	2.116425	50.000000	44.000000
1.977849	2.116425	62.000000	51.000000
2.116425	2.384284	62.000000	53.000000
2.116425	2.384284	67.000000	59.000000
2.116425	2.384284	71.000000	53.000000
2.116425	2.919975	43.000000	39.000000
2.116425	2.919975	55.000000	47.000000
2.384284	2.518207	62.000000	49.000000
2.384284	2.518207	67.000000	53.000000
2.384284	2.652130	71.000000	49.000000
2.518207	2.652130	66.000000	53.000000
2.652130	2.919975	65.000000	58.000000
2.652130	2.919975	71.000000	52.000000
2.919975	3.055709	64.000000	49.000000
2.919975	3.191442	71.000000	46.000000
2.919975	3.191442	38.000000	38.000000
2.919975	3.191442	50.000000	45.000000
3.055709	3.191442	63.000000	50.000000
3.191442	3.467428	62.000000	57.000000
3.191442	3.467428	66.000000	51.000000
3.191442	3.467428	72.000000	51.000000
3.191442	3.467428	45.000000	35.000000
3.191442	3.467428	57.000000	41.000000
3.467428	3.613059	66.000000	50.000000
3.467428	3.758689	72.000000	47.000000
3.467428	3.758689	38.000000	33.000000
3.467428	3.758689	50.000000	39.000000
3.613059	3.758689	62.000000	50.000000
3.758689	4.864739	67.000000	44.000000
3.758689	4.864739	71.000000	44.000000
3.758689	4.864739	74.000000	51.000000
3.758689	4.864739	79.000000	68.000000
3.758689	4.864739	43.000000	35.000000
3.758689	4.864739	55.000000	41.000000
4.036472	4.172836	50.000000	44.000000
4.172836	4.309200	52.000000	44.000000
4.309200	4.448084	50.000000	47.000000
4.586969	4.725854	50.000000	44.000000
4.864739	5.277585	66.000000	40.000000
4.864739	5.277585	72.000000	49.000000
4.864739	5.277585	78.000000	59.000000
4.864739	5.426729	43.000000	35.000000
4.864739	5.426729	57.000000	41.000000
5.139974	5.426729	50.000000	41.000000
5.277585	5.426729	74.000000	57.000000
5.426729	5.707101	76.000000	61.000000
5.426729	6.534134	67.000000	51.000000
5.426729	6.534134	71.000000	51.000000
5.426729	6.534134	43.000000	41.000000
5.426729	6.534134	59.000000	41.000000
5.707101	5.797599	76.000000	53.000000
5.707101	5.842847	50.000000	44.000000
5.797599	5.888096	78.000000	53.000000
5.842847	5.978594	52.000000	44.000000
5.888096	5.978594	76.000000	53.000000
5.978594	6.534134	74.000000	58.000000
5.978594	6.117479	50.000000	47.000000
6.256364	6.395249	50.000000	44.000000
6.534134	6.964374	60.000000	35.000000
6.534134	6.964374	72.000000	51.000000
6.534134	6.964374	62.000000	35.000000
6.534134	6.964374	66.000000	35.000000
6.534134	6.964374	69.000000	35.000000
6.534134	7.111600	43.000000	35.000000
6.534134	7.111600	57.000000	41.000000
6.817147	7.111600	50.000000	36.000000
6.964374	7.111600	69.000000	48.000000
7.111600	7.254643	71.000000	57.000000
7.111600	7.973690	62.000000	39.000000
7.111600	7.973690	67.000000	39.000000
7.111600	8.256716	43.000000	30.000000
7.111600	8.256716	55.000000	37.000000
7.254643	7.397685	72.000000	50.000000
7.397685	7.683769	74.000000	53.000000
7.397685	7.540727	50.000000	39.000000
7.540727	7.683769	52.000000	39.000000
7.683769	8.256716	74.000000	53.000000
7.683769	7.828729	50.000000	41.000000
7.973690	8.115203	59.000000	38.000000
7.973690	8.115203	50.000000	39.000000
8.115203	8.256716	62.000000	34.000000
8.256716	8.400858	60.000000	38.000000
8.256716	8.833284	43.000000	37.000000
8.256716	8.833284	54.000000	37.000000
8.400858	8.545000	62.000000	34.000000
8.545000	8.689142	60.000000	38.000000
8.545000	8.833284	50.000000	37.000000
8.689142	8.833284	62.000000	34.000000
8.833284	9.128998	59.000000	42.000000
8.833284	10.009420	43.000000	35.000000
8.833284	10.009420	55.000000	41.000000
9.128998	10.009420	59.000000	38.000000
9.128998	9.276855	62.000000	38.000000
9.128998	9.276855	50.000000	44.000000
9.276855	9.424283	64.000000	35.000000
9.276855	9.424283	52.000000	44.000000
9.424283	9.568599	62.000000	40.000000
9.424283	9.568599	50.000000	47.000000
9.568599	9.712915	64.000000	36.000000
9.712915	9.861161	67.000000	42.000000
9.712915	9.861161	50.000000	44.000000
9.861161	10.009420	64.000000	39.000000
10.009420	10.617706	60.000000	40.000000
10.009420	10.299743	66.000000	46.000000
10.009420	10.617706	43.000000	37.000000
10.009420	10.617706	57.000000	41.000000
10.299743	10.452870	64.000000	42.000000
10.299743	10.617706	50.000000	41.000000
10.452870	10.617706	62.000000	42.000000
10.617706	11.722374	67.000000	48.000000
10.617706	11.722374	71.000000	48.000000
10.617706	11.722374	74.000000	57.000000
10.617706	11.722374	79.000000	73.000000
10.617706	11.722374	43.000000	38.000000
10.617706	11.722374	55.000000	46.000000
10.896562	11.031691	50.000000	48.000000
11.031691	11.166835	52.000000	48.000000
11.166835	11.305720	50.000000	50.000000
11.444604	11.583489	50.000000	48.000000
11.722374	12.134147	66.000000	40.000000
11.722374	12.134147	72.000000	53.000000
11.722374	12.134147	78.000000	60.000000
11.722374	12.283291	43.000000	35.000000
11.722374	12.283291	57.000000	41.000000
11.997167	12.283291	50.000000	41.000000
12.134147	12.283291	74.000000	59.000000
12.283291	12.562148	76.000000	61.000000
12.283291	13.387973	67.000000	51.000000
12.283291	13.387973	71.000000	51.000000
12.283291	13.387973	43.000000	41.000000
12.283291	13.387973	59.000000	41.000000
12.562148	12.652243	76.000000	53.000000
12.562148	12.697291	50.000000	44.000000
12.652243	12.742338	78.000000	53.000000
12.697291	12.832434	52.000000	44.000000
12.742338	12.832434	76.000000	53.000000
12.832434	13.387973	74.000000	58.000000
12.832434	12.971319	50.000000	47.000000
13.110204	13.249089	50.000000	44.000000
13.387973	13.814592	60.000000	35.000000
13.387973	13.814592	72.000000	51.000000
13.387973	13.814592	62.000000	35.000000
13.387973	13.814592	66.000000	35.000000
13.387973	13.814592	69.000000	35.000000
13.387973	13.959526	43.000000	35.000000
13.387973	13.959526	57.000000	41.000000
13.669659	13.959526	50.000000	36.000000
13.814592	13.959526	69.000000	48.000000
13.959526	14.102568	71.000000	57.000000
13.959526	14.821615	62.000000	39.000000
13.959526	14.821615	67.000000	39.000000
13.959526	15.104655	43.000000	30.000000
13.959526	15.104655	55.000000	37.000000
14.102568	14.245610	72.000000	50.000000
14.245610	14.531695	74.000000	53.000000
14.245610	14.388653	50.000000	39.000000
14.388653	14.531695	52.000000	39.000000
14.531695	15.104655	74.000000	53.000000
14.531695	14.676655	50.000000	41.000000
14.821615	14.963128	59.000000	38.000000
14.821615	14.963128	50.000000	39.000000
14.963128	15.104655	62.000000	34.000000
15.104655	15.248797	60.000000	38.000000
15.104655	15.681223	43.000000	37.000000
15.104655	15.681223	54.000000	37.000000
15.248797	15.392939	62.000000	34.000000
15.392939	15.537081	60.000000	38.000000
15.392939	15.681223	50.000000	37.000000
15.537081	15.681223	62.000000	34.000000
15.681223	15.976937	59.000000	42.000000
15.681223	16.857359	43.000000	35.000000
15.681223	16.857359	55.000000	41.000000
15.976937	16.857359	59.000000	38.000000
15.976937	16.124794	62.000000	38.000000
15.976937	16.124794	50.000000	44.000000
16.124794	16.272222	64.000000	35.000000
16.124794	16.272222	52.000000	44.000000
16.272222	16.416538	62.000000	40.000000
16.272222	16.416538	50.000000	47.000000
16.416538	16.560854	64.000000	36.000000
16.560854	16.709100	67.000000	42.000000
16.560854	16.709100	50.000000	44.000000
16.709100	16.857359	64.000000	39.000000
16.857359	17.447768	60.000000	38.000000
16.857359	17.147682	66.000000	46.000000
16.857359	17.447768	43.000000	35.000000
16.857359	17.447768	57.000000	41.000000
17.147682	17.294707	64.000000	42.000000
17.147682	17.447768	50.000000	41.000000
17.294707	17.447768	62.000000	42.000000
17.447768	18.556486	67.000000	49.000000
17.447768	18.556486	74.000000	59.000000
17.447768	18.556486	79.000000	70.000000
17.447768	18.556486	43.000000	39.000000
17.447768	18.556486	58.000000	48.000000
17.729453	17.865200	50.000000	49.000000
17.865200	18.000947	51.000000	49.000000
18.000947	18.139832	50.000000	52.000000
18.278716	18.417601	50.000000	49.000000
18.556486	18.967441	65.000000	42.000000
18.556486	18.967441	69.000000	50.000000
18.556486	18.967441	77.000000	62.000000
18.556486	19.116585	41.000000	36.000000
18.556486	19.116585	63.000000	44.000000
18.830461	19.116585	53.000000	44.000000
18.967441	19.116585	72.000000	60.000000
19.116585	19.395442	74.000000	64.000000
19.116585	20.218733	65.000000	53.000000
19.116585	20.218733	70.000000	53.000000
19.116585	20.218733	46.000000	44.000000
19.116585	20.218733	62.000000	44.000000
19.395442	19.530571	74.000000	59.000000
19.395442	19.530571	53.000000	46.000000
19.530571	19.665714	75.000000	59.000000
19.530571	19.665714	55.000000	46.000000
19.665714	20.218733	77.000000	64.000000
19.665714	19.803969	53.000000	49.000000
19.942224	20.080478	53.000000	46.000000
20.218733	20.654257	75.000000	59.000000
20.218733	20.654257	65.000000	36.000000
20.218733	20.654257	69.000000	36.000000
20.218733	20.801483	46.000000	36.000000
20.218733	20.801483	63.000000	44.000000
20.507030	20.801483	53.000000	37.000000
20.654257	20.801483	72.000000	49.000000
20.801483	20.939738	74.000000	64.000000
20.801483	21.895088	70.000000	41.000000
20.801483	21.895088	65.000000	38.000000
20.801483	21.895088	46.000000	36.000000
20.801483	21.895088	62.000000	44.000000
20.939738	21.077992	75.000000	57.000000
21.077992	21.216247	74.000000	60.000000
21.077992	21.216247	53.000000	46.000000
21.216247	21.354501	75.000000	55.000000
21.216247	21.354501	55.000000	46.000000
21.354501	21.490865	77.000000	62.000000
21.354501	21.490865	53.000000	49.000000
21.490865	21.627229	79.000000	56.000000
21.627229	21.761151	81.000000	61.000000
21.627229	21.761151	53.000000	46.000000
21.761151	21.895088	79.000000	53.000000
21.895088	22.460578	69.000000	39.000000
21.895088	22.036145	77.000000	61.000000
21.895088	22.460578	46.000000	36.000000
21.895088	22.460578	63.000000	44.000000
22.036145	22.177203	75.000000	61.000000
22.177203	22.318260	74.000000	67.000000
22.177203	22.460578	53.000000	44.000000
22.318260	22.460578	72.000000	61.000000
22.460578	22.599476	74.000000	69.000000
22.460578	23.565488	70.000000	45.000000
22.460578	23.565488	65.000000	45.000000
22.460578	23.565488	46.000000	36.000000
22.460578	23.565488	62.000000	44.000000
22.599476	22.738361	75.000000	59.000000
22.738361	22.877246	74.000000	64.000000
22.738361	22.877246	53.000000	46.000000
22.877246	23.018760	75.000000	55.000000
22.877246	23.018760	55.000000	46.000000
23.018760	23.154506	77.000000	62.000000
23.018760	23.154506	53.000000	49.000000
23.154506	23.290253	79.000000	56.000000
23.290253	23.427864	81.000000	61.000000
23.290253	23.427864	53.000000	46.000000
23.427864	23.565488	79.000000	53.000000
23.565488	24.140219	69.000000	55.000000
23.565488	23.706371	77.000000	59.000000
23.565488	24.140219	46.000000	40.000000
23.565488	24.140219	63.000000	40.000000
23.706371	23.848689	75.000000	59.000000
23.848689	23.992469	74.000000	57.000000
23.848689	24.140219	53.000000	38.000000
23.992469	24.140219	72.000000	56.000000
24.140219	25.255683	65.000000	44.000000
24.140219	25.255683	70.000000	52.000000
24.140219	25.255683	74.000000	67.000000
24.140219	25.255683	46.000000	35.000000
24.140219	25.255683	62.000000	42.000000
24.419075	24.558509	53.000000	39.000000
24.558509	24.697944	55.000000	39.000000
24.697944	24.837379	53.000000	44.000000
24.976814	25.116248	53.000000	39.000000
25.255683	25.540319	72.000000	50.000000
25.255683	25.831782	62.000000	42.000000
25.255683	25.831782	66.000000	42.000000
25.255683	25.540319	74.000000	56.000000
25.255683	25.831782	45.000000	31.000000
25.255683	25.540319	57.000000	39.000000
25.540319	25.682637	74.000000	51.000000
25.540319	25.831782	50.000000	39.000000
25.682637	25.831782	72.000000	51.000000
25.831782	26.955051	62.000000	44.000000
25.831782	26.955051	67.000000	52.000000
25.831782	26.669155	71.000000	61.000000
25.831782	26.955051	43.000000	35.000000
25.831782	26.110638	55.000000	42.000000
26.110638	26.250073	55.000000	39.000000
26.250073	26.389507	56.000000	39.000000
26.389507	26.529331	55.000000	44.000000
26.669155	26.812103	72.000000	51.000000
26.669155	26.812103	55.000000	39.000000
26.812103	26.955051	74.000000	51.000000
26.955051	27.522486	67.000000	42.000000
26.955051	27.522486	72.000000	42.000000
26.955051	27.233907	75.000000	56.000000
26.955051	27.522486	48.000000	31.000000
26.955051	27.233907	55.000000	39.000000
27.233907	27.373342	77.000000	51.000000
27.233907	27.522486	57.000000	39.000000
27.373342	27.522486	75.000000	51.000000
27.522486	28.083457	67.000000	52.000000
27.522486	27.801343	74.000000	67.000000
27.522486	28.661796	50.000000	35.000000
27.522486	27.801343	59.000000	42.000000
27.801343	27.942400	71.000000	51.000000
27.801343	27.942400	62.000000	39.000000
27.942400	28.083457	72.000000	51.000000
27.942400	28.083457	64.000000	39.000000
28.083457	28.375899	71.000000	47.000000
28.083457	28.661796	67.000000	44.000000
28.083457	28.375899	74.000000	60.000000
28.083457	28.229678	62.000000	44.000000
28.375899	28.518847	71.000000	49.000000
28.375899	28.518847	62.000000	39.000000
28.518847	28.661796	72.000000	49.000000
28.661796	29.246397	62.000000	40.000000
28.661796	29.246397	66.000000	40.000000
28.661796	28.948980	71.000000	53.000000
28.661796	29.246397	50.000000	31.000000
28.661796	28.948980	60.000000	39.000000
28.948980	29.097239	69.000000	49.000000
28.948980	29.246397	60.000000	37.000000
29.097239	29.246397	71.000000	49.000000
29.246397	29.521619	62.000000	49.000000
29.246397	29.521619	67.000000	53.000000
29.246397	30.057310	43.000000	35.000000
29.246397	30.057310	59.000000	41.000000
29.521619	29.655541	62.000000	46.000000
29.521619	29.655541	67.000000	49.000000
29.521619	29.789464	71.000000	46.000000
29.655541	29.789464	66.000000	49.000000
29.789464	30.057310	65.000000	53.000000
29.789464	30.057310	71.000000	49.000000
30.057310	30.191233	64.000000	49.000000
30.057310	30.325169	71.000000	46.000000
30.057310	30.325169	38.000000	29.000000
30.057310	30.325169	50.000000	36.000000
30.191233	30.325169	63.000000	53.000000
30.325169	30.593028	62.000000	57.000000
30.325169	30.593028	66.000000	51.000000
30.325169	30.593028	72.000000	51.000000
30.325169	30.593028	45.000000	33.000000
30.325169	30.593028	57.000000	39.000000
30.593028	30.731604	66.000000	51.000000
30.593028	30.870181	72.000000	48.000000
30.593028	30.870181	38.000000	37.000000
30.593028	30.870181	50.000000	44.000000
30.731604	30.870181	62.000000	51.000000
30.870181	31.138040	62.000000	53.000000
30.870181	31.138040	67.000000	59.000000
30.870181	31.138040	71.000000	53.000000
30.870181	31.673731	43.000000	39.000000
30.870181	31.673731	55.000000	47.000000
31.138040	31.271962	62.000000	49.000000
31.138040	31.271962	67.000000	53.000000
31.138040	31.405885	71.000000	49.000000
31.271962	31.405885	66.000000	53.000000
31.405885	31.673731	65.000000	58.000000
31.405885	31.673731	71.000000	52.000000
31.673731	31.809464	64.000000	49.000000
31.673731	31.945197	71.000000	46.000000
31.673731	31.945197	38.000000	38.000000
31.673731	31.945197	50.000000	45.000000
31.809464	31.945197	63.000000	50.000000
31.945197	32.213056	62.000000	57.000000
31.945197	32.213056	66.000000	51.000000
31.945197	32.213056	72.000000	51.000000
31.945197	32.213056	45.000000	35.000000
31.945197	32.213056	57.000000	41.000000
32.213056	32.349420	66.000000	50.000000
32.213056	32.485783	72.000000	47.000000
32.213056	32.485783	38.000000	33.000000
32.213056	32.485783	50.000000	39.000000
32.349420	32.485783	62.000000	50.000000
32.485783	32.750102	62.000000	53.000000
32.485783	32.750102	67.000000	59.000000
32.485783	32.750102	71.000000	53.000000
32.485783	32.617949	43.000000	39.000000
32.485783	32.617949	55.000000	47.000000
32.750102	32.882254	62.000000	49.000000
32.750102	32.882254	67.000000	53.000000
32.750102	33.014420	71.000000	49.000000
32.882254	33.014420	66.000000	53.000000
33.014420	33.278725	62.000000	52.000000
33.014420	33.278725	67.000000	52.000000
33.014420	33.278725	71.000000	58.000000
33.014420	33.146573	55.000000	47.000000
33.278725	33.412648	71.000000	49.000000
33.278725	33.412648	67.000000	46.000000
33.278725	33.546571	74.000000	46.000000
33.412648	33.546571	70.000000	50.000000
33.546571	33.808569	67.000000	51.000000
33.546571	33.808569	71.000000	51.000000
33.546571	33.808569	74.000000	57.000000
33.546571	33.677570	62.000000	41.000000
33.808569	33.941902	71.000000	47.000000
33.808569	33.941902	74.000000	50.000000
33.808569	34.075235	79.000000	47.000000
33.941902	34.075235	73.000000	50.000000
34.075235	34.336106	74.000000	53.000000
34.075235	34.336106	79.000000	59.000000
34.075235	34.336106	83.000000	53.000000
34.075235	34.205671	67.000000	47.000000
34.336106	34.466542	74.000000	49.000000
34.336106	34.466542	79.000000	53.000000
34.336106	34.596978	83.000000	49.000000
34.466542	34.596978	78.000000	53.000000
34.596978	34.857837	74.000000	52.000000
34.596978	34.857837	79.000000	52.000000
34.596978	34.857837	83.000000	58.000000
34.596978	34.727401	71.000000	47.000000
34.857837	34.990579	83.000000	49.000000
34.857837	34.990579	79.000000	46.000000
34.857837	35.123322	86.000000	46.000000
34.990579	35.123322	82.000000	50.000000
35.123322	35.384207	79.000000	50.000000
35.123322	35.384207	83.000000	50.000000
35.123322	35.384207	86.000000	50.000000
35.123322	35.253771	74.000000	41.000000
35.384207	35.512967	83.000000	46.000000
35.384207	35.512967	86.000000	49.000000
35.384207	35.641726	91.000000	46.000000
35.512967	35.641726	85.000000	49.000000
35.641726	35.901471	83.000000	50.000000
35.641726	35.901471	86.000000	56.000000
35.641726	35.901471	91.000000	50.000000
35.641726	35.771599	79.000000	41.000000
35.901471	36.031344	83.000000	45.000000
35.901471	36.031344	86.000000	49.000000
35.901471	36.161217	91.000000	45.000000
36.031344	36.161217	82.000000	48.000000
36.161217	36.420962	83.000000	48.000000
36.161217	36.420962	86.000000	51.000000
36.161217	36.420962	91.000000	48.000000
36.161217	36.291089	79.000000	39.000000
36.420962	36.550835	83.000000	42.000000
36.420962	36.550835	86.000000	47.000000
36.420962	36.680707	91.000000	42.000000
36.550835	36.680707	82.000000	46.000000
36.680707	36.940453	83.000000	46.000000
36.680707	36.940453	86.000000	49.000000
36.680707	36.940453	91.000000	46.000000
36.680707	36.810580	79.000000	38.000000
36.940453	37.073785	83.000000	39.000000
36.940453	37.073785	86.000000	44.000000
36.940453	37.207118	91.000000	39.000000
37.073785	37.207118	82.000000	44.000000
37.207118	37.467990	83.000000	44.000000
37.207118	37.467990	86.000000	48.000000
37.207118	37.467990	91.000000	44.000000
37.207118	37.337554	79.000000	36.000000
37.467990	37.601913	83.000000	38.000000
37.467990	37.601913	86.000000	40.000000
37.467990	37.736130	91.000000	38.000000
37.601913	37.736130	82.000000	40.000000
37.736130	38.003386	83.000000	40.000000
37.736130	38.003386	86.000000	45.000000
37.736130	38.003386	91.000000	40.000000
37.736130	37.868873	79.000000	34.000000
38.003386	38.141158	83.000000	36.000000
38.003386	38.141158	86.000000	39.000000
38.003386	38.278929	91.000000	36.000000
38.141158	38.278929	82.000000	38.000000
38.278929	38.552877	83.000000	39.000000
38.278929	38.552877	86.000000	42.000000
38.278929	38.552877	91.000000	39.000000
38.278929	38.416299	79.000000	31.000000
38.552877	38.692500	83.000000	34.000000
38.552877	38.692500	86.000000	37.000000
38.552877	38.832122	91.000000	34.000000
38.692500	38.832122	82.000000	36.000000
38.832122	39.338939	83.000000	33.000000
38.832122	39.338939	86.000000	33.000000
38.832122	39.338939	91.000000	33.000000
38.832122	39.083338	79.000000	31.000000
39.083338	39.210394	43.000000	49.000000
39.210394	39.338939	43.000000	42.000000
39.338939	39.469429	43.000000	49.000000
39.469429	39.600374	43.000000	42.000000
39.600374	39.733372	43.000000	49.000000
39.733372	39.867442	43.000000	42.000000
39.867442	40.004597	43.000000	49.000000
40.004597	40.144648	43.000000	42.000000
40.144648	40.281160	43.000000	49.000000
40.281160	40.418328	43.000000	42.000000
40.418328	40.689835	43.000000	49.000000
40.689835	40.826346	43.000000	42.000000
40.826346	40.962964	43.000000	42.000000
40.962964	41.234672	43.000000	45.000000
41.234672	41.372082	43.000000	40.000000
41.372082	41.510752	43.000000	40.000000
41.510752	41.791566	43.000000	44.000000
41.791566	42.099497	43.000000	38.000000
42.099497	43.204568	75.000000	61.000000
42.099497	43.204568	79.000000	61.000000
42.099497	43.204568	82.000000	72.000000
42.099497	43.204568	87.000000	92.000000
42.099497	43.204568	39.000000	48.000000
42.099497	43.204568	51.000000	58.000000
42.381183	42.515106	46.000000	56.000000
42.515106	42.649029	48.000000	56.000000
42.649029	42.787914	46.000000	59.000000
42.926798	43.065683	46.000000	56.000000
43.204568	43.617414	74.000000	52.000000
43.204568	43.617414	80.000000	62.000000
43.204568	43.617414	86.000000	80.000000
43.204568	43.766558	39.000000	44.000000
43.204568	43.766558	53.000000	53.000000
43.479803	43.766558	46.000000	53.000000
43.617414	43.766558	82.000000	68.000000
43.766558	44.045414	84.000000	67.000000
43.766558	44.870020	75.000000	60.000000
43.766558	44.870020	79.000000	60.000000
43.766558	44.870020	39.000000	53.000000
43.766558	44.870020	55.000000	53.000000
44.045414	44.135094	84.000000	59.000000
44.045414	44.179941	46.000000	56.000000
44.135094	44.224787	86.000000	59.000000
44.179941	44.314480	48.000000	56.000000
44.224787	44.314480	84.000000	59.000000
44.314480	44.870020	82.000000	66.000000
44.314480	44.453365	46.000000	59.000000
44.592250	44.731135	46.000000	56.000000
44.870020	45.298610	80.000000	64.000000
44.870020	45.298610	70.000000	48.000000
44.870020	45.298610	74.000000	48.000000
44.870020	45.442846	39.000000	44.000000
44.870020	45.442846	53.000000	53.000000
45.154374	45.442846	46.000000	46.000000
45.298610	45.442846	77.000000	57.000000
45.442846	45.585888	79.000000	68.000000
45.442846	46.304936	70.000000	51.000000
45.442846	46.304936	75.000000	51.000000
45.442846	46.586621	39.000000	39.000000
45.442846	46.586621	51.000000	47.000000
45.585888	45.728931	80.000000	60.000000
45.728931	46.015015	82.000000	65.000000
45.728931	45.871973	46.000000	50.000000
45.871973	46.015015	48.000000	50.000000
46.015015	46.586621	82.000000	65.000000
46.015015	46.159975	46.000000	53.000000
46.304936	46.445778	55.000000	42.000000
46.304936	46.445778	46.000000	44.000000
46.445778	46.586621	58.000000	38.000000
46.586621	46.730763	56.000000	42.000000
46.586621	47.163189	39.000000	41.000000
46.586621	47.163189	50.000000	41.000000
46.730763	46.874905	58.000000	38.000000
46.874905	47.019047	56.000000	42.000000
46.874905	47.163189	46.000000	41.000000
47.019047	47.163189	58.000000	38.000000
47.163189	47.458903	55.000000	48.000000
47.163189	48.339325	39.000000	39.000000
47.163189	48.339325	51.000000	47.000000
47.458903	48.339325	55.000000	42.000000
47.458903	47.606760	58.000000	42.000000
47.458903	47.606760	46.000000	49.000000
47.606760	47.754188	60.000000	39.000000
47.606760	47.754188	48.000000	49.000000
47.754188	47.898504	58.000000	46.000000
47.754188	47.898504	46.000000	52.000000
47.898504	48.042820	60.000000	40.000000
48.042820	48.191066	63.000000	48.000000
48.042820	48.191066	46.000000	49.000000
48.191066	48.339325	60.000000	44.000000
48.339325	48.943440	56.000000	46.000000
48.339325	48.629648	62.000000	51.000000
48.339325	48.943440	39.000000	41.000000
48.339325	48.943440	53.000000	47.000000
48.629648	48.782775	60.000000	48.000000
48.629648	48.943440	46.000000	47.000000
48.782775	48.943440	58.000000	48.000000
48.943440	50.045681	75.000000	61.000000
48.943440	50.045681	79.000000	61.000000
48.943440	50.045681	82.000000	72.000000
48.943440	50.045681	87.000000	89.000000
48.943440	50.045681	39.000000	48.000000
48.943440	50.045681	51.000000	58.000000
49.222296	49.356219	46.000000	56.000000
49.356219	49.490141	48.000000	56.000000
49.490141	49.629026	46.000000	59.000000
49.767911	49.906796	46.000000	56.000000
50.045681	50.456636	74.000000	52.000000
50.045681	50.456636	80.000000	62.000000
50.045681	50.456636	86.000000	80.000000
50.045681	50.605780	39.000000	44.000000
50.045681	50.605780	53.000000	53.000000
50.319655	50.605780	46.000000	53.000000
50.456636	50.605780	82.000000	68.000000
50.605780	50.884636	84.000000	71.000000
50.605780	51.729224	75.000000	60.000000
50.605780	51.729224	79.000000	57.000000
50.605780	51.729224	39.000000	53.000000
50.605780	51.729224	55.000000	53.000000
50.884636	50.974732	84.000000	57.000000
50.884636	51.019779	46.000000	56.000000
50.974732	51.064827	86.000000	57.000000
51.019779	51.154922	48.000000	56.000000
51.064827	51.154922	84.000000	57.000000
51.154922	51.729224	82.000000	65.000000
51.154922	51.293807	46.000000	59.000000
51.432692	51.580951	46.000000	56.000000
51.729224	52.164748	67.000000	41.000000
51.729224	52.164748	81.000000	61.000000
51.729224	52.164748	69.000000	41.000000
51.729224	52.164748	73.000000	41.000000
51.729224	52.311975	39.000000	41.000000
51.729224	52.311975	51.000000	50.000000
52.017521	52.311975	45.000000	39.000000
52.164748	52.311975	79.000000	52.000000
52.311975	52.455017	78.000000	62.000000
52.311975	53.174064	69.000000	44.000000
52.311975	53.174064	74.000000	44.000000
52.311975	53.457091	38.000000	34.000000
52.311975	53.457091	50.000000	39.000000
52.455017	52.598059	79.000000	55.000000
52.598059	52.884144	81.000000	58.000000
52.598059	52.741101	45.000000	42.000000
52.741101	52.884144	47.000000	42.000000
52.884144	53.457091	81.000000	58.000000
52.884144	53.029104	45.000000	46.000000
53.174064	53.315577	54.000000	38.000000
53.174064	53.315577	45.000000	39.000000
53.315577	53.457091	57.000000	34.000000
53.457091	53.601233	55.000000	38.000000
53.457091	54.033659	38.000000	37.000000
53.457091	54.033659	52.000000	37.000000
53.601233	53.745375	57.000000	34.000000
53.745375	53.889517	55.000000	38.000000
53.745375	54.033659	45.000000	37.000000
53.889517	54.033659	57.000000	35.000000
54.033659	54.329373	54.000000	44.000000
54.033659	55.209795	38.000000	36.000000
54.033659	55.209795	50.000000	42.000000
54.329373	55.209795	54.000000	39.000000
54.329373	54.477229	57.000000	39.000000
54.329373	54.477229	45.000000	46.000000
54.477229	54.624657	59.000000	37.000000
54.477229	54.624657	47.000000	46.000000
54.624657	54.768973	57.000000	42.000000
54.624657	54.768973	45.000000	49.000000
54.768973	54.913290	59.000000	38.000000
54.913290	55.061536	57.000000	46.000000
54.913290	55.061536	45.000000	47.000000
55.061536	55.209795	59.000000	41.000000
55.209795	55.813909	55.000000	44.000000
55.209795	55.500117	61.000000	49.000000
55.209795	55.813909	38.000000	39.000000
55.209795	55.813909	52.000000	45.000000
55.500117	55.653245	59.000000	47.000000
55.500117	55.813909	45.000000	46.000000
55.653245	55.813909	57.000000	47.000000
55.813909	56.918578	74.000000	61.000000
55.813909	56.918578	78.000000	61.000000
55.813909	56.918578	81.000000	72.000000
55.813909	56.918578	86.000000	89.000000
55.813909	56.918578	38.000000	48.000000
55.813909	56.918578	50.000000	58.000000
56.092765	56.227895	45.000000	56.000000
56.227895	56.363038	47.000000	56.000000
56.363038	56.501923	45.000000	59.000000
56.640808	56.779693	45.000000	56.000000
56.918578	57.331424	73.000000	52.000000
56.918578	57.331424	79.000000	62.000000
56.918578	57.331424	85.000000	75.000000
56.918578	57.480568	38.000000	44.000000
56.918578	57.480568	52.000000	53.000000
57.193813	57.480568	45.000000	53.000000
57.331424	57.480568	81.000000	67.000000
57.480568	57.759424	83.000000	75.000000
57.480568	58.587691	74.000000	60.000000
57.480568	58.587691	78.000000	60.000000
57.480568	58.587691	38.000000	53.000000
57.480568	58.587691	54.000000	53.000000
57.759424	57.851156	83.000000	59.000000
57.759424	57.896404	45.000000	56.000000
57.851156	57.941653	85.000000	59.000000
57.896404	58.032151	47.000000	56.000000
57.941653	58.032151	83.000000	59.000000
58.032151	58.587691	81.000000	67.000000
58.032151	58.171036	45.000000	59.000000
58.309921	58.448806	45.000000	56.000000
58.587691	59.019272	67.000000	48.000000
58.587691	59.019272	79.000000	68.000000
58.587691	59.019272	69.000000	48.000000
58.587691	59.019272	73.000000	48.000000
58.587691	59.166498	38.000000	44.000000
58.587691	59.166498	52.000000	53.000000
58.872045	59.166498	45.000000	46.000000
59.019272	59.166498	76.000000	60.000000
59.166498	59.309541	78.000000	68.000000
59.166498	60.028588	69.000000	51.000000
59.166498	60.028588	74.000000	51.000000
59.166498	60.308959	38.000000	39.000000
59.166498	60.308959	50.000000	47.000000
59.309541	59.452583	79.000000	60.000000
59.452583	59.738667	81.000000	65.000000
59.452583	59.595625	45.000000	50.000000
59.595625	59.738667	47.000000	50.000000
59.738667	60.308959	81.000000	65.000000
59.738667	59.883628	45.000000	53.000000
60.028588	60.168773	54.000000	42.000000
60.028588	60.168773	45.000000	44.000000
60.168773	60.308959	57.000000	38.000000
60.308959	60.453101	55.000000	42.000000
60.308959	60.885527	38.000000	41.000000
60.308959	60.885527	52.000000	41.000000
60.453101	60.597243	57.000000	38.000000
60.597243	60.741385	55.000000	42.000000
60.597243	60.885527	45.000000	41.000000
60.741385	60.885527	57.000000	38.000000
60.885527	61.181241	54.000000	48.000000
60.885527	62.061663	38.000000	39.000000
60.885527	62.061663	50.000000	47.000000
61.181241	62.061663	54.000000	42.000000
61.181241	61.329098	57.000000	42.000000
61.181241	61.329098	45.000000	49.000000
61.329098	61.476525	59.000000	39.000000
61.329098	61.476525	47.000000	49.000000
61.476525	61.620842	57.000000	46.000000
61.476525	61.620842	45.000000	52.000000
61.620842	61.765158	59.000000	40.000000
61.765158	61.913404	62.000000	48.000000
61.765158	61.913404	45.000000	49.000000
61.913404	62.061663	59.000000	44.000000
62.061663	62.665777	55.000000	46.000000
62.061663	62.351986	61.000000	51.000000
62.061663	62.665777	38.000000	41.000000
62.061663	62.665777	52.000000	47.000000
62.351986	62.505113	59.000000	48.000000
62.351986	62.665777	45.000000	47.000000
62.505113	62.665777	57.000000	48.000000
62.665777	63.766838	74.000000	60.000000
62.665777	63.766838	78.000000	60.000000
62.665777	63.766838	81.000000	72.000000
62.665777	63.766838	86.000000	94.000000
62.665777	63.766838	38.000000	52.000000
62.665777	63.766838	50.000000	63.000000
62.944634	63.077966	45.000000	60.000000
63.077966	63.211299	47.000000	60.000000
63.211299	63.350184	45.000000	64.000000
63.489069	63.627954	45.000000	60.000000
63.766838	64.179684	73.000000	57.000000
63.766838	64.179684	79.000000	69.000000
63.766838	64.179684	85.000000	82.000000
63.766838	64.328829	40.000000	48.000000
63.766838	64.328829	52.000000	58.000000
64.042073	64.328829	45.000000	58.000000
64.179684	64.328829	69.000000	68.000000
64.179684	64.328829	81.000000	68.000000
64.328829	65.155727	71.000000	63.000000
64.328829	65.155727	83.000000	82.000000
64.328829	65.155727	74.000000	63.000000
64.328829	65.155727	78.000000	63.000000
64.328829	65.433497	42.000000	58.000000
64.328829	65.433497	54.000000	58.000000
64.607685	64.742814	45.000000	60.000000
64.742814	64.877958	47.000000	60.000000
64.877958	65.016842	45.000000	64.000000
65.155727	65.433497	74.000000	82.000000
65.155727	65.433497	86.000000	91.000000
65.155727	65.294612	45.000000	60.000000
65.433497	65.858037	85.000000	79.000000
65.433497	65.858037	73.000000	52.000000
65.433497	65.858037	79.000000	57.000000
65.433497	66.000892	40.000000	48.000000
65.433497	66.000892	52.000000	58.000000
65.715183	66.000892	45.000000	50.000000
65.858037	66.000892	69.000000	64.000000
65.858037	66.000892	81.000000	71.000000
66.000892	66.837487	71.000000	67.000000
66.000892	66.837487	83.000000	88.000000
66.000892	66.837487	74.000000	66.000000
66.000892	66.837487	78.000000	66.000000
66.000892	67.120862	42.000000	58.000000
66.000892	67.120862	54.000000	58.000000
66.279748	66.419183	45.000000	60.000000
66.419183	66.558617	47.000000	60.000000
66.558617	66.698052	45.000000	64.000000
66.837487	67.120862	74.000000	79.000000
66.837487	67.120862	86.000000	86.000000
66.837487	66.979175	45.000000	61.000000
67.120862	67.560544	84.000000	72.000000
67.120862	67.560544	72.000000	48.000000
67.120862	67.560544	79.000000	48.000000
67.120862	67.707770	39.000000	48.000000
67.120862	67.707770	51.000000	58.000000
67.413317	67.707770	45.000000	46.000000
67.560544	67.707770	69.000000	56.000000
67.560544	67.707770	81.000000	60.000000
67.707770	67.810513	72.000000	45.000000
67.707770	67.810513	63.000000	33.000000
67.844764	67.947506	74.000000	47.000000
67.844764	67.947506	65.000000	35.000000
67.981758	68.085922	75.000000	49.000000
67.981758	68.085922	67.000000	37.000000
68.120643	68.224807	77.000000	51.000000
68.120643	68.224807	69.000000	38.000000
68.259528	68.362270	75.000000	53.000000
68.259528	68.362270	67.000000	40.000000
68.396522	68.499264	77.000000	51.000000
68.396522	68.499264	69.000000	38.000000
68.533516	68.637679	75.000000	51.000000
68.533516	68.637679	67.000000	38.000000
68.672401	68.776564	74.000000	51.000000
68.672401	68.776564	65.000000	38.000000
68.811286	68.912177	72.000000	53.000000
68.811286	68.912177	63.000000	40.000000
68.945812	69.046703	74.000000	49.000000
68.945812	69.046703	65.000000	37.000000
69.080338	69.183080	72.000000	49.000000
69.080338	69.183080	63.000000	37.000000
69.217332	69.320074	70.000000	49.000000
69.217332	69.320074	62.000000	37.000000
69.354326	69.455217	69.000000	46.000000
69.354326	69.455217	60.000000	34.000000
69.488852	69.589744	70.000000	48.000000
69.488852	69.589744	62.000000	36.000000
69.623379	69.725651	72.000000	49.000000
69.623379	69.725651	63.000000	37.000000
69.759742	69.862015	74.000000	51.000000
69.759742	69.862015	65.000000	38.000000
69.896106	69.996555	72.000000	53.000000
69.896106	69.996555	63.000000	40.000000
70.030042	70.130491	74.000000	50.000000
70.030042	70.130491	65.000000	37.000000
70.163978	70.266251	72.000000	50.000000
70.163978	70.266251	63.000000	37.000000
70.300342	70.402561	70.000000	50.000000
70.300342	70.402561	62.000000	37.000000
70.436491	70.538294	69.000000	53.000000
70.436491	70.538294	60.000000	40.000000
70.572224	70.673571	70.000000	50.000000
70.572224	70.673571	62.000000	37.000000
70.707354	70.808245	69.000000	50.000000
70.707354	70.808245	60.000000	37.000000
70.841880	70.942530	67.000000	50.000000
70.841880	70.942530	58.000000	37.000000
70.976017	71.076211	66.000000	48.000000
70.976017	71.076211	57.000000	36.000000
71.109551	71.209504	67.000000	49.000000
71.109551	71.209504	58.000000	37.000000
71.242696	71.342206	69.000000	51.000000
71.242696	71.342206	60.000000	38.000000
71.375251	71.474319	70.000000	53.000000
71.375251	71.474319	62.000000	40.000000
71.507216	71.605707	72.000000	53.000000
71.507216	71.605707	63.000000	40.000000
71.638604	71.738020	70.000000	51.000000
71.638604	71.738020	62.000000	38.000000
71.771360	71.871661	69.000000	51.000000
71.771360	71.871661	60.000000	38.000000
71.905296	72.006697	67.000000	51.000000
71.905296	72.006697	58.000000	38.000000
72.040627	72.143155	65.000000	53.000000
72.040627	72.143155	57.000000	40.000000
72.177406	72.280940	67.000000	51.000000
72.177406	72.280940	58.000000	38.000000
72.315661	72.420093	65.000000	51.000000
72.315661	72.420093	57.000000	38.000000
72.454975	72.560413	63.000000	51.000000
72.454975	72.560413	55.000000	38.000000
72.595670	72.888353	62.000000	73.000000
72.595670	72.888353	66.000000	73.000000
72.595670	72.888353	69.000000	73.000000
72.595670	72.888353	74.000000	86.000000
72.595670	72.888353	38.000000	58.000000
72.595670	72.888353	50.000000	69.000000
72.888353	73.172708	66.000000	74.000000
72.888353	73.172708	69.000000	74.000000
72.888353	73.172708	74.000000	74.000000
72.888353	73.172708	78.000000	89.000000
72.888353	73.172708	62.000000	69.000000
72.888353	73.172708	50.000000	58.000000
73.172708	73.457062	69.000000	75.000000
73.172708	73.457062	74.000000	75.000000
73.172708	73.457062	78.000000	75.000000
73.172708	73.457062	81.000000	90.000000
73.172708	73.457062	45.000000	60.000000
73.172708	73.457062	57.000000	72.000000
73.457062	73.746915	86.000000	94.000000
73.457062	73.746915	81.000000	80.000000
73.457062	73.746915	78.000000	80.000000
73.457062	73.746915	74.000000	80.000000
73.457062	73.746915	42.000000	58.000000
73.457062	73.746915	54.000000	69.000000
73.746915	74.036782	87.000000	80.000000
73.746915	74.036782	91.000000	80.000000
73.746915	74.036782	94.000000	89.000000
73.746915	74.036782	99.000000	106.000000
73.746915	74.036782	37.000000	68.000000
73.746915	74.036782	49.000000	81.000000
74.036782	74.327896	63.000000	73.000000
74.036782	74.327896	67.000000	73.000000
74.036782	74.327896	70.000000	73.000000
74.036782	74.327896	75.000000	88.000000
74.036782	74.327896	49.000000	58.000000
74.036782	74.327896	55.000000	58.000000
74.036782	74.327896	61.000000	69.000000
74.327896	74.620579	62.000000	73.000000
74.327896	74.620579	66.000000	73.000000
74.327896	74.620579	69.000000	73.000000
74.327896	74.620579	74.000000	86.000000
74.327896	74.620579	38.000000	58.000000
74.327896	74.620579	50.000000	69.000000
74.620579	74.913261	66.000000	74.000000
74.620579	74.913261	69.000000	74.000000
74.620579	74.913261	74.000000	74.000000
74.620579	74.913261	78.000000	89.000000
74.620579	74.913261	62.000000	69.000000
74.620579	74.913261	50.000000	58.000000
74.913261	75.211765	69.000000	75.000000
74.913261	75.211765	74.000000	75.000000
74.913261	75.211765	78.000000	75.000000
74.913261	75.211765	81.000000	90.000000
74.913261	75.211765	45.000000	60.000000
74.913261	75.211765	57.000000	72.000000
75.211765	75.515351	86.000000	94.000000
75.211765	75.515351	81.000000	80.000000
75.211765	75.515351	78.000000	80.000000
75.211765	75.515351	74.000000	80.000000
75.211765	75.515351	42.000000	58.000000
75.211765	75.515351	54.000000	69.000000
75.515351	75.818937	87.000000	80.000000
75.515351	75.818937	91.000000	80.000000
75.515351	75.818937	94.000000	89.000000
75.515351	75.818937	99.000000	106.000000
75.515351	75.818937	37.000000	68.000000
75.515351	75.818937	49.000000	81.000000
75.818937	76.122509	63.000000	73.000000
75.818937	76.122509	67.000000	73.000000
75.818937	76.122509	70.000000	73.000000
75.818937	76.122509	75.000000	88.000000
75.818937	76.122509	49.000000	58.000000
75.818937	76.122509	55.000000	58.000000
75.818937	76.122509	61.000000	69.000000
76.122509	76.400279	57.000000	72.000000
76.122509	76.400279	62.000000	72.000000
76.122509	76.400279	66.000000	72.000000
76.122509	76.945733	38.000000	51.000000
76.122509	76.945733	50.000000	61.000000
76.400279	76.536643	57.000000	67.000000
76.400279	76.536643	62.000000	67.000000
76.400279	76.673006	66.000000	67.000000
76.536643	76.673006	61.000000	67.000000
76.673006	76.945733	60.000000	72.000000
76.673006	76.945733	66.000000	72.000000
76.945733	77.082097	59.000000	67.000000
76.945733	77.218461	66.000000	67.000000
76.945733	77.218461	33.000000	44.000000
76.945733	77.218461	45.000000	52.000000
77.082097	77.218461	58.000000	72.000000
77.218461	77.491188	57.000000	75.000000
77.218461	77.491188	61.000000	75.000000
77.218461	77.491188	67.000000	75.000000
77.218461	77.491188	40.000000	48.000000
77.218461	77.491188	52.000000	58.000000
77.491188	77.634123	61.000000	69.000000
77.491188	77.777058	67.000000	69.000000
77.491188	77.777058	33.000000	53.000000
77.491188	77.777058	45.000000	64.000000
77.634123	77.777058	57.000000	69.000000
77.777058	78.048551	57.000000	79.000000
77.777058	78.048551	62.000000	79.000000
77.777058	78.048551	66.000000	79.000000
77.777058	78.591538	38.000000	57.000000
77.777058	78.591538	50.000000	68.000000
78.048551	78.184298	57.000000	72.000000
78.048551	78.184298	62.000000	72.000000
78.048551	78.320045	66.000000	72.000000
78.184298	78.320045	61.000000	72.000000
78.320045	78.591538	60.000000	77.000000
78.320045	78.591538	66.000000	77.000000
78.591538	78.731536	59.000000	67.000000
78.591538	78.871534	66.000000	67.000000
78.591538	78.871534	33.000000	55.000000
78.591538	78.871534	45.000000	66.000000
78.731536	78.871534	58.000000	68.000000
78.871534	79.156224	57.000000	75.000000
78.871534	79.156224	61.000000	75.000000
78.871534	79.156224	67.000000	75.000000
78.871534	79.156224	40.000000	51.000000
78.871534	79.156224	52.000000	61.000000
79.156224	79.304724	61.000000	68.000000
79.156224	79.453225	67.000000	68.000000
79.156224	79.453225	33.000000	48.000000
79.156224	79.453225	45.000000	57.000000
79.304724	79.453225	57.000000	68.000000
79.453225	80.038725	57.000000	68.000000
79.453225	80.038725	62.000000	68.000000
79.453225	80.038725	66.000000	68.000000
79.453225	79.750226	38.000000	57.000000
79.750226	79.894475	50.000000	60.000000
79.894475	80.038725	50.000000	61.000000
80.038725	80.182317	50.000000	61.000000
80.182317	80.325909	50.000000	62.000000
80.325909	80.468858	50.000000	63.000000
80.468858	80.611806	50.000000	64.000000
80.611806	80.754124	50.000000	66.000000
80.754124	80.896026	50.000000	67.000000
80.896026	81.040946	50.000000	68.000000
81.040946	81.188226	50.000000	68.000000
81.188226	81.469067	72.000000	75.000000
81.188226	81.469067	74.000000	75.000000
81.188226	81.469067	78.000000	75.000000
81.188226	81.469067	81.000000	75.000000
81.188226	81.469067	86.000000	90.000000
81.188226	81.469067	38.000000	57.000000
81.188226	81.469067	50.000000	68.000000
81.469067	81.609494	72.000000	70.000000
81.469067	81.609494	74.000000	70.000000
81.469067	81.609494	78.000000	70.000000
81.469067	81.609494	81.000000	70.000000
81.469067	81.609494	86.000000	84.000000
81.469067	81.609494	38.000000	52.000000
81.469067	81.609494	50.000000	62.000000
81.609494	81.749922	72.000000	70.000000
81.609494	81.749922	74.000000	70.000000
81.609494	81.749922	78.000000	70.000000
81.609494	81.749922	81.000000	70.000000
81.609494	81.749922	86.000000	84.000000
81.609494	81.749922	38.000000	52.000000
81.609494	81.749922	50.000000	62.000000
81.749922	82.031406	72.000000	75.000000
81.749922	82.031406	74.000000	75.000000
81.749922	82.031406	78.000000	75.000000
81.749922	82.031406	81.000000	75.000000
81.749922	82.031406	86.000000	90.000000
81.749922	82.031406	38.000000	57.000000
81.749922	82.031406	50.000000	68.000000
82.031406	82.173295	72.000000	67.000000
82.031406	82.173295	74.000000	67.000000
82.031406	82.173295	78.000000	67.000000
82.031406	82.173295	81.000000	67.000000
82.031406	82.173295	86.000000	80.000000
82.031406	82.173295	38.000000	51.000000
82.031406	82.173295	50.000000	61.000000
82.173295	82.315828	72.000000	67.000000
82.173295	82.315828	74.000000	67.000000
82.173295	82.315828	78.000000	67.000000
82.173295	82.315828	81.000000	67.000000
82.173295	82.315828	86.000000	80.000000
82.173295	82.315828	38.000000	51.000000
82.173295	82.315828	50.000000	61.000000
82.315828	82.603240	72.000000	75.000000
82.315828	82.603240	74.000000	75.000000
82.315828	82.603240	78.000000	75.000000
82.315828	82.603240	81.000000	75.000000
82.315828	82.603240	86.000000	90.000000
82.315828	82.603240	38.000000	57.000000
82.315828	82.603240	50.000000	68.000000
82.603240	82.748133	72.000000	68.000000
82.603240	82.748133	74.000000	68.000000
82.603240	82.748133	78.000000	68.000000
82.603240	82.748133	81.000000	68.000000
82.603240	82.748133	86.000000	81.000000
82.603240	82.748133	38.000000	51.000000
82.603240	82.748133	50.000000	61.000000
82.748133	82.859673	72.000000	68.000000
82.748133	82.859673	74.000000	68.000000
82.748133	82.859673	78.000000	68.000000
82.748133	82.859673	81.000000	68.000000
82.748133	82.859673	86.000000	81.000000
82.748133	82.859673	38.000000	51.000000
82.748133	82.859673	50.000000	61.000000
82.859673	83.812086	43.000000	57.000000
82.878569	83.812086	50.000000	57.000000
82.898203	83.812086	55.000000	68.000000
82.918467	83.264150	74.000000	77.000000
82.939388	83.264150	79.000000	77.000000
82.961007	83.264150	83.000000	77.000000
82.983591	83.264150	86.000000	91.000000
83.007020	83.264150	91.000000	91.000000
83.264150	83.401131	62.000000	61.000000
83.264150	83.401131	67.000000	67.000000
83.264150	83.538111	71.000000	61.000000
83.401131	83.538111	66.000000	67.000000
83.538111	83.812086	65.000000	71.000000
83.538111	83.812086	71.000000	64.000000
83.812086	83.947215	64.000000	64.000000
83.812086	84.082345	71.000000	59.000000
83.812086	84.082345	38.000000	39.000000
83.812086	84.082345	50.000000	47.000000
83.947215	84.082345	63.000000	69.000000
84.082345	84.352618	62.000000	72.000000
84.082345	84.352618	66.000000	66.000000
84.082345	84.352618	72.000000	66.000000
84.082345	84.352618	45.000000	42.000000
84.082345	84.352618	57.000000	51.000000
84.352618	84.491195	66.000000	64.000000
84.352618	84.629771	72.000000	60.000000
84.352618	84.629771	38.000000	46.000000
84.352618	84.629771	50.000000	55.000000
84.491195	84.629771	62.000000	64.000000
84.629771	84.902498	62.000000	67.000000
84.629771	84.902498	67.000000	72.000000
84.629771	84.902498	71.000000	67.000000
84.629771	85.438189	43.000000	48.000000
84.629771	85.438189	55.000000	58.000000
84.902498	85.036421	62.000000	60.000000
84.902498	85.036421	67.000000	66.000000
84.902498	85.170344	71.000000	60.000000
85.036421	85.170344	66.000000	64.000000
85.170344	85.438189	65.000000	69.000000
85.170344	85.438189	71.000000	63.000000
85.438189	85.573923	64.000000	59.000000
85.438189	85.709656	71.000000	53.000000
85.438189	85.709656	38.000000	45.000000
85.438189	85.709656	50.000000	52.000000
85.573923	85.709656	63.000000	59.000000
85.709656	85.985642	62.000000	66.000000
85.709656	85.985642	66.000000	60.000000
85.709656	85.985642	72.000000	60.000000
85.709656	85.985642	45.000000	40.000000
85.709656	85.985642	57.000000	48.000000
85.985642	86.131273	66.000000	58.000000
85.985642	86.276903	72.000000	52.000000
85.985642	86.276903	38.000000	37.000000
85.985642	86.276903	50.000000	44.000000
86.131273	86.276903	62.000000	57.000000
86.276903	87.375000	67.000000	49.000000
86.276903	87.375000	71.000000	49.000000
86.276903	87.375000	74.000000	58.000000
86.276903	87.375000	79.000000	75.000000
86.276903	87.375000	43.000000	39.000000
86.276903	87.375000	55.000000	47.000000
86.558589	86.689025	50.000000	49.000000
86.689025	86.819461	52.000000	49.000000
86.819461	86.958346	50.000000	52.000000
87.097231	87.236115	50.000000	49.000000
87.375000	87.785955	66.000000	46.000000
87.375000	87.785955	72.000000	55.000000
87.375000	87.785955	78.000000	66.000000
87.375000	87.935100	43.000000	39.000000
87.375000	87.935100	57.000000	47.000000
87.648975	87.935100	50.000000	47.000000
87.785955	87.935100	74.000000	63.000000
87.935100	88.213956	76.000000	69.000000
87.935100	89.031494	67.000000	58.000000
87.935100	89.031494	71.000000	58.000000
87.935100	89.031494	43.000000	47.000000
87.935100	89.031494	59.000000	47.000000
88.213956	88.301288	76.000000	60.000000
88.213956	88.344955	50.000000	49.000000
88.301288	88.388621	78.000000	60.000000
88.344955	88.475954	52.000000	49.000000
88.388621	88.475954	76.000000	60.000000
88.475954	89.031494	74.000000	64.000000
88.475954	88.614839	50.000000	52.000000
88.753724	88.892609	50.000000	49.000000
89.031494	89.461734	60.000000	39.000000
89.031494	89.461734	72.000000	58.000000
89.031494	89.461734	62.000000	39.000000
89.031494	89.461734	66.000000	39.000000
89.031494	89.461734	69.000000	39.000000
89.031494	89.608960	43.000000	39.000000
89.031494	89.608960	57.000000	47.000000
89.314507	89.608960	50.000000	40.000000
89.461734	89.608960	69.000000	53.000000
89.608960	89.752002	71.000000	63.000000
89.608960	90.471049	62.000000	45.000000
89.608960	90.471049	67.000000	45.000000
89.608960	90.754076	43.000000	35.000000
89.608960	90.754076	55.000000	41.000000
89.752002	89.895045	72.000000	57.000000
89.895045	90.181129	74.000000	60.000000
89.895045	90.038087	50.000000	44.000000
90.038087	90.181129	52.000000	44.000000
90.181129	90.754076	74.000000	60.000000
90.181129	90.326089	50.000000	47.000000
90.471049	90.612563	59.000000	42.000000
90.471049	90.612563	50.000000	44.000000
90.612563	90.754076	62.000000	38.000000
90.754076	90.898218	60.000000	42.000000
90.754076	91.330644	43.000000	41.000000
90.754076	91.330644	54.000000	41.000000
90.898218	91.042360	62.000000	38.000000
91.042360	91.186502	60.000000	42.000000
91.042360	91.330644	50.000000	41.000000
91.186502	91.330644	62.000000	38.000000
91.330644	91.626358	59.000000	48.000000
91.330644	92.506780	43.000000	39.000000
91.330644	92.506780	55.000000	47.000000
91.626358	92.506780	59.000000	42.000000
91.626358	91.774215	62.000000	42.000000
91.626358	91.774215	50.000000	49.000000
91.774215	91.921643	64.000000	39.000000
91.774215	91.921643	52.000000	49.000000
91.921643	92.065959	62.000000	46.000000
91.921643	92.065959	50.000000	52.000000
92.065959	92.210275	64.000000	40.000000
92.210275	92.358521	67.000000	48.000000
92.210275	92.358521	50.000000	49.000000
92.358521	92.506780	64.000000	44.000000
92.506780	93.115066	60.000000	46.000000
92.506780	92.797103	66.000000	51.000000
92.506780	93.115066	43.000000	41.000000
92.506780	93.115066	57.000000	47.000000
92.797103	92.950230	64.000000	48.000000
92.797103	93.115066	50.000000	47.000000
92.950230	93.115066	62.000000	48.000000
93.115066	94.209193	67.000000	53.000000
93.115066	94.209193	71.000000	53.000000
93.115066	94.209193	74.000000	63.000000
93.115066	94.209193	79.000000	82.000000
93.115066	94.209193	43.000000	42.000000
93.115066	94.209193	55.000000	51.000000
93.393922	93.523794	50.000000	53.000000
93.523794	93.653653	52.000000	53.000000
93.653653	93.792538	50.000000	57.000000
93.931423	94.070308	50.000000	53.000000
94.209193	94.618284	66.000000	46.000000
94.209193	94.618284	72.000000	60.000000
94.209193	94.618284	78.000000	68.000000
94.209193	94.767428	43.000000	39.000000
94.209193	94.767428	57.000000	47.000000
94.481920	94.767428	50.000000	47.000000
94.618284	94.767428	74.000000	66.000000
94.767428	95.046284	76.000000	69.000000
94.767428	95.867295	67.000000	58.000000
94.767428	95.867295	71.000000	58.000000
94.767428	95.867295	43.000000	47.000000
94.767428	95.867295	59.000000	47.000000
95.046284	95.134784	76.000000	60.000000
95.046284	95.179027	50.000000	49.000000
95.134784	95.223270	78.000000	60.000000
95.179027	95.311756	52.000000	49.000000
95.223270	95.311756	76.000000	60.000000
95.311756	95.867295	74.000000	64.000000
95.311756	95.450641	50.000000	52.000000
95.589526	95.728411	50.000000	49.000000
95.867295	96.293914	60.000000	39.000000
95.867295	96.293914	72.000000	58.000000
95.867295	96.293914	62.000000	39.000000
95.867295	96.293914	66.000000	39.000000
95.867295	96.293914	69.000000	39.000000
95.867295	96.438848	43.000000	39.000000
95.867295	96.438848	57.000000	47.000000
96.148981	96.438848	50.000000	40.000000
96.293914	96.438848	69.000000	53.000000
96.438848	96.581890	71.000000	63.000000
96.438848	97.300937	62.000000	45.000000
96.438848	97.300937	67.000000	45.000000
96.438848	97.583977	43.000000	35.000000
96.438848	97.583977	55.000000	41.000000
96.581890	96.724932	72.000000	57.000000
96.724932	97.011017	74.000000	60.000000
96.724932	96.867975	50.000000	44.000000
96.867975	97.011017	52.000000	44.000000
97.011017	97.583977	74.000000	60.000000
97.011017	97.155977	50.000000	47.000000
97.300937	97.442450	59.000000	42.000000
97.300937	97.442450	50.000000	44.000000
97.442450	97.583977	62.000000	38.000000
97.583977	97.728119	60.000000	42.000000
97.583977	98.160545	43.000000	41.000000
97.583977	98.160545	54.000000	41.000000
97.728119	97.872261	62.000000	38.000000
97.872261	98.016403	60.000000	42.000000
97.872261	98.160545	50.000000	41.000000
98.016403	98.160545	62.000000	38.000000
98.160545	98.456259	59.000000	48.000000
98.160545	99.336681	43.000000	39.000000
98.160545	99.336681	55.000000	47.000000
98.456259	99.336681	59.000000	42.000000
98.456259	98.604116	62.000000	42.000000
98.456259	98.604116	50.000000	49.000000
98.604116	98.751544	64.000000	39.000000
98.604116	98.751544	52.000000	49.000000
98.751544	98.895860	62.000000	46.000000
98.751544	98.895860	50.000000	52.000000
98.895860	99.040176	64.000000	40.000000
99.040176	99.188422	67.000000	48.000000
99.040176	99.188422	50.000000	49.000000
99.188422	99.336681	64.000000	44.000000
99.336681	99.927090	60.000000	42.000000
99.336681	99.627004	66.000000	51.000000
99.336681	99.927090	43.000000	39.000000
99.336681	99.927090	57.000000	47.000000
99.627004	99.774029	64.000000	48.000000
99.627004	99.927090	50.000000	47.000000
99.774029	99.927090	62.000000	48.000000
99.927090	101.028151	67.000000	56.000000
99.927090	101.028151	74.000000	66.000000
99.927090	101.028151	79.000000	79.000000
99.927090	101.028151	43.000000	44.000000
99.927090	101.028151	58.000000	53.000000
100.205946	100.339278	50.000000	56.000000
100.339278	100.472611	51.000000	56.000000
100.472611	100.611496	50.000000	59.000000
100.750381	100.889266	50.000000	56.000000
101.028151	101.439105	65.000000	48.000000
101.028151	101.439105	69.000000	57.000000
101.028151	101.439105	77.000000	70.000000
101.028151	101.588250	41.000000	40.000000
101.028151	101.588250	63.000000	49.000000
101.302125	101.588250	53.000000	49.000000
101.439105	101.588250	72.000000	68.000000
101.588250	101.867106	74.000000	72.000000
101.588250	102.690491	65.000000	60.000000
101.588250	102.690491	70.000000	60.000000
101.588250	102.690491	46.000000	49.000000
101.588250	102.690491	62.000000	49.000000
101.867106	102.001029	74.000000	66.000000
101.867106	102.001029	53.000000	51.000000
102.001029	102.134951	75.000000	66.000000
102.001029	102.134951	55.000000	51.000000
102.134951	102.690491	77.000000	72.000000
102.134951	102.273836	53.000000	55.000000
102.412721	102.551606	53.000000	51.000000
102.690491	103.126015	75.000000	67.000000
102.690491	103.126015	65.000000	40.000000
102.690491	103.126015	69.000000	40.000000
102.690491	103.273241	46.000000	40.000000
102.690491	103.273241	63.000000	49.000000
102.978788	103.273241	53.000000	41.000000
103.126015	103.273241	72.000000	56.000000
103.273241	103.411496	74.000000	72.000000
103.273241	104.366846	70.000000	47.000000
103.273241	104.366846	65.000000	42.000000
103.273241	104.366846	46.000000	40.000000
103.273241	104.366846	62.000000	49.000000
103.411496	103.549750	75.000000	63.000000
103.549750	103.688005	74.000000	68.000000
103.549750	103.688005	53.000000	51.000000
103.688005	103.826260	75.000000	61.000000
103.688005	103.826260	55.000000	51.000000
103.826260	103.962623	77.000000	70.000000
103.826260	103.962623	53.000000	55.000000
103.962623	104.098987	79.000000	62.000000
104.098987	104.232910	81.000000	69.000000
104.098987	104.232910	53.000000	51.000000
104.232910	104.366846	79.000000	60.000000
104.366846	104.932336	69.000000	44.000000
104.366846	104.507903	77.000000	69.000000
104.366846	104.932336	46.000000	40.000000
104.366846	104.932336	63.000000	49.000000
104.507903	104.648961	75.000000	69.000000
104.648961	104.790018	74.000000	74.000000
104.648961	104.932336	53.000000	49.000000
104.790018	104.932336	72.000000	69.000000
104.932336	105.071235	74.000000	77.000000
104.932336	106.037246	70.000000	50.000000
104.932336	106.037246	65.000000	50.000000
104.932336	106.037246	46.000000	40.000000
104.932336	106.037246	62.000000	49.000000
105.071235	105.210119	75.000000	66.000000
105.210119	105.349004	74.000000	72.000000
105.210119	105.349004	53.000000	51.000000
105.349004	105.490518	75.000000	61.000000
105.349004	105.490518	55.000000	51.000000
105.490518	105.626264	77.000000	70.000000
105.490518	105.626264	53.000000	55.000000
105.626264	105.762011	79.000000	62.000000
105.762011	105.899622	81.000000	69.000000
105.762011	105.899622	53.000000	51.000000
105.899622	106.037246	79.000000	60.000000
106.037246	106.611977	69.000000	61.000000
106.037246	106.178129	77.000000	67.000000
106.037246	106.611977	46.000000	46.000000
106.037246	106.611977	63.000000	46.000000
106.178129	106.320447	75.000000	66.000000
106.320447	106.464227	74.000000	63.000000
106.320447	106.611977	53.000000	42.000000
106.464227	106.611977	72.000000	62.000000
106.611977	107.710677	65.000000	49.000000
106.611977	107.710677	70.000000	59.000000
106.611977	107.710677	74.000000	74.000000
106.611977	107.710677	46.000000	39.000000
106.611977	107.710677	62.000000	48.000000
106.890833	107.022985	53.000000	44.000000
107.022985	107.155138	55.000000	44.000000
107.155138	107.294023	53.000000	49.000000
107.432908	107.571793	53.000000	45.000000
107.710677	107.995314	72.000000	57.000000
107.710677	108.286776	62.000000	48.000000
107.710677	108.286776	66.000000	48.000000
107.710677	107.995314	74.000000	62.000000
107.710677	108.286776	45.000000	36.000000
107.710677	107.995314	57.000000	44.000000
107.995314	108.137632	74.000000	58.000000
107.995314	108.286776	50.000000	44.000000
108.137632	108.286776	72.000000	58.000000
108.286776	109.410046	62.000000	49.000000
108.286776	109.410046	67.000000	59.000000
108.286776	109.124149	71.000000	69.000000
108.286776	109.410046	43.000000	39.000000
108.286776	108.565632	55.000000	48.000000
108.565632	108.705067	55.000000	44.000000
108.705067	108.844502	56.000000	44.000000
108.844502	108.984325	55.000000	49.000000
109.124149	109.267097	72.000000	58.000000
109.124149	109.267097	55.000000	45.000000
109.267097	109.410046	74.000000	58.000000
109.410046	109.977481	67.000000	48.000000
109.410046	109.977481	72.000000	48.000000
109.410046	109.688902	75.000000	62.000000
109.410046	109.977481	48.000000	36.000000
109.410046	109.688902	55.000000	44.000000
109.688902	109.828337	77.000000	58.000000
109.688902	109.977481	57.000000	44.000000
109.828337	109.977481	75.000000	58.000000
109.977481	110.538452	67.000000	59.000000
109.977481	110.256337	74.000000	74.000000
109.977481	111.116790	50.000000	39.000000
109.977481	110.256337	59.000000	48.000000
110.256337	110.397394	71.000000	58.000000
110.256337	110.397394	62.000000	44.000000
110.397394	110.538452	72.000000	58.000000
110.397394	110.538452	64.000000	44.000000
110.538452	110.830893	71.000000	52.000000
110.538452	111.116790	67.000000	49.000000
110.538452	110.830893	74.000000	68.000000
110.538452	110.684673	62.000000	49.000000
110.830893	110.973842	71.000000	55.000000
110.830893	110.973842	62.000000	45.000000
110.973842	111.116790	72.000000	55.000000
111.116790	111.701391	62.000000	46.000000
111.116790	111.701391	66.000000	46.000000
111.116790	111.403974	71.000000	60.000000
111.116790	111.701391	50.000000	36.000000
111.116790	111.403974	60.000000	44.000000
111.403974	111.552234	69.000000	55.000000
111.403974	111.701391	60.000000	41.000000
111.552234	111.701391	71.000000	55.000000
111.701391	111.976613	62.000000	55.000000
111.701391	111.976613	67.000000	60.000000
111.701391	112.514718	43.000000	39.000000
111.701391	112.514718	59.000000	47.000000
111.976613	112.111139	62.000000	51.000000
111.976613	112.111139	67.000000	56.000000
111.976613	112.245666	71.000000	51.000000
112.111139	112.245666	66.000000	56.000000
112.245666	112.514718	65.000000	60.000000
112.245666	112.514718	71.000000	55.000000
112.514718	112.649244	64.000000	56.000000
112.514718	112.783771	71.000000	51.000000
112.514718	112.783771	38.000000	34.000000
112.514718	112.783771	50.000000	40.000000
112.649244	112.783771	63.000000	60.000000
112.783771	113.052823	62.000000	63.000000
112.783771	113.052823	66.000000	58.000000
112.783771	113.052823	72.000000	58.000000
112.783771	113.052823	45.000000	37.000000
112.783771	113.052823	57.000000	45.000000
113.052823	113.191400	66.000000	58.000000
113.052823	113.329976	72.000000	53.000000
113.052823	113.329976	38.000000	41.000000
113.052823	113.329976	50.000000	49.000000
113.191400	113.329976	62.000000	58.000000
113.329976	113.597835	62.000000	60.000000
113.329976	113.597835	67.000000	66.000000
113.329976	113.597835	71.000000	60.000000
113.329976	114.133526	43.000000	44.000000
113.329976	114.133526	55.000000	52.000000
113.597835	113.731758	62.000000	55.000000
113.597835	113.731758	67.000000	60.000000
113.597835	113.865681	71.000000	55.000000
113.731758	113.865681	66.000000	60.000000
113.865681	114.133526	65.000000	64.000000
113.865681	114.133526	71.000000	59.000000
114.133526	114.269259	64.000000	56.000000
114.133526	114.404993	71.000000	51.000000
114.133526	114.404993	38.000000	42.000000
114.133526	114.404993	50.000000	50.000000
114.269259	114.404993	63.000000	57.000000
114.404993	114.672838	62.000000	63.000000
114.404993	114.672838	66.000000	58.000000
114.404993	114.672838	72.000000	58.000000
114.404993	114.672838	45.000000	39.000000
114.404993	114.672838	57.000000	47.000000
114.672838	114.809202	66.000000	57.000000
114.672838	114.945565	72.000000	52.000000
114.672838	114.945565	38.000000	37.000000
114.672838	114.945565	50.000000	44.000000
114.809202	114.945565	62.000000	57.000000
114.945565	115.209884	62.000000	60.000000
114.945565	115.209884	67.000000	66.000000
114.945565	115.209884	71.000000	60.000000
114.945565	115.077731	43.000000	44.000000
114.945565	115.077731	55.000000	52.000000
115.209884	115.342036	62.000000	55.000000
115.209884	115.342036	67.000000	60.000000
115.209884	115.474202	71.000000	55.000000
115.342036	115.474202	66.000000	60.000000
115.474202	115.738507	62.000000	59.000000
115.474202	115.738507	67.000000	59.000000
115.474202	115.738507	71.000000	64.000000
115.474202	115.606355	55.000000	52.000000
115.738507	115.872430	71.000000	56.000000
115.738507	115.872430	67.000000	51.000000
115.738507	116.006353	74.000000	51.000000
115.872430	116.006353	70.000000	57.000000
116.006353	116.268351	67.000000	58.000000
116.006353	116.268351	71.000000	58.000000
116.006353	116.268351	74.000000	63.000000
116.006353	116.137352	62.000000	47.000000
116.268351	116.401684	71.000000	52.000000
116.268351	116.401684	74.000000	57.000000
116.268351	116.535017	79.000000	52.000000
116.401684	116.535017	73.000000	57.000000
116.535017	116.795889	74.000000	60.000000
116.535017	116.795889	79.000000	66.000000
116.535017	116.795889	83.000000	60.000000
116.535017	116.665453	67.000000	52.000000
116.795889	116.926324	74.000000	55.000000
116.795889	116.926324	79.000000	60.000000
116.795889	117.056760	83.000000	55.000000
116.926324	117.056760	78.000000	60.000000
117.056760	117.317619	74.000000	59.000000
117.056760	117.317619	79.000000	59.000000
117.056760	117.317619	83.000000	64.000000
117.056760	117.187183	71.000000	52.000000
117.317619	117.450361	83.000000	56.000000
117.317619	117.450361	79.000000	51.000000
117.317619	117.583104	86.000000	51.000000
117.450361	117.583104	82.000000	57.000000
117.583104	117.843989	79.000000	57.000000
117.583104	117.843989	83.000000	57.000000
117.583104	117.843989	86.000000	57.000000
117.583104	117.713553	74.000000	47.000000
117.843989	117.972749	83.000000	51.000000
117.843989	117.972749	86.000000	56.000000
117.843989	118.101508	91.000000	51.000000
117.972749	118.101508	85.000000	56.000000
118.101508	118.361254	83.000000	57.000000
118.101508	118.361254	86.000000	62.000000
118.101508	118.361254	91.000000	57.000000
118.101508	118.231381	79.000000	47.000000
118.361254	118.491126	83.000000	50.000000
118.361254	118.491126	86.000000	55.000000
118.361254	118.620999	91.000000	50.000000
118.491126	118.620999	82.000000	53.000000
118.620999	118.880744	83.000000	53.000000
118.620999	118.880744	86.000000	58.000000
118.620999	118.880744	91.000000	53.000000
118.620999	118.750872	79.000000	45.000000
118.880744	119.010617	83.000000	48.000000
118.880744	119.010617	86.000000	52.000000
118.880744	119.140489	91.000000	48.000000
119.010617	119.140489	82.000000	51.000000
119.140489	119.400235	83.000000	51.000000
119.140489	119.400235	86.000000	56.000000
119.140489	119.400235	91.000000	51.000000
119.140489	119.270362	79.000000	42.000000
119.400235	119.533567	83.000000	45.000000
119.400235	119.533567	86.000000	49.000000
119.400235	119.666900	91.000000	45.000000
119.533567	119.666900	82.000000	49.000000
119.666900	119.927772	83.000000	49.000000
119.666900	119.927772	86.000000	53.000000
119.666900	119.927772	91.000000	49.000000
119.666900	119.797336	79.000000	40.000000
119.927772	120.061695	83.000000	42.000000
119.927772	120.061695	86.000000	46.000000
119.927772	120.195913	91.000000	42.000000
120.061695	120.195913	82.000000	46.000000
120.195913	120.463168	83.000000	46.000000
120.195913	120.463168	86.000000	50.000000
120.195913	120.463168	91.000000	46.000000
120.195913	120.328655	79.000000	38.000000
120.463168	120.600940	83.000000	40.000000
120.463168	120.600940	86.000000	44.000000
120.463168	120.738712	91.000000	40.000000
120.600940	120.738712	82.000000	42.000000
120.738712	121.012659	83.000000	44.000000
120.738712	121.012659	86.000000	48.000000
120.738712	121.012659	91.000000	44.000000
120.738712	120.876081	79.000000	36.000000
121.012659	121.152282	83.000000	38.000000
121.012659	121.152282	86.000000	41.000000
121.012659	121.291904	91.000000	38.000000
121.152282	121.291904	82.000000	40.000000
121.291904	121.818462	83.000000	37.000000
121.291904	121.818462	86.000000	37.000000
121.291904	121.818462	91.000000	37.000000
121.291904	121.554814	79.000000	34.000000
121.554814	121.687168	43.000000	45.000000
121.687168	121.818462	43.000000	39.000000
121.818462	121.951406	43.000000	45.000000
121.951406	122.084752	43.000000	39.000000
122.084752	122.218206	43.000000	45.000000
122.218206	122.354221	43.000000	39.000000
122.354221	122.491456	43.000000	45.000000
122.491456	122.631507	43.000000	39.000000
122.631507	122.768019	43.000000	45.000000
122.768019	122.905589	43.000000	39.000000
122.905589	123.189193	43.000000	45.000000
123.189193	123.335065	43.000000	39.000000
123.335065	123.483834	43.000000	39.000000
123.483834	123.790008	43.000000	41.000000
123.790008	123.947910	43.000000	37.000000
123.947910	124.108199	43.000000	37.000000
124.108199	124.461137	43.000000	40.000000
124.461137	124.829231	43.000000	35.000000
124.829231	125.197324	43.000000	40.000000
127.365757	127.716630	84.000000	53.000000
127.365757	127.716630	60.000000	42.000000
127.716630	128.067504	86.000000	59.000000
127.716630	128.067504	62.000000	47.000000
128.067504	128.418377	87.000000	55.000000
128.067504	128.418377	63.000000	44.000000
128.418377	128.753050	89.000000	58.000000
128.418377	128.753050	65.000000	42.000000
128.753050	129.096534	92.000000	61.000000
128.753050	129.096534	68.000000	46.000000
129.096534	129.912369	96.000000	72.000000
129.096534	129.912369	72.000000	51.000000
129.912369	130.070016	94.000000	56.000000
129.912369	130.070016	70.000000	44.000000
130.070016	130.227662	92.000000	57.000000
130.070016	130.227662	68.000000	45.000000
130.227662	130.385309	91.000000	53.000000
130.227662	130.385309	67.000000	42.000000
130.385309	130.547650	89.000000	57.000000
130.385309	130.547650	65.000000	45.000000
130.547650	130.709991	91.000000	53.000000
130.547650	130.709991	67.000000	42.000000
130.709991	130.869153	92.000000	56.000000
130.709991	130.869153	68.000000	44.000000
130.869153	131.028316	89.000000	52.000000
130.869153	131.028316	65.000000	41.000000
131.028316	131.190657	91.000000	60.000000
131.028316	131.190657	67.000000	48.000000
131.190657	131.348304	92.000000	55.000000
131.190657	131.348304	68.000000	44.000000
131.348304	131.505950	91.000000	58.000000
131.348304	131.505950	67.000000	46.000000
131.505950	131.665113	89.000000	50.000000
131.505950	131.665113	65.000000	39.000000
131.665113	131.821995	87.000000	56.000000
131.665113	131.821995	63.000000	44.000000
131.821995	131.981694	89.000000	52.000000
131.821995	131.981694	65.000000	41.000000
131.981694	132.144317	87.000000	53.000000
131.981694	132.144317	63.000000	42.000000
132.144317	132.310252	86.000000	49.000000
132.144317	132.310252	62.000000	38.000000
132.310252	132.477595	84.000000	55.000000
132.310252	132.477595	60.000000	44.000000
132.477595	132.644924	86.000000	51.000000
132.477595	132.644924	62.000000	40.000000
132.644924	132.812254	87.000000	56.000000
132.644924	132.812254	63.000000	44.000000
132.812254	132.996603	91.000000	51.000000
132.812254	132.996603	67.000000	40.000000
132.996603	134.067502	91.000000	58.000000
132.996603	133.369510	67.000000	44.000000
133.369510	133.718506	41.000000	44.000000
133.718506	135.071641	60.000000	38.000000
133.718506	134.400498	62.000000	38.000000
133.718506	134.067502	68.000000	44.000000
134.067502	134.234000	89.000000	55.000000
134.067502	134.234000	65.000000	44.000000
134.234000	134.400498	87.000000	49.000000
134.234000	134.400498	63.000000	39.000000
134.400498	134.566997	86.000000	57.000000
134.400498	135.071641	62.000000	45.000000
134.566997	134.733495	87.000000	51.000000
134.566997	134.733495	63.000000	40.000000
134.733495	134.902568	89.000000	51.000000
134.733495	134.902568	65.000000	40.000000
134.902568	135.071641	92.000000	51.000000
134.902568	135.071641	68.000000	40.000000
135.071641	135.174745	91.000000	53.000000
135.071641	135.174745	67.000000	42.000000
135.174745	135.277850	92.000000	45.000000
135.174745	135.277850	68.000000	35.000000
135.277850	135.380954	91.000000	45.000000
135.277850	135.380954	67.000000	35.000000
135.380954	135.546594	89.000000	51.000000
135.380954	135.546594	65.000000	40.000000
135.546594	135.712234	87.000000	48.000000
135.546594	135.712234	63.000000	38.000000
135.712234	135.877874	86.000000	49.000000
135.712234	135.877874	62.000000	39.000000
135.877874	136.043513	87.000000	50.000000
135.877874	136.043513	63.000000	39.000000
136.043513	136.215255	89.000000	51.000000
136.043513	136.215255	65.000000	40.000000
136.215255	136.386997	91.000000	45.000000
136.215255	136.386997	67.000000	35.000000
136.386997	136.494702	83.000000	52.000000
136.386997	136.494702	89.000000	52.000000
136.386997	137.046553	55.000000	33.000000
136.386997	136.494702	65.000000	41.000000
136.494702	136.602406	91.000000	40.000000
136.494702	136.602406	67.000000	31.000000
136.602406	136.710110	89.000000	40.000000
136.602406	136.710110	65.000000	31.000000
136.710110	136.878325	87.000000	41.000000
136.710110	136.878325	63.000000	33.000000
136.878325	137.046553	86.000000	38.000000
136.878325	137.046553	62.000000	30.000000
137.046553	137.419461	96.000000	45.000000
137.046553	137.419461	91.000000	37.000000
137.046553	137.419461	87.000000	37.000000
137.046553	137.419461	84.000000	37.000000
137.046553	137.419461	48.000000	29.000000
137.046553	137.419461	60.000000	35.000000
137.419461	137.597774	53.000000	44.000000
137.597774	137.776101	55.000000	40.000000
137.776101	138.466717	60.000000	37.000000
137.776101	139.159773	65.000000	37.000000
137.776101	139.159773	68.000000	37.000000
137.776101	139.159773	72.000000	37.000000
137.776101	137.948755	53.000000	44.000000
137.948755	138.121409	55.000000	41.000000
138.121409	138.294063	56.000000	41.000000
138.294063	138.466717	58.000000	46.000000
138.466717	139.159773	60.000000	49.000000
138.634931	138.803146	56.000000	46.000000
138.803146	138.981460	55.000000	47.000000
138.981460	139.159773	53.000000	44.000000
139.159773	139.331206	63.000000	51.000000
139.159773	139.331206	67.000000	51.000000
139.159773	139.502640	72.000000	60.000000
139.159773	139.502640	43.000000	56.000000
139.331206	139.502640	62.000000	46.000000
139.502640	139.676045	60.000000	39.000000
139.502640	139.676045	63.000000	39.000000
139.502640	139.854358	67.000000	48.000000
139.502640	139.676045	55.000000	47.000000
139.676045	139.854358	55.000000	44.000000
139.854358	140.021688	63.000000	50.000000
139.854358	140.021688	67.000000	50.000000
139.854358	140.189018	72.000000	59.000000
139.854358	140.189018	43.000000	56.000000
140.021688	140.189018	62.000000	44.000000
140.189018	140.356347	60.000000	38.000000
140.189018	140.356347	63.000000	38.000000
140.189018	140.532730	67.000000	46.000000
140.189018	140.356347	55.000000	46.000000
140.356347	140.532730	55.000000	44.000000
140.532730	140.703573	65.000000	49.000000
140.532730	140.703573	67.000000	49.000000
140.532730	140.874416	71.000000	58.000000
140.532730	140.874416	43.000000	56.000000
140.703573	140.874416	63.000000	41.000000
140.874416	141.045260	62.000000	38.000000
140.874416	141.045260	65.000000	38.000000
140.874416	141.216103	67.000000	46.000000
140.874416	141.045260	55.000000	46.000000
141.045260	141.216103	55.000000	41.000000
141.216103	141.557790	60.000000	39.000000
141.216103	141.557790	63.000000	39.000000
141.216103	141.557790	67.000000	49.000000
141.216103	141.557790	72.000000	49.000000
141.216103	141.557790	36.000000	47.000000
141.216103	141.557790	48.000000	56.000000
141.557790	141.910554	84.000000	58.000000
141.557790	141.910554	60.000000	46.000000
141.910554	142.263332	86.000000	67.000000
141.910554	142.263332	62.000000	56.000000
142.263332	142.616110	87.000000	61.000000
142.263332	142.616110	63.000000	53.000000
142.616110	142.949106	89.000000	66.000000
142.616110	142.949106	65.000000	58.000000
142.949106	143.290793	92.000000	69.000000
142.949106	143.290793	68.000000	55.000000
143.290793	144.109310	99.000000	85.000000
143.290793	144.109310	75.000000	64.000000
144.109310	144.266957	98.000000	67.000000
144.109310	144.266957	74.000000	52.000000
144.266957	144.424604	96.000000	68.000000
144.266957	144.424604	72.000000	53.000000
144.424604	144.582251	94.000000	63.000000
144.424604	144.582251	70.000000	50.000000
144.582251	144.690478	96.000000	68.000000
144.582251	144.690478	72.000000	53.000000
144.690478	144.798705	98.000000	68.000000
144.690478	144.798705	74.000000	53.000000
144.798705	144.906933	96.000000	68.000000
144.798705	144.906933	72.000000	53.000000
144.906933	145.066900	94.000000	67.000000
144.906933	145.066900	70.000000	52.000000
145.066900	145.226867	92.000000	62.000000
145.066900	145.226867	68.000000	49.000000
145.226867	145.395940	94.000000	72.000000
145.226867	145.395940	70.000000	57.000000
145.395940	145.554351	96.000000	66.000000
145.395940	145.554351	72.000000	52.000000
145.554351	145.712763	94.000000	69.000000
145.554351	145.712763	70.000000	55.000000
145.712763	145.875935	92.000000	60.000000
145.712763	145.875935	68.000000	46.000000
145.875935	146.194327	91.000000	67.000000
145.875935	146.194327	67.000000	52.000000
146.194327	146.358317	89.000000	63.000000
146.194327	146.358317	65.000000	50.000000
146.358317	146.525955	91.000000	58.000000
146.358317	146.525955	67.000000	45.000000
146.525955	146.693298	92.000000	66.000000
146.525955	146.693298	68.000000	52.000000
146.693298	146.860628	94.000000	61.000000
146.693298	146.860628	70.000000	48.000000
146.860628	147.027958	96.000000	67.000000
146.860628	147.027958	72.000000	52.000000
147.027958	147.212306	92.000000	61.000000
147.027958	147.212306	68.000000	48.000000
147.212306	147.318951	91.000000	73.000000
147.212306	147.318951	67.000000	57.000000
147.318951	147.425596	92.000000	63.000000
147.318951	147.425596	68.000000	50.000000
147.425596	147.532240	91.000000	63.000000
147.425596	147.532240	67.000000	50.000000
147.532240	147.695413	89.000000	67.000000
147.532240	147.695413	65.000000	52.000000
147.695413	147.865371	91.000000	70.000000
147.695413	147.865371	67.000000	56.000000
147.865371	148.196651	87.000000	73.000000
147.865371	148.196651	63.000000	57.000000
148.196651	148.362291	86.000000	70.000000
148.196651	148.362291	62.000000	56.000000
148.362291	148.527931	87.000000	67.000000
148.362291	148.527931	63.000000	52.000000
148.527931	148.634575	89.000000	75.000000
148.527931	148.634575	65.000000	60.000000
148.634575	148.741220	91.000000	67.000000
148.634575	148.741220	67.000000	52.000000
148.741220	148.847865	89.000000	67.000000
148.741220	148.847865	65.000000	52.000000
148.847865	149.010205	87.000000	73.000000
148.847865	149.010205	63.000000	57.000000
149.010205	149.179279	89.000000	67.000000
149.010205	149.179279	65.000000	52.000000
149.179279	149.285923	86.000000	73.000000
149.179279	149.285923	62.000000	57.000000
149.285923	149.392568	87.000000	63.000000
149.285923	149.392568	63.000000	50.000000
149.392568	149.499213	86.000000	63.000000
149.392568	149.499213	62.000000	50.000000
149.499213	149.662385	84.000000	67.000000
149.499213	149.662385	60.000000	52.000000
149.662385	149.832343	87.000000	70.000000
149.662385	149.832343	63.000000	56.000000
149.832343	150.158674	86.000000	73.000000
149.832343	150.158674	62.000000	57.000000
150.158674	150.321847	84.000000	70.000000
150.158674	150.321847	60.000000	56.000000
150.321847	150.485019	86.000000	67.000000
150.321847	150.485019	62.000000	52.000000
150.485019	150.643430	87.000000	75.000000
150.485019	150.643430	63.000000	60.000000
150.643430	150.801842	89.000000	75.000000
150.643430	150.801842	65.000000	60.000000
150.801842	150.964183	91.000000	73.000000
150.801842	150.964183	67.000000	57.000000
150.964183	151.133256	92.000000	67.000000
150.964183	151.133256	68.000000	52.000000
151.133256	151.238358	89.000000	73.000000
151.133256	151.238358	65.000000	57.000000
151.238358	151.343715	91.000000	63.000000
151.238358	151.343715	67.000000	50.000000
151.343715	151.449327	89.000000	62.000000
151.343715	151.449327	65.000000	49.000000
151.449327	151.555436	87.000000	72.000000
151.449327	151.555436	63.000000	57.000000
151.555436	151.661812	89.000000	62.000000
151.555436	151.661812	65.000000	49.000000
151.661812	151.768712	87.000000	62.000000
151.661812	151.768712	63.000000	49.000000
151.768712	151.875866	86.000000	71.000000
151.768712	151.875866	62.000000	56.000000
151.875866	151.983570	87.000000	61.000000
151.875866	151.983570	63.000000	48.000000
151.983570	152.091529	86.000000	61.000000
151.983570	152.091529	62.000000	48.000000
152.091529	152.200025	84.000000	70.000000
152.091529	152.200025	60.000000	55.000000
152.200025	152.308802	86.000000	60.000000
152.200025	152.308802	62.000000	48.000000
152.308802	152.418115	84.000000	60.000000
152.308802	152.418115	60.000000	47.000000
152.418115	152.527710	82.000000	69.000000
152.418115	152.527710	58.000000	53.000000
152.527710	152.637855	84.000000	59.000000
152.527710	152.637855	60.000000	47.000000
152.637855	152.748282	82.000000	59.000000
152.637855	152.748282	58.000000	47.000000
152.748282	152.859285	80.000000	68.000000
152.748282	152.859285	56.000000	52.000000
152.859285	152.970570	82.000000	59.000000
152.859285	152.970570	58.000000	46.000000
152.970570	153.082418	80.000000	58.000000
152.970570	153.082418	56.000000	46.000000
153.082418	153.811953	79.000000	67.000000
153.082418	153.455326	55.000000	53.000000
153.455326	153.811953	43.000000	46.000000
153.811953	155.195625	62.000000	46.000000
153.811953	154.838998	60.000000	46.000000
153.811953	155.195625	66.000000	46.000000
153.811953	155.195625	69.000000	46.000000
153.811953	155.195625	74.000000	46.000000
153.811953	153.984607	50.000000	56.000000
153.984607	154.157261	52.000000	51.000000
154.157261	154.329914	54.000000	51.000000
154.329914	154.502568	55.000000	57.000000
154.502568	154.670783	57.000000	61.000000
154.670783	154.838998	59.000000	57.000000
154.838998	155.195625	60.000000	58.000000
155.017311	155.195625	57.000000	55.000000
155.195625	155.368037	62.000000	51.000000
155.195625	155.368037	67.000000	51.000000
155.195625	155.368037	71.000000	60.000000
155.195625	155.540450	38.000000	56.000000
155.368037	155.540450	60.000000	46.000000
155.540450	155.714874	59.000000	39.000000
155.540450	155.714874	62.000000	39.000000
155.540450	155.714874	67.000000	48.000000
155.540450	155.893187	50.000000	47.000000
155.714874	155.893187	55.000000	44.000000
155.893187	156.063146	62.000000	50.000000
155.893187	156.063146	67.000000	50.000000
155.893187	156.063146	71.000000	59.000000
155.893187	156.233104	38.000000	56.000000
156.063146	156.233104	60.000000	44.000000
156.233104	156.403062	59.000000	38.000000
156.233104	156.403062	62.000000	38.000000
156.233104	156.403062	67.000000	46.000000
156.233104	156.589516	50.000000	46.000000
156.403062	156.589516	55.000000	44.000000
156.589516	156.766864	64.000000	49.000000
156.589516	156.766864	66.000000	49.000000
156.589516	156.766864	72.000000	58.000000
156.589516	156.944212	38.000000	56.000000
156.766864	156.944212	62.000000	41.000000
156.944212	157.140804	60.000000	38.000000
156.944212	157.140804	62.000000	38.000000
156.944212	157.140804	66.000000	46.000000
156.944212	157.337397	50.000000	46.000000
157.140804	157.337397	57.000000	41.000000
157.337397	157.698838	55.000000	46.000000
157.337397	157.698838	67.000000	46.000000
157.337397	158.060280	43.000000	56.000000
157.698838	158.060280	79.000000	61.000000
158.060280	158.421721	79.000000	60.000000
158.421721	158.783162	79.000000	58.000000
158.783162	159.325331	79.000000	57.000000
159.325331	159.506058	79.000000	55.000000
159.506058	160.222651	79.000000	60.000000
159.506058	160.048227	44.000000	42.000000
160.048227	160.222651	53.000000	37.000000
160.222651	160.745910	77.000000	57.000000
160.222651	160.571486	60.000000	41.000000
160.571486	160.927724	62.000000	39.000000
160.745910	160.927724	74.000000	52.000000
160.927724	161.102148	75.000000	57.000000
160.927724	161.625420	68.000000	39.000000
161.102148	161.276572	77.000000	53.000000
161.276572	161.450996	79.000000	57.000000
161.450996	161.625420	80.000000	53.000000
161.625420	161.984703	79.000000	60.000000
161.625420	162.159127	44.000000	42.000000
161.984703	162.159127	80.000000	57.000000
162.159127	162.333551	79.000000	55.000000
162.159127	162.333551	53.000000	37.000000
162.333551	162.692833	77.000000	58.000000
162.333551	162.692833	60.000000	41.000000
162.692833	162.867257	74.000000	56.000000
162.692833	163.041668	62.000000	39.000000
162.867257	163.041668	77.000000	56.000000
163.041668	163.157942	75.000000	61.000000
163.041668	163.749691	68.000000	39.000000
163.157942	163.274900	77.000000	50.000000
163.274900	163.392541	75.000000	50.000000
163.392541	163.570412	74.000000	58.000000
163.570412	163.749691	72.000000	51.000000
163.749691	164.291860	71.000000	56.000000
163.749691	164.291860	43.000000	42.000000
164.291860	164.472587	74.000000	52.000000
164.291860	164.472587	50.000000	37.000000
164.472587	165.931589	74.000000	55.000000
164.472587	164.834028	55.000000	41.000000
164.834028	165.199882	59.000000	31.000000
165.199882	165.565736	62.000000	36.000000
165.565736	165.931589	67.000000	31.000000
165.931589	168.152701	71.000000	42.000000
166.318686	166.689059	79.000000	61.000000
166.689059	167.059432	79.000000	60.000000
167.059432	167.429805	79.000000	58.000000
167.429805	167.971974	79.000000	57.000000
167.971974	168.152701	79.000000	55.000000
168.152701	168.869294	79.000000	60.000000
168.152701	168.694870	44.000000	42.000000
168.694870	168.869294	53.000000	37.000000
168.869294	169.218129	77.000000	57.000000
168.869294	169.218129	60.000000	41.000000
169.218129	169.392553	74.000000	52.000000
169.218129	169.574367	62.000000	39.000000
169.392553	169.574367	75.000000	52.000000
169.574367	169.662598	77.000000	57.000000
169.574367	170.274839	68.000000	39.000000
169.662598	169.750320	79.000000	53.000000
169.750320	169.837357	80.000000	57.000000
169.837357	169.923899	82.000000	53.000000
169.923899	170.039006	84.000000	53.000000
170.039006	170.155964	82.000000	53.000000
170.155964	170.274839	80.000000	53.000000
170.274839	170.634122	79.000000	60.000000
170.274839	170.808546	44.000000	42.000000
170.634122	170.808546	80.000000	57.000000
170.808546	170.982970	79.000000	55.000000
170.808546	170.982970	53.000000	37.000000
170.982970	171.342252	77.000000	58.000000
170.982970	171.342252	60.000000	41.000000
171.342252	171.516676	74.000000	56.000000
171.342252	171.691087	62.000000	39.000000
171.516676	171.691087	75.000000	56.000000
171.691087	171.807374	77.000000	61.000000
171.691087	172.399123	68.000000	48.000000
171.807374	171.924332	79.000000	52.000000
171.924332	172.041974	77.000000	53.000000
172.041974	172.160313	75.000000	58.000000
172.160313	172.279363	74.000000	61.000000
172.279363	172.399123	72.000000	63.000000
172.399123	172.740032	71.000000	74.000000
172.399123	172.740032	43.000000	59.000000
172.399123	172.740032	55.000000	59.000000
172.740032	172.821049	65.000000	68.000000
172.740032	172.902065	53.000000	53.000000
172.902065	172.983081	65.000000	68.000000
173.064097	173.228932	68.000000	75.000000
173.064097	173.228932	56.000000	59.000000
173.393768	173.474341	62.000000	69.000000
173.393768	173.554915	50.000000	52.000000
173.554915	173.635489	62.000000	70.000000
173.716062	173.879100	65.000000	75.000000
173.716062	173.879100	53.000000	59.000000
174.042138	174.121693	59.000000	68.000000
174.042138	174.201247	47.000000	52.000000
174.201247	174.280802	59.000000	68.000000
174.360356	174.522522	62.000000	81.000000
174.360356	174.522522	50.000000	62.000000
174.684689	174.763814	56.000000	74.000000
174.684689	174.842939	44.000000	56.000000
174.842939	174.922065	56.000000	74.000000
175.001190	175.164228	60.000000	83.000000
175.001190	175.164228	48.000000	59.000000
175.327266	175.406391	53.000000	75.000000
175.327266	175.485517	41.000000	52.000000
175.485517	175.564642	53.000000	75.000000
175.643767	175.806805	56.000000	83.000000
175.643767	175.806805	44.000000	59.000000
175.969843	176.048110	50.000000	74.000000
175.969843	176.126377	38.000000	52.000000
176.126377	176.204644	50.000000	74.000000
176.282911	176.450241	55.000000	81.000000
176.282911	176.450241	43.000000	62.000000
176.617570	176.695851	65.000000	74.000000
176.617570	176.774118	53.000000	56.000000
176.774118	176.852385	65.000000	74.000000
176.930665	177.012459	68.000000	83.000000
176.930665	177.094253	56.000000	59.000000
177.094253	177.176047	68.000000	74.000000
177.257841	177.335290	62.000000	79.000000
177.257841	177.412739	50.000000	52.000000
177.412739	177.490187	62.000000	75.000000
177.567636	177.648532	65.000000	83.000000
177.567636	177.729414	53.000000	59.000000
177.729414	177.810296	65.000000	73.000000
177.891178	177.968627	59.000000	79.000000
177.891178	178.046076	47.000000	52.000000
178.046076	178.123525	59.000000	74.000000
178.200973	178.280970	62.000000	81.000000
178.200973	178.360967	50.000000	62.000000
178.360967	178.440964	62.000000	81.000000
178.520961	178.598812	56.000000	74.000000
178.520961	178.676663	44.000000	56.000000
178.676663	178.754515	56.000000	74.000000
178.832366	178.912805	60.000000	83.000000
178.832366	178.993245	48.000000	59.000000
178.993245	179.073684	60.000000	74.000000
179.154124	179.231975	53.000000	79.000000
179.154124	179.309826	41.000000	52.000000
179.309826	179.387677	53.000000	75.000000
179.465542	179.545981	56.000000	83.000000
179.465542	179.626421	44.000000	59.000000
179.626421	179.706860	56.000000	73.000000
179.787300	179.865567	50.000000	79.000000
179.787300	179.943834	38.000000	52.000000
179.943834	180.022101	50.000000	74.000000
180.100381	180.409144	55.000000	79.000000
180.100381	180.409144	43.000000	59.000000
180.409144	180.567045	43.000000	54.000000
180.567045	180.727482	43.000000	54.000000
180.727482	180.890533	43.000000	55.000000
180.890533	181.054765	43.000000	51.000000
181.054765	181.219305	43.000000	50.000000
181.219305	181.384744	43.000000	49.000000
181.384744	181.551108	43.000000	51.000000
181.551108	181.718398	43.000000	47.000000
181.718398	181.886626	43.000000	49.000000
181.886626	182.055806	43.000000	45.000000
182.055806	182.396394	43.000000	47.000000
184.428879	184.779752	84.000000	53.000000
184.428879	184.779752	60.000000	42.000000
184.779752	185.130626	86.000000	59.000000
184.779752	185.130626	62.000000	47.000000
185.130626	185.481499	87.000000	55.000000
185.130626	185.481499	63.000000	44.000000
185.481499	185.816172	89.000000	58.000000
185.481499	185.816172	65.000000	42.000000
185.816172	186.159656	92.000000	61.000000
185.816172	186.159656	68.000000	46.000000
186.159656	186.975491	96.000000	72.000000
186.159656	186.975491	72.000000	51.000000
186.975491	187.133138	94.000000	56.000000
186.975491	187.133138	70.000000	44.000000
187.133138	187.290784	92.000000	57.000000
187.133138	187.290784	68.000000	45.000000
187.290784	187.448431	91.000000	53.000000
187.290784	187.448431	67.000000	42.000000
187.448431	187.610772	89.000000	57.000000
187.448431	187.610772	65.000000	45.000000
187.610772	187.773113	91.000000	53.000000
187.610772	187.773113	67.000000	42.000000
187.773113	187.932275	92.000000	56.000000
187.773113	187.932275	68.000000	44.000000
187.932275	188.091438	89.000000	52.000000
187.932275	188.091438	65.000000	41.000000
188.091438	188.253779	91.000000	60.000000
188.091438	188.253779	67.000000	48.000000
188.253779	188.411426	92.000000	55.000000
188.253779	188.411426	68.000000	44.000000
188.411426	188.569072	91.000000	58.000000
188.411426	188.569072	67.000000	46.000000
188.569072	188.728235	89.000000	50.000000
188.569072	188.728235	65.000000	39.000000
188.728235	188.885117	87.000000	56.000000
188.728235	188.885117	63.000000	44.000000
188.885117	189.044816	89.000000	52.000000
188.885117	189.044816	65.000000	41.000000
189.044816	189.207439	87.000000	53.000000
189.044816	189.207439	63.000000	42.000000
189.207439	189.373374	86.000000	49.000000
189.207439	189.373374	62.000000	38.000000
189.373374	189.540717	84.000000	55.000000
189.373374	189.540717	60.000000	44.000000
189.540717	189.708046	86.000000	51.000000
189.540717	189.708046	62.000000	40.000000
189.708046	189.875376	87.000000	56.000000
189.708046	189.875376	63.000000	44.000000
189.875376	190.059724	91.000000	51.000000
189.875376	190.059724	67.000000	40.000000
190.059724	191.130624	91.000000	58.000000
190.059724	190.432632	67.000000	44.000000
190.432632	190.781628	41.000000	44.000000
190.781628	192.134763	60.000000	38.000000
190.781628	191.463620	62.000000	38.000000
190.781628	191.130624	68.000000	44.000000
191.130624	191.297122	89.000000	55.000000
191.130624	191.297122	65.000000	44.000000
191.297122	191.463620	87.000000	49.000000
191.297122	191.463620	63.000000	39.000000
191.463620	191.630119	86.000000	57.000000
191.463620	192.134763	62.000000	45.000000
191.630119	191.796617	87.000000	51.000000
191.630119	191.796617	63.000000	40.000000
191.796617	191.965690	89.000000	51.000000
191.796617	191.965690	65.000000	40.000000
191.965690	192.134763	92.000000	51.000000
191.965690	192.134763	68.000000	40.000000
192.134763	192.237867	91.000000	53.000000
192.134763	192.237867	67.000000	42.000000
192.237867	192.340972	92.000000	45.000000
192.237867	192.340972	68.000000	35.000000
192.340972	192.444076	91.000000	45.000000
192.340972	192.444076	67.000000	35.000000
192.444076	192.609716	89.000000	51.000000
192.444076	192.609716	65.000000	40.000000
192.609716	192.775356	87.000000	48.000000
192.609716	192.775356	63.000000	38.000000
192.775356	192.940996	86.000000	49.000000
192.775356	192.940996	62.000000	39.000000
192.940996	193.106635	87.000000	50.000000
192.940996	193.106635	63.000000	39.000000
193.106635	193.278377	89.000000	51.000000
193.106635	193.278377	65.000000	40.000000
193.278377	193.450119	91.000000	45.000000
193.278377	193.450119	67.000000	35.000000
193.450119	193.557824	83.000000	52.000000
193.450119	193.557824	89.000000	52.000000
193.450119	194.109675	55.000000	33.000000
193.450119	193.557824	65.000000	41.000000
193.557824	193.665528	91.000000	40.000000
193.557824	193.665528	67.000000	31.000000
193.665528	193.773232	89.000000	40.000000
193.665528	193.773232	65.000000	31.000000
193.773232	193.941447	87.000000	41.000000
193.773232	193.941447	63.000000	33.000000
193.941447	194.109675	86.000000	38.000000
193.941447	194.109675	62.000000	30.000000
194.109675	194.482583	96.000000	45.000000
194.109675	194.482583	91.000000	37.000000
194.109675	194.482583	87.000000	37.000000
194.109675	194.482583	84.000000	37.000000
194.109675	194.482583	48.000000	29.000000
194.109675	194.482583	60.000000	35.000000
194.482583	194.660896	53.000000	44.000000
194.660896	194.839223	55.000000	40.000000
194.839223	195.529839	60.000000	37.000000
194.839223	196.222895	65.000000	37.000000
194.839223	196.222895	68.000000	37.000000
194.839223	196.222895	72.000000	37.000000
194.839223	195.011877	53.000000	44.000000
195.011877	195.184531	55.000000	41.000000
195.184531	195.357185	56.000000	41.000000
195.357185	195.529839	58.000000	46.000000
195.529839	196.222895	60.000000	49.000000
195.698053	195.866268	56.000000	46.000000
195.866268	196.044582	55.000000	47.000000
196.044582	196.222895	53.000000	44.000000
196.222895	196.388642	63.000000	51.000000
196.222895	196.388642	67.000000	51.000000
196.222895	196.554389	72.000000	60.000000
196.222895	196.554389	43.000000	56.000000
196.388642	196.554389	62.000000	46.000000
196.554389	196.720137	60.000000	39.000000
196.554389	196.720137	63.000000	39.000000
196.554389	196.898450	67.000000	48.000000
196.554389	196.720137	55.000000	47.000000
196.720137	196.898450	55.000000	44.000000
196.898450	197.065780	63.000000	50.000000
196.898450	197.065780	67.000000	50.000000
196.898450	197.233109	72.000000	59.000000
196.898450	197.233109	43.000000	56.000000
197.065780	197.233109	62.000000	44.000000
197.233109	197.400439	60.000000	38.000000
197.233109	197.400439	63.000000	38.000000
197.233109	197.576821	67.000000	46.000000
197.233109	197.400439	55.000000	46.000000
197.400439	197.576821	55.000000	44.000000
197.576821	197.747665	65.000000	49.000000
197.576821	197.747665	67.000000	49.000000
197.576821	197.918508	71.000000	58.000000
197.576821	197.918508	43.000000	56.000000
197.747665	197.918508	63.000000	41.000000
197.918508	198.089352	62.000000	38.000000
197.918508	198.089352	65.000000	38.000000
197.918508	198.267933	67.000000	46.000000
197.918508	198.089352	55.000000	46.000000
198.089352	198.267933	55.000000	41.000000
198.267933	198.536248	63.000000	56.000000
198.267933	198.536248	67.000000	56.000000
198.267933	198.536248	72.000000	66.000000
198.267933	199.851175	36.000000	61.000000
198.267933	199.851175	48.000000	61.000000
198.536248	198.670399	63.000000	42.000000
198.536248	198.670399	67.000000	42.000000
198.536248	198.806011	72.000000	52.000000
198.670399	198.806011	62.000000	48.000000
198.806011	199.066883	63.000000	55.000000
198.806011	199.066883	67.000000	55.000000
198.806011	199.066883	72.000000	64.000000
199.066883	199.331470	63.000000	50.000000
199.066883	199.197319	60.000000	41.000000
199.066883	199.331470	67.000000	50.000000
199.197319	199.331470	59.000000	48.000000
199.331470	199.591323	60.000000	53.000000
199.331470	199.591323	63.000000	53.000000
199.331470	199.591323	67.000000	63.000000
199.591323	199.851175	55.000000	50.000000
199.851175	200.119490	67.000000	61.000000
199.851175	200.119490	70.000000	61.000000
199.851175	200.119490	75.000000	72.000000
199.851175	201.424882	37.000000	67.000000
199.851175	201.424882	49.000000	67.000000
200.119490	200.253641	67.000000	46.000000
200.119490	200.253641	70.000000	46.000000
200.119490	200.389253	75.000000	57.000000
200.253641	200.389253	66.000000	52.000000
200.389253	200.643768	67.000000	60.000000
200.389253	200.643768	70.000000	60.000000
200.389253	200.643768	75.000000	70.000000
200.643768	200.905177	67.000000	55.000000
200.643768	200.771026	63.000000	45.000000
200.643768	200.905177	70.000000	55.000000
200.771026	200.905177	62.000000	52.000000
200.905177	201.165029	63.000000	58.000000
200.905177	201.165029	67.000000	58.000000
200.905177	201.165029	70.000000	69.000000
201.165029	201.424882	58.000000	55.000000
201.165029	201.424882	63.000000	55.000000
201.165029	201.424882	67.000000	55.000000
201.424882	201.689200	67.000000	66.000000
201.424882	201.689200	62.000000	66.000000
201.424882	201.689200	71.000000	72.000000
201.424882	201.689200	74.000000	66.000000
201.424882	201.689200	38.000000	52.000000
201.424882	201.689200	50.000000	62.000000
201.689200	201.821353	67.000000	60.000000
201.689200	201.821353	71.000000	66.000000
201.689200	201.953519	74.000000	60.000000
201.821353	201.953519	66.000000	66.000000
201.953519	202.217824	67.000000	64.000000
201.953519	202.217824	71.000000	64.000000
201.953519	202.217824	74.000000	70.000000
201.953519	202.217824	50.000000	62.000000
201.953519	202.217824	38.000000	62.000000
202.217824	202.351747	74.000000	62.000000
202.217824	202.351747	71.000000	57.000000
202.217824	202.485669	79.000000	57.000000
202.351747	202.485669	70.000000	63.000000
202.485669	202.747681	71.000000	64.000000
202.485669	202.747681	74.000000	64.000000
202.485669	202.747681	79.000000	70.000000
202.485669	202.747681	38.000000	57.000000
202.485669	202.747681	50.000000	57.000000
202.747681	203.014346	83.000000	59.000000
202.747681	202.881014	74.000000	64.000000
202.747681	203.014346	79.000000	59.000000
202.881014	203.014346	73.000000	64.000000
203.014346	203.285840	74.000000	70.000000
203.014346	203.285840	79.000000	70.000000
203.014346	203.285840	83.000000	82.000000
203.014346	203.285840	38.000000	55.000000
203.014346	203.285840	50.000000	64.000000
203.285840	203.421587	79.000000	67.000000
203.285840	203.421587	74.000000	67.000000
203.285840	203.421587	83.000000	67.000000
203.285840	203.557333	86.000000	80.000000
203.421587	203.557333	82.000000	83.000000
203.557333	203.828827	74.000000	70.000000
203.557333	203.828827	79.000000	70.000000
203.557333	203.828827	83.000000	70.000000
203.557333	203.828827	86.000000	83.000000
203.557333	203.828827	50.000000	60.000000
203.557333	203.828827	38.000000	60.000000
203.828827	203.971011	74.000000	73.000000
203.828827	203.971011	86.000000	73.000000
203.971011	204.113195	74.000000	73.000000
203.971011	204.113195	86.000000	73.000000
204.113195	204.390964	74.000000	72.000000
204.113195	204.390964	84.000000	85.000000
204.113195	204.390964	78.000000	72.000000
204.113195	204.390964	86.000000	85.000000
204.113195	204.390964	38.000000	66.000000
204.113195	204.390964	50.000000	66.000000
204.390964	204.668747	74.000000	67.000000
204.390964	204.668747	86.000000	78.000000
204.390964	204.668747	78.000000	67.000000
204.390964	204.668747	84.000000	78.000000
204.390964	204.668747	38.000000	61.000000
204.390964	204.668747	50.000000	61.000000
204.668747	204.936606	62.000000	69.000000
204.668747	204.936606	67.000000	75.000000
204.668747	204.936606	71.000000	69.000000
204.668747	205.472298	43.000000	49.000000
204.668747	205.472298	55.000000	58.000000
204.936606	205.070529	62.000000	63.000000
204.936606	205.070529	67.000000	70.000000
204.936606	205.204452	71.000000	63.000000
205.070529	205.204452	66.000000	70.000000
205.204452	205.472298	65.000000	75.000000
205.204452	205.472298	71.000000	69.000000
205.472298	205.606220	64.000000	70.000000
205.472298	205.740157	71.000000	63.000000
205.472298	205.740157	38.000000	41.000000
205.472298	205.740157	50.000000	50.000000
205.606220	205.740157	63.000000	75.000000
205.740157	206.008016	62.000000	79.000000
205.740157	206.008016	66.000000	72.000000
205.740157	206.008016	72.000000	72.000000
205.740157	206.008016	45.000000	46.000000
205.740157	206.008016	57.000000	56.000000
206.008016	206.146592	66.000000	72.000000
206.008016	206.285168	72.000000	66.000000
206.008016	206.285168	38.000000	51.000000
206.008016	206.285168	50.000000	61.000000
206.146592	206.285168	62.000000	72.000000
206.285168	206.553027	62.000000	75.000000
206.285168	206.553027	67.000000	82.000000
206.285168	206.553027	71.000000	75.000000
206.285168	207.088719	43.000000	55.000000
206.285168	207.088719	55.000000	64.000000
206.553027	206.686950	62.000000	69.000000
206.553027	206.686950	67.000000	75.000000
206.553027	206.820873	71.000000	69.000000
206.686950	206.820873	66.000000	75.000000
206.820873	207.088719	65.000000	80.000000
206.820873	207.088719	71.000000	73.000000
207.088719	207.224452	64.000000	70.000000
207.088719	207.360185	71.000000	63.000000
207.088719	207.360185	38.000000	52.000000
207.088719	207.360185	50.000000	62.000000
207.224452	207.360185	63.000000	71.000000
207.360185	207.636171	62.000000	79.000000
207.360185	207.636171	66.000000	72.000000
207.360185	207.636171	72.000000	72.000000
207.360185	207.636171	45.000000	49.000000
207.360185	207.636171	57.000000	58.000000
207.636171	207.781802	66.000000	71.000000
207.636171	207.927432	72.000000	64.000000
207.636171	207.927432	38.000000	46.000000
207.636171	207.927432	50.000000	55.000000
207.781802	207.927432	62.000000	71.000000
207.927432	209.027313	67.000000	49.000000
207.927432	209.027313	71.000000	49.000000
207.927432	209.027313	74.000000	58.000000
207.927432	209.027313	79.000000	75.000000
207.927432	209.027313	43.000000	39.000000
207.927432	209.027313	55.000000	47.000000
208.206288	208.339031	50.000000	49.000000
208.339031	208.471774	52.000000	49.000000
208.471774	208.610659	50.000000	52.000000
208.749543	208.888428	50.000000	49.000000
209.027313	209.438268	66.000000	46.000000
209.027313	209.438268	72.000000	55.000000
209.027313	209.438268	78.000000	66.000000
209.027313	209.587412	43.000000	39.000000
209.027313	209.587412	57.000000	47.000000
209.301288	209.587412	50.000000	47.000000
209.438268	209.587412	74.000000	63.000000
209.587412	209.866268	76.000000	69.000000
209.587412	210.688473	67.000000	58.000000
209.587412	210.688473	71.000000	58.000000
209.587412	210.688473	43.000000	47.000000
209.587412	210.688473	59.000000	47.000000
209.866268	209.955157	76.000000	60.000000
209.866268	209.999601	50.000000	49.000000
209.955157	210.044045	78.000000	60.000000
209.999601	210.132934	52.000000	49.000000
210.044045	210.132934	76.000000	60.000000
210.132934	210.688473	74.000000	64.000000
210.132934	210.271819	50.000000	52.000000
210.410704	210.549588	50.000000	49.000000
210.688473	211.118713	60.000000	39.000000
210.688473	211.118713	72.000000	58.000000
210.688473	211.118713	62.000000	39.000000
210.688473	211.118713	66.000000	39.000000
210.688473	211.118713	69.000000	39.000000
210.688473	211.265940	43.000000	39.000000
210.688473	211.265940	57.000000	47.000000
210.971487	211.265940	50.000000	40.000000
211.118713	211.265940	69.000000	53.000000
211.265940	211.408982	71.000000	63.000000
211.265940	212.128029	62.000000	45.000000
211.265940	212.128029	67.000000	45.000000
211.265940	212.409715	43.000000	35.000000
211.265940	212.409715	55.000000	41.000000
211.408982	211.552025	72.000000	57.000000
211.552025	211.838109	74.000000	60.000000
211.552025	211.695067	50.000000	44.000000
211.695067	211.838109	52.000000	44.000000
211.838109	212.409715	74.000000	60.000000
211.838109	211.983069	50.000000	47.000000
212.128029	212.268872	59.000000	42.000000
212.128029	212.268872	50.000000	44.000000
212.268872	212.409715	62.000000	38.000000
212.409715	212.553857	60.000000	42.000000
212.409715	212.986283	43.000000	41.000000
212.409715	212.986283	54.000000	41.000000
212.553857	212.697999	62.000000	38.000000
212.697999	212.842141	60.000000	42.000000
212.697999	212.986283	50.000000	41.000000
212.842141	212.986283	62.000000	38.000000
212.986283	213.281997	59.000000	48.000000
212.986283	214.162419	43.000000	39.000000
212.986283	214.162419	55.000000	47.000000
213.281997	214.162419	59.000000	42.000000
213.281997	213.429854	62.000000	42.000000
213.281997	213.429854	50.000000	49.000000
213.429854	213.577281	64.000000	39.000000
213.429854	213.577281	52.000000	49.000000
213.577281	213.721598	62.000000	46.000000
213.577281	213.721598	50.000000	52.000000
213.721598	213.865914	64.000000	40.000000
213.865914	214.014160	67.000000	48.000000
213.865914	214.014160	50.000000	49.000000
214.014160	214.162419	64.000000	44.000000
214.162419	214.770704	60.000000	46.000000
214.162419	214.452742	66.000000	51.000000
214.162419	214.770704	43.000000	41.000000
214.162419	214.770704	57.000000	47.000000
214.452742	214.605869	64.000000	48.000000
214.452742	214.770704	50.000000	47.000000
214.605869	214.770704	62.000000	48.000000
214.770704	215.872945	67.000000	53.000000
214.770704	215.872945	71.000000	53.000000
214.770704	215.872945	74.000000	63.000000
214.770704	215.872945	79.000000	82.000000
214.770704	215.872945	43.000000	42.000000
214.770704	215.872945	55.000000	51.000000
215.049560	215.183483	50.000000	53.000000
215.183483	215.317406	52.000000	53.000000
215.317406	215.456291	50.000000	57.000000
215.595176	215.734060	50.000000	53.000000
215.872945	216.283900	66.000000	46.000000
215.872945	216.283900	72.000000	60.000000
215.872945	216.283900	78.000000	68.000000
215.872945	216.433045	43.000000	39.000000
215.872945	216.433045	57.000000	47.000000
216.146920	216.433045	50.000000	47.000000
216.283900	216.433045	74.000000	66.000000
216.433045	216.711901	76.000000	69.000000
216.433045	217.536506	67.000000	58.000000
216.433045	217.536506	71.000000	58.000000
216.433045	217.536506	43.000000	47.000000
216.433045	217.536506	59.000000	47.000000
216.711901	216.801580	76.000000	60.000000
216.711901	216.846427	50.000000	49.000000
216.801580	216.891273	78.000000	60.000000
216.846427	216.980967	52.000000	49.000000
216.891273	216.980967	76.000000	60.000000
216.980967	217.536506	74.000000	64.000000
216.980967	217.119851	50.000000	52.000000
217.258736	217.397621	50.000000	49.000000
217.536506	217.963125	60.000000	39.000000
217.536506	217.963125	72.000000	58.000000
217.536506	217.963125	62.000000	39.000000
217.536506	217.963125	66.000000	39.000000
217.536506	217.963125	69.000000	39.000000
217.536506	218.108058	43.000000	39.000000
217.536506	218.108058	57.000000	47.000000
217.818192	218.108058	50.000000	40.000000
217.963125	218.108058	69.000000	53.000000
218.108058	218.251101	71.000000	63.000000
218.108058	218.970148	62.000000	45.000000
218.108058	218.970148	67.000000	45.000000
218.108058	219.253188	43.000000	35.000000
218.108058	219.253188	55.000000	41.000000
218.251101	218.394143	72.000000	57.000000
218.394143	218.680228	74.000000	60.000000
218.394143	218.537185	50.000000	44.000000
218.537185	218.680228	52.000000	44.000000
218.680228	219.253188	74.000000	60.000000
218.680228	218.825188	50.000000	47.000000
218.970148	219.111661	59.000000	42.000000
218.970148	219.111661	50.000000	44.000000
219.111661	219.253188	62.000000	38.000000
219.253188	219.397330	60.000000	42.000000
219.253188	219.829756	43.000000	41.000000
219.253188	219.829756	54.000000	41.000000
219.397330	219.541472	62.000000	38.000000
219.541472	219.685614	60.000000	42.000000
219.541472	219.829756	50.000000	41.000000
219.685614	219.829756	62.000000	38.000000
219.829756	220.125470	59.000000	48.000000
219.829756	221.005892	43.000000	39.000000
219.829756	221.005892	55.000000	47.000000
220.125470	221.005892	59.000000	42.000000
220.125470	220.273327	62.000000	42.000000
220.125470	220.273327	50.000000	49.000000
220.273327	220.420754	64.000000	39.000000
220.273327	220.420754	52.000000	49.000000
220.420754	220.565071	62.000000	46.000000
220.420754	220.565071	50.000000	52.000000
220.565071	220.709387	64.000000	40.000000
220.709387	220.857633	67.000000	48.000000
220.709387	220.857633	50.000000	49.000000
220.857633	221.005892	64.000000	44.000000
221.005892	221.596300	60.000000	42.000000
221.005892	221.296215	66.000000	51.000000
221.005892	221.596300	43.000000	39.000000
221.005892	221.596300	57.000000	47.000000
221.296215	221.443240	64.000000	48.000000
221.296215	221.596300	50.000000	47.000000
221.443240	221.596300	62.000000	48.000000
221.596300	222.699748	67.000000	56.000000
221.596300	222.699748	74.000000	66.000000
221.596300	222.699748	79.000000	79.000000
221.596300	222.699748	43.000000	44.000000
221.596300	222.699748	58.000000	53.000000
221.875156	222.009683	50.000000	56.000000
222.009683	222.144209	51.000000	56.000000
222.144209	222.283094	50.000000	59.000000
222.421979	222.560864	50.000000	56.000000
222.699748	223.108839	65.000000	48.000000
222.699748	223.108839	69.000000	57.000000
222.699748	223.108839	77.000000	70.000000
222.699748	223.257984	41.000000	40.000000
222.699748	223.257984	63.000000	49.000000
222.972476	223.257984	53.000000	49.000000
223.108839	223.257984	72.000000	68.000000
223.257984	223.536840	74.000000	72.000000
223.257984	224.362652	65.000000	60.000000
223.257984	224.362652	70.000000	60.000000
223.257984	224.362652	46.000000	49.000000
223.257984	224.362652	62.000000	49.000000
223.536840	223.671969	74.000000	66.000000
223.536840	223.671969	53.000000	51.000000
223.671969	223.807113	75.000000	66.000000
223.671969	223.807113	55.000000	51.000000
223.807113	224.362652	77.000000	72.000000
223.807113	223.945997	53.000000	55.000000
224.084882	224.223767	53.000000	51.000000
224.362652	224.798176	75.000000	67.000000
224.362652	224.798176	65.000000	40.000000
224.362652	224.798176	69.000000	40.000000
224.362652	224.945403	46.000000	40.000000
224.362652	224.945403	63.000000	49.000000
224.650949	224.945403	53.000000	41.000000
224.798176	224.945403	72.000000	56.000000
224.945403	225.083657	74.000000	72.000000
224.945403	226.040241	70.000000	47.000000
224.945403	226.040241	65.000000	42.000000
224.945403	226.040241	46.000000	40.000000
224.945403	226.040241	62.000000	49.000000
225.083657	225.221912	75.000000	63.000000
225.221912	225.360166	74.000000	68.000000
225.221912	225.360166	53.000000	51.000000
225.360166	225.498421	75.000000	61.000000
225.360166	225.498421	55.000000	51.000000
225.498421	225.635401	77.000000	70.000000
225.498421	225.635401	53.000000	55.000000
225.635401	225.772382	79.000000	62.000000
225.772382	225.906305	81.000000	69.000000
225.772382	225.906305	53.000000	51.000000
225.906305	226.040241	79.000000	60.000000
226.040241	226.605731	69.000000	44.000000
226.040241	226.181298	77.000000	69.000000
226.040241	226.605731	46.000000	40.000000
226.040241	226.605731	63.000000	49.000000
226.181298	226.322356	75.000000	69.000000
226.322356	226.463413	74.000000	74.000000
226.322356	226.605731	53.000000	49.000000
226.463413	226.605731	72.000000	69.000000
226.605731	226.744630	74.000000	77.000000
226.605731	227.710641	70.000000	50.000000
226.605731	227.710641	65.000000	50.000000
226.605731	227.710641	46.000000	40.000000
226.605731	227.710641	62.000000	49.000000
226.744630	226.883514	75.000000	66.000000
226.883514	227.022399	74.000000	72.000000
226.883514	227.022399	53.000000	51.000000
227.022399	227.163913	75.000000	61.000000
227.022399	227.163913	55.000000	51.000000
227.163913	227.299659	77.000000	70.000000
227.163913	227.299659	53.000000	55.000000
227.299659	227.435406	79.000000	62.000000
227.435406	227.573017	81.000000	69.000000
227.435406	227.573017	53.000000	51.000000
227.573017	227.710641	79.000000	60.000000
227.710641	228.285372	69.000000	61.000000
227.710641	227.851524	77.000000	67.000000
227.710641	228.285372	46.000000	46.000000
227.710641	228.285372	63.000000	46.000000
227.851524	227.993842	75.000000	66.000000
227.993842	228.137622	74.000000	63.000000
227.993842	228.285372	53.000000	42.000000
228.137622	228.285372	72.000000	62.000000
228.285372	229.381766	65.000000	49.000000
228.285372	229.381766	70.000000	59.000000
228.285372	229.381766	74.000000	74.000000
228.285372	229.381766	46.000000	39.000000
228.285372	229.381766	62.000000	48.000000
228.564228	228.695227	53.000000	44.000000
228.695227	228.826226	55.000000	44.000000
228.826226	228.965111	53.000000	49.000000
229.103996	229.242881	53.000000	45.000000
229.381766	229.666402	72.000000	57.000000
229.381766	229.957864	62.000000	48.000000
229.381766	229.957864	66.000000	48.000000
229.381766	229.666402	74.000000	62.000000
229.381766	229.957864	45.000000	36.000000
229.381766	229.666402	57.000000	44.000000
229.666402	229.808720	74.000000	58.000000
229.666402	229.957864	50.000000	44.000000
229.808720	229.957864	72.000000	58.000000
229.957864	231.081134	62.000000	49.000000
229.957864	231.081134	67.000000	59.000000
229.957864	230.795237	71.000000	69.000000
229.957864	231.081134	43.000000	39.000000
229.957864	230.236720	55.000000	48.000000
230.236720	230.376155	55.000000	44.000000
230.376155	230.515590	56.000000	44.000000
230.515590	230.655414	55.000000	49.000000
230.795237	230.938186	72.000000	58.000000
230.795237	230.938186	55.000000	45.000000
230.938186	231.081134	74.000000	58.000000
231.081134	231.648569	67.000000	48.000000
231.081134	231.648569	72.000000	48.000000
231.081134	231.359990	75.000000	62.000000
231.081134	231.648569	48.000000	36.000000
231.081134	231.359990	55.000000	44.000000
231.359990	231.499425	77.000000	58.000000
231.359990	231.648569	57.000000	44.000000
231.499425	231.648569	75.000000	58.000000
231.648569	232.209540	67.000000	59.000000
231.648569	231.927425	74.000000	74.000000
231.648569	232.787878	50.000000	39.000000
231.648569	231.927425	59.000000	48.000000
231.927425	232.068483	71.000000	58.000000
231.927425	232.068483	62.000000	44.000000
232.068483	232.209540	72.000000	58.000000
232.068483	232.209540	64.000000	44.000000
232.209540	232.501982	71.000000	52.000000
232.209540	232.787878	67.000000	49.000000
232.209540	232.501982	74.000000	68.000000
232.209540	232.355761	62.000000	49.000000
232.501982	232.644930	71.000000	55.000000
232.501982	232.644930	62.000000	45.000000
232.644930	232.787878	72.000000	55.000000
232.787878	233.372480	62.000000	46.000000
232.787878	233.372480	66.000000	46.000000
232.787878	233.075063	71.000000	60.000000
232.787878	233.372480	50.000000	36.000000
232.787878	233.075063	60.000000	44.000000
233.075063	233.223322	69.000000	55.000000
233.075063	233.372480	60.000000	41.000000
233.223322	233.372480	71.000000	55.000000
233.372480	233.647701	62.000000	55.000000
233.372480	233.647701	67.000000	60.000000
233.372480	234.183392	43.000000	39.000000
233.372480	234.183392	59.000000	47.000000
233.647701	233.781624	62.000000	51.000000
233.647701	233.781624	67.000000	56.000000
233.647701	233.915547	71.000000	51.000000
233.781624	233.915547	66.000000	56.000000
233.915547	234.183392	65.000000	60.000000
233.915547	234.183392	71.000000	55.000000
234.183392	234.317315	64.000000	56.000000
234.183392	234.451251	71.000000	51.000000
234.183392	234.451251	38.000000	34.000000
234.183392	234.451251	50.000000	40.000000
234.317315	234.451251	63.000000	60.000000
234.451251	234.719110	62.000000	63.000000
234.451251	234.719110	66.000000	58.000000
234.451251	234.719110	72.000000	58.000000
234.451251	234.719110	45.000000	37.000000
234.451251	234.719110	57.000000	45.000000
234.719110	234.857687	66.000000	58.000000
234.719110	234.996263	72.000000	53.000000
234.719110	234.996263	38.000000	41.000000
234.719110	234.996263	50.000000	49.000000
234.857687	234.996263	62.000000	58.000000
234.996263	235.264122	62.000000	60.000000
234.996263	235.264122	67.000000	66.000000
234.996263	235.264122	71.000000	60.000000
234.996263	235.799813	43.000000	44.000000
234.996263	235.799813	55.000000	52.000000
235.264122	235.398045	62.000000	55.000000
235.264122	235.398045	67.000000	60.000000
235.264122	235.531968	71.000000	55.000000
235.398045	235.531968	66.000000	60.000000
235.531968	235.799813	65.000000	64.000000
235.531968	235.799813	71.000000	59.000000
235.799813	235.935547	64.000000	56.000000
235.799813	236.071280	71.000000	51.000000
235.799813	236.071280	38.000000	42.000000
235.799813	236.071280	50.000000	50.000000
235.935547	236.071280	63.000000	57.000000
236.071280	236.339125	62.000000	63.000000
236.071280	236.339125	66.000000	58.000000
236.071280	236.339125	72.000000	58.000000
236.071280	236.339125	45.000000	39.000000
236.071280	236.339125	57.000000	47.000000
236.339125	236.475489	66.000000	57.000000
236.339125	236.611853	72.000000	52.000000
236.339125	236.611853	38.000000	37.000000
236.339125	236.611853	50.000000	44.000000
236.475489	236.611853	62.000000	57.000000
236.611853	236.876171	62.000000	60.000000
236.611853	236.876171	67.000000	66.000000
236.611853	236.876171	71.000000	60.000000
236.611853	236.744019	43.000000	44.000000
236.611853	236.744019	55.000000	52.000000
236.876171	237.008324	62.000000	55.000000
236.876171	237.008324	67.000000	60.000000
236.876171	237.140490	71.000000	55.000000
237.008324	237.140490	66.000000	60.000000
237.140490	237.404795	62.000000	59.000000
237.140490	237.404795	67.000000	59.000000
237.140490	237.404795	71.000000	64.000000
237.140490	237.272642	55.000000	52.000000
237.404795	237.538717	71.000000	56.000000
237.404795	237.538717	67.000000	51.000000
237.404795	237.672640	74.000000	51.000000
237.538717	237.672640	70.000000	57.000000
237.672640	237.934638	67.000000	58.000000
237.672640	237.934638	71.000000	58.000000
237.672640	237.934638	74.000000	63.000000
237.672640	237.803639	62.000000	47.000000
237.934638	238.067971	71.000000	52.000000
237.934638	238.067971	74.000000	57.000000
237.934638	238.201304	79.000000	52.000000
238.067971	238.201304	73.000000	57.000000
238.201304	238.462176	74.000000	60.000000
238.201304	238.462176	79.000000	66.000000
238.201304	238.462176	83.000000	60.000000
238.201304	238.331740	67.000000	52.000000
238.462176	238.592612	74.000000	55.000000
238.462176	238.592612	79.000000	60.000000
238.462176	238.723047	83.000000	55.000000
238.592612	238.723047	78.000000	60.000000
238.723047	238.983906	74.000000	59.000000
238.723047	238.983906	79.000000	59.000000
238.723047	238.983906	83.000000	64.000000
238.723047	238.853470	71.000000	52.000000
238.983906	239.116649	83.000000	56.000000
238.983906	239.116649	79.000000	51.000000
238.983906	239.249391	86.000000	51.000000
239.116649	239.249391	82.000000	57.000000
239.249391	239.510276	79.000000	57.000000
239.249391	239.510276	83.000000	57.000000
239.249391	239.510276	86.000000	57.000000
239.249391	239.379840	74.000000	47.000000
239.510276	239.639036	83.000000	51.000000
239.510276	239.639036	86.000000	56.000000
239.510276	239.767795	91.000000	51.000000
239.639036	239.767795	85.000000	56.000000
239.767795	240.027541	83.000000	57.000000
239.767795	240.027541	86.000000	62.000000
239.767795	240.027541	91.000000	57.000000
239.767795	239.897668	79.000000	47.000000
240.027541	240.157413	83.000000	50.000000
240.027541	240.157413	86.000000	55.000000
240.027541	240.287286	91.000000	50.000000
240.157413	240.287286	82.000000	53.000000
240.287286	240.547031	83.000000	53.000000
240.287286	240.547031	86.000000	58.000000
240.287286	240.547031	91.000000	53.000000
240.287286	240.417159	79.000000	45.000000
240.547031	240.676904	83.000000	48.000000
240.547031	240.676904	86.000000	52.000000
240.547031	240.806777	91.000000	48.000000
240.676904	240.806777	82.000000	51.000000
240.806777	241.066522	83.000000	51.000000
240.806777	241.066522	86.000000	56.000000
240.806777	241.066522	91.000000	51.000000
240.806777	240.936649	79.000000	42.000000
241.066522	241.199855	83.000000	45.000000
241.066522	241.199855	86.000000	49.000000
241.066522	241.333187	91.000000	45.000000
241.199855	241.333187	82.000000	49.000000
241.333187	241.594059	83.000000	49.000000
241.333187	241.594059	86.000000	53.000000
241.333187	241.594059	91.000000	49.000000
241.333187	241.463623	79.000000	40.000000
241.594059	241.727982	83.000000	42.000000
241.594059	241.727982	86.000000	46.000000
241.594059	241.862200	91.000000	42.000000
241.727982	241.862200	82.000000	46.000000
241.862200	242.129455	83.000000	46.000000
241.862200	242.129455	86.000000	50.000000
241.862200	242.129455	91.000000	46.000000
241.862200	241.994942	79.000000	38.000000
242.129455	242.267227	83.000000	40.000000
242.129455	242.267227	86.000000	44.000000
242.129455	242.404999	91.000000	40.000000
242.267227	242.404999	82.000000	42.000000
242.404999	242.678946	83.000000	44.000000
242.404999	242.678946	86.000000	48.000000
242.404999	242.678946	91.000000	44.000000
242.404999	242.542368	79.000000	36.000000
242.678946	242.818569	83.000000	38.000000
242.678946	242.818569	86.000000	41.000000
242.678946	242.958191	91.000000	38.000000
242.818569	242.958191	82.000000	40.000000
242.958191	245.689741	83.000000	33.000000
242.958191	245.689741	86.000000	33.000000
242.958191	245.689741	91.000000	37.000000
242.958191	245.689741	67.000000	29.000000
242.958191	245.689741	74.000000	34.000000
245.689741	246.286761	83.000000	81.000000
245.689741	246.286761	86.000000	81.000000
245.689741	246.286761	91.000000	92.000000
245.689741	246.286761	95.000000	92.000000
245.689741	246.286761	67.000000	71.000000
245.689741	246.286761	74.000000	71.000000
245.689741	246.286761	79.000000	80.000000
246.286761	248.077807	55.000000	99.000000
246.286761	248.077807	31.000000	75.000000
246.286761	248.077807	43.000000	85.000000
