OnsetTime	OffsetTime	MidiPitch	Velocity
0.500004	1.93285	43	44
0.500004	1.93285	50	52
0.500004	1.93285	59	64
0.500004	1.93285	62	77
1.23171	1.93285	86	70
1.93285	3.34252	43	38
1.93285	3.34252	50	44
1.93285	3.34252	59	55
1.93285	3.34252	62	65
2.66456	3.34252	86	62
3.34252	4.741	43	29
3.34252	4.741	50	36
3.34252	4.741	59	50
3.34252	4.741	62	59
4.04839	4.77231	86	57
4.741	6.19152	43	25
4.741	6.19152	50	30
4.741	6.19152	59	43
4.741	6.00992	62	51
5.45673	6.28667	86	49
6.00992	6.28667	62	46
6.19152	7.56924	43	28
6.19152	7.56924	50	34
6.19152	6.88667	59	43
6.19152	6.54834	67	51
6.54834	6.88667	67	44
6.88667	7.05019	59	42
6.88667	7.05019	67	50
6.88667	7.56924	86	47
7.05019	7.51329	69	40
7.21744	7.51329	71	45
7.38096	7.51903	72	40
7.5262	7.61313	72	44
7.56924	8.96463	43	30
7.56924	8.96463	50	36
7.56924	8.41746	62	43
7.56924	8.09137	71	51
7.92037	8.41746	69	39
8.09137	8.41746	71	35
8.26238	9.00179	59	38
8.26238	9.00179	67	45
8.26238	9.00179	86	45
8.78907	9.00179	64	47
8.96463	10.3346	43	28
8.96463	10.3346	50	34
8.96463	9.65109	60	43
8.96463	9.32142	69	51
9.32142	9.65109	69	45
9.65109	9.81371	60	42
9.65109	9.81371	69	50
9.65109	10.3346	86	47
9.81371	10.2787	71	40
9.9819	10.2787	72	45
10.1463	10.2844	74	40
10.2916	10.3785	74	44
10.3346	11.73	43	30
10.3346	11.73	50	36
10.3346	11.1828	64	43
10.3346	10.8567	72	51
10.6857	11.1828	71	41
10.8567	11.1828	72	38
11.0277	11.73	60	38
11.0277	11.7672	69	45
11.0277	11.7672	86	45
11.5544	11.7672	67	47
11.73	13.1318	43	28
11.73	13.1318	50	34
11.73	12.4311	60	43
11.73	12.0868	66	51
12.0868	12.4311	66	48
12.388	12.5714	67	42
12.4311	12.6012	60	42
12.4311	12.6012	66	50
12.4311	13.1318	86	47
12.6012	13.1318	62	40
12.7714	13.1318	64	45
12.9435	13.1318	66	40
13.1318	14.5473	43	28
13.1318	14.5473	50	34
13.1318	14.5473	59	43
13.1318	14.5473	67	51
13.8547	14.6425	86	47
14.3711	14.6425	62	44
14.5473	15.9241	43	27
14.5473	15.9241	50	32
14.5473	15.2425	59	40
14.5473	14.9041	67	48
14.9041	15.2425	67	45
15.2425	15.406	59	40
15.2425	15.406	67	47
15.2425	15.9241	86	44
15.406	15.8682	69	38
15.5732	15.8682	71	43
15.7359	15.8739	72	38
15.8811	15.968	72	41
15.9241	17.3195	43	28
15.9241	17.3195	50	34
15.9241	16.7724	62	40
15.9241	16.4463	71	48
16.2753	16.7724	69	39
16.4463	16.7724	71	33
16.6173	17.3567	59	36
16.6173	17.3567	67	42
16.6173	17.3567	86	42
17.144	17.3567	64	44
17.3195	18.6963	43	27
17.3195	18.6963	50	32
17.3195	18.0147	60	40
17.3195	17.6763	69	48
17.6763	18.0147	69	42
18.0147	18.1782	60	40
18.0147	18.1782	69	47
18.0147	18.6963	86	44
18.1782	18.6404	71	38
18.3454	18.6404	72	43
18.508	18.6461	74	38
18.6533	18.7402	74	41
18.6963	20.1098	43	28
18.6963	20.1098	50	34
18.6963	19.5445	64	40
18.6963	19.2185	72	48
19.0475	19.5445	71	38
19.2185	19.5445	72	36
19.3895	20.1098	60	36
19.3895	20.147	69	42
19.3895	20.147	86	42
19.9282	20.147	67	44
20.1098	21.5116	43	27
20.1098	21.5116	50	32
20.1098	20.8109	60	40
20.1098	20.4666	66	48
20.4666	20.8109	66	45
20.7678	20.9513	67	40
20.8109	20.981	60	40
20.8109	20.981	66	47
20.8109	21.5116	86	44
20.981	21.5116	62	38
21.1512	21.5116	64	43
21.3233	21.5116	66	38
21.5116	22.9196	43	27
21.5116	22.9196	50	32
21.5116	22.9196	59	40
21.5116	22.9196	67	48
22.2166	23.0147	86	44
22.7454	23.0147	62	46
22.9196	24.2973	43	28
22.9196	24.2973	50	34
22.9196	23.6147	59	43
22.9196	23.2764	67	51
23.2764	23.6147	67	44
23.6147	23.7783	59	42
23.6147	23.7783	67	50
23.6147	24.2973	77	45
23.7783	24.2414	69	40
23.9455	24.2414	71	45
24.109	24.2471	72	37
24.2543	24.3412	72	44
24.2973	25.683	43	30
24.2973	25.7187	50	36
24.2973	25.1434	62	43
24.2973	24.8194	71	51
24.6484	25.1434	69	41
24.8194	25.1434	71	37
24.9904	25.7187	59	37
24.9904	25.7187	67	45
24.9904	25.7187	77	42
25.5099	25.7187	64	47
25.683	27.0385	43	28
25.683	27.0385	52	34
25.683	26.355	60	43
25.683	26.0253	69	51
26.0253	26.355	69	45
26.355	26.5176	60	44
26.355	26.5176	69	51
26.355	27.0385	76	46
26.5176	26.9825	71	42
26.6858	26.9825	72	48
26.8502	26.9883	74	43
26.9955	27.0818	74	47
27.0385	28.3902	43	32
27.0385	28.4267	52	38
27.0385	27.8725	64	46
27.0385	27.5511	72	54
27.3848	27.8725	71	45
27.5511	27.8725	72	38
27.7174	28.4267	60	42
27.7174	28.4267	69	51
27.7174	28.4267	76	47
28.2244	28.4267	67	56
28.3902	29.7538	43	35
28.3902	29.7538	50	42
28.3902	29.0703	64	52
28.3902	28.7406	72	62
28.7406	29.0703	72	55
29.0703	29.2329	64	53
29.0703	29.2329	72	63
29.0703	29.7538	81	55
29.2329	29.6979	74	51
29.4011	29.6979	76	58
29.5655	29.7036	78	52
29.7108	29.7966	78	56
29.7538	31.1188	43	38
29.7538	31.1188	50	46
29.7538	30.5819	67	55
29.7538	30.2615	76	66
30.0961	30.5819	74	54
30.2615	30.5819	76	50
30.4268	31.1557	66	50
30.4268	31.1557	72	61
30.4268	31.1557	81	55
30.9467	31.1188	71	67
31.1188	32.4848	43	44
31.1188	32.4848	50	53
31.1188	31.8013	71	62
31.1188	31.4734	79	74
31.4734	31.8013	79	68
31.8013	31.9639	71	65
31.8013	31.9639	79	76
31.8013	32.4848	86	72
31.9639	32.4289	81	62
32.1321	32.4289	83	70
32.2966	32.4346	84	62
32.4418	32.5287	84	67
32.4848	33.8983	43	46
32.4848	33.8983	50	55
32.4848	33.2453	74	66
32.4848	33.007	83	79
32.836	33.2453	81	73
33.007	33.2453	83	69
33.178	33.9935	71	69
33.178	33.9935	79	84
33.178	33.9935	91	81
33.7167	33.9935	62	64
33.8983	35.2593	43	37
33.8983	35.2593	50	46
33.8983	34.5848	59	57
33.8983	34.2551	67	69
34.2551	34.5848	67	59
34.5848	34.7483	59	56
34.5848	34.7483	67	68
34.5848	35.2593	77	59
34.7483	35.2033	69	54
34.9156	35.2033	71	60
35.071	35.2091	72	54
35.2162	35.3032	72	59
35.2593	36.6401	43	40
35.2593	36.6757	50	48
35.2593	36.1004	62	57
35.2593	35.7789	71	69
35.6104	36.1004	69	53
35.7789	36.1004	71	51
35.9475	36.6757	59	51
35.9475	36.6757	67	60
35.9475	36.6757	77	56
36.4669	36.6757	64	64
36.6401	37.9874	43	37
36.6401	37.9874	52	46
36.6401	37.312	60	57
36.6401	36.9823	69	69
36.9823	37.312	69	60
37.312	37.4746	60	59
37.312	37.4746	69	69
37.312	37.9874	76	61
37.4746	37.9314	71	56
37.6428	37.9314	72	65
37.7991	37.9371	74	57
37.9443	38.0307	74	62
37.9874	39.3552	43	43
37.9874	39.3917	52	52
37.9874	38.8213	64	61
37.9874	38.5	72	72
38.3337	38.8213	71	60
38.5	38.8213	72	55
38.6663	39.3917	60	56
38.6663	39.3917	69	69
38.6663	39.3917	76	64
39.1841	39.3917	67	65
39.3552	40.7218	43	40
39.3552	40.7218	50	48
39.3552	40.044	64	59
39.3552	39.7057	72	71
39.7057	40.044	72	63
40.044	40.2066	64	61
40.044	40.2066	72	72
40.044	40.7218	81	65
40.2066	40.6659	74	58
40.3748	40.6659	76	67
40.5335	40.6716	78	59
40.6788	40.7646	78	65
40.7218	42.0868	43	44
40.7218	42.0868	50	53
40.7218	41.5499	67	63
40.7218	41.2295	76	75
41.0641	41.5499	74	62
41.2295	41.5499	76	57
41.3948	42.1237	66	57
41.3948	42.1237	72	70
41.3948	42.1237	81	65
41.9147	42.1237	74	68
42.0868	43.4633	43	45
42.0868	43.4633	50	54
42.0868	42.7798	71	63
42.0868	42.4414	79	75
42.4414	42.7798	79	70
42.7798	42.9424	71	67
42.7798	42.9424	79	78
42.7798	43.4633	86	70
42.9424	43.4073	81	63
43.1106	43.4073	83	69
43.275	43.4131	84	63
43.4203	43.5072	84	68
43.4633	44.8768	43	48
43.4633	44.8768	50	55
43.4633	44.2237	74	68
43.4633	43.9854	83	81
43.8144	44.2237	81	75
43.9854	44.2237	83	71
44.1564	44.8768	71	71
44.1564	44.8768	79	87
44.1564	44.8768	91	78
44.8768	46.2852	43	39
44.8768	46.2852	50	47
44.8768	45.5924	57	71
44.8768	45.3932	62	62
45.0489	45.5924	59	56
45.2211	45.5924	60	59
45.3932	45.5924	62	54
45.5716	46.2852	74	68
46.2852	46.6281	43	47
46.2852	46.8076	64	59
46.2852	46.8076	72	70
46.6281	46.9871	43	40
46.6281	47.0284	62	52
46.6281	47.0284	71	62
46.8076	47.0284	50	40
46.8076	47.0284	64	46
46.8076	47.0284	72	55
46.9871	47.6964	43	47
46.9871	47.6964	60	52
46.9871	47.6964	69	62
47.3417	47.6964	38	41
47.6964	49.1048	43	39
47.6964	49.1048	50	47
47.6964	48.412	57	71
47.6964	48.2128	62	62
47.8685	48.412	59	58
48.0406	48.412	60	59
48.2128	48.412	62	53
48.3912	49.1048	74	68
49.1048	49.4457	43	47
49.1048	49.6252	62	59
49.1048	49.6252	71	70
49.4457	49.8047	43	40
49.4457	49.8461	60	52
49.4457	49.8461	69	62
49.6252	49.8461	50	40
49.6252	49.8461	62	46
49.6252	49.8461	71	55
49.8047	50.514	43	40
49.8047	50.514	55	47
49.8047	50.514	59	52
49.8047	50.514	67	62
50.1593	50.514	38	39
50.514	51.9224	43	32
50.514	51.9224	50	38
50.514	51.2296	57	58
50.514	51.0304	62	51
50.6861	51.2296	59	47
50.8583	51.2296	60	48
51.0304	51.2296	62	45
51.2088	51.9224	74	55
51.9224	52.2653	43	38
51.9224	52.4448	64	48
51.9224	52.4448	72	57
52.2653	52.6243	43	33
52.2653	52.6656	62	43
52.2653	52.6656	71	51
52.4448	52.6656	50	33
52.4448	52.6656	64	37
52.4448	52.6656	72	45
52.6243	53.3179	43	38
52.6243	53.3179	60	43
52.6243	53.3179	69	51
52.9789	53.3179	38	33
53.3179	54.7263	43	30
53.3179	54.7263	50	36
53.3179	54.0335	57	55
53.3179	53.8343	62	48
53.49	54.0335	59	40
53.6622	54.0335	60	45
53.8343	54.0335	62	40
54.0127	54.7263	74	52
54.7263	55.0767	43	36
54.7263	55.2562	62	45
54.7263	55.2562	71	54
55.0767	55.4357	43	31
55.0767	55.4771	60	40
55.0767	55.4771	69	48
55.2562	55.4771	50	31
55.2562	55.4771	62	35
55.2562	55.4771	71	42
55.4357	56.1606	43	31
55.4357	56.2723	59	40
55.4357	56.2723	67	48
55.7904	56.2723	38	29
55.7904	56.2723	62	34
55.7904	56.2723	71	40
56.1606	57.6715	43	30
56.1606	57.6715	50	36
56.1606	56.9568	60	39
56.1606	56.9568	69	46
56.538	56.9353	59	36
56.538	56.9353	67	43
56.9353	57.6715	59	40
56.9353	57.6715	67	48
56.9353	57.6715	79	48
57.6715	59.1532	43	24
57.6715	59.1532	50	28
57.6715	59.1532	59	34
57.6715	59.1532	62	40
58.4215	59.8894	79	48
59.1532	61.4137	43	24
59.1532	61.4137	50	28
59.1532	60.6489	59	33
59.1532	60.6489	62	39
59.8894	61.4137	79	48
60.6489	61.4137	59	33
60.6489	61.4137	62	39
61.3718	61.5821	78	45
61.5518	61.7656	76	41
61.7348	61.9516	74	44
61.9203	62.1409	72	40
62.109	62.9976	71	48
62.8734	63.6377	38	24
62.8734	63.6377	60	34
62.8734	63.6377	66	34
62.8734	63.6377	69	41
63.6377	65.0705	43	26
63.6377	65.0705	50	31
63.6377	65.0705	59	34
63.6377	65.0705	62	34
63.6377	65.0705	67	40
64.3694	65.2214	86	43
65.0705	66.4802	43	22
65.0705	66.4802	50	27
65.0705	66.4802	59	32
65.0705	66.4802	62	32
65.0705	66.4802	67	38
65.8022	66.4802	86	39
66.4802	67.8829	43	23
66.4802	67.8829	50	28
66.4802	67.8829	59	32
66.4802	67.8829	62	32
66.4802	67.9142	67	38
67.1903	67.9142	86	39
67.8829	69.3334	43	22
67.8829	69.3334	50	26
67.8829	69.3334	59	33
67.8829	69.1518	62	39
68.5986	69.4285	86	42
69.1518	69.4285	62	46
69.3334	70.7111	43	28
69.3334	70.7111	50	34
69.3334	70.0285	59	43
69.3334	69.6902	67	51
69.6902	70.0285	67	44
70.0285	70.1921	59	42
70.0285	70.1921	67	50
70.0285	70.7111	86	47
70.1921	70.6552	69	40
70.3593	70.6552	71	43
70.5228	70.6609	72	39
70.6681	70.755	72	44
70.7111	72.1065	43	30
70.7111	72.1065	50	36
70.7111	71.5593	62	43
70.7111	71.2332	71	51
71.0622	71.5593	69	39
71.2332	71.5593	71	38
71.4042	72.1437	59	38
71.4042	72.1437	67	45
71.4042	72.1437	86	45
71.9309	72.1437	64	47
72.1065	73.4733	43	28
72.1065	73.4733	50	34
72.1065	72.793	60	43
72.1065	72.4633	69	51
72.4633	72.793	69	45
72.793	72.9556	60	42
72.793	72.9556	69	50
72.793	73.4733	86	47
72.9556	73.4174	71	40
73.1238	73.4174	72	45
73.2851	73.4231	74	40
73.4303	73.5172	74	44
73.4733	74.8601	43	30
73.4733	74.8601	50	36
73.4733	74.3129	64	43
73.4733	73.9911	72	51
73.8245	74.3129	71	41
73.9911	74.3129	72	38
74.1578	74.8972	60	38
74.1578	74.8972	69	45
74.1578	74.8972	86	45
74.6845	74.8972	67	47
74.8601	76.2618	43	28
74.8601	76.2618	50	34
74.8601	75.5611	57	43
74.8601	75.2169	66	51
75.2169	75.7015	60	39
75.2169	75.5611	66	48
75.5181	75.7015	67	42
75.5611	75.7313	57	42
75.5611	75.7313	66	50
75.5611	76.2618	86	47
75.7313	76.2618	62	40
75.9014	76.2618	60	42
75.9014	76.2618	64	45
76.0736	76.2618	66	40
76.2618	77.6638	43	28
76.2618	77.6638	50	34
76.2618	77.6638	59	43
76.2618	77.6638	67	51
76.9711	77.759	86	47
77.4875	77.759	62	41
77.6638	79.0415	43	28
77.6638	79.0415	50	34
77.6638	78.359	59	43
77.6638	78.0206	67	51
78.0206	78.359	67	44
78.359	78.5225	59	42
78.359	78.5225	67	50
78.359	79.0415	77	44
78.5225	78.9856	69	40
78.6897	78.9856	71	45
78.8532	78.9913	72	40
78.9985	79.0854	72	44
79.0415	80.4273	43	30
79.0415	80.4629	50	36
79.0415	79.8876	62	43
79.0415	79.5637	71	51
79.3926	79.8876	69	41
79.5637	79.8876	71	38
79.7347	80.4629	59	38
79.7347	80.4629	67	45
79.7347	80.4629	77	42
80.2541	80.4629	64	47
80.4273	81.7914	43	28
80.4273	81.7914	52	34
80.4273	81.1079	60	43
80.4273	80.7695	69	51
80.7695	81.1079	69	45
81.1079	81.2705	60	44
81.1079	81.2705	69	51
81.1079	81.7914	76	46
81.2705	81.7354	71	42
81.4387	81.7354	72	48
81.6031	81.7412	74	43
81.7483	81.8347	74	47
81.7914	83.1592	43	32
81.7914	83.1958	52	39
81.7914	82.6254	64	46
81.7914	82.304	72	55
82.1377	82.6254	71	45
82.304	82.6254	72	41
82.4703	83.1958	60	42
82.4703	83.1958	69	51
82.4703	83.1958	76	47
82.9881	83.1958	67	50
83.1592	84.5315	43	31
83.1592	84.5315	50	37
83.1592	83.848	64	46
83.1592	83.5097	72	55
83.5097	83.848	72	49
83.848	84.0106	64	47
83.848	84.0106	72	56
83.848	84.5315	81	53
84.0106	84.4756	74	45
84.1788	84.4756	76	52
84.3433	84.4813	78	46
84.4885	84.5734	78	50
84.5315	85.8894	43	34
84.5315	85.8894	50	41
84.5315	85.3525	67	49
84.5315	85.0321	76	58
84.8667	85.3525	74	48
85.0321	85.3525	76	40
85.1974	85.9264	66	44
85.1974	85.9264	72	54
85.1974	85.9264	81	53
85.7173	85.9264	74	53
85.8894	87.2659	43	35
85.8894	87.2659	50	42
85.8894	86.5824	71	49
85.8894	86.2441	79	58
86.2441	86.5824	79	54
86.5824	86.745	71	52
86.5824	86.745	79	60
86.5824	87.2659	86	57
86.745	87.21	81	49
86.9132	87.21	83	56
87.0777	87.2157	84	49
87.2229	87.3098	84	53
87.2659	88.6794	43	37
87.2659	88.6794	50	43
87.2659	88.0264	74	53
87.2659	87.7881	83	63
87.6171	88.0264	81	58
87.7881	88.0264	83	55
87.9591	88.6794	71	55
87.9591	88.6794	79	67
87.9591	88.6794	91	64
88.6794	90.0878	43	32
88.6794	90.0878	50	38
88.6794	89.395	57	58
88.6794	89.1958	62	51
88.8516	89.395	59	46
89.0237	89.395	60	48
89.1958	89.395	62	45
89.3742	90.0878	74	55
90.0878	90.4307	43	38
90.0878	90.6102	64	48
90.0878	90.6102	72	57
90.4307	90.7897	43	33
90.4307	90.8311	62	43
90.4307	90.8311	71	51
90.6102	90.8311	50	33
90.6102	90.8311	64	37
90.6102	90.8311	72	45
90.7897	91.499	43	38
90.7897	91.499	60	43
90.7897	91.499	69	51
91.1444	91.499	38	34
91.499	92.9074	43	32
91.499	92.9074	50	38
91.499	92.2146	57	58
91.499	92.0154	62	51
91.6711	92.2146	59	46
91.8433	92.2146	60	48
92.0154	92.2146	62	45
92.1938	92.9074	74	55
92.9074	93.2483	43	38
92.9074	93.4278	62	48
92.9074	93.4278	71	57
93.2483	93.6073	43	33
93.2483	93.6487	60	43
93.2483	93.6487	69	51
93.4278	93.6487	50	33
93.4278	93.6487	62	37
93.4278	93.6487	71	45
93.6073	94.299	43	33
93.6073	94.299	59	43
93.6073	94.299	67	51
93.962	94.299	38	32
94.299	95.7075	43	32
94.299	95.7075	50	38
94.299	95.0147	57	58
94.299	94.8154	62	51
94.4712	95.0147	59	46
94.6433	95.0147	60	48
94.8154	95.0147	62	46
94.9938	95.7075	74	55
95.7075	96.0503	43	38
95.7075	96.2298	64	48
95.7075	96.2298	72	57
96.0503	96.4093	43	33
96.0503	96.4507	62	43
96.0503	96.4507	71	51
96.2298	96.4507	50	33
96.2298	96.4507	64	37
96.2298	96.4507	72	45
96.4093	97.1211	43	38
96.4093	97.1211	60	43
96.4093	97.1211	69	51
96.764	97.1211	38	33
97.1211	98.5295	43	30
97.1211	98.5295	50	36
97.1211	97.8367	57	55
97.1211	97.6375	62	48
97.2932	97.8367	59	44
97.4654	97.8367	60	45
97.6375	97.8367	62	41
97.8159	98.5295	74	52
98.5295	98.88	43	36
98.5295	99.0594	62	45
98.5295	99.0594	71	54
98.88	99.2389	43	31
98.88	99.2803	60	40
98.88	99.2803	69	48
99.0594	99.2803	50	31
99.0594	99.2803	62	35
99.0594	99.2803	71	42
99.2389	99.9638	43	31
99.2389	100.075	59	40
99.2389	100.075	67	48
99.5936	100.075	38	29
99.5936	100.075	62	34
99.5936	100.075	71	40
99.9638	101.466	43	30
99.9638	101.466	50	36
99.9638	100.76	60	39
99.9638	100.76	69	46
100.341	100.739	59	36
100.341	100.739	67	43
100.739	101.466	59	40
100.739	101.466	67	48
100.739	101.466	79	48
101.466	102.948	43	24
101.466	102.948	50	28
101.466	102.948	59	34
101.466	102.948	62	40
102.216	103.67	79	48
102.948	105.2	43	24
102.948	105.2	50	28
102.948	104.435	59	33
102.948	104.435	62	39
103.67	105.2	79	48
104.435	105.2	59	33
104.435	105.2	62	39
105.158	105.368	78	45
105.338	105.551	76	40
105.521	105.737	74	44
105.706	105.927	72	39
105.895	106.783	71	48
106.659	107.424	38	24
106.659	107.424	60	34
106.659	107.424	66	34
106.659	107.424	69	41
107.424	108.856	43	26
107.424	108.856	50	31
107.424	108.856	59	34
107.424	108.856	62	40
107.424	108.856	67	40
108.155	108.856	86	43
108.856	110.266	43	22
108.856	110.266	50	32
108.856	110.266	59	35
108.856	110.266	62	41
109.588	110.266	86	41
110.266	111.69	43	25
110.266	111.69	50	30
110.266	111.69	59	35
110.266	111.69	62	41
110.998	111.722	86	42
111.69	113.161	43	22
111.69	113.161	50	31
111.69	113.161	59	34
111.69	112.959	62	40
112.406	113.161	86	41
112.959	113.161	62	38
113.161	114.593	43	26
113.161	114.593	50	31
113.161	114.593	58	34
113.161	114.593	62	40
113.892	114.808	86	36
114.593	116.003	43	21
114.593	116.003	50	31
114.593	116.003	58	30
114.593	116.003	62	36
115.325	116.003	86	34
116.003	117.441	43	21
116.003	117.441	50	25
116.003	117.441	58	27
116.003	117.441	62	32
116.735	117.475	86	34
117.441	119.151	43	20
117.441	119.151	50	24
117.441	119.151	58	25
117.441	118.835	62	30
118.215	119.151	86	33
118.835	119.151	62	48
119.025	119.801	67	56
119.413	119.801	65	52
119.801	120.229	60	47
119.801	120.229	63	47
119.801	120.229	67	56
119.983	120.229	69	51
120.165	120.621	58	35
120.165	120.621	62	36
120.165	120.533	70	53
120.349	120.621	72	51
120.533	120.932	55	40
120.533	120.932	63	50
120.533	120.932	70	60
120.91	121.311	57	39
120.91	121.311	65	44
120.91	121.311	69	56
121.094	121.311	70	51
121.278	121.656	58	48
121.278	121.656	62	48
121.278	121.656	67	57
121.656	122.072	60	45
121.656	122.072	63	45
121.656	122.072	69	53
122.072	122.533	58	34
122.072	122.533	62	40
122.072	122.533	65	49
122.072	122.533	70	58
122.483	122.909	53	30
122.483	122.909	60	36
122.483	122.909	69	46
122.483	122.909	72	55
122.909	123.798	53	34
122.909	123.798	60	40
122.909	123.798	69	49
122.909	123.798	72	58
123.798	124.81	46	29
123.798	124.81	53	36
123.798	124.81	70	41
123.798	124.81	74	50
125.104	126.273	65	52
125.497	126.273	70	58
125.885	126.273	69	52
126.273	126.663	63	47
126.273	126.663	67	47
126.273	126.663	70	56
126.457	126.663	72	51
126.641	127.047	62	36
126.641	127.047	65	38
126.641	127.014	74	53
126.828	127.047	75	51
127.014	127.413	58	40
127.014	127.413	67	50
127.014	127.413	74	60
127.391	127.768	60	40
127.391	127.768	63	40
127.391	127.768	69	47
127.391	127.768	72	56
127.579	127.768	74	51
127.768	128.185	62	48
127.768	128.185	65	48
127.768	128.185	70	57
128.161	128.572	60	45
128.161	128.572	63	45
128.161	128.572	69	45
128.161	128.572	72	53
128.572	128.98	58	34
128.572	128.98	62	40
128.572	128.98	65	49
128.572	128.98	74	58
128.98	129.406	57	33
128.98	129.406	61	39
128.98	129.406	67	50
128.98	129.406	76	60
129.406	130.295	57	37
129.406	130.295	61	44
129.406	130.295	67	53
129.406	130.295	76	63
130.295	131.183	50	31
130.295	131.183	57	39
130.295	131.183	66	45
130.295	131.183	74	45
130.295	131.183	78	55
131.183	132.778	74	67
131.597	132.778	72	63
132.011	132.778	79	69
132.406	132.778	70	62
132.778	133.491	69	56
132.778	133.151	77	64
132.965	133.491	79	57
133.151	133.536	65	42
133.151	133.491	77	63
133.343	133.536	75	61
133.536	133.953	70	60
133.536	133.93	74	70
133.93	134.43	69	45
133.93	134.43	74	62
134.325	135.129	67	57
134.325	135.129	70	68
134.718	135.129	65	53
134.718	135.129	72	63
135.129	136.848	58	53
135.129	135.532	70	56
135.129	135.532	74	67
135.532	136.848	57	53
135.532	136.365	70	53
135.532	136.365	74	63
135.954	136.848	55	49
136.365	136.848	53	46
136.365	136.776	70	53
136.365	136.848	74	63
136.776	137.598	51	53
136.776	137.598	67	58
136.776	137.598	70	58
136.776	137.598	79	69
137.598	138.383	45	41
137.598	137.988	65	49
137.598	138.383	72	58
137.598	137.988	77	58
137.793	138.383	67	45
137.793	138.383	79	53
137.988	138.383	65	46
137.988	138.383	77	56
138.185	138.383	63	44
138.185	138.383	75	52
138.383	139.183	46	49
138.383	138.783	62	51
138.383	139.136	70	51
138.383	138.783	74	61
138.783	139.183	62	46
138.783	139.183	67	46
138.783	139.183	74	55
139.183	140.07	51	46
139.183	140.07	67	49
139.183	140.07	70	58
139.594	140.07	45	41
139.594	140.07	65	53
139.594	140.07	72	53
139.808	140.07	63	42
140.022	140.916	46	49
140.022	140.433	62	49
140.022	140.916	74	58
140.433	140.916	62	46
140.433	140.916	67	55
140.844	141.327	48	48
140.844	141.327	60	44
140.844	141.327	63	49
140.844	141.327	69	58
141.255	141.666	46	42
141.255	141.666	62	45
141.255	141.666	67	45
141.255	141.666	70	53
141.666	142.108	48	49
141.666	142.108	60	43
141.666	142.108	63	58
141.666	142.108	69	58
142.088	142.511	51	38
142.088	142.511	58	44
142.088	142.511	67	52
142.511	143.602	38	46
142.511	143.602	60	30
142.511	142.646	67	46
142.579	142.714	66	40
142.646	143.289	67	47
142.714	143.021	66	42
142.781	143.602	64	44
143.021	143.602	66	55
143.289	143.578	67	49
143.578	144.622	31	40
143.578	144.622	58	46
143.578	144.622	67	55
144.622	145.577	62	49
145.036	145.577	60	46
145.45	146.234	58	43
145.45	146.234	67	50
145.842	146.234	65	45
146.234	146.664	60	40
146.234	146.664	63	40
146.234	146.664	67	48
146.416	146.664	69	44
146.598	147.063	58	28
146.598	147.063	62	34
146.598	146.975	70	46
146.786	147.063	72	44
146.975	147.374	55	35
146.975	147.374	63	43
146.975	147.374	70	52
147.352	147.753	57	35
147.352	147.753	65	40
147.352	147.753	69	48
147.536	147.753	70	44
147.72	148.098	58	41
147.72	148.098	62	41
147.72	148.098	67	49
148.098	148.514	60	38
148.098	148.514	63	38
148.098	148.514	69	46
148.514	148.975	58	29
148.514	148.975	62	35
148.514	148.975	65	42
148.514	148.975	70	50
148.925	149.351	53	26
148.925	149.351	60	31
148.925	149.351	69	39
148.925	149.351	72	47
149.351	150.23	53	29
149.351	150.243	60	35
149.351	149.904	69	42
149.351	149.904	72	50
149.795	150.013	70	36
149.795	150.23	74	42
149.904	150.121	69	31
149.904	150.121	72	37
150.013	150.243	67	34
150.013	150.23	70	40
150.121	150.243	69	30
150.121	150.243	72	36
150.23	151.241	46	23
150.23	151.241	53	29
150.23	151.241	70	34
150.23	151.241	74	40
151.117	152.703	65	45
151.535	152.703	63	45
151.927	152.703	62	43
151.927	152.703	70	50
152.315	152.703	69	45
152.703	153.093	63	40
152.703	153.093	67	40
152.703	153.093	70	48
152.887	153.093	72	44
153.071	153.461	62	32
153.071	153.461	65	32
153.071	153.439	74	46
153.255	153.461	75	44
153.439	153.839	58	35
153.439	153.839	67	43
153.439	153.839	74	52
153.817	154.194	60	35
153.817	154.194	63	35
153.817	154.194	69	40
153.817	154.194	72	48
154.005	154.194	74	44
154.194	154.611	62	41
154.194	154.611	65	41
154.194	154.611	70	49
154.587	154.998	60	38
154.587	154.998	63	38
154.587	154.998	69	38
154.587	154.998	72	46
154.998	155.406	58	29
154.998	155.406	62	35
154.998	155.406	65	42
154.998	155.406	74	50
155.406	155.832	57	28
155.406	155.832	61	34
155.406	155.832	67	43
155.406	155.832	76	52
155.832	156.684	57	32
155.832	156.721	61	38
155.832	156.721	67	38
155.832	156.351	73	46
155.832	156.351	76	55
156.24	156.462	74	37
156.24	156.684	78	44
156.351	156.573	73	34
156.351	156.573	76	40
156.462	156.721	71	37
156.462	156.684	74	44
156.573	156.721	73	34
156.573	156.721	76	40
156.684	157.573	50	24
156.684	157.573	57	30
156.684	157.573	66	34
156.684	157.573	74	34
156.684	157.573	78	42
157.573	159.168	74	60
157.987	159.168	72	55
158.401	159.168	82	60
158.598	159.168	81	57
158.796	159.168	70	53
158.796	159.168	79	60
159.168	160.028	69	48
159.168	159.541	77	56
159.355	160.028	79	49
159.541	160.028	65	37
159.541	160.028	77	55
159.738	160.028	75	52
159.936	160.353	70	51
159.936	160.33	74	62
160.33	160.83	69	39
160.33	160.83	74	53
160.725	161.529	67	49
160.725	161.529	70	59
161.118	161.529	65	46
161.118	161.529	72	55
161.529	163.21	58	46
161.529	161.932	70	48
161.529	161.932	74	58
161.731	163.283	72	42
161.731	163.283	75	42
161.932	163.283	57	46
161.932	162.765	70	44
161.932	162.765	74	53
162.354	163.283	55	41
162.765	163.283	53	40
162.765	163.283	70	46
162.765	163.21	74	55
163.21	164.043	52	46
163.21	164.043	58	46
163.21	164.043	67	50
163.21	164.043	74	50
163.21	164.043	79	60
164.043	164.846	51	36
164.043	164.846	57	36
164.043	164.846	65	42
164.043	164.846	72	50
164.043	164.44	77	50
164.242	164.846	79	44
164.44	164.846	77	50
164.643	164.846	71	42
164.846	165.264	50	36
164.846	165.264	56	42
164.846	165.264	65	44
164.846	165.264	71	53
165.246	165.704	51	33
165.246	165.704	55	39
165.246	165.704	67	39
165.246	165.704	72	47
165.646	166.533	50	33
165.646	166.533	54	39
165.646	166.485	69	42
165.646	166.533	74	50
166.057	166.533	46	30
166.057	166.485	55	36
166.057	166.533	62	41
166.057	166.533	67	46
166.485	167.379	48	36
166.485	167.307	55	42
166.485	167.379	63	42
166.485	167.307	69	50
166.896	167.379	70	47
167.307	168.129	46	33
167.307	168.129	55	41
167.307	168.129	62	42
167.307	167.79	69	50
167.718	168.129	67	46
168.129	168.572	48	42
168.129	168.572	60	42
168.129	168.572	63	50
168.129	168.572	69	50
168.552	169.024	51	33
168.552	169.024	58	38
168.552	168.996	67	45
168.996	170.154	38	39
168.996	170.726	60	32
168.996	169.059	67	40
169.059	169.185	66	34
169.122	169.756	67	41
169.185	169.488	66	36
169.248	170.154	64	37
169.488	170.154	66	47
169.756	170.045	67	42
170.045	171.417	31	35
170.045	171.417	67	47
170.683	171.417	57	31
171.321	172.77	58	30
171.321	172.77	79	30
172.554	172.77	62	41
172.736	174.118	43	25
172.736	174.118	50	30
172.736	173.435	59	38
172.736	173.093	67	45
173.093	173.435	67	39
173.435	173.599	59	37
173.435	173.599	67	45
173.435	174.118	86	42
173.599	174.062	69	36
173.766	174.062	71	40
173.93	174.068	72	36
174.075	174.162	72	39
174.118	175.513	43	27
174.118	175.513	50	32
174.118	174.966	62	38
174.118	174.64	71	45
174.469	174.966	69	35
174.64	174.966	71	34
174.811	175.551	59	34
174.811	175.551	67	40
174.811	175.551	86	40
175.338	175.551	64	42
175.513	176.883	43	25
175.513	176.883	50	30
175.513	176.2	60	38
175.513	175.87	69	45
175.87	176.2	69	40
176.2	176.362	60	37
176.2	176.362	69	45
176.2	176.883	86	42
176.362	176.827	71	35
176.531	176.827	72	40
176.695	176.833	74	36
176.84	176.927	74	39
176.883	178.291	43	27
176.883	178.291	50	32
176.883	177.732	64	38
176.883	177.405	72	45
177.234	177.732	71	36
177.405	177.732	72	34
177.576	178.291	60	34
177.576	178.328	69	40
177.576	178.328	86	40
178.109	178.328	67	42
178.291	179.693	43	25
178.291	179.693	50	30
178.291	178.992	60	38
178.291	178.648	66	45
178.648	178.992	66	43
178.949	179.132	67	37
178.992	179.162	60	37
178.992	179.162	66	45
178.992	179.693	86	42
179.162	179.693	62	36
179.332	179.693	64	40
179.504	179.693	66	36
179.693	181.108	43	25
179.693	181.108	50	30
179.693	181.108	59	38
179.693	181.108	67	45
180.415	181.203	86	42
180.932	181.203	62	44
181.108	182.485	43	27
181.108	182.485	50	32
181.108	181.803	59	40
181.108	181.465	67	48
181.465	181.803	67	45
181.803	181.967	59	40
181.803	181.967	67	47
181.803	182.485	86	44
181.967	182.429	69	38
182.134	182.429	71	43
182.297	182.435	72	38
182.442	182.529	72	41
182.485	183.88	43	28
182.485	183.88	50	34
182.485	183.333	62	40
182.485	183.007	71	48
182.836	183.333	69	38
183.007	183.333	71	36
183.178	183.917	59	36
183.178	183.917	67	42
183.178	183.917	86	42
183.705	183.917	64	44
183.88	185.257	43	27
183.88	185.257	50	32
183.88	184.575	60	40
183.88	184.237	69	48
184.237	184.575	69	42
184.575	184.739	60	40
184.575	184.739	69	47
184.575	185.257	86	44
184.739	185.201	71	38
184.906	185.201	72	43
185.069	185.207	74	38
185.214	185.301	74	41
185.257	186.671	43	28
185.257	186.671	50	34
185.257	186.105	64	40
185.257	185.779	72	48
185.608	186.105	71	38
185.779	186.105	72	36
185.95	186.671	60	36
185.95	186.708	69	42
185.95	186.708	86	42
186.489	186.708	67	44
186.671	188.072	43	27
186.671	188.072	50	32
186.671	187.372	60	40
186.671	187.027	66	48
187.027	187.372	66	45
187.329	187.512	67	40
187.372	187.542	60	40
187.372	187.542	66	47
187.372	188.072	86	44
187.542	188.072	62	38
187.712	188.072	64	43
187.884	188.072	66	38
188.072	189.48	43	27
188.072	189.48	50	32
188.072	189.48	59	40
188.072	189.48	67	48
188.777	189.576	86	44
189.306	189.576	62	46
189.48	190.858	43	28
189.48	190.858	50	34
189.48	190.176	59	43
189.48	189.837	67	51
189.837	190.176	67	44
190.176	190.339	59	42
190.176	190.339	67	50
190.176	190.858	77	45
190.339	190.802	69	40
190.506	190.802	71	45
190.67	190.808	72	35
190.815	190.902	72	44
190.858	192.244	43	30
190.858	192.279	50	36
190.858	191.704	62	43
190.858	191.38	71	51
191.209	191.704	69	41
191.38	191.704	71	37
191.551	192.279	59	37
191.551	192.279	67	45
191.551	192.279	77	42
192.071	192.279	64	47
192.244	193.599	43	28
192.244	193.599	52	34
192.244	192.916	60	43
192.244	192.586	69	51
192.586	192.916	69	45
192.916	193.078	60	44
192.916	193.078	69	51
192.916	193.599	76	46
193.078	193.543	71	42
193.247	193.543	72	48
193.411	193.549	74	39
193.556	193.643	74	47
193.599	194.951	43	32
193.599	194.987	52	38
193.599	194.433	64	46
193.599	194.112	72	54
193.946	194.433	71	45
194.112	194.433	72	41
194.278	194.987	60	42
194.278	194.987	69	51
194.278	194.987	76	47
194.785	194.987	67	56
194.951	196.315	43	35
194.951	196.315	50	42
194.951	195.631	64	52
194.951	195.301	72	62
195.301	195.631	72	55
195.631	195.794	64	53
195.631	195.794	72	63
195.631	196.315	81	55
195.794	196.259	74	51
195.962	196.259	76	58
196.126	196.264	78	52
196.272	196.357	78	56
196.315	197.68	43	38
196.315	197.68	50	46
196.315	197.143	67	55
196.315	196.822	76	66
196.657	197.143	74	54
196.822	197.143	76	50
196.988	197.717	66	50
196.988	197.717	72	61
196.988	197.717	81	55
197.507	197.717	74	67
197.68	199.046	43	44
197.68	199.046	50	53
197.68	198.362	71	62
197.68	198.034	79	74
198.034	198.362	79	68
198.362	198.525	71	65
198.362	198.525	79	76
198.362	199.046	86	72
198.525	198.99	81	62
198.693	198.99	83	70
198.857	198.995	84	57
199.003	199.09	84	67
199.046	200.459	43	46
199.046	200.459	50	55
199.046	199.806	74	66
199.046	199.568	83	79
199.397	199.806	81	73
199.568	199.806	83	69
199.739	200.554	71	69
199.739	200.554	79	84
199.739	200.554	91	81
200.278	200.554	62	64
200.459	201.822	43	37
200.459	201.822	50	46
200.459	201.146	59	57
200.459	200.816	67	69
200.816	201.146	67	59
201.146	201.309	59	56
201.146	201.309	67	68
201.146	201.822	77	59
201.309	201.766	69	54
201.476	201.766	71	60
201.633	201.772	72	49
201.779	201.866	72	59
201.822	203.203	43	40
201.822	203.238	50	48
201.822	202.663	62	57
201.822	202.341	71	69
202.173	202.663	69	55
202.341	202.663	71	51
202.51	203.238	59	51
202.51	203.238	67	60
202.51	203.238	77	56
203.029	203.238	64	64
203.203	204.551	43	37
203.203	204.551	52	46
203.203	203.874	60	57
203.203	203.545	69	69
203.545	203.874	69	60
203.874	204.037	60	56
203.874	204.037	69	69
203.874	204.551	76	61
204.037	204.495	71	56
204.205	204.495	72	60
204.362	204.5	74	53
204.508	204.594	74	64
204.551	205.918	43	43
204.551	205.955	52	52
204.551	205.385	64	59
204.551	205.063	72	72
204.897	205.385	71	60
205.063	205.385	72	55
205.23	205.955	60	56
205.23	205.955	69	69
205.23	205.955	76	64
205.747	205.955	67	65
205.918	207.284	43	40
205.918	207.284	50	48
205.918	206.607	64	59
205.918	206.269	72	71
206.269	206.607	72	63
206.607	206.77	64	61
206.607	206.77	72	72
206.607	207.284	81	65
206.77	207.228	74	58
206.938	207.228	76	67
207.096	207.234	78	59
207.241	207.327	78	65
207.284	208.649	43	44
207.284	208.649	50	53
207.284	208.112	67	63
207.284	207.792	76	75
207.627	208.112	74	62
207.792	208.112	76	57
207.957	208.686	66	57
207.957	208.686	72	70
207.957	208.686	81	65
208.477	208.686	74	68
208.649	210.018	43	45
208.649	210.018	50	54
208.649	209.342	71	63
208.649	209.004	79	75
209.004	209.342	79	70
209.342	209.505	71	67
209.342	209.505	79	78
209.342	210.018	86	70
209.505	209.962	81	63
209.673	209.962	83	70
209.83	209.968	84	63
209.975	210.062	84	68
210.018	211.432	43	48
210.018	211.432	50	55
210.018	210.779	74	68
210.018	210.54	83	81
210.369	210.779	81	75
210.54	210.779	83	71
210.711	211.432	71	71
210.711	211.432	79	87
210.711	211.432	91	78
211.432	212.84	43	39
211.432	212.84	50	47
211.432	212.147	57	71
211.432	211.948	62	62
211.604	212.147	59	60
211.776	212.147	60	59
211.948	212.147	62	54
212.127	212.84	74	68
212.84	213.183	43	47
212.84	213.363	64	59
212.84	213.363	72	70
213.183	213.542	43	40
213.183	213.583	62	52
213.183	213.583	71	62
213.363	213.583	50	40
213.363	213.583	64	46
213.363	213.583	72	55
213.542	214.251	43	47
213.542	214.251	60	52
213.542	214.251	69	62
213.897	214.251	38	41
214.251	215.66	43	39
214.251	215.66	50	47
214.251	214.967	57	71
214.251	214.768	62	62
214.424	214.967	59	60
214.596	214.967	60	59
214.768	214.967	62	56
214.946	215.66	74	68
215.66	216.001	43	47
215.66	216.18	62	59
215.66	216.18	71	70
216.001	216.36	43	40
216.001	216.401	60	52
216.001	216.401	69	62
216.18	216.401	50	40
216.18	216.401	62	46
216.18	216.401	71	55
216.36	217.069	43	40
216.36	217.069	55	47
216.36	217.069	59	52
216.36	217.069	67	62
216.714	217.069	38	39
217.069	218.477	43	32
217.069	218.477	50	38
217.069	217.785	57	58
217.069	217.585	62	51
217.241	217.785	59	47
217.413	217.785	60	48
217.585	217.785	62	46
217.764	218.477	74	55
218.477	218.82	43	38
218.477	219.0	64	48
218.477	219.0	72	57
218.82	219.179	43	33
218.82	219.221	62	43
218.82	219.221	71	51
219.0	219.221	50	33
219.0	219.221	64	37
219.0	219.221	72	45
219.179	219.873	43	38
219.179	219.873	60	43
219.179	219.873	69	51
219.534	219.873	38	33
219.873	221.281	43	30
219.873	221.281	50	36
219.873	220.589	57	55
219.873	220.389	62	48
220.045	220.589	59	43
220.217	220.589	60	45
220.389	220.589	62	42
220.568	221.281	74	52
221.281	221.632	43	36
221.281	221.811	62	45
221.281	221.811	71	54
221.632	221.991	43	31
221.632	222.032	60	40
221.632	222.032	69	48
221.811	222.032	50	31
221.811	222.032	62	35
221.811	222.032	71	42
221.991	222.716	43	31
221.991	222.827	59	40
221.991	222.827	67	48
222.345	222.827	38	29
222.345	222.827	62	34
222.345	222.827	71	40
222.716	224.227	43	30
222.716	224.227	50	36
222.716	223.512	60	39
222.716	223.512	69	46
223.093	223.49	59	36
223.093	223.49	67	43
223.49	224.227	59	40
223.49	224.227	67	48
223.49	224.227	79	48
224.227	225.708	43	24
224.227	225.708	50	28
224.227	225.708	59	34
224.227	225.708	62	40
224.977	226.444	79	48
225.708	227.969	43	24
225.708	227.969	50	28
225.708	227.204	59	33
225.708	227.204	62	39
226.444	227.969	79	48
227.204	227.969	59	33
227.204	227.969	62	39
227.927	228.137	78	45
228.107	228.321	76	41
228.29	228.507	74	40
228.475	228.696	72	37
228.664	229.553	71	48
229.428	230.193	38	24
229.428	230.193	60	34
229.428	230.193	66	34
229.428	230.193	69	41
230.193	231.626	43	26
230.193	231.626	50	31
230.193	231.626	59	34
230.193	231.626	62	34
230.193	231.626	67	40
230.924	231.776	86	43
231.626	233.035	43	22
231.626	233.035	50	27
231.626	233.035	59	32
231.626	233.035	62	32
231.626	233.035	67	38
232.357	233.035	86	39
233.035	234.438	43	23
233.035	234.438	50	28
233.035	234.438	59	32
233.035	234.438	62	32
233.035	234.469	67	38
233.745	234.469	86	39
234.438	235.888	43	22
234.438	235.888	50	26
234.438	235.888	59	33
234.438	235.707	62	39
235.154	235.984	86	42
235.707	235.984	62	46
235.888	237.266	43	28
235.888	237.266	50	34
235.888	236.584	59	43
235.888	236.245	67	51
236.245	236.584	67	44
236.584	236.747	59	42
236.584	236.747	67	50
236.584	237.266	86	47
236.747	237.21	69	40
236.914	237.21	71	45
237.078	237.216	72	40
237.223	237.31	72	44
237.266	238.662	43	30
237.266	238.662	50	36
237.266	238.114	62	43
237.266	237.788	71	51
237.617	238.114	69	39
237.788	238.114	71	38
237.959	238.699	59	38
237.959	238.699	67	45
237.959	238.699	86	45
238.486	238.699	64	47
238.662	240.028	43	28
238.662	240.028	50	34
238.662	239.348	60	43
238.662	239.018	69	51
239.018	239.348	69	45
239.348	239.511	60	42
239.348	239.511	69	50
239.348	240.028	86	47
239.511	239.972	71	40
239.679	239.972	72	45
239.84	239.978	74	40
239.985	240.072	74	44
240.028	241.415	43	30
240.028	241.415	50	36
240.028	240.868	64	43
240.028	240.546	72	51
240.38	240.868	71	41
240.546	240.868	72	38
240.713	241.452	60	38
240.713	241.452	69	45
240.713	241.452	86	45
241.24	241.452	67	47
241.415	242.817	43	28
241.415	242.817	50	34
241.415	242.116	57	43
241.415	241.772	66	51
241.772	242.257	60	38
241.772	242.116	66	48
242.073	242.257	67	42
242.116	242.286	57	42
242.116	242.286	66	50
242.116	242.817	86	47
242.286	242.817	62	40
242.456	242.817	60	41
242.456	242.817	64	45
242.629	242.817	66	40
242.817	244.219	43	28
242.817	244.219	50	34
242.817	244.219	59	43
242.817	244.219	67	51
243.526	244.314	86	47
244.043	244.314	62	41
244.219	245.597	43	28
244.219	245.597	50	34
244.219	244.914	59	43
244.219	244.576	67	51
244.576	244.914	67	44
244.914	245.078	59	42
244.914	245.078	67	50
244.914	245.597	77	44
245.078	245.541	69	40
245.245	245.541	71	45
245.408	245.546	72	40
245.554	245.64	72	44
245.597	246.982	43	30
245.597	247.018	50	36
245.597	246.443	62	43
245.597	246.119	71	51
245.948	246.443	69	41
246.119	246.443	71	38
246.29	247.018	59	38
246.29	247.018	67	45
246.29	247.018	77	42
246.809	247.018	64	47
246.982	248.346	43	28
246.982	248.346	52	34
246.982	247.663	60	43
246.982	247.325	69	51
247.325	247.663	69	45
247.663	247.826	60	44
247.663	247.826	69	51
247.663	248.346	76	46
247.826	248.29	71	42
247.994	248.29	72	48
248.158	248.296	74	43
248.303	248.39	74	47
248.346	249.714	43	32
248.346	249.751	52	39
248.346	249.18	64	46
248.346	248.859	72	55
248.693	249.18	71	45
248.859	249.18	72	41
249.025	249.751	60	42
249.025	249.751	69	51
249.025	249.751	76	47
249.543	249.751	67	50
249.714	251.087	43	31
249.714	251.087	50	37
249.714	250.403	64	46
249.714	250.065	72	55
250.065	250.403	72	49
250.403	250.566	64	47
250.403	250.566	72	56
250.403	251.087	81	53
250.566	251.031	74	45
250.734	251.031	76	52
250.898	251.036	78	46
251.044	251.128	78	50
251.087	252.444	43	34
251.087	252.444	50	41
251.087	251.908	67	49
251.087	251.587	76	58
251.422	251.908	74	48
251.587	251.908	76	44
251.752	252.481	66	44
251.752	252.481	72	54
251.752	252.481	81	53
252.272	252.444	71	53
252.444	253.821	43	35
252.444	253.821	50	42
252.444	253.137	71	49
252.444	252.799	79	58
252.799	253.137	79	54
253.137	253.3	71	52
253.137	253.3	79	60
253.137	253.821	86	57
253.3	253.765	81	49
253.468	253.765	83	56
253.633	253.771	84	49
253.778	253.865	84	53
253.821	255.234	43	37
253.821	255.234	50	43
253.821	254.581	74	53
253.821	254.343	83	63
254.172	254.581	81	58
254.343	254.581	83	55
254.514	255.234	71	55
254.514	255.234	79	67
254.514	255.234	91	64
255.234	256.643	43	32
255.234	256.643	50	38
255.234	255.95	57	58
255.234	255.751	62	51
255.407	255.95	59	49
255.579	255.95	60	48
255.751	255.95	62	46
255.929	256.643	74	55
256.643	256.986	43	38
256.643	257.165	64	48
256.643	257.165	72	57
256.986	257.345	43	33
256.986	257.386	62	43
256.986	257.386	71	51
257.165	257.386	50	33
257.165	257.386	64	37
257.165	257.386	72	45
257.345	258.054	43	38
257.345	258.054	60	43
257.345	258.054	69	51
257.699	258.054	38	34
258.054	259.462	43	32
258.054	259.462	50	38
258.054	258.77	57	58
258.054	258.57	62	51
258.226	258.77	59	47
258.398	258.77	60	48
258.57	258.77	62	45
258.749	259.462	74	55
259.462	259.803	43	38
259.462	259.983	62	48
259.462	259.983	71	57
259.803	260.162	43	33
259.803	260.204	60	43
259.803	260.204	69	51
259.983	260.204	50	33
259.983	260.204	62	37
259.983	260.204	71	45
260.162	260.854	43	33
260.162	260.854	59	43
260.162	260.854	67	51
260.517	260.854	38	32
260.854	262.263	43	32
260.854	262.263	50	38
260.854	261.57	57	58
260.854	261.37	62	51
261.026	261.57	59	46
261.198	261.57	60	48
261.37	261.57	62	46
261.549	262.263	74	55
262.263	262.605	43	38
262.263	262.785	64	48
262.263	262.785	72	57
262.605	262.964	43	33
262.605	263.006	62	43
262.605	263.006	71	51
262.785	263.006	50	33
262.785	263.006	64	37
262.785	263.006	72	45
262.964	263.676	43	38
262.964	263.676	60	43
262.964	263.676	69	51
263.319	263.676	38	33
263.676	265.085	43	30
263.676	265.085	50	36
263.676	264.392	57	55
263.676	264.193	62	48
263.848	264.392	59	43
264.02	264.392	60	45
264.193	264.392	62	43
264.371	265.085	74	52
265.085	265.435	43	36
265.085	265.614	62	45
265.085	265.614	71	54
265.435	265.794	43	31
265.435	265.835	60	40
265.435	265.835	69	48
265.614	265.835	50	31
265.614	265.835	62	35
265.614	265.835	71	42
265.794	266.519	43	31
265.794	266.631	59	40
265.794	266.631	67	48
266.149	266.631	38	29
266.149	266.631	62	34
266.149	266.631	71	40
266.519	268.021	43	30
266.519	268.021	50	36
266.519	267.315	60	39
266.519	267.315	69	46
266.896	267.294	59	36
266.896	267.294	67	43
267.294	268.021	59	40
267.294	268.021	67	48
267.294	268.021	79	48
268.021	269.503	43	24
268.021	269.503	50	28
268.021	269.503	59	34
268.021	269.503	62	40
268.771	270.225	79	48
269.503	271.755	43	24
269.503	271.755	50	28
269.503	270.99	59	33
269.503	270.99	62	39
270.225	271.755	79	48
270.99	271.755	59	33
270.99	271.755	62	39
271.713	271.923	78	45
271.893	272.106	76	41
272.076	272.292	74	44
272.261	272.482	72	36
272.45	273.338	71	47
273.214	273.979	38	24
273.214	273.979	60	34
273.214	273.979	66	34
273.214	273.979	69	41
273.979	275.411	43	23
273.979	275.411	50	27
273.979	275.411	59	30
273.979	275.411	62	36
273.979	275.411	67	36
274.71	275.411	86	43
275.411	276.821	43	19
275.411	276.821	50	28
275.411	276.821	59	31
275.411	276.821	62	36
276.143	276.821	86	41
276.821	278.245	43	22
276.821	278.245	50	27
276.821	278.245	59	31
276.821	278.245	62	36
277.553	278.277	86	42
278.245	279.699	43	19
278.245	279.699	50	27
278.245	279.699	59	30
278.245	279.699	62	36
278.961	281.289	86	41
279.699	282.878	43	17
279.699	282.878	50	24
279.699	282.348	59	27
279.699	282.348	62	32
281.289	282.878	86	36
