OnsetTime	OffsetTime	MidiPitch	Velocity
0.564981	0.659985	49	65
0.565987	0.662989	61	74
0.659985	1.61499	49	72
0.662989	1.61598	61	82
1.65998	1.75398	54	72
1.66398	1.75198	66	72
1.75198	2.76897	66	81
1.75398	2.76897	54	81
2.75198	2.84396	52	64
2.75498	2.84396	64	73
2.84396	3.34398	52	70
2.84396	3.34398	64	80
3.32298	3.41798	51	65
3.32298	3.41998	63	65
3.41798	3.92096	51	70
3.41998	3.92096	63	80
3.89696	3.99396	49	65
3.89696	3.99497	61	74
3.99896	4.47796	49	71
3.99896	4.47796	61	81
4.45696	4.54796	48	64
4.45795	4.54796	60	73
4.54896	5.06895	48	70
4.55096	5.06895	60	80
5.04095	5.14594	49	63
5.04395	5.14594	61	72
5.14695	5.54194	49	71
5.14995	5.54194	61	81
5.93394	6.13393	46	44
5.93793	6.13694	31	40
6.04193	6.22194	49	38
6.04293	6.22494	40	29
6.13393	6.31494	46	45
6.13694	6.31594	31	40
6.22194	6.40694	49	39
6.22494	6.40694	40	31
6.31494	6.49394	46	46
6.31594	6.49495	31	39
6.40694	6.58495	40	30
6.40694	6.58194	49	42
6.49394	6.67495	46	47
6.49495	6.67594	31	39
6.58194	6.76095	49	42
6.58495	6.76295	40	34
6.67495	6.84896	46	48
6.67594	6.85096	31	41
6.76095	6.93496	49	44
6.76295	6.93496	40	37
6.84896	7.02297	46	50
6.85096	7.02297	31	43
6.93496	7.11297	40	38
6.93496	7.11097	49	45
7.02297	7.19396	31	44
7.02297	7.19196	46	51
7.11097	7.22196	49	46
7.11297	7.22196	40	41
7.19196	7.27397	46	52
7.19396	7.27696	31	46
7.27796	7.35897	40	42
7.27796	7.35797	49	47
7.35897	7.48397	46	53
7.36197	7.44598	31	48
7.44598	7.52697	49	48
7.44697	7.52697	40	43
7.52796	7.69096	46	55
7.52997	7.69196	31	49
7.60997	7.77196	49	49
7.61097	7.77495	40	45
7.69096	7.85295	46	56
7.69196	7.85595	31	51
7.77196	7.93295	49	50
7.77495	7.93394	40	45
7.85295	8.00994	46	57
7.85595	8.01293	31	53
7.93295	8.09094	49	51
7.93394	8.09294	40	47
8.00994	8.16794	46	58
8.01293	8.16794	31	54
8.09094	8.24793	49	55
8.09294	8.24993	40	49
8.16794	8.33092	31	56
8.16794	8.32892	46	60
8.24793	8.40791	49	53
8.24993	8.40892	40	52
8.32892	8.48892	46	61
8.33092	8.49291	31	57
8.40791	8.5069	49	54
8.40892	8.5069	40	58
8.48892	8.65391	46	62
8.49291	8.6569	31	59
8.5719	8.7349	49	58
8.5729	8.7369	40	60
8.65391	8.81789	46	63
8.6569	8.81889	31	61
8.7349	8.89189	49	59
8.7369	8.89189	40	62
8.81789	8.97288	46	67
8.81889	8.97588	31	62
8.89189	9.05587	40	63
8.89189	9.05288	49	70
8.97288	9.13688	46	73
8.97588	9.13688	31	64
9.05288	9.21687	49	76
9.05587	9.21787	40	65
9.13688	9.30187	31	67
9.13688	9.30086	46	79
9.21687	9.38587	49	82
9.21787	9.38587	40	68
9.30086	9.47286	46	85
9.30187	9.47286	31	69
9.38587	9.47286	40	70
9.38587	9.47286	49	88
9.52386	9.62286	45	84
9.52487	9.62387	31	67
9.52487	9.62387	48	94
9.52586	9.62387	39	72
9.62586	9.91586	46	90
9.62686	9.91986	31	78
9.62686	9.91686	49	100
9.62986	9.91986	40	82
11.9078	11.9989	68	74
11.9089	11.9969	56	65
11.9969	12.9338	56	72
11.9989	12.9369	68	82
12.9828	13.0708	61	63
12.9828	13.0728	73	72
13.0708	14.0948	61	71
13.0728	14.0948	73	81
14.0848	14.1798	59	64
14.0858	14.1828	71	73
14.1798	14.6768	59	70
14.1828	14.6768	71	80
14.6558	14.7468	58	65
14.6558	14.7508	70	74
14.7468	15.2468	58	70
14.7508	15.2468	70	80
15.2228	15.3138	56	65
15.2238	15.3168	68	74
15.3178	15.8038	56	71
15.3178	15.8038	68	81
15.7788	15.8668	67	73
15.7798	15.8678	55	64
15.8678	16.3908	55	70
15.8698	16.3908	67	80
16.3668	16.4648	56	63
16.3678	16.4658	68	72
16.4658	16.8008	56	71
16.4688	16.8018	68	81
17.1368	17.3338	50	44
17.1408	17.3338	47	44
17.1418	17.3348	29	40
17.2428	17.4288	38	29
17.2428	17.4278	56	38
17.3338	17.5188	47	45
17.3338	17.5188	50	45
17.3348	17.5198	29	40
17.4278	17.6098	56	39
17.4288	17.6108	38	31
17.5188	17.7008	47	46
17.5188	17.6978	50	46
17.5198	17.7018	29	39
17.6098	17.7928	56	42
17.6108	17.7948	38	30
17.6978	17.8868	50	47
17.7008	17.8868	47	47
17.7018	17.8878	29	39
17.7928	17.9738	56	42
17.7948	17.9738	38	34
17.8868	18.0648	47	48
17.8868	18.0618	50	48
17.8878	18.0658	29	41
17.9738	18.1518	38	37
17.9738	18.1498	56	44
18.0618	18.2368	50	50
18.0648	18.2398	47	50
18.0658	18.2398	29	43
18.1498	18.3268	56	45
18.1518	18.3278	38	38
18.2368	18.4178	50	51
18.2398	18.4218	29	44
18.2398	18.4188	47	51
18.3268	18.5058	56	46
18.3278	18.5098	38	41
18.4178	18.5938	50	52
18.4188	18.5948	47	52
18.4218	18.5948	29	46
18.5058	18.6708	56	47
18.5098	18.6748	38	42
18.5938	18.7468	50	53
18.5948	18.7468	29	48
18.5948	18.7468	47	53
18.6708	18.7578	56	48
18.6748	18.7578	38	43
18.7608	18.9298	47	55
18.7608	18.9298	50	55
18.7618	18.9308	29	49
18.8488	19.0198	38	45
18.8488	19.0178	56	49
18.9298	19.0978	47	56
18.9298	19.0968	50	56
18.9308	19.1008	29	51
19.0178	19.1778	56	50
19.0198	19.1788	38	45
19.0968	19.2588	50	57
19.0978	19.2618	47	57
19.1008	19.2618	29	53
19.1778	19.3358	56	51
19.1788	19.3398	38	47
19.2588	19.4098	50	58
19.2618	19.4128	29	54
19.2618	19.4118	47	58
19.3358	19.4928	56	55
19.3398	19.4937	38	49
19.4098	19.5667	50	60
19.4118	19.5697	47	60
19.4128	19.5697	29	56
19.4928	19.6477	56	53
19.4937	19.6497	38	52
19.5667	19.7307	50	61
19.5697	19.7317	29	57
19.5697	19.7317	47	61
19.6477	19.7447	56	54
19.6497	19.7447	38	58
19.7307	19.8987	50	62
19.7317	19.9017	29	59
19.7317	19.8997	47	62
19.8187	19.9797	56	58
19.8197	19.9837	38	60
19.8987	20.0607	50	63
19.8997	20.0617	47	63
19.9017	20.0627	29	61
19.9797	20.1407	56	59
19.9837	20.1437	38	63
20.0607	20.2177	50	67
20.0617	20.2177	47	67
20.0627	20.2197	29	64
20.1407	20.2997	56	70
20.1437	20.3017	38	65
20.2177	20.3757	47	73
20.2177	20.3747	50	73
20.2197	20.3757	29	66
20.2997	20.4517	56	77
20.3017	20.4517	38	67
20.3747	20.5297	50	80
20.3757	20.5327	29	68
20.3757	20.5327	47	80
20.4517	20.6127	38	69
20.4517	20.6116	56	83
20.5297	20.6996	50	86
20.5327	20.6996	29	70
20.5327	20.6996	47	86
20.6116	20.6996	56	89
20.6127	20.6996	38	71
20.6927	20.8266	49	83
20.6936	20.7777	55	93
20.6966	20.7807	28	65
20.6966	20.7807	37	72
20.7316	20.8266	46	74
20.8266	21.0916	47	78
20.8286	21.0916	50	90
20.8296	21.0956	29	75
20.8296	21.0956	56	98
20.8306	21.0966	38	81
23.0236	23.1366	56	73
23.1366	23.8686	56	73
23.7906	24.8577	40	39
23.8216	24.8577	47	44
23.8436	24.8577	50	47
23.8686	24.8577	56	51
23.8886	24.8577	62	57
23.9166	24.8577	68	59
23.9406	24.8577	71	63
23.9656	24.8577	76	66
24.6197	24.8577	57	73
24.7146	24.8577	59	73
24.8056	26.3247	52	73
25.4917	26.5627	40	39
25.5127	26.5627	47	44
25.5437	26.5627	50	47
25.5687	26.5627	56	51
25.5897	26.5627	62	57
25.6177	26.5627	68	59
25.6427	26.5627	71	63
25.6667	26.5627	76	66
26.3247	26.5627	52	73
26.5377	27.3087	54	73
27.2277	28.3127	40	39
27.2557	28.3127	47	44
27.2767	28.3127	50	47
27.3087	27.9597	54	51
27.3327	28.3127	62	57
27.3607	28.3127	66	59
27.3847	28.3127	69	63
27.4097	28.3127	76	66
27.7487	28.1627	57	73
27.8647	28.0607	56	73
27.9597	28.3127	54	73
28.0607	28.2607	56	73
28.1627	28.3127	57	73
28.2607	29.0267	56	73
28.9467	30.0767	40	39
28.9747	30.0767	47	44
28.9977	30.0767	50	47
29.0267	30.0767	56	51
29.0507	30.0767	62	57
29.0827	30.0767	68	59
29.1037	30.0767	71	63
29.1247	30.0767	76	66
29.7927	30.0767	52	73
30.0147	31.7637	61	73
30.6927	31.7637	40	43
30.7167	31.7637	49	47
30.7447	31.7637	52	50
30.7697	31.7087	57	54
30.7907	31.6167	64	60
30.8187	31.7637	69	64
30.8437	31.7637	73	67
30.8677	31.7637	81	70
31.5227	31.7637	62	73
31.6167	31.7637	64	73
31.7087	32.4817	57	73
32.4007	33.4898	40	43
32.4287	33.4898	49	47
32.4537	33.4898	52	50
32.4817	33.2468	57	54
32.5058	33.4898	64	60
32.5338	33.4898	69	64
32.5548	33.4898	73	67
32.5857	33.4898	81	70
33.2468	33.4898	57	75
33.4578	34.9098	60	77
34.1648	35.2778	40	43
34.1918	35.2778	48	47
34.2178	35.2778	51	50
34.2448	35.2778	57	54
34.2728	35.2778	66	60
34.2978	35.2778	72	64
34.3258	35.2778	75	67
34.3568	35.2778	81	70
34.7038	35.1168	63	73
34.8128	35.0078	61	73
34.9098	35.2778	60	73
35.0078	35.2288	61	73
35.1168	35.2778	63	73
35.2288	36.7888	61	73
35.9388	37.1188	40	43
35.9708	36.9328	49	47
35.9988	37.1188	52	50
36.0238	36.9858	57	54
36.0518	37.1188	64	60
36.0798	37.0738	69	64
36.1078	37.1188	73	67
36.1388	37.1188	81	70
36.7888	37.0138	61	69
36.9058	39.8308	39	48
36.9328	39.8318	49	49
36.9608	39.8318	54	51
36.9858	39.5088	57	59
37.0138	39.5088	61	63
37.0458	38.7258	66	64
37.0738	39.5088	69	77
38.2598	39.5088	71	69
38.4138	38.5718	73	69
38.5718	39.5088	73	73
38.7258	39.5088	66	68
39.7468	39.8348	66	63
39.8348	40.6928	66	78
40.6958	40.9548	68	65
40.8008	40.9548	69	65
40.9098	41.3228	61	70
41.3228	41.5008	63	64
41.3988	41.5008	64	64
41.4728	41.8758	57	70
41.8758	42.0298	59	63
41.9458	42.0358	61	63
42.0118	42.3968	54	70
42.3978	42.5688	56	65
42.4668	42.5688	57	66
42.5298	42.9008	49	70
42.9048	43.0648	51	63
42.9678	43.0648	52	63
43.0268	43.3938	45	70
43.3948	43.5629	47	66
43.4578	43.5629	49	66
43.5209	43.8948	42	70
43.8948	44.0308	44	62
43.9589	44.0449	45	62
44.0209	44.3649	39	68
44.2949	44.4349	40	55
44.3649	44.5108	39	49
44.4349	44.5888	40	55
44.5108	44.6618	39	48
44.5888	44.7318	40	55
44.6618	44.8018	39	50
44.7318	44.8718	40	55
44.8018	44.9418	39	51
44.8718	45.0088	40	55
44.9418	45.0748	39	50
45.0088	45.1448	40	55
45.0748	45.1588	39	52
45.1448	45.2078	40	55
45.2078	45.3448	39	50
45.2748	45.4108	40	55
45.3448	45.4808	39	51
45.4108	45.5508	40	55
45.4808	45.6138	39	50
45.5508	45.6838	40	55
45.6138	45.7478	39	52
45.6838	45.8168	40	55
45.7478	45.8798	39	50
45.8168	45.9428	40	55
45.8798	46.0128	39	51
45.9428	46.0768	40	55
46.0128	46.1458	39	50
46.0768	46.2498	40	55
46.1458	46.2498	39	52
46.2228	46.3128	38	55
46.2958	46.3978	39	52
46.3758	46.4708	40	55
46.4608	46.5558	39	50
46.5378	46.6348	37	51
46.6138	46.7158	35	53
46.6988	46.7898	33	54
46.7788	46.8738	32	56
46.8528	46.9498	33	57
46.9358	47.1858	29	59
47.1888	47.2998	30	51
47.2828	47.4058	32	51
47.3879	47.5108	33	51
47.4928	47.6148	35	52
47.5938	47.6958	37	52
47.6969	47.8189	39	54
47.8008	47.9159	40	54
47.8989	48.0149	42	54
47.9969	48.1129	44	55
48.0949	48.2139	45	55
48.1959	48.3119	47	56
48.2869	48.4029	49	56
48.3859	48.5049	51	57
48.4799	48.5949	52	57
48.5779	48.6939	48	64
48.6799	48.7879	51	60
48.7709	48.8859	49	65
48.8679	48.9839	47	67
48.9629	49.0789	45	72
49.0609	49.1799	44	75
49.1589	49.2809	45	78
49.2569	49.3799	41	81
49.3619	49.4849	42	84
49.4639	49.5889	43	87
49.5679	49.6769	44	89
49.6769	50.5339	44	93
50.3389	50.6679	32	92
50.8319	50.9659	85	73
50.8329	50.9689	76	61
50.8329	50.9649	88	73
50.8349	50.9719	64	50
50.8359	50.9699	61	42
50.8359	50.9689	73	50
50.9649	52.3579	88	83
50.9659	52.3579	85	83
50.9689	52.3579	73	58
50.9689	52.3579	76	70
50.9699	52.3579	61	49
50.9719	52.3579	64	49
52.3519	52.4809	87	73
52.3549	52.4839	71	50
52.3549	52.4839	75	61
52.3549	52.4809	83	73
52.3559	52.4849	59	42
52.3569	52.4849	63	42
52.4809	52.8409	83	83
52.4809	52.8409	87	83
52.4839	52.8409	71	58
52.4839	52.8409	75	70
52.4849	52.8409	59	49
52.4849	52.8409	63	49
52.8349	52.9429	85	73
52.8359	52.9459	81	73
52.8369	52.9459	73	61
52.8379	52.9499	57	42
52.8379	52.9469	69	50
52.8409	52.9499	61	42
52.9509	53.2929	81	80
52.9529	53.2999	73	68
52.9529	53.2999	85	80
52.9539	53.2999	57	47
52.9539	53.2959	69	56
52.9569	53.2999	61	47
53.2929	53.3969	81	73
53.2959	53.4019	66	50
53.2959	53.3979	69	61
53.2959	53.3979	78	73
53.2969	53.4019	54	42
53.2999	53.4019	57	42
53.4039	53.7408	81	80
53.4049	53.7408	69	68
53.4049	53.7408	78	80
53.4059	53.7408	66	56
53.4089	53.7408	54	47
53.4089	53.7408	57	47
53.7338	53.8388	80	75
53.7348	53.8398	76	75
53.7368	53.8398	68	63
53.7379	53.8418	52	44
53.7379	53.8418	64	52
53.7398	53.8428	56	44
53.8428	54.1708	80	83
53.8458	54.1638	76	83
53.8468	54.1648	64	58
53.8468	54.1708	68	70
53.8488	54.1708	52	49
53.8488	54.1708	56	49
54.1638	54.2758	76	73
54.1648	54.2758	64	61
54.1648	54.2738	73	73
54.1678	54.2768	61	50
54.1688	54.2768	49	42
54.1708	54.2798	52	42
54.2738	54.5988	73	80
54.2758	54.5988	64	68
54.2758	54.5988	76	80
54.2768	54.5988	49	47
54.2768	54.5988	61	56
54.2798	54.5988	52	47
54.5948	54.6928	71	73
54.5948	54.6918	75	73
54.5958	54.6928	63	61
54.5978	54.6958	47	42
54.5978	54.6938	59	50
54.5988	54.6968	51	42
54.6968	55.0188	75	81
54.6998	55.0188	59	57
54.6998	55.0188	63	69
54.6998	55.0188	71	81
54.7028	55.0188	47	47
54.7038	55.0188	51	47
55.0118	55.1158	73	78
55.0128	55.1168	69	78
55.0138	55.1198	61	66
55.0148	55.1208	45	45
55.0148	55.1218	49	45
55.0148	55.1208	57	53
55.1218	55.4418	73	82
55.1228	55.4338	69	82
55.1238	55.4378	57	58
55.1238	55.4418	61	70
55.1268	55.4388	45	48
55.1278	55.4418	49	48
55.4338	55.5328	69	80
55.4348	55.5328	66	80
55.4378	55.5358	57	67
55.4388	55.5368	42	46
55.4388	55.5368	45	46
55.4388	55.5358	54	55
55.5398	55.8658	69	85
55.5408	55.8658	57	72
55.5408	55.8658	66	85
55.5428	55.8658	42	50
55.5428	55.8658	54	59
55.5438	55.8658	45	50
55.8578	55.9638	68	81
55.8588	55.9648	64	81
55.8618	55.9668	52	56
55.8618	55.9658	56	68
55.8648	55.9668	40	47
55.8648	55.9668	44	47
55.9638	56.2888	68	86
55.9648	56.2818	64	86
55.9658	56.2888	56	73
55.9668	56.2888	40	50
55.9668	56.2888	44	50
55.9668	56.2858	52	60
56.2818	56.3828	64	83
56.2858	56.3848	49	58
56.2858	56.3838	52	70
56.2858	56.3838	61	83
56.2868	56.3858	37	48
56.2888	56.3868	40	48
56.3868	56.7058	64	89
56.3878	56.7058	61	89
56.3898	56.7058	52	74
56.3908	56.7058	37	51
56.3908	56.7058	40	51
56.3908	56.7058	49	61
56.6988	56.8068	63	84
56.7018	56.8078	47	59
56.7018	56.8078	51	71
56.7018	56.8078	59	84
56.7048	56.8098	35	49
56.7058	56.8098	39	49
56.8068	57.1428	63	91
56.8078	57.1428	47	63
56.8078	57.1428	51	77
56.8078	57.1428	59	91
56.8098	57.1428	35	53
56.8098	57.1428	39	53
57.1368	57.2548	57	86
57.1368	57.2528	61	86
57.1388	57.2548	45	60
57.1388	57.2548	49	72
57.1398	57.2558	33	50
57.1398	57.2578	40	50
57.2528	58.2108	61	91
57.2548	58.2108	45	81
57.2548	58.2108	49	78
57.2548	58.1998	57	78
57.2558	58.2108	33	68
57.2578	58.2108	40	68
57.7198	58.2108	43	80
57.7208	58.2108	31	68
58.1968	59.2187	62	86
58.1978	59.2208	50	72
58.1998	59.2208	53	72
58.1998	59.2158	57	72
58.2038	59.2208	29	71
58.2038	59.2208	41	84
58.6998	59.2208	40	84
58.7008	59.2208	28	71
59.2148	60.2577	54	80
59.2148	60.2747	66	95
59.2158	60.2747	57	80
59.2187	60.2747	26	70
59.2187	60.2747	38	83
59.2187	60.2747	62	80
59.7328	60.2747	25	80
60.2577	65.3957	54	63
60.2577	65.3957	68	98
60.2607	64.3947	56	70
60.2617	60.7647	36	85
60.2617	65.3957	60	70
60.2617	65.3957	63	78
60.2637	60.7647	24	72
60.6567	62.2907	45	81
60.6577	62.2917	33	69
62.2917	63.5967	44	79
62.2947	63.5977	32	67
64.2897	64.3917	61	65
64.3917	65.3957	61	72
64.3947	65.4757	49	63
64.3947	65.3957	52	61
64.3947	65.3957	56	61
64.3957	65.4797	37	53
64.3987	65.4807	44	53
65.3807	65.4807	66	70
65.4807	66.4947	66	71
65.4837	66.5677	51	62
65.4837	66.4947	54	60
65.4837	66.4947	57	60
65.4867	66.5717	36	52
65.4877	66.5717	45	52
66.4737	66.5727	64	69
66.5727	67.0717	64	70
66.5747	67.0717	52	59
66.5747	67.0717	56	59
66.5757	67.1487	49	59
66.5787	67.1497	37	50
66.5787	67.1527	44	50
67.0477	67.1537	63	67
67.1537	67.6467	63	70
67.1547	67.6467	54	59
67.1557	67.6467	51	59
67.1567	67.7237	30	44
67.1567	67.7227	45	52
67.1597	67.7237	42	44
67.6247	67.7267	61	68
67.7267	68.2307	61	71
67.7297	68.2307	52	60
67.7307	68.2767	44	60
67.7307	68.2307	49	60
67.7317	68.2767	32	51
67.7327	68.2777	40	51
68.1817	68.2777	60	68
68.2797	68.7907	51	59
68.2797	68.7907	60	70
68.2807	68.7907	48	59
68.2837	68.8687	39	48
68.2837	68.8677	42	48
68.2837	68.8677	44	57
68.2867	68.8707	32	48
68.7727	68.8707	61	70
68.8717	69.2667	61	71
68.8747	69.2707	49	60
68.8747	69.2667	52	60
68.8757	69.2707	37	52
68.8777	69.2717	40	52
68.8777	69.2737	44	57
69.4657	69.6617	49	70
69.6627	70.9396	45	66
69.6647	69.8827	51	66
69.6657	70.9396	30	52
69.6657	70.9396	37	52
69.6667	70.9396	42	57
69.7737	69.9806	49	61
69.8827	70.0827	51	66
69.9806	70.1806	49	61
70.0827	70.2786	51	66
70.1806	70.3796	49	60
70.2786	70.4706	51	66
70.3796	70.5686	49	61
70.4706	70.9396	51	66
70.5686	70.7887	49	61
70.6746	70.9396	48	66
70.7887	70.9396	49	61
70.9076	71.3737	52	71
71.0516	71.3737	51	65
71.1957	71.3467	49	65
71.3467	71.5597	44	70
71.3467	71.5597	49	70
71.3487	71.6077	37	52
71.3487	71.6087	40	57
72.6407	72.7347	68	65
72.7347	73.7437	68	72
72.7357	73.7437	63	61
72.7387	73.8237	56	63
72.7387	73.7437	59	61
72.7397	73.8277	44	53
72.7397	73.8277	51	53
73.7327	73.8277	73	70
73.8307	74.8977	61	60
73.8307	74.8977	64	60
73.8307	74.8977	73	71
73.8317	74.9787	58	62
73.8347	74.9797	43	52
73.8347	74.9817	52	52
74.8807	74.9817	71	69
74.9857	75.4617	71	70
74.9867	75.4617	59	59
74.9867	75.4617	63	59
74.9887	75.5327	44	50
74.9887	75.5317	56	59
74.9897	75.5327	51	50
75.4437	75.5346	69	67
75.5357	75.9936	61	59
75.5357	75.9936	69	70
75.5386	75.9936	57	59
75.5397	76.0606	37	44
75.5397	76.0616	49	44
75.5397	76.0606	52	52
75.9726	76.0636	56	68
75.9736	76.0636	68	68
76.0636	76.5636	68	71
76.0646	76.5636	59	60
76.0676	76.6166	51	60
76.0676	76.5636	56	60
76.0686	76.6176	39	51
76.0706	76.6196	47	51
76.5216	76.6196	67	68
76.6206	77.1376	67	70
76.6236	77.1376	55	59
76.6236	77.1376	58	59
76.6246	77.2216	51	57
76.6266	77.2226	46	48
76.6266	77.2226	49	48
76.6276	77.2256	39	48
77.1126	77.2256	68	70
77.2266	77.6146	59	60
77.2266	77.6136	68	71
77.2286	77.6186	44	52
77.2286	77.6176	56	60
77.2296	77.6206	47	52
77.2296	77.6206	51	57
77.8136	78.0096	56	63
78.0136	79.2876	52	59
78.0136	78.2276	58	59
78.0146	79.2876	37	46
78.0146	78.2296	46	50
78.1216	78.3246	56	54
78.1256	78.3286	44	45
78.2276	78.4296	58	59
78.2296	78.4336	46	50
78.3246	78.5306	56	54
78.3286	78.5316	44	45
78.4296	78.6266	58	59
78.4336	78.6296	46	50
78.5306	78.7266	56	54
78.5316	78.7276	44	45
78.6266	78.8256	58	59
78.6296	78.8256	46	50
78.7266	78.9196	56	54
78.7276	78.9196	44	45
78.8256	79.2876	46	50
78.8256	79.2876	58	59
78.9196	79.1406	44	45
78.9196	79.1396	56	54
79.0286	79.2876	55	59
79.0296	79.2876	43	50
79.1396	79.2876	56	54
79.1406	79.2876	44	45
79.2566	79.7166	59	63
79.2596	79.7006	47	54
79.3996	79.7166	46	49
79.3996	79.7166	58	58
79.5436	79.7036	56	58
79.5456	79.7066	44	49
79.7006	79.9206	47	56
79.7026	79.9206	51	56
79.7036	79.9316	32	41
79.7036	79.9206	56	56
79.7046	79.9316	39	41
79.7066	79.9326	44	45
81.2156	81.6846	68	52
81.3866	84.9396	40	44
81.4476	84.9426	47	46
81.5096	84.9436	56	48
81.5696	84.9436	59	48
81.6256	83.4106	64	50
81.6846	84.7616	68	55
82.9136	84.7616	69	52
83.1206	83.3056	71	52
83.3056	84.7616	71	52
83.4106	84.9466	64	56
84.7396	84.9476	63	56
84.9476	86.9096	63	56
84.9496	86.9096	51	46
84.9506	86.9096	35	39
85.1076	86.9096	57	47
85.1116	86.0636	66	54
85.8526	86.6196	64	44
86.0636	86.4356	66	43
86.2766	86.9096	68	46
86.4356	86.9096	66	44
86.6196	86.8476	64	44
86.8446	88.4636	56	39
86.8476	88.4676	47	39
86.8476	88.4646	64	44
86.8486	88.4676	40	32
88.5176	88.6786	59	33
88.5176	88.6816	64	33
88.5176	88.6786	68	52
88.5196	88.6846	52	52
88.6786	90.0546	59	35
88.6786	90.0566	68	55
88.6816	90.3226	40	37
88.6816	90.3226	64	35
88.6826	90.3226	47	40
88.6846	90.2926	52	44
89.8686	90.2916	69	52
89.8696	90.3226	66	44
89.8706	90.3226	54	35
89.8746	90.2946	57	44
90.0536	90.3226	71	55
90.0546	90.3226	59	46
90.0566	90.3226	56	38
90.0566	90.3226	68	46
90.2876	90.8376	73	59
90.2886	90.8406	61	49
90.2916	91.8166	45	37
90.2916	90.8416	69	49
90.2926	91.8166	52	40
90.2946	90.8416	57	41
90.8376	91.0826	73	54
90.8406	91.0826	61	45
90.8416	91.0856	57	40
90.8416	91.0826	69	45
91.0826	91.8166	61	48
91.0826	91.8166	69	48
91.0826	91.8166	73	57
91.0856	91.8166	57	44
91.3096	91.8135	59	46
91.3096	91.8106	71	55
91.3106	91.8146	68	46
91.3136	91.8146	56	43
91.5406	91.8166	70	52
91.5416	91.8166	58	44
91.5436	91.8166	55	41
91.5436	91.8166	67	44
91.8106	92.5625	71	57
91.8135	92.5625	59	48
91.8146	92.5625	44	36
91.8146	92.5555	56	44
91.8146	92.5625	68	48
91.8166	92.5565	52	36
92.5525	92.9595	64	52
92.5555	93.3815	56	44
92.5555	93.3815	61	44
92.5565	93.3815	37	32
92.5565	93.3815	52	38
92.8535	93.2595	63	44
92.9595	93.1655	64	45
93.0555	93.3815	66	44
93.1655	93.3815	64	46
93.2595	93.3645	63	48
93.3645	94.1235	63	52
93.3675	94.1135	57	44
93.3685	94.1235	35	33
93.3685	94.1235	54	40
93.9175	94.1235	64	49
93.9805	94.1235	68	55
94.1125	95.0195	66	52
94.1135	95.0055	47	31
94.1135	95.0195	51	37
94.1135	95.0195	57	44
94.7405	95.0015	64	52
95.0015	96.5985	64	52
95.0025	96.5985	40	36
95.0025	96.5985	52	42
95.0025	96.5985	56	44
95.0055	96.5985	47	36
98.2335	98.6455	76	52
98.4745	99.0725	64	48
98.5305	100.329	68	48
98.5895	100.329	73	50
98.6455	100.329	76	55
98.6465	100.276	37	48
99.0725	100.329	64	43
99.0735	100.329	61	36
99.0765	100.329	52	36
99.0765	100.329	56	36
99.8785	100.329	78	52
100.081	100.273	80	52
100.273	100.374	80	52
100.276	101.722	37	48
100.378	101.722	73	56
100.689	101.91	68	43
100.693	101.911	61	36
100.693	101.911	64	36
100.694	101.911	56	36
101.701	101.914	72	56
101.915	103.598	72	56
101.949	102.426	60	47
101.995	103.846	66	47
102.037	103.8	68	47
102.079	103.846	32	48
102.079	103.846	44	48
102.079	102.992	75	54
102.422	103.846	54	36
102.426	103.846	56	36
102.426	103.846	60	36
102.427	103.846	63	43
102.838	103.44	73	46
102.992	103.287	75	46
103.133	103.846	76	46
103.287	103.377	75	46
103.377	103.846	75	46
103.44	103.828	73	48
103.598	103.846	72	44
103.777	104.238	64	39
103.8	105.316	68	39
103.828	105.316	37	48
103.828	105.316	73	44
103.832	105.309	49	48
104.235	105.316	52	36
104.236	105.309	56	36
104.236	105.306	61	36
104.238	105.316	64	43
105.302	105.519	65	82
105.306	105.52	59	69
105.306	105.52	61	69
105.309	105.523	49	51
105.309	105.523	56	61
105.526	106.678	66	90
105.527	107.511	54	67
105.527	107.511	57	76
105.527	107.511	61	76
105.53	107.511	42	56
105.531	107.511	49	56
106.675	107.081	81	80
106.677	107.082	69	68
106.678	107.083	66	66
106.678	107.081	78	68
107.081	107.511	78	85
107.081	107.511	81	85
107.082	107.511	69	72
107.083	107.511	66	70
107.371	107.463	68	67
107.371	107.463	80	79
107.372	107.465	76	67
107.374	107.465	64	67
107.463	107.773	68	72
107.463	107.77	80	85
107.465	107.777	64	70
107.465	107.774	76	72
107.777	107.889	78	81
107.778	107.889	66	68
107.778	107.89	75	68
107.78	107.892	63	67
107.892	108.399	78	81
107.893	108.4	66	68
107.893	108.4	75	68
107.896	108.4	63	67
108.998	109.152	75	53
108.999	109.156	66	45
108.999	109.156	69	45
109.0	109.156	63	45
109.001	109.159	54	38
109.002	109.159	57	38
109.16	110.059	44	58
109.205	109.741	76	58
109.212	110.059	61	52
109.212	110.035	64	49
109.212	110.035	68	49
109.645	110.035	75	48
109.741	109.933	76	50
109.842	110.059	78	51
109.933	110.059	76	50
110.035	110.44	64	50
110.035	110.437	68	45
110.035	110.437	75	54
110.038	110.44	56	42
110.639	110.843	73	48
110.79	111.612	44	43
110.843	111.612	75	53
110.847	111.606	66	45
110.847	111.231	68	45
110.848	111.612	60	51
111.231	111.612	68	50
111.606	112.173	66	45
111.606	112.173	80	54
111.607	112.173	72	45
111.609	111.984	63	44
111.61	111.987	56	37
112.177	112.362	72	44
112.365	112.922	73	51
112.366	113.187	64	43
112.369	113.187	61	51
112.369	113.178	68	43
112.37	113.187	49	43
112.372	113.187	56	43
112.803	113.187	72	51
112.922	113.175	73	51
113.051	113.187	75	51
113.175	114.045	73	55
113.178	114.059	63	46
113.178	114.049	68	46
113.179	114.059	44	42
113.179	114.059	54	50
113.783	114.059	72	51
114.045	114.927	73	55
114.049	114.927	52	50
114.049	114.927	61	46
114.049	114.927	68	46
114.05	114.927	37	42
115.712	115.806	61	65
115.806	117.066	61	72
115.807	117.066	56	61
115.809	117.066	52	61
115.81	117.066	37	55
115.81	117.066	49	61
115.956	117.066	48	61
116.118	117.066	47	60
116.271	117.066	46	59
116.429	117.056	45	58
116.579	116.895	44	57
116.737	117.066	43	56
116.895	117.066	44	55
116.943	117.052	66	70
117.052	118.302	66	71
117.053	118.302	57	60
117.056	118.14	36	55
117.056	118.302	45	60
117.056	118.302	54	60
117.207	118.302	44	53
117.357	118.302	43	53
117.515	118.302	42	53
117.672	118.302	41	53
117.826	118.302	40	53
117.98	118.302	39	53
118.14	118.302	36	53
118.186	118.292	64	69
118.292	119.029	64	70
118.295	119.029	52	59
118.295	119.029	56	59
118.296	119.029	37	52
118.459	119.029	38	52
118.627	119.029	39	53
118.799	119.029	40	54
118.854	118.967	63	69
118.967	119.708	63	72
118.97	119.131	41	54
118.97	119.708	51	61
118.97	119.708	54	61
118.971	119.708	30	51
119.132	119.474	42	55
119.303	119.708	41	56
119.474	119.708	42	56
119.526	119.643	49	72
119.526	119.642	61	72
119.642	120.38	52	64
119.642	120.38	61	76
119.643	120.38	49	64
119.645	119.799	43	57
119.8	120.125	44	58
119.957	120.38	43	59
120.125	120.38	44	59
120.17	120.283	60	75
120.283	120.832	60	78
120.285	120.832	51	66
120.286	120.436	45	60
120.286	120.832	48	66
120.437	120.756	44	61
120.597	120.832	45	61
120.756	120.915	44	62
120.807	120.916	61	80
120.917	121.311	52	69
120.917	121.308	61	81
120.92	121.312	37	68
120.92	121.312	49	69
120.921	121.315	40	68
120.921	121.315	44	68
121.703	122.753	45	66
121.704	121.935	51	66
121.707	122.256	30	52
121.708	121.935	39	56
121.822	122.051	37	51
121.822	122.05	49	61
121.935	122.256	39	56
121.935	122.256	51	66
122.05	122.256	49	61
122.051	122.256	37	51
122.176	122.273	48	66
122.18	122.274	36	56
122.274	123.203	49	60
122.277	123.204	37	51
122.373	123.117	51	66
122.375	123.118	39	56
122.473	123.026	40	51
122.473	123.024	52	61
122.568	122.931	54	66
122.571	122.932	42	56
122.666	122.841	56	61
122.667	122.845	44	51
122.751	123.334	57	66
122.753	123.334	45	56
122.841	123.334	56	60
122.845	123.334	44	51
122.931	123.334	54	59
122.932	123.334	42	50
123.024	123.334	52	60
123.026	123.334	40	51
123.117	123.334	51	62
123.118	123.334	39	52
123.203	123.334	49	63
123.204	123.334	37	53
123.296	123.996	48	65
123.299	123.996	36	55
123.383	123.779	49	66
123.384	123.78	37	56
123.483	123.675	51	68
123.485	123.676	39	57
123.58	123.996	52	70
123.582	123.965	40	59
123.675	123.996	51	72
123.676	123.996	39	61
123.779	123.965	49	74
123.78	123.996	37	62
123.804	124.559	25	52
123.964	124.559	44	88
123.965	124.559	40	62
123.965	124.559	49	88
125.301	125.396	68	65
125.396	126.673	68	72
125.399	126.673	56	61
125.399	126.673	59	61
125.399	126.673	63	61
125.4	126.673	44	55
125.554	126.673	55	61
125.711	126.673	54	60
125.869	126.673	53	59
126.029	126.663	52	58
126.187	126.502	51	57
126.341	126.673	50	56
126.502	126.673	51	55
126.551	126.659	73	70
126.659	127.954	73	71
126.66	127.954	61	60
126.66	127.954	64	60
126.663	127.77	43	55
126.663	127.954	52	60
126.821	127.954	51	53
126.975	127.954	50	53
127.132	127.954	49	53
127.29	127.954	48	53
127.447	127.954	47	53
127.609	127.954	46	53
127.77	127.954	43	53
127.817	127.924	71	69
127.924	128.648	63	59
127.924	128.648	71	70
127.926	128.648	59	59
127.927	128.648	44	52
128.095	128.648	45	52
128.267	128.648	46	53
128.441	128.648	47	54
128.497	128.609	69	68
128.609	129.33	69	71
128.61	129.33	61	60
128.612	129.33	37	51
128.612	129.33	57	60
128.613	128.781	48	54
128.781	129.127	49	55
128.952	129.33	48	56
129.127	129.33	49	56
129.179	129.295	68	71
129.295	129.939	59	63
129.295	129.939	68	74
129.296	129.939	56	63
129.299	129.448	50	57
129.449	129.754	51	58
129.6	129.939	50	59
129.754	129.939	51	59
129.802	129.908	67	72
129.908	130.457	58	63
129.908	130.457	67	75
129.911	130.457	55	63
129.912	130.061	52	60
130.064	130.38	51	61
130.222	130.457	52	61
130.38	130.537	51	62
130.429	130.541	68	77
130.542	131.867	59	66
130.542	131.867	68	78
130.544	131.447	56	66
130.545	131.448	44	55
130.545	131.867	51	63
131.328	132.383	52	66
131.329	131.867	37	52
131.329	131.564	57	66
131.332	131.567	45	56
131.447	131.679	56	61
131.448	131.682	44	51
131.564	131.867	57	66
131.567	131.867	45	56
131.679	131.867	56	61
131.682	131.867	44	51
131.795	131.892	55	66
131.797	131.892	43	56
131.896	132.847	44	51
131.896	132.847	56	60
131.994	132.754	46	56
131.994	132.754	58	66
132.091	132.659	59	61
132.092	132.662	47	51
132.189	132.569	49	56
132.189	132.568	61	66
132.282	132.474	63	61
132.284	132.474	51	51
132.382	132.976	64	66
132.383	132.976	52	56
132.474	132.976	51	51
132.474	132.976	63	60
132.568	132.976	61	59
132.569	132.976	49	50
132.659	132.976	59	60
132.662	132.976	47	51
132.754	132.976	46	52
132.754	132.976	58	62
132.847	132.976	44	53
132.847	132.976	56	63
132.939	133.638	55	65
132.94	133.638	43	55
133.027	133.421	56	66
133.028	133.422	44	56
133.125	133.324	58	68
133.127	133.324	46	57
133.223	133.638	59	70
133.226	133.604	47	59
133.324	133.638	46	61
133.324	133.638	58	72
133.421	133.607	56	74
133.422	133.611	44	62
133.604	134.149	47	88
133.607	134.149	39	52
133.607	134.149	51	88
133.607	134.149	56	88
133.611	134.149	32	52
133.611	134.149	44	62
135.007	135.137	64	50
135.137	135.217	80	54
135.14	135.221	83	54
135.14	135.221	92	70
135.141	135.221	76	59
135.144	135.223	71	50
135.675	135.752	59	49
135.753	135.83	80	51
135.756	135.83	83	51
135.756	135.831	92	66
135.757	135.833	71	49
135.757	135.831	76	58
136.288	136.368	64	55
136.369	137.419	80	53
136.372	137.419	83	53
136.372	137.219	92	69
136.373	136.942	71	53
136.373	136.942	76	63
136.928	137.373	59	44
137.223	137.32	90	63
137.321	137.42	88	63
137.374	137.422	63	57
137.422	137.954	81	55
137.423	137.955	83	55
137.426	137.955	78	64
137.426	137.492	87	71
137.427	137.957	71	54
137.709	137.765	88	66
137.958	138.504	81	55
137.958	138.497	83	55
137.959	138.504	90	72
137.961	138.504	59	47
138.423	138.504	64	55
138.497	139.518	80	53
138.497	139.519	83	53
138.5	139.102	71	53
138.5	139.102	76	63
138.5	139.312	92	69
139.036	139.466	59	46
139.313	139.417	90	63
139.417	139.522	88	63
139.466	139.523	63	57
139.523	140.082	81	55
139.526	140.082	83	55
139.526	139.588	87	71
139.527	140.61	78	64
139.529	140.61	71	54
139.809	139.872	88	66
140.082	140.61	81	55
140.082	140.607	83	55
140.083	140.61	90	72
140.086	140.61	59	49
140.537	140.61	64	55
140.604	141.622	80	53
140.607	141.622	83	53
140.608	141.156	76	63
140.608	141.412	92	69
140.61	141.156	71	53
141.142	141.569	59	47
141.412	141.517	90	63
141.518	141.623	88	63
141.57	141.626	63	57
141.626	142.161	81	55
141.627	142.162	83	55
141.629	142.162	78	64
141.629	141.689	87	71
141.63	142.164	71	54
141.898	141.965	88	66
142.165	142.693	81	55
142.165	142.691	83	55
142.168	142.693	90	72
142.169	142.693	59	48
142.62	142.693	68	57
142.69	143.225	80	53
142.691	143.757	83	53
142.691	143.515	92	69
142.693	143.186	71	53
142.693	143.515	76	63
143.163	143.691	64	47
143.186	143.694	71	51
143.225	143.758	80	59
143.502	143.631	90	63
143.631	143.76	88	63
143.698	144.223	63	53
143.729	144.223	71	58
143.761	144.223	83	55
143.761	144.223	87	71
143.764	144.223	78	64
143.863	144.223	88	66
143.974	144.216	90	66
144.09	144.223	92	66
144.15	144.666	61	51
144.18	144.667	68	54
144.213	144.737	80	55
144.216	144.671	76	59
144.216	144.275	90	72
144.467	144.534	88	70
144.671	145.245	60	52
144.702	145.245	68	54
144.74	145.246	80	55
144.741	145.248	75	64
144.741	144.796	87	74
144.982	145.045	88	77
145.248	145.77	90	78
145.249	145.77	56	50
145.633	145.77	88	73
145.703	146.218	61	53
145.731	146.218	68	58
145.767	146.198	80	55
145.77	146.218	76	64
145.77	146.218	87	71
145.878	146.218	88	66
145.98	146.198	90	66
146.085	146.218	92	60
146.198	146.707	80	55
146.198	146.26	90	72
146.2	146.708	56	50
146.448	146.519	88	70
146.641	147.232	60	52
146.669	147.236	68	54
146.708	147.236	80	55
146.709	146.77	87	74
146.711	147.24	75	64
146.963	147.022	88	77
147.24	147.786	90	78
147.241	147.786	56	50
147.636	147.786	88	73
147.698	148.241	61	53
147.733	148.241	68	58
147.769	148.195	80	55
147.772	148.241	87	71
147.773	148.241	76	64
147.88	148.241	88	66
147.982	148.195	90	66
148.09	148.241	92	66
148.195	148.731	80	55
148.195	148.261	90	72
148.196	148.734	56	50
148.461	148.531	88	70
148.667	149.255	60	52
148.695	149.256	68	54
148.735	149.256	80	55
148.738	149.259	75	64
148.738	148.797	87	74
148.993	149.06	85	69
149.26	149.799	56	50
149.26	149.799	84	69
149.732	150.277	61	53
149.76	150.277	68	58
149.796	150.277	80	55
149.798	150.226	76	64
149.798	150.277	87	71
149.906	150.277	88	66
150.009	150.222	90	66
150.117	150.277	92	66
150.219	150.754	85	55
150.222	150.754	81	55
150.222	150.288	90	72
150.226	150.757	69	42
150.226	150.757	73	42
150.226	150.755	76	50
150.488	150.557	88	70
150.757	151.303	81	55
150.758	151.306	85	55
150.761	151.307	66	52
150.761	151.307	73	54
150.761	150.824	87	74
150.762	151.307	75	64
151.03	151.1	88	77
151.31	151.863	81	62
151.311	151.863	85	62
151.311	151.863	90	81
151.313	151.863	78	50
151.314	151.863	63	42
151.314	151.863	69	42
151.314	151.86	73	42
151.857	152.206	88	71
151.859	152.364	80	60
151.86	152.364	68	54
151.86	152.371	73	54
151.86	152.371	76	64
151.968	152.361	87	63
152.084	152.371	85	63
152.206	152.371	88	63
152.361	152.714	87	72
152.364	152.791	68	54
152.364	152.857	80	61
152.365	152.861	75	54
152.367	152.861	78	64
152.476	152.858	85	64
152.592	152.861	84	64
152.714	152.861	87	63
152.753	153.887	61	54
152.791	153.887	68	54
152.818	153.887	73	54
152.857	153.887	80	60
152.858	153.887	76	64
152.858	152.994	85	54
152.924	153.06	87	49
152.994	153.117	85	54
153.06	153.187	87	49
153.117	153.243	85	54
153.187	153.306	87	49
153.243	153.376	85	54
153.306	153.435	87	46
153.376	153.495	85	53
153.435	153.558	87	48
153.495	153.621	85	53
153.558	153.704	87	47
153.621	153.789	85	53
153.704	153.887	87	46
153.789	153.887	85	52
153.9	154.422	84	48
153.97	154.422	85	49
154.033	154.422	86	51
154.097	154.422	87	53
154.167	154.422	88	55
154.23	154.422	89	56
154.299	154.422	90	58
154.362	154.433	91	60
154.422	155.013	64	49
154.422	155.013	92	70
154.705	154.789	80	48
154.705	154.79	83	48
154.709	154.79	71	45
154.709	154.793	76	53
155.017	155.584	59	49
155.017	155.58	92	66
155.286	155.363	80	48
155.286	155.363	83	50
155.287	155.364	71	44
155.29	155.367	76	52
155.585	156.399	92	69
155.587	156.154	64	49
155.86	156.154	80	54
155.861	156.154	83	54
155.864	156.154	71	50
155.864	156.154	76	59
156.141	156.609	59	49
156.403	156.455	80	51
156.403	156.456	83	51
156.404	156.504	90	63
156.406	156.456	76	58
156.407	156.457	71	49
156.505	156.609	88	63
156.613	157.155	63	49
156.613	156.679	87	71
156.893	156.959	81	51
156.896	156.959	83	54
156.896	156.96	88	66
156.897	156.963	78	59
156.9	156.963	71	50
157.155	157.729	90	72
157.159	157.729	59	49
157.421	157.729	81	51
157.422	157.729	83	54
157.425	157.729	71	49
157.425	157.729	75	58
157.691	158.506	92	69
157.692	158.268	64	49
157.967	158.268	80	54
157.968	158.268	83	54
157.971	158.268	71	50
157.971	158.268	76	59
158.247	158.723	59	49
158.51	158.566	80	51
158.511	158.566	83	51
158.513	158.567	76	58
158.513	158.619	90	63
158.514	158.569	71	49
158.619	158.724	88	63
158.726	158.786	87	71
158.727	159.252	63	49
158.996	159.059	81	51
158.997	159.06	83	54
158.997	159.062	88	66
158.999	159.063	78	59
159.0	159.063	71	50
159.252	159.833	90	72
159.253	159.833	59	49
159.518	159.833	81	51
159.518	159.833	83	54
159.519	159.833	75	58
159.521	159.833	71	49
159.794	160.348	64	49
159.794	160.616	92	69
160.071	160.364	80	54
160.072	160.364	71	50
160.072	160.364	76	59
160.072	160.364	83	54
160.348	160.837	64	49
160.617	160.669	83	51
160.617	160.725	90	63
160.618	160.67	80	51
160.621	160.67	71	49
160.725	160.837	88	63
160.837	161.33	87	71
160.838	161.8	63	49
160.953	161.33	88	66
161.065	161.33	80	54
161.066	161.296	90	66
161.068	161.33	71	50
161.068	161.33	78	59
161.177	161.33	92	66
161.296	162.31	61	49
161.296	161.362	90	72
161.561	161.624	80	54
161.562	161.629	68	49
161.562	161.628	88	70
161.566	161.629	73	49
161.566	161.629	76	58
161.8	161.863	87	74
161.801	162.849	60	49
162.048	162.111	80	51
162.052	162.111	88	77
162.053	162.115	68	50
162.053	162.115	75	59
162.311	163.283	56	49
162.311	162.849	90	78
162.576	162.849	80	51
162.58	162.849	63	49
162.581	162.849	72	58
162.706	162.849	88	73
162.835	163.326	87	71
162.836	163.795	61	49
162.945	163.326	88	66
163.056	163.326	80	51
163.056	163.281	90	66
163.057	163.326	68	50
163.057	163.326	76	59
163.171	163.326	92	66
163.281	163.343	90	72
163.283	164.32	56	49
163.535	163.605	80	51
163.536	163.606	73	58
163.536	163.606	88	70
163.54	163.61	64	49
163.54	163.609	68	49
163.795	163.861	87	74
163.799	164.32	60	49
164.057	164.121	80	51
164.057	164.124	85	69
164.061	164.124	66	50
164.061	164.125	75	59
164.062	164.125	68	50
164.321	164.863	84	69
164.323	164.863	56	49
164.585	164.863	80	51
164.589	164.863	66	49
164.59	164.863	63	49
164.59	164.863	72	58
164.862	165.363	87	71
164.863	165.363	61	49
164.978	165.363	88	66
165.085	165.363	80	51
165.086	165.308	90	66
165.089	165.363	76	59
165.09	165.363	68	50
165.195	165.363	92	66
165.308	165.377	90	72
165.31	165.572	64	49
165.573	165.636	80	51
165.576	165.639	88	70
165.577	165.814	64	49
165.577	165.64	73	58
165.817	165.884	87	74
165.818	166.367	66	49
166.095	166.164	81	51
166.098	166.168	85	51
166.098	166.168	88	77
166.099	166.168	73	50
166.101	166.169	75	59
166.102	166.172	69	50
166.367	166.918	90	81
166.371	166.918	63	49
166.64	166.918	81	51
166.644	166.918	69	49
166.644	166.918	85	51
166.645	166.918	78	58
166.647	166.918	73	49
166.914	167.267	88	71
166.917	167.435	67	49
167.029	167.42	87	63
167.148	167.435	79	51
167.148	167.435	82	51
167.149	167.435	85	63
167.151	167.435	76	59
167.152	167.435	70	50
167.152	167.435	73	50
167.267	167.435	88	63
167.42	167.778	87	72
167.421	167.96	68	49
167.544	167.919	85	64
167.655	167.96	80	51
167.659	167.96	84	64
167.66	167.96	75	49
167.662	167.96	72	49
167.662	167.96	78	58
167.778	167.96	87	63
167.919	168.044	85	65
167.921	171.481	61	49
168.048	168.289	80	56
168.17	168.649	92	64
168.171	171.481	68	50
168.171	171.481	73	50
168.173	171.481	76	59
168.289	168.535	80	57
168.414	168.884	85	71
168.535	168.765	80	63
168.649	169.098	92	71
168.765	168.986	80	63
168.884	169.308	85	72
168.986	169.203	80	62
169.098	169.514	92	71
169.203	169.409	80	63
169.308	169.724	85	74
169.409	169.619	80	64
169.514	169.937	92	72
169.619	169.83	80	66
169.724	170.148	85	78
169.83	170.043	80	66
169.937	170.361	92	73
170.043	170.252	80	62
170.148	170.579	85	71
170.252	170.467	80	60
170.361	170.792	92	65
170.467	170.683	80	58
170.579	171.019	85	67
170.683	170.903	80	57
170.792	171.247	92	63
170.903	171.128	80	53
171.019	171.481	85	61
171.128	171.361	80	51
171.247	171.477	92	56
171.361	171.481	80	45
171.477	171.701	92	70
171.481	171.702	64	39
171.593	171.653	71	40
171.593	171.649	83	54
171.704	171.761	95	54
171.705	171.762	68	47
171.813	171.866	71	47
171.813	171.866	83	54
171.922	172.142	92	66
171.926	172.142	59	39
172.033	172.086	83	54
172.034	172.087	71	39
172.146	172.198	95	54
172.147	172.198	68	46
172.248	172.307	71	39
172.248	172.306	83	51
172.359	173.013	92	69
172.36	172.811	64	39
172.468	172.688	83	54
172.471	172.691	71	40
172.58	172.811	68	47
172.58	172.811	95	54
172.688	172.811	83	54
172.691	172.811	71	47
172.793	172.846	90	63
172.794	173.017	59	39
172.901	172.957	83	51
172.906	172.958	71	39
173.018	173.071	68	46
173.018	173.07	88	63
173.126	173.178	71	39
173.126	173.178	83	51
173.231	173.448	66	39
173.231	173.279	87	71
173.339	173.392	83	51
173.34	173.393	71	40
173.451	173.507	95	54
173.455	173.508	69	47
173.455	173.507	88	66
173.567	173.623	71	47
173.567	173.622	83	51
173.686	174.155	90	72
173.69	174.155	59	39
173.794	174.009	71	39
173.794	174.008	83	51
173.9	174.155	69	46
173.9	174.155	95	54
174.008	174.155	83	51
174.009	174.155	71	39
174.12	174.778	92	69
174.121	174.581	64	39
174.228	174.456	83	54
174.229	174.456	71	40
174.337	174.581	95	54
174.34	174.581	68	47
174.456	174.581	71	47
174.456	174.581	83	54
174.565	174.781	59	39
174.565	174.616	90	63
174.676	174.729	83	51
174.677	174.73	71	39
174.781	174.831	95	54
174.785	174.834	68	46
174.785	174.834	88	63
174.89	174.943	71	39
174.89	174.942	83	51
174.998	175.054	87	71
175.002	175.218	66	39
175.11	175.17	83	51
175.114	175.17	71	40
175.219	175.281	95	54
175.223	175.288	69	47
175.223	175.286	88	66
175.341	175.397	83	54
175.342	175.397	71	47
175.446	175.925	90	72
175.45	175.925	59	39
175.561	175.783	83	51
175.566	175.786	71	39
175.674	175.925	95	54
175.675	175.925	69	46
175.783	175.925	83	51
175.786	175.925	71	39
175.895	176.312	64	39
175.895	176.527	92	69
175.999	176.205	83	54
176.0	176.21	71	40
176.105	176.328	95	54
176.106	176.328	68	47
176.205	176.328	83	54
176.21	176.328	71	47
176.311	176.363	90	63
176.312	176.528	64	39
176.423	176.476	71	39
176.423	176.476	83	51
176.528	176.583	88	63
176.529	176.587	95	51
176.532	176.588	68	46
176.643	176.703	83	51
176.644	176.703	71	39
176.759	177.217	63	39
176.759	177.217	87	71
176.871	177.092	71	40
176.871	177.217	88	66
176.987	177.189	90	66
176.99	177.217	66	47
177.092	177.217	71	47
177.092	177.217	92	66
177.189	177.249	90	72
177.193	177.41	61	39
177.298	177.35	83	54
177.301	177.351	68	39
177.41	177.466	92	51
177.411	177.47	88	70
177.414	177.47	64	46
177.525	177.585	83	54
177.526	177.586	68	39
177.641	177.693	87	74
177.642	177.854	60	39
177.753	177.806	68	40
177.753	177.805	80	54
177.855	177.914	92	51
177.858	177.917	63	47
177.858	177.915	88	77
177.97	178.026	80	54
177.973	178.026	68	47
178.082	178.565	90	78
178.086	178.565	56	39
178.2	178.432	80	54
178.201	178.432	68	39
178.316	178.565	92	51
178.317	178.565	63	46
178.317	178.565	88	73
178.432	178.565	68	39
178.432	178.565	80	51
178.547	178.999	87	71
178.548	178.999	61	39
178.653	178.856	68	40
178.653	178.999	88	66
178.758	178.96	90	66
178.761	178.999	64	47
178.855	178.999	92	66
178.856	178.999	68	47
178.96	179.016	90	72
178.961	179.191	56	39
179.076	179.136	68	39
179.076	179.131	80	51
179.192	179.251	88	70
179.192	179.247	92	51
179.195	179.252	64	46
179.3	179.36	80	51
179.303	179.36	68	39
179.412	179.646	60	39
179.412	179.467	87	74
179.527	179.583	80	51
179.528	179.587	68	40
179.646	179.703	92	51
179.647	179.706	63	47
179.647	179.703	85	69
179.761	179.817	80	51
179.762	179.818	68	47
179.874	180.344	84	69
179.877	180.344	56	39
180.0	180.227	68	39
180.0	180.224	80	51
180.115	180.344	92	51
180.116	180.344	63	46
180.224	180.344	80	51
180.227	180.344	68	39
180.343	180.815	87	71
180.344	180.815	61	39
180.445	180.815	88	66
180.448	180.658	68	40
180.55	180.763	90	66
180.553	180.815	64	47
180.655	180.815	92	66
180.658	180.815	68	47
180.763	180.822	90	72
180.766	180.998	56	39
180.882	180.938	80	51
180.883	180.941	68	39
180.998	181.054	92	51
180.999	181.057	88	70
181.001	181.057	64	46
181.105	181.165	80	51
181.11	181.166	68	39
181.221	181.281	87	74
181.225	181.459	60	39
181.341	181.397	68	40
181.341	181.396	80	51
181.463	181.519	92	51
181.464	181.52	85	69
181.466	181.52	63	47
181.578	181.642	68	47
181.578	181.642	80	51
181.701	182.202	56	39
181.701	182.202	84	69
181.82	182.068	80	51
181.823	182.069	68	39
181.943	182.202	92	51
181.946	182.202	63	46
182.068	182.202	80	51
182.069	182.202	68	39
182.201	182.688	61	39
182.201	182.541	88	71
182.317	182.671	87	63
182.318	182.542	68	40
182.426	182.688	80	51
182.43	182.688	64	47
182.43	182.688	85	63
182.43	182.688	92	51
182.541	182.688	88	63
182.542	182.688	68	47
182.671	183.167	56	39
182.671	183.01	87	72
182.783	183.133	85	64
182.787	183.014	68	39
182.898	183.167	92	51
182.899	183.167	63	36
182.899	183.167	80	51
182.899	183.167	84	64
182.901	183.167	66	46
183.01	183.167	87	63
183.014	183.167	68	39
183.133	183.245	85	65
183.136	184.002	61	46
183.245	183.466	80	56
183.246	183.468	77	37
183.357	183.787	68	48
183.357	183.784	92	64
183.466	183.682	80	57
183.468	183.682	77	39
183.571	184.42	73	47
183.571	184.001	85	67
183.682	183.897	77	39
183.682	183.896	80	58
183.784	184.211	92	65
183.787	184.212	68	48
183.896	184.103	80	59
183.897	184.105	77	42
184.001	184.418	85	72
184.002	184.833	61	50
184.103	184.312	80	62
184.105	184.315	77	43
184.211	184.627	92	71
184.212	184.631	68	50
184.312	184.523	80	63
184.315	184.523	77	45
184.418	184.935	85	74
184.42	185.237	73	52
184.523	184.733	77	46
184.523	184.732	80	64
184.627	184.83	92	72
184.631	185.037	68	53
184.732	190.395	80	66
184.733	184.936	77	48
184.83	185.237	92	78
184.833	185.667	61	52
184.935	185.138	85	66
184.936	185.139	77	44
185.036	185.44	97	73
185.037	185.442	68	51
185.138	185.342	85	62
185.139	185.343	77	45
185.237	186.073	73	53
185.237	185.666	92	71
185.342	185.548	85	60
185.343	185.551	77	46
185.44	185.87	97	65
185.442	185.873	68	52
185.548	185.771	85	58
185.551	185.772	77	47
185.666	186.072	92	67
185.667	186.48	61	48
185.771	185.971	85	57
185.772	185.975	77	36
185.87	186.276	97	63
185.873	186.276	68	49
185.971	186.178	85	53
185.975	186.179	77	43
186.072	186.48	92	61
186.073	190.395	73	51
186.178	186.38	85	51
186.179	186.381	77	44
186.276	186.682	68	50
186.276	186.682	97	56
186.38	186.584	85	45
186.381	186.585	77	43
186.48	186.893	61	48
186.48	186.892	92	67
186.584	186.786	85	55
186.585	186.786	77	35
186.682	187.101	68	47
186.682	187.099	97	60
186.786	186.996	77	40
186.786	186.994	85	49
186.892	187.309	92	56
186.893	187.31	61	46
186.994	187.203	85	45
186.996	187.207	77	39
187.099	187.522	97	49
187.101	187.525	68	44
187.203	187.42	85	38
187.207	187.42	77	36
187.309	187.745	92	56
187.31	187.745	61	40
187.42	187.637	77	29
187.42	187.634	85	46
187.522	187.966	97	50
187.525	187.967	68	39
187.634	187.855	85	41
187.637	187.855	77	33
187.745	188.2	61	38
187.745	188.197	92	46
187.855	188.082	77	32
187.855	188.081	85	37
187.966	188.435	97	40
187.967	188.439	68	36
188.081	188.313	85	36
188.082	188.316	77	1
188.197	188.68	92	46
188.2	188.681	61	33
188.313	188.551	85	39
188.316	188.553	77	25
188.435	188.94	97	44
188.439	188.943	68	34
188.551	188.807	85	37
188.553	188.807	77	30
188.68	189.237	92	42
188.681	189.238	61	35
188.807	189.086	77	30
188.807	189.086	85	35
188.94	189.604	97	39
188.943	189.605	68	35
189.086	189.605	77	30
189.086	189.415	85	31
189.237	190.395	92	39
189.238	190.395	61	33
189.415	190.395	85	31
189.604	190.395	97	31
189.605	190.395	68	30
189.605	190.395	77	30
191.683	191.945	73	47
191.945	193.375	73	57
191.946	193.86	45	44
192.215	192.439	85	50
192.216	193.86	52	34
192.439	193.86	85	58
192.44	193.86	57	35
192.67	192.915	83	51
192.674	193.86	61	36
192.915	193.856	83	56
192.916	193.86	64	37
193.143	193.86	69	38
193.143	193.374	81	45
193.374	193.86	81	49
193.375	193.86	73	36
193.601	193.86	80	45
193.856	195.775	83	56
193.857	195.775	44	44
194.095	195.775	53	34
194.336	195.775	59	35
194.336	195.775	81	48
194.574	195.775	61	36
194.829	195.775	80	56
194.833	195.775	65	37
195.067	195.775	71	38
195.302	195.772	73	36
195.772	197.684	73	60
195.775	197.684	42	44
195.775	196.328	83	60
196.038	196.268	81	45
196.04	197.684	49	34
196.268	197.684	54	35
196.268	196.381	81	55
196.328	197.684	83	55
196.381	196.787	81	60
196.495	196.73	80	45
196.499	197.684	57	36
196.73	196.846	80	55
196.731	197.684	61	37
196.787	197.684	81	55
196.846	197.245	80	61
196.954	197.185	78	45
196.958	197.684	66	38
197.185	197.304	78	52
197.189	197.684	69	36
197.245	197.683	80	52
197.304	197.684	78	58
197.426	197.684	77	45
197.683	199.735	80	58
197.684	199.735	37	44
197.92	199.735	49	34
198.098	199.131	68	39
198.134	198.662	73	43
198.162	199.735	77	49
198.165	199.735	53	35
198.404	199.735	56	36
198.662	199.516	73	53
198.663	199.735	61	37
198.893	199.735	65	38
199.131	199.735	68	36
199.516	199.734	73	47
199.734	201.644	45	44
199.734	201.159	73	57
199.996	200.23	85	50
200.0	201.644	52	34
200.23	201.644	85	58
200.231	201.644	57	35
200.454	200.699	83	51
200.458	201.644	61	36
200.699	201.64	83	56
200.7	201.644	64	37
200.931	201.158	81	45
200.933	201.644	69	38
201.158	201.644	81	49
201.159	201.644	73	36
201.385	201.644	80	45
201.64	203.5	83	56
201.641	203.559	44	44
201.883	203.559	53	34
202.12	203.559	59	35
202.12	203.44	81	48
202.358	203.559	61	36
202.62	203.559	80	56
202.621	203.559	65	37
202.851	203.559	71	38
203.086	203.559	73	36
203.44	203.556	81	52
203.5	203.559	83	52
203.556	204.28	81	60
203.558	204.528	42	44
203.825	204.395	80	45
204.056	204.528	73	49
204.057	204.528	66	35
204.057	204.528	78	60
204.059	204.528	61	35
204.059	204.528	69	35
204.28	204.455	81	45
204.395	204.525	80	53
204.455	204.528	81	53
204.525	205.473	37	37
204.525	205.211	80	61
204.745	205.47	78	45
204.976	205.473	77	58
204.977	205.473	65	36
204.977	205.473	73	49
204.98	205.473	59	36
204.98	205.473	68	36
205.211	205.473	80	45
205.47	205.848	78	58
205.471	207.622	42	44
205.848	205.992	78	43
205.918	207.622	80	44
205.991	207.349	73	49
205.992	206.52	78	49
205.995	207.622	58	36
205.995	207.622	66	36
205.995	207.622	70	36
206.376	207.622	77	49
206.52	207.622	78	53
207.349	207.62	73	39
207.353	207.619	85	54
207.619	207.882	85	61
207.62	209.04	73	51
207.622	209.527	45	44
207.882	208.109	85	44
207.882	208.109	97	52
207.885	209.527	52	34
208.109	209.527	85	51
208.109	209.527	97	61
208.113	209.527	57	36
208.333	208.585	95	53
208.337	209.527	61	38
208.337	208.586	83	45
208.585	209.524	95	61
208.586	209.526	83	51
208.588	209.527	64	40
208.809	209.037	81	45
208.812	209.039	93	53
208.813	209.527	69	42
209.037	209.527	81	51
209.039	209.527	93	60
209.04	209.527	73	44
209.271	209.527	80	46
209.271	209.527	92	55
209.524	211.437	95	69
209.526	211.438	44	44
209.526	211.438	83	58
209.761	211.438	53	34
209.939	211.438	81	47
209.971	210.461	85	49
209.998	211.438	93	60
209.999	211.438	59	35
210.247	211.438	61	36
210.429	211.438	80	51
210.461	211.438	85	54
210.499	211.438	65	37
210.499	211.438	92	66
210.73	211.438	71	38
210.968	211.438	73	36
211.437	213.352	95	69
211.438	213.352	42	44
211.438	213.352	83	58
211.703	211.941	81	46
211.704	213.352	49	42
211.704	211.942	93	55
211.941	213.352	81	56
211.942	213.352	54	41
211.942	212.336	93	67
212.158	213.352	57	41
212.158	212.397	92	55
212.336	213.352	93	57
212.397	213.349	92	66
212.4	213.352	80	56
212.401	213.352	61	40
212.623	212.858	90	50
212.624	213.352	66	39
212.624	212.858	78	42
212.858	213.352	69	38
212.858	213.352	78	53
212.858	213.352	90	63
213.094	213.352	89	47
213.096	213.352	77	39
213.349	215.521	92	63
213.352	215.521	37	44
213.352	213.765	80	53
213.587	215.521	49	34
213.737	214.258	77	46
213.765	214.293	80	50
213.796	214.321	85	52
213.824	215.521	53	35
213.824	215.521	89	59
214.073	215.521	56	36
214.23	215.186	73	42
214.258	215.521	77	44
214.293	215.521	80	46
214.321	215.189	85	53
214.322	215.521	61	37
214.559	215.521	65	38
214.801	215.521	68	36
215.186	215.4	73	47
215.189	215.4	85	54
215.4	215.665	73	57
215.4	215.665	85	65
215.403	215.612	45	44
215.666	215.893	85	50
215.669	217.314	52	34
215.669	215.893	97	57
215.893	217.314	85	58
215.893	217.314	97	66
215.896	217.314	57	35
216.128	216.372	83	51
216.128	216.369	95	58
216.129	217.314	61	36
216.369	217.311	95	64
216.372	217.314	64	37
216.372	217.31	83	56
216.596	216.829	93	51
216.597	217.314	69	38
216.597	216.828	81	45
216.828	217.314	81	49
216.829	217.314	93	56
216.83	217.314	73	36
217.055	217.314	92	51
217.056	217.314	80	45
217.31	219.229	83	56
217.311	219.229	44	44
217.311	219.229	95	64
217.555	219.229	53	34
217.727	219.228	81	48
217.759	218.248	85	48
217.79	219.229	59	31
217.79	219.226	93	49
218.031	219.229	61	32
218.217	219.229	80	50
218.248	219.229	85	50
218.283	219.229	65	33
218.283	219.229	92	57
218.521	219.229	71	34
218.752	219.229	73	32
219.226	219.999	93	51
219.228	219.999	81	45
219.229	220.268	42	33
219.498	220.261	80	33
219.501	220.262	92	38
219.754	220.268	85	36
219.754	220.268	90	51
219.755	220.268	78	45
219.756	220.268	61	26
219.757	220.268	66	26
219.757	220.268	69	26
219.999	220.268	81	33
219.999	220.268	93	38
220.261	221.003	80	45
220.262	221.003	92	52
220.264	221.298	37	27
220.503	221.294	78	33
220.503	221.297	90	38
220.748	221.298	85	36
220.748	221.298	89	49
220.751	221.298	59	27
220.751	221.298	65	27
220.751	221.298	77	43
220.752	221.298	68	27
221.003	221.298	80	33
221.003	221.298	92	38
221.294	221.805	78	43
221.297	223.323	42	33
221.297	221.805	90	49
221.707	223.323	58	27
221.734	223.323	61	27
221.769	223.323	66	27
221.804	222.373	85	36
221.805	223.323	70	27
221.805	222.375	78	36
221.805	222.374	90	42
222.225	223.323	77	36
222.228	223.323	89	42
222.373	223.323	85	39
222.374	223.323	90	45
222.375	223.323	78	39
223.317	223.498	56	51
223.318	223.495	52	42
223.32	224.037	37	46
223.32	224.037	49	54
223.405	223.591	61	42
223.495	223.684	52	38
223.498	223.684	56	45
223.499	224.037	36	40
223.499	224.037	48	48
223.591	223.776	61	43
223.684	223.862	52	38
223.684	223.866	56	45
223.685	224.037	35	40
223.687	224.037	47	48
223.776	223.957	61	43
223.862	224.037	52	38
223.866	224.037	34	40
223.866	224.037	46	48
223.866	224.037	56	45
223.957	224.04	61	42
224.044	224.217	56	49
224.045	224.776	33	40
224.045	224.777	45	48
224.045	224.216	52	42
224.129	224.304	61	42
224.216	224.395	52	38
224.217	224.398	56	45
224.22	224.573	32	41
224.22	224.573	44	48
224.304	224.483	61	41
224.395	224.573	52	38
224.398	224.57	56	45
224.399	224.814	31	43
224.399	224.814	43	51
224.483	224.675	61	41
224.57	224.814	56	45
224.573	224.814	32	46
224.573	224.814	44	55
224.573	224.814	52	38
224.675	224.814	61	40
224.772	224.867	54	41
224.776	226.247	33	48
224.776	224.867	57	48
224.777	226.247	45	57
224.868	225.043	66	42
224.954	225.134	57	45
224.955	226.247	44	54
224.955	225.133	54	38
224.957	226.247	32	45
225.043	225.221	66	42
225.133	225.307	54	39
225.134	225.311	57	46
225.136	226.247	31	41
225.136	226.247	43	48
225.221	225.402	66	41
225.307	225.487	54	38
225.311	225.486	57	45
225.312	226.247	30	41
225.312	226.247	42	48
225.402	225.574	66	42
225.486	225.669	57	45
225.487	225.666	54	38
225.49	226.247	29	41
225.49	226.247	41	48
225.574	225.756	66	42
225.666	225.844	54	38
225.669	226.247	40	48
225.669	225.84	57	45
225.672	226.247	28	41
225.756	225.935	66	42
225.84	226.023	57	45
225.844	226.247	27	40
225.844	226.247	39	48
225.844	226.023	54	38
225.935	226.134	66	41
226.023	226.247	54	38
226.023	226.247	57	45
226.025	226.247	24	40
226.026	226.247	36	48
226.134	226.247	66	42
226.243	226.326	52	42
226.245	226.33	56	51
226.246	226.967	25	46
226.246	226.967	37	54
226.331	226.51	64	42
226.414	226.6	56	45
226.417	226.967	38	47
226.417	226.596	52	38
226.418	226.967	26	39
226.51	226.684	64	44
226.596	226.778	52	39
226.6	226.967	27	42
226.6	226.967	39	49
226.6	226.778	56	46
226.684	226.862	64	45
226.778	226.967	52	40
226.778	226.967	56	48
226.779	226.967	28	44
226.781	226.967	40	52
226.862	226.967	64	45
226.952	227.132	50	46
226.953	227.313	29	49
226.953	227.314	41	58
226.953	227.133	54	55
227.044	227.218	62	46
227.132	227.311	50	42
227.133	227.486	42	54
227.133	227.31	54	49
227.135	227.488	30	46
227.218	227.401	62	48
227.31	227.485	54	51
227.311	227.485	50	43
227.313	227.723	29	50
227.314	227.723	41	59
227.401	227.59	62	49
227.485	227.723	50	43
227.485	227.723	54	51
227.486	227.723	42	56
227.488	227.723	30	48
227.59	227.723	62	49
227.695	227.783	52	50
227.695	227.779	56	59
227.696	228.056	31	54
227.696	228.056	43	64
227.783	227.962	61	50
227.874	228.052	52	45
227.874	228.055	56	54
227.876	228.238	32	51
227.877	228.237	44	61
227.962	228.143	61	52
228.052	228.234	52	46
228.055	228.233	56	54
228.056	228.43	31	55
228.056	228.43	43	65
228.143	228.322	61	53
228.233	228.43	56	55
228.234	228.43	52	47
228.237	228.43	44	59
228.238	228.43	32	50
228.322	228.43	61	53
228.405	228.499	51	53
228.409	228.77	33	62
228.409	228.77	45	74
228.409	228.5	54	62
228.5	228.682	60	54
228.592	228.766	54	57
228.594	228.767	51	48
228.595	228.951	44	64
228.598	228.951	32	53
228.682	228.863	60	56
228.766	228.949	54	58
228.767	228.948	51	49
228.77	229.206	33	62
228.77	229.206	45	74
228.863	229.064	60	57
228.948	229.206	51	51
228.949	229.206	54	60
228.951	229.206	32	57
228.951	229.206	44	68
229.064	229.206	60	57
229.172	229.354	49	75
229.172	229.35	61	92
229.175	229.354	52	75
229.176	230.663	25	75
229.176	229.355	37	89
229.893	230.663	61	78
229.894	230.663	57	78
229.896	230.663	54	89
229.897	230.663	42	75
229.897	230.663	49	75
229.97	230.663	66	67
230.051	230.663	69	69
230.124	230.663	73	71
230.208	230.663	78	73
230.288	230.663	81	75
230.369	230.643	85	77
230.449	230.663	90	79
230.533	230.663	93	81
230.643	231.488	85	92
230.643	231.488	92	92
230.645	231.488	52	89
230.645	231.488	97	96
230.646	231.488	37	75
230.646	231.488	44	75
232.609	232.799	63	51
232.61	232.798	59	42
232.612	233.337	56	54
232.613	233.337	44	46
232.704	232.89	68	42
232.798	232.98	59	38
232.799	233.337	43	40
232.799	232.984	63	45
232.8	233.337	55	48
232.89	233.075	68	43
232.98	233.163	59	38
232.984	233.337	42	40
232.984	233.337	54	48
232.984	233.165	63	45
233.075	233.256	68	43
233.163	233.337	59	38
233.165	233.337	63	45
233.166	233.337	41	40
233.166	233.337	53	48
233.256	233.341	68	42
233.341	233.516	59	42
233.344	234.076	40	40
233.344	234.076	52	48
233.344	233.516	63	49
233.428	233.61	68	42
233.516	233.698	59	38
233.516	233.698	63	45
233.519	233.873	51	48
233.52	233.872	39	41
233.61	233.782	68	41
233.698	233.872	59	38
233.698	233.869	63	45
233.699	234.114	50	51
233.7	234.114	38	43
233.782	233.975	68	41
233.869	234.114	63	45
233.872	234.114	39	46
233.872	234.114	59	38
233.873	234.114	51	55
233.975	234.114	68	40
234.072	234.166	64	48
234.075	234.167	61	41
234.076	235.547	40	48
234.076	235.547	52	57
234.167	234.343	73	42
234.254	234.433	61	38
234.254	234.433	64	45
234.255	235.547	51	54
234.258	235.547	39	45
234.343	234.521	73	42
234.433	234.608	61	39
234.433	234.609	64	46
234.436	235.547	38	41
234.437	235.547	50	48
234.521	234.695	73	41
234.608	234.787	61	38
234.609	234.787	64	45
234.611	235.547	37	41
234.611	235.547	49	48
234.695	234.875	73	42
234.787	234.963	61	38
234.787	234.962	64	45
234.789	235.547	48	48
234.79	235.547	36	41
234.875	235.057	73	42
234.962	235.141	64	45
234.963	235.14	61	38
234.965	235.547	35	41
234.965	235.547	47	48
235.057	235.236	73	42
235.14	235.323	61	38
235.141	235.323	64	45
235.144	235.547	46	48
235.145	235.547	34	40
235.236	235.435	73	41
235.323	235.547	61	38
235.323	235.547	64	45
235.326	235.547	31	40
235.326	235.547	43	48
235.435	235.547	73	42
235.542	235.626	59	42
235.545	236.268	32	46
235.545	235.63	63	51
235.547	236.268	44	54
235.63	235.809	71	42
235.718	236.268	45	47
235.718	235.899	59	38
235.718	235.896	63	45
235.721	236.268	33	39
235.809	235.984	71	44
235.896	236.079	63	46
235.899	236.268	34	42
235.899	236.268	46	49
235.899	236.078	59	39
235.984	236.163	71	45
236.078	236.268	59	40
236.079	236.268	35	44
236.079	236.268	63	48
236.081	236.268	47	52
236.163	236.268	71	45
236.254	236.431	57	46
236.254	236.432	61	55
236.255	236.613	36	49
236.255	236.613	48	58
236.345	236.519	69	46
236.431	236.61	57	42
236.432	236.785	49	54
236.432	236.612	61	49
236.434	236.788	37	46
236.519	236.699	69	48
236.61	236.784	57	43
236.612	236.785	61	51
236.613	237.022	36	50
236.613	237.022	48	59
236.699	236.89	69	49
236.784	237.022	57	43
236.785	237.022	49	56
236.785	237.022	61	51
236.788	237.022	37	48
236.89	237.022	69	49
236.995	237.078	59	50
236.995	237.082	63	59
236.996	237.356	38	54
236.996	237.356	50	64
237.083	237.261	68	50
237.173	237.355	59	45
237.174	237.352	63	54
237.177	237.53	39	51
237.177	237.53	51	61
237.261	237.442	68	52
237.352	237.528	63	54
237.355	237.527	59	46
237.356	237.729	38	55
237.356	237.729	50	65
237.442	237.622	68	53
237.527	237.729	59	47
237.528	237.729	63	55
237.53	237.729	39	50
237.53	237.729	51	59
237.622	237.729	68	53
237.714	237.799	61	62
237.716	238.07	40	62
237.716	238.07	52	74
237.716	237.799	58	53
237.8	237.982	67	54
237.887	238.066	58	48
237.887	238.066	61	57
237.89	238.255	39	53
237.891	238.255	51	64
237.982	238.16	67	56
238.066	238.255	58	49
238.066	238.252	61	58
238.07	238.508	40	62
238.07	238.508	52	74
238.16	238.364	67	57
238.252	238.508	61	60
238.255	238.508	39	57
238.255	238.508	51	68
238.255	238.508	58	51
238.364	238.508	67	57
238.476	238.65	56	75
238.476	238.657	59	75
238.476	238.653	68	92
238.48	239.962	32	75
238.48	239.947	44	89
239.193	239.962	56	75
239.193	239.962	64	78
239.193	239.962	68	78
239.196	239.962	49	75
239.196	239.962	61	89
239.27	239.962	73	67
239.343	239.962	76	69
239.427	239.962	80	71
239.508	239.962	85	73
239.588	239.962	88	75
239.669	239.942	92	77
239.749	239.962	97	79
239.83	239.962	100	81
239.942	240.789	92	92
239.945	240.789	104	96
239.946	240.789	51	75
239.946	240.789	59	89
239.946	240.789	99	92
239.947	240.789	44	75
241.667	241.908	47	69
241.668	241.912	35	58
241.913	243.589	52	78
241.913	243.655	68	83
241.913	243.655	80	99
241.915	243.589	40	66
242.514	242.714	56	55
242.515	242.717	59	55
242.515	242.715	64	78
242.714	243.655	56	60
242.715	243.585	64	84
242.717	243.655	59	60
243.368	243.655	69	64
243.368	243.655	81	77
243.372	243.655	35	56
243.372	243.655	47	67
243.472	243.655	83	77
243.473	243.655	71	64
243.585	245.311	64	78
243.588	245.311	76	92
243.589	243.81	40	60
243.589	243.809	52	70
244.194	244.397	59	73
244.197	244.395	56	61
244.395	245.311	56	64
244.397	245.311	59	78
245.048	245.311	63	64
245.052	245.311	35	69
245.052	245.311	47	82
245.052	245.311	75	77
245.304	246.399	66	72
245.305	246.4	78	88
245.307	246.97	39	78
245.307	246.97	51	92
245.902	246.099	59	66
245.905	246.098	57	66
246.098	246.97	57	70
246.099	246.97	59	70
246.249	246.924	64	64
246.25	246.924	76	77
246.399	246.684	66	70
246.4	246.683	78	83
246.539	246.97	80	82
246.54	246.97	68	69
246.683	246.97	78	78
246.684	246.97	66	66
246.861	247.067	35	67
246.862	247.05	47	79
246.924	247.053	64	66
246.924	247.054	76	78
247.058	248.734	64	77
247.058	248.503	76	92
247.059	248.734	40	70
247.06	248.734	52	84
247.656	247.851	56	64
247.656	247.849	59	77
247.849	248.734	59	82
247.851	248.734	56	68
248.503	248.733	68	70
248.503	248.731	76	70
248.506	248.734	47	82
248.506	248.731	80	83
248.507	248.734	35	69
248.731	249.525	76	78
248.731	249.518	80	92
248.733	249.518	68	78
248.734	249.525	40	78
248.734	249.519	52	92
249.518	249.783	68	68
249.518	249.787	80	80
249.519	249.79	52	53
249.519	249.79	64	63
249.791	250.054	69	69
249.791	250.053	81	82
249.794	250.054	54	56
249.794	250.056	66	66
250.057	250.308	83	88
250.06	250.309	71	74
250.061	250.312	56	59
250.061	250.313	68	70
250.313	251.069	73	66
250.315	251.072	85	92
250.316	251.071	57	51
250.316	251.072	69	73
251.068	251.351	61	75
251.069	251.356	64	75
251.069	251.358	73	90
251.071	251.358	45	60
251.071	251.359	57	71
251.072	251.359	52	60
251.362	251.638	71	84
251.363	251.643	44	56
251.363	251.639	59	71
251.363	251.642	64	71
251.365	251.643	56	67
251.366	251.643	52	56
251.645	251.904	64	67
251.646	251.908	58	67
251.646	251.905	70	79
251.647	251.909	52	52
251.649	251.909	43	52
251.65	251.912	55	62
251.912	252.759	59	78
251.912	252.759	64	78
251.915	252.762	71	92
251.916	252.763	44	71
251.916	252.762	52	71
251.918	252.763	56	84
252.766	253.392	64	77
252.767	253.392	52	77
252.767	253.605	56	77
252.769	253.609	37	71
252.769	253.606	44	71
252.769	253.61	49	84
253.393	253.61	63	77
253.396	253.61	51	77
253.612	255.352	63	88
253.613	255.352	51	72
253.616	255.352	57	72
253.617	255.352	35	71
253.617	255.352	42	71
253.617	255.352	45	71
253.619	255.352	47	84
254.589	255.307	64	77
254.59	255.307	52	64
254.754	255.055	54	70
254.754	255.052	66	83
254.904	255.352	68	82
254.905	255.352	56	69
255.052	255.352	66	78
255.055	255.352	54	66
255.264	255.447	28	61
255.265	255.447	40	72
255.307	255.436	52	66
255.307	255.436	64	78
255.447	255.59	64	71
255.45	255.593	40	77
255.45	255.591	52	71
255.451	255.594	28	77
255.597	256.024	56	72
255.598	257.011	44	68
255.738	256.165	59	73
255.741	256.866	47	70
255.885	256.304	64	74
255.886	256.728	52	71
256.024	256.581	56	73
256.024	257.162	68	75
256.164	257.162	71	75
256.165	256.443	59	75
256.302	257.162	76	77
256.304	257.162	64	78
256.441	257.162	80	78
256.443	257.162	59	79
256.58	257.162	83	79
256.581	257.162	56	81
256.724	257.158	88	80
256.728	257.159	52	82
256.865	257.155	92	81
256.866	257.161	47	84
257.011	257.162	44	86
257.011	257.162	95	82
257.155	257.372	92	93
257.158	257.375	88	93
257.159	257.376	40	84
257.159	257.379	52	84
257.159	257.375	100	93
257.161	257.379	47	84
258.702	258.947	32	58
258.705	258.947	44	69
258.948	260.511	80	86
258.95	260.689	88	103
258.951	260.689	76	86
258.951	260.616	85	86
258.954	260.621	37	66
258.954	260.62	49	78
259.556	259.756	61	55
259.556	259.755	64	55
259.559	259.752	56	55
259.559	259.756	68	78
259.752	260.689	56	60
259.755	260.689	64	60
259.756	260.689	61	60
259.756	260.689	68	84
260.409	260.689	90	80
260.41	260.689	32	56
260.41	260.689	78	67
260.411	260.689	44	67
260.511	260.689	80	67
260.512	260.689	92	80
260.616	262.341	85	96
260.62	260.844	49	70
260.62	262.341	73	81
260.621	260.847	37	60
261.232	261.431	56	61
261.232	261.432	64	61
261.236	261.432	61	61
261.239	261.429	68	73
261.429	262.341	68	78
261.431	262.341	56	64
261.432	262.341	61	64
261.432	262.341	64	64
262.086	262.341	84	80
262.087	262.341	72	67
262.089	262.341	32	69
262.09	262.341	44	82
262.335	263.431	75	75
262.338	263.432	87	92
262.339	264.007	36	78
262.339	264.007	48	92
262.934	263.134	68	66
262.937	263.133	63	66
262.937	263.133	66	66
262.941	263.13	56	66
263.13	264.007	56	70
263.133	264.007	63	70
263.133	264.007	66	70
263.134	264.007	68	70
263.284	263.955	73	67
263.286	263.958	85	80
263.431	263.717	75	73
263.432	263.714	87	86
263.574	264.007	88	85
263.578	264.007	76	72
263.714	264.007	87	81
263.717	264.007	75	69
263.892	264.085	32	67
263.893	264.086	44	79
263.955	264.086	73	69
263.958	264.088	85	81
264.088	265.558	73	80
264.089	265.558	85	96
264.092	265.558	37	70
264.092	265.558	49	84
264.701	264.917	56	64
264.702	264.916	61	64
264.702	264.915	64	64
264.704	264.915	68	77
264.915	265.558	64	68
264.915	265.558	68	82
264.916	265.558	61	68
264.917	265.558	56	68
265.691	265.814	29	69
265.695	265.814	53	82
265.696	265.817	41	69
265.817	268.228	42	78
265.818	268.051	54	92
265.821	268.228	30	78
267.294	267.39	85	80
267.295	267.392	73	68
267.298	267.392	57	53
267.298	267.389	81	68
267.299	267.393	61	53
267.299	267.393	69	63
267.389	268.048	81	74
267.39	268.228	85	89
267.392	268.054	57	59
267.392	268.228	73	74
267.393	268.228	61	59
267.393	268.05	69	70
267.662	267.756	71	67
267.662	267.754	80	67
267.665	267.757	56	52
267.665	267.756	83	79
267.666	267.76	59	52
267.666	267.76	68	62
267.754	268.228	80	73
267.756	268.228	71	73
267.756	268.228	83	86
267.757	268.228	56	58
267.76	268.228	59	58
267.76	268.228	68	69
268.048	268.162	81	79
268.05	268.163	69	67
268.05	268.163	78	67
268.051	268.164	54	52
268.054	268.166	57	52
268.054	268.165	66	62
268.162	268.593	81	86
268.163	268.596	69	73
268.163	268.597	78	73
268.164	268.6	54	58
268.165	268.6	66	69
268.166	268.601	57	58
268.929	269.051	61	82
268.932	269.055	49	69
268.936	269.055	37	69
269.058	271.473	50	78
269.058	271.291	62	92
269.059	271.473	38	78
270.535	270.63	78	68
270.536	270.631	69	63
270.536	270.627	81	68
270.536	270.626	90	80
270.539	270.63	66	53
270.626	271.473	90	89
270.627	271.473	81	74
270.63	271.291	66	59
270.63	271.289	78	74
270.631	271.473	69	70
270.9	270.99	76	67
270.903	270.994	80	67
270.903	270.994	88	79
270.904	270.997	64	52
270.904	270.995	68	62
270.99	271.473	76	73
270.994	271.473	80	73
270.994	271.473	88	86
270.995	271.473	68	69
270.997	271.473	64	58
271.289	271.397	74	67
271.289	271.4	78	67
271.291	271.404	62	52
271.291	271.401	66	62
271.291	271.4	86	79
271.397	271.841	74	73
271.4	271.842	78	73
271.4	271.842	86	86
271.401	271.844	66	69
271.404	271.845	62	58
272.17	272.292	58	82
272.171	272.292	34	69
272.173	272.293	46	69
272.296	273.962	59	92
272.297	273.962	47	78
272.299	273.962	35	78
273.023	273.13	90	68
273.024	273.126	93	80
273.028	273.132	57	53
273.028	273.13	69	63
273.028	273.129	85	68
273.029	273.13	66	53
273.126	273.962	93	89
273.129	273.962	85	74
273.13	273.735	66	59
273.13	273.962	69	70
273.13	273.735	90	74
273.132	273.962	57	59
273.385	273.473	92	79
273.387	273.473	80	67
273.388	273.476	56	52
273.388	273.475	68	62
273.388	273.472	88	67
273.391	273.476	64	52
273.472	273.962	88	73
273.473	273.962	80	73
273.473	273.962	92	86
273.475	273.962	68	69
273.476	273.962	56	58
273.476	273.962	64	58
273.731	273.962	78	67
273.734	273.962	87	67
273.735	273.962	66	62
273.735	273.962	90	79
273.737	273.962	54	52
273.738	273.962	63	52
273.96	275.593	60	92
273.962	275.593	36	78
273.962	275.593	48	78
274.672	274.771	90	68
274.673	274.771	85	68
274.673	274.77	93	80
274.676	274.775	57	53
274.676	274.774	66	53
274.679	274.775	69	63
274.77	275.593	93	89
274.771	275.593	85	74
274.771	275.382	90	74
274.774	275.387	66	59
274.775	275.593	57	59
274.775	275.593	69	70
275.026	275.114	88	67
275.029	275.117	92	79
275.03	275.118	56	52
275.03	275.117	64	52
275.03	275.114	80	67
275.032	275.12	68	62
275.114	275.593	80	73
275.114	275.593	88	73
275.117	275.593	64	58
275.117	275.593	92	86
275.118	275.593	56	58
275.12	275.593	68	69
275.382	275.593	90	79
275.383	275.593	78	67
275.383	275.593	87	67
275.384	275.593	63	52
275.386	275.593	54	52
275.387	275.593	66	62
275.59	279.086	55	101
275.593	280.976	31	78
275.593	280.839	43	78
276.303	276.437	88	57
276.306	276.436	100	80
276.307	276.44	79	53
276.307	276.44	82	63
276.307	276.437	91	57
276.311	276.441	70	45
276.436	280.976	100	89
276.437	277.101	88	74
276.437	278.163	91	74
276.44	277.102	79	59
276.44	277.466	82	70
276.441	278.166	70	49
276.717	276.818	90	56
276.72	276.819	99	79
276.721	276.821	78	52
276.721	276.819	81	62
276.721	276.818	87	56
276.723	276.821	69	44
276.818	278.785	87	74
276.818	280.976	90	74
276.819	277.826	81	69
276.819	280.976	99	89
276.821	278.785	69	49
276.821	278.785	78	58
277.099	277.193	97	83
277.101	277.196	88	70
277.102	277.197	79	62
277.102	277.196	85	70
277.105	277.2	67	44
277.105	277.196	76	52
277.193	280.976	97	90
277.196	277.469	76	69
277.196	277.466	85	75
277.196	278.484	88	75
277.197	278.166	79	69
277.2	278.485	67	58
277.465	277.56	94	79
277.466	277.56	82	67
277.466	277.56	85	67
277.469	277.561	73	62
277.469	277.564	76	62
277.472	277.564	64	52
277.56	278.162	82	74
277.56	279.079	85	74
277.56	280.976	94	88
277.561	278.166	73	69
277.564	279.086	64	58
277.564	278.485	76	69
277.826	277.907	81	67
277.826	277.909	84	67
277.83	277.91	72	62
277.83	277.911	75	62
277.83	277.91	93	79
277.831	277.913	63	52
277.907	279.656	81	74
277.909	280.976	84	74
277.91	279.654	72	69
277.91	280.976	93	88
277.911	278.782	75	69
277.913	279.66	63	58
278.162	278.246	82	67
278.163	278.243	91	79
278.166	278.246	70	62
278.166	278.249	73	62
278.166	278.245	79	67
278.167	278.25	61	52
278.243	280.976	91	86
278.245	278.484	79	73
278.246	278.488	70	69
278.246	279.37	82	73
278.249	279.08	73	69
278.25	279.373	61	58
278.484	278.558	79	68
278.484	278.558	88	81
278.485	278.561	67	62
278.485	278.559	76	68
278.488	278.561	58	52
278.488	278.561	70	62
278.558	279.937	79	74
278.558	280.976	88	88
278.559	279.082	76	74
278.561	279.941	58	49
278.561	279.082	67	59
278.561	279.37	70	70
278.782	278.862	75	68
278.785	278.862	69	62
278.785	278.859	78	68
278.785	278.861	87	80
278.788	278.865	57	44
278.788	278.863	66	52
278.859	280.976	78	74
278.861	280.976	87	88
278.862	279.657	69	69
278.862	280.525	75	74
278.863	280.528	66	58
278.865	280.528	57	49
279.079	279.149	85	79
279.08	279.15	73	56
279.082	279.153	67	62
279.082	279.153	76	56
279.086	279.156	55	44
279.086	279.153	64	52
279.149	280.976	85	88
279.15	279.369	73	74
279.153	279.373	64	69
279.153	279.94	67	69
279.153	280.231	76	74
279.156	280.232	55	58
279.369	279.443	73	68
279.37	279.443	70	68
279.37	279.444	82	81
279.373	279.444	61	62
279.373	279.447	64	62
279.376	279.447	52	52
279.443	279.941	70	75
279.443	280.836	73	75
279.444	279.943	61	69
279.444	280.976	82	90
279.447	280.836	52	58
279.447	280.231	64	69
279.654	279.727	72	68
279.656	279.726	81	81
279.657	279.727	60	62
279.657	279.726	69	68
279.66	279.73	51	52
279.66	279.73	63	62
279.726	280.976	69	74
279.726	280.976	81	89
279.727	280.976	60	69
279.727	280.976	72	74
279.73	280.976	51	58
279.73	280.526	63	69
279.937	280.014	79	79
279.94	280.017	67	67
279.941	280.018	49	52
279.941	280.018	58	62
279.941	280.014	70	67
279.943	280.017	61	62
280.014	280.976	70	74
280.014	280.976	79	88
280.017	280.833	61	69
280.017	280.227	67	74
280.018	280.976	49	58
280.018	280.231	58	69
280.227	280.305	67	68
280.231	280.308	58	62
280.231	280.307	64	68
280.231	280.305	76	80
280.232	280.307	55	62
280.233	280.311	46	52
280.305	280.976	67	74
280.305	280.976	76	88
280.307	280.836	55	59
280.307	280.833	64	74
280.308	280.976	58	70
280.311	280.976	46	49
280.525	280.599	75	79
280.526	280.602	63	56
280.528	280.602	54	52
280.528	280.605	57	62
280.528	280.602	66	56
280.531	280.606	45	44
280.599	280.976	75	94
280.602	280.976	54	58
280.602	280.976	63	80
280.602	280.976	66	80
280.605	280.976	57	69
280.606	280.976	45	49
280.833	280.909	61	56
280.833	280.91	64	56
280.836	280.913	52	52
280.836	280.91	55	62
280.836	280.91	73	79
280.839	280.914	43	44
280.909	281.147	61	81
280.91	281.149	55	69
280.91	281.148	64	81
280.91	281.148	73	96
280.913	281.15	52	69
280.914	281.151	43	58
282.712	282.807	52	70
282.712	282.802	64	83
282.716	282.809	31	55
282.716	282.81	43	64
282.716	282.807	58	70
282.719	282.81	37	55
282.719	282.813	40	55
282.814	284.175	52	79
282.814	283.482	58	79
282.814	284.175	64	93
282.816	283.296	44	64
282.817	283.297	32	55
282.817	283.296	37	55
282.817	283.3	40	55
283.293	283.954	56	71
283.293	283.482	63	84
283.296	283.486	37	56
283.296	283.486	44	67
283.296	283.483	51	71
283.297	283.485	32	56
283.3	283.486	40	56
283.482	284.175	58	79
283.482	284.175	63	93
283.483	284.175	51	79
283.485	283.958	32	61
283.486	283.961	37	61
283.486	283.958	40	61
283.486	283.958	44	72
283.954	284.175	49	72
283.954	284.132	56	72
283.955	284.175	61	85
283.958	284.137	32	55
283.958	284.175	40	55
283.958	284.136	44	64
283.961	284.175	37	55
284.13	285.193	68	96
284.132	284.848	56	81
284.133	284.85	39	61
284.133	284.847	60	81
284.136	284.85	44	72
284.137	284.848	32	61
284.137	284.851	42	61
284.844	285.372	48	77
284.847	285.372	60	91
284.848	285.376	32	57
284.848	285.372	56	77
284.85	285.376	39	57
284.85	285.376	44	68
284.851	285.379	42	57
285.459	286.135	44	40
285.477	286.163	52	42
285.487	286.184	56	45
285.505	286.22	61	51
285.522	286.219	64	62
285.533	286.215	68	62
285.55	286.16	76	83
286.016	286.11	75	75
286.11	286.219	75	67
286.135	286.804	44	45
286.16	286.923	76	72
286.163	286.923	52	48
286.184	286.835	56	53
286.215	286.923	68	61
286.219	286.923	64	61
286.219	286.923	75	80
286.22	286.923	61	58
286.53	286.923	73	77
286.804	287.882	44	47
286.817	287.882	51	49
286.835	287.882	56	52
286.852	287.882	60	55
286.873	287.882	66	63
286.891	287.591	72	67
286.905	287.882	80	82
287.591	287.931	72	77
288.218	288.876	56	48
288.239	288.9	64	51
288.263	288.932	68	53
288.281	288.956	76	54
288.281	288.959	80	54
288.281	288.918	88	76
288.283	288.96	73	57
288.75	288.879	87	69
288.844	289.277	85	63
288.876	289.569	56	37
288.879	288.96	87	59
288.9	289.663	64	39
288.918	289.663	88	63
288.932	289.663	68	41
288.956	289.663	76	51
288.959	289.634	80	51
288.96	289.663	73	44
288.96	289.635	87	73
289.277	289.663	85	66
289.569	290.236	56	51
289.603	290.254	66	54
289.634	290.114	80	54
289.635	290.996	75	54
289.635	290.996	87	75
289.639	290.279	72	57
290.114	290.279	80	63
290.236	290.867	56	51
290.254	290.996	66	54
290.276	290.996	92	75
290.279	290.996	72	57
290.279	290.758	80	54
290.758	290.934	80	68
290.867	291.529	56	41
290.884	291.552	64	44
290.908	291.58	68	47
290.934	291.617	80	54
290.936	291.574	88	76
290.937	291.617	73	51
290.937	291.617	76	54
291.403	291.532	87	69
291.49	291.938	85	59
291.529	292.239	56	36
291.532	291.614	87	59
291.552	292.34	64	38
291.574	292.34	88	63
291.58	292.34	68	40
291.614	292.305	87	73
291.617	292.34	73	43
291.617	292.34	76	51
291.617	292.306	80	51
291.938	292.34	85	66
292.239	298.5	56	50
292.274	298.5	66	52
292.303	298.5	75	54
292.305	293.576	87	75
292.306	298.5	72	55
292.306	292.778	80	54
292.778	293.412	80	63
292.932	293.902	92	75
293.412	293.737	80	64
293.576	294.214	87	68
293.737	294.056	80	61
293.902	294.529	92	66
294.056	294.374	80	60
294.214	294.837	87	65
294.374	294.682	80	57
294.529	295.13	92	63
294.682	294.984	80	57
294.837	295.414	87	62
294.984	295.273	80	57
295.13	295.687	92	61
295.273	295.554	80	56
295.414	295.96	87	59
295.554	295.82	80	53
295.687	296.125	92	58
295.82	296.04	80	50
295.96	296.292	87	57
296.04	296.205	80	51
296.125	296.454	92	57
296.205	296.373	80	51
296.292	296.618	87	55
296.373	296.534	80	51
296.454	296.779	92	54
296.534	296.698	80	49
296.618	296.94	87	53
296.698	296.86	80	47
296.779	297.098	92	52
296.86	297.017	80	47
296.94	297.262	87	51
297.017	297.182	80	47
297.098	297.416	92	50
297.182	297.335	80	45
297.262	297.573	87	48
297.335	297.499	80	43
297.416	297.731	92	47
297.499	297.65	80	43
297.573	297.888	87	46
297.65	297.808	80	42
297.731	298.039	92	45
297.808	297.962	80	40
297.888	298.196	87	44
297.962	298.123	80	39
298.039	298.347	92	43
298.123	298.27	80	39
298.196	298.5	87	42
298.27	298.424	80	38
298.347	298.5	92	40
298.424	298.5	80	35
298.498	298.616	91	47
298.62	298.738	92	47
298.742	298.945	94	47
298.854	299.026	92	47
298.945	299.1	94	42
299.026	299.177	92	47
299.1	299.257	94	40
299.177	299.334	92	47
299.257	299.408	94	41
299.334	299.485	92	47
299.408	299.559	94	41
299.485	299.635	92	47
299.559	299.712	94	41
299.635	299.781	92	47
299.712	299.852	94	42
299.781	299.925	92	47
299.852	299.995	94	41
299.925	300.066	92	47
299.995	300.136	94	41
300.066	300.212	92	47
300.136	300.286	94	42
300.212	300.356	92	47
300.286	300.419	94	41
300.356	300.489	92	47
300.419	300.552	94	41
300.489	300.622	92	47
300.552	300.692	94	42
300.622	300.758	92	47
300.692	300.825	94	40
300.758	300.895	92	47
300.825	300.965	94	41
300.895	301.035	92	47
300.965	301.111	94	41
301.035	301.178	92	47
301.111	301.255	94	41
301.178	301.326	92	47
301.255	301.402	94	42
301.326	301.483	92	47
301.374	301.805	68	50
301.402	301.563	94	41
301.483	301.651	92	47
301.563	301.732	94	41
301.651	301.836	92	47
301.732	301.871	94	42
301.777	302.683	61	44
301.805	302.623	68	46
301.833	302.683	89	58
301.836	302.683	77	48
301.836	301.91	92	47
301.91	302.056	94	41
301.98	302.137	92	47
302.056	302.214	94	41
302.137	302.288	92	47
302.214	302.365	94	42
302.288	302.435	92	47
302.365	302.515	94	40
302.435	302.592	92	47
302.464	302.683	87	53
302.515	302.665	94	41
302.592	302.683	92	47
302.623	303.499	68	47
302.648	303.541	75	49
302.665	302.739	94	41
302.67	303.541	90	57
302.673	303.541	78	51
302.74	302.893	92	47
302.816	302.973	94	41
302.893	303.048	92	47
302.973	303.124	94	42
303.048	303.198	92	47
303.124	303.275	94	41
303.198	303.356	92	47
303.275	303.432	94	41
303.31	303.541	84	52
303.356	303.527	92	47
303.432	303.541	94	42
303.471	305.003	61	42
303.499	305.003	68	46
303.523	305.003	87	59
303.527	305.003	77	49
303.527	303.6	92	47
303.601	303.74	94	41
303.671	303.814	92	47
303.74	303.884	94	41
303.814	303.961	92	47
303.884	304.037	94	42
303.926	305.003	85	52
303.961	304.118	92	47
304.037	304.192	94	40
304.118	304.269	92	47
304.192	304.35	94	41
304.269	304.423	92	47
304.35	304.5	94	41
304.423	304.581	92	47
304.5	304.681	94	41
304.581	304.791	92	47
304.681	304.889	94	42
304.79	305.188	73	50
304.791	305.003	92	47
304.889	305.003	94	42
304.989	305.091	91	49
305.056	305.118	92	52
305.119	305.189	93	54
305.192	305.648	82	44
305.193	306.071	66	44
305.193	306.071	73	44
305.196	305.354	94	59
305.273	305.434	96	41
305.354	305.519	94	47
305.434	305.595	96	41
305.519	305.647	94	47
305.595	305.749	96	42
305.647	305.673	94	55
305.648	306.071	82	44
305.673	305.826	94	47
305.749	305.896	96	40
305.826	305.97	94	47
305.896	306.043	96	41
305.97	306.071	94	47
306.043	306.194	96	41
306.057	306.918	92	60
306.058	306.918	65	44
306.058	306.918	80	54
306.061	306.918	74	44
306.117	306.274	94	47
306.194	306.351	96	41
306.274	306.425	94	47
306.351	306.502	96	42
306.425	306.579	94	47
306.502	306.656	96	41
306.579	306.733	94	47
306.656	306.813	96	41
306.733	306.908	94	47
306.813	306.918	96	42
306.904	307.311	90	56
306.905	308.29	63	48
306.907	308.29	70	48
306.908	307.314	78	50
306.908	307.048	94	47
306.974	307.121	96	41
307.048	307.192	94	47
307.121	307.269	96	41
307.192	307.338	94	47
307.269	307.412	96	42
307.311	308.29	90	60
307.314	308.138	78	54
307.338	307.489	94	47
307.412	307.565	96	40
307.489	307.639	94	47
307.565	307.716	96	41
307.639	307.783	94	47
307.716	307.86	96	41
307.783	307.936	94	47
307.86	308.007	96	41
307.936	308.08	94	47
308.007	308.161	96	42
308.08	308.29	94	47
308.137	308.626	75	53
308.138	308.63	78	53
308.161	308.29	96	41
308.255	308.346	93	54
308.35	308.441	94	56
308.441	308.538	95	58
308.539	308.63	96	60
308.631	309.071	82	61
308.631	309.074	85	61
308.633	308.784	97	61
308.7	308.864	99	41
308.784	308.942	97	47
308.864	309.022	99	41
308.942	309.071	97	47
309.022	309.175	99	42
309.071	309.518	82	53
309.071	309.103	97	60
309.074	309.518	85	53
309.103	309.261	97	47
309.175	309.34	99	40
309.261	309.418	97	47
309.34	309.497	99	41
309.418	309.518	97	47
309.497	309.575	99	41
309.505	310.442	96	64
309.508	310.433	80	60
309.509	310.442	84	60
309.575	309.735	97	47
309.655	309.81	99	41
309.735	309.893	97	47
309.81	309.967	99	42
309.893	310.047	97	47
309.967	310.132	99	41
310.047	310.22	97	47
310.132	310.31	99	41
310.169	310.442	94	55
310.17	310.442	78	48
310.17	310.442	82	57
310.22	310.433	97	47
310.31	310.442	99	42
310.428	311.832	92	65
310.429	310.873	77	56
310.433	310.874	80	65
310.433	310.583	97	47
310.509	310.663	99	41
310.583	310.748	97	47
310.663	310.828	99	41
310.748	310.908	97	47
310.828	310.989	99	42
310.873	311.832	68	56
310.873	311.777	77	56
310.874	311.832	80	56
310.908	311.065	97	47
310.989	311.147	99	40
311.065	311.227	97	47
311.147	311.311	99	41
311.227	311.391	97	47
311.311	311.472	99	41
311.391	311.552	97	47
311.472	311.64	99	41
311.552	311.721	97	47
311.64	311.791	99	42
311.721	311.832	97	47
311.777	312.014	77	50
311.777	311.878	96	45
311.779	312.017	81	50
311.791	311.836	99	41
311.878	311.976	97	48
311.976	312.073	98	51
312.018	313.719	68	45
312.038	313.551	72	49
312.056	313.208	78	53
312.074	313.736	101	54
312.077	313.033	82	58
312.161	313.736	99	48
312.249	313.736	97	47
312.336	313.736	96	46
312.417	313.736	94	45
312.511	313.736	92	45
312.592	313.736	90	44
312.683	313.736	89	43
312.77	313.736	87	42
312.858	313.736	85	42
312.945	313.736	84	41
313.033	313.736	82	40
313.121	313.736	80	39
313.208	313.736	78	39
313.296	313.736	77	38
313.376	313.736	75	37
313.464	313.736	73	36
313.551	313.736	72	36
313.634	313.736	70	35
313.719	313.806	68	34
313.807	315.263	66	33
313.894	315.263	65	33
313.978	315.263	63	32
314.061	315.263	61	31
314.149	315.263	60	30
314.233	315.263	58	34
314.318	315.263	56	35
314.405	315.263	54	35
314.485	315.263	53	35
314.566	315.263	51	35
314.654	315.263	49	35
314.741	315.263	48	35
314.821	315.263	46	35
314.902	315.263	44	35
314.99	315.263	42	35
315.071	315.263	41	35
315.154	315.263	39	35
315.256	316.98	37	35
315.35	316.98	41	35
315.449	316.98	44	36
315.542	316.98	49	37
315.641	316.98	53	38
315.745	316.98	56	39
315.843	316.98	61	39
315.942	316.98	65	40
316.047	316.98	68	42
316.151	316.98	73	44
316.257	316.98	77	46
316.362	316.98	80	48
316.459	316.98	85	48
316.508	316.98	89	50
316.564	316.98	92	52
316.613	316.98	97	54
318.268	318.419	68	50
318.419	319.07	77	58
318.42	319.07	49	41
318.738	319.07	65	40
318.741	319.07	56	34
318.741	319.07	68	40
318.742	319.07	61	34
318.885	319.07	75	53
319.049	319.648	78	57
319.05	319.648	44	42
319.336	319.648	66	40
319.336	319.648	68	40
319.34	319.648	56	34
319.34	319.648	63	34
319.486	319.648	72	52
319.571	319.648	75	59
319.644	319.718	73	59
319.648	319.721	49	44
319.956	320.569	65	40
319.959	320.569	68	40
319.96	320.572	56	34
319.96	320.571	73	52
319.963	320.572	61	34
320.253	320.886	49	45
320.569	320.886	65	40
320.569	320.886	68	40
320.571	320.886	73	50
320.572	320.886	56	34
320.572	320.886	61	34
320.883	320.953	82	59
320.884	320.957	54	47
321.187	321.559	70	40
321.188	321.559	82	55
321.191	321.559	61	34
321.191	321.559	66	40
321.495	322.151	80	60
321.499	321.576	53	47
321.821	322.151	70	40
321.822	322.151	65	34
321.822	322.151	68	40
321.824	322.151	62	34
322.147	322.22	78	56
322.151	322.297	51	43
322.447	323.099	70	40
322.451	323.099	66	40
322.452	323.103	58	34
322.452	323.103	63	34
322.452	323.102	78	60
322.773	323.55	51	46
323.099	323.55	66	40
323.099	323.55	70	40
323.102	323.55	78	53
323.103	323.55	58	34
323.103	323.55	63	34
323.473	323.641	85	61
323.474	324.299	42	50
323.816	324.299	85	60
323.817	324.299	73	40
323.82	324.299	82	60
323.821	324.199	61	33
323.823	324.299	70	40
324.195	325.008	80	64
324.198	325.01	72	40
324.198	325.01	84	64
324.199	325.01	61	33
324.199	325.01	68	40
324.769	325.01	70	40
324.769	324.908	82	55
324.772	325.01	66	40
324.772	324.908	78	55
324.908	325.01	78	52
324.908	325.01	82	52
325.007	325.09	77	65
325.008	325.091	80	65
325.01	325.178	44	50
325.349	326.144	80	56
325.353	326.095	65	40
325.353	326.147	68	56
325.353	326.147	77	56
325.356	326.095	61	40
325.723	326.095	56	40
326.378	326.49	81	50
326.379	326.49	77	50
326.382	326.491	65	46
326.382	326.491	69	46
326.494	326.582	78	56
326.494	326.582	82	56
326.495	326.583	66	50
326.497	326.585	70	50
326.847	327.498	82	56
326.851	327.502	66	50
326.851	327.498	78	56
326.852	327.502	70	50
327.503	327.859	66	40
327.505	327.86	63	47
327.505	327.859	72	51
327.506	327.862	56	37
327.862	327.95	73	54
327.863	327.953	65	43
327.866	327.954	61	51
328.23	328.985	73	56
328.234	328.989	49	42
328.234	328.986	61	53
328.234	328.986	65	44
328.235	328.99	56	42
329.129	329.277	68	42
329.129	329.276	80	55
329.277	329.92	77	49
329.279	329.92	89	63
329.28	329.92	37	37
329.28	329.92	49	47
329.587	329.92	61	34
329.591	329.92	65	34
329.592	329.92	68	34
329.735	329.92	87	58
329.738	329.92	75	45
329.9	330.502	78	48
329.9	330.502	90	62
329.901	330.502	56	47
329.902	330.502	44	37
330.187	330.502	63	34
330.187	330.502	66	34
330.19	330.502	68	34
330.338	330.502	72	44
330.34	330.502	84	57
330.498	330.572	49	45
330.498	330.571	75	50
330.498	330.567	87	64
330.499	330.572	37	36
330.806	331.425	73	44
330.81	331.429	61	34
330.81	331.429	65	34
330.81	331.426	85	57
330.813	331.429	68	34
331.111	331.737	44	36
331.111	331.737	56	46
331.425	331.737	73	42
331.426	331.737	85	55
331.429	331.737	61	34
331.429	331.737	65	34
331.429	331.737	68	34
331.733	331.803	82	55
331.734	331.807	94	64
331.737	331.811	42	34
331.737	331.807	54	43
332.038	332.374	82	50
332.038	332.374	94	60
332.041	332.374	61	34
332.041	332.374	66	34
332.041	332.374	70	34
332.346	333.004	80	51
332.346	333.004	92	66
332.349	332.427	41	35
332.349	332.427	53	44
332.671	333.004	58	34
332.671	333.004	68	34
332.672	333.004	62	34
332.997	333.071	78	47
333.0	333.071	90	61
333.001	333.148	39	40
333.001	333.148	51	50
333.305	333.953	90	66
333.306	333.952	78	51
333.306	334.4	82	60
333.308	333.956	63	34
333.308	333.953	66	34
333.627	334.4	58	47
333.63	334.4	46	37
333.95	334.4	87	45
333.952	334.4	78	45
333.953	334.4	66	34
333.953	334.4	90	58
333.956	334.4	63	34
334.323	334.675	97	67
334.324	334.677	85	61
334.324	334.674	94	61
334.327	335.107	42	38
334.327	335.107	54	48
334.674	335.107	94	60
334.675	335.107	97	66
334.677	335.052	61	34
334.677	335.107	73	40
334.677	335.107	85	40
334.678	335.107	70	34
335.045	335.86	84	40
335.048	335.86	72	40
335.048	335.857	92	64
335.048	335.86	96	70
335.052	335.86	61	34
335.052	335.86	68	34
335.619	335.86	94	60
335.622	335.86	82	40
335.622	335.86	90	55
335.623	335.86	66	34
335.623	335.86	70	40
335.854	335.944	89	65
335.856	335.944	80	55
335.857	335.947	44	55
335.857	335.947	92	71
336.217	337.011	92	61
336.22	337.014	89	56
336.221	336.959	65	40
336.221	337.015	80	47
336.224	336.959	61	40
336.224	336.959	68	40
336.588	336.959	56	40
337.246	337.361	81	42
337.246	337.362	93	55
337.247	337.362	65	46
337.249	337.364	77	46
337.365	337.466	82	47
337.365	337.467	94	61
337.368	337.467	66	50
337.369	337.47	78	50
338.208	338.895	66	40
338.208	338.895	72	51
338.209	338.896	60	40
338.212	338.898	44	37
338.212	338.898	56	47
338.215	338.899	51	37
338.902	338.989	61	43
338.902	338.985	65	43
338.903	338.989	49	45
338.903	338.989	73	54
338.905	338.993	56	51
339.252	340.626	65	44
339.255	340.626	61	44
339.255	340.626	73	56
339.259	340.626	49	42
339.259	340.626	56	53
340.172	340.626	85	40
340.172	340.626	89	40
340.319	340.626	87	45
340.319	340.61	90	45
340.463	340.626	88	51
340.466	340.626	91	51
340.61	341.151	90	57
340.61	341.151	94	57
340.736	340.876	89	47
340.736	340.876	92	47
340.876	341.691	61	38
340.876	341.281	89	47
340.876	341.284	92	47
341.009	341.541	91	47
341.012	341.544	88	47
341.013	341.284	77	34
341.151	341.687	90	53
341.151	341.688	94	53
341.155	341.688	68	39
341.281	341.414	89	46
341.284	341.544	77	36
341.284	341.411	92	46
341.411	341.691	92	47
341.414	341.691	89	47
341.415	341.691	73	40
341.541	341.691	91	49
341.544	341.691	77	37
341.544	341.691	88	49
341.687	342.202	90	58
341.688	342.206	68	42
341.688	342.202	94	58
341.81	341.935	92	50
341.811	341.94	89	50
341.814	342.069	77	38
341.935	342.322	92	50
341.94	342.713	61	44
341.94	342.321	89	50
342.065	342.57	91	50
342.069	342.324	77	40
342.069	342.572	88	50
342.202	342.709	90	60
342.202	342.71	94	60
342.206	342.71	68	46
342.321	342.447	89	53
342.322	342.447	92	53
342.324	342.573	77	42
342.447	342.713	89	54
342.447	342.713	92	54
342.451	342.713	73	47
342.57	342.713	91	56
342.572	342.713	88	56
342.573	342.713	77	45
342.709	343.207	90	65
342.71	343.207	68	48
342.71	343.207	94	65
342.825	342.947	92	57
342.826	342.948	89	57
342.829	343.078	77	42
342.947	343.332	92	57
342.948	343.722	61	50
342.948	343.33	89	57
343.077	343.585	88	57
343.078	343.332	77	46
343.078	343.588	91	57
343.207	343.721	68	52
343.207	343.717	90	66
343.207	343.721	94	66
343.33	343.455	89	60
343.332	343.589	77	46
343.332	343.459	92	60
343.455	343.722	89	60
343.459	343.722	73	53
343.459	343.722	92	60
343.585	343.722	88	60
343.588	343.722	91	60
343.589	343.722	77	48
343.717	344.227	90	74
343.721	344.227	68	52
343.721	344.227	94	74
343.847	343.968	92	68
343.851	344.227	77	46
343.851	343.966	89	68
343.966	344.224	89	57
343.968	344.227	92	71
343.969	344.227	61	50
344.093	344.222	101	75
344.222	344.711	101	82
344.224	344.711	69	46
344.224	344.456	89	60
344.34	344.459	100	79
344.456	344.7	89	57
344.459	344.711	72	42
344.459	344.711	77	42
344.459	344.711	100	82
344.578	344.696	99	75
344.696	345.691	99	81
344.7	344.938	89	60
344.701	345.691	70	46
344.822	344.935	98	77
344.935	345.691	98	81
344.938	345.18	89	57
344.939	345.667	82	42
344.941	345.418	77	35
345.057	345.18	97	75
345.18	345.411	89	57
345.18	345.599	97	78
345.182	345.691	65	46
345.298	345.414	96	69
345.411	345.666	89	55
345.414	345.691	87	41
345.414	345.663	96	77
345.418	345.691	77	34
345.418	345.691	81	34
345.537	345.691	95	69
345.599	345.691	97	58
345.663	345.838	96	72
345.666	346.149	85	47
345.666	345.901	89	72
345.667	346.149	82	39
345.782	345.904	94	68
345.838	346.146	96	57
345.901	346.147	89	70
345.904	346.269	94	70
345.905	346.388	77	34
345.905	346.387	84	34
345.905	346.387	87	41
346.02	346.509	93	68
346.079	346.569	97	58
346.146	346.325	96	68
346.147	346.384	89	68
346.149	346.636	82	37
346.149	346.635	85	45
346.269	346.385	94	68
346.325	346.633	96	57
346.384	346.635	89	66
346.385	346.642	94	66
346.387	346.642	84	32
346.387	346.642	87	39
346.388	346.642	77	32
346.509	346.642	93	59
346.569	346.642	97	53
346.633	346.811	96	66
346.635	347.129	85	43
346.635	346.874	89	66
346.636	347.13	82	35
346.756	346.873	94	62
346.811	347.126	96	52
346.873	347.245	94	64
346.874	347.367	87	37
346.874	347.129	89	64
346.875	347.368	77	31
346.875	347.368	84	31
346.996	347.49	93	63
347.056	347.654	97	52
347.126	347.301	96	62
347.129	347.615	85	41
347.129	347.365	89	62
347.13	347.615	82	34
347.245	347.367	94	62
347.301	347.654	96	51
347.365	347.613	89	61
347.367	347.654	87	36
347.367	347.616	94	61
347.368	347.654	77	30
347.368	347.654	84	30
347.49	347.654	93	54
347.613	349.372	89	62
347.615	349.372	82	35
347.615	349.372	85	43
347.616	347.675	94	47
347.675	347.808	96	41
347.742	347.874	94	47
347.808	347.937	96	41
347.874	348.001	94	47
347.937	348.063	96	41
348.001	348.123	94	47
348.063	348.186	96	41
348.123	348.252	94	47
348.186	348.316	96	41
348.252	348.371	94	47
348.316	348.435	96	41
348.371	348.497	94	47
348.435	348.557	96	41
348.497	348.624	94	47
348.557	348.683	96	41
348.624	348.742	94	47
348.683	348.802	96	41
348.742	348.865	94	47
348.802	348.925	96	41
348.865	348.988	94	47
348.925	349.046	96	41
348.988	349.11	94	47
349.046	349.169	96	41
349.11	349.232	94	47
349.169	349.289	96	41
349.232	349.372	94	47
349.289	349.372	96	41
349.348	349.411	93	48
349.412	349.488	94	49
349.474	349.558	95	51
349.54	349.621	96	52
349.572	350.07	70	44
349.611	350.098	85	44
349.611	349.73	97	54
349.667	349.796	99	47
349.73	349.855	97	54
349.796	349.919	99	48
349.855	349.982	97	52
349.919	350.037	99	47
349.982	350.1	97	54
350.037	350.16	99	47
350.07	350.608	70	49
350.098	350.608	85	49
350.1	350.223	97	51
350.16	350.283	99	47
350.223	350.349	97	54
350.283	350.401	99	48
350.349	350.469	97	52
350.401	350.531	99	47
350.469	350.594	97	51
350.531	350.608	99	48
350.564	351.629	68	48
350.591	351.629	96	56
350.592	351.629	84	50
350.594	350.716	97	54
350.654	350.776	99	46
350.716	350.839	97	52
350.776	350.902	99	46
350.839	350.968	97	52
350.902	351.031	99	44
350.968	351.094	97	52
351.031	351.161	99	46
351.094	351.224	97	52
351.161	351.294	99	44
351.224	351.361	97	51
351.294	351.421	99	44
351.322	351.629	66	51
351.358	351.629	94	55
351.36	351.629	82	51
351.361	351.476	97	50
351.421	351.543	99	46
351.476	351.609	97	51
351.543	351.629	99	46
351.578	352.642	65	58
351.606	352.116	92	61
351.607	352.121	80	58
351.609	351.731	97	52
351.673	351.798	99	44
351.731	351.865	97	51
351.798	351.924	99	43
351.865	351.99	97	50
351.924	352.053	99	43
351.99	352.121	97	50
352.053	352.183	99	43
352.116	352.642	92	56
352.117	353.425	68	52
352.12	353.423	77	52
352.121	353.425	80	52
352.121	352.246	97	49
352.183	352.315	99	43
352.246	352.375	97	50
352.315	352.442	99	43
352.375	352.512	97	50
352.442	352.574	99	44
352.512	352.638	97	49
352.574	352.652	99	42
352.638	352.767	97	50
352.705	352.831	99	46
352.767	352.9	97	50
352.831	352.96	99	44
352.9	353.026	97	47
352.96	353.089	99	41
353.026	353.156	97	47
353.089	353.244	99	41
353.156	353.331	97	47
353.244	353.425	99	41
353.331	353.425	97	49
353.422	353.705	81	47
353.423	353.709	77	39
353.423	353.51	96	53
353.51	353.604	97	58
353.604	353.71	98	62
353.712	355.361	101	50
353.713	355.361	68	46
353.713	355.336	72	46
353.713	355.06	82	55
353.716	355.334	78	46
353.779	355.361	100	50
353.853	355.361	99	50
353.923	355.361	98	49
353.999	355.361	97	49
354.069	355.361	96	49
354.143	355.361	95	49
354.213	355.361	94	48
354.284	355.361	93	48
354.357	355.361	92	48
354.427	355.361	91	47
354.497	355.361	90	47
354.567	355.361	89	47
354.636	355.361	88	46
354.706	355.361	87	46
354.784	355.361	86	46
354.854	355.361	85	46
354.923	355.361	84	45
354.99	355.361	83	45
355.06	355.361	82	45
355.13	355.361	81	44
355.2	355.361	80	44
355.257	356.86	56	39
355.271	355.361	79	44
355.287	356.373	63	41
355.308	356.163	66	44
355.334	356.95	78	41
355.336	355.753	72	46
355.403	356.95	77	41
355.473	356.95	76	40
355.543	356.95	75	40
355.614	356.95	74	39
355.683	356.95	73	39
355.753	356.95	72	38
355.816	356.95	71	37
355.894	356.95	70	37
355.953	356.95	69	36
356.023	356.95	68	36
356.093	356.95	67	35
356.163	356.95	66	35
356.233	356.95	65	34
356.296	356.95	64	33
356.373	356.95	63	33
356.436	356.95	62	32
356.506	356.95	61	32
356.576	356.95	60	31
356.653	356.95	59	31
356.724	356.95	58	30
356.789	356.95	57	30
356.86	356.95	56	29
356.869	358.525	37	33
356.894	358.525	44	36
356.923	358.525	49	39
357.02	358.525	53	39
357.129	358.525	56	40
357.227	358.525	61	37
357.322	358.525	65	39
357.412	358.525	68	41
357.511	358.525	73	43
357.598	358.525	77	44
357.69	358.525	80	46
357.783	358.525	85	48
357.875	358.525	89	49
357.969	358.525	92	51
358.067	358.525	97	53
359.434	359.907	77	36
359.439	359.907	73	36
359.59	359.907	75	40
359.592	359.881	78	40
359.736	359.907	76	45
359.736	359.907	79	45
359.88	360.422	82	51
359.881	360.423	78	51
360.009	360.146	77	42
360.009	360.145	80	42
360.145	360.555	80	42
360.146	360.968	49	34
360.146	360.556	77	42
360.287	360.822	76	42
360.287	360.821	79	42
360.289	360.556	65	30
360.422	360.958	82	47
360.423	360.958	78	47
360.426	360.959	56	35
360.555	360.685	80	41
360.556	360.822	65	32
360.556	360.685	77	41
360.685	360.968	77	42
360.685	360.968	80	42
360.688	360.968	61	36
360.821	360.968	79	44
360.822	360.968	65	33
360.822	360.968	76	44
360.958	361.483	78	52
360.958	361.482	82	52
360.959	361.483	56	37
361.083	361.213	80	45
361.084	361.346	65	34
361.084	361.214	77	45
361.213	361.598	80	45
361.214	361.983	49	39
361.214	361.602	77	45
361.343	361.847	79	45
361.346	361.602	65	36
361.346	361.85	76	45
361.482	361.98	82	54
361.483	361.98	56	41
361.483	361.98	78	54
361.598	361.728	80	47
361.602	361.851	65	37
361.602	361.724	77	47
361.724	361.983	77	48
361.728	361.983	61	42
361.728	361.983	80	48
361.847	361.983	79	50
361.85	361.983	76	50
361.851	361.983	65	40
361.98	362.488	56	43
361.98	362.488	78	58
361.98	362.487	82	58
362.098	362.221	80	51
362.099	362.354	65	37
362.099	362.225	77	51
362.221	362.603	80	51
362.225	362.604	77	51
362.226	363.002	49	45
362.351	362.858	79	51
362.354	362.606	65	41
362.354	362.859	76	51
362.487	362.995	82	59
362.488	362.997	56	46
362.488	362.995	78	59
362.603	362.732	80	54
362.604	362.728	77	54
362.606	362.862	65	41
362.728	363.002	77	54
362.732	363.002	80	54
362.733	363.002	61	47
362.858	363.002	79	54
362.859	363.002	76	54
362.862	363.002	65	43
362.995	363.499	78	66
362.995	363.499	82	66
362.997	363.499	56	46
363.125	363.241	77	61
363.127	363.499	65	41
363.127	363.24	80	61
363.24	363.499	80	63
363.241	363.496	77	51
363.243	363.499	49	45
363.37	363.495	89	67
363.495	363.981	89	73
363.496	363.734	77	54
363.499	363.981	57	41
363.618	363.734	88	71
363.734	363.978	77	51
363.734	363.981	88	73
363.736	363.981	60	37
363.737	363.981	65	37
363.852	363.978	87	67
363.978	364.21	77	54
363.978	364.961	87	72
363.979	364.961	58	41
364.094	364.209	86	69
364.209	364.961	86	72
364.21	364.455	77	51
364.213	364.696	65	31
364.213	364.941	70	37
364.333	364.454	85	67
364.454	364.871	85	70
364.455	364.961	53	41
364.455	364.693	77	51
364.577	364.693	84	62
364.693	364.937	77	49
364.693	364.937	84	69
364.694	364.961	75	36
364.695	364.961	69	30
364.696	364.961	65	30
364.811	364.961	83	62
364.871	364.961	85	52
364.937	365.176	77	64
364.937	365.116	84	64
364.938	365.422	73	42
364.941	365.423	70	35
365.06	365.175	82	61
365.116	365.421	84	51
365.175	365.54	82	63
365.176	365.665	75	36
365.176	365.421	77	63
365.179	365.666	65	30
365.179	365.666	72	30
365.298	365.782	81	61
365.36	365.84	85	52
365.421	365.663	77	61
365.421	365.599	84	61
365.422	365.914	73	40
365.423	365.914	70	33
365.54	365.662	82	61
365.599	365.911	84	51
365.662	365.916	82	59
365.663	365.914	77	59
365.665	365.916	75	35
365.666	365.916	65	28
365.666	365.916	72	28
365.782	365.916	81	53
365.84	365.916	85	47
365.911	366.09	84	59
365.914	366.401	70	31
365.914	366.401	73	38
365.914	366.152	77	59
366.029	366.152	82	55
366.09	366.397	84	46
366.152	366.401	77	57
366.152	366.523	82	57
366.153	366.639	72	27
366.153	366.639	75	33
366.155	366.642	65	27
366.278	366.761	81	56
366.334	366.932	85	46
366.397	366.579	84	55
366.401	366.89	70	30
366.401	366.89	73	36
366.401	366.639	77	55
366.523	366.635	82	55
366.579	366.932	84	45
366.635	366.89	82	54
366.639	366.932	72	27
366.639	366.932	75	32
366.639	366.887	77	54
366.642	366.932	65	27
366.761	366.932	81	48
366.887	367.895	77	55
366.89	367.895	70	31
366.89	367.895	73	38
366.89	366.954	82	36
366.957	367.083	84	32
367.02	367.146	82	36
367.083	367.216	84	32
367.146	367.272	82	36
367.216	367.338	84	32
367.272	367.401	82	36
367.338	367.464	84	32
367.401	367.527	82	36
367.464	367.586	84	32
367.527	367.649	82	36
367.586	367.716	84	32
367.649	367.772	82	36
367.716	367.835	84	32
367.772	367.895	82	36
367.835	367.905	84	32
367.894	369.365	81	42
367.983	369.365	82	43
368.064	369.365	83	44
368.143	369.365	84	45
368.228	369.365	85	46
368.308	369.365	86	47
368.389	369.365	87	48
368.476	369.365	88	49
368.557	369.365	89	50
368.641	369.365	90	51
368.721	369.365	91	52
368.794	369.365	92	53
368.879	369.365	93	54
368.958	369.365	94	55
369.04	369.365	95	56
369.12	369.365	96	57
369.197	369.361	97	58
369.235	369.365	54	56
369.278	369.365	99	59
369.361	369.4	97	63
369.362	369.939	70	56
369.362	369.942	73	56
369.4	369.551	99	45
369.435	369.516	97	45
369.473	372.532	96	45
369.516	369.603	97	45
369.551	372.532	99	51
369.603	369.746	97	46
369.649	369.795	94	46
369.695	369.841	92	46
369.746	372.532	97	51
369.795	369.939	94	46
369.841	370.017	92	46
369.894	370.089	90	46
369.939	372.123	70	54
369.939	372.532	94	51
369.942	371.871	73	54
370.017	370.24	92	46
370.089	370.325	90	46
370.167	370.39	87	46
370.24	372.532	92	51
370.325	370.552	90	45
370.39	370.618	87	45
370.475	370.695	85	45
370.552	372.385	68	53
370.552	372.532	90	51
370.553	372.532	72	53
370.618	370.839	87	45
370.695	370.909	85	45
370.765	370.983	82	45
370.839	372.532	87	51
370.909	371.133	85	45
370.983	371.206	82	45
371.055	371.273	80	45
371.133	372.532	85	51
371.206	371.426	82	47
371.273	371.49	80	47
371.349	371.553	78	47
371.426	372.532	82	51
371.49	371.682	80	46
371.553	371.745	78	46
371.619	371.808	75	46
371.682	372.532	80	51
371.745	371.935	78	45
371.808	372.0	75	45
371.871	372.063	73	45
371.935	372.532	78	51
372.0	372.186	75	45
372.063	372.25	73	45
372.123	372.312	70	45
372.186	372.532	75	51
372.25	372.532	73	47
372.312	372.532	70	47
372.385	372.539	68	47
372.739	372.822	70	63
372.743	372.823	58	54
372.746	372.827	42	45
372.746	372.827	54	54
372.746	372.826	61	54
372.829	372.945	68	71
372.83	372.945	56	60
372.83	372.949	61	60
372.833	372.878	53	63
372.834	372.883	44	53
373.306	373.415	92	51
373.362	373.8	94	46
373.415	373.527	92	45
373.474	377.87	91	45
373.527	374.09	92	45
373.58	377.87	56	45
373.58	377.87	101	51
373.582	377.143	65	45
373.582	376.886	68	45
373.656	373.876	99	47
373.73	373.946	97	47
373.8	374.02	94	47
373.876	377.87	99	51
373.946	374.167	97	46
374.02	374.237	94	46
374.09	374.307	92	46
374.167	377.87	97	51
374.237	374.451	94	46
374.307	374.52	92	46
374.381	374.594	89	46
374.451	377.87	94	51
374.52	374.738	92	46
374.594	374.804	89	46
374.664	374.881	87	46
374.738	377.87	92	51
374.804	375.018	89	45
374.881	375.088	87	45
374.951	375.158	85	45
375.018	377.87	89	51
375.088	375.297	87	45
375.158	375.364	85	45
375.227	375.434	82	45
375.297	377.87	87	51
375.364	375.581	85	45
375.434	375.651	82	45
375.512	375.721	80	45
375.581	377.87	85	51
375.651	375.861	82	47
375.721	375.931	80	47
375.791	376.005	77	47
375.861	377.87	82	51
375.931	376.145	80	44
376.005	376.214	77	44
376.07	376.284	75	44
376.145	377.87	80	47
376.214	376.425	77	40
376.284	376.494	75	40
376.355	376.564	73	40
376.425	377.87	77	43
376.494	376.701	75	37
376.564	376.764	73	37
376.635	376.83	70	37
376.701	377.87	75	43
376.764	376.953	73	35
376.83	377.016	70	35
376.886	377.079	68	35
376.953	377.87	73	42
377.016	377.208	70	36
377.079	377.272	68	36
377.143	377.338	65	36
377.208	377.87	70	42
377.272	377.471	68	37
377.338	377.537	65	37
377.405	377.601	63	37
377.471	377.87	68	42
377.537	377.87	65	38
377.601	377.87	63	38
377.678	377.87	61	38
378.108	378.181	81	75
378.109	378.185	53	54
378.109	378.185	65	64
378.109	378.185	69	64
378.186	378.373	82	85
378.188	378.374	70	72
378.189	378.276	54	63
378.189	378.275	66	75
378.937	379.689	54	72
378.938	379.693	48	63
378.938	379.69	60	85
378.939	379.694	32	63
378.94	379.694	39	63
378.941	379.697	44	75
381.943	382.024	37	37
382.105	382.193	44	37
382.287	382.633	56	40
382.288	382.634	49	34
382.637	382.714	37	38
382.797	382.888	44	38
382.976	383.323	56	40
382.977	383.326	49	34
383.327	383.407	37	37
383.495	383.582	44	37
383.673	384.188	65	39
383.673	384.187	68	46
383.674	384.023	56	40
383.676	384.023	49	34
384.024	384.106	37	38
384.19	384.275	66	41
384.194	384.278	63	34
384.195	384.279	44	38
384.359	384.436	61	34
384.359	384.433	65	41
384.36	384.677	49	34
384.36	384.677	56	40
384.495	384.59	66	41
384.496	384.591	63	34
384.681	384.758	65	40
384.681	384.758	68	48
384.682	384.758	37	37
384.838	384.926	44	37
384.927	385.013	70	41
384.929	385.013	66	34
385.017	385.532	65	39
385.017	385.531	68	46
385.02	385.371	49	34
385.02	385.367	56	40
385.371	385.451	37	38
385.532	385.619	66	41
385.535	385.62	63	34
385.536	385.62	44	38
385.703	385.772	65	41
385.707	386.018	56	40
385.707	385.777	61	34
385.708	386.018	49	34
385.842	385.93	66	41
385.846	385.93	63	34
386.018	386.098	68	48
386.022	386.102	37	37
386.022	386.102	65	40
386.179	386.266	44	37
386.27	386.354	70	41
386.271	386.354	66	34
386.358	386.53	65	39
386.358	386.529	68	46
386.361	386.704	49	34
386.361	386.703	56	40
386.704	386.784	37	38
386.865	386.959	44	38
387.047	387.401	49	34
387.047	387.4	56	40
387.401	387.474	37	37
387.554	387.649	45	37
387.743	388.251	76	50
387.744	388.254	64	42
387.744	388.251	73	47
387.746	388.093	57	40
387.747	388.094	49	34
388.094	388.17	37	38
388.258	388.342	71	42
388.258	388.338	74	44
388.259	388.342	45	38
388.422	388.489	73	44
388.423	388.74	57	40
388.423	388.492	69	42
388.425	388.741	49	34
388.559	388.654	74	44
388.562	388.654	71	42
388.745	388.825	37	37
388.745	388.822	73	49
388.745	388.821	76	52
388.905	388.99	45	37
388.99	389.08	78	45
388.993	389.084	74	43
389.087	389.595	76	51
389.088	389.43	57	40
389.088	389.595	64	43
389.088	389.595	73	48
389.091	389.435	49	34
389.435	389.511	37	38
389.599	389.683	71	42
389.599	389.682	74	44
389.6	389.683	45	38
389.763	389.833	73	44
389.764	390.064	57	40
389.764	389.833	69	42
389.766	390.065	49	34
389.903	389.984	71	40
389.903	389.983	74	42
390.065	390.144	76	50
390.067	390.148	73	47
390.068	390.149	37	37
390.225	390.312	45	37
390.316	390.408	74	42
390.316	390.407	78	44
390.408	390.579	76	49
390.41	390.582	73	46
390.411	390.753	57	40
390.411	390.582	64	41
390.414	390.753	49	34
390.757	390.837	37	38
390.918	391.005	45	38
391.093	391.439	57	40
391.094	391.439	49	34
391.443	391.527	37	37
391.607	391.695	49	37
391.789	392.3	81	58
391.79	392.301	69	49
391.79	392.301	78	54
391.793	392.136	54	34
391.793	392.136	62	40
392.137	392.217	37	38
392.301	392.381	80	48
392.303	392.382	76	45
392.304	392.382	49	38
392.468	392.539	74	45
392.468	392.539	78	48
392.469	392.78	54	34
392.469	392.78	62	40
392.608	392.692	80	49
392.609	392.696	76	46
392.783	392.864	78	57
392.783	392.861	81	61
392.787	392.864	37	37
392.945	393.035	49	37
393.036	393.123	83	52
393.039	393.126	80	49
393.126	393.634	78	56
393.127	393.635	69	50
393.127	393.635	81	59
393.13	393.473	54	34
393.13	393.473	62	40
393.474	393.553	37	38
393.637	393.721	80	48
393.638	393.722	76	45
393.641	393.725	49	38
393.802	393.872	74	45
393.802	393.871	78	48
393.806	394.124	54	34
393.806	394.121	62	40
393.941	394.033	80	48
393.942	394.036	76	45
394.124	394.205	81	57
394.128	394.205	37	37
394.128	394.205	78	48
394.285	394.372	49	37
394.373	394.453	80	41
394.373	394.453	83	49
394.457	394.53	78	48
394.457	394.527	81	57
394.458	394.761	54	34
394.458	394.761	62	40
394.684	394.762	81	51
394.685	394.765	78	43
394.765	394.835	83	57
394.766	394.838	65	45
394.766	394.838	80	48
394.918	394.999	71	41
395.0	395.076	78	43
395.0	395.072	81	51
395.076	395.157	83	57
395.08	395.394	74	47
395.08	395.157	80	48
395.31	395.394	85	53
395.314	395.395	77	45
395.395	395.475	86	58
395.398	395.475	78	49
395.399	395.479	61	45
395.555	395.643	66	42
395.646	395.723	81	51
395.647	395.723	78	43
395.727	395.808	77	50
395.727	395.808	80	59
395.728	395.808	69	46
395.961	396.045	81	54
395.962	396.045	78	45
396.046	396.119	83	59
396.049	396.123	65	46
396.049	396.123	80	50
396.199	396.283	71	41
396.284	396.357	78	46
396.284	396.357	81	55
396.36	396.438	80	51
396.36	396.438	83	60
396.361	396.441	74	48
396.598	396.675	85	55
396.599	396.675	77	46
396.679	396.763	78	51
396.679	396.763	86	60
396.68	396.767	61	47
396.85	396.931	66	41
397.018	397.092	92	65
397.019	397.096	69	46
397.096	397.168	93	58
397.169	397.253	95	58
397.254	397.326	93	58
397.327	397.627	87	64
397.327	397.627	90	64
397.33	397.627	68	44
397.484	397.645	85	59
397.487	397.645	89	59
397.488	397.627	75	38
397.648	397.805	84	59
397.649	397.81	87	59
397.652	397.726	78	45
397.81	397.963	80	60
397.812	397.963	92	60
397.967	398.278	87	66
397.967	398.335	90	66
397.97	398.335	61	46
398.12	398.335	85	59
398.121	398.335	89	59
398.125	398.335	68	42
398.278	398.359	84	59
398.278	398.359	87	59
398.279	398.363	72	45
398.442	398.52	68	59
398.443	398.523	80	59
398.604	398.913	75	64
398.605	398.957	56	45
398.605	398.957	78	64
398.757	398.957	73	57
398.762	398.957	63	42
398.762	398.957	77	57
398.912	398.993	72	57
398.913	398.994	66	46
398.913	398.993	75	57
399.073	399.157	68	58
399.073	399.158	80	58
399.234	400.039	73	64
399.237	399.564	77	64
399.238	400.039	37	48
399.399	400.039	44	48
399.563	400.053	68	50
399.564	400.057	77	50
399.564	400.053	80	59
399.566	399.9	49	44
399.566	400.039	56	52
399.9	400.039	49	49
400.057	400.147	66	44
400.06	400.151	75	44
400.06	400.148	78	53
400.061	400.152	56	49
400.235	400.305	65	44
400.235	400.305	77	53
400.238	400.532	61	52
400.238	400.309	73	44
400.375	400.455	66	44
400.375	400.459	75	44
400.375	400.456	78	53
400.532	400.861	68	52
400.533	400.862	77	52
400.533	400.861	80	62
400.536	401.299	37	48
400.694	401.299	44	48
400.775	401.299	70	44
400.775	401.299	82	53
400.777	401.299	78	44
400.861	401.354	68	50
400.861	401.355	80	59
400.862	401.299	56	52
400.862	401.359	77	50
400.865	401.19	49	44
401.19	401.299	49	49
401.359	401.442	66	44
401.36	401.443	75	44
401.36	401.443	78	53
401.362	401.446	56	49
401.53	401.597	65	44
401.53	401.6	77	53
401.531	401.824	61	52
401.531	401.6	73	44
401.674	401.75	66	44
401.674	401.751	75	44
401.674	401.751	78	53
401.827	402.153	68	52
401.828	402.154	80	62
401.831	402.359	37	48
401.831	402.156	77	52
401.982	402.359	44	48
402.07	402.359	70	44
402.073	402.359	78	44
402.073	402.359	82	53
402.153	402.359	68	50
402.154	402.359	80	59
402.156	402.359	77	50
402.157	402.49	49	44
402.157	402.489	56	52
402.49	403.522	37	48
402.636	403.522	45	48
402.818	403.476	85	67
402.818	403.522	88	71
402.819	403.522	76	59
402.821	403.151	49	44
402.821	403.313	57	52
403.151	403.522	49	49
403.308	403.522	74	59
403.312	403.522	83	59
403.312	403.522	86	62
403.313	403.522	57	49
403.472	403.543	73	59
403.476	403.546	81	59
403.476	403.546	85	62
403.477	403.77	64	52
403.613	403.693	74	59
403.616	403.696	83	59
403.616	403.694	86	62
403.77	404.102	76	69
403.771	404.1	88	73
403.773	404.599	37	48
403.773	404.101	85	69
403.924	404.599	45	48
404.016	404.599	78	60
404.017	404.599	90	63
404.018	404.593	86	60
404.1	404.599	88	72
404.101	404.599	85	68
404.102	404.599	76	60
404.103	404.432	49	44
404.103	404.595	57	52
404.432	404.599	49	49
404.593	404.669	74	59
404.593	404.67	86	62
404.594	404.67	83	59
404.595	404.673	57	49
404.75	404.827	73	59
404.753	404.827	85	62
404.754	405.047	64	52
404.754	404.831	81	59
404.897	404.97	74	57
404.897	404.974	86	59
404.898	404.975	83	57
405.047	405.377	76	67
405.048	405.376	88	71
405.051	405.377	85	67
405.052	405.639	37	48
405.204	405.639	45	48
405.293	405.639	78	59
405.293	405.639	90	62
405.294	405.639	86	59
405.376	405.639	88	69
405.377	405.709	57	52
405.377	405.639	76	58
405.377	405.639	85	64
405.38	405.71	49	44
405.712	406.54	37	48
405.86	406.54	45	48
406.041	406.54	93	82
406.042	406.54	81	69
406.042	406.54	90	77
406.045	406.54	57	52
406.046	406.381	49	44
406.381	406.54	49	49
406.536	406.612	80	63
406.538	406.616	92	68
406.539	406.62	54	49
406.539	406.619	88	63
406.696	406.766	78	63
406.697	406.767	86	63
406.697	406.766	90	68
406.699	406.993	57	44
406.699	406.99	62	52
406.833	406.909	80	64
406.835	406.91	92	69
406.836	406.913	88	64
406.994	407.323	81	70
406.997	407.32	90	74
406.997	407.322	93	82
406.998	407.823	37	48
407.147	407.823	45	48
407.231	407.823	83	69
407.232	407.823	95	73
407.235	407.816	92	69
407.32	407.823	90	79
407.322	407.823	93	83
407.323	407.649	49	44
407.323	407.823	57	52
407.323	407.823	81	71
407.649	407.823	49	49
407.813	407.886	80	63
407.816	407.887	88	63
407.816	407.887	92	68
407.817	407.889	54	49
407.966	408.037	78	63
407.97	408.04	86	63
407.97	408.037	90	68
407.971	408.258	57	44
407.971	408.257	62	52
408.107	408.179	80	63
408.107	408.184	92	68
408.11	408.184	88	63
408.258	408.58	81	68
408.261	408.583	90	68
408.261	408.582	93	81
408.264	408.684	37	48
408.415	408.684	45	48
408.495	408.684	83	58
408.499	408.684	92	58
408.499	408.684	95	69
408.58	408.684	81	68
408.582	408.684	93	81
408.583	408.874	49	44
408.583	408.873	57	52
408.583	408.684	90	68
408.796	408.876	81	66
408.8	408.877	78	55
408.877	408.946	83	74
408.878	408.947	80	62
408.88	408.95	65	58
409.03	409.104	71	53
409.104	409.181	81	66
409.108	409.182	78	55
409.182	409.261	83	74
409.184	409.262	80	62
409.185	409.492	74	61
409.412	409.493	85	68
409.416	409.497	77	58
409.497	409.569	86	75
409.5	409.57	61	58
409.5	409.57	78	63
409.65	409.731	66	54
409.734	409.815	78	55
409.734	409.814	81	66
409.815	409.888	80	76
409.818	409.892	77	65
409.819	409.892	69	59
410.039	410.116	78	58
410.039	410.112	81	70
410.116	410.182	83	76
410.119	410.186	65	59
410.119	410.185	80	65
410.259	410.336	71	53
410.336	410.413	81	71
410.337	410.413	78	59
410.414	410.487	80	66
410.414	410.486	83	78
410.417	410.49	74	62
410.63	410.707	85	71
410.634	410.707	77	59
410.711	410.788	78	66
410.711	410.787	86	78
410.712	410.788	61	61
410.868	410.952	66	53
411.036	411.105	92	79
411.04	411.11	69	59
411.11	411.183	93	72
411.184	411.253	95	72
411.254	411.327	93	72
411.327	411.624	87	78
411.33	411.624	90	78
411.334	411.624	68	57
411.481	411.635	85	72
411.482	411.635	89	72
411.484	411.624	75	49
411.638	411.792	84	72
411.639	411.793	87	72
411.642	411.719	78	58
411.795	411.95	80	74
411.796	411.951	92	74
411.951	412.31	90	80
411.953	412.31	61	59
411.953	412.251	87	80
412.1	412.31	85	72
412.101	412.31	89	72
412.103	412.31	68	54
412.251	412.335	84	72
412.251	412.335	87	72
412.254	412.336	72	58
412.411	412.495	68	72
412.416	412.496	80	72
412.576	412.878	75	78
412.576	412.926	78	78
412.577	412.926	56	58
412.727	412.926	73	64
412.727	412.926	77	64
412.73	412.926	63	54
412.877	412.958	72	64
412.878	412.961	66	59
412.878	412.961	75	64
413.038	413.139	68	64
413.042	413.14	80	64
413.245	413.325	73	45
413.245	413.325	77	50
413.246	413.326	49	40
413.405	413.486	56	35
413.57	414.062	89	55
413.57	414.062	92	55
413.571	414.062	61	35
413.571	414.062	68	35
413.738	414.061	56	35
413.899	414.062	49	40
414.06	414.13	94	57
414.061	414.134	56	36
414.061	414.133	97	57
414.2	414.284	92	54
414.204	414.284	68	36
414.204	414.284	96	54
414.205	414.285	61	36
414.357	414.434	94	54
414.358	414.435	90	54
414.361	414.435	56	37
414.515	414.596	89	47
414.515	414.599	92	52
414.516	414.599	49	40
414.677	414.76	56	35
414.844	415.362	77	53
414.848	415.362	68	35
414.848	415.362	80	53
414.851	415.362	61	35
414.997	415.317	56	35
415.152	415.362	49	40
415.313	415.386	75	55
415.314	415.387	78	55
415.317	415.39	56	36
415.467	415.548	73	55
415.468	415.551	68	36
415.468	415.551	77	55
415.47	415.552	61	36
415.625	415.706	68	55
415.625	415.705	75	55
415.628	415.706	56	37
415.792	415.873	73	45
415.793	415.874	49	40
415.793	415.873	77	50
415.954	416.034	56	35
416.118	416.579	89	55
416.119	416.559	68	35
416.119	416.584	92	55
416.121	416.559	61	35
416.276	416.559	56	35
416.429	416.559	49	40
416.584	416.657	94	57
416.585	416.658	97	57
416.587	416.658	56	36
416.727	416.801	92	54
416.728	416.804	68	36
416.728	416.801	96	54
416.73	416.804	61	36
416.878	416.961	90	54
416.878	416.958	94	54
416.879	416.962	56	37
417.031	417.116	89	47
417.035	417.116	92	52
417.038	417.117	49	45
417.196	417.28	56	40
417.364	417.696	78	64
417.367	417.689	68	40
417.367	417.697	82	64
417.368	417.689	61	40
417.529	417.689	56	40
417.7	417.767	77	58
417.701	417.768	49	46
417.701	417.768	80	58
417.84	417.918	75	54
417.844	417.918	56	39
417.844	417.918	78	54
417.997	418.074	73	54
417.998	418.074	77	54
418.001	418.078	61	39
418.001	418.075	68	39
418.155	418.24	68	53
418.155	418.235	75	53
418.156	418.24	56	37
418.316	418.4	73	45
418.319	418.4	77	50
418.32	418.401	49	40
418.484	418.568	56	35
418.648	419.195	89	55
418.649	419.195	92	55
418.652	419.195	68	35
418.653	419.195	61	35
418.806	419.128	56	35
418.967	419.195	49	40
419.125	419.198	94	57
419.128	419.202	56	36
419.128	419.201	97	57
419.268	419.352	92	54
419.271	419.353	96	54
419.272	419.353	61	36
419.272	419.353	68	36
419.426	419.503	90	54
419.426	419.503	94	54
419.429	419.504	56	37
419.576	419.663	89	47
419.579	419.664	92	52
419.58	419.667	49	40
419.744	419.828	56	35
419.908	420.374	77	53
419.909	420.374	80	53
419.912	420.29	68	35
419.913	420.29	61	35
420.066	420.29	56	35
420.22	420.297	49	40
420.375	420.448	75	55
420.375	420.448	78	55
420.378	420.449	56	36
420.517	420.598	73	53
420.518	420.602	68	36
420.518	420.601	77	53
420.521	420.602	61	36
420.675	420.756	75	53
420.676	420.756	68	53
420.679	420.757	56	37
420.843	420.923	73	45
420.844	420.924	49	40
420.844	420.924	77	50
421.004	421.088	56	35
421.169	421.648	89	55
421.169	421.648	92	55
421.17	421.648	68	35
421.173	421.648	61	35
421.326	421.637	56	35
421.481	421.648	49	40
421.634	421.708	94	57
421.637	421.709	56	36
421.637	421.708	97	57
421.777	421.858	92	54
421.778	421.861	68	36
421.778	421.859	96	54
421.781	421.862	61	36
421.931	422.009	94	54
421.935	422.009	90	54
421.938	422.012	56	37
422.093	422.174	49	44
422.093	422.173	89	47
422.093	422.174	92	52
422.26	422.348	56	39
422.432	422.804	78	60
422.432	422.804	82	60
422.436	422.804	61	39
422.436	422.804	68	39
422.593	422.804	56	39
422.765	422.845	77	59
422.768	422.846	49	44
422.768	422.846	80	59
422.922	422.999	75	53
422.923	423.006	56	36
422.923	423.003	78	53
423.076	423.16	73	53
423.076	423.161	77	53
423.08	423.162	61	36
423.08	423.161	68	36
423.233	423.321	75	53
423.234	423.322	68	53
423.237	423.322	56	37
423.402	423.485	73	55
423.405	423.486	49	40
423.405	423.486	77	55
423.569	423.654	56	35
423.734	424.046	68	50
423.734	423.888	73	50
423.735	423.814	65	35
423.738	423.815	61	35
423.889	424.049	74	51
423.891	423.972	56	35
424.049	424.683	68	55
424.05	424.526	75	55
424.053	424.683	49	40
424.203	424.528	56	36
424.361	424.683	60	36
424.361	424.683	66	36
424.526	424.683	75	50
424.526	424.683	78	50
424.528	424.683	56	37
424.679	424.984	73	55
424.679	424.998	77	55
424.683	424.75	49	40
424.827	424.998	56	35
424.827	424.998	80	51
424.984	425.137	68	51
424.984	425.141	73	51
424.987	425.058	61	35
424.987	425.058	65	35
425.142	425.218	56	35
425.295	425.925	80	57
425.295	425.767	87	57
425.296	425.925	49	40
425.452	425.771	56	36
425.61	425.925	60	36
425.61	425.925	66	36
425.767	425.925	87	52
425.768	425.925	90	52
425.771	425.925	56	37
425.922	426.233	85	57
425.923	426.272	89	57
425.925	426.272	49	40
426.073	426.272	92	53
426.076	426.272	56	35
426.231	426.386	80	53
426.233	426.303	65	35
426.233	426.388	85	53
426.234	426.307	61	35
426.388	426.466	56	35
426.547	427.176	68	55
426.547	427.014	75	55
426.551	427.175	49	40
426.705	427.018	56	36
426.856	427.176	66	36
426.857	427.176	60	36
427.014	427.176	75	50
427.017	427.118	78	50
427.018	427.176	56	37
427.067	427.176	80	50
427.118	427.176	78	50
427.171	427.482	73	55
427.172	427.527	77	55
427.175	427.527	49	40
427.322	427.527	56	35
427.322	427.527	80	51
427.479	427.633	68	51
427.482	427.559	65	35
427.482	427.636	73	51
427.483	427.559	61	35
427.636	427.712	56	35
427.797	428.416	80	57
427.798	428.414	49	40
427.798	428.262	87	57
427.951	428.266	56	36
428.104	428.416	66	36
428.105	428.416	60	36
428.262	428.416	87	52
428.266	428.416	56	37
428.266	428.368	90	52
428.312	428.416	92	52
428.368	428.416	90	52
428.413	428.722	85	57
428.413	429.042	89	57
428.414	429.029	49	40
428.563	429.042	92	53
428.564	428.878	56	35
428.721	429.042	80	53
428.722	429.042	85	53
428.724	429.042	65	35
428.725	429.042	61	35
428.878	429.042	56	35
429.028	429.109	72	48
429.029	429.11	49	40
429.11	430.271	73	49
429.19	430.271	75	50
429.193	429.501	56	36
429.267	430.271	77	51
429.341	430.271	66	36
429.341	430.271	78	52
429.343	430.271	60	36
429.425	430.271	80	52
429.498	430.271	82	53
429.501	429.809	56	37
429.579	430.271	84	54
429.656	430.267	49	40
429.656	430.271	85	56
429.733	430.265	87	56
429.806	430.271	89	56
429.809	430.108	56	35
429.883	430.271	90	57
429.957	430.271	65	35
429.957	430.271	91	57
429.959	430.271	61	35
430.034	430.191	94	58
430.107	430.265	92	58
430.108	430.271	56	35
430.191	430.271	94	59
430.265	430.877	87	61
430.265	430.415	92	58
430.267	430.877	49	40
430.341	430.493	94	52
430.415	430.566	92	52
430.416	430.72	56	36
430.493	430.643	94	52
430.566	430.717	92	52
430.569	430.877	60	36
430.569	430.877	66	36
430.643	430.8	94	52
430.717	430.874	92	52
430.719	430.877	90	52
430.72	430.877	56	37
430.8	430.877	94	52
430.874	430.944	92	58
430.877	430.944	49	40
430.877	431.51	89	57
430.944	431.097	94	52
431.02	431.175	92	53
431.021	431.332	56	35
431.097	431.51	94	52
431.175	431.51	92	58
431.178	431.51	61	35
431.178	431.51	65	35
431.178	431.51	85	53
431.332	431.51	56	35
431.493	431.57	72	48
431.496	431.57	49	40
431.57	432.735	73	49
431.653	431.966	56	36
431.654	432.735	75	50
431.728	432.735	77	51
431.808	432.735	66	36
431.809	432.735	60	36
431.811	432.735	78	52
431.885	432.735	80	52
431.966	432.267	56	37
431.966	432.735	82	53
432.042	432.735	84	54
432.116	432.735	85	56
432.119	432.728	49	40
432.193	432.728	87	56
432.267	432.575	56	35
432.267	432.735	89	56
432.35	432.735	90	57
432.424	432.735	91	57
432.427	432.735	61	35
432.427	432.735	65	35
432.501	432.652	94	58
432.575	432.735	56	35
432.575	432.726	92	58
432.652	432.735	94	59
432.726	432.876	92	58
432.728	433.337	49	40
432.728	433.338	87	61
432.802	432.953	94	52
432.876	433.026	92	52
432.879	433.188	56	36
432.953	433.106	94	52
433.026	433.187	92	52
433.029	433.338	60	36
433.029	433.338	66	36
433.106	433.262	94	52
433.187	433.338	90	52
433.187	433.335	92	52
433.188	433.338	56	37
433.262	433.338	94	52
433.335	433.411	92	58
433.337	433.411	49	40
433.337	433.967	89	57
433.412	433.562	94	52
433.488	433.793	56	35
433.488	433.638	92	53
433.562	433.722	94	52
433.638	433.8	92	58
433.639	433.967	85	53
433.642	433.967	61	35
433.642	433.967	65	35
433.722	433.88	94	52
433.793	433.967	56	35
433.8	433.957	92	52
433.88	433.967	94	52
433.957	434.107	92	60
433.958	434.573	49	42
433.958	434.573	87	64
434.034	434.185	94	54
434.107	434.265	92	54
434.108	434.419	56	37
434.185	434.342	94	54
434.265	434.573	66	37
434.265	434.416	92	54
434.266	434.573	60	37
434.342	434.493	94	54
434.416	434.573	92	54
434.419	434.573	56	38
434.419	434.573	90	54
434.493	434.573	94	54
434.57	435.23	89	63
434.573	434.64	49	42
434.573	434.639	92	64
434.643	434.794	94	54
434.717	434.875	92	60
434.72	435.028	56	36
434.794	434.951	94	54
434.874	435.23	85	55
434.875	435.025	92	60
434.877	435.23	65	36
434.878	435.23	61	36
434.951	435.112	94	54
435.025	435.189	92	54
435.028	435.23	56	36
435.112	435.23	94	54
435.186	435.266	84	57
435.189	435.27	49	42
435.189	435.27	92	60
435.27	435.434	94	54
435.35	435.818	85	58
435.351	435.665	56	37
435.351	435.51	92	60
435.434	435.585	94	54
435.508	435.818	87	60
435.509	435.818	60	37
435.509	435.818	66	37
435.51	435.666	92	60
435.585	435.74	94	54
435.662	435.818	88	61
435.665	435.818	56	38
435.666	435.815	92	54
435.74	435.818	94	54
435.812	436.585	89	63
435.815	435.967	92	60
435.816	436.436	49	42
435.892	436.043	94	54
435.966	436.435	90	65
435.967	436.275	56	36
435.967	436.117	92	60
436.043	436.201	94	54
436.113	437.059	91	64
436.117	436.274	92	60
436.12	437.059	61	36
436.12	437.059	65	36
436.201	436.354	94	54
436.274	436.438	92	67
436.275	436.589	56	36
436.354	436.512	94	54
436.435	436.894	90	64
436.436	437.059	49	42
436.438	436.59	92	60
436.512	436.662	94	54
436.585	437.058	89	65
436.589	436.897	56	37
436.59	436.74	92	60
436.662	436.821	94	54
436.736	437.059	87	64
436.737	437.059	66	37
436.74	437.059	60	37
436.74	436.898	92	60
436.821	436.977	94	54
436.894	437.059	90	65
436.897	437.059	56	38
436.898	437.058	92	54
436.977	437.059	94	54
437.058	437.699	89	63
437.058	437.124	92	63
437.059	437.125	49	42
437.127	437.275	94	54
437.202	437.356	92	60
437.205	437.498	56	36
437.275	437.429	94	54
437.353	437.699	85	55
437.356	437.699	65	36
437.356	437.496	92	60
437.357	437.699	61	36
437.429	437.58	94	54
437.496	437.663	92	54
437.498	437.699	56	36
437.58	437.699	94	54
437.66	437.741	49	42
437.66	437.741	84	57
437.663	437.742	92	60
437.744	437.895	94	54
437.818	438.119	56	37
437.818	438.273	85	58
437.82	437.971	92	60
437.895	438.052	94	54
437.968	438.273	87	60
437.969	438.273	66	37
437.971	438.273	60	37
437.971	438.121	92	60
438.052	438.196	94	55
438.119	438.273	56	38
438.119	438.273	88	62
438.121	438.272	92	55
438.196	438.273	94	55
438.269	439.025	89	64
438.272	438.416	92	61
438.273	438.874	49	43
438.346	438.493	94	56
438.416	438.872	90	67
438.416	438.567	92	62
438.417	438.718	56	37
438.493	438.643	94	56
438.567	439.495	65	37
438.567	439.511	91	67
438.567	438.717	92	71
438.57	439.511	61	37
438.643	438.794	94	57
438.717	438.875	92	57
438.718	439.026	56	38
438.794	438.951	94	57
438.872	439.326	90	68
438.874	439.448	49	44
438.875	439.026	92	64
438.951	439.102	94	58
439.025	439.511	89	70
439.026	439.326	56	39
439.026	439.179	92	64
439.102	439.253	94	58
439.175	439.511	87	69
439.176	439.511	66	40
439.179	439.511	60	40
439.179	439.33	92	65
439.253	439.409	94	59
439.326	439.511	56	41
439.326	439.511	90	71
439.33	439.495	92	59
439.409	439.511	94	59
439.448	440.747	49	41
439.495	440.747	65	54
439.495	439.652	92	61
439.572	439.725	94	56
439.652	439.81	92	62
439.725	439.882	94	56
439.81	439.963	92	63
439.812	440.744	77	60
439.812	440.425	80	60
439.882	440.04	94	57
439.963	440.121	92	60
440.04	440.201	94	52
440.121	440.271	92	59
440.201	440.352	94	51
440.271	440.422	92	59
440.275	440.587	82	55
440.275	440.747	85	55
440.352	440.509	94	51
440.422	440.586	92	59
440.424	440.747	84	55
440.425	440.746	80	55
440.509	440.663	94	51
440.586	440.744	92	56
440.587	440.747	82	55
440.589	440.747	78	55
440.663	440.747	94	52
440.744	441.368	77	60
440.744	440.902	92	61
440.746	441.367	80	60
440.825	440.982	94	56
440.902	441.061	92	62
440.982	441.136	94	56
441.061	441.212	92	59
441.136	441.29	94	53
441.212	441.367	92	58
441.213	441.311	82	51
441.216	441.517	78	51
441.258	441.996	84	51
441.29	441.441	94	52
441.311	441.996	82	51
441.367	441.996	80	60
441.367	441.513	92	59
441.368	441.664	77	60
441.441	441.591	94	53
441.513	441.664	92	60
441.517	441.828	75	54
441.517	441.996	78	54
441.591	441.744	94	53
441.664	441.996	77	54
441.664	441.825	92	60
441.668	441.982	73	54
441.744	441.902	94	53
441.825	441.979	92	60
441.826	441.996	68	54
441.828	441.996	75	54
441.902	441.996	94	53
441.979	442.154	92	61
441.98	442.327	65	54
441.982	442.788	73	54
442.067	442.242	94	56
442.154	442.326	92	62
442.242	442.396	94	56
442.326	442.938	68	60
442.326	442.479	92	63
442.327	443.257	65	60
442.396	442.553	94	57
442.479	442.634	92	60
442.553	443.26	94	52
442.634	443.253	92	67
442.714	442.938	89	51
442.787	443.1	90	65
442.788	443.102	70	55
442.788	443.26	73	55
442.865	443.177	87	51
442.938	443.257	68	55
442.938	443.26	72	55
442.938	443.26	89	65
443.02	443.26	85	51
443.1	443.26	90	64
443.102	443.26	66	55
443.102	443.26	70	55
443.177	443.26	87	52
443.253	443.595	92	61
443.257	443.6	65	60
443.257	443.602	68	60
443.344	443.674	89	56
443.432	444.526	94	62
443.512	444.058	90	56
443.595	443.753	92	59
443.6	444.21	65	60
443.602	444.526	68	60
443.674	443.823	89	53
443.753	443.908	92	58
443.823	443.978	89	52
443.908	444.524	92	59
443.978	444.209	89	53
444.058	444.366	90	60
444.059	444.367	63	54
444.059	444.526	66	54
444.128	444.443	87	53
444.209	444.526	89	60
444.21	444.525	61	54
444.21	444.526	65	54
444.285	444.526	85	53
444.366	444.526	90	60
444.367	444.526	56	54
444.367	444.526	63	54
444.443	444.526	87	53
444.524	445.154	53	62
444.524	444.911	92	61
444.525	445.154	61	62
444.6	444.835	89	56
444.678	445.154	88	58
444.754	445.154	91	51
444.835	444.99	89	54
444.911	445.154	92	46
444.99	445.154	89	54
445.067	445.154	93	48
445.15	445.78	56	58
445.15	445.78	63	58
445.15	445.462	90	55
445.224	445.542	94	50
445.305	445.78	89	56
445.382	445.78	93	50
445.462	445.78	90	56
445.542	445.78	94	49
445.62	445.78	87	56
445.622	445.78	66	53
445.7	445.78	96	49
445.778	446.081	61	58
445.778	446.393	85	59
445.78	446.393	65	61
445.85	446.393	97	53
445.92	446.235	89	58
445.923	446.393	68	55
446.004	446.309	92	48
446.081	446.393	61	55
446.081	446.393	88	55
446.158	446.393	91	51
446.235	446.393	89	57
446.309	446.393	92	51
446.389	446.785	87	55
446.392	447.022	56	58
446.392	447.022	63	58
446.473	447.022	90	50
446.547	447.02	85	56
446.628	447.022	89	50
446.705	447.022	84	56
446.785	447.022	87	49
446.862	447.022	80	56
446.864	447.022	66	53
446.943	447.022	92	49
447.02	447.323	61	58
447.02	447.4	85	59
447.022	447.635	65	61
447.096	447.477	89	53
447.163	447.635	80	58
447.165	447.635	68	55
447.244	447.635	87	48
447.323	447.635	61	55
447.323	447.635	77	55
447.4	447.635	85	51
447.477	447.635	89	57
447.557	447.635	92	51
447.631	448.264	56	63
447.631	447.946	90	55
447.634	448.264	63	63
447.715	448.027	94	50
447.788	448.264	89	56
447.862	448.264	93	50
447.946	448.264	90	56
448.027	448.264	94	49
448.104	448.264	87	56
448.107	448.264	66	58
448.184	448.264	96	49
448.261	448.565	61	63
448.261	448.883	85	59
448.262	448.883	65	67
448.334	448.883	97	53
448.411	448.883	68	60
448.411	448.719	89	58
448.485	448.796	92	48
448.562	448.883	88	55
448.565	448.883	61	60
448.642	448.883	91	51
448.719	448.883	89	57
448.796	448.883	92	51
448.874	450.136	48	50
448.874	449.265	87	60
448.951	450.136	90	55
448.953	450.136	49	51
449.032	449.489	85	60
449.034	450.136	51	52
449.108	449.573	89	56
449.109	450.136	53	53
449.189	450.136	84	61
449.191	450.136	54	54
449.265	449.724	87	56
449.266	450.136	56	55
449.34	449.647	80	61
449.342	450.136	58	57
449.416	450.035	92	58
449.417	450.123	60	58
449.489	449.868	85	62
449.492	450.136	61	59
449.573	449.944	89	58
449.574	450.136	63	60
449.647	450.136	80	62
449.65	450.136	65	61
449.724	450.136	66	62
449.724	450.123	87	59
449.79	450.136	77	59
449.794	450.136	68	63
449.868	450.136	85	62
449.944	450.136	89	64
450.035	450.136	92	67
450.123	451.365	60	56
450.123	450.507	87	64
450.199	451.365	90	58
450.2	451.365	61	57
450.281	451.365	63	59
450.281	450.735	85	64
450.357	451.365	65	60
450.357	450.809	89	60
450.431	450.883	84	61
450.434	451.365	66	61
450.507	450.959	87	64
450.508	451.365	68	63
450.582	451.036	80	67
450.583	451.365	70	64
450.659	451.365	72	65
450.659	451.264	92	67
450.735	451.365	73	67
450.735	451.034	85	66
450.809	451.365	75	68
450.809	451.11	89	61
450.883	451.365	84	66
450.885	451.365	77	69
450.959	451.365	87	63
450.96	451.365	78	71
451.034	451.365	85	67
451.036	451.18	80	72
451.11	451.365	89	62
451.18	451.365	80	67
451.264	451.355	92	63
451.355	452.601	53	61
451.355	451.733	92	68
451.431	452.601	95	64
451.432	452.601	54	62
451.505	451.958	90	68
451.506	452.601	56	64
451.579	452.035	94	64
451.582	452.601	58	65
451.657	452.601	59	66
451.657	452.601	89	69
451.733	452.601	61	67
451.733	452.185	92	65
451.809	452.108	85	69
451.81	452.601	63	69
451.883	452.573	65	70
451.883	452.486	97	73
451.958	452.328	90	70
451.96	452.601	66	72
452.035	452.601	68	73
452.035	452.405	94	67
452.108	452.601	85	71
452.11	452.601	70	74
452.185	452.573	92	67
452.187	452.601	71	76
452.255	452.601	73	77
452.255	452.601	82	67
452.328	452.601	90	70
452.405	452.601	94	72
452.486	452.601	97	75
452.573	452.646	65	67
452.573	452.646	92	72
452.647	453.825	95	67
452.65	453.825	66	69
452.723	453.182	90	73
452.726	453.825	68	70
452.804	453.56	94	67
452.807	453.825	70	72
452.88	453.332	89	73
452.881	453.825	71	73
452.955	453.259	92	70
452.958	453.825	73	75
453.031	453.486	85	74
453.032	453.825	75	77
453.108	453.721	97	70
453.109	453.825	77	78
453.182	453.483	90	74
453.185	453.825	78	80
453.259	453.409	92	70
453.26	453.825	80	81
453.332	453.825	89	75
453.336	453.825	82	83
453.409	453.825	92	70
453.41	453.825	84	85
453.483	453.825	90	75
453.486	453.637	85	86
453.56	453.825	94	72
453.637	453.825	85	76
453.721	453.825	97	72
453.804	454.445	36	64
453.804	454.445	48	88
453.805	454.119	42	64
453.805	454.117	44	64
453.882	454.445	49	67
453.959	454.116	51	68
454.036	454.445	53	70
454.113	454.445	54	71
454.116	454.441	51	78
454.117	454.442	39	57
454.117	454.445	44	57
454.119	454.445	42	57
454.189	454.445	56	72
454.281	454.445	58	74
454.362	454.445	60	75
454.439	455.085	61	75
454.441	455.085	51	85
454.442	455.085	39	63
454.442	454.746	41	63
454.445	454.747	44	63
454.511	455.085	65	76
454.592	455.085	68	78
454.662	455.085	73	79
454.742	455.085	77	80
454.743	455.085	37	57
454.743	455.076	49	78
454.746	455.075	41	57
454.747	455.085	44	57
454.826	455.085	80	82
454.904	455.085	85	83
454.988	455.085	89	85
455.072	455.729	53	86
455.075	455.729	41	64
455.076	455.391	47	64
455.076	455.391	49	64
455.148	455.729	54	75
455.226	455.387	56	76
455.306	455.729	58	78
455.387	455.723	56	78
455.387	455.729	59	79
455.39	455.726	44	57
455.391	455.729	47	57
455.391	455.727	49	57
455.47	455.729	61	80
455.551	455.729	63	81
455.638	455.729	65	82
455.723	456.381	56	86
455.723	456.381	66	83
455.726	456.381	44	64
455.727	456.044	46	64
455.727	456.045	49	64
455.799	456.381	70	84
455.88	456.381	73	86
455.957	456.381	78	88
456.042	456.378	82	90
456.043	456.381	54	81
456.044	456.381	42	59
456.044	456.381	46	59
456.045	456.381	49	59
456.125	456.381	85	92
456.206	456.381	90	94
456.286	456.381	92	95
456.378	456.721	82	97
456.38	457.423	30	71
456.38	456.72	94	97
456.381	457.416	42	98
456.542	456.885	90	91
456.63	457.148	92	94
456.72	457.052	94	97
456.721	456.885	70	93
456.721	456.885	82	97
456.723	456.887	58	69
456.724	456.888	61	69
456.724	456.888	66	69
456.885	457.053	70	88
456.885	457.053	82	88
456.885	457.238	90	88
456.887	457.056	58	66
456.888	457.056	61	66
456.888	457.057	66	66
457.052	457.423	94	94
457.053	457.423	70	95
457.053	457.423	82	94
457.056	457.423	58	71
457.056	457.414	61	71
457.057	457.413	66	71
457.148	457.423	92	89
457.238	457.423	90	89
457.413	457.494	66	88
457.414	457.497	54	81
457.414	457.494	61	74
457.416	457.497	42	69
457.416	457.497	49	69
457.58	457.668	65	81
457.581	457.669	53	73
457.581	457.669	61	69
457.584	457.672	41	61
457.585	457.672	49	61
457.749	458.271	65	89
457.75	458.271	61	75
457.752	458.271	41	67
457.752	458.271	49	67
457.752	458.271	53	80
458.271	458.347	87	90
458.348	458.428	89	91
458.428	458.758	78	93
458.432	459.457	39	68
458.432	458.757	90	93
458.433	459.457	51	94
458.592	458.914	87	87
458.674	459.157	89	90
458.757	459.072	90	93
458.758	458.919	66	89
458.758	458.919	78	93
458.761	458.921	54	66
458.761	458.922	58	66
458.762	458.922	63	66
458.914	459.241	87	84
458.919	459.073	66	84
458.919	459.072	78	84
458.921	459.076	54	63
458.922	459.076	58	63
458.922	459.077	63	63
459.072	459.457	78	90
459.072	459.457	90	90
459.073	459.457	66	91
459.076	459.457	54	68
459.076	459.457	58	68
459.077	459.457	63	68
459.157	459.457	89	83
459.241	459.398	87	83
459.318	459.457	86	83
459.398	459.52	87	90
459.649	459.727	66	63
459.65	459.804	54	56
459.65	459.73	58	53
459.65	459.73	70	63
459.653	459.804	42	47
459.804	459.887	71	66
459.807	459.888	59	56
459.807	459.888	66	66
459.811	459.89	47	47
459.811	459.888	54	56
459.964	460.049	72	68
459.968	460.05	68	68
459.969	460.05	60	57
459.971	460.052	56	59
459.972	460.052	44	50
460.128	460.293	68	71
460.129	460.294	73	71
460.133	460.298	49	53
460.133	460.297	56	63
460.133	460.294	61	60
460.454	461.089	72	80
460.455	461.089	36	51
460.455	461.089	60	68
460.536	461.089	37	53
460.612	460.931	68	62
460.613	460.931	66	62
460.615	461.089	39	54
460.694	461.089	41	55
460.78	461.089	42	57
460.78	461.088	63	64
460.78	461.088	75	75
460.851	461.089	44	58
460.931	461.089	66	62
460.931	461.089	68	62
460.934	461.089	46	59
461.008	461.089	47	60
461.088	461.732	49	62
461.088	461.732	63	70
461.088	461.732	75	82
461.159	461.732	51	63
461.239	461.543	65	64
461.239	461.54	68	64
461.242	461.732	53	65
461.315	461.732	54	66
461.394	461.732	73	77
461.396	461.732	56	67
461.396	461.732	61	65
461.54	461.732	68	64
461.543	461.719	65	64
461.718	462.366	77	82
461.719	462.366	65	70
461.722	462.366	41	58
461.795	462.366	42	60
461.873	462.174	71	63
461.873	462.176	73	63
461.876	462.366	44	61
461.946	462.366	46	62
462.026	462.353	80	76
462.027	462.355	68	65
462.03	462.366	47	63
462.1	462.366	49	65
462.174	462.366	71	65
462.176	462.366	73	65
462.177	462.366	51	66
462.261	462.366	53	67
462.353	463.003	80	85
462.355	463.003	54	68
462.355	463.003	68	71
462.422	463.003	56	70
462.499	462.807	70	64
462.499	462.807	73	64
462.5	463.003	58	71
462.573	463.003	59	72
462.653	463.003	78	80
462.654	463.003	66	68
462.656	463.003	61	73
462.807	462.978	70	62
462.807	463.003	73	62
462.978	463.298	70	97
462.979	464.011	30	71
462.979	463.297	82	97
462.982	464.011	42	98
463.135	463.468	78	91
463.219	463.734	80	94
463.297	463.647	82	97
463.298	463.469	61	93
463.298	463.469	70	97
463.3	463.471	49	69
463.3	463.472	54	69
463.301	463.472	58	69
463.468	463.826	78	88
463.469	463.65	61	88
463.469	463.65	70	88
463.471	463.651	49	66
463.472	463.651	54	66
463.472	463.654	58	66
463.647	464.011	82	94
463.65	463.998	61	95
463.65	464.011	70	94
463.651	464.0	49	71
463.651	463.998	54	71
463.654	463.997	58	71
463.734	464.011	80	89
463.826	464.011	78	89
463.997	464.08	58	74
463.997	464.084	66	88
463.998	464.085	54	81
463.998	464.085	61	74
464.0	464.088	46	69
464.0	464.088	49	69
464.164	464.249	57	69
464.165	464.252	60	69
464.165	464.252	65	81
464.168	464.256	53	73
464.169	464.257	45	61
464.169	464.257	48	61
464.333	464.847	57	75
464.333	464.847	65	89
464.334	464.847	60	75
464.336	464.847	45	67
464.336	464.847	48	67
464.336	464.847	53	80
464.843	464.917	75	90
464.918	465.008	77	91
465.008	465.348	66	93
465.009	466.017	27	76
465.009	465.344	78	93
465.012	466.017	39	94
465.172	465.498	75	87
465.253	465.733	77	90
465.344	465.656	78	93
465.348	465.501	58	89
465.348	465.499	66	93
465.349	465.501	46	66
465.351	465.502	51	66
465.351	465.505	54	66
465.498	465.817	75	84
465.499	465.656	66	84
465.501	465.659	46	63
465.501	465.656	58	84
465.502	465.659	51	63
465.505	465.659	54	63
465.656	466.017	58	91
465.656	466.017	66	90
465.656	466.017	78	90
465.659	466.017	46	68
465.659	466.017	51	68
465.659	466.017	54	68
465.733	466.017	77	83
465.817	465.967	75	83
465.894	466.017	74	83
465.967	466.061	75	90
466.517	466.597	66	55
466.518	466.601	42	48
466.518	466.597	54	46
466.518	466.598	58	46
466.52	466.601	30	40
466.677	466.754	66	58
466.678	466.755	54	49
466.678	466.755	59	49
466.682	466.758	35	43
466.682	466.755	47	51
466.835	466.916	68	60
466.836	466.916	56	51
466.836	466.917	60	51
466.839	466.919	32	45
466.839	466.919	44	54
466.989	467.073	68	65
466.99	467.074	56	55
466.993	467.076	49	56
466.993	467.074	61	55
466.997	467.076	37	47
467.146	467.227	66	59
467.15	467.231	58	50
467.15	467.227	70	59
467.151	467.234	30	44
467.151	467.231	42	52
467.304	467.382	59	53
467.304	467.382	66	53
467.304	467.381	71	63
467.308	467.385	35	46
467.308	467.384	47	55
467.454	467.535	72	67
467.458	467.535	60	56
467.458	467.539	68	56
467.459	467.54	32	49
467.459	467.54	44	58
467.605	467.69	61	59
467.605	467.689	73	70
467.609	467.692	37	51
467.609	467.691	49	61
467.609	467.69	68	59
467.769	467.843	78	63
467.77	467.843	66	52
467.77	467.847	70	52
467.773	467.847	42	52
467.774	467.848	30	44
467.92	467.998	66	55
467.92	467.997	78	66
467.921	467.998	71	55
467.924	468.0	35	47
467.924	467.999	47	56
468.07	468.144	80	69
468.071	468.148	68	58
468.074	468.149	72	58
468.075	468.151	32	49
468.075	468.151	44	59
468.221	468.299	68	63
468.221	468.298	80	74
468.225	468.302	37	51
468.225	468.3	49	61
468.225	468.299	73	63
468.371	468.449	78	67
468.372	468.45	70	57
468.372	468.45	82	67
468.375	468.452	42	57
468.376	468.452	30	48
468.522	468.598	83	72
468.526	468.599	71	60
468.526	468.603	78	60
468.527	468.603	47	60
468.529	468.603	35	50
468.672	468.749	84	76
468.676	468.75	72	64
468.677	468.753	44	63
468.677	468.75	80	64
468.679	468.754	32	53
468.827	468.9	73	67
468.827	468.9	85	80
468.828	468.904	49	69
468.828	468.904	80	67
468.83	468.904	37	69
468.977	469.05	90	73
468.978	469.054	78	62
468.978	469.054	82	62
468.98	469.055	42	65
468.981	469.055	30	55
469.128	469.201	90	75
469.129	469.201	78	63
469.129	469.205	83	63
469.131	469.205	35	55
469.131	469.205	47	65
469.271	469.348	92	77
469.272	469.349	80	65
469.274	469.349	84	65
469.275	469.351	32	55
469.275	469.351	44	65
469.425	469.499	80	66
469.425	469.499	92	78
469.426	469.502	49	70
469.426	469.502	85	66
469.429	469.502	37	59
469.569	469.646	80	68
469.569	469.642	92	80
469.57	469.646	84	68
469.572	469.65	32	53
469.572	469.649	44	63
469.719	469.796	92	82
469.72	469.796	80	69
469.722	469.797	49	63
469.722	469.797	85	69
469.723	469.8	37	53
469.87	469.947	80	71
469.87	469.947	84	71
469.87	469.946	92	84
469.873	469.951	32	53
469.873	469.95	44	63
470.02	470.171	92	88
470.023	470.174	80	74
470.024	470.325	49	72
470.024	470.325	85	74
470.027	470.328	37	61
470.171	470.324	92	81
470.174	470.479	44	69
470.174	470.325	80	68
470.174	470.476	84	68
470.178	470.479	32	58
470.324	470.475	92	83
470.325	470.629	49	71
470.325	470.475	80	70
470.325	470.626	85	70
470.328	470.629	37	59
470.475	470.626	80	71
470.475	470.625	92	85
470.476	470.777	84	71
470.479	470.78	32	60
470.479	470.78	44	72
470.625	470.776	92	95
470.626	470.776	80	80
470.626	470.945	85	80
470.629	470.948	37	66
470.629	470.947	49	78
470.776	470.945	80	76
470.776	470.944	92	90
470.777	471.131	84	76
470.78	471.133	32	64
470.78	471.133	44	76
470.944	471.13	92	92
470.945	471.13	80	77
470.945	471.336	85	77
470.947	471.337	49	77
470.948	471.337	37	65
471.13	471.333	80	80
471.13	471.332	92	94
471.131	471.339	84	80
471.133	471.339	32	66
471.133	471.339	44	79
471.332	471.473	92	106
471.333	471.473	80	90
471.336	471.474	85	90
471.337	471.476	37	71
471.337	471.476	49	85
471.588	471.812	80	72
471.589	471.812	68	60
471.591	471.704	73	60
471.644	471.865	67	63
471.645	471.754	65	53
471.701	471.921	82	78
471.704	471.922	70	66
471.704	471.812	73	66
471.754	471.865	65	63
471.756	471.977	61	53
471.812	472.029	68	59
471.812	471.924	73	59
471.812	472.026	80	71
471.865	471.976	65	54
471.865	472.085	67	64
471.921	472.134	82	77
471.922	472.138	70	66
471.924	472.029	73	66
471.976	472.085	65	65
471.977	472.191	61	54
472.026	472.247	80	74
472.029	472.247	68	61
472.029	472.138	73	61
472.085	472.19	65	55
472.085	472.299	67	65
472.134	472.352	82	80
472.138	472.352	70	67
472.138	472.249	73	67
472.19	472.302	65	67
472.191	472.407	61	56
472.247	472.457	68	61
472.247	472.456	80	73
472.249	472.355	73	61
472.299	472.509	67	67
472.302	472.405	65	56
472.352	472.568	70	68
472.352	472.565	82	81
472.355	472.457	73	68
472.405	472.51	65	68
472.407	472.621	61	57
472.456	472.678	80	75
472.457	472.677	68	62
472.457	472.569	73	62
472.509	472.729	67	69
472.51	472.62	65	57
472.565	472.785	82	80
472.568	472.789	70	67
472.569	472.678	73	67
472.62	472.729	65	69
472.621	472.842	61	57
472.677	472.898	68	79
472.678	472.789	73	79
472.678	472.897	80	79
472.729	472.841	65	70
472.729	472.956	67	70
472.785	473.014	82	84
472.789	473.014	70	72
472.789	472.9	73	72
472.841	472.957	65	71
472.842	473.074	61	58
472.897	473.135	80	79
472.898	473.135	68	67
472.9	473.016	73	67
472.956	473.377	67	72
472.957	473.073	65	60
473.014	473.377	70	71
473.014	473.377	82	83
473.016	473.139	73	71
473.073	473.377	65	68
473.074	473.377	61	57
473.135	473.377	68	66
473.135	473.377	80	77
473.139	473.377	73	66
473.366	473.517	85	64
473.366	474.077	89	64
473.367	474.084	46	63
473.441	474.154	87	63
473.472	474.179	51	55
473.517	474.08	85	62
473.57	474.283	55	55
473.598	474.312	79	60
473.675	473.832	73	59
473.678	474.392	61	62
473.678	474.392	77	59
473.756	474.469	75	58
473.832	474.388	73	56
473.906	474.62	67	55
474.077	474.797	89	64
474.08	474.231	85	64
474.084	474.797	46	63
474.154	474.797	87	63
474.179	474.797	51	55
474.231	474.797	85	62
474.283	474.797	55	55
474.312	474.797	79	60
474.388	474.545	73	59
474.392	474.797	61	62
474.392	474.797	77	59
474.469	474.797	75	58
474.545	474.797	73	56
474.62	474.797	67	55
474.783	474.945	90	64
474.783	475.501	94	64
474.784	475.504	44	63
474.864	475.584	92	63
474.866	475.585	51	59
474.945	475.503	90	62
474.947	475.661	54	59
475.021	475.735	84	60
475.022	475.736	60	59
475.102	475.26	78	59
475.102	475.818	82	59
475.105	475.819	66	62
475.175	475.889	80	58
475.26	475.815	78	56
475.332	476.046	72	55
475.501	476.211	94	64
475.503	475.659	90	64
475.504	476.211	44	62
475.584	476.211	92	63
475.585	476.211	51	58
475.659	476.211	90	62
475.661	476.211	54	58
475.735	476.211	84	60
475.736	476.211	60	58
475.815	475.974	78	59
475.818	476.211	82	59
475.819	476.211	66	62
475.889	476.211	80	58
475.974	476.211	78	56
476.046	476.211	72	55
476.21	476.372	73	64
476.211	476.372	49	62
476.211	476.373	65	62
476.515	476.747	92	72
476.518	476.747	80	60
476.519	476.638	85	60
476.579	476.694	77	53
476.579	476.803	79	63
476.635	476.859	94	78
476.638	476.862	82	66
476.638	476.747	85	66
476.694	476.805	77	63
476.695	476.914	73	53
476.747	476.967	80	59
476.747	476.862	85	59
476.747	476.964	92	71
476.803	477.024	79	64
476.805	476.914	77	54
476.859	477.076	94	77
476.862	477.076	82	66
476.862	476.967	85	66
476.914	477.135	73	54
476.914	477.026	77	65
476.964	477.187	92	74
476.967	477.188	80	61
476.967	477.076	85	61
477.024	477.24	79	65
477.026	477.134	77	55
477.076	477.292	82	67
477.076	477.188	85	67
477.076	477.29	94	80
477.134	477.241	77	67
477.135	477.352	73	56
477.187	477.401	92	73
477.188	477.401	80	61
477.188	477.292	85	61
477.24	477.454	79	67
477.241	477.349	77	56
477.29	477.505	94	81
477.292	477.506	82	68
477.292	477.402	85	68
477.349	477.457	77	68
477.352	477.565	73	57
477.401	477.615	80	62
477.401	477.618	92	75
477.402	477.509	85	62
477.454	477.67	79	69
477.457	477.565	77	57
477.505	477.726	94	80
477.506	477.727	82	67
477.509	477.618	85	67
477.565	477.786	73	57
477.565	477.667	77	69
477.615	477.838	80	79
477.618	477.727	85	79
477.618	477.834	92	79
477.667	477.786	77	70
477.67	477.895	79	70
477.726	477.948	94	84
477.727	477.948	82	72
477.727	477.839	85	72
477.786	478.007	73	58
477.786	477.898	77	71
477.834	478.063	92	79
477.838	478.064	80	67
477.839	477.95	85	67
477.895	478.304	79	72
477.898	478.007	77	60
477.948	478.304	82	71
477.948	478.304	94	83
477.95	478.065	85	71
478.007	478.304	73	57
478.007	478.304	77	68
478.063	478.304	92	77
478.064	478.304	80	66
478.065	478.304	85	66
478.293	478.444	97	64
478.293	479.724	101	64
478.294	479.01	46	63
478.371	479.106	51	58
478.371	479.724	99	63
478.444	479.724	97	62
478.447	479.211	55	58
478.525	479.724	91	60
478.528	479.319	61	58
478.602	478.759	85	59
478.602	479.008	89	59
478.605	479.553	67	62
478.682	479.085	87	58
478.759	479.009	85	56
478.833	479.238	79	55
479.008	479.724	89	64
479.009	479.159	85	64
479.01	479.724	46	63
479.085	479.724	87	63
479.106	479.724	51	55
479.159	479.724	85	62
479.211	479.724	55	55
479.238	479.724	79	60
479.316	479.473	73	59
479.318	479.724	77	59
479.319	479.724	61	62
479.396	479.724	75	58
479.473	479.724	73	56
479.553	479.724	67	55
479.715	481.14	94	64
479.717	479.875	90	64
479.718	480.432	44	63
479.792	481.14	92	63
479.793	480.533	51	59
479.875	480.639	54	59
479.875	481.14	90	62
479.949	480.746	60	59
479.949	481.14	84	60
480.03	480.187	78	59
480.031	480.429	82	59
480.033	480.744	66	62
480.106	480.513	80	58
480.187	480.432	78	56
480.26	480.667	72	55
480.429	481.14	82	64
480.432	481.14	44	62
480.432	480.586	78	64
480.513	481.14	80	63
480.533	481.14	51	57
480.586	481.14	78	62
480.639	481.14	54	57
480.667	481.14	72	60
480.744	480.901	66	59
480.745	481.14	70	59
480.746	480.977	60	62
480.821	481.14	68	58
480.901	481.14	66	56
480.977	481.14	60	55
481.139	481.219	49	51
481.139	481.219	61	60
481.303	481.387	73	58
481.306	481.388	65	49
481.307	481.39	60	60
481.307	481.388	68	49
481.311	481.391	48	51
481.471	481.559	59	61
481.475	481.562	47	51
481.639	481.727	85	60
481.642	481.73	80	51
481.643	481.731	77	51
481.646	481.734	73	51
481.647	481.735	46	52
481.647	481.734	58	62
481.811	481.895	45	53
481.811	481.895	57	63
481.978	482.059	73	62
481.979	482.063	64	52
481.979	482.063	76	62
481.982	482.064	69	52
481.983	482.066	44	54
481.983	482.064	56	64
482.14	482.224	43	54
482.14	482.224	55	64
482.304	482.385	88	64
482.305	482.386	85	54
482.307	482.386	81	54
482.308	482.389	42	55
482.308	482.388	54	65
482.308	482.388	76	54
482.472	482.63	41	64
482.472	482.629	53	70
482.63	482.71	77	66
482.633	482.711	65	56
482.634	482.798	52	67
482.634	482.711	69	56
482.634	482.714	72	56
482.636	482.798	40	56
482.799	483.123	51	69
482.801	483.123	39	58
482.958	483.039	89	68
482.959	483.043	84	57
482.962	483.043	81	57
482.963	483.044	77	57
483.123	483.291	50	76
483.127	483.292	38	67
483.292	483.372	78	70
483.294	483.373	74	59
483.295	483.459	37	62
483.295	483.459	49	73
483.295	483.375	66	59
483.459	483.806	48	74
483.463	483.809	36	62
483.62	483.715	90	72
483.621	483.715	86	72
483.623	483.716	78	61
483.809	483.889	61	72
483.81	483.89	49	61
483.966	484.051	68	58
483.97	484.052	77	69
483.973	484.052	65	58
483.974	484.055	48	61
483.974	484.054	60	72
483.974	484.054	73	58
484.138	484.219	47	61
484.138	484.218	59	73
484.299	484.383	89	72
484.3	484.384	85	61
484.302	484.384	80	61
484.303	484.384	77	61
484.306	484.387	58	74
484.307	484.387	46	62
484.464	484.545	45	63
484.464	484.544	57	75
484.624	484.702	73	74
484.625	484.702	81	74
484.628	484.703	76	62
484.629	484.706	44	64
484.629	484.705	56	76
484.629	484.705	69	62
484.782	484.867	43	64
484.782	484.862	55	76
484.943	485.027	90	76
484.944	485.028	85	64
484.946	485.028	81	64
484.947	485.031	88	64
484.95	485.031	54	78
484.951	485.032	42	66
485.101	485.265	53	83
485.104	485.266	41	77
485.266	485.339	80	79
485.267	485.34	77	67
485.268	485.342	69	67
485.269	485.419	40	67
485.269	485.419	52	80
485.269	485.342	72	67
485.423	485.748	39	69
485.423	485.745	51	82
485.583	485.664	93	81
485.584	485.664	84	68
485.587	485.665	81	68
485.588	485.668	89	68
485.748	485.909	50	90
485.749	485.91	38	81
485.91	485.99	69	70
485.912	485.99	81	84
485.913	486.07	49	87
485.913	485.993	74	70
485.913	485.993	78	70
485.916	486.07	37	74
486.07	486.413	48	88
486.074	486.413	36	74
486.238	486.326	81	86
486.239	486.327	93	86
486.241	486.329	86	86
486.241	486.329	90	73
486.417	486.494	49	61
486.417	486.493	61	72
486.574	486.655	77	58
486.578	486.659	73	58
486.578	486.658	85	69
486.581	486.662	80	58
486.582	486.663	48	61
486.582	486.662	60	72
486.732	486.816	47	61
486.732	486.812	59	73
486.892	486.97	97	72
486.896	486.971	92	61
486.897	486.973	89	61
486.899	486.973	85	61
486.9	486.977	46	62
486.9	486.974	58	74
487.05	487.127	57	75
487.054	487.128	45	63
487.207	487.285	81	74
487.208	487.285	88	74
487.211	487.288	76	62
487.211	487.286	85	62
487.212	487.288	56	76
487.214	487.289	44	64
487.365	487.443	43	64
487.365	487.443	55	76
487.522	487.596	100	76
487.523	487.601	88	64
487.523	487.6	93	64
487.526	487.601	97	64
487.527	487.603	42	66
487.527	487.603	54	78
487.673	487.831	41	78
487.673	487.83	53	83
487.831	487.904	89	79
487.832	487.905	84	67
487.835	487.981	52	80
487.835	487.908	77	67
487.835	487.909	81	67
487.837	487.981	40	67
487.982	488.289	51	82
487.985	488.289	39	69
488.138	488.237	101	81
488.139	488.237	89	68
488.139	488.237	93	68
488.14	488.237	96	68
488.29	488.439	50	88
488.293	488.44	38	82
488.44	488.513	78	70
488.444	488.59	49	87
488.444	488.516	86	70
488.444	488.514	90	84
488.446	488.59	37	74
488.591	488.926	48	88
488.594	488.926	36	74
488.747	488.926	90	73
488.748	488.926	98	73
488.748	488.926	102	73
488.919	489.413	47	87
488.92	489.413	35	73
489.074	489.413	78	75
489.074	489.413	83	75
489.074	489.396	90	89
489.077	489.413	34	74
489.077	489.413	46	88
489.077	489.413	87	75
489.227	489.413	45	90
489.228	489.413	33	76
489.392	490.106	95	78
489.392	490.52	99	78
489.392	490.52	102	92
489.396	490.52	32	77
489.396	490.52	44	91
489.396	490.52	90	78
489.56	490.52	43	93
489.561	490.52	31	79
489.735	490.52	83	79
489.735	490.52	86	94
489.735	490.106	91	94
489.738	490.52	79	79
489.739	490.52	30	79
489.739	490.52	42	94
489.913	490.52	29	81
489.913	490.52	41	96
490.105	490.52	103	97
490.106	490.52	91	82
490.106	490.52	95	82
490.109	490.52	98	82
490.513	490.907	92	100
490.515	490.908	80	85
490.516	490.908	88	85
490.519	492.084	28	86
490.519	491.31	40	102
490.907	491.307	92	100
490.908	491.308	80	85
490.908	491.307	88	85
490.911	492.084	47	81
490.911	491.715	59	96
491.307	491.895	88	90
491.307	492.084	92	107
491.308	492.084	80	90
491.31	492.083	40	82
491.31	492.084	52	97
491.71	492.084	90	100
491.713	492.084	71	94
491.713	492.084	78	85
491.713	492.079	87	85
491.715	492.084	59	79
491.895	492.084	88	100
491.898	492.084	76	85
491.898	492.084	85	85
492.079	492.482	87	85
492.08	493.666	75	85
492.08	493.666	83	85
492.083	492.892	40	102
492.084	493.669	28	86
492.276	492.888	88	102
492.28	493.476	76	86
492.28	493.476	85	86
492.479	493.295	90	105
492.482	493.298	78	89
492.482	493.298	87	89
492.483	493.669	47	81
492.483	493.302	59	96
492.885	493.669	92	107
492.888	493.669	80	90
492.888	493.474	88	90
492.889	493.669	52	97
492.892	493.668	40	82
493.295	493.669	90	100
493.298	493.669	71	94
493.298	493.669	78	85
493.298	493.665	87	85
493.302	493.669	59	79
493.474	493.669	88	100
493.476	493.669	76	85
493.476	493.669	85	85
493.665	494.062	87	104
493.666	495.234	75	88
493.666	495.234	83	88
493.668	494.464	40	102
493.669	495.237	28	86
493.862	494.46	88	98
493.865	495.049	76	83
493.866	495.051	85	83
494.061	494.863	90	100
494.062	494.87	59	96
494.062	494.866	78	85
494.062	494.866	87	85
494.064	495.235	47	81
494.456	495.237	92	105
494.46	495.049	88	89
494.463	495.237	52	97
494.463	495.237	80	89
494.464	495.237	40	82
494.863	495.237	90	101
494.866	495.237	78	85
494.866	495.234	87	85
494.867	495.237	71	94
494.87	495.237	59	79
495.049	495.237	76	85
495.049	495.237	88	101
495.051	495.237	85	85
495.234	495.338	75	84
495.234	495.339	83	84
495.234	495.335	87	99
495.235	496.874	47	102
495.237	496.874	35	86
495.436	496.214	88	101
495.437	496.217	76	85
495.44	496.024	85	85
495.632	496.021	90	104
495.633	496.024	78	88
495.633	496.416	87	88
495.635	496.417	66	96
495.636	496.417	54	81
495.825	496.874	92	107
495.826	496.831	80	90
496.021	496.874	90	107
496.024	496.874	78	90
496.024	496.62	85	90
496.025	496.874	33	82
496.025	496.874	45	97
496.214	496.874	88	106
496.217	496.874	76	90
496.416	496.874	75	88
496.416	496.874	87	104
496.417	496.874	54	79
496.417	496.874	66	94
496.62	496.833	85	102
496.622	496.874	73	86
496.83	497.715	77	87
496.83	497.715	89	103
496.831	497.715	80	87
496.833	497.715	32	88
496.833	497.274	44	104
496.833	497.715	85	87
497.039	497.715	43	74
497.039	497.499	55	88
497.271	497.715	56	94
497.274	497.715	44	79
497.498	497.729	67	94
497.499	497.729	55	79
497.617	497.73	87	101
497.618	497.73	75	85
497.732	498.394	84	92
497.732	498.607	90	109
497.733	498.607	78	92
497.736	498.167	56	84
497.736	498.607	68	99
497.939	498.607	55	89
497.94	498.607	43	75
498.167	498.605	44	79
498.167	498.607	56	93
498.394	498.607	72	85
498.394	498.607	84	101
498.604	498.709	87	107
498.605	499.041	44	101
498.605	498.709	75	90
498.607	499.91	32	85
498.82	499.251	55	88
498.825	499.689	43	74
499.035	499.906	85	98
499.038	499.907	73	83
499.038	499.907	77	83
499.039	499.473	56	94
499.039	499.91	80	83
499.041	499.91	44	79
499.249	499.91	67	94
499.251	499.686	55	79
499.472	499.91	68	99
499.473	499.909	56	84
499.686	499.91	55	89
499.689	499.91	43	75
499.906	500.355	85	98
499.907	500.359	73	83
499.907	500.359	77	83
499.909	500.359	56	93
499.91	500.358	44	79
500.354	500.799	94	108
500.355	500.801	82	91
500.355	500.802	85	91
500.358	500.879	32	90
500.358	500.879	44	107
500.582	500.879	57	88
500.585	500.879	45	74
500.799	501.348	94	105
500.801	501.348	82	89
500.802	501.348	46	79
500.802	501.348	58	94
500.802	501.348	85	89
501.254	502.168	80	91
501.254	502.168	92	108
501.257	502.168	83	91
501.257	502.168	86	91
501.258	501.785	29	90
501.258	501.785	41	106
501.485	501.785	61	89
501.486	501.785	49	75
501.705	502.168	62	93
501.709	502.168	50	79
502.164	502.612	78	85
502.164	502.612	90	100
502.167	502.615	82	85
502.168	503.56	27	97
502.168	503.56	39	115
502.395	503.294	45	74
502.395	502.828	57	88
502.612	503.522	78	89
502.612	503.521	90	105
502.615	503.06	58	94
502.615	503.522	82	89
502.616	503.525	46	79
502.826	503.56	69	94
502.828	503.291	57	79
503.06	503.525	58	84
503.06	503.56	70	99
503.291	503.56	57	89
503.294	503.56	45	75
503.521	504.023	90	102
503.522	504.023	78	86
503.522	504.023	82	86
503.525	504.023	46	79
503.525	504.023	58	93
504.019	504.478	97	111
504.02	504.48	85	94
504.022	505.947	30	91
504.022	505.947	42	108
504.022	504.481	94	94
504.257	505.208	48	74
504.257	504.704	60	88
504.478	505.947	97	104
504.48	505.947	85	88
504.481	505.447	49	79
504.481	504.958	61	94
504.481	505.444	94	88
504.701	505.947	72	94
504.704	505.206	60	79
504.954	505.947	96	110
504.957	505.947	73	99
504.957	505.947	84	93
504.957	505.94	92	93
504.958	505.447	61	84
505.206	505.947	60	89
505.208	505.947	48	75
505.444	505.947	94	102
505.446	505.947	82	86
505.446	505.947	90	86
505.447	505.947	49	79
505.447	505.947	61	93
505.94	506.444	92	103
505.941	506.445	80	87
505.944	506.447	89	87
505.947	507.249	32	89
505.947	506.448	44	105
506.185	506.706	55	88
506.186	507.249	43	74
506.444	507.473	92	106
506.445	507.473	80	90
506.445	507.477	85	90
506.447	507.477	89	90
506.448	507.249	44	79
506.448	506.948	56	94
506.704	507.249	67	94
506.706	507.249	55	79
506.948	507.249	56	84
506.948	507.249	68	99
507.718	507.963	93	102
507.719	507.964	65	79
507.719	507.964	81	86
507.721	507.966	77	79
507.967	508.208	82	92
507.967	508.205	94	109
507.968	508.208	78	100
507.97	508.208	66	85
508.687	509.174	89	96
508.688	509.164	74	72
508.688	509.174	77	81
508.691	509.174	62	60
508.937	509.174	78	86
508.937	509.174	90	102
508.938	509.174	75	76
508.939	509.174	63	64
509.164	509.591	74	79
509.164	509.591	86	93
509.165	509.588	71	69
509.167	509.591	59	59
509.378	509.591	75	85
509.378	509.591	87	100
509.38	509.591	60	63
509.38	509.591	72	75
509.587	509.986	83	93
509.588	509.986	67	69
509.588	509.986	71	79
509.59	509.986	55	59
509.783	509.986	84	101
509.784	509.986	72	85
509.787	509.986	56	63
509.787	509.986	68	75
509.976	510.351	69	77
509.976	510.351	81	91
509.979	510.347	65	68
509.98	510.351	53	57
510.161	510.351	70	82
510.161	510.351	82	97
510.162	510.351	66	72
510.165	510.351	54	61
510.346	510.718	77	90
510.347	510.718	65	76
510.35	510.718	50	57
510.35	510.714	62	67
510.525	510.718	78	98
510.528	510.718	66	83
510.529	510.718	51	62
510.529	510.718	63	73
510.711	511.075	74	88
510.714	511.068	59	66
510.714	511.075	62	74
510.715	511.075	47	55
510.886	511.075	63	81
510.886	511.075	75	96
510.889	511.075	60	72
510.89	511.075	48	60
511.068	511.435	59	76
511.068	511.435	71	91
511.069	511.435	55	68
511.071	511.435	43	56
511.24	511.435	72	96
511.242	511.435	60	81
511.243	511.435	44	60
511.243	511.435	56	71
511.414	511.782	69	93
511.415	511.782	57	79
511.418	511.782	41	58
511.418	511.771	53	69
511.593	511.782	70	100
511.596	511.782	58	84
511.597	511.782	42	62
511.597	511.782	54	74
511.769	512.134	65	95
511.771	512.134	38	60
511.771	512.129	50	70
511.771	512.134	53	80
511.943	512.134	54	87
511.943	512.134	66	103
511.946	512.134	39	64
511.946	512.134	51	77
512.128	512.523	62	99
512.129	512.523	47	74
512.129	512.523	50	84
512.132	512.523	35	62
512.313	512.523	63	107
512.314	512.523	51	90
512.317	512.523	36	67
512.317	512.514	48	80
512.511	512.772	60	102
512.514	512.772	48	86
512.514	512.723	54	86
512.516	512.772	44	75
512.517	512.772	32	64
512.517	512.772	39	64
512.723	513.717	54	90
512.723	513.846	61	106
512.727	512.993	33	68
512.727	512.989	42	80
512.727	513.846	49	90
512.852	513.125	45	75
512.989	513.263	42	80
512.993	513.263	33	68
513.125	513.399	45	74
513.263	513.539	33	62
513.263	513.538	42	74
513.399	513.673	45	80
513.538	513.769	42	74
513.539	513.738	33	62
513.673	513.812	45	80
513.714	513.809	66	94
513.717	513.811	54	79
513.738	514.347	33	73
513.769	514.347	42	73
513.809	514.76	66	104
513.811	514.76	54	88
513.812	514.348	45	73
514.805	514.9	64	89
514.806	514.901	52	75
514.901	515.477	57	83
514.901	516.086	64	98
514.903	516.086	52	83
514.904	515.184	30	68
514.904	515.184	37	80
515.041	515.334	42	75
515.184	515.481	30	68
515.184	515.481	37	80
515.334	515.621	42	74
515.375	515.478	62	92
515.376	515.478	50	78
515.477	516.048	57	84
515.478	516.086	50	84
515.478	516.086	62	99
515.481	515.765	30	62
515.481	515.765	37	74
515.621	515.908	42	80
515.765	515.982	30	62
515.765	516.013	37	74
515.908	516.052	42	80
515.954	516.052	61	87
515.957	516.052	49	73
515.982	517.204	30	73
516.013	517.203	37	73
516.048	516.612	57	97
516.052	517.204	42	73
516.052	517.101	49	82
516.052	517.098	61	97
516.51	516.612	60	90
516.513	516.613	48	76
516.612	517.204	57	82
516.612	517.204	60	97
516.613	517.204	48	82
517.098	517.2	61	90
517.101	517.201	49	76
517.2	517.801	61	97
517.201	518.369	49	82
517.203	518.373	25	68
517.203	518.373	37	73
517.794	518.373	81	96
517.795	518.373	78	81
517.798	518.373	69	81
517.798	518.366	73	81
517.799	518.373	66	79
517.801	518.373	57	67
517.801	518.369	61	67
517.802	518.373	54	67
518.361	518.66	85	96
518.366	518.66	73	81
518.368	518.66	77	81
518.369	518.66	49	67
518.369	518.66	61	79
518.369	518.653	80	81
518.372	518.66	53	67
518.373	518.656	56	67
518.652	518.939	87	96
518.653	518.939	75	81
518.653	518.932	80	81
518.655	518.939	84	81
518.656	518.939	44	67
518.656	518.939	56	79
518.657	518.939	48	67
518.659	518.939	51	67
518.929	519.217	89	96
518.932	519.217	77	81
518.932	519.21	80	81
518.932	519.217	85	81
518.933	519.217	49	79
518.936	519.217	37	67
518.936	519.217	41	67
518.939	519.213	44	67
519.209	519.485	92	96
519.21	519.49	80	81
519.212	519.49	84	81
519.213	519.49	32	67
519.213	519.489	44	79
519.213	519.49	87	81
519.216	519.49	36	67
519.216	519.49	39	67
519.482	520.49	97	96
519.483	520.49	85	81
519.485	520.49	89	81
519.485	520.49	92	81
519.486	520.49	37	67
519.486	520.49	49	79
519.489	520.49	41	67
519.489	520.49	44	67
520.553	521.567	73	85
520.553	521.567	85	100
520.556	521.567	66	82
520.556	521.567	78	85
520.556	521.567	82	85
520.557	521.567	61	70
520.56	521.567	54	70
520.56	521.567	58	70
521.69	522.568	61	107
521.693	522.568	53	89
521.693	522.568	56	92
521.694	522.568	37	73
521.694	522.568	49	86
521.697	522.568	41	73
521.697	522.568	44	77
