OnsetTime	OffsetTime	MidiPitch	Velocity
0.516996	4.64398	51	61
0.520993	4.64398	55	61
0.521985	4.64799	36	54
0.521985	4.65098	39	54
0.521985	4.64799	60	72
0.524989	4.65098	43	54
0.524989	4.65199	48	63
4.65498	5.01598	55	40
4.65498	5.01898	60	47
4.65598	5.01898	51	36
5.02298	6.14596	55	42
5.02298	6.14697	59	42
5.02397	6.14697	62	50
5.02597	6.14697	50	41
6.14798	6.58298	55	39
6.14997	6.58797	48	36
6.14997	6.58697	60	46
6.14997	6.58697	63	46
6.58998	9.87397	57	42
6.58998	9.87697	60	50
6.59097	9.88097	54	39
6.59097	9.88097	63	50
9.88097	11.375	59	29
9.88196	11.376	62	36
9.88397	11.376	55	25
12.499	12.869	44	69
12.872	17.0	59	70
12.873	17.0	62	70
12.877	17.003	56	72
12.877	17.001	65	80
17.003	17.378	62	42
17.004	17.378	59	42
17.004	17.379	65	50
17.007	17.379	56	38
17.38	18.497	59	44
17.381	18.498	62	44
17.381	18.498	67	53
17.384	18.501	55	43
18.501	18.932	62	49
18.502	18.935	59	41
18.502	18.935	68	49
18.504	18.936	53	38
18.936	22.225	68	53
18.939	22.225	59	44
18.939	22.226	62	53
18.9399	23.719	51	37
22.226	23.72	60	31
22.229	23.726	63	31
22.229	23.723	67	38
24.8459	25.224	51	72
25.225	29.3479	66	74
25.225	29.3479	69	74
25.2279	29.3509	63	76
25.2279	29.349	72	85
29.3509	29.725	69	49
29.3519	29.7259	66	49
29.3519	29.7259	72	58
29.3549	29.727	63	45
29.7279	30.877	66	54
29.729	30.8799	69	54
29.729	30.8799	74	64
29.7319	30.8809	62	52
30.884	31.2899	69	67
30.8849	31.291	66	57
30.8849	31.2899	75	67
30.8869	31.2939	60	52
31.2939	34.489	75	74
31.2969	34.489	66	62
31.2969	34.4929	69	62
31.298	34.4929	60	65
34.4939	34.8669	62	35
34.4959	34.871	67	35
34.4959	34.8669	74	42
34.4969	34.871	59	35
35.6159	35.9939	69	51
35.6169	35.9949	66	51
35.6169	35.9949	72	60
35.6189	35.9969	63	47
35.9979	37.1949	66	56
35.9979	37.1949	69	56
36.0009	37.1949	74	67
36.0019	37.1979	62	54
37.1979	37.5899	69	70
37.1989	37.5909	75	70
37.2019	37.5929	60	54
37.2019	37.5909	66	59
37.5939	40.5939	66	65
37.5939	40.5929	75	77
37.5969	40.5939	69	65
37.5979	40.5939	60	71
40.5959	42.0179	67	47
40.5969	42.0189	59	43
40.5969	42.0209	62	51
40.5969	42.0179	74	55
42.0209	43.6659	67	53
42.0249	43.6699	72	53
42.0249	43.6699	76	63
42.0259	43.6699	64	57
42.0279	43.6729	58	48
42.0279	43.6729	60	48
43.6729	44.3699	68	58
43.6769	44.3739	65	64
43.6769	44.3699	72	58
43.6769	44.3709	77	70
43.6779	44.3739	60	53
43.6799	44.3749	56	53
45.0759	46.9979	80	84
46.5749	49.7319	34	84
46.5749	49.7349	46	84
47.0019	47.1909	79	61
47.1909	47.3719	80	63
47.3729	47.5549	82	65
47.5549	47.7359	80	67
47.7399	47.9159	79	67
47.9159	48.0899	77	67
48.0939	48.2689	75	67
48.2689	48.4579	74	67
48.4579	48.6459	72	67
48.6469	48.8459	70	67
48.8459	48.9299	68	63
48.9339	49.0309	67	62
49.0319	49.1229	65	60
49.1229	49.2209	63	59
49.2209	49.3219	62	58
49.3229	49.4199	65	57
49.4209	49.5219	68	55
49.5249	49.6329	65	54
49.6379	49.7359	62	53
49.7389	50.4809	39	45
49.7389	50.4809	63	50
49.7399	50.4839	51	50
50.4879	51.2289	51	22
50.4879	51.2339	55	27
50.4889	51.2339	58	32
51.2339	53.8539	63	46
51.2359	53.8549	75	55
51.2369	51.9789	51	22
51.2369	51.9799	55	27
51.2399	51.9819	58	32
51.9829	52.7279	51	22
51.9859	52.7309	55	27
51.9859	52.7309	58	32
52.7319	53.4829	51	22
52.7349	53.4839	55	27
52.7349	53.4839	58	32
53.4869	54.2329	51	22
53.4879	54.2339	55	27
53.4879	54.2359	58	32
53.8579	54.2359	63	46
53.8589	54.2369	75	55
54.2369	55.3599	65	48
54.2399	54.9819	51	22
54.2399	55.3599	77	57
54.2409	54.9819	55	27
54.2409	54.9829	58	32
54.9849	55.7719	51	22
54.9849	55.7729	55	27
54.9859	55.7729	58	32
55.3599	55.7739	67	49
55.3619	55.7759	79	59
55.7769	57.2739	67	49
55.7769	57.2739	79	59
55.7779	56.5249	51	23
55.7789	56.5259	56	27
55.7799	56.5259	60	33
56.5289	57.2779	51	24
56.5299	57.2779	56	28
56.5319	57.2789	60	34
57.2789	58.0238	65	42
57.2809	58.0238	51	24
57.2809	58.0238	77	50
57.2819	58.0269	56	28
57.2849	58.0269	60	34
58.0269	58.7719	51	24
58.0309	58.7728	56	28
58.0309	58.7728	60	34
58.3968	58.7758	65	90
58.7758	59.8568	53	81
58.7768	59.8568	56	81
58.7788	59.8578	59	81
58.7798	59.4968	38	68
58.7798	59.4968	50	81
58.7798	59.8608	65	96
59.4998	60.2178	38	68
59.4998	60.2178	50	81
59.8608	60.2188	53	74
59.8638	60.2218	56	74
59.8638	60.2218	59	74
59.8648	60.2218	65	89
60.2228	61.3018	53	79
60.2248	61.3028	56	79
60.2248	61.3058	60	79
60.2258	61.3068	65	93
60.2288	60.9428	36	68
60.2288	60.9428	48	81
60.9458	61.6908	36	68
60.9458	61.6918	48	81
61.3068	61.6918	53	79
61.3078	61.6948	56	79
61.3098	61.6948	60	79
61.3098	61.6958	65	93
61.6978	62.4398	53	79
61.6988	62.4408	56	79
61.6988	63.1968	62	79
61.7018	63.1968	65	93
61.7028	62.4438	35	68
61.7028	62.4438	47	81
62.4448	63.1978	47	18
62.4468	63.1998	50	18
62.4468	63.1998	53	23
62.4478	63.1998	56	28
63.2008	65.8168	65	46
63.2038	63.9448	47	18
63.2038	63.9458	50	18
63.2038	65.8208	77	55
63.2048	63.9458	53	23
63.2068	63.9488	56	28
63.9498	64.6938	47	18
63.9498	64.6938	50	18
63.9518	64.6948	53	23
63.9528	64.6978	56	28
64.6978	65.4398	46	18
64.6988	65.4438	50	18
64.6988	65.4438	53	23
64.7008	65.4438	56	28
65.4468	66.1918	46	18
65.4468	66.1928	50	18
65.4508	66.1928	53	23
65.4508	66.1938	56	28
65.8218	66.1948	65	46
65.8218	66.1958	77	55
66.1958	67.3158	67	48
66.1968	67.3188	79	57
66.1988	66.9448	46	18
66.1998	66.9458	50	18
66.1998	66.9458	53	23
66.2018	66.9478	56	28
66.9478	67.7358	46	18
66.9518	67.7358	50	18
66.9518	67.7358	53	23
66.9528	67.7398	56	28
67.3188	67.7398	68	49
67.3198	67.7398	80	59
67.7408	69.2337	68	49
67.7428	68.4848	46	19
67.7428	69.2348	80	59
67.7438	68.4858	49	19
67.7458	68.4858	52	24
67.7468	68.4878	55	28
68.4888	69.2348	46	19
68.4888	69.2348	49	19
68.4898	69.2368	52	25
68.4918	69.2368	55	29
69.2378	69.9798	67	46
69.2378	69.9827	79	55
69.2407	69.9827	46	19
69.2407	69.9868	49	19
69.2418	69.9868	52	25
69.2438	69.9868	55	29
69.9877	70.7348	46	19
69.9897	70.7387	49	19
69.9897	70.7387	52	25
69.9897	70.3567	55	29
70.3607	70.7387	55	75
70.3607	70.7418	61	75
70.3647	70.7427	64	75
70.3647	70.7427	67	90
70.7427	71.8127	57	81
70.7457	71.8167	61	81
70.7467	71.4557	33	68
70.7467	71.8197	63	81
70.7467	71.8197	69	96
70.7487	71.4568	45	81
71.4597	72.1807	33	68
71.4607	72.1807	45	81
71.8207	72.1817	57	74
71.8207	72.1837	61	74
71.8237	72.1837	63	74
71.8237	72.1847	69	89
72.1877	73.2627	58	79
72.1887	73.2627	61	79
72.1887	73.2627	63	79
72.1907	72.9017	31	68
72.1907	73.2647	70	93
72.1947	72.9017	43	81
72.9017	73.6257	31	68
72.9057	73.6267	43	81
73.2657	73.6287	58	79
73.2657	73.6297	61	79
73.2687	73.6297	63	79
73.2697	73.6337	70	93
73.6337	74.3647	57	79
73.6337	74.3657	62	79
73.6367	74.3657	30	68
73.6367	75.1067	66	79
73.6367	75.1067	69	93
73.6397	74.3677	42	81
74.3687	75.1077	54	24
74.3687	75.1097	57	28
74.3717	75.1097	62	34
75.1107	77.6997	69	46
75.1137	77.6997	81	55
75.1147	75.8477	54	24
75.1147	75.8527	57	28
75.1167	75.8527	62	34
75.8537	76.5867	54	24
75.8557	76.5877	57	28
75.8557	76.5907	62	34
76.5917	77.3287	54	24
76.5917	77.3327	57	28
76.5937	77.3327	62	34
77.3337	78.0677	54	24
77.3357	78.0677	57	28
77.3367	78.0717	62	34
77.7037	78.0717	69	46
77.7037	78.0717	81	55
78.0727	79.1807	71	48
78.0747	78.8087	54	24
78.0747	78.8097	57	28
78.0747	79.1847	83	57
78.0757	78.8137	62	34
78.8137	79.6007	54	24
78.8167	79.6017	57	28
78.8167	79.6017	62	34
79.1847	79.6037	72	49
79.1877	79.6037	84	59
79.6047	81.0977	72	49
79.6077	81.0987	84	59
79.6087	80.3497	53	25
79.6087	80.3497	56	29
79.6107	80.3507	62	35
80.3537	81.0987	53	25
80.3537	81.0997	56	30
80.3547	81.1027	62	36
81.1027	81.8226	71	46
81.1027	81.8266	83	55
81.1057	81.8266	53	25
81.1057	81.8277	56	30
81.1057	81.8277	62	36
81.8297	82.5436	53	25
81.8306	82.5436	56	30
81.8306	82.5446	62	36
82.5476	83.2756	50	35
82.5486	83.2756	53	42
82.5486	83.2796	59	50
83.2796	83.9926	50	35
83.2806	83.9956	53	42
83.2806	83.9966	59	50
83.9966	85.0816	71	71
84.0006	84.7066	50	35
84.0006	84.7106	53	42
84.0006	85.0826	83	71
84.0026	84.7116	59	50
84.7116	85.4526	50	35
84.7136	85.4526	53	42
84.7146	85.4536	59	50
85.0826	85.4536	72	62
85.0846	85.4556	84	74
85.4566	86.9126	73	80
85.4566	86.9156	85	80
85.4596	86.1846	47	47
85.4596	86.1846	50	47
85.4606	86.1856	56	56
86.1876	86.9156	47	49
86.1876	86.9186	50	49
86.1886	86.9196	56	58
86.9196	88.3086	74	85
86.9206	88.3096	86	85
86.9226	87.6086	47	44
86.9226	87.6126	50	44
86.9226	87.6126	56	52
87.6166	88.3096	47	44
87.6166	88.3106	50	44
87.6176	88.3116	56	52
88.3126	89.0046	44	45
88.3126	89.0056	47	53
88.3156	89.0056	53	63
89.0086	89.7196	44	45
89.0096	89.7196	47	53
89.0096	89.7206	53	63
89.7226	90.7906	74	90
89.7226	90.7936	86	91
89.7236	90.4336	44	45
89.7236	90.4336	47	53
89.7266	90.4336	53	63
90.4356	91.1926	44	45
90.4366	91.1936	47	53
90.4366	91.1956	53	63
90.7936	91.1966	75	80
90.7966	91.1966	87	82
91.1966	92.6206	76	88
91.2006	91.9066	43	45
91.2006	91.9076	47	53
91.2006	92.6206	88	88
91.2026	91.9096	53	64
91.9106	92.6246	43	45
91.9106	92.6246	47	53
91.9136	92.6256	53	64
92.6256	95.4066	77	88
92.6276	95.4096	89	90
92.6286	93.3346	43	45
92.6286	93.3346	47	53
92.6316	93.3356	53	64
93.3386	94.0446	43	45
93.3386	94.0456	47	53
93.3396	94.0456	53	64
94.0466	94.7206	44	46
94.0486	94.7236	48	55
94.0486	94.7246	53	66
94.7246	95.4106	44	48
94.7286	95.4106	48	57
94.7286	95.4106	53	68
95.4146	96.1276	44	50
95.4146	96.9846	77	96
95.4146	96.9856	89	96
95.4166	96.1286	48	60
95.4176	96.1306	53	70
96.1306	96.9896	44	51
96.1316	96.9896	48	61
96.1316	96.9896	53	73
96.9926	98.7736	77	96
96.9926	98.7746	89	96
96.9936	98.4126	43	75
96.9956	98.4136	47	75
96.9966	98.4166	53	75
98.7746	98.9486	87	62
98.9496	99.1276	86	62
99.1276	99.3086	89	62
99.3096	99.4876	87	62
99.4886	99.6626	86	62
99.6636	99.8416	84	62
99.8416	100.202	83	62
100.567	100.951	83	52
101.332	101.735	77	39
101.336	101.735	83	47
101.337	101.739	67	35
101.337	101.739	74	42
102.134	102.571	77	40
102.138	102.572	67	35
102.138	102.572	83	48
102.139	102.575	74	42
103.006	104.486	75	40
103.007	104.487	68	35
103.007	104.487	84	48
103.009	104.49	72	42
108.83	110.612	84	65
110.612	110.793	83	61
110.794	110.969	84	63
110.972	111.087	86	66
111.088	111.203	84	65
111.206	111.325	82	64
111.326	111.448	80	63
111.448	111.564	79	61
111.564	111.685	82	60
111.686	112.053	80	62
112.428	112.816	80	49
113.205	113.601	60	28
113.205	113.6	80	47
113.209	113.603	53	28
113.209	113.604	62	34
113.996	114.437	80	48
113.997	114.44	53	28
113.997	114.437	60	28
113.999	114.44	62	34
114.877	115.7	79	50
114.878	116.436	55	28
114.878	116.432	60	28
114.881	116.436	63	34
115.704	116.554	87	65
116.557	116.67	86	52
116.673	116.793	85	52
116.795	116.908	84	52
116.912	117.027	83	52
117.027	117.143	82	53
117.143	117.24	81	53
117.241	117.345	80	53
117.346	117.444	79	53
117.444	117.541	78	54
117.542	117.643	77	54
117.644	117.741	76	54
117.741	117.79	75	54
117.794	118.524	43	33
117.794	117.884	74	54
117.796	118.525	50	33
117.797	118.525	53	40
117.888	117.979	73	55
117.98	118.07	72	55
118.07	118.164	71	56
118.165	118.248	70	56
118.252	118.343	69	56
118.343	118.43	68	57
118.431	118.528	67	57
118.529	118.616	66	57
118.616	118.704	65	58
118.704	118.79	64	57
118.791	118.878	63	57
118.879	118.969	62	58
118.969	119.057	61	63
119.057	119.147	60	68
119.152	119.242	59	73
119.246	120.299	68	82
120.299	120.614	59	68
120.614	121.216	60	50
120.615	120.821	36	44
120.715	120.922	48	41
120.821	121.022	36	44
120.922	121.118	48	41
121.022	121.22	36	44
121.118	121.22	48	41
121.221	121.294	58	52
121.221	121.294	64	52
121.223	121.412	36	45
121.315	121.415	48	41
121.416	121.482	56	54
121.416	121.486	65	54
121.419	121.605	36	45
121.507	121.605	48	46
121.609	121.681	64	56
121.609	121.682	67	56
121.61	121.804	36	47
121.703	121.805	48	47
121.805	121.874	65	57
121.808	121.993	36	49
121.808	121.874	68	57
121.895	121.994	48	50
121.997	122.063	62	59
121.997	122.064	71	59
122.001	122.186	36	51
122.095	122.186	48	53
122.187	122.267	63	61
122.189	122.4	36	55
122.189	122.27	72	61
122.295	122.494	48	50
122.396	122.791	64	55
122.399	122.791	72	55
122.4	122.596	36	53
122.494	122.686	48	47
122.596	122.789	36	53
122.686	122.791	48	47
122.788	122.858	70	51
122.789	122.981	36	44
122.789	122.861	76	51
122.882	122.983	48	40
122.984	123.05	68	53
122.984	123.053	77	53
122.987	123.173	36	43
123.078	123.174	48	45
123.176	123.25	76	55
123.176	123.25	79	55
123.177	123.368	36	46
123.271	123.369	48	47
123.372	123.439	77	57
123.375	123.44	80	57
123.376	123.562	36	48
123.463	123.562	48	50
123.563	123.631	74	59
123.565	123.754	36	51
123.565	123.632	83	59
123.655	123.755	48	53
123.755	124.16	72	51
123.757	124.16	75	51
123.757	124.157	79	61
123.758	123.954	36	55
123.758	124.16	84	61
123.852	124.048	48	50
123.954	124.16	36	53
124.048	124.16	48	47
124.154	124.556	67	53
124.156	124.559	71	53
124.157	124.559	77	63
124.157	124.559	79	63
124.16	124.346	38	55
124.248	124.443	50	50
124.346	124.559	38	55
124.443	124.559	50	51
124.556	124.952	67	56
124.557	124.952	72	56
124.559	124.744	39	55
124.559	124.952	75	67
124.646	124.846	51	55
124.744	124.952	39	55
124.846	124.952	51	55
124.948	125.347	65	60
124.951	125.143	41	55
124.951	125.347	68	60
124.951	125.347	74	71
125.042	125.238	53	53
125.143	125.347	41	55
125.238	125.347	53	55
125.344	126.554	63	62
125.346	125.75	67	74
125.347	125.543	43	56
125.347	126.554	72	74
125.444	125.64	55	56
125.543	125.75	43	57
125.64	125.75	55	57
125.749	126.152	66	74
125.75	125.942	44	58
125.844	126.039	56	59
125.942	126.152	44	59
126.039	126.152	56	60
126.148	126.554	69	77
126.152	126.345	42	60
126.242	126.445	54	55
126.345	126.554	42	61
126.445	126.554	54	55
126.551	126.957	62	62
126.552	126.957	65	62
126.553	126.957	71	74
126.554	126.751	43	58
126.641	126.848	55	55
126.751	126.957	43	58
126.848	126.957	55	55
126.95	127.025	60	67
126.952	127.026	63	67
126.954	127.03	72	79
126.955	127.155	36	48
127.051	127.155	48	45
127.155	127.551	60	67
127.159	127.355	36	44
127.253	127.449	48	41
127.355	127.552	36	44
127.449	127.552	48	40
127.553	127.624	58	52
127.555	127.746	36	44
127.555	127.626	64	52
127.649	127.746	48	41
127.748	127.817	56	54
127.751	127.939	36	44
127.751	127.817	65	54
127.842	127.941	48	46
127.941	128.012	64	55
127.942	128.017	67	55
127.944	128.133	36	47
128.038	128.133	48	47
128.133	128.204	65	57
128.133	128.21	68	57
128.135	128.328	36	49
128.229	128.328	48	50
128.332	128.517	36	51
128.332	128.397	62	59
128.332	128.399	71	59
128.42	128.521	48	53
128.521	128.593	63	61
128.523	128.594	72	61
128.524	128.734	36	55
128.622	128.821	48	50
128.731	129.126	64	55
128.731	129.126	72	55
128.734	128.922	36	53
128.821	129.017	48	47
128.922	129.123	36	53
129.017	129.126	48	47
129.122	129.184	70	51
129.122	129.189	76	51
129.123	129.307	36	44
129.209	129.308	48	40
129.311	129.385	68	53
129.312	129.506	36	43
129.312	129.385	77	53
129.406	129.507	48	45
129.507	129.573	76	55
129.508	129.574	79	55
129.511	129.696	36	46
129.598	129.697	48	47
129.697	129.766	77	57
129.699	129.766	80	57
129.7	129.888	36	48
129.79	129.889	48	50
129.889	129.965	74	59
129.892	129.966	83	59
129.893	130.085	36	51
129.986	130.088	48	53
130.088	130.491	72	51
130.089	130.491	79	61
130.092	130.285	36	55
130.092	130.491	75	51
130.092	130.491	84	61
130.182	130.382	48	50
130.285	130.491	36	53
130.382	130.491	48	47
130.487	130.882	67	53
130.487	130.886	71	53
130.488	130.886	77	63
130.491	130.673	38	55
130.491	130.886	79	63
130.578	130.778	50	50
130.673	130.886	38	55
130.778	130.886	50	51
130.882	131.281	67	56
130.883	131.281	72	56
130.883	131.281	75	67
130.886	131.075	39	55
130.973	131.173	51	55
131.075	131.281	39	55
131.173	131.281	51	55
131.275	131.681	65	60
131.278	131.681	68	60
131.279	131.471	41	55
131.279	131.681	74	71
131.369	131.572	53	53
131.471	131.681	41	55
131.572	131.681	53	55
131.677	133.284	63	62
131.677	132.076	67	74
131.678	131.87	43	56
131.678	133.284	72	74
131.771	131.971	55	56
131.87	132.076	43	57
131.971	132.076	55	57
132.074	132.483	66	74
132.076	132.276	44	58
132.174	132.374	56	59
132.276	132.483	44	59
132.374	132.483	56	60
132.482	133.284	69	77
132.483	132.678	42	60
132.576	132.772	54	55
132.678	132.875	42	61
132.772	132.877	54	55
132.875	133.07	42	58
132.969	133.168	54	55
133.07	133.284	42	58
133.168	133.284	54	55
133.278	133.476	62	55
133.28	133.477	67	55
133.28	133.477	71	55
133.281	133.479	43	55
133.284	133.48	55	55
133.48	133.684	62	50
133.484	133.685	59	50
133.683	134.478	67	80
133.683	134.48	79	80
133.684	133.885	62	50
133.685	133.883	59	50
133.883	134.085	59	50
133.885	134.085	62	50
134.082	134.88	55	50
134.281	134.48	63	50
134.282	134.481	60	50
134.478	134.973	67	80
134.48	134.68	63	50
134.48	134.974	79	80
134.481	134.681	60	50
134.68	134.88	63	50
134.681	134.88	60	50
134.879	135.065	65	50
134.88	135.068	62	50
134.974	135.069	77	70
135.069	135.163	74	69
135.166	135.258	71	69
135.258	135.358	67	68
135.359	135.453	65	67
135.454	135.548	62	66
135.548	135.65	59	65
135.65	135.747	60	65
135.748	135.838	63	64
135.838	135.937	60	65
135.94	136.034	55	65
136.039	136.136	32	55
136.039	136.132	54	64
136.139	136.234	60	64
136.14	136.234	44	55
136.235	136.331	56	63
136.238	136.332	32	55
136.332	136.433	54	65
136.336	136.434	44	55
136.434	137.239	55	67
136.435	137.246	31	50
136.437	137.246	43	50
136.637	136.848	62	50
136.64	136.848	59	50
136.847	137.641	67	80
136.847	137.642	79	80
136.848	137.042	59	50
136.848	137.043	62	50
137.042	137.246	59	50
137.043	137.246	62	50
137.239	138.037	55	50
137.445	137.642	63	50
137.446	137.644	60	50
137.641	138.131	67	80
137.642	137.838	63	50
137.642	138.131	79	80
137.644	137.838	60	50
137.838	138.037	60	50
137.838	138.037	63	50
138.036	138.222	65	50
138.037	138.226	62	50
138.135	138.226	77	72
138.229	138.323	74	71
138.324	138.414	71	70
138.418	138.513	67	69
138.516	138.606	65	68
138.607	138.705	62	67
138.706	138.8	59	66
138.8	138.897	60	65
138.898	138.992	63	64
138.993	139.09	60	64
139.09	139.188	55	67
139.188	139.286	54	66
139.189	139.387	32	55
139.29	139.388	44	55
139.29	139.387	60	64
139.388	139.482	56	62
139.391	139.583	32	55
139.486	139.584	54	60
139.487	139.584	44	49
139.588	139.78	31	50
139.588	139.78	55	67
139.681	139.783	43	51
139.783	139.857	66	67
139.784	139.979	31	51
139.878	139.98	43	52
139.98	140.049	67	69
139.982	140.167	31	53
140.077	140.172	43	54
140.172	140.245	66	71
140.173	140.246	72	71
140.175	140.36	31	55
140.266	140.36	43	56
140.364	140.434	67	73
140.364	140.438	71	73
140.365	140.556	31	57
140.459	140.56	43	58
140.561	140.626	72	75
140.561	140.63	78	75
140.563	140.749	31	59
140.651	140.749	43	60
140.753	140.819	71	77
140.754	140.819	79	77
140.756	140.941	31	61
140.84	140.942	43	61
140.942	141.011	84	79
140.946	141.131	31	62
140.946	141.012	78	79
141.032	141.134	43	63
141.134	141.232	83	81
141.138	141.326	31	64
141.138	141.233	79	81
141.233	141.327	43	55
141.327	141.522	31	61
141.425	141.523	43	55
141.523	141.719	31	61
141.62	141.72	43	55
141.722	141.911	31	60
141.817	141.912	43	55
141.915	142.699	58	81
141.915	142.702	61	81
141.915	142.905	63	84
141.916	142.107	31	64
142.009	142.107	43	55
142.111	142.306	31	61
142.208	142.306	43	55
142.307	142.502	31	61
142.405	142.503	43	55
142.506	142.702	31	60
142.6	142.703	43	55
142.706	142.906	60	67
142.707	142.906	32	50
142.804	142.908	44	51
142.908	142.978	73	67
142.909	143.101	32	51
143.003	143.101	44	52
143.105	143.293	32	53
143.105	143.174	72	69
143.199	143.294	44	54
143.294	143.367	73	71
143.297	143.367	79	71
143.298	143.49	32	55
143.388	143.49	44	56
143.49	143.559	72	73
143.494	143.682	32	57
143.494	143.56	80	73
143.584	143.682	44	58
143.683	143.749	79	75
143.686	143.874	32	59
143.686	143.751	85	75
143.773	143.875	44	60
143.875	143.944	80	77
143.876	143.945	84	77
143.878	144.064	32	61
143.966	144.064	44	61
144.065	144.134	85	79
144.067	144.256	32	62
144.067	144.134	79	79
144.158	144.257	44	63
144.257	144.354	84	81
144.259	144.452	32	64
144.259	144.354	80	81
144.355	144.456	44	55
144.456	144.645	32	61
144.55	144.645	44	55
144.648	144.84	32	61
144.742	144.844	44	55
144.845	145.04	32	60
144.942	145.04	44	55
145.041	145.824	60	81
145.044	145.236	33	64
145.044	145.825	63	81
145.044	145.825	66	84
145.138	145.239	45	55
145.24	145.428	33	61
145.334	145.429	45	55
145.432	145.625	33	61
145.533	145.628	45	55
145.628	145.825	33	60
145.723	145.827	45	55
145.828	146.03	62	67
145.828	146.034	65	67
145.831	146.034	34	50
145.929	146.034	46	51
146.037	146.1	69	62
146.038	146.104	75	67
146.04	146.223	34	51
146.125	146.223	46	52
146.227	146.293	70	65
146.227	146.293	74	69
146.228	146.415	34	53
146.314	146.416	46	54
146.416	146.485	75	71
146.42	146.605	34	55
146.42	146.486	81	71
146.506	146.608	46	56
146.608	146.675	74	73
146.612	146.678	82	73
146.613	146.8	34	57
146.699	146.801	46	58
146.801	146.867	81	75
146.802	146.868	87	75
146.804	146.99	34	59
146.899	146.99	46	60
146.991	147.059	82	77
146.993	147.182	34	61
146.993	147.06	86	77
147.091	147.183	46	61
147.183	147.252	87	79
147.185	147.375	34	62
147.185	147.252	81	79
147.273	147.375	46	63
147.375	147.472	86	81
147.378	147.473	82	81
147.379	147.571	34	64
147.473	147.571	46	55
147.574	147.763	34	61
147.665	147.764	46	55
147.764	148.151	75	81
147.766	148.152	81	81
147.767	147.959	34	61
147.861	147.959	46	55
147.963	148.152	34	60
148.05	148.155	46	55
148.155	148.34	74	81
148.156	148.344	82	81
148.158	148.345	34	64
148.25	148.347	46	55
148.348	148.54	34	61
148.442	148.54	46	55
148.541	148.925	69	81
148.544	148.732	34	61
148.544	148.925	75	81
148.638	148.733	46	55
148.733	148.926	34	60
148.831	148.929	46	55
148.929	149.121	70	81
148.93	149.124	34	64
148.93	149.122	74	81
149.023	149.124	46	55
149.125	149.317	34	61
149.219	149.318	46	55
149.32	149.702	63	81
149.321	149.51	34	61
149.321	149.703	69	81
149.418	149.51	46	55
149.511	149.703	34	60
149.608	149.704	46	55
149.705	149.898	62	81
149.706	149.902	34	64
149.706	149.898	70	81
149.8	149.902	46	55
149.902	150.09	34	61
149.996	150.091	46	55
150.091	150.486	57	81
150.094	150.486	63	81
150.095	150.286	34	61
150.189	150.287	46	55
150.291	150.487	34	60
150.384	150.487	46	55
150.49	150.682	58	81
150.491	150.683	46	55
150.491	150.683	62	81
150.493	150.685	34	64
150.686	150.885	57	50
150.885	151.088	58	59
151.092	151.291	57	56
151.292	151.494	58	57
151.498	151.69	57	49
151.693	151.896	58	57
151.897	152.1	57	51
152.1	152.895	58	44
152.302	152.404	46	55
152.303	152.506	63	38
152.303	152.506	66	38
152.506	152.603	51	58
152.508	152.701	63	38
152.509	152.701	66	38
152.702	152.8	53	61
152.705	152.895	63	38
152.705	152.895	66	38
152.897	152.995	54	64
152.898	153.703	58	44
153.104	153.303	63	38
153.104	153.202	70	62
153.105	153.307	66	38
153.308	153.405	75	64
153.31	153.503	63	38
153.31	153.503	66	38
153.503	153.601	77	66
153.507	153.704	63	38
153.507	153.704	66	38
153.653	153.704	70	65
153.706	154.507	58	44
153.706	154.304	78	75
153.902	154.109	63	38
153.903	154.109	66	38
154.11	154.305	63	38
154.11	154.308	66	38
154.309	154.508	63	38
154.309	154.508	75	63
154.311	154.511	66	38
154.455	154.512	70	60
154.512	155.11	78	71
154.515	155.316	58	44
154.711	154.913	63	38
154.711	154.914	66	38
154.917	155.113	63	38
154.918	155.113	66	38
155.117	155.317	63	38
155.117	155.317	75	58
155.118	155.317	66	38
155.32	155.522	74	60
155.321	156.115	58	44
155.523	155.621	46	57
155.527	155.722	65	38
155.527	155.722	68	38
155.723	155.82	53	60
155.723	155.918	65	38
155.726	155.918	68	38
155.921	156.016	54	63
155.922	156.115	65	38
155.922	156.118	68	38
156.118	156.212	56	66
156.122	156.923	58	44
156.321	156.523	65	38
156.321	156.521	70	59
156.322	156.524	68	38
156.524	156.72	80	62
156.528	156.72	65	38
156.528	156.721	68	38
156.723	156.926	65	38
156.723	156.924	78	65
156.724	156.927	68	38
156.927	156.968	78	60
156.93	157.735	58	44
156.972	157.021	80	60
157.021	157.125	78	67
157.126	157.329	65	38
157.126	157.329	77	60
157.129	157.332	68	38
157.332	157.374	77	60
157.333	157.531	65	38
157.333	157.532	68	38
157.378	157.427	78	60
157.427	157.535	77	67
157.536	157.739	65	38
157.536	157.735	75	60
157.538	157.739	68	38
157.739	157.788	75	60
157.742	158.547	58	44
157.788	157.832	77	60
157.833	157.938	75	66
157.941	158.141	74	60
157.942	158.144	65	38
157.942	158.145	68	38
158.145	158.242	72	60
158.147	158.344	65	38
158.148	158.347	68	38
158.347	158.448	74	60
158.351	158.547	65	38
158.351	158.55	68	38
158.55	158.756	75	60
158.554	159.349	58	44
158.757	158.854	46	55
158.761	158.956	63	38
158.761	158.956	66	38
158.956	159.055	51	58
158.957	159.152	63	38
158.96	159.153	66	38
159.153	159.25	53	61
159.155	159.349	63	38
159.155	159.352	66	38
159.352	159.446	54	64
159.353	160.157	58	44
159.555	159.754	63	38
159.555	159.653	70	62
159.556	159.755	66	38
159.758	159.954	63	38
159.758	159.852	75	64
159.761	159.954	66	38
159.954	160.058	77	66
159.955	160.158	63	38
159.957	160.158	66	38
160.104	160.16	70	65
160.16	160.759	78	75
160.161	160.962	58	44
160.359	160.556	63	38
160.36	160.559	66	38
160.559	160.759	63	38
160.56	160.762	66	38
160.763	160.966	75	63
160.765	160.966	63	38
160.765	160.969	66	38
160.913	160.969	70	60
160.969	161.56	78	71
160.97	161.763	58	44
161.165	161.364	63	38
161.165	161.365	66	38
161.365	161.564	63	38
161.367	161.564	66	38
161.565	161.764	63	38
161.565	161.764	75	58
161.567	161.766	66	38
161.766	161.974	72	60
161.77	162.558	56	44
161.974	162.071	44	57
161.976	162.173	63	38
161.977	162.173	66	38
162.174	162.271	51	60
162.174	162.368	63	38
162.176	162.369	66	38
162.369	162.46	53	63
162.372	162.561	63	38
162.373	162.561	66	38
162.565	162.662	54	66
162.565	163.366	56	44
162.764	162.964	68	59
162.765	162.968	63	38
162.765	162.968	66	38
162.97	163.17	78	62
162.971	163.17	63	38
162.971	163.171	66	38
163.171	163.367	77	65
163.174	163.369	63	38
163.174	163.37	66	38
163.37	164.178	56	44
163.37	163.419	77	60
163.42	163.471	78	60
163.471	163.57	77	67
163.57	163.776	75	60
163.571	163.779	63	38
163.573	163.783	66	38
163.783	163.825	75	60
163.784	163.978	63	38
163.784	163.979	66	38
163.825	163.877	77	60
163.877	163.979	75	67
163.98	164.182	63	38
163.98	164.178	73	60
163.983	164.182	66	38
164.185	164.997	56	44
164.185	164.23	73	60
164.231	164.283	75	60
164.284	164.388	73	66
164.389	164.592	63	38
164.389	164.591	72	60
164.392	164.592	66	38
164.594	164.689	70	60
164.595	164.794	63	38
164.595	164.794	66	38
164.798	164.997	63	38
164.798	164.892	72	60
164.799	164.998	66	38
165.0	165.2	73	60
165.001	165.792	56	44
165.201	165.298	44	55
165.204	165.403	61	38
165.204	165.403	65	38
165.404	165.498	49	58
165.407	165.595	61	38
165.407	165.596	65	38
165.596	165.694	51	61
165.599	165.795	61	38
165.6	165.795	65	38
165.796	165.896	53	64
165.796	166.6	56	44
165.995	166.103	68	62
165.996	166.204	61	38
165.998	166.205	65	38
166.205	166.302	73	64
166.209	166.401	61	38
166.209	166.401	65	38
166.404	166.601	61	38
166.404	166.503	75	66
166.408	166.601	65	38
166.551	166.603	68	65
166.603	167.202	77	75
166.604	167.405	56	44
166.804	167.006	61	38
166.804	167.007	65	38
167.01	167.203	61	38
167.011	167.206	65	38
167.206	167.409	73	63
167.209	167.409	61	38
167.21	167.41	65	38
167.353	167.412	68	60
167.412	168.007	77	71
167.413	168.213	56	44
167.608	167.812	61	38
167.608	167.815	65	38
167.815	168.011	61	38
167.816	168.014	65	38
168.014	168.214	73	58
168.015	168.214	61	38
168.015	168.217	65	38
168.218	169.008	56	44
168.218	168.417	72	60
168.417	168.521	44	57
168.421	168.62	63	38
168.421	168.62	66	38
168.621	168.718	51	60
168.623	168.813	63	38
168.623	168.813	66	38
168.813	168.91	53	63
168.815	169.008	63	38
168.816	169.012	66	38
169.012	169.114	54	66
169.013	169.813	56	44
169.211	169.415	68	59
169.215	169.415	63	38
169.215	169.418	66	38
169.418	169.617	78	62
169.422	169.618	63	38
169.422	169.621	66	38
169.621	169.817	77	65
169.622	169.82	63	38
169.624	169.821	66	38
169.821	169.869	77	60
169.822	170.629	56	44
169.87	169.918	78	60
169.919	170.02	77	67
170.02	170.219	75	60
170.021	170.224	63	38
170.023	170.226	66	38
170.226	170.272	75	60
170.227	170.426	63	38
170.227	170.426	66	38
170.275	170.328	77	60
170.328	170.427	75	67
170.43	170.63	63	38
170.43	170.63	73	60
170.431	170.632	66	38
170.632	170.681	73	60
170.633	171.44	56	44
170.681	170.734	75	60
170.734	170.831	73	66
170.832	171.035	63	38
170.832	171.035	72	60
170.835	171.036	66	38
171.039	171.238	63	38
171.039	171.139	70	60
171.04	171.238	66	38
171.241	171.343	72	57
171.242	171.441	63	38
171.242	171.441	66	38
171.444	171.647	73	60
171.445	171.847	61	54
171.651	171.848	49	73
171.655	171.848	65	53
171.655	171.85	68	53
171.851	172.047	56	77
171.854	172.253	59	60
172.047	172.148	47	73
172.048	172.253	65	53
172.05	172.256	68	53
172.256	172.355	46	77
172.26	173.061	58	53
172.455	172.659	70	59
172.459	172.659	65	38
172.46	172.663	68	38
172.663	172.862	80	62
172.666	172.865	65	38
172.666	172.865	68	38
172.866	173.062	78	65
172.869	173.062	65	38
172.87	173.064	68	38
173.065	173.873	58	44
173.065	173.114	78	60
173.115	173.166	80	60
173.167	173.264	78	67
173.264	173.467	77	60
173.268	173.468	65	38
173.268	173.468	68	38
173.471	173.52	77	60
173.472	173.671	65	38
173.472	173.671	68	38
173.52	173.572	78	60
173.572	173.674	77	67
173.674	173.874	65	38
173.674	173.873	75	60
173.675	173.877	68	38
173.877	173.926	75	60
173.878	174.692	58	44
173.926	173.978	77	60
173.979	174.076	75	66
174.077	174.28	74	60
174.079	174.28	65	38
174.08	174.281	68	38
174.283	174.489	65	38
174.283	174.384	72	60
174.284	174.489	68	38
174.49	174.588	74	57
174.493	174.693	65	38
174.493	174.693	68	38
174.696	175.098	63	54
174.696	174.903	75	60
174.903	175.099	51	73
174.904	175.102	66	53
174.906	175.102	70	53
175.103	175.295	58	77
175.103	175.504	61	60
175.295	175.399	49	73
175.298	175.504	65	53
175.298	175.504	70	53
175.508	175.609	48	77
175.511	176.316	60	53
175.707	175.918	72	59
175.708	175.918	67	38
175.711	175.921	70	38
175.921	176.113	82	62
175.922	176.117	67	38
175.922	176.117	70	38
176.118	176.317	80	65
176.12	176.319	67	38
176.12	176.32	70	38
176.32	176.365	80	60
176.324	177.128	60	44
176.366	176.418	82	60
176.419	176.52	80	67
176.523	176.723	67	38
176.523	176.722	79	60
176.524	176.726	70	38
176.727	176.925	67	38
176.727	176.768	79	60
176.729	176.929	70	38
176.768	176.824	80	60
176.824	176.929	79	67
176.929	177.128	77	60
176.933	177.132	67	38
176.933	177.132	70	38
177.135	177.943	60	44
177.135	177.178	77	60
177.178	177.23	79	60
177.23	177.331	77	66
177.335	177.537	76	60
177.336	177.538	67	38
177.336	177.538	70	38
177.539	177.741	74	60
177.541	177.742	67	38
177.542	177.742	70	38
177.744	177.944	67	38
177.744	177.944	76	57
177.745	177.947	70	38
177.948	178.756	65	44
177.948	177.989	79	60
177.99	178.042	80	60
178.043	178.144	79	67
178.147	178.351	68	38
178.147	178.35	77	60
178.151	178.351	72	38
178.353	178.402	77	60
178.354	178.552	68	38
178.354	178.553	72	38
178.402	178.448	79	60
178.448	178.553	77	67
178.556	178.756	75	60
178.557	178.757	68	38
178.557	178.759	72	38
178.759	178.805	75	60
178.76	179.162	58	44
178.809	178.858	77	60
178.861	178.959	75	66
178.96	179.166	65	38
178.96	179.162	74	60
178.962	179.166	68	38
179.166	179.365	72	60
179.167	179.567	59	44
179.169	179.365	65	38
179.169	179.366	68	38
179.368	179.571	65	38
179.368	179.568	74	57
179.372	179.572	68	38
179.572	179.62	77	60
179.574	180.38	60	44
179.621	179.673	79	60
179.674	179.771	77	67
179.771	179.974	75	59
179.772	179.975	63	37
179.775	179.977	67	37
179.978	180.026	75	58
179.981	180.176	63	36
179.982	180.177	67	36
180.027	180.079	77	58
180.079	180.18	75	64
180.181	180.383	63	36
180.181	180.38	74	57
180.184	180.383	67	36
180.387	181.205	56	41
180.387	180.433	74	56
180.433	180.484	75	55
180.485	180.583	74	61
180.587	180.79	63	34
180.587	180.79	65	34
180.587	180.786	72	55
180.79	180.839	72	54
180.793	180.996	63	34
180.793	180.997	65	34
180.839	180.891	74	54
180.895	180.999	72	59
180.999	181.206	71	53
181.0	181.206	63	33
181.003	181.209	65	33
181.209	181.255	72	52
181.21	182.053	58	38
181.258	181.311	74	52
181.311	181.416	72	56
181.416	181.629	70	51
181.417	181.63	63	32
181.417	181.63	67	32
181.633	181.842	63	31
181.633	181.71	70	50
181.634	181.846	67	31
181.847	182.053	63	31
181.847	181.92	70	46
181.849	182.053	67	31
182.057	182.935	58	27
182.057	182.108	72	37
182.113	182.161	74	37
182.164	182.273	72	41
182.273	182.493	70	37
182.277	182.494	62	23
182.277	182.497	65	23
182.498	182.715	62	23
182.498	182.581	70	37
182.499	182.715	65	23
182.715	182.801	70	35
182.718	182.935	62	23
182.718	182.936	65	23
182.938	184.196	51	36
183.044	183.261	63	25
183.047	183.264	58	24
183.159	183.576	67	29
183.16	183.369	55	26
183.261	183.471	63	29
183.264	183.471	58	24
183.366	184.192	75	45
183.369	183.576	55	32
183.471	183.682	58	25
183.471	183.681	63	28
183.576	183.786	55	28
183.576	183.786	67	30
183.681	183.786	63	28
183.682	183.786	58	26
183.786	183.989	55	34
183.786	183.989	67	31
183.883	184.093	63	30
183.884	184.094	58	26
183.989	184.402	55	29
183.989	184.402	67	32
184.093	184.293	63	29
184.094	184.297	58	26
184.192	184.605	75	50
184.196	184.605	51	36
184.293	184.504	63	30
184.297	184.506	58	28
184.402	184.605	55	32
184.402	184.605	67	33
184.504	184.605	63	32
184.506	184.605	58	28
184.604	185.865	49	45
184.717	184.934	58	30
184.717	184.934	63	32
184.832	185.242	67	36
184.833	185.042	55	32
184.934	185.144	58	29
184.934	185.141	63	35
185.039	185.865	75	54
185.042	185.242	55	38
185.141	185.347	63	33
185.144	185.348	58	30
185.242	185.452	55	33
185.242	185.451	67	35
185.347	185.455	63	32
185.348	185.455	58	30
185.451	185.661	67	35
185.452	185.662	55	38
185.554	185.759	63	33
185.556	185.76	58	29
185.661	186.072	67	35
185.662	186.075	55	32
185.759	185.966	63	32
185.76	185.966	58	29
185.865	186.292	49	38
185.865	186.288	75	53
185.966	186.172	58	30
185.966	186.17	63	32
186.072	186.292	67	35
186.075	186.292	55	33
186.17	186.292	63	33
186.172	186.292	58	29
186.288	186.361	75	66
186.292	186.362	48	55
186.382	186.487	63	41
186.383	186.491	56	36
186.491	186.586	68	45
186.492	186.589	51	39
186.589	186.69	63	42
186.59	186.691	56	35
186.691	186.767	76	67
186.694	186.768	46	56
186.788	186.89	64	43
186.789	186.89	55	36
186.891	186.991	72	47
186.894	186.994	48	43
186.995	187.093	55	41
186.995	187.089	64	43
187.094	187.166	77	71
187.096	187.166	44	58
187.191	187.289	56	38
187.191	187.289	65	45
187.289	187.387	72	50
187.293	187.388	48	43
187.39	187.481	65	45
187.391	187.482	56	38
187.482	187.555	79	72
187.485	187.559	43	60
187.58	187.68	55	40
187.58	187.677	67	47
187.681	187.779	48	43
187.681	187.775	72	50
187.779	187.874	67	47
187.78	187.877	55	38
187.877	187.943	80	74
187.878	187.946	41	63
187.971	188.066	68	49
187.974	188.067	53	42
188.069	188.164	72	54
188.07	188.165	48	45
188.167	188.262	68	49
188.171	188.262	53	42
188.266	188.332	39	66
188.266	188.331	81	80
188.356	188.458	69	50
188.357	188.458	51	41
188.459	188.556	41	47
188.459	188.556	72	55
188.557	188.647	51	41
188.557	188.646	69	51
188.647	188.724	82	84
188.65	188.725	38	68
188.745	188.84	70	51
188.748	188.84	50	45
188.841	188.938	77	58
188.843	188.938	41	49
188.941	189.039	50	43
188.941	189.035	70	53
189.039	189.105	84	85
189.04	189.106	36	70
189.13	189.228	72	53
189.131	189.228	48	45
189.232	189.322	41	51
189.232	189.319	77	58
189.323	189.417	72	54
189.326	189.42	48	43
189.421	189.487	85	85
189.424	189.491	34	70
189.519	189.61	46	47
189.519	189.609	73	55
189.613	189.712	41	53
189.613	189.711	77	63
189.712	189.809	73	55
189.714	189.809	46	48
189.81	189.879	86	90
189.813	189.879	32	72
189.9	189.999	44	47
189.9	189.998	74	57
190.001	190.092	77	62
190.002	190.093	41	53
190.093	190.191	74	57
190.096	190.194	44	50
190.194	190.26	87	89
190.195	190.261	31	75
190.288	190.383	75	59
190.293	190.384	43	50
190.384	190.481	82	64
190.386	190.485	39	55
190.485	190.575	75	59
190.486	190.576	43	50
190.576	190.656	83	91
190.579	190.657	31	76
190.677	190.786	71	61
190.68	190.786	43	56
190.787	190.884	39	58
190.787	190.884	75	67
190.885	190.988	43	55
190.885	190.985	71	61
190.989	191.787	32	71
190.989	191.787	44	84
191.086	191.279	72	78
191.187	191.573	75	84
191.279	191.475	72	78
191.377	191.787	84	88
191.475	191.679	72	78
191.573	191.787	75	84
191.679	191.787	72	76
191.776	192.598	46	84
191.78	192.598	34	71
191.88	192.074	65	78
191.982	192.368	68	84
192.074	192.269	65	78
192.172	192.598	74	88
192.269	192.473	65	78
192.368	192.598	68	84
192.473	192.598	65	76
192.589	193.833	51	45
192.693	192.904	63	32
192.694	192.906	58	30
192.799	193.218	67	36
192.802	193.011	55	32
192.904	193.113	63	35
192.906	193.114	58	29
193.009	193.833	75	54
193.011	193.219	55	38
193.113	193.323	63	33
193.114	193.324	58	30
193.218	193.421	67	35
193.219	193.425	55	33
193.323	193.432	63	32
193.324	193.432	58	30
193.421	193.63	67	35
193.425	193.632	55	38
193.526	193.735	58	29
193.526	193.733	63	33
193.63	194.041	67	35
193.632	194.043	55	32
193.733	193.934	63	32
193.735	193.934	58	29
193.833	194.247	51	38
193.833	194.247	75	53
193.934	194.14	58	30
193.934	194.138	63	32
194.041	194.247	67	35
194.043	194.247	55	33
194.138	194.247	63	33
194.14	194.247	58	29
194.247	195.507	49	45
194.355	194.576	58	30
194.355	194.576	63	32
194.47	194.884	67	36
194.471	194.681	55	32
194.576	194.785	58	29
194.576	194.785	63	35
194.68	195.507	75	54
194.681	194.884	55	38
194.785	194.989	58	30
194.785	194.988	63	33
194.884	195.093	55	33
194.884	195.093	67	35
194.988	195.093	63	32
194.989	195.093	58	30
195.093	195.297	55	38
195.093	195.296	67	35
195.198	195.399	63	33
195.199	195.401	58	29
195.296	195.713	67	35
195.297	195.714	55	32
195.399	195.607	63	32
195.401	195.607	58	29
195.507	195.926	49	38
195.507	195.923	75	53
195.607	195.814	58	30
195.607	195.811	63	32
195.713	195.926	67	35
195.714	195.926	55	33
195.811	195.926	63	33
195.814	195.926	58	29
195.923	196.0	75	66
195.926	196.003	48	55
196.024	196.129	63	41
196.027	196.132	56	36
196.133	196.228	51	39
196.133	196.227	68	45
196.228	196.329	63	42
196.23	196.329	56	35
196.33	196.409	46	56
196.33	196.405	76	67
196.433	196.528	64	43
196.434	196.531	55	36
196.532	196.63	48	43
196.532	196.63	72	47
196.631	196.735	55	41
196.631	196.735	64	43
196.735	196.801	77	71
196.736	196.802	44	58
196.832	196.931	65	45
196.833	196.932	56	38
196.934	197.025	48	43
196.934	197.022	72	50
197.025	197.119	65	45
197.029	197.124	56	38
197.124	197.196	79	72
197.126	197.197	43	60
197.217	197.319	67	47
197.221	197.319	55	40
197.32	197.417	72	50
197.323	197.418	48	43
197.418	197.515	67	47
197.421	197.516	55	38
197.518	197.585	80	74
197.519	197.586	41	63
197.617	197.711	53	42
197.617	197.708	68	49
197.711	197.805	72	54
197.712	197.81	48	45
197.81	197.904	68	49
197.811	197.907	53	42
197.908	197.974	81	80
197.911	197.977	39	66
197.998	198.096	69	50
198.002	198.099	51	41
198.1	198.191	41	47
198.1	198.19	72	55
198.191	198.289	69	51
198.194	198.289	51	41
198.292	198.365	38	68
198.292	198.362	82	84
198.386	198.484	70	51
198.387	198.485	50	45
198.488	198.579	77	58
198.489	198.579	41	49
198.58	198.676	70	53
198.583	198.677	50	43
198.677	198.754	84	85
198.681	198.755	36	70
198.775	198.87	72	53
198.776	198.87	48	45
198.871	198.968	77	58
198.873	198.968	41	51
198.969	199.065	72	54
198.971	199.069	48	43
199.07	199.136	34	70
199.07	199.135	85	85
199.16	199.258	73	55
199.161	199.258	46	47
199.259	199.356	77	63
199.262	199.359	41	53
199.36	199.451	46	48
199.36	199.45	73	55
199.451	199.524	86	90
199.454	199.528	32	72
199.549	199.643	44	47
199.549	199.64	74	57
199.643	199.737	77	62
199.646	199.742	41	53
199.742	199.835	74	57
199.744	199.839	44	50
199.843	199.909	31	75
199.843	199.906	87	89
199.93	200.031	75	59
199.934	200.032	43	50
200.035	200.126	82	64
200.036	200.129	39	55
200.129	200.228	75	59
200.133	200.228	43	50
200.229	200.305	88	91
200.231	200.305	31	76
200.325	200.43	76	61
200.33	200.431	43	56
200.434	200.529	82	67
200.435	200.532	31	58
200.532	200.634	76	61
200.533	200.634	43	55
200.634	201.435	32	71
200.637	201.435	44	84
200.731	200.931	80	78
200.834	201.225	84	84
200.931	201.127	80	78
201.03	201.435	89	88
201.127	201.327	80	78
201.225	201.435	84	84
201.327	201.435	80	76
201.428	202.23	46	84
201.431	202.23	34	71
201.526	201.726	77	78
201.629	202.023	80	84
201.726	201.921	77	78
201.824	202.23	86	88
201.921	202.121	77	78
202.023	202.23	80	84
202.121	202.23	77	76
202.226	202.299	79	81
202.227	202.432	39	84
202.227	202.436	51	84
202.436	202.936	87	58
202.437	202.633	63	34
202.437	202.634	67	34
202.633	202.833	63	34
202.634	202.833	67	34
202.832	203.038	86	46
202.833	203.038	63	34
202.833	203.038	67	34
202.936	203.038	87	48
203.035	203.84	60	34
203.035	203.84	89	49
203.136	203.84	87	49
203.238	203.437	63	34
203.238	203.638	86	48
203.239	203.437	67	34
203.336	203.532	84	47
203.434	203.84	83	45
203.437	203.64	63	34
203.437	203.641	67	34
203.532	203.735	84	46
203.638	203.84	86	49
203.64	203.84	63	34
203.641	203.84	67	34
203.735	203.84	84	47
203.837	204.638	56	34
203.837	204.638	82	49
203.938	204.638	80	47
204.036	204.239	65	34
204.036	204.435	79	46
204.039	204.238	63	34
204.134	204.333	77	45
204.237	204.638	76	45
204.238	204.436	63	34
204.239	204.436	65	34
204.333	204.529	77	45
204.435	204.638	79	47
204.436	204.638	63	34
204.436	204.638	65	34
204.529	204.638	77	45
204.637	205.436	75	46
204.638	205.436	58	34
204.733	205.436	74	46
204.834	205.038	62	34
204.834	205.236	72	45
204.835	205.04	65	34
204.932	205.135	70	45
205.037	205.436	69	45
205.038	205.237	62	34
205.04	205.237	65	34
205.135	205.436	70	42
205.236	205.436	72	46
205.237	205.436	62	34
205.237	205.436	65	34
205.33	205.436	68	42
205.432	205.51	79	66
205.433	206.244	51	59
205.638	206.244	75	68
205.639	205.838	55	44
205.639	206.139	87	68
205.642	205.839	63	44
205.838	206.045	55	44
205.839	206.045	63	44
206.042	206.244	86	61
206.045	206.244	55	44
206.045	206.244	63	44
206.139	206.244	87	64
206.241	207.05	48	45
206.241	207.05	89	66
206.339	207.05	87	66
206.446	206.843	86	65
206.447	206.65	51	46
206.447	206.648	55	46
206.448	206.65	60	46
206.539	206.741	84	64
206.647	207.05	83	62
206.648	206.843	55	46
206.65	206.846	51	46
206.65	206.847	60	46
206.741	206.941	84	64
206.843	207.05	55	47
206.843	207.05	86	68
206.846	207.05	51	47
206.847	207.05	60	47
206.941	207.05	84	66
207.049	207.844	44	47
207.049	207.844	82	69
207.141	207.844	80	67
207.242	207.441	53	48
207.242	207.645	79	66
207.243	207.445	56	48
207.245	207.445	51	48
207.336	207.539	77	65
207.441	207.646	53	48
207.441	207.844	76	65
207.445	207.648	51	48
207.445	207.648	56	48
207.539	207.735	77	64
207.645	207.844	79	68
207.646	207.844	53	49
207.648	207.844	51	49
207.648	207.844	56	49
207.735	207.844	77	66
207.843	208.649	75	68
207.844	208.652	46	49
207.943	208.652	74	68
208.043	208.243	53	50
208.043	208.439	72	68
208.044	208.243	50	50
208.047	208.246	58	50
208.141	208.337	70	68
208.242	208.652	69	67
208.243	208.443	50	50
208.243	208.439	53	50
208.246	208.443	58	50
208.337	208.541	70	64
208.439	208.652	53	51
208.439	208.652	72	70
208.443	208.652	50	51
208.443	208.652	58	51
208.541	208.652	70	64
208.649	208.753	75	83
208.65	208.865	39	67
208.757	208.866	51	60
208.866	209.265	63	82
208.869	209.065	39	67
208.964	209.065	51	59
209.065	209.266	39	67
209.166	209.268	51	60
209.272	209.365	61	80
209.273	209.464	39	66
209.273	209.366	67	80
209.366	209.465	51	60
209.465	209.562	60	81
209.467	209.566	68	81
209.468	209.66	39	66
209.567	209.664	51	59
209.665	209.866	39	66
209.665	209.765	67	82
209.665	209.766	70	82
209.768	209.867	51	60
209.867	209.961	68	83
209.867	209.961	72	83
209.87	210.059	39	66
209.965	210.063	51	60
210.063	210.16	68	85
210.066	210.161	74	85
210.067	210.259	39	66
210.161	210.259	51	61
210.26	210.363	67	83
210.262	210.364	75	83
210.263	210.468	39	67
210.364	210.469	51	60
210.469	210.871	75	82
210.472	210.665	39	67
210.563	210.668	51	59
210.668	210.872	39	67
210.769	210.872	51	60
210.872	210.969	73	80
210.873	210.969	79	80
210.875	211.063	39	66
210.97	211.067	51	60
211.068	211.165	72	81
211.07	211.166	80	81
211.071	211.27	39	66
211.168	211.27	51	59
211.271	211.369	79	82
211.274	211.466	39	66
211.274	211.369	82	82
211.369	211.467	51	60
211.469	211.564	80	83
211.47	211.661	39	66
211.47	211.564	84	83
211.568	211.662	51	60
211.665	211.767	80	85
211.666	211.872	39	66
211.666	211.768	86	85
211.77	211.873	51	61
211.876	212.674	79	94
211.876	212.673	87	94
211.877	212.075	39	66
211.97	212.076	51	59
212.076	212.271	39	66
212.173	212.275	51	60
212.275	212.471	39	66
212.369	212.472	51	60
212.472	212.674	39	66
212.576	212.677	51	61
212.678	213.486	67	88
212.678	213.489	75	88
212.679	212.87	38	66
212.775	212.873	50	59
212.873	213.069	38	66
212.967	213.07	50	60
213.07	213.272	38	66
213.174	213.272	50	60
213.273	213.489	38	66
213.373	213.49	50	61
213.49	214.288	87	99
213.493	213.681	36	66
213.493	214.288	79	99
213.584	213.685	48	59
213.686	213.888	36	66
213.783	213.888	48	60
213.889	214.084	36	66
213.986	214.085	48	60
214.087	214.288	36	66
214.182	214.29	48	61
214.291	215.096	67	92
214.291	215.097	75	92
214.295	214.483	34	66
214.385	214.487	46	59
214.487	214.682	34	66
214.582	214.683	46	60
214.683	214.879	34	66
214.781	214.879	46	60
214.88	215.097	34	66
214.983	215.097	46	61
215.099	215.887	87	102
215.1	215.291	32	66
215.1	215.891	84	102
215.194	215.292	44	59
215.292	215.488	32	66
215.393	215.488	44	60
215.491	215.694	32	66
215.592	215.695	44	60
215.695	215.891	32	66
215.789	215.893	44	61
215.894	216.695	72	96
215.894	216.699	75	96
215.895	216.086	31	66
215.988	216.087	43	59
216.09	216.289	31	66
216.184	216.292	43	60
216.293	216.485	31	66
216.387	216.489	43	60
216.489	216.7	31	66
216.59	216.7	43	61
216.7	217.661	84	93
216.702	217.662	81	93
216.703	217.662	30	62
216.703	217.662	86	93
216.706	217.665	42	74
217.665	219.663	53	86
217.666	219.663	59	102
217.668	219.667	31	71
217.668	219.664	62	102
217.669	219.667	43	84
219.668	220.265	60	50
219.67	219.867	36	44
219.762	219.964	48	41
219.867	220.067	36	44
219.964	220.16	48	41
220.067	220.269	36	44
220.16	220.27	48	41
220.27	220.335	58	52
220.27	220.339	64	52
220.272	220.457	36	45
220.36	220.458	48	41
220.461	220.531	56	54
220.462	220.654	36	45
220.462	220.534	65	54
220.555	220.654	48	46
220.657	220.724	64	56
220.658	220.846	36	47
220.658	220.724	67	56
220.749	220.847	48	47
220.847	220.916	65	57
220.85	221.039	36	49
220.85	220.917	68	57
220.941	221.039	48	50
221.04	221.112	62	59
221.042	221.235	36	51
221.042	221.113	71	59
221.136	221.238	48	53
221.239	221.312	63	61
221.239	221.312	72	61
221.242	221.443	36	55
221.336	221.535	48	50
221.442	221.835	64	55
221.442	221.835	72	55
221.443	221.638	36	53
221.535	221.735	48	47
221.638	221.834	36	53
221.735	221.835	48	47
221.833	221.903	70	51
221.834	222.026	36	44
221.834	221.904	76	51
221.928	222.026	48	40
222.03	222.099	68	53
222.03	222.102	77	53
222.031	222.222	36	43
222.123	222.223	48	45
222.225	222.292	76	55
222.226	222.414	36	46
222.226	222.293	79	55
222.316	222.415	48	47
222.415	222.484	77	57
222.418	222.607	36	48
222.418	222.485	80	57
222.505	222.607	48	50
222.608	222.681	74	59
222.61	222.795	36	51
222.61	222.681	83	59
222.705	222.796	48	53
222.799	223.205	72	51
222.802	223.202	79	61
222.803	222.996	36	55
222.803	223.205	75	51
222.803	223.205	84	61
222.897	223.093	48	50
222.996	223.205	36	53
223.093	223.205	48	47
223.199	223.598	67	53
223.199	223.604	71	53
223.202	223.604	77	63
223.202	223.604	79	63
223.203	223.391	38	55
223.289	223.496	50	50
223.391	223.604	38	55
223.496	223.604	50	51
223.598	223.997	67	56
223.601	223.997	72	56
223.601	223.997	75	67
223.602	223.793	39	55
223.691	223.888	51	55
223.793	223.997	39	55
223.888	223.997	51	55
223.993	224.399	65	60
223.993	224.399	68	60
223.994	224.399	74	71
223.997	224.186	41	55
224.087	224.283	53	53
224.186	224.399	41	55
224.283	224.399	53	55
224.392	225.607	63	62
224.395	224.795	67	74
224.396	224.585	43	56
224.396	225.607	72	74
224.486	224.69	55	56
224.585	224.795	43	57
224.69	224.795	55	57
224.792	225.194	66	74
224.794	224.993	44	58
224.885	225.091	56	59
224.993	225.194	44	59
225.091	225.194	56	60
225.193	225.393	42	60
225.193	225.607	69	77
225.288	225.491	54	55
225.393	225.607	42	61
225.491	225.607	54	55
225.601	226.006	62	62
225.603	226.006	65	62
225.603	226.006	71	74
225.604	225.795	43	58
225.693	225.89	55	55
225.795	226.006	43	58
225.89	226.006	55	55
226.001	226.071	60	67
226.002	226.072	63	67
226.002	226.075	72	79
226.005	226.198	36	48
226.096	226.198	48	45
226.201	226.594	60	67
226.205	226.398	36	44
226.299	226.499	48	41
226.398	226.597	36	44
226.499	226.597	48	40
226.597	226.666	58	52
226.598	226.671	64	52
226.6	226.789	36	44
226.691	226.793	48	41
226.793	226.866	56	54
226.796	226.866	65	54
226.797	226.988	36	44
226.891	226.989	48	46
226.989	227.059	64	55
226.992	227.06	67	55
226.993	227.181	36	47
227.08	227.181	48	47
227.182	227.252	65	57
227.182	227.252	68	57
227.185	227.37	36	49
227.272	227.371	48	50
227.374	227.44	62	59
227.375	227.441	71	59
227.377	227.563	36	51
227.472	227.567	48	53
227.567	227.639	63	61
227.568	227.776	36	55
227.568	227.64	72	61
227.667	227.871	48	50
227.774	228.168	64	55
227.776	227.966	36	53
227.776	228.168	72	55
227.871	228.063	48	47
227.966	228.168	36	53
228.063	228.168	48	47
228.166	228.234	70	51
228.166	228.239	76	51
228.168	228.357	36	44
228.26	228.361	48	40
228.361	228.427	68	53
228.362	228.427	77	53
228.364	228.55	36	43
228.452	228.55	48	45
228.554	228.742	36	46
228.554	228.623	76	55
228.554	228.624	79	55
228.647	228.743	48	47
228.743	228.819	77	57
228.746	228.931	36	48
228.746	228.819	80	57
228.841	228.932	48	50
228.935	229.008	74	59
228.939	229.131	36	51
228.939	229.009	83	59
229.033	229.131	48	53
229.132	229.537	72	51
229.134	229.537	75	51
229.134	229.535	79	61
229.135	229.331	36	55
229.135	229.537	84	61
229.229	229.425	48	50
229.331	229.537	36	53
229.425	229.537	48	47
229.531	229.933	67	53
229.534	229.936	71	53
229.534	229.936	77	63
229.535	229.936	79	63
229.537	229.723	38	55
229.624	229.824	50	50
229.723	229.936	38	55
229.824	229.936	50	51
229.933	230.329	67	56
229.933	230.329	72	56
229.935	230.329	75	67
229.936	230.126	39	55
230.023	230.223	51	55
230.126	230.329	39	55
230.223	230.329	51	55
230.325	230.727	65	60
230.328	230.727	68	60
230.328	230.727	74	71
230.329	230.521	41	55
230.419	230.615	53	53
230.521	230.727	41	55
230.615	230.727	53	55
230.721	232.327	63	62
230.723	231.127	67	74
230.723	232.327	72	74
230.724	230.92	43	56
230.821	231.017	55	56
230.92	231.127	43	57
231.017	231.127	55	57
231.126	231.319	44	58
231.126	231.529	66	74
231.22	231.423	56	59
231.319	231.529	44	59
231.423	231.529	56	60
231.525	232.327	69	77
231.529	231.722	42	60
231.619	231.819	54	55
231.722	231.918	42	61
231.819	231.92	54	55
231.918	232.12	42	58
232.022	232.217	54	55
232.12	232.327	42	58
232.217	232.327	54	55
232.323	232.518	62	55
232.324	232.522	67	55
232.324	232.523	71	55
232.326	232.523	43	55
232.326	232.525	55	55
232.526	232.736	59	50
232.526	232.734	62	50
232.733	233.527	67	80
232.734	232.932	62	50
232.734	233.53	79	80
232.736	232.929	59	50
232.929	233.131	59	50
232.932	233.131	62	50
233.125	233.923	55	50
233.325	233.531	63	50
233.327	233.531	60	50
233.527	234.017	67	80
233.53	234.021	79	80
233.531	233.727	60	50
233.531	233.724	63	50
233.724	233.923	63	50
233.727	233.923	60	50
233.922	234.111	65	50
233.923	234.112	62	50
234.021	234.115	77	70
234.115	234.209	74	69
234.21	234.307	71	69
234.307	234.402	67	68
234.402	234.5	65	67
234.501	234.598	62	66
234.599	234.693	59	65
234.693	234.79	60	65
234.791	234.888	63	64
234.889	234.983	60	65
234.983	235.08	55	65
235.081	235.18	32	55
235.081	235.179	54	64
235.182	235.277	60	64
235.183	235.28	44	55
235.28	235.375	56	63
235.281	235.379	32	55
235.379	235.476	54	65
235.38	235.477	44	55
235.477	236.29	55	67
235.48	236.296	31	50
235.481	236.296	43	50
235.687	235.893	62	50
235.69	235.893	59	50
235.89	236.684	67	80
235.89	236.687	79	80
235.893	236.088	59	50
235.893	236.089	62	50
236.088	236.296	59	50
236.089	236.296	62	50
236.29	237.088	55	50
236.488	236.688	63	50
236.489	236.688	60	50
236.684	237.177	67	80
236.687	237.178	79	80
236.688	236.883	60	50
236.688	236.881	63	50
236.881	237.088	63	50
236.883	237.088	60	50
237.087	237.276	62	50
237.087	237.276	65	50
237.178	237.279	77	72
237.279	237.366	74	71
237.37	237.464	71	70
237.468	237.559	67	69
237.562	237.656	65	68
237.661	237.751	62	67
237.752	237.849	59	66
237.85	237.941	60	65
237.944	238.041	63	64
238.042	238.136	60	64
238.137	238.231	55	67
238.235	238.43	32	55
238.235	238.332	54	66
238.333	238.431	60	64
238.336	238.431	44	55
238.434	238.528	56	62
238.435	238.627	32	55
238.528	238.63	54	60
238.532	238.63	44	49
238.63	238.829	55	67
238.634	238.829	31	50
238.731	238.833	43	51
238.833	238.9	66	67
238.836	239.028	31	51
238.931	239.029	43	52
239.029	239.099	67	69
239.032	239.222	31	53
239.12	239.222	43	54
239.223	239.291	66	71
239.225	239.41	31	55
239.225	239.292	72	71
239.312	239.414	43	56
239.415	239.48	67	73
239.415	239.48	71	73
239.416	239.603	31	57
239.505	239.603	43	58
239.607	239.795	31	59
239.607	239.672	72	75
239.607	239.673	78	75
239.701	239.796	43	60
239.796	239.866	71	77
239.799	239.984	31	61
239.799	239.866	79	77
239.894	239.988	43	61
239.988	240.054	84	79
239.991	240.058	78	79
239.992	240.177	31	62
240.082	240.181	43	63
240.181	240.275	83	81
240.182	240.376	31	64
240.182	240.275	79	81
240.279	240.377	43	55
240.377	240.573	31	61
240.474	240.573	43	55
240.573	240.765	31	61
240.667	240.766	43	55
240.766	240.96	31	60
240.863	240.964	43	55
240.965	241.748	58	81
240.965	241.752	61	81
240.966	241.955	63	84
240.967	241.157	31	64
241.059	241.161	43	55
241.161	241.356	31	61
241.259	241.357	43	55
241.357	241.553	31	61
241.454	241.556	43	55
241.556	241.752	31	60
241.647	241.755	43	55
241.756	241.956	32	50
241.756	241.956	60	67
241.85	241.958	44	51
241.959	242.151	32	51
241.959	242.028	73	67
242.053	242.151	44	52
242.155	242.343	32	53
242.155	242.221	72	69
242.241	242.344	44	54
242.347	242.41	73	71
242.348	242.532	32	55
242.348	242.413	79	71
242.434	242.536	44	56
242.536	242.602	72	73
242.537	242.606	80	73
242.54	242.725	32	57
242.627	242.725	44	58
242.728	242.802	79	75
242.729	242.806	85	75
242.732	242.917	32	59
242.823	242.918	44	60
242.92	242.994	80	77
242.921	243.11	32	61
242.921	242.995	84	77
243.015	243.11	44	61
243.111	243.184	85	79
243.114	243.299	32	62
243.114	243.184	79	79
243.207	243.3	44	63
243.302	243.4	84	81
243.306	243.4	80	81
243.307	243.499	32	64
243.401	243.499	44	55
243.5	243.694	32	61
243.596	243.698	44	55
243.699	243.886	32	61
243.789	243.887	44	55
243.89	244.083	32	60
243.985	244.083	44	55
244.087	244.874	60	81
244.088	244.875	63	81
244.088	244.875	66	84
244.09	244.282	33	64
244.184	244.283	45	55
244.283	244.479	33	61
244.381	244.481	45	55
244.482	244.678	33	61
244.576	244.679	45	55
244.679	244.877	33	60
244.776	244.878	45	55
244.878	245.077	62	67
244.882	245.081	34	50
244.882	245.077	65	67
244.972	245.081	46	51
245.081	245.15	69	62
245.082	245.154	75	67
245.084	245.269	34	51
245.174	245.27	46	52
245.27	245.343	70	65
245.273	245.344	74	69
245.274	245.459	34	53
245.364	245.462	46	54
245.462	245.535	75	71
245.462	245.539	81	71
245.466	245.651	34	55
245.56	245.651	46	56
245.654	245.728	74	73
245.655	245.843	34	57
245.655	245.728	82	73
245.749	245.844	46	58
245.844	245.92	81	75
245.848	246.033	34	59
245.848	245.921	87	75
245.941	246.035	46	60
246.036	246.11	82	77
246.04	246.225	34	61
246.04	246.11	86	77
246.133	246.226	46	61
246.228	246.302	87	79
246.232	246.302	81	79
246.233	246.418	34	62
246.323	246.418	46	63
246.419	246.519	86	81
246.421	246.617	34	64
246.421	246.52	82	81
246.52	246.618	46	55
246.618	246.813	34	61
246.715	246.814	46	55
246.816	247.194	75	81
246.817	247.002	34	61
246.817	247.198	81	81
246.904	247.006	46	55
247.006	247.199	34	60
247.099	247.199	46	55
247.201	247.394	74	81
247.202	247.395	34	64
247.202	247.394	82	81
247.296	247.398	46	55
247.398	247.586	34	61
247.492	247.586	46	55
247.587	247.975	69	81
247.587	247.975	75	81
247.59	247.782	34	61
247.685	247.783	46	55
247.783	247.976	34	60
247.877	247.979	46	55
247.979	248.164	70	81
247.98	248.168	34	64
247.98	248.167	74	81
248.073	248.168	46	55
248.171	248.36	34	61
248.262	248.364	46	55
248.364	248.752	63	81
248.366	248.753	69	81
248.367	248.552	34	61
248.461	248.556	46	55
248.556	248.753	34	60
248.651	248.755	46	55
248.756	248.941	62	81
248.756	248.941	70	81
248.759	248.945	34	64
248.843	248.945	46	55
248.948	249.14	34	61
249.042	249.141	46	55
249.141	249.529	57	81
249.144	249.529	63	81
249.145	249.332	34	61
249.239	249.333	46	55
249.333	249.532	34	60
249.431	249.532	46	55
249.533	249.732	58	81
249.536	249.735	46	55
249.536	249.733	62	81
249.537	249.736	34	64
249.736	249.935	57	50
249.935	250.134	58	59
250.135	250.334	57	56
250.338	250.541	58	57
250.541	250.74	57	49
250.743	250.947	58	57
250.947	251.142	57	51
251.146	251.944	58	44
251.352	251.45	46	55
251.353	251.556	63	38
251.353	251.556	66	38
251.556	251.646	51	58
251.559	251.748	63	38
251.559	251.748	66	38
251.749	251.846	53	61
251.751	251.944	63	38
251.751	251.948	66	38
251.948	252.042	54	64
251.949	252.752	58	44
252.147	252.245	70	62
252.148	252.35	63	38
252.15	252.353	66	38
252.354	252.546	63	38
252.354	252.448	75	64
252.357	252.55	66	38
252.55	252.651	77	66
252.551	252.753	63	38
252.553	252.753	66	38
252.7	252.753	70	65
252.756	253.354	78	75
252.757	253.551	58	44
252.951	253.152	63	38
252.956	253.152	66	38
253.153	253.355	63	38
253.155	253.359	66	38
253.359	253.554	63	38
253.359	253.551	75	63
253.361	253.558	66	38
253.505	253.558	70	60
253.558	254.156	78	71
253.561	254.359	58	44
253.76	253.956	63	38
253.761	253.957	66	38
253.96	254.16	63	38
253.963	254.16	66	38
254.161	254.362	63	38
254.161	254.36	75	58
254.163	254.363	66	38
254.363	254.566	74	60
254.366	255.16	58	44
254.569	254.667	46	57
254.573	254.772	65	38
254.573	254.772	68	38
254.773	254.863	53	60
254.776	254.964	65	38
254.776	254.965	68	38
254.965	255.062	54	63
254.966	255.161	65	38
254.968	255.164	68	38
255.164	255.258	56	66
255.165	255.965	58	44
255.363	255.566	70	59
255.364	255.567	65	38
255.364	255.57	68	38
255.571	255.77	65	38
255.571	255.77	80	62
255.572	255.771	68	38
255.773	255.97	65	38
255.773	255.97	78	65
255.777	255.972	68	38
255.973	256.778	58	44
255.973	256.018	78	60
256.021	256.071	80	60
256.071	256.169	78	67
256.169	256.372	77	60
256.172	256.375	65	38
256.176	256.376	68	38
256.379	256.574	65	38
256.379	256.424	77	60
256.38	256.575	68	38
256.428	256.477	78	60
256.477	256.578	77	67
256.581	256.781	75	60
256.582	256.785	65	38
256.582	256.785	68	38
256.785	256.83	75	60
256.786	257.593	58	44
256.834	256.882	77	60
256.883	256.984	75	66
256.985	257.188	65	38
256.985	257.184	74	60
256.987	257.19	68	38
257.191	257.39	65	38
257.191	257.292	72	60
257.192	257.39	68	38
257.39	257.492	74	60
257.394	257.593	65	38
257.394	257.594	68	38
257.596	257.8	75	60
257.597	258.395	58	44
257.803	257.901	46	55
257.804	258.006	63	38
257.807	258.006	66	38
258.007	258.104	51	58
258.007	258.195	63	38
258.01	258.196	66	38
258.198	258.296	53	61
258.199	258.395	63	38
258.202	258.395	66	38
258.398	258.496	54	64
258.398	259.199	58	44
258.597	258.703	70	62
258.598	258.8	63	38
258.598	258.801	66	38
258.804	258.905	75	64
258.805	259.004	63	38
258.805	259.004	66	38
259.005	259.101	77	66
259.007	259.2	63	38
259.007	259.203	66	38
259.147	259.204	70	65
259.204	259.805	78	75
259.206	260.008	58	44
259.403	259.602	63	38
259.403	259.603	66	38
259.603	259.806	63	38
259.603	259.808	66	38
259.809	260.009	63	38
259.809	260.008	75	63
259.81	260.012	66	38
259.956	260.012	70	60
260.012	260.61	78	71
260.015	260.813	58	44
260.211	260.411	63	38
260.211	260.411	66	38
260.411	260.614	63	38
260.412	260.614	66	38
260.615	260.816	63	38
260.615	260.814	75	58
260.617	260.817	66	38
260.82	261.023	72	60
260.821	261.608	56	44
261.023	261.121	44	57
261.027	261.222	63	38
261.027	261.222	66	38
261.223	261.321	51	60
261.223	261.412	63	38
261.226	261.412	66	38
261.415	261.509	53	63
261.416	261.611	63	38
261.416	261.611	66	38
261.615	261.708	54	66
261.615	262.416	56	44
261.814	262.016	68	59
261.815	262.017	63	38
261.815	262.02	66	38
262.021	262.214	63	38
262.021	262.213	78	62
262.022	262.214	66	38
262.217	262.417	77	65
262.218	262.419	63	38
262.22	262.42	66	38
262.42	263.227	56	44
262.42	262.468	77	60
262.469	262.514	78	60
262.517	262.619	77	67
262.619	262.822	75	60
262.623	262.825	63	38
262.623	262.825	66	38
262.826	263.028	63	38
262.826	262.875	75	60
262.829	263.029	66	38
262.875	262.92	77	60
262.924	263.029	75	67
263.03	263.231	73	60
263.032	263.231	63	38
263.033	263.231	66	38
263.234	263.28	73	60
263.236	264.039	56	44
263.28	263.33	75	60
263.33	263.433	73	66
263.434	263.637	63	38
263.434	263.633	72	60
263.435	263.637	66	38
263.637	263.738	70	60
263.64	263.84	63	38
263.64	263.84	66	38
263.841	264.04	63	38
263.841	263.941	72	60
263.843	264.043	66	38
264.043	264.246	73	60
264.047	264.841	56	44
264.246	264.347	44	55
264.247	264.448	61	38
264.249	264.448	65	38
264.449	264.547	49	58
264.449	264.644	61	38
264.452	264.645	65	38
264.645	264.742	51	61
264.648	264.844	61	38
264.649	264.844	65	38
264.848	264.938	53	64
264.848	265.649	56	44
265.043	265.145	68	62
265.044	265.247	61	38
265.047	265.25	65	38
265.25	265.344	73	64
265.254	265.446	61	38
265.254	265.446	65	38
265.447	265.544	75	66
265.45	265.65	61	38
265.45	265.653	65	38
265.596	265.653	68	65
265.653	266.252	77	75
265.654	266.458	56	44
265.852	266.051	61	38
265.852	266.052	65	38
266.052	266.255	61	38
266.053	266.255	65	38
266.255	266.458	73	63
266.259	266.459	61	38
266.259	266.459	65	38
266.405	266.461	68	60
266.461	267.052	77	71
266.462	267.259	56	44
266.657	266.856	61	38
266.657	266.857	65	38
266.857	267.056	61	38
266.86	267.057	65	38
267.057	267.26	61	38
267.057	267.26	73	58
267.06	267.261	65	38
267.262	267.466	72	60
267.263	268.05	56	44
267.467	267.564	44	57
267.469	267.661	63	38
267.469	267.662	66	38
267.665	267.763	51	60
267.666	267.861	63	38
267.668	267.861	66	38
267.865	267.952	53	63
267.865	268.054	63	38
267.865	268.055	66	38
268.057	268.155	54	66
268.058	268.859	56	44
268.256	268.463	68	59
268.257	268.467	63	38
268.257	268.468	66	38
268.468	268.662	78	62
268.47	268.663	63	38
268.47	268.663	66	38
268.666	268.863	77	65
268.667	268.863	63	38
268.667	268.864	66	38
268.864	268.911	77	60
268.866	269.678	56	44
268.912	268.963	78	60
268.964	269.069	77	67
269.069	269.271	75	60
269.07	269.272	63	38
269.072	269.275	66	38
269.276	269.475	63	38
269.276	269.317	75	60
269.277	269.475	66	38
269.318	269.37	77	60
269.371	269.476	75	67
269.478	269.679	63	38
269.478	269.678	73	60
269.479	269.681	66	38
269.682	270.49	56	44
269.682	269.723	73	60
269.724	269.776	75	60
269.776	269.88	73	66
269.885	270.085	63	38
269.885	270.084	72	60
269.886	270.087	66	38
270.087	270.181	70	60
270.088	270.286	63	38
270.091	270.286	66	38
270.29	270.385	72	57
270.291	270.49	63	38
270.291	270.49	66	38
270.494	270.899	61	54
270.494	270.693	73	60
270.696	270.9	49	73
270.696	270.9	65	53
270.697	270.9	68	53
270.902	271.088	56	77
270.903	271.295	59	60
271.088	271.193	47	73
271.089	271.295	65	53
271.092	271.298	68	53
271.302	271.396	46	77
271.303	272.11	58	53
271.502	271.711	65	38
271.502	271.712	68	38
271.502	271.711	70	59
271.715	271.908	65	38
271.715	271.907	80	62
271.716	271.91	68	38
271.911	272.111	65	38
271.911	272.114	68	38
271.911	272.111	78	65
272.114	272.922	58	44
272.114	272.155	78	60
272.156	272.208	80	60
272.212	272.313	78	67
272.313	272.516	77	60
272.317	272.517	65	38
272.317	272.517	68	38
272.519	272.565	77	60
272.52	272.719	65	38
272.52	272.719	68	38
272.566	272.614	78	60
272.614	272.723	77	67
272.723	272.923	75	60
272.724	272.926	65	38
272.724	272.926	68	38
272.927	272.968	75	60
272.929	273.735	58	44
272.968	273.02	77	60
273.024	273.125	75	66
273.126	273.328	74	60
273.129	273.328	65	38
273.129	273.332	68	38
273.332	273.426	72	60
273.333	273.531	65	38
273.335	273.532	68	38
273.535	273.629	74	57
273.536	273.737	65	38
273.536	273.738	68	38
273.738	273.944	75	60
273.742	274.147	63	54
273.944	274.148	51	73
273.948	274.15	66	53
273.948	274.151	70	53
274.151	274.344	58	77
274.155	274.546	61	60
274.344	274.448	49	73
274.347	274.55	65	53
274.347	274.55	70	53
274.553	274.651	48	77
274.553	275.361	60	53
274.756	274.959	72	59
274.76	274.959	67	38
274.76	274.963	70	38
274.963	275.159	82	62
274.966	275.16	67	38
274.966	275.16	70	38
275.16	275.362	80	65
275.162	275.362	67	38
275.163	275.366	70	38
275.366	275.414	80	60
275.367	276.174	60	44
275.415	275.459	82	60
275.46	275.565	80	67
275.565	275.767	79	60
275.566	275.768	67	38
275.568	275.768	70	38
275.771	275.82	79	60
275.772	275.971	67	38
275.772	275.971	70	38
275.821	275.873	80	60
275.874	275.972	79	67
275.975	276.175	67	38
275.975	276.175	77	60
275.976	276.177	70	38
276.177	276.226	77	60
276.181	276.985	60	44
276.226	276.279	79	60
276.279	276.376	77	66
276.38	276.58	76	60
276.381	276.58	67	38
276.381	276.583	70	38
276.583	276.783	74	60
276.584	276.786	67	38
276.587	276.786	70	38
276.787	276.986	67	38
276.787	276.986	76	57
276.79	276.99	70	38
276.99	277.038	79	60
276.992	277.801	65	44
277.039	277.09	80	60
277.094	277.189	79	67
277.192	277.392	68	38
277.192	277.391	77	60
277.193	277.395	72	38
277.396	277.595	68	38
277.396	277.444	77	60
277.398	277.599	72	38
277.448	277.497	79	60
277.498	277.599	77	67
277.599	277.801	75	60
277.6	277.802	68	38
277.601	277.802	72	38
277.805	277.85	75	60
277.806	278.211	58	44
277.85	277.903	77	60
277.906	278.0	75	66
278.004	278.211	74	60
278.005	278.214	65	38
278.005	278.214	68	38
278.214	278.41	72	60
278.215	278.613	59	44
278.218	278.411	65	38
278.218	278.411	68	38
278.411	278.614	74	57
278.414	278.614	65	38
278.415	278.616	68	38
278.617	279.429	60	44
278.617	278.662	77	60
278.665	278.714	79	60
278.718	278.82	77	67
278.82	279.022	75	59
278.823	279.026	63	37
278.823	279.027	67	37
279.027	279.068	75	58
279.029	279.223	63	36
279.03	279.223	67	36
279.072	279.121	77	58
279.121	279.223	75	64
279.224	279.429	74	57
279.226	279.432	63	36
279.226	279.432	67	36
279.436	280.248	56	41
279.436	279.481	74	56
279.481	279.527	75	55
279.531	279.631	74	61
279.636	279.838	63	34
279.636	279.838	65	34
279.636	279.835	72	55
279.842	280.041	63	34
279.842	279.887	72	54
279.843	280.042	65	34
279.888	279.936	74	54
279.937	280.042	72	59
280.045	280.248	71	53
280.046	280.252	63	33
280.046	280.252	65	33
280.252	280.3	72	52
280.255	281.102	58	38
280.303	280.353	74	52
280.354	280.465	72	56
280.465	280.678	70	51
280.466	280.679	63	32
280.466	280.679	67	32
280.682	280.752	70	50
280.683	280.888	63	31
280.683	280.889	67	31
280.889	280.968	70	46
280.892	281.102	63	31
280.892	281.103	67	31
281.105	281.984	58	27
281.105	281.155	72	37
281.155	281.21	74	37
281.214	281.322	72	41
281.323	281.543	70	37
281.326	281.543	62	23
281.327	281.547	65	23
281.547	281.623	70	37
281.548	281.763	62	23
281.549	281.763	65	23
281.764	281.844	70	35
281.767	281.987	62	23
281.768	281.988	65	23
281.988	283.244	51	36
282.092	282.31	63	25
282.096	282.314	58	24
282.208	282.625	67	29
282.209	282.418	55	26
282.31	282.52	63	29
282.314	282.52	58	24
282.415	283.241	75	45
282.418	282.626	55	32
282.52	282.726	58	25
282.52	282.723	63	28
282.625	282.828	67	30
282.626	282.831	55	28
282.723	282.831	63	28
282.726	282.831	58	26
282.828	283.034	67	31
282.831	283.035	55	34
282.933	283.136	63	30
282.934	283.138	58	26
283.034	283.444	67	32
283.035	283.445	55	29
283.136	283.342	63	29
283.138	283.345	58	26
283.241	283.654	75	50
283.244	283.654	51	36
283.342	283.548	63	30
283.345	283.549	58	28
283.444	283.654	67	33
283.445	283.654	55	32
283.548	283.654	63	32
283.549	283.654	58	28
283.653	284.91	49	45
283.759	283.976	63	32
283.762	283.979	58	30
283.874	284.084	55	32
283.874	284.291	67	36
283.976	284.186	63	35
283.979	284.188	58	29
284.081	284.907	75	54
284.084	284.291	55	38
284.186	284.396	63	33
284.188	284.399	58	30
284.291	284.501	55	33
284.291	284.501	67	35
284.396	284.502	63	32
284.399	284.502	58	30
284.501	284.704	55	38
284.501	284.703	67	35
284.599	284.809	63	33
284.6	284.809	58	29
284.703	285.117	67	35
284.704	285.117	55	32
284.809	285.011	58	29
284.809	285.008	63	32
284.907	285.333	75	53
284.91	285.334	49	38
285.008	285.219	63	32
285.011	285.222	58	30
285.117	285.334	55	33
285.117	285.334	67	35
285.219	285.334	63	33
285.222	285.334	58	29
285.333	285.404	48	55
285.333	285.403	75	66
285.432	285.534	56	36
285.432	285.533	63	41
285.534	285.638	68	45
285.535	285.639	51	39
285.639	285.733	63	42
285.641	285.735	56	35
285.736	285.809	76	67
285.74	285.81	46	56
285.833	285.939	64	43
285.834	285.94	55	36
285.94	286.037	72	47
285.942	286.037	48	43
286.041	286.135	55	41
286.041	286.134	64	43
286.139	286.212	44	58
286.139	286.208	77	71
286.233	286.335	65	45
286.234	286.335	56	38
286.336	286.433	48	43
286.336	286.432	72	50
286.433	286.53	65	45
286.434	286.531	56	38
286.531	286.604	79	72
286.534	286.607	43	60
286.628	286.726	67	47
286.632	286.73	55	40
286.73	286.828	48	43
286.73	286.824	72	50
286.829	286.92	55	38
286.829	286.919	67	47
286.922	286.996	80	74
286.923	286.996	41	63
287.017	287.112	53	42
287.017	287.107	68	49
287.114	287.209	72	54
287.115	287.21	48	45
287.21	287.308	68	49
287.213	287.308	53	42
287.309	287.378	81	80
287.311	287.378	39	66
287.405	287.5	69	50
287.406	287.501	51	41
287.501	287.598	72	55
287.503	287.598	41	47
287.599	287.696	69	51
287.601	287.696	51	41
287.7	287.766	38	68
287.7	287.765	82	84
287.79	287.888	70	51
287.791	287.888	50	45
287.892	287.983	41	49
287.892	287.983	77	58
287.984	288.081	50	43
287.984	288.08	70	53
288.081	288.154	84	85
288.084	288.158	36	70
288.179	288.274	48	45
288.179	288.27	72	53
288.274	288.367	77	58
288.275	288.372	41	51
288.372	288.462	72	54
288.374	288.466	48	43
288.466	288.536	85	85
288.467	288.539	34	70
288.56	288.658	73	55
288.564	288.661	46	47
288.662	288.752	77	63
288.666	288.753	41	53
288.756	288.851	73	55
288.757	288.851	46	48
288.854	288.928	32	72
288.854	288.928	86	90
288.953	289.044	44	47
288.953	289.043	74	57
289.044	289.141	77	62
289.047	289.142	41	53
289.142	289.236	74	57
289.145	289.236	44	50
289.237	289.313	87	89
289.239	289.313	31	75
289.333	289.432	75	59
289.334	289.433	43	50
289.435	289.526	82	64
289.436	289.526	39	55
289.527	289.625	43	50
289.527	289.625	75	59
289.626	289.697	83	91
289.628	289.702	31	76
289.722	289.827	71	61
289.723	289.831	43	56
289.831	289.926	75	67
289.832	289.926	39	58
289.929	290.031	43	55
289.929	290.03	71	61
290.031	290.832	32	71
290.033	290.832	44	84
290.128	290.327	72	78
290.23	290.615	75	84
290.327	290.524	72	78
290.427	290.832	84	88
290.524	290.724	72	78
290.615	290.832	75	84
290.724	290.832	72	76
290.821	291.643	46	84
290.822	291.643	34	71
290.923	291.123	65	78
291.028	291.414	68	84
291.123	291.318	65	78
291.224	291.643	74	88
291.318	291.522	65	78
291.414	291.643	68	84
291.522	291.643	65	76
291.634	292.887	51	45
291.738	291.952	63	32
291.739	291.955	58	30
291.844	292.26	67	36
291.847	292.054	55	32
291.952	292.155	63	35
291.955	292.158	58	29
292.053	292.886	75	54
292.054	292.263	55	38
292.155	292.366	63	33
292.158	292.368	58	30
292.26	292.471	67	35
292.263	292.473	55	33
292.366	292.473	63	32
292.368	292.473	58	30
292.471	292.674	67	35
292.473	292.676	55	38
292.575	292.778	63	33
292.576	292.779	58	29
292.674	293.086	67	35
292.676	293.087	55	32
292.778	292.981	63	32
292.779	292.982	58	29
292.886	293.296	75	53
292.887	293.296	51	38
292.981	293.191	63	32
292.982	293.191	58	30
293.086	293.296	67	35
293.087	293.296	55	33
293.191	293.296	58	29
293.191	293.296	63	33
293.292	294.553	49	45
293.404	293.621	58	30
293.404	293.618	63	32
293.517	293.726	55	32
293.517	293.933	67	36
293.618	293.828	63	35
293.621	293.829	58	29
293.726	293.936	55	38
293.726	294.549	75	54
293.828	294.038	63	33
293.829	294.039	58	30
293.933	294.137	67	35
293.936	294.137	55	33
294.038	294.147	63	32
294.039	294.147	58	30
294.137	294.347	55	38
294.137	294.346	67	35
294.24	294.449	63	33
294.241	294.451	58	29
294.346	294.757	67	35
294.347	294.759	55	32
294.449	294.65	63	32
294.451	294.651	58	29
294.549	294.976	75	53
294.553	294.977	49	38
294.65	294.864	63	32
294.651	294.864	58	30
294.757	294.977	67	35
294.759	294.977	55	33
294.864	294.977	58	29
294.864	294.977	63	33
294.976	295.046	75	66
294.977	295.046	48	55
295.07	295.176	56	36
295.07	295.171	63	41
295.176	295.27	68	45
295.177	295.274	51	39
295.274	295.378	56	35
295.274	295.378	63	42
295.379	295.452	76	67
295.382	295.452	46	56
295.477	295.582	55	36
295.477	295.578	64	43
295.582	295.68	48	43
295.582	295.679	72	47
295.68	295.778	64	43
295.683	295.778	55	41
295.778	295.854	77	71
295.781	295.855	44	58
295.875	295.973	65	45
295.876	295.974	56	38
295.977	296.072	72	50
295.978	296.075	48	43
296.075	296.173	65	45
296.079	296.173	56	38
296.173	296.239	79	72
296.177	296.244	43	60
296.271	296.369	67	47
296.272	296.369	55	40
296.37	296.464	72	50
296.373	296.464	48	43
296.464	296.561	67	47
296.467	296.562	55	38
296.562	296.638	80	74
296.566	296.639	41	63
296.659	296.754	53	42
296.659	296.754	68	49
296.755	296.852	48	45
296.755	296.851	72	54
296.852	296.95	68	49
296.855	296.951	53	42
296.951	297.024	81	80
296.953	297.027	39	66
297.048	297.142	69	50
297.052	297.143	51	41
297.143	297.24	72	55
297.145	297.241	41	47
297.244	297.338	69	51
297.245	297.338	51	41
297.342	297.409	38	68
297.342	297.409	82	84
297.43	297.527	70	51
297.433	297.532	50	45
297.534	297.629	77	58
297.535	297.629	41	49
297.63	297.72	70	53
297.632	297.724	50	43
297.724	297.796	84	85
297.725	297.797	36	70
297.821	297.919	72	53
297.822	297.919	48	45
297.92	298.014	77	58
297.923	298.014	41	51
298.015	298.112	48	43
298.015	298.111	72	54
298.112	298.185	85	85
298.113	298.186	34	70
298.21	298.304	73	55
298.211	298.304	46	47
298.305	298.403	41	53
298.305	298.403	77	63
298.404	298.5	73	55
298.406	298.501	46	48
298.501	298.57	86	90
298.504	298.571	32	72
298.591	298.69	74	57
298.595	298.693	44	47
298.693	298.79	77	62
298.697	298.791	41	53
298.791	298.882	74	57
298.795	298.885	44	50
298.885	298.952	87	89
298.886	298.955	31	75
298.98	299.082	75	59
298.984	299.082	43	50
299.085	299.173	39	55
299.085	299.172	82	64
299.176	299.27	75	59
299.177	299.27	43	50
299.274	299.348	88	91
299.275	299.348	31	76
299.376	299.477	76	61
299.379	299.478	43	56
299.478	299.578	82	67
299.479	299.579	31	58
299.582	299.68	76	61
299.583	299.68	43	55
299.681	300.485	32	71
299.681	300.485	44	84
299.781	299.974	80	78
299.886	300.272	84	84
299.974	300.17	80	78
300.075	300.485	89	88
300.17	300.377	80	78
300.272	300.485	84	84
300.377	300.485	80	76
300.475	301.273	34	71
300.475	301.273	46	84
300.572	300.769	77	78
300.674	301.066	80	84
300.769	300.968	77	78
300.866	301.273	86	88
300.968	301.165	77	78
301.066	301.273	80	84
301.165	301.273	77	76
301.269	301.35	79	81
301.273	301.475	39	84
301.273	301.479	51	84
301.482	301.98	87	58
301.483	301.675	63	34
301.483	301.679	67	34
301.675	301.878	63	34
301.679	301.878	67	34
301.875	302.088	86	46
301.878	302.088	63	34
301.878	302.088	67	34
301.98	302.088	87	48
302.085	302.89	60	34
302.085	302.89	89	49
302.179	302.89	87	49
302.281	302.682	86	48
302.282	302.487	63	34
302.284	302.488	67	34
302.386	302.582	84	47
302.484	302.89	83	45
302.487	302.683	63	34
302.488	302.683	67	34
302.582	302.778	84	46
302.682	302.89	86	49
302.683	302.89	63	34
302.683	302.89	67	34
302.778	302.89	84	47
302.883	303.685	56	34
302.883	303.685	82	49
302.984	303.685	80	47
303.079	303.478	79	46
303.082	303.282	65	34
303.083	303.282	63	34
303.18	303.379	77	45
303.282	303.478	63	34
303.282	303.481	65	34
303.282	303.685	76	45
303.379	303.579	77	45
303.478	303.685	63	34
303.478	303.685	79	47
303.481	303.685	65	34
303.579	303.685	77	45
303.684	304.48	75	46
303.685	304.48	58	34
303.779	304.48	74	46
303.88	304.279	72	45
303.884	304.084	62	34
303.884	304.084	65	34
303.982	304.178	70	45
304.083	304.48	69	45
304.084	304.279	62	34
304.084	304.283	65	34
304.178	304.48	70	42
304.279	304.48	62	34
304.279	304.48	72	46
304.283	304.48	65	34
304.377	304.48	68	42
304.479	304.556	79	66
304.48	305.294	51	59
304.688	305.294	75	68
304.689	305.182	87	68
304.692	304.888	55	44
304.693	304.888	63	44
304.888	305.088	55	44
304.888	305.088	63	44
305.087	305.294	86	61
305.088	305.294	55	44
305.088	305.294	63	44
305.182	305.294	87	64
305.291	306.099	89	66
305.292	306.099	48	45
305.385	306.099	87	66
305.49	305.888	86	65
305.491	305.693	55	46
305.494	305.694	51	46
305.494	305.694	60	46
305.588	305.788	84	64
305.69	306.099	83	62
305.693	305.889	55	46
305.694	305.889	51	46
305.694	305.893	60	46
305.788	305.984	84	64
305.888	306.099	86	68
305.889	306.099	51	47
305.889	306.099	55	47
305.893	306.099	60	47
305.984	306.099	84	66
306.093	306.89	44	47
306.093	306.89	82	69
306.187	306.89	80	67
306.289	306.492	53	48
306.289	306.495	56	48
306.289	306.69	79	66
306.29	306.495	51	48
306.389	306.59	77	65
306.491	306.89	76	65
306.492	306.691	53	48
306.495	306.691	51	48
306.495	306.694	56	48
306.59	306.785	77	64
306.69	306.89	79	68
306.691	306.89	51	49
306.691	306.89	53	49
306.694	306.89	56	49
306.785	306.89	77	66
306.887	307.695	75	68
306.89	307.696	46	49
306.989	307.696	74	68
307.086	307.485	72	68
307.087	307.29	53	50
307.09	307.29	50	50
307.09	307.29	58	50
307.184	307.387	70	68
307.289	307.696	69	67
307.29	307.486	50	50
307.29	307.485	53	50
307.29	307.489	58	50
307.387	307.587	70	64
307.485	307.696	53	51
307.485	307.696	72	70
307.486	307.696	50	51
307.489	307.696	58	51
307.587	307.696	70	64
307.695	307.8	75	83
307.696	307.908	39	67
307.8	307.909	51	60
307.912	308.311	63	82
307.916	308.108	39	67
308.013	308.108	51	59
308.109	308.312	39	67
308.209	308.314	51	60
308.315	308.409	61	80
308.315	308.413	67	80
308.318	308.513	39	66
308.413	308.514	51	60
308.514	308.612	60	81
308.517	308.613	68	81
308.518	308.71	39	66
308.615	308.71	51	59
308.714	308.807	67	82
308.715	308.909	39	66
308.715	308.808	70	82
308.815	308.91	51	60
308.91	309.008	68	83
308.914	309.106	39	66
308.914	309.008	72	83
309.009	309.106	51	60
309.107	309.203	68	85
309.109	309.308	39	66
309.109	309.207	74	85
309.208	309.309	51	61
309.309	309.407	67	83
309.313	309.518	39	67
309.313	309.407	75	83
309.408	309.523	51	60
309.523	309.715	39	67
309.523	309.917	75	82
309.616	309.718	51	59
309.718	309.921	39	67
309.813	309.922	51	60
309.922	310.019	73	80
309.922	310.019	79	80
309.924	310.114	39	66
310.02	310.116	51	60
310.117	310.215	72	81
310.121	310.312	39	66
310.121	310.215	80	81
310.215	310.314	51	59
310.314	310.411	79	82
310.316	310.509	39	66
310.316	310.411	82	82
310.412	310.512	51	60
310.512	310.606	80	83
310.514	310.61	84	83
310.516	310.705	39	66
310.61	310.709	51	60
310.709	310.816	80	85
310.711	310.921	39	66
310.711	310.82	86	85
310.82	310.922	51	61
310.924	311.715	87	94
310.925	311.117	39	66
310.925	311.716	79	94
311.019	311.118	51	59
311.121	311.32	39	66
311.218	311.324	51	60
311.325	311.519	39	66
311.418	311.52	51	60
311.52	311.719	39	66
311.618	311.719	51	61
311.723	311.918	38	66
311.723	312.531	67	88
311.723	312.532	75	88
311.817	311.922	50	59
311.922	312.118	38	66
312.017	312.119	50	60
312.119	312.314	38	66
312.216	312.314	50	60
312.318	312.532	38	66
312.426	312.534	50	61
312.534	313.329	87	99
312.535	312.73	36	66
312.535	313.329	79	99
312.629	312.734	48	59
312.735	312.93	36	66
312.832	312.931	48	60
312.931	313.126	36	66
313.028	313.13	48	60
313.13	313.333	36	66
313.231	313.333	48	61
313.336	314.137	67	92
313.336	314.138	75	92
313.337	313.528	34	66
313.43	313.529	46	59
313.529	313.724	34	66
313.627	313.728	46	60
313.729	313.921	34	66
313.822	313.924	46	60
313.924	314.138	34	66
314.03	314.141	46	61
314.142	314.939	87	102
314.144	314.939	84	102
314.145	314.337	32	66
314.236	314.337	44	59
314.338	314.537	32	66
314.442	314.54	44	60
314.54	314.736	32	66
314.634	314.737	44	60
314.737	314.939	32	66
314.841	314.943	44	61
314.943	315.74	72	96
314.944	315.135	31	66
314.944	315.741	75	96
315.037	315.136	43	59
315.138	315.334	31	66
315.233	315.335	43	60
315.335	315.531	31	66
315.432	315.534	43	60
315.534	315.741	31	66
315.635	315.744	43	61
315.745	316.711	81	93
315.745	316.71	84	93
315.745	316.711	86	93
315.747	316.711	30	62
315.748	316.713	42	74
316.714	318.705	57	86
316.714	318.706	60	102
316.717	318.708	62	102
316.718	318.708	42	71
316.718	318.709	54	84
318.712	322.831	55	67
318.713	322.836	58	67
318.713	322.836	62	67
318.715	322.839	31	59
318.715	322.838	67	79
318.719	322.839	34	59
318.719	322.839	38	59
318.72	322.843	43	69
322.843	323.206	62	44
322.843	323.207	67	51
322.844	323.207	58	39
323.208	324.33	62	46
323.209	324.333	66	46
323.21	324.337	57	45
323.21	324.334	69	55
324.337	324.77	62	42
324.338	324.771	67	50
324.338	324.774	70	50
324.34	324.775	55	39
324.778	328.057	64	46
324.778	328.058	67	55
324.778	328.058	70	55
324.782	328.06	61	42
328.061	329.562	66	31
328.064	329.562	69	39
328.065	329.563	62	27
330.685	331.06	51	72
331.061	335.186	66	73
331.061	335.187	69	73
331.064	335.19	63	75
331.064	335.187	72	84
335.191	335.558	66	44
335.191	335.557	69	44
335.194	335.562	63	39
335.194	335.561	72	52
335.562	336.685	66	46
335.564	336.685	69	46
335.565	336.688	62	45
335.565	336.686	74	55
336.688	337.118	69	51
336.689	337.119	75	51
336.692	337.123	60	39
336.692	337.122	66	43
337.125	340.405	75	55
337.126	340.406	66	46
337.126	340.406	69	55
337.127	341.911	58	38
340.408	341.911	67	32
340.409	341.914	70	32
340.409	341.912	74	39
343.034	343.408	51	68
343.409	347.534	66	70
343.409	347.535	69	70
343.41	347.535	72	80
343.412	347.538	63	72
347.539	347.907	66	46
347.539	347.906	69	46
347.54	347.907	72	55
347.541	347.909	63	42
347.909	349.061	66	51
347.91	349.061	69	51
347.913	349.064	62	49
347.913	349.061	74	60
349.065	349.477	69	63
349.065	349.48	75	63
349.068	349.481	60	49
349.068	349.481	66	54
349.485	354.289	66	50
349.485	354.289	69	50
349.485	354.289	75	59
349.487	351.08	60	50
351.081	354.28	59	43
352.68	357.507	64	44
352.68	357.507	67	44
352.683	357.507	76	52
354.28	357.507	59	33
355.879	360.713	62	39
355.88	360.713	66	39
355.883	360.713	69	47
357.479	360.678	47	31
359.085	364.013	59	35
359.085	364.013	64	35
359.086	364.013	67	43
360.678	364.013	47	28
362.287	365.826	57	33
362.288	368.84	60	33
362.291	365.827	62	39
362.291	368.84	66	39
364.01	367.696	35	25
365.823	371.122	54	28
365.826	371.122	57	28
365.827	371.123	62	34
367.696	371.125	35	22
371.125	371.202	64	61
371.126	371.328	40	55
371.223	371.329	52	50
371.329	371.405	69	55
371.331	371.523	40	53
371.426	371.528	52	47
371.528	371.597	67	58
371.532	371.717	40	53
371.618	371.72	52	47
371.721	371.916	40	52
371.721	371.794	69	47
371.721	371.794	75	56
371.814	371.917	52	48
371.917	371.982	67	51
371.92	372.105	40	50
371.92	371.986	76	61
372.007	372.105	52	53
372.109	372.182	75	56
372.109	372.183	81	66
372.112	372.304	40	54
372.207	372.305	52	54
372.305	372.375	76	60
372.308	372.498	40	56
372.308	372.375	79	71
372.396	372.498	52	58
372.499	372.567	81	62
372.499	372.568	87	73
372.5	372.686	40	62
372.588	372.687	52	57
372.69	372.882	79	68
372.691	372.886	52	63
372.691	372.886	88	80
372.693	372.889	40	53
372.89	373.082	55	46
372.89	373.082	59	55
373.083	373.281	64	68
373.085	373.282	55	46
373.085	373.282	76	80
373.089	373.282	59	55
373.284	373.48	55	46
373.285	373.484	59	55
373.485	373.68	52	63
373.68	373.757	64	52
373.681	373.757	76	62
373.684	373.876	55	46
373.684	373.879	59	55
373.88	373.953	66	56
373.88	373.953	78	67
373.883	374.072	55	46
373.884	374.076	59	55
374.079	374.149	67	52
374.079	374.15	79	62
374.08	374.278	55	43
374.08	374.278	59	51
374.279	374.678	67	56
374.282	374.474	52	55
374.282	374.679	79	66
374.479	374.679	57	40
374.479	374.681	60	48
374.681	374.877	66	52
374.685	374.878	57	40
374.685	374.878	78	62
374.686	374.878	60	48
374.88	375.073	57	40
374.881	375.073	60	48
375.077	375.269	51	63
375.27	375.346	66	52
375.273	375.346	78	62
375.274	375.468	57	46
375.274	375.469	60	55
375.469	375.542	67	56
375.472	375.545	79	67
375.473	375.665	57	46
375.473	375.665	60	55
375.668	375.738	69	52
375.669	375.867	57	43
375.669	375.742	81	62
375.672	375.867	60	51
375.868	375.948	69	52
375.871	375.952	81	62
375.872	376.077	38	55
375.973	376.078	50	50
376.078	376.151	67	55
376.082	376.274	38	53
376.175	376.274	50	47
376.277	376.466	38	53
376.277	376.343	66	58
376.374	376.467	50	47
376.467	376.543	67	47
376.469	376.543	73	56
376.47	376.662	38	52
376.564	376.666	50	48
376.666	376.732	66	51
376.669	376.861	38	50
376.669	376.736	74	61
376.76	376.862	50	53
376.862	376.928	73	56
376.865	376.932	79	66
376.866	377.051	38	54
376.953	377.054	50	54
377.055	377.12	74	60
377.055	377.124	78	71
377.058	377.243	38	56
377.145	377.244	50	58
377.247	377.32	79	62
377.248	377.435	38	62
377.248	377.32	85	73
377.338	377.436	50	57
377.436	377.632	78	68
377.44	377.635	50	63
377.44	377.632	86	80
377.442	377.635	38	53
377.636	377.834	57	46
377.639	377.838	60	55
377.839	378.034	66	68
377.839	378.035	78	80
377.841	378.035	57	46
377.842	378.036	60	55
378.038	378.23	57	46
378.038	378.23	60	55
378.234	378.426	50	63
378.43	378.503	66	52
378.43	378.504	78	62
378.433	378.626	57	46
378.434	378.626	60	55
378.626	378.702	67	56
378.629	378.825	57	46
378.629	378.825	60	55
378.629	378.703	79	67
378.826	378.899	69	52
378.826	378.899	81	62
378.829	379.024	57	43
378.829	379.025	60	51
379.029	379.427	69	56
379.029	379.428	81	66
379.031	379.231	50	55
379.231	379.43	55	40
379.232	379.431	58	48
379.431	379.623	67	52
379.434	379.623	79	62
379.435	379.627	55	40
379.435	379.627	58	48
379.627	379.826	55	40
379.631	379.83	58	48
379.83	380.025	49	63
380.026	380.095	67	52
380.027	380.096	79	62
380.029	380.222	55	46
380.03	380.222	58	55
380.223	380.292	69	56
380.225	380.292	81	67
380.226	380.414	55	46
380.226	380.415	58	55
380.415	380.491	70	52
380.417	380.491	82	62
380.418	380.621	55	43
380.418	380.621	58	51
380.625	380.82	70	58
380.628	380.82	36	53
380.628	380.824	48	53
380.722	380.824	82	52
380.825	381.02	49	55
380.825	381.016	70	58
380.918	381.02	82	53
381.023	381.212	70	58
381.024	381.216	48	51
381.118	381.219	82	52
381.219	381.404	70	58
381.22	381.405	53	55
381.313	381.408	82	52
381.412	381.611	70	58
381.413	381.612	52	52
381.51	381.612	82	52
381.614	381.8	70	58
381.615	381.804	61	55
381.709	381.804	82	53
381.805	382.003	70	58
381.807	382.004	60	51
381.901	382.006	82	52
382.007	382.196	70	58
382.01	382.196	65	55
382.098	382.197	82	52
382.199	382.395	64	51
382.199	382.392	70	58
382.293	382.396	82	52
382.396	382.591	70	58
382.399	382.592	66	55
382.493	382.594	82	53
382.595	382.787	67	57
382.595	382.787	70	58
382.689	382.791	82	52
382.791	382.979	70	58
382.885	382.98	82	52
382.98	383.176	70	58
383.078	383.176	82	52
383.179	383.368	70	58
383.277	383.369	82	53
383.372	383.564	70	58
383.466	383.568	82	52
383.568	383.757	70	58
383.658	383.757	82	52
383.76	383.956	69	58
383.855	383.957	81	52
383.957	384.152	69	58
383.959	384.152	42	55
384.054	384.153	81	53
384.155	384.348	69	58
384.156	384.351	41	51
384.25	384.352	81	52
384.352	384.54	69	58
384.355	384.541	49	55
384.446	384.545	81	52
384.545	384.744	69	58
384.546	384.744	48	52
384.646	384.745	81	52
384.747	384.937	54	55
384.747	384.936	69	58
384.842	384.937	81	53
384.939	385.136	69	58
384.94	385.14	53	51
385.041	385.143	81	52
385.143	385.332	61	55
385.143	385.332	69	58
385.233	385.333	81	52
385.335	385.534	69	58
385.336	385.535	60	51
385.43	385.535	81	52
385.538	385.724	69	58
385.539	385.727	64	55
385.626	385.728	81	53
385.731	385.924	65	57
385.731	385.923	69	58
385.822	385.924	81	52
385.926	386.12	69	58
386.021	386.12	81	52
386.12	386.312	69	58
386.213	386.313	81	52
386.313	386.505	69	58
386.41	386.505	81	53
386.505	386.7	69	58
386.602	386.704	81	52
386.704	386.892	69	58
386.794	386.893	81	52
386.896	387.089	68	58
386.991	387.089	80	52
387.093	387.289	48	55
387.093	387.288	68	58
387.186	387.289	80	53
387.289	387.484	68	58
387.292	387.485	47	51
387.386	387.485	80	52
387.487	387.68	68	58
387.488	387.684	50	55
387.582	387.684	80	52
387.684	387.879	68	58
387.687	387.88	53	52
387.781	387.88	80	52
387.883	388.069	68	58
387.884	388.069	60	55
387.978	388.073	80	53
388.073	388.272	68	58
388.076	388.275	59	51
388.173	388.276	80	52
388.279	388.467	62	55
388.279	388.464	68	58
388.366	388.468	80	52
388.468	388.664	68	58
388.469	388.562	65	54
388.566	388.664	80	52
388.665	388.86	68	58
388.761	388.861	80	53
388.861	389.053	68	58
388.863	388.954	62	54
388.954	389.053	80	52
389.054	389.245	68	58
389.15	389.246	80	52
389.246	389.343	59	53
389.246	389.44	68	58
389.343	389.441	80	54
389.444	389.63	67	58
389.539	389.633	79	54
389.633	389.829	67	58
389.637	389.727	55	52
389.732	389.83	79	54
389.83	390.026	65	58
389.92	390.026	77	54
390.029	390.221	49	43
390.029	390.218	65	56
390.032	390.222	61	51
390.119	390.222	77	56
390.225	390.41	64	56
390.315	390.411	76	56
390.411	390.606	64	55
390.413	390.61	46	42
390.414	390.61	58	50
390.508	390.611	76	55
390.613	390.798	61	55
390.7	390.799	73	55
390.802	390.994	61	54
390.803	390.995	43	41
390.803	390.999	55	49
390.897	390.999	73	51
391.002	391.187	60	54
391.096	391.188	72	51
391.188	391.386	60	53
391.191	391.387	40	40
391.192	391.387	52	48
391.289	391.39	72	50
391.391	391.583	58	53
391.478	391.583	70	49
391.586	391.775	41	40
391.586	391.772	58	53
391.587	391.779	53	48
391.681	391.78	70	51
391.78	391.971	56	53
391.873	391.972	68	50
391.972	392.164	56	53
392.062	392.165	68	50
392.165	392.36	55	53
392.262	392.36	67	49
392.364	392.552	29	40
392.364	392.553	41	48
392.364	392.552	55	53
392.458	392.556	67	53
392.556	392.748	53	53
392.65	392.752	65	48
392.753	392.941	53	53
392.846	392.941	65	49
392.945	393.137	51	53
393.038	393.138	63	49
393.14	393.337	51	53
393.144	393.337	30	40
393.144	393.337	42	48
393.238	393.34	63	49
393.34	393.529	50	53
393.434	393.529	62	49
393.53	393.725	50	53
393.627	393.726	62	49
393.728	393.921	51	53
393.816	393.921	63	48
393.924	394.113	51	53
393.925	394.114	30	40
393.925	394.114	42	48
394.018	394.117	63	49
394.117	394.312	50	53
394.215	394.313	62	49
394.313	394.502	50	53
394.404	394.505	62	49
394.505	394.698	48	53
394.6	394.701	60	49
394.702	394.898	47	53
394.705	394.799	31	33
394.705	394.898	59	53
394.799	394.898	43	33
394.9	394.995	31	34
394.996	395.097	43	34
395.097	395.188	49	40
395.098	395.188	31	34
395.188	395.285	56	34
395.192	395.286	43	34
395.286	395.384	52	34
395.289	395.387	31	34
395.388	395.485	43	34
395.388	395.482	49	34
395.485	395.576	50	41
395.486	395.577	31	34
395.58	395.678	43	34
395.58	395.674	56	34
395.679	395.772	31	34
395.679	395.772	53	34
395.776	395.874	50	34
395.777	395.874	43	34
395.874	395.971	48	41
395.877	395.972	31	34
395.972	396.063	56	34
395.975	396.063	43	34
396.066	396.165	51	34
396.067	396.165	31	34
396.166	396.263	43	34
396.166	396.262	48	34
396.263	396.36	47	40
396.265	396.36	31	33
396.361	396.451	55	34
396.364	396.455	43	33
396.455	396.552	50	34
396.456	396.553	31	33
396.553	396.654	47	34
396.557	396.655	43	33
396.658	396.756	49	40
396.661	396.756	31	33
396.757	396.847	56	34
396.759	396.847	43	33
396.851	396.945	31	33
396.851	396.944	52	34
396.948	397.046	49	34
396.949	397.046	43	33
397.047	397.145	50	40
397.05	397.145	31	33
397.146	397.242	56	34
397.148	397.243	43	33
397.245	397.337	53	34
397.246	397.338	31	33
397.338	397.435	50	34
397.34	397.435	43	33
397.438	397.533	31	33
397.438	397.532	48	39
397.536	397.631	56	34
397.537	397.632	43	33
397.634	397.729	51	34
397.635	397.729	31	33
397.732	397.831	43	33
397.732	397.831	48	34
397.831	398.026	47	34
397.834	398.03	31	55
397.834	398.026	50	34
397.834	398.03	55	34
397.928	398.031	43	50
398.031	398.1	64	55
398.033	398.222	31	53
398.125	398.223	43	47
398.225	398.292	65	58
398.226	398.415	31	53
398.32	398.415	43	47
398.419	398.491	64	47
398.419	398.492	73	56
398.42	398.611	31	52
398.512	398.612	43	48
398.614	398.681	65	51
398.615	398.682	74	61
398.618	398.804	31	50
398.712	398.807	43	53
398.807	398.88	73	56
398.808	398.881	76	66
398.81	398.999	31	54
398.901	399.003	43	54
399.004	399.07	74	60
399.006	399.191	31	56
399.006	399.073	77	71
399.094	399.195	43	58
399.196	399.262	76	62
399.196	399.265	85	73
399.199	399.385	31	62
399.29	399.385	43	57
399.388	399.462	77	62
399.388	399.462	86	73
399.389	399.78	31	69
399.58	399.657	85	77
399.581	399.657	88	77
399.584	399.976	43	62
399.78	400.564	86	82
399.78	400.565	89	82
399.784	400.175	35	67
399.979	400.365	43	62
400.176	400.565	36	67
400.365	400.764	43	62
400.567	400.963	84	58
400.568	400.963	30	64
400.568	400.616	89	58
400.616	400.662	87	54
400.662	400.715	89	54
400.715	400.764	87	54
400.764	400.812	89	59
400.765	400.964	43	62
400.813	400.861	87	54
400.862	400.91	86	54
400.911	400.966	87	54
400.966	401.162	83	59
400.97	401.065	31	33
400.97	401.163	86	59
401.065	401.163	43	33
401.164	401.26	31	34
401.261	401.359	43	34
401.359	401.456	49	40
401.362	401.457	31	34
401.46	401.551	43	34
401.46	401.547	56	34
401.552	401.649	52	34
401.554	401.649	31	34
401.65	401.746	49	34
401.653	401.747	43	34
401.747	401.841	50	41
401.751	401.842	31	34
401.842	401.939	56	34
401.846	401.939	43	34
401.94	402.038	53	34
401.943	402.038	31	34
402.038	402.135	50	34
402.041	402.139	43	34
402.14	402.237	31	34
402.14	402.233	48	41
402.238	402.335	43	34
402.238	402.332	56	34
402.335	402.425	51	34
402.338	402.429	31	34
402.43	402.527	43	34
402.43	402.524	48	34
402.527	402.622	47	40
402.528	402.626	31	33
402.626	402.723	55	34
402.627	402.724	43	33
402.724	402.814	50	34
402.726	402.815	31	33
402.818	402.919	47	34
402.819	402.919	43	33
402.92	403.017	49	40
402.923	403.021	31	33
403.021	403.112	56	34
403.022	403.113	43	33
403.113	403.21	52	34
403.115	403.21	31	33
403.213	403.312	43	33
403.213	403.308	49	34
403.312	403.409	31	33
403.312	403.405	50	40
403.41	403.507	43	33
403.41	403.504	56	34
403.507	403.599	53	34
403.511	403.602	31	33
403.602	403.696	50	34
403.603	403.697	43	33
403.699	403.794	48	39
403.703	403.798	31	33
403.801	403.896	56	34
403.802	403.896	43	33
403.897	403.994	51	34
403.899	403.994	31	33
403.995	404.092	48	34
403.997	404.095	43	33
404.096	404.288	47	34
404.096	404.291	50	34
404.096	404.292	55	34
404.099	404.292	31	55
404.19	404.295	43	50
404.295	404.364	64	55
404.299	404.487	31	53
404.389	404.487	43	47
404.488	404.557	65	58
404.491	404.68	31	53
404.586	404.68	43	47
404.68	404.753	64	47
404.684	404.876	31	52
404.684	404.758	73	56
404.778	404.879	43	48
404.879	404.95	65	51
404.88	405.072	31	50
404.88	404.953	74	61
404.974	405.075	43	53
405.076	405.142	73	56
405.076	405.145	76	66
405.079	405.265	31	54
405.166	405.265	43	54
405.268	405.335	74	60
405.268	405.335	77	71
405.269	405.457	31	56
405.358	405.458	43	58
405.458	405.53	76	62
405.46	405.53	85	73
405.461	405.65	31	62
405.555	405.65	43	57
405.651	405.726	77	62
405.653	406.041	31	69
405.653	405.727	86	73
405.845	405.923	85	77
405.846	406.241	43	62
405.846	405.923	88	77
406.045	406.825	86	82
406.046	406.829	89	82
406.048	406.437	35	67
406.241	406.636	43	62
406.438	406.829	36	67
406.637	407.032	43	62
406.83	407.228	84	58
406.832	407.228	30	64
406.832	406.878	89	58
406.882	406.924	87	54
406.927	406.976	89	54
406.979	407.033	87	54
407.033	407.074	89	59
407.034	407.229	43	62
407.077	407.13	87	54
407.13	407.176	86	54
407.176	407.232	87	54
407.232	407.298	83	62
407.233	407.623	31	69
407.233	407.298	86	73
407.42	407.494	85	77
407.421	407.82	43	62
407.421	407.498	88	77
407.624	408.404	86	82
407.624	408.405	89	82
407.625	408.012	35	67
407.82	408.208	43	62
408.013	408.407	36	67
408.208	408.603	43	62
408.411	408.8	84	58
408.412	408.803	30	64
408.412	408.449	89	58
408.453	408.506	87	54
408.506	408.55	89	54
408.551	408.604	87	54
408.604	408.656	89	59
408.606	408.803	43	62
408.657	408.705	87	54
408.706	408.754	86	54
408.755	408.804	87	54
408.804	408.877	83	62
408.807	408.877	86	73
408.808	409.202	31	69
408.999	409.072	85	77
409.0	409.391	43	62
409.0	409.073	88	77
409.202	409.979	86	82
409.202	409.98	89	82
409.206	409.586	35	67
409.394	409.787	43	62
409.591	409.982	36	67
409.787	410.181	43	62
409.983	410.378	84	58
409.983	410.031	89	58
409.986	410.379	30	64
410.032	410.077	87	54
410.077	410.13	89	54
410.13	410.182	87	54
410.186	410.381	43	62
410.186	410.227	89	59
410.231	410.28	87	54
410.281	410.325	86	54
410.329	410.381	87	54
410.385	410.476	83	58
410.385	410.476	86	58
410.48	410.577	89	53
410.578	410.668	86	54
410.669	410.77	84	54
410.77	410.867	83	58
410.868	410.966	89	53
410.967	411.064	86	53
411.064	411.162	84	53
411.162	411.26	83	58
411.261	411.354	89	55
411.354	411.452	86	55
411.453	411.554	84	55
411.555	411.652	83	58
411.653	411.75	86	55
411.75	411.84	83	55
411.845	411.939	79	55
411.942	412.037	80	58
412.041	412.139	82	55
412.139	412.236	80	55
412.237	412.334	79	55
412.334	412.429	77	58
412.429	412.527	80	55
412.528	412.625	77	55
412.628	412.723	75	55
412.727	412.82	74	58
412.825	412.922	77	54
412.923	413.021	74	54
413.021	413.111	72	54
413.114	413.213	71	58
413.214	413.311	74	54
413.311	413.409	71	54
413.409	413.507	67	54
413.511	413.605	68	58
413.608	413.7	70	55
413.7	413.797	68	55
413.801	413.895	67	55
413.899	413.994	65	58
413.997	414.094	68	58
414.095	414.193	65	55
414.194	414.288	63	55
414.288	414.386	62	58
414.386	414.483	65	55
414.484	414.581	62	55
414.585	414.68	60	55
414.683	414.777	59	58
414.781	414.872	62	55
414.873	414.97	59	55
414.97	415.068	55	55
415.068	415.169	56	58
415.17	415.268	58	54
415.268	415.366	56	54
415.366	415.46	55	54
415.461	415.558	53	58
415.559	415.656	51	53
415.656	415.754	50	53
415.755	415.852	48	53
415.853	415.947	47	58
415.947	416.044	48	55
416.045	416.146	47	55
416.147	416.244	44	56
416.244	416.341	43	58
416.342	416.44	41	55
416.441	416.538	39	55
416.541	416.629	38	55
416.633	416.836	36	44
416.633	417.235	60	50
416.737	416.941	48	41
416.836	417.042	36	44
416.941	417.136	48	41
417.042	417.235	36	44
417.136	417.236	48	41
417.238	417.311	58	52
417.239	417.312	64	52
417.242	417.434	36	45
417.333	417.435	48	41
417.435	417.504	56	54
417.437	417.504	65	54
417.438	417.629	36	45
417.532	417.63	48	46
417.633	417.7	64	56
417.634	417.822	36	47
417.634	417.701	67	56
417.721	417.822	48	47
417.823	417.889	65	57
417.826	417.893	68	57
417.827	418.011	36	49
417.917	418.015	48	50
418.016	418.081	62	59
418.016	418.085	71	59
418.018	418.204	36	51
418.113	418.204	48	53
418.208	418.285	63	61
418.208	418.285	72	61
418.209	418.418	36	55
418.308	418.512	48	50
418.415	418.81	64	55
418.417	418.81	72	55
418.418	418.614	36	53
418.512	418.704	48	47
418.614	418.809	36	53
418.704	418.81	48	47
418.807	418.88	70	51
418.809	418.998	36	44
418.809	418.88	76	51
418.901	418.999	48	40
419.002	419.068	68	53
419.003	419.069	77	53
419.005	419.191	36	43
419.1	419.195	48	45
419.195	419.268	76	55
419.196	419.387	36	46
419.196	419.268	79	55
419.289	419.39	48	47
419.391	419.457	77	57
419.394	419.58	36	48
419.394	419.46	80	57
419.482	419.583	48	50
419.583	419.649	74	59
419.584	419.772	36	51
419.584	419.653	83	59
419.674	419.773	48	53
419.775	420.178	72	51
419.776	420.178	75	51
419.776	420.176	79	61
419.776	420.178	84	61
419.779	419.971	36	55
419.87	420.069	48	50
419.971	420.178	36	53
420.069	420.178	48	47
420.172	420.574	67	53
420.175	420.577	71	53
420.175	420.577	77	63
420.176	420.368	38	55
420.176	420.577	79	63
420.265	420.465	50	50
420.368	420.577	38	55
420.465	420.577	50	51
420.574	420.972	67	56
420.574	420.972	72	56
420.575	420.972	75	67
420.577	420.767	39	55
420.668	420.864	51	55
420.767	420.972	39	55
420.864	420.972	51	55
420.966	421.368	65	60
420.97	421.163	41	55
420.97	421.368	68	60
420.97	421.368	74	71
421.06	421.259	53	53
421.163	421.368	41	55
421.259	421.368	53	55
421.362	422.574	63	62
421.362	421.768	67	74
421.364	422.574	72	74
421.365	421.561	43	56
421.459	421.658	55	56
421.561	421.768	43	57
421.658	421.768	55	57
421.767	421.964	44	58
421.767	422.17	66	74
421.862	422.065	56	59
421.964	422.17	44	59
422.065	422.17	56	60
422.166	422.574	69	77
422.17	422.369	42	60
422.264	422.466	54	55
422.369	422.574	42	61
422.466	422.574	54	55
422.569	422.975	62	62
422.573	422.772	43	58
422.573	422.975	65	62
422.573	422.975	71	74
422.663	422.863	55	55
422.772	422.975	43	58
422.863	422.975	55	55
422.971	423.048	60	67
422.972	423.048	63	67
422.972	423.049	72	79
422.974	423.17	36	48
423.069	423.174	48	45
423.178	423.374	36	44
423.178	423.569	60	67
423.272	423.468	48	41
423.374	423.57	36	44
423.468	423.57	48	40
423.571	423.643	58	52
423.573	423.646	64	52
423.574	423.766	36	44
423.667	423.766	48	41
423.769	423.835	56	54
423.769	423.836	65	54
423.77	423.961	36	44
423.863	423.962	48	46
423.965	424.032	64	55
423.966	424.032	67	55
423.968	424.154	36	47
424.056	424.154	48	47
424.157	424.224	65	57
424.158	424.347	36	49
424.158	424.225	68	57
424.245	424.347	48	50
424.348	424.417	62	59
424.35	424.535	36	51
424.35	424.417	71	59
424.441	424.536	48	53
424.54	424.612	63	61
424.542	424.613	72	61
424.543	424.753	36	55
424.644	424.836	48	50
424.749	425.144	64	55
424.749	425.144	72	55
424.753	424.941	36	53
424.836	425.036	48	47
424.941	425.142	36	53
425.036	425.144	48	47
425.141	425.204	70	51
425.142	425.327	36	44
425.142	425.205	76	51
425.235	425.33	48	40
425.331	425.404	68	53
425.331	425.404	77	53
425.334	425.522	36	43
425.425	425.527	48	45
425.527	425.592	76	55
425.529	425.596	79	55
425.53	425.715	36	46
425.617	425.719	48	47
425.719	425.785	77	57
425.72	425.789	80	57
425.722	425.907	36	48
425.813	425.908	48	50
425.911	425.981	74	59
425.912	426.104	36	51
425.912	425.985	83	59
426.006	426.104	48	53
426.107	426.51	72	51
426.111	426.507	75	51
426.111	426.51	79	61
426.111	426.51	84	61
426.112	426.304	36	55
426.205	426.405	48	50
426.304	426.51	36	53
426.405	426.51	48	47
426.507	426.899	68	53
426.507	426.905	75	63
426.509	426.905	80	63
426.51	426.7	36	55
426.597	426.796	48	50
426.7	426.905	36	55
426.796	426.905	48	51
426.899	427.301	68	56
426.901	427.301	73	56
426.902	427.095	37	55
426.902	427.301	77	67
426.993	427.188	49	55
427.095	427.301	37	55
427.188	427.301	49	55
427.295	427.7	66	60
427.297	427.7	72	60
427.297	427.7	75	71
427.298	427.487	39	55
427.394	427.591	51	53
427.487	427.7	39	55
427.591	427.7	51	55
427.696	428.106	65	62
427.697	428.106	68	74
427.7	427.896	41	56
427.7	428.106	73	74
427.787	427.994	53	56
427.896	428.106	41	57
427.994	428.106	53	57
428.103	428.505	66	74
428.103	428.505	70	74
428.105	428.502	61	74
428.106	428.296	42	58
428.193	428.392	54	59
428.296	428.505	42	59
428.392	428.505	54	60
428.502	428.904	61	74
428.502	428.904	65	74
428.504	428.697	44	60
428.504	429.307	68	77
428.596	428.791	56	55
428.697	428.9	44	61
428.791	428.904	56	55
428.897	429.307	60	74
428.897	429.307	63	74
428.9	429.09	44	58
428.991	429.191	56	55
429.09	429.306	44	58
429.191	429.307	56	55
429.303	429.709	62	51
429.304	429.709	65	51
429.306	429.505	44	52
429.306	429.702	70	61
429.397	429.604	56	45
429.505	429.709	44	53
429.604	429.709	56	47
429.702	430.098	70	53
429.706	430.104	77	63
429.706	430.104	82	63
429.707	429.892	38	55
429.789	429.995	50	50
429.892	430.104	38	55
429.995	430.104	50	51
430.098	430.497	70	56
430.1	430.497	75	56
430.101	430.293	39	55
430.101	430.497	78	67
430.192	430.387	51	55
430.293	430.497	39	55
430.387	430.497	51	55
430.493	430.899	68	60
430.494	430.899	74	60
430.496	430.689	41	55
430.496	430.899	77	71
430.587	430.79	53	53
430.689	430.899	41	55
430.79	430.899	53	55
430.893	431.299	66	62
430.895	431.299	70	74
430.895	431.299	75	74
430.896	431.094	42	56
430.989	431.189	54	56
431.094	431.299	42	57
431.189	431.299	54	57
431.295	431.694	63	74
431.298	431.697	68	74
431.298	431.697	71	74
431.299	431.495	44	58
431.392	431.592	56	59
431.495	431.697	44	59
431.592	431.697	56	60
431.694	432.099	63	74
431.696	432.099	66	74
431.697	431.894	46	60
431.697	432.499	70	77
431.795	431.994	58	55
431.894	432.096	46	61
431.994	432.099	58	55
432.095	432.499	62	74
432.096	432.289	46	58
432.096	432.499	65	74
432.187	432.393	58	55
432.289	432.499	46	58
432.393	432.499	58	55
432.495	432.901	64	51
432.498	432.901	67	51
432.499	432.695	46	53
432.499	432.897	72	61
432.597	432.792	58	46
432.695	432.901	46	50
432.792	432.901	58	47
432.897	433.297	72	53
432.898	433.3	79	63
432.898	433.3	84	63
432.901	433.091	40	55
432.991	433.188	52	50
433.091	433.3	40	55
433.188	433.3	52	51
433.297	433.696	72	56
433.298	433.696	77	56
433.299	433.696	80	67
433.3	433.486	41	55
433.39	433.587	53	55
433.486	433.696	41	55
433.587	433.696	53	55
433.692	434.091	70	60
433.695	434.091	76	60
433.696	433.885	43	55
433.696	434.091	79	71
433.786	433.982	55	53
433.885	434.091	43	55
433.982	434.091	55	55
434.087	434.497	68	62
434.088	434.497	72	74
434.091	434.286	44	56
434.091	434.497	77	74
434.189	434.381	56	56
434.286	434.497	44	57
434.381	434.497	56	57
434.493	434.896	73	74
434.494	434.686	46	58
434.494	434.893	65	74
434.584	434.784	58	59
434.686	434.896	46	59
434.784	434.896	58	60
434.893	435.288	65	74
434.893	435.294	72	77
434.896	435.088	48	60
434.986	435.183	60	55
435.088	435.294	48	61
435.183	435.294	60	55
435.288	435.691	65	74
435.288	435.691	71	74
435.291	435.488	49	58
435.382	435.585	61	55
435.488	435.691	49	58
435.585	435.691	61	55
435.688	435.882	64	65
435.69	435.883	72	73
435.691	435.883	48	58
435.691	435.884	60	58
435.887	436.082	59	50
436.086	436.285	60	59
436.286	436.489	59	56
436.492	436.695	60	57
436.695	436.897	59	49
436.898	437.101	60	57
437.101	437.3	59	51
437.304	438.106	60	44
437.51	437.612	48	55
437.514	437.71	65	38
437.514	437.71	68	38
437.71	437.808	53	58
437.713	437.909	65	38
437.713	437.909	68	38
437.91	438.007	55	61
437.91	438.106	65	38
437.912	438.106	68	38
438.109	438.203	56	64
438.109	438.91	60	44
438.305	438.406	72	62
438.308	438.511	65	38
438.309	438.512	68	38
438.512	438.609	77	64
438.514	438.707	65	38
438.515	438.707	68	38
438.711	438.911	65	38
438.711	438.805	79	66
438.712	438.914	68	38
438.861	438.914	72	65
438.915	439.515	80	75
438.917	439.712	60	44
439.113	439.313	65	38
439.114	439.313	68	38
439.314	439.516	65	38
439.314	439.516	68	38
439.519	439.712	77	63
439.52	439.713	65	38
439.52	439.716	68	38
439.666	439.716	72	60
439.719	440.519	60	44
439.719	440.321	80	71
439.918	440.117	65	38
439.922	440.118	68	38
440.118	440.324	65	38
440.122	440.324	68	38
440.324	440.521	65	38
440.324	440.521	77	58
440.328	440.521	68	38
440.523	440.726	76	60
440.524	441.317	60	44
440.729	440.827	48	57
440.73	440.932	67	38
440.73	440.932	70	38
440.932	441.024	55	60
440.933	441.121	67	38
440.936	441.124	70	38
441.125	441.219	56	63
441.125	441.321	67	38
441.128	441.321	70	38
441.324	441.415	58	66
441.324	442.125	60	44
441.52	441.723	72	59
441.521	441.727	67	38
441.524	441.727	70	38
441.73	441.93	82	62
441.731	441.93	67	38
441.731	441.931	70	38
441.933	442.13	67	38
441.933	442.129	80	65
441.934	442.13	70	38
442.13	442.178	80	60
442.132	442.938	60	44
442.179	442.231	82	60
442.231	442.329	80	67
442.329	442.532	79	60
442.333	442.535	67	38
442.333	442.535	70	38
442.536	442.584	79	60
442.539	442.738	67	38
442.54	442.739	70	38
442.584	442.637	80	60
442.637	442.739	79	67
442.74	442.941	77	60
442.741	442.941	67	38
442.742	442.941	70	38
442.945	443.749	60	44
442.945	442.99	77	60
442.991	443.042	79	60
443.043	443.144	77	66
443.145	443.348	67	38
443.145	443.348	70	38
443.145	443.344	76	60
443.348	443.452	74	60
443.351	443.55	67	38
443.351	443.55	70	38
443.551	443.75	67	38
443.551	443.651	76	60
443.554	443.753	70	38
443.756	443.96	77	60
443.757	444.551	60	44
443.963	444.064	48	55
443.964	444.163	65	38
443.964	444.163	68	38
444.166	444.257	53	58
444.166	444.355	65	38
444.17	444.356	68	38
444.356	444.453	55	61
444.358	444.555	65	38
444.359	444.555	68	38
444.558	444.656	56	64
444.558	445.359	60	44
444.758	444.859	72	62
444.759	444.957	65	38
444.759	444.96	68	38
444.961	445.062	77	64
444.964	445.16	65	38
444.965	445.16	68	38
445.164	445.261	80	66
445.167	445.36	65	38
445.167	445.363	68	38
445.314	445.364	72	65
445.364	446.168	56	44
445.364	445.961	84	75
445.563	445.762	60	38
445.563	445.763	65	38
445.763	445.965	60	38
445.763	445.966	65	38
445.966	446.116	77	63
445.969	446.168	60	38
445.969	446.169	65	38
446.116	446.172	77	60
446.172	446.77	89	71
446.173	446.973	56	44
446.371	446.568	60	38
446.372	446.568	65	38
446.568	446.77	60	38
446.57	446.774	65	38
446.774	446.974	84	58
446.775	446.974	60	38
446.775	446.976	65	38
446.977	447.768	55	44
446.977	447.184	83	60
447.184	447.274	43	57
447.185	447.379	62	38
447.187	447.383	65	38
447.383	447.474	50	60
447.384	447.571	62	38
447.386	447.572	65	38
447.572	447.67	51	63
447.575	447.768	62	38
447.576	447.771	65	38
447.771	447.866	53	66
447.775	448.572	55	44
447.974	448.174	67	59
447.975	448.178	62	38
447.975	448.178	65	38
448.178	448.373	77	62
448.181	448.374	62	38
448.181	448.374	65	38
448.374	448.577	75	65
448.377	448.577	62	38
448.378	448.579	65	38
448.58	449.388	55	44
448.58	448.629	75	60
448.63	448.674	77	60
448.675	448.779	75	67
448.779	448.982	74	60
448.78	448.983	62	38
448.783	448.986	65	38
448.986	449.035	74	60
448.987	449.185	62	38
448.989	449.186	65	38
449.035	449.08	75	60
449.08	449.186	74	67
449.188	449.388	72	60
449.189	449.392	62	38
449.189	449.392	65	38
449.392	449.441	72	60
449.393	450.2	55	44
449.441	449.487	74	60
449.487	449.591	72	66
449.592	449.795	62	38
449.592	449.794	71	60
449.595	449.795	65	38
449.798	449.997	62	38
449.798	449.899	69	60
449.802	450.001	65	38
450.001	450.096	71	60
450.002	450.201	62	38
450.002	450.201	65	38
450.203	450.404	72	60
450.204	451.002	55	44
450.404	450.508	43	55
450.407	450.606	60	38
450.407	450.606	63	38
450.607	450.704	48	58
450.61	450.806	60	38
450.611	450.806	63	38
450.806	450.904	50	61
450.809	451.002	60	38
450.81	451.005	63	38
451.005	451.1	51	64
451.006	451.806	55	44
451.204	451.303	79	62
451.205	451.408	60	38
451.205	451.408	63	38
451.412	451.607	60	38
451.412	451.505	84	64
451.415	451.607	63	38
451.608	451.811	60	38
451.608	451.706	86	66
451.611	451.811	63	38
451.757	451.813	79	65
451.814	452.615	55	44
451.814	452.406	87	75
452.006	452.209	60	38
452.006	452.21	63	38
452.21	452.409	60	38
452.213	452.409	63	38
452.409	452.619	84	63
452.413	452.619	60	38
452.413	452.62	63	38
452.563	452.62	79	60
452.622	453.214	87	71
452.623	453.416	55	44
452.818	453.018	60	38
452.819	453.018	63	38
453.019	453.215	60	38
453.019	453.217	63	38
453.218	453.417	60	38
453.218	453.417	84	58
453.219	453.42	63	38
453.421	454.211	55	44
453.421	453.627	83	60
453.627	453.724	43	57
453.628	453.823	62	38
453.63	453.824	65	38
453.824	453.921	50	60
453.826	454.016	62	38
453.827	454.016	65	38
454.016	454.113	51	63
454.019	454.211	62	38
454.019	454.215	65	38
454.216	454.31	53	66
454.218	455.02	55	44
454.414	454.618	79	59
454.415	454.621	62	38
454.417	454.621	65	38
454.621	454.824	89	62
454.625	454.825	62	38
454.625	454.825	65	38
454.825	455.02	87	65
454.827	455.02	62	38
454.827	455.024	65	38
455.024	455.832	55	44
455.024	455.068	87	60
455.073	455.125	89	60
455.126	455.223	87	67
455.223	455.426	86	60
455.224	455.427	62	38
455.226	455.429	65	38
455.429	455.478	86	60
455.43	455.628	62	38
455.43	455.629	65	38
455.479	455.531	87	60
455.531	455.629	86	67
455.632	455.832	84	60
455.633	455.835	62	38
455.633	455.835	65	38
455.836	455.884	84	60
455.839	456.65	55	44
455.884	455.937	86	60
455.937	456.034	84	66
456.035	456.238	62	38
456.035	456.238	83	60
456.038	456.242	65	38
456.242	456.343	81	60
456.243	456.441	62	38
456.243	456.441	65	38
456.444	456.546	83	60
456.445	456.651	62	38
456.445	456.651	65	38
456.654	456.703	86	60
456.655	457.463	60	44
456.704	456.756	87	60
456.757	456.854	86	67
456.854	457.057	84	59
456.857	457.058	63	37
456.857	457.058	67	37
457.06	457.109	84	58
457.061	457.26	63	37
457.061	457.26	67	37
457.11	457.162	86	58
457.162	457.264	84	65
457.264	457.464	63	36
457.264	457.463	82	58
457.265	457.466	67	36
457.466	457.515	82	57
457.467	458.281	53	42
457.515	457.568	84	57
457.568	457.665	82	63
457.666	457.869	81	57
457.669	457.873	63	36
457.67	457.873	65	36
457.874	458.072	63	35
457.874	457.973	79	56
457.876	458.072	65	35
458.073	458.177	81	55
458.075	458.282	63	35
458.076	458.285	65	35
458.286	459.094	58	40
458.286	458.33	84	55
458.335	458.387	85	55
458.388	458.485	84	61
458.485	458.688	82	54
458.486	458.689	61	34
458.488	458.691	65	34
458.692	458.891	61	34
458.692	458.891	65	34
458.692	458.74	82	54
458.741	458.793	84	54
458.793	458.891	82	60
458.895	459.097	61	33
458.895	459.097	65	33
458.895	459.094	80	53
459.098	459.146	80	52
459.101	459.913	51	38
459.146	459.199	82	52
459.199	459.296	80	57
459.297	459.5	79	52
459.3	459.5	61	33
459.301	459.504	63	33
459.504	459.604	77	51
459.507	459.703	61	32
459.507	459.706	63	32
459.706	459.808	79	51
459.707	459.913	61	32
459.71	459.913	63	32
459.917	460.749	56	36
459.917	459.965	82	50
459.966	460.018	84	50
460.019	460.123	82	55
460.123	460.329	80	49
460.124	460.33	60	31
460.127	460.333	63	31
460.334	460.382	80	49
460.336	460.533	60	31
460.337	460.536	63	31
460.383	460.431	82	48
460.432	460.536	80	54
460.537	460.75	79	48
460.54	460.75	60	30
460.54	460.753	63	30
460.753	460.802	79	48
460.754	461.582	56	35
460.802	460.855	80	47
460.855	460.956	79	52
460.957	461.159	78	47
460.959	461.163	60	30
460.96	461.163	63	30
461.166	461.369	60	29
461.166	461.372	63	29
461.166	461.264	78	46
461.372	461.474	78	46
461.373	461.587	60	29
461.373	461.587	63	29
461.589	461.635	80	42
461.59	462.458	55	30
461.638	461.687	82	42
461.691	461.8	80	46
461.8	462.016	79	42
461.803	462.017	60	26
461.803	462.017	63	26
462.017	462.125	79	42
462.02	462.233	60	26
462.021	462.234	63	26
462.237	462.338	79	42
462.238	462.458	60	26
462.24	462.458	63	26
462.459	462.514	80	42
462.461	463.343	55	30
462.514	462.562	82	42
462.567	462.674	80	46
462.678	462.895	79	42
462.679	462.898	59	26
462.679	462.899	62	26
462.899	463.01	79	42
462.903	463.122	59	26
462.903	463.126	62	26
463.126	463.231	79	42
463.127	463.346	59	26
463.13	463.346	62	26
463.347	464.685	48	36
463.493	463.753	60	25
463.494	463.754	55	24
463.647	463.858	51	26
463.647	464.061	63	29
463.753	463.96	60	29
463.754	463.96	55	24
463.855	464.684	72	45
463.858	464.062	51	32
463.96	464.166	55	25
463.96	464.162	60	28
464.061	464.268	63	30
464.062	464.27	51	28
464.162	464.27	60	28
464.166	464.27	55	26
464.268	464.47	63	31
464.27	464.474	51	34
464.376	464.578	55	26
464.376	464.576	60	30
464.47	464.884	63	32
464.474	464.885	51	29
464.576	464.784	60	29
464.578	464.785	55	26
464.684	465.097	72	50
464.685	465.097	48	36
464.784	464.989	60	30
464.785	464.992	55	28
464.884	465.097	63	33
464.885	465.097	51	32
464.989	465.097	60	32
464.992	465.097	55	28
465.093	466.357	46	45
465.201	465.419	61	32
465.202	465.419	55	30
465.315	465.524	52	32
465.315	465.73	64	36
465.419	465.626	55	29
465.419	465.626	61	35
465.521	466.354	73	54
465.524	465.734	52	38
465.626	465.837	55	30
465.626	465.836	61	33
465.73	465.934	64	35
465.734	465.936	52	33
465.836	465.943	61	32
465.837	465.943	55	30
465.934	466.143	64	35
465.936	466.146	52	38
466.038	466.249	61	33
466.042	466.251	55	29
466.143	466.557	64	35
466.146	466.557	52	32
466.249	466.447	61	32
466.251	466.448	55	29
466.354	466.775	73	53
466.357	466.775	46	38
466.447	466.661	61	32
466.448	466.661	55	30
466.557	466.775	52	33
466.557	466.775	64	35
466.661	466.775	55	29
466.661	466.775	61	33
466.774	466.846	44	55
466.774	466.843	72	66
466.871	466.973	60	41
466.874	466.973	56	36
466.974	467.07	65	45
466.976	467.071	48	39
467.071	467.175	60	42
467.074	467.176	56	35
467.176	467.249	76	67
467.179	467.253	46	56
467.274	467.378	64	43
467.277	467.379	58	36
467.379	467.476	72	47
467.381	467.477	48	43
467.477	467.574	64	43
467.48	467.578	58	41
467.579	467.652	44	58
467.579	467.651	77	71
467.673	467.77	65	45
467.676	467.775	56	38
467.775	467.872	72	50
467.777	467.873	48	43
467.873	467.97	65	45
467.875	467.97	56	38
467.971	468.039	79	72
467.974	468.04	43	60
468.068	468.166	67	47
468.069	468.167	55	40
468.169	468.261	72	50
468.17	468.261	48	43
468.262	468.358	67	47
468.264	468.362	55	38
468.362	468.435	80	74
468.363	468.436	41	63
468.456	468.551	68	49
468.46	468.551	53	42
468.552	468.648	72	54
468.555	468.652	48	45
468.653	468.75	53	42
468.653	468.747	68	49
468.751	468.825	39	66
468.751	468.824	81	80
468.845	468.94	69	50
468.848	468.94	51	41
468.943	469.038	48	47
468.943	469.037	72	55
469.041	469.135	69	51
469.042	469.136	51	41
469.139	469.206	38	68
469.139	469.206	83	84
469.23	469.328	50	45
469.23	469.327	71	51
469.328	469.419	77	58
469.332	469.422	43	49
469.423	469.521	71	53
469.426	469.521	50	43
469.522	469.591	84	85
469.524	469.591	36	70
469.619	469.714	48	45
469.619	469.713	72	53
469.714	469.811	77	58
469.715	469.811	43	51
469.812	469.906	72	54
469.814	469.906	48	43
469.907	469.979	35	70
469.907	469.978	86	85
470.003	470.101	74	55
470.004	470.102	47	47
470.102	470.193	77	63
470.105	470.196	43	53
470.196	470.29	74	55
470.197	470.294	47	48
470.294	470.36	88	90
470.297	470.364	34	72
470.388	470.483	76	57
470.392	470.486	46	47
470.486	470.581	79	62
470.487	470.585	36	53
470.585	470.675	76	57
470.586	470.676	46	50
470.679	470.749	89	89
470.68	470.752	32	75
470.773	470.868	44	50
470.773	470.865	77	59
470.872	470.966	36	55
470.872	470.965	80	64
470.966	471.064	77	59
470.97	471.065	44	50
471.065	471.141	86	91
471.067	471.141	29	76
471.162	471.271	41	56
471.162	471.27	77	61
471.271	471.368	80	67
471.272	471.369	36	58
471.369	471.47	77	61
471.37	471.47	41	55
471.471	472.271	31	71
471.474	472.262	43	84
471.571	471.767	75	78
471.671	472.058	79	84
471.767	471.956	75	78
471.866	472.271	84	88
471.956	472.163	75	78
472.058	472.271	79	84
472.163	472.271	75	76
472.261	473.076	55	84
472.262	473.076	43	71
472.362	472.562	74	78
472.468	472.853	77	84
472.562	472.755	74	78
472.657	473.076	83	88
472.755	472.962	74	78
472.853	473.076	77	84
472.962	473.076	74	76
473.074	474.327	48	45
473.178	473.396	55	30
473.178	473.395	60	32
473.284	473.703	63	36
473.285	473.493	51	32
473.395	473.599	60	35
473.396	473.599	55	29
473.493	473.704	51	38
473.493	474.327	72	54
473.599	473.808	55	30
473.599	473.806	60	33
473.703	473.913	63	35
473.704	473.914	51	33
473.806	473.914	60	32
473.808	473.914	55	30
473.913	474.114	63	35
473.914	474.116	51	38
474.011	474.218	60	33
474.012	474.221	55	29
474.114	474.527	63	35
474.116	474.529	51	32
474.218	474.421	60	32
474.221	474.421	55	29
474.327	474.733	48	38
474.327	474.733	72	53
474.421	474.631	55	30
474.421	474.63	60	32
474.527	474.733	63	35
474.529	474.733	51	33
474.63	474.733	60	33
474.631	474.733	55	29
474.732	475.993	46	45
474.843	475.059	61	32
474.844	475.061	55	30
474.957	475.166	52	32
474.957	475.374	64	36
475.059	475.268	61	35
475.061	475.271	55	29
475.163	475.992	73	54
475.166	475.375	52	38
475.268	475.471	61	33
475.271	475.474	55	30
475.374	475.579	64	35
475.375	475.58	52	33
475.471	475.586	61	32
475.474	475.586	55	30
475.579	475.786	64	35
475.58	475.789	52	38
475.681	475.884	61	33
475.684	475.887	55	29
475.786	476.198	64	35
475.789	476.199	52	32
475.884	476.09	61	32
475.887	476.094	55	29
475.992	476.419	73	53
475.993	476.419	46	38
476.09	476.301	61	32
476.094	476.303	55	30
476.198	476.419	64	35
476.199	476.419	52	33
476.301	476.419	61	33
476.303	476.419	55	29
476.416	476.486	44	55
476.416	476.485	72	66
476.51	476.615	60	41
476.511	476.616	56	36
476.616	476.713	65	45
476.618	476.713	48	39
476.714	476.818	60	42
476.717	476.819	56	35
476.822	476.892	46	56
476.822	476.891	76	67
476.916	477.014	64	43
476.917	477.014	58	36
477.015	477.119	72	47
477.018	477.119	48	43
477.123	477.218	58	41
477.123	477.217	64	43
477.22	477.291	77	71
477.221	477.294	44	58
477.315	477.413	56	38
477.315	477.413	65	45
477.417	477.514	72	50
477.42	477.515	48	43
477.515	477.612	65	45
477.516	477.612	56	38
477.613	477.683	79	72
477.616	477.683	43	60
477.707	477.806	55	40
477.707	477.805	67	47
477.806	477.903	72	50
477.809	477.904	48	43
477.904	478.001	67	47
477.906	478.001	55	38
478.005	478.075	80	74
478.006	478.078	41	63
478.099	478.193	68	49
478.1	478.194	53	42
478.194	478.292	72	54
478.198	478.293	48	45
478.293	478.39	68	49
478.295	478.39	53	42
478.39	478.459	81	80
478.393	478.46	39	66
478.491	478.582	69	50
478.492	478.583	51	41
478.583	478.68	72	55
478.585	478.68	48	47
478.681	478.778	69	51
478.684	478.782	51	41
478.782	478.848	83	84
478.783	478.852	38	68
478.872	478.971	71	51
478.873	478.971	50	45
478.972	479.068	77	58
478.974	479.072	43	49
479.073	479.164	50	43
479.073	479.163	71	53
479.164	479.237	84	85
479.166	479.24	36	70
479.261	479.359	48	45
479.261	479.359	72	53
479.363	479.454	43	51
479.363	479.45	77	58
479.457	479.551	72	54
479.458	479.552	48	43
479.552	479.625	86	85
479.555	479.625	35	70
479.65	479.744	47	47
479.65	479.74	74	55
479.745	479.843	43	53
479.745	479.842	77	63
479.843	479.94	74	55
479.845	479.94	47	48
479.941	480.01	88	90
479.944	480.01	34	72
480.035	480.133	46	47
480.035	480.132	76	57
480.133	480.227	79	62
480.136	480.228	36	53
480.228	480.325	46	50
480.228	480.324	76	57
480.325	480.395	89	89
480.326	480.396	32	75
480.423	480.521	77	59
480.424	480.524	44	50
480.525	480.616	36	55
480.525	480.612	80	64
480.616	480.71	77	59
480.619	480.714	44	50
480.714	480.787	86	91
480.717	480.788	29	76
480.818	480.917	77	61
480.819	480.917	41	56
480.918	481.017	80	67
480.92	481.022	36	58
481.022	481.116	77	61
481.025	481.119	41	55
481.12	481.921	31	71
481.123	481.915	43	84
481.221	481.414	75	78
481.319	481.712	79	84
481.414	481.613	75	78
481.516	481.921	84	88
481.613	481.812	75	78
481.712	481.921	79	84
481.812	481.921	75	76
481.914	482.713	55	84
481.915	482.713	43	71
482.012	482.212	74	78
482.114	482.507	77	84
482.212	482.407	74	78
482.31	482.713	83	88
482.407	482.604	74	78
482.507	482.713	77	84
482.604	482.713	74	76
482.712	482.785	72	81
482.713	482.919	48	84
482.919	483.119	60	34
482.919	483.42	84	58
482.922	483.119	63	34
483.119	483.318	60	34
483.119	483.318	63	34
483.317	483.528	83	46
483.318	483.528	60	34
483.318	483.528	63	34
483.42	483.528	84	48
483.521	484.329	56	34
483.521	484.329	86	49
483.622	484.329	84	49
483.721	484.124	82	48
483.723	483.92	60	34
483.724	483.92	63	34
483.818	484.024	80	47
483.92	484.126	60	34
483.92	484.126	63	34
483.92	484.323	79	45
484.024	484.217	80	46
484.124	484.329	82	49
484.126	484.329	60	34
484.126	484.329	63	34
484.217	484.329	80	47
484.323	485.125	53	34
484.323	485.125	79	49
484.424	485.125	77	47
484.522	484.724	62	34
484.522	484.919	75	46
484.525	484.722	60	34
484.623	484.819	74	45
484.722	484.92	60	34
484.722	485.125	73	45
484.724	484.921	62	34
484.819	485.016	74	45
484.919	485.125	75	47
484.92	485.125	60	34
484.921	485.125	62	34
485.016	485.125	74	45
485.124	485.92	55	34
485.124	485.92	72	46
485.218	485.92	71	46
485.324	485.524	59	34
485.324	485.719	68	45
485.325	485.524	62	34
485.421	485.618	67	45
485.523	485.92	66	45
485.524	485.72	59	34
485.524	485.722	62	34
485.618	485.92	67	42
485.719	485.92	68	46
485.72	485.92	59	34
485.722	485.92	62	34
485.813	485.92	65	42
485.919	486.734	48	59
485.919	485.995	63	66
486.125	486.734	72	68
486.125	486.622	84	68
486.126	486.328	51	44
486.128	486.328	60	44
486.328	486.528	51	44
486.328	486.531	60	44
486.528	486.734	51	44
486.528	486.734	83	61
486.531	486.734	60	44
486.622	486.734	84	64
486.73	487.535	86	66
486.731	487.535	44	45
486.825	487.535	84	66
486.93	487.133	51	46
486.93	487.328	82	65
486.933	487.134	48	46
486.934	487.134	56	46
487.029	487.228	80	64
487.133	487.329	51	46
487.133	487.533	79	62
487.134	487.329	48	46
487.134	487.332	56	46
487.228	487.423	80	64
487.328	487.535	82	68
487.329	487.535	48	47
487.329	487.535	51	47
487.332	487.535	56	47
487.423	487.535	80	66
487.533	488.33	41	47
487.533	488.33	79	69
487.627	488.33	77	67
487.728	487.934	50	48
487.728	487.934	53	48
487.728	488.13	75	66
487.731	487.934	48	48
487.829	488.029	74	65
487.93	488.33	73	65
487.934	488.13	48	48
487.934	488.13	50	48
487.934	488.133	53	48
488.029	488.224	74	64
488.13	488.33	48	49
488.13	488.33	50	49
488.13	488.33	75	68
488.133	488.33	53	49
488.224	488.33	74	66
488.329	489.134	72	68
488.33	489.138	43	49
488.427	489.138	71	68
488.525	488.924	68	68
488.528	488.728	50	50
488.529	488.729	47	50
488.529	488.731	55	50
488.623	488.823	67	68
488.728	488.924	50	50
488.728	489.138	66	67
488.729	488.927	47	50
488.731	488.927	55	50
488.823	489.025	67	64
488.924	489.138	50	51
488.924	489.138	68	70
488.927	489.138	47	51
488.927	489.138	55	51
489.025	489.138	67	64
489.134	489.238	72	83
489.135	489.347	36	67
489.239	489.351	48	60
489.351	489.749	60	82
489.354	489.546	36	67
489.446	489.547	48	59
489.547	489.75	36	67
489.652	489.753	48	60
489.753	489.847	58	80
489.754	489.953	36	66
489.754	489.852	64	80
489.852	489.954	48	60
489.954	490.051	56	81
489.956	490.054	65	81
489.957	490.148	36	66
490.054	490.153	48	59
490.153	490.25	64	82
490.154	490.251	67	82
490.155	490.348	36	66
490.251	490.352	48	60
490.352	490.446	65	83
490.353	490.544	36	66
490.353	490.446	68	83
490.447	490.545	48	60
490.545	490.646	62	85
490.548	490.744	36	66
490.548	490.646	71	85
490.647	490.744	48	61
490.744	490.845	63	83
490.748	490.95	36	67
490.748	490.848	72	83
490.849	490.95	48	60
490.954	491.353	64	83
490.954	491.353	72	82
490.957	491.153	36	67
491.056	491.157	48	59
491.157	491.356	36	67
491.251	491.356	48	60
491.357	491.45	70	80
491.36	491.556	36	66
491.36	491.451	76	80
491.455	491.557	48	60
491.559	491.654	68	81
491.56	491.751	36	66
491.56	491.654	77	81
491.657	491.756	48	59
491.756	491.849	76	82
491.758	491.85	79	82
491.759	491.951	36	66
491.853	491.951	48	60
491.952	492.05	77	83
491.952	492.05	80	83
491.955	492.147	36	66
492.051	492.148	48	60
492.148	492.252	74	85
492.15	492.252	83	85
492.151	492.361	36	66
492.253	492.365	48	61
492.365	493.155	72	94
492.366	493.158	84	94
492.368	492.557	36	66
492.368	493.158	75	94
492.458	492.56	48	59
492.561	492.756	36	66
492.658	492.757	48	60
492.757	492.959	36	66
492.861	492.963	48	60
492.963	493.159	36	66
493.057	493.162	48	61
493.163	493.971	60	88
493.166	493.971	63	88
493.166	493.971	72	88
493.167	493.354	34	66
493.257	493.355	46	59
493.355	493.558	34	66
493.459	493.558	46	60
493.561	493.753	34	66
493.656	493.754	46	60
493.758	493.972	34	66
493.866	493.975	46	61
493.975	494.768	72	99
493.976	494.772	84	99
493.978	494.174	32	66
493.978	494.775	75	99
494.068	494.174	44	59
494.177	494.369	32	66
494.272	494.37	44	60
494.373	494.569	32	66
494.468	494.569	44	60
494.57	494.776	32	66
494.67	494.776	44	61
494.776	495.613	60	92
494.779	495.613	63	92
494.78	494.976	31	66
494.78	495.614	72	92
494.877	494.976	43	59
494.976	495.182	31	66
495.076	495.183	43	60
495.185	495.384	31	66
495.284	495.388	43	60
495.389	495.616	31	66
495.504	495.616	43	61
495.616	496.575	81	102
495.62	496.579	75	102
495.62	496.579	84	102
495.621	496.582	87	102
495.623	496.582	30	68
495.623	496.582	42	81
496.583	498.58	60	102
496.586	498.581	54	86
496.586	498.581	57	102
496.586	498.584	63	102
496.587	498.584	45	84
496.589	498.585	42	71
496.589	498.584	48	84
496.589	498.588	51	84
502.707	503.078	66	44
502.707	503.078	69	44
502.708	503.079	72	51
502.71	503.082	63	39
503.082	504.205	66	46
503.085	504.208	62	45
503.085	504.206	69	46
503.085	504.206	74	55
504.208	504.646	66	42
504.209	504.646	69	50
504.209	504.647	75	50
504.212	504.649	60	39
504.649	507.933	66	46
504.65	507.933	69	55
504.653	507.934	60	42
504.653	507.934	75	55
507.936	509.434	67	31
507.936	509.435	71	31
507.937	509.435	74	39
507.94	509.437	59	27
515.059	515.433	74	44
515.062	515.434	68	39
515.062	515.433	71	44
515.062	515.433	77	52
515.437	516.556	71	46
515.437	516.56	74	46
515.437	516.561	79	55
515.438	516.561	67	45
516.561	516.991	74	51
516.563	516.994	80	51
516.564	516.994	71	43
516.567	516.998	65	39
516.998	520.277	80	55
516.999	520.277	71	46
517.001	520.281	65	38
517.001	520.281	74	55
520.284	521.782	72	32
520.284	521.783	79	39
520.285	521.783	75	32
520.288	521.785	63	27
527.407	527.778	70	55
527.407	527.781	79	55
527.41	527.781	76	55
527.41	527.782	82	66
527.411	527.784	61	42
527.414	527.785	64	42
527.414	527.785	67	50
527.786	528.932	72	61
527.787	528.936	76	61
527.788	528.939	60	49
527.788	528.937	79	61
527.788	528.939	84	72
527.791	528.94	64	49
527.792	528.946	67	58
528.946	529.426	73	64
528.947	529.43	79	75
528.947	529.43	85	75
528.948	529.43	76	64
528.95	529.433	58	49
528.95	529.433	64	49
528.951	529.433	67	58
529.436	532.66	73	72
529.437	532.66	76	72
529.437	532.66	85	84
529.438	532.66	79	72
529.439	535.842	56	60
529.44	532.66	58	60
529.44	532.66	64	60
529.44	532.66	67	72
532.632	534.256	72	52
532.636	534.235	60	46
532.636	534.256	65	46
532.636	534.256	84	62
532.637	534.256	68	55
534.232	535.842	70	60
534.233	535.842	82	60
534.235	535.842	55	44
534.235	535.835	60	44
534.236	535.842	64	52
535.831	537.438	68	41
535.832	537.438	80	49
535.835	537.438	53	35
535.835	537.435	60	35
535.836	537.438	65	42
537.432	539.058	67	40
537.434	539.058	51	34
537.434	539.031	55	34
537.434	539.058	79	48
537.435	539.058	60	40
539.028	540.644	65	39
539.028	540.644	77	46
539.03	540.644	50	32
539.031	540.633	55	32
539.031	540.644	59	38
540.631	542.25	63	37
540.631	542.25	75	44
540.633	542.25	48	30
540.633	542.25	55	30
540.634	542.25	60	36
542.24	545.803	53	34
543.958	545.803	65	32
543.959	545.803	68	32
543.962	545.803	74	38
545.766	551.074	31	30
545.767	551.074	43	36
547.64	551.074	50	29
547.641	551.074	53	29
547.643	551.074	59	35
551.071	551.672	60	50
551.074	551.273	36	44
551.172	551.371	48	41
551.273	551.477	36	44
551.371	551.57	48	41
551.477	551.672	36	44
551.57	551.676	48	41
551.676	551.746	58	52
551.677	551.868	36	45
551.677	551.746	64	52
551.77	551.869	48	41
551.871	551.938	56	54
551.872	551.939	65	54
551.876	552.061	36	45
551.963	552.061	48	46
552.062	552.13	64	56
552.064	552.253	36	47
552.064	552.131	67	56
552.158	552.254	48	47
552.254	552.327	65	57
552.256	552.33	68	57
552.257	552.443	36	49
552.351	552.443	48	50
552.446	552.519	62	59
552.446	552.52	71	59
552.45	552.642	36	51
552.543	552.642	48	53
552.645	552.715	63	61
552.646	552.856	36	55
552.646	552.719	72	61
552.743	552.943	48	50
552.852	553.248	64	55
552.855	553.248	72	55
552.856	553.045	36	53
552.943	553.138	48	47
553.045	553.247	36	53
553.138	553.248	48	47
553.244	553.307	70	51
553.244	553.31	76	51
553.247	553.43	36	44
553.338	553.433	48	40
553.433	553.506	68	50
553.434	553.507	77	50
553.437	553.629	36	40
553.53	553.629	48	43
553.63	553.699	76	53
553.632	553.699	79	53
553.633	553.817	36	44
553.727	553.818	48	46
553.822	553.894	77	57
553.824	553.895	80	57
553.825	554.017	36	48
553.919	554.021	48	50
554.021	554.088	74	60
554.022	554.209	36	52
554.022	554.088	83	60
554.111	554.21	48	54
554.21	554.609	75	58
554.213	554.61	84	70
554.214	554.41	36	63
554.308	554.503	48	57
554.41	554.612	36	62
554.503	554.612	48	56
554.609	555.004	72	64
554.609	555.004	75	75
554.61	555.005	84	75
554.612	554.795	34	66
554.703	554.903	46	61
554.795	555.008	34	68
554.903	555.008	46	64
555.004	555.397	72	72
555.004	555.4	75	72
555.005	555.4	84	86
555.008	555.198	32	70
555.095	555.295	44	72
555.198	555.404	32	73
555.295	555.404	44	74
555.397	555.806	72	81
555.4	555.799	75	81
555.4	555.802	84	97
555.401	555.599	31	75
555.49	555.693	43	73
555.599	555.806	31	76
555.693	555.806	43	78
555.799	555.995	75	99
555.8	555.998	81	99
555.802	555.999	84	99
555.803	556.002	30	93
555.803	556.002	87	103
555.805	556.002	42	93
556.611	556.825	66	79
556.614	556.825	69	79
556.615	556.825	72	94
556.618	556.825	57	79
556.618	556.825	75	94
556.619	556.825	60	93
556.619	556.825	63	93
556.621	556.825	54	79
557.419	557.661	75	94
557.42	557.661	67	79
557.42	557.661	72	79
557.422	557.661	79	94
557.423	557.661	55	79
557.423	557.661	60	93
557.423	557.661	63	93
558.256	558.511	50	86
558.256	558.511	55	103
558.257	558.511	59	103
558.259	558.511	43	89
558.259	558.511	53	86
558.26	558.511	31	74
558.26	558.511	38	74
558.263	558.511	35	74
559.141	559.558	55	103
559.145	559.558	51	86
559.145	559.558	60	103
559.146	559.558	48	89
559.148	559.558	36	74
559.148	559.558	39	74
559.149	559.558	43	74
