OnsetTime	OffsetTime	MidiPitch	Velocity
0.515521	1.7241	34	61
0.515521	1.7241	46	77
0.648559	1.7241	27	59
0.648559	1.7241	39	70
0.648559	1.7241	51	89
1.57982	1.7241	31	51
1.57982	1.7241	43	61
1.57982	1.7241	55	77
1.71286	1.84769	32	56
1.71286	1.84769	44	66
1.71286	1.84769	56	83
2.25219	2.39036	33	55
2.25219	2.39036	45	64
2.25219	2.39036	57	81
2.81489	3.94972	34	59
2.81489	3.94972	46	70
2.81489	3.85037	58	89
3.85037	3.97996	55	56
3.85037	3.97996	58	56
3.85037	3.97996	63	56
3.85037	3.97996	67	67
3.85037	3.97996	75	70
3.85037	3.97996	79	70
3.85037	3.97996	82	70
3.85037	3.97996	87	84
4.75749	5.94574	34	61
4.75749	5.94574	46	77
4.88668	5.95704	27	59
4.88668	5.95704	39	70
4.88668	5.95704	51	89
5.81179	5.95704	31	50
5.81179	5.95704	43	61
5.81179	5.95704	55	77
5.94574	6.08147	34	56
5.94574	6.08147	46	67
5.94574	6.08147	58	83
6.48871	6.62727	36	55
6.48871	6.62727	48	66
6.48871	6.62727	60	81
7.04298	8.17904	37	59
7.04298	8.17904	49	70
7.04298	8.17904	61	89
8.07969	8.20928	58	56
8.07969	8.20928	63	56
8.07969	8.20928	67	56
8.07969	8.20928	70	67
8.07969	8.20928	79	70
8.07969	8.20928	82	70
8.07969	8.20928	87	70
8.07969	8.20928	91	85
8.98683	10.1751	26	49
8.98683	10.1643	36	61
8.98683	10.1643	48	77
9.11476	10.1751	27	59
9.11476	10.1751	39	70
9.11476	10.1751	51	89
10.0321	10.1751	32	44
10.0321	10.1751	44	52
10.0321	10.1751	56	64
10.1643	10.5283	36	47
10.1643	10.5283	48	56
10.1643	10.5283	60	72
10.517	10.9065	37	49
10.517	10.9065	49	59
10.517	10.9065	61	75
10.8939	11.3952	38	53
10.8939	11.3952	50	63
10.8939	11.3952	62	79
11.2969	12.4387	39	59
11.2969	12.4387	51	70
11.2969	12.3387	63	89
12.3387	12.4692	60	56
12.3387	12.4692	63	56
12.3387	12.4692	68	56
12.3387	12.4692	72	67
12.3387	12.4692	80	70
12.3387	12.4692	84	70
12.3387	12.4692	87	70
12.3387	12.4692	92	84
13.2518	14.4146	26	49
13.2518	14.404	36	61
13.2518	14.404	48	77
13.3805	14.4146	27	59
13.3805	14.4146	39	70
13.3805	14.4146	51	89
14.2761	14.4146	32	56
14.2761	14.4146	44	56
14.2761	14.4146	56	70
14.404	14.9451	36	45
14.404	14.9451	48	53
14.404	14.9451	60	68
14.6626	14.9451	39	49
14.6626	14.9451	51	58
14.6626	14.9451	63	70
14.9336	15.5443	40	52
14.9336	15.5443	52	62
14.9336	15.5443	64	74
15.2278	15.5443	41	57
15.2278	15.5443	53	68
15.2278	15.5443	65	79
15.5278	16.6949	42	59
15.5278	16.6949	54	70
15.5278	16.5782	66	89
16.5782	16.7305	63	56
16.5782	16.7305	66	56
16.5782	16.7305	72	56
16.5782	16.7305	75	67
16.5782	16.7305	81	70
16.5782	16.7305	84	70
16.5782	16.7305	90	70
16.5782	16.7305	93	84
18.0863	18.1733	54	34
18.0863	18.1733	60	34
18.0863	18.1733	63	43
18.0863	18.1733	68	43
18.3762	18.4624	56	34
18.3762	18.4624	62	34
18.3762	18.4624	65	43
18.3762	18.4624	71	43
18.6592	18.7417	57	39
18.6592	18.7417	63	39
18.6592	18.7417	66	47
18.6592	18.7417	72	47
18.9302	19.0092	59	35
18.9302	19.0092	65	35
18.9302	19.0092	68	43
18.9302	19.0092	74	43
19.1899	19.2658	60	35
19.1899	19.2658	66	35
19.1899	19.2658	69	43
19.1899	19.2658	75	43
19.4411	19.5161	62	39
19.4411	19.5161	68	39
19.4411	19.5161	71	47
19.4411	19.5161	77	47
19.6867	19.7585	63	34
19.6867	19.7585	69	34
19.6867	19.7585	72	43
19.6867	19.7585	78	43
19.9228	19.9918	65	34
19.9228	19.9918	71	34
19.9228	19.9918	74	43
19.9228	19.9918	80	43
20.1503	20.2169	66	39
20.1503	20.2169	72	39
20.1503	20.2169	75	47
20.1503	20.2169	81	47
20.3702	20.436	68	37
20.3702	20.436	74	37
20.3702	20.436	77	45
20.3702	20.436	83	45
20.5882	20.6529	69	37
20.5882	20.6529	75	37
20.5882	20.6529	78	45
20.5882	20.6529	84	45
20.8026	20.8664	71	42
20.8026	20.8664	77	42
20.8026	20.8664	80	47
20.8026	20.8664	86	47
21.0129	21.0743	72	42
21.0129	21.0743	78	42
21.0129	21.0743	81	48
21.0129	21.0743	87	48
21.2171	21.2781	74	43
21.2171	21.2781	80	43
21.2171	21.2781	83	49
21.2171	21.2781	89	49
21.4197	21.4791	75	43
21.4197	21.4791	81	43
21.4197	21.4791	84	50
21.4197	21.4791	90	50
21.6147	21.6723	77	44
21.6147	21.6723	83	44
21.6147	21.6723	86	51
21.6147	21.6723	92	51
21.8052	21.8616	78	44
21.8052	21.8616	84	44
21.8052	21.8616	87	52
21.8052	21.8616	93	52
21.9921	22.0477	80	45
21.9921	22.0477	86	45
21.9921	22.0477	89	54
21.9921	22.0477	95	54
22.1758	22.2303	81	46
22.1758	22.2303	87	46
22.1758	22.2303	90	56
22.1758	22.2303	96	56
22.356	22.4096	82	49
22.356	22.4096	88	49
22.356	22.4096	91	58
22.356	22.4096	97	58
22.5338	22.5735	83	50
22.5338	22.5735	89	50
22.5338	22.5735	92	61
22.5338	22.5735	98	61
22.6656	22.7048	84	51
22.6656	22.7048	90	51
22.6656	22.7048	93	63
22.6656	22.7048	99	63
22.796	22.8348	85	53
22.796	22.8348	91	53
22.796	22.8348	94	64
22.796	22.8348	100	64
22.925	22.9635	86	54
22.925	22.9635	92	54
22.925	22.9635	95	67
22.925	22.9635	101	67
23.0525	23.0903	87	59
23.0525	23.0903	93	59
23.0525	23.0903	96	69
23.0525	23.0903	102	69
25.4354	26.3554	75	50
25.8116	26.5366	66	33
25.8116	27.3224	69	40
26.3554	26.446	77	46
26.446	26.5366	75	47
26.5366	26.8992	65	38
26.5366	26.8992	74	50
26.8992	27.1545	63	38
26.8992	27.1545	72	41
27.1545	27.6633	62	26
27.2105	27.6633	65	31
27.2664	27.6633	72	30
27.3224	27.6633	77	47
27.6633	28.0395	69	37
28.0395	28.4156	70	37
29.4915	30.7539	70	50
30.2101	30.9352	61	36
30.2101	31.7209	64	40
30.7539	30.8445	72	46
30.8445	30.9352	70	47
30.9352	31.2977	60	38
30.9352	31.2977	68	50
31.2977	31.553	58	38
31.2977	31.553	67	41
31.553	32.0618	57	26
31.609	33.1904	60	31
31.6649	32.0618	67	30
31.7209	32.0618	72	47
32.0618	32.438	64	37
32.438	32.8142	56	30
32.438	32.8142	65	37
33.9427	35.1891	65	50
34.6486	36.1119	44	30
34.6486	36.1119	59	36
34.6486	36.1119	63	40
35.1891	35.2789	67	46
35.2789	35.3688	65	47
35.3688	35.7068	64	50
35.7068	35.944	65	41
36.0	36.829	58	36
36.056	36.4528	65	41
36.1119	37.5992	46	26
36.1119	37.5992	55	31
36.1119	36.4528	70	45
36.4528	36.829	62	37
36.829	37.2052	63	37
37.4873	38.3163	58	36
37.5433	37.9402	63	35
37.5992	39.1178	46	26
37.5992	39.1178	54	31
37.5992	37.9402	71	45
37.9402	38.3163	62	37
38.3163	38.6925	63	37
38.9992	39.1178	63	31
39.1178	40.6225	34	26
39.1178	39.8701	47	31
39.1178	40.6225	53	37
39.1178	40.6225	56	37
39.1178	39.4939	63	37
39.4939	39.8701	59	31
39.8701	40.6225	46	31
39.8701	40.2463	63	37
40.2463	40.6225	60	31
40.6225	41.1241	63	39
41.1241	41.6256	61	33
41.6256	42.1272	63	33
42.1272	42.5852	62	35
42.5852	42.7038	63	28
42.7038	42.8224	62	28
42.8224	42.941	61	28
42.941	43.0595	62	28
43.0595	44.6456	58	32
43.1188	44.6456	62	35
43.1781	44.6456	67	38
44.6456	44.8532	56	35
44.6456	44.8532	65	35
44.8532	45.0422	39	35
45.4683	45.6292	46	33
45.511	45.6292	55	34
45.5536	45.6292	63	35
46.6871	46.8274	46	33
46.7249	46.8274	55	34
46.7626	46.8274	63	36
47.281	47.4332	39	35
47.8706	48.0336	46	33
47.9143	48.0336	55	34
47.958	48.0336	63	36
49.0915	49.2369	46	35
49.1293	49.2369	55	37
49.1671	49.2369	63	38
49.5833	50.4212	58	60
49.7218	50.4212	39	38
49.7218	50.3758	63	68
50.2941	50.4406	46	37
50.3349	50.4406	55	38
50.3758	50.7646	63	39
50.7646	50.8942	67	57
50.8942	51.0387	68	57
51.4002	51.5432	46	37
51.4363	51.5432	55	38
51.4725	51.5432	63	39
51.4725	51.615	69	66
52.0456	52.6604	39	38
52.0456	53.181	70	71
52.5997	52.7416	46	36
52.6393	52.7416	55	38
52.6789	52.7416	63	40
53.181	53.256	75	68
53.7059	53.8507	46	38
53.7434	53.8507	55	39
53.7809	53.8507	63	41
53.7809	54.1995	67	49
53.7809	54.1995	70	63
54.1995	54.2693	65	46
54.1995	54.2693	68	59
54.2693	54.3391	67	47
54.2693	54.3391	70	59
54.3391	54.8848	39	38
54.3391	54.8848	65	54
54.3391	54.8848	68	69
54.834	55.0102	46	35
54.8721	55.0102	53	37
54.9102	55.0102	56	39
54.9482	55.0102	62	40
55.1962	55.4441	64	50
55.1962	55.4441	67	60
55.4441	55.5159	65	51
55.4441	55.5159	68	66
55.9465	56.0911	46	38
55.9465	56.0911	53	38
55.9824	56.0911	56	39
56.0183	56.0911	62	40
56.0183	56.0911	67	50
56.0183	56.0911	70	64
56.6008	57.2207	39	38
56.6008	57.2548	63	54
56.6008	57.809	67	68
57.173	57.324	46	39
57.2139	57.324	55	41
57.2548	57.809	63	42
58.0168	58.4371	58	58
58.2246	58.4371	59	50
58.3545	58.5032	46	37
58.3934	58.5032	55	39
58.4324	58.6228	60	51
58.4324	58.5032	63	40
58.6228	59.0205	61	55
58.8142	59.0205	62	58
59.0056	59.666	39	38
59.0056	59.6595	63	68
59.5777	59.7243	46	38
59.6186	59.7243	55	39
59.6595	60.0483	63	41
60.0483	60.1779	67	57
60.1779	60.3224	68	57
60.6839	60.8269	46	38
60.72	60.8269	55	40
60.7562	60.8269	63	41
60.7562	60.8987	69	66
61.1858	62.3392	69	49
61.2336	61.3293	70	44
61.2815	61.3926	72	47
61.3293	62.5184	39	38
61.3293	61.456	70	54
61.3926	61.5193	72	49
61.456	61.5826	70	50
61.5193	61.6459	72	47
61.5826	61.7093	70	50
61.6459	61.7726	72	47
61.7093	61.8359	70	50
61.7726	61.8992	72	47
61.8359	61.9626	70	50
61.8834	62.5184	46	38
61.8992	62.0128	72	45
61.923	62.5184	55	39
61.9626	62.5184	63	41
61.9626	62.063	70	50
62.0128	62.1132	72	46
62.063	62.1634	70	50
62.1132	62.2136	72	45
62.1634	62.2764	70	50
62.2136	62.5184	72	47
62.2764	62.4019	70	53
62.3392	62.5184	69	50
62.4019	62.5184	70	50
62.4647	62.5397	75	58
62.4647	62.5397	79	68
62.9897	63.1344	46	38
63.0272	63.1344	55	40
63.0647	63.1344	63	42
63.3437	63.4833	67	49
63.3437	63.4833	70	63
63.4833	63.553	65	46
63.4833	63.553	68	59
63.553	64.1863	67	47
63.553	64.1863	70	59
63.6228	64.1863	39	38
63.6228	64.1863	65	54
63.6228	64.1863	68	69
64.1177	64.2939	46	37
64.1558	64.2939	53	38
64.1939	64.2939	56	39
64.2319	64.2939	62	41
64.4799	64.7278	64	50
64.4799	64.7278	67	60
64.7278	64.7996	65	51
64.7278	64.7996	68	66
65.2302	65.3748	46	36
65.2661	65.3748	53	38
65.302	65.3748	56	39
65.302	65.3748	62	50
65.302	65.3748	70	64
65.8845	66.5581	39	38
65.8845	66.5385	63	68
66.4567	66.6078	46	35
66.4976	66.6078	55	38
66.5385	67.0928	63	41
67.6382	67.7869	46	34
67.6772	67.7869	55	37
67.7161	67.7869	63	39
68.2893	68.4415	39	38
68.8789	69.0419	46	36
68.9226	69.0419	55	39
68.9663	69.0419	63	42
70.0998	70.2451	46	36
70.1376	70.2451	55	38
70.1754	70.2451	63	41
70.5916	71.8883	70	60
70.7301	71.8883	39	48
70.7301	71.3439	63	62
70.7301	71.8883	75	74
71.2672	71.8883	46	42
71.3056	71.8883	55	46
71.3439	71.8883	63	48
71.7182	71.8883	67	52
71.7182	71.8883	79	62
71.8429	71.9824	68	52
71.8429	71.9824	80	62
72.3313	72.4755	46	39
72.3662	72.4755	55	41
72.401	72.4755	63	44
72.401	72.5499	69	56
72.401	72.5499	81	67
72.8477	72.9221	70	44
72.9221	72.9966	75	46
72.9966	74.0785	39	38
72.9966	73.1537	82	53
73.0746	73.3888	84	41
73.1537	73.3097	82	41
73.2317	74.0785	81	41
73.3097	73.4668	82	41
73.3888	74.0785	84	48
73.4668	73.9655	82	41
73.4783	74.0785	46	39
73.5127	74.0785	55	42
73.5471	73.7144	63	46
73.5471	73.8818	75	48
73.6307	73.7981	70	42
73.7144	74.0785	63	46
73.7981	74.0785	70	52
73.8818	74.0785	75	63
73.9655	74.0785	82	73
74.0492	74.1959	87	81
74.5626	74.7039	46	35
74.5993	74.7039	55	37
74.636	74.7039	63	38
74.9075	75.0432	67	54
74.9075	75.0432	70	54
75.0432	75.3256	67	33
75.0432	75.3256	70	40
75.1111	75.3256	66	33
75.1111	75.3256	69	40
75.179	75.3256	39	35
75.179	75.3256	65	39
75.179	75.3256	68	49
75.5728	75.7392	79	36
75.5728	75.7392	82	42
75.6057	75.7661	46	31
75.6385	75.7661	53	33
75.6385	75.7392	78	37
75.6385	75.7392	81	43
75.6713	75.7661	56	34
75.7041	75.7661	62	36
75.7041	75.8281	77	44
75.7041	75.8281	80	50
76.076	76.2603	91	36
76.076	76.2603	94	41
76.138	76.2603	90	37
76.138	76.2603	93	41
76.2	76.3339	89	44
76.2	76.3339	92	48
76.6018	76.7357	64	36
76.6018	76.7357	67	42
76.6687	76.8045	46	32
76.6687	76.8045	53	32
76.7022	76.8045	56	34
76.7357	76.8045	62	36
76.7357	76.8045	65	43
76.7357	76.8045	68	49
77.011	77.0848	67	38
77.011	77.0848	70	44
77.3065	77.8733	39	35
77.3065	77.9605	63	44
77.3065	78.5147	67	52
77.8787	78.0298	46	35
77.9196	78.0298	55	37
77.9605	78.5147	63	39
78.7225	79.0732	58	52
78.7225	79.0732	70	52
78.9303	79.1381	59	52
78.9303	79.1617	71	52
79.0602	79.2089	46	37
79.0992	79.2089	55	39
79.1381	79.3285	60	50
79.1381	79.2089	63	41
79.1381	79.3524	72	50
79.3285	79.742	61	56
79.3285	79.742	73	56
79.5199	79.742	62	60
79.5199	79.742	74	60
79.7113	80.8757	39	53
79.7113	80.3251	63	71
79.7113	80.8757	75	84
80.2484	80.8757	46	42
80.2867	80.8757	55	45
80.3251	80.8757	63	48
80.704	80.8757	67	56
80.704	80.8757	79	66
80.8304	80.9699	68	61
80.8304	80.9699	80	73
81.3187	81.4582	46	44
81.3536	81.4582	55	46
81.3885	81.4582	63	47
81.3885	81.53	69	66
81.3885	81.53	81	78
81.8171	81.8889	70	44
81.8889	81.9606	75	46
81.9606	83.0321	39	48
81.9606	82.1146	82	60
82.0371	82.3449	84	45
82.1146	82.2674	82	45
82.191	83.0321	81	45
82.2674	82.4213	82	45
82.3449	83.0321	84	52
82.4213	82.864	82	45
82.4326	83.0321	46	36
82.4663	83.0321	55	38
82.5	82.6454	63	40
82.5	82.7908	75	52
82.5722	82.7186	70	47
82.6454	83.0321	63	51
82.7186	83.0321	70	58
82.7908	83.0321	75	62
82.864	82.9362	82	68
82.9362	83.0321	82	74
83.0021	83.1521	87	75
83.0021	83.1521	91	85
83.5271	83.6709	46	35
83.5646	83.6709	55	37
83.6021	83.6709	63	38
83.8773	84.0149	67	54
83.8773	84.0149	70	54
84.0149	84.3011	67	33
84.0149	84.3011	70	40
84.0837	84.3011	66	33
84.0837	84.3011	69	40
84.1526	84.3011	39	35
84.1526	84.3011	65	39
84.1526	84.3011	68	49
84.5517	84.7198	79	36
84.5517	84.7198	82	42
84.5849	84.7467	46	31
84.6182	84.7467	53	33
84.6182	84.7198	78	37
84.6182	84.7198	81	43
84.6514	84.7467	56	34
84.6847	84.7467	62	36
84.6847	84.8087	77	44
84.6847	84.8087	80	50
85.0566	85.2408	91	36
85.0566	85.2408	94	41
85.1186	85.2408	90	37
85.1186	85.2408	93	41
85.1806	85.3145	89	44
85.1806	85.3145	92	48
85.5824	85.7163	64	36
85.5824	85.7163	67	42
85.6493	85.7847	46	32
85.6493	85.7847	53	32
85.6828	85.7847	56	34
85.7163	85.7847	62	36
85.7163	85.8986	65	41
85.7163	85.8986	68	49
85.8986	86.2104	68	38
85.8986	86.2104	72	44
86.2104	86.328	67	38
86.2104	86.328	70	44
86.328	86.9978	39	35
86.328	86.982	63	44
86.328	86.9978	67	52
86.9002	87.0498	46	35
86.9411	87.0498	55	37
86.982	87.0498	63	39
88.0001	88.1299	46	35
88.034	88.1299	55	37
88.0679	88.1299	63	39
88.0679	88.5638	82	55
88.0679	88.5638	85	69
88.5638	89.0658	39	36
88.5638	89.0658	80	48
88.5638	89.0319	84	58
88.9683	89.0658	86	43
89.0319	89.1602	48	36
89.0319	89.0954	84	49
89.0637	89.1602	56	38
89.0954	89.1602	63	40
89.0954	89.225	79	46
89.0954	89.225	82	54
89.3546	89.4842	77	40
89.3546	89.4842	80	49
89.6138	89.7451	75	43
89.6138	89.7451	79	51
89.8764	90.0077	70	38
89.8764	90.0077	77	46
90.0733	90.2068	51	35
90.1061	90.2068	58	37
90.139	90.2068	63	39
90.139	90.2747	67	46
90.139	90.2747	75	54
90.5462	91.2018	63	40
90.5462	91.0909	67	48
90.6918	91.2018	39	36
90.6918	91.2018	65	52
90.6918	91.0244	68	61
90.9579	91.2018	70	45
91.0244	91.2018	68	45
91.0909	91.224	64	43
91.0909	91.224	67	51
91.1242	91.2883	46	36
91.1575	91.2883	53	38
91.1907	91.2883	56	38
91.224	91.2883	62	40
91.224	91.2883	65	47
91.224	91.2883	68	56
91.4815	91.5498	66	46
91.4815	91.5498	69	54
91.7548	92.0359	67	50
91.7548	92.0359	70	59
92.2466	92.3789	51	35
92.2818	92.3789	55	37
92.3169	92.3789	63	39
92.3169	92.8128	82	55
92.3169	92.8128	85	69
92.8128	93.3295	39	36
92.8128	93.3295	80	48
92.8128	93.2808	84	58
93.2172	93.3295	86	43
93.2808	93.4067	48	36
93.2808	93.3444	84	49
93.3126	93.4067	56	38
93.3444	93.4067	63	40
93.3444	93.4691	79	46
93.3444	93.4691	82	54
93.5939	93.7186	77	40
93.5939	93.7186	80	49
93.8433	93.9746	75	43
93.8433	93.9746	79	51
94.1059	94.2372	70	38
94.1059	94.2372	77	46
94.3029	94.4364	51	35
94.3357	94.4364	58	37
94.3685	94.4364	63	39
94.3685	94.5042	67	46
94.3685	94.5042	75	54
94.7757	94.9214	63	40
94.7757	94.9214	67	48
94.9214	95.461	39	36
94.9214	95.4535	65	52
94.9214	95.254	68	61
95.1874	95.461	70	45
95.254	95.4535	68	45
95.3205	95.461	64	43
95.3205	95.461	67	51
95.3537	95.5179	46	36
95.387	95.5179	53	38
95.4203	95.5179	56	38
95.4535	95.5179	62	40
95.4535	95.5179	65	47
95.4535	95.5179	68	56
95.711	95.7794	62	46
95.711	95.7794	70	54
95.9844	96.2654	63	59
96.4762	96.6138	51	35
96.5113	96.6138	55	37
96.5464	96.6138	63	39
96.5464	97.0183	82	63
96.5801	97.0183	87	67
96.6138	97.0183	97	71
97.0183	97.6464	80	64
97.052	97.6464	87	66
97.0857	97.6464	39	36
97.0857	97.5538	96	69
97.4902	97.6173	94	40
97.4902	97.6464	98	48
97.5538	97.6797	48	36
97.5538	97.6464	92	42
97.5538	97.6464	96	55
97.5855	97.6797	56	38
97.6173	97.6797	63	40
97.6173	97.7421	91	61
97.6173	97.7421	94	61
97.8668	97.9915	89	51
97.8668	97.9915	92	51
98.1163	98.2476	87	56
98.1163	98.2476	91	56
98.3789	98.5102	82	49
98.3789	98.5102	89	49
98.5758	98.7093	51	35
98.6086	98.7093	58	37
98.6414	98.7093	63	39
98.6414	98.7772	79	55
98.6414	98.7772	87	55
99.1215	99.1943	63	40
99.1215	99.1943	67	48
99.1943	99.7132	39	36
99.1943	99.7132	65	52
99.1943	99.5269	68	61
99.4604	99.7132	70	45
99.5269	99.7132	68	45
99.5934	99.7265	64	43
99.5934	99.7265	67	51
99.6267	99.7908	46	36
99.6599	99.7908	53	38
99.6932	99.7908	56	38
99.7265	99.7908	62	40
99.7265	99.7908	65	47
99.7265	99.7908	68	56
99.984	100.052	66	46
99.984	100.052	69	54
100.257	100.538	67	50
100.257	100.538	70	59
100.749	100.887	51	35
100.784	100.887	55	37
100.819	100.887	63	39
100.819	101.227	82	61
100.853	101.294	87	65
100.887	101.294	97	68
101.294	101.923	80	61
101.328	101.923	87	64
101.362	101.923	39	36
101.362	101.83	96	67
101.767	101.894	94	31
101.767	101.923	98	51
101.83	101.956	48	36
101.83	101.923	92	42
101.83	101.923	96	55
101.862	101.956	56	38
101.894	101.956	63	40
101.894	102.019	91	60
101.894	102.019	94	60
102.143	102.268	89	54
102.143	102.268	92	54
102.393	102.524	87	58
102.393	102.524	91	58
102.655	102.787	82	54
102.655	102.787	89	54
102.852	102.988	51	35
102.885	102.988	58	37
102.918	102.988	63	39
102.918	103.058	79	63
102.918	103.058	87	63
103.339	103.484	63	40
103.339	103.484	67	48
103.484	104.039	39	36
103.484	104.328	65	52
103.484	104.328	68	61
103.949	104.124	46	36
103.984	104.124	53	38
104.02	104.124	56	38
104.056	104.124	62	40
104.328	104.641	64	43
104.328	104.653	67	51
104.641	104.723	65	47
104.641	104.723	68	56
105.3	105.393	62	46
105.3	105.393	70	54
105.934	106.012	34	61
106.012	106.787	39	68
106.496	106.675	58	40
106.533	106.675	63	42
106.57	106.675	67	44
106.608	106.675	70	46
106.787	106.877	43	64
106.967	107.057	44	64
107.147	107.241	45	68
107.334	107.428	46	64
107.522	107.615	51	64
107.604	107.777	67	40
107.639	107.777	70	42
107.674	107.777	75	44
107.709	107.8	55	68
107.709	107.777	79	46
107.891	107.982	56	64
108.073	108.119	57	64
108.119	108.165	57	56
108.165	108.21	58	50
108.21	108.312	60	46
108.256	108.368	58	58
108.312	108.424	60	50
108.368	108.479	58	57
108.424	108.535	60	50
108.479	108.59	58	56
108.535	108.644	60	49
108.59	108.699	58	55
108.644	108.753	60	50
108.699	108.807	58	56
108.706	109.333	79	42
108.74	109.333	82	44
108.753	108.857	60	48
108.774	109.333	87	45
108.807	108.908	58	55
108.807	109.333	91	47
108.857	108.958	60	50
108.908	109.008	58	58
108.958	109.058	60	51
109.008	109.121	58	60
109.058	109.333	60	56
109.121	109.247	58	63
109.184	109.333	57	60
109.247	109.333	58	60
109.309	109.45	63	74
109.801	109.942	46	52
109.836	109.942	55	56
109.871	109.942	63	58
110.293	110.996	67	34
110.293	110.707	70	40
110.433	110.996	39	35
110.433	110.996	65	38
110.433	110.996	68	45
110.57	110.996	72	34
110.57	110.844	75	40
110.707	110.996	70	38
110.707	110.98	74	45
110.844	110.996	75	34
110.844	110.996	79	41
110.878	111.508	46	31
110.912	111.508	53	33
110.946	111.508	56	34
110.98	111.508	62	36
110.98	111.508	74	40
110.98	111.36	77	48
111.104	111.36	80	36
111.104	111.508	84	43
111.228	111.492	79	36
111.228	111.508	82	43
111.36	111.508	77	36
111.36	111.508	80	43
111.492	111.76	75	49
111.492	112.044	79	49
111.626	111.894	74	37
111.626	112.044	77	44
111.76	112.028	72	37
111.76	112.044	75	44
111.894	112.044	70	37
111.894	112.044	74	44
111.961	112.393	46	32
111.961	112.393	53	32
111.995	112.393	56	34
112.028	112.393	62	36
112.028	112.393	68	39
112.028	112.393	72	47
112.166	112.393	67	38
112.166	112.393	70	45
112.303	112.397	66	36
112.303	112.397	69	43
112.571	112.65	65	34
112.571	112.65	68	40
112.65	113.279	39	35
112.65	113.304	63	38
112.65	113.304	67	45
113.222	113.373	46	32
113.263	113.373	55	35
113.304	113.373	63	38
114.403	114.552	46	31
114.442	114.552	55	34
114.481	114.552	63	36
114.977	115.054	34	61
115.054	115.818	39	68
115.527	115.704	58	40
115.564	115.704	63	42
115.6	115.704	67	44
115.637	115.704	70	46
115.818	115.908	43	64
115.999	116.089	44	64
116.18	116.275	45	68
116.37	116.465	46	64
116.56	116.655	51	64
116.643	116.819	67	40
116.678	116.819	70	42
116.714	116.819	75	44
116.75	116.842	55	68
116.75	116.819	79	46
116.934	117.027	56	64
117.119	117.165	57	64
117.165	117.211	57	56
117.211	117.258	58	50
117.258	117.36	60	46
117.304	117.416	58	58
117.36	117.472	60	50
117.416	117.527	58	57
117.472	117.583	60	50
117.527	117.638	58	56
117.583	117.692	60	49
117.638	117.747	58	55
117.692	117.801	60	50
117.747	117.855	58	56
117.754	118.381	79	42
117.788	118.381	82	44
117.801	117.906	60	48
117.822	118.381	87	45
117.855	117.956	58	55
117.855	118.381	91	47
117.906	118.006	60	50
117.956	118.056	58	58
118.006	118.106	60	51
118.056	118.169	58	60
118.106	118.381	60	56
118.169	118.295	58	63
118.232	118.381	57	60
118.295	118.381	58	60
118.357	118.498	63	68
118.357	118.498	67	74
118.849	118.99	46	57
118.884	118.99	55	61
118.919	118.99	63	63
119.341	119.482	67	34
119.341	119.482	70	40
119.482	120.189	39	35
119.482	120.189	67	40
119.482	120.054	70	45
119.594	120.189	66	36
119.594	120.189	69	41
119.707	120.189	65	36
119.707	120.189	68	41
119.829	120.189	72	40
119.829	120.167	75	45
119.942	120.189	71	40
120.04	120.599	46	31
120.054	120.189	70	34
120.054	120.189	74	40
120.082	120.599	53	33
120.125	120.599	56	34
120.167	120.599	62	36
120.167	120.599	75	44
120.167	120.599	79	51
120.282	120.599	78	49
120.404	120.599	74	42
120.404	120.599	77	49
120.532	120.769	80	53
120.532	120.769	84	60
121.609	121.787	76	45
121.609	121.787	79	45
121.787	121.955	77	45
121.787	121.955	80	45
121.955	122.112	73	45
121.955	122.112	76	45
122.112	122.259	74	45
122.112	122.259	77	45
122.259	122.399	69	45
122.259	122.399	72	45
122.399	122.537	70	45
122.399	122.537	74	45
122.537	122.671	67	45
122.537	122.671	71	45
122.571	122.752	46	25
122.605	122.752	53	28
122.638	122.752	56	34
122.671	122.752	62	36
122.671	122.752	68	45
122.671	122.752	72	45
122.832	122.907	64	45
122.832	122.907	67	45
122.982	123.06	67	45
122.982	123.06	70	45
123.138	123.216	65	45
123.138	123.216	68	45
123.294	123.959	39	35
123.294	123.948	63	38
123.294	123.959	67	45
123.866	124.017	46	32
123.907	124.017	55	35
123.948	124.017	63	38
125.048	125.196	46	31
125.086	125.196	55	34
125.125	125.196	63	36
125.619	125.689	58	38
125.689	126.36	39	35
125.689	126.342	63	52
126.179	126.261	67	39
126.261	126.42	46	34
126.261	126.36	67	36
126.302	126.42	55	35
126.342	126.42	63	36
126.342	126.4	68	39
126.42	126.477	68	36
126.497	126.554	69	39
126.573	126.63	69	36
126.648	126.705	70	39
126.723	126.779	70	36
126.797	126.852	75	39
126.87	126.925	75	36
126.943	126.997	79	39
127.015	127.069	79	35
127.088	127.143	80	39
127.161	127.217	80	35
127.235	127.292	81	39
127.31	127.367	81	34
127.387	127.444	82	39
127.464	127.623	46	34
127.464	127.522	82	34
127.502	127.623	55	35
127.541	127.623	63	36
127.541	127.603	87	39
127.623	127.684	87	34
127.705	127.766	91	39
127.787	127.848	91	35
127.868	127.93	92	41
127.95	128.011	92	36
128.032	128.093	93	42
128.114	128.175	93	37
128.195	130.075	39	35
128.195	130.075	93	43
128.283	128.458	94	38
128.37	130.075	96	38
128.458	129.995	94	34
128.545	129.916	91	42
128.625	129.837	87	35
128.705	130.075	84	41
128.784	129.995	46	33
128.784	129.76	82	34
128.824	130.035	55	37
128.864	129.234	63	35
128.864	129.683	79	40
128.938	129.606	75	33
129.012	130.075	72	38
129.086	129.531	70	32
129.16	129.456	67	38
129.234	129.382	63	33
129.308	130.075	62	37
129.382	130.075	63	34
129.456	130.075	67	33
129.531	130.075	70	34
129.606	130.075	75	35
129.683	130.075	79	36
129.76	130.075	82	38
129.837	130.075	87	39
129.916	130.075	91	40
129.995	130.15	46	35
129.995	130.075	94	41
130.035	130.15	55	36
130.075	130.15	63	38
130.075	130.377	99	47
130.528	130.604	67	33
130.528	130.604	70	39
130.679	130.82	39	35
130.679	130.773	65	39
130.679	130.773	68	47
130.872	130.978	82	39
131.083	131.189	64	33
131.083	131.189	67	39
131.176	131.363	46	31
131.215	131.363	53	33
131.255	131.363	56	34
131.294	131.363	62	36
131.294	131.386	65	39
131.294	131.386	68	46
131.482	131.582	94	41
131.682	131.786	67	34
131.682	131.786	70	41
131.893	131.987	68	39
131.893	131.987	72	47
132.085	132.187	82	41
132.289	132.391	70	34
132.289	132.391	74	41
132.436	132.563	46	25
132.455	132.563	53	28
132.475	132.563	56	34
132.494	132.563	62	36
132.494	132.586	72	38
132.494	132.586	75	45
132.683	132.785	94	40
132.886	133.008	74	34
132.886	133.008	77	40
133.139	134.494	39	35
133.139	133.358	75	39
133.139	133.568	79	46
133.25	133.464	70	34
133.25	133.464	77	40
133.358	134.494	67	34
133.358	133.568	75	40
133.464	134.494	70	34
133.464	133.67	77	40
133.568	134.494	75	34
133.568	133.775	79	40
133.67	134.494	77	34
133.672	133.879	82	41
133.698	134.494	46	33
133.737	134.494	55	37
133.775	134.494	63	35
133.775	134.494	79	36
133.775	133.983	87	43
133.879	134.494	82	37
133.879	134.089	89	44
133.983	134.494	87	38
133.983	134.196	91	45
134.089	134.494	89	38
134.089	134.305	94	45
134.196	134.494	91	39
134.196	134.414	99	46
134.305	134.494	94	39
134.305	134.494	101	47
134.414	134.567	99	57
134.414	134.567	103	57
134.947	135.1	46	35
134.985	135.1	55	36
135.023	135.1	63	38
135.48	135.619	58	38
135.619	136.272	39	35
135.619	136.272	63	52
136.109	136.191	67	39
136.191	136.35	46	34
136.191	136.272	67	36
136.232	136.35	55	35
136.272	136.35	63	36
136.272	136.331	68	39
136.35	136.408	68	36
136.427	136.484	69	39
136.503	136.56	69	36
136.579	136.635	70	39
136.654	136.709	70	36
136.728	136.783	75	39
136.801	136.855	75	36
136.873	136.927	79	39
136.945	137.0	79	35
137.018	137.073	80	39
137.091	137.147	80	35
137.166	137.222	81	39
137.241	137.298	81	34
137.317	137.375	82	39
137.394	137.553	46	34
137.394	137.452	82	34
137.433	137.553	55	35
137.472	137.553	63	36
137.472	137.533	87	39
137.553	137.615	87	34
137.635	137.697	91	39
137.717	137.778	91	35
137.799	137.86	92	41
137.88	137.942	92	36
137.962	138.023	93	42
138.044	138.105	93	37
138.126	140.005	39	35
138.126	140.005	93	43
138.213	138.388	94	38
138.301	140.005	96	38
138.388	139.925	94	34
138.476	139.846	91	42
138.555	139.768	87	35
138.635	140.005	84	41
138.715	139.925	46	33
138.715	139.69	82	34
138.755	139.965	55	37
138.795	139.164	63	35
138.795	139.613	79	40
138.869	139.537	75	33
138.942	140.005	72	38
139.016	139.461	70	32
139.09	139.386	67	38
139.164	139.312	63	33
139.238	140.005	62	37
139.312	140.005	63	34
139.386	140.005	67	33
139.461	140.005	70	34
139.537	140.005	75	36
139.613	140.005	79	38
139.69	140.005	82	41
139.768	140.005	87	43
139.846	140.005	91	45
139.925	140.081	46	35
139.925	140.005	94	47
139.965	140.081	55	36
140.005	140.081	63	38
140.005	140.307	96	46
140.005	140.307	99	54
140.534	140.591	67	33
140.534	140.591	70	39
140.609	140.75	39	35
140.609	140.703	65	39
140.609	140.703	68	47
140.803	140.908	82	39
141.014	141.119	64	33
141.014	141.119	67	39
141.106	141.294	46	31
141.146	141.294	53	33
141.185	141.294	56	34
141.225	141.294	62	36
141.225	141.316	65	39
141.225	141.316	68	46
141.412	141.512	94	41
141.612	141.716	67	34
141.612	141.716	70	41
141.823	141.917	68	39
141.823	141.917	72	47
142.015	142.117	82	41
142.219	142.322	67	34
142.219	142.322	70	41
142.367	142.493	46	25
142.386	142.493	53	28
142.405	142.493	56	34
142.424	142.493	62	36
142.424	142.516	65	38
142.424	142.516	68	45
142.613	142.715	94	40
142.816	142.928	58	34
142.816	142.928	65	40
143.046	143.789	39	35
143.046	143.624	55	40
143.046	143.662	63	40
143.586	143.789	46	36
143.624	143.789	55	38
143.662	143.789	63	39
144.823	145.411	51	35
144.861	145.411	58	36
144.899	145.411	67	38
144.899	145.411	82	46
144.984	145.155	87	45
145.07	145.411	97	60
145.155	145.326	87	45
145.24	145.411	89	45
145.326	145.411	87	45
145.411	146.475	39	35
145.411	146.475	80	53
145.499	145.675	87	46
145.587	146.475	96	46
145.675	145.851	87	57
145.763	146.475	89	46
145.851	146.475	87	46
145.873	146.475	48	34
145.906	146.475	56	36
145.94	146.475	63	38
145.94	146.475	79	48
146.072	146.475	94	52
146.204	146.475	77	44
146.336	146.475	92	52
146.468	146.967	75	44
146.593	147.092	91	47
146.718	147.474	74	41
146.842	147.474	90	45
146.905	147.474	51	35
146.936	147.474	58	36
146.967	147.474	67	38
146.967	147.474	75	40
147.092	147.341	91	45
147.217	147.474	76	41
147.341	147.474	91	45
147.466	148.488	39	35
147.466	147.984	77	42
147.596	148.114	92	47
147.725	148.488	76	43
147.855	148.488	91	49
147.92	148.488	46	33
147.952	148.488	56	35
147.984	148.488	62	36
147.984	148.488	77	46
148.114	148.488	92	52
148.244	148.488	78	43
148.373	148.503	93	46
148.503	148.987	79	47
148.632	148.987	94	55
148.956	149.52	51	31
148.989	149.52	58	34
149.021	149.52	67	37
149.021	149.52	70	45
149.104	149.271	75	38
149.187	149.52	85	58
149.271	149.437	75	42
149.354	149.52	77	38
149.437	149.52	75	40
149.52	150.044	39	35
149.52	150.044	68	45
149.607	149.779	75	35
149.693	150.044	84	51
149.779	149.952	75	35
149.866	150.044	77	35
149.952	150.044	75	35
149.974	150.52	48	32
150.006	150.52	56	34
150.038	150.52	63	35
150.038	150.52	67	42
150.166	150.52	82	48
150.294	150.52	65	44
150.422	150.55	80	48
150.55	151.049	63	40
150.675	151.052	79	47
150.8	151.052	62	39
150.924	151.052	78	46
150.987	151.556	51	32
151.018	151.556	58	34
151.049	151.556	63	38
151.049	151.556	67	35
151.174	151.423	79	45
151.299	151.556	64	38
151.423	151.556	79	47
151.548	152.59	39	33
151.548	152.066	65	41
151.678	152.196	80	44
151.807	152.59	64	38
151.937	152.59	79	46
152.002	152.59	46	27
152.034	152.59	56	28
152.066	152.585	62	29
152.066	152.59	65	40
152.196	152.59	80	45
152.326	152.59	61	38
152.455	152.59	76	44
152.585	152.909	62	40
152.714	152.909	77	46
153.038	153.615	51	31
153.071	153.615	58	33
153.103	153.615	67	35
153.103	153.615	82	50
153.189	153.359	87	45
153.274	153.615	97	54
153.359	153.53	87	45
153.444	153.615	89	45
153.53	153.615	87	45
153.615	154.684	39	35
153.615	154.684	80	50
153.703	153.879	87	46
153.791	154.684	96	54
153.879	154.056	87	46
153.967	154.684	89	46
154.056	154.684	87	46
154.078	154.684	48	34
154.111	154.684	56	36
154.144	154.684	63	38
154.144	154.684	79	42
154.276	154.684	94	49
154.408	154.684	77	44
154.54	154.684	92	47
154.672	155.171	75	41
154.797	155.296	91	48
154.922	155.678	74	41
155.046	155.678	90	46
155.109	155.678	51	35
155.14	155.678	58	36
155.171	155.678	67	38
155.171	155.678	75	41
155.296	155.545	91	46
155.421	155.678	76	40
155.545	155.678	91	45
155.67	156.692	39	35
155.67	156.189	77	39
155.8	156.318	92	47
155.929	156.692	76	40
156.059	156.692	91	46
156.124	156.692	46	34
156.156	156.692	56	35
156.189	156.692	62	38
156.189	156.692	77	43
156.318	156.692	92	48
156.448	156.692	78	45
156.577	156.707	93	51
156.707	157.191	79	47
156.836	157.191	94	52
157.16	157.724	51	30
157.193	157.724	58	33
157.225	157.724	67	37
157.225	157.724	70	45
157.308	157.475	75	38
157.392	157.724	85	50
157.475	157.641	75	38
157.558	157.724	77	38
157.641	157.724	75	40
157.724	158.248	39	35
157.724	158.248	68	45
157.811	157.983	75	38
157.897	158.248	84	48
157.983	158.156	75	38
158.07	158.248	77	38
158.156	158.248	75	38
158.178	158.765	48	31
158.21	158.765	56	34
158.243	158.754	63	36
158.243	158.765	67	40
158.371	158.765	82	46
158.498	158.765	65	39
158.626	158.765	80	47
158.754	159.253	63	39
158.879	159.256	79	45
159.004	159.256	62	40
159.129	159.256	78	45
159.191	159.761	51	32
159.222	159.761	58	34
159.253	159.761	63	39
159.253	159.761	67	36
159.378	159.627	79	43
159.503	159.761	64	38
159.627	159.761	79	37
159.754	161.305	39	35
159.754	161.305	65	44
159.884	161.305	80	37
160.014	161.305	67	47
160.144	161.305	82	38
160.274	161.294	47	25
160.274	161.294	51	25
160.274	161.294	56	25
160.274	161.294	59	30
160.274	161.305	68	47
160.402	161.305	83	38
160.531	161.305	71	45
160.659	161.305	88	33
160.787	161.305	74	47
160.914	161.305	89	37
161.041	161.305	76	45
161.167	161.305	91	33
161.294	162.29	47	25
161.294	162.29	51	25
161.294	162.29	56	25
161.294	162.29	59	30
161.294	162.311	77	45
161.419	162.311	92	33
161.545	162.311	79	47
161.669	162.311	94	34
161.794	162.311	80	52
161.918	162.311	95	37
162.042	162.311	83	50
162.166	162.311	100	37
162.29	162.786	47	25
162.29	162.786	51	25
162.29	162.786	56	25
162.29	162.786	59	30
162.29	162.786	86	57
162.414	162.807	101	43
162.538	162.807	85	53
162.662	162.807	100	44
162.786	163.298	47	25
162.786	163.298	51	25
162.786	163.298	56	25
162.786	163.298	59	30
162.786	163.298	86	58
162.912	163.32	101	44
163.039	163.32	85	53
163.167	163.32	100	44
163.298	165.116	47	25
163.298	165.116	51	25
163.298	165.116	56	25
163.298	165.116	59	30
163.298	163.839	86	62
163.43	164.586	101	51
163.564	165.116	85	60
163.7	164.891	100	57
163.839	165.116	86	46
163.926	165.037	92	50
164.013	164.428	95	54
164.098	164.347	98	59
164.182	165.116	103	66
164.265	164.508	102	49
164.347	164.664	98	49
164.428	164.741	95	48
164.508	165.116	102	59
164.586	164.816	101	46
164.664	165.116	98	45
164.741	164.965	95	45
164.816	165.116	101	57
164.891	165.109	100	41
164.965	165.116	95	41
165.037	165.116	92	41
165.109	166.177	100	55
165.18	165.388	99	40
165.25	166.177	95	40
165.32	165.523	92	40
165.388	166.177	99	53
165.456	165.655	98	40
165.523	165.785	92	40
165.589	165.849	89	40
165.655	166.177	98	52
165.72	165.913	97	38
165.785	166.041	92	38
165.849	166.104	89	38
165.913	166.177	97	50
165.977	166.167	96	38
166.041	166.177	92	38
166.104	166.177	89	38
166.167	167.201	96	53
166.23	166.417	95	35
166.292	166.978	92	35
166.354	166.541	89	35
166.417	167.201	95	52
166.479	166.666	94	35
166.541	166.791	89	35
166.604	166.853	86	35
166.666	167.201	94	51
166.729	166.916	93	35
166.791	167.04	89	35
166.853	167.111	86	35
166.916	167.201	93	52
166.978	167.181	92	35
167.04	167.201	89	35
167.111	167.201	86	35
167.181	168.205	92	54
167.247	167.436	91	38
167.31	167.561	86	35
167.373	167.624	83	35
167.436	168.205	91	53
167.499	167.687	90	35
167.561	167.813	86	35
167.624	167.876	83	35
167.687	168.205	90	54
167.75	167.94	89	35
167.813	168.205	86	35
167.876	168.066	83	35
167.94	168.205	89	53
168.003	168.205	88	35
168.066	168.205	83	35
168.136	168.205	80	35
168.205	169.246	88	55
168.274	168.462	87	35
168.337	169.246	83	35
168.4	168.588	80	35
168.462	169.246	87	55
168.525	168.714	86	35
168.588	168.839	80	35
168.651	168.902	77	35
168.714	169.246	86	56
168.776	168.965	85	35
168.839	169.09	80	35
168.902	169.161	77	35
168.965	169.246	85	51
169.027	169.231	84	35
169.09	169.246	80	35
169.161	169.246	77	35
169.231	169.295	84	55
169.295	169.487	83	35
169.359	170.063	80	35
169.423	169.615	77	35
169.487	170.287	83	53
169.551	169.743	82	35
169.615	169.871	77	35
169.679	169.935	74	35
169.743	170.287	82	55
169.807	169.999	81	35
169.871	170.127	77	35
169.935	170.199	74	35
169.999	170.287	81	53
170.063	170.27	80	35
170.127	170.287	77	35
170.199	170.287	74	35
170.27	170.798	80	56
170.335	170.528	79	37
170.399	170.657	74	34
170.464	170.721	71	35
170.528	170.798	79	56
170.592	170.785	78	38
170.657	170.798	74	36
170.721	170.798	71	36
170.785	171.313	78	57
170.85	171.044	77	40
170.915	171.313	74	35
170.979	171.174	71	35
171.044	171.313	77	55
171.109	171.305	76	40
171.174	171.313	71	36
171.24	171.313	68	36
171.305	171.857	76	58
171.37	171.567	75	39
171.436	171.857	71	35
171.501	171.699	68	36
171.567	171.857	75	58
171.633	171.831	74	39
171.699	171.857	68	37
171.765	171.857	65	37
171.831	172.377	74	61
171.898	172.097	73	45
171.964	172.231	68	40
172.031	172.298	65	40
172.097	172.377	73	61
172.164	172.365	72	45
172.231	172.377	68	39
172.298	172.377	65	39
172.365	172.927	72	63
172.433	172.635	71	47
172.5	172.927	68	43
172.568	172.77	65	44
172.635	172.927	71	63
172.703	172.927	70	49
172.77	172.927	65	46
172.837	172.927	62	39
172.905	174.206	61	66
172.995	174.206	62	39
173.084	174.206	65	39
173.168	174.206	68	40
173.246	174.206	69	41
173.319	174.206	70	42
173.389	174.206	71	43
173.458	174.206	74	43
173.528	174.206	77	44
173.597	174.206	80	45
173.665	174.206	81	46
173.734	174.206	82	47
173.802	174.206	83	49
173.87	174.206	86	50
173.938	174.206	89	51
174.005	174.206	92	53
174.072	174.206	93	54
174.139	174.206	94	56
174.206	175.826	95	63
174.273	175.826	98	51
174.34	174.474	96	51
174.407	175.826	93	57
174.474	175.826	96	45
174.541	174.675	94	45
174.608	174.875	91	53
174.675	175.826	94	43
174.742	175.826	92	43
174.808	175.826	88	47
174.875	175.826	91	41
174.942	175.826	89	41
175.009	175.826	85	48
175.076	175.826	87	38
175.143	175.277	86	38
175.21	175.826	83	48
175.277	175.826	86	35
175.344	175.477	84	35
175.41	175.826	81	47
175.477	175.826	84	35
175.544	175.678	82	35
175.611	175.826	79	44
175.678	175.826	82	35
175.745	175.826	80	35
175.812	176.648	76	44
175.879	176.648	79	35
175.946	176.648	77	35
176.014	176.648	73	41
176.081	176.648	75	35
176.15	176.287	74	35
176.218	176.648	71	41
176.287	176.648	74	34
176.356	176.495	72	34
176.426	176.648	68	41
176.495	176.648	72	33
176.566	176.648	70	33
176.636	176.922	67	40
176.707	177.521	70	31
176.778	177.521	68	31
176.85	177.521	64	40
176.922	177.521	67	29
176.994	177.521	65	29
177.067	177.521	61	39
177.14	177.521	63	30
177.213	177.361	62	30
177.287	177.521	59	39
177.361	177.521	62	30
177.436	177.521	60	30
177.51	177.833	57	38
177.586	177.747	58	31
177.665	178.062	60	31
177.747	177.922	58	39
177.833	178.062	57	32
177.922	178.062	58	47
178.036	178.083	62	49
178.225	178.415	53	39
178.415	178.586	46	41
178.415	178.756	62	56
178.586	178.915	39	34
178.756	178.835	60	52
178.915	179.073	53	40
179.073	179.224	46	41
179.073	179.375	60	56
179.224	179.533	39	35
179.375	179.454	55	52
179.533	179.692	51	37
179.692	179.845	46	41
179.692	179.807	58	46
179.845	180.152	39	34
179.96	179.999	60	48
179.999	180.114	58	49
180.152	180.306	51	40
180.229	180.306	57	46
180.306	180.47	46	41
180.306	180.47	58	52
180.47	180.789	39	37
180.635	180.712	53	52
180.789	180.942	50	39
180.789	180.865	55	49
180.942	181.093	46	41
180.942	181.018	56	50
181.093	181.396	39	36
181.093	181.169	60	50
181.244	181.32	58	52
181.396	181.547	50	39
181.396	181.471	56	48
181.547	181.698	46	41
181.547	181.622	55	49
181.698	182.009	39	36
181.698	181.755	53	49
181.811	181.849	57	46
181.849	181.929	58	52
182.009	182.168	55	39
182.168	182.319	46	41
182.168	182.281	58	46
182.319	182.622	39	35
182.319	182.395	58	48
182.395	182.47	60	48
182.47	182.584	58	49
182.622	182.773	55	39
182.697	182.773	57	46
182.773	182.935	46	41
182.773	183.097	58	52
182.935	183.265	39	36
183.097	183.139	62	49
183.265	183.432	53	39
183.432	183.591	46	41
183.432	183.749	62	55
183.591	183.907	39	34
183.749	183.828	60	52
183.907	184.065	53	40
184.065	184.217	46	41
184.065	184.368	60	56
184.217	184.526	39	35
184.368	184.447	55	49
184.526	184.684	51	37
184.684	184.838	46	41
184.684	184.799	58	56
184.838	185.145	39	34
184.953	184.991	60	48
184.991	185.106	58	49
185.145	185.298	51	40
185.221	185.298	57	46
185.298	185.463	46	41
185.298	185.463	58	52
185.463	185.781	39	37
185.628	185.705	53	52
185.781	185.935	50	39
185.781	185.858	55	49
185.935	186.086	46	41
185.935	186.01	56	50
186.086	186.388	39	36
186.086	186.161	60	50
186.237	186.313	58	52
186.388	186.539	50	39
186.388	186.464	56	48
186.539	186.69	46	41
186.539	186.615	55	49
186.69	186.993	39	36
186.69	186.766	53	49
186.842	186.917	55	53
186.993	187.144	46	39
187.144	187.295	39	41
187.144	187.748	51	56
187.295	187.597	46	36
187.597	187.748	46	39
187.748	187.9	39	41
187.748	187.824	54	45
187.824	187.9	55	47
187.9	188.051	46	36
187.9	187.975	57	49
187.975	188.051	58	51
188.051	188.091	62	49
188.213	188.375	53	39
188.375	188.536	46	41
188.375	188.697	62	55
188.536	188.855	39	34
188.697	188.776	60	51
188.855	189.013	53	40
189.013	189.164	46	41
189.013	189.316	60	56
189.164	189.474	39	35
189.316	189.395	55	52
189.474	189.632	51	37
189.632	189.786	46	41
189.632	189.747	58	46
189.786	190.093	39	34
189.901	189.939	60	48
189.939	190.054	58	49
190.093	190.246	51	40
190.169	190.246	57	46
190.246	190.411	46	41
190.246	190.411	58	52
190.411	190.729	39	37
190.576	190.652	53	52
190.729	190.883	50	39
190.729	190.806	55	49
190.883	191.034	46	41
190.883	190.958	56	50
191.034	191.336	39	36
191.034	191.109	60	50
191.185	191.26	58	52
191.336	191.487	50	39
191.336	191.412	56	48
191.487	191.638	46	41
191.487	191.563	55	49
191.638	191.949	39	36
191.638	191.695	53	49
191.752	191.789	57	46
191.789	191.869	58	52
191.949	192.109	55	39
192.109	192.26	46	41
192.109	192.222	58	46
192.26	192.562	39	35
192.26	192.335	58	48
192.335	192.411	60	48
192.411	192.524	58	49
192.562	192.713	55	39
192.638	192.713	57	46
192.713	192.875	46	41
192.713	193.038	58	52
192.875	193.205	39	36
193.038	193.079	62	49
193.205	193.373	53	39
193.373	193.531	46	41
193.373	193.689	62	54
193.531	193.848	39	34
193.689	193.768	60	49
193.848	194.006	53	40
194.006	194.157	46	41
194.006	194.308	60	55
194.157	194.467	39	35
194.308	194.387	55	52
194.467	194.625	51	37
194.625	194.778	46	41
194.625	194.74	58	46
194.778	195.085	39	34
194.893	194.932	60	48
194.932	195.047	58	49
195.085	195.239	51	40
195.162	195.239	57	46
195.239	195.404	46	41
195.239	195.404	58	52
195.404	195.722	39	37
195.568	195.645	53	52
195.722	195.875	50	39
195.722	195.799	55	49
195.875	196.026	46	41
195.875	195.951	56	50
196.026	196.329	39	36
196.026	196.102	60	50
196.178	196.253	58	52
196.329	196.48	50	39
196.329	196.404	56	48
196.48	196.631	46	41
196.48	196.555	55	49
196.631	196.933	39	36
196.631	196.707	53	49
196.782	196.858	55	56
196.933	197.084	46	39
197.084	197.235	39	41
197.084	197.538	51	58
197.235	197.538	46	36
197.538	197.689	51	39
197.613	197.689	66	41
197.651	197.689	69	49
197.689	197.84	46	41
197.689	197.991	67	41
197.689	197.991	70	49
197.84	198.485	39	36
197.991	198.326	65	41
197.991	198.326	70	41
197.991	198.326	74	49
198.159	198.669	53	39
198.326	198.669	46	41
198.326	198.669	65	41
198.326	198.669	70	41
198.326	198.669	74	49
198.485	199.111	39	34
198.643	198.96	68	44
198.643	198.96	72	52
198.801	199.262	53	40
198.96	199.262	46	41
198.96	199.262	62	39
198.96	199.262	68	39
198.96	199.262	72	47
199.111	199.732	39	35
199.262	199.893	63	44
199.262	199.579	67	52
199.42	199.893	55	37
199.579	199.893	46	41
199.579	199.893	58	39
199.579	199.885	67	46
199.579	199.885	70	46
199.732	200.357	39	34
199.809	199.893	72	48
199.885	200.192	67	41
199.885	200.192	70	49
200.039	200.54	55	40
200.116	200.54	66	39
200.116	200.54	69	46
200.192	200.54	46	41
200.192	200.54	67	44
200.192	200.54	70	52
200.357	200.675	39	37
200.522	201.131	58	44
200.522	200.599	65	52
200.675	200.829	50	39
200.675	200.752	67	49
200.829	200.98	46	41
200.829	200.904	68	50
200.98	201.282	39	36
200.98	201.056	72	50
201.131	201.207	70	52
201.282	201.433	50	39
201.282	201.358	68	48
201.433	201.585	46	41
201.433	201.509	67	49
201.585	202.189	39	36
201.585	201.66	65	49
201.736	202.038	67	52
201.736	202.038	70	52
201.887	202.353	51	39
202.038	202.353	46	41
202.038	202.353	58	39
202.038	202.34	67	46
202.038	202.34	70	46
202.189	202.794	39	36
202.302	202.353	72	48
202.34	202.643	67	41
202.34	202.643	70	49
202.491	202.945	51	39
202.567	202.945	66	39
202.567	202.945	69	46
202.643	202.945	46	41
202.643	202.945	67	44
202.643	202.945	70	52
202.794	203.438	39	36
202.945	203.28	77	41
202.945	203.28	82	41
202.945	203.28	86	49
203.112	203.623	53	39
203.28	203.623	46	41
203.28	203.623	77	41
203.28	203.623	82	41
203.28	203.623	86	49
203.438	204.064	39	34
203.597	203.913	80	44
203.597	203.913	84	52
203.755	204.216	53	40
203.913	204.216	46	41
203.913	204.216	74	39
203.913	204.216	80	39
203.913	204.216	84	47
204.064	204.686	39	35
204.216	204.847	75	44
204.216	204.532	79	52
204.374	204.847	55	37
204.532	204.847	46	41
204.532	204.847	70	39
204.532	204.839	79	46
204.532	204.839	82	46
204.686	205.311	39	34
204.801	204.847	84	48
204.839	205.146	79	41
204.839	205.146	82	49
204.993	205.494	55	40
205.069	205.494	78	39
205.069	205.494	81	46
205.146	205.494	46	41
205.146	205.494	79	44
205.146	205.494	82	52
205.311	205.629	39	37
205.476	206.085	70	44
205.476	205.552	77	52
205.629	205.783	50	39
205.629	205.706	79	49
205.783	205.934	46	41
205.783	205.858	80	50
205.934	206.236	39	36
205.934	206.009	84	50
206.085	206.689	70	44
206.085	206.16	82	52
206.236	206.387	50	39
206.236	206.312	80	48
206.387	206.538	46	41
206.387	206.463	79	49
206.538	207.143	39	36
206.538	206.614	77	49
206.689	206.992	70	52
206.689	207.307	79	52
206.841	207.307	51	39
206.992	207.307	46	41
206.992	207.596	67	39
206.992	207.596	70	46
206.992	207.596	75	46
207.143	207.747	39	36
207.445	207.916	51	39
207.558	207.916	74	46
207.596	207.916	46	41
207.596	207.916	67	36
207.596	207.916	70	37
207.596	207.916	75	43
207.747	207.916	39	36
207.898	208.508	82	44
207.898	207.975	89	52
208.052	208.205	68	39
208.052	208.129	91	49
208.205	208.356	62	41
208.205	208.281	92	50
208.356	208.508	58	36
208.356	208.432	96	50
208.508	209.112	82	44
208.508	208.583	94	52
208.659	208.81	50	39
208.659	208.734	92	48
208.81	208.961	46	41
208.81	208.885	91	49
208.961	209.112	39	36
208.961	209.037	89	49
209.112	209.429	82	44
209.112	209.429	91	44
209.112	209.429	94	52
209.271	209.744	67	37
209.429	209.744	63	41
209.429	209.736	82	44
209.429	209.736	91	41
209.429	209.736	94	49
209.582	209.744	58	34
209.659	209.744	90	39
209.659	209.744	93	46
209.736	210.413	82	44
209.736	210.413	91	44
209.736	210.413	94	52
209.901	210.413	51	40
210.065	210.413	46	41
210.23	210.413	39	37
210.395	211.004	70	44
210.395	210.472	77	52
210.549	210.702	68	39
210.549	210.625	79	49
210.702	210.853	62	41
210.702	210.778	80	50
210.853	211.004	58	36
210.853	210.929	84	50
211.004	211.609	70	44
211.004	211.08	82	52
211.155	211.307	50	39
211.155	211.231	80	48
211.307	211.458	46	41
211.307	211.382	79	49
211.458	211.609	39	36
211.458	211.533	77	49
211.609	211.911	70	52
211.609	212.226	79	52
211.76	212.226	63	39
211.911	212.226	58	41
211.911	212.516	67	39
211.911	212.516	70	46
211.911	212.516	75	46
212.062	212.226	51	36
212.364	212.836	51	39
212.478	212.836	74	46
212.516	212.836	46	41
212.516	212.836	67	36
212.516	212.836	70	37
212.516	212.836	75	43
212.667	212.836	39	36
212.818	213.427	82	44
212.818	212.895	89	52
212.971	213.125	68	39
212.971	213.048	91	49
213.125	213.276	62	41
213.125	213.2	92	50
213.276	213.427	58	36
213.276	213.351	96	50
213.427	214.032	82	44
213.427	213.503	94	52
213.578	213.729	50	39
213.578	213.654	92	48
213.729	213.88	46	41
213.729	213.805	91	49
213.88	214.032	39	36
213.88	213.956	89	49
214.032	214.348	82	44
214.032	214.348	91	44
214.032	214.348	94	52
214.19	214.663	67	37
214.348	214.663	63	41
214.348	214.655	82	44
214.348	214.655	91	41
214.348	214.655	94	49
214.502	214.663	58	34
214.578	214.663	90	39
214.578	214.663	93	46
214.655	215.334	82	44
214.655	215.334	91	44
214.655	215.334	94	52
214.82	215.334	51	40
214.985	215.334	46	41
215.15	215.334	39	37
215.314	215.956	70	44
215.314	215.397	77	52
215.479	215.644	68	39
215.479	215.562	79	49
215.644	215.8	62	41
215.644	215.722	80	50
215.8	215.956	58	36
215.8	215.878	84	50
215.956	216.599	70	44
215.956	216.036	82	52
216.115	216.275	50	39
216.115	216.195	80	48
216.275	216.437	46	41
216.275	216.356	79	49
216.437	216.599	39	36
216.437	216.518	77	49
216.559	216.599	78	49
216.599	216.686	79	49
216.946	217.319	39	32
216.946	217.319	55	38
216.946	217.319	67	37
216.946	217.132	70	44
217.132	217.226	75	49
217.319	217.691	41	32
217.319	217.691	56	38
217.319	217.691	68	35
217.319	217.505	74	42
217.505	217.598	77	49
217.691	218.084	43	32
217.691	218.084	59	38
217.691	218.084	62	35
217.691	217.878	65	42
217.878	217.976	71	49
218.084	220.15	48	39
218.084	220.15	55	39
218.084	220.15	63	47
218.084	220.15	67	39
218.084	219.294	72	46
219.132	219.784	71	47
219.294	219.617	72	41
219.456	220.15	74	41
219.617	219.961	72	45
219.784	220.15	71	40
219.961	220.15	72	45
220.15	222.815	44	37
220.23	222.792	53	38
220.311	222.815	60	39
220.391	222.815	65	47
220.471	222.815	72	49
220.551	222.815	77	51
222.075	222.557	75	49
222.557	222.815	75	42
222.717	225.088	46	37
222.792	225.088	53	38
222.868	225.088	58	39
222.943	225.088	62	47
223.019	225.088	68	49
223.122	225.088	74	51
225.088	225.279	34	35
225.088	225.279	62	46
225.151	225.279	68	50
225.215	225.279	77	58
225.598	225.685	39	43
225.598	225.685	67	47
225.598	225.685	75	56
225.768	225.848	70	41
225.768	225.848	77	49
225.928	226.008	55	31
225.928	226.008	63	31
225.928	226.008	67	37
225.928	226.008	75	42
225.928	226.008	79	50
226.088	226.175	77	37
226.088	226.175	80	44
226.219	226.263	84	56
226.263	226.344	79	42
226.263	226.344	82	50
226.508	226.59	78	38
226.508	226.59	81	45
226.59	226.676	58	29
226.59	226.676	63	29
226.59	226.676	67	35
226.59	226.676	79	50
226.59	226.676	82	50
226.935	227.206	32	63
226.935	227.206	44	74
226.935	227.206	56	97
227.281	227.364	56	40
227.281	227.364	63	40
227.281	227.364	68	48
227.281	227.364	72	47
227.281	227.364	75	47
227.281	227.364	84	56
227.529	227.603	55	35
227.529	227.603	67	41
227.603	227.688	56	46
227.603	227.688	63	46
227.603	227.688	68	55
227.603	227.688	72	56
227.603	227.688	80	56
227.603	227.688	84	66
227.854	227.936	71	42
227.854	227.936	79	42
227.854	227.936	83	51
227.936	228.018	72	42
227.936	228.018	80	42
227.936	228.018	84	51
228.276	228.598	31	63
228.276	228.598	43	74
228.276	228.598	55	96
228.622	228.705	55	40
228.622	228.705	63	40
228.622	228.705	67	48
228.622	228.705	70	47
228.622	228.705	75	47
228.622	228.705	82	56
228.87	228.941	54	35
228.87	228.941	66	41
228.941	229.028	55	46
228.941	229.028	63	46
228.941	229.028	67	55
228.941	229.028	70	56
228.941	229.028	79	56
228.941	229.028	82	66
229.197	229.28	69	42
229.197	229.28	78	42
229.197	229.28	81	51
229.28	229.362	70	42
229.28	229.362	79	42
229.28	229.362	82	51
229.624	229.946	29	63
229.624	229.946	41	74
229.624	229.946	53	95
229.971	230.053	53	40
229.971	230.053	62	40
229.971	230.053	65	48
229.971	230.053	68	47
229.971	230.053	74	47
229.971	230.053	80	56
230.218	230.29	52	35
230.218	230.29	64	41
230.29	230.376	53	46
230.29	230.376	62	46
230.29	230.376	65	55
230.29	230.376	68	56
230.29	230.376	77	56
230.29	230.376	80	66
230.544	230.627	67	42
230.544	230.627	76	42
230.544	230.627	79	51
230.627	230.709	68	42
230.627	230.709	77	42
230.627	230.709	80	51
230.971	231.231	27	63
230.971	231.231	39	74
230.971	231.231	51	99
231.318	231.4	51	40
231.318	231.4	58	40
231.318	231.4	63	48
231.318	231.4	67	47
231.318	231.4	70	47
231.318	231.4	79	56
231.565	231.637	50	35
231.565	231.637	62	41
231.637	231.725	51	46
231.637	231.725	58	46
231.637	231.725	63	55
231.637	231.725	67	56
231.637	231.725	75	56
231.637	231.725	79	66
231.897	231.98	66	42
231.897	231.98	74	42
231.897	231.98	78	51
231.98	232.063	67	42
231.98	232.063	75	42
231.98	232.063	79	51
232.325	232.408	34	48
232.325	232.408	72	44
232.325	232.408	80	52
232.492	232.576	70	39
232.492	232.576	79	47
232.66	232.741	53	35
232.66	232.741	56	35
232.66	232.741	62	42
232.66	232.741	68	39
232.66	232.741	77	47
232.823	232.911	67	39
232.823	232.911	75	47
232.999	233.083	46	47
232.999	233.083	65	44
232.999	233.083	74	52
233.167	233.251	62	38
233.167	233.251	70	45
233.334	233.423	53	34
233.334	233.423	56	34
233.334	233.423	58	40
233.334	233.423	63	38
233.334	233.423	72	45
233.512	233.602	65	38
233.512	233.602	74	45
233.691	233.772	39	43
233.691	233.772	67	47
233.691	233.772	75	56
233.854	233.936	70	41
233.854	233.936	77	49
234.017	234.096	55	31
234.017	234.096	58	31
234.017	234.096	63	37
234.017	234.096	75	42
234.017	234.096	79	50
234.175	234.263	77	37
234.175	234.263	80	44
234.307	234.35	84	56
234.35	234.432	46	43
234.35	234.432	79	42
234.35	234.432	82	50
234.596	234.677	78	38
234.596	234.677	81	45
234.677	234.759	55	29
234.677	234.759	58	29
234.677	234.759	63	35
234.677	234.759	79	50
234.677	234.759	82	50
235.017	235.101	34	48
235.017	235.101	84	44
235.017	235.101	92	52
235.185	235.269	82	39
235.185	235.269	91	47
235.352	235.431	53	35
235.352	235.431	56	35
235.352	235.431	62	42
235.352	235.431	80	39
235.352	235.431	89	47
235.51	235.599	79	39
235.51	235.599	87	47
235.687	235.771	46	47
235.687	235.771	77	44
235.687	235.771	86	52
235.854	235.938	74	38
235.854	235.938	82	45
236.022	236.111	53	34
236.022	236.111	56	34
236.022	236.111	58	40
236.022	236.111	75	38
236.022	236.111	84	45
236.2	236.289	77	38
236.2	236.289	86	45
236.378	236.46	39	43
236.378	236.46	79	47
236.378	236.46	87	56
236.542	236.623	82	41
236.542	236.623	89	49
236.705	236.787	55	31
236.705	236.787	58	31
236.705	236.787	63	37
236.705	236.787	87	42
236.705	236.787	91	50
236.868	236.956	89	37
236.868	236.956	92	44
237.0	237.043	96	56
237.043	237.125	46	43
237.043	237.125	91	42
237.043	237.125	94	50
237.289	237.37	90	38
237.289	237.37	93	45
237.37	237.456	55	29
237.37	237.456	58	29
237.37	237.456	63	35
237.37	237.456	91	50
237.37	237.456	94	50
237.711	237.996	32	63
237.711	237.996	44	74
237.711	237.996	56	93
238.058	238.141	56	40
238.058	238.141	63	40
238.058	238.141	68	48
238.058	238.141	72	47
238.058	238.141	75	47
238.058	238.141	84	56
238.305	238.379	55	35
238.305	238.379	67	41
238.379	238.47	56	46
238.379	238.47	63	46
238.379	238.47	68	55
238.379	238.47	72	56
238.379	238.47	80	56
238.379	238.47	84	66
238.644	238.727	71	42
238.644	238.727	79	42
238.644	238.727	83	51
238.727	238.811	72	42
238.727	238.811	80	42
238.727	238.811	84	51
239.07	239.38	31	63
239.07	239.38	43	74
239.07	239.38	55	101
239.417	239.5	55	40
239.417	239.5	63	40
239.417	239.5	67	48
239.417	239.5	70	47
239.417	239.5	75	47
239.417	239.5	82	56
239.664	239.736	54	35
239.664	239.736	66	41
239.736	239.824	55	46
239.736	239.824	63	46
239.736	239.824	67	55
239.736	239.824	70	56
239.736	239.824	79	56
239.736	239.824	82	66
239.996	240.079	69	42
239.996	240.079	78	42
239.996	240.079	81	51
240.079	240.163	70	42
240.079	240.163	79	42
240.079	240.163	82	51
240.426	240.755	29	63
240.426	240.755	41	74
240.426	240.755	53	96
240.772	240.855	53	40
240.772	240.855	62	40
240.772	240.855	65	48
240.772	240.855	68	47
240.772	240.855	74	47
240.772	240.855	80	56
241.02	241.091	52	35
241.02	241.091	64	41
241.091	241.181	53	46
241.091	241.181	62	46
241.091	241.181	65	55
241.091	241.181	68	56
241.091	241.181	77	56
241.091	241.181	80	66
241.351	241.433	67	42
241.351	241.433	76	42
241.351	241.433	79	51
241.433	241.514	68	42
241.433	241.514	77	42
241.433	241.514	80	51
241.775	242.089	27	63
241.775	242.089	39	74
241.775	242.089	51	92
242.122	242.205	51	40
242.122	242.205	58	40
242.122	242.205	63	48
242.122	242.205	67	47
242.122	242.205	70	47
242.122	242.205	79	56
242.369	242.441	50	35
242.369	242.441	62	41
242.441	242.53	51	46
242.441	242.53	58	46
242.441	242.53	63	55
242.441	242.53	67	56
242.441	242.53	75	56
242.441	242.53	79	66
242.702	242.784	66	42
242.702	242.784	74	42
242.702	242.784	78	51
242.784	242.866	67	42
242.784	242.866	75	42
242.784	242.866	79	51
243.128	243.21	34	48
243.128	243.21	84	44
243.128	243.21	92	52
243.292	243.373	82	39
243.292	243.373	91	47
243.455	243.538	53	35
243.455	243.538	56	35
243.455	243.538	62	42
243.455	243.538	80	39
243.455	243.538	89	47
243.621	243.709	79	39
243.621	243.709	87	47
243.798	243.881	46	47
243.798	243.881	77	44
243.798	243.881	86	52
243.965	244.049	74	38
243.965	244.049	82	45
244.133	244.216	53	34
244.133	244.216	56	34
244.133	244.216	58	40
244.133	244.216	75	38
244.133	244.216	84	45
244.3	244.388	77	38
244.3	244.388	86	45
244.476	244.556	39	43
244.476	244.556	79	47
244.476	244.556	87	56
244.636	244.715	82	41
244.636	244.715	89	49
244.795	244.877	55	31
244.795	244.877	58	31
244.795	244.877	63	37
244.795	244.877	87	42
244.795	244.877	91	50
244.958	245.046	89	37
244.958	245.046	92	44
245.089	245.133	96	56
245.133	245.214	46	43
245.133	245.214	91	42
245.133	245.214	94	50
245.294	245.375	90	38
245.294	245.375	93	45
245.456	245.537	55	29
245.456	245.537	58	29
245.456	245.537	63	35
245.456	245.537	92	50
245.456	245.537	96	50
245.619	245.7	91	50
245.619	245.7	94	50
245.782	245.866	34	48
245.782	245.866	72	44
245.782	245.866	80	52
245.949	246.033	70	39
245.949	246.033	79	47
246.117	246.198	53	35
246.117	246.198	56	35
246.117	246.198	62	42
246.117	246.198	68	39
246.117	246.198	77	47
246.278	246.363	67	39
246.278	246.363	75	47
246.447	246.531	46	47
246.447	246.531	65	44
246.447	246.531	74	52
246.614	246.698	62	38
246.614	246.698	70	45
246.782	246.865	53	34
246.782	246.865	56	34
246.782	246.865	58	40
246.782	246.865	63	38
246.782	246.865	72	45
246.949	247.037	65	38
246.949	247.037	74	45
247.125	247.207	39	43
247.125	247.207	67	47
247.125	247.207	75	56
247.289	247.37	70	41
247.289	247.37	77	49
247.452	247.534	55	31
247.452	247.534	58	31
247.452	247.534	63	37
247.452	247.534	75	42
247.452	247.534	79	50
247.616	247.703	77	37
247.616	247.703	80	44
247.79	247.872	46	43
247.79	247.872	79	42
247.79	247.872	82	50
247.954	248.036	78	38
247.954	248.036	81	45
248.117	248.199	55	29
248.117	248.199	58	29
248.117	248.199	63	35
248.117	248.199	80	50
248.117	248.199	84	50
248.281	248.363	79	50
248.281	248.363	82	50
248.444	248.528	34	48
248.444	248.528	84	44
248.444	248.528	92	52
248.612	248.696	82	39
248.612	248.696	91	47
248.78	248.863	53	35
248.78	248.863	56	35
248.78	248.863	62	42
248.78	248.863	80	39
248.78	248.863	89	47
248.947	249.035	79	39
248.947	249.035	87	47
249.124	249.207	46	47
249.124	249.207	77	44
249.124	249.207	86	52
249.291	249.375	74	38
249.291	249.375	82	45
249.459	249.543	53	34
249.459	249.543	56	34
249.459	249.543	62	40
249.459	249.543	75	38
249.459	249.543	84	45
249.627	249.712	77	38
249.627	249.712	86	45
249.796	249.878	39	43
249.796	249.878	79	47
249.796	249.878	87	56
249.959	250.041	82	41
249.959	250.041	89	49
250.123	250.205	55	31
250.123	250.205	58	31
250.123	250.205	63	37
250.123	250.205	87	42
250.123	250.205	91	50
250.286	250.371	89	37
250.286	250.371	92	44
250.455	250.537	46	43
250.455	250.537	91	42
250.455	250.537	94	50
250.618	250.7	90	38
250.618	250.7	93	45
250.782	250.864	55	29
250.782	250.864	58	29
250.782	250.864	63	35
250.782	250.864	92	42
250.782	250.864	96	50
250.945	251.037	91	42
250.945	251.037	94	50
251.128	251.21	34	59
251.128	251.21	84	47
251.128	251.21	92	56
251.292	251.373	82	45
251.292	251.373	91	53
251.455	251.537	53	29
251.455	251.537	56	29
251.455	251.537	62	35
251.455	251.537	80	45
251.455	251.537	89	53
251.619	251.7	79	45
251.619	251.7	87	53
251.782	251.864	77	47
251.782	251.864	86	56
251.946	252.037	74	42
251.946	252.037	82	50
252.129	252.21	64	37
252.129	252.21	67	44
252.129	252.21	73	42
252.129	252.21	81	50
252.292	252.374	65	37
252.292	252.374	68	44
252.292	252.374	74	42
252.292	252.374	82	50
252.456	252.538	66	35
252.456	252.538	69	42
252.456	252.538	75	43
252.456	252.538	83	51
252.62	252.703	67	36
252.62	252.703	70	43
252.62	252.703	76	36
252.62	252.703	84	43
252.785	252.867	68	37
252.785	252.867	71	44
252.785	252.867	77	38
252.785	252.867	85	45
252.949	253.031	69	38
252.949	253.031	72	45
252.949	253.031	78	39
252.949	253.031	86	46
253.112	253.194	70	39
253.112	253.194	73	46
253.112	253.194	79	40
253.112	253.194	87	48
253.275	253.356	71	39
253.275	253.356	74	47
253.275	253.356	80	42
253.275	253.356	88	50
253.437	253.518	72	40
253.437	253.518	75	48
253.437	253.518	81	43
253.437	253.518	89	51
253.598	253.679	73	41
253.598	253.679	76	49
253.598	253.679	82	45
253.598	253.679	90	53
253.759	253.84	74	42
253.759	253.84	77	50
253.759	253.84	83	46
253.759	253.84	91	55
253.92	253.999	75	43
253.92	253.999	78	51
253.92	253.999	84	47
253.92	253.999	92	56
254.078	254.156	76	45
254.078	254.156	79	53
254.078	254.156	85	49
254.078	254.156	93	58
254.234	254.311	77	45
254.234	254.311	80	54
254.234	254.311	86	51
254.234	254.311	94	60
254.388	254.467	76	46
254.388	254.467	79	55
254.388	254.467	85	57
254.388	254.467	93	68
254.546	254.626	77	47
254.546	254.626	80	56
254.546	254.626	86	58
254.546	254.626	94	69
254.707	254.788	81	62
254.707	254.788	93	73
254.869	254.965	82	60
254.869	254.965	94	71
255.061	255.767	32	60
255.061	255.767	44	71
255.061	255.414	86	72
255.061	255.414	94	72
255.061	255.414	98	85
255.414	255.767	53	54
255.414	255.767	60	54
255.414	255.767	65	64
255.414	255.767	86	66
255.414	255.767	94	66
255.414	255.767	98	78
255.758	256.443	34	60
255.758	256.443	46	71
255.758	256.088	84	72
255.758	256.088	92	72
255.758	256.088	96	85
256.088	256.443	53	55
256.088	256.443	62	55
256.088	256.443	65	65
256.088	256.443	84	68
256.088	256.443	92	68
256.088	256.443	96	80
256.429	257.105	39	60
256.429	257.105	51	71
256.429	257.838	79	71
256.429	257.838	87	71
256.429	256.759	91	84
256.759	257.432	55	55
256.759	257.432	63	55
256.759	257.432	67	65
256.759	257.105	82	64
256.759	257.105	91	64
256.759	257.105	94	76
257.105	257.838	39	60
257.105	257.838	51	71
257.105	257.432	82	68
257.105	257.432	91	68
257.105	257.432	94	81
257.351	257.838	81	61
257.351	257.838	90	61
257.351	257.838	93	72
257.432	257.838	55	55
257.432	257.838	63	55
257.432	257.838	67	65
257.432	257.838	82	68
257.432	257.838	91	68
257.432	257.838	94	80
257.779	258.431	41	60
257.779	258.431	53	71
257.779	257.861	77	63
257.779	257.861	80	63
257.779	257.861	89	75
257.943	258.431	79	62
257.943	258.422	82	62
257.943	258.431	91	74
258.106	258.431	56	55
258.106	258.431	60	55
258.106	258.431	65	65
258.106	258.431	80	62
258.106	258.264	84	62
258.106	258.431	92	74
258.264	258.431	84	62
258.264	258.431	87	74
258.264	258.431	96	74
258.422	259.074	34	60
258.422	259.074	46	71
258.422	258.748	82	64
258.422	259.074	86	76
258.422	259.074	94	76
258.585	258.911	80	62
258.585	259.074	84	62
258.585	259.074	92	73
258.748	259.074	56	55
258.748	259.074	62	55
258.748	259.074	65	65
258.748	259.074	79	62
258.748	259.074	82	62
258.748	259.074	91	74
258.911	259.074	77	62
258.911	259.074	80	62
258.911	259.074	89	74
259.074	259.751	39	60
259.074	259.751	51	71
259.074	259.404	82	71
259.074	259.404	91	84
259.074	259.404	94	84
259.404	260.078	55	55
259.404	260.078	63	55
259.404	260.078	67	65
259.404	259.751	82	64
259.404	259.751	91	76
259.404	259.751	94	76
259.664	260.448	81	61
259.664	260.448	90	72
259.664	260.448	93	72
259.751	260.448	39	60
259.751	260.448	51	71
259.751	260.448	82	68
259.751	260.448	91	81
259.751	260.434	94	81
260.078	260.448	55	55
260.078	260.448	63	55
260.078	260.448	67	65
260.434	261.198	32	60
260.434	261.198	44	71
260.434	260.817	86	72
260.434	260.817	94	72
260.434	260.817	98	85
260.817	261.198	53	54
260.817	261.198	60	54
260.817	261.198	65	64
260.817	261.198	86	66
260.817	261.198	94	66
260.817	261.198	98	78
261.19	261.904	34	60
261.19	261.904	46	71
261.19	261.531	84	72
261.19	261.531	92	72
261.19	261.531	96	85
261.531	261.904	53	55
261.531	261.904	62	55
261.531	261.904	65	65
261.531	261.904	84	68
261.531	261.904	92	68
261.531	261.904	96	80
261.89	262.566	39	60
261.89	262.566	51	71
261.89	263.299	79	71
261.89	263.299	87	71
261.89	262.22	91	84
262.22	262.893	55	55
262.22	262.893	63	55
262.22	262.893	67	65
262.22	262.566	82	64
262.22	262.566	91	64
262.22	262.566	94	76
262.566	263.299	39	60
262.566	263.299	51	71
262.566	262.893	82	68
262.566	262.893	91	68
262.566	262.893	94	81
262.812	263.299	81	61
262.812	263.299	90	61
262.812	263.299	93	72
262.893	263.299	55	55
262.893	263.299	63	55
262.893	263.299	67	65
262.893	263.299	82	68
262.893	263.299	91	68
262.893	263.299	94	80
263.24	263.892	41	60
263.24	263.892	53	71
263.24	263.322	77	56
263.24	263.322	80	56
263.24	263.322	89	66
263.404	263.892	79	57
263.404	263.883	82	57
263.404	263.892	91	68
263.567	263.892	56	55
263.567	263.892	60	55
263.567	263.892	65	65
263.567	263.892	80	59
263.567	263.892	83	59
263.567	263.892	92	70
263.725	263.892	81	61
263.725	263.892	84	61
263.725	263.892	93	72
263.883	264.542	34	60
263.883	264.542	46	71
263.883	264.542	82	62
263.883	264.542	85	62
263.883	264.542	94	74
264.046	264.542	83	64
264.046	264.376	86	64
264.046	264.542	95	76
264.209	264.542	56	55
264.209	264.542	62	55
264.209	264.542	65	65
264.209	264.542	84	66
264.209	264.542	87	66
264.209	264.542	96	78
264.376	264.542	86	67
264.376	264.542	89	67
264.376	264.542	98	79
264.542	265.367	39	60
264.542	265.367	51	71
264.542	264.624	87	68
264.542	264.624	91	68
264.542	264.624	99	81
265.195	265.367	55	60
265.195	265.367	63	60
265.195	265.367	67	71
265.195	265.367	75	68
265.195	265.367	79	68
265.195	265.367	82	68
265.195	265.367	87	81
265.199	265.367	58	60
266.825	266.898	58	57
266.898	266.971	60	54
266.971	267.044	58	55
267.044	267.118	57	55
267.118	267.191	58	55
267.191	267.27	62	60
267.402	267.496	61	53
267.59	267.679	46	34
267.59	267.679	53	41
267.59	267.679	60	53
267.768	267.857	59	53
267.946	268.039	39	45
267.946	268.039	58	57
268.133	268.22	57	54
268.307	268.395	46	37
268.307	268.395	53	44
268.307	268.395	56	54
268.482	268.57	60	54
268.657	268.746	55	57
268.835	268.924	56	54
269.013	269.102	46	34
269.013	269.102	51	40
269.013	269.102	57	54
269.191	269.239	58	54
269.287	269.329	57	49
269.329	269.37	58	49
269.37	269.412	60	49
269.412	269.492	39	45
269.412	269.492	58	57
269.573	269.653	57	53
269.734	269.824	46	36
269.734	269.824	51	43
269.734	269.824	58	57
269.915	270.005	55	54
270.107	270.195	53	57
270.284	270.372	55	51
270.46	270.548	46	35
270.46	270.548	50	42
270.46	270.548	56	51
270.637	270.725	60	51
270.813	270.901	39	45
270.813	270.901	58	54
270.989	271.078	56	51
271.166	271.254	46	36
271.166	271.254	50	43
271.166	271.254	55	51
271.342	271.431	53	51
271.524	271.612	57	54
271.7	271.788	58	45
271.877	271.965	46	34
271.877	271.965	55	41
271.877	271.965	58	47
272.053	272.14	59	48
272.227	272.313	39	45
272.227	272.313	59	50
272.399	272.484	60	52
272.568	272.652	46	41
272.568	272.652	55	49
272.568	272.652	60	54
272.736	272.819	61	55
272.929	273.019	62	58
273.11	273.201	61	53
273.293	273.382	46	34
273.293	273.382	53	41
273.293	273.382	60	53
273.471	273.56	59	53
273.649	273.736	39	45
273.649	273.736	58	57
273.824	273.911	57	54
273.999	274.086	46	37
273.999	274.086	53	44
273.999	274.086	56	54
274.174	274.261	60	54
274.349	274.441	55	57
274.533	274.621	56	54
274.71	274.798	46	34
274.71	274.798	51	40
274.71	274.798	57	54
274.886	274.934	58	54
274.982	275.023	57	49
275.023	275.065	58	49
275.065	275.106	60	49
275.106	275.189	39	45
275.106	275.189	58	57
275.271	275.354	57	53
275.436	275.524	46	36
275.436	275.524	51	43
275.436	275.524	58	57
275.613	275.701	55	54
275.802	275.891	53	57
275.979	276.067	55	51
276.155	276.244	46	35
276.155	276.244	50	42
276.155	276.244	56	51
276.332	276.42	60	51
276.508	276.597	39	45
276.508	276.597	58	54
276.685	276.773	56	51
276.861	276.949	46	36
276.861	276.949	50	43
276.861	276.949	55	51
277.038	277.126	53	51
277.219	277.307	55	54
277.396	277.484	51	51
277.572	277.66	46	34
277.572	277.66	51	41
277.572	277.66	55	53
277.748	277.836	58	55
277.922	278.008	39	45
277.922	278.008	63	57
278.094	278.179	66	52
278.264	278.348	67	53
278.431	278.514	70	55
278.624	278.696	74	63
278.796	278.883	65	55
278.969	279.304	46	54
278.969	279.304	56	63
278.969	279.304	74	76
279.132	279.304	82	55
279.295	279.624	39	47
279.295	279.377	72	59
279.46	279.542	65	55
279.624	279.934	46	46
279.624	279.934	56	56
279.624	279.934	72	76
279.779	279.934	80	55
279.934	280.014	67	63
280.093	280.173	58	55
280.253	280.589	46	54
280.253	280.589	55	63
280.253	280.589	67	75
280.408	280.589	75	55
280.562	280.865	39	47
280.562	280.638	70	59
280.714	280.789	63	55
280.865	281.168	46	46
280.865	281.168	55	56
280.865	281.168	70	72
281.017	281.168	79	55
281.13	281.168	73	59
281.168	281.241	74	63
281.314	281.387	65	55
281.46	281.772	46	54
281.46	281.772	56	63
281.46	281.772	74	77
281.649	281.772	82	55
281.725	281.772	76	56
281.763	282.043	39	47
281.763	281.833	77	59
281.903	281.973	70	55
282.043	282.337	46	46
282.043	282.337	56	56
282.043	282.337	77	79
282.19	282.337	86	61
282.3	282.337	78	60
282.337	282.406	79	64
282.476	282.545	70	56
282.615	282.918	46	55
282.615	282.918	55	64
282.615	282.918	79	79
282.759	282.918	87	58
282.867	282.918	81	57
282.903	283.176	39	48
282.903	282.971	82	61
283.04	283.108	75	57
283.176	283.464	46	48
283.176	283.464	55	57
283.176	283.464	82	78
283.32	283.464	91	57
283.428	283.464	85	62
283.464	283.533	86	66
283.601	283.669	77	57
283.737	284.026	46	56
283.737	284.026	56	67
283.737	284.026	86	81
283.88	284.026	94	58
283.987	284.026	83	58
284.023	284.293	39	49
284.023	284.09	84	62
284.158	284.226	77	58
284.293	284.574	46	49
284.293	284.574	56	60
284.293	284.574	84	83
284.433	284.574	92	58
284.538	284.574	78	63
284.574	284.641	79	68
284.709	284.776	70	59
284.844	285.127	46	57
284.844	285.127	55	68
284.844	285.127	79	81
284.984	285.127	87	59
285.089	285.127	81	60
285.124	285.39	39	51
285.124	285.191	82	64
285.257	285.323	75	59
285.39	285.67	46	50
285.39	285.67	55	61
285.39	285.67	82	81
285.53	285.67	91	60
285.635	285.67	85	68
285.67	285.736	86	69
285.802	285.867	77	61
285.933	286.228	46	58
285.933	286.228	56	69
285.933	286.228	86	87
286.076	286.228	94	61
286.147	286.228	88	70
286.219	286.482	39	52
286.219	286.285	89	66
286.351	286.416	82	61
286.482	286.768	46	51
286.482	286.768	56	62
286.482	286.768	89	84
286.625	286.768	98	62
286.732	286.768	90	64
286.768	286.834	91	83
286.899	286.965	86	62
287.031	287.342	46	51
287.031	287.342	55	60
287.031	287.342	91	70
287.178	287.342	99	62
287.325	287.619	39	47
287.325	287.84	63	79
287.619	287.913	46	39
287.619	287.913	55	47
287.84	287.913	64	48
287.913	288.003	65	48
288.003	288.094	67	50
288.094	288.374	68	52
288.184	288.479	46	42
288.184	288.479	56	42
288.184	288.479	72	54
288.279	288.479	70	53
288.374	288.479	68	52
288.469	289.028	39	44
288.469	289.028	67	51
288.559	289.028	65	50
288.648	289.028	63	49
288.737	289.028	46	40
288.737	289.028	56	40
288.737	289.028	62	48
288.834	289.028	60	48
288.931	289.028	58	47
289.028	289.119	57	49
289.119	289.21	58	50
289.21	289.301	60	51
289.301	289.618	46	40
289.301	289.618	55	40
289.301	289.618	62	51
289.398	289.618	63	52
289.495	289.618	66	53
289.592	290.143	39	44
289.592	290.143	67	54
289.682	290.143	68	54
289.771	290.143	70	55
289.86	290.143	46	41
289.86	290.143	55	41
289.86	290.143	72	56
289.955	290.108	74	57
290.049	290.143	75	58
290.108	290.233	74	56
290.143	290.233	77	63
290.233	290.322	79	58
290.322	290.411	80	59
290.411	290.694	53	40
290.411	290.694	56	40
290.411	290.694	62	40
290.411	290.681	84	64
290.506	290.681	82	63
290.6	290.694	80	62
290.694	291.245	39	44
290.694	291.245	79	60
290.783	291.245	77	59
290.873	291.245	75	58
290.962	291.245	53	40
290.962	291.245	56	40
290.962	291.245	62	40
290.962	291.245	74	57
291.056	291.245	72	55
291.151	291.245	70	54
291.245	291.334	69	55
291.334	291.422	70	55
291.422	291.511	72	56
291.511	291.788	55	41
291.511	291.788	58	41
291.511	291.788	63	41
291.511	291.781	74	56
291.603	291.781	75	57
291.696	291.788	78	58
291.788	292.334	39	44
291.788	292.334	79	58
291.877	292.334	80	59
291.965	292.334	82	60
292.054	292.334	55	42
292.054	292.334	58	42
292.054	292.334	63	42
292.054	292.334	84	60
292.147	292.299	86	61
292.241	292.334	87	63
292.299	292.422	86	52
292.334	292.422	89	63
292.422	292.51	91	58
292.51	292.597	92	59
292.597	292.878	53	40
292.597	292.878	56	40
292.597	292.878	62	40
292.597	292.865	96	64
292.691	292.865	94	63
292.784	292.878	92	62
292.878	293.419	39	44
292.878	293.419	91	60
292.965	293.419	89	59
293.053	293.419	87	58
293.141	293.419	53	40
293.141	293.419	56	40
293.141	293.419	62	40
293.141	293.419	86	57
293.233	293.419	84	55
293.326	293.419	82	54
293.419	293.506	81	55
293.506	293.594	82	55
293.594	293.682	84	56
293.682	293.957	55	41
293.682	293.957	58	41
293.682	293.957	63	41
293.682	293.95	86	56
293.774	293.95	87	57
293.865	293.957	89	58
293.957	294.498	39	44
293.957	294.498	91	58
294.045	294.498	92	58
294.133	294.498	94	57
294.22	294.498	55	42
294.22	294.498	58	42
294.22	294.498	63	42
294.22	294.498	96	56
294.313	294.498	98	56
294.405	294.498	99	55
294.498	294.586	100	55
294.586	294.675	101	50
294.675	295.226	94	54
294.766	295.314	58	32
294.766	295.314	62	32
294.766	295.314	68	32
294.766	295.314	97	50
294.861	295.407	98	54
294.956	295.499	89	50
295.051	295.592	39	35
295.051	295.592	100	54
295.139	295.592	101	50
295.226	295.592	94	54
295.314	295.592	58	33
295.314	295.592	62	33
295.314	295.592	68	33
295.314	295.592	97	50
295.407	295.592	98	55
295.499	295.592	89	50
295.592	295.68	102	55
295.68	295.767	103	50
295.767	296.31	94	54
295.855	296.401	58	32
295.855	296.401	63	32
295.855	296.401	67	32
295.855	296.401	98	50
295.948	296.496	99	54
296.04	296.591	91	50
296.133	296.686	39	35
296.133	296.686	102	54
296.221	296.686	103	50
296.31	296.686	94	54
296.401	296.686	58	33
296.401	296.686	63	33
296.401	296.686	67	33
296.401	296.686	98	50
296.496	296.686	99	55
296.591	296.686	91	50
296.686	296.775	100	55
296.775	296.864	101	50
296.864	297.417	94	54
296.954	297.507	58	32
296.954	297.507	62	32
296.954	297.507	68	32
296.954	297.507	97	50
297.049	297.601	98	54
297.144	297.695	89	50
297.239	297.79	39	35
297.239	297.79	100	54
297.328	297.79	101	50
297.417	297.79	94	54
297.507	297.79	58	33
297.507	297.79	62	33
297.507	297.79	68	33
297.507	297.79	97	50
297.601	297.79	98	55
297.695	297.79	89	50
297.79	297.879	102	55
297.879	297.968	103	50
297.968	298.521	94	54
298.057	298.61	58	32
298.057	298.61	63	32
298.057	298.61	67	32
298.057	298.61	98	50
298.153	298.705	99	54
298.248	298.8	91	50
298.343	298.895	39	35
298.343	298.895	102	54
298.432	298.895	103	50
298.521	298.895	94	54
298.61	298.895	58	33
298.61	298.895	63	33
298.61	298.895	67	33
298.61	298.895	98	50
298.705	298.895	99	55
298.8	298.895	91	50
298.895	298.985	100	55
298.985	299.074	101	50
299.074	299.626	94	54
299.163	299.716	58	32
299.163	299.716	62	32
299.163	299.716	68	32
299.163	299.716	97	50
299.257	299.811	98	54
299.35	299.905	89	50
299.444	299.999	39	35
299.444	299.999	100	54
299.535	299.999	101	50
299.626	299.999	94	54
299.716	299.999	58	33
299.716	299.999	62	33
299.716	299.999	68	33
299.716	299.999	97	50
299.811	299.999	98	55
299.905	299.999	89	50
299.999	300.091	102	55
300.091	300.183	103	50
300.183	300.743	94	54
300.275	300.835	58	32
300.275	300.835	63	32
300.275	300.835	67	32
300.275	300.835	98	50
300.37	300.93	99	54
300.465	301.025	91	50
300.56	301.12	39	35
300.56	301.12	102	54
300.651	301.12	103	50
300.743	301.12	94	54
300.835	301.12	58	33
300.835	301.12	63	33
300.835	301.12	67	33
300.835	301.12	98	50
300.93	301.12	99	55
301.025	301.12	91	50
301.12	301.212	100	55
301.212	301.304	101	50
301.304	301.864	94	54
301.395	301.956	58	32
301.395	301.956	62	32
301.395	301.956	68	32
301.395	301.956	97	50
301.49	302.05	98	54
301.585	302.144	89	50
301.68	302.239	39	35
301.68	302.239	100	54
301.772	302.239	101	50
301.864	302.239	94	54
301.956	302.239	58	33
301.956	302.239	62	33
301.956	302.239	68	33
301.956	302.239	97	50
302.05	302.239	98	55
302.144	302.239	89	50
302.239	302.353	93	50
302.239	302.353	102	50
302.311	302.457	94	55
302.311	302.457	103	55
302.785	303.604	58	32
302.821	303.604	39	33
302.821	303.047	66	47
302.821	303.047	74	47
302.899	303.055	67	52
302.899	303.055	75	52
303.405	304.35	41	30
303.444	304.35	56	33
303.444	303.604	77	45
303.444	303.604	86	45
303.54	303.732	80	51
303.54	303.732	89	51
304.163	304.969	43	30
304.211	304.969	59	33
304.211	304.35	62	46
304.211	304.35	71	46
304.32	304.536	65	52
304.32	304.536	74	52
304.969	306.336	48	33
305.024	306.336	55	33
305.078	306.336	63	33
305.078	305.251	72	36
305.167	305.333	74	33
305.251	305.415	72	37
305.333	305.495	74	33
305.415	305.575	72	37
305.495	305.654	74	33
305.575	305.731	72	37
305.654	305.806	74	33
305.731	305.881	72	37
305.806	305.957	74	33
305.881	306.033	72	37
305.957	306.109	74	33
306.033	306.185	72	37
306.109	306.26	74	33
306.185	306.336	72	37
306.26	306.336	74	33
306.336	307.573	71	38
306.412	307.573	72	33
306.489	306.642	74	34
306.565	306.718	75	34
306.642	307.573	74	41
306.718	307.573	75	36
306.793	306.944	78	37
306.869	307.019	79	44
306.944	307.573	78	38
307.019	307.573	79	39
307.094	307.243	83	39
307.169	307.317	84	40
307.243	307.573	83	47
307.317	307.573	84	42
307.391	307.539	86	42
307.465	307.573	87	43
307.539	308.734	86	51
307.612	308.734	87	45
307.685	307.832	90	45
307.759	307.905	91	54
307.832	308.734	90	47
307.905	308.734	91	47
307.979	308.125	95	48
308.052	308.198	96	49
308.125	308.734	95	57
308.198	308.734	96	50
308.271	308.418	98	51
308.344	308.492	99	52
308.418	308.734	98	61
308.492	308.734	99	53
308.566	308.734	102	54
308.65	308.734	103	65
308.734	309.171	95	61
308.807	309.243	96	53
308.881	310.518	98	53
308.953	310.518	99	53
309.026	309.457	90	54
309.099	309.529	91	48
309.171	310.518	95	49
309.243	310.518	96	49
309.314	309.748	86	51
309.385	309.829	87	45
309.457	310.518	90	45
309.529	310.518	91	45
309.602	310.056	83	47
309.674	310.13	84	42
309.748	310.518	86	42
309.829	310.518	87	43
309.91	310.35	78	44
309.983	310.432	79	39
310.056	310.518	83	40
310.13	310.518	84	40
310.203	310.518	74	40
310.276	310.518	75	36
310.35	310.518	78	37
310.432	310.518	79	36
310.515	310.951	71	41
310.588	311.022	72	38
310.661	311.236	74	40
310.734	311.308	75	41
310.807	311.724	66	43
310.879	311.724	67	44
310.951	311.093	71	46
311.022	311.164	72	47
311.093	311.688	71	49
311.164	311.724	72	49
311.236	311.381	74	51
311.308	311.454	75	53
311.381	311.724	74	55
311.454	311.724	75	57
311.528	311.724	78	59
311.612	311.724	79	61
311.688	311.762	71	41
311.762	312.196	72	38
311.835	312.409	74	40
311.908	312.481	75	41
311.98	312.866	66	43
312.052	312.866	67	44
312.124	312.267	71	46
312.196	312.338	72	47
312.267	312.864	71	49
312.338	312.866	72	49
312.409	312.553	74	51
312.481	312.627	75	53
312.553	312.866	74	55
312.627	312.866	75	57
312.7	312.866	78	59
312.782	312.866	79	61
312.864	313.301	71	54
312.937	313.374	72	49
313.009	314.083	74	47
313.082	314.083	75	47
313.155	313.592	66	47
313.228	313.666	67	53
313.301	313.887	71	45
313.374	313.961	72	45
313.446	314.083	62	50
313.519	314.083	63	41
313.592	313.739	66	41
313.666	313.813	67	41
313.739	314.083	66	46
313.813	314.083	67	43
313.887	314.083	71	43
313.961	314.083	72	43
314.035	317.802	44	43
314.087	317.802	53	43
314.138	317.802	60	43
314.189	317.802	65	43
314.241	317.802	72	43
314.3	314.688	77	43
314.592	315.976	76	43
314.688	314.876	77	42
314.783	314.946	79	43
314.876	315.015	77	48
314.946	315.084	79	43
315.015	315.152	77	47
315.084	315.22	79	43
315.152	315.289	77	47
315.22	315.357	79	43
315.289	315.425	77	50
315.357	315.493	79	43
315.425	315.561	77	49
315.493	315.629	79	43
315.561	315.697	77	48
315.629	315.766	79	43
315.697	315.836	77	46
315.766	315.906	79	43
315.836	316.263	77	49
315.906	317.49	79	43
315.976	317.802	76	47
316.263	317.784	77	47
316.551	317.802	86	58
316.677	317.802	85	56
316.806	317.802	84	55
316.937	317.802	83	54
317.071	317.802	82	53
317.208	317.802	81	52
317.351	317.802	80	51
317.49	317.802	79	50
317.641	317.802	78	49
317.784	317.957	77	49
317.957	318.153	71	48
318.153	318.363	72	46
318.363	318.616	77	45
318.616	318.889	76	44
318.889	319.097	75	43
319.097	319.275	75	43
319.275	321.646	46	37
319.351	321.646	53	38
319.426	321.646	58	39
319.501	321.646	62	47
319.577	321.646	68	49
319.68	321.646	74	51
321.646	321.837	34	35
321.646	321.837	62	46
321.71	321.837	68	50
321.773	321.837	77	58
322.156	322.238	39	43
322.156	322.238	67	47
322.156	322.238	75	56
322.32	322.402	70	41
322.32	322.402	77	49
322.483	322.565	46	46
322.483	322.565	75	42
322.483	322.565	79	50
322.647	322.734	77	37
322.647	322.734	80	44
322.778	322.822	84	56
322.822	322.903	55	51
322.822	322.903	79	42
322.822	322.903	82	50
323.067	323.149	78	38
323.067	323.149	81	45
323.149	323.23	63	68
323.149	323.23	79	50
323.149	323.23	82	59
323.476	323.555	56	68
323.634	323.713	63	51
323.634	323.713	72	51
323.792	323.875	68	37
323.792	323.875	72	44
323.957	324.04	75	43
323.957	324.04	84	51
324.113	324.197	75	51
324.113	324.197	84	60
324.28	324.358	79	55
324.28	324.358	83	55
324.437	324.515	80	54
324.437	324.515	84	64
324.77	324.849	55	68
324.929	325.008	63	51
324.929	325.008	70	51
325.087	325.169	67	37
325.087	325.169	70	44
325.252	325.334	75	43
325.252	325.334	82	51
325.408	325.491	75	51
325.408	325.491	82	60
325.574	325.653	78	55
325.574	325.653	81	55
325.731	325.81	79	54
325.731	325.81	82	64
326.065	326.144	53	68
326.223	326.302	62	51
326.223	326.302	68	51
326.381	326.464	65	37
326.381	326.464	68	44
326.546	326.629	74	43
326.546	326.629	80	51
326.703	326.786	74	51
326.703	326.786	80	60
326.869	326.947	76	55
326.869	326.947	79	55
327.026	327.104	77	54
327.026	327.104	80	64
327.359	327.439	51	68
327.519	327.599	63	51
327.519	327.599	67	51
327.679	327.762	63	37
327.679	327.762	67	44
327.844	327.927	75	43
327.844	327.927	79	51
328.0	328.084	75	51
328.0	328.084	79	60
328.167	328.245	74	55
328.167	328.245	78	55
328.324	328.402	75	54
328.324	328.402	79	64
328.657	328.741	46	48
328.657	328.741	72	44
328.657	328.741	80	52
328.825	328.909	70	39
328.825	328.909	79	47
328.992	329.076	62	42
328.992	329.076	68	39
328.992	329.076	77	47
329.16	329.248	67	39
329.16	329.248	75	47
329.335	329.419	46	47
329.335	329.419	65	44
329.335	329.419	74	52
329.503	329.586	62	38
329.503	329.586	70	45
329.67	329.759	56	40
329.67	329.759	63	38
329.67	329.759	72	45
329.848	329.937	65	38
329.848	329.937	74	45
330.026	330.108	39	43
330.026	330.108	67	47
330.026	330.108	75	56
330.19	330.271	70	41
330.19	330.271	77	49
330.353	330.435	46	46
330.353	330.435	75	42
330.353	330.435	79	50
330.517	330.604	77	37
330.517	330.604	80	44
330.648	330.692	84	56
330.692	330.773	55	51
330.692	330.773	79	42
330.692	330.773	82	50
330.855	330.937	78	38
330.855	330.937	81	45
331.019	331.1	63	68
331.019	331.1	79	50
331.019	331.1	82	59
331.346	331.426	68	68
331.507	331.588	75	51
331.507	331.588	84	51
331.668	331.743	80	37
331.668	331.743	84	44
331.818	331.894	87	43
331.818	331.894	96	51
331.97	332.053	87	51
331.97	332.053	96	60
332.136	332.214	91	55
332.136	332.214	95	55
332.292	332.37	92	54
332.292	332.37	96	64
332.625	332.707	67	68
332.79	332.872	75	51
332.79	332.872	82	51
332.954	333.029	79	37
332.954	333.029	82	44
333.104	333.179	87	43
333.104	333.179	94	51
333.254	333.338	87	51
333.254	333.338	94	60
333.421	333.498	90	55
333.421	333.498	93	55
333.575	333.653	91	54
333.575	333.653	94	64
333.906	333.987	65	68
334.068	334.148	74	51
334.068	334.148	80	51
334.229	334.304	77	37
334.229	334.304	80	44
334.379	334.454	86	43
334.379	334.454	92	51
334.529	334.612	86	51
334.529	334.612	92	60
334.695	334.774	88	55
334.695	334.774	91	55
334.852	334.931	89	54
334.852	334.931	92	64
335.186	335.266	63	68
335.347	335.428	75	51
335.347	335.428	79	51
335.508	335.583	75	37
335.508	335.583	79	44
335.658	335.733	87	43
335.658	335.733	91	51
335.808	335.891	87	51
335.808	335.891	91	60
335.975	336.053	86	55
335.975	336.053	90	55
336.132	336.21	87	54
336.132	336.21	91	64
336.465	336.546	58	48
336.465	336.546	84	44
336.465	336.546	92	52
336.626	336.707	82	39
336.626	336.707	91	47
336.788	336.868	74	42
336.788	336.868	80	39
336.788	336.868	89	47
336.949	337.036	79	39
336.949	337.036	87	47
337.124	337.204	58	47
337.124	337.204	77	44
337.124	337.204	86	52
337.285	337.365	74	38
337.285	337.365	82	45
337.446	337.531	68	40
337.446	337.531	75	38
337.446	337.531	84	45
337.616	337.701	77	38
337.616	337.701	86	45
337.786	337.865	51	43
337.786	337.865	79	47
337.786	337.865	87	56
337.945	338.024	82	41
337.945	338.024	89	49
338.104	338.183	58	41
338.104	338.183	87	42
338.104	338.183	91	50
338.263	338.345	89	37
338.263	338.345	92	44
338.427	338.506	67	48
338.427	338.506	91	42
338.427	338.506	94	50
338.585	338.664	90	38
338.585	338.664	93	45
338.742	338.821	75	51
338.742	338.821	92	50
338.742	338.821	96	50
338.9	338.984	91	38
338.9	338.984	94	45
339.068	339.149	58	48
339.068	339.149	84	44
339.068	339.149	92	52
339.231	339.312	82	39
339.231	339.312	91	47
339.393	339.474	74	42
339.393	339.474	80	39
339.393	339.474	89	47
339.556	339.64	79	40
339.556	339.64	87	48
339.724	339.804	58	48
339.724	339.804	77	45
339.724	339.804	86	54
339.885	339.966	74	39
339.885	339.966	82	47
340.046	340.127	68	42
340.046	340.127	75	40
340.046	340.127	84	48
340.207	340.288	77	41
340.207	340.288	86	48
340.368	340.445	51	46
340.368	340.445	79	51
340.368	340.445	87	61
340.522	340.598	82	45
340.522	340.598	89	53
340.675	340.752	58	46
340.675	340.752	87	46
340.675	340.752	91	55
340.828	340.909	89	41
340.828	340.909	92	49
340.989	341.066	67	51
340.989	341.066	91	47
340.989	341.066	94	57
341.144	341.221	90	43
341.144	341.221	93	51
341.298	341.375	75	57
341.298	341.375	92	58
341.298	341.375	96	58
341.452	341.529	91	44
341.452	341.529	94	52
341.606	341.686	58	57
341.606	341.686	84	52
341.606	341.686	92	61
341.765	341.845	82	46
341.765	341.845	91	56
341.925	342.004	65	43
341.925	342.004	74	50
341.925	342.004	80	47
341.925	342.004	89	56
342.084	342.171	79	47
342.084	342.171	87	57
342.259	342.342	77	54
342.259	342.342	86	63
342.594	342.755	56	41
342.594	342.755	68	49
342.594	342.755	70	51
342.594	342.755	82	60
342.755	342.916	55	41
342.755	342.916	67	49
342.755	342.916	71	51
342.755	342.916	83	60
342.916	343.076	54	48
342.916	343.076	66	57
342.916	343.076	72	53
342.916	343.076	84	63
343.076	343.237	53	44
343.076	343.237	65	52
343.076	343.237	73	49
343.076	343.237	85	58
343.237	343.398	52	44
343.237	343.398	64	52
343.237	343.398	74	49
343.237	343.398	86	58
343.398	343.559	51	44
343.398	343.559	63	52
343.398	343.559	75	49
343.398	343.559	87	58
343.559	343.72	50	49
343.559	343.72	62	58
343.559	343.72	74	53
343.559	343.72	86	63
343.72	343.881	49	45
343.72	343.881	61	53
343.72	343.881	75	50
343.72	343.881	87	59
343.881	344.042	48	45
343.881	344.042	60	53
343.881	344.042	76	50
343.881	344.042	88	59
344.042	344.201	47	45
344.042	344.201	59	53
344.042	344.201	77	50
344.042	344.201	89	59
344.201	344.357	46	50
344.201	344.357	58	59
344.201	344.357	76	58
344.201	344.357	88	69
344.357	344.513	45	45
344.357	344.513	57	54
344.357	344.513	77	52
344.357	344.513	89	62
344.513	344.669	44	46
344.513	344.669	56	55
344.513	344.669	78	52
344.513	344.669	90	62
344.669	344.825	43	46
344.669	344.825	55	55
344.669	344.825	79	52
344.669	344.825	91	62
344.825	344.981	42	46
344.825	344.981	54	55
344.825	344.981	78	59
344.825	344.981	90	70
344.981	345.137	41	53
344.981	345.137	53	63
344.981	345.137	79	54
344.981	345.137	91	64
345.137	345.293	40	48
345.137	345.293	52	57
345.137	345.293	80	54
345.137	345.293	92	64
345.293	346.068	39	48
345.293	346.068	51	57
345.293	345.602	81	54
345.293	345.602	93	64
345.449	346.068	38	56
345.449	346.068	50	66
345.449	346.068	80	62
345.449	346.068	92	74
345.602	346.068	37	50
345.602	346.068	49	59
345.602	346.068	81	53
345.602	346.068	93	63
345.755	346.068	36	51
345.755	346.068	48	60
345.755	346.057	82	54
345.755	346.057	94	64
345.906	346.068	35	51
345.906	346.068	47	60
345.906	346.068	83	54
345.906	346.068	95	64
346.057	346.722	34	59
346.057	346.722	46	71
346.057	346.722	82	64
346.057	346.722	94	75
346.212	346.722	83	59
346.212	346.722	95	71
346.374	346.722	33	60
346.374	346.722	45	72
346.374	346.722	84	64
346.374	346.722	96	77
346.536	346.722	85	69
346.536	346.722	97	82
346.722	347.453	32	66
346.722	347.453	44	78
346.722	347.076	86	79
346.722	347.076	94	79
346.722	347.076	98	93
347.076	347.453	53	59
347.076	347.453	60	59
347.076	347.453	65	70
347.076	347.453	86	72
347.076	347.453	94	72
347.076	347.453	98	85
347.407	348.07	34	66
347.407	348.07	46	78
347.407	347.734	84	79
347.407	347.734	92	79
347.407	347.734	96	93
347.734	348.07	53	60
347.734	348.07	62	60
347.734	348.07	65	71
347.734	348.07	84	74
347.734	348.07	92	74
347.734	348.07	96	88
348.057	348.698	39	66
348.057	348.698	51	78
348.057	349.398	79	78
348.057	349.398	87	78
348.057	348.367	91	92
348.367	349.008	55	60
348.367	349.008	63	60
348.367	349.008	67	71
348.367	348.698	82	70
348.367	348.698	91	70
348.367	348.698	94	83
348.698	349.398	39	66
348.698	349.398	51	78
348.698	349.008	82	74
348.698	349.008	91	74
348.698	349.008	94	89
348.853	349.398	81	67
348.853	349.398	90	67
348.853	349.398	93	79
349.008	349.398	55	60
349.008	349.398	63	60
349.008	349.398	67	71
349.008	349.398	82	74
349.008	349.398	91	74
349.008	349.398	94	88
349.342	349.978	41	66
349.342	349.978	53	78
349.342	349.978	77	69
349.342	349.978	89	82
349.499	349.978	79	68
349.499	349.978	91	81
349.656	349.978	56	60
349.656	349.978	60	60
349.656	349.978	65	71
349.656	349.978	80	68
349.656	349.978	92	81
349.812	349.978	84	68
349.812	349.978	96	81
349.969	350.595	34	66
349.969	350.595	46	78
349.969	350.595	82	70
349.969	350.595	94	83
350.126	350.595	80	68
350.126	350.595	92	80
350.282	350.595	56	60
350.282	350.595	62	60
350.282	350.595	65	71
350.282	350.595	79	68
350.282	350.595	91	81
350.439	350.595	77	68
350.439	350.595	89	81
350.595	351.233	39	66
350.595	351.233	51	78
350.595	351.887	79	78
350.595	351.887	87	92
350.595	350.902	91	92
350.902	351.543	55	60
350.902	351.543	63	60
350.902	351.543	67	71
350.902	351.233	82	70
350.902	351.233	91	83
350.902	351.233	94	83
351.15	351.887	81	67
351.15	351.887	90	79
351.15	351.887	93	79
351.233	351.887	39	66
351.233	351.887	51	78
351.233	351.887	82	74
351.233	351.887	91	89
351.233	351.874	94	89
351.543	351.887	55	60
351.543	351.887	63	60
351.543	351.887	67	71
351.874	352.574	32	66
351.874	352.574	44	78
351.874	352.228	86	79
351.874	352.228	94	79
351.874	352.228	98	93
352.228	352.574	53	59
352.228	352.574	60	59
352.228	352.574	65	70
352.228	352.574	86	72
352.228	352.574	94	72
352.228	352.574	98	85
352.566	353.266	34	66
352.566	353.266	46	78
352.566	352.907	84	79
352.566	352.907	92	79
352.566	352.907	96	93
352.907	353.266	53	60
352.907	353.266	62	60
352.907	353.266	65	71
352.907	353.266	84	74
352.907	353.266	92	74
352.907	353.266	96	88
353.253	353.894	39	66
353.253	353.894	51	78
353.253	354.612	79	78
353.253	354.612	87	78
353.253	353.567	91	92
353.567	354.207	55	60
353.567	354.207	63	60
353.567	354.207	67	71
353.567	353.894	82	70
353.567	353.894	91	70
353.567	353.894	94	83
353.894	354.612	39	66
353.894	354.612	51	78
353.894	354.207	82	74
353.894	354.207	91	74
353.894	354.207	94	89
354.05	354.612	81	67
354.05	354.612	90	67
354.05	354.612	93	79
354.207	354.612	55	60
354.207	354.612	63	60
354.207	354.612	67	71
354.207	354.612	82	74
354.207	354.612	91	74
354.207	354.612	94	88
354.554	355.217	41	66
354.554	355.217	53	78
354.554	355.217	77	61
354.554	354.881	80	61
354.554	355.217	89	72
354.717	355.217	79	62
354.717	355.208	82	62
354.717	355.217	91	74
354.881	355.217	56	60
354.881	355.217	60	60
354.881	355.217	65	71
354.881	355.217	80	64
354.881	355.217	83	64
354.881	355.217	92	77
355.044	355.217	81	67
355.044	355.217	93	79
355.047	355.217	84	67
355.208	355.834	34	66
355.208	355.834	46	78
355.208	355.834	82	68
355.208	355.834	85	68
355.208	355.834	94	81
355.364	355.834	83	70
355.364	355.678	86	70
355.364	355.834	95	83
355.521	355.834	56	60
355.521	355.834	62	60
355.521	355.834	65	71
355.521	355.834	84	72
355.521	355.834	87	72
355.521	355.834	96	85
355.678	355.834	86	73
355.678	355.834	89	73
355.678	355.834	98	86
355.834	356.979	39	66
355.834	356.979	51	78
355.834	355.916	87	74
355.834	355.916	91	74
355.834	355.916	99	89
356.161	356.815	55	60
356.161	356.815	58	60
356.161	356.815	63	60
356.161	356.815	67	71
356.161	356.815	75	68
356.161	356.815	79	68
356.161	356.815	87	81
356.815	356.979	55	54
356.815	356.979	58	54
356.815	356.979	63	54
356.815	356.979	67	63
356.815	356.979	75	61
356.815	356.979	79	61
356.815	356.979	87	72
357.142	357.299	51	36
357.142	357.299	56	36
357.142	357.299	58	43
357.142	357.299	62	51
357.142	357.221	65	63
357.299	357.377	67	59
357.456	358.064	51	33
357.456	358.064	56	33
357.456	358.064	58	39
357.456	358.064	62	52
357.456	357.534	68	59
357.612	357.691	72	59
357.769	357.843	70	64
357.916	357.99	68	55
358.064	358.219	51	33
358.064	358.219	56	33
358.064	358.219	58	39
358.064	358.219	62	50
358.064	358.141	67	56
358.219	358.296	65	57
358.374	358.447	51	51
358.374	358.447	61	51
358.374	358.447	67	53
358.374	358.447	70	63
358.632	358.669	72	57
358.669	359.259	51	33
358.669	359.259	61	39
358.669	358.744	67	53
358.669	358.744	70	63
358.894	358.969	66	47
358.894	358.969	69	56
358.969	359.582	67	52
358.969	359.582	70	62
359.259	359.42	51	40
359.259	359.42	61	43
359.582	359.735	51	36
359.582	359.735	56	43
359.582	359.735	60	51
359.582	359.659	65	63
359.735	359.812	67	59
359.889	360.479	51	33
359.889	360.479	56	39
359.889	360.479	60	52
359.889	359.963	68	59
360.036	360.11	72	59
360.184	360.257	70	64
360.331	360.405	68	55
360.479	360.634	51	33
360.479	360.634	59	43
360.479	360.634	62	50
360.479	360.556	67	56
360.634	360.711	65	57
360.789	360.873	51	51
360.789	360.873	58	51
360.789	360.873	63	53
360.789	360.873	67	63
361.127	361.703	51	33
361.127	361.703	55	39
361.127	361.703	58	46
361.127	361.703	63	52
361.672	361.725	54	37
361.672	361.725	62	46
361.703	361.854	51	40
361.703	361.854	55	43
361.703	361.854	58	53
361.703	361.854	63	63
362.004	362.151	39	43
362.004	362.078	65	53
362.004	362.078	77	63
362.151	362.225	67	50
362.151	362.225	79	59
362.299	362.888	46	33
362.299	362.888	50	33
362.299	362.888	56	39
362.299	362.741	68	50
362.299	362.741	80	59
362.446	363.183	72	50
362.446	363.183	84	59
362.594	363.183	70	54
362.594	363.183	82	64
362.741	363.183	68	46
362.741	363.183	80	55
362.888	363.183	46	33
362.888	363.183	50	33
362.888	363.183	56	39
362.888	363.183	67	47
362.888	363.183	79	56
363.036	363.183	65	48
363.036	363.183	77	57
363.183	363.254	39	51
363.183	363.254	70	53
363.183	363.254	82	63
363.432	364.41	84	57
363.467	364.057	49	33
363.467	364.057	55	33
363.467	364.057	58	39
363.467	363.768	70	53
363.467	363.768	82	63
363.693	364.41	69	47
363.693	364.41	81	56
363.768	364.41	70	52
363.768	364.41	82	62
364.057	364.41	49	40
364.057	364.41	55	40
364.057	364.41	58	43
364.38	364.534	39	43
364.38	364.457	65	53
364.38	364.457	77	63
364.534	364.611	67	50
364.534	364.611	79	59
364.687	365.277	48	33
364.687	365.277	51	33
364.687	365.277	56	39
364.687	365.129	68	50
364.687	365.129	80	59
364.835	365.26	72	50
364.835	365.26	84	59
364.982	365.26	70	54
364.982	365.26	82	64
365.129	365.26	68	46
365.129	365.26	80	55
365.277	365.432	47	33
365.277	365.432	51	33
365.277	365.432	56	43
365.277	365.354	67	47
365.277	365.354	79	56
365.432	365.509	65	48
365.432	365.509	77	57
365.587	365.671	39	51
365.587	365.671	67	53
365.587	365.671	79	63
365.925	366.502	46	33
365.925	366.502	55	39
365.925	366.502	63	46
365.925	366.502	75	52
366.47	366.525	74	46
366.502	366.663	46	40
366.502	366.663	55	43
366.502	366.663	63	53
366.502	366.663	75	63
366.776	366.808	66	36
366.808	366.892	43	32
366.808	366.892	50	40
366.808	366.892	59	42
366.808	366.892	67	50
367.146	367.744	48	26
367.146	367.744	55	31
367.146	367.744	60	36
367.146	367.723	63	41
367.691	367.744	62	36
367.723	367.873	44	32
367.723	367.873	51	34
367.723	367.873	59	42
367.723	367.873	63	50
368.023	368.961	39	40
368.023	368.961	79	42
368.023	368.961	91	50
368.361	368.938	46	26
368.361	368.938	55	31
368.361	368.938	75	36
368.361	368.938	87	41
368.907	368.961	86	36
368.938	369.1	46	32
368.938	369.1	55	34
368.938	369.1	75	42
368.938	369.1	87	50
369.213	369.244	66	36
369.244	369.329	43	32
369.244	369.329	50	40
369.244	369.329	59	42
369.244	369.329	67	50
369.582	370.181	48	26
369.582	370.181	55	31
369.582	370.181	60	36
369.582	370.159	63	41
370.128	370.181	62	36
370.159	370.316	44	32
370.159	370.316	51	34
370.159	370.316	59	42
370.159	370.316	63	50
370.472	370.563	39	32
370.472	370.563	51	40
370.472	370.563	55	42
370.472	370.563	58	42
370.472	370.563	67	50
370.835	371.47	36	26
370.835	371.47	48	31
370.835	371.47	55	36
370.835	371.47	60	36
370.835	371.447	63	41
371.416	371.47	62	36
371.447	371.605	32	32
371.447	371.605	44	34
371.447	371.605	56	42
371.447	371.605	59	42
371.447	371.605	63	50
371.764	371.854	39	32
371.764	371.854	51	40
371.764	371.854	55	42
371.764	371.854	58	42
371.764	371.854	67	50
372.126	372.76	36	26
372.126	372.76	48	31
372.126	372.76	55	36
372.126	372.76	60	36
372.126	372.735	63	41
372.703	372.76	62	36
372.735	372.912	32	32
372.735	372.912	44	34
372.735	372.912	56	42
372.735	372.912	59	42
372.735	372.912	63	50
373.089	373.786	39	33
373.089	373.786	51	39
373.089	373.765	55	39
373.089	373.786	58	39
373.089	373.786	67	46
373.765	374.441	36	22
373.765	374.441	48	31
373.765	374.441	55	33
373.765	374.441	60	33
373.765	374.441	63	39
375.066	375.1	62	36
375.1	375.776	32	22
375.1	375.776	44	31
375.1	375.691	56	33
375.1	375.691	59	33
375.1	375.691	63	39
375.691	376.849	55	37
375.734	376.994	63	39
375.776	376.994	27	22
375.776	376.994	39	31
375.776	376.994	70	40
376.114	376.994	43	31
376.271	376.994	44	30
376.415	376.994	45	30
376.56	376.994	46	30
376.704	376.994	51	30
376.849	376.994	55	30
376.994	377.137	56	30
377.137	377.279	57	30
377.279	377.421	58	30
377.421	377.562	63	28
377.562	377.701	67	28
377.701	377.839	68	27
377.839	377.977	69	26
377.977	379.614	70	25
378.113	379.614	75	27
378.249	379.614	79	27
378.384	379.614	80	27
378.519	379.614	81	27
378.655	379.614	82	27
378.792	379.614	87	27
378.931	379.614	91	27
379.071	379.614	92	27
379.213	379.614	93	27
379.357	379.614	94	27
379.502	379.65	99	33
381.604	381.961	46	61
381.604	381.961	58	72
381.604	381.961	70	81
381.604	381.961	82	96
381.961	382.026	46	57
381.961	382.026	58	68
381.961	382.026	70	77
381.961	382.026	82	91
382.133	382.198	46	57
382.133	382.198	58	68
382.133	382.198	70	77
382.133	382.198	82	91
382.306	382.854	51	63
382.306	382.854	63	75
382.306	382.854	75	85
382.306	382.854	87	101
382.854	382.923	51	55
382.854	382.923	63	66
382.854	382.923	75	74
382.854	382.923	87	89
383.037	383.373	49	58
383.037	383.373	61	69
383.037	383.373	73	79
383.037	383.373	85	93
383.205	383.373	47	58
383.205	383.373	59	69
383.205	383.373	71	79
383.205	383.373	83	93
383.373	383.438	46	57
383.373	383.438	58	68
383.373	383.438	70	78
383.373	383.438	82	92
383.547	383.612	44	61
383.547	383.612	56	72
383.547	383.612	68	81
383.547	383.612	80	96
383.721	383.79	46	60
383.721	383.79	58	70
383.721	383.79	70	80
383.721	383.79	82	94
383.904	383.973	39	56
383.904	383.973	51	67
383.904	383.973	63	75
383.904	383.973	75	90
384.087	384.871	39	56
384.087	384.871	51	67
384.087	384.498	63	75
384.087	384.871	75	90
384.498	384.864	63	51
384.498	384.862	67	57
384.498	384.862	70	68
384.862	384.927	61	40
384.862	384.927	67	54
384.862	384.927	70	64
384.864	384.929	63	48
385.034	385.099	61	40
385.034	385.099	63	48
385.034	385.099	67	54
385.034	385.099	70	64
385.207	385.749	59	45
385.207	385.749	63	53
385.207	385.749	66	60
385.207	385.749	75	71
385.749	385.817	59	39
385.749	385.817	63	46
385.749	385.817	66	52
385.749	385.817	75	62
385.93	386.121	58	49
385.93	386.121	63	55
385.93	386.121	67	56
385.93	386.121	73	66
386.097	386.16	61	49
386.097	386.16	70	66
386.265	386.33	56	48
386.265	386.439	63	55
386.265	386.33	71	65
386.439	386.505	59	51
386.439	386.505	68	68
386.616	386.685	55	50
386.616	386.798	63	56
386.616	386.685	70	67
386.8	386.869	58	47
386.8	386.869	63	63
386.984	387.392	63	57
387.392	387.748	63	51
387.392	387.748	67	57
387.392	387.748	70	68
387.753	387.818	61	40
387.753	387.818	67	54
387.753	387.818	70	64
387.756	387.82	63	48
387.926	387.99	61	40
387.926	387.99	63	48
387.926	387.99	67	54
387.926	387.99	70	64
388.098	388.637	59	45
388.098	388.637	63	53
388.098	388.648	66	60
388.098	388.637	75	71
388.452	388.648	67	60
388.637	388.704	59	39
388.637	388.704	63	46
388.637	388.704	68	52
388.637	388.704	75	62
388.817	388.996	58	49
388.817	388.996	64	56
388.817	388.996	68	56
388.817	388.996	73	66
388.984	389.047	61	49
388.984	389.047	71	66
389.152	389.22	51	48
389.152	389.333	61	55
389.152	389.333	67	55
389.152	389.22	70	65
389.333	389.4	55	51
389.333	389.4	63	68
389.513	389.56	56	43
389.513	389.583	59	52
389.513	389.583	63	58
389.513	389.583	68	70
389.699	389.768	59	49
389.699	389.768	63	66
389.884	390.161	56	47
389.884	390.161	59	56
389.884	390.161	63	60
389.884	390.161	68	70
390.254	390.606	46	61
390.254	390.606	58	72
390.254	390.606	70	81
390.254	390.606	82	96
390.611	390.676	46	57
390.611	390.676	58	68
390.611	390.676	70	77
390.611	390.676	82	91
390.784	390.848	46	57
390.784	390.848	58	68
390.784	390.848	70	77
390.784	390.848	82	91
390.956	391.505	51	63
390.956	391.505	63	75
390.956	391.505	75	85
390.956	391.505	87	101
391.505	391.573	51	55
391.505	391.573	63	66
391.505	391.573	75	74
391.505	391.573	87	89
391.688	392.025	49	58
391.688	392.025	61	69
391.688	392.025	73	79
391.688	392.025	85	93
391.856	392.025	47	58
391.856	392.025	59	69
391.856	392.025	71	79
391.856	392.025	83	93
392.025	392.09	46	57
392.025	392.09	58	68
392.025	392.09	70	78
392.025	392.09	82	92
392.199	392.265	44	61
392.199	392.265	56	72
392.199	392.265	68	81
392.199	392.265	80	96
392.374	392.443	46	60
392.374	392.443	58	70
392.374	392.443	70	80
392.374	392.443	82	94
392.559	392.628	39	56
392.559	392.628	51	67
392.559	392.628	63	75
392.559	392.628	75	90
392.744	393.155	39	56
392.744	393.155	51	67
392.744	393.155	63	75
392.744	393.155	75	90
393.155	393.509	63	51
393.155	393.509	67	57
393.155	393.509	70	68
393.519	393.583	61	40
393.519	393.583	67	54
393.519	393.583	70	64
393.521	393.585	63	48
393.691	393.756	61	40
393.691	393.756	63	48
393.691	393.756	67	54
393.691	393.756	70	64
393.863	394.406	59	45
393.863	394.406	63	53
393.863	394.406	66	60
393.863	394.406	75	71
394.406	394.473	59	39
394.406	394.473	63	46
394.406	394.473	66	52
394.406	394.473	75	62
394.586	394.778	58	49
394.586	394.778	63	55
394.586	394.778	67	56
394.586	394.778	73	66
394.754	394.817	61	49
394.754	394.817	70	66
394.922	394.987	56	48
394.922	395.096	63	55
394.922	394.987	71	65
395.096	395.161	59	51
395.096	395.161	68	68
395.27	395.339	55	50
395.27	395.452	63	56
395.27	395.339	70	67
395.453	395.522	58	47
395.453	395.522	63	63
395.636	396.044	63	57
396.044	396.408	63	51
396.044	396.406	67	57
396.044	396.406	70	68
396.406	396.469	61	40
396.406	396.469	67	54
396.406	396.469	70	64
396.408	396.471	63	48
396.573	396.636	61	40
396.573	396.636	63	48
396.573	396.636	67	54
396.573	396.636	70	64
396.741	397.282	59	45
396.741	397.282	63	53
396.741	397.293	66	60
396.741	397.282	75	71
397.093	397.293	67	60
397.282	397.351	59	39
397.282	397.351	63	46
397.282	397.351	68	52
397.282	397.351	75	62
397.466	397.651	58	49
397.466	397.651	64	56
397.466	397.651	68	56
397.466	397.651	73	66
397.639	397.703	61	49
397.639	397.703	71	66
397.811	397.882	51	48
397.811	398.0	61	55
397.811	398.0	67	55
397.811	397.882	70	65
398.0	398.07	55	51
398.0	398.07	63	68
398.188	398.237	56	43
398.188	398.261	59	52
398.188	398.382	63	58
398.188	398.261	68	70
398.383	398.456	59	49
398.383	398.456	63	66
398.578	398.87	56	47
398.578	398.87	59	56
398.578	398.87	63	60
398.578	398.87	68	70
398.968	399.063	63	55
399.158	399.252	65	49
399.347	399.442	67	48
399.537	399.632	68	47
399.703	400.109	39	33
399.727	400.109	55	41
399.727	400.097	61	51
399.727	400.109	63	51
399.727	400.097	70	60
399.917	400.109	51	37
400.097	400.183	61	44
400.097	400.183	70	52
400.27	400.368	63	44
400.27	400.368	72	52
400.442	400.836	44	32
400.466	400.705	56	43
400.466	400.705	60	49
400.466	400.705	63	49
400.466	400.705	68	58
400.651	400.744	51	35
400.836	400.929	63	42
401.022	401.114	56	36
401.184	401.582	39	33
401.207	401.582	55	41
401.207	401.57	61	51
401.207	401.582	63	51
401.207	401.57	70	60
401.392	401.582	51	37
401.57	401.655	61	44
401.57	401.655	70	52
401.741	401.837	63	44
401.741	401.837	72	52
401.908	402.302	44	32
401.932	402.171	56	43
401.932	402.171	60	49
401.932	402.171	63	49
401.932	402.171	68	58
402.117	402.21	51	35
402.302	402.395	63	42
402.488	402.58	56	36
402.673	403.03	51	43
402.673	402.858	63	51
402.673	403.035	67	51
402.673	403.035	70	60
402.858	403.035	63	33
403.035	403.121	49	43
403.035	403.121	63	44
403.035	403.121	67	44
403.035	403.121	70	52
403.206	403.301	61	37
403.206	403.301	63	44
403.206	403.301	67	44
403.206	403.301	70	52
403.397	403.776	47	43
403.397	403.76	63	51
403.397	403.776	66	51
403.397	403.76	75	60
403.582	403.776	59	33
403.76	403.846	42	43
403.76	403.846	63	44
403.76	403.846	71	44
403.76	403.846	75	52
403.932	404.028	54	37
403.932	404.028	63	44
403.932	404.028	71	44
403.932	404.028	75	52
404.123	404.21	43	43
404.123	404.21	64	50
404.123	404.21	73	59
404.298	404.387	51	38
404.298	404.387	63	43
404.298	404.387	71	51
404.477	404.567	44	43
404.477	404.567	61	43
404.477	404.567	70	51
404.657	404.747	51	40
404.657	404.747	59	43
404.657	404.747	68	51
404.836	405.222	39	43
404.836	405.197	58	51
404.836	405.197	63	51
404.836	405.197	70	60
405.022	405.222	46	33
405.197	405.283	51	43
405.197	405.283	58	44
405.197	405.283	63	44
405.197	405.283	70	52
405.369	405.464	46	37
405.369	405.464	58	44
405.369	405.464	63	44
405.369	405.464	70	52
405.56	405.649	39	43
405.56	405.649	55	50
405.56	405.649	61	50
405.56	405.649	63	59
405.739	405.829	46	38
405.739	405.829	56	43
405.739	405.829	65	51
405.919	406.009	51	43
405.919	406.009	58	43
405.919	406.009	61	43
405.919	406.009	67	51
406.098	406.193	46	40
406.098	406.193	55	43
406.098	406.193	63	51
406.288	406.505	44	47
406.288	406.505	51	47
406.288	406.505	56	51
406.288	406.505	60	51
406.288	406.505	68	60
406.467	406.561	39	38
406.654	406.748	32	43
407.029	407.124	63	52
407.029	407.124	75	63
407.219	407.314	65	47
407.219	407.314	77	56
407.409	407.5	67	46
407.409	407.5	79	55
407.59	408.144	39	37
407.59	408.144	68	44
407.59	408.144	80	54
407.771	408.144	55	47
407.771	408.132	70	58
407.771	408.132	73	58
407.771	408.132	82	69
407.951	408.144	51	42
408.132	408.219	63	47
408.132	408.219	70	50
408.132	408.219	73	50
408.132	408.219	82	59
408.306	408.928	44	36
408.306	408.502	72	50
408.306	408.928	75	50
408.306	408.928	84	59
408.502	408.928	56	49
408.502	408.928	68	56
408.502	408.928	72	56
408.502	408.928	80	66
408.687	408.928	51	40
408.872	408.959	63	48
409.045	409.604	39	41
409.238	409.604	55	47
409.238	409.599	70	58
409.238	409.599	73	58
409.238	409.599	82	69
409.423	409.604	51	42
409.599	409.685	63	47
409.599	409.685	70	50
409.599	409.685	73	50
409.599	409.685	82	59
409.771	410.538	44	36
409.771	409.962	72	50
409.771	410.538	75	50
409.771	410.538	84	59
409.962	410.504	56	49
409.962	410.538	68	56
409.962	410.538	72	56
409.962	410.538	80	66
410.147	410.538	51	40
410.332	410.538	63	48
410.504	410.6	56	41
410.697	411.064	51	49
410.697	411.064	70	58
410.697	411.064	75	58
410.697	411.064	79	58
410.697	411.064	82	69
410.882	411.064	63	37
411.064	411.149	49	49
411.064	411.149	70	50
411.064	411.149	75	50
411.064	411.149	79	50
411.064	411.149	82	59
411.235	411.336	61	42
411.235	411.336	70	50
411.235	411.336	75	50
411.235	411.336	79	50
411.235	411.336	82	59
411.437	411.839	47	49
411.437	411.801	75	58
411.437	411.839	78	58
411.437	411.801	87	69
411.619	411.839	59	37
411.801	411.89	42	49
411.801	411.89	75	50
411.801	411.89	83	50
411.801	411.89	87	59
411.98	412.076	54	42
411.98	412.076	75	50
411.98	412.076	83	50
411.98	412.076	87	59
412.173	412.259	43	49
412.173	412.259	73	57
412.173	412.259	76	57
412.173	412.259	85	67
412.346	412.432	51	36
412.346	412.432	55	43
412.346	412.432	71	49
412.346	412.432	75	49
412.346	412.432	83	58
412.518	412.606	44	49
412.518	412.606	70	49
412.518	412.606	73	49
412.518	412.606	82	58
412.694	412.785	51	39
412.694	412.785	56	46
412.694	412.785	68	49
412.694	412.785	71	49
412.694	412.785	80	58
412.875	413.245	39	49
412.875	413.24	70	58
412.875	413.24	75	58
412.875	413.24	82	69
413.06	413.245	46	37
413.24	413.326	51	49
413.24	413.326	70	50
413.24	413.326	75	50
413.24	413.326	82	59
413.412	413.508	58	42
413.412	413.508	70	50
413.412	413.508	75	50
413.412	413.508	82	59
413.603	413.693	63	49
413.603	413.693	67	57
413.603	413.693	73	57
413.603	413.693	75	67
413.783	413.873	58	43
413.783	413.873	68	49
413.783	413.873	77	58
413.963	414.052	51	49
413.963	414.052	70	49
413.963	414.052	73	49
413.963	414.052	79	58
414.142	414.237	61	46
414.142	414.237	67	49
414.142	414.237	75	58
414.332	414.753	60	54
414.332	414.753	68	58
414.332	414.753	75	58
414.332	414.753	80	69
414.511	414.753	51	43
414.698	414.792	44	49
415.088	415.474	39	54
415.088	415.474	51	64
415.088	415.454	70	66
415.088	415.454	75	66
415.088	415.454	79	66
415.088	415.454	82	79
415.273	415.474	40	46
415.273	415.474	52	55
415.454	415.54	37	56
415.454	415.54	49	67
415.454	415.54	70	57
415.454	415.54	75	57
415.454	415.54	79	57
415.454	415.54	82	67
415.626	415.722	39	50
415.626	415.722	51	59
415.626	415.722	70	57
415.626	415.722	75	57
415.626	415.722	79	57
415.626	415.722	82	67
415.818	416.194	35	58
415.818	416.194	47	69
415.818	416.188	75	66
415.818	416.188	78	66
415.818	416.188	87	79
416.003	416.194	37	51
416.003	416.194	49	60
416.188	416.275	33	56
416.188	416.275	45	66
416.188	416.275	75	57
416.188	416.275	78	57
416.188	416.275	87	67
416.362	416.458	35	50
416.362	416.458	47	59
416.362	416.458	75	57
416.362	416.458	78	57
416.362	416.458	87	67
416.553	416.905	31	59
416.553	416.905	43	70
416.553	416.64	73	65
416.553	416.64	76	65
416.553	416.64	85	77
416.727	416.816	71	56
416.727	416.816	75	56
416.727	416.816	83	66
416.905	417.289	32	60
416.905	417.289	44	71
416.905	416.995	70	56
416.905	416.995	73	56
416.905	416.995	82	66
417.084	417.187	68	56
417.084	417.187	71	56
417.084	417.187	80	66
417.289	417.654	39	67
417.289	417.66	70	66
417.289	417.66	75	66
417.289	417.66	82	79
417.475	417.654	46	59
417.66	417.749	51	67
417.66	417.749	70	57
417.66	417.749	75	57
417.66	417.749	82	67
417.838	417.934	58	61
417.838	417.934	70	57
417.838	417.934	75	57
417.838	417.934	82	67
418.029	418.119	63	69
418.029	418.119	67	65
418.029	418.119	73	65
418.029	418.119	75	77
418.209	418.299	58	57
418.209	418.299	68	56
418.209	418.299	77	66
418.389	418.479	51	67
418.389	418.479	70	56
418.389	418.479	73	56
418.389	418.479	79	66
418.568	418.671	61	61
418.568	418.671	67	56
418.568	418.671	75	66
418.774	419.195	60	76
418.774	419.195	68	66
418.774	419.195	75	66
418.774	419.195	80	79
418.952	419.195	51	64
419.14	419.234	44	71
419.604	420.072	63	34
419.604	420.487	71	35
419.604	420.006	81	50
419.721	419.955	73	25
419.838	420.072	66	25
419.955	420.072	73	25
419.955	420.072	83	36
420.006	420.072	81	36
420.056	420.495	59	31
420.056	420.495	80	50
420.167	420.383	73	25
420.278	420.495	66	25
420.278	420.495	78	41
420.383	420.495	73	25
420.487	420.95	64	34
420.487	421.382	71	29
420.487	420.95	83	43
420.601	420.83	73	25
420.716	420.95	68	25
420.716	420.95	75	45
420.83	420.95	73	25
420.887	420.95	78	35
420.937	421.428	59	31
420.937	421.428	76	43
421.048	421.27	73	25
421.159	421.428	68	25
421.27	421.428	73	25
421.382	421.841	63	34
421.382	422.244	71	35
421.382	421.775	81	50
421.496	421.725	73	25
421.611	421.841	66	25
421.725	421.841	73	25
421.725	421.841	83	36
421.775	421.841	81	36
421.826	422.253	59	31
421.826	422.253	80	50
421.933	422.142	73	25
422.04	422.253	66	25
422.04	422.253	78	41
422.142	422.253	73	25
422.244	422.707	64	34
422.244	423.161	71	29
422.244	422.707	83	44
422.359	422.588	73	25
422.473	422.707	68	25
422.473	422.707	75	45
422.588	422.707	73	25
422.645	422.707	78	35
422.695	423.161	59	31
422.695	423.161	76	43
422.806	423.161	73	25
422.917	423.161	68	25
423.039	423.161	64	25
423.161	423.608	37	44
423.161	423.608	49	52
423.266	423.608	42	47
423.266	423.608	54	36
423.372	423.608	58	41
423.478	423.608	64	28
423.478	423.608	66	36
423.595	424.131	35	32
423.595	424.131	47	38
423.705	424.131	42	35
423.705	424.131	54	24
423.815	424.131	59	27
423.941	424.131	63	19
423.941	424.131	66	24
424.131	424.599	63	34
424.131	425.002	71	35
424.131	424.533	81	50
424.248	424.483	73	25
424.366	424.599	66	25
424.483	424.599	73	25
424.483	424.599	83	36
424.533	424.599	81	36
424.583	425.01	59	31
424.583	425.01	80	50
424.691	424.9	73	25
424.798	425.01	66	25
424.798	425.01	78	41
424.9	425.01	73	25
425.002	425.465	64	34
425.002	425.897	71	29
425.002	425.465	83	43
425.116	425.345	73	25
425.231	425.465	68	25
425.231	425.465	75	45
425.345	425.465	73	25
425.403	425.465	78	35
425.452	425.945	59	31
425.452	425.945	76	43
425.563	425.786	73	25
425.675	425.945	68	25
425.786	425.945	73	25
425.897	426.364	63	34
425.897	426.767	71	35
425.897	426.299	81	50
426.014	426.248	73	25
426.131	426.364	66	25
426.248	426.364	73	25
426.248	426.364	83	36
426.299	426.364	81	36
426.349	426.776	59	31
426.349	426.776	80	50
426.456	426.665	73	25
426.563	426.776	66	25
426.563	426.776	78	41
426.665	426.776	73	25
426.767	427.231	64	34
426.767	427.684	71	29
426.767	427.231	83	44
426.882	427.111	73	25
426.996	427.231	68	25
426.996	427.231	75	45
427.111	427.231	73	25
427.168	427.231	78	35
427.218	427.684	59	31
427.218	427.684	76	43
427.329	427.684	73	25
427.44	427.684	68	25
427.562	427.684	64	25
427.684	428.123	37	44
427.684	428.123	49	52
427.79	428.123	42	47
427.79	428.123	54	36
427.895	428.123	58	41
428.001	428.123	64	28
428.001	428.123	66	36
428.114	428.668	35	32
428.114	428.668	47	38
428.224	428.668	42	35
428.224	428.668	54	24
428.342	428.668	59	27
428.468	428.668	63	19
428.468	428.668	66	24
428.668	429.12	62	34
428.668	429.539	71	35
428.668	429.07	78	50
428.785	429.02	73	25
428.902	429.135	66	25
429.02	429.135	73	25
429.02	429.135	80	36
429.07	429.135	78	36
429.12	429.547	62	31
429.12	429.547	77	50
429.227	429.437	73	25
429.335	429.547	66	25
429.335	429.547	78	41
429.437	429.547	73	25
429.488	429.547	81	35
429.539	430.002	64	34
429.539	429.989	71	29
429.539	429.939	80	43
429.653	429.882	73	25
429.768	430.002	68	25
429.882	430.002	73	25
429.939	430.002	80	35
429.989	430.434	62	31
429.989	430.434	71	29
429.989	430.434	78	43
430.1	430.322	73	25
430.211	430.434	66	25
430.322	430.434	73	25
430.434	430.868	37	44
430.434	430.868	49	52
430.539	430.868	42	47
430.539	430.868	54	36
430.645	430.868	58	41
430.75	430.868	64	28
430.75	430.868	66	36
430.864	431.419	35	32
430.864	431.419	47	38
430.974	431.419	42	35
430.974	431.419	54	24
431.093	431.419	59	27
431.219	431.419	63	19
431.219	431.419	66	24
431.372	431.419	81	37
431.419	431.645	62	34
431.419	431.585	80	50
431.529	431.645	73	25
431.585	431.645	80	37
431.632	431.856	66	25
431.632	431.793	78	50
431.74	431.856	73	25
431.793	431.856	78	37
431.84	432.067	62	31
431.84	432.008	77	50
431.952	432.067	71	25
432.008	432.067	77	37
432.056	432.301	66	25
432.056	432.301	74	50
432.174	432.301	71	25
432.292	432.533	65	34
432.292	432.533	73	50
432.407	432.533	71	25
432.521	432.763	68	25
432.521	432.75	85	50
432.636	432.763	71	25
432.75	432.987	66	31
432.75	432.987	85	50
432.865	432.987	76	25
432.979	433.22	70	25
432.979	433.22	97	50
433.094	433.22	76	25
433.22	433.662	42	46
433.326	433.662	49	42
433.326	433.662	54	32
433.432	433.662	58	36
433.539	433.662	64	25
433.539	433.662	66	32
433.65	434.204	35	34
433.76	434.204	47	31
433.76	434.204	54	21
433.878	434.204	59	24
434.004	434.204	63	17
434.004	434.204	66	21
434.204	434.657	62	34
434.204	435.075	71	35
434.204	434.606	78	50
434.322	434.556	73	25
434.439	434.672	66	25
434.556	434.672	73	25
434.556	434.672	80	36
434.606	434.672	78	36
434.657	435.084	62	31
434.657	435.084	77	50
434.764	434.973	73	25
434.871	435.084	66	25
434.871	435.084	78	41
434.973	435.084	73	25
435.024	435.084	81	35
435.075	435.538	64	34
435.075	435.525	71	29
435.075	435.476	80	43
435.189	435.418	73	25
435.304	435.538	68	25
435.418	435.538	73	25
435.476	435.538	80	35
435.525	435.97	62	31
435.525	435.97	71	29
435.525	435.97	78	43
435.636	435.859	73	25
435.748	435.97	66	25
435.859	435.97	73	25
435.97	436.401	37	39
435.97	436.401	49	46
436.075	436.401	42	42
436.075	436.401	54	32
436.181	436.401	58	36
436.287	436.401	64	25
436.287	436.401	66	32
436.398	436.953	35	28
436.398	436.953	47	34
436.508	436.953	42	31
436.508	436.953	54	21
436.626	436.953	59	24
436.752	436.953	63	19
436.752	436.953	66	24
436.905	436.953	81	37
436.953	437.177	62	34
436.953	437.116	80	50
437.062	437.177	73	25
437.116	437.177	80	37
437.163	437.393	66	25
437.163	437.33	78	50
437.274	437.393	73	25
437.33	437.393	78	37
437.377	437.604	62	31
437.377	437.546	77	50
437.49	437.604	71	25
437.546	437.604	77	37
437.594	437.829	66	25
437.594	437.829	74	50
437.707	437.829	71	25
437.821	438.064	65	34
437.821	438.064	73	50
437.935	438.064	71	25
438.05	438.292	68	25
438.05	438.279	85	50
438.164	438.292	71	25
438.279	438.517	66	31
438.279	438.517	85	50
438.393	438.517	76	25
438.508	438.771	70	25
438.508	438.771	97	50
438.639	438.771	76	25
438.771	439.312	42	44
438.903	439.312	49	39
438.903	439.312	54	30
439.034	439.312	58	34
439.166	439.312	64	23
439.166	439.312	66	30
439.307	440.043	35	32
439.454	440.043	47	29
439.454	440.043	54	20
439.601	440.043	59	22
439.748	440.043	63	16
439.748	440.043	66	20
440.043	440.51	51	34
440.043	440.51	81	42
440.043	440.444	93	50
440.199	440.51	61	25
440.355	440.51	59	25
440.394	440.51	95	36
440.444	440.51	93	36
440.495	440.934	69	31
440.495	440.934	80	42
440.495	440.934	92	50
440.606	440.934	66	25
440.717	440.934	61	25
440.717	440.934	78	34
440.717	440.934	90	41
440.821	440.934	59	25
440.925	441.389	52	34
440.925	441.389	83	36
440.925	441.389	95	43
441.078	441.389	61	25
441.154	441.389	75	38
441.154	441.389	87	45
441.231	441.389	59	25
441.326	441.389	90	35
441.376	441.867	68	31
441.376	441.867	76	36
441.376	441.867	88	43
441.487	441.867	64	25
441.598	441.867	61	25
441.709	441.867	59	25
441.82	442.28	51	34
441.82	442.28	81	42
441.82	442.214	93	50
441.973	442.28	61	25
442.125	442.28	59	25
442.164	442.28	95	36
442.214	442.28	93	36
442.264	442.691	69	31
442.264	442.691	80	42
442.264	442.691	92	50
442.371	442.691	66	25
442.479	442.691	61	25
442.479	442.691	78	34
442.479	442.691	90	41
442.581	442.691	59	25
442.683	443.146	52	34
442.683	443.146	83	37
442.683	443.146	95	44
442.835	443.146	61	25
442.912	443.146	75	38
442.912	443.146	87	45
442.988	443.146	59	25
443.083	443.146	90	35
443.133	443.599	68	31
443.133	443.599	76	36
443.133	443.599	88	43
443.244	443.599	64	25
443.355	443.599	61	25
443.477	443.599	59	25
443.599	444.037	37	41
443.599	444.037	49	49
443.705	444.037	42	44
443.705	444.037	54	34
443.811	444.037	58	38
443.916	444.037	64	26
443.916	444.037	66	34
444.033	444.57	35	30
444.033	444.57	47	36
444.144	444.57	42	33
444.144	444.57	54	22
444.254	444.57	59	25
444.38	444.57	63	18
444.38	444.57	66	22
444.57	445.038	51	34
444.57	445.038	81	42
444.57	444.972	93	50
444.726	445.038	61	25
444.882	445.038	59	25
444.921	445.038	95	36
444.972	445.038	93	36
445.022	445.461	69	31
445.022	445.461	80	42
445.022	445.461	92	50
445.133	445.461	66	25
445.244	445.461	61	25
445.244	445.461	78	34
445.244	445.461	90	41
445.348	445.461	59	25
445.453	445.916	52	34
445.453	445.916	83	36
445.453	445.916	95	43
445.605	445.916	61	25
445.682	445.916	75	38
445.682	445.916	87	45
445.758	445.916	59	25
445.853	445.916	90	35
445.903	446.394	68	31
445.903	446.394	76	36
445.903	446.394	88	43
446.014	446.394	64	25
446.125	446.394	61	25
446.236	446.394	59	25
446.347	446.807	51	34
446.347	446.807	81	42
446.347	446.741	93	50
446.5	446.807	61	25
446.653	446.807	59	25
446.691	446.807	95	36
446.741	446.807	93	36
446.792	447.219	69	31
446.792	447.219	80	42
446.792	447.219	92	50
446.899	447.219	66	25
447.006	447.219	61	25
447.006	447.219	78	34
447.006	447.219	90	41
447.108	447.219	59	25
447.21	447.673	52	34
447.21	447.673	83	37
447.21	447.673	95	44
447.363	447.673	61	25
447.439	447.673	75	38
447.439	447.673	87	45
447.515	447.673	59	25
447.611	447.673	90	35
447.66	448.127	68	31
447.66	448.127	76	36
447.66	448.127	88	43
447.772	448.127	64	25
447.883	448.127	61	25
448.005	448.127	59	25
448.127	448.572	37	41
448.127	448.572	49	49
448.232	448.572	42	44
448.232	448.572	54	34
448.338	448.572	58	38
448.444	448.572	64	26
448.444	448.572	66	34
448.561	449.11	35	30
448.561	449.11	47	36
448.671	449.11	42	33
448.671	449.11	54	22
448.781	449.11	59	25
448.907	449.11	63	18
448.907	449.11	66	22
449.097	449.561	50	34
449.097	449.561	78	42
449.097	449.499	90	50
449.253	449.561	61	25
449.41	449.561	59	25
449.449	449.561	92	36
449.499	449.561	90	36
449.549	449.979	66	34
449.549	449.979	77	42
449.549	449.979	89	50
449.692	449.979	61	25
449.764	449.979	78	34
449.764	449.979	90	41
449.832	449.979	59	25
449.917	449.979	93	35
449.968	450.427	52	34
449.968	450.427	80	36
449.968	450.369	92	43
450.12	450.427	59	29
450.273	450.427	68	28
450.369	450.427	92	35
450.418	450.863	50	34
450.418	450.863	78	24
450.418	450.863	90	43
450.566	450.863	59	27
450.715	450.863	66	27
450.863	451.3	37	44
450.863	451.3	49	52
450.968	451.3	42	47
450.968	451.3	54	36
451.074	451.3	58	41
451.18	451.3	64	28
451.18	451.3	66	36
451.297	451.786	35	32
451.297	451.786	47	38
451.407	451.786	42	35
451.407	451.786	54	24
451.517	451.786	59	27
451.643	451.786	63	19
451.643	451.786	66	24
451.738	451.786	93	37
451.786	452.01	50	34
451.786	452.01	80	42
451.786	451.949	92	50
451.931	452.226	61	25
451.949	452.01	92	37
451.996	452.226	78	42
451.996	452.163	90	50
452.07	452.226	59	25
452.163	452.226	90	37
452.21	452.437	66	34
452.21	452.437	76	42
452.21	452.379	88	50
452.36	452.662	61	25
452.379	452.437	88	37
452.427	452.662	74	42
452.427	452.662	86	50
452.502	452.662	59	25
452.654	452.9	53	34
452.654	452.9	73	50
452.806	453.125	59	29
452.883	453.112	85	50
452.959	453.125	68	28
453.112	453.35	54	34
453.112	453.35	85	50
453.264	453.624	64	27
453.341	453.624	97	50
453.435	453.624	70	27
453.624	454.138	42	44
453.746	454.138	49	39
453.746	454.138	54	30
453.868	454.138	58	34
453.99	454.138	64	23
453.99	454.138	66	30
454.134	454.713	35	32
454.259	454.713	42	29
454.259	454.713	54	20
454.384	454.713	59	22
454.51	454.713	63	16
454.51	454.713	66	20
454.7	455.168	50	34
454.7	455.168	78	42
454.7	455.103	90	50
454.856	455.168	61	25
455.012	455.168	59	25
455.051	455.168	92	36
455.103	455.168	90	36
455.156	455.596	66	34
455.156	455.596	77	42
455.156	455.596	89	50
455.303	455.596	61	25
455.376	455.596	78	34
455.376	455.596	90	41
455.446	455.596	59	25
455.532	455.596	93	35
455.585	456.06	52	34
455.585	456.06	80	36
455.585	456.001	92	43
455.743	456.06	59	29
455.902	456.06	68	28
456.001	456.06	92	35
456.051	456.495	50	34
456.051	456.495	78	24
456.051	456.495	90	43
456.199	456.495	59	27
456.347	456.495	66	27
456.495	456.949	37	44
456.495	456.949	49	52
456.604	456.949	42	47
456.604	456.949	54	36
456.713	456.949	58	41
456.821	456.949	64	28
456.821	456.949	66	36
456.945	457.45	35	32
456.945	457.45	47	38
457.063	457.45	42	35
457.063	457.45	54	24
457.182	457.45	59	27
457.308	457.45	63	19
457.308	457.45	66	24
457.434	458.343	50	34
457.434	458.343	93	45
457.512	458.343	92	44
457.59	458.036	61	25
457.59	458.343	90	44
457.668	458.343	88	43
457.746	458.179	59	25
457.746	458.343	86	43
457.82	458.343	85	42
457.889	458.343	66	34
457.889	458.343	83	42
457.963	458.343	81	41
458.036	458.343	61	25
458.036	458.343	80	41
458.11	458.343	78	40
458.179	458.343	59	25
458.179	458.343	76	39
458.249	458.343	74	39
458.318	461.688	52	34
458.318	459.083	73	40
458.437	458.556	85	36
458.477	461.688	59	29
458.556	458.884	85	36
458.636	461.661	68	28
458.675	458.785	97	38
458.785	459.496	97	39
458.884	458.983	85	36
458.983	459.297	85	36
459.083	459.198	73	37
459.198	459.894	73	44
459.297	459.397	85	36
459.397	459.695	85	36
459.496	459.595	97	41
459.595	460.308	97	41
459.695	459.794	85	36
459.794	460.108	85	36
459.894	460.008	73	36
460.008	461.688	73	42
460.108	460.208	85	37
460.208	460.508	85	37
460.308	460.408	97	40
460.408	460.708	97	40
460.508	460.608	85	37
460.608	460.924	85	37
460.708	460.824	97	37
460.824	461.124	97	42
460.924	461.024	85	37
461.024	461.327	85	37
461.124	461.224	97	39
461.224	461.542	97	39
461.327	461.433	85	37
461.433	461.688	85	37
461.542	461.688	97	37
461.634	462.55	64	37
461.661	462.557	68	42
461.688	462.557	74	49
461.688	461.838	98	39
461.763	462.557	100	38
461.838	462.557	98	37
461.914	462.557	97	36
461.989	462.557	95	36
462.06	462.557	93	36
462.127	462.55	73	47
462.127	462.557	92	35
462.198	462.557	90	34
462.27	462.557	88	33
462.341	462.557	71	41
462.341	462.557	86	32
462.411	462.557	85	31
462.48	462.557	83	30
462.55	463.416	64	38
462.55	463.471	73	38
462.55	463.471	76	45
462.55	462.699	81	29
462.624	463.471	80	28
462.699	463.471	81	29
462.773	463.444	68	39
462.773	463.471	83	31
462.848	463.471	85	32
462.923	463.471	86	33
462.997	463.471	69	45
462.997	463.471	88	34
463.068	463.471	90	35
463.139	463.471	92	36
463.211	463.471	93	36
463.284	463.471	95	37
463.385	463.471	97	38
463.416	464.333	64	37
463.444	464.333	68	42
463.471	464.333	74	49
463.471	463.621	98	39
463.546	464.333	100	38
463.621	464.333	98	37
463.697	464.333	97	36
463.772	464.333	95	36
463.843	464.333	93	36
463.91	464.333	73	47
463.91	464.333	92	35
463.981	464.333	90	34
464.053	464.333	88	33
464.124	464.333	71	41
464.124	464.333	86	32
464.194	464.333	85	31
464.263	464.333	83	30
464.333	465.197	64	38
464.333	465.251	73	38
464.333	465.251	76	45
464.333	464.482	81	29
464.407	465.251	80	28
464.482	465.251	81	29
464.556	465.224	68	39
464.556	465.251	83	31
464.631	465.251	85	32
464.706	465.251	86	33
464.78	465.251	69	45
464.78	465.251	88	34
464.851	465.251	90	35
464.922	465.251	92	36
464.993	465.251	93	36
465.066	465.251	95	37
465.166	465.251	97	38
465.197	466.112	64	37
465.224	466.132	68	42
465.251	466.132	74	49
465.251	465.401	98	39
465.326	466.132	100	38
465.401	466.132	98	37
465.476	466.132	97	36
465.552	466.132	95	36
465.623	466.132	93	36
465.69	466.112	73	47
465.69	466.132	92	35
465.761	466.132	90	34
465.833	466.132	88	33
465.904	466.132	71	41
465.904	466.132	86	32
465.974	466.132	85	31
466.043	466.132	83	30
466.112	466.992	64	38
466.112	467.032	73	38
466.112	467.032	76	45
466.112	466.262	81	29
466.187	467.032	80	28
466.262	467.032	81	29
466.336	466.992	68	39
466.336	467.032	83	31
466.411	467.032	85	32
466.486	467.032	86	33
466.56	467.032	69	45
466.56	467.032	88	34
466.631	467.032	90	35
466.702	467.032	92	36
466.773	467.032	93	36
466.844	467.032	95	37
466.917	467.032	97	38
466.992	468.707	64	39
466.992	468.707	68	39
466.992	468.707	71	39
466.992	469.577	74	49
466.992	467.064	98	41
467.064	467.345	99	44
467.134	467.274	100	46
467.204	468.707	101	49
467.274	468.707	100	49
467.345	468.707	99	47
467.415	468.707	98	46
467.486	468.707	97	45
467.558	468.707	96	44
467.629	468.062	95	43
467.701	467.991	94	41
467.773	467.919	93	40
467.846	468.274	92	39
467.919	468.203	93	44
467.991	468.133	94	46
468.062	468.707	95	48
468.133	468.707	94	49
468.203	468.707	93	48
468.274	468.707	92	47
468.345	468.707	91	46
468.417	468.707	90	45
468.489	468.707	89	45
468.562	468.707	88	44
468.634	468.707	87	43
468.707	469.131	86	41
468.779	469.06	87	44
468.85	468.99	88	46
468.92	469.577	89	49
468.99	469.577	88	49
469.06	469.577	87	47
469.131	469.577	86	46
469.202	469.577	85	45
469.273	469.577	84	44
469.345	469.577	83	43
469.417	469.577	82	41
469.489	469.577	81	40
469.562	469.99	80	39
469.634	469.919	81	44
469.707	469.848	82	46
469.778	470.423	83	48
469.848	470.423	82	49
469.919	470.423	81	48
469.99	470.423	80	47
470.061	470.423	79	46
470.133	470.423	78	45
470.205	470.423	77	45
470.277	470.423	76	44
470.35	470.423	75	43
470.423	470.856	74	41
470.496	470.784	75	44
470.569	470.712	76	46
470.641	471.319	77	49
470.712	471.319	76	49
470.784	471.319	75	47
470.856	471.319	74	46
470.928	471.319	73	45
471.001	471.319	72	44
471.073	471.319	71	43
471.146	471.319	70	41
471.22	471.319	69	40
471.294	471.727	68	39
471.367	471.655	69	44
471.44	471.584	70	46
471.512	472.005	71	48
471.584	472.005	70	49
471.655	472.005	69	48
471.727	472.005	68	45
471.782	472.005	67	45
471.838	472.005	66	47
471.894	472.005	65	49
471.951	472.065	64	50
472.242	472.31	63	40
472.242	472.515	67	45
472.242	472.515	70	54
472.424	472.492	64	38
472.606	472.67	61	38
472.606	472.67	67	43
472.606	472.67	70	51
472.778	472.843	63	38
472.778	472.843	67	43
472.78	472.845	70	51
472.95	473.017	59	40
472.95	473.48	66	48
472.95	473.48	75	56
473.127	473.193	61	38
473.303	473.37	57	38
473.48	473.546	59	38
473.48	473.546	66	41
473.48	473.546	75	49
473.656	473.719	55	44
473.656	473.825	64	44
473.656	473.719	73	52
473.825	473.888	61	39
473.825	473.888	70	52
473.993	474.058	56	38
473.993	474.166	63	44
473.993	474.058	71	52
474.166	474.23	59	40
474.166	474.23	68	54
474.338	474.407	51	40
474.338	474.521	67	44
474.338	474.407	70	53
474.522	474.591	58	37
474.522	474.591	63	50
474.706	475.088	63	45
475.088	475.157	63	44
475.088	475.361	67	49
475.088	475.361	70	59
475.27	475.338	64	41
475.452	475.517	61	41
475.452	475.517	67	47
475.452	475.517	70	56
475.624	475.689	63	41
475.624	475.689	67	47
475.627	475.691	70	56
475.797	475.863	59	44
475.797	476.326	66	52
475.797	476.326	75	61
475.973	476.04	61	41
476.15	476.216	57	41
476.326	476.392	59	41
476.326	476.392	66	45
476.326	476.392	75	53
476.503	476.566	56	48
476.503	476.671	64	48
476.503	476.566	73	57
476.671	476.735	61	39
476.671	476.735	71	57
476.84	476.905	51	41
476.84	477.012	67	48
476.84	476.905	70	58
477.012	477.077	55	39
477.012	477.077	61	45
477.012	477.077	63	61
477.185	477.254	56	46
477.185	477.254	68	60
477.369	477.438	59	42
477.369	477.438	63	58
477.553	477.629	56	48
477.553	477.629	59	52
477.553	477.629	63	55
477.553	477.629	68	62
477.961	478.186	51	44
477.961	478.186	63	52
477.961	478.234	70	58
477.961	478.234	75	58
477.961	478.234	79	58
477.961	478.234	82	70
478.143	478.211	52	41
478.143	478.211	64	49
478.325	478.389	49	41
478.325	478.389	61	49
478.325	478.389	70	55
478.325	478.389	75	55
478.325	478.389	79	55
478.325	478.389	82	66
478.497	478.562	51	41
478.497	478.562	63	49
478.497	478.562	70	55
478.497	478.562	75	55
478.497	478.562	79	55
478.499	478.564	82	66
478.669	478.874	47	44
478.669	478.874	59	52
478.669	479.199	75	62
478.669	479.199	78	62
478.669	479.199	87	72
478.846	478.912	49	41
478.846	478.912	61	49
479.022	479.088	45	41
479.022	479.088	57	49
479.199	479.265	47	41
479.199	479.265	59	49
479.199	479.265	75	53
479.199	479.265	78	53
479.199	479.265	87	63
479.375	479.712	43	48
479.375	479.712	55	57
479.375	479.438	73	57
479.375	479.438	76	57
479.375	479.438	85	67
479.544	479.607	70	67
479.544	479.607	82	67
479.712	480.057	44	41
479.712	480.057	56	49
479.712	479.777	71	57
479.712	479.777	75	57
479.712	479.777	83	67
479.885	479.949	68	70
479.885	479.949	80	70
480.057	480.124	39	44
480.057	480.124	51	52
480.057	480.124	70	57
480.057	480.124	75	57
480.057	480.124	82	68
480.235	480.301	43	40
480.235	480.301	55	48
480.235	480.301	63	57
480.235	480.301	75	65
480.412	480.479	46	40
480.412	480.479	58	48
480.412	480.479	63	57
480.412	480.479	75	68
480.591	480.661	50	40
480.591	480.661	62	48
480.777	480.976	51	46
480.777	480.976	63	54
480.777	481.05	70	60
480.777	481.05	75	60
480.777	481.05	79	60
480.777	481.05	82	73
480.959	481.027	52	43
480.959	481.027	64	51
481.141	481.205	49	43
481.141	481.205	61	51
481.141	481.205	70	57
481.141	481.205	75	57
481.141	481.205	79	57
481.141	481.205	82	69
481.313	481.378	51	43
481.313	481.378	63	51
481.313	481.378	70	57
481.313	481.378	75	57
481.313	481.378	79	57
481.315	481.38	82	69
481.486	481.552	47	46
481.486	481.552	59	54
481.486	482.559	75	65
481.486	482.559	78	65
481.486	482.559	87	75
481.662	481.728	49	43
481.662	481.728	61	51
481.839	481.905	45	43
481.839	481.905	57	51
482.015	482.081	47	43
482.015	482.081	59	51
482.191	482.559	43	48
482.191	482.559	55	56
482.191	482.555	74	63
482.191	482.555	79	63
482.191	482.555	83	63
482.191	482.555	86	76
482.373	482.559	45	45
482.373	482.559	57	53
482.555	482.62	41	45
482.555	482.62	53	53
482.555	482.62	74	59
482.555	482.62	79	59
482.555	482.62	83	59
482.555	482.62	86	72
482.727	482.792	43	45
482.727	482.792	55	53
482.727	482.792	74	59
482.727	482.792	79	59
482.727	482.792	83	59
482.727	482.792	86	72
482.9	483.106	39	48
482.9	483.106	51	56
482.9	483.606	79	68
482.9	483.957	82	68
482.9	483.957	87	68
482.9	483.606	91	78
483.076	483.143	41	45
483.076	483.143	53	53
483.253	483.319	37	45
483.253	483.319	49	53
483.429	483.495	39	45
483.429	483.495	51	53
483.606	483.957	36	67
483.606	483.957	79	66
483.606	483.957	84	66
483.606	483.957	88	66
483.606	483.957	91	79
483.788	483.957	48	55
483.969	484.142	35	64
483.969	484.034	79	61
483.969	484.034	84	61
483.969	484.034	88	61
483.969	484.034	91	75
484.142	484.206	47	55
484.142	484.206	79	61
484.142	484.206	84	61
484.142	484.206	88	61
484.142	484.206	91	75
484.314	484.65	33	70
484.314	485.02	84	71
484.314	485.02	88	71
484.314	485.02	91	71
484.314	485.02	96	81
484.491	484.65	45	55
484.667	485.02	31	67
484.844	485.02	43	56
485.02	485.362	36	68
485.02	485.362	67	67
485.02	485.362	72	67
485.02	485.362	76	67
485.02	485.362	79	80
485.202	485.362	48	56
485.384	485.556	35	65
485.384	485.448	67	62
485.384	485.448	72	62
485.384	485.448	76	62
485.384	485.448	79	77
485.556	485.621	47	56
485.556	485.621	67	62
485.556	485.621	72	62
485.556	485.621	76	62
485.556	485.621	79	77
485.729	486.434	40	72
485.729	486.434	72	73
485.729	486.434	76	73
485.729	486.434	79	73
485.729	486.434	84	83
485.905	486.434	52	75
486.434	486.806	36	58
486.434	486.616	48	70
486.434	486.798	79	69
486.434	486.798	84	69
486.434	486.798	88	69
486.434	486.798	91	82
486.616	486.806	48	48
486.616	486.806	60	57
486.798	486.863	35	56
486.798	486.863	47	67
486.798	486.863	79	64
486.798	486.863	84	64
486.798	486.863	88	64
486.798	486.863	91	78
486.97	487.035	47	48
486.97	487.035	59	57
486.97	487.035	79	64
486.97	487.035	84	64
486.97	487.035	88	64
486.97	487.035	91	78
487.143	487.508	33	62
487.143	487.319	45	74
487.143	487.849	84	75
487.143	487.849	88	75
487.143	487.849	91	75
487.143	487.849	96	85
487.319	487.508	45	48
487.319	487.508	57	58
487.496	487.849	31	59
487.496	487.672	43	71
487.672	487.849	43	49
487.672	487.849	55	58
487.849	487.917	36	59
487.849	487.917	48	71
487.849	488.212	67	70
487.849	488.212	72	70
487.849	488.212	76	70
487.849	488.212	79	84
488.031	488.212	48	49
488.031	488.212	60	58
488.212	488.277	38	58
488.212	488.277	50	69
488.212	488.277	67	65
488.212	488.277	72	65
488.212	488.277	76	65
488.212	488.277	79	81
488.385	488.449	50	49
488.385	488.449	62	59
488.385	488.449	67	65
488.385	488.449	72	65
488.385	488.449	76	65
488.385	488.449	79	81
488.557	489.284	40	63
488.557	488.734	52	75
488.557	489.284	72	76
488.557	489.284	76	76
488.557	489.284	79	76
488.557	489.284	84	87
488.734	489.284	52	65
488.734	489.284	64	80
489.284	489.667	33	61
489.284	489.469	45	73
489.284	489.654	85	72
489.284	489.654	93	72
489.284	489.654	97	86
489.469	489.667	45	50
489.469	489.667	57	60
489.654	489.72	32	59
489.654	489.72	44	70
489.654	489.72	85	67
489.654	489.72	93	67
489.654	489.72	97	82
489.829	489.894	44	50
489.829	489.894	56	60
489.829	489.894	85	67
489.829	489.894	93	67
489.829	489.894	97	82
490.003	490.353	30	64
490.003	490.183	42	77
490.003	490.722	88	78
490.003	490.722	93	78
490.003	490.722	97	78
490.003	490.722	100	89
490.183	490.353	42	50
490.183	490.353	54	60
490.362	490.722	28	61
490.362	490.542	40	73
490.542	490.722	40	50
490.542	490.722	52	60
490.722	491.115	33	61
490.722	490.906	45	73
490.722	491.09	73	72
490.722	491.09	81	72
490.722	491.09	85	86
490.906	491.115	45	50
490.906	491.115	57	60
491.09	491.156	35	59
491.09	491.156	47	70
491.09	491.156	73	67
491.09	491.156	81	67
491.09	491.156	85	82
491.266	491.332	47	50
491.266	491.332	59	60
491.266	491.332	73	67
491.266	491.332	81	67
491.266	491.332	85	82
491.443	492.161	37	64
491.443	491.622	49	77
491.443	492.161	76	78
491.443	492.161	81	78
491.443	492.161	85	78
491.443	492.161	88	89
491.622	492.161	49	66
491.622	492.161	61	81
492.161	492.544	33	61
492.161	492.349	45	73
492.161	492.536	85	72
492.161	492.536	93	72
492.161	492.536	97	86
492.349	492.544	45	50
492.349	492.544	57	60
492.536	492.602	32	59
492.536	492.602	44	70
492.536	492.602	85	67
492.536	492.602	93	67
492.536	492.602	97	82
492.713	492.779	44	50
492.713	492.779	56	60
492.713	492.779	85	67
492.713	492.779	93	67
492.713	492.779	97	82
492.889	493.261	30	64
492.889	493.073	42	77
492.889	493.625	88	78
492.889	493.625	93	78
492.889	493.625	97	78
492.889	493.625	100	89
493.073	493.261	42	50
493.073	493.261	54	60
493.257	493.625	28	61
493.257	493.441	40	73
493.441	493.625	40	50
493.441	493.625	52	60
493.625	494.03	33	61
493.625	493.821	45	73
493.625	494.018	73	72
493.625	494.018	81	72
493.625	494.018	85	86
493.821	494.03	45	50
493.821	494.03	57	60
494.018	494.086	35	59
494.018	494.086	47	70
494.018	494.086	73	67
494.018	494.086	81	67
494.018	494.086	85	82
494.2	494.269	47	50
494.2	494.269	59	60
494.2	494.269	73	67
494.2	494.269	81	67
494.2	494.269	85	82
494.383	495.078	37	64
494.383	494.599	49	77
494.383	495.169	76	78
494.383	495.169	81	78
494.383	495.169	85	78
494.383	495.169	88	89
494.599	495.121	49	66
494.599	495.121	61	81
495.169	495.558	30	55
495.169	495.544	34	55
495.169	495.544	37	55
495.169	495.558	42	65
495.169	495.558	54	73
495.169	495.544	58	73
495.169	495.544	61	73
495.169	495.558	66	87
495.544	495.927	29	51
495.544	495.919	34	51
495.544	495.927	37	51
495.544	495.927	41	60
495.544	495.927	53	68
495.544	495.919	58	68
495.544	495.927	61	68
495.544	495.927	65	80
495.919	496.306	27	55
495.919	496.294	30	55
495.919	496.294	34	55
495.919	496.306	39	65
495.919	496.306	51	72
495.919	496.294	54	72
495.919	496.294	58	72
495.919	496.306	63	85
496.294	496.69	25	51
496.294	496.683	30	51
496.294	496.683	34	51
496.294	496.683	37	51
496.294	496.69	49	68
496.294	496.683	54	68
496.294	496.683	58	68
496.294	496.683	61	80
496.683	496.868	30	55
496.683	496.868	34	55
496.683	496.868	37	55
496.683	496.868	42	65
496.683	496.868	54	73
496.683	496.868	58	73
496.683	496.868	61	73
496.683	496.868	66	86
496.868	497.073	30	51
496.868	497.073	34	51
496.868	497.052	37	51
496.868	497.073	42	60
496.868	497.073	54	68
496.868	497.073	58	68
496.868	497.052	61	68
496.868	497.073	66	80
497.052	497.442	32	55
497.052	497.434	37	55
497.052	497.442	44	65
497.052	497.442	56	73
497.052	497.434	61	73
497.052	497.442	68	86
497.434	497.809	34	57
497.434	497.809	37	57
497.434	497.809	42	57
497.434	497.809	46	68
497.434	497.809	58	75
497.434	497.809	61	75
497.434	497.809	66	75
497.434	497.809	70	89
498.186	498.566	30	55
498.186	498.552	34	55
498.186	498.552	37	55
498.186	498.566	42	65
498.186	498.566	54	73
498.186	498.552	58	73
498.186	498.552	61	73
498.186	498.566	66	87
498.552	498.925	29	51
498.552	498.918	34	51
498.552	498.925	37	51
498.552	498.925	41	60
498.552	498.925	53	68
498.552	498.918	58	68
498.552	498.925	61	68
498.552	498.925	65	80
498.918	499.289	27	55
498.918	499.277	30	55
498.918	499.277	34	55
498.918	499.289	39	65
498.918	499.289	51	72
498.918	499.277	54	72
498.918	499.277	58	72
498.918	499.289	63	85
499.277	499.668	25	51
499.277	499.662	30	51
499.277	499.662	34	51
499.277	499.662	37	51
499.277	499.668	49	68
499.277	499.662	54	68
499.277	499.662	58	68
499.277	499.662	61	80
499.662	499.84	30	55
499.662	499.84	34	55
499.662	499.84	37	55
499.662	499.84	42	65
499.662	499.84	54	73
499.662	499.84	58	73
499.662	499.84	61	73
499.662	499.84	66	86
499.84	500.04	30	51
499.84	500.04	34	51
499.84	500.019	37	51
499.84	500.04	42	60
499.84	500.04	54	68
499.84	500.04	58	68
499.84	500.019	61	68
499.84	500.04	66	80
500.019	500.409	32	55
500.019	500.401	37	55
500.019	500.409	44	65
500.019	500.409	56	73
500.019	500.401	61	73
500.019	500.409	68	86
500.401	500.776	34	57
500.401	500.776	37	57
500.401	500.776	42	57
500.401	500.776	46	68
500.401	500.776	58	75
500.401	500.776	61	75
500.401	500.776	66	75
500.401	500.776	70	89
501.151	501.711	42	62
501.151	501.711	46	62
501.151	501.711	49	62
501.151	501.711	54	73
501.151	501.711	61	77
501.151	501.711	66	77
501.151	501.711	70	77
501.151	501.711	73	91
501.711	501.908	42	57
501.711	501.908	46	57
501.711	501.908	49	57
501.711	501.901	54	68
501.711	501.908	61	72
501.711	501.901	66	72
501.711	501.908	70	72
501.711	501.908	73	85
501.901	502.293	47	62
501.901	502.293	51	62
501.901	502.276	54	62
501.901	502.293	59	73
501.901	502.293	63	78
501.901	502.276	66	78
501.901	502.293	71	78
501.901	502.293	75	92
502.276	502.665	42	59
502.276	502.658	46	59
502.276	502.665	49	59
502.276	502.665	54	70
502.276	502.665	61	73
502.276	502.665	66	73
502.276	502.658	70	73
502.276	502.665	73	86
502.658	503.404	34	62
502.658	503.217	46	74
502.658	503.217	58	79
502.658	503.404	70	93
503.217	503.404	38	56
503.217	503.404	46	67
503.217	503.404	58	73
503.217	503.404	68	87
503.404	503.495	39	61
503.404	503.495	46	72
503.404	503.495	58	77
503.404	503.495	66	91
503.585	503.676	41	58
503.585	503.676	46	69
503.585	503.676	58	72
503.585	503.676	65	85
503.767	503.955	42	58
503.767	503.955	46	69
503.767	503.955	58	71
503.767	503.955	63	84
504.142	504.512	54	66
504.142	504.512	58	78
504.142	504.512	66	66
504.142	504.286	70	78
504.214	504.502	71	73
504.286	504.43	70	73
504.358	504.512	69	73
504.43	504.512	70	73
504.502	504.594	56	58
504.502	504.594	59	69
504.502	504.594	68	62
504.502	504.594	71	73
504.686	504.786	54	58
504.686	504.786	58	69
504.686	504.786	66	59
504.686	504.786	70	70
504.887	504.98	53	62
504.887	504.98	56	74
504.887	504.98	65	68
504.887	504.98	68	80
505.073	505.166	51	58
505.073	505.166	54	69
505.073	505.166	63	62
505.073	505.166	66	73
505.26	505.453	46	58
505.26	505.453	53	69
505.26	505.453	58	62
505.26	505.453	65	73
505.647	505.877	39	64
505.647	505.877	46	64
505.647	505.877	51	76
505.647	505.877	54	75
505.647	505.877	58	75
505.647	505.877	63	89
506.392	506.952	42	62
506.392	506.952	46	62
506.392	506.952	49	62
506.392	506.952	54	73
506.392	506.952	73	77
506.392	506.952	78	77
506.392	506.952	82	77
506.392	506.952	85	91
506.952	507.149	42	57
506.952	507.149	46	57
506.952	507.149	49	57
506.952	507.142	54	68
506.952	507.149	73	72
506.952	507.142	78	72
506.952	507.149	82	72
506.952	507.149	85	85
507.142	507.534	47	62
507.142	507.534	51	62
507.142	507.517	54	62
507.142	507.534	59	73
507.142	507.534	75	78
507.142	507.517	78	78
507.142	507.534	83	78
507.142	507.534	87	92
507.517	507.906	42	59
507.517	507.899	46	59
507.517	507.906	49	59
507.517	507.906	54	70
507.517	507.906	73	73
507.517	507.906	78	73
507.517	507.899	82	73
507.517	507.906	85	86
507.899	508.645	34	62
507.899	508.458	46	74
507.899	508.645	70	79
507.899	508.645	82	93
508.458	508.645	38	56
508.458	508.645	46	56
508.458	508.645	50	67
508.458	508.645	68	73
508.458	508.645	80	87
508.645	508.736	39	61
508.645	508.736	46	61
508.645	508.736	51	72
508.645	508.736	66	77
508.645	508.736	78	91
508.827	508.917	41	58
508.827	508.917	46	58
508.827	508.917	53	69
508.827	508.917	65	72
508.827	508.917	77	85
509.008	509.196	42	58
509.008	509.196	46	58
509.008	509.196	54	69
509.008	509.196	63	71
509.008	509.196	75	84
509.383	509.741	54	66
509.383	509.741	58	66
509.383	509.741	66	78
509.383	509.741	78	66
509.383	509.522	82	78
509.453	509.73	83	73
509.522	509.661	82	73
509.591	509.741	81	73
509.661	509.741	82	73
509.73	509.821	56	58
509.73	509.821	68	69
509.73	509.821	71	62
509.73	509.821	83	73
509.911	510.012	54	58
509.911	510.012	66	69
509.911	510.012	70	59
509.911	510.012	82	70
510.112	510.202	53	62
510.112	510.202	65	74
510.112	510.202	68	68
510.112	510.202	80	80
510.292	510.382	51	58
510.292	510.382	63	69
510.292	510.382	66	62
510.292	510.382	78	73
510.472	510.665	46	58
510.472	510.665	58	69
510.472	510.665	65	62
510.472	510.665	77	73
510.859	511.087	51	64
510.859	511.087	54	64
510.859	511.087	58	76
510.859	511.087	63	75
510.859	511.087	70	75
510.859	511.087	75	89
511.599	511.966	30	66
511.599	511.952	34	66
511.599	511.952	37	66
511.599	511.966	42	78
511.599	511.776	54	65
511.599	511.776	58	65
511.599	511.776	61	65
511.599	511.776	66	78
511.776	511.966	54	55
511.776	511.966	58	55
511.776	511.966	61	55
511.776	511.966	66	65
511.952	512.324	29	61
511.952	512.316	34	61
511.952	512.324	37	61
511.952	512.324	41	72
512.134	512.324	53	54
512.134	512.324	58	54
512.134	512.324	61	54
512.134	512.324	65	64
512.316	512.691	27	66
512.316	512.68	30	66
512.316	512.68	34	66
512.316	512.691	39	78
512.498	512.691	51	57
512.498	512.691	54	57
512.498	512.691	58	57
512.498	512.691	63	68
512.68	513.066	25	61
512.68	513.059	30	61
512.68	513.059	34	61
512.68	513.059	37	61
512.869	513.066	49	54
512.869	513.066	54	54
512.869	513.066	58	54
512.869	513.066	61	64
513.059	513.442	30	66
513.059	513.442	34	66
513.059	513.421	37	66
513.059	513.442	42	78
513.24	513.442	54	54
513.24	513.442	58	54
513.24	513.442	61	54
513.24	513.442	66	64
513.421	513.806	32	66
513.421	513.798	37	66
513.421	513.806	44	78
513.609	513.806	56	58
513.609	513.806	61	58
513.609	513.806	68	69
513.798	514.164	34	68
513.798	514.164	37	68
513.798	514.164	42	68
513.798	514.164	46	81
513.981	514.164	58	60
513.981	514.164	61	60
513.981	514.164	66	60
513.981	514.164	70	72
514.541	514.906	30	66
514.541	514.892	34	66
514.541	514.892	37	66
514.541	514.906	42	78
514.541	514.717	54	65
514.541	514.717	58	65
514.541	514.717	61	65
514.541	514.717	66	78
514.717	514.906	54	55
514.717	514.906	58	55
514.717	514.906	61	55
514.717	514.906	66	65
514.892	515.261	29	61
514.892	515.254	34	61
514.892	515.261	37	61
514.892	515.261	41	72
515.073	515.261	53	54
515.073	515.261	58	54
515.073	515.261	61	54
515.073	515.261	65	64
515.254	515.627	27	66
515.254	515.615	30	66
515.254	515.615	34	66
515.254	515.627	39	78
515.434	515.627	51	57
515.434	515.627	54	57
515.434	515.627	58	57
515.434	515.627	63	68
515.615	516.002	25	61
515.615	515.995	30	61
515.615	515.995	34	61
515.615	515.995	37	61
515.805	516.002	49	54
515.805	516.002	54	54
515.805	516.002	58	54
515.805	516.002	61	64
515.995	516.378	30	66
515.995	516.378	34	66
515.995	516.356	37	66
515.995	516.378	42	78
516.176	516.378	54	54
516.176	516.378	58	54
516.176	516.378	61	54
516.176	516.378	66	64
516.356	516.741	32	66
516.356	516.734	37	66
516.356	516.741	44	78
516.545	516.741	56	58
516.545	516.741	61	58
516.545	516.741	68	69
516.734	517.1	34	68
516.734	517.1	37	68
516.734	517.1	42	68
516.734	517.1	46	81
516.917	517.1	58	60
516.917	517.1	61	60
516.917	517.1	66	60
516.917	517.1	70	72
517.477	518.037	42	62
517.477	518.037	46	62
517.477	518.037	49	62
517.477	518.037	54	73
517.477	518.037	61	77
517.477	518.037	66	77
517.477	518.037	70	77
517.477	518.037	73	91
518.037	518.234	42	57
518.037	518.234	46	57
518.037	518.234	49	57
518.037	518.227	54	68
518.037	518.234	61	72
518.037	518.227	66	72
518.037	518.234	70	72
518.037	518.234	73	85
518.227	518.619	47	62
518.227	518.619	51	62
518.227	518.602	54	62
518.227	518.619	59	73
518.227	518.619	63	78
518.227	518.602	66	78
518.227	518.619	71	78
518.227	518.619	75	92
518.602	518.99	42	59
518.602	518.984	46	59
518.602	518.99	49	59
518.602	518.99	54	70
518.602	518.99	61	73
518.602	518.99	66	73
518.602	518.984	70	73
518.602	518.99	73	86
518.984	519.72	34	62
518.984	519.536	46	74
518.984	519.536	58	79
518.984	519.72	70	93
519.536	519.72	38	56
519.536	519.72	46	67
519.536	519.72	58	73
519.536	519.72	68	87
519.72	519.809	39	61
519.72	519.809	46	72
519.72	519.809	58	77
519.72	519.809	66	91
519.897	519.985	41	58
519.897	519.985	46	69
519.897	519.985	58	72
519.897	519.985	65	85
520.073	520.26	42	58
520.073	520.26	46	69
520.073	520.26	58	71
520.073	520.26	63	84
520.445	520.808	54	66
520.445	520.808	58	78
520.445	520.808	66	66
520.445	520.586	70	78
520.515	520.798	71	73
520.586	520.727	70	73
520.657	520.808	69	73
520.727	520.808	70	73
520.798	520.89	56	58
520.798	520.89	59	69
520.798	520.89	68	62
520.798	520.89	71	73
520.982	521.082	54	58
520.982	521.082	58	69
520.982	521.082	66	59
520.982	521.082	70	70
521.183	521.276	53	62
521.183	521.276	56	74
521.183	521.276	65	68
521.183	521.276	68	80
521.369	521.463	51	58
521.369	521.463	54	69
521.369	521.463	63	62
521.369	521.463	66	73
521.556	521.751	46	58
521.556	521.751	53	69
521.556	521.751	58	62
521.556	521.751	65	73
521.945	522.177	39	64
521.945	522.177	46	64
521.945	522.177	51	76
521.945	522.177	54	75
521.945	522.177	58	75
521.945	522.177	63	89
522.695	523.242	42	62
522.695	523.242	46	62
522.695	523.242	49	62
522.695	523.242	54	73
522.695	523.242	73	77
522.695	523.242	78	77
522.695	523.242	82	77
522.695	523.242	85	91
523.242	523.439	42	57
523.242	523.439	46	57
523.242	523.439	49	57
523.242	523.432	54	68
523.242	523.439	73	72
523.242	523.432	78	72
523.242	523.439	82	72
523.242	523.439	85	85
523.432	523.808	47	62
523.432	523.808	51	62
523.432	523.792	54	62
523.432	523.808	59	73
523.432	523.808	75	78
523.432	523.792	78	78
523.432	523.808	83	78
523.432	523.808	87	92
523.792	524.173	42	59
523.792	524.167	46	59
523.792	524.173	49	59
523.792	524.173	54	70
523.792	524.173	73	73
523.792	524.173	78	73
523.792	524.167	82	73
523.792	524.173	85	86
524.167	524.899	34	62
524.167	524.719	46	74
524.167	524.899	70	79
524.167	524.899	82	93
524.719	524.899	38	56
524.719	524.899	46	56
524.719	524.899	50	67
524.719	524.899	68	73
524.719	524.899	80	87
524.899	524.986	39	61
524.899	524.986	46	61
524.899	524.986	51	72
524.899	524.986	66	77
524.899	524.986	78	91
525.073	525.16	41	58
525.073	525.16	46	58
525.073	525.16	53	69
525.073	525.16	65	72
525.073	525.16	77	85
525.247	525.431	42	58
525.247	525.431	46	58
525.247	525.431	54	69
525.247	525.431	63	71
525.247	525.431	75	84
525.616	525.994	54	66
525.616	525.994	58	66
525.616	525.994	66	78
525.616	525.994	78	66
525.616	525.763	82	78
525.689	525.984	83	73
525.763	525.91	82	73
525.836	525.994	81	73
525.91	525.994	82	73
525.984	526.076	56	58
525.984	526.076	68	69
525.984	526.076	71	62
525.984	526.076	83	73
526.168	526.268	54	58
526.168	526.268	66	69
526.168	526.268	70	59
526.168	526.268	82	70
526.369	526.458	53	62
526.369	526.458	65	74
526.369	526.458	68	68
526.369	526.458	80	80
526.548	526.637	51	58
526.548	526.637	63	69
526.548	526.637	66	62
526.548	526.637	78	73
526.726	526.911	46	58
526.726	526.911	58	69
526.726	526.911	65	62
526.726	526.911	77	73
527.096	527.467	54	66
527.096	527.467	58	78
527.096	527.467	66	66
527.096	527.24	70	78
527.168	527.456	71	73
527.24	527.384	70	73
527.312	527.467	69	73
527.384	527.467	70	73
527.456	527.548	56	58
527.456	527.548	59	69
527.456	527.548	68	62
527.456	527.548	71	73
527.64	527.741	54	58
527.64	527.741	58	69
527.64	527.741	66	59
527.64	527.741	70	70
527.841	527.942	53	62
527.841	527.942	56	74
527.841	527.942	65	68
527.841	527.942	68	80
528.043	528.143	51	58
528.043	528.143	54	69
528.043	528.143	63	62
528.043	528.143	66	73
528.244	528.461	46	58
528.244	528.461	53	69
528.244	528.461	58	62
528.244	528.461	65	73
528.679	529.129	42	66
528.679	529.129	46	78
528.679	529.129	54	66
528.679	528.854	58	78
528.766	529.117	59	73
528.854	529.029	58	73
528.941	529.129	57	73
529.029	529.129	58	73
529.117	529.227	44	58
529.117	529.227	47	69
529.117	529.227	56	62
529.117	529.227	59	73
529.337	529.454	42	58
529.337	529.454	46	69
529.337	529.454	54	59
529.337	529.454	58	70
529.572	529.693	41	62
529.572	529.693	44	74
529.572	529.693	53	68
529.572	529.693	56	80
529.814	529.947	39	58
529.814	529.947	42	69
529.814	529.947	51	62
529.814	529.947	54	73
530.081	530.364	34	58
530.081	530.364	41	69
530.081	530.364	46	62
530.081	530.364	53	73
530.577	532.198	27	58
530.6	532.198	31	58
530.624	532.198	34	58
530.647	530.902	39	69
530.647	530.902	51	86
530.902	532.198	39	58
530.902	532.198	46	58
530.902	532.198	51	69
531.156	531.537	55	56
531.156	532.198	58	56
531.156	532.198	63	56
531.156	531.41	67	66
531.41	532.198	67	56
531.41	532.198	70	56
531.41	532.198	75	56
531.41	531.664	79	66
531.537	532.198	43	79
531.537	532.198	55	79
531.664	532.198	44	85
531.664	532.198	56	85
531.664	532.198	79	60
531.664	532.198	82	60
531.664	532.198	87	71
531.664	531.928	91	71
531.928	532.198	91	66
531.928	532.198	94	66
531.928	532.198	99	78
531.928	532.198	103	78
532.191	532.651	45	84
532.191	532.651	57	84
532.651	534.268	27	58
532.673	534.268	31	58
532.695	534.268	34	58
532.717	532.971	39	69
532.717	532.971	46	82
532.717	533.225	58	86
532.971	534.268	39	58
532.971	534.268	46	58
532.971	533.734	51	69
533.225	534.268	55	56
533.225	534.268	58	56
533.225	533.734	63	56
533.225	533.48	67	66
533.48	534.268	67	56
533.48	534.268	70	56
533.48	534.268	75	56
533.48	533.734	79	66
533.734	534.268	51	68
533.734	534.268	63	85
533.734	534.268	79	61
533.734	534.268	82	61
533.734	534.268	87	72
533.734	533.997	91	72
533.997	534.268	91	65
533.997	534.268	94	65
533.997	534.268	99	77
533.997	534.268	103	77
534.655	534.787	43	79
534.655	534.787	55	79
534.721	536.351	27	58
534.754	536.351	34	58
534.787	536.351	38	69
534.787	535.299	44	75
534.787	535.299	56	86
535.043	536.351	41	58
535.043	536.351	46	58
535.043	536.351	50	69
535.299	535.812	44	72
535.299	536.351	53	56
535.299	535.812	56	82
535.299	536.351	58	56
535.299	536.351	62	56
535.299	535.556	65	66
535.556	536.351	65	56
535.556	536.351	70	56
535.556	536.351	74	56
535.556	535.812	77	66
535.684	536.351	43	79
535.684	536.351	55	79
535.812	536.351	44	85
535.812	536.351	56	85
535.812	536.351	77	61
535.812	536.351	82	61
535.812	536.351	86	61
535.812	536.078	89	72
536.078	536.351	89	68
536.078	536.351	94	68
536.078	536.351	98	81
536.078	536.351	101	81
536.343	536.808	45	84
536.343	536.808	57	84
536.808	538.425	27	58
536.841	538.425	34	58
536.874	537.128	39	69
536.874	537.128	46	86
536.874	537.383	58	86
537.128	538.425	39	58
537.128	538.425	46	58
537.128	538.425	51	69
537.383	538.425	55	56
537.383	538.425	58	56
537.383	538.425	63	56
537.383	537.637	67	66
537.637	538.425	67	56
537.637	538.425	70	56
537.637	538.425	75	56
537.637	537.891	79	66
537.891	538.425	79	62
537.891	538.425	82	62
537.891	538.425	87	73
537.891	538.154	91	73
538.154	538.425	91	68
538.154	538.425	94	68
538.154	538.425	99	81
538.154	538.425	103	81
538.68	538.768	34	62
538.68	538.768	46	71
538.768	538.856	36	65
538.768	538.856	48	73
538.856	538.909	38	68
538.856	538.909	50	75
538.909	540.474	27	58
538.919	540.474	31	58
538.93	540.474	34	58
538.94	539.194	39	69
538.94	539.194	51	86
539.194	540.474	39	58
539.194	540.474	46	58
539.194	540.474	51	69
539.448	539.817	55	56
539.448	540.474	58	56
539.448	540.474	63	56
539.448	539.694	67	66
539.694	540.474	67	56
539.694	540.474	70	56
539.694	540.474	75	56
539.694	539.94	79	66
539.817	540.474	43	79
539.817	540.474	55	79
539.94	540.474	44	85
539.94	540.474	56	85
539.94	540.474	79	60
539.94	540.474	82	60
539.94	540.474	87	71
539.94	540.203	91	71
540.203	540.474	91	66
540.203	540.474	94	66
540.203	540.474	99	78
540.203	540.474	103	78
540.466	540.927	45	84
540.466	540.927	57	84
540.927	542.544	27	58
540.949	542.544	31	58
540.971	542.544	34	58
540.993	541.247	39	69
540.993	541.247	46	86
540.993	541.501	58	86
541.247	542.544	39	58
541.247	542.544	46	58
541.247	542.01	51	69
541.501	542.544	55	56
541.501	542.544	58	56
541.501	542.01	63	56
541.501	541.755	67	66
541.755	542.544	67	56
541.755	542.544	70	56
541.755	542.544	75	56
541.755	542.01	79	66
542.01	542.544	51	71
542.01	542.544	63	85
542.01	542.544	79	61
542.01	542.544	82	61
542.01	542.544	87	72
542.01	542.273	91	72
542.273	542.544	91	65
542.273	542.544	94	65
542.273	542.544	99	77
542.273	542.544	103	77
542.931	543.062	43	79
542.931	543.062	55	79
542.996	544.627	27	58
543.029	544.627	34	58
543.062	544.627	38	69
543.062	543.575	44	75
543.062	543.575	56	86
543.319	544.619	41	58
543.319	544.627	46	58
543.319	544.627	50	69
543.575	544.088	44	72
543.575	544.619	53	56
543.575	544.088	56	82
543.575	544.627	58	56
543.575	544.627	62	56
543.575	543.831	65	66
543.831	544.627	65	56
543.831	544.627	70	56
543.831	544.627	74	56
543.831	544.088	77	66
543.96	544.627	43	79
543.96	544.627	55	79
544.088	544.627	44	85
544.088	544.627	56	85
544.088	544.627	77	61
544.088	544.627	82	61
544.088	544.627	86	61
544.088	544.353	89	72
544.353	544.627	89	68
544.353	544.627	94	68
544.353	544.627	98	81
544.353	544.627	101	81
544.619	545.083	41	84
544.619	545.083	53	84
545.083	546.716	27	58
545.106	546.716	31	58
545.128	546.716	34	58
545.15	545.404	39	69
545.15	545.404	51	86
545.404	546.716	39	58
545.404	546.693	46	58
545.404	546.716	51	69
545.658	546.716	55	56
545.658	546.693	58	56
545.658	546.716	63	66
545.913	546.716	67	56
545.913	546.716	70	56
545.913	546.716	75	66
546.167	546.716	79	62
546.167	546.716	82	73
546.167	546.716	87	73
546.43	546.716	91	68
546.43	546.716	94	81
546.43	546.716	99	81
546.693	547.17	46	80
546.693	547.17	58	80
547.154	548.775	27	58
547.177	548.775	31	58
547.201	548.775	34	58
547.224	547.479	39	69
547.224	547.479	51	75
547.224	547.733	63	82
547.479	548.775	39	58
547.479	548.775	46	58
547.479	548.775	51	69
547.606	548.114	55	62
547.733	548.775	58	53
547.733	548.775	63	53
547.733	547.86	67	62
547.86	548.114	67	57
547.987	548.775	70	53
547.987	548.775	75	53
547.987	548.114	79	62
548.114	548.775	55	76
548.114	548.775	67	76
548.114	548.373	79	56
548.241	548.775	56	81
548.241	548.775	68	81
548.241	548.505	82	57
548.241	548.505	87	67
548.241	548.505	91	67
548.373	548.775	79	60
548.505	548.775	82	58
548.505	548.775	87	58
548.505	548.636	91	70
548.636	548.775	91	62
548.768	549.299	57	80
548.768	549.299	69	80
548.768	549.299	94	62
548.768	549.299	99	78
548.768	549.299	103	81
549.228	550.874	27	58
549.252	550.874	31	58
549.275	550.874	34	58
549.299	549.553	39	69
549.299	549.807	58	73
549.299	550.062	70	82
549.553	550.874	39	58
549.553	550.874	46	58
549.553	550.874	51	69
549.68	550.874	55	62
549.807	550.874	58	53
549.807	550.316	63	53
549.807	549.935	67	62
549.935	550.874	67	57
550.062	550.874	70	53
550.062	550.316	75	53
550.062	550.189	79	62
550.189	550.448	79	56
550.316	550.874	63	81
550.316	550.874	75	84
550.316	550.579	82	57
550.316	550.579	87	67
550.316	550.579	91	67
550.448	550.874	79	60
550.579	550.874	82	58
550.579	550.874	87	58
550.579	550.711	91	70
550.711	550.874	91	62
550.842	551.374	94	62
550.842	551.374	99	78
550.842	551.374	103	81
551.237	551.374	55	76
551.237	551.374	67	76
551.303	552.924	27	58
551.338	552.924	34	58
551.374	552.924	38	69
551.374	552.391	56	73
551.374	552.391	68	82
551.628	552.924	41	58
551.628	552.924	46	58
551.628	552.924	50	69
551.755	552.924	53	62
551.882	552.924	58	53
551.882	552.924	62	53
551.882	552.009	65	62
552.009	552.924	65	57
552.136	552.924	70	53
552.136	552.924	74	53
552.136	552.263	77	62
552.263	552.924	55	76
552.263	552.924	67	76
552.263	552.522	77	56
552.391	552.924	56	81
552.391	552.924	68	81
552.391	552.654	82	57
552.391	552.654	86	67
552.391	552.654	89	67
552.522	552.924	77	60
552.654	552.924	82	58
552.654	552.924	86	58
552.654	552.785	89	70
552.785	552.924	89	62
552.917	553.456	57	80
552.917	553.456	69	80
552.917	553.456	94	62
552.917	553.456	98	74
552.917	553.456	101	81
553.377	555.06	27	58
553.401	555.06	31	58
553.425	555.06	34	58
553.448	553.702	39	69
553.448	553.957	58	73
553.448	554.211	70	82
553.702	555.06	39	58
553.702	555.06	46	58
553.702	555.06	51	69
553.829	554.465	55	62
553.957	555.06	58	53
553.957	555.06	63	53
553.957	554.084	67	62
554.084	554.465	67	57
554.211	555.06	70	53
554.211	555.06	75	53
554.211	554.338	79	62
554.338	554.597	79	56
554.465	555.06	55	81
554.465	555.06	67	84
554.465	554.728	82	57
554.465	554.728	87	67
554.465	554.728	91	67
554.597	555.06	79	60
554.728	555.06	82	58
554.728	555.06	87	58
554.728	554.86	91	70
554.86	555.06	91	62
554.991	555.523	94	62
554.991	555.523	99	78
554.991	555.523	103	81
555.386	555.523	46	76
555.386	555.523	58	76
555.452	557.074	27	58
555.476	557.074	31	58
555.499	557.074	34	58
555.523	555.777	39	69
555.523	555.777	51	75
555.523	556.031	63	82
555.777	557.074	39	58
555.777	557.074	46	58
555.777	557.074	51	69
555.904	556.413	55	62
556.031	557.074	58	53
556.031	557.074	63	53
556.031	556.158	67	62
556.158	556.413	67	57
556.285	557.074	70	53
556.285	557.074	75	53
556.285	556.413	79	62
556.413	557.074	55	76
556.413	557.074	67	72
556.413	556.671	79	56
556.54	557.074	56	81
556.54	557.074	68	76
556.54	556.803	82	57
556.54	556.803	87	67
556.54	556.803	91	67
556.671	557.074	79	60
556.803	557.074	82	58
556.803	557.074	87	58
556.803	556.934	91	70
556.934	557.074	91	62
557.066	557.597	57	80
557.066	557.597	69	80
557.066	557.597	94	62
557.066	557.597	99	78
557.066	557.597	103	81
557.526	559.148	27	58
557.55	559.148	31	58
557.574	559.148	34	58
557.597	557.851	39	69
557.597	558.106	58	73
557.597	558.36	70	82
557.851	559.148	39	58
557.851	559.148	46	58
557.851	559.148	51	69
557.979	559.148	55	62
558.106	559.148	58	53
558.106	558.614	63	53
558.106	558.233	67	62
558.233	559.148	67	57
558.36	559.148	70	53
558.36	558.614	75	53
558.36	558.487	79	62
558.487	558.746	79	56
558.614	559.148	63	81
558.614	559.148	75	84
558.614	558.877	82	57
558.614	558.877	87	67
558.614	558.877	91	67
558.746	559.148	79	60
558.877	559.148	82	58
558.877	559.148	87	58
558.877	559.009	91	70
559.009	559.148	91	62
559.141	559.679	94	62
559.141	559.679	99	78
559.141	559.679	103	81
559.535	559.679	55	76
559.535	559.679	67	76
559.601	561.223	27	58
559.636	561.223	34	58
559.672	561.223	38	69
559.672	560.689	56	73
559.672	560.689	68	82
559.926	561.223	41	58
559.926	561.223	46	58
559.926	561.223	50	69
560.053	561.215	53	62
560.18	561.223	58	53
560.18	561.223	62	53
560.18	560.307	65	62
560.307	561.215	65	57
560.435	561.223	70	53
560.435	561.223	74	53
560.435	560.562	77	62
560.562	561.223	55	76
560.562	561.223	67	76
560.562	560.82	77	56
560.689	561.223	56	81
560.689	561.223	68	81
560.689	560.952	82	57
560.689	560.952	86	67
560.689	560.952	89	67
560.82	561.223	77	60
560.952	561.223	82	58
560.952	561.223	86	58
560.952	561.084	89	70
561.084	561.223	89	62
561.215	561.746	53	80
561.215	561.746	65	80
561.215	561.746	94	62
561.215	561.746	98	74
561.215	561.746	101	81
561.676	563.297	27	58
561.699	563.297	31	58
561.723	563.297	34	58
561.746	562.001	39	69
561.746	562.001	51	73
561.746	562.255	63	82
562.001	563.297	39	58
562.001	563.297	46	58
562.001	563.297	51	69
562.128	563.297	55	62
562.255	563.297	58	53
562.255	563.29	63	62
562.382	563.29	67	57
562.509	563.297	70	53
562.509	563.297	75	62
562.636	562.895	79	56
562.763	563.027	82	58
562.763	563.027	87	70
562.895	563.297	79	60
563.027	563.297	82	64
563.027	563.297	87	76
563.158	563.297	91	62
563.29	563.792	63	68
563.29	563.792	67	68
563.29	563.792	73	80
563.29	563.792	94	69
563.29	563.792	99	86
563.786	564.266	68	65
563.786	564.266	72	77
563.903	564.266	75	60
564.02	564.266	80	52
564.02	564.137	87	62
564.137	564.266	87	64
564.254	564.705	67	63
564.254	564.715	70	75
564.254	564.48	92	55
564.254	564.48	99	65
564.367	564.593	87	60
564.48	564.715	65	63
564.48	564.715	68	75
564.48	564.715	92	54
564.48	564.715	99	64
564.593	564.715	87	60
564.705	565.171	63	67
564.705	565.183	67	79
564.822	565.183	70	60
564.938	565.183	58	63
564.938	565.183	65	75
564.938	565.171	87	53
564.938	565.171	94	63
565.054	565.183	82	60
565.171	565.672	55	63
565.171	565.412	63	75
565.171	565.412	87	54
565.171	565.412	94	64
565.291	565.533	82	60
565.412	565.672	63	64
565.412	565.672	67	76
565.412	565.672	87	54
565.412	565.672	94	64
565.533	565.672	82	60
565.654	566.119	65	68
565.654	566.119	68	80
565.771	566.131	70	60
565.887	566.119	86	53
565.887	566.119	94	63
566.003	566.131	64	63
566.003	566.131	67	75
566.003	566.131	82	60
566.119	566.598	65	63
566.119	566.598	68	75
566.119	566.345	86	54
566.119	566.345	94	64
566.232	566.458	82	60
566.345	566.598	66	66
566.345	566.598	69	78
566.345	566.598	86	54
566.345	566.598	94	64
566.458	566.598	82	60
566.571	567.043	67	68
566.571	566.689	70	80
566.689	567.523	70	60
566.807	567.043	87	53
566.807	567.043	94	63
566.925	567.161	82	60
567.043	567.523	63	68
567.043	567.523	67	68
567.043	567.523	73	80
567.043	567.279	87	54
567.043	567.279	94	64
567.161	567.397	82	60
567.279	567.523	87	54
567.279	567.523	94	64
567.397	567.523	82	60
567.516	568.007	68	65
567.516	568.007	72	77
567.636	568.007	75	60
567.756	568.007	80	52
567.756	567.876	87	62
567.876	568.007	87	64
567.996	568.45	67	63
567.996	568.46	70	75
567.996	568.223	92	55
567.996	568.223	99	65
568.109	568.336	87	60
568.223	568.46	65	63
568.223	568.46	68	75
568.223	568.46	92	54
568.223	568.46	99	64
568.336	568.46	87	60
568.45	568.923	63	67
568.45	568.935	67	79
568.568	568.935	70	60
568.686	568.935	58	63
568.686	568.935	65	75
568.686	568.923	87	53
568.686	568.923	94	63
568.804	568.935	82	60
568.923	569.424	55	63
568.923	569.164	63	75
568.923	569.164	87	54
568.923	569.164	94	64
569.043	569.285	82	60
569.164	569.424	63	64
569.164	569.424	67	76
569.164	569.424	87	54
569.164	569.424	94	64
569.285	569.424	82	60
569.406	569.871	65	68
569.406	569.871	68	80
569.523	569.883	70	60
569.639	569.871	86	53
569.639	569.871	94	63
569.755	569.883	64	63
569.755	569.883	67	75
569.755	569.883	82	60
569.871	570.099	65	63
569.871	570.348	68	75
569.871	570.099	86	54
569.871	570.099	94	64
569.985	570.212	82	60
570.099	570.348	58	66
570.099	570.348	65	78
570.099	570.348	86	54
570.099	570.326	94	64
570.212	570.348	82	60
570.326	570.618	55	68
570.326	570.618	63	80
570.326	570.618	87	53
570.326	570.618	94	63
570.798	571.275	39	65
570.798	571.275	51	77
570.798	571.275	82	75
570.914	571.145	97	60
571.029	571.275	43	61
571.029	571.275	55	72
571.029	571.275	87	67
571.145	571.275	97	60
571.26	571.736	44	68
571.26	571.736	56	80
571.26	571.736	80	72
571.375	571.604	96	57
571.489	571.736	48	62
571.489	571.736	60	73
571.489	571.736	87	57
571.604	571.736	96	57
571.718	572.186	51	62
571.718	572.186	63	73
571.718	572.186	79	69
571.828	572.186	94	56
571.939	572.186	56	62
571.939	572.186	68	73
571.939	572.186	77	67
572.049	572.186	92	56
572.163	572.634	58	62
572.163	572.634	70	73
572.163	572.618	75	67
572.277	572.634	91	56
572.391	572.634	74	66
572.504	572.634	90	56
572.618	573.097	39	65
572.618	573.097	51	77
572.618	573.097	75	67
572.734	572.967	91	56
572.851	573.097	43	61
572.851	573.097	55	72
572.851	573.097	76	68
572.967	573.097	91	57
573.083	573.568	46	68
573.083	573.568	58	80
573.083	573.545	77	67
573.198	573.568	92	60
573.314	573.568	50	58
573.314	573.568	62	69
573.314	573.568	76	66
573.429	573.568	91	60
573.545	574.01	53	62
573.545	574.01	65	73
573.545	574.01	77	67
573.655	574.01	92	57
573.765	574.01	57	65
573.765	574.01	61	65
573.765	574.01	69	77
573.765	574.01	78	65
573.875	574.01	93	57
573.991	574.473	58	69
573.991	574.473	67	69
573.991	574.473	70	82
573.991	574.473	79	70
574.105	574.334	94	58
574.22	574.473	87	58
574.334	574.473	94	58
574.451	574.938	39	65
574.451	574.938	51	77
574.451	574.938	82	75
574.569	574.805	97	60
574.687	574.938	43	61
574.687	574.938	55	72
574.687	574.938	87	67
574.805	574.938	97	60
574.923	575.399	44	68
574.923	575.399	56	80
574.923	575.399	80	72
575.038	575.267	96	57
575.152	575.399	48	62
575.152	575.399	60	73
575.152	575.399	87	57
575.267	575.399	96	57
575.381	575.845	51	62
575.381	575.845	63	73
575.381	575.845	79	69
575.491	575.845	94	56
575.602	575.845	56	62
575.602	575.845	68	73
575.602	575.845	77	67
575.712	575.845	92	56
575.822	576.293	58	62
575.822	576.293	70	73
575.822	576.277	75	67
575.936	576.293	91	56
576.05	576.293	74	66
576.163	576.293	90	56
576.277	576.756	39	65
576.277	576.756	51	77
576.277	576.756	75	67
576.393	576.626	91	56
576.509	576.756	43	61
576.509	576.756	55	72
576.509	576.756	76	68
576.626	576.756	91	57
576.742	577.227	46	68
576.742	577.227	58	80
576.742	577.203	77	67
576.857	577.227	92	60
576.973	577.227	50	58
576.973	577.227	62	69
576.973	577.227	76	66
577.088	577.227	91	60
577.203	577.664	53	62
577.203	577.664	65	73
577.203	577.664	77	67
577.314	577.664	92	57
577.424	577.664	57	65
577.424	577.664	61	65
577.424	577.664	69	77
577.424	577.664	78	65
577.534	577.664	93	57
577.645	578.125	58	69
577.645	578.125	67	69
577.645	578.125	70	82
577.645	578.125	79	70
577.759	577.988	94	58
577.874	578.125	87	58
577.988	578.125	94	58
578.103	578.583	39	65
578.103	578.583	51	77
578.103	578.583	82	75
578.219	578.451	97	60
578.335	578.583	43	61
578.335	578.583	55	72
578.335	578.583	87	67
578.451	578.583	97	60
578.568	579.048	44	68
578.568	579.048	56	80
578.568	579.048	80	72
578.683	578.914	96	57
578.798	579.048	48	62
578.798	579.048	60	73
578.798	579.048	87	57
578.914	579.048	96	57
579.029	579.497	51	62
579.029	579.497	63	73
579.029	579.497	79	69
579.14	579.497	94	56
579.251	579.497	56	62
579.251	579.497	68	73
579.251	579.497	77	67
579.363	579.497	92	56
579.474	579.951	58	62
579.474	579.951	70	73
579.474	579.935	75	67
579.589	579.951	91	56
579.704	579.951	74	66
579.82	579.951	90	56
579.935	580.157	75	67
580.046	580.269	91	56
580.157	580.393	63	54
580.157	580.393	75	64
580.269	580.393	79	48
580.269	580.393	91	57
580.38	580.824	62	51
580.38	580.824	74	72
580.485	580.824	80	51
580.485	580.824	92	61
580.591	580.824	65	44
580.591	580.824	77	62
580.701	580.824	79	49
580.701	580.824	91	58
580.812	581.248	61	59
580.812	581.248	73	70
580.917	581.248	80	50
580.917	581.248	92	59
581.023	581.248	65	55
581.023	581.248	77	65
581.133	581.248	79	46
581.133	581.248	91	55
581.242	581.683	60	51
581.242	581.683	72	72
581.347	581.683	80	50
581.347	581.683	92	59
581.452	581.683	65	44
581.452	581.683	77	62
581.562	581.683	79	47
581.562	581.683	91	56
581.671	582.108	59	59
581.671	582.108	71	70
581.776	582.108	80	49
581.776	582.108	92	58
581.881	582.108	62	55
581.881	582.108	74	65
581.988	582.108	79	47
581.988	582.108	82	47
581.988	582.108	91	56
582.095	582.522	56	61
582.095	582.522	68	72
582.198	582.522	80	50
582.198	582.522	83	50
582.198	582.522	92	59
582.3	582.522	59	52
582.3	582.522	71	62
582.405	582.522	79	45
582.405	582.522	82	45
582.405	582.522	91	54
582.51	582.923	54	71
582.51	582.923	66	71
582.611	582.923	80	51
582.611	582.923	83	60
582.611	582.923	92	60
582.712	582.923	59	66
582.712	582.923	71	66
582.815	582.923	79	48
582.815	582.923	82	48
582.815	582.923	91	57
582.918	583.342	52	63
582.918	583.342	64	74
583.02	583.342	80	53
583.02	583.342	83	63
583.02	583.342	92	63
583.122	583.342	56	54
583.122	583.342	68	65
583.226	583.342	79	51
583.226	583.342	82	51
583.226	583.342	91	60
583.33	583.743	51	74
583.33	583.743	63	74
583.431	583.743	80	54
583.431	583.743	83	54
583.431	583.743	92	63
583.532	583.743	56	69
583.532	583.743	68	69
583.635	583.743	79	52
583.635	583.743	88	52
583.635	583.743	91	62
583.738	584.158	52	65
583.738	584.158	64	77
583.839	584.158	80	55
583.839	584.158	89	65
583.839	584.158	92	65
583.94	584.158	56	56
583.94	584.158	68	67
584.043	584.158	79	53
584.043	584.158	88	53
584.043	584.158	91	63
584.146	584.552	48	77
584.146	584.552	60	77
584.246	584.552	80	56
584.246	584.552	89	56
584.246	584.552	92	66
584.345	584.552	56	72
584.345	584.552	68	72
584.447	584.552	79	54
584.447	584.552	88	54
584.447	584.552	91	64
584.547	584.956	47	68
584.547	584.956	59	80
584.645	584.956	80	57
584.645	584.956	89	68
584.645	584.956	92	68
584.742	584.956	50	58
584.742	584.956	62	70
584.844	584.956	79	55
584.844	584.956	88	55
584.844	584.956	91	65
584.945	585.347	44	79
584.945	585.347	56	79
585.042	585.347	80	58
585.042	585.347	89	58
585.042	585.347	92	68
585.141	585.347	47	74
585.141	585.347	59	74
585.241	585.347	79	56
585.241	585.347	88	56
585.241	585.347	91	66
585.342	585.743	41	70
585.342	585.743	53	83
585.438	585.743	80	59
585.438	585.743	89	70
585.438	585.743	92	70
585.534	585.743	44	60
585.534	585.743	56	72
585.634	585.743	79	57
585.634	585.743	88	57
585.634	585.743	91	67
585.731	586.127	38	83
585.731	586.127	50	83
585.827	586.127	80	61
585.827	586.127	89	61
585.827	586.127	92	72
585.923	586.127	41	79
585.923	586.127	53	79
586.023	586.127	79	60
586.023	586.127	88	60
586.023	586.127	91	71
586.123	586.523	37	76
586.123	586.523	49	90
586.218	586.523	80	64
586.218	586.523	89	76
586.218	586.523	92	76
586.314	586.523	41	65
586.314	586.523	53	79
586.413	586.523	79	62
586.413	586.523	88	62
586.413	586.523	91	74
586.511	586.969	35	90
586.511	586.969	47	90
586.616	586.969	80	66
586.616	586.969	89	66
586.616	586.969	92	78
586.723	586.969	41	85
586.723	586.969	53	85
586.841	586.969	79	65
586.841	586.969	87	65
586.841	586.969	91	77
586.969	587.829	34	72
586.969	587.389	46	85
586.969	587.835	80	77
586.969	587.835	86	77
586.969	587.336	92	91
587.179	587.603	53	61
587.179	587.603	62	61
587.179	587.835	65	72
587.284	587.829	94	78
587.336	587.835	92	78
587.389	587.829	46	66
587.389	587.603	58	78
587.389	587.835	79	74
587.389	587.835	91	88
587.603	587.835	53	61
587.603	587.835	58	61
587.603	587.835	62	73
587.603	587.835	77	69
587.603	587.835	89	82
587.829	588.692	34	69
587.829	588.26	46	82
587.829	588.699	82	75
587.829	588.699	94	90
588.044	588.476	55	61
588.044	588.476	63	61
588.044	588.476	67	72
588.044	588.699	74	68
588.044	588.692	86	81
588.26	588.692	46	68
588.26	588.699	58	80
588.26	588.699	75	74
588.26	588.699	87	88
588.476	588.699	55	62
588.476	588.699	63	62
588.476	588.699	67	74
588.692	589.551	34	72
588.692	589.111	46	85
588.692	589.558	80	77
588.692	589.558	86	77
588.692	589.059	92	91
588.902	589.326	53	61
588.902	589.326	62	61
588.902	589.558	65	72
589.007	589.551	94	78
589.059	589.558	92	78
589.111	589.551	46	66
589.111	589.326	58	78
589.111	589.558	79	74
589.111	589.558	91	88
589.326	589.558	53	61
589.326	589.558	58	61
589.326	589.558	62	73
589.326	589.558	77	69
589.326	589.558	89	82
589.551	590.449	34	69
589.551	589.983	46	82
589.551	590.449	82	75
589.551	590.449	94	90
589.767	590.199	55	61
589.767	590.199	63	61
589.767	590.199	67	72
589.767	590.449	74	68
589.767	590.449	86	81
589.983	590.449	46	68
589.983	590.449	58	80
589.983	590.449	75	74
589.983	590.449	87	88
590.199	590.449	55	62
590.199	590.449	63	62
590.199	590.449	67	74
590.449	590.57	36	71
590.449	590.57	48	84
590.691	590.822	35	66
590.691	590.822	47	78
590.691	590.822	53	61
590.691	590.822	57	61
590.691	590.822	63	72
590.691	590.822	65	72
590.954	591.08	34	70
590.954	591.08	46	83
590.954	591.08	53	63
590.954	591.08	58	63
590.954	591.08	62	75
590.954	591.08	65	75
591.458	591.879	56	77
591.458	591.879	68	91
591.658	591.879	74	64
591.658	591.879	77	64
591.658	591.879	82	77
591.658	591.879	86	77
591.868	592.303	55	74
591.868	592.303	67	88
592.071	592.303	53	69
592.071	592.303	65	82
592.071	592.303	86	64
592.071	592.303	89	64
592.071	592.303	94	77
592.071	592.303	98	77
592.296	592.73	58	75
592.296	592.73	70	90
592.502	592.73	50	68
592.502	592.73	62	81
592.502	592.73	79	64
592.502	592.73	82	64
592.502	592.73	87	77
592.502	592.73	91	77
592.711	593.131	51	74
592.711	593.131	63	88
592.921	593.131	91	64
592.921	593.131	94	64
592.921	593.131	99	77
592.921	593.131	103	77
593.131	593.552	44	77
593.131	593.552	56	91
593.332	593.552	62	64
593.332	593.552	65	64
593.332	593.552	70	77
593.332	593.552	74	77
593.541	593.979	43	74
593.541	593.979	55	88
593.746	593.979	41	69
593.746	593.979	53	82
593.746	593.979	74	64
593.746	593.979	77	64
593.746	593.979	82	77
593.746	593.979	86	77
593.972	594.407	46	75
593.972	594.407	58	90
594.179	594.407	38	68
594.179	594.407	50	81
594.179	594.407	67	64
594.179	594.407	70	64
594.179	594.407	75	77
594.179	594.407	79	77
594.388	594.846	39	74
594.388	594.846	51	88
594.598	594.846	79	64
594.598	594.846	82	64
594.598	594.846	87	77
594.598	594.846	91	77
594.846	594.968	36	71
594.846	594.968	48	84
595.09	595.222	35	66
595.09	595.222	47	78
595.09	595.222	53	61
595.09	595.222	57	61
595.09	595.222	63	72
595.09	595.222	65	72
595.353	595.479	34	70
595.353	595.479	46	83
595.353	595.479	53	63
595.353	595.479	62	75
595.353	595.479	65	75
595.357	595.483	58	63
595.857	596.732	37	72
595.857	596.732	49	85
595.857	596.506	77	77
595.857	596.732	82	77
595.857	596.732	85	77
595.86	596.506	89	91
596.075	596.292	58	61
596.075	596.506	61	61
596.075	596.506	65	72
596.292	596.732	46	66
596.292	596.506	58	78
596.292	596.732	76	74
596.292	596.732	88	88
596.506	596.732	58	61
596.506	596.732	61	61
596.506	596.732	65	73
596.506	596.732	77	69
596.506	596.732	89	82
596.732	597.191	39	72
596.732	597.191	51	85
596.732	597.191	79	77
596.732	597.17	82	77
596.732	597.191	91	91
596.951	597.191	58	61
596.951	597.191	63	61
596.951	597.191	67	72
597.17	597.683	37	72
597.17	597.683	49	85
597.17	597.683	77	74
597.17	597.683	82	74
597.17	597.683	89	88
597.392	597.683	58	61
597.392	597.683	61	61
597.392	597.683	65	72
597.646	597.766	36	71
597.646	597.766	48	84
597.885	598.016	35	66
597.885	598.016	47	78
597.885	598.016	53	61
597.885	598.016	57	61
597.885	598.016	63	72
597.885	598.016	65	72
598.148	598.276	34	70
598.148	598.276	46	83
598.148	598.276	53	63
598.148	598.276	62	75
598.148	598.276	65	75
598.152	598.28	58	63
598.661	599.112	37	72
598.661	599.112	49	85
598.661	599.557	79	68
598.661	599.557	82	68
598.661	599.557	91	81
598.813	599.557	77	57
598.813	599.557	89	68
598.888	599.326	58	61
598.888	599.326	61	61
598.888	599.326	65	72
598.962	599.557	76	57
598.962	599.557	88	68
599.112	599.557	37	66
599.112	599.557	49	78
599.112	599.557	75	63
599.112	599.557	87	75
599.255	599.557	74	59
599.255	599.557	86	70
599.326	599.557	58	61
599.326	599.557	61	61
599.326	599.557	65	73
599.403	599.557	73	59
599.403	599.557	85	70
599.557	600.026	36	72
599.557	600.026	48	85
599.557	600.008	72	71
599.557	599.782	84	84
599.782	600.026	55	61
599.782	600.026	58	61
599.782	600.026	64	72
599.782	600.008	84	64
599.782	600.026	96	77
600.008	600.459	41	66
600.008	600.459	53	78
600.008	600.459	72	70
600.008	600.233	84	83
600.233	600.459	57	61
600.233	600.459	63	61
600.233	600.459	84	64
600.233	600.459	96	77
600.239	600.459	65	73
600.459	600.58	36	71
600.459	600.58	48	84
600.701	600.827	35	66
600.701	600.827	47	78
600.701	600.827	53	61
600.701	600.827	57	61
600.701	600.827	63	72
600.701	600.827	65	72
600.953	601.079	34	70
600.953	601.079	46	83
600.953	601.079	53	63
600.953	601.079	62	75
600.953	601.079	65	75
600.957	601.083	58	63
601.457	601.892	53	77
601.457	601.892	58	77
601.457	601.892	61	77
601.457	601.892	65	91
601.675	601.84	70	69
601.675	601.84	73	69
601.675	601.84	82	82
601.892	601.999	52	74
601.892	601.999	64	88
602.106	602.219	53	69
602.106	602.219	65	82
602.106	602.219	82	68
602.106	602.219	85	68
602.106	602.219	94	81
602.332	602.77	55	77
602.332	602.77	58	77
602.332	602.77	63	77
602.332	602.77	67	91
602.551	602.749	70	69
602.551	602.749	75	69
602.551	602.749	82	82
602.77	603.232	53	74
602.77	603.232	58	74
602.77	603.232	61	74
602.77	603.232	65	88
602.992	603.232	82	68
602.992	603.232	85	68
602.992	603.232	94	81
603.232	603.357	36	71
603.232	603.357	48	84
603.482	603.613	35	66
603.482	603.613	47	78
603.482	603.613	53	61
603.482	603.613	57	61
603.482	603.613	63	72
603.482	603.613	65	72
603.743	603.873	34	70
603.743	603.873	46	83
603.743	603.873	53	63
603.743	603.873	62	75
603.743	603.873	65	75
603.747	603.878	58	63
604.265	604.698	55	68
604.265	604.698	67	81
604.421	604.698	53	57
604.421	604.698	65	68
604.496	604.698	70	69
604.496	604.698	73	69
604.496	604.698	77	69
604.496	604.698	82	82
604.57	604.72	52	57
604.57	604.72	64	68
604.72	605.165	51	63
604.72	605.165	63	75
604.862	605.165	50	59
604.862	605.165	62	70
604.934	605.165	82	68
604.934	605.165	85	68
604.934	605.165	89	68
604.934	605.165	94	81
605.011	605.165	49	59
605.011	605.165	61	70
605.165	605.603	48	77
605.165	605.603	52	77
605.165	605.603	55	77
605.165	605.603	60	91
605.384	605.582	72	69
605.384	605.582	76	69
605.384	605.582	79	69
605.384	605.582	84	82
605.603	606.079	41	74
605.603	606.079	45	74
605.603	606.079	48	74
605.603	606.079	53	88
605.825	606.079	89	68
605.825	606.079	93	68
605.825	606.079	96	68
605.825	606.079	101	81
606.079	606.204	36	71
606.079	606.204	48	84
606.329	606.461	35	66
606.329	606.461	47	78
606.329	606.461	53	61
606.329	606.461	57	61
606.329	606.461	63	72
606.329	606.461	65	72
606.592	606.713	34	70
606.592	606.713	46	83
606.592	606.713	53	63
606.592	606.713	62	75
606.592	606.713	65	75
606.596	606.717	58	63
606.955	607.007	68	64
607.007	607.059	70	64
607.059	607.902	68	73
607.271	607.902	74	52
607.34	607.902	77	54
607.407	607.902	82	55
607.473	607.902	67	69
607.473	607.902	86	57
607.544	607.902	89	59
607.614	607.902	94	60
607.684	607.902	65	62
607.684	607.902	98	62
607.902	608.355	70	70
608.112	608.355	62	63
608.112	608.355	79	53
608.184	608.355	82	55
608.257	608.355	87	57
608.327	608.679	63	71
608.327	608.398	91	59
608.398	608.595	94	61
608.469	608.595	99	64
608.54	608.679	103	66
608.679	608.738	64	64
608.738	608.795	66	64
608.795	609.207	63	73
609.006	609.636	70	52
609.074	609.636	73	54
609.141	609.636	78	56
609.207	609.636	63	69
609.207	609.636	82	58
609.278	609.636	85	60
609.349	609.636	90	61
609.419	609.636	61	62
609.419	609.636	94	63
609.636	610.073	66	70
609.846	610.073	58	63
609.846	610.073	71	54
609.917	610.073	75	55
609.991	610.073	78	57
610.062	610.518	59	71
610.062	610.131	83	58
610.131	610.275	87	60
610.199	610.275	90	61
610.266	610.406	95	63
610.406	610.462	60	64
610.462	610.518	62	64
610.518	611.362	60	73
610.734	611.362	66	54
610.803	611.362	68	56
610.871	611.362	74	57
610.937	611.362	59	69
610.937	611.362	78	58
611.006	611.362	80	59
611.076	611.362	86	60
611.144	611.362	57	62
611.144	611.362	90	62
611.362	611.816	62	70
611.572	611.816	54	63
611.572	611.816	67	54
611.643	611.816	71	55
611.717	611.816	74	57
611.788	612.109	55	71
611.788	611.857	79	58
611.857	612.044	83	59
611.924	612.044	86	60
611.992	612.109	91	62
612.225	612.671	44	55
612.225	612.671	56	65
612.333	612.671	59	45
612.333	612.671	71	54
612.44	612.671	50	46
612.44	612.671	62	55
612.546	612.671	65	46
612.546	612.671	77	55
612.651	612.754	45	55
612.651	612.754	57	65
612.754	613.063	60	47
612.754	613.063	72	56
612.856	613.063	51	47
612.856	613.063	63	56
612.957	613.063	66	47
612.957	613.063	78	56
613.056	613.157	46	59
613.056	613.157	58	70
613.157	613.461	63	51
613.157	613.768	75	60
613.258	613.89	55	51
613.258	613.563	67	60
613.36	613.664	70	51
613.36	613.89	82	60
613.461	613.89	51	61
613.461	613.89	63	72
613.563	613.89	67	51
613.563	613.89	79	61
613.664	613.89	58	51
613.664	613.89	70	61
613.768	613.89	75	51
613.768	613.89	87	61
613.88	614.701	53	61
613.88	614.476	65	72
613.98	614.278	70	52
613.98	614.577	82	62
614.079	614.701	62	52
614.079	614.377	74	62
614.178	614.476	77	52
614.178	614.701	89	62
614.278	614.701	58	63
614.278	614.701	70	75
614.377	614.701	74	53
614.377	614.701	86	63
614.476	614.701	65	53
614.476	614.701	77	63
614.577	614.701	82	53
614.577	614.701	94	63
614.692	615.536	56	62
614.692	615.536	68	73
614.905	615.536	74	52
614.973	615.536	77	54
615.04	615.536	82	55
615.106	615.536	55	58
615.106	615.536	67	69
615.106	615.536	86	57
615.177	615.536	89	59
615.248	615.536	94	60
615.318	615.536	53	52
615.318	615.536	65	62
615.318	615.536	98	62
615.536	615.989	58	59
615.536	615.989	70	70
615.745	615.989	50	53
615.745	615.989	62	63
615.745	615.989	79	53
615.818	615.989	82	55
615.891	615.989	87	57
615.961	616.312	51	60
615.961	616.312	63	71
615.961	616.032	91	59
616.032	616.263	94	61
616.103	616.263	99	64
616.173	616.312	103	66
616.428	617.27	52	62
616.428	617.27	64	73
616.64	617.27	70	52
616.708	617.27	73	54
616.774	617.27	78	56
616.841	617.27	51	58
616.841	617.27	63	69
616.841	617.27	82	58
616.912	617.27	85	60
616.983	617.27	90	61
617.052	617.27	49	52
617.052	617.27	61	62
617.052	617.27	94	63
617.27	617.707	54	59
617.27	617.707	66	70
617.48	617.707	46	53
617.48	617.707	58	63
617.48	617.707	71	54
617.551	617.707	75	55
617.625	617.707	78	57
617.696	618.04	47	60
617.696	618.04	59	71
617.696	617.765	83	58
617.765	617.936	87	60
617.832	617.936	90	61
617.9	618.04	95	63
618.152	618.996	48	62
618.152	618.996	60	73
618.368	618.996	66	54
618.437	618.996	68	56
618.504	618.996	74	57
618.571	618.996	47	58
618.571	618.996	59	69
618.571	618.996	78	58
618.64	618.996	80	59
618.709	618.996	86	60
618.778	618.996	45	52
618.778	618.996	57	62
618.778	618.996	90	62
618.996	619.449	50	59
618.996	619.449	62	70
619.206	619.449	42	53
619.206	619.449	54	63
619.206	619.449	67	54
619.276	619.449	71	55
619.351	619.449	74	57
619.422	619.743	43	60
619.422	619.743	55	71
619.422	619.49	79	58
619.49	619.698	83	59
619.558	619.698	86	60
619.625	619.743	91	62
619.859	620.305	44	55
619.859	620.305	56	65
619.967	620.305	59	45
619.967	620.305	71	54
620.074	620.305	50	46
620.074	620.305	62	55
620.18	620.305	65	46
620.18	620.305	77	55
620.285	620.388	45	55
620.285	620.388	57	65
620.388	620.696	60	47
620.388	620.696	72	56
620.49	620.696	51	47
620.49	620.696	63	56
620.59	620.696	66	47
620.59	620.696	78	56
620.69	620.791	46	58
620.69	620.791	58	69
620.791	621.095	63	48
620.791	621.402	75	57
620.892	621.514	55	48
620.892	621.196	67	57
620.994	621.298	70	48
620.994	621.524	82	57
621.095	621.524	51	58
621.095	621.524	63	69
621.196	621.514	67	48
621.196	621.524	79	57
621.298	621.524	58	48
621.298	621.524	70	57
621.402	621.524	75	49
621.402	621.524	87	58
621.514	622.326	55	60
621.514	622.11	67	71
621.614	621.912	70	50
621.614	622.211	82	59
621.713	622.326	63	50
621.713	622.011	75	59
621.812	622.11	79	50
621.812	622.326	91	59
621.912	622.326	58	61
621.912	622.326	70	72
622.011	622.326	75	55
622.011	622.326	87	55
622.11	622.326	67	55
622.11	622.326	79	55
622.211	622.326	82	55
622.211	622.326	94	55
622.326	623.134	65	64
622.326	622.626	77	64
622.426	623.134	80	50
622.426	623.134	92	50
622.526	623.134	62	58
622.526	622.826	74	58
622.626	623.134	77	50
622.626	623.134	89	50
622.726	623.134	58	57
622.726	623.026	70	57
622.826	623.134	74	50
622.826	623.134	86	50
622.926	623.134	56	57
622.926	623.134	68	57
623.026	623.134	70	50
623.026	623.134	82	50
623.134	623.946	53	64
623.134	623.432	65	64
623.233	623.946	68	50
623.233	623.946	80	50
623.333	623.946	50	58
623.333	623.631	62	58
623.432	623.829	65	50
623.432	623.829	77	50
623.531	623.946	46	57
623.531	623.946	58	57
623.631	623.946	62	51
623.631	623.946	74	51
623.73	623.946	44	59
623.73	623.946	56	59
623.829	623.946	65	53
623.829	623.946	77	53
623.946	624.746	41	70
623.946	624.746	53	70
624.046	624.746	68	56
624.046	624.746	80	56
624.146	624.746	38	66
624.146	624.746	50	66
624.246	624.746	70	58
624.246	624.746	82	58
624.346	624.746	34	68
624.346	624.746	46	68
624.446	624.746	74	61
624.446	624.746	86	61
624.546	624.746	33	71
624.546	624.746	45	71
624.646	624.746	77	64
624.646	624.746	89	64
624.746	625.583	32	84
624.746	625.583	44	84
624.846	625.583	80	67
624.846	625.583	92	67
624.946	625.583	31	80
624.946	625.583	43	80
625.046	625.583	82	70
625.046	625.583	94	70
625.145	625.583	29	81
625.145	625.583	41	81
625.245	625.583	84	73
625.245	625.583	96	73
625.347	625.583	34	85
625.347	625.583	46	85
625.451	625.583	86	75
625.451	625.583	98	75
625.556	625.656	27	79
625.556	625.656	39	94
625.656	625.968	87	70
625.656	625.968	99	82
625.756	625.968	34	73
625.756	625.968	46	87
625.856	625.968	89	62
625.856	625.968	94	62
625.856	625.968	98	73
625.856	625.968	101	73
625.956	626.368	39	78
625.956	626.362	51	93
626.056	626.368	91	66
626.056	626.256	94	66
626.056	626.368	99	77
626.056	626.368	103	77
626.156	626.368	46	73
626.156	626.368	58	87
626.256	626.368	89	66
626.256	626.368	94	66
626.256	626.368	98	77
626.256	626.368	101	77
626.362	626.762	51	78
626.362	626.783	63	93
626.462	626.783	91	66
626.462	626.662	94	66
626.462	626.783	99	77
626.462	626.783	103	77
626.562	626.783	46	69
626.562	626.783	58	81
626.662	626.783	89	66
626.662	626.783	94	66
626.662	626.783	98	77
626.662	626.783	101	77
626.762	627.169	39	74
626.762	627.169	51	88
626.862	627.175	91	66
626.862	627.062	94	66
626.862	627.175	99	77
626.862	627.175	103	77
626.962	627.175	34	71
626.962	627.175	46	84
627.062	627.175	89	66
627.062	627.175	94	66
627.062	627.175	98	77
627.062	627.175	101	77
627.169	627.59	39	78
627.169	627.569	51	93
627.269	627.59	91	66
627.269	627.469	94	66
627.269	627.59	99	77
627.269	627.59	103	77
627.369	627.59	46	69
627.369	627.59	58	81
627.469	627.59	89	66
627.469	627.59	94	66
627.469	627.59	98	77
627.469	627.59	101	77
627.569	627.979	51	74
627.569	627.985	63	88
627.669	627.985	91	66
627.669	627.869	94	66
627.669	627.985	99	77
627.669	627.985	103	77
627.769	627.985	46	71
627.769	627.985	58	84
627.869	627.985	89	66
627.869	627.985	94	66
627.869	627.985	98	77
627.869	627.985	101	77
627.979	628.379	39	78
627.979	628.379	51	93
628.079	628.4	91	66
628.079	628.279	94	66
628.079	628.4	99	77
628.079	628.4	103	77
628.179	628.4	34	69
628.179	628.4	46	81
628.279	628.4	89	66
628.279	628.4	94	66
628.279	628.4	98	77
628.279	628.4	101	77
628.379	628.793	39	74
628.379	628.793	51	88
628.48	628.793	91	66
628.48	628.687	94	66
628.48	628.793	99	77
628.48	628.793	103	77
628.582	628.793	46	71
628.582	628.793	58	84
628.687	628.793	89	66
628.687	628.793	94	66
628.687	628.793	98	77
628.687	628.793	101	77
628.793	629.114	51	78
628.793	629.114	63	93
628.793	632.222	91	77
628.793	632.864	94	77
628.793	632.222	99	77
628.793	632.864	103	93
629.114	629.222	51	64
629.114	629.222	55	64
629.114	629.222	58	64
629.114	629.222	63	75
629.114	629.222	67	68
629.114	629.222	70	68
629.114	629.222	75	68
629.114	629.222	79	80
629.222	629.543	51	68
629.222	629.543	55	68
629.222	629.543	58	68
629.222	629.543	63	80
629.222	629.972	67	75
629.222	629.972	70	75
629.222	629.972	75	75
629.222	631.364	79	89
629.543	629.65	39	65
629.543	629.65	46	65
629.543	629.65	51	76
629.543	629.65	55	70
629.543	629.65	58	70
629.543	629.65	63	82
629.65	630.4	39	68
629.65	630.4	46	68
629.65	630.4	51	80
629.65	629.972	55	76
629.65	629.972	58	76
629.65	629.972	63	91
629.972	630.079	55	64
629.972	630.079	58	64
629.972	630.079	63	64
629.972	630.079	67	75
629.972	630.079	70	68
629.972	630.079	75	68
629.972	630.079	82	80
630.079	630.4	55	68
630.079	630.4	58	68
630.079	630.4	63	68
630.079	631.364	67	80
630.079	632.222	70	75
630.079	631.364	75	75
630.079	632.864	82	89
630.4	630.507	39	65
630.4	630.507	46	65
630.4	630.507	51	76
630.4	630.507	55	70
630.4	630.507	58	70
630.4	630.507	63	82
630.507	632.864	39	68
630.507	632.864	46	68
630.507	632.864	51	80
630.507	631.364	55	76
630.507	631.364	58	76
630.507	631.364	63	91
631.364	632.864	55	74
631.364	632.864	58	74
631.364	632.864	63	74
631.364	632.222	67	88
631.364	632.222	75	84
631.364	632.222	79	84
631.364	632.222	87	99
632.222	632.864	67	74
632.222	632.864	70	74
632.222	632.864	75	74
632.222	632.864	79	88
632.222	632.864	87	84
632.222	632.864	91	84
632.222	632.864	99	99
