OnsetTime	OffsetTime	MidiPitch	Velocity
0.500004	0.640217	36	25
0.686954	0.827167	36	22
0.686954	0.827167	43	26
0.686954	0.827167	48	28
0.686954	0.827167	52	33
0.873904	1.01322	36	22
0.873904	1.01322	43	26
0.873904	1.01322	48	28
0.873904	1.01322	52	33
1.05966	1.19898	36	22
1.05966	1.19898	43	27
1.05966	1.19898	48	28
1.05966	1.19898	52	34
1.24542	1.38594	36	22
1.24542	1.38594	43	27
1.24542	1.38594	48	28
1.24542	1.38594	52	34
1.43282	1.57349	36	23
1.43282	1.57349	43	28
1.43282	1.57349	48	28
1.43282	1.57349	52	34
1.62038	1.76013	36	23
1.62038	1.76013	43	28
1.62038	1.76013	48	29
1.62038	1.76013	52	35
1.80672	1.94648	36	24
1.80672	1.94648	43	29
1.80672	1.94648	48	29
1.80672	1.94648	52	35
1.99307	2.13319	36	25
1.99307	2.13319	43	30
1.99307	2.13319	48	30
1.99307	2.13319	52	36
2.17993	2.32014	36	22
2.17993	2.32014	43	27
2.17993	2.32014	48	30
2.17993	2.32014	52	36
2.36688	2.50663	36	23
2.36688	2.50663	43	28
2.36688	2.50663	48	31
2.36688	2.50663	52	37
2.55322	2.69298	36	24
2.55322	2.69298	43	29
2.55322	2.69298	48	32
2.55322	2.69298	52	38
2.73957	2.87978	36	25
2.73957	2.87978	43	30
2.73957	2.87978	48	33
2.73957	2.87978	52	39
2.92652	3.06673	36	25
2.92652	3.06673	43	30
2.92652	3.06673	48	34
2.92652	3.06673	52	40
3.11347	3.25368	36	25
3.11347	3.25368	45	30
3.11347	3.25368	50	34
3.11347	3.25368	54	40
3.30042	3.44063	36	25
3.30042	3.44063	45	30
3.30042	3.44063	50	34
3.30042	3.44063	54	40
3.48737	3.62758	35	25
3.48737	3.62758	43	30
3.48737	4.04822	50	39
3.48737	4.04822	55	46
3.67432	3.81453	35	25
3.67432	3.81453	43	30
3.86127	4.00148	35	25
3.86127	4.00148	43	30
4.04822	4.18843	35	25
4.04822	4.18843	43	30
4.04822	4.1417	59	40
4.1417	4.23517	57	40
4.23517	4.37538	35	25
4.23517	4.37538	43	30
4.23517	4.32865	55	45
4.42212	4.56233	35	25
4.42212	4.56233	43	30
4.60907	4.74928	35	25
4.60907	4.74928	43	30
4.79602	4.94212	35	25
4.79602	4.94212	43	30
4.94212	4.99082	85	46
4.99082	5.13321	35	25
4.99082	5.13321	43	30
4.99082	5.46547	86	57
5.18068	5.32308	35	25
5.18068	5.32308	43	30
5.37054	5.51294	35	25
5.37054	5.51294	43	30
5.46547	5.5604	84	48
5.5604	5.7028	35	25
5.5604	5.7028	43	30
5.5604	5.65533	83	47
5.65533	5.75026	81	45
5.75026	5.89266	35	25
5.75026	5.89266	43	30
5.75026	5.94012	79	44
5.94012	6.08252	35	25
5.94012	6.08252	43	30
6.12998	6.27238	35	25
6.12998	6.27238	43	30
6.31984	6.465	35	25
6.31984	6.465	43	30
6.51339	6.6536	34	26
6.51339	6.6536	41	30
6.51339	6.6536	46	29
6.51339	6.6536	50	35
6.70034	6.84055	34	25
6.70034	6.84055	41	30
6.70034	6.84055	46	29
6.70034	6.84055	50	35
6.88729	7.02616	34	25
6.88729	7.02616	41	30
6.88729	7.02616	46	29
6.88729	7.02616	50	35
7.07245	7.21132	34	26
7.07245	7.21132	41	31
7.07245	7.21132	46	30
7.07245	7.21132	50	36
7.25762	7.39829	34	26
7.25762	7.39829	41	31
7.25762	7.39829	46	31
7.25762	7.39829	50	37
7.44517	7.58584	34	26
7.44517	7.58584	41	31
7.44517	7.58584	46	31
7.44517	7.58584	50	37
7.63273	7.7734	34	26
7.63273	7.7734	41	31
7.63273	7.7734	46	32
7.63273	7.7734	50	38
7.82028	7.96095	34	26
7.82028	7.96095	41	31
7.82028	7.96095	46	33
7.82028	7.96095	50	39
8.00783	8.14805	34	26
8.00783	8.14805	41	31
8.00783	8.14805	46	33
8.00783	8.14805	50	39
8.19478	8.335	34	26
8.19478	8.335	41	31
8.19478	8.335	46	34
8.19478	8.335	50	40
8.38173	8.5224	34	26
8.38173	8.5224	41	31
8.38173	8.5224	46	34
8.38173	8.5224	50	40
8.56929	8.70996	34	26
8.56929	8.70996	41	31
8.56929	8.70996	46	34
8.56929	8.70996	50	40
8.75684	8.89571	34	26
8.75684	8.89571	41	31
8.75684	8.89571	46	34
8.75684	8.89571	50	40
8.94201	9.08088	34	25
8.94201	9.08088	41	30
8.94201	9.08088	46	34
8.94201	9.08088	50	40
9.12717	9.26649	34	25
9.12717	9.26649	43	30
9.12717	9.26649	48	34
9.12717	9.26649	52	40
9.31293	9.45224	34	25
9.31293	9.45224	43	30
9.31293	9.45224	48	34
9.31293	9.45224	52	40
9.49869	9.6384	33	25
9.49869	9.6384	41	30
9.49869	10.0577	48	39
9.49869	10.0577	53	46
9.68499	9.82475	33	25
9.68499	9.82475	41	30
9.87134	10.0111	33	25
9.87134	10.0111	41	30
10.0577	10.1975	33	25
10.0577	10.1975	41	30
10.0577	10.1509	57	40
10.1509	10.244	55	40
10.244	10.3838	33	25
10.244	10.3838	41	30
10.244	10.3372	53	45
10.4304	10.5702	33	25
10.4304	10.5702	41	30
10.6168	10.7565	33	25
10.6168	10.7565	41	30
10.8031	10.9497	33	25
10.8031	10.9497	41	30
10.9497	10.9985	83	46
10.9985	11.1409	32	25
10.9985	11.1409	41	30
10.9985	11.4732	84	57
11.1884	11.3308	32	25
11.1884	11.3308	41	30
11.3783	11.5207	32	25
11.3783	11.5207	41	30
11.4732	11.5681	82	50
11.5681	11.7105	32	25
11.5681	11.7105	41	30
11.5681	11.6631	80	49
11.6631	11.758	79	47
11.758	11.9004	32	25
11.758	11.9004	41	30
11.758	11.9478	77	46
11.9478	12.0902	32	25
11.9478	12.0902	41	30
12.138	12.282	32	25
12.138	12.282	41	30
12.3299	12.4739	32	25
12.3299	12.4739	41	30
12.4739	12.5218	88	67
12.5218	12.6621	31	30
12.5218	12.6621	41	36
12.5218	13.6424	89	73
12.7088	12.849	31	32
12.7088	12.849	41	38
12.8957	13.0351	31	33
12.8957	13.0351	41	39
13.0815	13.2208	31	34
13.0815	13.2208	41	41
13.2673	13.4079	31	36
13.2673	13.4079	41	43
13.4548	13.5955	31	38
13.4548	13.5955	41	45
13.6424	13.783	32	39
13.6424	13.783	41	46
13.6424	13.7362	89	74
13.7362	13.8299	87	73
13.8299	13.9706	32	40
13.8299	13.9706	41	48
13.8299	13.9237	86	71
13.9237	14.0175	84	70
14.0175	14.1577	31	44
14.0175	14.1577	41	52
14.0175	14.1109	83	72
14.1109	14.2044	84	71
14.2044	14.3446	31	44
14.2044	14.3446	41	52
14.2044	14.2979	86	72
14.2979	14.3914	87	73
14.3914	14.533	32	45
14.3914	14.533	41	55
14.3914	14.4858	89	74
14.4858	14.5801	87	72
14.5801	14.7217	32	46
14.5801	14.7217	41	55
14.5801	14.6745	86	71
14.6745	14.7689	84	69
14.7689	14.9091	31	48
14.7689	14.9091	41	58
14.7689	14.8624	83	72
14.8624	14.9559	84	75
14.9559	15.0961	31	51
14.9559	15.0961	41	60
14.9559	15.0493	86	77
15.0493	15.1428	87	80
15.1428	15.283	32	54
15.1428	15.283	41	64
15.1428	15.2363	89	80
15.2363	15.3298	87	80
15.3298	15.47	32	56
15.3298	15.47	41	66
15.3298	15.4232	86	79
15.4232	15.5167	84	81
15.5167	15.9095	31	70
15.5167	15.9095	41	85
15.5167	15.6109	83	85
15.6109	15.7064	84	89
15.7064	15.8045	86	94
15.8045	15.9095	87	98
15.9095	16.8473	43	81
15.9095	16.8473	55	96
15.9095	16.003	89	100
16.003	16.0965	87	98
16.0965	16.1899	86	96
16.1899	16.2834	84	94
16.2834	16.3769	83	93
16.3769	16.4704	80	91
16.4704	16.5638	79	89
16.5638	16.6573	77	87
16.6573	16.7523	75	85
16.7523	16.8473	74	83
16.8473	16.9423	57	67
16.8473	16.9423	72	81
16.9423	17.0373	59	70
16.9423	17.0373	71	79
17.0373	17.1863	60	72
17.0373	17.1863	72	93
17.4347	17.5983	43	56
17.4347	17.5983	55	66
17.4347	17.5983	67	83
17.871	18.0428	39	52
17.871	18.0428	51	62
17.871	18.0428	63	72
18.3291	18.5454	36	48
18.3291	18.5454	48	57
18.3291	18.5454	60	64
18.906	20.6893	31	46
18.906	20.6893	43	54
18.906	20.6893	55	60
20.6893	22.1802	36	30
20.6893	20.8763	48	30
20.6893	20.8295	64	37
20.7828	20.8763	60	33
20.8763	21.0632	48	31
20.8763	21.0165	64	37
20.9697	21.0632	55	26
20.9697	21.0632	60	33
21.0632	21.249	48	31
21.0632	21.2025	64	37
21.1561	21.249	55	27
21.1561	21.249	60	33
21.249	21.4348	48	31
21.249	21.3883	64	36
21.3419	21.4348	55	27
21.3419	21.4348	60	33
21.4348	21.6205	48	31
21.4348	21.5741	64	36
21.5276	21.6205	55	26
21.5276	21.6205	60	33
21.6205	21.8063	48	31
21.6205	21.7599	64	37
21.7134	21.8063	55	27
21.7134	21.8063	60	33
21.8063	21.9932	48	31
21.8063	21.9465	64	36
21.8998	21.9932	55	27
21.8998	21.9932	60	33
21.9932	22.1802	48	31
21.9932	22.1335	64	36
22.0867	22.1802	55	25
22.0867	22.1802	60	33
22.1802	22.3671	48	31
22.1802	22.3204	64	37
22.2737	22.3671	55	26
22.2737	22.3671	60	33
22.3671	22.5541	48	31
22.3671	22.5074	64	37
22.4606	22.5541	55	26
22.4606	22.5541	60	33
22.5541	22.7393	48	31
22.5541	22.693	64	37
22.6467	22.7393	55	27
22.6467	22.7393	60	33
22.7393	22.9244	48	31
22.7393	22.8781	64	36
22.8318	22.9244	55	27
22.8318	22.9244	60	33
22.9244	23.1096	48	31
22.9244	23.0633	64	36
23.017	23.1096	55	26
23.017	23.1096	60	33
23.1096	23.2948	48	31
23.1096	23.2485	64	37
23.2022	23.2948	55	27
23.2022	23.2948	60	33
23.2948	23.4816	48	31
23.2948	23.4348	66	36
23.3881	23.4816	57	27
23.3881	23.4816	62	33
23.4816	23.6685	48	31
23.4816	23.6218	66	36
23.575	23.6685	57	25
23.575	23.6685	62	33
23.6685	23.8555	47	26
23.6685	23.8555	50	31
23.6685	24.2294	67	46
23.762	23.8555	55	25
23.8555	24.0424	47	26
23.8555	24.0424	50	31
23.9489	24.0424	55	25
24.0424	24.2294	47	26
24.0424	24.2294	50	31
24.1359	24.2294	55	25
24.2294	24.4163	47	26
24.2294	24.4163	50	31
24.2294	24.3228	71	40
24.3228	24.4163	55	25
24.3228	24.4163	69	40
24.4163	24.6033	47	26
24.4163	24.6033	50	31
24.4163	24.5098	67	45
24.5098	24.6033	55	25
24.6033	24.7902	47	26
24.6033	24.7902	50	31
24.6967	24.7902	55	25
24.7902	24.9772	47	26
24.7902	24.9772	50	31
24.8837	24.9772	55	25
24.9772	25.1707	47	26
24.9772	25.1707	50	31
25.0739	25.1707	55	25
25.1223	25.1707	85	46
25.1707	25.36	47	26
25.1707	25.36	50	31
25.1707	25.6439	86	57
25.2654	25.36	55	25
25.36	25.5493	47	26
25.36	25.5493	50	31
25.4546	25.5493	55	25
25.5493	25.7386	47	26
25.5493	25.7386	50	31
25.6439	25.7386	55	25
25.6439	25.7386	84	48
25.7386	25.9278	47	26
25.7386	25.9278	50	31
25.7386	25.8332	83	47
25.8332	25.9278	55	25
25.8332	25.9278	81	45
25.9278	26.1171	47	26
25.9278	26.1171	50	31
25.9278	26.1171	79	44
26.0225	26.1171	55	25
26.1171	26.3064	47	26
26.1171	26.3064	50	31
26.2118	26.3064	55	25
26.3064	26.4957	47	26
26.3064	26.4957	50	31
26.4011	26.4957	55	25
26.4957	26.6882	47	26
26.4957	26.6882	50	31
26.592	26.6882	55	25
26.6882	28.1792	38	33
26.6882	26.8752	50	33
26.6882	26.8284	65	40
26.7817	26.8752	62	36
26.8752	27.0621	50	34
26.8752	27.0154	65	40
26.9687	27.0621	57	28
26.9687	27.0621	62	36
27.0621	27.2473	50	34
27.0621	27.201	65	40
27.1547	27.2473	57	29
27.1547	27.2473	62	36
27.2473	27.4325	50	34
27.2473	27.3862	65	39
27.3399	27.4325	57	29
27.3399	27.4325	62	36
27.4325	27.6176	50	34
27.4325	27.5713	65	39
27.525	27.6176	57	28
27.525	27.6176	62	36
27.6176	27.8028	50	34
27.6176	27.7565	65	41
27.7102	27.8028	57	29
27.7102	27.8028	62	36
27.8028	27.991	50	34
27.8028	27.9439	65	40
27.8969	27.991	57	30
27.8969	27.991	62	37
27.991	28.1792	50	35
27.991	28.1321	65	40
28.0851	28.1792	57	28
28.0851	28.1792	62	37
28.1792	28.3661	50	35
28.1792	28.3194	65	41
28.2726	28.3661	57	29
28.2726	28.3661	62	37
28.3661	28.5531	50	35
28.3661	28.5063	65	41
28.4596	28.5531	57	29
28.4596	28.5531	62	37
28.5531	28.7388	50	35
28.5531	28.6924	65	42
28.6459	28.7388	57	30
28.6459	28.7388	62	37
28.7388	28.9246	50	35
28.7388	28.8782	65	41
28.8317	28.9246	57	30
28.8317	28.9246	62	38
28.9246	29.1126	50	36
28.9246	29.0655	65	41
29.0185	29.1126	57	29
29.0185	29.1126	62	38
29.1126	29.3008	50	36
29.1126	29.2537	65	42
29.2067	29.3008	57	31
29.2067	29.3008	62	38
29.3008	29.4889	50	36
29.3008	29.4419	68	41
29.3949	29.4889	59	31
29.3949	29.4889	64	38
29.4889	29.6771	50	36
29.4889	29.6301	68	42
29.583	29.6771	59	29
29.583	29.6771	64	38
29.6771	29.8641	48	30
29.6771	29.8641	52	37
29.6771	30.238	69	55
29.7706	29.8641	57	29
29.8641	30.051	48	30
29.8641	30.051	52	37
29.9576	30.051	57	29
30.051	30.238	48	30
30.051	30.238	52	37
30.1445	30.238	57	29
30.238	30.4249	48	30
30.238	30.4249	52	37
30.238	30.3315	72	48
30.3315	30.4249	57	29
30.3315	30.4249	71	48
30.4249	30.6119	48	30
30.4249	30.6119	52	37
30.4249	30.5184	69	53
30.5184	30.6119	57	29
30.6119	30.7988	48	30
30.6119	30.7988	52	37
30.7054	30.7988	57	29
30.7988	30.9858	48	30
30.7988	30.9858	52	37
30.8923	30.9858	57	29
30.9858	31.18	48	30
30.9858	31.18	52	37
31.0829	31.18	57	29
31.1314	31.18	87	55
31.18	31.3692	48	30
31.18	31.3692	52	37
31.18	31.6532	88	68
31.2746	31.3692	57	29
31.3692	31.5585	48	30
31.3692	31.5585	52	37
31.4639	31.5585	57	29
31.5585	31.7478	48	30
31.5585	31.7478	52	37
31.6532	31.7478	57	29
31.6532	31.7478	86	59
31.7478	31.9371	48	30
31.7478	31.9371	52	39
31.7478	31.8425	84	58
31.8425	31.9371	57	31
31.8425	31.9371	83	57
31.9371	32.1264	48	32
31.9371	32.1264	52	39
31.9371	32.1264	81	57
32.0317	32.1264	57	31
32.1264	32.3157	48	32
32.1264	32.3157	52	41
32.221	32.3157	57	31
32.3157	32.5049	48	33
32.3157	32.5049	52	41
32.4103	32.5049	57	33
32.5049	32.6975	48	35
32.5049	32.6975	52	42
32.6012	32.6975	57	33
32.6493	32.6975	87	66
32.6975	32.8874	48	37
32.6975	32.8874	52	45
32.6975	33.1722	88	85
32.7924	32.8874	58	36
32.8874	33.0772	48	38
32.8874	33.0772	52	45
32.9823	33.0772	58	37
33.0772	33.2671	48	39
33.0772	33.2671	52	47
33.1722	33.2671	58	38
33.1722	33.2671	86	76
33.2671	33.457	48	39
33.2671	33.457	52	47
33.2671	33.362	84	75
33.362	33.457	58	38
33.362	33.457	83	71
33.457	33.6468	48	41
33.457	33.6468	52	50
33.457	33.6468	82	71
33.5519	33.6468	58	40
33.6468	33.8367	48	41
33.6468	33.8367	52	51
33.7418	33.8367	58	40
33.8367	34.0266	48	42
33.8367	34.0266	52	51
33.9317	34.0266	58	42
34.0266	34.2227	48	43
34.0266	34.2227	52	53
34.1246	34.2227	58	42
34.2227	34.3317	47	40
34.2227	34.7056	83	56
34.3161	34.4252	51	35
34.4096	34.5187	54	35
34.5031	34.5966	59	35
34.5966	34.7056	47	41
34.69	34.7991	51	35
34.69	34.7991	81	54
34.7835	34.8926	54	35
34.7835	34.8926	79	53
34.877	34.9705	59	35
34.877	34.986	78	51
34.9705	35.0795	47	39
34.9705	35.0795	79	53
35.0639	35.173	52	35
35.0639	35.173	78	52
35.1574	35.2665	55	35
35.1574	35.2665	76	51
35.2509	35.3444	59	35
35.2509	35.3599	75	50
35.3444	35.4534	47	40
35.3444	35.4534	76	50
35.4378	35.5469	52	35
35.4378	35.5469	79	52
35.5313	35.6404	55	35
35.5313	35.6404	78	50
35.6248	35.7183	59	35
35.6248	35.7338	76	50
35.7183	35.8273	47	40
35.7183	35.8273	75	50
35.8117	35.9208	54	35
35.8117	35.9208	73	49
35.9052	36.0145	57	35
35.9052	36.0145	71	48
35.9989	36.0927	59	35
35.9989	36.1083	70	47
36.0927	36.2021	47	40
36.0927	36.2021	71	49
36.1864	36.2962	54	35
36.1864	36.2962	73	49
36.2805	36.3903	57	35
36.2805	36.3903	74	49
36.3746	36.4688	59	35
36.3746	36.4845	75	50
36.4688	36.5789	47	40
36.4688	36.5789	76	50
36.5632	36.6733	52	35
36.5632	36.6733	75	50
36.6575	36.7679	55	35
36.6575	36.7679	76	51
36.7521	36.8468	59	35
36.7521	36.8626	78	51
36.8468	36.9574	47	40
36.8468	36.9574	79	49
36.9415	37.0524	52	35
36.9415	37.0524	80	50
37.0365	37.1474	55	35
37.0365	37.1474	81	52
37.1316	37.2268	59	35
37.1316	37.2425	82	53
37.2268	37.3365	47	40
37.2268	37.3365	83	55
37.3209	37.4306	51	35
37.3209	37.4306	82	53
37.4149	37.5245	54	35
37.4149	37.5245	83	53
37.5089	37.6027	59	35
37.5089	37.6183	82	50
37.6027	37.7121	47	40
37.6027	37.7121	83	52
37.6965	37.8056	51	35
37.6965	37.8056	81	52
37.79	37.8991	54	35
37.79	37.8991	79	51
37.8835	37.977	59	35
37.8835	37.9926	78	50
37.977	38.086	47	40
37.977	38.086	79	52
38.0705	38.1795	52	35
38.0705	38.1795	78	51
38.1639	38.273	55	35
38.1639	38.273	76	49
38.2574	38.3509	59	35
38.2574	38.3665	75	50
38.3509	38.4599	47	41
38.3509	38.4599	76	50
38.4444	38.5534	52	35
38.4444	38.5534	79	53
38.5378	38.6469	55	35
38.5378	38.6469	78	50
38.6313	38.7248	59	35
38.6313	38.7404	76	50
38.7248	38.8338	47	40
38.7248	38.8338	75	50
38.8183	38.9273	54	35
38.8183	38.9273	73	49
38.9117	39.0208	57	35
38.9117	39.0208	71	48
39.0052	39.0987	59	35
39.0052	39.1143	70	47
39.0987	39.2077	47	40
39.0987	39.2077	71	49
39.1922	39.3012	54	36
39.1922	39.3012	73	50
39.2856	39.3947	57	36
39.2856	39.3947	74	50
39.3791	39.4726	59	36
39.3791	39.4882	75	52
39.4726	39.5816	47	42
39.4726	39.5816	76	52
39.5661	39.6751	52	36
39.5661	39.6751	75	52
39.6595	39.7686	55	37
39.6595	39.7686	76	54
39.753	39.8465	59	37
39.753	39.8621	78	54
39.8465	39.9555	47	42
39.8465	39.9555	79	56
39.94	40.0498	52	37
39.94	40.0498	80	58
40.0334	40.148	55	37
40.0334	40.148	81	60
40.1317	40.2299	59	38
40.1317	40.2455	82	62
40.2299	40.6108	47	44
40.2299	40.6108	83	68
40.3234	40.6108	51	38
40.3234	40.6108	78	60
40.4169	40.6108	54	38
40.4169	40.6108	75	61
40.5103	40.6108	59	38
40.5103	40.6108	71	61
40.6038	40.9816	58	50
40.6038	40.9816	70	75
40.6973	40.9816	59	41
40.6973	40.9816	71	63
40.7908	40.9816	55	40
40.7908	40.9816	76	63
40.8842	40.9816	52	41
40.8842	40.9816	79	63
40.9777	41.3594	47	52
40.9777	41.3594	83	74
41.0712	41.3594	51	44
41.0712	41.3594	78	65
41.1647	41.3594	54	45
41.1647	41.3594	75	68
41.2581	41.3594	59	45
41.2581	41.3594	71	68
41.3516	41.7302	58	60
41.3516	41.7302	70	80
41.4451	41.7302	59	51
41.4451	41.7302	71	71
41.5386	41.7302	55	51
41.5386	41.7302	76	71
41.632	41.7302	52	52
41.632	41.7302	79	72
41.7255	42.0994	47	63
41.7255	42.0994	83	91
41.819	42.1041	51	52
41.819	42.1041	78	82
41.9125	42.1041	54	52
41.9125	42.1041	75	82
42.006	42.1041	59	52
42.006	42.1041	71	82
42.0994	42.4733	47	63
42.0994	42.4733	83	91
42.1929	42.478	52	52
42.1929	42.478	79	82
42.2864	42.478	55	52
42.2864	42.478	76	82
42.3799	42.478	59	52
42.3799	42.478	71	82
42.4733	42.8472	47	63
42.4733	42.8472	83	91
42.5668	42.8519	51	52
42.5668	42.8519	78	82
42.6603	42.8519	54	52
42.6603	42.8519	75	81
42.7538	42.8519	59	52
42.7538	42.8519	71	81
42.8472	43.2212	47	63
42.8472	43.2212	83	91
42.9407	43.2235	52	52
42.9407	43.2235	79	81
43.0342	43.2235	55	52
43.0342	43.2235	76	81
43.1277	43.2212	59	52
43.1277	43.2235	71	82
43.2212	44.7321	47	54
43.2212	44.7321	51	54
43.2212	44.7321	54	54
43.2212	44.6322	59	63
43.2212	44.7321	83	91
43.3149	43.5963	78	82
43.4087	43.6901	75	82
43.5025	43.7841	71	82
43.5963	44.7321	78	91
43.6901	43.9722	75	82
43.7841	44.0663	71	82
43.8782	44.1604	66	82
43.9722	44.7321	75	91
44.0663	44.349	71	82
44.1604	44.4434	66	81
44.2546	44.5378	63	81
44.349	44.7321	71	91
44.4434	44.7267	66	81
44.5378	44.7321	63	81
44.6322	44.7321	59	82
44.7267	46.2502	66	91
44.8204	45.1023	63	81
44.9142	45.1965	59	80
45.0082	45.2909	54	80
45.1023	46.2502	63	89
45.1965	45.48	59	79
45.2909	45.5747	54	79
45.3853	45.6696	51	78
45.48	46.2502	59	87
45.5747	46.2502	54	78
45.6696	46.2502	51	77
45.7646	46.1503	47	77
45.8597	46.2502	35	85
45.955	46.2502	39	76
46.0503	46.2502	42	76
46.1503	46.2502	47	75
46.2502	46.3461	35	77
46.4421	46.538	47	68
46.634	46.73	37	73
46.8259	46.9219	49	66
47.0178	47.1138	39	71
47.0178	47.1138	71	75
47.2097	47.3057	51	65
47.2097	47.3057	59	69
47.4017	47.4976	73	74
47.5936	47.6938	61	65
47.7941	47.89	39	69
47.7941	47.89	75	71
47.986	48.082	51	61
47.986	48.082	63	64
48.1782	48.2745	40	65
48.3709	48.4675	52	59
48.5641	48.6609	42	65
48.5641	48.6609	75	67
48.7578	48.8547	54	54
48.7578	48.8547	63	53
48.952	49.0492	76	59
49.1467	49.2442	64	50
49.3418	49.4387	78	52
49.5356	49.6327	66	49
49.7299	49.8271	80	52
49.9246	50.0222	68	49
50.1198	50.2177	42	41
50.1198	50.2177	81	52
50.3156	50.4135	54	36
50.3156	50.4135	69	48
50.5114	50.609	44	41
50.5114	50.609	81	52
50.7067	50.8046	56	36
50.7067	50.8046	71	46
50.9028	51.0012	45	40
50.9028	51.0012	81	51
51.0997	51.1986	57	37
51.0997	51.1986	73	46
51.2976	51.3969	47	39
51.2976	51.3969	81	51
51.4964	51.5961	59	36
51.4964	51.5961	75	46
51.6961	51.7953	49	38
51.6961	51.7953	81	51
51.8956	51.9976	61	37
51.8956	51.9976	76	47
52.1014	52.2095	51	40
52.1014	52.2095	81	50
52.3246	52.4474	63	37
52.3246	52.4474	78	46
52.5815	53.462	64	33
52.5815	53.462	68	39
52.5815	53.462	71	42
52.5815	53.462	76	42
52.5815	53.462	80	55
53.462	53.8926	59	29
53.462	53.8926	63	29
53.462	53.8926	66	35
53.462	53.8926	69	40
53.462	53.8926	75	40
53.462	53.8926	78	52
53.8926	54.3483	61	29
53.8926	54.3483	64	35
53.8926	54.3483	68	40
53.8926	54.3483	73	40
53.8926	54.3483	76	52
54.3483	55.2321	56	33
54.3483	55.2321	60	33
54.3483	55.2321	63	39
54.3483	55.2321	66	42
54.3483	55.2321	72	42
54.3483	55.2321	75	55
55.2321	56.1369	57	28
55.2321	56.1369	61	34
55.2321	56.1369	64	40
55.2321	56.1369	73	52
56.1369	57.0274	54	37
56.1369	57.0274	57	45
56.1369	57.0274	59	37
56.1369	57.0274	63	45
56.1369	57.0274	69	49
56.1369	57.0274	71	49
56.1369	57.0274	75	63
57.0274	57.4925	56	40
57.0274	57.4925	59	40
57.0274	57.4925	64	49
57.0274	57.4925	71	50
57.0274	57.4925	76	66
57.4925	57.9823	57	46
57.4925	57.9823	61	42
57.4925	57.9823	66	51
57.4925	57.9823	73	48
57.4925	57.9823	76	55
57.4925	57.9823	78	72
57.9823	59.8193	59	49
57.9823	58.8914	64	49
57.9823	58.8914	68	59
57.9823	59.3548	71	59
57.9823	58.8914	76	59
57.9823	58.8914	80	77
58.8914	59.8213	63	27
58.8914	59.8213	66	32
58.8914	59.8213	75	32
58.8914	59.8213	78	49
59.3548	59.8213	69	48
59.8213	60.7018	52	29
59.8213	60.7018	56	35
59.8213	60.7018	59	37
59.8213	60.7018	64	37
59.8213	60.7018	68	45
60.7018	61.1324	47	26
60.7018	61.1324	51	26
60.7018	61.1324	54	31
60.7018	61.1324	57	36
60.7018	61.1324	63	36
60.7018	61.1324	66	43
61.1324	61.5881	49	26
61.1324	61.5881	52	31
61.1324	61.5881	56	36
61.1324	61.5881	61	36
61.1324	61.5881	64	43
61.5881	62.4719	44	29
61.5881	62.4719	48	29
61.5881	62.4719	51	35
61.5881	62.4719	54	37
61.5881	62.4719	60	37
61.5881	62.4719	63	45
62.4719	63.3766	45	25
62.4719	63.3766	49	30
62.4719	63.3766	52	36
62.4719	63.3766	57	36
62.4719	63.3766	61	43
63.3766	65.1633	35	33
63.3766	65.1633	47	40
63.3766	63.8219	52	44
63.3766	63.8219	56	44
63.3766	64.2672	59	52
63.8219	65.1633	54	50
63.8219	65.1633	57	50
64.2672	64.7026	61	61
64.7026	65.1633	63	69
65.1633	65.6143	40	38
65.1633	65.6143	52	43
65.1633	65.3136	56	43
65.1633	65.276	64	49
65.3136	65.4264	66	48
65.464	65.5767	68	49
65.6143	65.7266	69	47
65.7641	65.8764	71	48
65.9139	66.0262	73	49
66.0636	66.1755	74	50
66.2128	66.3247	75	51
66.362	66.4739	76	52
66.5112	66.6231	77	52
66.6604	66.7722	78	53
66.8095	66.9214	79	53
66.9587	67.827	64	37
66.9587	67.827	68	44
66.9587	67.827	71	45
66.9587	67.1034	80	57
67.1034	67.2481	79	53
67.2481	67.3928	80	53
67.3928	67.5375	81	53
67.5375	67.6822	79	53
67.6822	67.827	80	53
67.827	68.2515	59	33
67.827	68.2515	63	33
67.827	68.2515	66	40
67.827	68.2515	69	60
67.9685	68.11	80	54
68.11	68.2515	78	54
68.2515	68.7008	61	33
68.2515	68.7008	64	40
68.2515	68.7008	68	60
68.4013	68.5511	78	53
68.5511	68.7008	76	53
68.7008	69.5723	56	37
68.7008	69.5723	60	37
68.7008	69.5723	63	44
68.7008	69.5723	66	60
68.8461	68.9913	72	54
68.9913	69.1366	75	54
69.1366	69.2818	76	54
69.2818	69.4271	72	54
69.4271	69.5723	75	54
69.5723	70.4644	57	32
69.5723	70.4644	61	39
69.5723	70.4644	64	60
69.7176	69.8629	69	54
69.8629	70.0081	73	54
70.0081	70.1602	75	54
70.1602	70.3123	69	54
70.3123	70.4644	73	54
70.4644	71.3426	54	39
70.4644	71.3426	57	47
70.4644	71.3426	59	39
70.4644	71.3426	63	47
70.4644	71.3426	69	62
70.6108	70.7571	74	62
70.7571	70.9035	75	57
70.9035	71.0499	76	57
71.0499	71.1962	74	59
71.1962	71.3426	75	59
71.3426	71.7719	56	45
71.3426	71.7719	59	45
71.3426	71.7719	64	53
71.3426	71.7719	71	71
71.4857	71.6288	78	63
71.6288	71.7719	76	64
71.7719	72.2264	57	49
71.7719	72.2264	61	49
71.7719	72.2264	66	59
71.7719	72.2264	73	74
71.9234	72.0749	80	65
72.0749	72.2264	78	65
72.2264	73.9967	59	53
72.2264	73.0979	64	53
72.2264	73.0979	68	65
72.2264	73.0979	76	79
72.2264	72.3717	80	79
72.3717	72.5169	79	72
72.5169	72.6622	80	72
72.6622	72.8074	83	68
72.8074	72.9527	81	72
72.9527	73.0979	80	69
73.0979	73.5387	63	45
73.0979	73.5387	66	53
73.0979	73.2448	75	67
73.0979	73.2448	78	67
73.2448	73.3918	73	64
73.2448	73.3918	76	64
73.3918	73.5387	71	60
73.3918	73.5387	75	60
73.5387	73.692	47	44
73.5387	73.692	69	60
73.5387	73.692	73	60
73.692	73.8453	49	43
73.692	73.8453	68	56
73.692	73.8453	71	56
73.8453	73.9986	51	41
73.8453	73.9986	66	53
73.8453	73.9986	69	53
73.9986	74.8669	52	37
73.9986	74.8669	56	45
73.9986	74.8669	59	57
73.9986	74.1433	68	57
74.1433	74.2881	67	49
74.2881	74.4328	68	49
74.4328	74.5775	69	49
74.5775	74.7222	67	49
74.7222	74.8669	68	49
74.8669	75.2915	47	33
74.8669	75.2915	51	33
74.8669	75.2915	54	41
74.8669	75.2915	57	56
75.0084	75.1499	68	50
75.1499	75.2915	66	50
75.2915	75.7407	49	33
75.2915	75.7407	52	41
75.2915	75.7407	56	56
75.4412	75.591	66	49
75.591	75.7407	64	49
75.7407	76.6123	44	37
75.7407	76.6123	48	37
75.7407	76.6123	51	37
75.7407	76.6123	54	49
75.886	76.0312	60	50
76.0312	76.1765	63	50
76.1765	76.3218	64	53
76.3218	76.467	60	50
76.467	76.6123	63	50
76.6123	77.5044	45	39
76.6123	77.5044	49	39
76.6123	77.5044	52	32
76.7575	76.9028	57	50
76.9028	77.048	61	50
77.048	77.2001	63	53
77.2001	77.3522	57	50
77.3522	77.5044	61	50
77.5044	79.3227	35	46
77.5044	79.3227	47	55
77.5044	77.959	52	60
77.6507	77.959	56	56
77.7971	77.959	59	57
77.9516	78.406	54	66
78.0996	78.4108	57	61
78.2477	78.4108	59	61
78.406	78.8619	54	74
78.5576	78.8638	57	67
78.7073	78.8638	61	65
78.8619	79.3227	54	80
79.0122	79.3227	57	71
79.1626	79.3227	63	70
79.3172	80.2005	40	50
79.3172	80.2005	52	60
79.3172	79.6088	56	77
79.3172	79.9004	64	82
79.463	79.7546	59	75
79.6088	80.2005	56	77
79.7546	80.6317	47	76
79.7546	80.2005	59	82
79.9004	80.2005	64	77
80.0462	80.2005	68	77
80.196	80.777	66	82
80.3412	80.6317	63	77
80.4865	81.0771	59	77
80.6317	81.5035	47	76
80.6317	81.0771	63	82
80.777	81.0771	66	77
80.9222	81.0771	69	77
81.0726	81.6471	68	82
81.2162	81.5035	64	75
81.3598	81.9476	59	77
81.5035	82.3743	47	75
81.5035	81.9476	64	82
81.6471	81.9476	68	77
81.7907	81.9476	71	77
81.9405	82.5168	69	82
82.0831	82.6594	66	77
82.2257	82.8055	63	77
82.3743	82.8055	47	74
82.3743	82.8055	75	82
82.5168	82.8055	69	77
82.6594	82.8055	66	77
82.802	83.3702	52	73
82.802	83.6636	68	63
82.802	83.6636	76	75
82.944	83.2281	47	67
83.0861	83.6636	44	69
83.2281	83.6636	47	73
83.2281	84.0884	71	80
83.3702	83.6636	52	69
83.5122	83.6636	56	69
83.6591	84.2315	54	73
83.8022	84.0884	51	69
83.9453	84.5274	47	69
84.0884	84.5274	51	73
84.0884	84.9514	71	80
84.2315	84.5274	54	69
84.3746	84.5274	57	69
84.5221	85.0945	56	73
84.6652	84.9514	52	67
84.8083	85.3877	47	69
84.9514	85.3877	52	73
84.9514	85.8204	71	80
85.0945	85.3877	56	69
85.2376	85.3877	59	69
85.385	85.9629	57	73
85.5287	86.1055	54	69
85.6723	86.258	51	69
85.8204	86.258	63	73
85.8204	86.258	71	80
85.9629	86.258	57	69
86.1055	86.258	54	69
86.2535	86.8217	56	64
86.2535	86.8217	76	82
86.3956	86.6797	59	56
86.3956	86.6797	71	75
86.5376	87.1178	64	56
86.5376	87.1178	68	77
86.6797	87.1178	59	64
86.6797	87.1178	71	82
86.8217	87.1178	56	57
86.8217	87.1178	76	77
86.9638	87.1178	52	57
86.9638	87.1178	80	77
87.1107	87.681	51	64
87.1107	87.681	78	82
87.2533	87.5384	54	56
87.2533	87.5384	75	77
87.3958	87.9752	57	56
87.3958	87.9752	71	77
87.5384	87.9752	54	64
87.5384	87.9752	75	82
87.681	87.9752	51	57
87.681	87.9752	78	77
87.8235	87.9752	47	58
87.8235	87.9752	81	77
87.9699	88.536	80	82
87.9752	88.536	52	64
88.1114	88.3945	56	56
88.1114	88.3945	76	75
88.253	88.8407	59	56
88.253	88.8407	71	77
88.3945	88.8407	56	64
88.3945	88.8407	76	82
88.536	88.8407	52	57
88.536	88.8407	80	77
88.6776	88.8407	83	77
88.6834	88.8407	47	57
88.8327	89.6992	51	64
88.8327	89.4117	81	82
88.9748	89.2702	57	56
88.9748	89.5532	78	77
89.1168	89.6992	75	77
89.1226	89.4117	59	56
89.2702	89.6992	57	64
89.2702	89.6992	87	82
89.4117	89.6992	59	57
89.4117	89.6992	81	77
89.5532	89.6992	66	58
89.5532	89.6992	78	77
89.6948	90.2588	56	64
89.6948	90.5514	88	84
89.8358	90.3998	59	55
89.8358	90.1178	83	74
89.9768	90.5514	64	55
89.9768	90.2588	80	74
90.1178	90.5514	52	62
90.1178	90.5514	83	79
90.2588	90.5514	56	55
90.2588	90.5514	80	73
90.3998	90.5514	59	54
90.3998	90.5514	76	72
90.5462	91.4076	54	59
90.5462	91.4076	81	78
90.6867	90.9677	57	51
90.6867	91.2486	78	71
90.8272	91.1082	59	51
90.8272	91.4076	75	70
90.9677	91.4076	57	57
90.9677	91.4076	87	77
91.1082	91.4076	59	51
91.1082	91.4076	83	69
91.2486	91.4076	66	51
91.2486	91.4076	78	67
91.4032	91.9631	56	56
91.4032	92.2553	88	74
91.5432	92.1031	59	48
91.5432	91.8232	83	65
91.6832	92.2553	64	48
91.6832	91.9631	80	65
91.8232	92.2553	52	54
91.8232	92.2553	83	72
91.9631	92.2553	56	48
91.9631	92.2553	80	64
92.1031	92.2553	59	47
92.1031	92.2553	76	63
92.25	93.1046	54	51
92.25	93.1046	81	69
92.3895	92.6685	57	44
92.3895	92.9475	78	62
92.529	92.808	59	44
92.529	93.1046	75	60
92.6685	93.1046	57	50
92.6685	93.1046	87	68
92.808	93.1046	59	44
92.808	93.1046	83	59
92.9475	93.1046	66	44
92.9475	93.1046	78	58
93.102	93.2055	56	50
93.102	93.2055	88	64
93.2055	93.3088	59	43
93.2055	93.3088	83	58
93.3088	93.4119	52	43
93.3088	93.4119	80	58
93.4119	93.5147	59	44
93.4119	93.5147	76	59
93.5147	93.6171	54	51
93.5147	93.6171	81	65
93.6171	93.7193	59	44
93.6171	93.7193	78	59
93.7193	93.8213	57	44
93.7193	93.8213	87	62
93.8213	93.923	59	44
93.8213	93.923	83	63
93.923	94.0244	56	52
93.923	94.0244	88	69
94.0244	94.1257	59	46
94.0244	94.1257	83	63
94.1257	94.227	52	47
94.1257	94.227	80	63
94.227	94.3283	59	49
94.227	94.3283	76	64
94.3283	94.4297	54	55
94.3283	94.4297	81	71
94.4297	94.531	59	48
94.4297	94.531	78	66
94.531	94.6323	57	48
94.531	94.6323	87	67
94.6323	94.7402	59	49
94.6323	94.7402	83	67
94.7402	94.8408	56	58
94.7402	94.8408	88	74
94.8408	94.9413	59	50
94.8408	94.9413	83	67
94.9413	95.0415	57	51
94.9413	95.0415	87	69
95.0415	95.1415	59	52
95.0415	95.1415	83	69
95.1415	95.2414	56	60
95.1415	95.2414	88	77
95.2414	95.341	59	52
95.2414	95.341	83	77
95.341	95.4404	57	52
95.341	95.4404	87	72
95.4404	95.5396	59	54
95.4404	95.5396	83	73
95.5396	95.6385	56	62
95.5396	95.6385	88	80
95.6385	95.7374	59	55
95.6385	95.7374	83	73
95.7374	95.8363	57	55
95.7374	95.8363	87	74
95.8363	95.9352	59	57
95.8363	95.9352	83	74
95.9352	96.0341	56	65
95.9352	96.0341	88	82
96.0341	96.133	59	57
96.0341	96.133	83	85
96.133	96.2319	57	57
96.133	96.2319	87	78
96.2319	96.3404	59	58
96.2319	96.3404	83	79
96.3404	96.439	56	70
96.3404	96.439	88	89
96.439	96.5375	59	60
96.439	96.5375	83	81
96.5375	96.636	44	60
96.5375	96.636	86	81
96.636	96.7342	52	62
96.636	96.7342	83	81
96.7342	96.9304	44	70
96.7342	96.9304	86	89
96.8324	97.0283	52	60
96.8324	97.0283	83	83
96.9304	97.1262	44	60
96.9304	97.1262	86	82
97.0283	97.2237	52	60
97.0283	97.2237	83	82
97.1262	97.3213	44	70
97.1262	97.3213	86	89
97.2237	97.4189	52	60
97.2237	97.4189	83	81
97.3213	97.5164	44	60
97.3213	97.5164	86	81
97.4189	97.614	52	62
97.4189	97.614	83	81
97.5164	97.7116	44	70
97.5164	97.7116	86	89
97.614	97.8091	52	60
97.614	97.8091	83	83
97.7116	97.9105	44	60
97.7116	97.9105	86	82
97.8091	97.9192	52	60
97.8091	97.9192	83	82
97.9105	98.1005	44	70
97.9105	98.6784	86	89
98.0055	98.1955	52	60
98.1005	98.2905	44	60
98.1005	98.6784	85	81
98.1955	98.3855	52	62
98.1955	98.6784	83	81
98.2905	98.4805	44	70
98.2905	98.6784	81	88
98.3855	98.5755	52	60
98.3855	98.6784	80	83
98.4805	98.6705	44	60
98.4805	98.6784	78	83
98.5755	98.6784	52	61
98.5755	98.6784	76	83
98.6705	98.8605	44	71
98.6705	99.5051	74	88
98.7655	98.9555	52	61
98.7655	99.5051	73	82
98.8605	99.0505	44	61
98.8605	99.5051	71	83
98.9555	99.1455	52	63
98.9555	99.5051	69	83
99.0505	99.2405	44	72
99.0505	99.5051	68	91
99.1455	99.3355	52	62
99.1455	99.5051	66	86
99.2405	99.5051	44	62
99.2405	99.5051	64	85
99.3355	99.4305	52	62
99.3355	99.5051	62	85
99.4305	99.5691	45	67
99.4305	99.5691	49	67
99.4305	99.5691	52	80
99.4305	99.5227	61	93
99.5227	99.6161	63	84
99.6161	99.7559	45	60
99.6161	99.7559	49	60
99.6161	99.7559	52	73
99.6161	99.7092	64	84
99.7092	99.8029	63	86
99.8029	99.8963	64	92
99.8963	99.9892	68	85
99.9892	100.136	45	60
99.9892	100.136	49	60
99.9892	100.136	52	73
99.9892	100.087	69	85
100.087	100.185	68	85
100.185	100.324	45	67
100.185	100.324	49	67
100.185	100.324	52	80
100.185	100.278	69	93
100.278	100.371	72	84
100.371	100.51	45	60
100.371	100.51	49	60
100.371	100.51	52	73
100.371	100.464	73	84
100.464	100.556	72	84
100.556	100.65	73	93
100.65	100.743	75	84
100.743	100.889	45	60
100.743	100.889	49	60
100.743	100.889	52	73
100.743	100.841	76	84
100.841	100.938	75	84
100.938	101.077	45	67
100.938	101.077	49	67
100.938	101.077	52	78
100.938	101.031	76	95
101.031	101.125	80	86
101.125	101.264	45	60
101.125	101.264	49	60
101.125	101.264	52	73
101.125	101.217	81	86
101.217	101.311	80	86
101.311	101.403	81	95
101.403	101.497	84	86
101.497	101.642	45	60
101.497	101.642	49	60
101.497	101.642	52	73
101.497	101.594	85	86
101.594	101.691	84	86
101.691	101.83	45	67
101.691	101.83	49	67
101.691	101.83	52	78
101.691	101.783	85	95
101.783	101.877	87	86
101.877	102.015	45	60
101.877	102.015	49	60
101.877	102.015	52	73
101.877	101.969	88	86
101.969	102.062	87	86
102.062	102.155	88	95
102.155	102.249	87	86
102.249	102.4	45	60
102.249	102.4	49	60
102.249	102.4	52	73
102.249	102.35	85	86
102.35	102.449	84	86
102.449	102.589	46	67
102.449	102.589	49	67
102.449	102.589	52	67
102.449	102.589	54	78
102.449	102.542	85	95
102.542	102.636	84	86
102.636	102.776	46	60
102.636	102.776	49	60
102.636	102.776	52	60
102.636	102.776	54	73
102.636	102.729	85	86
102.729	102.822	87	86
102.822	102.916	88	95
102.916	103.009	87	86
103.009	103.155	46	60
103.009	103.155	49	60
103.009	103.155	52	60
103.009	103.155	54	73
103.009	103.106	85	86
103.106	103.203	84	86
103.203	103.342	46	67
103.203	103.342	49	67
103.203	103.342	52	67
103.203	103.342	54	78
103.203	103.296	85	95
103.296	103.389	84	86
103.389	103.53	46	60
103.389	103.53	49	60
103.389	103.53	52	60
103.389	103.53	54	73
103.389	103.483	85	86
103.483	103.576	87	86
103.576	103.67	88	95
103.67	103.764	87	86
103.764	103.908	46	60
103.764	103.908	49	60
103.764	103.908	52	60
103.764	103.908	54	73
103.764	103.86	85	86
103.86	103.957	84	86
103.957	104.096	46	67
103.957	104.096	49	67
103.957	104.096	52	67
103.957	104.096	54	78
103.957	104.05	85	95
104.05	104.143	84	86
104.143	104.284	46	60
104.143	104.284	49	60
104.143	104.284	52	60
104.143	104.284	54	73
104.143	104.237	85	86
104.237	104.33	87	86
104.33	104.423	88	95
104.423	104.516	87	86
104.516	104.662	46	60
104.516	104.662	49	60
104.516	104.662	52	60
104.516	104.662	54	73
104.516	104.613	85	86
104.613	104.71	84	86
104.71	104.85	46	67
104.71	104.85	49	67
104.71	104.85	52	67
104.71	104.85	54	78
104.71	104.803	85	95
104.803	104.897	84	86
104.897	105.036	46	60
104.897	105.036	49	60
104.897	105.036	52	60
104.897	105.036	54	73
104.897	104.99	85	86
104.99	105.083	87	86
105.083	105.176	88	95
105.176	105.269	87	86
105.269	105.414	46	60
105.269	105.414	49	60
105.269	105.414	52	60
105.269	105.414	54	73
105.269	105.366	88	86
105.366	105.462	85	86
105.462	105.556	47	78
105.462	105.556	71	87
105.462	105.556	83	103
105.556	105.649	52	70
105.649	105.743	56	70
105.649	105.743	71	73
105.649	105.743	83	87
105.743	105.836	59	70
105.836	105.931	47	77
105.836	105.931	68	74
105.836	105.931	80	88
105.931	106.026	52	70
106.026	106.12	56	70
106.026	106.12	64	73
106.026	106.12	76	87
106.12	106.215	59	70
106.215	106.308	47	75
106.215	106.308	76	87
106.215	106.308	88	103
106.308	106.402	52	70
106.402	106.495	56	70
106.402	106.495	76	73
106.402	106.495	88	87
106.495	106.589	59	70
106.589	106.684	47	75
106.589	106.684	71	73
106.589	106.684	83	87
106.684	106.78	52	70
106.78	106.875	56	70
106.78	106.875	68	73
106.78	106.875	80	87
106.875	106.97	59	70
106.97	107.063	47	78
106.97	107.063	71	87
106.97	107.063	83	103
107.063	107.157	52	70
107.157	107.25	56	70
107.157	107.25	71	73
107.157	107.25	83	87
107.25	107.343	59	70
107.343	107.438	47	77
107.343	107.438	68	74
107.343	107.438	80	88
107.438	107.532	52	70
107.532	107.627	56	70
107.532	107.627	64	73
107.532	107.627	76	87
107.627	107.721	59	70
107.721	107.814	56	75
107.721	107.814	76	87
107.721	107.814	88	103
107.908	108.001	56	70
107.908	108.001	76	73
107.908	108.001	88	87
108.095	108.19	52	75
108.095	108.19	71	73
108.095	108.19	83	87
108.284	108.379	47	70
108.284	108.379	68	73
108.284	108.379	80	87
108.474	108.567	59	86
108.567	108.661	80	47
108.661	108.754	56	47
108.661	108.848	83	50
108.754	108.848	80	47
108.848	108.941	64	53
108.848	109.035	83	51
108.941	109.035	80	47
109.035	109.128	59	48
109.035	109.221	83	50
109.128	109.221	80	47
109.221	109.314	68	52
109.221	109.407	83	51
109.314	109.407	80	47
109.407	109.499	64	41
109.407	109.592	83	50
109.499	109.592	80	47
109.592	109.684	71	50
109.592	109.777	83	52
109.684	109.777	80	47
109.777	109.87	68	41
109.777	109.962	83	51
109.87	109.962	80	47
109.962	110.055	76	50
109.962	110.148	83	50
110.055	110.148	80	47
110.148	110.241	71	41
110.148	110.335	83	50
110.241	110.335	80	47
110.335	110.428	76	50
110.335	110.521	83	51
110.428	110.521	80	47
110.521	110.614	71	39
110.521	110.707	83	50
110.614	110.707	80	47
110.707	110.801	76	50
110.707	110.894	83	51
110.801	110.894	80	47
110.894	110.988	71	41
110.894	111.082	83	50
110.988	111.082	80	47
111.082	111.176	76	50
111.082	111.27	83	52
111.176	111.27	80	47
111.27	111.365	71	42
111.27	111.461	83	51
111.365	111.461	80	47
111.461	111.555	75	46
111.555	111.648	81	42
111.648	111.742	71	37
111.648	111.835	83	45
111.742	111.835	81	41
111.835	111.928	75	43
111.835	112.021	84	44
111.928	112.021	81	40
112.021	112.114	71	36
112.021	112.207	83	42
112.114	112.207	81	39
112.207	112.299	75	41
112.207	112.391	84	42
112.299	112.391	81	38
112.391	112.484	71	32
112.391	112.577	83	40
112.484	112.577	81	37
112.577	112.668	75	39
112.577	112.761	84	40
112.668	112.761	81	36
112.761	112.853	71	31
112.761	112.945	83	39
112.853	112.945	81	35
112.945	113.037	75	36
112.945	113.13	84	37
113.037	113.13	81	34
113.13	113.222	71	30
113.13	113.315	83	36
113.222	113.315	81	34
113.315	113.407	75	36
113.315	113.498	84	37
113.407	113.498	81	34
113.498	113.591	71	31
113.498	113.683	83	36
113.591	113.683	81	34
113.683	113.776	75	36
113.683	113.869	84	37
113.776	113.869	81	34
113.869	113.963	71	29
113.869	114.057	83	36
113.963	114.057	81	34
114.057	114.151	75	36
114.057	114.245	84	38
114.151	114.245	81	34
114.245	114.339	71	30
114.245	114.434	83	37
114.339	114.434	81	34
114.434	114.497	75	37
114.434	114.622	85	37
114.497	114.559	76	32
114.527	114.622	81	34
114.559	114.622	75	36
114.622	114.684	76	31
114.622	114.81	83	36
114.684	114.747	75	36
114.716	114.81	81	35
114.747	114.81	76	33
114.81	114.872	75	37
114.81	114.998	85	38
114.872	114.936	76	33
114.904	114.998	81	36
114.936	114.998	75	37
114.998	115.06	76	33
114.998	115.185	83	38
115.06	115.123	75	38
115.092	115.185	81	36
115.123	115.185	76	34
115.185	115.248	75	38
115.185	115.373	85	40
115.248	115.31	76	35
115.279	115.373	81	37
115.31	115.373	75	39
115.373	115.435	76	35
115.373	115.559	83	40
115.435	115.497	75	39
115.466	115.559	81	38
115.497	115.559	76	36
115.559	115.622	75	40
115.559	115.746	85	43
115.622	115.684	76	36
115.653	115.746	81	39
115.684	115.746	75	40
115.746	115.808	76	36
115.746	115.932	83	43
115.808	115.87	75	41
115.839	115.932	81	40
115.87	115.932	76	37
115.932	115.994	75	41
115.932	116.117	90	44
115.994	116.056	76	36
116.025	116.117	81	41
116.025	116.117	83	41
116.056	116.117	75	42
116.117	116.179	76	37
116.117	116.304	90	43
116.179	116.242	75	42
116.211	116.304	81	41
116.211	116.304	83	41
116.242	116.304	76	37
116.304	116.366	75	43
116.304	116.49	90	46
116.366	116.428	76	38
116.397	116.49	81	42
116.397	116.49	83	42
116.428	116.49	75	43
116.49	116.552	76	39
116.49	116.676	90	46
116.552	116.614	75	44
116.583	116.676	81	44
116.583	116.676	83	44
116.614	116.676	76	39
116.676	116.738	75	44
116.676	116.862	90	49
116.738	116.8	76	38
116.769	116.862	81	45
116.769	116.862	83	45
116.8	116.862	75	45
116.862	116.924	76	38
116.862	117.048	90	49
116.924	116.986	75	45
116.955	117.048	81	47
116.955	117.048	83	47
116.986	117.048	76	40
117.048	117.141	75	50
117.048	117.235	90	54
117.141	117.235	76	44
117.141	117.235	81	48
117.141	117.235	83	48
117.235	117.332	73	52
117.235	117.433	90	53
117.332	117.433	75	47
117.332	117.433	81	49
117.332	117.433	83	49
117.433	120.451	64	48
117.433	118.201	76	57
117.433	118.575	80	72
117.433	118.575	83	72
117.433	118.575	88	72
118.201	118.949	68	38
118.201	118.949	71	38
118.201	118.949	74	45
118.575	118.668	88	58
118.668	118.762	86	57
118.762	118.855	84	56
118.855	118.949	83	55
118.949	119.702	69	39
118.949	119.702	72	47
118.949	119.042	84	58
119.042	119.136	83	57
119.136	119.229	81	56
119.229	119.323	80	55
119.323	119.416	81	51
119.416	119.51	83	52
119.51	119.603	84	53
119.603	119.702	86	54
119.702	120.451	68	39
119.702	120.451	71	39
119.702	120.451	74	46
119.702	119.795	88	56
119.795	119.889	89	57
119.889	119.982	88	57
119.982	120.076	87	56
120.076	120.169	88	56
120.169	120.263	86	56
120.263	120.357	84	56
120.357	120.451	83	56
120.451	120.829	69	40
120.451	120.829	72	48
120.451	120.545	84	57
120.545	120.639	86	57
120.639	120.734	84	57
120.734	120.829	83	53
120.829	120.924	81	56
120.924	121.019	80	52
121.019	121.114	81	56
121.114	121.21	83	52
121.21	121.999	57	39
121.21	121.999	60	39
121.21	121.999	66	39
121.21	121.999	69	47
121.21	121.999	72	45
121.21	121.999	84	59
121.599	121.999	81	52
121.793	121.999	78	52
121.994	122.778	59	39
121.994	122.784	64	39
121.994	122.784	67	46
121.994	122.784	71	45
121.994	122.784	83	57
122.382	122.784	79	52
122.577	122.784	76	52
122.778	123.559	59	37
122.778	123.559	63	37
122.778	123.559	66	44
122.778	123.559	69	45
122.778	123.559	81	57
123.168	123.559	78	52
123.364	123.559	75	52
123.559	126.569	52	45
123.559	124.326	64	56
123.559	124.699	76	72
124.326	125.072	56	38
124.326	125.072	59	38
124.326	125.072	62	45
124.699	124.792	76	58
124.792	124.885	74	57
124.885	124.979	72	56
124.979	125.072	71	55
125.072	125.823	57	39
125.072	125.823	60	47
125.072	125.165	72	58
125.165	125.258	71	57
125.258	125.351	69	56
125.351	125.444	68	55
125.444	125.538	69	51
125.538	125.631	71	52
125.631	125.724	72	53
125.724	125.823	74	54
125.823	126.569	56	39
125.823	126.569	59	39
125.823	126.569	62	46
125.823	125.916	76	56
125.916	126.01	77	57
126.01	126.103	76	57
126.103	126.197	75	56
126.197	126.289	76	56
126.289	126.382	74	56
126.382	126.475	72	56
126.475	126.569	71	56
126.569	126.945	57	48
126.569	126.945	60	48
126.569	126.662	72	57
126.662	126.756	74	57
126.756	126.851	72	57
126.851	126.945	71	53
126.945	127.04	69	56
127.04	127.135	68	52
127.135	127.231	69	56
127.231	127.327	71	52
127.327	128.116	45	39
127.327	128.116	48	39
127.327	128.116	54	39
127.327	128.116	57	47
127.327	128.116	60	45
127.327	128.116	72	59
127.714	128.116	69	52
127.908	128.116	66	52
128.109	128.894	47	39
128.109	128.896	52	39
128.109	128.896	55	46
128.109	128.896	59	45
128.109	128.896	71	57
128.498	128.896	67	52
128.693	128.896	64	52
128.894	129.677	47	37
128.894	129.677	51	37
128.894	129.677	54	44
128.894	129.677	57	45
128.894	129.677	69	57
129.283	129.677	66	52
129.48	129.677	63	52
129.677	130.08	52	37
129.677	130.08	55	44
129.677	129.875	64	55
130.08	130.474	43	42
130.08	130.671	52	51
130.08	130.277	76	67
130.277	130.474	74	62
130.474	131.269	45	42
130.474	130.868	72	66
130.671	130.868	53	49
130.868	131.065	55	51
130.868	131.065	69	61
131.065	131.269	57	55
131.065	131.269	65	54
131.269	132.852	47	35
131.269	132.065	55	35
131.269	132.065	59	41
131.269	132.065	71	51
131.665	132.065	67	46
131.863	132.065	64	46
132.061	132.852	54	33
132.061	132.852	57	39
132.061	132.852	69	51
132.456	132.852	66	46
132.654	132.852	63	46
132.852	133.257	48	37
132.852	133.257	52	37
132.852	133.257	55	44
132.852	133.05	64	55
133.257	133.652	40	42
133.257	133.85	48	51
133.257	133.454	72	66
133.454	133.652	71	62
133.652	134.452	41	42
133.652	134.048	69	66
133.85	134.048	50	49
134.048	134.246	52	51
134.048	134.246	65	61
134.246	134.452	53	55
134.246	134.452	62	54
134.452	136.055	43	35
134.452	135.256	52	35
134.452	135.256	55	41
134.452	135.256	67	51
134.849	135.256	64	46
135.047	135.256	60	46
135.252	136.055	50	33
135.252	136.055	53	39
135.252	136.055	65	51
135.65	136.055	62	46
135.85	136.055	59	46
136.055	136.195	36	25
136.055	136.195	48	28
136.055	136.195	52	33
136.055	136.242	60	40
136.242	136.382	36	22
136.242	136.382	43	26
136.242	136.382	48	28
136.242	136.382	52	33
136.429	136.568	36	22
136.429	136.568	43	26
136.429	136.568	48	28
136.429	136.568	52	33
136.615	136.754	36	22
136.615	136.754	43	27
136.615	136.754	48	28
136.615	136.754	52	34
136.801	136.941	36	22
136.801	136.941	43	27
136.801	136.941	48	28
136.801	136.941	52	34
136.988	137.129	36	23
136.988	137.129	43	28
136.988	137.129	48	28
136.988	137.129	52	34
137.175	137.315	36	23
137.175	137.315	43	28
137.175	137.315	48	29
137.175	137.315	52	35
137.362	137.502	36	24
137.362	137.502	43	29
137.362	137.502	48	29
137.362	137.502	52	35
137.548	137.688	36	25
137.548	137.688	43	30
137.548	137.688	48	30
137.548	137.688	52	36
137.735	137.875	36	22
137.735	137.875	43	27
137.735	137.875	48	30
137.735	137.875	52	36
137.922	138.062	36	23
137.922	138.062	43	28
137.922	138.062	48	31
137.922	138.062	52	37
138.108	138.248	36	24
138.108	138.248	43	29
138.108	138.248	48	32
138.108	138.248	52	38
138.295	138.435	36	25
138.295	138.435	43	30
138.295	138.435	48	33
138.295	138.435	52	39
138.482	138.622	36	25
138.482	138.622	43	30
138.482	138.622	48	34
138.482	138.622	52	40
138.669	138.809	36	25
138.669	138.809	45	30
138.669	138.809	50	34
138.669	138.809	54	40
138.856	138.996	36	25
138.856	138.996	45	30
138.856	138.996	50	34
138.856	138.996	54	40
139.042	139.184	35	25
139.042	139.184	43	30
139.042	139.607	50	39
139.042	139.607	55	46
139.231	139.372	35	25
139.231	139.372	43	30
139.419	139.56	35	25
139.419	139.56	43	30
139.607	139.748	35	25
139.607	139.748	43	30
139.607	139.701	59	40
139.701	139.795	57	40
139.795	139.936	35	25
139.795	139.936	43	30
139.795	139.889	55	45
139.983	140.124	35	25
139.983	140.124	43	30
140.171	140.312	35	25
140.171	140.312	43	30
140.359	140.505	35	25
140.359	140.505	43	30
140.505	140.553	85	46
140.553	140.696	35	25
140.553	140.696	43	30
140.553	141.028	86	57
140.743	140.886	35	25
140.743	140.886	43	30
140.933	141.075	35	25
140.933	141.075	43	30
141.028	141.123	84	48
141.123	141.265	35	25
141.123	141.265	43	30
141.123	141.218	83	47
141.218	141.313	81	45
141.313	141.453	35	25
141.313	141.453	43	30
141.313	141.5	79	44
141.5	141.64	35	25
141.5	141.64	43	30
141.687	141.827	35	25
141.687	141.827	43	30
141.874	142.017	35	25
141.874	142.017	43	30
142.064	142.204	34	26
142.064	142.204	41	30
142.064	142.204	46	29
142.064	142.204	50	35
142.251	142.391	34	25
142.251	142.391	41	30
142.251	142.391	46	29
142.251	142.391	50	35
142.438	142.577	34	25
142.438	142.577	41	30
142.438	142.577	46	29
142.438	142.577	50	35
142.623	142.762	34	26
142.623	142.762	41	31
142.623	142.762	46	30
142.623	142.762	50	36
142.808	142.949	34	26
142.808	142.949	41	31
142.808	142.949	46	31
142.808	142.949	50	37
142.996	143.137	34	26
142.996	143.137	41	31
142.996	143.137	46	31
142.996	143.137	50	37
143.184	143.324	34	26
143.184	143.324	41	31
143.184	143.324	46	32
143.184	143.324	50	38
143.371	143.512	34	26
143.371	143.512	41	31
143.371	143.512	46	33
143.371	143.512	50	39
143.559	143.699	34	26
143.559	143.699	41	31
143.559	143.699	46	33
143.559	143.699	50	39
143.746	143.886	34	26
143.746	143.886	41	31
143.746	143.886	46	34
143.746	143.886	50	40
143.933	144.073	34	26
143.933	144.073	41	31
143.933	144.073	46	34
143.933	144.073	50	40
144.12	144.261	34	26
144.12	144.261	41	31
144.12	144.261	46	34
144.12	144.261	50	40
144.308	144.447	34	26
144.308	144.447	41	31
144.308	144.447	46	34
144.308	144.447	50	40
144.493	144.632	34	25
144.493	144.632	41	30
144.493	144.632	46	34
144.493	144.632	50	40
144.678	144.817	34	25
144.678	144.817	43	30
144.678	144.817	48	34
144.678	144.817	52	40
144.864	145.003	34	25
144.864	145.003	43	30
144.864	145.003	48	34
144.864	145.003	52	40
145.049	145.189	33	25
145.049	145.189	41	30
145.049	145.608	48	39
145.049	145.608	53	46
145.236	145.376	33	25
145.236	145.376	41	30
145.422	145.562	33	25
145.422	145.562	41	30
145.608	145.748	33	25
145.608	145.748	41	30
145.608	145.702	57	40
145.702	145.795	55	40
145.795	145.935	33	25
145.795	145.935	41	30
145.795	145.888	53	45
145.981	146.121	33	25
145.981	146.121	41	30
146.168	146.312	33	25
146.168	146.312	41	30
146.36	146.507	33	25
146.36	146.507	41	30
146.507	146.555	83	46
146.555	146.697	32	25
146.555	146.697	41	30
146.555	147.028	84	57
146.745	146.886	32	25
146.745	146.886	41	30
146.934	147.076	32	25
146.934	147.076	41	30
147.028	147.123	82	50
147.123	147.265	32	25
147.123	147.265	41	30
147.123	147.218	80	49
147.218	147.312	79	47
147.312	147.454	32	25
147.312	147.454	41	30
147.312	147.502	77	46
147.502	147.644	32	25
147.502	147.644	41	30
147.691	147.837	32	25
147.691	147.837	41	30
147.886	148.031	32	25
147.886	148.031	41	30
148.031	148.08	88	67
148.08	148.22	31	30
148.08	148.22	41	36
148.08	149.2	89	73
148.267	148.407	31	32
148.267	148.407	41	38
148.454	148.593	31	33
148.454	148.593	41	39
148.639	148.779	31	34
148.639	148.779	41	41
148.825	148.966	31	36
148.825	148.966	41	43
149.013	149.153	31	38
149.013	149.153	41	45
149.2	149.341	32	39
149.2	149.341	41	46
149.2	149.294	89	74
149.294	149.388	87	73
149.388	149.528	32	40
149.388	149.528	41	48
149.388	149.482	86	71
149.482	149.575	84	70
149.575	149.716	31	44
149.575	149.716	41	52
149.575	149.669	83	72
149.669	149.762	84	71
149.762	149.902	31	44
149.762	149.902	41	52
149.762	149.856	86	72
149.856	149.949	87	73
149.949	150.091	32	45
149.949	150.091	41	55
149.949	150.044	89	74
150.044	150.138	87	72
150.138	150.28	32	46
150.138	150.28	41	55
150.138	150.232	86	71
150.232	150.327	84	69
150.327	150.467	31	48
150.327	150.467	41	58
150.327	150.42	83	72
150.42	150.514	84	75
150.514	150.654	31	51
150.514	150.654	41	60
150.514	150.607	86	77
150.607	150.701	87	80
150.701	150.841	32	54
150.701	150.841	41	64
150.701	150.794	89	80
150.794	150.888	87	80
150.888	151.028	32	56
150.888	151.028	41	66
150.888	150.981	86	79
150.981	151.075	84	81
151.075	151.467	31	70
151.075	151.467	41	85
151.075	151.169	83	85
151.169	151.264	84	89
151.264	151.362	86	94
151.362	151.467	87	98
151.467	152.405	43	81
151.467	152.405	55	96
151.467	151.561	89	100
151.561	151.654	87	98
151.654	151.748	86	96
151.748	151.841	84	94
151.841	151.935	83	93
151.935	152.028	80	91
152.028	152.122	79	89
152.122	152.215	77	87
152.215	152.31	75	85
152.31	152.405	74	83
152.405	152.5	57	67
152.405	152.5	72	81
152.5	152.595	59	70
152.5	152.595	71	79
152.595	152.745	60	72
152.595	152.745	72	93
152.995	153.158	43	56
152.995	153.158	55	66
152.995	153.158	67	83
153.431	153.615	39	52
153.431	153.615	51	62
153.431	153.615	63	72
153.921	154.143	36	48
153.921	154.143	48	57
153.921	154.143	60	64
154.512	156.317	31	46
154.512	156.317	43	54
154.512	156.317	55	60
156.317	157.808	36	30
156.317	156.504	48	30
156.317	156.457	64	37
156.41	156.504	60	33
156.504	156.691	48	31
156.504	156.644	64	37
156.597	156.691	55	26
156.597	156.691	60	33
156.691	156.877	48	31
156.691	156.83	64	37
156.784	156.877	55	27
156.784	156.877	60	33
156.877	157.062	48	31
156.877	157.016	64	36
156.969	157.062	55	27
156.969	157.062	60	33
157.062	157.248	48	31
157.062	157.202	64	36
157.155	157.248	55	26
157.155	157.248	60	33
157.248	157.434	48	31
157.248	157.387	64	37
157.341	157.434	55	27
157.341	157.434	60	33
157.434	157.621	48	31
157.434	157.574	64	36
157.527	157.621	55	27
157.527	157.621	60	33
157.621	157.808	48	31
157.621	157.761	64	36
157.714	157.808	55	25
157.714	157.808	60	33
157.808	157.995	48	31
157.808	157.948	64	37
157.901	157.995	55	26
157.901	157.995	60	33
157.995	158.182	48	31
157.995	158.135	64	37
158.088	158.182	55	26
158.088	158.182	60	33
158.182	158.367	48	31
158.182	158.321	64	37
158.274	158.367	55	27
158.274	158.367	60	33
158.367	158.552	48	31
158.367	158.506	64	36
158.459	158.552	55	27
158.459	158.552	60	33
158.552	158.737	48	31
158.552	158.691	64	36
158.645	158.737	55	26
158.645	158.737	60	33
158.737	158.922	48	31
158.737	158.876	64	37
158.83	158.922	55	27
158.83	158.922	60	33
158.922	159.109	48	31
158.922	159.062	66	36
159.016	159.109	57	27
159.016	159.109	62	33
159.109	159.296	48	31
159.109	159.249	66	36
159.203	159.296	57	25
159.203	159.296	62	33
159.296	159.483	47	26
159.296	159.483	50	31
159.296	159.857	67	46
159.39	159.483	55	25
159.483	159.67	47	26
159.483	159.67	50	31
159.577	159.67	55	25
159.67	159.857	47	26
159.67	159.857	50	31
159.763	159.857	55	25
159.857	160.044	47	26
159.857	160.044	50	31
159.857	159.95	71	40
159.95	160.044	55	25
159.95	160.044	69	40
160.044	160.231	47	26
160.044	160.231	50	31
160.044	160.137	67	45
160.137	160.231	55	25
160.231	160.418	47	26
160.231	160.418	50	31
160.324	160.418	55	25
160.418	160.605	47	26
160.418	160.605	50	31
160.511	160.605	55	25
160.605	160.799	47	26
160.605	160.799	50	31
160.702	160.799	55	25
160.75	160.799	85	46
160.799	160.988	47	26
160.799	160.988	50	31
160.799	161.272	86	57
160.894	160.988	55	25
160.988	161.177	47	26
160.988	161.177	50	31
161.083	161.177	55	25
161.177	161.367	47	26
161.177	161.367	50	31
161.272	161.367	55	25
161.272	161.367	84	48
161.367	161.556	47	26
161.367	161.556	50	31
161.367	161.461	83	47
161.461	161.556	55	25
161.461	161.556	81	45
161.556	161.745	47	26
161.556	161.745	50	31
161.556	161.745	79	44
161.651	161.745	55	25
161.745	161.935	47	26
161.745	161.935	50	31
161.84	161.935	55	25
161.935	162.124	47	26
161.935	162.124	50	31
162.029	162.124	55	25
162.124	162.316	47	26
162.124	162.316	50	31
162.22	162.316	55	25
162.316	163.807	38	33
162.316	162.503	50	33
162.316	162.457	65	40
162.41	162.503	62	36
162.503	162.69	50	34
162.503	162.644	65	40
162.597	162.69	57	28
162.597	162.69	62	36
162.69	162.875	50	34
162.69	162.829	65	40
162.783	162.875	57	29
162.783	162.875	62	36
162.875	163.061	50	34
162.875	163.014	65	39
162.968	163.061	57	29
162.968	163.061	62	36
163.061	163.246	50	34
163.061	163.2	65	39
163.153	163.246	57	28
163.153	163.246	62	36
163.246	163.431	50	34
163.246	163.385	65	41
163.338	163.431	57	29
163.338	163.431	62	36
163.431	163.619	50	34
163.431	163.572	65	40
163.525	163.619	57	30
163.525	163.619	62	37
163.619	163.807	50	35
163.619	163.76	65	40
163.713	163.807	57	28
163.713	163.807	62	37
163.807	163.994	50	35
163.807	163.948	65	41
163.901	163.994	57	29
163.901	163.994	62	37
163.994	164.181	50	35
163.994	164.135	65	41
164.088	164.181	57	29
164.088	164.181	62	37
164.181	164.367	50	35
164.181	164.321	65	42
164.274	164.367	57	30
164.274	164.367	62	37
164.367	164.553	50	35
164.367	164.506	65	41
164.46	164.553	57	30
164.46	164.553	62	38
164.553	164.741	50	36
164.553	164.694	65	41
164.647	164.741	57	29
164.647	164.741	62	38
164.741	164.929	50	36
164.741	164.882	65	42
164.835	164.929	57	31
164.835	164.929	62	38
164.929	165.117	50	36
164.929	165.07	68	41
165.023	165.117	59	31
165.023	165.117	64	38
165.117	165.305	50	36
165.117	165.258	68	42
165.211	165.305	59	29
165.211	165.305	64	38
165.305	165.492	48	30
165.305	165.492	52	37
165.305	165.866	69	55
165.399	165.492	57	29
165.492	165.679	48	30
165.492	165.679	52	37
165.586	165.679	57	29
165.679	165.866	48	30
165.679	165.866	52	37
165.773	165.866	57	29
165.866	166.053	48	30
165.866	166.053	52	37
165.866	165.96	72	48
165.96	166.053	57	29
165.96	166.053	71	48
166.053	166.24	48	30
166.053	166.24	52	37
166.053	166.147	69	53
166.147	166.24	57	29
166.24	166.427	48	30
166.24	166.427	52	37
166.334	166.427	57	29
166.427	166.614	48	30
166.427	166.614	52	37
166.521	166.614	57	29
166.614	166.809	48	30
166.614	166.809	52	37
166.712	166.809	57	29
166.761	166.809	87	55
166.809	166.999	48	30
166.809	166.999	52	37
166.809	167.284	88	68
166.904	166.999	57	29
166.999	167.189	48	30
166.999	167.189	52	37
167.094	167.189	57	29
167.189	167.379	48	30
167.189	167.379	52	37
167.284	167.379	57	29
167.284	167.379	86	59
167.379	167.569	48	30
167.379	167.569	52	39
167.379	167.474	84	58
167.474	167.569	57	31
167.474	167.569	83	57
167.569	167.759	48	32
167.569	167.759	52	39
167.569	167.759	81	57
167.664	167.759	57	31
167.759	167.949	48	32
167.759	167.949	52	41
167.854	167.949	57	31
167.949	168.139	48	33
167.949	168.139	52	41
168.044	168.139	57	33
168.139	168.335	48	35
168.139	168.335	52	42
168.237	168.335	57	33
168.286	168.335	87	66
168.335	168.527	48	37
168.335	168.527	52	45
168.335	168.815	88	85
168.431	168.527	58	36
168.527	168.719	48	38
168.527	168.719	52	45
168.623	168.719	58	37
168.719	168.912	48	39
168.719	168.912	52	47
168.815	168.912	58	38
168.815	168.912	86	76
168.912	169.104	48	39
168.912	169.104	52	47
168.912	169.008	84	75
169.008	169.104	58	38
169.008	169.104	83	71
169.104	169.296	48	41
169.104	169.296	52	50
169.104	169.296	82	71
169.2	169.296	58	40
169.296	169.488	48	41
169.296	169.488	52	51
169.392	169.488	58	40
169.488	169.681	48	42
169.488	169.681	52	51
169.585	169.681	58	42
169.681	169.884	48	43
169.681	169.884	52	53
169.783	169.884	58	42
169.884	169.996	47	40
169.884	170.377	83	56
169.98	170.092	51	35
170.076	170.187	54	35
170.171	170.266	59	35
170.266	170.377	47	41
170.361	170.471	51	35
170.361	170.471	81	54
170.456	170.566	54	35
170.456	170.566	79	53
170.55	170.644	59	35
170.55	170.66	78	51
170.644	170.753	47	39
170.644	170.753	79	53
170.738	170.847	52	35
170.738	170.847	78	52
170.832	170.941	55	35
170.832	170.941	76	51
170.925	171.019	59	35
170.925	171.035	75	50
171.019	171.128	47	40
171.019	171.128	76	50
171.113	171.222	52	35
171.113	171.222	79	52
171.207	171.316	55	35
171.207	171.316	78	50
171.3	171.394	59	35
171.3	171.409	76	50
171.394	171.503	47	40
171.394	171.503	75	50
171.487	171.596	54	35
171.487	171.596	73	49
171.581	171.69	57	35
171.581	171.69	71	48
171.675	171.768	59	35
171.675	171.784	70	47
171.768	171.878	47	40
171.768	171.878	71	49
171.862	171.972	54	35
171.862	171.972	73	49
171.956	172.066	57	35
171.956	172.066	74	49
172.05	172.145	59	35
172.05	172.16	75	50
172.145	172.255	47	40
172.145	172.255	76	50
172.239	172.35	52	35
172.239	172.35	75	50
172.334	172.445	55	35
172.334	172.445	76	51
172.429	172.524	59	35
172.429	172.54	78	51
172.524	172.635	47	40
172.524	172.635	79	49
172.619	172.731	52	35
172.619	172.731	80	50
172.715	172.827	55	35
172.715	172.827	81	52
172.811	172.907	59	35
172.811	172.923	82	53
172.907	173.019	47	40
172.907	173.019	83	55
173.003	173.114	51	35
173.003	173.114	82	53
173.098	173.209	54	35
173.098	173.209	83	53
173.193	173.288	59	35
173.193	173.304	82	50
173.288	173.398	47	40
173.288	173.398	83	52
173.383	173.492	51	35
173.383	173.492	81	52
173.477	173.586	54	35
173.477	173.586	79	51
173.57	173.664	59	35
173.57	173.679	78	50
173.664	173.773	47	40
173.664	173.773	79	52
173.757	173.866	52	35
173.757	173.866	78	51
173.851	173.96	55	35
173.851	173.96	76	49
173.944	174.037	59	35
173.944	174.053	75	50
174.037	174.147	47	41
174.037	174.147	76	50
174.131	174.24	52	35
174.131	174.24	79	53
174.224	174.334	55	35
174.224	174.334	78	50
174.318	174.411	59	35
174.318	174.427	76	50
174.411	174.52	47	40
174.411	174.52	75	50
174.505	174.614	54	35
174.505	174.614	73	49
174.598	174.707	57	35
174.598	174.707	71	48
174.692	174.785	59	35
174.692	174.801	70	47
174.785	174.894	47	40
174.785	174.894	71	49
174.879	174.988	54	36
174.879	174.988	73	50
174.972	175.081	57	36
174.972	175.081	74	50
175.066	175.159	59	36
175.066	175.175	75	52
175.159	175.268	47	42
175.159	175.268	76	52
175.253	175.362	52	36
175.253	175.362	75	52
175.346	175.455	55	37
175.346	175.455	76	54
175.44	175.533	59	37
175.44	175.549	78	54
175.533	175.642	47	42
175.533	175.642	79	56
175.627	175.736	52	37
175.627	175.736	80	58
175.72	175.835	55	37
175.72	175.835	81	60
175.818	175.917	59	38
175.818	175.932	82	62
175.917	176.294	47	44
175.917	176.294	83	68
176.01	176.294	51	38
176.01	176.294	78	60
176.103	176.294	53	38
176.103	176.294	75	61
176.197	176.294	59	38
176.197	176.294	71	61
176.29	176.668	58	50
176.29	176.668	70	75
176.384	176.668	59	41
176.384	176.668	71	63
176.477	176.668	55	40
176.477	176.668	76	63
176.571	176.668	52	41
176.571	176.668	79	63
176.664	177.041	47	52
176.664	177.041	83	74
176.758	177.041	51	44
176.758	177.041	78	65
176.851	177.041	54	45
176.851	177.041	75	68
176.945	177.041	59	45
176.945	177.041	71	68
177.038	177.416	58	60
177.038	177.416	70	80
177.132	177.416	59	51
177.132	177.416	71	71
177.225	177.416	55	51
177.225	177.416	76	71
177.319	177.416	52	52
177.319	177.416	79	72
177.412	177.786	47	63
177.412	177.786	83	91
177.506	177.791	51	52
177.506	177.791	78	82
177.599	177.791	54	52
177.599	177.791	75	82
177.693	177.791	59	52
177.693	177.791	71	82
177.786	178.16	47	63
177.786	178.16	83	91
177.88	178.165	52	52
177.88	178.165	79	82
177.973	178.165	55	52
177.973	178.165	76	82
178.066	178.165	59	52
178.066	178.165	71	82
178.16	178.534	47	63
178.16	178.534	83	91
178.253	178.537	51	52
178.253	178.537	78	82
178.347	178.537	54	52
178.347	178.537	75	81
178.44	178.537	59	52
178.44	178.537	71	81
178.534	178.908	47	63
178.534	178.908	83	91
178.627	178.91	52	52
178.627	178.91	79	81
178.721	178.91	55	52
178.721	178.91	76	81
178.814	178.908	59	52
178.814	178.91	71	82
178.908	180.416	47	54
178.908	180.416	51	54
178.908	180.416	54	54
178.908	180.319	59	63
178.908	180.416	83	91
179.002	179.283	78	82
179.095	179.377	75	82
179.189	179.471	71	82
179.283	180.416	78	91
179.377	179.659	75	82
179.471	179.753	71	82
179.565	179.847	66	82
179.659	180.416	75	91
179.753	180.036	71	82
179.847	180.13	66	81
179.941	180.224	63	81
180.036	180.416	71	91
180.13	180.413	66	81
180.224	180.416	63	81
180.319	180.416	59	82
180.413	181.937	66	91
180.507	180.789	63	81
180.601	180.883	59	80
180.695	180.977	54	80
180.789	181.937	63	89
180.883	181.167	59	79
180.977	181.261	54	79
181.072	181.356	51	78
181.167	181.937	59	87
181.261	181.937	54	78
181.356	181.937	51	77
181.451	181.837	47	77
181.546	181.937	35	85
181.642	181.937	39	76
181.737	181.937	42	76
181.837	181.937	47	75
181.937	182.03	35	77
182.123	182.218	47	68
182.314	182.407	37	73
182.501	182.597	49	66
182.692	182.785	39	71
182.692	182.785	71	75
182.878	182.973	51	65
182.878	182.973	59	69
183.068	183.164	73	74
183.259	183.359	61	65
183.459	183.554	39	69
183.459	183.554	75	71
183.649	183.744	51	61
183.649	183.744	63	64
183.841	183.935	40	65
184.03	184.127	52	59
184.223	184.318	42	65
184.223	184.318	75	67
184.413	184.51	54	54
184.413	184.51	63	53
184.607	184.704	76	59
184.802	184.899	64	50
184.997	185.094	78	52
185.191	185.288	66	49
185.385	185.482	80	52
185.58	185.677	68	49
185.775	185.873	42	41
185.775	185.873	81	52
185.971	186.069	54	36
185.971	186.069	69	48
186.167	186.264	44	41
186.167	186.264	81	52
186.362	186.46	56	36
186.362	186.46	71	46
186.558	186.656	45	40
186.558	186.656	81	51
186.755	186.854	57	37
186.755	186.854	73	46
186.953	187.052	47	39
186.953	187.052	81	51
187.152	187.251	59	36
187.152	187.251	75	46
187.351	187.451	49	38
187.351	187.451	81	51
187.551	187.653	61	37
187.551	187.653	76	47
187.757	187.865	51	40
187.757	187.865	81	50
187.98	188.103	63	37
187.98	188.103	78	46
188.237	189.132	64	33
188.237	189.132	68	39
188.237	189.132	71	42
188.237	189.132	76	42
188.237	189.132	80	55
189.132	189.57	59	29
189.132	189.57	63	29
189.132	189.57	66	35
189.132	189.57	69	40
189.132	189.57	75	40
189.132	189.57	78	52
189.57	190.026	61	29
189.57	190.026	64	35
189.57	190.026	68	40
189.57	190.026	73	40
189.57	190.026	76	52
190.026	190.909	56	33
190.026	190.909	60	33
190.026	190.909	63	39
190.026	190.909	66	42
190.026	190.909	72	42
190.026	190.909	75	55
190.909	191.813	57	28
190.909	191.813	61	34
190.909	191.813	64	40
190.909	191.813	73	52
191.813	192.712	54	37
191.813	192.712	57	45
191.813	192.712	59	37
191.813	192.712	63	45
191.813	192.712	69	49
191.813	192.712	71	49
191.813	192.712	75	63
192.712	193.172	56	40
192.712	193.172	59	40
192.712	193.172	64	49
192.712	193.172	71	50
192.712	193.172	76	66
193.172	193.687	57	42
193.172	193.687	61	43
193.172	193.687	66	55
193.172	193.687	73	49
193.172	193.687	76	55
193.172	193.687	78	72
193.687	195.567	59	49
193.687	194.617	64	49
193.687	194.617	68	59
193.687	195.103	71	59
193.687	194.617	76	59
193.687	194.617	80	77
194.617	195.569	63	27
194.617	195.569	66	32
194.617	195.569	75	32
194.617	195.569	78	49
195.103	195.569	69	48
195.569	196.449	52	29
195.569	196.449	56	35
195.569	196.449	59	37
195.569	196.449	64	37
195.569	196.449	68	45
196.449	196.879	47	26
196.449	196.879	51	26
196.449	196.879	54	31
196.449	196.879	57	36
196.449	196.879	63	36
196.449	196.879	66	43
196.879	197.335	49	26
196.879	197.335	52	31
196.879	197.335	56	36
196.879	197.335	61	36
196.879	197.335	64	43
197.335	198.218	44	29
197.335	198.218	48	29
197.335	198.218	51	35
197.335	198.218	54	37
197.335	198.218	60	37
197.335	198.218	63	45
198.218	199.122	45	25
198.218	199.122	49	30
198.218	199.122	52	36
198.218	199.122	57	36
198.218	199.122	61	43
199.122	200.907	35	33
199.122	200.907	47	40
199.122	199.567	52	44
199.122	199.567	56	44
199.122	200.012	59	52
199.567	200.907	54	49
199.567	200.907	57	49
200.012	200.447	61	61
200.447	200.907	63	68
200.907	201.353	40	42
200.907	201.353	52	45
200.907	201.056	56	42
200.907	201.019	64	49
201.056	201.168	66	48
201.205	201.316	68	49
201.353	201.465	69	46
201.502	201.613	71	47
201.65	201.761	73	48
201.798	201.909	74	50
201.946	202.056	75	51
202.093	202.204	76	52
202.241	202.351	77	53
202.388	202.499	78	51
202.536	202.647	79	52
202.683	203.552	64	36
202.683	203.552	68	43
202.683	203.552	71	46
202.683	202.828	80	56
202.828	202.973	79	53
202.973	203.118	80	53
203.118	203.262	81	53
203.262	203.407	79	53
203.407	203.552	80	53
203.552	203.976	59	32
203.552	203.976	63	32
203.552	203.976	66	39
203.552	203.976	69	60
203.693	203.835	80	54
203.835	203.976	78	54
203.976	204.426	61	32
203.976	204.426	64	39
203.976	204.426	68	60
204.126	204.276	78	53
204.276	204.426	76	53
204.426	205.297	56	36
204.426	205.297	60	36
204.426	205.297	63	43
204.426	205.297	66	60
204.571	204.716	72	54
204.716	204.861	75	54
204.861	205.007	76	54
205.007	205.152	72	54
205.152	205.297	75	54
205.297	206.189	57	31
205.297	206.189	61	38
205.297	206.189	64	60
205.442	205.588	69	54
205.588	205.733	73	54
205.733	205.885	75	54
205.885	206.037	69	54
206.037	206.189	73	54
206.189	207.067	54	39
206.189	207.067	57	47
206.189	207.067	59	39
206.189	207.067	63	47
206.189	207.067	69	62
206.336	206.482	74	62
206.482	206.628	75	57
206.628	206.775	76	57
206.775	206.921	74	59
206.921	207.067	75	59
207.067	207.497	56	45
207.067	207.497	59	45
207.067	207.497	64	53
207.067	207.497	71	71
207.21	207.353	78	63
207.353	207.497	76	64
207.497	207.951	57	49
207.497	207.951	61	49
207.497	207.951	66	59
207.497	207.951	73	74
207.648	207.8	80	65
207.8	207.951	78	65
207.951	209.721	59	53
207.951	208.823	64	53
207.951	208.823	68	65
207.951	208.823	76	79
207.951	208.096	80	79
208.096	208.242	79	72
208.242	208.387	80	72
208.387	208.532	83	68
208.532	208.677	81	72
208.677	208.823	80	69
208.823	209.263	63	45
208.823	209.263	66	53
208.823	208.97	75	67
208.823	208.97	78	67
208.97	209.116	73	64
208.97	209.116	76	64
209.116	209.263	71	60
209.116	209.263	75	60
209.263	209.417	47	44
209.263	209.417	69	60
209.263	209.417	73	60
209.417	209.57	49	43
209.417	209.57	68	56
209.417	209.57	71	56
209.57	209.723	51	41
209.57	209.723	66	53
209.57	209.723	69	53
209.723	210.602	52	37
209.723	210.602	56	45
209.723	210.602	59	57
209.723	209.87	68	57
209.87	210.016	67	49
210.016	210.163	68	49
210.163	210.309	69	49
210.309	210.456	67	49
210.456	210.602	68	49
210.602	211.031	47	33
210.602	211.031	51	33
210.602	211.031	54	41
210.602	211.031	57	56
210.745	210.888	68	50
210.888	211.031	66	50
211.031	211.48	49	33
211.031	211.48	52	41
211.031	211.48	56	56
211.181	211.331	66	49
211.331	211.48	64	49
211.48	212.352	44	37
211.48	212.352	48	37
211.48	212.352	51	37
211.48	212.352	54	49
211.626	211.771	60	50
211.771	211.916	63	50
211.916	212.061	64	53
212.061	212.207	60	50
212.207	212.352	63	50
212.352	213.244	45	39
212.352	213.244	49	39
212.352	213.244	52	32
212.497	212.642	57	50
212.642	212.788	61	50
212.788	212.94	63	53
212.94	213.092	57	50
213.092	213.244	61	50
213.244	215.06	35	46
213.244	215.06	47	55
213.244	213.699	52	60
213.39	213.699	56	56
213.537	213.699	59	57
213.691	214.146	54	66
213.839	214.152	57	61
213.987	214.152	59	61
214.146	214.601	54	74
214.297	214.61	57	67
214.447	214.61	61	65
214.601	215.06	54	80
214.752	215.06	57	71
214.902	215.06	63	70
215.057	215.931	40	50
215.057	215.931	52	60
215.057	215.346	56	77
215.057	215.634	64	82
215.201	215.49	59	75
215.346	215.931	56	77
215.49	216.359	47	74
215.49	215.931	59	82
215.634	215.931	64	77
215.779	215.931	68	77
215.929	216.502	66	82
216.072	216.359	63	77
216.215	216.799	59	77
216.359	217.223	47	74
216.359	216.799	63	82
216.502	216.799	66	77
216.645	216.799	69	77
216.796	217.365	68	82
216.938	217.223	64	75
217.08	217.661	59	77
217.223	218.089	47	74
217.223	217.661	64	82
217.365	217.661	68	77
217.507	217.661	71	77
217.657	218.231	69	82
217.799	218.374	66	77
217.94	218.519	63	77
218.089	218.519	47	73
218.089	218.519	75	82
218.231	218.519	69	77
218.374	218.519	66	77
218.516	219.08	52	73
218.516	219.372	68	63
218.516	219.372	76	75
218.657	218.939	47	67
218.798	219.372	44	69
218.939	219.372	47	73
218.939	219.793	71	80
219.08	219.372	52	69
219.22	219.372	56	69
219.367	219.935	54	73
219.509	219.793	51	69
219.651	220.229	47	69
219.793	220.229	51	73
219.793	220.65	71	80
219.935	220.229	54	69
220.077	220.229	57	69
220.224	220.791	56	73
220.366	220.65	52	67
220.508	221.09	47	69
220.65	221.09	52	73
220.65	221.513	71	80
220.791	221.09	56	69
220.933	221.09	59	69
221.081	221.654	57	73
221.223	221.795	54	69
221.364	221.946	51	69
221.513	221.946	63	73
221.513	221.946	71	80
221.654	221.946	57	69
221.795	221.946	54	69
221.943	222.507	56	64
221.943	222.507	76	82
222.084	222.366	59	56
222.084	222.366	71	75
222.225	222.8	64	56
222.225	222.8	68	77
222.366	222.8	59	64
222.366	222.8	71	82
222.507	222.8	56	57
222.507	222.8	76	77
222.647	222.8	52	57
222.647	222.8	80	77
222.794	223.358	51	64
222.794	223.358	78	82
222.935	223.217	54	56
222.935	223.217	75	77
223.076	223.649	57	56
223.076	223.649	71	77
223.217	223.649	54	64
223.217	223.649	75	82
223.358	223.649	51	57
223.358	223.649	78	77
223.499	223.649	47	58
223.499	223.649	81	77
223.645	224.204	80	82
223.65	224.204	52	64
223.785	224.065	56	56
223.785	224.065	76	75
223.925	224.505	59	56
223.925	224.505	71	77
224.065	224.505	56	64
224.065	224.505	76	82
224.204	224.505	52	57
224.204	224.505	80	77
224.344	224.505	83	77
224.35	224.505	47	57
224.499	225.357	51	64
224.499	225.073	81	82
224.64	224.933	57	56
224.64	225.213	78	77
224.78	225.357	75	77
224.786	225.073	59	56
224.933	225.357	57	64
224.933	225.357	87	82
225.073	225.357	59	57
225.073	225.357	81	77
225.213	225.357	66	58
225.213	225.357	78	77
225.353	225.911	56	64
225.353	226.201	88	86
225.492	226.05	59	55
225.492	225.771	83	74
225.632	226.201	64	55
225.632	225.911	80	74
225.771	226.201	52	62
225.771	226.201	83	82
225.911	226.201	56	55
225.911	226.201	80	73
226.05	226.201	59	54
226.05	226.201	76	72
226.196	227.05	54	59
226.196	227.05	81	79
226.335	226.613	57	51
226.335	226.891	78	71
226.474	226.752	59	51
226.474	227.05	75	70
226.613	227.05	57	57
226.613	227.05	87	76
226.752	227.05	59	51
226.752	227.05	83	69
226.891	227.05	66	51
226.891	227.05	78	67
227.045	227.601	56	56
227.045	227.892	88	75
227.184	227.74	59	48
227.184	227.462	83	65
227.323	227.892	64	48
227.323	227.601	80	65
227.462	227.892	52	54
227.462	227.892	83	72
227.601	227.892	56	48
227.601	227.892	80	64
227.74	227.892	59	47
227.74	227.892	76	63
227.887	228.731	54	51
227.887	228.731	81	69
228.024	228.3	57	44
228.024	228.576	78	62
228.162	228.438	59	44
228.162	228.731	75	60
228.3	228.731	57	50
228.3	228.731	87	69
228.438	228.731	59	44
228.438	228.731	83	59
228.576	228.731	66	44
228.576	228.731	78	58
228.731	228.834	56	50
228.731	228.834	88	64
228.834	228.938	59	43
228.834	228.938	83	58
228.938	229.041	52	43
228.938	229.041	80	58
229.041	229.143	59	44
229.041	229.143	76	59
229.143	229.246	54	51
229.143	229.246	81	65
229.246	229.348	59	44
229.246	229.348	78	59
229.348	229.45	57	44
229.348	229.45	87	62
229.45	229.552	59	44
229.45	229.552	83	63
229.552	229.653	56	52
229.552	229.653	88	69
229.653	229.754	59	46
229.653	229.754	83	63
229.754	229.856	52	47
229.754	229.856	80	63
229.856	229.957	59	49
229.856	229.957	76	64
229.957	230.058	54	55
229.957	230.058	81	71
230.058	230.16	59	48
230.058	230.16	78	66
230.16	230.261	57	48
230.16	230.261	87	67
230.261	230.369	59	49
230.261	230.369	83	67
230.369	230.469	56	58
230.369	230.469	88	74
230.469	230.57	59	50
230.469	230.57	83	67
230.57	230.67	57	51
230.57	230.67	87	69
230.67	230.77	59	52
230.67	230.77	83	69
230.77	230.87	56	60
230.77	230.87	88	77
230.87	230.97	59	52
230.87	230.97	83	77
230.97	231.069	57	52
230.97	231.069	87	72
231.069	231.168	59	54
231.069	231.168	83	73
231.168	231.267	56	62
231.168	231.267	88	80
231.267	231.366	59	55
231.267	231.366	83	73
231.366	231.465	57	55
231.366	231.465	87	74
231.465	231.564	59	57
231.465	231.564	83	74
231.564	231.663	56	65
231.564	231.663	88	82
231.663	231.762	59	57
231.663	231.762	83	85
231.762	231.861	57	57
231.762	231.861	87	78
231.861	231.969	59	58
231.861	231.969	83	79
231.969	232.068	56	70
231.969	232.068	88	89
232.068	232.166	59	60
232.068	232.166	83	81
232.166	232.265	44	60
232.166	232.265	86	81
232.265	232.363	52	62
232.265	232.363	83	81
232.363	232.559	44	70
232.363	232.559	86	89
232.461	232.657	52	60
232.461	232.657	83	83
232.559	232.755	44	60
232.559	232.755	86	82
232.657	232.852	52	60
232.657	232.852	83	82
232.755	232.95	44	70
232.755	232.95	86	89
232.852	233.048	52	60
232.852	233.048	83	81
232.95	233.145	44	60
232.95	233.145	86	81
233.048	233.243	52	62
233.048	233.243	83	81
233.145	233.34	44	70
233.145	233.34	86	89
233.243	233.438	52	60
233.243	233.438	83	83
233.34	233.539	44	60
233.34	233.539	86	82
233.438	233.548	52	60
233.438	233.548	83	82
233.539	233.729	44	70
233.539	234.306	86	89
233.634	233.824	52	60
233.729	233.919	44	60
233.729	234.306	85	81
233.824	234.014	52	62
233.824	234.306	83	81
233.919	234.109	44	70
233.919	234.306	81	86
234.014	234.204	52	60
234.014	234.306	80	82
234.109	234.299	44	60
234.109	234.306	78	83
234.204	234.306	52	61
234.204	234.306	76	83
234.299	234.489	44	71
234.299	235.07	74	86
234.394	234.584	52	61
234.394	235.07	73	82
234.489	234.679	44	61
234.489	235.07	71	83
234.584	234.774	52	63
234.584	235.07	69	83
234.679	234.869	44	72
234.679	235.07	68	88
234.774	234.964	52	62
234.774	235.07	66	85
234.869	235.07	44	62
234.869	235.07	64	85
234.964	235.059	52	62
234.964	235.07	62	85
235.059	235.198	45	67
235.059	235.198	49	67
235.059	235.198	52	80
235.059	235.152	61	93
235.152	235.244	63	83
235.244	235.384	45	60
235.244	235.384	49	60
235.244	235.384	52	73
235.244	235.338	64	83
235.338	235.431	63	84
235.431	235.524	64	92
235.524	235.617	68	84
235.617	235.764	45	60
235.617	235.764	49	60
235.617	235.764	52	73
235.617	235.715	69	84
235.715	235.813	68	84
235.813	235.953	45	67
235.813	235.953	49	67
235.813	235.953	52	80
235.813	235.906	69	93
235.906	236.0	72	84
236.0	236.141	45	60
236.0	236.141	49	60
236.0	236.141	52	73
236.0	236.094	73	84
236.094	236.188	72	84
236.188	236.282	73	93
236.282	236.375	75	84
236.375	236.521	45	60
236.375	236.521	49	60
236.375	236.521	52	73
236.375	236.473	76	84
236.473	236.57	75	84
236.57	236.709	45	67
236.57	236.709	49	67
236.57	236.709	52	78
236.57	236.663	76	95
236.663	236.756	80	85
236.756	236.897	45	60
236.756	236.897	49	60
236.756	236.897	52	73
236.756	236.851	81	85
236.851	236.944	80	85
236.944	237.038	81	95
237.038	237.131	84	85
237.131	237.276	45	60
237.131	237.276	49	60
237.131	237.276	52	73
237.131	237.228	85	85
237.228	237.325	84	86
237.325	237.465	45	67
237.325	237.465	49	67
237.325	237.465	52	78
237.325	237.418	85	95
237.418	237.512	87	86
237.512	237.652	45	60
237.512	237.652	49	60
237.512	237.652	52	73
237.512	237.605	88	86
237.605	237.699	87	86
237.699	237.793	88	95
237.793	237.887	87	86
237.887	238.038	45	60
237.887	238.038	49	60
237.887	238.038	52	73
237.887	237.988	85	86
237.988	238.089	84	86
238.089	238.229	46	67
238.089	238.229	49	67
238.089	238.229	52	67
238.089	238.229	54	78
238.089	238.182	85	95
238.182	238.276	84	86
238.276	238.417	46	60
238.276	238.417	49	60
238.276	238.417	52	60
238.276	238.417	54	73
238.276	238.37	85	86
238.37	238.464	87	86
238.464	238.558	88	95
238.558	238.651	87	86
238.651	238.797	46	60
238.651	238.797	49	60
238.651	238.797	52	60
238.651	238.797	54	73
238.651	238.748	85	86
238.748	238.845	84	86
238.845	238.985	46	67
238.845	238.985	49	67
238.845	238.985	52	67
238.845	238.985	54	78
238.845	238.938	85	95
238.938	239.032	84	86
239.032	239.172	46	60
239.032	239.172	49	60
239.032	239.172	52	60
239.032	239.172	54	73
239.032	239.125	85	86
239.125	239.22	87	86
239.22	239.313	88	95
239.313	239.407	87	86
239.407	239.551	46	60
239.407	239.551	49	60
239.407	239.551	52	60
239.407	239.551	54	73
239.407	239.503	85	86
239.503	239.6	84	86
239.6	239.741	46	67
239.6	239.741	49	67
239.6	239.741	52	67
239.6	239.741	54	78
239.6	239.694	85	95
239.694	239.787	84	86
239.787	239.928	46	60
239.787	239.928	49	60
239.787	239.928	52	60
239.787	239.928	54	73
239.787	239.881	85	86
239.881	239.974	87	86
239.974	240.068	88	95
240.068	240.161	87	86
240.161	240.306	46	60
240.161	240.306	49	60
240.161	240.306	52	60
240.161	240.306	54	73
240.161	240.258	85	86
240.258	240.355	84	86
240.355	240.496	46	67
240.355	240.496	49	67
240.355	240.496	52	67
240.355	240.496	54	78
240.355	240.449	85	95
240.449	240.543	84	86
240.543	240.684	46	60
240.543	240.684	49	60
240.543	240.684	52	60
240.543	240.684	54	73
240.543	240.637	85	86
240.637	240.73	87	86
240.73	240.824	88	95
240.824	240.917	87	86
240.917	241.062	46	60
240.917	241.062	49	60
240.917	241.062	52	60
240.917	241.062	54	73
240.917	241.013	88	86
241.013	241.11	85	86
241.11	241.203	47	78
241.11	241.203	71	87
241.11	241.203	83	103
241.203	241.296	52	70
241.296	241.39	56	70
241.296	241.39	71	73
241.296	241.39	83	87
241.39	241.483	59	70
241.483	241.577	47	77
241.483	241.577	68	74
241.483	241.577	80	88
241.577	241.672	52	70
241.672	241.767	56	70
241.672	241.767	64	73
241.672	241.767	76	87
241.767	241.861	59	70
241.861	241.954	47	75
241.861	241.954	76	87
241.861	241.954	88	103
241.954	242.047	52	70
242.047	242.14	56	70
242.047	242.14	76	73
242.047	242.14	88	87
242.14	242.233	59	70
242.233	242.328	47	75
242.233	242.328	71	73
242.233	242.328	83	87
242.328	242.424	52	70
242.424	242.519	56	70
242.424	242.519	68	73
242.424	242.519	80	87
242.519	242.614	59	70
242.614	242.707	47	78
242.614	242.707	71	87
242.614	242.707	83	103
242.707	242.801	52	70
242.801	242.894	56	70
242.801	242.894	71	73
242.801	242.894	83	87
242.894	242.988	59	70
242.988	243.082	47	77
242.988	243.082	68	74
242.988	243.082	80	88
243.082	243.176	52	70
243.176	243.271	56	70
243.176	243.271	64	73
243.176	243.271	76	87
243.271	243.365	59	70
243.365	243.459	56	75
243.365	243.459	76	87
243.365	243.459	88	103
243.552	243.646	56	70
243.552	243.646	76	73
243.552	243.646	88	87
243.739	243.834	52	75
243.739	243.834	71	73
243.739	243.834	83	87
243.928	244.023	47	70
243.928	244.023	68	73
243.928	244.023	80	87
244.118	244.211	59	82
244.211	244.305	80	47
244.305	244.398	56	47
244.305	244.492	83	50
244.398	244.492	80	47
244.492	244.585	64	53
244.492	244.679	83	51
244.585	244.679	80	47
244.679	244.772	59	48
244.679	244.866	83	50
244.772	244.866	80	47
244.866	244.958	68	52
244.866	245.051	83	51
244.958	245.051	80	47
245.051	245.143	64	41
245.051	245.236	83	50
245.143	245.236	80	47
245.236	245.328	71	50
245.236	245.421	83	52
245.328	245.421	80	47
245.421	245.514	68	41
245.421	245.606	83	51
245.514	245.606	80	47
245.606	245.699	76	50
245.606	245.792	83	50
245.699	245.792	80	47
245.792	245.886	71	41
245.792	245.979	83	50
245.886	245.979	80	47
245.979	246.072	76	50
245.979	246.165	83	51
246.072	246.165	80	47
246.165	246.258	71	39
246.165	246.351	83	50
246.258	246.351	80	47
246.351	246.445	76	50
246.351	246.538	83	51
246.445	246.538	80	47
246.538	246.632	71	41
246.538	246.726	83	50
246.632	246.726	80	47
246.726	246.82	76	50
246.726	246.915	83	52
246.82	246.915	80	47
246.915	247.009	71	42
246.915	247.105	83	51
247.009	247.105	80	47
247.105	247.199	75	46
247.199	247.292	81	42
247.292	247.386	71	37
247.292	247.479	83	45
247.386	247.479	81	41
247.479	247.572	75	43
247.479	247.665	84	44
247.572	247.665	81	40
247.665	247.758	71	36
247.665	247.851	83	42
247.758	247.851	81	39
247.851	247.946	75	41
247.851	248.039	84	42
247.946	248.039	81	38
248.039	248.132	71	32
248.039	248.225	83	40
248.132	248.225	81	37
248.225	248.318	75	39
248.225	248.41	84	40
248.318	248.41	81	36
248.41	248.502	71	31
248.41	248.595	83	39
248.502	248.595	81	35
248.595	248.686	75	36
248.595	248.779	84	37
248.686	248.779	81	34
248.779	248.87	71	30
248.779	248.961	83	36
248.87	248.961	81	34
248.961	249.054	75	36
248.961	249.147	84	37
249.054	249.147	81	34
249.147	249.238	71	31
249.147	249.33	83	36
249.238	249.33	81	34
249.33	249.423	75	36
249.33	249.517	84	37
249.423	249.517	81	34
249.517	249.61	71	29
249.517	249.704	83	36
249.61	249.704	81	34
249.704	249.798	75	36
249.704	249.892	84	38
249.798	249.892	81	34
249.892	249.987	71	30
249.892	250.081	83	37
249.987	250.081	81	34
250.081	250.144	75	37
250.081	250.269	85	37
250.144	250.206	76	32
250.175	250.269	81	34
250.206	250.269	75	36
250.269	250.331	76	31
250.269	250.457	83	36
250.331	250.395	75	36
250.363	250.457	81	35
250.395	250.457	76	33
250.457	250.52	75	37
250.457	250.645	85	38
250.52	250.583	76	33
250.551	250.645	81	36
250.583	250.645	75	37
250.645	250.708	76	33
250.645	250.832	83	38
250.708	250.77	75	38
250.739	250.832	81	36
250.77	250.832	76	34
250.832	250.895	75	38
250.832	251.02	85	40
250.895	250.957	76	35
250.926	251.02	81	37
250.957	251.02	75	39
251.02	251.082	76	35
251.02	251.206	83	40
251.082	251.144	75	39
251.113	251.206	81	38
251.144	251.206	76	36
251.206	251.269	75	40
251.206	251.393	85	43
251.269	251.331	76	36
251.3	251.393	81	39
251.331	251.393	75	40
251.393	251.456	76	36
251.393	251.579	83	43
251.456	251.517	75	41
251.487	251.579	81	40
251.517	251.579	76	37
251.579	251.641	75	41
251.579	251.765	90	44
251.641	251.704	76	36
251.673	251.765	81	41
251.673	251.765	83	41
251.704	251.765	75	42
251.765	251.827	76	37
251.765	251.951	90	43
251.827	251.889	75	42
251.858	251.951	81	41
251.858	251.951	83	41
251.889	251.951	76	37
251.951	252.013	75	43
251.951	252.137	90	46
252.013	252.076	76	38
252.045	252.137	81	42
252.045	252.137	83	42
252.076	252.137	75	43
252.137	252.2	76	39
252.137	252.323	90	46
252.2	252.261	75	44
252.231	252.323	81	44
252.231	252.323	83	44
252.261	252.323	76	39
252.323	252.385	75	44
252.323	252.51	90	49
252.385	252.447	76	38
252.416	252.51	81	45
252.416	252.51	83	45
252.447	252.51	75	45
252.51	252.571	76	38
252.51	252.696	90	49
252.571	252.634	75	45
252.602	252.696	81	47
252.602	252.696	83	47
252.634	252.696	76	40
252.696	252.789	75	50
252.696	252.883	90	54
252.789	252.883	76	44
252.789	252.883	81	48
252.789	252.883	83	48
252.883	252.979	73	52
252.883	253.08	90	53
252.979	253.08	75	47
252.979	253.08	81	49
252.979	253.08	83	49
253.08	256.096	64	48
253.08	253.848	76	57
253.08	254.222	80	72
253.08	254.222	83	72
253.08	254.222	88	72
253.848	254.596	68	38
253.848	254.596	71	38
253.848	254.596	74	45
254.222	254.316	88	58
254.316	254.409	86	57
254.409	254.503	84	56
254.503	254.596	83	55
254.596	255.347	69	39
254.596	255.347	72	47
254.596	254.689	84	58
254.689	254.781	83	57
254.781	254.874	81	56
254.874	254.966	80	55
254.966	255.06	81	51
255.06	255.154	83	52
255.154	255.248	84	53
255.248	255.347	86	54
255.347	256.096	68	39
255.347	256.096	71	39
255.347	256.096	74	46
255.347	255.44	88	56
255.44	255.534	89	57
255.534	255.627	88	57
255.627	255.721	87	56
255.721	255.814	88	56
255.814	255.908	86	56
255.908	256.001	84	56
256.001	256.096	83	56
256.096	256.473	69	40
256.096	256.473	72	48
256.096	256.19	84	57
256.19	256.284	86	57
256.284	256.379	84	57
256.379	256.473	83	53
256.473	256.568	81	56
256.568	256.664	80	52
256.664	256.759	81	56
256.759	256.854	83	52
256.854	257.643	57	39
256.854	257.643	60	39
256.854	257.643	66	39
256.854	257.643	69	47
256.854	257.643	72	45
256.854	257.643	84	59
257.243	257.643	81	52
257.438	257.643	78	52
257.638	258.423	59	39
257.638	258.425	64	39
257.638	258.425	67	46
257.638	258.425	71	45
257.638	258.425	83	57
258.027	258.425	79	52
258.222	258.425	76	52
258.423	259.203	59	37
258.423	259.203	63	37
258.423	259.203	66	44
258.423	259.203	69	45
258.423	259.203	81	57
258.813	259.203	78	52
259.008	259.203	75	52
259.203	262.222	52	45
259.203	259.971	64	56
259.203	260.35	76	72
259.971	260.723	56	38
259.971	260.723	59	38
259.971	260.723	62	45
260.35	260.443	76	58
260.443	260.536	74	57
260.536	260.63	72	56
260.63	260.723	71	55
260.723	261.476	57	39
260.723	261.476	60	47
260.723	260.817	72	58
260.817	260.91	71	57
260.91	261.004	69	56
261.004	261.097	68	55
261.097	261.191	69	51
261.191	261.284	71	52
261.284	261.378	72	53
261.378	261.476	74	54
261.476	262.222	56	39
261.476	262.222	59	39
261.476	262.222	62	46
261.476	261.57	76	56
261.57	261.663	77	57
261.663	261.757	76	57
261.757	261.85	75	56
261.85	261.943	76	56
261.943	262.036	74	56
262.036	262.129	72	56
262.129	262.222	71	56
262.222	262.599	57	48
262.222	262.599	60	48
262.222	262.316	72	57
262.316	262.41	74	57
262.41	262.504	72	57
262.504	262.599	71	53
262.599	262.694	69	56
262.694	262.789	68	52
262.789	262.884	69	56
262.884	262.98	71	52
262.98	263.761	45	39
262.98	263.761	48	39
262.98	263.761	54	39
262.98	263.761	57	47
262.98	263.761	60	45
262.98	263.761	72	59
263.361	263.761	69	52
263.554	263.761	66	52
263.755	264.536	47	39
263.755	264.538	52	39
263.755	264.538	55	46
263.755	264.538	59	45
263.755	264.538	71	57
264.14	264.538	67	52
264.335	264.538	64	52
264.536	265.322	47	37
264.536	265.322	51	37
264.536	265.322	54	44
264.536	265.322	57	45
264.536	265.322	69	57
264.925	265.322	66	52
265.122	265.322	63	52
265.319	265.709	52	37
265.319	265.709	55	44
265.319	265.517	64	55
265.709	266.104	43	42
265.709	266.301	52	51
265.709	265.906	76	68
265.906	266.104	74	63
266.104	266.899	45	42
266.104	266.498	72	66
266.301	266.498	53	49
266.498	266.695	55	51
266.498	266.695	69	61
266.695	266.899	57	55
266.695	266.899	65	54
266.899	268.485	47	35
266.899	267.697	55	35
266.899	267.697	59	41
266.899	267.697	71	51
267.295	267.697	67	46
267.492	267.697	64	46
267.69	268.485	54	33
267.69	268.485	57	39
267.69	268.485	69	51
268.086	268.485	66	46
268.284	268.485	63	46
268.481	268.874	48	37
268.481	268.874	52	37
268.481	268.874	55	44
268.481	268.679	64	55
268.874	269.27	40	42
268.874	269.467	48	51
268.874	269.072	72	67
269.072	269.27	71	63
269.27	270.069	41	42
269.27	269.665	69	66
269.467	269.665	50	49
269.665	269.863	52	51
269.665	269.863	65	61
269.863	270.069	53	55
269.863	270.069	62	54
270.069	271.672	43	35
270.069	270.874	52	35
270.069	270.874	55	41
270.069	270.874	67	51
270.466	270.874	64	46
270.665	270.874	60	46
270.869	271.672	50	33
270.869	271.672	53	39
270.869	271.672	65	51
271.268	271.672	62	46
271.467	271.672	59	46
271.672	272.072	48	37
271.672	272.072	52	44
271.672	272.072	60	55
272.072	272.467	45	42
272.072	272.665	53	51
272.072	272.269	77	69
272.269	272.467	76	64
272.467	273.267	46	42
272.467	272.863	74	66
272.665	272.863	55	49
272.863	273.061	57	51
272.863	273.061	70	61
273.061	273.267	58	55
273.061	273.267	67	54
273.267	274.873	48	35
273.267	274.073	57	35
273.267	274.073	60	41
273.267	274.073	72	51
273.664	274.073	69	46
273.862	274.073	65	46
274.067	274.873	55	33
274.067	274.873	58	39
274.067	274.873	70	51
274.465	274.873	67	46
274.664	274.873	64	46
274.87	275.283	50	37
274.87	275.283	53	37
274.87	275.283	57	44
274.87	275.076	65	55
275.283	275.678	33	42
275.283	275.876	41	51
275.283	275.48	65	68
275.48	275.678	64	63
275.678	276.478	34	42
275.678	276.074	62	66
275.876	276.074	43	49
276.074	276.272	45	51
276.074	276.272	58	61
276.272	276.478	46	55
276.272	276.478	55	54
276.478	278.081	36	35
276.478	277.282	45	35
276.478	277.282	48	41
276.478	277.282	60	51
276.875	277.282	57	46
277.073	277.282	53	46
277.278	278.081	43	33
277.278	278.081	46	39
277.278	278.081	58	51
277.676	278.081	55	46
277.875	278.081	52	46
278.081	278.174	29	25
278.081	278.174	41	28
278.081	278.174	45	33
278.081	278.268	53	40
278.268	278.361	29	22
278.268	278.361	36	26
278.268	278.361	41	28
278.268	278.361	45	33
278.455	278.548	29	22
278.455	278.548	36	26
278.455	278.548	41	28
278.455	278.548	45	33
278.641	278.734	29	22
278.641	278.734	36	27
278.641	278.734	41	28
278.641	278.734	45	34
278.826	278.92	29	22
278.826	278.92	36	27
278.826	278.92	41	28
278.826	278.92	45	34
279.014	279.108	29	23
279.014	279.108	36	28
279.014	279.108	41	28
279.014	279.108	45	34
279.201	279.295	29	23
279.201	279.295	36	28
279.201	279.295	41	29
279.201	279.295	45	35
279.388	279.481	29	24
279.388	279.481	36	29
279.388	279.481	41	29
279.388	279.481	45	35
279.574	279.668	29	25
279.574	279.668	36	30
279.574	279.668	41	30
279.574	279.668	45	36
279.761	279.854	29	22
279.761	279.854	36	27
279.761	279.854	41	30
279.761	279.854	45	36
279.948	280.041	29	23
279.948	280.041	36	28
279.948	280.041	41	31
279.948	280.041	45	37
280.134	280.227	29	24
280.134	280.227	36	29
280.134	280.227	41	32
280.134	280.227	45	38
280.321	280.414	29	25
280.321	280.414	36	30
280.321	280.414	41	33
280.321	280.414	45	39
280.508	280.601	29	25
280.508	280.601	36	30
280.508	280.601	41	34
280.508	280.601	45	40
280.695	280.788	29	25
280.695	280.788	38	30
280.695	280.788	43	34
280.695	280.788	47	40
280.881	280.975	29	25
280.881	280.975	38	30
280.881	280.975	43	34
280.881	280.975	47	40
281.068	281.209	40	25
281.068	281.209	43	30
281.068	281.629	48	46
281.255	281.396	40	25
281.255	281.396	43	30
281.442	281.583	40	25
281.442	281.583	43	30
281.629	281.77	40	25
281.629	281.77	43	30
281.629	281.723	52	40
281.723	281.816	50	40
281.816	281.956	40	25
281.816	281.956	43	30
281.816	281.91	48	45
282.003	282.143	40	25
282.003	282.143	43	30
282.19	282.33	40	25
282.19	282.33	43	30
282.377	282.521	40	25
282.377	282.521	43	30
282.521	282.569	78	46
282.569	282.709	39	25
282.569	282.709	43	30
282.569	283.036	79	57
282.756	282.896	39	25
282.756	282.896	43	30
282.943	283.083	39	25
282.943	283.083	43	30
283.036	283.13	77	48
283.13	283.27	39	25
283.13	283.27	43	30
283.13	283.223	75	47
283.223	283.317	74	45
283.317	283.457	39	25
283.317	283.457	43	30
283.317	283.504	72	44
283.504	283.644	39	25
283.504	283.644	43	30
283.691	283.831	39	25
283.691	283.831	43	30
283.878	284.021	39	25
283.878	284.021	43	30
284.068	284.209	38	25
284.068	284.209	45	30
284.068	284.629	54	46
284.255	284.395	38	25
284.255	284.395	45	30
284.442	284.582	38	25
284.442	284.582	45	30
284.629	284.767	38	25
284.629	284.767	45	30
284.629	284.721	57	40
284.721	284.813	55	40
284.813	284.956	38	25
284.813	284.956	45	30
284.813	284.909	54	45
285.004	285.148	38	25
285.004	285.148	45	30
285.195	285.339	38	25
285.195	285.339	45	30
285.386	285.533	38	25
285.386	285.533	45	30
285.533	285.582	86	46
285.582	285.722	42	25
285.582	285.722	50	30
285.582	286.048	87	57
285.769	285.909	42	25
285.769	285.909	50	30
285.956	286.094	42	25
285.956	286.094	50	30
286.048	286.14	86	48
286.14	286.279	42	25
286.14	286.279	50	30
286.14	286.233	84	47
286.233	286.325	82	45
286.325	286.467	42	25
286.325	286.467	50	30
286.325	286.515	81	44
286.515	286.657	42	25
286.515	286.657	50	30
286.705	286.847	42	25
286.705	286.847	50	30
286.894	287.04	42	25
286.894	287.04	50	30
287.089	287.26	43	30
287.089	287.276	58	57
287.182	287.276	50	26
287.276	287.443	43	30
287.276	287.367	62	48
287.367	287.458	50	27
287.367	287.458	60	48
287.458	287.63	43	30
287.458	287.645	58	51
287.552	287.645	50	26
287.645	287.817	43	30
287.739	287.832	50	25
287.832	288.001	45	31
287.832	287.924	84	54
287.924	288.016	50	26
287.924	288.016	82	52
288.016	288.185	45	31
288.016	288.108	81	50
288.108	288.2	50	27
288.108	288.2	79	48
288.2	288.372	45	31
288.2	288.387	78	51
288.294	288.387	50	28
288.387	288.559	45	31
288.481	288.574	50	27
288.574	288.746	46	30
288.574	288.761	67	57
288.668	288.761	50	26
288.761	288.929	46	30
288.761	288.853	70	48
288.853	288.944	50	27
288.853	288.944	69	48
288.944	289.115	46	30
288.944	289.131	67	51
289.037	289.131	50	26
289.131	289.307	46	30
289.224	289.324	50	25
289.324	289.492	42	31
289.324	289.416	87	54
289.416	289.508	50	26
289.416	289.508	86	52
289.508	289.676	42	31
289.508	289.6	84	50
289.6	289.692	50	27
289.6	289.692	82	48
289.692	289.863	42	31
289.692	289.878	81	51
289.785	289.878	50	28
289.878	290.05	42	31
289.972	290.065	50	27
290.065	290.237	43	31
290.065	290.252	58	59
290.159	290.252	50	27
290.252	290.42	43	31
290.252	290.344	62	50
290.344	290.435	50	29
290.344	290.435	60	51
290.435	290.607	43	32
290.435	290.622	58	56
290.529	290.622	50	28
290.622	290.794	43	34
290.716	290.809	50	29
290.809	290.978	45	36
290.809	290.901	84	63
290.901	290.993	50	31
290.901	290.993	82	63
290.993	291.162	45	38
290.993	291.085	81	62
291.085	291.177	50	35
291.085	291.177	79	60
291.177	291.348	45	40
291.177	291.364	78	64
291.271	291.364	50	37
291.364	291.535	45	43
291.457	291.551	50	38
291.551	291.72	46	45
291.551	291.643	74	73
291.643	291.735	50	39
291.643	291.735	72	71
291.735	291.904	46	48
291.735	291.827	70	71
291.827	291.919	50	42
291.827	291.919	69	67
291.919	292.099	46	50
291.919	292.115	67	74
292.017	292.115	55	46
292.115	292.304	46	54
292.216	292.322	55	51
292.322	292.49	47	64
292.322	292.414	80	87
292.414	292.506	55	53
292.414	292.506	79	83
292.506	292.674	47	64
292.506	292.598	77	81
292.598	292.69	55	56
292.598	292.69	75	78
292.69	292.861	47	66
292.69	292.877	74	83
292.783	292.877	55	59
292.877	293.048	47	66
292.97	293.064	55	57
293.064	293.235	48	30
293.064	293.251	63	57
293.157	293.251	55	26
293.251	293.418	48	30
293.251	293.342	67	48
293.342	293.433	55	27
293.342	293.433	65	48
293.433	293.605	48	30
293.433	293.62	63	51
293.527	293.62	55	26
293.62	293.792	48	30
293.714	293.807	55	25
293.807	293.976	50	31
293.807	293.899	77	54
293.899	293.991	55	26
293.899	293.991	75	52
293.991	294.16	50	31
293.991	294.083	74	50
294.083	294.175	55	27
294.083	294.175	72	48
294.175	294.347	50	31
294.175	294.362	71	51
294.269	294.362	55	28
294.362	294.534	50	31
294.456	294.549	55	27
294.549	294.72	51	30
294.549	294.736	60	57
294.643	294.736	55	26
294.736	294.904	51	30
294.736	294.827	63	48
294.827	294.919	55	27
294.827	294.919	62	48
294.919	295.095	51	30
294.919	295.111	60	51
295.015	295.111	55	26
295.111	295.293	51	30
295.207	295.31	55	25
295.31	295.479	47	31
295.31	295.402	80	54
295.402	295.494	55	26
295.402	295.494	79	52
295.494	295.663	47	31
295.494	295.586	77	50
295.586	295.678	55	27
295.586	295.678	75	48
295.678	295.849	47	31
295.678	295.865	74	51
295.771	295.865	55	28
295.865	296.036	47	31
295.958	296.052	55	27
296.052	296.223	48	31
296.052	296.239	63	59
296.145	296.239	55	27
296.239	296.406	48	31
296.239	296.33	67	50
296.33	296.422	55	29
296.33	296.422	65	51
296.422	296.593	48	32
296.422	296.609	63	56
296.515	296.609	55	28
296.609	296.78	48	34
296.702	296.796	55	29
296.796	296.964	50	36
296.796	296.888	77	63
296.888	296.98	55	31
296.888	296.98	75	63
296.98	297.148	50	38
296.98	297.072	74	62
297.072	297.164	55	35
297.072	297.164	72	60
297.164	297.335	50	40
297.164	297.35	71	64
297.257	297.35	55	37
297.35	297.522	50	43
297.444	297.537	55	38
297.537	297.706	51	45
297.537	297.629	79	73
297.629	297.721	55	39
297.629	297.721	77	71
297.721	297.89	51	48
297.721	297.813	75	71
297.813	297.905	55	42
297.813	297.905	74	67
297.905	298.083	51	50
297.905	298.1	72	74
298.002	298.1	60	46
298.1	298.29	51	54
298.202	298.308	60	47
298.308	298.476	52	64
298.308	298.4	85	87
298.4	298.492	60	53
298.4	298.492	84	83
298.492	298.66	52	64
298.492	298.584	82	81
298.584	298.676	60	56
298.584	298.676	80	78
298.676	298.847	52	66
298.676	298.863	79	83
298.769	298.863	60	59
298.863	299.09	52	66
298.956	299.117	60	57
299.117	299.495	53	25
299.117	299.495	80	48
299.213	299.501	56	22
299.308	299.501	60	22
299.308	299.501	84	40
299.402	299.501	65	22
299.402	299.501	82	40
299.495	299.878	53	25
299.495	299.882	80	43
299.591	299.882	56	22
299.686	299.882	60	22
299.782	299.882	65	22
299.878	300.254	53	26
299.878	300.254	85	48
299.972	300.26	58	22
300.066	300.26	61	22
300.066	300.26	89	40
300.16	300.26	65	22
300.16	300.26	87	40
300.254	300.64	53	26
300.254	300.64	85	43
300.35	300.64	58	23
300.445	300.64	61	22
300.541	300.64	65	22
300.636	301.015	52	25
300.636	301.015	66	40
300.732	301.019	54	22
300.828	301.019	58	22
300.828	301.019	70	34
300.921	301.019	61	22
300.921	301.019	68	34
301.015	301.432	52	25
301.015	301.432	66	36
301.11	301.432	54	22
301.206	301.432	58	22
301.301	301.432	61	22
301.427	301.804	51	26
301.427	302.255	71	40
301.522	301.899	54	22
301.616	301.995	59	22
301.71	302.091	63	22
301.804	302.247	51	26
301.899	302.255	54	23
301.995	302.255	59	22
302.091	302.255	63	22
302.247	302.629	51	25
302.247	302.629	77	48
302.344	302.634	53	22
302.44	302.634	57	22
302.44	302.634	81	40
302.534	302.634	60	22
302.534	302.634	79	40
302.629	303.02	51	25
302.629	303.02	77	43
302.725	303.02	53	22
302.822	303.02	57	22
302.918	303.02	60	22
303.014	303.394	49	26
303.014	303.394	82	48
303.109	303.397	53	22
303.204	303.397	58	22
303.204	303.397	85	40
303.299	303.397	61	22
303.299	303.397	84	40
303.394	303.779	49	26
303.394	303.783	82	43
303.49	303.783	53	23
303.587	303.783	58	22
303.683	303.783	61	22
303.779	304.161	49	25
303.779	304.161	63	40
303.876	304.164	51	22
303.972	304.164	55	22
303.972	304.164	67	34
304.067	304.164	58	22
304.067	304.164	65	34
304.161	304.581	49	25
304.161	304.581	63	36
304.257	304.581	51	22
304.354	304.581	55	22
304.45	304.581	58	22
304.577	304.957	48	26
304.577	305.348	68	40
304.672	305.053	51	22
304.767	305.149	56	22
304.862	305.246	60	22
304.957	305.348	48	26
305.053	305.348	51	23
305.149	305.348	56	22
305.246	305.348	60	22
305.342	305.724	47	25
305.342	305.724	73	48
305.439	305.728	49	22
305.535	305.728	53	22
305.535	305.728	77	40
305.629	305.728	56	22
305.629	305.728	75	40
305.724	306.113	47	25
305.724	306.113	73	43
305.82	306.113	49	22
305.916	306.113	53	22
306.013	306.113	56	22
306.109	306.489	46	26
306.109	306.489	78	48
306.204	306.491	49	22
306.299	306.491	54	22
306.299	306.491	82	40
306.394	306.491	58	22
306.394	306.491	80	40
306.489	306.874	46	26
306.489	306.878	78	43
306.585	306.878	49	23
306.682	306.878	54	22
306.778	306.878	58	22
306.874	307.256	46	26
306.874	307.256	60	42
306.971	307.259	48	23
307.067	307.259	52	23
307.067	307.259	64	35
307.161	307.259	55	23
307.161	307.259	62	35
307.256	307.676	46	26
307.256	307.676	60	38
307.352	307.676	48	23
307.448	307.676	52	23
307.545	307.676	55	23
307.672	308.052	44	27
307.672	308.437	72	42
307.767	308.148	48	23
307.862	308.244	53	23
307.957	308.341	56	23
308.052	308.441	44	28
308.148	308.441	48	25
308.244	308.441	53	23
308.341	308.441	56	23
308.437	308.819	43	32
308.437	308.819	72	59
308.534	308.823	46	28
308.63	308.823	52	28
308.63	308.823	76	52
308.724	308.823	55	29
308.724	308.823	74	52
308.819	309.239	43	34
308.819	309.239	72	56
308.915	309.239	46	29
309.011	309.239	52	31
309.108	309.239	55	32
309.235	309.614	41	39
309.235	310.0	84	69
309.33	309.743	44	33
309.425	310.004	48	33
309.52	309.871	53	34
309.614	310.004	41	41
309.743	310.004	44	35
309.871	310.004	53	36
310.0	310.399	40	44
310.0	310.394	84	68
310.133	310.399	43	45
310.199	310.399	88	70
310.264	310.399	52	47
310.297	310.399	86	71
310.394	310.527	39	47
310.394	310.494	84	73
310.527	310.659	43	49
310.593	310.692	84	77
310.659	310.791	51	51
310.791	310.924	38	54
310.791	310.89	84	81
310.924	311.056	41	53
310.99	311.188	84	83
311.056	311.188	50	56
311.188	311.62	37	56
311.188	311.62	89	86
311.325	311.62	41	58
311.393	311.62	83	90
311.467	311.62	49	59
311.616	312.447	36	66
311.616	312.163	48	70
311.616	312.447	84	93
311.753	312.027	43	61
311.89	312.447	40	62
312.027	312.447	43	70
312.027	312.858	67	75
312.163	312.447	48	63
312.3	312.447	52	64
312.441	312.994	50	70
312.579	312.858	47	63
312.716	313.276	43	64
312.858	313.276	47	70
312.858	313.276	67	75
312.994	313.276	50	65
313.131	313.276	53	65
313.272	313.802	52	64
313.272	313.802	72	82
313.405	313.67	55	56
313.405	313.67	67	74
313.537	314.076	60	56
313.537	314.076	64	74
313.67	314.076	55	64
313.67	314.076	67	82
313.802	314.076	52	57
313.802	314.076	72	74
313.935	314.076	48	57
313.935	314.076	76	73
314.074	314.606	53	64
314.074	314.606	74	82
314.207	314.473	56	56
314.207	314.473	71	74
314.34	314.882	60	56
314.34	314.882	68	74
314.473	314.882	56	64
314.473	314.882	71	82
314.606	314.882	53	57
314.606	314.882	74	75
314.739	314.882	48	58
314.739	314.882	77	75
314.878	315.406	55	64
314.878	315.406	76	82
315.01	315.274	58	56
315.01	315.274	73	74
315.142	318.07	60	56
315.142	315.69	70	77
315.274	318.07	58	64
315.274	315.69	73	82
315.406	318.07	55	57
315.406	315.69	76	75
315.538	318.07	48	57
315.538	315.69	79	74
315.685	316.347	82	82
315.818	316.083	76	74
315.95	317.275	85	74
316.083	316.743	76	82
316.215	316.479	73	74
316.347	317.275	82	74
316.479	317.139	73	82
316.611	316.875	70	74
316.743	317.275	76	74
316.875	317.271	70	78
317.007	317.275	64	74
317.139	317.275	73	74
317.271	317.669	70	77
317.404	317.801	64	71
317.536	317.934	72	71
317.669	318.07	70	76
317.801	318.07	64	71
317.934	318.066	72	71
318.066	318.478	41	66
318.066	318.478	53	70
318.066	318.478	65	67
318.066	318.478	69	67
318.066	318.473	72	79
318.202	318.473	48	61
318.338	318.478	45	62
318.473	318.891	48	70
318.473	319.297	72	75
318.609	318.891	53	63
318.745	318.891	57	64
318.884	319.301	55	70
319.021	319.297	52	63
319.157	319.301	48	64
319.297	319.712	52	70
319.297	319.712	72	75
319.432	319.712	55	65
319.567	319.712	58	65
319.708	320.238	57	64
319.708	320.238	77	82
319.84	320.105	60	56
319.84	320.105	72	74
319.973	320.515	65	56
319.973	320.515	69	74
320.105	320.515	60	64
320.105	320.515	72	82
320.238	320.515	57	57
320.238	320.515	77	74
320.37	320.515	53	57
320.37	320.515	81	73
320.51	321.041	58	64
320.51	321.041	79	82
320.643	320.909	61	56
320.643	320.909	76	74
320.776	321.317	65	56
320.776	321.317	73	74
320.909	321.317	61	64
320.909	321.317	76	82
321.041	321.317	58	57
321.041	321.317	79	75
321.174	321.317	53	58
321.174	321.317	82	75
321.313	321.841	60	64
321.313	321.841	81	82
321.445	321.709	63	56
321.445	321.709	78	74
321.577	324.506	65	56
321.577	322.65	75	77
321.709	324.506	63	64
321.709	322.518	78	82
321.841	324.506	60	57
321.841	322.253	81	75
321.974	324.506	53	57
321.974	322.782	84	74
322.121	323.709	87	82
322.253	323.178	81	74
322.386	323.709	90	74
322.518	323.575	78	82
322.65	322.914	75	74
322.782	323.709	84	74
322.914	323.311	75	82
323.046	323.709	72	74
323.178	323.709	81	74
323.311	323.707	75	78
323.443	323.709	69	74
323.575	323.709	78	74
323.707	324.104	75	77
323.839	324.237	69	71
323.972	324.369	77	71
324.104	324.506	75	76
324.237	324.506	69	71
324.369	324.502	77	71
324.502	324.911	34	66
324.502	324.911	46	70
324.502	324.911	70	67
324.502	324.911	74	67
324.502	324.911	77	79
324.637	324.909	41	61
324.773	324.911	38	62
324.909	325.325	41	70
324.909	325.733	65	75
325.044	325.325	46	63
325.18	325.325	50	64
325.32	325.737	48	70
325.456	325.733	45	63
325.592	325.737	41	64
325.733	326.148	45	70
325.733	326.148	65	75
325.868	326.148	48	65
326.003	326.148	51	65
326.143	326.673	50	64
326.143	326.673	70	82
326.276	326.541	53	56
326.276	326.541	65	74
326.408	326.948	58	56
326.408	326.948	62	74
326.541	326.948	53	64
326.541	326.948	65	82
326.673	326.948	50	57
326.673	326.948	70	74
326.806	326.948	46	57
326.806	326.948	74	73
326.945	327.477	51	64
326.945	327.477	72	82
327.078	327.344	54	56
327.078	327.344	69	74
327.211	327.753	58	56
327.211	327.753	66	74
327.344	327.753	54	64
327.344	327.753	69	82
327.477	327.753	51	57
327.477	327.753	72	75
327.61	327.753	46	58
327.61	327.753	75	75
327.749	328.277	53	64
327.749	328.277	74	82
327.881	328.145	56	56
327.881	328.145	71	74
328.013	330.954	58	56
328.013	329.482	68	77
328.145	330.954	56	64
328.145	329.086	71	82
328.277	330.954	53	57
328.277	328.689	74	75
328.409	330.954	46	57
328.409	329.614	77	74
328.556	329.218	80	82
328.689	328.954	74	74
328.821	330.145	83	74
328.954	330.01	74	82
329.086	329.35	71	74
329.218	330.145	80	74
329.35	330.145	71	82
329.482	329.746	68	74
329.614	330.145	77	74
329.746	330.142	68	78
329.878	330.145	65	74
330.01	330.145	74	74
330.142	330.54	68	77
330.275	330.672	62	71
330.407	330.954	71	71
330.54	330.954	68	76
330.672	330.954	62	71
330.805	330.954	70	71
330.949	331.478	51	64
330.949	331.478	78	82
331.081	331.346	54	56
331.081	331.346	75	74
331.214	334.14	58	56
331.214	332.271	70	77
331.346	334.14	54	64
331.346	331.874	75	82
331.478	334.14	51	57
331.478	331.742	78	75
331.61	334.14	46	57
331.61	332.403	82	74
331.742	332.8	78	82
331.874	332.139	75	74
332.007	334.14	87	74
332.139	333.196	75	82
332.271	332.535	70	74
332.403	334.14	82	74
332.535	334.14	70	82
332.668	332.932	66	74
332.8	334.136	78	74
332.932	333.328	66	78
333.064	333.46	63	74
333.196	333.593	75	74
333.328	333.725	66	77
333.46	333.858	63	71
333.593	333.99	75	71
333.725	334.14	66	76
333.858	334.14	63	71
333.99	334.14	75	71
334.136	334.664	49	64
334.136	334.664	78	82
334.268	334.532	54	56
334.268	334.532	76	74
334.4	337.327	58	56
334.4	335.458	73	77
334.532	337.327	54	64
334.532	335.061	76	82
334.664	337.327	49	57
334.664	334.928	78	75
334.796	337.327	46	57
334.796	335.59	85	74
334.928	335.986	78	82
335.061	335.326	76	74
335.193	337.327	88	74
335.326	336.382	76	82
335.458	335.722	73	74
335.59	337.327	85	74
335.722	337.327	73	82
335.854	336.118	66	74
335.986	337.323	78	74
336.118	336.514	66	78
336.25	336.647	64	74
336.382	336.779	76	74
336.514	336.912	66	77
336.647	337.044	64	71
336.779	337.177	76	71
336.912	337.327	66	76
337.044	337.327	64	71
337.177	337.327	76	71
337.323	337.851	50	64
337.323	337.851	78	82
337.455	337.719	54	56
337.455	337.719	74	74
337.587	340.513	59	56
337.587	338.645	71	77
337.719	340.513	54	64
337.719	338.247	74	82
337.851	340.509	50	57
337.851	338.115	78	75
337.983	340.513	47	57
337.983	338.777	83	74
338.115	339.173	78	82
338.247	338.513	74	74
338.38	340.513	86	74
338.513	339.569	74	82
338.645	338.909	71	74
338.777	340.513	83	74
338.909	340.513	71	82
339.041	339.305	66	74
339.173	340.513	78	74
339.305	339.701	66	78
339.437	339.834	62	74
339.569	339.966	74	74
339.701	340.099	66	77
339.834	340.231	62	71
339.966	340.364	74	71
340.099	340.513	66	76
340.231	340.513	62	71
340.364	340.513	74	71
340.509	341.037	50	64
340.509	341.037	79	82
340.641	340.905	55	56
340.641	340.905	74	74
340.773	343.7	59	56
340.773	341.831	71	77
340.905	343.7	55	64
340.905	341.434	74	82
341.037	343.7	50	57
341.037	341.302	79	75
341.17	343.7	47	57
341.17	341.963	83	74
341.302	342.359	79	82
341.434	341.699	74	74
341.567	343.7	86	74
341.699	343.153	74	82
341.831	342.095	71	74
341.963	343.7	83	74
342.095	343.7	71	82
342.227	342.491	67	74
342.359	343.7	79	74
342.491	342.888	67	78
342.624	343.7	65	74
342.756	343.7	77	74
342.888	343.285	67	77
343.02	343.418	62	71
343.153	343.55	74	71
343.285	343.7	67	76
343.418	343.7	62	71
343.55	343.7	74	71
343.696	344.224	51	64
343.696	344.224	84	82
343.828	344.092	55	56
343.828	344.092	79	74
343.96	346.887	60	56
343.96	344.621	75	77
344.092	346.887	55	64
344.092	344.488	79	82
344.224	346.887	51	57
344.224	345.15	84	75
344.356	346.887	48	57
344.356	344.753	87	74
344.488	345.546	79	82
344.621	344.886	75	74
344.753	346.887	87	74
344.886	345.942	75	82
345.018	345.282	72	74
345.15	346.887	84	74
345.282	346.887	72	82
345.414	345.678	67	74
345.546	346.887	79	74
345.678	346.074	67	78
345.81	346.207	63	74
345.942	346.339	75	74
346.074	346.472	67	77
346.207	346.604	63	71
346.339	346.737	75	71
346.472	346.887	67	76
346.604	346.887	63	71
346.737	346.887	75	71
346.882	347.411	56	64
346.882	347.411	77	82
347.015	347.279	61	56
347.015	347.279	73	74
347.147	348.473	65	56
347.147	347.94	68	77
347.279	348.473	61	64
347.279	347.807	73	82
347.411	348.473	56	57
347.411	347.675	77	75
347.543	348.473	53	57
347.543	348.473	80	74
347.675	348.072	77	82
347.807	348.204	73	74
347.94	348.336	68	74
348.072	348.473	77	82
348.204	348.473	73	74
348.336	348.473	68	74
348.469	348.997	60	64
348.469	348.997	75	82
348.601	348.865	63	56
348.601	348.865	72	74
348.733	350.059	66	56
348.733	349.526	69	77
348.865	350.059	63	64
348.865	349.393	72	82
348.997	350.059	60	57
348.997	349.261	75	75
349.129	350.059	54	57
349.129	350.059	81	74
349.261	349.658	75	82
349.393	349.79	72	74
349.526	349.923	69	74
349.658	350.059	75	82
349.79	350.059	72	74
349.923	350.059	69	74
350.055	350.581	59	70
350.187	350.451	62	61
350.319	351.108	67	61
350.451	351.266	62	70
350.451	350.975	71	83
350.581	351.269	59	62
350.581	350.843	74	72
350.712	352.079	55	62
350.712	351.269	79	72
350.843	351.269	74	83
350.975	351.269	71	71
351.108	351.269	67	70
351.266	352.084	62	36
351.266	351.673	77	58
351.398	352.084	71	47
351.53	351.938	67	47
351.673	352.084	59	41
351.673	352.084	77	55
351.806	352.084	74	47
351.938	352.084	67	47
352.079	353.325	55	36
352.079	352.486	75	55
352.212	352.49	74	47
352.344	352.49	67	47
352.486	352.893	60	36
352.486	352.893	75	55
352.618	352.893	72	48
352.751	352.893	67	48
352.891	353.325	66	36
352.891	353.325	74	55
353.024	353.325	72	47
353.156	353.325	69	47
353.321	353.848	47	62
353.453	353.717	50	55
353.585	354.374	55	55
353.717	354.533	50	62
353.717	354.242	59	78
353.848	354.537	47	56
353.848	354.109	62	71
353.979	355.346	43	56
353.979	354.537	67	71
354.109	354.537	62	74
354.242	354.537	59	63
354.374	354.537	55	62
354.533	355.35	50	32
354.533	354.94	65	52
354.665	355.35	59	42
354.797	355.205	55	42
354.94	355.35	47	36
354.94	355.35	65	49
355.072	355.35	62	42
355.205	355.35	55	42
355.346	356.972	43	32
355.346	355.752	63	49
355.478	355.756	62	42
355.611	355.756	55	42
355.752	356.162	48	32
355.752	356.162	63	49
355.885	356.162	60	43
356.017	356.162	55	43
356.158	356.566	54	32
356.158	356.562	62	49
356.29	356.566	60	42
356.423	356.566	57	42
356.562	356.827	55	36
356.562	356.972	62	49
356.694	356.972	59	42
356.827	356.972	55	42
356.968	357.382	48	32
356.968	357.382	60	49
357.102	357.382	55	42
357.235	357.382	51	41
357.378	357.794	43	31
357.378	357.794	59	48
357.512	357.794	55	41
357.647	357.794	50	41
357.79	358.208	36	30
357.79	358.208	57	46
357.925	358.208	51	39
358.06	358.208	48	39
358.204	358.625	31	33
358.204	358.625	55	45
358.34	358.625	50	38
358.476	358.625	47	37
358.621	359.046	36	28
358.621	359.046	54	43
358.758	359.046	51	36
358.896	359.046	45	36
359.041	359.467	31	27
359.041	359.467	55	42
359.179	359.467	50	36
359.318	359.467	47	36
359.463	359.897	36	26
359.463	359.897	54	40
359.603	359.897	51	34
359.742	359.897	45	34
359.889	359.989	31	37
359.889	361.594	47	38
359.889	361.594	50	38
359.889	361.594	55	45
359.989	360.089	36	33
360.089	360.189	35	33
360.189	360.289	33	33
360.289	360.389	31	37
360.389	360.489	36	33
360.489	360.589	35	33
360.589	360.688	33	33
360.688	360.788	31	37
360.788	360.888	36	33
360.888	360.988	35	33
360.988	361.088	33	33
361.088	361.188	31	37
361.188	361.288	36	33
361.288	361.388	35	33
361.388	361.487	33	33
361.487	363.201	31	33
361.594	361.694	50	40
361.694	361.794	52	40
361.794	361.894	54	40
361.894	361.994	55	45
361.994	362.094	50	40
362.094	362.194	52	40
362.194	362.294	54	40
362.294	362.393	55	45
362.393	362.493	50	40
362.493	362.593	52	40
362.593	362.693	54	40
362.693	362.793	55	46
362.793	362.893	50	40
362.893	362.993	52	40
362.993	363.093	54	40
363.093	364.806	55	45
363.201	363.301	36	33
363.301	363.401	35	33
363.401	363.5	33	33
363.5	363.6	31	37
363.6	363.7	36	33
363.7	363.8	35	33
363.8	363.9	33	33
363.9	364.0	31	37
364.0	364.1	36	33
364.1	364.2	35	33
364.2	364.3	33	33
364.3	364.4	31	37
364.4	364.5	36	33
364.5	364.6	35	33
364.6	364.7	33	33
364.7	366.405	31	33
364.806	364.906	54	40
364.906	365.006	55	40
365.006	365.106	57	40
365.106	365.206	59	45
365.206	365.306	54	40
365.306	365.406	55	40
365.406	365.506	57	40
365.506	365.606	59	45
365.606	365.706	54	40
365.706	365.806	55	40
365.806	365.906	57	40
365.906	366.006	59	46
366.006	366.106	54	40
366.106	366.205	55	40
366.205	366.305	57	40
366.305	366.505	59	45
366.405	366.505	36	33
366.505	366.605	35	33
366.605	366.705	33	33
366.705	366.805	31	37
366.805	366.905	36	33
366.905	367.005	35	33
366.905	367.005	59	41
367.005	367.105	33	33
367.005	367.105	60	44
367.105	367.205	31	38
367.105	367.205	62	48
367.205	367.305	36	33
367.305	367.405	35	34
367.405	367.504	33	34
367.504	367.604	31	38
367.604	367.704	36	34
367.704	367.804	35	34
367.704	367.771	62	45
367.771	367.838	64	47
367.804	367.904	33	34
367.838	367.904	66	48
367.904	368.003	31	39
367.904	368.103	67	53
368.003	368.103	36	35
368.103	368.202	35	35
368.202	368.301	33	35
368.301	368.4	31	39
368.4	368.5	36	35
368.5	368.596	35	35
368.5	368.596	67	51
368.596	368.692	33	35
368.596	368.692	69	51
368.692	368.791	31	40
368.692	368.791	71	55
368.791	368.89	36	36
368.89	368.986	35	36
368.89	368.986	71	51
368.986	369.082	33	36
368.986	369.082	72	52
369.082	369.181	31	40
369.082	369.181	74	55
369.181	369.28	36	36
369.28	369.376	35	36
369.28	369.344	74	52
369.344	369.408	76	54
369.376	369.472	33	36
369.408	369.472	78	56
369.472	369.572	31	41
369.472	369.671	79	58
369.572	369.671	36	36
369.671	369.77	35	37
369.77	369.869	33	37
369.869	369.969	31	42
369.969	370.068	36	37
370.068	370.163	35	37
370.068	370.131	62	50
370.131	370.195	64	53
370.163	370.258	33	37
370.195	370.258	66	55
370.258	370.358	31	42
370.258	370.457	67	58
370.358	370.457	36	38
370.457	370.556	35	38
370.556	370.655	33	38
370.655	370.755	31	44
370.755	370.854	36	38
370.854	370.949	35	38
370.854	370.949	67	55
370.949	371.043	33	38
370.949	371.043	69	59
371.043	371.142	31	44
371.043	371.142	71	63
371.142	371.24	36	39
371.24	371.339	35	39
371.339	371.438	33	39
371.438	371.536	31	45
371.536	371.635	36	39
371.635	371.729	35	39
371.635	371.729	71	57
371.729	371.823	33	39
371.729	371.823	72	58
371.823	371.922	31	45
371.823	371.922	74	63
371.922	372.021	36	39
372.021	372.115	35	40
372.021	372.083	74	58
372.083	372.146	76	60
372.115	372.209	33	40
372.146	372.209	78	63
372.209	372.308	31	46
372.209	372.308	79	66
372.308	372.406	36	40
372.406	372.5	35	40
372.406	372.5	79	65
372.5	372.594	33	40
372.5	372.594	81	68
372.594	372.692	31	46
372.594	372.692	83	70
372.692	372.79	36	41
372.79	372.889	35	41
372.889	372.987	33	41
372.987	373.085	31	47
373.085	373.183	36	41
373.183	373.277	35	41
373.183	373.245	74	65
373.245	373.308	76	68
373.277	373.37	33	41
373.308	373.37	78	69
373.37	373.468	31	48
373.37	373.468	79	71
373.468	373.566	36	42
373.566	373.664	35	42
373.664	373.763	33	42
373.763	373.861	31	48
373.861	373.959	36	42
373.959	374.052	35	42
373.959	374.052	79	66
374.052	374.144	33	42
374.052	374.144	81	68
374.144	374.243	31	49
374.144	374.243	83	73
374.243	374.341	36	42
374.341	374.439	35	44
374.439	374.537	33	44
374.537	374.634	31	49
374.634	374.731	36	44
374.731	374.822	35	44
374.731	374.822	79	68
374.822	374.914	33	44
374.822	374.914	81	72
374.914	375.011	31	50
374.914	375.011	83	76
375.011	375.108	36	45
375.108	375.199	35	45
375.108	375.199	83	68
375.199	375.29	33	45
375.199	375.29	84	71
375.29	375.387	31	50
375.29	375.387	86	75
375.387	375.483	36	45
375.483	375.574	35	45
375.483	375.574	86	70
375.574	375.664	33	45
375.574	375.664	88	75
375.664	375.761	31	51
375.664	375.761	89	79
375.761	375.857	36	46
375.857	375.954	35	46
375.954	376.051	33	46
376.051	376.147	31	52
376.147	376.243	36	47
376.243	376.333	35	48
376.243	376.333	86	77
376.333	376.424	33	48
376.333	376.424	88	82
376.424	376.519	31	54
376.424	376.519	89	86
376.519	376.614	37	49
376.614	376.71	35	49
376.71	376.805	33	50
376.805	376.9	31	56
376.9	376.996	37	51
376.996	377.086	35	51
376.996	377.086	86	79
377.086	377.177	33	51
377.086	377.177	88	84
377.177	377.288	31	57
377.177	377.272	89	88
377.272	377.382	38	52
377.367	377.472	35	52
377.367	377.457	86	79
377.457	377.563	33	53
377.457	377.547	88	84
377.547	377.658	31	59
377.547	377.642	89	88
377.642	377.752	38	54
377.737	377.843	35	54
377.737	377.828	86	81
377.828	377.934	33	54
377.828	377.918	88	85
377.918	378.029	31	61
377.918	378.013	89	89
378.013	378.124	38	55
378.109	378.214	35	56
378.109	378.199	86	81
378.199	378.305	33	56
378.199	378.29	88	86
378.29	378.4	31	63
378.29	378.385	89	92
378.385	378.495	38	57
378.48	378.585	35	57
378.48	378.57	86	85
378.57	378.675	33	57
378.57	378.66	88	91
378.66	378.766	31	67
378.66	378.766	89	96
378.75	378.856	33	66
378.75	378.856	88	94
378.841	378.947	35	65
378.841	378.947	86	92
378.932	379.039	36	63
378.932	379.039	84	91
379.023	379.13	38	62
379.023	379.13	83	89
379.115	379.222	36	63
379.115	379.222	84	91
379.207	379.315	35	64
379.207	379.315	86	92
379.299	379.407	33	66
379.299	379.407	88	93
379.392	379.501	31	66
379.392	379.501	89	96
379.485	379.594	33	65
379.485	379.594	88	95
379.578	379.686	35	64
379.578	379.686	86	94
379.671	379.779	36	64
379.671	379.779	84	93
379.763	379.871	38	61
379.763	379.871	83	93
379.856	379.963	36	63
379.856	379.963	84	93
379.948	380.054	35	65
379.948	380.054	86	95
380.039	380.146	33	67
380.039	380.146	88	97
380.131	380.329	31	69
380.131	380.329	89	99
380.314	380.421	33	66
380.314	380.421	88	97
380.406	380.513	35	65
380.406	380.513	86	96
380.498	380.605	36	64
380.498	380.605	84	95
380.59	380.697	38	63
380.59	380.697	83	93
380.682	380.79	40	63
380.682	380.79	81	92
380.774	380.883	41	62
380.774	380.883	79	91
380.867	380.976	43	61
380.867	380.976	77	90
380.96	381.069	45	60
380.96	381.069	76	88
381.054	381.163	47	59
381.054	381.163	74	87
381.147	381.256	48	58
381.147	381.256	72	86
381.241	381.35	50	57
381.241	381.35	71	85
381.335	381.444	52	56
381.335	381.444	69	83
381.429	381.539	53	55
381.429	381.539	67	82
381.523	381.633	55	55
381.523	381.633	65	81
381.617	381.804	48	54
381.617	381.804	64	80
381.804	381.944	36	22
381.804	381.944	43	26
381.804	381.944	48	28
381.804	381.944	52	33
381.991	382.13	36	22
381.991	382.13	43	26
381.991	382.13	48	28
381.991	382.13	52	33
382.177	382.316	36	22
382.177	382.316	43	27
382.177	382.316	48	28
382.177	382.316	52	34
382.363	382.503	36	22
382.363	382.503	43	27
382.363	382.503	48	28
382.363	382.503	52	34
382.55	382.691	36	23
382.55	382.691	43	28
382.55	382.691	48	28
382.55	382.691	52	34
382.738	382.877	36	23
382.738	382.877	43	28
382.738	382.877	48	29
382.738	382.877	52	35
382.924	383.064	36	24
382.924	383.064	43	29
382.924	383.064	48	29
382.924	383.064	52	35
383.11	383.25	36	25
383.11	383.25	43	30
383.11	383.25	48	30
383.11	383.25	52	36
383.297	383.437	36	22
383.297	383.437	43	27
383.297	383.437	48	30
383.297	383.437	52	36
383.484	383.624	36	23
383.484	383.624	43	28
383.484	383.624	48	31
383.484	383.624	52	37
383.67	383.81	36	24
383.67	383.81	43	29
383.67	383.81	48	32
383.67	383.81	52	38
383.857	383.997	36	25
383.857	383.997	43	30
383.857	383.997	48	33
383.857	383.997	52	39
384.044	384.184	36	25
384.044	384.184	43	30
384.044	384.184	48	34
384.044	384.184	52	40
384.231	384.371	36	25
384.231	384.371	45	30
384.231	384.371	50	34
384.231	384.371	54	40
384.418	384.558	36	25
384.418	384.558	45	30
384.418	384.558	50	34
384.418	384.558	54	40
384.605	384.745	35	25
384.605	384.745	43	30
384.605	385.165	50	39
384.605	385.165	55	46
384.792	384.932	35	25
384.792	384.932	43	30
384.978	385.119	35	25
384.978	385.119	43	30
385.165	385.306	35	25
385.165	385.306	43	30
385.165	385.259	59	40
385.259	385.352	57	40
385.352	385.493	35	25
385.352	385.493	43	30
385.352	385.446	55	45
385.539	385.68	35	25
385.539	385.68	43	30
385.726	385.866	35	25
385.726	385.866	43	30
385.913	386.057	35	25
385.913	386.057	43	30
386.057	386.105	85	46
386.105	386.245	35	25
386.105	386.245	43	30
386.105	386.572	86	57
386.292	386.432	35	25
386.292	386.432	43	30
386.479	386.619	35	25
386.479	386.619	43	30
386.572	386.666	84	48
386.666	386.806	35	25
386.666	386.806	43	30
386.666	386.759	83	47
386.759	386.853	81	45
386.853	386.993	35	25
386.853	386.993	43	30
386.853	387.04	79	44
387.04	387.18	35	25
387.04	387.18	43	30
387.227	387.367	35	25
387.227	387.367	43	30
387.414	387.557	35	25
387.414	387.557	43	30
387.604	387.745	34	26
387.604	387.745	41	30
387.604	387.745	46	29
387.604	387.745	50	37
387.791	387.932	34	25
387.791	387.932	41	30
387.791	387.932	46	29
387.791	387.932	50	35
387.978	388.117	34	25
387.978	388.117	41	30
387.978	388.117	46	29
387.978	388.117	50	35
388.163	388.302	34	26
388.163	388.302	41	31
388.163	388.302	46	30
388.163	388.302	50	36
388.349	388.489	34	26
388.349	388.489	41	31
388.349	388.489	46	31
388.349	388.489	50	37
388.536	388.677	34	26
388.536	388.677	41	31
388.536	388.677	46	31
388.536	388.677	50	37
388.724	388.864	34	26
388.724	388.864	41	31
388.724	388.864	46	32
388.724	388.864	50	38
388.911	389.052	34	26
388.911	389.052	41	31
388.911	389.052	46	33
388.911	389.052	50	39
389.099	389.239	34	26
389.099	389.239	41	31
389.099	389.239	46	33
389.099	389.239	50	39
389.286	389.426	34	26
389.286	389.426	41	31
389.286	389.426	46	34
389.286	389.426	50	40
389.473	389.613	34	26
389.473	389.613	41	31
389.473	389.613	46	34
389.473	389.613	50	40
389.66	389.801	34	26
389.66	389.801	41	31
389.66	389.801	46	34
389.66	389.801	50	40
389.848	389.987	34	26
389.848	389.987	41	31
389.848	389.987	46	34
389.848	389.987	50	40
390.033	390.172	34	25
390.033	390.172	41	30
390.033	390.172	46	34
390.033	390.172	50	40
390.218	390.358	34	25
390.218	390.358	43	30
390.218	390.358	48	34
390.218	390.358	52	40
390.404	390.543	34	25
390.404	390.543	43	30
390.404	390.543	48	34
390.404	390.543	52	40
390.59	390.729	33	25
390.59	390.729	41	30
390.59	391.149	48	39
390.59	391.149	53	46
390.776	390.916	33	25
390.776	390.916	41	30
390.962	391.102	33	25
390.962	391.102	41	30
391.149	391.288	33	25
391.149	391.288	41	30
391.149	391.242	57	40
391.242	391.335	55	40
391.335	391.475	33	25
391.335	391.475	41	30
391.335	391.428	53	45
391.521	391.661	33	25
391.521	391.661	41	30
391.708	391.848	33	25
391.708	391.848	41	30
391.894	392.038	33	25
391.894	392.038	41	30
392.038	392.085	83	46
392.085	392.226	32	25
392.085	392.226	41	30
392.085	392.553	84	57
392.272	392.413	32	25
392.272	392.413	41	30
392.459	392.6	32	25
392.459	392.6	41	30
392.553	392.646	82	50
392.646	392.786	32	25
392.646	392.786	41	30
392.646	392.74	80	49
392.74	392.833	79	47
392.833	392.973	32	25
392.833	392.973	41	30
392.833	393.02	77	46
393.02	393.16	32	25
393.02	393.16	41	30
393.208	393.352	32	25
393.208	393.352	41	30
393.4	393.544	32	25
393.4	393.544	41	30
393.544	393.592	88	67
393.592	393.732	31	30
393.592	393.732	41	36
393.592	394.712	89	73
393.779	393.919	31	32
393.779	393.919	41	38
393.966	394.105	31	33
393.966	394.105	41	39
394.151	394.291	31	34
394.151	394.291	41	41
394.337	394.478	31	36
394.337	394.478	41	43
394.525	394.665	31	38
394.525	394.665	41	45
394.712	394.853	32	39
394.712	394.853	41	46
394.712	394.806	89	74
394.806	394.9	87	73
394.9	395.04	32	40
394.9	395.04	41	48
394.9	394.994	86	71
394.994	395.087	84	70
395.087	395.228	31	44
395.087	395.228	41	52
395.087	395.181	83	72
395.181	395.274	84	71
395.274	395.415	31	44
395.274	395.415	41	52
395.274	395.368	86	72
395.368	395.461	87	73
395.461	395.603	32	45
395.461	395.603	41	55
395.461	395.556	89	74
395.556	395.65	87	72
395.65	395.792	32	46
395.65	395.792	41	55
395.65	395.744	86	71
395.744	395.839	84	69
395.839	395.979	31	48
395.839	395.979	41	58
395.839	395.932	83	72
395.932	396.026	84	75
396.026	396.166	31	51
396.026	396.166	41	60
396.026	396.119	86	77
396.119	396.213	87	80
396.213	396.353	32	54
396.213	396.353	41	64
396.213	396.306	89	80
396.306	396.4	87	80
396.4	396.54	32	56
396.4	396.54	41	66
396.4	396.493	86	79
396.493	396.587	84	81
396.587	396.979	41	85
396.587	396.681	83	85
396.591	396.984	31	70
396.681	396.776	84	89
396.776	396.874	86	94
396.874	396.979	87	98
396.979	397.917	43	81
396.979	397.917	55	96
396.979	397.073	89	100
397.073	397.166	87	98
397.166	397.26	86	96
397.26	397.353	84	94
397.353	397.447	83	93
397.447	397.54	80	91
397.54	397.634	79	89
397.634	397.727	77	87
397.727	397.822	75	85
397.822	397.917	74	83
397.917	398.012	57	67
397.917	398.012	72	81
398.012	398.107	59	70
398.012	398.107	71	79
398.107	398.26	60	72
398.107	398.26	72	93
398.514	398.679	43	56
398.514	398.679	55	66
398.514	398.679	67	83
398.955	399.134	39	52
398.955	399.134	51	62
398.955	399.134	63	72
399.433	399.669	36	48
399.433	399.669	48	57
399.433	399.669	60	64
400.062	401.97	32	46
400.062	401.97	44	54
400.062	401.97	56	60
401.97	402.129	61	37
401.97	402.129	73	54
402.394	402.567	56	33
402.394	402.567	68	52
402.855	403.052	53	32
402.855	403.052	65	48
403.379	403.632	49	29
403.379	403.632	61	43
404.053	405.977	34	24
404.053	405.977	46	29
404.053	405.977	58	39
405.977	406.12	63	41
406.073	406.168	67	37
406.168	406.263	70	37
406.263	406.359	75	37
406.359	406.502	58	37
406.454	406.549	67	37
406.549	406.645	70	37
406.645	406.74	75	37
406.74	406.883	55	37
406.835	406.93	67	37
406.93	407.026	70	37
407.026	407.121	75	37
407.121	407.267	51	37
407.218	407.316	67	37
407.316	407.413	70	37
407.413	407.51	75	37
407.51	407.653	53	35
407.605	407.701	65	37
407.701	407.796	68	37
407.796	407.891	75	37
407.891	408.033	56	38
407.986	408.081	65	41
408.081	408.176	71	41
408.176	408.27	74	41
408.27	408.413	57	39
408.366	408.461	63	45
408.461	408.556	66	45
408.556	408.652	74	45
408.652	408.798	54	37
408.749	408.847	63	39
408.847	408.944	69	39
408.944	409.042	72	39
409.042	409.188	55	46
409.139	409.236	62	44
409.236	409.333	67	44
409.333	409.431	72	44
409.431	409.579	54	44
409.53	409.629	62	48
409.629	409.727	67	48
409.727	409.826	72	48
409.826	409.973	55	60
409.924	410.021	62	53
410.021	410.119	67	53
410.119	410.217	71	53
410.217	410.366	43	56
410.316	410.416	62	58
410.416	410.515	65	59
410.515	410.639	71	59
410.639	412.13	36	70
410.639	410.826	48	70
410.639	410.826	64	68
410.639	410.826	72	84
410.826	411.013	48	31
410.826	410.966	64	37
410.92	411.013	55	26
410.92	411.013	60	33
411.013	411.199	48	31
411.013	411.152	64	37
411.106	411.199	55	27
411.106	411.199	60	33
411.199	411.385	48	31
411.199	411.338	64	36
411.292	411.385	55	27
411.292	411.385	60	33
411.385	411.57	48	31
411.385	411.524	64	36
411.477	411.57	55	26
411.477	411.57	60	33
411.57	411.756	48	31
411.57	411.71	64	37
411.663	411.756	55	27
411.663	411.756	60	33
411.756	411.943	48	31
411.756	411.896	64	36
411.85	411.943	55	27
411.85	411.943	60	33
411.943	412.13	48	31
411.943	412.083	64	36
412.037	412.13	55	25
412.037	412.13	60	33
412.13	412.317	48	31
412.13	412.27	64	37
412.224	412.317	55	26
412.224	412.317	60	33
412.317	412.504	48	31
412.317	412.457	64	37
412.41	412.504	55	26
412.41	412.504	60	33
412.504	412.689	48	31
412.504	412.643	64	37
412.597	412.689	55	27
412.597	412.689	60	33
412.689	412.874	48	31
412.689	412.828	64	36
412.782	412.874	55	27
412.782	412.874	60	33
412.874	413.059	48	31
412.874	413.013	64	36
412.967	413.059	55	26
412.967	413.059	60	33
413.059	413.245	48	31
413.059	413.198	64	37
413.152	413.245	55	27
413.152	413.245	60	33
413.245	413.431	48	31
413.245	413.385	66	36
413.338	413.431	57	27
413.338	413.431	62	33
413.431	413.618	48	31
413.431	413.572	66	36
413.525	413.618	57	25
413.525	413.618	62	33
413.618	413.805	47	26
413.618	413.805	50	31
413.618	414.179	67	46
413.712	413.805	55	25
413.805	413.992	47	26
413.805	413.992	50	31
413.899	413.992	55	25
413.992	414.179	47	26
413.992	414.179	50	31
414.086	414.179	55	25
414.179	414.366	47	26
414.179	414.366	50	31
414.179	414.273	71	40
414.273	414.366	55	25
414.273	414.366	69	40
414.366	414.553	47	26
414.366	414.553	50	31
414.366	414.46	67	45
414.46	414.553	55	25
414.553	414.74	47	26
414.553	414.74	50	31
414.647	414.74	55	25
414.74	414.927	47	26
414.74	414.927	50	31
414.834	414.927	55	25
414.927	415.119	47	26
414.927	415.119	50	31
415.023	415.119	55	25
415.071	415.119	85	46
415.119	415.306	47	26
415.119	415.306	50	31
415.119	415.586	86	57
415.212	415.306	55	25
415.306	415.493	47	26
415.306	415.493	50	31
415.399	415.493	55	25
415.493	415.68	47	26
415.493	415.68	50	31
415.586	415.68	55	25
415.586	415.68	84	48
415.68	415.867	47	26
415.68	415.867	50	31
415.68	415.773	83	47
415.773	415.867	55	25
415.773	415.867	81	45
415.867	416.054	47	26
415.867	416.054	50	31
415.867	416.054	79	44
415.96	416.054	55	25
416.054	416.241	47	26
416.054	416.241	50	31
416.147	416.241	55	25
416.241	416.428	47	26
416.241	416.428	50	31
416.334	416.428	55	25
416.428	416.62	47	26
416.428	416.62	50	31
416.524	416.62	55	25
416.62	418.111	38	33
416.62	416.807	50	33
416.62	416.76	65	40
416.714	416.807	62	36
416.807	416.994	50	34
416.807	416.947	65	40
416.901	416.994	57	28
416.901	416.994	62	36
416.994	417.179	50	34
416.994	417.133	65	40
417.087	417.179	57	29
417.087	417.179	62	36
417.179	417.364	50	34
417.179	417.318	65	39
417.272	417.364	57	29
417.272	417.364	62	36
417.364	417.549	50	34
417.364	417.503	65	39
417.457	417.549	57	28
417.457	417.549	62	36
417.549	417.735	50	34
417.549	417.688	65	41
417.642	417.735	57	29
417.642	417.735	62	36
417.735	417.923	50	34
417.735	417.876	65	40
417.829	417.923	57	30
417.829	417.923	62	37
417.923	418.111	50	35
417.923	418.064	65	40
418.017	418.111	57	28
418.017	418.111	62	37
418.111	418.298	50	35
418.111	418.251	65	41
418.205	418.298	57	29
418.205	418.298	62	37
418.298	418.485	50	35
418.298	418.438	65	41
418.391	418.485	57	29
418.391	418.485	62	37
418.485	418.671	50	35
418.485	418.624	65	42
418.578	418.671	57	30
418.578	418.671	62	37
418.671	418.856	50	35
418.671	418.81	65	41
418.764	418.856	57	30
418.764	418.856	62	38
418.856	419.044	50	36
418.856	418.997	65	41
418.95	419.044	57	29
418.95	419.044	62	38
419.044	419.233	50	36
419.044	419.186	65	42
419.139	419.233	57	31
419.139	419.233	62	38
419.233	419.421	50	36
419.233	419.374	68	41
419.327	419.421	59	31
419.327	419.421	64	38
419.421	419.609	50	36
419.421	419.562	68	42
419.515	419.609	59	29
419.515	419.609	64	38
419.609	419.796	48	30
419.609	419.796	52	37
419.609	420.17	69	55
419.702	419.796	57	29
419.796	419.983	48	30
419.796	419.983	52	37
419.889	419.983	57	29
419.983	420.17	48	30
419.983	420.17	52	37
420.076	420.17	57	29
420.17	420.357	48	30
420.17	420.357	52	37
420.17	420.263	72	48
420.263	420.357	57	29
420.263	420.357	71	48
420.357	420.544	48	30
420.357	420.544	52	37
420.357	420.45	69	53
420.45	420.544	57	29
420.544	420.731	48	30
420.544	420.731	52	37
420.637	420.731	57	29
420.731	420.918	48	30
420.731	420.918	52	37
420.824	420.918	57	29
420.918	421.11	48	30
420.918	421.11	52	37
421.014	421.11	57	29
421.062	421.11	87	55
421.11	421.297	48	30
421.11	421.297	52	37
421.11	421.577	88	68
421.203	421.297	57	29
421.297	421.483	48	30
421.297	421.483	52	37
421.39	421.483	57	29
421.483	421.67	48	30
421.483	421.67	52	37
421.577	421.67	57	29
421.577	421.67	86	58
421.67	421.857	48	30
421.67	421.857	52	38
421.67	421.764	84	57
421.764	421.857	57	30
421.764	421.857	83	55
421.857	422.044	48	31
421.857	422.044	52	38
421.857	422.044	81	55
421.951	422.044	57	30
422.044	422.231	48	31
422.044	422.231	52	39
422.138	422.231	57	30
422.231	422.418	48	31
422.231	422.418	52	39
422.325	422.418	57	31
422.418	422.611	48	33
422.418	422.611	52	39
422.514	422.611	57	31
422.563	422.611	83	61
422.611	422.798	53	34
422.611	422.798	57	41
422.611	423.078	84	78
422.704	422.798	60	33
422.798	422.985	53	35
422.798	422.985	57	41
422.891	422.985	60	34
422.985	423.172	53	35
422.985	423.172	57	42
423.078	423.172	60	34
423.078	423.172	83	68
423.172	423.359	53	35
423.172	423.359	57	42
423.172	423.265	81	67
423.265	423.359	60	34
423.265	423.359	80	64
423.359	423.545	53	36
423.359	423.545	57	44
423.359	423.545	81	63
423.452	423.545	62	35
423.545	423.732	53	37
423.545	423.732	57	45
423.639	423.732	62	36
423.732	423.919	53	37
423.732	423.919	57	45
423.826	423.919	62	37
423.919	424.136	53	38
423.919	424.136	57	46
424.016	424.136	62	37
424.064	424.136	83	63
424.136	424.323	53	35
424.136	424.323	57	43
424.136	424.604	84	81
424.23	424.323	63	34
424.323	424.51	53	36
424.323	424.51	57	43
424.417	424.51	63	35
424.51	424.697	53	37
424.51	424.697	57	44
424.604	424.697	63	36
424.604	424.697	83	72
424.697	424.884	53	37
424.697	424.884	57	44
424.697	424.791	81	71
424.791	424.884	63	36
424.791	424.884	80	67
424.884	425.071	53	38
424.884	425.071	57	47
424.884	424.977	81	70
424.977	425.071	60	37
424.977	425.071	80	66
425.071	425.26	53	38
425.071	425.26	57	47
425.071	425.165	81	66
425.165	425.26	60	37
425.165	425.26	83	66
425.26	425.449	53	47
425.26	425.354	84	69
425.354	425.449	57	39
425.354	425.449	85	70
425.449	425.682	53	49
425.449	425.552	86	71
425.552	425.682	57	39
425.552	425.682	87	74
425.682	425.795	52	40
425.682	426.179	88	68
425.779	425.891	56	35
425.875	425.987	59	35
425.972	426.067	64	35
426.067	426.179	52	41
426.163	426.274	56	35
426.163	426.274	86	54
426.258	426.368	59	35
426.258	426.368	84	53
426.352	426.447	64	35
426.352	426.463	83	51
426.447	426.557	52	39
426.447	426.557	84	53
426.541	426.651	57	35
426.541	426.651	83	52
426.635	426.745	60	35
426.635	426.745	81	51
426.729	426.823	64	35
426.729	426.839	80	50
426.823	426.933	52	40
426.823	426.933	81	50
426.917	427.027	57	35
426.917	427.027	84	52
427.011	427.121	60	35
427.011	427.121	83	50
427.105	427.199	64	35
427.105	427.215	81	50
427.199	427.308	52	40
427.199	427.308	80	50
427.293	427.402	59	35
427.293	427.402	78	49
427.386	427.495	62	35
427.386	427.495	76	48
427.48	427.574	64	35
427.48	427.589	75	47
427.574	427.683	52	40
427.574	427.683	76	49
427.667	427.777	59	35
427.667	427.777	78	49
427.761	427.871	62	35
427.761	427.871	79	49
427.855	427.95	64	35
427.855	427.965	80	50
427.95	428.06	52	40
427.95	428.06	81	50
428.044	428.154	57	35
428.044	428.154	80	50
428.138	428.249	60	35
428.138	428.249	81	51
428.233	428.328	64	35
428.233	428.344	83	51
428.328	428.438	52	40
428.328	428.438	84	49
428.422	428.536	57	35
428.422	428.536	85	50
428.52	428.643	60	35
428.52	428.643	86	52
428.624	428.74	64	35
428.624	428.756	87	53
428.74	428.852	52	40
428.74	428.852	88	55
428.836	428.947	56	35
428.836	428.947	87	53
428.931	429.042	59	35
428.931	429.042	88	53
429.027	429.122	64	35
429.027	429.137	87	50
429.122	429.232	52	40
429.122	429.232	88	52
429.216	429.327	56	35
429.216	429.327	86	52
429.311	429.421	59	35
429.311	429.421	84	51
429.406	429.5	64	35
429.406	429.516	83	50
429.5	429.61	52	40
429.5	429.61	84	52
429.594	429.704	57	35
429.594	429.704	83	51
429.688	429.798	60	35
429.688	429.798	81	49
429.782	429.876	64	35
429.782	429.892	80	50
429.876	429.986	52	41
429.876	429.986	81	50
429.97	430.079	57	35
429.97	430.079	84	53
430.064	430.173	60	35
430.064	430.173	83	50
430.157	430.251	64	35
430.157	430.267	81	50
430.251	430.36	52	40
430.251	430.36	80	50
430.345	430.454	59	35
430.345	430.454	78	49
430.438	430.547	62	35
430.438	430.547	76	48
430.531	430.625	64	35
430.531	430.64	75	47
430.625	430.734	52	40
430.625	430.734	76	49
430.718	430.827	59	36
430.718	430.827	78	50
430.812	430.921	62	36
430.812	430.921	79	50
430.905	430.999	64	36
430.905	431.014	80	52
430.999	431.108	52	42
430.999	431.108	81	52
431.092	431.201	57	36
431.092	431.201	80	52
431.186	431.295	60	37
431.186	431.295	81	54
431.279	431.372	64	37
431.279	431.388	83	54
431.372	431.481	52	42
431.372	431.481	84	56
431.466	431.576	57	37
431.466	431.576	85	58
431.559	431.674	60	37
431.559	431.674	86	60
431.658	431.756	64	38
431.658	431.771	87	62
431.756	432.134	52	44
431.756	432.134	88	68
431.849	432.134	56	38
431.849	432.134	83	60
431.943	432.134	59	38
431.943	432.134	80	61
432.036	432.134	64	38
432.036	432.134	76	61
432.13	432.508	63	50
432.13	432.508	75	75
432.223	432.508	64	41
432.223	432.508	76	63
432.317	432.508	60	40
432.317	432.508	81	63
432.41	432.508	57	41
432.41	432.508	84	63
432.504	432.88	52	52
432.504	432.88	88	74
432.597	432.88	56	44
432.597	432.88	83	65
432.691	432.88	59	45
432.691	432.88	80	68
432.784	432.88	64	45
432.784	432.88	76	68
432.878	433.255	63	60
432.878	433.255	75	80
432.971	433.255	64	51
432.971	433.255	76	71
433.064	433.255	60	51
433.064	433.255	81	71
433.158	433.255	57	52
433.158	433.255	84	72
433.251	433.625	52	63
433.251	433.625	88	91
433.345	433.627	56	52
433.345	433.627	83	82
433.438	433.627	59	52
433.438	433.627	80	82
433.532	433.627	64	52
433.532	433.627	76	82
433.625	433.999	52	63
433.625	433.999	88	91
433.719	434.002	57	52
433.719	434.002	84	82
433.812	434.002	60	52
433.812	434.002	81	82
433.906	434.002	64	52
433.906	434.002	76	82
433.999	434.373	52	63
433.999	434.373	88	91
434.093	434.375	56	52
434.093	434.375	83	82
434.186	434.375	59	52
434.186	434.375	80	81
434.28	434.375	64	52
434.28	434.375	76	81
434.373	434.747	52	63
434.373	434.747	88	91
434.467	434.75	57	52
434.467	434.75	84	81
434.56	434.75	60	52
434.56	434.75	81	81
434.654	434.747	64	52
434.654	434.75	76	82
434.747	436.256	52	54
434.747	436.256	56	54
434.747	436.256	59	54
434.747	436.158	64	63
434.747	436.256	88	91
434.841	435.122	83	82
434.935	435.216	80	82
435.028	435.31	76	82
435.122	436.256	83	91
435.216	435.498	80	82
435.31	435.592	76	82
435.404	435.686	71	82
435.498	436.256	80	91
435.592	435.875	76	82
435.686	435.969	71	81
435.78	436.064	68	81
435.875	436.256	76	91
435.969	436.253	71	81
436.064	436.256	68	81
436.158	436.256	64	82
436.253	437.776	71	91
436.346	436.628	68	81
436.44	436.722	64	80
436.534	436.817	59	80
436.628	437.776	68	89
436.722	437.006	64	79
436.817	437.101	59	79
436.911	437.195	56	78
437.006	437.776	64	87
437.101	437.776	59	78
437.195	437.776	56	77
437.29	437.676	52	77
437.386	437.776	40	85
437.481	437.776	44	76
437.576	437.776	47	76
437.676	437.776	52	75
437.776	437.869	40	77
437.962	438.058	52	68
438.153	438.247	42	73
438.34	438.436	54	66
438.531	438.625	44	71
438.531	438.625	76	75
438.718	438.814	56	65
438.718	438.814	64	69
438.909	439.004	78	74
439.098	439.198	66	65
439.299	439.393	44	69
439.299	439.393	80	71
439.487	439.583	56	61
439.487	439.583	68	64
439.679	439.773	45	65
439.868	439.965	57	59
440.061	440.156	47	65
440.061	440.156	80	67
440.251	440.347	59	54
440.251	440.347	68	53
440.445	440.542	81	59
440.639	440.737	69	50
440.834	440.93	83	52
441.025	441.122	71	49
441.219	441.316	85	52
441.414	441.511	73	49
441.609	441.707	47	41
441.609	441.707	86	52
441.805	441.903	59	36
441.805	441.903	74	48
442.0	442.098	49	41
442.0	442.098	86	52
442.196	442.294	61	36
442.196	442.294	76	46
442.392	442.49	50	40
442.392	442.49	86	51
442.589	442.688	62	37
442.589	442.688	78	46
442.787	442.886	52	39
442.787	442.886	86	51
442.985	443.085	64	36
442.985	443.085	80	46
443.185	443.284	54	38
443.185	443.284	86	51
443.385	443.487	66	37
443.385	443.487	81	47
443.59	443.699	56	40
443.59	443.699	86	50
443.814	443.936	68	37
443.814	443.936	83	46
444.071	444.951	57	33
444.071	444.951	61	33
444.071	444.951	64	33
444.071	444.951	69	39
444.071	444.951	73	42
444.071	444.951	76	42
444.071	444.951	81	42
444.071	444.951	85	55
444.951	445.381	52	29
444.951	445.381	56	29
444.951	445.381	59	29
444.951	445.381	64	35
444.951	445.381	71	40
444.951	445.381	76	40
444.951	445.381	80	40
444.951	445.381	83	52
445.381	445.852	54	29
445.381	445.852	57	29
445.381	445.852	61	29
445.381	445.852	66	35
445.381	445.852	69	40
445.381	445.852	73	40
445.381	445.852	78	40
445.381	445.852	81	52
445.852	446.741	49	33
445.852	446.741	53	33
445.852	446.741	56	33
445.852	446.741	61	39
445.852	446.741	68	42
445.852	446.741	71	42
445.852	446.741	77	42
445.852	446.741	80	55
446.741	447.648	50	28
446.741	447.648	54	28
446.741	447.648	57	28
446.741	447.648	62	34
446.741	447.648	66	40
446.741	447.648	69	40
446.741	447.648	74	40
446.741	447.648	78	52
447.648	448.55	47	37
447.648	448.55	52	45
447.648	448.55	56	37
447.648	448.55	59	45
447.648	448.55	68	49
447.648	448.55	74	49
447.648	448.55	76	49
447.648	448.55	80	63
448.55	449.019	49	40
448.55	449.019	52	40
448.55	449.019	57	40
448.55	449.019	61	49
448.55	449.019	69	50
448.55	449.019	76	50
448.55	449.019	81	66
449.019	449.527	50	36
449.019	449.527	54	41
449.019	449.527	59	46
449.019	449.527	62	55
449.019	449.527	71	55
449.019	449.527	78	55
449.019	449.527	81	55
449.019	449.527	83	72
449.527	451.358	52	49
449.527	450.426	57	49
449.527	450.426	61	49
449.527	450.426	64	59
449.527	450.426	73	59
449.527	450.891	76	59
449.527	450.426	81	59
449.527	450.426	85	77
450.426	451.358	56	27
450.426	451.358	59	27
450.426	451.356	64	32
450.426	451.358	71	33
450.426	451.358	80	32
450.426	451.358	83	49
450.891	451.358	74	55
451.358	452.238	57	29
451.358	452.238	60	35
451.358	452.238	64	37
451.358	452.238	69	37
451.358	452.238	72	45
452.238	452.668	52	26
452.238	452.668	55	26
452.238	452.668	59	31
452.238	452.668	64	36
452.238	452.668	67	36
452.238	452.668	71	43
452.668	453.124	53	26
452.668	453.124	57	31
452.668	453.124	60	36
452.668	453.124	65	36
452.668	453.124	69	43
453.124	454.007	48	29
453.124	454.007	52	29
453.124	454.007	55	35
453.124	454.007	60	37
453.124	454.007	64	37
453.124	454.007	67	45
454.007	454.912	50	25
454.007	454.912	53	30
454.007	454.912	57	36
454.007	454.912	62	36
454.007	454.912	65	43
454.912	456.698	43	26
454.912	455.357	48	35
454.912	455.357	52	35
454.912	455.357	60	44
454.912	455.357	64	44
454.912	455.802	67	52
455.357	456.698	50	35
455.357	456.698	53	35
455.357	456.698	62	45
455.357	456.698	65	45
455.802	456.237	69	61
456.237	456.698	71	69
456.698	457.149	48	37
456.698	457.149	52	40
456.698	456.848	60	41
456.698	456.848	64	41
456.698	456.811	72	51
456.848	456.961	74	48
456.999	457.112	76	49
457.149	457.261	77	50
457.299	457.41	79	50
457.448	457.559	81	51
457.596	457.707	82	52
457.744	457.855	83	48
457.892	458.002	84	49
458.039	458.148	85	51
458.185	458.294	86	53
458.331	458.44	87	54
458.477	459.345	72	37
458.477	459.345	76	44
458.477	459.345	84	48
458.477	458.621	88	58
458.621	458.766	87	53
458.766	458.911	88	53
458.911	459.055	89	53
459.055	459.2	87	53
459.2	459.345	88	53
459.345	459.769	68	33
459.345	459.769	71	33
459.345	459.769	74	40
459.345	459.769	77	40
459.345	459.769	83	60
459.486	459.628	88	54
459.628	459.769	86	54
459.769	460.219	69	33
459.769	460.219	72	40
459.769	460.219	76	60
459.919	460.069	86	53
460.069	460.219	84	53
460.219	461.09	64	37
460.219	461.09	68	37
460.219	461.09	71	44
460.219	461.09	74	44
460.219	461.09	80	60
460.364	460.509	82	54
460.509	460.655	83	54
460.655	460.8	84	54
460.8	460.945	82	54
460.945	461.09	83	54
461.09	461.982	65	32
461.09	461.982	69	39
461.09	461.982	72	39
461.09	461.982	77	60
461.236	461.381	80	54
461.381	461.526	81	54
461.526	461.678	83	54
461.678	461.83	80	54
461.83	461.982	81	54
461.982	462.861	62	39
461.982	462.861	65	47
461.982	462.861	67	39
461.982	462.861	71	47
461.982	462.861	77	62
462.129	462.275	82	62
462.275	462.421	83	57
462.421	462.568	84	57
462.568	462.714	82	59
462.714	462.861	83	59
462.861	463.29	64	45
462.861	463.29	67	45
462.861	463.29	72	53
462.861	463.29	79	71
463.004	463.147	86	63
463.147	463.29	84	64
463.29	463.744	65	45
463.29	463.744	69	48
463.29	463.744	72	56
463.29	463.744	74	57
463.29	463.744	81	74
463.441	463.593	88	65
463.593	463.744	86	65
463.744	465.057	67	53
463.744	464.616	72	53
463.744	464.616	76	65
463.744	464.616	84	79
463.744	463.89	88	79
463.89	464.035	87	72
464.035	464.18	88	72
464.18	464.325	91	68
464.325	464.471	89	72
464.471	464.616	88	69
464.616	465.057	71	45
464.616	465.057	74	53
464.616	464.763	83	67
464.616	464.763	86	67
464.763	464.91	81	64
464.763	464.91	84	64
464.91	465.057	79	60
464.91	465.057	83	60
465.057	465.21	55	44
465.057	465.21	77	60
465.057	465.21	81	60
465.21	465.363	57	43
465.21	465.363	76	56
465.21	465.363	79	56
465.363	465.517	59	41
465.363	465.517	74	53
465.363	465.517	77	53
465.517	466.385	60	37
465.517	466.385	64	45
465.517	466.385	67	57
465.517	465.661	76	57
465.661	465.806	75	49
465.806	465.951	76	49
465.951	466.095	77	49
466.095	466.24	75	49
466.24	466.385	76	49
466.385	466.809	56	33
466.385	466.809	59	33
466.385	466.809	62	41
466.385	466.809	65	56
466.526	466.668	76	50
466.668	466.809	74	50
466.809	467.259	57	33
466.809	467.259	60	41
466.809	467.259	64	56
466.959	467.109	74	49
467.109	467.259	72	49
467.259	468.13	52	37
467.259	468.13	56	37
467.259	468.13	59	37
467.259	468.13	62	56
467.404	467.549	70	50
467.549	467.694	71	50
467.694	467.84	72	53
467.84	467.985	70	50
467.985	468.13	71	50
468.13	469.022	53	39
468.13	469.022	57	39
468.13	469.022	60	32
468.275	468.421	65	50
468.421	468.566	68	50
468.566	468.718	69	53
468.718	468.87	68	50
468.87	469.022	69	50
469.022	470.839	43	46
469.022	469.473	48	52
469.022	469.473	52	55
469.022	469.473	60	60
469.169	469.473	64	56
469.315	469.473	67	57
469.47	470.839	50	55
469.47	470.839	53	58
469.47	469.924	62	66
469.618	469.927	65	61
469.766	469.927	67	61
469.924	470.38	62	74
470.076	470.382	65	67
470.225	470.382	69	65
470.38	470.839	62	80
470.53	470.839	65	71
470.681	470.839	71	70
470.835	471.717	36	50
470.835	471.717	48	60
470.835	471.564	64	77
470.835	471.717	72	82
470.981	471.273	55	75
471.127	471.717	52	77
471.273	472.15	43	60
471.273	471.717	55	82
471.418	471.717	60	77
471.564	471.717	64	77
471.714	472.295	62	82
471.859	472.15	59	77
472.004	472.593	55	77
472.15	473.021	43	60
472.15	472.593	59	82
472.295	472.593	62	77
472.44	472.593	65	77
472.591	473.165	64	82
472.734	473.021	60	75
472.878	473.463	55	77
473.021	473.892	43	60
473.021	473.463	60	82
473.165	473.463	64	77
473.309	473.463	67	77
473.458	474.035	65	82
473.601	474.177	62	77
473.744	474.324	59	77
473.892	474.324	43	60
473.892	474.324	71	82
474.035	474.324	65	77
474.177	474.324	62	77
474.32	474.888	48	73
474.32	475.182	64	63
474.32	475.182	72	75
474.462	474.746	43	67
474.604	475.182	40	69
474.746	475.182	43	73
474.746	475.606	67	75
474.888	475.182	48	69
475.03	475.182	52	69
475.177	475.749	50	73
475.32	475.606	47	69
475.463	476.045	43	69
475.606	476.045	47	73
475.606	476.469	67	75
475.749	476.045	50	69
475.893	476.045	53	69
476.04	476.612	52	73
476.183	476.469	48	67
476.326	476.907	43	69
476.469	476.907	48	73
476.469	477.338	67	75
476.612	476.907	52	69
476.756	476.907	55	69
476.903	477.481	53	73
477.047	477.623	50	69
477.19	477.776	47	69
477.338	477.776	59	73
477.338	477.776	67	75
477.481	477.776	53	69
477.623	477.776	50	69
477.771	478.34	52	64
477.771	478.34	72	82
477.914	478.198	55	56
477.914	478.198	67	75
478.056	478.634	60	56
478.056	478.634	64	77
478.198	478.634	55	64
478.198	478.634	67	82
478.34	478.634	52	57
478.34	478.634	72	77
478.482	478.634	48	57
478.482	478.634	76	77
478.629	479.199	47	64
478.629	479.199	74	82
478.771	479.056	50	56
478.771	479.056	71	77
478.914	479.491	53	56
478.914	479.491	67	77
479.056	479.491	50	64
479.056	479.491	71	82
479.199	479.491	47	57
479.199	479.491	74	77
479.342	479.491	43	58
479.342	479.491	77	77
479.488	480.054	76	82
479.493	480.054	48	64
479.629	479.912	52	56
479.629	479.912	72	75
479.771	480.356	55	56
479.771	480.356	67	77
479.912	480.356	52	64
479.912	480.356	72	82
480.054	480.356	48	57
480.054	480.356	76	77
480.196	480.356	79	77
480.201	480.356	43	57
480.351	481.217	47	64
480.351	480.93	77	82
480.493	480.788	53	56
480.493	481.071	74	77
480.635	481.217	71	77
480.641	480.93	55	56
480.788	481.217	53	64
480.788	481.217	83	82
480.93	481.217	55	57
480.93	481.217	77	77
481.071	481.217	62	58
481.071	481.217	74	77
481.213	481.777	52	64
481.213	482.069	84	82
481.354	481.918	55	55
481.354	481.636	79	74
481.495	482.069	60	55
481.495	481.777	76	74
481.636	482.069	48	62
481.636	482.069	79	79
481.777	482.069	52	55
481.777	482.069	76	73
481.918	482.069	55	54
481.918	482.069	72	72
482.064	482.926	50	59
482.064	482.926	77	77
482.205	482.486	53	51
482.205	482.767	74	71
482.345	482.626	55	51
482.345	482.926	71	70
482.486	482.926	53	57
482.486	482.926	83	74
482.626	482.926	55	51
482.626	482.926	79	69
482.767	482.926	62	51
482.767	482.926	74	67
482.921	483.481	52	56
482.921	483.773	84	72
483.061	483.621	55	48
483.061	483.341	79	65
483.201	483.773	60	48
483.201	483.481	76	65
483.341	483.773	48	54
483.341	483.773	79	70
483.481	483.773	52	48
483.481	483.773	76	64
483.621	483.773	55	47
483.621	483.773	72	63
483.768	484.623	50	51
483.768	484.623	77	67
483.907	484.186	53	44
483.907	484.465	74	62
484.047	484.326	55	44
484.047	484.623	71	60
484.186	484.623	53	50
484.186	484.623	83	64
484.326	484.623	55	44
484.326	484.623	79	59
484.465	484.623	62	44
484.465	484.623	74	58
484.62	484.723	52	50
484.62	484.723	84	64
484.723	484.827	55	43
484.723	484.827	79	58
484.827	484.93	48	43
484.827	484.93	76	58
484.93	485.033	55	44
484.93	485.033	72	59
485.033	485.135	50	51
485.033	485.135	77	65
485.135	485.237	55	44
485.135	485.237	74	59
485.237	485.339	53	44
485.237	485.339	83	62
485.339	485.441	55	44
485.339	485.441	79	63
485.441	485.542	52	52
485.441	485.542	84	69
485.542	485.644	55	46
485.542	485.644	79	63
485.644	485.745	48	47
485.644	485.745	76	63
485.745	485.846	55	49
485.745	485.846	72	64
485.846	485.948	50	55
485.846	485.948	77	71
485.948	486.049	55	48
485.948	486.049	74	66
486.049	486.15	53	48
486.049	486.15	83	67
486.15	486.258	55	49
486.15	486.258	79	67
486.258	486.359	52	58
486.258	486.359	84	74
486.359	486.459	55	50
486.359	486.459	79	67
486.459	486.559	53	51
486.459	486.559	83	69
486.559	486.659	55	52
486.559	486.659	79	69
486.659	486.759	52	60
486.659	486.759	84	77
486.759	486.859	55	52
486.759	486.859	79	77
486.859	486.958	53	52
486.859	486.958	83	72
486.958	487.058	55	54
486.958	487.058	79	73
487.058	487.156	52	62
487.058	487.156	84	80
487.156	487.255	55	55
487.156	487.255	79	73
487.255	487.354	53	55
487.255	487.354	83	74
487.354	487.453	55	57
487.354	487.453	79	74
487.453	487.552	52	65
487.453	487.552	84	82
487.552	487.651	55	57
487.552	487.651	79	85
487.651	487.75	53	57
487.651	487.75	83	78
487.75	487.858	55	58
487.75	487.858	79	79
487.858	487.957	52	70
487.858	487.957	84	89
487.957	488.055	55	60
487.957	488.055	79	81
488.055	488.154	40	60
488.055	488.154	82	81
488.154	488.252	48	62
488.154	488.252	79	81
488.252	488.448	40	70
488.252	488.448	82	89
488.35	488.546	48	60
488.35	488.546	79	83
488.448	488.644	40	60
488.448	488.644	82	82
488.546	488.742	48	60
488.546	488.742	79	82
488.644	488.839	40	70
488.644	488.839	82	89
488.742	488.937	48	60
488.742	488.937	79	81
488.839	489.034	40	60
488.839	489.034	82	81
488.937	489.132	48	62
488.937	489.132	79	81
489.034	489.23	40	70
489.034	489.23	82	89
489.132	489.327	48	60
489.132	489.327	79	83
489.23	489.428	40	60
489.23	489.428	82	82
489.327	489.429	48	60
489.327	489.429	79	82
489.428	489.618	40	70
489.428	490.192	82	89
489.523	489.713	48	60
489.618	489.808	40	60
489.618	490.192	81	81
489.713	489.903	48	62
489.713	490.192	79	81
489.808	489.998	40	70
489.808	490.192	77	84
489.903	490.093	48	60
489.903	490.192	76	78
489.998	490.188	40	60
489.998	490.192	74	78
490.093	490.192	48	61
490.093	490.192	72	80
490.188	490.378	40	71
490.188	490.956	70	84
490.283	490.473	48	61
490.283	490.956	69	80
490.378	490.568	40	61
490.378	490.956	67	80
490.473	490.663	48	63
490.473	490.956	65	81
490.568	490.758	40	72
490.568	490.956	64	86
490.663	490.853	48	62
490.663	490.956	62	84
490.758	490.956	40	62
490.758	490.956	60	85
490.853	490.948	48	62
490.853	490.956	58	85
490.948	491.089	41	67
490.948	491.089	45	67
490.948	491.089	48	80
490.948	491.043	57	93
491.043	491.136	59	81
491.136	491.276	41	60
491.136	491.276	45	60
491.136	491.276	48	73
491.136	491.23	60	81
491.23	491.324	59	81
491.324	491.417	60	92
491.417	491.511	64	81
491.511	491.657	41	60
491.511	491.657	45	60
491.511	491.657	48	73
491.511	491.608	65	81
491.608	491.706	64	82
491.706	491.846	41	67
491.706	491.846	45	67
491.706	491.846	48	80
491.706	491.799	65	93
491.799	491.893	68	80
491.893	492.034	41	60
491.893	492.034	45	60
491.893	492.034	48	73
491.893	491.986	69	80
491.986	492.08	68	81
492.08	492.174	69	93
492.174	492.267	71	83
492.267	492.413	41	60
492.267	492.413	45	60
492.267	492.413	48	73
492.267	492.364	72	83
492.364	492.462	71	83
492.462	492.601	41	67
492.462	492.601	45	67
492.462	492.601	48	78
492.462	492.555	72	95
492.555	492.648	76	84
492.648	492.788	41	60
492.648	492.788	45	60
492.648	492.788	48	73
492.648	492.742	77	84
492.742	492.835	76	84
492.835	492.928	77	95
492.928	493.021	80	82
493.021	493.166	41	60
493.021	493.166	45	60
493.021	493.166	48	73
493.021	493.118	81	82
493.118	493.215	80	82
493.215	493.355	41	67
493.215	493.355	45	67
493.215	493.355	48	78
493.215	493.308	81	95
493.308	493.401	83	82
493.401	493.54	41	60
493.401	493.54	45	60
493.401	493.54	48	73
493.401	493.494	84	82
493.494	493.586	83	82
493.586	493.68	84	95
493.68	493.773	83	82
493.773	493.925	41	60
493.773	493.925	45	60
493.773	493.925	48	73
493.773	493.874	81	83
493.874	493.975	80	83
493.975	494.114	42	67
493.975	494.114	45	67
493.975	494.114	48	67
493.975	494.114	50	78
493.975	494.068	81	95
494.068	494.161	80	83
494.161	494.3	42	60
494.161	494.3	45	60
494.161	494.3	48	60
494.161	494.3	50	73
494.161	494.254	81	83
494.254	494.347	83	83
494.347	494.441	84	95
494.441	494.534	83	85
494.534	494.68	42	60
494.534	494.68	45	60
494.534	494.68	48	60
494.534	494.68	50	73
494.534	494.631	81	85
494.631	494.728	80	85
494.728	494.867	42	67
494.728	494.867	45	67
494.728	494.867	48	67
494.728	494.867	50	78
494.728	494.821	81	95
494.821	494.914	80	84
494.914	495.055	42	60
494.914	495.055	45	60
494.914	495.055	48	60
494.914	495.055	50	73
494.914	495.008	81	84
495.008	495.102	83	84
495.102	495.195	84	95
495.195	495.289	83	84
495.289	495.434	42	60
495.289	495.434	45	60
495.289	495.434	48	60
495.289	495.434	50	73
495.289	495.385	81	84
495.385	495.482	80	84
495.482	495.621	42	67
495.482	495.621	45	67
495.482	495.621	48	67
495.482	495.621	50	78
495.482	495.575	81	95
495.575	495.669	80	84
495.669	495.809	42	60
495.669	495.809	45	60
495.669	495.809	48	60
495.669	495.809	50	73
495.669	495.762	81	84
495.762	495.855	83	84
495.855	495.949	84	95
495.949	496.042	83	83
496.042	496.187	42	60
496.042	496.187	45	60
496.042	496.187	48	60
496.042	496.187	50	73
496.042	496.139	81	83
496.139	496.236	80	83
496.236	496.376	42	67
496.236	496.376	45	67
496.236	496.376	48	67
496.236	496.376	50	78
496.236	496.329	81	95
496.329	496.423	80	83
496.423	496.564	42	60
496.423	496.564	45	60
496.423	496.564	48	60
496.423	496.564	50	73
496.423	496.517	81	83
496.517	496.61	83	83
496.61	496.704	84	95
496.704	496.797	83	84
496.797	496.942	42	60
496.797	496.942	45	60
496.797	496.942	48	60
496.797	496.942	50	73
496.797	496.894	84	84
496.894	496.99	81	86
496.99	497.084	43	78
496.99	497.084	67	87
496.99	497.084	79	103
497.084	497.177	48	70
497.177	497.271	52	70
497.177	497.271	67	73
497.177	497.271	79	87
497.271	497.364	55	70
497.364	497.459	43	77
497.364	497.459	64	74
497.364	497.459	76	88
497.459	497.553	48	70
497.553	497.648	52	70
497.553	497.648	60	73
497.553	497.648	72	87
497.648	497.743	55	70
497.743	497.836	43	75
497.743	497.836	72	87
497.743	497.836	84	103
497.836	497.93	48	70
497.93	498.023	52	70
497.93	498.023	72	73
497.93	498.023	84	87
498.023	498.117	55	70
498.117	498.212	43	75
498.117	498.212	67	73
498.117	498.212	79	87
498.212	498.307	48	70
498.307	498.403	52	70
498.307	498.403	64	73
498.307	498.403	76	87
498.403	498.497	55	70
498.497	498.591	43	78
498.497	498.591	67	87
498.497	498.591	79	103
498.591	498.684	48	70
498.684	498.778	52	70
498.684	498.778	67	73
498.684	498.778	79	87
498.778	498.871	55	70
498.871	498.966	43	77
498.871	498.966	64	74
498.871	498.966	76	88
498.966	499.06	48	70
499.06	499.154	52	70
499.06	499.154	60	73
499.06	499.154	72	87
499.154	499.249	55	70
499.249	499.342	52	75
499.249	499.342	72	87
499.249	499.342	84	103
499.436	499.529	52	70
499.436	499.529	72	73
499.436	499.529	84	87
499.623	499.717	48	75
499.623	499.717	67	73
499.623	499.717	79	87
499.812	499.907	43	70
499.812	499.907	64	73
499.812	499.907	76	87
500.001	500.095	55	86
500.095	500.189	84	47
500.189	500.282	52	47
500.189	500.375	88	50
500.282	500.375	84	47
500.375	500.468	60	53
500.375	500.561	91	51
500.468	500.561	88	47
500.561	500.653	55	48
500.561	500.746	91	50
500.653	500.746	88	47
500.746	500.838	64	52
500.746	500.931	91	51
500.838	500.931	88	47
500.931	501.023	60	41
500.931	501.116	91	50
501.023	501.116	88	47
501.116	501.209	67	50
501.116	501.301	91	52
501.209	501.301	88	47
501.301	501.394	64	41
501.301	501.486	91	51
501.394	501.486	88	47
501.486	501.579	72	50
501.486	501.672	91	50
501.579	501.672	88	47
501.672	501.766	67	41
501.672	501.859	91	50
501.766	501.859	88	47
501.859	501.952	76	50
501.859	502.045	91	51
501.952	502.045	88	47
502.045	502.138	72	39
502.045	502.232	91	50
502.138	502.232	88	47
502.232	502.325	79	50
502.232	502.418	91	51
502.325	502.418	88	47
502.418	502.512	76	41
502.418	502.606	91	50
502.512	502.606	88	47
502.606	502.7	84	50
502.606	502.795	91	52
502.7	502.795	88	47
502.795	502.89	79	42
502.795	502.985	91	51
502.89	502.985	88	47
502.985	503.079	83	46
503.079	503.172	89	42
503.172	503.266	79	37
503.172	503.359	91	45
503.266	503.359	89	41
503.359	503.452	83	43
503.359	503.545	92	44
503.452	503.545	89	40
503.545	503.638	79	36
503.545	503.731	91	42
503.638	503.731	89	39
503.731	503.823	83	41
503.731	503.914	92	42
503.823	503.914	89	38
503.914	504.006	79	32
503.914	504.098	91	40
504.006	504.098	89	37
504.098	504.189	83	39
504.098	504.28	92	40
504.189	504.28	89	36
504.28	504.372	79	31
504.28	504.462	91	39
504.372	504.462	89	35
504.462	504.552	83	36
504.462	504.644	92	37
504.552	504.644	89	34
504.644	504.733	79	30
504.644	504.824	91	36
504.733	504.824	89	34
504.824	504.915	83	36
504.824	505.005	92	37
504.915	505.005	89	34
505.005	505.097	79	31
505.005	505.189	91	36
505.097	505.189	89	34
505.189	505.283	83	36
505.189	505.376	92	37
505.283	505.376	89	34
505.376	505.469	79	29
505.376	505.563	91	36
505.469	505.563	89	34
505.563	505.657	83	36
505.563	505.751	92	38
505.657	505.751	89	34
505.751	505.846	79	30
505.751	505.94	91	37
505.846	505.94	89	34
505.94	506.004	83	37
505.94	506.13	93	37
506.004	506.067	84	32
506.035	506.13	89	34
506.067	506.13	83	36
506.13	506.193	84	31
506.13	506.319	91	36
506.193	506.256	83	36
506.225	506.319	89	35
506.256	506.319	84	33
506.319	506.381	83	37
506.319	506.507	93	38
506.381	506.444	84	33
506.412	506.507	89	36
506.444	506.507	83	37
506.507	506.569	84	33
506.507	506.694	91	38
506.569	506.632	83	38
506.601	506.694	89	36
506.632	506.694	84	34
506.694	506.757	83	38
506.694	506.881	93	40
506.757	506.819	84	35
506.788	506.881	89	37
506.819	506.881	83	39
506.881	506.944	84	35
506.881	507.068	91	40
506.944	507.005	83	39
506.975	507.068	89	38
507.005	507.068	84	36
507.068	507.131	83	40
507.068	507.255	93	43
507.131	507.192	84	36
507.162	507.255	89	39
507.192	507.255	83	40
507.255	507.317	84	36
507.255	507.441	91	43
507.317	507.379	83	41
507.348	507.441	89	40
507.379	507.441	84	37
507.441	507.503	83	41
507.441	507.534	93	44
507.503	507.565	84	36
507.565	507.626	83	42
507.626	507.688	84	37
507.626	507.72	89	43
507.626	507.72	91	43
507.688	507.751	83	42
507.751	507.812	84	37
507.812	507.875	83	43
507.812	507.906	89	46
507.812	507.906	91	46
507.875	507.937	84	38
507.937	507.999	83	43
507.999	508.061	84	39
507.999	508.092	89	46
507.999	508.092	91	46
508.061	508.123	83	44
508.123	508.184	84	39
508.184	508.247	83	44
508.184	508.278	89	49
508.184	508.278	91	49
508.247	508.309	84	38
508.309	508.371	83	45
508.371	508.433	84	38
508.371	508.464	89	49
508.371	508.464	91	49
508.433	508.495	83	45
508.495	508.557	84	40
508.557	508.65	83	50
508.557	508.65	89	54
508.557	508.65	91	54
508.65	508.744	84	44
508.744	508.841	81	52
508.744	508.841	89	53
508.744	508.841	91	53
508.841	508.942	83	47
508.942	511.96	60	52
508.942	509.71	72	62
508.942	510.084	84	82
509.71	510.458	64	38
509.71	510.458	67	38
509.71	510.458	70	45
510.084	510.177	84	58
510.177	510.271	82	57
510.271	510.364	80	56
510.364	510.458	79	55
510.458	511.211	65	39
510.458	511.211	68	47
510.458	510.551	80	58
510.551	510.645	79	57
510.645	510.738	77	56
510.738	510.832	76	55
510.832	510.925	77	51
510.925	511.019	79	52
511.019	511.112	80	53
511.112	511.211	82	54
511.211	511.96	64	39
511.211	511.96	67	39
511.211	511.96	70	46
511.211	511.304	84	56
511.304	511.398	85	57
511.398	511.491	84	57
511.491	511.585	83	56
511.585	511.678	84	56
511.678	511.772	82	56
511.772	511.866	80	56
511.866	511.96	79	56
511.96	512.338	65	40
511.96	512.338	68	48
511.96	512.054	80	57
512.054	512.148	82	57
512.148	512.243	80	57
512.243	512.338	79	53
512.338	512.433	77	56
512.433	512.528	76	52
512.528	512.623	77	56
512.623	512.718	79	52
512.718	513.504	53	39
512.718	513.504	56	39
512.718	513.504	61	39
512.718	513.504	65	47
512.718	513.504	68	45
512.718	513.504	80	59
513.107	513.504	77	52
513.302	513.504	73	52
513.502	514.287	55	39
513.502	514.291	60	39
513.502	514.291	63	46
513.502	514.291	67	45
513.502	514.291	79	57
513.891	514.291	75	52
514.086	514.291	72	52
514.287	515.068	55	37
514.287	515.068	59	37
514.287	515.068	62	44
514.287	515.068	65	45
514.287	515.068	77	57
514.677	515.068	74	52
514.873	515.068	71	52
515.068	518.078	48	45
515.068	515.835	60	56
515.068	516.208	72	72
515.835	516.581	52	38
515.835	516.581	55	38
515.835	516.581	58	45
516.208	516.301	72	58
516.301	516.394	70	57
516.394	516.487	69	56
516.487	516.581	67	55
516.581	517.332	53	39
516.581	517.332	57	47
516.581	516.674	69	58
516.674	516.767	67	57
516.767	516.86	65	56
516.86	516.953	64	55
516.953	517.047	65	51
517.047	517.14	67	52
517.14	517.233	69	53
517.233	517.332	70	54
517.332	518.078	52	39
517.332	518.078	55	39
517.332	518.078	58	46
517.332	517.425	72	56
517.425	517.519	74	57
517.519	517.612	72	57
517.612	517.706	71	56
517.706	517.798	72	56
517.798	517.891	70	56
517.891	517.984	69	56
517.984	518.078	67	56
518.078	518.454	53	48
518.078	518.454	57	48
518.078	518.171	69	57
518.171	518.265	70	57
518.265	518.359	69	57
518.359	518.454	67	53
518.454	518.549	65	56
518.549	518.644	64	52
518.644	518.74	65	56
518.74	518.836	67	52
518.836	519.619	41	39
518.836	519.619	45	39
518.836	519.619	50	47
518.836	519.619	57	45
518.836	519.619	69	59
519.223	519.619	65	52
519.417	519.619	62	52
519.618	521.189	43	39
519.618	520.407	48	39
519.618	520.407	52	46
519.618	521.186	55	45
519.618	520.407	67	57
520.007	520.407	64	52
520.202	520.407	60	52
520.403	521.189	50	37
520.403	521.189	53	44
520.403	521.189	65	57
520.792	521.189	62	52
520.989	521.189	59	52
521.186	521.589	48	37
521.186	521.589	52	44
521.186	521.589	55	51
521.186	521.589	60	55
521.589	521.983	40	42
521.589	522.18	48	51
521.589	521.786	72	68
521.786	521.983	71	64
521.983	522.778	41	42
521.983	522.377	69	66
522.18	522.377	50	49
522.377	522.574	52	51
522.377	522.574	65	61
522.574	522.778	53	55
522.574	522.778	62	54
522.778	524.364	43	35
522.778	523.574	52	35
522.778	523.574	55	41
522.778	523.574	67	51
523.174	523.574	64	46
523.372	523.574	60	46
523.57	524.364	50	33
523.57	524.364	53	39
523.57	524.364	65	51
523.965	524.364	62	46
524.163	524.364	59	46
524.361	524.755	48	37
524.361	524.755	52	44
524.361	524.755	60	55
524.755	525.151	45	42
524.755	525.349	53	51
524.755	524.953	77	68
524.953	525.151	76	64
525.151	525.951	46	42
525.151	525.547	74	66
525.349	525.547	55	49
525.547	525.744	57	51
525.547	525.744	70	61
525.744	525.951	58	55
525.744	525.951	67	54
525.951	527.554	48	35
525.951	526.754	57	35
525.951	526.754	60	41
525.951	526.754	72	51
526.348	526.754	69	46
526.546	526.754	65	46
526.751	527.554	55	33
526.751	527.554	58	39
526.751	527.554	70	51
527.149	527.554	67	46
527.348	527.554	64	46
527.554	527.966	53	37
527.554	527.966	56	44
527.554	527.966	65	55
527.966	528.362	44	42
527.966	528.56	53	51
527.966	528.164	77	67
528.164	528.362	75	63
528.362	529.162	46	42
528.362	528.758	73	66
528.56	528.758	55	49
528.758	528.955	56	51
528.758	528.955	70	61
528.955	529.162	58	55
528.955	529.162	67	54
529.162	530.765	48	35
529.162	529.965	56	35
529.162	529.965	60	41
529.162	529.965	72	51
529.559	529.965	68	46
529.757	529.965	65	46
529.962	530.765	55	33
529.962	530.765	58	39
529.962	530.765	70	51
530.36	530.765	67	46
530.559	530.765	64	46
530.765	530.858	49	25
530.765	530.858	53	25
530.765	530.858	56	28
530.765	530.952	65	40
530.952	531.045	37	22
530.952	531.045	44	26
530.952	531.045	49	28
530.952	531.045	53	33
531.139	531.232	37	22
531.139	531.232	44	26
531.139	531.232	49	28
531.139	531.232	53	33
531.324	531.417	37	22
531.324	531.417	44	27
531.324	531.417	49	28
531.324	531.417	53	34
531.51	531.604	37	22
531.51	531.604	44	27
531.51	531.604	49	28
531.51	531.604	53	34
531.698	531.791	37	23
531.698	531.791	44	28
531.698	531.791	49	28
531.698	531.791	53	34
531.885	531.978	37	23
531.885	531.978	44	28
531.885	531.978	49	29
531.885	531.978	53	35
532.072	532.165	37	24
532.072	532.165	44	29
532.072	532.165	49	29
532.072	532.165	53	35
532.258	532.351	37	25
532.258	532.351	44	30
532.258	532.351	49	30
532.258	532.351	53	36
532.445	532.538	37	22
532.445	532.538	44	27
532.445	532.538	49	30
532.445	532.538	53	36
532.632	532.725	37	23
532.632	532.725	44	28
532.632	532.725	49	31
532.632	532.725	53	37
532.818	532.911	37	24
532.818	532.911	44	29
532.818	532.911	49	32
532.818	532.911	53	38
533.004	533.098	37	25
533.004	533.098	44	30
533.004	533.098	49	33
533.004	533.098	53	39
533.191	533.285	37	25
533.191	533.285	44	30
533.191	533.285	49	34
533.191	533.285	53	40
533.378	533.472	37	25
533.378	533.472	46	30
533.378	533.472	51	34
533.378	533.472	55	40
533.565	533.659	37	25
533.565	533.659	46	30
533.565	533.659	51	34
533.565	533.659	55	40
533.752	533.892	36	25
533.752	533.892	39	25
533.752	533.892	44	30
533.752	534.313	56	46
533.939	534.079	36	25
533.939	534.079	39	25
533.939	534.079	44	30
534.126	534.266	36	25
534.126	534.266	39	25
534.126	534.266	44	30
534.313	534.453	36	25
534.313	534.453	39	25
534.313	534.453	44	30
534.313	534.407	60	40
534.407	534.5	58	40
534.5	534.64	36	25
534.5	534.64	39	25
534.5	534.64	44	30
534.5	534.594	56	45
534.687	534.827	36	25
534.687	534.827	39	25
534.687	534.827	44	30
534.874	535.014	36	25
534.874	535.014	39	25
534.874	535.014	44	30
535.061	535.205	36	25
535.061	535.205	39	25
535.061	535.205	44	30
535.205	535.253	86	72
535.253	535.393	36	38
535.253	535.393	39	38
535.253	535.393	41	38
535.253	535.393	45	47
535.253	535.72	87	89
535.44	535.58	36	38
535.44	535.58	39	38
535.44	535.58	41	38
535.44	535.58	45	47
535.627	535.767	36	38
535.627	535.767	39	38
535.627	535.767	41	38
535.627	535.767	45	47
535.72	535.814	85	75
535.814	535.954	36	38
535.814	535.954	39	38
535.814	535.954	41	38
535.814	535.954	45	47
535.814	535.907	84	73
535.907	536.001	82	70
536.001	536.141	36	38
536.001	536.141	39	38
536.001	536.141	41	38
536.001	536.141	45	47
536.001	536.188	81	69
536.188	536.328	36	37
536.188	536.328	39	37
536.188	536.328	41	37
536.188	536.328	45	45
536.375	536.515	36	37
536.375	536.515	39	37
536.375	536.515	41	37
536.375	536.515	45	45
536.561	536.704	36	37
536.561	536.704	39	37
536.561	536.704	41	37
536.561	536.704	45	45
536.752	536.892	37	25
536.752	536.892	41	25
536.752	536.892	46	30
536.752	537.313	58	46
536.939	537.079	37	25
536.939	537.079	41	25
536.939	537.079	46	30
537.126	537.266	37	25
537.126	537.266	41	25
537.126	537.266	46	30
537.313	537.451	37	25
537.313	537.451	41	25
537.313	537.451	46	30
537.313	537.405	61	40
537.405	537.497	60	40
537.497	537.637	37	25
537.497	537.637	41	25
537.497	537.637	46	30
537.497	537.59	58	45
537.684	537.824	37	25
537.684	537.824	41	25
537.684	537.824	46	30
537.871	538.011	37	25
537.871	538.011	41	25
537.871	538.011	46	30
538.058	538.202	37	25
538.058	538.202	41	25
538.058	538.202	46	30
538.202	538.25	88	72
538.25	538.39	38	38
538.25	538.39	41	38
538.25	538.39	47	47
538.25	538.716	89	89
538.437	538.577	38	38
538.437	538.577	41	38
538.437	538.577	47	47
538.624	538.762	38	38
538.624	538.762	41	38
538.624	538.762	47	47
538.716	538.808	87	75
538.808	538.947	38	38
538.808	538.947	41	38
538.808	538.947	47	47
538.808	538.9	86	73
538.9	538.993	84	70
538.993	539.133	38	37
538.993	539.133	41	37
538.993	539.133	47	45
538.993	539.18	83	69
539.18	539.32	38	37
539.18	539.32	41	37
539.18	539.32	47	45
539.367	539.507	38	37
539.367	539.507	41	37
539.367	539.507	47	45
539.554	539.697	38	37
539.554	539.697	41	37
539.554	539.697	47	45
539.744	539.884	39	37
539.744	539.884	43	37
539.744	539.884	47	45
539.744	539.931	60	82
539.931	540.068	39	37
539.931	540.068	43	37
539.931	540.068	47	45
539.931	540.023	63	70
540.023	540.114	62	70
540.114	540.254	39	37
540.114	540.254	43	37
540.114	540.254	48	45
540.114	540.301	60	74
540.301	540.448	39	37
540.301	540.448	43	37
540.301	540.448	48	45
540.497	540.635	41	37
540.497	540.635	44	37
540.497	540.635	48	45
540.497	540.589	80	78
540.589	540.681	79	75
540.681	540.819	41	38
540.681	540.819	44	38
540.681	540.819	48	46
540.681	540.773	77	73
540.773	540.865	75	70
540.865	541.005	41	38
540.865	541.005	44	38
540.865	541.005	50	46
540.865	541.052	74	74
541.052	541.192	41	38
541.052	541.192	44	38
541.052	541.192	50	46
541.239	541.379	43	38
541.239	541.379	46	38
541.239	541.379	50	47
541.239	541.426	64	82
541.426	541.563	43	38
541.426	541.563	46	38
541.426	541.563	50	47
541.426	541.517	67	70
541.517	541.608	65	70
541.608	541.749	43	39
541.608	541.749	46	39
541.608	541.749	52	47
541.608	541.795	64	74
541.795	541.944	43	39
541.795	541.944	46	39
541.795	541.944	52	48
541.994	542.132	44	39
541.994	542.132	48	39
541.994	542.132	52	48
541.994	542.086	84	78
542.086	542.178	82	75
542.178	542.316	44	39
542.178	542.316	48	39
542.178	542.316	52	48
542.178	542.27	80	73
542.27	542.362	79	70
542.362	542.502	44	40
542.362	542.502	48	40
542.362	542.502	53	49
542.362	542.549	77	74
542.549	542.692	44	40
542.549	542.692	48	40
542.549	542.692	53	49
542.739	542.877	45	42
542.739	542.877	48	42
542.739	542.877	54	51
542.739	542.831	87	90
542.831	542.923	86	86
542.923	543.061	45	42
542.923	543.061	48	42
542.923	543.061	54	51
542.923	543.015	84	84
543.015	543.107	83	80
543.107	543.248	45	42
543.107	543.248	48	42
543.107	543.248	54	51
543.107	543.294	84	85
543.294	543.437	45	42
543.294	543.437	48	42
543.294	543.437	54	51
543.485	543.623	45	42
543.485	543.623	48	42
543.485	543.623	54	51
543.485	543.577	75	90
543.577	543.669	74	86
543.669	543.807	45	42
543.669	543.807	48	42
543.669	543.807	54	51
543.669	543.761	72	84
543.761	543.853	71	80
543.853	543.993	45	42
543.853	543.993	48	42
543.853	543.993	54	51
543.853	544.04	72	85
544.04	544.188	45	42
544.04	544.188	48	42
544.04	544.188	54	51
544.237	544.375	44	42
544.237	544.375	48	42
544.237	544.375	54	51
544.237	544.329	63	90
544.329	544.421	62	86
544.421	544.559	44	42
544.421	544.559	48	42
544.421	544.559	54	51
544.421	544.513	60	84
544.513	544.605	59	80
544.605	544.745	44	42
544.605	544.745	48	42
544.605	544.745	54	51
544.605	544.792	60	85
544.792	544.932	44	42
544.792	544.932	48	42
544.792	544.932	54	51
544.979	545.117	44	42
544.979	545.117	48	42
544.979	545.117	51	51
544.979	545.071	75	90
545.071	545.163	74	86
545.163	545.301	44	42
545.163	545.301	48	42
545.163	545.301	51	51
545.163	545.255	72	84
545.255	545.347	71	80
545.347	545.49	44	42
545.347	545.49	48	51
545.347	545.442	72	85
545.442	545.539	74	85
545.539	545.689	44	42
545.539	545.689	48	51
545.539	545.638	75	85
545.638	545.74	78	85
545.74	545.919	43	42
545.74	545.919	47	51
545.74	545.919	79	85
545.935	546.114	67	38
545.935	546.114	79	45
546.13	546.309	67	38
546.13	546.309	79	45
546.326	546.504	67	38
546.326	546.504	79	45
546.521	546.7	67	38
546.521	546.7	79	45
546.716	546.895	67	38
546.716	546.895	79	45
546.911	547.09	67	38
546.911	547.09	79	45
547.106	547.285	67	38
547.106	547.285	79	45
547.301	547.477	67	37
547.301	547.477	70	37
547.301	547.477	73	37
547.301	547.477	79	45
547.493	547.668	67	39
547.493	547.668	70	39
547.493	547.668	73	39
547.493	547.668	79	47
547.684	547.859	67	41
547.684	547.859	70	41
547.684	547.859	73	41
547.684	547.859	79	49
547.875	548.05	67	43
547.875	548.05	70	43
547.875	548.05	73	43
547.875	548.05	79	52
548.066	548.243	67	45
548.066	548.243	70	45
548.066	548.243	73	45
548.066	548.243	79	54
548.259	548.438	67	46
548.259	548.438	70	46
548.259	548.438	73	46
548.259	548.438	79	55
548.454	548.635	67	49
548.454	548.635	70	49
548.454	548.635	73	49
548.454	548.635	79	59
548.652	548.835	67	51
548.652	548.835	70	51
548.652	548.835	73	51
548.652	548.835	79	61
548.851	549.003	47	29
548.851	549.003	50	35
548.851	549.053	67	41
548.851	549.053	71	41
548.851	549.053	74	41
548.851	549.053	79	49
549.053	549.2	47	29
549.053	549.2	50	35
549.053	549.444	79	49
549.053	549.444	91	58
549.248	549.395	47	29
549.248	549.395	50	35
549.444	549.59	47	29
549.444	549.59	50	35
549.444	549.834	77	53
549.444	549.834	89	53
549.639	549.785	47	29
549.639	549.785	50	35
549.834	549.98	47	29
549.834	549.98	50	35
549.834	550.224	76	46
549.834	550.224	88	55
550.029	550.175	47	29
550.029	550.175	50	35
550.224	550.366	47	29
550.224	550.366	50	35
550.224	550.609	74	45
550.224	550.609	86	53
550.413	550.56	47	29
550.413	550.56	50	35
550.609	550.756	47	29
550.609	550.756	50	35
550.609	551.002	72	44
550.609	551.002	84	52
550.805	550.953	47	29
550.805	550.953	50	35
551.002	551.148	47	29
551.002	551.148	50	35
551.002	551.392	71	42
551.002	551.392	83	50
551.197	551.344	47	29
551.197	551.344	50	35
551.392	551.538	47	29
551.392	551.538	50	35
551.392	551.78	69	41
551.392	551.78	81	49
551.586	551.732	49	29
551.586	551.732	52	35
551.78	551.925	49	29
551.78	551.925	52	35
551.78	551.973	67	39
551.78	551.973	79	47
551.973	552.905	50	42
551.973	552.534	53	42
551.973	552.066	65	38
551.973	552.066	77	45
552.066	552.16	62	37
552.16	552.253	64	39
552.253	552.347	65	40
552.347	552.44	67	42
552.44	552.534	69	44
552.534	552.626	57	40
552.534	552.626	71	45
552.626	552.718	55	40
552.626	552.718	73	47
552.718	552.905	53	45
552.718	552.811	74	48
552.811	552.905	65	42
552.905	552.998	67	43
552.998	553.092	69	45
553.092	553.185	71	46
553.185	553.279	73	48
553.279	553.375	74	49
553.375	553.47	76	50
553.47	553.938	69	46
553.47	553.564	77	52
553.564	553.657	74	46
553.657	553.751	76	46
553.751	553.844	77	47
553.844	553.938	79	48
553.938	554.031	67	40
553.938	554.031	81	49
554.031	554.123	65	40
554.031	554.123	83	50
554.123	554.215	64	40
554.123	554.215	85	51
554.215	554.402	62	45
554.215	554.309	86	52
554.309	554.402	85	46
554.402	554.496	86	47
554.496	554.589	88	48
554.589	554.683	89	49
554.683	554.776	85	51
554.776	554.872	86	52
554.872	554.968	88	53
554.968	555.12	45	29
554.968	555.12	48	35
554.968	555.17	89	49
555.17	555.316	45	29
555.17	555.316	48	35
555.17	555.56	77	49
555.17	555.56	89	58
555.365	555.512	45	29
555.365	555.512	48	35
555.56	555.707	45	29
555.56	555.707	48	35
555.56	555.951	76	53
555.56	555.951	88	53
555.755	555.902	45	29
555.755	555.902	48	35
555.951	556.097	45	29
555.951	556.097	48	35
555.951	556.341	74	46
555.951	556.341	86	55
556.146	556.292	45	29
556.146	556.292	48	35
556.341	556.483	45	29
556.341	556.483	48	35
556.341	556.726	72	45
556.341	556.726	84	53
556.53	556.677	45	29
556.53	556.677	48	35
556.726	556.873	45	29
556.726	556.873	48	35
556.726	557.118	71	44
556.726	557.118	83	52
556.922	557.069	45	29
556.922	557.069	48	35
557.118	557.265	45	29
557.118	557.265	48	35
557.118	557.509	69	42
557.118	557.509	81	50
557.314	557.46	45	29
557.314	557.46	48	35
557.509	557.655	45	29
557.509	557.655	48	35
557.509	557.897	67	41
557.509	557.897	79	49
557.703	557.849	47	29
557.703	557.849	50	35
557.897	558.042	47	29
557.897	558.042	50	35
557.897	558.09	65	39
557.897	558.09	77	47
558.09	559.021	48	42
558.09	558.651	52	42
558.09	558.183	64	38
558.09	558.183	76	45
558.183	558.277	64	37
558.277	558.37	65	39
558.37	558.464	67	40
558.464	558.557	69	42
558.557	558.651	71	44
558.651	558.743	55	40
558.651	558.743	72	45
558.743	558.835	53	40
558.743	558.835	74	47
558.835	559.021	52	45
558.835	558.928	76	48
558.928	559.021	69	42
559.021	559.115	71	43
559.115	559.208	72	45
559.208	559.302	74	46
559.302	559.395	76	48
559.395	559.491	78	49
559.491	559.587	80	50
559.539	559.587	48	36
559.587	560.055	64	46
559.587	559.681	81	52
559.681	559.774	76	46
559.774	559.868	78	46
559.868	559.961	80	47
559.961	560.055	81	48
560.055	560.148	62	40
560.055	560.148	83	49
560.148	560.24	60	40
560.148	560.24	84	50
560.24	560.332	59	40
560.24	560.332	86	51
560.332	560.519	57	45
560.332	560.426	88	52
560.426	560.519	86	46
560.519	560.613	84	47
560.613	560.706	83	48
560.706	560.799	81	49
560.799	560.893	83	51
560.893	560.989	84	52
560.989	561.085	81	53
561.085	562.017	50	44
561.085	561.646	53	44
561.178	561.272	65	38
561.272	561.365	67	41
561.365	561.459	69	42
561.459	561.552	71	44
561.552	561.646	72	47
561.646	561.738	57	43
561.646	561.738	74	48
561.738	561.83	55	43
561.738	561.83	76	50
561.83	562.017	53	49
561.83	561.923	77	52
561.923	562.017	71	45
562.017	562.11	72	47
562.11	562.204	74	49
562.204	562.297	76	51
562.297	562.391	77	53
562.391	562.486	79	54
562.486	562.582	81	56
562.534	562.582	50	35
562.582	563.05	65	55
562.582	562.676	83	58
562.676	562.769	77	51
562.769	562.863	79	52
562.863	562.956	81	53
562.956	563.05	83	55
563.05	563.143	64	46
563.05	563.143	84	56
563.143	563.235	62	46
563.143	563.235	86	58
563.235	563.327	60	46
563.235	563.327	88	59
563.327	563.514	59	52
563.327	563.421	89	60
563.421	563.514	88	54
563.514	563.608	86	55
563.608	563.701	84	57
563.701	563.795	83	58
563.795	563.888	84	61
563.888	563.984	86	62
563.984	564.104	83	64
564.032	564.104	52	40
564.104	564.572	67	64
564.198	564.291	79	56
564.291	564.385	81	56
564.385	564.478	83	57
564.478	564.572	84	59
564.572	564.665	65	52
564.572	564.665	86	60
564.665	564.757	64	51
564.665	564.757	88	62
564.757	564.849	62	51
564.757	564.849	89	63
564.849	565.036	61	56
564.849	564.943	91	65
564.943	565.036	89	57
565.036	565.13	88	59
565.13	565.223	86	60
565.223	565.317	85	62
565.317	565.41	86	65
565.41	565.506	88	66
565.506	565.627	85	68
565.554	565.627	53	46
565.627	566.0	69	73
565.72	565.813	73	59
565.813	565.907	74	59
565.907	566.0	76	61
566.0	566.094	67	60
566.0	566.094	77	63
566.094	566.187	65	60
566.094	566.187	79	64
566.187	566.284	64	60
566.187	566.284	81	66
566.284	566.397	62	59
566.284	566.49	77	67
566.334	566.397	55	47
566.397	566.77	71	75
566.49	566.583	75	61
566.583	566.677	76	61
566.677	566.77	77	64
566.77	566.864	69	62
566.77	566.864	79	65
566.864	566.957	67	62
566.864	566.957	81	66
566.957	567.053	65	63
566.957	567.053	83	69
567.053	567.163	64	62
567.053	567.257	79	70
567.102	567.163	57	50
567.163	567.537	72	78
567.257	567.35	76	63
567.35	567.444	77	64
567.444	567.537	79	66
567.537	567.63	71	64
567.537	567.63	81	68
567.63	567.724	69	64
567.63	567.724	83	69
567.724	567.819	67	65
567.724	567.819	84	72
567.819	567.93	65	64
567.819	568.023	81	73
567.868	567.93	59	54
567.93	568.303	74	81
568.023	568.117	78	66
568.117	568.21	79	66
568.21	568.303	81	68
568.303	568.397	72	67
568.303	568.397	83	70
568.397	568.491	71	67
568.397	568.491	84	71
568.491	568.586	69	67
568.491	568.586	86	74
568.586	568.695	67	66
568.586	568.788	83	75
568.635	568.695	60	56
568.695	569.069	76	84
568.788	568.882	80	69
568.882	568.975	81	69
568.975	569.069	83	71
569.069	569.162	74	69
569.069	569.162	84	73
569.162	569.256	72	70
569.162	569.256	86	74
569.256	569.354	71	70
569.256	569.354	88	77
569.354	569.464	69	69
569.354	569.558	84	79
569.404	569.464	62	58
569.464	569.838	77	87
569.558	569.651	82	71
569.651	569.745	83	71
569.745	569.838	84	74
569.838	569.932	76	71
569.838	569.932	86	75
569.932	570.025	74	72
569.932	570.025	88	77
570.025	570.121	72	72
570.025	570.121	89	79
570.121	570.989	71	71
570.121	570.989	86	81
570.219	570.602	64	78
570.283	570.665	72	74
570.347	570.729	76	74
570.41	570.793	79	76
570.474	570.857	84	69
570.538	570.92	91	70
570.602	570.984	64	79
570.665	570.989	72	74
570.729	570.989	76	75
570.793	570.989	79	78
570.857	570.989	84	72
570.92	570.989	91	71
570.984	571.369	64	81
571.048	571.433	72	77
571.111	571.498	76	77
571.175	571.564	80	80
571.24	571.629	84	73
571.304	571.695	92	74
571.369	571.764	64	81
571.433	571.761	72	78
571.498	571.764	76	79
571.564	571.764	80	82
571.629	571.764	84	75
571.695	571.764	92	75
571.761	572.146	65	75
571.761	572.146	72	75
571.761	572.146	77	75
571.761	572.146	81	85
571.862	572.146	93	88
571.955	572.146	91	87
572.049	572.146	89	86
572.142	572.52	88	86
572.236	572.52	86	85
572.329	572.52	84	84
572.422	572.52	83	83
572.516	572.895	81	82
572.61	572.895	79	81
572.703	572.895	77	80
572.797	572.895	76	79
572.891	573.268	74	78
572.985	573.268	72	77
573.078	573.268	71	77
573.172	573.268	69	76
573.266	573.647	68	75
573.36	573.647	69	78
573.454	573.647	67	77
573.548	573.647	65	77
573.642	574.401	29	75
573.642	574.021	64	77
573.736	574.021	62	77
573.83	574.021	60	76
573.924	574.021	59	76
574.018	574.401	57	76
574.112	574.401	31	68
574.112	574.401	55	75
574.206	574.401	33	69
574.206	574.401	53	75
574.3	574.401	35	70
574.3	574.401	52	75
574.394	574.771	36	71
574.394	574.771	50	75
574.488	574.771	38	73
574.488	574.771	48	74
574.582	574.771	40	74
574.582	574.771	47	74
574.677	574.771	41	75
574.677	574.771	45	74
574.771	575.151	31	63
574.771	575.151	36	63
574.771	575.151	40	75
574.771	574.866	43	75
574.866	574.961	48	75
574.961	575.056	47	47
575.056	575.151	50	47
575.151	575.246	48	47
575.246	575.341	52	48
575.341	575.436	51	48
575.436	575.531	53	48
575.531	575.626	52	48
575.626	575.72	55	49
575.72	575.815	54	49
575.815	575.91	57	49
575.91	576.004	55	50
576.004	576.099	60	50
576.099	576.194	59	50
576.194	576.288	62	51
576.288	576.382	60	51
576.382	576.476	64	51
576.476	576.569	63	52
576.569	576.663	65	52
576.663	576.757	64	52
576.757	576.851	67	53
576.851	576.944	66	53
576.944	577.038	69	53
577.038	577.132	67	54
577.132	577.226	72	54
577.226	577.319	71	54
577.319	577.413	74	55
577.413	577.507	72	55
577.507	577.601	76	55
577.601	577.695	75	56
577.695	577.788	77	56
577.788	577.882	76	56
577.882	577.976	79	58
577.976	578.07	78	60
578.07	578.177	81	62
578.177	578.224	79	70
578.271	578.458	76	52
578.271	578.458	84	62
578.364	578.561	75	52
578.364	578.561	83	62
578.458	578.561	76	53
578.458	578.561	84	63
578.561	578.608	67	60
578.561	578.608	79	70
578.655	578.843	72	54
578.655	578.843	88	63
578.749	578.943	71	55
578.749	578.943	87	64
578.843	578.943	72	55
578.843	578.943	88	65
578.943	578.989	67	61
578.943	578.989	79	72
579.036	579.224	76	56
579.036	579.224	84	65
579.13	579.323	75	56
579.13	579.323	83	66
579.224	579.323	76	56
579.224	579.323	84	66
579.323	579.37	67	63
579.323	579.37	79	74
579.417	579.605	72	57
579.417	579.605	88	67
579.511	579.703	71	58
579.511	579.703	87	68
579.605	579.703	72	58
579.605	579.703	88	68
579.703	579.75	67	65
579.703	579.75	79	76
579.797	579.985	76	59
579.797	579.985	84	69
579.891	580.083	75	59
579.891	580.083	83	69
579.985	580.083	76	59
579.985	580.083	84	70
580.083	580.13	67	67
580.083	580.13	79	78
580.177	580.365	72	60
580.177	580.365	88	71
580.271	580.459	71	60
580.271	580.459	87	71
580.365	580.459	72	61
580.365	580.459	88	71
580.459	580.506	67	69
580.459	580.506	79	80
580.554	580.761	76	62
580.554	580.761	84	72
580.652	580.889	75	62
580.652	580.889	83	73
580.761	580.889	76	63
580.761	580.889	84	73
580.889	583.236	67	73
580.889	583.002	74	73
580.889	582.86	77	73
580.889	582.384	83	87
580.889	582.372	89	87
582.372	583.236	89	73
582.441	583.236	88	73
582.51	583.236	86	72
582.579	583.236	84	71
582.649	583.236	83	70
582.719	583.236	81	69
582.789	583.236	79	68
582.86	583.229	77	68
582.931	583.236	76	66
583.002	583.236	74	66
583.074	583.236	72	65
583.148	583.229	71	65
583.229	585.849	55	65
583.229	585.852	62	65
583.229	585.732	65	65
583.229	585.11	71	78
583.229	585.096	77	78
585.096	585.852	77	64
585.179	585.852	76	62
585.264	585.852	74	60
585.351	585.852	72	60
585.44	585.852	71	60
585.53	585.852	69	59
585.627	585.852	67	56
585.732	585.852	65	54
585.849	586.739	36	33
585.849	586.739	48	39
585.849	586.739	55	42
585.849	586.739	60	42
585.849	586.739	64	50
586.739	587.175	32	29
586.739	587.175	44	29
586.739	587.175	53	40
586.739	587.175	59	40
586.739	587.175	62	48
587.175	587.636	33	29
587.175	587.636	45	35
587.175	587.636	52	40
587.175	587.636	57	40
587.175	587.636	60	48
587.636	588.529	40	39
587.636	588.529	50	42
587.636	588.529	56	42
587.636	588.529	59	50
588.529	589.444	41	34
588.529	589.444	48	40
588.529	589.444	57	48
589.444	590.345	50	34
589.444	590.345	53	41
589.444	590.345	55	34
589.444	590.345	59	41
589.444	590.345	65	45
589.444	590.345	67	45
589.444	590.345	71	53
590.345	590.785	52	38
590.345	590.785	55	38
590.345	590.785	60	46
590.345	590.785	67	47
590.345	590.785	72	56
590.785	591.272	53	43
590.785	591.272	57	43
590.785	591.272	60	43
590.785	591.272	62	51
590.785	591.272	69	51
590.785	591.272	72	51
590.785	591.272	74	62
591.272	593.09	55	46
591.272	592.166	60	46
591.272	592.166	64	56
591.272	592.618	67	56
591.272	592.166	72	56
591.272	592.166	76	67
592.166	593.09	59	41
592.166	593.09	62	49
592.166	593.09	71	50
592.166	593.09	74	60
592.618	592.854	79	50
592.854	593.09	77	49
593.09	593.969	72	42
593.09	593.969	76	50
593.529	593.969	84	44
593.529	593.969	88	52
593.969	594.398	68	40
593.969	594.398	71	40
593.969	594.398	74	48
593.969	594.398	77	42
593.969	594.398	83	42
593.969	594.398	86	50
594.398	594.847	69	40
594.398	594.847	72	48
594.398	594.847	76	42
594.398	594.847	81	42
594.398	594.847	84	50
594.847	595.718	64	42
594.847	595.718	68	42
594.847	595.718	71	50
594.847	595.718	74	45
594.847	595.718	80	45
594.847	595.718	83	53
595.718	596.624	65	40
595.718	596.624	69	48
595.718	596.624	72	42
595.718	596.624	81	50
596.624	599.382	55	34
596.624	597.077	64	34
596.624	597.077	67	40
596.624	597.077	72	45
596.624	597.077	76	45
596.624	597.548	79	53
597.077	599.382	65	29
597.077	599.382	69	35
597.077	599.382	74	40
597.077	599.382	77	48
597.548	598.08	81	53
598.08	599.382	83	51
599.382	603.851	43	34
599.382	599.867	52	34
599.382	599.867	55	40
599.382	599.867	60	45
599.382	599.867	64	45
599.382	600.362	67	53
599.867	603.851	53	29
599.867	603.851	57	35
599.867	603.851	62	40
599.867	603.851	65	48
601.353	602.383	68	56
602.383	603.851	71	46
603.851	608.319	31	34
603.851	604.336	40	34
603.851	604.336	43	40
603.851	604.336	48	45
603.851	604.336	52	45
603.851	604.831	55	53
604.336	608.319	41	29
604.336	608.319	45	35
604.336	608.319	50	40
604.336	608.319	53	48
605.822	606.852	57	56
606.852	608.319	59	46
608.319	608.41	36	25
608.319	608.41	48	25
608.319	608.41	52	28
608.319	608.5	60	40
608.5	608.591	48	22
608.5	608.591	55	26
608.5	608.591	60	28
608.5	608.591	64	33
608.681	608.771	48	22
608.681	608.771	55	26
608.681	608.771	60	28
608.681	608.771	64	33
608.861	608.951	48	22
608.861	608.951	55	27
608.861	608.951	60	28
608.861	608.951	64	34
609.04	609.131	48	22
609.04	609.131	55	27
609.04	609.131	60	28
609.04	609.131	64	34
609.222	609.312	48	23
609.222	609.312	55	28
609.222	609.312	60	28
609.222	609.312	64	34
609.403	609.493	48	23
609.403	609.493	55	28
609.403	609.493	60	29
609.403	609.493	64	35
609.583	609.673	48	24
609.583	609.673	55	29
609.583	609.673	60	29
609.583	609.673	64	35
609.764	609.854	48	25
609.764	609.854	55	30
609.764	609.854	60	30
609.764	609.854	64	36
609.944	610.035	48	22
609.944	610.035	55	27
609.944	610.035	60	30
609.944	610.035	64	36
610.125	610.215	48	23
610.125	610.215	55	28
610.125	610.215	60	31
610.125	610.215	64	37
610.305	610.395	48	24
610.305	610.395	55	29
610.305	610.395	60	32
610.305	610.395	64	38
610.486	610.576	48	25
610.486	610.576	55	30
610.486	610.576	60	33
610.486	610.576	64	39
610.666	610.757	48	25
610.666	610.757	55	30
610.666	610.757	60	34
610.666	610.757	64	40
610.847	610.938	48	25
610.847	610.938	57	30
610.847	610.938	62	34
610.847	610.938	66	40
611.028	611.119	48	25
611.028	611.119	57	30
611.028	611.119	62	34
611.028	611.119	66	40
611.209	611.345	47	28
611.209	611.345	50	28
611.209	611.345	55	34
611.209	611.39	67	52
611.39	611.523	47	28
611.39	611.523	50	28
611.39	611.523	55	34
611.39	611.478	71	46
611.478	611.567	69	46
611.567	611.703	47	28
611.567	611.703	50	28
611.567	611.703	55	34
611.567	611.658	67	52
611.748	611.884	47	28
611.748	611.884	50	28
611.748	611.884	55	35
611.929	612.064	46	34
611.929	612.064	48	34
611.929	612.064	55	42
611.929	612.11	72	65
612.11	612.243	46	34
612.11	612.243	48	34
612.11	612.243	55	42
612.11	612.198	76	58
612.198	612.287	74	58
612.287	612.423	46	35
612.287	612.423	48	35
612.287	612.423	55	42
612.287	612.378	72	64
612.468	612.604	46	35
612.468	612.604	48	35
612.468	612.604	55	43
612.649	612.784	45	38
612.649	612.784	48	38
612.649	612.784	53	48
612.649	612.83	77	75
612.83	612.963	45	38
612.83	612.963	48	38
612.83	612.963	53	48
612.83	612.918	81	65
612.918	613.007	79	65
613.007	613.143	45	39
613.007	613.143	48	39
613.007	613.143	53	49
613.007	613.097	77	73
613.188	613.323	45	39
613.188	613.323	48	39
613.188	613.323	53	49
613.369	613.55	44	62
613.369	614.097	48	62
613.369	614.097	53	62
613.369	613.55	89	87
613.459	613.64	88	79
613.55	613.73	32	55
613.55	613.73	44	55
613.55	613.73	89	79
613.64	613.821	88	79
613.73	613.911	32	55
613.73	613.911	44	55
613.73	613.911	89	79
613.821	614.002	88	79
613.911	614.097	32	55
613.911	614.097	44	55
613.911	614.092	89	79
614.002	614.097	88	79
614.092	614.82	31	56
614.092	614.725	43	56
614.092	614.82	89	78
614.182	614.82	33	57
614.182	614.82	88	78
614.273	614.82	35	57
614.273	614.82	86	79
614.363	614.82	36	58
614.363	614.82	84	80
614.454	614.82	38	59
614.454	614.82	83	81
614.544	614.82	40	59
614.544	614.82	81	82
614.635	614.82	41	60
614.635	614.82	79	83
614.725	614.82	43	62
614.725	614.82	77	84
614.815	615.569	45	62
614.815	615.569	76	85
614.906	615.569	47	63
614.906	615.569	74	86
614.997	615.569	48	63
614.997	615.569	72	88
615.09	615.569	50	64
615.09	615.569	71	89
615.183	615.569	52	65
615.183	615.569	69	90
615.277	615.565	53	66
615.277	615.569	67	92
615.372	615.569	55	67
615.372	615.569	65	92
615.468	615.569	57	68
615.468	615.569	64	93
615.565	615.76	41	66
615.565	615.76	53	78
615.565	615.76	62	100
615.955	616.15	43	66
615.955	616.15	47	66
615.955	616.15	50	78
615.955	616.15	55	78
615.955	616.15	67	85
615.955	616.15	71	85
615.955	616.15	74	100
615.955	616.15	79	100
617.126	617.321	48	66
617.126	617.321	52	66
617.126	617.321	55	78
617.126	617.321	60	78
617.126	617.321	64	89
617.126	617.321	67	89
617.126	617.321	72	106
617.126	617.321	76	106
617.906	618.102	43	66
617.906	618.102	47	66
617.906	618.102	50	78
617.906	618.102	55	78
617.906	618.102	67	89
617.906	618.102	71	89
617.906	618.102	74	106
617.906	618.102	79	106
618.721	618.934	36	65
618.721	618.934	40	65
618.721	618.934	43	77
618.721	618.934	48	77
618.721	618.934	72	89
618.721	618.934	76	89
618.721	618.934	79	106
618.721	618.934	84	106
