# onset,offset,note,velocity
0.500004	1.481372	53.000000	46.000000
0.500004	1.481372	56.000000	46.000000
0.500004	1.680955	37.000000	38.000000
0.500004	1.680955	44.000000	38.000000
0.500004	1.680955	49.000000	38.000000
1.382358	1.786218	54.000000	37.000000
1.382358	1.786218	58.000000	37.000000
1.680955	2.312522	56.000000	37.000000
1.680955	2.307265	53.000000	37.000000
1.680955	2.312522	44.000000	30.000000
1.680955	2.312522	37.000000	30.000000
1.680955	2.312522	49.000000	30.000000
2.312522	2.458152	53.000000	46.000000
2.312522	3.448290	37.000000	32.000000
2.312522	3.448290	49.000000	32.000000
2.312522	3.448290	44.000000	32.000000
2.458152	2.602616	56.000000	39.000000
2.602616	2.745699	61.000000	43.000000
2.745699	2.887427	65.000000	40.000000
2.887427	3.027840	68.000000	43.000000
3.027840	3.166940	73.000000	43.000000
3.166940	3.305409	77.000000	44.000000
3.305409	3.448290	80.000000	47.000000
3.448290	4.052686	85.000000	52.000000
3.448290	4.052686	61.000000	30.000000
3.448290	4.052686	65.000000	30.000000
3.448290	4.052686	56.000000	30.000000
4.107631	5.078498	68.000000	38.000000
4.107631	5.078498	65.000000	38.000000
4.107631	5.274715	56.000000	31.000000
4.107631	5.274715	49.000000	31.000000
4.107631	5.274715	61.000000	31.000000
4.981415	5.379978	66.000000	35.000000
4.981415	5.379978	70.000000	35.000000
5.274715	5.906295	65.000000	36.000000
5.274715	5.906295	68.000000	36.000000
5.274715	5.906295	49.000000	30.000000
5.274715	5.906295	61.000000	30.000000
5.274715	5.906295	56.000000	30.000000
5.906295	6.051926	65.000000	38.000000
5.906295	7.038738	56.000000	32.000000
5.906295	7.038738	49.000000	32.000000
5.906295	7.038738	61.000000	32.000000
6.051926	6.196390	68.000000	32.000000
6.196390	6.339472	73.000000	36.000000
6.339472	6.481200	77.000000	34.000000
6.481200	6.621614	80.000000	36.000000
6.621614	6.760713	85.000000	36.000000
6.760713	6.898539	89.000000	37.000000
6.898539	7.038738	92.000000	38.000000
7.038738	7.698079	97.000000	42.000000
7.038738	7.698079	73.000000	25.000000
7.038738	7.698079	68.000000	25.000000
7.038738	7.698079	77.000000	25.000000
7.698079	8.863124	54.000000	46.000000
7.698079	8.863124	63.000000	46.000000
7.698079	8.863124	48.000000	40.000000
7.698079	8.863124	44.000000	40.000000
8.863124	9.484337	54.000000	46.000000
8.863124	9.317665	63.000000	46.000000
8.863124	9.484337	44.000000	39.000000
8.863124	9.317665	48.000000	39.000000
9.317665	9.484337	60.000000	42.000000
9.317665	9.484337	51.000000	36.000000
9.484337	9.651010	54.000000	42.000000
9.484337	9.651010	60.000000	42.000000
9.484337	10.641604	44.000000	42.000000
9.484337	10.641604	51.000000	42.000000
9.651010	9.792523	80.000000	46.000000
9.792523	9.934037	78.000000	43.000000
9.934037	10.075550	75.000000	43.000000
10.075550	10.217064	72.000000	49.000000
10.217064	10.358577	68.000000	48.000000
10.358577	10.500091	66.000000	44.000000
10.500091	10.641604	63.000000	44.000000
10.641604	10.782675	60.000000	46.000000
10.641604	11.246376	48.000000	35.000000
10.641604	11.246376	44.000000	35.000000
10.782675	10.926911	56.000000	42.000000
10.926911	11.073963	55.000000	46.000000
11.073963	11.246376	54.000000	42.000000
11.246376	12.411421	61.000000	46.000000
11.246376	12.411421	53.000000	46.000000
11.246376	12.411421	44.000000	39.000000
11.246376	12.411421	37.000000	39.000000
11.246376	12.411421	49.000000	39.000000
12.411421	13.036416	53.000000	44.000000
12.411421	13.036416	61.000000	44.000000
12.411421	13.036416	37.000000	37.000000
12.411421	13.036416	49.000000	37.000000
12.411421	13.036416	44.000000	37.000000
13.036416	13.197711	53.000000	42.000000
13.036416	13.197711	56.000000	42.000000
13.036416	14.188305	44.000000	35.000000
13.036416	14.188305	49.000000	35.000000
13.036416	14.188305	37.000000	35.000000
13.197711	13.339224	77.000000	49.000000
13.339224	13.480738	73.000000	46.000000
13.480738	13.622251	68.000000	46.000000
13.622251	13.763765	65.000000	49.000000
13.763765	13.905278	61.000000	43.000000
13.905278	14.046791	56.000000	46.000000
14.046791	14.188305	53.000000	43.000000
14.188305	14.330502	49.000000	42.000000
14.330502	14.479284	44.000000	38.000000
14.479284	14.635295	41.000000	40.000000
14.635295	14.827596	37.000000	39.000000
14.827596	15.928523	50.000000	43.000000
14.827596	15.928523	56.000000	43.000000
14.827596	15.653288	58.000000	43.000000
14.827596	15.928523	34.000000	39.000000
14.827596	15.928523	41.000000	39.000000
14.827596	15.928523	46.000000	39.000000
15.653288	15.928523	59.000000	42.000000
15.928523	16.499955	58.000000	39.000000
15.928523	16.499955	56.000000	39.000000
15.928523	16.499955	50.000000	39.000000
15.928523	16.499955	34.000000	38.000000
15.928523	16.499955	46.000000	38.000000
15.928523	16.499955	41.000000	38.000000
16.499955	16.636318	51.000000	39.000000
16.499955	16.636318	54.000000	39.000000
16.499955	17.590864	39.000000	36.000000
16.499955	17.590864	46.000000	36.000000
16.636318	16.772682	51.000000	39.000000
16.772682	16.909046	54.000000	42.000000
16.909046	17.045409	58.000000	42.000000
17.045409	17.181773	63.000000	48.000000
17.181773	17.318136	66.000000	44.000000
17.318136	17.454500	70.000000	49.000000
17.454500	17.590864	66.000000	50.000000
17.590864	18.236029	75.000000	63.000000
17.590864	18.236029	63.000000	31.000000
17.590864	18.236029	54.000000	31.000000
17.590864	18.236029	58.000000	31.000000
18.236029	19.307706	62.000000	54.000000
18.236029	19.307706	68.000000	54.000000
18.236029	19.046835	70.000000	54.000000
18.236029	19.307706	53.000000	39.000000
18.236029	19.307706	46.000000	39.000000
18.236029	19.307706	58.000000	39.000000
19.046835	19.307706	71.000000	52.000000
19.307706	19.873747	68.000000	52.000000
19.307706	19.873747	62.000000	52.000000
19.307706	19.873747	70.000000	52.000000
19.307706	19.873747	53.000000	38.000000
19.307706	19.873747	58.000000	38.000000
19.307706	19.873747	46.000000	38.000000
19.873747	20.007670	63.000000	57.000000
19.873747	20.007670	66.000000	57.000000
19.873747	20.945129	58.000000	49.000000
19.873747	20.945129	51.000000	49.000000
20.007670	20.141592	63.000000	49.000000
20.141592	20.275515	66.000000	57.000000
20.275515	20.409438	70.000000	51.000000
20.409438	20.543361	75.000000	55.000000
20.543361	20.677283	78.000000	59.000000
20.677283	20.811206	82.000000	64.000000
20.811206	20.945129	78.000000	69.000000
20.945129	21.361797	87.000000	75.000000
20.945129	21.521375	58.000000	53.000000
20.945129	21.521375	54.000000	53.000000
20.945129	21.521375	63.000000	53.000000
21.361797	21.521375	85.000000	65.000000
21.521375	21.658986	84.000000	71.000000
21.521375	22.582029	32.000000	64.000000
21.521375	22.582029	44.000000	64.000000
21.658986	21.792574	92.000000	76.000000
21.792574	21.924149	90.000000	72.000000
21.924149	22.055725	87.000000	72.000000
22.055725	22.187301	84.000000	77.000000
22.187301	22.318877	80.000000	72.000000
22.318877	22.450453	78.000000	72.000000
22.450453	22.582029	75.000000	72.000000
22.582029	22.713604	72.000000	74.000000
22.582029	23.097375	60.000000	60.000000
22.582029	23.108345	56.000000	60.000000
22.582029	22.845180	66.000000	60.000000
22.713604	22.845180	68.000000	72.000000
22.845180	23.108345	66.000000	72.000000
22.976756	23.108345	63.000000	72.000000
23.108345	23.245956	60.000000	71.000000
23.108345	24.219719	44.000000	65.000000
23.108345	24.219719	32.000000	65.000000
23.245956	23.383567	56.000000	67.000000
23.383567	23.521178	55.000000	71.000000
23.521178	23.658789	56.000000	67.000000
23.658789	23.796400	58.000000	66.000000
23.796400	23.934010	56.000000	59.000000
23.934010	24.076865	55.000000	66.000000
24.076865	24.665261	56.000000	59.000000
24.219719	24.665261	65.000000	65.000000
24.219719	24.813775	44.000000	60.000000
24.219719	24.813775	48.000000	60.000000
24.665261	24.813775	54.000000	61.000000
24.665261	24.813775	63.000000	61.000000
24.813775	24.955289	61.000000	65.000000
24.813775	24.955289	53.000000	65.000000
24.813775	25.892172	37.000000	60.000000
24.813775	25.892172	49.000000	60.000000
24.813775	25.892172	44.000000	60.000000
24.955289	25.090955	53.000000	64.000000
25.090955	25.223698	56.000000	64.000000
25.223698	25.356440	61.000000	64.000000
25.356440	25.489183	65.000000	64.000000
25.489183	25.622717	68.000000	63.000000
25.622717	25.757042	73.000000	61.000000
25.757042	25.892172	77.000000	61.000000
25.892172	26.028120	80.000000	61.000000
25.892172	26.484860	61.000000	43.000000
25.892172	26.484860	56.000000	43.000000
25.892172	26.484860	65.000000	43.000000
26.028120	26.168761	85.000000	63.000000
26.168761	26.316323	89.000000	64.000000
26.316323	26.484860	92.000000	65.000000
26.484860	27.159007	97.000000	77.000000
26.484860	27.159007	65.000000	43.000000
26.484860	27.159007	56.000000	43.000000
26.484860	27.159007	61.000000	43.000000
27.784002	28.252759	61.000000	61.000000
28.252759	28.409011	65.000000	54.000000
28.409011	29.260961	65.000000	63.000000
28.409011	28.693754	39.000000	54.000000
28.409011	28.693754	51.000000	54.000000
28.693754	28.978042	51.000000	49.000000
28.978042	29.260961	61.000000	49.000000
28.978042	29.260961	55.000000	49.000000
29.260961	29.403803	63.000000	57.000000
29.260961	29.547596	51.000000	49.000000
29.403803	29.547596	65.000000	58.000000
29.547596	29.692797	67.000000	59.000000
29.547596	29.838978	55.000000	49.000000
29.547596	29.838978	61.000000	49.000000
29.692797	29.838978	68.000000	61.000000
29.838978	29.986124	70.000000	63.000000
29.838978	30.134262	51.000000	49.000000
29.986124	30.134262	72.000000	64.000000
30.134262	30.845665	73.000000	66.000000
30.134262	30.419006	39.000000	54.000000
30.134262	30.419006	51.000000	54.000000
30.419006	30.703749	51.000000	47.000000
30.703749	30.987138	61.000000	47.000000
30.703749	30.987138	55.000000	47.000000
30.845665	30.892671	75.000000	64.000000
30.892671	30.939677	77.000000	64.000000
30.939677	30.987138	75.000000	64.000000
30.987138	31.130449	74.000000	64.000000
30.987138	31.276133	51.000000	47.000000
31.130449	31.276133	75.000000	66.000000
31.276133	31.423775	77.000000	70.000000
31.276133	31.572920	61.000000	47.000000
31.276133	31.572920	55.000000	47.000000
31.423775	31.572920	79.000000	73.000000
31.572920	31.724626	80.000000	76.000000
31.572920	31.891298	51.000000	47.000000
31.724626	31.891298	82.000000	80.000000
31.891298	32.791153	84.000000	84.000000
31.891298	32.210320	44.000000	54.000000
31.891298	32.210320	32.000000	54.000000
32.210320	32.500737	51.000000	48.000000
32.500737	32.791153	60.000000	48.000000
32.500737	32.791153	56.000000	48.000000
32.791153	32.936355	82.000000	64.000000
32.791153	33.081556	51.000000	42.000000
32.936355	33.081556	80.000000	64.000000
33.081556	33.235944	79.000000	70.000000
33.081556	33.390332	56.000000	42.000000
33.081556	33.390332	60.000000	42.000000
33.235944	33.390332	82.000000	63.000000
33.390332	33.537384	80.000000	65.000000
33.390332	33.684437	51.000000	42.000000
33.537384	33.684437	77.000000	60.000000
33.684437	34.867345	75.000000	60.000000
33.684437	33.978554	32.000000	54.000000
33.684437	33.978554	44.000000	54.000000
33.978554	34.274818	51.000000	37.000000
34.274818	34.571082	60.000000	37.000000
34.274818	34.571082	56.000000	37.000000
34.571082	34.867345	51.000000	37.000000
34.867345	35.307308	72.000000	60.000000
34.867345	35.307308	75.000000	60.000000
34.867345	35.160658	56.000000	37.000000
34.867345	35.160658	60.000000	37.000000
35.160658	35.468455	51.000000	37.000000
35.307308	35.468455	73.000000	57.000000
35.307308	35.468455	77.000000	57.000000
35.468455	35.756029	73.000000	60.000000
35.468455	35.756029	77.000000	60.000000
35.468455	35.756029	51.000000	54.000000
35.468455	35.756029	39.000000	54.000000
35.756029	36.049342	67.000000	57.000000
35.756029	36.049342	51.000000	37.000000
36.049342	36.342655	55.000000	37.000000
36.049342	36.342655	61.000000	37.000000
36.342655	36.625668	73.000000	58.000000
36.342655	36.625668	77.000000	58.000000
36.342655	36.625668	51.000000	37.000000
36.625668	36.908682	67.000000	53.000000
36.625668	36.908682	55.000000	37.000000
36.625668	36.908682	61.000000	37.000000
36.908682	37.211034	77.000000	58.000000
36.908682	37.211034	73.000000	58.000000
36.908682	37.211034	51.000000	37.000000
37.211034	37.498607	73.000000	60.000000
37.211034	37.498607	77.000000	60.000000
37.211034	37.498607	51.000000	54.000000
37.211034	37.498607	39.000000	54.000000
37.498607	37.791920	67.000000	58.000000
37.498607	37.791920	51.000000	37.000000
37.791920	38.085234	55.000000	37.000000
37.791920	38.085234	61.000000	37.000000
38.085234	38.378547	65.000000	60.000000
38.085234	38.378547	73.000000	60.000000
38.085234	38.378547	51.000000	37.000000
38.378547	38.671860	63.000000	60.000000
38.378547	38.671860	72.000000	60.000000
38.378547	38.671860	55.000000	37.000000
38.671860	38.974212	61.000000	57.000000
38.671860	38.974212	70.000000	57.000000
38.671860	38.974212	51.000000	37.000000
38.974212	39.125395	60.000000	54.000000
38.974212	39.270596	44.000000	54.000000
38.974212	39.270596	32.000000	54.000000
39.125395	39.851429	72.000000	60.000000
39.270596	39.561013	51.000000	37.000000
39.561013	39.851429	60.000000	37.000000
39.561013	39.851429	56.000000	37.000000
39.851429	39.992433	70.000000	59.000000
39.851429	40.132994	51.000000	37.000000
39.992433	40.132994	68.000000	57.000000
40.132994	40.272657	67.000000	57.000000
40.132994	40.413661	60.000000	37.000000
40.132994	40.413661	56.000000	37.000000
40.272657	40.413661	70.000000	59.000000
40.413661	40.556033	68.000000	58.000000
40.413661	40.699826	51.000000	37.000000
40.556033	40.699826	65.000000	54.000000
40.699826	41.861491	63.000000	53.000000
40.699826	40.990242	44.000000	54.000000
40.699826	40.990242	32.000000	54.000000
40.990242	41.280659	51.000000	37.000000
41.280659	41.571075	56.000000	37.000000
41.280659	41.571075	60.000000	37.000000
41.571075	41.861491	51.000000	37.000000
41.861491	42.315026	63.000000	64.000000
41.861491	42.163844	56.000000	37.000000
41.861491	42.163844	60.000000	37.000000
42.163844	42.481699	51.000000	37.000000
42.315026	42.481699	65.000000	59.000000
42.481699	43.333650	65.000000	63.000000
42.481699	42.766442	51.000000	54.000000
42.481699	42.766442	39.000000	54.000000
42.766442	43.050730	51.000000	49.000000
43.050730	43.333650	61.000000	49.000000
43.050730	43.333650	55.000000	49.000000
43.333650	43.476491	63.000000	57.000000
43.333650	43.620284	51.000000	49.000000
43.476491	43.620284	65.000000	58.000000
43.620284	43.765485	67.000000	59.000000
43.620284	43.911666	61.000000	49.000000
43.620284	43.911666	55.000000	49.000000
43.765485	43.911666	68.000000	61.000000
43.911666	44.058812	70.000000	63.000000
43.911666	44.206951	51.000000	49.000000
44.058812	44.206951	72.000000	64.000000
44.206951	44.918353	73.000000	66.000000
44.206951	44.491694	39.000000	54.000000
44.206951	44.491694	51.000000	54.000000
44.491694	44.776438	51.000000	47.000000
44.776438	45.059826	55.000000	47.000000
44.776438	45.059826	61.000000	47.000000
44.918353	44.965359	75.000000	64.000000
44.965359	45.012365	77.000000	64.000000
45.012365	45.059826	75.000000	64.000000
45.059826	45.203137	74.000000	64.000000
45.059826	45.348821	51.000000	47.000000
45.203137	45.348821	75.000000	66.000000
45.348821	45.496464	77.000000	70.000000
45.348821	45.645608	61.000000	47.000000
45.348821	45.645608	55.000000	47.000000
45.496464	45.645608	79.000000	73.000000
45.645608	45.797314	80.000000	76.000000
45.645608	45.963986	51.000000	47.000000
45.797314	45.963986	82.000000	80.000000
45.963986	46.863855	84.000000	84.000000
45.963986	46.283022	44.000000	54.000000
45.963986	46.283022	32.000000	54.000000
46.283022	46.573438	51.000000	48.000000
46.573438	46.863855	60.000000	48.000000
46.573438	46.863855	56.000000	48.000000
46.863855	47.009056	82.000000	64.000000
46.863855	47.154258	51.000000	42.000000
47.009056	47.154258	80.000000	64.000000
47.154258	47.308646	79.000000	70.000000
47.154258	47.463034	56.000000	42.000000
47.154258	47.463034	60.000000	42.000000
47.308646	47.463034	82.000000	63.000000
47.463034	47.617422	80.000000	65.000000
47.463034	47.771810	51.000000	42.000000
47.617422	47.771810	77.000000	60.000000
47.771810	48.969363	75.000000	60.000000
47.771810	48.080572	44.000000	54.000000
47.771810	48.080572	32.000000	54.000000
48.080572	48.376836	51.000000	37.000000
48.376836	48.673100	56.000000	37.000000
48.376836	48.673100	60.000000	37.000000
48.673100	48.969363	51.000000	37.000000
48.969363	49.409326	72.000000	60.000000
48.969363	49.409326	75.000000	60.000000
48.969363	49.262676	56.000000	37.000000
48.969363	49.262676	60.000000	37.000000
49.262676	49.570474	51.000000	37.000000
49.409326	49.570474	73.000000	57.000000
49.409326	49.570474	77.000000	57.000000
49.570474	49.858047	73.000000	60.000000
49.570474	49.858047	77.000000	60.000000
49.570474	49.858047	51.000000	54.000000
49.570474	49.858047	39.000000	54.000000
49.858047	50.151360	67.000000	57.000000
49.858047	50.151360	51.000000	37.000000
50.151360	50.444673	55.000000	37.000000
50.151360	50.444673	61.000000	37.000000
50.444673	50.727687	77.000000	58.000000
50.444673	50.727687	73.000000	58.000000
50.444673	50.727687	51.000000	37.000000
50.727687	51.010700	67.000000	53.000000
50.727687	51.010700	55.000000	37.000000
50.727687	51.010700	61.000000	37.000000
51.010700	51.313052	73.000000	58.000000
51.010700	51.313052	77.000000	58.000000
51.010700	51.313052	51.000000	37.000000
51.313052	51.600625	77.000000	60.000000
51.313052	51.600625	73.000000	60.000000
51.313052	51.600625	51.000000	54.000000
51.313052	51.600625	39.000000	54.000000
51.600625	51.893939	67.000000	58.000000
51.600625	51.893939	51.000000	37.000000
51.893939	52.187252	61.000000	37.000000
51.893939	52.187252	55.000000	37.000000
52.187252	52.333902	65.000000	60.000000
52.187252	52.333902	73.000000	60.000000
52.187252	52.480551	51.000000	37.000000
52.480551	52.627201	63.000000	60.000000
52.480551	52.627201	72.000000	60.000000
52.480551	52.773851	55.000000	37.000000
52.773851	52.925034	70.000000	57.000000
52.773851	52.925034	61.000000	57.000000
52.773851	53.076217	51.000000	37.000000
53.076217	53.679620	60.000000	57.000000
53.076217	53.826673	68.000000	57.000000
53.076217	53.230860	56.000000	37.000000
53.076217	53.230860	44.000000	37.000000
53.385503	53.679620	51.000000	37.000000
53.679620	53.973725	56.000000	37.000000
53.679620	53.973725	60.000000	37.000000
53.826673	53.973725	63.000000	57.000000
53.973725	54.120777	68.000000	52.000000
53.973725	54.267829	51.000000	37.000000
54.120777	54.267829	72.000000	51.000000
54.267829	54.414881	75.000000	49.000000
54.267829	54.561934	60.000000	37.000000
54.267829	54.561934	56.000000	37.000000
54.414881	54.561934	80.000000	47.000000
54.561934	54.708986	84.000000	44.000000
54.561934	54.856051	51.000000	37.000000
54.708986	54.856051	87.000000	42.000000
54.851143	54.998209	92.000000	44.000000
54.856051	55.444274	60.000000	37.000000
54.856051	55.444274	56.000000	37.000000
55.005558	55.115850	80.000000	37.000000
55.147715	55.294767	80.000000	37.000000
55.302117	55.412409	92.000000	37.000000
55.446728	55.593794	92.000000	44.000000
55.591339	55.701632	80.000000	37.000000
55.738392	55.885444	80.000000	37.000000
55.892793	56.003085	92.000000	37.000000
56.037404	56.184457	92.000000	43.000000
56.184457	56.294749	80.000000	37.000000
56.324160	56.471212	80.000000	37.000000
56.473666	57.534158	61.000000	46.000000
56.481015	56.591308	92.000000	37.000000
56.547185	57.534158	65.000000	46.000000
56.620718	57.534158	68.000000	52.000000
56.625519	56.769742	92.000000	44.000000
56.767341	56.875515	80.000000	37.000000
56.906763	57.050985	80.000000	37.000000
57.048584	57.156758	92.000000	37.000000
57.192820	57.337056	92.000000	44.000000
57.341857	57.450031	80.000000	37.000000
57.481279	57.625501	80.000000	37.000000
57.486080	57.826090	70.000000	52.000000
57.625501	57.733675	92.000000	37.000000
57.774538	58.238467	65.000000	42.000000
57.774538	58.238467	61.000000	42.000000
57.774538	58.238467	68.000000	42.000000
57.782276	57.936919	92.000000	40.000000
57.929181	58.045173	80.000000	35.000000
58.078674	58.233317	80.000000	35.000000
58.233317	58.360628	92.000000	35.000000
58.238467	59.995489	56.000000	38.000000
58.323694	59.995489	61.000000	38.000000
58.403248	58.548356	92.000000	34.000000
58.408935	59.995489	65.000000	46.000000
58.553157	58.661331	80.000000	28.000000
58.699794	58.844029	80.000000	28.000000
58.844029	58.952203	92.000000	28.000000
58.988265	59.132501	92.000000	32.000000
59.132501	59.240675	80.000000	27.000000
59.269522	59.413758	80.000000	27.000000
59.420973	59.529147	92.000000	27.000000
59.562795	59.707031	92.000000	34.000000
59.707031	59.815204	80.000000	28.000000
59.846452	59.990688	80.000000	27.000000
59.995489	61.071981	61.000000	46.000000
59.998212	60.120494	92.000000	27.000000
60.077015	61.071981	65.000000	46.000000
60.158541	61.071981	68.000000	52.000000
60.163342	60.307578	92.000000	48.000000
60.307578	60.415751	80.000000	37.000000
60.449400	60.593622	80.000000	37.000000
60.588821	60.696981	92.000000	37.000000
60.742659	60.886882	92.000000	44.000000
60.884481	60.992655	80.000000	37.000000
61.023902	61.312361	70.000000	53.000000
61.031118	61.175340	80.000000	37.000000
61.175340	61.283514	92.000000	37.000000
61.312361	61.771542	65.000000	43.000000
61.312361	61.771542	68.000000	43.000000
61.312361	61.771542	61.000000	43.000000
61.314909	61.467969	92.000000	39.000000
61.460311	61.575110	80.000000	35.000000
61.618481	61.771542	80.000000	35.000000
61.768994	61.893770	92.000000	35.000000
61.771542	63.681316	56.000000	40.000000
61.854878	63.681316	61.000000	40.000000
61.938214	63.681316	65.000000	47.000000
61.945430	62.089665	92.000000	32.000000
62.080050	62.188223	80.000000	26.000000
62.231487	62.375723	80.000000	26.000000
62.378124	62.486297	92.000000	27.000000
62.522360	62.666596	92.000000	35.000000
62.666596	62.774769	80.000000	28.000000
62.806017	62.950239	80.000000	28.000000
62.947839	63.056012	92.000000	28.000000
63.089661	63.233897	92.000000	36.000000
63.233897	63.342070	80.000000	28.000000
63.387748	63.535981	80.000000	28.000000
63.452658	64.578502	66.000000	51.000000
63.523092	63.639071	92.000000	28.000000
63.528242	64.578502	68.000000	51.000000
63.605570	64.578502	72.000000	51.000000
63.676555	63.768863	82.000000	37.000000
63.681316	64.578502	75.000000	63.000000
63.752931	63.844354	80.000000	31.000000
63.816982	63.906997	82.000000	37.000000
63.891427	63.982381	80.000000	30.000000
63.956913	64.047237	82.000000	37.000000
64.023097	64.112401	80.000000	32.000000
64.089334	64.180677	82.000000	38.000000
64.164986	64.253928	80.000000	32.000000
64.229587	64.318730	82.000000	39.000000
64.296280	64.388924	80.000000	34.000000
64.358440	64.453270	82.000000	39.000000
64.438853	64.535734	80.000000	34.000000
64.509596	64.610327	82.000000	40.000000
64.578502	65.222716	66.000000	49.000000
64.581131	64.692295	80.000000	35.000000
64.657118	64.774827	82.000000	42.000000
64.659867	65.222716	68.000000	49.000000
64.742399	64.857063	80.000000	35.000000
64.748300	65.222716	72.000000	49.000000
64.830831	64.934311	82.000000	42.000000
64.836732	65.222716	75.000000	61.000000
64.913711	65.016708	80.000000	34.000000
64.985809	65.088806	82.000000	40.000000
65.063057	65.166067	80.000000	34.000000
65.153193	65.256538	82.000000	39.000000
65.222716	65.331144	80.000000	34.000000
65.222716	66.947323	63.000000	47.000000
65.296906	65.411932	82.000000	38.000000
65.302283	66.947323	66.000000	47.000000
65.383085	65.494276	80.000000	31.000000
65.388852	66.947323	68.000000	47.000000
65.469640	65.563128	82.000000	37.000000
65.475407	66.947323	72.000000	58.000000
65.544903	65.636433	80.000000	32.000000
65.615606	65.706586	82.000000	35.000000
65.684458	65.774017	80.000000	30.000000
65.751017	65.843379	82.000000	35.000000
65.820486	65.909469	80.000000	31.000000
65.881091	65.969456	82.000000	35.000000
65.953551	66.043459	80.000000	35.000000
66.018970	66.108261	82.000000	35.000000
66.085610	66.177797	80.000000	30.000000
66.150278	66.242076	82.000000	38.000000
66.225715	66.318130	80.000000	35.000000
66.297544	66.388217	82.000000	39.000000
66.365699	66.457123	80.000000	35.000000
66.431373	66.526646	82.000000	40.000000
66.497798	66.594814	80.000000	36.000000
66.579820	66.679827	82.000000	43.000000
66.652320	66.752327	80.000000	38.000000
66.729823	66.829829	82.000000	43.000000
66.804831	66.904824	80.000000	38.000000
66.874823	66.974830	82.000000	43.000000
66.942321	67.045586	80.000000	37.000000
67.022331	67.138619	82.000000	42.000000
67.022331	68.172879	65.000000	52.000000
67.106633	67.219984	80.000000	36.000000
67.109544	68.172879	68.000000	52.000000
67.199532	68.172879	73.000000	66.000000
67.206345	67.296695	82.000000	43.000000
67.265165	67.356066	80.000000	38.000000
67.339865	67.431570	82.000000	43.000000
67.411239	67.501938	80.000000	37.000000
67.478897	67.569730	82.000000	43.000000
67.547267	67.638583	80.000000	37.000000
67.610809	67.702580	82.000000	42.000000
67.677676	67.768616	80.000000	36.000000
67.743109	67.836852	82.000000	43.000000
67.813423	67.905597	80.000000	38.000000
67.891958	67.986761	82.000000	44.000000
67.949827	68.047875	80.000000	37.000000
68.028456	68.124801	82.000000	42.000000
68.095953	68.196161	80.000000	37.000000
68.172879	68.826856	65.000000	50.000000
68.178700	68.295108	82.000000	42.000000
68.254365	68.369405	80.000000	36.000000
68.260185	68.826856	68.000000	50.000000
68.341671	68.449201	82.000000	42.000000
68.347491	68.826856	73.000000	64.000000
68.435897	68.542287	80.000000	39.000000
68.505058	68.611434	82.000000	42.000000
68.584840	68.691216	80.000000	36.000000
68.669946	68.776323	82.000000	42.000000
68.752384	68.859471	80.000000	37.000000
68.826856	70.482129	61.000000	46.000000
68.835010	68.943706	82.000000	39.000000
68.908382	70.482129	65.000000	46.000000
68.913813	69.015335	80.000000	37.000000
68.987212	69.079305	82.000000	37.000000
68.987212	70.482129	68.000000	53.000000
69.054307	69.145261	80.000000	31.000000
69.129101	69.220806	82.000000	34.000000
69.193782	69.282590	80.000000	30.000000
69.260663	69.350155	82.000000	34.000000
69.333794	69.425968	80.000000	34.000000
69.401131	69.489831	82.000000	34.000000
69.459133	69.548116	80.000000	30.000000
69.532344	69.620951	82.000000	34.000000
69.596986	69.685861	80.000000	34.000000
69.667836	69.756014	82.000000	34.000000
69.731981	69.821446	80.000000	30.000000
69.798715	69.887952	82.000000	34.000000
69.863825	69.952097	80.000000	30.000000
69.925315	70.015410	82.000000	34.000000
69.995039	70.084464	80.000000	30.000000
70.064200	70.155449	82.000000	35.000000
70.136928	70.233126	80.000000	30.000000
70.206169	70.303413	82.000000	35.000000
70.284597	70.376208	80.000000	29.000000
70.351210	70.441587	82.000000	35.000000
70.414564	70.504646	80.000000	29.000000
70.479875	70.570320	82.000000	35.000000
70.482129	71.532375	61.000000	46.000000
70.549734	70.642967	80.000000	30.000000
70.549734	71.532375	65.000000	46.000000
70.618935	71.532375	68.000000	52.000000
70.623736	70.767958	92.000000	44.000000
70.765558	70.873731	80.000000	37.000000
70.904979	71.049202	80.000000	37.000000
71.046801	71.154975	92.000000	37.000000
71.191037	71.335273	92.000000	44.000000
71.340074	71.448247	80.000000	37.000000
71.479495	71.623718	80.000000	37.000000
71.484296	71.824307	70.000000	52.000000
71.623718	71.731891	92.000000	37.000000
71.772755	72.236683	65.000000	42.000000
71.772755	72.236683	68.000000	42.000000
71.772755	72.236683	61.000000	42.000000
71.780493	71.935136	92.000000	40.000000
71.927398	72.043390	80.000000	35.000000
72.076891	72.231533	80.000000	35.000000
72.231533	72.358845	92.000000	35.000000
72.236683	73.993706	56.000000	38.000000
72.321911	73.993706	61.000000	38.000000
72.401465	72.546573	92.000000	34.000000
72.407151	73.993706	65.000000	46.000000
72.551374	72.659547	80.000000	28.000000
72.698010	72.842246	80.000000	28.000000
72.842246	72.950420	92.000000	28.000000
72.986482	73.130718	92.000000	32.000000
73.130718	73.238891	80.000000	27.000000
73.267739	73.411974	80.000000	27.000000
73.419190	73.527363	92.000000	27.000000
73.561011	73.705247	92.000000	34.000000
73.705247	73.813421	80.000000	28.000000
73.844669	73.988905	80.000000	27.000000
73.993706	75.070198	61.000000	46.000000
73.996428	74.118710	92.000000	27.000000
74.075231	75.070198	65.000000	46.000000
74.156757	75.070198	68.000000	52.000000
74.161558	74.305794	92.000000	48.000000
74.305794	74.413968	80.000000	37.000000
74.447616	74.591839	80.000000	37.000000
74.587038	74.695198	92.000000	37.000000
74.740876	74.885098	92.000000	44.000000
74.882698	74.990871	80.000000	37.000000
75.022119	75.310577	70.000000	53.000000
75.029334	75.173557	80.000000	37.000000
75.173557	75.281730	92.000000	37.000000
75.310577	75.769758	65.000000	43.000000
75.310577	75.769758	68.000000	43.000000
75.310577	75.769758	61.000000	43.000000
75.313125	75.466186	92.000000	39.000000
75.458528	75.573327	80.000000	35.000000
75.616698	75.769758	80.000000	35.000000
75.767210	75.891987	92.000000	35.000000
75.769758	77.450874	56.000000	40.000000
75.853095	77.450874	61.000000	40.000000
75.936431	77.450874	65.000000	47.000000
75.943646	76.087882	92.000000	32.000000
76.078266	76.186440	80.000000	26.000000
76.229704	76.373940	80.000000	26.000000
76.376340	76.484514	92.000000	27.000000
76.520576	76.664812	92.000000	35.000000
76.664812	76.772986	80.000000	28.000000
76.804233	76.948456	80.000000	28.000000
76.946055	77.054229	92.000000	28.000000
77.087877	77.232113	92.000000	36.000000
77.232113	77.340287	80.000000	28.000000
77.385965	77.534197	80.000000	28.000000
77.450874	78.605378	56.000000	50.000000
77.521309	77.637288	92.000000	28.000000
77.526459	78.605378	60.000000	50.000000
77.603787	78.605378	63.000000	50.000000
77.676958	78.605378	66.000000	58.000000
77.679171	77.766651	82.000000	37.000000
77.742712	77.831560	80.000000	30.000000
77.804524	77.891588	82.000000	38.000000
77.878875	77.965322	80.000000	32.000000
77.941048	78.029239	82.000000	39.000000
78.000727	78.088449	80.000000	35.000000
78.077479	78.164490	82.000000	40.000000
78.132156	78.218228	80.000000	37.000000
78.207539	78.293397	82.000000	42.000000
78.269579	78.357609	80.000000	38.000000
78.328909	78.416457	82.000000	44.000000
78.396890	78.487522	80.000000	38.000000
78.459962	78.552123	82.000000	46.000000
78.540335	78.639952	80.000000	39.000000
78.605378	79.210525	56.000000	54.000000
78.610702	78.717092	82.000000	47.000000
78.679850	78.784778	80.000000	40.000000
78.685174	79.210525	61.000000	54.000000
78.764970	79.210525	65.000000	61.000000
78.772399	78.871413	82.000000	47.000000
78.844189	78.943189	80.000000	40.000000
78.915965	79.014979	82.000000	49.000000
78.985273	79.084287	80.000000	49.000000
79.059530	79.158544	82.000000	50.000000
79.141217	79.242108	80.000000	44.000000
79.210525	79.314112	82.000000	53.000000
79.210525	80.212197	56.000000	57.000000
79.284219	79.375226	80.000000	47.000000
79.289476	80.212197	60.000000	57.000000
79.357980	80.212197	63.000000	65.000000
79.360139	79.446962	82.000000	55.000000
79.427395	79.512609	80.000000	47.000000
79.487611	79.572087	82.000000	49.000000
79.548309	79.634610	80.000000	44.000000
79.617551	79.700739	82.000000	49.000000
79.682299	79.765501	80.000000	49.000000
79.744500	79.828292	82.000000	49.000000
79.807237	79.894315	80.000000	44.000000
79.868002	79.955710	82.000000	49.000000
79.929398	80.020097	80.000000	42.000000
80.001751	80.093496	82.000000	47.000000
80.077442	80.172326	80.000000	39.000000
80.136719	80.230892	82.000000	44.000000
80.212197	80.813495	53.000000	53.000000
80.214530	80.311425	80.000000	39.000000
80.281867	80.813495	59.000000	53.000000
80.284549	80.392066	82.000000	42.000000
80.362494	80.467999	80.000000	38.000000
80.362494	80.813495	62.000000	53.000000
80.437771	80.535725	82.000000	42.000000
80.443149	80.813495	65.000000	61.000000
80.523709	80.620644	80.000000	39.000000
80.595887	80.696993	82.000000	42.000000
80.666376	80.767213	80.000000	39.000000
80.740056	80.837527	82.000000	42.000000
80.813495	80.911221	80.000000	39.000000
80.813495	82.719889	56.000000	60.000000
80.886464	80.985478	82.000000	42.000000
80.886464	82.719889	60.000000	60.000000
80.960721	82.719889	63.000000	60.000000
80.968151	81.033557	80.000000	38.000000
81.033557	81.177793	80.000000	52.000000
81.033557	82.719889	66.000000	69.000000
81.177793	81.322029	82.000000	54.000000
81.322029	81.464883	84.000000	57.000000
81.464883	81.607738	85.000000	59.000000
81.607738	81.750150	87.000000	63.000000
81.750150	81.891220	89.000000	65.000000
81.891220	82.030977	90.000000	67.000000
82.030977	82.169446	92.000000	70.000000
82.169446	82.307057	94.000000	71.000000
82.307057	82.444668	92.000000	71.000000
82.444668	82.582279	90.000000	70.000000
82.582279	82.719889	89.000000	69.000000
82.719889	82.857500	87.000000	69.000000
82.857500	82.995111	85.000000	67.000000
82.995111	83.132722	84.000000	66.000000
83.132722	83.270333	82.000000	66.000000
83.270333	83.406696	80.000000	66.000000
83.406696	83.543060	78.000000	66.000000
83.543060	83.679424	77.000000	65.000000
83.679424	83.814969	75.000000	64.000000
83.814969	83.950099	73.000000	63.000000
83.950099	84.085229	72.000000	63.000000
84.085229	84.219554	70.000000	61.000000
84.219554	84.353477	68.000000	60.000000
84.353477	84.487399	66.000000	60.000000
84.487399	84.620933	65.000000	58.000000
84.620933	84.753676	63.000000	60.000000
84.753676	84.886418	61.000000	63.000000
84.886418	85.018772	60.000000	59.000000
85.018772	85.150348	58.000000	60.000000
85.150348	85.281924	56.000000	63.000000
85.281924	85.413124	54.000000	64.000000
85.413124	85.518320	53.000000	66.000000
85.518320	85.626843	51.000000	67.000000
85.626843	85.739013	49.000000	69.000000
85.739013	85.855059	48.000000	70.000000
85.855059	85.975168	46.000000	72.000000
85.975168	87.212284	32.000000	84.000000
85.975168	87.212284	44.000000	84.000000
87.830842	88.771426	68.000000	46.000000
88.721926	89.073296	70.000000	43.000000
89.018954	91.401884	68.000000	43.000000
89.671120	91.401884	60.000000	34.000000
89.671120	91.401884	54.000000	31.000000
89.671120	91.401884	51.000000	31.000000
89.671120	91.401884	44.000000	31.000000
91.401884	92.333255	68.000000	46.000000
92.284237	92.629907	70.000000	43.000000
92.578355	94.927677	68.000000	43.000000
93.196913	94.927677	61.000000	34.000000
93.196913	94.927677	53.000000	32.000000
93.196913	94.927677	44.000000	32.000000
94.927677	95.859048	68.000000	46.000000
95.810030	96.155164	70.000000	40.000000
96.104148	98.752482	68.000000	40.000000
96.716389	97.992988	62.000000	35.000000
96.716389	97.992988	47.000000	30.000000
96.716389	97.992988	53.000000	30.000000
96.716389	97.992988	44.000000	30.000000
97.992988	98.752482	63.000000	38.000000
97.992988	98.752482	48.000000	30.000000
97.992988	98.752482	54.000000	30.000000
97.992988	98.752482	44.000000	30.000000
98.752482	102.120669	60.000000	40.000000
98.752482	102.120669	66.000000	40.000000
98.752482	102.120669	68.000000	40.000000
98.752482	102.120669	56.000000	29.000000
98.752482	102.120669	51.000000	29.000000
98.752482	102.120669	44.000000	29.000000
102.772848	103.704219	68.000000	40.000000
102.772848	103.704219	65.000000	40.000000
102.772848	103.949319	56.000000	32.000000
102.772848	103.949319	61.000000	32.000000
102.772848	103.949319	49.000000	32.000000
103.655202	104.002508	70.000000	38.000000
103.655202	104.002508	66.000000	38.000000
103.949319	104.636636	68.000000	36.000000
103.949319	104.587619	65.000000	36.000000
103.949319	104.582294	61.000000	28.000000
103.949319	104.587619	56.000000	28.000000
103.949319	104.587619	49.000000	28.000000
104.587619	106.303308	61.000000	37.000000
104.587619	106.303308	65.000000	37.000000
104.587619	106.303308	56.000000	28.000000
104.587619	106.303308	49.000000	28.000000
106.352325	107.283696	68.000000	40.000000
106.352325	107.283696	65.000000	40.000000
106.352325	107.528797	61.000000	32.000000
106.352325	107.528797	56.000000	32.000000
106.352325	107.528797	49.000000	32.000000
107.234679	107.581422	66.000000	38.000000
107.234679	107.581422	70.000000	38.000000
107.528797	108.160364	65.000000	36.000000
107.528797	108.212988	68.000000	36.000000
107.528797	108.160364	49.000000	29.000000
107.528797	108.155106	61.000000	29.000000
107.528797	108.160364	56.000000	29.000000
108.160364	109.919384	61.000000	36.000000
108.160364	109.919384	65.000000	36.000000
108.160364	109.919384	56.000000	29.000000
108.160364	109.919384	49.000000	29.000000
109.968402	111.144873	75.000000	53.000000
109.968402	111.144873	66.000000	53.000000
109.968402	111.144873	60.000000	43.000000
109.968402	111.144873	56.000000	43.000000
111.144873	111.766086	66.000000	42.000000
111.144873	111.548908	75.000000	51.000000
111.144873	111.548908	60.000000	42.000000
111.144873	111.766086	56.000000	42.000000
111.599414	111.766086	72.000000	42.000000
111.599414	111.766086	63.000000	35.000000
111.766086	113.481776	66.000000	42.000000
111.766086	113.481776	72.000000	42.000000
111.766086	113.481776	56.000000	35.000000
111.766086	113.481776	63.000000	35.000000
113.530793	114.707264	65.000000	48.000000
113.530793	114.707264	73.000000	48.000000
113.530793	114.707264	61.000000	37.000000
113.530793	114.707264	49.000000	37.000000
114.707264	115.324843	65.000000	42.000000
114.707264	115.111299	73.000000	42.000000
114.707264	115.324843	61.000000	35.000000
114.707264	115.324843	49.000000	35.000000
115.161805	115.324843	68.000000	38.000000
115.324843	117.040533	68.000000	38.000000
115.324843	117.040533	65.000000	38.000000
115.324843	117.040533	61.000000	32.000000
115.324843	117.040533	49.000000	32.000000
117.089550	118.266022	66.000000	48.000000
117.089550	118.266022	70.000000	48.000000
117.089550	118.266022	54.000000	42.000000
117.089550	118.266022	61.000000	42.000000
118.266022	118.884580	70.000000	52.000000
118.266022	118.884580	66.000000	52.000000
118.266022	118.884580	54.000000	43.000000
118.266022	118.884580	61.000000	43.000000
118.884580	119.813657	73.000000	54.000000
118.884580	119.813657	70.000000	54.000000
118.884580	120.047305	54.000000	48.000000
118.884580	120.047305	61.000000	48.000000
119.766933	120.098320	68.000000	49.000000
119.766933	120.098320	72.000000	49.000000
120.047305	120.659546	66.000000	54.000000
120.047305	120.659546	70.000000	54.000000
120.047305	120.659546	61.000000	44.000000
120.047305	120.659546	54.000000	44.000000
120.659546	121.588624	68.000000	53.000000
120.659546	121.588624	65.000000	53.000000
120.659546	121.822271	61.000000	39.000000
120.659546	121.822271	49.000000	39.000000
121.541900	121.873823	66.000000	43.000000
121.541900	121.873823	70.000000	43.000000
121.822271	122.489847	68.000000	46.000000
121.822271	122.440829	65.000000	46.000000
121.822271	122.440829	49.000000	38.000000
121.822271	122.435679	61.000000	38.000000
122.440829	124.156519	61.000000	43.000000
122.440829	124.156519	65.000000	43.000000
122.440829	124.156519	56.000000	36.000000
122.440829	124.156519	49.000000	36.000000
124.205536	125.382007	70.000000	48.000000
124.205536	125.382007	66.000000	48.000000
124.205536	125.382007	61.000000	42.000000
124.205536	125.382007	54.000000	42.000000
125.382007	126.000565	66.000000	52.000000
125.382007	126.000565	70.000000	52.000000
125.382007	126.000565	54.000000	43.000000
125.382007	126.000565	61.000000	43.000000
126.000565	126.929643	70.000000	54.000000
126.000565	126.929643	73.000000	54.000000
126.000565	127.163290	54.000000	48.000000
126.000565	127.163290	61.000000	48.000000
126.882919	127.214306	72.000000	49.000000
126.882919	127.214306	68.000000	49.000000
127.163290	127.775532	66.000000	54.000000
127.163290	127.775532	70.000000	54.000000
127.163290	127.775532	61.000000	44.000000
127.163290	127.775532	54.000000	44.000000
127.775532	128.687644	68.000000	53.000000
127.775532	128.687644	65.000000	53.000000
127.775532	128.921292	61.000000	40.000000
127.775532	128.921292	49.000000	40.000000
128.640920	128.972844	70.000000	43.000000
128.640920	128.972844	66.000000	43.000000
128.921292	129.588867	68.000000	46.000000
128.921292	129.539850	65.000000	46.000000
128.921292	129.534700	61.000000	39.000000
128.921292	129.539850	49.000000	39.000000
129.539850	131.255539	65.000000	43.000000
129.539850	131.255539	61.000000	43.000000
129.539850	131.255539	56.000000	36.000000
129.539850	131.255539	49.000000	36.000000
131.304557	132.481028	66.000000	54.000000
131.304557	132.481028	75.000000	54.000000
131.304557	132.481028	56.000000	43.000000
131.304557	132.481028	60.000000	43.000000
132.481028	133.112608	75.000000	54.000000
132.481028	133.112608	66.000000	54.000000
132.481028	133.112608	60.000000	44.000000
132.481028	133.112608	56.000000	44.000000
133.112608	134.289079	66.000000	60.000000
133.112608	134.043979	78.000000	60.000000
133.112608	134.289079	60.000000	51.000000
133.112608	134.289079	56.000000	51.000000
133.994962	134.341704	75.000000	55.000000
134.289079	134.920646	66.000000	55.000000
134.289079	134.920646	72.000000	55.000000
134.289079	134.920646	56.000000	50.000000
134.289079	134.920646	63.000000	50.000000
134.920646	138.019619	65.000000	52.000000
134.920646	136.892165	73.000000	52.000000
134.920646	138.019619	56.000000	36.000000
134.920646	138.019619	61.000000	36.000000
134.920646	138.019619	49.000000	36.000000
136.843148	138.019619	68.000000	38.000000
136.843148	138.019619	77.000000	38.000000
138.607854	139.539225	73.000000	43.000000
138.607854	139.784326	65.000000	43.000000
138.607854	139.784326	49.000000	35.000000
138.607854	139.784326	61.000000	35.000000
138.607854	139.784326	56.000000	35.000000
139.490208	139.835341	68.000000	40.000000
139.784326	140.396567	65.000000	40.000000
139.784326	140.396567	61.000000	40.000000
139.784326	140.396567	56.000000	31.000000
139.784326	140.396567	49.000000	31.000000
140.396567	141.278921	65.000000	44.000000
140.396567	141.573038	60.000000	44.000000
140.396567	141.327938	68.000000	44.000000
140.396567	141.573038	44.000000	36.000000
140.396567	141.573038	56.000000	36.000000
141.278921	141.573038	63.000000	39.000000
141.278921	141.627380	66.000000	39.000000
141.573038	142.242867	63.000000	37.000000
141.573038	142.242867	60.000000	37.000000
141.573038	142.242867	54.000000	31.000000
141.573038	142.242867	44.000000	31.000000
142.274115	143.450586	68.000000	31.000000
142.274115	143.450586	65.000000	31.000000
142.274115	143.205486	77.000000	31.000000
142.274115	143.450586	61.000000	21.000000
142.274115	143.450586	56.000000	21.000000
142.274115	143.450586	49.000000	21.000000
143.156468	143.499603	73.000000	28.000000
143.450586	143.744704	65.000000	28.000000
143.450586	143.797892	68.000000	28.000000
143.450586	144.063847	61.000000	19.000000
143.450586	144.063847	56.000000	19.000000
143.450586	144.063847	49.000000	19.000000
143.744704	144.063847	65.000000	28.000000
144.063847	145.228892	60.000000	30.000000
144.063847	144.986178	70.000000	30.000000
144.063847	145.228892	66.000000	30.000000
144.063847	145.228892	44.000000	23.000000
144.063847	145.228892	56.000000	23.000000
144.063847	145.228892	51.000000	23.000000
144.937630	145.277440	68.000000	29.000000
145.228892	145.829439	60.000000	29.000000
145.228892	145.571705	63.000000	29.000000
145.228892	145.829439	44.000000	21.000000
145.228892	145.829439	54.000000	21.000000
145.520153	145.829439	65.000000	29.000000
145.829439	148.922229	61.000000	27.000000
145.829439	146.447997	49.000000	21.000000
145.829439	146.447997	53.000000	21.000000
146.447997	147.066555	53.000000	14.000000
146.447997	147.066555	44.000000	12.000000
146.447997	147.066555	49.000000	12.000000
146.447997	147.066555	37.000000	12.000000
147.066555	147.685113	53.000000	14.000000
147.066555	147.685113	49.000000	12.000000
147.066555	147.685113	44.000000	12.000000
147.066555	147.685113	37.000000	12.000000
147.685113	148.922229	53.000000	14.000000
147.685113	148.922229	44.000000	12.000000
147.685113	148.922229	37.000000	12.000000
147.685113	148.922229	49.000000	12.000000
149.540787	150.423140	56.000000	39.000000
149.540787	149.834905	49.000000	27.000000
149.540787	149.834905	37.000000	27.000000
149.834905	150.423140	68.000000	23.000000
149.834905	150.423140	61.000000	23.000000
149.834905	150.423140	65.000000	23.000000
150.423140	150.717258	58.000000	36.000000
150.423140	151.011376	61.000000	19.000000
150.423140	151.011376	68.000000	19.000000
150.423140	151.011376	65.000000	19.000000
150.717258	151.333952	56.000000	37.000000
151.011376	151.333952	65.000000	23.000000
151.011376	151.333952	61.000000	23.000000
151.011376	151.333952	68.000000	23.000000
151.333952	153.123684	53.000000	34.000000
151.333952	151.628070	37.000000	27.000000
151.333952	151.628070	49.000000	27.000000
151.628070	152.216306	61.000000	19.000000
151.628070	152.216306	68.000000	19.000000
151.628070	152.216306	65.000000	19.000000
152.216306	152.804541	61.000000	19.000000
152.216306	152.804541	65.000000	19.000000
152.216306	152.804541	68.000000	19.000000
152.804541	153.123684	68.000000	19.000000
152.804541	153.123684	65.000000	19.000000
152.804541	153.123684	61.000000	19.000000
153.123684	154.006038	56.000000	38.000000
153.123684	153.417802	49.000000	27.000000
153.123684	153.417802	37.000000	27.000000
153.417802	154.006038	61.000000	23.000000
153.417802	154.006038	65.000000	23.000000
153.417802	154.006038	68.000000	23.000000
154.006038	154.300155	58.000000	36.000000
154.006038	154.594273	68.000000	19.000000
154.006038	154.594273	65.000000	19.000000
154.006038	154.594273	61.000000	19.000000
154.300155	154.910063	56.000000	39.000000
154.594273	154.910063	65.000000	23.000000
154.594273	154.910063	68.000000	23.000000
154.594273	154.910063	61.000000	23.000000
154.910063	156.693157	53.000000	37.000000
154.910063	155.204181	37.000000	27.000000
154.910063	155.204181	49.000000	27.000000
155.204181	155.792417	68.000000	19.000000
155.204181	155.792417	65.000000	19.000000
155.204181	155.792417	61.000000	19.000000
155.792417	156.380652	65.000000	19.000000
155.792417	156.380652	68.000000	19.000000
155.792417	156.380652	61.000000	19.000000
156.380652	156.693157	65.000000	19.000000
156.380652	156.693157	61.000000	19.000000
156.380652	156.693157	68.000000	19.000000
156.693157	157.869628	63.000000	46.000000
156.693157	156.987275	44.000000	30.000000
156.693157	156.987275	32.000000	30.000000
156.987275	157.575510	66.000000	25.000000
156.987275	157.575510	68.000000	25.000000
157.575510	158.163746	68.000000	21.000000
157.575510	158.163746	66.000000	21.000000
157.869628	158.321634	63.000000	43.000000
158.163746	158.479523	66.000000	23.000000
158.163746	158.479523	68.000000	23.000000
158.321634	158.479523	60.000000	38.000000
158.479523	160.265902	60.000000	38.000000
158.479523	158.773640	32.000000	31.000000
158.479523	158.773640	44.000000	31.000000
158.773640	159.361876	68.000000	26.000000
158.773640	159.361876	66.000000	26.000000
159.361876	159.950112	66.000000	24.000000
159.361876	159.950112	68.000000	24.000000
159.950112	160.265902	68.000000	27.000000
159.950112	160.265902	66.000000	27.000000
160.265902	161.442373	61.000000	52.000000
160.265902	160.560020	49.000000	32.000000
160.265902	160.560020	37.000000	32.000000
160.560020	161.148255	68.000000	28.000000
160.560020	161.148255	65.000000	28.000000
161.148255	161.736491	65.000000	24.000000
161.148255	161.736491	68.000000	24.000000
161.442373	161.894379	61.000000	50.000000
161.736491	162.052267	65.000000	28.000000
161.736491	162.052267	68.000000	28.000000
161.894379	162.052267	56.000000	42.000000
162.052267	163.835361	56.000000	42.000000
162.052267	162.346385	37.000000	31.000000
162.052267	162.346385	49.000000	31.000000
162.346385	162.934621	68.000000	27.000000
162.346385	162.934621	65.000000	27.000000
162.934621	163.522857	68.000000	28.000000
162.934621	163.522857	65.000000	28.000000
163.522857	163.835361	65.000000	28.000000
163.522857	163.835361	68.000000	28.000000
163.835361	165.011832	58.000000	60.000000
163.835361	164.129479	30.000000	37.000000
163.835361	164.129479	42.000000	37.000000
164.129479	164.717714	61.000000	29.000000
164.129479	164.717714	70.000000	29.000000
164.129479	164.717714	66.000000	29.000000
164.717714	165.305950	70.000000	29.000000
164.717714	165.305950	61.000000	29.000000
164.717714	165.305950	66.000000	29.000000
165.011832	165.625106	58.000000	58.000000
165.305950	165.625106	66.000000	29.000000
165.305950	165.625106	70.000000	29.000000
165.305950	165.619782	61.000000	29.000000
165.625106	166.507460	61.000000	63.000000
165.625106	165.919224	42.000000	42.000000
165.625106	165.919224	30.000000	42.000000
165.919224	166.507460	66.000000	36.000000
165.919224	166.507460	70.000000	36.000000
166.507460	166.801578	60.000000	53.000000
166.507460	167.095695	66.000000	36.000000
166.507460	167.095695	70.000000	36.000000
166.801578	167.411486	58.000000	58.000000
167.095695	167.411486	66.000000	36.000000
167.095695	167.411486	70.000000	36.000000
167.411486	168.293839	56.000000	61.000000
167.411486	167.705603	37.000000	35.000000
167.411486	167.705603	49.000000	35.000000
167.705603	168.293839	61.000000	29.000000
167.705603	168.293839	68.000000	29.000000
167.705603	168.293839	65.000000	29.000000
168.293839	168.587957	58.000000	55.000000
168.293839	168.882075	68.000000	29.000000
168.293839	168.882075	61.000000	29.000000
168.293839	168.882075	65.000000	29.000000
168.587957	169.194579	56.000000	59.000000
168.882075	169.194579	61.000000	29.000000
168.882075	169.194579	65.000000	29.000000
168.882075	169.194579	68.000000	29.000000
169.194579	170.977659	53.000000	53.000000
169.194579	169.488683	37.000000	34.000000
169.194579	169.488683	49.000000	34.000000
169.488683	170.076919	61.000000	29.000000
169.488683	170.076919	68.000000	29.000000
169.488683	170.076919	65.000000	29.000000
170.076919	170.665155	65.000000	29.000000
170.076919	170.665155	61.000000	29.000000
170.076919	170.665155	68.000000	29.000000
170.665155	170.977659	65.000000	29.000000
170.665155	170.977659	61.000000	29.000000
170.665155	170.977659	68.000000	29.000000
170.977659	172.154130	58.000000	60.000000
170.977659	171.271777	30.000000	37.000000
170.977659	171.271777	42.000000	37.000000
171.271777	171.860013	66.000000	29.000000
171.271777	171.860013	70.000000	29.000000
171.271777	171.860013	61.000000	29.000000
171.860013	172.448248	61.000000	29.000000
171.860013	172.448248	66.000000	29.000000
171.860013	172.448248	70.000000	29.000000
172.154130	172.767404	58.000000	58.000000
172.448248	172.762080	61.000000	29.000000
172.448248	172.767404	66.000000	29.000000
172.448248	172.767404	70.000000	29.000000
172.767404	173.649744	61.000000	63.000000
172.767404	173.061509	42.000000	43.000000
172.767404	173.061509	30.000000	43.000000
173.061509	173.649744	66.000000	38.000000
173.061509	173.649744	70.000000	38.000000
173.649744	173.943862	60.000000	53.000000
173.649744	174.237980	66.000000	38.000000
173.649744	174.237980	70.000000	38.000000
173.943862	174.553770	58.000000	58.000000
174.237980	174.553770	66.000000	38.000000
174.237980	174.553770	70.000000	38.000000
174.553770	175.436124	56.000000	61.000000
174.553770	174.847888	37.000000	35.000000
174.553770	174.847888	49.000000	35.000000
174.847888	175.436124	61.000000	29.000000
174.847888	175.436124	68.000000	29.000000
174.847888	175.436124	65.000000	29.000000
175.436124	175.730241	58.000000	55.000000
175.436124	176.024359	65.000000	29.000000
175.436124	176.024359	61.000000	29.000000
175.436124	176.024359	68.000000	29.000000
175.730241	176.336864	56.000000	59.000000
176.024359	176.336864	65.000000	29.000000
176.024359	176.336864	61.000000	29.000000
176.024359	176.336864	68.000000	29.000000
176.336864	178.119957	53.000000	53.000000
176.336864	176.630982	37.000000	34.000000
176.336864	176.630982	49.000000	34.000000
176.630982	177.219217	61.000000	29.000000
176.630982	177.219217	68.000000	29.000000
176.630982	177.219217	65.000000	29.000000
177.219217	177.807453	68.000000	29.000000
177.219217	177.807453	61.000000	29.000000
177.219217	177.807453	65.000000	29.000000
177.807453	178.119957	65.000000	29.000000
177.807453	178.119957	68.000000	29.000000
177.807453	178.119957	61.000000	29.000000
178.119957	179.296428	63.000000	66.000000
178.119957	178.414075	44.000000	38.000000
178.119957	178.414075	32.000000	38.000000
178.414075	179.002311	72.000000	34.000000
178.414075	179.002311	66.000000	34.000000
178.414075	179.002311	68.000000	34.000000
179.002311	179.590546	72.000000	34.000000
179.002311	179.590546	68.000000	34.000000
179.002311	179.590546	66.000000	34.000000
179.296428	179.906336	63.000000	64.000000
179.590546	179.880024	66.000000	34.000000
179.590546	179.893180	68.000000	34.000000
179.590546	179.906336	72.000000	34.000000
179.906336	180.788690	66.000000	71.000000
179.906336	180.200454	32.000000	39.000000
179.906336	180.200454	44.000000	39.000000
180.200454	180.788690	72.000000	35.000000
180.200454	180.788690	68.000000	35.000000
180.788690	181.082808	63.000000	65.000000
180.788690	181.376925	68.000000	35.000000
180.788690	181.376925	72.000000	35.000000
181.082808	181.692716	60.000000	64.000000
181.376925	181.692716	66.000000	35.000000
181.376925	181.692716	72.000000	35.000000
181.376925	181.692716	68.000000	35.000000
181.692716	183.497012	61.000000	71.000000
181.692716	181.989744	37.000000	43.000000
181.692716	181.989744	49.000000	43.000000
181.989744	182.583800	65.000000	35.000000
181.989744	182.583800	68.000000	35.000000
181.989744	182.583800	73.000000	35.000000
182.583800	183.177856	68.000000	35.000000
182.583800	183.177856	73.000000	35.000000
182.583800	183.177856	65.000000	35.000000
183.177856	183.497012	73.000000	35.000000
183.177856	183.491688	65.000000	35.000000
183.177856	183.497012	68.000000	35.000000
183.497012	184.697006	65.000000	61.000000
183.497012	183.797004	49.000000	38.000000
183.497012	183.797004	37.000000	38.000000
183.797004	184.397001	73.000000	29.000000
183.797004	184.397001	77.000000	29.000000
183.797004	184.397001	68.000000	29.000000
184.397001	184.997011	77.000000	29.000000
184.397001	184.997011	73.000000	29.000000
184.397001	184.997011	68.000000	29.000000
184.997011	185.312802	68.000000	29.000000
184.997011	185.312802	77.000000	29.000000
184.997011	185.312802	73.000000	29.000000
185.312802	186.195155	61.000000	71.000000
185.312802	185.606919	37.000000	43.000000
185.312802	185.606919	49.000000	43.000000
185.606919	186.195155	68.000000	35.000000
185.606919	186.195155	65.000000	35.000000
186.195155	186.489273	56.000000	65.000000
186.195155	186.783391	61.000000	35.000000
186.195155	186.783391	65.000000	35.000000
186.195155	186.783391	68.000000	35.000000
186.489273	187.102533	53.000000	60.000000
186.783391	187.102533	68.000000	35.000000
186.783391	187.102533	61.000000	35.000000
186.783391	187.102533	65.000000	35.000000
187.102533	188.002522	56.000000	66.000000
187.102533	187.402525	44.000000	38.000000
187.102533	187.402525	32.000000	38.000000
187.402525	188.002522	68.000000	29.000000
187.402525	188.002522	60.000000	29.000000
187.402525	188.002522	65.000000	29.000000
188.002522	188.302528	54.000000	58.000000
188.002522	188.602533	60.000000	29.000000
188.002522	188.602533	63.000000	29.000000
188.002522	188.602533	68.000000	29.000000
188.302528	188.921676	51.000000	54.000000
188.602533	188.921676	66.000000	29.000000
188.602533	188.921676	60.000000	29.000000
188.602533	188.921676	56.000000	29.000000
188.921676	192.113171	49.000000	53.000000
188.921676	189.240832	37.000000	32.000000
189.240832	189.879131	65.000000	28.000000
189.240832	189.879131	61.000000	28.000000
189.240832	189.879131	56.000000	28.000000
189.879131	190.517430	56.000000	28.000000
189.879131	190.517430	61.000000	28.000000
189.879131	190.517430	65.000000	28.000000
190.517430	190.836573	65.000000	28.000000
190.517430	190.836573	56.000000	28.000000
190.517430	190.836573	61.000000	28.000000
190.836573	192.113171	37.000000	34.000000
192.113171	192.692408	65.000000	64.000000
192.619734	192.692408	61.000000	37.000000
192.692408	193.556456	65.000000	75.000000
192.692408	192.980424	46.000000	39.000000
192.692408	192.980424	34.000000	39.000000
192.980424	193.268440	53.000000	32.000000
193.268440	193.556456	58.000000	32.000000
193.556456	193.844471	66.000000	64.000000
193.556456	193.844471	61.000000	32.000000
193.844471	194.442443	65.000000	64.000000
193.844471	194.143457	58.000000	32.000000
194.143457	194.442443	53.000000	32.000000
194.442443	194.717974	61.000000	75.000000
194.442443	194.993504	73.000000	75.000000
194.442443	194.717974	46.000000	37.000000
194.442443	194.717974	58.000000	37.000000
194.717974	194.993504	65.000000	53.000000
194.993504	195.544564	72.000000	72.000000
194.993504	195.269034	63.000000	72.000000
194.993504	195.269034	48.000000	35.000000
194.993504	195.269034	57.000000	35.000000
195.269034	195.544564	65.000000	53.000000
195.544564	195.830997	61.000000	72.000000
195.544564	196.117417	70.000000	72.000000
195.544564	195.830997	49.000000	37.000000
195.544564	195.830997	58.000000	37.000000
195.830997	196.117417	65.000000	54.000000
196.045815	196.117417	63.000000	57.000000
196.117417	196.960262	70.000000	74.000000
196.117417	196.398365	41.000000	40.000000
196.117417	196.398365	53.000000	40.000000
196.398365	196.679313	53.000000	32.000000
196.679313	196.960262	57.000000	32.000000
196.960262	197.096746	69.000000	60.000000
196.960262	197.233230	63.000000	32.000000
197.233230	197.506212	69.000000	64.000000
197.233230	197.506212	57.000000	32.000000
197.506212	197.779194	72.000000	57.000000
197.506212	197.779194	53.000000	32.000000
197.710945	197.779194	63.000000	31.000000
197.779194	198.943059	65.000000	70.000000
197.779194	198.062851	29.000000	39.000000
197.779194	198.062851	41.000000	39.000000
198.062851	198.346509	53.000000	32.000000
198.346509	198.644784	57.000000	32.000000
198.644784	198.943059	63.000000	32.000000
198.943059	199.510387	65.000000	64.000000
198.943059	199.226730	57.000000	32.000000
199.226730	199.510387	53.000000	32.000000
199.439469	199.510387	61.000000	32.000000
199.510387	200.361358	65.000000	75.000000
199.510387	199.794044	34.000000	39.000000
199.510387	199.794044	46.000000	39.000000
199.794044	200.077701	53.000000	32.000000
200.077701	200.361358	58.000000	32.000000
200.361358	200.645016	66.000000	64.000000
200.361358	200.645016	61.000000	32.000000
200.645016	201.229577	65.000000	64.000000
200.645016	200.937296	58.000000	32.000000
200.937296	201.229577	53.000000	32.000000
201.229577	201.505107	61.000000	75.000000
201.229577	201.780637	73.000000	75.000000
201.229577	201.505107	58.000000	37.000000
201.229577	201.505107	46.000000	37.000000
201.505107	201.780637	65.000000	52.000000
201.780637	202.056167	63.000000	72.000000
201.780637	202.331697	72.000000	72.000000
201.780637	202.056167	57.000000	35.000000
201.780637	202.056167	48.000000	35.000000
202.056167	202.331697	65.000000	52.000000
202.331697	202.618117	61.000000	72.000000
202.331697	202.904537	70.000000	72.000000
202.331697	202.618117	58.000000	37.000000
202.331697	202.618117	49.000000	37.000000
202.618117	202.904537	65.000000	53.000000
202.832935	202.904537	63.000000	60.000000
202.904537	203.747381	70.000000	74.000000
202.904537	203.185485	41.000000	40.000000
202.904537	203.185485	53.000000	40.000000
203.185485	203.466433	53.000000	32.000000
203.466433	203.747381	57.000000	32.000000
203.747381	203.883866	69.000000	60.000000
203.747381	204.020350	63.000000	32.000000
204.020350	204.293332	69.000000	64.000000
204.020350	204.293332	57.000000	32.000000
204.293332	204.566314	72.000000	57.000000
204.293332	204.566314	53.000000	32.000000
204.498065	204.566314	63.000000	39.000000
204.566314	205.730179	65.000000	70.000000
204.566314	204.849971	41.000000	39.000000
204.566314	204.849971	53.000000	39.000000
204.849971	205.133628	53.000000	32.000000
205.133628	205.431904	57.000000	32.000000
205.431904	205.730179	63.000000	32.000000
205.730179	206.297493	65.000000	73.000000
205.730179	206.013836	57.000000	32.000000
206.013836	206.297493	53.000000	32.000000
206.226576	206.297493	61.000000	35.000000
206.297493	207.148465	65.000000	80.000000
206.297493	206.581150	46.000000	52.000000
206.297493	206.581150	34.000000	52.000000
206.581150	206.864808	53.000000	38.000000
206.864808	207.148465	58.000000	38.000000
207.148465	207.432122	66.000000	67.000000
207.148465	207.432122	61.000000	38.000000
207.432122	208.016683	65.000000	67.000000
207.432122	207.724402	58.000000	38.000000
207.724402	208.016683	53.000000	38.000000
208.016683	208.567743	77.000000	82.000000
208.016683	208.567743	65.000000	66.000000
208.016683	208.567743	37.000000	46.000000
208.016683	208.567743	49.000000	46.000000
208.292213	208.567743	70.000000	57.000000
208.292213	208.567743	73.000000	57.000000
208.567743	209.118803	75.000000	80.000000
208.567743	209.118803	63.000000	58.000000
208.567743	209.118803	48.000000	35.000000
208.567743	209.118803	36.000000	35.000000
208.843273	209.118803	72.000000	57.000000
208.843273	209.118803	69.000000	57.000000
209.118803	209.691657	73.000000	77.000000
209.118803	209.691657	61.000000	57.000000
209.118803	209.691657	46.000000	37.000000
209.118803	209.691657	34.000000	37.000000
209.405223	209.548440	70.000000	57.000000
209.405223	209.548440	65.000000	57.000000
209.548440	210.542628	63.000000	59.000000
209.620055	210.542628	66.000000	59.000000
209.691657	210.542628	72.000000	75.000000
209.691657	209.975314	51.000000	52.000000
209.691657	209.975314	39.000000	52.000000
209.975314	210.258971	51.000000	36.000000
210.258971	210.542628	54.000000	36.000000
210.542628	210.826285	73.000000	69.000000
210.542628	210.826285	60.000000	37.000000
210.826285	211.410846	72.000000	69.000000
210.826285	211.118566	54.000000	37.000000
211.118566	211.410846	51.000000	37.000000
211.410846	211.961920	75.000000	84.000000
211.410846	211.961920	63.000000	60.000000
211.410846	211.961920	48.000000	47.000000
211.410846	211.961920	36.000000	47.000000
211.686390	211.961920	66.000000	60.000000
211.686390	211.961920	72.000000	60.000000
211.961920	212.512980	61.000000	59.000000
211.961920	212.512980	73.000000	82.000000
211.961920	212.512980	49.000000	40.000000
211.961920	212.512980	37.000000	40.000000
212.237450	212.512980	65.000000	58.000000
212.237450	212.512980	70.000000	58.000000
212.512980	213.124484	72.000000	78.000000
212.512980	213.124484	60.000000	55.000000
212.512980	213.124484	51.000000	40.000000
212.512980	213.124484	39.000000	40.000000
212.799400	212.961942	63.000000	55.000000
212.799400	212.880671	66.000000	55.000000
212.880671	212.961942	58.000000	47.000000
212.961942	213.043213	61.000000	47.000000
213.043213	213.124484	65.000000	47.000000
213.124484	214.237239	70.000000	82.000000
213.124484	213.263583	53.000000	52.000000
213.124484	213.263583	41.000000	52.000000
213.402683	213.680868	53.000000	36.000000
213.680868	213.959054	58.000000	36.000000
213.959054	214.237239	61.000000	36.000000
214.237239	214.839999	70.000000	82.000000
214.237239	214.538626	58.000000	36.000000
214.538626	214.839999	53.000000	36.000000
214.689313	214.764656	58.000000	46.000000
214.764656	214.839999	64.000000	46.000000
214.839999	215.699272	70.000000	82.000000
214.839999	214.983216	54.000000	52.000000
214.839999	214.983216	42.000000	52.000000
215.126432	215.412852	54.000000	36.000000
215.412852	215.699272	60.000000	36.000000
215.699272	215.842489	72.000000	78.000000
215.699272	215.985705	64.000000	36.000000
215.842489	215.985705	70.000000	78.000000
215.985705	216.272125	69.000000	78.000000
215.985705	216.272125	58.000000	36.000000
216.272125	216.558545	70.000000	78.000000
216.272125	216.558545	54.000000	36.000000
216.558545	218.277078	72.000000	86.000000
216.558545	216.701762	41.000000	52.000000
216.558545	216.701762	53.000000	52.000000
216.844979	217.131398	53.000000	38.000000
217.131398	217.704238	65.000000	74.000000
217.131398	217.417818	57.000000	38.000000
217.417818	217.704238	60.000000	38.000000
217.704238	218.277078	65.000000	74.000000
217.704238	217.990658	57.000000	38.000000
217.990658	218.277078	53.000000	38.000000
218.277078	218.564933	65.000000	74.000000
218.277078	218.564933	41.000000	46.000000
218.564933	218.858715	53.000000	34.000000
218.858715	219.158546	65.000000	60.000000
218.858715	219.158546	60.000000	60.000000
218.858715	219.158546	63.000000	60.000000
218.858715	219.158546	41.000000	46.000000
219.158546	219.464774	53.000000	34.000000
219.464774	219.777547	57.000000	59.000000
219.464774	219.777547	65.000000	59.000000
219.464774	219.777547	60.000000	59.000000
219.464774	219.777547	41.000000	46.000000
219.777547	220.097320	53.000000	34.000000
220.016934	220.097320	61.000000	30.000000
220.097320	220.948305	65.000000	75.000000
220.097320	220.380991	46.000000	39.000000
220.097320	220.380991	34.000000	39.000000
220.380991	220.664648	53.000000	32.000000
220.664648	220.948305	58.000000	32.000000
220.948305	221.231962	66.000000	64.000000
220.948305	221.231962	61.000000	32.000000
221.231962	221.816523	65.000000	64.000000
221.231962	221.524243	58.000000	32.000000
221.524243	221.816523	53.000000	32.000000
221.816523	222.092053	61.000000	75.000000
221.816523	222.367583	73.000000	75.000000
221.816523	222.092053	58.000000	37.000000
221.816523	222.092053	46.000000	37.000000
222.092053	222.367583	65.000000	57.000000
222.367583	222.918644	72.000000	72.000000
222.367583	222.643114	63.000000	72.000000
222.367583	222.643114	48.000000	35.000000
222.367583	222.643114	57.000000	35.000000
222.643114	222.918644	65.000000	57.000000
222.918644	223.491497	70.000000	72.000000
222.918644	223.205077	61.000000	72.000000
222.918644	223.205077	58.000000	37.000000
222.918644	223.205077	49.000000	37.000000
223.205077	223.491497	65.000000	57.000000
223.419895	223.491497	63.000000	57.000000
223.491497	224.334341	70.000000	74.000000
223.491497	223.772445	53.000000	40.000000
223.491497	223.772445	41.000000	40.000000
223.772445	224.053393	53.000000	32.000000
224.053393	224.334341	57.000000	32.000000
224.334341	224.470826	69.000000	60.000000
224.334341	224.607310	63.000000	32.000000
224.607310	224.880292	69.000000	64.000000
224.607310	224.880292	57.000000	32.000000
224.880292	225.153274	72.000000	57.000000
224.880292	225.153274	53.000000	32.000000
225.085025	225.153274	61.000000	36.000000
225.153274	226.317139	65.000000	70.000000
225.153274	225.436931	41.000000	39.000000
225.153274	225.436931	29.000000	39.000000
225.436931	225.720588	53.000000	32.000000
225.720588	226.018864	57.000000	32.000000
226.018864	226.317139	63.000000	32.000000
226.317139	226.813536	65.000000	64.000000
226.317139	226.600796	57.000000	32.000000
226.600796	226.884453	53.000000	32.000000
226.813536	226.884453	61.000000	30.000000
226.884453	227.735438	65.000000	75.000000
226.884453	227.168124	46.000000	39.000000
226.884453	227.168124	34.000000	39.000000
227.168124	227.451781	53.000000	32.000000
227.451781	227.735438	58.000000	32.000000
227.735438	228.019095	66.000000	64.000000
227.735438	228.019095	61.000000	32.000000
228.019095	228.603656	65.000000	64.000000
228.019095	228.311376	58.000000	32.000000
228.311376	228.603656	53.000000	32.000000
228.603656	229.154730	73.000000	75.000000
228.603656	228.879200	61.000000	75.000000
228.603656	228.879200	58.000000	37.000000
228.603656	228.879200	46.000000	37.000000
228.879200	229.154730	65.000000	55.000000
229.154730	229.705790	72.000000	72.000000
229.154730	229.430260	63.000000	72.000000
229.154730	229.430260	57.000000	35.000000
229.154730	229.430260	48.000000	35.000000
229.430260	229.705790	65.000000	55.000000
229.705790	229.992210	61.000000	72.000000
229.705790	230.278630	70.000000	72.000000
229.705790	229.992210	58.000000	37.000000
229.705790	229.992210	49.000000	37.000000
229.992210	230.278630	65.000000	55.000000
230.207028	230.278630	61.000000	52.000000
230.278630	231.121488	68.000000	74.000000
230.278630	230.559592	51.000000	40.000000
230.278630	230.559592	39.000000	40.000000
230.559592	230.840540	51.000000	32.000000
230.840540	231.121488	55.000000	32.000000
231.121488	231.326221	67.000000	60.000000
231.121488	231.394470	61.000000	32.000000
231.394470	231.667452	67.000000	64.000000
231.394470	231.667452	55.000000	32.000000
231.667452	231.940434	70.000000	57.000000
231.667452	231.940434	51.000000	32.000000
231.872185	231.940434	61.000000	44.000000
231.940434	233.104299	63.000000	70.000000
231.940434	232.224091	39.000000	39.000000
231.940434	232.224091	51.000000	39.000000
232.224091	232.507748	51.000000	32.000000
232.507748	232.806024	55.000000	32.000000
232.806024	233.104299	61.000000	32.000000
233.104299	233.671613	75.000000	66.000000
233.104299	233.671613	73.000000	66.000000
233.104299	233.387956	55.000000	32.000000
233.387956	233.671613	51.000000	32.000000
233.671613	234.522585	75.000000	74.000000
233.671613	234.522585	72.000000	74.000000
233.671613	233.955270	44.000000	40.000000
233.955270	234.238928	51.000000	32.000000
234.238928	234.522585	56.000000	32.000000
234.522585	234.790484	77.000000	64.000000
234.522585	234.790484	60.000000	32.000000
234.790484	235.301982	75.000000	64.000000
234.790484	235.082764	63.000000	32.000000
235.082764	235.375058	68.000000	32.000000
235.301982	235.375058	75.000000	53.000000
235.375058	236.466960	80.000000	77.000000
235.375058	236.466960	72.000000	38.000000
236.466960	237.039813	79.000000	71.000000
237.039813	237.890784	77.000000	74.000000
237.039813	237.890784	73.000000	74.000000
237.039813	237.323470	49.000000	40.000000
237.323470	237.607127	53.000000	32.000000
237.607127	237.890784	58.000000	32.000000
237.890784	238.156229	79.000000	64.000000
237.890784	238.156229	61.000000	32.000000
238.156229	238.667727	77.000000	64.000000
238.156229	238.448510	65.000000	32.000000
238.448510	238.740804	70.000000	32.000000
238.667727	238.740804	77.000000	53.000000
238.740804	239.832705	82.000000	77.000000
238.740804	239.832705	73.000000	38.000000
239.832705	240.405545	80.000000	71.000000
240.262341	240.333943	70.000000	59.000000
240.333943	240.405545	73.000000	59.000000
240.405545	241.256516	79.000000	74.000000
240.405545	240.689202	51.000000	40.000000
240.405545	240.689202	39.000000	40.000000
240.689202	240.972859	51.000000	32.000000
240.972859	241.256516	55.000000	32.000000
241.256516	241.540173	77.000000	64.000000
241.256516	241.540173	61.000000	32.000000
241.540173	242.107501	75.000000	64.000000
241.540173	241.823831	55.000000	32.000000
241.823831	242.107501	51.000000	32.000000
241.965666	242.036584	63.000000	51.000000
242.036584	242.107501	67.000000	51.000000
242.107501	242.958473	73.000000	74.000000
242.107501	242.391158	39.000000	39.000000
242.107501	242.391158	51.000000	39.000000
242.391158	242.674816	51.000000	32.000000
242.674816	242.958473	55.000000	32.000000
242.958473	243.242130	72.000000	64.000000
242.958473	243.242130	61.000000	32.000000
243.242130	243.872181	70.000000	64.000000
243.242130	243.543517	55.000000	32.000000
243.543517	243.872181	51.000000	32.000000
243.707842	243.790012	68.000000	50.000000
243.790012	243.872181	71.000000	51.000000
243.872181	245.574125	77.000000	60.000000
243.872181	244.155839	44.000000	39.000000
243.872181	244.155839	56.000000	39.000000
244.155839	244.439496	59.000000	29.000000
244.439496	244.723153	62.000000	29.000000
244.723153	245.006810	65.000000	29.000000
245.006810	245.290467	62.000000	29.000000
245.290467	245.574125	59.000000	29.000000
245.574125	246.715338	75.000000	61.000000
245.574125	245.857782	56.000000	36.000000
245.857782	246.141439	60.000000	32.000000
246.141439	246.426022	63.000000	32.000000
246.426022	246.715338	68.000000	32.000000
246.715338	247.309448	73.000000	66.000000
246.715338	247.309448	75.000000	66.000000
246.715338	247.309448	67.000000	32.000000
247.009617	247.309448	63.000000	32.000000
247.309448	248.160419	72.000000	74.000000
247.309448	248.160419	75.000000	74.000000
247.309448	247.593105	44.000000	40.000000
247.593105	247.876762	51.000000	32.000000
247.876762	248.160419	56.000000	32.000000
248.160419	248.428319	77.000000	64.000000
248.160419	248.428319	60.000000	32.000000
248.428319	248.939816	75.000000	64.000000
248.428319	248.720599	63.000000	32.000000
248.720599	249.012893	68.000000	32.000000
248.939816	249.012893	75.000000	55.000000
249.012893	250.104794	80.000000	77.000000
249.012893	250.104794	72.000000	38.000000
250.104794	250.677647	79.000000	70.000000
250.677647	251.528619	73.000000	74.000000
250.677647	251.528619	77.000000	74.000000
250.677647	250.961305	49.000000	40.000000
250.961305	251.244962	53.000000	32.000000
251.244962	251.528619	58.000000	32.000000
251.528619	251.794064	79.000000	64.000000
251.528619	251.794064	61.000000	32.000000
251.794064	252.305562	77.000000	64.000000
251.794064	252.086345	65.000000	32.000000
252.086345	252.378638	70.000000	32.000000
252.305562	252.378638	77.000000	55.000000
252.378638	253.470540	82.000000	77.000000
252.378638	253.470540	73.000000	38.000000
253.470540	254.043379	80.000000	67.000000
253.900176	253.971778	70.000000	57.000000
253.971778	254.043379	73.000000	57.000000
254.043379	254.894351	79.000000	74.000000
254.043379	254.327037	51.000000	40.000000
254.043379	254.327037	39.000000	40.000000
254.327037	254.610694	51.000000	32.000000
254.610694	254.894351	55.000000	32.000000
254.894351	255.178008	77.000000	64.000000
254.894351	255.178008	61.000000	32.000000
255.178008	255.745336	75.000000	64.000000
255.178008	255.461665	55.000000	32.000000
255.461665	255.745336	51.000000	32.000000
255.603501	255.674418	63.000000	50.000000
255.674418	255.745336	67.000000	51.000000
255.745336	256.596308	73.000000	66.000000
255.745336	256.028993	51.000000	39.000000
255.745336	256.028993	39.000000	39.000000
256.028993	256.312650	51.000000	32.000000
256.312650	256.596308	55.000000	32.000000
256.596308	256.879965	72.000000	64.000000
256.596308	256.879965	61.000000	32.000000
256.879965	257.482738	70.000000	60.000000
256.879965	257.181351	55.000000	32.000000
257.181351	257.482738	51.000000	32.000000
257.482738	257.766395	68.000000	65.000000
257.482738	257.766395	56.000000	43.000000
257.482738	257.766395	60.000000	43.000000
257.766395	258.050052	72.000000	55.000000
257.766395	258.050052	63.000000	37.000000
258.050052	258.333736	75.000000	54.000000
258.050052	258.333736	68.000000	36.000000
258.333736	258.627023	80.000000	53.000000
258.333736	258.627023	72.000000	36.000000
258.627023	258.930582	84.000000	52.000000
258.627023	258.930582	75.000000	35.000000
258.930582	259.243408	87.000000	51.000000
258.930582	259.243408	80.000000	34.000000
259.243408	260.472156	92.000000	50.000000
259.243408	259.857782	84.000000	32.000000
261.138819	262.079404	68.000000	46.000000
262.029903	262.381273	70.000000	43.000000
262.326931	264.709861	68.000000	43.000000
262.979097	264.709861	60.000000	34.000000
262.979097	264.709861	54.000000	31.000000
262.979097	264.709861	44.000000	31.000000
262.979097	264.709861	51.000000	31.000000
264.709861	265.641232	68.000000	46.000000
265.592214	265.937884	70.000000	43.000000
265.886332	268.235654	68.000000	43.000000
266.504890	268.235654	61.000000	34.000000
266.504890	268.235654	44.000000	32.000000
266.504890	268.235654	53.000000	32.000000
268.235654	269.167025	68.000000	46.000000
269.118007	269.463141	70.000000	40.000000
269.412125	272.060460	68.000000	40.000000
270.024367	271.300965	62.000000	35.000000
270.024367	271.300965	44.000000	30.000000
270.024367	271.300965	47.000000	30.000000
270.024367	271.300965	53.000000	30.000000
271.300965	272.060460	63.000000	38.000000
271.300965	272.060460	54.000000	30.000000
271.300965	272.060460	48.000000	30.000000
271.300965	272.060460	44.000000	30.000000
272.060460	275.578568	68.000000	40.000000
272.060460	275.578568	60.000000	40.000000
272.060460	275.578568	66.000000	40.000000
272.060460	275.578568	44.000000	29.000000
272.060460	275.578568	51.000000	29.000000
272.060460	275.578568	56.000000	29.000000
276.182012	276.268218	65.000000	34.000000
276.268218	277.150558	68.000000	46.000000
276.268218	276.415270	37.000000	37.000000
276.268218	276.415270	49.000000	37.000000
276.562322	276.856440	53.000000	30.000000
276.856440	277.150558	56.000000	30.000000
277.150558	277.297610	67.000000	43.000000
277.150558	277.444662	61.000000	30.000000
277.297610	277.444662	68.000000	40.000000
277.444662	277.597723	67.000000	44.000000
277.444662	277.750783	56.000000	30.000000
277.597723	277.750783	68.000000	40.000000
277.750783	277.903844	70.000000	44.000000
277.750783	278.076256	53.000000	30.000000
277.903844	278.076256	68.000000	40.000000
278.076256	279.810533	65.000000	46.000000
278.076256	278.361965	49.000000	35.000000
278.361965	278.647674	53.000000	19.000000
278.647674	278.742906	89.000000	35.000000
278.647674	278.936146	56.000000	19.000000
278.742906	278.839063	87.000000	35.000000
278.839063	278.936146	85.000000	36.000000
278.936146	279.034181	84.000000	36.000000
278.936146	279.233201	61.000000	19.000000
279.034181	279.133195	82.000000	37.000000
279.133195	279.233201	80.000000	37.000000
279.233201	279.334213	78.000000	38.000000
279.233201	279.539348	56.000000	19.000000
279.334213	279.436258	77.000000	38.000000
279.436258	279.539348	75.000000	39.000000
279.539348	279.643512	73.000000	39.000000
279.539348	279.868000	53.000000	19.000000
279.643512	279.753067	72.000000	40.000000
279.753067	279.868000	70.000000	40.000000
279.810533	279.868000	65.000000	35.000000
279.868000	280.750340	68.000000	46.000000
279.868000	280.015052	37.000000	37.000000
279.868000	280.015052	49.000000	37.000000
280.162104	280.456222	53.000000	30.000000
280.456222	280.750340	56.000000	30.000000
280.750340	280.897392	67.000000	43.000000
280.750340	281.044444	61.000000	30.000000
280.897392	281.044444	68.000000	40.000000
281.044444	281.197504	67.000000	44.000000
281.044444	281.350565	56.000000	30.000000
281.197504	281.350565	68.000000	40.000000
281.350565	281.503625	70.000000	43.000000
281.350565	281.676038	53.000000	30.000000
281.503625	281.676038	68.000000	40.000000
281.676038	283.465823	65.000000	46.000000
281.676038	281.961747	49.000000	35.000000
281.961747	282.247456	53.000000	19.000000
282.247456	282.342688	89.000000	34.000000
282.247456	282.535928	56.000000	19.000000
282.342688	282.438845	87.000000	34.000000
282.438845	282.535928	85.000000	34.000000
282.535928	282.633962	84.000000	35.000000
282.535928	282.832982	61.000000	19.000000
282.633962	282.732976	82.000000	35.000000
282.732976	282.832982	80.000000	36.000000
282.832982	282.933995	78.000000	36.000000
282.832982	283.139130	56.000000	19.000000
282.933995	283.036039	77.000000	37.000000
283.036039	283.139130	75.000000	37.000000
283.139130	283.243294	73.000000	38.000000
283.139130	283.465823	53.000000	19.000000
283.243294	283.352191	72.000000	38.000000
283.352191	283.465823	73.000000	38.000000
283.465823	284.348163	75.000000	46.000000
283.465823	283.612875	44.000000	37.000000
283.465823	283.612875	56.000000	37.000000
283.759928	284.054046	56.000000	30.000000
284.054046	284.348163	60.000000	30.000000
284.348163	284.495216	74.000000	42.000000
284.348163	284.642268	66.000000	30.000000
284.495216	284.642268	75.000000	40.000000
284.642268	284.795328	78.000000	43.000000
284.642268	284.948388	60.000000	30.000000
284.795328	284.948388	77.000000	40.000000
284.948388	285.101449	75.000000	40.000000
284.948388	285.273861	56.000000	30.000000
285.101449	285.273861	73.000000	40.000000
285.273861	287.063660	72.000000	46.000000
285.273861	285.416716	56.000000	37.000000
285.273861	285.416716	44.000000	37.000000
285.559570	285.845279	56.000000	19.000000
285.845279	285.940511	90.000000	35.000000
285.845279	286.133751	60.000000	19.000000
285.940511	286.036669	89.000000	35.000000
286.036669	286.133751	87.000000	35.000000
286.133751	286.231786	85.000000	36.000000
286.133751	286.430806	66.000000	19.000000
286.231786	286.330800	84.000000	36.000000
286.330800	286.430806	82.000000	36.000000
286.430806	286.531818	80.000000	37.000000
286.430806	286.736954	60.000000	19.000000
286.531818	286.633863	78.000000	37.000000
286.633863	286.736954	77.000000	37.000000
286.736954	286.841117	75.000000	38.000000
286.736954	287.063660	56.000000	19.000000
286.841117	286.950015	73.000000	38.000000
286.950015	287.063660	73.000000	38.000000
287.006838	287.063660	65.000000	34.000000
287.063660	287.946000	73.000000	46.000000
287.063660	287.210713	49.000000	37.000000
287.063660	287.210713	37.000000	37.000000
287.357765	287.651883	53.000000	30.000000
287.651883	287.946000	56.000000	30.000000
287.946000	288.093053	72.000000	42.000000
287.946000	288.240105	61.000000	30.000000
288.093053	288.240105	73.000000	40.000000
288.240105	288.393165	72.000000	40.000000
288.240105	288.546225	56.000000	30.000000
288.393165	288.546225	73.000000	40.000000
288.546225	288.699286	77.000000	43.000000
288.546225	288.871698	53.000000	30.000000
288.699286	288.871698	73.000000	40.000000
288.871698	290.661497	68.000000	46.000000
288.871698	289.157407	49.000000	35.000000
289.157407	289.443117	53.000000	19.000000
289.443117	289.538348	89.000000	35.000000
289.443117	289.731588	56.000000	19.000000
289.538348	289.634506	87.000000	35.000000
289.634506	289.731588	85.000000	35.000000
289.731588	289.829623	84.000000	36.000000
289.731588	290.028643	61.000000	19.000000
289.829623	289.928637	82.000000	36.000000
289.928637	290.028643	80.000000	37.000000
290.028643	290.129655	78.000000	37.000000
290.028643	290.334791	56.000000	19.000000
290.129655	290.231700	77.000000	38.000000
290.231700	290.334791	75.000000	38.000000
290.334791	290.438954	73.000000	39.000000
290.334791	290.661497	53.000000	19.000000
290.438954	290.547852	72.000000	39.000000
290.547852	290.661497	73.000000	39.000000
290.604675	290.661497	66.000000	34.000000
290.661497	291.543851	70.000000	46.000000
290.661497	290.808563	42.000000	37.000000
290.661497	290.808563	54.000000	37.000000
290.955615	291.249733	58.000000	30.000000
291.249733	291.543851	60.000000	30.000000
291.543851	291.690903	69.000000	43.000000
291.543851	291.837955	66.000000	30.000000
291.690903	291.837955	70.000000	40.000000
291.837955	291.991016	72.000000	44.000000
291.837955	292.144076	61.000000	30.000000
291.991016	292.144076	70.000000	40.000000
292.144076	292.297136	69.000000	43.000000
292.144076	292.469549	58.000000	30.000000
292.297136	292.469549	70.000000	40.000000
292.469549	292.755258	73.000000	46.000000
292.469549	292.612403	42.000000	37.000000
292.469549	292.612403	54.000000	37.000000
292.755258	292.850490	94.000000	35.000000
292.755258	293.040954	58.000000	19.000000
292.850490	292.945722	92.000000	35.000000
292.945722	293.040954	90.000000	35.000000
293.040954	293.136185	89.000000	36.000000
293.040954	293.329425	61.000000	19.000000
293.136185	293.232343	87.000000	36.000000
293.232343	293.329425	85.000000	37.000000
293.329425	293.427460	84.000000	37.000000
293.329425	293.626480	66.000000	19.000000
293.427460	293.526474	82.000000	38.000000
293.526474	293.626480	80.000000	38.000000
293.626480	293.727492	78.000000	38.000000
293.626480	293.932628	61.000000	19.000000
293.727492	293.829537	77.000000	39.000000
293.829537	293.932628	75.000000	39.000000
293.932628	294.036791	73.000000	40.000000
293.932628	294.261279	58.000000	19.000000
294.036791	294.146346	72.000000	40.000000
294.146346	294.261279	70.000000	42.000000
294.203813	294.261279	65.000000	34.000000
294.261279	295.143619	68.000000	46.000000
294.261279	294.408331	49.000000	37.000000
294.261279	294.408331	37.000000	37.000000
294.555383	294.849501	56.000000	30.000000
294.849501	295.143619	61.000000	30.000000
295.143619	295.290671	67.000000	43.000000
295.143619	295.437723	65.000000	30.000000
295.290671	295.437723	68.000000	40.000000
295.437723	295.590784	67.000000	44.000000
295.437723	295.743844	61.000000	30.000000
295.590784	295.743844	68.000000	40.000000
295.743844	295.896905	70.000000	44.000000
295.743844	296.069317	56.000000	30.000000
295.896905	296.069317	68.000000	40.000000
296.069317	296.929194	65.000000	46.000000
296.069317	296.212172	49.000000	37.000000
296.069317	296.212172	37.000000	37.000000
296.355026	296.450258	89.000000	35.000000
296.355026	296.640722	56.000000	19.000000
296.450258	296.545490	87.000000	35.000000
296.545490	296.640722	85.000000	35.000000
296.640722	296.735954	84.000000	36.000000
296.640722	296.929194	61.000000	19.000000
296.735954	296.832111	82.000000	36.000000
296.832111	296.929194	80.000000	37.000000
296.929194	297.027228	78.000000	37.000000
296.929194	297.746115	65.000000	19.000000
297.027228	297.126242	77.000000	38.000000
297.126242	297.226248	75.000000	38.000000
297.226248	297.327260	73.000000	38.000000
297.226248	297.532396	61.000000	19.000000
297.327260	297.429305	72.000000	39.000000
297.429305	297.532396	70.000000	39.000000
297.532396	297.636560	68.000000	40.000000
297.532396	297.861047	56.000000	19.000000
297.636560	297.746115	66.000000	40.000000
297.746115	297.861047	65.000000	42.000000
297.803581	297.861047	66.000000	34.000000
297.861047	298.743401	70.000000	46.000000
297.861047	298.008113	54.000000	37.000000
297.861047	298.008113	42.000000	37.000000
298.155165	298.449283	58.000000	30.000000
298.449283	298.743401	60.000000	30.000000
298.743401	298.890453	69.000000	43.000000
298.743401	299.037505	66.000000	30.000000
298.890453	299.037505	70.000000	40.000000
299.037505	299.190565	72.000000	43.000000
299.037505	299.343626	61.000000	30.000000
299.190565	299.343626	70.000000	40.000000
299.343626	299.496686	69.000000	43.000000
299.343626	299.669099	58.000000	30.000000
299.496686	299.669099	70.000000	40.000000
299.669099	299.954808	73.000000	46.000000
299.669099	299.811953	54.000000	37.000000
299.669099	299.811953	42.000000	37.000000
299.954808	300.050040	94.000000	43.000000
299.954808	300.240503	58.000000	19.000000
300.050040	300.145272	92.000000	43.000000
300.145272	300.240503	90.000000	43.000000
300.240503	300.335735	89.000000	43.000000
300.240503	300.528975	61.000000	19.000000
300.335735	300.431893	87.000000	43.000000
300.431893	300.528975	85.000000	42.000000
300.528975	300.627010	84.000000	42.000000
300.528975	300.826030	66.000000	19.000000
300.627010	300.726024	82.000000	42.000000
300.726024	300.826030	80.000000	42.000000
300.826030	300.927042	78.000000	42.000000
300.826030	301.132178	61.000000	19.000000
300.927042	301.029087	77.000000	40.000000
301.029087	301.132178	75.000000	40.000000
301.132178	301.236341	73.000000	40.000000
301.132178	301.460829	58.000000	19.000000
301.236341	301.345896	72.000000	40.000000
301.345896	301.460829	70.000000	40.000000
301.403363	301.460829	65.000000	34.000000
301.460829	302.343182	68.000000	46.000000
301.460829	301.607895	37.000000	37.000000
301.460829	301.607895	49.000000	37.000000
301.754947	302.049065	56.000000	30.000000
302.049065	302.343182	61.000000	30.000000
302.343182	302.490235	67.000000	43.000000
302.343182	302.637287	65.000000	30.000000
302.490235	302.637287	68.000000	40.000000
302.637287	302.790347	67.000000	43.000000
302.637287	302.943407	61.000000	30.000000
302.790347	302.943407	68.000000	40.000000
302.943407	303.096468	70.000000	43.000000
302.943407	303.268880	56.000000	30.000000
303.096468	303.268880	68.000000	40.000000
303.268880	304.128770	65.000000	46.000000
303.268880	303.411735	37.000000	37.000000
303.268880	303.411735	49.000000	37.000000
303.554589	303.840299	56.000000	19.000000
303.840299	303.935530	89.000000	36.000000
303.840299	304.128770	61.000000	19.000000
303.935530	304.031688	87.000000	36.000000
304.031688	304.128770	85.000000	37.000000
304.128770	304.226805	84.000000	37.000000
304.128770	305.060637	65.000000	19.000000
304.226805	304.325819	82.000000	38.000000
304.325819	304.425825	80.000000	39.000000
304.425825	304.526837	78.000000	39.000000
304.425825	304.731973	61.000000	19.000000
304.526837	304.628882	77.000000	40.000000
304.628882	304.731973	75.000000	42.000000
304.731973	304.836136	73.000000	42.000000
304.731973	305.060637	56.000000	19.000000
304.836136	304.945691	72.000000	43.000000
304.945691	305.060637	73.000000	43.000000
305.003158	305.031897	66.000000	34.000000
305.031897	305.060637	72.000000	34.000000
305.060637	305.942991	75.000000	46.000000
305.060637	305.207703	32.000000	37.000000
305.060637	305.207703	44.000000	37.000000
305.354755	305.648873	56.000000	30.000000
305.648873	305.942991	60.000000	30.000000
305.942991	306.090043	74.000000	44.000000
305.942991	306.237095	66.000000	30.000000
306.090043	306.237095	75.000000	40.000000
306.237095	306.390156	77.000000	44.000000
306.237095	306.543216	60.000000	30.000000
306.390156	306.543216	75.000000	40.000000
306.543216	306.696276	74.000000	43.000000
306.543216	306.868702	56.000000	30.000000
306.696276	306.868702	75.000000	40.000000
306.811222	306.839962	66.000000	34.000000
306.839962	306.868702	73.000000	34.000000
306.868702	307.154411	78.000000	46.000000
306.868702	307.011557	32.000000	37.000000
306.868702	307.011557	44.000000	37.000000
307.154411	307.249643	90.000000	35.000000
307.154411	307.440107	56.000000	19.000000
307.249643	307.344875	89.000000	35.000000
307.344875	307.440107	87.000000	35.000000
307.440107	307.535339	85.000000	36.000000
307.440107	307.728579	60.000000	19.000000
307.535339	307.631496	84.000000	36.000000
307.631496	307.728579	82.000000	37.000000
307.728579	307.826614	80.000000	37.000000
307.728579	308.025634	66.000000	19.000000
307.826614	307.925627	78.000000	38.000000
307.925627	308.025634	77.000000	38.000000
308.025634	308.126646	75.000000	39.000000
308.025634	308.331781	60.000000	19.000000
308.126646	308.228690	73.000000	39.000000
308.228690	308.331781	72.000000	40.000000
308.331781	308.435945	70.000000	40.000000
308.331781	308.660446	56.000000	19.000000
308.435945	308.545500	68.000000	42.000000
308.545500	308.660446	66.000000	42.000000
308.660446	309.542786	65.000000	46.000000
308.660446	309.542786	73.000000	46.000000
308.660446	308.807498	37.000000	37.000000
308.660446	308.807498	49.000000	37.000000
308.954550	309.248668	56.000000	30.000000
309.248668	309.542786	61.000000	30.000000
309.542786	309.689838	72.000000	44.000000
309.542786	309.836890	65.000000	30.000000
309.689838	309.836890	73.000000	40.000000
309.836890	309.989951	75.000000	44.000000
309.836890	310.143011	61.000000	30.000000
309.989951	310.143011	73.000000	40.000000
310.143011	310.296071	72.000000	44.000000
310.143011	310.468484	56.000000	30.000000
310.296071	310.468484	73.000000	40.000000
310.468484	310.754193	65.000000	46.000000
310.468484	310.754193	77.000000	46.000000
310.468484	310.611338	37.000000	37.000000
310.468484	310.611338	49.000000	37.000000
310.754193	310.849425	90.000000	40.000000
310.754193	311.039889	56.000000	19.000000
310.849425	310.944657	89.000000	40.000000
310.944657	311.039889	87.000000	40.000000
311.039889	311.135121	85.000000	40.000000
311.039889	311.328360	61.000000	19.000000
311.135121	311.231278	84.000000	40.000000
311.231278	311.328360	82.000000	39.000000
311.328360	311.426395	80.000000	39.000000
311.328360	311.625415	65.000000	19.000000
311.426395	311.525409	78.000000	39.000000
311.525409	311.625415	77.000000	39.000000
311.625415	311.726427	75.000000	38.000000
311.625415	311.931563	61.000000	19.000000
311.726427	311.828472	73.000000	38.000000
311.828472	311.931563	72.000000	38.000000
311.931563	312.035726	70.000000	38.000000
311.931563	312.260214	56.000000	19.000000
312.035726	312.145281	68.000000	38.000000
312.145281	312.260214	66.000000	39.000000
312.202748	312.260214	65.000000	34.000000
312.260214	313.197727	73.000000	46.000000
312.260214	312.416466	49.000000	34.000000
312.260214	312.416466	37.000000	34.000000
312.572718	312.885223	53.000000	23.000000
312.885223	313.197727	56.000000	23.000000
313.197727	313.486186	68.000000	39.000000
313.197727	313.486186	61.000000	23.000000
313.486186	314.124471	65.000000	39.000000
313.486186	313.805328	56.000000	23.000000
313.805328	314.124471	53.000000	23.000000
314.124471	315.061984	68.000000	43.000000
314.124471	315.061984	60.000000	43.000000
314.124471	314.280723	32.000000	32.000000
314.124471	314.280723	44.000000	32.000000
314.436976	314.749480	44.000000	24.000000
314.749480	315.061984	48.000000	24.000000
315.061984	315.374489	66.000000	40.000000
315.061984	315.374489	51.000000	24.000000
315.374489	316.033119	63.000000	40.000000
315.374489	315.686993	54.000000	24.000000
315.686993	316.033119	56.000000	24.000000
315.969819	316.001469	77.000000	30.000000
316.001469	316.033119	80.000000	30.000000
316.033119	316.936635	89.000000	40.000000
316.033119	316.186179	49.000000	29.000000
316.033119	316.186179	37.000000	29.000000
316.339240	316.645360	56.000000	18.000000
316.645360	316.936635	61.000000	18.000000
316.790991	316.863813	85.000000	36.000000
316.936635	317.009457	80.000000	36.000000
316.936635	317.227923	65.000000	18.000000
317.082279	317.155101	77.000000	36.000000
317.227923	317.300745	73.000000	36.000000
317.227923	317.519211	61.000000	18.000000
317.373567	317.446389	68.000000	36.000000
317.519211	317.599852	65.000000	36.000000
317.519211	317.841761	56.000000	18.000000
317.680493	317.761133	61.000000	36.000000
317.788009	317.814885	60.000000	30.000000
317.814885	317.841761	66.000000	30.000000
317.841761	318.760123	70.000000	39.000000
317.841761	317.994821	32.000000	27.000000
317.841761	317.994821	44.000000	27.000000
318.147881	318.760123	44.000000	17.000000
318.454002	318.760123	48.000000	17.000000
318.760123	319.066243	68.000000	35.000000
318.760123	319.066243	51.000000	17.000000
319.066243	319.372364	63.000000	35.000000
319.066243	319.372364	54.000000	17.000000
319.372364	319.678485	65.000000	35.000000
319.372364	319.678485	56.000000	17.000000
319.678485	319.831545	61.000000	35.000000
319.678485	320.290726	49.000000	17.000000
319.678485	320.290726	53.000000	17.000000
319.831545	319.984606	65.000000	32.000000
319.984606	320.137666	56.000000	32.000000
320.137666	320.290726	61.000000	32.000000
320.290726	320.440729	65.000000	36.000000
320.290726	320.902056	49.000000	17.000000
320.290726	320.902056	53.000000	17.000000
320.290726	320.902056	56.000000	17.000000
320.440729	320.592757	68.000000	35.000000
320.592757	320.746340	73.000000	35.000000
320.746340	320.902056	77.000000	35.000000
320.902056	321.059944	80.000000	34.000000
320.902056	321.546189	61.000000	17.000000
320.902056	321.546189	65.000000	17.000000
320.902056	321.546189	56.000000	17.000000
321.059944	321.220086	85.000000	34.000000
321.220086	321.381957	89.000000	34.000000
321.381957	321.546189	92.000000	34.000000
321.546189	322.157290	97.000000	38.000000
321.546189	322.212852	61.000000	17.000000
321.546189	322.212852	65.000000	17.000000
321.546189	322.212852	56.000000	17.000000
322.212852	322.712856	68.000000	53.000000
322.879529	323.375550	68.000000	53.000000
323.499871	323.530944	60.000000	35.000000
323.530944	323.562018	63.000000	36.000000
323.562018	324.474881	68.000000	53.000000
323.562018	323.866609	44.000000	38.000000
323.562018	323.866609	32.000000	38.000000
323.866609	324.170745	56.000000	31.000000
324.170745	324.474881	60.000000	31.000000
324.474881	324.779017	70.000000	48.000000
324.474881	324.779017	66.000000	31.000000
324.779017	325.359702	68.000000	48.000000
324.779017	325.083153	60.000000	31.000000
325.083153	325.415009	56.000000	31.000000
325.359702	325.415009	68.000000	39.000000
325.387356	325.415009	72.000000	39.000000
325.415009	326.175349	78.000000	63.000000
325.415009	325.719145	32.000000	38.000000
325.415009	325.719145	44.000000	38.000000
325.719145	326.023281	56.000000	38.000000
326.023281	326.327417	60.000000	30.000000
326.175349	326.327417	68.000000	46.000000
326.327417	326.473423	67.000000	46.000000
326.327417	326.619429	66.000000	30.000000
326.473423	326.619429	68.000000	46.000000
326.619429	326.765436	70.000000	46.000000
326.619429	326.911442	60.000000	30.000000
326.765436	326.911442	68.000000	46.000000
326.911442	327.057448	67.000000	46.000000
326.911442	327.219681	56.000000	30.000000
327.057448	327.219681	68.000000	46.000000
327.192645	327.219681	65.000000	39.000000
327.219681	328.113421	68.000000	53.000000
327.219681	327.517595	37.000000	38.000000
327.219681	327.517595	49.000000	38.000000
327.517595	327.815508	56.000000	31.000000
327.815508	328.113421	61.000000	31.000000
328.113421	328.399130	70.000000	48.000000
328.113421	328.399130	65.000000	31.000000
328.399130	328.975778	68.000000	48.000000
328.399130	328.684839	61.000000	31.000000
328.684839	329.002225	56.000000	31.000000
328.949332	328.975778	65.000000	39.000000
328.975778	329.002225	68.000000	39.000000
329.002225	329.762565	77.000000	63.000000
329.002225	329.306361	49.000000	38.000000
329.002225	329.306361	37.000000	38.000000
329.306361	329.610497	56.000000	38.000000
329.610497	329.914633	61.000000	30.000000
329.762565	329.914633	77.000000	46.000000
329.914633	330.060639	75.000000	46.000000
329.914633	330.206645	65.000000	30.000000
330.060639	330.206645	73.000000	46.000000
330.206645	330.352651	72.000000	46.000000
330.206645	330.498657	61.000000	30.000000
330.352651	330.498657	73.000000	46.000000
330.498657	330.644663	75.000000	46.000000
330.498657	330.806897	56.000000	30.000000
330.644663	330.806897	73.000000	46.000000
330.779860	330.806897	72.000000	39.000000
330.806897	330.951468	78.000000	65.000000
330.806897	331.096026	32.000000	38.000000
330.806897	331.096026	44.000000	38.000000
331.096026	331.192398	80.000000	47.000000
331.096026	331.385141	56.000000	31.000000
331.192398	331.288769	78.000000	47.000000
331.288769	331.385141	77.000000	47.000000
331.385141	331.686099	78.000000	59.000000
331.385141	331.686099	60.000000	31.000000
331.686099	331.981021	80.000000	54.000000
331.686099	331.981021	66.000000	31.000000
331.981021	332.273020	82.000000	59.000000
331.981021	332.273020	60.000000	31.000000
332.273020	332.576003	78.000000	50.000000
332.273020	332.576003	56.000000	31.000000
332.523673	332.549838	66.000000	39.000000
332.549838	332.576003	72.000000	39.000000
332.576003	332.720560	75.000000	65.000000
332.576003	332.865118	44.000000	38.000000
332.576003	332.865118	32.000000	38.000000
332.865118	332.961490	77.000000	47.000000
332.865118	333.154234	56.000000	38.000000
332.961490	333.057862	75.000000	47.000000
333.057862	333.154234	74.000000	47.000000
333.154234	333.455191	75.000000	59.000000
333.154234	333.455191	60.000000	30.000000
333.455191	333.744320	77.000000	54.000000
333.455191	333.744320	66.000000	31.000000
333.744320	334.045277	78.000000	59.000000
333.744320	334.045277	60.000000	30.000000
334.045277	334.351063	72.000000	50.000000
334.045277	334.351063	56.000000	30.000000
334.299296	334.325180	65.000000	39.000000
334.325180	334.351063	68.000000	39.000000
334.351063	335.079806	75.000000	65.000000
334.351063	334.640192	49.000000	38.000000
334.351063	334.640192	37.000000	38.000000
334.640192	334.929321	56.000000	38.000000
334.929321	335.230278	61.000000	30.000000
335.079806	335.180121	73.000000	47.000000
335.230278	335.326650	72.000000	47.000000
335.230278	335.519394	65.000000	31.000000
335.374836	335.471208	73.000000	47.000000
335.519394	335.615765	72.000000	47.000000
335.519394	335.808509	61.000000	30.000000
335.663951	335.760323	73.000000	47.000000
335.808509	335.904881	77.000000	47.000000
335.808509	336.105913	56.000000	30.000000
335.953067	336.057713	73.000000	47.000000
336.105913	337.297579	68.000000	47.000000
336.105913	336.403839	37.000000	38.000000
336.105913	336.403839	49.000000	38.000000
336.403839	336.701752	56.000000	38.000000
336.701752	336.999666	61.000000	30.000000
336.999666	337.297579	65.000000	31.000000
337.297579	337.908506	73.000000	47.000000
337.297579	337.595492	61.000000	30.000000
337.595492	337.908506	56.000000	30.000000
337.853816	337.881161	65.000000	36.000000
337.881161	337.908506	71.000000	38.000000
337.908506	338.820913	73.000000	53.000000
337.908506	338.212642	37.000000	38.000000
337.908506	338.212642	49.000000	38.000000
338.212642	338.516778	56.000000	31.000000
338.516778	338.820913	61.000000	31.000000
338.820913	339.115836	75.000000	48.000000
338.820913	339.115836	65.000000	31.000000
339.115836	339.695488	73.000000	48.000000
339.115836	339.410758	61.000000	31.000000
339.410758	339.721372	56.000000	31.000000
339.669605	339.695488	71.000000	39.000000
339.695488	339.721372	73.000000	39.000000
339.721372	340.913024	80.000000	63.000000
339.721372	340.019285	37.000000	38.000000
339.721372	340.019285	49.000000	38.000000
340.019285	340.317198	56.000000	38.000000
340.317198	340.615111	61.000000	30.000000
340.615111	340.913024	65.000000	30.000000
340.913024	341.522128	73.000000	63.000000
340.913024	341.210938	61.000000	30.000000
341.210938	341.522128	56.000000	30.000000
341.468054	341.495091	66.000000	39.000000
341.495091	341.522128	70.000000	39.000000
341.522128	342.434535	73.000000	53.000000
341.522128	341.826264	37.000000	38.000000
341.522128	341.826264	49.000000	38.000000
341.826264	342.130399	58.000000	31.000000
342.130399	342.434535	61.000000	31.000000
342.434535	342.729458	75.000000	48.000000
342.434535	342.729458	66.000000	31.000000
342.729458	343.309110	73.000000	48.000000
342.729458	343.024380	61.000000	31.000000
343.024380	343.334994	58.000000	31.000000
343.283227	343.309110	69.000000	35.000000
343.309110	343.334994	73.000000	35.000000
343.334994	344.526646	78.000000	54.000000
343.334994	343.632907	49.000000	38.000000
343.334994	343.632907	37.000000	38.000000
343.632907	343.930820	57.000000	38.000000
343.930820	344.228733	61.000000	30.000000
344.228733	344.526646	66.000000	30.000000
344.526646	345.135750	77.000000	54.000000
344.526646	344.824559	61.000000	30.000000
344.824559	345.135750	56.000000	30.000000
345.108713	345.135750	72.000000	35.000000
345.135750	345.278886	75.000000	54.000000
345.135750	345.708294	37.000000	38.000000
345.135750	345.708294	49.000000	38.000000
345.278886	345.422022	78.000000	55.000000
345.422022	345.565158	81.000000	57.000000
345.565158	345.708294	84.000000	58.000000
345.708294	345.851430	87.000000	59.000000
345.708294	346.853384	60.000000	30.000000
345.708294	346.853384	63.000000	30.000000
345.708294	346.853384	57.000000	30.000000
345.708294	346.853384	66.000000	30.000000
345.851430	345.994567	90.000000	59.000000
345.994567	346.137703	93.000000	60.000000
346.137703	346.280839	96.000000	61.000000
346.280839	346.423975	99.000000	63.000000
346.423975	346.567111	102.000000	64.000000
346.567111	346.710247	99.000000	64.000000
346.710247	346.853384	96.000000	65.000000
346.853384	346.996520	93.000000	66.000000
346.853384	347.425928	25.000000	35.000000
346.853384	347.425928	37.000000	35.000000
346.996520	347.139656	90.000000	65.000000
347.139656	347.282792	87.000000	65.000000
347.282792	347.425928	84.000000	65.000000
347.425928	347.569065	81.000000	64.000000
347.425928	348.571018	49.000000	29.000000
347.425928	348.571018	56.000000	29.000000
347.425928	348.571018	54.000000	29.000000
347.425928	348.571018	51.000000	29.000000
347.569065	347.712201	78.000000	64.000000
347.712201	347.855337	75.000000	65.000000
347.855337	347.998473	72.000000	66.000000
347.998473	348.141609	69.000000	67.000000
348.141609	348.284745	66.000000	69.000000
348.284745	348.427882	63.000000	69.000000
348.427882	348.571018	60.000000	70.000000
348.571018	348.714141	61.000000	69.000000
348.714141	348.857277	65.000000	70.000000
348.857277	349.000413	56.000000	69.000000
349.000413	349.143549	61.000000	72.000000
349.143549	349.285304	53.000000	70.000000
349.285304	349.428909	56.000000	73.000000
349.428909	349.575264	49.000000	72.000000
349.575264	349.723550	53.000000	75.000000
349.723550	349.874371	44.000000	73.000000
349.874371	350.027284	49.000000	77.000000
350.027284	350.181806	41.000000	75.000000
350.181806	350.339077	44.000000	80.000000
350.339077	350.898922	37.000000	86.000000
350.979911	351.306001	68.000000	67.000000
351.632091	351.958181	68.000000	67.000000
352.284270	353.222977	68.000000	59.000000
352.284270	353.222977	65.000000	59.000000
352.284270	353.461077	56.000000	55.000000
352.284270	353.461077	61.000000	55.000000
352.284270	353.461077	49.000000	55.000000
353.175354	353.516639	70.000000	57.000000
353.461077	354.127754	68.000000	57.000000
353.461077	354.127754	65.000000	57.000000
353.461077	354.127754	61.000000	50.000000
353.461077	354.127754	49.000000	50.000000
353.461077	354.127754	56.000000	50.000000
354.127754	355.964867	61.000000	53.000000
354.127754	355.636189	65.000000	53.000000
354.127754	355.964867	56.000000	46.000000
354.127754	355.964867	49.000000	46.000000
354.443544	354.592058	89.000000	32.000000
354.443544	354.592058	80.000000	32.000000
354.443544	354.592058	85.000000	32.000000
354.740572	354.889086	85.000000	32.000000
354.740572	354.889086	77.000000	32.000000
354.740572	354.889086	80.000000	32.000000
355.037600	355.186114	80.000000	32.000000
355.037600	355.186114	77.000000	32.000000
355.037600	355.186114	73.000000	32.000000
355.334628	355.483638	77.000000	32.000000
355.334628	355.483638	73.000000	32.000000
355.334628	355.483638	68.000000	32.000000
355.636189	355.792455	68.000000	32.000000
355.636189	355.792455	73.000000	32.000000
355.636189	355.964867	65.000000	32.000000
355.964867	356.903574	65.000000	60.000000
355.964867	356.903574	68.000000	60.000000
355.964867	357.141674	61.000000	55.000000
355.964867	357.141674	56.000000	55.000000
355.964867	357.141674	49.000000	55.000000
356.855951	357.193762	70.000000	58.000000
357.141674	357.766682	65.000000	58.000000
357.141674	357.766682	68.000000	58.000000
357.141674	357.766682	61.000000	50.000000
357.141674	357.766682	56.000000	50.000000
357.141674	357.766682	49.000000	50.000000
357.766682	359.592544	61.000000	55.000000
357.766682	359.277370	65.000000	55.000000
357.766682	359.592544	56.000000	46.000000
357.766682	359.592544	49.000000	46.000000
358.089258	358.237772	85.000000	32.000000
358.089258	358.237772	89.000000	32.000000
358.089258	358.237772	80.000000	32.000000
358.386286	358.534800	80.000000	32.000000
358.386286	358.534800	85.000000	32.000000
358.386286	358.534800	77.000000	32.000000
358.683314	358.831828	73.000000	32.000000
358.683314	358.831828	80.000000	32.000000
358.683314	358.831828	77.000000	32.000000
358.980342	359.128856	73.000000	32.000000
358.980342	359.128856	77.000000	32.000000
358.980342	359.128856	68.000000	32.000000
359.277370	359.425884	73.000000	32.000000
359.277370	359.425884	68.000000	32.000000
359.277370	359.592544	65.000000	32.000000
359.592544	360.531250	65.000000	61.000000
359.592544	360.531250	68.000000	61.000000
359.592544	360.769350	61.000000	55.000000
359.592544	360.769350	49.000000	55.000000
359.592544	360.769350	56.000000	55.000000
360.483628	360.821439	70.000000	58.000000
360.769350	361.394346	65.000000	58.000000
360.769350	361.394346	68.000000	58.000000
360.769350	361.394346	56.000000	50.000000
360.769350	361.389142	61.000000	50.000000
360.769350	361.394346	49.000000	50.000000
361.394346	362.333508	65.000000	63.000000
361.394346	362.333508	61.000000	63.000000
361.394346	362.573888	56.000000	54.000000
361.394346	362.573888	49.000000	54.000000
362.285430	362.627076	66.000000	57.000000
362.573888	363.212187	61.000000	57.000000
362.573888	363.212187	65.000000	57.000000
362.573888	363.212187	49.000000	48.000000
362.573888	363.212187	56.000000	48.000000
363.212187	363.506305	65.000000	50.000000
363.212187	363.506305	61.000000	50.000000
363.212187	363.506305	56.000000	48.000000
363.212187	363.506305	49.000000	48.000000
363.506305	363.653357	32.000000	28.000000
363.506305	363.653357	41.000000	28.000000
363.506305	363.653357	37.000000	28.000000
363.800409	363.947462	41.000000	28.000000
363.800409	363.947462	44.000000	28.000000
363.800409	363.947462	37.000000	28.000000
364.094514	364.241566	44.000000	28.000000
364.094514	364.241566	49.000000	28.000000
364.094514	364.241566	41.000000	28.000000
364.388618	364.535670	53.000000	28.000000
364.388618	364.535670	49.000000	28.000000
364.388618	364.535670	44.000000	28.000000
364.682723	364.829775	49.000000	28.000000
364.682723	364.829775	53.000000	28.000000
364.682723	364.829775	56.000000	28.000000
364.976827	365.123879	61.000000	28.000000
364.976827	365.123879	56.000000	28.000000
364.976827	365.123879	53.000000	28.000000
365.270931	365.417984	49.000000	28.000000
365.270931	365.417984	44.000000	28.000000
365.270931	365.417984	53.000000	28.000000
365.565036	365.712088	53.000000	28.000000
365.565036	365.712088	56.000000	28.000000
365.565036	365.712088	49.000000	28.000000
365.859140	366.006192	56.000000	28.000000
365.859140	366.006192	61.000000	28.000000
365.859140	366.006192	53.000000	28.000000
366.153245	366.300297	65.000000	28.000000
366.153245	366.300297	61.000000	28.000000
366.153245	366.300297	56.000000	28.000000
366.447349	366.594401	68.000000	28.000000
366.447349	366.594401	61.000000	28.000000
366.447349	366.594401	65.000000	28.000000
366.741453	366.888506	73.000000	28.000000
366.741453	366.888506	65.000000	28.000000
366.741453	366.888506	68.000000	28.000000
367.035558	367.182610	61.000000	28.000000
367.035558	367.182610	56.000000	28.000000
367.035558	367.182610	65.000000	28.000000
367.329662	367.482723	68.000000	28.000000
367.329662	367.482723	61.000000	28.000000
367.329662	367.482723	65.000000	28.000000
367.635783	367.788843	65.000000	28.000000
367.635783	367.788843	68.000000	28.000000
367.635783	367.788843	73.000000	28.000000
367.941904	368.094964	73.000000	28.000000
367.941904	368.094964	68.000000	28.000000
367.941904	368.094964	77.000000	28.000000
368.248024	368.401085	73.000000	28.000000
368.248024	368.401085	80.000000	28.000000
368.248024	368.401085	77.000000	28.000000
368.554145	368.704644	85.000000	28.000000
368.554145	368.704644	77.000000	28.000000
368.554145	368.704644	80.000000	28.000000
368.857718	369.013983	77.000000	28.000000
368.857718	369.013983	73.000000	28.000000
368.857718	369.013983	68.000000	28.000000
369.172998	369.335460	80.000000	28.000000
369.172998	369.335460	73.000000	28.000000
369.172998	369.335460	77.000000	28.000000
369.501515	369.670696	85.000000	28.000000
369.501515	369.670696	77.000000	28.000000
369.501515	369.670696	80.000000	28.000000
369.843779	370.020952	85.000000	28.000000
369.843779	370.020952	80.000000	28.000000
369.843779	370.020952	89.000000	28.000000
370.201693	370.386900	89.000000	28.000000
370.201693	370.386900	92.000000	28.000000
370.201693	370.386900	85.000000	28.000000
370.712989	373.654168	89.000000	31.000000
370.712989	373.654168	92.000000	31.000000
370.712989	373.654168	97.000000	31.000000
374.242403	375.505564	56.000000	23.000000
374.242403	375.505564	65.000000	23.000000
374.242403	375.505564	61.000000	23.000000
374.242403	375.189774	44.000000	28.000000
374.242403	375.189774	32.000000	28.000000
375.189774	375.505564	34.000000	23.000000
375.189774	375.505564	46.000000	23.000000
375.505564	376.203234	56.000000	23.000000
375.505564	376.203234	65.000000	23.000000
375.505564	376.203234	61.000000	23.000000
375.505564	376.203234	44.000000	23.000000
375.505564	376.203234	32.000000	23.000000
376.203234	377.585457	56.000000	23.000000
376.203234	377.585457	61.000000	23.000000
376.203234	377.585457	65.000000	23.000000
376.203234	377.224016	41.000000	28.000000
376.203234	377.224016	29.000000	28.000000
377.224016	377.585457	42.000000	23.000000
377.224016	377.585457	30.000000	23.000000
377.585457	378.480980	56.000000	23.000000
377.585457	378.480980	61.000000	23.000000
377.585457	378.480980	65.000000	23.000000
377.585457	378.480980	29.000000	23.000000
377.585457	378.480980	41.000000	23.000000
378.480980	383.854119	56.000000	23.000000
378.480980	383.854119	61.000000	23.000000
378.480980	383.854119	65.000000	23.000000
378.480980	383.854119	25.000000	28.000000
378.480980	383.854119	37.000000	28.000000
