OnsetTime	OffsetTime	MidiPitch	Velocity
0.500004	1.57419	61	75
0.678854	0.857704	68	42
0.678854	1.03525	71	42
0.678854	1.03525	75	51
0.768279	1.12407	66	51
0.857704	1.03525	68	72
1.03525	1.39354	68	42
1.03525	1.39354	71	42
1.03525	1.39354	75	51
1.12407	1.48387	66	51
1.2129	1.57419	73	72
1.39354	1.57419	68	42
1.39354	1.57419	71	42
1.39354	1.57419	75	51
1.48387	1.57419	66	51
1.57419	2.64989	80	72
1.75154	2.108	68	44
1.75154	2.108	71	44
1.75154	2.108	75	52
1.84006	2.19771	66	52
1.92859	2.64989	73	71
2.108	2.28742	68	44
2.108	2.46865	71	44
2.108	2.46865	75	52
2.19771	2.55927	66	52
2.28742	2.46865	68	71
2.46865	2.64989	68	44
2.46865	2.64989	71	44
2.46865	2.64989	75	52
2.55927	2.64989	66	52
2.64989	3.36518	61	75
2.82812	3.00636	77	42
2.82812	3.18577	83	42
2.82812	3.18577	87	51
2.91724	3.27548	85	51
3.00636	3.72766	68	45
3.00636	3.72766	71	45
3.00636	3.18577	77	64
3.18577	3.54642	77	42
3.18577	3.54642	83	42
3.18577	3.54642	87	51
3.27548	3.63704	85	51
3.36518	3.72766	61	72
3.54642	3.72766	77	42
3.54642	3.72766	83	42
3.54642	3.72766	87	51
3.63704	3.72766	85	51
3.72766	4.45867	68	45
3.72766	4.45867	71	45
3.72766	3.90895	77	68
3.90895	4.27445	77	44
3.90895	4.27445	83	44
3.90895	4.27445	87	52
3.99959	4.36656	85	52
4.09024	4.76338	61	74
4.27445	4.45867	77	44
4.27445	4.64714	83	44
4.27445	4.64714	87	52
4.36656	4.74138	85	52
4.45867	4.76338	68	45
4.45867	4.76338	71	45
4.45867	4.64714	77	67
4.64714	4.76338	77	44
4.64714	4.76338	83	44
4.64714	4.76338	87	52
4.74138	5.16815	85	52
4.83564	5.16815	54	51
5.00277	5.16815	63	35
5.00277	5.16815	66	35
5.00277	5.16815	70	35
5.09338	5.18402	61	35
5.18402	5.22662	61	49
5.35444	5.45535	61	35
5.35444	5.45535	66	35
5.35444	5.45535	70	35
5.53516	5.58034	49	49
5.71587	5.80237	61	35
5.71587	5.80237	66	35
5.71587	5.80237	70	35
5.8996	6.22073	54	51
6.06366	6.22073	63	35
6.06366	6.22073	66	35
6.06366	6.22073	70	35
6.15428	6.2449	61	35
6.2449	6.2875	61	49
6.41533	6.54785	61	35
6.41533	6.54785	66	35
6.41533	6.54785	70	35
6.59604	6.64122	49	49
6.77675	6.88293	61	35
6.77675	6.88293	66	35
6.77675	6.88293	70	35
6.95747	8.10661	56	51
7.13817	7.49435	63	35
7.13817	7.49435	65	35
7.13817	7.49435	71	35
7.22759	7.3168	61	35
7.3168	7.58278	61	51
7.49435	7.67092	63	36
7.49435	7.84635	65	36
7.49435	7.84635	71	36
7.58278	7.93885	61	36
7.67092	7.84635	63	55
7.84635	8.10661	63	38
7.84635	8.03134	65	38
7.84635	8.10661	71	38
7.93885	8.10661	61	38
8.03134	8.21018	65	58
8.21018	8.57088	63	39
8.21018	8.57088	65	39
8.21018	8.57088	71	39
8.2996	8.66181	61	39
8.38903	9.0655	68	61
8.57088	8.93459	63	41
8.57088	8.93459	65	41
8.57088	8.93459	71	41
8.66181	8.75274	61	42
8.75274	9.02646	61	58
8.93459	9.0655	63	43
8.93459	9.0655	65	43
8.93459	9.0655	71	43
9.02646	9.11832	61	44
9.11832	9.44939	54	51
9.28702	9.44939	63	35
9.28702	9.44939	66	35
9.28702	9.44939	70	35
9.37764	9.46827	61	35
9.46827	9.51113	61	49
9.63973	9.7858	61	35
9.63973	9.7858	66	35
9.63973	9.7858	70	35
9.82045	9.86563	49	49
10.0012	10.1202	61	35
10.0012	10.1202	66	35
10.0012	10.1202	70	35
10.1855	10.5368	54	51
10.3527	10.5368	63	35
10.3527	10.5368	66	35
10.3527	10.5368	70	35
10.4433	10.5339	61	35
10.5339	10.5768	61	49
10.7054	10.8439	61	35
10.7054	10.8439	66	35
10.7054	10.8439	70	35
10.8861	10.9313	49	49
11.0668	11.194	61	35
11.0668	11.194	66	35
11.0668	11.194	70	35
11.2475	12.403	56	51
11.4293	11.789	63	35
11.4293	11.789	65	35
11.4293	11.789	71	35
11.52	11.6106	61	35
11.6106	11.8776	61	51
11.789	11.9658	63	36
11.789	12.1408	65	36
11.789	12.1408	71	36
11.8776	12.2336	61	36
11.9658	12.1408	63	55
12.1408	12.403	63	38
12.1408	12.3265	65	38
12.1408	12.403	71	38
12.2336	12.403	61	38
12.3265	12.5083	65	58
12.5083	12.872	63	39
12.5083	12.872	65	39
12.5083	12.872	71	39
12.5992	12.9629	61	39
12.6902	13.4226	68	61
12.872	13.2382	63	41
12.872	13.2382	65	41
12.872	13.2382	71	41
12.9629	13.0539	61	42
13.0539	13.3304	61	58
13.2382	13.4226	63	43
13.2382	13.4226	65	43
13.2382	13.4226	71	43
13.3304	13.4226	61	44
13.4226	13.8021	54	54
13.4226	13.8021	58	54
13.4226	13.6954	61	58
13.4226	13.6954	66	58
13.6954	13.8021	61	50
13.6954	13.7863	66	55
13.6954	13.7863	70	55
13.7863	13.8767	66	50
13.7863	13.8767	70	57
13.7863	13.8767	73	57
13.9677	14.0592	70	54
13.9677	14.0592	73	61
13.9677	14.0592	78	61
14.1513	14.244	73	56
14.1513	14.244	78	66
14.1513	14.244	82	66
14.3374	14.4313	78	54
14.3374	14.4313	82	63
14.3374	14.4313	85	63
14.5258	14.621	82	63
14.5258	14.7161	85	76
14.5258	14.7161	90	76
14.8588	15.2868	42	58
14.8826	15.2868	49	61
14.9063	15.2868	58	70
14.9063	15.2868	90	85
14.9063	15.2868	97	85
14.9063	15.2868	102	85
15.6905	16.1064	66	53
15.6905	16.1064	78	67
15.6905	16.1064	90	67
15.921	16.1214	68	55
15.921	16.1214	80	69
15.921	16.1214	92	69
16.1214	16.5324	70	56
16.1214	16.5324	82	71
16.1214	16.5324	94	71
16.5324	16.8314	68	54
16.5324	16.8168	80	68
16.5324	16.8168	92	68
16.7197	16.9717	66	50
16.7197	16.9717	78	65
16.7197	16.9717	90	65
16.8168	16.914	80	53
16.8168	16.914	92	53
16.8654	16.9717	82	53
16.8654	16.9717	94	53
16.914	17.3039	68	56
16.914	17.3039	80	68
16.914	17.3039	92	68
17.3039	17.676	66	54
17.3039	17.676	78	59
17.3039	17.676	90	59
17.4918	17.6874	63	50
17.4918	17.6874	75	57
17.4918	17.6874	87	57
17.6874	18.0969	61	47
17.6874	18.0969	73	55
17.6874	18.0969	85	55
18.0969	18.4924	59	59
18.0969	18.4924	66	59
18.0969	18.4584	68	62
18.0969	18.4924	74	62
18.0969	18.4584	80	62
18.2981	18.4924	70	64
18.2981	18.4924	82	64
18.4924	18.883	56	56
18.4924	18.883	66	56
18.4924	18.8947	71	66
18.4924	18.8947	74	66
18.4924	18.8947	83	66
18.8444	19.32	49	42
18.8695	19.32	59	43
18.8947	19.32	65	54
18.8947	19.32	68	59
18.8947	19.32	73	59
18.8947	19.32	80	59
19.1002	19.32	70	53
19.1002	19.32	82	53
19.32	19.7097	54	54
19.32	19.6191	61	54
19.32	19.5285	66	62
19.32	19.5285	70	62
19.32	19.5285	78	62
19.5285	19.678	63	35
19.5285	19.678	66	35
19.5285	19.678	70	35
19.6191	19.7097	61	35
19.7097	19.7522	61	49
19.8797	19.9806	61	35
19.8797	19.9806	66	35
19.8797	19.9806	70	35
20.0604	20.1056	49	49
20.2411	20.3276	61	35
20.2411	20.3276	66	35
20.2411	20.3276	70	35
20.4248	20.746	54	51
20.5889	20.746	63	35
20.5889	20.746	66	35
20.5889	20.746	70	35
20.6795	20.7701	61	35
20.7701	20.813	61	49
20.9416	21.0741	61	35
20.9416	21.0741	66	35
20.9416	21.0741	70	35
21.1223	21.1675	49	49
21.303	21.4092	61	35
21.303	21.4092	66	35
21.303	21.4092	70	35
21.4837	22.6329	56	51
21.6644	22.0206	63	35
21.6644	22.0206	65	35
21.6644	22.0206	71	35
21.7539	21.8431	61	35
21.8431	22.1091	61	51
22.0206	22.1972	63	36
22.0206	22.3726	65	36
22.0206	22.3726	71	36
22.1091	22.4651	61	36
22.1972	22.3726	63	55
22.3726	22.6329	63	38
22.3726	22.5576	65	38
22.3726	22.6329	71	38
22.4651	22.6329	61	38
22.5576	22.7365	65	58
22.7365	23.0972	63	39
22.7365	23.0972	65	39
22.7365	23.0972	71	39
22.8259	23.1881	61	39
22.9153	23.5719	68	61
23.0972	23.4609	63	41
23.0972	23.4609	65	41
23.0972	23.4609	71	41
23.1881	23.279	61	42
23.279	23.5527	61	58
23.4609	23.5719	63	43
23.4609	23.5719	65	43
23.4609	23.5719	71	43
23.5527	23.6446	61	44
23.6446	23.9757	54	51
23.8133	23.9757	63	35
23.8133	23.9757	66	35
23.8133	23.9757	70	35
23.9039	23.9945	61	35
23.9945	24.0374	61	49
24.166	24.3121	61	35
24.166	24.3121	66	35
24.166	24.3121	70	35
24.3467	24.3919	49	49
24.5274	24.6465	61	35
24.5274	24.6465	66	35
24.5274	24.6465	70	35
24.7118	25.0631	54	51
24.8789	25.0631	63	35
24.8789	25.0631	66	35
24.8789	25.0631	70	35
24.9696	25.0602	61	35
25.0602	25.1034	61	49
25.2332	25.3705	61	35
25.2332	25.3705	66	35
25.2332	25.3705	70	35
25.4126	25.4578	49	49
25.5933	25.7206	61	35
25.5933	25.7206	66	35
25.5933	25.7206	70	35
25.774	26.9295	56	51
25.9559	26.3156	63	35
25.9559	26.3156	65	35
25.9559	26.3156	71	35
26.0465	26.1371	61	35
26.1371	26.4042	61	51
26.3156	26.4923	63	36
26.3156	26.6674	65	36
26.3156	26.6674	71	36
26.4042	26.7602	61	36
26.4923	26.6674	63	55
26.6674	26.9295	63	38
26.6674	26.853	65	38
26.6674	26.9295	71	38
26.7602	26.9295	61	38
26.853	27.0348	65	58
27.0348	27.3986	63	39
27.0348	27.3986	65	39
27.0348	27.3986	71	39
27.1258	27.4895	61	39
27.2167	27.9491	68	61
27.3986	27.7648	63	41
27.3986	27.7648	65	41
27.3986	27.7648	71	41
27.4895	27.5804	61	42
27.5804	27.857	61	58
27.7648	27.9491	63	43
27.7648	27.9491	65	43
27.7648	27.9491	71	43
27.857	27.9491	61	44
27.9491	28.3287	54	54
27.9491	28.3287	58	54
27.9491	28.2219	61	58
27.9491	28.2219	66	58
28.2219	28.3287	61	50
28.2219	28.3129	66	55
28.2219	28.3129	70	55
28.3129	28.4033	66	50
28.3129	28.4033	70	57
28.3129	28.4033	73	57
28.4942	28.5858	70	54
28.4942	28.5858	73	61
28.4942	28.5858	78	61
28.6778	28.7706	73	56
28.6778	28.7706	78	66
28.6778	28.7706	82	66
28.8639	28.9578	78	54
28.8639	28.9578	82	63
28.8639	28.9578	85	63
29.0524	29.1475	82	63
29.0524	29.2426	85	76
29.0524	29.2426	90	76
29.3853	29.8134	42	58
29.4091	29.8134	49	61
29.4329	29.8134	58	70
29.4329	29.8134	90	85
29.4329	29.8134	97	85
29.4329	29.8134	102	85
30.1939	30.6098	63	49
30.1939	30.6098	78	61
30.1939	30.6098	90	61
30.4243	30.6248	65	50
30.4243	30.6248	80	63
30.4243	30.6248	92	63
30.6248	31.0358	66	51
30.6248	31.0358	82	66
30.6248	31.0358	94	66
31.0358	31.3348	65	49
31.0358	31.3202	80	62
31.0358	31.3202	92	62
31.2231	31.4751	63	46
31.2231	31.4751	78	60
31.2231	31.4751	90	60
31.3202	31.4174	80	49
31.3202	31.4174	92	49
31.3688	31.4751	82	49
31.3688	31.4751	94	49
31.4174	31.8073	65	51
31.4174	31.8073	80	62
31.4174	31.8073	92	62
31.8073	32.1794	63	49
31.8073	32.1794	78	58
31.8073	32.1794	90	58
31.9952	32.1908	58	46
31.9952	32.1908	77	56
31.9952	32.1908	89	56
32.1908	32.6003	54	42
32.1908	32.6003	75	53
32.1908	32.6003	87	53
32.6003	33.396	51	55
32.6003	33.396	61	55
32.6003	33.396	66	57
32.8008	32.9937	77	54
32.9937	33.396	75	62
32.9937	33.396	85	58
33.396	33.8221	56	39
33.396	33.8221	63	49
33.396	33.8221	66	60
33.396	33.8221	72	60
33.6023	33.8221	80	56
33.8221	34.2118	49	53
33.8221	34.1212	56	53
33.8221	34.0306	65	57
33.8221	34.0306	77	57
34.0306	34.1801	58	35
34.0306	34.1801	61	35
34.0306	34.1801	65	35
34.1212	34.2118	56	35
34.2118	34.2543	56	49
34.3818	34.4827	56	35
34.3818	34.4827	61	35
34.3818	34.4827	65	35
34.5625	34.6077	44	49
34.7432	34.8297	56	35
34.7432	34.8297	61	35
34.7432	34.8297	65	35
34.9269	35.2481	49	51
35.091	35.2481	58	35
35.091	35.2481	61	35
35.091	35.2481	65	35
35.1816	35.2647	56	35
35.2722	35.3151	56	49
35.4437	35.5762	56	35
35.4437	35.5762	61	35
35.4437	35.5762	65	35
35.6244	35.6696	44	49
35.8051	35.9113	56	35
35.8051	35.9113	61	35
35.8051	35.9113	65	35
35.9858	37.0597	48	51
36.1665	36.5227	58	35
36.1665	36.5227	60	35
36.1665	36.5227	66	35
36.256	36.3452	56	35
36.3452	36.6112	56	51
36.5227	36.6993	58	36
36.5227	36.8747	60	36
36.5227	36.8747	66	36
36.6112	36.9672	56	36
36.6993	36.8747	58	55
36.8747	37.0597	58	38
36.8747	37.0597	60	38
36.8747	37.0597	66	38
36.9672	37.0597	56	38
37.0597	37.2386	60	58
37.2386	37.5993	58	39
37.2386	37.5993	60	39
37.2386	37.5993	66	39
37.328	37.6902	56	39
37.4174	38.1023	63	61
37.5993	37.963	58	41
37.5993	37.963	60	41
37.5993	37.963	66	41
37.6902	37.7811	56	42
37.7811	38.0548	56	58
37.963	38.1023	58	43
37.963	38.1023	60	43
37.963	38.1023	66	43
38.0548	38.1467	56	44
38.1467	38.4778	49	51
38.3154	38.4778	58	35
38.3154	38.4778	61	35
38.3154	38.4778	65	35
38.406	38.4891	56	35
38.4967	38.5395	56	49
38.6681	38.8142	56	35
38.6681	38.8142	61	35
38.6681	38.8142	65	35
38.8488	38.894	44	49
39.0295	39.1486	56	35
39.0295	39.1486	61	35
39.0295	39.1486	65	35
39.2139	39.5652	49	51
39.381	39.5652	58	35
39.381	39.5652	61	35
39.381	39.5652	65	35
39.4717	39.5623	56	35
39.5623	39.6055	56	49
39.7353	39.8726	56	35
39.7353	39.8726	61	35
39.7353	39.8726	65	35
39.9147	39.9599	44	49
40.0954	40.2227	56	35
40.0954	40.2227	61	35
40.0954	40.2227	65	35
40.2762	41.3741	51	51
40.458	40.8177	58	35
40.458	40.8177	60	35
40.458	40.8177	66	35
40.5486	40.6392	56	35
40.6392	40.9063	56	51
40.8177	40.9945	58	36
40.8177	41.1695	60	36
40.8177	41.1695	66	36
40.9063	41.2623	56	36
40.9945	41.1695	58	55
41.1695	41.3741	58	38
41.1695	41.3551	60	38
41.1695	41.3741	66	38
41.2623	41.3741	56	38
41.3551	41.537	60	58
41.537	41.9007	58	39
41.537	41.9007	60	39
41.537	41.9007	66	39
41.6279	41.9916	56	39
41.7188	42.4513	63	61
41.9007	42.2669	58	41
41.9007	42.2669	60	41
41.9007	42.2669	66	41
41.9916	42.0825	56	42
42.0825	42.3591	56	58
42.2669	42.4513	58	43
42.2669	42.4513	60	43
42.2669	42.4513	66	43
42.3591	42.4513	56	44
42.4513	42.8308	49	54
42.4513	42.8308	53	54
42.4513	42.7241	56	58
42.4513	42.7241	61	58
42.7241	42.8308	56	50
42.7241	42.815	61	55
42.7241	42.815	65	55
42.815	42.9054	61	50
42.815	42.9054	65	57
42.815	42.9054	68	57
42.9963	43.0879	65	54
42.9963	43.0879	68	61
42.9963	43.0879	73	61
43.18	43.2727	68	56
43.18	43.2727	73	66
43.18	43.2727	77	66
43.366	43.4599	73	54
43.366	43.4599	77	63
43.366	43.4599	80	63
43.5072	43.7448	61	56
43.5308	43.7448	68	56
43.5545	43.7448	73	76
43.5545	43.7448	77	63
43.5545	43.7448	80	76
43.5545	43.7448	85	76
43.935	44.3155	37	58
43.935	44.3155	49	70
43.935	44.3155	85	85
43.935	44.3155	89	85
43.935	44.3155	97	85
44.696	45.1119	71	49
44.696	45.1119	75	61
44.696	45.1119	87	61
44.9265	45.1269	73	50
44.9265	45.1269	77	63
44.9265	45.1269	89	63
45.1269	45.5379	75	51
45.1269	45.5379	78	66
45.1269	45.5379	90	66
45.5379	45.8223	77	49
45.5379	45.8369	80	62
45.5379	45.8369	92	62
45.7252	45.9772	75	46
45.7252	45.8709	78	60
45.7252	45.8709	90	60
45.8223	45.9195	77	49
45.8223	45.9195	89	49
45.8709	45.9772	78	49
45.8709	45.9772	90	49
45.9195	46.3094	73	51
45.9195	46.3094	77	62
45.9195	46.3094	89	62
46.3094	46.6815	71	49
46.3094	46.6815	75	55
46.3094	46.6815	87	55
46.4973	46.6929	73	46
46.4973	46.6929	77	52
46.4973	46.6929	89	52
46.6929	47.1025	70	42
46.6929	47.1025	73	50
46.6929	47.1025	85	50
47.1025	47.4979	51	43
47.1025	47.4979	61	43
47.1025	47.4639	67	43
47.1025	47.4639	70	52
47.1025	47.4979	76	52
47.1025	47.4639	82	52
47.3036	47.8885	63	39
47.3036	47.4979	73	54
47.3036	47.4979	85	54
47.4979	47.8885	56	44
47.4979	47.8885	68	44
47.4979	47.9002	71	56
47.4979	47.9002	75	56
47.4979	47.9002	83	56
47.8499	48.3255	49	35
47.875	48.3255	59	36
47.9002	48.3255	65	45
47.9002	48.3255	68	50
47.9002	48.3255	73	50
47.9002	48.3255	80	50
48.1057	48.3255	70	45
48.1057	48.3255	82	45
48.3255	48.7153	54	45
48.3255	48.6246	61	45
48.3255	48.534	66	52
48.3255	48.534	70	52
48.3255	48.534	78	52
48.534	48.6835	63	35
48.534	48.6835	66	35
48.534	48.6835	70	35
48.6246	48.7153	61	35
48.7153	48.7577	61	49
48.8852	48.9861	61	35
48.8852	48.9861	66	35
48.8852	48.9861	70	35
49.0659	49.1111	49	49
49.2466	49.3331	61	35
49.2466	49.3331	66	35
49.2466	49.3331	70	35
49.4303	49.7515	54	51
49.5944	49.7515	63	35
49.5944	49.7515	66	35
49.5944	49.7515	70	35
49.685	49.7681	61	35
49.7756	49.8185	61	49
49.9471	50.0796	61	35
49.9471	50.0796	66	35
49.9471	50.0796	70	35
50.1278	50.173	49	49
50.3085	50.4147	61	35
50.3085	50.4147	66	35
50.3085	50.4147	70	35
50.4893	51.6101	56	51
50.67	51.0261	63	35
50.67	51.0261	65	35
50.67	51.0261	71	35
50.7594	50.8486	61	35
50.8486	51.1146	61	51
51.0261	51.2027	63	36
51.0261	51.3781	65	36
51.0261	51.3781	71	36
51.1146	51.4706	61	36
51.2027	51.3781	63	55
51.3781	51.6101	63	38
51.3781	51.5631	65	38
51.3781	51.6101	71	38
51.4706	51.6101	61	38
51.5631	51.742	65	58
51.742	52.1027	63	39
51.742	52.1027	65	39
51.742	52.1027	71	39
51.8314	52.1936	61	39
51.9208	52.5973	68	61
52.1027	52.4664	63	41
52.1027	52.4664	65	41
52.1027	52.4664	71	41
52.1936	52.2845	61	42
52.2845	52.5583	61	58
52.4664	52.5973	63	43
52.4664	52.5973	65	43
52.4664	52.5973	71	43
52.5583	52.6501	61	44
52.6501	52.9812	54	51
52.8188	52.9812	63	35
52.8188	52.9812	66	35
52.8188	52.9812	70	35
52.9094	52.9925	61	35
53.0001	53.0429	61	49
53.1715	53.3176	61	35
53.1715	53.3176	66	35
53.1715	53.3176	70	35
53.3522	53.3974	49	49
53.533	53.652	61	35
53.533	53.652	66	35
53.533	53.652	70	35
53.7173	54.0686	54	51
53.8845	54.0686	63	35
53.8845	54.0686	66	35
53.8845	54.0686	70	35
53.9751	54.0657	61	35
54.0657	54.1089	61	49
54.2387	54.376	61	35
54.2387	54.376	66	35
54.2387	54.376	70	35
54.4182	54.4633	49	49
54.5989	54.7261	61	35
54.5989	54.7261	66	35
54.5989	54.7261	70	35
54.7796	55.9351	56	51
54.9614	55.3211	63	35
54.9614	55.3211	65	35
54.9614	55.3211	71	35
55.0521	55.1427	61	35
55.1427	55.4097	61	51
55.3211	55.4979	63	36
55.3211	55.6729	65	36
55.3211	55.6729	71	36
55.4097	55.7657	61	36
55.4979	55.6729	63	55
55.6729	55.9351	63	38
55.6729	55.8586	65	38
55.6729	55.9351	71	38
55.7657	55.9351	61	38
55.8586	56.0404	65	58
56.0404	56.4041	63	39
56.0404	56.4041	65	39
56.0404	56.4041	71	39
56.1313	56.495	61	39
56.2222	56.9547	68	61
56.4041	56.7703	63	41
56.4041	56.7703	65	41
56.4041	56.7703	71	41
56.495	56.586	61	42
56.586	56.8625	61	58
56.7703	56.9547	63	43
56.7703	56.9547	65	43
56.7703	56.9547	71	43
56.8625	56.9547	61	44
56.9547	57.3342	54	54
56.9547	57.3342	58	54
56.9547	57.2275	61	58
56.9547	57.2275	66	58
57.2275	57.3342	61	50
57.2275	57.3184	66	55
57.2275	57.3184	70	55
57.3184	57.4088	66	50
57.3184	57.4088	70	57
57.3184	57.4088	73	57
57.4998	57.5913	70	54
57.4998	57.5913	73	61
57.4998	57.5913	78	61
57.6834	57.7761	73	56
57.6834	57.7761	78	66
57.6834	57.7761	82	66
57.8695	57.9634	78	54
57.8695	57.9634	82	63
57.8695	57.9634	85	63
58.0579	58.1531	82	63
58.0579	58.2482	85	76
58.0579	58.2482	90	76
58.3909	58.8189	42	58
58.4146	58.8189	49	61
58.4384	58.8189	58	70
58.4384	58.8189	90	85
58.4384	58.8189	97	85
58.4384	58.8189	102	85
59.1994	59.2907	54	32
59.1994	59.2907	57	40
59.1994	59.2907	61	50
59.1994	59.2907	66	50
59.3819	59.4749	54	28
59.3819	59.4749	59	35
59.3819	59.4749	66	46
59.3819	59.4749	68	46
59.5679	59.94	54	36
59.5679	59.94	61	45
59.5679	59.94	66	53
59.5679	59.94	69	53
59.94	60.0315	54	32
59.94	60.0315	62	40
59.94	60.0315	66	48
59.94	60.0315	71	48
60.123	60.2185	54	28
60.123	60.2185	61	35
60.123	60.2185	66	37
60.123	60.2185	69	44
60.2185	60.2637	68	37
60.2637	60.3089	69	37
60.3089	60.6961	54	41
60.3089	60.6961	59	41
60.3089	60.6961	65	39
60.3089	60.6961	68	47
60.6961	61.0815	54	42
60.6961	61.1092	65	53
60.6961	61.1092	71	61
60.6961	61.1092	74	61
60.8859	61.1092	73	57
61.0815	61.4727	54	40
61.0815	61.4727	66	50
61.0815	61.4727	69	60
61.0815	61.4727	78	60
61.4727	61.8665	53	42
61.4727	61.8571	65	53
61.4727	61.8665	69	50
61.4727	61.8665	72	50
61.4727	61.8571	77	61
61.6625	61.8665	63	49
61.6625	61.8665	81	59
61.8665	62.2537	52	40
61.8665	62.2626	64	50
61.8665	62.2626	69	45
61.8665	62.2626	73	45
61.8665	62.2626	81	56
62.2537	62.6484	52	36
62.2537	62.6484	62	45
62.2537	62.6484	68	45
62.2537	62.6484	72	45
62.2537	62.6484	76	55
62.6484	63.0045	57	56
62.8375	63.0045	66	38
62.8375	63.0045	69	38
62.8375	63.0045	73	38
62.929	63.0205	64	38
63.0205	63.193	76	57
63.193	63.2939	64	38
63.193	63.2939	69	38
63.193	63.2939	73	38
63.3737	63.7641	52	53
63.5586	63.6494	64	38
63.5586	63.6494	69	38
63.5586	63.6494	73	38
63.5586	63.6494	76	38
63.7641	63.8553	57	32
63.7641	63.8553	64	40
63.7641	63.8553	69	45
63.7641	63.8553	73	55
63.9466	64.0396	57	28
63.9466	64.0396	65	35
63.9466	64.0396	69	41
63.9466	64.0396	74	50
64.1326	64.5046	57	36
64.1326	64.5046	67	45
64.1326	64.5046	70	47
64.1326	64.5046	76	58
64.5046	64.5961	57	32
64.5046	64.5961	69	40
64.5046	64.5961	70	48
64.5046	64.5961	77	52
64.6877	64.7832	57	28
64.6877	64.7832	67	35
64.6877	64.7832	70	37
64.6877	64.7832	76	48
64.7832	64.8285	74	46
64.8285	64.8738	76	45
64.8738	65.2611	57	31
64.8738	65.2611	65	39
64.8738	65.2611	70	44
64.8738	65.2611	74	57
65.2611	65.3566	57	36
65.2611	65.3566	64	45
65.2611	65.3566	65	54
65.2611	65.3566	72	54
65.4521	65.5506	57	31
65.4521	65.5506	62	39
65.4521	65.5506	65	50
65.4521	65.5506	70	50
65.6491	66.0403	57	35
65.6491	66.0403	61	44
65.6491	66.0403	64	55
65.6491	66.0403	69	55
66.0403	66.4168	67	45
66.0403	66.4258	70	46
66.0403	66.4168	76	57
66.2288	66.4258	62	48
66.2288	66.4258	77	61
66.4258	66.8192	61	53
66.4258	66.8104	70	54
66.4258	66.8192	76	60
66.4258	66.8192	79	66
66.8104	67.2105	57	49
66.8104	67.2105	67	49
66.8104	67.0919	70	49
66.8104	67.2105	73	60
67.0028	67.2105	69	53
67.2105	67.5679	62	70
67.4009	67.5679	70	45
67.4009	67.5679	74	45
67.4009	67.5679	77	45
67.4924	67.584	69	45
67.584	67.758	81	69
67.758	67.8606	69	45
67.758	67.8606	74	45
67.758	67.8606	77	45
67.9417	68.1302	69	66
68.1302	68.3381	69	45
68.1302	68.2233	74	45
68.1302	68.2233	77	45
68.1302	68.2233	81	45
68.3381	68.4293	65	40
68.3381	68.4293	69	45
68.3381	68.4293	71	45
68.3381	68.4293	74	55
68.5205	68.6136	64	35
68.5205	68.6136	69	41
68.5205	68.6136	71	41
68.5205	68.6136	76	50
68.7066	69.0786	62	45
68.7066	69.0786	69	47
68.7066	69.0786	71	47
68.7066	69.0786	77	58
69.0786	69.1701	64	40
69.0786	69.1701	69	48
69.0786	69.1701	71	48
69.0786	69.1701	76	52
69.2616	69.3572	65	35
69.2616	69.3572	69	37
69.2616	69.3572	71	37
69.2616	69.3572	74	48
69.3572	69.4025	72	46
69.4025	69.4478	74	45
69.4478	69.8351	64	39
69.4478	69.8351	65	44
69.4478	69.8351	69	44
69.4478	69.8351	72	57
69.8351	70.2883	62	45
69.8351	70.0261	65	54
69.8351	70.0261	69	54
69.8351	70.2883	71	54
70.0261	70.2883	60	39
70.0261	70.2231	65	50
70.0261	70.2231	69	50
70.0261	70.2883	72	50
70.2231	70.6143	59	44
70.2231	70.6143	65	55
70.2231	70.6143	69	55
70.2231	70.6143	74	55
70.6143	71.0061	53	45
70.6143	71.0061	59	45
70.6143	71.0061	63	46
70.6143	70.9968	69	57
70.8028	71.0061	71	61
71.0061	71.3908	63	54
71.0061	71.3997	69	60
71.0061	71.3997	72	66
71.0061	71.3997	77	59
71.3908	71.7949	57	41
71.3908	71.7949	59	41
71.3908	71.7949	63	49
71.3908	71.7949	66	49
71.3908	71.7949	71	60
71.3908	71.7949	78	55
71.5864	71.7949	35	60
71.5864	71.7949	47	60
71.7949	72.1602	28	70
71.7949	72.1602	40	70
71.9899	72.1602	61	45
71.9899	72.1602	64	45
71.9899	72.1602	68	45
72.0832	72.1765	59	45
72.1765	72.3517	71	70
72.3517	72.4539	59	45
72.3517	72.4539	64	45
72.3517	72.4539	68	45
72.5347	73.3396	47	66
72.722	72.8154	59	45
72.722	72.8154	64	45
72.722	72.8154	68	45
72.722	72.8154	71	45
72.931	73.3396	45	66
72.931	73.3396	52	66
73.126	73.3396	64	63
73.126	73.3396	74	63
73.126	73.3396	76	63
73.3151	73.6616	62	58
73.3151	73.6616	66	67
73.3151	73.6616	78	67
73.4987	73.6866	68	63
73.4987	73.6866	80	63
73.6866	74.0675	40	59
73.6866	74.0675	68	68
73.6866	74.0675	74	68
73.6866	74.0675	78	68
73.8745	74.0675	72	63
73.8745	74.0675	76	63
74.0675	74.3694	45	56
74.0675	74.3694	52	56
74.0675	74.3694	61	56
74.0675	74.3694	64	56
74.0675	74.3694	69	56
74.0675	74.3694	76	67
74.2566	74.3694	63	51
74.2566	74.3694	68	53
74.2566	74.3694	72	63
74.4396	74.5308	64	55
74.4396	74.5308	69	56
74.4396	74.5308	73	67
74.6224	74.7142	69	58
74.6224	74.7142	73	59
74.6224	74.7142	76	70
74.8063	74.8987	73	62
74.8063	74.8987	76	62
74.8063	74.8987	81	74
74.9914	75.0844	76	65
74.9914	75.0844	81	66
74.9914	75.0844	85	78
75.1777	75.8954	66	69
75.1777	75.7567	73	69
75.1777	75.8954	81	68
75.1777	75.8954	88	81
75.3681	75.5624	76	55
75.3681	75.8954	85	65
75.5624	75.8954	69	64
75.5624	75.8954	76	74
75.5624	75.9537	78	60
75.7567	75.9537	64	54
75.7567	75.9537	73	64
75.9537	76.3345	59	59
75.9537	76.3345	63	63
75.9537	76.3345	69	63
75.9537	76.3345	80	77
76.1441	76.3345	47	53
76.1441	76.3345	71	70
76.3345	76.977	52	63
76.3345	76.977	64	64
76.3345	76.977	68	76
76.3345	76.7244	76	76
76.7244	76.977	40	69
76.7244	76.977	76	80
76.7244	76.977	80	81
76.7244	76.977	88	97
77.5042	77.8367	48	51
77.6714	77.8367	57	35
77.6714	77.8367	60	35
77.6714	77.8367	64	35
77.762	77.845	55	35
77.8526	77.8952	55	49
78.023	78.1239	55	35
78.023	78.1239	60	35
78.023	78.1239	64	35
78.2037	78.2489	43	49
78.3844	78.4709	55	35
78.3844	78.4709	60	35
78.3844	78.4709	64	35
78.5682	78.8893	48	51
78.7322	78.8893	57	35
78.7322	78.8893	60	35
78.7322	78.8893	64	35
78.8229	78.9059	55	35
78.9135	78.9561	55	49
79.0839	79.2164	55	35
79.0839	79.2164	60	35
79.0839	79.2164	64	35
79.2646	79.3098	43	49
79.4453	79.5515	55	35
79.4453	79.5515	60	35
79.4453	79.5515	64	35
79.626	80.7752	50	51
79.8067	80.1629	57	35
79.8067	80.1629	59	35
79.8067	80.1629	65	35
79.8962	79.9854	55	35
79.9854	80.2514	55	51
80.1629	80.3395	57	36
80.1629	80.5149	59	36
80.1629	80.5149	65	36
80.2514	80.6074	55	36
80.3395	80.5149	57	55
80.5149	80.7752	57	38
80.5149	80.6999	59	38
80.5149	80.7752	65	38
80.6074	80.7752	55	38
80.6999	80.8788	59	58
80.8788	81.2395	57	39
80.8788	81.2395	59	39
80.8788	81.2395	65	39
80.9682	81.3304	55	39
81.0576	81.705	62	59
81.2395	81.6032	57	41
81.2395	81.6032	59	41
81.2395	81.6032	65	41
81.3304	81.4213	55	42
81.4213	81.695	55	58
81.6032	81.705	57	43
81.6032	81.705	59	43
81.6032	81.705	65	43
81.695	81.7869	55	44
81.7869	82.1194	48	43
81.954	82.1194	57	29
81.954	82.1194	60	29
81.954	82.1194	64	29
82.0447	82.1277	55	29
82.1353	82.1779	55	41
82.3057	82.4066	55	29
82.3057	82.4066	60	29
82.3057	82.4066	64	29
82.4864	82.5316	43	41
82.6671	82.7536	55	29
82.6671	82.7536	60	29
82.6671	82.7536	64	29
82.8509	83.172	48	43
83.0149	83.172	57	29
83.0149	83.172	60	29
83.0149	83.172	64	29
83.1056	83.1886	55	29
83.1962	83.2388	55	41
83.3666	83.4991	55	29
83.3666	83.4991	60	29
83.3666	83.4991	64	29
83.5473	83.5925	43	41
83.728	83.8342	55	29
83.728	83.8342	60	29
83.728	83.8342	64	29
83.9087	85.0154	50	43
84.0894	84.4456	57	29
84.0894	84.4456	59	29
84.0894	84.4456	65	29
84.1789	84.2681	55	29
84.2681	84.5341	55	43
84.4456	84.6222	57	30
84.4456	84.7976	59	30
84.4456	84.7976	65	30
84.5341	84.8901	55	30
84.6222	84.7976	57	46
84.7976	85.0154	57	32
84.7976	84.9826	59	32
84.7976	85.0154	65	32
84.8901	85.0154	55	32
84.9826	85.1615	59	49
85.1615	85.5222	57	33
85.1615	85.5222	59	33
85.1615	85.5222	65	33
85.2509	85.6131	55	33
85.3403	85.9969	62	50
85.5222	85.8859	57	34
85.5222	85.8859	59	34
85.5222	85.8859	65	34
85.6131	85.704	55	35
85.704	85.9777	55	49
85.8859	85.9969	57	36
85.8859	85.9969	59	36
85.8859	85.9969	65	36
85.9777	86.0696	55	37
86.0696	86.1617	64	44
86.0696	86.1617	72	54
86.0696	86.1617	84	54
86.2539	86.3421	67	45
86.2539	86.3421	74	56
86.2539	86.3421	86	56
86.4303	86.765	72	45
86.4303	86.7856	76	59
86.4303	86.7856	88	59
86.6093	86.765	71	43
86.7856	86.8737	70	44
86.7856	86.8737	74	55
86.7856	86.8737	86	55
86.9618	87.0522	69	41
86.9618	87.0522	72	51
86.9618	87.0522	84	51
87.0522	87.1425	74	44
87.0522	87.1425	86	44
87.0974	87.1425	76	44
87.0974	87.1425	88	44
87.1425	87.456	68	45
87.1425	87.4978	74	55
87.1425	87.4978	86	55
87.3188	87.456	66	42
87.4978	87.5859	67	44
87.4978	87.5859	72	52
87.4978	87.5859	84	52
87.674	87.7652	64	41
87.674	87.7652	67	50
87.674	87.7652	79	50
87.8565	88.2738	60	37
87.8565	88.2738	64	56
87.8565	88.2738	76	56
88.0344	88.2738	58	37
88.0344	88.2738	68	45
88.0344	88.2738	74	45
88.2151	88.5542	57	34
88.2151	88.5542	70	45
88.2151	88.5542	73	45
88.3913	88.5715	66	36
88.3913	88.5715	72	47
88.3913	88.5715	75	47
88.5715	88.9035	67	37
88.5715	88.9035	73	49
88.5715	88.7488	76	49
88.7488	88.929	62	39
88.7488	88.929	76	51
88.7488	88.929	82	51
88.929	89.2889	61	41
88.929	89.1052	79	53
88.929	89.2889	81	53
89.1052	89.2889	57	43
89.1052	89.2889	79	54
89.1052	89.2889	88	54
89.2889	90.267	62	45
89.2889	89.6747	77	59
89.2889	89.6747	86	59
89.4702	89.6747	72	42
89.4702	89.6747	75	54
89.4702	89.6747	81	54
89.6492	90.056	71	44
89.6492	90.056	74	57
89.6492	90.056	80	57
89.8299	90.056	70	45
89.8299	90.056	76	51
89.8299	90.056	85	51
90.0124	90.3827	69	47
90.0124	90.3827	78	60
90.0124	90.3827	86	60
90.1966	90.3827	57	37
90.3827	90.4748	65	48
90.3827	90.4748	74	55
90.3827	90.4748	86	64
90.567	90.6552	69	49
90.567	90.6552	76	56
90.567	90.6552	88	67
90.7434	91.0808	74	49
90.7434	91.1015	77	59
90.7434	91.1015	89	70
90.9241	91.0808	73	47
91.1015	91.1896	72	48
91.1015	91.1896	76	56
91.1015	91.1896	88	66
91.2777	91.3681	71	45
91.2777	91.3681	74	51
91.2777	91.3681	86	61
91.3681	91.4584	76	44
91.3681	91.4584	88	52
91.4132	91.4709	77	44
91.4132	91.4709	89	52
91.4584	91.7719	70	49
91.4584	91.8137	76	56
91.4584	91.8137	88	66
91.6347	91.7719	68	46
91.8137	91.9021	69	48
91.8137	91.9021	74	52
91.8137	91.9021	86	62
91.9905	92.0817	65	45
91.9905	92.0817	69	49
91.9905	92.0817	81	58
92.1729	92.5327	62	40
92.1729	92.5327	65	46
92.1729	92.5327	77	55
92.3514	92.5327	60	40
92.3514	92.5327	69	49
92.3514	92.5327	76	58
92.5327	93.4278	59	34
92.5327	92.8734	69	45
92.5327	92.8734	75	45
92.7095	92.8908	67	36
92.7095	92.8908	72	47
92.7095	92.8908	76	47
92.8908	93.2254	69	37
92.8908	93.2254	75	49
92.8908	93.2254	78	49
93.0698	93.2511	64	39
93.0698	93.2511	79	51
93.0698	93.2511	81	51
93.2511	93.6121	63	41
93.2511	93.6121	78	53
93.2511	93.6121	84	53
93.4278	93.6121	59	43
93.4278	93.6121	81	54
93.4278	93.6121	83	54
93.6121	94.5894	64	45
93.6121	93.9978	79	59
93.6121	93.9978	91	59
93.7939	93.9978	69	42
93.7939	93.9978	75	54
93.7939	93.9978	84	54
93.9724	94.3785	67	44
93.9724	94.3785	76	57
93.9724	94.3785	83	57
94.1527	94.3785	72	45
94.1527	94.3785	81	51
94.1527	94.3785	87	51
94.3348	94.7052	71	47
94.3348	94.7052	79	60
94.3348	94.7052	88	60
94.5191	94.7052	59	37
94.7052	94.7974	67	48
94.7052	94.7974	76	55
94.7052	94.7974	88	64
94.8895	94.9777	71	49
94.8895	94.9777	78	56
94.8895	94.9777	90	67
95.0659	95.4063	76	49
95.0659	95.4273	79	59
95.0659	95.4273	91	70
95.2466	95.4063	75	47
95.4273	95.5155	74	48
95.4273	95.5155	78	56
95.4273	95.5155	90	66
95.6036	95.6939	73	45
95.6036	95.6939	76	51
95.6036	95.6939	88	61
95.6939	95.7843	78	44
95.6939	95.7843	90	52
95.7391	95.8012	79	44
95.7391	95.8012	91	52
95.7843	96.0978	72	49
95.7843	96.1395	78	56
95.7843	96.1395	90	66
95.9605	96.0978	70	46
96.1395	96.229	71	48
96.1395	96.229	76	52
96.1395	96.229	88	62
96.3186	96.4098	67	45
96.3186	96.4098	71	49
96.3186	96.4098	83	58
96.501	96.7835	64	40
96.501	96.8671	67	46
96.501	96.8671	79	55
96.6829	96.8671	59	40
96.8671	96.9593	70	52
96.8671	96.9593	79	59
96.8671	96.9593	91	70
97.0514	97.1396	74	53
97.0514	97.1396	81	61
97.0514	97.1396	93	73
97.2278	97.5682	79	53
97.2278	97.5892	82	64
97.2278	97.5892	94	77
97.4085	97.5682	78	51
97.5892	97.6774	77	52
97.5892	97.6774	81	61
97.5892	97.6774	93	72
97.7655	97.8558	76	49
97.7655	97.8558	79	56
97.7655	97.8558	91	67
97.8558	97.9462	81	48
97.8558	97.9462	93	57
97.901	97.9543	82	48
97.901	97.9543	94	57
97.9462	98.2597	75	53
97.9462	98.3014	81	61
97.9462	98.3014	93	72
98.1224	98.2597	73	50
98.3014	98.3909	74	52
98.3014	98.3909	79	57
98.3014	98.3909	91	68
98.4805	98.5717	70	49
98.4805	98.5717	74	53
98.4805	98.5717	86	63
98.6629	98.983	67	44
98.6629	99.029	70	50
98.6629	99.029	82	60
98.8448	99.029	62	44
99.029	99.4244	79	57
99.029	99.3897	82	64
99.029	99.4244	94	77
99.2133	99.4244	81	58
99.2133	99.4244	84	67
99.2133	99.4244	96	80
99.3897	99.7512	82	58
99.3897	99.7512	85	70
99.3897	99.7512	97	84
99.5705	99.7592	84	56
99.5705	99.7592	87	62
99.5705	99.7592	99	75
99.7512	100.108	82	57
99.7512	100.108	85	67
99.7512	100.108	97	79
99.9274	100.108	81	53
99.9274	100.108	84	61
99.9274	100.108	96	73
100.108	100.523	80	58
100.108	100.523	83	67
100.108	100.523	95	79
100.284	100.463	79	55
100.284	100.523	82	59
100.284	100.523	94	70
100.463	100.553	76	57
100.463	100.553	79	62
100.463	100.553	91	74
100.642	100.825	73	53
100.642	100.868	76	58
100.642	100.868	88	69
100.825	101.007	70	48
100.825	101.191	73	55
100.825	101.191	85	66
101.007	101.191	67	48
101.007	101.191	70	55
101.007	101.191	82	55
101.191	101.367	73	58
101.191	101.606	76	67
101.191	101.606	88	75
101.367	101.546	70	55
101.367	101.606	73	59
101.367	101.606	85	67
101.546	101.636	67	54
101.546	101.636	70	58
101.546	101.636	82	70
101.725	101.908	64	53
101.725	101.951	67	58
101.725	101.951	79	69
101.908	102.09	61	48
101.908	102.274	64	55
101.908	102.274	76	66
102.09	102.274	58	48
102.09	102.274	61	55
102.09	102.274	73	55
102.274	102.45	67	52
102.274	102.693	70	60
102.274	102.693	82	71
102.45	102.633	64	49
102.45	102.693	67	53
102.45	102.693	79	63
102.633	102.723	61	48
102.633	102.723	64	52
102.633	102.723	76	63
102.814	102.999	58	47
102.814	102.999	61	52
102.814	103.043	73	62
102.999	103.329	55	43
102.999	103.329	58	49
102.999	103.186	61	49
102.999	103.329	70	59
103.186	103.377	52	43
103.186	103.377	61	49
103.186	103.377	67	49
103.186	103.377	73	49
103.377	103.737	35	44
103.377	103.737	59	45
103.377	103.737	71	54
103.564	103.746	42	45
103.564	103.746	61	47
103.564	103.746	73	56
103.746	104.083	43	45
103.746	104.104	63	50
103.746	104.104	71	59
103.746	104.104	75	59
103.925	104.104	42	43
104.104	104.465	47	44
104.104	104.465	61	46
104.104	104.465	73	55
104.282	104.465	51	41
104.282	104.465	59	43
104.282	104.465	71	51
104.465	104.779	52	45
104.465	104.82	61	46
104.465	104.82	67	55
104.465	104.82	73	55
104.641	104.82	54	39
104.82	105.179	55	44
104.82	105.213	59	44
104.82	105.213	71	52
104.997	105.213	52	41
104.997	105.179	58	42
104.997	105.213	70	50
105.179	105.545	55	45
105.179	105.545	58	37
105.179	105.545	67	53
105.359	105.545	59	37
105.545	105.898	35	46
105.545	105.898	59	47
105.545	105.898	71	56
105.729	105.906	42	47
105.729	105.906	61	49
105.729	105.906	73	58
105.906	106.241	43	47
105.906	106.262	63	52
105.906	106.262	71	61
105.906	106.262	75	61
106.084	106.262	42	45
106.262	106.623	47	46
106.262	106.623	61	48
106.262	106.623	73	57
106.44	106.623	51	43
106.44	106.623	59	45
106.44	106.623	71	53
106.623	106.937	52	47
106.623	106.979	61	48
106.623	106.979	67	57
106.623	106.979	73	57
106.8	106.979	54	38
106.979	107.337	55	47
106.979	107.372	59	47
106.979	107.372	71	55
107.155	107.372	52	45
107.155	107.337	58	46
107.155	107.372	70	54
107.337	107.703	55	49
107.337	107.703	58	40
107.337	107.703	67	58
107.517	107.703	59	40
107.703	108.123	35	54
107.703	108.123	59	56
107.703	108.063	71	67
107.887	108.123	42	56
107.887	108.123	61	58
107.887	108.123	73	70
108.063	108.399	43	56
108.063	108.42	63	63
108.063	108.42	71	65
108.063	108.42	75	73
108.241	108.42	42	53
108.42	108.781	47	54
108.42	108.781	61	57
108.42	108.781	73	69
108.598	108.781	51	51
108.598	108.781	59	53
108.598	108.781	71	64
108.781	109.184	48	56
108.781	109.184	63	58
108.781	109.142	69	58
108.781	109.184	75	70
108.966	109.184	56	58
108.966	109.184	65	60
108.966	109.184	77	73
109.142	109.477	57	58
109.142	109.498	66	66
109.142	109.86	69	68
109.142	109.498	78	76
109.32	109.498	60	55
109.498	109.677	63	56
109.498	109.86	65	59
109.498	109.86	77	72
109.677	109.86	63	55
109.677	109.86	66	53
109.677	109.86	75	67
109.86	110.239	49	55
109.86	110.222	61	64
109.86	110.222	66	64
109.86	110.222	70	64
109.86	110.239	73	75
110.043	110.239	63	59
110.043	110.239	75	71
110.222	110.609	58	51
110.222	110.609	61	51
110.222	110.609	65	66
110.222	110.402	66	51
110.222	110.609	70	66
110.222	110.609	77	77
110.402	110.609	66	61
110.402	110.609	78	74
110.587	110.954	49	54
110.587	110.954	68	68
110.587	110.954	80	79
110.769	110.954	70	64
110.769	110.954	82	76
110.954	111.385	37	61
110.954	111.324	71	71
110.954	111.324	77	84
110.954	111.324	83	84
111.138	111.385	72	66
111.138	111.385	84	78
111.324	111.751	61	40
111.324	111.751	65	42
111.324	111.751	71	47
111.324	111.751	73	72
111.324	111.751	77	85
111.324	111.701	83	85
111.324	111.751	85	85
111.512	111.751	74	69
111.512	111.751	86	81
111.701	112.087	37	61
111.701	112.087	49	61
111.701	112.032	75	75
111.701	112.032	83	89
111.701	112.032	87	89
111.893	112.032	77	71
111.893	112.032	89	85
112.087	112.29	42	70
112.087	112.29	78	61
112.087	112.29	85	61
112.087	112.29	90	86
112.282	112.65	49	63
112.282	112.65	58	75
112.282	112.832	80	63
112.282	112.832	92	89
112.469	112.873	82	68
112.469	112.873	85	79
112.469	112.873	94	94
112.65	112.873	49	57
112.65	112.873	58	68
112.832	113.193	42	70
112.832	113.193	80	62
112.832	113.102	92	88
113.01	113.193	49	55
113.01	113.193	58	65
113.01	113.193	78	57
113.01	113.193	90	81
113.102	113.193	92	75
113.147	113.193	94	75
113.193	113.425	42	72
113.193	113.946	80	62
113.193	113.911	86	88
113.193	113.946	92	88
113.374	113.729	50	54
113.374	113.729	59	63
113.553	113.911	78	59
113.553	113.946	90	83
113.729	113.946	50	55
113.729	113.946	59	65
113.729	113.946	76	56
113.729	113.946	88	80
113.911	114.278	42	59
113.911	114.278	74	61
113.911	114.278	78	61
113.911	114.278	86	84
114.091	114.278	50	50
114.091	114.278	59	59
114.278	114.472	42	63
114.278	114.472	73	64
114.278	114.472	78	64
114.278	114.472	82	64
114.278	114.472	85	76
114.461	114.827	49	56
114.461	114.827	58	67
114.461	114.987	75	66
114.461	114.987	87	78
114.646	115.008	77	68
114.646	115.008	82	68
114.646	115.008	89	80
114.827	115.008	49	51
114.827	115.008	58	61
115.008	115.37	42	63
115.008	115.37	75	64
115.008	115.37	87	76
115.187	115.37	49	49
115.187	115.37	58	58
115.187	115.37	73	59
115.187	115.37	85	70
115.37	115.571	42	64
115.37	116.454	71	55
115.37	116.454	74	55
115.37	116.454	83	65
115.55	115.906	53	48
115.55	115.906	62	56
115.906	116.268	53	46
115.906	116.268	62	55
116.088	116.388	42	50
116.268	116.454	53	42
116.268	116.454	62	50
116.454	116.653	42	70
116.454	116.653	78	61
116.454	116.653	85	61
116.454	116.653	90	86
116.645	117.01	49	63
116.645	117.01	58	75
116.645	117.191	80	63
116.645	117.191	92	89
116.829	117.233	82	68
116.829	117.233	85	79
116.829	117.233	94	94
117.01	117.233	49	57
117.01	117.233	58	68
117.191	117.553	42	70
117.191	117.553	80	62
117.191	117.461	92	88
117.37	117.553	49	55
117.37	117.553	58	65
117.37	117.553	78	57
117.37	117.553	90	81
117.461	117.553	92	75
117.507	117.553	94	75
117.553	117.785	42	72
117.553	118.306	80	62
117.553	118.271	86	88
117.553	118.306	92	88
117.734	118.089	50	54
117.734	118.089	59	63
117.913	118.271	78	59
117.913	118.306	90	83
118.089	118.306	50	55
118.089	118.306	59	65
118.089	118.306	76	56
118.089	118.306	88	80
118.271	118.638	42	59
118.271	118.638	74	61
118.271	118.638	78	61
118.271	118.638	86	84
118.451	118.638	50	50
118.451	118.638	59	59
118.638	118.832	42	63
118.638	118.832	73	64
118.638	118.832	78	64
118.638	118.832	82	64
118.638	118.832	85	76
118.821	119.187	49	56
118.821	119.187	58	67
118.821	119.347	75	66
118.821	119.347	87	78
119.005	119.368	77	68
119.005	119.368	82	68
119.005	119.368	89	80
119.187	119.368	49	51
119.187	119.368	58	61
119.368	119.729	42	63
119.368	119.729	75	64
119.368	119.729	87	76
119.546	119.729	49	49
119.546	119.729	58	58
119.546	119.729	73	59
119.546	119.729	85	70
119.729	119.931	42	64
119.729	120.814	71	55
119.729	120.814	74	55
119.729	120.814	83	65
119.91	120.265	53	48
119.91	120.265	62	56
120.265	120.627	53	46
120.265	120.627	62	55
120.448	120.748	42	50
120.627	120.814	53	42
120.627	120.814	62	50
120.814	121.147	54	51
120.981	121.147	63	35
120.981	121.147	66	35
120.981	121.147	70	35
121.072	121.155	61	35
121.162	121.205	61	49
121.333	121.434	61	35
121.333	121.434	66	35
121.333	121.434	70	35
121.514	121.559	49	49
121.694	121.781	61	35
121.694	121.781	66	35
121.694	121.781	70	35
121.878	122.068	56	48
122.057	122.423	61	44
122.057	122.423	65	44
122.057	122.423	71	53
122.057	122.583	73	44
122.057	122.423	77	47
122.057	122.583	83	53
122.057	122.583	85	60
122.241	122.583	75	48
122.241	122.583	87	68
122.423	122.604	61	32
122.423	122.604	65	32
122.423	122.604	71	45
122.423	122.604	77	54
122.423	122.604	89	64
122.604	122.911	49	53
122.604	122.911	75	57
122.604	122.911	87	68
122.782	122.97	61	31
122.782	122.97	65	31
122.782	122.97	71	43
122.782	122.97	73	55
122.782	122.97	85	65
122.97	123.303	54	51
123.137	123.303	63	35
123.137	123.303	66	35
123.137	123.303	70	35
123.228	123.319	61	35
123.319	123.361	61	49
123.489	123.59	61	35
123.489	123.59	66	35
123.489	123.59	70	35
123.67	123.715	49	49
123.85	123.938	61	35
123.85	123.938	66	35
123.85	123.938	70	35
124.037	124.225	56	48
124.214	124.574	61	44
124.214	124.574	65	44
124.214	124.574	71	53
124.214	124.732	73	44
124.214	124.574	77	46
124.214	124.732	83	49
124.214	124.732	85	60
124.395	124.732	75	48
124.395	124.732	87	68
124.574	124.753	61	32
124.574	124.753	65	32
124.574	124.753	71	45
124.574	124.753	77	54
124.574	124.753	89	64
124.753	125.019	49	53
124.753	125.019	75	57
124.753	125.019	87	68
124.932	125.115	61	31
124.932	125.115	65	31
124.932	125.115	71	43
124.932	125.115	73	55
124.932	125.115	85	65
125.115	125.447	54	51
125.282	125.447	63	35
125.282	125.447	66	35
125.282	125.447	70	35
125.373	125.456	61	35
125.463	125.506	61	49
125.634	125.735	61	35
125.634	125.735	66	35
125.634	125.735	70	35
125.814	125.86	49	49
125.995	126.083	61	35
125.995	126.083	66	35
125.995	126.083	70	35
126.182	126.952	42	58
126.373	126.952	62	61
126.373	126.952	69	61
126.373	126.922	74	73
126.56	126.952	50	52
126.56	126.952	60	52
126.56	126.952	64	66
126.56	126.952	76	79
126.74	126.952	66	62
126.74	126.952	78	74
126.922	127.286	38	52
126.922	127.286	67	66
126.922	127.286	74	66
126.922	127.286	79	79
127.102	127.286	69	61
127.102	127.286	81	73
127.286	128.019	43	59
127.286	128.074	70	66
127.286	127.648	74	66
127.286	128.074	82	79
127.465	128.074	71	67
127.465	128.019	83	80
127.648	128.074	50	55
127.648	128.074	59	55
127.648	128.074	74	71
127.648	128.074	86	83
127.832	128.074	79	71
127.832	128.074	91	83
128.019	128.401	43	55
128.019	128.328	83	71
128.019	128.328	95	84
128.209	128.328	86	73
128.209	128.328	98	86
128.401	129.562	49	50
128.599	128.647	53	38
128.599	128.694	59	50
128.599	128.694	61	50
128.79	128.837	54	45
128.79	128.885	59	54
128.79	128.885	63	54
128.98	129.029	56	39
128.98	129.078	59	50
128.98	129.078	65	50
129.078	129.127	63	45
129.127	129.176	65	46
129.176	129.224	54	44
129.176	129.272	59	54
129.176	129.272	63	54
129.367	129.416	53	40
129.367	129.465	59	50
129.367	129.465	61	50
129.562	129.912	54	51
129.746	129.912	63	35
129.746	129.912	66	35
129.746	129.912	70	35
129.837	129.92	61	35
129.928	129.97	61	49
130.098	130.199	61	35
130.098	130.199	66	35
130.098	130.199	70	35
130.279	130.324	49	49
130.459	130.546	61	35
130.459	130.546	66	35
130.459	130.546	70	35
130.643	130.831	56	48
130.82	131.181	61	44
130.82	131.181	65	44
130.82	131.181	71	53
130.82	131.339	73	44
130.82	131.181	77	47
130.82	131.339	83	53
130.82	131.339	85	60
131.002	131.339	75	48
131.002	131.339	87	68
131.181	131.36	61	32
131.181	131.36	65	32
131.181	131.36	71	45
131.181	131.36	77	54
131.181	131.36	89	64
131.36	131.667	49	53
131.36	131.667	75	57
131.36	131.667	87	68
131.538	131.726	61	31
131.538	131.726	65	31
131.538	131.726	71	43
131.538	131.726	73	55
131.538	131.726	85	65
131.726	132.059	54	51
131.894	132.059	63	35
131.894	132.059	66	35
131.894	132.059	70	35
131.984	132.067	61	35
132.075	132.117	61	49
132.245	132.346	61	35
132.245	132.346	66	35
132.245	132.346	70	35
132.426	132.471	49	49
132.607	132.694	61	35
132.607	132.694	66	35
132.607	132.694	70	35
132.793	132.982	56	48
132.972	133.334	61	44
132.972	133.334	65	44
132.972	133.334	71	53
132.972	133.493	73	44
132.972	133.334	77	46
132.972	133.493	83	49
132.972	133.493	85	60
133.155	133.493	75	48
133.155	133.493	87	68
133.334	133.514	61	32
133.334	133.514	65	32
133.334	133.514	71	45
133.334	133.514	77	54
133.334	133.514	89	64
133.514	133.779	49	53
133.514	133.779	75	57
133.514	133.779	87	68
133.692	133.875	61	31
133.692	133.875	65	31
133.692	133.875	71	43
133.692	133.875	73	55
133.692	133.875	85	65
133.875	134.208	54	51
134.042	134.208	63	35
134.042	134.208	66	35
134.042	134.208	70	35
134.133	134.224	61	35
134.224	134.266	61	49
134.394	134.495	61	35
134.394	134.495	66	35
134.394	134.495	70	35
134.575	134.62	49	49
134.755	134.843	61	35
134.755	134.843	66	35
134.755	134.843	70	35
134.942	135.712	42	58
135.134	135.712	62	61
135.134	135.712	69	61
135.134	135.682	74	73
135.32	135.712	50	52
135.32	135.712	60	52
135.32	135.712	64	66
135.32	135.712	76	79
135.5	135.712	66	62
135.5	135.712	78	74
135.682	136.047	38	52
135.682	136.047	67	66
135.682	136.047	74	66
135.682	136.047	79	79
135.863	136.047	69	61
135.863	136.047	81	73
136.047	136.78	43	59
136.047	136.834	70	66
136.047	136.408	74	66
136.047	136.834	82	79
136.226	136.834	71	61
136.226	136.78	83	77
136.408	136.834	50	55
136.408	136.834	59	55
136.408	136.834	74	71
136.408	136.834	86	83
136.593	136.834	79	71
136.593	136.834	91	83
136.78	137.161	43	55
136.78	137.088	83	71
136.78	137.088	95	84
136.969	137.088	86	73
136.969	137.088	98	86
137.161	138.323	49	50
137.359	137.407	53	38
137.359	137.455	59	50
137.359	137.455	61	50
137.55	137.597	54	45
137.55	137.645	59	54
137.55	137.645	63	54
137.74	137.789	56	39
137.74	137.838	59	50
137.74	137.838	65	50
137.838	137.887	63	45
137.887	137.937	65	46
137.937	137.984	54	44
137.937	138.032	59	54
137.937	138.032	63	54
138.128	138.176	53	40
138.128	138.225	59	50
138.128	138.225	61	50
138.323	138.522	42	61
138.323	138.522	49	61
138.323	138.498	58	76
138.323	138.498	66	79
138.522	138.889	82	48
138.522	138.889	85	48
138.522	138.889	90	57
138.612	138.979	78	57
138.702	139.069	80	69
138.889	139.255	82	48
138.889	139.255	85	48
138.889	139.255	90	57
138.979	139.346	78	57
139.069	139.438	80	69
139.255	139.624	82	48
139.255	139.624	85	48
139.255	139.624	90	57
139.346	139.714	78	57
139.438	139.804	80	69
139.624	139.99	82	48
139.624	139.99	85	48
139.624	139.99	90	57
139.714	140.08	78	57
139.804	140.17	80	69
139.99	140.362	82	48
139.99	140.362	85	48
139.99	140.362	90	57
140.08	140.362	78	57
140.17	140.553	80	69
140.362	140.553	78	54
140.362	140.553	82	54
140.362	140.553	85	54
140.362	140.553	90	64
140.553	140.745	42	62
140.553	140.745	50	73
140.553	140.745	54	73
140.553	140.722	81	77
140.553	140.722	84	77
140.553	140.722	93	91
140.745	141.112	66	43
140.745	141.112	69	43
140.745	141.112	74	51
140.835	141.202	62	51
140.926	141.292	64	64
141.112	141.478	66	43
141.112	141.478	69	43
141.112	141.478	74	51
141.202	141.569	62	51
141.292	141.659	64	64
141.478	141.845	66	43
141.478	141.845	69	43
141.478	141.845	74	51
141.569	141.936	62	51
141.659	142.026	64	64
141.845	142.212	66	43
141.845	142.212	69	43
141.845	142.212	74	51
141.936	142.303	62	51
142.026	142.393	64	64
142.212	142.586	66	43
142.212	142.586	69	43
142.212	142.586	74	51
142.303	142.586	62	51
142.393	142.778	64	64
142.586	142.778	62	48
142.586	142.778	66	48
142.586	142.778	69	48
142.586	142.778	74	57
142.778	142.979	42	61
142.778	142.979	49	61
142.778	142.979	54	73
142.778	142.955	66	76
142.778	142.955	70	76
142.778	142.955	73	76
142.778	142.955	78	91
142.979	143.344	82	48
142.979	143.344	85	48
142.979	143.344	90	57
143.069	143.435	78	57
143.159	143.526	80	68
143.344	143.711	82	48
143.344	143.711	85	48
143.344	143.711	90	57
143.435	143.802	78	57
143.526	143.893	80	68
143.711	144.08	82	48
143.711	144.08	85	48
143.711	144.08	90	57
143.802	144.171	78	57
143.893	144.262	80	68
144.08	144.448	82	48
144.08	144.448	85	48
144.08	144.448	90	57
144.171	144.541	78	57
144.262	144.634	80	68
144.448	144.826	82	48
144.448	144.826	85	48
144.448	144.826	90	57
144.541	144.826	78	57
144.634	145.018	80	68
144.826	145.018	78	54
144.826	145.018	82	54
144.826	145.018	85	54
144.826	145.018	90	64
145.018	145.21	39	61
145.018	145.21	46	61
145.018	145.21	51	73
145.018	145.187	82	76
145.018	145.187	87	76
145.018	145.187	90	91
145.018	145.187	94	91
145.21	145.577	66	43
145.21	145.577	70	43
145.21	145.577	75	51
145.3	145.667	63	51
145.391	145.758	65	64
145.577	145.944	66	43
145.577	145.944	70	43
145.577	145.944	75	51
145.667	146.034	63	51
145.758	146.126	65	64
145.944	146.313	66	43
145.944	146.313	70	43
145.944	146.313	75	51
146.034	146.403	63	51
146.126	146.494	65	64
146.313	146.68	66	43
146.313	146.68	70	43
146.313	146.68	75	51
146.403	146.771	63	51
146.494	146.819	65	64
146.68	146.819	66	43
146.68	146.819	70	43
146.68	146.819	75	51
146.771	146.863	63	51
146.863	147.063	47	52
146.863	147.063	54	62
146.863	147.063	59	62
146.863	147.271	75	63
146.863	147.063	78	63
146.863	147.063	83	74
146.863	147.063	87	74
147.063	147.271	47	51
147.063	147.271	54	61
147.063	147.271	59	61
147.063	147.271	78	64
147.063	147.271	83	64
147.063	147.271	87	77
147.063	147.271	90	77
147.271	147.473	42	58
147.271	147.473	49	58
147.271	147.473	54	69
147.271	147.404	82	69
147.271	147.404	85	69
147.271	147.404	90	82
147.271	147.404	94	82
147.473	149.661	63	48
147.473	147.932	66	48
147.473	147.842	71	57
147.564	147.655	61	57
147.655	149.661	61	68
147.842	149.661	68	49
147.842	149.661	71	49
147.842	148.298	73	59
147.932	148.023	66	59
148.023	149.661	66	72
148.208	149.661	75	51
148.208	148.662	78	51
148.208	149.661	82	61
148.298	148.388	73	62
148.388	149.661	73	73
148.572	149.661	80	53
148.572	149.661	83	53
148.572	149.028	85	63
148.662	148.752	78	64
148.752	149.661	78	77
148.937	149.661	87	55
148.937	149.407	90	55
148.937	149.661	94	66
149.028	149.118	85	66
149.118	149.661	85	79
149.307	149.661	92	57
149.307	149.661	95	57
149.307	149.661	97	68
149.407	149.506	90	68
149.506	149.705	90	90
150.302	150.511	47	55
150.302	150.511	54	55
150.302	150.511	59	66
150.302	150.511	78	77
150.302	150.511	83	77
150.302	150.511	86	92
150.302	150.511	90	92
150.651	151.064	42	61
150.676	151.064	49	61
150.701	151.064	58	73
150.701	151.064	82	82
150.701	151.064	85	82
150.701	151.064	90	97
150.701	151.064	94	97
151.718	152.186	54	62
151.739	152.186	61	62
151.759	152.186	70	73
151.759	152.186	90	82
151.759	152.186	97	82
151.759	152.186	102	97
