OnsetTime	OffsetTime	MidiPitch	Velocity
1.21098	1.28698	67	48
1.35697	1.43097	72	49
1.50797	1.58897	74	51
1.66196	2.10299	75	52
1.66297	1.80898	48	40
1.80898	1.95598	51	36
1.95698	2.10698	55	36
2.10698	2.25299	77	50
2.10997	2.25699	60	36
2.25798	2.69097	74	53
2.26098	2.40098	48	40
2.40197	2.54499	53	40
2.54499	2.69197	55	36
2.69197	2.84498	75	50
2.69397	2.84898	59	36
2.85197	2.99197	48	40
2.85197	3.39094	72	52
2.99297	3.13596	51	40
3.13896	3.28195	55	36
3.28296	3.43295	60	36
3.39494	3.43295	74	48
3.43694	3.58094	63	40
3.43694	3.57993	72	52
3.58094	3.71993	71	51
3.58294	3.71993	67	36
3.72094	3.86393	63	36
3.72094	3.86393	72	51
3.86692	3.97492	74	50
3.86792	4.00691	62	36
3.97592	4.01091	77	49
4.01192	4.15491	75	56
4.01391	4.15491	60	40
4.1569	4.2969	74	52
4.15791	4.29791	67	36
4.3009	4.44489	75	52
4.3019	4.44489	60	36
4.3039	4.4459	63	36
4.4479	4.60589	67	36
4.4479	4.6049	77	52
4.6089	4.75589	79	56
4.60989	4.75589	59	41
4.61189	4.75989	62	41
4.75989	4.9129	67	36
4.9139	5.07089	79	55
4.9179	5.0719	56	36
4.9179	5.07089	60	36
5.0749	5.2279	67	36
5.2289	5.37891	55	40
5.2289	6.1379	79	57
5.37891	5.5329	59	29
5.5369	5.6939	62	28
5.6939	5.8479	67	28
5.84891	5.99492	55	40
5.99591	6.13891	59	31
6.13891	6.2859	77	51
6.14291	6.2869	62	31
6.2869	6.36589	79	53
6.2889	6.43988	67	31
6.36589	6.40089	77	48
6.40089	6.43988	79	48
6.44389	6.57889	53	40
6.44389	7.0209	80	56
6.57988	6.72988	56	36
6.72988	6.87689	59	37
6.87789	7.02389	62	37
7.0249	7.16689	53	40
7.0249	7.3109	74	52
7.16789	7.3149	56	36
7.31589	7.45889	59	36
7.31589	7.45389	75	51
7.45889	7.53788	77	53
7.46089	7.60888	62	36
7.53888	7.57388	75	50
7.57489	7.60987	77	50
7.60987	8.19289	79	56
7.61187	7.75988	51	40
7.75988	7.90289	55	34
7.90689	8.04988	60	34
8.04988	8.19588	63	33
8.19689	8.33988	56	41
8.19689	8.48287	72	52
8.33988	8.48387	60	35
8.48688	8.63086	72	53
8.48787	8.63086	63	35
8.63186	8.78087	74	54
8.63386	8.78187	66	35
8.78187	8.92486	75	57
8.78386	8.92786	55	40
8.92887	9.07185	60	40
9.07185	9.21484	75	53
9.07285	9.21884	63	35
9.21884	9.35884	77	55
9.21984	9.36283	67	35
9.36584	9.50683	55	40
9.36584	9.50584	74	57
9.50883	9.64882	59	36
9.65282	9.80383	62	36
9.65282	9.80282	74	51
9.80383	9.94682	75	54
9.80583	9.94982	67	36
9.94982	10.2508	72	57
10.1038	10.2508	48	38
10.2518	10.4048	51	42
10.4078	10.5558	55	45
10.5568	10.8458	60	49
10.8468	10.9938	77	56
10.9938	11.1468	79	58
11.1508	11.7348	68	61
11.1518	11.7358	80	61
11.2948	11.4368	41	43
11.4378	11.5848	47	45
11.5848	11.7378	50	47
11.7388	11.8788	53	49
11.7388	12.0248	74	57
11.8818	12.0258	56	43
12.0288	12.1658	75	56
12.0298	12.1668	55	43
12.1668	12.3198	77	58
12.1688	12.3198	53	43
12.3238	12.9078	67	61
12.3258	12.9078	79	61
12.4668	12.6108	39	40
12.6108	12.7568	43	42
12.7578	12.9118	48	45
12.9118	13.1978	72	57
12.9128	13.0508	51	48
13.0538	13.1978	55	40
13.1988	13.3338	72	58
13.2018	13.3388	56	39
13.3408	13.4888	74	59
13.3418	13.4888	54	39
13.4898	13.6398	75	62
13.4918	13.6398	43	48
13.6418	13.7788	55	44
13.7798	13.9298	60	38
13.7798	13.9298	75	58
13.9338	14.0768	55	38
13.9338	14.0728	77	60
14.0768	14.2208	74	62
14.0778	14.2208	43	48
14.2218	14.3638	55	39
14.3648	14.5108	74	56
14.3668	14.5108	59	39
14.5118	14.6608	75	59
14.5138	14.6618	55	39
14.6618	14.9628	72	62
14.6638	14.8118	48	52
14.8118	14.9628	60	45
14.9628	15.5779	82	74
14.9658	15.1128	59	45
15.1158	15.2699	60	45
15.2708	15.4208	52	52
15.4239	15.5789	60	48
15.5789	16.0369	82	73
15.5818	15.7289	55	48
15.7299	15.8799	60	48
15.8829	16.0379	53	53
16.0379	16.1879	80	71
16.0399	16.1909	60	49
16.1909	16.3309	79	72
16.1919	16.3339	56	50
16.3349	16.4779	77	72
16.3379	16.4779	60	49
16.4818	16.6218	55	54
16.4818	16.6208	75	71
16.6238	16.7679	74	71
16.6248	16.7679	65	52
16.7688	16.9108	72	71
16.7719	16.9118	59	46
16.9148	17.0588	71	71
16.9158	17.0598	65	50
17.0598	17.3598	72	73
17.0618	17.2118	56	54
17.2168	17.3608	63	47
17.3628	17.9759	72	79
17.3628	17.9768	84	79
17.3638	17.5168	60	47
17.5178	17.6678	63	47
17.6688	17.8259	55	62
17.8259	17.9788	64	54
17.9788	18.4349	82	80
17.9799	18.1268	60	55
18.1268	18.2799	64	55
18.2849	18.4349	53	64
18.4359	18.5879	80	81
18.4379	18.5929	65	57
18.5949	18.7359	79	82
18.5959	18.7359	60	58
18.7388	18.8828	65	57
18.7388	18.8778	77	81
18.8828	19.0258	75	79
18.8858	19.0258	55	63
19.0288	19.1698	67	57
19.0288	19.1688	74	79
19.1728	19.3088	72	79
19.1768	19.3128	55	57
19.3128	19.4558	71	78
19.3158	19.4568	67	56
19.4568	19.7578	72	89
19.4598	19.7578	60	68
19.7608	19.9078	55	62
19.7608	19.8088	74	81
19.7638	19.9088	59	62
19.8098	19.8618	75	81
19.8628	19.9108	74	81
19.9108	19.9498	75	81
19.9498	19.9878	74	81
19.9918	20.0228	72	80
20.0228	20.0658	74	80
20.0658	20.2158	75	92
20.0688	20.2168	48	62
20.0688	20.2188	60	62
20.3738	20.5308	71	92
20.3738	20.5318	74	92
20.3768	20.5338	43	62
20.3768	20.5318	83	92
20.3778	20.5348	55	62
20.6918	20.8488	72	92
20.6918	20.8498	75	92
20.6928	20.8528	84	92
20.6958	20.8538	36	69
20.6958	20.8538	48	69
21.9688	23.1418	55	73
21.9688	23.1428	60	73
21.9728	23.1448	34	58
21.9728	23.1428	64	86
21.9738	23.1458	46	69
23.1488	23.2888	65	50
23.1498	23.4388	32	57
23.1498	23.4398	44	68
23.2888	23.4398	72	51
23.4428	23.5828	68	53
23.5858	23.7258	77	54
23.7298	23.8728	72	55
23.8738	24.0208	80	56
24.0208	24.1638	77	57
24.1648	24.3078	84	59
24.3078	24.4538	82	59
24.4548	24.6018	79	59
24.6018	24.7448	76	58
24.6028	24.8888	52	46
24.6028	24.8918	60	55
24.7458	24.8918	72	57
24.8928	25.0378	70	56
24.8958	25.1928	52	46
24.8958	25.1938	60	55
25.0418	25.1938	71	55
25.1938	25.3428	72	55
25.1958	25.4968	52	46
25.1958	25.4968	60	55
25.3438	25.5008	67	54
25.5008	26.1308	70	60
25.5038	26.4488	53	46
25.5048	26.4498	60	55
26.1338	26.4528	68	56
26.7638	27.9428	53	73
26.7648	27.9438	58	73
26.7648	27.9438	62	86
26.7678	27.9478	32	58
26.7678	27.9478	44	69
27.9488	28.0868	63	50
27.9508	28.2418	31	57
27.9508	28.2418	43	68
28.0878	28.2418	70	51
28.2428	28.3848	67	53
28.3858	28.5288	75	54
28.5318	28.6748	70	55
28.6758	28.8188	79	56
28.8228	28.9658	75	57
28.9668	29.1098	82	59
29.1098	29.2568	80	59
29.2568	29.3998	79	59
29.4008	29.6897	50	46
29.4008	29.5457	77	58
29.4028	29.6907	58	55
29.5468	29.6907	75	57
29.6937	29.8407	74	56
29.6947	29.9908	50	46
29.6947	29.9917	58	55
29.8407	29.9947	72	55
29.9947	30.1457	70	55
29.9977	30.2987	50	46
29.9977	30.2998	58	55
30.1457	30.3027	68	54
30.3038	30.4568	51	46
30.3038	30.4568	67	60
30.4608	30.6207	58	31
30.6218	30.7647	63	31
30.6218	31.2128	70	60
30.7647	30.9147	58	31
30.9158	31.0658	56	42
31.0658	31.2138	58	30
31.2138	31.6638	70	56
31.2148	31.3598	62	30
31.3628	31.5128	58	30
31.5138	31.6638	55	42
31.6648	31.8078	72	54
31.6678	31.8118	58	33
31.8118	31.9577	74	55
31.8128	31.9617	63	33
31.9628	32.1057	58	34
31.9628	32.1047	75	57
32.1087	32.2497	50	41
32.1087	32.2487	77	58
32.2517	32.4027	79	60
32.2527	32.4027	58	33
32.4037	32.5467	62	33
32.4037	32.5457	80	61
32.5497	32.7007	77	58
32.5507	32.7037	58	33
32.7037	32.8467	80	61
32.7077	32.8477	51	40
32.8507	32.9977	79	60
32.8517	32.9977	58	35
33.0017	33.1447	63	35
33.0017	33.1437	77	59
33.1447	33.2987	75	58
33.1477	33.2987	58	35
33.3017	33.4517	75	60
33.3057	33.4527	56	40
33.4527	33.5957	74	58
33.4557	33.5997	58	35
33.5997	33.7457	72	58
33.6007	33.7467	65	36
33.7507	33.9077	58	36
33.7507	33.9037	74	58
33.9077	34.0477	77	63
33.9087	34.0517	55	40
34.0517	34.2017	75	57
34.0547	34.2027	58	35
34.2027	34.3457	74	57
34.2047	34.3457	63	36
34.3467	34.4957	72	57
34.3487	34.4987	58	36
34.4997	34.7967	68	60
34.4997	34.7977	70	60
34.5027	34.6467	50	40
34.6497	34.8007	58	34
34.8007	35.0937	68	60
34.8047	34.9437	50	34
34.8047	35.0977	70	60
34.9437	35.0987	58	34
35.0987	35.2377	68	60
35.0997	36.4167	70	60
35.1007	35.2407	51	41
35.2417	35.3887	67	53
35.2447	35.3917	58	34
35.3917	35.5347	65	53
35.3957	35.5357	51	34
35.5357	35.6857	63	53
35.5387	35.6897	58	34
35.6897	35.8327	63	57
35.6907	35.8337	56	40
35.8337	35.9767	62	52
35.8357	35.9797	58	34
35.9797	36.1197	60	52
35.9807	36.1237	56	34
36.1267	36.2707	62	52
36.1277	36.2737	58	34
36.2737	36.4177	63	55
36.2777	36.4177	54	40
36.4217	36.5647	58	36
36.4217	36.5647	72	56
36.5657	36.7077	54	37
36.5657	36.7077	74	58
36.7107	36.8546	75	59
36.7117	36.8557	58	37
36.8557	36.9976	77	61
36.8577	37.0016	50	41
37.0016	37.1446	58	36
37.0016	37.1416	78	63
37.1456	37.2926	80	64
37.1486	37.2956	50	36
37.2956	37.4316	77	62
37.2996	37.4356	58	36
37.4366	38.0166	51	39
37.4366	38.0166	78	65
37.5866	37.8706	58	39
37.7256	38.3076	82	72
37.7266	38.0166	54	41
37.8706	38.0166	58	41
38.0136	38.5916	46	42
38.1606	38.4446	58	43
38.3076	39.1786	82	74
38.3086	38.5916	50	44
38.4446	38.5916	58	45
38.5906	39.1786	47	45
38.7416	39.0316	58	47
38.8886	39.1786	51	51
38.8886	39.7666	87	91
39.0316	39.1786	58	54
39.1756	39.7666	48	58
39.3156	39.6126	57	49
39.4666	39.7666	81	78
39.4696	39.7666	51	49
39.6126	39.7666	57	49
39.7636	40.4526	82	60
39.7666	40.0636	46	60
40.0646	40.2076	58	46
40.0646	40.2076	62	46
40.0676	40.2116	65	55
40.3476	40.9276	58	59
40.3486	40.9326	63	59
40.3486	40.9286	66	70
40.4536	40.5436	81	49
40.5476	40.6416	82	51
40.6446	40.7356	84	53
40.7396	40.8346	82	50
40.8376	40.9326	81	50
40.9326	41.6176	82	50
41.2296	41.3766	58	46
41.2296	41.3776	62	46
41.2336	41.3776	65	55
41.5206	42.1016	58	59
41.5206	42.1016	66	70
41.5236	42.1026	63	59
41.6216	41.7156	81	49
41.7196	41.8106	82	51
41.8106	41.9096	84	53
41.9096	42.0026	82	50
42.0036	42.1046	81	50
42.1046	42.3986	58	46
42.1086	42.3986	62	46
42.1086	42.3996	65	55
42.2056	42.3036	82	54
42.3046	42.4026	84	56
42.4026	42.4966	86	58
42.4966	42.5876	84	55
42.5906	42.6856	82	52
42.6886	42.9826	58	46
42.6896	42.9836	65	46
42.6926	42.9836	68	55
42.7906	42.8916	86	54
42.8926	42.9866	87	57
42.9876	43.0846	89	59
43.0846	43.1756	87	57
43.1756	43.2736	86	55
43.2746	43.3686	89	63
43.2766	43.5566	58	46
43.2766	43.5576	62	46
43.2776	43.5606	65	46
43.2776	43.5616	68	55
43.3686	43.4666	87	63
43.4666	43.5616	86	62
43.5636	43.6546	84	61
43.6586	43.7496	82	60
43.7496	43.8476	80	59
43.8486	43.9416	79	59
43.9426	44.0406	77	58
44.0406	44.1386	75	57
44.1386	44.2076	74	56
44.2086	44.2816	72	56
44.2846	44.3585	70	55
44.3585	44.4286	68	54
44.4286	44.5335	67	59
44.4326	44.7265	51	55
44.5265	44.6315	63	55
44.6275	44.7295	65	55
44.7265	44.8236	67	59
44.8165	44.9215	65	55
44.9145	45.0135	63	55
45.0095	45.5835	68	59
45.1075	45.2056	58	45
45.2015	45.3005	60	48
45.2925	45.3985	62	50
45.3915	45.4955	60	48
45.4886	45.5865	58	45
45.5835	45.6885	67	59
45.5865	45.8735	63	55
45.6815	45.7865	75	55
45.7795	45.8805	77	55
45.8735	45.9795	79	59
45.9725	46.0705	77	55
46.0665	46.1715	75	55
46.1645	46.7385	80	59
46.2555	46.3645	58	43
46.3575	46.4545	60	47
46.4475	46.5525	62	50
46.5455	46.6475	60	48
46.6405	46.7455	58	45
46.7385	46.8365	79	59
46.7425	47.0295	63	55
46.8375	46.9315	75	59
46.9315	47.0295	77	59
47.0305	47.1235	79	64
47.1245	47.2215	77	57
47.2225	47.3165	75	58
47.3165	47.4135	82	67
47.3175	47.6035	63	55
47.4145	47.5045	79	59
47.5055	47.6065	80	59
47.6065	47.6975	82	62
47.6975	47.7885	80	65
47.7895	47.8935	79	67
47.8975	48.1765	61	55
47.8975	47.9915	85	69
47.8985	48.1805	55	55
47.8985	48.1815	58	55
47.9005	48.1835	63	55
47.9885	48.0895	84	68
48.0855	48.1845	82	67
48.1835	48.2825	80	66
48.2755	48.3735	79	65
48.3695	48.4745	77	63
48.4675	48.5695	75	59
48.5625	48.6675	74	55
48.6605	48.7575	75	55
48.7505	48.8595	76	59
48.8525	48.9505	77	56
48.9435	49.0485	73	56
49.0415	49.9025	44	52
49.1365	49.9025	48	54
49.2355	49.9025	51	56
49.3355	49.9025	60	57
49.3365	49.9025	56	59
49.4275	49.9025	63	59
49.5255	49.9025	68	62
49.6205	49.9025	72	64
49.7175	49.9025	75	66
49.8185	49.9095	80	68
49.9105	49.9835	84	70
50.0595	50.1335	84	70
50.2105	50.5255	58	48
50.2105	50.5255	84	70
50.2115	50.5255	63	48
50.2145	50.5255	67	57
50.3545	50.5255	82	68
50.5115	50.5785	80	66
50.6515	50.7315	79	64
50.8095	51.1315	79	65
50.8105	51.1315	58	49
50.8105	51.1315	65	49
50.8125	51.1315	68	58
50.9595	51.1315	77	63
51.1145	51.1875	75	61
51.2535	51.3405	74	59
51.4215	51.7365	75	63
51.4245	51.7375	63	49
51.4245	51.7375	67	58
52.3735	52.6885	58	45
52.6895	53.0065	62	37
52.6915	53.0105	65	45
52.6925	53.0115	56	33
52.6925	53.0135	58	39
53.0065	53.3145	62	38
53.0105	53.3195	65	45
53.0115	53.3195	56	34
53.0135	53.3195	58	40
53.3145	53.6295	62	38
53.3195	53.6335	56	35
53.3195	53.6345	58	42
53.3195	53.6305	65	45
53.6295	53.9665	62	39
53.6305	53.9665	65	46
53.6335	53.9665	56	36
53.6345	53.9655	58	43
53.9585	54.9115	63	40
53.9635	54.9125	55	37
53.9635	54.9115	70	47
53.9655	55.2265	58	45
54.9115	55.2235	63	46
54.9115	55.2265	70	46
54.9125	55.2265	55	42
55.2235	55.8535	63	40
55.2255	55.8565	68	48
55.2265	55.8565	60	45
55.8495	56.4865	65	37
55.8535	56.4895	63	37
55.8535	56.4895	69	45
55.8555	56.4895	59	43
56.4845	57.4205	62	39
56.4865	57.4205	65	39
56.4865	57.4215	70	46
56.4875	57.4245	58	43
57.4245	57.7355	70	50
57.7355	58.0475	70	42
57.7365	58.0505	62	44
57.7365	58.0475	77	50
57.7395	58.0505	56	37
58.0475	58.3555	70	45
58.0475	58.3555	77	53
58.0505	58.3585	56	39
58.0505	58.3565	62	47
58.3555	58.6665	70	47
58.3555	58.6705	77	56
58.3565	58.6735	62	51
58.3585	58.6715	56	42
58.6665	58.9745	70	50
58.6705	58.9815	77	59
58.6715	58.9815	56	46
58.6735	58.9815	62	55
58.9745	60.2735	70	73
58.9785	60.2735	82	73
58.9795	60.2735	55	50
58.9795	60.2735	63	60
59.6225	60.2735	73	80
59.9475	60.2735	83	72
60.2695	60.5775	72	74
60.2705	60.5815	56	61
60.2705	60.5775	84	87
60.2735	60.5815	63	72
60.8925	61.1975	65	74
60.8925	61.2005	68	74
60.8935	61.2005	74	87
60.8965	61.2045	46	61
60.8965	61.2055	58	72
61.5195	61.8095	67	49
61.5205	61.8105	75	55
61.6105	61.7145	63	55
61.7115	61.8135	65	55
61.8125	61.9075	67	59
61.9005	62.0065	65	55
61.9995	62.0995	63	55
62.0925	62.6735	68	59
62.1915	62.2895	70	54
62.2855	62.3905	72	56
62.3835	62.4815	74	57
62.4745	62.5795	72	54
62.5725	62.6805	70	51
62.6745	62.7785	67	59
62.6745	62.9655	75	55
62.7715	62.8705	63	55
62.8635	62.9725	65	55
62.9655	63.0695	67	59
63.0635	63.1605	65	55
63.1575	63.2585	63	55
63.2555	63.8325	68	59
63.3495	63.4515	70	54
63.4405	63.5455	72	56
63.5385	63.6445	74	57
63.6375	63.7415	72	54
63.7345	63.8405	70	51
63.8365	63.9345	75	56
63.8395	63.9805	63	55
63.8395	63.9805	67	55
63.9345	64.0245	79	59
64.0255	64.1235	77	52
64.1265	64.2175	75	59
64.1305	64.2705	60	52
64.2175	64.3155	74	57
64.3165	64.4095	72	58
64.4105	64.5085	71	54
64.4135	64.5535	56	52
64.5085	64.5995	72	54
64.5995	64.7005	70	53
64.7015	64.8445	58	52
64.7015	64.7915	68	53
64.7925	64.8935	67	52
64.8935	64.9905	65	52
64.9915	65.2825	63	55
65.0895	65.1905	39	49
65.1875	65.2855	41	49
65.2825	65.3865	43	53
65.3795	65.4775	41	49
65.4705	65.5765	39	49
65.5695	66.1495	44	70
65.6625	65.7685	58	54
65.7615	65.8595	60	56
65.8555	65.9605	62	57
65.9535	66.0515	60	54
66.0445	66.1565	58	51
66.1495	66.4405	63	55
66.1535	66.2515	43	53
66.2445	66.3485	39	49
66.3415	66.4475	41	49
66.4405	66.5425	43	53
66.5355	66.6395	41	49
66.6325	66.7305	39	49
66.7275	67.3115	44	70
66.8255	66.9225	58	54
66.9195	67.0215	60	56
67.0175	67.1155	62	57
67.1085	67.2145	60	54
67.2075	67.3185	58	51
67.3125	67.6015	63	55
67.3145	67.4095	43	53
67.4025	67.5115	39	49
67.5045	67.6085	41	49
67.6025	67.7035	43	53
67.6965	67.8015	41	49
67.7945	67.8925	39	49
67.8855	69.6355	44	70
67.9875	68.0855	59	54
68.0785	68.1835	60	56
68.1765	68.2775	62	57
68.2705	68.3755	60	54
68.3685	68.4775	59	51
68.4745	68.5715	65	64
68.5645	68.6695	63	54
68.6625	68.7575	62	58
68.7505	68.8555	68	66
68.8555	68.9605	67	58
68.9495	69.0475	65	61
69.0475	69.1455	74	70
69.1425	69.2465	72	60
69.2395	69.3315	71	64
69.3385	69.4435	77	74
69.4295	69.5415	75	64
69.5335	69.6395	74	68
69.6355	70.8785	89	100
69.6365	72.0965	31	75
69.6395	72.0945	43	80
70.5635	70.8785	87	86
70.6685	70.8785	86	85
70.7735	70.8785	84	83
70.8785	71.4555	83	82
70.9775	71.4555	80	81
71.0745	71.4555	79	79
71.1655	71.4555	77	78
71.2605	71.4555	75	77
71.3575	71.4555	74	75
71.4525	72.0965	72	74
71.5445	72.0965	71	72
71.6385	72.0965	68	71
71.7325	72.0965	67	70
71.7885	72.0965	65	68
71.8485	72.0965	63	69
71.9115	72.0965	62	70
71.9805	72.0965	60	71
72.0935	74.5635	59	93
72.0945	74.5635	43	69
72.0965	74.5645	50	69
72.0965	74.5675	53	82
74.7665	74.8405	67	48
74.9175	74.9865	72	49
75.0605	75.1445	74	51
75.2185	75.6595	75	52
75.2195	75.3645	48	40
75.3655	75.5085	51	36
75.5125	75.6595	55	36
75.6635	75.8175	60	36
75.6635	75.8165	77	50
75.8175	76.2514	74	53
75.8205	75.9605	48	40
75.9645	76.1074	53	40
76.1085	76.2544	55	36
76.2544	76.4084	75	50
76.2554	76.4094	59	36
76.4094	76.9544	72	52
76.4115	76.5484	48	40
76.5494	76.6984	51	40
76.6994	76.8425	55	36
76.8454	76.9894	60	36
76.9544	76.9894	74	48
76.9934	77.1364	63	40
76.9934	77.1324	72	52
77.1364	77.2804	71	51
77.1374	77.2804	67	36
77.2804	77.4234	72	51
77.2834	77.4244	63	36
77.4264	77.5354	74	50
77.4274	77.5704	62	36
77.5354	77.5704	77	49
77.5714	77.7134	75	56
77.5744	77.7144	60	40
77.7174	77.8614	74	52
77.7184	77.8614	67	36
77.8624	78.0044	60	36
77.8624	78.0034	75	52
77.8644	78.0074	63	36
78.0084	78.1614	67	36
78.0084	78.1614	77	52
78.1624	78.3184	79	56
78.1654	78.3194	59	41
78.1654	78.3194	62	41
78.3224	78.4764	67	36
78.4764	78.6304	79	55
78.4774	78.6344	56	36
78.4774	78.6334	60	36
78.6344	78.7844	67	36
78.7854	78.9394	55	40
78.7854	79.6944	79	57
78.9424	79.0964	59	29
79.0974	79.2494	62	28
79.2544	79.4044	67	28
79.4044	79.5554	55	40
79.5554	79.6954	59	31
79.6984	79.8374	77	51
79.6994	79.8424	62	31
79.8424	79.9194	79	53
79.8434	79.9954	67	31
79.9214	79.9604	77	48
79.9644	79.9964	79	48
79.9964	80.5794	80	56
80.0004	80.1434	53	40
80.1434	80.2864	56	36
80.2874	80.4364	59	37
80.4404	80.5844	62	37
80.5844	80.8714	74	52
80.5864	80.7274	53	40
80.7284	80.8744	56	36
80.8744	81.0174	75	51
80.8784	81.0184	59	36
81.0184	81.0944	77	53
81.0214	81.1684	62	36
81.0944	81.1334	75	50
81.1334	81.1684	77	50
81.1724	81.3154	51	40
81.1724	81.7564	79	56
81.3164	81.4594	55	34
81.4594	81.6024	60	34
81.6054	81.7564	63	33
81.7574	82.0464	72	52
81.7604	81.8994	56	41
81.9004	82.0464	60	35
82.0474	82.1904	63	35
82.0474	82.1894	72	53
82.1904	82.3374	74	54
82.1944	82.3384	66	35
82.3384	82.4803	75	57
82.3404	82.4813	55	40
82.4843	82.6243	60	40
82.6273	82.7783	75	53
82.6283	82.7783	63	35
82.7793	82.9213	77	55
82.7823	82.9223	67	35
82.9223	83.0693	74	57
82.9253	83.0693	55	40
83.0703	83.2123	59	36
83.2133	83.3593	62	36
83.2133	83.3593	74	51
83.3603	83.5103	67	36
83.3603	83.5053	75	54
83.5103	83.8104	72	57
83.6603	83.8113	48	38
83.8113	83.9684	51	42
83.9684	84.1194	55	45
84.1194	84.4064	60	49
84.4093	84.5524	77	56
84.5534	84.7034	79	58
84.7034	85.2873	68	61
84.7074	85.2913	80	61
84.8504	85.0014	41	43
85.0014	85.1444	47	45
85.1483	85.2923	50	47
85.2943	85.4353	53	49
85.2943	85.5783	74	57
85.4353	85.5813	56	43
85.5823	85.7253	75	56
85.5853	85.7253	55	43
85.7253	85.8753	77	58
85.7293	85.8763	53	43
85.8793	86.4603	67	61
85.8803	86.4633	79	61
86.0233	86.1693	39	40
86.1743	86.3173	43	42
86.3173	86.4643	48	45
86.4673	86.7543	72	57
86.4683	86.6073	51	48
86.6073	86.7543	55	40
86.7543	86.8973	72	58
86.7553	86.8983	56	39
86.8983	87.0473	74	59
86.9013	87.0513	54	39
87.0523	87.1953	43	48
87.0523	87.1913	75	62
87.1983	87.3393	55	44
87.3393	87.4823	75	58
87.3423	87.4853	60	38
87.4863	87.6293	55	38
87.4863	87.6293	77	60
87.6303	87.7723	74	62
87.6333	87.7733	43	48
87.7763	87.9203	55	39
87.9203	88.0703	74	56
87.9213	88.0733	59	39
88.0743	88.2173	55	39
88.0743	88.2133	75	59
88.2183	88.5183	72	62
88.2203	88.3743	48	52
88.3753	88.5183	60	45
88.5193	89.1343	82	74
88.5213	88.6763	59	45
88.6763	88.8263	60	45
88.8273	88.9803	52	52
88.9843	89.1353	60	48
89.1353	89.5933	82	73
89.1363	89.2883	55	48
89.2923	89.4383	60	48
89.4393	89.5933	53	53
89.5943	89.7463	80	71
89.5963	89.7473	60	49
89.7513	89.8943	79	72
89.7533	89.8943	56	50
89.8953	90.0373	77	72
89.8973	90.0383	60	49
90.0403	90.1843	75	71
90.0413	90.1843	55	54
90.1853	90.3273	74	71
90.1883	90.3323	65	52
90.3323	90.4743	72	71
90.3333	90.4753	59	43
90.4753	90.6173	71	71
90.4783	90.6213	65	50
90.6223	90.7683	56	54
90.6223	90.9233	72	73
90.7693	90.9233	63	47
90.9233	91.5323	72	79
90.9243	91.5323	84	79
90.9263	91.0693	60	47
91.0733	91.2313	63	47
91.2313	91.3773	55	62
91.3813	91.5333	64	54
91.5333	91.9933	82	80
91.5353	91.6853	60	55
91.6903	91.8363	64	55
91.8403	91.9983	53	64
91.9983	92.1483	65	57
91.9983	92.1443	80	81
92.1483	92.2913	79	82
92.1513	92.2923	60	58
92.2923	92.4353	77	81
92.2953	92.4353	65	57
92.4383	92.5813	75	79
92.4423	92.5823	55	63
92.5823	92.7253	74	79
92.5853	92.7253	67	57
92.7283	92.8723	55	57
92.7283	92.8723	72	79
92.8733	93.0153	71	78
92.8763	93.0163	67	56
93.0193	93.3163	72	89
93.0203	93.3173	60	68
93.3203	93.3723	74	81
93.3233	93.4713	55	62
93.3243	93.4713	59	62
93.3733	93.4182	75	81
93.4182	93.4723	74	81
93.4743	93.5063	75	81
93.5063	93.5433	74	81
93.5473	93.5862	72	80
93.5872	93.6213	74	80
93.6222	93.7792	75	92
93.6242	93.7792	48	62
93.6252	93.7803	60	62
93.9293	94.0903	71	92
93.9303	94.0903	74	92
93.9303	94.0942	83	92
93.9323	94.0942	43	62
93.9332	94.0953	55	62
94.2482	94.4092	72	92
94.2482	94.4103	75	92
94.2482	94.4122	84	92
94.2523	94.4122	36	69
94.2523	94.4133	48	69
95.0492	95.2063	44	46
95.2073	95.3613	48	48
95.3622	95.5252	51	50
95.5263	96.1633	56	51
95.5263	96.1623	60	53
96.1663	96.8033	49	48
96.1663	96.8033	65	48
96.8042	97.4403	58	51
96.8062	97.4403	55	48
97.4433	98.0803	48	45
97.4433	98.0803	63	48
98.0803	98.7173	56	52
98.0812	98.3953	53	48
98.3992	99.0362	46	48
98.7173	99.0393	61	48
99.0393	99.3542	60	48
99.0402	99.3542	48	48
99.3582	99.6762	49	51
99.3582	99.6762	58	53
99.6773	99.9883	56	48
99.6802	99.9912	50	46
99.9912	100.306	55	48
99.9923	100.306	51	46
100.31	100.632	39	42
100.635	101.265	44	51
100.95	101.584	72	55
101.265	101.902	49	49
101.587	102.224	65	53
101.902	102.543	43	51
102.224	102.861	70	56
102.544	103.18	48	49
102.861	103.502	63	53
103.183	103.82	41	52
103.502	103.82	68	53
103.824	104.14	43	51
103.824	104.139	67	51
104.14	104.457	65	51
104.142	104.461	44	49
104.462	104.779	45	53
104.462	104.776	63	53
104.779	105.098	62	49
104.78	105.099	46	50
105.099	105.416	65	53
105.101	105.417	39	49
105.42	105.738	63	49
105.739	106.375	72	57
106.053	106.694	56	43
106.057	106.695	60	51
106.376	107.012	65	40
106.376	107.013	77	48
106.695	107.334	49	40
106.697	107.334	53	48
107.016	107.649	70	57
107.335	107.971	55	43
107.335	107.972	58	51
107.652	108.601	63	40
107.653	108.289	75	48
107.972	108.604	48	40
107.974	108.605	51	48
108.29	108.923	68	52
108.605	108.924	60	48
108.608	108.924	53	43
108.609	108.924	56	51
108.926	109.241	65	45
108.927	109.245	46	51
108.927	109.242	73	53
109.246	109.56	63	40
109.246	109.561	72	48
109.248	109.563	48	51
109.564	109.882	61	40
109.564	109.883	70	53
109.567	109.883	49	49
109.884	110.197	60	40
109.885	110.2	68	48
109.886	110.201	50	49
110.204	110.519	58	40
110.205	110.52	51	49
110.205	110.52	67	48
110.522	110.837	63	48
110.838	111.474	60	51
110.842	111.479	56	43
111.156	111.796	72	46
111.157	111.797	84	55
111.479	112.115	65	50
111.481	112.116	61	42
111.797	112.433	77	55
112.116	112.752	58	54
112.118	112.753	55	46
112.434	113.07	70	51
112.438	113.075	82	61
112.755	113.392	63	54
112.756	113.393	60	45
113.075	113.711	75	59
113.393	114.029	72	51
113.397	114.03	53	59
113.712	114.034	80	61
114.034	114.351	70	50
114.037	114.352	55	60
114.037	114.352	79	60
114.353	114.667	68	51
114.355	114.671	77	61
114.356	114.671	56	58
114.673	114.989	67	54
114.674	114.99	57	64
114.674	114.989	75	64
114.992	115.308	65	50
114.993	115.31	58	62
114.993	115.308	74	60
115.311	115.626	68	56
115.311	115.626	77	66
115.312	115.63	51	61
115.63	115.948	67	52
115.632	115.948	75	62
115.633	115.949	63	64
115.952	116.266	62	65
116.266	116.585	63	65
116.585	116.904	66	65
116.907	117.226	57	61
116.907	117.226	75	65
117.227	117.379	58	62
117.227	117.544	72	68
117.544	117.862	73	65
117.862	118.177	77	67
118.177	118.496	67	63
118.178	118.497	51	54
118.178	118.496	61	65
118.499	118.814	60	62
118.499	118.814	70	68
118.5	118.815	56	62
118.818	119.133	68	65
119.136	119.451	72	67
119.455	119.773	46	53
119.455	119.773	62	65
119.456	119.774	56	63
119.774	119.934	63	65
119.777	120.092	51	63
119.777	120.092	55	63
120.095	120.41	82	61
120.41	120.725	87	66
120.567	120.641	75	49
120.725	121.037	85	62
120.726	120.799	77	49
120.879	120.956	79	49
121.04	121.653	84	69
121.041	121.187	80	49
121.188	121.345	79	49
121.345	121.503	77	49
121.503	121.654	75	49
121.654	122.269	89	70
121.656	121.811	73	49
121.811	121.961	72	49
121.962	122.119	70	49
122.119	122.27	68	49
122.27	122.881	82	70
122.272	122.42	67	49
122.42	122.577	65	49
122.578	122.728	63	49
122.728	122.882	61	49
122.884	123.493	87	67
122.888	123.035	60	49
123.035	123.182	58	49
123.186	123.336	56	49
123.336	123.494	55	49
123.494	124.096	80	70
123.498	123.644	53	51
123.644	123.798	51	51
123.802	123.945	49	52
123.946	124.096	48	53
124.099	124.246	73	72
124.1	124.251	46	53
124.1	124.25	85	72
124.251	124.397	45	54
124.401	124.548	72	73
124.401	124.547	84	73
124.402	124.551	46	55
124.554	124.695	48	55
124.695	124.845	70	75
124.696	124.848	82	75
124.698	124.849	49	55
124.849	124.995	48	56
124.995	125.145	80	77
124.999	125.149	49	57
124.999	125.146	68	77
125.15	125.296	50	58
125.3	125.45	67	79
125.301	125.451	79	79
125.303	125.451	51	59
125.453	125.594	53	60
125.595	125.744	73	80
125.597	125.748	54	61
125.748	125.895	55	62
125.898	126.048	84	80
125.899	126.493	44	76
126.049	126.192	82	79
126.193	126.343	80	79
126.347	126.494	79	78
126.497	126.648	77	77
126.498	127.084	49	72
126.648	126.791	75	76
126.792	126.942	73	76
126.942	127.088	72	76
127.089	127.683	43	77
127.089	127.235	70	77
127.235	127.389	68	77
127.39	127.533	67	77
127.533	127.684	65	77
127.687	128.275	48	71
127.687	127.83	64	77
127.831	127.981	61	76
127.981	128.131	60	76
128.132	128.279	58	75
128.279	128.425	56	75
128.28	128.866	41	76
128.426	128.573	55	74
128.573	128.723	53	73
128.726	128.87	52	71
128.871	129.02	53	70
128.873	130.053	29	76
128.873	130.056	41	76
129.021	129.164	55	72
129.164	129.314	56	74
129.318	129.461	55	71
129.462	129.611	53	73
129.612	129.755	51	72
129.756	129.91	50	71
129.91	130.056	48	70
130.057	130.644	30	75
130.057	130.197	47	67
130.06	130.647	42	75
130.2	130.347	48	69
130.35	130.494	50	71
130.494	130.648	48	70
130.648	130.931	31	75
130.714	130.791	43	56
130.791	130.862	47	56
130.862	130.932	50	56
130.932	131.005	55	69
131.075	131.149	38	54
131.152	131.218	35	55
131.222	131.295	31	67
131.296	131.365	43	58
131.366	131.439	48	58
131.442	131.509	51	58
131.513	131.585	55	70
131.656	131.722	39	55
131.726	131.8	36	55
131.8	131.876	31	69
131.877	131.946	43	60
131.947	132.023	50	60
132.024	132.09	53	60
132.09	132.167	55	71
132.236	132.31	41	57
132.314	132.38	38	57
132.381	132.458	31	70
132.458	132.528	43	61
132.528	132.6	48	61
132.604	132.671	51	61
132.674	132.744	55	71
132.815	132.891	39	59
132.892	132.961	36	59
132.962	133.035	31	81
133.038	133.105	55	60
133.105	133.181	59	60
133.182	133.251	62	60
133.252	133.322	67	76
133.395	133.473	50	59
133.473	133.542	47	59
133.543	133.619	43	74
133.62	133.686	55	64
133.686	133.763	60	64
133.763	133.832	63	64
133.833	133.906	67	76
133.976	134.053	51	59
134.053	134.123	48	59
134.124	134.196	43	76
134.197	134.267	55	66
134.268	134.34	62	66
134.344	134.411	65	66
134.414	134.488	67	77
134.557	134.631	53	62
134.632	134.701	50	62
134.701	134.778	43	76
134.778	134.847	55	67
134.848	134.925	60	67
134.926	134.991	63	67
134.992	135.069	67	77
135.138	135.212	51	65
135.216	135.285	48	65
135.285	135.359	43	88
135.359	135.433	67	72
135.436	135.502	71	72
135.506	135.579	74	72
135.58	135.646	79	89
135.723	135.792	62	70
135.793	135.87	59	70
135.871	135.947	55	86
135.948	136.014	67	75
136.014	136.091	72	75
136.091	136.16	75	75
136.161	136.234	79	88
136.304	136.381	63	68
136.381	136.45	60	68
136.451	136.524	55	86
136.529	136.601	67	75
136.602	136.668	74	75
136.672	136.744	77	75
136.745	136.814	79	87
136.892	136.958	65	70
136.962	137.036	62	70
137.036	137.105	55	86
137.106	137.182	67	75
137.183	137.256	72	75
137.257	137.326	75	75
137.326	137.403	79	86
137.473	137.546	63	71
137.55	137.616	60	71
137.616	137.69	55	80
137.715	137.812	67	66
137.816	137.914	66	68
137.915	138.496	67	70
138.012	138.394	71	72
138.103	138.296	74	75
138.205	138.789	79	84
138.296	138.789	74	72
138.394	138.789	71	64
138.496	138.789	55	67
138.496	138.789	67	70
138.593	138.789	50	67
138.684	138.789	47	66
138.786	139.079	43	80
138.88	138.978	71	66
138.982	139.08	70	68
139.08	139.661	71	70
139.178	139.563	74	72
139.272	139.471	79	75
139.37	139.955	83	84
139.471	139.955	79	72
139.563	139.955	74	64
139.661	139.955	71	70
139.662	139.955	55	67
139.759	139.955	50	67
139.86	139.955	47	66
139.951	140.245	43	80
140.052	140.147	74	66
140.148	140.245	73	68
140.249	140.829	74	70
140.347	140.729	77	72
140.445	140.637	83	75
140.539	140.83	86	84
140.637	140.83	83	72
140.729	140.83	77	64
140.829	141.123	74	70
140.83	141.123	43	67
140.928	141.123	38	67
141.026	141.123	35	66
141.12	141.414	31	80
141.215	141.312	77	66
141.315	141.415	76	68
141.415	142.311	77	70
141.512	141.901	83	72
141.61	141.803	86	75
141.705	142.002	89	84
141.803	142.1	86	72
141.901	142.202	83	64
142.002	142.309	89	84
142.1	142.311	86	72
142.202	142.311	83	64
142.309	143.549	89	100
142.31	144.771	31	75
142.31	144.761	43	80
143.231	143.549	87	86
143.336	143.549	86	85
143.44	143.549	84	83
143.546	144.123	83	82
143.643	144.123	80	81
143.741	144.123	79	79
143.84	144.123	77	78
143.934	144.123	75	77
144.026	144.123	74	75
144.12	144.771	72	74
144.218	144.771	71	72
144.306	144.771	68	71
144.404	144.771	67	70
144.464	144.771	65	68
144.519	144.771	63	69
144.578	144.771	62	70
144.648	144.771	60	71
144.761	147.232	43	69
144.761	147.227	59	93
144.764	147.234	50	69
144.764	147.232	53	82
147.535	147.612	67	48
147.69	147.76	72	49
147.834	147.913	74	51
147.994	148.432	75	52
147.998	148.134	48	40
148.138	148.284	51	36
148.285	148.432	55	36
148.433	148.589	77	50
148.435	148.59	60	36
148.59	149.023	74	53
148.592	148.733	48	40
148.733	148.876	53	40
148.879	149.023	55	36
149.027	149.181	59	36
149.027	149.18	75	50
149.181	149.727	72	52
149.184	149.324	48	40
149.328	149.467	51	40
149.472	149.615	55	36
149.615	149.757	60	36
149.727	149.762	74	48
149.762	149.905	72	52
149.765	149.906	63	40
149.906	150.052	71	51
149.908	150.052	67	36
150.053	150.196	63	36
150.053	150.195	72	51
150.199	150.308	74	50
150.2	150.343	62	36
150.308	150.343	77	49
150.344	150.486	75	56
150.346	150.487	60	40
150.489	150.63	74	52
150.49	150.633	67	36
150.634	150.776	75	52
150.637	150.777	60	36
150.637	150.78	63	36
150.781	150.934	67	36
150.781	150.934	77	52
150.935	151.088	79	56
150.938	151.091	59	41
150.938	151.092	62	41
151.092	151.246	67	36
151.249	151.403	79	55
151.25	151.404	56	36
151.25	151.404	60	36
151.407	151.553	67	36
151.557	152.47	79	57
151.558	151.711	55	40
151.711	151.868	59	29
151.869	152.026	62	28
152.026	152.18	67	28
152.183	152.327	55	40
152.327	152.471	59	31
152.474	152.618	77	51
152.475	152.618	62	31
152.619	152.698	79	53
152.621	152.768	67	31
152.699	152.733	77	48
152.734	152.769	79	48
152.769	153.352	80	56
152.771	152.912	53	40
152.915	153.058	56	36
153.059	153.209	59	37
153.209	153.353	62	37
153.357	153.646	74	52
153.359	153.5	53	40
153.5	153.647	56	36
153.647	153.79	75	51
153.648	153.791	59	36
153.791	153.864	77	53
153.793	153.941	62	36
153.867	153.906	75	50
153.906	153.941	77	50
153.944	154.084	51	40
153.944	154.529	79	56
154.087	154.231	55	34
154.231	154.381	60	34
154.382	154.529	63	33
154.53	154.672	56	41
154.53	154.816	72	52
154.673	154.819	60	35
154.82	154.963	63	35
154.82	154.962	72	53
154.967	155.109	66	35
154.967	155.106	74	54
155.109	155.253	75	57
155.11	155.253	55	40
155.253	155.403	60	40
155.404	155.551	63	35
155.404	155.551	75	53
155.552	155.695	67	35
155.552	155.694	77	55
155.695	155.838	74	57
155.697	155.841	55	40
155.841	155.984	59	36
155.985	156.132	62	36
155.985	156.128	74	51
156.132	156.282	75	54
156.133	156.283	67	36
156.283	156.579	72	57
156.436	156.584	36	38
156.584	156.741	39	42
156.741	156.887	43	45
156.891	157.045	48	45
157.046	157.195	51	45
157.199	157.346	53	50
157.349	157.511	55	52
157.511	158.099	56	54
157.654	157.801	59	47
157.801	157.951	62	49
157.952	158.099	65	51
158.1	158.386	50	51
158.242	158.389	77	51
158.39	158.539	74	50
158.393	158.54	51	50
158.54	158.694	71	48
158.543	158.697	53	52
158.698	159.281	55	54
158.84	158.984	60	44
158.985	159.128	63	46
159.131	159.282	67	49
159.282	159.572	48	51
159.429	159.573	79	48
159.573	159.716	75	47
159.575	159.719	58	50
159.719	159.862	72	45
159.72	159.863	60	52
159.866	160.444	61	54
160.003	160.15	64	47
160.154	160.296	67	49
160.297	160.444	70	51
160.445	160.734	55	51
160.587	160.734	82	51
160.735	160.885	56	50
160.735	160.884	79	50
160.885	161.039	76	48
160.888	161.039	58	52
161.042	161.627	60	54
161.185	161.336	65	48
161.336	161.479	68	50
161.484	161.628	72	53
161.63	161.77	77	55
161.631	161.917	53	51
161.771	161.918	80	58
161.918	162.068	84	60
162.068	162.54	89	69
162.239	162.541	60	54
162.242	162.834	56	54
162.541	162.835	87	63
162.542	162.837	65	54
162.838	163.129	60	54
162.838	163.129	86	61
162.841	163.425	56	54
163.132	163.43	84	60
163.135	163.43	66	54
163.43	163.583	83	60
163.431	163.744	55	46
163.745	164.336	79	60
163.748	164.042	67	31
164.042	164.339	65	42
164.339	164.783	79	56
164.34	164.64	67	30
164.64	164.934	64	42
164.787	164.934	81	54
164.938	165.088	83	55
164.939	165.232	67	33
165.089	165.232	84	57
165.233	165.382	86	58
165.235	165.526	59	41
165.383	165.529	88	60
165.529	165.673	89	61
165.53	165.83	67	33
165.673	165.831	86	58
165.831	165.973	89	61
165.834	166.124	60	40
165.977	166.125	88	60
166.127	166.271	86	59
166.128	166.425	67	35
166.271	166.428	84	58
166.429	166.576	84	60
166.432	167.03	74	40
166.433	166.729	65	40
166.579	166.73	83	58
166.73	166.873	81	58
166.733	167.031	67	36
166.873	167.031	83	58
167.035	167.622	72	40
167.035	167.174	86	63
167.037	167.328	64	40
167.174	167.329	84	57
167.329	167.472	83	57
167.331	167.623	67	36
167.472	167.626	81	57
167.626	167.924	77	48
167.629	167.927	79	60
167.63	167.927	59	40
167.93	168.221	77	48
167.931	168.222	67	34
167.931	168.221	79	60
168.224	168.367	77	60
168.224	169.562	79	60
168.228	168.518	60	41
168.368	168.518	76	53
168.519	168.668	74	53
168.522	168.812	67	34
168.669	168.812	72	53
168.816	169.11	65	40
168.816	168.966	72	57
168.967	169.111	71	52
169.111	169.26	69	52
169.113	169.411	67	34
169.261	169.411	71	52
169.412	169.708	72	52
169.414	169.709	64	42
169.562	169.709	81	54
169.712	169.855	83	55
169.713	170.002	67	33
169.859	170.003	84	57
170.005	170.153	86	58
170.006	170.299	59	41
170.153	170.3	88	60
170.3	170.443	89	61
170.303	170.6	67	33
170.443	170.601	86	58
170.601	170.744	89	61
170.605	170.898	60	40
170.744	170.899	88	60
170.899	171.042	86	59
170.901	171.199	67	35
171.045	171.2	84	58
171.2	171.35	83	60
171.203	171.801	64	40
171.203	171.501	72	40
171.353	171.501	84	58
171.503	171.654	88	59
171.504	171.805	67	36
171.655	171.805	84	59
171.806	171.948	83	66
171.809	172.396	65	38
171.809	172.092	72	42
171.949	172.092	81	57
172.095	172.396	69	38
172.095	172.238	84	58
172.239	172.397	81	59
172.4	172.981	65	37
172.4	172.539	79	69
172.401	172.683	73	44
172.54	172.687	77	63
172.688	172.982	69	38
172.688	172.83	81	63
172.831	172.982	77	64
172.984	173.128	76	72
172.985	173.271	65	46
172.988	173.128	74	46
173.129	173.272	74	62
173.272	173.415	77	64
173.275	173.572	69	42
173.418	173.573	74	64
173.575	173.716	81	75
173.576	173.869	65	48
173.716	173.87	77	67
173.87	174.013	74	67
173.873	174.17	66	41
174.017	174.171	72	67
174.171	174.276	71	59
174.174	174.272	67	55
174.272	174.461	67	55
174.367	174.464	69	55
174.462	174.566	71	59
174.559	174.668	69	55
174.654	174.756	67	55
174.752	175.326	72	59
174.849	174.948	62	45
174.941	175.046	64	48
175.035	175.14	66	50
175.133	175.238	64	48
175.231	175.333	62	45
175.326	175.43	71	59
175.329	175.423	67	55
175.424	175.616	67	55
175.518	175.623	69	55
175.616	175.722	71	59
175.715	175.815	69	55
175.808	175.914	67	55
175.907	176.48	72	59
175.998	176.102	62	43
176.1	176.197	64	47
176.19	176.295	66	50
176.292	176.39	64	48
176.383	176.487	62	45
176.481	176.575	67	55
176.481	176.575	71	59
176.576	176.771	67	59
176.674	176.774	69	59
176.775	176.866	71	64
176.867	176.964	69	57
176.964	177.055	67	58
177.059	177.153	74	67
177.06	177.346	67	55
177.156	177.247	71	59
177.251	177.349	72	59
177.349	177.439	74	62
177.44	177.531	72	65
177.534	177.636	71	67
177.636	177.733	77	69
177.64	177.919	55	55
177.64	177.919	62	55
177.641	177.923	59	55
177.643	177.923	65	55
177.726	177.835	76	68
177.828	177.926	74	67
177.926	178.025	72	66
178.018	178.118	71	65
178.111	178.217	69	63
178.21	178.308	67	59
178.305	178.409	69	55
178.402	178.5	67	55
178.497	178.602	65	59
178.595	178.692	64	56
178.685	178.791	62	56
178.787	178.889	64	59
178.788	179.077	48	55
178.885	178.984	60	55
178.977	179.081	62	55
179.078	179.179	64	59
179.169	179.274	62	55
179.267	179.371	60	55
179.361	179.939	65	59
179.459	179.564	55	45
179.554	179.656	57	48
179.652	179.75	59	50
179.743	179.848	57	48
179.841	179.945	55	45
179.943	180.226	60	55
179.943	180.04	64	59
180.033	180.138	72	55
180.131	180.233	74	55
180.226	180.33	76	59
180.323	180.422	74	55
180.415	180.523	72	55
180.516	181.09	77	59
180.608	180.712	55	43
180.705	180.807	57	47
180.8	180.905	59	50
180.898	181.002	57	48
180.999	181.097	55	45
181.09	181.192	76	59
181.091	181.381	60	55
181.192	181.282	72	59
181.283	181.382	74	59
181.382	181.479	76	64
181.482	181.574	74	57
181.574	181.671	72	58
181.672	181.954	60	55
181.672	181.766	79	67
181.766	181.864	76	59
181.864	181.955	77	59
181.958	182.049	79	62
182.05	182.147	77	65
182.147	182.246	76	67
182.246	182.35	82	69
182.249	182.536	52	55
182.249	182.536	55	55
182.249	182.536	58	55
182.25	182.54	60	55
182.343	182.441	81	68
182.438	182.543	79	67
182.54	182.633	77	66
182.626	182.732	76	65
182.728	182.827	74	63
182.82	182.917	72	59
182.913	183.019	71	55
183.012	183.11	72	55
183.103	183.208	73	59
183.2	183.309	74	56
183.302	183.4	70	56
183.393	184.269	41	52
183.495	184.269	45	54
183.593	184.269	48	56
183.688	184.269	53	59
183.688	184.269	57	57
183.785	184.269	60	59
183.877	184.269	65	62
183.979	184.269	69	64
184.069	184.269	72	66
184.171	184.269	77	68
184.268	184.342	81	70
184.412	184.486	81	70
184.562	184.864	81	70
184.563	184.864	55	48
184.563	184.864	60	48
184.565	184.864	64	57
184.713	184.864	79	68
184.863	184.933	77	66
185.003	185.084	76	64
185.167	185.469	76	65
185.168	185.469	55	49
185.168	185.469	62	49
185.169	185.469	65	58
185.312	185.469	74	63
185.466	185.535	72	61
185.612	185.693	71	59
185.777	186.096	60	49
185.777	186.096	72	63
185.778	186.096	64	58
186.729	187.048	67	45
187.048	187.359	71	37
187.049	187.363	74	45
187.051	187.363	65	33
187.051	187.364	67	39
187.359	187.674	71	38
187.363	187.678	65	34
187.363	187.674	74	45
187.364	187.678	67	40
187.674	187.978	71	38
187.674	187.982	74	45
187.678	187.983	65	35
187.678	187.985	67	42
187.978	188.318	71	39
187.982	188.318	74	46
187.983	188.318	65	36
187.985	188.315	67	43
188.311	189.263	72	40
188.314	189.264	64	37
188.314	189.264	79	47
188.315	189.585	67	45
189.263	189.582	72	46
189.264	189.585	64	42
189.264	189.585	79	46
189.581	190.209	75	40
189.582	190.205	72	40
189.582	190.205	78	48
189.585	190.208	69	45
190.204	190.839	74	37
190.205	190.841	72	37
190.205	190.841	78	45
190.208	190.841	69	43
190.835	191.142	71	39
190.839	191.149	67	43
190.839	191.147	74	39
190.839	191.147	79	46
191.772	192.091	55	45
192.092	192.402	59	37
192.094	192.407	62	45
192.095	192.407	53	33
192.095	192.409	55	39
192.402	192.717	59	38
192.407	192.722	53	34
192.407	192.718	62	45
192.409	192.721	55	40
192.717	193.025	59	38
192.718	193.026	62	45
192.721	193.03	55	42
192.722	193.029	53	35
193.025	193.361	59	39
193.026	193.361	62	46
193.029	193.361	53	36
193.03	193.359	55	43
193.354	194.302	67	47
193.359	194.306	51	37
193.359	194.307	55	45
193.676	193.991	59	40
193.992	194.936	60	40
194.307	194.621	67	45
194.308	194.622	51	41
194.624	194.937	65	50
194.625	194.937	56	39
194.936	195.895	60	49
194.937	195.253	56	44
194.937	195.252	65	49
195.251	195.562	62	49
195.252	195.566	58	44
195.252	195.563	65	49
195.253	195.563	56	44
195.562	196.206	62	49
195.563	195.895	56	46
195.563	195.895	65	49
195.566	195.889	58	46
195.888	196.834	70	54
195.889	196.834	55	50
195.889	196.837	58	50
196.21	196.519	62	51
196.522	197.471	63	51
196.837	197.156	55	51
196.837	197.156	70	53
197.157	197.471	60	47
197.157	197.468	69	59
197.467	197.779	66	56
197.468	197.782	69	56
197.471	197.783	60	48
197.471	197.782	63	48
197.779	198.094	66	56
197.782	198.097	63	50
197.782	198.094	69	56
197.783	198.097	60	50
198.094	198.738	66	55
198.094	198.427	69	55
198.097	198.427	60	51
198.097	198.427	63	51
198.423	199.371	74	61
198.426	199.371	59	54
198.426	199.372	62	54
198.738	199.053	66	54
199.053	199.375	67	54
199.375	200.015	66	62
199.376	199.697	60	53
199.376	199.697	69	62
199.378	199.698	63	53
199.698	200.649	74	63
199.7	200.649	59	55
199.7	200.65	62	55
200.015	200.327	66	55
200.33	200.652	67	50
200.652	201.293	71	54
200.653	200.971	74	54
200.656	200.974	65	54
200.656	200.974	68	54
200.978	201.922	79	58
200.979	201.926	63	56
200.979	201.927	67	56
201.293	201.604	71	52
201.607	201.929	72	55
201.929	202.566	71	57
201.93	202.248	74	57
201.933	202.251	65	49
201.933	202.252	68	49
202.255	203.197	63	52
202.255	203.196	79	63
202.256	203.197	67	52
202.57	202.881	71	55
202.882	203.2	72	55
203.2	203.844	71	60
203.201	203.529	74	60
203.203	203.53	65	36
203.203	203.53	68	43
203.53	204.474	80	69
203.847	204.159	70	49
204.16	204.475	71	49
204.475	204.803	74	56
204.804	205.755	79	65
205.118	205.436	70	47
205.44	205.756	71	48
205.758	206.08	74	54
206.084	207.05	78	60
206.402	206.721	70	38
206.722	207.053	71	38
207.054	207.708	74	40
207.382	208.408	77	47
207.709	208.044	70	37
208.045	208.744	71	37
208.412	208.748	43	42
208.749	209.181	67	44
208.751	209.182	72	44
208.751	209.182	75	52
208.752	208.891	48	40
208.891	209.034	51	36
209.038	209.185	55	36
209.185	209.339	77	50
209.186	209.34	60	36
209.34	209.773	74	53
209.342	209.483	48	40
209.486	209.626	53	40
209.629	209.773	55	36
209.777	209.931	59	36
209.777	209.93	75	50
209.931	210.477	72	52
209.934	210.074	48	40
210.078	210.221	51	40
210.222	210.365	55	36
210.368	210.508	60	36
210.477	210.512	74	48
210.514	210.655	72	52
210.515	210.656	63	40
210.658	210.799	71	51
210.659	210.799	67	36
210.802	210.945	72	51
210.806	210.946	63	36
210.946	211.054	74	50
210.949	211.093	62	36
211.058	211.093	77	49
211.094	211.237	60	40
211.094	211.236	75	56
211.237	211.383	74	52
211.239	211.383	67	36
211.384	211.527	60	36
211.384	211.526	75	52
211.387	211.53	63	36
211.531	211.685	67	36
211.531	211.684	77	52
211.685	211.838	79	56
211.688	211.842	59	41
211.688	211.842	62	41
211.842	211.999	67	36
211.999	212.146	79	55
212.0	212.15	56	36
212.0	212.15	60	36
212.15	212.304	67	36
212.304	213.213	79	57
212.305	212.461	55	40
212.462	212.618	59	29
212.618	212.773	62	28
212.773	212.93	67	28
212.933	213.074	55	40
213.077	213.218	59	31
213.218	213.368	77	51
213.22	213.368	62	31
213.369	213.441	79	53
213.371	213.518	67	31
213.442	213.483	77	48
213.484	213.519	79	48
213.519	214.103	80	56
213.521	213.662	53	40
213.665	213.808	56	36
213.809	213.959	59	37
213.959	214.103	62	37
214.107	214.25	53	40
214.107	214.393	74	52
214.251	214.393	56	36
214.397	214.541	59	36
214.397	214.54	75	51
214.541	214.691	62	36
214.541	214.614	77	53
214.617	214.656	75	50
214.656	214.691	77	50
214.694	214.834	51	40
214.694	215.279	79	56
214.837	214.981	55	34
214.981	215.131	60	34
215.132	215.279	63	33
215.28	215.423	56	41
215.28	215.566	72	52
215.423	215.569	60	35
215.57	215.713	63	35
215.57	215.713	72	53
215.713	215.856	74	54
215.717	215.859	66	35
215.859	216.003	75	57
215.86	216.003	55	40
216.004	216.146	60	40
216.147	216.301	75	53
216.15	216.301	63	35
216.302	216.445	67	35
216.302	216.444	77	55
216.445	216.588	74	57
216.447	216.591	55	40
216.591	216.734	59	36
216.735	216.878	74	51
216.736	216.882	62	36
216.882	217.029	75	54
216.883	217.029	67	36
217.033	217.318	60	57
217.033	217.176	72	57
217.176	217.319	71	52
217.319	217.466	72	53
217.467	217.61	74	54
217.61	217.756	75	55
217.757	217.9	76	56
217.904	218.043	77	58
218.048	218.198	79	59
218.198	218.341	80	60
218.199	218.342	41	58
218.342	218.481	79	57
218.345	218.481	44	48
218.482	218.625	82	63
218.485	218.625	47	49
218.629	218.772	50	51
218.629	218.771	80	62
218.772	218.919	79	62
218.775	218.919	41	53
218.92	219.063	44	54
218.92	219.062	77	61
219.063	219.206	75	60
219.065	219.209	47	56
219.21	219.36	50	57
219.21	219.356	74	58
219.36	219.5	39	58
219.36	219.496	79	66
219.5	219.639	78	60
219.501	219.644	43	57
219.644	219.787	80	67
219.646	219.788	48	55
219.79	219.934	51	56
219.79	219.934	79	66
219.934	220.077	77	66
219.938	220.078	44	57
220.078	220.224	75	65
220.081	220.224	48	57
220.225	220.368	51	58
220.225	220.367	74	65
220.368	220.518	72	64
220.371	220.522	54	60
220.522	220.661	75	71
220.523	220.666	43	64
220.666	220.801	74	64
220.668	220.804	48	58
220.804	220.949	77	70
220.805	220.949	51	63
220.951	221.091	75	62
220.953	221.095	55	63
221.095	221.238	74	69
221.096	221.239	43	62
221.239	221.382	73	66
221.242	221.383	55	61
221.385	221.529	75	64
221.386	221.529	43	58
221.529	221.672	74	60
221.533	221.673	55	57
221.673	221.969	72	66
221.675	221.823	48	67
221.826	221.97	60	52
221.97	222.113	59	60
222.117	222.256	60	52
222.26	222.404	58	64
222.358	222.456	84	68
222.405	222.55	60	51
222.456	222.551	86	70
222.551	222.648	88	73
222.554	222.694	55	57
222.649	222.74	86	70
222.695	222.842	60	50
222.74	222.842	84	66
222.842	222.992	89	77
222.843	222.993	56	63
222.993	223.135	60	50
223.139	223.278	53	57
223.282	223.419	60	50
223.422	223.569	58	59
223.523	223.614	84	66
223.57	223.716	60	50
223.618	223.716	86	69
223.717	223.808	88	72
223.72	223.863	55	55
223.811	223.905	86	70
223.864	224.0	60	50
223.906	224.001	84	67
224.003	224.153	89	77
224.004	224.154	56	63
224.154	224.301	60	50
224.304	224.441	53	57
224.444	224.587	60	50
224.588	224.738	58	59
224.689	224.784	84	66
224.738	224.881	60	50
224.784	224.882	86	69
224.885	224.976	88	72
224.886	225.022	55	55
224.977	225.074	86	70
225.022	225.168	60	50
225.074	225.169	84	67
225.169	225.312	89	86
225.172	225.312	56	77
225.463	225.62	72	76
225.467	225.621	75	76
225.467	225.621	78	76
225.467	225.624	84	90
225.468	225.624	44	62
225.47	225.625	48	62
225.47	225.627	51	62
225.47	225.627	56	73
225.771	225.928	72	76
225.775	225.929	75	76
225.775	225.929	79	76
225.775	225.932	84	90
225.776	225.932	43	62
225.778	225.933	48	62
225.778	225.933	51	62
225.778	225.935	55	73
226.079	226.233	71	76
226.079	226.236	74	76
226.079	226.237	79	76
226.083	226.241	43	62
226.083	226.241	47	62
226.083	226.24	83	90
226.086	226.243	50	62
226.086	226.243	55	73
226.391	226.54	72	76
226.394	226.544	75	76
226.394	226.545	79	76
226.397	226.547	84	90
226.398	226.548	36	76
226.548	226.688	48	52
226.688	226.834	47	60
226.835	226.978	48	52
226.978	227.125	46	64
227.076	227.174	72	68
227.126	227.269	48	51
227.178	227.269	74	70
227.27	227.367	76	73
227.272	227.412	43	57
227.371	227.461	74	70
227.416	227.559	48	50
227.462	227.56	72	66
227.56	227.71	77	77
227.563	227.71	44	63
227.71	227.853	48	50
227.854	228.0	41	57
228.0	228.14	48	50
228.141	228.291	46	59
228.245	228.337	72	66
228.291	228.434	48	50
228.337	228.438	74	69
228.438	228.532	76	72
228.439	228.574	43	55
228.536	228.627	74	70
228.574	228.722	48	50
228.627	228.722	72	67
228.723	228.875	77	77
228.724	228.876	44	63
228.879	229.023	48	50
229.023	229.166	41	57
229.167	229.306	48	50
229.306	229.456	46	59
229.41	229.505	60	66
229.457	229.603	48	50
229.506	229.603	62	69
229.604	229.694	64	72
229.607	229.743	43	55
229.698	229.792	62	70
229.744	229.89	48	50
229.796	229.894	60	67
229.895	229.985	65	63
229.897	230.177	44	45
229.989	230.082	60	50
230.086	230.178	62	50
230.181	230.276	63	63
230.182	230.464	44	45
230.182	230.469	56	45
230.276	230.366	62	50
230.37	230.471	60	50
230.472	230.566	66	68
230.566	230.656	60	52
230.66	230.758	62	53
230.759	230.895	44	41
230.759	230.849	63	60
230.761	230.898	48	41
230.762	230.898	51	41
230.762	230.902	56	49
230.849	230.951	62	50
230.951	231.048	60	50
231.049	231.14	67	69
231.141	231.241	60	51
231.241	231.332	62	52
231.333	231.476	43	44
231.333	231.427	63	58
231.336	231.476	48	44
231.336	231.479	51	44
231.336	231.479	55	52
231.428	231.525	62	51
231.525	231.623	60	52
231.623	231.72	69	69
231.724	231.815	60	54
231.815	231.907	62	55
231.907	232.004	63	62
231.91	232.053	42	46
231.91	232.054	48	46
231.91	232.054	51	46
231.914	232.056	54	55
232.008	232.099	62	55
232.099	232.197	60	55
232.197	232.291	71	70
232.292	232.389	59	55
232.39	232.48	60	55
232.484	232.575	62	61
232.485	232.627	41	48
232.485	232.628	47	48
232.487	232.63	50	48
232.487	232.631	53	57
232.575	232.672	60	55
232.673	232.771	59	54
232.774	232.865	72	72
232.865	232.957	60	55
232.96	233.054	62	55
233.058	233.149	63	63
233.059	233.195	39	51
233.061	233.198	43	51
233.062	233.198	48	51
233.062	233.201	51	60
233.149	233.244	62	56
233.244	233.341	60	58
233.342	233.432	74	74
233.436	233.527	62	56
233.527	233.624	63	56
233.628	233.719	65	62
233.629	233.765	41	53
233.629	233.765	44	53
233.63	233.768	50	53
233.631	233.768	53	63
233.72	233.81	63	54
233.81	233.909	62	54
233.912	234.003	71	75
234.006	234.101	59	53
234.102	234.196	60	53
234.196	234.286	62	65
234.197	234.335	43	56
234.198	234.336	47	56
234.199	234.336	50	56
234.199	234.339	55	66
234.289	234.381	60	55
234.381	234.479	59	55
234.479	234.78	60	67
234.48	234.78	72	79
234.482	234.629	36	65
234.482	234.63	48	77
234.78	235.644	51	70
234.783	235.648	55	70
234.783	235.649	60	83
235.077	235.361	79	84
235.362	235.431	77	80
235.431	235.5	75	79
235.501	235.574	74	78
235.577	235.649	72	77
235.651	235.795	74	79
235.652	235.799	53	65
235.652	235.799	56	65
235.652	235.799	60	65
235.655	235.802	62	77
235.948	236.806	55	70
235.949	236.807	59	70
235.949	236.807	62	83
236.239	236.522	77	84
236.523	236.596	75	80
236.6	236.666	74	79
236.67	236.736	72	78
236.736	236.81	71	77
236.81	236.958	51	65
236.81	236.957	72	79
236.814	236.96	55	65
236.814	236.961	60	77
237.108	237.972	51	70
237.108	237.975	55	70
237.111	237.976	60	83
237.398	237.681	79	84
237.681	237.759	77	80
237.759	237.828	75	79
237.829	237.905	74	78
237.906	237.976	72	77
237.979	238.126	53	65
237.979	238.123	74	79
237.98	238.126	56	65
237.98	238.126	60	65
237.982	238.13	62	77
238.276	239.133	55	70
238.277	239.134	59	70
238.277	239.134	62	83
238.567	238.85	77	84
238.851	238.92	75	80
238.921	238.987	74	79
238.987	239.064	72	78
239.064	239.137	71	77
239.138	239.288	51	65
239.138	239.284	72	79
239.141	239.288	55	65
239.141	239.289	60	77
239.434	240.299	51	70
239.435	240.299	55	70
239.439	240.303	60	83
239.725	240.009	79	84
240.009	240.085	77	80
240.086	240.155	75	79
240.156	240.226	74	78
240.227	240.303	72	77
240.306	240.477	53	65
240.306	240.474	73	79
240.307	240.478	56	65
240.31	240.478	61	77
240.65	241.286	53	70
240.65	241.29	56	70
240.651	241.29	61	83
240.968	243.067	89	100
241.29	241.531	53	71
241.294	241.531	56	71
241.294	241.535	61	84
241.769	243.971	55	77
241.77	243.971	58	77
241.77	243.971	61	77
241.773	243.971	63	91
243.072	243.18	87	86
243.183	243.285	85	85
243.285	243.389	84	83
243.39	243.971	82	82
243.489	243.971	80	81
243.586	243.971	79	79
243.681	243.971	77	78
243.772	243.971	75	77
243.869	243.971	73	75
243.968	244.591	72	74
244.01	244.591	70	72
244.059	244.591	68	71
244.105	244.591	67	70
244.149	244.591	65	68
244.195	244.591	63	69
244.244	244.591	61	70
244.285	244.591	60	71
244.325	244.591	58	71
244.371	244.591	56	71
244.42	244.591	55	71
244.471	244.591	53	71
244.524	244.591	51	71
244.584	247.418	49	93
244.587	247.419	31	69
244.587	247.419	39	69
244.591	247.422	43	82
247.719	247.869	56	49
247.87	248.027	58	51
248.028	248.486	60	52
248.031	249.256	44	40
248.031	248.643	51	40
248.486	248.644	61	50
248.644	249.095	58	53
248.647	249.259	49	40
249.095	249.26	60	50
249.26	249.56	56	52
249.264	249.561	44	40
249.264	249.561	48	40
250.169	250.32	68	46
250.323	250.478	70	48
250.478	250.936	72	49
250.479	251.706	56	38
250.481	251.094	63	38
250.937	251.094	73	47
251.095	251.545	70	49
251.097	251.71	61	37
251.546	251.71	72	46
251.711	252.011	68	47
251.713	252.011	56	36
251.713	252.012	60	36
252.619	252.927	72	40
252.927	253.239	78	40
252.928	253.239	75	40
252.931	253.242	68	35
253.862	254.17	72	40
254.171	254.486	75	40
254.171	254.481	79	40
254.173	254.486	67	34
255.104	255.202	87	97
255.202	255.301	86	90
255.301	255.398	84	90
255.399	255.493	89	96
255.403	255.685	43	67
255.403	255.686	47	67
255.403	255.686	50	67
255.405	255.687	55	79
255.494	255.591	87	89
255.591	255.689	86	90
255.689	255.783	84	97
255.784	255.882	83	92
255.882	255.976	80	92
255.976	256.074	79	90
256.075	256.172	77	92
256.172	256.27	75	93
256.273	256.371	74	95
256.372	256.462	72	97
256.463	256.561	71	99
256.561	256.858	72	101
256.564	256.858	36	69
256.564	256.859	39	69
256.565	256.859	43	69
256.568	256.862	48	82
