OnsetTime	OffsetTime	MidiPitch	Velocity
0.500004	3.10298	31	89
1.87932	3.10298	34	62
2.05173	3.10298	38	65
2.22284	3.10298	43	68
2.3855	3.10298	46	71
2.52981	3.10298	50	74
2.66998	3.10298	55	76
2.804	3.10298	58	76
2.93542	3.10298	62	79
3.06429	7.03765	67	86
4.66758	7.03765	66	67
4.83367	7.03765	63	68
4.99181	7.03765	62	69
5.14284	7.03765	60	69
5.28728	7.03765	58	70
5.42576	7.03765	57	71
5.55868	7.03765	55	71
5.68654	7.03765	54	72
5.80367	7.03765	51	70
5.91704	7.03765	50	71
6.02712	7.03765	48	72
6.13401	7.01075	46	72
6.23766	7.03765	45	73
6.33879	7.03765	43	74
6.43692	7.03765	42	75
6.53311	7.03765	39	76
6.62927	7.03765	38	77
6.72501	7.03765	36	78
6.82055	7.03765	34	78
6.91581	7.03765	33	79
7.01075	10.0045	31	83
7.01075	9.12921	46	88
8.73933	10.0045	34	60
8.73933	9.24027	50	67
8.88053	10.0045	38	62
8.88053	9.34777	55	69
9.00989	10.0045	43	63
9.00989	9.45404	58	70
9.12921	10.0045	46	65
9.12921	9.5592	62	72
9.24027	10.0045	50	66
9.24027	9.66325	67	73
9.34777	10.0045	55	67
9.34777	9.76624	70	75
9.45404	10.0045	58	69
9.45404	9.86818	74	76
9.5592	10.0045	62	70
9.5592	9.96919	79	78
9.66325	10.0045	67	72
9.66325	10.0045	82	79
9.76624	10.0045	70	73
9.76624	10.0045	86	81
9.86818	10.0045	74	75
9.86818	10.0045	89	86
9.96919	12.2578	79	84
9.96919	14.0159	94	89
11.3266	12.3573	78	56
11.3266	14.0159	93	65
11.4572	12.4534	75	57
11.4572	14.0159	91	66
11.5845	12.5464	74	57
11.5845	14.0159	90	66
11.7071	12.6364	72	58
11.7071	14.0159	87	67
11.8254	12.7238	70	58
11.8254	14.0159	86	67
11.9392	12.8085	69	59
11.9392	14.0159	84	68
12.0488	12.8908	67	60
12.0488	14.0159	82	69
12.155	12.9723	66	60
12.155	14.0159	81	69
12.2578	13.0534	63	61
12.2578	14.0159	79	70
12.3573	13.1342	62	61
12.3573	14.0159	78	70
12.4534	13.2144	60	62
12.4534	14.0159	75	71
12.5464	13.2943	58	63
12.5464	14.0159	74	71
12.6364	13.3737	57	63
12.6364	14.0159	72	72
12.7238	13.4527	55	64
12.7238	14.0159	70	72
12.8085	13.5313	54	64
12.8085	14.0159	69	73
12.8908	13.6095	51	65
12.8908	14.0159	67	73
12.9723	13.6872	50	65
12.9723	14.0159	66	74
13.0534	13.7646	48	66
13.0534	14.0159	63	74
13.1342	13.8416	46	67
13.1342	14.0159	62	75
13.2144	13.9182	45	67
13.2144	14.0159	60	76
13.2943	13.9943	43	68
13.2943	14.0159	58	76
13.3737	14.0159	42	68
13.3737	14.0159	57	77
13.4527	14.0159	39	69
13.4527	14.0159	55	77
13.5313	13.8416	38	70
13.5313	14.0159	54	78
13.6095	13.9182	36	70
13.6095	14.0159	51	78
13.6872	13.9943	34	71
13.6872	14.0159	50	79
13.7646	14.0159	33	71
13.7646	14.0159	48	79
13.8416	14.0159	38	72
13.8416	14.0159	46	80
13.9182	14.0159	36	72
13.9182	14.0159	45	80
13.9943	16.8559	31	82
13.9943	16.8559	34	82
13.9943	15.663	43	89
15.5529	16.8559	38	60
15.5529	15.7653	46	67
15.663	16.8559	43	62
15.663	15.8612	50	69
15.7653	16.8559	46	63
15.7653	15.9516	55	70
15.8612	16.8559	50	65
15.8612	16.037	58	72
15.9516	16.8559	55	66
15.9516	16.1187	62	73
16.037	16.8559	58	67
16.037	16.1991	67	75
16.1187	16.8559	62	69
16.1187	16.2789	70	76
16.1991	16.8559	67	70
16.1991	16.3581	74	78
16.2789	16.8559	70	72
16.2789	16.4367	79	79
16.3581	16.8559	74	73
16.3581	16.5146	82	81
16.4367	16.8559	79	72
16.4367	16.5919	86	82
16.5146	16.8559	82	74
16.5146	16.6687	91	84
16.5919	16.8559	86	76
16.5919	18.3085	94	87
16.6687	18.5585	91	84
16.6687	21.0394	98	89
18.1779	18.7906	87	56
18.1779	21.0394	96	65
18.3085	18.9002	86	56
18.3085	21.0394	94	65
18.4359	19.0063	84	56
18.4359	21.0394	93	65
18.5585	19.1091	82	57
18.5585	21.0394	91	66
18.6767	19.2086	81	57
18.6767	21.0394	90	66
18.7906	19.3048	79	58
18.7906	21.0394	87	67
18.9002	19.3978	78	58
18.9002	21.0394	86	67
19.0063	19.4878	75	59
19.0063	21.0394	84	68
19.1091	19.5751	74	60
19.1091	21.0394	82	69
19.2086	19.6599	72	60
19.2086	21.0394	81	69
19.3048	19.7421	70	61
19.3048	21.0394	79	70
19.3978	19.8237	69	61
19.3978	21.0394	78	70
19.4878	19.9048	67	62
19.4878	21.0394	75	71
19.5751	19.9855	66	63
19.5751	21.0394	74	71
19.6599	20.0657	63	63
19.6599	21.0394	72	72
19.7421	20.1456	62	64
19.7421	21.0394	70	72
19.8237	20.225	60	64
19.8237	21.0394	69	73
19.9048	20.304	58	65
19.9048	21.0394	67	73
19.9855	20.3826	57	65
19.9855	21.0394	66	74
20.0657	20.4608	55	66
20.0657	21.0394	63	74
20.1456	20.5386	54	67
20.1456	21.0394	62	75
20.225	20.616	51	67
20.225	21.0394	60	76
20.304	20.6929	50	68
20.304	21.0394	58	76
20.3826	20.7695	48	68
20.3826	21.0394	57	77
20.4608	20.8457	46	69
20.4608	21.0394	55	77
20.5386	20.9215	45	68
20.5386	21.0394	54	78
20.616	20.9969	43	69
20.616	21.0394	51	77
20.6929	21.0394	42	70
20.6929	21.0394	50	78
20.7695	21.0394	39	71
20.7695	21.0394	48	80
20.8457	21.0394	38	73
20.8457	21.0394	46	82
20.9215	21.0394	36	74
20.9215	21.0394	45	83
20.9969	26.3483	31	82
20.9969	26.3483	34	82
20.9969	23.2227	43	89
22.3298	26.2646	35	48
22.3298	23.3175	44	68
22.4574	26.1809	36	49
22.4574	23.4094	45	68
22.5795	26.0979	37	49
22.5795	23.4985	46	69
22.6969	26.0156	38	50
22.6969	23.585	47	70
22.8098	25.9337	39	51
22.8098	23.6691	48	70
22.9185	25.8524	40	52
22.9185	23.7508	49	71
23.0235	25.7716	41	52
23.0235	23.8304	50	72
23.1247	25.6914	42	53
23.1247	23.9085	51	72
23.2227	25.6118	43	54
23.2227	23.9866	52	73
23.3175	25.5327	44	55
23.3175	24.0648	53	74
23.4094	25.4541	45	55
23.4094	24.1429	54	74
23.4985	25.376	46	56
23.4985	24.221	55	75
23.585	25.2984	47	57
23.585	24.2991	56	76
23.6691	25.2213	48	58
23.6691	24.3772	57	76
23.7508	25.1447	49	58
23.7508	24.4554	58	77
23.8304	25.0687	50	59
23.8304	25.0687	59	77
23.9085	24.9928	51	60
23.9085	24.9928	60	78
23.9866	24.9166	52	61
23.9866	24.9166	61	79
24.0648	24.8403	53	61
24.0648	24.8403	62	80
24.1429	24.7637	54	62
24.1429	24.7637	63	80
24.221	24.6869	55	63
24.221	24.6869	64	81
24.2991	24.61	56	64
24.2991	24.61	65	81
24.3772	24.5327	57	64
24.3772	24.5327	66	82
24.4554	25.1447	58	59
24.4554	26.7034	67	85
24.5327	25.2213	57	59
24.5327	26.7034	66	84
24.61	25.2984	56	58
24.61	26.7034	65	83
24.6869	25.376	55	57
24.6869	26.7034	64	81
24.7637	25.4541	54	57
24.7637	26.7034	63	80
24.8403	25.5327	53	56
24.8403	26.7034	62	79
24.9166	25.6118	52	55
24.9166	26.7034	61	78
24.9928	25.6914	51	55
24.9928	26.7034	60	76
25.0687	25.7716	50	52
25.0687	26.7034	59	74
25.1447	25.8524	49	53
25.1447	26.7034	58	75
25.2213	25.9337	48	54
25.2213	26.7034	57	76
25.2984	26.0156	47	56
25.2984	26.7034	56	77
25.376	26.0979	46	57
25.376	26.7034	55	78
25.4541	26.1809	45	59
25.4541	26.7034	54	79
25.5327	26.2646	44	60
25.5327	26.7034	53	81
25.6118	26.3483	43	62
25.6118	26.7034	52	82
25.6914	26.7034	42	66
25.6914	26.7034	51	83
25.7716	26.7034	41	67
25.7716	26.7034	50	84
25.8524	26.7034	40	69
25.8524	26.7034	49	86
25.9337	26.7034	39	71
25.9337	26.7034	48	88
26.0156	26.7034	38	72
26.0156	26.7034	47	89
26.0979	26.7034	37	74
26.0979	26.7034	46	91
26.1809	26.7034	36	75
26.1809	26.7034	45	93
26.2646	26.7034	35	77
26.2646	26.7034	44	95
26.3483	26.7034	31	88
26.3483	26.7034	34	88
26.3483	26.7034	43	108
27.3568	28.8988	55	60
27.3568	28.8988	58	71
27.3568	28.8988	62	71
27.3568	28.8988	67	85
27.3568	28.8988	91	77
27.3568	28.8988	94	77
27.3568	28.8988	98	91
27.3568	28.8988	103	107
31.5692	34.2006	43	42
31.6712	34.2006	50	47
31.7818	32.1006	58	53
31.8952	34.2006	62	56
31.9984	32.2015	55	36
32.1006	32.3012	58	45
32.2015	32.3999	55	35
32.3012	32.4975	58	45
32.3999	32.5938	55	35
32.4975	32.6891	58	45
32.5938	32.783	55	36
32.6891	32.8769	58	46
32.783	32.9702	55	37
32.8769	33.0634	58	46
32.9702	33.1561	55	37
33.0634	33.2485	58	47
33.1561	33.3406	55	37
33.2485	33.4326	58	47
33.3406	33.525	55	38
33.4326	33.6177	58	47
33.525	33.7108	55	38
33.6177	33.804	58	48
33.7108	33.8976	55	38
33.804	33.9914	58	48
33.8976	34.0856	55	38
33.9914	34.2006	58	49
34.0856	34.2006	55	39
34.18	34.367	63	54
34.18	34.934	67	63
34.2741	34.4585	55	40
34.367	34.5499	63	49
34.4585	34.6413	55	37
34.5499	34.7332	63	45
34.6413	34.8252	55	50
34.7332	34.934	63	38
34.8252	34.934	55	45
34.9183	35.1057	62	53
34.9183	35.686	66	60
35.0124	35.1983	55	38
35.1057	35.2902	62	48
35.1983	35.3828	55	39
35.2902	35.4759	62	45
35.3828	35.5696	55	39
35.4759	35.686	62	49
35.5696	35.686	55	45
35.6639	35.8524	60	53
35.6639	36.4979	63	60
35.7585	35.9457	55	37
35.8524	36.0386	60	48
35.9457	36.1363	55	38
36.0386	36.2399	60	47
36.1363	36.3505	55	37
36.2399	36.4979	60	47
36.3505	36.4979	55	38
36.4689	36.6633	58	49
36.4689	38.763	62	56
36.5659	36.7599	55	36
36.6633	36.8556	58	45
36.7599	36.9506	55	35
36.8556	37.0447	58	45
36.9506	37.1381	55	35
37.0447	37.2308	58	45
37.1381	37.3227	55	35
37.2308	37.4147	58	45
37.3227	37.5066	55	35
37.4147	37.5986	58	44
37.5066	37.6905	55	34
37.5986	37.7825	58	42
37.6905	37.8744	55	33
37.7825	37.9665	58	41
37.8744	38.059	55	33
37.9665	38.1517	58	36
38.059	38.2447	55	32
38.1517	38.3379	58	41
38.2447	38.4316	55	33
38.3379	38.5253	58	42
38.4316	38.6195	55	34
38.5253	38.7933	58	44
38.6195	38.7933	55	35
38.6674	38.8669	53	39
38.7152	38.9597	57	54
38.763	39.5732	62	63
38.8669	39.0512	53	40
38.9597	39.1426	57	49
39.0512	39.234	53	37
39.1426	39.3259	57	45
39.234	39.418	53	50
39.3259	39.5732	57	38
39.418	39.5732	53	45
39.4645	39.6516	51	44
39.511	39.745	55	53
39.5575	40.3735	60	60
39.6516	39.8375	51	38
39.745	39.9295	55	48
39.8375	40.0221	51	39
39.9295	40.1151	55	45
40.0221	40.2088	51	39
40.1151	40.3735	55	49
40.2088	40.3735	51	45
40.2562	40.4468	50	44
40.3036	40.5407	53	53
40.351	41.1973	58	60
40.4468	40.634	50	37
40.5407	40.7265	53	48
40.634	40.8198	50	38
40.7265	40.9137	53	47
40.8198	41.0084	50	37
40.9137	41.1973	53	47
41.0084	41.1973	50	38
41.0617	41.2654	48	36
41.1151	41.3627	51	49
41.1684	43.4366	57	56
41.2654	41.4593	48	36
41.3627	41.555	51	45
41.4593	41.6501	48	36
41.555	41.7441	51	47
41.6501	41.8376	48	37
41.7441	41.9302	51	48
41.8376	42.0222	48	37
41.9302	42.1141	51	49
42.0222	42.2061	48	39
42.1141	42.298	51	50
42.2061	42.39	48	40
42.298	42.4819	51	51
42.39	42.5739	48	41
42.4819	42.666	51	52
42.5739	42.7585	48	42
42.666	42.8511	51	54
42.7585	42.9442	48	43
42.8511	43.0374	51	54
42.9442	43.131	48	44
43.0374	43.2248	51	56
43.131	43.3193	48	45
43.2248	43.4155	51	57
43.3193	43.4366	48	46
43.4155	43.6076	51	64
43.4155	44.2299	60	81
43.5122	43.702	48	44
43.6076	43.7953	51	57
43.702	43.8887	48	40
43.7953	43.982	51	49
43.8887	44.0746	48	54
43.982	44.2299	51	41
44.0746	44.2299	48	48
44.1211	44.3083	49	47
44.1677	44.4017	52	58
44.2142	44.985	57	75
44.3083	44.4942	49	40
44.4017	44.5861	52	50
44.4942	44.6787	49	41
44.5861	44.7718	52	49
44.6787	44.8655	49	43
44.7718	44.9625	52	51
44.8655	44.985	49	46
44.9625	45.1522	52	58
44.9625	45.7233	55	68
45.0583	45.2455	49	38
45.1522	45.338	52	49
45.2455	45.4313	49	39
45.338	45.5251	52	47
45.4313	45.6199	49	37
45.5251	45.804	52	47
45.6199	45.804	49	38
45.6716	45.872	50	49
45.7233	45.9694	55	49
45.775	47.2797	58	67
45.872	46.066	50	36
45.9694	46.1617	55	45
46.066	46.2567	50	36
46.1617	46.3507	55	47
46.2567	46.4442	50	37
46.3507	46.5367	55	48
46.4442	46.6274	50	37
46.5367	46.7173	55	49
46.6274	46.8079	50	39
46.7173	46.8988	55	48
46.8079	46.9885	50	38
46.8988	47.0773	55	47
46.9885	47.167	50	37
47.0773	47.2797	55	46
47.167	47.2797	50	36
47.2581	47.4433	54	45
47.2581	48.0546	57	54
47.3506	47.5363	50	36
47.4433	47.6295	54	45
47.5363	47.7232	50	36
47.6295	47.8169	54	45
47.7232	47.9111	50	36
47.8169	48.0785	54	45
47.9111	48.0785	50	36
47.959	48.1529	48	39
48.0068	48.2467	51	54
48.0546	48.8604	57	63
48.1529	48.3392	48	40
48.2467	48.4308	51	49
48.3392	48.5233	48	37
48.4308	48.6166	51	45
48.5233	48.7105	48	50
48.6166	48.8604	51	38
48.7105	48.8604	48	45
48.757	48.9405	46	44
48.8036	49.0353	50	53
48.8443	49.6643	55	60
48.9405	49.1285	46	38
49.0353	49.2208	50	48
49.1285	49.3144	46	39
49.2208	49.4094	50	45
49.3144	49.5055	46	39
49.4094	49.6003	50	49
49.5055	49.6643	46	45
49.5529	49.7385	45	44
49.6003	49.8343	50	53
49.6417	50.5014	54	60
49.7385	49.9292	45	37
49.8343	50.0235	50	48
49.9292	50.119	45	38
50.0235	50.2159	50	47
50.119	50.3138	45	37
50.2159	50.4228	50	47
50.3138	50.5014	45	36
50.3683	52.7784	43	45
50.4228	52.7784	50	45
50.4753	50.6051	58	45
50.5014	52.7578	62	56
50.6051	50.8082	55	36
50.7073	50.9079	58	45
50.8082	51.0066	55	35
50.9079	51.1041	58	45
51.0066	51.2005	55	35
51.1041	51.2957	58	45
51.2005	51.3888	55	35
51.2957	51.4814	58	46
51.3888	51.5735	55	37
51.4814	51.6651	58	46
51.5735	51.7562	55	37
51.6651	51.8467	58	47
51.7562	51.9368	55	37
51.8467	52.026	58	47
51.9368	52.1151	55	38
52.026	52.2049	58	47
52.1151	52.2953	55	38
52.2049	52.3864	58	48
52.2953	52.4782	55	38
52.3864	52.5706	58	48
52.4782	52.6638	55	38
52.5706	52.7784	58	49
52.6638	52.7784	55	39
52.7578	52.9448	59	59
52.7578	53.5118	62	76
52.8519	53.0363	55	44
52.9448	53.1277	59	53
53.0363	53.2191	55	41
53.1277	53.311	59	49
53.2191	53.403	55	56
53.311	53.5118	59	42
53.403	53.5118	55	50
53.4961	53.6835	60	66
53.4961	54.2417	63	81
53.5902	53.7761	55	49
53.6835	53.868	60	59
53.7761	53.9606	55	47
53.868	54.0537	60	56
53.9606	54.1474	55	49
54.0537	54.2417	60	56
54.1474	54.2638	55	52
54.2417	54.4302	58	68
54.2417	55.0424	60	74
54.2417	55.0424	63	74
54.3363	54.5235	54	49
54.4302	54.6159	58	62
54.5235	54.7106	54	49
54.6159	54.81	58	58
54.7106	54.9215	54	43
54.81	55.0713	58	55
54.9215	55.0713	54	45
55.0424	55.2332	57	49
55.0424	57.2509	60	68
55.0424	57.2509	63	68
55.1383	55.3272	53	36
55.2332	55.4201	57	45
55.3272	55.5122	53	35
55.4201	55.6034	57	45
55.5122	55.6936	53	35
55.6034	55.7831	57	45
55.6936	55.8723	53	35
55.7831	55.9617	57	45
55.8723	56.0515	53	36
55.9617	56.1414	57	45
56.0515	56.2318	53	36
56.1414	56.3223	57	45
56.2318	56.4132	53	36
56.3223	56.5042	57	45
56.4132	56.5956	53	36
56.5042	56.6875	57	45
56.5956	56.7806	53	36
56.6875	56.8738	57	45
56.7806	56.9674	53	37
56.8738	57.0612	57	47
56.9674	57.1557	53	38
57.0612	57.2509	57	48
57.1557	57.2715	53	39
57.2509	57.438	57	54
57.2509	58.0068	60	63
57.2509	58.0068	63	63
57.3451	57.5295	54	40
57.438	57.6209	57	49
57.5295	57.7123	54	37
57.6209	57.8042	57	45
57.7123	57.8965	54	50
57.8042	58.0068	57	38
57.8965	58.0068	54	45
57.9911	58.1785	58	53
57.9911	58.7413	62	60
58.0852	58.2711	55	38
58.1785	58.363	58	48
58.2711	58.4556	55	39
58.363	58.5487	58	45
58.4556	58.6429	55	39
58.5487	58.7639	58	49
58.6429	58.7639	55	45
58.7413	58.931	56	53
58.7413	59.6043	62	60
58.8371	59.0243	53	37
58.931	59.1168	56	48
59.0243	59.2113	53	38
59.1168	59.3109	56	47
59.2113	59.4154	53	37
59.3109	59.6043	56	47
59.4154	59.6043	53	38
59.4687	59.6723	51	36
59.522	59.7697	55	49
59.5754	61.8435	60	56
59.6723	59.8663	51	36
59.7697	59.962	55	45
59.8663	60.057	51	36
59.962	60.1511	55	47
60.057	60.2445	51	37
60.1511	60.3372	55	48
60.2445	60.4292	51	37
60.3372	60.5211	55	49
60.4292	60.6131	51	39
60.5211	60.705	55	50
60.6131	60.797	51	40
60.705	60.8889	55	51
60.797	60.9809	51	41
60.8889	61.0729	55	52
60.9809	61.1654	51	42
61.0729	61.2581	55	54
61.1654	61.3512	51	43
61.2581	61.4444	55	54
61.3512	61.538	51	44
61.4444	61.6318	55	56
61.538	61.7263	51	45
61.6318	61.8225	55	57
61.7263	61.8435	51	46
61.8225	62.0146	55	64
61.8225	62.593	61	81
61.9192	62.109	52	44
62.0146	62.2023	55	57
62.109	62.2956	52	40
62.2023	62.389	55	49
62.2956	62.4828	52	54
62.389	62.5773	55	41
62.4828	62.593	52	48
62.5773	62.7648	55	58
62.5773	63.3482	60	75
62.6715	62.8574	52	40
62.7648	62.9493	55	50
62.8574	63.0419	52	41
62.9493	63.1349	55	49
63.0419	63.2287	52	43
63.1349	63.3257	55	51
63.2287	63.3482	52	46
63.3257	63.5154	55	58
63.3257	64.0919	58	68
63.4214	63.6087	52	38
63.5154	63.7012	55	49
63.6087	63.7944	52	39
63.7012	63.8883	55	47
63.7944	63.983	52	37
63.8883	64.0919	55	47
63.983	64.0919	52	37
64.0776	64.268	57	52
64.0776	65.6438	60	68
64.1728	64.3627	53	42
64.268	64.4573	57	52
64.3627	64.5515	53	41
64.4573	64.6454	57	51
64.5515	64.739	53	38
64.6454	64.8012	57	50
64.739	65.6438	53	41
64.7701	64.925	51	41
64.8012	65.0178	57	50
64.8323	65.6267	65	72
64.925	65.1105	51	43
65.0178	65.2032	57	53
65.1105	65.296	51	49
65.2032	65.3887	57	54
65.296	65.4815	51	43
65.3887	65.6438	57	50
65.4815	65.6438	51	42
65.5299	65.72	50	45
65.5783	65.72	58	52
65.6267	66.429	65	71
65.72	65.9067	50	43
65.8133	66.0	58	52
65.9067	66.0934	50	43
66.0	66.1867	58	53
66.0934	66.28	50	44
66.1867	66.429	58	53
66.28	66.429	50	44
66.324	66.5053	54	47
66.368	66.5982	57	53
66.4119	67.2105	60	74
66.5053	66.6903	54	44
66.5982	66.7817	57	54
66.6903	66.8731	54	44
66.7817	66.9654	57	54
66.8731	67.0585	54	45
66.9654	67.2105	57	55
67.0585	67.2105	54	45
67.1029	67.286	53	48
67.1473	67.286	58	55
67.1916	68.7844	62	75
67.286	67.4729	53	45
67.3797	67.5654	58	56
67.4729	67.6581	53	45
67.5654	67.7527	58	56
67.6581	67.8479	53	46
67.7527	68.7133	58	57
67.8479	68.7844	53	47
67.8958	68.0826	51	49
67.9437	68.1736	57	57
67.9917	68.7557	65	75
68.0826	68.2646	51	49
68.1736	68.3556	57	58
68.2646	68.4466	51	48
68.3556	68.5375	57	58
68.4466	68.6285	51	48
68.5375	68.7844	57	59
68.6285	68.7844	51	48
68.6709	68.8461	50	52
68.7133	68.9364	58	59
68.7557	69.485	65	77
68.8461	69.0262	50	49
68.9364	69.1157	58	58
69.0262	69.205	50	48
69.1157	69.2937	58	58
69.205	69.3822	50	49
69.2937	69.4704	58	58
69.3822	69.485	50	49
69.4704	69.6455	58	58
69.4704	70.2165	66	83
69.558	69.7328	50	49
69.6455	69.8208	58	58
69.7328	69.9097	50	49
69.8208	69.9994	58	58
69.9097	70.0892	50	50
69.9994	70.1638	58	58
70.0892	70.2165	50	51
70.1265	70.2933	51	54
70.1638	70.3852	58	59
70.2011	70.9292	67	81
70.2933	70.4768	51	51
70.3852	70.5679	58	59
70.4768	70.6589	51	51
70.5679	70.7493	58	58
70.6589	70.8394	51	51
70.7493	70.9292	58	60
70.8394	70.9382	51	52
70.9292	71.1091	58	61
70.9292	71.1091	61	61
70.9292	71.6859	67	84
71.019	71.1995	52	53
71.1091	71.2899	58	62
71.1091	71.2899	61	62
71.1995	71.3803	52	53
71.2899	71.4713	58	63
71.2899	71.4713	61	63
71.3803	71.5622	52	53
71.4713	71.6859	58	64
71.4713	71.669	61	64
71.5622	71.6859	52	54
71.669	71.8533	61	66
71.669	71.8533	64	66
71.669	72.4154	70	84
71.7612	71.9454	55	56
71.8533	72.0376	61	66
71.8533	72.0376	64	66
71.9454	72.1287	55	56
72.0376	72.2192	61	67
72.0376	72.2192	64	67
72.1287	72.3089	55	57
72.2192	72.4154	61	67
72.2192	72.3978	64	67
72.3089	72.4154	55	57
72.3978	72.579	64	67
72.3978	72.579	67	67
72.3978	73.1441	73	87
72.4879	72.6708	58	58
72.579	72.7631	64	68
72.579	72.7631	67	68
72.6708	72.8558	58	57
72.7631	72.9492	64	69
72.7631	72.9492	67	69
72.8558	73.0434	58	63
72.9492	73.1441	64	72
72.9492	73.1441	67	72
73.0434	73.1441	58	57
73.1441	73.2381	65	72
73.1441	74.6452	74	90
73.2381	73.4246	58	58
73.3316	73.5169	65	70
73.4246	73.6086	58	58
73.5169	73.7002	65	70
73.6086	73.7918	58	59
73.7002	74.6194	65	71
73.7918	74.6194	58	58
73.8833	74.0674	62	70
73.8833	74.6452	70	83
73.9753	74.1595	53	58
74.0674	74.2517	62	69
74.1595	74.3438	53	57
74.2517	74.4359	62	68
74.3438	74.5281	53	56
74.4359	74.6452	62	67
74.5281	74.6452	53	56
74.6194	74.8019	58	63
74.6194	76.1074	65	78
74.7104	74.8939	50	52
74.8019	74.9862	58	62
74.8939	75.079	50	51
74.9862	75.1721	58	62
75.079	75.2657	50	51
75.1721	75.3423	58	61
75.2657	75.3594	50	50
75.3594	75.5449	59	60
75.4525	75.6362	50	49
75.5449	75.7268	59	60
75.6362	75.8178	50	49
75.7268	75.9105	59	59
75.8178	76.0039	50	49
75.9105	76.1311	59	58
76.0039	76.1311	50	48
76.1074	76.2962	60	58
76.1074	77.6507	65	71
76.202	76.3899	51	48
76.2962	76.4833	60	57
76.3899	76.5772	51	47
76.4833	76.6716	60	56
76.5772	76.7663	51	46
76.6716	77.6507	60	56
76.7663	77.6507	51	46
76.8615	77.0506	57	56
76.9559	77.1459	48	45
77.0506	77.2419	57	55
77.1459	77.3383	48	45
77.2419	77.4353	57	54
77.3383	77.5329	48	44
77.4353	77.6507	57	53
77.5329	77.6507	48	44
77.6346	79.8173	46	56
77.6346	77.8289	50	45
77.6346	79.9028	58	56
77.7316	77.9255	53	36
77.8289	78.0212	50	45
77.9255	78.1163	53	36
78.0212	78.2103	50	47
78.1163	78.3038	53	38
78.2103	78.3964	50	49
78.3038	78.4884	53	38
78.3964	78.5803	50	49
78.4884	78.6723	53	36
78.5803	78.7642	50	48
78.6723	78.8562	53	39
78.7642	78.9481	50	51
78.8562	79.0401	53	39
78.9481	79.1322	50	52
79.0401	79.2247	53	39
79.1322	79.3173	50	53
79.2247	79.4104	53	41
79.3173	79.5036	50	50
79.4104	79.5972	53	38
79.5036	79.691	50	51
79.5972	79.7855	53	38
79.691	79.9028	50	50
79.7855	79.8493	53	38
79.8173	80.5873	46	50
79.8493	79.9784	53	48
79.8817	80.0738	57	50
79.8817	80.6961	62	57
79.9784	80.1682	53	40
80.0738	80.2615	57	49
80.1682	80.3548	53	36
80.2615	80.4482	57	49
80.3548	80.5408	53	40
80.4482	80.6961	57	49
80.5408	80.6961	53	39
80.5873	81.3639	46	53
80.6804	80.8678	55	52
80.6804	81.4287	63	63
80.7745	80.9604	51	43
80.8678	81.0523	55	54
80.9604	81.1449	51	41
81.0523	81.238	55	54
81.1449	81.3317	51	45
81.238	81.4512	55	55
81.3317	81.4512	51	46
81.3639	82.2701	46	56
81.4287	81.6184	54	55
81.4287	82.2412	63	68
81.5245	81.7117	49	38
81.6184	81.8042	54	56
81.7117	81.8975	49	39
81.8042	81.9913	54	55
81.8975	82.0861	49	43
81.9913	82.2412	54	54
82.0861	82.2701	49	38
82.1378	83.7749	45	60
82.2412	82.4355	54	57
82.2412	83.7749	63	71
82.3382	82.5321	48	36
82.4355	82.6278	54	45
82.5321	82.7229	48	36
82.6278	82.8169	54	47
82.7229	82.9104	48	37
82.8169	83.0119	54	48
82.9104	83.0119	48	38
83.0028	83.1835	53	52
83.0936	83.274	48	42
83.1835	83.3649	53	47
83.274	83.4547	48	36
83.3649	83.5435	53	45
83.4547	83.6328	48	36
83.5435	83.7533	53	45
83.6328	83.7749	48	36
83.6764	84.4541	46	57
83.7533	83.9384	53	45
83.7533	84.5498	62	68
83.8458	84.0315	50	36
83.9384	84.1247	53	45
84.0315	84.2183	50	36
84.1247	84.3121	53	45
84.2183	84.5736	50	36
84.3121	84.502	53	45
84.4541	85.2522	46	49
84.502	84.648	53	49
84.5498	84.7419	57	46
84.5498	85.3556	62	54
84.648	84.8344	53	35
84.7419	84.926	57	45
84.8344	85.0184	53	37
84.926	85.1117	57	45
85.0184	85.3556	53	38
85.1117	85.3556	57	46
85.2057	85.3556	51	38
85.2522	86.048	46	52
85.3395	85.5304	55	50
85.3395	86.1368	63	62
85.4357	85.6237	51	43
85.5304	85.716	55	51
85.6237	85.8096	51	39
85.716	85.9046	55	50
85.8096	86.0006	51	39
85.9046	86.1595	55	53
86.0006	86.1595	51	39
86.048	87.0558	46	60
86.1368	86.3295	54	53
86.1368	87.0268	63	69
86.2336	86.4244	49	37
86.3295	86.5187	54	48
86.4244	86.6142	49	38
86.5187	86.7111	54	47
86.6142	86.809	49	37
86.7111	87.0268	54	47
86.809	87.0558	49	37
86.8816	88.5605	45	60
87.0268	87.2212	54	57
87.0268	88.5605	63	71
87.1238	87.3178	48	36
87.2212	87.4135	54	45
87.3178	87.5085	48	35
87.4135	87.6026	54	49
87.5085	87.696	48	38
87.6026	87.7976	54	48
87.696	87.7976	48	40
87.7885	87.9692	53	52
87.8792	88.0597	48	41
87.9692	88.1506	53	46
88.0597	88.2404	48	36
88.1506	88.3292	53	45
88.2404	88.4185	48	36
88.3292	88.539	53	45
88.4185	88.5605	48	36
88.462	89.3503	46	57
88.539	88.7862	53	45
88.539	89.3503	62	68
88.6623	88.9104	50	36
88.7862	89.0352	53	45
88.9104	89.1606	50	36
89.0352	89.3355	53	45
89.1606	89.3503	50	36
89.3355	89.5721	53	51
89.3355	90.0675	56	58
89.3355	90.0453	58	68
89.4538	89.6904	50	43
89.5721	89.8087	53	51
89.6904	89.927	50	43
89.8087	90.0675	53	51
89.927	90.0675	50	43
90.0453	90.2819	55	51
90.0453	90.7551	58	68
90.1636	90.4002	51	43
90.2819	90.5185	55	51
90.4002	90.6368	51	43
90.5185	90.7551	55	51
90.6368	90.7739	51	42
90.7551	90.9863	55	54
90.7551	91.4551	58	56
90.7551	91.4438	60	71
90.8707	91.1012	52	44
90.9863	91.2158	55	54
91.1012	91.3301	52	46
91.2158	91.4551	55	54
91.3301	91.4551	52	46
91.4438	91.6701	57	54
91.4438	92.122	60	71
91.5571	91.7831	53	44
91.6701	91.896	57	54
91.7831	92.009	53	46
91.896	92.122	57	54
92.009	92.1303	53	46
92.122	92.343	57	56
92.122	92.7962	60	59
92.122	92.785	62	74
92.2325	92.4535	54	46
92.343	92.564	57	56
92.4535	92.6745	54	48
92.564	92.7962	57	56
92.6745	92.7962	54	48
92.785	93.0097	58	56
92.785	93.4755	62	74
92.8974	93.1221	55	46
93.0097	93.2345	58	56
93.1221	93.3468	55	48
93.2345	93.4755	58	57
93.3468	93.4755	55	48
93.4592	93.6766	60	59
93.4592	94.1277	63	61
93.4592	94.1113	65	77
93.5679	93.7853	57	48
93.6766	93.894	60	59
93.7853	94.0026	57	51
93.894	94.1277	60	59
94.0026	94.1277	57	51
94.1113	94.3287	62	59
94.1113	94.7635	65	77
94.22	94.4374	58	49
94.3287	94.5461	62	59
94.4374	94.6548	58	51
94.5461	94.7786	62	59
94.6548	94.7786	58	52
94.7635	94.9833	63	62
94.7635	95.4229	65	64
94.7635	95.4339	69	80
94.8734	95.0932	60	52
94.9833	95.2031	63	62
95.0932	95.313	60	54
95.2031	95.4339	63	62
95.313	95.4339	60	54
95.4229	95.6426	65	63
95.4229	96.0822	70	80
95.5328	95.7525	62	52
95.6426	95.8624	65	63
95.7525	95.9723	62	54
95.8624	96.0957	65	63
95.9723	96.0957	62	54
96.0822	96.2984	66	63
96.0822	96.7309	70	80
96.1903	96.4065	63	52
96.2984	96.5146	66	63
96.4065	96.6228	63	55
96.5146	96.7461	66	63
96.6228	96.7461	63	55
96.7309	96.9519	67	63
96.7309	97.3938	70	68
96.7309	97.4107	72	85
96.8414	97.0624	64	53
96.9519	97.1728	67	64
97.0624	97.2833	64	55
97.1728	97.3938	67	64
97.2833	97.4107	64	55
97.3938	97.6193	67	52
97.3938	97.6193	70	66
97.3938	98.0702	73	84
97.5066	97.732	64	53
97.6193	97.8448	67	52
97.6193	97.8448	70	66
97.732	97.9575	64	55
97.8448	98.8708	67	52
97.8448	98.0702	70	66
97.9575	98.1843	64	56
98.0702	98.2984	70	52
98.0702	98.2984	73	66
98.0702	99.509	79	87
98.1843	98.4125	64	55
98.2984	98.5265	70	52
98.2984	98.5265	73	66
98.4125	98.6406	64	58
98.5265	99.4516	70	52
98.5265	98.7547	73	66
98.6406	99.3355	64	58
98.7547	98.987	73	54
98.7547	98.987	76	68
98.7547	99.509	82	88
98.8708	99.1032	67	55
98.987	99.2193	73	54
98.987	99.2193	76	68
99.1032	99.509	67	58
99.2193	99.509	73	54
99.2193	99.509	76	68
99.3355	99.509	64	58
99.4516	99.5685	70	52
99.4516	99.5685	74	66
99.4516	102.422	77	85
99.5685	99.8008	65	55
99.6846	99.917	70	52
99.6846	99.917	74	65
99.8008	100.033	65	56
99.917	100.149	70	51
99.917	100.149	74	64
100.033	100.149	65	56
100.149	100.387	65	51
100.149	100.387	70	64
100.149	102.422	74	80
100.268	100.506	62	53
100.387	100.625	65	51
100.387	100.625	70	64
100.506	100.745	62	55
100.625	100.864	65	50
100.625	100.864	70	63
100.745	100.864	62	55
100.864	101.111	62	49
100.864	101.111	65	62
100.864	102.422	70	78
100.987	101.235	58	52
101.111	101.358	62	49
101.111	101.358	65	61
101.235	101.482	58	53
101.358	101.605	62	48
101.358	101.605	65	61
101.482	101.605	58	53
101.605	101.853	58	49
101.605	101.853	62	61
101.605	102.422	65	78
101.729	101.976	53	51
101.853	102.1	58	48
101.853	102.1	62	61
101.976	102.224	53	53
102.1	102.422	58	48
102.1	102.422	62	60
102.224	102.422	53	52
102.286	102.646	57	48
102.345	102.646	60	57
102.404	103.142	66	72
102.525	102.768	51	50
102.646	102.889	57	58
102.646	102.889	60	58
102.768	103.01	51	52
102.889	103.132	57	56
102.889	103.142	60	56
103.01	103.132	51	51
103.132	103.379	48	43
103.132	103.379	51	54
103.132	103.884	57	68
103.255	103.503	41	45
103.379	103.626	48	43
103.379	103.626	51	54
103.503	103.75	41	46
103.626	103.884	48	43
103.626	103.884	51	54
103.75	103.884	41	46
103.874	104.121	50	50
103.874	104.631	58	67
103.997	104.245	46	42
104.121	104.368	50	50
104.245	104.492	46	40
104.368	104.613	50	49
104.492	104.631	46	39
104.613	104.851	50	49
104.613	105.342	57	65
104.732	104.97	46	39
104.851	105.089	50	48
104.97	105.208	46	39
105.089	105.328	50	48
105.208	105.342	46	38
105.328	105.568	50	47
105.328	106.07	56	64
105.448	105.688	46	38
105.568	105.807	50	47
105.688	105.928	46	38
105.807	106.07	50	46
105.928	106.07	46	34
106.048	106.29	51	46
106.048	106.792	55	62
106.169	106.41	46	36
106.29	106.531	51	45
106.41	106.653	46	34
106.531	106.774	51	45
106.653	106.792	46	34
106.774	106.895	51	44
106.774	107.522	54	61
106.895	107.139	45	35
107.017	107.261	51	44
107.139	107.383	45	33
107.261	107.505	51	43
107.383	107.522	45	33
107.505	107.75	51	43
107.505	108.239	53	59
107.627	107.873	45	33
107.75	107.995	51	42
107.873	108.118	45	33
107.995	108.239	51	42
108.118	108.239	45	33
108.239	108.482	51	44
108.239	109.699	53	59
108.361	108.603	46	36
108.482	108.724	51	44
108.603	108.846	46	36
108.724	108.967	51	43
108.846	109.089	46	32
108.967	109.211	51	43
109.089	109.333	46	34
109.211	109.455	51	42
109.333	109.577	46	32
109.455	109.718	51	42
109.577	109.718	46	32
109.699	109.822	50	41
109.699	111.178	53	56
109.822	110.068	46	33
109.945	110.191	50	41
110.068	110.314	46	31
110.191	110.437	50	40
110.314	110.56	46	31
110.437	110.684	50	40
110.56	110.807	46	31
110.684	110.931	50	39
110.807	111.055	46	31
110.931	111.178	50	39
111.055	111.178	46	31
111.178	111.427	48	56
111.178	112.315	50	74
111.178	112.742	54	56
111.178	112.315	62	74
111.303	111.552	45	47
111.427	111.676	48	56
111.552	111.801	45	49
111.676	111.925	48	57
111.801	112.055	45	50
111.925	112.185	48	58
112.055	112.315	45	52
112.185	112.459	48	59
112.315	112.603	45	52
112.315	112.742	50	75
112.315	112.742	62	75
112.459	112.742	48	60
112.603	112.742	45	53
112.742	114.917	31	56
112.742	114.917	35	56
112.742	114.917	38	56
112.742	114.917	43	67
112.742	112.928	50	59
112.742	112.928	59	59
112.835	113.02	62	51
112.928	113.112	50	59
112.928	113.112	59	59
113.02	113.203	62	52
113.112	113.294	50	58
113.112	113.294	59	58
113.203	113.384	62	50
113.294	113.474	50	57
113.294	113.474	59	57
113.384	113.564	62	52
113.474	113.653	50	57
113.474	113.653	59	57
113.564	113.742	62	49
113.653	113.83	50	56
113.653	113.83	59	56
113.742	113.918	62	50
113.83	114.005	50	56
113.83	114.005	59	56
113.918	114.093	62	49
114.005	114.181	50	55
114.005	114.181	59	55
114.093	114.269	62	50
114.181	114.358	50	55
114.181	114.358	59	55
114.269	114.447	62	47
114.358	114.537	50	54
114.358	114.537	59	54
114.447	114.627	62	48
114.537	114.718	50	54
114.537	114.718	59	54
114.627	114.808	62	47
114.718	114.917	50	53
114.718	114.917	59	53
114.808	114.917	62	48
114.9	115.145	47	72
114.9	115.651	67	79
114.9	115.651	79	79
115.023	115.268	55	62
115.145	115.391	47	71
115.268	115.513	55	59
115.391	115.651	47	71
115.513	115.651	55	62
115.636	115.882	48	71
115.636	116.387	66	77
115.636	116.387	78	77
115.759	116.004	57	62
115.882	116.127	48	70
116.004	116.25	57	59
116.127	116.387	48	69
116.25	116.387	57	59
116.372	116.628	50	69
116.372	117.153	65	75
116.372	117.153	77	75
116.5	116.756	59	60
116.628	116.883	50	71
116.756	117.011	59	64
116.883	117.153	50	72
117.011	117.153	59	66
117.139	117.383	51	75
117.139	117.893	63	74
117.139	117.893	75	74
117.261	117.505	60	61
117.383	117.627	51	67
117.505	117.749	60	58
117.627	117.893	51	67
117.749	117.893	60	58
117.871	118.122	53	66
117.871	118.64	68	66
117.871	118.64	71	73
117.871	118.64	74	73
117.997	118.247	62	59
118.122	118.373	53	65
118.247	118.498	62	57
118.373	118.64	53	65
118.498	118.64	62	57
118.623	118.874	55	64
118.623	119.43	67	71
118.623	119.43	72	71
118.748	118.999	63	57
118.874	119.124	55	63
118.999	119.249	63	56
119.124	119.375	55	64
119.249	119.375	63	57
119.375	120.154	27	62
119.375	120.154	39	74
119.375	119.612	55	70
119.375	119.612	63	70
119.494	119.731	67	57
119.612	119.848	55	65
119.612	119.848	63	65
119.731	119.966	67	58
119.848	120.154	55	67
119.848	120.154	63	67
119.966	120.154	67	60
120.083	120.789	29	63
120.083	120.789	41	75
120.083	120.315	53	74
120.083	120.315	62	74
120.199	120.432	65	62
120.315	120.548	53	69
120.315	120.548	62	69
120.432	120.664	65	63
120.548	120.789	53	70
120.548	120.789	62	70
120.664	120.789	65	64
120.78	121.626	30	64
120.78	121.626	42	77
120.78	121.013	51	78
120.78	121.013	60	78
120.897	121.129	63	65
121.013	121.26	51	73
121.013	121.26	60	73
121.129	121.426	63	67
121.26	121.626	51	75
121.26	121.626	60	75
121.326	121.626	31	65
121.401	121.626	35	69
121.426	121.626	63	69
121.476	121.626	38	74
121.551	121.626	43	78
121.626	121.807	50	59
121.626	121.807	59	59
121.626	123.754	71	89
121.626	123.754	74	89
121.716	121.897	62	51
121.807	121.987	50	59
121.807	121.987	59	59
121.897	122.075	62	54
121.987	122.164	50	60
121.987	122.164	59	60
122.075	122.252	62	53
122.164	122.34	50	60
122.164	122.34	59	60
122.252	122.426	62	56
122.34	122.512	50	61
122.34	122.512	59	61
122.426	122.597	62	53
122.512	122.683	50	62
122.512	122.683	59	62
122.597	122.769	62	56
122.683	122.856	50	63
122.683	122.856	59	63
122.769	122.943	62	56
122.856	123.03	50	63
122.856	123.03	59	63
122.943	123.117	62	58
123.03	123.204	50	64
123.03	123.204	59	64
123.117	123.292	62	55
123.204	123.38	50	63
123.204	123.38	59	63
123.292	123.468	62	56
123.38	123.557	50	61
123.38	123.557	59	61
123.468	123.646	62	54
123.557	123.754	50	60
123.557	123.754	59	60
123.646	123.754	62	54
123.735	123.954	53	83
123.845	124.064	56	61
123.954	124.17	53	67
124.064	124.277	56	61
124.064	125.057	59	60
124.064	125.057	62	60
124.064	125.057	71	73
124.17	124.398	53	67
124.277	124.398	56	60
124.383	124.596	51	84
124.49	124.703	55	58
124.596	124.809	51	64
124.703	124.916	55	59
124.703	125.669	60	66
124.703	125.669	63	66
124.703	125.669	72	79
124.809	125.057	51	64
124.916	125.057	55	60
125.022	125.234	44	85
125.128	125.339	53	63
125.234	125.444	44	68
125.339	125.549	53	62
125.339	126.288	62	67
125.339	126.288	65	67
125.339	126.288	74	80
125.444	125.669	44	68
125.549	125.669	53	68
125.653	125.862	43	86
125.758	125.965	51	61
125.862	126.069	43	67
125.965	126.172	51	63
125.965	126.901	63	70
125.965	126.901	67	70
125.965	126.901	75	83
126.069	126.288	43	68
126.172	126.288	51	62
126.275	126.48	41	86
126.377	126.582	50	65
126.48	126.684	41	70
126.582	126.786	50	64
126.582	127.51	65	72
126.582	127.51	74	72
126.582	127.51	77	85
126.684	126.901	41	70
126.786	126.901	50	63
126.888	127.091	39	88
126.989	127.192	48	66
127.091	127.293	39	71
127.192	127.393	48	67
127.192	127.794	67	75
127.192	128.103	75	75
127.192	127.794	79	88
127.293	127.51	39	72
127.393	127.51	48	66
127.494	127.694	38	89
127.594	127.794	47	67
127.694	127.894	38	73
127.794	127.994	47	66
127.794	128.712	67	78
127.794	128.712	77	78
127.794	128.397	79	92
127.894	128.103	38	72
127.994	128.103	47	69
128.093	128.712	36	90
128.093	128.295	39	84
128.192	128.397	48	69
128.295	128.499	39	74
128.397	128.601	48	68
128.397	129.411	75	85
128.397	129.411	79	85
128.397	129.411	87	101
128.499	128.712	39	73
128.601	128.712	48	68
128.702	128.907	34	91
128.702	128.907	40	86
128.804	129.013	46	71
128.907	129.144	34	75
128.907	129.144	40	75
129.013	129.274	46	71
129.013	129.411	74	85
129.013	129.411	80	85
129.013	129.411	86	102
129.144	129.411	34	75
129.144	129.395	40	74
129.274	129.411	46	71
129.395	129.736	33	88
129.395	129.736	40	88
129.395	129.736	45	88
129.395	129.736	73	89
129.395	129.736	81	89
129.395	129.736	85	106
130.076	130.259	52	62
130.076	130.259	61	62
130.168	130.35	64	53
130.259	130.439	52	61
130.259	130.439	61	61
130.35	130.527	64	55
130.439	130.614	52	61
130.439	130.614	61	61
130.527	130.702	64	53
130.614	130.79	52	60
130.614	130.79	61	60
130.702	130.878	64	55
130.79	130.967	52	60
130.79	130.967	61	60
130.878	131.056	64	51
130.967	131.146	52	59
130.967	131.146	61	59
131.056	131.237	64	52
131.146	131.328	52	59
131.146	131.328	61	59
131.237	131.419	64	51
131.328	131.529	52	58
131.328	131.529	61	58
131.419	131.529	64	52
131.512	131.761	49	72
131.512	132.274	69	79
131.512	132.274	81	79
131.636	131.885	57	62
131.761	132.01	49	71
131.885	132.134	57	59
132.01	132.274	49	71
132.134	132.274	57	62
132.258	132.502	50	71
132.258	133.005	68	77
132.258	133.005	80	77
132.38	132.624	59	62
132.502	132.746	50	70
132.624	132.868	59	59
132.746	133.005	50	69
132.868	133.005	59	59
132.99	133.246	52	69
132.99	133.77	67	75
132.99	133.77	79	75
133.118	133.374	61	60
133.246	133.501	52	68
133.374	133.629	61	59
133.501	133.77	52	69
133.629	133.77	61	60
133.757	133.996	53	73
133.757	134.497	65	74
133.757	134.497	77	74
133.877	134.116	62	62
133.996	134.236	53	67
134.116	134.356	62	58
134.236	134.497	53	67
134.356	134.497	62	58
134.475	134.722	55	66
134.475	135.233	70	66
134.475	135.233	73	73
134.475	135.233	76	73
134.599	134.846	64	59
134.722	134.969	55	65
134.846	135.093	64	57
134.969	135.233	55	65
135.093	135.233	64	57
135.216	135.465	57	64
135.216	136.017	69	71
135.216	136.017	74	71
135.34	135.589	65	57
135.465	135.713	57	63
135.589	135.837	65	56
135.713	135.962	57	64
135.837	135.962	65	57
135.962	136.753	29	62
135.962	136.753	41	74
135.962	136.201	57	70
135.962	136.201	65	70
136.081	136.321	69	57
136.201	136.441	57	65
136.201	136.441	65	65
136.321	136.56	69	58
136.441	136.753	57	67
136.441	136.753	65	67
136.56	136.753	69	60
136.681	137.391	31	63
136.681	137.391	43	75
136.681	136.915	55	74
136.681	136.915	64	74
136.798	137.032	67	62
136.915	137.148	55	69
136.915	137.148	64	69
137.032	137.265	67	63
137.148	137.391	55	70
137.148	137.391	64	70
137.265	137.391	67	64
137.382	138.229	32	64
137.382	138.229	44	77
137.382	137.616	53	78
137.382	137.616	62	78
137.499	137.733	65	65
137.616	137.864	53	73
137.616	137.864	62	73
137.733	138.03	65	67
137.864	138.229	53	75
137.864	138.229	62	75
137.93	138.229	33	65
138.005	138.229	37	69
138.03	138.229	65	69
138.079	138.229	40	74
138.154	138.229	45	78
138.229	138.411	52	59
138.229	138.411	61	59
138.229	140.358	73	89
138.229	140.358	76	89
138.32	138.501	64	51
138.411	138.59	52	59
138.411	138.59	61	59
138.501	138.679	64	54
138.59	138.768	52	60
138.59	138.768	61	60
138.679	138.856	64	53
138.768	138.943	52	60
138.768	138.943	61	60
138.856	139.03	64	56
138.943	139.115	52	61
138.943	139.115	61	61
139.03	139.201	64	53
139.115	139.287	52	62
139.115	139.287	61	62
139.201	139.373	64	56
139.287	139.46	52	63
139.287	139.46	61	63
139.373	139.546	64	56
139.46	139.633	52	63
139.46	139.633	61	63
139.546	139.72	64	58
139.633	139.808	52	64
139.633	139.808	61	64
139.72	139.896	64	55
139.808	139.984	52	63
139.808	139.984	61	63
139.896	140.072	64	56
139.984	140.161	52	61
139.984	140.161	61	61
140.072	140.25	64	54
140.161	140.358	52	60
140.161	140.358	61	60
140.25	140.358	64	55
140.339	140.558	55	83
140.448	140.667	58	60
140.558	140.774	55	67
140.667	140.88	58	59
140.667	141.662	61	60
140.667	141.662	64	60
140.667	141.662	73	73
140.774	141.001	55	67
140.88	141.001	58	60
140.987	141.2	53	84
141.093	141.306	57	58
141.2	141.413	53	64
141.306	141.519	57	57
141.306	142.281	62	66
141.306	142.281	65	66
141.306	142.281	74	79
141.413	141.662	53	64
141.519	141.662	57	59
141.627	141.84	46	85
141.734	141.947	55	62
141.84	142.053	46	68
141.947	142.159	55	60
141.947	142.91	64	67
141.947	142.91	67	67
141.947	142.91	76	80
142.053	142.281	46	68
142.159	142.281	55	61
142.265	142.476	45	86
142.371	142.582	53	60
142.476	142.687	45	67
142.582	142.792	53	60
142.582	143.535	65	70
142.582	143.535	69	70
142.582	143.535	77	83
142.687	142.91	45	68
142.792	142.91	53	62
142.897	143.106	43	87
143.001	143.21	52	64
143.106	143.314	43	70
143.21	143.418	52	63
143.21	144.158	67	73
143.21	144.158	76	73
143.21	144.158	79	86
143.314	143.535	43	70
143.418	143.535	52	64
143.522	143.729	41	89
143.625	143.832	50	65
143.729	143.935	41	71
143.832	144.038	50	65
143.832	144.448	69	77
143.832	144.764	77	77
143.832	144.448	81	90
143.935	144.158	41	72
144.038	144.158	50	67
144.141	144.346	40	91
144.243	144.448	49	68
144.346	144.55	40	73
144.448	144.652	49	66
144.448	145.375	69	80
144.448	145.375	79	80
144.448	145.06	81	94
144.55	144.764	40	72
144.652	144.764	49	67
144.754	144.958	38	92
144.754	144.958	41	72
144.754	144.958	45	84
144.855	145.06	50	70
144.958	145.162	38	64
144.958	145.162	41	74
144.958	145.162	45	64
145.06	145.264	50	69
145.06	146.097	77	86
145.06	145.676	81	88
145.06	146.097	89	105
145.162	145.375	38	70
145.162	145.375	41	73
145.162	145.365	45	70
145.264	145.375	50	69
145.365	145.57	37	94
145.365	145.57	40	86
145.365	145.57	45	86
145.467	145.676	49	70
145.57	145.807	37	75
145.57	145.807	40	75
145.57	145.807	45	75
145.676	145.937	49	69
145.676	146.097	76	83
145.676	146.097	81	87
145.676	146.097	88	105
145.807	146.097	37	75
145.807	146.097	40	74
145.807	146.097	45	74
145.937	146.097	49	70
145.97	146.097	36	88
146.033	146.097	48	88
146.097	148.162	60	103
146.097	146.276	75	73
146.097	146.276	77	73
146.097	146.276	81	87
146.186	146.365	87	73
146.276	146.454	75	62
146.276	146.454	77	62
146.276	146.454	81	73
146.365	146.542	87	70
146.454	146.631	75	61
146.454	146.631	77	61
146.454	146.631	81	72
146.542	146.719	87	71
146.631	146.808	75	61
146.631	146.808	77	61
146.631	146.808	81	72
146.719	146.896	87	70
146.808	146.982	75	63
146.808	146.982	77	63
146.808	146.982	81	76
146.896	147.067	87	68
146.982	147.151	75	55
146.982	147.151	77	55
146.982	147.151	81	65
147.067	147.236	87	65
147.151	147.322	75	54
147.151	147.322	77	54
147.151	147.322	81	64
147.236	147.408	87	65
147.322	147.421	75	53
147.322	147.421	77	53
147.322	147.421	81	64
147.408	147.452	35	88
147.408	147.579	87	66
147.452	148.169	47	88
147.496	148.169	59	103
147.496	147.662	75	68
147.496	147.662	77	68
147.496	147.662	81	81
147.579	147.746	87	69
147.662	147.829	75	56
147.662	147.829	77	56
147.662	147.829	81	67
147.746	147.912	87	69
147.829	147.996	75	56
147.829	147.996	77	56
147.829	147.996	81	67
147.912	148.079	87	69
147.996	148.162	75	56
147.996	148.162	77	56
147.996	148.162	81	67
148.079	148.169	87	69
148.162	148.823	60	84
148.162	148.823	72	84
148.162	148.379	75	62
148.162	148.379	77	74
148.162	148.379	81	93
148.271	148.488	87	68
148.379	148.596	75	62
148.379	148.596	77	62
148.379	148.596	81	74
148.488	148.705	87	68
148.596	148.813	75	63
148.596	148.813	77	63
148.596	148.823	81	75
148.705	148.823	87	69
148.813	149.505	59	88
148.813	149.505	71	88
148.813	149.036	75	64
148.813	149.036	77	76
148.813	149.036	83	98
148.924	149.147	87	70
149.036	149.258	75	65
149.036	149.258	77	65
149.036	149.258	83	77
149.147	149.369	87	70
149.258	149.48	75	65
149.258	149.48	77	65
149.258	149.505	83	77
149.369	149.505	87	70
149.48	150.167	57	92
149.48	150.167	69	92
149.48	149.702	75	66
149.48	149.702	77	78
149.48	149.702	84	102
149.591	149.814	87	72
149.702	149.929	75	67
149.702	149.929	77	67
149.702	149.929	84	79
149.814	150.048	87	72
149.929	150.167	75	68
149.929	150.167	77	68
149.929	150.167	84	80
150.048	150.167	87	73
150.167	150.837	56	85
150.167	150.837	64	92
150.167	150.383	76	69
150.167	150.383	80	81
150.275	150.491	88	75
150.383	150.602	76	70
150.383	150.602	80	70
150.491	150.837	40	71
150.491	150.714	88	75
150.602	150.837	76	71
150.602	150.837	80	71
150.714	150.837	88	76
150.826	151.446	60	83
150.826	151.446	63	94
150.826	151.02	75	69
150.826	151.02	84	102
150.923	151.117	87	75
151.02	151.224	75	70
151.02	151.224	84	70
151.117	151.446	52	70
151.117	151.332	87	75
151.224	151.446	75	71
151.224	151.446	84	71
151.332	151.446	87	76
151.439	152.073	59	84
151.439	152.073	62	93
151.439	151.639	74	69
151.439	151.639	83	101
151.539	151.739	86	75
151.639	151.847	74	70
151.639	151.847	83	70
151.739	152.073	40	72
151.739	151.954	86	75
151.847	152.073	74	71
151.847	152.073	83	71
151.954	152.073	86	76
152.061	152.71	58	84
152.061	152.71	61	92
152.061	152.268	73	69
152.061	152.268	82	100
152.165	152.372	85	75
152.268	152.48	73	70
152.268	152.48	82	70
152.372	152.71	52	72
152.372	152.588	85	75
152.48	152.71	73	71
152.48	152.71	82	71
152.588	152.71	85	76
152.695	153.347	51	86
152.695	153.347	57	86
152.695	153.347	60	91
152.695	152.904	72	69
152.695	152.904	81	98
152.8	153.008	84	75
152.904	153.116	72	70
152.904	153.116	81	70
153.008	153.347	40	72
153.008	153.225	84	75
153.116	153.347	72	71
153.116	153.347	81	71
153.225	153.347	84	76
153.333	154.014	52	75
153.333	154.014	56	89
153.333	154.014	59	90
153.333	153.543	71	69
153.333	153.543	80	97
153.438	153.648	83	75
153.543	153.756	71	70
153.543	153.756	80	70
153.648	153.865	83	75
153.756	154.014	71	71
153.756	154.014	80	71
153.865	154.014	83	76
153.892	154.014	37	88
153.953	154.014	49	88
154.014	156.065	61	103
154.014	154.19	76	73
154.014	154.19	79	73
154.014	154.19	82	87
154.102	154.275	88	73
154.19	154.359	76	62
154.19	154.359	79	62
154.19	154.359	82	73
154.275	154.444	88	70
154.359	154.529	76	61
154.359	154.529	79	61
154.359	154.529	82	72
154.444	154.615	88	71
154.529	154.701	76	61
154.529	154.701	79	61
154.529	154.701	82	72
154.615	154.787	88	70
154.701	154.874	76	63
154.701	154.874	79	63
154.701	154.874	82	76
154.787	154.962	88	68
154.874	155.05	76	55
154.874	155.05	79	55
154.874	155.05	82	65
154.962	155.137	88	65
155.05	155.224	76	54
155.05	155.224	79	54
155.05	155.224	82	64
155.137	155.311	88	65
155.224	155.324	76	53
155.224	155.324	79	53
155.224	155.324	82	64
155.311	155.355	36	88
155.311	155.482	88	66
155.355	156.072	48	88
155.398	156.072	60	103
155.398	155.565	76	68
155.398	155.565	79	68
155.398	155.565	82	81
155.482	155.649	88	69
155.565	155.732	76	56
155.565	155.732	79	56
155.565	155.732	82	67
155.649	155.815	88	69
155.732	155.899	76	56
155.732	155.899	79	56
155.732	155.899	82	67
155.815	155.982	88	69
155.899	156.065	76	56
155.899	156.065	79	56
155.899	156.065	82	67
155.982	156.072	88	69
156.065	156.726	61	84
156.065	156.726	73	84
156.065	156.282	76	62
156.065	156.282	79	74
156.065	156.282	82	93
156.174	156.391	88	68
156.282	156.499	76	62
156.282	156.499	79	62
156.282	156.499	82	74
156.391	156.608	88	68
156.499	156.716	76	63
156.499	156.716	79	63
156.499	156.726	82	75
156.608	156.726	88	69
156.716	157.408	60	88
156.716	157.408	72	88
156.716	156.938	76	64
156.716	156.938	79	76
156.716	156.938	84	98
156.827	157.05	88	70
156.938	157.161	76	65
156.938	157.161	79	65
156.938	157.161	84	77
157.05	157.272	88	70
157.161	157.383	76	65
157.161	157.383	79	65
157.161	157.408	84	77
157.272	157.408	88	70
157.383	158.07	58	92
157.383	158.07	70	92
157.383	157.605	76	66
157.383	157.605	79	78
157.383	157.605	85	102
157.494	157.716	88	72
157.605	157.832	76	67
157.605	157.832	79	67
157.605	157.832	85	79
157.716	157.951	88	72
157.832	158.07	76	68
157.832	158.07	79	68
157.832	158.07	85	80
157.951	158.07	88	73
158.07	158.74	57	82
158.07	158.74	65	92
158.07	158.286	77	69
158.07	158.286	81	81
158.178	158.394	89	75
158.286	158.505	77	70
158.286	158.505	81	70
158.394	158.74	41	71
158.394	158.617	89	75
158.505	158.74	77	71
158.505	158.74	81	71
158.617	158.74	89	76
158.729	159.364	61	85
158.729	159.364	64	94
158.729	158.933	76	69
158.729	158.933	85	102
158.831	159.035	88	75
158.933	159.142	76	70
158.933	159.142	85	70
159.035	159.364	53	70
159.035	159.249	88	75
159.142	159.364	76	71
159.142	159.364	85	71
159.249	159.364	88	76
159.356	159.999	60	80
159.356	159.999	63	93
159.356	159.562	75	69
159.356	159.562	84	101
159.459	159.665	87	75
159.562	159.773	75	70
159.562	159.773	84	70
159.665	159.999	41	72
159.665	159.88	87	75
159.773	159.999	75	71
159.773	159.999	84	71
159.88	159.999	87	76
159.987	160.636	59	81
159.987	160.636	62	92
159.987	160.194	74	69
159.987	160.194	83	100
160.091	160.298	86	75
160.194	160.406	74	70
160.194	160.406	83	70
160.298	160.636	53	72
160.298	160.514	86	75
160.406	160.636	74	71
160.406	160.636	83	71
160.514	160.636	86	76
160.621	161.273	52	69
160.621	161.273	58	81
160.621	161.273	61	91
160.621	160.83	73	69
160.621	160.83	82	98
160.726	160.934	85	75
160.83	161.042	73	70
160.83	161.042	82	70
160.934	161.273	41	72
160.934	161.151	85	75
161.042	161.273	73	71
161.042	161.273	82	71
161.151	161.273	85	76
161.259	161.94	53	69
161.259	161.94	57	81
161.259	161.94	60	90
161.259	161.469	72	69
161.259	161.469	81	97
161.364	161.574	84	75
161.469	161.682	72	70
161.469	161.682	81	70
161.574	161.791	84	75
161.682	161.94	72	71
161.682	161.94	81	71
161.791	161.94	84	76
161.818	161.94	39	88
161.879	161.94	51	88
161.94	163.962	63	103
161.94	162.113	78	73
161.94	162.113	81	73
161.94	162.113	84	87
162.028	162.195	90	73
162.113	162.278	78	62
162.113	162.278	81	62
162.113	162.278	84	73
162.195	162.361	90	71
162.278	162.446	78	62
162.278	162.446	81	62
162.278	162.446	84	73
162.361	162.531	90	72
162.446	162.618	78	62
162.446	162.618	81	62
162.446	162.618	84	73
162.531	162.705	90	72
162.618	162.79	78	65
162.618	162.79	81	65
162.618	162.79	84	78
162.705	162.875	90	70
162.79	162.959	78	57
162.79	162.959	81	57
162.79	162.959	84	68
162.875	163.045	90	68
162.959	163.132	78	56
162.959	163.132	81	56
162.959	163.132	84	67
163.045	163.219	90	68
163.132	163.232	78	56
163.132	163.232	81	56
163.132	163.232	84	67
163.219	163.263	38	88
163.219	163.389	90	69
163.263	163.969	50	88
163.306	163.969	62	103
163.306	163.472	78	68
163.306	163.472	81	68
163.306	163.472	84	81
163.389	163.553	90	69
163.472	163.634	78	56
163.472	163.634	81	56
163.472	163.634	84	67
163.553	163.716	90	69
163.634	163.797	78	56
163.634	163.797	81	56
163.634	163.797	84	67
163.716	163.879	90	69
163.797	163.962	78	56
163.797	163.962	81	56
163.797	163.962	84	67
163.879	163.969	90	69
163.962	164.621	63	84
163.962	164.621	75	84
163.962	164.181	78	62
163.962	164.181	81	74
163.962	164.181	84	93
164.072	164.289	90	68
164.181	164.395	78	62
164.181	164.395	81	62
164.181	164.395	84	74
164.289	164.503	90	68
164.395	164.611	78	63
164.395	164.611	81	63
164.395	164.621	84	75
164.503	164.621	90	69
164.611	165.289	62	88
164.611	165.289	74	88
164.611	164.827	78	64
164.611	164.827	81	76
164.611	164.827	86	98
164.719	164.935	90	70
164.827	165.044	78	65
164.827	165.044	81	65
164.827	165.044	86	77
164.935	165.154	90	70
165.044	165.264	78	65
165.044	165.264	81	65
165.044	165.289	86	77
165.154	165.289	90	70
165.264	165.953	60	92
165.264	165.953	72	92
165.264	165.486	78	66
165.264	165.486	81	78
165.264	165.486	87	102
165.375	165.599	90	72
165.486	165.714	78	67
165.486	165.714	81	67
165.486	165.714	87	79
165.599	165.834	90	72
165.714	165.953	78	68
165.714	165.953	81	68
165.714	165.953	87	80
165.834	165.953	90	73
165.953	166.588	55	80
165.953	166.577	59	84
165.953	166.588	67	92
165.953	166.153	79	69
165.953	166.153	83	81
166.053	166.253	91	102
166.153	166.361	79	70
166.153	166.361	83	70
166.253	166.588	43	71
166.253	166.469	91	75
166.361	166.577	79	71
166.361	166.588	83	71
166.469	166.588	91	76
166.577	167.203	59	71
166.577	167.203	62	80
166.577	167.203	65	94
166.577	166.775	77	69
166.577	166.775	79	69
166.676	166.874	89	101
166.775	166.981	77	70
166.775	166.981	79	69
166.775	166.981	86	70
166.874	167.203	47	70
166.874	167.089	89	75
166.981	167.203	77	71
166.981	167.196	79	71
166.981	167.203	86	71
167.089	167.203	89	76
167.196	167.818	60	80
167.196	167.829	63	93
167.196	167.396	75	69
167.196	167.396	79	69
167.296	167.496	87	100
167.396	167.604	75	70
167.396	167.604	79	70
167.496	167.829	48	72
167.496	167.711	87	75
167.604	167.818	75	71
167.604	167.829	79	71
167.711	167.829	87	76
167.818	168.422	58	81
167.818	168.408	60	92
167.818	168.012	72	69
167.818	168.012	75	69
167.915	168.109	84	98
168.012	168.209	72	70
168.012	168.209	75	70
168.109	168.422	46	72
168.109	168.308	84	75
168.209	168.422	72	71
168.209	168.408	75	71
168.308	168.422	84	76
168.408	169.027	57	69
168.408	169.027	60	81
168.408	169.039	63	91
168.408	168.609	75	69
168.408	168.609	79	69
168.508	168.709	87	97
168.609	168.815	75	70
168.609	168.815	79	70
168.709	169.039	45	72
168.709	168.921	87	75
168.815	169.027	75	71
168.815	169.039	79	71
168.921	169.039	87	76
169.027	169.656	55	69
169.027	169.656	57	81
169.027	169.656	60	90
169.027	169.23	72	69
169.027	169.23	75	69
169.129	169.332	84	97
169.23	169.441	72	70
169.23	169.441	75	70
169.332	169.656	43	72
169.332	169.549	84	75
169.441	169.656	72	71
169.441	169.656	75	71
169.549	169.656	84	76
169.656	170.262	53	80
169.656	170.251	57	84
169.656	170.262	65	92
169.656	169.851	77	69
169.656	169.851	81	81
169.754	169.949	89	102
169.851	170.05	77	70
169.851	170.05	81	70
169.949	170.262	41	71
169.949	170.15	89	75
170.05	170.262	77	71
170.05	170.262	81	71
170.15	170.262	89	76
170.251	170.865	57	71
170.251	170.865	60	80
170.251	170.865	63	94
170.251	170.45	75	69
170.251	170.45	84	69
170.351	170.55	87	101
170.45	170.652	75	70
170.45	170.652	84	70
170.55	170.865	45	70
170.55	170.755	87	75
170.652	170.865	75	71
170.652	170.865	84	71
170.755	170.865	87	76
170.857	171.444	58	80
170.857	171.455	62	93
170.857	171.05	74	69
170.857	171.05	77	69
170.954	171.147	86	100
171.05	171.246	74	70
171.05	171.246	77	70
171.147	171.455	46	72
171.147	171.345	86	75
171.246	171.444	74	71
171.246	171.455	77	71
171.345	171.455	86	76
171.444	172.071	57	81
171.444	172.058	58	92
171.444	171.644	70	69
171.444	171.644	74	69
171.544	171.743	82	98
171.644	171.848	70	70
171.644	171.848	74	70
171.743	172.071	45	72
171.743	171.953	82	75
171.848	172.071	70	71
171.848	172.058	74	71
171.953	172.071	82	76
172.058	172.687	55	69
172.058	172.674	58	81
172.058	172.687	62	91
172.058	172.258	74	69
172.058	172.258	77	69
172.158	172.358	86	97
172.258	172.463	74	70
172.258	172.463	77	70
172.358	172.687	43	72
172.358	172.569	86	75
172.463	172.674	74	71
172.463	172.687	77	71
172.569	172.687	86	76
172.674	173.302	53	69
172.674	173.302	57	81
172.674	173.302	58	90
172.674	172.877	70	69
172.674	172.877	74	69
172.776	172.978	82	97
172.877	173.087	70	70
172.877	173.087	74	70
172.978	173.302	41	72
172.978	173.195	82	75
173.087	173.302	70	71
173.087	173.302	74	71
173.195	173.302	82	76
173.302	173.913	51	80
173.302	173.902	55	84
173.302	173.913	63	92
173.302	173.499	75	69
173.302	173.499	79	81
173.401	173.598	87	102
173.499	173.699	75	70
173.499	173.699	79	70
173.598	173.913	39	71
173.598	173.8	87	75
173.699	173.913	75	71
173.699	173.913	79	71
173.8	173.913	87	76
173.902	174.505	55	71
173.902	174.505	58	80
173.902	174.505	62	94
173.902	174.098	74	69
173.902	174.098	82	69
174.0	174.196	86	101
174.098	174.297	74	70
174.098	174.297	82	70
174.196	174.505	43	70
174.196	174.397	86	75
174.297	174.505	74	71
174.297	174.505	82	71
174.397	174.505	86	76
174.498	175.096	57	80
174.498	175.108	60	93
174.498	174.693	72	69
174.498	174.693	75	69
174.596	174.791	84	100
174.693	174.893	72	70
174.693	174.893	75	70
174.791	175.108	45	72
174.791	174.994	84	75
174.893	175.096	72	71
174.893	175.108	75	71
174.994	175.108	84	76
175.096	175.727	55	81
175.096	175.713	57	92
175.096	175.298	69	69
175.096	175.298	72	69
175.197	175.399	81	98
175.298	175.503	69	70
175.298	175.503	72	70
175.399	175.727	43	72
175.399	175.608	81	75
175.503	175.727	69	71
175.503	175.713	72	71
175.608	175.727	81	76
175.713	176.34	54	69
175.713	176.328	57	81
175.713	176.34	60	91
175.713	175.913	72	69
175.713	175.913	75	69
175.813	176.014	84	97
175.913	176.118	72	70
175.913	176.118	75	70
176.014	176.34	42	72
176.014	176.223	84	75
176.118	176.328	72	71
176.118	176.34	75	71
176.223	176.34	84	76
176.328	176.954	51	69
176.328	176.954	55	81
176.328	176.954	57	90
176.328	176.529	69	69
176.328	176.529	72	69
176.429	176.63	81	97
176.529	176.739	69	70
176.529	176.739	72	70
176.63	176.954	39	72
176.63	176.847	81	75
176.739	176.954	69	71
176.739	176.954	72	71
176.847	176.954	81	76
176.954	177.584	50	80
176.954	177.572	54	84
176.954	177.584	62	92
176.954	177.156	74	69
176.954	177.156	78	81
177.055	177.256	86	102
177.156	177.362	74	70
177.156	177.362	78	70
177.256	177.584	38	71
177.256	177.467	86	75
177.362	177.584	74	71
177.362	177.584	78	71
177.467	177.584	86	76
177.572	178.202	54	71
177.572	178.202	57	80
177.572	178.202	60	94
177.572	177.773	72	69
177.572	177.773	81	69
177.673	177.873	84	101
177.773	177.98	72	70
177.773	177.98	81	70
177.873	178.202	42	70
177.873	178.087	84	75
177.98	178.202	72	71
177.98	178.202	81	71
178.087	178.202	84	76
178.195	178.837	55	80
178.195	178.837	58	93
178.195	178.401	70	69
178.195	178.401	79	69
178.298	178.504	82	100
178.401	178.611	70	70
178.401	178.611	79	70
178.504	178.837	43	72
178.504	178.718	82	75
178.611	178.837	70	71
178.611	178.837	79	71
178.718	178.837	82	76
178.825	179.474	53	78
178.825	179.474	57	81
178.825	179.46	62	92
178.825	179.033	74	69
178.825	179.033	81	69
178.929	179.136	86	98
179.033	179.244	74	70
179.033	179.244	81	70
179.136	179.474	41	72
179.136	179.352	86	75
179.244	179.46	74	71
179.244	179.474	81	71
179.352	179.474	86	76
179.46	180.098	51	69
179.46	180.098	55	81
179.46	180.111	62	91
179.46	179.668	74	69
179.46	179.668	79	69
179.564	179.772	86	97
179.668	179.881	74	70
179.668	179.881	79	70
179.772	180.111	39	72
179.772	179.989	86	75
179.881	180.111	74	71
179.881	180.098	79	71
179.989	180.111	86	76
180.098	180.736	51	69
180.098	180.736	55	81
180.098	180.736	61	90
180.098	180.307	73	69
180.098	180.307	79	69
180.203	180.412	85	97
180.307	180.521	73	70
180.307	180.521	79	70
180.412	180.629	85	75
180.521	180.736	73	71
180.521	180.736	79	71
180.629	180.736	85	76
180.736	181.366	38	88
180.736	181.366	45	88
180.736	181.354	50	88
180.736	180.938	74	69
180.736	181.366	78	81
180.837	181.038	86	75
180.938	181.144	74	70
181.038	181.249	86	75
181.144	181.354	74	70
181.249	181.366	86	75
181.354	181.984	50	79
181.354	181.937	62	79
181.354	181.555	74	68
181.455	181.655	86	69
181.555	181.762	74	68
181.655	181.869	86	73
181.762	181.977	74	69
181.869	181.984	86	73
181.896	182.619	55	68
181.937	182.619	62	76
181.977	182.619	70	80
181.977	182.183	74	77
181.977	182.619	82	77
182.08	182.286	86	68
182.183	182.393	74	66
182.286	182.5	86	71
182.393	182.607	74	66
182.5	182.619	86	70
182.527	183.256	58	69
182.567	183.256	67	75
182.607	182.815	74	82
182.711	182.918	86	64
182.815	183.026	74	63
182.918	183.134	86	67
183.026	183.256	74	62
183.134	183.256	86	67
183.161	183.893	57	54
183.188	183.839	62	61
183.215	183.893	66	68
183.242	183.45	72	74
183.346	183.554	84	65
183.45	183.663	72	60
183.554	183.771	84	64
183.663	183.893	72	60
183.771	183.893	84	64
183.798	184.534	55	62
183.839	184.479	62	69
183.88	184.089	70	76
183.985	184.194	82	62
184.089	184.303	70	57
184.194	184.411	82	62
184.303	184.534	70	57
184.411	184.534	82	61
184.438	185.171	54	63
184.479	185.117	62	67
184.52	184.728	69	74
184.624	184.832	81	65
184.728	184.941	69	60
184.832	185.049	81	63
184.941	185.171	69	59
185.049	185.171	81	62
185.076	185.812	51	60
185.117	185.812	62	66
185.158	185.367	67	73
185.262	185.472	79	60
185.367	185.58	67	56
185.472	185.689	79	60
185.58	185.812	67	55
185.689	185.812	79	58
185.716	186.449	50	60
185.757	186.408	57	64
185.797	186.006	66	70
185.902	186.11	78	61
186.006	186.219	66	57
186.11	186.327	78	59
186.219	186.449	66	57
186.327	186.449	78	59
186.354	187.09	48	47
186.381	187.09	54	52
186.408	187.09	57	57
186.435	186.645	63	69
186.54	186.75	75	57
186.645	186.858	63	53
186.75	186.967	75	57
186.858	187.09	63	53
186.967	187.09	75	56
186.994	187.726	46	54
187.035	187.726	55	59
187.075	187.284	62	65
187.179	187.388	74	58
187.284	187.496	62	54
187.388	187.605	74	57
187.496	187.726	62	53
187.605	187.726	74	57
187.632	188.366	43	56
187.673	188.312	50	58
187.713	187.923	58	66
187.818	188.028	62	55
187.818	188.028	70	55
187.923	188.136	58	50
188.028	188.245	62	53
188.028	188.245	70	54
188.136	188.366	58	50
188.245	188.366	62	52
188.245	188.366	70	52
188.272	188.991	42	53
188.312	188.938	50	56
188.352	188.558	57	62
188.455	188.662	62	50
188.455	188.662	69	55
188.558	188.766	57	50
188.662	188.872	62	49
188.662	188.872	69	53
188.766	188.991	57	49
188.872	188.991	62	48
188.872	188.991	69	51
188.898	189.645	39	49
188.938	189.645	50	54
188.978	189.192	55	60
189.085	189.3	62	43
189.085	189.3	67	49
189.192	189.409	55	45
189.3	189.519	62	43
189.3	189.519	67	49
189.409	189.645	55	43
189.519	189.645	62	42
189.519	189.645	67	47
189.546	190.324	38	48
189.588	190.28	45	51
189.629	189.853	54	56
189.741	189.966	62	41
189.741	189.966	66	49
189.853	190.079	54	45
189.966	190.194	62	41
189.966	190.194	66	46
190.079	190.324	54	44
190.194	190.324	62	38
190.194	190.324	66	46
190.223	191.036	36	36
190.251	191.036	42	40
190.28	191.036	45	44
190.309	190.542	51	53
190.425	190.66	54	37
190.425	190.66	57	38
190.425	190.66	63	44
190.542	190.779	51	40
190.66	190.899	54	37
190.66	190.899	57	37
190.66	190.899	63	43
190.779	191.036	51	39
190.899	191.036	54	37
190.899	191.036	57	37
190.899	191.036	63	41
190.929	191.78	34	35
190.974	191.78	43	38
191.02	191.264	50	49
191.141	191.387	55	37
191.141	191.387	58	37
191.141	191.387	62	43
191.264	191.512	50	39
191.387	191.637	55	36
191.387	191.637	58	36
191.387	191.637	62	42
191.512	191.78	50	38
191.637	191.78	55	36
191.637	191.78	58	36
191.637	191.78	62	41
191.669	192.548	33	32
191.701	192.49	38	35
191.732	192.548	42	40
191.764	192.548	48	48
191.892	192.15	54	39
191.892	192.15	60	38
191.892	192.15	62	39
192.02	192.28	46	36
192.15	192.41	54	32
192.15	192.41	60	31
192.15	192.41	62	38
192.28	192.536	46	36
192.41	192.548	54	31
192.41	192.548	60	31
192.41	192.548	62	37
192.442	193.288	31	38
192.49	193.288	38	42
192.536	193.288	46	49
192.566	193.288	50	45
192.596	193.288	55	48
192.627	193.288	58	49
192.657	193.288	62	52
193.259	194.645	70	50
193.375	193.606	86	42
193.491	194.401	74	45
193.606	193.835	86	43
193.721	194.175	79	46
193.835	194.062	86	44
193.949	194.645	82	53
194.062	194.288	86	44
194.175	194.645	79	48
194.288	194.515	86	48
194.401	194.645	74	49
194.515	194.645	86	46
194.586	195.265	55	45
194.629	195.327	67	60
194.629	195.327	75	56
194.743	194.97	87	48
194.857	195.327	79	50
194.97	195.195	87	47
195.083	195.327	84	50
195.195	195.327	87	47
195.265	195.934	55	46
195.307	195.991	66	65
195.307	195.991	74	56
195.419	195.642	90	47
195.53	195.991	78	50
195.642	195.865	90	47
195.753	195.991	86	50
195.865	195.991	90	47
195.934	196.649	55	48
195.976	196.687	63	66
195.976	196.687	72	56
196.087	196.31	87	47
196.198	196.687	75	50
196.31	196.535	87	48
196.422	196.687	79	50
196.535	196.687	87	46
196.649	198.719	55	50
196.649	198.719	62	59
196.649	198.023	70	56
196.763	196.991	86	47
196.877	197.795	74	50
196.991	197.219	86	48
197.105	197.565	79	50
197.219	197.449	86	46
197.333	198.719	82	56
197.449	197.681	86	47
197.565	198.476	79	50
197.681	197.91	86	47
197.795	198.249	74	50
197.91	198.136	86	47
198.023	198.719	70	56
198.136	198.362	86	47
198.249	198.719	74	50
198.362	198.589	86	50
198.476	198.719	79	50
198.589	198.719	86	47
198.703	199.401	65	60
198.703	199.401	69	56
198.817	199.045	86	48
198.931	199.401	74	50
199.045	199.27	86	47
199.157	199.401	77	50
199.27	199.401	86	47
199.382	200.066	63	64
199.382	200.066	67	56
199.493	199.716	84	47
199.605	200.066	72	50
199.716	199.939	84	47
199.828	200.066	75	50
199.939	200.066	84	47
200.05	200.762	62	64
200.05	200.762	65	56
200.161	200.384	82	47
200.272	200.762	70	50
200.384	200.61	82	48
200.496	200.762	74	50
200.61	200.762	82	46
200.723	202.79	60	59
200.723	202.082	63	56
200.837	201.066	81	47
200.951	201.862	69	50
201.066	201.294	81	48
201.18	201.637	72	50
201.294	201.523	81	46
201.408	202.79	75	56
201.523	201.75	81	47
201.637	202.527	72	50
201.75	201.973	81	47
201.862	202.301	69	50
201.973	202.191	81	47
202.082	202.775	63	56
202.191	202.413	81	47
202.301	202.775	69	50
202.413	202.647	81	50
202.527	202.79	72	50
202.647	202.79	81	47
202.775	203.455	48	55
202.775	203.455	63	66
202.775	203.475	69	66
202.89	203.118	84	48
203.004	203.475	72	56
203.118	203.343	84	47
203.231	203.475	75	53
203.343	203.475	84	47
203.455	204.139	48	54
203.455	204.139	60	64
203.455	204.139	63	56
203.567	203.789	81	47
203.678	204.139	69	50
203.789	204.012	81	47
203.901	204.139	72	50
204.012	204.139	81	47
204.124	204.863	49	54
204.124	204.825	58	64
204.124	204.863	64	56
204.234	204.457	79	47
204.346	204.863	70	50
204.457	204.695	79	48
204.572	204.863	76	50
204.695	204.863	79	46
204.825	206.199	50	54
204.825	206.219	58	54
204.825	206.895	62	64
204.825	206.219	67	65
204.939	205.167	82	52
205.053	205.971	70	56
205.167	205.395	82	48
205.281	205.741	74	50
205.395	205.625	82	46
205.509	206.219	79	56
205.625	205.856	82	47
205.741	206.219	74	50
205.856	206.085	82	47
205.971	206.219	70	50
206.085	206.219	82	47
206.199	206.895	50	54
206.199	206.895	57	54
206.199	206.879	66	56
206.312	206.538	81	47
206.425	206.895	69	50
206.538	206.765	81	50
206.651	206.895	74	50
206.765	206.895	81	47
206.879	207.577	60	51
206.879	207.577	63	60
206.879	207.577	66	56
206.993	207.22	81	48
207.107	207.577	69	50
207.22	207.446	81	47
207.333	207.577	75	50
207.446	207.577	81	47
207.558	208.241	58	54
207.558	208.226	62	64
207.558	208.241	67	56
207.669	207.892	79	47
207.78	208.241	70	50
207.892	208.115	79	47
208.003	208.241	74	50
208.115	208.241	79	47
208.226	208.938	57	45
208.226	208.938	60	45
208.226	208.899	62	64
208.226	208.938	66	56
208.337	208.56	78	47
208.448	208.938	69	50
208.56	208.785	78	48
208.672	208.938	74	50
208.785	208.938	78	46
208.899	210.293	56	54
208.899	210.293	59	54
208.899	210.293	62	64
208.899	210.293	65	62
209.013	209.241	77	52
209.127	210.046	68	56
209.241	209.469	77	48
209.355	209.815	71	50
209.469	209.7	77	46
209.583	210.293	74	56
209.7	209.931	77	47
209.815	210.293	71	50
209.931	210.16	77	47
210.046	210.293	68	50
210.16	210.293	77	47
210.273	210.958	55	54
210.273	210.958	64	56
210.387	210.612	76	47
210.499	210.943	67	50
210.612	210.831	76	50
210.722	210.958	72	50
210.831	210.958	76	47
210.943	211.599	63	67
210.943	211.151	67	65
211.047	211.256	75	48
211.151	211.599	67	50
211.256	211.468	75	47
211.36	211.599	72	50
211.468	211.599	75	47
211.58	212.249	62	63
211.58	212.249	65	60
211.689	211.907	74	47
211.798	212.249	67	50
211.907	212.124	74	47
212.016	212.249	71	50
212.124	212.249	74	47
212.233	212.945	55	54
212.233	212.906	60	60
212.233	212.906	63	65
212.344	212.567	75	47
212.455	212.945	67	50
212.567	212.792	75	48
212.679	212.945	72	50
212.792	212.945	75	46
212.906	214.3	54	54
212.906	214.955	60	64
212.906	214.281	63	62
213.02	213.248	75	52
213.134	213.823	67	56
213.248	213.477	75	48
213.363	214.053	68	50
213.477	213.707	75	46
213.591	214.3	72	56
213.707	213.938	75	47
213.823	214.3	67	50
213.938	214.167	75	47
214.053	214.3	68	50
214.167	214.3	75	47
214.281	214.97	53	54
214.281	214.955	63	56
214.394	214.619	75	47
214.506	214.97	68	50
214.619	214.845	75	50
214.732	214.97	69	50
214.845	214.97	75	47
214.955	215.631	54	54
214.955	215.631	60	61
214.955	215.631	63	63
214.955	215.631	72	47
215.063	215.282	75	48
215.172	215.631	68	50
215.282	215.501	75	47
215.391	215.631	69	50
215.501	215.631	75	47
215.612	216.296	55	51
215.612	216.296	58	57
215.612	216.28	62	59
215.723	215.946	74	47
215.835	216.296	69	50
215.946	216.169	74	47
216.057	216.296	70	50
216.169	216.296	74	47
216.28	216.973	53	50
216.28	216.973	56	57
216.28	216.953	62	61
216.28	216.973	71	47
216.391	216.614	74	47
216.502	216.973	67	50
216.614	216.839	74	48
216.726	216.973	68	50
216.839	216.973	74	46
216.953	217.637	52	51
216.953	217.622	55	57
216.953	217.637	62	59
217.065	217.287	74	47
217.176	217.637	67	50
217.287	217.51	74	47
217.399	217.637	69	50
217.51	217.637	74	47
217.622	218.332	51	45
217.622	218.332	55	51
217.622	218.332	61	56
217.622	218.332	70	47
217.736	217.964	73	47
217.85	218.332	66	50
217.964	218.195	73	48
218.078	218.332	67	50
218.195	218.332	73	46
218.312	219.68	50	48
218.312	218.992	58	54
218.312	219.007	62	56
218.425	218.652	74	44
218.539	219.007	66	47
218.652	218.879	74	44
218.765	219.007	67	46
218.879	219.007	74	43
218.992	219.7	55	52
218.992	219.7	58	56
219.103	219.326	70	42
219.214	219.7	61	45
219.326	219.559	70	43
219.441	219.7	62	44
219.559	219.7	70	40
219.68	221.11	50	44
219.68	220.369	57	50
219.68	220.385	60	51
219.794	220.024	72	40
219.909	220.385	63	43
220.024	220.253	72	40
220.139	220.385	62	42
220.253	220.385	72	39
220.369	221.11	54	47
220.369	221.11	57	51
220.485	220.72	69	39
220.603	221.11	63	41
220.72	220.962	69	39
220.839	221.11	62	41
220.962	221.11	69	37
221.09	221.794	31	41
221.09	221.794	43	49
221.09	221.779	58	51
221.205	221.434	67	34
221.205	221.434	70	40
221.32	221.794	61	43
221.434	221.664	67	33
221.434	221.664	70	40
221.549	221.779	62	42
221.664	221.794	67	33
221.664	221.794	70	40
221.779	222.448	50	38
221.779	222.448	55	38
221.779	222.428	58	45
221.779	222.448	62	53
221.888	222.104	70	34
221.888	222.104	74	40
221.996	222.448	66	48
222.104	222.32	70	32
222.104	222.32	74	41
222.212	222.448	67	48
222.32	222.448	70	35
222.32	222.448	74	41
222.428	223.112	31	45
222.428	223.112	43	53
222.428	223.097	58	56
222.54	222.762	67	38
222.54	222.762	70	44
222.651	223.112	61	47
222.762	222.985	67	37
222.762	222.985	70	45
222.874	223.097	62	47
222.985	223.112	67	37
222.985	223.112	70	44
223.097	223.794	50	43
223.097	223.794	55	43
223.097	223.794	58	51
223.097	223.775	62	61
223.206	223.425	70	38
223.206	223.425	74	46
223.315	223.794	66	53
223.425	223.658	70	36
223.425	223.658	74	46
223.541	223.794	67	55
223.658	223.794	70	38
223.658	223.794	74	45
223.775	224.436	31	49
223.775	224.436	43	59
223.775	224.421	62	62
223.883	224.098	71	41
223.883	224.098	74	48
223.99	224.436	66	53
224.098	224.313	71	40
224.098	224.313	74	50
224.206	224.436	67	52
224.313	224.436	71	42
224.313	224.436	74	49
224.421	225.137	53	47
224.421	225.137	55	47
224.421	225.137	59	47
224.421	225.137	62	56
224.421	225.137	65	68
224.529	224.744	74	42
224.529	224.744	77	50
224.636	225.137	68	56
224.744	224.993	74	40
224.744	224.993	77	51
224.869	225.118	67	57
224.993	225.137	74	42
224.993	225.137	77	51
225.118	225.788	31	56
225.118	225.788	43	67
225.118	225.788	67	69
225.229	225.452	75	46
225.229	225.452	79	55
225.34	225.788	71	58
225.452	225.666	75	45
225.452	225.666	79	55
225.559	225.788	72	56
225.666	225.788	75	44
225.666	225.788	79	52
225.773	226.505	51	50
225.773	226.505	55	50
225.773	226.505	60	59
225.773	226.505	63	71
225.883	226.109	72	44
225.883	226.109	75	52
225.995	226.505	66	57
226.109	226.359	72	41
226.109	226.359	75	51
226.234	226.505	67	57
226.359	226.505	72	42
226.359	226.505	75	50
226.485	227.185	38	62
226.485	227.185	62	65
226.599	226.827	70	42
226.599	226.827	74	51
226.713	227.185	66	54
226.827	227.055	70	40
226.827	227.055	74	49
226.941	227.185	67	51
227.055	227.185	70	40
227.055	227.185	74	47
227.169	227.891	50	44
227.169	227.911	55	52
227.169	227.911	58	63
227.285	227.517	67	38
227.285	227.517	70	46
227.401	227.911	61	52
227.517	227.766	67	36
227.517	227.766	70	46
227.642	227.911	62	51
227.766	227.911	67	36
227.766	227.911	70	43
227.891	228.596	50	41
227.891	228.596	57	53
227.891	228.613	60	58
228.008	228.244	72	38
228.008	228.613	75	45
228.126	228.613	63	47
228.244	228.479	69	36
228.244	228.479	72	44
228.361	228.613	62	45
228.479	228.613	69	34
228.479	228.613	72	41
228.596	229.35	50	38
228.596	229.35	54	46
228.596	229.35	57	56
228.716	228.958	66	34
228.716	228.958	69	40
228.836	229.35	63	47
228.958	229.205	66	31
228.958	229.205	69	40
229.08	229.35	62	46
229.205	229.35	66	32
229.205	229.35	69	38
229.329	230.041	31	41
229.329	230.041	43	49
229.329	230.025	58	51
229.449	229.682	67	34
229.449	229.682	70	40
229.566	230.041	61	43
229.682	229.91	67	33
229.682	229.91	70	40
229.796	230.025	62	42
229.91	230.041	67	33
229.91	230.041	70	40
230.025	230.691	50	38
230.025	230.691	55	38
230.025	230.671	58	45
230.025	230.691	62	54
230.136	230.351	70	34
230.136	230.351	74	40
230.245	230.691	66	48
230.351	230.564	70	32
230.351	230.564	74	41
230.457	230.691	67	48
230.564	230.691	70	35
230.564	230.691	74	41
230.671	231.351	31	45
230.671	231.351	43	53
230.671	231.336	58	56
230.784	231.007	67	38
230.784	231.007	70	44
230.896	231.351	61	47
231.007	231.227	67	37
231.007	231.227	70	45
231.117	231.336	62	47
231.227	231.351	67	37
231.227	231.351	70	44
231.336	232.03	50	43
231.336	232.03	55	43
231.336	232.03	58	51
231.336	232.011	62	61
231.444	231.66	70	38
231.444	231.66	74	46
231.552	232.03	66	52
231.66	231.894	70	36
231.66	231.894	74	46
231.777	232.03	67	53
231.894	232.03	70	38
231.894	232.03	74	45
232.011	232.672	31	49
232.011	232.672	43	59
232.011	232.657	62	62
232.121	232.341	71	41
232.121	232.341	74	48
232.231	232.672	66	53
232.341	232.552	71	40
232.341	232.552	74	50
232.447	232.672	67	52
232.552	232.672	71	42
232.552	232.672	74	49
232.657	233.365	53	47
232.657	233.365	55	47
232.657	233.365	59	47
232.657	233.365	62	56
232.657	233.365	65	68
232.762	232.973	74	42
232.762	232.973	77	50
232.868	233.365	68	56
232.973	233.222	74	40
232.973	233.222	77	51
233.098	233.346	67	58
233.222	233.365	74	42
233.222	233.365	77	51
233.346	234.003	31	56
233.346	234.003	43	67
233.346	234.003	67	69
233.453	233.667	75	46
233.453	233.667	79	55
233.56	234.003	71	58
233.667	233.881	75	45
233.667	233.881	79	55
233.774	234.003	72	56
233.881	234.003	75	44
233.881	234.003	79	52
233.988	234.693	51	50
233.988	234.693	55	50
233.988	234.693	60	59
233.988	234.693	63	71
234.097	234.318	72	44
234.097	234.318	75	52
234.207	234.693	66	58
234.318	234.555	72	41
234.318	234.555	75	51
234.437	234.693	67	56
234.555	234.693	72	42
234.555	234.693	75	50
234.673	235.37	38	62
234.673	235.37	62	65
234.787	235.013	70	42
234.787	235.013	74	51
234.9	235.37	66	54
235.013	235.24	70	40
235.013	235.24	74	49
235.127	235.37	67	51
235.24	235.37	70	40
235.24	235.37	74	47
235.354	236.075	50	44
235.354	236.096	55	52
235.354	236.096	58	63
235.47	235.702	67	38
235.47	235.702	70	46
235.586	236.096	61	53
235.702	235.951	67	36
235.702	235.951	70	46
235.827	236.096	62	53
235.951	236.096	67	36
235.951	236.096	70	43
236.075	236.781	50	41
236.075	236.781	57	53
236.075	236.797	60	58
236.193	236.428	72	38
236.193	236.797	75	45
236.311	236.797	63	47
236.428	236.663	69	36
236.428	236.663	72	44
236.546	236.797	62	45
236.663	236.797	69	34
236.663	236.797	72	41
236.781	237.52	50	38
236.781	237.52	54	46
236.781	237.52	57	56
236.901	237.14	66	34
236.901	237.14	69	40
237.021	237.52	63	47
237.14	237.38	66	31
237.14	237.38	69	40
237.26	237.5	62	46
237.38	237.52	66	32
237.38	237.52	69	38
237.5	237.728	58	51
237.5	238.184	62	57
237.5	238.2	67	57
237.614	237.842	55	44
237.728	237.956	58	49
237.842	238.07	55	46
237.956	238.2	58	55
238.07	238.2	55	52
238.184	238.407	59	59
238.184	238.862	62	63
238.184	238.862	65	63
238.295	238.518	55	53
238.407	238.628	59	59
238.518	238.738	55	56
238.628	238.862	59	60
238.738	238.862	55	56
238.849	239.069	60	66
238.849	239.548	64	69
238.959	239.179	55	58
239.069	239.288	60	60
239.179	239.397	55	51
239.288	239.506	60	57
239.397	239.548	55	49
239.506	239.722	60	72
239.506	240.179	63	65
239.506	240.187	79	69
239.506	240.187	91	81
239.614	239.83	55	56
239.722	239.938	60	67
239.83	240.055	55	56
239.938	240.187	60	63
240.055	241.531	55	52
240.179	240.399	63	70
240.179	241.531	66	65
240.179	241.531	78	66
240.179	241.531	90	78
240.289	240.51	60	54
240.399	240.62	63	63
240.51	240.73	60	54
240.62	240.84	63	61
240.73	240.95	60	50
240.84	241.06	63	58
240.95	241.17	60	44
241.06	241.284	63	53
241.17	241.397	60	43
241.17	241.531	75	64
241.17	241.531	87	75
241.284	241.531	63	50
241.397	241.531	60	42
241.511	241.739	58	51
241.511	242.195	62	57
241.511	242.212	67	57
241.511	242.212	74	56
241.511	242.212	86	67
241.625	241.853	55	44
241.739	241.967	58	49
241.853	242.081	55	46
241.967	242.212	58	55
242.081	242.212	55	52
242.195	242.418	59	59
242.195	242.872	62	63
242.195	242.872	65	63
242.307	242.529	55	53
242.418	242.64	59	59
242.529	242.75	55	56
242.64	242.872	59	60
242.75	242.872	55	56
242.859	243.077	60	66
242.859	243.553	64	69
242.968	243.186	55	58
243.077	243.295	60	60
243.186	243.403	55	51
243.295	243.511	60	57
243.403	243.553	55	49
243.511	243.726	60	72
243.511	244.19	63	65
243.511	244.19	67	66
243.511	244.19	79	78
243.619	243.834	55	56
243.726	243.941	60	67
243.834	244.057	55	56
243.941	244.19	60	63
244.057	245.513	55	52
244.182	244.402	57	70
244.182	245.534	66	63
244.182	245.534	78	75
244.292	244.512	60	54
244.402	244.622	57	63
244.512	244.732	60	54
244.622	244.842	57	61
244.732	244.953	60	50
244.842	245.063	57	58
244.953	245.173	60	44
245.063	245.286	57	53
245.173	245.4	60	43
245.173	245.534	63	61
245.173	245.534	75	72
245.286	245.534	57	50
245.4	245.534	60	42
245.513	245.748	46	51
245.513	246.236	55	57
245.513	246.219	62	56
245.513	246.219	74	67
245.631	245.866	43	44
245.748	245.983	46	49
245.866	246.101	43	46
245.983	246.236	46	55
246.101	246.236	43	52
246.219	246.449	47	59
246.219	246.925	53	63
246.219	246.911	62	66
246.219	246.911	67	66
246.219	246.911	74	78
246.334	246.565	43	53
246.449	246.68	47	59
246.565	246.796	43	56
246.68	246.925	47	60
246.796	246.925	43	56
246.911	247.136	52	66
246.911	248.246	55	69
246.911	249.696	62	63
246.911	248.935	67	63
246.911	249.696	74	75
247.024	247.248	43	58
247.136	247.36	52	60
247.248	247.471	43	52
247.36	247.582	52	58
247.471	247.693	43	50
247.582	247.803	52	58
247.693	247.914	43	46
247.803	248.025	52	56
247.914	248.136	43	48
248.025	248.255	52	56
248.136	248.255	43	46
248.246	248.476	51	64
248.246	249.696	55	71
248.361	248.591	43	50
248.476	248.705	51	59
248.591	248.82	43	52
248.705	248.935	51	61
248.82	249.054	43	51
248.935	249.173	51	60
248.935	249.696	60	70
248.935	249.696	67	70
248.935	249.696	72	82
249.054	249.292	43	47
249.173	249.411	51	58
249.292	249.53	43	47
249.411	249.696	51	57
249.53	249.613	43	49
249.613	250.41	43	49
249.654	252.534	50	51
249.696	250.41	55	55
249.696	249.934	59	70
249.696	249.934	67	70
249.815	250.053	71	57
249.934	250.172	59	60
249.934	250.172	67	60
250.053	250.291	71	55
250.172	250.41	59	60
250.172	250.41	67	60
250.291	250.527	71	56
250.41	254.01	43	47
250.41	251.111	47	47
250.41	254.01	55	56
250.41	250.644	59	69
250.41	250.644	67	83
250.527	250.76	71	56
250.644	250.877	59	61
250.644	250.877	67	61
250.76	250.994	71	56
250.877	251.111	59	61
250.877	251.111	67	61
250.994	251.229	71	56
251.111	254.027	42	48
251.111	251.821	47	48
251.111	254.027	54	57
251.111	251.348	59	70
251.111	254.027	66	74
251.111	251.348	67	70
251.229	251.466	71	56
251.348	251.584	59	61
251.348	251.584	67	61
251.466	251.703	71	58
251.584	251.821	59	62
251.584	251.821	67	62
251.703	251.939	71	57
251.821	254.027	40	49
251.821	252.534	47	49
251.821	254.027	52	58
251.821	252.058	59	72
251.821	254.027	64	72
251.821	252.058	67	72
251.939	252.176	71	58
252.058	252.295	59	63
252.058	252.295	67	63
252.176	252.415	71	57
252.295	252.534	59	63
252.295	252.534	67	63
252.415	252.654	71	59
252.534	254.027	38	50
252.534	253.259	47	50
252.534	254.027	50	59
252.534	252.775	59	73
252.534	254.027	62	73
252.534	252.775	67	73
252.654	252.895	71	59
252.775	253.016	59	63
252.775	253.016	67	63
252.895	253.137	71	58
253.016	253.259	59	64
253.016	253.259	67	64
253.137	253.384	71	59
253.259	254.01	35	51
253.259	254.027	47	60
253.259	253.509	59	76
253.259	253.509	67	72
253.384	253.634	71	59
253.509	253.76	59	64
253.509	253.76	67	64
253.634	253.885	71	60
253.76	254.027	59	64
253.76	254.027	67	64
253.885	254.027	71	61
254.01	254.742	31	50
254.01	254.742	35	50
254.01	258.96	43	59
254.01	254.254	55	73
254.132	254.376	59	61
254.254	254.498	55	66
254.376	254.62	59	61
254.498	254.742	55	66
254.62	254.863	59	61
254.742	255.481	31	51
254.742	255.481	35	51
254.742	258.96	42	61
254.742	258.96	54	74
254.742	254.985	55	74
254.863	255.108	59	62
254.985	255.231	55	66
255.108	255.356	59	62
255.231	255.481	55	67
255.356	255.606	59	61
255.481	256.247	31	53
255.481	256.247	35	53
255.481	258.96	40	63
255.481	258.96	52	76
255.481	255.733	55	76
255.606	255.86	59	62
255.733	255.988	55	67
255.86	256.118	59	61
255.988	256.247	55	67
256.118	256.378	59	62
256.247	257.045	31	55
256.247	257.045	35	55
256.247	258.96	39	65
256.247	258.96	51	77
256.247	256.51	55	78
256.378	256.642	59	62
256.51	256.775	55	68
256.642	256.91	59	63
256.775	257.045	55	69
256.91	257.19	59	63
257.045	257.914	31	57
257.045	257.914	35	57
257.045	258.96	38	68
257.045	258.96	50	79
257.045	257.335	55	78
257.19	257.48	59	63
257.335	257.625	55	69
257.48	257.769	59	63
257.625	257.914	55	69
257.769	258.068	59	64
257.914	258.96	31	59
257.914	258.96	35	70
257.914	258.96	47	81
257.914	258.226	55	81
258.068	258.392	59	65
258.226	258.565	55	70
258.392	258.751	59	64
258.565	258.96	55	70
258.751	258.96	59	66
258.96	261.548	31	89
260.324	261.548	35	62
260.496	261.548	38	65
260.668	261.548	43	68
260.83	261.548	47	71
260.975	261.548	50	74
261.115	261.548	55	76
261.249	261.548	59	76
261.38	261.548	62	79
261.509	265.512	67	86
263.112	265.512	66	67
263.278	265.512	64	68
263.437	265.512	62	69
263.588	265.512	60	69
263.732	265.512	59	70
263.871	265.512	57	71
264.003	265.512	55	71
264.131	265.512	54	72
264.255	265.512	52	70
264.373	265.512	50	71
264.488	265.512	48	72
264.599	265.485	47	72
264.706	265.512	45	73
264.809	265.512	43	74
264.91	265.512	42	75
265.007	265.512	40	76
265.104	265.512	38	77
265.199	265.512	36	78
265.295	265.512	35	78
265.39	265.512	33	79
265.485	268.469	31	83
265.485	267.603	47	88
267.214	268.469	35	60
267.214	267.714	50	67
267.355	268.469	38	62
267.355	267.822	55	69
267.484	268.469	43	63
267.484	267.927	59	70
267.603	268.469	47	65
267.603	268.032	62	72
267.714	268.469	50	66
267.714	268.134	67	73
267.822	268.469	55	67
267.822	268.235	71	75
267.927	268.469	59	69
267.927	268.335	74	76
268.032	268.469	62	70
268.032	268.433	79	78
268.134	268.469	67	72
268.134	268.469	83	79
268.235	268.469	71	73
268.235	268.469	86	81
268.335	268.469	74	75
268.335	268.469	91	86
268.433	270.756	79	84
268.433	272.506	95	89
269.78	270.859	78	56
269.78	272.506	93	65
269.912	270.959	76	57
269.912	272.506	91	66
270.041	271.054	74	57
270.041	272.506	90	66
270.167	271.145	72	58
270.167	272.506	88	67
270.291	271.232	71	58
270.291	272.506	86	67
270.413	271.317	69	59
270.413	272.506	84	68
270.532	271.399	67	60
270.532	272.506	83	69
270.647	271.48	66	60
270.647	272.506	81	69
270.756	271.56	64	61
270.756	272.506	79	70
270.859	271.64	62	61
270.859	272.506	78	70
270.959	271.719	60	62
270.959	272.506	76	71
271.054	271.798	59	63
271.054	272.506	74	71
271.145	271.876	57	63
271.145	272.506	72	72
271.232	271.954	55	64
271.232	272.506	71	72
271.317	272.031	54	64
271.317	272.506	69	73
271.399	272.108	52	65
271.399	272.506	67	73
271.48	272.184	50	65
271.48	272.506	66	74
271.56	272.26	48	66
271.56	272.506	64	74
271.64	272.335	47	67
271.64	272.506	62	75
271.719	272.41	45	67
271.719	272.506	60	76
271.798	272.485	43	68
271.798	272.506	59	76
271.876	272.506	42	68
271.876	272.506	57	77
271.954	272.506	40	69
271.954	272.506	55	77
272.031	272.335	38	70
272.031	272.506	54	78
272.108	272.41	36	70
272.108	272.506	52	78
272.184	272.485	35	71
272.184	272.506	50	79
272.26	272.506	33	71
272.26	272.506	48	79
272.335	272.506	38	72
272.335	272.506	47	80
272.41	272.506	36	72
272.41	272.506	45	80
272.485	275.364	31	82
272.485	275.364	35	82
272.485	274.154	43	89
274.038	275.364	38	60
274.038	274.262	47	67
274.154	275.364	43	62
274.154	274.363	50	69
274.262	275.364	47	63
274.262	274.457	55	70
274.363	275.364	50	65
274.363	274.547	59	72
274.457	275.364	55	66
274.457	274.632	62	73
274.547	275.364	59	67
274.547	274.713	67	75
274.632	275.364	62	69
274.632	274.793	71	76
274.713	275.364	67	70
274.713	274.873	74	78
274.793	275.364	71	72
274.793	274.951	79	79
274.873	275.364	74	73
274.873	275.028	83	81
274.951	275.364	79	72
274.951	275.105	86	82
275.028	275.364	83	74
275.028	275.18	91	84
275.105	275.364	86	76
275.105	276.816	95	87
275.18	277.075	91	84
275.18	279.563	98	89
276.682	277.315	88	56
276.682	279.563	96	65
276.816	277.428	86	56
276.816	279.563	95	65
276.947	277.537	84	56
276.947	279.563	93	65
277.075	277.641	83	57
277.075	279.563	91	66
277.198	277.742	81	57
277.198	279.563	90	66
277.315	277.84	79	58
277.315	279.563	88	67
277.428	277.934	78	58
277.428	279.563	86	67
277.537	278.026	76	59
277.537	279.563	84	68
277.641	278.114	74	60
277.641	279.563	83	69
277.742	278.2	72	60
277.742	279.563	81	69
277.84	278.283	71	61
277.84	279.563	79	70
277.934	278.365	69	61
277.934	279.563	78	70
278.026	278.446	67	62
278.026	279.563	76	71
278.114	278.527	66	63
278.114	279.563	74	71
278.2	278.607	64	63
278.2	279.563	72	72
278.283	278.686	62	64
278.283	279.563	71	72
278.365	278.764	60	64
278.365	279.563	69	73
278.446	278.842	59	65
278.446	279.563	67	73
278.527	278.919	57	65
278.527	279.563	66	74
278.607	278.996	55	66
278.607	279.563	64	74
278.686	279.072	54	67
278.686	279.563	62	75
278.764	279.148	52	67
278.764	279.563	60	76
278.842	279.223	50	68
278.842	279.563	59	76
278.919	279.298	48	68
278.919	279.563	57	77
278.996	279.373	47	69
278.996	279.563	55	77
279.072	279.447	45	68
279.072	279.563	54	78
279.148	279.521	43	69
279.148	279.563	52	77
279.223	279.563	42	70
279.223	279.563	50	78
279.298	279.563	40	71
279.298	279.563	48	80
279.373	279.563	38	73
279.373	279.563	47	82
279.447	279.563	36	74
279.447	279.563	45	83
279.521	284.84	31	82
279.521	284.84	35	82
279.521	281.649	43	89
280.854	284.757	36	48
280.854	281.748	44	68
280.981	284.674	37	49
280.981	281.844	45	68
281.103	284.593	38	49
281.103	281.936	46	69
281.221	284.511	39	50
281.221	282.027	47	70
281.334	284.431	40	51
281.334	282.115	48	70
281.442	284.351	41	52
281.442	282.2	49	71
281.547	284.272	42	52
281.547	282.283	50	72
281.649	284.193	43	53
281.649	282.364	51	72
281.748	284.116	44	54
281.748	282.444	52	73
281.844	284.038	45	55
281.844	282.523	53	74
281.936	283.962	46	55
281.936	282.602	54	74
282.027	283.886	47	56
282.027	282.681	55	75
282.115	283.811	48	57
282.115	282.759	56	76
282.2	283.736	49	58
282.2	282.836	57	76
282.283	283.662	50	58
282.283	282.913	58	77
282.364	283.588	51	59
282.364	282.989	59	77
282.444	283.514	52	60
282.444	283.514	60	78
282.523	283.44	53	61
282.523	283.44	61	79
282.602	283.366	54	61
282.602	283.366	62	80
282.681	283.291	55	62
282.681	283.291	63	80
282.759	283.216	56	63
282.759	283.216	64	81
282.836	283.141	57	64
282.836	283.141	65	81
282.913	283.065	58	64
282.913	283.065	66	82
282.989	283.588	59	59
282.989	285.195	67	85
283.065	283.662	58	59
283.065	285.195	66	84
283.141	283.736	57	58
283.141	285.195	65	83
283.216	283.811	56	57
283.216	285.195	64	81
283.291	283.886	55	57
283.291	285.195	63	80
283.366	283.962	54	56
283.366	285.195	62	79
283.44	284.038	53	55
283.44	285.195	61	78
283.514	284.116	52	55
283.514	285.195	60	76
283.588	284.193	51	52
283.588	285.195	59	74
283.662	284.272	50	53
283.662	285.195	58	75
283.736	284.351	49	54
283.736	285.195	57	76
283.811	284.431	48	56
283.811	285.195	56	77
283.886	284.511	47	57
283.886	285.195	55	78
283.962	284.593	46	59
283.962	285.195	54	79
284.038	284.674	45	60
284.038	285.195	53	81
284.116	284.757	44	62
284.116	285.195	52	82
284.193	284.84	43	66
284.193	285.195	51	83
284.272	285.195	42	67
284.272	285.195	50	84
284.351	285.195	41	69
284.351	285.195	49	86
284.431	285.195	40	71
284.431	285.195	48	88
284.511	285.195	39	72
284.511	285.195	47	89
284.593	285.195	38	74
284.593	285.195	46	91
284.674	285.195	37	75
284.674	285.195	45	93
284.757	285.195	36	77
284.757	285.195	44	95
284.84	285.195	31	88
284.84	285.195	35	88
284.84	285.195	43	108
285.849	287.391	55	63
285.849	287.391	59	75
285.849	287.391	62	75
285.849	287.391	67	90
285.849	287.391	91	81
285.849	287.391	95	81
285.849	287.391	98	96
285.849	287.391	103	113
