OnsetTime	OffsetTime	MidiPitch	Velocity
0.500004	0.552012	50	48
0.500004	0.552012	57	48
0.70805	0.759039	59	45
0.70805	0.759039	65	45
0.912019	0.961412	53	48
0.912019	0.961412	60	48
1.10958	1.16301	62	45
1.10958	1.16301	69	45
1.32328	1.52596	50	48
1.32328	1.49218	59	48
1.52596	1.62665	59	44
1.62665	1.72734	60	44
1.72734	1.92368	59	45
1.72734	1.92368	65	45
1.72734	1.92368	69	45
1.92368	2.0873	57	45
2.14184	2.35125	50	48
2.14184	2.22037	59	48
2.56067	2.72203	60	43
2.56067	2.72203	65	43
2.56067	2.72203	69	43
2.99096	3.40297	45	48
2.99096	3.19901	59	48
3.19901	3.40297	60	45
3.40297	3.50302	62	48
3.40297	3.80316	69	48
3.40297	3.80316	72	48
3.60307	3.70311	64	45
3.80316	4.19342	38	45
3.80316	3.90193	66	48
4.00071	4.06494	66	45
4.06494	4.12918	67	44
4.12918	4.19342	66	44
4.19342	4.3935	64	48
4.19342	4.60292	69	42
4.19342	4.60292	72	42
4.3935	4.60292	62	45
4.60292	5.02172	45	48
4.60292	4.77742	60	48
4.81232	4.98682	62	44
5.02172	5.40563	64	44
5.02172	5.40563	69	44
5.02172	5.40563	72	44
5.44053	5.85254	40	48
5.44053	5.64857	64	48
5.64857	5.85254	66	45
5.85254	6.26016	59	48
5.85254	5.94949	68	45
6.04644	6.1533	69	45
6.26016	6.66946	52	48
6.26016	6.43126	66	48
6.46548	6.56747	66	49
6.56747	6.66946	68	51
6.66946	7.0877	57	51
6.66946	6.86954	62	48
6.66946	6.86954	66	55
6.86954	7.03316	60	43
6.86954	7.03316	64	50
7.0877	7.50103	40	48
7.0877	7.29437	62	48
7.0877	7.29437	66	55
7.50103	7.71617	62	57
7.50103	7.71617	66	57
7.50103	7.71617	69	57
7.93131	10.4485	52	54
7.93131	8.5588	59	54
7.93131	8.14502	64	49
7.93131	8.14502	68	49
8.14502	8.3451	66	46
8.14502	8.3451	69	46
8.3451	8.94253	64	49
8.3451	8.94253	68	49
8.5588	8.76685	60	54
8.76685	9.39129	59	51
8.97767	9.17903	66	48
8.97767	9.17903	69	48
9.17903	9.77132	68	51
9.17903	9.77132	71	51
9.39129	9.59796	60	48
9.59796	10.2141	62	51
9.80599	10.0061	69	50
9.80599	10.0061	72	50
10.0061	10.2141	64	45
10.0061	10.4485	68	45
10.2141	10.4485	64	48
10.4485	11.2672	53	42
10.4485	11.2672	60	42
10.4485	11.2672	69	42
10.4485	10.6552	76	45
10.4485	10.6552	79	45
10.6552	10.7559	74	43
10.6552	10.7559	77	43
10.7559	10.8566	76	43
10.7559	10.8566	79	43
10.8566	11.0632	74	45
10.8566	11.0632	77	45
11.0632	11.2672	72	42
11.0632	11.2672	76	42
11.2672	12.0995	55	34
11.2672	12.0995	62	34
11.2672	12.0995	65	34
11.2672	11.4739	70	45
11.2672	11.4739	74	45
11.4739	11.6861	69	43
11.4739	11.6861	72	43
11.6861	12.3061	70	44
11.6861	12.3061	74	44
12.0995	12.9208	48	38
12.0995	12.9208	55	38
12.0995	12.9208	64	38
12.3061	12.4068	69	42
12.3061	12.4068	72	42
12.4068	12.5075	70	42
12.4068	12.5075	74	42
12.5075	12.7142	69	44
12.5075	12.7142	72	44
12.7142	12.9208	67	42
12.7142	12.9208	70	42
12.9208	13.3411	53	36
12.9208	13.3411	57	36
12.9208	13.3411	60	36
12.9208	13.1289	65	44
12.9208	13.1289	69	44
13.1289	13.3411	64	43
13.1289	13.3411	67	43
13.3411	13.7226	50	34
13.3411	13.7226	57	34
13.3411	13.7226	62	34
13.3411	13.7226	65	43
13.3411	13.7226	69	43
13.7572	14.5667	41	48
13.7572	14.5667	48	48
13.7572	14.5667	57	48
13.7572	14.5667	69	48
13.7572	13.9599	76	51
13.7572	13.9599	79	51
13.9599	14.0593	74	49
13.9599	14.0593	77	49
14.0593	14.1587	76	49
14.0593	14.1587	79	49
14.1587	14.3654	74	51
14.1587	14.3654	77	51
14.3654	14.5667	72	48
14.3654	14.5667	76	48
14.5667	15.3948	43	39
14.5667	15.3948	50	39
14.5667	15.3948	58	39
14.5667	15.3948	65	39
14.5667	14.7734	70	51
14.5667	14.7734	74	51
14.7734	14.9842	69	49
14.7734	14.9842	72	49
14.9842	15.6002	70	50
14.9842	15.6002	74	50
15.3948	16.2149	48	43
15.3948	16.2149	55	43
15.3948	16.2149	60	43
15.3948	16.2149	64	43
15.6002	15.7008	69	46
15.6002	15.7008	72	46
15.7008	15.8015	70	46
15.7008	15.8015	74	46
15.8015	16.0082	69	49
15.8015	16.0082	72	49
16.0082	16.2149	67	45
16.0082	16.2149	70	45
16.2149	16.8492	53	38
16.2149	16.8492	60	38
16.2149	16.4258	65	46
16.2149	16.4258	69	46
16.4258	16.641	64	45
16.4258	16.641	67	45
16.641	17.678	65	49
16.641	17.2589	69	49
16.8492	17.0521	52	43
17.0521	17.678	50	45
17.0521	17.8809	53	45
17.2589	17.4699	67	48
17.4699	18.0878	69	49
17.678	17.8809	48	45
17.678	17.8809	64	46
17.8809	18.4975	47	48
17.8809	19.9178	53	48
17.8809	20.3289	62	46
18.0878	18.2906	67	46
18.2906	18.9032	69	49
18.4975	18.7003	45	50
18.7003	19.3143	43	54
18.9032	19.1114	71	52
19.1114	19.3143	74	56
19.3143	19.5121	45	57
19.3143	19.5121	71	52
19.5121	20.3289	47	62
19.5121	19.715	69	50
19.715	19.9178	71	49
19.9178	20.1207	55	48
19.9178	20.1207	64	50
20.1207	20.3289	52	48
20.1207	20.3289	67	49
20.3289	20.9454	47	52
20.3289	22.5635	53	52
20.3289	22.7717	62	52
20.3289	20.5344	69	52
20.5344	20.7399	67	49
20.7399	21.3486	69	52
20.9454	21.147	45	49
21.147	21.7583	43	54
21.3486	21.5554	71	54
21.5554	21.7583	74	56
21.7583	21.9549	45	55
21.7583	21.9549	71	52
21.9549	22.7717	47	61
21.9549	22.1578	69	55
22.1578	22.3607	71	50
22.3607	22.5635	69	49
22.5635	22.7717	55	52
22.5635	22.7717	65	48
22.7717	25.204	48	45
22.7717	22.9785	56	45
22.7717	24.1998	60	39
22.7717	24.5987	64	39
22.9785	23.1838	54	43
23.1838	23.3891	52	43
23.3891	23.5944	54	43
23.5944	23.7971	56	46
23.7971	23.8731	57	44
23.9989	24.0744	59	44
24.1998	25.204	60	44
24.3999	24.4745	62	46
24.5987	25.204	64	42
24.7975	24.8721	66	42
24.9959	25.0739	68	42
25.204	27.7524	47	44
25.204	25.412	56	44
25.204	26.8679	62	40
25.204	27.0797	64	40
25.412	25.6201	54	40
25.6201	25.8281	52	40
25.8281	26.0362	54	40
26.0362	26.2442	56	44
26.2442	26.3222	57	40
26.4513	26.5288	59	40
26.6585	26.7368	60	40
26.8679	27.7524	62	44
27.0797	27.7524	64	38
27.2941	27.3751	66	37
27.511	27.603	68	34
27.7524	27.8044	38	44
27.7524	27.8044	57	44
27.9604	28.0104	59	42
28.1605	28.2099	45	39
28.1605	28.2099	53	39
28.1605	28.2099	60	44
28.1605	28.2099	65	39
28.1605	28.2099	69	39
28.3581	28.4115	62	42
28.5718	28.7757	38	44
28.5718	28.7417	59	44
28.7757	28.8751	59	40
28.8751	28.9745	60	40
28.9745	29.0227	45	39
28.9745	29.0227	53	39
28.9745	29.1672	59	42
28.9745	29.1672	65	39
28.9745	29.1672	69	39
29.1672	29.3264	57	42
29.3795	29.5822	38	44
29.3795	29.4555	59	44
29.7849	29.8386	45	44
29.7849	29.8386	53	44
29.7849	29.9462	60	39
29.7849	29.9462	65	39
29.7849	29.9462	69	39
30.2151	30.2668	38	44
30.2151	30.4218	59	44
30.4218	30.6232	60	42
30.6232	30.6726	45	39
30.6232	30.6726	54	39
30.6232	30.722	62	44
30.6232	31.0183	69	39
30.6232	31.0183	72	39
30.8207	30.9195	64	42
31.0183	31.2158	38	44
31.0183	31.1171	66	44
31.2158	31.2805	66	42
31.2805	31.3451	67	40
31.3451	31.4097	66	40
31.4097	31.4591	45	39
31.4097	31.4591	54	39
31.4097	31.6073	64	44
31.4097	31.8112	69	38
31.4097	31.8112	72	38
31.6073	31.8112	62	42
31.8112	32.0139	38	44
31.8112	31.9801	60	44
32.0139	32.1828	62	40
32.2166	32.269	45	39
32.2166	32.269	54	39
32.2166	32.6354	64	40
32.2166	32.6354	69	40
32.2166	32.6354	72	40
32.6354	32.6874	38	44
32.6354	32.6874	69	44
32.8435	32.8935	71	42
33.0436	33.093	45	39
33.0436	33.093	53	39
33.0436	33.093	62	39
33.0436	33.093	65	39
33.0436	33.093	72	44
33.2411	33.2946	74	43
33.4548	33.6588	38	45
33.4548	33.6248	71	45
33.6588	33.7582	71	43
33.7582	33.8576	72	43
33.8576	33.9058	45	42
33.8576	33.9058	53	42
33.8576	34.0503	62	42
33.8576	34.0503	65	42
33.8576	34.0503	71	44
34.0503	34.2095	69	44
34.2626	34.4652	38	48
34.2626	34.3386	71	48
34.6679	34.7217	45	49
34.6679	34.7217	53	49
34.6679	34.8293	62	43
34.6679	34.8293	65	43
34.6679	34.8293	72	43
35.0982	35.1499	38	50
35.0982	35.3049	71	50
35.3049	35.5062	72	48
35.5062	35.605	62	50
35.5062	35.9013	69	44
35.5062	35.9013	72	44
35.5062	35.605	74	52
35.7038	35.8026	64	48
35.7038	35.8026	76	50
35.9013	36.0001	66	50
35.9013	36.0001	78	52
36.0989	36.1627	66	48
36.0989	36.1627	78	48
36.1627	36.2266	67	46
36.1627	36.2266	79	48
36.2266	36.2904	66	46
36.2266	36.2904	78	48
36.2904	36.4905	64	50
36.2904	36.4905	76	52
36.4905	36.6999	62	48
36.4905	36.6999	74	50
36.6999	36.9039	60	50
36.6999	36.9039	72	52
36.9039	37.1176	62	46
36.9039	37.1176	74	48
37.1176	37.9431	64	46
37.1176	37.9431	76	48
37.5364	37.7378	57	45
37.5364	37.7378	60	50
37.5364	37.7378	69	45
37.5364	37.7378	72	50
37.7378	37.9431	62	46
37.7378	37.9431	74	48
37.9431	38.317	55	40
37.9431	38.317	59	40
37.9431	38.317	64	46
37.9431	38.317	67	40
37.9431	38.317	71	40
37.9431	38.317	76	48
38.351	38.7645	54	40
38.351	38.5537	57	44
38.351	38.7645	66	40
38.351	38.5537	69	46
38.5537	38.7645	59	43
38.5537	38.7645	71	45
38.7645	39.1779	53	39
38.7645	39.1779	56	39
38.7645	39.567	60	44
38.7645	39.1779	65	39
38.7645	39.1779	68	39
38.7645	39.567	72	46
39.1779	39.4963	52	39
39.1779	39.4963	55	39
39.1779	39.4963	64	38
39.1779	39.4963	67	38
39.6024	40.0157	51	34
39.6024	40.0157	54	34
39.6024	40.4291	56	38
39.6024	40.0157	63	34
39.6024	40.0157	66	34
39.6024	40.4291	68	37
40.0157	40.3257	50	33
40.0157	40.3257	53	33
40.0157	40.3257	62	31
40.0157	40.3257	65	31
40.4291	40.5893	49	33
40.4291	42.8272	52	33
40.4291	40.5893	61	32
40.4291	42.8272	64	32
40.8582	41.0208	48	33
40.8582	41.0208	60	32
41.2942	41.4596	47	32
41.2942	41.4596	59	31
41.7374	41.9259	46	31
41.7374	41.9259	50	31
41.7374	41.9259	58	31
41.7374	41.9259	62	31
42.24	42.4602	40	37
42.8272	43.2843	33	34
43.3347	43.4354	57	44
43.3347	43.4354	60	45
43.3347	43.4354	64	45
43.3347	43.4354	69	45
43.536	43.6336	52	38
43.536	43.6336	59	39
43.536	43.6336	62	39
43.536	43.6336	64	39
43.7312	43.8044	52	38
43.7312	43.8044	59	39
43.7312	43.8044	62	39
43.7312	43.8044	64	39
43.9264	44.0258	57	38
43.9264	44.0258	60	39
43.9264	44.0258	64	39
43.9264	44.0258	69	39
44.1252	44.2246	57	44
44.1252	44.2246	60	44
44.1252	44.2246	64	44
44.1252	44.2246	69	44
44.324	44.421	52	44
44.324	44.421	59	44
44.324	44.421	62	44
44.324	44.421	64	44
44.518	44.5921	52	39
44.518	44.5921	59	40
44.518	44.5921	62	40
44.518	44.5921	64	40
44.7156	44.8181	45	42
44.7156	44.8181	60	43
44.7156	44.8181	64	43
44.7156	44.8181	69	43
44.9207	45.0025	40	49
44.9207	45.0025	62	49
44.9207	45.0025	67	49
44.9207	45.0025	71	49
45.3569	45.7504	33	68
45.3569	45.7504	69	68
45.3569	45.7504	81	68
45.7675	45.8673	57	44
45.7675	45.8673	60	45
45.7675	45.8673	64	45
45.7675	45.8673	69	45
45.967	46.0622	52	38
45.967	46.0622	59	39
45.967	46.0622	62	39
45.967	46.0622	64	39
46.1574	46.2288	52	38
46.1574	46.2288	59	39
46.1574	46.2288	62	39
46.1574	46.2288	64	39
46.3478	46.4463	57	38
46.3478	46.4463	60	39
46.3478	46.4463	64	39
46.3478	46.4463	69	39
46.5448	46.6433	57	44
46.5448	46.6433	60	44
46.5448	46.6433	64	44
46.5448	46.6433	69	44
46.7418	46.8364	52	44
46.7418	46.8364	59	44
46.7418	46.8364	62	44
46.7418	46.8364	64	44
46.931	47.0063	52	39
46.931	47.0063	59	40
46.931	47.0063	62	40
46.931	47.0063	64	40
47.1317	47.2367	45	46
47.1317	47.2367	60	46
47.1317	47.2367	64	46
47.1317	47.2367	69	46
47.3417	47.424	43	51
47.3417	47.424	62	51
47.3417	47.424	67	51
47.3417	47.424	71	51
47.781	48.1771	36	69
47.781	48.1771	72	69
47.781	48.1771	84	69
48.1944	48.2938	60	49
48.1944	48.2938	64	50
48.1944	48.2938	67	50
48.1944	48.2938	72	50
48.3933	48.4885	55	42
48.3933	48.4885	62	43
48.3933	48.4885	65	43
48.3933	48.4885	67	43
48.5836	48.655	55	42
48.5836	48.655	62	43
48.5836	48.655	65	43
48.5836	48.655	67	43
48.774	48.8723	60	42
48.774	48.8723	64	43
48.774	48.8723	67	43
48.774	48.8723	72	43
48.9705	49.0687	60	49
48.9705	49.0687	64	49
48.9705	49.0687	67	49
48.9705	49.0687	72	49
49.167	49.2616	55	49
49.167	49.2616	62	49
49.167	49.2616	65	49
49.167	49.2616	67	49
49.3562	49.4317	55	43
49.3562	49.4317	62	44
49.3562	49.4317	65	44
49.3562	49.4317	67	44
49.5576	49.6623	48	51
49.5576	49.6623	64	51
49.5576	49.6623	67	51
49.5576	49.6623	72	51
49.7669	49.8486	43	56
49.7669	49.8486	65	56
49.7669	49.8486	70	56
49.7669	49.8486	74	56
50.2026	50.5961	36	75
50.2026	50.5961	72	75
50.2026	50.5961	84	75
50.6133	50.7115	60	49
50.6133	50.7115	64	50
50.6133	50.7115	67	50
50.6133	50.7115	72	50
50.8097	50.905	55	42
50.8097	50.905	62	43
50.8097	50.905	65	43
50.8097	50.905	67	43
51.0003	51.0718	55	42
51.0003	51.0718	62	43
51.0003	51.0718	65	43
51.0003	51.0718	67	43
51.1909	51.288	60	42
51.1909	51.288	64	43
51.1909	51.288	67	43
51.1909	51.288	72	43
51.385	51.4821	60	49
51.385	51.4821	64	49
51.385	51.4821	67	49
51.385	51.4821	72	49
51.5791	51.6744	55	49
51.5791	51.6744	62	49
51.5791	51.6744	65	49
51.5791	51.6744	67	49
51.7697	51.8443	55	43
51.7697	51.8443	62	44
51.7697	51.8443	65	44
51.7697	51.8443	67	44
51.9687	52.0741	60	51
51.9687	52.0741	64	51
51.9687	52.0741	67	51
51.9687	52.0741	72	51
52.1796	52.6251	58	57
52.1796	52.6251	65	57
52.1796	52.6251	70	57
52.1796	52.6251	74	57
52.6251	53.2682	63	57
52.6251	53.2682	67	57
52.6251	55.1303	70	57
52.6251	52.8466	75	62
52.8466	53.0574	74	60
53.0574	53.6845	75	63
53.2682	53.4722	58	52
53.2682	53.4722	65	52
53.4722	54.098	63	57
53.4722	54.098	67	57
53.6845	53.8872	74	60
53.8872	54.5101	75	63
54.098	54.3007	65	52
54.098	54.3007	69	52
54.3007	54.9209	63	58
54.3007	54.9209	67	58
54.5101	54.7114	74	61
54.7114	55.3397	75	64
54.9209	55.1303	58	54
54.9209	55.1303	65	54
55.1303	55.9558	57	57
55.1303	55.9558	67	57
55.3397	55.5436	74	60
55.5436	55.745	75	60
55.745	55.9558	79	62
55.9558	57.5606	50	52
55.9558	57.5606	57	52
55.9558	56.1598	67	48
55.9558	57.5606	74	62
56.1598	56.3638	69	52
56.3638	56.5677	67	51
56.5677	56.7717	64	46
56.7717	56.977	67	48
56.977	57.181	69	45
57.181	57.385	67	44
57.385	57.5606	64	38
57.5958	58.2172	62	51
57.5958	58.2172	65	51
57.5958	60.0722	69	50
57.5958	57.8052	74	55
57.8052	58.0105	72	54
58.0105	58.6306	74	56
58.2172	58.4211	57	46
58.2172	58.4211	64	46
58.4211	59.0413	62	51
58.4211	59.0413	65	51
58.6306	58.8332	72	54
58.8332	59.452	74	56
59.0413	59.244	64	46
59.0413	59.244	67	46
59.244	59.8628	62	52
59.244	59.8628	65	52
59.452	59.6534	72	54
59.6534	60.2789	74	57
59.8628	60.0722	57	48
59.8628	60.0722	64	48
60.0722	60.902	55	51
60.0722	60.902	65	51
60.0722	60.902	70	51
60.2789	60.4802	72	55
60.4802	60.6883	74	55
60.6883	60.902	77	57
60.902	62.5337	48	46
60.902	64.1113	55	46
60.902	61.106	65	43
60.902	64.1113	70	55
61.106	61.3099	63	46
61.3099	61.5139	62	45
61.5139	61.7179	63	44
61.7179	61.9218	65	43
61.9218	62.1258	63	40
62.1258	62.3298	62	39
62.3298	62.7377	63	38
62.5337	67.4226	41	46
62.7377	62.9417	62	46
62.9417	63.1456	60	46
63.1456	63.9753	63	46
63.3496	64.2142	53	38
63.3496	64.2142	69	55
63.5618	64.1113	62	34
63.7672	64.1113	60	34
63.9753	64.1793	63	34
64.1793	65.032	51	38
64.1793	64.7943	60	38
64.1793	65.032	67	54
64.3887	64.9971	58	36
64.5915	64.9971	57	36
64.7943	65.6121	60	36
64.9971	67.2474	50	38
64.9971	66.2156	65	54
65.2065	65.6898	58	34
65.4093	65.6898	57	34
65.6121	65.8149	60	34
65.8149	66.0203	58	34
66.0203	66.4196	62	34
66.2156	67.2474	53	39
66.2156	66.8226	65	38
66.2156	66.6236	67	52
66.4196	67.2474	62	36
66.6236	67.2474	55	40
66.6236	67.2185	67	39
66.6236	67.0144	70	57
66.8226	67.2474	65	36
67.0144	67.4226	58	38
67.0144	67.2474	70	40
67.0144	67.4226	74	55
67.2185	67.4226	67	37
67.4226	72.2794	41	46
67.4226	67.6266	63	30
67.4226	68.9922	70	55
67.6266	67.8266	62	37
67.8266	68.0267	60	37
68.0267	68.8469	63	37
68.2268	69.0845	53	38
68.2268	69.0845	69	55
68.4362	68.9922	62	34
68.6389	68.9922	60	34
68.8469	69.0496	63	34
69.0496	69.9023	51	38
69.0496	69.6646	60	38
69.0496	69.9023	67	54
69.259	69.8674	58	36
69.4618	69.8674	57	36
69.6646	70.4795	60	36
69.8674	72.1076	50	38
69.8674	71.083	65	54
70.0768	70.5572	58	34
70.2769	70.5572	57	34
70.4795	70.6822	60	34
70.6822	70.8876	58	34
70.8876	71.2856	62	34
71.083	72.1076	53	39
71.083	71.6873	65	38
71.083	71.4883	67	54
71.2856	72.1076	62	36
71.4883	72.1076	55	40
71.4883	72.0793	67	39
71.4883	71.8792	70	57
71.6873	72.1076	65	36
71.8792	72.2794	58	39
71.8792	72.1076	70	40
71.8792	72.3127	74	55
72.0793	72.2794	67	37
72.2794	73.8031	43	50
72.2794	72.4795	70	42
72.2794	72.7121	76	58
72.4795	72.6796	67	37
72.6796	73.0698	57	39
72.6796	73.0698	60	39
72.6796	73.0698	65	39
72.6796	72.8747	72	39
72.6796	73.0698	77	54
72.8747	73.0698	69	37
73.0698	73.8502	55	39
73.0698	73.8502	58	39
73.0698	73.8502	62	39
73.0698	73.46	70	39
73.0698	73.8502	74	55
73.2649	73.6551	67	37
73.46	73.8502	41	48
73.46	73.8031	70	39
73.6551	73.8502	67	37
73.8502	74.6635	40	50
73.8502	74.2556	70	42
73.8502	74.6635	72	55
74.0529	74.4595	67	37
74.2556	74.6635	38	52
74.2556	74.6635	70	42
74.2556	74.6635	74	55
74.4595	74.6635	67	37
74.6635	77.0749	36	57
74.6635	76.1849	74	45
74.6635	76.1849	79	63
74.8649	76.1849	70	40
75.0662	75.4742	60	40
75.0662	75.4742	64	40
75.0662	75.4742	69	40
75.0662	75.4742	76	44
75.0662	75.4742	81	57
75.2702	75.673	72	40
75.4742	75.8718	60	44
75.4742	75.8718	64	44
75.4742	76.0706	69	44
75.4742	75.8718	76	46
75.4742	76.1849	81	63
75.673	75.8718	72	40
75.8718	76.2694	57	40
75.8718	76.2694	60	40
75.8718	76.2694	64	40
75.8718	76.1849	72	44
75.8718	76.2694	76	57
76.0706	76.2694	69	38
76.2694	77.0749	57	40
76.2694	77.0749	60	40
76.2694	77.0749	64	40
76.2694	76.667	72	44
76.2694	77.0749	76	57
76.4682	76.871	69	36
76.667	76.9492	72	44
76.871	77.0749	69	36
77.0749	78.6181	43	52
77.0749	77.275	70	44
77.0749	77.5076	76	61
77.275	77.4751	67	38
77.4751	78.6181	57	40
77.4751	78.6181	60	40
77.4751	78.6181	65	40
77.4751	77.6702	72	40
77.4751	78.6181	77	56
77.6702	78.6181	69	38
77.8653	78.6457	55	40
77.8653	78.6457	58	40
77.8653	78.6457	62	40
77.8653	78.2555	70	40
77.8653	78.6457	74	57
78.0604	78.4506	67	38
78.2555	78.6457	41	50
78.2555	78.6181	70	40
78.4506	78.6457	67	38
78.6457	79.4487	40	52
78.6457	79.0511	70	44
78.6457	79.4487	72	57
78.8484	79.2499	67	38
79.0511	79.4487	38	55
79.0511	79.4487	70	44
79.0511	79.4487	74	57
79.2499	79.4487	67	38
79.4487	84.0851	36	60
79.4487	80.9673	74	48
79.4487	80.9673	79	67
79.6467	80.9673	70	43
79.8446	80.248	60	43
79.8446	80.248	64	43
79.8446	80.248	69	43
79.8446	80.248	76	46
79.8446	80.248	81	60
80.0463	80.4448	72	43
80.248	80.6415	60	46
80.248	80.6415	64	46
80.248	80.8313	69	46
80.248	80.6415	76	49
80.248	80.9673	81	67
80.4448	80.6415	72	43
80.6415	81.0211	57	43
80.6415	81.0211	60	43
80.6415	81.0211	64	43
80.6415	80.9673	72	46
80.6415	81.0211	76	60
80.8313	81.0211	69	39
81.0211	81.6829	57	45
81.0211	81.6829	60	45
81.0211	81.6829	64	45
81.0211	81.6829	72	46
81.0211	81.6829	76	60
81.2215	81.6829	69	37
81.4219	81.7992	62	48
81.4219	81.7992	65	48
81.4219	81.7992	70	48
81.4219	81.6829	77	52
81.4219	81.7992	82	70
81.6106	81.7992	74	44
81.7992	82.1927	62	52
81.7992	82.1927	65	52
81.7992	82.1927	70	52
81.7992	81.996	77	58
81.7992	82.1927	82	76
81.996	82.1927	74	40
82.1927	82.57	64	48
82.1927	82.57	67	48
82.1927	82.57	72	48
82.1927	82.3814	79	58
82.1927	82.57	84	70
82.3814	82.57	76	40
82.57	82.9611	64	52
82.57	82.9611	67	52
82.57	82.9611	72	52
82.57	82.7656	79	58
82.57	82.9611	84	78
82.7656	82.9611	76	40
82.9611	83.3371	60	48
82.9611	83.3371	64	48
82.9611	83.3371	69	48
82.9611	83.1501	76	58
82.9611	83.3371	81	70
83.1501	83.3371	72	40
83.3371	83.7111	60	52
83.3371	83.7111	64	52
83.3371	83.7111	69	52
83.3371	83.5241	76	58
83.3371	83.7111	81	76
83.5241	83.7111	72	40
83.7111	84.0851	64	56
83.7111	84.0851	69	56
83.7111	84.0851	72	56
83.7111	83.8981	81	58
83.7111	84.0851	84	79
83.8981	84.0851	76	40
84.0851	86.3338	34	66
84.0851	86.3338	41	66
84.0851	84.2721	82	78
84.0851	84.459	86	78
84.2721	84.459	76	44
84.459	86.3338	65	71
84.459	84.6518	82	76
84.459	84.8445	86	76
84.6518	86.3338	77	44
84.8445	86.3338	55	44
84.8445	86.3338	58	44
84.8445	85.9664	62	74
84.8445	85.2184	82	66
84.8445	85.2184	86	66
85.0314	85.4054	74	51
85.2184	85.5924	82	65
85.2184	85.5924	86	65
85.4054	86.1501	74	51
85.5924	86.3338	60	68
85.5924	85.9664	82	63
85.5924	85.9664	86	63
85.7794	86.3338	72	50
85.9664	86.3338	62	63
85.9664	86.3338	82	60
85.9664	86.3338	86	60
86.1501	86.3338	74	52
86.3338	88.6194	58	44
86.3338	88.6194	62	44
86.3338	87.0631	67	67
86.3338	86.7145	82	60
86.3338	86.7145	86	60
86.5242	87.0631	79	53
86.7145	87.0798	69	58
86.7145	87.0631	82	60
86.7145	87.0631	86	60
86.8972	87.0798	81	52
87.0798	88.4804	69	60
87.0798	87.456	82	59
87.0798	87.456	86	59
87.2679	88.4804	81	45
87.456	87.8438	64	58
87.456	87.8438	82	57
87.456	87.8438	86	57
87.6499	88.0377	76	43
87.8438	88.6194	64	57
87.8438	88.2316	82	49
87.8438	88.2316	86	49
88.0377	88.4255	76	39
88.2316	88.4804	82	47
88.2316	88.4804	86	47
88.4255	88.6194	76	38
88.6194	91.0616	34	52
88.6194	91.0616	41	52
88.6194	88.8195	82	50
88.6194	89.0195	86	69
88.8195	89.0195	76	34
89.0195	91.0002	65	49
89.0195	89.2248	82	49
89.0195	89.4302	86	67
89.2248	91.0002	77	34
89.4302	91.0616	55	29
89.4302	91.0616	58	29
89.4302	90.6283	62	49
89.4302	89.8252	82	58
89.4302	89.8252	86	58
89.6277	90.0228	74	37
89.8252	90.2203	82	57
89.8252	90.2203	86	57
90.0228	90.8449	74	37
90.2203	91.0002	60	47
90.2203	90.6283	82	51
90.2203	90.6283	86	51
90.4243	91.0002	72	35
90.6283	91.0254	62	44
90.6283	91.0002	82	48
90.6283	91.0002	86	48
90.8449	91.0254	74	33
91.0616	91.8063	28	40
91.0616	91.8063	40	40
91.0616	91.4475	83	44
91.0616	91.4475	88	44
91.2519	91.4367	76	38
91.4367	91.7739	71	38
91.4367	91.7739	76	38
91.6215	91.8063	64	38
91.8063	92.5654	29	42
91.8063	92.5654	41	42
91.8063	92.15	69	45
91.8063	92.15	76	45
91.9967	92.1825	64	42
92.1825	92.5654	57	45
92.1825	92.5543	64	45
92.3684	92.5654	52	42
92.5543	93.9389	31	45
92.5543	93.9389	43	45
92.5543	92.9305	59	47
92.5543	92.9305	64	47
92.7447	93.1164	52	45
92.9305	93.2156	59	48
92.9305	93.2156	64	48
93.1164	93.4882	52	46
93.3023	94.4243	33	47
93.3023	94.4243	45	47
93.3023	93.6741	60	50
93.3023	93.6741	64	50
93.4882	93.8599	52	47
93.6741	93.9389	60	50
93.6741	93.9389	64	50
93.8599	94.235	52	48
94.0458	94.7103	35	42
94.0458	94.7103	47	42
94.0458	94.7103	62	49
94.0458	94.4243	64	49
94.235	94.6181	52	47
94.4243	94.8121	33	42
94.4243	94.8121	45	42
94.4243	94.7103	60	49
94.4243	94.7103	64	49
94.6181	94.8121	52	47
94.8121	95.2254	31	40
94.8121	95.2254	43	40
94.8121	95.9783	59	41
94.8121	95.9783	62	41
94.8121	95.2254	65	41
95.2254	95.9783	29	39
95.2254	95.9783	41	39
95.2254	95.9783	69	39
95.6678	96.4125	28	40
95.6678	96.4125	40	40
95.6678	95.9783	83	44
95.6678	95.9783	88	44
95.8582	96.043	76	38
96.043	96.391	71	38
96.043	96.391	76	38
96.2277	96.4125	64	38
96.4125	97.1716	29	42
96.4125	97.1716	41	42
96.4125	96.7562	69	45
96.4125	96.7562	76	45
96.6029	96.7887	64	42
96.7887	97.1716	57	45
96.7887	97.1605	64	45
96.9746	97.1716	52	42
97.1605	97.9085	31	42
97.1605	97.9085	43	42
97.1605	97.5367	59	46
97.1605	97.5367	64	46
97.3509	97.7226	52	43
97.5367	97.9085	59	46
97.5367	97.9085	64	46
97.7226	97.9085	52	43
97.9085	98.6633	33	36
97.9085	98.6633	45	36
97.9085	98.2803	60	45
97.9085	98.2803	64	45
98.0944	98.4718	52	41
98.2803	98.6426	60	44
98.2803	98.6426	64	44
98.4718	98.6633	52	41
98.6633	99.5076	35	32
98.6633	99.5076	47	32
98.6633	99.0713	62	41
98.6633	99.0713	64	41
98.8673	99.2894	52	39
99.0713	99.5076	62	40
99.0713	99.5076	64	40
99.2894	99.5076	52	38
99.5076	100.559	36	29
99.5076	100.559	48	29
99.5076	99.9946	64	39
99.7511	100.303	52	34
99.9946	100.303	64	36
100.303	100.559	52	32
100.457	100.61	38	29
100.508	100.61	45	33
100.559	100.61	54	37
100.559	100.61	69	44
100.566	100.617	60	37
100.566	100.617	64	37
100.763	100.813	71	42
100.961	101.009	72	44
101.155	101.207	74	43
101.365	101.535	71	44
101.569	101.669	71	39
101.669	101.768	72	39
101.768	101.961	71	44
101.961	102.12	69	44
102.067	102.376	38	27
102.12	102.376	45	32
102.173	102.376	54	35
102.173	102.325	60	34
102.173	102.325	64	34
102.173	102.249	71	48
102.579	102.74	72	43
102.901	103.061	38	37
102.955	103.061	45	37
103.009	103.061	54	37
103.009	103.417	60	37
103.009	103.417	64	37
103.009	103.216	71	45
103.216	103.417	72	43
103.417	103.516	74	45
103.614	103.713	76	43
103.812	103.861	69	39
103.812	103.911	78	45
104.01	104.073	78	43
104.073	104.137	79	41
104.137	104.201	78	41
104.201	104.401	76	45
104.401	104.611	74	43
104.611	104.665	62	39
104.611	104.827	72	45
104.827	105.053	74	41
105.053	105.505	76	41
105.505	109.535	60	33
105.505	109.535	62	33
105.505	107.933	65	37
105.505	107.933	74	37
105.505	105.556	81	44
105.709	105.757	83	42
105.902	105.949	84	44
106.09	106.143	86	43
106.301	106.471	83	44
106.505	106.601	83	39
106.601	106.697	84	39
106.697	106.886	83	44
106.886	107.045	81	44
107.098	107.174	83	48
107.503	107.665	84	43
107.933	108.737	66	37
107.933	110.43	74	37
107.933	108.14	83	45
108.14	108.342	84	43
108.342	108.44	86	45
108.539	108.638	88	43
108.737	109.535	69	37
108.737	108.835	90	45
108.934	108.998	90	43
108.998	109.062	91	41
109.062	109.126	90	41
109.126	109.326	88	45
109.326	109.535	86	43
109.535	109.752	38	37
109.535	109.752	84	45
109.752	109.978	86	41
109.978	110.633	88	41
110.317	110.829	55	31
110.373	110.78	62	35
110.43	110.829	71	37
110.633	110.731	86	42
110.829	110.927	83	41
111.025	111.123	81	41
111.222	111.322	83	44
111.423	111.52	79	41
111.617	111.714	76	41
111.811	111.913	74	41
112.016	112.878	48	32
112.016	112.878	55	32
112.016	112.878	64	32
112.016	112.878	67	31
112.016	112.432	72	46
112.016	113.08	76	31
112.432	112.878	69	38
112.766	113.277	43	37
112.822	113.277	50	37
112.878	113.277	59	37
112.878	113.669	62	30
112.878	113.669	67	30
112.878	113.277	71	30
113.08	113.179	74	42
113.277	113.669	71	41
113.473	113.571	69	41
113.669	113.77	71	44
113.871	113.968	67	41
114.065	114.162	64	41
114.259	114.362	62	41
114.465	114.902	45	32
114.465	116.978	48	32
114.465	114.902	60	44
114.465	115.582	64	30
114.902	115.374	42	32
114.902	115.374	57	38
115.374	117.784	40	32
115.374	117.784	55	35
115.582	115.786	66	40
115.786	115.882	67	40
115.977	116.079	69	40
116.181	116.349	64	43
116.383	116.482	64	39
116.482	116.581	66	39
116.581	116.775	64	43
116.775	116.927	62	39
116.978	117.784	47	32
116.978	117.107	64	44
117.391	117.514	67	44
117.784	118.186	33	39
117.784	118.186	45	39
117.784	117.909	62	44
117.784	117.909	67	44
117.784	117.909	71	44
118.186	118.312	60	41
118.186	118.312	64	41
118.186	118.312	69	41
118.589	118.715	57	44
118.992	119.118	52	41
119.395	119.546	45	51
119.797	119.948	43	50
120.2	122.554	29	77
120.2	122.554	41	77
120.2	120.979	69	77
120.2	120.927	81	77
120.397	120.927	79	70
120.494	120.927	77	70
120.591	120.927	76	70
120.688	120.927	74	70
120.785	120.927	72	70
120.882	120.979	71	70
120.979	121.978	69	77
121.176	121.684	67	69
121.273	121.684	65	69
121.37	121.684	64	69
121.467	121.684	62	69
121.564	121.684	60	69
121.661	121.758	59	69
121.758	122.156	57	77
121.962	122.124	72	65
122.156	122.554	55	68
122.156	122.375	71	68
122.358	122.521	74	65
122.554	122.95	57	71
122.554	124.147	65	58
122.554	122.771	72	68
122.755	122.918	76	65
122.95	123.347	59	66
122.95	123.168	74	67
123.151	123.314	77	68
123.347	123.749	60	63
123.347	123.567	76	71
123.55	123.766	72	61
123.749	124.147	62	62
123.749	123.964	71	59
123.948	124.147	67	55
124.147	124.576	59	55
124.147	124.576	62	55
124.147	124.576	65	55
124.576	124.793	57	53
124.576	124.955	64	55
124.576	124.955	67	55
124.793	125.799	55	50
125.009	127.356	29	77
125.009	127.356	41	77
125.009	125.788	69	77
125.009	125.799	81	77
125.206	125.799	79	70
125.303	125.799	77	70
125.4	125.799	76	70
125.497	125.799	74	70
125.594	125.799	72	70
125.691	125.799	71	70
125.788	126.785	69	77
125.985	126.533	67	69
126.082	126.533	65	69
126.179	126.533	64	69
126.276	126.533	62	69
126.373	126.533	60	69
126.47	126.567	59	69
126.567	126.962	57	77
126.768	126.93	72	65
126.962	127.356	55	68
126.962	127.179	71	68
127.162	127.324	74	65
127.356	127.753	57	71
127.356	128.949	65	58
127.356	127.574	72	68
127.558	127.72	76	65
127.753	128.149	59	66
127.753	127.97	74	67
127.954	128.117	77	68
128.149	128.552	60	63
128.149	128.37	76	71
128.353	128.568	72	59
128.552	128.949	62	62
128.552	128.767	71	59
128.751	128.949	67	57
128.949	129.379	57	55
128.949	129.379	62	55
128.949	129.379	65	55
129.379	129.6	55	53
129.379	129.766	65	55
129.379	129.766	69	55
129.6	130.595	53	50
129.821	132.175	27	81
129.821	132.175	39	81
129.821	130.6	67	77
129.821	130.595	79	79
130.018	130.595	77	70
130.115	130.595	75	70
130.212	130.595	74	70
130.309	130.595	72	70
130.406	130.595	70	70
130.503	130.6	69	70
130.6	131.6	67	77
130.798	131.329	65	69
130.895	131.329	63	69
130.992	131.329	62	69
131.089	131.329	60	69
131.186	131.329	58	69
131.283	131.38	57	69
131.38	131.777	55	77
131.583	131.745	70	65
131.777	132.175	53	68
131.777	131.996	69	68
131.98	132.143	72	65
132.175	132.571	55	71
132.175	133.768	63	58
132.175	132.393	70	68
132.376	132.539	74	65
132.571	132.968	57	66
132.571	132.789	72	67
132.773	132.935	75	68
132.968	133.371	58	63
132.968	133.188	74	71
133.172	133.387	70	58
133.371	133.768	60	62
133.371	133.586	69	59
133.569	133.768	65	55
133.768	134.198	57	55
133.768	134.198	60	55
133.768	134.198	63	55
134.198	134.414	55	53
134.198	134.576	62	55
134.198	134.576	65	55
134.414	134.63	53	50
134.63	136.976	27	81
134.63	136.976	39	81
134.63	135.405	67	77
134.63	135.383	79	79
134.827	135.383	77	70
134.923	135.383	75	70
135.02	135.383	74	70
135.116	135.383	72	70
135.213	135.383	70	70
135.309	135.405	69	70
135.405	136.401	67	77
135.603	136.158	65	69
135.699	136.158	63	69
135.795	136.158	62	69
135.892	136.158	60	69
135.988	136.158	58	69
136.084	136.181	57	69
136.181	136.579	55	77
136.385	136.546	70	65
136.579	136.976	53	68
136.579	136.797	69	68
136.781	136.944	72	65
136.976	137.373	55	71
136.976	138.569	63	58
136.976	137.194	70	68
137.178	137.34	74	65
137.373	137.769	57	66
137.373	137.59	72	67
137.574	137.737	75	68
137.769	138.172	58	63
137.769	137.99	74	71
137.973	138.188	70	58
138.172	138.569	60	62
138.172	138.387	69	63
138.371	138.569	65	54
138.569	138.999	57	55
138.569	138.999	60	55
138.569	138.999	63	55
138.999	139.215	58	53
138.999	139.318	63	40
138.999	139.318	67	55
139.215	139.421	60	50
139.421	140.017	50	46
139.421	140.017	57	46
139.421	140.017	62	48
139.421	140.017	66	48
140.017	140.172	45	41
140.017	140.172	60	34
140.017	140.172	63	34
140.017	140.172	67	42
140.224	140.82	50	46
140.224	140.82	57	46
140.224	140.82	62	48
140.224	140.82	66	48
140.82	141.013	45	42
140.82	140.965	60	34
140.82	140.965	63	34
140.82	140.965	67	42
141.013	141.41	50	45
141.013	141.41	57	45
141.013	141.41	62	47
141.013	141.41	66	47
141.41	141.824	42	49
141.41	141.824	60	38
141.41	141.824	63	38
141.41	141.824	69	50
141.824	142.237	43	52
141.824	142.237	58	45
141.824	142.237	62	45
141.824	142.237	67	55
142.237	142.637	45	45
142.237	142.437	57	43
142.237	142.437	62	43
142.237	142.437	66	43
142.437	142.637	67	46
142.637	143.438	46	42
142.637	144.259	55	45
142.637	143.643	62	45
142.637	143.438	64	45
143.438	144.259	45	43
143.643	143.843	61	44
143.843	144.051	59	44
144.051	144.259	61	44
144.259	145.757	50	45
144.259	144.662	57	44
144.259	144.662	62	44
144.259	144.662	66	44
144.662	145.052	60	51
144.662	145.052	69	51
145.052	145.863	64	48
145.052	145.863	66	48
145.052	145.863	72	48
145.757	146.585	43	36
145.81	146.585	50	39
145.863	146.585	59	44
145.863	146.279	62	46
145.863	146.279	67	46
145.863	146.279	71	46
146.279	146.697	66	49
146.279	146.697	71	49
146.279	146.697	74	49
146.585	148.316	40	40
146.641	148.316	55	44
146.697	148.316	47	48
146.697	147.518	69	52
146.697	147.518	71	52
146.697	147.518	78	52
147.518	147.924	67	49
147.518	148.316	71	42
147.518	147.924	76	49
147.924	148.316	66	49
147.924	148.316	74	49
148.316	149.145	45	40
148.316	148.527	64	46
148.316	148.731	67	46
148.316	148.731	71	46
148.527	148.731	62	45
148.731	148.941	61	43
148.731	149.145	64	43
148.731	149.145	67	43
148.941	149.145	59	42
149.145	149.741	50	46
149.145	149.741	57	46
149.145	149.741	62	48
149.145	149.741	66	48
149.741	149.896	45	41
149.741	149.896	60	34
149.741	149.896	63	34
149.741	149.896	67	42
149.948	150.544	50	46
149.948	150.544	57	46
149.948	150.544	62	48
149.948	150.544	66	48
150.544	150.737	45	42
150.544	150.689	60	34
150.544	150.689	63	34
150.544	150.689	67	42
150.737	151.135	50	45
150.737	151.135	57	45
150.737	151.135	62	47
150.737	151.135	66	47
151.135	151.548	42	49
151.135	151.548	60	38
151.135	151.548	63	38
151.135	151.548	69	50
151.548	151.961	43	52
151.548	151.961	59	45
151.548	151.961	62	45
151.548	151.961	67	55
151.961	152.362	45	45
151.961	152.161	57	43
151.961	152.161	62	43
151.961	152.161	66	43
152.161	152.362	67	46
152.362	152.73	47	45
152.362	152.73	55	45
152.362	152.73	62	45
152.362	152.73	64	45
152.783	153.191	49	48
152.783	153.191	64	46
152.783	153.191	67	46
152.783	153.191	71	46
153.191	153.596	50	51
153.191	153.596	61	50
153.191	153.596	66	50
153.191	153.596	69	50
153.596	154.007	52	51
153.596	154.007	59	52
153.596	154.007	64	52
153.596	154.007	67	52
154.007	154.366	54	51
154.007	154.366	58	52
154.007	154.366	61	52
154.007	154.366	66	52
154.418	154.82	55	50
154.418	154.82	66	52
154.418	154.82	71	52
154.418	154.82	74	52
154.82	155.222	57	52
154.82	155.222	64	54
154.82	155.222	67	54
154.82	155.222	73	54
155.222	155.615	59	54
155.222	155.615	62	56
155.222	155.615	66	56
155.222	155.615	71	56
155.615	156.454	61	57
155.615	156.454	64	60
155.615	156.454	67	60
155.615	156.018	69	60
156.018	156.345	81	66
156.454	156.553	62	43
156.454	156.553	69	43
156.454	157.05	74	48
156.454	157.05	78	48
156.454	158.378	81	48
156.852	156.951	57	35
157.05	157.147	75	34
157.05	157.147	79	42
157.243	157.343	50	42
157.243	157.84	74	48
157.243	157.84	78	48
157.641	157.74	57	37
157.84	157.936	75	34
157.84	157.936	79	42
158.032	158.131	62	43
158.032	158.378	74	47
158.032	158.378	78	47
158.427	158.833	54	36
158.427	158.833	60	36
158.427	158.833	63	36
158.427	158.833	69	36
158.427	158.833	72	49
158.427	158.833	75	49
158.427	158.833	81	49
158.833	159.238	55	36
158.833	159.238	58	36
158.833	159.238	62	36
158.833	159.238	67	36
158.833	159.238	70	49
158.833	159.238	74	49
158.833	159.238	79	49
159.238	159.638	57	35
159.238	159.638	62	35
159.238	159.638	66	35
159.238	159.438	69	40
159.238	159.438	74	40
159.238	159.438	78	40
159.438	159.638	79	43
159.638	160.439	58	34
159.638	160.439	62	34
159.638	160.439	64	34
159.638	160.439	67	38
159.638	160.439	74	38
159.638	160.439	76	38
160.439	161.26	61	36
160.439	161.26	64	36
160.439	161.26	67	36
160.439	161.26	70	42
160.439	161.26	76	42
160.439	161.26	79	42
161.26	162.884	62	42
161.26	162.884	66	42
161.26	162.079	69	44
161.26	161.662	74	44
161.26	161.662	78	44
161.662	162.079	81	54
162.079	162.884	57	38
162.079	162.884	72	47
162.079	162.884	78	47
162.079	162.884	84	47
162.884	163.736	55	36
162.884	165.43	59	36
162.884	165.43	67	52
162.884	163.3	71	52
163.3	163.736	74	50
163.736	166.406	45	37
163.736	166.406	52	37
163.736	164.585	78	55
164.585	164.991	76	49
164.991	165.43	74	46
165.43	166.406	61	38
165.43	165.899	67	43
165.43	165.899	71	43
165.899	166.406	64	38
165.899	166.406	67	38
166.406	167.323	44	38
166.406	167.323	59	36
166.406	167.323	62	36
166.406	167.323	66	36
167.323	167.759	45	39
167.323	167.759	56	38
167.323	167.759	61	38
167.323	167.759	64	38
167.759	168.181	47	38
167.759	168.181	54	36
167.759	168.181	59	36
167.759	168.181	62	36
168.181	168.611	49	39
168.181	168.611	53	38
168.181	168.611	59	38
168.181	168.611	61	38
168.611	168.812	51	37
168.611	171.434	59	36
168.611	169.014	61	36
168.611	169.417	68	36
168.812	169.014	53	40
169.014	169.804	54	45
169.014	171.434	62	36
169.417	169.546	66	33
169.546	169.675	68	37
169.675	169.804	69	41
169.804	170.621	56	36
169.804	170.22	66	43
170.22	171.021	64	40
170.621	171.4	57	38
171.021	171.4	66	45
171.434	172.255	59	38
171.434	173.077	68	39
171.434	172.255	74	39
171.434	172.255	78	39
172.255	172.671	61	39
172.255	172.671	73	38
172.255	172.671	76	38
172.671	173.077	62	38
172.671	173.077	71	36
172.671	173.077	74	36
173.077	173.496	64	39
173.077	173.496	68	38
173.077	173.496	71	38
173.077	173.496	73	38
173.496	173.929	65	39
173.496	177.556	71	44
173.496	173.929	73	44
173.496	174.339	80	44
173.929	177.556	66	39
173.929	177.556	74	43
174.339	174.75	78	38
174.75	175.175	80	39
175.175	175.617	81	36
175.617	176.128	78	38
176.128	177.556	80	35
177.556	179.505	34	35
177.556	179.505	46	35
177.556	179.505	51	35
177.556	178.468	55	35
177.556	178.517	58	35
178.468	179.539	55	31
178.468	179.539	70	32
178.517	179.539	58	33
178.517	179.539	75	34
178.566	179.539	63	35
178.566	179.539	79	35
178.616	179.539	67	40
178.616	179.539	82	41
179.539	181.601	46	38
179.539	181.601	51	38
179.539	181.426	55	38
179.539	181.475	58	38
180.529	181.601	34	44
181.426	182.505	55	31
181.426	182.505	70	32
181.475	182.505	58	33
181.475	182.505	75	33
181.524	182.505	63	35
181.524	182.505	79	35
181.574	182.505	67	41
181.574	182.505	82	40
182.505	183.837	46	41
182.505	183.837	51	40
182.505	183.837	55	40
182.505	183.639	58	40
183.435	183.837	34	41
183.639	183.837	60	42
183.837	184.031	62	44
184.031	184.242	63	43
184.242	184.644	51	36
184.242	184.644	55	36
184.242	184.412	60	44
184.446	184.545	60	39
184.545	184.644	62	39
184.644	184.789	60	44
184.837	184.996	58	44
185.049	185.101	60	43
185.049	185.152	67	33
185.049	185.152	72	33
185.049	185.152	75	33
185.46	185.514	63	39
185.89	186.292	34	41
185.89	186.292	46	41
185.89	186.094	62	42
186.094	186.292	63	42
186.292	186.486	65	44
186.486	186.697	67	43
186.697	187.099	50	36
186.697	187.099	55	36
186.697	187.099	58	36
186.697	186.867	62	44
186.901	187.0	62	39
187.0	187.099	63	39
187.099	187.244	62	44
187.292	187.451	60	42
187.504	187.711	58	39
187.504	187.608	67	33
187.504	187.608	70	33
187.504	187.608	74	33
187.711	187.918	60	39
187.918	188.348	62	39
188.348	190.797	46	41
188.348	189.154	55	36
188.348	189.154	61	36
188.348	188.552	63	42
188.552	188.749	65	42
188.749	188.943	67	44
188.943	189.154	68	43
189.154	189.962	56	38
189.154	189.324	65	44
189.358	189.458	65	39
189.458	189.557	67	39
189.557	189.701	65	44
189.75	189.909	63	44
189.962	190.013	65	46
189.962	190.37	68	36
189.962	190.37	73	36
189.962	190.37	77	36
190.37	190.423	68	44
190.797	191.603	46	41
190.797	191.603	51	41
190.797	192.006	61	39
190.797	191.001	67	46
191.001	191.199	68	46
191.199	191.393	70	48
191.393	191.603	72	47
191.603	191.773	67	48
191.603	192.006	73	36
191.603	192.006	75	36
191.807	191.907	65	42
191.874	191.94	67	42
191.94	192.006	65	42
192.006	192.151	63	48
192.199	192.356	61	46
192.408	194.041	51	41
192.408	192.612	63	42
192.612	192.816	65	42
192.816	193.247	67	42
193.247	194.041	46	45
193.247	194.44	61	42
193.247	193.449	67	50
193.449	193.645	68	50
193.645	193.837	70	52
193.837	194.041	72	51
194.041	194.209	67	52
194.041	194.44	73	40
194.041	194.44	75	40
194.243	194.341	65	46
194.309	194.374	67	46
194.374	194.44	65	46
194.44	194.583	63	53
194.631	194.784	61	50
194.835	195.648	51	47
194.835	195.035	63	54
195.035	195.235	65	51
195.235	195.648	67	51
195.648	196.433	42	52
195.648	196.433	52	52
195.648	196.823	61	55
195.648	195.848	68	55
195.848	196.042	69	56
196.042	196.232	71	58
196.232	196.433	73	57
196.433	196.596	68	58
196.433	196.823	73	45
196.433	196.823	76	45
196.628	196.726	66	51
196.693	196.758	68	51
196.758	196.823	66	51
196.823	196.965	64	59
197.012	197.16	63	56
197.21	198.386	52	52
197.21	197.405	64	60
197.405	197.6	66	57
197.6	198.197	68	57
198.0	198.386	40	60
198.0	199.145	62	60
198.197	198.386	69	55
198.386	198.578	71	57
198.578	198.766	73	60
198.766	198.959	68	65
198.766	199.145	74	46
198.766	199.145	76	46
198.959	199.145	69	59
199.145	199.334	71	63
199.334	199.52	73	66
199.52	200.38	52	54
199.52	199.711	74	70
199.711	199.896	76	64
199.896	200.38	78	67
200.084	200.38	40	65
200.084	200.38	80	69
200.267	201.004	61	56
200.267	200.994	62	56
200.267	201.004	69	56
200.267	200.816	81	76
200.457	201.004	73	58
200.635	201.004	74	58
200.816	201.004	81	58
200.994	201.726	59	53
200.994	201.716	62	53
200.994	201.726	68	53
200.994	201.539	80	75
201.178	201.726	71	56
201.357	201.726	74	56
201.539	201.726	80	56
201.716	202.435	56	48
201.716	202.435	62	48
201.716	202.435	66	48
201.716	202.26	78	72
201.898	202.435	71	55
202.077	202.435	74	55
202.26	202.435	78	55
202.435	203.517	57	47
202.435	203.517	61	47
202.435	204.61	64	47
202.435	202.974	76	71
202.617	203.335	69	52
202.795	203.152	73	52
202.974	204.61	76	52
203.152	204.61	40	64
203.152	203.388	73	52
203.335	203.696	69	52
203.517	204.61	57	54
203.517	203.874	61	54
203.517	203.874	66	54
203.517	204.056	73	55
203.517	203.874	78	67
203.696	203.874	69	55
203.874	204.61	61	54
203.874	204.237	66	54
203.874	204.237	69	54
203.874	204.423	78	55
203.874	204.237	81	66
204.056	204.237	73	55
204.237	204.61	66	54
204.237	204.61	69	54
204.237	204.61	73	54
204.237	204.61	81	55
204.237	204.61	85	67
204.423	204.61	78	55
204.61	205.355	61	56
204.61	205.344	62	56
204.61	205.355	69	56
204.61	205.164	81	76
204.797	205.355	73	58
204.977	205.355	74	58
205.164	205.355	81	58
205.344	206.12	59	53
205.344	206.077	62	53
205.344	206.12	68	53
205.344	205.898	80	75
205.53	206.12	71	56
205.711	206.12	74	56
205.898	206.12	80	56
206.077	206.807	56	48
206.077	206.807	62	48
206.077	206.807	66	48
206.077	206.629	78	72
206.263	206.807	71	55
206.444	206.807	74	55
206.629	206.807	78	55
206.807	208.274	57	47
206.807	208.642	61	47
206.807	208.884	64	47
206.807	207.359	76	71
206.994	207.727	69	52
207.175	207.542	73	52
207.359	208.884	76	52
207.542	208.987	40	64
207.542	207.781	73	52
207.727	208.093	69	52
207.912	208.884	54	49
207.912	208.458	73	61
207.912	208.274	78	61
208.093	208.884	69	53
208.274	208.884	57	52
208.274	208.828	78	62
208.274	208.642	81	62
208.458	208.884	73	54
208.642	208.987	61	54
208.642	208.884	81	64
208.642	208.987	85	64
208.828	208.987	78	54
209.019	211.21	38	56
209.019	210.48	45	56
209.019	209.205	64	44
209.019	209.391	73	53
209.019	209.391	76	53
209.205	209.391	66	44
209.391	209.753	61	56
209.391	209.572	69	44
209.391	209.723	73	52
209.572	209.738	66	44
209.753	210.48	54	48
209.753	210.48	57	48
209.753	210.48	61	48
209.753	210.117	69	44
209.753	210.45	73	52
209.935	210.298	66	44
210.117	210.341	69	46
210.298	210.465	66	44
210.48	211.21	45	52
210.48	210.666	66	44
210.48	210.852	69	53
210.666	210.852	62	44
210.852	211.031	69	44
210.852	211.21	73	53
211.031	211.21	62	44
211.21	212.532	32	53
211.21	212.532	44	53
211.21	211.392	68	44
211.21	211.573	71	56
211.392	211.573	62	44
211.573	211.751	56	43
211.573	211.751	59	43
211.573	211.751	68	44
211.573	211.751	71	51
211.751	212.532	53	36
211.751	212.532	57	40
211.751	212.532	65	39
211.751	212.532	69	48
211.929	213.276	50	43
211.929	213.276	56	43
211.929	213.276	59	43
211.929	212.294	68	44
211.929	213.021	71	51
212.112	212.473	62	44
212.294	212.532	68	44
212.473	212.836	62	44
212.651	213.38	44	45
212.651	213.021	68	52
212.836	213.2	62	44
213.021	213.38	68	48
213.021	213.38	71	52
213.2	213.38	62	44
213.38	214.804	38	57
213.38	214.804	45	57
213.38	213.563	64	45
213.38	213.747	73	54
213.38	213.747	76	54
213.563	213.747	66	45
213.747	214.109	61	56
213.747	213.928	69	44
213.747	214.078	73	52
213.928	214.093	66	44
214.109	214.836	54	48
214.109	214.836	57	48
214.109	214.836	61	48
214.109	214.472	69	44
214.109	214.806	73	52
214.29	214.654	66	44
214.472	214.804	69	46
214.654	214.821	66	44
214.836	215.565	45	52
214.836	215.565	66	44
214.836	215.208	69	53
215.022	215.387	62	44
215.208	215.565	69	44
215.208	215.565	73	53
215.387	215.565	62	44
215.565	216.908	35	53
215.565	216.908	47	53
215.565	215.916	71	44
215.565	216.969	74	56
215.741	216.092	66	44
215.916	216.267	71	47
216.092	216.443	66	43
216.267	216.969	54	47
216.267	216.969	59	47
216.267	216.969	62	47
216.267	216.618	71	46
216.443	216.794	66	43
216.618	216.908	71	46
216.794	216.969	66	43
216.969	218.361	33	45
216.969	218.361	45	45
216.969	217.517	66	56
216.969	217.332	71	56
217.151	218.061	62	47
217.332	217.881	71	59
217.332	217.702	74	59
217.517	218.061	66	51
217.702	218.412	32	57
217.702	218.412	44	57
217.702	218.061	74	48
217.702	218.361	78	60
217.881	218.236	71	47
218.061	218.412	62	56
218.061	218.361	66	45
218.061	218.383	74	56
218.236	218.397	71	47
218.412	219.859	56	48
218.412	219.859	59	48
218.412	219.13	62	48
218.412	219.1	74	56
218.591	218.95	71	47
218.771	219.003	66	50
218.95	219.115	71	47
219.13	219.502	61	47
219.13	219.502	64	47
219.13	219.316	73	56
219.13	219.502	76	56
219.316	219.502	71	47
219.502	219.859	62	47
219.502	219.859	66	47
219.502	219.68	74	57
219.502	219.859	78	57
219.68	219.859	71	47
219.859	220.566	37	53
219.859	220.566	49	53
219.859	220.038	77	61
219.859	220.217	80	61
220.038	220.566	71	57
220.217	220.391	65	51
220.217	220.391	68	51
220.217	220.391	77	57
220.217	220.391	80	57
220.391	220.566	63	51
220.391	220.566	66	51
220.391	220.566	75	57
220.391	220.566	78	57
220.566	222.008	59	53
220.566	220.891	65	54
220.566	220.891	68	54
220.566	220.743	77	55
220.566	220.891	80	60
220.743	220.891	71	50
220.921	221.546	61	54
220.921	221.546	65	54
220.921	221.173	73	55
220.921	221.546	77	61
221.103	221.469	71	50
221.286	221.898	63	58
221.286	221.898	66	58
221.286	221.546	75	58
221.286	221.898	78	65
221.469	221.83	71	50
221.651	222.008	65	62
221.651	222.008	68	62
221.651	221.898	77	58
221.651	222.008	80	69
221.83	222.008	71	50
222.008	222.723	42	74
222.008	222.723	49	74
222.008	222.188	78	59
222.008	222.367	81	74
222.188	222.367	73	51
222.367	222.723	66	73
222.367	222.543	73	50
222.367	222.693	78	73
222.543	222.708	69	51
222.723	223.441	57	71
222.723	223.441	61	71
222.723	223.441	66	71
222.723	223.082	73	56
222.723	223.411	78	73
222.903	223.262	69	51
223.082	223.41	73	56
223.262	223.426	69	51
223.441	224.203	54	66
223.441	224.203	57	66
223.441	224.203	61	66
223.441	224.008	78	78
223.441	223.813	81	78
223.627	224.203	73	65
223.813	224.203	81	79
223.813	224.203	85	79
224.008	224.203	78	65
224.203	226.811	38	74
224.203	226.811	45	74
224.203	224.575	78	63
224.203	224.575	81	63
224.203	227.096	86	89
224.389	224.754	74	45
224.575	226.811	50	57
224.575	224.934	54	57
224.575	224.934	57	57
224.575	224.934	78	45
224.575	224.934	81	45
224.754	225.113	74	46
224.934	226.811	54	57
224.934	225.652	57	57
224.934	225.652	62	57
224.934	225.293	78	47
224.934	225.293	81	47
225.113	225.472	74	48
225.293	225.652	78	48
225.293	225.652	81	48
225.472	225.831	74	48
225.652	226.811	57	60
225.652	226.011	62	60
225.652	226.011	66	60
225.652	226.011	78	49
225.652	226.011	81	49
225.831	226.195	74	50
226.011	226.378	62	59
226.011	226.378	66	59
226.011	226.378	69	59
226.011	226.378	78	50
226.011	226.378	81	50
226.195	226.558	74	51
226.378	229.288	62	64
226.378	230.01	66	64
226.378	230.371	69	64
226.378	226.737	78	46
226.378	226.737	81	46
226.558	226.811	74	43
226.737	226.917	78	48
226.737	226.917	81	48
226.917	227.096	74	43
227.096	227.277	81	41
227.096	227.277	86	41
227.096	227.818	88	59
227.277	227.457	76	37
227.457	227.638	81	43
227.457	227.638	86	43
227.638	227.818	76	40
227.818	228.002	81	45
227.818	228.002	86	45
227.818	228.553	90	67
228.002	228.186	78	42
228.186	228.369	81	48
228.186	228.369	86	48
228.369	228.74	78	44
228.553	230.75	35	52
228.553	230.75	47	52
228.553	228.927	81	42
228.553	228.927	86	42
228.553	232.211	90	69
228.74	229.108	78	38
228.927	230.75	50	45
228.927	229.288	54	45
228.927	229.288	57	45
228.927	229.288	81	42
228.927	229.288	86	42
229.108	229.469	78	37
229.288	230.75	54	44
229.288	230.01	57	44
229.288	230.01	62	44
229.288	229.649	81	39
229.288	229.649	86	39
229.469	229.83	78	36
229.649	230.01	81	38
229.649	230.01	86	38
229.83	230.191	78	34
230.01	230.75	57	44
230.01	230.371	62	44
230.01	230.371	66	44
230.01	230.371	81	36
230.01	230.371	86	36
230.191	230.561	78	32
230.371	230.75	62	41
230.371	230.75	66	41
230.371	230.75	69	41
230.371	230.75	81	34
230.371	230.75	86	34
230.561	230.75	78	31
230.75	232.211	62	41
230.75	232.211	66	41
230.75	232.673	69	41
230.75	231.115	81	35
230.75	231.115	86	35
230.932	231.298	78	34
231.115	231.48	81	33
231.115	231.48	86	33
231.298	231.48	78	34
231.48	231.846	78	33
231.48	231.846	81	33
231.48	232.211	86	49
231.663	232.028	74	30
231.846	232.393	78	28
231.846	232.673	81	28
232.028	232.673	74	30
232.211	232.673	59	35
232.211	232.673	62	35
232.211	232.673	66	35
232.211	232.673	71	35
232.211	232.576	83	33
232.211	232.576	86	33
232.211	232.941	90	52
232.393	232.673	78	30
232.576	232.759	83	28
232.576	232.759	86	28
232.759	232.941	78	30
232.941	233.08	33	38
232.941	233.08	40	38
232.941	233.08	45	38
232.941	233.08	81	41
232.941	233.08	88	41
232.941	233.08	93	41
233.311	233.474	57	34
233.311	233.474	60	34
233.311	233.474	64	33
233.311	233.474	69	33
233.474	233.652	52	34
233.474	233.652	59	34
233.474	233.652	62	33
233.652	233.698	57	37
233.652	233.698	60	37
233.652	233.698	64	37
233.652	233.698	69	37
234.019	234.111	57	33
234.019	234.111	60	33
234.019	234.111	64	33
234.019	234.111	69	33
234.748	234.838	43	33
234.748	234.838	50	33
234.748	234.838	55	33
234.748	234.838	71	34
234.748	234.838	79	34
234.748	234.838	83	34
235.109	235.201	36	36
235.109	235.201	43	36
235.109	235.201	48	36
235.109	235.201	72	41
235.109	235.201	79	41
235.109	235.201	84	41
235.479	235.641	60	34
235.479	235.641	64	34
235.479	235.641	67	33
235.479	235.641	72	33
235.641	235.82	55	34
235.641	235.82	62	34
235.641	235.82	65	33
235.82	235.866	60	36
235.82	235.866	64	36
235.82	235.866	67	36
235.82	235.866	72	36
236.187	236.279	60	33
236.187	236.279	64	33
236.187	236.279	67	33
236.187	236.279	72	33
236.914	237.003	43	33
236.914	237.003	50	33
236.914	237.003	55	33
236.914	237.003	71	34
236.914	237.003	79	34
236.914	237.003	83	34
237.272	237.365	45	35
237.272	237.365	52	35
237.272	237.365	57	35
237.272	237.365	69	40
237.272	237.365	76	40
237.272	237.365	81	40
237.642	237.805	57	34
237.642	237.805	60	34
237.642	237.805	64	33
237.642	237.805	69	33
237.805	237.983	52	34
237.805	237.983	59	34
237.805	237.983	64	33
237.983	238.029	57	36
237.983	238.029	60	36
237.983	238.029	64	36
237.983	238.029	69	36
238.351	238.443	57	32
238.351	238.443	60	32
238.351	238.443	64	32
238.351	238.443	69	32
239.079	239.169	43	32
239.079	239.169	50	32
239.079	239.169	55	32
239.079	239.169	71	37
239.079	239.169	79	37
239.079	239.169	83	37
239.44	239.533	36	37
239.44	239.533	43	37
239.44	239.533	48	37
239.44	239.533	72	41
239.44	239.533	79	41
239.44	239.533	84	41
239.81	239.972	60	33
239.81	239.972	64	33
239.81	239.972	67	32
239.81	239.972	72	32
239.972	240.151	55	33
239.972	240.151	62	33
239.972	240.151	65	32
240.151	240.197	60	35
240.151	240.197	64	35
240.151	240.197	67	35
240.151	240.197	72	35
240.518	240.61	60	32
240.518	240.61	64	32
240.518	240.61	67	32
240.518	240.61	72	32
241.26	241.361	52	32
241.26	241.361	59	32
241.26	241.361	64	32
241.26	241.361	71	33
241.26	241.361	79	33
241.26	241.361	83	33
241.665	241.762	52	34
241.665	241.762	59	34
241.665	241.762	64	34
241.665	241.762	71	35
241.665	241.762	79	35
241.665	241.762	83	35
242.441	242.849	40	40
243.256	243.664	52	44
244.072	246.763	64	51
244.894	246.763	36	38
244.965	246.763	65	33
245.037	246.763	67	33
245.109	246.763	69	33
245.181	246.763	71	33
245.253	246.763	72	33
245.326	246.763	74	33
245.398	246.763	76	33
245.471	246.763	77	33
245.544	246.763	79	33
245.617	246.763	81	33
245.691	246.763	83	33
245.764	246.763	35	36
245.764	246.763	84	33
245.838	246.763	86	33
245.912	246.763	88	33
245.987	246.763	89	33
246.063	246.763	91	33
246.14	246.763	93	33
246.218	246.763	95	33
246.297	246.763	96	33
246.377	246.763	98	33
246.458	246.763	100	33
246.54	246.763	101	33
246.624	246.763	103	33
246.708	247.117	33	36
246.708	247.117	105	38
249.156	249.36	33	24
249.156	249.36	45	24
249.156	249.36	57	27
