OnsetTime	OffsetTime	MidiPitch	Velocity
0.500004	1.34494	44	29
0.500004	0.928943	49	35
0.928943	1.34494	49	29
0.928943	1.54963	54	29
0.928943	1.54963	58	36
1.34494	1.76555	44	26
1.34494	1.54963	49	31
1.54963	1.76555	49	24
1.54963	1.76555	54	24
1.54963	1.76555	58	29
1.76555	2.59798	44	29
1.76555	2.18589	49	35
2.18589	2.59798	49	29
2.18589	2.80267	54	29
2.18589	2.80267	58	29
2.18589	2.80267	61	36
2.59798	2.84046	44	27
2.59798	2.80267	49	33
2.80267	3.0186	49	25
2.80267	3.0186	54	25
2.80267	3.0186	58	25
2.80267	3.0186	61	29
3.0186	3.86525	44	29
3.0186	3.45044	49	35
3.45044	3.86525	49	30
3.45044	4.0713	53	30
3.45044	4.0713	56	37
3.86525	4.26336	44	26
3.86525	4.0713	49	31
4.0713	4.28872	49	25
4.0713	4.28872	53	25
4.0713	4.28872	56	29
4.28872	5.12115	44	29
4.28872	4.70906	49	35
4.70906	5.12115	49	29
4.70906	5.32454	53	29
4.70906	5.32454	61	36
5.12115	5.36258	44	26
5.12115	5.32454	49	31
5.32454	5.54196	49	24
5.32454	5.54196	53	24
5.32454	5.54196	61	29
5.54196	6.38862	44	29
5.54196	5.97381	49	35
5.97381	6.38862	49	30
5.97381	6.59332	51	30
5.97381	6.59332	54	37
6.38862	6.76238	44	27
6.38862	6.59332	49	33
6.59332	6.80736	49	25
6.59332	6.80736	51	25
6.59332	6.80736	54	29
6.80736	7.63978	44	29
6.80736	7.2277	49	35
7.2277	7.63978	49	30
7.2277	7.84317	51	30
7.2277	7.84317	54	30
7.2277	7.84317	61	37
7.63978	7.91154	44	27
7.63978	7.84317	49	33
7.84317	8.05909	49	25
7.84317	8.05909	51	25
7.84317	8.05909	54	25
7.84317	8.05909	61	29
8.05909	8.95368	44	29
8.05909	8.50624	49	35
8.50624	8.95368	49	28
8.50624	9.40486	53	28
8.50624	9.40486	61	34
8.95368	9.8601	44	26
8.95368	9.40486	49	30
9.40486	9.8601	49	25
9.40486	10.3192	53	25
9.40486	10.3192	61	30
9.8601	10.7828	44	23
9.8601	10.3192	49	28
10.3192	10.7828	49	23
10.3192	10.8607	53	23
10.3192	10.8607	61	28
10.7828	11.7233	44	20
10.7828	11.251	49	26
11.251	11.7233	49	19
11.251	12.216	53	19
11.251	12.216	61	24
11.7233	12.7371	44	19
11.7233	12.216	49	23
12.216	12.7371	49	18
12.216	15.7551	53	18
12.216	15.7551	61	22
12.7371	15.7551	44	17
12.7371	15.7551	49	19
16.1054	16.952	44	34
16.1054	16.952	49	41
16.1054	16.3213	54	38
16.1054	16.3213	58	49
16.5372	17.7971	54	40
16.5372	17.1581	56	33
16.5372	17.7971	58	53
16.952	17.2588	44	31
16.952	17.2588	49	38
16.952	17.374	60	48
17.1581	17.374	56	34
17.374	18.212	44	34
17.374	18.212	49	41
17.374	17.5856	63	50
17.7971	18.6313	54	41
17.7971	18.4153	56	34
17.7971	18.6313	58	41
17.7971	18.5161	63	55
18.212	18.5161	44	31
18.212	18.5161	49	38
18.212	18.6313	60	48
18.4153	18.6313	56	33
18.6313	19.4779	44	34
18.6313	19.4779	49	41
18.6313	18.8472	53	38
18.6313	18.8472	56	38
18.6313	18.8472	61	46
19.0631	20.3317	53	39
19.0631	19.684	56	33
19.0631	19.7991	61	48
19.4779	19.7991	44	31
19.4779	19.7991	49	39
19.4779	19.8999	60	47
19.684	19.8963	56	34
19.8999	20.7549	44	30
19.8999	20.7549	49	37
19.8999	20.3317	56	45
20.3317	21.1827	53	42
20.3317	20.9502	56	29
20.7549	20.9623	44	28
20.7549	20.9623	49	34
20.9623	21.1827	56	31
21.1827	22.0294	44	34
21.1827	22.0294	49	41
21.1827	21.3987	51	38
21.1827	21.3987	54	49
21.6146	22.8745	51	40
21.6146	22.8745	54	53
21.6146	22.2355	56	33
22.0294	22.3362	44	31
22.0294	22.3362	49	38
22.0294	22.4514	58	48
22.2355	22.4514	56	34
22.4514	23.2893	44	34
22.4514	23.2893	49	41
22.4514	22.6629	60	50
22.8745	23.7086	51	41
22.8745	23.7086	54	41
22.8745	23.2893	56	34
22.8745	23.5935	60	55
23.2893	23.5935	44	31
23.2893	23.5935	49	38
23.2893	23.4927	56	48
23.4927	23.7086	56	33
23.7086	24.5553	44	34
23.7086	24.5553	49	41
23.7086	23.9246	56	38
23.7086	23.9246	61	46
24.1405	25.4091	53	39
24.1405	24.7614	56	33
24.1405	24.9773	61	48
24.5553	24.8693	44	31
24.5553	24.8693	49	39
24.7614	24.9773	56	34
24.9773	25.8294	44	31
24.9773	25.8294	49	38
24.9773	25.1932	60	45
25.4091	26.2573	53	39
25.4091	26.0248	56	30
25.4091	26.2573	60	47
25.8294	26.0369	44	29
25.8294	26.0369	49	36
26.0369	26.2573	56	31
26.2573	27.104	44	34
26.2573	27.104	49	41
26.2573	26.4732	54	38
26.2573	26.4732	58	49
26.6892	27.9491	54	40
26.6892	27.31	56	33
26.6892	27.9491	58	53
27.104	27.4108	44	31
27.104	27.4108	49	38
27.104	27.526	60	48
27.31	27.526	56	34
27.526	28.3639	44	34
27.526	28.3639	49	41
27.526	27.7375	63	50
27.9491	28.7832	54	41
27.9491	28.5673	56	34
27.9491	28.7832	58	41
27.9491	28.6681	63	55
28.3639	28.6681	44	31
28.3639	28.6681	49	38
28.3639	28.7832	60	48
28.5673	28.7832	56	33
28.7832	29.6299	44	34
28.7832	29.6299	49	41
28.7832	28.9991	53	38
28.7832	28.9991	56	38
28.7832	28.9991	61	46
29.2151	30.4837	53	39
29.2151	29.8359	56	33
29.2151	29.8359	61	48
29.6299	29.9943	44	31
29.6299	29.9943	49	39
29.6299	29.9439	60	47
29.8359	30.0483	56	34
29.8359	29.9943	61	42
29.9439	30.0519	60	38
30.0519	30.9068	44	30
30.0519	30.9068	49	37
30.0519	30.4837	56	45
30.4837	31.3347	53	42
30.4837	31.1021	56	29
30.9068	31.1142	44	28
30.9068	31.1142	49	34
31.1142	31.3347	56	31
31.3347	32.1814	44	36
31.3347	32.1814	49	42
31.3347	31.5506	54	38
31.3347	31.5506	58	38
31.3347	31.5506	63	49
31.7665	33.7454	54	40
31.7665	32.3874	56	34
31.7665	33.0265	58	53
31.7665	32.4882	63	53
32.1814	32.4882	44	31
32.1814	32.4882	49	39
32.1814	32.6033	65	53
32.3874	32.6033	56	36
32.6033	33.4413	44	36
32.6033	33.4413	49	42
32.6033	32.8149	66	59
33.0265	33.6447	56	36
33.0265	33.7454	58	41
33.0265	33.7454	66	57
33.4413	33.7454	44	31
33.4413	33.7454	49	39
33.4413	33.8606	60	41
33.4413	33.8606	65	52
33.6447	33.8606	56	34
33.8606	34.7072	44	31
33.8606	34.7072	49	42
33.8606	37.5859	53	38
33.8606	37.5859	61	46
34.2924	34.9133	56	36
34.7072	35.1292	44	37
34.7072	35.1292	49	41
34.9133	35.1616	56	38
35.1292	35.9814	44	40
35.1292	35.9814	49	45
35.5611	36.1767	56	40
35.9814	36.1888	44	42
35.9814	36.1888	49	53
36.1888	37.5859	56	55
36.3191	37.5859	37	51
36.4325	37.2791	49	56
36.4325	36.8643	59	56
36.4325	36.8643	62	56
36.4325	36.8643	65	56
36.4325	36.8643	68	72
36.8643	38.1242	59	60
36.8643	38.1242	62	60
36.8643	38.5391	65	60
36.8643	37.5859	68	79
37.2791	38.1242	49	45
37.4852	38.8432	70	71
37.7011	38.9584	37	56
37.7011	38.8432	68	73
38.1242	38.5391	49	46
38.1242	38.5391	59	55
38.1242	38.5391	62	55
38.1242	38.8432	66	72
38.5391	38.8432	49	51
38.5391	38.8432	59	55
38.5391	38.8432	62	57
38.5391	38.8432	65	71
38.9584	39.805	37	56
38.9584	39.3902	66	68
39.3902	40.0111	49	45
39.3902	40.2774	58	57
39.3902	40.119	63	57
39.3902	39.908	66	71
39.805	40.227	37	52
39.805	40.0111	65	61
39.908	40.2774	66	55
40.0111	40.2774	49	46
40.0111	40.2774	65	61
40.119	40.227	63	52
40.227	41.082	37	50
40.227	41.5099	63	66
40.6588	41.2773	49	39
40.6588	41.5099	54	48
40.6588	41.5099	58	51
41.082	41.2894	37	46
41.2894	41.5099	49	44
41.5099	42.3565	37	56
41.5099	43.2016	57	72
41.9417	42.5626	49	45
41.9417	42.6633	65	72
42.3565	42.6633	37	51
42.5626	43.2016	49	46
42.5626	42.6705	63	66
42.6705	43.2016	65	57
42.7785	43.6164	37	56
42.7785	43.9206	63	73
43.2016	43.8198	49	46
43.2016	44.0357	57	55
43.2016	43.9206	61	69
43.2016	44.0357	65	57
43.6164	43.9206	37	51
43.6164	44.0357	60	69
43.8198	44.0357	49	45
44.0357	44.8824	37	56
44.0357	44.2517	61	68
44.4676	45.0885	49	45
44.4676	45.3044	58	52
44.4676	45.3044	61	71
44.4676	45.3044	65	52
44.8824	45.1964	37	52
45.0885	45.3044	49	46
45.3044	46.1566	37	51
45.3044	45.5203	60	66
45.7362	46.3519	49	40
45.7362	47.759	56	51
45.7362	47.759	60	69
45.7362	46.6055	65	53
46.1566	46.364	37	48
46.364	46.6055	49	44
46.4921	47.759	37	46
46.6055	47.4522	49	56
46.6055	47.0374	59	56
46.6055	47.0374	62	56
46.6055	47.0374	65	56
46.6055	47.0374	68	72
47.0374	48.2973	59	60
47.0374	48.2973	62	60
47.0374	48.7121	65	60
47.0374	47.759	68	79
47.4522	48.2973	49	45
47.6582	49.0162	70	71
47.8741	49.1314	37	56
47.8741	49.0162	68	73
48.2973	48.7121	49	46
48.2973	48.7121	59	55
48.2973	48.7121	62	55
48.2973	49.0162	66	72
48.7121	49.0162	49	51
48.7121	49.0162	59	55
48.7121	49.0162	62	57
48.7121	49.0162	65	71
49.1314	49.978	37	56
49.1314	49.5632	66	68
49.5632	50.1841	49	45
49.5632	50.4504	58	57
49.5632	50.2921	63	57
49.5632	50.0811	66	71
49.978	50.4	37	52
49.978	50.1841	65	61
50.0811	50.4504	66	55
50.1841	50.4504	49	46
50.1841	50.4504	65	61
50.2921	50.4	63	52
50.4	51.255	37	50
50.4	51.6829	63	66
50.8319	51.4503	49	39
50.8319	51.6829	54	48
50.8319	51.6829	58	51
51.255	51.4624	37	46
51.4624	51.6829	49	44
51.6829	52.5296	37	56
51.6829	53.3747	57	72
52.1147	52.7356	49	45
52.1147	52.8364	65	73
52.5296	52.8364	37	51
52.7356	52.9515	49	46
52.7356	52.8436	63	66
52.8436	52.9515	65	57
52.9515	53.7895	37	56
52.9515	54.0936	63	73
53.3747	53.9929	49	46
53.3747	54.2088	57	55
53.3747	54.0936	61	69
53.3747	54.2088	65	57
53.7895	54.0936	37	51
53.7895	54.2088	60	69
53.9929	54.2088	49	45
54.2088	55.0554	37	56
54.2088	54.4247	61	68
54.6406	55.2615	49	45
54.6406	55.4774	58	52
54.6406	55.4774	61	71
54.6406	55.4774	65	52
55.0554	55.3695	37	52
55.2615	55.4774	49	46
55.4774	56.3296	37	51
55.4774	55.6933	60	66
55.9092	56.5249	49	40
55.9092	56.7575	56	51
55.9092	56.7575	60	69
55.9092	56.7575	65	53
56.3296	56.537	37	48
56.537	56.7575	49	44
56.7575	57.0094	44	40
56.7575	57.0094	49	50
56.7575	56.9734	66	50
56.7575	56.9734	70	64
56.9734	57.3967	54	40
57.1893	57.9083	58	39
57.1893	58.4435	66	52
57.1893	58.4435	70	69
57.3967	57.8102	54	39
57.6041	57.9083	44	38
57.6041	57.9083	49	45
57.6041	58.0203	72	62
57.8102	58.0203	54	40
58.0203	58.2672	44	40
58.0203	58.2672	49	50
58.0203	58.2319	75	66
58.2319	58.6509	54	40
58.4435	59.1624	60	40
58.4435	59.2776	66	53
58.4435	59.2776	70	53
58.4435	59.1624	75	72
58.6509	59.0617	54	40
58.8583	59.1624	44	38
58.8583	59.1624	49	45
58.8583	59.2776	72	62
59.0617	59.2776	54	39
59.2776	59.5295	44	40
59.2776	59.5295	49	50
59.2776	59.4935	65	50
59.2776	59.4935	68	50
59.2776	59.4935	73	60
59.4935	59.9168	53	39
59.7094	60.521	61	39
59.7094	60.5462	65	51
59.7094	60.5462	68	51
59.7094	60.2616	73	62
59.9168	60.3303	53	39
60.1243	60.521	44	38
60.1243	60.521	49	46
60.1243	60.4023	72	56
60.2616	60.521	73	52
60.3303	60.5462	53	40
60.4023	60.5462	72	52
60.5462	61.4012	44	31
60.5462	61.4012	49	39
60.5462	61.829	68	58
60.7621	61.1896	53	36
60.978	61.5965	56	31
60.978	61.829	65	55
61.1896	61.5965	53	36
61.4012	61.6086	44	29
61.4012	61.6086	49	36
61.6086	61.829	53	33
61.829	62.0759	44	40
61.829	62.0759	49	50
61.829	62.0406	63	50
61.829	62.0406	66	64
62.0406	62.4596	54	40
62.2522	62.9711	58	39
62.2522	63.5063	63	52
62.2522	63.5063	66	69
62.4596	62.873	54	40
62.667	62.9711	44	38
62.667	62.9711	49	45
62.667	63.0832	70	62
62.873	63.0832	54	40
63.0832	63.33	44	40
63.0832	63.33	49	50
63.0832	63.2948	72	66
63.2948	63.7137	54	40
63.5063	64.2253	60	40
63.5063	64.3405	63	53
63.5063	64.3405	66	53
63.5063	64.2253	72	69
63.7137	64.1246	54	40
63.9212	64.2253	44	38
63.9212	64.2253	49	45
63.9212	64.3405	68	62
64.1246	64.3405	54	39
64.3405	64.5924	44	40
64.3405	64.5924	49	50
64.3405	64.5564	65	50
64.3405	64.5564	73	60
64.5564	64.9797	53	39
64.7723	65.5011	61	39
64.7723	66.0409	65	51
64.7723	66.0409	68	51
64.7723	65.6091	73	62
64.9797	65.3932	53	39
65.1871	65.5011	44	38
65.1871	65.5011	49	46
65.3932	65.6091	53	40
65.6091	65.861	44	38
65.6091	65.861	49	45
65.6091	65.825	72	58
65.825	66.2511	53	40
66.0409	66.6566	56	37
66.0409	66.8892	65	51
66.0409	66.8892	68	51
66.0409	66.8892	72	61
66.2511	66.6566	53	40
66.4613	66.6687	44	36
66.4613	66.6687	49	42
66.6687	66.8892	53	38
66.8892	67.1411	44	40
66.8892	67.1411	49	50
66.8892	67.1051	66	50
66.8892	67.1051	70	64
67.1051	67.5284	54	40
67.321	68.0406	58	39
67.321	68.5766	66	52
67.321	68.5766	70	69
67.5284	67.9419	54	39
67.7358	68.0406	44	38
67.7358	68.0406	49	45
67.7358	68.1534	72	62
67.9419	68.1534	54	40
68.1534	68.4003	44	40
68.1534	68.4003	49	50
68.1534	68.365	75	66
68.365	68.784	54	40
68.5766	69.2955	60	40
68.5766	69.4107	66	53
68.5766	69.4107	70	53
68.5766	69.2955	75	71
68.784	69.1948	54	40
68.9914	69.2955	44	38
68.9914	69.2955	49	45
68.9914	69.4107	72	62
69.1948	69.4107	54	39
69.4107	69.6626	44	40
69.4107	69.6626	49	50
69.4107	69.6266	65	50
69.4107	69.6266	68	50
69.4107	69.6266	73	60
69.6266	70.0499	53	39
69.8425	70.6541	61	39
69.8425	70.6793	65	51
69.8425	70.6793	68	51
69.8425	70.3947	73	62
70.0499	70.4634	53	39
70.2574	70.6541	44	38
70.2574	70.6541	49	46
70.2574	70.5354	72	56
70.3947	70.6541	73	52
70.4634	70.6793	53	40
70.5354	70.6793	72	52
70.6793	71.5343	44	31
70.6793	71.5343	49	39
70.6793	71.9621	68	58
70.8952	71.3227	53	36
71.1111	71.7296	56	31
71.1111	71.9621	65	55
71.3227	71.7296	53	36
71.5343	71.7417	44	29
71.5343	71.7417	49	36
71.7417	71.9621	53	33
71.9621	72.214	44	40
71.9621	72.214	49	50
71.9621	72.1781	66	50
71.9621	72.1781	70	50
71.9621	72.1781	75	64
72.1781	72.6014	54	40
72.394	73.1156	58	39
72.394	74.3729	66	52
72.394	73.6539	70	52
72.394	73.1156	75	70
72.6014	73.0149	54	40
72.8088	73.1156	44	38
72.8088	73.1156	49	45
72.8088	73.2308	77	70
73.0149	73.2308	54	40
73.2308	73.4776	44	40
73.2308	73.4776	49	50
73.2308	73.4423	78	72
73.4423	73.8613	54	40
73.6539	74.3729	60	40
73.6539	74.3729	70	53
73.6539	74.3729	78	72
73.8613	74.2721	54	40
74.0687	74.3729	44	38
74.0687	74.3729	49	45
74.0687	74.488	68	51
74.0687	74.488	77	66
74.2721	74.488	54	39
74.488	74.704	37	40
74.488	74.704	44	50
74.488	75.5408	65	50
74.488	75.7567	73	60
74.704	76.8042	49	39
74.9199	76.8042	53	45
75.1273	76.6088	56	39
75.3347	76.8042	61	46
75.5408	76.1885	65	37
75.7567	77.0367	73	51
76.1885	76.8042	65	40
76.6088	77.0367	56	36
77.0367	77.8719	49	35
77.0367	77.4571	73	46
77.0367	77.4571	78	46
77.0367	77.4571	82	55
77.4571	78.2939	58	40
77.4571	78.2939	73	47
77.4571	78.2939	78	47
77.4571	78.2939	82	57
77.8719	78.2939	49	34
78.2939	79.1402	49	37
78.2939	78.7199	72	47
78.2939	78.7199	75	47
78.2939	78.7199	80	53
78.7199	79.5662	60	41
78.7199	79.5662	72	47
78.7199	79.5662	75	47
78.7199	79.5662	80	56
79.1402	79.5662	49	36
79.5662	80.3986	49	37
79.5662	79.9838	70	46
79.5662	79.9838	73	46
79.5662	79.9838	77	55
79.9838	81.733	61	44
79.9838	81.733	70	47
79.9838	81.733	73	47
79.9838	80.8206	77	57
80.3986	80.8206	49	37
80.8206	81.6368	49	39
80.8206	81.2247	71	47
80.8206	81.235	77	47
80.8206	81.2247	80	53
81.0226	81.733	82	51
81.2247	82.0489	62	45
81.2247	82.0489	71	47
81.2247	81.5338	80	53
81.235	81.8429	77	47
81.4308	81.6368	78	50
81.5338	81.733	80	50
81.6368	82.0489	49	39
81.6368	81.8429	78	53
81.8429	82.0594	77	51
82.0489	82.8841	49	39
82.0489	82.4693	70	46
82.0489	82.4693	75	46
82.0489	82.4693	78	55
82.4693	83.306	63	46
82.4693	83.306	70	47
82.4693	83.306	75	47
82.4693	83.306	78	57
82.8841	83.306	49	38
83.306	84.1524	49	39
83.306	83.7321	68	47
83.306	83.7321	72	47
83.306	83.7321	77	53
83.7321	84.5784	56	44
83.7321	84.5784	68	47
83.7321	84.5784	72	47
83.7321	84.5784	77	56
84.1524	84.5784	49	37
84.5784	85.4108	49	37
84.5784	84.996	65	46
84.5784	84.996	68	46
84.5784	84.996	73	55
84.996	86.2531	61	42
84.996	86.2531	65	47
84.996	86.6652	68	47
84.996	86.7613	73	57
85.4108	85.8327	49	35
85.8327	86.6652	49	36
86.2531	87.0773	56	46
86.2531	86.6652	61	56
86.2531	86.6652	65	62
86.6652	87.0773	49	39
86.6652	86.8712	61	52
86.6652	86.8712	65	52
86.6652	86.8712	68	59
87.0773	88.3344	54	48
87.0773	87.4976	61	55
87.0773	87.4976	66	55
87.0773	87.4976	70	66
87.4976	87.9124	44	41
87.4976	88.3344	61	56
87.4976	88.3344	66	56
87.4976	88.3344	70	68
87.9124	88.3344	44	40
88.3344	89.6068	56	51
88.3344	88.7604	60	57
88.3344	88.7604	63	57
88.3344	88.7604	68	64
88.7604	89.1808	44	44
88.7604	89.6068	60	58
88.7604	89.6068	63	58
88.7604	89.6068	68	70
89.1808	89.6068	44	42
89.6068	91.7787	58	56
89.6068	90.0243	61	58
89.6068	90.0243	65	70
90.0243	90.4391	44	44
90.0243	91.7787	61	58
90.0243	91.7787	65	71
90.4391	91.2705	44	44
90.8611	92.0947	59	59
90.8611	91.2808	62	63
90.8611	91.2705	68	72
91.0658	91.7787	70	70
91.2705	91.6826	44	47
91.2705	91.5796	68	72
91.2808	92.1052	62	63
91.4765	91.6826	66	69
91.5796	91.7787	68	64
91.6826	92.0947	44	47
91.6826	91.8886	66	69
91.8886	92.0947	65	66
92.0947	93.3518	58	49
92.0947	92.515	61	57
92.0947	92.515	66	64
92.515	92.9299	44	44
92.515	93.3518	61	58
92.515	93.3518	66	64
92.9299	93.3518	44	40
93.3518	94.2976	56	44
93.3518	93.7778	60	46
93.3518	93.7778	65	53
93.7778	94.6242	44	37
93.7778	94.6242	60	44
93.7778	94.6242	65	52
94.1982	94.6242	54	33
94.6242	97.3206	37	30
94.6242	97.3206	44	38
94.6242	95.0662	53	38
94.6242	95.5202	61	46
94.8437	97.3206	49	30
95.0662	97.3206	53	35
95.2915	97.3206	56	30
95.5202	97.3206	61	36
95.7602	97.7192	65	30
96.0211	97.7192	73	41
97.7192	98.5642	44	29
97.7192	98.1482	49	35
98.1482	98.5642	49	29
98.1482	98.7689	54	29
98.1482	98.7689	58	36
98.5642	98.9848	44	26
98.5642	98.7689	49	31
98.7689	98.9848	49	24
98.7689	98.9848	54	24
98.7689	98.9848	58	29
98.9848	99.8172	44	29
98.9848	99.4051	49	35
99.4051	99.8172	49	29
99.4051	100.022	54	29
99.4051	100.022	58	29
99.4051	100.022	61	36
99.8172	100.06	44	27
99.8172	100.022	49	33
100.022	100.238	49	25
100.022	100.238	54	25
100.022	100.238	58	25
100.022	100.238	61	29
100.238	101.084	44	29
100.238	100.67	49	35
100.67	101.084	49	30
100.67	101.291	53	30
100.67	101.291	56	37
101.084	101.483	44	26
101.084	101.291	49	31
101.291	101.508	49	25
101.291	101.508	53	25
101.291	101.508	56	29
101.508	102.34	44	29
101.508	101.928	49	35
101.928	102.34	49	29
101.928	102.544	53	29
101.928	102.544	61	36
102.34	102.582	44	26
102.34	102.544	49	31
102.544	102.761	49	24
102.544	102.761	53	24
102.544	102.761	61	29
102.761	103.608	44	29
102.761	103.193	49	35
103.193	103.608	49	30
103.193	103.813	51	30
103.193	103.813	54	37
103.608	103.982	44	27
103.608	103.813	49	33
103.813	104.027	49	25
103.813	104.027	51	25
103.813	104.027	54	29
104.027	104.859	44	29
104.027	104.447	49	35
104.447	104.859	49	30
104.447	105.062	51	30
104.447	105.062	54	30
104.447	105.062	61	37
104.859	105.131	44	27
104.859	105.062	49	33
105.062	105.278	49	25
105.062	105.278	51	25
105.062	105.278	54	25
105.062	105.278	61	29
105.278	106.173	44	29
105.278	105.725	49	35
105.725	106.173	49	28
105.725	106.624	53	28
105.725	106.624	61	34
106.173	107.079	44	26
106.173	106.624	49	30
106.624	107.079	49	25
106.624	107.538	53	25
106.624	107.538	61	30
107.079	108.002	44	23
107.079	107.538	49	28
107.538	108.002	49	23
107.538	108.078	53	23
107.538	108.078	61	28
108.002	108.944	44	20
108.002	108.465	49	26
108.465	108.944	49	19
108.465	109.461	53	19
108.465	109.461	61	24
108.944	110.006	44	19
108.944	109.461	49	23
109.461	110.006	49	18
109.461	113.039	53	18
109.461	113.039	61	22
110.006	113.039	44	17
110.006	113.039	49	19
