OnsetTime	OffsetTime	MidiPitch	Velocity
0.500004	2.77849	31	60
0.500004	2.77849	43	70
0.500004	2.77849	67	84
0.500004	2.77849	79	95
2.77849	3.19225	71	44
3.19225	3.33017	72	38
3.33017	3.72638	74	51
3.8945	4.27809	74	42
4.44086	4.82413	74	42
4.98677	5.40052	72	46
5.40052	5.53844	74	47
5.53844	6.36596	75	53
6.36596	6.6418	74	44
6.6418	7.19347	72	39
7.19347	7.60078	74	49
7.60078	7.74319	72	42
7.74319	8.29487	71	46
8.29487	8.70863	69	44
8.70863	8.84655	71	36
8.84655	9.41488	72	48
9.41488	9.83419	74	43
9.83419	9.98224	75	44
9.98224	11.7588	74	51
11.7588	12.0346	55	35
11.7588	12.0358	62	37
11.7588	12.0358	67	37
11.7588	12.0358	71	44
12.1725	12.2415	55	33
12.1725	12.2415	63	35
12.1725	12.2415	67	35
12.1725	12.2415	72	42
12.3105	12.5812	55	40
12.3105	12.5823	65	43
12.3105	12.5823	67	43
12.3105	12.5823	74	51
12.8519	13.1263	55	33
12.8519	13.1274	65	35
12.8519	13.1274	67	35
12.8519	13.1274	74	42
13.4007	13.6737	55	33
13.4007	13.6748	65	35
13.4007	13.6748	67	35
13.4007	13.6748	74	42
13.9466	14.2225	55	46
13.9466	14.2236	63	39
13.9466	14.2236	67	39
13.9466	14.2236	72	39
14.3604	14.4293	55	47
14.3604	14.4293	65	39
14.3604	14.4293	67	39
14.3604	14.4293	74	47
14.4983	14.6362	55	53
14.4983	15.4437	67	45
14.4983	15.4437	75	53
15.0328	15.1697	57	53
15.4437	15.5122	59	43
15.4437	15.5122	65	37
15.4437	15.5122	67	37
15.4437	15.5122	74	44
15.5807	15.8547	60	49
15.5807	15.8547	63	33
15.5807	15.8547	67	33
15.5807	15.8547	72	39
16.1286	16.4002	53	45
16.1286	16.4013	65	41
16.1286	16.4013	68	41
16.1286	16.4013	74	49
16.536	16.6071	53	36
16.536	16.6071	63	35
16.536	16.6071	68	42
16.536	16.6071	72	42
16.6783	17.6438	55	44
16.6783	16.9542	62	39
16.6783	16.9542	67	39
16.6783	16.9542	71	46
17.23	17.507	60	37
17.23	17.507	67	37
17.23	17.507	69	44
17.6438	17.7127	53	30
17.6438	17.7127	55	36
17.6438	17.7127	62	30
17.6438	17.7127	67	30
17.6438	17.7127	71	36
17.7817	18.0635	51	40
17.7817	18.0635	55	48
17.7817	18.0635	63	40
17.7817	18.0635	67	40
17.7817	18.0635	72	48
18.365	18.648	43	45
18.365	18.648	55	53
18.365	18.6492	67	45
18.365	18.6492	75	53
18.7895	18.8635	43	37
18.7895	18.8635	55	44
18.7895	18.8635	65	37
18.7895	18.8635	67	37
18.7895	18.8635	74	44
18.9376	20.7141	48	46
18.9376	20.7141	55	55
18.9376	20.7141	63	43
18.9376	20.7141	67	43
18.9376	20.7141	72	51
20.7141	21.1279	74	44
21.1279	21.2658	75	38
21.2658	21.6583	77	51
21.8249	22.212	77	42
22.3762	22.7595	77	42
22.9221	23.3359	75	46
23.3359	23.4738	74	47
23.4738	24.3013	79	53
24.3013	24.5772	77	44
24.5772	25.1362	75	39
25.1362	25.5436	74	49
25.5436	25.686	72	42
25.686	26.2376	71	46
26.2376	26.6514	69	44
26.6514	26.7893	71	36
26.7893	27.3645	72	48
27.3645	27.7838	77	43
27.7838	27.9318	75	44
27.9318	29.7084	74	51
29.7084	29.9842	58	35
29.7084	29.9854	65	37
29.7084	29.9854	70	37
29.7084	29.9854	74	44
30.1221	30.1911	58	33
30.1221	30.1911	67	35
30.1221	30.1911	70	35
30.1221	30.1911	75	42
30.26	30.5359	58	40
30.26	30.537	68	43
30.26	30.537	70	43
30.26	30.537	77	51
30.8117	31.0876	58	33
30.8117	31.0887	68	35
30.8117	31.0887	70	35
30.8117	31.0887	77	42
31.3634	31.6364	58	33
31.3634	31.6375	68	35
31.3634	31.6375	70	35
31.3634	31.6375	77	42
31.9093	32.1851	58	46
31.9093	32.1863	67	39
31.9093	32.1863	70	39
31.9093	32.1863	75	46
32.3231	32.392	58	47
32.3231	32.392	65	39
32.3231	32.392	70	39
32.3231	32.392	74	47
32.461	32.5989	58	53
32.461	33.4064	70	47
32.461	33.4064	79	56
32.9954	33.1324	60	53
33.4064	33.4749	62	43
33.4064	33.4749	68	41
33.4064	33.4749	70	41
33.4064	33.4749	77	49
33.5434	33.8174	63	49
33.5434	33.8174	67	35
33.5434	33.8174	70	35
33.5434	33.8174	75	42
34.0913	34.3629	53	45
34.0913	34.364	65	44
34.0913	34.364	68	44
34.0913	34.364	74	52
34.4986	34.5698	53	36
34.4986	34.5698	63	35
34.4986	34.5698	68	35
34.4986	34.5698	72	42
34.641	35.6065	55	44
34.641	34.9169	62	39
34.641	34.9169	67	39
34.641	34.9169	71	46
35.1927	35.4697	60	37
35.1927	35.4697	67	37
35.1927	35.4697	69	44
35.6065	35.6754	53	30
35.6065	35.6754	55	36
35.6065	35.6754	62	30
35.6065	35.6754	67	30
35.6065	35.6754	71	36
35.7444	36.0262	51	40
35.7444	36.0262	55	48
35.7444	36.0262	63	40
35.7444	36.0262	67	40
35.7444	36.0262	72	48
36.3355	36.6186	43	45
36.3355	36.6186	55	53
36.3355	36.6197	67	45
36.3355	36.6197	75	53
36.7601	36.8341	43	37
36.7601	36.8341	55	44
36.7601	36.8341	65	37
36.7601	36.8341	67	37
36.7601	36.8341	74	44
36.9081	38.6847	48	46
36.9081	38.6847	55	55
36.9081	38.6847	63	43
36.9081	38.6847	67	43
36.9081	38.6847	72	51
38.6847	39.0984	71	48
39.0984	39.2364	72	41
39.2364	39.6237	74	56
39.788	40.2018	65	36
39.788	40.2018	68	39
39.788	40.2018	71	46
39.788	40.1754	74	46
40.3397	40.7491	66	36
40.3397	40.7491	69	39
40.3397	40.7491	72	39
40.3397	40.723	74	46
40.8856	41.4373	62	30
40.8856	41.4373	66	36
40.8856	41.4373	69	39
40.8856	41.2994	72	50
41.2994	41.4373	74	51
41.4373	42.2526	60	46
41.4373	43.0758	66	39
41.4373	43.0758	69	49
41.4373	41.5029	72	50
41.5029	41.5685	74	53
41.5685	42.2526	75	58
42.2526	42.527	62	46
42.2526	42.527	74	48
42.527	43.0758	63	46
42.527	43.0758	72	42
43.0758	43.6255	54	31
43.0758	43.6255	62	37
43.0758	43.6255	69	40
43.0758	43.4831	74	55
43.4831	43.6255	72	48
43.6255	44.1772	55	35
43.6255	44.1772	62	42
43.6255	44.1772	67	44
43.6255	44.1772	71	52
44.1772	44.591	53	35
44.1772	44.591	55	35
44.1772	44.591	62	43
44.1772	44.591	67	46
44.1772	44.591	69	54
44.591	44.7289	53	29
44.591	44.7289	55	29
44.591	44.7289	62	35
44.591	44.7289	67	36
44.591	44.7289	71	44
44.7289	45.2924	51	39
44.7289	45.2924	55	39
44.7289	45.2924	60	47
44.7289	45.2924	67	50
44.7289	45.2924	72	59
45.2924	45.7151	50	40
45.2924	45.7151	55	40
45.2924	45.7151	59	48
45.2924	45.7151	67	51
45.2924	45.7151	74	61
45.7151	45.8631	48	41
45.7151	45.8631	55	41
45.7151	45.8631	60	49
45.7151	45.8631	67	52
45.7151	45.8631	75	62
45.8631	47.6397	55	48
45.8631	47.6397	59	57
45.8631	47.6397	67	61
45.8631	47.6397	74	73
47.6397	48.0534	43	51
47.6397	48.0534	55	61
47.6397	48.1913	62	64
47.6397	48.0534	67	64
47.6397	48.1913	71	77
48.0534	48.1913	43	48
48.0534	48.1913	55	57
48.0534	48.1913	63	61
48.0534	48.1913	67	61
48.0534	48.1913	72	73
48.1913	48.743	43	59
48.1913	48.743	55	70
48.1913	48.743	65	74
48.1913	48.743	67	74
48.1913	48.743	74	89
48.743	49.2947	43	55
48.743	49.2947	55	64
48.743	49.2947	65	68
48.743	49.2947	67	68
48.743	49.2947	74	81
49.2947	49.8406	43	56
49.2947	49.8406	55	66
49.2947	49.8567	65	68
49.2947	49.8406	67	68
49.2947	49.8567	74	81
49.8406	50.2544	43	68
49.8406	50.2544	55	80
49.8406	50.3923	63	68
49.8406	50.2544	67	68
49.8406	50.3923	72	80
50.2544	50.3923	43	56
50.2544	50.3923	55	66
50.2544	50.3923	65	69
50.2544	50.3923	67	69
50.2544	50.3923	74	82
50.3923	50.9427	43	61
50.3923	50.9427	55	73
50.3923	51.3377	67	78
50.3923	51.3377	75	92
50.9267	51.0637	45	70
50.9267	51.0637	57	84
51.3377	51.4747	47	56
51.3377	51.4747	59	68
51.3377	51.4747	65	64
51.3377	51.4747	67	64
51.3377	51.4747	74	77
51.4747	52.0374	48	64
51.4747	52.0374	60	78
51.4747	52.0374	63	57
51.4747	52.0374	67	57
51.4747	52.0374	72	68
52.0226	52.43	41	52
52.0226	52.43	53	62
52.0226	52.5724	65	72
52.0226	52.43	68	72
52.0226	52.5724	74	85
52.43	52.5724	41	41
52.43	52.5724	53	49
52.43	52.5724	63	61
52.43	52.5724	68	61
52.43	52.5724	72	73
52.5724	53.1344	43	51
52.5724	53.124	55	61
52.5724	53.1344	62	68
52.5724	53.124	67	68
52.5724	53.1344	71	80
53.124	53.5378	55	61
53.124	53.6957	60	64
53.124	53.5378	67	64
53.124	53.6957	69	77
53.5378	53.6957	53	41
53.5378	53.6757	55	49
53.5378	53.6957	62	52
53.5378	53.6757	67	52
53.5378	53.6957	71	62
53.6757	54.2719	51	56
53.6757	54.2719	55	66
53.6757	54.2719	63	70
53.6757	54.259	67	70
53.6757	54.2719	72	83
54.259	54.6835	31	61
54.259	54.6835	43	73
54.259	54.6835	67	78
54.259	54.8316	75	92
54.6835	54.8316	31	51
54.6835	54.8316	43	61
54.6835	54.8316	65	64
54.6835	54.8316	67	64
54.6835	54.8316	74	77
54.8316	56.6081	36	64
54.8316	56.6081	43	77
54.8316	56.6081	63	74
54.8316	56.6081	67	74
54.8316	56.6081	72	89
56.6081	57.0219	74	55
57.0219	57.1598	75	47
57.1598	57.5471	77	64
57.7115	58.1252	65	41
57.7115	58.1252	68	44
57.7115	58.1252	71	44
57.7115	58.1252	74	44
57.7115	58.0988	77	52
58.2632	58.65	62	34
58.2632	58.65	65	41
58.2632	58.65	68	44
58.2632	58.65	70	44
58.2632	58.6253	77	52
58.779	59.3818	58	34
58.779	59.3818	65	41
58.779	59.3818	68	39
58.779	59.3818	70	39
58.779	58.9006	75	47
58.8398	58.9137	77	47
58.9006	59.2148	75	70
59.2148	59.3818	74	58
59.3818	59.9263	63	52
59.3818	59.9263	67	56
59.3818	59.9263	70	56
59.3818	60.3399	79	66
59.9263	60.4777	59	30
59.9263	60.4777	62	30
59.9263	60.4777	65	36
59.9263	60.4777	68	36
59.9263	60.4777	74	44
60.3399	60.4777	77	55
60.4777	61.0291	60	44
60.4777	61.0291	63	52
60.4777	61.0291	67	56
60.4777	61.0291	75	48
61.0291	61.5788	53	43
61.0291	61.4364	65	53
61.0291	61.5788	68	46
61.0291	61.4364	74	63
61.4364	61.5788	63	46
61.4364	61.5788	72	54
61.5788	62.1305	55	48
61.5788	62.1305	62	50
61.5788	62.1305	67	50
61.5788	62.1305	71	59
62.1305	62.5442	55	49
62.1305	62.5442	60	52
62.1305	62.5442	67	52
62.1305	62.5442	69	61
62.5442	62.6822	53	34
62.5442	62.6822	55	40
62.5442	62.6822	62	42
62.5442	62.6822	67	42
62.5442	62.6822	71	50
62.6822	63.2457	51	45
62.6822	63.2457	55	53
62.6822	63.2457	63	57
62.6822	63.2457	67	57
62.6822	63.2457	72	68
63.2457	63.6683	50	46
63.2457	63.6683	55	46
63.2457	63.6683	59	55
63.2457	63.6683	67	59
63.2457	63.6683	77	78
63.6683	63.8164	48	47
63.6683	63.8164	55	47
63.6683	63.8164	60	56
63.6683	63.8164	67	60
63.6683	63.8164	75	71
63.8164	65.5929	55	55
63.8164	65.5929	59	64
63.8164	65.5929	67	71
63.8164	65.5929	74	84
65.5929	66.0067	34	56
65.5929	66.0067	46	66
65.5929	66.1446	65	70
65.5929	66.0067	70	70
65.5929	66.1446	74	83
66.0067	66.1446	34	52
66.0067	66.1446	46	60
66.0067	66.1446	67	67
66.0067	66.1446	70	67
66.0067	66.1446	75	79
66.1446	66.6963	34	64
66.1446	66.6963	46	76
66.1446	66.6963	68	64
66.1446	66.6963	70	81
66.1446	66.6963	77	96
66.6963	67.248	34	57
66.6963	67.248	46	69
66.6963	67.248	68	60
66.6963	67.248	70	75
66.6963	67.248	77	88
67.248	67.7939	34	59
67.248	67.7939	46	71
67.248	67.81	68	60
67.248	67.7939	70	75
67.248	67.81	77	88
67.7939	68.2076	34	73
67.7939	68.2076	46	86
67.7939	68.3455	67	58
67.7939	68.2076	70	73
67.7939	68.3455	75	86
68.2076	68.3455	34	59
68.2076	68.3455	46	71
68.2076	68.3455	65	60
68.2076	68.3455	70	76
68.2076	68.3455	74	89
68.3455	68.896	34	67
68.3455	68.896	46	79
68.3455	69.291	70	84
68.3455	69.291	79	99
68.88	69.017	36	76
68.88	69.017	48	91
69.291	69.428	38	60
69.291	69.428	50	74
69.291	69.428	68	70
69.291	69.428	70	70
69.291	69.428	77	83
69.428	69.9906	39	71
69.428	69.9906	51	84
69.428	69.9906	67	62
69.428	69.9906	70	62
69.428	69.9906	75	74
69.9759	70.3832	41	57
69.9759	70.3832	53	67
69.9759	70.5256	65	77
69.9759	70.3832	68	77
69.9759	70.5256	74	92
70.3832	70.5256	41	44
70.3832	70.5256	53	53
70.3832	70.5256	63	67
70.3832	70.5256	68	67
70.3832	70.5256	72	79
70.5256	71.0876	43	56
70.5256	71.0773	55	66
70.5256	71.0876	62	73
70.5256	71.0773	67	73
70.5256	71.0876	71	86
71.0773	71.491	55	66
71.0773	71.6489	60	70
71.0773	71.491	67	70
71.0773	71.6489	69	83
71.491	71.6489	53	44
71.491	71.629	55	53
71.491	71.6489	62	57
71.491	71.629	67	57
71.491	71.6489	71	67
71.629	72.2435	51	59
71.629	72.2435	55	71
71.629	72.2435	63	76
71.629	72.2305	67	76
71.629	72.2435	72	90
72.2305	72.655	31	67
72.2305	72.655	43	79
72.2305	72.655	67	84
72.2305	72.8031	75	99
72.655	72.8031	31	56
72.655	72.8031	43	66
72.655	72.8031	65	70
72.655	72.8031	67	70
72.655	72.8031	74	83
72.8031	74.5926	36	70
72.8031	74.5926	43	83
72.8031	74.5926	63	81
72.8031	74.5926	67	81
72.8031	74.5926	72	96
74.5796	75.1522	75	78
75.0041	75.1522	74	70
75.1522	76.9288	44	61
75.1522	76.9288	51	61
75.1522	76.9288	56	72
75.1522	76.9288	63	71
75.1522	76.9288	68	71
75.1522	76.9288	72	83
76.9288	77.0083	72	69
77.0083	77.518	75	78
77.37	77.518	74	70
77.518	79.3093	39	61
77.518	79.2945	48	61
77.518	79.3093	51	72
77.518	79.3093	67	71
77.518	79.3093	72	83
79.2945	79.8443	48	48
79.2945	79.8443	60	57
79.2945	79.8443	74	78
79.7019	79.8443	75	67
79.8443	80.4063	41	47
79.8443	80.4063	53	56
79.8443	80.4063	68	62
79.8443	80.396	72	62
79.8443	80.4063	77	73
80.396	80.9476	43	47
80.396	80.9476	55	56
80.396	80.9676	67	59
80.396	80.9476	72	59
80.396	80.9676	75	70
80.8097	80.9676	44	38
80.8097	80.9676	56	45
80.8097	80.9676	65	48
80.8097	80.9676	74	57
80.9476	81.5309	43	51
80.9476	81.5439	55	60
80.9476	81.5439	63	64
80.9476	81.5439	72	76
81.5309	82.1035	31	47
81.5309	82.1035	43	56
81.5309	82.1059	62	60
81.5309	82.1035	67	60
81.5309	82.1059	71	71
82.1035	83.893	36	50
82.1035	83.893	43	50
82.1035	83.893	48	59
82.1035	83.893	63	57
82.1035	83.893	67	57
82.1035	83.893	72	68
83.88	84.4679	75	60
84.3046	84.4679	74	54
84.4679	86.2445	44	47
84.4679	86.2445	51	47
84.4679	86.2445	56	56
84.4679	86.2445	63	55
84.4679	86.2445	68	55
84.4679	86.2445	72	65
86.2445	86.836	75	59
86.669	86.836	74	52
86.836	88.6329	39	50
86.836	88.6329	48	50
86.836	88.6329	51	59
86.836	88.6329	67	51
86.836	88.6329	72	61
88.6125	89.0199	73	54
89.0199	89.1623	75	46
89.1623	89.7059	49	39
89.1623	89.7059	68	40
89.1623	89.297	73	40
89.2273	89.297	75	43
89.2924	89.7059	77	51
89.7059	89.9816	51	39
89.7059	89.9827	68	41
89.7059	89.9827	75	49
90.1194	90.1883	53	31
90.1194	90.1883	68	33
90.1194	90.1883	73	39
90.2573	90.539	51	42
90.2573	90.539	68	44
90.2573	90.539	72	53
90.8405	91.1236	39	28
90.8405	91.1236	51	35
90.8405	91.1247	61	37
90.8405	91.1236	63	37
90.8405	91.1236	67	37
90.8405	91.1247	70	44
91.4131	92.5932	44	40
91.4131	92.5932	60	39
91.4131	92.5932	63	39
91.4131	92.5932	68	47
91.6105	92.0053	48	33
91.8079	92.1961	51	33
92.0053	92.5932	48	40
92.1961	92.5932	51	29
92.3869	92.5932	56	30
92.5777	93.1604	47	40
92.7685	93.1604	50	33
92.9593	93.1604	56	33
93.1501	93.7172	48	40
93.1501	93.7172	68	53
93.334	93.7172	51	35
93.5179	93.7172	56	35
93.5638	93.7172	72	47
93.7172	94.8381	44	40
93.7172	94.2815	75	57
93.9053	94.2815	48	33
94.0934	94.6458	56	33
94.2815	94.8381	48	40
94.2815	94.8279	75	51
94.4636	94.8381	51	29
94.6458	94.8381	56	30
94.8279	95.3807	47	40
94.8279	95.3738	75	53
95.0098	95.3807	50	33
95.1918	95.3807	56	33
95.3738	95.9501	48	40
95.3738	95.9501	75	52
95.5576	95.9501	51	35
95.7498	95.9501	56	35
95.9501	96.499	49	40
95.9501	97.0607	77	58
96.1331	96.5056	53	33
96.316	96.5056	56	33
96.499	97.0607	49	40
96.6747	97.0607	55	29
96.8504	97.0607	58	30
97.0412	97.5926	48	40
97.0412	98.1402	75	55
97.225	97.9503	56	33
97.4088	98.1402	60	33
97.5926	98.1402	48	40
97.7714	98.1402	51	35
97.9503	98.1402	56	35
98.1402	98.6891	46	40
98.1402	99.2527	73	58
98.3232	98.6957	51	33
98.5061	98.6957	56	33
98.6891	99.2527	46	40
98.8671	99.2527	51	29
99.0452	99.2527	55	30
99.2333	99.7797	44	35
99.2333	100.329	72	52
99.4154	99.7942	51	28
99.5976	99.7942	58	28
99.7797	100.329	44	35
99.9585	100.329	51	27
100.137	100.329	56	35
100.329	100.885	49	30
100.329	100.885	70	40
100.512	100.885	56	24
100.695	100.885	58	24
100.878	101.447	53	32
100.878	101.447	73	34
101.061	101.447	56	23
101.244	101.447	61	24
101.427	101.983	51	30
101.427	101.999	72	40
101.612	101.999	56	23
101.798	101.999	60	23
101.983	102.556	51	29
101.983	102.556	70	37
102.171	102.556	55	23
102.36	102.556	58	23
102.548	103.708	44	33
102.548	103.708	68	48
102.741	103.128	48	23
102.935	103.505	56	23
103.128	103.708	48	31
103.316	103.708	51	25
103.505	103.708	56	26
103.693	104.262	47	40
103.879	104.262	50	31
104.065	104.262	56	31
104.252	104.819	48	40
104.252	104.819	68	53
104.436	104.819	51	35
104.62	104.819	56	35
104.666	104.819	72	47
104.819	105.94	44	40
104.819	105.383	75	57
105.007	105.383	48	33
105.195	105.747	56	33
105.383	105.94	48	40
105.383	105.93	63	42
105.383	105.93	75	51
105.565	105.94	51	29
105.747	105.94	56	30
105.93	106.482	47	40
105.93	106.475	63	45
105.93	106.475	75	53
106.112	106.482	50	33
106.294	106.482	56	33
106.475	107.089	48	40
106.475	107.089	63	44
106.475	107.089	75	52
106.659	107.089	51	35
106.851	107.089	56	35
107.089	107.641	49	40
107.089	108.21	64	49
107.089	108.21	76	58
107.273	107.648	52	33
107.457	107.648	56	33
107.641	108.21	49	40
107.821	108.21	52	29
108.0	108.21	58	30
108.191	108.742	47	40
108.191	109.29	63	46
108.191	109.29	75	55
108.375	108.921	54	33
108.559	109.1	59	33
108.742	109.29	47	40
108.921	109.29	54	35
109.1	109.29	59	35
109.29	109.839	52	40
109.29	110.402	73	58
109.473	109.845	56	33
109.656	109.845	61	33
109.839	110.402	52	40
110.017	110.402	54	29
110.195	110.402	58	30
110.383	110.929	51	35
110.383	111.466	71	52
110.565	110.944	54	28
110.747	110.944	59	28
110.929	111.466	51	35
111.108	111.466	55	27
111.198	111.466	70	45
111.287	111.466	61	35
111.466	112.011	52	30
111.466	112.004	68	40
111.649	112.004	56	24
111.832	112.011	59	24
112.004	112.563	56	32
112.004	112.072	68	33
112.072	112.563	76	52
112.184	112.563	59	23
112.364	112.563	64	24
112.543	113.1	54	30
112.543	113.115	75	46
112.729	113.115	59	23
112.914	113.115	63	23
113.1	113.673	54	29
113.1	113.673	73	42
113.288	113.673	58	23
113.476	113.673	61	23
113.664	114.822	47	33
113.664	115.371	71	48
113.857	114.242	51	23
114.049	114.618	59	23
114.242	114.822	51	31
114.43	114.822	54	25
114.618	114.822	59	27
114.806	115.381	50	42
114.995	115.381	53	32
115.183	115.381	59	32
115.371	115.938	51	42
115.371	115.938	71	57
115.555	115.938	54	37
115.739	115.938	59	38
115.785	115.938	75	50
115.938	116.5	47	44
115.938	116.5	66	46
115.938	116.5	78	62
116.125	116.682	51	36
116.312	116.864	54	37
116.5	117.056	47	47
116.5	117.056	66	48
116.5	117.056	78	59
116.682	117.056	51	34
116.864	117.056	54	36
117.046	117.599	46	51
117.046	117.599	67	57
117.046	117.599	79	67
117.228	117.599	49	48
117.41	117.599	51	49
117.592	118.152	44	62
117.592	118.152	68	59
117.592	118.152	80	71
117.776	118.152	49	55
117.96	118.152	51	56
118.144	118.69	43	72
118.144	118.7	70	64
118.144	118.7	82	79
118.326	118.7	49	58
118.508	118.7	51	62
118.69	119.243	43	69
118.69	119.243	73	64
118.69	119.243	85	77
118.872	119.243	46	48
119.054	119.243	51	55
119.236	119.798	44	62
119.236	119.798	71	62
119.236	119.798	83	74
119.42	119.798	47	49
119.604	119.798	51	48
119.787	120.355	49	44
119.787	120.355	70	49
119.787	120.355	82	58
119.971	120.355	52	38
120.155	120.355	58	38
120.201	120.355	68	42
120.201	120.355	80	51
120.346	120.913	51	33
120.346	120.913	67	49
120.346	120.913	79	58
120.535	121.099	58	27
120.724	121.284	61	27
120.913	121.47	51	34
120.913	121.485	67	46
120.913	121.485	79	55
121.099	121.485	58	25
121.284	121.485	61	26
121.47	122.016	51	36
121.47	122.593	68	45
121.47	122.593	80	53
121.652	122.204	58	29
121.743	122.298	67	37
121.743	122.298	79	45
121.834	122.392	61	29
122.016	122.601	51	35
122.016	122.601	65	38
122.016	122.601	77	46
122.204	122.601	58	28
122.298	122.601	67	37
122.298	122.601	79	45
122.392	122.601	61	28
122.593	123.75	56	33
122.593	123.547	68	40
122.593	124.299	80	48
122.785	123.171	60	23
122.978	123.359	63	23
123.171	123.75	60	31
123.359	123.75	63	25
123.547	124.111	68	27
123.735	124.31	59	38
123.923	124.31	62	32
124.111	124.31	68	32
124.299	124.866	60	42
124.299	124.866	80	57
124.483	124.866	63	37
124.667	124.866	68	38
124.713	124.866	84	50
124.866	125.987	56	44
124.866	125.431	75	57
124.866	125.431	87	68
125.055	125.431	60	36
125.243	125.795	68	37
125.431	125.987	60	47
125.431	125.977	75	52
125.431	125.977	87	62
125.613	125.987	63	34
125.795	125.987	68	36
125.977	126.53	59	50
125.977	126.523	75	56
125.977	126.523	87	67
126.159	126.53	62	42
126.341	126.53	68	43
126.523	127.083	60	55
126.523	127.083	75	60
126.523	127.083	87	71
126.707	127.083	63	47
126.891	127.083	68	45
127.075	127.621	61	61
127.075	127.631	77	58
127.075	127.631	89	69
127.257	127.631	65	46
127.439	127.631	68	51
127.621	128.174	61	61
127.621	128.174	79	57
127.621	128.174	91	72
127.803	128.174	63	49
127.985	128.174	70	49
128.167	128.719	60	57
128.167	128.729	80	58
128.167	128.729	92	69
128.351	128.729	63	45
128.535	128.729	68	44
128.719	129.278	60	44
128.719	129.278	75	51
128.719	129.278	87	61
128.903	129.278	63	38
129.086	129.278	68	38
129.278	129.842	58	44
129.278	130.381	75	56
129.278	130.381	87	66
129.466	130.024	63	36
129.654	130.381	70	37
129.842	130.381	58	47
129.842	130.381	73	45
129.842	130.381	85	54
130.024	130.381	63	34
130.206	130.388	67	36
130.388	130.934	56	45
130.388	130.941	73	52
130.388	130.941	85	62
130.57	130.941	63	36
130.752	130.941	68	36
130.934	131.387	56	46
130.934	131.387	72	46
130.934	131.387	84	55
131.118	131.387	63	37
131.302	131.486	68	36
131.486	132.042	61	30
131.486	132.042	82	56
131.669	132.042	68	24
131.852	132.042	70	24
132.035	132.603	65	32
132.035	132.603	85	50
132.218	132.603	68	23
132.401	132.603	73	24
132.584	133.14	63	30
132.584	133.155	84	57
132.769	133.155	68	23
132.955	133.155	72	23
133.14	133.719	63	29
133.14	133.719	82	49
133.328	133.719	67	23
133.516	133.719	70	23
133.704	135.408	56	25
133.704	135.822	60	25
133.704	134.09	68	30
133.704	133.897	80	53
133.897	134.66	63	48
134.09	134.471	68	48
134.282	135.036	72	59
134.471	135.222	68	48
134.66	135.975	63	49
134.849	135.776	75	59
135.036	135.592	72	53
135.222	135.408	68	54
135.408	135.975	56	58
135.408	135.975	68	59
135.592	135.975	72	53
135.776	135.975	75	53
135.822	135.975	60	51
135.975	136.537	63	62
135.975	136.537	75	59
136.163	136.719	70	53
136.35	136.901	67	53
136.537	137.084	63	56
136.537	137.084	75	59
136.719	137.101	70	52
136.901	137.101	67	52
137.084	137.629	63	58
137.084	137.646	75	59
137.265	137.646	72	51
137.447	137.646	68	51
137.629	138.201	63	57
137.629	138.201	70	62
137.813	138.201	75	55
138.001	138.201	79	57
138.193	139.292	65	63
138.193	138.742	80	66
138.376	138.757	75	59
138.559	138.757	68	59
138.742	139.284	80	67
138.917	139.292	74	59
139.093	139.292	68	59
139.284	140.393	63	60
139.284	139.852	80	65
139.468	139.852	75	54
139.652	139.835	70	54
139.835	140.393	70	61
140.014	140.393	75	52
140.193	140.393	79	52
140.383	141.492	61	63
140.383	140.932	77	59
140.566	140.944	70	51
140.749	140.944	67	52
140.932	141.476	77	59
141.11	141.492	71	53
141.288	141.492	67	53
141.476	142.581	60	57
141.476	142.037	77	57
141.658	142.037	72	51
141.84	142.022	68	51
142.022	142.581	68	59
142.201	142.581	72	52
142.38	142.581	75	52
142.572	143.126	58	57
142.572	143.121	61	59
142.755	143.126	68	54
142.938	143.126	73	54
143.121	143.689	61	55
143.121	143.689	65	59
143.304	143.689	68	55
143.487	143.689	70	56
143.67	144.233	60	61
143.67	144.226	63	59
143.855	144.233	68	54
144.041	144.233	72	54
144.226	144.79	51	45
144.226	144.796	58	54
144.226	144.79	63	59
144.226	144.796	67	70
144.414	144.796	75	63
144.602	144.796	73	67
144.79	146.492	44	51
144.79	147.059	51	51
144.79	146.492	56	60
144.79	144.983	63	60
144.79	145.176	68	60
144.79	145.368	72	71
144.983	145.746	63	59
145.176	145.557	68	59
145.368	146.121	72	67
145.557	146.306	68	56
145.746	147.059	63	56
145.935	146.86	75	66
146.121	146.676	72	57
146.306	146.492	68	57
146.492	147.059	44	63
146.492	147.059	56	63
146.492	147.059	68	68
146.676	147.059	72	60
146.86	147.059	75	60
146.906	147.059	48	56
146.906	147.059	60	56
147.059	147.623	51	68
147.059	147.623	63	68
147.059	147.623	75	69
147.247	147.805	70	59
147.435	147.987	67	59
147.623	148.17	51	50
147.623	148.17	63	61
147.623	148.17	75	70
147.805	148.181	70	57
147.987	148.181	67	57
148.17	148.715	51	53
148.17	148.715	63	63
148.17	148.725	75	71
148.352	148.725	71	61
148.533	148.725	68	59
148.715	149.287	51	52
148.715	149.287	63	62
148.715	149.287	70	68
148.899	149.287	75	62
149.087	149.287	79	63
149.287	150.414	52	58
149.287	150.414	64	69
149.287	149.849	80	68
149.474	149.861	75	58
149.661	149.861	68	58
149.849	150.399	80	67
150.028	150.414	73	59
150.208	150.414	70	59
150.399	151.508	51	55
150.399	151.508	63	66
150.399	150.967	80	67
150.582	150.967	75	57
150.766	150.95	71	57
150.95	151.508	71	65
151.129	151.508	75	57
151.308	151.508	78	57
151.501	152.61	49	58
151.501	152.61	61	69
151.501	152.05	76	65
151.684	152.065	71	55
151.867	152.065	67	55
152.05	152.594	76	62
152.228	152.61	70	53
152.406	152.61	67	53
152.594	153.695	47	52
152.594	153.695	59	62
152.594	153.695	76	64
152.776	153.32	71	55
152.959	153.141	68	55
153.141	153.689	68	65
153.32	153.695	71	56
153.409	153.695	58	68
153.498	153.695	75	56
153.689	154.256	52	52
153.689	154.234	56	61
153.689	154.234	68	66
153.872	154.256	71	59
154.055	154.256	73	57
154.234	154.805	49	46
154.234	154.805	56	46
154.234	154.805	64	55
154.234	154.805	68	67
154.417	154.805	71	56
154.6	154.805	76	56
154.798	155.354	54	47
154.798	155.372	63	56
154.798	155.354	66	66
154.983	155.372	71	56
155.169	155.372	75	56
155.354	155.938	54	42
155.354	155.938	61	50
155.354	155.938	66	56
155.354	155.938	70	67
155.542	155.938	78	57
155.73	155.938	76	57
155.938	158.209	47	50
155.938	158.209	54	50
155.938	158.209	59	59
155.938	156.323	66	53
155.938	156.516	71	53
155.938	157.083	75	53
156.131	156.894	63	48
156.323	156.705	66	48
156.516	157.269	71	59
156.705	157.456	66	48
156.894	158.209	63	49
157.083	157.826	75	59
157.269	157.642	71	53
157.456	158.209	66	54
157.642	158.209	71	59
157.826	158.209	75	53
158.01	158.209	78	53
158.209	158.771	47	44
158.209	158.771	66	46
158.209	158.771	78	62
158.396	158.953	51	36
158.584	159.135	54	37
158.771	159.328	47	47
158.771	159.328	66	48
158.771	159.328	78	59
158.953	159.328	51	34
159.135	159.328	54	36
159.317	159.87	46	51
159.317	159.87	67	57
159.317	159.87	79	67
159.499	159.87	49	48
159.681	159.87	51	49
159.863	160.423	44	62
159.863	160.423	68	60
159.863	160.423	80	72
160.047	160.423	49	55
160.231	160.423	51	56
160.415	160.961	43	72
160.415	160.971	70	64
160.415	160.971	82	79
160.597	160.971	49	58
160.779	160.971	51	62
160.961	161.514	43	69
160.961	161.514	73	64
160.961	161.514	85	77
161.143	161.514	46	48
161.325	161.514	51	55
161.507	162.069	44	62
161.507	162.069	71	62
161.507	162.069	83	74
161.691	162.069	47	49
161.875	162.069	51	48
162.059	162.626	49	44
162.059	162.626	70	49
162.059	162.626	82	58
162.243	162.626	52	38
162.427	162.626	58	38
162.472	162.626	68	42
162.472	162.626	80	51
162.618	163.185	51	33
162.618	163.185	67	49
162.618	163.185	79	58
162.807	163.37	58	27
162.996	163.556	61	27
163.185	163.741	51	34
163.185	163.756	67	46
163.185	163.756	79	55
163.37	163.756	58	25
163.556	163.756	61	26
163.741	164.287	51	36
163.741	164.864	68	45
163.741	164.864	80	53
163.923	164.476	58	29
164.014	164.57	67	37
164.014	164.57	79	45
164.105	164.664	61	29
164.287	164.873	51	35
164.287	164.873	65	38
164.287	164.873	77	46
164.476	164.873	58	28
164.57	164.873	67	37
164.57	164.873	79	45
164.664	164.873	61	28
164.864	166.006	44	33
164.864	166.006	68	40
164.864	166.006	80	48
165.057	165.249	51	19
165.057	165.249	56	19
165.057	165.249	60	23
165.249	165.442	51	19
165.249	165.442	56	19
165.249	165.442	60	23
165.442	165.63	51	21
165.442	165.63	56	21
165.442	165.63	60	25
165.63	165.818	51	21
165.63	165.818	56	21
165.63	165.818	60	25
165.818	166.006	51	21
165.818	166.006	56	21
165.818	166.006	60	25
166.006	166.143	51	27
166.006	166.143	56	27
166.006	166.143	60	32
166.006	166.293	73	53
166.188	166.325	51	20
166.188	166.325	56	20
166.188	166.325	60	24
166.28	166.567	72	53
166.371	166.507	51	21
166.371	166.507	56	21
166.371	166.507	60	25
166.553	166.692	51	28
166.553	166.692	56	28
166.553	166.692	60	33
166.553	166.846	71	53
166.739	166.879	51	21
166.739	166.879	56	21
166.739	166.879	60	25
166.832	167.099	72	53
166.925	167.057	51	21
166.925	167.057	56	21
166.925	167.057	60	25
167.099	168.224	37	33
167.099	168.224	72	48
167.232	168.224	77	48
167.28	167.47	49	19
167.28	167.47	53	19
167.28	167.47	60	23
167.47	167.66	49	19
167.47	167.66	53	19
167.47	168.224	60	23
167.66	167.848	49	25
167.66	167.848	53	25
167.66	167.848	57	30
167.848	168.036	49	21
167.848	168.036	53	21
167.848	168.036	57	25
168.036	168.224	49	21
168.036	168.224	53	21
168.036	168.224	57	25
168.224	168.361	49	27
168.224	168.361	53	27
168.224	168.361	58	32
168.224	168.511	72	53
168.406	168.543	49	20
168.406	168.543	53	20
168.406	168.543	58	24
168.497	168.784	70	53
168.588	168.725	49	21
168.588	168.725	53	21
168.588	168.725	58	25
168.77	168.91	49	28
168.77	168.91	53	28
168.77	168.91	58	33
168.77	169.064	69	53
168.957	169.096	49	21
168.957	169.096	53	21
168.957	169.096	58	25
169.05	169.319	70	53
169.143	169.276	49	21
169.143	169.276	53	21
169.143	169.276	58	25
169.319	170.464	36	33
169.319	170.464	70	48
169.449	170.464	75	48
169.497	169.69	48	19
169.497	169.69	51	19
169.497	169.69	58	23
169.69	169.883	48	19
169.69	169.883	51	19
169.69	170.464	58	23
169.883	170.071	48	25
169.883	170.071	51	25
169.883	170.071	55	30
170.071	170.259	48	21
170.071	170.259	51	21
170.071	170.259	55	25
170.259	170.447	48	21
170.259	170.447	51	21
170.259	170.464	55	25
170.447	170.584	48	29
170.447	170.584	51	29
170.447	170.584	56	35
170.447	170.734	73	58
170.629	170.766	48	22
170.629	170.766	51	22
170.629	170.766	56	27
170.72	171.007	72	60
170.811	170.948	48	24
170.811	170.948	51	24
170.811	170.948	56	29
170.993	171.133	48	33
170.993	171.133	51	33
170.993	171.133	56	39
170.993	171.287	70	63
171.18	171.319	48	25
171.18	171.319	51	25
171.18	171.319	56	30
171.273	171.568	68	66
171.366	171.516	48	26
171.366	171.516	51	26
171.366	171.516	56	31
171.568	172.109	37	42
171.568	172.109	67	57
171.568	172.109	75	68
171.746	171.925	49	25
171.746	171.925	53	30
171.836	172.109	65	56
171.836	172.109	73	66
171.925	172.104	49	26
171.925	172.104	53	31
172.104	172.286	49	33
172.104	172.286	53	39
172.104	172.689	63	53
172.104	172.689	72	63
172.286	172.468	49	24
172.286	172.468	53	29
172.377	172.689	61	51
172.377	172.689	70	60
172.468	172.689	49	23
172.468	172.689	53	28
172.669	173.242	39	36
172.669	173.258	60	49
172.669	173.258	68	58
172.851	173.033	51	21
172.851	173.033	56	26
173.033	173.258	51	22
173.033	173.258	56	26
173.242	173.825	39	34
173.242	173.825	63	55
173.242	173.825	72	55
173.428	173.615	51	21
173.428	173.615	55	26
173.615	173.825	51	21
173.615	173.825	55	25
173.661	173.825	61	54
173.661	173.825	70	54
173.816	174.958	44	33
173.816	174.009	60	40
173.816	174.958	68	48
174.009	174.201	51	19
174.009	174.201	56	19
174.009	174.201	60	23
174.201	174.394	51	19
174.201	174.394	56	19
174.201	174.394	60	23
174.394	174.582	51	21
174.394	174.582	56	21
174.394	174.582	60	25
174.582	174.77	51	21
174.582	174.77	56	21
174.582	174.77	60	25
174.77	174.958	51	21
174.77	174.958	56	21
174.77	174.958	60	25
174.958	175.095	51	27
174.958	175.095	56	27
174.958	175.095	60	32
174.958	175.245	73	53
175.141	175.277	51	20
175.141	175.277	56	20
175.141	175.277	60	24
175.232	175.519	72	53
175.323	175.459	51	21
175.323	175.459	56	21
175.323	175.459	60	25
175.505	175.645	51	28
175.505	175.645	56	28
175.505	175.645	60	33
175.505	175.798	71	53
175.691	175.831	51	21
175.691	175.831	56	21
175.691	175.831	60	25
175.784	176.074	72	53
175.878	176.024	51	21
175.878	176.024	56	21
175.878	176.024	60	25
176.074	176.214	37	33
176.074	177.206	77	48
176.074	176.371	84	53
176.262	176.404	49	19
176.262	176.404	53	19
176.262	176.404	60	23
176.356	176.655	82	53
176.451	176.594	49	19
176.451	176.594	53	19
176.451	176.594	60	23
176.641	176.782	49	25
176.641	176.782	53	25
176.641	176.782	60	30
176.641	176.938	81	53
176.829	176.971	49	21
176.829	176.971	53	21
176.829	176.971	60	25
176.924	177.206	82	53
177.018	177.159	49	21
177.018	177.159	53	21
177.018	177.159	60	25
177.206	177.342	49	27
177.206	177.342	53	27
177.206	177.342	58	32
177.206	177.493	72	53
177.388	177.524	49	20
177.388	177.524	53	20
177.388	177.524	58	24
177.479	177.766	70	53
177.57	177.707	49	21
177.57	177.707	53	21
177.57	177.707	58	25
177.752	177.892	49	28
177.752	177.892	53	28
177.752	177.892	58	33
177.752	178.046	69	53
177.938	178.078	49	21
177.938	178.078	53	21
177.938	178.078	58	25
178.032	178.316	70	53
178.125	178.268	49	21
178.125	178.268	53	21
178.125	178.268	58	25
178.316	178.457	36	33
178.316	179.455	75	48
178.316	178.601	82	58
178.505	178.65	48	19
178.505	178.65	51	19
178.505	178.65	58	23
178.601	178.89	80	60
178.698	178.842	48	19
178.698	178.842	51	19
178.698	178.842	58	23
178.89	179.031	48	25
178.89	179.031	51	25
178.89	179.031	58	30
178.89	179.173	79	63
179.078	179.22	48	21
179.078	179.22	51	21
179.078	179.22	58	25
179.173	179.455	80	66
179.267	179.408	48	21
179.267	179.408	51	21
179.267	179.408	58	25
179.455	179.591	48	29
179.455	179.591	51	29
179.455	179.591	56	35
179.455	179.742	73	58
179.637	179.773	48	22
179.637	179.773	51	22
179.637	179.773	56	27
179.728	180.015	72	60
179.819	179.956	48	24
179.819	179.956	51	24
179.819	179.956	56	29
180.001	180.141	48	33
180.001	180.141	51	33
180.001	180.141	56	39
180.001	180.295	70	63
180.187	180.327	48	25
180.187	180.327	51	25
180.187	180.327	56	30
180.281	180.575	68	66
180.374	180.524	48	26
180.374	180.524	51	26
180.374	180.524	56	31
180.575	181.116	37	42
180.575	181.116	67	57
180.575	181.112	75	57
180.575	181.116	79	68
180.754	180.933	49	25
180.754	180.933	53	25
180.754	180.933	56	30
180.844	181.116	65	56
180.844	181.116	73	56
180.844	181.116	77	66
180.933	181.112	49	26
180.933	181.112	53	26
180.933	181.116	56	31
181.112	181.294	49	33
181.112	181.294	53	33
181.112	181.294	57	39
181.112	181.697	63	53
181.112	181.677	72	53
181.112	181.697	75	63
181.294	181.476	49	24
181.294	181.476	53	24
181.294	181.697	57	29
181.385	181.697	61	51
181.385	181.697	70	51
181.385	181.697	73	60
181.476	181.697	49	23
181.476	181.697	53	23
181.476	181.697	58	28
181.677	182.25	39	36
181.677	182.266	60	49
181.677	182.266	68	49
181.677	182.266	72	58
181.859	182.041	51	21
181.859	182.041	56	26
182.041	182.266	51	22
182.041	182.266	56	26
182.25	182.824	39	34
182.25	182.824	61	46
182.25	182.824	67	46
182.25	182.824	73	55
182.436	182.622	51	21
182.436	182.622	55	21
182.436	182.622	58	26
182.622	182.824	51	21
182.622	182.824	55	21
182.622	182.824	58	25
182.669	182.824	70	54
182.824	184.513	32	33
182.824	182.968	44	33
182.824	184.513	56	40
182.824	184.513	60	40
182.824	184.513	63	40
182.824	184.513	68	48
183.017	183.161	44	19
183.017	183.161	48	21
183.017	183.161	51	23
183.209	183.354	44	19
183.209	183.354	48	19
183.209	183.354	51	23
183.402	183.543	44	21
183.402	183.543	48	21
183.402	183.543	51	25
183.59	183.731	44	21
183.59	183.731	48	21
183.59	183.731	51	25
183.778	183.919	44	21
183.778	183.919	48	21
183.778	183.919	51	25
183.966	184.103	44	27
183.966	184.103	48	27
183.966	184.103	51	32
184.148	184.285	44	20
184.148	184.285	48	27
184.148	184.285	51	24
184.33	184.467	44	21
184.33	184.467	48	21
184.33	184.467	51	25
184.513	184.652	44	28
184.513	184.652	48	28
184.513	184.652	51	33
184.513	184.932	60	40
184.699	184.839	44	21
184.699	184.839	48	21
184.699	184.839	51	25
184.885	185.031	44	21
184.885	185.031	48	21
184.885	185.031	51	25
184.932	185.081	63	37
185.081	186.223	32	33
185.081	185.225	44	33
185.081	185.514	56	37
185.081	185.514	68	44
185.273	185.418	44	19
185.273	185.418	48	21
185.273	185.418	51	23
185.466	185.611	44	19
185.466	185.611	48	19
185.466	185.611	51	23
185.659	185.8	44	21
185.659	185.8	48	21
185.659	185.8	51	25
185.659	186.082	56	34
185.659	186.082	68	40
185.847	185.988	44	21
185.847	185.988	48	21
185.847	185.988	51	25
186.035	186.176	44	21
186.035	186.176	48	21
186.035	186.176	51	25
186.223	186.36	44	27
186.223	186.36	48	27
186.223	186.36	51	32
186.223	186.633	56	34
186.223	186.633	68	40
186.405	186.542	44	20
186.405	186.542	48	27
186.405	186.542	51	24
186.587	186.724	44	21
186.587	186.724	48	21
186.587	186.724	51	25
186.769	186.909	44	28
186.769	186.909	48	28
186.769	186.909	51	33
186.769	187.189	56	34
186.769	187.189	68	40
186.956	187.096	44	21
186.956	187.096	48	21
186.956	187.096	51	25
187.142	187.325	44	21
187.142	187.325	48	21
187.142	187.325	51	25
187.394	188.536	31	33
187.394	187.538	43	33
187.394	189.082	55	40
187.394	189.082	67	48
187.586	187.731	43	19
187.586	187.731	48	21
187.586	187.731	51	23
187.779	187.923	43	19
187.779	187.923	48	19
187.779	187.923	51	23
187.972	188.113	43	21
187.972	188.113	48	21
187.972	188.113	51	25
188.16	188.301	43	21
188.16	188.301	48	21
188.16	188.301	51	25
188.348	188.489	43	21
188.348	188.489	48	21
188.348	188.489	51	25
188.536	188.673	43	27
188.536	188.673	48	27
188.536	188.673	51	32
188.718	188.855	43	20
188.718	188.855	48	27
188.718	188.855	51	24
188.9	189.037	43	21
188.9	189.037	48	21
188.9	189.037	51	25
189.082	189.222	43	28
189.082	189.222	48	28
189.082	189.222	51	33
189.082	189.502	60	40
189.269	189.408	43	21
189.269	189.408	48	21
189.269	189.408	51	25
189.455	189.601	43	21
189.455	189.601	48	21
189.455	189.601	51	25
189.502	189.651	63	37
189.651	190.793	31	33
189.651	189.795	43	33
189.651	190.084	55	37
189.651	190.084	67	44
189.843	189.988	43	19
189.843	189.988	48	21
189.843	189.988	51	23
190.036	190.18	43	19
190.036	190.18	48	19
190.036	190.18	51	24
190.228	190.37	43	22
190.228	190.37	48	22
190.228	190.37	51	26
190.228	190.652	55	37
190.228	190.652	67	43
190.417	190.558	43	24
190.417	190.558	48	24
190.417	190.558	51	28
190.605	190.746	43	24
190.605	190.746	48	24
190.605	190.746	51	29
190.793	190.929	43	33
190.793	190.929	48	33
190.793	190.929	51	39
190.793	191.203	55	42
190.793	191.203	67	50
190.975	191.112	43	24
190.975	191.112	48	34
190.975	191.112	51	31
191.157	191.294	43	28
191.157	191.294	48	28
191.157	191.294	51	34
191.339	191.479	43	39
191.339	191.479	48	39
191.339	191.479	51	46
191.339	191.758	55	47
191.339	191.758	67	56
191.526	191.665	43	31
191.526	191.665	48	31
191.526	191.665	51	36
191.712	191.895	43	31
191.712	191.895	48	31
191.712	191.895	51	37
191.963	193.183	29	55
191.963	192.159	41	55
191.963	193.183	53	60
191.963	193.183	65	73
192.159	192.354	41	28
192.159	192.354	48	32
192.159	192.354	51	35
192.354	192.549	41	28
192.354	192.549	48	28
192.354	192.549	51	35
192.549	192.737	41	32
192.549	192.737	48	32
192.549	192.737	51	37
192.737	192.925	41	32
192.737	192.925	48	32
192.737	192.925	51	37
192.925	193.183	41	32
192.925	193.183	48	32
192.925	193.183	51	37
193.183	194.337	30	55
193.183	193.378	42	55
193.183	194.337	54	60
193.183	194.337	66	73
193.378	193.574	42	28
193.378	193.574	48	32
193.378	193.574	51	35
193.574	193.769	42	28
193.574	193.769	48	28
193.574	193.769	51	35
193.769	193.958	42	32
193.769	193.958	48	32
193.769	193.958	51	37
193.958	194.148	42	32
193.958	194.148	48	32
193.958	194.148	51	37
194.148	194.337	42	32
194.148	194.337	48	32
194.148	194.337	51	37
194.337	196.044	43	48
194.337	196.044	47	48
194.337	196.044	50	48
194.337	194.48	55	39
194.337	194.48	67	39
194.527	194.669	55	22
194.527	194.669	67	27
194.717	194.859	55	22
194.717	194.859	67	27
194.906	195.048	55	25
194.906	195.048	67	30
195.096	195.238	55	25
195.096	195.238	67	30
195.285	195.427	55	25
195.285	195.427	67	30
195.475	195.617	55	32
195.475	195.617	67	38
195.664	195.807	55	24
195.664	195.807	67	28
195.854	195.996	55	25
195.854	195.996	67	30
196.044	196.457	47	35
196.044	196.181	55	33
196.044	196.181	67	39
196.227	196.365	55	25
196.227	196.365	67	30
196.411	196.549	55	25
196.411	196.549	67	30
196.457	196.595	48	30
196.595	196.991	50	40
196.595	196.736	55	39
196.595	196.736	67	39
196.783	196.924	55	22
196.783	196.924	67	27
196.971	197.113	55	22
196.971	197.113	67	27
197.16	197.543	50	33
197.16	197.296	55	25
197.16	197.296	67	30
197.342	197.478	55	25
197.342	197.478	67	30
197.524	197.66	55	25
197.524	197.66	67	30
197.706	198.089	50	33
197.706	197.842	55	32
197.706	197.842	67	38
197.888	198.024	55	24
197.888	198.024	67	28
198.07	198.206	55	25
198.07	198.206	67	30
198.252	198.666	48	36
198.252	198.39	55	33
198.252	198.39	67	39
198.436	198.574	55	25
198.436	198.574	67	30
198.62	198.758	55	25
198.62	198.758	67	30
198.666	198.804	50	37
198.804	199.631	51	42
198.804	198.941	55	39
198.804	198.941	67	39
198.987	199.125	55	22
198.987	199.125	67	27
199.171	199.309	55	22
199.171	199.309	67	27
199.355	199.493	55	25
199.355	199.493	67	30
199.539	199.677	55	25
199.539	199.677	67	30
199.631	199.907	50	35
199.723	199.861	55	25
199.723	199.861	67	30
199.907	200.459	48	31
199.907	200.045	55	32
199.907	200.045	67	38
200.091	200.229	55	24
200.091	200.229	67	28
200.275	200.413	55	25
200.275	200.413	67	30
200.459	200.866	46	39
200.459	200.594	55	33
200.459	200.594	67	39
200.64	200.775	55	25
200.64	200.775	67	30
200.821	200.961	53	25
200.821	200.961	65	30
200.866	201.008	44	33
201.008	201.56	43	36
201.008	201.192	55	39
201.008	201.192	60	39
201.008	201.192	63	39
201.008	201.192	67	39
201.192	201.376	55	22
201.192	201.376	60	22
201.192	201.376	63	22
201.192	201.376	67	27
201.376	201.56	55	22
201.376	201.56	60	22
201.376	201.56	63	22
201.376	201.56	67	27
201.56	202.112	43	36
201.56	201.744	55	25
201.56	201.744	60	22
201.56	201.744	63	22
201.56	201.744	67	30
201.744	201.928	55	25
201.744	201.928	60	22
201.744	201.928	63	22
201.744	201.928	67	30
201.928	202.112	55	25
201.928	202.124	60	22
201.928	202.124	63	22
201.928	202.112	67	30
202.112	202.663	43	36
202.112	202.296	55	32
202.112	202.296	59	32
202.112	202.296	62	32
202.112	202.296	67	38
202.296	202.479	55	24
202.296	202.479	59	32
202.296	202.479	62	32
202.296	202.479	67	28
202.479	202.663	55	25
202.479	202.663	59	32
202.479	202.663	62	32
202.479	202.663	67	30
202.663	203.215	43	36
202.663	202.847	55	33
202.663	202.847	59	33
202.663	202.847	62	33
202.663	202.847	67	39
202.847	203.031	55	25
202.847	203.031	59	25
202.847	203.031	62	25
202.847	203.031	67	30
203.031	203.215	55	25
203.031	203.215	59	25
203.031	203.215	62	25
203.031	203.215	67	30
203.215	204.339	48	48
203.215	203.357	55	39
203.215	203.357	60	39
203.215	203.357	63	39
203.215	203.357	67	39
203.405	203.547	55	22
203.405	203.547	67	27
203.594	203.736	55	22
203.594	203.736	67	27
203.784	203.923	55	28
203.784	203.923	67	34
203.969	204.108	55	29
203.969	204.108	67	35
204.154	204.293	55	30
204.154	204.293	67	36
204.339	204.478	55	40
204.339	204.478	67	48
204.524	204.663	55	32
204.524	204.663	67	36
204.71	204.849	55	34
204.71	204.849	67	41
204.895	205.309	35	42
204.895	205.309	47	50
204.895	205.033	55	47
204.895	205.033	67	56
205.079	205.217	55	36
205.079	205.217	67	43
205.263	205.401	55	37
205.263	205.401	67	44
205.309	205.447	36	37
205.309	205.447	48	44
205.447	206.011	38	51
205.447	206.011	50	62
205.447	205.635	55	59
205.447	205.635	67	59
205.635	205.823	55	33
205.635	205.823	67	41
205.823	206.011	55	33
205.823	206.011	67	41
206.011	206.557	38	42
206.011	206.557	50	50
206.011	206.193	55	37
206.011	206.193	67	46
206.193	206.375	55	37
206.193	206.375	67	46
206.375	206.557	55	37
206.375	206.557	67	46
206.557	207.125	38	42
206.557	207.125	50	50
206.557	206.694	55	49
206.557	206.694	67	58
206.739	206.921	55	36
206.739	206.921	67	42
206.921	207.125	55	37
206.921	207.125	67	46
207.103	207.683	36	50
207.103	207.683	48	59
207.103	207.287	56	55
207.103	207.287	68	65
207.287	207.471	56	42
207.287	207.471	68	52
207.471	207.683	56	44
207.471	207.683	68	55
207.517	207.683	38	57
207.517	207.683	50	67
207.675	208.8	39	63
207.675	208.8	51	76
207.675	207.858	55	70
207.675	207.858	67	70
207.858	208.042	55	40
207.858	208.042	67	50
208.042	208.225	55	40
208.042	208.225	67	50
208.225	208.409	55	46
208.225	208.409	67	55
208.409	208.592	55	44
208.409	208.592	67	55
208.5	208.8	38	54
208.5	208.8	50	64
208.592	208.776	55	44
208.592	208.776	67	54
208.776	209.895	36	46
208.776	209.895	48	55
208.776	208.959	55	57
208.776	208.959	67	69
208.959	209.143	55	42
208.959	209.143	67	49
209.143	209.326	55	42
209.143	209.326	67	52
209.326	209.895	34	57
209.326	209.895	46	67
209.326	209.507	55	57
209.326	209.507	67	67
209.507	209.876	55	42
209.507	209.876	67	51
209.688	209.895	53	41
209.688	209.895	65	50
209.733	209.895	32	46
209.733	209.895	44	55
209.876	210.427	31	46
209.876	210.427	43	55
209.876	210.06	55	59
209.876	210.06	60	59
209.876	210.06	63	59
209.876	210.06	67	59
210.06	210.244	55	33
210.06	210.244	60	33
210.06	210.244	63	33
210.06	210.244	67	41
210.244	210.427	55	33
210.244	210.427	60	33
210.244	210.427	63	33
210.244	210.427	67	41
210.427	210.968	31	46
210.427	210.968	43	55
210.427	210.608	55	37
210.427	210.608	60	33
210.427	210.608	63	33
210.427	210.608	67	46
210.608	210.788	55	37
210.608	210.788	60	33
210.608	210.788	63	33
210.608	210.788	67	46
210.788	210.968	55	37
210.788	210.98	60	33
210.788	210.98	63	33
210.788	210.968	67	46
210.968	211.509	31	46
210.968	211.509	43	55
210.968	211.148	55	49
210.968	211.148	59	49
210.968	211.148	62	49
210.968	211.148	67	58
211.148	211.328	55	36
211.148	211.328	59	49
211.148	211.328	62	49
211.148	211.328	67	42
211.328	211.509	55	37
211.328	211.509	59	49
211.328	211.509	62	49
211.328	211.509	67	46
211.509	212.139	31	46
211.509	212.139	43	55
211.509	211.691	55	50
211.509	211.691	59	50
211.509	211.691	62	50
211.509	211.691	67	59
211.691	211.874	55	37
211.691	211.874	59	37
211.691	211.874	62	37
211.691	211.874	67	46
211.874	212.078	55	37
211.874	212.139	59	37
211.874	212.139	62	37
211.874	212.078	67	46
212.078	212.261	36	40
212.078	212.261	48	40
212.078	212.261	55	40
212.078	213.174	60	40
212.078	213.174	63	40
212.078	213.174	67	48
212.261	212.444	55	31
212.444	212.626	55	31
212.626	212.809	55	31
212.809	212.991	55	29
212.991	213.174	55	29
213.174	213.311	55	29
213.357	213.494	55	28
213.539	213.676	55	28
213.722	213.86	55	31
213.722	214.136	71	44
213.906	214.044	55	30
214.09	214.228	55	30
214.136	214.274	72	38
214.274	214.415	55	31
214.274	214.67	74	51
214.462	214.603	55	27
214.65	214.791	55	27
214.838	214.975	55	31
214.838	215.248	65	35
214.838	215.222	74	42
215.02	215.157	55	28
215.202	215.339	55	28
215.384	215.521	55	31
215.384	215.794	68	35
215.384	215.768	74	42
215.566	215.703	55	31
215.748	215.885	55	31
215.93	216.068	55	31
215.93	216.344	72	46
216.114	216.252	55	31
216.298	216.436	55	32
216.344	216.482	74	47
216.482	216.62	55	40
216.482	217.31	75	53
216.666	216.804	55	31
216.85	216.988	55	26
217.034	217.172	55	33
217.034	217.585	63	39
217.218	217.355	55	29
217.31	217.585	74	44
217.401	217.539	55	26
217.585	217.723	55	33
217.585	218.137	67	33
217.585	218.137	72	39
217.769	217.907	55	30
217.953	218.091	55	29
218.137	218.273	55	33
218.137	218.544	74	49
218.318	218.454	55	30
218.499	218.639	55	30
218.544	218.687	72	42
218.687	218.825	55	31
218.687	219.238	71	46
218.871	219.009	55	28
219.055	219.192	55	28
219.238	219.376	55	31
219.238	219.79	65	37
219.238	219.652	69	44
219.422	219.56	55	28
219.606	219.744	55	31
219.652	219.79	71	36
219.79	219.931	55	36
219.79	220.358	63	37
219.79	220.358	72	48
219.978	220.119	55	29
220.166	220.31	55	29
220.358	220.498	55	36
220.358	220.926	60	37
220.358	220.778	74	43
220.545	220.685	55	31
220.731	220.876	55	31
220.778	220.926	75	44
220.926	221.074	55	37
220.926	221.074	68	47
220.926	222.646	74	51
221.074	222.646	67	43
221.123	221.271	55	29
221.321	221.469	55	29
221.515	221.654	55	44
221.701	221.841	55	37
221.887	222.028	55	39
222.075	222.217	55	53
222.264	222.407	55	39
222.454	222.598	55	40
222.646	222.829	55	52
222.646	223.216	59	52
222.646	223.216	67	52
222.646	223.209	71	62
222.829	223.013	55	45
223.013	223.209	55	52
223.059	223.216	60	50
223.059	223.216	69	50
223.059	223.216	72	60
223.209	223.389	55	59
223.209	223.75	62	61
223.209	223.75	71	61
223.209	223.75	74	73
223.389	223.57	55	47
223.57	223.75	55	47
223.75	223.933	54	52
223.75	223.933	55	52
223.75	224.299	62	55
223.75	224.299	71	55
223.75	224.299	74	66
223.933	224.116	54	43
223.933	224.116	55	43
224.116	224.317	54	43
224.116	224.299	55	43
224.299	224.481	53	54
224.299	224.481	55	54
224.299	224.857	62	55
224.299	224.857	71	55
224.299	224.857	74	66
224.481	224.663	53	45
224.481	224.663	55	45
224.663	224.857	53	45
224.663	224.845	55	45
224.845	225.408	51	53
224.845	225.029	55	53
224.845	225.408	60	63
224.845	225.258	67	64
224.845	225.408	72	66
225.029	225.408	50	43
225.029	225.212	55	43
225.212	225.408	48	44
225.212	225.408	55	44
225.258	225.408	62	55
225.258	225.408	67	55
225.258	225.408	74	67
225.408	225.592	48	57
225.408	225.592	55	57
225.408	226.511	63	64
225.408	226.496	67	64
225.408	226.511	75	75
225.592	225.772	48	45
225.592	225.772	55	45
225.772	225.965	48	45
225.772	225.948	55	45
225.948	226.131	46	54
225.948	226.131	55	54
226.131	226.313	46	45
226.131	226.313	55	45
226.313	226.511	46	45
226.313	226.496	55	45
226.359	226.511	62	69
226.359	226.511	74	69
226.496	226.678	45	55
226.496	226.678	55	55
226.496	227.094	60	60
226.496	227.094	67	64
226.496	227.094	72	76
226.678	226.871	45	43
226.678	226.871	55	43
226.871	227.094	45	43
226.871	227.094	55	43
227.074	227.257	44	52
227.074	227.257	54	52
227.074	227.628	62	58
227.074	227.652	66	58
227.074	227.652	74	69
227.257	227.44	44	43
227.257	227.44	54	43
227.44	227.652	44	42
227.44	227.652	54	42
227.485	227.652	72	60
227.628	227.813	43	54
227.628	227.813	53	54
227.628	228.183	62	55
227.628	228.196	65	55
227.628	228.183	71	66
227.813	227.998	43	45
227.813	227.998	53	45
227.998	228.183	43	45
227.998	228.196	53	45
228.183	228.367	41	54
228.183	228.367	43	54
228.183	228.748	62	52
228.183	228.734	67	52
228.183	228.748	71	62
228.367	228.55	41	43
228.367	228.55	43	43
228.55	228.748	41	43
228.55	228.734	43	43
228.596	228.748	68	51
228.734	228.922	39	55
228.734	228.922	43	55
228.734	229.328	60	57
228.734	229.328	67	59
228.734	229.328	72	73
228.922	229.116	39	43
228.922	229.116	43	43
229.116	229.328	39	43
229.116	229.317	43	43
229.317	229.506	31	57
229.317	229.506	43	57
229.317	229.896	65	64
229.317	229.896	71	64
229.317	229.896	75	75
229.506	229.694	31	43
229.506	229.694	43	43
229.694	229.896	31	43
229.694	229.896	43	43
229.742	229.896	74	62
229.89	230.087	36	40
229.89	230.087	48	40
229.89	231.666	63	61
229.89	231.666	72	73
230.087	230.235	55	31
230.284	230.432	55	31
230.482	230.63	55	31
230.679	230.827	55	29
230.877	231.025	55	29
231.074	231.222	55	29
231.271	231.419	55	28
231.469	231.617	55	28
231.666	231.804	55	31
231.666	232.08	74	44
231.85	231.988	55	30
232.034	232.172	55	30
232.08	232.218	75	38
232.218	232.358	56	31
232.218	232.777	77	51
232.404	232.544	56	27
232.591	232.73	56	27
232.777	232.915	57	31
232.777	233.328	65	35
232.777	233.328	77	42
232.961	233.099	57	28
233.145	233.282	57	28
233.328	233.465	58	31
233.328	233.874	68	35
233.328	233.874	77	42
233.51	233.647	58	31
233.692	233.829	58	31
233.874	234.012	58	31
233.874	234.288	75	46
234.058	234.196	58	31
234.242	234.38	58	32
234.288	234.426	74	47
234.426	234.564	58	40
234.426	235.253	79	53
234.61	234.748	58	31
234.794	234.932	58	26
234.978	235.115	59	33
234.978	235.391	67	50
235.161	235.299	59	29
235.253	235.529	77	44
235.345	235.483	59	26
235.391	235.529	68	53
235.529	235.669	60	33
235.529	236.088	75	39
235.716	235.855	55	30
235.902	236.042	55	29
236.088	236.224	55	33
236.088	236.496	74	49
236.269	236.405	55	30
236.45	236.591	55	30
236.496	236.638	72	42
236.638	236.776	55	31
236.638	237.19	71	46
236.822	236.96	55	28
237.006	237.144	55	28
237.19	237.328	55	31
237.19	237.466	68	41
237.19	237.741	71	44
237.374	237.512	55	28
237.466	237.741	67	40
237.557	237.695	55	31
237.741	237.885	55	36
237.741	238.029	65	41
237.741	238.317	72	48
237.933	238.077	55	29
238.029	238.317	63	41
238.125	238.269	55	29
238.317	238.456	55	36
238.317	238.596	62	41
238.317	238.736	77	43
238.503	238.643	55	31
238.596	238.884	60	41
238.689	238.835	55	31
238.736	238.884	75	44
238.884	239.032	55	37
238.884	239.032	68	41
238.884	240.66	74	51
239.032	240.66	67	47
239.081	239.229	55	29
239.279	239.427	55	29
239.476	239.624	55	42
239.674	239.822	55	35
239.871	240.019	55	37
240.068	240.266	55	49
240.266	240.463	56	36
240.463	240.66	57	36
240.66	240.844	58	52
240.66	241.212	74	62
240.844	241.028	58	45
241.028	241.212	58	52
241.074	241.212	75	60
241.212	241.396	58	59
241.212	241.764	65	61
241.212	241.764	74	61
241.212	241.764	77	73
241.396	241.58	58	47
241.58	241.764	58	47
241.764	241.948	57	44
241.764	241.948	58	52
241.764	242.316	65	50
241.764	242.316	74	50
241.764	242.316	77	60
241.948	242.132	57	36
241.948	242.132	58	43
242.132	242.329	57	36
242.132	242.316	58	43
242.316	242.497	56	45
242.316	242.497	58	54
242.316	242.881	65	50
242.316	242.881	74	50
242.316	242.881	77	60
242.497	242.679	56	38
242.497	242.679	58	45
242.679	242.881	56	38
242.679	242.861	58	45
242.861	243.045	55	45
242.861	243.045	58	53
242.861	243.413	67	63
242.861	243.413	75	63
242.861	243.413	79	63
243.045	243.413	55	36
243.045	243.229	58	43
243.229	243.413	53	37
243.229	243.413	56	37
243.229	243.413	58	44
243.275	243.413	68	55
243.275	243.413	77	55
243.275	243.413	80	67
243.413	243.597	51	48
243.413	243.597	55	57
243.413	243.597	58	57
243.413	243.958	70	64
243.413	243.958	79	64
243.413	243.958	82	75
243.597	243.775	51	38
243.597	243.775	55	45
243.597	243.775	58	45
243.775	243.958	51	38
243.775	243.958	55	45
243.775	243.958	58	45
243.948	244.13	47	45
243.948	244.13	53	45
243.948	244.13	56	54
243.948	244.508	68	69
243.948	244.508	80	69
244.13	244.313	47	38
244.13	244.313	53	45
244.13	244.313	56	45
244.313	244.508	47	38
244.313	244.508	53	45
244.313	244.508	56	45
244.495	244.678	48	46
244.495	244.678	51	46
244.495	244.678	55	55
244.495	245.057	75	64
244.495	245.057	79	76
244.678	244.861	48	36
244.678	244.861	51	36
244.678	244.861	55	43
244.861	245.057	48	36
244.861	245.057	51	36
244.861	245.057	55	43
245.043	245.405	44	44
245.043	245.224	53	52
245.043	245.593	65	58
245.043	245.63	77	69
245.224	245.63	46	36
245.224	245.405	53	43
245.405	245.63	44	35
245.405	245.593	53	42
245.451	245.63	74	60
245.593	245.961	43	47
245.593	245.777	53	56
245.593	246.145	62	55
245.593	246.167	65	55
245.593	246.145	71	66
245.777	246.167	44	40
245.777	245.961	53	47
245.961	246.145	43	40
245.961	246.167	53	48
246.145	246.513	41	48
246.145	246.329	43	58
246.145	246.711	62	52
246.145	246.697	67	52
246.145	246.711	71	62
246.329	246.513	43	47
246.513	246.711	41	39
246.513	246.697	43	47
246.559	246.711	68	51
246.697	247.072	39	51
246.697	246.884	43	61
246.697	247.303	60	57
246.697	247.303	67	59
246.697	247.303	72	73
246.884	247.303	41	41
246.884	247.072	43	49
247.072	247.303	39	41
247.072	247.288	43	49
247.288	247.665	31	55
247.288	247.476	43	66
247.288	247.86	65	64
247.288	247.86	71	64
247.288	247.86	75	75
247.476	247.86	32	42
247.476	247.665	43	50
247.665	247.86	31	42
247.665	247.86	43	51
247.712	247.86	74	62
247.86	248.058	36	53
247.86	248.058	43	53
247.86	248.058	48	63
247.86	249.614	63	64
247.86	249.614	72	76
248.058	248.255	50	60
248.255	248.452	48	60
248.452	248.647	46	68
248.647	248.841	48	62
248.841	249.036	46	62
249.036	249.229	44	73
249.036	249.229	48	62
249.229	249.421	46	63
249.229	249.421	48	53
249.421	249.614	44	64
249.421	249.614	48	54
249.614	250.003	43	78
249.614	249.808	48	65
249.614	249.808	60	72
249.614	249.808	72	86
249.808	250.235	44	65
249.808	250.003	48	55
249.808	250.003	60	72
249.808	250.003	72	86
250.003	250.235	43	65
250.003	250.235	48	55
250.003	250.235	60	72
250.003	250.235	72	86
250.235	250.432	41	79
250.235	250.432	48	66
250.235	251.994	72	79
250.235	251.994	74	79
250.235	251.994	80	79
250.235	251.994	84	94
250.432	250.629	43	65
250.432	250.629	48	55
250.629	250.827	41	65
250.629	250.827	48	55
250.827	251.023	44	78
250.827	251.023	48	65
251.023	251.22	46	65
251.023	251.22	48	55
251.22	251.416	44	65
251.22	251.416	48	55
251.416	251.609	43	73
251.416	251.609	48	62
251.609	251.801	44	65
251.609	251.801	48	55
251.801	251.994	43	65
251.801	251.994	48	55
251.994	252.381	41	74
251.994	252.188	48	63
251.994	252.188	60	71
251.994	252.188	72	83
252.188	252.598	43	65
252.188	252.381	48	55
252.188	252.381	60	71
252.188	252.381	72	83
252.381	252.598	41	65
252.381	252.598	48	55
252.381	252.598	60	71
252.381	252.598	72	83
252.598	252.79	39	79
252.598	252.79	48	66
252.598	254.32	72	80
252.598	254.32	75	80
252.598	254.32	79	80
252.598	254.32	84	95
252.79	252.983	41	65
252.79	252.983	48	55
252.983	253.176	39	65
252.983	253.176	48	55
253.176	253.366	43	77
253.176	253.366	48	64
253.366	253.557	44	65
253.366	253.557	48	55
253.557	253.748	43	65
253.557	253.748	48	55
253.748	253.939	41	75
253.748	253.939	48	64
253.939	254.13	43	65
253.939	254.13	48	55
254.13	254.32	41	65
254.13	254.32	48	55
254.32	254.71	39	74
254.32	254.515	48	63
254.32	254.515	60	71
254.32	254.515	72	83
254.515	254.945	41	66
254.515	254.71	48	56
254.515	254.71	60	71
254.515	254.71	72	83
254.71	254.945	39	66
254.71	254.945	48	56
254.71	254.945	60	71
254.71	254.945	72	83
254.945	255.138	37	75
254.945	255.138	44	64
254.945	255.523	61	77
254.945	255.523	65	77
254.945	255.523	73	90
255.138	255.331	39	64
255.138	255.331	44	54
255.331	255.523	36	64
255.331	255.523	44	54
255.523	255.718	37	72
255.523	255.718	44	60
255.523	255.961	65	74
255.523	255.961	77	88
255.718	255.912	39	63
255.718	255.912	44	52
255.912	256.107	41	63
255.912	256.107	44	52
255.961	256.107	68	66
255.961	256.107	80	79
256.107	256.702	31	62
256.107	256.305	43	73
256.107	256.702	67	75
256.107	256.727	72	75
256.107	256.727	75	75
256.107	256.702	79	89
256.305	256.504	43	65
256.504	256.702	43	60
256.702	257.312	31	59
256.702	256.905	43	71
256.702	257.312	67	71
256.702	257.312	71	71
256.702	257.312	74	71
256.702	257.312	79	83
256.905	257.109	43	63
257.109	257.312	43	63
257.312	257.51	36	53
257.312	257.51	43	53
257.312	257.51	48	63
257.312	259.066	60	64
257.312	259.066	63	64
257.312	259.066	67	64
257.312	259.066	72	76
257.51	257.707	51	60
257.707	257.904	50	60
257.904	258.099	48	68
258.099	258.293	50	62
258.293	258.488	48	62
258.488	258.681	47	73
258.681	258.873	48	63
258.873	259.066	47	64
259.066	259.455	46	78
259.066	259.26	60	72
259.066	259.26	72	86
259.26	259.687	48	65
259.26	259.455	60	72
259.26	259.455	72	86
259.455	259.687	46	65
259.455	259.687	60	72
259.455	259.687	72	86
259.687	259.884	45	79
259.687	259.884	48	66
259.687	261.446	72	79
259.687	261.446	74	79
259.687	261.446	84	94
259.884	260.081	46	65
259.884	260.081	48	55
260.081	260.279	45	65
260.081	260.279	48	55
260.279	260.475	44	78
260.279	260.475	48	65
260.475	260.672	46	65
260.475	260.672	48	55
260.672	260.868	44	65
260.672	260.868	48	55
260.868	261.061	43	73
260.868	261.061	48	62
261.061	261.253	44	65
261.061	261.253	48	55
261.253	261.446	43	65
261.253	261.446	48	55
261.446	261.833	41	74
261.446	261.639	48	63
261.446	261.639	60	71
261.446	261.639	72	83
261.639	262.05	43	65
261.639	261.833	48	55
261.639	261.833	60	71
261.639	261.833	72	83
261.833	262.05	41	65
261.833	262.05	48	55
261.833	262.05	60	71
261.833	262.05	72	83
262.05	262.242	40	79
262.05	262.242	48	66
262.05	263.772	72	80
262.05	263.772	79	80
262.05	263.772	84	95
262.242	262.435	41	65
262.242	262.435	48	55
262.435	262.628	40	65
262.435	262.628	48	55
262.628	262.818	39	77
262.628	262.818	48	64
262.818	263.009	41	65
262.818	263.009	48	55
263.009	263.2	39	65
263.009	263.2	48	55
263.2	263.391	38	75
263.2	263.391	48	64
263.391	263.582	39	65
263.391	263.582	48	55
263.582	263.772	38	65
263.582	263.772	48	55
263.772	264.397	36	74
263.772	263.967	48	63
263.772	263.967	60	71
263.772	263.967	72	83
263.967	264.397	38	66
263.967	264.161	48	56
263.967	264.161	60	71
263.967	264.161	72	83
264.161	264.397	39	66
264.161	264.397	48	56
264.161	264.397	60	71
264.161	264.397	72	83
264.397	264.59	41	75
264.397	264.59	44	64
264.397	264.975	61	77
264.397	264.975	65	77
264.397	264.975	73	90
264.59	264.782	39	64
264.59	264.782	44	54
264.782	264.963	37	64
264.782	264.963	44	54
264.975	265.17	37	72
264.975	265.17	44	60
264.975	265.413	65	74
264.975	265.413	77	88
265.17	265.364	39	63
265.17	265.364	44	52
265.364	265.559	41	63
265.364	265.559	44	52
265.413	265.559	68	66
265.413	265.559	80	79
265.559	266.154	31	62
265.559	265.757	43	73
265.559	266.154	67	75
265.559	266.179	72	75
265.559	266.179	75	75
265.559	266.154	79	89
265.757	265.955	43	65
265.955	266.154	43	60
266.154	266.764	31	59
266.154	266.357	43	71
266.154	266.764	67	71
266.154	266.764	71	71
266.154	266.764	74	71
266.154	266.764	79	83
266.357	266.561	43	63
266.561	266.764	43	63
266.764	266.912	36	74
266.764	266.912	48	62
266.764	268.518	60	64
266.764	268.518	63	64
266.764	268.518	67	64
266.764	268.518	72	76
266.961	267.11	36	67
266.961	267.11	48	56
267.159	267.307	36	67
267.159	267.307	48	56
267.356	267.502	38	74
267.356	267.502	48	62
267.551	267.697	38	69
267.551	267.697	48	58
267.745	267.891	38	65
267.745	267.891	48	55
267.94	268.084	39	74
267.94	268.084	48	62
268.132	268.277	39	67
268.132	268.277	48	56
268.325	268.47	39	67
268.325	268.47	48	56
268.518	268.664	40	73
268.518	268.664	48	62
268.518	268.664	60	68
268.518	268.664	72	57
268.712	268.858	40	66
268.712	268.858	48	56
268.712	268.858	60	63
268.712	268.858	72	53
268.907	269.053	40	66
268.907	269.053	48	56
268.907	269.053	60	63
268.907	269.053	72	53
269.101	269.245	41	72
269.101	269.245	48	61
269.101	269.245	61	62
269.101	269.245	72	52
269.294	269.438	41	68
269.294	269.438	48	57
269.294	269.438	61	55
269.294	269.438	72	46
269.486	269.63	41	68
269.486	269.63	48	57
269.486	269.63	61	55
269.486	269.63	72	46
269.678	269.824	42	69
269.678	269.824	46	58
269.678	269.824	62	58
269.678	269.824	72	49
269.873	270.019	42	63
269.873	270.019	46	53
269.873	270.019	62	50
269.873	270.019	72	42
270.067	270.213	42	63
270.067	270.213	46	53
270.067	270.213	62	50
270.067	270.213	72	42
270.262	270.406	43	66
270.262	270.406	48	56
270.262	270.406	63	55
270.262	270.406	72	46
270.454	270.599	43	60
270.454	270.599	48	51
270.454	270.599	63	50
270.454	270.599	72	42
270.647	270.791	43	66
270.647	270.791	48	56
270.647	270.791	63	54
270.647	270.791	72	45
270.84	270.982	44	69
270.84	270.982	48	61
270.84	270.982	64	54
270.84	270.982	72	49
271.029	271.171	44	57
271.029	271.171	48	48
271.029	271.171	64	44
271.029	271.171	72	37
271.219	271.361	44	57
271.219	271.361	48	48
271.219	271.361	64	44
271.219	271.361	72	37
271.408	271.55	44	55
271.408	271.55	48	46
271.408	271.55	64	47
271.408	271.55	72	39
271.597	271.739	44	54
271.597	271.739	48	42
271.597	271.739	64	37
271.597	271.739	72	31
271.786	271.927	44	53
271.786	271.927	48	41
271.786	271.927	64	37
271.786	271.927	72	31
271.974	272.116	44	53
271.974	272.116	48	45
271.974	272.116	64	46
271.974	272.116	72	38
272.163	272.305	44	47
272.163	272.305	48	40
272.163	272.305	64	37
272.163	272.305	72	30
272.352	272.493	44	46
272.352	272.493	48	39
272.352	272.493	64	36
272.352	272.493	72	30
272.54	272.683	44	51
272.54	272.683	48	43
272.54	272.683	65	45
272.54	272.683	72	38
272.731	272.874	44	46
272.731	272.874	48	39
272.731	272.874	65	36
272.731	272.874	72	29
272.921	273.064	44	46
272.921	273.064	48	39
272.921	273.064	65	35
272.921	273.064	72	29
273.112	273.253	45	31
273.112	273.253	48	37
273.112	273.253	63	31
273.112	273.253	66	31
273.112	273.253	72	37
273.301	273.442	45	26
273.301	273.442	48	31
273.301	273.442	63	26
273.301	273.442	66	26
273.301	273.442	72	31
273.489	273.631	45	26
273.489	273.631	48	31
273.489	273.631	63	26
273.489	273.631	66	26
273.489	273.631	72	31
273.678	273.819	45	34
273.678	273.819	48	40
273.678	273.819	63	31
273.678	273.819	66	31
273.678	273.819	72	37
273.866	274.007	45	27
273.866	274.007	50	32
273.866	274.007	62	27
273.866	274.007	66	27
273.866	274.007	72	32
274.054	274.194	45	28
274.054	274.194	50	33
274.054	274.194	62	27
274.054	274.194	66	27
274.054	274.194	72	32
274.241	274.382	45	31
274.241	274.382	50	37
274.241	274.382	62	31
274.241	274.382	66	31
274.241	274.382	72	37
274.428	274.568	45	28
274.428	274.568	50	33
274.428	274.568	62	26
274.428	274.568	66	26
274.428	274.568	72	31
274.615	274.755	45	28
274.615	274.755	50	33
274.615	274.755	62	26
274.615	274.755	66	26
274.615	274.755	72	31
274.802	274.944	46	32
274.802	274.944	50	38
274.802	274.944	62	31
274.802	274.944	67	31
274.802	274.944	72	37
274.991	275.132	46	28
274.991	275.132	50	34
274.991	275.132	62	27
274.991	275.132	67	27
274.991	275.132	72	32
275.179	275.321	46	28
275.179	275.321	50	34
275.179	275.321	62	27
275.179	275.321	67	27
275.179	275.321	72	32
275.368	275.512	46	31
275.368	275.512	50	37
275.368	275.512	62	31
275.368	275.512	67	31
275.368	275.512	70	37
275.559	275.703	46	28
275.559	275.703	50	33
275.559	275.703	62	27
275.559	275.703	67	27
275.559	275.703	70	32
275.751	275.894	46	28
275.751	275.894	50	33
275.751	275.894	62	27
275.751	275.894	67	27
275.751	275.894	70	32
275.942	276.082	48	31
275.942	276.082	51	37
275.942	276.082	60	31
275.942	276.082	63	31
275.942	276.082	70	37
276.129	276.269	48	27
276.129	276.269	51	32
276.129	276.269	60	26
276.129	276.269	63	26
276.129	276.269	70	31
276.316	276.456	48	27
276.316	276.456	51	32
276.316	276.456	60	26
276.316	276.456	63	26
276.316	276.456	70	31
276.503	276.645	48	31
276.503	276.645	51	37
276.503	276.645	60	31
276.503	276.645	63	31
276.503	276.645	69	37
276.693	276.835	48	26
276.693	276.835	51	31
276.693	276.835	60	27
276.693	276.835	63	27
276.693	276.835	69	32
276.882	277.024	48	26
276.882	277.024	51	31
276.882	277.024	60	27
276.882	277.024	63	27
276.882	277.024	69	32
277.072	277.213	50	37
277.072	277.213	58	31
277.072	277.213	62	31
277.072	277.213	67	37
277.26	277.402	50	32
277.26	277.402	58	26
277.26	277.402	62	26
277.26	277.402	67	31
277.449	277.591	50	32
277.449	277.591	58	26
277.449	277.591	62	26
277.449	277.591	67	31
277.638	277.783	50	37
277.638	277.783	57	31
277.638	277.783	62	31
277.638	277.783	66	37
277.831	277.976	50	32
277.831	277.976	57	27
277.831	277.976	62	27
277.831	277.976	66	32
278.024	278.169	50	32
278.024	278.169	57	27
278.024	278.169	62	27
278.024	278.169	66	32
278.217	279.367	43	31
278.217	278.362	50	37
278.217	279.367	58	31
278.217	279.367	62	31
278.217	279.367	67	37
278.411	278.556	50	29
278.604	278.748	50	29
278.796	278.94	50	32
278.987	279.13	50	29
279.178	279.32	50	29
279.367	279.508	50	31
279.555	279.696	50	29
279.743	279.885	50	29
279.932	280.07	50	32
279.932	280.346	67	39
280.116	280.254	50	29
280.3	280.448	50	29
280.346	280.5	70	39
280.5	281.064	74	44
280.641	280.796	62	29
280.782	280.923	43	32
280.782	280.937	67	30
280.923	281.064	70	28
281.064	281.61	74	40
281.2	281.351	62	28
281.337	281.474	43	32
281.337	281.487	67	30
281.474	281.61	70	28
281.61	282.156	74	45
281.747	281.897	62	27
281.883	282.02	38	36
281.883	282.033	66	30
282.02	282.156	69	28
282.156	282.722	74	46
282.294	282.446	62	27
282.432	282.577	43	32
282.432	282.591	67	30
282.577	282.722	70	26
282.722	283.822	75	51
282.859	283.01	63	31
282.996	283.133	36	38
282.996	283.147	67	33
283.133	283.283	72	31
283.269	283.419	66	36
283.405	283.555	72	27
283.541	283.679	36	35
283.541	283.694	69	30
283.679	283.822	66	27
283.822	284.926	74	41
283.96	284.112	62	27
284.098	284.236	43	37
284.098	284.25	67	30
284.236	284.387	70	26
284.374	284.523	62	30
284.509	284.659	70	28
284.645	284.783	43	32
284.645	284.797	67	30
284.783	284.926	62	27
284.926	286.02	72	50
285.063	285.214	60	28
285.2	285.337	44	36
285.2	285.351	63	30
285.337	285.488	66	28
285.474	285.622	60	30
285.609	285.756	66	30
285.743	285.879	45	32
285.743	285.893	63	30
285.879	286.02	60	27
286.02	287.119	70	45
286.157	286.307	58	27
286.293	286.43	46	32
286.293	286.443	62	30
286.43	286.58	67	27
286.566	286.716	58	30
286.702	286.851	67	28
286.838	286.976	50	32
286.838	286.99	62	30
286.976	287.119	58	28
287.119	287.672	69	50
287.257	287.407	57	28
287.394	287.529	51	39
287.394	287.544	60	30
287.529	287.672	67	28
287.672	288.216	72	46
287.811	287.96	63	29
287.946	288.081	48	32
287.946	288.095	67	30
288.081	288.216	69	28
288.216	288.773	70	49
288.356	288.509	58	27
288.495	288.634	50	32
288.495	288.648	62	30
288.634	288.773	67	27
288.773	289.337	69	45
288.914	289.069	60	26
289.055	289.196	38	32
289.055	289.21	62	30
289.196	289.337	66	27
289.337	291.041	67	50
289.482	289.642	55	28
289.628	289.773	43	30
289.628	289.787	58	32
289.773	289.932	62	34
289.918	290.059	45	37
289.918	290.073	63	35
290.059	290.214	60	37
290.2	290.341	48	40
290.2	290.355	57	39
290.341	290.496	63	44
290.482	290.622	50	44
290.482	290.636	62	44
290.622	290.776	58	33
290.762	290.902	55	35
290.762	290.916	62	37
290.902	291.055	66	28
291.041	291.181	50	39
291.041	291.195	67	34
291.181	291.335	62	26
291.321	291.461	46	32
291.321	291.475	67	30
291.461	291.6	70	26
291.6	292.165	74	44
291.742	291.897	62	29
291.883	292.024	43	32
291.883	292.038	67	30
292.024	292.165	70	28
292.165	292.711	74	40
292.301	292.452	62	28
292.438	292.575	43	32
292.438	292.588	67	30
292.575	292.711	70	28
292.711	293.251	74	45
292.848	292.997	62	27
292.984	293.117	38	36
292.984	293.131	66	30
293.117	293.251	69	28
293.251	293.816	74	46
293.389	293.541	62	27
293.527	293.672	43	32
293.527	293.686	67	30
293.672	293.816	70	26
293.816	294.92	75	51
293.954	294.105	63	31
294.091	294.228	36	38
294.091	294.242	67	33
294.228	294.379	72	31
294.365	294.516	69	41
294.502	294.652	72	33
294.638	294.777	41	43
294.638	294.792	69	41
294.777	294.92	65	34
294.92	296.021	74	57
295.058	295.21	62	34
295.196	295.334	34	45
295.196	295.348	65	40
295.334	295.485	70	33
295.472	295.62	65	41
295.606	295.755	70	28
295.741	295.878	46	43
295.741	295.893	65	35
295.878	296.021	62	27
296.021	297.112	72	60
296.158	296.309	60	35
296.295	296.43	45	50
296.295	296.444	63	39
296.43	296.579	69	28
296.566	296.713	66	40
296.7	296.848	69	27
296.834	296.971	38	42
296.834	296.985	66	30
296.971	297.112	62	27
297.112	298.207	70	45
297.249	297.399	58	27
297.385	297.52	43	42
297.385	297.533	62	30
297.52	297.668	67	27
297.654	297.803	58	30
297.79	297.938	67	28
297.925	298.063	31	41
297.925	298.077	62	30
298.063	298.207	58	28
298.207	298.759	67	50
298.344	298.495	63	28
298.481	298.616	39	39
298.481	298.631	62	30
298.616	298.759	60	28
298.759	299.296	75	46
298.898	299.044	63	29
299.031	299.164	36	32
299.031	299.177	67	30
299.164	299.296	72	28
299.296	299.842	74	49
299.433	299.583	62	27
299.569	299.705	41	32
299.569	299.719	65	30
299.705	299.842	70	27
299.842	300.406	72	45
299.983	300.138	63	26
300.124	300.265	29	32
300.124	300.279	65	30
300.265	300.406	69	27
300.406	302.11	70	50
300.551	300.711	58	28
300.696	300.842	46	30
300.696	300.856	62	32
300.842	301.001	65	34
300.987	301.128	48	37
300.987	301.142	66	35
301.128	301.283	63	37
301.269	301.41	51	40
301.269	301.424	60	39
301.41	301.565	66	44
301.551	301.691	50	44
301.551	301.705	65	44
301.691	301.845	62	33
301.831	301.97	58	35
301.831	301.984	65	37
301.97	302.124	69	34
302.11	302.25	53	39
302.11	302.264	70	40
302.25	302.404	65	43
302.39	302.53	50	32
302.39	302.544	70	46
302.53	302.669	74	49
302.669	303.231	46	44
302.669	303.231	65	41
302.669	303.231	77	55
302.81	303.091	50	36
302.95	303.502	53	36
303.091	303.367	50	36
303.231	303.79	46	45
303.231	303.79	65	44
303.231	303.79	77	54
303.367	303.637	50	38
303.502	303.79	53	38
303.637	303.79	50	46
303.772	303.907	45	55
303.772	304.325	66	54
303.772	304.325	78	64
303.907	304.175	48	46
304.041	304.325	50	47
304.175	304.325	48	50
304.308	304.851	43	60
304.308	304.851	67	60
304.308	304.851	79	72
304.443	304.712	48	52
304.578	304.851	50	49
304.712	304.851	48	50
304.846	305.382	42	72
304.846	305.395	69	61
304.846	305.395	81	75
304.98	305.248	48	55
305.114	305.395	50	59
305.248	305.395	48	59
305.382	305.941	42	68
305.382	305.941	72	64
305.382	305.941	84	78
305.519	305.792	45	53
305.655	305.941	50	53
305.792	305.941	45	53
305.928	306.066	43	63
305.928	306.494	70	63
305.928	306.494	82	77
306.066	306.342	46	48
306.204	306.494	50	48
306.342	306.494	46	48
306.48	306.618	48	48
306.48	307.043	69	49
306.48	307.043	81	58
306.618	306.894	51	35
306.756	307.043	57	35
306.894	307.043	51	36
306.894	307.043	67	42
306.894	307.043	79	51
307.039	307.606	50	50
307.039	307.606	66	49
307.039	307.606	78	58
307.18	307.464	57	39
307.322	307.884	60	39
307.464	307.745	57	39
307.606	308.162	50	47
307.606	308.177	66	46
307.606	308.177	78	55
307.745	308.023	57	39
307.884	308.177	60	39
308.023	308.177	57	39
308.162	308.709	50	47
308.162	309.285	67	45
308.162	309.285	79	53
308.299	308.572	57	40
308.435	308.991	60	40
308.435	308.991	66	37
308.435	308.991	78	45
308.572	308.85	57	40
308.709	309.291	50	44
308.709	309.291	64	38
308.709	309.291	76	46
308.85	309.132	57	36
308.991	309.291	60	36
308.991	309.291	66	37
308.991	309.291	78	45
309.132	309.291	57	36
309.285	309.43	55	44
309.285	310.443	67	40
309.285	310.443	79	48
309.43	310.443	58	37
309.574	310.004	55	37
309.719	310.145	50	37
309.863	310.286	46	44
310.004	310.443	55	38
310.145	310.443	50	38
310.286	310.443	46	38
310.427	310.568	43	44
310.568	311.559	67	53
310.71	311.13	70	55
310.851	311.268	74	57
310.992	311.559	43	58
310.992	311.559	55	69
310.992	311.406	79	59
311.13	311.559	70	61
311.268	311.559	74	63
311.406	311.559	46	51
311.406	311.559	58	61
311.406	311.559	79	65
311.559	311.98	50	62
311.559	311.98	62	74
311.84	311.98	69	63
311.84	311.98	74	63
311.84	311.98	78	74
312.121	312.53	50	56
312.121	312.53	62	67
312.394	312.53	72	63
312.394	312.53	74	63
312.394	312.53	81	74
312.667	313.076	50	58
312.667	313.076	62	69
312.94	313.076	70	63
312.94	313.076	74	63
312.94	313.076	79	74
313.213	313.632	50	57
313.213	313.632	62	68
313.489	313.632	69	63
313.489	313.632	74	63
313.489	313.632	78	74
313.776	314.873	51	63
313.776	314.873	63	75
314.051	314.188	67	65
314.051	314.188	74	65
314.051	314.188	79	78
314.325	314.457	67	66
314.325	314.457	72	66
314.325	314.457	79	79
314.592	314.73	73	71
314.592	314.73	79	71
314.592	314.73	85	83
314.873	315.974	50	61
314.873	315.974	62	72
315.149	315.287	74	71
315.149	315.287	79	71
315.149	315.287	81	83
315.149	315.287	86	83
315.425	315.556	74	69
315.425	315.556	78	69
315.425	315.556	81	69
315.425	315.556	86	81
315.693	315.832	66	66
315.693	315.832	69	66
315.693	315.832	74	79
315.974	317.063	48	63
315.974	317.063	60	75
316.248	316.386	63	63
316.248	316.386	70	63
316.248	316.386	75	74
316.523	316.653	63	69
316.523	316.653	69	69
316.523	316.653	75	81
316.786	316.921	69	63
316.786	316.921	75	63
316.786	316.921	81	74
317.063	318.158	46	57
317.063	318.158	58	68
317.336	317.472	70	63
317.336	317.472	75	63
317.336	317.472	77	63
317.336	317.472	82	74
317.609	317.743	70	66
317.609	317.743	74	66
317.609	317.743	77	66
317.609	317.743	82	79
317.877	318.015	62	63
317.877	318.015	65	63
317.877	318.015	70	74
318.158	318.696	45	57
318.158	318.696	57	68
318.423	318.56	63	63
318.423	318.56	67	63
318.423	318.56	72	74
318.696	319.233	48	56
318.696	319.233	60	66
318.961	319.097	66	63
318.961	319.097	69	63
318.961	319.097	75	74
319.233	319.789	46	62
319.233	319.789	58	73
319.511	319.65	67	65
319.511	319.65	70	65
319.511	319.65	74	78
319.789	320.351	45	45
319.789	320.351	57	64
320.07	320.211	72	66
320.07	320.211	74	66
320.07	320.211	78	79
320.351	322.025	43	51
320.351	322.025	55	72
320.64	320.917	70	69
320.64	320.917	74	69
320.64	321.492	79	81
320.917	321.195	62	67
320.917	321.474	70	67
320.917	321.492	74	80
321.195	321.474	62	65
321.195	321.492	69	65
321.195	321.492	72	78
321.474	322.592	62	64
321.474	321.749	67	64
321.474	321.749	70	64
321.749	322.301	67	63
321.749	322.025	70	63
321.749	322.025	74	74
322.025	322.592	43	69
322.025	322.592	55	69
322.025	322.301	70	63
322.025	322.301	74	63
322.025	322.592	79	74
322.301	322.592	67	63
322.301	322.592	70	63
322.301	322.592	74	74
322.439	322.592	46	61
322.439	322.592	58	61
322.592	323.015	50	74
322.592	322.988	62	74
322.874	323.015	66	63
322.874	323.015	69	63
322.874	323.015	74	74
323.156	323.558	50	55
323.156	323.558	62	67
323.421	323.558	72	63
323.421	323.558	74	63
323.421	323.558	81	74
323.694	324.097	50	58
323.694	324.097	62	69
323.961	324.097	70	63
323.961	324.097	74	63
323.961	324.097	79	74
324.233	324.653	50	57
324.233	324.653	62	68
324.509	324.653	69	63
324.509	324.653	74	63
324.509	324.653	78	74
324.805	325.923	51	63
324.805	325.923	63	75
325.086	325.226	67	65
325.086	325.226	74	65
325.086	325.226	79	78
325.366	325.501	67	66
325.366	325.501	72	66
325.366	325.501	79	79
325.64	325.78	73	71
325.64	325.78	79	71
325.64	325.78	85	83
325.923	327.029	50	60
325.923	327.029	62	72
326.198	326.336	74	71
326.198	326.336	79	71
326.198	326.336	81	83
326.198	326.336	86	83
326.474	326.605	74	69
326.474	326.605	77	69
326.474	326.605	81	69
326.474	326.605	86	81
326.743	326.88	65	66
326.743	326.88	69	66
326.743	326.88	74	79
327.029	328.122	48	63
327.029	328.122	60	75
327.303	327.44	63	63
327.303	327.44	70	63
327.303	327.44	75	74
327.577	327.707	63	69
327.577	327.707	69	69
327.577	327.707	75	81
327.843	327.981	69	63
327.843	327.981	75	63
327.843	327.981	81	74
328.122	328.937	46	57
328.122	328.937	58	68
328.395	328.532	70	63
328.395	328.532	75	63
328.395	328.532	77	63
328.395	328.532	82	74
328.669	328.803	70	66
328.669	328.803	74	66
328.669	328.803	77	66
328.669	328.803	82	79
328.937	329.212	45	60
328.937	329.212	57	66
328.937	329.071	65	63
328.937	329.071	72	74
329.212	329.751	43	60
329.212	329.751	55	70
329.478	329.615	63	63
329.478	329.615	70	63
329.478	329.615	75	74
329.751	330.303	51	55
329.751	330.303	63	66
330.026	330.163	67	63
330.026	330.163	70	63
330.026	330.163	72	74
330.303	330.85	50	56
330.303	330.85	62	67
330.572	330.711	65	65
330.572	330.711	70	65
330.572	330.711	77	78
330.85	331.425	48	50
330.85	331.425	60	60
331.132	331.273	69	50
331.132	331.273	75	66
331.132	331.273	77	66
331.132	331.273	81	79
331.425	333.131	46	60
331.425	333.131	58	70
331.714	331.997	70	69
331.714	331.997	75	69
331.714	331.997	77	69
331.714	331.997	82	81
331.997	332.281	70	67
331.997	332.281	74	67
331.997	332.281	77	67
331.997	332.281	82	80
332.281	332.564	70	65
332.281	332.564	74	65
332.281	332.564	77	78
332.564	332.848	65	54
332.564	332.848	70	54
332.564	332.848	74	64
332.848	333.131	62	53
332.848	333.131	65	53
332.848	333.131	70	63
333.131	333.707	58	46
333.131	333.707	70	55
333.557	333.707	62	46
333.557	333.707	74	55
333.707	333.847	46	44
333.707	334.268	65	41
333.707	334.268	77	55
333.847	334.128	50	36
333.988	334.542	53	36
334.128	334.405	50	36
334.268	334.833	46	45
334.268	334.833	65	44
334.268	334.833	77	54
334.405	334.678	50	38
334.542	334.833	53	38
334.678	334.833	50	46
334.815	334.951	45	54
334.815	335.378	66	53
334.815	335.378	78	63
334.951	335.224	48	45
335.088	335.378	50	45
335.224	335.378	48	48
335.361	335.917	43	57
335.361	335.917	67	57
335.361	335.917	79	68
335.499	335.774	48	49
335.637	335.917	50	46
335.774	335.917	48	46
335.912	336.459	42	66
335.912	336.471	69	58
335.912	336.471	81	71
336.049	336.322	48	50
336.186	336.471	50	54
336.322	336.471	48	54
336.459	337.017	42	62
336.459	337.017	72	60
336.459	337.017	84	72
336.595	336.868	45	49
336.732	337.017	50	49
336.868	337.017	45	49
337.005	337.143	43	58
337.005	337.57	70	58
337.005	337.57	82	70
337.143	337.418	46	44
337.28	337.57	50	44
337.418	337.57	46	44
337.556	337.694	48	48
337.556	338.12	69	49
337.556	338.12	81	58
337.694	337.97	51	35
337.832	338.12	57	35
337.97	338.12	51	36
337.97	338.12	67	42
337.97	338.12	79	51
338.115	338.682	50	50
338.115	338.682	66	49
338.115	338.682	78	58
338.257	338.541	57	39
338.399	338.961	60	39
338.541	338.821	57	39
338.682	339.239	50	47
338.682	339.254	66	46
338.682	339.254	78	55
338.821	339.1	57	39
338.961	339.254	60	39
339.1	339.254	57	39
339.239	339.785	50	47
339.239	340.362	67	45
339.239	340.362	79	53
339.375	339.649	57	40
339.512	340.067	60	40
339.512	340.067	66	37
339.512	340.067	78	45
339.649	339.926	57	40
339.785	340.37	50	44
339.785	340.37	64	38
339.785	340.37	76	46
339.926	340.208	57	36
340.067	340.37	60	36
340.067	340.37	66	37
340.067	340.37	78	45
340.208	340.37	57	36
340.362	341.504	43	33
340.362	341.504	67	40
340.362	341.504	79	48
340.554	340.747	50	19
340.554	340.747	55	19
340.554	340.747	59	23
340.747	340.94	50	19
340.747	340.94	55	19
340.747	340.94	59	23
340.94	341.128	50	21
340.94	341.128	55	21
340.94	341.128	59	25
341.128	341.316	50	21
341.128	341.316	55	21
341.128	341.316	59	25
341.316	341.504	50	21
341.316	341.504	55	21
341.316	341.504	59	25
341.504	341.641	50	27
341.504	341.641	55	27
341.504	341.641	59	32
341.504	341.791	72	53
341.686	341.823	50	20
341.686	341.823	55	20
341.686	341.823	59	24
341.777	342.064	71	53
341.868	342.005	50	21
341.868	342.005	55	21
341.868	342.005	59	25
342.05	342.19	50	28
342.05	342.19	55	28
342.05	342.19	59	33
342.05	342.344	70	53
342.237	342.376	50	21
342.237	342.376	55	21
342.237	342.376	59	25
342.33	342.596	71	53
342.423	342.554	50	21
342.423	342.554	55	21
342.423	342.554	59	25
342.596	343.722	36	33
342.596	343.722	71	48
342.73	343.722	76	48
342.777	342.967	48	19
342.777	342.967	52	19
342.777	342.967	59	23
342.967	343.157	48	19
342.967	343.157	52	19
342.967	343.722	59	23
343.157	343.345	48	25
343.157	343.345	52	25
343.157	343.345	56	30
343.345	343.533	48	21
343.345	343.533	52	21
343.345	343.533	56	25
343.533	343.722	48	21
343.533	343.722	52	21
343.533	343.722	56	25
343.722	343.858	48	27
343.722	343.858	52	27
343.722	343.858	57	32
343.722	344.008	71	53
343.904	344.04	48	20
343.904	344.04	52	20
343.904	344.04	57	24
343.995	344.282	69	53
344.086	344.222	48	21
344.086	344.222	52	21
344.086	344.222	57	25
344.268	344.408	48	28
344.268	344.408	52	28
344.268	344.408	57	33
344.268	344.561	68	53
344.454	344.594	48	21
344.454	344.594	52	21
344.454	344.594	57	25
344.548	344.816	69	53
344.641	344.773	48	21
344.641	344.773	52	21
344.641	344.773	57	25
344.816	345.962	35	33
344.816	345.962	69	48
344.947	345.962	74	48
344.995	345.188	47	19
344.995	345.188	50	19
344.995	345.188	57	23
345.188	345.38	47	19
345.188	345.38	50	19
345.188	345.962	57	23
345.38	345.568	47	25
345.38	345.568	50	25
345.38	345.568	54	30
345.568	345.757	47	21
345.568	345.757	50	21
345.568	345.757	54	25
345.757	345.945	47	21
345.757	345.945	50	21
345.757	345.962	54	25
345.945	346.081	47	29
345.945	346.081	50	29
345.945	346.081	55	35
345.945	346.231	72	58
346.127	346.263	47	22
346.127	346.263	50	22
346.127	346.263	55	27
346.218	346.505	71	60
346.309	346.445	47	24
346.309	346.445	50	24
346.309	346.445	55	29
346.491	346.631	47	33
346.491	346.631	50	33
346.491	346.631	55	39
346.491	346.785	69	63
346.677	346.817	47	25
346.677	346.817	50	25
346.677	346.817	55	30
346.771	347.065	67	66
346.864	347.014	47	26
346.864	347.014	50	26
346.864	347.014	55	31
347.065	347.606	36	42
347.065	347.606	66	57
347.065	347.606	74	68
347.244	347.423	48	25
347.244	347.423	52	30
347.334	347.606	64	56
347.334	347.606	72	66
347.423	347.602	48	26
347.423	347.602	52	31
347.602	347.784	48	33
347.602	347.784	52	39
347.602	348.187	62	53
347.602	348.187	71	63
347.784	347.966	48	24
347.784	347.966	52	29
347.875	348.187	60	51
347.875	348.187	69	60
347.966	348.187	48	23
347.966	348.187	52	28
348.166	348.74	38	36
348.166	348.756	59	49
348.166	348.756	67	58
348.349	348.531	50	21
348.349	348.531	55	26
348.531	348.756	50	22
348.531	348.756	55	26
348.74	349.322	38	34
348.74	349.322	62	55
348.74	349.322	71	55
348.926	349.112	50	21
348.926	349.112	54	26
349.112	349.322	50	21
349.112	349.322	54	25
349.159	349.322	60	54
349.159	349.322	69	54
349.314	350.456	43	33
349.314	349.506	59	40
349.314	350.456	67	48
349.506	349.699	50	19
349.506	349.699	55	19
349.506	349.699	59	23
349.699	349.892	50	19
349.699	349.892	55	19
349.699	349.892	59	23
349.892	350.08	50	21
349.892	350.08	55	21
349.892	350.08	59	25
350.08	350.268	50	21
350.08	350.268	55	21
350.08	350.268	59	25
350.268	350.456	50	21
350.268	350.456	55	21
350.268	350.456	59	25
350.456	350.593	50	27
350.456	350.593	55	27
350.456	350.593	59	32
350.456	350.743	72	53
350.638	350.775	50	20
350.638	350.775	55	20
350.638	350.775	59	24
350.729	351.016	71	53
350.82	350.957	50	21
350.82	350.957	55	21
350.82	350.957	59	25
351.002	351.142	50	28
351.002	351.142	55	28
351.002	351.142	59	33
351.002	351.296	70	53
351.189	351.329	50	21
351.189	351.329	55	21
351.189	351.329	59	25
351.282	351.571	71	53
351.375	351.521	50	21
351.375	351.521	55	21
351.375	351.521	59	25
351.571	351.712	36	33
351.571	352.703	76	48
351.571	351.868	83	53
351.759	351.902	48	19
351.759	351.902	52	19
351.759	351.902	59	23
351.854	352.153	81	53
351.949	352.092	48	19
351.949	352.092	52	19
351.949	352.092	59	23
352.139	352.28	48	25
352.139	352.28	52	25
352.139	352.28	59	30
352.139	352.435	80	53
352.327	352.468	48	21
352.327	352.468	52	21
352.327	352.468	59	25
352.421	352.703	81	53
352.515	352.656	48	21
352.515	352.656	52	21
352.515	352.656	59	25
352.703	352.84	48	27
352.703	352.84	52	27
352.703	352.84	57	32
352.703	352.99	71	53
352.885	353.022	48	20
352.885	353.022	52	20
352.885	353.022	57	24
352.977	353.264	69	53
353.068	353.204	48	21
353.068	353.204	52	21
353.068	353.204	57	25
353.25	353.389	48	28
353.25	353.389	52	28
353.25	353.389	57	33
353.25	353.543	68	53
353.436	353.576	48	21
353.436	353.576	52	21
353.436	353.576	57	25
353.529	353.813	69	53
353.622	353.765	48	21
353.622	353.765	52	21
353.622	353.765	57	25
353.813	353.955	35	33
353.813	354.952	74	48
353.813	354.099	81	58
354.003	354.147	47	19
354.003	354.147	50	19
354.003	354.147	57	23
354.099	354.388	79	60
354.195	354.34	47	19
354.195	354.34	50	19
354.195	354.34	57	23
354.388	354.529	47	25
354.388	354.529	50	25
354.388	354.529	57	30
354.388	354.67	78	63
354.576	354.717	47	21
354.576	354.717	50	21
354.576	354.717	57	25
354.67	354.952	79	66
354.764	354.905	47	21
354.764	354.905	50	21
354.764	354.905	57	25
354.952	355.089	47	29
354.952	355.089	50	29
354.952	355.089	55	35
354.952	355.239	72	58
355.134	355.271	47	22
355.134	355.271	50	22
355.134	355.271	55	27
355.226	355.513	71	60
355.317	355.453	47	24
355.317	355.453	50	24
355.317	355.453	55	29
355.499	355.638	47	33
355.499	355.638	50	33
355.499	355.638	55	39
355.499	355.792	69	63
355.685	355.825	47	25
355.685	355.825	50	25
355.685	355.825	55	30
355.778	356.073	67	66
355.871	356.021	47	26
355.871	356.021	50	26
355.871	356.021	55	31
356.073	356.614	36	42
356.073	356.614	66	57
356.073	356.61	74	57
356.073	356.614	78	68
356.252	356.431	48	25
356.252	356.431	52	25
356.252	356.431	55	30
356.341	356.614	64	56
356.341	356.614	72	56
356.341	356.614	76	66
356.431	356.61	48	26
356.431	356.61	52	26
356.431	356.614	55	31
356.61	356.792	48	33
356.61	356.792	52	33
356.61	356.792	56	39
356.61	357.195	62	53
356.61	357.174	71	53
356.61	357.195	74	63
356.792	356.974	48	24
356.792	356.974	52	24
356.792	357.195	56	29
356.883	357.195	60	51
356.883	357.195	69	51
356.883	357.195	72	60
356.974	357.195	48	23
356.974	357.195	52	23
356.974	357.195	57	28
357.174	357.747	38	36
357.174	357.764	59	49
357.174	357.764	67	49
357.174	357.764	71	58
357.356	357.538	50	21
357.356	357.538	55	26
357.538	357.764	50	22
357.538	357.764	55	26
357.747	358.322	38	34
357.747	358.322	60	46
357.747	358.322	66	46
357.747	358.322	72	55
357.934	358.12	50	21
357.934	358.12	54	21
357.934	358.12	57	26
358.12	358.322	50	21
358.12	358.322	54	21
358.12	358.322	57	25
358.167	358.322	69	54
358.322	358.89	43	48
358.322	358.89	50	48
358.322	358.511	55	39
358.322	358.464	67	39
358.511	358.701	55	22
358.511	358.653	67	27
358.701	358.89	55	22
358.701	358.843	67	27
358.89	359.032	55	25
358.89	359.032	67	30
359.08	359.222	55	25
359.08	359.222	67	30
359.269	359.412	55	25
359.269	359.412	67	30
359.459	359.601	55	32
359.459	359.601	67	38
359.649	359.791	55	24
359.649	359.791	67	28
359.838	359.98	55	25
359.838	359.98	67	30
360.028	360.442	47	35
360.028	360.166	55	33
360.028	360.166	67	39
360.212	360.35	55	25
360.212	360.35	67	30
360.396	360.533	55	25
360.396	360.533	67	30
360.442	360.579	48	30
360.579	360.976	50	40
360.579	360.721	55	39
360.579	360.721	67	39
360.768	360.909	55	22
360.768	360.909	67	27
360.956	361.097	55	22
360.956	361.097	67	27
361.144	361.527	50	33
361.144	361.28	55	25
361.144	361.28	67	30
361.326	361.463	55	25
361.326	361.463	67	30
361.508	361.645	55	25
361.508	361.645	67	30
361.69	362.073	50	33
361.69	361.827	55	32
361.69	361.827	67	38
361.872	362.009	55	24
361.872	362.009	67	28
362.054	362.191	55	25
362.054	362.191	67	30
362.236	362.65	48	36
362.236	362.374	55	33
362.236	362.374	67	39
362.42	362.558	55	25
362.42	362.558	67	30
362.604	362.742	55	25
362.604	362.742	67	30
362.65	362.788	50	37
362.788	363.615	51	42
362.788	362.926	55	39
362.788	362.926	67	39
362.972	363.11	55	22
362.972	363.11	67	27
363.156	363.293	55	22
363.156	363.293	67	27
363.339	363.477	55	25
363.339	363.477	67	30
363.523	363.661	55	25
363.523	363.661	67	30
363.615	363.891	50	35
363.707	363.845	55	25
363.707	363.845	67	30
363.891	364.443	48	31
363.891	364.029	55	32
363.891	364.029	67	38
364.075	364.213	55	24
364.075	364.213	67	28
364.259	364.397	55	25
364.259	364.397	67	30
364.443	364.85	46	39
364.443	364.579	55	33
364.443	364.579	67	39
364.624	364.76	55	25
364.624	364.76	67	30
364.805	364.945	53	25
364.805	364.945	65	30
364.85	364.993	44	33
364.993	365.544	43	36
364.993	365.176	55	39
364.993	365.176	60	39
364.993	365.176	63	39
364.993	365.176	67	39
365.176	365.36	55	22
365.176	365.36	60	22
365.176	365.36	63	22
365.176	365.36	67	27
365.36	365.544	55	22
365.36	365.544	60	22
365.36	365.544	63	22
365.36	365.544	67	27
365.544	366.096	43	36
365.544	365.728	55	25
365.544	365.728	60	22
365.544	365.728	63	22
365.544	365.728	67	30
365.728	365.912	55	25
365.728	365.912	60	22
365.728	365.912	63	22
365.728	365.912	67	30
365.912	366.096	55	25
365.912	366.109	60	22
365.912	366.109	63	22
365.912	366.096	67	30
366.096	366.648	43	36
366.096	366.28	55	32
366.096	366.28	59	32
366.096	366.28	62	32
366.096	366.28	67	38
366.28	366.464	55	24
366.28	366.464	59	32
366.28	366.464	62	32
366.28	366.464	67	28
366.464	366.648	55	25
366.464	366.648	59	32
366.464	366.648	62	32
366.464	366.648	67	30
366.648	367.199	43	36
366.648	366.831	55	33
366.648	366.831	59	33
366.648	366.831	62	33
366.648	366.831	67	39
366.831	367.015	55	25
366.831	367.015	59	25
366.831	367.015	62	25
366.831	367.015	67	30
367.015	367.199	55	25
367.015	367.199	59	25
367.015	367.199	62	25
367.015	367.199	67	30
367.199	368.324	48	48
367.199	367.341	55	39
367.199	367.341	60	39
367.199	367.341	63	39
367.199	367.341	67	39
367.389	367.531	55	22
367.389	367.531	67	27
367.578	367.721	55	22
367.578	367.721	67	27
367.768	367.907	55	28
367.768	367.907	67	34
367.953	368.092	55	29
367.953	368.092	67	35
368.138	368.277	55	30
368.138	368.277	67	36
368.324	368.462	55	40
368.324	368.462	67	48
368.509	368.648	55	32
368.509	368.648	67	36
368.694	368.833	55	34
368.694	368.833	67	41
368.879	369.293	35	42
368.879	369.293	47	50
368.879	369.017	55	47
368.879	369.017	67	56
369.063	369.201	55	36
369.063	369.201	67	43
369.247	369.385	55	37
369.247	369.385	67	44
369.293	369.431	36	37
369.293	369.431	48	44
369.431	369.995	38	51
369.431	369.995	50	62
369.431	369.619	55	59
369.431	369.619	67	59
369.619	369.807	55	33
369.619	369.807	67	41
369.807	369.995	55	33
369.807	369.995	67	41
369.995	370.541	38	42
369.995	370.541	50	50
369.995	370.177	55	37
369.995	370.177	67	46
370.177	370.359	55	37
370.177	370.359	67	46
370.359	370.541	55	37
370.359	370.541	67	46
370.541	371.109	38	42
370.541	371.109	50	50
370.541	370.678	55	49
370.541	370.678	67	58
370.723	370.905	55	36
370.723	370.905	67	42
370.905	371.109	55	37
370.905	371.109	67	46
371.087	371.667	36	50
371.087	371.667	48	59
371.087	371.271	56	55
371.087	371.271	68	65
371.271	371.455	56	42
371.271	371.455	68	52
371.455	371.667	56	44
371.455	371.667	68	55
371.501	371.667	38	57
371.501	371.667	50	67
371.659	372.784	39	63
371.659	372.784	51	76
371.659	371.842	55	70
371.659	371.842	67	70
371.842	372.026	55	40
371.842	372.026	67	50
372.026	372.209	55	40
372.026	372.209	67	50
372.209	372.393	55	46
372.209	372.393	67	55
372.393	372.576	55	44
372.393	372.576	67	55
372.485	372.784	38	54
372.485	372.784	50	64
372.576	372.76	55	44
372.576	372.76	67	54
372.76	373.88	36	46
372.76	373.88	48	55
372.76	372.943	55	57
372.76	372.943	67	69
372.943	373.127	55	42
372.943	373.127	67	49
373.127	373.31	55	42
373.127	373.31	67	52
373.31	373.88	34	57
373.31	373.88	46	67
373.31	373.491	55	57
373.31	373.491	67	67
373.491	373.86	55	42
373.491	373.86	67	51
373.672	373.88	53	41
373.672	373.88	65	50
373.718	373.88	32	46
373.718	373.88	44	55
373.86	374.412	31	46
373.86	374.412	43	55
373.86	374.044	55	59
373.86	374.044	60	59
373.86	374.044	64	59
373.86	374.044	67	59
374.044	374.228	55	33
374.044	374.228	60	33
374.044	374.228	64	33
374.044	374.228	67	41
374.228	374.412	55	33
374.228	374.412	60	33
374.228	374.412	64	33
374.228	374.412	67	41
374.412	374.952	31	46
374.412	374.952	43	55
374.412	374.592	55	37
374.412	374.592	60	33
374.412	374.592	64	33
374.412	374.592	67	46
374.592	374.772	55	37
374.592	374.772	60	33
374.592	374.772	64	33
374.592	374.772	67	46
374.772	374.952	55	37
374.772	374.965	60	33
374.772	374.965	64	33
374.772	374.952	67	46
374.952	375.493	31	46
374.952	375.493	43	55
374.952	375.132	55	49
374.952	375.132	59	49
374.952	375.132	62	49
374.952	375.132	67	58
375.132	375.313	55	36
375.132	375.313	59	49
375.132	375.313	62	49
375.132	375.313	67	42
375.313	375.493	55	37
375.313	375.493	59	49
375.313	375.493	62	49
375.313	375.493	67	46
375.493	376.123	31	46
375.493	376.123	43	55
375.493	375.675	55	50
375.493	375.675	59	50
375.493	375.675	62	50
375.493	375.675	67	59
375.675	375.858	55	37
375.675	375.858	59	37
375.675	375.858	62	37
375.675	375.858	67	46
375.858	376.062	55	37
375.858	376.123	59	37
375.858	376.123	62	37
375.858	376.062	67	46
376.062	376.245	36	40
376.062	376.245	48	40
376.062	376.245	55	40
376.062	377.158	60	40
376.062	377.158	64	40
376.062	377.158	67	48
376.245	376.428	55	31
376.428	376.61	55	31
376.61	376.793	55	31
376.793	376.976	55	29
376.976	377.158	55	29
377.158	377.295	55	29
377.341	377.478	55	28
377.524	377.661	55	28
377.706	377.844	55	31
377.706	378.12	62	37
377.706	378.12	67	37
377.706	378.12	71	44
377.89	378.028	55	30
378.074	378.212	55	30
378.12	378.258	64	32
378.12	378.258	67	32
378.12	378.258	72	38
378.258	378.399	55	31
378.258	378.681	65	35
378.258	378.681	67	35
378.258	378.654	74	51
378.446	378.587	55	27
378.634	378.775	55	27
378.822	378.959	55	31
378.822	379.232	65	35
378.822	379.232	67	35
378.822	379.206	74	42
379.004	379.141	55	28
379.186	379.323	55	28
379.369	379.505	55	31
379.369	379.778	65	35
379.369	379.778	67	35
379.369	379.752	74	42
379.551	379.687	55	31
379.733	379.869	55	31
379.915	380.052	55	31
379.915	380.328	64	39
379.915	380.328	67	39
379.915	380.328	72	46
380.098	380.236	55	31
380.282	380.42	55	32
380.328	380.466	65	39
380.328	380.466	67	39
380.328	380.466	74	47
380.466	380.604	55	40
380.466	381.294	67	45
380.466	381.294	76	53
380.65	380.788	55	31
380.834	380.972	55	26
381.018	381.156	55	33
381.202	381.34	55	29
381.294	381.57	65	37
381.294	381.57	67	37
381.294	381.57	74	44
381.386	381.524	55	26
381.57	381.707	55	33
381.57	382.121	64	33
381.57	382.121	67	33
381.57	382.121	72	39
381.753	381.891	55	30
381.937	382.075	55	29
382.121	382.257	55	33
382.121	382.529	65	41
382.121	382.529	67	41
382.121	382.529	74	49
382.302	382.438	55	30
382.483	382.623	55	30
382.529	382.671	64	35
382.529	382.671	67	35
382.529	382.671	72	42
382.671	382.809	55	31
382.671	383.223	62	39
382.671	383.223	67	39
382.671	383.223	71	46
382.855	382.993	55	28
383.039	383.177	55	28
383.223	383.361	55	31
383.223	383.636	60	37
383.223	383.636	67	37
383.223	383.636	69	44
383.407	383.544	55	28
383.59	383.728	53	26
383.59	383.728	55	31
383.636	383.774	62	30
383.636	383.774	67	30
383.636	383.774	71	36
383.774	383.915	52	30
383.774	383.915	55	36
383.774	384.343	64	40
383.774	384.343	67	40
383.774	384.343	72	48
383.962	384.103	55	29
384.15	384.294	55	29
384.343	384.482	48	30
384.343	384.482	55	36
384.343	384.762	67	36
384.343	384.762	71	36
384.343	384.762	74	43
384.529	384.669	55	31
384.715	384.861	55	31
384.762	384.91	67	37
384.762	384.91	72	37
384.762	384.91	76	44
384.91	385.058	43	35
384.91	385.058	55	37
384.91	386.63	67	43
384.91	386.63	71	43
384.91	386.63	74	51
385.107	385.255	55	29
385.305	385.453	55	29
385.5	385.639	55	44
385.685	385.825	55	37
385.872	386.012	55	39
386.059	386.201	55	53
386.248	386.391	55	39
386.438	386.582	55	40
386.63	386.814	55	52
386.63	387.201	59	52
386.63	387.201	67	52
386.63	387.193	71	62
386.814	386.998	55	45
386.998	387.193	55	52
387.044	387.201	60	50
387.044	387.201	69	50
387.044	387.201	72	60
387.193	387.373	55	59
387.193	387.734	62	61
387.193	387.734	71	61
387.193	387.734	74	73
387.373	387.554	55	47
387.554	387.734	55	47
387.734	387.913	54	52
387.734	387.913	55	52
387.734	388.27	62	50
387.734	388.27	71	50
387.734	388.27	74	60
387.913	388.091	54	43
387.913	388.091	55	43
388.091	388.288	54	43
388.091	388.27	55	43
388.27	388.448	53	54
388.27	388.448	55	54
388.27	388.84	62	50
388.27	388.84	71	50
388.27	388.84	74	60
388.448	388.627	53	45
388.448	388.627	55	45
388.627	388.84	53	45
388.627	388.827	55	45
388.827	389.011	52	53
388.827	389.011	55	53
388.827	389.39	64	49
388.827	389.39	72	51
388.827	389.39	76	61
389.011	389.39	52	43
389.011	389.195	55	43
389.195	389.39	50	44
389.195	389.39	53	44
389.195	389.39	55	44
389.241	389.39	65	46
389.241	389.39	74	46
389.241	389.39	77	67
389.39	389.574	48	57
389.39	389.574	52	57
389.39	389.574	55	57
389.39	389.947	67	54
389.39	389.947	76	54
389.39	389.947	79	75
389.574	389.754	48	45
389.574	389.754	52	45
389.574	389.754	55	45
389.754	389.947	48	45
389.754	389.947	52	45
389.754	389.947	55	45
389.93	390.113	44	54
389.93	390.113	50	54
389.93	390.113	53	54
389.93	390.493	71	58
389.93	390.493	74	58
389.93	390.493	77	69
390.113	390.296	44	45
390.113	390.296	50	45
390.113	390.296	53	45
390.296	390.493	44	45
390.296	390.493	50	45
390.296	390.493	53	45
390.478	390.661	45	55
390.478	390.661	48	55
390.478	390.661	52	55
390.478	391.076	72	54
390.478	391.076	76	76
390.661	390.854	45	43
390.661	390.854	48	43
390.661	390.854	52	43
390.854	391.076	45	43
390.854	391.076	48	43
390.854	391.076	52	43
391.057	391.634	41	52
391.057	391.468	69	58
391.057	391.634	77	69
391.239	391.422	53	43
391.239	391.422	57	43
391.422	391.634	53	42
391.422	391.634	57	42
391.468	391.61	65	51
391.468	391.634	69	51
391.468	391.634	74	60
391.61	392.166	43	54
391.61	392.166	62	55
391.61	392.166	65	55
391.61	392.166	71	66
391.795	391.981	55	45
391.981	392.349	55	45
392.166	392.716	43	54
392.166	392.716	62	55
392.166	392.716	65	55
392.166	392.716	71	66
392.349	392.533	55	45
392.533	392.904	55	45
392.716	393.31	43	54
392.716	393.31	62	55
392.716	393.31	65	55
392.716	393.31	71	66
392.904	393.098	55	45
393.098	393.299	55	45
393.299	393.488	55	57
393.299	393.724	67	64
393.299	393.878	76	75
393.488	393.677	55	43
393.488	393.878	57	43
393.677	393.872	55	43
393.677	393.878	59	43
393.724	393.878	65	52
393.724	393.872	67	52
393.724	393.878	74	62
393.872	394.069	48	40
393.872	394.069	55	40
393.872	394.069	60	40
393.872	395.056	64	61
393.872	395.056	67	61
393.872	395.056	72	73
394.069	394.217	55	31
394.267	394.415	55	31
394.464	394.612	55	31
394.662	394.81	55	29
394.859	395.007	55	29
395.056	395.204	55	29
395.254	395.402	55	28
395.451	395.599	55	28
395.649	395.786	55	31
395.649	396.062	83	52
395.832	395.97	55	30
396.016	396.154	55	30
396.062	396.2	84	45
396.2	396.34	55	31
396.2	396.759	86	61
396.387	396.526	55	27
396.573	396.713	55	27
396.759	396.897	55	31
396.759	397.311	77	35
396.759	397.311	80	35
396.759	397.311	83	35
396.759	397.311	86	50
396.943	397.081	55	28
397.127	397.265	55	28
397.311	397.447	55	31
397.311	397.857	78	35
397.311	397.857	81	35
397.311	397.857	84	35
397.311	397.857	86	50
397.493	397.629	55	31
397.675	397.811	55	31
397.857	397.994	55	31
397.857	398.408	78	35
397.857	398.408	81	35
397.857	398.27	84	55
398.04	398.178	55	31
398.224	398.362	55	32
398.27	398.408	86	56
398.408	398.546	55	40
398.408	399.236	60	53
398.408	400.071	78	35
398.408	400.071	81	35
398.408	399.236	87	63
398.592	398.73	55	31
398.776	398.914	55	26
398.96	399.098	55	33
399.144	399.282	55	29
399.236	399.512	62	44
399.236	399.512	86	52
399.328	399.466	55	26
399.512	399.651	55	33
399.512	400.071	63	39
399.512	400.071	84	46
399.698	399.838	55	30
399.884	400.024	55	29
400.071	400.206	55	33
400.071	400.62	66	39
400.071	400.62	74	35
400.071	400.62	81	35
400.071	400.478	86	58
400.252	400.387	55	30
400.433	400.573	55	30
400.478	400.62	84	50
400.62	400.758	55	31
400.62	401.172	67	39
400.62	401.172	74	35
400.62	401.172	79	35
400.62	401.172	83	55
400.804	400.942	55	28
400.988	401.126	55	28
401.172	401.31	55	31
401.172	401.724	65	39
401.172	401.724	74	35
401.172	401.724	79	35
401.172	401.586	81	52
401.356	401.494	55	28
401.54	401.678	55	31
401.586	401.724	83	52
401.724	401.868	55	36
401.724	402.299	63	37
401.724	402.299	72	35
401.724	402.299	79	35
401.724	402.299	84	57
401.916	402.059	55	29
402.107	402.251	55	29
402.299	402.439	55	36
402.299	402.866	60	35
402.299	402.866	79	35
402.299	402.718	83	39
402.299	402.718	86	51
402.485	402.625	55	31
402.672	402.817	55	31
402.718	402.866	84	40
402.718	402.866	87	52
402.866	403.014	55	37
402.866	404.051	67	35
402.866	404.643	79	39
402.866	404.643	83	39
402.866	404.643	86	51
403.064	403.212	55	29
403.261	403.409	55	29
403.459	403.607	55	42
403.656	403.804	55	35
403.853	404.001	55	37
404.051	404.248	55	49
404.248	404.445	56	36
404.445	404.643	57	36
404.643	404.781	58	52
404.643	405.057	74	55
404.827	404.965	58	45
405.011	405.149	58	52
405.057	405.195	75	47
405.195	405.332	58	52
405.195	405.582	77	64
405.378	405.516	58	46
405.562	405.7	58	46
405.746	405.884	58	44
405.746	405.884	65	52
405.746	406.16	68	44
405.746	406.16	71	44
405.746	406.16	74	44
405.746	406.134	77	52
405.93	406.068	58	39
405.93	406.068	65	46
406.114	406.252	58	39
406.114	406.252	65	46
406.298	406.427	58	44
406.298	406.427	62	52
406.298	406.685	68	44
406.298	406.685	70	44
406.298	406.66	77	52
406.47	406.599	58	38
406.47	406.599	62	45
406.642	406.771	58	45
406.642	406.771	62	45
406.814	406.935	58	52
406.814	407.395	68	39
406.814	407.395	70	39
406.814	406.875	75	47
406.875	406.935	77	47
406.935	407.228	75	70
406.984	407.13	58	47
407.179	407.339	58	47
407.228	407.395	74	58
407.395	407.536	63	56
407.395	407.94	67	56
407.395	407.94	70	56
407.395	408.353	79	66
407.583	407.721	63	39
407.765	407.896	63	39
407.94	408.077	59	38
407.94	408.077	62	38
407.94	408.077	65	45
407.94	408.491	68	36
407.94	408.491	74	44
408.123	408.261	59	32
408.123	408.261	62	32
408.123	408.261	65	38
408.307	408.445	59	32
408.307	408.445	62	32
408.307	408.445	65	38
408.353	408.491	77	55
408.491	408.629	60	39
408.491	408.629	63	47
408.491	409.042	67	56
408.491	409.042	75	48
408.675	408.813	60	35
408.675	408.813	63	42
408.859	408.996	60	35
408.859	408.996	63	42
409.042	409.178	53	44
409.042	409.178	56	52
409.042	409.45	65	53
409.042	409.592	68	46
409.042	409.45	74	63
409.223	409.359	53	38
409.223	409.359	56	45
409.404	409.545	53	38
409.404	409.545	56	45
409.45	409.592	63	46
409.45	409.592	72	54
409.592	409.73	55	50
409.592	410.144	62	50
409.592	410.144	67	50
409.592	410.144	71	59
409.776	409.914	55	40
409.96	410.098	55	40
410.144	410.282	53	42
410.144	410.282	55	50
410.144	410.695	62	49
410.144	410.695	67	47
410.144	410.558	69	61
410.328	410.466	55	39
410.512	410.649	55	39
410.558	410.695	71	50
410.695	410.836	51	39
410.695	410.836	55	47
410.695	411.259	60	63
410.695	411.259	67	63
410.695	411.259	72	63
410.883	411.024	55	38
411.071	411.212	55	38
411.259	411.856	48	40
411.259	411.447	55	48
411.259	411.83	67	53
411.259	411.856	77	63
411.447	411.635	55	38
411.635	411.83	55	38
411.682	411.856	72	46
411.682	411.856	75	55
411.83	411.978	43	45
411.83	411.978	55	45
411.83	413.549	67	43
411.83	413.549	71	43
411.83	413.549	74	51
412.027	412.175	55	36
412.225	412.373	55	36
412.419	412.558	55	42
412.605	412.745	55	35
412.791	412.932	55	37
412.979	413.121	55	49
413.168	413.311	55	36
413.358	413.502	55	36
413.549	413.733	55	57
413.549	414.12	59	57
413.549	414.12	67	57
413.549	414.112	71	68
413.733	413.917	55	49
413.917	414.112	55	57
413.963	414.12	60	55
413.963	414.12	69	55
413.963	414.12	72	66
414.112	414.299	55	64
414.112	414.667	62	67
414.112	414.667	71	67
414.112	414.667	74	80
414.299	414.484	55	51
414.484	414.667	55	51
414.667	414.848	54	57
414.667	414.848	55	57
414.667	415.205	62	55
414.667	415.205	71	55
414.667	415.205	74	66
414.848	415.028	54	47
414.848	415.028	55	47
415.028	415.223	54	47
415.028	415.205	55	47
415.205	415.751	53	60
415.205	415.383	55	60
415.205	415.751	62	56
415.205	415.751	71	56
415.205	415.751	74	67
415.383	415.751	52	50
415.383	415.561	55	50
415.561	415.751	50	51
415.561	415.739	55	51
415.739	416.347	48	61
415.739	415.923	55	61
415.739	416.347	64	53
415.739	416.347	72	53
415.739	416.347	76	63
415.923	416.347	47	50
415.923	416.107	55	50
416.107	416.347	46	52
416.107	416.347	55	51
416.153	416.347	65	54
416.153	416.347	74	54
416.153	416.347	77	79
416.347	416.534	45	71
416.347	416.534	55	71
416.347	417.455	67	67
416.347	417.44	76	67
416.347	417.455	79	93
416.534	416.715	45	54
416.534	416.715	55	54
416.715	416.892	45	53
416.715	416.892	55	53
416.892	417.074	45	61
416.892	417.074	55	61
417.074	417.257	45	49
417.074	417.257	55	49
417.166	417.455	65	62
417.166	417.455	74	62
417.166	417.455	77	74
417.257	417.44	45	47
417.257	417.44	55	47
417.44	417.622	45	56
417.44	418.583	55	56
417.44	418.583	64	55
417.44	418.583	73	55
417.44	418.583	76	77
417.622	417.81	45	43
417.81	418.004	45	43
418.004	418.197	45	54
418.197	418.39	45	46
418.39	418.583	45	46
418.583	418.724	46	50
418.583	420.831	55	51
418.583	420.831	61	51
418.583	419.697	64	60
418.771	418.955	45	41
418.955	419.134	45	41
419.134	419.321	45	48
419.321	419.509	45	41
419.414	419.715	65	54
419.509	419.697	45	41
419.697	419.886	45	49
419.697	420.831	64	50
419.886	420.074	45	41
420.074	420.262	45	41
420.262	420.452	45	41
420.452	420.641	45	41
420.641	420.831	45	41
420.831	421.018	44	71
420.831	421.939	65	67
420.831	421.924	74	67
420.831	421.939	77	93
421.018	421.2	44	54
421.2	421.376	44	53
421.376	421.559	44	61
421.559	421.741	44	49
421.65	421.939	63	62
421.65	421.939	72	62
421.65	421.939	75	74
421.741	421.924	44	47
421.924	422.107	44	56
421.924	423.067	62	55
421.924	423.067	71	55
421.924	423.067	74	77
422.107	422.295	44	43
422.295	422.488	44	43
422.488	422.681	44	54
422.681	422.874	44	46
422.874	423.067	44	46
423.067	423.633	43	50
423.067	424.763	53	51
423.067	424.763	59	51
423.067	424.182	62	60
423.255	423.439	44	41
423.439	423.618	44	41
423.618	423.805	44	48
423.805	423.993	44	41
423.899	424.199	63	54
423.993	424.182	44	41
424.182	424.37	44	49
424.182	424.763	62	50
424.37	424.559	44	41
424.559	424.763	44	41
424.746	424.936	43	41
424.936	425.125	43	41
425.125	425.315	43	41
425.315	425.456	42	34
425.315	426.437	48	53
425.315	427.576	69	43
425.315	426.437	75	60
425.503	425.644	42	34
425.691	425.831	42	34
425.878	426.018	42	41
426.064	426.204	42	33
426.251	426.39	42	33
426.437	426.576	42	34
426.437	426.995	50	43
426.437	426.995	74	53
426.623	426.762	42	32
426.809	426.948	42	32
426.995	427.135	42	34
426.995	427.576	51	44
426.995	427.576	72	50
427.182	427.322	42	33
427.368	427.524	42	33
427.576	427.715	43	34
427.576	428.711	52	46
427.576	428.711	67	51
427.761	427.9	43	34
427.946	428.085	43	34
428.131	428.27	43	34
428.316	428.455	43	34
428.502	428.659	43	34
428.711	428.852	43	34
428.711	429.848	50	45
428.711	429.848	65	36
428.711	428.993	72	51
428.899	429.04	43	34
428.993	429.274	71	46
429.087	429.227	43	35
429.274	429.415	43	35
429.274	429.556	69	49
429.462	429.603	43	30
429.556	429.848	71	41
429.65	429.799	43	30
429.848	429.989	36	32
429.848	433.215	48	38
429.848	433.215	64	34
429.848	433.803	72	48
430.036	430.177	36	38
430.224	430.364	36	37
430.411	430.55	36	37
430.597	430.735	36	36
430.782	430.921	36	35
430.967	431.107	36	35
431.154	431.294	36	34
431.341	431.481	36	34
431.528	431.669	36	33
431.715	431.856	36	33
431.903	432.044	36	32
432.091	432.23	36	31
432.276	432.415	36	31
432.461	432.6	36	30
432.647	432.786	36	30
432.833	432.972	36	29
433.019	433.166	36	28
433.215	433.803	36	34
433.803	434.217	71	37
434.217	434.355	72	32
434.355	434.751	74	43
434.919	436.023	55	24
434.919	436.023	67	29
434.919	435.313	74	35
435.48	435.861	74	35
436.023	436.299	72	39
436.299	436.59	71	39
436.59	437.408	75	45
437.135	438.251	55	24
437.135	437.953	67	29
437.408	437.681	74	37
437.681	437.953	72	33
437.953	438.251	67	33
438.251	438.527	60	29
438.251	438.527	72	35
438.527	438.818	62	35
438.527	438.818	74	40
438.818	439.382	63	40
438.818	439.382	75	45
439.382	439.667	62	33
439.382	439.667	74	45
439.667	439.953	60	30
439.667	439.953	72	42
439.953	440.399	55	28
439.953	440.399	64	33
439.953	440.399	67	46
440.547	441.016	55	25
440.547	441.016	62	30
440.547	441.016	65	32
440.547	441.016	71	38
441.172	443.047	48	24
441.172	443.047	55	27
441.172	443.047	60	33
441.172	443.047	64	36
441.172	443.047	72	43
443.047	443.461	59	33
443.461	443.599	60	28
443.599	443.995	62	38
444.163	444.557	62	31
444.163	445.27	67	29
444.163	445.27	79	37
444.724	445.107	62	31
445.27	445.691	60	35
445.691	445.837	62	35
445.837	446.655	63	40
446.382	447.498	67	29
446.382	447.498	79	36
446.655	446.928	62	33
446.928	447.201	60	29
447.201	447.498	55	29
447.498	447.774	60	29
447.498	447.774	75	35
447.774	448.065	62	35
447.774	448.065	77	40
448.065	448.629	63	40
448.065	448.347	79	45
448.347	448.629	75	40
448.629	448.914	62	33
448.629	448.914	71	45
448.914	449.2	60	30
448.914	449.2	72	42
449.2	449.646	55	28
449.2	449.646	64	33
449.2	449.646	67	46
449.794	450.263	55	25
449.794	450.263	62	30
449.794	450.263	65	32
449.794	450.263	71	38
450.419	451.669	48	25
450.419	451.669	55	25
450.419	451.669	60	30
450.419	451.669	64	36
450.419	451.669	72	43
451.669	452.115	55	28
451.669	452.115	64	33
451.669	452.115	67	46
452.263	452.732	55	25
452.263	452.732	62	30
452.263	452.732	65	32
452.263	452.732	71	38
452.888	454.138	48	25
452.888	454.138	55	25
452.888	454.138	60	30
452.888	454.138	64	36
452.888	454.138	72	43
454.138	454.732	43	29
454.138	454.732	52	34
454.138	454.732	55	48
454.732	455.381	43	27
454.732	455.381	50	32
454.732	455.381	53	34
454.732	455.381	59	41
455.381	456.76	36	29
455.381	456.76	43	29
455.381	456.76	48	36
455.381	456.76	52	40
455.381	456.76	60	48
456.76	458.279	36	28
456.76	458.279	43	28
456.76	458.279	48	34
456.76	458.279	52	38
456.76	458.279	55	38
456.76	458.279	60	46
458.279	464.588	36	28
458.279	464.588	43	28
458.279	464.588	48	34
458.279	464.588	52	38
458.279	464.588	55	38
458.279	464.588	60	46
