OnsetTime	OffsetTime	MidiPitch	Velocity
0.992995	1.25903	45	38
1.014	1.26202	52	42
1.046	1.16503	57	46
1.067	1.26603	60	49
1.091	1.26702	64	49
1.10901	1.27003	69	54
1.13401	1.27102	72	59
1.14803	1.27102	81	68
1.57002	1.65502	69	54
1.66502	1.78103	69	64
1.78502	1.89601	72	60
1.90001	2.01502	71	64
2.01502	2.12402	69	60
2.12402	2.36204	52	40
2.14901	2.37203	59	43
2.16902	2.27403	64	47
2.19303	2.37602	68	50
2.20401	2.37602	71	51
2.22103	2.37903	76	55
2.23902	2.37903	80	59
2.25703	2.37903	88	66
2.67702	2.76103	64	54
2.77502	2.89003	64	64
2.89102	3.00603	68	60
3.00603	3.12204	66	64
3.12204	3.23303	64	60
3.23402	3.47106	45	37
3.25403	3.48105	52	40
3.27903	3.38406	57	44
3.29605	3.48206	60	47
3.31403	3.48206	64	49
3.33104	3.48505	69	53
3.34905	3.48606	72	57
3.36605	3.48805	81	66
3.78905	3.87005	69	54
3.88105	4.00006	69	64
4.00006	4.11506	72	60
4.11605	4.23406	71	64
4.23807	4.35407	69	60
4.35407	4.5951	52	43
4.37507	4.60911	59	41
4.39608	4.5031	64	46
4.41708	4.60911	68	50
4.43309	4.6121	71	54
4.44409	4.6121	80	57
4.46509	4.61311	88	61
4.48209	4.99011	76	71
4.9941	5.11911	64	69
5.50811	5.74614	45	33
5.53311	5.75613	52	36
5.54712	5.65913	57	37
5.57111	5.75714	60	40
5.58912	5.76113	64	41
5.60613	5.76113	69	45
5.61713	5.76412	72	47
5.63413	5.76412	81	51
6.06512	6.15213	69	40
6.15912	6.27813	69	48
6.28213	6.39813	72	45
6.39813	6.51313	71	48
6.51414	6.62513	69	45
6.62513	6.85915	52	32
6.64613	6.87317	59	35
6.66414	6.77514	64	37
6.68815	6.87317	68	40
6.70616	6.87716	71	40
6.72214	6.87716	76	44
6.74015	6.87815	80	46
6.75015	6.87815	88	49
7.18116	7.26217	64	40
7.27316	7.39217	64	48
7.39217	7.50717	68	45
7.50818	7.62318	66	48
7.62318	7.73719	64	45
7.73819	7.97622	45	32
7.7552	7.98321	52	35
7.7762	7.88122	57	37
7.8012	7.98321	60	40
7.8182	7.98321	64	40
7.8292	7.98422	69	44
7.8462	7.98722	72	46
7.86721	7.98722	81	49
8.29121	8.37421	69	40
8.38121	8.50422	69	48
8.50521	8.62022	72	45
8.62022	8.73522	71	48
8.73623	8.85823	69	45
8.85922	9.09625	52	32
8.87523	9.10624	59	35
8.89723	9.00425	64	37
8.91824	9.11024	68	40
8.93525	9.11124	71	40
8.95323	9.11124	80	46
8.96223	9.11324	88	48
8.98124	9.49124	76	59
9.49124	9.62523	64	59
10.0092	10.2413	45	38
10.0302	10.2483	52	41
10.0482	10.1563	57	45
10.0692	10.2483	61	48
10.0862	10.2483	76	52
10.1073	10.2493	81	56
10.1183	10.2513	85	59
10.1353	10.2513	93	68
10.5423	10.6293	81	54
10.6323	10.7553	81	64
10.7583	10.8672	82	60
10.8672	10.9823	81	64
10.9863	11.0912	79	60
11.0943	11.3323	50	40
11.1153	11.3393	57	42
11.1403	11.2453	62	45
11.1583	11.3403	65	48
11.1753	11.3403	69	51
11.1933	11.3403	77	55
11.2033	11.3433	81	58
11.2213	11.3443	89	68
11.6443	11.7313	74	54
11.7383	11.8543	74	64
11.8543	11.9623	77	60
11.9673	12.0813	76	64
12.0813	12.1973	74	60
12.1973	12.4353	43	39
12.2223	12.4383	50	42
12.2363	12.3473	55	46
12.2593	12.4423	59	50
12.2773	12.4423	74	50
12.2913	12.4463	79	54
12.3053	12.4463	83	58
12.3233	12.4473	91	68
12.7433	12.8273	79	54
12.8413	12.9533	79	64
12.9543	13.0653	81	60
13.0663	13.1773	79	64
13.1773	13.2893	77	60
13.2903	13.5263	48	44
13.3133	13.5313	55	44
13.3343	13.4333	60	47
13.3523	13.5333	64	50
13.3693	13.5343	67	50
13.3803	13.5343	76	54
13.3973	13.5373	79	58
13.4153	13.5383	88	68
13.8383	13.9263	72	54
13.9333	14.0523	72	57
14.0553	14.1713	76	54
14.1713	14.2793	74	56
14.2803	14.3953	72	53
14.3953	14.6334	50	37
14.4133	14.6403	53	39
14.4373	14.5413	59	42
14.4583	14.6403	65	44
14.4783	14.6413	71	44
14.4903	14.6433	77	47
14.5073	14.6433	83	50
14.5243	14.6443	89	59
14.9483	15.0324	71	45
15.0393	15.1544	71	53
15.1584	15.2773	74	50
15.2784	15.3934	72	53
15.3964	15.5114	71	49
15.5124	15.7464	48	36
15.5574	15.6624	60	40
15.5744	15.7604	64	43
15.5924	15.7604	69	41
15.6094	15.7604	76	44
15.6274	15.7644	81	47
15.6444	15.7644	88	54
16.0684	16.1554	69	45
16.1624	16.2784	69	54
16.2794	16.3974	72	50
16.3974	16.5164	71	54
16.5174	16.6604	69	50
16.6604	17.1774	65	58
16.6634	17.1784	53	49
17.0384	17.1814	63	40
17.0384	17.1784	75	45
17.0394	17.1824	57	40
17.1824	17.7514	64	52
17.1844	17.7524	52	45
17.3114	17.4434	76	45
17.4444	17.5734	74	52
17.5744	17.7554	62	37
17.5744	17.7524	71	45
17.5754	17.7554	56	37
17.7554	18.2804	64	51
17.7594	18.2814	60	45
17.7594	18.2804	69	51
17.7614	18.2844	57	45
18.2844	18.4194	81	45
18.2854	18.4204	72	45
18.2874	18.4234	64	37
18.2874	18.4204	69	37
18.8124	19.2604	45	33
18.8434	19.2604	52	36
18.8714	19.2604	57	37
18.9064	19.2604	61	40
18.9244	19.2604	76	41
18.9494	19.2604	81	45
18.9704	19.2604	85	47
18.9944	19.2604	93	51
19.4244	19.4874	81	40
19.4944	19.7404	81	48
19.4954	19.8834	61	30
19.4954	19.8834	64	30
19.4954	19.8834	69	36
19.6144	19.8834	82	45
19.7404	19.8834	81	48
19.8564	19.9744	79	45
19.9744	20.3974	50	33
20.0224	20.3974	57	36
20.0684	20.3974	65	40
20.0864	20.3974	69	41
20.1074	20.3974	77	45
20.1314	20.3974	81	47
20.1564	20.3974	89	51
20.5834	20.6464	74	40
20.6534	21.0664	62	30
20.6534	21.0104	74	48
20.6574	21.0664	65	30
20.6574	21.0664	69	36
20.7724	21.0664	77	45
20.8964	21.0664	76	48
21.0104	21.1294	74	45
21.1304	21.5814	43	33
21.1714	21.5814	50	36
21.2174	21.5814	59	40
21.2414	21.5814	74	41
21.2624	21.5814	79	45
21.2874	21.5814	83	47
21.3114	21.5814	91	51
21.7384	21.8044	79	40
21.8084	22.0574	79	48
21.8114	22.2114	59	30
21.8124	22.2114	62	30
21.8154	22.2114	67	36
21.9314	22.2114	81	45
22.0574	22.2114	79	48
22.1764	22.2904	77	45
22.2914	22.7214	48	33
22.3364	22.7214	55	36
22.3784	22.7214	64	40
22.4034	22.7214	67	41
22.4244	22.7214	76	45
22.4484	22.7214	79	47
22.4734	22.7214	88	51
22.8934	22.9564	72	40
22.9634	23.3234	64	33
22.9634	23.3214	72	52
22.9664	23.3234	67	39
23.0864	23.3234	76	49
23.2054	23.3234	74	52
23.3214	23.4424	72	49
23.4434	23.8874	50	36
23.4814	23.8874	58	40
23.5274	23.8874	65	44
23.5724	23.8874	70	45
23.5934	23.8874	77	49
23.6134	23.8874	89	56
24.0374	24.0974	70	44
24.1004	24.4584	70	52
24.1044	24.4594	62	33
24.1044	24.4594	65	39
24.2204	24.4594	74	49
24.3394	24.4594	72	52
24.4584	24.5734	70	49
24.5734	24.9894	48	36
24.6184	24.9894	60	40
24.6604	24.9894	64	44
24.7064	24.9894	69	45
24.7304	24.9894	76	49
24.7524	24.9894	88	56
25.2074	25.2874	69	42
25.2974	25.6694	69	51
25.2984	25.8194	60	32
25.2984	25.8194	64	38
25.4204	25.8194	72	47
25.5464	25.8194	71	51
25.6694	25.8194	69	47
25.8164	26.3474	65	50
25.8174	26.3514	53	42
26.2044	26.3524	63	38
26.2044	26.3524	75	42
26.2054	26.3544	57	38
26.3544	26.9634	64	49
26.3554	26.9644	52	42
26.4884	26.6344	76	42
26.6354	26.7684	74	49
26.7684	26.9644	71	42
26.7694	26.9674	62	35
26.7714	26.9674	56	35
26.9684	27.5934	64	48
26.9714	27.9084	57	42
26.9714	27.9084	60	42
26.9714	27.5914	69	48
27.5904	27.9084	81	42
27.5914	27.9084	69	35
27.5914	27.9084	72	42
27.5934	27.9084	64	35
28.2624	28.3044	72	46
28.3074	28.3464	81	51
28.3474	28.4624	57	68
28.3474	28.4624	88	65
28.5074	28.6224	84	55
28.6584	28.7804	81	55
28.7634	28.8154	57	54
28.8224	28.9444	76	58
28.8234	28.9454	57	64
28.9454	29.0604	60	60
28.9874	29.0984	72	54
29.0604	29.1824	59	64
29.1404	29.2214	69	54
29.1834	29.3094	57	60
29.2224	29.2633	68	46
29.2643	29.3094	76	51
29.3124	29.4314	83	68
29.3134	29.4314	64	66
29.4694	29.5884	80	60
29.6244	29.7464	76	59
29.7224	29.7774	52	54
29.7844	29.9074	71	58
29.7854	29.9084	52	64
29.9084	30.0234	55	60
29.9464	30.0653	68	50
30.0234	30.1453	54	64
30.1033	30.1833	64	50
30.1463	30.2683	52	60
30.1873	30.2253	72	46
30.2293	30.2693	81	51
30.2693	30.3903	88	65
30.2713	30.6143	45	43
30.2713	30.3483	57	68
30.3063	30.6213	52	46
30.3523	30.5263	57	50
30.3903	30.6213	60	54
30.4283	30.5513	84	55
30.5863	30.7093	81	55
30.6843	30.7443	57	54
30.7503	30.8663	76	58
30.7513	30.8673	57	64
30.8673	30.9893	60	60
30.9053	31.0273	72	54
30.9893	31.1043	59	64
31.0653	31.2053	69	54
31.1053	31.2583	57	60
31.2583	31.8633	64	68
31.4433	31.5983	68	55
31.4483	31.5983	76	55
31.6503	31.8113	71	52
31.6503	31.8123	80	52
31.8643	32.0283	76	49
31.8643	32.0283	88	49
31.8673	32.0293	52	52
32.3743	32.4173	72	36
32.4173	32.4553	81	40
32.4563	32.5783	88	52
32.4583	32.5793	57	54
32.6163	32.7313	84	44
32.7703	32.8933	81	44
32.8683	32.9243	57	43
32.9313	33.0473	57	51
32.9313	33.0473	76	46
33.0513	33.1693	60	48
33.0883	33.2083	72	43
33.1703	33.2913	59	51
33.2503	33.3413	69	43
33.2923	33.4383	57	48
33.3413	33.3823	68	36
33.3833	33.4393	76	40
33.4393	33.5543	83	54
33.4403	33.5543	64	52
33.5933	33.7083	80	48
33.7503	33.8663	76	47
33.8483	33.9083	52	43
33.9083	34.0263	71	46
33.9093	34.0273	52	51
34.0303	34.1533	55	48
34.0683	34.1913	68	41
34.1543	34.2683	54	51
34.2263	34.3213	64	40
34.2683	34.4183	52	48
34.3213	34.3663	72	36
34.3673	34.4193	81	40
34.4193	34.5343	88	52
34.4223	34.5343	57	54
34.5763	34.6963	84	44
34.7303	34.8533	81	44
34.8283	34.8883	57	43
34.8953	35.0183	57	51
34.8953	35.0133	76	46
35.0183	35.1263	60	48
35.0483	35.1683	72	43
35.1273	35.2483	59	51
35.2063	35.3703	69	43
35.2483	35.4263	57	48
35.4263	36.0423	64	54
35.6203	35.7703	68	44
35.6203	35.7713	76	44
35.8223	35.9903	71	41
35.8263	35.9933	80	41
36.0433	36.2113	88	39
36.0463	36.2113	76	39
36.0473	36.2143	52	41
36.4913	36.7643	57	44
36.5263	36.7653	64	46
36.5543	36.7653	69	48
36.5823	36.7673	81	46
36.6163	36.7673	85	51
36.6483	36.7683	93	65
36.8093	36.9253	88	55
36.9663	37.0823	85	55
37.0573	37.1173	69	54
37.1243	37.2473	81	58
37.1253	37.2473	69	64
37.2483	37.3623	70	60
37.2853	37.4013	76	54
37.3633	37.4853	69	64
37.4433	37.5693	73	54
37.4853	37.5693	67	60
37.5733	37.7333	50	59
37.6103	37.7343	65	66
37.7723	37.8913	69	51
37.7753	37.8913	74	60
37.9253	38.0453	74	50
37.9263	38.0463	77	59
38.0273	38.0803	62	54
38.0873	38.2103	77	49
38.0873	38.2103	81	58
38.0903	38.2103	62	64
38.2133	38.3243	65	60
38.2473	38.3673	81	45
38.2513	38.3683	86	54
38.3253	38.4473	64	64
38.4053	38.5103	86	46
38.4053	38.5143	89	55
38.4473	38.5393	62	60
38.5393	38.7903	55	42
38.5623	38.7903	62	45
38.5903	38.7913	67	49
38.6153	38.7943	79	53
38.6433	38.7943	83	56
38.6673	38.7953	91	65
38.8293	38.9513	86	55
38.9863	39.1093	83	55
39.0843	39.1443	67	54
39.1513	39.2673	67	64
39.1513	39.2663	79	58
39.2673	39.3893	69	60
39.3043	39.4273	74	54
39.3893	39.5073	67	64
39.4693	39.5913	71	54
39.5123	39.5923	65	60
39.5923	39.7533	48	59
39.6373	39.7533	64	66
39.7913	39.9133	67	51
39.7953	39.9173	72	60
39.9483	40.0713	72	50
39.9493	40.0713	76	59
40.0503	40.1063	60	54
40.1133	40.2353	76	49
40.1133	40.2363	79	58
40.1173	40.2363	60	64
40.2373	40.3513	64	60
40.2673	40.3903	79	45
40.2703	40.3933	84	54
40.3513	40.4733	62	64
40.4323	40.5643	84	46
40.4323	40.5653	88	55
40.4743	40.5363	60	60
40.5373	40.7403	50	36
40.5753	40.7403	56	40
40.6103	40.7413	83	44
40.6113	40.7433	89	52
40.6133	40.7433	65	54
40.7823	40.8933	80	37
40.7823	40.8973	86	44
40.9353	41.0513	77	37
40.9393	41.0553	83	44
41.0343	41.0933	59	43
41.1003	41.2153	74	39
41.1003	41.2163	80	46
41.1013	41.2163	59	51
41.2193	41.3383	62	48
41.2543	41.3773	71	36
41.2553	41.3773	77	43
41.3383	41.4543	60	51
41.4193	41.5063	74	43
41.4543	41.5273	59	48
41.5073	41.5513	76	36
41.5313	41.6043	48	47
41.5523	41.6053	81	40
41.6083	41.7273	88	54
41.6093	41.7273	64	52
41.7623	41.8843	84	48
41.9153	42.0383	81	47
42.0243	42.0733	57	43
42.0813	42.2033	57	51
42.0813	42.2023	76	46
42.2033	42.3253	60	48
42.2413	42.3603	72	43
42.3253	42.4403	59	51
42.3993	42.5383	69	44
42.4413	42.5843	57	48
42.5843	43.1193	53	54
42.7603	42.8853	63	37
42.7603	42.8893	71	44
42.9273	43.0683	75	41
42.9283	43.0683	69	41
42.9763	43.1203	59	43
43.1203	43.6903	52	51
43.2463	43.3823	64	48
43.2913	43.4273	76	44
43.2953	43.4283	68	37
43.3833	43.5183	62	51
43.4733	43.6313	80	41
43.4743	43.6323	71	34
43.5193	43.6903	59	48
43.6903	44.4143	57	54
43.8863	44.0513	72	37
43.8863	44.0483	81	44
44.1133	44.3383	76	34
44.1143	44.3413	84	41
44.4153	44.9192	81	43
44.4153	44.9192	93	51
44.4192	44.9192	64	31
44.4192	44.9192	72	41
45.3642	45.8603	41	54
45.3642	45.4962	45	64
45.4822	45.6223	44	60
45.6082	45.7412	45	64
45.7342	45.8612	44	60
45.7972	45.8712	46	63
45.8612	45.9942	45	64
45.9802	46.1152	47	60
46.1012	46.2382	48	64
46.2242	46.3542	50	59
46.3542	46.8512	40	54
46.3542	46.4802	52	64
46.3582	46.8522	44	54
46.4762	46.6022	51	60
46.5952	46.7242	52	64
46.7152	46.8542	51	60
46.7952	46.8612	53	63
46.8542	46.9842	52	64
46.9742	47.1032	50	60
47.0922	47.2222	48	64
47.2112	47.3512	47	59
47.3522	47.8692	41	48
47.3522	47.4912	45	57
47.4772	47.6142	44	54
47.6002	47.7392	45	56
47.7222	47.8692	44	52
47.8032	47.8802	46	61
47.8702	47.9952	45	56
47.9912	48.1182	47	52
48.1072	48.2412	48	55
48.2262	48.3592	50	50
48.3622	48.9472	40	45
48.3632	48.9512	44	45
48.3662	48.4992	52	54
48.4892	48.6222	51	50
48.6192	48.7622	52	53
48.7372	48.9512	51	49
48.8772	48.9582	53	51
48.9512	49.1432	52	45
49.4652	49.9692	53	54
49.4662	49.6022	57	64
49.5922	49.7282	56	60
49.7212	49.8542	57	64
49.8402	49.9702	56	60
49.9072	49.9792	58	64
49.9702	50.1022	57	64
50.0922	50.2182	59	60
50.2152	50.3472	60	64
50.3332	50.4632	62	59
50.4632	50.9632	52	54
50.4662	50.9642	56	54
50.4672	50.5922	64	64
50.5782	50.7112	63	60
50.7012	50.8342	64	64
50.8242	50.9662	63	60
50.9012	50.9732	65	63
50.9672	51.0962	64	64
51.0822	51.2122	62	60
51.2022	51.3272	60	64
51.3172	51.4602	59	59
51.4602	51.9782	53	48
51.4642	51.5932	57	57
51.5822	51.7232	56	54
51.7122	51.8462	57	56
51.8322	51.9792	56	52
51.9152	51.9852	58	57
51.9822	52.1042	57	56
52.0942	52.2262	59	52
52.2162	52.3462	60	55
52.3392	52.4652	62	50
52.4652	53.0562	52	45
52.4662	53.0562	56	45
52.4692	52.6052	64	54
52.5902	52.7312	63	50
52.7202	52.8712	64	53
52.8492	53.0602	63	49
52.9902	53.0602	65	51
53.0632	53.2562	64	45
53.5742	54.0792	65	54
53.5752	53.7072	69	64
53.7042	53.8332	68	60
53.8222	53.9562	69	64
53.9452	54.0792	68	60
54.0152	54.0822	70	63
54.0822	54.2072	69	64
54.1932	54.3272	67	60
54.3202	54.4492	65	64
54.4392	54.5652	64	59
54.5682	55.0732	53	54
54.5692	55.0762	57	54
54.5722	54.7012	62	64
54.6872	54.8232	61	60
54.8092	54.9432	62	64
54.9252	55.0762	61	60
55.0092	55.0832	63	61
55.0762	55.2022	62	62
55.1872	55.3212	64	60
55.3102	55.4432	65	64
55.4332	55.5692	62	59
55.5732	56.0872	59	49
55.5742	56.0902	62	52
55.5762	55.7102	67	62
55.6992	55.8312	66	59
55.8212	55.9612	67	61
55.9472	56.0912	66	57
56.0252	56.0972	68	62
56.0912	56.2202	67	61
56.2102	56.3362	65	57
56.3292	56.4581	64	60
56.4472	56.5812	62	55
56.5812	57.0881	52	54
56.5841	57.0892	55	54
56.5841	56.7142	60	64
56.7041	56.8362	59	60
56.8262	56.9592	60	64
56.9411	57.0892	59	60
57.0222	57.0982	61	58
57.0912	57.2141	60	61
57.2071	57.3371	62	60
57.3231	57.4591	64	64
57.4451	57.5851	60	59
57.5851	58.0901	50	49
57.5891	58.0921	56	54
57.5901	57.7251	65	64
57.7121	57.8511	64	60
57.8411	57.9741	65	64
57.9641	58.0931	64	60
58.0271	58.1031	67	60
58.0931	58.2261	65	62
58.2121	58.3451	62	60
58.3351	58.4641	60	64
58.4571	58.5861	59	59
58.5861	59.0831	48	54
58.5871	59.0841	57	54
58.5871	58.7131	64	64
58.7011	58.8351	63	60
58.8211	58.9541	64	64
58.9441	59.0841	63	60
59.0161	59.0941	65	61
59.0871	59.2161	64	61
59.2061	59.3381	60	60
59.3241	59.4611	59	64
59.4471	59.5881	57	59
59.5881	60.1051	50	45
59.5911	60.1061	53	48
59.5921	59.7271	58	57
59.7161	59.8501	57	54
59.8391	59.9761	58	56
59.9611	60.1091	57	52
60.0381	60.1161	60	56
60.1091	60.2391	59	56
60.1101	60.3461	52	45
60.1101	60.3501	56	54
60.2281	60.3601	65	52
60.3511	60.483	64	55
60.4691	60.6061	56	50
60.6061	60.7461	57	55
60.7321	60.8791	56	51
60.8651	60.9351	50	52
60.8691	60.9351	53	52
60.8691	61.0151	57	57
61.0041	61.1451	56	49
61.1451	61.2011	48	52
61.1461	61.2051	52	52
61.1461	61.3901	57	54
61.631	61.771	45	64
61.7611	61.8941	44	60
61.8871	62.02	45	64
62.0091	62.0721	44	60
62.0721	62.149	46	63
62.1351	62.626	52	45
62.1351	62.625	61	54
62.1391	62.272	45	64
62.1391	62.626	55	45
62.257	62.391	43	60
62.38	62.51	41	64
62.503	62.628	40	59
62.629	62.758	38	64
62.748	62.878	37	60
62.867	63.003	38	64
62.989	63.066	37	60
63.066	63.144	39	63
63.133	63.631	53	45
63.133	63.631	57	45
63.133	63.63	65	54
63.134	63.255	38	64
63.251	63.378	40	60
63.367	63.497	41	64
63.483	63.64	38	59
63.633	63.763	43	64
63.749	63.889	42	60
63.879	64.011	43	64
64.001	64.071	42	60
64.071	64.141	44	63
64.127	64.62	59	54
64.131	64.621	50	45
64.131	64.624	53	45
64.134	64.259	43	64
64.25	64.386	41	60
64.372	64.505	40	64
64.495	64.625	38	59
64.625	64.746	36	64
64.743	64.868	35	60
64.866	64.998	36	64
64.981	65.061	35	60
65.061	65.132	37	63
65.125	65.621	64	54
65.128	65.621	52	45
65.128	65.622	55	45
65.132	65.254	36	64
65.243	65.369	38	60
65.359	65.492	40	64
65.482	65.632	36	59
65.622	65.7619	41	64
65.748	65.88	40	60
65.873	66.006	41	64
65.996	66.059	40	60
66.063	66.136	43	63
66.126	66.6129	50	45
66.126	66.6119	59	54
66.129	66.251	41	64
66.129	66.6129	56	45
66.244	66.3739	38	60
66.3669	66.4959	36	64
66.4829	66.6219	35	59
66.6149	66.7449	40	64
66.7349	66.8669	39	60
66.8559	66.9899	40	64
66.9789	67.0529	39	60
67.0569	67.1299	41	63
67.1199	67.6159	52	45
67.1199	67.6169	57	45
67.1199	67.6159	60	54
67.1209	67.2449	40	64
67.2379	67.3649	36	60
67.3579	67.4829	35	64
67.4719	67.6199	33	59
67.6199	67.8819	62	54
67.6209	68.1549	53	45
67.6229	68.1559	57	45
67.6239	67.7639	35	64
67.7499	67.8959	34	60
67.8859	68.1579	63	54
67.8869	68.0299	35	64
68.0189	68.1589	34	60
68.1589	68.7439	64	54
68.1629	68.4079	36	64
68.1629	68.7439	52	45
68.1629	68.7469	56	45
68.3799	68.8129	35	60
68.7469	69.5899	41	64
69.5759	69.7239	40	59
69.7239	69.8389	33	54
69.8419	69.9619	32	51
69.9619	70.0759	33	54
70.0799	70.1469	32	51
70.1499	70.2169	34	53
70.2059	70.4449	53	38
70.2059	70.4439	62	45
70.2069	70.3289	33	54
70.2069	70.4449	57	38
70.3289	70.4479	32	51
70.4489	70.5599	33	54
70.5599	70.6829	32	50
70.6829	70.9279	52	38
70.6839	70.9279	57	38
70.6859	70.8049	33	54
70.6859	70.9289	60	45
70.8059	70.9289	32	51
70.9309	71.0419	33	54
71.0429	71.1089	32	51
71.1099	71.1789	34	53
71.1689	71.4099	50	35
71.1719	71.4149	53	35
71.1729	71.2919	33	51
71.1729	71.4169	57	43
71.2919	71.4179	32	47
71.4179	71.5359	33	50
71.5369	71.6619	32	45
71.6629	71.9359	48	34
71.6659	71.7949	33	48
71.6659	71.9359	52	34
71.6659	71.9389	57	40
71.7959	71.9389	32	44
71.9399	72.0619	33	45
72.0619	72.1379	32	41
72.1389	72.2159	34	43
72.2019	72.4809	50	30
72.2019	72.4819	53	36
72.2029	72.3419	33	43
72.3419	72.4849	32	39
72.4849	72.6219	33	40
72.6219	72.8069	32	36
72.8079	73.1709	48	24
72.8079	73.1739	52	24
72.8099	73.1749	33	35
72.8099	73.1739	57	29
74.2799	74.4379	69	78
74.2809	74.4379	57	68
74.2839	74.8339	36	56
74.2839	74.8339	48	67
74.4129	74.4729	63	61
74.4139	74.4729	66	74
74.6829	74.8349	57	53
74.6839	74.8369	51	46
74.6839	74.8369	69	61
74.6849	74.8379	54	46
74.6859	74.8409	60	54
74.8409	74.9589	69	74
74.8419	74.9629	51	51
74.8419	74.9599	57	65
74.8439	74.9639	54	51
74.8439	74.9639	60	60
74.9669	75.0899	60	60
74.9669	75.0889	72	69
75.0899	75.3649	71	74
75.0919	75.3649	33	52
75.0919	75.3649	59	65
75.0929	75.3649	45	62
75.2229	75.3649	69	69
75.2259	75.3649	57	60
75.3589	75.5639	64	68
75.3589	75.5639	76	78
75.3619	75.6169	32	62
75.3629	75.6179	44	74
75.4849	75.5639	68	61
75.4859	75.5639	71	74
75.6179	75.9009	35	59
75.6209	75.9009	47	72
75.7569	75.9019	64	53
75.7569	75.9049	76	61
75.9049	76.0269	76	74
75.9059	76.4449	40	67
75.9059	76.0279	64	65
75.9079	76.4449	44	67
75.9079	76.4449	52	81
76.0299	76.1639	79	69
76.0309	76.1639	67	60
76.1649	76.4449	77	74
76.1669	76.4449	65	65
76.2969	76.4449	76	69
76.2999	76.4449	64	60
76.4399	76.5899	69	81
76.4409	76.5899	57	71
76.4439	76.9679	36	63
76.4439	76.9729	48	75
76.5629	76.6249	63	65
76.5659	76.6259	66	76
76.8179	76.9729	57	56
76.8179	76.9729	69	65
76.8189	76.9739	51	48
76.8219	76.9749	54	48
76.8219	76.9759	60	57
76.9759	77.0949	69	76
76.9789	77.0979	57	67
76.9799	77.0979	51	53
76.9799	77.0989	54	53
76.9799	77.1019	60	63
77.1019	77.2309	72	72
77.1029	77.2319	60	63
77.2319	77.5009	71	76
77.2339	77.5009	59	67
77.2349	77.5009	33	55
77.2349	77.5009	45	64
77.3599	77.5009	69	72
77.3609	77.5009	57	63
77.4969	77.7069	56	71
77.4969	77.7069	68	81
77.4979	77.7599	35	59
77.4979	77.7599	47	71
77.6269	77.7069	59	76
77.7609	78.3438	39	66
77.7629	78.3438	51	79
77.9039	78.3438	63	72
78.0469	78.3438	56	70
78.0479	78.3438	59	70
78.0479	78.3438	65	82
78.0499	78.3438	41	73
78.0499	78.3438	53	86
78.3309	78.4698	64	78
78.3329	78.6098	40	70
78.3339	78.6128	52	82
78.6138	78.7679	69	74
78.6138	78.7679	81	86
78.6168	79.1658	36	61
78.6179	79.1708	48	73
78.7468	78.8058	75	68
78.7498	78.8098	78	81
79.0128	79.1708	69	58
79.0138	79.1738	51	46
79.0138	79.1738	81	68
79.0158	79.1738	54	46
79.0158	79.1768	60	54
79.1778	79.2968	69	70
79.1778	79.2958	81	81
79.1788	79.2968	51	51
79.1798	79.2988	54	51
79.1808	79.2988	60	60
79.2998	79.4218	84	75
79.3028	79.4258	72	67
79.4258	79.7018	83	81
79.4288	79.7018	33	52
79.4288	79.7018	45	62
79.4288	79.7018	71	70
79.5518	79.7018	81	75
79.5558	79.7018	69	67
79.6948	79.8978	88	86
79.6958	79.8978	76	74
79.6988	79.9468	32	62
79.6988	79.9478	44	74
79.8218	79.8978	80	68
79.8228	79.8978	83	81
79.9498	80.2368	35	59
79.9508	80.2378	47	72
80.0868	80.2408	76	58
80.0868	80.2408	88	68
80.2418	80.3638	76	70
80.2418	80.3638	88	81
80.2438	80.7738	40	67
80.2448	80.7738	44	67
80.2448	80.7738	52	81
80.3648	80.4958	91	75
80.3668	80.5008	79	67
80.5008	80.7738	77	70
80.5008	80.7738	89	81
80.6268	80.7738	88	75
80.6298	80.7738	76	67
80.7698	80.9198	81	89
80.7708	80.9198	69	77
80.7728	81.3048	36	63
80.7728	81.3048	48	75
80.8958	80.9618	75	71
80.8968	80.9628	78	84
81.1538	81.3088	69	61
81.1548	81.3098	51	48
81.1548	81.3088	81	71
81.1578	81.3098	54	48
81.1588	81.3118	60	57
81.3118	81.4298	81	80
81.3128	81.4308	69	70
81.3158	81.4348	51	53
81.3158	81.4348	54	53
81.3158	81.4388	60	63
81.4388	81.5608	72	67
81.4388	81.5598	84	75
81.5608	81.8398	83	80
81.5638	81.8398	33	55
81.5638	81.8398	71	70
81.5648	81.8398	45	64
81.6948	81.8398	81	75
81.6968	81.8398	69	67
81.8328	82.0398	80	86
81.8338	82.0918	35	59
81.8338	82.0398	68	74
81.8368	82.0958	47	71
81.9628	82.0398	71	75
81.9628	82.0398	83	80
82.0968	82.6808	39	66
82.0968	82.6808	51	79
82.2318	82.6808	87	75
82.2358	82.6808	75	64
82.3828	82.6808	89	87
82.3838	82.6808	77	63
82.3868	82.6808	41	73
82.3868	82.6808	53	86
82.6678	82.8028	88	82
82.6698	82.9468	40	70
82.6698	82.9468	52	82
82.6698	82.8038	76	69
82.9498	83.1038	81	77
82.9508	83.1038	93	90
82.9538	83.4988	45	61
82.9538	83.1038	79	77
82.9548	83.4998	52	61
82.9568	83.3488	61	73
83.0788	83.1388	85	70
83.0798	83.1398	88	85
83.3488	83.4998	81	60
83.3498	83.5028	93	70
83.3528	83.5038	61	46
83.3528	83.5038	64	46
83.3528	83.5058	69	54
83.5068	83.6258	93	85
83.5098	83.6288	61	51
83.5098	83.6258	81	74
83.5108	83.6288	64	51
83.5108	83.6328	69	60
83.6328	83.7548	94	78
83.6338	83.7558	82	69
83.7578	84.0348	93	85
83.7588	84.0348	37	52
83.7588	84.0348	81	74
83.7598	84.0348	52	62
83.8888	84.0348	91	78
83.8918	84.0348	79	69
84.0248	84.2308	89	90
84.0288	84.2838	38	62
84.0288	84.2308	77	77
84.0298	84.2838	53	74
84.1508	84.2308	81	70
84.1538	84.2308	86	85
84.2848	84.5668	40	59
84.2868	84.5668	55	72
84.4198	84.5708	73	60
84.4238	84.5708	85	70
84.5718	84.6998	86	85
84.5738	84.7038	74	74
84.5748	84.8288	41	67
84.5748	84.8298	56	81
84.7038	84.8298	89	78
84.7048	84.8328	77	69
84.8338	85.1128	75	74
84.8338	85.1128	87	85
84.8368	85.1128	42	72
84.8378	85.1128	57	85
84.9628	85.1128	86	78
84.9658	85.1128	74	69
85.1068	85.2568	79	77
85.1068	85.2568	91	90
85.1078	85.2568	77	77
85.1088	85.6528	43	61
85.1098	85.6558	50	61
85.1098	85.5018	59	73
85.2328	85.2948	83	70
85.2328	85.2948	86	85
85.5028	85.6558	79	60
85.5048	85.6588	59	46
85.5048	85.6558	91	70
85.5058	85.6598	62	46
85.5058	85.6598	67	54
85.6608	85.7808	91	85
85.6628	85.7818	59	51
85.6628	85.7848	62	51
85.6628	85.7818	79	74
85.6668	85.7858	67	60
85.7858	85.9078	92	78
85.7878	85.9078	80	69
85.9108	86.1878	79	74
85.9108	86.1878	91	85
85.9148	86.1878	35	52
85.9148	86.1878	50	62
86.0438	86.1878	89	78
86.0448	86.1878	77	69
86.1808	86.3827	88	90
86.1818	86.4357	36	62
86.1818	86.3827	76	77
86.1838	86.4387	52	74
86.3067	86.3827	79	70
86.3067	86.3827	84	85
86.4397	86.7228	38	59
86.4397	86.7237	53	72
86.5687	86.7237	71	60
86.5687	86.7237	83	70
86.7257	86.8488	84	85
86.7268	86.9817	39	67
86.7268	86.8488	72	74
86.7297	86.9827	54	81
86.8527	86.9857	75	69
86.8527	86.9847	87	78
86.9857	87.2597	85	85
86.9887	87.2597	73	74
86.9897	87.2597	40	72
86.9897	87.2597	55	85
87.1187	87.2597	72	69
87.1187	87.2597	84	78
87.2547	87.4117	89	90
87.2557	87.4117	50	61
87.2557	87.4117	77	77
87.2587	87.4117	41	61
87.2587	87.4117	47	61
87.2587	87.4117	56	73
87.3887	87.4477	80	70
87.3887	87.4487	83	85
87.6497	87.8077	68	53
87.6507	87.8087	62	46
87.6507	87.8077	71	61
87.6537	87.8087	65	54
87.8117	87.9337	71	74
87.8127	87.9347	62	51
87.8127	88.3287	68	65
87.8147	88.3297	65	60
87.9347	88.0597	74	69
87.9367	88.0627	59	51
88.0637	88.1967	72	74
88.0667	88.1967	60	51
88.1977	88.3297	71	69
88.1997	88.3337	62	51
88.3337	88.4867	76	77
88.3337	88.4867	88	90
88.3357	88.4867	40	56
88.3367	88.4867	48	56
88.3367	88.4867	57	67
88.4627	88.5177	81	70
88.4637	88.5187	84	85
88.7287	88.8777	64	65
88.7317	88.8827	60	59
88.7317	88.8787	69	73
88.8827	89.0077	69	81
88.8867	89.0087	60	65
88.8867	89.4147	64	72
89.0087	89.1347	72	75
89.0117	89.1347	57	56
89.1377	89.2717	59	56
89.1377	89.2707	71	81
89.2717	89.4147	69	76
89.2737	89.4177	60	56
89.4187	89.5887	62	65
89.4187	89.5897	74	77
89.4217	90.0167	47	49
89.4217	90.0177	53	49
89.4227	90.0197	57	58
89.5897	89.7257	65	64
89.5937	89.7297	77	75
89.7297	89.8737	64	64
89.7327	89.8737	76	75
89.8767	90.0207	63	59
89.8767	90.0237	75	71
90.0237	90.1707	64	64
90.0267	90.6317	40	47
90.0267	90.1707	76	75
90.0277	90.6327	56	56
90.1717	90.3237	59	58
90.1737	90.3247	71	70
90.3277	90.4817	62	62
90.3287	90.4817	74	73
90.4857	90.6357	60	58
90.4857	90.6367	72	70
90.6387	91.1237	64	75
90.6397	91.3287	59	43
90.6397	91.3287	71	57
90.6427	91.1237	52	58
90.6437	91.2907	45	31
90.6437	91.3287	50	58
90.6437	91.3287	56	37
90.8157	91.3287	67	69
90.8177	91.3287	55	58
90.9677	91.3287	65	65
90.9687	91.3287	53	55
91.1237	91.4447	52	51
91.1237	91.4447	64	63
91.2877	91.4477	57	53
91.2897	91.4517	69	63
91.2907	91.4517	45	48
91.2907	91.4517	48	58
91.9867	92.2847	81	50
91.9877	92.0677	57	40
91.9877	92.0677	60	40
91.9907	92.0687	69	48
92.1487	92.3057	93	57
92.2857	92.4497	80	48
92.2857	92.4487	92	57
92.2867	92.3507	64	40
92.2877	92.3507	72	48
92.4207	92.5957	91	56
92.4247	92.5967	79	47
92.5707	92.7357	90	56
92.5757	92.6447	62	39
92.5757	92.6447	71	47
92.5757	92.7357	78	47
92.7117	92.8767	77	46
92.7117	92.8757	89	55
92.8507	93.0127	88	55
92.8517	92.9207	60	38
92.8517	93.0127	76	46
92.8547	92.9217	69	45
92.9917	93.1357	75	45
92.9917	93.1347	87	54
93.1357	93.2927	77	48
93.1387	93.2047	52	40
93.1387	93.2927	89	57
93.1417	93.2057	56	40
93.1427	93.2077	64	48
93.2677	93.4327	76	42
93.2717	93.4327	88	50
93.4077	93.5717	75	45
93.4077	93.5727	87	54
93.4117	93.4777	59	37
93.4117	93.4787	67	44
93.5477	93.6877	89	50
93.5487	93.6877	77	42
93.6887	93.8487	76	45
93.6887	93.8497	88	53
93.6917	93.7587	57	42
93.6917	93.7587	65	50
93.8237	93.9887	83	52
93.9647	94.1317	71	43
93.9647	94.1327	80	51
93.9677	94.0347	56	39
93.9677	94.0347	64	47
94.1107	94.2517	76	50
94.2517	94.5447	81	50
94.2527	94.3317	57	40
94.2547	94.3317	60	40
94.2547	94.3327	69	48
94.4117	94.5697	93	57
94.5487	94.7137	92	57
94.5497	94.6227	64	40
94.5497	94.7137	80	48
94.5527	94.6227	72	48
94.6927	94.8538	79	47
94.6927	94.8527	91	56
94.8317	94.9938	90	56
94.8327	94.9028	62	39
94.8327	94.9938	78	47
94.8337	94.9028	71	47
94.9728	95.1328	77	46
94.9728	95.1298	89	55
95.1088	95.2698	88	55
95.1098	95.1788	60	38
95.1098	95.2738	76	46
95.1128	95.1798	69	45
95.2488	95.3898	75	45
95.2488	95.3858	87	54
95.3928	95.5497	77	48
95.3928	95.5537	89	57
95.3938	95.5258	57	40
95.3938	95.5298	60	40
95.3968	95.5298	65	48
95.5328	95.6857	76	42
95.5338	95.6867	88	50
95.6617	95.8228	75	45
95.6617	95.8238	87	54
95.7978	95.9628	89	50
95.7988	95.9628	77	42
95.9317	96.0888	76	45
95.9348	96.0898	88	53
95.9357	96.0918	52	42
95.9387	96.0927	56	42
95.9387	96.0958	64	50
96.2537	96.4068	76	53
96.5687	96.6457	57	40
96.5687	96.8627	81	50
96.5698	96.6487	60	40
96.5698	96.6487	69	48
96.7288	96.8797	93	57
96.8627	97.0197	92	57
96.8657	97.0208	80	48
96.8667	96.9257	64	40
96.8667	96.9288	72	48
96.9957	97.1598	91	56
96.9998	97.1608	79	47
97.1348	97.3038	90	56
97.1358	97.2058	62	39
97.1358	97.3038	78	47
97.1388	97.2058	71	47
97.2828	97.4438	77	46
97.2828	97.4428	89	55
97.4188	97.5908	88	55
97.4198	97.4888	60	38
97.4198	97.5908	76	46
97.4218	97.4888	69	45
97.5658	97.7028	75	45
97.5658	97.7028	87	54
97.7058	97.8598	77	48
97.7088	97.8638	89	57
97.7098	97.7718	52	40
97.7098	97.7728	56	40
97.7108	97.7758	64	48
97.8358	98.0008	76	42
97.8388	98.0008	88	50
97.9758	98.1398	75	45
97.9798	98.0448	59	37
97.9798	98.1408	87	54
97.9828	98.0498	67	44
98.1158	98.2558	89	50
98.1188	98.2558	77	42
98.2568	98.4088	76	45
98.2588	98.3248	57	42
98.2588	98.3258	65	50
98.2588	98.4138	88	53
98.3948	98.5568	83	52
98.5358	98.6968	71	43
98.5368	98.6058	56	39
98.5368	98.6058	64	47
98.5368	98.6968	80	51
98.6728	98.8118	76	50
98.8118	99.0958	81	50
98.8158	98.8888	57	40
98.8168	98.8888	60	40
98.8188	98.8898	69	48
98.9668	99.1198	93	57
99.0988	99.2568	92	57
99.0998	99.2568	80	48
99.1028	99.1658	64	40
99.1038	99.1688	72	48
99.2318	99.4008	79	47
99.2318	99.3998	91	56
99.3748	99.5398	90	56
99.3758	99.4458	62	39
99.3758	99.5398	78	47
99.3788	99.4468	71	47
99.5158	99.6768	77	46
99.5158	99.6758	89	55
99.6478	99.8168	88	55
99.6488	99.8168	76	46
99.6528	99.7178	60	38
99.6528	99.7188	69	45
99.7918	99.9328	87	54
99.7958	99.9328	75	45
99.9358	100.09	77	48
99.9358	100.091	89	57
99.9398	100.069	57	40
99.9398	100.07	60	40
99.9398	100.07	65	48
100.072	100.23	76	42
100.073	100.23	88	50
100.209	100.376	75	45
100.209	100.377	87	54
100.352	100.52	89	50
100.353	100.52	77	42
100.492	100.646	76	45
100.492	100.647	88	53
100.493	100.649	52	42
100.493	100.65	56	42
100.496	100.654	64	50
100.811	100.964	76	53
101.122	101.42	81	55
101.126	101.207	57	44
101.126	101.207	61	44
101.127	101.208	69	52
101.286	101.448	93	62
101.421	101.592	80	52
101.421	101.588	92	62
101.423	101.497	62	44
101.423	101.497	70	52
101.567	101.739	79	51
101.567	101.738	91	61
101.714	101.879	90	61
101.717	101.882	78	51
101.718	101.787	61	42
101.721	101.787	69	51
101.854	102.018	89	60
101.858	102.019	77	50
101.993	102.158	88	60
101.994	102.158	76	50
101.997	102.064	58	41
101.998	102.064	67	49
102.134	102.278	74	49
102.134	102.277	86	59
102.28	102.55	73	52
102.281	102.435	85	62
102.284	102.344	57	44
102.285	102.345	65	52
102.41	102.574	88	55
102.551	102.831	73	49
102.554	102.62	55	40
102.554	102.715	81	59
102.558	102.621	64	48
102.69	102.831	85	55
102.834	103.11	74	49
102.834	102.995	86	58
102.835	102.9	53	46
102.838	102.904	62	55
102.97	103.131	81	57
103.11	103.394	69	47
103.111	103.271	77	56
103.114	103.18	50	42
103.114	103.181	65	51
103.246	103.394	74	55
103.395	103.677	79	57
103.397	103.464	55	46
103.397	103.464	59	46
103.398	103.465	67	54
103.538	103.702	91	65
103.678	103.849	78	54
103.678	103.846	90	65
103.681	103.747	60	46
103.682	103.747	68	54
103.818	103.993	77	53
103.818	103.992	89	64
103.968	104.126	88	64
103.969	104.038	59	44
103.969	104.126	76	53
103.971	104.038	67	53
104.101	104.259	75	52
104.101	104.258	87	63
104.24	104.398	86	63
104.241	104.398	74	52
104.244	104.304	56	43
104.245	104.307	65	51
104.374	104.513	84	61
104.377	104.514	72	51
104.514	104.787	71	54
104.517	104.675	83	65
104.518	104.583	55	46
104.518	104.584	64	54
104.654	104.808	86	57
104.787	105.063	71	51
104.79	104.948	79	61
104.791	104.857	53	42
104.791	104.857	62	50
104.923	105.067	83	57
105.067	105.343	72	51
105.07	105.134	52	48
105.07	105.227	84	60
105.071	105.137	60	57
105.203	105.371	79	59
105.343	105.644	67	49
105.347	105.421	48	44
105.347	105.511	76	58
105.348	105.421	64	53
105.491	105.644	72	57
105.648	105.847	77	56
105.649	105.851	59	40
105.651	105.851	50	40
105.651	105.851	56	40
105.652	105.854	65	48
105.746	105.855	93	70
105.998	106.155	88	57
106.001	106.159	76	48
106.135	106.295	75	47
106.135	106.295	87	56
106.278	106.436	74	56
106.411	106.569	73	46
106.411	106.568	85	55
106.551	106.709	84	55
106.554	106.709	72	46
106.684	106.841	83	54
106.687	106.842	71	45
106.842	107.052	76	60
106.844	107.052	57	40
106.845	107.053	48	40
106.845	107.055	64	48
106.946	107.055	91	74
107.195	107.36	87	57
107.196	107.36	75	48
107.328	107.503	74	47
107.328	107.502	86	56
107.481	107.636	72	56
107.611	107.776	83	55
107.615	107.779	71	46
107.751	107.916	82	55
107.755	107.917	70	46
107.888	108.031	81	54
107.889	108.032	69	45
108.032	108.101	57	48
108.035	108.102	65	56
108.171	108.333	76	55
108.172	108.333	64	46
108.311	108.48	63	46
108.311	108.479	75	55
108.454	108.595	74	54
108.455	108.595	62	45
108.596	108.665	56	48
108.598	108.665	64	56
108.734	108.896	72	55
108.735	108.899	60	46
108.871	109.036	71	55
108.875	109.036	59	46
109.012	109.158	70	54
109.015	109.159	58	45
109.162	109.344	57	58
109.32	109.487	65	56
109.323	109.488	53	49
109.466	109.635	64	55
109.467	109.635	52	49
109.606	109.775	51	48
109.606	109.774	63	54
109.749	109.921	62	52
109.753	109.925	50	47
109.893	110.068	60	51
109.897	110.069	48	46
110.047	110.215	59	50
110.048	110.215	47	46
110.191	110.342	46	45
110.191	110.341	58	49
110.344	111.259	57	50
110.345	111.259	45	48
110.667	111.259	81	48
110.667	111.259	89	57
110.803	111.259	84	56
110.807	111.259	77	47
110.958	111.259	69	42
110.958	111.259	76	50
111.097	111.29	72	49
111.098	111.29	64	41
111.266	111.36	48	51
111.266	111.359	60	53
111.36	111.458	59	52
111.361	111.459	47	49
111.459	111.556	57	51
111.46	111.556	45	47
111.557	112.473	56	50
111.56	112.473	44	48
111.874	112.473	80	48
111.874	112.473	87	57
112.014	112.473	83	56
112.015	112.473	75	47
112.165	112.473	68	42
112.165	112.473	76	50
112.305	112.491	64	41
112.305	112.49	71	49
112.466	112.564	52	44
112.469	112.564	40	40
112.568	112.659	42	44
112.568	112.658	54	46
112.661	112.756	56	48
112.662	112.757	44	47
112.76	113.655	57	50
112.761	113.655	45	48
113.075	113.655	89	57
113.076	113.655	81	48
113.208	113.655	77	47
113.208	113.655	84	56
113.355	113.655	76	50
113.358	113.655	69	42
113.491	113.687	72	49
113.495	113.688	64	41
113.663	113.761	60	53
113.664	113.761	48	51
113.762	113.852	59	52
113.764	113.856	47	49
113.856	113.953	57	51
113.859	113.954	45	47
113.956	114.829	56	50
113.957	114.829	44	48
114.255	114.829	80	48
114.255	114.829	87	57
114.394	114.829	75	47
114.394	114.829	83	56
114.545	114.829	68	42
114.545	114.829	76	50
114.685	114.881	71	49
114.686	114.881	64	41
114.993	115.066	52	84
114.994	115.067	40	70
115.07	115.137	42	74
115.07	115.137	54	88
115.14	115.214	44	78
115.14	115.214	56	90
115.215	116.124	57	93
115.217	116.124	33	81
115.217	116.124	45	81
115.536	116.124	89	89
115.539	116.124	81	75
115.675	116.124	84	88
115.679	116.124	77	73
115.823	116.124	69	66
115.823	116.124	76	78
115.962	116.152	72	76
115.963	116.155	64	64
116.127	116.426	60	91
116.131	116.426	48	83
116.225	116.426	47	80
116.225	116.426	59	89
116.324	116.426	45	77
116.324	116.426	57	86
116.421	117.327	56	91
116.425	117.327	44	83
116.426	117.327	32	83
116.74	117.327	80	75
116.74	117.327	87	89
116.872	117.327	83	88
116.873	117.327	75	73
117.019	117.327	76	78
117.02	117.327	68	66
117.156	117.348	64	64
117.156	117.348	71	76
117.324	117.615	52	74
117.325	117.615	40	72
117.422	117.615	54	81
117.423	117.615	42	77
117.519	117.615	56	86
117.52	117.615	44	80
117.612	118.513	57	93
117.614	118.513	33	84
117.615	118.513	45	84
117.915	118.513	89	89
117.919	118.513	81	75
118.063	118.513	77	73
118.063	118.513	84	88
118.206	118.513	76	78
118.207	118.513	69	66
118.353	118.546	64	64
118.353	118.545	72	76
118.52	118.812	60	86
118.521	118.812	48	86
118.616	118.812	59	85
118.619	118.812	47	84
118.715	118.812	57	83
118.717	118.812	45	81
118.807	119.683	56	82
118.808	119.683	44	82
118.812	119.683	32	82
119.113	119.683	80	75
119.113	119.683	87	89
119.252	119.683	75	73
119.252	119.683	83	88
119.396	119.683	68	66
119.396	119.683	76	78
119.529	119.722	71	76
119.533	119.725	64	64
119.819	119.896	57	47
119.824	119.897	45	42
119.897	119.966	59	49
119.9	119.966	47	45
119.967	120.044	60	51
119.97	120.044	48	48
120.045	120.961	37	43
120.045	120.961	61	53
120.047	120.961	49	50
120.366	120.961	94	57
120.369	120.961	88	48
120.505	120.961	91	56
120.506	120.961	82	47
120.656	120.961	76	42
120.656	120.961	81	50
120.796	120.989	79	49
120.797	120.989	69	41
120.964	121.062	45	54
120.964	121.062	57	52
121.065	121.156	59	56
121.069	121.157	47	56
121.157	121.258	61	58
121.16	121.259	49	58
121.259	122.162	38	53
121.259	122.162	62	62
121.261	122.162	50	60
121.573	122.162	88	66
121.576	122.162	81	56
121.71	122.162	76	55
121.71	122.162	86	65
121.853	122.162	77	58
121.854	122.162	69	48
121.993	122.186	65	47
121.993	122.185	74	57
122.161	122.256	64	57
122.162	122.256	52	51
122.257	122.354	50	54
122.257	122.354	62	59
122.354	122.444	60	61
122.356	122.445	48	58
122.445	123.368	59	64
122.448	123.368	35	57
122.449	123.368	47	60
122.77	123.368	92	70
122.771	123.368	86	58
122.914	123.368	80	57
122.914	123.368	89	69
123.06	123.368	79	61
123.061	123.368	74	52
123.207	123.397	67	50
123.207	123.396	77	60
123.375	123.466	55	74
123.376	123.466	43	71
123.467	123.568	57	78
123.47	123.568	45	73
123.569	123.659	47	75
123.569	123.659	59	82
123.66	124.566	60	85
123.662	124.566	36	65
123.663	124.566	48	77
123.974	124.566	79	68
123.974	124.566	87	80
124.117	124.566	84	79
124.118	124.566	75	67
124.265	124.566	67	59
124.265	124.566	76	70
124.401	124.594	72	69
124.404	124.594	64	58
124.569	124.67	47	75
124.569	124.667	59	78
124.671	124.761	60	80
124.674	124.765	48	78
124.766	124.863	49	82
124.766	124.86	61	83
124.863	125.78	62	86
124.864	125.78	38	72
124.864	125.78	50	85
125.192	125.78	95	86
125.193	125.78	86	72
125.326	125.78	83	71
125.326	125.78	89	85
125.475	125.78	82	74
125.479	125.78	74	63
125.618	125.812	77	73
125.623	125.815	70	60
125.783	125.882	46	79
125.783	125.882	58	83
125.885	125.983	48	83
125.885	125.979	60	87
125.984	126.075	50	87
125.984	126.074	62	91
126.077	126.991	64	94
126.078	126.991	40	77
126.078	126.991	52	91
126.403	126.991	92	94
126.406	126.991	83	79
126.543	126.991	80	78
126.543	126.991	86	93
126.69	126.991	81	82
126.691	126.991	72	70
126.834	127.022	69	68
126.834	127.019	76	81
126.998	127.096	65	87
126.999	127.096	53	85
127.099	127.194	52	88
127.099	127.193	64	90
127.197	127.285	63	94
127.198	127.289	51	90
127.289	128.205	62	97
127.29	128.205	38	79
127.293	127.81	50	93
127.617	128.205	89	94
127.618	128.205	81	94
127.621	128.205	47	77
127.713	128.205	48	79
127.758	128.205	77	91
127.758	128.205	83	91
127.81	128.205	50	82
127.908	128.205	68	88
127.912	128.205	40	77
127.912	128.205	52	80
127.912	128.205	76	88
128.059	128.237	64	85
128.062	128.241	71	85
128.208	128.321	62	82
128.209	128.322	50	77
128.322	128.43	60	86
128.323	128.43	48	86
128.433	128.549	59	90
128.434	128.549	47	90
128.549	129.493	57	97
128.552	129.493	33	93
128.552	129.493	45	93
128.881	129.493	96	106
128.885	129.493	64	78
128.885	129.493	72	88
128.885	129.213	88	89
129.049	129.493	84	103
129.213	129.493	88	89
129.214	129.493	93	106
129.217	129.493	60	76
129.218	129.493	69	88
129.379	129.574	81	103
129.871	130.729	100	105
129.872	130.733	88	89
129.872	130.733	96	89
129.875	129.98	33	60
129.876	129.981	36	71
130.019	130.127	35	53
130.022	130.127	38	63
130.159	130.27	36	61
130.162	130.271	40	72
130.305	130.418	38	56
130.306	130.418	41	66
130.446	130.554	40	62
130.446	130.555	44	74
130.589	130.694	41	58
130.592	130.694	45	68
130.734	130.835	95	74
130.734	130.83	98	88
130.736	130.838	44	63
130.736	130.837	86	74
130.737	130.838	47	75
130.869	130.977	84	74
130.87	130.977	93	74
130.87	130.981	96	88
130.872	130.982	45	59
130.873	130.982	48	69
131.013	131.111	95	97
131.016	131.114	92	97
131.017	131.118	47	66
131.017	131.114	83	82
131.02	131.118	50	78
131.146	131.247	81	74
131.146	131.248	89	74
131.149	131.248	93	88
131.152	131.248	48	60
131.153	131.25	52	70
131.278	131.387	80	78
131.282	131.387	88	78
131.283	131.388	92	92
131.285	131.388	50	66
131.285	131.391	53	78
131.415	131.523	77	74
131.415	131.524	86	74
131.416	131.527	89	88
131.419	131.528	52	60
131.419	131.53	56	70
131.558	131.657	88	92
131.559	131.66	84	78
131.562	131.661	76	78
131.563	131.661	53	66
131.563	131.664	57	78
131.692	131.797	83	75
131.692	131.796	86	90
131.695	131.801	56	66
131.695	131.8	74	75
131.699	131.801	59	78
131.831	131.929	84	91
131.832	131.93	81	77
131.836	131.934	57	66
131.836	131.934	60	78
131.836	131.933	72	77
131.965	132.077	71	77
131.968	132.077	83	90
131.969	132.08	59	61
131.969	132.078	80	77
131.972	132.08	62	72
132.115	132.969	84	95
132.119	132.973	72	81
132.119	132.969	81	81
132.12	132.213	60	78
132.122	132.216	57	66
132.251	132.353	59	62
132.252	132.357	62	74
132.392	132.496	60	64
132.392	132.501	64	77
132.535	132.658	62	67
132.536	132.658	65	79
132.7	132.797	62	69
132.7	132.798	65	82
132.829	132.934	60	67
132.832	132.934	64	80
132.973	133.113	86	88
132.974	133.113	83	74
132.976	133.113	59	66
132.976	133.113	74	74
132.98	133.113	62	79
133.11	133.277	84	74
133.11	133.277	88	88
133.111	133.277	76	74
133.113	133.277	57	64
133.113	133.277	60	77
133.261	133.403	74	80
133.261	133.403	83	95
133.263	133.403	59	60
133.263	133.403	86	95
133.264	133.403	62	71
133.4	133.544	84	93
133.401	133.544	72	79
133.401	133.544	81	79
133.403	133.544	57	58
133.403	133.544	60	70
133.537	133.69	83	90
133.539	133.69	80	75
133.54	133.69	71	75
133.543	133.69	56	57
133.543	133.69	59	67
133.676	133.84	69	74
133.68	133.84	77	74
133.68	133.84	81	88
133.681	133.84	53	55
133.683	133.84	57	64
133.827	134.478	68	72
133.83	134.478	76	72
133.831	134.478	52	51
133.831	134.478	80	85
133.833	134.478	56	62
134.474	135.325	100	105
134.475	135.328	96	89
134.477	135.328	88	89
134.478	134.579	33	60
134.478	134.579	45	71
134.611	134.723	35	53
134.614	134.727	47	63
134.757	134.862	36	61
134.758	134.863	48	72
134.901	135.009	38	56
134.905	135.01	50	66
135.041	135.146	40	62
135.045	135.147	52	74
135.181	135.286	41	58
135.184	135.286	53	68
135.331	135.429	98	88
135.332	135.433	86	74
135.332	135.43	95	74
135.333	135.434	44	63
135.335	135.437	56	75
135.464	135.57	84	74
135.468	135.57	93	74
135.469	135.573	45	59
135.469	135.573	96	88
135.471	135.573	57	69
135.605	135.709	95	97
135.608	135.714	47	66
135.608	135.713	83	82
135.608	135.71	92	97
135.612	135.714	59	78
135.737	135.842	81	74
135.738	135.846	89	74
135.741	135.847	93	88
135.742	135.847	48	60
135.745	135.85	60	70
135.878	135.975	80	78
135.878	135.976	88	78
135.881	135.979	50	66
135.881	135.979	92	92
135.882	135.983	62	78
136.01	136.115	77	74
136.015	136.116	86	74
136.015	136.119	89	88
136.016	136.12	52	60
136.017	136.12	64	70
136.15	136.256	88	92
136.151	136.256	84	78
136.154	136.259	53	66
136.154	136.259	76	78
136.155	136.259	65	78
136.291	136.392	74	77
136.291	136.389	83	77
136.291	136.388	86	91
136.293	136.393	56	66
136.294	136.393	68	78
136.423	136.529	84	93
136.424	136.529	81	78
136.427	136.53	72	78
136.428	136.532	57	66
136.428	136.532	69	78
136.564	136.676	80	78
136.564	136.675	83	92
136.567	136.676	59	61
136.567	136.677	71	72
136.707	137.551	84	91
136.71	137.551	81	77
136.711	136.812	69	78
136.711	137.551	72	77
136.715	136.813	57	66
136.847	136.952	56	62
136.851	136.952	68	74
136.987	137.092	53	64
136.99	137.093	65	77
137.13	137.243	52	67
137.134	137.243	64	79
137.278	137.382	53	69
137.278	137.383	65	82
137.417	137.516	52	67
137.418	137.516	64	80
137.554	137.702	83	74
137.554	137.702	86	88
137.555	137.702	74	74
137.558	137.702	50	66
137.558	137.702	62	79
137.695	137.859	88	88
137.698	137.859	60	77
137.698	137.859	76	74
137.698	137.859	84	74
137.699	137.859	48	64
137.839	137.984	74	80
137.841	137.984	86	95
137.842	137.984	59	71
137.845	137.984	47	60
137.978	138.132	84	93
137.982	138.132	45	58
137.982	138.132	57	70
137.982	138.132	72	79
138.125	138.272	83	90
138.126	138.272	44	57
138.126	138.272	71	75
138.128	138.272	56	67
138.261	138.425	69	74
138.265	138.425	53	55
138.265	138.425	65	64
138.265	138.425	81	88
138.408	139.004	68	72
138.409	139.004	64	62
138.409	139.004	80	85
138.411	139.004	52	51
139.0	139.57	76	89
139.0	139.71	85	105
139.003	139.711	73	89
139.004	139.113	58	69
139.004	139.112	70	82
139.154	139.259	57	63
139.154	139.256	69	75
139.293	139.395	55	62
139.294	139.398	67	74
139.43	139.535	52	62
139.431	139.538	64	74
139.57	139.711	81	100
139.571	139.675	49	61
139.574	139.676	61	73
139.711	139.819	46	61
139.713	139.822	58	72
139.85	139.963	83	62
139.85	139.958	86	88
139.851	139.963	74	62
139.854	140.134	45	60
139.854	139.963	57	71
139.993	140.099	76	74
139.994	140.1	85	74
139.997	140.1	88	88
139.998	140.102	55	71
140.134	140.238	89	89
140.137	140.239	77	74
140.137	140.239	86	74
140.138	140.243	50	58
140.138	140.243	53	69
140.266	140.371	79	77
140.271	140.376	49	59
140.271	140.372	88	77
140.271	140.375	91	91
140.273	140.376	52	70
140.407	140.505	81	79
140.408	140.505	89	79
140.408	140.505	93	93
140.41	140.508	47	60
140.41	140.508	50	71
140.54	140.644	83	80
140.54	140.645	91	80
140.544	140.648	45	61
140.544	140.649	49	73
140.544	140.645	95	93
140.676	140.953	97	96
140.679	140.963	93	81
140.683	140.957	43	62
140.683	140.963	85	81
140.684	140.963	47	74
140.816	140.963	98	97
140.82	140.963	95	82
140.821	140.963	86	82
140.823	140.963	41	63
140.823	140.963	45	75
140.952	141.24	100	100
140.953	141.24	88	84
140.953	141.24	97	84
140.956	141.24	40	66
140.957	141.24	43	78
141.093	141.24	98	86
141.093	141.24	101	102
141.094	141.24	38	67
141.094	141.24	89	86
141.096	141.24	41	79
141.236	141.957	83	105
141.237	141.958	71	89
141.237	141.81	74	89
141.239	141.359	56	69
141.24	141.36	68	82
141.394	141.499	55	63
141.394	141.499	67	75
141.537	141.642	53	62
141.538	141.643	65	74
141.677	141.782	50	62
141.678	141.782	62	74
141.81	141.958	79	100
141.814	141.922	47	61
141.814	141.923	59	73
141.96	142.059	44	61
141.961	142.062	56	72
142.097	142.203	81	62
142.097	142.199	84	88
142.098	142.381	43	60
142.098	142.203	72	62
142.101	142.203	55	71
142.237	142.342	74	74
142.238	142.346	83	74
142.238	142.349	86	88
142.239	142.349	53	71
142.381	142.479	88	89
142.382	142.479	84	74
142.384	142.482	48	58
142.384	142.48	76	74
142.385	142.482	52	69
142.513	142.611	77	77
142.514	142.612	86	77
142.514	142.615	89	91
142.518	142.616	47	59
142.518	142.616	50	70
142.646	142.752	79	79
142.647	142.752	88	79
142.65	142.755	45	60
142.65	142.755	91	93
142.651	142.755	48	71
142.78	142.891	81	80
142.78	142.892	89	80
142.783	142.896	43	61
142.783	142.896	47	73
142.783	142.892	93	93
142.926	143.2	95	96
142.927	143.238	83	81
142.927	143.238	91	81
142.928	143.238	45	74
142.93	143.203	41	62
143.06	143.238	93	82
143.06	143.238	96	97
143.063	143.238	40	63
143.063	143.238	43	75
143.063	143.238	84	82
143.196	143.294	98	100
143.2	143.301	86	84
143.2	143.299	95	84
143.203	143.491	41	78
143.204	143.49	38	66
143.333	143.491	96	86
143.334	143.491	88	86
143.334	143.491	100	102
143.336	143.491	36	67
143.336	143.491	40	79
143.483	143.812	89	88
143.483	143.801	95	88
143.487	143.802	44	70
143.487	143.812	92	88
143.487	143.812	101	104
143.49	143.812	38	70
143.49	143.812	47	70
143.49	143.812	50	83
143.668	143.812	86	84
143.668	143.812	98	100
143.669	143.812	53	74
143.671	143.812	41	62
143.801	144.071	83	81
143.801	144.077	95	96
143.802	144.077	44	62
143.805	144.075	56	74
143.933	144.07	80	81
143.938	144.077	47	62
143.938	144.074	59	74
143.938	144.077	92	96
144.07	144.371	77	79
144.07	144.371	80	79
144.071	144.371	83	79
144.071	144.371	89	93
144.074	144.371	50	67
144.074	144.371	59	67
144.074	144.371	62	79
144.075	144.371	56	67
144.213	144.371	75	73
144.214	144.371	63	69
144.214	144.371	87	86
144.217	144.371	51	58
144.354	144.665	76	78
144.354	144.665	88	92
144.355	144.665	52	61
144.355	144.665	64	73
144.497	144.665	74	83
144.501	144.665	65	78
144.501	144.665	86	99
144.502	144.665	53	66
144.648	144.98	84	88
144.651	144.98	87	88
144.651	144.967	90	88
144.652	144.98	33	70
144.652	144.98	96	104
144.655	144.98	42	70
144.655	144.98	45	83
144.658	144.97	39	70
144.833	144.98	81	84
144.837	144.98	36	62
144.837	144.98	48	74
144.837	144.98	93	100
144.966	145.236	78	81
144.967	145.26	90	96
144.97	145.26	39	62
144.971	145.243	51	74
145.1	145.236	75	81
145.103	145.26	42	62
145.103	145.26	87	96
145.107	145.239	54	74
145.235	145.536	72	79
145.236	145.536	75	79
145.236	145.536	78	79
145.239	145.536	54	67
145.239	145.536	84	93
145.24	145.536	57	79
145.243	145.536	45	67
145.243	145.536	51	67
145.379	145.536	70	73
145.383	145.536	58	69
145.383	145.536	82	86
145.384	145.536	46	58
145.526	145.821	71	78
145.527	145.828	47	61
145.527	145.828	83	92
145.529	145.828	59	73
145.67	145.823	69	83
145.673	145.828	48	66
145.673	145.828	60	78
145.673	145.828	81	99
145.82	146.11	65	74
145.821	146.11	71	74
145.823	146.11	69	74
145.824	146.11	50	62
145.824	146.11	77	88
145.827	146.11	57	62
145.828	146.11	59	74
145.967	146.11	63	71
145.967	146.11	75	84
145.968	146.11	51	67
146.101	146.389	64	68
146.101	146.411	76	81
146.104	146.388	52	67
146.24	146.411	62	68
146.241	146.411	53	67
146.241	146.411	74	81
146.383	146.688	61	67
146.387	146.688	73	79
146.388	146.682	52	67
146.388	146.681	56	67
146.389	146.688	64	79
146.53	146.688	59	61
146.531	146.688	71	73
146.678	147.01	60	66
146.681	147.01	56	61
146.681	147.003	62	73
146.681	147.01	72	78
146.682	147.01	52	61
146.831	147.01	59	70
146.832	147.01	71	83
147.003	147.794	62	71
147.004	147.794	65	71
147.007	148.362	45	61
147.007	148.357	57	71
147.007	148.361	69	84
147.008	147.794	50	61
147.01	147.794	53	73
147.759	148.362	60	66
147.76	148.365	48	56
147.76	148.362	64	78
147.761	148.365	52	66
148.96	149.314	88	58
148.964	149.314	64	49
149.16	149.495	89	50
149.163	149.495	65	42
149.314	149.495	64	42
149.314	149.495	88	50
149.464	150.51	84	55
149.465	150.51	60	46
150.041	150.28	72	37
150.045	150.283	45	31
150.045	150.283	52	31
150.045	150.28	76	37
150.514	150.681	81	54
150.517	150.682	57	45
150.665	150.809	59	42
150.665	150.808	83	50
150.79	150.934	81	50
150.794	150.938	57	42
150.92	151.06	59	45
150.92	151.059	83	53
151.045	151.179	84	50
151.049	151.179	60	42
151.168	151.309	59	42
151.168	151.308	83	50
151.288	151.427	80	53
151.291	151.431	56	45
151.42	151.557	81	49
151.421	151.557	57	41
151.539	151.68	56	41
151.539	151.679	80	49
151.665	151.812	76	52
151.669	151.813	52	44
151.795	151.962	77	46
151.796	151.963	53	39
151.928	152.24	76	47
151.932	152.243	52	39
152.226	152.421	62	34
152.226	152.425	64	34
152.227	152.426	45	28
152.227	152.425	71	34
152.229	152.428	56	28
152.62	152.968	88	58
152.621	152.97	64	49
152.813	153.146	89	50
152.814	153.146	65	42
152.968	153.146	88	50
152.97	153.146	64	42
153.121	154.165	84	55
153.122	154.165	60	46
153.688	153.922	72	42
153.689	153.927	45	35
153.689	153.927	76	42
153.692	153.929	52	35
154.166	154.563	64	50
154.168	154.428	57	50
154.168	154.427	60	60
154.293	154.566	62	59
154.294	154.564	59	49
154.427	154.566	60	63
154.428	154.566	57	52
154.563	154.948	64	57
154.564	154.948	56	59
154.564	154.812	59	70
154.683	154.948	57	59
154.683	154.948	60	71
154.812	154.948	55	63
154.812	154.948	59	75
154.935	155.337	54	68
154.935	155.337	63	63
154.935	155.187	69	81
155.061	155.337	55	63
155.061	155.337	71	75
155.187	155.337	69	76
155.19	155.337	53	64
155.316	155.799	64	63
155.317	155.575	68	83
155.319	155.579	52	70
155.449	155.799	53	63
155.449	155.799	69	74
155.575	155.799	68	77
155.579	155.799	52	63
155.782	156.026	40	81
156.275	156.621	88	58
156.279	156.622	64	49
156.47	156.804	89	50
156.471	156.804	65	42
156.621	156.804	88	50
156.622	156.804	64	42
156.772	157.822	60	46
156.772	157.821	84	55
157.356	157.587	72	37
157.356	157.591	76	37
157.357	157.591	45	31
157.36	157.592	52	31
157.822	157.99	81	54
157.825	157.99	57	45
157.976	158.12	59	42
157.976	158.116	83	50
158.099	158.246	57	42
158.099	158.245	81	50
158.228	158.365	83	53
158.229	158.365	59	45
158.354	158.494	60	42
158.354	158.493	84	50
158.477	158.616	83	50
158.479	158.617	59	42
158.606	158.743	56	45
158.606	158.743	80	53
158.724	158.865	81	49
158.725	158.866	57	41
158.847	158.991	80	49
158.851	158.994	56	41
158.977	159.121	52	44
158.977	159.12	76	52
159.102	159.278	77	46
159.103	159.278	53	39
159.236	159.551	76	47
159.237	159.552	52	39
159.537	159.729	62	34
159.54	159.73	64	34
159.541	159.733	71	34
159.544	159.733	45	28
159.544	159.733	56	28
159.936	160.28	64	49
159.936	160.279	88	58
160.125	160.457	89	50
160.128	160.457	65	42
160.279	160.457	88	50
160.28	160.457	64	42
160.43	161.473	60	46
160.43	161.472	84	55
160.999	161.234	72	42
161.0	161.238	76	42
161.003	161.238	45	35
161.004	161.239	52	35
161.473	161.871	64	50
161.476	161.735	60	60
161.477	161.735	57	50
161.609	161.885	62	59
161.61	161.872	59	49
161.735	161.885	57	52
161.735	161.885	60	63
161.871	162.257	64	57
161.872	162.257	56	59
161.872	162.117	59	70
161.991	162.257	60	71
161.994	162.257	57	59
162.117	162.257	59	75
162.12	162.257	55	63
162.24	162.644	63	63
162.242	162.644	54	68
162.242	162.495	69	81
162.368	162.644	71	75
162.369	162.644	55	63
162.495	162.644	69	76
162.498	162.644	53	64
162.631	162.891	52	70
162.631	163.107	64	63
162.631	162.891	68	83
162.758	163.107	53	63
162.758	163.107	69	74
162.891	163.107	52	63
162.891	163.107	68	77
163.096	163.341	40	81
163.59	163.943	64	49
163.59	163.941	88	58
163.79	164.125	89	50
163.791	164.125	65	42
163.941	164.125	88	50
163.943	164.125	64	42
164.091	165.14	85	55
164.094	165.14	61	46
164.671	164.91	73	37
164.672	164.911	55	31
164.672	164.91	76	37
164.673	164.913	45	31
164.675	164.913	58	31
165.141	165.326	81	54
165.144	165.327	57	45
165.308	165.48	82	50
165.309	165.48	58	42
165.459	165.63	81	50
165.462	165.631	57	42
165.605	165.777	86	53
165.606	165.781	62	45
165.756	165.934	88	50
165.757	165.939	64	42
165.906	166.127	86	50
165.907	166.127	62	42
166.11	166.551	61	64
166.111	166.394	69	75
166.26	166.551	64	59
166.261	166.551	70	69
166.394	166.551	69	69
166.53	167.009	57	63
166.531	166.821	65	73
166.673	167.072	62	58
166.674	167.091	67	68
166.821	167.091	65	68
166.947	167.272	53	77
167.009	167.273	57	80
167.072	167.273	62	82
167.468	167.816	62	49
167.468	167.815	86	58
167.661	167.996	88	50
167.664	167.996	64	42
167.815	167.996	86	50
167.816	167.996	62	42
167.965	169.011	83	55
167.966	169.011	59	46
168.542	168.781	71	37
168.543	168.782	53	31
168.543	168.781	74	37
168.545	168.784	43	31
168.546	168.784	56	31
169.015	169.196	79	54
169.016	169.201	55	45
169.179	169.347	81	50
169.18	169.348	57	42
169.333	169.502	55	42
169.333	169.501	79	50
169.481	169.648	84	53
169.484	169.652	60	45
169.634	169.81	86	50
169.635	169.81	62	42
169.785	170.002	60	42
169.785	169.998	84	50
169.981	170.429	59	64
169.984	170.268	67	75
170.132	170.429	62	59
170.132	170.429	69	69
170.268	170.429	67	69
170.408	170.88	55	63
170.408	170.699	64	73
170.551	170.947	60	58
170.552	170.975	65	68
170.699	170.975	64	68
170.825	171.265	52	77
170.88	171.266	55	80
170.947	171.266	60	82
171.584	171.963	86	58
171.585	171.966	62	49
171.794	172.175	88	50
171.798	172.175	64	42
171.963	172.175	86	50
171.966	172.175	62	42
172.138	173.639	89	55
172.139	173.642	65	46
172.795	173.215	77	37
172.798	173.218	80	37
172.799	173.218	50	31
172.802	173.219	59	31
173.642	173.725	62	40
173.643	173.726	65	40
173.646	173.726	68	48
173.646	173.73	71	49
173.73	173.806	64	37
173.733	173.807	72	37
173.81	173.841	62	37
173.811	173.842	71	37
174.335	174.717	84	58
174.339	174.717	60	49
174.541	174.927	86	50
174.542	174.927	62	42
174.717	174.927	60	42
174.717	174.927	84	50
174.889	176.305	88	55
174.892	176.306	64	46
175.55	175.928	76	37
175.55	175.928	81	37
175.553	175.928	48	31
175.553	175.931	57	31
176.306	176.389	60	40
176.307	176.39	64	48
176.309	176.393	69	49
176.394	176.473	62	37
176.396	176.474	70	37
176.474	176.512	60	37
176.477	176.512	69	37
177.075	177.149	65	51
177.076	177.153	71	51
177.079	177.573	50	31
177.153	177.225	69	35
177.156	177.226	72	35
177.229	177.261	65	31
177.23	177.265	71	31
177.573	177.649	69	53
177.574	178.07	62	32
177.574	178.069	65	32
177.574	177.65	77	53
177.653	177.726	71	36
177.654	177.727	79	36
177.727	177.765	69	32
177.73	177.768	77	32
178.07	178.143	77	38
178.073	178.143	68	55
178.073	178.147	76	55
178.074	178.574	52	33
178.148	178.22	71	38
178.22	178.262	68	34
178.221	178.262	76	34
178.574	178.65	74	57
178.577	179.061	64	35
178.577	179.06	68	35
178.577	178.651	83	57
178.651	178.724	76	39
178.654	178.725	84	39
178.725	178.759	74	35
178.727	178.76	83	35
179.063	179.141	72	59
179.064	179.144	81	59
179.067	179.63	64	36
179.067	179.631	69	36
179.068	179.631	57	36
179.144	179.218	76	41
179.148	179.218	83	41
179.221	179.252	72	36
179.221	179.253	81	36
179.634	179.711	81	51
179.635	179.871	38	31
179.635	179.712	89	51
179.637	179.876	45	31
179.714	179.792	83	35
179.715	179.792	91	35
179.795	179.834	81	31
179.795	179.834	89	31
180.299	180.723	96	45
180.3	180.724	33	31
180.3	180.724	84	38
180.3	180.723	88	38
180.302	180.726	45	31
181.986	182.281	64	82
181.987	182.364	57	66
181.989	182.19	52	84
181.989	182.364	60	66
181.99	182.364	45	71
182.189	182.364	48	51
182.19	182.357	52	61
182.281	182.364	64	68
182.357	182.525	52	61
182.361	182.708	47	51
182.442	182.708	62	57
182.442	182.617	64	68
182.525	182.707	52	61
182.526	182.708	45	51
182.617	182.708	60	52
182.617	182.708	64	65
182.707	183.071	44	60
182.707	182.89	52	71
182.795	182.978	64	76
182.796	182.978	59	56
182.89	183.065	52	64
182.891	183.071	40	54
182.977	183.071	71	67
182.978	183.071	59	50
182.978	183.071	64	50
183.064	183.393	42	53
183.065	183.243	52	63
183.149	183.349	64	59
183.152	183.393	57	63
183.243	183.393	52	63
183.244	183.393	44	53
183.349	183.414	59	60
183.349	183.414	64	58
183.441	183.723	64	82
183.446	183.816	57	66
183.446	183.816	60	66
183.449	183.816	45	71
183.449	183.638	52	84
183.638	183.81	52	61
183.642	183.816	48	51
183.723	183.816	64	68
183.81	183.979	52	61
183.813	184.163	47	51
183.894	184.163	62	57
183.894	184.069	64	68
183.979	184.156	52	61
183.981	184.163	45	51
184.069	184.163	60	52
184.069	184.163	64	65
184.156	184.527	52	71
184.16	184.534	44	60
184.254	184.534	64	71
184.255	184.443	59	56
184.352	184.534	51	64
184.353	184.534	41	54
184.439	184.534	69	63
184.443	184.534	59	50
184.444	184.534	63	50
184.527	184.72	52	63
184.528	184.849	40	53
184.623	184.849	68	63
184.625	184.829	64	50
184.626	184.849	59	50
184.717	184.849	56	63
184.72	184.849	52	53
184.829	184.908	64	63
184.937	185.221	64	69
184.938	185.308	69	69
184.938	185.223	76	86
184.94	185.308	57	88
184.94	185.308	72	69
184.941	185.308	45	74
185.139	185.308	60	66
185.14	185.308	48	55
185.221	185.308	64	59
185.223	185.308	76	74
185.304	185.654	59	66
185.305	185.654	47	55
185.385	185.654	74	74
185.388	185.56	64	59
185.388	185.56	76	59
185.466	185.654	57	66
185.468	185.654	45	55
185.56	185.654	64	56
185.56	185.654	76	72
185.563	185.654	72	56
185.651	186.029	44	65
185.651	186.029	56	77
185.746	186.029	64	62
185.746	186.029	76	77
185.749	185.927	71	62
185.839	186.029	52	71
185.84	186.029	40	60
185.927	186.029	71	54
185.927	186.029	83	69
186.011	186.319	54	69
186.012	186.319	42	57
186.103	186.296	64	54
186.105	186.298	76	69
186.106	186.319	69	59
186.197	186.319	56	69
186.2	186.319	44	57
186.296	186.368	64	54
186.298	186.372	71	58
186.298	186.372	76	69
186.396	186.681	64	69
186.4	186.68	76	86
186.403	186.77	69	69
186.404	186.77	57	88
186.404	186.77	72	69
186.405	186.77	45	74
186.596	186.77	48	56
186.596	186.77	60	67
186.68	186.77	76	76
186.681	186.77	64	64
186.761	187.111	47	57
186.761	187.111	59	68
186.848	187.111	74	78
186.851	187.022	64	66
186.851	187.023	76	66
186.932	187.111	45	59
186.932	187.111	57	71
187.022	187.111	64	61
187.023	187.111	72	61
187.023	187.111	76	77
187.106	187.488	56	83
187.11	187.488	44	71
187.208	187.488	64	67
187.209	187.488	76	84
187.212	187.488	71	67
187.306	187.488	53	81
187.31	187.488	41	69
187.394	187.488	69	63
187.394	187.488	81	80
187.397	187.488	75	63
187.482	187.769	40	66
187.482	187.769	52	81
187.573	187.769	80	81
187.576	187.768	68	63
187.576	187.765	76	63
187.667	187.769	56	67
187.67	187.769	64	81
187.671	187.769	59	67
187.765	187.845	76	82
187.768	187.845	68	69
187.769	187.846	71	69
187.873	188.164	69	72
187.873	188.165	76	92
187.877	188.16	64	72
187.877	188.251	73	75
187.878	188.251	45	77
187.878	188.251	57	92
188.076	188.251	59	69
188.077	188.251	47	58
188.16	188.251	64	62
188.161	188.251	74	62
188.164	188.251	69	62
188.165	188.251	76	78
188.244	188.531	49	58
188.244	188.531	61	69
188.322	188.493	76	73
188.324	188.531	69	62
188.325	188.49	64	62
188.405	188.531	57	69
188.406	188.531	45	58
188.49	188.559	64	59
188.493	188.56	73	59
188.493	188.559	76	75
188.58	188.941	62	81
188.584	188.951	50	68
188.675	188.951	74	67
188.678	188.951	86	84
188.679	188.951	77	67
188.77	188.951	61	68
188.772	188.951	70	81
188.85	188.951	76	63
188.853	188.951	79	63
188.853	188.951	88	79
188.941	189.252	62	65
188.941	189.126	69	79
189.029	189.224	77	63
189.031	189.252	89	79
189.032	189.252	81	63
189.126	189.252	69	79
189.127	189.252	65	65
189.222	189.29	74	63
189.224	189.291	77	63
189.224	189.291	86	79
189.311	189.602	62	72
189.312	189.601	74	90
189.315	189.6	67	72
189.316	189.689	55	92
189.316	189.689	71	72
189.319	189.689	43	77
189.515	189.689	57	69
189.518	189.689	45	58
189.599	189.689	72	65
189.6	189.689	67	65
189.601	189.689	74	78
189.602	189.689	62	65
189.683	189.962	47	58
189.683	189.962	59	69
189.767	189.962	67	65
189.77	189.935	62	65
189.77	189.938	74	78
189.851	189.962	55	69
189.852	189.962	43	58
189.935	189.997	62	59
189.938	189.998	74	75
189.939	189.998	71	59
190.022	190.396	60	81
190.023	190.396	48	68
190.121	190.396	76	67
190.124	190.305	84	67
190.124	190.396	88	84
190.215	190.39	67	81
190.218	190.396	62	68
190.303	190.396	77	63
190.303	190.396	89	79
190.305	190.396	84	63
190.39	190.575	67	79
190.393	190.736	64	65
190.482	190.736	91	79
190.484	190.736	79	63
190.484	190.682	84	63
190.575	190.736	67	79
190.579	190.736	60	65
190.681	190.757	76	65
190.681	190.757	88	79
190.682	190.761	84	65
190.789	191.156	89	92
190.79	191.156	77	72
190.79	191.065	80	72
190.79	191.065	83	77
190.792	191.156	50	77
190.792	191.156	62	92
190.984	191.156	65	58
190.988	191.15	68	58
190.989	191.15	71	69
191.065	191.188	80	65
191.065	191.188	83	65
191.066	191.189	86	78
191.068	191.504	74	65
191.149	191.504	64	58
191.15	191.318	68	58
191.15	191.318	71	69
191.234	191.504	76	65
191.234	191.408	83	65
191.237	191.406	80	65
191.237	191.504	88	78
191.317	191.504	62	58
191.318	191.504	68	58
191.318	191.504	71	69
191.405	191.504	77	59
191.406	191.504	80	59
191.406	191.504	89	75
191.408	191.504	83	59
191.503	191.87	60	68
191.503	191.87	72	81
191.504	191.856	69	68
191.587	191.87	76	67
191.587	191.87	88	84
191.591	191.87	81	67
191.681	191.87	65	65
191.682	191.87	68	77
191.684	191.87	59	65
191.769	191.902	80	60
191.772	191.903	74	60
191.772	191.902	86	75
191.773	191.906	77	60
191.856	192.244	57	63
191.856	192.244	69	75
191.857	192.043	64	63
191.947	192.14	76	60
191.948	192.244	84	75
191.95	192.244	81	60
191.951	192.244	72	60
192.042	192.244	61	63
192.043	192.244	55	63
192.043	192.244	64	75
192.14	192.244	76	63
192.14	192.244	85	75
192.141	192.244	73	63
192.143	192.244	82	63
192.238	192.65	53	68
192.239	192.65	62	68
192.239	192.65	65	81
192.339	192.65	82	67
192.34	192.65	74	67
192.34	192.65	77	67
192.34	192.65	86	84
192.434	192.65	51	65
192.437	192.65	63	77
192.438	192.633	60	65
192.441	192.637	57	65
192.535	192.685	89	61
192.536	192.686	93	76
192.539	192.686	81	61
192.539	192.689	84	61
192.633	193.086	60	64
192.636	192.847	52	64
192.637	193.086	57	64
192.637	192.843	64	77
192.738	193.081	84	62
192.738	193.082	93	78
192.739	192.963	88	62
192.742	193.079	81	62
192.843	193.086	56	65
192.843	193.086	59	65
192.843	193.086	64	79
192.847	193.085	52	65
192.958	193.086	83	65
192.959	193.086	92	79
192.962	193.086	80	65
192.963	193.082	88	65
193.079	193.547	81	67
193.081	193.834	84	68
193.082	193.834	88	71
193.082	193.834	93	83
193.085	193.834	45	72
193.085	193.834	52	72
193.086	193.834	57	84
193.546	193.834	72	68
193.547	193.834	76	68
193.547	193.834	81	75
193.55	193.834	64	61
193.551	193.834	60	61
193.551	193.834	69	69
194.457	194.751	76	43
194.519	194.575	84	57
194.52	194.58	57	43
194.635	194.695	81	45
194.636	194.695	64	36
194.751	194.813	76	46
194.754	194.818	52	36
194.88	194.936	72	40
194.881	194.939	64	36
195.003	195.073	60	38
195.003	195.073	69	41
195.143	195.199	64	35
195.143	195.198	76	43
195.261	195.328	72	43
195.266	195.328	57	33
195.391	195.457	64	34
195.391	195.44	69	43
195.462	195.766	76	43
195.534	195.594	83	57
195.535	195.595	56	43
195.647	195.71	64	36
195.647	195.71	80	45
195.77	195.843	52	36
195.77	195.843	76	46
195.919	195.983	86	46
195.92	195.983	64	36
196.046	196.102	83	50
196.049	196.106	56	43
196.164	196.227	76	46
196.165	196.228	64	36
196.284	196.35	80	43
196.287	196.35	59	33
196.412	196.469	76	43
196.413	196.486	64	34
196.487	196.787	76	43
196.556	196.616	84	57
196.557	196.617	57	43
196.672	196.732	81	45
196.676	196.732	64	36
196.792	196.865	52	36
196.792	196.864	76	46
196.935	196.998	72	46
196.938	197.001	64	36
197.065	197.121	60	41
197.065	197.121	69	44
197.183	197.243	76	51
197.184	197.244	64	36
197.302	197.369	57	33
197.302	197.369	72	45
197.431	197.484	69	43
197.436	197.501	64	34
197.505	197.83	76	43
197.579	197.645	56	43
197.579	197.642	83	57
197.708	197.765	64	36
197.708	197.764	80	45
197.831	197.902	52	36
197.831	197.901	76	42
197.974	198.038	64	36
197.974	198.038	76	35
198.1	198.166	71	43
198.103	198.167	56	39
198.23	198.307	68	38
198.231	198.307	59	33
198.381	198.713	64	44
198.643	198.944	84	43
198.678	198.944	88	43
198.713	198.768	96	57
198.714	198.769	57	43
198.828	198.884	93	45
198.829	198.888	64	36
198.945	199.007	88	46
198.947	199.007	52	36
199.066	199.129	84	40
199.067	199.13	64	36
199.192	199.262	81	41
199.196	199.266	60	38
199.329	199.391	64	35
199.329	199.388	88	43
199.447	199.511	84	43
199.448	199.512	57	33
199.581	199.651	64	34
199.581	199.64	81	43
199.651	199.966	83	43
199.686	199.966	88	43
199.72	199.78	95	57
199.721	199.781	56	43
199.843	199.903	92	45
199.844	199.903	64	36
199.966	200.04	88	46
199.967	200.04	52	36
200.116	200.179	98	46
200.117	200.18	64	36
200.242	200.302	95	50
200.246	200.302	56	43
200.358	200.424	88	46
200.362	200.425	64	36
200.48	200.547	92	43
200.484	200.547	59	33
200.61	200.686	64	34
200.61	200.672	88	43
200.687	200.998	84	43
200.718	200.999	88	43
200.753	200.813	96	57
200.754	200.814	57	43
200.876	200.942	93	45
200.879	200.942	64	36
201.002	201.075	52	36
201.002	201.071	88	46
201.142	201.208	84	46
201.145	201.208	64	36
201.271	201.331	60	41
201.271	201.33	81	44
201.393	201.45	88	51
201.394	201.453	64	36
201.516	201.579	57	33
201.516	201.579	84	45
201.642	201.698	81	43
201.645	201.712	64	34
201.713	202.037	83	43
201.754	202.038	88	43
201.786	201.852	95	57
201.789	201.852	56	43
201.908	201.974	92	45
201.912	201.975	64	36
202.038	202.108	88	42
202.041	202.109	52	36
202.178	202.241	64	36
202.178	202.241	83	35
202.31	202.366	80	42
202.311	202.367	59	37
202.43	202.507	71	35
202.433	202.507	68	29
202.584	202.86	64	36
202.584	202.787	76	42
202.797	203.095	76	55
202.864	202.98	61	55
202.864	202.975	88	74
202.98	203.095	85	58
202.982	203.096	69	46
203.098	203.214	81	59
203.099	203.218	57	46
203.218	203.343	76	52
203.221	203.344	69	46
203.344	203.406	73	49
203.473	203.591	69	57
203.596	203.721	67	60
203.722	203.854	64	63
203.858	204.103	50	61
203.858	203.913	65	71
203.859	204.103	57	61
203.969	204.04	62	64
204.106	204.166	86	68
204.225	204.288	81	64
204.355	204.411	77	63
204.474	204.534	74	55
204.596	204.662	65	59
204.726	204.789	62	59
204.799	205.111	79	52
204.866	204.985	59	52
204.866	204.984	86	70
204.988	205.112	83	55
204.991	205.112	67	43
205.112	205.227	79	56
205.114	205.227	55	43
205.227	205.352	77	49
205.228	205.353	67	43
205.356	205.415	74	46
205.478	205.6	71	54
205.601	205.73	65	57
205.731	205.863	62	59
205.864	205.919	64	67
205.865	206.112	48	57
205.867	206.115	55	57
205.986	206.049	60	60
206.115	206.179	84	64
206.234	206.297	79	60
206.36	206.423	76	59
206.487	206.549	72	52
206.605	206.668	64	56
206.731	206.816	60	50
206.896	206.952	83	60
206.9	207.141	56	36
206.9	207.141	62	36
206.9	207.141	65	43
207.011	207.074	81	59
207.012	207.074	89	45
207.145	207.2	80	59
207.256	207.312	77	58
207.257	207.313	86	45
207.372	207.435	76	59
207.495	207.553	74	57
207.495	207.554	83	43
207.61	207.669	72	58
207.732	207.791	71	57
207.732	207.792	80	42
207.847	207.91	69	57
207.852	208.093	60	36
207.852	208.093	64	43
207.97	208.026	67	56
207.971	208.026	76	45
208.093	208.152	65	50
208.215	208.271	64	50
208.216	208.272	72	44
208.334	208.394	62	50
208.45	208.516	60	50
208.454	208.517	69	43
208.572	208.635	59	50
208.695	208.765	57	49
208.695	208.765	64	41
208.827	208.894	65	50
208.95	209.013	50	50
209.073	209.133	71	47
209.073	209.132	81	56
209.195	209.251	77	50
209.196	209.255	74	42
209.318	209.374	68	50
209.434	209.496	52	50
209.556	209.619	83	56
209.557	209.619	71	47
209.682	209.748	80	49
209.685	209.749	74	41
209.811	209.878	81	50
209.812	209.881	72	42
209.955	210.039	64	39
209.955	210.036	69	47
210.126	210.221	60	47
210.322	210.465	57	42
210.616	211.197	45	43
211.778	214.809	93	62
211.779	214.809	81	43
211.781	214.809	84	43
211.782	214.765	69	43
211.782	211.841	76	18
211.842	211.964	77	18
211.904	212.024	76	18
211.964	212.087	77	18
212.024	212.143	76	19
212.087	212.203	77	19
212.143	212.261	76	20
212.203	212.325	77	20
212.261	212.384	76	21
212.325	212.443	77	21
212.384	212.499	76	21
212.443	212.556	77	22
212.499	212.615	76	22
212.556	212.675	77	22
212.615	212.731	76	23
212.675	212.791	77	23
212.731	212.847	76	23
212.791	212.905	77	24
212.847	212.965	76	24
212.905	213.021	77	24
212.965	213.081	76	25
213.021	213.144	77	26
213.081	213.206	76	27
213.144	213.27	77	28
213.206	213.336	76	29
213.27	213.406	77	29
213.336	213.469	76	31
213.406	213.533	77	31
213.469	213.595	76	33
213.533	213.661	77	33
213.595	213.718	76	32
213.661	213.781	77	32
213.718	213.847	76	32
213.781	213.917	77	32
213.847	213.981	76	31
213.917	214.05	77	29
213.98	214.764	88	58
213.981	214.114	76	28
214.05	214.183	77	29
214.114	214.239	76	29
214.183	214.306	77	29
214.239	214.371	76	29
214.306	214.439	77	29
214.369	214.809	96	61
214.371	214.501	76	28
214.439	214.565	77	27
214.501	214.624	76	27
214.565	214.687	77	27
214.624	214.767	76	27
214.687	214.809	77	26
214.761	216.259	95	61
214.764	217.788	83	42
214.764	216.23	88	42
214.765	217.754	69	43
214.765	217.788	74	43
214.767	214.82	76	26
214.82	214.953	77	26
214.883	215.019	76	27
214.953	215.083	77	27
215.019	215.149	76	27
215.083	215.209	77	27
215.146	216.259	93	58
215.149	215.268	76	27
215.209	215.331	77	27
215.268	215.391	76	27
215.331	215.446	77	27
215.391	215.509	76	27
215.446	215.562	77	27
215.507	216.259	92	57
215.509	215.622	76	26
215.562	215.681	77	26
215.622	215.738	76	26
215.681	215.797	77	26
215.738	215.856	76	26
215.797	215.919	77	26
215.856	215.975	76	26
215.856	216.259	90	55
215.919	216.039	77	26
215.975	216.098	76	26
216.039	216.16	77	26
216.098	216.231	76	26
216.16	216.259	77	26
216.23	217.343	88	57
216.231	216.289	76	25
216.29	216.346	77	26
216.349	216.475	76	27
216.413	216.535	77	27
216.475	216.599	76	28
216.535	216.654	77	29
216.598	217.788	90	55
216.599	216.714	76	30
216.654	216.773	77	30
216.714	216.836	76	30
216.773	216.892	77	30
216.836	216.954	76	30
216.892	217.015	77	30
216.952	217.788	92	58
216.954	217.075	76	30
217.015	217.137	77	31
217.075	217.207	76	31
217.137	217.27	77	30
217.207	217.344	76	30
217.27	217.411	77	29
217.343	217.753	88	61
217.344	217.48	76	28
217.411	217.543	77	28
217.48	217.613	76	27
217.543	217.684	77	27
217.613	217.756	76	26
217.684	217.788	77	26
217.75	219.072	93	64
217.753	220.654	84	44
217.753	220.654	88	44
217.754	220.647	69	43
217.754	220.654	72	43
217.756	217.816	76	26
217.816	217.942	77	26
217.879	218.002	76	26
217.942	218.065	77	26
218.002	218.131	76	26
218.065	218.187	77	27
218.131	218.247	76	27
218.187	218.303	77	27
218.247	218.363	76	28
218.303	218.418	77	28
218.363	218.478	76	29
218.418	218.541	77	29
218.478	218.593	76	30
218.541	218.653	77	30
218.593	218.709	76	30
218.653	218.768	77	30
218.709	218.824	76	30
218.768	218.891	77	30
218.824	218.951	76	30
218.891	219.014	77	30
218.951	219.073	76	30
219.013	219.201	95	53
219.014	219.13	77	30
219.072	219.188	93	47
219.073	219.192	76	30
219.129	219.201	92	47
219.13	219.201	77	30
219.188	220.654	93	65
219.192	219.243	76	28
219.244	219.363	77	29
219.304	219.419	76	30
219.363	219.475	77	32
219.419	219.538	76	32
219.475	219.595	77	32
219.537	220.654	95	61
219.538	219.658	76	33
219.595	219.713	77	33
219.658	219.769	76	33
219.713	219.825	77	33
219.769	219.892	76	33
219.825	219.948	77	33
219.892	220.007	76	31
219.892	220.654	96	62
219.948	220.063	77	31
220.007	220.123	76	32
220.063	220.179	77	32
220.123	220.24	76	33
220.179	220.301	77	33
220.239	220.654	98	65
220.24	220.364	76	36
220.301	220.427	77	36
220.364	220.49	76	36
220.427	220.561	77	37
220.49	220.648	76	37
220.561	220.654	77	37
220.644	223.545	86	46
220.645	223.545	92	46
220.645	222.093	99	69
220.647	223.543	69	43
220.647	223.545	71	43
220.648	220.707	76	37
220.707	220.83	77	36
220.77	220.889	76	36
220.83	220.946	77	36
220.889	221.004	76	35
220.946	221.064	77	35
221.004	221.12	76	32
221.064	221.173	77	31
221.12	221.229	76	31
221.173	221.289	77	30
221.229	221.34	76	30
221.289	221.397	77	30
221.34	221.449	76	29
221.397	221.509	77	29
221.449	221.562	76	30
221.509	221.62	77	31
221.562	221.68	76	32
221.62	221.733	77	33
221.68	221.792	76	34
221.68	222.093	100	60
221.733	221.852	77	32
221.792	221.915	76	31
221.852	221.985	77	29
221.915	222.062	76	28
221.985	222.093	77	26
222.062	222.12	76	24
222.062	223.545	88	65
222.125	222.18	77	24
222.181	222.304	76	24
222.247	222.363	77	24
222.304	222.419	76	24
222.363	222.478	77	24
222.419	222.535	76	25
222.478	222.594	77	23
222.535	222.653	76	23
222.594	222.709	77	23
222.653	222.769	76	23
222.709	222.832	77	23
222.769	222.891	76	21
222.832	222.948	77	21
222.891	223.007	76	21
222.948	223.063	77	21
223.007	223.122	76	21
223.063	223.186	77	21
223.122	223.244	76	19
223.186	223.308	77	19
223.244	223.378	76	19
223.308	223.455	77	19
223.378	223.545	76	19
223.455	223.545	77	19
223.542	226.58	84	43
223.543	226.538	69	43
223.543	226.58	81	43
223.543	226.58	93	62
223.545	223.608	76	19
223.609	223.738	77	18
223.679	223.802	76	18
223.738	223.861	77	18
223.802	223.916	76	19
223.861	223.983	77	19
223.916	224.039	76	20
223.983	224.099	77	20
224.039	224.155	76	21
224.099	224.215	77	21
224.155	224.27	76	21
224.215	224.33	77	22
224.27	224.389	76	22
224.33	224.446	77	22
224.389	224.505	76	23
224.446	224.56	77	23
224.505	224.62	76	23
224.56	224.676	77	24
224.62	224.736	76	24
224.676	224.795	77	24
224.736	224.852	76	25
224.795	224.914	77	26
224.852	224.981	76	27
224.914	225.044	77	28
224.981	225.114	76	29
225.044	225.177	77	29
225.114	225.243	76	31
225.177	225.31	77	31
225.243	225.369	76	33
225.31	225.433	77	33
225.369	225.498	76	32
225.433	225.554	77	32
225.498	225.618	76	32
225.554	225.688	77	32
225.618	225.76	76	31
225.688	225.821	77	29
225.758	226.538	88	63
225.76	225.891	76	28
225.821	225.957	77	29
225.891	226.02	76	29
225.957	226.077	77	29
226.02	226.15	76	29
226.077	226.212	77	29
226.149	226.58	96	62
226.15	226.272	76	28
226.212	226.339	77	27
226.272	226.402	76	27
226.339	226.465	77	27
226.402	226.539	76	27
226.465	226.58	77	26
226.534	228.032	95	61
226.535	229.558	83	42
226.538	229.534	69	43
226.538	229.558	74	43
226.538	228.002	88	42
226.539	226.594	76	26
226.594	226.728	77	26
226.664	226.791	76	27
226.728	226.86	77	27
226.791	226.923	76	27
226.86	226.983	77	27
226.92	228.032	93	57
226.923	227.043	76	27
226.983	227.105	77	27
227.043	227.164	76	27
227.105	227.221	77	27
227.164	227.28	76	27
227.221	227.336	77	27
227.279	228.032	92	57
227.28	227.396	76	26
227.336	227.455	77	26
227.396	227.511	76	26
227.455	227.571	77	26
227.511	227.635	76	26
227.571	227.694	77	26
227.634	228.032	90	57
227.635	227.757	76	26
227.694	227.815	77	26
227.757	227.879	76	26
227.815	227.935	77	26
227.879	228.002	76	26
227.935	228.032	77	26
228.002	228.06	76	25
228.002	229.121	88	58
228.061	228.123	77	26
228.127	228.246	76	27
228.19	228.313	77	27
228.246	228.372	76	28
228.313	228.429	77	29
228.369	229.558	90	57
228.372	228.491	76	30
228.429	228.551	77	30
228.491	228.607	76	30
228.551	228.667	77	30
228.607	228.732	76	30
228.667	228.788	77	30
228.73	229.558	92	58
228.732	228.852	76	30
228.788	228.911	77	30
228.852	228.978	76	30
228.911	229.045	77	30
228.978	229.122	76	30
229.045	229.184	77	30
229.121	229.531	88	61
229.122	229.251	76	30
229.184	229.321	77	29
229.251	229.384	76	29
229.321	229.454	77	29
229.384	229.535	76	29
229.454	229.558	77	29
229.531	232.422	84	44
229.531	232.422	88	44
229.534	232.415	69	43
229.534	232.422	72	43
229.534	230.857	93	64
229.535	229.596	76	26
229.597	229.727	77	26
229.661	229.793	76	26
229.727	229.856	77	26
229.793	229.912	76	26
229.856	229.978	77	27
229.912	230.035	76	27
229.978	230.095	77	27
230.035	230.15	76	28
230.095	230.217	77	28
230.15	230.273	76	29
230.217	230.333	77	29
230.273	230.389	76	30
230.333	230.448	77	30
230.389	230.514	76	30
230.448	230.57	77	30
230.514	230.627	76	30
230.57	230.686	77	30
230.627	230.745	76	30
230.686	230.799	77	30
230.745	230.858	76	30
230.798	230.993	95	53
230.799	230.914	77	30
230.857	230.973	93	47
230.858	230.974	76	30
230.91	230.993	92	47
230.914	230.993	77	30
230.973	232.422	93	65
230.974	231.028	76	28
231.029	231.151	77	29
231.088	231.207	76	30
231.151	231.267	77	32
231.207	231.328	76	32
231.267	231.383	77	32
231.327	232.422	95	60
231.328	231.442	76	33
231.383	231.498	77	33
231.442	231.557	76	33
231.498	231.616	77	33
231.557	231.676	76	33
231.616	231.732	77	33
231.673	232.422	96	62
231.676	231.788	76	31
231.732	231.848	77	31
231.788	231.911	76	32
231.848	231.971	77	32
231.911	232.03	76	33
231.971	232.086	77	33
232.03	232.149	76	36
232.03	232.422	98	64
232.086	232.212	77	36
232.149	232.279	76	36
232.212	232.342	77	37
232.279	232.416	76	37
232.342	232.422	77	37
232.411	238.284	86	46
232.411	233.849	99	66
232.412	238.284	92	46
232.415	235.327	69	43
232.415	238.284	71	43
232.416	232.464	76	37
232.464	232.583	77	36
232.527	232.643	76	36
232.583	232.703	77	36
232.643	232.758	76	35
232.703	232.817	77	35
232.758	232.87	76	32
232.817	232.93	77	31
232.87	232.986	76	31
232.93	233.039	77	30
232.986	233.094	76	30
233.039	233.146	77	30
233.094	233.206	76	29
233.146	233.259	77	29
233.206	233.315	76	30
233.259	233.374	77	31
233.315	233.43	76	32
233.374	233.489	77	33
233.427	233.849	100	60
233.43	233.548	76	31
233.489	233.605	77	30
233.548	233.669	76	29
233.605	233.734	77	28
233.669	233.818	76	26
233.734	233.849	77	25
233.815	238.284	88	65
233.818	233.87	76	26
233.875	233.937	77	26
233.938	234.06	76	26
233.997	234.116	77	25
234.06	234.176	76	25
234.116	234.234	77	25
234.176	234.29	76	24
234.234	234.35	77	24
234.29	234.406	76	24
234.35	234.466	77	24
234.406	234.522	76	23
234.466	234.582	77	23
234.522	234.641	76	22
234.582	234.697	77	20
234.641	234.756	76	20
234.697	234.813	77	20
234.756	234.878	76	20
234.813	234.935	77	20
234.878	234.998	76	19
234.935	235.064	77	19
234.998	235.135	76	19
235.064	235.233	77	19
235.135	235.328	76	19
235.233	235.404	77	19
235.324	238.284	79	43
235.324	237.892	93	62
235.327	238.284	69	43
235.327	238.284	85	43
235.328	235.474	76	18
235.404	235.54	77	18
235.474	235.603	76	18
235.54	235.666	77	18
235.603	235.726	76	19
235.666	235.782	77	19
235.726	235.848	76	20
235.782	235.905	77	20
235.848	235.964	76	21
235.905	236.02	77	21
235.964	236.079	76	21
236.02	236.138	77	22
236.079	236.195	76	22
236.138	236.254	77	22
236.195	236.31	76	23
236.254	236.37	77	23
236.31	236.426	76	23
236.37	236.486	77	24
236.426	236.544	76	24
236.486	236.602	77	24
236.544	236.66	76	25
236.602	236.723	77	26
236.66	236.787	76	27
236.723	238.284	77	28
236.787	238.284	76	34
237.168	238.284	100	55
237.532	238.284	97	55
237.892	238.284	93	59
238.229	239.62	91	61
238.564	239.62	88	58
238.9	239.62	85	57
239.236	239.62	81	56
239.59	241.095	79	56
239.94	241.099	77	55
240.286	244.018	89	59
240.289	241.098	86	50
240.29	241.168	76	54
240.29	244.077	81	50
240.652	244.077	74	52
241.095	244.077	79	43
241.095	243.654	91	62
241.098	244.077	71	43
241.098	244.077	86	43
241.099	241.228	77	18
241.168	241.295	76	18
241.228	241.351	77	18
241.295	241.414	76	18
241.351	241.47	77	19
241.414	241.532	76	19
241.47	241.588	77	20
241.532	241.654	76	20
241.588	241.71	77	21
241.654	241.767	76	21
241.71	241.826	77	21
241.767	241.886	76	22
241.826	241.942	77	22
241.886	242.002	76	22
241.942	242.058	77	23
242.002	242.118	76	23
242.058	242.169	77	23
242.118	242.225	76	24
242.169	242.285	77	24
242.225	242.344	76	24
242.285	242.407	77	25
242.344	242.47	76	26
242.407	242.537	77	27
242.47	244.077	76	28
242.537	244.077	77	33
242.922	244.077	98	55
243.297	244.077	95	55
243.654	244.077	91	59
244.018	245.424	89	61
244.368	245.424	86	58
244.711	245.424	83	57
245.054	245.424	79	56
245.397	246.923	77	56
245.746	246.943	76	55
246.1	246.943	88	59
246.101	246.943	84	50
246.103	246.922	74	54
246.103	246.943	79	50
246.492	246.943	72	52
246.918	249.834	89	62
246.919	249.834	68	40
246.919	249.103	83	43
246.922	249.834	74	43
246.923	246.985	77	18
246.985	247.115	76	18
247.052	247.175	77	18
247.115	247.238	76	18
247.175	247.294	77	19
247.238	247.353	76	19
247.294	247.416	77	20
247.353	247.476	76	20
247.416	247.532	77	21
247.476	247.592	76	21
247.532	247.65	77	21
247.592	247.706	76	22
247.65	247.766	77	22
247.706	247.822	76	22
247.766	247.882	77	23
247.822	247.938	76	23
247.882	247.997	77	23
247.938	248.056	76	24
247.997	248.113	77	24
248.056	248.172	76	24
248.113	248.228	77	25
248.172	248.294	76	26
248.228	248.361	77	27
248.294	249.834	76	28
248.361	249.834	77	32
248.749	249.834	86	55
249.103	249.834	83	55
249.456	249.834	81	59
249.81	250.513	80	55
250.17	250.562	76	55
250.511	250.863	74	50
250.513	250.867	80	46
250.513	250.864	88	55
250.867	251.259	71	50
251.259	251.619	72	53
251.26	251.619	88	53
251.262	251.62	81	45
251.623	251.984	76	55
251.984	252.705	81	55
251.987	252.705	85	45
251.987	252.705	88	53
252.336	252.705	79	55
252.68	253.443	77	55
252.683	253.443	89	55
252.684	253.044	86	46
253.044	253.443	86	53
253.407	254.167	83	53
253.768	254.167	81	53
254.133	255.89	76	41
254.133	255.89	80	55
254.136	255.89	86	49
254.549	255.89	95	55
254.955	255.726	92	51
255.369	255.89	88	44
255.726	255.89	92	43
255.862	258.073	93	43
255.865	257.398	81	38
255.865	259.085	84	45
257.398	259.085	81	30
258.752	258.864	40	70
258.865	258.973	42	76
258.974	259.086	44	80
259.089	260.195	33	70
259.089	260.195	45	83
259.175	260.195	52	70
259.271	259.365	57	70
259.361	259.456	64	79
259.365	260.195	57	80
259.365	259.918	60	67
259.456	260.195	64	68
259.547	260.195	69	68
259.646	260.195	72	68
259.646	259.736	76	80
259.648	260.195	48	84
259.649	260.195	36	71
259.736	260.195	76	70
259.82	260.195	81	69
259.915	260.195	84	68
259.915	260.003	88	81
259.918	260.195	60	80
260.003	260.195	88	73
260.093	260.195	93	73
260.191	260.752	100	81
260.192	260.752	98	68
260.194	260.752	47	84
260.195	260.752	35	71
260.282	260.752	92	72
260.369	260.468	88	72
260.468	260.752	86	68
260.468	260.752	88	80
260.469	260.752	59	78
260.552	260.752	80	72
260.646	260.748	76	68
260.748	261.364	76	75
260.751	261.364	33	70
260.751	261.364	45	83
260.751	261.364	72	63
260.839	261.364	69	71
260.937	261.038	64	66
261.038	261.364	60	55
261.038	261.36	64	65
261.039	261.364	57	78
261.36	262.022	56	62
261.36	262.21	64	73
261.361	262.109	59	62
261.457	262.486	32	59
261.557	262.486	35	61
261.657	262.486	88	86
261.658	262.486	80	73
261.658	262.208	83	73
261.661	262.486	40	62
261.661	262.47	76	73
261.749	262.486	44	63
261.836	262.486	47	64
261.927	262.486	52	66
262.022	262.486	56	65
262.109	262.486	59	67
262.207	263.67	91	86
262.208	262.747	83	73
262.208	262.746	86	73
262.21	262.486	64	68
262.21	263.67	79	73
262.287	262.486	68	69
262.382	262.486	71	71
262.47	263.313	76	75
262.564	263.67	71	72
262.648	263.67	68	72
262.746	263.311	86	73
262.746	263.67	89	86
262.747	263.313	83	73
262.75	263.67	64	71
262.75	263.67	77	73
262.834	263.67	59	70
262.928	263.67	56	69
263.019	263.67	52	68
263.114	263.67	47	67
263.212	263.67	44	66
263.31	263.67	88	81
263.311	263.67	86	68
263.313	263.67	40	65
263.313	263.67	76	68
263.313	263.67	83	68
263.397	263.67	35	64
263.491	263.67	32	63
263.64	264.765	33	70
263.642	264.765	45	83
263.746	264.765	52	70
263.839	263.933	57	70
263.932	264.024	64	79
263.933	264.765	57	80
263.933	264.485	60	67
264.024	264.765	64	68
264.119	264.765	69	68
264.213	264.305	76	80
264.216	264.765	72	68
264.217	264.765	36	71
264.217	264.765	48	84
264.305	264.765	76	70
264.391	264.765	81	69
264.483	264.765	84	68
264.483	264.577	88	81
264.485	264.765	60	80
264.577	264.765	88	73
264.664	264.765	93	73
264.759	265.322	100	81
264.762	265.322	98	68
264.763	265.322	35	71
264.763	265.322	47	84
264.843	265.322	92	72
264.937	265.028	88	72
265.028	265.322	88	80
265.029	265.322	86	68
265.032	265.322	59	78
265.123	265.322	80	72
265.22	265.315	76	68
265.315	265.945	76	75
265.319	265.945	45	83
265.319	265.945	72	63
265.32	265.945	33	70
265.407	265.945	69	71
265.505	265.606	64	66
265.606	265.945	60	55
265.606	265.931	64	65
265.607	265.945	57	78
265.931	266.099	64	73
265.935	266.099	52	72
265.935	266.466	56	52
265.936	266.466	40	61
265.938	266.466	47	61
266.096	266.466	76	61
266.099	266.466	52	53
266.099	266.466	64	51
266.216	266.466	77	62
266.218	266.466	53	54
266.218	266.466	65	52
266.337	266.466	78	63
266.34	266.466	66	53
266.341	266.466	54	55
266.459	266.943	79	65
266.46	266.943	55	56
266.46	266.943	67	55
266.575	266.943	68	56
266.575	266.943	80	66
266.579	266.943	56	57
266.691	266.943	81	68
266.693	266.943	69	57
266.694	266.943	57	58
266.807	266.943	82	69
266.809	266.943	70	58
266.81	266.943	58	59
266.924	267.397	83	71
266.925	267.397	59	61
266.925	267.397	71	60
267.041	267.397	60	62
267.041	267.397	72	61
267.041	267.397	84	72
267.156	267.397	85	74
267.157	267.397	73	62
267.159	267.397	61	63
267.273	267.397	86	75
267.274	267.397	74	63
267.275	267.397	62	64
267.394	267.988	87	77
267.395	267.988	63	65
267.395	267.988	75	65
267.511	267.765	88	80
267.513	267.768	64	66
267.513	267.768	76	68
267.639	267.988	65	64
267.639	267.988	77	70
267.639	267.988	89	83
267.765	267.988	88	77
267.768	267.988	64	63
267.768	267.988	76	65
268.059	268.168	40	70
268.171	268.273	42	76
268.273	268.384	44	80
268.385	269.494	33	70
268.385	269.494	45	83
268.479	269.494	52	70
268.57	268.665	57	70
268.662	268.763	64	79
268.664	269.224	60	67
268.665	269.494	57	80
268.763	269.494	64	68
268.854	269.494	69	68
268.951	269.036	76	80
268.952	269.494	48	84
268.952	269.494	72	68
268.954	269.494	36	71
269.036	269.494	76	70
269.126	269.494	81	69
269.221	269.494	84	68
269.221	269.308	88	81
269.224	269.494	60	80
269.308	269.494	88	73
269.393	269.494	93	73
269.491	270.051	100	81
269.492	270.051	98	68
269.494	270.051	35	71
269.494	270.051	47	84
269.582	270.051	92	72
269.673	269.767	88	72
269.767	270.051	88	80
269.768	270.051	59	78
269.768	270.051	86	68
269.858	270.051	80	72
269.953	270.047	76	68
270.047	270.67	76	75
270.05	270.67	45	83
270.05	270.67	72	63
270.051	270.67	33	70
270.145	270.67	69	71
270.243	270.335	64	66
270.335	270.67	60	55
270.335	270.66	64	65
270.337	270.67	57	78
270.66	271.322	56	62
270.66	271.416	59	62
270.66	271.51	64	73
270.758	271.79	32	59
270.863	271.79	35	61
270.961	271.79	88	86
270.965	271.773	76	73
270.965	271.79	80	73
270.965	271.508	83	73
270.966	271.79	40	62
271.048	271.79	44	63
271.143	271.79	47	64
271.234	271.79	52	66
271.322	271.79	56	65
271.416	271.79	59	67
271.507	272.047	86	73
271.507	272.969	91	86
271.508	272.049	83	73
271.509	272.969	79	73
271.51	271.79	64	68
271.595	271.79	68	69
271.681	271.79	71	71
271.773	272.612	76	75
271.86	272.969	71	72
271.955	272.969	68	72
272.046	272.969	89	86
272.047	272.61	86	73
272.049	272.969	77	73
272.049	272.612	83	73
272.05	272.969	64	71
272.133	272.969	59	70
272.232	272.969	56	69
272.326	272.969	52	68
272.417	272.969	47	67
272.511	272.969	44	66
272.61	272.969	86	68
272.61	272.969	88	81
272.612	272.969	76	68
272.612	272.969	83	68
272.613	272.969	40	65
272.697	272.969	35	64
272.795	272.969	32	63
272.946	274.065	33	70
272.948	274.065	45	83
273.047	274.065	52	70
273.138	273.24	57	70
273.236	273.331	64	79
273.239	273.786	60	67
273.24	274.065	57	80
273.331	274.065	64	68
273.425	274.065	69	68
273.52	274.065	72	68
273.52	273.61	76	80
273.521	274.065	48	84
273.523	274.065	36	71
273.61	274.065	76	70
273.698	274.065	81	69
273.785	274.065	84	68
273.785	273.877	88	81
273.786	274.065	60	80
273.877	274.065	88	73
273.968	274.065	93	73
274.058	274.621	100	81
274.062	274.621	47	84
274.062	274.621	98	68
274.063	274.621	35	71
274.149	274.621	92	72
274.243	274.335	88	72
274.335	274.621	88	80
274.336	274.621	86	68
274.338	274.621	59	78
274.429	274.621	80	72
274.521	274.618	76	68
274.618	275.251	72	63
274.618	275.251	76	75
274.619	275.251	45	83
274.621	275.251	33	70
274.714	275.251	69	71
274.811	274.909	64	66
274.909	275.238	64	65
274.912	275.251	57	78
274.912	275.251	60	55
275.238	275.765	56	52
275.238	275.396	64	73
275.241	275.399	52	72
275.242	275.765	40	61
275.242	275.765	47	61
275.395	275.765	76	61
275.396	275.765	64	51
275.399	275.765	52	53
275.522	275.765	65	52
275.522	275.765	77	62
275.524	275.765	53	54
275.644	275.765	66	53
275.644	275.765	78	63
275.645	275.765	54	55
275.759	276.242	79	65
275.76	276.242	67	55
275.762	276.242	55	56
275.881	276.242	80	66
275.882	276.242	56	57
275.882	276.242	68	56
275.997	276.242	69	57
275.997	276.242	81	68
275.998	276.242	57	58
276.114	276.242	70	58
276.114	276.242	82	69
276.116	276.242	58	59
276.228	276.7	83	71
276.231	276.7	71	60
276.232	276.7	59	61
276.344	276.7	84	72
276.347	276.7	60	62
276.347	276.7	72	61
276.463	276.7	61	63
276.463	276.7	73	62
276.463	276.7	85	74
276.579	276.7	62	64
276.579	276.7	74	63
276.579	276.7	86	75
276.694	277.176	87	77
276.695	277.176	75	65
276.697	277.176	63	65
276.816	277.071	88	80
276.817	277.072	64	66
276.817	277.072	76	68
276.939	277.176	77	70
276.939	277.176	89	83
276.94	277.176	65	64
277.071	277.467	88	77
277.072	277.47	64	63
277.072	277.468	76	65
277.47	278.595	57	72
277.474	278.052	49	61
277.474	278.598	52	61
277.579	278.598	61	60
277.673	278.598	64	60
277.765	277.859	69	70
277.768	278.598	37	68
277.859	278.598	69	61
277.954	278.598	73	61
278.049	278.598	79	62
278.049	278.139	82	73
278.051	278.598	58	74
278.052	278.598	49	62
278.052	278.598	55	62
278.139	278.497	82	64
278.223	278.406	85	64
278.317	278.598	94	76
278.318	278.598	91	64
278.32	278.598	45	68
278.406	278.598	85	67
278.497	278.598	82	67
278.594	279.15	93	74
278.595	279.15	57	76
278.595	279.15	89	62
278.598	279.148	49	64
278.598	279.15	53	64
278.677	279.15	85	66
278.77	278.864	81	66
278.864	279.15	77	61
278.864	279.15	81	72
278.865	279.15	37	68
278.958	279.15	73	72
279.049	279.15	69	64
279.144	279.773	79	63
279.147	279.773	76	45
279.148	279.773	49	60
279.148	279.773	52	66
279.148	279.773	55	78
279.242	279.773	70	69
279.337	279.773	69	65
279.437	279.773	67	64
279.438	279.773	64	54
279.441	279.773	45	71
279.536	279.773	58	63
279.627	279.773	57	61
279.767	279.914	62	67
279.767	279.914	65	77
279.77	279.915	38	65
279.77	279.915	53	77
280.046	280.145	73	55
280.047	280.305	67	55
280.05	280.18	64	66
280.051	280.18	55	56
280.051	280.18	58	56
280.134	280.232	74	54
280.218	280.319	76	55
280.309	280.403	77	56
280.31	280.568	74	56
280.312	280.442	65	69
280.313	280.442	57	58
280.313	280.443	62	58
280.393	280.491	79	57
280.481	280.578	81	58
280.572	280.824	79	59
280.572	280.666	85	59
280.573	280.697	67	60
280.573	280.697	76	71
280.575	280.698	70	60
280.655	280.746	86	60
280.736	280.834	88	61
280.824	280.917	89	62
280.825	281.061	86	62
280.827	280.946	69	62
280.827	280.945	77	73
280.828	280.946	74	62
280.904	280.991	91	63
280.988	281.072	93	64
281.061	281.149	97	64
281.062	281.303	91	64
281.065	281.184	82	64
281.065	281.184	88	76
281.066	281.184	79	64
281.142	281.23	98	65
281.218	281.313	100	66
281.306	281.582	101	67
281.307	281.582	98	67
281.31	281.582	93	67
281.311	281.582	81	66
281.311	281.582	86	66
281.311	281.582	89	78
281.811	282.395	47	61
281.811	282.934	55	72
281.814	282.935	50	61
281.916	282.935	59	60
282.011	282.935	62	60
282.108	282.199	67	70
282.109	282.935	35	68
282.199	282.935	67	61
282.294	282.935	71	61
282.391	282.935	77	62
282.391	282.476	80	73
282.392	282.935	56	74
282.395	282.935	47	62
282.395	282.935	53	62
282.476	282.836	80	64
282.567	282.746	83	64
282.661	282.935	92	76
282.662	282.935	43	68
282.662	282.935	89	64
282.746	282.935	83	67
282.836	282.935	80	67
282.931	283.492	88	62
282.931	283.492	91	74
282.934	283.492	55	76
282.935	283.491	47	64
282.935	283.492	52	64
283.021	283.492	83	66
283.106	283.204	79	66
283.204	283.492	79	72
283.207	283.492	35	68
283.207	283.492	76	61
283.299	283.492	71	69
283.389	283.492	67	64
283.487	284.114	77	63
283.488	284.114	74	45
283.491	284.114	47	61
283.491	284.114	50	66
283.491	284.114	53	78
283.582	284.114	68	69
283.68	284.114	67	65
283.774	284.114	65	64
283.775	284.114	43	71
283.775	284.114	62	54
283.873	284.114	56	63
283.971	284.114	55	61
284.103	284.25	60	65
284.104	284.251	52	73
284.104	284.251	64	77
284.107	284.252	36	65
284.38	284.48	71	55
284.383	284.516	62	66
284.383	284.649	65	55
284.387	284.517	53	56
284.387	284.517	56	56
284.474	284.575	72	54
284.561	284.659	74	55
284.649	284.747	76	56
284.65	284.911	72	56
284.652	284.779	55	58
284.652	284.775	64	69
284.653	284.779	60	58
284.733	284.835	77	57
284.824	284.922	79	58
284.915	285.003	83	59
284.916	285.038	68	60
284.916	285.038	74	71
284.916	285.163	77	59
284.917	285.041	65	60
284.992	285.09	84	60
285.08	285.174	86	61
285.164	285.251	88	62
285.168	285.282	76	73
285.168	285.402	84	62
285.171	285.286	67	62
285.171	285.286	72	62
285.247	285.332	89	63
285.321	285.41	91	64
285.405	285.643	89	64
285.405	285.489	95	64
285.406	285.517	86	76
285.409	285.524	77	64
285.409	285.521	80	64
285.479	285.573	96	65
285.559	285.654	98	66
285.643	285.825	100	67
285.644	285.825	96	67
285.646	285.825	88	78
285.646	285.825	91	67
285.647	285.825	79	66
285.647	285.825	84	66
285.919	286.199	60	68
285.923	286.199	48	63
286.008	286.199	62	72
286.011	286.199	50	67
286.102	286.199	64	73
286.103	286.199	52	70
286.19	286.956	53	76
286.19	286.956	65	82
286.192	286.956	41	76
286.477	286.956	77	64
286.477	286.956	89	76
286.478	286.746	68	70
286.479	286.747	62	59
286.48	286.749	59	59
286.746	287.026	68	70
286.746	287.022	71	66
286.746	287.022	83	78
286.747	287.029	62	60
286.749	287.029	59	60
287.029	287.306	59	69
287.03	287.306	35	62
287.033	287.306	47	74
287.117	287.306	60	73
287.205	287.306	62	75
287.292	288.108	63	83
287.295	288.108	51	80
287.296	288.108	39	80
287.578	288.108	87	78
287.579	287.849	66	71
287.579	288.108	75	66
287.582	287.852	57	60
287.582	287.851	60	60
287.848	288.131	81	79
287.849	288.136	66	69
287.849	288.135	69	67
287.851	288.136	60	59
287.852	288.136	57	56
288.139	288.415	33	64
288.139	288.415	45	76
288.139	288.415	57	70
288.219	288.415	59	74
288.31	288.415	60	77
288.402	289.171	61	86
288.405	289.171	37	81
288.405	289.171	49	81
288.688	289.171	85	79
288.689	288.958	64	73
288.689	289.171	73	67
288.692	288.961	55	62
288.692	288.959	58	62
288.955	289.241	79	81
288.958	289.242	64	74
288.958	289.241	67	69
288.959	289.245	58	62
288.961	289.245	55	62
289.246	289.332	55	72
289.248	289.524	31	65
289.249	289.524	43	77
289.332	289.524	56	76
289.423	289.524	58	78
289.518	290.385	35	85
289.518	290.385	47	85
289.518	290.385	59	88
289.808	290.385	83	81
289.809	290.091	62	74
289.809	290.385	71	69
289.81	290.092	56	63
289.811	290.092	53	63
290.089	290.385	65	70
290.089	290.385	77	83
290.091	290.385	62	75
290.092	290.379	53	64
290.092	290.385	56	64
290.379	290.669	29	66
290.379	290.669	53	73
290.382	290.669	41	79
290.467	290.669	56	77
290.561	290.669	58	79
290.655	291.481	47	87
290.655	291.481	59	89
290.656	291.481	35	87
290.953	291.481	71	70
290.953	291.481	83	83
290.954	291.247	62	76
290.956	291.247	53	64
290.956	291.247	57	64
291.243	291.523	77	85
291.244	291.523	65	72
291.247	291.527	53	65
291.247	291.524	57	65
291.247	291.524	62	77
291.527	291.838	53	75
291.528	291.838	29	68
291.53	291.838	41	81
291.621	291.838	57	79
291.722	291.838	58	81
291.824	292.681	59	92
291.825	292.681	35	88
291.825	292.681	47	88
292.13	292.681	83	85
292.132	292.416	63	78
292.132	292.681	71	72
292.133	292.419	53	66
292.133	292.419	57	66
292.415	292.723	77	86
292.416	292.727	63	78
292.416	292.724	65	73
292.419	292.728	53	66
292.419	292.728	57	66
292.73	293.094	57	94
292.731	293.094	45	81
292.837	293.094	43	84
292.837	293.094	55	97
292.96	293.094	41	87
292.96	293.094	53	100
293.087	293.672	52	102
293.088	294.34	40	91
293.665	294.382	83	92
293.666	294.382	76	78
293.666	294.382	81	92
293.668	294.382	71	78
293.669	294.382	57	69
293.669	294.382	59	82
293.669	294.337	64	82
293.672	294.338	52	69
294.337	294.992	64	98
294.338	294.995	52	90
294.34	295.717	40	76
294.988	295.717	88	91
294.989	295.717	83	91
294.991	295.717	76	77
294.991	295.717	80	77
294.992	295.717	59	82
294.992	295.717	64	82
294.995	295.717	52	69
294.995	295.717	56	69
295.713	296.263	45	89
295.716	296.263	33	75
295.717	296.263	36	75
295.72	296.263	40	75
295.807	296.263	52	60
295.899	296.119	57	60
295.99	296.08	64	70
295.992	296.263	60	70
296.08	296.263	64	61
296.119	296.263	57	79
296.168	296.263	69	61
296.259	296.35	76	73
296.263	296.65	57	84
296.263	296.812	72	62
296.35	296.812	76	64
296.388	296.812	60	80
296.434	296.812	81	64
296.523	296.609	88	76
296.524	296.812	84	64
296.525	296.812	59	85
296.609	296.812	88	67
296.65	296.812	57	81
296.7	296.812	93	67
296.801	297.358	96	62
296.801	297.358	100	74
296.802	297.358	64	87
296.893	297.358	93	66
296.987	297.075	88	66
297.075	297.358	84	61
297.075	297.358	88	72
297.166	297.358	81	67
297.204	297.348	40	82
297.253	297.347	76	64
297.347	297.915	76	63
297.348	297.764	40	87
297.348	297.915	72	45
297.439	297.915	69	69
297.484	297.915	43	82
297.533	297.624	64	65
297.624	297.915	64	64
297.627	297.915	60	54
297.628	297.915	41	88
297.719	297.915	57	63
297.764	297.914	40	82
297.81	297.915	52	61
297.911	298.454	33	75
297.911	298.454	45	89
297.912	298.454	37	75
297.914	298.454	40	75
298.002	298.454	52	60
298.096	298.313	57	60
298.184	298.275	64	70
298.188	298.454	61	70
298.275	298.454	64	61
298.313	298.454	57	80
298.362	298.454	69	61
298.45	298.538	76	73
298.451	299.003	73	62
298.454	298.842	57	85
298.538	299.003	76	64
298.582	299.003	60	79
298.625	299.003	81	64
298.717	298.804	88	76
298.719	299.003	58	84
298.719	299.003	85	64
298.804	299.003	88	67
298.842	299.003	57	81
298.895	299.003	93	67
298.99	299.548	100	74
298.992	299.548	67	85
298.992	299.548	97	62
299.083	299.548	93	66
299.175	299.269	88	66
299.269	299.548	88	72
299.27	299.548	85	61
299.357	299.548	81	67
299.402	299.542	45	83
299.448	299.539	76	64
299.539	300.113	76	63
299.541	300.113	73	45
299.542	299.963	45	88
299.634	300.113	69	69
299.685	300.113	48	83
299.731	299.825	64	65
299.825	300.113	64	64
299.828	300.113	61	54
299.829	300.113	46	88
299.917	300.113	57	63
299.963	300.109	45	81
300.011	300.113	52	61
300.109	300.676	45	75
300.112	300.676	50	89
300.113	300.676	38	75
300.113	300.676	41	75
300.199	300.676	53	60
300.294	300.525	57	60
300.393	300.483	65	70
300.394	300.676	62	70
300.483	300.676	65	61
300.525	300.67	57	81
300.575	300.676	69	61
300.669	300.76	74	62
300.669	300.759	77	73
300.67	301.065	57	85
300.76	301.211	77	64
300.806	301.211	60	78
300.844	301.211	81	64
300.939	301.022	89	76
300.942	301.211	86	64
300.943	301.211	58	84
301.022	301.211	89	67
301.065	301.211	57	75
301.107	301.211	93	67
301.2	301.75	101	74
301.204	301.75	98	62
301.205	301.75	65	87
301.289	301.75	93	66
301.376	301.467	89	66
301.467	301.75	89	72
301.47	301.75	86	61
301.558	301.75	81	67
301.6	301.737	38	83
301.649	301.736	77	64
301.736	301.83	77	63
301.737	302.024	38	91
301.737	301.834	74	45
301.835	302.307	69	69
301.881	302.307	37	84
301.925	302.02	65	65
302.02	302.307	65	66
302.021	302.307	62	66
302.024	302.307	38	89
302.111	302.307	57	66
302.157	302.307	40	82
302.206	302.297	53	68
302.297	303.423	53	90
302.3	303.423	41	76
302.559	303.423	83	87
302.56	303.112	65	82
302.56	303.423	71	73
302.56	303.109	74	73
302.562	302.85	56	69
302.562	303.423	62	69
302.85	303.423	56	91
302.853	303.423	44	77
303.108	303.423	86	87
303.109	303.423	74	73
303.111	303.423	77	73
303.112	303.423	65	70
303.112	303.423	68	83
303.115	303.396	59	70
303.396	304.204	59	90
303.397	304.491	47	76
303.654	304.491	89	87
303.655	304.491	77	73
303.655	304.201	80	73
303.658	304.491	62	69
303.658	304.491	68	69
303.658	304.491	71	82
303.941	304.491	52	92
303.945	304.491	40	78
304.2	304.491	76	73
304.2	304.491	88	87
304.201	304.491	80	73
304.204	304.491	56	72
304.204	304.491	59	72
304.204	304.491	64	85
304.488	305.03	33	75
304.488	305.03	45	89
304.491	305.03	36	75
304.492	305.03	40	75
304.571	305.03	52	60
304.666	304.893	57	60
304.756	304.844	64	70
304.757	305.03	60	70
304.844	305.03	64	61
304.893	305.03	57	81
304.932	305.03	69	61
305.027	305.115	76	73
305.029	305.576	72	62
305.03	305.423	57	86
305.115	305.576	76	64
305.153	305.576	60	80
305.198	305.576	81	64
305.289	305.576	84	64
305.289	305.376	88	76
305.292	305.576	59	88
305.376	305.576	88	67
305.423	305.576	57	80
305.467	305.576	93	67
305.559	306.111	100	74
305.562	306.111	64	89
305.562	306.111	96	62
305.649	306.111	93	66
305.74	305.829	88	66
305.829	306.111	84	61
305.829	306.111	88	72
305.92	306.111	81	67
305.964	306.104	40	82
306.007	306.101	76	64
306.101	306.661	76	63
306.102	306.661	72	45
306.104	306.517	40	87
306.195	306.661	69	69
306.238	306.661	43	82
306.287	306.381	64	65
306.381	306.661	64	64
306.382	306.661	41	88
306.382	306.661	60	54
306.473	306.661	57	63
306.517	306.661	40	82
306.567	306.661	52	61
306.658	307.2	45	89
306.66	307.2	33	75
306.661	307.2	37	75
306.661	307.2	40	75
306.748	307.2	52	60
306.843	307.063	57	60
306.934	307.2	61	70
306.934	307.018	64	70
307.018	307.2	64	61
307.063	307.2	57	80
307.109	307.2	69	61
307.198	307.284	76	73
307.2	307.592	57	85
307.2	307.746	73	62
307.284	307.746	76	64
307.33	307.746	60	80
307.372	307.746	81	64
307.459	307.746	85	64
307.459	307.547	88	76
307.462	307.746	58	84
307.547	307.746	88	67
307.592	307.746	57	79
307.638	307.746	93	67
307.739	308.298	100	74
307.74	308.298	67	86
307.74	308.298	97	62
307.83	308.298	93	66
307.924	308.016	88	66
308.016	308.298	88	72
308.019	308.298	85	61
308.104	308.298	81	67
308.148	308.285	45	83
308.194	308.284	76	64
308.284	308.856	76	63
308.285	308.712	45	88
308.285	308.856	73	45
308.383	308.856	69	69
308.428	308.856	48	83
308.477	308.575	64	65
308.575	308.856	64	64
308.576	308.856	46	88
308.576	308.856	61	54
308.667	308.856	57	63
308.712	308.852	45	81
308.754	308.856	52	61
308.852	309.419	45	75
308.855	309.419	50	89
308.856	309.419	38	75
308.856	309.419	41	75
308.942	309.419	53	60
309.038	309.268	57	60
309.132	309.223	65	70
309.136	309.419	62	70
309.223	309.419	65	61
309.268	309.412	57	82
309.315	309.419	69	61
309.409	309.499	77	73
309.412	309.808	57	85
309.412	309.5	74	62
309.503	309.958	77	64
309.549	309.958	60	81
309.59	309.958	81	64
309.675	309.763	89	76
309.678	309.958	58	85
309.678	309.958	86	64
309.763	309.958	89	67
309.808	309.958	57	78
309.857	309.958	93	67
309.951	310.51	101	74
309.952	310.51	65	84
309.952	310.51	98	62
310.043	310.51	93	66
310.13	310.221	89	66
310.221	310.51	89	72
310.223	310.51	86	61
310.315	310.51	81	67
310.353	310.498	38	83
310.402	310.497	77	64
310.497	310.588	74	45
310.497	310.584	77	63
310.498	310.777	38	91
310.589	311.067	69	69
310.634	311.067	37	84
310.68	310.775	65	65
310.775	311.067	62	66
310.775	311.067	65	66
310.777	311.067	38	89
310.872	311.067	57	66
310.918	311.067	40	82
310.963	311.058	53	68
311.058	312.208	53	90
311.06	312.208	41	76
311.326	312.208	83	87
311.33	312.208	71	73
311.333	311.883	65	82
311.333	311.88	74	73
311.334	311.617	56	69
311.334	312.208	62	69
311.617	312.208	56	91
311.618	312.208	44	77
311.879	312.208	86	87
311.88	312.208	74	73
311.882	312.208	77	73
311.883	312.208	65	70
311.883	312.208	68	83
311.886	312.18	59	70
312.18	313.157	59	90
312.181	313.563	47	76
312.477	313.563	89	87
312.478	313.563	77	73
312.478	313.154	80	73
312.482	313.563	68	69
312.482	313.563	71	82
312.484	313.563	62	69
312.811	313.563	52	92
312.814	313.563	40	78
313.153	313.563	88	87
313.154	313.563	76	73
313.154	313.563	80	73
313.156	313.563	64	85
313.157	313.563	56	72
313.157	313.563	59	72
313.56	314.05	45	99
313.563	316.069	33	89
313.846	314.147	49	68
313.851	315.965	37	63
313.955	314.242	52	70
313.958	315.866	40	64
314.05	315.767	45	65
314.05	314.34	57	71
314.144	314.432	61	73
314.147	315.675	49	65
314.239	314.525	64	74
314.242	315.575	52	66
314.338	314.617	69	76
314.34	315.478	57	67
314.431	314.717	73	78
314.432	315.386	61	68
314.523	314.81	76	79
314.525	315.292	64	69
314.616	314.897	81	81
314.617	315.194	69	70
314.715	315.103	85	82
314.717	315.106	73	71
314.809	315.012	88	84
314.81	315.013	76	71
314.897	315.191	81	82
314.897	316.149	93	97
315.012	316.149	88	86
315.013	315.29	76	72
315.103	316.149	85	86
315.106	315.382	73	72
315.191	316.149	81	85
315.194	315.475	69	71
315.29	316.149	76	83
315.292	315.573	64	71
315.382	316.149	73	82
315.386	315.674	61	69
315.475	316.149	69	80
315.478	315.765	57	68
315.573	316.149	64	79
315.575	315.866	52	67
315.674	316.149	61	77
315.675	315.964	49	66
315.765	316.149	57	76
315.767	316.068	45	65
315.866	316.149	40	65
315.866	316.149	52	74
315.964	316.149	49	73
315.965	316.149	37	63
316.068	316.548	45	101
316.069	318.561	33	87
316.345	316.633	49	69
316.346	318.463	37	57
316.451	316.719	52	71
316.454	318.369	40	59
316.545	316.808	57	73
316.548	318.277	45	61
316.629	316.895	61	74
316.633	318.186	49	62
316.717	316.98	64	76
316.719	318.102	52	64
316.807	317.067	69	78
316.808	318.014	57	66
316.892	317.162	73	80
316.895	317.928	61	68
316.979	317.242	76	82
316.98	317.847	64	70
317.066	317.325	81	84
317.067	317.759	69	72
317.161	317.407	85	85
317.162	317.678	73	73
317.239	317.595	88	87
317.242	317.595	76	74
317.322	317.508	93	88
317.325	317.508	81	76
317.406	318.561	97	89
317.407	317.676	85	77
317.508	317.757	81	76
317.508	318.561	93	88
317.595	317.844	76	75
317.595	318.561	88	88
317.676	318.561	85	86
317.678	317.925	73	74
317.757	318.561	81	84
317.759	318.012	69	72
317.844	318.561	76	83
317.847	318.1	64	71
317.925	318.561	73	81
317.928	318.186	61	70
318.012	318.561	69	80
318.014	318.274	57	68
318.1	318.561	64	78
318.102	318.368	52	66
318.186	318.46	49	65
318.186	318.561	61	76
318.274	318.561	57	75
318.277	318.558	45	63
318.368	318.561	52	73
318.369	318.561	40	62
318.46	318.561	49	72
318.463	318.561	37	60
318.558	318.978	45	99
318.561	321.424	33	89
318.799	321.329	37	60
318.799	319.065	49	73
318.89	319.152	52	70
318.891	321.225	40	61
318.977	319.234	57	72
318.978	321.131	45	63
319.062	319.321	61	73
319.065	321.033	49	64
319.15	319.402	64	75
319.152	320.94	52	65
319.233	319.482	69	77
319.234	320.854	57	67
319.32	319.569	73	78
319.321	320.759	61	68
319.401	319.652	76	80
319.402	320.672	64	70
319.482	320.591	69	71
319.482	319.734	81	82
319.569	320.505	73	73
319.569	319.832	85	83
319.65	320.129	88	88
319.652	320.423	76	74
319.733	320.339	93	90
319.734	320.34	81	76
319.829	320.241	97	91
319.832	320.244	85	77
319.992	321.425	101	94
319.993	321.425	89	79
320.126	321.425	100	93
320.129	320.423	88	78
320.241	321.425	97	91
320.244	320.504	85	78
320.339	321.425	93	89
320.34	320.588	81	76
320.423	320.672	76	74
320.423	321.425	88	86
320.504	321.425	85	85
320.505	320.756	73	73
320.588	321.425	81	84
320.591	320.85	69	71
320.672	320.938	64	70
320.672	321.425	76	83
320.756	321.425	73	81
320.759	321.033	61	68
320.85	321.425	69	80
320.854	321.13	57	67
320.938	321.425	64	79
320.94	321.224	52	65
321.033	321.327	49	64
321.033	321.425	61	78
321.13	321.425	57	77
321.131	321.424	45	62
321.224	321.425	52	76
321.225	321.425	40	61
321.327	321.431	49	75
321.329	321.431	37	59
321.424	321.571	33	68
321.424	321.57	45	78
321.533	321.644	46	71
321.536	321.645	34	61
321.62	321.718	45	78
321.624	321.721	33	66
321.697	321.792	34	59
321.697	321.788	46	72
321.767	321.865	33	66
321.767	321.864	45	80
321.841	321.938	46	71
321.844	321.942	34	59
321.917	322.008	45	78
321.921	322.012	33	66
321.987	322.078	46	72
321.988	322.082	34	59
322.061	322.159	33	66
322.061	322.155	45	79
322.131	322.233	34	59
322.131	322.232	46	70
322.207	322.302	45	75
322.208	322.303	33	67
322.278	322.369	46	72
322.279	322.37	34	61
322.348	322.439	33	67
322.348	322.439	45	77
322.415	322.515	46	72
322.418	322.516	34	62
322.491	322.586	45	78
322.492	322.587	33	67
322.561	322.656	46	76
322.562	322.657	34	61
322.631	322.939	45	81
322.632	322.939	33	64
322.709	322.939	34	66
322.709	322.939	46	80
322.782	322.939	47	82
322.786	322.939	35	68
322.859	322.939	48	85
322.862	322.939	36	70
322.937	323.265	37	73
322.937	323.265	49	87
323.017	323.265	38	75
323.017	323.265	50	89
323.091	323.265	51	91
323.094	323.265	39	77
323.174	323.265	52	93
323.175	323.265	40	79
323.255	323.594	53	96
323.258	323.594	41	82
323.336	323.594	52	98
323.338	323.594	40	83
323.419	323.594	39	82
323.419	323.594	51	99
323.497	323.594	50	98
323.5	323.594	38	82
323.574	323.885	49	96
323.576	323.885	37	81
323.654	323.885	48	95
323.657	323.885	36	80
323.731	323.885	47	94
323.734	323.885	35	80
323.804	323.885	46	92
323.808	323.885	34	79
323.885	325.53	33	90
323.885	324.382	45	107
324.371	325.53	76	100
324.371	324.865	81	100
324.374	324.865	69	85
324.374	325.53	73	85
324.378	325.53	52	78
324.378	324.869	57	86
324.379	325.53	49	72
324.382	325.53	45	72
324.861	325.53	93	100
324.862	325.53	88	100
324.865	325.53	69	86
324.865	325.53	81	85
324.865	325.53	85	85
324.866	325.53	64	78
324.869	325.53	57	72
324.869	325.53	61	72
