OnsetTime	OffsetTime	MidiPitch	Velocity
0.500004	3.30222	44	79
0.500004	3.30222	56	79
3.23037	6.18868	37	75
3.23037	4.0153	49	75
3.40445	3.895	56	60
3.52968	3.77396	61	64
3.65219	4.37184	64	65
3.77396	4.25376	61	62
3.895	4.13488	56	61
4.0153	4.7226	49	57
4.13488	4.6046	56	58
4.25376	4.48712	61	60
4.37184	5.0751	64	60
4.48712	4.95694	61	58
4.6046	4.83938	56	57
4.7226	5.42642	49	53
4.83938	5.30911	56	54
4.95694	5.19181	61	55
5.0751	5.78716	64	54
5.19181	5.66445	61	52
5.30911	5.54433	56	50
5.42642	6.18868	49	45
5.54433	6.04663	56	47
5.66445	5.91336	61	49
5.78716	6.18868	64	46
5.91336	6.18868	61	43
6.04663	6.18868	56	38
6.18868	6.90951	49	22
6.27716	6.45296	68	37
6.30649	6.77832	56	25
6.36498	6.90951	69	41
6.42355	6.66059	61	28
6.45296	6.63118	68	38
6.54242	6.90951	64	30
6.54242	6.90951	67	39
6.63118	6.90951	68	40
6.66059	6.90951	61	28
6.71933	6.90951	73	42
6.77832	6.90951	56	27
6.808	6.90951	76	43
6.89693	7.01449	52	26
6.89693	6.98525	75	45
6.98525	7.07298	73	43
7.01449	7.13154	56	28
7.07298	7.16095	75	45
7.13154	7.2498	61	30
7.16095	7.2498	73	43
7.2498	7.3672	64	31
7.2498	7.33787	72	44
7.33787	7.42612	73	46
7.3672	7.48511	61	28
7.42612	7.51462	76	49
7.48511	7.61946	56	27
7.51462	7.61946	80	47
7.61946	8.35026	49	27
7.72021	7.8973	68	45
7.74989	8.22024	56	30
7.80906	8.35026	69	49
7.86797	8.10311	61	34
7.8973	8.0736	68	45
7.9851	8.35026	64	36
7.9851	8.35026	67	46
8.0736	8.35026	68	48
8.10311	8.35026	61	34
8.16175	8.35026	73	50
8.22024	8.35026	56	33
8.24939	8.35026	76	51
8.33772	8.45642	52	31
8.33772	8.42657	75	54
8.42657	8.51586	73	51
8.45642	8.57503	56	33
8.51586	8.60444	75	53
8.57503	8.69224	61	36
8.60444	8.69224	73	51
8.69224	8.8105	64	37
8.69224	8.78065	72	52
8.78065	8.87011	73	54
8.8105	8.92937	61	34
8.87011	8.95888	76	57
8.92937	9.06338	56	32
8.95888	9.06338	80	55
9.06338	10.4945	51	31
9.16446	10.1419	69	55
9.19459	9.67194	57	35
9.25478	10.4945	73	55
9.31469	9.55314	61	39
9.34455	10.4945	75	58
9.43387	10.4945	66	45
9.43387	10.4945	78	61
9.52336	10.4945	81	64
9.55314	9.90708	61	39
9.61259	10.406	85	67
9.67194	10.4945	57	37
9.70153	10.2304	87	70
9.7902	10.4945	54	37
9.7902	10.4945	95	74
9.87793	10.4945	93	72
9.90708	10.3765	61	40
9.96539	10.4945	92	71
10.024	10.2595	63	44
10.0534	10.3178	90	70
10.1419	10.4945	69	46
10.1419	10.4945	88	69
10.2304	10.4945	87	68
10.2595	10.4945	63	44
10.3178	10.4945	90	67
10.3765	10.4945	61	41
10.406	10.4945	85	66
10.4945	11.1978	44	33
10.4945	11.9461	84	68
10.5824	11.9461	87	63
10.6115	11.0809	51	35
10.6703	10.9347	81	63
10.7293	10.9639	54	38
10.7588	11.9461	80	63
10.8469	11.5529	60	39
10.8469	11.1978	78	60
10.9347	11.9461	81	58
10.9639	11.4338	54	36
11.0224	11.9461	76	54
11.0809	11.3156	51	34
11.1101	11.4635	75	54
11.1978	11.9461	44	29
11.1978	11.9461	78	53
11.2861	11.9461	73	48
11.3156	11.8002	51	31
11.3747	11.9461	72	48
11.4338	11.6748	54	33
11.4635	11.9461	75	47
11.5529	11.9461	60	33
11.5529	11.8319	69	45
11.644	11.9461	68	42
11.6748	11.9461	54	29
11.737	11.9461	71	42
11.8002	11.9461	51	26
11.8319	12.1226	69	41
11.9461	12.6669	49	22
12.0347	12.2105	68	37
12.064	12.5371	56	25
12.1226	12.6669	69	41
12.181	12.4192	61	28
12.2105	12.3894	68	38
12.2998	12.6669	64	30
12.2998	12.6669	67	39
12.3894	12.6669	68	40
12.4192	12.6669	61	28
12.4783	12.6669	73	42
12.5371	12.6669	56	27
12.5664	12.6669	76	43
12.6544	12.7729	52	26
12.6544	12.7432	75	45
12.7432	12.8324	73	43
12.7729	12.8917	56	28
12.8324	12.9212	75	45
12.8917	13.0092	61	30
12.9212	13.0092	73	43
13.0092	13.127	64	31
13.0092	13.0975	72	44
13.0975	13.1862	73	46
13.127	13.2453	61	28
13.1862	13.2749	76	49
13.2453	13.3812	56	27
13.2749	13.3812	80	47
13.3812	14.1156	49	27
13.4819	13.6594	68	45
13.5115	13.9842	56	30
13.5707	14.1156	70	49
13.6299	13.8666	58	34
13.6594	13.8371	68	45
13.748	14.1156	64	36
13.748	14.1156	67	46
13.8371	14.1156	68	48
13.8666	14.1156	58	34
13.9256	14.1156	73	50
13.9842	14.1156	56	33
14.0137	14.1156	76	51
14.1029	14.2218	52	31
14.1029	14.1922	75	54
14.1922	14.2809	73	51
14.2218	14.3398	56	33
14.2809	14.3691	75	53
14.3398	14.4572	58	36
14.3691	14.4572	73	51
14.4572	14.5759	61	37
14.4572	14.5461	72	52
14.5461	14.6351	73	54
14.5759	14.6942	58	34
14.6351	14.7237	76	57
14.6942	14.83	56	32
14.7237	14.83	80	55
14.83	15.5562	51	30
14.83	15.0208	75	64
14.9304	16.2617	76	58
14.9606	15.4379	56	34
15.0208	15.1998	75	61
15.0807	15.3191	59	37
15.1105	16.2617	74	50
15.1998	16.2617	63	39
15.1998	16.2617	75	56
15.2893	15.9089	83	68
15.3191	16.2617	59	38
15.3786	15.9963	82	62
15.4379	16.2617	56	35
15.4675	16.0847	80	65
15.5562	16.2617	51	38
15.5562	16.1732	79	69
15.6439	16.2617	88	73
15.6731	16.1437	58	41
15.732	16.2617	87	72
15.791	16.0257	61	45
15.8205	16.2617	85	72
15.9089	16.2617	67	46
15.9089	16.2617	83	75
15.9963	16.2617	82	69
16.0257	16.2617	61	44
16.0847	16.2617	80	68
16.1437	16.2617	58	41
16.1732	16.2617	79	68
16.2617	16.9648	44	33
16.2617	17.7035	82	72
16.3502	16.7901	80	70
16.3797	16.8479	51	35
16.438	17.7035	83	64
16.4964	16.7322	56	37
16.5258	17.7035	74	57
16.6142	17.3199	59	39
16.6142	17.7035	76	65
16.7027	17.1416	75	57
16.7322	17.2008	56	39
16.7901	17.7035	80	63
16.8479	17.0826	51	37
16.8771	17.3199	70	57
16.9648	17.7035	44	33
16.9648	17.7035	73	61
17.0531	17.7035	71	59
17.0826	17.5694	51	35
17.1416	17.7035	75	58
17.2008	17.4425	56	38
17.2305	17.5053	67	56
17.3199	17.7035	59	39
17.3199	17.7035	70	60
17.4114	17.6021	68	51
17.4425	17.7035	56	35
17.5053	17.7035	67	55
17.5694	17.7035	51	33
17.6021	17.7035	68	50
17.7035	18.5216	45	39
17.7035	19.3355	68	72
17.8084	19.3355	80	58
17.843	18.3872	49	41
17.9121	18.3199	72	59
17.9808	18.2527	54	43
18.015	18.4208	73	59
18.1173	18.9249	57	45
18.1173	18.9249	66	71
18.2189	19.0262	78	60
18.2527	18.7902	54	44
18.3199	18.7229	72	60
18.3872	18.6557	49	42
18.4208	18.8238	73	61
18.5216	19.3355	45	42
18.5216	19.3355	65	75
18.6222	19.3355	77	62
18.6557	19.1966	49	44
18.7229	19.128	72	63
18.7902	19.06	54	45
18.8238	19.2311	73	63
18.9249	19.3355	57	45
18.9249	19.3355	66	74
19.0262	19.3355	78	65
19.06	19.3355	54	45
19.128	19.3355	72	64
19.1966	19.3355	49	44
19.2311	19.3355	73	64
19.3355	20.1983	47	44
19.3355	20.1983	61	77
19.4387	20.1983	73	65
19.4724	20.0105	54	46
19.5396	19.9432	66	65
19.6069	19.8759	57	48
19.6405	20.044	69	65
19.7414	20.1983	59	49
19.7414	20.1983	63	75
19.8423	20.1983	75	65
19.8759	20.1983	57	47
19.9432	20.1983	66	65
20.0105	20.1983	54	45
20.044	20.1983	69	65
20.1446	20.9609	40	45
20.1446	20.9609	64	79
20.2454	20.857	76	66
20.279	20.8224	47	46
20.3464	20.5492	68	66
20.4139	20.685	52	48
20.4476	20.7535	71	66
20.5492	20.9609	56	47
20.5492	20.9609	68	77
20.6509	20.9609	80	67
20.685	20.9609	52	46
20.7535	20.9609	71	66
20.8224	20.9609	47	45
20.857	20.9609	76	65
20.9609	21.7706	45	44
20.9609	22.5844	68	81
21.0624	22.5844	80	65
21.0963	21.6362	49	46
21.164	21.5689	72	65
21.2317	21.5016	54	48
21.2654	21.6698	73	65
21.3667	22.1739	57	49
21.3667	22.1739	66	78
21.4679	22.2751	78	65
21.5016	22.0391	54	47
21.5689	21.9719	72	65
21.6362	21.9047	49	45
21.6698	22.0728	73	65
21.7706	22.5844	45	45
21.7706	22.5844	65	79
21.8712	22.5844	77	66
21.9047	22.4456	49	46
21.9719	22.377	72	66
22.0391	22.309	54	48
22.0728	22.4801	73	66
22.1739	22.5844	57	47
22.1739	22.5844	66	77
22.2751	22.5844	78	67
22.309	22.5844	54	46
22.377	22.5844	72	66
22.4456	22.5844	49	45
22.4801	22.5844	73	65
22.5844	23.5737	47	44
22.5844	24.2909	65	81
22.6873	24.2909	77	65
22.7216	23.2811	51	46
22.7902	23.2085	71	65
22.8588	23.137	57	48
22.893	23.3183	75	65
22.9962	24.2909	59	49
22.9962	24.2909	66	78
23.1016	24.2909	78	65
23.137	24.2909	57	47
23.2085	23.6443	71	65
23.2811	24.2909	51	45
23.3183	24.2909	75	65
23.4335	24.2909	40	45
23.4335	24.2909	69	79
23.5385	24.2909	81	66
23.5737	24.1462	47	46
23.6443	24.0739	71	66
23.7151	24.0017	52	48
23.7507	24.1825	76	66
23.8578	24.2909	56	47
23.8578	24.2909	68	77
23.9656	24.2909	80	67
24.0017	24.2909	52	46
24.0739	24.2909	71	66
24.1462	24.2909	47	45
24.1825	24.2909	76	65
24.2909	25.1006	45	30
24.2909	25.9144	68	52
24.3925	25.9144	80	57
24.4263	24.9662	49	33
24.494	24.8989	72	47
24.5617	24.8316	54	34
24.5954	24.9998	73	47
24.6967	25.5039	57	35
24.6967	25.5039	66	49
24.7979	25.6051	78	54
24.8316	25.3692	54	34
24.8989	25.3019	72	48
24.9662	25.2347	49	34
24.9998	25.4028	73	48
25.1006	25.9144	45	34
25.1006	25.9144	65	51
25.2012	25.9144	77	56
25.2347	25.7756	49	34
25.3019	25.707	72	50
25.3692	25.639	54	36
25.4028	25.8101	73	50
25.5039	25.9144	57	36
25.5039	25.9144	66	53
25.6051	25.9144	78	58
25.639	25.9144	54	35
25.707	25.9144	72	51
25.7756	25.9144	49	34
25.8101	25.9144	73	51
25.9144	26.7773	47	34
25.9144	26.7773	61	55
26.0177	26.7773	73	60
26.0514	26.5895	54	37
26.1186	26.5222	66	52
26.1858	26.4549	57	38
26.2195	26.623	69	53
26.3204	26.7773	59	39
26.3204	26.7773	63	55
26.4213	26.7773	75	62
26.4549	26.7773	57	38
26.5222	26.7773	66	54
26.5895	26.7773	54	38
26.623	26.7773	69	54
26.7236	27.539	40	37
26.7236	27.539	64	57
26.8244	27.436	76	65
26.858	27.4014	47	39
26.9254	27.1282	68	56
26.9929	27.264	52	40
27.0266	27.3325	71	56
27.1282	27.539	56	40
27.1282	27.539	68	60
27.2299	27.539	80	68
27.264	27.539	52	40
27.3325	27.539	71	57
27.4014	27.539	47	39
27.436	27.539	76	58
27.539	28.3498	45	39
27.539	28.4034	68	62
27.6414	28.4034	80	68
27.6755	28.216	49	42
27.7435	28.1489	72	59
27.8114	28.0817	54	43
27.8453	28.2495	73	59
27.9468	28.4034	57	45
27.9468	28.4034	66	62
28.048	28.4034	78	70
28.0817	28.4034	54	43
28.1489	28.4034	72	61
28.216	28.4034	49	42
28.2495	28.4034	73	61
28.3498	29.2202	45	42
28.3498	29.2202	75	64
28.4505	29.2202	87	73
28.4841	29.0275	51	44
28.5515	28.9586	78	62
28.619	28.8901	54	45
28.6527	29.0621	81	62
28.7543	29.2202	57	44
28.7543	29.1655	73	66
28.856	29.2202	85	74
28.8901	29.2202	54	44
28.9586	29.2202	78	62
29.0275	29.2202	51	42
29.0621	29.2202	81	62
29.1655	29.5689	44	42
29.1655	29.5689	73	64
29.2681	29.5689	85	73
29.3021	29.5689	51	44
29.3703	29.5689	75	61
29.4383	29.574	54	45
29.4723	29.574	78	61
29.574	30.3813	60	42
29.574	29.9783	72	64
29.6755	30.0786	84	71
29.7092	30.2464	54	42
29.7767	30.1791	75	60
29.844	30.1121	51	40
29.8776	30.28	78	59
29.9783	30.8444	44	39
29.9783	30.3813	72	60
30.0786	30.4828	84	69
30.1121	30.6528	51	41
30.1791	30.5847	75	58
30.2464	30.5168	54	42
30.28	30.6869	78	58
30.3813	30.8444	60	40
30.3813	30.7894	72	61
30.4828	30.8444	84	68
30.5168	30.8444	54	39
30.5847	30.8444	75	57
30.6528	30.8444	51	38
30.6869	30.8444	78	56
30.7894	31.1931	45	38
30.7894	31.1931	72	57
30.8922	31.1931	84	65
30.9263	31.1931	51	39
30.9944	31.1931	75	55
31.0624	31.1982	54	40
31.0964	31.1982	78	55
31.1982	31.6359	59	38
31.1982	31.6024	71	58
31.2996	31.6359	83	64
31.3334	31.6359	54	38
31.4008	31.6359	75	53
31.4681	31.6359	51	36
31.5017	31.6359	78	53
31.6024	32.0249	46	35
31.6024	32.0249	71	54
31.7027	32.0249	83	62
31.7362	32.0249	51	37
31.8033	32.0249	75	52
31.8706	32.0249	54	38
31.9042	32.0249	78	52
32.0054	32.4688	58	36
32.0054	32.4136	70	54
32.107	32.4688	82	60
32.1409	32.4688	54	35
32.2088	32.4688	75	50
32.277	32.4688	51	34
32.311	32.4688	78	50
32.4136	32.8175	48	34
32.4136	32.8175	70	55
32.5217	32.8175	82	49
32.5507	32.8175	51	34
32.6188	32.8175	75	48
32.6868	32.8225	54	35
32.7208	32.8225	78	48
32.8225	33.6297	57	34
32.8225	33.2268	69	53
32.929	33.3271	81	48
32.9577	33.4949	54	34
33.0252	33.4277	75	47
33.0925	33.3606	51	32
33.1261	33.5286	78	47
33.2268	34.1073	48	31
33.2268	33.6297	69	52
33.3271	33.7318	81	49
33.3606	33.9061	51	33
33.4277	33.8357	75	45
33.4949	33.7663	54	33
33.5286	33.9417	78	45
33.6297	34.1073	57	31
33.6297	34.1073	69	51
33.7318	34.1073	81	47
33.7663	34.1073	54	31
33.8357	34.1073	75	44
33.9061	34.1073	51	29
33.9417	34.1073	78	44
34.0494	34.4744	45	28
34.0494	34.4744	72	52
34.1632	34.4744	84	47
34.1939	34.4744	51	29
34.2657	34.4744	75	46
34.3373	34.4798	54	29
34.373	34.4798	78	46
34.4798	34.936	59	31
34.4798	34.9013	71	49
34.5859	34.936	83	44
34.6213	34.936	54	29
34.6916	34.936	75	44
34.7618	34.936	51	28
34.7967	34.936	78	44
34.9013	35.3423	46	25
34.9013	35.3423	71	48
35.0056	35.3423	83	45
35.0404	35.3423	51	26
35.1103	35.3423	75	42
35.1806	35.3423	54	27
35.2158	35.3423	78	42
35.3218	35.8122	58	28
35.3218	35.7536	70	47
35.4286	35.8122	82	43
35.4643	35.8122	54	27
35.536	35.8122	75	40
35.608	35.8122	51	25
35.644	35.8122	78	40
35.7536	36.1851	47	24
35.7536	36.1851	70	46
35.8634	36.1851	82	42
35.8999	36.1851	51	26
35.9728	36.1851	75	41
36.0455	36.1905	54	27
36.0819	36.1905	78	41
36.1905	36.6569	57	28
36.1905	36.6214	69	44
36.2988	36.6569	81	40
36.3348	36.6569	54	27
36.4067	36.6569	75	40
36.4784	36.6569	51	25
36.5142	36.6569	78	39
36.6214	37.083	48	22
36.6214	37.083	69	43
36.7285	37.083	81	40
36.7646	37.083	51	23
36.8374	37.083	75	37
36.9111	37.083	54	24
36.9483	37.083	78	37
37.0612	37.5338	56	24
37.0612	37.5338	68	42
37.176	37.5338	80	38
37.2148	37.5338	54	23
37.293	37.5338	75	36
37.3723	37.5338	51	22
37.4123	37.5338	78	35
37.5338	38.2644	49	22
37.6358	37.812	68	37
37.6655	38.1342	56	25
37.7243	38.2644	69	41
37.7828	38.0175	61	28
37.812	37.9883	68	38
37.8998	38.2644	64	30
37.8998	38.2644	67	39
37.9883	38.2644	68	40
38.0175	38.2644	61	28
38.0759	38.2644	73	42
38.1342	38.2644	56	27
38.1635	38.2644	76	43
38.2519	38.3686	52	26
38.2519	38.3395	75	45
38.3395	38.4271	73	43
38.3686	38.486	56	28
38.4271	38.5157	75	45
38.486	38.6038	61	30
38.5157	38.6038	73	43
38.6038	38.7212	64	31
38.6038	38.6917	72	44
38.6917	38.7801	73	46
38.7212	38.8387	61	28
38.7801	38.8681	76	49
38.8387	38.9777	56	27
38.8681	38.9777	80	47
38.9777	39.71	49	27
39.0785	39.2555	68	45
39.108	39.5798	56	30
39.167	39.71	69	49
39.226	39.462	61	34
39.2555	39.4325	68	45
39.3435	39.71	64	36
39.3435	39.71	67	46
39.4325	39.71	68	48
39.462	39.71	61	34
39.521	39.71	73	50
39.5798	39.71	56	33
39.6093	39.71	76	51
39.6976	39.8151	52	31
39.6976	39.7856	75	54
39.7856	39.8739	73	51
39.8151	39.9324	56	33
39.8739	39.9618	75	53
39.9324	40.0505	61	36
39.9618	40.0505	73	51
40.0505	40.1676	64	37
40.0505	40.1384	72	52
40.1384	40.2264	73	54
40.1676	40.2852	61	34
40.2264	40.3147	76	57
40.2852	40.4221	56	32
40.3147	40.4221	80	55
40.4221	41.8559	51	31
40.5228	41.5018	69	56
40.5529	41.0303	57	35
40.6131	41.8559	73	57
40.673	40.9115	61	39
40.7029	41.8559	75	59
40.7922	41.8559	66	45
40.7922	41.8559	78	61
40.8817	41.8559	81	66
40.9115	41.2657	61	39
40.9709	41.7673	85	69
41.0303	41.8559	57	37
41.0599	41.5903	87	71
41.1485	41.8559	54	37
41.1485	41.8559	95	73
41.2362	41.8559	93	71
41.2657	41.7379	61	40
41.325	41.8559	92	71
41.3843	41.62	63	44
41.4137	41.6792	90	70
41.5018	41.8559	69	46
41.5018	41.8559	88	69
41.5903	41.8559	87	68
41.62	41.8559	63	44
41.6792	41.8559	90	67
41.7379	41.8559	61	41
41.7673	41.8559	85	67
41.8559	42.5617	44	33
41.8559	43.303	84	68
41.9443	43.303	87	64
41.9736	42.4444	51	36
42.0321	42.2967	81	65
42.0911	42.3264	54	39
42.1206	43.303	80	65
42.2086	42.9168	60	41
42.2086	42.5617	78	64
42.2967	43.303	81	62
42.3264	42.7977	54	39
42.3855	43.303	76	59
42.4444	42.6794	51	37
42.4737	42.8274	75	59
42.5617	43.303	44	33
42.5617	43.303	78	59
42.6499	43.303	73	55
42.6794	43.1641	51	35
42.7385	43.303	72	55
42.7977	43.0387	54	38
42.8274	43.303	75	55
42.9168	43.303	60	39
42.9168	43.196	69	54
43.0079	43.303	68	51
43.0387	43.303	54	35
43.1009	43.303	71	51
43.1641	43.303	51	33
43.196	43.4829	69	50
43.303	44.0247	49	28
43.3946	43.5707	68	47
43.4241	43.8941	56	32
43.4829	44.0247	69	51
43.5413	43.777	61	34
43.5707	43.7477	68	47
43.6592	44.0247	64	37
43.6592	44.0247	67	48
43.7477	44.0247	68	49
43.777	44.0247	61	35
43.8355	44.0247	73	51
43.8941	44.0247	56	33
43.9236	44.0247	76	52
44.0121	44.742	52	31
44.0121	44.1888	75	54
44.1003	44.2771	73	51
44.1297	44.6015	56	33
44.1888	44.742	75	53
44.2478	44.4835	61	35
44.2771	44.454	73	51
44.3651	44.742	64	36
44.3651	44.742	72	51
44.454	44.742	73	53
44.4835	44.742	61	33
44.5425	44.742	76	57
44.6015	44.742	56	31
44.631	44.742	80	54
44.742	45.4665	54	28
44.742	44.9232	76	52
44.8349	45.0112	75	48
44.8644	45.3358	61	33
44.9232	45.4665	76	52
44.9818	45.2181	63	35
45.0112	45.1887	75	48
45.1001	45.4665	69	38
45.1001	45.4665	74	49
45.1887	45.4665	75	50
45.2181	45.4665	63	36
45.2767	45.4541	78	53
45.3358	45.4665	61	34
45.3654	45.4665	81	54
45.4541	46.185	56	32
45.4541	45.6299	78	56
45.5419	45.7187	77	54
45.5711	46.0422	61	34
45.6299	46.185	78	56
45.6891	45.9242	65	37
45.7187	45.8947	77	54
45.8069	46.185	71	39
45.8069	46.185	76	54
45.8947	46.185	77	56
45.9242	46.185	65	34
45.9832	46.185	80	59
46.0422	46.185	61	33
46.0717	46.185	85	57
46.185	46.9094	57	30
46.2788	46.4552	73	50
46.3083	46.779	61	34
46.3672	46.9094	74	55
46.4259	46.6613	66	37
46.4552	46.6319	73	51
46.5434	46.9094	69	40
46.5434	46.9094	72	52
46.6319	46.9094	73	53
46.6613	46.9094	66	39
46.7199	46.8969	78	56
46.779	46.9094	61	35
46.8087	46.9094	81	57
46.8969	47.6244	56	34
46.8969	47.0735	78	59
46.985	47.1619	77	56
47.0144	47.4849	61	36
47.0735	47.6244	78	59
47.1325	47.3672	65	39
47.1619	47.3378	77	57
47.2497	47.6244	71	40
47.2497	47.6244	76	57
47.3378	47.6244	77	59
47.3672	47.6244	65	37
47.4261	47.6244	80	63
47.4849	47.6244	61	34
47.5143	47.6244	85	59
47.6244	48.3467	57	32
47.6244	47.806	80	58
47.7173	47.8945	78	53
47.7468	48.2171	61	36
47.806	48.3467	80	58
47.8651	48.0994	66	39
47.8945	48.0703	78	54
47.9827	48.3467	69	42
47.9827	48.3467	77	55
48.0703	48.3467	78	56
48.0994	48.3467	66	40
48.1579	48.3342	81	59
48.2171	48.3467	61	38
48.2465	48.3467	85	60
48.3342	49.0709	48	36
48.3342	48.5111	81	63
48.4223	48.5992	80	59
48.4519	48.9225	54	38
48.5111	49.0709	81	62
48.57	48.8049	56	41
48.5992	48.7757	80	60
48.6874	49.0709	63	42
48.6874	49.0709	79	60
48.7757	49.0709	80	62
48.8049	49.0709	56	39
48.8637	49.0709	84	66
48.9225	49.0709	54	37
48.952	49.0709	87	63
49.0709	50.5013	49	35
49.0709	49.253	80	69
49.1627	50.1436	81	64
49.1929	49.6702	56	39
49.253	49.4321	80	67
49.313	49.5514	61	43
49.3428	50.322	79	58
49.4321	50.5013	64	45
49.4321	50.2328	80	62
49.5216	50.5013	88	71
49.5514	50.5013	61	44
49.6109	50.5013	87	71
49.6702	49.9067	56	42
49.6998	50.5013	86	70
49.7885	50.5013	51	44
49.7885	50.5013	85	69
49.8771	50.5013	84	69
49.9067	50.3816	56	41
49.9658	50.5013	83	68
50.025	50.2625	60	45
50.0547	50.5013	82	67
50.1436	50.5013	66	46
50.1436	50.5013	81	67
50.2328	50.5013	80	66
50.2625	50.5013	60	44
50.322	50.5013	79	65
50.3816	50.5013	56	41
50.4114	50.5013	78	64
50.5013	51.9362	52	35
50.5013	50.6821	76	69
50.5922	51.8439	78	64
50.6221	51.0993	56	39
50.6821	50.8612	76	67
50.742	50.9805	61	43
50.7719	51.9362	75	58
50.8612	51.9362	64	45
50.8612	51.9362	76	62
50.9507	51.9362	88	71
50.9805	51.3351	61	44
51.0399	51.9362	87	71
51.0993	51.9362	56	42
51.1289	51.9362	86	70
51.2176	51.9362	54	44
51.2176	51.9362	85	70
51.3057	51.9362	84	71
51.3351	51.8133	61	41
51.3941	51.9362	83	71
51.4531	51.6919	63	45
51.4827	51.9362	82	72
51.5718	51.9362	69	46
51.5718	51.9362	81	73
51.6617	51.9362	80	74
51.6919	51.9362	63	48
51.7524	51.9362	79	75
51.8133	51.9362	61	51
51.8439	51.9362	78	76
51.9362	52.1208	56	71
51.9362	52.1208	61	71
51.9362	52.1208	64	71
51.9362	52.1208	68	71
51.9362	51.9823	80	76
52.1208	52.2131	92	85
52.2131	52.3054	91	85
52.3054	52.3948	90	84
52.3948	52.4842	89	84
52.4842	52.5736	88	83
52.5736	52.663	87	83
52.663	53.0426	55	71
52.663	53.0426	61	71
52.663	53.0426	64	71
52.663	53.0426	69	71
52.663	53.0426	86	82
52.7526	53.0426	85	81
52.8423	53.0426	84	81
52.9319	53.0426	83	80
53.0216	53.1115	82	80
53.1115	53.2014	81	79
53.2014	53.2913	80	79
53.2913	53.3813	79	78
53.3813	53.4715	78	77
53.4715	53.5617	77	77
53.5617	53.6518	76	77
53.6518	53.742	75	77
53.742	53.8322	74	77
53.8322	53.9224	73	77
53.9224	54.0125	72	77
54.0125	54.8226	71	77
54.1027	54.8226	70	77
54.1929	54.8226	69	78
54.2831	54.8226	68	80
54.3732	54.8226	67	82
54.4635	54.8226	66	85
54.5542	54.8226	64	87
54.6457	54.8226	63	90
54.738	54.8312	61	92
54.8312	57.9049	32	78
54.8312	57.1482	44	78
54.8312	56.0062	56	94
55.2264	56.3915	64	75
55.2264	56.6753	76	75
55.2264	57.9049	93	90
55.3249	56.1992	92	81
55.4228	57.9049	100	77
55.5205	55.7153	88	77
55.618	56.7698	61	78
55.618	57.0536	73	78
55.618	57.9049	90	90
55.7153	56.5807	88	77
55.8125	57.9049	97	77
55.9094	56.1029	85	77
56.0062	57.1482	56	78
56.0062	57.432	68	78
56.0062	57.9049	87	89
56.1029	56.959	85	77
56.1992	57.9049	92	77
56.2954	56.4861	80	77
56.3915	57.5266	52	78
56.3915	57.8103	64	78
56.3915	57.9049	81	89
56.4861	57.3374	80	77
56.5807	57.9049	88	77
56.6753	56.8644	76	77
56.7698	57.9049	49	74
56.7698	57.9049	61	74
56.7698	57.9049	78	88
56.8644	57.7157	76	77
56.959	57.9049	85	77
57.0536	57.2428	73	77
57.1482	57.9049	44	78
57.1482	57.9049	56	78
57.1482	57.9049	75	89
57.2428	57.9049	73	77
57.3374	57.9049	80	77
57.432	57.6211	68	77
57.5266	57.9049	40	74
57.5266	57.9049	52	74
57.5266	57.9049	69	90
57.6211	57.9049	68	77
57.7157	57.9049	76	77
57.8103	57.9049	64	77
57.9049	59.0931	37	78
57.9049	59.0931	49	78
57.9049	59.0931	66	88
58.0025	59.0931	64	77
58.1	59.0931	73	77
58.1976	58.3906	61	77
58.2952	58.677	32	73
58.2952	58.677	44	73
58.2952	58.677	63	89
58.3906	58.774	61	77
58.4861	58.8709	68	77
58.5815	58.9679	56	77
58.677	59.0931	32	78
58.677	59.0931	44	78
58.677	59.0649	63	89
58.774	59.0931	61	77
58.8709	59.0931	68	77
58.9679	59.0931	56	77
59.0649	59.4609	33	74
59.0649	59.4609	45	74
59.0649	59.4519	63	89
59.1618	59.4609	61	77
59.2588	59.4609	69	77
59.3557	59.4609	57	77
59.4519	59.8863	32	78
59.4519	59.8863	44	78
59.4519	59.8443	63	89
59.5495	59.8863	61	75
59.6474	59.8863	68	74
59.7456	59.8863	56	73
59.8443	60.2571	31	72
59.8443	60.2571	43	72
59.8443	60.2427	63	83
59.9433	60.2571	61	71
60.0426	60.2571	67	71
60.1424	60.2571	55	70
60.2427	61.1421	32	69
60.2427	61.1421	44	69
60.2427	60.6638	63	79
60.3448	60.695	61	68
60.4489	60.695	68	67
60.5552	60.695	56	66
60.6638	61.1421	63	75
60.7755	61.1421	60	63
60.8922	61.1421	68	63
61.0145	61.1421	56	62
61.1421	63.8518	37	95
61.3937	63.625	44	55
61.6233	63.4003	49	56
61.8498	63.1773	53	56
62.0742	62.9558	56	58
62.2967	62.736	61	59
62.5173	65.1918	65	59
62.736	64.9715	61	57
62.9558	64.7501	56	52
63.1773	64.5274	53	49
63.4003	64.3034	49	46
63.625	64.0782	44	41
63.8518	66.5342	37	40
64.0782	66.3092	44	41
64.3034	66.0827	49	42
64.5274	65.8578	53	43
64.7501	65.6344	56	44
64.9715	65.4123	61	45
65.1918	66.5342	65	45
65.4123	66.5342	61	45
65.6344	66.5342	56	44
65.8578	66.5342	53	43
66.0827	66.5342	49	42
66.3092	69.3102	44	41
66.5342	69.3102	37	25
66.5342	68.2757	68	45
66.7688	67.6909	56	26
67.0019	67.4621	60	27
67.2329	69.3102	63	28
67.4621	68.3883	60	28
67.6909	68.151	56	27
67.9198	69.3102	49	27
67.9198	68.0886	70	42
68.0042	69.3102	72	42
68.0886	69.3102	70	46
68.151	69.0707	56	27
68.2757	69.3102	68	45
68.3883	68.8385	60	28
68.6134	69.3102	66	28
68.6134	69.3102	73	45
68.8385	69.3102	60	27
68.951	69.3102	75	48
69.0707	69.3102	56	26
69.3102	70.6986	49	27
69.3102	70.7242	77	51
69.5416	70.4672	56	28
69.773	70.2358	61	28
70.0044	70.7242	65	29
70.2358	70.7242	61	30
70.4672	70.7242	56	28
70.6986	72.164	49	27
70.6986	72.164	80	56
70.9262	71.8404	56	28
71.1537	71.6089	65	29
71.3813	72.164	68	49
71.6089	72.164	65	30
71.8404	72.164	56	29
72.0757	72.8123	66	30
72.0757	72.8123	78	53
72.3111	72.8123	63	26
72.5464	72.8123	56	26
72.7818	73.5101	65	30
72.7818	73.5101	77	51
73.0145	73.5101	61	26
73.2472	73.5101	56	26
73.4799	74.1807	63	30
73.4799	74.1807	75	49
73.71	74.1807	60	23
73.9401	74.1807	56	23
74.1702	74.9435	61	29
74.1702	74.9435	77	51
74.4097	74.9435	56	24
74.6493	74.9435	53	24
74.7091	74.9435	73	47
74.9435	76.3967	44	26
74.9435	76.3967	68	48
75.2013	76.1545	51	27
75.4408	75.9157	56	27
75.6803	76.3967	60	28
75.9157	76.3967	56	27
76.1545	76.3967	51	27
76.3967	77.8168	42	27
76.3967	79.2778	70	48
76.6334	77.8168	54	27
76.8701	77.3434	58	28
77.1067	77.8168	61	29
77.3434	77.8168	58	28
77.5801	77.8168	53	28
77.8168	79.237	46	27
78.0535	79.0003	53	27
78.2902	78.7636	58	28
78.5269	79.2778	62	28
78.7636	79.2778	58	28
79.0003	79.2778	53	27
79.237	80.6457	46	28
79.237	79.3214	71	42
79.3214	80.6457	73	42
79.4058	80.6457	71	46
79.4682	80.4063	58	29
79.5929	80.6457	70	45
79.7085	80.171	62	30
79.9398	80.6457	68	33
79.9398	80.6457	75	45
80.171	80.6457	62	31
80.2866	80.6457	77	48
80.4063	80.6457	58	29
80.6457	81.3978	51	34
80.6457	81.3978	78	51
80.8771	81.3978	66	31
81.1085	81.3978	58	28
81.3399	82.0597	53	32
81.3399	82.0597	77	50
81.5713	82.0597	65	30
81.8027	82.0597	57	28
82.0341	82.7652	54	31
82.0341	82.7652	75	51
82.2617	82.7652	63	28
82.4893	82.7652	58	29
82.7169	83.4113	56	30
82.7169	83.4113	77	49
82.9445	83.4113	66	27
83.1759	83.4113	60	27
83.4113	84.8861	49	25
83.4113	84.5671	73	48
83.6466	84.5994	56	27
83.882	84.3527	61	29
84.1173	84.8861	65	30
84.3527	84.8861	61	29
84.4703	84.8861	72	49
84.5671	84.7607	73	45
84.5994	84.8861	56	27
84.6639	84.8861	75	45
84.7607	84.8861	73	45
84.8574	86.4045	51	27
84.8574	86.4045	77	50
85.0984	86.0857	55	28
85.3394	85.8213	61	29
85.5803	86.4045	63	30
85.8213	86.4045	61	29
85.9418	86.3735	75	49
86.0857	86.4045	55	27
86.3735	87.795	44	23
86.3735	89.3177	75	47
86.6101	87.5569	51	25
86.8468	87.3202	56	27
87.0835	87.842	60	28
87.3202	87.842	56	27
87.5569	87.842	51	27
87.795	89.3177	44	25
88.0324	89.038	51	25
88.2767	88.7711	54	27
88.5219	89.3177	58	28
88.7711	89.3177	54	26
89.038	89.3177	51	25
89.3177	90.7495	44	24
89.3177	91.1054	68	45
89.5829	90.5206	51	26
89.8229	90.2918	56	27
90.061	91.2197	60	28
90.2918	90.9807	56	28
90.5206	92.1503	51	27
90.7495	92.1503	44	27
90.7495	90.9183	70	42
90.8339	92.1503	72	42
90.9183	92.1503	70	46
90.9807	92.1503	56	27
91.1054	92.1503	68	45
91.2197	91.6769	60	28
91.4483	92.1503	66	28
91.4483	92.1503	73	45
91.6769	92.1503	60	27
91.7912	92.1503	75	48
91.9109	92.1503	58	26
92.1503	93.5387	49	27
92.1503	93.5643	77	51
92.3817	93.3073	56	28
92.6131	93.0759	61	28
92.8445	93.5643	65	29
93.0759	93.5643	61	30
93.3073	93.5643	56	28
93.5387	95.0041	49	27
93.5387	95.0041	80	56
93.7663	94.6805	56	28
93.9939	94.4491	65	29
94.2215	95.0041	68	49
94.4491	95.0041	65	30
94.6805	95.0041	56	29
94.9159	95.6525	66	30
94.9159	95.6525	78	53
95.1512	95.6525	63	26
95.3866	95.6525	56	26
95.6219	96.3502	65	30
95.6219	96.3502	77	51
95.8546	96.3502	61	26
96.0873	96.3502	56	26
96.32	97.0658	63	30
96.32	96.7626	75	49
96.5501	97.0658	60	23
96.6652	97.0548	77	47
96.7626	96.9574	75	47
96.7951	97.0658	56	23
96.86	97.0658	73	47
96.9574	97.0658	75	47
97.0548	97.859	61	29
97.0548	97.859	77	51
97.3064	97.859	56	24
97.558	97.859	53	24
97.6209	97.859	73	47
97.859	99.2939	44	26
97.859	99.2939	68	48
98.0985	99.0517	51	27
98.338	98.8129	56	27
98.5775	99.2939	60	28
98.8129	99.2939	56	27
99.0517	99.2939	51	27
99.2939	100.714	42	27
99.2939	102.175	70	48
99.5306	100.477	54	27
99.7673	100.241	58	28
100.004	100.714	61	29
100.241	100.714	58	28
100.477	100.714	54	28
100.714	102.134	46	27
100.951	101.897	53	27
101.187	101.661	58	28
101.424	102.175	62	28
101.661	102.175	58	28
101.897	102.175	53	27
102.134	103.535	46	28
102.134	102.219	71	42
102.219	103.535	73	42
102.303	103.535	71	46
102.365	103.296	58	29
102.49	103.535	70	45
102.604	103.062	62	30
102.833	103.535	68	33
102.833	103.535	75	45
103.062	103.535	62	31
103.176	103.535	77	48
103.296	103.535	58	29
103.535	104.287	51	34
103.535	104.287	78	51
103.766	104.287	66	31
103.998	104.287	58	28
104.229	104.949	53	32
104.229	104.949	77	50
104.461	104.949	65	30
104.692	104.949	57	28
104.923	105.655	54	31
104.923	105.655	75	51
105.151	105.655	63	28
105.379	105.655	58	29
105.606	106.301	56	30
105.606	106.301	77	49
105.834	106.301	66	27
106.065	106.301	60	27
106.301	107.76	49	25
106.301	107.789	73	48
106.536	107.493	56	27
106.771	107.242	61	29
107.007	107.789	65	30
107.242	107.789	61	29
107.36	107.789	67	49
107.46	107.66	68	45
107.493	107.789	56	27
107.56	107.789	70	45
107.66	107.789	68	45
107.76	109.306	49	27
107.76	109.337	77	50
108.007	109.016	56	28
108.253	108.747	60	29
108.5	109.337	66	30
108.747	109.337	60	29
108.871	109.306	75	49
109.016	109.337	56	27
109.306	110.752	49	27
109.306	110.8	75	52
109.547	110.51	56	28
109.787	110.269	60	30
110.028	110.8	66	31
110.269	110.8	60	30
110.51	110.8	56	28
110.752	112.223	49	27
110.752	112.223	73	52
110.994	111.976	56	27
111.239	111.732	61	28
111.485	112.223	65	30
111.732	112.223	61	28
111.857	112.223	80	60
111.976	112.223	56	27
112.212	113.666	44	34
112.212	113.697	68	65
112.454	113.423	51	33
112.697	113.181	56	34
112.939	113.697	60	34
113.181	113.697	56	33
113.423	113.697	51	32
113.666	115.109	44	31
113.666	113.755	70	59
113.755	114.923	72	59
113.844	114.38	70	64
113.904	114.861	51	33
114.142	114.618	55	34
114.201	115.138	69	57
114.38	115.138	61	34
114.38	115.138	70	64
114.618	115.138	55	33
114.861	115.138	51	30
114.923	115.138	72	62
115.109	116.547	44	36
115.109	116.547	68	66
115.343	116.292	51	30
115.577	116.051	56	32
115.811	116.547	60	33
115.811	118.079	84	66
116.051	116.547	56	32
116.292	116.547	51	30
116.533	118.079	49	27
116.737	118.079	82	63
116.771	117.727	56	29
116.941	117.888	80	62
117.009	117.486	61	30
117.145	118.079	76	61
117.247	118.079	64	31
117.348	118.079	73	59
117.486	118.079	61	30
117.554	118.079	70	58
117.727	118.079	56	29
117.888	118.079	80	55
118.069	119.522	39	34
118.069	119.553	63	66
118.311	119.28	51	33
118.553	119.038	56	34
118.795	119.553	60	34
119.038	119.553	56	33
119.28	119.553	51	32
119.431	119.553	72	59
119.522	120.995	39	31
119.522	120.236	70	64
119.76	120.717	51	33
119.998	120.474	55	34
120.058	120.995	69	57
120.236	120.995	61	34
120.236	120.995	70	64
120.474	120.995	55	33
120.717	120.995	51	30
120.779	120.995	75	62
120.965	122.477	44	34
120.965	122.477	68	65
121.199	122.138	51	30
121.433	121.901	56	32
121.667	122.477	60	33
121.901	122.477	56	32
122.138	122.477	51	30
122.379	123.876	42	19
122.379	123.621	70	39
122.624	123.621	54	20
122.869	123.372	58	22
123.127	123.876	61	22
123.127	123.876	73	44
123.372	123.876	58	20
123.372	123.876	72	39
123.621	123.876	54	20
123.621	123.876	70	39
123.876	126.678	44	21
123.876	125.633	68	43
124.118	125.055	56	22
124.358	124.827	60	22
124.596	126.678	63	23
124.827	125.747	60	23
125.055	125.518	56	22
125.284	126.678	49	22
125.284	125.425	70	46
125.355	125.495	72	42
125.425	125.564	70	42
125.495	126.678	72	44
125.518	126.438	56	23
125.564	126.678	70	42
125.633	126.678	68	41
125.747	126.204	60	25
125.976	126.678	66	27
125.976	126.678	73	45
126.204	126.678	60	26
126.319	126.678	75	48
126.438	126.678	56	25
126.678	128.066	49	27
126.678	128.092	77	51
126.909	127.835	56	28
127.141	127.603	61	28
127.372	128.092	65	29
127.603	128.092	61	30
127.835	128.092	56	28
128.066	129.532	49	27
128.066	129.532	80	56
128.294	129.208	56	28
128.521	128.977	65	29
128.749	129.532	68	49
128.977	129.532	65	30
129.208	129.532	56	29
129.443	130.18	66	30
129.443	130.18	78	53
129.679	130.18	63	26
129.914	130.18	56	26
130.149	130.878	65	30
130.149	130.878	77	51
130.382	130.878	61	26
130.615	130.878	56	26
130.847	131.548	63	30
130.847	131.279	75	49
131.078	131.548	60	23
131.193	131.538	77	47
131.279	131.452	75	47
131.308	131.548	56	23
131.365	131.548	73	47
131.452	131.548	75	47
131.538	132.244	61	29
131.538	132.244	77	51
131.768	132.244	56	24
131.883	132.244	73	47
132.004	132.244	53	24
132.244	133.679	44	26
132.244	133.679	68	48
132.484	133.437	51	27
132.724	133.198	56	27
132.963	133.679	60	28
133.198	133.679	56	27
133.437	133.679	51	27
133.679	135.1	42	27
133.679	136.563	70	48
133.916	134.863	54	27
134.153	134.626	58	28
134.389	135.1	61	29
134.626	135.1	58	28
134.863	135.1	54	28
135.1	136.52	46	27
135.336	136.283	53	27
135.573	136.046	58	28
135.81	136.563	62	28
136.046	136.563	58	28
136.283	136.563	53	27
136.52	137.916	46	28
136.52	136.591	71	45
136.591	136.732	73	42
136.662	136.808	71	41
136.732	137.916	73	42
136.756	137.677	58	29
136.808	137.916	71	42
136.871	137.916	70	45
136.986	137.443	62	30
137.214	137.916	68	33
137.214	137.916	75	45
137.443	137.916	62	31
137.557	137.916	77	48
137.677	137.916	58	29
137.916	138.668	51	34
137.916	138.668	78	51
138.148	138.668	66	31
138.379	138.668	58	28
138.611	139.33	53	32
138.611	139.33	77	50
138.842	139.33	65	30
139.073	139.33	57	28
139.305	140.036	54	31
139.305	140.036	75	51
139.532	140.036	63	28
139.76	140.036	58	29
139.988	140.682	56	30
139.988	140.682	77	49
140.215	140.682	66	27
140.447	140.682	60	27
140.682	142.128	49	25
140.682	142.157	73	48
140.917	141.87	56	27
141.153	141.623	61	29
141.388	142.157	65	30
141.623	142.157	61	29
141.741	142.157	67	49
141.838	142.031	68	45
141.87	142.157	56	27
141.935	142.157	70	45
142.031	142.157	68	45
142.128	143.62	49	27
142.128	143.651	77	50
142.368	143.344	56	28
142.607	143.086	60	29
142.847	143.651	66	30
143.086	143.651	60	29
143.206	143.62	75	49
143.344	143.651	56	27
143.62	145.066	49	27
143.62	145.114	75	52
143.861	144.825	56	28
144.102	144.584	60	30
144.343	145.114	66	31
144.584	145.114	60	30
144.825	145.114	56	28
145.066	146.537	49	27
145.066	146.537	73	52
145.308	146.29	56	27
145.553	146.047	61	28
145.799	146.537	65	30
146.047	146.537	61	28
146.171	146.537	80	60
146.29	146.537	56	27
146.526	147.98	44	34
146.526	148.01	68	65
146.769	147.737	51	33
147.011	147.495	56	34
147.253	148.01	60	34
147.495	148.01	56	33
147.737	148.01	51	32
147.98	149.403	44	31
147.98	148.065	70	65
148.065	148.233	72	59
148.15	148.316	70	60
148.206	149.155	51	33
148.233	148.378	72	59
148.316	148.44	70	56
148.378	149.217	72	56
148.44	148.914	55	34
148.44	148.679	70	56
148.502	149.433	69	62
148.679	149.433	61	34
148.679	149.433	70	64
148.914	149.433	55	33
149.155	149.433	51	30
149.217	149.433	72	62
149.403	150.841	44	36
149.403	150.841	68	66
149.637	150.587	51	30
149.871	150.346	56	32
150.105	150.841	60	33
150.105	152.374	84	66
150.346	150.841	56	32
150.587	150.841	51	30
150.828	152.374	49	27
151.032	152.374	82	63
151.066	152.022	56	29
151.236	152.183	80	62
151.304	151.781	61	30
151.439	152.374	76	61
151.542	152.374	64	31
151.643	152.374	73	59
151.781	152.374	61	30
151.849	152.374	70	58
152.022	152.374	56	29
152.183	152.374	80	55
152.364	153.817	39	34
152.364	153.848	63	66
152.606	153.575	51	33
152.848	153.333	56	34
153.09	153.848	60	34
153.333	153.848	56	33
153.575	153.848	51	32
153.726	153.848	72	59
153.817	155.289	39	31
153.817	154.531	70	64
154.055	155.012	51	33
154.293	154.769	55	34
154.353	155.289	69	57
154.531	155.289	61	34
154.531	155.289	70	64
154.769	155.289	55	33
155.012	155.289	51	30
155.074	155.289	75	62
155.26	156.772	44	34
155.26	156.772	68	65
155.494	156.432	51	30
155.728	156.195	56	32
155.962	156.772	60	33
156.195	156.772	56	32
156.432	156.772	51	30
156.674	158.157	42	19
156.674	157.912	70	39
156.919	157.912	54	20
157.164	157.667	58	22
157.421	158.157	61	22
157.421	158.157	73	44
157.667	158.157	58	20
157.667	158.157	72	39
157.912	158.157	54	20
157.912	158.157	70	39
158.157	159.563	44	21
158.157	159.913	68	43
158.396	159.334	51	22
158.637	159.105	56	22
158.875	160.027	60	23
159.105	159.798	56	23
159.334	160.958	51	22
159.563	160.958	44	22
159.563	159.704	70	47
159.634	159.774	72	43
159.704	159.844	70	43
159.774	160.958	72	43
159.798	160.958	56	23
159.844	160.958	70	43
159.913	160.958	68	45
160.027	160.484	60	25
160.256	160.958	66	27
160.256	160.958	73	45
160.484	160.958	60	26
160.599	160.958	75	48
160.718	160.958	58	25
160.958	162.346	49	27
160.958	162.372	77	51
161.189	162.115	56	28
161.421	161.883	61	28
161.652	162.372	65	29
161.883	162.372	61	30
162.115	162.372	56	28
162.346	163.812	49	27
162.346	163.812	80	56
162.574	163.488	56	28
162.801	163.257	65	29
163.029	163.812	68	49
163.257	163.812	65	30
163.488	163.812	56	29
163.723	164.46	66	30
163.723	164.46	78	53
163.959	164.46	63	26
164.194	164.46	56	26
164.429	165.158	65	30
164.429	165.158	77	51
164.662	165.158	61	26
164.895	165.158	56	26
165.128	165.838	63	30
165.128	165.561	75	49
165.358	165.838	60	23
165.473	165.828	77	47
165.561	165.739	75	47
165.591	165.838	56	23
165.65	165.838	73	47
165.739	165.838	75	47
165.828	166.565	61	29
165.828	166.565	77	51
166.064	166.565	56	24
166.183	166.565	73	47
166.31	166.565	53	24
166.565	168.004	44	26
166.565	168.004	68	48
166.806	167.762	51	27
167.047	167.523	56	27
167.288	168.004	60	28
167.523	168.004	56	27
167.762	168.004	51	27
168.004	169.424	42	27
168.004	170.887	70	48
168.241	169.188	54	27
168.478	168.951	58	28
168.714	169.424	61	29
168.951	169.424	58	28
169.188	169.424	54	28
169.424	170.844	46	27
169.661	170.608	53	27
169.898	170.371	58	28
170.134	170.887	62	28
170.371	170.887	58	28
170.608	170.887	53	27
170.844	172.239	46	28
170.844	170.915	71	48
170.915	171.056	73	42
170.986	171.125	71	43
171.056	172.239	73	42
171.079	172.0	58	29
171.125	172.239	71	42
171.194	172.239	70	45
171.308	171.766	62	30
171.537	172.239	68	33
171.537	172.239	75	45
171.766	172.239	62	31
171.88	172.239	77	48
172.0	172.239	58	29
172.239	172.991	51	34
172.239	172.991	78	51
172.471	172.991	66	31
172.702	172.991	58	28
172.933	173.653	53	31
172.933	173.653	77	47
173.165	173.653	65	28
173.396	173.653	57	28
173.627	174.359	54	30
173.627	174.359	75	49
173.855	174.359	63	25
174.083	174.359	58	25
174.31	175.015	56	30
174.31	175.015	77	45
174.538	175.015	66	27
174.773	175.015	60	27
175.015	176.523	49	22
175.015	176.553	73	43
175.258	176.245	56	23
175.5	175.985	61	26
175.742	176.553	65	27
175.985	176.553	61	26
176.106	176.553	67	44
176.21	176.419	68	40
176.245	176.553	56	23
176.314	176.553	70	40
176.419	176.553	68	40
176.523	178.066	49	23
176.523	178.099	77	45
176.774	177.792	56	24
177.026	177.529	60	26
177.278	178.099	66	27
177.529	178.099	60	26
177.655	178.066	75	44
177.792	178.099	56	23
178.066	179.604	49	20
178.066	181.186	75	44
178.322	179.348	56	21
178.579	179.091	60	22
178.835	180.381	66	24
179.091	180.118	60	22
179.348	179.859	56	22
179.604	181.186	49	20
179.859	180.914	56	21
180.118	180.646	60	22
180.381	181.186	66	22
180.646	181.186	60	22
180.914	181.186	56	21
181.186	181.907	49	22
181.274	181.452	68	37
181.304	181.776	56	25
181.363	181.907	69	41
181.422	181.658	61	28
181.452	181.628	68	38
181.54	181.907	64	30
181.54	181.907	67	39
181.628	181.907	68	40
181.658	181.907	61	28
181.717	181.907	73	42
181.776	181.907	56	27
181.806	181.907	76	43
181.895	182.012	52	26
181.895	181.983	75	45
181.983	182.071	73	43
182.012	182.131	56	28
182.071	182.16	75	45
182.131	182.249	61	30
182.16	182.249	73	43
182.249	182.368	64	31
182.249	182.339	72	44
182.339	182.427	73	46
182.368	182.486	61	28
182.427	182.516	76	49
182.486	182.621	56	27
182.516	182.621	80	47
182.621	183.355	49	27
182.722	182.899	68	45
182.752	183.224	56	30
182.811	183.355	69	49
182.869	183.106	61	34
182.899	183.076	68	45
182.987	183.355	64	36
182.987	183.355	67	46
183.076	183.355	68	48
183.106	183.355	61	34
183.165	183.355	73	50
183.224	183.355	56	33
183.254	183.355	76	51
183.342	183.46	52	31
183.342	183.431	75	54
183.431	183.519	73	51
183.46	183.578	56	33
183.519	183.608	75	53
183.578	183.696	61	36
183.608	183.696	73	51
183.696	183.813	64	37
183.696	183.784	72	52
183.784	183.872	73	54
183.813	183.932	61	34
183.872	183.961	76	57
183.932	184.066	56	32
183.961	184.066	80	55
184.066	185.499	51	31
184.167	185.146	69	56
184.197	184.675	57	35
184.257	185.499	73	58
184.317	184.556	61	39
184.347	185.499	75	60
184.437	185.499	66	45
184.437	185.499	78	63
184.526	185.499	81	63
184.556	184.911	61	39
184.616	185.412	85	66
184.675	185.499	57	37
184.705	185.234	87	72
184.794	185.499	54	37
184.794	185.499	95	76
184.882	185.499	93	75
184.911	185.382	61	40
184.97	185.499	92	70
185.028	185.264	63	44
185.058	185.323	90	69
185.146	185.499	69	46
185.146	185.499	88	68
185.234	185.499	87	67
185.264	185.499	63	44
185.323	185.499	90	66
185.382	185.499	61	41
185.412	185.499	85	67
185.499	186.205	44	33
185.499	186.955	84	68
185.587	186.955	87	63
185.617	186.088	51	35
185.676	185.941	81	63
185.734	185.97	54	38
185.764	186.955	80	63
185.852	186.561	60	39
185.852	186.205	78	60
185.941	186.955	81	58
185.97	186.442	54	36
186.029	186.955	76	54
186.088	186.323	51	34
186.117	186.472	75	54
186.205	186.955	44	29
186.205	186.955	78	53
186.294	186.955	73	48
186.323	186.809	51	31
186.383	186.955	72	48
186.442	186.683	54	33
186.472	186.955	75	47
186.561	186.955	60	33
186.561	186.841	69	45
186.652	186.955	68	42
186.683	186.955	54	29
186.746	186.955	71	42
186.809	186.955	51	26
186.841	187.132	69	41
186.955	187.676	49	22
187.044	187.22	68	37
187.073	187.545	56	25
187.132	187.676	69	41
187.19	187.427	61	28
187.22	187.397	68	38
187.309	187.676	64	30
187.309	187.676	67	39
187.397	187.676	68	40
187.427	187.676	61	28
187.486	187.676	73	42
187.545	187.676	56	27
187.574	187.676	76	43
187.663	187.782	52	26
187.663	187.752	75	45
187.752	187.84	73	43
187.782	187.899	56	28
187.84	187.928	75	45
187.899	188.017	61	30
187.928	188.017	73	43
188.017	188.135	64	31
188.017	188.106	72	44
188.106	188.194	73	46
188.135	188.253	61	28
188.194	188.283	76	49
188.253	188.389	56	27
188.283	188.389	80	47
188.389	189.123	49	27
188.49	188.668	68	45
188.52	188.993	56	30
188.579	189.123	70	49
188.638	188.875	58	34
188.668	188.845	68	45
188.756	189.123	64	36
188.756	189.123	67	46
188.845	189.123	68	48
188.875	189.123	58	34
188.934	189.123	73	50
188.993	189.123	56	33
189.022	189.123	76	51
189.11	189.229	52	31
189.11	189.199	75	54
189.199	189.289	73	51
189.229	189.348	56	33
189.289	189.377	75	53
189.348	189.466	58	36
189.377	189.466	73	51
189.466	189.584	61	37
189.466	189.555	72	52
189.555	189.643	73	54
189.584	189.702	58	34
189.643	189.732	76	57
189.702	189.838	56	32
189.732	189.838	80	55
189.838	190.565	51	30
189.838	190.029	75	64
189.939	191.268	76	58
189.969	190.447	56	34
190.029	190.209	75	61
190.089	190.328	59	37
190.119	191.268	74	50
190.209	191.268	63	39
190.209	191.268	75	56
190.298	190.917	83	68
190.328	191.268	59	38
190.388	191.004	82	62
190.447	191.268	56	35
190.477	191.092	80	65
190.565	191.268	51	38
190.565	191.181	79	68
190.652	191.268	88	72
190.681	191.151	58	41
190.74	191.268	87	69
190.799	191.033	61	45
190.829	191.268	85	69
190.917	191.268	67	46
190.917	191.268	83	74
191.004	191.268	82	69
191.033	191.268	61	44
191.092	191.268	80	69
191.151	191.268	58	41
191.181	191.268	79	69
191.268	191.973	44	33
191.268	192.713	82	72
191.356	191.796	80	70
191.386	191.855	51	35
191.445	192.713	83	64
191.503	191.737	56	37
191.532	192.713	74	57
191.62	192.328	59	39
191.62	192.713	76	65
191.708	192.15	75	57
191.737	192.209	56	39
191.796	192.713	80	63
191.855	192.091	51	37
191.885	192.328	70	57
191.973	192.713	44	33
191.973	192.713	73	61
192.061	192.713	71	59
192.091	192.578	51	35
192.15	192.713	75	58
192.209	192.451	56	38
192.239	192.514	67	56
192.328	192.713	59	39
192.328	192.713	70	60
192.42	192.611	68	51
192.451	192.713	56	35
192.514	192.713	67	55
192.578	192.713	51	33
192.611	192.713	68	50
192.713	193.532	45	39
192.713	194.347	68	72
192.818	194.347	80	58
192.852	193.397	49	41
192.922	193.33	72	59
192.99	193.263	54	43
193.025	193.431	73	59
193.127	193.936	57	45
193.127	193.936	66	71
193.229	194.037	78	60
193.263	193.801	54	44
193.33	193.734	72	60
193.397	193.666	49	42
193.431	193.835	73	61
193.532	194.347	45	42
193.532	194.347	65	75
193.633	194.347	77	62
193.666	194.208	49	44
193.734	194.139	72	63
193.801	194.071	54	45
193.835	194.243	73	63
193.936	194.347	57	45
193.936	194.347	66	74
194.037	194.347	78	65
194.071	194.347	54	45
194.139	194.347	72	64
194.208	194.347	49	44
194.243	194.347	73	64
194.347	195.211	51	44
194.347	195.211	61	77
194.451	195.211	73	65
194.484	195.023	54	46
194.552	194.956	66	65
194.619	194.888	57	48
194.653	195.057	69	65
194.754	195.211	59	49
194.754	195.211	63	75
194.855	195.211	75	65
194.888	195.211	57	47
194.956	195.211	66	65
195.023	195.211	54	45
195.057	195.211	69	65
195.158	195.975	40	45
195.158	195.975	64	79
195.259	195.871	76	66
195.292	195.836	47	46
195.36	195.563	68	66
195.427	195.699	52	48
195.461	195.767	71	66
195.563	195.975	56	47
195.563	195.975	68	77
195.665	195.975	80	67
195.699	195.975	52	46
195.767	195.975	71	66
195.836	195.975	47	45
195.871	195.975	76	65
195.975	196.786	45	44
195.975	197.601	68	81
196.077	197.601	80	65
196.111	196.651	49	46
196.179	196.584	72	65
196.246	196.517	54	48
196.28	196.685	73	65
196.382	197.19	57	49
196.382	197.19	66	78
196.483	197.291	78	65
196.517	197.055	54	47
196.584	196.988	72	65
196.651	196.92	49	45
196.685	197.089	73	65
196.786	197.601	45	45
196.786	197.601	65	79
196.887	197.601	77	66
196.92	197.462	49	46
196.988	197.393	72	66
197.055	197.325	54	48
197.089	197.497	73	66
197.19	197.601	57	47
197.19	197.601	66	77
197.291	197.601	78	67
197.325	197.601	54	46
197.393	197.601	72	66
197.462	197.601	49	45
197.497	197.601	73	65
197.601	198.592	47	44
197.601	199.31	65	81
197.704	199.31	77	65
197.739	198.299	51	46
197.807	198.226	71	65
197.876	198.155	57	48
197.91	198.336	75	65
198.014	199.31	59	49
198.014	199.31	66	78
198.119	199.31	78	65
198.155	199.31	57	47
198.226	198.663	71	65
198.299	199.31	51	45
198.336	199.31	75	65
198.452	199.31	40	45
198.452	199.31	69	79
198.557	199.31	81	66
198.592	199.165	47	46
198.663	199.093	71	66
198.734	199.021	52	48
198.769	199.202	76	66
198.877	199.31	56	47
198.877	199.31	68	77
198.985	199.31	80	67
199.021	199.31	52	46
199.093	199.31	71	66
199.165	199.31	47	45
199.202	199.31	76	65
199.31	200.121	45	30
199.31	200.937	68	52
199.412	200.937	80	57
199.446	199.987	49	33
199.514	199.919	72	47
199.582	199.852	54	34
199.615	200.02	73	47
199.717	200.525	57	35
199.717	200.525	66	49
199.818	200.627	78	54
199.852	200.39	54	34
199.919	200.323	72	48
199.987	200.256	49	34
200.02	200.424	73	48
200.121	200.937	45	34
200.121	200.937	65	51
200.222	200.937	77	56
200.256	200.797	49	34
200.323	200.729	72	50
200.39	200.661	54	36
200.424	200.832	73	50
200.525	200.937	57	36
200.525	200.937	66	53
200.627	200.937	78	58
200.661	200.937	54	35
200.729	200.937	72	51
200.797	200.937	49	34
200.832	200.937	73	51
200.937	201.801	47	34
200.937	201.801	61	55
201.04	201.801	73	60
201.074	201.613	54	37
201.141	201.545	66	52
201.208	201.478	57	38
201.242	201.646	69	53
201.343	201.801	59	39
201.343	201.801	63	55
201.444	201.801	75	62
201.478	201.801	57	38
201.545	201.801	66	54
201.613	201.801	54	38
201.646	201.801	69	54
201.747	202.564	40	37
201.747	202.564	64	57
201.848	202.46	76	65
201.882	202.426	47	39
201.949	202.152	68	56
202.017	202.288	52	40
202.05	202.357	71	56
202.152	202.564	56	40
202.152	202.564	68	60
202.254	202.564	80	68
202.288	202.564	52	40
202.357	202.564	71	57
202.426	202.564	47	39
202.46	202.564	76	58
202.564	203.376	45	39
202.564	203.429	68	62
202.666	203.429	80	68
202.7	203.242	49	42
202.768	203.175	72	59
202.836	203.107	54	43
202.87	203.275	73	59
202.972	203.429	57	45
202.972	203.429	66	62
203.073	203.429	78	70
203.107	203.429	54	43
203.175	203.429	72	61
203.242	203.429	49	42
203.275	203.429	73	61
203.376	204.247	45	42
203.376	204.247	75	64
203.477	204.247	87	73
203.51	204.054	51	44
203.578	203.985	78	62
203.645	203.917	54	45
203.679	204.089	81	62
203.781	204.247	57	44
203.781	204.193	73	66
203.883	204.247	85	74
203.917	204.247	54	44
203.985	204.247	78	62
204.054	204.247	51	42
204.089	204.247	81	62
204.193	204.597	44	42
204.193	204.597	73	64
204.295	204.597	85	73
204.33	204.597	51	44
204.398	204.597	75	61
204.466	204.602	54	45
204.5	204.602	78	61
204.602	205.41	60	42
204.602	205.007	72	64
204.703	205.107	84	71
204.737	205.275	54	42
204.805	205.208	75	60
204.872	205.141	51	40
204.906	205.309	78	59
205.007	205.874	44	39
205.007	205.41	72	60
205.107	205.512	84	69
205.141	205.682	51	41
205.208	205.614	75	58
205.275	205.546	54	42
205.309	205.716	78	58
205.41	205.874	60	40
205.41	205.819	72	61
205.512	205.874	84	68
205.546	205.874	54	39
205.614	205.874	75	57
205.682	205.874	51	38
205.716	205.874	78	56
205.819	206.224	45	38
205.819	206.224	72	57
205.922	206.224	84	65
205.956	206.224	51	39
206.025	206.224	75	55
206.093	206.229	54	40
206.127	206.229	78	55
206.229	206.667	59	38
206.229	206.634	71	58
206.33	206.667	83	64
206.364	206.667	54	38
206.432	206.667	75	53
206.499	206.667	51	36
206.533	206.667	78	53
206.634	207.057	46	35
206.634	207.057	71	54
206.734	207.057	83	62
206.768	207.057	51	37
206.835	207.057	75	52
206.902	207.057	54	38
206.936	207.057	78	52
207.037	207.501	58	36
207.037	207.446	70	54
207.139	207.501	82	60
207.173	207.501	54	35
207.241	207.501	75	50
207.309	207.501	51	34
207.343	207.501	78	50
207.446	207.851	48	34
207.446	207.851	70	55
207.554	207.851	82	49
207.583	207.851	51	34
207.652	207.851	75	48
207.72	207.856	54	35
207.754	207.856	78	48
207.856	208.664	57	34
207.856	208.261	69	53
207.962	208.361	81	48
207.991	208.529	54	34
208.059	208.462	75	47
208.126	208.395	51	32
208.16	208.563	78	47
208.261	209.142	48	31
208.261	208.664	69	52
208.361	208.766	81	49
208.395	208.941	51	33
208.462	208.87	75	45
208.529	208.801	54	33
208.563	208.977	78	45
208.664	209.142	57	31
208.664	209.142	69	51
208.766	209.142	81	47
208.801	209.142	54	31
208.87	209.142	75	44
208.941	209.142	51	29
208.977	209.142	78	44
209.084	209.51	45	28
209.084	209.51	72	52
209.198	209.51	84	47
209.229	209.51	51	29
209.301	209.51	75	47
209.373	209.515	54	30
209.409	209.515	78	47
209.515	209.972	59	32
209.515	209.938	71	51
209.622	209.972	83	46
209.657	209.972	54	31
209.728	209.972	75	46
209.798	209.972	51	29
209.833	209.972	78	46
209.938	210.379	46	27
209.938	210.379	71	51
210.042	210.379	83	48
210.077	210.379	51	28
210.147	210.379	75	45
210.217	210.379	54	29
210.253	210.379	78	45
210.359	210.85	58	30
210.359	210.791	70	51
210.466	210.85	82	47
210.502	210.85	54	29
210.573	210.85	75	44
210.645	210.85	51	28
210.682	210.85	78	44
210.791	211.223	47	28
210.791	211.223	70	52
210.901	211.223	82	46
210.938	211.223	51	28
211.011	211.223	75	46
211.084	211.229	54	28
211.12	211.229	78	45
211.229	211.696	57	30
211.229	211.66	69	48
211.337	211.696	81	43
211.373	211.696	54	28
211.445	211.696	75	42
211.517	211.696	51	27
211.553	211.696	78	42
211.66	212.123	48	23
211.66	212.123	69	45
211.768	212.123	81	42
211.804	212.123	51	24
211.877	212.123	75	39
211.951	212.123	54	25
211.988	212.123	78	39
212.101	212.574	56	25
212.101	212.574	68	43
212.216	212.574	80	39
212.255	212.574	54	24
212.333	212.574	75	36
212.413	212.574	51	22
212.453	212.574	78	36
212.574	213.311	49	22
212.677	212.853	68	37
212.706	213.181	56	25
212.765	213.311	69	41
212.824	213.063	61	28
212.853	213.033	68	38
212.943	213.311	64	30
212.943	213.311	67	39
213.033	213.311	68	40
213.063	213.311	61	28
213.122	213.311	73	42
213.181	213.311	56	27
213.21	213.311	76	43
213.299	213.417	52	26
213.299	213.388	75	45
213.388	213.476	73	43
213.417	213.535	56	28
213.476	213.564	75	45
213.535	213.653	61	30
213.564	213.653	73	43
213.653	213.771	64	31
213.653	213.742	72	44
213.742	213.83	73	46
213.771	213.889	61	28
213.83	213.919	76	49
213.889	214.029	56	27
213.919	214.029	80	47
214.029	214.762	49	27
214.13	214.307	68	45
214.16	214.631	56	30
214.219	214.762	69	49
214.278	214.513	61	34
214.307	214.483	68	45
214.394	214.762	64	36
214.394	214.762	67	46
214.483	214.762	68	48
214.513	214.762	61	34
214.573	214.762	73	50
214.631	214.762	56	33
214.661	214.762	76	51
214.749	214.867	52	31
214.749	214.837	75	54
214.837	214.926	73	51
214.867	214.986	56	33
214.926	215.016	75	53
214.986	215.104	61	36
215.016	215.104	73	51
215.104	215.222	64	37
215.104	215.192	72	52
215.192	215.281	73	54
215.222	215.34	61	34
215.281	215.369	76	57
215.34	215.477	56	32
215.369	215.477	80	55
215.477	216.909	51	31
215.578	216.556	69	56
215.608	216.086	57	35
215.668	216.909	73	59
215.728	215.967	61	39
215.758	216.909	75	62
215.847	216.909	66	45
215.847	216.909	78	63
215.937	216.909	81	66
215.967	216.321	61	39
216.026	216.82	85	69
216.086	216.909	57	37
216.116	216.644	87	72
216.204	216.909	54	37
216.204	216.909	95	75
216.292	216.909	93	73
216.321	216.791	61	40
216.379	216.909	92	72
216.438	216.673	63	44
216.468	216.732	90	71
216.556	216.909	69	46
216.556	216.909	88	71
216.644	216.909	87	70
216.673	216.909	63	44
216.732	216.909	90	68
216.791	216.909	61	41
216.82	216.909	85	67
216.909	217.613	44	33
216.909	218.356	84	68
216.997	218.356	87	63
217.027	217.496	51	35
217.086	217.35	81	63
217.144	217.379	54	38
217.173	218.356	80	63
217.261	217.969	60	39
217.261	217.613	78	60
217.35	218.356	81	58
217.379	217.85	54	36
217.438	218.356	76	54
217.496	217.731	51	34
217.526	217.88	75	54
217.613	218.356	44	29
217.613	218.356	78	53
217.702	218.356	73	48
217.731	218.217	51	31
217.791	218.356	72	48
217.85	218.091	54	33
217.88	218.356	75	47
217.969	218.356	60	33
217.969	218.249	69	45
218.06	218.356	68	42
218.091	218.356	54	29
218.153	218.356	71	42
218.217	218.356	51	26
218.249	218.537	69	41
218.356	219.078	49	22
218.448	218.625	68	37
218.478	218.948	56	25
218.537	219.078	69	41
218.595	218.83	61	28
218.625	218.801	68	38
218.712	219.078	64	30
218.712	219.078	67	39
218.801	219.078	68	40
218.83	219.078	61	28
218.889	219.078	73	42
218.948	219.078	56	27
218.977	219.078	76	43
219.065	219.796	52	26
219.065	219.242	75	45
219.154	219.33	73	43
219.184	219.655	56	28
219.242	219.796	75	45
219.301	219.537	61	30
219.33	219.507	73	43
219.419	219.796	64	31
219.419	219.796	72	44
219.507	219.796	73	46
219.537	219.796	61	28
219.596	219.796	76	50
219.655	219.796	56	27
219.685	219.796	80	48
219.796	220.519	54	25
219.796	219.978	76	46
219.889	220.066	75	43
219.919	220.39	61	29
219.978	220.519	76	47
220.037	220.272	63	32
220.066	220.242	75	43
220.154	220.519	69	34
220.154	220.519	74	45
220.242	220.519	75	46
220.272	220.519	63	33
220.331	220.507	78	49
220.39	220.519	61	31
220.419	220.519	81	50
220.507	221.239	56	30
220.507	220.684	78	53
220.595	220.772	77	51
220.624	221.096	61	32
220.684	221.239	78	53
220.743	220.978	65	35
220.772	220.949	77	51
220.86	221.239	71	37
220.86	221.239	76	52
220.949	221.239	77	54
220.978	221.239	65	34
221.037	221.239	80	57
221.096	221.239	61	32
221.125	221.239	85	56
221.239	221.964	57	30
221.333	221.51	73	50
221.362	221.834	61	34
221.421	221.964	74	55
221.48	221.716	66	37
221.51	221.687	73	51
221.598	221.964	69	40
221.598	221.964	72	52
221.687	221.964	73	53
221.716	221.964	66	39
221.776	221.951	78	56
221.834	221.964	61	35
221.864	221.964	81	57
221.951	222.68	56	34
221.951	222.129	78	59
222.04	222.217	77	56
222.07	222.54	61	36
222.129	222.68	78	59
222.187	222.422	65	39
222.217	222.393	77	57
222.304	222.68	71	40
222.304	222.68	76	57
222.393	222.68	77	59
222.422	222.68	65	37
222.481	222.68	80	63
222.54	222.68	61	34
222.57	222.68	85	59
222.68	223.405	57	32
222.68	222.861	80	58
222.773	222.949	78	53
222.803	223.274	61	36
222.861	223.405	80	58
222.919	223.157	66	39
222.949	223.127	78	54
223.038	223.405	69	42
223.038	223.405	77	55
223.127	223.405	78	56
223.157	223.405	66	40
223.215	223.393	81	59
223.274	223.405	61	38
223.304	223.405	85	60
223.393	224.129	48	36
223.393	223.569	81	63
223.481	223.657	80	59
223.511	223.98	54	38
223.569	224.129	81	62
223.628	223.863	56	41
223.657	223.833	80	60
223.745	224.129	63	42
223.745	224.129	79	60
223.833	224.129	80	62
223.863	224.129	56	39
223.922	224.129	84	66
223.98	224.129	54	37
224.01	224.129	87	63
224.129	225.562	49	35
224.129	224.311	80	69
224.221	225.203	81	64
224.251	224.729	56	39
224.311	224.491	80	67
224.371	224.61	61	43
224.401	225.382	79	58
224.491	225.562	64	45
224.491	225.293	80	62
224.58	225.562	88	71
224.61	225.562	61	44
224.67	225.562	87	71
224.729	224.966	56	42
224.759	225.562	86	70
224.848	225.562	51	44
224.848	225.562	85	69
224.936	225.562	84	69
224.966	225.442	56	41
225.025	225.562	83	68
225.085	225.322	60	45
225.114	225.562	82	67
225.203	225.562	66	46
225.203	225.562	81	67
225.293	225.562	80	66
225.322	225.562	60	44
225.382	225.562	79	65
225.442	225.562	56	41
225.472	225.562	78	64
225.562	226.999	52	35
225.562	225.743	76	69
225.653	226.906	78	64
225.683	226.161	56	39
225.743	225.922	76	67
225.803	226.042	61	43
225.833	226.999	75	58
225.922	226.999	64	45
225.922	226.999	76	62
226.012	226.999	88	71
226.042	226.397	61	44
226.101	226.999	87	71
226.161	226.999	56	42
226.19	226.999	86	70
226.279	226.999	54	44
226.279	226.999	85	70
226.367	226.999	84	71
226.397	226.876	61	41
226.456	226.999	83	71
226.515	226.754	63	45
226.545	226.999	82	72
226.634	226.999	69	46
226.634	226.999	81	73
226.724	226.999	80	74
226.754	226.999	63	48
226.815	226.999	79	75
226.876	226.999	61	51
226.906	226.999	78	76
226.999	227.184	56	71
226.999	227.184	61	71
226.999	227.184	64	71
226.999	227.184	68	71
226.999	227.045	80	76
227.184	227.276	92	85
227.276	227.369	91	85
227.369	227.458	90	84
227.458	227.548	89	84
227.548	227.637	88	83
227.637	227.727	87	83
227.727	228.107	55	71
227.727	228.107	61	71
227.727	228.107	64	71
227.727	228.107	69	71
227.727	228.107	86	82
227.817	228.107	85	81
227.906	228.107	84	81
227.996	228.107	83	80
228.086	228.176	82	80
228.176	228.266	81	79
228.266	228.356	80	79
228.356	228.446	79	78
228.446	228.537	78	77
228.537	228.627	77	77
228.627	228.717	76	77
228.717	228.808	75	77
228.808	228.898	74	77
228.898	228.988	73	77
228.988	229.079	72	77
229.079	229.89	71	77
229.169	229.89	70	77
229.259	229.89	69	80
229.35	229.89	68	83
229.44	229.89	67	85
229.53	229.89	66	87
229.621	229.89	64	89
229.713	229.89	63	92
229.805	229.899	61	94
229.899	232.977	32	78
229.899	232.219	44	78
229.899	231.076	56	96
230.294	231.461	64	75
230.294	231.746	76	75
230.294	232.977	93	90
230.393	231.269	92	81
230.491	232.977	100	77
230.589	230.784	88	77
230.687	231.84	61	78
230.687	232.125	73	78
230.687	232.977	90	90
230.784	231.651	88	77
230.881	232.977	97	77
230.979	231.172	85	77
231.076	232.219	56	78
231.076	232.504	68	78
231.076	232.977	87	89
231.172	232.03	85	77
231.269	232.977	92	77
231.365	231.556	80	77
231.461	232.598	52	78
231.461	232.882	64	78
231.461	232.977	81	89
231.556	232.409	80	77
231.651	232.977	88	77
231.746	231.935	76	77
231.84	232.977	49	74
231.84	232.977	61	74
231.84	232.977	78	88
231.935	232.788	76	77
232.03	232.977	85	77
232.125	232.314	73	77
232.219	232.977	44	78
232.219	232.977	56	78
232.219	232.977	75	89
232.314	232.977	73	77
232.409	232.977	80	77
232.504	232.693	68	77
232.598	232.977	40	74
232.598	232.977	52	74
232.598	232.977	69	90
232.693	232.977	68	77
232.788	232.977	76	77
232.882	232.977	64	77
232.977	234.173	37	78
232.977	234.173	49	78
232.977	234.173	66	88
233.075	234.173	64	77
233.173	234.173	73	77
233.27	233.464	61	77
233.368	233.751	32	73
233.368	233.751	44	73
233.368	233.751	63	89
233.464	233.848	61	77
233.559	233.945	68	77
233.655	234.042	56	77
233.751	234.173	32	78
233.751	234.173	44	78
233.751	234.139	63	89
233.848	234.173	61	77
233.945	234.173	68	77
234.042	234.173	56	77
234.139	234.536	33	74
234.139	234.536	45	74
234.139	234.527	63	89
234.236	234.536	61	77
234.333	234.536	69	77
234.43	234.536	57	77
234.527	234.962	32	78
234.527	234.962	44	78
234.527	234.92	63	89
234.625	234.962	61	75
234.723	234.962	68	74
234.821	234.962	56	73
234.92	235.333	31	72
234.92	235.333	43	72
234.92	235.319	63	83
235.019	235.333	61	71
235.118	235.333	67	71
235.218	235.333	55	70
235.319	236.229	32	69
235.319	236.229	44	69
235.319	235.741	63	79
235.421	235.772	61	68
235.525	235.772	68	67
235.632	235.772	56	66
235.741	236.22	63	75
235.852	236.229	60	63
235.969	236.229	68	63
236.092	236.229	56	62
236.22	236.99	37	93
236.22	237.237	63	73
236.317	237.237	61	65
236.414	237.237	52	56
236.414	236.704	68	65
236.511	237.237	56	65
236.609	237.237	49	58
236.609	236.99	69	69
236.704	237.085	68	65
236.799	237.237	44	58
236.799	237.181	76	83
236.895	237.237	64	64
236.99	237.237	37	63
236.99	237.237	69	70
237.085	237.237	68	66
237.181	237.997	54	58
237.181	237.276	76	83
237.276	237.997	64	60
237.371	237.997	48	58
237.371	237.761	69	68
237.469	237.857	68	62
237.566	237.997	44	58
237.566	237.953	75	79
237.664	237.997	63	71
237.761	237.997	37	63
237.761	237.997	69	68
237.857	237.997	68	66
237.953	238.763	52	58
237.953	238.763	75	83
238.048	238.534	64	60
238.144	238.763	49	58
238.144	238.763	69	68
238.241	238.724	68	62
238.339	238.763	44	58
238.339	238.763	73	79
238.436	238.763	61	71
238.534	238.763	37	47
238.534	238.763	64	54
238.629	238.763	63	49
238.724	239.524	54	43
238.724	239.109	68	62
238.819	239.207	56	45
238.914	239.524	48	43
238.914	239.524	64	51
239.012	239.305	63	46
239.109	239.524	44	43
239.109	239.501	68	59
239.207	239.524	56	53
239.305	239.524	37	47
239.305	239.524	63	54
239.403	239.524	61	49
239.501	240.299	52	43
239.501	239.794	68	62
239.6	240.299	56	45
239.698	240.299	49	58
239.698	240.08	69	67
239.794	240.176	68	65
239.89	240.299	44	58
239.89	240.271	76	83
239.985	240.299	64	64
240.08	240.299	37	63
240.08	240.299	69	68
240.176	240.299	68	66
240.271	241.077	54	58
240.271	241.077	76	83
240.367	241.077	64	60
240.462	241.077	48	58
240.462	240.852	69	65
240.56	240.948	68	62
240.657	241.077	44	58
240.657	241.044	75	79
240.755	241.077	63	66
240.852	241.077	37	63
240.852	241.077	69	66
240.948	241.077	68	66
241.044	241.793	52	58
241.044	241.793	75	83
241.139	241.625	64	60
241.235	241.793	49	58
241.235	241.793	69	67
241.332	241.793	68	62
241.43	241.793	44	58
241.43	241.793	73	79
241.527	241.793	61	71
241.625	241.815	37	47
241.625	241.793	64	54
241.72	241.815	63	49
241.815	242.589	54	36
241.815	242.2	68	62
241.91	242.298	56	45
242.005	242.589	48	36
242.005	242.589	64	51
242.103	242.395	63	46
242.2	242.589	44	36
242.2	242.589	68	59
242.298	242.589	56	53
242.395	242.589	37	39
242.395	242.589	63	54
242.492	242.589	61	49
242.589	243.407	52	36
242.589	242.879	68	62
242.686	243.356	56	45
242.783	243.407	49	36
242.783	243.407	69	55
242.879	243.407	68	48
242.974	243.407	44	36
242.974	243.407	76	62
243.07	243.261	64	48
243.165	243.407	37	39
243.165	243.407	66	54
243.261	243.407	64	49
243.356	244.148	56	36
243.356	244.148	73	62
243.451	244.034	61	45
243.547	244.148	49	36
243.547	244.148	69	51
243.644	244.131	68	46
243.742	244.148	44	36
243.742	244.148	76	59
243.839	244.148	64	53
243.937	244.148	37	39
243.937	244.148	63	54
244.034	244.148	61	49
244.131	244.897	52	36
244.131	244.42	68	62
244.228	244.897	56	45
244.325	244.897	49	36
244.325	244.897	69	55
244.42	244.897	68	48
244.516	244.897	44	36
244.516	244.897	76	62
244.611	244.802	64	48
244.707	244.897	37	39
244.707	244.897	66	54
244.802	244.897	64	49
244.897	245.709	56	36
244.897	245.675	73	62
244.993	245.709	61	45
245.088	245.709	49	36
245.088	245.709	69	51
245.186	245.709	68	46
245.283	245.709	44	36
245.283	245.709	76	59
245.381	245.577	64	53
245.479	245.709	37	39
245.479	245.709	66	54
245.577	245.709	64	49
245.675	246.444	52	35
245.675	246.062	73	61
245.773	246.157	61	44
245.871	246.489	49	35
245.871	246.489	69	53
245.966	246.489	68	46
246.062	246.489	44	34
246.062	246.444	73	60
246.157	246.489	61	46
246.253	246.489	37	38
246.253	246.489	66	51
246.348	246.489	64	46
246.444	247.221	52	34
246.444	246.83	73	58
246.54	246.928	61	42
246.635	247.255	49	33
246.635	247.255	69	47
246.733	247.255	68	42
246.83	247.255	44	33
246.83	247.221	73	54
246.928	247.255	61	48
247.025	247.255	37	35
247.025	247.255	66	48
247.123	247.255	64	44
247.221	247.989	52	31
247.221	247.607	73	55
247.318	247.703	61	40
247.416	248.017	49	31
247.416	248.017	69	48
247.512	248.017	68	41
247.607	248.017	44	30
247.607	247.989	73	53
247.703	248.017	61	41
247.798	248.017	37	34
247.798	248.017	66	45
247.894	248.017	64	41
247.989	248.767	52	30
247.989	248.376	73	52
248.085	248.473	61	37
248.18	248.767	49	29
248.18	248.767	69	42
248.278	248.767	68	37
248.376	248.767	44	29
248.376	248.767	73	48
248.473	248.669	61	42
248.571	249.542	37	31
248.571	248.767	63	43
248.669	248.767	61	39
248.767	249.156	68	49
248.865	249.252	56	36
248.963	249.349	63	44
249.059	249.445	61	38
249.156	249.542	68	49
249.252	249.542	56	38
249.349	249.542	63	43
249.445	249.542	61	39
249.542	249.933	68	49
249.638	250.033	56	36
249.735	250.132	63	40
249.834	250.23	61	36
249.933	250.327	68	47
250.033	250.333	56	42
250.132	250.333	63	43
250.23	250.333	61	39
250.327	250.716	68	48
250.425	250.812	56	35
250.523	250.909	63	42
250.619	251.005	61	36
250.716	251.102	68	46
250.812	251.153	56	35
250.909	251.153	63	39
251.005	251.153	61	35
251.102	251.492	68	44
251.198	251.594	56	32
251.294	251.697	63	35
251.393	251.706	61	31
251.492	251.706	68	40
251.594	251.706	56	36
251.697	253.247	37	39
251.697	253.247	44	48
251.697	252.084	63	36
251.794	252.18	61	33
251.891	252.276	68	41
251.988	252.371	56	30
252.084	252.466	63	37
252.18	252.475	61	32
252.276	252.475	68	41
252.371	252.475	56	32
252.466	252.848	63	36
252.562	252.946	61	33
252.657	253.043	68	41
252.753	253.141	56	30
252.848	253.238	63	34
252.946	253.247	61	30
253.043	253.247	68	39
253.141	253.247	56	35
253.238	254.017	46	47
253.238	253.626	63	36
253.335	253.722	61	33
253.432	253.817	68	41
253.529	253.912	56	30
253.626	254.017	44	50
253.626	254.008	63	37
253.722	254.017	61	32
253.817	254.017	68	41
253.912	254.017	56	32
254.008	254.789	49	52
254.008	254.39	63	36
254.103	254.487	61	33
254.199	254.585	68	41
254.294	254.682	56	30
254.39	254.789	51	56
254.39	254.78	63	34
254.487	254.789	61	30
254.585	254.789	68	39
254.682	254.789	56	35
254.78	256.33	53	58
254.78	255.167	63	36
254.877	255.263	61	33
254.974	255.359	68	41
255.07	255.454	56	30
255.167	255.549	63	37
255.263	255.558	61	32
255.359	255.558	68	41
255.454	255.558	56	32
255.549	255.931	63	36
255.645	256.029	61	33
255.74	256.126	68	41
255.836	256.224	56	30
255.931	256.321	63	34
256.029	256.33	61	30
256.126	256.33	68	39
256.224	256.321	56	35
256.321	256.612	56	60
256.321	256.709	63	36
256.418	256.805	61	33
256.515	256.9	68	41
256.612	256.995	56	30
256.709	257.091	63	37
256.805	257.1	61	32
256.9	257.1	68	41
256.995	257.377	56	32
257.091	257.473	63	36
257.186	257.57	61	33
257.282	257.668	68	41
257.377	257.765	56	30
257.473	257.863	63	34
257.57	257.872	61	30
257.668	257.872	68	39
257.765	257.872	56	35
257.863	258.641	54	56
257.863	258.25	63	36
257.96	258.346	61	33
258.057	258.442	68	41
258.153	258.537	56	30
258.25	258.632	63	37
258.346	258.641	61	32
258.442	258.641	68	41
258.537	258.641	56	32
258.632	259.404	53	56
258.632	259.014	63	36
258.728	259.112	61	33
258.823	259.209	68	41
258.919	259.307	56	30
259.014	259.404	63	34
259.112	259.404	61	30
259.209	259.404	68	39
259.307	259.404	56	35
259.404	260.174	51	57
259.404	259.501	63	36
259.501	259.888	61	33
259.598	259.983	68	41
259.695	260.078	56	30
259.792	260.156	63	37
259.888	260.156	61	32
259.983	260.156	68	41
260.078	260.174	56	32
260.174	260.993	53	56
260.174	260.561	63	36
260.271	260.662	61	33
260.367	260.762	68	41
260.464	260.863	56	30
260.561	260.993	49	48
260.561	260.964	63	34
260.662	260.993	61	30
260.762	260.993	68	39
260.863	260.993	56	35
260.964	262.623	44	53
260.964	261.382	63	36
261.068	261.483	61	29
261.173	261.586	68	35
261.277	261.689	53	37
261.382	261.792	63	44
261.483	261.894	61	28
261.586	261.997	68	36
261.689	262.1	53	37
261.792	262.203	63	43
261.894	262.308	61	29
261.997	262.413	68	37
262.1	262.518	53	37
262.203	262.623	63	45
262.308	262.623	61	27
262.413	262.623	68	36
262.518	262.623	53	31
262.623	264.481	32	50
262.623	264.481	44	50
262.623	262.73	65	32
262.735	263.166	63	29
262.836	263.283	68	35
262.943	263.401	54	38
263.05	263.525	65	44
263.166	263.644	63	28
263.283	263.757	68	35
263.401	263.876	54	38
263.525	263.996	65	42
263.644	264.117	63	29
263.757	264.238	68	37
263.876	264.359	54	37
263.996	264.481	65	40
264.117	264.481	63	27
264.238	264.481	68	35
264.359	264.481	54	38
264.481	267.022	37	33
264.599	267.022	44	36
264.732	267.022	54	38
264.858	274.931	56	40
264.977	267.022	60	43
265.199	267.022	63	48
267.022	274.931	37	31
267.301	274.931	44	37
267.567	274.931	53	35
267.815	274.931	61	42
