OnsetTime	OffsetTime	MidiPitch	Velocity
0.519987	1.14699	67	90
1.115	1.741	65	85
1.71999	2.329	70	89
2.306	2.82	72	91
2.598	2.911	77	73
2.89	4.02299	74	86
3.474	4.02299	72	85
3.76499	4.083	77	74
4.05499	4.68099	74	85
4.65699	5.276	70	86
5.255	5.88199	72	86
5.855	6.48101	67	82
6.46001	7.09004	65	81
7.09004	7.68803	58	82
7.09303	7.68903	62	82
7.09303	7.68903	67	82
7.09403	7.69203	43	74
7.09702	7.69203	55	74
7.69304	8.28703	60	80
7.69503	8.28802	57	80
7.69503	8.28802	65	80
7.69603	8.29002	45	69
7.69903	8.29002	53	69
8.29102	8.87202	58	80
8.29102	8.87102	62	80
8.29401	8.87502	43	69
8.29401	8.87401	70	80
8.29502	8.87801	55	69
8.87902	9.47001	60	82
8.87902	9.47001	69	82
8.87902	9.38201	72	82
8.88101	9.47001	41	66
8.88201	9.47402	53	66
9.16902	9.47402	77	78
9.47702	10.065	65	81
9.47702	10.062	69	81
9.47702	10.062	74	81
9.48002	10.065	38	60
9.48101	10.066	50	60
10.069	10.653	60	81
10.069	10.656	69	81
10.07	10.565	72	81
10.072	10.656	41	69
10.072	10.656	53	69
10.359	10.66	77	77
10.66	11.258	70	84
10.661	11.258	65	84
10.663	11.262	46	67
10.663	11.259	74	84
10.664	11.262	58	67
11.263	11.857	67	78
11.265	11.858	62	78
11.265	11.858	70	78
11.266	11.86	43	63
11.269	11.86	55	63
11.861	12.455	67	77
11.864	12.456	64	77
11.864	12.456	72	77
11.865	12.457	36	67
11.865	12.458	48	67
12.459	13.057	60	70
12.459	13.058	67	70
12.462	13.061	55	70
12.463	13.061	40	58
12.463	13.061	52	58
13.062	13.701	65	66
13.065	13.702	57	66
13.065	13.704	60	66
13.067	13.705	41	56
13.068	13.705	53	56
13.709	14.376	65	92
14.307	14.927	67	88
14.906	15.528	62	83
15.497	16.046	65	86
15.787	16.109	67	74
16.081	16.697	60	80
16.672	17.218	67	85
16.963	17.285	69	77
17.253	17.859	65	83
17.86	18.461	77	84
17.861	18.461	65	84
17.862	18.465	53	73
17.863	18.465	41	73
18.465	19.049	65	82
18.469	19.05	58	69
18.469	19.049	74	82
18.47	19.053	46	69
19.053	19.637	65	80
19.054	19.581	72	80
19.056	19.638	43	67
19.056	19.638	55	67
19.341	19.638	70	74
19.641	20.25	65	79
19.642	20.251	41	61
19.642	20.251	53	61
20.253	20.901	65	92
20.848	21.474	67	88
21.447	22.063	62	85
22.039	22.5	65	86
22.329	22.647	67	77
22.623	23.239	63	85
23.214	23.673	70	92
23.508	24.268	72	72
23.802	24.394	68	78
24.394	24.993	80	84
24.398	24.996	44	73
24.398	24.996	56	73
24.398	24.993	68	84
24.996	25.591	68	80
25.0	25.595	49	68
25.0	25.595	61	68
25.0	25.591	77	80
25.596	26.084	75	78
25.598	26.186	46	67
25.598	26.186	58	67
25.598	26.182	68	78
25.888	26.187	73	78
26.187	26.816	68	74
26.189	26.817	56	64
26.19	26.817	44	64
26.819	27.414	68	57
26.82	27.415	56	57
26.82	28.615	63	57
26.823	28.016	42	44
26.824	28.019	30	44
27.415	28.02	70	58
27.418	28.02	58	58
28.023	28.615	56	58
28.024	28.619	29	40
28.024	28.619	68	58
28.027	28.619	41	40
28.62	29.196	63	58
28.622	29.143	58	58
28.622	29.143	70	58
28.623	29.196	30	44
28.625	29.197	42	44
28.907	29.2	60	58
28.909	29.2	72	58
29.2	29.689	75	63
29.203	29.777	30	41
29.203	30.372	63	63
29.204	29.778	42	41
29.48	29.778	70	58
29.483	29.78	58	58
29.78	30.375	68	55
29.781	30.376	56	55
29.784	30.379	42	39
29.784	30.379	54	39
30.38	30.704	73	73
30.382	30.704	61	73
30.382	30.704	65	73
30.383	30.704	41	55
30.383	30.704	53	55
30.383	30.674	68	73
30.673	30.96	72	69
30.674	30.964	63	69
30.674	30.963	68	69
30.674	30.961	75	69
30.676	30.964	51	50
30.677	30.964	39	50
30.9679	31.464	65	73
30.9679	31.464	77	73
30.9699	31.464	73	73
30.971	31.534	37	55
30.971	31.538	49	55
30.971	31.464	68	73
31.25	31.538	80	75
31.538	31.832	70	72
31.54	31.832	75	72
31.5409	31.832	66	72
31.5409	31.832	78	72
31.542	31.832	39	56
31.544	31.832	51	56
31.826	32.119	68	68
31.828	32.122	65	68
31.828	32.122	73	68
31.828	32.122	77	68
31.829	32.122	41	51
31.832	32.122	53	51
32.1159	32.7379	63	75
32.119	32.7379	68	75
32.119	32.7379	72	75
32.119	32.7379	75	75
32.12	32.7379	56	56
32.122	32.7379	44	56
32.4059	32.7379	66	69
32.4059	32.7379	78	69
32.6999	33.2349	70	69
32.7029	32.9909	73	69
32.7029	33.2349	77	69
32.7039	33.2769	58	46
32.7039	33.2349	65	69
32.7059	33.2779	46	46
32.9899	33.2799	61	68
32.9909	33.2799	73	68
33.2809	33.8789	68	64
33.2809	33.8799	75	64
33.2839	33.8829	63	64
33.2839	33.8819	72	64
33.2849	33.8829	44	44
33.2849	33.8869	56	44
33.8869	35.6779	63	61
33.8889	34.4809	68	61
33.8899	35.0749	30	42
33.8899	34.4809	56	61
33.8909	35.0759	42	42
34.4799	35.0759	70	61
34.4809	35.0799	58	61
35.0799	35.6819	56	61
35.0809	35.6819	68	61
35.0829	35.6829	29	44
35.0829	35.6849	41	44
35.6849	36.2409	58	58
35.6859	36.2619	63	58
35.6889	36.2619	30	42
35.6889	36.2629	42	42
35.6889	36.2409	70	58
35.9719	36.2629	72	58
35.9759	36.2659	60	58
36.2659	36.7419	63	63
36.2669	36.7419	42	45
36.2669	36.7419	75	63
36.2689	36.7419	54	45
36.5559	36.8569	58	58
36.5569	36.8579	70	58
36.8609	37.4599	60	62
36.8619	38.6499	67	62
36.8619	37.4599	72	62
36.8639	38.0609	46	41
36.8649	38.0619	34	41
37.4589	38.0619	62	64
37.4599	38.0639	74	64
38.0649	38.6529	60	63
38.0649	38.6569	72	63
38.0659	38.6569	33	40
38.0659	38.6569	45	40
38.6579	39.2029	62	62
38.6579	39.2339	67	62
38.6599	39.2349	34	42
38.6599	39.2339	46	42
38.6599	39.2029	74	62
38.9439	39.2349	77	62
38.9469	39.2379	65	62
39.2379	39.7479	79	64
39.2389	39.8179	46	41
39.2389	40.4059	67	64
39.2409	39.8189	34	41
39.5319	39.8219	62	63
39.5319	39.8219	74	63
39.8229	40.4069	72	61
39.8249	40.4099	58	41
39.8249	40.4069	60	61
39.8259	40.4109	46	41
40.4109	40.6979	65	79
40.4109	40.6929	72	79
40.4129	40.6979	69	79
40.4129	40.6999	77	79
40.4139	40.7009	45	62
40.4139	40.7009	57	62
40.7009	40.9949	72	72
40.7039	41.0149	76	72
40.7039	41.0149	79	72
40.7049	41.0149	55	56
40.7049	41.0149	67	72
40.7069	41.0149	43	56
40.9919	41.4919	69	82
40.9949	41.2819	72	82
40.9949	41.4919	77	82
40.9949	41.4919	81	82
40.9959	41.5549	41	61
40.9979	41.5549	53	61
41.2819	41.5579	72	72
41.2819	41.5579	84	72
41.5579	41.9049	74	81
41.5619	41.9049	70	81
41.5619	41.9049	79	81
41.5619	41.9049	82	81
41.5629	41.9049	55	61
41.5649	41.9049	43	61
41.8499	42.1359	69	75
41.8519	42.1359	81	75
41.8529	42.1369	72	75
41.8529	42.1389	77	75
41.8559	42.1389	45	56
41.8559	42.1399	57	56
42.1429	42.7619	76	81
42.1439	42.7619	67	81
42.1439	42.7619	72	81
42.1439	42.7619	79	81
42.1459	42.7619	48	62
42.1459	42.7619	60	62
42.4289	42.7619	70	75
42.4299	42.7619	82	75
42.7269	43.3529	74	79
42.7279	43.3529	69	79
42.7279	43.0289	77	79
42.7299	43.3529	50	60
42.7299	43.3529	81	79
42.7309	43.3529	62	60
43.0289	43.3529	65	74
43.0289	43.3529	77	74
43.3299	43.9349	67	69
43.3299	43.9339	72	69
43.3319	43.9389	76	69
43.3319	43.9379	79	69
43.3329	43.9389	48	58
43.3329	43.9389	60	58
43.9409	44.5609	69	67
43.9419	44.5609	72	67
43.9419	44.5609	81	67
43.9449	44.5609	57	51
43.9459	44.5609	45	51
44.2259	44.5609	76	61
44.5189	45.1069	65	64
44.5229	45.1109	46	46
44.5229	45.1069	74	64
44.5229	45.1079	77	64
44.5239	45.1109	58	46
45.1109	45.7099	69	61
45.1139	45.7099	72	61
45.1139	45.7099	81	61
45.1149	45.7099	53	51
45.1179	45.7099	41	51
45.7059	46.2969	64	56
45.7069	46.2979	70	56
45.7069	46.2979	74	56
45.7089	46.2999	43	44
45.7089	46.2999	55	44
46.3009	46.8948	81	60
46.3039	46.8948	69	60
46.3049	46.8948	53	50
46.3049	46.8948	72	60
46.3069	46.8948	41	50
46.8889	47.4799	70	56
46.8899	47.4808	74	56
46.8919	47.4838	64	56
46.8928	47.4869	43	44
46.8928	47.4838	55	44
47.4878	48.0718	69	66
47.4878	48.0398	77	66
47.4888	48.0748	65	66
47.4908	48.0748	38	52
47.4908	48.0748	50	52
47.7778	48.0788	72	60
48.0788	48.6629	70	64
48.0798	48.6669	65	64
48.0808	48.6669	74	64
48.0818	48.6698	43	49
48.0818	48.6698	55	49
48.6698	49.2578	69	62
48.6738	49.2618	50	52
48.6738	49.2578	65	62
48.6738	49.2618	77	62
48.6748	49.2629	38	52
49.2629	49.8628	70	56
49.2648	49.8639	65	56
49.2648	49.8639	74	56
49.2659	49.8668	43	42
49.2659	49.8639	55	42
49.8679	50.4479	69	64
49.8679	50.4298	77	64
49.8698	50.4518	50	52
49.8698	50.4488	65	64
49.8709	50.4518	38	52
50.1548	50.4518	72	60
50.4528	51.0509	70	62
50.4558	51.0538	55	48
50.4558	51.0509	65	62
50.4558	51.0538	74	62
50.4578	51.0538	43	48
51.0578	51.7018	63	63
51.0578	51.7018	67	63
51.0608	51.7018	36	51
51.0608	51.7018	48	51
51.0608	51.7018	72	63
51.3478	51.7018	64	55
51.6498	52.2539	65	58
51.6518	52.2788	60	58
51.6518	52.2788	69	58
51.6528	52.2788	41	49
51.6528	52.2788	53	49
52.2519	52.8459	70	55
52.2539	52.8459	62	55
52.2539	52.8469	65	55
52.2549	52.8489	43	42
52.2578	52.8489	55	42
52.8499	53.4649	63	64
52.8499	53.4649	72	64
52.8529	53.4649	48	50
52.8529	53.4649	67	64
52.8539	53.4649	36	50
53.1429	53.4649	64	56
53.4439	54.0389	65	58
53.4448	54.0419	60	58
53.4448	54.0429	69	58
53.4468	54.0459	41	48
53.4468	54.0459	53	48
54.0469	54.6269	62	66
54.0469	54.6279	65	66
54.0489	54.5289	70	66
54.0499	54.6309	43	49
54.0499	54.6299	55	49
54.3369	54.6309	74	62
54.6339	55.2119	67	66
54.6349	55.2149	64	66
54.6349	55.2149	72	66
54.6359	55.2188	48	50
54.6379	55.2188	36	50
55.2188	55.8168	62	55
55.2219	55.8168	60	55
55.2219	55.8168	65	55
55.2219	55.8168	69	55
55.2229	55.8168	41	42
55.8109	56.4188	64	61
55.8138	56.4228	67	61
55.8138	56.4228	72	61
55.8148	56.4258	36	46
55.8148	56.4258	48	46
56.4268	57.0068	65	88
56.4268	57.0108	77	88
56.4298	57.0118	29	67
56.4298	57.0118	41	67
57.0138	57.4408	67	82
57.0148	57.4408	63	82
57.0148	57.4408	70	82
57.0148	57.4408	75	82
57.0178	57.5958	31	67
57.0178	57.5948	43	67
57.3018	57.5958	62	78
57.3038	57.5968	74	78
57.5988	57.8988	65	75
57.5988	57.8998	69	75
57.5988	57.8998	72	75
57.6018	57.8998	60	75
57.6028	57.8998	33	62
57.6028	57.8998	45	62
57.8968	58.1858	62	71
57.8968	58.1868	70	71
57.8988	58.1868	65	71
57.8998	58.1908	34	56
57.8998	58.1898	46	56
58.1908	58.7828	65	82
58.1928	58.8138	60	82
58.1938	58.8138	33	64
58.1938	58.8138	45	64
58.1938	58.8138	72	82
58.7828	59.3768	65	84
58.7848	59.3768	62	84
58.7848	59.3778	74	84
58.7888	59.3798	34	66
58.7888	59.3798	46	66
59.3798	59.9678	69	86
59.3808	59.9678	77	86
59.3838	59.9718	65	86
59.3838	59.9688	72	86
59.3848	59.9718	45	66
59.3868	59.9728	33	66
59.9748	60.5838	67	90
59.9748	60.5838	79	90
59.9788	60.2758	70	90
59.9788	60.5838	75	90
59.9798	60.5838	31	63
59.9798	60.5838	43	63
60.2738	60.5838	82	82
60.2758	60.5838	70	82
60.5708	61.1788	65	88
60.5708	61.1788	77	88
60.5738	61.1788	29	66
60.5738	61.1788	41	66
61.1748	61.7668	67	92
61.1758	61.7708	43	67
61.1758	61.7678	79	92
61.1768	61.7708	31	67
61.7708	62.3998	77	89
61.7738	62.3998	65	89
61.7748	62.3998	29	67
61.7748	62.3998	41	67
62.3768	62.9118	70	81
62.3778	62.9118	63	81
62.3788	62.9118	67	81
62.3798	62.9468	31	63
62.3798	62.9118	75	81
62.3808	62.9468	43	63
62.6598	62.9478	74	71
62.6608	62.9498	62	71
62.9498	63.2418	60	73
62.9508	63.2418	72	73
62.9538	63.2408	65	73
62.9538	63.2418	69	73
62.9548	63.2418	33	62
62.9548	63.2418	45	62
63.2368	63.5208	70	71
63.2378	63.5218	62	71
63.2408	63.5238	46	55
63.2408	63.5218	65	71
63.2418	63.5238	34	55
63.5248	64.1048	72	75
63.5278	64.1078	60	75
63.5288	64.1088	45	62
63.5288	64.1078	65	75
63.5308	64.1118	33	62
64.1128	64.7218	74	90
64.1148	64.7178	65	90
64.1158	64.7218	34	68
64.1158	64.7218	46	68
64.1158	64.7218	62	90
64.7148	65.3128	72	88
64.7178	65.3188	65	88
64.7178	65.3168	69	88
64.7178	65.3168	77	88
64.7208	65.3198	33	68
64.7218	65.3198	45	68
65.3208	65.8198	75	91
65.3228	65.8198	67	91
65.3238	65.6178	70	91
65.3238	65.8198	79	91
65.3248	65.9108	31	69
65.3268	65.9148	43	69
65.6138	65.9148	82	82
65.6178	65.9148	70	82
65.9188	66.5978	65	88
65.9188	66.5978	77	88
65.9198	66.5978	29	66
65.9218	66.5978	41	66
66.5138	67.1078	67	91
66.5168	67.1088	79	91
66.5178	67.1118	31	69
66.5178	67.1088	43	69
67.1128	67.7138	77	88
67.1148	67.7148	29	66
67.1148	67.7148	65	88
67.1158	67.7148	41	66
67.7168	68.3078	67	93
67.7178	68.3118	55	69
68.3128	68.8968	53	68
68.3128	68.8968	65	90
68.8978	69.5098	72	91
68.9008	69.5098	67	91
68.9008	69.5098	76	91
68.9008	69.5098	79	91
68.9018	69.5098	36	67
68.9038	69.5098	48	67
69.2018	69.5098	70	77
69.2038	69.5098	82	77
69.5058	70.1038	77	85
69.5068	70.1048	29	61
69.5068	70.1038	65	85
69.5098	70.1078	41	61
70.1078	70.7058	79	92
70.1088	70.7098	67	92
70.1108	70.7108	31	62
70.1108	70.7108	43	62
70.7128	71.3298	65	90
70.7128	71.3288	77	90
70.7138	71.3298	29	67
70.7138	71.3328	41	67
71.3328	71.9488	58	88
71.3338	71.9488	63	88
71.3338	71.9488	67	88
71.3358	71.9488	39	67
71.3358	71.9488	51	67
71.9428	72.5468	57	88
71.9458	72.5508	41	67
71.9458	72.5478	60	88
71.9458	72.5498	65	88
71.9488	72.5508	53	67
72.5538	73.1518	58	92
72.5548	73.1528	65	92
72.5548	73.1528	70	92
72.5568	73.1538	38	66
72.5578	73.1558	50	66
73.1568	73.6808	60	85
73.1568	73.6808	72	85
73.1588	73.4458	65	85
73.1598	73.7518	36	68
73.1598	73.6808	69	85
73.1608	73.7518	48	68
73.4458	73.7518	65	80
73.4468	73.7528	77	80
73.7538	74.3568	65	86
73.7548	74.3608	62	86
73.7548	74.3608	70	86
73.7558	74.3618	74	86
73.7578	74.3638	46	62
73.7588	74.3638	34	62
74.3648	74.9098	60	85
74.3678	74.6658	65	85
74.3678	74.9098	69	85
74.3678	74.9098	72	85
74.3708	74.9618	33	68
74.3708	74.9618	45	68
74.6648	74.9628	77	78
74.6658	74.9658	65	78
74.9658	75.5708	70	85
74.9668	75.5708	74	85
74.9688	75.5748	62	85
74.9688	75.5748	65	85
74.9698	75.5758	43	62
74.9728	75.5778	31	62
75.5788	76.1778	58	85
75.5788	76.1768	65	85
75.5818	76.1778	62	85
75.5828	76.1798	55	62
75.5828	76.1798	70	85
75.5848	76.1808	43	62
76.1808	76.8768	63	84
76.1838	76.8768	72	84
76.1848	76.8768	48	64
76.1848	76.8008	60	84
76.1848	76.8008	67	84
76.1868	76.8768	36	64
76.7968	77.3938	55	78
76.8008	77.3988	60	78
76.8008	77.3988	64	78
76.8008	77.3988	67	78
76.8028	77.3998	40	58
76.8038	77.4018	52	58
77.4018	78.0148	57	78
77.4028	78.0178	60	78
77.4048	78.0178	65	78
77.4058	78.0218	41	57
77.4058	78.0208	53	57
78.0218	78.6408	55	92
78.0228	78.6408	62	92
78.0238	78.6408	67	92
78.0248	78.6408	34	69
78.0248	78.6408	46	69
78.6378	79.2348	57	91
78.6378	79.2358	60	91
78.6388	79.2358	65	91
78.6408	79.2398	33	66
78.6408	79.2398	45	66
79.2398	79.8447	58	91
79.2428	79.8477	43	67
79.2428	79.8457	65	91
79.2428	79.8447	70	91
79.2438	79.8477	31	67
79.8487	80.1637	65	85
79.8487	80.3197	69	85
79.8517	80.3197	60	85
79.8517	80.3197	72	85
79.8527	80.4637	41	68
79.8557	80.4677	29	68
80.1628	80.4688	77	78
80.1637	80.4707	65	78
80.4707	81.0727	70	85
80.4718	81.0767	65	85
80.4718	81.0737	74	85
80.4747	81.0797	46	64
80.4747	81.0767	62	85
80.4758	81.0807	34	64
81.0807	81.7027	62	90
81.0837	81.7037	58	90
81.0847	81.7037	70	90
81.0867	81.7067	55	68
81.0867	81.7067	67	90
81.0877	81.7077	43	68
81.7077	82.3747	67	92
81.7097	82.3787	72	92
81.7097	82.3747	75	92
81.7107	82.3797	48	64
81.7107	82.3787	63	92
81.7137	82.3817	36	64
82.3817	83.0967	60	85
82.3827	83.0967	72	85
82.3857	83.0977	65	85
82.3857	83.0977	69	85
82.3867	83.0997	41	60
82.3867	83.0997	53	60
83.1007	84.2477	70	86
83.1037	84.2557	58	62
83.1037	84.2517	62	86
83.1037	84.2547	65	86
83.1047	84.2557	46	62
84.2557	84.3667	59	92
84.2577	84.3667	47	80
84.3457	84.4647	51	83
84.3487	84.4647	39	75
84.4477	84.5637	38	70
84.4477	84.5627	50	74
84.5487	84.6607	59	87
84.5497	84.6617	47	76
84.6467	84.7657	58	85
84.6477	84.7697	46	74
84.7487	84.8707	50	81
84.7517	84.8717	38	70
84.8527	86.3337	54	91
84.8537	86.3337	42	80
86.5087	86.6527	59	55
86.5097	86.6557	47	48
86.6277	86.7677	51	49
86.6307	86.7717	39	45
86.7507	86.8897	50	44
86.7537	86.8937	38	37
86.8687	87.0197	59	52
86.8697	87.0197	47	45
86.9957	87.1607	46	44
86.9957	87.1597	58	50
87.1347	87.2967	50	44
87.1357	87.2998	38	37
87.2787	88.4828	54	50
87.2797	88.4838	42	43
88.5988	88.7128	59	92
88.6018	88.7138	47	80
88.6998	88.8148	39	75
88.6998	88.8118	51	83
88.8008	88.9097	50	73
88.8018	88.9128	38	65
88.8958	89.0148	47	76
88.8958	89.0138	59	87
89.0008	89.1167	46	72
89.0008	89.1157	58	80
89.0998	89.2138	37	63
89.0998	89.2138	49	74
89.1968	89.2988	52	88
89.1978	89.2988	40	80
89.4068	89.5498	58	77
89.4078	89.5498	46	69
89.5078	89.6028	47	74
89.5088	89.6028	35	63
89.6068	89.7078	39	69
89.6068	89.7068	51	80
89.8128	89.9147	58	78
89.8137	89.9077	46	70
89.9077	90.0058	34	67
89.9077	90.0018	46	75
90.0058	90.1587	50	89
90.0067	90.1598	38	72
90.2078	90.3138	34	73
90.2078	90.3098	46	85
90.4147	90.7857	58	95
90.4158	90.6847	70	95
90.4178	90.7857	46	91
90.6807	90.9507	82	102
90.6807	90.9507	94	102
90.6847	90.9517	70	94
91.9657	92.0808	59	92
91.9687	92.0817	47	80
92.0627	92.1827	51	83
92.0637	92.1827	39	75
92.1688	92.2757	50	76
92.1717	92.2767	38	66
92.2667	92.3817	59	87
92.2698	92.3847	47	76
92.3638	92.4797	58	81
92.3677	92.4837	46	73
92.4657	92.5848	50	78
92.4667	92.5848	38	70
92.5707	94.0508	42	80
92.5707	94.0478	54	91
94.2288	94.3448	59	92
94.2298	94.3458	47	80
94.3278	94.4438	51	83
94.3288	94.4438	39	75
94.4258	94.5408	50	75
94.4298	94.5418	38	67
94.5238	94.6428	59	85
94.5278	94.6438	47	76
94.6218	94.7408	58	83
94.6248	94.7418	46	74
94.7298	94.8428	49	75
94.7308	94.8428	37	66
94.8288	94.9338	40	80
94.8288	94.9298	52	88
95.0348	95.1818	58	77
95.0358	95.1818	46	69
95.1378	95.2338	47	74
95.1398	95.2348	35	63
95.2348	95.3358	51	80
95.2378	95.3388	39	69
95.4378	95.5368	46	70
95.4378	95.5388	58	78
95.5368	95.6328	46	75
95.5388	95.6338	34	67
95.6338	95.7908	50	87
95.6368	95.7908	38	76
95.8368	95.9478	46	85
95.8398	95.9488	34	73
96.0537	96.2977	58	99
96.0537	96.2958	70	99
96.0548	96.6657	46	86
96.2947	96.5647	82	94
96.2958	96.5647	70	94
96.2977	96.6657	58	81
96.5637	96.8297	94	102
96.5647	96.8337	70	89
96.5647	96.8307	82	102
97.7227	97.9927	27	60
97.9057	98.0797	82	79
97.9057	98.0797	89	79
97.9077	98.0807	78	79
97.9087	98.0807	39	60
98.1357	99.0778	82	72
98.1357	99.0778	87	72
98.1388	99.0778	78	72
98.1397	99.3088	39	57
99.3088	99.4827	85	75
99.3118	99.4837	78	75
99.3128	100.047	45	61
99.3128	99.4837	75	75
99.5387	99.9137	75	71
99.5437	99.9147	78	71
99.5437	99.9147	84	71
100.047	100.218	71	74
100.048	100.219	75	74
100.051	100.674	54	55
100.051	100.222	80	74
100.278	100.674	71	70
100.282	100.675	75	70
100.282	100.677	78	70
100.677	100.922	27	49
100.842	101.019	66	69
100.842	101.024	70	69
100.845	101.024	77	69
100.846	101.024	39	55
101.079	101.951	66	67
101.08	101.951	70	67
101.08	101.952	75	67
101.083	101.955	39	53
102.322	102.5	63	66
102.322	102.501	66	66
102.323	102.504	73	66
102.326	103.074	45	56
102.56	102.942	63	60
102.561	102.945	66	60
102.561	102.945	72	60
103.075	103.264	59	61
103.078	103.264	63	61
103.079	103.265	68	61
103.082	103.774	54	53
103.327	103.663	59	55
103.327	103.663	63	55
103.328	103.667	66	55
103.915	103.985	47	59
103.915	103.985	59	72
103.986	104.097	46	88
103.986	104.096	58	100
104.149	104.219	47	69
104.15	104.219	35	53
104.22	104.366	46	94
104.223	104.367	34	84
105.472	105.741	27	49
105.655	105.826	82	64
105.655	105.822	89	64
105.657	105.826	78	64
105.658	105.827	39	49
105.882	106.82	82	59
105.882	106.82	87	59
105.883	107.058	39	46
105.883	106.82	78	59
107.061	107.233	85	62
107.062	107.237	75	62
107.062	107.233	78	62
107.065	107.796	45	50
107.292	107.659	75	58
107.293	107.663	78	58
107.293	107.666	84	58
107.796	107.974	71	61
107.8	107.975	75	61
107.8	107.978	80	61
107.801	108.44	54	45
108.038	108.44	71	57
108.041	108.444	75	57
108.042	108.444	78	57
108.445	108.682	27	40
108.605	108.79	66	56
108.605	108.79	70	56
108.606	108.791	77	56
108.608	108.791	39	45
108.847	109.711	66	54
108.847	109.712	70	54
108.85	109.714	39	44
108.85	109.714	75	54
110.082	110.263	63	54
110.085	110.264	66	54
110.085	110.264	73	54
110.086	110.837	45	45
110.32	110.705	63	49
110.323	110.705	66	49
110.324	110.708	72	49
110.841	111.023	59	50
110.842	111.023	63	50
110.842	111.024	68	50
110.843	111.548	54	44
111.086	111.43	59	45
111.086	111.43	63	45
111.09	111.431	66	45
111.685	111.755	47	54
111.685	111.754	59	66
111.755	111.863	58	90
111.759	111.867	46	76
111.916	111.986	47	63
111.919	111.989	35	49
111.989	112.132	46	84
111.99	112.133	34	68
113.144	113.256	59	92
113.145	113.257	47	80
113.242	113.358	39	75
113.242	113.358	51	83
113.34	113.459	38	67
113.34	113.455	50	75
113.438	113.554	59	86
113.439	113.557	47	75
113.536	113.659	58	82
113.537	113.659	46	72
113.634	113.764	38	69
113.634	113.763	50	76
113.739	114.194	54	91
113.743	114.195	42	80
114.195	114.25	47	80
114.198	114.25	35	69
114.254	114.425	46	105
114.255	114.426	34	91
115.227	115.343	59	92
115.228	115.346	47	80
115.325	115.441	39	75
115.325	115.44	51	83
115.422	115.538	50	76
115.423	115.538	38	69
115.521	115.64	47	74
115.521	115.639	59	84
115.622	115.738	46	70
115.622	115.737	58	82
115.72	115.839	49	73
115.721	115.843	37	67
115.822	115.93	52	88
115.825	115.93	40	80
116.028	116.172	58	77
116.029	116.172	46	69
116.137	116.231	47	74
116.138	116.231	35	63
116.232	116.329	51	80
116.235	116.33	39	69
116.434	116.539	58	78
116.435	116.536	46	70
116.536	116.631	46	75
116.537	116.631	34	67
116.634	116.84	38	72
116.634	116.84	50	81
116.844	116.946	34	73
116.844	116.946	46	85
117.229	117.296	47	58
117.229	117.292	59	78
117.296	117.421	58	102
117.297	117.422	46	83
117.484	117.554	47	84
117.485	117.554	35	59
117.558	117.695	34	82
117.558	117.694	46	104
117.838	119.641	47	109
117.841	119.641	35	92
119.642	120.13	34	72
119.642	120.13	46	94
121.124	122.35	27	58
121.124	122.349	51	58
121.128	122.35	39	58
122.353	123.539	57	56
122.354	123.54	33	52
122.354	123.54	69	56
122.356	123.542	45	52
123.543	124.765	27	52
123.543	124.761	51	58
123.546	124.768	39	52
124.768	125.989	58	56
124.768	125.989	70	56
124.769	125.99	34	54
124.772	125.993	46	54
125.993	127.172	51	58
125.994	127.173	27	51
125.996	127.173	39	51
127.176	127.744	63	60
127.177	127.744	75	60
127.179	127.744	36	52
127.18	127.744	48	52
127.74	128.324	62	59
127.743	128.324	35	49
127.743	128.328	47	49
127.743	128.324	74	59
128.328	129.507	64	61
128.328	129.508	76	61
128.329	129.508	37	53
128.331	129.51	49	53
129.51	130.696	63	56
129.511	130.697	75	56
129.514	130.697	36	47
129.514	130.7	48	47
130.701	131.271	27	51
130.701	131.27	51	58
130.704	131.274	39	51
131.275	131.834	63	60
131.275	131.834	75	60
131.278	131.834	36	52
131.278	131.834	48	52
131.817	132.356	62	56
131.817	132.357	74	56
131.818	132.359	35	40
131.818	132.36	47	40
132.36	132.892	66	60
132.363	132.892	78	60
132.364	132.893	39	48
132.364	132.895	51	48
132.895	133.577	65	57
132.895	133.577	77	57
132.899	133.577	38	44
132.899	133.577	50	44
133.441	134.204	58	52
133.442	134.204	30	41
133.442	134.204	70	52
133.444	134.204	42	41
133.995	135.14	38	45
133.995	135.139	65	56
133.995	135.139	77	56
133.997	135.142	50	45
135.142	135.688	66	59
135.143	135.689	78	59
135.146	135.691	39	45
135.146	135.691	51	45
135.692	136.244	65	50
135.695	136.249	38	34
135.695	136.249	77	50
135.698	136.251	50	34
136.252	136.801	58	54
136.252	136.805	70	54
136.253	136.805	30	38
136.255	136.808	42	38
136.808	137.379	66	45
136.809	137.379	78	45
136.812	137.382	38	31
136.812	137.382	50	31
137.382	137.5	59	92
137.383	137.501	47	80
137.483	137.599	51	83
137.484	137.6	39	75
137.581	137.697	50	76
137.582	137.701	38	69
137.68	137.799	47	76
137.68	137.794	59	87
137.781	137.896	46	74
137.781	137.893	58	85
137.879	138.002	50	81
137.88	138.002	38	70
137.98	138.176	54	91
137.984	138.181	42	80
139.031	140.259	51	58
139.034	140.259	27	58
139.034	140.26	39	58
140.26	141.442	57	56
140.263	141.443	33	52
140.263	141.443	69	56
140.264	141.445	45	52
141.446	142.67	27	52
141.446	142.666	51	58
141.449	142.671	39	52
142.671	143.861	58	56
142.672	143.864	70	56
142.674	143.864	34	54
142.674	143.868	46	54
143.868	145.05	51	58
143.869	145.054	27	51
143.871	145.055	39	51
145.057	145.618	65	60
145.058	145.618	37	52
145.058	145.618	77	60
145.061	145.618	49	52
145.615	146.185	64	59
145.615	146.185	76	59
145.617	146.186	36	49
145.618	146.188	48	49
146.188	147.367	68	61
146.189	147.368	80	61
146.192	147.371	40	53
146.192	147.371	52	53
147.374	148.561	67	54
147.375	148.562	39	45
147.375	148.562	79	54
147.378	148.562	51	45
148.564	149.139	51	58
148.565	149.142	27	51
148.565	149.142	39	51
149.142	149.695	65	60
149.143	149.695	77	60
149.146	149.695	37	52
149.146	149.695	49	52
149.678	150.202	64	56
149.679	150.203	36	40
149.679	150.203	76	70
149.681	150.206	48	40
150.207	150.735	68	60
150.207	150.738	80	60
150.209	150.738	40	48
150.21	150.739	52	48
150.742	151.424	67	57
150.742	151.424	79	57
150.743	151.424	39	44
150.745	151.424	51	44
151.292	152.054	61	52
151.292	152.054	73	52
151.295	152.054	33	38
151.295	152.054	45	38
151.847	152.989	67	56
151.848	152.989	79	56
151.851	152.99	39	45
151.852	152.992	51	45
152.992	153.534	68	59
152.993	153.535	80	59
152.996	153.535	40	45
152.996	153.538	52	45
153.538	154.091	67	50
153.539	154.095	39	34
153.539	154.092	79	50
153.542	154.095	51	34
154.095	154.648	61	54
154.098	154.648	73	54
154.099	154.648	33	38
154.099	154.651	45	38
154.651	155.229	67	45
154.655	155.232	39	31
154.655	155.232	51	31
154.655	155.229	79	45
155.233	155.348	52	80
155.233	155.344	64	92
155.33	155.442	56	83
155.331	155.445	44	75
155.424	155.54	55	79
155.428	155.544	43	71
155.523	155.641	64	87
155.526	155.642	52	76
155.624	155.74	51	74
155.624	155.739	63	85
155.722	155.845	55	81
155.723	155.845	43	70
155.827	156.031	47	80
155.827	156.03	59	91
157.903	159.131	56	58
157.906	159.131	32	58
157.906	159.132	44	58
159.135	160.314	62	56
159.135	160.315	74	56
159.136	160.315	38	52
159.136	160.317	50	52
160.318	161.543	32	52
160.318	161.542	56	58
160.321	161.547	44	52
161.549	162.802	63	56
161.55	162.807	39	54
161.55	162.803	75	56
161.551	162.809	51	54
162.81	162.922	59	76
162.81	162.921	71	87
162.904	163.027	63	78
162.905	163.027	51	71
163.006	163.125	62	75
163.009	163.125	50	67
163.104	163.222	71	82
163.108	163.223	59	72
163.205	163.321	70	80
163.206	163.321	58	70
163.303	163.426	51	66
163.303	163.426	63	76
163.408	163.604	54	76
163.408	163.604	66	86
164.297	165.48	63	85
164.297	164.458	75	85
164.298	164.46	39	71
164.301	165.48	51	71
164.458	165.613	75	99
164.459	165.48	27	83
164.459	165.613	87	99
164.46	165.48	39	83
165.614	166.664	74	89
165.617	166.664	63	82
165.617	166.664	86	89
165.62	166.664	51	82
166.145	166.664	78	80
166.146	166.664	90	80
166.659	167.64	77	93
166.66	167.693	50	77
166.66	167.64	89	93
166.661	167.693	62	77
167.182	167.695	70	79
167.185	167.696	82	79
167.696	168.809	76	88
167.699	168.81	88	88
167.7	168.81	49	75
167.7	168.81	61	75
168.812	169.929	75	94
168.812	169.929	87	94
168.813	169.93	48	77
168.816	169.93	60	77
169.933	170.98	59	75
169.933	170.98	74	92
169.933	170.98	86	92
169.935	170.98	47	75
170.458	170.98	68	78
170.461	170.98	80	78
170.976	171.958	73	92
170.979	172.018	46	75
170.979	172.019	58	75
170.979	171.958	85	92
171.504	172.019	66	77
171.505	172.022	78	77
172.023	173.145	45	74
172.023	173.142	72	84
172.023	173.145	84	84
172.025	173.146	57	74
173.149	174.233	71	90
173.149	174.234	83	90
173.15	174.237	44	73
173.153	174.238	56	73
174.238	175.175	70	83
174.24	175.175	82	87
174.241	175.32	43	62
174.241	175.319	55	62
174.791	175.322	63	71
174.791	175.322	75	71
175.326	176.442	69	79
175.326	176.443	81	79
175.327	176.443	42	68
175.329	176.444	54	68
176.446	178.723	53	61
176.446	177.205	68	78
176.446	177.205	80	78
176.447	178.723	41	61
176.988	178.723	62	69
176.988	178.723	74	69
177.489	178.723	63	78
177.489	177.653	75	78
177.492	177.656	39	77
177.493	178.723	51	77
177.653	178.779	75	90
177.654	178.783	27	89
177.654	178.781	87	90
177.656	178.783	39	89
178.783	179.821	74	84
178.786	179.821	86	84
178.787	179.821	40	82
178.787	179.821	52	82
179.292	179.821	47	72
179.294	179.821	59	72
179.819	180.886	73	85
179.82	180.886	46	78
179.82	180.886	85	85
179.821	180.334	58	78
180.33	180.886	51	70
180.334	180.886	39	70
180.334	180.886	58	70
180.856	181.978	72	79
180.858	181.979	84	82
180.859	181.979	45	76
180.859	181.98	57	76
181.982	183.109	71	81
181.982	183.112	83	81
181.983	183.112	44	84
181.986	183.113	56	84
183.116	184.173	70	74
183.116	184.173	82	74
183.117	183.893	43	77
183.119	183.893	55	77
183.645	184.174	37	71
183.647	184.177	49	71
184.177	185.215	69	75
184.178	185.086	36	72
184.178	185.216	81	75
184.18	185.086	48	72
184.691	185.219	42	66
184.692	185.22	54	66
185.22	186.346	68	70
185.223	186.346	41	71
185.223	186.346	80	70
185.224	186.346	53	71
186.343	187.435	67	70
186.344	187.249	40	67
186.344	187.249	52	67
186.344	187.435	79	70
186.886	187.436	35	57
186.887	187.439	47	57
187.439	188.519	66	67
187.44	188.52	39	62
187.44	188.52	78	67
187.442	188.523	51	62
188.524	189.619	65	64
188.524	189.619	77	64
188.527	189.454	38	60
188.528	189.454	50	60
189.067	189.62	34	52
189.07	189.62	46	52
189.622	190.179	64	60
189.623	190.182	37	55
189.623	190.183	49	55
189.623	190.18	76	60
190.759	190.847	39	36
190.83	190.917	41	35
190.893	190.981	39	39
190.956	191.047	41	35
191.023	191.131	39	36
191.085	191.19	41	33
191.148	191.26	39	36
191.215	191.317	41	33
191.278	191.403	39	35
191.341	191.47	41	31
191.408	191.533	39	35
191.471	191.596	41	31
191.534	191.667	39	36
191.6	191.729	41	31
191.667	191.792	39	38
191.73	191.862	41	35
191.796	191.929	39	41
191.866	191.999	41	36
191.929	192.068	39	42
191.999	192.153	41	37
192.069	192.339	39	37
192.107	192.339	40	39
192.153	192.339	41	41
192.195	192.339	42	43
192.24	192.339	43	45
192.283	192.346	44	47
192.321	192.45	45	55
192.383	192.513	46	49
192.451	192.577	45	55
192.514	192.636	46	51
192.58	192.698	45	55
192.636	192.762	46	51
192.699	192.828	45	55
192.766	192.891	46	50
192.829	192.955	45	53
192.891	193.017	46	47
192.955	193.08	45	51
193.018	193.15	46	47
193.084	193.217	45	52
193.154	193.28	46	45
193.217	193.342	45	50
193.28	193.406	46	44
193.343	193.472	45	47
193.41	193.535	46	42
193.473	193.599	45	46
193.535	193.806	46	44
193.602	193.806	45	43
193.641	193.806	44	43
193.685	193.806	43	43
193.729	193.806	42	42
193.774	193.844	41	42
193.82	193.883	40	42
193.865	194.11	89	60
193.869	194.111	78	60
193.869	194.111	82	60
193.873	193.95	39	42
193.924	194.005	41	38
193.988	194.072	39	41
194.047	194.127	41	35
194.113	194.594	87	60
194.115	194.594	78	60
194.117	194.197	39	39
194.117	194.594	82	60
194.169	194.26	41	35
194.225	194.32	39	39
194.288	194.382	41	35
194.347	194.452	39	37
194.41	194.512	41	31
194.477	194.575	39	36
194.534	194.637	41	31
194.596	194.718	39	36
194.656	194.785	41	31
194.723	194.842	39	36
194.787	194.905	41	31
194.842	194.971	39	37
194.909	195.034	41	36
194.972	195.094	39	39
195.035	195.178	41	37
195.095	195.333	39	36
195.132	195.333	40	38
195.178	195.333	41	39
195.22	195.333	42	40
195.262	195.333	43	41
195.307	195.37	44	42
195.346	195.591	85	60
195.347	195.591	75	60
195.349	195.591	78	60
195.35	195.472	45	45
195.409	195.528	46	38
195.472	195.595	45	45
195.528	195.646	46	42
195.595	195.945	78	60
195.595	195.944	84	60
195.598	195.706	45	45
195.598	195.945	75	60
195.65	195.766	46	37
195.707	195.829	45	44
195.767	195.885	46	37
195.833	195.948	45	45
195.889	196.007	46	41
195.948	196.067	45	45
196.011	196.126	46	42
196.068	196.312	71	60
196.068	196.313	75	60
196.07	196.19	45	48
196.07	196.313	80	60
196.126	196.246	46	40
196.193	196.315	45	47
196.249	196.368	46	39
196.316	196.816	71	60
196.316	196.816	75	60
196.319	196.816	78	60
196.32	196.427	45	46
196.369	196.494	46	37
196.428	196.55	45	46
196.494	196.816	46	43
196.55	196.816	45	46
196.588	196.816	44	45
196.637	196.816	43	44
196.679	196.816	42	43
196.721	196.816	41	43
196.763	196.83	40	42
196.809	197.047	66	60
196.813	197.05	70	60
196.814	197.051	77	60
196.816	196.89	39	41
196.869	196.949	41	38
196.931	197.008	39	41
196.991	197.068	41	35
197.054	197.537	66	60
197.055	197.537	70	60
197.055	197.537	75	60
197.056	197.142	39	39
197.106	197.198	41	35
197.17	197.257	39	39
197.229	197.32	41	35
197.292	197.39	39	37
197.351	197.453	41	31
197.414	197.513	39	36
197.474	197.576	41	31
197.541	197.659	39	36
197.6	197.722	41	31
197.66	197.789	39	36
197.722	197.852	41	31
197.789	197.907	39	37
197.852	197.971	41	36
197.908	198.034	39	39
197.972	198.118	41	37
198.035	198.272	39	36
198.076	198.272	40	36
198.118	198.272	41	37
198.164	198.272	42	38
198.202	198.272	43	39
198.251	198.307	44	39
198.286	198.524	66	60
198.287	198.524	63	60
198.287	198.525	73	60
198.289	198.401	45	43
198.342	198.465	46	36
198.401	198.528	45	43
198.465	198.58	46	36
198.528	198.881	63	60
198.529	198.885	66	60
198.531	198.639	45	42
198.531	198.885	72	60
198.581	198.702	46	37
198.64	198.759	45	42
198.703	198.825	46	37
198.762	198.887	45	42
198.825	198.947	46	38
198.888	199.003	45	41
198.948	199.067	46	36
199.004	199.238	59	60
199.007	199.239	63	60
199.008	199.239	68	60
199.01	199.119	45	38
199.07	199.178	46	33
199.123	199.241	45	40
199.179	199.294	46	35
199.242	199.735	59	60
199.242	199.735	63	60
199.243	199.735	66	60
199.245	199.353	45	42
199.295	199.41	46	35
199.353	199.476	45	44
199.413	199.735	46	38
199.476	199.735	45	44
199.514	199.735	44	44
199.556	199.735	43	43
199.599	199.735	42	42
199.644	199.735	41	41
199.689	199.753	40	41
199.732	199.969	54	60
199.732	199.969	58	60
199.733	199.97	65	60
199.735	199.809	39	40
199.788	199.868	41	38
199.846	199.927	39	41
199.91	199.987	41	35
199.973	200.316	54	60
199.974	200.057	39	39
199.974	200.316	58	60
199.974	200.317	63	60
200.026	200.113	41	35
200.085	200.166	39	39
200.14	200.221	41	35
200.193	200.295	39	37
200.253	200.351	41	31
200.319	200.411	39	36
200.376	200.466	41	31
200.432	200.547	39	36
200.491	200.606	41	31
200.55	200.669	39	36
200.607	200.729	41	31
200.669	200.785	39	37
200.729	200.851	41	36
200.789	200.908	39	39
200.852	200.991	41	37
200.908	201.118	39	55
200.949	201.118	40	56
200.991	201.118	41	57
201.03	201.118	42	58
201.065	201.125	43	59
201.107	201.163	44	60
201.145	201.373	51	74
201.146	201.373	54	74
201.149	201.222	45	63
201.149	201.377	61	74
201.198	201.278	46	55
201.257	201.331	45	63
201.313	201.391	46	54
201.377	201.709	51	74
201.378	201.713	54	74
201.38	201.447	45	62
201.38	201.713	60	74
201.426	201.506	46	56
201.481	201.558	45	65
201.541	201.614	46	57
201.6	201.674	45	67
201.657	201.734	46	60
201.713	201.789	45	67
201.769	201.842	46	58
201.824	201.894	45	61
201.877	201.947	46	62
201.929	202.0	47	64
201.982	202.045	48	66
202.028	202.098	49	67
202.084	202.143	50	69
202.129	202.195	51	71
202.181	202.244	53	73
202.227	202.29	54	74
202.279	202.336	55	76
202.325	202.58	56	78
202.371	202.598	63	84
202.374	202.599	66	84
202.374	202.599	73	94
202.375	202.482	57	75
202.427	202.538	58	71
202.482	202.58	57	73
202.538	202.651	58	70
202.601	203.046	63	81
202.602	203.046	66	81
202.602	203.046	72	91
202.605	202.707	57	75
202.651	202.766	58	71
202.707	202.794	57	76
202.766	202.843	58	71
202.825	202.938	57	77
202.874	202.994	58	72
202.938	203.046	57	79
202.994	203.067	58	75
203.046	203.161	57	76
203.102	203.217	58	69
203.161	203.259	57	81
203.217	203.33	58	74
203.27	203.389	57	82
203.33	203.441	58	75
203.389	203.48	57	83
203.441	203.515	58	75
203.497	203.61	57	85
203.55	203.627	58	77
203.61	203.68	57	86
203.659	203.735	58	78
203.717	203.946	68	91
203.718	203.946	71	91
203.718	203.947	75	102
203.722	203.949	59	82
203.722	203.949	63	92
203.725	203.949	56	82
203.95	204.299	68	86
203.953	204.3	71	86
203.953	204.303	75	96
203.953	204.3	76	96
203.954	204.303	59	80
203.956	204.304	56	80
203.956	204.304	63	89
203.957	204.306	64	89
205.121	205.577	68	97
205.122	205.577	71	97
205.125	205.578	75	108
205.126	205.578	56	86
205.128	205.58	59	86
205.129	205.58	63	96
205.581	206.259	68	90
205.584	206.263	71	90
205.584	206.263	76	100
205.585	206.266	56	81
205.585	206.263	75	100
205.587	206.27	59	81
205.587	206.266	63	90
205.591	206.27	64	90
207.06	207.739	71	95
207.267	207.645	70	97
207.268	207.457	66	81
207.359	207.806	65	83
207.362	207.74	62	63
207.457	207.806	66	85
207.459	207.806	63	66
207.552	207.806	69	87
207.554	207.806	59	69
207.645	207.806	70	90
207.646	207.806	58	73
207.739	207.827	71	87
207.74	207.831	62	71
207.831	208.369	69	92
207.832	208.369	63	74
207.93	208.369	70	87
207.932	208.369	62	70
208.023	208.369	74	89
208.024	208.369	59	73
208.115	208.369	75	91
208.117	208.303	58	76
208.209	208.369	77	93
208.21	208.369	57	80
208.3	208.39	78	95
208.303	208.394	58	83
208.395	208.915	57	86
208.395	208.671	77	104
208.486	208.915	74	89
208.489	208.915	53	67
208.58	208.915	75	92
208.581	208.915	54	69
208.671	208.915	77	95
208.674	208.915	50	72
208.765	208.915	78	97
208.766	208.915	51	75
208.864	208.95	47	78
208.864	208.947	81	99
208.951	209.238	46	84
208.951	209.234	82	105
209.049	209.476	83	99
209.052	209.476	45	85
209.143	209.476	47	73
209.143	209.476	81	91
209.234	209.476	82	94
209.238	209.476	46	75
209.329	209.476	41	78
209.329	209.476	86	97
209.423	209.511	87	100
209.424	209.514	42	72
209.514	209.913	39	70
209.535	209.914	46	83
209.563	209.914	54	89
209.594	209.916	75	88
209.622	209.917	82	100
209.678	209.948	90	113
