OnsetTime	OffsetTime	MidiPitch	Velocity
0.644991	0.827998	61	77
0.827998	2.95199	61	85
1.98899	2.16598	44	59
1.98999	2.16898	37	59
1.98999	2.16898	56	70
1.99099	2.16798	53	59
2.16598	2.95298	44	67
2.16798	2.95298	53	67
2.16898	2.95598	37	67
2.16898	2.95498	56	79
2.95598	3.25398	61	73
3.12697	3.40698	59	70
3.25398	3.40798	61	68
3.40698	5.68599	59	77
4.56999	4.75198	54	70
4.57298	4.75099	44	59
4.57298	4.75198	50	59
4.57599	4.75099	32	59
4.75099	5.63998	32	68
4.75099	5.63998	44	68
4.75198	5.63998	50	68
4.75198	5.63998	54	80
5.68599	6.16199	61	64
5.85698	6.37999	64	70
6.00399	6.37999	62	66
6.16199	6.37899	61	66
6.37899	8.40198	61	79
7.43199	7.62599	56	70
7.433	7.62499	37	59
7.43599	7.62599	44	59
7.43599	7.62799	53	59
7.62499	8.40598	37	67
7.62599	8.40598	44	67
7.62599	8.40598	56	79
7.62799	8.40699	53	67
8.40899	8.68299	61	73
8.53099	8.85599	59	70
8.68299	8.85698	61	68
8.85599	10.964	59	81
9.87198	10.068	50	53
9.87299	10.071	32	53
9.87299	10.069	54	63
9.87499	10.068	44	53
10.068	10.911	44	60
10.068	10.911	50	60
10.069	10.911	54	71
10.071	10.911	32	60
10.964	11.493	57	62
11.16	11.678	56	67
11.318	11.884	59	59
11.493	11.884	57	63
11.678	11.884	56	66
11.884	14.509	56	75
13.109	13.296	44	50
13.113	13.298	49	50
13.114	13.295	37	50
13.114	13.295	53	59
13.295	14.394	37	57
13.295	14.394	53	68
13.296	14.394	44	57
13.298	14.394	49	57
14.509	14.744	56	46
14.744	17.242	56	54
16.018	16.285	44	39
16.019	16.288	40	39
16.021	16.284	52	46
16.022	16.288	49	39
16.284	17.242	52	51
16.285	17.242	44	43
16.288	17.242	40	43
16.288	17.242	49	43
17.208	17.376	57	48
17.432	18.044	56	47
17.628	18.329	59	53
17.807	18.329	57	47
18.044	18.328	56	44
18.328	23.766	56	60
19.647	19.96	44	36
19.648	19.96	49	36
19.648	19.959	51	44
19.959	21.761	51	51
19.96	22.339	44	43
19.96	21.762	49	43
21.757	22.913	54	42
21.758	22.916	48	36
21.761	22.92	51	36
22.343	22.696	45	50
22.636	22.969	44	44
22.92	23.235	47	50
23.175	23.518	45	43
23.455	23.819	44	43
23.771	24.103	42	52
24.046	24.4	40	43
24.34	24.701	42	43
24.641	25.195	39	43
24.971	26.304	45	49
26.305	26.49	44	39
26.49	28.805	37	54
27.466	29.777	44	43
27.642	29.945	49	52
28.805	31.117	37	52
29.777	32.069	44	48
29.945	32.248	49	54
30.907	31.013	56	48
31.013	32.247	56	48
31.115	32.248	61	58
31.117	33.287	37	52
32.069	33.288	44	48
32.245	33.288	52	48
32.247	33.288	56	48
32.248	33.288	49	54
32.248	33.739	61	60
33.287	35.174	37	52
33.505	34.137	60	48
33.739	34.137	61	58
33.98	34.137	63	62
33.984	34.169	45	48
34.075	35.205	54	52
34.124	34.424	57	52
34.172	34.673	64	65
34.173	35.205	49	54
34.424	35.205	57	55
34.673	35.205	64	61
34.928	35.205	63	48
35.173	35.958	61	62
35.174	37.172	37	52
35.958	36.136	61	54
35.961	37.2	44	48
36.048	37.2	63	54
36.136	37.169	61	59
36.137	37.2	52	47
36.137	37.2	56	47
36.139	37.2	49	54
36.987	37.2	60	55
37.169	39.227	61	62
37.172	39.227	37	52
37.994	39.227	44	48
38.176	39.227	52	47
38.177	39.227	56	47
38.18	39.227	49	54
39.007	39.227	63	60
39.192	41.337	35	53
39.192	40.319	64	63
40.144	41.338	47	48
40.319	41.782	64	66
40.322	41.338	56	48
40.323	41.338	52	54
40.323	41.338	59	48
41.337	43.203	35	53
41.558	42.18	63	52
41.782	42.18	64	63
42.024	42.215	66	68
42.027	42.216	47	48
42.218	42.691	68	71
42.219	43.203	57	52
42.219	43.203	59	52
42.222	43.203	51	53
42.454	43.203	63	60
42.691	43.203	68	67
42.927	43.203	66	52
43.178	43.959	64	68
43.179	45.166	40	55
43.959	45.183	47	48
43.959	44.137	64	56
44.047	45.183	66	56
44.134	45.183	56	47
44.137	45.183	52	58
44.137	45.183	59	47
44.137	45.163	64	64
44.981	45.183	63	60
45.163	46.039	64	68
45.166	47.053	40	52
45.86	47.053	47	48
45.944	47.15	32	54
46.038	47.053	60	47
46.039	47.053	64	57
46.041	47.053	54	37
46.041	47.035	56	37
46.041	47.122	68	67
46.042	47.154	48	54
46.868	47.053	63	60
47.035	47.095	56	35
47.062	47.123	61	37
47.095	47.155	64	40
47.123	47.178	68	42
47.155	48.141	73	77
47.156	49.044	37	62
47.963	49.044	44	52
48.138	49.044	68	55
48.141	49.482	73	69
48.142	49.044	49	50
48.142	49.482	61	55
48.142	49.044	64	55
48.144	49.044	52	59
49.041	50.857	30	59
49.251	49.853	60	48
49.251	49.853	72	57
49.482	49.853	61	58
49.482	49.853	73	69
49.688	49.884	63	62
49.691	49.888	75	73
49.692	49.889	49	58
49.889	50.332	64	65
49.891	50.857	54	53
49.891	50.333	76	77
49.892	50.857	57	63
50.102	50.857	69	67
50.332	50.857	64	62
50.333	50.857	76	74
50.556	50.857	63	49
50.557	50.857	75	58
50.8329	51.742	61	61
50.8329	51.564	73	72
50.834	52.694	25	64
51.564	51.74	73	64
51.568	52.694	44	57
51.652	52.694	75	64
51.74	52.671	73	72
51.741	52.694	68	61
51.742	52.694	49	57
51.742	52.672	61	61
51.743	52.694	52	68
52.488	52.694	60	52
52.488	52.694	72	62
52.671	54.382	73	70
52.672	54.382	61	59
52.673	54.382	37	70
53.367	54.382	44	59
53.542	54.379	64	56
53.545	54.382	49	63
53.545	54.382	56	74
53.545	54.378	68	67
54.378	54.556	68	62
54.379	54.563	64	62
54.379	54.561	71	62
54.379	54.557	76	74
54.381	54.564	38	50
54.382	54.564	50	59
54.564	56.6459	80	84
54.568	55.4039	51	64
54.568	55.5759	68	71
54.568	56.6459	71	71
54.57	56.6459	39	54
55.401	56.6459	56	58
55.4039	56.6459	51	49
55.5759	56.6429	68	86
55.5779	57.1679	63	61
55.5789	57.1719	59	51
56.6429	56.8209	68	60
56.8219	56.9959	67	54
56.9999	57.1749	68	54
57.1749	57.3749	67	53
57.1759	59.0919	39	54
57.1759	58.169	51	64
57.2769	59.0919	64	55
57.3749	59.0919	67	57
57.4659	59.0919	68	59
57.5599	59.0919	70	61
57.6479	59.0919	71	63
57.7349	59.0919	73	64
57.8229	59.0919	75	66
57.9089	59.0919	76	68
57.9969	58.9949	79	70
58.081	58.9079	80	72
58.167	59.0919	82	74
58.169	59.0919	51	49
58.169	59.0919	58	58
58.246	58.7429	83	76
58.3329	58.6659	85	81
58.414	58.575	87	84
58.4979	59.6819	63	74
58.4979	59.0919	88	87
58.4989	59.6819	61	61
58.575	59.0919	87	83
58.6659	59.0919	85	81
58.7429	59.0899	83	80
58.8269	59.0919	81	78
58.9079	59.0919	80	77
58.9949	59.0919	79	75
59.0899	59.6819	83	80
59.1699	59.6819	81	78
59.2509	59.6819	80	75
59.3309	59.6819	79	73
59.4189	59.6809	76	70
59.4989	59.6819	75	68
59.5869	59.6819	73	65
59.6809	60.2479	76	71
59.7649	60.2479	75	67
59.8529	60.2479	73	63
59.9329	60.2479	71	58
60.0269	60.2479	69	54
60.1149	60.2479	68	50
60.2099	60.2999	67	46
60.2999	60.3949	68	42
60.3949	60.478	67	46
60.4789	60.5729	64	34
60.5739	63.016	67	33
60.6889	60.9	71	38
60.9	61.004	71	34
61.004	61.106	71	30
61.106	61.208	71	34
61.208	61.3049	71	28
61.3049	63.016	71	36
62.827	63.016	70	30
62.982	63.7969	68	42
62.9849	65.001	32	28
62.9849	63.8	44	34
63.7969	63.973	68	35
63.8	65.001	44	24
63.8	63.976	51	29
63.881	65.032	70	35
63.972	65.032	63	28
63.973	65.0	68	39
63.976	65.032	51	30
63.976	65.032	56	36
63.976	65.032	59	28
64.8119	65.032	67	37
65.0	67.205	68	35
65.001	67.205	32	23
65.001	65.9319	44	28
65.9319	67.205	44	20
65.9349	66.18	51	24
66.178	67.205	63	23
66.18	67.458	51	25
66.18	67.458	56	30
66.18	67.205	59	23
67.459	67.608	68	41
67.609	67.829	68	41
67.829	68.959	80	54
67.833	69.9399	40	35
67.833	68.91	76	45
67.834	69.9399	52	42
68.781	68.9599	59	27
68.781	68.9599	64	33
68.782	69.9879	56	27
68.868	69.9879	71	48
68.91	70.4159	76	48
68.959	70.4149	80	57
68.9599	69.9879	59	33
68.9599	69.9879	64	33
68.9619	69.9879	68	39
69.9399	71.8259	40	35
69.9399	71.8259	52	42
70.1649	70.6389	78	48
70.1669	71.8239	75	40
70.4149	70.8879	80	51
70.4159	71.1119	76	43
70.6389	71.3499	78	45
70.6429	71.3509	81	53
70.6439	70.8889	59	27
70.6439	70.8919	64	33
70.6459	71.8259	56	27
70.8879	71.5749	80	47
70.8879	71.8259	83	56
70.8889	71.8259	59	33
70.8909	71.8259	68	39
70.8919	71.8259	64	33
71.1119	71.8259	71	42
71.1119	71.5769	76	50
71.3499	71.8229	78	46
71.3509	71.8259	81	55
71.5749	71.8259	80	49
71.5769	71.8259	76	41
71.8229	72.6099	78	54
71.8239	72.7969	75	45
71.8249	73.8309	35	35
71.8259	73.8039	47	42
72.6099	72.6689	78	48
72.6129	72.8019	59	27
72.6129	72.7989	63	33
72.6169	73.8309	54	27
72.6689	72.7989	78	44
72.7289	73.8309	80	44
72.7969	73.7999	75	48
72.7989	73.8309	63	33
72.7989	73.8309	66	39
72.7989	73.8039	78	57
72.8019	73.8309	59	33
73.6739	73.8309	77	51
73.6779	73.8309	74	46
73.7999	74.8469	75	45
73.8039	74.8669	47	42
73.8039	74.8669	78	54
74.6679	74.8669	54	29
74.6679	74.8669	63	36
74.6689	74.8669	59	29
74.8459	75.8959	80	61
74.8469	75.8959	48	52
74.8469	75.6929	68	48
74.8469	75.8959	75	48
75.6899	75.8959	63	27
75.6909	75.8959	56	27
75.6929	75.8959	68	33
75.8859	76.9009	73	45
75.8869	77.9299	37	35
75.8869	76.9469	76	54
75.8889	77.9299	49	42
76.7679	76.9469	56	27
76.7709	76.9469	61	33
76.7719	77.8809	52	27
76.8549	77.9299	68	48
76.9009	78.3649	73	48
76.9469	77.9299	56	33
76.9469	77.9299	61	33
76.9469	78.3649	76	57
76.9479	77.9299	64	39
77.8809	79.7669	40	35
77.8809	79.7669	52	42
78.1119	79.7639	72	40
78.1119	78.5879	75	48
78.3649	78.7099	73	43
78.3649	78.7079	76	51
78.5879	79.7669	56	27
78.5879	78.7669	75	45
78.5879	78.7699	78	53
78.5919	78.8439	61	27
78.5919	78.8439	64	33
78.7079	78.8409	76	47
78.7099	79.1729	73	40
78.7669	79.2949	75	40
78.7699	79.2949	78	47
78.8399	79.7669	80	56
78.8409	79.5169	76	47
78.8439	79.7669	61	33
78.8439	79.7669	64	33
78.8439	79.1729	68	39
79.1729	79.7669	68	42
79.1729	79.5189	73	50
79.2949	79.7649	75	46
79.2949	79.7669	78	55
79.5169	79.7669	76	49
79.5189	79.7669	73	41
79.7639	80.7679	72	45
79.7649	81.7739	44	42
79.7649	80.5819	75	54
80.5819	80.6429	75	48
80.5829	81.8079	51	27
80.5829	80.7719	56	27
80.5859	80.7689	60	33
80.6429	80.7659	75	44
80.7049	81.8079	76	44
80.7659	81.7729	75	57
80.7679	81.7739	72	48
80.7689	81.8079	60	33
80.7689	81.8079	63	39
80.7719	81.8079	56	33
81.6429	81.8079	73	51
81.6469	81.8079	70	46
81.7729	82.9699	75	54
81.7739	82.9699	44	42
81.7739	82.9699	72	45
82.7249	82.9459	60	27
82.7249	82.9459	63	33
82.7259	82.9699	56	27
82.9449	84.1389	68	33
82.9459	84.1389	60	33
82.9459	84.1389	63	33
83.7329	83.8909	75	42
83.8909	84.1389	75	42
83.9919	84.8349	80	42
84.1389	84.7269	32	42
84.1389	84.7269	75	54
84.7099	85.5049	68	44
84.7129	84.7729	51	31
84.7729	84.8989	72	35
84.7759	85.5049	56	31
84.8349	85.5279	80	35
84.8359	85.5049	63	31
84.8989	85.5049	72	52
84.8999	86.1189	60	42
85.4259	85.5049	75	44
85.4749	85.5289	73	36
85.5289	86.2219	80	36
85.5889	86.1189	44	42
85.5889	86.1189	75	54
86.1169	86.1649	56	29
86.1169	86.8859	78	46
86.1689	86.2809	76	36
86.1699	86.8859	60	29
86.2219	86.9109	80	36
86.2249	86.8859	68	29
86.2809	86.8859	76	53
86.2819	87.5199	63	42
86.8069	87.5199	75	49
86.8579	86.9109	73	38
86.9119	87.6219	80	37
86.9709	87.5199	32	42
86.9709	87.5199	73	54
87.5099	87.5649	52	30
87.5099	88.2759	68	46
87.5689	88.2759	56	30
87.5689	87.6779	73	37
87.6219	88.3069	80	37
87.6229	88.2759	64	30
87.6779	88.2759	73	53
87.6789	88.9059	61	42
88.2069	88.9059	75	49
88.2549	88.3109	76	37
88.3109	88.8989	80	37
88.3669	88.9059	76	54
88.3699	88.9059	44	42
88.8989	89.0079	80	46
88.8999	88.9479	56	30
88.9479	89.0569	78	36
88.9519	89.6449	61	30
89.0079	89.6969	80	36
89.0109	89.6449	68	30
89.0569	89.6449	78	53
89.0599	90.2989	64	42
89.5889	90.2989	76	49
89.6369	89.6979	75	38
89.6979	90.0479	80	38
89.7499	90.2989	75	54
89.7529	90.2989	32	42
89.9869	90.0989	68	38
90.0479	90.3859	80	38
90.0989	91.0409	68	46
90.2639	90.3229	51	29
90.3239	91.0409	56	29
90.3239	90.4419	72	38
90.3859	90.7339	80	38
90.3869	91.0409	63	29
90.4419	91.0409	72	53
90.4429	91.6709	60	42
90.6699	90.7829	73	38
90.7339	91.0719	80	38
90.7829	91.6709	73	49
91.0199	91.0729	75	37
91.0729	91.4159	80	37
91.1329	91.6709	44	42
91.1329	91.6709	75	54
91.3629	91.4749	78	36
91.4159	91.7589	80	36
91.4749	92.5249	78	46
91.6459	91.6989	56	30
91.6999	92.5249	60	30
91.6999	91.8179	76	36
91.7589	92.1089	80	40
91.7619	92.5249	68	30
91.8179	92.5249	63	42
91.8179	92.5249	76	53
92.0449	92.1649	75	38
92.1089	92.5229	80	38
92.1649	92.5249	75	49
92.5219	93.2079	73	54
92.5229	93.8929	32	42
92.5229	92.6049	80	44
92.6059	92.7809	81	39
92.6939	92.8689	80	44
92.7809	92.9529	81	39
92.8689	93.0369	80	44
92.9529	93.1239	81	39
93.0369	93.8929	52	30
93.0369	93.2039	80	44
93.0929	93.8929	56	30
93.1239	93.2849	81	39
93.1519	93.8929	64	30
93.2039	93.3729	80	44
93.2079	93.8929	61	42
93.2079	93.8929	73	53
93.2849	93.4529	81	39
93.3729	93.5369	80	44
93.4529	93.6209	81	39
93.5369	93.7049	80	44
93.6209	93.7819	81	39
93.7039	93.8929	75	49
93.7049	93.8679	80	44
93.7819	93.8929	81	39
93.8679	94.0259	80	44
93.8689	95.2409	44	42
93.8689	95.2409	76	50
93.9489	94.1139	81	39
94.0259	94.1989	80	44
94.1139	94.2779	81	39
94.1989	94.3599	80	60
94.2779	94.4469	81	39
94.3599	95.2409	56	30
94.3599	94.5269	80	44
94.4189	95.2409	61	30
94.4469	94.6079	81	39
94.4679	95.2409	68	30
94.5269	94.6889	80	44
94.5299	95.2409	85	65
94.5309	95.2409	64	42
94.6079	94.7719	81	39
94.6889	94.8529	80	44
94.7719	94.9409	81	39
94.8529	95.0209	80	44
94.8559	95.2409	88	66
94.9409	95.1079	81	39
95.0209	95.1959	80	44
95.1079	95.2409	81	39
95.1959	95.2619	80	59
95.1989	96.54	32	46
95.2629	95.3989	87	42
95.3279	95.6999	92	51
95.3989	96.0399	87	45
95.4619	95.5309	80	39
95.5309	95.6119	80	58
95.6119	95.7869	80	40
95.6999	95.9549	92	51
95.7009	96.54	56	31
95.7559	96.54	60	31
95.7869	96.456	80	40
95.8149	96.54	68	31
95.8719	96.54	63	46
95.8719	96.123	84	65
95.9549	96.284	92	52
96.0399	96.537	87	41
96.123	96.54	84	41
96.204	96.375	85	61
96.284	96.54	92	49
96.375	96.54	85	39
96.456	96.54	80	39
96.537	96.697	87	63
96.539	97.915	44	46
96.617	96.946	92	51
96.697	97.54	87	41
96.785	97.117	80	41
96.865	97.03	90	58
96.946	97.286	92	48
97.03	97.915	90	41
97.031	97.915	63	33
97.086	97.915	72	33
97.117	97.453	80	41
97.146	97.915	75	33
97.201	97.366	88	63
97.202	97.915	68	46
97.286	97.622	92	49
97.366	97.915	88	40
97.453	97.789	80	40
97.54	97.702	87	60
97.622	97.915	92	48
97.702	97.915	87	41
97.789	97.87	80	41
97.87	97.939	80	65
97.873	99.2201	32	46
97.94	98.073	85	42
98.01	98.374	92	51
98.073	98.5531	85	45
98.142	98.205	80	39
98.205	98.29	80	58
98.29	98.4641	80	40
98.374	98.629	92	51
98.3771	99.2201	56	31
98.4331	99.2201	61	31
98.4641	98.8001	80	40
98.4921	99.2201	68	31
98.5531	98.7211	85	65
98.5551	99.2201	64	46
98.629	98.965	92	52
98.7211	99.2201	85	41
98.8001	99.1361	80	41
98.8881	99.0491	87	63
98.965	99.2201	92	49
99.0491	99.2201	87	39
99.1361	99.2201	80	39
99.2181	99.3821	88	64
99.2201	100.617	44	46
99.2981	99.5501	92	51
99.3821	100.222	88	41
99.4701	99.6301	80	41
99.5501	99.7181	92	53
99.6301	99.7991	80	44
99.7181	99.9661	92	51
99.7191	100.617	64	33
99.7711	100.617	73	33
99.7991	100.135	80	41
99.8271	100.617	76	33
99.8821	100.054	90	63
99.8831	100.617	68	46
99.9661	100.309	92	49
100.054	100.617	90	40
100.135	100.484	80	40
100.222	100.397	88	63
100.309	100.617	92	48
100.397	100.617	88	41
100.484	100.617	80	41
100.573	101.916	32	46
100.573	100.638	87	64
100.638	100.779	92	46
100.709	101.048	93	51
100.779	100.978	92	45
100.844	101.912	87	39
100.909	101.18	80	63
100.978	101.11	92	46
101.048	101.384	93	52
101.079	101.916	56	31
101.11	101.321	92	46
101.132	101.916	60	31
101.18	101.516	80	40
101.192	101.916	68	31
101.252	101.916	84	60
101.254	101.916	63	47
101.321	101.447	92	47
101.384	101.717	93	53
101.447	101.65	92	46
101.516	101.846	80	40
101.587	101.916	85	61
101.65	101.783	92	48
101.717	101.916	93	54
101.783	101.916	92	47
101.846	101.916	80	41
101.912	102.903	87	66
101.916	103.239	44	49
101.982	102.112	92	49
102.046	102.375	93	55
102.112	102.311	92	48
102.178	102.511	80	42
102.248	103.239	90	64
102.311	102.44	92	50
102.375	102.707	93	56
102.409	103.239	63	34
102.44	102.637	92	49
102.462	103.239	72	34
102.511	102.841	80	42
102.521	103.239	75	34
102.575	103.239	88	65
102.577	103.239	68	51
102.637	102.77	92	51
102.707	103.036	93	57
102.77	102.973	92	50
102.841	103.172	80	43
102.903	103.239	87	66
102.973	103.102	92	51
103.036	103.239	93	57
103.102	103.236	92	51
103.172	103.239	80	44
103.235	103.928	85	67
103.236	103.319	92	55
103.239	104.61	32	48
103.32	103.494	93	48
103.41	103.585	92	55
103.494	103.672	93	48
103.585	103.757	92	55
103.672	103.837	93	48
103.757	103.927	92	55
103.76	104.61	56	34
103.809	104.61	61	34
103.837	104.006	93	48
103.865	104.61	68	34
103.927	104.089	92	55
103.928	104.61	64	48
103.928	104.586	85	66
104.006	104.173	93	48
104.089	104.257	92	55
104.173	104.338	93	48
104.257	104.419	92	55
104.338	104.502	93	48
104.419	104.61	84	60
104.419	104.586	92	55
104.502	104.61	93	48
104.586	105.741	85	63
104.586	104.748	92	55
104.587	105.931	44	48
104.66	104.831	93	48
104.748	104.912	92	55
104.831	104.996	93	48
104.912	105.079	92	58
104.996	105.167	93	48
105.079	105.325	92	55
105.083	105.933	64	34
105.139	105.933	73	34
105.167	105.933	93	48
105.202	105.871	76	34
105.265	105.623	88	52
105.266	105.933	68	42
105.325	105.563	92	47
105.38	105.933	100	54
105.44	105.933	99	51
105.5	105.933	97	49
105.563	105.933	92	47
105.623	105.933	88	45
105.681	105.933	87	42
105.741	105.933	85	40
105.808	105.933	80	38
105.871	105.933	76	41
105.931	106.015	44	42
105.931	106.014	75	53
106.095	106.175	51	34
106.175	106.252	76	37
106.253	106.336	54	34
106.253	106.332	78	47
106.413	106.49	60	34
106.49	106.57	80	43
106.575	106.652	63	42
106.575	106.651	81	51
106.728	106.809	68	35
106.812	106.885	80	42
106.886	106.966	83	51
106.89	106.967	63	35
107.043	107.12	68	35
107.124	107.198	81	46
107.198	107.425	80	54
107.201	107.425	44	42
107.372	107.449	51	34
107.449	107.68	68	51
107.522	107.68	80	55
107.523	107.638	54	34
107.681	107.757	60	34
107.757	107.995	70	53
107.831	107.995	80	58
107.834	107.995	63	42
107.989	108.065	68	35
108.065	108.335	72	55
108.142	108.335	80	60
108.146	108.335	63	35
108.297	108.387	68	35
108.387	108.478	73	37
108.436	108.492	75	37
108.478	108.642	44	42
108.478	108.642	73	50
108.639	108.713	52	34
108.716	108.79	72	37
108.79	108.926	73	48
108.793	108.926	56	34
108.947	109.028	61	34
109.028	109.136	75	39
109.07	109.108	76	34
109.087	109.136	78	35
109.108	109.185	76	51
109.109	109.186	64	42
109.265	109.339	68	35
109.339	109.423	75	42
109.423	109.503	76	53
109.424	109.504	64	35
109.584	109.665	68	35
109.668	109.752	78	42
109.752	109.846	79	55
109.753	109.846	44	43
109.902	109.983	52	34
109.984	110.06	80	45
110.06	110.21	81	54
110.061	110.21	56	39
110.217	110.298	61	34
110.299	110.375	80	48
110.375	110.543	78	55
110.376	110.543	64	45
110.529	110.606	68	35
110.606	110.687	76	42
110.69	110.957	75	52
110.69	110.957	80	52
110.691	110.957	64	41
110.861	110.957	68	35
110.956	110.995	73	42
110.995	111.691	72	49
111.04	111.691	87	57
111.044	111.691	44	43
111.197	111.691	51	34
111.282	111.691	88	55
111.355	111.691	90	62
111.359	111.691	54	39
111.512	111.691	60	34
111.587	111.691	92	55
111.664	111.737	93	61
111.667	111.978	63	45
111.82	112.132	68	35
111.898	112.29	92	49
111.978	112.297	63	41
111.978	112.297	95	57
112.132	112.297	68	35
112.216	112.297	93	51
112.29	112.986	92	60
112.293	112.986	44	42
112.465	112.986	51	34
112.553	112.986	68	51
112.636	112.969	80	58
112.64	112.986	54	34
112.801	112.986	60	34
112.882	113.557	70	53
112.969	113.319	80	62
112.969	113.557	82	62
112.972	113.319	63	42
113.147	113.512	68	35
113.232	113.557	72	55
113.319	113.557	63	35
113.319	113.557	80	65
113.319	113.557	84	65
113.512	113.602	68	35
113.602	113.687	73	61
113.69	113.77	80	55
113.771	113.851	87	66
113.854	114.037	85	62
113.855	115.219	37	46
113.946	114.124	87	40
114.037	114.212	85	50
114.039	115.219	44	37
114.124	114.299	87	40
114.212	114.383	85	49
114.215	115.219	53	37
114.299	114.467	87	40
114.383	115.219	56	37
114.383	114.547	85	47
114.467	114.639	87	39
114.547	114.716	85	47
114.551	114.883	61	45
114.639	114.8	87	39
114.716	114.88	85	46
114.719	115.045	68	37
114.8	114.961	87	39
114.88	115.044	85	46
114.883	115.219	61	37
114.961	115.129	87	39
115.044	115.216	85	45
115.045	115.219	68	37
115.129	115.219	87	39
115.216	115.38	85	51
115.219	116.504	49	44
115.3	115.455	87	38
115.38	115.527	85	48
115.381	116.504	56	35
115.455	115.613	87	38
115.527	115.692	85	46
115.531	116.504	65	35
115.613	115.769	87	38
115.692	116.504	68	35
115.692	115.849	85	45
115.769	115.926	87	38
115.849	116.007	85	45
115.85	116.165	73	43
115.926	116.083	87	38
116.007	116.326	80	35
116.007	116.165	85	43
116.083	116.245	87	37
116.165	116.504	73	35
116.165	116.326	85	43
116.245	116.413	87	37
116.326	116.504	80	35
116.326	116.5	85	43
116.413	116.504	87	37
116.5	116.664	85	44
116.501	116.665	77	31
116.504	116.665	73	31
116.582	116.745	87	33
116.584	116.746	80	26
116.664	116.827	85	41
116.665	116.827	73	31
116.665	116.826	77	31
116.745	116.906	87	33
116.746	116.91	80	26
116.826	116.994	77	33
116.827	116.998	73	33
116.827	116.994	85	42
116.906	117.071	87	35
116.91	117.072	80	27
116.994	117.152	77	33
116.994	117.152	85	42
116.998	117.153	73	33
117.071	117.236	87	36
117.072	117.236	80	28
117.152	117.315	77	35
117.152	117.313	85	44
117.153	117.316	73	35
117.236	117.393	80	30
117.236	117.389	87	37
117.313	117.466	85	44
117.315	117.464	77	36
117.316	117.466	73	36
117.389	117.547	87	38
117.393	117.548	80	32
117.464	117.621	77	36
117.466	117.624	73	36
117.466	117.624	85	45
117.547	117.704	87	40
117.548	117.705	80	33
117.621	117.779	77	38
117.624	117.779	73	38
117.624	117.778	85	47
117.704	117.855	87	41
117.705	117.856	80	34
117.778	117.936	85	56
117.779	117.936	73	40
117.779	117.932	77	40
117.855	118.01	87	42
117.856	118.012	80	33
117.932	118.087	77	39
117.936	118.087	73	39
117.936	118.087	85	51
118.01	118.166	87	40
118.012	118.17	80	31
118.087	118.244	73	37
118.087	118.244	77	37
118.087	118.24	85	48
118.166	118.318	87	39
118.17	118.32	80	30
118.24	118.401	85	45
118.244	118.402	73	36
118.244	118.401	77	36
118.318	118.474	87	37
118.32	118.478	80	29
118.401	118.555	77	35
118.401	118.556	85	44
118.402	118.559	73	35
118.474	118.632	87	36
118.478	118.633	80	29
118.555	118.713	77	33
118.556	118.712	85	41
118.559	118.716	73	33
118.632	118.793	87	35
118.633	118.796	80	29
118.712	118.877	85	39
118.713	118.877	77	32
118.716	118.877	73	32
118.793	118.958	87	33
118.796	118.958	80	28
118.877	119.041	73	31
118.877	119.039	77	31
118.877	119.039	85	38
118.958	119.041	80	26
118.958	119.041	87	32
119.039	119.115	77	39
119.039	119.118	85	39
119.041	119.076	73	31
119.076	119.616	80	31
119.118	122.314	84	33
119.199	119.454	87	42
119.28	119.535	85	37
119.374	120.684	89	47
119.454	120.603	87	44
119.535	120.522	85	41
119.616	120.441	80	39
119.703	120.362	77	44
119.783	120.277	75	39
119.871	120.197	73	39
119.952	120.116	68	39
120.035	122.314	65	42
120.116	122.314	68	36
120.197	122.314	73	39
120.277	122.314	75	43
120.362	122.311	77	46
120.441	122.229	80	42
120.522	121.905	85	44
120.603	121.824	87	46
120.684	121.495	89	52
120.76	120.921	92	46
120.848	121.085	97	53
120.921	121.418	92	46
121.006	121.257	99	59
121.085	121.334	97	52
121.173	122.314	101	59
121.257	122.314	99	53
121.334	121.585	97	59
121.418	121.659	92	54
121.495	121.743	89	59
121.585	122.314	97	59
121.659	122.314	92	65
121.743	121.992	89	56
121.824	122.065	87	56
121.905	122.146	85	40
121.992	122.314	89	58
122.065	122.314	87	51
122.146	122.314	85	50
122.229	122.314	80	50
122.311	122.394	77	62
122.398	124.505	85	52
122.479	124.505	80	59
122.559	122.808	77	55
122.639	122.892	75	63
122.723	122.965	73	56
122.808	124.505	77	57
122.892	124.505	75	58
122.965	123.221	73	69
123.049	123.308	68	60
123.133	123.399	65	63
123.221	124.505	73	58
123.308	124.505	68	69
123.399	123.721	65	64
123.501	123.932	63	66
123.599	124.18	61	68
123.721	124.505	65	70
123.932	124.505	63	77
124.18	124.505	61	82
124.505	126.626	61	85
125.667	125.842	37	59
125.667	125.849	44	59
125.667	125.845	53	59
125.668	125.85	49	59
125.671	125.85	56	70
125.85	126.63	37	67
125.852	126.633	56	79
125.853	126.634	44	67
125.853	126.633	49	67
125.853	126.633	53	67
126.637	126.909	61	73
126.773	127.064	59	70
126.909	127.064	61	68
127.064	129.205	59	77
128.225	128.412	47	59
128.225	128.412	54	70
128.226	128.408	42	59
128.229	128.412	38	59
128.229	128.414	50	59
128.408	129.16	42	68
128.412	129.16	38	68
128.412	129.16	47	68
128.412	129.16	54	80
128.414	129.16	50	68
129.205	129.682	61	64
129.374	129.9	64	70
129.531	129.9	62	66
129.682	129.899	61	66
129.899	131.743	61	74
130.844	131.03	44	59
130.844	131.026	49	59
130.845	131.03	56	70
130.847	131.03	37	59
130.847	131.032	53	59
131.026	131.743	49	67
131.03	131.746	37	67
131.03	131.746	44	67
131.03	131.747	56	79
131.032	131.747	53	67
131.75	132.017	61	73
131.866	132.191	59	70
132.017	132.192	61	68
132.191	134.175	59	77
133.205	133.405	42	53
133.206	133.403	38	53
133.206	133.405	50	53
133.209	133.403	47	53
133.21	133.402	54	63
133.402	134.123	54	71
133.403	134.123	38	60
133.403	134.123	47	60
133.405	134.123	42	60
133.405	134.123	50	60
134.176	134.704	57	54
134.371	134.908	56	62
134.528	135.142	59	56
134.704	135.142	57	56
134.908	135.137	56	56
135.137	137.79	56	65
136.363	136.549	44	50
136.363	136.552	49	50
136.364	136.549	37	50
136.367	136.548	53	59
136.548	137.669	53	68
136.549	137.669	37	57
136.549	137.669	44	57
136.552	137.669	49	57
137.791	138.005	56	46
138.005	140.44	56	54
139.243	139.489	40	39
139.243	139.488	52	46
139.244	139.486	44	39
139.244	139.485	49	39
139.485	140.44	49	43
139.486	140.44	44	43
139.488	140.44	52	51
139.489	140.44	40	43
140.402	140.567	57	45
140.619	141.287	56	44
140.79	141.631	59	50
141.015	141.631	57	44
141.287	141.631	56	41
141.631	148.025	56	56
143.097	143.434	44	33
143.098	143.433	49	33
143.098	143.434	51	40
143.433	144.385	49	39
143.434	144.386	44	39
143.434	144.386	51	46
146.229	147.769	48	26
146.234	147.769	51	26
146.234	147.769	54	30
146.236	147.769	44	26
149.579	150.195	32	39
150.198	151.175	33	42
151.179	151.504	35	46
151.505	151.822	37	55
152.544	152.635	37	42
152.635	153.703	61	32
152.638	153.703	52	32
152.638	153.703	56	32
152.638	153.703	64	40
152.639	154.175	49	52
153.703	154.203	30	47
153.93	154.203	48	43
154.175	154.678	49	52
154.431	154.678	51	55
154.655	155.666	61	32
154.658	155.666	57	32
154.658	155.666	66	32
154.658	155.666	69	40
154.661	155.162	52	57
154.906	155.176	45	48
155.162	155.666	52	55
155.411	155.666	51	43
155.663	155.879	49	51
156.313	156.397	37	43
156.398	156.478	44	45
156.478	156.557	49	46
156.558	156.638	51	48
156.643	157.695	52	32
156.643	157.695	61	32
156.644	157.695	64	40
156.645	157.695	56	32
156.646	157.685	49	56
157.5	157.695	48	48
157.685	159.607	49	56
158.686	159.897	64	40
158.687	159.705	52	32
158.687	159.897	56	32
158.687	159.897	61	32
158.69	159.607	37	43
159.513	159.607	51	49
159.607	159.985	35	53
159.705	159.985	52	57
160.831	162.826	68	40
160.832	162.813	59	32
160.835	162.817	56	32
160.836	162.366	52	63
160.836	162.826	64	32
161.91	162.826	32	48
162.131	162.826	51	46
162.366	162.826	52	56
162.611	162.826	54	61
162.812	163.776	57	32
162.813	163.776	59	32
162.813	163.776	63	32
162.816	163.776	71	40
162.817	163.289	56	66
163.051	163.776	47	53
163.289	163.776	56	60
163.52	163.776	54	48
163.775	164.03	52	61
164.559	164.976	37	48
164.64	164.976	47	49
164.721	164.882	52	50
164.798	164.976	54	51
164.879	165.952	68	40
164.881	165.952	56	32
164.882	165.91	52	64
164.882	165.952	59	32
164.882	165.952	64	32
165.718	165.952	51	51
165.91	166.155	52	59
166.834	168.384	60	44
166.834	168.384	68	56
166.835	167.825	64	56
166.838	168.384	54	44
166.838	168.384	56	44
166.839	168.384	44	48
166.839	167.825	52	44
167.668	168.384	63	57
167.669	167.839	51	45
167.839	167.891	37	39
167.891	168.384	49	41
167.957	168.49	61	64
169.032	170.101	64	60
169.036	170.566	61	55
169.036	170.101	68	66
169.036	171.066	73	75
169.039	170.568	49	57
170.097	171.066	69	65
170.1	171.066	30	47
170.1	171.066	66	58
170.33	171.066	60	67
170.331	171.066	48	43
170.566	171.066	61	69
170.568	171.066	49	52
170.818	171.066	51	55
170.818	171.066	63	72
171.039	171.525	64	74
171.041	171.528	52	57
171.282	172.046	57	65
171.283	172.046	45	48
171.525	172.046	64	74
171.528	172.046	52	55
171.77	172.046	63	66
171.773	172.046	51	43
172.019	172.248	61	78
172.021	172.252	49	51
172.7	172.925	61	63
172.816	172.952	63	63
172.924	173.932	73	70
172.925	173.929	61	70
172.927	173.932	64	56
172.928	173.932	49	56
172.928	173.932	68	56
172.931	173.932	37	61
173.698	173.932	60	72
173.699	173.932	48	57
173.929	174.177	61	78
173.932	174.178	49	81
174.912	176.239	67	62
174.916	175.882	73	62
174.917	175.883	64	62
174.919	176.239	55	52
174.919	176.239	76	78
174.92	175.748	52	52
174.92	176.239	61	66
174.923	175.686	46	66
175.382	175.686	45	77
175.689	176.239	44	55
175.753	176.239	52	55
175.809	176.239	56	55
175.879	176.239	68	68
175.879	176.239	80	85
175.882	176.239	73	68
175.883	176.239	64	69
176.869	178.336	32	77
177.685	180.859	66	64
177.768	180.859	72	67
177.859	180.859	75	71
177.943	180.859	81	86
178.216	180.859	31	38
178.336	180.859	32	39
178.458	180.859	33	39
178.577	180.859	36	42
178.689	180.859	37	43
178.805	180.859	39	45
178.916	180.859	40	47
179.032	180.859	42	49
179.148	179.501	44	51
179.274	180.859	47	53
179.389	179.838	45	46
179.501	179.717	44	43
179.61	180.859	43	43
179.717	180.859	44	45
179.838	180.859	45	46
179.949	180.859	48	47
180.047	180.859	49	49
180.152	180.859	51	50
180.25	180.859	52	51
180.348	180.859	54	52
180.443	180.859	55	57
180.54	180.841	56	62
180.639	180.859	59	69
180.744	180.859	57	58
180.841	180.933	56	47
180.936	183.039	57	48
181.034	183.039	60	49
181.126	183.039	61	50
181.22	183.039	63	51
181.318	183.039	64	52
181.412	183.039	66	53
181.51	183.039	67	71
181.608	181.906	68	76
181.707	183.039	71	80
181.805	181.997	69	71
181.906	183.039	68	64
181.997	183.039	69	65
182.092	183.039	72	67
182.182	183.039	73	69
182.277	183.039	75	70
182.382	183.039	76	72
182.49	183.039	78	74
182.595	183.039	79	80
182.701	183.037	80	83
182.815	183.039	83	88
182.928	183.039	81	82
183.037	183.204	80	69
183.123	183.288	81	61
183.204	183.369	80	69
183.288	183.456	81	63
183.369	183.537	80	72
183.456	183.617	81	64
183.537	183.698	80	72
183.617	183.778	81	65
183.698	183.862	80	74
183.778	183.943	81	66
183.862	184.019	80	74
183.943	184.1	81	67
184.019	184.181	80	76
184.1	184.258	81	68
184.181	184.338	80	77
184.258	184.411	81	69
184.338	184.492	80	79
184.411	184.569	81	70
184.492	184.65	80	79
184.569	184.726	81	70
184.65	184.8	80	81
184.726	184.877	81	72
184.8	184.954	80	82
184.877	185.028	81	73
184.954	185.108	80	83
185.028	185.178	81	74
185.108	185.256	80	84
185.178	185.332	81	76
185.256	185.405	80	87
185.332	185.479	81	76
185.405	185.549	80	86
185.479	185.627	81	77
185.549	185.699	80	88
185.627	185.77	81	78
185.699	185.847	80	88
185.77	185.917	81	79
185.847	185.99	80	91
185.917	186.06	81	81
185.99	186.137	80	91
186.06	186.207	81	81
186.137	186.278	80	93
186.207	186.347	81	82
186.278	186.414	80	93
186.347	186.491	81	83
186.414	186.561	80	95
186.491	186.63	81	85
186.561	186.697	80	95
186.63	186.774	81	85
186.697	186.844	80	97
186.774	186.915	81	86
186.844	186.991	80	97
186.915	187.058	81	87
186.991	187.135	80	99
187.058	187.205	81	88
187.135	187.281	80	100
187.205	187.351	81	90
187.281	187.425	80	101
187.351	187.495	81	88
187.425	187.572	80	95
187.495	187.646	81	82
187.572	187.716	80	91
187.646	187.789	81	80
187.716	187.867	80	86
187.789	187.944	81	75
187.867	188.02	80	83
187.944	188.094	81	71
188.02	188.175	80	79
188.094	188.257	81	68
188.175	188.334	80	74
188.257	188.418	81	64
188.334	188.498	80	70
188.418	188.587	81	61
188.498	188.671	80	66
188.587	188.761	81	57
188.671	188.854	80	61
188.761	188.939	81	53
188.854	189.038	80	59
188.939	189.133	81	50
189.038	189.231	80	54
189.133	189.231	81	46
189.231	189.429	80	47
189.433	189.619	81	45
189.641	189.826	80	44
189.847	190.036	79	42
190.061	190.253	80	41
190.274	190.47	81	39
190.494	190.691	82	38
190.708	190.925	83	37
190.946	191.166	84	35
191.198	192.328	85	48
191.199	193.337	45	36
192.15	192.329	69	33
192.151	193.385	61	27
192.151	192.329	64	27
192.238	193.385	76	44
192.283	193.82	81	46
192.328	193.819	85	57
192.329	193.385	64	33
192.329	193.385	69	33
192.33	193.385	73	39
193.337	195.235	45	42
193.568	195.233	80	40
193.571	195.235	84	48
193.819	194.298	85	51
193.82	194.527	81	43
194.055	194.764	87	53
194.057	194.764	83	45
194.058	195.235	61	27
194.058	194.3	64	27
194.058	194.299	69	33
194.296	195.235	88	56
194.298	194.989	85	47
194.299	195.235	69	33
194.299	195.235	73	39
194.3	195.235	64	33
194.527	195.235	76	42
194.527	194.992	81	50
194.764	195.233	83	46
194.764	195.235	87	55
194.989	195.235	85	49
194.992	195.235	81	41
195.233	197.227	40	42
195.233	196.234	80	45
195.233	196.055	83	54
196.055	196.236	83	48
196.056	196.237	64	27
196.058	197.227	59	27
196.058	196.237	68	33
196.143	197.227	85	44
196.234	197.2	80	48
196.236	197.227	71	39
196.236	197.2	83	57
196.237	197.227	64	33
196.237	197.227	68	33
196.993	197.227	82	51
196.994	197.227	79	46
197.2	198.326	80	45
197.2	198.347	83	54
198.323	199.345	85	57
198.326	199.345	80	48
198.33	199.345	53	39
198.33	199.338	73	48
198.331	199.345	61	39
198.331	199.345	68	52
199.335	200.322	81	54
199.338	200.323	73	45
199.338	200.322	78	45
199.339	201.386	42	42
200.143	201.386	57	27
200.143	200.325	61	27
200.143	200.323	66	33
200.322	201.813	78	48
200.322	201.812	81	57
200.323	201.386	66	33
200.323	202.517	73	48
200.325	201.386	61	33
200.325	201.386	69	39
201.33	203.234	45	42
201.561	202.047	80	48
201.564	203.234	77	40
201.812	202.29	81	51
201.813	202.52	78	43
202.047	202.758	80	45
202.05	202.755	83	53
202.051	202.292	61	27
202.051	202.293	66	33
202.052	203.234	57	27
202.29	202.985	81	47
202.29	203.234	85	56
202.292	203.234	61	33
202.292	203.234	69	39
202.293	203.234	66	33
202.517	203.234	73	42
202.52	202.983	78	50
202.755	203.234	83	55
202.758	203.23	80	46
202.983	203.234	78	41
202.985	203.234	81	49
203.23	204.049	80	54
203.231	204.235	76	45
203.234	205.264	49	42
204.049	204.232	80	48
204.05	205.264	56	27
204.052	204.238	64	33
204.053	204.238	61	27
204.137	205.264	81	48
204.232	205.239	80	57
204.235	205.24	76	48
204.236	205.264	68	39
204.238	205.264	61	33
204.238	205.264	64	33
204.987	205.264	75	46
204.987	205.264	79	51
205.239	206.306	80	54
205.24	206.306	76	45
206.964	207.094	37	39
207.097	207.231	39	43
207.231	207.363	40	47
207.364	207.92	42	50
208.206	209.418	69	48
208.264	208.383	74	48
208.323	209.418	80	48
208.382	209.395	78	57
208.383	209.887	62	33
208.383	209.394	74	48
208.384	209.888	54	33
208.385	209.891	66	39
208.386	209.891	57	33
209.136	209.418	73	46
209.138	209.418	77	51
209.394	209.891	74	45
209.395	209.895	78	54
211.025	211.161	38	39
211.162	211.294	40	43
211.295	211.427	42	47
211.427	211.707	44	50
212.27	212.446	66	48
212.327	212.442	69	48
212.386	213.488	76	48
212.442	216.292	69	48
212.446	215.533	57	33
212.446	213.458	66	48
212.446	213.454	74	57
212.448	215.533	62	39
212.449	215.533	54	33
212.449	215.533	60	33
213.206	213.488	73	51
213.207	213.488	65	46
213.454	215.533	74	54
213.458	215.533	66	45
215.504	215.851	64	31
215.505	215.848	73	37
215.848	216.477	73	37
215.851	216.478	64	31
215.852	216.478	45	28
217.111	219.31	64	35
217.112	218.606	69	36
217.112	218.606	73	45
217.114	218.115	61	31
217.115	218.116	52	26
217.115	218.116	57	26
218.119	220.02	49	37
218.35	220.02	68	36
218.351	220.02	72	43
218.606	219.306	69	38
218.606	219.075	73	45
218.838	219.547	71	40
218.838	219.547	75	47
219.074	220.02	76	50
219.075	219.773	73	42
219.078	220.02	52	29
219.079	220.02	57	29
219.079	220.02	61	35
219.306	219.772	69	45
219.31	220.02	64	37
219.547	220.019	71	41
219.547	220.02	75	49
219.772	220.02	69	36
219.773	220.02	73	44
220.019	220.839	71	48
220.02	222.015	40	37
220.02	221.02	68	40
220.839	221.018	71	43
220.923	222.015	73	39
221.018	221.98	71	51
221.02	221.979	68	43
221.021	222.015	52	29
221.021	222.015	56	29
221.021	222.015	59	35
221.774	222.015	70	45
221.777	222.015	67	41
221.979	223.107	68	40
221.98	223.128	71	48
223.107	224.129	68	43
223.107	224.129	73	51
223.11	224.129	56	46
223.11	224.119	61	43
223.111	224.129	49	35
223.114	224.129	41	35
224.119	224.777	61	40
224.119	224.777	69	48
224.12	224.777	42	37
224.12	224.777	66	40
225.102	226.6	66	43
225.106	227.343	61	43
225.106	226.6	69	51
225.109	226.165	49	29
225.109	226.165	54	29
225.109	226.165	57	35
226.117	228.056	45	37
226.344	228.056	65	36
226.344	226.83	68	43
226.6	226.964	66	38
226.6	226.965	69	45
226.828	227.039	71	47
226.83	227.041	68	40
226.964	227.342	66	40
226.965	227.117	69	40
227.039	227.58	71	40
227.041	227.581	68	40
227.114	228.056	73	50
227.117	227.804	69	42
227.118	228.056	49	29
227.118	228.056	54	29
227.119	228.056	57	35
227.342	227.807	66	45
227.343	228.056	61	37
227.58	228.056	71	49
227.581	228.053	68	41
227.804	228.056	69	44
227.807	228.056	66	36
228.053	229.054	64	40
228.053	228.871	68	48
228.054	230.089	37	37
228.871	229.054	68	43
228.966	230.089	69	43
229.054	230.062	64	43
229.054	230.062	68	51
229.056	230.089	56	35
229.057	230.089	49	29
229.057	230.089	52	29
229.807	230.089	63	41
229.809	230.089	67	45
230.062	231.129	64	40
230.062	231.129	68	48
231.787	231.92	37	35
231.92	232.052	39	38
232.053	232.186	40	42
232.186	232.749	30	45
233.026	233.201	57	43
233.086	233.205	62	43
233.145	234.24	68	43
233.201	234.734	57	35
233.205	234.216	62	43
233.205	234.216	66	51
233.208	234.737	42	29
233.208	234.737	50	29
233.208	234.734	54	35
233.212	234.738	45	29
233.963	234.24	61	41
233.967	234.24	65	45
234.216	234.738	62	40
234.216	234.741	66	48
235.906	236.064	38	35
236.064	236.207	40	38
236.211	236.354	42	42
236.354	236.875	32	45
237.398	238.447	54	38
237.401	238.965	42	26
237.401	238.448	57	45
237.402	238.969	50	31
237.405	238.97	45	26
237.405	238.97	48	26
238.185	238.471	56	40
238.186	238.471	53	36
238.447	241.573	54	36
238.448	241.573	57	43
241.574	242.914	54	32
241.576	242.914	56	38
241.577	242.914	48	32
241.577	242.914	50	32
242.339	242.914	32	30
242.501	242.914	33	31
242.665	242.914	36	33
242.827	244.691	37	31
243.946	245.125	49	32
243.946	245.125	56	38
243.95	245.125	53	32
244.692	244.982	37	30
244.835	245.123	35	31
244.982	245.125	37	33
245.123	246.609	35	31
246.273	247.51	50	32
246.277	247.51	54	32
246.277	247.51	56	38
246.519	247.257	37	31
246.784	247.51	40	35
247.027	247.51	38	33
247.257	247.509	37	35
247.509	249.589	37	31
248.759	250.128	49	32
248.759	250.128	56	38
248.76	250.128	53	32
249.589	249.946	37	30
249.77	250.127	35	31
249.946	250.128	37	31
250.127	252.151	35	31
251.426	252.984	50	32
251.426	252.984	54	32
251.426	252.984	56	38
251.674	252.374	33	35
251.923	252.633	32	30
252.151	252.984	35	35
252.374	252.984	33	31
252.633	252.983	32	31
252.983	256.014	32	31
254.495	256.015	53	28
254.496	256.015	49	28
254.496	256.015	56	34
256.014	259.819	32	39
257.589	259.819	48	32
257.589	259.819	54	32
257.59	259.819	51	32
257.593	259.815	56	38
259.812	265.859	49	28
259.813	265.859	44	28
259.815	265.859	53	32
259.815	265.859	56	38
259.816	265.859	25	23
259.816	265.859	37	27
259.819	265.859	32	23
266.378	266.402	73	39
266.403	266.423	80	42
266.426	267.476	85	45
266.451	266.948	80	50
266.837	267.425	73	44
266.948	267.446	80	50
267.344	267.515	81	46
267.425	267.515	73	39
267.446	267.497	80	42
267.476	268.516	85	45
267.497	268.387	80	50
267.883	268.555	83	53
267.998	268.555	81	51
268.387	268.555	80	46
268.463	268.555	73	39
268.485	268.537	78	42
268.516	269.549	85	45
268.537	269.031	78	50
268.922	269.503	73	44
269.031	269.594	78	50
269.42	269.594	80	46
269.503	269.594	73	39
269.524	269.577	81	42
269.549	269.956	85	45
269.577	270.46	81	50
269.956	270.588	85	54
270.066	270.623	83	50
270.46	270.623	81	46
270.537	270.623	73	39
270.56	270.609	80	42
270.588	271.632	85	45
270.609	271.11	80	50
270.995	271.579	73	44
271.11	271.611	80	50
271.505	271.673	81	46
271.579	271.673	73	39
271.611	271.652	80	42
271.632	272.671	85	45
271.652	272.542	80	50
272.038	272.702	83	53
272.156	272.702	81	51
272.542	272.702	80	46
272.619	272.702	73	39
272.65	272.695	78	42
272.671	273.71	85	45
272.695	273.193	78	50
273.077	273.661	73	44
273.193	273.682	78	50
273.578	273.749	80	46
273.661	273.749	73	39
273.682	273.731	78	42
273.71	274.743	85	45
273.731	274.778	78	50
274.116	274.617	73	54
274.228	274.778	81	50
274.617	274.691	73	46
274.691	274.778	73	39
274.722	274.767	80	42
274.743	275.775	85	45
274.767	275.261	80	50
275.146	275.726	73	44
275.147	275.262	68	29
275.202	275.817	77	29
275.261	275.747	80	50
275.262	275.817	68	38
275.643	275.817	81	46
275.726	275.817	73	39
275.747	275.8	80	42
275.775	276.798	85	45
275.8	276.671	80	50
276.178	276.839	83	53
276.178	276.297	92	36
276.238	276.839	97	33
276.294	276.839	81	51
276.297	276.839	92	45
276.671	276.839	80	46
276.749	276.839	73	39
276.77	276.822	78	42
276.798	277.82	85	45
276.822	277.309	78	50
277.193	277.312	61	29
277.193	277.771	73	44
277.252	277.861	69	29
277.309	277.861	78	50
277.312	277.861	61	38
277.693	277.861	80	46
277.771	277.861	73	39
277.798	277.844	81	42
277.82	278.223	85	45
277.844	278.709	81	50
278.223	278.837	85	54
278.225	278.331	90	36
278.274	278.869	97	36
278.33	278.869	83	50
278.331	278.869	90	45
278.709	278.869	81	46
278.786	278.869	73	39
278.814	278.862	80	42
278.837	279.86	85	45
278.862	279.342	80	50
279.233	279.808	73	44
279.234	279.346	68	29
279.282	279.898	77	29
279.342	279.829	80	50
279.346	279.898	68	38
279.731	279.898	81	46
279.808	279.898	73	39
279.829	279.882	80	42
279.86	280.886	85	45
279.882	280.756	80	50
280.259	280.917	83	53
280.262	280.377	92	36
280.319	280.917	97	33
280.375	280.917	81	51
280.377	280.917	92	45
280.756	280.917	80	46
280.834	280.917	73	39
280.858	280.91	78	42
280.886	281.907	85	45
280.91	281.397	78	50
281.281	281.856	73	44
281.282	281.399	61	29
281.34	281.946	69	29
281.397	281.877	78	50
281.399	281.946	61	38
281.779	281.946	80	46
281.856	281.946	73	39
281.877	281.932	78	42
281.907	282.923	85	45
281.932	282.954	78	50
282.3	282.808	73	54
282.303	282.422	90	36
282.359	282.954	97	36
282.419	282.954	81	50
282.422	282.954	90	45
282.808	282.954	73	46
282.88	282.951	80	42
282.923	282.954	85	45
282.951	283.882	80	50
283.314	283.805	73	44
283.315	283.431	68	29
283.371	283.954	77	29
283.431	283.954	68	38
283.431	283.92	85	50
283.805	283.954	73	46
283.882	283.952	80	42
283.92	283.954	85	45
283.952	284.963	80	50
284.316	284.802	73	44
284.318	284.428	92	36
284.369	284.963	97	36
284.428	284.918	85	50
284.428	284.963	92	45
284.802	284.963	73	46
284.879	284.962	78	42
284.918	284.963	85	45
284.962	285.967	78	50
285.32	285.44	61	29
285.32	285.813	73	44
285.379	285.967	69	29
285.439	285.929	85	50
285.44	285.967	61	38
285.813	285.967	73	46
285.887	285.964	81	42
285.929	285.967	85	45
285.964	286.959	81	50
286.318	286.811	73	44
286.321	286.443	90	36
286.377	286.959	97	36
286.441	286.929	85	50
286.443	286.959	90	45
286.811	286.959	73	46
286.894	286.958	80	42
286.929	286.959	85	45
286.958	287.886	80	50
287.319	287.435	68	29
287.319	287.812	73	44
287.378	287.96	77	29
287.434	287.928	85	50
287.435	287.96	68	38
287.812	287.96	73	46
287.886	287.956	80	42
287.928	287.96	85	45
287.956	288.946	80	50
288.31	288.796	73	44
288.312	288.429	92	36
288.368	288.946	97	36
288.428	288.908	85	50
288.429	288.946	92	45
288.796	288.946	73	46
288.88	288.943	78	42
288.908	288.946	85	45
288.943	289.944	78	50
289.303	289.79	73	44
289.304	289.422	61	29
289.355	289.944	69	29
289.419	289.906	85	50
289.422	289.944	61	38
289.79	289.944	73	46
289.874	289.943	81	42
289.906	289.944	85	45
289.943	290.98	81	50
290.311	290.829	73	44
290.314	290.43	90	36
290.367	290.98	97	36
290.43	290.98	85	50
290.43	290.98	90	45
290.829	290.98	73	46
290.979	291.444	68	50
291.101	291.165	73	45
291.224	291.277	73	46
291.225	291.333	52	44
291.333	291.385	73	46
291.445	291.553	59	44
291.445	291.501	73	46
291.553	291.613	73	46
291.666	291.773	65	44
291.666	291.715	73	46
291.774	291.826	73	46
291.886	291.991	69	50
291.991	292.047	73	43
292.099	292.152	73	43
292.1	292.208	61	46
292.211	292.26	73	43
292.317	292.424	68	50
292.425	292.484	73	45
292.54	292.593	73	45
292.544	292.653	61	46
292.653	292.708	73	45
292.767	293.219	66	50
292.883	292.943	73	44
292.992	293.052	73	44
292.996	293.111	49	44
293.112	293.167	73	44
293.219	293.279	73	44
293.22	293.328	57	44
293.332	293.387	73	44
293.44	293.492	73	44
293.443	293.552	61	44
293.552	293.605	68	46
293.661	293.765	69	50
293.766	293.818	73	44
293.874	293.93	73	44
293.877	293.979	61	46
293.979	294.039	73	44
294.091	294.203	66	50
294.203	294.259	73	45
294.319	294.427	61	46
294.319	294.37	73	45
294.427	294.486	73	45
294.539	294.995	68	50
294.657	294.717	73	44
294.777	294.826	73	44
294.778	294.889	49	44
294.889	294.938	73	44
294.998	295.047	73	44
295.0	295.107	59	44
295.11	295.159	73	44
295.219	295.323	65	44
295.219	295.272	73	44
295.324	295.38	71	49
295.432	295.538	69	50
295.538	295.597	73	46
295.645	295.702	73	46
295.646	295.758	61	46
295.758	295.81	73	46
295.863	295.972	68	50
295.975	296.031	73	45
296.083	296.139	73	45
296.084	296.199	61	46
296.203	296.259	73	45
296.314	296.769	66	50
296.43	296.489	73	42
296.549	296.657	49	44
296.549	296.604	73	42
296.658	296.717	73	42
296.769	296.825	73	42
296.77	296.878	57	44
296.878	296.938	73	42
296.989	297.039	73	42
296.99	297.098	61	44
297.098	297.151	68	50
297.204	297.311	69	50
297.312	297.364	73	45
297.417	297.476	73	45
297.42	297.529	61	46
297.529	297.582	73	45
297.637	297.742	66	50
297.743	297.802	73	44
297.862	297.97	61	46
297.862	297.91	73	44
297.971	298.022	73	44
298.078	298.537	68	57
298.082	298.541	80	57
298.198	298.253	73	45
298.313	298.369	73	45
298.314	298.428	49	44
298.428	298.481	73	45
298.541	298.642	59	44
298.541	298.589	73	45
298.643	298.701	73	45
298.754	298.863	65	44
298.754	298.807	73	45
298.866	298.914	73	45
298.967	299.185	81	54
298.968	299.185	69	54
299.079	299.129	73	45
299.185	299.236	73	45
299.188	299.293	65	46
299.294	299.345	73	45
299.398	299.619	68	54
299.398	299.618	80	54
299.399	299.507	59	50
299.51	299.558	73	46
299.619	299.674	73	46
299.622	299.727	49	46
299.727	299.787	73	46
299.842	300.297	66	55
299.846	300.298	78	55
299.954	300.01	73	42
300.07	300.189	49	44
300.07	300.13	73	42
300.189	300.238	73	42
300.301	300.35	73	42
300.302	300.41	57	44
300.41	300.459	73	42
300.511	300.57	73	42
300.514	300.623	66	44
300.624	300.676	68	50
300.624	300.675	80	50
300.725	301.155	81	55
300.728	301.155	69	55
300.837	300.889	73	43
300.941	300.994	73	43
300.942	301.054	66	46
301.054	301.103	73	43
301.159	301.603	66	50
301.159	301.604	78	50
301.162	301.267	57	50
301.268	301.323	73	43
301.383	301.494	49	46
301.383	301.435	73	43
301.495	301.547	73	43
301.606	302.055	68	57
301.607	302.058	80	57
301.719	301.778	73	41
301.838	301.946	49	44
301.838	301.893	73	41
301.946	302.005	73	41
302.058	302.107	73	41
302.062	302.166	59	44
302.167	302.219	73	41
302.271	302.484	83	49
302.272	302.485	71	49
302.275	302.377	65	44
302.377	302.433	73	43
302.489	302.702	69	56
302.489	302.699	81	56
302.59	302.649	73	44
302.702	302.755	73	44
302.706	302.806	65	46
302.807	302.863	73	44
302.908	303.128	80	54
302.912	303.129	68	54
302.913	303.021	59	50
303.021	303.077	73	44
303.133	303.251	49	46
303.133	303.188	73	44
303.251	303.311	73	44
303.367	303.818	78	55
303.371	303.823	66	55
303.479	303.535	73	44
303.594	303.707	49	44
303.594	303.651	73	44
303.707	303.762	73	44
303.825	303.871	73	44
303.826	303.93	57	44
303.93	303.983	73	44
304.043	304.147	66	44
304.043	304.094	73	44
304.148	304.204	68	50
304.148	304.203	80	50
304.256	304.687	69	57
304.256	304.687	81	57
304.361	304.42	73	43
304.473	304.525	73	44
304.474	304.574	66	46
304.578	304.634	73	44
304.687	305.145	78	54
304.69	304.795	57	50
304.69	305.146	66	54
304.798	304.861	73	44
304.91	304.97	73	44
304.914	305.03	49	46
305.03	305.085	73	44
305.146	305.201	85	57
305.148	305.268	56	62
305.268	305.317	73	43
305.373	305.425	73	44
305.481	305.533	73	44
305.586	306.038	71	60
305.586	305.646	85	54
305.587	306.038	61	50
305.59	306.038	65	50
305.702	305.754	73	44
305.813	305.869	73	44
305.922	305.982	73	44
306.041	306.097	85	57
306.044	306.149	49	57
306.149	306.198	73	43
306.262	306.314	65	39
306.262	306.311	73	44
306.263	306.314	61	39
306.263	306.314	69	46
306.363	306.415	73	44
306.468	306.52	85	54
306.469	306.521	59	46
306.577	306.629	73	44
306.684	306.737	73	44
306.685	306.738	61	39
306.685	306.738	68	46
306.686	306.739	65	39
306.786	306.846	73	44
306.899	307.014	54	64
306.899	306.955	85	57
307.014	307.066	73	43
307.119	307.171	73	44
307.221	307.277	73	44
307.332	307.385	85	54
307.336	307.788	61	50
307.336	307.787	66	50
307.336	307.788	69	60
307.441	307.504	73	44
307.56	307.62	73	44
307.669	307.728	73	44
307.791	307.836	85	57
307.792	307.896	49	61
307.896	307.949	73	43
308.001	308.061	57	39
308.001	308.06	73	44
308.002	308.061	68	46
308.004	308.062	61	39
308.109	308.165	73	44
308.215	308.267	85	54
308.218	308.271	54	46
308.32	308.372	73	44
308.424	308.477	73	44
308.425	308.478	57	39
308.425	308.478	66	46
308.428	308.48	61	39
308.53	308.589	73	44
308.642	308.76	56	60
308.642	308.704	85	57
308.761	308.816	73	43
308.873	308.925	73	44
308.977	309.026	73	44
309.086	309.146	85	54
309.087	309.548	65	50
309.087	309.552	71	60
309.089	309.555	61	50
309.202	309.254	73	44
309.317	309.376	73	44
309.432	309.492	73	44
309.555	309.603	85	57
309.556	309.656	49	57
309.657	309.712	73	43
309.765	309.818	73	44
309.766	309.818	61	39
309.768	309.821	69	46
309.769	309.821	65	39
309.87	309.922	73	44
309.975	310.031	85	54
309.976	310.032	59	46
310.083	310.136	73	44
310.189	310.241	73	44
310.192	310.241	61	39
310.192	310.245	68	46
310.193	310.245	65	39
310.293	310.353	73	44
310.402	310.462	85	57
310.405	310.521	54	62
310.521	310.569	73	43
310.622	310.678	73	44
310.734	310.787	73	44
310.84	311.305	61	50
310.84	310.899	85	54
310.843	311.306	66	50
310.843	311.306	69	60
310.955	311.014	73	44
311.07	311.13	73	44
311.186	311.245	73	44
311.308	311.361	85	57
311.309	311.414	49	57
311.414	311.473	73	43
311.522	311.574	73	44
311.526	311.579	57	39
311.526	311.579	61	39
311.529	311.579	68	46
311.634	311.686	73	44
311.739	311.792	85	54
311.74	311.792	54	46
311.844	311.896	73	44
311.949	311.998	73	44
311.95	312.002	61	39
311.95	312.002	66	46
311.952	312.005	57	39
312.05	312.11	73	44
312.163	312.337	85	57
312.166	312.337	56	55
312.286	312.344	73	43
312.387	312.443	85	51
312.499	312.547	85	51
312.6	312.772	97	63
312.601	313.041	61	46
312.601	313.041	71	55
312.603	313.042	65	46
312.709	312.772	85	44
312.817	312.88	85	44
312.929	312.981	73	44
313.045	313.202	49	55
313.045	313.202	85	57
313.157	313.21	73	43
313.258	313.31	73	44
313.363	313.416	73	44
313.468	313.671	85	55
313.472	313.909	61	46
313.472	313.91	65	46
313.473	313.912	71	56
313.58	313.671	73	45
313.689	313.748	73	45
313.801	313.856	73	45
313.913	314.049	85	59
313.916	314.049	54	57
314.032	314.084	73	44
314.136	314.189	85	53
314.248	314.301	85	53
314.35	314.507	97	65
314.354	314.798	70	58
314.355	314.798	61	48
314.355	314.798	66	48
314.462	314.519	85	46
314.577	314.63	85	47
314.686	314.746	73	47
314.802	314.92	49	58
314.802	314.903	85	60
314.921	314.973	73	46
315.022	315.082	73	47
315.134	315.186	73	47
315.246	315.39	85	59
315.247	315.687	61	49
315.247	315.687	70	60
315.249	315.691	66	49
315.355	315.407	73	47
315.466	315.519	73	48
315.575	315.631	73	48
315.691	315.792	85	63
315.692	315.795	56	60
315.796	315.848	73	48
315.9	315.96	85	60
315.904	315.961	61	46
315.904	315.961	65	46
315.905	315.964	71	55
316.013	316.065	85	60
316.121	316.268	97	76
316.122	316.268	49	61
316.226	316.279	85	49
316.335	316.387	85	49
316.338	316.391	61	47
316.338	316.387	65	47
316.342	316.391	71	56
316.443	316.499	73	49
316.551	316.692	85	65
316.552	316.692	56	62
316.664	316.713	73	48
316.765	316.824	73	49
316.766	316.825	61	47
316.768	316.825	65	47
316.769	316.828	71	57
316.877	316.937	73	50
316.986	317.125	49	63
316.986	317.125	85	62
317.098	317.15	73	51
317.202	317.259	73	51
317.203	317.262	61	49
317.203	317.262	65	49
317.206	317.263	71	58
317.311	317.371	73	51
317.423	317.637	85	67
317.424	317.889	54	65
317.535	317.889	73	50
317.637	317.889	61	49
317.637	317.748	85	64
317.64	317.889	66	49
317.64	317.889	70	58
317.748	317.889	85	63
317.857	317.91	97	82
317.858	318.289	49	65
317.962	318.067	85	61
318.067	318.288	85	61
318.068	318.289	70	60
318.07	318.289	61	50
318.071	318.289	66	50
318.179	318.289	73	52
318.288	318.733	54	66
318.288	318.719	85	69
318.393	318.495	73	51
318.495	318.607	73	53
318.498	318.733	66	51
318.498	318.733	70	61
318.502	318.733	61	51
318.607	318.733	73	53
318.719	319.149	85	66
318.72	319.15	49	67
318.824	318.926	73	54
318.926	319.037	73	54
318.929	319.15	61	51
318.929	319.15	70	62
318.93	319.15	66	51
319.037	319.15	73	54
319.149	319.363	85	71
319.15	319.594	56	69
319.258	319.594	73	53
319.363	319.468	85	68
319.364	319.594	61	52
319.364	319.594	65	52
319.365	319.594	71	62
319.468	319.594	85	68
319.577	320.008	49	69
319.577	319.629	97	83
319.682	319.786	85	64
319.786	320.008	85	64
319.787	320.008	61	53
319.787	320.008	71	63
319.79	320.008	65	53
319.895	320.008	73	56
320.008	320.441	56	71
320.008	320.059	85	74
320.113	320.441	73	56
320.217	320.441	65	54
320.217	320.323	85	65
320.218	320.441	61	54
320.218	320.441	71	65
320.323	320.441	85	65
320.43	320.483	97	83
320.431	320.861	49	73
320.537	320.636	85	64
320.636	320.854	85	64
320.641	320.861	61	56
320.641	320.861	65	56
320.645	320.861	71	67
320.749	320.861	73	59
320.854	321.064	85	77
320.855	321.289	54	75
320.959	321.289	73	58
321.064	321.169	85	72
321.065	321.289	61	57
321.065	321.289	66	57
321.067	321.289	70	68
321.169	321.289	85	72
321.274	321.698	49	76
321.274	321.698	97	92
321.376	321.481	85	68
321.481	321.697	85	68
321.482	321.698	61	58
321.484	321.698	66	58
321.484	321.698	70	70
321.589	321.698	73	62
321.697	321.904	85	80
321.698	322.121	54	77
321.803	322.121	73	61
321.904	322.121	70	71
321.904	322.009	85	72
321.908	322.121	61	60
321.908	322.121	66	60
322.009	322.121	85	72
322.114	322.584	97	93
322.115	322.584	49	79
322.219	322.327	85	76
322.327	322.584	85	76
322.328	322.584	61	61
322.332	322.584	66	61
322.332	322.584	70	72
322.44	322.584	73	63
322.58	322.643	72	72
322.58	322.642	84	85
322.581	322.643	77	72
322.583	322.646	44	61
322.584	322.705	56	73
322.846	322.969	73	68
322.846	322.964	85	81
322.847	322.971	80	68
322.849	322.972	56	57
322.849	322.972	61	57
322.85	322.972	65	68
323.094	323.441	83	85
323.095	323.444	77	72
323.098	323.445	71	72
323.099	323.363	37	61
323.099	323.363	49	73
323.325	323.448	61	58
323.329	323.448	56	58
323.329	323.449	65	69
323.451	323.56	85	79
323.452	323.56	73	67
323.563	323.671	72	72
323.563	323.671	77	72
323.563	323.671	84	85
323.564	323.671	44	61
323.567	323.671	56	73
323.791	323.914	85	81
323.794	323.914	73	68
323.795	323.917	56	57
323.795	323.916	80	68
323.798	323.917	61	57
323.798	323.918	65	68
324.028	324.372	77	72
324.032	324.373	71	72
324.033	324.315	37	61
324.033	324.375	83	85
324.035	324.315	49	73
324.252	324.376	65	69
324.257	324.376	61	58
324.26	324.379	56	58
324.379	324.494	73	67
324.38	324.494	85	79
324.495	324.602	81	72
324.498	324.602	72	72
324.498	324.602	84	85
324.499	324.602	54	73
324.501	324.602	42	61
324.722	324.837	73	68
324.723	324.838	82	68
324.723	324.837	85	81
324.725	324.841	61	57
324.725	324.841	66	68
324.726	324.841	58	57
324.945	325.288	70	72
324.946	325.289	78	72
324.95	325.159	37	61
324.95	325.159	49	73
324.95	325.289	82	85
325.173	325.293	58	58
325.173	325.292	61	58
325.173	325.293	66	69
325.295	325.401	85	79
325.296	325.401	73	67
325.299	325.402	82	67
325.404	325.506	84	85
325.405	325.506	54	73
325.405	325.506	72	72
325.405	325.506	81	72
325.408	325.506	42	61
325.624	325.744	82	68
325.629	325.745	61	57
325.629	325.745	73	68
325.629	325.744	85	81
325.631	325.747	58	57
325.631	325.747	66	68
325.853	326.188	78	72
325.853	326.189	82	85
325.854	326.192	70	72
325.856	326.108	37	61
325.856	326.108	49	73
326.08	326.192	58	58
326.08	326.195	61	58
326.081	326.196	66	69
326.196	326.303	73	67
326.199	326.304	82	67
326.199	326.307	85	79
326.308	326.388	84	85
326.311	326.388	44	61
326.311	326.388	72	72
326.312	326.388	56	73
326.524	326.643	73	68
326.525	326.644	80	68
326.527	326.644	85	81
326.528	326.647	61	57
326.531	326.648	65	68
326.752	327.088	83	72
326.752	327.088	87	85
326.755	327.035	37	61
326.755	327.091	75	72
326.756	327.035	49	73
326.979	327.091	65	69
326.98	327.095	59	58
326.98	327.092	61	58
327.095	327.203	73	67
327.096	327.206	85	79
327.098	327.207	80	67
327.207	327.287	72	72
327.211	327.287	44	61
327.211	327.287	56	73
327.211	327.287	84	85
327.431	327.539	73	68
327.434	327.543	80	68
327.434	327.542	85	81
327.435	327.546	61	57
327.435	327.547	65	68
327.651	327.987	75	72
327.655	327.991	83	72
327.655	327.991	87	85
327.656	327.935	37	61
327.656	327.935	49	73
327.878	327.992	59	58
327.879	327.994	61	58
327.879	327.994	65	69
327.995	328.103	73	67
327.998	328.107	80	67
327.998	328.107	85	79
328.109	328.162	81	72
328.11	328.163	72	72
328.11	328.163	84	85
328.111	328.166	42	61
328.113	328.166	54	73
328.33	328.446	73	68
328.33	328.446	82	68
328.331	328.45	85	81
328.334	328.453	58	57
328.334	328.45	66	68
328.335	328.453	61	57
328.557	328.893	90	85
328.558	328.894	82	72
328.561	328.897	78	72
328.562	328.83	37	61
328.562	328.83	49	73
328.781	328.898	58	58
328.782	328.898	66	69
328.785	328.898	61	58
328.901	329.009	85	79
328.902	329.013	73	67
329.013	329.138	84	85
329.014	329.138	72	72
329.016	329.138	54	73
329.016	329.138	81	72
329.017	329.138	42	61
329.237	329.345	73	68
329.238	329.349	82	68
329.238	329.349	85	81
329.24	329.349	58	57
329.24	329.352	61	57
329.241	329.352	66	68
329.46	329.803	90	85
329.464	329.804	82	72
329.465	329.807	78	72
329.467	329.724	37	61
329.468	329.724	49	73
329.692	329.81	58	58
329.692	329.811	61	58
329.693	329.811	66	69
329.814	329.93	85	72
329.815	329.93	73	61
329.931	329.993	72	52
329.933	329.993	77	52
329.933	329.994	84	62
329.934	329.994	56	53
330.181	330.304	85	59
330.182	330.304	80	49
330.185	330.308	61	41
330.185	330.305	73	49
330.186	330.308	65	49
330.426	330.762	83	62
330.427	330.763	71	52
330.427	330.766	77	52
330.43	330.69	49	53
330.651	330.767	61	42
330.654	330.767	56	42
330.655	330.769	65	50
330.77	330.886	73	48
330.77	330.885	85	57
330.889	330.99	77	52
330.89	330.99	44	53
330.89	330.99	72	52
330.89	330.99	84	62
331.109	331.221	73	49
331.112	331.225	80	49
331.113	331.225	85	59
331.116	331.226	56	41
331.117	331.228	61	41
331.117	331.226	65	49
331.336	331.672	71	52
331.34	331.676	77	52
331.34	331.676	83	62
331.343	331.609	37	53
331.556	331.679	65	50
331.56	331.679	56	42
331.56	331.679	61	42
331.68	331.79	85	57
331.683	331.791	73	48
331.791	331.882	84	62
331.794	331.882	72	52
331.794	331.882	81	52
331.795	331.882	54	53
332.019	332.127	73	49
332.019	332.13	82	49
332.019	332.126	85	59
332.02	332.131	58	41
332.021	332.131	66	49
332.022	332.131	61	41
332.242	332.578	70	52
332.246	332.582	78	52
332.246	332.582	82	62
332.247	332.452	49	53
332.47	332.583	58	42
332.471	332.585	61	42
332.471	332.585	66	50
332.586	332.691	73	48
332.589	332.691	82	48
332.589	332.691	85	57
332.694	332.792	72	52
332.694	332.792	81	52
332.695	332.792	42	53
332.695	332.792	84	62
332.914	333.033	85	59
332.918	333.034	73	49
332.918	333.034	82	49
332.919	333.036	58	41
332.921	333.037	61	41
332.921	333.037	66	49
333.142	333.478	82	62
333.143	333.481	70	52
333.145	333.482	78	52
333.146	333.397	37	53
333.369	333.485	58	42
333.37	333.485	61	42
333.37	333.486	66	50
333.486	333.597	82	48
333.488	333.597	73	48
333.488	333.597	85	57
333.601	333.663	56	53
333.601	333.663	72	52
333.601	333.663	84	62
333.814	333.933	85	59
333.817	333.933	73	49
333.818	333.937	80	49
333.821	333.937	61	41
333.821	333.937	65	49
334.041	334.38	83	52
334.042	334.381	75	52
334.044	334.381	87	62
334.045	334.328	49	53
334.269	334.385	56	42
334.269	334.384	65	50
334.273	334.385	61	42
334.385	334.496	85	57
334.387	334.496	80	48
334.388	334.497	73	48
334.5	334.552	72	52
334.5	334.552	84	62
334.501	334.612	44	53
334.72	334.832	85	59
334.721	334.832	80	49
334.724	334.836	61	41
334.724	334.833	73	49
334.727	334.837	56	41
334.727	334.836	65	49
334.948	335.281	75	52
334.948	335.281	83	52
334.948	335.28	87	62
334.951	335.221	37	53
335.168	335.282	61	42
335.169	335.284	65	50
335.172	335.284	56	42
335.284	335.399	80	48
335.285	335.403	73	48
335.288	335.404	85	57
335.404	335.522	84	62
335.406	335.522	72	52
335.407	335.522	54	53
335.407	335.522	81	52
335.619	335.735	73	49
335.624	335.742	61	41
335.624	335.74	82	49
335.624	335.739	85	59
335.627	335.742	58	41
335.627	335.743	66	49
335.847	336.187	82	52
335.847	336.183	90	62
335.851	336.11	49	53
335.851	336.187	78	52
336.071	336.188	66	50
336.075	336.191	58	42
336.076	336.191	61	42
336.191	336.302	85	57
336.192	336.303	73	48
336.303	336.411	84	62
336.304	336.411	72	52
336.305	336.411	81	52
336.306	336.411	42	53
336.527	336.639	82	49
336.527	336.638	85	59
336.53	336.641	58	41
336.53	336.64	61	41
336.53	336.639	73	49
336.534	336.642	66	49
336.754	337.09	82	52
336.754	337.091	90	62
336.755	337.093	78	52
336.757	337.009	37	53
336.977	337.093	58	42
336.982	337.094	61	42
336.982	337.094	66	50
337.097	337.206	85	57
337.098	337.206	73	48
337.206	337.31	87	64
337.209	337.314	54	42
337.209	337.313	75	49
337.209	337.311	83	49
337.415	337.521	78	44
337.415	337.52	83	56
337.416	337.521	59	29
337.419	337.524	63	35
337.628	337.734	75	44
337.629	337.737	49	33
337.629	337.735	78	56
337.839	337.943	71	44
337.839	337.944	75	56
337.84	337.944	66	33
337.843	337.947	63	28
338.045	338.154	75	44
338.049	338.154	78	56
338.05	338.154	54	42
338.255	338.36	78	46
338.259	338.365	59	30
338.259	338.364	63	36
338.259	338.361	83	58
338.466	338.57	83	48
338.466	338.571	87	60
338.467	338.574	49	36
338.675	338.781	90	62
338.676	338.782	63	30
338.676	338.781	87	49
338.679	338.784	66	36
338.888	338.987	73	51
338.889	338.988	82	51
338.889	338.99	85	64
338.893	338.991	54	42
339.092	339.196	78	44
339.095	339.201	58	30
339.095	339.197	61	36
339.095	339.197	82	55
339.302	339.403	78	55
339.303	339.41	49	36
339.303	339.407	73	44
339.511	339.62	70	44
339.512	339.624	66	36
339.512	339.621	73	55
339.513	339.625	61	30
339.725	339.831	73	45
339.725	339.831	78	57
339.726	339.833	54	42
339.932	340.04	78	44
339.935	340.04	82	56
339.936	340.041	58	30
339.939	340.041	61	37
340.142	340.352	73	49
340.146	340.355	78	49
340.146	340.352	82	49
340.146	340.355	85	62
340.149	340.25	49	37
340.355	340.457	61	31
340.356	340.457	66	37
340.488	340.663	75	49
340.51	340.667	78	49
340.537	340.67	83	49
340.565	340.67	87	64
340.569	340.671	54	42
340.772	340.873	78	44
340.772	340.877	83	56
340.773	340.88	59	29
340.773	340.877	63	35
340.978	341.083	75	44
340.978	341.084	78	56
340.982	341.084	49	33
341.188	341.293	75	56
341.189	341.294	71	44
341.191	341.294	63	28
341.192	341.294	66	33
341.399	341.503	75	44
341.399	341.504	78	56
341.4	341.504	54	42
341.605	341.71	83	58
341.606	341.714	78	46
341.608	341.714	59	30
341.608	341.714	63	36
341.814	341.913	83	48
341.815	341.916	49	36
341.815	341.914	87	60
342.014	342.119	87	49
342.014	342.115	90	62
342.015	342.12	63	30
342.015	342.12	66	36
342.224	342.326	82	51
342.225	342.329	54	42
342.225	342.326	85	64
342.431	342.53	61	36
342.431	342.529	78	44
342.431	342.53	82	55
342.435	342.532	58	30
342.634	342.739	73	44
342.634	342.739	78	55
342.635	342.74	49	36
342.844	342.952	73	55
342.845	342.956	61	30
342.845	342.956	66	36
342.845	342.952	70	44
343.065	343.162	73	45
343.065	343.163	78	57
343.066	343.166	54	42
343.274	343.376	78	44
343.274	343.38	82	56
343.275	343.38	58	30
343.275	343.38	61	37
343.481	343.69	78	49
343.482	343.691	82	49
343.482	343.691	85	62
343.484	343.695	73	49
343.485	343.586	49	37
343.695	343.795	61	31
343.696	343.796	66	37
343.897	344.318	84	65
343.901	344.318	56	42
344.006	344.205	97	50
344.104	344.318	65	37
344.104	344.318	85	59
344.105	344.318	61	31
344.205	344.318	97	50
344.307	344.717	83	65
344.311	344.717	49	42
344.405	344.609	97	50
344.511	344.717	85	60
344.514	344.717	61	31
344.514	344.717	65	37
344.609	344.717	97	50
344.713	345.112	84	65
344.717	345.112	68	42
344.814	345.012	97	50
344.909	345.112	85	59
344.91	345.112	77	37
344.912	345.112	73	31
345.012	345.112	97	50
345.109	345.505	61	42
345.109	345.505	83	65
345.206	345.405	97	50
345.308	345.505	77	37
345.308	345.505	85	60
345.309	345.505	73	31
345.405	345.505	97	50
345.504	345.921	84	65
345.505	345.921	54	42
345.609	345.813	97	50
345.706	345.921	85	59
345.707	345.921	58	31
345.707	345.921	66	37
345.71	345.921	61	31
345.813	345.921	97	50
345.907	346.32	82	65
345.91	346.32	49	42
346.015	346.214	97	50
346.114	346.32	85	60
346.116	346.32	58	31
346.117	346.32	61	31
346.117	346.32	66	37
346.214	346.32	97	50
346.316	346.722	84	65
346.317	346.722	70	42
346.415	346.615	97	50
346.513	346.722	73	31
346.513	346.722	85	59
346.515	346.722	78	37
346.615	346.722	97	50
346.711	347.114	82	65
346.712	347.114	66	42
346.807	347.013	97	50
346.909	347.114	85	60
346.911	347.114	73	31
346.911	347.114	78	37
347.013	347.114	97	50
347.111	347.527	84	65
347.114	347.527	56	42
347.212	347.415	97	50
347.314	347.527	85	59
347.317	347.527	61	31
347.317	347.527	65	37
347.415	347.527	97	50
347.51	347.923	89	65
347.513	347.923	49	42
347.513	347.923	83	56
347.618	347.814	97	50
347.717	347.923	85	60
347.72	347.923	61	31
347.72	347.923	65	37
347.814	347.923	97	50
347.92	348.322	68	42
347.92	348.322	84	65
348.018	348.217	97	50
348.115	348.322	85	59
348.116	348.322	73	31
348.118	348.322	77	37
348.217	348.322	97	50
348.318	348.718	83	55
348.318	348.718	89	65
348.322	348.718	61	42
348.42	348.616	97	50
348.518	348.718	85	60
348.519	348.718	77	37
348.521	348.718	73	31
348.616	348.718	97	50
348.713	349.13	84	65
348.717	349.13	54	42
348.811	349.025	97	50
348.917	349.13	85	59
348.918	349.13	66	37
348.92	349.13	58	31
348.92	349.13	61	31
349.025	349.13	97	50
349.116	349.529	90	65
349.119	349.529	82	53
349.123	349.529	49	42
349.218	349.418	97	50
349.319	349.529	85	60
349.32	349.529	61	31
349.32	349.529	66	37
349.322	349.529	58	31
349.418	349.529	97	50
349.527	349.925	70	42
349.527	349.925	84	65
349.624	349.824	97	50
349.725	349.925	85	59
349.726	349.925	73	31
349.726	349.925	78	37
349.824	349.925	97	50
349.921	350.32	82	58
349.921	350.32	90	65
349.922	350.318	66	42
350.02	350.215	97	50
350.121	350.32	78	37
350.121	350.32	85	60
350.122	350.32	73	31
350.215	350.32	97	50
350.317	351.09	87	65
350.318	351.094	66	42
350.414	350.614	97	47
350.513	350.901	83	60
350.514	351.104	71	31
350.516	350.905	75	37
350.614	350.803	97	47
350.705	351.104	82	60
350.706	351.104	61	42
350.803	350.996	97	47
350.901	351.104	78	37
350.901	351.104	83	62
350.905	351.104	75	31
350.996	351.104	97	47
351.09	351.674	87	65
351.094	351.873	66	42
351.192	351.385	97	48
351.283	351.874	83	62
351.286	351.675	78	37
351.287	351.675	75	31
351.385	351.574	97	47
351.475	351.874	90	65
351.476	351.874	71	42
351.574	351.776	97	46
351.674	351.874	87	61
351.675	351.874	75	31
351.675	351.874	78	37
351.776	351.874	97	48
351.871	352.648	85	65
351.873	352.651	66	42
351.969	352.168	97	47
352.067	352.455	82	60
352.07	352.658	70	31
352.07	352.459	73	37
352.168	352.358	97	47
352.26	352.658	61	42
352.26	352.658	81	60
352.358	352.553	97	47
352.455	352.658	82	62
352.458	352.658	78	37
352.459	352.658	73	31
352.553	352.658	97	47
352.648	353.229	85	65
352.651	353.428	66	42
352.749	352.942	97	48
352.84	353.428	82	62
352.841	353.232	78	37
352.843	353.233	73	31
352.942	353.131	97	47
353.033	353.428	90	65
353.034	353.428	70	42
353.131	353.33	97	46
353.229	353.428	85	61
353.232	353.428	78	37
353.233	353.428	73	31
353.33	353.428	97	48
353.425	354.205	87	65
353.428	354.206	66	42
353.527	353.726	97	47
353.625	354.016	75	37
353.625	354.013	83	60
353.627	354.215	71	31
353.726	353.915	97	47
353.817	354.215	61	42
353.817	354.215	82	60
353.915	354.107	97	47
354.013	354.215	83	62
354.016	354.215	75	31
354.016	354.215	78	37
354.107	354.215	97	47
354.205	354.783	87	65
354.206	354.983	66	42
354.304	354.496	97	48
354.394	354.986	83	62
354.398	354.786	75	31
354.398	354.786	78	37
354.496	354.686	97	47
354.587	354.986	90	65
354.59	354.986	71	42
354.686	354.886	97	46
354.783	354.986	87	61
354.786	354.986	75	31
354.786	354.986	78	37
354.886	354.986	97	48
354.982	355.759	85	65
354.983	355.76	66	42
355.084	355.279	97	47
355.179	355.571	82	60
355.181	355.572	73	37
355.182	355.769	70	31
355.279	355.469	97	47
355.371	355.769	81	60
355.374	355.769	61	42
355.469	355.662	97	47
355.571	355.769	78	37
355.571	355.769	82	62
355.572	355.769	73	31
355.662	355.769	97	47
355.759	356.34	85	65
355.76	356.55	66	42
355.86	356.052	97	48
355.952	356.55	82	62
355.953	356.344	73	31
355.955	356.344	78	37
356.052	356.243	97	47
356.151	356.55	90	65
356.152	356.55	70	42
356.243	356.442	97	46
356.34	356.55	85	61
356.344	356.55	73	31
356.344	356.55	78	37
356.442	356.55	97	48
356.537	356.774	83	55
356.539	356.774	89	65
356.632	356.774	97	48
356.676	356.774	60	42
356.725	356.844	92	62
356.726	356.845	85	52
356.729	356.819	61	48
356.823	356.914	97	47
356.914	357.169	83	55
356.918	357.169	89	65
357.009	357.169	97	46
357.053	357.169	64	48
357.104	357.222	85	51
357.104	357.223	92	61
357.105	357.197	65	49
357.201	357.299	97	48
357.299	357.533	89	65
357.3	357.533	83	55
357.397	357.533	97	48
357.435	357.533	69	50
357.491	357.604	85	52
357.492	357.583	70	51
357.492	357.607	92	62
357.583	357.674	97	47
357.674	357.936	83	55
357.677	357.936	89	65
357.771	357.936	97	46
357.813	357.936	67	42
357.869	357.989	85	51
357.87	357.964	68	49
357.87	357.989	92	61
357.964	358.062	97	48
358.063	358.292	90	65
358.065	358.292	82	55
358.157	358.292	97	48
358.202	358.292	65	42
358.255	358.367	85	52
358.255	358.363	94	62
358.256	358.341	66	50
358.342	358.433	97	47
358.387	358.436	64	42
358.44	358.695	90	65
358.441	358.695	65	48
358.441	358.695	82	55
358.532	358.695	97	46
358.573	358.695	63	42
358.629	358.748	94	61
358.63	358.749	85	51
358.633	358.723	64	54
358.724	358.825	97	48
358.825	359.07	82	55
358.826	359.07	90	65
358.924	359.07	97	48
358.969	359.07	62	42
359.018	359.133	85	52
359.022	359.108	63	49
359.022	359.134	94	62
359.109	359.203	97	47
359.154	359.203	61	42
359.204	359.462	82	55
359.207	359.462	62	49
359.207	359.462	90	65
359.304	359.462	97	46
359.346	359.462	60	54
359.395	359.522	85	51
359.396	359.497	61	56
359.396	359.523	94	61
359.5	359.595	97	48
359.599	359.833	83	55
359.599	359.833	89	65
359.69	359.833	97	48
359.735	359.833	60	42
359.785	359.9	92	62
359.787	359.9	85	52
359.788	359.875	61	48
359.875	359.966	97	47
359.966	360.229	83	55
359.97	360.229	89	65
360.068	360.229	97	46
360.113	360.229	64	48
360.162	360.281	92	61
360.163	360.257	65	49
360.163	360.281	85	51
360.257	360.354	97	48
360.358	360.593	89	65
360.359	360.593	83	55
360.453	360.593	97	48
360.495	360.593	69	50
360.545	360.659	85	52
360.545	360.66	92	62
360.547	360.634	70	51
360.635	360.729	97	47
360.729	360.988	83	55
360.73	360.988	89	65
360.828	360.988	97	46
360.873	360.988	67	42
360.922	361.047	85	51
360.922	361.048	92	61
360.925	361.019	68	49
361.02	361.121	97	48
361.124	361.359	82	55
361.125	361.359	90	65
361.219	361.359	97	48
361.261	361.359	65	42
361.311	361.425	85	52
361.313	361.426	94	62
361.314	361.401	66	50
361.404	361.496	97	47
361.446	361.496	64	42
361.497	361.761	82	55
361.499	361.761	65	48
361.499	361.761	90	65
361.597	361.761	97	46
361.639	361.761	63	42
361.689	361.814	85	51
361.69	361.814	94	61
361.691	361.79	64	54
361.79	361.891	97	48
361.891	362.126	82	55
361.892	362.126	90	65
361.985	362.126	97	48
362.027	362.126	62	42
362.077	362.196	85	52
362.077	362.196	94	62
362.08	362.175	63	49
362.175	362.265	97	47
362.22	362.266	61	42
362.27	362.528	82	55
362.27	362.528	90	65
362.272	362.528	62	49
362.364	362.528	97	46
362.412	362.528	60	54
362.462	362.577	85	51
362.463	362.555	61	56
362.463	362.581	94	61
362.556	362.661	97	48
362.662	363.029	83	55
362.662	363.028	89	65
362.664	363.431	56	42
362.752	362.938	97	48
362.84	363.215	92	62
362.843	363.218	61	37
362.843	363.214	85	52
362.847	363.218	65	37
362.938	363.123	97	47
363.028	363.424	89	65
363.029	363.431	49	42
363.029	363.425	83	55
363.123	363.319	97	46
363.214	363.431	85	51
363.215	363.431	92	61
363.218	363.431	61	37
363.218	363.431	65	37
363.319	363.431	97	48
363.424	363.851	89	65
363.425	363.858	68	37
363.425	363.861	83	55
363.428	363.861	72	42
363.526	363.737	97	48
363.624	363.855	85	52
363.628	363.861	65	37
363.628	363.861	73	37
363.628	363.861	92	62
363.737	363.861	97	47
363.851	364.282	89	65
363.855	364.282	77	55
363.855	364.282	85	55
363.856	364.282	71	48
363.858	364.282	68	42
364.166	364.282	73	37
364.17	364.282	65	37
364.279	364.649	82	55
364.282	365.059	54	42
364.282	364.645	90	65
364.37	364.555	97	48
364.46	364.838	94	62
364.464	364.842	61	37
364.464	364.842	66	37
364.464	364.842	85	52
364.555	364.744	97	47
364.645	365.049	90	65
364.649	365.048	82	55
364.652	365.059	49	42
364.744	364.944	97	46
364.838	365.059	94	61
364.842	365.059	61	37
364.842	365.059	66	37
364.842	365.059	85	51
364.944	365.059	97	48
365.048	365.482	82	55
365.049	365.479	90	65
365.052	365.482	69	37
365.052	365.482	72	42
365.15	365.357	97	48
365.245	365.482	94	62
365.247	365.475	85	52
365.248	365.482	70	37
365.248	365.482	73	37
365.357	365.482	97	47
365.475	365.912	85	55
365.479	365.912	78	55
365.479	365.912	90	65
365.482	365.912	66	42
365.482	365.912	70	48
365.79	365.912	73	37
365.906	366.287	83	55
365.906	366.283	89	65
365.909	366.69	56	42
366.004	366.186	97	48
366.095	366.472	85	52
366.095	366.473	92	62
366.096	366.474	61	37
366.096	366.473	65	37
366.186	366.382	97	47
366.283	366.68	89	65
366.287	366.679	83	55
366.288	366.69	49	42
366.382	366.575	97	46
366.472	366.69	85	51
366.473	366.69	65	37
366.473	366.69	92	61
366.474	366.69	61	37
366.575	366.69	97	48
366.679	367.12	83	55
366.68	367.113	89	65
366.683	367.117	68	37
366.683	367.12	72	42
366.782	366.988	97	48
366.882	367.116	85	52
366.885	367.12	73	37
366.885	367.12	92	62
366.886	367.12	65	37
366.988	367.12	97	47
367.113	367.543	89	65
367.116	367.543	85	55
367.117	367.543	68	42
367.117	367.543	71	48
367.117	367.543	77	55
367.425	367.543	65	37
367.425	367.543	73	37
367.537	367.907	82	55
367.537	367.911	90	65
367.54	368.338	54	42
367.628	367.817	97	48
367.719	368.101	85	52
367.72	368.104	94	62
367.722	368.104	61	37
367.722	368.104	66	37
367.817	368.01	97	47
367.907	368.328	82	55
367.911	368.338	49	42
367.911	368.329	90	65
368.01	368.213	97	46
368.101	368.338	85	51
368.104	368.338	61	37
368.104	368.338	66	37
368.104	368.338	94	61
368.213	368.338	97	48
368.328	368.786	82	55
368.329	368.777	90	65
368.331	368.786	69	37
368.331	368.786	72	42
368.437	368.647	97	48
368.538	368.78	70	37
368.538	368.776	85	52
368.538	368.786	94	62
368.541	368.786	73	37
368.647	368.786	97	47
368.776	369.359	78	55
368.776	369.359	85	55
368.777	369.359	90	65
368.78	369.359	66	42
368.78	369.16	70	48
369.14	369.359	73	37
369.202	369.359	83	66
369.274	369.391	99	82
369.276	369.392	56	42
369.51	369.626	61	30
369.511	369.626	71	36
369.514	369.627	65	30
369.745	370.392	80	65
369.746	369.853	49	36
369.966	370.074	65	30
369.966	370.075	71	36
369.967	370.075	61	30
370.182	370.288	56	42
370.396	370.497	82	65
370.397	370.501	61	36
370.397	370.498	65	36
370.399	370.501	71	36
370.603	370.705	49	36
370.603	370.7	83	69
370.805	370.911	80	65
370.806	370.911	61	30
370.809	370.914	65	30
370.809	370.912	71	36
370.963	371.148	82	63
371.016	371.148	54	42
371.016	371.148	97	83
371.226	371.326	61	28
371.226	371.327	66	28
371.227	371.331	70	34
371.432	372.041	78	65
371.433	371.53	49	34
371.635	371.74	70	34
371.638	371.741	61	28
371.639	371.741	66	28
371.838	371.947	54	42
372.044	372.139	80	65
372.045	372.143	70	36
372.048	372.143	66	30
372.049	372.144	61	30
372.248	372.346	49	36
372.248	372.345	82	69
372.443	372.542	78	59
372.444	372.545	61	30
372.444	372.543	70	36
372.447	372.545	66	30
372.64	372.738	56	42
372.64	372.737	77	65
372.839	372.937	65	28
372.839	372.937	78	61
372.84	372.941	61	28
372.84	372.938	71	34
373.031	373.126	80	65
373.032	373.13	49	34
373.221	373.323	65	28
373.221	373.318	82	61
373.222	373.323	61	28
373.224	373.323	71	34
373.416	373.511	83	65
373.42	373.511	56	42
373.609	373.707	85	60
373.61	373.708	65	31
373.613	373.711	61	31
373.613	373.71	71	37
373.798	373.893	87	65
373.802	373.896	49	37
373.99	374.085	89	59
373.995	374.086	61	30
373.995	374.089	65	30
373.995	374.089	71	36
374.131	374.18	90	61
374.155	374.236	92	61
374.18	374.277	90	75
374.181	374.278	54	42
374.375	374.467	89	65
374.376	374.471	66	33
374.376	374.47	70	39
374.379	374.471	61	33
374.561	374.656	49	39
374.561	374.652	90	71
374.747	374.845	92	65
374.748	374.848	61	33
374.75	374.849	66	33
374.75	374.848	70	39
374.939	375.03	94	73
374.94	375.034	54	42
375.125	375.22	92	65
375.126	375.22	61	32
375.126	375.22	70	38
375.128	375.221	66	32
375.317	375.408	94	73
375.318	375.409	49	38
375.503	375.594	66	32
375.503	375.593	90	65
375.504	375.597	70	38
375.506	375.598	61	32
375.66	375.821	83	50
375.682	375.821	89	54
375.706	375.821	92	57
375.724	375.832	56	42
375.724	375.832	99	82
375.943	376.052	65	30
375.944	376.056	61	30
375.944	376.057	71	36
376.171	376.791	77	55
376.171	376.791	80	65
376.172	376.272	49	36
376.378	376.483	71	36
376.379	376.483	61	30
376.379	376.486	65	30
376.587	376.693	56	42
376.792	376.895	82	66
376.794	376.896	71	36
376.794	376.896	78	56
376.795	376.9	61	36
376.795	376.9	65	36
376.993	377.085	80	59
376.997	377.088	83	70
376.998	377.088	49	36
377.187	377.285	71	37
377.187	377.284	77	56
377.187	377.285	80	66
377.189	377.287	65	30
377.19	377.288	61	30
377.337	377.476	82	46
377.355	377.476	85	58
377.372	377.476	90	61
377.389	377.49	97	85
377.39	377.494	54	43
377.592	377.697	66	29
377.593	377.698	61	29
377.593	377.698	70	35
377.795	378.404	70	57
377.795	378.404	78	67
377.798	377.9	49	35
377.998	378.096	66	35
377.999	378.096	61	29
378.201	378.299	54	44
378.404	378.502	71	58
378.408	378.506	61	31
378.408	378.506	66	38
378.408	378.506	80	68
378.6	378.695	73	61
378.603	378.695	82	73
378.604	378.696	49	38
378.793	378.89	78	63
378.797	378.895	61	32
378.797	378.895	66	38
378.797	378.894	70	53
378.989	379.09	77	69
378.992	379.09	56	44
378.992	379.09	68	58
379.188	379.286	78	65
379.189	379.287	65	36
379.189	379.287	70	54
379.191	379.29	59	29
379.192	379.29	61	29
379.381	379.471	71	59
379.381	379.472	80	70
379.382	379.472	49	36
379.573	379.664	73	55
379.574	379.668	61	30
379.574	379.665	65	36
379.574	379.665	82	65
379.576	379.668	59	30
379.756	379.856	75	59
379.756	379.857	83	70
379.759	379.857	56	45
379.955	380.049	77	55
379.956	380.05	61	33
379.956	380.049	85	65
379.958	380.053	59	33
379.958	380.05	65	40
380.147	380.238	87	71
380.148	380.243	49	40
380.148	380.242	78	60
380.333	380.417	80	55
380.333	380.421	89	64
380.334	380.424	59	33
380.334	380.421	61	33
380.336	380.424	65	39
380.518	380.609	82	69
380.519	380.613	54	46
380.519	380.609	90	83
380.707	380.801	80	61
380.707	380.802	89	72
380.711	380.805	61	36
380.711	380.802	70	43
380.714	380.806	66	36
380.896	380.987	82	67
380.897	380.991	49	43
380.897	380.987	90	79
381.079	381.172	83	61
381.082	381.176	92	72
381.085	381.177	66	36
381.086	381.177	61	36
381.086	381.177	70	43
381.267	381.362	85	70
381.267	381.358	94	82
381.268	381.362	54	47
381.452	381.547	83	62
381.453	381.548	61	36
381.453	381.548	92	73
381.456	381.548	70	42
381.457	381.551	66	36
381.638	381.726	85	70
381.638	381.725	94	83
381.639	381.726	49	43
381.816	381.911	90	74
381.82	381.911	82	62
381.821	381.912	66	36
381.821	381.915	70	43
381.823	381.915	61	36
381.957	382.149	87	58
381.988	382.149	94	62
382.02	382.149	102	93
382.024	382.149	51	53
382.24	382.352	60	37
382.244	382.352	56	37
382.244	382.352	66	44
382.46	383.152	75	77
382.464	383.152	66	65
382.465	382.881	44	48
382.671	382.881	60	44
382.675	382.881	56	37
382.881	383.152	54	52
383.081	383.182	60	43
383.081	383.182	68	63
383.081	383.182	77	75
383.083	383.184	56	36
383.272	383.373	78	78
383.275	383.374	44	48
383.275	383.374	70	66
383.465	383.56	66	60
383.465	383.56	75	71
383.467	383.56	56	37
383.468	383.562	60	44
383.611	383.641	85	58
383.641	383.675	92	62
383.675	383.787	101	93
383.679	383.787	49	53
383.896	384.008	56	37
383.896	384.004	61	37
383.896	384.008	65	44
384.115	384.801	65	65
384.118	384.801	73	77
384.119	384.528	44	48
384.325	384.528	61	44
384.326	384.528	56	37
384.528	384.634	49	52
384.732	384.829	66	63
384.734	384.833	75	75
384.735	384.834	56	36
384.735	384.834	61	43
384.927	385.025	68	66
384.931	385.029	44	48
384.931	385.028	77	78
385.127	385.225	65	60
385.128	385.226	61	44
385.128	385.225	73	71
385.13	385.228	56	37
385.316	385.424	63	59
385.316	385.424	72	70
385.32	385.424	51	52
385.515	385.607	65	61
385.515	385.607	73	72
385.516	385.61	54	38
385.516	385.61	60	45
385.519	385.61	56	38
385.707	385.827	75	74
385.708	385.827	44	45
385.708	385.827	66	62
385.897	385.991	68	65
385.897	385.992	77	77
385.9	385.992	56	38
385.9	385.994	60	45
385.901	385.995	54	38
386.089	386.184	70	67
386.09	386.185	51	54
386.09	386.184	78	79
386.282	386.377	60	47
386.282	386.372	72	63
386.282	386.376	80	75
386.286	386.379	56	39
386.286	386.377	66	47
386.474	386.566	73	65
386.474	386.565	82	77
386.475	386.569	44	47
386.659	386.751	84	80
386.66	386.752	63	46
386.66	386.752	75	68
386.661	386.754	60	39
386.842	387.224	77	69
386.842	387.22	85	82
386.845	387.227	49	56
387.03	387.227	75	67
387.031	387.227	61	43
387.031	387.227	84	79
387.034	387.227	65	51
387.035	387.227	56	43
387.22	387.611	85	79
387.224	387.611	44	51
387.224	387.611	77	67
387.405	387.611	78	68
387.409	387.611	87	80
387.41	387.611	56	43
387.41	387.611	61	51
387.598	387.968	80	73
387.598	387.973	89	87
387.602	387.982	49	57
387.783	387.982	78	68
387.787	387.982	87	80
387.788	387.982	56	43
387.788	387.982	61	43
387.788	387.982	65	51
387.968	388.242	80	73
387.973	388.242	44	51
387.973	388.242	89	87
388.161	388.263	77	68
388.161	388.259	85	80
388.165	388.263	56	43
388.165	388.263	61	51
388.304	388.654	87	58
388.337	388.654	94	62
388.372	388.654	51	55
388.372	388.654	102	97
388.591	388.7	66	46
388.592	388.701	56	38
388.592	388.701	60	38
388.809	389.494	75	80
388.812	389.494	66	68
388.816	389.229	44	50
389.019	389.229	56	38
389.022	389.229	60	46
389.228	389.494	51	54
389.428	389.522	77	79
389.432	389.529	60	45
389.432	389.527	68	66
389.433	389.53	56	38
389.617	389.712	78	82
389.62	389.712	70	69
389.621	389.715	44	50
389.81	389.905	66	63
389.81	389.9	75	75
389.814	389.905	56	39
389.814	389.907	60	46
389.949	389.978	85	61
389.979	390.013	92	65
390.016	390.122	101	98
390.017	390.125	49	56
390.233	390.345	65	46
390.236	390.346	61	39
390.237	390.346	56	39
390.454	391.13	65	69
390.454	391.13	73	82
390.458	390.86	44	51
390.66	390.86	61	47
390.661	390.86	56	39
390.859	390.961	49	55
391.066	391.158	75	80
391.067	391.158	66	67
391.07	391.158	56	38
391.07	391.161	61	46
391.255	391.35	68	70
391.259	391.351	44	51
391.259	391.35	77	83
391.441	391.536	65	64
391.441	391.535	73	76
391.445	391.536	56	39
391.445	391.536	61	47
391.633	391.731	72	75
391.634	391.731	51	56
391.634	391.731	63	63
391.818	391.913	73	77
391.819	391.914	54	41
391.819	391.914	65	65
391.822	391.914	60	48
391.823	391.917	56	41
392.004	392.12	66	66
392.005	392.12	44	48
392.005	392.12	75	79
392.189	392.281	77	83
392.19	392.284	68	70
392.193	392.288	60	48
392.194	392.289	54	41
392.194	392.288	56	41
392.375	392.469	78	86
392.379	392.47	51	58
392.379	392.47	70	73
392.561	392.648	80	81
392.565	392.649	56	42
392.565	392.652	60	51
392.565	392.649	72	68
392.568	392.653	66	51
392.74	392.833	73	70
392.743	392.837	44	51
392.743	392.834	82	83
392.921	393.009	75	74
392.925	393.01	63	50
392.925	393.009	84	87
392.926	393.012	60	42
393.099	393.439	85	87
393.1	393.439	77	73
393.104	393.439	56	51
393.104	393.439	73	73
393.107	393.439	49	51
393.107	393.439	61	60
393.283	393.439	72	64
393.283	393.439	84	76
393.285	393.439	50	40
393.285	393.439	62	48
393.46	393.792	86	87
393.461	393.792	74	73
393.463	393.792	48	51
393.464	393.792	60	60
393.64	393.792	73	64
393.642	393.792	61	49
393.642	393.792	85	76
393.643	393.792	49	41
393.824	394.139	87	88
393.825	394.139	47	52
393.825	394.139	75	74
393.826	394.139	59	61
393.999	394.139	74	64
394.003	394.139	48	44
394.003	394.139	60	52
394.003	394.139	86	77
394.178	394.482	76	75
394.179	394.482	46	52
394.179	394.482	58	61
394.179	394.482	88	89
394.354	394.482	75	66
394.357	394.482	47	44
394.357	394.482	87	79
394.358	394.482	59	53
394.531	394.853	77	76
394.532	394.853	45	53
394.532	394.853	57	63
394.532	394.853	89	91
394.707	394.853	88	78
394.71	394.853	46	46
394.71	394.853	58	54
394.71	394.853	76	66
394.885	395.158	90	92
394.886	395.158	44	54
394.886	395.158	56	63
394.886	395.158	78	77
395.063	395.158	77	67
395.064	395.158	57	55
395.064	395.158	89	80
395.066	395.158	45	46
395.231	395.539	91	93
395.235	395.539	55	64
395.235	395.539	79	78
395.236	395.539	43	54
395.41	395.539	90	82
395.414	395.539	44	46
395.414	395.539	56	55
395.414	395.539	78	69
395.581	395.893	80	78
395.581	395.893	92	93
395.582	395.893	54	64
395.585	395.893	42	55
395.753	395.893	79	68
395.753	395.893	91	81
395.754	395.893	43	46
395.757	395.893	55	55
395.921	396.236	81	80
395.924	396.236	53	66
395.924	396.236	93	95
395.928	396.236	41	56
396.096	396.236	80	69
396.096	396.236	92	82
396.099	396.236	42	48
396.1	396.236	54	57
396.26	396.561	94	96
396.264	396.561	40	56
396.264	396.561	52	66
396.264	396.561	82	81
396.432	396.561	81	68
396.432	396.561	93	82
396.435	396.561	41	48
396.436	396.561	53	57
396.596	396.887	83	81
396.596	396.887	95	97
396.597	396.887	39	57
396.6	396.887	51	67
396.764	396.887	82	71
396.765	396.887	52	58
396.765	396.887	94	84
396.768	396.887	40	49
396.933	397.205	83	82
396.933	397.205	95	98
396.934	397.205	50	67
396.936	397.205	38	57
397.101	397.205	84	70
397.101	397.205	96	84
397.104	397.205	51	59
397.105	397.205	39	50
397.279	397.619	89	86
397.279	397.619	97	102
397.28	397.626	37	60
397.28	397.622	49	71
397.28	397.62	85	86
397.444	397.643	84	80
397.444	397.643	96	95
397.447	397.643	38	54
397.447	397.643	50	64
397.619	397.958	89	86
397.619	397.956	97	102
397.62	397.955	85	86
397.622	397.958	44	61
397.622	397.958	49	72
397.626	397.959	37	61
397.78	397.962	84	80
397.783	397.962	90	80
397.783	397.962	96	95
397.784	397.962	38	56
397.784	397.962	50	66
397.955	398.294	85	86
397.956	398.291	97	102
397.958	398.295	44	60
397.958	398.294	49	71
397.958	398.292	89	86
397.959	398.294	37	60
398.119	398.314	84	80
398.12	398.314	90	80
398.12	398.314	96	95
398.122	398.314	50	64
398.123	398.314	38	54
398.291	398.636	97	102
398.292	398.634	89	86
398.294	398.637	37	61
398.294	398.637	49	72
398.294	398.635	85	86
398.295	398.637	44	61
398.459	398.64	84	80
398.462	398.64	90	80
398.463	398.64	38	56
398.463	398.64	96	95
398.465	398.64	50	66
398.634	398.829	89	86
398.635	398.829	85	86
398.636	398.829	97	102
398.637	398.829	37	60
398.637	398.829	44	60
398.637	398.829	49	71
398.809	398.986	72	68
398.809	398.991	84	81
398.812	398.991	48	56
398.813	398.991	60	67
398.977	399.155	73	74
398.977	399.158	85	88
398.978	399.158	49	61
398.98	399.162	61	72
399.144	399.33	72	68
399.144	399.329	84	81
399.145	399.333	48	56
399.148	399.334	60	67
399.312	399.407	73	74
399.313	399.407	85	88
399.315	399.408	49	61
399.316	399.408	61	73
399.498	399.683	72	74
399.499	399.684	60	62
399.501	399.688	36	56
399.501	399.688	48	67
399.665	399.859	73	80
399.666	399.859	61	68
399.669	399.86	37	61
399.67	399.862	49	72
399.841	400.033	60	61
399.845	400.034	48	67
399.845	400.033	72	72
399.846	400.037	36	56
400.037	400.552	61	77
400.038	400.733	37	70
400.038	400.552	73	93
400.04	400.733	49	82
400.202	400.381	65	64
400.202	400.552	68	76
400.205	400.384	53	55
400.205	400.553	56	66
400.381	400.733	65	71
400.381	400.733	77	84
400.383	400.733	41	64
400.384	400.733	53	75
400.552	400.733	61	66
400.552	400.733	68	64
400.552	400.733	73	76
400.553	400.733	56	55
400.727	401.423	82	100
400.73	401.416	70	85
400.731	401.419	46	76
400.731	401.423	58	90
400.898	401.076	65	66
400.898	401.074	73	64
400.898	401.073	77	76
400.902	401.074	61	55
401.073	401.423	77	76
401.074	401.423	61	55
401.074	401.417	73	64
401.076	401.423	65	66
401.245	401.423	68	77
401.245	401.423	80	92
401.247	401.423	56	80
401.248	401.423	44	67
401.416	401.912	70	64
401.416	402.106	78	96
401.417	402.106	73	81
401.419	401.913	46	57
401.419	402.106	49	72
401.419	401.896	66	64
401.42	401.896	42	57
401.423	402.106	54	85
401.58	402.106	77	88
401.584	402.106	53	75
401.584	402.106	65	74
401.587	402.106	41	63
401.752	402.106	64	74
401.752	402.106	76	88
401.753	402.106	52	75
401.755	402.106	40	63
401.885	402.106	63	69
401.889	402.106	39	60
401.896	402.106	42	62
401.896	402.106	66	71
401.912	402.106	70	73
401.913	402.106	46	64
401.923	402.106	75	89
401.924	402.106	51	78
402.098	402.802	74	88
402.102	402.802	62	74
402.103	402.802	38	62
402.103	402.802	50	74
402.227	402.616	61	63
402.228	402.62	37	55
402.238	402.802	66	67
402.242	402.802	42	57
402.255	402.802	70	70
402.256	402.802	46	58
402.266	402.617	73	83
402.27	402.617	49	74
402.442	402.802	60	76
402.442	402.802	72	91
402.445	402.802	36	59
402.445	402.802	48	75
402.616	402.799	61	74
402.617	402.799	49	72
402.617	402.795	73	88
402.62	402.799	37	61
402.795	403.316	73	93
402.799	403.502	37	70
402.799	403.502	49	82
402.799	403.323	61	77
402.97	403.149	65	64
402.971	403.321	56	55
402.971	403.32	68	76
402.973	403.151	53	55
403.149	403.502	65	71
403.149	403.502	77	84
403.151	403.502	53	75
403.152	403.502	41	64
403.316	403.502	73	76
403.32	403.502	68	64
403.321	403.502	56	55
403.323	403.502	61	55
403.499	404.188	46	76
403.499	404.185	70	85
403.499	404.192	82	100
403.502	404.192	58	90
403.666	403.842	77	76
403.667	403.841	73	64
403.67	403.844	61	55
403.67	403.845	65	66
403.841	404.184	73	64
403.842	404.192	77	76
403.844	404.192	61	55
403.845	404.192	65	66
404.014	404.192	80	92
404.016	404.192	56	80
404.016	404.192	68	77
404.017	404.192	44	67
404.184	404.699	73	81
404.185	404.696	66	64
404.185	404.696	70	64
404.188	404.703	46	57
404.188	404.885	54	85
404.188	404.882	78	96
404.189	404.7	42	57
404.191	404.699	49	72
404.352	404.889	65	74
404.352	404.889	77	88
404.353	404.889	41	63
404.356	404.889	53	75
404.527	404.889	63	74
404.528	404.889	51	75
404.528	404.889	75	88
404.529	404.889	39	63
404.696	404.881	66	60
404.696	404.885	70	61
404.697	404.889	61	58
404.699	404.888	49	66
404.699	404.882	73	74
404.7	404.889	37	50
404.7	404.886	42	52
404.703	404.886	46	55
404.881	405.665	66	74
404.882	405.266	73	74
404.882	405.269	78	89
404.885	405.27	54	79
404.885	405.267	70	74
404.886	405.665	42	67
404.886	405.273	46	67
404.888	405.27	49	67
405.266	405.665	73	68
405.267	405.665	70	68
405.267	405.665	82	80
405.269	405.665	78	68
405.27	405.662	49	61
405.27	405.665	54	61
405.27	405.665	58	72
405.273	405.665	46	61
405.661	406.029	89	55
405.662	405.844	49	61
405.662	406.383	83	55
405.665	406.386	37	51
405.756	405.934	97	56
405.84	406.201	92	57
405.841	406.384	61	77
405.841	406.197	85	57
405.844	406.384	49	65
405.934	406.114	97	59
406.029	406.386	44	51
406.029	406.386	84	60
406.029	406.383	89	60
406.03	406.386	56	61
406.114	406.292	97	61
406.197	406.386	85	63
406.201	406.386	53	67
406.201	406.386	92	63
406.204	406.386	65	80
406.292	406.386	97	64
406.383	406.928	83	66
406.383	406.733	89	66
406.384	406.928	49	54
406.384	406.928	61	65
406.47	406.646	97	67
406.554	406.904	92	69
406.555	406.905	85	69
406.557	406.928	58	73
406.557	406.928	70	87
406.646	406.817	97	69
406.733	406.928	89	68
406.734	406.928	84	68
406.817	406.928	97	67
406.904	406.988	92	67
406.905	407.075	68	75
406.905	406.988	85	67
406.907	407.076	56	64
406.989	407.076	97	66
407.079	407.428	66	84
407.079	407.428	82	71
407.079	407.422	90	71
407.08	407.428	54	71
407.164	407.332	97	64
407.247	407.428	85	67
407.247	407.428	94	67
407.248	407.428	53	58
407.25	407.428	65	70
407.332	407.428	97	63
407.42	407.773	84	68
407.422	407.773	64	70
407.422	407.769	90	68
407.423	407.773	52	58
407.5	407.681	97	62
407.587	407.773	85	68
407.59	407.773	94	68
407.591	407.773	51	58
407.591	407.773	63	70
407.681	407.773	97	61
407.769	408.109	90	69
407.77	408.115	82	69
407.772	408.115	50	71
407.773	408.115	62	85
407.849	408.017	97	60
407.938	408.115	85	63
407.938	408.115	94	63
407.94	408.115	49	58
407.94	408.115	61	69
408.017	408.115	97	58
408.105	408.465	84	61
408.109	408.465	46	58
408.109	408.465	58	69
408.109	408.465	90	61
408.192	408.367	97	57
408.28	408.465	85	61
408.281	408.465	94	61
408.283	408.465	42	58
408.283	408.465	54	69
408.367	408.465	97	56
408.461	408.822	89	60
408.462	408.64	49	67
408.462	409.175	83	60
408.463	409.179	37	57
408.553	408.724	97	60
408.637	408.997	85	61
408.638	408.998	92	61
408.64	409.176	49	71
408.64	409.176	61	84
408.724	408.906	97	62
408.819	409.179	84	62
408.822	409.176	89	62
408.823	409.179	44	53
408.823	409.179	56	64
408.906	409.085	97	63
408.997	409.179	85	64
408.998	409.179	92	64
409.001	409.179	53	70
409.001	409.179	65	82
409.085	409.179	97	66
409.175	409.719	83	66
409.176	409.719	49	54
409.176	409.719	61	65
409.176	409.526	89	66
409.267	409.439	97	67
409.351	409.704	85	69
409.352	409.701	92	69
409.353	409.719	58	73
409.354	409.719	70	87
409.439	409.614	97	69
409.526	409.719	84	68
409.526	409.719	89	68
409.614	409.719	97	67
409.701	409.781	92	67
409.704	409.868	56	64
409.704	409.865	68	75
409.704	409.782	85	67
409.782	409.868	97	66
409.869	410.219	82	71
409.872	410.219	54	71
409.872	410.215	90	71
409.873	410.219	66	84
409.956	410.125	97	64
410.038	410.219	94	67
410.041	410.219	53	58
410.041	410.219	65	70
410.041	410.219	85	67
410.125	410.219	97	63
410.212	410.565	84	68
410.215	410.565	52	58
410.215	410.565	64	70
410.215	410.562	90	68
410.299	410.471	97	62
410.383	410.565	85	68
410.384	410.565	51	58
410.384	410.565	94	68
410.385	410.565	63	70
410.471	410.565	97	61
410.562	410.905	82	69
410.562	410.905	90	69
410.563	410.912	50	64
410.563	410.912	62	76
410.642	410.817	97	59
410.729	410.912	94	61
410.73	410.912	49	55
410.73	410.912	61	66
410.73	410.912	85	61
410.817	410.912	97	56
410.905	411.262	82	58
410.905	411.262	90	58
410.906	411.262	48	54
410.906	411.262	60	65
410.984	411.157	97	52
411.072	411.262	94	57
411.073	411.262	49	52
411.073	411.262	61	63
411.073	411.262	85	57
411.157	411.262	97	50
411.251	411.6	83	55
411.251	411.598	89	65
411.255	411.996	56	42
411.339	411.514	97	48
411.423	411.777	85	52
411.423	411.776	92	62
411.426	411.779	65	37
411.427	411.78	61	37
411.427	411.78	71	37
411.514	411.694	97	47
411.598	411.987	89	65
411.6	411.987	83	55
411.601	411.996	49	42
411.694	411.885	97	46
411.776	411.996	92	61
411.777	411.996	85	51
411.779	411.996	65	37
411.78	411.996	61	37
411.78	411.996	71	37
411.885	411.996	97	48
411.987	412.43	83	55
411.987	412.423	89	65
411.989	412.424	68	37
411.99	412.43	72	42
412.087	412.301	97	48
412.189	412.43	92	62
412.19	412.423	85	52
412.193	412.43	65	37
412.193	412.43	73	37
412.301	412.43	97	47
412.42	412.851	77	55
412.423	412.851	85	55
412.423	412.851	89	65
412.424	412.851	68	42
412.427	412.851	71	48
412.732	412.851	65	37
412.732	412.851	73	37
412.844	413.201	90	65
412.847	413.606	54	42
412.847	413.201	82	55
412.93	413.109	97	48
413.022	413.387	85	52
413.023	413.389	66	37
413.023	413.387	94	62
413.024	413.39	70	37
413.025	413.39	61	37
413.109	413.296	97	47
413.201	413.596	82	55
413.201	413.593	90	65
413.202	413.606	49	42
413.296	413.491	97	46
413.387	413.606	85	51
413.387	413.606	94	61
413.389	413.606	66	37
413.39	413.606	61	37
413.39	413.606	70	37
413.491	413.606	97	48
413.593	414.026	90	65
413.596	414.037	69	37
413.596	414.037	82	55
413.597	414.037	72	42
413.697	413.911	97	48
413.797	414.023	85	52
413.799	414.03	70	37
413.799	414.037	94	62
413.8	414.037	73	37
413.911	414.037	97	47
414.023	414.455	85	55
414.026	414.455	90	65
414.027	414.455	66	42
414.027	414.455	78	55
414.03	414.455	70	48
414.338	414.455	73	37
414.451	414.814	89	65
414.454	415.22	56	42
414.454	414.814	83	55
414.545	414.723	97	48
414.629	415.0	85	52
414.629	415.0	92	62
414.63	415.003	65	37
414.632	415.004	61	37
414.633	415.004	71	37
414.723	414.909	97	47
414.814	415.21	83	55
414.814	415.21	89	65
414.818	415.22	49	42
414.909	415.108	97	46
415.0	415.22	85	51
415.0	415.22	92	61
415.003	415.22	65	37
415.004	415.22	61	37
415.004	415.22	71	37
415.108	415.22	97	48
415.21	415.648	83	55
415.21	415.644	89	65
415.211	415.648	68	37
415.213	415.648	72	42
415.312	415.525	97	48
415.409	415.648	92	62
415.413	415.644	85	52
415.414	415.648	65	37
415.416	415.648	73	37
415.525	415.648	97	47
415.644	416.071	85	55
415.644	416.071	89	65
415.647	416.071	77	55
415.648	416.071	68	42
415.648	416.071	71	48
415.955	416.071	73	37
415.956	416.071	65	37
416.065	416.438	82	55
416.067	416.438	90	65
416.068	416.886	54	42
416.158	416.347	97	48
416.246	416.642	94	62
416.249	416.644	85	52
416.25	416.645	66	37
416.25	416.645	70	37
416.252	416.645	61	37
416.347	416.54	97	47
416.438	416.876	82	55
416.438	416.876	90	65
416.441	416.886	49	42
416.54	416.761	97	46
416.642	416.886	94	61
416.644	416.886	85	51
416.645	416.886	61	37
416.645	416.886	66	37
416.645	416.886	70	37
416.761	416.886	97	48
416.876	417.374	82	55
416.876	417.366	90	65
416.879	417.374	69	37
416.88	417.374	72	42
416.994	417.237	97	48
417.107	417.374	94	62
417.108	417.369	85	52
417.11	417.373	70	37
417.11	417.374	73	37
417.237	417.374	97	47
417.366	417.807	90	65
417.369	417.807	78	55
417.369	417.807	85	55
417.373	417.807	66	42
417.373	417.807	70	48
417.74	417.807	73	37
417.866	418.664	87	65
417.867	418.664	66	42
417.975	418.177	97	47
418.076	418.465	83	60
418.077	418.671	71	31
418.08	418.468	75	37
418.177	418.374	97	47
418.275	418.671	82	60
418.276	418.671	61	42
418.374	418.567	97	47
418.465	418.671	83	62
418.466	418.671	78	37
418.468	418.671	75	31
418.567	418.671	97	47
418.664	419.389	66	42
418.664	419.21	87	65
418.755	418.937	97	48
418.843	419.211	75	31
418.843	419.389	83	62
418.844	419.211	78	37
418.937	419.116	97	47
419.028	419.389	90	65
419.029	419.389	71	42
419.116	419.298	97	46
419.21	419.389	87	61
419.211	419.389	75	31
419.211	419.389	78	37
419.298	419.389	97	48
419.385	420.086	85	65
419.389	420.087	66	42
419.477	419.651	97	47
419.563	419.904	82	60
419.564	420.092	70	31
419.564	419.906	73	37
419.651	419.823	97	47
419.735	420.092	81	60
419.739	420.092	61	42
419.823	419.994	97	47
419.904	420.092	82	62
419.906	420.092	73	31
419.907	420.092	78	37
419.994	420.092	97	47
420.086	420.589	85	65
420.087	420.766	66	42
420.166	420.337	97	48
420.254	420.593	73	31
420.254	420.767	82	62
420.257	420.593	78	37
420.337	420.502	97	47
420.422	420.767	90	65
420.423	420.767	70	42
420.502	420.68	97	46
420.589	420.767	85	61
420.593	420.767	73	31
420.593	420.767	78	37
420.68	420.767	97	48
420.765	421.437	87	65
420.766	421.439	66	42
420.845	421.016	97	47
420.932	421.268	83	60
420.933	421.269	75	37
420.936	421.44	71	31
421.016	421.184	97	47
421.101	421.44	61	42
421.101	421.44	82	60
421.184	421.352	97	47
421.268	421.44	83	62
421.269	421.44	75	31
421.272	421.44	78	37
421.352	421.44	97	47
421.437	421.937	87	65
421.439	422.112	66	42
421.52	421.688	97	48
421.604	422.115	83	62
421.608	421.938	75	31
421.608	421.938	78	37
421.688	421.856	97	47
421.769	422.115	71	42
421.769	422.115	90	65
421.856	422.025	97	46
421.937	422.115	87	61
421.938	422.115	75	31
421.938	422.115	78	37
422.025	422.115	97	48
422.111	422.784	85	65
422.112	422.787	66	42
422.196	422.362	97	47
422.28	422.794	70	31
422.28	422.609	82	60
422.283	422.612	73	37
422.362	422.529	97	47
422.441	422.794	61	42
422.441	422.794	81	60
422.529	422.693	97	47
422.609	422.794	82	62
422.612	422.794	73	31
422.612	422.794	78	37
422.693	422.794	97	47
422.784	423.526	85	65
422.787	423.526	66	42
422.878	423.053	97	48
422.962	423.526	82	62
422.965	423.333	73	31
422.966	423.33	78	37
423.053	423.239	97	47
423.151	423.526	90	65
423.152	423.526	70	42
423.239	423.526	97	46
423.33	423.526	78	37
423.333	423.526	73	31
423.512	423.589	49	46
423.512	423.592	56	42
423.672	423.756	51	48
423.673	423.76	65	28
423.673	423.757	71	33
423.841	423.921	53	50
423.841	423.921	61	36
424.008	424.089	54	53
424.009	424.093	65	28
424.009	424.092	71	33
424.128	424.177	58	50
424.177	424.257	56	55
424.337	424.418	55	46
424.338	424.422	65	28
424.341	424.422	71	33
424.506	424.586	56	50
424.509	424.59	61	38
424.67	424.75	53	46
424.671	424.751	65	28
424.671	424.754	71	33
424.835	424.919	54	46
424.835	424.919	58	42
424.999	425.079	56	48
425.0	425.084	66	28
425.002	425.084	70	33
425.164	425.244	58	50
425.164	425.244	61	36
425.332	425.412	59	53
425.332	425.416	66	28
425.332	425.415	70	33
425.458	425.5	63	50
425.5	425.58	61	55
425.501	425.58	58	44
425.66	425.744	60	46
425.661	425.745	66	28
425.664	425.745	70	33
425.825	425.905	61	50
425.993	426.077	58	46
425.996	426.078	70	33
425.997	426.078	66	28
426.161	426.242	56	44
426.161	426.242	59	55
426.283	426.322	62	50
426.326	426.364	63	46
426.326	426.365	65	28
426.326	426.367	71	33
426.494	426.575	56	50
426.494	426.575	61	38
426.612	426.654	58	50
426.659	426.696	59	46
426.659	426.697	65	28
426.66	426.697	71	33
426.823	426.904	53	55
426.823	426.904	56	44
426.945	426.983	55	50
426.988	427.025	56	46
426.988	427.029	65	28
426.99	427.03	71	33
427.152	427.236	49	50
427.155	427.236	61	38
427.27	427.316	52	50
427.317	427.358	53	46
427.319	427.359	71	33
427.32	427.359	65	28
427.481	427.558	54	55
427.481	427.562	58	44
427.599	427.641	57	50
427.642	427.687	58	46
427.642	427.688	70	33
427.646	427.691	66	28
427.81	427.89	49	50
427.81	427.894	61	38
427.932	427.974	53	50
427.975	428.02	54	46
427.975	428.021	70	33
427.976	428.021	66	28
428.146	428.226	46	55
428.149	428.229	58	44
428.268	428.31	48	50
428.311	428.356	49	46
428.311	428.357	66	28
428.313	428.357	70	33
428.489	428.569	42	50
428.489	428.57	61	38
428.649	428.699	66	28
428.654	428.699	70	33
428.817	428.908	61	40
428.821	428.909	56	42
428.821	428.909	73	48
428.986	429.07	63	42
428.989	429.07	75	50
428.993	429.071	59	28
428.993	429.073	65	33
429.154	429.234	49	36
429.154	429.23	65	44
429.154	429.231	77	52
429.318	429.402	66	47
429.322	429.403	59	28
429.322	429.402	78	55
429.323	429.406	61	33
429.441	429.487	82	52
429.49	429.571	56	44
429.49	429.57	68	48
429.49	429.571	80	57
429.651	429.731	67	40
429.652	429.732	59	28
429.652	429.731	79	48
429.654	429.735	65	33
429.812	429.899	80	52
429.816	429.9	49	38
429.816	429.9	68	44
429.976	430.057	77	48
429.977	430.06	59	28
429.977	430.057	65	40
429.98	430.06	61	33
430.145	430.229	54	42
430.145	430.225	66	40
430.145	430.224	78	48
430.305	430.386	68	42
430.309	430.389	66	33
430.309	430.389	80	50
430.31	430.393	58	28
430.469	430.55	82	52
430.47	430.551	49	36
430.47	430.551	70	44
430.631	430.718	71	47
430.632	430.722	83	55
430.634	430.722	58	28
430.635	430.723	61	33
430.76	430.799	90	52
430.799	430.882	73	48
430.803	430.883	54	44
430.803	430.883	85	57
430.96	431.044	84	48
430.963	431.044	72	40
430.964	431.045	66	33
430.967	431.047	58	28
431.125	431.204	73	44
431.125	431.205	85	52
431.128	431.208	49	38
431.289	431.375	70	40
431.29	431.376	58	28
431.29	431.377	61	33
431.29	431.376	82	48
431.46	431.537	83	66
431.463	431.538	75	50
431.464	431.544	56	44
431.575	431.618	86	60
431.619	431.66	87	55
431.621	431.661	59	28
431.621	431.66	65	33
431.785	431.862	71	50
431.79	431.863	49	38
431.79	431.863	80	60
431.905	431.943	82	60
431.943	431.982	83	55
431.947	431.985	59	28
431.947	431.985	61	33
432.111	432.188	77	66
432.112	432.189	56	44
432.112	432.189	68	50
432.227	432.269	79	60
432.269	432.311	80	55
432.272	432.311	59	28
432.272	432.312	65	33
432.436	432.51	73	60
432.437	432.513	65	50
432.44	432.514	49	38
432.552	432.594	76	60
432.594	432.633	77	55
432.595	432.633	59	28
432.598	432.636	61	33
432.755	432.835	78	66
432.756	432.84	54	44
432.756	432.839	70	50
432.878	432.92	81	60
432.92	432.958	82	55
432.923	432.962	58	28
432.924	432.962	66	33
433.08	433.161	73	60
433.081	433.162	66	50
433.084	433.164	49	38
433.203	433.242	77	60
433.245	433.291	78	55
433.246	433.291	61	33
433.249	433.292	58	28
433.416	433.504	70	66
433.417	433.507	61	50
433.42	433.507	54	44
433.546	433.585	72	60
433.585	433.634	73	55
433.588	433.635	58	28
433.588	433.634	66	33
433.766	433.935	58	50
433.767	434.109	66	60
433.77	433.854	49	38
433.935	434.11	58	28
433.938	433.98	61	33
434.11	434.215	44	46
434.111	434.216	51	42
434.306	434.393	46	48
434.309	434.394	60	28
434.309	434.394	66	33
434.48	434.568	48	50
434.481	434.569	56	36
434.649	434.729	49	53
434.649	434.73	66	33
434.652	434.73	60	28
434.767	434.816	53	50
434.817	434.897	51	55
434.978	435.058	50	46
434.982	435.061	60	28
434.982	435.062	66	33
435.142	435.223	51	50
435.143	435.223	56	38
435.306	435.383	48	46
435.307	435.388	60	28
435.307	435.388	66	33
435.475	435.552	49	46
435.476	435.555	53	42
435.628	435.712	51	48
435.629	435.713	61	28
435.632	435.713	65	33
435.797	435.881	53	50
435.798	435.881	56	36
435.962	436.041	54	53
435.962	436.042	61	28
435.962	436.042	65	33
436.08	436.122	58	50
436.126	436.203	56	55
436.127	436.203	53	44
436.287	436.367	55	46
436.287	436.368	65	33
436.288	436.368	61	28
436.448	436.528	56	50
436.613	436.692	53	46
436.613	436.693	65	33
436.614	436.696	61	28
436.78	436.861	54	55
436.781	436.861	51	44
436.896	436.935	57	50
436.938	436.977	58	46
436.938	436.98	60	28
436.938	436.977	66	33
437.102	437.186	51	50
437.103	437.186	56	38
437.225	437.267	53	50
437.267	437.308	54	46
437.271	437.309	60	28
437.271	437.309	66	33
437.428	437.512	48	55
437.431	437.512	51	44
437.55	437.593	50	50
437.593	437.634	51	46
437.594	437.635	66	33
437.596	437.635	60	28
437.76	437.834	44	50
437.761	437.837	56	38
437.876	437.918	47	50
437.918	437.963	48	46
437.922	437.964	60	28
437.922	437.964	66	33
438.086	438.166	49	55
438.087	438.166	53	44
438.208	438.247	52	50
438.247	438.288	53	46
438.251	438.289	61	28
438.251	438.289	65	33
438.415	438.495	44	50
438.416	438.499	56	38
438.537	438.58	48	50
438.58	438.624	49	46
438.581	438.625	61	28
438.583	438.628	65	33
438.754	438.831	41	55
438.755	438.835	53	44
438.874	438.915	43	50
438.916	438.96	44	46
438.917	438.961	61	28
438.919	438.961	65	33
439.094	439.178	37	50
439.097	439.178	56	38
439.259	439.308	61	28
439.259	439.303	65	33
439.426	439.513	72	44
439.426	439.514	80	52
439.427	439.514	68	44
439.43	439.518	51	46
439.601	439.685	70	46
439.602	439.689	73	46
439.605	439.692	56	30
439.605	439.692	60	30
439.605	439.69	82	55
439.606	439.693	66	36
439.769	439.85	72	48
439.769	439.85	75	48
439.77	439.851	84	57
439.773	439.854	44	39
439.937	440.018	77	51
439.938	440.019	73	51
439.938	440.021	85	60
439.94	440.022	60	30
439.941	440.022	56	30
439.941	440.022	66	36
440.098	440.183	75	52
440.098	440.183	78	52
440.102	440.184	51	48
440.102	440.184	87	62
440.262	440.343	74	44
440.263	440.344	77	44
440.266	440.344	86	52
440.267	440.348	56	30
440.267	440.347	66	36
440.268	440.348	60	30
440.424	440.498	75	48
440.427	440.501	78	48
440.427	440.505	87	57
440.428	440.505	44	41
440.581	440.665	84	52
440.582	440.67	72	44
440.582	440.672	75	44
440.584	440.673	60	30
440.585	440.673	56	30
440.585	440.673	66	36
440.749	440.83	85	52
440.75	440.834	73	44
440.75	440.834	77	44
440.753	440.835	49	46
440.914	440.994	75	46
440.914	440.995	80	46
440.914	440.995	87	55
440.915	440.998	56	30
440.917	440.999	65	36
440.918	440.999	61	30
441.068	441.152	89	57
441.071	441.153	77	48
441.071	441.152	85	48
441.072	441.153	44	39
441.232	441.32	90	60
441.233	441.321	78	51
441.233	441.321	87	51
441.235	441.321	61	30
441.236	441.323	56	30
441.236	441.323	65	36
441.4	441.481	83	52
441.4	441.481	92	62
441.404	441.485	49	48
441.404	441.482	80	52
441.557	441.638	79	44
441.558	441.642	88	44
441.558	441.639	91	52
441.559	441.642	56	30
441.561	441.643	65	36
441.562	441.643	61	30
441.719	441.803	89	48
441.719	441.8	92	57
441.72	441.803	80	48
441.722	441.804	44	41
441.879	441.964	89	52
441.883	441.965	77	44
441.884	441.967	61	30
441.884	441.965	85	44
441.886	441.967	56	30
441.887	441.968	65	36
442.048	442.132	82	55
442.051	442.132	90	72
442.055	442.132	51	48
442.174	442.205	93	66
442.209	442.248	66	36
442.209	442.247	94	60
442.212	442.248	60	30
442.213	442.25	56	30
442.373	442.458	87	66
442.377	442.458	78	55
442.378	442.459	44	41
442.495	442.534	89	66
442.535	442.573	60	30
442.535	442.572	90	60
442.536	442.573	56	30
442.537	442.576	66	36
442.699	442.783	75	55
442.699	442.78	84	72
442.702	442.783	51	48
442.818	442.856	86	66
442.857	442.898	87	60
442.86	442.899	56	30
442.86	442.899	60	30
442.861	442.901	66	36
443.024	443.109	80	66
443.025	443.109	72	55
443.028	443.11	44	41
443.14	443.181	83	66
443.185	443.223	84	60
443.186	443.224	60	30
443.186	443.224	66	36
443.187	443.224	56	30
443.346	443.423	85	72
443.347	443.427	49	48
443.347	443.427	77	55
443.466	443.507	88	66
443.508	443.549	89	60
443.509	443.55	65	36
443.511	443.55	56	30
443.511	443.551	61	30
443.668	443.753	73	55
443.669	443.753	80	66
443.672	443.754	44	41
443.791	443.833	84	66
443.833	443.878	85	60
443.836	443.879	65	36
443.837	443.882	56	30
443.837	443.881	61	30
444.011	444.096	68	55
444.011	444.092	77	72
444.015	444.096	49	48
444.133	444.175	79	66
444.176	444.222	65	36
444.176	444.221	80	60
444.177	444.222	61	30
444.18	444.225	56	30
444.354	444.522	65	55
444.358	444.687	73	66
444.359	444.435	44	41
444.523	444.687	65	36
444.525	444.564	56	30
444.526	444.565	61	30
444.687	445.345	80	50
444.69	445.019	84	50
444.69	445.345	92	59
444.691	445.345	51	52
444.854	445.345	94	63
444.855	445.345	82	52
444.855	445.181	85	52
444.858	445.185	66	41
444.859	445.184	56	34
444.859	445.181	60	34
445.016	445.342	87	55
445.019	445.345	44	44
445.019	445.345	84	55
445.019	445.345	96	65
445.18	445.345	89	58
445.181	445.345	60	34
445.181	445.345	85	58
445.181	445.345	97	69
445.184	445.345	56	34
445.185	445.345	66	41
445.341	445.667	90	64
445.341	445.668	99	78
445.342	445.667	87	64
445.345	445.996	51	55
445.506	445.996	86	55
445.507	445.828	66	41
445.507	445.993	89	55
445.507	445.996	98	64
445.509	445.827	60	34
445.51	445.828	56	34
445.667	445.825	87	60
445.667	445.996	90	60
445.668	445.996	99	71
445.671	445.996	44	47
445.824	445.996	96	64
445.825	445.996	84	55
445.825	445.996	87	55
445.827	445.996	60	34
445.828	445.996	56	34
445.828	445.996	66	41
445.993	446.647	85	55
445.993	446.311	89	55
445.993	446.312	97	64
445.995	446.644	49	57
446.153	446.647	87	57
446.157	446.644	92	57
446.158	446.479	65	45
446.158	446.476	99	69
446.16	446.476	56	37
446.16	446.48	61	37
446.311	446.647	89	60
446.311	446.647	101	71
446.312	446.647	97	60
446.314	446.647	44	48
446.471	446.647	102	75
446.475	446.647	90	63
446.476	446.647	56	37
446.476	446.647	99	63
446.479	446.647	65	45
446.48	446.647	61	37
446.64	446.963	104	78
446.644	447.291	49	60
446.644	446.962	92	64
446.644	447.291	95	64
446.797	447.291	103	64
446.8	447.291	91	55
446.801	447.123	61	37
446.801	447.291	100	55
446.804	447.122	56	37
446.805	447.122	65	45
446.962	447.291	92	60
446.962	447.119	101	60
446.963	447.291	104	71
446.966	447.291	44	51
447.115	447.291	89	55
447.119	447.291	101	64
447.12	447.291	97	55
447.122	447.291	56	37
447.122	447.291	65	45
447.123	447.291	61	37
447.245	447.291	93	82
447.284	447.942	102	90
447.288	447.942	94	69
447.291	447.942	51	60
447.448	447.613	90	75
447.449	447.771	60	37
447.452	447.772	56	37
447.452	447.771	66	45
447.571	447.942	89	82
447.613	447.77	90	69
447.613	447.942	99	82
447.617	447.942	44	51
447.77	447.942	90	75
447.771	447.942	60	37
447.771	447.942	66	45
447.772	447.942	56	37
447.896	447.942	86	82
447.939	448.54	96	90
447.94	448.54	87	69
447.942	448.54	51	60
448.092	448.264	84	75
448.093	448.421	66	45
448.095	448.422	60	37
448.096	448.422	56	37
448.222	448.54	83	82
448.26	448.54	92	82
448.264	448.54	44	51
448.264	448.54	84	69
448.417	448.54	80	75
448.421	448.54	66	45
448.422	448.54	56	37
448.422	448.54	60	37
448.583	449.223	73	59
448.583	449.223	85	70
448.584	449.223	61	50
448.584	449.218	77	59
448.586	449.223	49	42
448.747	449.223	86	72
448.75	449.223	74	61
448.751	449.223	48	45
448.751	449.223	60	53
448.751	449.223	78	61
448.912	449.223	79	62
448.912	449.223	87	74
448.913	449.223	75	62
448.915	449.223	47	47
448.915	449.223	59	56
449.061	449.223	76	66
449.061	449.223	88	78
449.064	449.223	80	66
449.065	449.223	46	49
449.065	449.223	58	59
449.218	449.849	77	67
449.218	449.849	89	79
449.22	449.849	81	79
449.222	449.849	45	52
449.222	449.849	57	62
449.375	449.849	76	64
449.376	449.849	80	64
449.376	449.849	88	77
449.379	449.849	58	58
449.38	449.849	46	49
449.531	449.845	79	61
449.533	449.848	59	53
449.533	449.846	75	61
449.533	449.845	87	73
449.534	449.848	47	45
449.688	449.849	74	59
449.69	449.849	78	59
449.691	449.849	48	41
449.691	449.849	60	49
449.691	449.849	86	70
449.845	450.472	79	59
449.845	450.478	87	70
449.846	450.478	75	59
449.848	450.478	47	42
449.848	450.478	59	50
450.006	450.478	76	61
450.006	450.478	88	72
450.009	450.478	80	61
450.01	450.478	46	45
450.01	450.478	58	53
450.163	450.478	81	62
450.167	450.478	57	56
450.167	450.478	77	62
450.167	450.478	89	74
450.168	450.478	45	47
450.321	450.478	78	66
450.321	450.478	82	66
450.322	450.478	90	78
450.324	450.478	56	59
450.325	450.478	44	49
450.472	451.102	79	67
450.472	451.102	91	79
450.475	451.102	43	52
450.475	451.102	83	79
450.476	451.102	55	62
450.629	451.102	78	64
450.629	451.102	82	64
450.63	451.102	90	77
450.632	451.102	56	58
450.633	451.102	44	49
450.786	451.101	77	62
450.786	451.099	89	74
450.787	451.098	81	62
450.79	451.102	45	45
450.79	451.101	57	54
450.941	451.102	76	60
450.942	451.102	88	71
450.943	451.102	80	60
450.944	451.102	46	41
450.944	451.102	58	49
451.098	451.725	81	60
451.099	451.731	89	71
451.101	451.731	57	51
451.101	451.731	77	60
451.102	451.731	45	42
451.263	451.731	78	62
451.263	451.731	82	62
451.263	451.731	90	73
451.266	451.731	44	45
451.266	451.731	56	54
451.42	451.731	79	63
451.42	451.731	91	75
451.421	451.731	43	47
451.421	451.731	83	63
451.423	451.731	55	57
451.574	451.731	80	67
451.575	451.731	84	67
451.577	451.731	92	79
451.578	451.731	42	49
451.578	451.731	54	60
451.725	452.358	81	68
451.725	452.358	93	80
451.728	452.358	41	53
451.728	452.358	85	80
451.729	452.358	53	63
451.882	452.358	92	79
451.883	452.358	84	65
451.886	452.358	42	50
451.886	452.358	80	65
451.887	452.358	54	59
452.04	452.352	83	62
452.04	452.354	91	75
452.043	452.358	43	46
452.043	452.355	79	62
452.044	452.355	55	54
452.194	452.358	82	60
452.197	452.358	78	60
452.197	452.358	90	72
452.198	452.358	44	42
452.201	452.358	56	50
452.352	452.981	83	61
452.354	452.985	91	74
452.355	452.985	55	51
452.355	452.985	79	61
452.358	452.985	43	43
452.509	452.985	84	64
452.51	452.985	92	76
452.512	452.985	42	45
452.512	452.985	54	53
452.512	452.985	80	64
452.666	452.985	93	78
452.667	452.985	81	65
452.667	452.985	85	65
452.669	452.985	41	47
452.67	452.985	53	55
452.824	452.985	82	68
452.824	452.985	86	68
452.827	452.985	40	48
452.827	452.985	94	82
452.828	452.985	52	58
452.978	453.595	87	71
452.981	453.6	83	71
452.982	453.6	51	61
452.982	453.6	95	85
452.984	453.6	39	50
453.136	453.6	84	74
453.139	453.6	88	74
453.139	453.6	96	88
453.14	453.6	38	54
453.14	453.6	50	64
453.286	453.6	89	75
453.289	453.6	97	90
453.29	453.6	49	66
453.29	453.6	85	75
453.292	453.6	37	55
453.444	453.6	86	79
453.444	453.6	98	93
453.447	453.6	36	58
453.447	453.6	90	79
453.448	453.6	48	68
453.594	454.2	99	95
453.595	454.2	87	81
453.597	454.203	35	61
453.597	454.203	47	71
453.597	454.199	91	81
453.752	454.055	92	83
453.752	454.053	100	100
453.754	454.056	46	75
453.754	454.055	88	83
453.755	454.056	34	63
453.896	454.203	89	87
453.898	454.203	93	87
453.898	454.203	101	103
453.902	454.203	33	66
453.902	454.203	45	78
454.053	454.203	100	101
454.055	454.203	88	85
454.055	454.203	92	85
454.056	454.203	34	64
454.056	454.203	46	76
454.199	454.814	91	98
454.2	454.812	87	84
454.2	454.814	99	98
454.203	454.814	35	64
454.203	454.814	47	75
454.356	454.814	90	82
454.357	454.814	36	63
454.357	454.814	86	82
454.357	454.814	98	97
454.36	454.814	48	73
454.504	454.814	85	81
454.507	454.814	89	81
454.507	454.814	97	96
454.511	454.814	37	59
454.511	454.814	49	71
454.658	454.814	84	80
454.658	454.814	88	80
454.661	454.814	38	58
454.661	454.814	96	95
454.662	454.814	50	70
454.808	455.424	83	78
454.809	455.424	95	94
454.812	455.428	39	55
454.812	455.425	87	78
454.813	455.428	51	67
454.965	455.274	94	93
454.966	455.274	82	77
454.966	455.273	86	77
454.969	455.278	52	66
454.97	455.277	40	55
455.116	455.431	81	77
455.116	455.431	93	92
455.117	455.431	85	77
455.12	455.431	41	53
455.12	455.431	53	64
455.273	455.431	86	76
455.274	455.431	82	76
455.274	455.431	94	90
455.277	455.431	40	51
455.278	455.431	52	60
455.424	456.051	83	75
455.424	456.051	95	89
455.425	456.044	87	75
455.428	456.051	39	53
455.428	456.051	51	64
455.579	456.051	84	77
455.581	456.051	88	77
455.582	456.051	50	66
455.582	456.051	96	92
455.585	456.051	38	55
455.737	456.051	97	94
455.739	456.051	85	78
455.739	456.051	89	78
455.74	456.051	37	57
455.74	456.051	49	69
455.894	456.051	98	96
455.895	456.051	90	81
455.896	456.051	86	81
455.897	456.051	36	59
455.897	456.051	48	71
456.044	456.656	87	84
456.045	456.657	91	84
456.047	456.659	47	73
456.047	456.653	99	98
456.048	456.657	35	63
456.202	456.502	100	101
456.203	456.505	92	85
456.204	456.503	88	85
456.205	456.506	34	64
456.205	456.506	46	76
456.352	456.659	89	88
456.352	456.659	93	88
456.355	456.659	33	66
456.355	456.659	101	105
456.356	456.659	45	78
456.502	456.659	100	101
456.503	456.659	88	85
456.505	456.659	92	85
456.506	456.659	34	64
456.506	456.659	46	76
456.653	457.275	99	98
456.656	457.275	87	84
456.657	457.275	35	64
456.657	457.275	91	98
456.659	457.275	47	75
456.81	457.275	86	82
456.81	457.122	90	82
456.811	457.275	98	97
456.813	457.275	36	63
456.814	457.275	48	73
456.961	457.269	97	96
456.964	457.272	85	81
456.964	457.269	89	81
456.965	457.273	37	59
456.965	457.273	49	71
456.967	457.272	44	59
457.122	457.275	84	80
457.122	457.275	90	80
457.125	457.275	38	58
457.125	457.275	50	70
457.125	457.275	96	95
457.269	457.612	89	90
457.269	457.615	97	107
457.272	457.615	44	63
457.272	457.611	85	90
457.273	457.616	37	63
457.273	457.616	49	74
457.44	457.636	84	84
457.44	457.636	96	99
457.441	457.636	50	67
457.441	457.636	90	84
457.444	457.636	38	56
457.611	457.954	85	90
457.612	457.959	89	90
457.615	457.961	44	64
457.615	457.958	97	107
457.616	457.961	37	64
457.616	457.959	49	75
457.782	457.962	96	99
457.783	457.962	84	84
457.783	457.962	90	84
457.784	457.962	38	58
457.786	457.962	50	69
457.954	458.15	85	90
457.958	458.15	97	107
457.959	458.15	49	74
457.959	458.15	89	90
457.961	458.15	37	63
457.961	458.15	44	63
458.13	458.308	72	68
458.13	458.312	84	81
458.132	458.313	48	56
458.133	458.313	60	67
458.297	458.479	73	74
458.297	458.476	85	88
458.298	458.48	61	72
458.301	458.48	49	61
458.465	458.651	84	81
458.466	458.655	60	67
458.466	458.652	72	68
458.469	458.655	48	56
458.634	458.725	73	74
458.634	458.725	85	88
458.635	458.728	61	73
458.637	458.732	49	61
458.812	459.005	73	74
458.816	459.008	49	67
458.816	459.008	61	62
458.819	459.008	37	56
458.987	459.18	50	72
458.987	459.18	62	68
458.987	459.179	74	80
458.991	459.183	38	61
459.162	459.348	75	72
459.163	459.348	63	61
459.165	459.348	39	56
459.166	459.351	51	67
459.351	459.872	76	97
459.355	460.051	40	73
459.355	460.051	52	86
459.355	459.873	64	80
459.522	459.872	71	79
459.523	459.873	59	69
459.523	459.701	68	67
459.526	459.705	56	57
459.701	460.051	68	74
459.702	460.051	80	88
459.704	460.051	44	67
459.705	460.051	56	78
459.872	460.051	71	67
459.872	460.051	76	79
459.873	460.051	59	57
459.873	460.051	64	69
460.048	460.744	85	105
460.05	460.738	73	89
460.051	460.741	49	79
460.051	460.744	61	94
460.219	460.387	76	67
460.219	460.386	80	79
460.222	460.391	64	57
460.222	460.39	68	69
460.386	460.744	80	79
460.387	460.737	76	67
460.39	460.744	68	69
460.391	460.744	64	57
460.565	460.744	71	80
460.565	460.744	83	96
460.566	460.744	59	84
460.569	460.744	47	70
460.737	461.424	76	85
460.738	461.234	73	85
460.738	461.424	81	100
460.739	461.217	69	85
460.74	461.424	52	75
460.741	461.238	49	75
460.741	461.424	57	89
460.742	461.217	45	75
460.905	461.424	68	77
460.905	461.424	80	92
460.906	461.424	56	78
460.909	461.424	44	66
461.073	461.424	67	77
461.074	461.424	55	78
461.074	461.424	79	92
461.076	461.424	43	66
461.206	461.424	66	72
461.207	461.424	42	63
461.217	461.424	45	65
461.217	461.424	69	74
461.234	461.424	73	76
461.238	461.424	49	67
461.248	461.424	54	81
461.248	461.424	78	93
461.419	462.127	77	92
461.423	462.127	41	65
461.423	462.127	65	77
461.424	462.127	53	77
461.546	461.892	64	60
461.549	461.892	40	52
461.56	461.91	45	54
461.56	461.906	69	64
461.577	461.92	49	55
461.577	461.92	73	67
461.591	461.931	52	71
461.591	461.931	76	80
461.762	462.127	63	75
461.763	462.127	75	90
461.766	462.127	39	63
461.767	462.127	51	74
461.892	462.126	40	53
461.892	462.123	64	65
461.906	462.127	69	65
461.91	462.127	45	53
461.92	462.127	49	53
461.92	462.127	73	65
461.931	462.126	52	64
461.931	462.124	76	77
462.123	462.645	64	80
462.124	462.637	76	97
462.126	462.823	40	73
462.126	462.823	52	86
462.291	462.469	68	67
462.291	462.641	71	79
462.295	462.473	56	57
462.295	462.641	59	57
462.469	462.823	68	74
462.469	462.823	80	88
462.47	462.823	44	67
462.473	462.823	56	78
462.637	462.823	76	79
462.641	462.823	59	57
462.641	462.823	71	67
462.645	462.823	64	57
462.819	463.509	73	89
462.82	463.513	49	79
462.82	463.513	61	94
462.82	463.513	85	105
462.987	463.163	76	67
462.988	463.166	64	57
462.988	463.163	80	79
462.99	463.164	68	69
463.163	463.507	76	67
463.163	463.513	80	79
463.164	463.513	68	69
463.166	463.513	64	57
463.335	463.513	71	80
463.335	463.513	83	96
463.337	463.513	47	70
463.338	463.513	59	84
463.506	464.016	69	79
463.506	464.199	81	95
463.507	464.02	76	79
463.509	464.023	52	71
463.509	464.202	57	84
463.509	464.017	73	79
463.51	464.021	45	71
463.513	464.021	49	71
463.67	464.202	80	92
463.673	464.202	68	77
463.674	464.202	56	78
463.677	464.202	44	66
463.842	464.202	66	77
463.842	464.202	78	92
463.843	464.202	42	66
463.845	464.202	54	78
464.016	464.196	69	63
464.017	464.202	64	60
464.017	464.195	73	64
464.02	464.202	40	52
464.02	464.195	76	77
464.021	464.199	45	54
464.021	464.2	49	57
464.023	464.202	52	69
464.195	464.577	73	77
464.195	464.578	76	77
464.196	464.962	69	77
464.199	464.962	45	70
464.199	464.577	81	93
464.2	464.579	49	70
464.202	464.58	52	70
464.202	464.58	57	82
464.576	464.962	85	84
464.577	464.962	73	71
464.577	464.962	81	71
464.578	464.962	76	71
464.579	464.962	49	64
464.58	464.961	52	64
464.58	464.962	57	64
464.58	464.962	61	75
464.959	465.326	86	57
464.959	465.325	92	57
464.96	465.683	40	53
464.961	465.14	52	64
465.046	465.231	100	58
465.137	465.497	88	59
465.138	465.497	95	59
465.14	465.682	52	68
465.14	465.68	64	80
465.231	465.413	100	61
465.325	465.68	92	63
465.326	465.683	47	53
465.326	465.679	86	63
465.329	465.683	59	64
465.413	465.591	100	64
465.497	465.683	88	66
465.497	465.683	95	66
465.501	465.683	56	70
465.501	465.683	68	84
465.591	465.683	100	67
465.679	466.026	86	69
465.68	466.222	64	68
465.68	466.025	92	69
465.682	466.222	52	56
465.767	465.938	100	70
465.851	466.201	95	72
465.852	466.201	88	72
465.854	466.222	61	76
465.854	466.222	73	91
465.938	466.113	100	72
466.025	466.222	92	71
466.026	466.222	86	71
466.113	466.222	100	70
466.201	466.285	88	70
466.201	466.284	95	70
466.204	466.372	59	67
466.204	466.372	71	78
466.289	466.373	100	69
466.375	466.718	85	74
466.375	466.719	93	74
466.376	466.726	57	74
466.379	466.726	69	88
466.456	466.628	100	67
466.544	466.726	88	70
466.545	466.726	97	70
466.547	466.726	56	60
466.547	466.726	68	73
466.628	466.726	100	66
466.718	467.066	85	71
466.719	467.07	55	60
466.719	467.069	93	71
466.722	467.07	67	73
466.797	466.971	100	65
466.887	467.07	88	71
466.887	467.07	97	71
466.888	467.07	54	60
466.89	467.07	66	73
466.971	467.07	100	64
467.066	467.405	85	72
467.069	467.412	53	66
467.069	467.405	93	72
467.07	467.412	65	80
467.147	467.313	100	63
467.236	467.412	97	66
467.237	467.412	52	60
467.237	467.412	88	66
467.238	467.412	64	72
467.313	467.412	100	60
467.405	467.762	85	64
467.405	467.762	93	64
467.406	467.762	49	60
467.406	467.762	61	72
467.489	467.663	100	59
467.572	467.762	97	64
467.573	467.762	45	60
467.573	467.762	88	64
467.574	467.762	57	72
467.663	467.762	100	58
467.758	468.119	86	63
467.758	468.119	92	63
467.759	468.476	40	59
467.759	467.937	52	70
467.846	468.024	100	63
467.934	468.294	95	64
467.936	468.294	88	64
467.937	468.473	52	74
467.937	468.472	64	88
468.024	468.203	100	65
468.119	468.472	86	65
468.119	468.472	92	65
468.12	468.476	47	55
468.12	468.476	59	67
468.203	468.382	100	66
468.294	468.476	88	67
468.294	468.476	95	67
468.297	468.476	56	73
468.298	468.476	68	86
468.382	468.476	100	69
468.472	469.015	64	68
468.472	468.823	86	69
468.472	468.822	92	69
468.473	469.015	52	56
468.564	468.738	100	70
468.648	469.001	88	72
468.65	469.015	61	76
468.65	469.001	95	72
468.651	469.015	73	91
468.738	468.91	100	72
468.822	469.015	92	71
468.823	469.015	86	71
468.91	469.015	100	70
469.001	469.078	88	70
469.001	469.078	95	70
469.002	469.165	59	67
469.004	469.166	71	78
469.079	469.166	100	69
469.169	469.518	57	74
469.169	469.509	85	74
469.169	469.512	93	74
469.172	469.518	69	88
469.253	469.422	100	67
469.337	469.518	97	70
469.338	469.518	56	60
469.338	469.518	88	70
469.34	469.518	68	73
469.422	469.518	100	66
469.509	469.861	85	71
469.512	469.862	55	60
469.512	469.862	67	73
469.512	469.859	93	71
469.595	469.771	100	65
469.68	469.862	88	71
469.68	469.862	97	71
469.681	469.862	54	60
469.681	469.862	66	73
469.771	469.862	100	64
469.859	470.202	93	72
469.861	470.201	85	72
469.862	470.205	53	60
469.862	470.205	65	71
469.938	470.114	100	61
470.026	470.205	88	64
470.03	470.205	52	57
470.03	470.205	97	64
470.031	470.205	64	69
470.114	470.205	100	58
470.201	470.554	85	60
470.202	470.554	63	68
470.202	470.554	93	60
470.204	470.554	51	56
470.281	470.454	100	54
470.369	470.554	88	59
470.369	470.554	97	59
470.37	470.554	64	66
470.373	470.554	52	54
470.454	470.554	100	52
470.551	470.586	98	71
470.552	470.88	56	57
470.552	470.589	90	71
470.553	470.881	62	57
470.554	470.881	64	68
470.589	470.881	100	75
470.632	470.881	102	79
470.709	470.881	52	67
470.876	471.219	95	71
470.877	471.219	86	71
470.88	471.219	56	57
470.881	471.216	62	57
470.881	471.216	64	68
470.922	471.219	97	75
470.968	471.219	98	80
471.045	471.219	47	66
471.212	471.549	83	71
471.213	471.549	92	71
471.216	471.548	62	57
471.216	471.548	64	68
471.219	471.549	56	57
471.258	471.549	93	75
471.3	471.549	95	80
471.377	471.549	40	67
471.541	471.591	88	71
471.545	471.591	80	71
471.548	471.888	62	57
471.548	471.882	64	68
471.549	471.888	56	57
471.594	471.888	90	75
471.636	471.888	92	80
471.713	471.888	47	66
471.881	471.934	69	66
471.882	472.234	61	57
471.882	472.234	64	68
471.884	472.232	57	57
471.934	472.572	71	67
471.979	472.572	73	68
472.032	472.572	74	69
472.056	472.572	52	67
472.081	472.572	76	70
472.13	472.572	78	71
472.179	472.572	80	72
472.231	472.572	81	73
472.232	472.571	57	57
472.234	472.571	61	57
472.234	472.568	64	68
472.277	472.572	83	74
472.322	472.572	85	75
472.375	472.572	86	76
472.395	472.572	49	66
472.423	472.572	88	77
472.469	472.572	90	78
472.518	472.572	92	79
472.567	473.078	93	80
472.568	472.904	64	68
472.571	472.907	57	57
472.571	472.907	61	57
472.613	473.251	95	81
472.665	473.079	97	82
472.711	473.246	98	84
472.736	473.251	40	67
472.759	473.251	100	85
472.809	473.251	102	86
472.854	473.251	104	87
472.903	473.251	105	88
472.904	473.25	64	68
472.907	473.251	57	57
472.907	473.251	61	57
473.078	473.251	93	71
473.079	473.251	49	66
473.079	473.251	97	71
473.246	473.285	90	71
473.246	473.285	98	71
473.247	473.583	56	57
473.25	473.586	62	57
473.25	473.586	64	68
473.288	473.586	100	75
473.33	473.586	102	79
473.414	473.586	52	67
473.582	473.918	86	71
473.582	473.918	95	71
473.583	473.918	56	57
473.586	473.916	62	57
473.586	473.918	64	68
473.625	473.918	97	75
473.666	473.918	98	80
473.746	473.918	47	66
473.915	474.254	83	71
473.915	474.254	92	71
473.916	474.254	62	57
473.918	474.252	56	57
473.918	474.254	64	68
473.954	474.254	93	75
473.999	474.254	95	80
474.082	474.254	40	67
474.251	474.289	80	71
474.251	474.289	88	71
474.252	474.59	56	57
474.254	474.59	62	57
474.254	474.59	64	68
474.293	474.59	90	75
474.335	474.59	92	80
474.411	474.59	47	66
474.587	474.933	57	57
474.587	474.632	69	66
474.59	474.931	61	57
474.59	474.933	64	68
474.636	475.276	71	67
474.685	475.276	73	68
474.731	475.276	74	69
474.758	475.276	52	67
474.78	475.276	76	70
474.832	475.276	78	71
474.877	475.276	80	72
474.93	475.276	81	73
474.931	475.276	61	57
474.933	475.273	57	57
474.933	475.276	64	68
474.975	475.276	83	74
475.028	475.276	85	75
475.077	475.276	86	76
475.104	475.276	49	66
475.119	475.276	88	77
475.175	475.276	90	78
475.22	475.276	92	79
475.273	475.603	57	57
475.273	475.956	93	80
475.276	475.605	61	57
475.276	475.605	64	68
475.319	475.952	95	81
475.367	475.956	97	82
475.413	475.956	98	84
475.437	475.956	40	67
475.459	475.956	100	85
475.511	475.956	102	86
475.556	475.956	104	87
475.602	475.956	105	88
475.603	475.956	57	57
475.605	475.956	61	57
475.605	475.956	64	68
475.773	475.956	49	66
475.952	475.99	87	71
475.952	475.991	95	71
475.953	476.284	56	57
475.956	476.285	61	57
475.956	476.285	65	68
475.994	476.287	97	75
476.036	476.287	99	79
476.112	476.287	49	67
476.28	476.624	83	71
476.281	476.624	92	71
476.284	476.621	56	57
476.285	476.623	61	57
476.285	476.622	65	68
476.326	476.624	94	75
476.368	476.624	95	80
476.442	476.624	44	66
476.621	476.952	56	57
476.621	476.953	80	71
476.621	476.953	89	71
476.622	476.95	65	68
476.623	476.953	61	57
476.656	476.953	90	75
476.704	476.953	92	80
476.781	476.953	37	67
476.949	476.987	85	71
476.95	477.292	65	68
476.95	476.991	77	71
476.952	477.292	56	57
476.953	477.286	61	57
476.992	477.292	87	75
477.034	477.292	89	80
477.117	477.292	49	66
477.285	477.334	66	66
477.286	477.632	58	57
477.286	477.632	61	68
477.335	477.975	68	67
477.383	477.975	70	68
477.432	477.975	71	69
477.46	477.975	49	67
477.485	477.975	73	70
477.537	477.975	75	71
477.583	477.975	77	72
477.629	477.975	78	73
477.632	477.975	58	57
477.632	477.972	61	57
477.632	477.975	66	68
477.68	477.975	80	74
477.726	477.975	82	75
477.775	477.975	83	76
477.8	477.975	46	66
477.824	477.975	85	77
477.873	477.975	87	78
477.919	477.975	89	79
477.972	478.308	61	57
477.972	478.475	90	80
477.975	478.31	58	57
477.975	478.311	66	68
478.017	478.654	92	81
478.062	478.475	94	82
478.115	478.65	95	84
478.139	478.654	37	67
478.164	478.654	97	85
478.209	478.654	99	86
478.255	478.654	101	87
478.308	478.654	61	57
478.308	478.654	102	88
478.31	478.654	58	57
478.311	478.654	66	68
478.475	478.654	90	71
478.475	478.654	94	71
478.476	478.654	49	66
478.65	478.688	95	71
478.651	478.689	87	71
478.653	478.983	65	68
478.654	478.986	56	57
478.654	478.983	61	57
478.692	478.987	97	75
478.734	478.987	99	79
478.811	478.987	49	67
478.979	479.323	83	71
478.983	479.319	61	57
478.983	479.322	65	68
478.983	479.323	92	71
478.986	479.322	56	57
479.022	479.323	94	75
479.07	479.323	95	80
479.147	479.323	44	66
479.315	479.654	89	71
479.318	479.654	80	71
479.319	479.652	61	57
479.322	479.652	56	57
479.322	479.652	65	68
479.361	479.654	90	75
479.403	479.654	92	80
479.479	479.654	37	67
479.647	479.69	85	71
479.651	479.69	77	71
479.652	479.99	56	57
479.652	479.987	61	57
479.652	479.99	65	68
479.691	479.99	87	75
479.74	479.99	89	80
479.816	479.99	49	66
479.983	480.036	66	66
479.987	480.337	61	68
479.988	480.335	58	57
480.037	480.674	68	67
480.089	480.674	70	68
480.134	480.674	71	69
480.159	480.674	49	67
480.184	480.674	73	70
480.236	480.674	75	71
480.282	480.674	77	72
480.334	480.674	78	73
480.335	480.674	58	57
480.337	480.673	61	57
480.337	480.673	66	68
480.38	480.674	80	74
480.428	480.674	82	75
480.481	480.674	83	76
480.502	480.674	46	66
480.527	480.674	85	77
480.572	480.674	87	78
480.625	480.674	89	79
480.671	481.426	90	80
480.673	481.01	61	57
480.673	481.013	66	68
480.674	481.01	58	57
480.74	481.426	92	81
480.803	481.426	94	82
480.838	481.426	37	67
480.873	481.426	95	84
480.943	481.079	97	85
481.009	481.297	99	88
481.01	481.426	58	57
481.01	481.426	61	57
481.013	481.426	66	68
481.079	481.223	97	86
481.153	481.426	96	80
481.187	481.426	49	66
481.223	481.426	97	86
481.297	481.426	99	88
481.415	482.132	56	42
481.415	482.123	101	89
481.503	481.587	97	67
481.587	481.674	97	83
481.59	481.933	61	37
481.59	481.93	65	37
481.591	481.933	71	37
481.674	481.845	97	64
481.755	482.132	89	82
481.758	482.132	49	42
481.845	481.93	97	66
481.93	482.132	65	37
481.93	482.032	97	76
481.933	482.132	61	37
481.933	482.132	71	37
482.032	482.132	97	60
482.123	482.517	101	80
482.124	482.515	68	37
482.126	482.517	72	42
482.217	482.308	97	61
482.308	482.409	97	78
482.309	482.517	73	37
482.311	482.517	65	37
482.409	482.517	97	60
482.511	482.916	89	77
482.514	482.916	71	48
482.515	482.916	68	42
482.605	482.696	97	63
482.696	482.791	97	77
482.791	482.916	97	63
482.792	482.916	73	37
482.909	483.627	102	85
482.91	483.631	54	42
482.994	483.082	97	64
483.082	483.432	61	37
483.082	483.428	66	37
483.082	483.172	97	83
483.084	483.432	70	37
483.172	483.344	97	64
483.249	483.631	49	42
483.249	483.631	90	82
483.344	483.428	97	66
483.428	483.631	66	37
483.428	483.53	97	76
483.432	483.631	61	37
483.432	483.631	70	37
483.53	483.631	97	60
483.627	484.012	72	42
483.627	484.012	102	80
483.628	484.012	69	37
483.715	483.806	97	61
483.806	484.012	73	37
483.806	483.901	97	78
483.807	484.012	70	37
483.901	484.012	97	60
484.009	484.414	90	77
484.012	484.414	66	42
484.012	484.414	70	48
484.103	484.195	97	63
484.195	484.289	97	77
484.289	484.414	97	63
484.29	484.414	73	37
484.407	485.129	101	87
484.408	485.139	56	42
484.491	484.579	97	67
484.579	484.936	71	37
484.579	484.667	97	83
484.58	484.934	65	37
484.583	484.936	61	37
484.667	484.846	97	64
484.751	485.139	89	82
484.755	485.139	49	42
484.846	484.933	97	66
484.933	485.035	97	76
484.934	485.139	65	37
484.936	485.139	61	37
484.936	485.139	71	37
485.035	485.139	97	60
485.129	485.521	101	80
485.132	485.521	72	42
485.133	485.521	68	37
485.224	485.307	97	61
485.307	485.409	97	78
485.311	485.521	65	37
485.311	485.521	73	37
485.409	485.521	97	60
485.518	485.923	71	48
485.518	485.923	89	77
485.521	485.923	68	42
485.608	485.703	97	63
485.703	485.808	97	77
485.808	485.923	97	63
485.811	485.923	73	37
485.92	486.63	102	87
485.923	486.645	54	42
486.001	486.088	97	67
486.088	486.444	66	37
486.088	486.179	97	83
486.089	486.444	61	37
486.091	486.442	70	37
486.179	486.347	97	64
486.259	486.645	90	82
486.263	486.645	49	42
486.347	486.442	97	66
486.442	486.645	70	37
486.442	486.543	97	76
486.444	486.645	61	37
486.444	486.645	66	37
486.543	486.645	97	60
486.63	487.019	102	80
486.634	487.019	69	37
486.634	487.019	72	42
486.728	486.813	97	61
486.813	486.914	97	78
486.816	487.016	70	37
486.817	487.019	73	37
486.914	487.019	97	60
487.016	487.428	70	48
487.016	487.428	90	77
487.018	487.428	66	42
487.107	487.194	97	63
487.194	487.289	97	77
487.289	487.428	97	63
487.291	487.428	73	37
487.418	488.16	56	42
487.418	488.15	101	89
487.505	487.596	97	67
487.596	487.687	97	83
487.597	487.958	61	37
487.6	487.961	65	37
487.6	487.957	71	37
487.687	487.866	97	64
487.768	488.16	89	82
487.771	488.16	49	42
487.866	487.957	97	66
487.957	488.16	71	37
487.957	488.053	97	76
487.958	488.16	61	37
487.961	488.16	65	37
488.053	488.16	97	60
488.15	488.552	68	37
488.15	488.552	72	42
488.15	488.552	101	80
488.244	488.335	97	61
488.335	488.552	65	37
488.335	488.552	73	37
488.335	488.434	97	78
488.434	488.552	97	60
488.548	488.971	89	77
488.549	488.971	71	48
488.552	488.971	68	42
488.647	488.745	97	63
488.745	488.846	97	77
488.846	488.971	73	37
488.846	488.971	97	63
488.962	489.399	101	76
488.965	489.381	80	37
488.965	489.399	84	48
489.06	489.157	97	57
489.157	489.266	97	74
489.158	489.399	85	48
489.161	489.399	77	37
489.266	489.399	97	57
489.378	489.819	83	56
489.378	489.819	89	73
489.381	489.813	80	42
489.483	489.588	97	59
489.588	489.699	97	68
489.699	489.819	97	54
489.7	489.819	85	37
489.812	490.243	84	48
489.812	490.243	101	72
489.813	490.243	80	37
489.91	490.012	97	54
490.012	490.243	77	37
490.012	490.12	97	70
490.013	490.243	85	49
490.12	490.243	97	54
490.239	490.693	87	56
490.239	490.693	89	69
490.24	490.693	83	42
490.341	490.452	97	56
490.452	490.558	97	69
490.558	490.693	97	56
490.561	490.693	80	38
490.561	490.693	85	37
490.687	491.555	101	78
490.788	490.901	97	60
490.901	491.002	97	73
491.002	491.223	97	56
491.114	491.565	89	71
491.223	491.335	97	56
491.335	491.446	97	65
491.446	491.565	97	51
491.555	492.483	101	67
491.668	491.782	97	50
491.782	491.898	97	63
491.898	492.129	97	49
492.014	492.493	89	62
492.129	492.245	97	50
492.245	492.361	97	60
492.361	492.493	97	49
492.483	493.519	101	67
492.605	492.727	97	51
492.727	492.85	97	63
492.85	493.112	97	48
492.977	493.535	89	60
493.112	493.242	97	48
493.242	493.378	97	55
493.378	493.535	97	43
493.519	494.715	101	56
493.658	493.795	97	42
493.795	493.936	97	53
493.936	494.214	97	41
494.075	494.715	89	52
494.214	494.358	97	42
494.358	494.527	97	50
494.527	494.715	97	40
494.712	494.879	102	82
494.715	494.88	54	42
495.048	495.201	66	30
495.048	495.202	70	36
495.051	495.202	61	30
495.356	495.499	49	36
495.356	495.646	78	58
495.646	495.793	61	30
495.647	495.794	70	36
495.65	495.794	66	30
495.937	497.029	81	67
495.938	496.077	54	42
496.217	496.35	66	36
496.218	496.35	61	36
496.218	496.353	69	36
496.482	496.623	49	36
496.756	496.889	61	30
496.756	496.89	69	36
496.759	496.892	66	30
497.029	497.161	80	65
497.03	497.162	56	42
497.291	497.417	61	36
497.291	497.418	71	36
497.292	497.42	65	36
497.421	497.543	81	59
497.547	497.666	83	65
497.548	497.666	49	36
497.795	497.921	71	36
497.796	497.925	61	30
497.796	497.925	65	30
497.926	498.061	86	70
498.062	498.184	85	65
498.064	498.185	56	42
498.307	498.426	65	36
498.307	498.425	71	36
498.308	498.428	61	36
498.432	498.551	73	59
498.551	498.674	75	65
498.552	498.674	49	36
498.785	498.912	71	36
498.786	498.912	61	30
498.789	498.913	65	30
498.913	498.975	77	60
498.975	499.01	78	49
499.01	499.041	80	50
499.042	499.164	78	65
499.045	499.165	54	42
499.287	499.408	61	36
499.287	499.409	66	36
499.287	499.409	70	36
499.412	499.531	77	59
499.531	499.647	78	65
499.532	499.647	49	36
499.762	499.878	70	36
499.763	499.881	61	30
499.763	499.878	66	30
499.881	500.011	80	70
500.015	500.147	54	42
500.015	501.039	81	65
500.281	500.406	61	36
500.281	500.407	69	36
500.282	500.407	66	36
500.532	500.654	49	36
500.784	500.914	69	36
500.788	500.915	61	30
500.788	500.914	66	30
501.04	501.162	80	65
501.043	501.162	56	42
501.285	501.407	61	36
501.285	501.405	65	36
501.285	501.404	71	36
501.408	501.523	81	59
501.523	501.645	83	65
501.526	501.646	49	36
501.757	501.887	71	36
501.758	501.891	61	30
501.761	501.891	65	30
501.892	502.019	86	70
502.02	502.142	85	65
502.024	502.142	56	42
502.264	502.38	61	36
502.265	502.381	65	36
502.265	502.381	71	36
502.384	502.503	73	59
502.503	502.618	75	65
502.504	502.619	49	36
502.741	502.857	71	36
502.742	502.858	61	30
502.742	502.857	65	30
502.86	502.919	77	60
502.92	502.954	78	49
502.955	502.982	80	50
502.986	503.113	54	42
502.986	503.112	78	65
503.235	503.358	61	36
503.235	503.357	66	36
503.236	503.358	70	36
503.359	503.472	77	59
503.472	503.594	78	65
503.473	503.595	49	36
503.71	503.833	70	36
503.711	503.833	61	30
503.711	503.834	66	30
503.837	503.902	80	70
503.903	503.934	78	60
503.938	503.963	80	60
503.966	504.221	81	65
503.969	504.092	54	42
504.222	504.34	69	36
504.225	504.344	61	36
504.225	504.345	66	36
504.46	504.586	49	36
504.46	504.984	81	65
504.708	504.83	66	30
504.709	504.831	61	30
504.709	504.831	69	36
504.988	505.132	80	59
504.991	505.132	56	42
505.275	505.422	65	36
505.278	505.423	61	36
505.279	505.423	71	36
505.425	505.568	81	47
505.569	505.73	83	53
505.57	505.731	49	36
505.89	506.055	61	30
505.894	506.055	71	36
505.895	506.059	65	30
506.059	506.269	86	57
506.272	507.978	85	51
507.978	508.033	37	39
508.05	508.109	61	48
508.054	508.11	49	48
508.128	508.187	39	41
508.204	508.26	51	49
508.205	508.261	63	49
508.278	508.33	41	42
508.355	508.408	53	51
508.355	508.408	65	51
508.425	508.48	42	44
508.498	508.558	54	52
508.502	508.559	66	52
508.575	508.624	49	46
508.576	508.628	44	46
508.645	508.702	61	54
508.646	508.705	56	54
508.646	508.702	68	54
508.719	508.779	43	44
508.795	508.855	55	53
508.796	508.856	67	53
508.869	508.929	44	43
508.946	509.003	56	51
508.947	509.006	68	51
509.024	509.08	41	41
509.104	509.17	53	49
509.104	509.167	65	49
509.184	509.24	42	39
509.261	509.31	54	48
509.262	509.314	66	48
509.328	509.388	44	41
509.404	509.457	68	49
509.405	509.458	56	49
509.474	509.531	46	42
509.548	509.601	70	51
509.552	509.604	58	51
509.625	509.678	47	44
509.696	509.748	59	52
509.696	509.748	71	52
509.765	509.825	49	46
509.766	509.826	54	46
509.839	509.891	73	54
509.842	509.895	61	54
509.842	509.892	66	54
509.916	509.969	48	44
509.986	510.039	60	53
509.986	510.039	72	53
510.06	510.115	49	43
510.129	510.189	61	51
510.13	510.19	73	51
510.206	510.262	46	41
510.287	510.35	58	49
510.287	510.35	70	49
510.368	510.419	47	49
510.444	510.497	71	59
510.445	510.498	59	59
510.514	510.567	51	43
510.588	510.648	63	51
510.588	510.648	75	51
510.665	510.718	44	50
510.734	510.791	56	60
510.735	510.794	68	60
510.808	510.861	47	46
510.885	510.938	71	55
510.886	510.938	59	55
510.959	511.012	41	50
511.029	511.081	53	60
511.032	511.082	65	60
511.098	511.158	44	44
511.172	511.235	56	52
511.176	511.235	68	52
511.249	511.309	37	51
511.327	511.379	49	62
511.327	511.379	61	62
511.396	511.452	41	47
511.473	511.529	53	56
511.474	511.53	65	56
511.547	511.603	42	51
511.621	511.672	66	62
511.624	511.676	54	62
511.691	511.75	46	45
511.767	511.827	58	53
511.768	511.828	70	53
511.841	511.893	37	53
511.911	511.971	61	63
511.915	511.971	49	63
511.988	512.04	42	48
512.064	512.117	66	58
512.065	512.118	54	58
512.138	512.191	34	52
512.208	512.261	58	63
512.209	512.261	46	63
512.279	512.335	37	46
512.355	512.411	61	55
512.356	512.412	49	55
512.429	512.481	30	54
512.43	512.482	42	54
512.499	512.555	66	64
512.5	512.559	54	64
512.573	512.625	46	50
512.576	512.625	34	50
512.65	512.72	58	59
512.65	512.719	70	59
512.744	513.339	49	44
512.745	513.339	37	44
512.745	513.336	44	44
512.747	513.043	41	44
512.822	513.118	65	55
512.824	513.339	68	55
512.825	513.339	61	55
512.825	513.339	73	55
512.898	513.339	39	47
512.898	513.339	51	47
512.972	513.339	75	56
512.973	513.339	63	56
513.042	513.339	53	48
513.043	513.339	41	48
513.116	513.339	77	59
513.118	513.339	65	59
513.192	513.339	42	51
513.193	513.339	54	51
513.262	513.339	78	61
513.263	513.339	66	61
513.336	513.63	44	54
513.338	513.629	56	54
513.339	513.945	49	54
513.409	513.704	73	64
513.41	513.704	68	64
513.41	513.703	80	64
513.479	513.945	43	52
513.48	513.945	55	52
513.553	513.945	67	63
513.553	513.945	79	63
513.629	513.945	56	51
513.63	513.945	44	51
513.703	513.945	80	61
513.704	513.945	68	61
513.704	513.945	73	61
513.773	513.945	41	49
513.774	513.945	53	49
513.861	513.945	65	59
513.861	513.945	77	59
513.941	514.526	42	47
513.941	514.232	46	47
513.942	514.523	54	47
513.945	514.522	49	47
514.011	514.526	73	58
514.014	514.309	70	58
514.015	514.526	66	58
514.015	514.526	78	58
514.088	514.526	44	50
514.089	514.526	56	50
514.161	514.526	68	60
514.162	514.526	80	60
514.229	514.526	58	52
514.232	514.526	46	52
514.305	514.526	82	63
514.309	514.526	70	63
514.376	514.526	47	55
514.378	514.526	59	55
514.453	514.526	71	65
514.453	514.526	83	65
514.522	514.813	49	57
514.522	514.812	61	57
514.523	514.813	54	57
514.599	514.89	73	68
514.599	514.89	78	68
514.6	514.891	85	68
514.669	515.118	48	55
514.67	515.118	60	55
514.742	515.118	84	67
514.743	515.118	72	67
514.812	515.117	61	55
514.813	515.113	49	55
514.813	515.118	54	55
514.89	515.118	73	65
514.89	515.118	78	65
514.891	515.118	85	65
514.963	515.118	46	52
514.963	515.118	58	52
515.037	515.118	70	63
515.04	515.118	82	63
515.113	515.702	49	50
515.113	515.411	53	50
515.117	515.701	56	50
515.117	515.699	61	50
515.191	515.702	80	62
515.192	515.481	77	62
515.192	515.702	85	62
515.194	515.702	73	62
515.261	515.702	51	53
515.261	515.702	63	53
515.335	515.702	75	64
515.335	515.702	87	64
515.411	515.702	53	55
515.412	515.702	65	55
515.481	515.702	77	67
515.481	515.702	89	67
515.555	515.702	54	58
515.555	515.702	66	58
515.625	515.702	78	69
515.625	515.702	90	69
515.699	516.308	61	61
515.701	515.992	56	61
515.702	515.989	68	61
515.771	516.066	92	72
515.772	516.069	80	72
515.772	516.066	85	72
515.845	516.308	55	58
515.845	516.308	67	58
515.914	516.308	79	71
515.915	516.308	91	71
515.989	516.308	68	58
515.992	516.308	56	58
516.066	516.308	85	69
516.066	516.308	92	69
516.069	516.308	80	69
516.143	516.308	65	55
516.144	516.308	53	55
516.223	516.308	77	67
516.223	516.308	89	67
516.304	516.887	66	53
516.305	516.595	58	53
516.307	516.888	54	53
516.308	516.885	61	53
516.384	516.671	82	65
516.385	516.888	78	65
516.385	516.888	85	65
516.385	516.888	90	65
516.451	516.888	68	56
516.452	516.888	56	56
516.524	516.888	92	67
516.525	516.888	80	67
516.594	516.888	70	58
516.595	516.888	58	58
516.671	516.888	82	70
516.672	516.888	94	70
516.738	516.888	59	61
516.741	516.888	71	61
516.815	516.888	83	72
516.815	516.888	95	72
516.885	517.175	61	64
516.885	517.173	73	64
516.887	517.175	66	64
516.955	517.251	90	76
516.955	517.252	97	76
516.958	517.25	85	76
517.031	517.508	72	62
517.032	517.508	60	62
517.098	517.508	84	75
517.099	517.508	96	75
517.173	517.508	73	61
517.175	517.508	61	61
517.175	517.508	66	61
517.25	517.508	85	72
517.251	517.508	90	72
517.252	517.508	97	72
517.326	517.508	58	59
517.329	517.508	70	59
517.4	517.508	94	70
517.402	517.508	82	70
517.504	517.988	71	68
517.508	517.989	59	68
517.585	518.069	83	82
517.588	518.071	95	82
517.668	518.158	63	59
517.669	518.158	75	59
517.754	518.158	87	71
517.756	518.158	99	71
517.837	518.158	56	69
517.837	518.158	68	69
517.918	518.158	80	82
517.919	518.158	92	82
517.988	518.158	71	63
517.989	518.158	59	63
518.069	518.158	83	75
518.071	518.158	95	75
518.145	518.597	53	69
518.145	518.597	65	69
518.218	518.67	77	83
518.222	518.673	89	83
518.292	518.757	68	60
518.296	518.757	56	60
518.369	518.757	92	72
518.372	518.757	80	72
518.446	518.757	49	71
518.447	518.757	61	71
518.522	518.757	73	84
518.523	518.757	85	84
518.597	518.757	53	64
518.597	518.757	65	64
518.67	518.757	77	78
518.673	518.757	89	78
518.747	519.195	58	70
518.75	519.195	46	70
518.82	519.265	70	85
518.824	519.264	82	85
518.898	519.348	61	61
518.9	519.348	49	61
518.974	519.348	73	74
518.975	519.348	85	74
519.049	519.348	42	72
519.051	519.348	54	72
519.118	519.348	66	86
519.12	519.348	78	86
519.195	519.348	46	66
519.195	519.348	58	66
519.264	519.348	82	79
519.265	519.348	70	79
519.346	519.783	39	72
519.346	519.78	51	72
519.415	519.857	63	86
519.415	519.857	75	86
519.483	519.936	42	62
519.485	519.936	54	62
519.559	519.936	66	75
519.562	519.936	78	75
519.636	519.936	35	73
519.636	519.936	47	73
519.713	519.936	59	87
519.713	519.936	71	87
519.78	519.936	51	68
519.783	519.936	39	68
519.857	519.936	63	81
519.857	519.936	75	81
519.93	519.999	32	73
519.933	520.0	44	73
520.0	520.45	56	88
520.004	520.448	68	88
520.077	520.528	47	64
520.08	520.528	35	64
520.15	520.528	71	77
520.154	520.528	59	77
520.228	520.528	29	75
520.23	520.528	41	75
520.298	520.528	53	89
520.298	520.528	65	89
520.372	520.528	32	69
520.374	520.528	44	69
520.448	520.528	68	82
520.45	520.528	56	82
520.524	520.966	37	74
520.592	521.04	61	90
520.595	521.039	49	90
520.665	521.12	41	65
520.738	521.12	53	78
520.738	521.12	65	78
520.819	521.12	34	76
520.889	521.12	46	91
520.889	521.12	58	91
520.966	521.12	37	70
521.039	521.12	49	84
521.04	521.12	61	84
521.116	521.571	30	76
521.116	521.567	42	76
521.187	521.656	54	92
521.26	521.75	46	66
521.263	521.75	34	66
521.338	521.75	58	80
521.417	521.75	39	77
521.418	521.75	27	77
521.495	521.75	51	93
521.567	521.75	42	71
521.571	521.75	30	71
521.656	521.75	54	85
521.746	521.949	47	103
521.747	521.949	35	90
521.75	521.949	23	90
522.537	522.657	63	80
522.538	522.66	71	80
522.538	522.657	75	95
522.54	523.013	35	59
522.54	523.013	47	70
522.657	523.013	63	85
522.657	523.013	75	101
522.66	523.013	54	64
522.66	523.01	71	85
522.661	523.013	59	77
522.663	523.013	51	64
523.006	523.126	65	79
523.007	523.127	77	93
523.01	523.126	68	79
523.01	523.125	71	79
523.013	523.479	37	72
523.013	523.129	49	85
523.125	523.479	71	85
523.126	523.479	65	85
523.126	523.479	68	85
523.127	523.479	77	101
523.128	523.479	56	64
523.129	523.479	49	64
523.129	523.479	53	64
523.129	523.479	61	77
523.472	523.605	70	80
523.475	523.606	78	95
523.476	523.608	66	80
523.476	523.606	73	80
523.477	525.215	42	99
523.479	525.215	30	83
523.605	524.644	70	85
523.606	524.644	73	85
523.606	524.641	78	101
523.608	525.211	54	64
523.608	524.642	66	85
523.609	525.414	58	64
523.612	525.414	49	64
523.612	524.642	61	77
524.641	524.931	78	101
524.642	525.414	61	64
524.642	525.211	66	85
524.644	525.414	70	85
524.644	524.928	73	85
524.924	525.414	94	85
524.924	525.414	102	101
524.925	525.414	90	85
524.928	525.414	73	64
524.928	525.414	82	64
524.928	525.414	97	85
524.929	525.414	85	77
524.931	525.414	78	64
525.211	525.414	54	91
525.211	525.414	66	107
525.215	525.414	30	74
525.215	525.414	42	88
