OnsetTime	OffsetTime	MidiPitch	Velocity
0.500004	0.5625	82	60
0.624995	0.689368	82	57
0.753741	0.818678	77	51
0.883614	0.94611	79	60
1.00861	1.07243	79	57
1.13625	1.20175	74	50
1.26725	1.33081	75	60
1.39436	1.4593	75	55
1.52423	1.58917	70	55
1.65411	1.71793	72	60
1.78175	1.84697	72	54
1.91219	1.97684	67	54
2.0414	2.10578	69	60
2.10578	2.16988	65	51
2.16988	2.2338	67	53
2.2338	2.29749	69	56
2.29749	2.361	70	58
2.361	2.42429	72	60
2.42429	2.48688	74	63
2.48688	2.5492	69	53
2.5492	2.61131	70	56
2.61131	2.6732	72	58
2.6732	2.73489	74	61
2.73489	2.79637	75	64
2.79637	2.85759	77	66
2.85759	2.91881	74	57
2.91881	2.98003	75	60
2.98003	3.04125	77	62
3.04125	3.10247	79	65
3.10247	3.16369	81	67
3.16369	3.22517	82	70
3.22517	3.28724	77	65
3.28724	3.34996	79	67
3.34996	3.4133	81	69
3.4133	3.4781	82	71
3.4781	3.54462	84	73
3.54462	3.60712	86	83
3.66961	3.73344	86	57
3.79726	3.8622	81	51
3.92713	3.98963	82	60
4.05212	4.11595	82	57
4.17977	4.24499	77	50
4.31021	4.37349	79	60
4.43678	4.50088	79	55
4.56499	4.63049	74	55
4.69599	4.75981	76	60
4.82363	4.88746	76	54
4.95128	5.01622	71	54
5.08115	5.14695	73	60
5.14695	5.21254	69	51
5.21254	5.27791	71	53
5.27791	5.34303	73	56
5.34303	5.40791	74	58
5.40791	5.47257	76	60
5.47257	5.53694	77	63
5.53694	5.60114	73	53
5.60114	5.66511	74	56
5.66511	5.72885	76	58
5.72885	5.79237	77	61
5.79237	5.85566	79	64
5.85566	5.91869	81	66
5.91869	5.98172	76	57
5.98172	6.04475	77	60
6.04475	6.10778	79	62
6.10778	6.17081	81	65
6.17081	6.23385	83	67
6.23385	6.297	85	70
6.297	6.36065	81	65
6.36065	6.42475	83	67
6.42475	6.48937	85	69
6.48937	6.55492	86	71
6.55492	6.63403	88	73
6.63403	6.70546	41	54
6.63403	6.70546	53	60
6.63403	6.70546	81	69
6.63403	6.70546	89	80
6.77689	6.84633	55	51
6.77689	6.84633	81	57
6.77689	6.84633	89	65
6.91577	6.98334	57	45
6.91577	6.98334	77	51
6.91577	6.98334	84	58
7.0509	7.11556	46	54
7.0509	7.11556	58	54
7.0509	7.11556	77	60
7.0509	7.11556	86	69
7.18021	7.24571	57	51
7.18021	7.24571	77	57
7.18021	7.24571	86	65
7.31121	7.37848	55	45
7.31121	7.37848	74	50
7.31121	7.37848	82	57
7.44575	7.50924	48	54
7.44575	7.50924	60	54
7.44575	7.50924	76	60
7.44575	7.50924	79	69
7.57279	7.63829	62	49
7.57279	7.63829	76	55
7.57279	7.63829	79	63
7.70379	7.76929	64	49
7.70379	7.76929	72	55
7.70379	7.76929	84	63
7.83479	7.89861	53	54
7.83479	7.89861	65	54
7.83479	7.89861	72	60
7.83479	7.89861	81	69
7.96244	8.02766	55	48
7.96244	8.02766	72	54
7.96244	8.02766	81	62
8.09287	8.15809	57	48
8.09287	8.15809	72	54
8.09287	8.15809	77	62
8.22331	8.28641	55	54
8.22331	8.28641	58	54
8.22331	8.28641	70	60
8.22331	8.28641	74	69
8.34951	8.41371	57	48
8.34951	8.41371	70	54
8.34951	8.41371	74	62
8.4779	8.54473	55	56
8.4779	8.54473	67	62
8.4779	8.54473	79	72
8.61156	8.67519	60	55
8.61156	8.67519	64	55
8.61156	8.67519	72	61
8.61156	8.67519	76	71
8.73883	8.80331	58	50
8.73883	8.80331	72	56
8.73883	8.80331	76	65
8.86779	8.93462	57	58
8.86779	8.93462	69	64
8.86779	8.93462	81	74
9.00145	9.06536	62	57
9.00145	9.06536	65	57
9.00145	9.06536	74	64
9.00145	9.06536	77	73
9.12928	9.19404	60	51
9.12928	9.19404	74	58
9.12928	9.19404	77	66
9.2588	9.32593	58	60
9.2588	9.32593	70	67
9.2588	9.32593	82	78
9.39305	9.45697	64	59
9.39305	9.45697	67	59
9.39305	9.45697	76	66
9.39305	9.45697	79	76
9.52088	9.5848	62	53
9.52088	9.5848	76	60
9.52088	9.5848	79	69
9.64872	9.71406	60	61
9.64872	9.71406	72	69
9.64872	9.71406	84	80
9.77939	9.84473	53	56
9.77939	9.84473	72	62
9.77939	9.84473	81	73
9.91007	9.97541	65	50
9.91007	9.97541	72	57
9.91007	9.97541	81	68
10.0407	10.1073	55	49
10.0407	10.1073	70	55
10.0407	10.1073	76	65
10.1738	10.2377	57	52
10.1738	10.2377	72	57
10.1738	10.2377	77	68
10.3016	10.3675	67	48
10.3016	10.3675	70	53
10.3016	10.3675	73	63
10.4335	10.4994	65	47
10.4335	10.4994	69	51
10.4335	10.4994	75	61
10.5653	10.629	63	49
10.5653	10.629	66	54
10.5653	10.629	69	64
10.6926	10.7579	62	44
10.6926	10.7579	65	51
10.6926	10.7579	70	60
10.8233	10.8886	60	43
10.8233	10.8886	63	49
10.8233	10.8886	66	58
10.954	11.0176	58	45
10.954	11.0176	62	50
10.954	11.0176	67	59
11.0812	11.1466	57	40
11.0812	11.1466	58	46
11.0812	11.1466	62	46
11.2119	11.2772	56	39
11.2119	11.2772	59	45
11.2119	11.2772	65	54
11.3426	11.4065	48	36
11.3426	11.4065	55	43
11.3426	11.4065	58	39
11.3426	11.4065	64	46
11.4704	11.5361	58	38
11.4704	11.5361	64	45
11.6017	11.6673	65	41
11.6017	11.6673	70	41
11.6017	11.6673	74	49
11.733	11.7966	64	41
11.733	11.7966	67	49
11.8602	11.9262	64	38
11.8602	11.9262	67	45
11.9921	12.058	77	45
11.9921	12.058	82	45
11.9921	12.058	86	54
12.1239	12.1881	76	39
12.1239	12.1881	79	47
12.2523	12.3231	76	35
12.2523	12.3231	79	42
12.3939	12.4629	48	60
12.3939	12.4629	72	60
12.3939	12.4629	84	73
12.5319	12.6023	41	67
12.5319	12.6023	53	79
12.5319	12.6023	77	71
12.5319	12.6023	81	71
12.5319	12.6023	89	85
12.9544	13.0202	82	60
13.086	13.1504	82	57
13.2147	13.2797	77	51
13.3446	13.4082	79	60
13.4717	13.5355	79	57
13.5994	13.6649	74	50
13.7304	13.7939	75	60
13.8575	13.9224	75	55
13.9874	14.0523	70	55
14.1172	14.181	72	60
14.2449	14.3101	72	54
14.3753	14.44	67	54
14.5045	14.5689	69	60
14.5689	14.633	65	51
14.633	14.6969	67	53
14.6969	14.7606	69	56
14.7606	14.8241	70	58
14.8241	14.8875	72	60
14.8875	14.9513	74	63
14.9513	15.0149	69	53
15.0149	15.0783	70	56
15.0783	15.1415	72	58
15.1415	15.2045	74	61
15.2045	15.2673	75	64
15.2673	15.3293	77	66
15.3293	15.3907	74	57
15.3907	15.4517	75	60
15.4517	15.5126	77	62
15.5126	15.5736	79	65
15.5736	15.6346	81	67
15.6346	15.6963	82	70
15.6963	15.7585	77	65
15.7585	15.8212	79	67
15.8212	15.8846	81	69
15.8846	15.9494	82	71
15.9494	16.0159	84	73
16.0159	16.0784	86	83
16.1409	16.2047	86	57
16.2685	16.3335	81	51
16.3984	16.4601	82	60
16.5219	16.5857	82	57
16.6495	16.7147	77	50
16.7799	16.8432	79	60
16.9065	16.9706	79	55
17.0347	17.1002	74	55
17.1657	17.2295	76	60
17.2934	17.3572	76	54
17.421	17.4859	71	54
17.5509	17.6178	73	60
17.6178	17.6842	69	51
17.6842	17.7502	71	53
17.7502	17.8158	73	56
17.8158	17.8809	74	58
17.8809	17.9457	76	60
17.9457	18.01	77	63
18.01	18.0742	73	53
18.0742	18.1382	74	56
18.1382	18.202	76	58
18.202	18.2655	77	61
18.2655	18.3288	79	64
18.3288	18.3914	81	66
18.3914	18.4537	76	57
18.4537	18.5157	77	60
18.5157	18.5777	79	62
18.5777	18.6397	81	65
18.6397	18.7019	83	67
18.7019	18.765	85	70
18.765	18.8287	81	65
18.8287	18.8928	83	67
18.8928	18.9574	85	69
18.9574	19.0229	86	71
19.0229	19.095	88	73
19.095	19.166	41	54
19.095	19.166	53	60
19.095	19.166	81	69
19.095	19.166	89	79
19.2371	19.305	55	51
19.2371	19.305	81	57
19.2371	19.305	89	65
19.3729	19.4402	57	45
19.3729	19.4402	77	51
19.3729	19.4402	84	58
19.5074	19.5724	46	54
19.5074	19.5724	58	54
19.5074	19.5724	77	60
19.5074	19.5724	86	69
19.6373	19.7028	57	51
19.6373	19.7028	77	57
19.6373	19.7028	86	65
19.7683	19.8338	55	45
19.7683	19.8338	74	50
19.7683	19.8338	82	57
19.8993	19.9628	48	54
19.8993	19.9628	60	54
19.8993	19.9628	76	60
19.8993	19.9628	79	69
20.0265	20.0908	62	49
20.0265	20.0908	76	55
20.0265	20.0908	79	63
20.1552	20.2207	64	49
20.1552	20.2207	72	55
20.1552	20.2207	84	63
20.2862	20.35	53	54
20.2862	20.35	65	54
20.2862	20.35	72	60
20.2862	20.35	81	69
20.4139	20.4791	55	48
20.4139	20.4791	72	54
20.4139	20.4791	81	62
20.5443	20.6095	57	48
20.5443	20.6095	72	54
20.5443	20.6095	77	62
20.6747	20.7378	55	54
20.6747	20.7378	58	54
20.6747	20.7378	70	60
20.6747	20.7378	74	69
20.8009	20.8651	57	48
20.8009	20.8651	70	54
20.8009	20.8651	74	62
20.9293	20.9962	55	56
20.9293	20.9962	67	62
20.9293	20.9962	79	72
21.063	21.1266	60	55
21.063	21.1266	64	55
21.063	21.1266	72	61
21.063	21.1266	76	71
21.1903	21.2547	58	50
21.1903	21.2547	72	56
21.1903	21.2547	76	65
21.3192	21.386	57	58
21.3192	21.386	69	64
21.3192	21.386	81	74
21.4529	21.5168	62	57
21.4529	21.5168	65	57
21.4529	21.5168	74	64
21.4529	21.5168	77	73
21.5807	21.6455	60	51
21.5807	21.6455	74	58
21.5807	21.6455	77	66
21.7102	21.7774	58	60
21.7102	21.7774	70	67
21.7102	21.7774	82	78
21.8445	21.9084	64	59
21.8445	21.9084	67	59
21.8445	21.9084	76	66
21.8445	21.9084	79	76
21.9723	22.0362	62	53
21.9723	22.0362	76	60
21.9723	22.0362	79	69
22.1001	22.1655	60	61
22.1001	22.1655	72	69
22.1001	22.1655	84	80
22.2308	22.2962	53	56
22.2308	22.2962	72	62
22.2308	22.2962	81	73
22.3615	22.4268	65	50
22.3615	22.4268	72	57
22.3615	22.4268	81	68
22.4922	22.5587	55	49
22.4922	22.5587	70	55
22.4922	22.5587	76	65
22.6252	22.6891	57	52
22.6252	22.6891	72	57
22.6252	22.6891	77	68
22.753	22.819	67	48
22.753	22.819	70	53
22.753	22.819	73	63
22.8849	22.9508	65	47
22.8849	22.9508	69	51
22.8849	22.9508	75	61
23.0168	23.0804	63	49
23.0168	23.0804	66	54
23.0168	23.0804	69	64
23.144	23.2094	62	44
23.144	23.2094	65	51
23.144	23.2094	70	60
23.2747	23.34	60	43
23.2747	23.34	63	49
23.2747	23.34	66	58
23.4054	23.4682	58	45
23.4054	23.4682	62	50
23.4054	23.4682	67	59
23.5309	23.5963	57	40
23.5309	23.5963	58	46
23.5309	23.5963	62	46
23.6616	23.7269	56	39
23.6616	23.7269	59	45
23.6616	23.7269	65	54
23.7923	23.8562	48	36
23.7923	23.8562	55	43
23.7923	23.8562	58	39
23.7923	23.8562	64	46
23.9201	23.9857	58	38
23.9201	23.9857	64	45
24.0514	24.117	65	41
24.0514	24.117	70	41
24.0514	24.117	74	49
24.1826	24.2463	64	41
24.1826	24.2463	67	49
24.3099	24.3758	64	38
24.3099	24.3758	67	45
24.4418	24.5077	77	45
24.4418	24.5077	82	45
24.4418	24.5077	86	54
24.5736	24.6378	76	39
24.5736	24.6378	79	47
24.702	24.7728	76	35
24.702	24.7728	79	42
24.8435	24.9125	48	60
24.8435	24.9125	72	60
24.8435	24.9125	84	73
24.9816	25.052	41	67
24.9816	25.052	53	79
24.9816	25.052	77	71
24.9816	25.052	81	71
24.9816	25.052	89	85
25.4041	25.468	57	46
25.4041	25.468	60	51
25.4041	25.468	65	61
25.5319	25.5979	41	43
25.5319	25.5979	53	56
25.6638	25.7311	57	42
25.6638	25.7311	60	45
25.6638	25.7311	65	54
25.7983	25.8622	58	46
25.7983	25.8622	61	51
25.7983	25.8622	66	61
25.9262	25.9921	58	43
25.9262	25.9921	61	56
26.058	26.1239	58	42
26.058	26.1239	61	45
26.058	26.1239	66	54
26.1899	26.2538	54	46
26.1899	26.2538	58	51
26.1899	26.2538	63	61
26.3177	26.3826	54	43
26.3177	26.3826	58	56
26.4476	26.5125	54	42
26.4476	26.5125	58	45
26.4476	26.5125	63	54
26.5774	26.6414	51	46
26.5774	26.6414	54	51
26.5774	26.6414	60	61
26.7053	26.7712	51	43
26.7053	26.7712	54	56
26.8371	26.906	51	42
26.8371	26.906	54	45
26.8371	26.906	60	54
26.9748	27.0387	53	51
26.9748	27.0387	57	61
27.1026	27.1685	41	43
27.1026	27.1685	48	56
27.2345	27.3004	53	45
27.2345	27.3004	57	54
27.3663	27.4302	53	46
27.3663	27.4302	55	51
27.3663	27.4302	58	61
27.4941	27.5601	41	43
27.4941	27.5601	49	56
27.626	27.6919	53	42
27.626	27.6919	55	45
27.626	27.6919	58	54
27.7579	27.8218	53	46
27.7579	27.8218	56	51
27.7579	27.8218	59	61
27.8857	27.9521	41	43
27.8857	27.9521	50	56
28.0184	28.0848	53	42
28.0184	28.0848	56	45
28.0184	28.0848	59	54
28.1512	28.2151	53	46
28.1512	28.2151	57	51
28.1512	28.2151	60	61
28.279	28.3454	41	43
28.279	28.3454	51	56
28.4118	28.486	53	42
28.4118	28.486	57	45
28.4118	28.486	60	54
28.5603	28.6242	57	46
28.5603	28.6242	60	51
28.5603	28.6242	65	61
28.6881	28.754	41	43
28.6881	28.754	53	56
28.82	28.8872	57	42
28.82	28.8872	60	45
28.82	28.8872	65	54
28.9545	29.0184	58	46
28.9545	29.0184	61	51
28.9545	29.0184	68	61
29.0823	29.1483	58	43
29.0823	29.1483	61	56
29.2142	29.2801	58	42
29.2142	29.2801	61	45
29.2142	29.2801	66	54
29.3461	29.41	54	46
29.3461	29.41	58	51
29.3461	29.41	63	61
29.4739	29.5388	54	43
29.4739	29.5388	58	56
29.6038	29.6687	54	42
29.6038	29.6687	58	45
29.6038	29.6687	63	54
29.7336	29.7976	51	46
29.7336	29.7976	54	51
29.7336	29.7976	60	61
29.8615	29.9274	51	43
29.8615	29.9274	54	56
29.9933	30.0621	51	42
29.9933	30.0621	54	45
29.9933	30.0621	60	54
30.1309	30.1949	53	51
30.1309	30.1949	57	61
30.2588	30.3247	41	43
30.2588	30.3247	48	56
30.3906	30.4566	53	46
30.3906	30.4566	57	55
30.5225	30.5864	54	53
30.5225	30.5864	58	64
30.6503	30.7163	40	45
30.6503	30.7163	48	59
30.7822	30.8481	54	48
30.7822	30.8481	58	58
30.914	30.9793	55	56
30.914	30.9793	59	67
31.0445	31.1139	39	47
31.0445	31.1139	49	62
31.1834	31.2528	55	50
31.1834	31.2528	59	61
31.3223	31.3883	54	52
31.3223	31.3883	56	58
31.3223	31.3883	60	70
31.4544	31.5223	32	49
31.4544	31.5223	44	64
31.5902	31.6612	48	49
31.5902	31.6612	54	49
31.5902	31.6612	56	53
31.5902	31.6612	60	63
31.7323	31.7963	59	55
31.7323	31.7963	65	61
31.7323	31.7963	68	73
31.8602	31.9261	37	51
31.8602	31.9261	49	67
31.992	32.0593	59	50
31.992	32.0593	65	54
31.992	32.0593	68	64
32.1266	32.1905	59	55
32.1266	32.1905	66	61
32.1266	32.1905	70	73
32.2544	32.3203	63	51
32.2544	32.3203	66	67
32.3863	32.4522	59	50
32.3863	32.4522	66	54
32.3863	32.4522	70	64
32.5181	32.582	59	55
32.5181	32.582	65	61
32.5181	32.582	68	73
32.646	32.7123	56	51
32.646	32.7123	61	67
32.7787	32.8451	59	50
32.7787	32.8451	65	54
32.7787	32.8451	68	64
32.9114	32.9754	59	61
32.9114	32.9754	65	73
33.0393	33.1052	53	51
33.0393	33.1052	61	67
33.1711	33.2399	59	54
33.1711	33.2399	65	64
33.3088	33.3727	53	61
33.3088	33.3727	59	61
33.3088	33.3727	61	73
33.4366	33.5035	37	51
33.4366	33.5035	49	67
33.5705	33.6375	53	54
33.5705	33.6375	59	54
33.5705	33.6375	61	64
33.7044	33.7697	59	61
33.7044	33.7697	63	73
33.8349	33.9031	49	51
33.8349	33.9031	54	67
33.9712	34.0394	59	54
33.9712	34.0394	63	64
34.1076	34.1728	55	55
34.1076	34.1728	59	61
34.1076	34.1728	64	73
34.238	34.3078	37	51
34.238	34.3078	49	67
34.3782	34.4486	55	50
34.3782	34.4486	59	54
34.3782	34.4486	64	64
34.519	34.5848	59	55
34.519	34.5848	61	61
34.519	34.5848	65	73
34.6506	34.7204	49	51
34.6506	34.7204	56	67
34.7902	34.8599	59	50
34.7902	34.8599	61	54
34.7902	34.8599	65	64
34.9297	34.9946	59	55
34.9297	34.9946	65	61
34.9297	34.9946	68	73
35.0596	35.1271	37	51
35.0596	35.1271	49	67
35.1947	35.2749	59	50
35.1947	35.2749	65	54
35.1947	35.2749	68	64
35.3551	35.4201	63	60
35.3551	35.4201	66	67
35.3551	35.4201	73	80
35.485	35.5529	63	51
35.485	35.5529	66	67
35.6207	35.6915	63	50
35.6207	35.6915	66	54
35.6207	35.6915	71	64
35.7623	35.8278	59	55
35.7623	35.8278	63	61
35.7623	35.8278	68	73
35.8933	35.9617	59	51
35.8933	35.9617	63	67
36.0302	36.0987	59	50
36.0302	36.0987	63	54
36.0302	36.0987	68	64
36.1672	36.2327	56	61
36.1672	36.2327	59	61
36.1672	36.2327	65	73
36.2982	36.3661	56	51
36.2982	36.3661	59	67
36.434	36.5041	56	54
36.434	36.5041	59	54
36.434	36.5041	65	64
36.5742	36.6412	53	61
36.5742	36.6412	59	61
36.5742	36.6412	61	73
36.7081	36.7779	37	51
36.7081	36.7779	49	66
36.8477	36.9174	53	52
36.8477	36.9174	59	52
36.8477	36.9174	61	63
36.9872	37.0548	59	58
36.9872	37.0548	63	70
37.1223	37.1951	49	49
37.1223	37.1951	54	63
37.268	37.3408	59	50
37.268	37.3408	63	60
37.4136	37.4831	55	50
37.4136	37.4831	58	56
37.4136	37.4831	60	56
37.4136	37.4831	64	67
37.5525	37.6267	36	46
37.5525	37.6267	48	61
37.701	37.7753	55	44
37.701	37.7753	58	48
37.701	37.7753	60	48
37.701	37.7753	64	57
37.8495	37.9216	57	48
37.8495	37.9216	60	53
37.8495	37.9216	65	64
37.9937	38.0715	41	44
37.9937	38.0715	53	58
38.1492	38.2349	57	42
38.1492	38.2349	60	45
38.1492	38.2349	65	55
38.3206	38.723	53	54
38.3206	38.723	65	50
38.3206	38.723	77	59
38.4528	38.723	60	40
38.4528	38.5804	69	45
38.4528	38.5804	72	54
38.5166	38.723	62	46
38.5804	38.723	63	52
38.5804	38.723	69	45
38.5804	38.723	72	54
38.7155	38.7942	48	54
38.7155	38.7942	67	50
38.7155	38.7942	79	59
38.8432	38.9076	63	44
38.8432	38.9076	70	45
38.8432	38.9076	75	54
38.9076	38.9719	65	49
38.9719	39.0434	67	53
38.9719	39.0434	70	45
38.9719	39.0434	75	54
39.1148	39.5145	53	54
39.1148	39.5145	65	50
39.1148	39.5145	77	59
39.2458	39.5145	60	46
39.2458	39.3745	69	45
39.2458	39.3745	72	54
39.3102	39.5145	62	50
39.3745	39.5145	63	53
39.3745	39.5145	69	45
39.3745	39.5145	72	54
39.5103	39.6113	48	54
39.5103	39.6113	67	50
39.5103	39.6113	79	59
39.6379	39.7037	63	44
39.6379	39.7037	70	45
39.6379	39.7037	75	54
39.7037	39.7695	65	46
39.7695	39.8399	67	49
39.7695	39.8399	70	45
39.7695	39.8399	75	54
39.9103	40.2758	53	54
39.9103	40.2758	65	50
39.9103	40.2758	77	59
40.0413	40.2758	60	48
40.0413	40.1729	69	45
40.0413	40.1729	72	55
40.1071	40.2758	62	52
40.1729	40.2758	63	56
40.1729	40.2758	69	46
40.1729	40.2758	72	56
40.3087	40.6862	69	53
40.3087	40.6862	81	62
40.4426	40.6862	63	54
40.4426	40.5783	72	48
40.4426	40.5783	75	58
40.5105	40.6862	65	58
40.5783	40.6862	67	61
40.5783	40.6862	72	50
40.5783	40.6862	75	60
40.7205	41.1034	72	58
40.7205	41.1034	84	68
40.8568	41.1034	67	61
40.8568	40.9977	75	53
40.8568	40.9977	79	64
40.9273	41.1034	69	65
40.9977	41.1034	70	69
40.9977	41.1034	75	55
40.9977	41.1034	79	67
41.1419	41.4543	73	64
41.1419	41.4543	85	75
41.2814	41.4543	65	62
41.2814	41.4257	75	53
41.2814	41.4257	81	64
41.3535	41.4543	67	66
41.4257	41.5003	69	70
41.4257	41.5003	75	55
41.4257	41.5003	81	67
41.5749	41.9688	58	60
41.5749	41.9688	74	62
41.5749	41.9688	86	62
41.7025	41.9688	65	49
41.7025	41.8318	77	45
41.7025	41.8318	80	54
41.7672	41.9688	67	52
41.8318	41.9688	68	55
41.8318	41.9688	77	45
41.8318	41.9688	80	54
41.9688	42.0688	53	58
41.9688	42.0688	75	65
41.9688	42.0688	87	65
42.0965	42.1623	68	49
42.0965	42.1623	80	45
42.0965	42.1623	84	54
42.1623	42.2281	70	52
42.2281	42.2959	72	55
42.2281	42.2959	80	45
42.2281	42.2959	84	54
42.3638	42.7649	58	63
42.3638	42.7649	74	64
42.3638	42.7649	86	64
42.4914	42.7649	65	51
42.4914	42.6207	77	45
42.4914	42.6207	80	54
42.5561	42.7649	67	52
42.6207	42.7649	68	54
42.6207	42.7649	77	45
42.6207	42.7649	80	54
42.7565	42.8777	53	61
42.7565	42.8777	75	64
42.7565	42.8777	87	64
42.8841	42.9499	68	49
42.8841	42.9499	80	45
42.8841	42.9499	84	54
42.9499	43.0157	70	53
43.0157	43.0861	72	56
43.0157	43.0861	80	45
43.0157	43.0861	84	54
43.1565	43.5649	58	64
43.1565	43.4191	74	65
43.1565	43.5649	86	65
43.2875	43.5649	68	49
43.2875	43.4191	80	45
43.2875	43.4191	82	55
43.3533	43.5649	70	52
43.4191	43.5649	74	54
43.4191	43.5649	80	46
43.4191	43.5649	82	56
43.5549	43.9792	60	66
43.5549	43.8245	75	66
43.5549	43.9792	87	66
43.6888	43.9792	68	51
43.6888	43.8245	80	48
43.6888	43.8245	82	58
43.7566	43.9792	70	55
43.8245	43.9792	75	60
43.8245	43.9792	80	50
43.8245	43.9792	82	60
43.9667	44.3974	61	69
43.9667	44.2439	76	72
43.9667	44.3974	88	72
44.103	44.3974	68	55
44.103	44.2439	80	53
44.103	44.2439	82	64
44.1734	44.3974	70	60
44.2439	44.3974	76	65
44.2439	44.3974	80	55
44.2439	44.3974	82	67
44.3881	44.7659	62	71
44.3881	44.6718	77	64
44.3881	44.7659	89	75
44.5276	44.7659	68	58
44.5276	44.6718	80	53
44.5276	44.6718	82	64
44.5997	44.7659	70	61
44.6718	44.7659	77	63
44.6718	44.7659	80	55
44.6718	44.7659	82	67
44.8265	45.2434	63	35
44.8265	45.2434	79	49
44.8265	45.2434	91	57
44.9604	45.2434	71	30
44.9604	45.092	83	44
44.9604	45.092	86	52
45.0262	45.2328	72	30
45.092	45.2434	74	33
45.092	45.2434	83	44
45.092	45.2434	86	52
45.2328	45.6475	72	35
45.2328	45.6475	84	49
45.2328	45.6475	96	57
45.3668	45.6475	75	30
45.3668	45.4984	87	44
45.3668	45.4984	91	52
45.4326	45.6475	77	30
45.4984	45.6386	79	33
45.4984	45.6475	87	44
45.4984	45.6386	91	52
45.6386	46.0526	63	35
45.6386	46.0526	79	49
45.6386	46.0526	91	57
45.7725	46.0526	71	30
45.7725	45.9041	83	44
45.7725	45.9041	86	52
45.8383	46.0436	72	30
45.9041	46.0526	74	33
45.9041	46.0526	83	44
45.9041	46.0526	86	52
46.0436	46.4713	72	35
46.0436	46.4713	84	49
46.0436	46.4713	96	57
46.1775	46.4713	75	30
46.1775	46.3091	87	44
46.1775	46.3091	91	52
46.2433	46.4713	77	30
46.3091	46.4713	79	33
46.3091	46.4713	87	44
46.3091	46.4713	91	52
46.4559	47.3009	63	45
46.4559	48.0132	78	44
46.5273	46.8818	79	46
46.5986	47.162	71	39
46.5986	48.0132	80	47
46.6697	48.0132	81	48
46.7406	47.0223	74	40
46.7406	48.0132	82	49
46.8113	48.0132	83	50
46.8818	47.7138	79	46
46.8818	48.0079	84	52
46.9522	48.0132	85	54
47.0223	48.0132	74	41
47.0223	48.0132	86	54
47.0922	47.9297	87	55
47.162	48.0132	71	41
47.162	48.0132	88	55
47.2315	48.0132	89	56
47.3009	48.0132	63	47
47.3009	48.0132	90	56
47.3697	47.8548	91	57
47.4385	48.0132	72	40
47.4385	48.0132	92	58
47.5073	48.0132	93	58
47.5761	48.0132	75	41
47.5761	48.0132	94	59
47.6449	48.0132	95	59
47.7138	48.0888	79	47
47.7138	48.0132	98	60
47.7829	48.0132	96	55
47.8548	48.0132	91	51
47.9297	48.0132	87	47
48.0079	48.0888	84	43
48.2108	48.6277	63	35
48.2108	48.6277	77	42
48.2108	48.6277	89	51
48.3447	48.6277	69	30
48.3447	48.4763	81	41
48.3447	48.4763	84	50
48.4105	48.6277	70	30
48.4763	48.6171	72	33
48.4763	48.6277	81	41
48.4763	48.6171	84	50
48.6171	48.6966	72	35
48.6171	48.6966	84	47
48.6171	48.6966	96	55
48.7511	48.8169	75	30
48.7511	48.8169	87	41
48.7511	48.8169	90	50
48.8169	48.8827	77	30
48.8827	48.9528	78	33
48.8827	48.9528	87	41
48.8827	48.9528	90	50
49.0229	49.4368	63	35
49.0229	49.4368	77	47
49.0229	49.4368	89	55
49.1568	49.4368	69	30
49.1568	49.2884	81	41
49.1568	49.2884	84	50
49.2226	49.4368	70	30
49.2884	49.4279	72	33
49.2884	49.4368	81	41
49.2884	49.4279	84	50
49.4279	49.5239	72	35
49.4279	49.5239	84	47
49.4279	49.5239	96	55
49.5618	49.6276	75	30
49.5618	49.6276	87	41
49.5618	49.6276	90	50
49.6276	49.6934	77	30
49.6934	49.7669	78	33
49.6934	49.7669	87	41
49.6934	49.7669	90	50
49.8401	51.3975	63	45
49.8401	51.3975	76	46
49.9116	50.2661	77	47
49.9829	50.5463	69	39
49.9829	51.3975	78	48
50.054	51.3975	79	49
50.1248	50.4065	72	40
50.1248	51.3975	80	50
50.1956	51.3975	81	51
50.2661	51.098	77	46
50.2661	51.3922	82	52
50.3364	51.3975	83	53
50.4065	51.3975	72	41
50.4065	51.3975	84	54
50.4765	51.3975	85	55
50.5463	51.3975	69	41
50.5463	51.314	86	55
50.6158	51.3975	87	56
50.6852	51.3975	62	47
50.6852	51.3975	88	57
50.754	51.2391	89	57
50.8228	51.3975	70	40
50.8228	51.3975	90	58
50.8916	51.3975	91	58
50.9604	51.3975	74	41
50.9604	51.3975	92	59
51.0292	51.3975	93	59
51.098	51.4731	77	47
51.098	51.3975	96	60
51.1672	51.3975	94	55
51.2391	51.3975	89	51
51.314	51.3975	86	47
51.3922	51.4731	82	43
51.6216	52.0325	60	38
51.6216	52.0325	74	39
51.6216	52.0325	86	47
51.7567	52.0325	66	33
51.7567	51.8883	78	38
51.7567	51.8883	81	46
51.8225	52.0325	67	33
51.8883	52.0325	69	36
51.8883	52.0325	78	38
51.8883	52.0325	81	46
52.0229	52.1361	58	38
52.0229	52.1361	79	43
52.0229	52.1361	91	50
52.1511	52.2169	67	33
52.1511	52.2169	82	38
52.1511	52.2169	86	46
52.2169	52.2827	70	33
52.2827	52.3528	74	36
52.2827	52.3528	82	38
52.2827	52.3528	86	46
52.4229	52.8285	58	38
52.4229	52.8285	72	39
52.4229	52.8285	84	47
52.5522	52.8285	64	33
52.5522	52.6838	76	38
52.5522	52.6838	79	46
52.618	52.8285	65	33
52.6838	52.8285	67	36
52.6838	52.8285	76	38
52.6838	52.8285	79	46
52.8189	52.9279	57	38
52.8189	52.9279	77	43
52.8189	52.9279	89	50
52.9471	53.0129	65	33
52.9471	53.0129	81	38
52.9471	53.0129	84	46
53.0129	53.0787	69	33
53.0787	53.1488	72	36
53.0787	53.1488	81	38
53.0787	53.1488	84	46
53.2189	53.624	60	38
53.2189	53.624	74	39
53.2189	53.624	86	47
53.3482	53.624	66	33
53.3482	53.4798	78	38
53.3482	53.4798	81	46
53.414	53.624	67	33
53.4798	53.624	69	36
53.4798	53.624	78	38
53.4798	53.624	81	46
53.6143	53.7425	58	38
53.6143	53.7425	79	43
53.6143	53.7425	91	50
53.7425	53.8083	67	33
53.7425	53.8083	82	38
53.7425	53.8083	86	46
53.8083	53.8741	70	33
53.8741	53.9442	74	36
53.8741	53.9442	82	38
53.8741	53.9442	86	46
54.0143	54.4194	58	38
54.0143	54.4194	72	39
54.0143	54.4194	84	47
54.1436	54.4194	64	33
54.1436	54.2752	76	38
54.1436	54.2752	79	46
54.2094	54.4194	65	33
54.2752	54.4194	67	36
54.2752	54.4194	76	38
54.2752	54.4194	79	46
54.4098	54.5457	57	38
54.4098	54.5457	77	43
54.4098	54.5457	89	50
54.538	54.6038	65	33
54.538	54.6038	81	38
54.538	54.6038	84	46
54.6038	54.6696	69	33
54.6696	54.7469	72	36
54.6696	54.7469	81	38
54.6696	54.7469	84	46
54.8242	55.2254	60	59
54.8242	55.2364	82	68
54.8242	55.2364	90	78
54.9569	55.2364	66	40
54.9569	55.0909	78	53
54.9569	55.0909	87	53
55.0239	55.2364	70	41
55.0909	55.2364	75	47
55.0909	55.2364	78	53
55.0909	55.2364	87	53
55.2254	55.3575	60	56
55.2254	55.3575	81	62
55.2254	55.3575	89	71
55.3575	55.4251	65	48
55.3575	55.4251	77	55
55.3575	55.4251	87	55
55.4251	55.4927	69	48
55.4927	55.5651	75	50
55.4927	55.5651	77	53
55.4927	55.5651	87	53
55.6376	56.0394	60	64
55.6376	56.0504	82	77
55.6376	56.0504	90	86
55.7703	56.0504	66	51
55.7703	55.9049	78	59
55.7703	55.9049	87	59
55.8376	56.0504	70	51
55.9049	56.0504	75	55
55.9049	56.0504	78	61
55.9049	56.0504	87	61
56.0394	56.1666	60	61
56.0394	56.1666	81	68
56.0394	56.1666	89	78
56.171	56.2383	65	51
56.171	56.2383	77	61
56.171	56.2383	87	61
56.2383	56.3055	69	51
56.3055	56.3773	75	57
56.3055	56.3773	77	59
56.3055	56.3773	87	59
56.4491	56.5164	60	58
56.4491	56.5164	70	69
56.4491	56.5164	82	67
56.4491	56.5164	90	79
56.5836	56.6534	66	51
56.5836	56.6534	75	60
56.5836	56.6534	78	60
56.5836	56.6534	87	72
56.7232	56.7904	60	58
56.7232	56.7904	70	69
56.7232	56.7904	82	71
56.7232	56.7904	90	85
56.8577	56.9278	66	49
56.8577	56.9278	75	58
56.8577	56.9278	78	77
56.8577	56.9278	87	77
56.9979	57.0664	60	58
56.9979	57.0664	70	70
56.9979	57.0664	82	63
56.9979	57.0664	90	88
57.1349	57.2091	66	50
57.1349	57.2091	75	59
57.1349	57.2091	78	67
57.1349	57.2091	87	81
57.2834	57.3535	61	60
57.2834	57.3535	70	71
57.2834	57.3535	82	73
57.2834	57.3535	90	86
57.4236	57.4971	66	53
57.4236	57.4971	76	63
57.4236	57.4971	78	68
57.4236	57.4971	88	80
57.5707	57.6411	61	59
57.5707	57.6411	70	70
57.5707	57.6411	82	73
57.5707	57.6411	90	86
57.7115	57.788	66	52
57.7115	57.788	78	65
57.7115	57.788	88	77
57.7128	57.7893	76	62
57.8646	57.9374	61	59
57.8646	57.9374	70	70
57.8646	57.9374	82	72
57.8646	57.9374	90	85
58.0102	58.0887	66	56
58.0102	58.0887	76	67
58.0102	58.0887	78	63
58.0102	58.0887	88	75
58.1673	58.4403	53	65
58.1673	58.4403	60	65
58.1673	58.4403	63	65
58.1673	58.4403	69	77
58.1673	58.2403	87	91
58.2403	58.307	91	66
58.307	58.3737	87	60
58.3737	58.4403	86	55
58.4403	58.507	84	48
58.507	58.5764	82	47
58.5764	58.6437	81	53
58.6437	58.7089	84	48
58.7089	58.7741	81	50
58.7741	58.8394	79	50
58.8394	58.9046	77	49
58.9046	58.9757	76	48
58.9757	59.0429	75	53
59.0429	59.1079	79	48
59.1079	59.1728	75	49
59.1728	59.2378	74	49
59.2378	59.3027	72	48
59.3027	59.3728	70	47
59.3728	59.4407	69	55
59.4407	59.5059	72	50
59.5059	59.5711	69	52
59.5711	59.6363	67	52
59.6363	59.7015	65	51
59.7015	59.7713	64	50
59.7713	59.8392	63	57
59.8392	59.9044	67	52
59.9044	59.9696	63	53
59.9696	60.0348	62	53
60.0348	60.1	60	53
60.1	60.1701	58	52
60.1701	60.238	57	61
60.238	60.3032	60	56
60.3032	60.3685	57	59
60.3685	60.4337	55	59
60.4337	60.4989	53	58
60.4989	60.5687	52	58
60.5687	60.6365	51	66
60.6365	60.7017	55	59
60.7017	60.767	51	63
60.767	60.8322	50	64
60.8322	60.8974	48	64
60.8974	60.9662	46	64
60.9662	61.0332	45	75
61.0332	61.0988	48	67
61.0988	61.1663	45	68
61.1663	61.2359	43	66
61.2359	61.3077	41	69
61.3077	61.3945	40	72
61.3945	64.5562	41	77
61.4606	61.5267	42	54
61.5267	61.5925	43	54
61.5925	61.6583	44	54
61.6583	61.7241	45	55
61.7241	61.7896	46	55
61.7896	61.8551	47	56
61.8551	61.9203	48	56
61.9203	61.9856	49	56
61.9856	62.0507	50	57
62.0507	62.1156	51	57
62.1156	62.1806	52	58
62.1806	62.2452	53	58
62.2452	62.3099	54	59
62.3099	62.3747	55	59
62.3747	62.4397	56	59
62.4397	62.5048	57	60
62.5048	62.5701	58	60
62.5701	62.6355	59	61
62.6355	62.701	60	61
62.701	62.7668	61	61
62.7668	62.8326	62	62
62.8326	62.8986	63	62
62.8986	62.9647	64	63
62.9647	64.5562	48	60
62.9647	64.5562	51	60
62.9647	64.5562	57	60
62.9647	63.031	65	65
63.031	63.1042	66	68
63.1042	63.1701	60	58
63.1701	63.2362	61	58
63.2362	63.3023	62	59
63.3023	63.3683	63	60
63.3683	63.4342	64	60
63.4342	63.5	65	61
63.5	63.5658	66	62
63.5658	63.6315	67	62
63.6315	63.6971	68	63
63.6971	63.7626	69	63
63.7626	63.8281	70	64
63.8281	63.8936	71	65
63.8936	63.9589	72	65
63.9589	64.0241	73	66
64.0241	64.0893	74	67
64.0893	64.1545	75	67
64.1545	64.2196	76	68
64.2196	64.2853	77	69
64.2853	64.3518	78	69
64.3518	64.4191	79	70
64.4191	64.4872	80	71
64.4872	64.5562	81	71
64.5562	64.6257	46	64
64.5562	64.6257	53	64
64.5562	64.6257	58	64
64.5562	64.6257	62	64
64.5562	64.6257	82	81
64.6951	64.7595	82	57
64.8238	64.8888	77	51
64.9537	65.0162	79	60
65.0787	65.1425	79	57
65.2064	65.2719	74	50
65.3374	65.4009	75	60
65.4645	65.5294	75	55
65.5943	65.6593	70	55
65.7242	65.788	72	60
65.8519	65.9171	72	54
65.9823	66.0469	67	54
66.1115	66.1759	69	60
66.1759	66.24	65	51
66.24	66.3039	67	53
66.3039	66.3676	69	56
66.3676	66.4311	70	58
66.4311	66.4944	72	60
66.4944	66.557	74	63
66.557	66.6193	69	53
66.6193	66.6814	70	56
66.6814	66.7433	72	58
66.7433	66.805	74	61
66.805	66.8665	75	64
66.8665	66.9277	77	66
66.9277	66.9889	74	57
66.9889	67.0501	75	60
67.0501	67.1114	77	62
67.1114	67.1726	79	65
67.1726	67.2338	81	67
67.2338	67.2953	82	70
67.2953	67.3573	77	65
67.3573	67.4201	79	67
67.4201	67.4834	81	69
67.4834	67.5482	82	71
67.5482	67.6147	84	73
67.6147	67.6772	86	83
67.7397	67.8035	86	57
67.8674	67.9323	81	51
67.9972	68.0597	82	60
68.1222	68.1853	82	57
68.2483	68.3135	77	50
68.3787	68.442	79	60
68.5053	68.5694	79	55
68.6335	68.699	74	55
68.7645	68.8283	76	60
68.8922	68.956	76	54
69.0198	69.0847	71	54
69.1497	69.2155	73	60
69.2155	69.2811	69	51
69.2811	69.3464	71	53
69.3464	69.4116	73	56
69.4116	69.4764	74	58
69.4764	69.5411	76	60
69.5411	69.6055	77	63
69.6055	69.6697	73	53
69.6697	69.7336	74	56
69.7336	69.7974	76	58
69.7974	69.8609	77	61
69.8609	69.9242	79	64
69.9242	69.9872	81	66
69.9872	70.0502	76	57
70.0502	70.1133	77	60
70.1133	70.1763	79	62
70.1763	70.2393	81	65
70.2393	70.3024	83	67
70.3024	70.3655	85	70
70.3655	70.4292	81	65
70.4292	70.4933	83	67
70.4933	70.5579	85	69
70.5579	70.6234	86	71
70.6234	70.7026	88	73
70.7026	70.774	41	54
70.7026	70.774	53	60
70.7026	70.774	81	69
70.7026	70.774	89	80
70.8454	70.9148	55	51
70.8454	70.9148	81	57
70.8454	70.9148	89	65
70.9843	71.0519	57	45
70.9843	71.0519	77	51
70.9843	71.0519	84	58
71.1194	71.1841	46	54
71.1194	71.1841	58	54
71.1194	71.1841	77	60
71.1194	71.1841	86	69
71.2487	71.3142	57	51
71.2487	71.3142	77	57
71.2487	71.3142	86	65
71.3797	71.447	55	45
71.3797	71.447	74	50
71.3797	71.447	82	57
71.5143	71.5778	48	54
71.5143	71.5778	60	54
71.5143	71.5778	76	60
71.5143	71.5778	79	69
71.6413	71.7068	62	49
71.6413	71.7068	76	55
71.6413	71.7068	79	63
71.7723	71.8378	64	49
71.7723	71.8378	72	55
71.7723	71.8378	84	63
71.9033	71.9671	53	54
71.9033	71.9671	65	54
71.9033	71.9671	72	60
71.9033	71.9671	81	69
72.031	72.0962	55	48
72.031	72.0962	72	54
72.031	72.0962	81	62
72.1614	72.2266	57	48
72.1614	72.2266	72	54
72.1614	72.2266	77	62
72.2918	72.3549	55	54
72.2918	72.3549	58	54
72.2918	72.3549	70	60
72.2918	72.3549	74	69
72.418	72.4822	57	48
72.418	72.4822	70	54
72.418	72.4822	74	62
72.5464	72.6133	55	56
72.5464	72.6133	67	62
72.5464	72.6133	79	72
72.6801	72.7437	60	55
72.6801	72.7437	64	55
72.6801	72.7437	72	61
72.6801	72.7437	76	71
72.8074	72.8718	58	50
72.8074	72.8718	72	56
72.8074	72.8718	76	65
72.9363	73.0031	57	58
72.9363	73.0031	69	64
72.9363	73.0031	81	74
73.07	73.1339	62	57
73.07	73.1339	65	57
73.07	73.1339	74	64
73.07	73.1339	77	73
73.1978	73.2626	60	51
73.1978	73.2626	74	58
73.1978	73.2626	77	66
73.3273	73.3944	58	60
73.3273	73.3944	70	67
73.3273	73.3944	82	78
73.4616	73.5255	64	59
73.4616	73.5255	67	59
73.4616	73.5255	76	66
73.4616	73.5255	79	76
73.5894	73.6533	62	53
73.5894	73.6533	76	60
73.5894	73.6533	79	69
73.7172	73.7826	60	61
73.7172	73.7826	72	69
73.7172	73.7826	84	80
73.8479	73.9133	53	56
73.8479	73.9133	72	62
73.8479	73.9133	81	73
73.9786	74.0439	65	50
73.9786	74.0439	72	57
73.9786	74.0439	81	68
74.1093	74.1758	55	49
74.1093	74.1758	70	55
74.1093	74.1758	76	65
74.2423	74.3062	57	52
74.2423	74.3062	72	57
74.2423	74.3062	77	68
74.3701	74.4345	67	48
74.3701	74.4345	70	53
74.3701	74.4345	73	63
74.4989	74.5647	65	47
74.4989	74.5647	69	51
74.4989	74.5647	75	61
74.6305	74.6941	63	49
74.6305	74.6941	66	54
74.6305	74.6941	69	64
74.7577	74.8231	62	44
74.7577	74.8231	65	51
74.7577	74.8231	70	60
74.8884	74.9538	60	43
74.8884	74.9538	63	49
74.8884	74.9538	66	58
75.0191	75.0827	58	45
75.0191	75.0827	62	50
75.0191	75.0827	67	59
75.1464	75.2117	57	40
75.1464	75.2117	58	46
75.1464	75.2117	62	46
75.277	75.3437	56	39
75.277	75.3437	59	45
75.277	75.3437	65	54
75.4104	75.4743	48	36
75.4104	75.4743	55	43
75.4104	75.4743	58	39
75.4104	75.4743	64	46
75.5382	75.6039	58	38
75.5382	75.6039	64	45
75.6695	75.7351	65	41
75.6695	75.7351	70	41
75.6695	75.7351	74	49
75.8008	75.8644	64	41
75.8008	75.8644	67	49
75.928	75.9924	64	38
75.928	75.9924	67	45
76.0568	76.1223	77	45
76.0568	76.1223	82	45
76.0568	76.1223	86	54
76.1881	76.2523	76	39
76.1881	76.2523	79	47
76.3165	76.3873	76	35
76.3165	76.3873	79	42
76.458	76.527	48	60
76.458	76.527	72	60
76.458	76.527	84	73
76.5961	76.6665	41	67
76.5961	76.6665	53	79
76.5961	76.6665	77	71
76.5961	76.6665	81	71
76.5961	76.6665	89	85
77.0186	77.0826	57	46
77.0186	77.0826	60	51
77.0186	77.0826	65	61
77.1465	77.2124	41	43
77.1465	77.2124	53	56
77.2783	77.3456	57	42
77.2783	77.3456	60	45
77.2783	77.3456	65	54
77.4129	77.4768	58	46
77.4129	77.4768	61	51
77.4129	77.4768	66	61
77.5407	77.6066	58	43
77.5407	77.6066	61	56
77.6726	77.7385	58	42
77.6726	77.7385	61	45
77.6726	77.7385	66	54
77.8044	77.8684	54	46
77.8044	77.8684	58	51
77.8044	77.8684	63	61
77.9323	77.9972	54	43
77.9323	77.9972	58	56
78.0621	78.1271	54	42
78.0621	78.1271	58	45
78.0621	78.1271	63	54
78.192	78.2559	51	46
78.192	78.2559	54	51
78.192	78.2559	60	61
78.3199	78.3857	51	43
78.3199	78.3857	54	56
78.4517	78.5204	51	42
78.4517	78.5204	54	45
78.4517	78.5204	60	54
78.5892	78.6532	53	51
78.5892	78.6532	57	61
78.7172	78.7815	41	43
78.7172	78.7815	48	56
78.8459	78.9117	53	45
78.8459	78.9117	57	54
78.9775	79.0414	53	46
78.9775	79.0414	55	51
78.9775	79.0414	58	61
79.1054	79.1712	41	43
79.1054	79.1712	49	56
79.2372	79.3031	53	42
79.2372	79.3031	55	45
79.2372	79.3031	58	54
79.369	79.433	53	46
79.369	79.433	56	51
79.369	79.433	59	61
79.4969	79.5632	41	43
79.4969	79.5632	50	56
79.6296	79.696	53	42
79.6296	79.696	56	45
79.6296	79.696	59	54
79.7623	79.8263	53	46
79.7623	79.8263	57	51
79.7623	79.8263	60	61
79.8902	79.9565	41	43
79.8902	79.9565	51	56
80.0229	80.097	53	42
80.0229	80.097	57	45
80.0229	80.097	60	54
80.1713	80.2354	57	46
80.1713	80.2354	60	51
80.1713	80.2354	65	61
80.2993	80.3652	41	43
80.2993	80.3652	53	56
80.4311	80.4984	57	42
80.4311	80.4984	60	45
80.4311	80.4984	65	54
80.5656	80.6296	58	46
80.5656	80.6296	61	51
80.5656	80.6296	68	61
80.6935	80.7594	58	43
80.6935	80.7594	61	56
80.8253	80.8913	58	42
80.8253	80.8913	61	45
80.8253	80.8913	66	54
80.9572	81.0211	54	46
80.9572	81.0211	58	51
80.9572	81.0211	63	61
81.0851	81.15	54	43
81.0851	81.15	58	56
81.2149	81.2799	54	42
81.2149	81.2799	58	45
81.2149	81.2799	63	54
81.3448	81.4087	51	46
81.3448	81.4087	54	51
81.3448	81.4087	60	61
81.4726	81.5385	51	43
81.4726	81.5385	54	56
81.6045	81.6732	51	42
81.6045	81.6732	54	45
81.6045	81.6732	60	54
81.742	81.806	53	51
81.742	81.806	57	61
81.8699	81.9358	41	43
81.8699	81.9358	48	56
82.0018	82.0677	53	46
82.0018	82.0677	57	55
82.1336	82.1976	54	53
82.1336	82.1976	58	64
82.2615	82.3274	40	45
82.2615	82.3274	48	59
82.3933	82.4592	54	48
82.3933	82.4592	58	58
82.5251	82.5904	55	56
82.5251	82.5904	59	67
82.6556	82.725	39	47
82.6556	82.725	49	62
82.7944	82.8639	55	50
82.7944	82.8639	59	61
82.9333	82.9994	54	52
82.9333	82.9994	56	58
82.9333	82.9994	60	70
83.0655	83.1334	32	49
83.0655	83.1334	44	64
83.2012	83.2723	48	49
83.2012	83.2723	54	49
83.2012	83.2723	56	53
83.2012	83.2723	60	63
83.3434	83.4074	59	55
83.3434	83.4074	65	61
83.3434	83.4074	68	73
83.4713	83.5372	37	51
83.4713	83.5372	49	67
83.6031	83.6707	59	50
83.6031	83.6707	65	54
83.6031	83.6707	68	64
83.7383	83.8022	59	55
83.7383	83.8022	66	61
83.7383	83.8022	70	73
83.8662	83.9311	63	51
83.8662	83.9311	66	67
83.996	84.061	59	50
83.996	84.061	66	54
83.996	84.061	70	64
84.1259	84.1898	59	55
84.1259	84.1898	65	61
84.1259	84.1898	68	73
84.2538	84.3201	56	51
84.2538	84.3201	61	67
84.3865	84.4528	59	50
84.3865	84.4528	65	54
84.3865	84.4528	68	64
84.5192	84.5832	59	61
84.5192	84.5832	65	73
84.6471	84.713	53	51
84.6471	84.713	61	67
84.7789	84.8476	59	54
84.7789	84.8476	65	64
84.9165	84.9805	53	61
84.9165	84.9805	59	61
84.9165	84.9805	61	73
85.0444	85.1113	37	51
85.0444	85.1113	49	67
85.1782	85.2452	53	54
85.1782	85.2452	59	54
85.1782	85.2452	61	64
85.3122	85.3774	59	61
85.3122	85.3774	63	73
85.4426	85.5108	49	51
85.4426	85.5108	54	67
85.5789	85.6471	59	54
85.5789	85.6471	63	64
85.7153	85.7806	55	55
85.7153	85.7806	59	61
85.7153	85.7806	64	73
85.8458	85.9154	37	51
85.8458	85.9154	49	67
85.9859	86.0563	55	50
85.9859	86.0563	59	54
85.9859	86.0563	64	64
86.1267	86.194	59	55
86.1267	86.194	61	61
86.1267	86.194	65	73
86.2613	86.3323	49	51
86.2613	86.3323	56	67
86.4034	86.4745	59	50
86.4034	86.4745	61	54
86.4034	86.4745	65	64
86.5456	86.6107	59	55
86.5456	86.6107	65	61
86.5456	86.6107	68	73
86.6756	86.7431	37	51
86.6756	86.7431	49	67
86.8107	86.8907	59	50
86.8107	86.8907	65	54
86.8107	86.8907	68	64
86.9709	87.0361	63	60
86.9709	87.0361	66	67
86.9709	87.0361	73	80
87.101	87.1688	63	51
87.101	87.1688	66	67
87.2367	87.3046	63	50
87.2367	87.3046	66	54
87.2367	87.3046	71	64
87.3725	87.438	59	55
87.3725	87.438	63	61
87.3725	87.438	68	73
87.5035	87.5719	59	51
87.5035	87.5719	63	67
87.6404	87.7089	59	50
87.6404	87.7089	63	54
87.6404	87.7089	68	64
87.7774	87.843	56	61
87.7774	87.843	59	61
87.7774	87.843	65	73
87.9085	87.9763	56	51
87.9085	87.9763	59	67
88.0442	88.1143	56	54
88.0442	88.1143	59	54
88.0442	88.1143	65	64
88.1844	88.2514	53	61
88.1844	88.2514	59	61
88.1844	88.2514	61	73
88.3184	88.3881	37	51
88.3184	88.3881	49	66
88.4578	88.5276	53	52
88.4578	88.5276	59	52
88.4578	88.5276	61	63
88.5974	88.665	59	58
88.5974	88.665	63	70
88.7325	88.8053	49	49
88.7325	88.8053	54	63
88.8781	88.9509	59	50
88.8781	88.9509	63	60
89.0237	89.0932	55	50
89.0237	89.0932	58	56
89.0237	89.0932	60	56
89.0237	89.0932	64	67
89.1627	89.2369	36	46
89.1627	89.2369	48	61
89.3111	89.3854	55	44
89.3111	89.3854	58	48
89.3111	89.3854	60	48
89.3111	89.3854	64	57
89.4596	89.5318	57	48
89.4596	89.5318	60	53
89.4596	89.5318	65	64
89.6039	89.6815	41	44
89.6039	89.6815	53	58
89.7592	89.8448	57	42
89.7592	89.8448	60	45
89.7592	89.8448	65	55
89.9305	90.3287	53	54
89.9305	90.3287	65	50
89.9305	90.3287	77	59
90.0585	90.3287	60	40
90.0585	90.1861	69	45
90.0585	90.1861	72	54
90.1223	90.3287	62	46
90.1861	90.3287	63	52
90.1861	90.3287	69	45
90.1861	90.3287	72	54
90.3212	90.4	48	54
90.3212	90.4	67	50
90.3212	90.4	79	59
90.4489	90.5133	63	44
90.4489	90.5133	70	45
90.4489	90.5133	75	54
90.5133	90.5777	65	49
90.5777	90.649	67	53
90.5777	90.649	70	45
90.5777	90.649	75	54
90.7204	91.1136	53	54
90.7204	91.1136	65	50
90.7204	91.1136	77	59
90.8449	91.1136	60	46
90.8449	90.9736	69	45
90.8449	90.9736	72	54
90.9092	91.1136	62	50
90.9736	91.1136	63	53
90.9736	91.1136	69	45
90.9736	91.1136	72	54
91.1093	91.2104	48	54
91.1093	91.2104	67	50
91.1093	91.2104	79	59
91.237	91.3027	63	44
91.237	91.3027	70	45
91.237	91.3027	75	54
91.3027	91.3685	65	46
91.3685	91.4389	67	49
91.3685	91.4389	70	45
91.3685	91.4389	75	54
91.5093	91.8737	53	54
91.5093	91.8737	65	50
91.5093	91.8737	77	59
91.6404	91.8737	60	48
91.6404	91.7719	69	45
91.6404	91.7719	72	55
91.7062	91.8737	62	52
91.7719	91.8737	63	56
91.7719	91.8737	69	46
91.7719	91.8737	72	56
91.9076	92.2851	69	53
91.9076	92.2851	81	62
92.0416	92.2851	63	54
92.0416	92.1773	72	48
92.0416	92.1773	75	58
92.1095	92.2851	65	58
92.1773	92.2851	67	61
92.1773	92.2851	72	50
92.1773	92.2851	75	60
92.3195	92.7082	72	58
92.3195	92.7082	84	68
92.4558	92.7082	67	61
92.4558	92.5966	75	53
92.4558	92.5966	79	64
92.5262	92.7082	69	65
92.5966	92.7082	70	69
92.5966	92.7082	75	55
92.5966	92.7082	79	67
92.7437	93.142	73	64
92.7437	93.142	85	75
92.8859	93.142	65	62
92.8859	93.0301	75	53
92.8859	93.0301	81	64
92.958	93.142	67	66
93.0301	93.142	69	70
93.0301	93.142	75	55
93.0301	93.142	81	67
93.1793	93.5797	58	60
93.1793	93.5797	74	62
93.1793	93.5797	86	62
93.3134	93.5797	65	49
93.3134	93.4428	77	45
93.3134	93.4428	80	54
93.3781	93.5797	67	52
93.4428	93.5797	68	55
93.4428	93.5797	77	45
93.4428	93.5797	80	54
93.5797	93.6798	53	58
93.5797	93.6798	75	65
93.5797	93.6798	87	65
93.7074	93.7732	68	49
93.7074	93.7732	80	45
93.7074	93.7732	84	54
93.7732	93.839	70	52
93.839	93.9068	72	55
93.839	93.9068	80	45
93.839	93.9068	84	54
93.9747	94.3759	58	63
93.9747	94.3759	74	64
93.9747	94.3759	86	64
94.1023	94.3759	65	51
94.1023	94.2316	77	45
94.1023	94.2316	80	54
94.167	94.3759	67	52
94.2316	94.3759	68	54
94.2316	94.3759	77	45
94.2316	94.3759	80	54
94.3673	94.4886	53	61
94.3673	94.4886	75	64
94.3673	94.4886	87	64
94.495	94.5608	68	49
94.495	94.5608	80	45
94.495	94.5608	84	54
94.5608	94.6265	70	53
94.6265	94.6969	72	56
94.6265	94.6969	80	45
94.6265	94.6969	84	54
94.7673	95.1757	58	64
94.7673	95.03	74	65
94.7673	95.1757	86	65
94.8984	95.1757	68	49
94.8984	95.03	80	45
94.8984	95.03	82	55
94.9642	95.1757	70	52
95.03	95.1757	74	54
95.03	95.1757	80	46
95.03	95.1757	82	56
95.1657	95.5902	60	66
95.1657	95.4354	75	66
95.1657	95.5902	87	66
95.2996	95.5902	68	51
95.2996	95.4354	80	48
95.2996	95.4354	82	58
95.3675	95.5902	70	55
95.4354	95.5902	75	60
95.4354	95.5902	80	50
95.4354	95.5902	82	60
95.5775	96.0159	61	69
95.5775	95.8592	76	72
95.5775	96.0159	88	72
95.7164	96.0159	68	55
95.7164	95.8592	80	53
95.7164	95.8592	82	64
95.7878	96.0159	70	60
95.8592	96.0159	76	65
95.8592	96.0159	80	55
95.8592	96.0159	82	67
96.0063	96.3954	62	71
96.0063	96.2993	77	64
96.0063	96.3954	89	75
96.1505	96.3954	68	58
96.1505	96.2993	80	53
96.1505	96.2993	82	64
96.2247	96.3954	70	61
96.2993	96.3954	77	63
96.2993	96.3954	80	55
96.2993	96.3954	82	67
96.4572	96.8743	63	35
96.4572	96.8743	79	49
96.4572	96.8743	91	57
96.5914	96.8743	71	30
96.5914	96.723	83	44
96.5914	96.723	86	52
96.6572	96.8637	72	30
96.723	96.8743	74	33
96.723	96.8743	83	44
96.723	96.8743	86	52
96.8637	97.2784	72	35
96.8637	97.2784	84	49
96.8637	97.2784	96	57
96.9977	97.2784	75	30
96.9977	97.1293	87	44
96.9977	97.1293	91	52
97.0635	97.2784	77	30
97.1293	97.2695	79	33
97.1293	97.2784	87	44
97.1293	97.2695	91	52
97.2695	97.6835	63	35
97.2695	97.6835	79	49
97.2695	97.6835	91	57
97.4034	97.6835	71	30
97.4034	97.535	83	44
97.4034	97.535	86	52
97.4692	97.6745	72	30
97.535	97.6835	74	33
97.535	97.6835	83	44
97.535	97.6835	86	52
97.6745	98.1022	72	35
97.6745	98.1022	84	49
97.6745	98.1022	96	57
97.8085	98.1022	75	30
97.8085	97.9401	87	44
97.8085	97.9401	91	52
97.8743	98.1022	77	30
97.9401	98.1022	79	33
97.9401	98.1022	87	44
97.9401	98.1022	91	52
98.0867	98.9318	63	45
98.0867	99.6439	78	44
98.1581	98.5126	79	46
98.2294	98.7929	71	39
98.2294	99.6439	80	47
98.3005	99.6439	81	48
98.3714	98.6531	74	40
98.3714	99.6439	82	49
98.4422	99.6439	83	50
98.5126	99.3446	79	46
98.5126	99.6386	84	52
98.583	99.6439	85	54
98.6531	99.6439	74	41
98.6531	99.6439	86	54
98.7231	99.5604	87	55
98.7929	99.6439	71	41
98.7929	99.6439	88	55
98.8624	99.6439	89	56
98.9318	99.6439	63	47
98.9318	99.6439	90	56
99.0006	99.4856	91	57
99.0694	99.6439	72	40
99.0694	99.6439	92	58
99.1382	99.6439	93	58
99.207	99.6439	75	41
99.207	99.6439	94	59
99.2758	99.6439	95	59
99.3446	99.7195	79	47
99.3446	99.6439	98	60
99.4138	99.6439	96	55
99.4856	99.6439	91	51
99.5604	99.6439	87	47
99.6386	99.7195	84	43
100.072	100.494	63	35
100.072	100.494	77	42
100.072	100.494	89	51
100.211	100.494	69	30
100.211	100.342	81	41
100.211	100.342	84	50
100.277	100.494	70	30
100.342	100.483	72	33
100.342	100.494	81	41
100.342	100.483	84	50
100.483	100.563	72	35
100.483	100.563	84	47
100.483	100.563	96	55
100.617	100.683	75	30
100.617	100.683	87	41
100.617	100.683	90	50
100.683	100.749	77	30
100.749	100.819	78	33
100.749	100.819	87	41
100.749	100.819	90	50
100.889	101.303	63	35
100.889	101.303	77	47
100.889	101.303	89	55
101.023	101.303	69	30
101.023	101.154	81	41
101.023	101.154	84	50
101.089	101.303	70	30
101.154	101.294	72	33
101.154	101.303	81	41
101.154	101.294	84	50
101.294	101.39	72	35
101.294	101.39	84	47
101.294	101.39	96	55
101.428	101.494	75	30
101.428	101.494	87	41
101.428	101.494	90	50
101.494	101.56	77	30
101.56	101.633	78	33
101.56	101.633	87	41
101.56	101.633	90	50
101.706	103.263	63	45
101.706	103.263	76	46
101.778	102.132	77	47
101.849	102.412	69	39
101.849	103.263	78	48
101.92	103.263	79	49
101.991	102.273	72	40
101.991	103.263	80	50
102.062	103.263	81	51
102.132	102.964	77	46
102.132	103.258	82	52
102.202	103.263	83	53
102.273	103.263	72	41
102.273	103.263	84	54
102.343	103.263	85	55
102.412	103.263	69	41
102.412	103.18	86	55
102.482	103.263	87	56
102.551	103.263	62	47
102.551	103.263	88	57
102.62	103.105	89	57
102.689	103.263	70	40
102.689	103.263	90	58
102.758	103.263	91	58
102.826	103.263	74	41
102.826	103.263	92	59
102.895	103.263	93	59
102.964	103.339	77	47
102.964	103.263	96	60
103.033	103.263	94	55
103.105	103.263	89	51
103.18	103.263	86	47
103.258	103.339	82	43
103.7	104.109	60	38
103.7	104.109	74	39
103.7	104.109	86	47
103.833	104.109	66	33
103.833	103.965	78	38
103.833	103.965	81	46
103.899	104.109	67	33
103.965	104.109	69	36
103.965	104.109	78	38
103.965	104.109	81	46
104.099	104.213	58	38
104.099	104.213	79	43
104.099	104.213	91	50
104.228	104.294	67	33
104.228	104.294	82	38
104.228	104.294	86	46
104.294	104.359	70	33
104.359	104.429	74	36
104.359	104.429	82	38
104.359	104.429	86	46
104.499	104.909	58	38
104.499	104.909	72	39
104.499	104.909	84	47
104.633	104.909	64	33
104.633	104.764	76	38
104.633	104.764	79	46
104.699	104.909	65	33
104.764	104.909	67	36
104.764	104.909	76	38
104.764	104.909	79	46
104.899	105.008	57	38
104.899	105.008	77	43
104.899	105.008	89	50
105.028	105.093	65	33
105.028	105.093	81	38
105.028	105.093	84	46
105.093	105.159	69	33
105.159	105.229	72	36
105.159	105.229	81	38
105.159	105.229	84	46
105.299	105.705	60	38
105.299	105.705	74	39
105.299	105.705	86	47
105.429	105.705	66	33
105.429	105.56	78	38
105.429	105.56	81	46
105.495	105.705	67	33
105.56	105.705	69	36
105.56	105.705	78	38
105.56	105.705	81	46
105.695	105.823	58	38
105.695	105.823	79	43
105.695	105.823	91	50
105.823	105.889	67	33
105.823	105.889	82	38
105.823	105.889	86	46
105.889	105.955	70	33
105.955	106.025	74	36
105.955	106.025	82	38
105.955	106.025	86	46
106.095	106.5	58	38
106.095	106.5	72	39
106.095	106.5	84	47
106.224	106.5	64	33
106.224	106.356	76	38
106.224	106.356	79	46
106.29	106.5	65	33
106.356	106.5	67	36
106.356	106.5	76	38
106.356	106.5	79	46
106.49	106.626	57	38
106.49	106.626	77	43
106.49	106.626	89	50
106.619	106.684	65	33
106.619	106.684	81	38
106.619	106.684	84	46
106.684	106.75	69	33
106.75	106.827	72	36
106.75	106.827	81	38
106.75	106.827	84	46
106.905	107.306	60	59
106.905	107.317	82	68
106.905	107.317	90	78
107.037	107.317	66	40
107.037	107.171	78	53
107.037	107.171	87	53
107.104	107.317	70	41
107.171	107.317	75	47
107.171	107.317	78	53
107.171	107.317	87	53
107.306	107.438	60	56
107.306	107.438	81	62
107.306	107.438	89	71
107.438	107.506	65	48
107.438	107.506	77	55
107.438	107.506	87	55
107.506	107.573	69	48
107.573	107.646	75	50
107.573	107.646	77	53
107.573	107.646	87	53
107.718	108.12	60	64
107.718	108.131	82	77
107.718	108.131	90	86
107.851	108.131	66	51
107.851	107.985	78	59
107.851	107.985	87	59
107.918	108.131	70	51
107.985	108.131	75	55
107.985	108.131	78	61
107.985	108.131	87	61
108.12	108.247	60	61
108.12	108.247	81	68
108.12	108.247	89	78
108.252	108.319	65	51
108.252	108.319	77	61
108.252	108.319	87	61
108.319	108.386	69	51
108.386	108.458	75	57
108.386	108.458	77	59
108.386	108.458	87	59
108.53	108.598	60	58
108.53	108.598	70	69
108.53	108.598	82	67
108.53	108.598	90	79
108.667	108.737	66	51
108.667	108.737	75	60
108.667	108.737	78	60
108.667	108.737	87	72
108.808	108.877	60	58
108.808	108.877	70	69
108.808	108.877	82	71
108.808	108.877	90	85
108.946	109.018	66	49
108.946	109.018	75	58
108.946	109.018	78	77
108.946	109.018	87	77
109.09	109.16	60	58
109.09	109.16	70	70
109.09	109.16	82	63
109.09	109.16	90	88
109.23	109.307	66	50
109.23	109.307	75	59
109.23	109.307	78	67
109.23	109.307	87	81
109.383	109.454	61	60
109.383	109.454	70	71
109.383	109.454	82	73
109.383	109.454	90	86
109.525	109.599	66	53
109.525	109.599	76	63
109.525	109.599	78	68
109.525	109.599	88	80
109.672	109.745	61	59
109.672	109.745	70	70
109.672	109.745	82	73
109.672	109.745	90	86
109.817	109.893	66	52
109.817	109.893	78	65
109.817	109.893	88	77
109.818	109.894	76	62
109.97	110.043	61	59
109.97	110.043	70	70
109.97	110.043	82	72
109.97	110.043	90	85
110.115	110.194	66	56
110.115	110.194	76	67
110.115	110.194	78	63
110.115	110.194	88	75
110.272	110.541	53	65
110.272	110.541	60	65
110.272	110.541	63	65
110.272	110.541	69	77
110.272	110.346	87	91
110.346	110.411	91	66
110.411	110.476	87	60
110.476	110.541	86	55
110.541	110.607	84	48
110.607	110.676	82	47
110.676	110.743	81	53
110.743	110.808	84	48
110.808	110.874	81	50
110.874	110.939	79	50
110.939	111.004	77	49
111.004	111.075	76	48
111.075	111.142	75	53
111.142	111.208	79	48
111.208	111.272	75	49
111.272	111.336	74	49
111.336	111.401	72	48
111.401	111.471	70	47
111.471	111.539	69	55
111.539	111.604	72	50
111.604	111.668	69	52
111.668	111.733	67	52
111.733	111.797	65	51
111.797	111.867	64	50
111.867	111.935	63	57
111.935	112.0	67	52
112.0	112.064	63	53
112.064	112.129	62	53
112.129	112.193	60	53
112.193	112.263	58	52
112.263	112.331	57	61
112.331	112.396	60	56
112.396	112.461	57	59
112.461	112.527	55	59
112.527	112.592	53	58
112.592	112.662	52	58
112.662	112.729	51	66
112.729	112.795	55	59
112.795	112.86	51	63
112.86	112.925	50	64
112.925	112.99	48	64
112.99	113.059	46	64
113.059	113.126	45	75
113.126	113.192	48	67
113.192	113.259	45	68
113.259	113.329	43	66
113.329	113.401	41	69
113.401	113.487	40	72
113.487	116.649	41	77
113.554	113.62	42	54
113.62	113.686	43	54
113.686	113.751	44	54
113.751	113.817	45	55
113.817	113.883	46	55
113.883	113.948	47	56
113.948	114.013	48	56
114.013	114.079	49	56
114.079	114.144	50	57
114.144	114.209	51	57
114.209	114.274	52	58
114.274	114.338	53	58
114.338	114.403	54	59
114.403	114.468	55	59
114.468	114.533	56	59
114.533	114.598	57	60
114.598	114.663	58	60
114.663	114.728	59	61
114.728	114.794	60	61
114.794	114.86	61	61
114.86	114.926	62	62
114.926	114.992	63	62
114.992	115.058	64	63
115.058	116.649	48	60
115.058	116.649	51	60
115.058	116.649	57	60
115.058	115.124	65	65
115.124	115.197	66	68
115.197	115.263	60	58
115.263	115.329	61	58
115.329	115.395	62	59
115.395	115.461	63	60
115.461	115.527	64	60
115.527	115.593	65	61
115.593	115.659	66	62
115.659	115.725	67	62
115.725	115.79	68	63
115.79	115.856	69	63
115.856	115.921	70	64
115.921	115.987	71	65
115.987	116.052	72	65
116.052	116.117	73	66
116.117	116.182	74	67
116.182	116.247	75	67
116.247	116.313	76	68
116.313	116.378	77	69
116.378	116.445	78	69
116.445	116.512	79	70
116.512	116.58	80	71
116.58	116.649	81	71
116.649	116.719	46	64
116.649	116.719	53	64
116.649	116.719	58	64
116.649	116.719	62	64
116.649	116.719	82	81
116.788	116.852	82	57
116.917	116.982	77	51
117.047	117.109	79	60
117.172	117.235	79	57
117.299	117.365	74	50
117.43	117.494	75	60
117.557	117.622	75	55
117.687	117.752	70	55
117.817	117.881	72	60
117.945	118.01	72	54
118.075	118.14	67	54
118.204	118.269	69	60
118.269	118.333	65	51
118.333	118.397	67	53
118.397	118.46	69	56
118.46	118.524	70	58
118.524	118.587	72	60
118.587	118.65	74	63
118.65	118.712	69	53
118.712	118.774	70	56
118.774	118.836	72	58
118.836	118.898	74	61
118.898	118.959	75	64
118.959	119.021	77	66
119.021	119.082	74	57
119.082	119.143	75	60
119.143	119.204	77	62
119.204	119.265	79	65
119.265	119.327	81	67
119.327	119.388	82	70
119.388	119.45	77	65
119.45	119.513	79	67
119.513	119.576	81	69
119.576	119.641	82	71
119.641	119.708	84	73
119.708	119.77	86	83
119.833	119.896	86	57
119.96	120.025	81	51
120.09	120.153	82	60
120.215	120.279	82	57
120.343	120.408	77	50
120.473	120.536	79	60
120.6	120.664	79	55
120.728	120.793	74	55
120.859	120.923	76	60
120.987	121.05	76	54
121.114	121.179	71	54
121.244	121.31	73	60
121.31	121.376	69	51
121.376	121.441	71	53
121.441	121.506	73	56
121.506	121.571	74	58
121.571	121.636	76	60
121.636	121.7	77	63
121.7	121.764	73	53
121.764	121.828	74	56
121.828	121.892	76	58
121.892	121.955	77	61
121.955	122.019	79	64
122.019	122.082	81	66
122.082	122.145	76	57
122.145	122.208	77	60
122.208	122.271	79	62
122.271	122.334	81	65
122.334	122.397	83	67
122.397	122.46	85	70
122.46	122.524	81	65
122.524	122.588	83	67
122.588	122.652	85	69
122.652	122.718	86	71
122.718	122.797	88	73
122.797	122.868	41	54
122.797	122.868	53	60
122.797	122.868	81	69
122.797	122.868	89	80
122.94	123.009	55	51
122.94	123.009	81	57
122.94	123.009	89	65
123.079	123.146	57	45
123.079	123.146	77	51
123.079	123.146	84	58
123.214	123.279	46	54
123.214	123.279	58	54
123.214	123.279	77	60
123.214	123.279	86	69
123.343	123.409	57	51
123.343	123.409	77	57
123.343	123.409	86	65
123.474	123.541	55	45
123.474	123.541	74	50
123.474	123.541	82	57
123.609	123.672	48	54
123.609	123.672	60	54
123.609	123.672	76	60
123.609	123.672	79	69
123.736	123.801	62	49
123.736	123.801	76	55
123.736	123.801	79	63
123.867	123.932	64	49
123.867	123.932	72	55
123.867	123.932	84	63
123.998	124.062	53	54
123.998	124.062	65	54
123.998	124.062	72	60
123.998	124.062	81	69
124.125	124.191	55	48
124.125	124.191	72	54
124.125	124.191	81	62
124.256	124.321	57	48
124.256	124.321	72	54
124.256	124.321	77	62
124.386	124.458	41	54
124.386	124.458	53	60
124.386	124.458	81	69
124.386	124.458	89	80
124.529	124.596	55	51
124.529	124.596	81	57
124.529	124.596	89	65
124.662	124.729	57	45
124.662	124.729	77	51
124.662	124.729	84	58
124.797	124.862	46	54
124.797	124.862	58	54
124.797	124.862	77	60
124.797	124.862	86	69
124.926	124.992	57	51
124.926	124.992	77	57
124.926	124.992	86	65
125.057	125.125	55	45
125.057	125.125	74	50
125.057	125.125	82	57
125.192	125.255	48	54
125.192	125.255	60	54
125.192	125.255	76	60
125.192	125.255	79	69
125.319	125.384	62	49
125.319	125.384	76	55
125.319	125.384	79	63
125.45	125.515	64	49
125.45	125.515	72	55
125.45	125.515	84	63
125.581	125.645	53	54
125.581	125.645	65	54
125.581	125.645	72	60
125.581	125.645	81	69
125.709	125.774	55	48
125.709	125.774	72	54
125.709	125.774	81	62
125.839	125.904	57	48
125.839	125.904	72	54
125.839	125.904	77	62
125.969	126.401	53	54
125.969	126.112	65	60
125.969	126.401	81	69
125.969	126.401	89	80
126.112	126.401	55	51
126.112	126.251	65	43
126.112	126.386	82	57
126.112	126.401	88	65
126.251	126.401	57	45
126.251	126.386	65	38
126.251	126.401	84	51
126.251	126.401	87	58
126.386	126.654	58	54
126.386	126.516	65	54
126.386	126.647	82	60
126.386	126.654	86	69
126.516	126.654	60	51
126.516	126.647	65	43
126.516	126.654	77	57
126.516	126.654	84	65
126.647	126.714	62	38
126.647	126.714	65	38
126.647	126.714	74	50
126.647	126.714	82	57
126.781	127.211	55	56
126.781	126.924	67	63
126.781	127.211	83	72
126.781	127.211	91	84
126.924	127.211	57	53
126.924	127.059	67	45
126.924	127.192	84	59
126.924	127.211	90	68
127.059	127.211	59	47
127.059	127.192	67	39
127.059	127.211	86	53
127.059	127.211	89	60
127.192	127.446	60	56
127.192	127.322	67	56
127.192	127.446	84	63
127.192	127.446	88	72
127.322	127.446	62	53
127.322	127.446	67	45
127.322	127.446	79	59
127.322	127.446	86	68
127.453	127.52	64	39
127.453	127.52	67	39
127.453	127.52	76	52
127.453	127.52	84	59
127.587	128.011	57	58
127.587	127.73	69	66
127.587	128.011	85	75
127.587	128.011	93	88
127.73	128.011	59	55
127.73	127.863	69	47
127.73	127.996	86	61
127.73	128.011	92	71
127.863	128.011	61	49
127.863	127.996	69	40
127.863	128.011	87	55
127.863	128.011	91	63
127.996	128.265	62	58
127.996	128.125	69	58
127.996	128.255	86	66
127.996	128.265	89	75
128.125	128.265	64	55
128.125	128.255	69	47
128.125	128.265	81	61
128.125	128.265	88	71
128.255	128.322	65	40
128.255	128.322	69	40
128.255	128.322	77	54
128.255	128.322	86	61
128.389	128.818	58	60
128.389	128.537	70	69
128.389	128.818	86	78
128.389	128.818	94	92
128.537	128.818	60	57
128.537	128.676	70	49
128.537	128.808	87	64
128.537	128.818	93	74
128.676	128.818	62	51
128.676	128.808	70	42
128.676	128.818	89	57
128.676	128.818	92	66
128.808	129.075	63	60
128.808	128.936	70	60
128.808	129.067	87	69
128.808	129.075	91	78
128.936	129.075	65	57
128.936	129.067	70	49
128.936	129.075	82	64
128.936	129.075	89	74
129.067	129.136	67	42
129.067	129.136	70	42
129.067	129.136	79	56
129.067	129.136	87	64
129.206	129.6	63	64
129.206	129.6	82	83
129.206	129.334	87	83
129.206	129.6	94	83
129.334	129.463	79	72
129.334	129.6	87	72
129.334	129.728	91	72
129.463	129.86	70	52
129.463	129.728	79	52
129.6	129.995	63	59
129.6	129.995	82	76
129.6	129.728	87	76
129.6	129.995	94	76
129.728	129.86	79	65
129.728	129.995	87	65
129.728	130.124	91	65
129.86	130.255	70	49
129.86	130.124	79	49
129.995	130.392	63	54
129.995	130.392	82	68
129.995	130.124	87	68
129.995	130.392	94	68
130.124	130.255	79	60
130.124	130.392	87	60
130.124	130.52	91	60
130.255	130.649	70	45
130.255	130.52	79	45
130.392	130.811	63	49
130.392	130.799	82	63
130.392	130.52	87	63
130.392	130.799	94	63
130.52	130.649	79	56
130.52	130.799	87	56
130.52	130.811	91	56
130.649	130.811	70	40
130.649	130.811	79	40
130.799	131.203	60	44
130.799	131.203	82	58
130.799	130.93	87	58
130.799	131.203	94	58
130.93	131.062	78	51
130.93	131.203	87	51
130.93	131.335	90	51
131.062	131.467	70	36
131.062	131.335	78	36
131.203	131.608	60	41
131.203	131.608	82	53
131.203	131.335	87	53
131.203	131.608	94	53
131.335	131.467	78	46
131.335	131.608	87	46
131.335	131.742	90	46
131.467	131.876	70	34
131.467	131.742	78	34
131.608	132.018	60	38
131.608	132.018	82	48
131.608	131.742	87	48
131.608	132.018	94	48
131.742	131.876	78	43
131.742	132.018	87	43
131.742	132.151	90	43
131.876	132.284	70	32
131.876	132.151	78	32
132.018	135.086	60	35
132.018	132.567	82	44
132.018	132.151	87	44
132.018	132.76	94	44
132.151	132.284	78	40
132.151	133.228	87	40
132.151	133.157	90	40
132.284	134.156	70	29
132.284	134.752	78	29
132.428	133.36	89	38
132.428	132.631	98	67
132.501	136.018	101	56
132.567	132.962	82	29
132.567	136.018	99	55
132.631	136.018	98	53
132.695	135.086	74	29
132.695	132.897	96	52
132.76	132.962	94	50
132.83	136.018	88	38
132.83	133.026	93	55
132.897	136.018	96	58
132.962	133.36	82	29
132.962	136.018	94	57
133.026	133.228	93	55
133.091	136.018	73	29
133.091	133.294	91	54
133.157	136.018	90	53
133.228	133.425	87	37
133.228	136.018	93	54
133.294	136.018	91	54
133.36	134.351	82	29
133.36	134.09	89	53
133.425	134.156	87	52
133.49	135.152	72	29
133.49	133.694	86	52
133.555	133.759	84	51
133.62	133.824	81	38
133.62	136.018	83	60
133.694	134.023	86	50
133.759	134.823	75	29
133.759	134.286	84	49
133.824	134.422	81	47
133.889	135.552	65	29
133.889	134.686	79	46
133.954	134.023	77	45
134.023	134.955	77	38
134.023	134.221	86	49
134.09	136.018	89	52
134.156	134.555	70	29
134.156	136.018	87	51
134.221	136.018	86	49
134.286	135.949	62	29
134.286	134.49	84	48
134.351	134.555	82	47
134.422	136.018	76	38
134.422	134.62	81	49
134.49	136.018	84	52
134.555	134.955	70	29
134.555	136.018	82	51
134.62	134.823	81	49
134.686	136.018	61	29
134.686	134.889	79	48
134.752	136.018	78	47
134.823	135.021	75	37
134.823	136.018	81	48
134.889	136.018	79	48
134.955	135.883	70	29
134.955	135.687	77	47
135.021	136.018	75	46
135.086	136.018	60	29
135.086	135.291	74	46
135.152	135.357	72	45
135.218	135.422	69	38
135.218	136.018	71	47
135.291	135.621	74	46
135.357	136.018	63	29
135.357	135.818	72	45
135.422	136.018	69	44
135.487	136.018	53	29
135.487	136.018	67	43
135.552	136.018	65	42
135.621	135.753	74	57
135.687	136.018	77	51
135.753	136.018	74	51
135.818	136.018	72	51
135.883	136.018	70	51
135.949	136.018	62	51
136.018	136.15	62	56
136.084	136.423	65	51
136.15	136.423	62	51
136.215	136.423	60	51
136.28	136.423	58	51
136.348	136.423	50	51
136.423	136.555	74	48
136.489	136.82	77	42
136.555	136.82	74	42
136.62	136.82	72	42
136.685	136.82	70	42
136.751	136.82	62	42
136.82	136.952	62	47
136.886	137.226	65	42
136.952	137.226	62	42
137.017	137.226	60	42
137.082	137.226	58	42
137.151	137.226	50	42
137.226	137.358	74	51
137.292	137.622	78	45
137.358	137.622	74	45
137.423	137.622	72	45
137.488	137.622	70	45
137.553	137.622	62	45
137.622	137.754	62	50
137.688	138.025	66	45
137.754	138.025	62	45
137.82	138.025	60	45
137.885	138.025	58	45
137.951	138.025	50	45
138.025	138.157	74	51
138.091	138.421	78	45
138.157	138.421	74	45
138.222	138.421	72	45
138.287	138.421	70	45
138.353	138.421	62	45
138.421	138.553	62	50
138.487	138.819	66	45
138.553	138.819	62	45
138.619	138.819	60	45
138.684	138.819	58	45
138.75	138.819	50	45
138.819	139.616	43	51
138.889	139.616	50	45
138.957	139.616	53	44
139.024	139.616	59	45
139.091	139.616	62	46
139.157	139.354	67	47
139.223	139.616	68	51
139.289	139.616	66	45
139.354	139.616	67	43
139.42	139.616	71	45
139.485	139.616	74	46
139.551	139.616	79	48
139.616	140.412	80	53
139.682	140.412	78	47
139.747	140.412	79	49
139.813	140.412	83	52
139.878	140.412	86	54
139.944	140.141	91	56
140.009	140.412	92	59
140.075	140.412	90	55
140.141	140.412	91	58
140.207	140.412	95	60
140.273	140.412	98	63
140.341	140.412	103	66
140.412	141.173	101	68
140.479	141.173	100	67
140.546	141.173	48	45
140.546	141.173	96	65
140.612	141.173	91	64
140.678	141.173	55	45
140.678	141.173	89	62
140.744	141.173	88	61
140.809	141.173	60	45
140.809	141.173	84	60
140.873	141.173	79	59
140.938	141.173	62	47
140.938	141.173	77	58
141.003	141.173	76	56
141.069	141.173	64	49
141.069	141.173	72	55
141.136	141.247	67	51
141.247	141.933	66	57
141.32	141.933	71	47
141.389	141.933	59	49
141.389	141.933	75	49
141.458	141.933	78	50
141.526	141.933	54	47
141.526	141.933	82	51
141.593	141.933	83	53
141.659	141.933	51	44
141.659	141.933	87	54
141.724	141.933	90	55
141.789	141.933	94	57
141.853	141.933	95	58
141.916	141.978	99	59
142.118	142.792	65	57
142.191	142.792	70	47
142.258	142.792	62	49
142.258	142.792	74	49
142.328	142.792	77	50
142.39	142.792	58	47
142.39	142.792	81	51
142.455	142.792	82	53
142.52	142.792	53	44
142.52	142.792	86	54
142.585	142.792	89	55
142.648	142.792	93	57
142.709	142.792	94	58
142.775	142.837	98	59
142.981	143.721	64	51
143.053	143.721	70	42
143.121	143.721	61	44
143.121	143.721	73	44
143.189	143.721	76	45
143.256	143.721	58	42
143.256	143.721	78	45
143.322	143.721	82	47
143.389	143.721	54	39
143.389	143.721	85	48
143.455	143.721	88	49
143.52	143.721	90	51
143.582	143.721	94	52
143.651	143.901	97	53
143.901	145.581	41	38
143.967	145.581	48	42
144.034	145.581	51	47
144.097	145.552	58	51
144.165	145.581	60	43
144.23	145.581	62	44
144.294	145.581	64	44
144.357	145.552	65	45
144.421	145.581	67	46
144.484	144.856	69	47
144.547	145.552	70	47
144.609	145.581	72	48
144.671	145.552	74	49
144.733	145.581	75	50
144.795	145.581	53	33
144.795	145.581	77	50
144.815	145.581	57	34
144.835	145.581	63	36
144.856	145.581	69	37
144.856	145.581	79	51
144.916	145.581	81	50
144.977	145.581	82	51
145.036	145.581	84	52
145.096	145.581	86	52
145.155	145.581	87	53
145.214	145.581	89	54
145.272	145.581	91	54
145.329	145.581	93	55
145.386	145.552	94	56
145.442	145.581	96	57
145.497	145.581	97	57
145.552	145.607	58	34
145.552	145.607	65	34
145.552	145.607	70	34
145.552	145.607	74	34
145.552	145.607	94	63
145.552	145.607	98	63
145.662	145.798	94	62
145.662	145.798	98	62
145.774	145.832	86	47
145.774	145.832	89	47
145.889	145.998	87	52
145.889	145.998	90	52
145.998	146.116	87	52
145.998	146.116	90	52
146.108	146.166	78	47
146.108	146.166	81	47
146.223	146.277	82	51
146.223	146.277	86	51
146.331	146.476	82	51
146.331	146.476	86	51
146.442	146.499	74	38
146.442	146.499	77	38
146.557	146.663	75	44
146.557	146.663	78	44
146.663	146.784	75	44
146.663	146.784	78	44
146.773	146.83	66	36
146.773	146.83	69	36
146.886	146.939	70	45
146.886	146.939	74	45
146.992	147.047	70	45
146.992	147.047	74	45
147.102	147.157	62	34
147.102	147.157	65	34
147.213	147.266	63	39
147.213	147.266	66	39
147.318	147.373	63	39
147.318	147.373	66	39
147.429	147.485	54	32
147.429	147.485	57	32
147.541	147.595	58	45
147.541	147.595	62	45
147.648	147.704	58	45
147.648	147.704	62	45
147.759	147.817	50	34
147.759	147.817	53	34
147.874	147.928	51	39
147.874	147.928	54	39
147.982	148.037	51	39
147.982	148.037	54	39
148.093	148.155	41	41
148.093	148.155	45	41
148.218	148.283	46	58
148.218	148.283	50	58
148.482	148.539	53	36
148.596	148.65	58	45
148.704	148.759	58	45
148.813	148.872	46	33
148.931	148.987	53	40
149.042	149.098	53	40
149.153	149.214	41	34
149.274	149.331	46	38
149.388	149.445	46	38
149.502	149.563	29	34
149.624	149.684	22	27
149.624	149.684	34	34
