OnsetTime	OffsetTime	MidiPitch	Velocity
0.969083	1.23567	45	38
0.995462	1.24551	52	42
1.02184	1.14709	57	46
1.04822	1.24551	60	49
1.06802	1.24551	64	49
1.08781	1.24551	69	54
1.10761	1.24551	72	59
1.1274	1.24551	81	68
1.54828	1.63422	69	54
1.64204	1.76015	69	64
1.76015	1.87826	72	60
1.87826	1.99105	71	64
1.99105	2.10383	69	60
2.10383	2.3431	52	40
2.12567	2.35294	59	43
2.1475	2.25452	64	47
2.16933	2.35294	68	50
2.18571	2.35294	71	51
2.20208	2.35294	76	55
2.21846	2.35294	80	59
2.23483	2.35294	88	66
2.65654	2.74248	64	54
2.7503	2.86841	64	64
2.86841	2.98652	68	60
2.98652	3.09931	66	64
3.09931	3.21209	64	60
3.21209	3.45108	45	37
3.23389	3.46092	52	40
3.25568	3.3625	57	44
3.27747	3.46092	60	47
3.29381	3.46092	64	49
3.31014	3.46092	69	53
3.32648	3.46092	72	57
3.34281	3.46092	81	66
3.76624	3.85218	69	54
3.86	3.97811	69	64
3.97811	4.09622	72	60
4.09622	4.21433	71	64
4.21433	4.33244	69	60
4.33244	4.5771	52	43
4.35363	4.58779	59	41
4.37482	4.48094	64	46
4.39601	4.58779	68	50
4.4119	4.58779	71	54
4.42779	4.58779	80	57
4.44369	4.58779	88	61
4.45958	4.9724	76	71
4.9724	5.10061	64	69
5.48523	5.72683	45	33
5.50702	5.73691	52	36
5.52881	5.6361	57	37
5.55061	5.73691	60	40
5.56694	5.73691	64	41
5.58328	5.73691	69	45
5.59961	5.73691	72	47
5.61595	5.73691	81	51
6.04568	6.13161	69	40
6.13943	6.25754	69	48
6.25754	6.37566	72	45
6.37566	6.48844	71	48
6.48844	6.60123	69	45
6.60123	6.84021	52	32
6.62302	6.85006	59	35
6.64482	6.75163	64	37
6.66661	6.85006	68	40
6.68294	6.85006	71	40
6.69928	6.85006	76	44
6.71561	6.85006	80	46
6.73195	6.85006	88	49
7.15626	7.2422	64	40
7.25002	7.36813	64	48
7.36813	7.48624	68	45
7.48624	7.59987	66	48
7.59987	7.7135	64	45
7.7135	7.95222	45	32
7.73524	7.96206	52	35
7.75698	7.86364	57	37
7.77872	7.96206	60	40
7.79503	7.96206	64	40
7.81134	7.96206	69	44
7.82764	7.96206	72	46
7.84395	7.96206	81	49
8.26826	8.3542	69	40
8.36202	8.48013	69	48
8.48013	8.59824	72	45
8.59824	8.71635	71	48
8.71635	8.83446	69	45
8.83446	9.07696	52	32
8.85529	9.08765	59	35
8.87612	8.98081	64	37
8.89695	9.08765	68	40
8.91257	9.08765	71	40
8.92819	9.08765	80	46
8.94382	9.08765	88	48
8.95944	9.47227	76	59
9.47227	9.60048	64	59
9.98509	10.2174	45	38
10.0068	10.2267	52	41
10.0286	10.1341	57	45
10.0503	10.2267	61	48
10.0666	10.2267	76	52
10.0829	10.2267	81	56
10.0992	10.2267	85	59
10.1155	10.2267	93	68
10.5208	10.6067	81	54
10.6146	10.7327	81	64
10.7327	10.8463	82	60
10.8463	10.9599	81	64
10.9599	11.0736	79	60
11.0736	11.3084	50	40
11.0948	11.3183	57	42
11.1159	11.2198	62	45
11.1371	11.3183	65	48
11.1529	11.3183	69	51
11.1686	11.3183	77	55
11.1844	11.3183	81	58
11.2002	11.3183	89	68
11.6245	11.7104	74	54
11.7182	11.8319	74	64
11.8319	11.9455	77	60
11.9455	12.0591	76	64
12.0591	12.1728	74	60
12.1728	12.4117	43	39
12.1946	12.4216	50	42
12.2163	12.3232	55	46
12.2381	12.4216	59	50
12.2545	12.4216	74	50
12.2708	12.4216	79	54
12.2871	12.4216	83	58
12.3035	12.4216	91	68
12.7227	12.8087	79	54
12.8165	12.9293	79	64
12.9293	13.0421	81	60
13.0421	13.1548	79	64
13.1548	13.2676	77	60
13.2676	13.5014	48	44
13.2886	13.5113	55	44
13.3095	13.4129	60	47
13.3304	13.5113	64	50
13.3461	13.5113	67	50
13.3618	13.5113	76	54
13.3775	13.5113	79	58
13.3932	13.5113	88	68
13.8178	13.9037	72	54
13.9115	14.0296	72	57
14.0296	14.1477	76	54
14.1477	14.2597	74	56
14.2597	14.3716	72	53
14.3716	14.6104	50	37
14.3934	14.6202	53	39
14.4151	14.5218	59	42
14.4369	14.6202	65	44
14.4532	14.6202	71	44
14.4695	14.6202	77	47
14.4858	14.6202	83	50
14.5021	14.6202	89	59
14.927	15.0129	71	45
15.0207	15.1379	71	53
15.1379	15.2551	74	50
15.2551	15.3723	72	53
15.3723	15.4895	71	49
15.4895	15.7291	48	36
15.5332	15.6405	60	40
15.5551	15.7389	64	43
15.5715	15.7389	69	41
15.588	15.7389	76	44
15.6044	15.7389	81	47
15.6208	15.7389	88	54
16.0469	16.1329	69	45
16.1407	16.2588	69	54
16.2588	16.3769	72	50
16.3769	16.495	71	54
16.495	16.6399	69	50
16.6399	17.1527	53	49
16.6399	17.1527	65	58
17.0188	17.1527	57	40
17.0188	17.1527	63	40
17.0188	17.1527	75	45
17.1527	17.7274	52	45
17.1527	17.7274	64	52
17.2866	17.4205	76	45
17.4205	17.551	74	52
17.551	17.7274	56	37
17.551	17.7274	62	37
17.551	17.7274	71	45
17.7274	18.2608	57	45
17.7274	18.2608	60	45
17.7274	18.2608	64	51
17.7274	18.2608	69	51
18.2608	18.3941	64	37
18.2608	18.3941	69	37
18.2608	18.3941	72	45
18.2608	18.3941	81	45
18.7941	19.2374	45	33
18.8239	19.2374	52	36
18.8536	19.2374	57	37
18.8834	19.2374	61	40
18.9057	19.2374	76	41
18.928	19.2374	81	45
18.9503	19.2374	85	47
18.9726	19.2374	93	51
19.4026	19.4669	81	40
19.4727	19.8593	61	30
19.4727	19.8593	64	30
19.4727	19.8593	69	36
19.4727	19.7137	81	48
19.5932	19.8593	82	45
19.7137	19.8593	81	48
19.8342	19.9547	79	45
19.9547	20.379	50	33
19.9993	20.379	57	36
20.0439	20.379	65	40
20.0663	20.379	69	41
20.0886	20.379	77	45
20.1109	20.379	81	47
20.1332	20.379	89	51
20.5604	20.6247	74	40
20.6305	21.0472	62	30
20.6305	21.0472	65	30
20.6305	21.0472	69	36
20.6305	20.9877	74	48
20.7496	21.0472	77	45
20.8686	21.0472	76	48
20.9877	21.1067	74	45
21.1067	21.5586	43	33
21.1514	21.5586	50	36
21.196	21.5586	59	40
21.2183	21.5586	74	41
21.2406	21.5586	79	45
21.263	21.5586	83	47
21.2853	21.5586	91	51
21.717	21.7844	79	40
21.7905	22.1855	59	30
21.7905	22.1855	62	30
21.7905	22.1855	67	36
21.7905	22.0305	79	48
21.9105	22.1855	81	45
22.0305	22.1855	79	48
22.1505	22.2705	77	45
22.2705	22.7012	48	33
22.3152	22.7012	55	36
22.3598	22.7012	64	40
22.3821	22.7012	67	41
22.4045	22.7012	76	45
22.4268	22.7012	79	47
22.4491	22.7012	88	51
22.8762	22.9384	72	40
22.9441	23.3014	64	33
22.9441	23.3014	67	39
22.9441	23.2984	72	52
23.0622	23.3014	76	49
23.1803	23.3014	74	52
23.2984	23.4165	72	49
23.4165	23.867	50	36
23.4612	23.867	58	40
23.5058	23.867	65	44
23.5504	23.867	70	45
23.5728	23.867	77	49
23.5951	23.867	89	56
24.0169	24.0732	70	44
24.0783	24.4366	62	33
24.0783	24.4366	65	39
24.0783	24.4327	70	52
24.1965	24.4366	74	49
24.3146	24.4366	72	52
24.4327	24.5508	70	49
24.5508	24.9689	48	36
24.5954	24.9689	60	40
24.6401	24.9689	64	44
24.6847	24.9689	69	45
24.707	24.9689	76	49
24.7293	24.9689	88	56
25.1813	25.2672	69	42
25.275	25.7919	60	32
25.275	25.7919	64	38
25.275	25.647	69	51
25.399	25.7919	72	47
25.523	25.7919	71	51
25.647	25.7919	69	47
25.7919	26.3254	53	42
25.7919	26.3254	65	50
26.1811	26.3254	57	38
26.1811	26.3254	63	38
26.1811	26.3254	75	42
26.3254	26.9417	52	42
26.3254	26.9417	64	49
26.4696	26.6138	76	42
26.6138	26.7443	74	49
26.7443	26.9417	56	35
26.7443	26.9417	62	35
26.7443	26.9417	71	42
26.9417	27.8888	57	42
26.9417	27.8888	60	42
26.9417	27.5602	64	48
26.9417	27.5602	69	48
27.5602	27.8888	64	35
27.5602	27.8888	69	35
27.5602	27.8888	72	42
27.5602	27.8888	81	42
28.2424	28.2818	72	46
28.2818	28.3212	81	51
28.3212	28.4426	57	68
28.3212	28.4426	88	65
28.4831	28.6017	84	55
28.6393	28.7599	81	55
28.7391	28.7962	57	54
28.8014	28.9209	57	64
28.8014	28.9209	76	58
28.9209	29.0404	60	60
28.9607	29.0802	72	54
29.0404	29.1599	59	64
29.1201	29.202	69	54
29.1599	29.286	57	60
29.202	29.244	68	46
29.244	29.286	76	51
29.286	29.407	64	66
29.286	29.407	83	68
29.4473	29.5652	80	60
29.6026	29.7232	76	59
29.7024	29.7597	52	54
29.7649	29.8844	52	64
29.7649	29.8844	71	58
29.8844	30.0039	55	60
29.9242	30.0438	68	50
30.0039	30.1234	54	64
30.0836	30.1651	64	50
30.1234	30.2484	52	60
30.1651	30.2068	72	46
30.2068	30.2484	81	51
30.2484	30.5932	45	43
30.2484	30.3288	57	68
30.2484	30.3689	88	65
30.2886	30.6026	52	46
30.3288	30.5083	57	50
30.3689	30.6026	60	54
30.4091	30.5272	84	55
30.5649	30.6849	81	55
30.6644	30.7209	57	54
30.7261	30.8456	57	64
30.7261	30.8456	76	58
30.8456	30.9651	60	60
30.8855	31.005	72	54
30.9651	31.0847	59	64
31.0448	31.1878	69	54
31.0847	31.2393	57	60
31.2393	31.8423	64	68
31.4262	31.5734	68	55
31.4262	31.5734	76	55
31.6272	31.7885	71	52
31.6272	31.7885	80	52
31.8423	32.0036	52	52
31.8423	32.0036	76	49
31.8423	32.0036	88	49
32.3542	32.3936	72	36
32.3936	32.433	81	40
32.433	32.5544	57	54
32.433	32.5544	88	52
32.5949	32.7123	84	44
32.7486	32.868	81	44
32.8472	32.9043	57	43
32.9095	33.029	57	51
32.9095	33.029	76	46
33.029	33.1485	60	48
33.0688	33.1883	72	43
33.1485	33.268	59	51
33.2282	33.3168	69	43
33.268	33.4144	57	48
33.3168	33.3656	68	36
33.3656	33.4144	76	40
33.4144	33.5329	64	52
33.4144	33.5329	83	54
33.5725	33.6888	80	48
33.7261	33.8468	76	47
33.8259	33.8832	52	43
33.8884	34.008	52	51
33.8884	34.008	71	46
34.008	34.1275	55	48
34.0478	34.1673	68	41
34.1275	34.247	54	51
34.2072	34.296	64	40
34.247	34.3941	52	48
34.296	34.3451	72	36
34.3451	34.3941	81	40
34.3941	34.5146	57	54
34.3941	34.5146	88	52
34.5547	34.6728	84	44
34.7105	34.8306	81	44
34.81	34.8666	57	43
34.8717	34.9912	57	51
34.8717	34.9912	76	46
34.9912	35.108	60	48
35.0301	35.1469	72	43
35.108	35.2247	59	51
35.1858	35.3466	69	43
35.2247	35.4076	57	48
35.4076	36.0235	64	54
35.5972	35.7472	68	44
35.5972	35.7472	76	44
35.8025	35.9682	71	41
35.8025	35.9682	80	41
36.0235	36.1892	52	41
36.0235	36.1892	76	39
36.0235	36.1892	88	39
36.4675	36.7445	57	44
36.505	36.7445	64	46
36.5345	36.7445	69	48
36.564	36.7445	81	46
36.5935	36.7445	85	51
36.6231	36.7445	93	65
36.785	36.9036	88	55
36.9412	37.0618	85	55
37.041	37.0981	69	54
37.1033	37.2228	69	64
37.1033	37.2228	81	58
37.2228	37.3423	70	60
37.2626	37.3821	76	54
37.3423	37.4618	69	64
37.422	37.5459	73	54
37.4618	37.5459	67	60
37.5459	37.7089	50	59
37.5879	37.7089	65	66
37.7492	37.8671	69	51
37.7492	37.8671	74	60
37.9045	38.0251	74	50
37.9045	38.0251	77	59
38.0043	38.0616	62	54
38.0668	38.1863	62	64
38.0668	38.1863	77	49
38.0668	38.1863	81	58
38.1863	38.3058	65	60
38.2261	38.3456	81	45
38.2261	38.3456	86	54
38.3058	38.4253	64	64
38.3855	38.4863	86	46
38.3855	38.4863	89	55
38.4253	38.5168	62	60
38.5168	38.7687	55	42
38.5429	38.7687	62	45
38.569	38.7687	67	49
38.5951	38.7687	79	53
38.6211	38.7687	83	56
38.6472	38.7687	91	65
38.8092	38.9277	86	55
38.9653	39.0859	83	55
39.0652	39.1222	67	54
39.1274	39.2469	67	64
39.1274	39.2469	79	58
39.2469	39.3664	69	60
39.2868	39.4063	74	54
39.3664	39.486	67	64
39.4461	39.57	71	54
39.486	39.57	65	60
39.57	39.733	48	59
39.612	39.733	64	66
39.7733	39.8913	67	51
39.7733	39.8913	72	60
39.9286	40.0492	72	50
39.9286	40.0492	76	59
40.0284	40.0857	60	54
40.0909	40.2104	60	64
40.0909	40.2104	76	49
40.0909	40.2104	79	58
40.2104	40.3299	64	60
40.2503	40.3698	79	45
40.2503	40.3698	84	54
40.3299	40.4495	62	64
40.4096	40.5411	84	46
40.4096	40.5411	88	55
40.4495	40.5161	60	60
40.5161	40.7151	50	36
40.5536	40.7151	56	40
40.5911	40.7151	65	54
40.5911	40.7151	83	44
40.5911	40.7151	89	52
40.7564	40.8767	80	37
40.7564	40.8767	86	44
40.9143	41.0348	77	37
40.9143	41.0348	83	44
41.0141	41.0712	59	43
41.0763	41.1959	59	51
41.0763	41.1959	74	39
41.0763	41.1959	80	46
41.1959	41.3154	62	48
41.2357	41.3552	71	36
41.2357	41.3552	77	43
41.3154	41.4349	60	51
41.3951	41.4837	74	43
41.4349	41.5081	59	48
41.4837	41.5325	76	36
41.5081	41.5813	48	47
41.5325	41.5813	81	40
41.5813	41.7022	64	52
41.5813	41.7022	88	54
41.7425	41.8605	84	48
41.8978	42.0185	81	47
41.9976	42.0549	57	43
42.0601	42.1797	57	51
42.0601	42.1797	76	46
42.1797	42.2992	60	48
42.2195	42.339	72	43
42.2992	42.4187	59	51
42.3789	42.5167	69	44
42.4187	42.5658	57	48
42.5658	43.0953	53	54
42.7367	42.8649	63	37
42.7367	42.8649	71	44
42.9076	43.047	69	41
42.9076	43.047	75	41
42.9504	43.0953	59	43
43.0953	43.6665	52	51
43.2269	43.3585	64	48
43.2707	43.405	68	37
43.2707	43.405	76	44
43.3585	43.498	62	51
43.4515	43.6103	71	34
43.4515	43.6103	80	41
43.498	43.6665	59	48
43.6665	44.3928	57	54
43.8616	44.025	72	37
43.8616	44.025	81	44
44.0908	44.3141	76	34
44.0908	44.3141	84	41
44.3928	44.9007	64	31
44.3928	44.9007	72	41
44.3928	44.9007	81	43
44.3928	44.9007	93	51
45.3377	45.8398	41	54
45.3377	45.4737	45	64
45.4632	45.5989	44	60
45.5887	45.7223	45	64
45.7112	45.8398	44	60
45.7776	45.8499	46	63
45.8398	45.9714	45	64
45.9613	46.0929	47	60
46.0827	46.2147	48	64
46.2042	46.3302	50	59
46.3302	46.8339	40	54
46.3302	46.8339	44	54
46.3302	46.4618	52	64
46.4517	46.5831	51	60
46.5732	46.7059	52	64
46.6927	46.8339	51	60
46.7717	46.8439	53	63
46.8339	46.9632	52	64
46.9534	47.0809	50	60
47.0711	47.2006	48	64
47.1887	47.3316	47	59
47.3316	47.8466	41	48
47.3316	47.467	45	57
47.4566	47.5918	44	54
47.5816	47.7178	45	56
47.7045	47.8466	44	52
47.7843	47.8565	46	61
47.8466	47.9761	45	56
47.9661	48.0956	47	52
48.0856	48.2162	48	55
48.2052	48.3373	50	50
48.3373	48.9284	40	45
48.3373	48.9284	44	45
48.3373	48.4762	52	54
48.4655	48.6041	51	50
48.5937	48.7409	52	53
48.7177	48.9284	51	49
48.8566	48.9392	53	51
48.9284	49.124	52	45
49.4457	49.9478	53	54
49.4457	49.5817	57	64
49.5712	49.707	56	60
49.6968	49.8303	57	64
49.8192	49.9478	56	60
49.8856	49.958	58	64
49.9478	50.0794	57	64
50.0693	50.2009	59	60
50.1908	50.3227	60	64
50.3122	50.4383	62	59
50.4383	50.9419	52	54
50.4383	50.9419	56	54
50.4383	50.5699	64	64
50.5597	50.6912	63	60
50.6812	50.8139	64	64
50.8007	50.9419	63	60
50.8797	50.9519	65	63
50.9419	51.0713	64	64
51.0615	51.1889	62	60
51.1791	51.3087	60	64
51.2967	51.4396	59	59
51.4396	51.9546	53	48
51.4396	51.575	57	57
51.5646	51.6999	56	54
51.6896	51.8259	57	56
51.8126	51.9546	56	52
51.8924	51.9646	58	57
51.9546	52.0841	57	56
52.0741	52.2036	59	52
52.1937	52.3242	60	55
52.3132	52.4454	62	50
52.4454	53.0358	52	45
52.4454	53.0358	56	45
52.4454	52.5837	64	54
52.573	52.711	63	50
52.7007	52.8483	64	53
52.8251	53.0358	63	49
52.964	53.0358	65	51
53.0358	53.2315	64	45
53.5532	54.0553	65	54
53.5532	53.6892	69	64
53.6787	53.8144	68	60
53.8042	53.9377	69	64
53.9267	54.0553	68	60
53.9931	54.0654	70	63
54.0553	54.1869	69	64
54.1768	54.3083	67	60
54.2982	54.4302	65	64
54.4197	54.5457	64	59
54.5457	55.0494	53	54
54.5457	55.0494	57	54
54.5457	54.6773	62	64
54.6672	54.7986	61	60
54.7887	54.9213	62	64
54.9082	55.0494	61	60
54.9871	55.0593	63	61
55.0494	55.1789	62	62
55.1689	55.2989	64	60
55.2889	55.4208	65	64
55.4089	55.5518	62	59
55.5518	56.0668	59	49
55.5518	56.0668	62	52
55.5518	55.6872	67	62
55.6768	55.812	66	59
55.8018	55.9381	67	61
55.9248	56.0668	66	57
56.0045	56.0768	68	62
56.0668	56.1973	67	61
56.1873	56.3178	65	57
56.3078	56.4393	64	60
56.4282	56.5604	62	55
56.5604	57.064	52	54
56.5604	57.064	55	54
56.5604	56.692	60	64
56.6819	56.8133	59	60
56.8033	56.936	60	64
56.9229	57.064	59	60
57.0018	57.0741	61	58
57.064	57.195	60	61
57.185	57.3145	62	60
57.3045	57.436	64	64
57.4241	57.5669	60	59
57.5669	58.0691	50	49
57.5669	58.0691	56	54
57.5669	57.7029	65	64
57.6925	57.8282	64	60
57.818	57.9515	65	64
57.9405	58.0691	64	60
58.0068	58.0792	67	60
58.0691	58.2007	65	62
58.1905	58.3221	62	60
58.312	58.444	60	64
58.4335	58.5595	59	59
58.5595	59.0632	48	54
58.5595	59.0632	57	54
58.5595	58.6911	64	64
58.681	58.8124	63	60
58.8024	58.9351	64	64
58.922	59.0632	63	60
59.0009	59.0733	65	61
59.0632	59.1942	64	61
59.1841	59.3152	60	60
59.3051	59.438	59	64
59.4261	59.5689	57	59
59.5689	60.0839	50	45
59.5689	60.0839	53	48
59.5689	59.7044	58	57
59.6939	59.8292	57	54
59.8189	59.9552	58	56
59.9419	60.0839	57	52
60.0217	60.0941	60	56
60.0839	60.3279	52	45
60.0839	60.3279	56	54
60.0839	60.2161	59	56
60.2059	60.338	65	52
60.3279	60.4608	64	55
60.4498	60.582	56	50
60.582	60.7208	57	55
60.7096	60.8551	56	51
60.8436	60.9127	50	52
60.8436	60.9127	53	52
60.8436	60.9949	57	57
60.9818	61.1226	56	49
61.1226	61.1839	48	52
61.1226	61.1839	52	52
61.1226	61.3675	57	54
61.6124	61.7484	45	64
61.738	61.8737	44	60
61.8635	61.997	45	64
61.9859	62.0523	44	60
62.0523	62.1247	46	63
62.1146	62.2461	45	64
62.1146	62.605	52	45
62.1146	62.605	55	45
62.1146	62.605	61	54
62.236	62.3676	43	60
62.3575	62.4894	41	64
62.4789	62.605	40	59
62.605	62.7366	38	64
62.7265	62.8579	37	60
62.8479	62.9806	38	64
62.9675	63.0464	37	60
63.0464	63.1186	39	63
63.1087	63.238	38	64
63.1087	63.6063	53	45
63.1087	63.6063	57	45
63.1087	63.6063	65	54
63.2282	63.3556	40	60
63.3458	63.4754	41	64
63.4635	63.6168	38	59
63.6063	63.7423	43	64
63.7319	63.8676	42	60
63.8574	63.9909	43	64
63.9798	64.0462	42	60
64.0462	64.1186	44	63
64.1085	64.24	43	64
64.1085	64.5989	50	45
64.1085	64.5989	53	45
64.1085	64.5989	59	54
64.2299	64.3615	41	60
64.3514	64.4834	40	64
64.4728	64.5989	38	59
64.5989	64.7305	36	64
64.7204	64.8518	35	60
64.8418	64.9745	36	64
64.9614	65.0403	35	60
65.0403	65.1125	37	63
65.1026	65.2319	36	64
65.1026	65.6002	52	45
65.1026	65.6002	55	45
65.1026	65.6002	64	54
65.2221	65.3495	38	60
65.3397	65.4693	40	64
65.4574	65.6107	36	59
65.6002	65.7362	41	64
65.7258	65.8615	40	60
65.8513	65.9848	41	64
65.9737	66.0401	40	60
66.0401	66.1125	43	63
66.1024	66.2339	41	64
66.1024	66.5928	50	45
66.1024	66.5928	56	45
66.1024	66.5928	59	54
66.2238	66.3554	38	60
66.3453	66.4773	36	64
66.4668	66.6029	35	59
66.5928	66.7244	40	64
66.7143	66.8457	39	60
66.8357	66.9684	40	64
66.9553	67.0342	39	60
67.0342	67.1064	41	63
67.0965	67.2258	40	64
67.0965	67.5941	52	45
67.0965	67.5941	57	45
67.0965	67.5941	60	54
67.216	67.3434	36	60
67.3336	67.4632	35	64
67.4513	67.5941	33	59
67.5941	67.7386	35	64
67.5941	68.1348	53	45
67.5941	68.1348	57	45
67.5941	67.8608	62	54
67.7275	67.8722	34	60
67.8608	68.0092	35	64
67.8608	68.1348	63	54
67.9978	68.1348	34	60
68.1348	68.3846	36	64
68.1348	68.7241	52	45
68.1348	68.7241	56	45
68.1348	68.7241	64	54
68.3538	68.7936	35	60
68.7241	69.5694	41	64
69.5574	69.7003	40	59
69.7003	69.8203	33	54
69.8203	69.9403	32	51
69.9403	70.0589	33	54
70.0589	70.1236	32	51
70.1236	70.1957	34	53
70.1858	70.3044	33	54
70.1858	70.423	53	38
70.1858	70.423	57	38
70.1858	70.423	62	45
70.3044	70.423	32	51
70.423	70.5415	33	54
70.5415	70.663	32	50
70.663	70.7821	33	54
70.663	70.9011	52	38
70.663	70.9011	57	38
70.663	70.9011	60	45
70.7821	70.9011	32	51
70.9011	71.0221	33	54
71.0221	71.0884	32	51
71.0884	71.1608	34	53
71.1507	71.2721	33	51
71.1507	71.3936	50	35
71.1507	71.3936	53	35
71.1507	71.3936	57	43
71.2721	71.3936	32	47
71.3936	71.5151	33	50
71.5151	71.6411	32	45
71.6411	71.7763	33	48
71.6411	71.9114	48	34
71.6411	71.9114	52	34
71.6411	71.9114	57	40
71.7763	71.9114	32	44
71.9114	72.0424	33	45
72.0424	72.1159	32	41
72.1159	72.1953	34	43
72.1838	72.3214	33	43
72.1838	72.459	50	30
72.1838	72.459	53	36
72.3214	72.459	32	39
72.459	72.6019	33	40
72.6019	72.7859	32	36
72.7859	73.154	33	35
72.7859	73.154	48	24
72.7859	73.154	52	24
72.7859	73.154	57	29
74.2583	74.8104	36	56
74.2583	74.8104	48	67
74.2583	74.4155	57	68
74.2583	74.4155	69	78
74.3875	74.4521	63	61
74.3875	74.4521	66	74
74.6578	74.8104	51	46
74.6578	74.8104	54	46
74.6578	74.8104	57	53
74.6578	74.8104	60	54
74.6578	74.8104	69	61
74.8104	74.9395	51	51
74.8104	74.9395	54	51
74.8104	74.9395	57	65
74.8104	74.9395	60	60
74.8104	74.9395	69	74
74.9395	75.0687	60	60
74.9395	75.0687	72	69
75.0687	75.345	33	52
75.0687	75.345	45	62
75.0687	75.345	59	65
75.0687	75.345	71	74
75.1988	75.345	57	60
75.1988	75.345	69	69
75.3331	75.5925	32	62
75.3331	75.5925	44	74
75.3331	75.5428	64	68
75.3331	75.5428	76	78
75.4628	75.5428	68	61
75.4628	75.5428	71	74
75.5925	75.8784	35	59
75.5925	75.8784	47	72
75.7311	75.8784	64	53
75.7311	75.8784	76	61
75.8784	76.4106	40	67
75.8784	76.4106	44	67
75.8784	76.4106	52	81
75.8784	76.0098	64	65
75.8784	76.0098	76	74
76.0098	76.1412	67	60
76.0098	76.1412	79	69
76.1412	76.4106	65	65
76.1412	76.4106	77	74
76.2726	76.4106	64	60
76.2726	76.4106	76	69
76.4106	76.9484	36	63
76.4106	76.9484	48	75
76.4106	76.5677	57	71
76.4106	76.5677	69	81
76.5398	76.6043	63	65
76.5398	76.6043	66	76
76.7981	76.9484	51	48
76.7981	76.9484	54	48
76.7981	76.9484	57	56
76.7981	76.9484	60	57
76.7981	76.9484	69	65
76.9484	77.0775	51	53
76.9484	77.0775	54	53
76.9484	77.0775	57	67
76.9484	77.0775	60	63
76.9484	77.0775	69	76
77.0775	77.2067	60	63
77.0775	77.2067	72	72
77.2067	77.4833	33	55
77.2067	77.4833	45	64
77.2067	77.4833	59	67
77.2067	77.4833	71	76
77.3368	77.4833	57	63
77.3368	77.4833	69	72
77.4711	77.7373	35	59
77.4711	77.7373	47	71
77.4711	77.6863	56	71
77.4711	77.6863	68	81
77.6042	77.6863	59	76
77.7373	78.3228	39	66
77.7373	78.3228	51	79
77.8799	78.3228	63	72
78.0224	78.3228	41	73
78.0224	78.3228	53	86
78.0224	78.3228	56	70
78.0224	78.3228	59	70
78.0224	78.3228	65	82
78.3074	78.5924	40	70
78.3074	78.5924	52	82
78.3074	78.4499	64	78
78.5924	79.1444	36	61
78.5924	79.1444	48	73
78.5924	78.7495	69	74
78.5924	78.7495	81	86
78.7215	78.7861	75	68
78.7215	78.7861	78	81
78.9919	79.1444	51	46
78.9919	79.1444	54	46
78.9919	79.1444	60	54
78.9919	79.1444	69	58
78.9919	79.1444	81	68
79.1444	79.2736	51	51
79.1444	79.2736	54	51
79.1444	79.2736	60	60
79.1444	79.2736	69	70
79.1444	79.2736	81	81
79.2736	79.4028	72	67
79.2736	79.4028	84	75
79.4028	79.6791	33	52
79.4028	79.6791	45	62
79.4028	79.6791	71	70
79.4028	79.6791	83	81
79.5328	79.6791	69	67
79.5328	79.6791	81	75
79.6672	79.9266	32	62
79.6672	79.9266	44	74
79.6672	79.8769	76	74
79.6672	79.8769	88	86
79.7969	79.8769	80	68
79.7969	79.8769	83	81
79.9266	80.2125	35	59
79.9266	80.2125	47	72
80.0652	80.2125	76	58
80.0652	80.2125	88	68
80.2125	80.7447	40	67
80.2125	80.7447	44	67
80.2125	80.7447	52	81
80.2125	80.3439	76	70
80.2125	80.3439	88	81
80.3439	80.4753	79	67
80.3439	80.4753	91	75
80.4753	80.7447	77	70
80.4753	80.7447	89	81
80.6067	80.7447	76	67
80.6067	80.7447	88	75
80.7447	81.2824	36	63
80.7447	81.2824	48	75
80.7447	80.9018	69	77
80.7447	80.9018	81	89
80.8738	80.9384	75	71
80.8738	80.9384	78	84
81.1322	81.2824	51	48
81.1322	81.2824	54	48
81.1322	81.2824	60	57
81.1322	81.2824	69	61
81.1322	81.2824	81	71
81.2824	81.4116	51	53
81.2824	81.4116	54	53
81.2824	81.4116	60	63
81.2824	81.4116	69	70
81.2824	81.4116	81	80
81.4116	81.5408	72	67
81.4116	81.5408	84	75
81.5408	81.8174	33	55
81.5408	81.8174	45	64
81.5408	81.8174	71	70
81.5408	81.8174	83	80
81.6709	81.8174	69	67
81.6709	81.8174	81	75
81.8052	82.0714	35	59
81.8052	82.0714	47	71
81.8052	82.0204	68	74
81.8052	82.0204	80	86
81.9383	82.0204	71	75
81.9383	82.0204	83	80
82.0714	82.6569	39	66
82.0714	82.6569	51	79
82.2139	82.6569	75	64
82.2139	82.6569	87	75
82.3564	82.6569	41	73
82.3564	82.6569	53	86
82.3564	82.6569	77	63
82.3564	82.6569	89	87
82.6414	82.9265	40	70
82.6414	82.9265	52	82
82.6414	82.784	76	69
82.6414	82.784	88	82
82.9265	83.4785	45	61
82.9265	83.4785	52	61
82.9265	83.326	61	73
82.9265	83.0836	79	77
82.9265	83.0836	81	77
82.9265	83.0836	93	90
83.0556	83.1202	85	70
83.0556	83.1202	88	85
83.326	83.4785	61	46
83.326	83.4785	64	46
83.326	83.4785	69	54
83.326	83.4785	81	60
83.326	83.4785	93	70
83.4785	83.6077	61	51
83.4785	83.6077	64	51
83.4785	83.6077	69	60
83.4785	83.6077	81	74
83.4785	83.6077	93	85
83.6077	83.7368	82	69
83.6077	83.7368	94	78
83.7368	84.0131	37	52
83.7368	84.0131	52	62
83.7368	84.0131	81	74
83.7368	84.0131	93	85
83.8669	84.0131	79	69
83.8669	84.0131	91	78
84.0012	84.2607	38	62
84.0012	84.2607	53	74
84.0012	84.2109	77	77
84.0012	84.2109	89	90
84.1309	84.2109	81	70
84.1309	84.2109	86	85
84.2607	84.5466	40	59
84.2607	84.5466	55	72
84.3992	84.5466	73	60
84.3992	84.5466	85	70
84.5466	84.8094	41	67
84.5466	84.8094	56	81
84.5466	84.678	74	74
84.5466	84.678	86	85
84.678	84.8094	77	69
84.678	84.8094	89	78
84.8094	85.0831	42	72
84.8094	85.0831	57	85
84.8094	85.0831	75	74
84.8094	85.0831	87	85
84.9408	85.0831	74	69
84.9408	85.0831	86	78
85.0787	85.6308	43	61
85.0787	85.6308	50	61
85.0787	85.4783	59	73
85.0787	85.2359	77	77
85.0787	85.2359	79	77
85.0787	85.2359	91	90
85.2079	85.2725	83	70
85.2079	85.2725	86	85
85.4783	85.6308	59	46
85.4783	85.6308	62	46
85.4783	85.6308	67	54
85.4783	85.6308	79	60
85.4783	85.6308	91	70
85.6308	85.76	59	51
85.6308	85.76	62	51
85.6308	85.76	67	60
85.6308	85.76	79	74
85.6308	85.76	91	85
85.76	85.8891	80	69
85.76	85.8891	92	78
85.8891	86.1654	35	52
85.8891	86.1654	50	62
85.8891	86.1654	79	74
85.8891	86.1654	91	85
86.0192	86.1654	77	69
86.0192	86.1654	89	78
86.1535	86.4129	36	62
86.1535	86.4129	52	74
86.1535	86.3632	76	77
86.1535	86.3632	88	90
86.2832	86.3632	79	70
86.2832	86.3632	84	85
86.4129	86.6989	38	59
86.4129	86.6989	53	72
86.5515	86.6989	71	60
86.5515	86.6989	83	70
86.6989	86.9617	39	67
86.6989	86.9617	54	81
86.6989	86.8303	72	74
86.6989	86.8303	84	85
86.8303	86.9617	75	69
86.8303	86.9617	87	78
86.9617	87.2353	40	72
86.9617	87.2353	55	85
86.9617	87.2353	73	74
86.9617	87.2353	85	85
87.0931	87.2353	72	69
87.0931	87.2353	84	78
87.231	87.3882	41	61
87.231	87.3882	47	61
87.231	87.3882	50	61
87.231	87.3882	56	73
87.231	87.3882	77	77
87.231	87.3882	89	90
87.3602	87.4248	80	70
87.3602	87.4248	83	85
87.6305	87.7831	62	46
87.6305	87.7831	65	54
87.6305	87.7831	68	53
87.6305	87.7831	71	61
87.7831	87.9122	62	51
87.7831	88.3058	65	60
87.7831	88.3058	68	65
87.7831	87.9122	71	74
87.9122	88.0414	59	51
87.9122	88.0414	74	69
88.0414	88.1715	60	51
88.0414	88.1715	72	74
88.1715	88.3058	62	51
88.1715	88.3058	71	69
88.3058	88.463	40	56
88.3058	88.463	48	56
88.3058	88.463	57	67
88.3058	88.463	76	77
88.3058	88.463	88	90
88.435	88.4996	81	70
88.435	88.4996	84	85
88.7053	88.8579	60	59
88.7053	88.8579	64	65
88.7053	88.8579	69	73
88.8579	88.987	60	65
88.8579	89.3922	64	72
88.8579	88.987	69	81
88.987	89.1162	57	56
88.987	89.1162	72	75
89.1162	89.2463	59	56
89.1162	89.2463	71	81
89.2463	89.3922	60	56
89.2463	89.3922	69	76
89.3922	89.998	47	49
89.3922	89.998	53	49
89.3922	89.998	57	58
89.3922	89.5646	62	65
89.3922	89.5646	74	77
89.5646	89.7081	65	64
89.5646	89.7081	77	75
89.7081	89.8531	64	64
89.7081	89.8531	76	75
89.8531	89.998	63	59
89.8531	89.998	75	71
89.998	90.6155	40	47
89.998	90.6155	56	56
89.998	90.1451	64	64
89.998	90.1451	76	75
90.1451	90.3046	59	58
90.1451	90.3046	71	70
90.3046	90.4601	62	62
90.3046	90.4601	74	73
90.4601	90.6155	60	58
90.4601	90.6155	72	70
90.6155	91.2611	45	31
90.6155	91.3087	50	58
90.6155	91.0981	52	58
90.6155	91.3087	56	37
90.6155	91.3087	59	43
90.6155	91.0981	64	75
90.6155	91.3087	71	57
90.792	91.3087	55	58
90.792	91.3087	67	69
90.945	91.3087	53	55
90.945	91.3087	65	65
91.0981	91.4242	52	51
91.0981	91.4242	64	63
91.2611	91.4242	45	48
91.2611	91.4242	48	58
91.2611	91.4242	57	53
91.2611	91.4242	69	63
91.9627	92.0447	57	40
91.9627	92.0447	60	40
91.9627	92.0447	69	48
91.9627	92.2618	81	50
92.1266	92.2852	93	57
92.2618	92.3322	64	40
92.2618	92.3322	72	48
92.2618	92.4273	80	48
92.2618	92.4273	92	57
92.4026	92.5738	79	47
92.4026	92.5738	91	56
92.5504	92.6205	62	39
92.5504	92.6205	71	47
92.5504	92.714	78	47
92.5504	92.714	90	56
92.6906	92.8541	77	46
92.6906	92.8541	89	55
92.8308	92.9009	60	38
92.8308	92.9009	69	45
92.8308	92.9947	76	46
92.8308	92.9947	88	55
92.971	93.1131	75	45
92.971	93.1131	87	54
93.1131	93.1819	52	40
93.1131	93.1819	56	40
93.1131	93.1819	64	48
93.1131	93.2724	77	48
93.1131	93.2724	89	57
93.2495	93.4103	76	42
93.2495	93.4103	88	50
93.3871	93.4568	59	37
93.3871	93.4568	67	44
93.3871	93.5499	75	45
93.3871	93.5499	87	54
93.5266	93.6661	77	42
93.5266	93.6661	89	50
93.6661	93.7359	57	42
93.6661	93.7359	65	50
93.6661	93.8291	76	45
93.6661	93.8291	88	53
93.8057	93.97	83	52
93.9465	94.0169	56	39
93.9465	94.0169	64	47
93.9465	94.1108	71	43
93.9465	94.1108	80	51
94.0873	94.2282	76	50
94.2282	94.3102	57	40
94.2282	94.3102	60	40
94.2282	94.3102	69	48
94.2282	94.5272	81	50
94.3921	94.5511	93	57
94.5272	94.5987	64	40
94.5272	94.5987	72	48
94.5272	94.6937	80	48
94.5272	94.6937	92	57
94.6701	94.8347	79	47
94.6701	94.8347	91	56
94.8116	94.8807	62	39
94.8116	94.8807	71	47
94.8116	94.9729	78	47
94.8116	94.9729	90	56
94.9499	95.1111	77	46
94.9499	95.1111	89	55
95.0881	95.1572	60	38
95.0881	95.1572	69	45
95.0881	95.25	76	46
95.0881	95.25	88	55
95.2263	95.3685	75	45
95.2263	95.3685	87	54
95.3685	95.5048	57	40
95.3685	95.5048	60	40
95.3685	95.5048	65	48
95.3685	95.5278	77	48
95.3685	95.5278	89	57
95.5048	95.6641	76	42
95.5048	95.6641	88	50
95.6417	95.7995	75	45
95.6417	95.7995	87	54
95.7768	95.9405	77	42
95.7768	95.9405	89	50
95.9142	96.0721	52	42
95.9142	96.0721	56	42
95.9142	96.0721	64	50
95.9142	96.0721	76	45
95.9142	96.0721	88	53
96.2299	96.3878	76	53
96.5457	96.6277	57	40
96.5457	96.6277	60	40
96.5457	96.6277	69	48
96.5457	96.8381	81	50
96.7097	96.8606	93	57
96.8381	96.9058	64	40
96.8381	96.9058	72	48
96.8381	96.997	80	48
96.8381	96.997	92	57
96.9735	97.1387	79	47
96.9735	97.1387	91	56
97.115	97.1861	62	39
97.115	97.1861	71	47
97.115	97.2808	78	47
97.115	97.2808	90	56
97.2571	97.423	77	46
97.2571	97.423	89	55
97.3993	97.4704	60	38
97.3993	97.4704	69	45
97.3993	97.5652	76	46
97.3993	97.5652	88	55
97.5415	97.6837	75	45
97.5415	97.6837	87	54
97.6837	97.7524	52	40
97.6837	97.7524	56	40
97.6837	97.7524	64	48
97.6837	97.8429	77	48
97.6837	97.8429	89	57
97.82	97.9806	76	42
97.82	97.9806	88	50
97.9576	98.0264	59	37
97.9576	98.0264	67	44
97.9576	98.1182	75	45
97.9576	98.1182	87	54
98.0952	98.2328	77	42
98.0952	98.2328	89	50
98.2328	98.3017	57	42
98.2328	98.3017	65	50
98.2328	98.3939	76	45
98.2328	98.3939	88	53
98.3705	98.5348	83	52
98.5113	98.5817	56	39
98.5113	98.5817	64	47
98.5113	98.6756	71	43
98.5113	98.6756	80	51
98.6522	98.793	76	50
98.793	98.8684	57	40
98.793	98.8684	60	40
98.793	98.8684	69	48
98.793	99.0789	81	50
98.9438	99.1011	93	57
99.0789	99.1454	64	40
99.0789	99.1454	72	48
99.0789	99.2355	80	48
99.0789	99.2355	92	57
99.2119	99.3764	79	47
99.2119	99.3764	91	56
99.3534	99.4225	62	39
99.3534	99.4225	71	47
99.3534	99.5147	78	47
99.3534	99.5147	90	56
99.4916	99.6533	77	46
99.4916	99.6533	89	55
99.6299	99.7001	60	38
99.6299	99.7001	69	45
99.6299	99.794	76	46
99.6299	99.794	88	55
99.7703	99.9125	75	45
99.7703	99.9125	87	54
99.9125	100.049	57	40
99.9125	100.049	60	40
99.9125	100.049	65	48
99.9125	100.072	77	48
99.9125	100.072	89	57
100.049	100.21	76	42
100.049	100.21	88	50
100.186	100.352	75	45
100.186	100.352	87	54
100.329	100.497	77	42
100.329	100.497	89	50
100.471	100.629	52	42
100.471	100.629	56	42
100.471	100.629	64	50
100.471	100.629	76	45
100.471	100.629	88	53
100.787	100.944	76	53
101.102	101.184	57	44
101.102	101.184	61	44
101.102	101.184	69	52
101.102	101.401	81	55
101.265	101.425	93	62
101.401	101.473	62	44
101.401	101.473	70	52
101.401	101.569	80	52
101.401	101.569	92	62
101.545	101.716	79	51
101.545	101.716	91	61
101.693	101.763	61	42
101.693	101.763	69	51
101.693	101.856	78	51
101.693	101.856	90	61
101.833	101.996	77	50
101.833	101.996	89	60
101.973	102.043	58	41
101.973	102.043	67	49
101.973	102.137	76	50
101.973	102.137	88	60
102.113	102.255	74	49
102.113	102.255	86	59
102.255	102.324	57	44
102.255	102.324	65	52
102.255	102.529	73	52
102.255	102.415	85	62
102.392	102.552	88	55
102.529	102.599	55	40
102.529	102.599	64	48
102.529	102.808	73	49
102.529	102.692	81	59
102.669	102.808	85	55
102.808	102.878	53	46
102.808	102.878	62	55
102.808	103.089	74	49
102.808	102.971	86	58
102.948	103.112	81	57
103.089	103.159	50	42
103.089	103.159	65	51
103.089	103.37	69	47
103.089	103.253	77	56
103.229	103.37	74	55
103.37	103.445	55	46
103.37	103.445	59	46
103.37	103.445	67	54
103.37	103.654	79	57
103.519	103.678	91	65
103.654	103.726	60	46
103.654	103.726	68	54
103.654	103.823	78	54
103.654	103.823	90	65
103.798	103.969	77	53
103.798	103.969	89	64
103.946	104.015	59	44
103.946	104.015	67	53
103.946	104.104	76	53
103.946	104.104	88	64
104.082	104.239	75	52
104.082	104.239	87	63
104.216	104.283	56	43
104.216	104.283	65	51
104.216	104.374	74	52
104.216	104.374	86	63
104.35	104.493	72	51
104.35	104.493	84	61
104.493	104.561	55	46
104.493	104.561	64	54
104.493	104.766	71	54
104.493	104.652	83	65
104.629	104.79	86	57
104.766	104.836	53	42
104.766	104.836	62	50
104.766	105.046	71	51
104.766	104.929	79	61
104.906	105.046	83	57
105.046	105.115	52	48
105.046	105.115	60	57
105.046	105.326	72	51
105.046	105.209	84	60
105.185	105.349	79	59
105.326	105.396	48	44
105.326	105.396	64	53
105.326	105.621	67	49
105.326	105.493	76	58
105.467	105.621	72	57
105.621	105.83	50	40
105.621	105.83	56	40
105.621	105.83	59	40
105.621	105.83	65	48
105.621	105.83	77	56
105.726	105.83	93	70
105.978	106.137	76	48
105.978	106.137	88	57
106.113	106.277	75	47
106.113	106.277	87	56
106.254	106.413	74	56
106.391	106.55	73	46
106.391	106.55	85	55
106.527	106.689	72	46
106.527	106.689	84	55
106.663	106.82	71	45
106.663	106.82	83	54
106.82	107.031	48	40
106.82	107.031	57	40
106.82	107.031	64	48
106.82	107.031	76	60
106.925	107.031	91	74
107.175	107.335	75	48
107.175	107.335	87	57
107.311	107.481	74	47
107.311	107.481	86	56
107.459	107.618	72	56
107.595	107.754	71	46
107.595	107.754	83	55
107.731	107.891	70	46
107.731	107.891	82	55
107.868	108.01	69	45
107.868	108.01	81	54
108.01	108.08	57	48
108.01	108.08	65	56
108.15	108.314	64	46
108.15	108.314	76	55
108.29	108.454	63	46
108.29	108.454	75	55
108.43	108.573	62	45
108.43	108.573	74	54
108.573	108.643	56	48
108.573	108.643	64	56
108.713	108.876	60	46
108.713	108.876	72	55
108.853	109.017	59	46
108.853	109.017	71	55
108.993	109.135	58	45
108.993	109.135	70	54
109.135	109.322	57	58
109.298	109.466	53	49
109.298	109.466	65	56
109.442	109.609	52	49
109.442	109.609	64	55
109.585	109.754	51	48
109.585	109.754	63	54
109.73	109.9	50	47
109.73	109.9	62	52
109.876	110.047	48	46
109.876	110.047	60	51
110.022	110.195	47	46
110.022	110.195	59	50
110.17	110.319	46	45
110.17	110.319	58	49
110.319	111.236	45	48
110.319	111.236	57	50
110.647	111.236	81	48
110.647	111.236	89	57
110.788	111.236	77	47
110.788	111.236	84	56
110.936	111.236	69	42
110.936	111.236	76	50
111.076	111.266	64	41
111.076	111.266	72	49
111.241	111.338	48	51
111.241	111.338	60	53
111.338	111.435	47	49
111.338	111.435	59	52
111.435	111.531	45	47
111.435	111.531	57	51
111.531	112.45	44	48
111.531	112.45	56	50
111.852	112.45	80	48
111.852	112.45	87	57
111.993	112.45	75	47
111.993	112.45	83	56
112.141	112.45	68	42
112.141	112.45	76	50
112.281	112.471	64	41
112.281	112.471	71	49
112.447	112.542	40	40
112.447	112.542	52	44
112.542	112.638	42	44
112.542	112.638	54	46
112.638	112.732	44	47
112.638	112.732	56	48
112.732	113.636	45	48
112.732	113.636	57	50
113.055	113.636	81	48
113.055	113.636	89	57
113.19	113.636	77	47
113.19	113.636	84	56
113.334	113.636	69	42
113.334	113.636	76	50
113.475	113.665	64	41
113.475	113.665	72	49
113.641	113.737	48	51
113.641	113.737	60	53
113.737	113.834	47	49
113.737	113.834	59	52
113.834	113.93	45	47
113.834	113.93	57	51
113.93	114.81	44	48
113.93	114.81	56	50
114.233	114.81	80	48
114.233	114.81	87	57
114.374	114.81	75	47
114.374	114.81	83	56
114.521	114.81	68	42
114.521	114.81	76	50
114.662	114.858	64	41
114.662	114.858	71	49
114.97	115.043	40	70
114.97	115.043	52	84
115.043	115.116	42	74
115.043	115.116	54	88
115.116	115.189	44	78
115.116	115.189	56	90
115.189	116.101	33	81
115.189	116.101	45	81
115.189	116.101	57	93
115.517	116.101	81	75
115.517	116.101	89	89
115.657	116.101	77	73
115.657	116.101	84	88
115.801	116.101	69	66
115.801	116.101	76	78
115.941	116.131	64	64
115.941	116.131	72	76
116.107	116.397	48	83
116.107	116.397	60	91
116.204	116.397	47	80
116.204	116.397	59	89
116.3	116.397	45	77
116.3	116.397	57	86
116.397	117.307	44	83
116.397	117.307	56	91
116.401	117.307	32	83
116.718	117.307	80	75
116.718	117.307	87	89
116.853	117.307	75	73
116.853	117.307	83	88
116.996	117.307	68	66
116.996	117.307	76	78
117.136	117.327	64	64
117.136	117.327	71	76
117.303	117.597	40	72
117.303	117.597	52	74
117.399	117.597	42	77
117.399	117.597	54	81
117.494	117.597	44	80
117.494	117.597	56	86
117.589	118.493	33	84
117.589	118.493	45	84
117.589	118.493	57	93
117.897	118.493	81	75
117.897	118.493	89	89
118.042	118.493	77	73
118.042	118.493	84	88
118.189	118.493	69	66
118.189	118.493	76	78
118.33	118.522	64	64
118.33	118.522	72	76
118.498	118.787	48	86
118.498	118.787	60	86
118.594	118.787	47	84
118.594	118.787	59	85
118.691	118.787	45	81
118.691	118.787	57	83
118.787	119.661	44	82
118.787	119.661	56	82
118.792	119.661	32	82
119.09	119.661	80	75
119.09	119.661	87	89
119.231	119.661	75	73
119.231	119.661	83	88
119.378	119.661	68	66
119.378	119.661	76	78
119.513	119.703	64	64
119.513	119.703	71	76
119.801	119.874	45	42
119.801	119.874	57	47
119.874	119.946	47	45
119.874	119.946	59	49
119.946	120.019	48	48
119.946	120.019	60	51
120.019	120.938	37	43
120.019	120.938	49	50
120.019	120.938	61	53
120.347	120.938	88	48
120.347	120.938	94	57
120.488	120.938	82	47
120.488	120.938	91	56
120.636	120.938	76	42
120.636	120.938	81	50
120.776	120.968	69	41
120.776	120.968	79	49
120.944	121.04	45	54
120.944	121.04	57	52
121.04	121.137	47	56
121.04	121.137	59	56
121.137	121.233	49	58
121.137	121.233	61	58
121.233	122.141	38	53
121.233	122.141	50	60
121.233	122.141	62	62
121.554	122.141	81	56
121.554	122.141	88	66
121.69	122.141	76	55
121.69	122.141	86	65
121.831	122.141	69	48
121.831	122.141	77	58
121.971	122.162	65	47
121.971	122.162	74	57
122.138	122.233	52	51
122.138	122.233	64	57
122.233	122.329	50	54
122.233	122.329	62	59
122.329	122.423	48	58
122.329	122.423	60	61
122.423	123.345	35	57
122.423	123.345	47	60
122.423	123.345	59	64
122.751	123.345	86	58
122.751	123.345	92	70
122.892	123.345	80	57
122.892	123.345	89	69
123.04	123.345	74	52
123.04	123.345	79	61
123.183	123.374	67	50
123.183	123.374	77	60
123.35	123.447	43	71
123.35	123.447	55	74
123.447	123.543	45	73
123.447	123.543	57	78
123.543	123.64	47	75
123.543	123.64	59	82
123.64	124.544	36	65
123.64	124.544	48	77
123.64	124.544	60	85
123.954	124.544	79	68
123.954	124.544	87	80
124.095	124.544	75	67
124.095	124.544	84	79
124.243	124.544	67	59
124.243	124.544	76	70
124.383	124.574	64	58
124.383	124.574	72	69
124.55	124.646	47	75
124.55	124.646	59	78
124.646	124.743	48	78
124.646	124.743	60	80
124.743	124.839	49	82
124.743	124.839	61	83
124.839	125.759	38	72
124.839	125.759	50	85
124.839	125.759	62	86
125.167	125.759	86	72
125.167	125.759	95	86
125.301	125.759	83	71
125.301	125.759	89	85
125.457	125.759	74	63
125.457	125.759	82	74
125.597	125.789	70	60
125.597	125.789	77	73
125.764	125.861	46	79
125.764	125.861	58	83
125.861	125.958	48	83
125.861	125.958	60	87
125.958	126.054	50	87
125.958	126.054	62	91
126.054	126.972	40	77
126.054	126.972	52	91
126.054	126.972	64	94
126.382	126.972	83	79
126.382	126.972	92	94
126.523	126.972	80	78
126.523	126.972	86	93
126.671	126.972	72	70
126.671	126.972	81	82
126.811	127.002	69	68
126.811	127.002	76	81
126.978	127.074	53	85
126.978	127.074	65	87
127.074	127.171	52	88
127.074	127.171	64	90
127.171	127.267	51	90
127.171	127.267	63	94
127.267	128.185	38	79
127.267	127.785	50	93
127.267	128.185	62	97
127.595	128.185	47	77
127.595	128.185	81	94
127.595	128.185	89	94
127.689	128.185	48	79
127.736	128.185	77	91
127.736	128.185	83	91
127.785	128.185	50	82
127.884	128.185	40	77
127.884	128.185	52	80
127.884	128.185	68	88
127.884	128.185	76	88
128.037	128.217	64	85
128.037	128.217	71	85
128.19	128.3	50	77
128.19	128.3	62	82
128.3	128.412	48	86
128.3	128.412	60	86
128.412	128.526	47	90
128.412	128.526	59	90
128.526	129.469	33	93
128.526	129.469	45	93
128.526	129.469	57	97
128.864	129.469	64	78
128.864	129.469	72	88
128.864	129.191	88	89
128.864	129.469	96	106
129.026	129.469	84	103
129.191	129.469	60	76
129.191	129.469	69	88
129.191	129.469	88	89
129.191	129.469	93	106
129.357	129.551	81	103
129.851	129.961	33	60
129.851	129.961	36	71
129.851	130.709	88	89
129.851	130.709	96	89
129.851	130.709	100	105
129.997	130.106	35	53
129.997	130.106	38	63
130.142	130.249	36	61
130.142	130.249	40	72
130.285	130.391	38	56
130.285	130.391	41	66
130.427	130.532	40	62
130.427	130.532	44	74
130.568	130.673	41	58
130.568	130.673	45	68
130.709	130.814	44	63
130.709	130.814	47	75
130.709	130.814	86	74
130.709	130.814	95	74
130.709	130.814	98	88
130.849	130.955	45	59
130.849	130.955	48	69
130.849	130.955	84	74
130.849	130.955	93	74
130.849	130.955	96	88
130.99	131.092	47	66
130.99	131.092	50	78
130.99	131.092	83	82
130.99	131.092	92	97
130.99	131.092	95	97
131.125	131.227	48	60
131.125	131.227	52	70
131.125	131.227	81	74
131.125	131.227	89	74
131.125	131.227	93	88
131.261	131.362	50	66
131.261	131.362	53	78
131.261	131.362	80	78
131.261	131.362	88	78
131.261	131.362	92	92
131.396	131.501	52	60
131.396	131.501	56	70
131.396	131.501	77	74
131.396	131.501	86	74
131.396	131.501	89	88
131.537	131.639	53	66
131.537	131.639	57	78
131.537	131.639	76	78
131.537	131.639	84	78
131.537	131.639	88	92
131.673	131.775	56	66
131.673	131.775	59	78
131.673	131.775	74	75
131.673	131.775	83	75
131.673	131.775	86	90
131.809	131.912	57	66
131.809	131.912	60	78
131.809	131.912	72	77
131.809	131.912	81	77
131.809	131.912	84	91
131.946	132.056	59	61
131.946	132.056	62	72
131.946	132.056	71	77
131.946	132.056	80	77
131.946	132.056	83	90
132.093	132.195	57	66
132.093	132.195	60	78
132.093	132.947	72	81
132.093	132.947	81	81
132.093	132.947	84	95
132.229	132.334	59	62
132.229	132.334	62	74
132.369	132.479	60	64
132.369	132.479	64	77
132.515	132.634	62	67
132.515	132.634	65	79
132.674	132.776	62	69
132.674	132.776	65	82
132.81	132.912	60	67
132.81	132.912	64	80
132.947	133.092	59	66
132.947	133.092	62	79
132.947	133.092	74	74
132.947	133.092	83	74
132.947	133.092	86	88
133.083	133.255	57	64
133.083	133.255	60	77
133.083	133.255	76	74
133.083	133.255	84	74
133.083	133.255	88	88
133.231	133.379	59	60
133.231	133.379	62	71
133.231	133.379	74	80
133.231	133.379	83	95
133.231	133.379	86	95
133.372	133.526	57	58
133.372	133.526	60	70
133.372	133.526	72	79
133.372	133.526	81	79
133.372	133.526	84	93
133.513	133.667	56	57
133.513	133.667	59	67
133.513	133.667	71	75
133.513	133.667	80	75
133.513	133.667	83	90
133.654	133.822	53	55
133.654	133.822	57	64
133.654	133.822	69	74
133.654	133.822	77	74
133.654	133.822	81	88
133.801	134.444	52	51
133.801	134.444	56	62
133.801	134.444	68	72
133.801	134.444	76	72
133.801	134.444	80	85
134.444	134.555	33	60
134.444	134.555	45	71
134.444	135.303	88	89
134.444	135.303	96	89
134.444	135.303	100	105
134.592	134.7	35	53
134.592	134.7	47	63
134.736	134.844	36	61
134.736	134.844	48	72
134.88	134.986	38	56
134.88	134.986	50	66
135.021	135.127	40	62
135.021	135.127	52	74
135.162	135.268	41	58
135.162	135.268	53	68
135.303	135.409	44	63
135.303	135.409	56	75
135.303	135.409	86	74
135.303	135.409	95	74
135.303	135.409	98	88
135.444	135.55	45	59
135.444	135.55	57	69
135.444	135.55	84	74
135.444	135.55	93	74
135.444	135.55	96	88
135.585	135.686	47	66
135.585	135.686	59	78
135.585	135.686	83	82
135.585	135.686	92	97
135.585	135.686	95	97
135.72	135.821	48	60
135.72	135.821	60	70
135.72	135.821	81	74
135.72	135.821	89	74
135.72	135.821	93	88
135.855	135.956	50	66
135.855	135.956	62	78
135.855	135.956	80	78
135.855	135.956	88	78
135.855	135.956	92	92
135.99	136.096	52	60
135.99	136.096	64	70
135.99	136.096	77	74
135.99	136.096	86	74
135.99	136.096	89	88
136.131	136.233	53	66
136.131	136.233	65	78
136.131	136.233	76	78
136.131	136.233	84	78
136.131	136.233	88	92
136.267	136.37	56	66
136.267	136.37	68	78
136.267	136.37	74	77
136.267	136.37	83	77
136.267	136.37	86	91
136.404	136.506	57	66
136.404	136.506	69	78
136.404	136.506	72	78
136.404	136.506	81	78
136.404	136.506	84	93
136.54	136.65	59	61
136.54	136.65	71	72
136.54	136.65	80	78
136.54	136.65	83	92
136.687	136.789	57	66
136.687	136.789	69	78
136.687	137.529	72	77
136.687	137.529	81	77
136.687	137.529	84	91
136.824	136.929	56	62
136.824	136.929	68	74
136.964	137.072	53	64
136.964	137.072	65	77
137.109	137.219	52	67
137.109	137.219	64	79
137.256	137.358	53	69
137.256	137.358	65	82
137.392	137.495	52	67
137.392	137.495	64	80
137.529	137.674	50	66
137.529	137.674	62	79
137.529	137.674	74	74
137.529	137.674	83	74
137.529	137.674	86	88
137.665	137.837	48	64
137.665	137.837	60	77
137.665	137.837	76	74
137.665	137.837	84	74
137.665	137.837	88	88
137.814	137.962	47	60
137.814	137.962	59	71
137.814	137.962	74	80
137.814	137.962	86	95
137.955	138.108	45	58
137.955	138.108	57	70
137.955	138.108	72	79
137.955	138.108	84	93
138.095	138.25	44	57
138.095	138.25	56	67
138.095	138.25	71	75
138.095	138.25	83	90
138.236	138.404	53	55
138.236	138.404	65	64
138.236	138.404	69	74
138.236	138.404	81	88
138.383	138.972	52	51
138.383	138.972	64	62
138.383	138.972	68	72
138.383	138.972	80	85
138.972	139.091	58	69
138.972	139.091	70	82
138.972	139.69	73	89
138.972	139.549	76	89
138.972	139.69	85	105
139.128	139.235	57	63
139.128	139.235	69	75
139.27	139.376	55	62
139.27	139.376	67	74
139.411	139.515	52	62
139.411	139.515	64	74
139.549	139.655	49	61
139.549	139.655	61	73
139.549	139.69	81	100
139.69	139.796	46	61
139.69	139.796	58	72
139.831	140.113	45	60
139.831	139.937	57	71
139.831	139.937	74	62
139.831	139.937	83	62
139.831	139.937	86	88
139.972	140.078	55	71
139.972	140.078	76	74
139.972	140.078	85	74
139.972	140.078	88	88
140.113	140.214	50	58
140.113	140.214	53	69
140.113	140.214	77	74
140.113	140.214	86	74
140.113	140.214	89	89
140.248	140.349	49	59
140.248	140.349	52	70
140.248	140.349	79	77
140.248	140.349	88	77
140.248	140.349	91	91
140.383	140.484	47	60
140.383	140.484	50	71
140.383	140.484	81	79
140.383	140.484	89	79
140.383	140.484	93	93
140.518	140.624	45	61
140.518	140.624	49	73
140.518	140.624	83	80
140.518	140.624	91	80
140.518	140.624	95	93
140.659	140.932	43	62
140.659	140.944	47	74
140.659	140.944	85	81
140.659	140.944	93	81
140.659	140.932	97	96
140.795	140.944	41	63
140.795	140.944	45	75
140.795	140.944	86	82
140.795	140.944	95	82
140.795	140.944	98	97
140.932	141.22	40	66
140.932	141.22	43	78
140.932	141.22	88	84
140.932	141.22	97	84
140.932	141.22	100	100
141.068	141.22	38	67
141.068	141.22	41	79
141.068	141.22	89	86
141.068	141.22	98	86
141.068	141.22	101	102
141.215	141.335	56	69
141.215	141.335	68	82
141.215	141.934	71	89
141.215	141.793	74	89
141.215	141.934	83	105
141.372	141.479	55	63
141.372	141.479	67	75
141.514	141.619	53	62
141.514	141.619	65	74
141.654	141.759	50	62
141.654	141.759	62	74
141.793	141.899	47	61
141.793	141.899	59	73
141.793	141.934	79	100
141.934	142.039	44	61
141.934	142.039	56	72
142.075	142.356	43	60
142.075	142.18	55	71
142.075	142.18	72	62
142.075	142.18	81	62
142.075	142.18	84	88
142.216	142.321	53	71
142.216	142.321	74	74
142.216	142.321	83	74
142.216	142.321	86	88
142.356	142.458	48	58
142.356	142.458	52	69
142.356	142.458	76	74
142.356	142.458	84	74
142.356	142.458	88	89
142.492	142.593	47	59
142.492	142.593	50	70
142.492	142.593	77	77
142.492	142.593	86	77
142.492	142.593	89	91
142.627	142.728	45	60
142.627	142.728	48	71
142.627	142.728	79	79
142.627	142.728	88	79
142.627	142.728	91	93
142.762	142.867	43	61
142.762	142.867	47	73
142.762	142.867	81	80
142.762	142.867	89	80
142.762	142.867	93	93
142.903	143.175	41	62
142.903	143.215	45	74
142.903	143.215	83	81
142.903	143.215	91	81
142.903	143.175	95	96
143.039	143.215	40	63
143.039	143.215	43	75
143.039	143.215	84	82
143.039	143.215	93	82
143.039	143.215	96	97
143.175	143.278	38	66
143.175	143.278	41	78
143.175	143.278	86	84
143.175	143.278	95	84
143.175	143.278	98	100
143.312	143.465	36	67
143.312	143.465	40	79
143.312	143.465	88	86
143.312	143.465	96	86
143.312	143.465	100	102
143.459	143.793	38	70
143.459	143.778	44	70
143.459	143.793	47	70
143.459	143.793	50	83
143.459	143.793	89	88
143.459	143.793	92	88
143.459	143.778	95	88
143.459	143.793	101	104
143.645	143.793	41	62
143.645	143.793	53	74
143.645	143.793	86	84
143.645	143.793	98	100
143.778	144.053	44	62
143.778	144.049	56	74
143.778	144.049	83	81
143.778	144.053	95	96
143.914	144.053	47	62
143.914	144.049	59	74
143.914	144.049	80	81
143.914	144.053	92	96
144.049	144.348	50	67
144.049	144.348	56	67
144.049	144.348	59	67
144.049	144.348	62	79
144.049	144.348	77	79
144.049	144.348	80	79
144.049	144.348	83	79
144.049	144.348	89	93
144.191	144.348	51	58
144.191	144.348	63	69
144.191	144.348	75	73
144.191	144.348	87	86
144.333	144.646	52	61
144.333	144.646	64	73
144.333	144.646	76	78
144.333	144.646	88	92
144.478	144.646	53	66
144.478	144.646	65	78
144.478	144.646	74	83
144.478	144.646	86	99
144.628	144.961	33	70
144.628	144.946	39	70
144.628	144.961	42	70
144.628	144.961	45	83
144.628	144.961	84	88
144.628	144.961	87	88
144.628	144.946	90	88
144.628	144.961	96	104
144.812	144.961	36	62
144.812	144.961	48	74
144.812	144.961	81	84
144.812	144.961	93	100
144.946	145.237	39	62
144.946	145.217	51	74
144.946	145.217	78	81
144.946	145.237	90	96
145.082	145.237	42	62
145.082	145.217	54	74
145.082	145.217	75	81
145.082	145.237	87	96
145.217	145.514	45	67
145.217	145.514	51	67
145.217	145.514	54	67
145.217	145.514	57	79
145.217	145.514	72	79
145.217	145.514	75	79
145.217	145.514	78	79
145.217	145.514	84	93
145.36	145.514	46	58
145.36	145.514	58	69
145.36	145.514	70	73
145.36	145.514	82	86
145.505	145.809	47	61
145.505	145.8	59	73
145.505	145.8	71	78
145.505	145.809	83	92
145.65	145.809	48	66
145.65	145.809	60	78
145.65	145.8	69	83
145.65	145.809	81	99
145.8	146.093	50	62
145.8	146.093	57	62
145.8	146.093	59	74
145.8	146.093	65	74
145.8	146.093	69	74
145.8	146.093	71	74
145.8	146.093	77	88
145.944	146.093	51	67
145.944	146.093	63	71
145.944	146.093	75	84
146.081	146.364	52	67
146.081	146.364	64	68
146.081	146.391	76	81
146.218	146.391	53	67
146.218	146.391	62	68
146.218	146.391	74	81
146.364	146.653	52	67
146.364	146.653	56	67
146.364	146.668	61	67
146.364	146.668	64	79
146.364	146.668	73	79
146.506	146.668	59	61
146.506	146.668	71	73
146.653	146.977	52	61
146.653	146.977	56	61
146.653	146.977	60	66
146.653	146.977	62	73
146.653	146.977	72	78
146.81	146.977	59	70
146.81	146.977	71	83
146.977	148.338	45	61
146.977	147.775	50	61
146.977	147.775	53	73
146.977	148.338	57	71
146.977	147.775	62	71
146.977	147.775	65	71
146.977	148.338	69	84
147.732	148.338	48	56
147.732	148.338	52	66
147.732	148.338	60	66
147.732	148.338	64	78
148.944	149.288	64	49
148.944	149.288	88	58
149.136	149.473	65	42
149.136	149.473	89	50
149.288	149.473	64	42
149.288	149.473	88	50
149.439	150.491	60	46
149.439	150.491	84	55
150.022	150.256	45	31
150.022	150.256	52	31
150.022	150.256	72	37
150.022	150.256	76	37
150.491	150.659	57	45
150.491	150.659	81	54
150.643	150.787	59	42
150.643	150.787	83	50
150.771	150.914	57	42
150.771	150.914	81	50
150.898	151.038	59	45
150.898	151.038	83	53
151.022	151.162	60	42
151.022	151.162	84	50
151.146	151.286	59	42
151.146	151.286	83	50
151.271	151.41	56	45
151.271	151.41	80	53
151.395	151.535	57	41
151.395	151.535	81	49
151.519	151.66	56	41
151.519	151.66	80	49
151.643	151.791	52	44
151.643	151.791	76	52
151.775	151.944	53	39
151.775	151.944	77	46
151.907	152.221	52	39
151.907	152.221	76	47
152.205	152.402	45	28
152.205	152.402	56	28
152.205	152.402	62	34
152.205	152.402	64	34
152.205	152.402	71	34
152.6	152.945	64	49
152.6	152.945	88	58
152.792	153.126	65	42
152.792	153.126	89	50
152.945	153.126	64	42
152.945	153.126	88	50
153.097	154.141	60	46
153.097	154.141	84	55
153.669	153.905	45	35
153.669	153.905	52	35
153.669	153.905	72	42
153.669	153.905	76	42
154.141	154.404	57	50
154.141	154.404	60	60
154.141	154.536	64	50
154.273	154.536	59	49
154.273	154.552	62	59
154.404	154.552	57	52
154.404	154.552	60	63
154.536	154.926	56	59
154.536	154.784	59	70
154.536	154.926	64	57
154.66	154.926	57	59
154.66	154.926	60	71
154.784	154.926	55	63
154.784	154.926	59	75
154.909	155.313	54	68
154.909	155.313	63	63
154.909	155.165	69	81
155.037	155.313	55	63
155.037	155.313	71	75
155.165	155.313	53	64
155.165	155.313	69	76
155.293	155.556	52	70
155.293	155.779	64	63
155.293	155.556	68	83
155.425	155.779	53	63
155.425	155.779	69	74
155.556	155.779	52	63
155.556	155.779	68	77
155.759	156.006	40	81
156.254	156.598	64	49
156.254	156.598	88	58
156.447	156.784	65	42
156.447	156.784	89	50
156.598	156.784	64	42
156.598	156.784	88	50
156.75	157.801	60	46
156.75	157.801	84	55
157.332	157.567	45	31
157.332	157.567	52	31
157.332	157.567	72	37
157.332	157.567	76	37
157.801	157.97	57	45
157.801	157.97	81	54
157.954	158.097	59	42
157.954	158.097	83	50
158.081	158.224	57	42
158.081	158.224	81	50
158.208	158.348	59	45
158.208	158.348	83	53
158.333	158.472	60	42
158.333	158.472	84	50
158.457	158.597	59	42
158.457	158.597	83	50
158.581	158.721	56	45
158.581	158.721	80	53
158.705	158.845	57	41
158.705	158.845	81	49
158.83	158.97	56	41
158.83	158.97	80	49
158.954	159.102	52	44
158.954	159.102	76	52
159.085	159.254	53	39
159.085	159.254	77	46
159.217	159.532	52	39
159.217	159.532	76	47
159.515	159.713	45	28
159.515	159.713	56	28
159.515	159.713	62	34
159.515	159.713	64	34
159.515	159.713	71	34
159.91	160.255	64	49
159.91	160.255	88	58
160.102	160.436	65	42
160.102	160.436	89	50
160.255	160.436	64	42
160.255	160.436	88	50
160.408	161.452	60	46
160.408	161.452	84	55
160.979	161.215	45	35
160.979	161.215	52	35
160.979	161.215	72	42
160.979	161.215	76	42
161.452	161.715	57	50
161.452	161.715	60	60
161.452	161.846	64	50
161.583	161.846	59	49
161.583	161.862	62	59
161.715	161.862	57	52
161.715	161.862	60	63
161.846	162.237	56	59
161.846	162.095	59	70
161.846	162.237	64	57
161.971	162.237	57	59
161.971	162.237	60	71
162.095	162.237	55	63
162.095	162.237	59	75
162.219	162.623	54	68
162.219	162.623	63	63
162.219	162.476	69	81
162.347	162.623	55	63
162.347	162.623	71	75
162.476	162.623	53	64
162.476	162.623	69	76
162.604	162.867	52	70
162.604	163.09	64	63
162.604	162.867	68	83
162.735	163.09	53	63
162.735	163.09	69	74
162.867	163.09	52	63
162.867	163.09	68	77
163.069	163.321	40	81
163.573	163.917	64	49
163.573	163.917	88	58
163.765	164.102	65	42
163.765	164.102	89	50
163.917	164.102	64	42
163.917	164.102	88	50
164.068	165.12	61	46
164.068	165.12	85	55
164.651	164.885	45	31
164.651	164.885	55	31
164.651	164.885	58	31
164.651	164.885	73	37
164.651	164.885	76	37
165.12	165.306	57	45
165.12	165.306	81	54
165.288	165.456	58	42
165.288	165.456	82	50
165.437	165.605	57	42
165.437	165.605	81	50
165.586	165.757	62	45
165.586	165.757	86	53
165.738	165.914	64	42
165.738	165.914	88	50
165.889	166.108	62	42
165.889	166.108	86	50
166.089	166.534	61	64
166.089	166.375	69	75
166.24	166.534	64	59
166.24	166.534	70	69
166.375	166.534	69	69
166.51	166.99	57	63
166.51	166.8	65	73
166.655	167.052	62	58
166.655	167.07	67	68
166.8	167.07	65	68
166.928	167.249	53	77
166.99	167.249	57	80
167.052	167.249	62	82
167.447	167.791	62	49
167.447	167.791	86	58
167.639	167.976	64	42
167.639	167.976	88	50
167.791	167.976	62	42
167.791	167.976	86	50
167.942	168.993	59	46
167.942	168.993	83	55
168.525	168.759	43	31
168.525	168.759	53	31
168.525	168.759	56	31
168.525	168.759	71	37
168.525	168.759	74	37
168.993	169.18	55	45
168.993	169.18	79	54
169.161	169.329	57	42
169.161	169.329	81	50
169.311	169.479	55	42
169.311	169.479	79	50
169.46	169.63	60	45
169.46	169.63	84	53
169.611	169.788	62	42
169.611	169.788	86	50
169.763	169.982	60	42
169.763	169.982	84	50
169.963	170.407	59	64
169.963	170.248	67	75
170.113	170.407	62	59
170.113	170.407	69	69
170.248	170.407	67	69
170.384	170.864	55	63
170.384	170.673	64	73
170.529	170.926	60	58
170.529	170.955	65	68
170.673	170.955	64	68
170.802	171.245	52	77
170.864	171.245	55	80
170.926	171.245	60	82
171.564	171.943	62	49
171.564	171.943	86	58
171.77	172.153	64	42
171.77	172.153	88	50
171.943	172.153	62	42
171.943	172.153	86	50
172.115	173.619	65	46
172.115	173.619	89	55
172.774	173.197	50	31
172.774	173.197	59	31
172.774	173.197	77	37
172.774	173.197	80	37
173.619	173.703	62	40
173.619	173.703	65	40
173.619	173.703	68	48
173.619	173.703	71	49
173.703	173.787	64	37
173.703	173.787	72	37
173.787	173.825	62	37
173.787	173.825	71	37
174.315	174.693	60	49
174.315	174.693	84	58
174.521	174.904	62	42
174.521	174.904	86	50
174.693	174.904	60	42
174.693	174.904	84	50
174.866	176.285	64	46
174.866	176.285	88	55
175.525	175.905	48	31
175.525	175.905	57	31
175.525	175.905	76	37
175.525	175.905	81	37
176.285	176.369	60	40
176.285	176.369	64	48
176.285	176.369	69	49
176.369	176.453	62	37
176.369	176.453	70	37
176.453	176.49	60	37
176.453	176.49	69	37
177.056	177.552	50	31
177.056	177.131	65	51
177.056	177.131	71	51
177.131	177.206	69	35
177.131	177.206	72	35
177.206	177.244	65	31
177.206	177.244	71	31
177.552	178.048	62	32
177.552	178.048	65	32
177.552	177.629	69	53
177.552	177.629	77	53
177.629	177.706	71	36
177.629	177.706	79	36
177.706	177.744	69	32
177.706	177.744	77	32
178.048	178.552	52	33
178.048	178.124	68	55
178.048	178.124	76	55
178.048	178.124	77	38
178.124	178.201	71	38
178.201	178.239	68	34
178.201	178.239	76	34
178.552	179.043	64	35
178.552	179.043	68	35
178.552	178.628	74	57
178.552	178.628	83	57
178.628	178.703	76	39
178.628	178.703	84	39
178.703	178.74	74	35
178.703	178.74	83	35
179.043	179.612	57	36
179.043	179.612	64	36
179.043	179.612	69	36
179.043	179.119	72	59
179.043	179.119	81	59
179.119	179.195	76	41
179.119	179.195	83	41
179.195	179.233	72	36
179.195	179.233	81	36
179.612	179.855	38	31
179.612	179.855	45	31
179.612	179.693	81	51
179.612	179.693	89	51
179.693	179.774	83	35
179.693	179.774	91	35
179.774	179.815	81	31
179.774	179.815	89	31
180.278	180.701	33	31
180.278	180.701	45	31
180.278	180.701	84	38
180.278	180.701	88	38
180.278	180.701	96	45
181.968	182.345	45	71
181.968	182.173	52	84
181.968	182.345	57	66
181.968	182.345	60	66
181.968	182.255	64	82
182.173	182.345	48	51
182.173	182.337	52	61
182.255	182.345	64	68
182.337	182.686	47	51
182.337	182.501	52	61
182.419	182.686	62	57
182.419	182.592	64	68
182.501	182.686	45	51
182.501	182.684	52	61
182.592	182.686	60	52
182.592	182.686	64	65
182.684	183.053	44	60
182.684	182.866	52	71
182.775	182.952	59	56
182.775	182.952	64	76
182.866	183.053	40	54
182.866	183.038	52	64
182.952	183.053	59	50
182.952	183.053	64	50
182.952	183.053	71	67
183.038	183.373	42	53
183.038	183.22	52	63
183.129	183.373	57	63
183.129	183.321	64	59
183.22	183.373	44	53
183.22	183.373	52	63
183.321	183.397	59	60
183.321	183.397	64	58
183.422	183.797	45	71
183.422	183.619	52	84
183.422	183.797	57	66
183.422	183.797	60	66
183.422	183.703	64	82
183.619	183.797	48	51
183.619	183.788	52	61
183.703	183.797	64	68
183.788	184.141	47	51
183.788	183.956	52	61
183.872	184.141	62	57
183.872	184.047	64	68
183.956	184.141	45	51
183.956	184.137	52	61
184.047	184.141	60	52
184.047	184.141	64	65
184.137	184.512	44	60
184.137	184.502	52	71
184.232	184.414	59	56
184.232	184.512	64	71
184.326	184.512	41	54
184.326	184.512	51	64
184.414	184.512	59	50
184.414	184.512	63	50
184.414	184.512	69	63
184.502	184.831	40	53
184.502	184.697	52	63
184.6	184.831	59	50
184.6	184.805	64	50
184.6	184.831	68	63
184.697	184.831	52	53
184.697	184.831	56	63
184.805	184.886	64	63
184.913	185.29	45	74
184.913	185.29	57	88
184.913	185.199	64	69
184.913	185.29	69	69
184.913	185.29	72	69
184.913	185.199	76	86
185.118	185.29	48	55
185.118	185.29	60	66
185.199	185.29	64	59
185.199	185.29	76	74
185.281	185.634	47	55
185.281	185.634	59	66
185.362	185.537	64	59
185.362	185.634	74	74
185.364	185.537	76	59
185.443	185.634	45	55
185.443	185.634	57	66
185.537	185.634	64	56
185.537	185.634	72	56
185.537	185.634	76	72
185.632	186.004	44	65
185.632	186.004	56	77
185.724	186.004	64	62
185.724	185.903	71	62
185.724	186.004	76	77
185.816	186.004	40	60
185.816	186.004	52	71
185.903	186.004	71	54
185.903	186.004	83	69
185.99	186.299	42	57
185.99	186.299	54	69
186.081	186.275	64	54
186.081	186.299	69	59
186.081	186.275	76	69
186.173	186.299	44	57
186.173	186.299	56	69
186.275	186.352	64	54
186.275	186.352	71	58
186.275	186.352	76	69
186.377	186.75	45	74
186.377	186.75	57	88
186.377	186.657	64	69
186.377	186.75	69	69
186.377	186.75	72	69
186.377	186.657	76	86
186.574	186.75	48	56
186.574	186.75	60	67
186.657	186.75	64	64
186.657	186.75	76	76
186.74	187.091	47	57
186.74	187.091	59	68
186.823	186.996	64	66
186.823	187.091	74	78
186.823	186.996	76	66
186.906	187.091	45	59
186.906	187.091	57	71
186.996	187.091	64	61
186.996	187.091	72	61
186.996	187.091	76	77
187.087	187.471	44	71
187.087	187.471	56	83
187.184	187.471	64	67
187.184	187.471	71	67
187.184	187.471	76	84
187.282	187.471	41	69
187.282	187.471	53	81
187.369	187.471	69	63
187.369	187.471	75	63
187.369	187.471	81	80
187.456	187.747	40	66
187.456	187.747	52	81
187.55	187.743	68	63
187.55	187.743	76	63
187.55	187.747	80	81
187.644	187.747	56	67
187.644	187.747	59	67
187.644	187.747	64	81
187.743	187.824	68	69
187.743	187.824	71	69
187.743	187.824	76	82
187.851	188.229	45	77
187.851	188.229	57	92
187.851	188.138	64	72
187.851	188.138	69	72
187.851	188.229	73	75
187.851	188.138	76	92
188.056	188.229	47	58
188.056	188.229	59	69
188.138	188.229	64	62
188.138	188.229	69	62
188.138	188.229	74	62
188.138	188.229	76	78
188.219	188.509	49	58
188.219	188.509	61	69
188.301	188.471	64	62
188.301	188.509	69	62
188.301	188.471	76	73
188.382	188.509	45	58
188.382	188.509	57	69
188.471	188.538	64	59
188.471	188.538	73	59
188.471	188.538	76	75
188.56	188.932	50	68
188.56	188.918	62	81
188.652	188.932	74	67
188.652	188.932	77	67
188.652	188.932	86	84
188.744	188.932	61	68
188.744	188.932	70	81
188.831	188.932	76	63
188.831	188.932	79	63
188.831	188.932	88	79
188.918	189.233	62	65
188.918	189.101	69	79
189.009	189.197	77	63
189.009	189.233	81	63
189.009	189.233	89	79
189.101	189.233	65	65
189.101	189.233	69	79
189.197	189.269	74	63
189.197	189.269	77	63
189.197	189.269	86	79
189.293	189.67	43	77
189.293	189.67	55	92
189.293	189.578	62	72
189.293	189.578	67	72
189.293	189.67	71	72
189.293	189.578	74	90
189.495	189.67	45	58
189.495	189.67	57	69
189.578	189.67	62	65
189.578	189.67	67	65
189.578	189.67	72	65
189.578	189.67	74	78
189.66	189.941	47	58
189.66	189.941	59	69
189.742	189.914	62	65
189.742	189.941	67	65
189.742	189.914	74	78
189.825	189.941	43	58
189.825	189.941	55	69
189.914	189.98	62	59
189.914	189.98	71	59
189.914	189.98	74	75
190.002	190.381	48	68
190.002	190.381	60	81
190.096	190.381	76	67
190.096	190.278	84	67
190.096	190.381	88	84
190.19	190.381	62	68
190.19	190.366	67	81
190.278	190.381	77	63
190.278	190.381	84	63
190.278	190.381	89	79
190.366	190.716	64	65
190.366	190.554	67	79
190.46	190.716	79	63
190.46	190.66	84	63
190.46	190.716	91	79
190.554	190.716	60	65
190.554	190.716	67	79
190.66	190.74	76	65
190.66	190.74	84	65
190.66	190.74	88	79
190.767	191.138	50	77
190.767	191.138	62	92
190.767	191.138	77	72
190.767	191.046	80	72
190.767	191.046	83	77
190.767	191.138	89	92
190.963	191.138	65	58
190.963	191.128	68	58
190.963	191.128	71	69
191.046	191.17	74	65
191.046	191.17	80	65
191.046	191.17	83	65
191.046	191.17	86	78
191.128	191.479	64	58
191.128	191.293	68	58
191.128	191.293	71	69
191.211	191.479	76	65
191.211	191.384	80	65
191.211	191.384	83	65
191.211	191.479	88	78
191.293	191.479	62	58
191.293	191.479	68	58
191.293	191.479	71	69
191.384	191.479	77	59
191.384	191.479	80	59
191.384	191.479	83	59
191.384	191.479	89	75
191.474	191.851	60	68
191.474	191.836	69	68
191.474	191.851	72	81
191.568	191.851	76	67
191.568	191.851	81	67
191.568	191.851	88	84
191.663	191.851	59	65
191.663	191.851	65	65
191.663	191.851	68	77
191.749	191.882	74	60
191.749	191.882	77	60
191.749	191.882	80	60
191.749	191.882	86	75
191.836	192.224	57	63
191.836	192.021	64	63
191.836	192.224	69	75
191.929	192.224	72	60
191.929	192.118	76	60
191.929	192.224	81	60
191.929	192.224	84	75
192.021	192.224	55	63
192.021	192.224	61	63
192.021	192.224	64	75
192.118	192.224	73	63
192.118	192.224	76	63
192.118	192.224	82	63
192.118	192.224	85	75
192.215	192.628	53	68
192.215	192.628	62	68
192.215	192.628	65	81
192.315	192.628	74	67
192.315	192.628	77	67
192.315	192.628	82	67
192.315	192.628	86	84
192.416	192.628	51	65
192.416	192.611	57	65
192.416	192.611	60	65
192.416	192.628	63	77
192.514	192.664	81	61
192.514	192.664	84	61
192.514	192.664	89	61
192.514	192.664	93	76
192.611	192.821	52	64
192.611	193.054	57	64
192.611	193.06	60	64
192.611	192.821	64	77
192.716	193.054	81	62
192.716	193.054	84	62
192.716	192.938	88	62
192.716	193.054	93	78
192.821	193.054	52	65
192.821	193.06	56	65
192.821	193.06	59	65
192.821	193.06	64	79
192.938	193.06	80	65
192.938	193.06	83	65
192.938	193.054	88	65
192.938	193.06	92	79
193.054	193.816	45	72
193.054	193.816	52	72
193.054	193.816	57	84
193.054	193.52	81	67
193.054	193.816	84	68
193.054	193.816	88	71
193.054	193.816	93	83
193.52	193.816	60	61
193.52	193.816	64	61
193.52	193.816	69	69
193.52	193.816	72	68
193.52	193.816	76	68
193.52	193.816	81	75
194.434	194.735	76	43
194.502	194.56	57	43
194.502	194.56	84	57
194.617	194.676	64	36
194.617	194.676	81	45
194.735	194.796	52	36
194.735	194.796	76	46
194.857	194.92	64	36
194.857	194.92	72	40
194.983	195.051	60	38
194.983	195.051	69	41
195.12	195.181	64	35
195.12	195.181	76	43
195.242	195.306	57	33
195.242	195.306	72	43
195.37	195.441	64	34
195.37	195.424	69	43
195.441	195.748	76	43
195.513	195.571	56	43
195.513	195.571	83	57
195.629	195.688	64	36
195.629	195.688	80	45
195.748	195.823	52	36
195.748	195.823	76	46
195.897	195.96	64	36
195.897	195.96	86	46
196.023	196.084	56	43
196.023	196.084	83	50
196.144	196.205	64	36
196.144	196.205	76	46
196.265	196.329	59	33
196.265	196.329	80	43
196.393	196.468	64	34
196.393	196.452	76	43
196.468	196.77	76	43
196.535	196.593	57	43
196.535	196.593	84	57
196.65	196.71	64	36
196.65	196.71	81	45
196.77	196.842	52	36
196.77	196.842	76	46
196.914	196.978	64	36
196.914	196.978	72	46
197.041	197.102	60	41
197.041	197.102	69	44
197.162	197.223	64	36
197.162	197.223	76	51
197.283	197.347	57	33
197.283	197.347	72	45
197.411	197.486	64	34
197.411	197.466	69	43
197.486	197.809	76	43
197.56	197.622	56	43
197.56	197.622	83	57
197.685	197.747	64	36
197.685	197.747	80	45
197.809	197.881	52	36
197.809	197.881	76	42
197.952	198.017	64	36
197.952	198.017	76	35
198.082	198.145	56	39
198.082	198.145	71	43
198.208	198.283	59	33
198.208	198.283	68	38
198.358	198.69	64	44
198.622	198.925	84	43
198.656	198.925	88	43
198.69	198.748	57	43
198.69	198.748	96	57
198.806	198.866	64	36
198.806	198.866	93	45
198.925	198.985	52	36
198.925	198.985	88	46
199.045	199.108	64	36
199.045	199.108	84	40
199.171	199.24	60	38
199.171	199.24	81	41
199.308	199.369	64	35
199.308	199.369	88	43
199.43	199.494	57	33
199.43	199.494	84	43
199.558	199.63	64	34
199.558	199.619	81	43
199.63	199.945	83	43
199.666	199.945	88	43
199.701	199.761	56	43
199.701	199.761	95	57
199.821	199.883	64	36
199.821	199.883	92	45
199.945	200.02	52	36
199.945	200.02	88	46
200.095	200.157	64	36
200.095	200.157	98	46
200.22	200.281	56	43
200.22	200.281	95	50
200.341	200.402	64	36
200.341	200.402	88	46
200.462	200.526	59	33
200.462	200.526	92	43
200.59	200.665	64	34
200.59	200.655	88	43
200.665	200.98	84	43
200.699	200.98	88	43
200.732	200.794	57	43
200.732	200.794	96	57
200.856	200.918	64	36
200.856	200.918	93	45
200.98	201.052	52	36
200.98	201.052	88	46
201.124	201.187	64	36
201.124	201.187	84	46
201.251	201.311	60	41
201.251	201.311	81	44
201.372	201.432	64	36
201.372	201.432	88	51
201.493	201.557	57	33
201.493	201.557	84	45
201.621	201.695	64	34
201.621	201.68	81	43
201.695	202.015	83	43
201.732	202.015	88	43
201.769	201.831	56	43
201.769	201.831	95	57
201.892	201.953	64	36
201.892	201.953	92	45
202.015	202.086	52	36
202.015	202.086	88	42
202.157	202.223	64	36
202.157	202.223	83	35
202.288	202.351	59	37
202.288	202.351	80	42
202.414	202.489	68	29
202.414	202.489	71	35
202.564	202.844	64	36
202.564	202.764	76	42
202.776	203.076	76	55
202.844	202.959	61	55
202.844	202.959	88	74
202.959	203.076	69	46
202.959	203.076	85	58
203.076	203.196	57	46
203.076	203.196	81	59
203.196	203.321	69	46
203.196	203.321	76	52
203.321	203.386	73	49
203.451	203.572	69	57
203.572	203.701	67	60
203.701	203.833	64	63
203.833	204.084	50	61
203.833	204.084	57	61
203.833	203.893	65	71
203.953	204.019	62	64
204.084	204.146	86	68
204.207	204.27	81	64
204.333	204.393	77	63
204.454	204.514	74	55
204.575	204.639	65	59
204.703	204.77	62	59
204.777	205.085	79	52
204.845	204.965	59	52
204.845	204.965	86	70
204.965	205.085	67	43
204.965	205.085	83	55
205.085	205.205	55	43
205.085	205.205	79	56
205.205	205.331	67	43
205.205	205.331	77	49
205.331	205.396	74	46
205.46	205.582	71	54
205.582	205.71	65	57
205.71	205.843	62	59
205.843	206.094	48	57
205.843	206.094	55	57
205.843	205.903	64	67
205.963	206.029	60	60
206.094	206.156	84	64
206.217	206.28	79	60
206.343	206.403	76	59
206.464	206.524	72	52
206.585	206.649	64	56
206.713	206.793	60	50
206.872	207.118	56	36
206.872	207.118	62	36
206.872	207.118	65	43
206.872	206.934	83	60
206.995	207.056	81	59
206.995	207.056	89	45
207.118	207.178	80	59
207.237	207.295	77	58
207.237	207.295	86	45
207.354	207.413	76	59
207.472	207.531	74	57
207.472	207.531	83	43
207.591	207.65	72	58
207.71	207.77	71	57
207.71	207.77	80	42
207.83	208.071	60	36
207.83	208.071	64	43
207.83	207.89	69	57
207.951	208.011	67	56
207.951	208.011	76	45
208.071	208.132	65	50
208.192	208.253	64	50
208.192	208.253	72	44
208.313	208.373	62	50
208.434	208.494	60	50
208.434	208.494	69	43
208.554	208.615	59	50
208.675	208.743	57	49
208.675	208.743	64	41
208.811	208.872	65	50
208.932	208.993	50	50
209.053	209.113	71	47
209.053	209.113	81	56
209.174	209.234	74	42
209.174	209.234	77	50
209.295	209.355	68	50
209.415	209.476	52	50
209.536	209.6	71	47
209.536	209.6	83	56
209.663	209.726	74	41
209.663	209.726	80	49
209.79	209.862	72	42
209.79	209.862	81	50
209.934	210.018	64	39
209.934	210.018	69	47
210.102	210.202	60	47
210.301	210.448	57	42
210.594	211.18	45	43
211.758	214.733	69	43
211.758	211.82	76	18
211.758	214.788	81	43
211.758	214.788	84	43
211.758	214.788	93	62
211.82	211.944	77	18
211.882	212.004	76	18
211.944	212.064	77	18
212.004	212.124	76	19
212.064	212.183	77	19
212.124	212.243	76	20
212.183	212.302	77	20
212.243	212.361	76	21
212.302	212.42	77	21
212.361	212.478	76	21
212.42	212.536	77	22
212.478	212.594	76	22
212.536	212.651	77	22
212.594	212.709	76	23
212.651	212.766	77	23
212.709	212.824	76	23
212.766	212.882	77	24
212.824	212.94	76	24
212.882	212.999	77	24
212.94	213.059	76	25
212.999	213.121	77	26
213.059	213.184	76	27
213.121	213.249	77	28
213.184	213.316	76	29
213.249	213.384	77	29
213.316	213.448	76	31
213.384	213.511	77	31
213.448	213.574	76	33
213.511	213.636	77	33
213.574	213.699	76	32
213.636	213.761	77	32
213.699	213.825	76	32
213.761	213.892	77	32
213.825	213.96	76	31
213.892	214.026	77	29
213.96	214.093	76	28
213.96	214.733	88	58
214.026	214.16	77	29
214.093	214.222	76	29
214.16	214.284	77	29
214.222	214.349	76	29
214.284	214.415	77	29
214.349	214.48	76	28
214.349	214.788	96	61
214.415	214.542	77	27
214.48	214.604	76	27
214.542	214.668	77	27
214.604	214.733	76	27
214.668	214.788	77	26
214.733	217.728	69	43
214.733	217.763	74	43
214.733	214.799	76	26
214.733	217.763	83	42
214.733	216.203	88	42
214.733	216.237	95	61
214.799	214.931	77	26
214.865	214.997	76	27
214.931	215.062	77	27
214.997	215.125	76	27
215.062	215.186	77	27
215.125	215.247	76	27
215.125	216.237	93	58
215.186	215.307	77	27
215.247	215.367	76	27
215.307	215.426	77	27
215.367	215.484	76	27
215.426	215.541	77	27
215.484	215.598	76	26
215.484	216.237	92	57
215.541	215.656	77	26
215.598	215.715	76	26
215.656	215.774	77	26
215.715	215.835	76	26
215.774	215.896	77	26
215.835	215.957	76	26
215.835	216.237	90	55
215.896	216.018	77	26
215.957	216.079	76	26
216.018	216.14	77	26
216.079	216.203	76	26
216.14	216.237	77	26
216.203	216.267	76	25
216.203	217.321	88	57
216.267	216.329	77	26
216.329	216.453	76	27
216.391	216.514	77	27
216.453	216.574	76	28
216.514	216.634	77	29
216.574	216.693	76	30
216.574	217.763	90	55
216.634	216.752	77	30
216.693	216.811	76	30
216.752	216.871	77	30
216.811	216.932	76	30
216.871	216.992	77	30
216.932	217.053	76	30
216.932	217.763	92	58
216.992	217.116	77	31
217.053	217.182	76	31
217.116	217.25	77	30
217.182	217.321	76	30
217.25	217.388	77	29
217.321	217.456	76	28
217.321	217.728	88	61
217.388	217.524	77	28
217.456	217.592	76	27
217.524	217.659	77	27
217.592	217.728	76	26
217.659	217.763	77	26
217.728	220.614	69	43
217.728	220.634	72	43
217.728	217.797	76	26
217.728	220.634	84	44
217.728	220.634	88	44
217.728	219.05	93	64
217.797	217.923	77	26
217.861	217.983	76	26
217.923	218.045	77	26
217.983	218.106	76	26
218.045	218.167	77	27
218.106	218.225	76	27
218.167	218.282	77	27
218.225	218.339	76	28
218.282	218.398	77	28
218.339	218.459	76	29
218.398	218.518	77	29
218.459	218.576	76	30
218.518	218.634	77	30
218.576	218.69	76	30
218.634	218.749	77	30
218.69	218.808	76	30
218.749	218.868	77	30
218.808	218.929	76	30
218.868	218.99	77	30
218.929	219.05	76	30
218.99	219.108	77	30
218.99	219.185	95	53
219.05	219.166	76	30
219.05	219.166	93	47
219.108	219.185	77	30
219.108	219.185	92	47
219.166	219.224	76	28
219.166	220.634	93	65
219.224	219.341	77	29
219.283	219.399	76	30
219.341	219.457	77	32
219.399	219.516	76	32
219.457	219.574	77	32
219.516	219.632	76	33
219.516	220.634	95	61
219.574	219.691	77	33
219.632	219.749	76	33
219.691	219.807	77	33
219.749	219.866	76	33
219.807	219.925	77	33
219.866	219.984	76	31
219.866	220.634	96	62
219.925	220.042	77	31
219.984	220.101	76	32
220.042	220.16	77	32
220.101	220.219	76	33
220.16	220.28	77	33
220.219	220.342	76	36
220.219	220.634	98	65
220.28	220.407	77	36
220.342	220.473	76	36
220.407	220.543	77	37
220.473	220.614	76	37
220.543	220.634	77	37
220.614	223.515	69	43
220.614	223.515	71	43
220.614	220.688	76	37
220.614	223.515	86	46
220.614	223.515	92	46
220.614	222.074	99	69
220.688	220.809	77	36
220.75	220.867	76	36
220.809	220.925	77	36
220.867	220.983	76	35
220.925	221.04	77	35
220.983	221.097	76	32
221.04	221.153	77	31
221.097	221.209	76	31
221.153	221.264	77	30
221.209	221.319	76	30
221.264	221.374	77	30
221.319	221.43	76	29
221.374	221.486	77	29
221.43	221.542	76	30
221.486	221.598	77	31
221.542	221.655	76	32
221.598	221.712	77	33
221.655	221.771	76	34
221.655	222.074	100	60
221.712	221.832	77	32
221.771	221.893	76	31
221.832	221.961	77	29
221.893	222.038	76	28
221.961	222.074	77	26
222.038	222.1	76	24
222.038	223.515	88	65
222.1	222.162	77	24
222.162	222.283	76	24
222.223	222.342	77	24
222.283	222.401	76	24
222.342	222.459	77	24
222.401	222.515	76	25
222.459	222.573	77	23
222.515	222.631	76	23
222.573	222.689	77	23
222.631	222.748	76	23
222.689	222.807	77	23
222.748	222.866	76	21
222.807	222.924	77	21
222.866	222.983	76	21
222.924	223.042	77	21
222.983	223.102	76	21
223.042	223.162	77	21
223.102	223.223	76	19
223.162	223.286	77	19
223.223	223.356	76	19
223.286	223.433	77	19
223.356	223.515	76	19
223.433	223.515	77	19
223.515	226.508	69	43
223.515	223.591	76	19
223.515	226.562	81	43
223.515	226.562	84	43
223.515	226.562	93	62
223.591	223.719	77	18
223.659	223.779	76	18
223.719	223.839	77	18
223.779	223.899	76	19
223.839	223.958	77	19
223.899	224.018	76	20
223.958	224.077	77	20
224.018	224.136	76	21
224.077	224.195	77	21
224.136	224.253	76	21
224.195	224.311	77	22
224.253	224.368	76	22
224.311	224.426	77	22
224.368	224.484	76	23
224.426	224.541	77	23
224.484	224.599	76	23
224.541	224.656	77	24
224.599	224.715	76	24
224.656	224.773	77	24
224.715	224.834	76	25
224.773	224.896	77	26
224.834	224.959	76	27
224.896	225.023	77	28
224.959	225.091	76	29
225.023	225.158	77	29
225.091	225.223	76	31
225.158	225.286	77	31
225.223	225.349	76	33
225.286	225.411	77	33
225.349	225.473	76	32
225.411	225.536	77	32
225.473	225.6	76	32
225.536	225.666	77	32
225.6	225.734	76	31
225.666	225.801	77	29
225.734	225.868	76	28
225.734	226.508	88	63
225.801	225.935	77	29
225.868	225.997	76	29
225.935	226.059	77	29
225.997	226.123	76	29
226.059	226.19	77	29
226.123	226.255	76	28
226.123	226.562	96	62
226.19	226.317	77	27
226.255	226.379	76	27
226.317	226.443	77	27
226.379	226.508	76	27
226.443	226.562	77	26
226.508	229.502	69	43
226.508	229.537	74	43
226.508	226.574	76	26
226.508	229.537	83	42
226.508	227.978	88	42
226.508	228.011	95	61
226.574	226.706	77	26
226.64	226.772	76	27
226.706	226.837	77	27
226.772	226.899	76	27
226.837	226.961	77	27
226.899	227.022	76	27
226.899	228.011	93	57
226.961	227.082	77	27
227.022	227.142	76	27
227.082	227.201	77	27
227.142	227.259	76	27
227.201	227.316	77	27
227.259	227.373	76	26
227.259	228.011	92	57
227.316	227.431	77	26
227.373	227.49	76	26
227.431	227.549	77	26
227.49	227.61	76	26
227.549	227.671	77	26
227.61	227.732	76	26
227.61	228.011	90	57
227.671	227.793	77	26
227.732	227.854	76	26
227.793	227.915	77	26
227.854	227.978	76	26
227.915	228.011	77	26
227.978	228.041	76	25
227.978	229.096	88	58
228.041	228.104	77	26
228.104	228.227	76	27
228.166	228.288	77	27
228.227	228.349	76	28
228.288	228.409	77	29
228.349	228.468	76	30
228.349	229.537	90	57
228.409	228.527	77	30
228.468	228.586	76	30
228.527	228.646	77	30
228.586	228.706	76	30
228.646	228.767	77	30
228.706	228.828	76	30
228.706	229.537	92	58
228.767	228.891	77	30
228.828	228.957	76	30
228.891	229.025	77	30
228.957	229.096	76	30
229.025	229.163	77	30
229.096	229.231	76	30
229.096	229.502	88	61
229.163	229.299	77	29
229.231	229.366	76	29
229.299	229.434	77	29
229.366	229.502	76	29
229.434	229.537	77	29
229.502	232.384	69	43
229.502	232.401	72	43
229.502	229.572	76	26
229.502	232.401	84	44
229.502	232.401	88	44
229.502	230.835	93	64
229.572	229.706	77	26
229.64	229.77	76	26
229.706	229.833	77	26
229.77	229.894	76	26
229.833	229.954	77	27
229.894	230.014	76	27
229.954	230.074	77	27
230.014	230.133	76	28
230.074	230.192	77	28
230.133	230.251	76	29
230.192	230.31	77	29
230.251	230.369	76	30
230.31	230.429	77	30
230.369	230.489	76	30
230.429	230.549	77	30
230.489	230.607	76	30
230.549	230.664	77	30
230.607	230.721	76	30
230.664	230.778	77	30
230.721	230.835	76	30
230.778	230.893	77	30
230.778	230.97	95	53
230.835	230.952	76	30
230.835	230.952	93	47
230.893	230.97	77	30
230.893	230.97	92	47
230.952	231.01	76	28
230.952	232.401	93	65
231.01	231.126	77	29
231.068	231.185	76	30
231.126	231.243	77	32
231.185	231.301	76	32
231.243	231.359	77	32
231.301	231.418	76	33
231.301	232.401	95	60
231.359	231.476	77	33
231.418	231.534	76	33
231.476	231.592	77	33
231.534	231.651	76	33
231.592	231.71	77	33
231.651	231.769	76	31
231.651	232.401	96	62
231.71	231.828	77	31
231.769	231.887	76	32
231.828	231.946	77	32
231.887	232.005	76	33
231.946	232.064	77	33
232.005	232.126	76	36
232.005	232.401	98	64
232.064	232.188	77	36
232.126	232.253	76	36
232.188	232.322	77	37
232.253	232.384	76	37
232.322	232.401	77	37
232.384	235.297	69	43
232.384	238.267	71	43
232.384	232.444	76	37
232.384	238.267	86	46
232.384	238.267	92	46
232.384	233.828	99	66
232.444	232.562	77	36
232.503	232.62	76	36
232.562	232.678	77	36
232.62	232.736	76	35
232.678	232.793	77	35
232.736	232.85	76	32
232.793	232.906	77	31
232.85	232.962	76	31
232.906	233.017	77	30
232.962	233.072	76	30
233.017	233.127	77	30
233.072	233.183	76	29
233.127	233.239	77	29
233.183	233.295	76	30
233.239	233.351	77	31
233.295	233.408	76	32
233.351	233.465	77	33
233.408	233.524	76	31
233.408	233.828	100	60
233.465	233.585	77	30
233.524	233.646	76	29
233.585	233.715	77	28
233.646	233.791	76	26
233.715	233.828	77	25
233.791	233.853	76	26
233.791	238.267	88	65
233.853	233.915	77	26
233.915	234.036	76	26
233.976	234.095	77	25
234.036	234.154	76	25
234.095	234.212	77	25
234.154	234.268	76	24
234.212	234.326	77	24
234.268	234.384	76	24
234.326	234.442	77	24
234.384	234.501	76	23
234.442	234.56	77	23
234.501	234.619	76	22
234.56	234.678	77	20
234.619	234.736	76	20
234.678	234.795	77	20
234.736	234.855	76	20
234.795	234.915	77	20
234.855	234.976	76	19
234.915	235.039	77	19
234.976	235.109	76	19
235.039	235.211	77	19
235.109	235.297	76	19
235.211	235.386	77	19
235.297	238.267	69	43
235.297	235.456	76	18
235.297	238.267	79	43
235.297	238.267	85	43
235.297	237.867	93	62
235.386	235.521	77	18
235.456	235.584	76	18
235.521	235.646	77	18
235.584	235.705	76	19
235.646	235.764	77	19
235.705	235.823	76	20
235.764	235.883	77	20
235.823	235.942	76	21
235.883	236.001	77	21
235.942	236.059	76	21
236.001	236.117	77	22
236.059	236.174	76	22
236.117	236.232	77	22
236.174	236.29	76	23
236.232	236.347	77	23
236.29	236.405	76	23
236.347	236.462	77	24
236.405	236.52	76	24
236.462	236.579	77	24
236.52	236.64	76	25
236.579	236.702	77	26
236.64	236.765	76	27
236.702	238.267	77	28
236.765	238.267	76	34
237.151	238.267	100	55
237.509	238.267	97	55
237.867	238.267	93	59
238.205	239.598	91	61
238.542	239.598	88	58
238.88	239.598	85	57
239.218	239.598	81	56
239.568	241.076	79	56
239.917	241.076	77	55
240.267	241.149	76	54
240.267	244.057	81	50
240.267	241.076	86	50
240.267	243.991	89	59
240.627	244.057	74	52
241.076	244.057	71	43
241.076	241.209	77	18
241.076	244.057	79	43
241.076	244.057	86	43
241.076	243.633	91	62
241.149	241.269	76	18
241.209	241.33	77	18
241.269	241.39	76	18
241.33	241.45	77	19
241.39	241.509	76	19
241.45	241.569	77	20
241.509	241.628	76	20
241.569	241.687	77	21
241.628	241.746	76	21
241.687	241.804	77	21
241.746	241.862	76	22
241.804	241.919	77	22
241.862	241.977	76	22
241.919	242.035	77	23
241.977	242.092	76	23
242.035	242.15	77	23
242.092	242.207	76	24
242.15	242.266	77	24
242.207	242.325	76	24
242.266	242.385	77	25
242.325	242.447	76	26
242.385	242.51	77	27
242.447	244.057	76	28
242.51	244.057	77	33
242.9	244.057	98	55
243.275	244.057	95	55
243.633	244.057	91	59
243.991	245.405	89	61
244.349	245.405	86	58
244.691	245.405	83	57
245.032	245.405	79	56
245.374	246.895	77	56
245.724	246.923	76	55
246.078	246.895	74	54
246.078	246.923	79	50
246.078	246.923	84	50
246.078	246.923	88	59
246.468	246.923	72	52
246.895	249.814	68	40
246.895	249.814	74	43
246.895	246.967	77	18
246.895	249.08	83	43
246.895	249.814	89	62
246.967	247.093	76	18
247.032	247.154	77	18
247.093	247.214	76	18
247.154	247.274	77	19
247.214	247.333	76	19
247.274	247.393	77	20
247.333	247.452	76	20
247.393	247.511	77	21
247.452	247.57	76	21
247.511	247.628	77	21
247.57	247.686	76	22
247.628	247.743	77	22
247.686	247.801	76	22
247.743	247.859	77	23
247.801	247.916	76	23
247.859	247.974	77	23
247.916	248.031	76	24
247.974	248.09	77	24
248.031	248.149	76	24
248.09	248.209	77	25
248.149	248.271	76	26
248.209	248.334	77	27
248.271	249.814	76	28
248.334	249.814	77	32
248.726	249.814	86	55
249.08	249.814	83	55
249.434	249.814	81	59
249.788	250.491	80	55
250.146	250.541	76	55
250.491	250.841	74	50
250.491	250.841	80	46
250.491	250.841	88	55
250.841	251.237	71	50
251.237	251.599	72	53
251.237	251.599	81	45
251.237	251.599	88	53
251.599	251.961	76	55
251.961	252.686	81	55
251.961	252.686	85	45
251.961	252.686	88	53
252.311	252.686	79	55
252.661	253.421	77	55
252.661	253.023	86	46
252.661	253.421	89	55
253.023	253.421	86	53
253.385	254.146	83	53
253.747	254.146	81	53
254.11	255.871	76	41
254.11	255.871	80	55
254.11	255.871	86	49
254.522	255.871	95	55
254.934	255.705	92	51
255.346	255.871	88	44
255.705	255.871	92	43
255.839	257.374	81	38
255.839	259.06	84	45
255.839	258.054	93	43
257.374	259.06	81	30
258.733	258.842	40	70
258.842	258.951	42	76
258.951	259.06	44	80
259.06	260.164	33	70
259.06	260.164	45	83
259.154	260.164	52	70
259.248	259.341	57	70
259.341	260.164	57	80
259.341	259.893	60	67
259.341	259.435	64	79
259.435	260.164	64	68
259.528	260.164	69	68
259.622	260.164	36	71
259.622	260.164	48	84
259.622	260.164	72	68
259.622	259.712	76	80
259.712	260.164	76	70
259.803	260.164	81	69
259.893	260.164	60	80
259.893	260.164	84	68
259.893	259.983	88	81
259.983	260.164	88	73
260.073	260.164	93	73
260.164	260.726	35	71
260.164	260.726	47	84
260.164	260.726	98	68
260.164	260.726	100	81
260.256	260.726	92	72
260.349	260.442	88	72
260.442	260.726	59	78
260.442	260.726	86	68
260.442	260.726	88	80
260.535	260.726	80	72
260.627	260.72	76	68
260.72	261.347	33	70
260.72	261.347	45	83
260.72	261.347	72	63
260.72	261.347	76	75
260.817	261.347	69	71
260.915	261.012	64	66
261.012	261.347	57	78
261.012	261.347	60	55
261.012	261.333	64	65
261.333	261.998	56	62
261.333	262.088	59	62
261.333	262.178	64	73
261.434	262.465	32	59
261.535	262.465	35	61
261.637	262.465	40	62
261.637	262.449	76	73
261.637	262.465	80	73
261.637	262.178	83	73
261.637	262.465	88	86
261.727	262.465	44	63
261.817	262.465	47	64
261.907	262.465	52	66
261.998	262.465	56	65
262.088	262.465	59	67
262.178	262.465	64	68
262.178	263.648	79	73
262.178	262.72	83	73
262.178	262.72	86	73
262.178	263.648	91	86
262.268	262.465	68	69
262.359	262.465	71	71
262.449	263.282	76	75
262.539	263.648	71	72
262.629	263.648	68	72
262.72	263.648	64	71
262.72	263.648	77	73
262.72	263.282	83	73
262.72	263.282	86	73
262.72	263.648	89	86
262.813	263.648	59	70
262.907	263.648	56	69
263.001	263.648	52	68
263.094	263.648	47	67
263.188	263.648	44	66
263.282	263.648	40	65
263.282	263.648	76	68
263.282	263.648	83	68
263.282	263.648	86	68
263.282	263.648	88	81
263.375	263.648	35	64
263.469	263.648	32	63
263.617	264.733	33	70
263.617	264.733	45	83
263.723	264.733	52	70
263.817	263.911	57	70
263.911	264.733	57	80
263.911	264.462	60	67
263.911	264.004	64	79
264.004	264.733	64	68
264.098	264.733	69	68
264.192	264.733	36	71
264.192	264.733	48	84
264.192	264.733	72	68
264.192	264.282	76	80
264.282	264.733	76	70
264.372	264.733	81	69
264.462	264.733	60	80
264.462	264.733	84	68
264.462	264.553	88	81
264.553	264.733	88	73
264.643	264.733	93	73
264.733	265.296	35	71
264.733	265.296	47	84
264.733	265.296	98	68
264.733	265.296	100	81
264.823	265.296	92	72
264.915	265.009	88	72
265.009	265.296	59	78
265.009	265.296	86	68
265.009	265.296	88	80
265.103	265.296	80	72
265.196	265.29	76	68
265.29	265.926	33	70
265.29	265.926	45	83
265.29	265.926	72	63
265.29	265.926	76	75
265.387	265.926	69	71
265.484	265.582	64	66
265.582	265.926	57	78
265.582	265.926	60	55
265.582	265.907	64	65
265.907	266.445	40	61
265.907	266.445	47	61
265.907	266.068	52	72
265.907	266.445	56	52
265.907	266.068	64	73
266.068	266.445	52	53
266.068	266.445	64	51
266.068	266.445	76	61
266.192	266.445	53	54
266.192	266.445	65	52
266.192	266.445	77	62
266.314	266.445	54	55
266.314	266.445	66	53
266.314	266.445	78	63
266.434	266.922	55	56
266.434	266.922	67	55
266.434	266.922	79	65
266.553	266.922	56	57
266.553	266.922	68	56
266.553	266.922	80	66
266.67	266.922	57	58
266.67	266.922	69	57
266.67	266.922	81	68
266.785	266.922	58	59
266.785	266.922	70	58
266.785	266.922	82	69
266.901	267.378	59	61
266.901	267.378	71	60
266.901	267.378	83	71
267.017	267.378	60	62
267.017	267.378	72	61
267.017	267.378	84	72
267.134	267.378	61	63
267.134	267.378	73	62
267.134	267.378	85	74
267.25	267.378	62	64
267.25	267.378	74	63
267.25	267.378	86	75
267.368	267.97	63	65
267.368	267.97	75	65
267.368	267.97	87	77
267.489	267.743	64	66
267.489	267.743	76	68
267.489	267.743	88	80
267.614	267.97	65	64
267.614	267.97	77	70
267.614	267.97	89	83
267.743	267.97	64	63
267.743	267.97	76	65
267.743	267.97	88	77
268.036	268.145	40	70
268.145	268.254	42	76
268.254	268.363	44	80
268.363	269.466	33	70
268.363	269.466	45	83
268.457	269.466	52	70
268.55	268.644	57	70
268.644	269.466	57	80
268.644	269.196	60	67
268.644	268.738	64	79
268.738	269.466	64	68
268.831	269.466	69	68
268.925	269.466	36	71
268.925	269.466	48	84
268.925	269.466	72	68
268.925	269.015	76	80
269.015	269.466	76	70
269.105	269.466	81	69
269.196	269.466	60	80
269.196	269.466	84	68
269.196	269.286	88	81
269.286	269.466	88	73
269.376	269.466	93	73
269.466	270.029	35	71
269.466	270.029	47	84
269.466	270.029	98	68
269.466	270.029	100	81
269.559	270.029	92	72
269.652	269.745	88	72
269.745	270.029	59	78
269.745	270.029	86	68
269.745	270.029	88	80
269.837	270.029	80	72
269.93	270.023	76	68
270.023	270.65	33	70
270.023	270.65	45	83
270.023	270.65	72	63
270.023	270.65	76	75
270.12	270.65	69	71
270.218	270.315	64	66
270.315	270.65	57	78
270.315	270.65	60	55
270.315	270.636	64	65
270.636	271.3	56	62
270.636	271.391	59	62
270.636	271.481	64	73
270.737	271.768	32	59
270.838	271.768	35	61
270.939	271.768	40	62
270.939	271.752	76	73
270.939	271.768	80	73
270.939	271.481	83	73
270.939	271.768	88	86
271.03	271.768	44	63
271.12	271.768	47	64
271.21	271.768	52	66
271.3	271.768	56	65
271.391	271.768	59	67
271.481	271.768	64	68
271.481	272.951	79	73
271.481	272.023	83	73
271.481	272.023	86	73
271.481	272.951	91	86
271.571	271.768	68	69
271.662	271.768	71	71
271.752	272.584	76	75
271.842	272.951	71	72
271.932	272.951	68	72
272.023	272.951	64	71
272.023	272.951	77	73
272.023	272.584	83	73
272.023	272.584	86	73
272.023	272.951	89	86
272.116	272.951	59	70
272.21	272.951	56	69
272.303	272.951	52	68
272.397	272.951	47	67
272.491	272.951	44	66
272.584	272.951	40	65
272.584	272.951	76	68
272.584	272.951	83	68
272.584	272.951	86	68
272.584	272.951	88	81
272.678	272.951	35	64
272.772	272.951	32	63
272.92	274.036	33	70
272.92	274.036	45	83
273.026	274.036	52	70
273.12	273.213	57	70
273.213	274.036	57	80
273.213	273.765	60	67
273.213	273.307	64	79
273.307	274.036	64	68
273.401	274.036	69	68
273.494	274.036	36	71
273.494	274.036	48	84
273.494	274.036	72	68
273.494	273.585	76	80
273.585	274.036	76	70
273.675	274.036	81	69
273.765	274.036	60	80
273.765	274.036	84	68
273.765	273.855	88	81
273.855	274.036	88	73
273.946	274.036	93	73
274.036	274.599	35	71
274.036	274.599	47	84
274.036	274.599	98	68
274.036	274.599	100	81
274.126	274.599	92	72
274.218	274.312	88	72
274.312	274.599	59	78
274.312	274.599	86	68
274.312	274.599	88	80
274.405	274.599	80	72
274.499	274.593	76	68
274.593	275.229	33	70
274.593	275.229	45	83
274.593	275.229	72	63
274.593	275.229	76	75
274.69	275.229	69	71
274.787	274.884	64	66
274.884	275.229	57	78
274.884	275.229	60	55
274.884	275.21	64	65
275.21	275.748	40	61
275.21	275.748	47	61
275.21	275.371	52	72
275.21	275.748	56	52
275.21	275.371	64	73
275.371	275.748	52	53
275.371	275.748	64	51
275.371	275.748	76	61
275.495	275.748	53	54
275.495	275.748	65	52
275.495	275.748	77	62
275.617	275.748	54	55
275.617	275.748	66	53
275.617	275.748	78	63
275.737	276.225	55	56
275.737	276.225	67	55
275.737	276.225	79	65
275.856	276.225	56	57
275.856	276.225	68	56
275.856	276.225	80	66
275.973	276.225	57	58
275.973	276.225	69	57
275.973	276.225	81	68
276.088	276.225	58	59
276.088	276.225	70	58
276.088	276.225	82	69
276.203	276.681	59	61
276.203	276.681	71	60
276.203	276.681	83	71
276.32	276.681	60	62
276.32	276.681	72	61
276.32	276.681	84	72
276.436	276.681	61	63
276.436	276.681	73	62
276.436	276.681	85	74
276.553	276.681	62	64
276.553	276.681	74	63
276.553	276.681	86	75
276.671	277.16	63	65
276.671	277.16	75	65
276.671	277.16	87	77
276.792	277.046	64	66
276.792	277.046	76	68
276.792	277.046	88	80
276.917	277.16	65	64
276.917	277.16	77	70
276.917	277.16	89	83
277.046	277.449	64	63
277.046	277.449	76	65
277.046	277.449	88	77
277.449	278.024	49	61
277.449	278.565	52	61
277.449	278.565	57	72
277.556	278.565	61	60
277.649	278.565	64	60
277.743	278.565	37	68
277.743	277.837	69	70
277.837	278.565	69	61
277.93	278.565	73	61
278.024	278.565	49	62
278.024	278.565	55	62
278.024	278.565	58	74
278.024	278.565	79	62
278.024	278.114	82	73
278.114	278.475	82	64
278.204	278.385	85	64
278.295	278.565	45	68
278.295	278.565	91	64
278.295	278.565	94	76
278.385	278.565	85	67
278.475	278.565	82	67
278.565	279.122	49	64
278.565	279.128	53	64
278.565	279.128	57	76
278.565	279.128	89	62
278.565	279.128	93	74
278.656	279.128	85	66
278.748	278.841	81	66
278.841	279.128	37	68
278.841	279.128	77	61
278.841	279.128	81	72
278.935	279.128	73	72
279.029	279.128	69	64
279.122	279.754	49	60
279.122	279.754	52	66
279.122	279.754	55	78
279.122	279.754	76	45
279.122	279.754	79	63
279.219	279.754	70	69
279.317	279.754	69	65
279.414	279.754	45	71
279.414	279.754	64	54
279.414	279.754	67	64
279.511	279.754	58	63
279.609	279.754	57	61
279.739	279.889	38	65
279.739	279.889	53	77
279.739	279.889	62	67
279.739	279.889	65	77
280.023	280.156	55	56
280.023	280.156	58	56
280.023	280.156	64	66
280.023	280.287	67	55
280.023	280.123	73	55
280.111	280.211	74	54
280.2	280.298	76	55
280.287	280.418	57	58
280.287	280.418	62	58
280.287	280.418	65	69
280.287	280.548	74	56
280.287	280.386	77	56
280.375	280.472	79	57
280.461	280.558	81	58
280.548	280.676	67	60
280.548	280.676	70	60
280.548	280.676	76	71
280.548	280.802	79	59
280.548	280.644	85	59
280.634	280.729	86	60
280.719	280.813	88	61
280.802	280.924	69	62
280.802	280.924	74	62
280.802	280.924	77	73
280.802	281.042	86	62
280.802	280.894	89	62
280.884	280.974	91	63
280.964	281.051	93	64
281.042	281.16	79	64
281.042	281.16	82	64
281.042	281.16	88	76
281.042	281.283	91	64
281.042	281.13	97	64
281.12	281.211	98	65
281.201	281.293	100	66
281.283	281.562	81	66
281.283	281.562	86	66
281.283	281.562	89	78
281.283	281.562	93	67
281.283	281.562	98	67
281.283	281.562	101	67
281.79	282.364	47	61
281.79	282.906	50	61
281.79	282.906	55	72
281.896	282.906	59	60
281.99	282.906	62	60
282.084	282.906	35	68
282.084	282.177	67	70
282.177	282.906	67	61
282.271	282.906	71	61
282.364	282.906	47	62
282.364	282.906	53	62
282.364	282.906	56	74
282.364	282.906	77	62
282.364	282.455	80	73
282.455	282.816	80	64
282.545	282.725	83	64
282.635	282.906	43	68
282.635	282.906	89	64
282.635	282.906	92	76
282.725	282.906	83	67
282.816	282.906	80	67
282.906	283.463	47	64
282.906	283.469	52	64
282.906	283.469	55	76
282.906	283.469	88	62
282.906	283.469	91	74
282.996	283.469	83	66
283.088	283.182	79	66
283.182	283.469	35	68
283.182	283.469	76	61
283.182	283.469	79	72
283.275	283.469	71	69
283.369	283.469	67	64
283.463	284.094	47	61
283.463	284.094	50	66
283.463	284.094	53	78
283.463	284.094	74	45
283.463	284.094	77	63
283.56	284.094	68	69
283.657	284.094	67	65
283.755	284.094	43	71
283.755	284.094	62	54
283.755	284.094	65	64
283.852	284.094	56	63
283.949	284.094	55	61
284.08	284.229	36	65
284.08	284.229	52	73
284.08	284.229	60	65
284.08	284.229	64	77
284.363	284.496	53	56
284.363	284.496	56	56
284.363	284.496	62	66
284.363	284.628	65	55
284.363	284.463	71	55
284.452	284.551	72	54
284.54	284.639	74	55
284.628	284.759	55	58
284.628	284.759	60	58
284.628	284.759	64	69
284.628	284.888	72	56
284.628	284.726	76	56
284.715	284.813	77	57
284.802	284.899	79	58
284.888	285.017	65	60
284.888	285.017	68	60
284.888	285.017	74	71
284.888	285.143	77	59
284.888	284.985	83	59
284.974	285.07	84	60
285.059	285.153	86	61
285.143	285.265	67	62
285.143	285.265	72	62
285.143	285.265	76	73
285.143	285.382	84	62
285.143	285.235	88	62
285.225	285.314	89	63
285.304	285.392	91	64
285.382	285.501	77	64
285.382	285.501	80	64
285.382	285.501	86	76
285.382	285.623	89	64
285.382	285.471	95	64
285.461	285.551	96	65
285.541	285.635	98	66
285.623	285.806	79	66
285.623	285.806	84	66
285.623	285.806	88	78
285.623	285.806	91	67
285.623	285.806	96	67
285.623	285.806	100	67
285.899	286.18	48	63
285.899	286.18	60	68
285.988	286.18	50	67
285.988	286.18	62	72
286.078	286.18	52	70
286.078	286.18	64	73
286.168	286.935	41	76
286.168	286.935	53	76
286.168	286.935	65	82
286.452	286.717	59	59
286.452	286.717	62	59
286.452	286.717	68	70
286.452	286.935	77	64
286.452	286.935	89	76
286.717	287.003	59	60
286.717	287.003	62	60
286.717	287.003	68	70
286.717	287.003	71	66
286.717	287.003	83	78
287.003	287.285	35	62
287.003	287.285	47	74
287.003	287.285	59	69
287.092	287.285	60	73
287.182	287.285	62	75
287.272	288.089	39	80
287.272	288.089	51	80
287.272	288.089	63	83
287.556	287.822	57	60
287.556	287.822	60	60
287.556	287.822	66	71
287.556	288.089	75	66
287.556	288.089	87	78
287.822	288.11	57	56
287.822	288.11	60	59
287.822	288.11	66	69
287.822	288.11	69	67
287.822	288.11	81	79
288.11	288.393	33	64
288.11	288.393	45	76
288.11	288.393	57	70
288.2	288.393	59	74
288.289	288.393	60	77
288.379	289.152	37	81
288.379	289.152	49	81
288.379	289.152	61	86
288.664	288.929	55	62
288.664	288.929	58	62
288.664	288.929	64	73
288.664	289.152	73	67
288.664	289.152	85	79
288.929	289.218	55	62
288.929	289.218	58	62
288.929	289.218	64	74
288.929	289.218	67	69
288.929	289.218	79	81
289.218	289.504	31	65
289.218	289.504	43	77
289.218	289.31	55	72
289.31	289.504	56	76
289.402	289.504	58	78
289.492	290.364	35	85
289.492	290.364	47	85
289.492	290.364	59	88
289.783	290.064	53	63
289.783	290.064	56	63
289.783	290.064	62	74
289.783	290.364	71	69
289.783	290.364	83	81
290.064	290.352	53	64
290.064	290.364	56	64
290.064	290.364	62	75
290.064	290.364	65	70
290.064	290.364	77	83
290.352	290.646	29	66
290.352	290.646	41	79
290.352	290.646	53	73
290.444	290.646	56	77
290.538	290.646	58	79
290.632	291.462	35	87
290.632	291.462	47	87
290.632	291.462	59	89
290.93	291.215	53	64
290.93	291.215	57	64
290.93	291.215	62	76
290.93	291.462	71	70
290.93	291.462	83	83
291.215	291.503	53	65
291.215	291.503	57	65
291.215	291.503	62	77
291.215	291.503	65	72
291.215	291.503	77	85
291.503	291.817	29	68
291.503	291.817	41	81
291.503	291.817	53	75
291.599	291.817	57	79
291.698	291.817	58	81
291.799	292.665	35	88
291.799	292.665	47	88
291.799	292.665	59	92
292.107	292.39	53	66
292.107	292.39	57	66
292.107	292.39	63	78
292.107	292.665	71	72
292.107	292.665	83	85
292.39	292.702	53	66
292.39	292.702	57	66
292.39	292.702	63	78
292.39	292.702	65	73
292.39	292.702	77	86
292.702	293.073	45	81
292.702	293.073	57	94
292.813	293.073	43	84
292.813	293.073	55	97
292.937	293.073	41	87
292.937	293.073	53	100
293.061	294.318	40	91
293.061	293.644	52	102
293.644	294.318	52	69
293.644	294.364	57	69
293.644	294.364	59	82
293.644	294.318	64	82
293.644	294.364	71	78
293.644	294.364	76	78
293.644	294.364	81	92
293.644	294.364	83	92
294.318	295.693	40	76
294.318	294.97	52	90
294.318	294.97	64	98
294.97	295.693	52	69
294.97	295.693	56	69
294.97	295.693	59	82
294.97	295.693	64	82
294.97	295.693	76	77
294.97	295.693	80	77
294.97	295.693	83	91
294.97	295.693	88	91
295.693	296.244	33	75
295.693	296.244	36	75
295.693	296.244	45	89
295.696	296.244	40	75
295.786	296.244	52	60
295.878	296.102	57	60
295.967	296.244	60	70
295.967	296.057	64	70
296.057	296.244	64	61
296.102	296.237	57	79
296.147	296.244	69	61
296.237	296.63	57	84
296.237	296.793	72	62
296.237	296.324	76	73
296.324	296.793	76	64
296.368	296.793	60	80
296.411	296.793	81	64
296.499	296.793	59	85
296.499	296.793	84	64
296.499	296.586	88	76
296.586	296.793	88	67
296.63	296.793	57	81
296.679	296.793	93	67
296.777	297.335	64	87
296.777	297.335	96	62
296.777	297.335	100	74
296.87	297.335	93	66
296.962	297.052	88	66
297.052	297.335	84	61
297.052	297.335	88	72
297.142	297.335	81	67
297.187	297.321	40	82
297.232	297.321	76	64
297.321	297.74	40	87
297.321	297.894	72	45
297.321	297.894	76	63
297.415	297.894	69	69
297.461	297.894	43	82
297.508	297.601	64	65
297.601	297.894	41	88
297.601	297.894	60	54
297.601	297.894	64	64
297.694	297.894	57	63
297.74	297.892	40	82
297.79	297.894	52	61
297.888	298.431	33	75
297.888	298.431	37	75
297.888	298.431	45	89
297.892	298.431	40	75
297.981	298.431	52	60
298.073	298.295	57	60
298.163	298.431	61	70
298.163	298.251	64	70
298.251	298.431	64	61
298.295	298.427	57	80
298.339	298.431	69	61
298.427	298.824	57	85
298.427	298.982	73	62
298.427	298.515	76	73
298.515	298.982	76	64
298.56	298.982	60	79
298.604	298.982	81	64
298.692	298.982	58	84
298.692	298.982	85	64
298.692	298.78	88	76
298.78	298.982	88	67
298.824	298.982	57	81
298.872	298.982	93	67
298.966	299.531	67	85
298.966	299.531	97	62
298.966	299.531	100	74
299.061	299.531	93	66
299.154	299.245	88	66
299.245	299.531	85	61
299.245	299.531	88	72
299.335	299.531	81	67
299.38	299.516	45	83
299.426	299.516	76	64
299.516	299.942	45	88
299.516	300.095	73	45
299.516	300.095	76	63
299.614	300.095	69	69
299.662	300.095	48	83
299.709	299.802	64	65
299.802	300.095	46	88
299.802	300.095	61	54
299.802	300.095	64	64
299.895	300.095	57	63
299.942	300.087	45	81
299.99	300.095	52	61
300.087	300.659	38	75
300.087	300.659	41	75
300.087	300.659	45	75
300.087	300.659	50	89
300.18	300.659	53	60
300.273	300.507	57	60
300.367	300.659	62	70
300.367	300.46	65	70
300.46	300.659	65	61
300.507	300.648	57	81
300.554	300.659	69	61
300.648	301.045	57	85
300.648	300.738	74	62
300.648	300.738	77	73
300.738	301.187	77	64
300.783	301.187	60	78
300.827	301.187	81	64
300.914	301.187	58	84
300.914	301.187	86	64
300.914	301.002	89	76
301.002	301.187	89	67
301.045	301.187	57	75
301.089	301.187	93	67
301.176	301.732	65	87
301.176	301.732	98	62
301.176	301.732	101	74
301.264	301.732	93	66
301.353	301.443	89	66
301.443	301.732	86	61
301.443	301.732	89	72
301.534	301.732	81	67
301.579	301.715	38	83
301.625	301.715	77	64
301.715	301.997	38	91
301.715	301.809	74	45
301.715	301.809	77	63
301.809	302.29	69	69
301.856	302.29	37	84
301.903	301.997	65	65
301.997	302.29	38	89
301.997	302.29	62	66
301.997	302.29	65	66
302.091	302.29	57	66
302.138	302.29	40	82
302.185	302.279	53	68
302.279	303.403	41	76
302.279	303.403	53	90
302.539	302.821	56	69
302.539	303.403	62	69
302.539	303.086	65	82
302.539	303.403	71	73
302.539	303.086	74	73
302.539	303.403	83	87
302.821	303.403	44	77
302.821	303.403	56	91
303.086	303.365	59	70
303.086	303.403	65	70
303.086	303.403	68	83
303.086	303.403	74	73
303.086	303.403	77	73
303.086	303.403	86	87
303.365	304.46	47	76
303.365	304.181	59	90
303.634	304.46	62	69
303.634	304.46	68	69
303.634	304.46	71	82
303.634	304.46	77	73
303.634	304.181	80	73
303.634	304.46	89	87
303.916	304.46	40	78
303.916	304.46	52	92
304.181	304.46	56	72
304.181	304.46	59	72
304.181	304.46	64	85
304.181	304.46	76	73
304.181	304.46	80	73
304.181	304.46	88	87
304.46	305.011	33	75
304.46	305.011	36	75
304.46	305.011	45	89
304.463	305.011	40	75
304.553	305.011	52	60
304.645	304.869	57	60
304.734	305.011	60	70
304.734	304.824	64	70
304.824	305.011	64	61
304.869	305.004	57	81
304.914	305.011	69	61
305.004	305.397	57	86
305.004	305.553	72	62
305.004	305.091	76	73
305.091	305.553	76	64
305.135	305.553	60	80
305.179	305.553	81	64
305.266	305.553	59	88
305.266	305.553	84	64
305.266	305.353	88	76
305.353	305.553	88	67
305.397	305.553	57	80
305.444	305.553	93	67
305.537	306.09	64	89
305.537	306.09	96	62
305.537	306.09	100	74
305.627	306.09	93	66
305.717	305.807	88	66
305.807	306.09	84	61
305.807	306.09	88	72
305.897	306.09	81	67
305.942	306.077	40	82
305.987	306.077	76	64
306.077	306.496	40	87
306.077	306.641	72	45
306.077	306.641	76	63
306.17	306.641	69	69
306.216	306.641	43	82
306.263	306.356	64	65
306.356	306.641	41	88
306.356	306.641	60	54
306.356	306.641	64	64
306.449	306.641	57	63
306.496	306.639	40	82
306.542	306.641	52	61
306.635	307.177	33	75
306.635	307.177	37	75
306.635	307.177	45	89
306.639	307.177	40	75
306.728	307.177	52	60
306.82	307.042	57	60
306.91	307.177	61	70
306.91	306.998	64	70
306.998	307.177	64	61
307.042	307.174	57	80
307.086	307.177	69	61
307.174	307.571	57	85
307.174	307.729	73	62
307.174	307.262	76	73
307.262	307.729	76	64
307.306	307.729	60	80
307.35	307.729	81	64
307.439	307.729	58	84
307.439	307.729	85	64
307.439	307.527	88	76
307.527	307.729	88	67
307.571	307.729	57	79
307.618	307.729	93	67
307.713	308.278	67	86
307.713	308.278	97	62
307.713	308.278	100	74
307.808	308.278	93	66
307.901	307.991	88	66
307.991	308.278	85	61
307.991	308.278	88	72
308.082	308.278	81	67
308.127	308.263	45	83
308.173	308.263	76	64
308.263	308.688	45	88
308.263	308.836	73	45
308.263	308.836	76	63
308.36	308.836	69	69
308.409	308.836	48	83
308.456	308.549	64	65
308.549	308.836	46	88
308.549	308.836	61	54
308.549	308.836	64	64
308.642	308.836	57	63
308.688	308.828	45	81
308.735	308.836	52	61
308.828	309.4	38	75
308.828	309.4	41	75
308.828	309.4	45	75
308.828	309.4	50	89
308.921	309.4	53	60
309.015	309.249	57	60
309.108	309.4	62	70
309.108	309.202	65	70
309.202	309.4	65	61
309.249	309.389	57	82
309.296	309.4	69	61
309.389	309.787	57	85
309.389	309.479	74	62
309.389	309.479	77	73
309.479	309.94	77	64
309.525	309.94	60	81
309.568	309.94	81	64
309.656	309.94	58	85
309.656	309.94	86	64
309.656	309.743	89	76
309.743	309.94	89	67
309.787	309.94	57	78
309.834	309.94	93	67
309.929	310.488	65	84
309.929	310.488	98	62
309.929	310.488	101	74
310.019	310.488	93	66
310.109	310.2	89	66
310.2	310.488	86	61
310.2	310.488	89	72
310.29	310.488	81	67
310.335	310.471	38	83
310.381	310.471	77	64
310.471	310.753	38	91
310.471	310.565	74	45
310.471	310.565	77	63
310.565	311.047	69	69
310.612	311.047	37	84
310.659	310.753	65	65
310.753	311.047	38	89
310.753	311.047	62	66
310.753	311.047	65	66
310.847	311.047	57	66
310.894	311.047	40	82
310.941	311.035	53	68
311.035	312.192	41	76
311.035	312.192	53	90
311.307	311.589	56	69
311.307	312.192	62	69
311.307	311.858	65	82
311.307	312.192	71	73
311.307	311.858	74	73
311.307	312.192	83	87
311.589	312.192	44	77
311.589	312.192	56	91
311.858	312.148	59	70
311.858	312.192	65	70
311.858	312.192	68	83
311.858	312.192	74	73
311.858	312.192	77	73
311.858	312.192	86	87
312.148	313.53	47	76
312.148	313.132	59	90
312.456	313.53	62	69
312.456	313.53	68	69
312.456	313.53	71	82
312.456	313.53	77	73
312.456	313.132	80	73
312.456	313.53	89	87
312.785	313.53	40	78
312.785	313.53	52	92
313.132	313.53	56	72
313.132	313.53	59	72
313.132	313.53	64	85
313.132	313.53	76	73
313.132	313.53	80	73
313.132	313.53	88	87
313.53	316.046	33	89
313.53	314.025	45	99
313.828	315.942	37	63
313.828	314.121	49	68
313.932	315.842	40	64
313.932	314.218	52	70
314.025	315.745	45	65
314.025	314.313	57	71
314.121	315.648	49	65
314.121	314.408	61	73
314.218	315.552	52	66
314.218	314.503	64	74
314.313	315.456	57	67
314.313	314.597	69	76
314.408	315.361	61	68
314.408	314.69	73	78
314.503	315.266	64	69
314.503	314.783	76	79
314.597	315.172	69	70
314.597	314.875	81	81
314.69	315.08	73	71
314.69	315.08	85	82
314.783	314.989	76	71
314.783	314.989	88	84
314.875	315.172	81	82
314.875	316.126	93	97
314.989	315.266	76	72
314.989	316.126	88	86
315.08	315.361	73	72
315.08	316.126	85	86
315.172	315.456	69	71
315.172	316.126	81	85
315.266	315.552	64	71
315.266	316.126	76	83
315.361	315.648	61	69
315.361	316.126	73	82
315.456	315.745	57	68
315.456	316.126	69	80
315.552	315.842	52	67
315.552	316.126	64	79
315.648	315.942	49	66
315.648	316.126	61	77
315.745	316.046	45	65
315.745	316.126	57	76
315.842	316.126	40	65
315.842	316.126	52	74
315.942	316.126	37	63
315.942	316.126	49	73
316.046	318.536	33	87
316.046	316.519	45	101
316.325	318.44	37	57
316.325	316.609	49	69
316.428	318.346	40	59
316.428	316.697	52	71
316.519	318.254	45	61
316.519	316.785	57	73
316.609	318.164	49	62
316.609	316.872	61	74
316.697	318.075	52	64
316.697	316.957	64	76
316.785	317.988	57	66
316.785	317.047	69	78
316.872	317.902	61	68
316.872	317.134	73	80
316.957	317.818	64	70
316.957	317.219	76	82
317.047	317.736	69	72
317.047	317.302	81	84
317.134	317.655	73	73
317.134	317.382	85	85
317.219	317.572	76	74
317.219	317.572	88	87
317.302	317.483	81	76
317.302	317.483	93	88
317.382	317.655	85	77
317.382	318.536	97	89
317.483	317.736	81	76
317.483	318.536	93	88
317.572	317.818	76	75
317.572	318.536	88	88
317.655	317.902	73	74
317.655	318.536	85	86
317.736	317.988	69	72
317.736	318.536	81	84
317.818	318.075	64	71
317.818	318.536	76	83
317.902	318.164	61	70
317.902	318.536	73	81
317.988	318.254	57	68
317.988	318.536	69	80
318.075	318.346	52	66
318.075	318.536	64	78
318.164	318.44	49	65
318.164	318.536	61	76
318.254	318.536	45	63
318.254	318.536	57	75
318.346	318.536	40	62
318.346	318.536	52	73
318.44	318.536	37	60
318.44	318.536	49	72
318.536	321.402	33	89
318.536	318.954	45	99
318.779	321.302	37	60
318.779	319.04	49	73
318.867	321.202	40	61
318.867	319.126	52	70
318.954	321.106	45	63
318.954	319.211	57	72
319.04	321.011	49	64
319.04	319.295	61	73
319.126	320.918	52	65
319.126	319.379	64	75
319.211	320.827	57	67
319.211	319.462	69	77
319.295	320.738	61	68
319.295	319.544	73	78
319.379	320.65	64	70
319.379	319.626	76	80
319.462	320.565	69	71
319.462	319.706	81	82
319.544	320.48	73	73
319.544	319.805	85	83
319.626	320.397	76	74
319.626	320.105	88	88
319.706	320.316	81	76
319.706	320.316	93	90
319.805	320.217	85	77
319.805	320.217	97	91
319.971	321.402	89	79
319.971	321.402	101	94
320.105	320.397	88	78
320.105	321.402	100	93
320.217	320.48	85	78
320.217	321.402	97	91
320.316	320.565	81	76
320.316	321.402	93	89
320.397	320.65	76	74
320.397	321.402	88	86
320.48	320.738	73	73
320.48	321.402	85	85
320.565	320.827	69	71
320.565	321.402	81	84
320.65	320.918	64	70
320.65	321.402	76	83
320.738	321.011	61	68
320.738	321.402	73	81
320.827	321.106	57	67
320.827	321.402	69	80
320.918	321.202	52	65
320.918	321.402	64	79
321.011	321.302	49	64
321.011	321.402	61	78
321.106	321.402	45	62
321.106	321.402	57	77
321.202	321.402	40	61
321.202	321.402	52	76
321.302	321.407	37	59
321.302	321.407	49	75
321.402	321.547	33	68
321.402	321.547	45	78
321.513	321.625	34	61
321.513	321.625	46	71
321.602	321.698	33	66
321.602	321.698	45	78
321.677	321.77	34	59
321.677	321.77	46	72
321.749	321.844	33	66
321.749	321.844	45	80
321.822	321.918	34	59
321.822	321.918	46	71
321.896	321.991	33	66
321.896	321.991	45	78
321.969	322.062	34	59
321.969	322.062	46	72
322.041	322.134	33	66
322.041	322.134	45	79
322.112	322.209	34	59
322.112	322.209	46	70
322.186	322.281	33	67
322.186	322.281	45	75
322.26	322.35	34	61
322.26	322.35	46	72
322.329	322.42	33	67
322.329	322.42	45	77
322.399	322.494	34	62
322.399	322.494	46	72
322.472	322.565	33	67
322.472	322.565	45	78
322.544	322.634	34	61
322.544	322.634	46	76
322.613	322.921	33	64
322.613	322.921	45	81
322.686	322.921	34	66
322.686	322.921	46	80
322.762	322.921	35	68
322.762	322.921	47	82
322.836	322.921	36	70
322.836	322.921	48	85
322.915	323.245	37	73
322.915	323.245	49	87
322.992	323.245	38	75
322.992	323.245	50	89
323.071	323.245	39	77
323.071	323.245	51	91
323.15	323.245	40	79
323.15	323.245	52	93
323.23	323.576	41	82
323.23	323.576	53	96
323.312	323.576	40	83
323.312	323.576	52	98
323.394	323.576	39	82
323.394	323.576	51	99
323.474	323.576	38	82
323.474	323.576	50	98
323.554	323.86	37	81
323.554	323.86	49	96
323.632	323.86	36	80
323.632	323.86	48	95
323.709	323.86	35	80
323.709	323.86	47	94
323.785	323.86	34	79
323.785	323.86	46	92
323.86	325.51	33	90
323.86	324.351	45	107
324.351	325.51	45	72
324.351	325.51	49	72
324.351	325.51	52	78
324.351	324.842	57	86
324.351	324.842	69	85
324.351	325.51	73	85
324.351	325.51	76	100
324.351	324.842	81	100
324.842	325.51	57	72
324.842	325.51	61	72
324.842	325.51	64	78
324.842	325.51	69	86
324.842	325.51	81	85
324.842	325.51	85	85
324.842	325.51	88	100
324.842	325.51	93	100
