OnsetTime	OffsetTime	MidiPitch	Velocity
0.500004	0.59934	71	66
0.59934	0.698676	69	64
0.698676	0.798011	68	64
0.798011	0.910798	69	64
0.910798	1.11774	57	57
0.910798	1.11774	72	71
1.10947	1.20881	60	43
1.10947	1.20881	64	52
1.32159	1.5216	60	43
1.32159	1.5216	64	52
1.32159	1.73524	74	66
1.4216	1.62161	72	63
1.5216	1.73524	60	42
1.5216	1.73524	64	51
1.5216	1.73524	71	63
1.62161	1.73524	72	63
1.73524	1.94219	57	57
1.73524	1.94219	76	72
1.93391	2.03325	60	43
1.93391	2.03325	64	52
2.14354	2.34221	60	43
2.14354	2.34221	64	52
2.14354	2.54571	77	66
2.24288	2.44155	76	63
2.34221	2.54571	60	43
2.34221	2.54571	64	52
2.34221	2.54571	75	63
2.44155	2.54571	76	63
2.54571	2.94306	57	57
2.54571	2.94306	83	70
2.64505	2.84372	81	64
2.74438	2.94306	60	42
2.74438	2.94306	64	50
2.74438	2.94306	80	64
2.84372	2.94306	81	64
2.94306	3.36161	57	57
2.94306	3.36161	83	69
3.04442	3.24711	81	64
3.14576	3.36161	60	43
3.14576	3.36161	64	52
3.14576	3.36161	80	64
3.24711	3.36161	81	64
3.36161	3.57457	57	57
3.36161	3.78835	84	72
3.5657	3.67208	60	42
3.5657	3.67208	64	50
3.78835	3.88769	60	42
3.78835	3.88769	64	50
3.78835	3.88769	81	68
3.98703	4.09417	60	42
3.98703	4.09417	64	50
3.98703	4.09417	84	65
4.16699	4.1893	79	63
4.1893	4.21162	81	63
4.21162	4.31297	52	65
4.21162	4.31297	83	80
4.41432	4.51566	59	44
4.41432	4.51566	64	53
4.41432	4.51566	78	54
4.41432	4.51566	81	64
4.61701	4.71635	59	44
4.61701	4.71635	64	53
4.61701	4.71635	76	58
4.61701	4.71635	79	69
4.81568	4.92282	59	44
4.81568	4.92282	64	53
4.81568	4.92282	78	54
4.81568	4.92282	81	64
4.99425	5.0167	79	65
5.0167	5.03915	81	65
5.03915	5.1405	52	66
5.03915	5.1405	83	82
5.24184	5.34319	59	43
5.24184	5.34319	64	52
5.24184	5.34319	78	56
5.24184	5.34319	81	66
5.44454	5.54387	59	43
5.44454	5.54387	64	52
5.44454	5.54387	76	58
5.44454	5.54387	79	69
5.64321	5.75113	59	43
5.64321	5.75113	64	52
5.64321	5.75113	78	55
5.64321	5.75113	81	65
5.81994	5.84214	79	64
5.84214	5.8895	81	64
5.86433	5.96501	52	67
5.86433	5.96501	83	79
6.06569	6.16636	59	43
6.06569	6.16636	64	52
6.06569	6.16636	78	57
6.06569	6.16636	81	68
6.26704	6.37653	47	52
6.26704	6.37653	76	58
6.26704	6.37653	79	69
6.48601	6.60229	59	52
6.48601	6.60229	75	56
6.48601	6.60229	78	66
6.71856	7.17588	52	57
6.71856	7.17588	76	69
7.20636	7.3057	71	66
7.3057	7.40503	69	64
7.40503	7.50437	68	64
7.50437	7.61716	69	64
7.61716	7.8241	57	57
7.61716	7.8241	72	71
7.81583	7.91516	60	43
7.81583	7.91516	64	52
8.02795	8.22796	60	43
8.02795	8.22796	64	52
8.02795	8.4416	74	66
8.12796	8.32797	72	63
8.22796	8.4416	60	42
8.22796	8.4416	64	51
8.22796	8.4416	71	63
8.32797	8.4416	72	63
8.4416	8.64855	57	57
8.4416	8.64855	76	72
8.64027	8.73961	60	43
8.64027	8.73961	64	52
8.8499	9.04857	60	43
8.8499	9.04857	64	52
8.8499	9.25207	77	66
8.94924	9.14791	76	63
9.04857	9.25207	60	43
9.04857	9.25207	64	52
9.04857	9.25207	75	63
9.14791	9.25207	76	63
9.25207	9.64941	57	57
9.25207	9.64941	83	70
9.35141	9.55008	81	64
9.45074	9.64941	60	42
9.45074	9.64941	64	50
9.45074	9.64941	80	64
9.55008	9.64941	81	64
9.64941	10.068	57	57
9.64941	10.068	83	69
9.75077	9.95347	81	64
9.85212	10.068	60	43
9.85212	10.068	64	52
9.85212	10.068	80	64
9.95347	10.068	81	64
10.068	10.2809	57	57
10.068	10.4947	84	72
10.2721	10.3784	60	42
10.2721	10.3784	64	50
10.4947	10.594	60	42
10.4947	10.594	64	50
10.4947	10.594	81	68
10.6934	10.8005	60	42
10.6934	10.8005	64	50
10.6934	10.8005	84	65
10.8733	10.8957	79	63
10.8957	10.918	81	63
10.918	11.0193	52	65
10.918	11.0193	83	80
11.1207	11.222	59	44
11.1207	11.222	64	53
11.1207	11.222	78	54
11.1207	11.222	81	64
11.3234	11.4227	59	44
11.3234	11.4227	64	53
11.3234	11.4227	76	58
11.3234	11.4227	79	69
11.522	11.6292	59	44
11.522	11.6292	64	53
11.522	11.6292	78	54
11.522	11.6292	81	64
11.7006	11.7231	79	65
11.7231	11.7455	81	65
11.7455	11.8469	52	66
11.7455	11.8469	83	82
11.9482	12.0496	59	43
11.9482	12.0496	64	52
11.9482	12.0496	78	56
11.9482	12.0496	81	66
12.1509	12.2502	59	43
12.1509	12.2502	64	52
12.1509	12.2502	76	58
12.1509	12.2502	79	69
12.3496	12.4575	59	43
12.3496	12.4575	64	52
12.3496	12.4575	78	55
12.3496	12.4575	81	65
12.5263	12.5485	79	64
12.5485	12.5957	81	64
12.5707	12.6707	52	67
12.5707	12.6707	83	79
12.7707	12.8707	59	43
12.7707	12.8707	64	52
12.7707	12.8707	78	57
12.7707	12.8707	81	68
12.9707	13.0794	47	52
12.9707	13.0794	76	58
12.9707	13.0794	79	69
13.1881	13.311	59	52
13.1881	13.311	75	56
13.1881	13.311	78	66
13.434	13.8667	52	57
13.434	13.8667	76	69
13.8955	14.0042	72	56
13.8955	14.0042	76	56
14.1129	14.2193	74	56
14.1129	14.2193	77	56
14.3257	14.4299	48	59
14.3257	14.4299	76	66
14.3257	14.4299	79	66
14.534	14.6382	60	53
14.534	14.6382	76	57
14.534	14.6382	79	57
14.7423	14.8451	52	59
14.7423	14.8451	81	64
14.8451	15.1729	79	57
14.9478	15.1729	64	57
14.9478	15.1729	77	57
15.0556	15.1729	76	57
15.1684	15.6018	55	60
15.1684	15.6018	71	65
15.1684	15.6018	74	65
15.3842	15.6018	67	59
15.6018	15.7105	72	56
15.6018	15.7105	76	56
15.8192	15.9255	74	56
15.8192	15.9255	77	56
16.0319	16.1361	48	59
16.0319	16.1361	76	66
16.0319	16.1361	79	66
16.2402	16.3444	60	53
16.2402	16.3444	76	57
16.2402	16.3444	79	57
16.4486	16.5513	52	59
16.4486	16.5513	81	64
16.5513	16.8791	79	57
16.654	16.8791	64	57
16.654	16.8791	77	57
16.7618	16.8791	76	57
16.8746	17.308	55	60
16.8746	17.308	71	65
16.8746	17.308	74	65
17.308	17.4216	69	56
17.308	17.4216	72	56
17.5352	17.6416	71	56
17.5352	17.6416	74	56
17.748	17.8522	45	59
17.748	17.8522	72	66
17.748	17.8522	76	66
17.9563	18.0605	57	53
17.9563	18.0605	72	57
17.9563	18.0605	76	57
18.1647	18.2674	48	59
18.1647	18.2674	77	64
18.2674	18.5952	76	57
18.3701	18.5952	60	57
18.3701	18.5952	74	57
18.4779	18.5952	72	57
18.5907	19.0223	52	60
18.5907	19.0223	68	65
18.5907	19.0223	71	65
18.8065	19.0223	64	59
19.0223	19.131	69	56
19.0223	19.131	72	56
19.2397	19.3461	71	56
19.2397	19.3461	74	56
19.4525	19.5566	45	59
19.4525	19.5566	72	66
19.4525	19.5566	76	66
19.6608	19.765	57	53
19.6608	19.765	72	57
19.6608	19.765	76	57
19.8691	19.9719	48	59
19.8691	19.9719	77	64
19.9719	20.2996	76	57
20.0746	20.2996	60	57
20.0746	20.2996	74	57
20.1823	20.2996	72	57
20.2951	20.7268	52	60
20.2951	20.7268	68	65
20.2951	20.7268	71	65
20.7268	20.8261	71	56
20.8261	20.9255	69	56
20.9255	21.0248	68	56
21.0248	21.1376	69	56
21.1376	21.3445	57	53
21.1376	21.3445	72	59
21.3362	21.4356	60	47
21.3362	21.4356	64	47
21.5484	21.7484	60	47
21.5484	21.7484	64	47
21.5484	21.962	74	62
21.6484	21.8484	72	57
21.7484	21.962	60	47
21.7484	21.962	64	47
21.7484	21.962	71	57
21.8484	21.962	72	57
21.962	22.169	57	54
21.962	22.169	76	66
22.1607	22.26	60	48
22.1607	22.26	64	48
22.3703	22.569	60	48
22.3703	22.569	64	48
22.3703	22.7725	77	63
22.4697	22.6683	76	58
22.569	22.7725	60	48
22.569	22.7725	64	48
22.569	22.7725	75	58
22.6683	22.7725	76	58
22.7725	23.1725	57	56
22.7725	23.1725	83	70
22.8725	23.0725	81	63
22.9725	23.1725	60	49
22.9725	23.1725	64	49
22.9725	23.1725	80	63
23.0725	23.1725	81	63
23.1725	23.6111	57	57
23.1725	23.6111	83	71
23.276	23.4829	81	64
23.3794	23.6111	60	43
23.3794	23.6111	64	52
23.3794	23.6111	80	64
23.4829	23.6111	81	64
23.6111	23.824	53	57
23.6111	24.0378	84	76
23.8152	23.9216	57	51
23.8152	23.9216	63	51
24.0378	24.1406	57	43
24.0378	24.1406	63	43
24.0378	24.1406	81	62
24.2433	24.3505	57	39
24.2433	24.3505	63	39
24.2433	24.3505	83	62
24.4576	24.5589	52	46
24.4576	24.5589	84	70
24.6603	24.7616	57	42
24.6603	24.7616	64	42
24.6603	24.7616	83	62
24.863	24.9623	50	42
24.863	24.9623	81	62
25.0617	25.1688	53	42
25.0617	25.1688	59	42
25.0617	25.1688	80	62
25.2759	25.3773	48	47
25.2759	25.3773	81	71
25.4786	25.58	52	39
25.4786	25.58	57	39
25.4786	25.58	76	64
25.6813	25.7807	50	41
25.6838	25.7831	77	64
25.88	25.9879	53	41
25.88	25.9879	59	41
25.88	25.9879	74	64
26.0958	26.3013	52	48
26.0958	26.3013	57	48
26.0958	26.5068	72	74
26.3013	26.5017	52	41
26.3013	26.5168	57	41
26.5017	26.7242	52	41
26.5068	26.7242	56	41
26.5068	26.5611	72	64
26.5575	26.6662	71	57
26.6119	26.7308	72	57
26.6662	26.7768	71	57
26.7242	26.9813	52	41
26.7242	26.9813	56	41
26.7308	26.9813	72	57
26.7768	26.8887	71	57
26.8242	26.9813	69	64
26.8887	26.9813	71	57
26.9813	27.4537	45	46
26.9813	27.4242	57	46
26.9813	27.4242	69	65
27.4537	27.5624	72	56
27.4537	27.5624	76	56
27.6711	27.7775	74	56
27.6711	27.7775	77	56
27.8838	27.988	48	59
27.8838	27.988	76	66
27.8838	27.988	79	66
28.0922	28.1963	60	53
28.0922	28.1963	76	57
28.0922	28.1963	79	57
28.3005	28.4032	52	59
28.3005	28.4032	81	64
28.4032	28.731	79	57
28.506	28.731	64	57
28.506	28.731	77	57
28.6137	28.731	76	57
28.7265	29.1599	55	60
28.7265	29.1599	71	65
28.7265	29.1599	74	65
28.9423	29.1599	67	59
29.1599	29.2686	72	56
29.1599	29.2686	76	56
29.3773	29.4837	74	56
29.3773	29.4837	77	56
29.5901	29.6942	48	59
29.5901	29.6942	76	66
29.5901	29.6942	79	66
29.7984	29.9026	60	53
29.7984	29.9026	76	57
29.7984	29.9026	79	57
30.0067	30.1095	52	59
30.0067	30.1095	81	64
30.1095	30.4372	79	57
30.2122	30.4372	64	57
30.2122	30.4372	77	57
30.32	30.4372	76	57
30.4327	30.8661	55	60
30.4327	30.8661	71	65
30.4327	30.8661	74	65
30.8661	30.9798	69	56
30.8661	30.9798	72	56
31.0934	31.1998	71	56
31.0934	31.1998	74	56
31.3062	31.4103	45	59
31.3062	31.4103	72	66
31.3062	31.4103	76	66
31.5145	31.6187	57	53
31.5145	31.6187	72	57
31.5145	31.6187	76	57
31.7228	31.8256	48	59
31.7228	31.8256	77	64
31.8256	32.1533	76	57
31.9283	32.1533	60	57
31.9283	32.1533	74	57
32.036	32.1533	72	57
32.1488	32.5805	52	60
32.1488	32.5805	68	65
32.1488	32.5805	71	65
32.3647	32.5805	64	59
32.5805	32.6892	69	56
32.5805	32.6892	72	56
32.7979	32.9042	71	56
32.7979	32.9042	74	56
33.0106	33.1148	45	59
33.0106	33.1148	72	66
33.0106	33.1148	76	66
33.219	33.3231	57	53
33.219	33.3231	72	57
33.219	33.3231	76	57
33.4273	33.53	48	59
33.4273	33.53	77	64
33.53	33.8578	76	57
33.6328	33.8578	60	57
33.6328	33.8578	74	57
33.7405	33.8578	72	57
33.8533	34.2849	52	60
33.8533	34.2849	68	65
33.8533	34.2849	71	65
34.2849	34.3843	71	56
34.3843	34.4836	69	56
34.4836	34.583	68	56
34.583	34.6957	69	56
34.6957	34.9027	57	53
34.6957	34.9027	72	59
34.8944	34.9937	60	47
34.8944	34.9937	64	47
35.1065	35.3065	60	47
35.1065	35.3065	64	47
35.1065	35.5202	74	62
35.2065	35.4065	72	57
35.3065	35.5202	60	47
35.3065	35.5202	64	47
35.3065	35.5202	71	57
35.4065	35.5202	72	57
35.5202	35.7271	57	54
35.5202	35.7271	76	66
35.7189	35.8182	60	48
35.7189	35.8182	64	48
35.9285	36.1272	60	48
35.9285	36.1272	64	48
35.9285	36.3307	77	63
36.0278	36.2265	76	58
36.1272	36.3307	60	48
36.1272	36.3307	64	48
36.1272	36.3307	75	58
36.2265	36.3307	76	58
36.3307	36.7307	57	56
36.3307	36.7307	83	70
36.4307	36.6307	81	63
36.5307	36.7307	60	49
36.5307	36.7307	64	49
36.5307	36.7307	80	63
36.6307	36.7307	81	63
36.7307	37.1692	57	57
36.7307	37.1692	83	71
36.8341	37.041	81	64
36.9376	37.1692	60	43
36.9376	37.1692	64	52
36.9376	37.1692	80	64
37.041	37.1692	81	64
37.1692	37.3822	53	57
37.1692	37.596	84	76
37.3733	37.4797	57	51
37.3733	37.4797	63	51
37.596	37.6987	57	43
37.596	37.6987	63	43
37.596	37.6987	81	62
37.8015	37.9086	57	39
37.8015	37.9086	63	39
37.8015	37.9086	83	62
38.0158	38.1171	52	46
38.0158	38.1171	84	70
38.2184	38.3198	57	42
38.2184	38.3198	64	42
38.2184	38.3198	83	62
38.4211	38.5205	50	42
38.4211	38.5205	81	62
38.6198	38.727	53	42
38.6198	38.727	59	42
38.6198	38.727	80	62
38.8341	38.9354	48	47
38.8341	38.9354	81	71
39.0368	39.1381	52	39
39.0368	39.1381	57	39
39.0368	39.1381	76	64
39.2395	39.3388	50	41
39.242	39.3413	77	64
39.4382	39.5461	53	41
39.4382	39.5461	59	41
39.4382	39.5461	74	64
39.654	39.8595	52	48
39.654	39.8595	57	48
39.654	40.065	72	74
39.8595	40.0598	52	41
39.8595	40.0749	57	41
40.0598	40.2823	52	41
40.065	40.2823	56	41
40.065	40.1193	72	64
40.1157	40.2244	71	57
40.17	40.2889	72	57
40.2244	40.335	71	57
40.2823	40.5394	52	41
40.2823	40.5394	56	41
40.2889	40.5394	72	57
40.335	40.4469	71	57
40.3824	40.5394	69	64
40.4469	40.5394	71	57
40.5394	41.0119	45	46
40.5394	40.9823	57	46
40.5394	40.9823	69	65
41.0119	41.1175	69	73
41.0119	41.1175	81	84
41.2231	41.3311	71	73
41.2231	41.3311	83	84
41.3311	41.367	45	64
41.367	41.403	49	64
41.403	41.6518	52	64
41.439	41.6431	57	73
41.439	41.8543	73	78
41.439	41.8543	85	90
41.6431	41.7487	57	69
41.8543	41.9578	57	69
41.8543	41.9578	69	73
41.8543	41.9578	81	84
42.0612	42.1669	57	69
42.0612	42.1669	71	73
42.0612	42.1669	83	84
42.1669	42.2021	45	60
42.2021	42.2373	49	60
42.2373	42.2725	52	60
42.2725	42.4766	57	72
42.2725	42.4851	73	79
42.2725	42.4851	85	91
42.4766	42.5793	57	64
42.4766	42.5793	71	72
42.4766	42.5793	83	82
42.6821	42.7848	57	65
42.6821	42.7848	69	77
42.6821	42.7848	81	89
42.8875	42.9995	57	67
42.8875	42.9995	68	73
42.8875	42.9995	80	84
42.9995	43.0368	38	63
43.0368	43.0741	42	63
43.0741	43.3291	45	63
43.1114	43.3169	50	73
43.1114	43.3291	66	80
43.1114	43.3291	78	92
43.3169	43.4218	50	69
43.3169	43.4218	68	69
43.3169	43.4218	80	78
43.4218	43.4568	39	63
43.4568	43.4917	42	63
43.4917	43.5267	45	63
43.5267	43.7322	51	73
43.5267	43.7434	69	75
43.5267	43.7434	81	86
43.7322	43.8441	51	71
43.7322	43.8441	71	70
43.7322	43.8441	83	80
43.8441	43.8814	40	63
43.8814	43.9187	44	63
43.9187	44.2692	47	63
43.956	44.1688	52	73
43.956	44.2692	68	78
43.956	44.2692	80	90
44.1688	44.2825	52	73
44.1688	44.2825	64	73
44.1688	44.2825	76	84
44.3961	44.5003	69	73
44.3961	44.5003	81	84
44.6044	44.7093	71	73
44.6044	44.7093	83	84
44.7093	44.7443	45	64
44.7443	44.7792	49	64
44.7792	45.027	52	64
44.8142	45.0183	57	73
44.8142	45.2281	73	78
44.8142	45.2281	85	90
45.0183	45.1232	57	69
45.2281	45.3301	57	69
45.2281	45.3301	69	73
45.2281	45.3301	81	84
45.4322	45.5378	57	69
45.4322	45.5378	71	73
45.4322	45.5378	83	84
45.5378	45.573	45	60
45.573	45.6083	49	60
45.6083	45.6435	52	60
45.6435	45.849	57	72
45.6435	45.8576	73	79
45.6435	45.8576	85	91
45.849	45.9524	57	64
45.849	45.9524	71	72
45.849	45.9524	83	82
46.0559	46.16	57	65
46.0559	46.16	69	77
46.0559	46.16	81	89
46.2642	46.3729	57	67
46.2642	46.3729	68	73
46.2642	46.3729	80	84
46.3729	46.4091	38	63
46.4091	46.4454	42	63
46.4454	46.7012	45	63
46.4816	46.6885	50	73
46.4816	46.7012	66	80
46.4816	46.7012	78	92
46.6885	46.7972	50	69
46.6885	46.7972	71	69
46.6885	46.7972	83	78
46.7972	46.8334	40	63
46.8334	46.8697	44	63
46.8697	46.9059	47	63
46.9059	47.1315	52	73
46.9059	47.1431	68	75
46.9059	47.1431	80	86
47.1315	47.2478	52	71
47.1315	47.2478	64	70
47.1315	47.2478	76	80
47.364	47.787	45	73
47.364	47.787	69	78
47.364	47.787	81	90
47.8152	47.9208	69	73
47.8152	47.9208	81	84
48.0264	48.1344	71	73
48.0264	48.1344	83	84
48.1344	48.1703	45	64
48.1703	48.2063	49	64
48.2063	48.4551	52	64
48.2423	48.4463	57	73
48.2423	48.6576	73	78
48.2423	48.6576	85	90
48.4463	48.552	57	69
48.6576	48.7611	57	69
48.6576	48.7611	69	73
48.6576	48.7611	81	84
48.8645	48.9709	57	69
48.8645	48.9709	71	73
48.8645	48.9709	83	84
48.9709	49.0064	45	60
49.0064	49.0418	49	60
49.0418	49.0773	52	60
49.0773	49.2813	57	72
49.0773	49.2901	73	79
49.0773	49.2901	85	91
49.2813	49.3862	57	64
49.2813	49.3862	71	72
49.2813	49.3862	83	82
49.4911	49.5939	57	65
49.4911	49.5939	69	77
49.4911	49.5939	81	89
49.6966	49.8038	57	67
49.6966	49.8038	68	73
49.6966	49.8038	80	84
49.8038	49.8395	38	63
49.8395	49.8752	42	63
49.8752	50.129	45	63
49.9109	50.1164	50	73
49.9109	50.129	66	80
49.9109	50.129	78	92
50.1164	50.2243	50	69
50.1164	50.2243	68	69
50.1164	50.2243	80	78
50.2243	50.2603	39	63
50.2603	50.2963	42	63
50.2963	50.3322	45	63
50.3322	50.5405	51	73
50.3322	50.5515	69	75
50.3322	50.5515	81	86
50.5405	50.65	51	71
50.5405	50.65	71	70
50.5405	50.65	83	80
50.65	50.6865	40	63
50.6865	50.723	44	63
50.723	51.0697	47	63
50.7595	50.9723	52	73
50.7595	51.0697	68	78
50.7595	51.0697	80	90
50.9723	51.0826	52	73
50.9723	51.0826	64	73
50.9723	51.0826	76	84
51.1929	51.2992	69	73
51.1929	51.2992	81	84
51.4056	51.5105	71	73
51.4056	51.5105	83	84
51.5105	51.5455	45	64
51.5455	51.5804	49	64
51.5804	51.8282	52	64
51.6154	51.8195	57	73
51.6154	52.0293	73	78
51.6154	52.0293	85	90
51.8195	51.9244	57	69
52.0293	52.1313	57	69
52.0293	52.1313	69	73
52.0293	52.1313	81	84
52.2334	52.3413	57	69
52.2334	52.3413	71	73
52.2334	52.3413	83	84
52.3413	52.3773	45	60
52.3773	52.4132	49	60
52.4132	52.4492	52	60
52.4492	52.6547	57	72
52.4492	52.6633	73	79
52.4492	52.6633	85	91
52.6547	52.7581	57	64
52.6547	52.7581	71	72
52.6547	52.7581	83	82
52.8616	52.9658	57	65
52.8616	52.9658	69	77
52.8616	52.9658	81	89
53.0699	53.1786	57	67
53.0699	53.1786	68	73
53.0699	53.1786	80	84
53.1786	53.2149	38	63
53.2149	53.2511	42	63
53.2511	53.5075	45	63
53.2873	53.4942	50	73
53.2873	53.5075	66	80
53.2873	53.5075	78	92
53.4942	53.6079	50	69
53.4942	53.6079	71	69
53.4942	53.6079	83	78
53.6079	53.6458	40	63
53.6458	53.6836	44	63
53.6836	53.7215	47	63
53.7215	53.9471	52	73
53.7215	53.9587	68	75
53.7215	53.9587	80	86
53.9471	54.0634	52	71
53.9471	54.0634	64	70
53.9471	54.0634	76	80
54.1796	54.6028	45	73
54.1796	54.6028	69	78
54.1796	54.6028	81	90
54.6316	54.7491	85	60
54.739	54.8502	86	52
54.8397	54.9555	85	52
54.9446	55.064	83	52
55.0533	55.1605	54	50
55.0533	55.1712	81	58
55.1605	55.2779	83	50
55.2676	55.371	57	31
55.2676	55.371	61	37
55.2676	55.3814	81	50
55.371	55.485	80	50
55.4745	55.5801	57	31
55.4745	55.5801	61	37
55.4745	55.5907	78	56
55.5801	55.6964	81	50
55.6858	55.7921	57	31
55.6858	55.7921	61	37
55.6858	55.8028	80	46
55.7921	55.9089	78	46
55.8985	56.0027	56	50
55.8985	56.0131	77	58
56.0027	56.1173	78	47
56.1069	56.2117	59	30
56.1069	56.2117	61	36
56.1069	56.2222	80	49
56.2117	56.3271	77	46
56.3166	56.4215	59	30
56.3166	56.4215	61	36
56.3166	56.432	73	56
56.4215	56.537	75	47
56.5264	56.6321	59	30
56.5264	56.6321	61	36
56.5264	56.6426	77	50
56.6321	56.7483	73	47
56.7377	56.8433	54	50
56.7377	56.8539	78	56
56.8433	56.9595	77	47
56.949	57.0539	57	30
56.949	57.0539	61	36
56.949	57.0643	78	51
57.0539	57.1692	80	48
57.1587	57.2636	57	31
57.1587	57.2636	61	37
57.1587	57.2741	81	58
57.2636	57.3791	80	54
57.3685	57.4742	57	32
57.3685	57.4742	61	38
57.3685	57.4847	81	56
57.4742	57.5902	83	59
57.5798	57.684	53	55
57.5798	57.6944	85	68
57.684	57.7984	84	62
57.7882	57.8902	56	31
57.7882	57.8902	61	38
57.7882	57.9004	85	66
57.8902	57.9922	84	59
57.9922	58.0964	56	31
57.9922	58.0964	61	38
57.9922	58.1068	85	61
58.0964	58.2112	86	55
58.2006	58.307	56	31
58.2006	58.307	61	38
58.2006	58.3183	85	55
58.307	58.4311	83	55
58.4206	58.5255	54	50
58.4206	58.536	81	58
58.5255	58.6407	83	47
58.6304	58.7338	57	30
58.6304	58.7338	61	36
58.6304	58.7441	81	53
58.7338	58.8477	80	47
58.8372	58.9414	57	30
58.8372	58.9414	61	36
58.8372	58.9518	78	54
58.9414	59.0562	81	47
59.0456	59.152	57	30
59.0456	59.152	61	36
59.0456	59.1626	80	50
59.152	59.269	78	46
59.2584	59.3647	56	50
59.2584	59.3754	76	56
59.3647	59.4815	78	47
59.4711	59.5753	61	30
59.4711	59.5753	64	36
59.4711	59.5857	80	50
59.5753	59.6899	76	47
59.6795	59.7843	61	30
59.6795	59.7843	64	36
59.6795	59.7948	73	54
59.7843	59.8999	75	47
59.8892	59.9964	61	30
59.8892	59.9964	64	36
59.8892	60.0071	76	53
59.9964	60.114	73	47
60.1035	60.2084	56	50
60.1035	60.2189	75	53
60.2084	60.3238	76	47
60.3133	60.4182	63	31
60.3133	60.4182	66	37
60.3133	60.4287	78	51
60.4182	60.5336	75	47
60.5231	60.6291	63	31
60.5231	60.6291	66	37
60.5231	60.6397	72	50
60.6291	60.7467	73	47
60.7359	60.8443	63	31
60.7359	60.8443	66	37
60.7359	60.856	75	50
60.8443	60.9724	72	46
60.9615	61.3691	61	42
60.9615	61.3691	64	50
60.9615	61.3691	73	52
61.3978	61.5192	85	60
61.5089	61.6205	86	52
61.61	61.7258	85	52
61.7149	61.8344	83	52
61.8236	61.9315	54	50
61.8236	61.9423	81	58
61.9315	62.05	83	50
62.0394	62.1451	57	31
62.0394	62.1451	61	37
62.0394	62.1556	81	50
62.1451	62.2613	80	50
62.2507	62.3563	57	31
62.2507	62.3563	61	37
62.2507	62.3669	78	56
62.3563	62.4726	81	50
62.462	62.5684	57	31
62.462	62.5684	61	37
62.462	62.579	80	46
62.5684	62.6855	78	46
62.6747	62.7827	56	50
62.6747	62.7935	77	58
62.7827	62.9011	78	47
62.8906	62.9955	59	30
62.8906	62.9955	61	36
62.8906	63.0059	80	49
62.9955	63.1108	77	46
63.1003	63.2052	59	30
63.1003	63.2052	61	36
63.1003	63.2157	73	56
63.2052	63.3207	75	47
63.3101	63.4158	59	30
63.3101	63.4158	61	36
63.3101	63.4263	77	50
63.4158	63.532	73	47
63.5214	63.627	54	50
63.5214	63.6376	78	56
63.627	63.7432	77	47
63.7327	63.8376	57	30
63.7327	63.8376	61	36
63.7327	63.8481	78	51
63.8376	63.9529	80	48
63.9425	64.0473	57	31
63.9425	64.0473	61	37
63.9425	64.0578	81	58
64.0473	64.1628	80	54
64.1522	64.2579	57	32
64.1522	64.2579	61	38
64.1522	64.2684	81	56
64.2579	64.3741	83	59
64.3635	64.4699	53	55
64.3635	64.4805	85	68
64.4699	64.5866	84	62
64.5763	64.6797	56	31
64.5763	64.6797	61	38
64.5763	64.69	85	66
64.6797	64.7831	84	59
64.7831	64.8866	56	31
64.7831	64.8866	61	38
64.7831	64.8969	85	64
64.8866	65.0007	86	57
64.99	65.0964	56	31
64.99	65.0964	61	38
64.99	65.107	85	57
65.0964	65.2133	83	57
65.2028	65.3077	54	50
65.2028	65.3182	81	60
65.3077	65.4229	83	51
65.4126	65.516	57	30
65.4126	65.516	61	36
65.4126	65.5263	81	55
65.516	65.6298	80	47
65.6194	65.7229	57	30
65.6194	65.7229	61	36
65.6194	65.7332	78	54
65.7229	65.837	81	47
65.8263	65.9327	57	30
65.8263	65.9327	61	36
65.8263	65.9433	80	50
65.9327	66.0496	78	46
66.0391	66.1447	56	50
66.0391	66.1553	76	53
66.1447	66.2606	78	47
66.2504	66.3531	61	30
66.2504	66.3531	64	36
66.2504	66.3634	80	50
66.3531	66.4663	76	47
66.4558	66.56	61	30
66.4558	66.56	64	36
66.4558	66.5704	73	54
66.56	66.6749	75	47
66.6642	66.7713	61	30
66.6642	66.7713	64	36
66.6642	66.782	76	53
66.7713	66.8892	73	47
66.8785	66.9856	56	50
66.8785	66.9963	75	53
66.9856	67.1032	76	47
67.0928	67.1976	63	31
67.0928	67.1976	66	37
67.0928	67.2081	78	51
67.1976	67.313	75	47
67.3025	67.4085	63	31
67.3025	67.4085	66	37
67.3025	67.4192	72	50
67.4085	67.5262	73	47
67.5154	67.6238	63	31
67.5154	67.6238	66	37
67.5154	67.6355	75	50
67.6238	67.7518	72	46
67.741	68.1486	61	42
67.741	68.1486	64	50
67.741	68.1486	73	52
68.1757	68.2903	76	69
68.2799	68.3946	74	59
68.3841	68.4998	73	59
68.489	68.6084	71	59
68.5976	68.7048	57	57
68.5976	68.7155	69	66
68.7048	68.8225	71	57
68.8119	68.9176	61	36
68.8119	68.9176	64	43
68.8119	68.9281	73	57
68.9176	69.0338	74	57
69.0232	69.1288	61	36
69.0232	69.1288	64	43
69.0232	69.1394	76	64
69.1288	69.2451	78	57
69.2345	69.3409	61	36
69.2345	69.3409	64	43
69.2345	69.3515	80	56
69.3409	69.4428	81	56
69.4473	69.55	59	57
69.4473	69.5603	81	66
69.55	69.6632	80	60
69.6527	69.7576	62	35
69.6527	69.7576	64	42
69.6527	69.7681	78	60
69.7576	69.8581	76	57
69.8625	69.9674	56	57
69.8625	69.9779	76	64
69.9674	70.0829	74	59
70.0723	70.1779	62	35
70.0723	70.1779	64	42
70.0723	70.1885	73	59
70.1779	70.2938	71	59
70.2836	70.3856	57	57
70.2836	70.3958	69	64
70.3856	70.4982	71	54
70.4877	70.5926	61	35
70.4877	70.5926	64	41
70.4877	70.603	73	57
70.5926	70.7079	74	54
70.6974	70.8023	61	35
70.6974	70.8023	64	41
70.6974	70.8128	76	64
70.8023	70.9187	78	58
70.9072	71.0217	61	35
70.9072	71.0217	64	41
70.9072	71.034	80	60
71.0217	71.1447	81	63
71.1447	71.372	52	57
71.1447	71.372	82	75
71.372	71.4761	56	33
71.372	71.4761	62	39
71.372	71.4865	83	69
71.5808	71.6885	56	33
71.5808	71.6885	62	39
71.5808	71.699	76	69
71.6885	71.8019	74	59
71.7914	71.8963	56	33
71.7914	71.8963	62	39
71.7914	71.9072	73	59
71.8963	72.0157	71	59
72.005	72.1121	57	57
72.005	72.1228	69	66
72.1121	72.2298	71	57
72.2193	72.3249	61	36
72.2193	72.3249	64	43
72.2193	72.3355	73	57
72.3249	72.4411	74	57
72.4305	72.5362	61	36
72.4305	72.5362	64	43
72.4305	72.5467	76	64
72.5362	72.6525	78	57
72.6418	72.7482	61	36
72.6418	72.7482	64	43
72.6418	72.7588	80	56
72.7482	72.8501	81	56
72.8546	72.9573	59	57
72.8546	72.9676	81	66
72.9573	73.0706	80	57
73.0601	73.165	62	35
73.0601	73.165	64	42
73.0601	73.1754	78	60
73.165	73.2655	76	57
73.2698	73.3747	56	57
73.2698	73.3852	76	64
73.3747	73.4902	74	59
73.4796	73.5853	62	35
73.4796	73.5853	64	42
73.4796	73.5958	73	59
73.5853	73.7011	71	59
73.6909	73.793	57	57
73.6909	73.8032	73	64
73.793	73.9055	76	54
73.895	73.9999	54	46
73.895	74.0104	69	57
73.9999	74.115	73	54
74.1048	74.2075	50	46
74.1048	74.2178	71	64
74.2075	74.3212	74	58
74.3103	74.4197	52	46
74.3103	74.4307	68	60
74.4197	74.5292	71	55
74.5292	74.7498	45	57
74.5292	74.854	69	66
74.7498	74.854	57	44
74.9593	75.0817	85	60
75.0712	75.1844	86	52
75.1739	75.2896	85	52
75.2788	75.3981	83	52
75.3874	75.4938	52	50
75.3874	75.5045	81	58
75.4938	75.6108	83	50
75.6002	75.7058	57	35
75.6002	75.7058	61	42
75.6002	75.7164	81	50
75.7058	75.822	80	50
75.8115	75.9171	57	35
75.8115	75.9171	61	42
75.8115	75.9277	78	56
75.9171	76.0334	81	50
76.0228	76.1291	57	35
76.0228	76.1291	61	42
76.0228	76.1398	80	46
76.1291	76.2461	78	46
76.2355	76.3411	56	50
76.2355	76.3517	77	58
76.3411	76.4573	78	47
76.4468	76.5517	59	34
76.4468	76.5517	61	41
76.4468	76.5622	80	49
76.5517	76.6671	77	46
76.6566	76.7615	59	34
76.6566	76.7615	61	41
76.6566	76.7719	73	56
76.7615	76.8769	75	47
76.8663	76.972	59	34
76.8663	76.972	61	41
76.8663	76.9825	77	50
76.972	77.0884	73	47
77.0776	77.1855	54	50
77.0776	77.1963	78	56
77.1855	77.3039	77	47
77.2935	77.3983	57	34
77.2935	77.3983	61	40
77.2935	77.4088	78	50
77.3983	77.5137	80	47
77.5032	77.6081	57	34
77.5032	77.6081	61	40
77.5032	77.6186	81	56
77.6081	77.7236	80	51
77.713	77.8186	57	34
77.713	77.8186	61	40
77.713	77.8292	81	53
77.8186	77.9346	83	55
77.9243	78.027	49	50
77.9243	78.0373	85	62
78.027	78.1402	84	57
78.1298	78.2339	56	41
78.1298	78.2339	61	49
78.1298	78.2444	85	60
78.2339	78.3381	84	54
78.3381	78.4423	55	40
78.3381	78.4423	61	48
78.3381	78.4527	85	62
78.4423	78.5571	86	56
78.5465	78.6528	54	40
78.5465	78.6528	61	48
78.5465	78.6635	85	65
78.6528	78.7699	82	60
78.7592	78.8664	47	59
78.7592	78.8771	86	69
78.8664	78.9839	85	63
78.9735	79.0777	54	45
78.9735	79.0777	59	53
78.9735	79.0881	86	69
79.0777	79.1923	85	64
79.1819	79.286	54	47
79.1819	79.286	59	56
79.1819	79.2964	86	68
79.286	79.4008	85	66
79.3902	79.4966	54	45
79.3902	79.4966	59	54
79.3902	79.5072	86	72
79.4966	79.6136	85	68
79.603	79.7093	47	65
79.603	79.72	86	70
79.7093	79.8261	85	69
79.8157	79.9199	56	45
79.8157	79.9199	59	54
79.8157	79.9303	83	67
79.9199	80.0345	81	66
80.0241	80.1282	56	51
80.0241	80.1282	59	60
80.0241	80.1387	80	64
80.1282	80.2431	81	61
80.2324	80.3396	56	45
80.2324	80.3396	59	54
80.2324	80.3503	83	64
80.3396	80.4571	80	61
80.4467	80.5509	49	58
80.4467	80.5613	81	57
80.5509	80.6655	83	49
80.6551	80.7599	54	39
80.6551	80.7599	57	47
80.6551	80.7704	85	55
80.7599	80.8753	81	50
80.8648	80.9708	49	55
80.8648	80.9815	77	53
80.9708	81.0885	78	47
81.0777	81.1861	56	41
81.0777	81.1861	59	49
81.0777	81.1989	80	54
81.1861	81.3252	77	47
81.3143	81.7219	54	39
81.3143	81.7219	57	46
81.3143	81.7219	78	54
81.7491	81.8636	76	69
81.8532	81.9679	74	59
81.9574	82.0732	73	59
82.0623	82.1817	71	59
82.171	82.2781	57	57
82.171	82.2888	69	66
82.2781	82.3958	71	57
82.3853	82.4909	61	36
82.3853	82.4909	64	43
82.3853	82.5015	73	57
82.4909	82.6073	74	57
82.5965	82.7037	61	36
82.5965	82.7037	64	43
82.5965	82.7144	76	64
82.7037	82.8217	78	57
82.8108	82.9195	61	36
82.8108	82.9195	64	43
82.8108	82.9304	80	56
82.9195	83.0237	81	56
83.0282	83.1324	59	57
83.0282	83.1428	81	66
83.1324	83.247	80	60
83.2365	83.3414	62	35
83.2365	83.3414	64	42
83.2365	83.3519	78	60
83.3414	83.4419	76	57
83.4463	83.5512	56	57
83.4463	83.5617	76	64
83.5512	83.6667	74	59
83.6561	83.7617	62	35
83.6561	83.7617	64	42
83.6561	83.7723	73	59
83.7617	83.8776	71	59
83.8674	83.9694	57	57
83.8674	83.9796	69	64
83.9694	84.082	71	54
84.0715	84.1764	61	35
84.0715	84.1764	64	41
84.0715	84.1868	73	57
84.1764	84.2917	74	54
84.2812	84.3861	61	35
84.2812	84.3861	64	41
84.2812	84.3966	76	64
84.3861	84.5025	78	58
84.491	84.6055	61	35
84.491	84.6055	64	41
84.491	84.6182	80	60
84.6055	84.7326	81	63
84.7326	84.967	52	57
84.7326	84.967	82	75
84.967	85.0712	56	33
84.967	85.0712	62	39
84.967	85.0816	83	69
85.1754	85.2795	56	33
85.1754	85.2795	62	39
85.1754	85.2899	76	69
85.2795	85.3942	74	59
85.3837	85.4886	56	33
85.3837	85.4886	62	39
85.3837	85.4995	73	59
85.4886	85.608	71	59
85.5973	85.7044	57	57
85.5973	85.7151	69	66
85.7044	85.8221	71	57
85.8116	85.9172	61	36
85.8116	85.9172	64	43
85.8116	85.9278	73	57
85.9172	86.0335	74	57
86.0228	86.13	61	36
86.0228	86.13	64	43
86.0228	86.1407	76	64
86.13	86.2477	78	57
86.2371	86.3435	61	36
86.2371	86.3435	64	43
86.2371	86.3541	80	56
86.3435	86.4454	81	56
86.4499	86.554	59	57
86.4499	86.5645	81	66
86.554	86.6687	80	57
86.6582	86.7631	62	35
86.6582	86.7631	64	42
86.6582	86.7736	78	60
86.7631	86.8636	76	57
86.868	86.9729	56	57
86.868	86.9834	76	64
86.9729	87.0884	74	59
87.0778	87.1834	62	35
87.0778	87.1834	64	42
87.0778	87.194	73	59
87.1834	87.2993	71	59
87.2891	87.3911	57	57
87.2891	87.4013	73	64
87.3911	87.5036	76	54
87.4932	87.598	54	46
87.4932	87.6085	69	57
87.598	87.7132	73	54
87.7029	87.8057	50	46
87.7029	87.8159	71	64
87.8057	87.9194	74	58
87.9084	88.0179	52	46
87.9084	88.0288	68	60
88.0179	88.1274	71	55
88.1274	88.348	45	57
88.1274	88.4559	69	66
88.348	88.4559	57	44
88.5651	88.6894	85	60
88.679	88.7911	86	52
88.7806	88.8964	85	52
88.8855	89.0048	83	52
88.9942	89.1006	52	50
88.9942	89.1112	81	58
89.1006	89.2175	83	50
89.2069	89.3126	57	35
89.2069	89.3126	61	42
89.2069	89.3231	81	50
89.3126	89.4288	80	50
89.4182	89.5239	57	35
89.4182	89.5239	61	42
89.4182	89.5344	78	56
89.5239	89.6401	81	50
89.6295	89.7359	57	35
89.6295	89.7359	61	42
89.6295	89.7465	80	46
89.7359	89.8528	78	46
89.8422	89.9479	56	50
89.8422	89.9585	77	58
89.9479	90.064	78	47
90.0535	90.1584	59	34
90.0535	90.1584	61	41
90.0535	90.1689	80	49
90.1584	90.2738	77	46
90.2633	90.3682	59	34
90.2633	90.3682	61	41
90.2633	90.3787	73	56
90.3682	90.4836	75	47
90.4731	90.5787	59	34
90.4731	90.5787	61	41
90.4731	90.5893	77	50
90.5787	90.6951	73	47
90.6844	90.7923	54	50
90.6844	90.8031	78	56
90.7923	90.9107	77	47
90.9002	91.0051	57	34
90.9002	91.0051	61	40
90.9002	91.0156	78	50
91.0051	91.1205	80	47
91.11	91.2149	57	34
91.11	91.2149	61	40
91.11	91.2253	81	56
91.2149	91.3303	80	51
91.3197	91.4254	57	34
91.3197	91.4254	61	40
91.3197	91.4359	81	53
91.4254	91.5414	83	55
91.531	91.6352	49	50
91.531	91.6456	85	62
91.6352	91.7498	84	57
91.7394	91.8436	56	41
91.7394	91.8436	61	49
91.7394	91.854	85	60
91.8436	91.9477	84	54
91.9477	92.0519	55	40
91.9477	92.0519	61	48
91.9477	92.0623	85	62
92.0519	92.1667	86	56
92.1561	92.2624	54	40
92.1561	92.2624	61	48
92.1561	92.2731	85	65
92.2624	92.3795	82	60
92.3688	92.476	47	59
92.3688	92.4867	86	69
92.476	92.5936	85	63
92.5831	92.688	54	45
92.5831	92.688	59	53
92.5831	92.6985	86	69
92.688	92.8034	85	64
92.7929	92.8978	54	47
92.7929	92.8978	59	56
92.7929	92.9083	86	68
92.8978	93.0133	85	66
93.0027	93.109	54	45
93.0027	93.109	59	54
93.0027	93.1197	86	72
93.109	93.226	85	68
93.2154	93.3218	47	65
93.2154	93.3324	86	70
93.3218	93.4386	85	69
93.4282	93.5323	56	45
93.4282	93.5323	59	54
93.4282	93.5428	83	67
93.5323	93.6469	81	66
93.6365	93.7407	56	51
93.6365	93.7407	59	60
93.6365	93.7511	80	64
93.7407	93.8556	81	61
93.8449	93.952	56	45
93.8449	93.952	59	54
93.8449	93.9627	83	64
93.952	94.0696	80	61
94.0592	94.1633	49	58
94.0592	94.1737	81	57
94.1633	94.278	83	49
94.2675	94.3724	54	39
94.2675	94.3724	57	47
94.2675	94.3829	85	55
94.3724	94.4878	81	50
94.4773	94.5833	49	55
94.4773	94.5939	77	53
94.5833	94.7009	78	47
94.6902	94.7985	56	41
94.6902	94.7985	59	49
94.6902	94.8113	80	54
94.7985	94.9391	77	47
94.9267	95.3916	54	39
94.9267	95.3916	57	46
94.9267	95.3916	78	54
95.4226	95.5297	69	73
95.4226	95.5297	81	84
95.6369	95.7448	71	73
95.6369	95.7448	83	84
95.7448	95.7808	45	64
95.7808	95.8167	49	64
95.8167	96.0656	52	64
95.8527	96.0568	57	73
95.8527	96.2681	73	78
95.8527	96.2681	85	90
96.0568	96.1624	57	69
96.2681	96.3715	57	69
96.2681	96.3715	69	73
96.2681	96.3715	81	84
96.475	96.5806	57	69
96.475	96.5806	71	73
96.475	96.5806	83	84
96.5806	96.6158	45	60
96.6158	96.651	49	60
96.651	96.6863	52	60
96.6863	96.8903	57	72
96.6863	96.8989	73	79
96.6863	96.8989	85	91
96.8903	96.9931	57	64
96.8903	96.9931	71	72
96.8903	96.9931	83	82
97.0958	97.1985	57	65
97.0958	97.1985	69	77
97.0958	97.1985	81	89
97.3013	97.4132	57	67
97.3013	97.4132	68	73
97.3013	97.4132	80	84
97.4132	97.4505	38	63
97.4505	97.4878	42	63
97.4878	97.7429	45	63
97.5252	97.7306	50	73
97.5252	97.7429	66	80
97.5252	97.7429	78	92
97.7306	97.8355	50	69
97.7306	97.8355	68	69
97.7306	97.8355	80	78
97.8355	97.8705	39	63
97.8705	97.9055	42	63
97.9055	97.9404	45	63
97.9404	98.1532	51	73
97.9404	98.1644	69	75
97.9404	98.1644	81	86
98.1532	98.2651	51	71
98.1532	98.2651	71	70
98.1532	98.2651	83	80
98.2651	98.3024	40	63
98.3024	98.3398	44	63
98.3398	98.6902	47	63
98.3771	98.5898	52	73
98.3771	98.6902	68	78
98.3771	98.6902	80	90
98.5898	98.7035	52	73
98.5898	98.7035	64	73
98.5898	98.7035	76	84
98.8171	98.9235	69	73
98.8171	98.9235	81	84
99.0299	99.1348	71	73
99.0299	99.1348	83	84
99.1348	99.1697	45	64
99.1697	99.2047	49	64
99.2047	99.4525	52	64
99.2397	99.4437	57	73
99.2397	99.6535	73	78
99.2397	99.6535	85	90
99.4437	99.5486	57	69
99.6535	99.7556	57	69
99.6535	99.7556	69	73
99.6535	99.7556	81	84
99.8576	99.9633	57	69
99.8576	99.9633	71	73
99.8576	99.9633	83	84
99.9633	99.9985	45	60
99.9985	100.034	49	60
100.034	100.069	52	60
100.069	100.274	57	72
100.069	100.283	73	79
100.069	100.283	85	91
100.274	100.378	57	64
100.274	100.378	71	72
100.274	100.378	83	82
100.481	100.585	57	65
100.481	100.585	69	77
100.481	100.585	81	89
100.69	100.798	57	67
100.69	100.798	68	73
100.69	100.798	80	84
100.798	100.835	38	63
100.835	100.871	42	63
100.871	101.127	45	63
100.907	101.114	50	73
100.907	101.127	66	80
100.907	101.127	78	92
101.114	101.223	50	69
101.114	101.223	71	69
101.114	101.223	83	78
101.223	101.259	40	63
101.259	101.295	44	63
101.295	101.331	47	63
101.331	101.557	52	73
101.331	101.569	68	75
101.331	101.569	80	86
101.557	101.673	52	71
101.557	101.673	64	70
101.557	101.673	76	80
101.789	102.212	45	73
101.789	102.212	69	78
101.789	102.212	81	90
102.241	102.346	69	73
102.241	102.346	81	84
102.45	102.558	71	73
102.45	102.558	83	84
102.558	102.594	45	64
102.594	102.63	49	64
102.63	102.879	52	64
102.666	102.87	57	73
102.666	103.082	73	78
102.666	103.082	85	90
102.87	102.976	57	69
103.082	103.185	57	69
103.082	103.185	69	73
103.082	103.185	81	84
103.288	103.395	57	69
103.288	103.395	71	73
103.288	103.395	83	84
103.395	103.43	45	60
103.43	103.466	49	60
103.466	103.501	52	60
103.501	103.705	57	72
103.501	103.714	73	79
103.501	103.714	85	91
103.705	103.81	57	64
103.705	103.81	71	72
103.705	103.81	83	82
103.915	104.018	57	65
103.915	104.018	69	77
103.915	104.018	81	89
104.121	104.228	57	67
104.121	104.228	68	73
104.121	104.228	80	84
104.228	104.263	38	63
104.263	104.299	42	63
104.299	104.553	45	63
104.335	104.54	50	73
104.335	104.553	66	80
104.335	104.553	78	92
104.54	104.648	50	69
104.54	104.648	68	69
104.54	104.648	80	78
104.648	104.684	39	63
104.684	104.72	42	63
104.72	104.756	45	63
104.756	104.972	51	73
104.756	104.983	69	75
104.756	104.983	81	86
104.972	105.084	51	71
104.972	105.084	71	70
104.972	105.084	83	80
105.084	105.121	40	63
105.121	105.159	44	63
105.159	105.509	47	63
105.196	105.409	52	73
105.196	105.509	68	78
105.196	105.509	80	90
105.409	105.522	52	73
105.409	105.522	64	73
105.409	105.522	76	84
105.636	105.74	69	73
105.636	105.74	81	84
105.844	105.949	71	73
105.844	105.949	83	84
105.949	105.984	45	64
105.984	106.019	49	64
106.019	106.267	52	64
106.054	106.258	57	73
106.054	106.468	73	78
106.054	106.468	85	90
106.258	106.363	57	69
106.468	106.57	57	69
106.468	106.57	69	73
106.468	106.57	81	84
106.672	106.78	57	69
106.672	106.78	71	73
106.672	106.78	83	84
106.78	106.816	45	60
106.816	106.852	49	60
106.852	106.888	52	60
106.888	107.093	57	72
106.888	107.102	73	79
106.888	107.102	85	91
107.093	107.197	57	64
107.093	107.197	71	72
107.093	107.197	83	82
107.3	107.404	57	65
107.3	107.404	69	77
107.3	107.404	81	89
107.509	107.617	57	67
107.509	107.617	68	73
107.509	107.617	80	84
107.617	107.654	38	63
107.654	107.69	42	63
107.69	107.946	45	63
107.726	107.933	50	73
107.726	107.946	66	80
107.726	107.946	78	92
107.933	108.047	50	69
107.933	108.047	71	69
107.933	108.047	83	78
108.047	108.084	40	63
108.084	108.122	44	63
108.122	108.16	47	63
108.16	108.386	52	73
108.16	108.397	68	75
108.16	108.397	80	86
108.386	108.502	52	71
108.386	108.502	64	70
108.386	108.502	76	80
108.618	109.175	45	73
108.618	109.175	69	78
108.618	109.175	81	90
109.212	109.312	71	66
109.312	109.411	69	64
109.411	109.51	68	64
109.51	109.623	69	64
109.623	109.83	57	57
109.623	109.83	72	71
109.822	109.921	60	43
109.822	109.921	64	52
110.034	110.234	60	43
110.034	110.234	64	52
110.034	110.448	74	66
110.134	110.334	72	63
110.234	110.448	60	42
110.234	110.448	64	51
110.234	110.448	71	63
110.334	110.448	72	63
110.448	110.655	57	57
110.448	110.655	76	72
110.646	110.746	60	43
110.646	110.746	64	52
110.856	111.055	60	43
110.856	111.055	64	52
110.856	111.258	77	66
110.955	111.154	76	63
111.055	111.258	60	43
111.055	111.258	64	52
111.055	111.258	75	63
111.154	111.258	76	63
111.258	111.655	57	57
111.258	111.655	83	70
111.357	111.556	81	64
111.457	111.655	60	42
111.457	111.655	64	50
111.457	111.655	80	64
111.556	111.655	81	64
111.655	112.074	57	57
111.655	112.074	83	69
111.757	111.959	81	64
111.858	112.074	60	43
111.858	112.074	64	52
111.858	112.074	80	64
111.959	112.074	81	64
112.074	112.287	57	57
112.074	112.501	84	72
112.278	112.384	60	42
112.278	112.384	64	50
112.501	112.6	60	42
112.501	112.6	64	50
112.501	112.6	81	68
112.699	112.807	60	42
112.699	112.807	64	50
112.699	112.807	84	65
112.879	112.902	79	63
112.902	112.924	81	63
112.924	113.025	52	65
112.924	113.025	83	80
113.127	113.228	59	44
113.127	113.228	64	53
113.127	113.228	78	54
113.127	113.228	81	64
113.329	113.429	59	44
113.329	113.429	64	53
113.329	113.429	76	58
113.329	113.429	79	69
113.528	113.635	59	44
113.528	113.635	64	53
113.528	113.635	78	54
113.528	113.635	81	64
113.707	113.729	79	65
113.729	113.751	81	65
113.751	113.853	52	66
113.751	113.853	83	82
113.954	114.056	59	43
113.954	114.056	64	52
113.954	114.056	78	56
113.954	114.056	81	66
114.157	114.256	59	43
114.157	114.256	64	52
114.157	114.256	76	58
114.157	114.256	79	69
114.356	114.463	59	43
114.356	114.463	64	52
114.356	114.463	78	55
114.356	114.463	81	65
114.532	114.554	79	64
114.554	114.602	81	64
114.577	114.677	52	67
114.577	114.677	83	79
114.778	114.879	59	43
114.778	114.879	64	52
114.778	114.879	78	57
114.778	114.879	81	68
114.979	115.089	47	52
114.979	115.089	76	58
114.979	115.089	79	69
115.198	115.315	59	52
115.198	115.315	75	56
115.198	115.315	78	66
115.431	115.888	52	57
115.431	115.888	76	69
115.919	116.018	71	66
116.018	116.117	69	64
116.117	116.217	68	64
116.217	116.33	69	64
116.33	116.536	57	57
116.33	116.536	72	71
116.528	116.628	60	43
116.528	116.628	64	52
116.74	116.94	60	43
116.74	116.94	64	52
116.74	117.154	74	66
116.84	117.04	72	63
116.94	117.154	60	42
116.94	117.154	64	51
116.94	117.154	71	63
117.04	117.154	72	63
117.154	117.361	57	57
117.154	117.361	76	72
117.353	117.452	60	43
117.353	117.452	64	52
117.562	117.761	60	43
117.562	117.761	64	52
117.562	117.964	77	66
117.662	117.86	76	63
117.761	117.964	60	43
117.761	117.964	64	52
117.761	117.964	75	63
117.86	117.964	76	63
117.964	118.362	57	57
117.964	118.362	83	70
118.064	118.262	81	64
118.163	118.362	60	42
118.163	118.362	64	50
118.163	118.362	80	64
118.262	118.362	81	64
118.362	118.78	57	57
118.362	118.78	83	69
118.463	118.666	81	64
118.564	118.78	60	43
118.564	118.78	64	52
118.564	118.78	80	64
118.666	118.78	81	64
118.78	118.993	57	57
118.78	119.207	84	72
118.984	119.091	60	42
118.984	119.091	64	50
119.207	119.306	60	42
119.207	119.306	64	50
119.207	119.306	81	68
119.406	119.513	60	42
119.406	119.513	64	50
119.406	119.513	84	65
119.586	119.608	79	63
119.608	119.63	81	63
119.63	119.732	52	65
119.63	119.732	83	80
119.833	119.934	59	44
119.833	119.934	64	53
119.833	119.934	78	54
119.833	119.934	81	64
120.036	120.135	59	44
120.036	120.135	64	53
120.036	120.135	76	58
120.036	120.135	79	69
120.234	120.342	59	44
120.234	120.342	64	53
120.234	120.342	78	54
120.234	120.342	81	64
120.413	120.435	79	65
120.435	120.458	81	65
120.458	120.559	52	66
120.458	120.559	83	82
120.661	120.762	59	43
120.661	120.762	64	52
120.661	120.762	78	56
120.661	120.762	81	66
120.863	120.963	59	43
120.863	120.963	64	52
120.863	120.963	76	58
120.863	120.963	79	69
121.062	121.17	59	43
121.062	121.17	64	52
121.062	121.17	78	55
121.062	121.17	81	65
121.239	121.261	79	64
121.261	121.308	81	64
121.283	121.383	52	67
121.283	121.383	83	79
121.483	121.583	59	43
121.483	121.583	64	52
121.483	121.583	78	57
121.483	121.583	81	68
121.683	121.792	47	52
121.683	121.792	76	58
121.683	121.792	79	69
121.9	122.023	59	52
121.9	122.023	75	56
121.9	122.023	78	66
122.146	122.579	52	57
122.146	122.579	76	69
122.608	122.717	72	56
122.608	122.717	76	56
122.825	122.932	74	56
122.825	122.932	77	56
123.038	123.142	48	59
123.038	123.142	76	66
123.038	123.142	79	66
123.246	123.351	60	53
123.246	123.351	76	57
123.246	123.351	79	57
123.455	123.557	52	59
123.455	123.557	81	64
123.557	123.885	79	57
123.66	123.885	64	57
123.66	123.885	77	57
123.768	123.885	76	57
123.881	124.314	55	60
123.881	124.314	71	65
123.881	124.314	74	65
124.097	124.314	67	59
124.314	124.423	72	56
124.314	124.423	76	56
124.532	124.638	74	56
124.532	124.638	77	56
124.744	124.848	48	59
124.744	124.848	76	66
124.744	124.848	79	66
124.953	125.057	60	53
124.953	125.057	76	57
124.953	125.057	79	57
125.161	125.264	52	59
125.161	125.264	81	64
125.264	125.591	79	57
125.366	125.591	64	57
125.366	125.591	77	57
125.474	125.591	76	57
125.587	126.02	55	60
125.587	126.02	71	65
125.587	126.02	74	65
126.02	126.134	69	56
126.02	126.134	72	56
126.248	126.354	71	56
126.248	126.354	74	56
126.46	126.565	45	59
126.46	126.565	72	66
126.46	126.565	76	66
126.669	126.773	57	53
126.669	126.773	72	57
126.669	126.773	76	57
126.877	126.98	48	59
126.877	126.98	77	64
126.98	127.308	76	57
127.082	127.308	60	57
127.082	127.308	74	57
127.19	127.308	72	57
127.303	127.735	52	60
127.303	127.735	68	65
127.303	127.735	71	65
127.519	127.735	64	59
127.735	127.843	69	56
127.735	127.843	72	56
127.952	128.058	71	56
127.952	128.058	74	56
128.165	128.269	45	59
128.165	128.269	72	66
128.165	128.269	76	66
128.373	128.477	57	53
128.373	128.477	72	57
128.373	128.477	76	57
128.581	128.684	48	59
128.581	128.684	77	64
128.684	129.012	76	57
128.787	129.012	60	57
128.787	129.012	74	57
128.895	129.012	72	57
129.007	129.439	52	60
129.007	129.439	68	65
129.007	129.439	71	65
129.439	129.538	71	56
129.538	129.638	69	56
129.638	129.737	68	56
129.737	129.85	69	56
129.85	130.057	57	53
129.85	130.057	72	59
130.049	130.148	60	47
130.049	130.148	64	47
130.261	130.461	60	47
130.261	130.461	64	47
130.261	130.674	74	62
130.361	130.561	72	57
130.461	130.674	60	47
130.461	130.674	64	47
130.461	130.674	71	57
130.561	130.674	72	57
130.674	130.881	57	54
130.674	130.881	76	66
130.873	130.972	60	48
130.873	130.972	64	48
131.083	131.281	60	48
131.083	131.281	64	48
131.083	131.485	77	63
131.182	131.381	76	58
131.281	131.485	60	48
131.281	131.485	64	48
131.281	131.485	75	58
131.381	131.485	76	58
131.485	131.885	57	56
131.485	131.885	83	70
131.585	131.785	81	63
131.685	131.885	60	49
131.685	131.885	64	49
131.685	131.885	80	63
131.785	131.885	81	63
131.885	132.323	57	57
131.885	132.323	83	71
131.988	132.195	81	64
132.092	132.323	60	43
132.092	132.323	64	52
132.092	132.323	80	64
132.195	132.323	81	64
132.323	132.536	53	57
132.323	132.75	84	76
132.528	132.634	57	51
132.528	132.634	63	51
132.75	132.853	57	43
132.75	132.853	63	43
132.75	132.853	81	62
132.956	133.063	57	39
132.956	133.063	63	39
132.956	133.063	83	62
133.17	133.271	52	46
133.17	133.271	84	70
133.373	133.474	57	42
133.373	133.474	64	42
133.373	133.474	83	62
133.575	133.678	50	42
133.575	133.678	81	62
133.781	133.888	53	42
133.781	133.888	59	42
133.781	133.888	80	62
133.995	134.096	48	47
133.995	134.096	81	71
134.198	134.299	52	39
134.198	134.299	57	39
134.198	134.299	76	64
134.4	134.504	50	41
134.403	134.507	77	64
134.607	134.715	53	41
134.607	134.715	59	41
134.607	134.715	74	64
134.823	135.029	52	48
134.823	135.029	57	48
134.823	135.234	72	74
135.029	135.229	52	41
135.029	135.244	57	41
135.229	135.452	52	41
135.234	135.452	56	41
135.234	135.289	72	64
135.285	135.394	71	57
135.339	135.458	72	57
135.394	135.504	71	57
135.452	135.709	52	41
135.452	135.709	56	41
135.458	135.709	72	57
135.504	135.616	71	57
135.552	135.709	69	64
135.616	135.709	71	57
135.709	136.181	45	46
135.709	136.152	57	46
135.709	136.152	69	65
136.181	136.29	72	56
136.181	136.29	76	56
136.398	136.505	74	56
136.398	136.505	77	56
136.611	136.715	48	59
136.611	136.715	76	66
136.611	136.715	79	66
136.82	136.924	60	53
136.82	136.924	76	57
136.82	136.924	79	57
137.028	137.131	52	59
137.028	137.131	81	64
137.131	137.458	79	57
137.233	137.458	64	57
137.233	137.458	77	57
137.341	137.458	76	57
137.454	137.887	55	60
137.454	137.887	71	65
137.454	137.887	74	65
137.67	137.887	67	59
137.887	137.996	72	56
137.887	137.996	76	56
138.105	138.211	74	56
138.105	138.211	77	56
138.317	138.422	48	59
138.317	138.422	76	66
138.317	138.422	79	66
138.526	138.63	60	53
138.526	138.63	76	57
138.526	138.63	79	57
138.734	138.837	52	59
138.734	138.837	81	64
138.837	139.165	79	57
138.94	139.165	64	57
138.94	139.165	77	57
139.047	139.165	76	57
139.16	139.594	55	60
139.16	139.594	71	65
139.16	139.594	74	65
139.594	139.707	69	56
139.594	139.707	72	56
139.821	139.927	71	56
139.821	139.927	74	56
140.034	140.138	45	59
140.034	140.138	72	66
140.034	140.138	76	66
140.242	140.346	57	53
140.242	140.346	72	57
140.242	140.346	76	57
140.45	140.553	48	59
140.45	140.553	77	64
140.553	140.881	76	57
140.656	140.881	60	57
140.656	140.881	74	57
140.763	140.881	72	57
140.876	141.308	52	60
140.876	141.308	68	65
140.876	141.308	71	65
141.092	141.308	64	59
141.308	141.417	69	56
141.308	141.417	72	56
141.525	141.632	71	56
141.525	141.632	74	56
141.738	141.842	45	59
141.738	141.842	72	66
141.738	141.842	76	66
141.946	142.051	57	53
141.946	142.051	72	57
141.946	142.051	76	57
142.155	142.257	48	59
142.155	142.257	77	64
142.257	142.585	76	57
142.36	142.585	60	57
142.36	142.585	74	57
142.468	142.585	72	57
142.581	143.012	52	60
142.581	143.012	68	65
142.581	143.012	71	65
143.012	143.112	71	56
143.112	143.211	69	56
143.211	143.31	68	56
143.31	143.423	69	56
143.423	143.63	57	53
143.423	143.63	72	59
143.622	143.721	60	47
143.622	143.721	64	47
143.834	144.034	60	47
143.834	144.034	64	47
143.834	144.248	74	62
143.934	144.134	72	57
144.034	144.248	60	47
144.034	144.248	64	47
144.034	144.248	71	57
144.134	144.248	72	57
144.248	144.455	57	54
144.248	144.455	76	66
144.446	144.546	60	48
144.446	144.546	64	48
144.656	144.855	60	48
144.656	144.855	64	48
144.656	145.058	77	63
144.755	144.954	76	58
144.855	145.058	60	48
144.855	145.058	64	48
144.855	145.058	75	58
144.954	145.058	76	58
145.058	145.458	57	56
145.058	145.458	83	70
145.158	145.358	81	63
145.258	145.458	60	49
145.258	145.458	64	49
145.258	145.458	80	63
145.358	145.458	81	63
145.458	145.897	57	57
145.458	145.897	83	71
145.562	145.768	81	64
145.665	145.897	60	43
145.665	145.897	64	52
145.665	145.897	80	64
145.768	145.897	81	64
145.897	146.101	57	57
145.897	146.323	84	76
146.101	146.207	57	51
146.101	146.207	63	51
146.323	146.426	57	43
146.323	146.426	63	43
146.323	146.426	81	62
146.529	146.636	57	39
146.529	146.636	63	39
146.529	146.636	83	62
146.743	146.844	52	46
146.743	146.844	84	70
146.946	147.047	57	42
146.946	147.047	64	42
146.946	147.047	83	62
147.149	147.252	50	42
147.149	147.252	81	62
147.355	147.463	53	42
147.355	147.463	59	42
147.355	147.463	80	62
147.57	147.671	48	47
147.57	147.671	81	71
147.772	147.874	52	39
147.772	147.874	57	39
147.772	147.874	76	64
147.975	148.079	50	41
147.978	148.082	77	64
148.183	148.291	53	41
148.183	148.291	59	41
148.183	148.291	74	64
148.399	148.605	52	48
148.399	148.605	57	48
148.399	148.81	72	74
148.605	148.805	52	41
148.605	148.82	57	41
148.805	149.028	52	41
148.81	149.028	56	41
148.81	148.865	72	64
148.861	148.97	71	57
148.915	149.034	72	57
148.97	149.08	71	57
149.028	149.285	52	41
149.028	149.285	56	41
149.034	149.285	72	57
149.08	149.192	71	57
149.128	149.285	69	64
149.192	149.285	71	57
149.285	149.757	45	46
149.285	149.728	57	46
149.285	149.728	69	65
149.757	150.187	69	82
149.861	150.187	81	79
149.964	150.187	71	83
150.072	150.187	45	64
150.072	150.187	83	80
150.108	150.187	49	70
150.144	150.187	52	76
150.18	150.384	57	87
150.18	151.013	73	89
150.282	151.013	85	84
150.384	150.595	57	69
150.595	150.802	57	69
150.595	151.013	69	85
150.699	151.013	81	73
150.802	151.013	57	69
150.802	151.013	71	84
150.908	151.013	45	65
150.908	151.013	83	72
150.943	151.013	49	69
150.978	151.013	52	73
151.013	151.218	57	85
151.013	151.852	73	90
151.115	151.852	85	75
151.218	151.423	57	64
151.218	151.852	71	84
151.32	151.852	83	73
151.423	151.628	57	65
151.423	151.852	69	87
151.526	151.852	81	74
151.628	151.852	57	67
151.628	151.852	68	83
151.74	151.852	38	66
151.74	151.852	80	76
151.778	151.852	42	71
151.815	151.852	45	77
151.852	152.058	50	85
151.852	152.271	66	88
151.955	152.271	78	75
152.058	152.271	50	69
152.058	152.271	68	83
152.163	152.271	39	68
152.163	152.271	80	69
152.198	152.271	42	72
152.233	152.271	45	75
152.268	152.483	51	85
152.268	152.712	69	79
152.376	152.712	81	71
152.483	152.712	51	71
152.483	152.712	71	81
152.595	152.712	40	64
152.595	152.712	83	73
152.633	152.712	44	69
152.67	152.712	47	74
152.707	152.92	52	85
152.707	153.165	68	86
152.814	153.165	80	73
152.92	153.165	52	73
152.92	153.165	64	81
153.034	153.165	76	72
153.147	153.561	69	83
153.247	153.561	81	73
153.346	153.561	71	82
153.451	153.561	45	67
153.451	153.561	83	73
153.486	153.561	49	71
153.521	153.561	52	76
153.556	153.76	57	84
153.556	154.385	73	89
153.658	154.391	85	77
153.76	153.97	57	69
153.97	154.174	57	69
153.97	154.391	69	85
154.072	154.391	81	76
154.174	154.385	57	69
154.174	154.391	71	84
154.279	154.391	45	61
154.279	154.391	83	77
154.315	154.391	49	66
154.35	154.391	52	72
154.385	154.591	57	87
154.385	155.231	73	92
154.488	155.231	85	77
154.591	154.797	57	64
154.591	155.231	71	84
154.694	155.231	83	75
154.797	155.006	57	65
154.797	155.231	69	88
154.902	155.231	81	77
155.006	155.231	57	67
155.006	155.231	68	84
155.115	155.231	38	68
155.115	155.231	80	75
155.151	155.231	42	72
155.187	155.231	45	76
155.223	155.43	50	83
155.223	155.655	66	91
155.327	155.655	78	79
155.43	155.655	50	69
155.43	155.655	71	82
155.539	155.655	40	67
155.539	155.655	83	72
155.575	155.655	44	72
155.611	155.655	47	78
155.648	155.873	52	82
155.648	156.115	68	86
155.76	156.115	80	75
155.873	156.115	52	71
155.873	156.115	64	80
155.989	156.115	76	74
156.106	156.529	45	84
156.106	156.529	69	78
156.106	156.529	81	90
156.557	156.982	69	82
156.658	156.982	81	79
156.759	156.982	71	83
156.867	156.982	45	64
156.867	156.982	83	80
156.903	156.982	49	70
156.939	156.982	52	76
156.975	157.179	57	87
156.975	157.809	73	89
157.077	157.809	85	84
157.179	157.391	57	69
157.391	157.598	57	69
157.391	157.809	69	85
157.494	157.809	81	73
157.598	157.809	57	69
157.598	157.809	71	84
157.703	157.809	45	65
157.703	157.809	83	72
157.738	157.809	49	69
157.774	157.809	52	73
157.809	158.013	57	85
157.809	158.648	73	90
157.911	158.648	85	75
158.013	158.218	57	64
158.013	158.648	71	84
158.116	158.648	83	73
158.218	158.424	57	65
158.218	158.648	69	87
158.321	158.648	81	74
158.424	158.648	57	67
158.424	158.648	68	83
158.536	158.648	38	66
158.536	158.648	80	76
158.573	158.648	42	71
158.61	158.648	45	77
158.648	158.853	50	85
158.648	159.067	66	88
158.751	159.067	78	75
158.853	159.067	50	69
158.853	159.067	68	83
158.958	159.067	39	68
158.958	159.067	80	69
158.993	159.067	42	72
159.028	159.067	45	75
159.063	159.279	51	85
159.063	159.507	69	79
159.171	159.507	81	71
159.279	159.507	51	71
159.279	159.507	71	81
159.391	159.507	40	64
159.391	159.507	83	73
159.428	159.507	44	69
159.465	159.507	47	74
159.503	159.716	52	85
159.503	159.953	68	86
159.609	159.953	80	73
159.716	159.953	52	73
159.716	159.953	64	81
159.826	159.953	76	72
159.936	160.35	69	83
160.035	160.35	81	73
160.135	160.35	71	82
160.24	160.35	45	67
160.24	160.35	83	73
160.275	160.35	49	71
160.31	160.35	52	76
160.345	160.549	57	84
160.345	161.174	73	89
160.447	161.18	85	77
160.549	160.758	57	69
160.758	160.963	57	69
160.758	161.18	69	85
160.86	161.18	81	76
160.963	161.174	57	69
160.963	161.18	71	84
161.068	161.18	45	61
161.068	161.18	83	77
161.103	161.18	49	66
161.139	161.18	52	72
161.174	161.379	57	87
161.174	162.02	73	92
161.277	162.02	85	77
161.379	161.586	57	64
161.379	162.02	71	84
161.483	162.02	83	75
161.586	161.795	57	65
161.586	162.02	69	88
161.69	162.02	81	77
161.795	162.02	57	67
161.795	162.02	68	84
161.903	162.02	38	68
161.903	162.02	80	75
161.939	162.02	42	72
161.976	162.02	45	76
162.012	162.219	50	83
162.012	162.444	66	91
162.115	162.444	78	79
162.219	162.444	50	69
162.219	162.444	71	82
162.328	162.444	40	67
162.328	162.444	83	72
162.364	162.444	44	72
162.4	162.444	47	78
162.436	162.662	52	82
162.436	162.892	68	86
162.549	162.892	80	75
162.662	162.849	52	71
162.662	162.892	64	80
162.778	162.892	45	61
162.778	162.892	76	74
162.813	162.892	49	66
162.849	162.892	52	72
162.884	163.089	57	87
162.884	163.634	69	78
162.884	163.634	81	90
163.089	163.296	57	64
163.296	163.504	57	65
163.296	163.692	73	78
163.296	163.613	85	90
163.504	163.634	57	64
163.613	163.648	45	61
163.613	163.692	85	90
163.648	163.684	49	66
163.684	164.469	52	72
163.692	164.469	73	74
163.701	164.469	76	77
163.71	164.469	81	80
163.719	163.924	57	87
163.719	164.554	85	90
163.924	164.131	57	68
164.131	164.339	57	68
164.339	164.469	57	68
164.448	164.483	45	61
164.483	164.519	49	66
164.519	164.554	52	72
164.527	165.286	73	74
164.536	165.286	76	77
164.545	165.286	81	80
164.554	164.759	57	87
164.554	165.389	85	90
164.759	164.966	57	68
164.966	165.175	57	68
165.175	165.286	57	68
165.283	165.318	45	61
165.318	165.354	49	66
165.354	165.389	52	72
165.389	165.594	57	87
165.389	165.801	86	90
165.492	165.698	85	87
165.594	165.801	57	67
165.594	166.01	83	86
165.698	165.905	85	86
165.801	166.01	57	67
165.801	166.176	86	90
165.905	166.118	85	84
166.01	166.176	57	67
166.01	166.176	83	84
166.118	166.176	38	61
166.118	166.176	85	85
166.157	166.196	42	66
166.196	166.964	45	72
166.235	166.44	50	87
166.235	167.137	78	80
166.235	167.07	81	80
166.235	167.043	86	90
166.44	166.647	50	67
166.647	166.849	50	67
166.849	166.985	50	67
166.964	166.999	45	61
166.999	167.034	49	66
167.034	167.137	52	72
167.043	167.137	86	76
167.07	167.137	57	87
167.07	167.137	76	76
167.07	167.137	81	76
167.07	167.137	85	90
167.254	167.281	86	76
167.281	167.333	57	67
167.281	167.333	76	72
167.281	167.333	81	72
167.281	167.333	85	85
167.462	167.488	86	76
167.488	167.54	57	67
167.488	167.54	76	72
167.488	167.54	81	72
167.488	167.54	85	85
167.67	167.696	86	76
167.696	167.75	57	67
167.696	167.75	76	72
167.696	167.75	81	72
167.696	167.75	85	85
167.805	167.84	40	61
167.84	168.673	44	66
167.875	168.673	47	72
167.91	168.116	52	87
167.91	168.772	76	80
167.91	169.548	80	80
167.91	168.673	83	90
168.116	168.323	52	66
168.323	168.531	52	66
168.531	168.673	52	66
168.641	168.693	45	61
168.641	168.759	88	103
168.693	168.746	49	66
168.746	169.548	52	72
168.759	169.548	73	74
168.772	169.548	76	77
168.785	169.548	81	80
168.798	169.003	57	87
168.798	169.633	85	90
169.003	169.21	57	68
169.21	169.418	57	68
169.418	169.548	57	68
169.527	169.562	45	61
169.562	169.598	49	66
169.598	169.633	52	72
169.606	170.365	73	74
169.615	170.365	76	77
169.624	170.365	81	80
169.633	169.838	57	87
169.633	170.468	85	90
169.838	170.045	57	66
170.045	170.253	57	66
170.253	170.365	57	66
170.362	170.397	45	61
170.397	170.433	49	66
170.433	170.468	52	72
170.468	170.673	57	87
170.468	170.88	86	90
170.57	170.777	85	87
170.673	170.88	57	66
170.673	171.088	83	86
170.777	170.984	85	86
170.88	171.088	57	66
170.88	171.204	86	90
170.984	171.197	85	84
171.088	171.204	57	66
171.088	171.204	83	84
171.197	171.236	38	61
171.197	171.255	85	85
171.236	171.275	42	66
171.275	171.313	45	72
171.313	171.519	50	87
171.313	172.148	78	80
171.313	172.148	81	80
171.313	172.122	86	90
171.519	171.726	50	66
171.726	171.928	50	66
171.928	172.064	50	66
172.043	172.078	45	61
172.078	172.113	49	66
172.113	172.148	52	72
172.122	172.148	86	76
172.148	172.36	57	87
172.148	172.989	76	76
172.148	172.989	81	76
172.148	172.963	85	90
172.36	172.567	57	66
172.567	172.775	57	66
172.775	172.884	57	66
172.884	172.919	40	61
172.919	172.954	44	66
172.954	172.989	47	72
172.963	172.989	85	76
172.989	173.195	52	87
172.989	173.195	76	76
172.989	173.195	80	76
172.989	173.195	83	90
173.169	173.376	85	76
173.195	173.402	52	66
173.195	173.402	76	72
173.195	173.402	80	72
173.195	173.402	83	85
173.376	173.584	85	76
173.402	173.61	52	65
173.402	173.61	76	72
173.402	173.61	80	72
173.402	173.61	83	85
173.584	173.734	85	76
173.61	173.734	52	65
173.61	173.734	76	72
173.61	173.734	80	72
173.61	173.734	83	85
173.827	174.262	57	64
173.827	174.235	81	90
173.936	174.154	64	54
174.045	174.471	61	54
174.154	174.366	64	54
174.208	174.604	76	55
174.235	174.604	81	60
174.262	174.604	57	40
174.262	174.579	85	67
174.366	174.579	64	31
174.471	174.604	61	31
174.579	174.788	64	31
174.579	174.632	85	63
174.632	174.658	76	55
174.658	175.439	81	60
174.685	175.097	57	40
174.685	175.467	85	70
174.788	174.994	64	31
174.89	175.306	61	31
174.994	175.201	64	31
175.097	175.439	57	40
175.201	175.414	64	31
175.306	175.439	61	31
175.414	175.623	64	31
175.467	175.493	76	55
175.493	176.355	81	60
175.52	175.932	57	40
175.52	176.355	85	69
175.623	175.829	64	31
175.725	176.141	61	31
175.829	176.036	64	31
175.932	176.355	57	40
176.036	176.249	64	31
176.141	176.355	61	31
176.249	176.355	64	31
176.355	176.767	57	40
176.355	176.767	86	69
176.458	176.664	64	31
176.458	176.664	85	60
176.56	176.976	61	31
176.56	176.976	83	60
176.664	176.871	64	31
176.664	176.871	85	60
176.767	177.201	57	40
176.767	177.201	86	68
176.871	177.084	64	31
176.871	177.084	85	61
176.976	177.209	61	31
176.976	177.209	83	61
177.084	177.209	64	31
177.084	177.209	85	61
177.201	177.303	57	40
177.201	178.009	86	67
177.303	177.51	66	31
177.406	177.821	62	31
177.51	177.717	66	31
177.613	178.036	57	40
177.717	177.93	66	31
177.821	178.073	62	31
177.93	178.073	66	31
178.009	178.073	86	59
178.036	178.454	57	40
178.036	178.088	85	71
178.141	178.35	64	31
178.22	178.428	86	56
178.247	178.662	61	31
178.247	178.454	85	64
178.35	178.558	64	31
178.428	178.636	86	57
178.454	178.876	57	40
178.454	178.662	85	65
178.558	178.771	64	31
178.636	178.876	86	59
178.662	178.876	61	31
178.662	178.876	85	66
178.771	178.876	64	31
178.876	179.289	52	40
178.876	179.75	83	67
178.979	179.185	64	31
179.082	179.497	59	31
179.185	179.393	64	31
179.289	179.725	52	40
179.393	179.606	64	31
179.497	179.75	59	31
179.606	179.75	64	31
179.606	179.75	88	94
179.677	179.75	45	61
179.701	179.75	49	61
179.713	180.499	73	74
179.725	179.75	52	61
179.725	180.499	76	77
179.737	180.499	81	80
179.749	179.954	57	87
179.749	180.584	85	90
179.954	180.161	57	67
180.161	180.369	57	67
180.369	180.499	57	64
180.478	180.513	45	61
180.513	180.549	49	66
180.549	180.584	52	72
180.557	181.316	73	74
180.566	181.316	76	77
180.575	181.316	81	80
180.584	180.789	57	87
180.584	181.419	85	90
180.789	180.996	57	66
180.996	181.204	57	66
181.204	181.316	57	66
181.313	181.348	45	61
181.348	181.384	49	66
181.384	181.419	52	72
181.419	181.624	57	87
181.419	181.831	86	90
181.522	181.728	85	87
181.624	181.831	57	67
181.624	182.04	83	86
181.728	181.935	85	86
181.831	182.04	57	67
181.831	182.206	86	90
181.935	182.148	85	84
182.04	182.206	57	67
182.04	182.206	83	84
182.148	182.206	38	61
182.148	182.206	85	85
182.187	182.226	42	66
182.226	182.264	45	72
182.264	182.47	50	87
182.264	183.1	78	80
182.264	183.1	81	80
182.264	183.073	86	90
182.47	182.677	50	68
182.677	182.879	50	68
182.879	183.015	50	68
182.994	183.029	45	61
183.029	183.064	49	66
183.064	183.1	52	72
183.073	183.1	86	76
183.1	183.311	57	87
183.1	183.94	76	76
183.1	183.94	81	76
183.1	183.914	85	90
183.311	183.518	57	67
183.518	183.726	57	67
183.726	183.835	57	67
183.835	183.87	40	61
183.87	183.905	44	66
183.905	183.94	47	72
183.914	183.94	85	76
183.94	184.146	52	87
183.94	184.146	76	76
183.94	184.146	80	76
183.94	184.146	83	90
184.12	184.327	85	76
184.146	184.353	52	67
184.146	184.353	76	72
184.146	184.353	80	72
184.146	184.353	83	85
184.327	184.535	85	76
184.353	184.561	52	67
184.353	184.561	76	72
184.353	184.561	80	72
184.353	184.561	83	85
184.535	184.685	85	76
184.561	184.685	52	67
184.561	184.685	76	72
184.561	184.685	80	72
184.561	184.685	83	85
184.67	184.705	45	61
184.705	184.74	49	66
184.74	185.602	52	72
184.775	184.987	57	87
184.775	185.64	69	90
184.775	185.409	73	90
184.775	188.232	76	90
184.775	185.64	81	90
184.987	185.198	57	67
185.198	185.409	57	67
185.409	185.64	57	67
185.409	186.274	73	73
185.409	186.274	85	87
185.525	186.391	45	61
185.563	186.43	49	66
185.602	186.469	52	72
185.64	185.851	57	87
185.64	186.508	69	90
185.64	186.508	81	90
185.851	186.063	57	66
186.063	186.274	57	66
186.274	186.508	57	66
186.274	187.142	73	73
186.274	187.142	85	87
186.391	187.257	45	61
186.43	187.295	49	66
186.469	187.333	52	72
186.508	186.72	57	87
186.508	187.371	69	90
186.508	187.371	81	90
186.72	186.931	57	67
186.931	187.142	57	67
187.142	187.371	57	67
187.142	187.584	73	73
187.142	187.584	85	87
187.257	187.688	45	61
187.295	187.723	49	66
187.333	187.757	52	72
187.371	187.584	57	95
187.371	187.792	69	82
187.371	187.792	81	97
187.584	187.792	57	70
187.584	188.0	73	78
187.584	188.0	85	92
187.688	188.224	45	67
187.723	188.232	49	72
187.757	188.232	52	79
187.792	188.0	57	95
187.792	188.224	69	83
187.792	188.224	81	99
188.0	188.232	57	70
188.0	188.232	73	79
188.0	188.232	85	93
188.224	189.182	45	88
188.224	188.682	69	90
188.224	188.682	81	108
188.682	189.182	57	88
188.682	189.182	69	82
188.682	189.182	73	82
188.682	189.182	76	82
188.682	189.182	81	97
189.182	190.182	45	74
189.182	190.182	49	74
189.182	190.182	52	74
189.182	190.182	57	88
189.182	190.182	69	86
189.182	190.182	73	86
189.182	190.182	76	86
189.182	190.182	81	103
