OnsetTime	OffsetTime	MidiPitch	Velocity
0.500004	0.565987	42	38
0.675957	0.740424	49	32
0.847874	0.912341	57	34
1.01979	1.0852	49	33
1.1942	1.25923	44	42
1.36762	1.43117	49	34
1.53711	1.60066	59	38
1.7066	1.77144	49	36
1.87951	1.94435	45	44
2.05241	2.11579	54	40
2.22143	2.28481	61	44
2.39045	2.45473	54	40
2.56187	2.62634	47	44
2.73379	2.79717	54	38
2.90281	2.96619	62	41
3.07183	3.1363	54	38
3.24374	3.31012	42	46
3.24374	3.50923	66	55
3.42073	3.4871	49	36
3.59773	3.66314	57	41
3.59773	3.77214	73	55
3.77214	3.83755	49	36
3.94655	4.01292	44	46
3.94655	4.98711	71	56
4.12354	4.188	49	36
4.29545	4.35992	59	42
4.46737	4.5324	49	36
4.64079	4.70619	45	46
4.8152	4.87967	54	35
4.98711	5.05158	61	39
4.98711	5.11605	69	54
5.15903	5.22387	54	34
5.15903	5.28872	68	54
5.33194	5.39753	47	43
5.33194	5.62213	66	56
5.50686	5.5717	54	34
5.67977	5.74461	62	36
5.67977	5.80945	64	54
5.85268	5.9179	54	33
5.85268	5.98311	62	53
6.02659	6.09181	42	41
6.02659	6.36621	61	56
6.20051	6.26535	49	33
6.37342	6.43826	57	37
6.37342	6.54632	62	53
6.54632	6.61117	49	34
6.54632	6.71923	64	53
6.71923	6.78445	45	43
6.71923	7.06556	66	57
6.89315	6.9578	54	34
7.06556	7.13021	61	39
7.06556	7.41708	69	55
7.23797	7.30514	54	35
7.41708	7.4823	49	46
7.41708	8.94191	68	57
7.59099	7.65546	56	36
7.76291	7.82683	64	41
7.93336	7.99783	56	36
8.10528	8.16938	47	43
8.27622	8.33977	56	34
8.44571	8.50909	61	40
8.61472	8.67883	56	35
8.78566	8.84958	45	44
8.95612	9.0195	54	39
8.95612	9.08288	66	50
9.12514	9.18815	61	39
9.12514	9.25117	68	50
9.29319	9.35803	54	39
9.29319	9.42287	69	50
9.4661	9.52968	44	43
9.4661	9.80521	66	55
9.4661	10.3018	71	55
9.63565	9.69924	49	39
9.80521	9.86936	59	39
9.80521	10.1473	65	50
9.97625	10.0404	49	39
10.1473	10.2105	42	45
10.1473	10.4835	61	50
10.3159	10.3788	49	41
10.3159	10.4835	69	52
10.4835	10.5459	57	41
10.4835	10.6498	71	52
10.6498	10.7139	49	42
10.6498	10.8207	73	52
10.8207	10.8845	47	47
10.8207	11.1608	69	56
10.8207	11.6597	74	56
10.9907	11.0545	52	45
11.1608	11.2249	62	45
11.1608	11.5029	68	50
11.3318	11.396	52	45
11.5029	11.567	45	47
11.5029	12.2691	64	50
11.6739	12.2691	52	46
11.6739	12.2691	73	53
11.848	12.2691	57	46
11.848	12.2135	74	55
12.0268	12.2691	61	46
12.0268	12.2691	76	57
12.2135	12.2777	50	46
12.2135	13.2354	74	55
12.2135	13.5744	78	55
12.3846	12.4481	57	39
12.5541	12.6176	62	38
12.7236	12.7871	66	38
12.8931	12.9579	57	42
13.066	13.1295	62	37
13.2354	13.299	66	37
13.4049	13.4897	69	37
13.5744	14.5152	66	56
13.7439	13.8287	62	37
13.9134	13.9981	61	36
14.0829	14.1676	59	36
14.2524	14.3187	57	46
14.4279	14.4934	61	36
14.6026	14.6695	57	41
14.6026	14.6918	73	53
14.781	14.8478	54	36
14.9593	15.0249	56	46
14.9593	15.9865	71	56
15.1341	15.1977	59	36
15.3038	15.3674	64	42
15.4735	15.5376	54	36
15.6446	15.7092	52	46
15.8168	15.8804	59	35
15.9865	16.0494	64	39
15.9865	16.1123	69	54
16.1543	16.2183	59	34
16.1543	16.2823	68	54
16.325	16.3897	47	43
16.325	16.6115	66	56
16.4977	16.5617	56	34
16.6683	16.7318	62	36
16.6683	16.7953	64	54
16.8376	16.902	52	33
16.8376	16.9663	62	53
17.0092	17.0748	45	41
17.1839	17.248	52	33
17.1839	17.3546	61	56
17.3546	17.4181	57	37
17.3546	17.5239	62	53
17.5239	17.5879	52	34
17.5239	17.6946	64	53
17.6946	17.7589	50	43
17.6946	18.0364	66	57
17.8662	17.9301	57	34
18.0364	18.1003	62	39
18.0364	18.3834	69	55
18.2066	18.2729	49	35
18.3834	18.4482	48	46
18.3834	20.4114	66	57
18.3834	20.4114	68	57
18.5561	18.6197	56	36
18.7258	18.7887	63	41
18.8936	18.9565	56	36
19.0614	19.1257	48	43
19.233	19.2967	56	34
19.4027	19.4655	63	40
19.57	19.6328	56	35
19.7373	19.8015	48	46
19.9085	19.9716	56	36
20.0768	20.1395	63	41
20.2441	20.3068	56	36
20.4114	20.8039	49	46
20.4114	20.8039	66	56
20.4114	20.8039	69	56
20.5821	20.8039	57	42
20.7503	20.8154	64	46
20.7503	20.8372	76	55
20.7503	20.8372	80	55
20.924	20.9891	57	44
21.0977	21.1619	48	46
21.0977	21.7751	66	54
21.0977	21.7751	68	54
21.2689	21.3321	56	36
21.4376	21.5009	63	41
21.6063	21.6696	56	36
21.7751	22.1263	47	46
21.7751	22.114	62	49
21.7751	22.1263	66	49
21.9458	22.1263	52	42
22.114	22.1792	56	46
22.114	22.1792	62	46
22.114	22.2009	73	52
22.114	22.2009	76	52
22.2877	22.3529	52	44
22.4614	22.5256	45	46
22.4614	22.8013	61	50
22.4614	23.1388	64	50
22.6326	22.6959	52	39
22.8013	23.1388	61	43
22.9701	23.0333	52	40
23.1388	23.4929	42	46
23.1388	23.4929	59	55
23.1388	23.4929	63	55
23.3095	23.4929	47	42
23.4778	23.5429	57	46
23.4778	23.5863	69	58
23.4778	23.5863	73	58
23.6515	23.7166	47	44
23.8252	23.8893	37	55
23.8252	25.8558	56	58
23.8252	25.8558	61	58
23.9963	24.0596	44	48
24.1651	24.2283	53	51
24.3338	24.3971	44	48
24.5025	24.5665	37	55
24.6732	24.7367	44	48
24.8421	24.9054	53	51
25.0109	25.0741	44	48
25.1796	25.2438	37	51
25.3508	25.414	44	46
25.5195	25.5828	53	49
25.6882	25.7568	44	46
25.871	26.5199	47	38
25.871	26.5199	59	42
25.871	26.5199	62	42
26.0432	26.5199	54	35
26.2154	26.5199	57	37
26.2154	26.5754	66	43
26.2154	26.5754	69	43
26.3954	26.5199	61	35
26.5754	26.6422	52	37
26.5754	27.4337	64	43
26.5754	27.4337	68	43
26.7535	26.8179	59	34
26.9251	26.9892	62	34
27.0957	27.1593	59	34
27.2651	27.3283	52	40
27.4337	27.4967	59	36
27.4337	27.6017	66	39
27.4337	27.6017	69	39
27.6017	27.6679	52	37
27.6017	28.3076	68	44
27.6017	28.3076	71	44
27.7782	27.8444	47	35
27.9547	28.0208	40	37
28.1311	28.1973	47	34
28.3076	28.3743	52	34
28.3076	28.6488	69	41
28.3076	28.6488	73	41
28.4856	28.5524	56	34
28.6636	29.3152	47	37
28.6636	29.3152	59	42
28.6636	29.3152	62	42
28.8381	29.3152	54	34
29.0125	29.3152	57	34
29.0125	29.3739	66	44
29.0125	29.3739	69	44
29.1932	29.3152	61	34
29.3739	29.4409	52	38
29.3739	30.2324	64	43
29.3739	30.2324	68	43
29.5525	29.6172	59	34
29.7242	29.7881	62	34
29.8945	29.9582	59	34
30.0639	30.1272	52	41
30.2324	30.2952	59	37
30.2324	30.4	66	42
30.2324	30.4	69	42
30.4	30.466	52	37
30.4	31.0892	68	46
30.4	31.0892	71	46
30.576	30.6419	47	37
30.7519	30.8179	40	45
30.9279	30.9938	47	38
31.1038	31.1708	52	38
31.1038	31.461	64	51
31.1038	31.461	68	51
31.2824	31.3493	56	38
31.461	31.5267	47	46
31.461	31.8118	66	55
31.461	31.8118	69	55
31.6364	31.7022	52	39
31.8118	31.8776	62	39
31.8118	32.168	68	59
31.8118	32.168	71	59
31.9873	32.055	52	39
32.168	32.2358	45	42
32.168	32.8844	67	37
32.168	32.8844	71	37
32.168	32.4082	73	59
32.3487	32.4157	52	38
32.4082	32.6463	73	59
32.5273	32.5942	57	38
32.6463	32.8844	76	56
32.7058	32.7728	61	38
32.8844	32.952	50	41
32.8844	33.6003	66	37
32.8844	33.6003	69	37
32.8844	33.1241	73	59
33.0646	33.1316	57	38
33.1241	33.3622	71	59
33.2432	33.3101	62	38
33.3622	33.6003	73	56
33.4217	33.4887	57	38
33.6003	33.6673	54	41
33.6003	34.3093	64	37
33.6003	34.3093	66	37
33.6003	33.9574	69	56
33.7789	33.8458	57	34
33.9574	34.0234	61	35
33.9574	34.3093	73	52
34.1334	34.1994	57	34
34.3093	34.3763	47	37
34.3093	35.7358	62	45
34.3093	35.0236	69	45
34.3093	35.3807	71	55
34.4879	34.5549	54	32
34.6665	34.7334	59	34
34.845	34.912	54	33
35.0236	35.0906	40	35
35.0236	36.4736	67	41
35.2022	35.2691	47	30
35.3807	35.4473	52	30
35.3807	35.7358	73	46
35.5583	35.6248	55	30
35.7358	35.8032	40	33
35.7358	36.0951	62	37
35.7358	36.4736	69	44
35.9154	35.9828	45	30
36.0951	36.166	55	28
36.0951	36.4736	59	34
36.2843	36.3553	45	28
36.4736	36.5414	42	38
36.4736	36.7146	61	50
36.4736	37.9261	66	40
36.4736	38.1656	69	40
36.6543	36.7221	49	35
36.7146	36.9555	62	49
36.835	36.9028	57	35
36.9555	37.2009	59	49
37.0158	37.0852	54	35
37.2009	37.2685	40	38
37.2009	37.4412	61	52
37.3811	37.4487	45	35
37.4412	37.6814	62	49
37.5613	37.6289	54	35
37.6814	37.9261	64	49
37.7415	37.8107	45	36
37.9261	37.9934	38	38
37.9261	38.1656	66	52
38.1057	38.1731	45	35
38.1656	38.4051	68	49
38.2854	38.3527	50	35
38.4051	38.6485	64	49
38.465	38.5338	54	35
38.6485	38.7159	45	35
38.6485	38.888	66	51
38.8281	38.8955	50	33
38.888	39.1275	68	48
39.0078	39.0751	54	33
39.1275	39.3709	69	47
39.1874	39.2562	57	35
39.3709	39.4383	50	34
39.3709	39.6107	71	47
39.5507	39.6183	57	31
39.6107	39.8518	73	44
39.7311	39.799	62	31
39.8518	40.0998	69	44
39.9123	39.9826	66	30
40.0998	40.1687	49	31
40.0998	40.3463	71	44
40.2842	40.3541	54	30
40.3463	40.5976	73	41
40.4714	40.5422	57	29
40.5976	40.8529	74	41
40.6612	40.7331	62	28
40.8529	41.584	47	40
40.8529	41.5969	66	48
40.8529	41.5969	74	48
40.8529	41.5969	78	48
41.0375	41.5969	54	36
41.2222	41.5969	59	36
41.2222	41.5969	73	48
41.2222	41.5969	85	48
41.4031	41.5969	62	36
41.584	41.6525	47	40
41.584	42.6424	71	51
41.584	42.2954	77	51
41.584	42.6424	83	51
41.7666	41.8325	53	36
41.9423	42.0083	56	36
42.1181	42.1846	62	36
42.2954	42.3615	47	40
42.4705	42.5349	54	35
42.6424	42.7069	59	35
42.6424	42.7713	69	50
42.8143	42.8791	62	35
42.8143	42.944	68	50
42.9872	43.0528	47	39
42.9872	43.2774	66	52
43.1621	43.227	54	34
43.335	43.3999	56	34
43.335	43.4647	64	50
43.508	43.5732	54	34
43.508	43.6384	62	49
43.6819	43.7482	45	41
43.6819	44.0246	61	52
43.8589	43.9237	54	35
44.0318	44.0966	57	35
44.0318	44.2047	62	49
44.2047	44.2695	54	34
44.2047	44.3776	64	49
44.3776	44.4428	42	43
44.3776	44.6377	66	53
44.5515	44.6161	49	35
44.7239	44.7886	57	35
44.7239	44.9859	69	51
44.8963	44.9635	49	35
45.0754	45.141	48	42
45.0754	46.6253	66	53
45.0754	46.6111	68	53
45.2503	45.3148	54	35
45.4222	45.4867	63	39
45.5942	45.6586	54	35
45.7661	45.8321	49	41
45.942	46.0061	54	37
46.113	46.1771	64	42
46.2839	46.348	54	38
46.4548	46.5188	51	44
46.6253	46.69	54	40
46.6253	49.199	66	51
46.7977	46.8631	60	43
46.7977	46.9721	68	54
46.9721	47.0391	54	45
46.9721	47.1507	69	56
47.1507	47.2143	52	47
47.1507	47.9864	71	57
47.3202	47.3838	54	41
47.4898	47.5539	61	41
47.6608	47.725	54	41
47.8319	47.8951	51	47
48.0005	48.0648	54	45
48.0005	48.1719	69	55
48.1719	48.2371	60	45
48.1719	48.3458	71	57
48.3458	48.4099	54	45
48.3458	48.5168	69	55
48.5168	48.5805	44	47
48.5168	49.3557	68	56
48.6868	48.7506	51	45
48.8569	48.921	60	45
49.0279	49.0921	51	45
49.199	49.2631	44	47
49.37	49.4353	50	44
49.37	49.5441	66	54
49.5441	49.6111	59	44
49.5441	49.7229	64	56
49.7229	49.7929	50	44
49.7229	49.9096	62	58
49.9096	50.0892	40	47
49.9096	50.614	61	60
50.0892	50.2647	50	41
50.2647	50.4386	52	41
50.4386	50.7885	56	41
50.614	52.0061	61	45
50.7885	51.3042	56	41
50.9609	51.3042	50	38
51.1333	51.3124	40	36
51.3124	51.9647	37	40
51.4878	51.9647	44	37
51.6598	51.9647	53	38
51.8317	52.0061	59	38
52.0061	52.1795	61	41
52.1795	52.5233	59	41
52.3514	52.5233	53	39
52.5233	52.6993	44	39
52.6993	52.8773	73	37
52.8773	53.3565	71	37
53.0554	53.3565	65	35
53.2334	54.175	56	33
53.418	54.1492	78	48
53.6027	54.175	54	31
53.7873	54.175	61	31
53.7873	54.175	85	48
53.9682	54.175	69	31
54.1492	55.2254	78	40
54.1492	55.2254	81	40
54.1492	55.4968	84	50
54.3317	54.7787	57	30
54.5075	54.7787	62	30
54.5075	54.7787	66	30
54.6832	55.4968	72	30
54.865	55.4968	85	48
55.0452	55.4968	61	31
55.2254	55.4968	66	31
55.2254	55.8319	78	40
55.2254	56.0722	81	40
55.2254	56.2108	88	48
55.4063	56.2108	76	31
55.5873	56.2108	87	50
55.7719	56.2108	59	26
55.8319	56.2108	78	40
55.8319	56.2108	83	46
55.9521	56.2108	66	23
56.0722	57.0404	81	45
56.1322	57.0662	75	24
56.3152	57.0404	78	48
56.4987	57.0662	54	31
56.6822	57.0662	61	31
56.6822	57.0662	85	48
56.8613	57.0662	69	31
57.0404	58.1191	78	40
57.0404	58.1191	81	40
57.0404	58.4289	84	50
57.2229	57.6633	57	30
57.3999	57.6633	62	30
57.3999	57.6633	66	30
57.5769	58.4289	72	30
57.7587	58.4289	85	48
57.9389	58.4289	61	31
58.1191	58.4289	66	31
58.1191	58.481	78	35
58.1191	58.481	81	35
58.1191	58.481	88	48
58.3	58.481	76	31
58.481	58.9677	87	50
58.6656	59.1158	59	26
58.726	59.1158	78	40
58.726	59.1158	83	46
58.8468	59.1158	66	23
58.9677	59.8767	87	45
59.0281	59.8767	75	23
59.2127	59.8767	73	46
59.3951	59.8767	49	27
59.5775	59.8767	54	24
59.5775	60.1977	66	25
59.5775	60.1977	69	25
59.5775	60.6128	76	46
59.7621	60.6128	64	24
59.9467	60.4469	75	49
60.1354	60.6128	47	27
60.1977	60.6128	66	25
60.1977	60.6128	69	25
60.1977	60.6128	71	45
60.3223	60.6128	54	28
60.4469	60.7066	75	44
60.5092	60.7066	63	27
60.7066	61.4367	63	46
60.7066	61.4367	66	46
60.7066	61.4367	73	46
60.8912	61.073	45	36
61.073	61.2548	54	36
61.2548	61.4367	61	36
61.4367	61.7959	64	46
61.4367	61.7959	68	46
61.4367	61.7959	71	46
61.6163	61.7959	44	36
61.7959	61.9783	52	36
61.7959	62.1607	59	45
61.7959	62.1607	64	45
61.7959	62.1607	68	45
61.9783	62.1607	44	36
62.1607	62.8942	57	45
62.1607	62.8942	61	45
62.1607	62.4039	64	45
62.3431	62.5254	42	35
62.4039	62.647	66	44
62.5254	62.7078	49	35
62.647	62.8942	68	44
62.7078	62.8942	42	35
62.8942	63.6526	57	44
62.8942	63.2703	64	44
62.8942	63.6526	66	44
63.0822	63.2703	35	33
63.2703	63.4584	47	33
63.2703	63.6526	63	43
63.4584	63.6526	35	33
63.6526	63.8339	40	35
63.6526	64.0148	61	44
63.6526	64.5548	64	44
63.6526	64.7339	68	44
63.8339	64.0148	47	34
64.0148	64.1952	52	34
64.0148	64.3752	59	40
64.1952	64.3752	56	34
64.3752	64.5548	59	37
64.5548	65.0943	64	35
64.7339	65.0943	68	39
64.9124	65.0943	71	40
65.0943	65.8114	67	32
65.0943	65.8114	70	32
65.0943	65.7212	73	46
65.2724	65.7212	55	36
65.4506	65.7212	61	36
65.4506	65.8114	76	46
65.631	65.8114	64	36
65.8114	66.5423	68	34
65.8114	66.0548	71	34
65.8114	66.0548	75	49
65.9949	66.1745	56	32
66.0548	66.5423	71	45
66.1745	66.3542	59	28
66.2943	66.5423	75	44
66.3542	66.5423	63	28
66.5423	67.2721	64	47
66.5423	67.2721	68	47
66.5423	67.2721	73	47
66.7267	66.9085	49	36
66.9085	67.0903	56	36
67.0903	67.2721	61	36
67.2721	67.6303	63	47
67.2721	67.6303	68	47
67.2721	67.6303	71	47
67.4512	67.6303	44	36
67.6303	67.8127	51	36
67.6303	67.9951	59	45
67.6303	67.9951	63	45
67.6303	67.9951	68	45
67.8127	67.9951	56	36
67.9951	68.7257	58	45
67.9951	68.7257	61	45
67.9951	68.2383	64	45
68.1775	68.3599	42	35
68.2383	68.4814	66	44
68.3599	68.5422	49	35
68.4814	68.7257	68	45
68.5422	68.7257	42	35
68.7257	69.0938	63	46
68.7257	69.8346	66	46
68.7257	69.8346	70	46
68.9098	69.0938	40	36
69.0938	69.2796	49	36
69.0938	69.8346	61	43
69.2796	69.4653	40	36
69.4653	69.65	39	40
69.65	69.8346	47	36
69.8346	70.0203	51	36
69.8346	70.2061	59	47
69.8346	70.2061	66	47
69.8346	70.2061	71	47
70.0203	70.2061	54	36
70.2061	70.3954	59	42
70.2061	70.5846	66	50
70.2061	70.5846	71	50
70.2061	70.5846	75	50
70.3954	70.5846	63	38
70.5846	70.7794	66	43
70.5846	70.7794	71	54
70.5846	70.9742	75	54
70.5846	70.9742	78	54
70.7794	70.9742	71	46
70.9742	71.339	75	51
70.9742	73.1183	76	47
70.9742	73.1183	80	47
71.1566	71.339	61	38
71.339	71.5236	64	33
71.339	71.7082	73	36
71.5236	71.7082	68	33
71.7082	72.0612	75	42
71.8847	72.0612	59	37
72.0612	72.2361	64	32
72.0612	72.411	73	37
72.2361	72.411	68	32
72.411	72.7568	75	48
72.5839	72.7568	58	38
72.7568	72.9376	64	34
72.7568	73.1183	73	41
72.9376	73.1183	68	34
73.1183	73.8363	76	34
73.1183	73.8363	80	34
73.1183	73.3531	83	57
73.2948	73.4697	56	33
73.3531	73.5863	87	53
73.4697	73.6446	64	33
73.5863	73.8363	83	53
73.6446	73.8363	71	32
73.8363	74.2011	75	49
73.8363	75.6365	76	45
73.8363	75.6365	80	45
74.0187	74.2011	61	37
74.2011	74.3857	64	33
74.2011	74.5703	73	36
74.3857	74.5703	68	33
74.5703	74.9243	75	42
74.7473	74.9243	59	36
74.9243	75.1018	64	32
74.9243	75.2793	73	37
75.1018	75.2793	68	32
75.2793	75.6365	75	48
75.4579	75.6365	58	37
75.6365	75.8172	64	34
75.6365	75.9979	76	43
75.6365	75.9979	80	43
75.6365	75.9979	85	47
75.8172	75.9979	68	34
75.9979	76.3729	73	40
75.9979	76.3729	78	40
75.9979	76.3729	82	44
76.1854	76.3729	54	38
76.3729	76.5665	61	33
76.3729	76.76	70	39
76.3729	76.76	76	39
76.3729	76.76	80	42
76.5665	76.76	66	33
76.76	77.1248	73	46
76.76	78.9081	74	47
76.76	78.9081	78	47
76.9424	77.1248	59	38
77.1248	77.3094	62	33
77.1248	77.494	71	36
77.3094	77.494	66	33
77.494	77.848	73	42
77.671	77.848	57	37
77.848	78.0234	62	32
77.848	78.1988	71	37
78.0234	78.1988	66	32
78.1988	78.5467	73	48
78.3728	78.5467	56	38
78.5467	78.7274	62	34
78.5467	78.9081	71	41
78.7274	78.9081	66	34
78.9081	79.6264	74	40
78.9081	79.6264	78	40
78.9081	79.1419	81	53
79.0836	79.2585	54	37
79.1419	79.3751	85	51
79.2585	79.4334	62	36
79.3751	79.6264	81	50
79.4334	79.6264	69	34
79.6264	79.9911	73	46
79.6264	81.4223	74	45
79.6264	81.4223	78	45
79.8088	79.9911	59	37
79.9911	80.1757	62	33
79.9911	80.3604	71	36
80.1757	80.3604	66	33
80.3604	80.7154	73	42
80.5379	80.7154	57	37
80.7154	80.8929	62	32
80.7154	81.0704	71	37
80.8929	81.0704	66	32
81.0704	81.4223	73	48
81.2463	81.4223	56	39
81.4223	81.603	62	34
81.4223	81.7838	74	43
81.4223	81.7838	78	43
81.4223	81.7838	83	47
81.603	81.7838	66	34
81.7838	82.1588	71	40
81.7838	82.1588	76	40
81.7838	82.1588	80	44
81.9713	82.1588	52	38
82.1588	82.3568	59	33
82.1588	82.5548	68	39
82.1588	82.5548	74	39
82.1588	82.5548	78	42
82.3568	82.5548	52	33
82.5548	82.6208	45	46
82.5548	82.9034	69	49
82.5548	82.9034	73	49
82.5548	82.9034	76	53
82.7295	82.7947	52	43
82.9034	82.9674	57	43
82.9034	82.9674	64	47
82.9034	82.9674	69	47
82.9034	82.9674	73	47
83.0741	83.1382	61	43
83.0741	83.1382	64	47
83.0741	83.1382	69	47
83.0741	83.1382	73	47
83.2449	83.3101	61	46
83.2449	83.5057	64	47
83.2449	83.5057	69	47
83.2449	83.5057	73	47
83.4188	83.484	57	42
83.5926	83.6559	52	42
83.5926	83.9302	69	49
83.5926	83.9302	73	49
83.5926	83.9302	76	49
83.7614	83.8247	45	42
83.9302	83.9935	42	50
83.9302	84.2678	69	49
83.9302	84.2678	73	49
83.9302	84.2678	78	49
84.099	84.1623	49	45
84.2678	84.3303	54	47
84.2678	84.3929	69	45
84.2678	84.3929	73	45
84.2678	84.3929	78	45
84.4346	84.4982	61	45
84.4346	84.5619	71	45
84.4346	84.5619	73	45
84.4346	84.5619	80	45
84.6044	84.6664	61	50
84.6044	84.7284	69	45
84.6044	84.7284	73	45
84.6044	84.7284	78	45
84.7697	84.8334	54	46
84.7697	84.8971	71	45
84.7697	84.8971	73	45
84.7697	84.8971	80	45
84.9396	85.0033	49	48
84.9396	85.2792	69	48
84.9396	85.2792	73	48
84.9396	85.2792	78	48
85.1094	85.1731	42	46
85.2792	85.3446	45	46
85.2792	85.6272	69	52
85.2792	85.6272	73	52
85.2792	85.6272	76	52
85.4533	85.5185	52	43
85.6272	85.6912	57	43
85.6272	85.6912	68	47
85.6272	85.6912	69	47
85.6272	85.6912	73	47
85.7979	85.862	61	43
85.7979	85.862	68	47
85.7979	85.862	69	47
85.7979	85.862	73	47
85.9687	86.0339	61	48
85.9687	86.2295	66	47
85.9687	86.2295	69	47
85.9687	86.2295	73	47
86.1426	86.2078	57	44
86.3164	86.3822	52	48
86.3164	86.6674	64	51
86.3164	86.6674	66	51
86.3164	86.6674	69	51
86.4919	86.5577	45	45
86.6674	86.7306	38	50
86.6674	88.0226	62	54
86.6674	88.0226	66	54
86.6674	88.0226	69	54
86.6674	88.0226	73	54
86.8361	86.8994	45	46
87.0048	87.0674	50	48
87.1716	87.2353	54	46
87.3414	87.4034	54	50
87.5068	87.5704	50	47
87.6766	87.74	45	49
87.8457	87.912	38	47
88.0226	88.0879	43	35
88.0226	88.3705	62	36
88.0226	88.3705	67	36
88.0226	88.3705	71	36
88.1966	88.2618	50	32
88.3705	88.4345	55	32
88.3705	88.4345	59	35
88.3705	88.4345	62	35
88.3705	88.4345	67	35
88.5412	88.6053	50	32
88.5412	88.6053	59	35
88.5412	88.6053	62	35
88.5412	88.6053	67	35
88.712	88.7772	43	35
88.712	88.8859	59	35
88.712	88.8859	62	35
88.712	88.8859	67	35
88.8859	88.9511	50	31
89.0598	89.1231	55	31
89.0598	89.3129	62	36
89.0598	89.3129	67	36
89.0598	89.3129	71	36
89.2285	89.2918	50	31
89.3973	89.4606	38	35
89.3973	89.7349	60	36
89.3973	89.7349	65	36
89.3973	89.7349	69	36
89.5661	89.6294	45	32
89.7349	89.7975	53	32
89.7349	89.8183	60	34
89.7349	89.8183	65	34
89.7349	89.8183	69	34
89.9017	89.9654	45	32
89.9017	89.9866	62	34
89.9017	89.9866	65	34
89.9017	89.9866	71	34
90.0715	90.1335	41	35
90.0715	90.1542	60	34
90.0715	90.1542	65	34
90.0715	90.1542	69	34
90.2368	90.3005	48	32
90.2368	90.3218	62	34
90.2368	90.3218	65	34
90.2368	90.3218	71	34
90.4067	90.4704	57	32
90.4067	90.5765	64	36
90.4067	90.5765	65	36
90.4067	90.5765	72	36
90.5765	90.6425	48	32
90.7526	90.8179	43	35
90.7526	91.1005	62	37
90.7526	91.1005	67	37
90.7526	91.1005	71	37
90.9266	90.9918	50	32
91.1005	91.1645	55	32
91.1005	91.1645	59	34
91.1005	91.1645	62	34
91.1005	91.1645	67	34
91.2712	91.3353	50	32
91.2712	91.3353	59	34
91.2712	91.3353	62	34
91.2712	91.3353	67	34
91.442	91.5072	41	36
91.442	91.7028	59	35
91.442	91.7028	62	35
91.442	91.7028	67	35
91.6159	91.6811	50	33
91.7898	91.8556	55	35
91.7898	92.1407	62	38
91.7898	92.1407	67	38
91.7898	92.1407	71	38
91.9652	92.031	50	37
92.1407	92.3094	40	42
92.1407	92.8149	64	42
92.1407	92.8149	68	42
92.1407	92.8149	71	42
92.3094	92.4781	47	39
92.4781	92.6449	52	39
92.6449	92.7723	56	39
92.8149	92.9871	52	42
92.8149	93.3394	64	44
92.9871	93.1607	56	45
93.1607	93.3394	59	47
93.3394	93.5214	64	49
93.5214	93.5875	57	50
93.5214	93.87	69	53
93.5214	93.87	73	53
93.5214	93.87	76	53
93.6961	93.7613	61	47
93.87	93.9341	64	47
93.87	93.9341	69	51
93.87	93.9341	73	51
94.0408	94.1048	61	47
94.0408	94.1048	69	51
94.0408	94.1048	73	51
94.2115	94.2767	56	50
94.2115	94.4724	69	51
94.2115	94.4724	73	51
94.3854	94.4506	61	46
94.5593	94.6226	64	46
94.5593	94.8969	69	53
94.5593	94.8969	73	53
94.5593	94.8969	76	53
94.7281	94.7914	61	46
94.8969	94.9602	54	55
94.8969	95.2345	69	53
94.8969	95.2345	73	53
94.8969	95.2345	78	53
95.0657	95.129	61	49
95.2345	95.297	66	51
95.2345	95.3594	69	47
95.2345	95.3594	73	47
95.2345	95.3594	78	47
95.4011	95.465	61	49
95.4011	95.529	71	47
95.4011	95.529	73	47
95.4011	95.529	80	47
95.5716	95.6341	54	55
95.5716	95.6966	69	49
95.5716	95.6966	74	49
95.5716	95.6966	78	49
95.7383	95.8022	57	50
95.7383	95.8661	69	48
95.7383	95.8661	74	48
95.7383	95.8661	80	48
95.9087	95.9723	66	52
95.9087	96.2478	69	51
95.9087	96.2478	74	51
95.9087	96.2478	78	51
96.0783	96.1418	57	50
96.2478	96.3131	45	50
96.2478	96.5957	69	57
96.2478	96.5957	73	57
96.2478	96.5957	76	57
96.4218	96.487	52	47
96.5957	96.6597	61	47
96.5957	96.6597	68	51
96.5957	96.6597	69	51
96.5957	96.6597	73	51
96.7665	96.8305	52	47
96.7665	96.8305	68	51
96.7665	96.8305	69	51
96.7665	96.8305	73	51
96.9372	97.003	42	52
96.9372	97.2005	66	51
96.9372	97.2005	69	51
96.9372	97.2005	73	51
97.1127	97.1786	49	48
97.2883	97.3549	57	52
97.2883	97.6435	64	53
97.2883	97.6435	66	53
97.2883	97.6435	69	53
97.4659	97.5325	49	49
97.6435	97.7068	35	53
97.6435	99.3339	63	56
97.6435	99.3339	66	56
97.6435	99.3339	69	56
97.6435	99.3339	73	56
97.8123	97.8755	42	48
97.981	98.0435	47	51
98.1478	98.2114	42	48
98.3176	98.3796	42	52
98.4829	98.5466	47	48
98.6528	98.7162	54	51
98.8219	98.8853	47	48
98.991	99.0553	47	45
99.1625	99.2268	54	37
99.3339	99.3971	59	37
99.3339	99.4182	61	43
99.3339	99.4182	66	43
99.3339	99.4182	69	43
99.5025	99.5657	54	37
99.5025	99.5868	61	43
99.5025	99.5868	66	43
99.5025	99.5868	69	43
99.671	99.7362	42	43
99.671	99.9319	59	43
99.671	99.9319	63	43
99.671	99.9319	66	43
99.8449	99.9101	49	38
100.019	100.082	54	38
100.019	100.272	64	45
100.019	100.272	66	45
100.019	100.272	69	45
100.188	100.251	49	38
100.356	100.42	47	46
100.356	100.696	63	47
100.356	100.696	69	47
100.356	100.696	73	47
100.526	100.59	54	42
100.696	100.759	59	42
100.696	100.78	61	45
100.696	100.78	66	45
100.696	100.78	69	45
100.863	100.926	54	42
100.863	100.947	61	45
100.863	100.947	66	45
100.863	100.947	69	45
101.031	101.094	42	47
101.031	101.285	59	47
101.031	101.285	63	47
101.031	101.285	66	47
101.2	101.264	49	44
101.37	101.433	54	44
101.37	101.627	64	49
101.37	101.627	66	49
101.37	101.627	69	49
101.539	101.605	49	45
101.715	101.781	47	53
101.715	102.063	63	56
101.715	102.063	69	56
101.715	102.063	73	56
101.889	101.954	54	48
102.063	102.127	59	48
102.063	102.759	61	55
102.063	102.759	66	55
102.063	102.759	69	55
102.234	102.298	54	48
102.405	102.471	42	57
102.582	102.648	49	49
102.759	102.827	54	52
102.759	103.414	66	61
102.759	103.414	69	61
102.759	103.414	73	61
102.941	103.009	49	55
103.123	103.414	68	61
103.123	103.414	75	61
103.298	103.473	63	55
103.473	103.731	32	54
103.473	103.731	39	54
103.641	103.812	44	55
103.812	104.076	44	57
103.979	104.149	51	58
104.149	104.403	63	60
104.314	104.482	56	58
104.482	104.678	56	63
104.646	105.041	63	59
104.813	105.041	75	62
104.977	105.145	68	60
105.145	105.336	68	59
105.312	105.733	75	55
105.482	105.733	87	56
105.652	105.84	80	52
105.84	106.546	68	32
105.84	106.197	84	52
105.84	106.546	87	52
106.018	106.371	72	30
106.197	106.554	75	30
106.197	106.554	84	51
106.371	106.554	72	30
106.546	107.251	68	32
106.546	107.251	83	52
106.546	107.251	87	52
106.723	107.076	71	30
106.901	107.251	75	30
106.901	107.251	91	51
107.076	107.251	71	30
107.251	107.935	68	32
107.251	107.955	84	52
107.251	107.955	87	52
107.426	107.778	72	30
107.601	107.935	75	30
107.778	107.955	72	30
107.955	108.475	67	32
107.955	109.342	80	47
107.955	108.645	84	52
108.131	108.645	68	30
108.306	108.645	72	30
108.306	108.645	87	52
108.475	108.645	67	30
108.645	109.342	65	32
108.645	109.105	84	52
108.818	109.163	68	30
108.875	109.342	82	50
108.99	109.342	72	30
109.105	109.342	84	50
109.163	109.342	68	30
109.342	109.99	63	32
109.342	110.065	79	40
109.342	109.99	80	48
109.523	109.884	67	28
109.704	109.99	68	28
109.704	110.065	84	48
109.884	110.065	67	28
110.065	110.244	61	30
110.065	110.779	77	41
110.065	110.779	82	47
110.244	110.422	65	28
110.422	110.601	68	28
110.601	110.779	65	28
110.779	110.959	63	31
110.779	111.139	70	47
110.959	111.139	65	29
111.139	111.321	68	33
111.139	111.502	72	49
111.321	111.502	65	30
111.502	112.848	65	34
111.502	112.848	73	52
111.681	111.86	68	30
111.86	112.038	70	30
112.038	112.571	68	30
112.217	112.933	63	32
112.217	112.848	72	47
112.394	112.752	67	28
112.571	112.848	68	30
112.571	112.933	77	49
112.752	112.933	67	28
112.933	113.648	61	30
112.933	113.648	70	45
113.112	113.291	65	28
113.291	113.469	67	28
113.469	113.648	65	28
113.648	114.367	60	30
113.648	114.216	68	47
113.824	114.184	63	28
114.001	114.216	65	28
114.001	114.367	77	49
114.184	114.367	63	28
114.367	115.098	58	30
114.367	115.098	67	40
114.545	114.724	61	26
114.724	114.911	63	26
114.911	115.098	61	26
115.098	115.88	56	30
115.098	115.74	65	44
115.291	115.682	60	26
115.484	115.74	61	26
115.484	115.88	77	44
115.682	115.88	60	26
115.88	116.66	55	28
115.88	117.392	63	38
116.077	116.271	58	25
116.271	116.466	61	25
116.466	116.66	58	25
116.66	117.031	53	33
116.846	117.031	58	28
116.846	117.031	61	28
117.031	117.392	51	31
117.211	117.392	58	28
117.211	117.392	61	28
117.392	117.755	44	28
117.392	117.755	60	39
117.392	118.067	63	39
117.573	117.932	48	27
117.755	118.067	44	27
117.755	118.108	60	38
117.932	118.108	48	27
118.108	118.469	43	28
118.108	118.822	59	39
118.108	118.822	63	39
118.288	118.645	51	27
118.469	118.822	43	27
118.469	118.822	67	36
118.645	118.822	51	27
118.822	119.175	44	28
118.822	119.533	60	39
118.822	119.533	63	39
118.999	119.354	51	27
119.175	119.523	44	27
119.354	119.533	51	27
119.533	119.883	43	28
119.533	120.451	58	35
119.533	120.221	60	39
119.708	120.052	51	27
119.883	120.221	43	27
119.883	120.221	63	39
120.052	120.221	51	27
120.221	120.566	41	28
120.221	120.681	60	39
120.394	120.738	48	27
120.451	120.917	58	37
120.566	120.875	41	27
120.681	120.917	60	37
120.738	120.917	48	27
120.917	121.284	39	28
120.917	121.658	55	30
120.917	121.658	56	36
121.101	121.471	48	25
121.284	121.658	39	25
121.284	121.658	60	35
121.471	121.658	48	25
121.658	122.04	32	27
121.658	123.271	50	25
121.658	123.271	53	25
121.658	122.422	58	34
121.849	122.231	44	25
122.04	122.275	32	25
122.231	122.422	44	25
122.422	122.625	32	25
122.422	122.829	56	29
122.625	122.829	44	25
122.829	123.051	32	25
122.829	123.271	58	27
123.051	123.271	44	25
123.271	123.337	44	31
123.271	123.618	64	33
123.271	123.618	68	33
123.271	123.618	71	33
123.445	123.51	52	29
123.618	123.681	59	29
123.618	123.681	64	31
123.618	123.681	68	31
123.787	123.851	52	29
123.787	123.851	64	31
123.787	123.851	68	31
123.957	124.021	44	31
123.957	124.043	64	31
123.957	124.043	68	31
124.129	124.194	52	28
124.302	124.365	59	28
124.302	124.386	64	33
124.302	124.386	68	33
124.302	124.386	71	33
124.469	124.532	52	28
124.637	124.7	44	34
124.637	124.972	64	34
124.637	124.972	68	34
124.637	124.972	73	34
124.804	124.867	52	30
124.972	125.034	58	31
124.972	125.034	64	38
124.972	125.034	68	38
124.972	125.034	73	38
125.137	125.199	52	30
125.137	125.199	64	36
125.137	125.199	68	36
125.137	125.199	75	36
125.303	125.365	44	34
125.303	125.365	64	38
125.303	125.365	68	38
125.303	125.365	73	38
125.467	125.53	52	31
125.467	125.53	64	36
125.467	125.53	68	36
125.467	125.53	75	36
125.635	125.699	58	32
125.635	125.72	64	32
125.635	125.72	68	32
125.635	125.72	73	32
125.804	125.867	52	31
125.973	126.037	44	31
125.973	126.318	64	35
125.973	126.318	68	35
125.973	126.318	71	35
126.145	126.21	52	29
126.318	126.382	59	29
126.318	126.382	64	31
126.318	126.382	68	31
126.487	126.551	52	29
126.487	126.551	64	31
126.487	126.551	68	31
126.657	126.722	44	31
126.657	126.916	64	31
126.657	126.916	68	31
126.83	126.894	52	29
127.002	127.067	59	30
127.002	127.351	64	36
127.002	127.351	68	36
127.002	127.351	71	36
127.176	127.242	52	29
127.351	127.413	44	32
127.351	128.698	62	34
127.351	128.184	65	34
127.351	128.698	68	34
127.351	128.352	70	34
127.518	127.581	53	31
127.686	127.748	58	32
127.851	127.914	53	31
128.02	128.081	56	35
128.184	128.52	65	31
128.352	128.698	70	33
128.52	128.698	65	31
128.698	128.765	56	31
128.698	129.045	76	33
128.698	129.045	80	33
128.698	129.045	83	36
128.872	128.937	64	29
129.045	129.109	71	29
129.045	129.109	76	31
129.045	129.109	80	34
129.215	129.278	64	29
129.215	129.278	76	31
129.215	129.278	80	34
129.384	129.449	56	31
129.384	129.47	76	31
129.384	129.47	80	34
129.557	129.621	64	28
129.729	129.792	71	28
129.729	130.064	76	33
129.729	130.064	80	33
129.729	130.064	83	36
129.897	129.96	64	28
130.064	130.127	56	34
130.064	130.399	76	34
130.064	130.399	80	34
130.064	130.399	85	37
130.232	130.295	64	30
130.399	130.461	70	31
130.399	130.461	76	38
130.399	130.461	80	38
130.399	130.461	85	41
130.564	130.627	64	30
130.564	130.627	76	33
130.564	130.627	80	33
130.564	130.627	87	36
130.731	130.792	56	34
130.731	130.792	76	38
130.731	130.792	80	38
130.731	130.792	85	41
130.895	130.958	64	31
130.895	130.958	76	36
130.895	130.958	80	36
130.895	130.958	87	39
131.063	131.127	70	32
131.063	131.4	76	32
131.063	131.4	80	32
131.063	131.4	85	35
131.232	131.295	64	31
131.4	131.465	56	31
131.4	131.746	76	35
131.4	131.746	80	35
131.4	131.746	83	38
131.573	131.638	64	29
131.746	131.809	71	29
131.746	131.809	76	31
131.746	131.809	80	34
131.915	131.979	64	29
131.915	131.979	76	31
131.915	131.979	80	34
132.085	132.15	56	31
132.085	132.344	76	31
132.085	132.344	80	34
132.257	132.322	64	29
132.43	132.495	71	30
132.43	133.419	76	35
132.43	133.419	80	35
132.43	133.419	83	38
132.604	132.67	64	29
132.778	136.835	56	34
132.778	133.419	77	30
132.778	133.419	82	39
132.951	133.419	74	29
133.12	133.419	62	25
133.12	133.419	65	25
133.29	133.459	70	28
133.459	134.131	77	30
133.459	134.131	82	36
133.625	134.131	74	29
133.793	134.131	62	25
133.793	134.131	65	25
133.962	134.131	70	29
134.131	134.798	77	30
134.131	134.798	82	36
134.301	134.798	74	29
134.467	134.798	62	25
134.467	134.798	65	25
134.637	134.806	70	29
134.806	135.478	77	30
134.806	135.478	82	36
134.976	135.478	74	30
135.142	135.478	62	24
135.142	135.478	65	24
135.309	135.478	70	28
135.478	136.122	77	30
135.478	136.122	82	36
135.649	136.122	74	29
135.817	136.122	62	25
135.817	136.122	65	25
135.985	136.154	70	29
136.154	136.835	78	31
136.154	136.835	83	37
136.325	136.835	75	31
136.493	136.835	63	25
136.493	136.835	66	25
136.662	136.835	71	30
136.835	138.188	59	37
136.835	137.529	80	33
136.835	137.529	85	39
137.006	137.529	77	31
137.174	137.529	65	27
137.174	137.529	68	27
137.344	137.529	73	31
137.513	138.188	78	31
137.513	138.188	83	37
137.683	138.188	75	31
137.851	138.188	63	24
137.851	138.188	66	24
138.019	138.188	71	28
138.188	139.528	56	34
138.188	138.796	77	30
138.188	138.796	82	36
138.358	138.796	74	29
138.524	138.796	62	25
138.524	138.796	65	25
138.688	138.851	70	29
138.851	139.528	78	31
138.851	139.528	83	37
139.018	139.528	75	31
139.182	139.528	63	25
139.182	139.528	66	25
139.353	139.528	71	30
139.528	140.882	59	37
139.528	140.221	80	33
139.528	140.221	85	39
139.699	140.221	77	31
139.866	140.221	65	27
139.866	140.221	68	27
140.035	140.221	73	31
140.204	140.882	78	31
140.204	140.882	83	37
140.375	140.882	75	31
140.543	140.882	63	24
140.543	140.882	66	24
140.71	140.882	71	28
140.882	142.232	56	34
140.882	141.53	77	30
140.882	141.53	82	36
141.054	141.53	74	29
141.219	141.53	62	25
141.219	141.53	65	25
141.387	141.553	70	29
141.553	142.232	78	31
141.553	142.232	83	37
141.723	142.232	75	31
141.891	142.232	63	25
141.891	142.232	66	25
142.061	142.232	71	30
142.232	144.928	59	37
142.232	142.837	80	33
142.232	142.837	85	39
142.403	142.837	77	31
142.571	142.837	65	27
142.571	142.837	68	27
142.74	142.91	73	31
142.91	143.081	80	33
142.91	143.081	85	39
143.081	143.249	77	31
143.249	143.418	65	27
143.249	143.418	68	27
143.418	144.088	73	31
143.588	144.223	80	34
143.588	144.223	85	40
143.755	144.223	77	32
143.92	144.223	65	28
143.92	144.223	68	28
144.088	144.255	73	32
144.255	144.928	80	34
144.255	144.928	85	40
144.422	144.928	77	32
144.586	144.928	65	28
144.586	144.928	68	28
144.757	144.928	73	32
144.928	145.573	81	30
144.928	145.573	85	36
145.099	145.573	77	28
145.267	145.573	65	25
145.267	145.573	69	25
145.436	145.606	73	27
145.606	146.283	81	30
145.606	146.283	85	36
145.777	146.283	77	28
145.945	146.283	65	25
145.945	146.283	69	25
146.114	146.283	73	27
146.283	146.937	81	28
146.283	146.937	85	34
146.457	146.937	77	26
146.626	146.937	65	22
146.626	146.937	69	22
146.798	146.97	73	24
146.97	147.57	81	27
146.97	147.57	85	32
147.144	147.57	77	25
147.314	147.57	65	21
147.314	147.57	69	21
147.493	147.672	73	23
147.672	149.025	64	35
147.672	147.759	66	43
147.672	147.845	85	31
147.845	148.018	81	29
148.018	148.145	73	43
148.018	148.187	76	29
148.187	148.356	73	31
148.356	149.359	71	44
148.356	148.526	85	31
148.526	148.692	81	29
148.692	148.858	76	29
148.858	149.025	73	30
149.025	149.693	63	35
149.025	149.194	85	31
149.194	149.359	81	29
149.359	149.483	69	42
149.359	149.524	78	29
149.524	149.651	68	42
149.524	149.693	73	29
149.693	150.203	62	35
149.693	149.977	66	44
149.693	149.864	85	31
149.864	150.034	81	29
150.034	150.16	64	42
150.034	150.203	78	29
150.203	150.373	62	42
150.203	150.373	73	29
150.373	151.051	54	35
150.373	150.708	61	44
150.373	150.546	85	31
150.546	150.715	81	29
150.715	150.841	62	42
150.715	150.883	78	29
150.883	151.009	64	42
150.883	151.051	73	29
151.051	151.216	57	37
151.051	151.216	66	45
151.051	151.216	85	31
151.216	151.381	81	29
151.381	151.548	59	35
151.381	151.548	69	43
151.381	151.548	78	29
151.548	151.719	73	29
151.719	153.076	61	37
151.719	153.076	68	45
151.719	151.889	85	32
151.889	152.055	83	30
152.055	152.222	78	30
152.222	152.388	73	30
152.388	152.557	85	32
152.557	152.729	83	30
152.729	152.898	77	30
152.898	153.076	73	30
153.076	153.141	45	43
153.249	153.313	54	35
153.249	153.376	66	37
153.419	153.481	61	35
153.419	153.544	68	38
153.586	153.65	54	35
153.586	153.713	69	40
153.755	153.819	44	38
153.755	154.095	66	45
153.755	154.591	71	47
153.925	153.989	49	35
154.095	154.159	59	35
154.095	154.437	65	45
154.266	154.33	49	35
154.437	154.5	42	40
154.437	154.773	61	45
154.605	154.668	49	36
154.605	154.773	69	46
154.773	154.835	57	37
154.773	154.939	71	47
154.939	155.003	49	38
154.939	155.11	73	47
155.11	155.174	47	43
155.11	155.45	69	52
155.11	155.949	74	52
155.28	155.344	52	42
155.45	155.514	62	42
155.45	155.792	68	47
155.621	155.685	52	42
155.792	155.856	45	45
155.792	156.516	64	48
155.963	156.516	52	44
155.963	156.516	73	51
156.137	156.516	57	45
156.137	156.491	74	53
156.309	156.516	61	45
156.309	156.516	76	56
156.491	156.555	50	46
156.491	157.852	74	55
156.491	157.852	78	55
156.662	156.726	57	39
156.832	156.895	62	38
157.001	157.065	66	38
157.171	157.235	57	42
157.343	157.407	62	37
157.513	157.577	66	37
157.682	157.767	69	37
157.852	158.785	66	56
158.021	158.106	62	37
158.191	158.276	61	36
158.36	158.445	59	36
158.53	158.594	57	46
158.7	158.764	61	36
158.87	158.935	57	41
158.87	158.957	73	53
159.044	159.11	54	36
159.219	159.283	56	46
159.219	160.235	71	56
159.391	159.454	59	36
159.559	159.622	64	42
159.727	159.791	54	36
159.896	159.96	52	46
160.067	160.13	59	35
160.235	160.297	64	39
160.235	160.359	69	54
160.401	160.464	59	34
160.401	160.527	68	54
160.569	160.633	47	43
160.569	160.853	66	56
160.74	160.804	56	34
160.909	160.972	62	36
160.909	161.035	64	54
161.076	161.14	52	33
161.076	161.204	62	53
161.246	161.311	45	41
161.246	161.588	61	56
161.419	161.482	52	33
161.588	161.651	57	37
161.588	161.755	62	53
161.755	161.819	52	34
161.755	161.924	64	53
161.924	161.988	50	43
161.924	162.262	66	57
162.094	162.157	57	34
162.262	162.325	62	39
162.262	162.605	69	55
162.431	162.496	49	35
162.605	162.669	48	46
162.605	164.611	66	57
162.605	164.611	68	57
162.776	162.839	56	36
162.944	163.006	63	41
163.11	163.172	56	36
163.276	163.34	48	43
163.446	163.509	56	34
163.614	163.676	63	40
163.779	163.841	56	35
163.945	164.008	48	46
164.114	164.176	56	36
164.28	164.342	63	41
164.446	164.508	56	36
164.611	164.967	49	46
164.611	164.967	66	56
164.611	164.967	69	56
164.78	164.967	57	42
164.947	165.011	64	46
164.947	165.032	76	55
164.947	165.032	80	55
165.118	165.183	57	44
165.29	165.354	48	46
165.29	165.626	66	54
165.29	165.626	68	54
165.459	165.522	56	36
165.626	165.689	63	41
165.793	165.856	56	36
165.96	166.291	47	46
165.96	166.295	62	49
165.96	166.295	66	49
166.129	166.291	52	42
166.295	166.36	56	46
166.295	166.36	62	46
166.295	166.381	73	52
166.295	166.381	76	52
166.467	166.532	52	44
166.639	166.703	45	46
166.639	166.975	61	50
166.639	166.975	64	50
166.808	166.871	52	39
166.975	167.038	57	43
167.142	167.205	52	40
167.309	167.667	42	46
167.309	167.667	59	55
167.309	167.667	63	55
167.478	167.667	47	42
167.644	167.709	57	46
167.644	167.752	69	58
167.644	167.752	73	58
167.816	167.881	47	44
167.988	168.051	37	55
167.988	169.998	56	58
167.988	169.998	61	58
168.157	168.22	44	48
168.324	168.387	53	51
168.491	168.554	44	48
168.658	168.721	37	55
168.827	168.89	44	48
168.994	169.056	53	51
169.161	169.223	44	48
169.329	169.393	37	55
169.5	169.564	44	48
169.67	169.735	53	51
169.841	169.906	44	48
170.012	170.353	37	46
170.012	170.353	55	47
170.012	170.353	59	47
170.181	170.353	45	42
170.348	170.412	52	46
170.348	170.455	67	51
170.348	170.455	71	51
170.519	170.584	45	44
170.691	170.755	37	48
170.691	172.688	56	50
170.691	172.688	61	50
170.861	170.923	44	40
171.027	171.09	53	43
171.194	171.257	44	39
171.361	171.425	37	45
171.53	171.593	44	38
171.697	171.76	53	41
171.864	171.927	44	37
172.032	172.095	37	43
172.201	172.263	44	37
172.368	172.43	53	39
172.535	172.597	44	36
172.702	173.1	37	39
172.702	173.1	55	38
172.702	173.1	59	38
172.893	173.1	45	35
173.085	173.162	52	39
173.085	173.393	67	39
173.085	173.393	71	39
173.29	173.368	45	37
173.496	173.67	38	28
173.496	173.728	54	39
173.496	173.728	57	39
173.67	173.843	45	27
173.728	173.958	54	38
173.843	174.016	50	27
173.958	174.189	54	38
174.016	174.189	45	27
174.189	174.363	38	28
174.189	174.538	54	41
174.363	174.538	45	26
174.538	174.713	50	26
174.538	174.888	54	38
174.538	174.888	57	38
174.713	174.888	45	26
174.888	175.063	38	28
174.888	175.12	54	39
174.888	175.12	59	39
175.063	175.236	44	25
175.12	175.351	54	39
175.12	175.351	59	39
175.236	175.409	50	25
175.351	175.582	54	39
175.351	175.582	59	39
175.409	175.582	44	25
175.582	175.757	38	28
175.582	175.814	54	39
175.582	175.814	59	39
175.757	175.929	44	25
175.814	176.044	54	38
175.814	176.044	61	38
175.929	176.101	50	25
176.044	176.274	54	38
176.044	176.274	59	38
176.101	176.274	44	25
176.274	176.448	38	28
176.274	176.505	54	39
176.274	176.505	57	39
176.448	176.62	45	27
176.505	176.734	54	38
176.62	176.791	50	27
176.734	176.962	54	38
176.791	176.962	45	27
176.962	177.137	38	28
176.962	177.311	54	39
177.137	177.311	45	25
177.311	177.487	50	25
177.311	177.663	54	39
177.311	177.663	57	39
177.487	177.663	45	25
177.663	177.837	38	37
177.663	178.179	54	39
177.663	178.349	56	39
177.837	178.008	47	33
178.008	178.179	50	33
178.179	179.03	54	33
178.349	179.03	56	33
178.52	178.69	59	33
178.69	178.86	62	35
178.86	179.03	66	35
179.03	179.204	38	28
179.03	179.262	62	36
179.03	179.262	66	36
179.03	179.262	69	36
179.204	179.377	45	27
179.262	179.492	62	35
179.262	179.492	66	35
179.377	179.55	50	27
179.492	179.723	62	35
179.492	179.723	66	35
179.55	179.723	54	27
179.723	179.897	57	28
179.723	180.072	62	38
179.723	180.072	66	38
179.897	180.072	54	26
180.072	180.247	50	26
180.072	180.422	62	35
180.072	180.422	66	35
180.072	180.422	69	35
180.247	180.422	45	26
180.422	180.595	38	28
180.422	180.651	62	36
180.422	180.651	66	36
180.422	180.651	71	36
180.595	180.765	44	25
180.651	180.878	62	36
180.651	180.878	66	36
180.651	180.878	71	36
180.765	180.935	50	25
180.878	181.105	62	36
180.878	181.105	66	36
180.878	181.105	71	36
180.935	181.105	54	25
181.105	181.279	56	28
181.105	181.336	62	36
181.105	181.336	66	36
181.105	181.336	71	36
181.279	181.451	54	25
181.336	181.566	64	35
181.336	181.566	66	35
181.336	181.566	73	35
181.451	181.623	50	25
181.566	181.793	62	35
181.566	181.793	66	35
181.566	181.793	71	35
181.623	181.793	44	25
181.793	181.968	38	28
181.793	182.025	62	36
181.793	182.025	66	36
181.793	182.025	69	36
181.968	182.14	45	27
182.025	182.256	62	36
182.025	182.256	66	35
182.14	182.313	50	27
182.256	182.486	62	36
182.256	182.486	66	35
182.313	182.486	54	27
182.486	182.668	57	28
182.486	182.85	62	36
182.486	182.85	66	36
182.668	182.85	54	25
182.85	183.045	50	25
182.85	183.239	61	36
182.85	183.239	62	36
182.85	183.239	66	36
182.85	183.239	69	36
183.045	183.239	45	25
183.239	183.415	40	37
183.239	184.449	59	39
183.239	184.621	62	39
183.239	184.621	66	39
183.239	184.621	68	39
183.415	183.588	47	33
183.588	183.76	52	33
183.76	183.933	54	33
183.933	184.106	56	36
184.106	184.278	54	33
184.278	184.449	56	33
184.449	184.621	59	33
184.621	184.96	62	38
184.79	184.96	59	33
184.96	185.129	62	36
185.129	185.299	64	36
185.299	185.469	66	36
185.469	185.637	68	35
185.637	185.802	71	35
185.802	186.136	74	36
185.968	186.629	78	43
186.136	186.629	74	39
186.302	186.629	71	39
186.467	187.951	66	36
186.629	187.951	68	36
186.796	186.961	71	36
186.961	187.125	74	36
187.125	187.951	76	36
187.289	187.951	78	43
187.457	187.951	74	39
187.623	187.951	71	39
187.788	189.26	64	35
187.951	189.26	68	35
188.118	188.283	71	35
188.283	188.445	74	35
188.445	189.26	76	35
188.606	189.26	78	41
188.771	189.26	74	37
188.935	189.26	71	36
189.098	190.58	66	33
189.26	190.58	68	33
189.427	189.592	71	32
189.592	189.756	74	32
189.756	190.58	76	31
189.92	190.58	78	37
190.088	190.58	74	34
190.253	190.58	71	33
190.417	191.983	64	30
190.58	191.983	68	30
190.749	190.923	71	30
190.923	191.103	74	29
191.103	191.983	76	28
191.287	191.983	78	47
191.469	191.983	54	27
191.65	191.983	61	27
191.65	191.983	66	27
191.65	192.0	85	47
191.825	192.0	69	27
192.0	192.716	78	36
192.0	192.716	81	36
192.0	192.716	84	49
192.182	192.716	57	27
192.358	192.716	62	27
192.358	192.716	66	27
192.534	192.716	72	27
192.716	193.398	85	47
192.896	193.398	61	27
193.076	193.398	66	27
193.076	193.432	78	36
193.076	193.432	81	36
193.076	193.432	88	47
193.254	193.432	76	27
193.432	194.16	87	49
193.617	194.16	59	23
193.677	194.16	78	36
193.677	194.16	83	45
193.797	194.16	66	20
193.917	194.16	81	44
193.977	194.16	75	21
194.16	194.865	78	47
194.343	194.865	54	27
194.527	194.865	61	27
194.527	194.865	66	27
194.527	194.882	85	47
194.704	194.882	69	27
194.882	195.6	78	36
194.882	195.6	81	36
194.882	195.6	84	49
195.064	195.6	57	27
195.241	195.6	62	27
195.241	195.6	66	27
195.418	195.6	72	27
195.6	196.356	85	47
195.779	196.356	61	27
195.957	196.356	66	27
195.957	196.356	78	31
195.957	196.356	81	31
195.957	196.356	88	47
196.138	196.356	76	27
196.319	197.072	87	49
196.51	197.072	59	23
196.572	197.072	78	36
196.572	197.072	83	45
196.697	197.072	66	20
196.821	197.072	81	44
196.883	197.072	75	20
197.072	197.785	73	45
197.257	197.785	49	24
197.443	197.785	54	21
197.443	197.831	66	22
197.443	197.831	69	22
197.443	197.831	76	45
197.637	197.831	64	21
197.831	198.512	75	48
198.023	198.512	47	24
198.086	198.512	66	33
198.086	198.512	71	44
198.213	198.512	54	25
198.339	198.611	69	42
198.402	198.611	63	24
198.611	198.809	45	34
198.611	200.035	73	40
198.809	198.986	51	31
198.986	199.161	54	31
199.161	199.336	57	30
199.336	199.514	61	35
199.514	199.689	63	32
199.689	199.862	66	32
199.862	200.035	69	32
200.035	200.21	73	33
200.21	200.383	75	31
200.383	200.555	78	30
200.555	200.727	81	30
200.727	200.902	85	33
200.902	201.072	87	32
201.072	201.251	90	32
201.251	201.437	93	31
201.437	201.623	44	32
201.437	202.847	95	36
201.437	202.847	97	36
201.623	201.8	53	30
201.8	201.975	56	30
201.975	202.15	59	30
202.15	202.329	61	34
202.15	202.329	65	32
202.329	202.504	68	32
202.504	202.675	71	32
202.675	202.847	73	32
202.847	203.022	77	33
203.022	203.195	80	31
203.195	203.367	83	30
203.367	203.539	85	30
203.539	203.714	89	31
203.714	203.893	92	30
203.893	204.075	95	29
204.075	204.261	97	28
204.261	204.99	30	30
204.261	204.99	37	30
204.261	204.99	42	30
204.261	204.444	97	32
204.261	204.444	102	32
204.444	204.625	90	32
204.625	204.806	97	32
204.625	204.806	102	32
204.806	204.99	90	32
204.99	205.691	37	30
204.99	205.691	42	30
204.99	205.691	49	30
204.99	205.167	90	30
204.99	205.167	97	30
205.167	205.341	85	30
205.341	205.515	90	30
205.341	205.515	97	30
205.515	205.691	85	30
205.691	207.084	35	30
205.691	207.084	42	30
205.691	207.084	47	30
205.691	205.867	90	32
205.691	205.867	99	32
205.867	206.04	87	32
206.04	206.214	90	32
206.04	206.214	99	32
206.214	206.387	87	32
206.387	206.563	90	30
206.387	206.563	95	30
206.563	206.736	83	30
206.736	206.909	90	30
206.736	206.909	95	30
206.909	207.084	83	30
207.084	207.785	30	30
207.084	207.785	37	30
207.084	207.785	42	30
207.084	207.262	85	32
207.084	207.262	90	32
207.262	207.436	78	32
207.436	207.61	85	32
207.436	207.61	90	32
207.61	207.785	78	32
207.785	208.478	37	30
207.785	208.478	42	30
207.785	208.478	49	30
207.785	207.957	78	30
207.785	207.957	85	30
207.957	208.13	73	30
208.13	208.303	78	30
208.13	208.303	85	30
208.303	208.478	73	30
208.478	209.853	35	30
208.478	209.853	42	30
208.478	209.853	47	30
208.478	208.652	78	32
208.478	208.652	87	32
208.652	208.823	75	32
208.823	208.995	78	32
208.823	208.995	87	32
208.995	209.165	75	32
209.165	209.337	78	29
209.165	209.337	83	29
209.337	209.507	71	29
209.507	209.678	78	29
209.507	209.678	83	29
209.678	209.853	71	29
209.853	210.545	30	30
209.853	210.545	37	30
209.853	210.545	42	30
209.853	210.027	73	30
209.853	210.027	78	30
210.027	210.199	66	30
210.199	210.371	73	30
210.199	210.371	78	30
210.371	210.545	66	30
210.545	211.259	37	30
210.545	211.259	42	30
210.545	211.259	49	30
210.545	210.719	66	28
210.545	210.719	73	28
210.719	210.898	61	28
210.898	211.076	66	28
210.898	211.076	73	28
211.076	211.259	61	28
211.259	212.023	35	30
211.259	212.293	63	30
211.259	212.463	66	30
211.259	212.804	75	30
211.432	212.023	42	30
211.604	212.023	47	30
211.777	212.023	51	30
211.949	213.402	54	30
212.122	213.402	59	30
212.293	213.402	63	30
212.463	213.402	66	30
212.633	213.402	71	30
212.804	213.402	75	30
212.973	213.402	78	30
213.14	213.402	83	30
213.307	213.99	87	29
213.474	213.99	90	29
213.642	213.99	95	28
213.811	213.99	99	28
213.99	214.224	30	27
213.99	214.224	37	27
213.99	214.224	42	27
213.99	214.224	90	27
213.99	214.224	97	27
213.99	214.224	102	27
215.373	215.559	42	23
215.373	215.559	49	23
215.373	215.559	57	23
215.373	215.559	66	24
215.373	215.559	73	24
215.373	215.559	78	24
216.781	216.977	30	25
216.781	216.977	42	25
216.781	216.977	78	26
216.781	216.977	90	26
