OnsetTime	OffsetTime	MidiPitch	Velocity
0.500004	1.09713	57	44
0.500004	1.09713	61	77
0.583341	1.09713	73	53
0.611115	1.09713	49	37
0.666368	1.09713	68	61
0.721461	1.09713	54	39
0.748927	1.09713	71	51
0.83119	1.7676	42	34
0.83119	1.09713	69	55
0.913011	1.09713	66	46
0.994537	1.7676	62	59
1.07562	1.7676	74	48
1.15626	1.7676	57	47
1.15626	1.7676	61	73
1.23647	1.7676	73	50
1.26321	1.7676	49	40
1.3164	1.55395	68	63
1.36946	1.7676	54	44
1.39592	1.7676	71	53
1.47515	1.78832	45	37
1.47515	1.7676	69	57
1.55395	1.7676	68	44
1.63249	1.78832	66	74
1.71061	1.78832	78	53
1.78832	2.35253	62	57
1.78832	2.35253	66	89
1.86524	2.35253	78	53
1.89088	2.35253	56	49
1.9423	2.35253	70	64
1.99385	2.35253	59	52
2.01962	2.35253	73	52
2.09721	3.01122	50	45
2.09721	2.35253	71	58
2.17506	2.35253	68	46
2.25318	3.01122	65	62
2.33158	3.01122	77	50
2.4104	3.01122	61	53
2.4104	3.01122	69	82
2.48948	3.01122	81	45
2.51594	3.01122	53	42
2.56899	3.01122	72	60
2.62218	3.01122	59	50
2.64892	3.01122	74	45
2.72928	3.05422	49	39
2.72928	3.01122	73	52
2.81007	3.01122	71	44
2.8913	3.05422	68	52
2.97298	3.05422	80	48
3.05422	3.64038	57	53
3.05422	3.64038	61	80
3.13402	3.64038	73	56
3.16061	3.64038	49	39
3.2138	3.64038	68	65
3.2667	3.64038	54	48
3.29316	3.64038	71	44
3.37253	3.6875	42	36
3.37253	3.64038	69	56
3.45148	3.64038	66	45
3.53043	3.6875	62	52
3.60897	3.6875	74	48
3.6875	4.27689	57	51
3.6875	4.27689	61	75
3.76562	4.27689	73	53
3.79167	4.27689	49	38
3.84376	4.0765	68	65
3.89556	4.27689	54	46
3.92147	4.27689	71	52
3.99919	4.87619	45	36
3.99919	4.27689	69	59
4.0765	4.27689	68	52
4.15382	4.30767	66	73
4.23074	4.38407	78	52
4.30767	4.87619	62	57
4.30767	4.87619	66	83
4.38407	4.87619	78	60
4.40946	4.87619	56	45
4.46022	4.87619	70	69
4.51112	4.87619	59	51
4.53662	4.87619	73	48
4.61328	5.41261	50	41
4.61328	4.87619	71	62
4.69021	4.87619	68	46
4.76752	5.41261	65	73
4.84511	5.41261	77	55
4.92296	5.41261	61	50
4.92296	5.41261	69	83
5.00108	5.41261	81	55
5.02725	5.41261	53	41
5.07961	5.41261	72	65
5.1321	5.41261	59	44
5.15841	5.41261	74	53
5.2375	6.11236	49	37
5.2375	5.41261	73	60
5.31687	5.41261	71	46
5.39665	6.11236	68	55
5.47673	5.70839	80	52
5.55545	6.11236	69	57
5.55545	6.11236	73	83
5.63192	6.11236	85	55
5.65741	6.11236	63	46
5.70839	6.11236	80	63
5.75911	6.11236	66	55
5.78447	6.11236	83	53
5.86055	6.71335	57	49
5.86055	6.11236	81	62
5.93624	6.11236	78	53
6.01193	6.71335	75	62
6.08725	6.71335	87	57
6.16257	6.71335	68	57
6.16257	6.71335	73	80
6.23751	6.71335	85	51
6.26249	6.71335	63	50
6.31245	6.71335	77	60
6.36216	6.71335	66	57
6.38701	6.71335	80	52
6.46158	7.31739	56	46
6.46158	6.71335	78	59
6.53578	6.71335	74	48
6.60999	7.31739	72	60
6.68381	7.31739	84	55
6.75764	7.31739	67	59
6.75764	7.31739	71	77
6.83091	7.31739	83	46
6.8553	7.31739	61	49
6.90432	7.31739	78	60
6.95346	7.31739	64	57
6.97809	7.31739	81	47
7.05223	7.87366	55	44
7.05223	7.31739	79	56
7.12673	7.31739	76	47
7.2016	7.73778	73	57
7.27699	7.87366	85	55
7.35274	7.87366	66	57
7.35274	7.87366	71	73
7.42889	7.87366	83	45
7.4544	7.87366	61	47
7.50542	7.87366	75	51
7.5567	7.87366	64	53
7.58248	7.87366	78	45
7.65992	7.97326	54	46
7.65992	7.87366	76	52
7.73778	7.87366	73	47
7.81604	7.97326	70	57
7.89471	7.97326	82	50
7.97326	8.49026	65	58
7.97326	8.49026	69	75
8.05306	8.49026	81	51
8.07965	8.49026	60	49
8.13284	8.49026	74	60
8.18603	8.49026	63	55
8.21262	8.49026	77	44
8.2924	8.9358	53	45
8.2924	8.49026	75	51
8.37261	8.49026	72	44
8.45283	9.01688	71	59
8.53304	9.21688	83	48
8.61324	9.21688	65	55
8.61324	9.21688	69	73
8.69388	9.21688	81	45
8.72075	9.21688	59	48
8.77452	9.21688	73	50
8.82828	9.21688	62	52
8.85516	9.21688	76	42
8.9358	9.89367	53	46
8.9358	9.21688	74	48
9.01688	9.21688	71	42
9.09797	9.67921	68	59
9.17905	9.89367	80	47
9.25998	9.89367	62	57
9.25998	9.89367	66	74
9.34107	9.89367	78	42
9.36839	9.89367	56	51
9.42348	9.89367	70	48
9.47919	9.89367	59	53
9.50728	9.89367	73	42
9.59251	9.94874	50	48
9.59251	9.89367	71	47
9.67921	9.89367	68	38
9.76744	9.94874	65	57
9.85727	9.94874	77	45
9.94874	10.5914	59	58
9.94874	10.5914	62	72
10.0419	10.5914	74	37
10.0734	10.5914	49	46
10.1368	10.5914	67	47
10.2011	10.5914	53	51
10.2336	10.5914	69	37
10.3323	11.3027	37	42
10.3323	10.5914	68	46
10.433	10.5914	65	36
10.5357	10.7456	61	63
10.6406	10.8195	73	42
10.7456	11.3027	57	56
10.7456	11.3027	61	84
10.8195	11.3027	73	54
10.844	11.3027	49	44
10.893	11.3027	68	62
10.9418	11.3027	54	50
10.9662	11.3027	71	46
11.039	11.3264	42	38
11.039	11.3027	69	53
11.1114	11.3027	66	37
11.1835	11.3264	62	63
11.2551	11.3264	74	40
11.3264	11.8709	57	59
11.3264	11.8709	61	75
11.3974	11.8709	73	46
11.421	11.8709	49	49
11.468	11.6778	68	57
11.515	11.8709	54	53
11.5384	11.8709	71	38
11.6082	11.8846	45	45
11.6082	11.8709	69	47
11.6778	11.8709	68	38
11.747	11.8846	66	71
11.8159	11.8846	78	46
11.8846	12.438	62	60
11.8846	12.438	66	84
11.9538	12.438	78	55
11.9769	12.438	56	49
12.0235	12.438	70	64
12.0705	12.438	59	55
12.0941	12.438	73	44
12.1653	12.4579	50	44
12.1653	12.438	71	51
12.2373	12.438	68	42
12.3101	12.4579	65	59
12.3836	12.4579	77	48
12.4579	13.0396	61	56
12.4579	13.0396	69	77
12.533	13.0396	81	49
12.5583	13.0396	53	39
12.6089	13.0396	72	56
12.66	13.0396	59	48
12.6857	13.0396	74	44
12.7634	13.1763	49	37
12.7634	13.0396	73	48
12.8419	13.0396	71	38
12.9213	13.2235	68	56
13.0017	13.6182	80	45
13.083	13.6182	57	58
13.083	13.6182	61	81
13.1527	13.6182	73	52
13.1763	13.6182	49	40
13.2235	13.6182	68	59
13.2704	13.6182	54	50
13.2939	13.6182	71	37
13.364	13.6411	42	40
13.364	13.6182	69	53
13.4337	13.6182	66	40
13.5032	13.6411	62	58
13.5723	13.6411	74	45
13.6411	14.1628	57	57
13.6411	14.1628	61	75
13.7096	14.1628	73	42
13.7323	14.1628	49	40
13.7778	13.9805	68	48
13.823	14.1628	54	48
13.8457	14.1628	71	42
13.9132	14.1804	45	39
13.9132	14.1628	69	48
13.9805	14.1628	68	42
14.0474	14.1804	66	71
14.1141	14.1804	81	48
14.1804	14.7295	65	60
14.1804	14.7295	69	85
14.2465	14.7295	81	50
14.2687	14.7295	59	42
14.3134	14.7295	73	59
14.3588	14.7295	62	49
14.3816	14.7295	76	46
14.4507	14.7394	53	41
14.4507	14.7295	74	51
14.5212	14.7295	71	42
14.5926	14.7394	68	58
14.6654	14.7394	80	48
14.7394	15.3084	64	58
14.7394	15.3084	73	83
14.8148	15.3084	85	46
14.8402	15.3084	56	44
14.8915	15.3084	75	55
14.9434	15.3084	62	50
14.9696	15.3084	78	47
15.0491	15.9307	52	42
15.0491	15.3084	76	55
15.1302	15.3084	74	47
15.2128	15.9307	71	66
15.2971	15.527	83	51
15.3809	15.9307	72	58
15.3809	15.9307	76	79
15.4541	15.9307	88	56
15.4785	15.9307	66	46
15.527	15.9307	83	62
15.5756	15.9307	69	50
15.5997	15.9307	86	47
15.6722	15.9593	60	42
15.6722	15.9307	84	55
15.7443	15.9307	81	47
15.8162	15.9593	78	59
15.8878	15.9593	90	51
15.9593	16.5028	71	59
15.9593	16.5028	76	75
16.0304	16.5028	88	51
16.0541	16.5028	66	46
16.1012	16.5028	80	57
16.1484	16.5028	69	50
16.1719	16.5028	83	44
16.2423	16.5212	59	41
16.2423	16.5028	81	52
16.3124	16.5028	78	46
16.3822	16.5212	75	60
16.4519	16.5212	87	50
16.5212	17.0606	70	57
16.5212	17.0606	74	75
16.5908	17.0606	86	44
16.614	17.0606	65	46
16.6606	17.0606	79	53
16.7073	17.0606	68	51
16.7306	17.0606	82	48
16.801	17.0844	58	44
16.801	17.0606	80	50
16.8715	17.0606	77	47
16.9422	17.0844	76	55
17.0132	17.0844	88	47
17.0844	17.6044	69	57
17.0844	17.6044	74	73
17.1558	17.6044	86	42
17.1798	17.6044	64	45
17.2276	17.6044	78	47
17.2756	17.6044	67	51
17.2996	17.6044	81	42
17.3717	18.2484	57	40
17.3717	17.6044	79	47
17.4442	17.6044	76	40
17.5169	18.2484	73	55
17.5898	18.2484	85	45
17.663	18.2484	68	52
17.663	18.2484	72	76
17.7365	18.2484	84	44
17.761	18.2484	63	46
17.8108	18.2484	77	52
17.8613	18.2484	66	51
17.8866	18.2484	80	42
17.9626	18.269	56	42
17.9626	18.2484	78	48
18.0387	18.2484	75	40
18.1153	18.269	74	55
18.1919	18.269	86	40
18.269	18.8899	67	55
18.269	18.8899	72	48
18.3464	18.8899	84	42
18.3723	18.8899	62	45
18.4243	18.8899	76	47
18.4764	18.8899	65	49
18.5025	18.8899	79	40
18.5812	18.9007	55	40
18.5812	18.8899	77	47
18.6604	18.8899	74	40
18.7401	18.9007	71	47
18.8202	18.9007	83	40
18.9007	19.5609	67	55
18.9007	19.5609	71	73
18.9821	19.5609	83	37
19.0096	19.5609	61	42
19.065	19.5609	75	46
19.1212	19.5609	64	49
19.1496	19.5609	78	36
19.235	19.5844	55	42
19.235	19.5609	76	45
19.3213	19.5609	73	37
19.4085	19.5844	70	53
19.4961	19.5844	82	42
19.5844	20.247	66	53
19.5844	20.131	70	67
19.6727	20.2275	82	37
19.7024	20.247	61	40
19.762	20.247	75	44
19.8219	20.247	64	47
19.852	20.247	78	37
19.9431	20.8018	54	40
19.9431	20.247	76	44
20.0363	20.247	73	37
20.131	20.326	70	58
20.2275	20.8018	82	42
20.326	20.8018	65	52
20.326	20.8018	70	81
20.3872	20.8018	83	54
20.4076	20.8018	58	40
20.4484	20.8018	76	59
20.4893	20.8018	62	49
20.5098	20.8018	79	38
20.5713	20.8184	53	39
20.5713	20.8018	77	54
20.6328	20.8018	74	44
20.6946	20.8184	69	58
20.7564	20.8184	81	44
20.8184	21.3014	65	51
20.8184	21.3014	69	78
20.8803	21.3014	81	46
20.9011	21.3014	59	41
20.9426	21.3014	73	56
20.9841	21.3014	62	48
21.0048	21.3014	76	37
21.0673	21.3182	53	41
21.0673	21.3014	74	50
21.1298	21.3014	71	44
21.1925	21.3182	68	58
21.2552	21.3182	80	44
21.3182	21.8087	65	53
21.3182	21.8087	68	83
21.3812	21.8087	80	38
21.4022	21.8087	55	42
21.4443	21.8087	73	50
21.4865	21.8087	59	49
21.5076	21.8087	75	38
21.571	21.8258	53	41
21.571	21.8087	74	45
21.6346	21.8087	71	40
21.6981	21.8258	67	62
21.7619	21.8258	79	46
21.8258	22.3241	63	53
21.8258	22.3241	67	80
21.8941	22.3241	79	42
21.9175	22.3241	55	45
21.9645	22.1758	74	46
22.0114	22.3241	60	50
22.0349	22.3241	76	42
22.1053	22.6476	53	41
22.1053	22.3241	75	47
22.1758	22.3241	74	46
22.2457	22.3843	72	62
22.3149	22.4519	84	46
22.3843	22.8984	67	56
22.3843	22.8984	72	85
22.4519	22.8984	84	53
22.4735	22.8984	60	46
22.5169	22.8984	78	61
22.5604	22.8984	63	50
22.5821	22.8984	80	42
22.6476	22.9117	53	40
22.6476	22.8984	79	48
22.7133	22.8984	75	44
22.7792	22.9117	71	66
22.8453	22.9117	83	48
22.9117	23.4326	67	55
22.9117	23.4326	71	82
22.978	23.4326	83	51
23.0002	23.4326	61	45
23.0446	23.4326	75	62
23.0892	23.4326	64	51
23.1115	23.4326	78	45
23.1786	23.451	53	39
23.1786	23.4326	76	52
23.2462	23.4326	73	45
23.3141	23.451	70	61
23.3824	23.451	82	50
23.451	23.9885	67	55
23.451	23.9885	70	84
23.5199	23.9885	82	46
23.5429	23.9885	57	48
23.5891	23.9885	75	55
23.6355	23.9885	61	52
23.6587	23.9885	77	48
23.7287	24.0124	53	40
23.7287	23.9885	76	55
23.799	23.9885	73	47
23.8698	24.0124	69	62
23.9409	24.0124	81	51
24.0124	24.6467	65	56
24.0124	24.6467	69	82
24.097	24.6467	81	47
24.1262	24.6467	57	50
24.1847	24.4478	76	59
24.2432	24.6467	62	52
24.2724	24.6467	79	50
24.3601	25.012	53	47
24.3601	24.6467	77	56
24.4478	24.6467	76	48
24.5356	24.711	74	70
24.6233	24.7864	86	52
24.711	25.2678	65	61
24.711	25.2678	74	90
24.7864	25.2678	86	58
24.8115	25.2678	57	51
24.8618	25.2678	76	68
24.912	25.2678	63	57
24.937	25.2678	79	47
25.012	25.313	53	48
25.012	25.2678	77	56
25.087	25.2678	75	47
25.1623	25.313	72	70
25.2376	25.313	84	55
25.313	25.8967	62	62
25.313	25.8967	72	83
25.3888	25.8967	84	55
25.414	25.8967	53	49
25.4645	25.8967	76	66
25.515	25.8967	58	57
25.5404	25.8967	79	50
25.6166	25.9222	46	47
25.6166	25.8967	77	56
25.6927	25.8967	74	47
25.7691	25.9222	70	66
25.8457	25.9222	82	55
25.9222	26.5263	62	58
25.9222	26.5263	70	93
25.9988	26.5263	82	50
26.0245	26.5263	54	51
26.0759	26.5263	73	60
26.1275	26.5263	60	58
26.1534	26.5263	75	48
26.2314	26.5476	50	49
26.2314	26.5263	74	57
26.3098	26.5263	72	46
26.3886	26.5476	69	70
26.4678	26.5476	81	55
26.5476	27.1473	58	61
26.5476	27.1473	69	88
26.6278	27.1473	81	50
26.6547	27.1473	50	50
26.7086	27.1473	73	59
26.7626	27.1473	55	56
26.7898	27.1473	75	50
26.8715	27.713	43	45
26.8715	27.1473	74	60
26.9536	27.1473	71	50
27.0363	27.1971	67	72
27.1195	27.2638	79	57
27.1971	27.713	58	62
27.1971	27.713	67	93
27.2638	27.713	79	51
27.286	27.713	50	56
27.3305	27.713	69	68
27.3749	27.713	56	63
27.3971	27.713	72	51
27.4638	27.7319	46	53
27.4638	27.713	70	60
27.5305	27.713	68	51
27.5971	27.7319	65	77
27.6638	27.7319	77	59
27.7319	28.258	58	62
27.7319	28.258	64	90
27.803	28.258	76	50
27.8267	28.258	50	58
27.8741	28.258	69	67
27.9215	28.258	56	63
27.9452	28.258	72	52
28.0163	28.3012	46	56
28.0163	28.258	70	61
28.0874	28.258	68	52
28.1585	28.3012	65	78
28.2296	28.3012	77	60
28.3012	28.8625	56	64
28.3012	28.7368	65	97
28.3721	28.8119	77	55
28.3959	28.8625	46	58
28.4436	28.8625	69	62
28.4917	28.8625	50	64
28.5159	28.8625	71	52
28.5888	28.8878	39	58
28.5888	28.8625	70	63
28.6624	28.8625	68	52
28.7368	28.8878	65	78
28.8119	28.8878	77	61
28.8878	29.4486	54	67
28.8878	29.347	66	93
28.9644	29.4272	78	56
28.9899	29.4486	46	60
29.0409	29.4486	74	64
29.0919	29.4486	51	63
29.1174	29.4486	77	57
29.194	30.0555	39	57
29.194	29.4486	75	64
29.2705	29.4486	70	55
29.347	29.5075	66	77
29.4272	29.5796	78	62
29.5075	30.0555	56	65
29.5075	29.868	66	99
29.5796	30.0555	78	62
29.6036	30.0555	44	56
29.6517	30.0555	67	79
29.6998	30.0555	49	64
29.7238	30.0555	70	66
29.7959	30.0843	40	56
29.7959	30.0555	68	73
29.868	30.0555	66	71
29.9401	30.0843	64	78
30.0122	30.0843	76	64
30.0843	30.517	56	65
30.0843	30.4449	64	93
30.1565	30.618	76	59
30.1805	30.618	44	63
30.2286	30.618	67	66
30.2766	30.618	49	66
30.3007	30.618	70	61
30.3728	30.6615	40	60
30.3728	30.5891	68	70
30.4449	30.618	64	62
30.517	30.6615	56	78
30.5891	30.6615	68	64
30.6615	31.1863	54	69
30.6615	31.0983	59	94
30.734	31.1716	71	61
30.7581	31.1863	47	63
30.8064	31.1863	65	66
30.855	31.1863	51	66
30.8792	31.1863	68	63
30.9521	31.5406	42	57
30.9521	31.1863	66	71
31.0251	31.1863	63	62
31.0983	31.6892	59	73
31.1716	31.7389	71	66
31.2451	31.7389	54	70
31.2451	31.7389	58	92
31.3186	31.7389	70	62
31.3433	31.7389	47	63
31.3925	31.7389	64	69
31.4418	31.7389	51	69
31.4664	31.7389	68	61
31.5406	32.1387	42	63
31.5406	31.7389	66	71
31.6148	31.7389	63	63
31.6892	32.4084	59	72
31.7638	32.4084	71	69
31.8385	32.4084	54	77
31.8385	32.2909	60	96
31.9131	32.3674	72	66
31.938	32.4084	46	65
31.988	32.4084	65	73
32.0381	32.4084	52	72
32.0632	32.4084	68	70
32.1387	32.4443	42	64
32.1387	32.4084	66	78
32.2146	32.4084	64	77
32.2909	32.4443	60	78
32.3674	32.4443	72	70
32.4443	33.0357	54	75
32.4443	33.0357	61	92
32.5217	33.0357	73	64
32.5476	33.0357	46	63
32.5994	33.0357	65	73
32.6513	33.0357	52	72
32.6774	33.0357	68	64
32.7558	33.1815	42	64
32.7558	33.0357	66	72
32.8346	33.0357	64	63
32.9137	33.0731	62	84
32.9932	33.1542	74	71
33.0731	33.7472	52	81
33.0731	33.5859	62	96
33.1542	33.6782	74	69
33.1815	33.7472	42	65
33.2369	33.7472	65	77
33.2929	33.7472	46	72
33.3213	33.7472	68	71
33.4075	33.7725	35	65
33.4075	33.7472	66	77
33.4958	33.7472	64	69
33.5859	33.7725	62	82
33.6782	33.7725	74	72
33.7725	34.4136	51	75
33.7725	34.3495	63	98
33.8687	34.4136	75	69
33.9007	34.4136	42	64
33.9648	34.4136	70	77
34.0289	34.4136	47	70
34.061	34.4136	73	71
34.1571	34.5332	35	61
34.1571	34.4136	71	77
34.2533	34.4136	66	72
34.3495	34.5332	63	80
34.4456	34.5332	75	73
34.5332	35.022	56	77
34.5332	34.9527	63	103
34.6036	35.022	75	66
34.6271	35.022	47	66
34.6738	34.8833	68	73
34.7205	35.022	51	73
34.7439	35.022	73	70
34.8136	35.0911	41	67
34.8136	35.022	71	77
34.8833	35.022	68	66
34.9527	35.0911	63	85
35.022	35.0911	75	70
35.0911	35.6098	56	76
35.0911	35.6098	62	97
35.1599	35.6098	74	66
35.1829	35.6098	47	70
35.2286	35.4336	68	75
35.2743	35.6098	51	77
35.2971	35.6098	73	71
35.3654	35.6368	41	72
35.3654	35.6098	71	77
35.4336	35.6098	68	71
35.5015	35.6368	63	78
35.5692	35.6368	75	72
35.6368	36.1643	62	83
35.6368	36.0475	65	100
35.7044	36.12	77	72
35.7269	36.1643	53	71
35.7719	35.9766	70	80
35.817	36.1643	58	77
35.8395	36.1643	75	70
35.9073	36.1941	46	71
35.9073	36.1643	74	77
35.9766	36.1643	70	71
36.0475	36.1941	65	82
36.12	36.1941	77	75
36.1941	36.8029	62	79
36.1941	36.8029	66	95
36.27	36.8029	78	69
36.2957	36.8029	53	72
36.3478	36.5933	70	73
36.4007	36.8029	58	76
36.4275	36.8029	75	66
36.5093	37.3629	46	71
36.5093	36.8029	74	72
36.5933	36.8029	70	66
36.6795	37.3629	65	80
36.7681	37.3629	77	71
36.8451	37.3629	56	82
36.8451	37.2657	63	102
36.9156	37.3351	75	71
36.939	37.3629	47	72
36.986	37.1959	68	80
37.0327	37.3629	51	76
37.0561	37.3629	73	64
37.1262	37.4046	41	72
37.1262	37.3629	71	71
37.1959	37.3629	68	63
37.2657	37.4046	63	83
37.3351	37.4046	75	70
37.4046	37.9226	56	77
37.4046	37.9226	62	96
37.4737	37.9226	74	64
37.4967	37.9226	47	68
37.5428	37.7494	68	71
37.5889	37.9226	51	73
37.6118	37.9226	73	63
37.6806	37.9544	41	65
37.6806	37.9226	71	71
37.7494	37.9226	68	66
37.8178	37.9544	63	84
37.8862	37.9544	75	71
37.9544	38.4763	62	82
37.9544	38.3647	65	97
38.0225	38.437	77	69
38.0451	38.4763	53	71
38.0904	38.2942	70	73
38.1356	38.4763	58	77
38.1581	38.4763	75	66
38.2254	38.8283	46	70
38.2254	38.4763	74	75
38.2942	38.4763	70	69
38.3647	39.1285	65	79
38.437	38.8283	77	72
38.5111	39.1285	62	75
38.5111	39.0011	70	93
38.5873	39.0915	82	57
38.613	39.1285	53	66
38.6654	39.1285	76	64
38.7187	39.1285	58	72
38.7458	39.1285	78	60
38.8283	39.1841	46	66
38.8283	39.1285	77	57
38.9134	39.1285	74	52
39.0011	39.1841	70	81
39.0915	39.1841	82	45
39.1841	39.7265	56	59
39.1841	39.6325	63	80
39.2591	39.7067	75	38
39.2841	39.7265	47	48
39.3341	39.5582	68	47
39.3841	39.7265	51	55
39.4089	39.7265	73	40
39.4836	40.0755	41	42
39.4836	39.7265	71	47
39.5582	39.7265	68	40
39.6325	40.2218	63	62
39.7067	40.2949	75	44
39.7807	40.3386	56	56
39.7807	40.3386	62	77
39.8546	40.3386	74	40
39.8793	40.3386	47	48
39.9284	40.1486	68	48
39.9774	40.3386	51	53
40.0019	40.3386	73	40
40.0755	40.3677	41	41
40.0755	40.3386	71	46
40.1486	40.3386	68	37
40.2218	40.3677	63	64
40.2949	40.3677	75	44
40.3677	40.907	62	56
40.3677	40.8018	65	81
40.4405	40.8736	77	38
40.4647	40.907	53	44
40.513	40.7298	70	45
40.5613	40.907	58	52
40.5854	40.907	75	38
40.6577	40.9452	46	42
40.6577	40.907	74	47
40.7298	40.907	70	38
40.8018	40.9452	65	67
40.8736	40.9452	77	44
40.9452	41.4733	62	56
40.9452	41.4733	66	85
41.017	41.4733	78	38
41.041	41.4733	53	48
41.0894	41.3113	70	47
41.1381	41.4733	58	53
41.1626	41.4733	75	38
41.2365	41.5401	46	45
41.2365	41.4733	74	46
41.3113	41.4733	70	38
41.3868	41.5401	65	62
41.463	41.5401	77	44
41.5401	42.0832	56	58
41.5401	41.9817	63	81
41.6144	42.0542	75	40
41.6391	42.0832	47	49
41.6884	41.9088	68	46
41.7376	42.0832	51	52
41.7621	42.0832	73	40
41.8357	42.413	41	45
41.8357	42.0832	71	47
41.9088	42.0832	68	40
41.9817	42.5545	63	66
42.0542	42.6249	75	46
42.1266	42.6717	56	57
42.1266	42.6717	62	78
42.1986	42.6717	74	40
42.2225	42.6717	47	47
42.2704	42.4839	68	46
42.318	42.6717	51	53
42.3418	42.6717	73	40
42.413	42.695	41	47
42.413	42.6717	71	48
42.4839	42.6717	68	40
42.5545	42.695	63	66
42.6249	42.695	75	47
42.695	43.2734	62	60
42.695	43.152	65	84
42.7651	43.2381	77	44
42.7889	43.2734	53	53
42.8373	43.0691	70	48
42.8868	43.2734	58	58
42.912	43.2734	75	45
42.9892	43.9586	46	50
42.9892	43.2734	74	50
43.0691	43.2734	70	45
43.152	43.327	65	67
43.2381	43.4257	77	48
43.327	43.9586	59	61
43.327	43.9586	65	86
43.4257	43.9586	77	44
43.4586	43.9586	49	53
43.5244	43.9586	72	51
43.5902	43.9586	53	62
43.6231	43.9586	74	45
43.7217	44.7395	44	55
43.7217	43.9586	73	51
43.8204	43.9586	71	45
43.9191	44.1087	61	77
44.0159	44.1959	73	46
44.1087	44.7395	57	64
44.1087	44.7395	61	92
44.1959	44.7395	73	47
44.2248	44.7395	49	55
44.2825	44.7395	68	57
44.3399	44.7395	54	59
44.3685	44.7395	71	50
44.4539	45.401	42	57
44.4539	44.7395	69	59
44.5386	44.7395	66	50
44.6227	45.401	62	71
44.7062	45.401	74	55
44.7893	45.401	57	66
44.7893	45.401	61	83
44.8715	45.401	73	47
44.8988	45.401	49	55
44.9533	45.1953	68	56
45.0076	45.401	54	61
45.0346	45.401	71	48
45.1152	45.4321	45	56
45.1152	45.401	69	57
45.1953	45.401	68	47
45.2748	45.4321	66	75
45.3539	45.4321	78	56
45.4321	46.0171	62	70
45.4321	46.0171	66	93
45.5099	46.0171	78	48
45.5358	46.0171	56	59
45.5877	46.0171	70	60
45.6398	46.0171	59	64
45.6659	46.0171	73	48
45.7441	46.5547	54	59
45.7441	46.0171	71	61
45.8227	46.0171	68	51
45.9013	46.5547	65	70
45.9803	46.5547	77	59
46.0594	46.5547	61	70
46.0594	46.5547	69	84
46.1387	46.5547	81	51
46.1652	46.5547	53	59
46.2182	46.5547	72	63
46.2714	46.5547	59	66
46.298	46.5547	74	55
46.378	46.6973	49	58
46.378	46.5547	73	63
46.4582	46.5547	71	60
46.5385	46.6973	68	67
46.6192	46.6973	80	60
46.6973	47.2284	57	73
46.6973	47.2284	61	93
46.7704	47.2284	73	52
46.7947	47.2284	49	60
46.8431	47.2284	68	60
46.8913	47.2284	54	68
46.9153	47.2284	71	51
46.9872	47.7917	42	58
46.9872	47.2284	69	61
47.0586	47.2284	66	51
47.1296	47.7917	62	70
47.2003	47.7917	74	60
47.2705	47.7917	57	73
47.2705	47.7917	61	86
47.3403	47.7917	73	55
47.3635	47.7917	49	60
47.4098	47.6158	68	63
47.4559	47.7917	54	64
47.4788	47.7917	71	52
47.5475	47.8185	45	58
47.5475	47.7917	69	63
47.6158	47.7917	68	52
47.6838	47.8185	66	79
47.7513	47.8185	81	62
47.8185	48.3201	65	72
47.8185	48.3201	69	91
47.8855	48.3201	81	56
47.9079	48.3201	59	60
47.9528	48.3201	73	64
47.9977	48.3201	62	66
48.0202	48.3201	76	52
48.088	48.855	53	58
48.088	48.3201	74	64
48.156	48.3201	71	55
48.2241	48.855	68	75
48.2926	48.855	80	62
48.3614	48.855	64	74
48.3614	48.855	73	100
48.4304	48.855	85	56
48.4535	48.855	56	59
48.4998	48.855	75	66
48.5461	48.855	62	66
48.5693	48.855	78	59
48.6391	49.4568	52	60
48.6391	48.855	76	69
48.7092	48.855	74	59
48.7796	48.9212	71	78
48.8503	48.9923	83	69
48.9212	49.4568	67	78
48.9212	49.4568	71	101
48.9923	49.4568	83	61
49.016	49.4568	61	66
49.0634	49.4568	75	70
49.1108	49.4568	64	73
49.1345	49.4568	78	60
49.2056	49.49	55	62
49.2056	49.4568	76	70
49.2767	49.4568	73	60
49.3478	49.49	70	84
49.4189	49.49	82	71
49.49	50.0113	66	82
49.49	50.0113	74	98
49.5611	50.0113	86	62
49.5848	50.0113	58	70
49.6322	50.0113	77	71
49.6796	50.0113	64	77
49.7033	50.0113	79	63
49.7743	50.5818	54	68
49.7743	50.0113	78	71
49.8454	50.0113	76	63
49.9165	50.0587	73	79
49.9876	50.1295	85	72
50.0587	50.5818	69	86
50.0587	50.5818	73	107
50.1295	50.5818	85	63
50.1532	50.5818	63	72
50.2006	50.5818	77	73
50.2482	50.5818	66	79
50.2721	50.5818	80	66
50.344	51.2274	57	73
50.344	50.5818	78	73
50.4163	50.5818	75	63
50.4891	50.6359	72	84
50.5622	51.2274	84	73
50.6359	51.2274	72	86
50.6359	51.2274	77	105
50.7129	51.2274	89	64
50.7387	51.2274	66	74
50.7909	51.0432	80	75
50.8449	51.2274	69	79
50.8722	51.2274	83	69
50.9566	51.3136	60	74
50.9566	51.2274	81	75
51.0432	51.2274	80	69
51.1315	51.3136	78	84
51.2213	51.3136	90	77
51.3136	51.9135	78	89
51.3136	51.9135	80	108
51.3886	51.9885	92	70
51.4136	52.0135	69	76
51.4636	52.0635	86	81
51.5135	52.1135	72	84
51.5385	52.1385	89	71
51.6135	52.2135	63	76
51.6135	52.2135	87	78
51.6885	52.2885	84	72
51.7635	52.3635	81	95
51.8385	52.4285	93	77
51.9135	52.4285	78	85
51.9135	52.4285	80	106
51.9885	52.4285	92	71
52.0135	52.4285	69	78
52.0635	52.4285	86	77
52.1135	52.4285	72	87
52.1385	52.4285	89	75
52.2135	52.5135	63	78
52.2135	52.4285	87	71
52.2885	52.4285	84	69
52.3635	52.5135	81	89
52.4385	52.5135	93	77
52.5135	53.134	78	88
52.5135	53.134	80	109
52.589	53.2142	92	70
52.6142	53.2416	69	78
52.665	53.2984	85	77
52.716	53.3558	72	87
52.7417	53.3848	88	72
52.8189	53.4729	62	77
52.8189	53.4729	86	78
52.8967	53.5617	84	71
52.9751	53.652	81	92
53.0542	53.743	93	77
53.134	53.7491	78	90
53.134	53.7491	80	104
53.2142	53.7491	92	75
53.2416	53.7491	69	81
53.2984	53.7491	85	82
53.3558	53.7491	72	87
53.3848	53.7491	88	75
53.4729	54.4218	62	77
53.4729	53.7491	86	78
53.5617	53.7491	84	71
53.652	53.8345	81	86
53.743	53.9139	93	77
53.8345	54.4218	78	89
53.8345	54.3107	81	109
53.9139	54.3901	93	70
53.9403	54.4218	69	76
53.9932	54.4218	89	77
54.0461	54.4218	73	83
54.0726	54.4218	92	70
54.152	54.7869	61	75
54.152	54.4218	90	77
54.2313	54.4218	85	66
54.3107	55.0515	81	90
54.3901	55.0515	93	70
54.4694	55.0515	76	87
54.4694	54.9456	80	105
54.5488	55.025	92	69
54.5753	55.0515	68	77
54.6282	55.0515	87	78
54.6811	55.0515	73	83
54.7075	55.0515	90	71
54.7869	55.653	61	74
54.7869	55.0515	88	77
54.8663	55.0515	85	69
54.9456	55.653	80	86
55.025	55.653	92	72
55.1044	55.653	73	87
55.1044	55.5413	76	106
55.1772	55.6141	88	64
55.2015	55.653	64	77
55.25	55.653	83	73
55.2986	55.653	69	84
55.3228	55.653	86	66
55.3957	55.6869	57	76
55.3957	55.653	85	71
55.4685	55.653	81	63
55.5413	55.6869	76	94
55.6141	55.6869	88	71
55.6869	56.187	69	80
55.6869	56.1239	73	100
55.7598	56.187	85	64
55.784	56.187	61	73
55.8326	56.187	80	71
55.8811	56.187	66	79
55.9054	56.187	83	64
55.9782	56.2695	54	74
55.9782	56.187	81	70
56.0511	56.187	78	62
56.1239	56.2695	73	86
56.1967	56.2695	85	63
56.2695	56.8171	64	84
56.2695	56.7087	68	100
56.3423	56.7826	80	59
56.3666	56.8171	56	68
56.4152	56.8171	75	69
56.4639	56.8171	61	78
56.4883	56.8171	78	61
56.5615	56.8566	49	67
56.5615	56.8171	76	66
56.635	56.8171	73	62
56.7087	56.8566	68	84
56.7826	56.8566	80	62
56.8566	57.4008	62	78
56.8566	57.3053	66	96
56.9309	57.3806	78	57
56.9556	57.4008	54	67
57.0054	57.4008	73	64
57.0551	57.4008	57	74
57.08	57.4008	76	57
57.1549	57.4564	50	68
57.1549	57.4008	74	64
57.2299	57.4008	69	52
57.3053	57.4564	66	83
57.3806	57.4564	78	61
57.4564	58.0179	61	78
57.4564	57.915	64	100
57.5323	57.9921	76	55
57.5577	58.0179	52	70
57.6084	58.0179	71	64
57.6592	58.0179	57	79
57.6847	58.0179	74	59
57.7612	58.0695	45	67
57.7612	58.0179	73	63
57.838	58.0179	69	56
57.915	58.0695	64	79
57.9921	58.0695	76	60
58.0695	58.6394	59	77
58.0695	58.5358	62	90
58.1472	58.6135	74	52
58.1731	58.6394	50	67
58.2249	58.6394	69	62
58.2767	58.6394	55	77
58.3026	58.6394	73	52
58.3804	59.8725	47	69
58.3804	58.6394	71	61
58.4581	58.6394	67	55
58.5358	59.8725	62	76
58.6135	59.8725	74	60
58.6912	59.313	57	81
58.6912	59.1575	61	89
58.7689	59.2352	73	60
58.7949	59.4166	45	67
58.8467	59.4684	68	70
58.8985	59.5202	49	75
58.9244	59.5461	71	59
59.0021	59.6238	37	66
59.0021	59.6238	69	64
59.0798	59.7015	66	61
59.1575	59.313	61	73
59.2352	59.3907	73	60
59.313	59.8725	57	82
59.313	59.7793	61	87
59.3907	59.857	73	51
59.4166	59.8725	45	66
59.4684	59.8725	68	60
59.5202	59.8725	49	76
59.5461	59.8725	71	51
59.6238	59.9347	37	68
59.6238	59.8725	69	59
59.7015	59.8725	66	51
59.7793	59.9347	61	73
59.857	59.9347	73	57
59.9347	60.5046	56	80
59.9347	60.401	61	89
60.0124	60.4787	73	52
60.0383	60.5046	45	67
60.0901	60.5046	68	62
60.1419	60.5046	49	73
60.1678	60.5046	71	52
60.2456	60.5564	37	68
60.2456	60.5046	69	60
60.3233	60.5046	66	52
60.401	60.5564	61	72
60.4787	60.5564	73	56
60.5564	61.1212	54	78
60.5564	61.0227	61	85
60.6342	61.1005	73	51
60.6601	61.1212	45	68
60.7119	61.1212	68	60
60.7637	61.1212	49	77
60.7896	61.1212	71	52
60.8673	61.489	37	70
60.8673	61.1212	69	59
60.945	61.1212	66	48
61.0227	61.1782	61	61
61.1005	61.2559	73	55
61.1782	61.7999	54	75
61.1782	61.6445	61	89
61.2559	61.7222	73	48
61.2818	61.9035	44	63
61.3336	61.9553	67	60
61.3854	62.0071	49	64
61.4113	62.0331	69	47
61.489	62.1108	37	57
61.489	62.1108	68	55
61.5668	62.1885	66	47
61.6445	61.7999	61	58
61.7222	61.8776	73	51
61.7999	62.375	54	73
61.7999	62.2662	61	79
61.8776	62.3439	73	50
61.9035	62.375	44	61
61.9553	62.375	67	57
62.0071	62.375	49	66
62.0331	62.375	69	48
62.1108	62.4215	37	58
62.1108	62.375	68	55
62.1885	62.375	66	46
62.2662	62.4215	61	58
62.3439	62.4215	73	50
62.4215	63.0651	53	75
62.4215	62.9196	61	79
62.4998	63.0098	73	45
62.5262	63.0651	44	64
62.5798	63.0651	67	50
62.6342	63.0651	49	69
62.6617	63.0651	69	42
62.7456	63.1022	37	56
62.7456	63.0651	68	48
62.8315	63.0651	65	42
62.9196	63.1022	61	55
63.0098	63.1022	73	46
63.1022	63.907	53	74
63.1022	63.7161	61	73
63.1947	63.8524	73	38
63.2256	63.907	44	54
63.2873	63.907	67	44
63.3491	63.907	49	60
63.3799	63.907	69	36
63.4725	63.9888	37	49
63.4725	63.907	68	44
63.5797	63.907	65	38
63.7161	63.9888	61	50
63.8524	63.9888	73	38
63.9888	64.7841	57	49
63.9888	64.5942	61	69
64.0944	64.6897	73	35
64.1289	64.9077	49	39
64.1974	64.9687	68	40
64.2652	65.0292	54	45
64.2987	65.0591	71	35
64.3988	65.1484	42	38
64.3988	65.1484	69	40
64.4972	65.2364	66	35
64.5942	64.7841	61	52
64.6897	64.8771	73	38
64.7841	65.4938	57	49
64.7841	65.3233	61	68
64.8771	65.409	73	34
64.9077	65.605	49	39
64.9687	65.6606	68	37
65.0292	65.7161	54	44
65.0591	65.7439	71	31
65.1484	65.8273	42	37
65.1484	65.8273	69	37
65.2364	65.9106	66	30
65.3233	65.4938	61	50
65.409	65.5773	73	37
65.4938	66.1604	57	49
65.4938	65.9939	61	69
65.5773	66.0773	73	31
65.605	66.2709	49	39
65.6606	66.3265	68	37
65.7161	66.3821	54	45
65.7439	66.41	71	31
65.8273	66.4938	42	38
65.8273	66.4938	69	37
65.9106	66.5781	66	36
65.9939	66.1604	61	49
66.0773	66.2433	73	38
66.1604	66.776	57	49
66.1604	66.6626	61	71
66.2433	66.7476	73	34
66.2709	66.776	49	39
66.3265	66.776	68	38
66.3821	66.776	54	49
66.41	66.776	71	34
66.4938	66.8328	42	45
66.4938	66.776	69	38
66.5781	66.776	66	34
66.6626	66.8328	61	49
66.7476	66.8328	73	38
66.8328	67.5083	54	49
66.8328	67.3426	62	66
66.9188	67.4258	74	34
66.9476	67.6176	42	41
67.0047	67.672	70	37
67.0617	67.726	47	49
67.0901	67.7531	73	31
67.1748	67.8336	35	39
67.1748	67.8336	71	37
67.259	67.9136	66	31
67.3426	67.5083	62	49
67.4258	67.5905	74	38
67.5083	68.1509	54	49
67.5083	67.9931	62	63
67.5905	68.0722	74	34
67.6176	68.2549	42	40
67.672	68.3066	70	38
67.726	68.3586	47	45
67.7531	68.3855	73	34
67.8336	68.4672	35	39
67.8336	68.4672	71	40
67.9136	68.552	66	35
67.9931	68.1509	62	49
68.0722	68.229	74	42
68.1509	68.8314	54	49
68.1509	68.6411	62	69
68.229	68.7342	74	37
68.2549	68.9666	42	41
68.3066	69.0341	70	44
68.3586	69.1017	47	49
68.3855	69.1355	73	36
68.4672	69.2368	35	39
68.4672	69.2368	71	44
68.552	68.8314	66	35
68.6411	69.4395	62	50
68.7342	69.5409	74	44
68.8314	69.5679	54	50
68.8314	69.3382	66	71
68.9328	69.5679	78	46
68.9666	69.5679	42	41
69.0341	69.5679	70	51
69.1017	69.5679	47	46
69.1355	69.5679	73	45
69.2368	69.6422	35	40
69.2368	69.5679	71	48
69.3382	69.5679	66	42
69.4395	69.6422	62	47
69.5409	69.6422	74	36
69.6422	70.2738	58	39
69.6422	70.1159	61	59
69.7212	70.1949	73	28
69.7475	70.3791	49	36
69.8001	70.4317	68	36
69.8527	70.4843	54	37
69.879	70.5106	71	29
69.958	70.5896	42	35
69.958	70.5896	70	35
70.0369	70.6685	66	30
70.1159	70.2738	61	41
70.1949	70.3528	73	35
70.2738	70.9054	58	39
70.2738	70.7475	61	58
70.3528	70.8264	73	27
70.3791	71.0106	49	35
70.4317	71.0633	68	34
70.4843	71.1159	54	36
70.5106	71.1422	71	27
70.5896	71.2212	42	34
70.5896	71.2212	70	34
70.6685	71.3001	66	28
70.7475	70.9054	61	41
70.8264	70.9843	73	34
70.9054	71.537	58	39
70.9054	71.3791	61	58
70.9843	71.458	73	28
71.0106	71.6422	49	34
71.0633	71.6948	68	34
71.1159	71.7475	54	37
71.1422	71.7738	71	28
71.2212	71.8527	42	31
71.2212	71.8527	70	34
71.3001	71.9317	66	28
71.3791	71.537	61	40
71.458	71.6159	73	31
71.537	72.1106	58	39
71.537	72.0106	61	58
71.6159	72.0896	73	28
71.6422	72.1106	49	31
71.6948	72.1106	68	31
71.7475	72.1106	54	38
71.7738	72.1106	71	27
71.8527	72.1685	42	33
71.8527	72.1106	70	31
71.9317	72.1106	66	25
72.0106	72.1685	61	36
72.0896	72.1685	73	31
72.1685	72.8001	54	39
72.1685	72.6422	63	56
72.2475	72.7212	75	22
72.2738	72.9054	42	34
72.3264	72.958	70	28
72.379	73.0106	47	36
72.4054	73.0369	73	22
72.4843	73.1159	35	33
72.4843	73.1159	71	29
72.5633	73.1948	66	23
72.6422	72.8001	63	38
72.7212	72.8791	75	29
72.8001	73.4317	54	39
72.8001	73.2738	63	58
72.8791	73.3527	75	23
72.9054	73.537	42	34
72.958	73.5896	70	29
73.0106	73.6422	47	37
73.0369	73.6685	73	23
73.1159	73.7476	35	33
73.1159	73.7476	71	30
73.1948	73.8277	66	23
73.2738	73.4317	63	40
73.3527	73.5106	75	30
73.4317	74.0818	54	38
73.4317	73.9097	63	61
73.5106	73.9944	75	27
73.537	74.2076	42	36
73.5896	74.2705	70	31
73.6422	74.3334	47	38
73.6685	74.3648	73	27
73.7476	74.4591	35	34
73.7476	74.4591	71	31
73.8277	74.0818	66	30
73.9097	74.6478	63	41
73.9944	74.7233	75	34
74.0818	74.7233	54	40
74.0818	74.5535	66	63
74.1761	74.7233	78	37
74.2076	74.7233	42	34
74.2705	74.7233	70	38
74.3334	74.7233	47	39
74.3648	74.7233	73	36
74.4591	74.8365	35	36
74.4591	74.7233	71	36
74.5535	74.7233	66	34
74.6478	74.8365	63	37
74.7421	74.8365	75	27
74.8365	75.4714	58	39
74.8365	75.3127	61	57
74.9158	75.392	73	20
74.9423	75.5772	49	34
74.9952	75.6301	68	27
75.0481	75.6831	54	38
75.0746	75.7095	71	22
75.1539	75.7889	42	34
75.1539	75.7889	70	27
75.2333	75.8682	66	23
75.3127	75.4714	61	37
75.392	75.5508	73	27
75.4714	76.1063	58	39
75.4714	75.9476	61	56
75.5508	76.027	73	23
75.5772	76.2122	49	31
75.6301	76.2651	68	28
75.6831	76.318	54	37
75.7095	76.3444	71	23
75.7889	76.4238	42	31
75.7889	76.4238	70	28
75.8682	76.5032	66	22
75.9476	76.1063	61	37
76.027	76.1857	73	29
76.1063	76.7413	58	39
76.1063	76.5825	61	57
76.1857	76.6619	73	25
76.2122	76.8471	49	34
76.2651	76.9	68	29
76.318	76.9529	54	39
76.3444	76.9794	71	23
76.4238	77.0587	42	35
76.4238	77.0587	70	29
76.5032	77.1381	66	23
76.5825	76.7413	61	41
76.6619	76.8206	73	29
76.7413	77.3286	58	39
76.7413	77.2175	61	61
76.8206	77.2968	73	23
76.8471	77.3286	49	34
76.9	77.3286	68	30
76.9529	77.3286	54	38
76.9794	77.3286	71	23
77.0587	77.3762	42	34
77.0587	77.3286	70	30
77.1381	77.3286	66	23
77.2175	77.3762	61	38
77.2968	77.3762	73	29
77.3762	78.0144	57	39
77.3762	77.8549	61	58
77.456	77.9347	73	23
77.4826	78.1219	49	33
77.5357	78.1766	68	29
77.5889	78.2315	54	37
77.6155	78.259	71	23
77.6953	78.3414	42	35
77.6953	78.3414	69	29
77.7751	78.4238	66	25
77.8549	78.0144	61	38
77.9347	78.0947	73	29
78.0144	78.671	57	39
78.0144	78.5062	61	55
78.0947	78.5886	73	22
78.1219	78.7809	49	35
78.1766	78.8358	68	29
78.2315	78.8908	54	39
78.259	78.9183	71	23
78.3414	79.0007	42	36
78.3414	79.0007	69	28
78.4238	79.0834	66	23
78.5062	78.671	61	34
78.5886	78.7534	73	28
78.671	79.3415	57	37
78.671	79.167	61	49
78.7534	79.2535	73	22
78.7809	79.4604	49	34
78.8358	79.52	68	28
78.8908	79.5795	54	37
78.9183	79.6092	71	23
79.0007	79.6988	42	33
79.0007	79.6988	69	27
79.0834	79.7892	66	22
79.167	79.3415	61	34
79.2535	79.4307	73	27
79.3415	79.988	57	35
79.3415	79.8795	61	44
79.4307	79.9699	73	22
79.4604	79.988	49	30
79.52	79.988	68	27
79.5795	79.988	54	34
79.6092	79.988	71	22
79.6988	80.0604	42	31
79.6988	79.988	69	27
79.7892	79.988	66	23
79.8795	80.0604	61	36
79.9699	80.0604	73	27
80.0604	81.5238	45	31
80.0604	81.5238	52	31
80.0604	81.5238	57	37
80.0604	81.5238	61	39
80.0604	81.5238	64	39
80.0604	81.5238	73	46
81.5238	82.3665	47	27
81.5238	82.3665	55	32
81.5238	82.3665	62	36
81.5238	82.3665	67	36
81.5238	82.3665	71	43
82.3665	84.3526	49	23
82.3665	88.9008	56	28
82.3665	88.9008	59	33
82.3665	84.9648	61	33
82.3665	83.6297	65	39
83.6297	88.9008	65	29
83.9911	89.1508	42	31
84.3526	89.1508	49	31
84.6587	89.1508	57	31
84.9648	89.1508	61	25
85.3136	89.1508	66	22
