OnsetTime	OffsetTime	MidiPitch	Velocity
0.500004	1.26738	58	40
0.500004	1.26738	70	50
1.24931	1.67426	53	36
1.24931	1.67426	65	45
1.66266	2.42872	50	40
1.66266	2.42872	62	50
2.405	2.82378	53	38
2.405	2.82378	65	48
2.81137	3.57745	58	41
2.81137	3.57745	70	52
3.55602	3.95167	62	43
3.55602	3.95167	74	54
3.95167	4.74195	65	45
3.95167	4.74195	77	57
4.69864	5.06981	82	58
4.88423	5.06981	74	51
5.06981	7.24951	53	30
5.06981	7.24951	60	30
5.06981	7.24951	63	36
5.06981	5.2579	77	56
5.24886	5.43857	75	52
5.42953	5.61924	74	51
5.61021	5.79992	72	49
5.79088	5.98086	70	48
5.97155	6.15771	69	47
6.15771	6.34685	67	50
6.33784	6.52758	65	44
6.51851	6.7088	64	44
6.69973	6.89002	65	45
6.88096	7.07154	67	47
7.06218	7.24951	69	50
7.24951	7.61282	58	32
7.24951	7.61282	62	38
7.24951	7.29492	70	50
7.38575	7.43116	72	45
7.43116	7.52199	70	49
7.52199	7.61282	69	46
7.61282	7.65823	70	50
7.79448	7.83989	72	47
7.97613	8.02154	74	49
8.15778	8.20597	75	51
8.35053	8.54243	76	53
8.53329	8.72527	77	50
8.71605	8.9097	79	55
8.90061	9.08238	77	50
9.08238	9.45627	82	59
9.26414	9.45627	74	50
9.45627	11.6738	53	30
9.45627	11.6738	60	30
9.45627	11.6738	63	36
9.45627	9.65054	77	57
9.64129	9.83547	75	55
9.82631	10.0188	74	53
10.0096	10.2021	72	51
10.1929	10.3857	70	49
10.3763	10.5642	69	47
10.5642	10.7584	67	50
10.7492	10.9434	65	43
10.9342	11.1273	64	50
11.1181	11.3112	65	43
11.302	11.4953	67	50
11.4859	11.6738	69	45
11.6738	11.766	58	34
11.6738	11.766	62	40
11.6738	11.766	70	50
12.0427	12.1394	58	32
12.0427	12.1394	62	38
12.0427	12.1394	70	48
12.4294	12.5365	58	32
12.4294	12.5365	65	38
12.4294	12.5365	74	48
12.8575	13.2334	58	34
12.8575	13.2334	62	40
12.8575	13.2334	70	50
13.5152	13.5622	70	44
13.6092	13.7088	72	50
13.6997	13.7993	70	43
13.7903	13.8913	69	45
13.8808	13.9951	70	42
13.986	14.3515	79	56
14.3515	14.7273	51	25
14.3515	14.7273	55	25
14.3515	14.7273	58	30
14.6334	14.6803	70	44
14.7273	14.8272	72	50
14.8182	14.9181	70	43
14.909	15.0103	69	45
14.9998	15.1139	70	42
15.105	15.465	77	55
15.465	15.8408	50	25
15.465	15.8408	53	25
15.465	15.8408	58	30
15.7468	15.7938	70	44
15.8408	15.9442	72	50
15.9348	16.0381	70	43
16.0287	16.1332	69	45
16.1227	16.2369	70	42
16.2278	17.3548	57	29
16.2278	17.7294	65	34
16.2278	16.5922	72	52
16.5922	16.9681	77	49
16.9681	17.3548	75	48
17.3548	17.7294	58	34
17.3548	17.7294	73	55
17.7294	17.9312	74	49
18.0322	18.0791	70	44
18.1261	18.2257	72	50
18.2167	18.3163	70	43
18.3072	18.4083	69	45
18.3978	18.5121	70	42
18.5029	18.8684	79	56
18.8684	19.2443	51	25
18.8684	19.2443	55	25
18.8684	19.2443	58	30
19.1503	19.1973	70	44
19.2443	19.3442	72	50
19.3351	19.435	70	43
19.4259	19.5272	69	45
19.5167	19.6309	70	42
19.6219	19.9819	77	55
19.9819	20.3577	50	25
19.9819	20.3577	53	25
19.9819	20.3577	58	30
20.2638	20.3108	70	44
20.3577	20.4611	72	50
20.4517	20.5551	70	43
20.5457	20.6501	69	45
20.6396	20.7539	70	42
20.7448	21.8826	53	29
20.7448	21.8826	57	34
20.7448	21.8826	72	52
21.1092	21.8826	60	31
21.1092	21.8826	75	49
21.485	21.8826	63	29
21.485	21.8826	69	48
21.878	22.2436	58	28
21.878	22.2436	62	34
21.878	22.2436	70	55
22.9746	23.1667	55	73
22.9746	23.1667	70	64
22.9746	23.1667	74	64
22.9746	23.1667	79	77
23.3589	23.5474	43	66
23.3589	23.5474	67	64
24.1129	24.2608	50	73
24.1129	24.2608	66	63
24.1129	24.2608	69	63
24.1129	24.2608	74	75
24.5008	24.7301	38	66
24.5008	24.7301	62	67
25.2572	26.3923	51	20
25.2572	25.6295	55	33
25.2572	26.0127	63	43
25.4434	25.8157	58	23
25.6295	26.0019	55	27
25.8157	26.0127	58	22
26.0019	26.3923	55	26
26.0019	26.3923	65	36
26.0949	26.2863	63	36
26.188	26.3923	58	22
26.188	26.3923	62	36
26.2863	26.3923	63	36
26.3846	27.5247	50	20
26.3846	26.7557	56	36
26.3846	26.7642	72	42
26.5702	26.7642	58	23
26.5702	26.7557	70	37
26.7557	27.1269	56	27
26.7557	27.1269	70	43
26.9413	27.3215	58	23
27.1269	27.5247	56	27
27.1269	27.5161	70	38
27.3215	27.5247	58	24
27.5161	28.6397	51	20
27.5161	27.8879	55	33
27.5161	27.8964	70	39
27.7035	27.8964	58	23
27.7035	27.8964	75	45
27.8879	28.2568	55	27
27.8879	28.2683	74	44
28.0724	28.2683	58	23
28.0724	28.2683	73	42
28.2568	28.6397	55	27
28.2568	28.6397	72	40
28.4413	28.6397	58	25
28.4413	28.6397	71	38
28.6397	29.7644	50	20
28.6397	29.0121	56	33
28.6397	29.7644	70	41
28.8259	29.1982	58	27
29.0121	29.3844	56	27
29.1982	29.5705	58	24
29.3844	29.7644	56	27
29.5705	29.7644	58	23
29.7567	30.8918	51	21
29.7567	30.129	55	35
29.7567	30.5122	63	45
29.9428	30.3152	58	24
30.129	30.5013	55	28
30.3152	30.5122	58	23
30.5013	30.8918	55	27
30.5013	30.8918	65	42
30.5944	30.7858	63	39
30.6875	30.8918	58	23
30.6875	30.8918	62	42
30.7858	30.8918	63	40
30.884	32.0242	50	21
30.884	31.2552	53	38
30.884	31.2637	72	54
31.0696	31.2637	56	24
31.0696	31.2552	71	48
31.2552	31.6264	53	32
31.2552	31.6264	71	53
31.4408	31.821	56	28
31.6264	32.0242	53	32
31.6264	32.0242	71	47
31.821	32.0242	56	27
32.0156	33.1392	51	23
32.0156	32.3874	55	37
32.0156	32.3958	72	50
32.2029	32.3958	60	32
32.2029	32.3958	79	58
32.3874	32.7563	55	34
32.3874	32.7678	75	56
32.5718	32.7678	60	29
32.5718	32.7678	74	54
32.7563	33.1423	55	30
32.7563	33.1423	72	51
32.9407	33.1423	60	28
32.9407	33.1423	70	49
33.1392	34.2647	51	23
33.1392	33.5115	53	37
33.1392	34.2647	69	50
33.3254	33.6977	60	30
33.5115	33.8838	53	30
33.6977	34.07	60	27
33.8838	34.2561	53	30
34.07	34.2647	60	26
34.2561	35.3828	50	27
34.2561	34.6279	53	44
34.2561	34.6364	70	59
34.4435	34.6364	60	30
34.4435	34.6364	86	62
34.6279	34.9968	53	36
34.6279	35.0083	82	61
34.8124	35.0083	60	30
34.8124	35.0083	81	60
34.9968	35.3828	53	36
34.9968	35.3828	79	58
35.1813	35.3828	60	33
35.1813	35.3828	77	57
35.3797	36.5053	48	27
35.3797	35.7521	55	44
35.3797	36.5053	76	62
35.5659	35.9382	58	36
35.7521	36.1244	55	36
35.9382	36.3105	58	31
36.1244	36.5053	55	36
36.3105	36.5053	58	30
36.4967	37.6234	50	27
36.4967	36.8685	53	44
36.4967	36.8685	77	52
36.684	36.8769	57	28
36.684	36.8769	81	58
36.8685	37.2373	53	36
36.8685	37.2489	77	56
37.0529	37.2489	57	28
37.0529	37.2489	76	55
37.2373	37.6234	53	35
37.2373	37.6234	74	53
37.4218	37.6234	57	27
37.4218	37.6234	72	51
37.6203	38.739	55	37
37.6203	37.9926	62	37
37.6203	38.739	71	56
37.8064	38.1788	65	36
37.9926	38.3649	62	36
38.1788	38.5511	65	30
38.3649	38.739	62	36
38.5511	38.739	65	30
38.739	39.1229	60	44
38.739	39.1229	64	44
38.8355	38.9317	72	46
38.9317	39.0275	71	49
39.0275	39.1229	72	44
39.1229	39.218	74	49
39.218	39.3127	72	44
39.3127	39.4071	71	49
39.4071	39.5011	72	44
39.5011	39.879	70	50
39.5948	39.7818	72	49
39.6884	39.879	76	54
39.7818	39.879	72	49
39.8752	40.2545	69	55
39.9682	40.1544	72	53
40.0613	40.2545	77	57
40.1544	40.2545	72	52
40.2475	40.6268	64	59
40.3406	40.5267	72	55
40.4337	40.6268	82	61
40.5267	40.6268	72	57
40.6198	41.0103	65	57
40.7129	40.9052	72	57
40.806	41.0103	81	64
40.9052	41.0103	72	57
41.0045	41.3874	60	62
41.0045	41.3874	79	65
41.0989	41.3874	76	60
41.1919	41.3874	74	65
41.285	41.3874	72	60
41.3781	41.4712	71	57
41.4712	41.5643	72	59
41.5643	41.6574	74	60
41.6574	41.7515	72	56
41.7515	42.1399	70	50
41.8472	42.0384	72	49
41.9429	42.1399	76	53
42.0384	42.1399	72	49
42.1336	42.5206	69	58
42.2287	42.4182	72	52
42.3235	42.5206	77	58
42.4182	42.5206	72	54
42.5127	42.8947	64	62
42.607	42.7951	72	55
42.7011	42.8947	82	61
42.7951	42.8947	72	55
42.8885	43.2675	65	56
42.9818	43.1719	72	49
43.0749	43.2675	81	68
43.1719	43.2675	72	62
43.2675	44.1067	60	61
43.2675	43.4531	79	73
43.3603	44.4026	84	62
43.4531	43.7313	79	69
43.5459	43.8244	76	57
43.6386	43.918	72	67
43.7313	44.4026	79	55
43.8244	44.4026	76	61
43.918	44.1067	72	54
44.0121	44.2017	67	63
44.1067	44.4009	60	47
44.1067	44.4026	72	55
44.2017	44.4026	55	54
44.2017	44.4026	67	65
44.2972	44.4026	52	47
44.2972	44.4026	64	59
44.4009	44.6138	48	60
44.4009	44.6138	60	74
44.8032	45.2472	36	59
44.8032	45.2472	64	62
44.8032	45.2472	67	62
44.8032	45.2472	72	73
45.6911	46.4576	53	34
46.4404	46.8538	48	30
46.8538	47.613	45	34
47.5961	48.0025	48	32
48.0025	48.7551	53	34
48.1886	48.2345	84	45
48.372	48.4178	84	49
48.5553	48.6011	84	43
48.7386	49.1342	57	36
48.7386	48.788	84	46
48.9364	48.9859	84	40
49.1342	49.5077	60	38
49.1342	49.3303	86	45
49.321	49.517	84	40
49.5077	49.7038	82	43
49.6944	49.8906	81	40
49.8812	50.0788	79	45
50.0691	50.2624	77	39
50.2624	51.035	58	34
50.2624	50.3108	77	41
50.3108	50.3591	79	39
50.3591	50.4558	77	49
50.4558	50.6431	76	44
50.6431	51.0178	76	46
51.0178	51.4311	55	30
51.4311	52.1904	52	34
52.1735	52.5799	55	32
52.5799	53.3324	58	34
52.766	52.8118	82	45
52.9493	52.9952	82	48
53.1327	53.1785	82	42
53.316	53.7116	64	36
53.316	53.3654	82	44
53.5138	53.5632	82	40
53.7116	54.0851	67	38
53.7116	53.9077	84	45
53.8983	54.0944	82	40
54.0851	54.2811	81	40
54.2718	54.4679	79	40
54.4585	54.6557	77	45
54.6453	54.8527	76	39
54.8527	55.2227	69	35
54.8527	55.5973	77	47
55.0377	55.4077	72	28
55.2227	55.5905	69	35
55.4077	55.5973	72	25
55.4077	55.5973	81	47
55.5905	55.9688	69	32
55.5905	55.9688	79	45
55.7732	55.9688	72	24
55.7732	55.9688	77	40
55.9641	56.3342	70	35
55.9641	56.7096	76	47
56.1492	56.5192	72	31
56.3342	56.702	70	35
56.5192	56.7096	72	26
56.5192	56.7096	86	52
56.702	57.0756	70	33
56.702	57.0756	84	47
56.8847	57.0756	72	29
56.8847	57.0756	76	42
57.0756	57.4445	69	35
57.0756	57.8218	77	47
57.2601	57.6289	72	30
57.4445	57.8112	69	32
57.6289	57.8218	72	24
57.6289	57.8218	81	47
57.8112	58.1855	69	32
57.8112	58.1855	79	45
57.9934	58.1855	72	25
57.9934	58.1855	77	40
58.1855	58.5544	70	35
58.1855	58.9286	76	47
58.3699	58.7388	72	31
58.5544	58.921	70	35
58.7388	58.9286	72	26
58.7388	58.9286	86	52
58.921	59.2935	70	33
58.921	59.2935	84	47
59.1032	59.2935	72	29
59.1032	59.2935	76	42
59.2935	59.6624	69	35
59.2935	60.0416	77	47
59.4779	59.8515	72	30
59.6624	60.0326	69	32
59.8515	60.0416	72	28
59.8515	60.0416	84	55
60.0326	60.4052	69	38
60.0326	60.4113	81	53
60.2137	60.4113	72	31
60.2137	60.4113	79	50
60.4052	61.515	62	40
60.4052	60.7741	69	40
60.4052	61.1513	78	56
60.5896	60.9585	72	34
60.7741	61.1407	69	38
60.9585	61.1513	72	32
60.9585	61.1513	87	58
61.1407	61.515	69	39
61.1407	61.515	86	52
61.3229	61.515	72	32
61.3229	61.515	78	48
61.515	61.8911	67	39
61.515	61.8911	70	39
61.515	61.8911	81	56
61.6989	61.8911	79	51
61.8828	62.2609	64	35
61.8828	62.622	72	35
61.8828	62.2609	84	55
62.0639	62.2609	83	51
62.2518	62.622	65	35
62.2518	62.622	82	50
62.4329	62.622	81	49
62.622	63.0099	58	43
62.622	63.0099	70	43
62.622	63.0099	79	54
62.9004	63.0099	81	48
62.9996	63.7918	60	40
62.9996	63.7918	69	40
62.9996	63.4437	77	54
63.3802	63.7918	67	40
63.3802	63.5071	76	50
63.4437	63.5705	77	44
63.5071	63.6181	76	50
63.5705	63.7606	77	44
63.6181	63.7132	76	50
63.6657	63.7918	74	42
63.7132	63.7918	76	45
63.7606	64.1648	65	40
63.7606	64.1648	77	49
63.854	64.0407	72	46
63.9474	64.1648	71	49
64.0407	64.1648	72	44
64.1338	64.2269	74	49
64.2269	64.3313	72	44
64.32	64.5105	57	49
64.32	64.5105	71	49
64.4111	64.5105	72	44
64.5022	64.69	55	55
64.5022	64.69	70	49
64.5933	64.69	72	49
64.6844	64.9064	53	48
64.6844	64.9064	69	54
64.7799	64.9064	72	49
64.8753	65.2795	52	48
64.8753	65.2795	67	49
64.9686	65.1553	72	46
65.062	65.2795	71	49
65.1553	65.2795	72	44
65.2484	65.3415	74	49
65.3415	65.446	72	44
65.4346	65.6251	62	45
65.4346	65.6251	71	49
65.5257	65.6251	72	44
65.6168	65.8046	60	50
65.6168	65.7991	82	49
65.7079	65.8046	72	49
65.7991	66.021	52	45
65.7991	66.021	82	54
65.8945	66.021	72	49
65.9899	66.3941	53	40
65.9899	66.3941	81	49
66.0833	66.27	72	46
66.1766	66.3941	71	49
66.27	66.3941	72	44
66.3631	66.4561	74	49
66.4561	66.5606	72	44
66.5492	66.7398	57	50
66.5492	66.7398	71	49
66.6403	66.7398	72	44
66.7314	66.9193	55	55
66.7314	66.9193	70	49
66.8225	66.9193	72	49
66.9137	67.1357	53	47
66.9137	67.1357	69	54
67.0092	67.1357	72	49
67.1045	67.5087	52	47
67.1045	67.5087	67	49
67.1979	67.3846	72	46
67.2913	67.5087	71	49
67.3846	67.5087	72	44
67.4777	67.5708	74	49
67.5708	67.6752	72	44
67.6638	67.8544	62	45
67.6638	67.8544	71	49
67.755	67.8544	72	44
67.8461	68.0339	60	50
67.8461	68.0283	82	49
67.9372	68.0339	72	49
68.0283	68.2503	52	45
68.0283	68.2503	82	54
68.1238	68.2503	72	49
68.2192	68.6234	53	40
68.2192	68.6234	81	49
68.3125	68.4992	72	46
68.4059	68.6234	71	49
68.4992	68.6234	72	44
68.5923	68.6854	74	49
68.6854	68.7899	72	44
68.7785	68.9691	60	47
68.7785	68.9691	71	49
68.8696	68.9691	72	44
68.9607	69.1502	57	52
68.9607	69.1502	75	49
69.0526	69.1502	72	49
69.1446	69.3666	55	47
69.1446	69.3666	70	54
69.2401	69.3666	72	49
69.3354	69.7407	54	44
69.3354	69.7407	69	49
69.4288	69.6155	74	46
69.5222	69.7407	73	49
69.6155	69.7407	74	44
69.7086	69.805	76	49
69.805	69.9127	74	44
69.9013	70.092	63	45
69.9013	70.092	73	52
69.9924	70.092	74	44
70.0835	70.2742	62	50
70.0835	70.2686	84	55
70.176	70.2742	74	49
70.2686	70.4651	54	45
70.2686	70.4651	84	57
70.365	70.4651	74	49
70.4612	70.8374	55	42
70.4612	70.8374	83	62
70.553	70.7368	62	33
70.6448	70.8374	59	36
70.7368	70.8374	62	33
70.829	71.2123	52	38
70.829	71.2123	82	60
70.9214	71.1068	61	33
71.014	71.2123	55	36
71.1068	71.2123	61	33
71.1999	71.6153	53	39
71.1999	71.6153	81	57
71.2932	71.4804	60	33
71.3867	71.6153	57	37
71.4804	71.6153	60	37
71.5743	71.9595	46	31
71.5743	71.9595	58	37
71.5743	71.8527	79	60
71.6671	71.9595	86	52
71.7599	71.9595	82	52
71.8527	71.9595	79	52
71.9526	72.3323	48	31
71.9526	72.3323	57	37
71.9526	72.231	77	62
72.0454	72.3323	84	52
72.1382	72.3323	81	52
72.231	72.3323	77	52
72.3237	72.7046	46	31
72.3237	72.7046	55	37
72.3237	72.6069	76	62
72.4165	72.7046	82	52
72.5093	72.7046	79	52
72.6069	72.7046	76	52
72.7046	73.0893	45	34
72.7046	73.0893	53	40
72.7046	73.0893	77	54
72.7994	73.0793	81	57
72.8943	73.0893	84	61
72.9868	73.0893	82	60
73.0793	73.464	81	58
73.1718	73.464	79	56
73.2643	73.464	77	54
73.3568	73.464	76	52
73.4547	73.8624	57	31
73.4547	73.8624	60	37
73.4547	73.8624	74	55
73.5473	73.8624	72	51
73.6398	73.8624	70	50
73.7323	73.8624	69	50
73.8309	74.2142	58	37
73.8309	74.2142	62	44
73.8309	74.2142	67	50
73.9254	74.205	70	53
74.02	74.2142	74	56
74.1125	74.2142	72	55
74.205	74.5827	70	54
74.2975	74.5827	69	53
74.39	74.5827	67	52
74.4825	74.5827	65	50
74.575	74.95	50	31
74.575	74.95	53	31
74.575	74.95	55	37
74.575	74.95	64	49
74.6675	74.95	62	50
74.76	74.95	60	53
74.8525	74.95	59	56
74.95	75.3243	48	45
74.95	76.0925	60	59
75.0439	75.2311	57	37
75.1376	75.51	53	40
75.1376	76.0925	72	59
75.2311	75.4173	57	37
75.3243	75.695	48	45
75.3243	76.0925	77	61
75.4173	75.6025	57	37
75.51	75.88	53	40
75.51	76.0925	81	62
75.6025	75.7875	57	37
75.695	76.0713	48	48
75.695	76.0925	84	64
75.7875	75.9725	57	37
75.88	76.0925	53	41
75.88	76.0925	89	65
75.9725	76.0925	57	37
76.0713	76.4598	48	45
76.0713	76.1691	79	37
76.1203	76.2179	81	31
76.1691	76.3634	58	37
76.1691	76.2665	79	37
76.2179	76.315	81	31
76.2665	76.4662	52	40
76.2665	76.3634	79	37
76.315	76.4117	81	32
76.3634	76.4662	58	37
76.3634	76.4598	79	37
76.4117	76.4662	81	33
76.4598	76.841	48	45
76.4598	76.5558	79	37
76.5079	76.6036	81	32
76.5558	76.7464	58	37
76.5558	76.6513	79	37
76.6036	76.6989	81	32
76.6513	76.8551	52	40
76.6513	76.7464	79	37
76.6989	76.7937	81	31
76.7464	76.8551	58	37
76.7464	76.841	79	37
76.7937	76.8551	81	33
76.841	77.2478	48	48
76.841	76.9354	79	37
76.8881	76.9988	81	32
76.9354	77.1264	58	37
76.9354	77.0625	79	37
76.9988	77.2478	81	32
77.0306	77.2478	52	41
77.0625	77.1747	79	37
77.1264	77.2478	58	37
77.1264	77.223	77	33
77.1747	77.2478	79	33
77.223	77.4618	53	41
77.223	77.6523	77	49
77.4518	77.662	57	28
77.6523	77.8559	60	35
77.8462	78.0499	65	34
78.0402	78.2443	64	32
78.2342	78.4449	63	30
78.4353	78.83	62	28
78.4353	78.83	82	46
78.6275	78.83	65	21
78.8196	79.2144	60	31
78.8196	79.2144	84	50
79.0117	79.2144	65	24
79.2038	79.5956	58	31
79.2038	79.5956	86	51
79.3997	79.5956	65	25
79.5956	80.1803	57	31
79.5956	80.1803	84	51
79.7883	80.1738	65	28
79.9811	80.1803	64	31
80.1738	80.377	65	28
80.1738	80.377	86	48
80.2702	80.377	84	43
80.3666	80.7641	58	31
80.3666	80.7641	82	50
80.4629	80.7584	81	48
80.5593	80.7641	67	27
80.5593	80.7641	79	47
80.6589	80.7641	77	45
80.7584	81.5294	60	31
80.7584	81.539	81	48
80.9512	81.3367	69	27
81.1439	81.539	65	31
81.3367	81.539	69	29
81.3367	81.539	82	40
81.5294	81.9219	60	31
81.5294	81.9219	79	44
81.7221	81.9219	70	27
81.9219	82.1198	69	31
81.9219	82.3119	77	46
82.1198	82.3119	65	24
82.3119	82.504	64	30
82.504	82.6962	63	26
82.6962	82.8883	62	29
82.8883	83.0861	61	31
83.0861	83.4833	62	28
83.0861	83.4833	70	52
83.2807	83.4833	65	27
83.2807	83.4833	82	47
83.4729	83.8675	60	38
83.4729	83.8675	72	54
83.665	83.8675	64	32
83.665	83.8675	84	47
83.8571	84.2458	59	40
83.8571	84.2458	74	58
84.0492	84.2458	68	34
84.0492	84.2458	86	52
84.2458	84.8304	57	41
84.2458	84.8304	84	61
84.4385	84.824	69	35
84.4385	84.824	86	54
84.5349	84.7276	88	58
84.6312	84.8304	65	38
84.6312	84.8304	89	61
84.7276	84.8304	88	61
84.824	85.0272	69	33
84.824	85.0272	86	60
84.9204	85.0272	84	58
85.0167	85.4086	60	40
85.0167	85.4142	82	57
85.1131	85.4086	81	55
85.2095	85.4142	69	35
85.2095	85.4142	79	54
85.309	85.4142	77	52
85.4086	86.1796	60	41
85.4086	86.1892	81	62
85.6013	85.9868	69	33
85.7941	86.1892	65	43
85.9868	86.1892	69	33
85.9868	86.1892	82	56
86.1796	86.5721	60	45
86.1796	86.5721	79	62
86.3723	86.5721	70	38
86.5721	86.9701	77	67
86.671	86.9701	53	54
86.7699	86.9701	57	56
86.866	86.9701	60	59
86.962	87.3559	65	61
87.0581	87.2502	84	60
87.1542	87.3559	86	65
87.2502	87.3559	84	60
87.3463	87.7621	60	54
87.3463	87.7621	64	54
87.3463	87.5384	82	64
87.4424	87.7621	81	62
87.5384	87.7621	82	60
87.6502	87.7621	79	58
87.7621	88.16	77	68
87.861	88.16	41	54
87.9599	88.16	45	56
88.0559	88.16	48	59
88.152	88.5459	53	61
88.2481	88.4402	72	60
88.3441	88.5459	74	65
88.4402	88.5459	72	60
88.5363	88.952	48	54
88.5363	88.952	52	54
88.5363	88.7284	70	64
88.6323	88.952	69	62
88.7284	88.952	70	60
88.8402	88.952	67	58
88.952	89.6723	53	59
88.952	89.6723	65	71
89.3993	89.8466	41	59
89.3993	89.8466	69	59
89.3993	89.8466	72	59
89.3993	89.8466	77	77
90.2938	91.0612	58	40
90.2938	91.0612	70	50
91.0431	91.4681	53	36
91.0431	91.4681	65	45
91.4565	92.2225	50	40
91.4565	92.2225	62	50
92.1988	92.6176	53	38
92.1988	92.6176	65	48
92.6052	93.3713	58	41
92.6052	93.3713	70	52
93.3499	93.7455	62	43
93.3499	93.7455	74	54
93.7455	94.5351	65	45
93.7455	94.5351	77	57
94.4925	94.8605	82	58
94.6753	94.8605	74	51
94.8605	97.0446	53	30
94.8605	97.0446	60	30
94.8605	97.0446	63	36
94.8605	95.0502	77	56
95.0411	95.2314	75	52
95.2224	95.4127	74	51
95.4036	95.5939	72	49
95.5848	95.7753	70	48
95.766	95.9522	69	47
95.9522	96.1409	67	50
96.1318	96.3226	65	44
96.3136	96.5039	64	44
96.4948	96.6851	65	45
96.676	96.8666	67	47
96.8572	97.0446	69	50
97.0446	97.4079	58	32
97.0446	97.4079	62	38
97.0446	97.09	70	50
97.1808	97.2262	72	45
97.2262	97.317	70	49
97.317	97.4079	69	46
97.4079	97.4536	70	50
97.5907	97.6369	72	47
97.7753	97.8207	74	49
97.9571	98.0052	75	51
98.1498	98.3417	76	53
98.3326	98.5245	77	50
98.5153	98.7072	79	55
98.6981	98.8808	77	50
98.8808	99.2557	82	59
99.0636	99.2557	74	50
99.2557	101.473	53	30
99.2557	101.473	60	30
99.2557	101.473	63	36
99.2557	99.45	77	57
99.4407	99.6349	75	55
99.6257	99.8182	74	53
99.8091	100.002	72	51
99.9924	100.185	70	49
100.176	100.364	69	47
100.364	100.558	67	50
100.549	100.743	65	43
100.734	100.927	64	50
100.918	101.111	65	43
101.101	101.295	67	50
101.285	101.473	69	45
101.473	101.565	58	34
101.473	101.565	62	40
101.473	101.565	70	50
101.842	101.939	58	32
101.842	101.939	62	38
101.842	101.939	70	48
102.229	102.336	58	32
102.229	102.336	65	38
102.229	102.336	74	48
102.657	103.033	58	34
102.657	103.033	62	40
102.657	103.033	70	50
103.315	103.362	70	44
103.409	103.508	72	50
103.499	103.599	70	43
103.59	103.691	69	45
103.68	103.795	70	42
103.785	104.151	79	56
104.151	104.527	51	25
104.151	104.527	55	25
104.151	104.527	58	30
104.433	104.48	70	44
104.527	104.627	72	50
104.618	104.717	70	43
104.708	104.81	69	45
104.799	104.913	70	42
104.904	105.264	77	55
105.264	105.64	50	25
105.264	105.64	53	25
105.264	105.64	58	30
105.546	105.593	70	44
105.64	105.744	72	50
105.734	105.838	70	43
105.828	105.933	69	45
105.922	106.036	70	42
106.027	107.154	57	29
106.027	107.529	65	34
106.027	106.392	72	52
106.392	106.767	77	49
106.767	107.154	75	48
107.154	107.529	58	34
107.154	107.529	73	55
107.529	107.731	74	49
107.832	107.879	70	44
107.926	108.025	72	50
108.016	108.116	70	43
108.107	108.208	69	45
108.197	108.311	70	42
108.302	108.668	79	56
108.668	109.044	51	25
108.668	109.044	55	25
108.668	109.044	58	30
108.95	108.997	70	44
109.044	109.144	72	50
109.135	109.234	70	43
109.225	109.327	69	45
109.316	109.43	70	42
109.421	109.781	77	55
109.781	110.157	50	25
109.781	110.157	53	25
109.781	110.157	58	30
110.063	110.11	70	44
110.157	110.261	72	50
110.251	110.354	70	43
110.345	110.45	69	45
110.439	110.553	70	42
110.544	111.682	53	29
110.544	111.682	57	34
110.544	111.682	72	52
110.909	111.682	60	31
110.909	111.682	75	49
111.284	111.682	63	29
111.284	111.682	69	48
111.677	112.043	58	28
111.677	112.043	62	34
111.677	112.043	70	55
112.774	112.966	55	73
112.774	112.966	70	64
112.774	112.966	74	64
112.774	112.966	79	77
113.158	113.347	43	66
113.158	113.347	67	64
113.912	114.06	50	73
113.912	114.06	66	63
113.912	114.06	69	63
113.912	114.06	74	75
114.3	114.53	38	66
114.3	114.53	62	67
115.057	116.192	51	20
115.057	115.429	55	33
115.057	115.812	63	43
115.243	115.615	58	23
115.429	115.801	55	27
115.615	115.812	58	22
115.801	116.192	55	26
115.801	116.192	65	36
115.894	116.086	63	36
115.987	116.192	58	22
115.987	116.192	62	36
116.086	116.192	63	36
116.184	117.324	50	20
116.184	116.555	56	36
116.184	116.564	72	42
116.37	116.564	58	23
116.37	116.555	70	37
116.555	116.926	56	27
116.555	116.926	70	43
116.741	117.121	58	23
116.926	117.324	56	27
116.926	117.316	70	38
117.121	117.324	58	24
117.316	118.439	51	20
117.316	117.687	55	33
117.316	117.696	70	39
117.503	117.696	58	23
117.503	117.696	75	45
117.687	118.056	55	27
117.687	118.068	74	44
117.872	118.068	58	23
117.872	118.068	73	42
118.056	118.439	55	27
118.056	118.439	72	40
118.241	118.439	58	25
118.241	118.439	71	38
118.439	119.564	50	20
118.439	118.811	56	33
118.439	119.564	70	41
118.625	118.998	58	27
118.811	119.184	56	27
118.998	119.37	58	24
119.184	119.564	56	27
119.37	119.564	58	23
119.556	120.691	51	21
119.556	119.928	55	35
119.556	120.312	63	45
119.742	120.115	58	24
119.928	120.301	55	28
120.115	120.312	58	23
120.301	120.691	55	27
120.301	120.691	65	42
120.394	120.585	63	39
120.487	120.691	58	23
120.487	120.691	62	42
120.585	120.691	63	40
120.683	121.824	50	21
120.683	121.055	53	38
120.683	121.063	72	54
120.869	121.063	56	24
120.869	121.055	71	48
121.055	121.426	53	32
121.055	121.426	71	53
121.24	121.62	56	28
121.426	121.824	53	32
121.426	121.824	71	47
121.62	121.824	56	27
121.815	122.939	51	23
121.815	122.187	55	37
121.815	122.195	72	50
122.002	122.195	60	32
122.002	122.195	79	58
122.187	122.556	55	34
122.187	122.567	75	56
122.371	122.567	60	29
122.371	122.567	74	54
122.556	122.942	55	30
122.556	122.942	72	51
122.74	122.942	60	28
122.74	122.942	70	49
122.939	124.064	51	23
122.939	123.311	53	37
122.939	124.064	69	50
123.125	123.497	60	30
123.311	123.683	53	30
123.497	123.869	60	27
123.683	124.056	53	30
123.869	124.064	60	26
124.056	125.182	50	27
124.056	124.427	53	44
124.056	124.436	70	59
124.243	124.436	60	30
124.243	124.436	86	62
124.427	124.796	53	36
124.427	124.808	82	61
124.612	124.808	60	30
124.612	124.808	81	60
124.796	125.182	53	36
124.796	125.182	79	58
124.981	125.182	60	33
124.981	125.182	77	57
125.179	126.305	48	27
125.179	125.551	55	44
125.179	126.305	76	62
125.365	125.738	58	36
125.551	125.924	55	36
125.738	126.11	58	31
125.924	126.305	55	36
126.11	126.305	58	30
126.296	127.423	50	27
126.296	126.668	53	44
126.296	126.668	77	52
126.483	126.676	57	28
126.483	126.676	81	58
126.668	127.037	53	36
126.668	127.048	77	56
126.852	127.048	57	28
126.852	127.048	76	55
127.037	127.423	53	35
127.037	127.423	74	53
127.221	127.423	57	27
127.221	127.423	72	51
127.42	128.538	55	37
127.42	127.792	62	37
127.42	128.538	71	56
127.606	127.978	65	36
127.792	128.164	62	36
127.978	128.351	65	30
128.164	128.538	62	36
128.351	128.538	65	30
128.538	128.922	60	44
128.538	128.922	64	44
128.635	128.731	72	46
128.731	128.827	71	49
128.827	128.922	72	44
128.922	129.017	74	49
129.017	129.112	72	44
129.112	129.207	71	49
129.207	129.301	72	44
129.301	129.678	70	45
129.394	129.581	72	49
129.488	129.678	76	54
129.581	129.678	72	49
129.675	130.051	69	52
129.767	129.951	72	53
129.859	130.051	77	57
129.951	130.051	72	52
130.044	130.42	64	55
130.136	130.321	72	55
130.228	130.42	82	61
130.321	130.42	72	57
130.413	130.802	65	54
130.505	130.697	72	57
130.598	130.802	81	64
130.697	130.802	72	57
130.796	131.179	60	54
130.796	131.179	79	65
130.891	131.179	76	60
130.984	131.179	74	65
131.077	131.179	72	60
131.17	131.263	71	57
131.263	131.356	72	59
131.356	131.449	74	60
131.449	131.543	72	56
131.543	131.932	70	50
131.639	131.83	72	49
131.735	131.932	76	53
131.83	131.932	72	49
131.926	132.313	69	55
132.021	132.21	72	52
132.115	132.313	77	58
132.21	132.313	72	54
132.305	132.687	64	59
132.399	132.587	72	55
132.493	132.687	82	61
132.587	132.687	72	55
132.68	133.06	65	55
132.774	132.964	72	49
132.867	133.06	81	68
132.964	133.06	72	62
133.06	133.899	60	61
133.06	133.245	79	73
133.152	134.195	84	62
133.245	133.523	79	69
133.338	133.616	76	57
133.431	133.71	72	67
133.523	134.195	79	55
133.616	134.195	76	61
133.71	133.899	72	54
133.804	133.994	67	63
133.899	134.193	60	47
133.899	134.195	72	55
133.994	134.195	55	54
133.994	134.195	67	65
134.089	134.195	52	47
134.089	134.195	64	59
134.193	134.406	48	60
134.193	134.406	60	74
134.595	135.039	36	59
134.595	135.039	64	62
134.595	135.039	67	62
134.595	135.039	72	73
135.483	136.25	53	34
136.232	136.646	48	30
136.646	137.405	45	34
137.388	137.794	48	32
137.794	138.547	53	34
137.981	138.026	84	45
138.164	138.21	84	49
138.347	138.393	84	43
138.531	138.926	57	36
138.531	138.58	84	46
138.728	138.778	84	40
138.926	139.3	60	38
138.926	139.122	86	45
139.113	139.309	84	40
139.3	139.496	82	43
139.486	139.683	81	40
139.673	139.871	79	45
139.861	140.054	77	39
140.054	140.827	58	34
140.054	140.103	77	41
140.103	140.151	79	39
140.151	140.248	77	49
140.248	140.435	76	44
140.435	140.81	76	46
140.81	141.223	55	30
141.223	141.982	52	34
141.965	142.372	55	32
142.372	143.124	58	34
142.558	142.604	82	45
142.741	142.787	82	48
142.925	142.97	82	42
143.108	143.504	64	36
143.108	143.157	82	44
143.306	143.355	82	40
143.504	143.877	67	38
143.504	143.7	84	45
143.69	143.886	82	40
143.877	144.073	81	40
144.064	144.26	79	40
144.251	144.448	77	45
144.437	144.645	76	39
144.645	145.015	69	35
144.645	145.389	77	47
144.83	145.2	72	28
145.015	145.382	69	35
145.2	145.389	72	25
145.2	145.389	81	47
145.382	145.76	69	32
145.382	145.76	79	45
145.564	145.76	72	24
145.564	145.76	77	40
145.755	146.125	70	35
145.755	146.501	76	47
145.94	146.31	72	31
146.125	146.493	70	35
146.31	146.501	72	26
146.31	146.501	86	52
146.493	146.866	70	33
146.493	146.866	84	47
146.675	146.866	72	29
146.675	146.866	76	42
146.866	147.235	69	35
146.866	147.612	77	47
147.05	147.419	72	30
147.235	147.601	69	32
147.419	147.612	72	24
147.419	147.612	81	47
147.601	147.975	69	32
147.601	147.975	79	45
147.783	147.975	72	25
147.783	147.975	77	40
147.975	148.344	70	35
147.975	148.719	76	47
148.16	148.529	72	31
148.344	148.711	70	35
148.529	148.719	72	26
148.529	148.719	86	52
148.711	149.084	70	33
148.711	149.084	84	47
148.893	149.084	72	29
148.893	149.084	76	42
149.084	149.452	69	35
149.084	149.832	77	47
149.268	149.641	72	30
149.452	149.823	69	32
149.641	149.832	72	28
149.641	149.832	84	55
149.823	150.195	69	38
149.823	150.201	81	53
150.004	150.201	72	31
150.004	150.201	79	50
150.195	151.305	62	40
150.195	150.564	69	40
150.195	150.941	78	56
150.38	150.749	72	34
150.564	150.931	69	38
150.749	150.941	72	32
150.749	150.941	87	58
150.931	151.305	69	39
150.931	151.305	86	52
151.113	151.305	72	32
151.113	151.305	78	48
151.305	151.681	67	39
151.305	151.681	70	39
151.305	151.681	81	56
151.489	151.681	79	51
151.673	152.051	64	35
151.673	152.412	72	35
151.673	152.051	84	55
151.854	152.051	83	51
152.042	152.412	65	35
152.042	152.412	82	50
152.223	152.412	81	49
152.412	152.8	58	43
152.412	152.8	70	43
152.412	152.8	79	54
152.69	152.8	81	48
152.79	153.582	60	40
152.79	153.582	69	40
152.79	153.234	77	54
153.17	153.582	67	40
153.17	153.297	76	50
153.234	153.361	77	44
153.297	153.408	76	50
153.361	153.551	77	44
153.408	153.503	76	50
153.456	153.582	74	42
153.503	153.582	76	45
153.551	153.955	65	40
153.551	153.955	77	49
153.644	153.831	72	46
153.737	153.955	71	49
153.831	153.955	72	44
153.924	154.017	74	49
154.017	154.121	72	44
154.11	154.301	57	48
154.11	154.301	71	49
154.201	154.301	72	44
154.292	154.48	55	52
154.292	154.48	70	49
154.383	154.48	72	49
154.474	154.696	53	48
154.474	154.696	69	54
154.57	154.696	72	49
154.665	155.069	52	46
154.665	155.069	67	49
154.759	154.945	72	46
154.852	155.069	71	49
154.945	155.069	72	44
155.038	155.132	74	49
155.132	155.236	72	44
155.225	155.415	62	45
155.225	155.415	71	49
155.316	155.415	72	44
155.407	155.595	60	50
155.407	155.589	82	49
155.498	155.595	72	49
155.589	155.811	52	45
155.589	155.811	82	54
155.685	155.811	72	49
155.78	156.184	53	40
155.78	156.184	81	49
155.873	156.06	72	46
155.967	156.184	71	49
156.06	156.184	72	44
156.153	156.246	74	49
156.246	156.351	72	44
156.339	156.53	57	49
156.339	156.53	71	49
156.43	156.53	72	44
156.521	156.709	55	53
156.521	156.709	70	49
156.613	156.709	72	49
156.704	156.926	53	47
156.704	156.926	69	54
156.799	156.926	72	49
156.895	157.299	52	55
156.895	157.299	67	49
156.988	157.175	72	46
157.081	157.299	71	49
157.175	157.299	72	44
157.268	157.361	74	49
157.361	157.465	72	44
157.454	157.644	62	45
157.454	157.644	71	49
157.545	157.644	72	44
157.636	157.824	60	50
157.636	157.818	82	49
157.727	157.824	72	49
157.818	158.04	52	45
157.818	158.04	82	54
157.914	158.04	72	49
158.009	158.413	53	40
158.009	158.413	81	49
158.103	158.289	72	46
158.196	158.413	71	49
158.289	158.413	72	44
158.382	158.475	74	49
158.475	158.58	72	44
158.568	158.759	60	49
158.568	158.759	71	49
158.66	158.759	72	44
158.751	158.94	57	54
158.751	158.94	75	49
158.843	158.94	72	49
158.935	159.157	55	45
158.935	159.157	70	54
159.03	159.157	72	49
159.125	159.531	54	50
159.125	159.531	69	49
159.219	159.406	74	46
159.312	159.531	73	49
159.406	159.531	74	44
159.499	159.595	76	49
159.595	159.703	74	44
159.691	159.882	63	45
159.691	159.882	73	52
159.782	159.882	74	44
159.874	160.064	62	50
159.874	160.059	84	55
159.966	160.064	74	49
160.059	160.255	54	45
160.059	160.255	84	57
160.155	160.255	74	49
160.251	160.627	55	42
160.251	160.627	83	62
160.343	160.527	62	33
160.435	160.627	59	36
160.527	160.627	62	33
160.619	161.002	52	38
160.619	161.002	82	60
160.711	160.897	61	33
160.804	161.002	55	36
160.897	161.002	61	33
160.99	161.405	53	39
160.99	161.405	81	57
161.083	161.27	60	33
161.177	161.405	57	37
161.27	161.405	60	37
161.364	161.75	46	31
161.364	161.75	58	37
161.364	161.643	79	60
161.457	161.75	86	52
161.55	161.75	82	52
161.643	161.75	79	52
161.743	162.122	48	31
161.743	162.122	57	37
161.743	162.021	77	62
161.835	162.122	84	52
161.928	162.122	81	52
162.021	162.122	77	52
162.114	162.495	46	31
162.114	162.495	55	37
162.114	162.397	76	62
162.207	162.495	82	52
162.299	162.495	79	52
162.397	162.495	76	52
162.495	162.879	45	34
162.495	162.879	53	40
162.495	162.879	77	54
162.589	162.869	81	57
162.684	162.879	84	61
162.777	162.879	82	60
162.869	163.254	81	58
162.962	163.254	79	56
163.054	163.254	77	54
163.147	163.254	76	52
163.245	163.652	57	31
163.245	163.652	60	37
163.245	163.652	74	55
163.337	163.652	72	51
163.43	163.652	70	50
163.522	163.652	69	50
163.621	164.004	58	37
163.621	164.004	62	44
163.621	164.004	67	50
163.715	163.995	70	53
163.81	164.004	74	56
163.902	164.004	72	55
163.995	164.373	70	54
164.087	164.373	69	53
164.18	164.373	67	52
164.273	164.373	65	50
164.365	164.74	50	31
164.365	164.74	53	31
164.365	164.74	55	37
164.365	164.74	64	49
164.458	164.74	62	50
164.55	164.74	60	53
164.643	164.74	59	56
164.74	165.114	48	45
164.74	165.883	60	59
164.834	165.021	57	37
164.928	165.3	53	40
164.928	165.883	72	59
165.021	165.207	57	37
165.114	165.485	48	45
165.114	165.883	77	61
165.207	165.392	57	37
165.3	165.67	53	40
165.3	165.883	81	62
165.392	165.578	57	37
165.485	165.861	48	48
165.485	165.883	84	64
165.578	165.763	57	37
165.67	165.883	53	41
165.67	165.883	89	65
165.763	165.883	57	37
165.861	166.25	48	45
165.861	165.959	79	37
165.91	166.008	81	31
165.959	166.153	58	37
165.959	166.057	79	37
166.008	166.105	81	31
166.057	166.256	52	40
166.057	166.153	79	37
166.105	166.202	81	32
166.153	166.256	58	37
166.153	166.25	79	37
166.202	166.256	81	33
166.25	166.631	48	45
166.25	166.346	79	37
166.298	166.394	81	32
166.346	166.536	58	37
166.346	166.441	79	37
166.394	166.489	81	32
166.441	166.645	52	40
166.441	166.536	79	37
166.489	166.584	81	31
166.536	166.645	58	37
166.536	166.631	79	37
166.584	166.645	81	33
166.631	167.038	48	48
166.631	166.725	79	37
166.678	166.789	81	32
166.725	166.916	58	37
166.725	166.852	79	37
166.789	167.038	81	32
166.821	167.038	52	41
166.852	166.965	79	37
166.916	167.038	58	37
166.916	167.013	77	33
166.965	167.038	79	33
167.013	167.252	53	41
167.013	167.442	77	49
167.242	167.452	57	28
167.442	167.648	60	35
167.638	167.844	65	34
167.834	168.038	64	32
168.028	168.239	63	30
168.23	168.624	62	28
168.23	168.624	82	46
168.422	168.624	65	21
168.614	169.009	60	31
168.614	169.009	84	50
168.806	169.009	65	24
168.998	169.39	58	31
168.998	169.39	86	51
169.194	169.39	65	25
169.39	169.974	57	31
169.39	169.974	84	51
169.583	169.968	65	28
169.775	169.974	64	31
169.968	170.171	65	28
169.968	170.171	86	48
170.064	170.171	84	43
170.161	170.558	58	31
170.161	170.558	82	50
170.257	170.553	81	48
170.354	170.558	67	27
170.354	170.558	79	47
170.453	170.558	77	45
170.553	171.324	60	31
170.553	171.333	81	48
170.745	171.131	69	27
170.938	171.333	65	31
171.131	171.333	69	29
171.131	171.333	82	40
171.324	171.716	60	31
171.324	171.716	79	44
171.516	171.716	70	27
171.716	171.914	69	31
171.716	172.106	77	46
171.914	172.106	65	24
172.106	172.298	64	30
172.298	172.49	63	26
172.49	172.682	62	29
172.682	172.88	61	31
172.88	173.277	62	28
172.88	173.277	70	52
173.075	173.277	65	27
173.075	173.277	82	47
173.267	173.662	60	38
173.267	173.662	72	54
173.459	173.662	64	32
173.459	173.662	84	47
173.651	174.04	59	40
173.651	174.04	74	58
173.843	174.04	68	34
173.843	174.04	86	52
174.04	174.625	57	41
174.04	174.625	84	61
174.233	174.618	69	35
174.233	174.618	86	54
174.329	174.522	88	58
174.425	174.625	65	38
174.425	174.625	89	61
174.522	174.625	88	61
174.618	174.821	69	33
174.618	174.821	86	60
174.715	174.821	84	58
174.811	175.203	60	40
174.811	175.208	82	57
174.907	175.203	81	55
175.004	175.208	69	35
175.004	175.208	79	54
175.103	175.208	77	52
175.203	175.974	60	41
175.203	175.983	81	62
175.396	175.781	69	33
175.588	175.983	65	43
175.781	175.983	69	33
175.781	175.983	82	56
175.974	176.366	60	45
175.974	176.366	79	62
176.167	176.366	70	38
176.366	176.764	77	67
176.465	176.764	53	54
176.564	176.764	57	56
176.66	176.764	60	59
176.756	177.148	65	61
176.852	177.044	84	60
176.948	177.148	86	65
177.044	177.148	84	60
177.139	177.553	60	54
177.139	177.553	64	54
177.139	177.329	82	64
177.234	177.553	81	62
177.329	177.553	82	60
177.441	177.553	79	58
177.553	177.951	77	68
177.652	177.951	41	54
177.751	177.951	45	56
177.847	177.951	48	59
177.943	178.335	53	61
178.039	178.23	72	60
178.135	178.335	74	65
178.23	178.335	72	60
178.326	178.741	48	54
178.326	178.741	52	54
178.326	178.517	70	64
178.421	178.741	69	62
178.517	178.741	70	60
178.629	178.741	67	58
178.741	179.461	53	59
178.741	179.461	65	71
179.188	179.635	41	59
179.188	179.635	69	59
179.188	179.635	72	59
179.188	179.635	77	77
180.082	180.864	51	59
180.082	180.864	66	71
180.568	181.053	39	59
180.568	181.053	68	59
180.568	181.053	72	59
180.568	181.053	78	77
181.538	182.673	49	20
181.538	181.91	53	33
181.538	182.294	61	43
181.724	182.097	56	23
181.91	182.283	53	27
182.097	182.294	56	22
182.283	182.673	53	26
182.283	182.673	63	36
182.376	182.567	61	36
182.469	182.673	56	22
182.469	182.673	60	36
182.567	182.673	61	36
182.665	183.806	48	20
182.665	183.037	54	36
182.665	183.045	70	42
182.851	183.045	56	23
182.851	183.037	68	37
183.037	183.408	54	27
183.037	183.408	68	43
183.222	183.602	56	23
183.408	183.806	54	27
183.408	183.797	68	38
183.602	183.806	56	24
183.797	184.92	49	20
183.797	184.169	53	33
183.797	184.177	68	39
183.984	184.177	56	23
183.984	184.177	73	45
184.169	184.537	53	27
184.169	184.548	72	44
184.353	184.548	56	23
184.353	184.548	71	41
184.537	184.92	53	27
184.537	184.92	70	40
184.721	184.92	56	25
184.721	184.92	69	38
184.92	186.044	48	20
184.92	185.292	54	31
184.92	186.044	68	41
185.106	185.478	56	27
185.292	185.664	54	27
185.478	185.85	56	24
185.664	186.044	54	27
185.85	186.044	56	23
186.037	187.172	49	21
186.037	186.409	53	35
186.037	186.792	61	45
186.223	186.595	56	24
186.409	186.781	53	28
186.595	186.792	56	23
186.781	187.172	53	27
186.781	187.172	63	42
186.874	187.066	61	39
186.967	187.172	56	23
186.967	187.172	60	42
187.066	187.172	61	40
187.164	188.304	48	21
187.164	187.535	51	38
187.164	187.544	70	54
187.35	187.544	54	24
187.35	187.535	69	48
187.535	187.906	51	32
187.535	187.906	69	53
187.721	188.101	54	28
187.906	188.304	51	32
187.906	188.304	69	47
188.101	188.304	54	27
188.296	189.422	49	23
188.296	188.667	53	37
188.296	188.676	70	50
188.483	188.676	58	32
188.483	188.676	77	54
188.667	189.036	53	34
188.667	189.048	73	55
188.852	189.048	58	29
188.852	189.048	72	53
189.036	189.422	53	30
189.036	189.422	70	51
189.221	189.419	58	28
189.221	189.422	68	50
189.419	190.545	52	23
189.419	189.791	58	37
189.419	190.545	67	50
189.605	189.978	61	30
189.791	190.164	58	30
189.978	190.35	61	27
190.164	190.545	58	30
190.35	190.545	61	26
190.536	191.662	53	25
190.536	190.908	56	40
190.536	190.916	68	59
190.723	190.916	60	28
190.723	190.916	80	62
190.908	191.276	56	33
190.908	191.287	77	61
191.092	191.287	60	28
191.092	191.287	75	60
191.276	191.662	56	36
191.276	191.662	74	58
191.46	191.659	62	32
191.46	191.662	72	57
191.659	192.784	55	36
191.659	192.031	62	36
191.659	192.784	71	62
191.845	192.217	65	29
192.031	192.403	62	34
192.217	192.589	65	28
192.403	192.784	62	35
192.589	192.784	65	28
192.776	193.901	56	42
192.776	193.147	60	42
192.776	193.156	72	61
192.963	193.156	63	26
192.963	193.156	87	64
193.147	193.516	60	38
193.147	193.528	84	61
193.332	193.528	63	31
193.332	193.528	82	60
193.516	193.898	60	38
193.516	193.901	80	55
193.7	193.901	63	35
193.7	193.901	79	56
193.898	195.025	57	41
193.898	194.27	60	41
193.898	195.025	78	60
194.084	194.457	62	33
194.27	194.643	60	37
194.457	194.829	62	28
194.643	195.025	60	35
194.829	195.017	62	28
195.017	196.144	58	22
195.017	195.389	62	36
195.017	195.389	79	58
195.204	195.397	67	29
195.204	195.397	82	60
195.389	195.758	62	34
195.389	195.769	79	58
195.573	195.769	67	28
195.573	195.769	77	55
195.758	196.144	62	34
195.758	196.144	75	53
195.942	196.14	67	27
195.942	196.144	74	50
196.14	197.259	63	29
196.14	196.513	67	36
196.14	197.259	73	57
196.327	196.699	69	28
196.513	196.885	67	34
196.699	197.071	69	27
196.885	197.259	67	34
197.071	197.259	69	25
197.259	197.643	62	44
197.259	197.643	66	44
197.356	197.452	74	46
197.452	197.548	73	49
197.548	197.643	74	44
197.643	197.738	76	49
197.738	197.833	74	44
197.833	197.927	73	49
197.927	198.021	74	44
198.021	198.399	72	47
198.115	198.302	74	49
198.209	198.399	78	54
198.302	198.399	74	49
198.395	198.775	70	51
198.488	198.675	74	53
198.581	198.775	79	57
198.675	198.775	74	52
198.768	199.145	66	58
198.86	199.045	74	55
198.953	199.145	84	61
199.045	199.145	74	57
199.138	199.527	67	54
199.231	199.422	74	57
199.323	199.527	82	64
199.422	199.527	74	57
199.522	199.904	62	53
199.522	199.904	81	64
199.616	199.904	78	57
199.709	199.904	76	63
199.802	199.904	74	57
199.895	199.988	73	57
199.988	200.081	74	59
200.081	200.174	76	60
200.174	200.269	74	56
200.269	200.657	72	48
200.364	200.555	74	49
200.46	200.657	78	53
200.555	200.657	74	49
200.651	201.038	70	57
200.746	200.935	74	52
200.841	201.038	79	58
200.935	201.038	74	54
201.03	201.412	66	59
201.124	201.312	74	55
201.218	201.412	84	61
201.312	201.412	74	55
201.406	201.785	67	54
201.499	201.689	74	49
201.592	201.785	82	68
201.689	201.785	74	62
201.785	202.624	62	58
201.785	201.97	81	70
201.877	202.92	86	60
201.97	202.248	81	69
202.063	202.342	78	57
202.156	202.435	74	67
202.248	202.92	81	55
202.342	202.92	78	61
202.435	202.624	74	54
202.529	202.719	69	63
202.624	202.918	62	47
202.624	202.92	74	55
202.719	202.92	57	54
202.719	202.92	69	65
202.814	202.92	54	47
202.814	202.92	66	59
202.918	203.131	50	60
202.918	203.131	62	74
203.32	203.764	38	59
203.32	203.764	66	62
203.32	203.764	69	62
203.32	203.764	74	73
204.208	204.975	55	34
204.957	205.371	50	30
205.371	206.13	47	34
206.113	206.52	50	32
206.52	207.272	55	34
206.706	206.752	86	45
206.889	206.935	86	49
207.072	207.118	86	43
207.256	207.651	59	36
207.256	207.305	86	46
207.453	207.503	86	40
207.651	208.025	62	38
207.651	207.847	87	45
207.838	208.034	86	40
208.025	208.221	84	43
208.212	208.408	83	40
208.398	208.596	80	45
208.586	208.78	79	39
208.78	209.552	55	34
208.78	208.828	79	41
208.828	208.876	80	39
208.876	208.973	79	49
208.973	209.16	77	44
209.16	209.535	77	46
209.535	209.948	50	30
209.948	210.708	47	34
210.691	211.097	50	32
211.097	211.85	55	34
211.283	211.329	77	45
211.466	211.512	77	48
211.65	211.696	77	42
211.833	212.229	59	36
211.833	211.882	77	44
212.031	212.08	77	40
212.229	212.602	62	38
212.229	212.425	79	45
212.415	212.611	77	40
212.602	212.798	75	40
212.789	212.985	74	40
212.976	213.173	72	45
213.162	213.37	71	39
213.37	214.136	72	48
214.119	214.532	67	42
214.532	215.292	63	48
215.275	215.681	67	45
215.681	216.434	72	50
215.867	215.913	55	39
216.051	216.096	55	42
216.234	216.28	55	37
216.417	216.467	55	39
216.417	216.813	75	52
216.615	216.664	55	35
216.813	217.009	56	39
216.813	217.186	79	56
217.0	217.196	55	35
217.186	217.382	53	37
217.373	217.569	51	35
217.56	217.757	50	39
217.748	217.941	48	34
217.941	218.134	48	35
217.941	218.714	76	58
218.134	218.322	46	38
218.322	218.696	46	39
218.696	219.11	72	52
219.11	219.869	67	55
219.852	220.258	72	49
220.258	221.011	76	53
220.445	220.49	58	39
220.628	220.674	58	41
220.811	220.857	58	36
220.995	221.044	58	38
220.995	221.39	79	54
221.192	221.242	58	35
221.39	221.586	60	39
221.39	221.764	82	58
221.577	221.773	58	35
221.764	221.958	56	35
221.949	222.143	55	35
222.134	222.329	53	39
222.319	222.526	52	34
222.526	223.279	53	40
222.712	222.758	80	45
222.896	222.941	80	49
223.079	223.125	80	43
223.262	223.312	80	46
223.46	223.51	80	40
223.658	224.784	58	28
223.658	224.031	62	28
223.658	224.031	65	34
223.658	223.854	82	45
223.845	224.041	80	40
224.031	224.403	63	28
224.031	224.403	67	34
224.031	224.226	79	43
224.217	224.412	77	40
224.403	224.784	65	28
224.403	224.784	69	34
224.403	224.6	75	45
224.59	224.784	74	39
224.784	225.153	63	28
224.784	225.153	67	34
224.97	225.016	79	45
225.153	225.199	79	49
225.337	225.382	79	43
225.52	225.569	79	46
225.718	225.767	79	40
225.916	227.04	56	28
225.916	226.289	60	28
225.916	226.289	63	34
225.916	226.112	80	45
226.102	226.298	79	40
226.289	226.659	62	28
226.289	226.659	65	34
226.289	226.483	77	43
226.474	226.668	75	40
226.659	227.04	63	28
226.659	227.04	67	34
226.659	226.857	74	45
226.847	227.04	72	39
227.04	227.41	62	28
227.04	227.41	65	34
227.227	227.272	77	45
227.41	227.456	77	49
227.593	227.639	77	43
227.776	227.826	77	46
227.974	228.024	77	40
228.172	229.297	55	28
228.172	228.546	59	28
228.172	228.546	62	34
228.172	228.368	79	51
228.359	228.555	77	50
228.546	228.916	60	28
228.546	228.916	63	34
228.546	228.74	75	49
228.731	228.925	74	48
228.916	229.297	62	28
228.916	229.297	65	34
228.916	229.113	72	47
229.104	229.297	71	47
229.297	229.67	60	30
229.297	229.67	63	37
229.297	229.493	77	56
229.484	229.68	75	54
229.67	229.865	74	52
229.855	230.05	72	51
230.04	230.422	53	30
230.04	230.422	63	37
230.04	230.238	70	49
230.228	230.422	69	47
230.422	230.795	55	30
230.422	230.795	62	37
230.422	230.618	84	60
230.608	230.804	82	58
230.795	230.989	81	56
230.98	231.175	79	54
231.165	231.546	63	30
231.165	231.546	67	37
231.165	231.363	77	54
231.353	231.546	76	57
231.546	231.923	77	61
231.74	231.786	65	42
231.923	231.969	65	45
232.106	232.152	65	39
232.29	232.339	65	41
232.29	232.685	69	45
232.29	232.685	75	55
232.488	232.537	65	38
232.685	232.881	66	42
232.685	233.059	70	45
232.685	233.059	73	60
232.872	233.068	65	38
233.059	233.253	63	38
233.244	233.438	61	38
233.429	233.624	60	42
233.429	233.821	73	45
233.429	233.821	82	55
233.614	233.821	58	37
233.821	234.198	72	45
233.821	234.198	81	61
234.015	234.061	53	42
234.198	234.244	53	45
234.381	234.427	53	39
234.565	234.614	53	41
234.565	234.96	63	45
234.565	234.96	69	55
234.762	234.812	53	38
234.96	235.156	54	42
234.96	235.334	61	45
234.96	235.334	70	60
235.147	235.343	53	38
235.334	235.528	51	38
235.519	235.713	49	38
235.704	235.899	48	42
235.704	236.096	58	45
235.704	236.096	61	55
235.889	236.096	46	37
236.096	236.487	41	42
236.096	236.304	57	45
236.096	236.304	60	60
236.304	236.349	65	45
236.487	236.533	65	49
236.67	236.716	65	43
236.854	236.903	65	46
237.051	237.101	65	40
237.249	240.028	53	29
237.249	240.028	57	29
237.249	240.028	63	37
237.249	237.436	64	44
237.436	237.63	65	40
237.63	237.818	67	45
237.818	238.012	65	40
238.012	238.203	70	43
238.203	238.4	69	40
238.4	238.59	74	44
238.59	238.791	72	40
238.791	238.986	75	45
238.986	239.196	74	40
239.196	239.397	79	45
239.397	239.607	77	40
239.607	240.246	77	45
240.246	240.463	76	40
240.463	240.681	75	43
240.681	240.904	72	40
240.904	241.672	58	33
240.904	241.672	70	48
241.654	242.079	53	31
241.654	242.079	65	41
242.067	242.833	50	37
242.067	242.833	62	48
242.809	243.228	53	38
242.809	243.228	65	44
243.216	243.982	58	41
243.216	243.982	70	48
243.96	244.356	62	43
243.96	244.356	74	51
244.356	245.146	65	43
244.356	245.146	77	56
245.103	245.476	82	58
245.286	245.476	74	51
245.476	247.662	53	30
245.476	247.662	60	30
245.476	247.662	63	36
245.476	245.665	77	56
245.656	245.846	75	52
245.837	246.027	74	51
246.018	246.208	72	49
246.199	246.39	70	48
246.38	246.566	69	47
246.566	246.757	67	50
246.748	246.939	65	44
246.93	247.12	64	44
247.111	247.302	65	45
247.293	247.484	67	47
247.475	247.662	69	50
247.662	248.025	58	32
247.662	248.025	62	38
247.662	247.707	70	50
247.798	247.844	72	45
247.844	247.934	70	49
247.934	248.025	69	46
248.025	248.071	70	50
248.207	248.253	72	47
248.391	248.436	74	49
248.572	248.62	75	51
248.765	248.957	76	53
248.948	249.14	77	50
249.13	249.322	79	55
249.313	249.496	77	50
249.496	249.871	82	59
249.679	249.871	74	50
249.871	252.088	53	30
249.871	252.088	60	30
249.871	252.088	63	36
249.871	250.065	77	57
250.056	250.25	75	55
250.241	250.433	74	53
250.424	250.617	72	51
250.608	250.8	70	49
250.791	250.979	69	47
250.979	251.173	67	50
251.164	251.358	65	43
251.349	251.542	64	50
251.533	251.726	65	43
251.717	251.91	67	50
251.9	252.088	69	45
252.088	252.181	58	34
252.088	252.181	62	40
252.088	252.181	70	50
252.457	252.554	58	32
252.457	252.554	62	38
252.457	252.554	70	48
252.844	252.951	58	32
252.844	252.951	65	38
252.844	252.951	74	48
253.272	253.648	58	34
253.272	253.648	62	40
253.272	253.648	70	50
253.93	253.977	70	44
254.024	254.123	72	50
254.114	254.214	70	43
254.205	254.306	69	45
254.295	254.41	70	42
254.401	254.766	79	56
254.766	255.142	51	25
254.766	255.142	55	25
254.766	255.142	58	30
255.048	255.095	70	44
255.142	255.242	72	50
255.233	255.333	70	43
255.324	255.425	69	45
255.414	255.529	70	42
255.52	255.88	77	55
255.88	256.255	50	25
255.88	256.255	53	25
255.88	256.255	58	30
256.161	256.208	70	44
256.255	256.359	72	50
256.349	256.453	70	43
256.443	256.548	69	45
256.537	256.652	70	42
256.642	257.769	57	29
256.642	258.144	65	34
256.642	257.007	72	52
257.007	257.383	77	49
257.383	257.769	75	48
257.769	258.144	58	34
257.769	258.144	73	55
258.144	258.346	74	49
258.447	258.494	70	44
258.541	258.64	72	50
258.631	258.731	70	43
258.722	258.823	69	45
258.812	258.927	70	42
258.917	259.283	79	56
259.283	259.659	51	25
259.283	259.659	55	25
259.283	259.659	58	30
259.565	259.612	70	44
259.659	259.759	72	50
259.75	259.85	70	43
259.84	259.942	69	45
259.931	260.045	70	42
260.036	260.396	77	55
260.396	260.772	50	25
260.396	260.772	53	25
260.396	260.772	58	30
260.678	260.725	70	44
260.772	260.876	72	50
260.866	260.97	70	43
260.96	261.065	69	45
261.054	261.168	70	42
261.159	262.297	53	29
261.159	262.297	57	34
261.159	262.297	72	52
261.524	262.297	60	31
261.524	262.297	75	49
261.9	262.297	63	29
261.9	262.297	69	48
262.293	262.658	58	28
262.293	262.658	62	34
262.293	262.658	70	55
263.389	263.581	55	73
263.389	263.581	70	64
263.389	263.581	74	64
263.389	263.581	79	77
263.773	263.962	43	66
263.773	263.962	67	64
264.527	264.675	50	73
264.527	264.675	66	63
264.527	264.675	69	63
264.527	264.675	74	75
264.915	265.145	38	66
264.915	265.145	62	67
265.672	266.807	51	20
265.672	266.044	55	33
265.672	266.427	63	43
265.858	266.23	58	23
266.044	266.416	55	27
266.23	266.427	58	22
266.416	266.807	55	26
266.416	266.807	65	36
266.51	266.701	63	36
266.603	266.807	58	22
266.603	266.807	62	36
266.701	266.807	63	36
266.799	267.939	50	20
266.799	267.17	56	36
266.799	267.179	72	42
266.985	267.179	58	23
266.985	267.17	70	37
267.17	267.541	56	27
267.17	267.541	70	43
267.356	267.736	58	23
267.541	267.939	56	27
267.541	267.931	70	38
267.736	267.939	58	24
267.931	269.051	51	20
267.931	268.302	55	33
267.931	268.311	70	39
268.118	268.311	58	23
268.118	268.311	75	45
268.302	268.668	55	27
268.302	268.68	74	44
268.485	268.68	58	23
268.485	268.68	73	42
268.668	269.051	55	27
268.668	269.051	72	40
268.853	269.051	58	25
268.853	269.051	71	38
269.051	270.176	50	20
269.051	269.423	56	33
269.051	270.176	70	41
269.237	269.61	58	27
269.423	269.796	56	27
269.61	269.982	58	24
269.796	270.176	56	27
269.982	270.176	58	23
270.168	271.303	51	21
270.168	270.54	55	35
270.168	270.924	63	45
270.354	270.727	58	24
270.54	270.913	55	28
270.727	270.924	58	23
270.913	271.303	55	27
270.913	271.303	65	42
271.006	271.197	63	39
271.099	271.303	58	23
271.099	271.303	62	42
271.197	271.303	63	40
271.295	272.436	50	21
271.295	271.667	53	38
271.295	271.675	72	54
271.481	271.675	56	24
271.481	271.667	71	48
271.667	272.038	53	32
271.667	272.038	71	53
271.852	272.232	56	28
272.038	272.436	53	32
272.038	272.436	71	47
272.232	272.436	56	27
272.427	273.554	51	23
272.427	272.799	55	37
272.427	272.807	72	50
272.614	272.807	60	32
272.614	272.807	79	58
272.799	273.168	55	34
272.799	273.179	75	56
272.983	273.179	60	29
272.983	273.179	74	54
273.168	273.554	55	30
273.168	273.554	72	51
273.352	273.551	60	28
273.352	273.554	70	49
273.551	274.676	54	23
273.551	273.923	60	37
273.551	274.676	69	50
273.737	274.109	63	30
273.923	274.295	60	30
274.109	274.481	63	27
274.295	274.676	60	30
274.481	274.676	63	26
274.668	275.791	55	27
274.668	275.039	58	44
274.668	275.048	70	59
274.855	275.048	62	30
274.855	275.048	86	62
275.039	275.405	58	36
275.039	275.417	82	61
275.222	275.417	62	30
275.222	275.417	81	60
275.405	275.791	58	36
275.405	275.791	79	58
275.59	275.791	62	33
275.59	275.791	77	57
275.788	276.905	60	27
275.788	276.16	67	44
275.788	276.905	76	62
275.974	276.347	70	36
276.16	276.533	67	36
276.347	276.719	70	31
276.533	276.905	67	36
276.719	276.905	70	30
276.905	277.287	65	44
276.905	277.287	69	44
277.0	277.096	77	46
277.096	277.192	76	49
277.192	277.287	77	44
277.287	277.382	79	49
277.382	277.477	77	44
277.477	277.571	76	49
277.571	277.665	77	44
277.665	278.043	75	46
277.759	277.946	77	49
277.853	278.043	81	54
277.946	278.043	77	49
278.039	278.419	74	52
278.132	278.319	77	53
278.225	278.419	82	57
278.319	278.419	77	52
278.412	278.788	69	56
278.504	278.688	77	55
278.596	278.788	87	61
278.688	278.788	77	57
278.781	279.17	70	53
278.873	279.065	77	57
278.965	279.17	86	64
279.065	279.17	77	57
279.164	279.547	65	59
279.164	279.547	84	65
279.258	279.547	81	60
279.351	279.547	79	65
279.444	279.547	77	60
279.537	279.631	76	57
279.631	279.724	77	59
279.724	279.817	79	60
279.817	279.911	77	56
279.911	280.299	75	51
280.007	280.198	77	49
280.102	280.299	81	53
280.198	280.299	77	49
280.293	280.68	74	57
280.388	280.578	77	52
280.483	280.68	82	58
280.578	280.68	77	54
280.672	281.054	69	59
280.766	280.954	77	55
280.86	281.054	87	61
280.954	281.054	77	55
281.048	281.427	70	54
281.141	281.331	77	49
281.234	281.427	86	68
281.331	281.427	77	62
281.427	282.266	65	62
281.427	281.612	84	73
281.52	282.562	89	62
281.612	281.891	84	69
281.705	281.984	81	57
281.798	282.077	77	67
281.891	282.562	84	55
281.984	282.562	81	61
282.077	282.266	77	54
282.171	282.361	72	63
282.266	282.56	65	47
282.266	282.562	77	55
282.361	282.562	60	54
282.361	282.562	72	65
282.457	282.562	57	47
282.457	282.562	69	59
282.56	282.773	53	60
282.56	282.773	65	74
282.963	283.406	41	59
282.963	283.406	69	62
282.963	283.406	72	62
282.963	283.406	77	73
283.85	284.617	58	34
284.6	285.013	53	30
285.013	285.772	50	34
285.755	286.162	53	32
286.162	286.914	58	34
286.348	286.394	77	45
286.531	286.577	77	49
286.715	286.76	77	43
286.898	287.294	62	36
286.898	286.947	77	46
287.096	287.145	77	40
287.294	287.667	65	38
287.294	287.49	79	45
287.48	287.676	77	40
287.667	287.863	75	43
287.854	288.05	74	40
288.04	288.238	72	45
288.228	288.422	70	39
288.422	289.194	51	34
288.422	288.47	70	41
288.47	288.518	72	39
288.518	288.615	70	49
288.615	288.802	69	44
288.802	289.177	69	46
289.177	289.59	48	30
289.59	290.35	45	34
290.333	290.739	48	32
290.739	291.492	51	34
290.925	290.971	75	45
291.109	291.154	75	48
291.292	291.338	75	42
291.475	291.871	57	36
291.475	291.525	75	44
291.673	291.723	75	40
291.871	292.244	60	38
291.871	292.067	77	45
292.058	292.254	75	40
292.244	292.44	74	40
292.431	292.627	72	40
292.618	292.815	70	45
292.805	293.012	69	39
293.012	293.382	62	35
293.012	293.757	70	47
293.197	293.567	65	28
293.382	293.75	62	35
293.567	293.757	65	25
293.567	293.757	74	47
293.75	294.128	62	32
293.75	294.128	72	45
293.933	294.128	65	24
293.933	294.128	70	40
294.123	294.493	63	35
294.123	294.869	69	47
294.308	294.679	65	31
294.493	294.861	63	35
294.679	294.869	65	26
294.679	294.869	79	52
294.861	295.235	63	33
294.861	295.235	77	47
295.044	295.235	65	29
295.044	295.235	69	42
295.235	295.604	62	35
295.235	295.981	70	47
295.419	295.788	65	30
295.604	295.97	62	32
295.788	295.981	65	24
295.788	295.981	74	47
295.97	296.345	62	32
295.97	296.345	72	45
296.153	296.345	65	25
296.153	296.345	70	40
296.345	296.714	63	35
296.345	297.088	69	47
296.529	296.898	65	31
296.714	297.08	63	35
296.898	297.088	65	26
296.898	297.088	78	52
297.08	297.453	63	33
297.08	297.453	77	47
297.263	297.453	65	29
297.263	297.453	69	42
297.453	297.822	61	35
297.453	298.201	70	47
297.637	298.011	65	30
297.822	298.192	61	32
298.011	298.201	65	28
298.011	298.201	77	55
298.192	298.571	61	38
298.192	298.571	73	53
298.373	298.571	65	31
298.373	298.571	72	50
298.564	299.674	55	40
298.564	298.933	62	40
298.564	299.311	71	56
298.749	299.118	65	34
298.933	299.3	62	38
299.118	299.311	65	32
299.118	299.311	80	58
299.3	299.674	62	39
299.3	299.674	79	52
299.482	299.674	65	32
299.482	299.674	71	48
299.674	300.05	60	39
299.674	300.05	63	39
299.674	300.05	74	56
299.858	300.05	72	51
300.042	300.42	57	35
300.042	300.781	65	35
300.042	300.42	77	55
300.223	300.42	76	51
300.411	300.781	58	35
300.411	300.781	75	50
300.592	300.781	74	49
300.781	301.169	51	43
300.781	301.169	63	43
300.781	301.169	72	54
301.06	301.169	74	48
301.159	301.951	53	40
301.159	301.951	62	40
301.159	301.603	70	54
301.54	301.951	60	40
301.54	301.666	69	50
301.603	301.73	70	44
301.666	301.777	69	50
301.73	301.92	70	44
301.777	301.873	69	50
301.825	301.951	67	42
301.873	301.951	69	45
301.92	302.324	58	40
301.92	302.324	70	49
302.013	302.2	65	46
302.107	302.324	64	49
302.2	302.324	65	44
302.293	302.386	67	49
302.386	302.491	65	44
302.479	302.67	50	45
302.479	302.67	64	49
302.57	302.67	65	44
302.661	302.849	48	50
302.661	302.849	63	49
302.753	302.849	65	49
302.844	303.066	46	45
302.844	303.066	62	54
302.939	303.066	65	49
303.035	303.439	45	40
303.035	303.439	60	49
303.128	303.315	65	46
303.221	303.439	64	49
303.315	303.439	65	44
303.408	303.605	67	49
303.501	303.605	65	44
303.594	303.784	55	45
303.594	303.784	64	49
303.685	303.784	65	44
303.776	303.964	53	50
303.776	303.958	75	49
303.867	303.964	65	49
303.958	304.18	45	45
303.958	304.18	75	54
304.054	304.18	65	49
304.149	304.553	46	40
304.149	304.553	74	49
304.243	304.429	77	46
304.336	304.553	76	49
304.429	304.553	77	44
304.522	304.615	79	49
304.615	304.72	77	44
304.709	304.899	62	48
304.709	304.899	76	49
304.8	304.899	77	44
304.891	305.079	60	52
304.891	305.079	75	49
304.982	305.079	77	49
305.073	305.295	58	48
305.073	305.295	74	54
305.169	305.295	77	49
305.264	305.668	57	48
305.264	305.668	72	49
305.357	305.544	77	46
305.451	305.668	76	49
305.544	305.668	77	44
305.637	305.73	79	49
305.73	305.835	77	44
305.823	306.014	67	49
305.823	306.014	76	49
305.914	306.014	77	44
306.005	306.193	65	50
306.005	306.188	87	49
306.096	306.193	77	49
306.188	306.41	57	46
306.188	306.41	87	54
306.283	306.41	77	49
306.378	306.783	58	50
306.378	306.783	86	49
306.472	306.659	77	46
306.565	306.783	76	49
306.659	306.783	77	44
306.752	306.949	79	49
306.845	306.949	77	44
306.938	307.128	65	50
306.938	307.128	76	49
307.029	307.128	77	44
307.12	307.31	62	54
307.12	307.31	80	49
307.212	307.31	77	49
307.304	307.526	60	51
307.304	307.526	75	54
307.399	307.526	77	49
307.495	307.9	59	54
307.495	307.9	74	49
307.588	307.775	79	46
307.682	307.9	78	49
307.775	307.9	79	44
307.868	307.964	81	49
307.964	308.072	79	44
308.061	308.251	68	45
308.061	308.251	78	52
308.152	308.251	79	44
308.243	308.434	67	50
308.243	308.428	89	55
308.335	308.434	79	49
308.428	308.624	59	45
308.428	308.624	89	57
308.524	308.624	79	49
308.621	308.997	60	42
308.621	308.997	88	62
308.712	308.896	67	33
308.804	308.997	64	36
308.896	308.997	67	33
308.988	309.372	57	38
308.988	309.372	87	60
309.081	309.266	66	33
309.173	309.372	60	36
309.266	309.372	66	33
309.359	309.775	58	39
309.359	309.734	86	57
309.453	309.64	65	33
309.546	309.775	62	37
309.64	309.775	65	37
309.734	310.119	51	31
309.734	310.119	63	37
309.734	310.119	86	60
309.826	310.012	84	52
309.919	310.119	87	52
310.012	310.112	84	52
310.112	310.492	53	31
310.112	310.492	62	37
310.112	310.492	84	62
310.205	310.39	82	52
310.298	310.492	86	52
310.39	310.483	82	52
310.483	310.864	51	31
310.483	310.864	60	37
310.483	310.864	82	62
310.576	310.766	81	52
310.669	310.864	84	52
310.766	310.864	81	52
310.864	311.249	50	34
310.864	311.249	58	40
310.864	311.249	82	54
310.959	311.239	86	57
311.054	311.249	89	61
311.146	311.249	87	60
311.239	311.623	86	58
311.331	311.623	84	56
311.424	311.623	82	54
311.516	311.623	81	52
311.614	312.022	62	31
311.614	312.022	65	37
311.614	312.022	79	55
311.707	312.022	77	51
311.799	312.022	75	50
311.892	312.022	74	50
311.99	312.374	63	37
311.99	312.374	67	44
311.99	312.374	72	50
312.085	312.364	75	53
312.179	312.374	79	56
312.272	312.374	77	55
312.364	312.742	75	54
312.457	312.742	74	53
312.549	312.742	72	52
312.642	312.742	70	50
312.734	313.109	55	31
312.734	313.109	58	31
312.734	313.109	60	37
312.734	313.109	69	49
312.827	313.109	67	50
312.919	313.109	65	53
313.012	313.109	64	56
313.109	313.484	53	45
313.109	314.252	65	59
313.203	313.39	62	37
313.297	313.669	58	40
313.297	314.252	70	59
313.39	313.577	62	37
313.484	313.854	53	45
313.484	314.252	74	61
313.577	313.762	62	37
313.669	314.039	58	40
313.669	314.252	77	62
313.762	313.947	62	37
313.854	314.231	53	48
313.854	314.252	82	64
313.947	314.132	62	37
314.039	314.252	58	41
314.039	314.252	86	65
314.132	314.252	62	37
314.231	314.619	53	45
314.231	314.328	72	37
314.28	314.377	74	31
314.328	314.523	63	37
314.328	314.426	72	37
314.377	314.474	74	31
314.426	314.626	57	40
314.426	314.523	72	37
314.474	314.571	74	32
314.523	314.626	63	37
314.523	314.619	72	37
314.571	314.626	74	33
314.619	315.0	53	45
314.619	314.715	72	37
314.667	314.763	74	32
314.715	314.906	63	37
314.715	314.811	72	37
314.763	314.858	74	32
314.811	315.013	57	40
314.811	314.906	72	37
314.858	314.953	74	31
314.906	315.013	63	37
314.906	315.0	72	37
314.953	315.013	74	33
315.0	315.407	53	48
315.0	315.095	72	37
315.047	315.158	74	32
315.095	315.286	63	37
315.095	315.222	72	37
315.158	315.407	74	32
315.19	315.407	57	41
315.222	315.334	72	37
315.286	315.407	63	37
315.286	315.382	70	33
315.334	315.407	72	33
315.382	315.621	58	41
315.382	315.812	70	49
315.611	315.821	62	28
315.812	316.015	65	35
316.006	316.209	70	34
316.2	316.404	69	32
316.394	316.604	68	30
316.595	316.989	67	28
316.595	316.989	75	46
316.787	316.989	70	21
316.979	317.374	65	31
316.979	317.374	77	50
317.171	317.374	70	24
317.363	317.755	63	31
317.363	317.755	79	51
317.559	317.755	70	25
317.755	318.34	62	31
317.755	318.34	77	51
317.948	318.333	70	28
318.14	318.34	69	31
318.333	318.536	70	28
318.333	318.536	79	48
318.43	318.536	77	43
318.526	318.923	55	31
318.526	318.923	75	50
318.622	318.918	74	48
318.719	318.923	63	27
318.719	318.923	72	47
318.818	318.923	70	45
318.918	319.689	53	31
318.918	319.698	74	48
319.111	319.496	62	27
319.303	319.698	58	31
319.496	319.698	62	29
319.496	319.698	75	40
319.689	320.081	53	31
319.689	320.081	72	44
319.881	320.081	63	27
320.081	320.279	62	31
320.081	320.471	70	46
320.279	320.471	58	24
320.471	320.663	57	30
320.663	320.855	56	26
320.855	321.048	55	29
321.048	321.245	54	31
321.245	321.643	55	28
321.245	321.643	63	52
321.44	321.643	58	27
321.44	321.643	75	47
321.632	322.027	53	38
321.632	322.027	65	54
321.824	322.027	57	32
321.824	322.027	77	47
322.016	322.405	52	40
322.016	322.405	67	58
322.209	322.405	61	34
322.209	322.405	79	52
322.405	322.99	50	41
322.405	322.99	77	61
322.598	322.983	62	35
322.598	322.983	79	54
322.694	322.887	81	58
322.791	322.99	58	38
322.791	322.99	82	61
322.887	322.99	81	61
322.983	323.187	62	33
322.983	323.187	79	60
323.08	323.187	77	58
323.176	323.568	53	40
323.176	323.574	75	57
323.272	323.568	74	55
323.369	323.574	62	35
323.369	323.574	72	54
323.468	323.574	70	52
323.568	324.339	53	41
323.568	324.349	74	62
323.761	324.146	62	33
323.953	324.349	58	43
324.146	324.349	62	33
324.146	324.349	75	56
324.339	324.731	53	45
324.339	324.731	72	62
324.532	324.731	63	38
324.731	325.121	70	67
324.83	325.129	58	54
324.929	325.129	62	56
325.025	325.129	65	59
325.121	325.515	70	61
325.217	325.41	77	60
325.314	325.515	79	65
325.41	325.515	77	60
325.506	325.921	53	54
325.506	325.921	57	54
325.506	325.698	75	64
325.602	325.921	74	62
325.698	325.921	75	60
325.81	325.921	72	58
325.921	326.319	70	68
326.02	326.319	46	54
326.119	326.319	50	56
326.215	326.319	53	59
326.311	326.705	58	61
326.407	326.6	65	60
326.503	326.705	67	65
326.6	326.705	65	60
326.696	327.111	41	54
326.696	327.111	45	54
326.696	326.888	63	64
326.792	327.111	62	62
326.888	327.111	63	60
327.0	327.111	60	58
327.111	327.832	46	59
327.111	327.832	58	71
327.559	328.006	34	59
327.559	328.006	74	59
327.559	328.006	77	59
327.559	328.006	82	77
328.453	329.235	51	59
328.453	329.235	66	71
328.938	329.424	39	59
328.938	329.424	68	59
328.938	329.424	72	59
328.938	329.424	78	77
329.909	331.044	49	20
329.909	330.281	53	33
329.909	330.664	61	43
330.095	330.467	56	23
330.281	330.654	53	27
330.467	330.664	56	22
330.654	331.044	53	26
330.654	331.044	63	36
330.747	330.938	61	36
330.84	331.044	56	22
330.84	331.044	60	36
330.938	331.044	61	36
331.036	332.176	48	20
331.036	331.407	54	36
331.036	331.416	70	42
331.222	331.416	56	23
331.222	331.407	68	37
331.407	331.779	54	27
331.407	331.779	68	43
331.593	331.973	56	23
331.779	332.176	54	27
331.779	332.168	68	38
331.973	332.176	56	24
332.168	333.291	49	20
332.168	332.54	53	33
332.168	332.548	68	39
332.355	332.548	56	23
332.355	332.548	73	45
332.54	332.908	53	27
332.54	332.92	72	44
332.724	332.92	56	23
332.724	332.92	71	41
332.908	333.291	53	27
332.908	333.291	70	40
333.093	333.291	56	25
333.093	333.291	69	38
333.291	334.416	48	20
333.291	333.664	54	31
333.291	334.416	68	41
333.478	333.85	56	27
333.664	334.036	54	27
333.85	334.222	56	24
334.036	334.416	54	27
334.222	334.416	56	23
334.408	335.543	49	21
334.408	334.781	53	35
334.408	335.164	61	45
334.595	334.967	56	24
334.781	335.153	53	28
334.967	335.164	56	23
335.153	335.543	53	27
335.153	335.543	63	42
335.246	335.437	61	39
335.339	335.543	56	23
335.339	335.543	60	42
335.437	335.543	61	40
335.536	336.676	48	21
335.536	335.907	51	38
335.536	335.915	70	54
335.721	335.915	54	24
335.721	335.907	69	48
335.907	336.278	51	32
335.907	336.278	69	53
336.092	336.473	54	28
336.278	336.676	51	32
336.278	336.676	69	47
336.473	336.676	54	27
336.667	337.794	49	23
336.667	337.039	53	37
336.667	337.047	70	50
336.855	337.047	58	32
336.855	337.047	77	54
337.039	337.408	53	34
337.039	337.419	73	55
337.223	337.419	58	29
337.223	337.419	72	53
337.408	337.794	53	30
337.408	337.794	70	51
337.592	337.791	58	28
337.592	337.794	68	50
337.791	338.916	52	23
337.791	338.163	58	37
337.791	338.916	67	50
337.977	338.349	61	30
338.163	338.535	58	30
338.349	338.722	61	27
338.535	338.916	58	30
338.722	338.916	61	26
338.908	340.035	53	25
338.908	339.28	56	40
338.908	339.288	68	59
339.095	339.288	60	28
339.095	339.288	80	62
339.28	339.648	56	33
339.28	339.66	77	61
339.464	339.66	60	28
339.464	339.66	75	60
339.648	340.035	56	36
339.648	340.035	74	58
339.833	340.031	62	32
339.833	340.035	72	57
340.031	341.157	55	36
340.031	340.404	62	36
340.031	341.157	71	62
340.218	340.59	65	29
340.404	340.776	62	34
340.59	340.962	65	28
340.776	341.157	62	35
340.962	341.157	65	28
341.148	342.275	56	46
341.148	341.52	60	46
341.148	341.529	72	61
341.336	341.529	63	28
341.336	341.529	87	64
341.52	341.889	60	41
341.52	341.901	84	61
341.705	341.901	63	34
341.705	341.901	82	60
341.889	342.272	60	41
341.889	342.275	80	55
342.073	342.275	63	38
342.073	342.275	79	56
342.272	343.399	57	45
342.272	342.644	60	45
342.272	343.399	78	60
342.458	342.83	62	36
342.644	343.017	60	40
342.83	343.203	62	30
343.017	343.399	60	38
343.203	343.391	62	30
343.391	344.517	58	24
343.391	343.762	62	39
343.391	343.762	79	58
343.578	343.771	67	31
343.578	343.771	82	60
343.762	344.131	62	37
343.762	344.143	79	58
343.947	344.143	67	30
343.947	344.143	77	55
344.131	344.517	62	37
344.131	344.517	75	53
344.316	344.514	67	29
344.316	344.517	74	50
344.514	345.633	63	31
344.514	344.887	67	39
344.514	345.633	73	57
344.7	345.073	69	30
344.887	345.259	67	37
345.073	345.445	69	29
345.259	345.633	67	37
345.445	345.633	69	27
345.633	346.017	62	44
345.633	346.017	66	44
345.73	345.826	74	46
345.826	345.922	73	49
345.922	346.017	74	44
346.017	346.112	76	49
346.112	346.207	74	44
346.207	346.301	73	49
346.301	346.395	74	44
346.395	346.773	72	47
346.489	346.676	74	49
346.582	346.773	78	54
346.676	346.773	74	49
346.769	347.148	70	51
346.862	347.048	74	53
346.955	347.148	79	57
347.048	347.148	74	52
347.141	347.518	66	57
347.234	347.418	74	55
347.326	347.518	84	61
347.418	347.518	74	57
347.511	347.899	67	54
347.603	347.794	74	57
347.695	347.899	82	64
347.794	347.899	74	57
347.894	348.277	62	59
347.894	348.277	81	64
347.988	348.277	78	57
348.081	348.277	76	63
348.174	348.277	74	57
348.267	348.36	73	57
348.36	348.453	74	59
348.453	348.547	76	60
348.547	348.641	74	56
348.641	349.029	72	46
348.736	348.928	74	49
348.832	349.029	78	53
348.928	349.029	74	49
349.023	349.41	70	59
349.118	349.307	74	52
349.213	349.41	79	58
349.307	349.41	74	54
349.402	349.784	66	61
349.496	349.684	74	55
349.59	349.784	84	61
349.684	349.784	74	55
349.778	350.157	67	55
349.871	350.061	74	49
349.964	350.157	82	68
350.061	350.157	74	62
350.157	350.996	62	59
350.157	350.342	81	70
350.249	351.292	86	60
350.342	350.62	81	69
350.435	350.714	78	57
350.528	350.807	74	67
350.62	351.292	81	55
350.714	351.292	78	61
350.807	350.996	74	54
350.901	351.091	69	63
350.996	351.29	62	47
350.996	351.292	74	55
351.091	351.292	57	54
351.091	351.292	69	65
351.186	351.292	54	47
351.186	351.292	66	59
351.29	351.503	50	60
351.29	351.503	62	74
351.692	352.136	38	59
351.692	352.136	66	62
351.692	352.136	69	62
351.692	352.136	74	73
352.58	353.347	55	34
353.33	353.743	50	30
353.743	354.502	47	34
354.485	354.892	50	32
354.892	355.644	55	34
355.078	355.124	86	45
355.261	355.307	86	49
355.444	355.49	86	43
355.628	356.023	59	36
355.628	355.677	86	46
355.826	355.875	86	40
356.023	356.397	62	38
356.023	356.219	87	45
356.21	356.406	86	40
356.397	356.593	84	43
356.584	356.78	83	40
356.77	356.968	80	45
356.958	357.152	79	39
357.152	357.928	55	34
357.152	357.2	79	41
357.2	357.248	80	39
357.248	357.345	79	49
357.345	357.532	77	44
357.532	357.911	77	46
357.911	358.324	50	30
358.324	359.083	47	34
359.066	359.473	50	32
359.473	360.225	55	34
359.659	359.705	77	45
359.842	359.888	77	48
360.026	360.071	77	42
360.209	360.605	59	36
360.209	360.258	77	44
360.407	360.456	77	40
360.605	360.978	62	38
360.605	360.801	79	45
360.791	360.987	77	40
360.978	361.174	75	40
361.165	361.361	74	40
361.351	361.549	72	45
361.538	361.746	71	39
361.746	362.512	72	48
362.495	362.908	67	42
362.908	363.668	63	48
363.651	364.057	67	45
364.057	364.81	72	50
364.243	364.289	55	39
364.426	364.472	55	42
364.61	364.656	55	37
364.793	364.843	55	39
364.793	365.189	75	52
364.991	365.04	55	35
365.189	365.385	56	39
365.189	365.562	79	56
365.375	365.572	55	35
365.562	365.758	53	37
365.749	365.945	51	35
365.936	366.133	50	39
366.124	366.317	48	34
366.317	366.51	48	35
366.317	367.089	76	58
366.51	366.698	46	38
366.698	367.072	46	39
367.072	367.486	72	52
367.486	368.245	67	55
368.228	368.634	72	49
368.634	369.387	76	53
368.821	368.866	58	39
369.004	369.05	58	41
369.187	369.233	58	36
369.37	369.42	58	38
369.37	369.766	79	54
369.568	369.618	58	35
369.766	369.962	60	39
369.766	370.14	82	58
369.953	370.149	58	35
370.14	370.334	56	35
370.325	370.519	55	35
370.51	370.705	53	39
370.695	370.902	52	34
370.902	371.655	53	40
371.088	371.134	80	45
371.271	371.317	80	49
371.455	371.501	80	43
371.638	371.688	80	46
371.836	371.885	80	40
372.034	373.16	58	28
372.034	372.407	62	28
372.034	372.407	65	34
372.034	372.23	82	45
372.22	372.417	80	40
372.407	372.778	63	28
372.407	372.778	67	34
372.407	372.602	79	43
372.593	372.788	77	40
372.778	373.16	65	28
372.778	373.16	69	34
372.778	372.976	75	45
372.966	373.16	74	39
373.16	373.529	63	28
373.16	373.529	67	34
373.346	373.392	79	45
373.529	373.575	79	49
373.712	373.758	79	43
373.896	373.945	79	46
374.094	374.143	79	40
374.291	375.416	56	28
374.291	374.665	60	28
374.291	374.665	63	34
374.291	374.487	80	45
374.478	374.674	79	40
374.665	375.035	62	28
374.665	375.035	65	34
374.665	374.859	77	43
374.85	375.044	75	40
375.035	375.416	63	28
375.035	375.416	67	34
375.035	375.233	74	45
375.223	375.416	72	39
375.416	375.786	62	28
375.416	375.786	65	34
375.602	375.648	77	45
375.786	375.832	77	49
375.969	376.015	77	43
376.152	376.202	77	46
376.35	376.4	77	40
376.548	377.673	55	28
376.548	376.921	59	28
376.548	376.921	62	34
376.548	376.744	79	51
376.735	376.931	77	50
376.921	377.291	60	28
376.921	377.291	63	34
376.921	377.116	75	49
377.106	377.301	74	48
377.291	377.673	62	28
377.291	377.673	65	34
377.291	377.489	72	47
377.479	377.673	71	47
377.673	378.046	60	30
377.673	378.046	63	37
377.673	377.869	77	56
377.859	378.055	75	54
378.046	378.24	74	52
378.231	378.426	72	51
378.416	378.798	53	30
378.416	378.798	63	37
378.416	378.614	70	49
378.604	378.798	69	47
378.798	379.171	55	30
378.798	379.171	62	37
378.798	378.994	84	60
378.984	379.18	82	58
379.171	379.365	81	56
379.356	379.55	79	54
379.541	379.922	63	30
379.541	379.922	67	37
379.541	379.739	77	54
379.729	379.922	76	57
379.922	380.299	77	61
380.116	380.162	65	42
380.299	380.345	65	45
380.482	380.528	65	39
380.666	380.715	65	41
380.666	381.061	69	45
380.666	381.061	75	55
380.863	380.913	65	38
381.061	381.257	66	42
381.061	381.435	70	45
381.061	381.435	73	60
381.248	381.444	65	38
381.435	381.629	63	38
381.62	381.814	61	38
381.805	382.0	60	42
381.805	382.197	73	45
381.805	382.197	82	55
381.99	382.197	58	37
382.197	382.574	72	45
382.197	382.574	81	61
382.391	382.436	53	42
382.574	382.62	53	45
382.757	382.803	53	39
382.941	382.99	53	41
382.941	383.336	63	45
382.941	383.336	69	55
383.138	383.188	53	38
383.336	383.532	54	42
383.336	383.71	61	45
383.336	383.71	70	60
383.523	383.719	53	38
383.71	383.904	51	38
383.895	384.089	49	38
384.08	384.275	48	42
384.08	384.472	58	45
384.08	384.472	61	55
384.265	384.472	46	37
384.472	384.863	41	42
384.472	384.679	57	45
384.472	384.679	60	60
384.679	384.725	65	45
384.863	384.909	65	49
385.046	385.092	65	43
385.229	385.279	65	46
385.427	385.477	65	40
385.625	388.403	53	29
385.625	388.403	57	29
385.625	388.403	63	37
385.625	385.812	64	44
385.812	386.006	65	40
386.006	386.194	67	45
386.194	386.388	65	40
386.388	386.579	70	43
386.579	386.776	69	40
386.776	386.966	74	44
386.966	387.167	72	40
387.167	387.362	75	45
387.362	387.571	74	40
387.571	387.773	79	45
387.773	387.983	77	40
387.983	388.621	77	45
388.621	388.839	76	40
388.839	389.057	75	43
389.057	389.275	72	40
389.275	390.043	58	33
389.275	390.043	70	48
390.025	390.45	53	31
390.025	390.45	65	41
390.438	391.204	50	37
390.438	391.204	62	48
391.18	391.599	53	38
391.18	391.599	65	44
391.587	392.353	58	41
391.587	392.353	70	48
392.331	392.727	62	43
392.331	392.727	74	51
392.727	393.517	65	43
392.727	393.517	77	56
393.474	393.845	82	58
393.659	393.845	74	51
393.845	396.034	53	30
393.845	396.034	60	30
393.845	396.034	63	36
393.845	394.036	77	56
394.027	394.218	75	52
394.209	394.399	74	51
394.39	394.581	72	49
394.572	394.763	70	48
394.754	394.94	69	47
394.94	395.131	67	50
395.122	395.312	65	44
395.303	395.493	64	44
395.484	395.674	65	45
395.665	395.856	67	47
395.846	396.034	69	50
396.034	396.397	58	32
396.034	396.397	62	38
396.034	396.079	70	50
396.17	396.215	72	45
396.215	396.306	70	49
396.306	396.397	69	46
396.397	396.443	70	50
396.581	396.627	72	47
396.763	396.809	74	49
396.946	396.995	75	51
397.139	397.331	76	53
397.322	397.514	77	50
397.505	397.696	79	55
397.687	397.87	77	50
397.87	398.245	82	59
398.053	398.245	74	50
398.245	400.463	53	30
398.245	400.463	60	30
398.245	400.463	63	36
398.245	398.439	77	57
398.43	398.624	75	55
398.615	398.807	74	53
398.798	398.991	72	51
398.982	399.174	70	49
399.165	399.353	69	47
399.353	399.547	67	50
399.538	399.732	65	43
399.723	399.916	64	50
399.907	400.1	65	43
400.091	400.284	67	50
400.275	400.463	69	45
400.463	400.555	58	34
400.463	400.555	62	40
400.463	400.555	70	50
400.831	400.928	58	32
400.831	400.928	62	38
400.831	400.928	70	48
401.218	401.325	58	32
401.218	401.325	65	38
401.218	401.325	74	48
401.646	402.022	58	34
401.646	402.022	62	40
401.646	402.022	70	50
402.304	402.351	70	44
402.398	402.497	72	50
402.488	402.588	70	43
402.579	402.68	69	45
402.67	402.784	70	42
402.775	403.14	79	56
403.14	403.516	51	25
403.14	403.516	55	25
403.14	403.516	58	30
403.422	403.469	70	44
403.516	403.616	72	50
403.607	403.707	70	43
403.698	403.799	69	45
403.788	403.903	70	42
403.894	404.254	77	55
404.254	404.63	50	25
404.254	404.63	53	25
404.254	404.63	58	30
404.536	404.583	70	44
404.63	404.733	72	50
404.723	404.827	70	43
404.817	404.922	69	45
404.911	405.026	70	42
405.017	406.143	57	29
405.017	406.518	65	34
405.017	405.381	72	52
405.381	405.757	77	49
405.757	406.143	75	48
406.143	406.518	58	34
406.143	406.518	73	55
406.518	406.72	74	49
406.821	406.868	70	44
406.915	407.014	72	50
407.005	407.105	70	43
407.096	407.197	69	45
407.186	407.301	70	42
407.292	407.657	79	56
407.657	408.033	51	25
407.657	408.033	55	25
407.657	408.033	58	30
407.939	407.986	70	44
408.033	408.133	72	50
408.124	408.224	70	43
408.215	408.316	69	45
408.305	408.42	70	42
408.411	408.771	77	55
408.771	409.146	50	25
408.771	409.146	53	25
408.771	409.146	58	30
409.052	409.099	70	44
409.146	409.25	72	50
409.24	409.344	70	43
409.334	409.439	69	45
409.428	409.543	70	42
409.533	410.671	53	29
409.533	410.671	57	34
409.533	410.671	72	52
409.898	410.671	60	31
409.898	410.671	75	49
410.274	410.671	63	29
410.274	410.671	69	48
410.667	411.032	58	28
410.667	411.032	62	34
410.667	411.032	70	55
411.763	411.955	55	73
411.763	411.955	70	64
411.763	411.955	74	64
411.763	411.955	79	77
412.148	412.336	43	66
412.148	412.336	67	64
412.902	413.049	50	73
412.902	413.049	66	63
412.902	413.049	69	63
412.902	413.049	74	75
413.29	413.519	38	66
413.29	413.519	62	67
414.046	415.181	51	20
414.046	414.418	55	33
414.046	414.801	63	43
414.232	414.604	58	23
414.418	414.791	55	27
414.604	414.801	58	22
414.791	415.181	55	26
414.791	415.181	65	36
414.884	415.075	63	36
414.977	415.181	58	22
414.977	415.181	62	36
415.075	415.181	63	36
415.173	416.313	50	20
415.173	415.544	56	36
415.173	415.553	72	42
415.359	415.553	58	23
415.359	415.544	70	37
415.544	415.916	56	27
415.544	415.916	70	43
415.73	416.11	58	23
415.916	416.313	56	27
415.916	416.305	70	38
416.11	416.313	58	24
416.305	417.428	51	20
416.305	416.677	55	33
416.305	416.685	70	39
416.492	416.685	58	23
416.492	416.685	75	45
416.677	417.045	55	27
416.677	417.057	74	44
416.861	417.057	58	23
416.861	417.057	73	42
417.045	417.428	55	27
417.045	417.428	72	40
417.23	417.428	58	25
417.23	417.428	71	38
417.428	418.553	50	20
417.428	417.801	56	33
417.428	418.553	70	41
417.615	417.987	58	27
417.801	418.173	56	27
417.987	418.359	58	24
418.173	418.553	56	27
418.359	418.553	58	23
418.545	419.68	51	21
418.545	418.918	55	35
418.545	419.301	63	45
418.732	419.104	58	24
418.918	419.29	55	28
419.104	419.301	58	23
419.29	419.68	55	27
419.29	419.68	65	42
419.383	419.574	63	39
419.476	419.68	58	23
419.476	419.68	62	42
419.574	419.68	63	40
419.673	420.813	50	21
419.673	420.044	53	38
419.673	420.052	72	54
419.858	420.052	56	24
419.858	420.044	71	48
420.044	420.415	53	32
420.044	420.415	71	53
420.229	420.61	56	28
420.415	420.813	53	32
420.415	420.813	71	47
420.61	420.813	56	27
420.804	421.931	51	23
420.804	421.176	55	37
420.804	421.185	72	50
420.992	421.185	60	32
420.992	421.185	79	58
421.176	421.545	55	34
421.176	421.556	75	56
421.361	421.556	60	29
421.361	421.556	74	54
421.545	421.931	55	30
421.545	421.931	72	51
421.729	421.928	60	28
421.729	421.931	70	49
421.928	423.053	54	23
421.928	422.3	60	37
421.928	423.053	69	50
422.114	422.486	63	30
422.3	422.673	60	30
422.486	422.859	63	27
422.673	423.053	60	30
422.859	423.053	63	26
423.045	424.172	55	27
423.045	423.417	58	44
423.045	423.425	70	59
423.232	423.425	62	30
423.232	423.425	86	62
423.417	423.786	58	36
423.417	423.797	82	61
423.601	423.797	62	30
423.601	423.797	81	60
423.786	424.172	58	36
423.786	424.172	79	58
423.97	424.172	62	33
423.97	424.172	77	57
424.168	425.285	60	27
424.168	424.541	67	44
424.168	425.285	76	62
424.355	424.727	70	36
424.541	424.913	67	36
424.727	425.099	70	31
424.913	425.285	67	36
425.099	425.285	70	30
425.285	425.667	65	44
425.285	425.667	69	44
425.38	425.476	77	46
425.476	425.572	76	49
425.572	425.667	77	44
425.667	425.763	79	49
425.763	425.857	77	44
425.857	425.952	76	49
425.952	426.046	77	44
426.046	426.424	75	44
426.139	426.326	77	49
426.233	426.424	81	54
426.326	426.424	77	49
426.42	426.799	74	50
426.513	426.699	77	53
426.606	426.799	82	57
426.699	426.799	77	52
426.792	427.167	69	57
426.884	427.068	77	55
426.976	427.167	87	61
427.068	427.167	77	57
427.16	427.548	70	53
427.252	427.443	77	57
427.344	427.548	86	64
427.443	427.548	77	57
427.542	427.925	65	59
427.542	427.925	84	65
427.637	427.925	81	60
427.73	427.925	79	65
427.823	427.925	77	60
427.916	428.009	76	57
428.009	428.102	77	59
428.102	428.195	79	60
428.195	428.289	77	56
428.289	428.678	75	46
428.385	428.576	77	49
428.481	428.678	81	53
428.576	428.678	77	49
428.672	429.058	74	56
428.767	428.956	77	52
428.862	429.058	82	58
428.956	429.058	77	54
429.051	429.429	69	59
429.144	429.331	77	55
429.238	429.429	87	61
429.331	429.429	77	55
429.423	429.802	70	53
429.516	429.706	77	49
429.609	429.802	86	68
429.706	429.802	77	62
429.802	430.641	65	61
429.802	429.987	84	73
429.894	430.937	89	62
429.987	430.265	84	69
430.08	430.358	81	57
430.173	430.452	77	67
430.265	430.937	84	55
430.358	430.937	81	61
430.452	430.641	77	54
430.546	430.736	72	63
430.641	430.935	65	47
430.641	430.937	77	55
430.736	430.937	60	54
430.736	430.937	72	65
430.831	430.937	57	47
430.831	430.937	69	59
430.935	431.148	53	60
430.935	431.148	65	74
431.337	431.781	41	59
431.337	431.781	69	62
431.337	431.781	72	62
431.337	431.781	77	73
432.23	432.997	58	34
432.98	433.393	53	30
433.393	434.152	50	34
434.135	434.542	53	32
434.542	435.294	58	34
434.728	434.774	77	45
434.911	434.957	77	49
435.095	435.14	77	43
435.278	435.674	62	36
435.278	435.327	77	46
435.476	435.525	77	40
435.674	436.047	65	38
435.674	435.87	79	45
435.86	436.056	77	40
436.047	436.243	75	43
436.234	436.43	74	40
436.42	436.618	72	45
436.608	436.802	70	39
436.802	437.574	51	34
436.802	436.85	70	41
436.85	436.898	72	39
436.898	436.995	70	49
436.995	437.182	69	44
437.182	437.557	69	46
437.557	437.97	48	30
437.97	438.73	45	34
438.713	439.119	48	32
439.119	439.872	51	34
439.305	439.351	75	45
439.489	439.534	75	48
439.672	439.718	75	42
439.855	440.251	57	36
439.855	439.905	75	44
440.053	440.103	75	40
440.251	440.624	60	38
440.251	440.447	77	45
440.438	440.634	75	40
440.624	440.82	74	40
440.811	441.007	72	40
440.998	441.195	70	45
441.185	441.392	69	39
441.392	441.762	62	35
441.392	442.137	70	47
441.577	441.947	65	28
441.762	442.13	62	35
441.947	442.137	65	25
441.947	442.137	74	47
442.13	442.508	62	32
442.13	442.508	72	45
442.313	442.508	65	24
442.313	442.508	70	40
442.503	442.873	63	35
442.503	443.249	69	47
442.688	443.058	65	31
442.873	443.241	63	35
443.058	443.249	65	26
443.058	443.249	79	52
443.241	443.615	63	33
443.241	443.615	77	47
443.424	443.615	65	29
443.424	443.615	69	42
443.615	443.984	62	35
443.615	444.361	70	47
443.799	444.168	65	30
443.984	444.35	62	32
444.168	444.361	65	24
444.168	444.361	74	47
444.35	444.725	62	32
444.35	444.725	72	45
444.533	444.725	65	25
444.533	444.725	70	40
444.725	445.094	63	35
444.725	445.468	69	47
444.909	445.278	65	31
445.094	445.46	63	35
445.278	445.468	65	26
445.278	445.468	78	52
445.46	445.833	63	33
445.46	445.833	77	47
445.642	445.833	65	29
445.642	445.833	69	42
445.833	446.202	61	35
445.833	446.581	70	47
446.017	446.391	65	30
446.202	446.572	61	32
446.391	446.581	65	28
446.391	446.581	77	55
446.572	446.951	61	38
446.572	446.951	73	53
446.753	446.951	65	31
446.753	446.951	72	50
446.944	448.054	55	40
446.944	447.313	62	40
446.944	447.691	71	56
447.129	447.498	65	34
447.313	447.68	62	38
447.498	447.691	65	32
447.498	447.691	80	58
447.68	448.054	62	39
447.68	448.054	79	52
447.862	448.054	65	32
447.862	448.054	71	48
448.054	448.43	60	39
448.054	448.43	63	39
448.054	448.43	74	56
448.238	448.43	72	51
448.422	448.8	57	35
448.422	449.161	65	35
448.422	448.8	77	55
448.603	448.8	76	51
448.791	449.161	58	35
448.791	449.161	75	50
448.972	449.161	74	49
449.161	449.549	51	43
449.161	449.549	63	43
449.161	449.549	72	54
449.44	449.549	74	48
449.539	450.331	53	40
449.539	450.331	62	40
449.539	449.983	70	54
449.92	450.331	60	40
449.92	450.046	69	50
449.983	450.11	70	44
450.046	450.157	69	50
450.11	450.3	70	44
450.157	450.253	69	50
450.205	450.331	67	42
450.253	450.331	69	45
450.3	450.704	58	40
450.3	450.704	70	49
450.393	450.58	65	46
450.487	450.704	64	49
450.58	450.704	65	44
450.673	450.766	67	49
450.766	450.871	65	44
450.859	451.05	50	49
450.859	451.05	64	49
450.95	451.05	65	44
451.041	451.229	48	53
451.041	451.229	63	49
451.133	451.229	65	49
451.224	451.446	46	48
451.224	451.446	62	54
451.319	451.446	65	49
451.415	451.819	45	52
451.415	451.819	60	49
451.508	451.695	65	46
451.601	451.819	64	49
451.695	451.819	65	44
451.788	451.985	67	49
451.881	451.985	65	44
451.974	452.164	55	45
451.974	452.164	64	49
452.065	452.164	65	44
452.156	452.344	53	50
452.156	452.338	75	49
452.247	452.344	65	49
452.338	452.56	45	45
452.338	452.56	75	54
452.434	452.56	65	49
452.529	452.933	46	40
452.529	452.933	74	49
452.623	452.809	77	46
452.716	452.933	76	49
452.809	452.933	77	44
452.902	452.995	79	49
452.995	453.1	77	44
453.089	453.279	62	51
453.089	453.279	76	49
453.18	453.279	77	44
453.271	453.459	60	53
453.271	453.459	75	49
453.362	453.459	77	49
453.453	453.675	58	48
453.453	453.675	74	54
453.548	453.675	77	49
453.644	454.048	57	48
453.644	454.048	72	49
453.737	453.924	77	46
453.831	454.048	76	49
453.924	454.048	77	44
454.017	454.11	79	49
454.11	454.215	77	44
454.203	454.394	67	45
454.203	454.394	76	49
454.294	454.394	77	44
454.385	454.573	65	50
454.385	454.568	87	49
454.476	454.573	77	49
454.568	454.79	57	45
454.568	454.79	87	54
454.663	454.79	77	49
454.758	455.163	58	40
454.758	455.163	86	49
454.852	455.039	77	46
454.945	455.163	76	49
455.039	455.163	77	44
455.132	455.329	79	49
455.225	455.329	77	44
455.318	455.508	65	50
455.318	455.508	76	49
455.409	455.508	77	44
455.5	455.689	62	54
455.5	455.689	80	49
455.592	455.689	77	49
455.684	455.906	60	49
455.684	455.906	75	54
455.779	455.906	77	49
455.875	456.28	59	51
455.875	456.28	74	49
455.968	456.155	79	46
456.061	456.28	78	49
456.155	456.28	79	44
456.248	456.344	81	49
456.344	456.452	79	44
456.441	456.631	68	45
456.441	456.631	78	52
456.532	456.631	79	44
456.623	456.814	67	50
456.623	456.808	89	55
456.715	456.814	79	49
456.808	457.004	59	45
456.808	457.004	89	57
456.904	457.004	79	49
457.001	457.377	60	42
457.001	457.377	88	62
457.092	457.276	67	33
457.184	457.377	64	36
457.276	457.377	67	33
457.368	457.752	57	38
457.368	457.752	87	60
457.461	457.646	66	33
457.553	457.752	60	36
457.646	457.752	66	33
457.739	458.155	58	39
457.739	458.114	86	57
457.832	458.02	65	33
457.926	458.155	62	37
458.02	458.155	65	37
458.114	458.499	51	31
458.114	458.499	63	37
458.114	458.499	86	60
458.206	458.392	84	52
458.299	458.499	87	52
458.392	458.492	84	52
458.492	458.872	53	31
458.492	458.872	62	37
458.492	458.872	84	62
458.585	458.77	82	52
458.677	458.872	86	52
458.77	458.863	82	52
458.863	459.244	51	31
458.863	459.244	60	37
458.863	459.244	82	62
458.956	459.146	81	52
459.049	459.244	84	52
459.146	459.244	81	52
459.244	459.629	50	34
459.244	459.629	58	40
459.244	459.629	82	54
459.339	459.619	86	57
459.434	459.629	89	61
459.526	459.629	87	60
459.619	460.003	86	58
459.711	460.003	84	56
459.804	460.003	82	54
459.896	460.003	81	52
459.994	460.402	62	31
459.994	460.402	65	37
459.994	460.402	79	55
460.087	460.402	77	51
460.179	460.402	75	50
460.272	460.402	74	50
460.37	460.754	63	37
460.37	460.754	67	44
460.37	460.754	72	50
460.465	460.744	75	53
460.559	460.754	79	56
460.652	460.754	77	55
460.744	461.122	75	54
460.837	461.122	74	53
460.929	461.122	72	52
461.022	461.122	70	50
461.114	461.489	55	31
461.114	461.489	58	31
461.114	461.489	60	37
461.114	461.489	69	49
461.207	461.489	67	50
461.299	461.489	65	53
461.392	461.489	64	56
461.489	461.864	53	45
461.489	462.632	65	59
461.583	461.77	62	37
461.677	462.049	58	40
461.677	462.632	70	59
461.77	461.957	62	37
461.864	462.234	53	45
461.864	462.632	74	61
461.957	462.142	62	37
462.049	462.419	58	40
462.049	462.632	77	62
462.142	462.327	62	37
462.234	462.611	53	48
462.234	462.632	82	64
462.327	462.512	62	37
462.419	462.632	58	41
462.419	462.632	86	65
462.512	462.632	62	37
462.611	462.999	53	45
462.611	462.708	72	37
462.66	462.757	74	31
462.708	462.903	63	37
462.708	462.806	72	37
462.757	462.854	74	31
462.806	463.006	57	40
462.806	462.903	72	37
462.854	462.951	74	32
462.903	463.006	63	37
462.903	462.999	72	37
462.951	463.006	74	33
462.999	463.38	53	45
462.999	463.095	72	37
463.047	463.143	74	32
463.095	463.286	63	37
463.095	463.191	72	37
463.143	463.238	74	32
463.191	463.393	57	40
463.191	463.286	72	37
463.238	463.333	74	31
463.286	463.393	63	37
463.286	463.38	72	37
463.333	463.393	74	33
463.38	463.787	53	48
463.38	463.475	72	37
463.427	463.538	74	32
463.475	463.666	63	37
463.475	463.602	72	37
463.538	463.787	74	32
463.57	463.787	57	41
463.602	463.714	72	37
463.666	463.787	63	37
463.666	463.762	70	33
463.714	463.787	72	33
463.762	464.001	58	41
463.762	464.192	70	49
463.991	464.201	62	28
464.192	464.399	65	35
464.389	464.594	70	34
464.585	464.787	69	32
464.777	464.988	68	30
464.979	465.373	67	28
464.979	465.373	75	46
465.171	465.373	70	21
465.363	465.758	65	31
465.363	465.758	77	50
465.555	465.758	70	24
465.747	466.139	63	31
465.747	466.139	79	51
465.943	466.139	70	25
466.139	466.723	62	31
466.139	466.723	77	51
466.332	466.717	70	28
466.524	466.723	69	31
466.717	466.92	70	28
466.717	466.92	79	48
466.813	466.92	77	43
466.91	467.307	55	31
466.91	467.307	75	50
467.006	467.302	74	48
467.103	467.307	63	27
467.103	467.307	72	47
467.202	467.307	70	45
467.302	468.073	53	31
467.302	468.082	74	48
467.494	467.88	62	27
467.687	468.082	58	31
467.88	468.082	62	29
467.88	468.082	75	40
468.073	468.465	53	31
468.073	468.465	72	44
468.265	468.465	63	27
468.465	468.663	62	31
468.465	468.855	70	46
468.663	468.855	58	24
468.855	469.047	57	30
469.047	469.239	56	26
469.239	469.431	55	29
469.431	469.629	54	31
469.629	470.026	55	28
469.629	470.026	63	52
469.824	470.026	58	27
469.824	470.026	75	47
470.016	470.411	53	38
470.016	470.411	65	54
470.208	470.411	57	32
470.208	470.411	77	47
470.4	470.789	52	40
470.4	470.789	67	58
470.592	470.789	61	34
470.592	470.789	79	52
470.789	471.374	50	41
470.789	471.374	77	61
470.982	471.367	62	35
470.982	471.367	79	54
471.078	471.271	81	58
471.174	471.374	58	38
471.174	471.374	82	61
471.271	471.374	81	61
471.367	471.57	62	33
471.367	471.57	79	60
471.464	471.57	77	58
471.56	471.952	53	40
471.56	471.957	75	57
471.656	471.952	74	55
471.753	471.957	62	35
471.753	471.957	72	54
471.852	471.957	70	52
471.952	472.723	53	41
471.952	472.732	74	62
472.145	472.53	62	33
472.337	472.732	58	43
472.53	472.732	62	33
472.53	472.732	75	56
472.723	473.115	53	45
472.723	473.115	72	62
472.916	473.115	63	38
473.115	473.505	70	67
473.214	473.513	58	54
473.313	473.513	62	56
473.409	473.513	65	59
473.505	473.899	70	61
473.601	473.793	77	60
473.697	473.899	79	65
473.793	473.899	77	60
473.889	474.305	53	54
473.889	474.305	57	54
473.889	474.082	75	64
473.986	474.305	74	62
474.082	474.305	75	60
474.193	474.305	72	58
474.305	474.708	70	68
474.404	474.708	46	54
474.503	474.708	50	56
474.602	474.708	53	59
474.7	475.101	58	61
474.798	474.993	65	60
474.896	475.101	67	65
474.993	475.101	65	60
475.091	475.541	41	54
475.091	475.541	45	54
475.091	475.303	63	64
475.197	475.541	62	62
475.303	475.541	63	60
475.422	475.541	60	58
475.541	476.316	46	64
475.541	476.316	58	85
476.023	476.504	34	64
476.023	476.504	74	64
476.023	476.504	77	64
476.023	476.504	82	84
