OnsetTime	OffsetTime	MidiPitch	Velocity
0.519987	5.13999	37	76
0.520993	5.13999	49	90
3.14599	3.598	28	76
3.147	3.60099	40	90
3.598	6.77897	28	76
3.60099	6.77897	40	90
5.18298	6.77797	49	76
5.18298	6.77897	61	90
5.18399	6.77897	56	76
6.77797	6.96097	49	72
6.96097	10.08	49	65
7.14997	13.072	51	79
7.34497	13.072	57	81
7.55596	13.073	29	85
7.55596	13.075	41	85
7.55796	10.08	61	85
10.079	13.075	48	64
10.08	13.075	60	64
13.079	13.573	34	44
13.079	13.573	46	52
13.202	13.593	53	29
13.32	13.593	49	22
13.324	13.593	61	26
13.325	13.593	58	22
13.453	13.593	41	33
13.573	14.069	34	25
13.573	14.073	46	29
13.702	14.073	53	29
13.82	14.073	49	23
13.821	14.073	61	27
13.824	14.073	58	23
13.95	14.073	41	35
14.069	14.564	34	27
14.073	14.564	46	33
14.192	14.573	53	30
14.318	14.573	49	24
14.321	14.573	58	24
14.321	14.573	61	29
14.443	14.573	41	35
14.564	15.053	34	28
14.564	15.053	46	34
14.685	15.053	53	35
14.808	15.053	49	26
14.808	15.053	61	31
14.811	15.053	58	26
14.931	15.053	41	39
15.053	15.546	34	30
15.053	15.547	46	38
15.175	15.592	53	35
15.294	15.592	49	28
15.298	15.592	58	28
15.298	15.592	61	34
15.42	15.592	41	39
15.546	16.032	34	29
15.547	16.033	46	35
15.669	16.033	53	34
15.788	16.033	49	25
15.791	16.033	58	25
15.791	16.033	61	30
15.914	16.033	41	36
16.032	16.526	34	27
16.033	16.527	46	33
16.155	16.547	53	30
16.281	16.547	49	24
16.282	16.547	61	29
16.285	16.547	58	24
16.407	16.547	41	35
16.526	17.027	34	25
16.527	17.026	46	29
16.653	16.901	53	29
16.775	17.027	49	24
16.778	17.027	61	28
16.779	17.027	58	24
16.901	17.027	53	33
17.024	17.506	73	54
17.026	17.506	46	35
17.15	17.398	53	34
17.15	17.506	70	51
17.275	17.506	61	30
17.276	17.506	58	30
17.397	17.517	72	51
17.398	17.517	53	31
17.518	18.018	73	54
17.52	18.019	46	35
17.648	18.027	70	51
17.65	17.892	53	33
17.765	18.027	61	31
17.768	18.027	58	31
17.892	18.027	53	31
18.018	18.512	73	54
18.019	18.514	46	35
18.141	18.567	70	51
18.143	18.386	53	34
18.262	18.567	58	31
18.262	18.567	61	31
18.385	18.567	72	51
18.386	18.567	53	31
18.512	19.005	73	54
18.514	19.007	46	35
18.634	19.008	70	51
18.635	18.885	53	33
18.756	19.008	58	31
18.756	19.008	61	31
18.885	19.008	53	31
19.005	19.499	73	54
19.007	19.501	46	35
19.128	19.519	70	51
19.13	19.378	53	33
19.249	19.519	61	31
19.25	19.519	58	31
19.376	19.519	72	61
19.378	19.519	53	33
19.499	20.006	73	66
19.501	20.006	46	37
19.621	20.006	82	64
19.623	19.877	53	35
19.746	20.006	61	34
19.75	20.006	58	34
19.877	20.006	53	34
20.002	20.478	81	61
20.006	20.478	48	35
20.125	20.478	72	57
20.128	20.373	54	34
20.247	20.478	57	30
20.247	20.478	63	30
20.37	20.495	73	49
20.373	20.499	54	31
20.499	20.992	75	52
20.5	20.989	48	35
20.621	20.992	72	49
20.622	20.87	54	33
20.74	20.992	63	31
20.744	20.992	57	31
20.87	20.992	54	31
20.989	21.472	48	35
20.989	21.472	78	55
21.112	21.472	72	49
21.115	21.364	51	34
21.238	21.472	63	30
21.241	21.472	57	30
21.363	21.489	73	49
21.364	21.489	51	31
21.489	21.986	75	52
21.49	21.983	48	35
21.612	21.986	72	49
21.615	21.857	54	33
21.734	21.986	63	31
21.735	21.986	57	31
21.857	21.986	54	31
21.983	22.466	48	35
21.983	22.466	78	55
22.106	22.466	72	49
22.109	22.358	51	34
22.232	22.466	63	30
22.235	22.466	57	30
22.357	22.473	73	49
22.358	22.476	51	31
22.476	22.977	75	52
22.48	22.977	48	35
22.603	22.977	72	49
22.606	22.848	54	33
22.725	22.977	63	31
22.726	22.977	57	31
22.848	22.977	54	31
22.974	23.456	78	58
22.977	23.456	48	35
23.099	23.345	51	35
23.099	23.456	72	51
23.219	23.456	57	34
23.219	23.456	63	34
23.344	23.4699	73	65
23.345	23.471	51	35
23.471	23.9709	75	71
23.472	23.9709	48	39
23.5919	23.9679	84	64
23.5929	23.8419	54	37
23.712	23.9709	63	37
23.7149	23.9709	57	37
23.8419	23.9709	54	38
23.9679	24.472	49	35
23.9679	24.472	84	61
24.0929	24.472	73	57
24.0969	24.343	53	34
24.216	24.472	65	30
24.2199	24.472	57	30
24.3419	24.472	75	49
24.343	24.472	53	31
24.4679	24.9689	82	52
24.4709	24.9689	77	52
24.472	24.9689	49	35
24.5909	24.8389	53	33
24.5909	24.9679	73	49
24.7129	24.9689	58	31
24.7129	24.9689	65	31
24.8389	24.9689	53	31
24.9659	25.5	85	82
24.9679	25.3459	52	56
24.9679	25.3429	73	69
25.0979	25.5	61	53
25.0979	25.5	79	63
25.0979	25.5	84	75
25.2139	25.5	67	50
25.3429	25.5	73	61
25.3439	25.5	82	72
25.3459	25.5	52	51
25.4749	25.974	81	78
25.4759	25.974	77	64
25.4789	25.8439	53	56
25.5959	25.974	72	57
25.5979	25.974	84	68
25.5989	25.974	60	52
25.714	25.974	69	58
25.8439	25.974	53	51
25.9699	26.3469	66	46
25.9729	26.5009	78	55
25.974	26.3509	45	33
26.1029	26.5009	72	42
26.1029	26.5009	77	50
26.1039	26.5009	54	30
26.2179	26.5009	63	29
26.3469	26.5009	66	40
26.3479	26.5009	75	49
26.3509	26.5009	45	29
26.4809	26.8479	46	33
26.4809	26.9779	70	44
26.4809	26.9739	73	52
26.5989	26.9779	65	40
26.5999	26.9779	77	49
26.6029	26.9779	53	30
26.7189	26.9779	61	29
26.8479	26.9779	46	29
26.9739	27.3519	73	69
26.9769	27.3549	52	56
26.9769	27.5089	85	82
27.1059	27.5089	84	75
27.1069	27.5089	61	53
27.1069	27.5089	79	63
27.2219	27.5089	67	50
27.3519	27.5089	73	61
27.3529	27.5089	82	72
27.3549	27.5089	52	51
27.4839	27.9819	77	64
27.4849	27.8519	53	56
27.4849	27.9819	81	78
27.6039	27.9819	72	57
27.6039	27.9819	84	68
27.6049	27.9819	60	52
27.7229	27.9819	69	58
27.8519	27.9819	53	51
27.9779	28.3569	66	46
27.9789	28.5169	78	55
27.9819	28.3599	45	33
28.1109	28.5169	77	50
28.1119	28.5169	54	30
28.1119	28.5169	72	42
28.2269	28.5169	63	29
28.3569	28.5169	66	40
28.3579	28.5169	75	49
28.3599	28.5169	45	29
28.4859	29.0229	74	52
28.4889	28.8739	46	33
28.4889	29.0229	70	44
28.6149	29.0219	77	49
28.6159	29.0229	65	40
28.6159	29.0229	73	40
28.6189	29.0229	53	30
28.7309	29.0229	61	29
28.8739	29.0229	46	29
29.0179	29.5739	82	75
29.0219	29.5459	43	56
29.0219	29.5739	77	75
29.0219	29.5739	89	89
29.1549	29.5739	88	83
29.1559	29.5429	76	70
29.1579	29.5739	48	53
29.2769	29.5739	49	50
29.4139	29.5739	73	62
29.4139	29.5739	85	72
29.4149	29.5739	58	49
29.5429	30.0539	76	68
29.5439	30.0539	72	68
29.5439	30.0539	84	80
29.5459	30.0539	43	52
29.6789	30.0509	82	75
29.6799	30.0539	48	49
29.6799	30.0509	70	62
29.7959	30.0539	49	49
29.9239	30.0539	58	49
30.0509	30.5819	70	68
30.0509	30.5819	82	80
30.0539	30.5819	43	47
30.1829	30.5819	76	61
30.1829	30.5819	80	73
30.1839	30.5819	48	45
30.3059	30.5819	49	42
30.4289	30.5819	67	57
30.4309	30.5819	79	68
30.4319	30.5819	58	44
30.5589	31.0599	75	59
30.5609	31.0599	45	49
30.5609	31.0599	78	69
30.6809	31.0599	66	55
30.6819	31.0599	72	64
30.6839	31.0599	50	44
30.7989	31.0599	51	46
30.9259	31.0599	60	44
31.0579	31.5869	68	57
31.0589	31.5869	47	47
31.0589	31.5869	80	68
31.1879	31.5869	74	52
31.1889	31.5869	52	45
31.1889	31.5869	79	62
31.3039	31.5869	53	42
31.4339	31.5869	65	51
31.4359	31.5869	77	61
31.4369	31.5869	62	44
31.5629	32.06	72	53
31.5659	32.064	48	49
31.5659	32.0629	75	63
31.6849	31.9339	63	44
31.6859	32.064	67	52
31.6879	32.064	54	39
31.804	32.064	55	40
31.9339	32.064	63	39
32.06	32.5539	72	57
32.0629	32.5529	75	67
32.064	32.5849	46	52
32.1779	32.5849	66	59
32.1789	32.5849	53	45
32.1789	32.4229	63	49
32.2979	32.5849	54	41
32.4229	32.5849	63	42
32.5529	33.0859	75	62
32.5539	33.0859	72	53
32.5569	33.0859	45	52
32.6829	32.942	63	46
32.6849	33.0859	65	56
32.6859	33.0859	52	41
32.8009	33.0859	53	42
32.942	33.0859	63	41
33.0819	33.5859	73	68
33.0849	33.5859	46	51
33.2109	33.5859	61	40
33.2109	33.5859	65	40
33.2149	33.5859	53	44
33.2149	33.5859	70	59
33.341	33.5859	58	47
33.4699	33.5989	72	67
33.4729	33.5999	41	48
33.5999	34.1099	73	68
33.6009	34.1099	46	51
33.7289	34.1239	61	40
33.7299	34.1239	53	43
33.7299	34.1239	65	40
33.7299	34.1239	70	60
33.8589	34.1239	58	48
33.9809	34.1239	41	48
34.1099	34.6169	46	51
34.1099	34.6149	73	68
34.2369	34.6699	65	40
34.2389	34.6699	61	40
34.2399	34.6699	53	44
34.2399	34.6699	70	60
34.3629	34.6699	58	48
34.489	34.6699	41	48
34.489	34.6699	72	68
34.6149	35.1249	73	68
34.6169	35.126	46	51
34.744	35.1289	61	40
34.744	35.1289	65	40
34.7449	35.1289	70	60
34.7469	35.1289	53	43
34.8739	35.1289	58	48
34.9969	35.1289	41	48
35.1249	35.633	73	68
35.126	35.6339	46	51
35.248	35.65	61	46
35.251	35.65	65	46
35.2519	35.65	53	49
35.2519	35.65	70	67
35.3779	35.65	58	48
35.504	35.65	72	73
35.5049	35.65	41	49
35.633	36.138	73	84
35.6339	36.138	46	54
35.759	36.138	70	52
35.762	36.138	53	51
35.762	36.138	77	52
35.762	36.138	82	76
35.884	36.138	61	50
36.011	36.138	49	50
36.137	36.508	48	51
36.137	36.6159	81	76
36.2599	36.6159	69	46
36.2599	36.6159	72	67
36.2619	36.6159	54	44
36.3889	36.6159	63	47
36.508	36.635	48	48
36.508	36.634	73	67
36.635	37.131	75	68
36.637	37.131	54	51
36.76	37.131	66	40
36.76	37.131	69	40
36.761	37.131	57	43
36.761	37.131	72	60
36.882	37.131	63	48
37.001	37.131	48	48
37.128	37.61	78	71
37.13	37.61	51	51
37.253	37.61	69	40
37.254	37.61	66	40
37.254	37.61	72	59
37.255	37.61	57	44
37.376	37.61	63	47
37.499	37.622	48	48
37.499	37.621	73	67
37.622	38.1229	75	68
37.624	38.1229	54	51
37.7439	38.1229	66	40
37.7469	38.1229	57	43
37.7469	38.1229	69	40
37.7469	38.1229	72	60
37.8739	38.1229	63	48
37.993	38.1229	48	48
38.122	38.6009	51	51
38.122	38.6009	78	71
38.2449	38.6009	66	40
38.2459	38.6009	69	40
38.2469	38.6009	57	44
38.2469	38.6009	72	59
38.3669	38.6009	63	47
38.4929	38.6149	48	48
38.4929	38.6149	73	67
38.6159	39.1109	75	68
38.6179	39.1109	54	51
38.7379	39.1109	66	40
38.7379	39.1109	69	40
38.7409	39.1109	57	43
38.7409	39.1109	72	60
38.8609	39.1109	63	48
38.9859	39.1109	48	48
39.1089	39.5879	51	52
39.1089	39.5879	78	74
39.2349	39.5879	66	42
39.2379	39.5879	69	42
39.2389	39.5879	57	46
39.2389	39.5879	72	63
39.3609	39.5879	63	50
39.4799	39.6089	48	51
39.4799	39.6049	73	78
39.6089	40.1099	75	88
39.6099	40.1099	54	57
39.7319	40.1099	72	54
39.7319	40.1099	78	54
39.7329	40.1059	84	78
39.7349	40.1099	57	54
39.8539	40.1099	63	54
39.9759	40.1099	48	55
40.1059	40.6029	49	51
40.1059	40.6029	84	73
40.2319	40.6029	72	50
40.2329	40.6029	57	50
40.2329	40.6029	73	72
40.3579	40.6029	65	47
40.4779	40.6029	53	48
40.4779	40.6029	75	64
40.5999	41.1069	77	69
40.6029	41.1069	58	51
40.7289	41.1069	70	44
40.7319	41.1069	82	69
40.7329	41.1069	61	49
40.7329	41.1069	73	44
40.8509	41.1069	65	48
40.9779	41.1069	49	48
41.1069	41.4789	52	61
41.1069	41.6319	85	85
41.2269	41.6319	73	71
41.2289	41.6319	84	84
41.2299	41.6319	61	59
41.2299	41.6319	79	71
41.3559	41.6319	67	55
41.4779	41.6319	82	80
41.4789	41.6319	52	57
41.6049	42.1119	81	86
41.6069	41.9819	53	61
41.7299	42.1119	77	67
41.7329	42.1119	72	67
41.7339	42.1119	84	80
41.7369	42.1119	60	58
41.8559	42.1119	69	57
41.9819	42.1119	53	57
42.1089	42.6399	78	67
42.1119	42.4819	45	48
42.2309	42.6399	66	55
42.2339	42.6399	72	55
42.2339	42.6399	77	66
42.2349	42.6399	54	44
42.3609	42.6399	63	44
42.4799	42.6399	75	64
42.4819	42.6399	45	44
42.6089	43.1159	74	69
42.6119	42.9829	46	48
42.7369	43.1159	70	53
42.7379	43.1159	77	64
42.7419	43.1159	53	44
42.7419	43.1159	65	53
42.7419	43.1159	73	53
42.8609	43.1159	61	44
42.9829	43.1159	46	44
43.1129	43.4939	52	61
43.1129	43.6439	85	85
43.236	43.6439	73	71
43.2389	43.6439	61	59
43.2389	43.6439	79	71
43.2389	43.6439	84	84
43.3669	43.6439	67	55
43.4899	43.6439	82	80
43.4939	43.6439	52	57
43.6199	43.9879	53	61
43.6199	44.12	81	86
43.7429	44.12	72	67
43.7429	44.12	77	67
43.7459	44.12	84	80
43.7469	44.12	60	58
43.8649	44.12	69	57
43.9879	44.12	53	57
44.118	44.4959	50	61
44.118	44.6479	83	84
44.2399	44.6479	71	65
44.2429	44.6479	59	58
44.2429	44.6479	77	65
44.2429	44.6479	82	77
44.3719	44.6479	65	55
44.4959	44.6479	50	55
44.4959	44.6479	80	80
44.6239	45.178	79	86
44.6249	45.0239	51	61
44.7439	45.1739	78	63
44.7469	45.178	70	63
44.7479	45.178	58	57
44.7479	45.178	82	75
44.8699	45.178	66	55
45.0239	45.178	51	55
45.1739	46.2419	78	83
45.1749	45.7099	69	83
45.178	45.7139	39	69
45.178	45.7129	81	99
45.3129	45.5789	46	59
45.4539	45.7139	70	66
45.4549	45.7139	82	79
45.4569	45.7139	58	71
45.5789	45.7139	46	59
45.7099	46.2379	69	75
45.7129	46.2419	41	69
45.7129	46.2419	81	89
45.8389	46.1079	46	59
45.9789	46.2419	70	66
45.9789	46.2419	82	79
45.9799	46.2389	77	66
45.9819	46.2419	58	69
46.1079	46.2419	46	59
46.2379	46.7779	69	78
46.2389	46.8259	77	78
46.2419	46.8259	42	69
46.2419	46.7799	81	92
46.3679	46.6439	46	59
46.5079	46.8259	70	67
46.5079	47.3539	75	67
46.5089	46.8259	82	80
46.5109	46.8259	58	68
46.6439	46.8259	46	59
46.7779	47.3539	69	74
46.7799	47.3539	43	68
46.7799	47.3539	81	89
46.9139	47.1969	51	59
47.0639	47.3539	70	67
47.0649	47.3509	73	67
47.0649	47.3539	82	80
47.0669	47.3539	63	68
47.1969	47.3519	51	59
47.3469	47.4839	66	84
47.3479	47.4839	61	79
47.3509	47.4849	44	52
47.3509	47.4849	73	100
47.3519	47.4879	51	57
47.3519	47.4879	58	68
47.6269	47.7679	60	65
47.6279	47.7679	66	73
47.6279	47.7689	72	86
47.6309	47.7709	44	39
47.6319	47.7709	51	46
47.6319	47.7719	56	56
48.1909	48.4819	61	56
48.1909	48.4819	70	66
48.1949	48.4849	34	38
48.1949	48.4849	56	56
48.1949	48.4829	66	58
48.1979	48.4849	46	46
48.4889	49.0659	56	58
48.4889	49.1149	70	68
48.4899	49.1149	62	58
48.4919	49.1149	35	41
48.4919	49.1149	47	49
48.4919	49.0659	66	56
49.0629	49.4929	63	53
49.0629	49.4899	68	62
49.0659	49.4959	56	53
49.0659	49.4929	66	62
49.0669	49.4969	36	39
49.0699	49.4969	48	46
49.4979	49.6289	53	49
49.6329	50.9109	53	41
49.6339	50.9079	61	41
49.6339	50.9109	68	49
49.6359	50.9109	37	31
49.6359	51.5999	49	37
50.9069	51.5999	56	41
50.9079	51.5999	61	41
50.9099	51.5999	65	49
51.5339	52.1599	58	37
51.5339	52.1599	66	44
51.5349	52.1599	63	37
51.5369	52.1599	42	39
52.1539	54.7319	54	31
52.1569	53.7519	44	36
52.1569	54.7329	60	37
52.1569	53.4619	65	46
53.4349	54.7359	63	41
53.7529	54.0699	45	37
54.0709	54.3889	46	39
54.3929	54.7369	44	37
54.5719	56.0489	53	41
54.6519	56.0459	61	41
54.7369	56.0489	68	49
54.7399	56.0489	37	33
55.3909	56.0489	56	41
55.3939	56.0489	65	49
56.0449	56.7478	66	49
56.0459	56.7478	58	41
56.0459	56.7478	61	41
56.0479	56.7478	49	39
56.3539	56.7478	56	39
56.3568	56.7478	65	47
56.6828	57.3188	63	41
56.6848	57.3158	60	37
56.6858	57.3188	42	39
56.6858	57.3188	68	44
56.9938	57.3188	58	35
56.9938	57.3188	66	41
57.3158	59.8528	54	29
57.3158	59.8528	60	36
57.3158	58.6168	65	45
57.3168	58.9009	44	29
58.5898	59.8539	63	41
58.9009	59.2159	45	37
59.2159	59.4218	48	35
59.4218	59.6388	46	34
59.6398	59.8568	44	34
59.8568	60.5008	68	52
59.8598	60.5008	37	41
59.8598	60.5008	53	41
59.8598	61.2068	61	40
60.4968	61.2068	64	44
60.4968	61.2068	70	51
60.4978	61.2068	55	44
61.1338	61.8448	63	44
61.1378	62.3878	44	37
61.1378	61.8448	72	52
61.1388	61.8448	54	44
61.7608	62.3878	66	49
61.7608	62.3848	73	58
61.7638	62.3878	58	44
62.2258	62.3878	72	53
62.2268	62.3868	56	49
62.2268	62.3878	75	60
62.3839	63.0079	65	42
62.3848	63.0079	73	47
62.3868	63.0079	49	39
62.3868	63.0079	56	42
62.3868	63.0079	77	61
63.0029	63.6788	64	44
63.0068	63.6788	61	44
63.0068	63.6788	70	51
63.0079	63.6788	55	44
63.6608	64.2238	60	44
63.6618	64.9288	63	44
63.6618	64.2238	72	52
63.6648	64.9288	44	37
63.6658	64.9288	54	44
64.2028	64.9288	58	56
64.2838	64.9288	73	58
64.2848	64.9288	42	37
64.7598	64.9288	75	60
64.8408	65.6628	41	41
64.9238	65.5758	65	53
64.9248	66.2368	72	53
64.9278	65.6628	77	63
64.9288	65.6628	57	49
65.5748	66.2368	75	60
65.5758	66.9058	65	53
65.5788	66.2368	33	40
65.5788	66.2368	45	48
66.2298	66.9058	61	53
66.2338	66.9058	70	63
66.2338	66.9058	73	63
66.2348	66.9058	34	41
66.2348	66.9058	46	49
66.8848	67.5188	64	53
66.8848	67.5148	68	53
66.8858	67.5188	72	63
66.8878	67.5188	36	41
66.8888	67.5188	48	49
67.3568	67.5148	65	57
67.3598	67.5188	70	57
67.3608	67.5188	37	37
67.3608	67.5188	49	45
67.5138	68.1618	59	51
67.5148	68.1618	65	56
67.5148	68.1618	68	61
67.5178	68.1618	38	41
67.5188	68.1618	50	49
68.1548	68.7878	63	59
68.1558	68.7918	54	47
68.1558	68.7888	58	49
68.1578	68.7928	66	59
68.1588	68.7928	39	41
68.1588	68.7928	51	49
68.6308	68.7928	56	47
68.6318	68.7888	61	56
68.6348	68.7928	41	37
68.6348	68.7928	53	45
68.6348	68.7928	65	56
68.7878	70.0978	63	59
68.7888	69.5378	58	49
68.7888	69.5378	61	59
68.7918	69.5378	42	41
68.7918	69.4118	54	49
69.4118	70.0978	54	47
69.4148	70.0978	60	53
69.4158	70.0978	44	45
69.7448	70.0978	64	60
69.9228	71.3788	65	55
70.0058	71.3758	73	60
70.0948	71.3788	80	72
70.0968	71.3788	37	39
70.3108	71.3788	55	33
70.5178	70.9488	56	31
70.7338	71.3788	58	37
70.9488	71.3788	56	31
71.1618	71.3788	44	31
71.3758	72.0028	68	49
71.3758	72.6568	73	49
71.3758	72.6518	77	60
71.3778	72.6568	49	39
71.5788	72.6568	55	35
71.7878	72.2148	56	35
72.0018	72.6568	65	34
72.0028	72.6568	68	39
72.0048	72.6568	58	37
72.2148	72.6568	56	33
72.3168	72.6568	70	41
72.3208	72.6568	75	41
72.3208	72.6568	78	55
72.4288	72.6568	44	33
72.6518	73.9198	77	65
72.6528	73.9198	66	38
72.6528	73.9198	72	45
72.6558	73.9198	51	39
72.8588	73.9198	55	35
73.0688	73.4888	56	35
73.2758	73.9198	58	37
73.4888	73.9198	56	33
73.5948	73.9198	75	55
73.6998	73.9198	44	33
73.9168	75.2017	70	58
73.9188	75.2017	54	39
74.1228	75.2017	55	35
74.2278	75.2017	68	52
74.3328	74.7488	56	35
74.5428	75.2017	58	37
74.5428	75.2017	61	61
74.7488	75.2017	56	33
74.8578	75.2017	63	55
74.9697	75.2017	44	33
75.0288	75.1978	65	62
75.1978	76.4818	65	55
75.2008	76.4818	49	39
75.2008	76.4787	73	57
75.2008	76.4818	80	68
75.5148	76.4818	55	34
75.6728	75.9928	56	33
75.8378	76.4818	68	49
75.8378	76.4818	77	62
75.8417	76.4818	58	37
75.9928	76.1567	56	31
76.1567	76.4818	56	37
76.3108	76.4818	44	37
76.4787	77.7407	73	57
76.4787	77.5277	78	66
76.4807	77.5247	70	55
76.4818	77.7407	49	39
76.7867	77.0977	68	46
76.7897	77.7407	55	35
76.7897	77.1017	77	55
76.9397	77.2587	56	35
77.0977	77.7407	68	48
77.1017	77.7407	58	37
77.1017	77.7347	77	57
77.2587	77.4127	56	33
77.3108	77.7387	72	46
77.3148	77.7407	80	55
77.4127	77.7407	56	37
77.5247	77.7407	70	46
77.5277	77.7407	78	55
77.5777	77.7407	44	31
77.7347	79.0047	77	61
77.7387	79.0047	66	32
77.7387	79.0047	72	38
77.7397	79.0047	51	39
78.0457	79.0047	55	35
78.2037	78.5227	56	35
78.3577	79.0047	58	37
78.5227	78.6827	56	33
78.6807	79.0047	75	60
78.6827	79.0047	56	37
78.8447	79.0047	44	33
79.0017	79.4187	70	60
79.0047	80.2927	54	39
79.2087	79.6277	68	51
79.3127	80.2927	55	35
79.4187	80.2927	70	51
79.4697	79.7827	56	35
79.6277	80.2907	68	58
79.6287	80.2927	58	39
79.7827	79.9467	56	35
79.8427	80.2927	61	53
79.9467	80.2927	56	39
80.0627	80.2927	63	53
80.1137	80.2927	44	35
80.2907	81.5807	68	59
80.2907	81.5807	73	58
80.2907	81.5707	80	73
80.2927	81.5807	49	44
80.4507	80.7697	56	39
80.6077	81.2447	58	39
80.7697	81.0877	56	39
80.9347	81.5807	70	57
80.9347	81.5807	82	68
80.9367	81.5807	65	44
81.0877	81.4027	56	40
81.2447	81.5807	58	40
81.4027	81.5807	56	41
81.5707	82.8277	80	61
81.5707	82.8337	84	73
81.5717	82.8337	78	61
81.5737	82.8337	44	45
81.5737	82.8337	72	61
81.7217	82.0367	56	40
81.8787	82.5047	58	41
82.0367	82.3477	56	41
82.2017	82.8337	73	68
82.2017	82.8337	85	75
82.2037	82.8337	66	47
82.3477	82.6667	56	44
82.5047	82.8337	58	44
82.6657	82.8337	75	70
82.6667	82.8337	56	44
82.6667	82.8337	87	73
82.8277	84.0977	80	66
82.8307	84.1007	77	66
82.8317	84.1007	49	48
82.8317	84.1007	89	78
82.9817	83.2997	56	42
83.1417	83.7757	58	42
83.2997	83.6137	56	42
83.4577	84.1007	82	73
83.4607	84.1007	65	49
83.4607	84.1007	70	61
83.6137	83.9337	56	46
83.7757	84.1007	58	46
83.9337	84.1007	56	46
84.0947	85.4307	78	66
84.0977	85.4307	72	66
84.0977	85.4307	80	66
84.0987	85.4307	44	50
84.0987	85.3717	84	78
84.2487	84.5667	56	46
84.4097	85.0437	58	46
84.5667	84.8857	56	46
84.7287	85.4307	73	66
84.7297	85.4307	85	79
84.7307	85.4307	66	52
84.8857	85.2087	56	49
85.0437	85.4307	58	49
85.2077	85.4307	75	64
85.2087	85.4307	56	49
85.2087	85.3727	87	77
85.3717	86.7017	84	66
85.3727	86.7017	77	70
85.3727	86.7017	87	74
85.3737	86.7017	89	81
85.3747	86.7017	45	57
85.5327	86.7017	52	51
85.6947	86.7017	53	51
85.8477	86.7017	60	51
86.0157	87.9417	78	66
86.0167	86.7017	57	58
86.0167	87.9377	90	78
86.1737	86.7017	64	53
86.3317	86.7017	65	53
86.4917	86.7017	72	53
86.6527	87.9417	82	74
86.6537	87.9417	46	59
86.6537	87.9417	85	74
86.8067	87.9417	52	52
86.9677	87.6127	89	77
86.9687	87.9417	53	52
86.9687	87.6117	77	64
87.1257	87.9417	61	53
87.2857	87.9417	76	63
87.2867	87.9417	58	60
87.2867	87.9417	88	75
87.4477	87.9417	64	55
87.6117	87.9417	77	63
87.6127	87.9417	65	55
87.6127	87.9417	89	75
87.7697	87.9417	73	56
87.9377	89.2147	80	72
87.9377	89.2147	90	71
87.9407	89.2147	92	85
87.9417	89.2147	48	61
87.9417	89.2147	87	57
88.0947	89.2147	55	55
88.2527	89.2147	56	55
88.4127	89.2147	63	55
88.5817	89.2147	60	62
88.5817	89.8367	82	70
88.5817	90.4707	94	84
88.7357	89.2147	67	57
88.8897	89.2147	68	57
89.0537	89.2147	75	57
89.2127	90.3097	89	81
89.2137	90.4707	50	62
89.3617	90.4707	57	56
89.5207	90.4677	92	80
89.5217	90.4677	80	67
89.5227	90.4707	58	57
89.6727	90.4707	65	57
89.8347	90.4707	78	70
89.8347	90.4707	90	84
89.8367	90.4667	82	62
89.8377	90.4707	62	63
89.9947	90.4707	69	58
90.1497	90.4707	70	59
90.3097	90.4707	77	66
90.3097	90.4707	89	78
90.4667	91.1017	82	73
90.4677	91.1637	80	73
90.4677	91.1637	92	86
90.4687	91.1637	39	59
90.6217	91.1637	46	52
90.7807	91.1637	78	60
90.7817	91.1637	90	72
90.7827	91.1637	51	52
90.9407	91.1637	58	52
91.1017	91.7347	82	54
91.1017	91.7347	89	72
91.1037	91.7347	77	57
91.1047	91.7387	41	59
91.2517	91.7387	46	52
91.4127	91.7387	74	60
91.4167	91.7387	50	52
91.4167	91.7387	86	72
91.5737	91.7387	56	52
91.7347	92.3787	77	69
91.7347	92.3687	82	54
91.7347	92.3787	89	81
91.7357	92.3787	42	62
91.8857	92.3787	46	52
92.0467	92.3787	51	52
92.0467	92.3787	75	60
92.0467	92.3787	87	71
92.2047	92.3787	58	52
92.3647	92.9957	76	55
92.3687	92.9917	70	61
92.3687	92.9947	82	72
92.3697	92.9957	43	61
92.5197	92.9957	49	52
92.6797	92.9957	73	56
92.6797	92.9957	85	67
92.6807	92.9957	52	52
92.8337	92.9957	58	52
92.9917	93.6387	70	66
92.9947	93.6387	44	59
92.9947	93.6387	77	61
92.9947	93.6387	82	80
93.1457	93.6387	49	52
93.3067	93.6387	68	61
93.3067	93.6387	80	73
93.3077	93.6387	53	52
93.4597	93.6287	61	52
93.6257	94.2727	73	73
93.6287	94.2757	46	58
93.6287	94.1037	61	61
93.6287	93.9437	66	61
93.7867	94.2757	49	52
93.9437	94.2727	66	62
93.9467	94.2757	54	52
93.9467	94.2757	78	74
94.1037	94.2697	61	52
94.2697	94.7447	61	67
94.2727	94.9237	66	67
94.2727	94.9237	73	67
94.2727	94.9237	75	80
94.2737	94.9237	44	52
94.4237	94.9237	51	47
94.5837	94.9237	56	47
94.7447	94.9237	61	47
94.9027	95.5327	65	63
94.9027	95.5327	77	75
94.9037	95.5327	72	51
94.9057	95.5327	42	55
95.0557	95.5327	48	47
95.2167	95.5327	66	60
95.2167	95.5327	78	70
95.2177	95.5327	51	47
95.3717	95.5327	56	47
95.5297	96.1587	73	47
95.5317	96.1597	70	62
95.5317	96.1597	82	77
95.5327	96.1597	41	55
95.6827	96.1597	44	47
95.8437	96.1597	69	51
95.8437	96.1597	81	68
95.8447	96.1597	49	47
95.9977	96.1597	56	47
96.1547	96.8057	80	77
96.1587	96.8057	68	64
96.1587	96.3707	73	53
96.1597	96.8057	46	56
96.3167	96.8057	49	47
96.3707	96.7987	73	70
96.3717	96.6347	61	60
96.4767	96.8057	54	47
96.5827	96.8027	66	60
96.5837	96.8057	78	70
96.6347	96.8057	61	47
96.7987	97.4397	73	66
96.8027	97.4397	66	66
96.8027	97.2777	75	80
96.8037	97.4397	45	55
96.8037	97.2757	63	66
96.9607	97.4397	49	47
97.1207	97.4397	65	57
97.1207	97.4397	77	68
97.1217	97.4397	54	47
97.2757	97.4397	63	53
97.2777	97.4397	75	63
97.2787	97.4397	61	47
97.4357	98.0877	62	61
97.4367	98.0877	44	51
97.4367	98.0877	72	61
97.4367	98.0877	74	73
97.5907	98.0877	63	57
97.5937	98.0877	51	47
97.5937	98.0877	75	68
97.7507	98.0877	65	61
97.7547	98.0877	77	73
97.7557	98.0877	60	47
97.9137	98.0877	66	58
97.9157	98.0877	42	47
97.9157	98.0877	78	69
98.0837	98.7307	73	67
98.0847	98.7307	67	70
98.0847	98.7307	79	83
98.0867	98.7307	41	56
98.2377	98.7307	44	47
98.2907	98.7307	68	66
98.2907	98.7307	80	79
98.3927	98.7307	48	46
98.5007	98.7307	77	69
98.5017	98.7307	89	77
98.5497	98.7307	56	46
98.7167	99.1477	78	70
98.7177	99.3586	46	53
98.7177	99.3577	75	70
98.7177	99.3586	87	82
98.8787	99.3586	49	45
98.9297	99.1447	73	62
98.9307	99.3586	85	73
99.0327	99.3586	54	44
99.1447	99.3547	73	64
99.1477	99.3586	66	68
99.1477	99.3586	78	80
99.1937	99.3586	61	44
99.3547	100.02	73	69
99.3577	100.02	63	69
99.3577	100.695	75	82
99.3586	100.019	44	50
99.3586	100.695	68	69
99.5227	100.02	51	42
99.6826	100.02	56	42
99.8447	100.02	61	41
100.016	100.695	66	61
100.017	100.695	72	61
100.019	100.695	44	49
100.184	100.695	51	41
100.353	100.692	56	40
100.513	100.695	60	40
100.601	100.689	73	73
100.688	100.866	65	72
100.689	100.867	73	85
100.691	100.867	49	56
100.692	100.87	56	56
100.692	100.87	61	66
100.87	100.961	63	62
100.874	100.962	51	42
100.874	100.962	55	42
100.874	100.962	70	73
100.875	100.964	61	51
101.045	101.136	63	62
101.045	101.136	70	73
101.048	101.137	51	42
101.048	101.137	55	42
101.052	101.137	61	51
101.22	101.388	63	62
101.221	101.388	70	75
101.223	101.389	51	46
101.224	101.392	55	46
101.224	101.392	61	56
101.393	101.469	68	71
101.395	101.472	56	42
101.396	101.472	60	51
101.552	101.633	72	62
101.553	101.634	56	42
101.553	101.636	68	51
101.553	101.634	78	74
101.556	101.637	63	42
101.714	101.874	72	63
101.714	101.878	78	75
101.717	101.879	56	46
101.717	101.881	63	46
101.718	101.882	68	56
101.882	101.958	73	62
101.882	101.959	77	74
101.885	101.959	61	42
101.886	101.962	68	51
102.032	102.113	75	62
102.032	102.116	82	74
102.036	102.117	63	42
102.036	102.116	67	51
102.037	102.12	73	51
102.189	102.351	75	64
102.19	102.354	63	46
102.19	102.354	82	78
102.193	102.355	67	56
102.194	102.358	73	56
102.358	102.435	80	73
102.361	102.435	68	42
102.361	102.435	72	51
102.508	102.588	90	73
102.512	102.593	68	42
102.512	102.593	75	42
102.512	102.592	84	62
102.515	102.595	80	51
102.665	102.826	84	64
102.665	102.829	90	78
102.666	102.83	68	46
102.669	102.83	75	46
102.669	102.833	80	56
102.834	102.903	85	62
102.834	102.904	89	73
102.837	102.907	73	42
102.838	102.908	80	51
102.984	103.065	82	73
102.985	103.068	75	62
102.987	103.068	63	44
102.987	103.068	73	52
102.988	103.072	67	44
103.141	103.299	75	62
103.142	103.3	63	46
103.142	103.299	82	75
103.145	103.302	67	46
103.145	103.302	73	56
103.303	103.38	80	72
103.306	103.38	68	44
103.306	103.381	72	52
103.456	103.53	72	62
103.457	103.531	56	44
103.457	103.531	78	74
103.458	103.533	63	44
103.459	103.533	68	52
103.61	103.767	78	75
103.614	103.768	72	62
103.615	103.768	56	46
103.615	103.771	63	46
103.617	103.772	68	56
103.772	103.845	73	60
103.775	103.846	61	44
103.775	103.846	77	71
103.778	103.848	68	52
103.925	103.999	63	62
103.925	103.999	70	74
103.926	104.003	55	44
103.929	104.006	51	44
103.929	104.006	61	52
104.083	104.241	51	46
104.083	104.24	63	64
104.083	104.241	70	78
104.086	104.241	55	46
104.087	104.244	61	56
104.244	104.314	68	74
104.245	104.314	56	44
104.247	104.315	60	52
104.394	104.478	60	62
104.398	104.478	44	44
104.398	104.478	51	44
104.398	104.478	66	74
104.401	104.481	56	52
104.551	104.716	60	64
104.552	104.716	44	46
104.552	104.716	66	78
104.554	104.717	51	46
104.555	104.718	56	56
104.719	104.797	61	56
104.719	104.796	65	67
104.722	104.797	49	39
104.723	104.799	56	47
104.876	104.957	64	49
104.877	104.961	55	36
104.877	104.957	69	59
104.88	104.961	61	41
105.034	105.191	64	51
105.034	105.191	69	62
105.035	105.192	55	37
105.038	105.192	61	44
105.195	105.265	63	49
105.196	105.266	56	34
105.196	105.265	68	58
105.198	105.269	60	41
105.346	105.422	72	44
105.349	105.423	56	29
105.349	105.427	68	36
105.349	105.423	78	52
105.353	105.427	63	29
105.503	105.654	72	46
105.503	105.657	78	55
105.504	105.657	56	33
105.506	105.658	63	33
105.506	105.658	68	39
105.661	105.733	73	44
105.662	105.738	61	29
105.662	105.734	77	52
105.664	105.738	68	36
105.811	105.888	81	52
105.812	105.889	67	36
105.812	105.889	76	44
105.814	105.891	73	36
105.965	106.126	76	46
105.969	106.127	81	55
105.972	106.127	67	39
105.972	106.129	73	39
106.129	106.199	75	41
106.13	106.203	68	29
106.13	106.203	80	51
106.133	106.204	72	36
106.273	106.356	84	39
106.277	106.357	90	46
106.28	106.357	68	26
106.28	106.36	75	26
106.28	106.361	80	31
106.434	106.588	84	40
106.435	106.592	68	29
106.435	106.588	90	49
106.436	106.592	75	29
106.437	106.593	80	35
106.595	106.665	85	39
106.595	106.665	89	46
106.596	106.666	73	26
106.599	106.666	80	31
106.745	106.819	76	47
106.746	106.823	73	39
106.746	106.822	81	55
106.749	106.826	67	33
106.896	107.053	76	49
106.896	107.054	81	59
106.9	107.057	67	35
106.9	107.058	73	41
107.058	107.134	75	45
107.059	107.135	80	56
107.06	107.137	68	33
107.061	107.138	72	39
107.211	107.292	72	47
107.211	107.292	78	56
107.212	107.292	56	33
107.212	107.295	63	33
107.215	107.295	68	39
107.372	107.533	72	49
107.373	107.537	78	59
107.375	107.538	56	35
107.376	107.54	63	35
107.376	107.54	68	41
107.54	107.617	73	47
107.541	107.617	77	55
107.544	107.618	61	33
107.544	107.618	68	39
107.694	107.771	64	45
107.695	107.775	55	33
107.695	107.774	69	54
107.696	107.778	61	39
107.848	108.012	64	49
107.852	108.013	55	35
107.852	108.013	69	59
107.853	108.016	61	41
108.02	108.089	56	33
108.02	108.086	63	45
108.02	108.087	68	56
108.021	108.093	60	39
108.173	108.261	63	52
108.177	108.261	60	52
108.177	108.262	66	62
108.178	108.265	44	41
108.178	108.265	56	49
108.341	108.506	63	49
108.345	108.507	60	49
108.346	108.51	44	39
108.346	108.51	56	47
108.346	108.507	66	59
108.511	108.587	60	41
108.511	108.583	64	42
108.513	108.59	43	33
108.513	108.59	67	49
108.514	108.59	55	39
108.667	108.744	72	56
108.668	108.745	62	49
108.668	108.745	66	47
108.67	108.747	55	38
108.671	108.747	57	45
108.825	108.981	62	49
108.825	108.982	66	49
108.826	108.982	72	59
108.828	108.985	55	39
108.828	108.986	57	47
108.986	109.055	62	42
108.987	109.059	67	41
108.989	109.06	71	48
108.99	109.06	55	31
108.99	109.06	59	39
109.139	109.213	65	47
109.14	109.213	67	47
109.14	109.214	71	47
109.14	109.217	77	56
109.143	109.217	55	36
109.143	109.217	62	44
109.289	109.444	71	49
109.29	109.444	65	49
109.29	109.447	67	49
109.293	109.447	77	59
109.294	109.448	55	39
109.294	109.451	62	47
109.452	109.521	67	46
109.452	109.521	72	44
109.454	109.525	60	34
109.454	109.522	76	52
109.455	109.525	55	34
109.458	109.525	64	41
109.601	109.675	84	56
109.602	109.678	74	49
109.604	109.682	78	47
109.605	109.683	55	44
109.605	109.682	72	49
109.606	109.683	62	44
109.608	109.685	69	44
109.752	109.91	72	49
109.753	109.91	84	59
109.755	109.911	74	49
109.755	109.913	78	49
109.756	109.913	55	47
109.759	109.913	62	47
109.759	109.914	69	47
109.916	109.983	71	46
109.917	109.987	79	41
109.917	109.987	83	51
109.92	109.99	55	44
109.92	109.991	62	34
109.92	109.991	67	41
110.067	110.148	77	49
110.068	110.151	79	49
110.068	110.151	83	47
110.068	110.152	89	55
110.07	110.152	55	47
110.071	110.152	62	36
110.071	110.155	67	44
110.221	110.385	77	49
110.225	110.389	79	49
110.225	110.389	83	49
110.228	110.39	55	39
110.228	110.392	62	39
110.228	110.39	89	59
110.229	110.392	67	47
110.393	110.858	74	63
110.396	110.879	62	34
110.396	110.879	70	45
110.397	110.879	68	49
110.547	110.879	71	66
110.548	110.879	80	80
110.55	110.879	53	61
110.704	110.879	73	68
110.705	110.879	56	47
110.705	110.879	65	56
110.705	110.879	77	74
110.858	111.171	74	71
110.862	111.171	50	62
110.862	111.171	83	84
111.016	111.171	56	49
111.016	111.171	76	66
111.016	111.171	80	79
111.019	111.171	62	59
111.166	111.53	77	74
111.17	111.53	47	64
111.17	111.53	86	89
111.324	111.53	79	72
111.324	111.53	83	85
111.325	111.53	53	50
111.327	111.53	59	60
111.478	111.807	80	78
111.478	111.807	89	92
111.479	111.807	44	69
111.632	111.807	82	73
111.632	111.807	86	86
111.633	111.807	50	53
111.635	111.807	56	64
111.789	111.951	83	79
111.793	111.954	41	77
111.793	112.125	92	94
111.951	112.125	83	77
111.953	112.125	95	90
111.954	112.125	29	69
111.954	112.125	41	69
112.122	112.632	84	85
112.123	112.293	40	42
112.123	112.632	96	101
112.125	112.632	28	42
112.125	112.293	52	50
112.289	112.452	60	64
112.29	112.451	67	64
112.29	112.454	72	77
112.293	112.454	40	36
112.293	112.454	52	50
112.451	112.632	67	64
112.452	112.615	60	64
112.454	112.618	40	40
112.454	112.619	52	48
112.454	112.616	72	77
112.615	112.776	60	55
112.616	112.777	68	55
112.616	112.78	72	77
112.618	112.78	40	40
112.619	112.78	52	48
112.776	112.934	60	63
112.777	112.934	68	63
112.78	112.938	40	40
112.78	112.938	52	48
112.78	112.937	72	75
112.934	113.091	60	63
112.934	113.092	68	63
112.937	113.091	72	75
112.938	113.095	40	41
112.938	113.095	52	49
113.091	113.253	60	57
113.091	113.256	72	80
113.092	113.255	68	57
113.095	113.577	40	38
113.095	113.577	52	55
113.253	113.41	60	64
113.255	113.411	68	64
113.256	113.413	39	44
113.256	113.413	51	52
113.256	113.411	72	77
113.41	113.571	60	64
113.411	113.574	68	64
113.411	113.575	72	77
113.413	113.575	39	44
113.413	113.575	51	52
113.571	113.732	60	68
113.574	113.732	68	68
113.575	114.043	39	47
113.575	114.043	51	56
113.575	113.729	72	81
113.729	113.882	72	79
113.732	113.883	40	44
113.732	113.879	60	67
113.732	113.879	68	67
113.733	113.883	52	52
113.879	114.037	60	67
113.879	114.04	68	67
113.882	114.04	72	79
113.883	114.041	40	44
113.883	114.041	52	52
114.037	114.193	60	67
114.04	114.547	68	67
114.04	114.197	72	80
114.041	114.198	40	46
114.041	114.198	52	56
114.193	114.344	60	68
114.194	114.345	69	68
114.197	114.348	72	81
114.198	114.348	40	47
114.198	114.349	52	57
114.344	114.509	60	69
114.345	114.505	69	69
114.348	114.509	40	48
114.348	114.509	72	82
114.349	114.513	52	58
114.505	114.666	69	71
114.509	114.667	40	49
114.509	114.977	60	71
114.509	114.977	72	83
114.513	114.67	52	58
114.663	114.812	61	71
114.666	114.817	69	71
114.667	114.817	40	50
114.667	114.817	73	84
114.67	114.82	52	59
114.812	114.97	61	71
114.817	114.975	40	51
114.817	114.974	69	71
114.817	114.975	73	85
114.82	114.977	52	61
114.97	115.132	61	72
114.974	115.135	69	72
114.975	115.471	40	52
114.975	115.132	73	86
114.977	115.471	52	62
115.132	115.285	61	73
115.132	115.286	73	88
115.135	115.285	69	73
115.138	115.289	39	52
115.139	115.289	51	62
115.285	115.44	61	75
115.285	115.44	69	75
115.286	115.443	73	90
115.289	115.447	39	53
115.289	115.447	51	63
115.44	115.604	61	77
115.44	115.912	69	77
115.443	115.605	73	91
115.447	115.912	39	53
115.447	115.912	51	64
115.604	115.755	61	78
115.605	115.909	68	78
115.605	115.755	73	92
115.607	115.758	40	55
115.608	115.758	52	66
115.755	115.908	61	79
115.755	115.909	73	93
115.756	115.912	67	79
115.758	115.912	40	56
115.758	115.912	52	67
115.908	116.08	61	73
115.909	116.423	41	52
115.909	116.077	68	86
115.909	116.423	73	102
115.912	116.423	53	74
116.077	116.244	65	68
116.077	116.245	68	80
116.078	116.245	77	95
116.08	116.246	49	50
116.08	116.245	56	50
116.08	116.248	61	71
116.244	116.413	65	68
116.245	116.416	56	51
116.245	116.413	68	80
116.245	116.414	77	95
116.246	116.416	49	51
116.248	116.416	61	72
116.413	116.909	65	72
116.413	116.909	68	85
116.414	116.909	77	101
116.416	116.909	49	53
116.416	116.909	56	53
116.416	116.738	61	75
116.581	116.909	63	68
116.581	116.909	75	95
116.738	116.909	61	68
116.739	116.909	73	95
116.907	117.427	30	68
116.909	117.427	42	96
117.081	117.249	65	68
117.085	117.253	54	50
117.085	117.249	70	80
117.085	117.253	77	95
117.086	117.254	49	50
117.089	117.254	61	71
117.249	117.417	65	68
117.249	117.418	70	80
117.253	117.421	54	51
117.253	117.42	77	95
117.254	117.421	49	51
117.254	117.422	61	72
117.417	117.919	65	72
117.418	117.919	70	85
117.42	117.919	77	101
117.421	117.919	49	53
117.421	117.919	54	53
117.422	117.747	61	75
117.585	117.919	75	95
117.586	117.919	63	68
117.747	117.919	61	68
117.75	117.919	73	95
117.915	118.439	32	68
117.918	118.439	44	96
118.09	118.264	65	68
118.092	118.265	68	80
118.093	118.265	77	95
118.096	118.265	56	50
118.097	118.268	49	50
118.099	118.268	61	71
118.264	118.432	65	68
118.265	118.436	56	51
118.265	118.433	68	80
118.265	118.433	77	95
118.268	118.435	49	51
118.268	118.436	61	72
118.432	118.922	65	72
118.433	118.922	68	85
118.433	118.922	77	101
118.435	118.922	49	53
118.436	118.922	56	53
118.436	118.758	61	75
118.593	118.922	75	95
118.594	118.922	63	68
118.758	118.922	61	68
118.761	118.922	73	95
118.92	119.471	34	68
118.922	119.471	46	96
119.105	119.279	65	68
119.108	119.28	67	80
119.108	119.28	77	95
119.111	119.283	58	50
119.112	119.283	51	50
119.112	119.286	61	71
119.279	119.458	65	68
119.28	119.461	67	80
119.28	119.461	77	95
119.283	119.462	51	51
119.283	119.462	58	51
119.286	119.464	61	72
119.458	120.024	65	72
119.461	120.024	67	85
119.461	120.024	77	101
119.462	120.018	51	53
119.462	120.024	58	53
119.464	119.833	61	75
119.644	120.024	75	95
119.647	120.022	63	68
119.833	120.021	61	68
119.835	120.024	73	95
120.018	122.065	51	84
120.019	122.065	55	84
120.021	122.065	61	95
120.022	122.065	27	59
120.022	122.065	63	101
120.023	122.065	39	70
122.059	124.204	54	80
122.061	124.204	60	80
122.062	124.204	32	56
122.062	124.204	44	66
122.062	124.204	65	95
124.201	124.693	34	44
124.201	124.697	46	52
124.32	124.718	53	29
124.445	124.718	49	22
124.449	124.718	58	22
124.449	124.718	61	26
124.573	124.718	41	33
124.693	125.188	34	25
124.697	125.191	46	29
124.817	125.191	53	29
124.946	125.191	49	23
124.946	125.191	61	27
124.949	125.191	58	23
125.072	125.191	41	35
125.188	125.684	34	27
125.191	125.685	46	33
125.317	125.698	53	30
125.439	125.698	49	24
125.44	125.698	58	24
125.44	125.698	61	29
125.562	125.698	41	35
125.684	126.171	34	28
125.685	126.171	46	34
125.807	126.174	53	35
125.926	126.174	49	26
125.929	126.174	61	31
125.93	126.174	58	26
126.052	126.174	41	39
126.171	126.65	34	30
126.171	126.654	46	38
126.289	126.703	53	35
126.409	126.703	49	28
126.41	126.703	58	28
126.41	126.703	61	34
126.532	126.703	41	39
126.65	127.141	34	29
126.654	127.141	46	35
126.776	127.142	53	34
126.896	127.142	49	25
126.899	127.142	58	25
126.899	127.142	61	30
127.021	127.142	41	36
127.141	127.635	34	27
127.141	127.635	46	33
127.262	127.655	53	30
127.389	127.655	49	24
127.39	127.655	61	29
127.392	127.655	58	24
127.514	127.655	41	35
127.635	128.136	34	25
127.635	128.135	46	29
127.756	128.008	53	29
127.883	128.136	49	24
127.883	128.136	61	28
127.886	128.136	58	24
128.008	128.136	53	33
128.135	128.61	46	35
128.135	128.61	73	54
128.256	128.61	70	51
128.257	128.507	53	34
128.379	128.61	58	30
128.379	128.61	61	30
128.506	128.624	72	51
128.507	128.624	53	31
128.625	129.125	73	54
128.628	129.125	46	35
128.754	129.135	70	51
128.758	128.999	53	33
128.876	129.135	61	31
128.877	129.135	58	31
128.999	129.135	53	31
129.125	129.622	46	35
129.125	129.619	73	54
129.248	129.674	70	51
129.251	129.493	53	34
129.37	129.674	58	31
129.37	129.674	61	31
129.493	129.674	53	31
129.493	129.674	72	51
129.619	130.112	73	54
129.622	130.115	46	35
129.742	129.987	53	33
129.742	130.116	70	51
129.86	130.116	61	31
129.863	130.116	58	31
129.987	130.116	53	31
130.112	130.606	73	54
130.115	130.609	46	35
130.235	130.626	70	51
130.238	130.486	53	33
130.353	130.626	61	31
130.357	130.626	58	31
130.483	130.626	72	61
130.486	130.626	53	33
130.606	131.113	73	66
130.609	131.113	46	37
130.728	131.113	82	64
130.731	130.98	53	35
130.854	131.113	61	34
130.857	131.113	58	34
130.98	131.113	53	34
131.11	131.585	81	64
131.113	131.585	48	35
131.233	131.585	72	59
131.235	131.48	54	34
131.355	131.585	57	30
131.355	131.585	63	30
131.477	131.603	73	51
131.48	131.603	54	31
131.606	132.098	48	35
131.606	132.1	75	54
131.729	131.975	54	33
131.729	132.1	72	51
131.848	132.1	63	31
131.849	132.1	57	31
131.975	132.1	54	31
132.097	132.579	78	57
132.098	132.579	48	35
132.22	132.579	72	51
132.222	132.472	51	34
132.345	132.579	63	30
132.349	132.579	57	30
132.471	132.59	73	51
132.472	132.593	51	31
132.593	133.093	75	54
132.594	133.091	48	35
132.72	133.093	72	51
132.721	132.965	54	33
132.838	133.093	63	31
132.842	133.093	57	31
132.965	133.093	54	31
133.091	133.57	48	35
133.091	133.57	78	57
133.213	133.57	72	51
133.216	133.466	51	34
133.332	133.57	63	30
133.335	133.57	57	30
133.465	133.58	73	51
133.466	133.584	51	31
133.584	134.081	75	54
133.587	134.078	48	35
133.707	134.081	72	51
133.709	133.955	54	33
133.832	134.081	63	31
133.833	134.081	57	31
133.955	134.081	54	31
134.078	134.557	48	35
134.078	134.557	78	60
134.207	134.452	51	35
134.207	134.557	72	53
134.326	134.557	57	34
134.326	134.557	63	34
134.448	134.574	73	65
134.452	134.574	51	35
134.578	135.078	48	39
134.578	135.078	75	71
134.701	134.949	54	37
134.701	135.076	84	64
134.819	135.078	63	37
134.823	135.078	57	37
134.949	135.078	54	38
135.076	135.579	49	35
135.076	135.58	84	61
135.204	135.45	53	34
135.204	135.58	73	57
135.324	135.58	65	30
135.327	135.58	57	30
135.449	135.58	75	49
135.45	135.58	53	31
135.576	136.079	82	52
135.579	136.079	49	35
135.579	136.079	77	52
135.698	136.076	73	49
135.699	135.947	53	33
135.82	136.079	65	31
135.821	136.079	58	31
135.947	136.079	53	31
136.076	136.45	73	69
136.077	136.454	52	56
136.077	136.607	85	82
136.198	136.607	84	75
136.199	136.607	61	53
136.199	136.607	79	63
136.324	136.607	67	50
136.45	136.607	73	61
136.454	136.607	52	51
136.454	136.607	82	72
136.576	137.081	81	78
136.577	136.951	53	56
136.577	137.081	77	64
136.706	137.081	72	57
136.707	137.081	60	52
136.707	137.081	84	68
136.821	137.081	69	58
136.951	137.081	53	51
137.077	137.455	66	46
137.08	137.458	45	33
137.08	137.612	78	55
137.203	137.612	72	42
137.203	137.612	77	50
137.204	137.612	54	30
137.326	137.612	63	29
137.455	137.612	66	40
137.456	137.612	75	49
137.458	137.612	45	29
137.587	138.081	73	52
137.588	137.956	46	33
137.588	138.085	70	44
137.707	138.085	65	40
137.708	138.085	77	49
137.71	138.085	53	30
137.826	138.085	61	29
137.956	138.085	46	29
138.081	138.459	73	69
138.085	138.463	52	56
138.085	138.616	85	82
138.215	138.616	79	63
138.215	138.616	84	75
138.216	138.616	61	53
138.333	138.616	67	50
138.459	138.616	73	61
138.463	138.616	52	51
138.463	138.616	82	72
138.592	139.089	81	78
138.593	138.96	53	56
138.593	139.089	77	64
138.711	139.089	72	57
138.711	139.089	84	68
138.715	139.089	60	52
138.831	139.089	69	58
138.96	139.089	53	51
139.086	139.464	66	46
139.089	139.468	45	33
139.089	139.618	78	55
139.217	139.618	77	50
139.219	139.618	54	30
139.219	139.618	72	42
139.338	139.618	63	29
139.464	139.618	66	40
139.468	139.618	45	29
139.468	139.618	75	49
139.593	140.143	74	52
139.594	140.143	70	44
139.596	139.986	46	33
139.716	140.143	65	40
139.716	140.143	73	40
139.717	140.137	77	49
139.719	140.143	53	30
139.841	140.143	61	29
139.986	140.143	46	29
140.136	140.692	82	75
140.137	140.692	77	75
140.14	140.672	43	56
140.14	140.692	89	89
140.27	140.692	48	53
140.27	140.692	76	70
140.27	140.692	88	83
140.398	140.692	49	50
140.532	140.692	73	62
140.535	140.692	58	49
140.535	140.692	85	75
140.669	141.186	75	68
140.669	141.186	84	80
140.671	141.186	72	68
140.672	141.185	43	52
140.798	141.183	70	62
140.798	141.183	82	75
140.799	141.186	48	49
140.921	141.186	49	49
141.049	141.186	58	49
141.183	141.718	70	68
141.183	141.718	82	80
141.185	141.718	43	47
141.306	141.718	80	73
141.308	141.718	48	45
141.308	141.718	76	61
141.431	141.718	49	42
141.561	141.718	67	57
141.561	141.718	79	68
141.562	141.718	58	44
141.697	142.197	75	59
141.697	142.197	78	69
141.698	142.197	45	49
141.819	142.197	66	53
141.82	142.197	50	44
141.82	142.197	72	62
141.935	142.197	51	46
142.065	142.197	60	44
142.195	142.719	68	57
142.195	142.719	80	68
142.196	142.719	47	47
142.317	142.719	79	62
142.318	142.719	74	52
142.32	142.719	52	45
142.443	142.719	53	42
142.566	142.719	65	51
142.566	142.719	77	61
142.568	142.719	62	44
142.695	143.191	72	53
142.695	143.192	75	63
142.696	143.195	48	49
142.816	143.062	63	44
142.817	143.195	54	39
142.817	143.195	67	52
142.936	143.195	55	40
143.062	143.195	63	39
143.191	143.699	72	57
143.192	143.703	75	67
143.195	143.723	46	52
143.321	143.723	66	59
143.322	143.723	53	45
143.322	143.569	63	49
143.44	143.723	54	41
143.569	143.723	63	42
143.699	144.232	72	53
143.703	144.232	45	52
143.703	144.232	75	62
143.821	144.084	63	46
143.822	144.232	52	41
143.822	144.232	65	56
143.944	144.232	53	42
144.084	144.232	63	41
144.231	144.721	73	68
144.232	144.721	46	51
144.361	144.721	61	40
144.361	144.721	65	40
144.361	144.721	70	59
144.362	144.721	53	44
144.484	144.721	58	47
144.612	144.738	72	67
144.613	144.741	41	48
144.742	145.254	46	51
144.742	145.253	73	68
144.864	145.26	61	40
144.865	145.26	65	40
144.865	145.26	70	60
144.868	145.26	53	43
144.994	145.26	58	48
145.12	145.26	41	48
145.253	145.758	73	68
145.254	145.76	46	51
145.372	145.82	61	40
145.376	145.82	53	44
145.376	145.82	65	40
145.376	145.82	70	60
145.505	145.82	58	48
145.628	145.82	72	68
145.631	145.82	41	48
145.758	146.268	73	68
145.76	146.268	46	51
145.886	146.272	61	40
145.886	146.272	65	40
145.887	146.272	70	60
145.89	146.272	53	43
146.016	146.272	58	48
146.143	146.272	41	48
146.268	146.772	46	51
146.268	146.768	73	68
146.391	146.782	61	46
146.393	146.782	65	46
146.394	146.782	53	49
146.394	146.782	70	67
146.516	146.782	58	48
146.639	146.782	72	73
146.64	146.782	41	49
146.768	147.269	73	84
146.772	147.269	46	54
146.891	147.269	70	52
146.892	147.269	77	52
146.892	147.269	82	76
146.895	147.269	53	51
147.014	147.269	61	50
147.14	147.269	49	50
147.266	147.748	81	76
147.269	147.638	48	51
147.389	147.748	69	46
147.392	147.748	54	44
147.392	147.748	72	67
147.514	147.748	63	47
147.637	147.759	73	67
147.638	147.76	48	48
147.762	148.262	75	68
147.766	148.262	54	51
147.889	148.262	66	40
147.89	148.262	69	40
147.89	148.262	72	60
147.892	148.262	57	43
148.011	148.262	63	48
148.13	148.262	48	48
148.26	148.739	51	51
148.26	148.739	78	71
148.383	148.739	66	40
148.383	148.739	69	40
148.385	148.739	57	44
148.385	148.739	72	59
148.505	148.739	63	47
148.631	148.754	48	48
148.631	148.753	73	67
148.754	149.254	75	68
148.756	149.254	54	51
148.877	149.254	66	40
148.877	149.254	69	40
148.879	149.254	57	43
148.879	149.254	72	60
149.0	149.254	63	48
149.124	149.254	48	48
149.25	149.726	78	71
149.254	149.726	51	51
149.373	149.726	66	40
149.376	149.726	69	40
149.377	149.726	57	44
149.377	149.726	72	59
149.499	149.726	63	47
149.618	149.743	48	48
149.618	149.743	73	67
149.744	150.242	75	68
149.747	150.242	54	51
149.87	150.242	66	40
149.87	150.242	69	40
149.87	150.242	72	60
149.871	150.242	57	43
149.993	150.242	63	48
150.118	150.242	48	48
150.241	150.72	51	52
150.241	150.72	78	74
150.363	150.72	66	42
150.364	150.72	69	42
150.364	150.72	72	63
150.365	150.72	57	46
150.493	150.72	63	50
150.608	150.737	73	82
150.611	150.741	48	51
150.741	151.238	75	88
150.742	151.238	54	57
150.86	151.238	72	54
150.863	151.238	78	54
150.864	151.238	57	54
150.864	151.238	84	78
150.987	151.238	63	54
151.109	151.238	48	55
151.238	151.735	49	51
151.238	151.735	84	73
151.361	151.735	57	50
151.361	151.735	72	50
151.361	151.735	73	72
151.483	151.735	65	47
151.61	151.735	53	48
151.61	151.735	75	64
151.731	152.238	77	69
151.732	152.238	58	51
151.854	152.238	70	44
151.854	152.238	73	44
151.854	152.238	82	69
151.855	152.238	61	49
151.984	152.238	65	48
152.11	152.238	49	48
152.236	152.607	52	61
152.236	152.764	85	85
152.358	152.764	73	71
152.361	152.764	61	59
152.361	152.764	79	71
152.361	152.764	84	84
152.488	152.764	67	55
152.607	152.764	52	57
152.607	152.764	82	80
152.737	153.107	53	61
152.737	153.237	81	86
152.858	153.237	77	67
152.859	153.237	72	67
152.859	153.237	84	80
152.861	153.237	60	58
152.981	153.237	69	57
153.107	153.237	53	57
153.234	153.769	78	67
153.236	153.612	45	48
153.362	153.769	66	55
153.366	153.769	54	44
153.366	153.769	72	55
153.366	153.769	77	66
153.485	153.769	63	44
153.611	153.769	75	64
153.612	153.769	45	44
153.741	154.115	46	48
153.741	154.241	74	69
153.86	154.241	70	53
153.863	154.241	73	53
153.864	154.241	65	53
153.864	154.241	77	64
153.867	154.241	53	44
153.993	154.241	61	44
154.115	154.241	46	44
154.238	154.622	52	61
154.238	154.776	85	85
154.368	154.776	73	71
154.368	154.776	84	84
154.371	154.776	61	59
154.371	154.776	79	71
154.49	154.776	67	55
154.622	154.776	52	57
154.622	154.776	82	80
154.749	155.25	81	86
154.751	155.12	53	61
154.872	155.25	77	67
154.874	155.25	72	67
154.874	155.25	84	80
154.875	155.25	60	58
154.997	155.25	69	57
155.12	155.25	53	57
155.249	155.777	83	84
155.25	155.624	50	61
155.372	155.777	71	65
155.373	155.777	77	65
155.373	155.777	82	77
155.375	155.777	59	58
155.502	155.777	65	55
155.623	155.777	80	80
155.624	155.777	50	55
155.753	156.31	79	86
155.757	156.153	51	61
155.876	156.31	70	63
155.876	156.303	78	63
155.879	156.31	82	75
155.88	156.31	58	57
155.999	156.31	66	55
156.153	156.31	51	55
156.303	157.381	78	83
156.306	156.848	69	83
156.306	156.849	81	99
156.307	156.849	39	69
156.443	156.709	46	59
156.586	156.849	70	66
156.586	156.849	82	79
156.587	156.849	58	71
156.709	156.849	46	59
156.848	157.377	69	75
156.849	157.381	41	69
156.849	157.377	81	89
156.978	157.237	46	59
157.115	157.381	70	66
157.116	157.377	77	66
157.118	157.381	82	79
157.119	157.381	58	69
157.237	157.381	46	59
157.377	157.916	69	78
157.377	157.962	77	78
157.377	157.916	81	92
157.38	157.962	42	69
157.507	157.773	46	59
157.643	157.962	70	67
157.643	158.491	75	67
157.644	157.962	82	80
157.647	157.962	58	68
157.773	157.962	46	59
157.916	158.491	69	74
157.916	158.491	81	89
157.917	158.491	43	68
158.053	158.336	51	59
158.199	158.491	70	67
158.2	158.487	73	67
158.203	158.491	63	68
158.203	158.491	82	80
158.336	158.487	51	59
158.484	158.62	61	79
158.486	158.62	66	84
158.487	158.623	44	51
158.487	158.623	51	57
158.487	158.621	73	100
158.49	158.623	58	68
158.759	158.903	60	66
158.76	158.903	66	73
158.76	158.904	72	86
158.761	158.907	44	39
158.763	158.907	51	46
158.764	158.908	56	56
159.326	159.614	56	56
159.327	159.614	61	56
159.329	159.614	66	58
159.33	159.617	34	38
159.33	159.615	70	66
159.334	159.617	46	46
159.617	160.199	56	58
159.621	160.251	62	58
159.621	160.202	66	56
159.621	160.251	70	68
159.623	160.251	35	41
159.624	160.251	47	49
160.199	160.621	56	53
160.199	160.625	63	53
160.202	160.625	66	62
160.202	160.625	68	62
160.203	160.628	36	39
160.203	160.629	48	46
160.629	160.768	53	49
160.769	162.046	53	41
160.769	162.043	61	41
160.772	162.046	37	31
160.772	162.046	68	49
160.773	162.728	49	37
162.042	162.728	56	41
162.043	162.728	61	41
162.046	162.728	65	49
162.669	163.296	58	37
162.67	163.296	63	37
162.672	163.296	66	44
162.673	163.296	42	39
163.292	165.875	54	34
163.293	165.879	60	36
163.293	164.597	65	47
163.295	164.881	44	39
164.567	165.879	63	41
164.885	165.21	45	37
165.211	165.532	46	39
165.533	165.879	44	37
165.714	167.189	53	41
165.794	167.188	61	41
165.882	167.189	68	49
165.883	167.189	37	33
165.883	167.884	49	39
166.529	167.189	56	41
166.53	167.189	65	49
167.187	167.884	58	41
167.188	167.884	61	41
167.188	167.884	66	49
167.496	167.884	56	39
167.499	167.884	65	47
167.825	168.452	60	37
167.825	168.455	63	41
167.828	168.455	68	44
167.829	168.455	42	39
168.13	168.455	58	35
168.133	168.455	66	41
168.452	170.989	54	31
168.452	170.989	60	36
168.454	169.76	65	45
168.455	170.04	44	29
169.726	170.992	63	41
170.04	170.352	45	37
170.352	170.565	48	35
170.565	170.782	46	34
170.783	170.992	44	34
170.996	171.64	53	41
170.996	172.343	61	40
170.996	171.64	68	53
170.997	171.64	37	41
171.637	172.343	64	44
171.64	172.343	55	44
171.64	172.343	70	51
172.277	172.987	63	44
172.277	172.987	72	52
172.28	173.531	44	37
172.28	172.987	54	44
172.897	173.527	73	58
172.9	173.531	58	44
172.9	173.531	66	49
173.366	173.531	72	53
173.368	173.53	56	49
173.368	173.531	75	60
173.527	174.15	65	43
173.527	174.15	73	46
173.53	174.15	49	39
173.53	174.15	56	45
173.53	174.15	77	61
174.147	174.804	61	44
174.149	174.804	64	44
174.149	174.804	70	51
174.15	174.804	55	44
174.791	175.349	60	44
174.793	176.067	63	44
174.793	175.349	72	52
174.794	176.067	44	37
174.797	176.067	54	44
175.335	176.067	58	56
175.41	176.067	42	37
175.41	176.067	73	58
175.896	176.067	75	60
175.977	176.806	41	41
176.064	176.718	65	53
176.064	177.38	72	53
176.065	176.806	57	49
176.065	176.806	77	63
176.718	178.048	65	53
176.719	177.38	75	60
176.722	177.38	33	40
176.722	177.38	45	48
177.374	178.048	61	53
177.376	178.048	70	63
177.377	178.048	34	41
177.377	178.048	73	63
177.38	178.048	46	49
178.027	178.651	64	53
178.027	178.648	68	53
178.028	178.651	72	63
178.031	178.651	36	41
178.031	178.651	48	49
178.49	178.647	65	57
178.491	178.651	70	57
178.493	178.651	37	37
178.493	178.651	49	45
178.647	179.298	59	51
178.647	179.298	65	56
178.648	179.298	68	61
178.65	179.298	38	41
178.65	179.298	50	49
179.291	179.928	54	49
179.292	179.925	58	49
179.294	179.924	63	59
179.294	179.928	66	59
179.295	179.928	39	41
179.295	179.928	51	49
179.767	179.928	56	47
179.771	179.925	61	56
179.771	179.928	65	56
179.772	179.928	41	37
179.774	179.928	53	45
179.924	181.24	63	59
179.925	180.673	58	49
179.925	180.673	61	59
179.927	180.673	42	41
179.928	180.55	54	49
180.55	181.24	54	47
180.551	181.24	44	45
180.551	181.24	60	53
180.884	181.24	64	60
181.059	182.522	65	55
181.149	182.518	73	60
181.237	182.522	80	72
181.238	182.522	37	39
181.447	182.522	55	33
181.66	182.084	56	31
181.875	182.522	58	37
182.084	182.522	56	31
182.301	182.522	44	31
182.518	183.14	68	49
182.518	183.799	73	49
182.521	183.799	49	39
182.521	183.795	77	60
182.725	183.799	55	35
182.925	183.351	56	35
183.138	183.799	65	34
183.14	183.799	58	37
183.14	183.799	68	39
183.351	183.799	56	33
183.455	183.799	70	41
183.456	183.799	75	41
183.459	183.799	78	55
183.564	183.799	44	33
183.795	185.063	77	68
183.796	185.063	66	33
183.796	185.063	72	42
183.798	185.063	51	39
183.999	185.063	55	35
184.208	184.629	56	35
184.419	185.063	58	37
184.629	185.063	56	33
184.737	185.063	75	55
184.842	185.063	44	33
185.059	186.339	70	58
185.063	186.339	54	39
185.265	186.339	55	35
185.371	186.339	68	52
185.469	185.892	56	35
185.679	186.339	61	61
185.681	186.339	58	37
185.892	186.339	56	33
186.004	186.339	63	55
186.113	186.339	44	33
186.165	186.333	65	62
186.333	187.62	65	55
186.336	187.614	73	57
186.337	187.618	49	39
186.337	187.62	80	68
186.651	187.62	55	34
186.816	187.134	56	33
186.974	187.62	68	49
186.977	187.62	58	37
186.977	187.62	77	62
187.134	187.292	56	31
187.292	187.62	56	37
187.453	187.62	44	37
187.614	188.661	70	55
187.614	188.882	73	57
187.617	188.664	78	66
187.618	188.882	49	39
187.926	188.241	68	46
187.927	188.241	77	55
187.928	188.882	55	35
188.083	188.395	56	35
188.241	188.882	68	48
188.241	188.879	77	57
188.244	188.882	58	37
188.395	188.558	56	33
188.448	188.881	72	46
188.45	188.882	80	55
188.558	188.882	56	37
188.661	188.882	70	46
188.664	188.882	78	55
188.714	188.882	44	31
188.879	190.148	77	61
188.881	190.148	51	39
188.881	190.148	66	32
188.881	190.148	72	36
189.189	190.148	55	35
189.347	189.658	56	35
189.504	190.148	58	37
189.658	189.826	56	33
189.823	190.148	75	60
189.826	190.148	56	37
189.987	190.148	44	33
190.145	191.436	54	39
190.145	190.558	70	60
190.352	190.764	68	51
190.456	191.436	55	35
190.558	191.436	70	51
190.61	190.925	56	35
190.764	191.433	68	58
190.767	191.436	58	39
190.925	191.089	56	35
190.978	191.436	61	53
191.089	191.436	56	39
191.198	191.436	63	53
191.254	191.436	44	35
191.433	192.717	68	61
191.434	192.717	73	58
191.434	192.706	80	73
191.436	192.717	49	44
191.587	191.905	56	39
191.747	192.388	58	39
191.905	192.224	56	39
192.07	192.717	70	57
192.073	192.717	65	44
192.073	192.717	82	68
192.224	192.546	56	40
192.388	192.717	58	40
192.546	192.717	56	41
192.706	193.973	80	61
192.707	193.977	78	61
192.71	193.977	72	61
192.71	193.977	84	73
192.711	193.977	44	45
192.863	193.176	56	40
193.021	193.648	58	41
193.176	193.491	56	41
193.337	193.977	73	68
193.337	193.977	85	75
193.34	193.977	66	47
193.491	193.809	56	44
193.648	193.977	58	44
193.807	193.977	75	70
193.808	193.977	87	73
193.809	193.977	56	44
193.973	195.238	80	66
193.974	195.241	49	48
193.974	195.241	77	66
193.974	195.241	89	78
194.124	194.436	56	42
194.281	194.911	58	42
194.436	194.758	56	42
194.603	195.241	70	61
194.603	195.241	82	73
194.604	195.241	65	49
194.758	195.076	56	46
194.911	195.241	58	46
195.076	195.241	56	46
195.237	196.577	72	66
195.238	196.577	80	66
195.238	196.512	84	78
195.24	196.577	44	50
195.24	196.577	78	66
195.388	195.703	56	46
195.548	196.179	58	46
195.703	196.025	56	46
195.871	196.577	66	52
195.871	196.577	73	66
195.871	196.577	85	79
196.025	196.35	56	49
196.179	196.577	58	49
196.349	196.577	75	64
196.35	196.577	56	49
196.35	196.514	87	77
196.512	197.862	84	66
196.514	197.862	87	74
196.515	197.862	77	70
196.515	197.862	89	81
196.518	197.862	45	57
196.676	197.862	52	51
196.841	197.862	53	51
197.004	197.862	60	51
197.173	199.102	78	66
197.176	199.098	90	78
197.177	197.862	57	58
197.33	197.862	64	53
197.492	197.862	65	53
197.652	197.862	72	53
197.82	199.102	82	74
197.821	199.102	46	59
197.821	199.102	85	74
197.967	199.102	52	52
198.128	198.775	77	64
198.129	199.102	53	52
198.129	198.779	89	77
198.286	199.102	61	53
198.453	199.102	76	63
198.454	199.102	58	60
198.454	199.102	88	75
198.611	199.102	64	55
198.775	199.102	77	63
198.779	199.102	65	55
198.779	199.102	89	75
198.93	199.102	73	56
199.098	200.382	87	57
199.098	200.382	90	71
199.101	200.382	80	72
199.101	200.382	92	85
199.102	200.382	48	61
199.255	200.382	55	55
199.42	200.382	56	55
199.574	200.382	63	55
199.741	201.005	82	70
199.742	200.382	60	62
199.742	201.635	94	84
199.902	200.382	67	57
200.057	200.382	68	57
200.214	200.382	75	57
200.379	201.635	50	62
200.379	201.478	89	81
200.526	201.635	57	56
200.68	201.634	80	67
200.683	201.635	58	57
200.683	201.635	92	80
200.841	201.635	65	57
201.001	201.635	78	70
201.002	201.635	90	84
201.005	201.633	82	62
201.006	201.635	62	63
201.152	201.635	69	58
201.31	201.635	70	59
201.478	201.635	77	66
201.478	201.635	89	78
201.633	202.265	82	73
201.634	202.324	80	73
201.635	202.324	39	59
201.635	202.324	92	86
201.785	202.324	46	52
201.946	202.324	78	60
201.947	202.324	51	52
201.947	202.324	90	72
202.097	202.324	58	52
202.265	202.899	82	53
202.268	202.9	77	59
202.269	202.902	41	59
202.269	202.899	89	72
202.419	202.902	46	52
202.578	202.902	74	60
202.58	202.902	50	52
202.58	202.902	86	72
202.734	202.902	56	52
202.899	203.532	82	61
202.899	203.538	89	81
202.9	203.538	77	69
202.902	203.538	42	62
203.05	203.538	46	52
203.213	203.538	87	71
203.214	203.538	51	52
203.214	203.538	75	60
203.364	203.538	58	52
203.532	204.154	70	61
203.532	204.156	76	53
203.532	204.155	82	72
203.535	204.156	43	61
203.686	204.156	49	52
203.844	204.156	85	67
203.846	204.156	73	56
203.847	204.156	52	52
203.994	204.156	58	52
204.152	204.802	77	64
204.154	204.802	70	66
204.155	204.802	44	59
204.155	204.802	82	80
204.305	204.802	49	52
204.466	204.802	80	73
204.467	204.802	53	52
204.467	204.802	68	61
204.625	204.789	61	52
204.785	205.433	73	73
204.786	205.11	66	61
204.789	205.436	46	58
204.789	205.265	61	61
204.946	205.436	49	52
205.11	205.43	66	62
205.111	205.436	54	52
205.111	205.436	78	74
205.265	205.429	61	52
205.429	205.909	61	67
205.43	206.08	66	67
205.433	206.08	73	67
205.433	206.08	75	80
205.436	206.08	44	52
205.59	206.08	51	47
205.744	206.08	56	47
205.909	206.08	61	47
206.07	206.7	65	59
206.07	206.7	77	75
206.071	206.7	72	51
206.072	206.7	42	55
206.217	206.7	48	47
206.375	206.7	66	60
206.378	206.7	51	47
206.378	206.7	78	70
206.529	206.7	56	47
206.696	207.326	70	60
206.696	207.323	73	46
206.697	207.326	82	77
206.7	207.326	41	55
206.844	207.326	44	47
207.001	207.326	69	50
207.004	207.326	49	47
207.004	207.326	81	70
207.162	207.326	56	47
207.323	207.537	73	53
207.324	207.967	68	64
207.324	207.967	80	77
207.326	207.967	46	56
207.477	207.967	49	47
207.537	207.802	61	60
207.537	207.964	73	70
207.638	207.967	54	47
207.75	207.963	66	60
207.75	207.967	78	70
207.802	207.967	61	47
207.96	208.436	63	66
207.963	208.6	66	66
207.963	208.436	75	80
207.964	208.6	73	66
207.967	208.6	45	55
208.121	208.6	49	47
208.285	208.6	65	57
208.286	208.6	77	68
208.289	208.6	54	47
208.436	208.6	63	53
208.436	208.6	75	63
208.439	208.6	61	47
208.594	209.248	72	61
208.596	209.248	62	61
208.596	209.248	74	73
208.597	209.248	44	51
208.754	209.248	63	57
208.758	209.248	51	47
208.758	209.248	75	68
208.912	209.248	65	61
208.915	209.248	60	47
208.915	209.248	77	73
209.08	209.248	66	58
209.082	209.248	78	69
209.083	209.248	42	47
209.244	209.888	73	70
209.245	209.888	67	70
209.248	209.888	41	56
209.248	209.888	79	83
209.397	209.888	44	47
209.45	209.888	68	66
209.451	209.888	80	79
209.555	209.888	48	46
209.668	209.888	77	69
209.668	209.888	89	77
209.717	209.888	56	46
209.875	210.308	78	70
209.877	210.521	75	70
209.877	210.526	87	82
209.878	210.526	46	53
210.035	210.526	49	45
210.088	210.305	73	62
210.092	210.526	85	73
210.199	210.526	54	44
210.305	210.525	73	64
210.308	210.526	66	68
210.308	210.526	78	80
210.354	210.526	61	44
210.521	211.855	75	82
210.522	211.18	63	69
210.522	211.855	68	69
210.525	211.179	44	50
210.525	211.18	73	69
210.683	211.18	51	42
210.843	211.18	56	42
211.012	211.18	61	41
211.177	211.855	66	61
211.177	211.855	72	61
211.179	211.855	44	49
211.343	211.855	51	41
211.513	211.853	56	40
211.68	211.855	60	40
211.76	211.849	73	73
211.848	212.026	65	72
211.849	212.027	73	85
211.852	212.03	49	56
211.852	212.027	61	66
211.853	212.031	56	56
212.031	212.121	63	62
212.032	212.121	70	73
212.033	212.122	51	42
212.034	212.122	55	42
212.034	212.124	61	51
212.205	212.3	63	62
212.205	212.295	70	73
212.209	212.303	51	42
212.209	212.303	55	42
212.209	212.302	61	51
212.387	212.555	63	62
212.388	212.556	61	56
212.388	212.555	70	75
212.39	212.559	51	46
212.39	212.559	55	46
212.559	212.636	68	71
212.562	212.636	56	42
212.562	212.636	60	51
212.716	212.803	72	62
212.719	212.803	78	74
212.72	212.804	63	42
212.72	212.807	68	51
212.723	212.807	56	42
212.884	213.048	72	63
212.888	213.049	68	56
212.888	213.049	78	75
212.889	213.052	56	46
212.891	213.052	63	46
213.053	213.129	73	62
213.053	213.129	77	74
213.055	213.132	61	42
213.056	213.132	68	51
213.203	213.279	75	62
213.206	213.28	73	51
213.206	213.28	82	74
213.21	213.283	63	42
213.21	213.283	67	51
213.36	213.518	82	78
213.363	213.518	75	64
213.364	213.519	63	46
213.364	213.521	67	56
213.367	213.521	73	56
213.522	213.597	80	73
213.525	213.602	68	42
213.525	213.602	72	51
213.678	213.755	90	73
213.682	213.756	84	62
213.683	213.756	80	51
213.685	213.759	68	42
213.685	213.759	75	42
213.836	213.993	84	64
213.84	213.994	68	46
213.84	213.994	90	78
213.841	213.997	80	56
213.843	213.997	75	46
213.998	214.074	85	62
214.001	214.078	73	42
214.001	214.077	80	51
214.001	214.077	89	73
214.151	214.227	75	62
214.151	214.225	82	73
214.155	214.228	63	44
214.155	214.232	67	44
214.155	214.228	73	52
214.308	214.463	75	62
214.309	214.466	73	56
214.309	214.466	82	75
214.31	214.466	67	46
214.312	214.47	63	46
214.47	214.54	80	72
214.473	214.54	68	44
214.473	214.54	72	52
214.616	214.697	72	62
214.617	214.698	56	44
214.617	214.698	78	74
214.618	214.7	63	44
214.62	214.7	68	52
214.771	214.928	78	75
214.774	214.931	63	46
214.774	214.929	68	56
214.774	214.929	72	62
214.778	214.932	56	46
214.932	215.005	73	60
214.936	215.008	61	44
214.936	215.006	68	52
214.936	215.006	77	71
215.086	215.159	63	62
215.086	215.158	70	74
215.087	215.162	61	52
215.089	215.163	51	44
215.089	215.166	55	44
215.235	215.393	63	64
215.236	215.394	61	56
215.236	215.393	70	78
215.239	215.397	55	46
215.24	215.397	51	46
215.398	215.474	68	74
215.4	215.478	56	44
215.4	215.478	60	52
215.551	215.632	56	52
215.551	215.631	60	62
215.551	215.632	66	74
215.555	215.635	44	44
215.555	215.636	51	44
215.712	215.872	60	64
215.713	215.877	56	56
215.713	215.873	66	78
215.715	215.879	44	46
215.715	215.877	51	46
215.88	215.958	61	56
215.88	215.957	65	67
215.883	215.958	49	39
215.884	215.96	56	47
216.037	216.122	64	49
216.037	216.118	69	59
216.038	216.122	55	36
216.041	216.123	61	41
216.195	216.353	55	37
216.195	216.353	64	51
216.195	216.352	69	62
216.198	216.353	61	44
216.356	216.426	63	49
216.357	216.43	56	34
216.357	216.431	60	41
216.357	216.43	68	58
216.506	216.587	72	44
216.509	216.588	78	52
216.51	216.59	63	29
216.51	216.591	68	36
216.513	216.594	56	29
216.664	216.818	72	46
216.665	216.822	68	39
216.665	216.822	78	55
216.667	216.825	56	33
216.667	216.825	63	33
216.825	216.895	73	44
216.828	216.895	77	52
216.829	216.898	61	29
216.829	216.899	68	36
216.975	217.052	76	44
216.978	217.052	81	52
216.979	217.055	67	36
216.981	217.055	73	36
217.132	217.29	76	46
217.132	217.289	81	55
217.136	217.293	67	39
217.136	217.294	73	39
217.294	217.367	75	41
217.296	217.367	80	51
217.297	217.37	68	29
217.297	217.368	72	36
217.444	217.525	68	26
217.444	217.524	84	39
217.444	217.525	90	46
217.445	217.527	75	26
217.445	217.528	80	31
217.597	217.755	84	40
217.598	217.755	90	49
217.601	217.755	80	35
217.602	217.759	68	29
217.602	217.758	75	29
217.759	217.835	85	39
217.762	217.839	73	26
217.762	217.84	80	31
217.762	217.836	89	46
217.909	217.986	81	55
217.912	217.987	76	47
217.913	217.989	73	39
217.916	217.989	67	33
218.067	218.224	76	49
218.07	218.227	67	35
218.07	218.225	81	59
218.071	218.228	73	41
218.228	218.301	80	56
218.231	218.301	75	45
218.232	218.302	68	33
218.232	218.304	72	39
218.382	218.461	72	47
218.382	218.462	78	56
218.385	218.466	63	33
218.385	218.465	68	39
218.386	218.466	56	33
218.542	218.707	72	49
218.547	218.708	63	35
218.547	218.711	68	41
218.547	218.707	78	59
218.549	218.711	56	35
218.711	218.787	73	47
218.714	218.791	61	33
218.714	218.791	68	39
218.714	218.788	77	55
218.868	218.945	69	56
218.869	218.945	64	47
218.871	218.946	55	33
218.872	218.948	61	39
219.026	219.183	64	49
219.029	219.184	55	35
219.029	219.184	69	59
219.03	219.186	61	41
219.187	219.267	68	56
219.19	219.267	63	45
219.191	219.268	56	33
219.193	219.268	60	39
219.351	219.432	60	52
219.351	219.431	63	52
219.352	219.435	66	62
219.355	219.435	44	41
219.355	219.438	56	49
219.519	219.684	63	49
219.52	219.684	60	49
219.52	219.685	66	59
219.522	219.685	44	39
219.522	219.687	56	47
219.687	219.76	64	42
219.688	219.764	60	41
219.688	219.764	67	49
219.691	219.767	43	33
219.691	219.768	55	39
219.837	219.914	62	49
219.838	219.915	66	47
219.841	219.915	72	56
219.842	219.918	55	38
219.844	219.918	57	45
219.995	220.156	66	49
219.999	220.16	57	47
219.999	220.159	62	49
219.999	220.157	72	59
220.0	220.163	55	39
220.164	220.233	62	42
220.164	220.233	67	41
220.164	220.236	71	48
220.166	220.236	59	39
220.167	220.237	55	31
220.314	220.391	65	47
220.314	220.391	67	47
220.317	220.391	71	47
220.317	220.393	77	56
220.321	220.394	55	36
220.321	220.394	62	44
220.471	220.622	65	49
220.472	220.622	67	49
220.474	220.625	77	59
220.475	220.629	55	39
220.475	220.629	62	47
220.475	220.625	71	49
220.63	220.706	67	46
220.63	220.706	72	44
220.632	220.707	55	34
220.632	220.707	76	52
220.633	220.709	60	34
220.636	220.709	64	41
220.779	220.852	84	56
220.78	220.856	74	49
220.782	220.857	78	47
220.783	220.86	55	44
220.783	220.859	69	44
220.783	220.859	72	49
220.786	220.86	62	44
220.937	221.09	72	49
220.937	221.095	74	49
220.938	221.095	78	49
220.94	221.098	69	47
220.94	221.097	84	59
220.941	221.098	55	47
220.941	221.098	62	47
221.101	221.167	79	41
221.102	221.171	71	46
221.102	221.168	83	51
221.103	221.172	62	34
221.104	221.172	67	41
221.105	221.172	55	44
221.248	221.325	77	49
221.249	221.325	79	49
221.249	221.325	83	47
221.252	221.329	62	36
221.252	221.329	89	55
221.255	221.329	55	47
221.255	221.33	67	44
221.405	221.567	77	49
221.406	221.57	79	49
221.41	221.574	55	39
221.41	221.571	83	49
221.41	221.574	89	59
221.412	221.575	67	47
221.413	221.575	62	39
221.577	222.06	70	45
221.577	222.043	74	63
221.578	222.06	62	34
221.578	222.06	68	49
221.731	222.06	71	66
221.732	222.06	53	61
221.732	222.06	80	80
221.885	222.06	73	68
221.886	222.06	65	56
221.886	222.06	77	74
221.889	222.06	56	47
222.043	222.359	74	71
222.043	222.359	83	84
222.047	222.359	50	62
222.197	222.359	76	66
222.2	222.359	80	79
222.201	222.359	56	49
222.201	222.359	62	59
222.357	222.718	77	74
222.358	222.718	47	64
222.358	222.718	86	89
222.511	222.718	83	85
222.512	222.718	79	72
222.515	222.718	53	50
222.516	222.718	59	60
222.665	222.995	89	92
222.666	222.995	44	69
222.666	222.995	80	78
222.823	222.995	82	73
222.824	222.995	50	53
222.824	222.995	56	64
222.824	222.995	86	86
222.978	223.146	83	79
222.981	223.152	41	77
222.981	223.324	92	94
223.146	223.324	83	77
223.148	223.324	95	90
223.149	223.324	29	69
223.152	223.324	41	69
223.313	223.82	84	85
223.317	223.82	28	42
223.317	223.482	40	42
223.317	223.82	96	101
223.318	223.481	52	50
223.478	223.642	60	64
223.478	223.64	67	64
223.481	223.646	52	50
223.481	223.642	72	77
223.482	223.646	40	36
223.64	223.82	67	64
223.642	223.803	60	64
223.642	223.804	72	77
223.646	223.807	40	40
223.646	223.806	52	48
223.803	223.964	60	55
223.804	223.968	68	55
223.804	223.968	72	77
223.806	223.969	52	48
223.807	223.969	40	40
223.964	224.128	60	63
223.968	224.129	68	63
223.968	224.129	72	75
223.969	224.132	40	40
223.969	224.133	52	48
224.128	224.286	60	63
224.129	224.287	68	63
224.129	224.286	72	75
224.132	224.29	40	41
224.133	224.29	52	49
224.286	224.447	60	57
224.286	224.448	72	80
224.287	224.448	68	57
224.29	224.772	40	38
224.29	224.772	52	55
224.447	224.605	60	64
224.448	224.605	68	64
224.448	224.606	72	77
224.45	224.608	39	44
224.451	224.608	51	52
224.605	224.766	60	64
224.605	224.769	68	64
224.606	224.769	72	77
224.608	224.77	39	44
224.608	224.77	51	52
224.766	224.924	60	68
224.769	224.926	68	68
224.769	224.923	72	81
224.77	225.242	39	47
224.77	225.242	51	56
224.923	225.081	72	79
224.924	225.08	60	67
224.926	225.081	68	67
224.927	225.085	40	44
224.927	225.084	52	52
225.08	225.238	60	67
225.081	225.238	68	67
225.081	225.239	72	79
225.084	225.242	52	52
225.085	225.242	40	44
225.238	225.395	60	67
225.238	225.749	68	67
225.239	225.396	72	80
225.242	225.397	40	46
225.242	225.399	52	56
225.395	225.543	60	68
225.396	225.546	69	68
225.396	225.546	72	81
225.397	225.55	40	47
225.399	225.55	52	57
225.543	225.708	60	69
225.546	225.707	69	69
225.546	225.71	72	82
225.55	225.711	40	48
225.55	225.711	52	58
225.707	225.865	69	71
225.708	226.183	60	71
225.71	226.183	72	83
225.711	225.868	40	49
225.711	225.868	52	58
225.865	226.015	61	71
225.865	226.016	69	71
225.866	226.018	73	84
225.868	226.019	40	50
225.868	226.019	52	59
226.015	226.18	61	71
226.016	226.18	69	71
226.018	226.18	73	85
226.019	226.181	40	51
226.019	226.183	52	61
226.18	226.341	61	72
226.18	226.341	69	72
226.18	226.34	73	86
226.181	226.676	40	52
226.183	226.676	52	62
226.34	226.491	73	88
226.341	226.492	61	73
226.341	226.491	69	73
226.344	226.495	39	52
226.345	226.495	51	62
226.491	226.649	69	75
226.491	226.649	73	90
226.492	226.648	61	75
226.495	226.652	39	53
226.495	226.65	51	63
226.648	226.81	61	77
226.649	227.118	69	77
226.649	226.81	73	91
226.65	227.118	51	64
226.652	227.118	39	53
226.81	226.963	61	78
226.81	226.964	73	92
226.813	226.968	40	55
226.813	226.967	52	66
226.813	227.114	68	78
226.963	227.111	61	79
226.964	227.118	67	79
226.964	227.114	73	93
226.967	227.118	52	67
226.968	227.118	40	56
227.111	227.297	61	73
227.114	227.293	68	86
227.114	227.629	73	102
227.118	227.629	41	52
227.118	227.629	53	74
227.292	227.457	65	68
227.293	227.457	68	80
227.293	227.458	77	95
227.296	227.458	56	50
227.297	227.458	49	50
227.297	227.461	61	71
227.457	227.625	65	68
227.457	227.626	68	80
227.458	227.627	49	51
227.458	227.628	56	51
227.458	227.626	77	95
227.461	227.629	61	72
227.625	228.108	65	72
227.626	228.108	68	85
227.626	228.108	77	101
227.627	228.108	49	53
227.628	228.108	56	53
227.629	227.947	61	75
227.787	228.108	63	68
227.79	228.108	75	95
227.944	228.108	73	95
227.947	228.108	61	68
228.106	228.619	30	68
228.108	228.619	42	96
228.283	228.442	65	68
228.284	228.444	70	80
228.284	228.444	77	95
228.285	228.445	49	50
228.286	228.444	54	50
228.287	228.448	61	71
228.442	228.612	65	68
228.444	228.616	54	51
228.444	228.613	70	80
228.444	228.613	77	95
228.445	228.615	49	51
228.448	228.616	61	72
228.612	229.109	65	72
228.613	229.109	70	85
228.613	229.109	77	101
228.615	229.109	49	53
228.616	229.109	54	53
228.616	228.938	61	75
228.773	229.109	63	68
228.773	229.109	75	95
228.938	229.109	61	68
228.938	229.109	73	95
229.107	229.627	32	68
229.107	229.627	44	96
229.287	229.452	65	68
229.288	229.455	68	80
229.291	229.459	56	50
229.291	229.456	77	95
229.292	229.457	49	50
229.292	229.456	61	71
229.452	229.621	65	68
229.455	229.623	68	80
229.456	229.624	61	72
229.456	229.623	77	95
229.457	229.627	49	51
229.459	229.624	56	51
229.621	230.107	65	72
229.623	230.107	68	85
229.623	230.107	77	101
229.624	230.107	56	53
229.624	229.943	61	75
229.627	230.107	49	53
229.782	230.107	63	68
229.785	230.107	75	95
229.942	230.107	73	95
229.943	230.107	61	68
230.103	230.649	34	68
230.104	230.649	46	96
230.285	230.46	65	68
230.285	230.463	67	80
230.286	230.464	77	95
230.288	230.468	51	50
230.288	230.468	58	50
230.289	230.464	61	71
230.46	230.636	65	68
230.463	230.639	67	80
230.464	230.64	61	72
230.464	230.639	77	95
230.468	230.642	51	51
230.468	230.64	58	51
230.636	231.202	65	72
230.639	231.202	67	85
230.639	231.202	77	101
230.64	231.202	58	53
230.64	231.006	61	75
230.642	231.196	51	53
230.821	231.198	63	68
230.824	231.202	75	95
231.004	231.202	73	95
231.006	231.199	61	68
231.196	233.272	51	84
231.197	233.272	55	84
231.198	233.272	63	101
231.199	233.272	27	59
231.199	233.272	39	70
231.199	233.272	61	95
233.267	235.49	54	80
233.267	235.494	65	95
233.268	235.494	60	80
233.271	235.494	32	56
233.271	235.494	44	66
235.392	235.491	66	86
235.49	236.585	54	79
235.491	236.585	61	79
235.491	236.589	66	93
235.493	235.616	33	56
235.493	235.615	45	66
235.616	235.755	42	60
235.619	235.756	30	50
235.896	236.028	32	56
235.896	236.029	44	66
236.032	236.162	33	52
236.033	236.162	45	62
236.163	236.301	30	52
236.165	236.302	42	62
236.589	236.725	33	37
236.592	236.726	45	44
236.728	236.865	30	33
236.729	236.865	42	39
236.998	237.131	32	37
236.999	237.132	44	44
237.135	237.271	33	33
237.136	237.272	45	39
237.274	237.411	30	33
237.275	237.412	42	39
237.701	237.838	33	37
237.702	237.842	45	44
237.842	237.986	30	34
237.845	237.986	42	39
238.125	238.266	32	37
238.126	238.266	44	44
238.266	238.412	33	34
238.268	238.413	45	39
238.413	238.559	42	34
238.413	238.559	54	39
238.909	240.048	60	31
238.91	240.471	62	32
238.91	240.048	69	47
238.912	240.048	54	41
239.487	240.048	38	34
239.487	240.048	70	44
240.043	242.297	59	39
240.043	242.297	71	47
240.047	241.593	43	30
240.047	241.179	50	30
240.048	242.297	55	37
240.471	240.611	62	40
240.611	242.297	62	44
241.178	242.295	38	33
241.179	242.297	50	39
241.591	241.731	31	29
241.593	241.734	43	35
241.731	242.297	31	30
241.734	242.297	43	37
242.295	242.43	38	39
242.434	242.566	31	36
242.703	242.836	33	39
242.84	242.976	35	36
242.98	243.117	31	36
243.396	243.536	50	41
243.4	243.537	38	35
243.537	243.673	43	39
243.538	243.673	31	31
243.805	243.942	45	42
243.81	243.943	33	36
243.943	244.071	47	39
243.946	244.076	35	33
244.076	244.211	43	39
244.078	244.216	31	33
244.484	244.618	50	46
244.485	244.621	38	38
244.622	244.748	44	42
244.625	244.748	32	36
244.88	245.003	45	47
244.883	245.003	33	40
245.006	245.136	35	36
245.006	245.135	47	42
245.139	245.272	44	45
245.14	245.272	32	37
245.531	245.661	50	58
245.532	245.661	38	48
245.662	245.787	32	45
245.662	245.786	44	53
245.909	246.036	33	49
245.909	246.036	45	60
246.038	246.168	47	53
246.039	246.171	35	46
246.172	246.305	32	47
246.172	246.305	44	56
246.564	246.697	50	63
246.567	246.697	38	52
246.701	246.83	47	58
246.704	246.833	35	49
246.97	247.099	49	67
246.973	247.1	37	57
247.1	247.236	50	60
247.103	247.239	38	51
247.243	247.383	47	52
247.243	247.383	59	62
247.68	248.797	62	41
247.681	249.21	64	41
247.681	248.797	71	49
247.683	248.797	56	40
248.24	248.797	72	47
248.241	248.797	40	36
248.791	251.005	61	41
248.793	249.213	73	49
248.794	249.909	45	33
248.794	249.349	52	33
248.797	249.91	57	39
249.214	249.354	65	44
249.354	251.006	65	47
249.355	251.006	53	33
249.91	250.046	33	33
249.913	250.049	45	39
250.05	250.183	29	29
250.05	250.184	41	36
250.312	250.442	31	33
250.315	250.445	43	39
250.446	250.582	33	29
250.446	250.586	45	35
250.586	250.714	29	29
250.587	250.715	41	35
251.009	251.534	65	40
251.012	252.185	61	39
251.013	252.185	45	31
251.013	251.575	53	38
251.013	251.534	73	56
251.437	251.576	66	55
251.576	252.136	66	58
251.58	252.139	54	39
252.136	252.773	66	51
252.137	253.262	62	51
252.137	252.773	74	61
252.139	253.26	47	35
252.139	252.773	54	41
252.557	252.697	67	57
252.697	253.257	67	60
252.699	253.262	55	42
253.256	254.369	65	58
253.257	254.369	67	58
253.26	253.392	35	35
253.26	253.392	47	41
253.26	254.099	75	75
253.393	253.528	31	31
253.396	253.529	43	38
253.669	253.799	33	38
253.67	253.799	45	46
253.8	253.941	35	35
253.802	253.945	47	41
253.946	254.089	31	36
253.946	254.089	43	42
254.092	254.37	74	68
254.37	254.921	63	54
254.372	254.925	67	58
254.372	254.802	74	73
254.373	254.509	36	35
254.376	254.509	48	41
254.51	254.652	31	31
254.51	254.653	43	38
254.793	254.925	36	38
254.793	255.345	72	51
254.794	254.929	48	46
254.929	255.499	65	44
254.93	255.062	38	35
254.932	255.065	50	41
255.066	255.208	31	36
255.066	255.209	43	42
255.349	255.5	70	61
255.5	256.637	60	50
255.503	255.636	39	29
255.503	256.637	63	58
255.503	255.94	70	68
255.504	255.639	51	35
255.64	255.776	31	26
255.643	255.78	43	31
255.926	256.073	68	55
255.927	256.074	38	29
255.93	256.074	50	35
256.077	256.213	39	26
256.077	256.269	68	61
256.081	256.214	51	30
256.214	256.35	44	26
256.217	256.353	56	30
256.259	256.459	72	62
256.445	256.647	70	61
256.638	257.791	59	49
256.64	257.221	68	64
256.641	256.781	41	29
256.641	256.781	53	35
256.784	256.927	38	26
256.784	256.928	50	31
257.071	257.211	39	29
257.071	257.212	51	35
257.212	257.501	67	58
257.214	257.358	41	26
257.215	257.358	53	30
257.358	257.502	50	26
257.359	257.502	62	30
257.504	257.796	67	67
257.505	257.796	79	70
257.796	257.925	58	55
257.797	257.97	40	42
257.797	257.925	70	64
257.928	258.065	61	49
257.928	258.065	69	58
257.97	258.342	45	39
258.155	258.345	55	39
258.201	258.345	57	51
258.205	258.349	67	61
258.349	258.477	62	56
258.35	258.523	54	44
258.35	258.478	66	67
258.478	258.614	57	51
258.481	258.614	69	61
258.524	258.709	45	40
258.709	258.894	38	40
258.754	258.894	60	52
258.755	258.898	72	63
258.898	259.028	60	57
258.899	259.076	41	44
258.899	259.031	72	68
259.031	259.16	63	52
259.032	259.161	71	63
259.077	259.44	47	38
259.255	259.441	57	39
259.301	259.443	59	52
259.301	259.444	69	62
259.444	259.573	64	57
259.444	259.573	68	68
259.447	259.622	56	44
259.577	259.706	59	52
259.577	259.707	71	62
259.622	259.797	47	39
259.801	259.987	40	39
259.846	259.987	62	53
259.85	259.99	74	64
259.99	260.119	62	59
259.991	260.165	43	46
259.991	260.12	74	70
260.12	260.252	65	55
260.123	260.252	73	64
260.166	260.347	49	40
260.347	260.532	59	40
260.393	260.533	61	52
260.396	260.536	71	62
260.536	261.082	66	55
260.537	261.082	42	49
260.537	260.896	70	64
260.715	261.082	61	58
260.715	260.896	73	68
260.717	261.082	49	42
260.896	261.082	70	61
260.896	261.082	73	72
260.897	261.082	58	42
261.081	261.645	64	62
261.082	261.645	43	53
261.082	261.268	76	75
261.268	261.645	73	66
261.268	261.645	76	78
261.269	261.645	52	58
261.447	261.645	70	67
261.449	261.645	61	60
261.449	261.645	82	81
261.632	262.217	80	72
261.635	262.217	44	66
261.635	262.217	85	86
261.824	262.217	76	75
261.825	262.217	52	69
261.825	262.016	88	84
262.016	262.217	88	77
262.017	262.217	61	74
262.017	262.217	100	86
262.212	263.339	60	61
262.213	263.343	64	69
262.216	262.355	32	49
262.216	263.07	72	82
262.217	262.356	44	59
262.356	262.492	28	44
262.357	262.492	40	53
262.632	262.765	30	51
262.633	262.769	42	62
262.77	262.913	32	46
262.77	262.913	44	56
262.914	263.056	28	47
262.916	263.059	40	57
263.06	263.343	58	52
263.06	263.346	70	72
263.347	263.886	58	64
263.347	264.459	60	53
263.348	264.463	65	56
263.35	263.889	70	77
263.351	263.476	32	49
263.351	263.476	44	59
263.477	263.615	29	44
263.477	263.616	41	53
263.752	263.889	31	51
263.753	263.893	43	62
263.893	264.312	56	55
263.894	264.025	32	46
263.894	264.313	68	73
263.896	264.029	44	56
264.03	264.166	29	47
264.03	264.166	41	57
264.313	264.463	56	49
264.315	264.466	68	67
264.466	265.019	61	58
264.467	264.876	56	52
264.467	265.39	64	61
264.47	264.596	34	38
264.47	264.876	68	70
264.471	264.596	46	46
264.596	264.736	31	35
264.6	264.736	43	42
264.876	265.02	67	60
264.877	265.02	32	41
264.88	265.023	44	51
265.024	265.16	55	58
265.024	265.215	67	68
265.026	265.16	34	39
265.027	265.161	46	46
265.161	265.299	43	40
265.163	265.3	55	47
265.204	265.39	53	44
265.205	265.401	65	63
265.391	265.582	52	30
265.394	265.583	64	60
265.583	266.164	55	45
265.587	265.726	36	36
265.587	266.731	63	58
265.587	266.175	67	71
265.588	265.727	48	44
265.73	265.873	33	31
265.731	265.873	45	39
266.017	266.164	34	36
266.018	266.165	46	44
266.165	266.455	54	42
266.168	266.304	36	31
266.168	266.455	66	62
266.169	266.304	48	38
266.305	266.456	48	31
266.305	266.458	60	38
266.458	266.731	69	59
266.459	266.731	81	68
266.734	266.864	60	60
266.734	266.867	72	70
266.738	266.908	39	55
266.867	267.0	66	53
266.867	267.0	71	63
266.912	267.276	47	42
267.092	267.278	57	42
267.141	267.278	59	56
267.141	267.279	69	67
267.281	267.416	64	61
267.283	267.416	68	73
267.285	267.462	56	48
267.417	267.555	59	56
267.42	267.556	71	67
267.462	267.647	47	44
267.647	267.833	40	44
267.692	267.836	62	57
267.696	267.836	74	69
267.837	267.969	62	62
267.837	267.97	74	74
267.84	268.014	41	48
267.97	268.106	68	57
267.97	268.106	73	69
268.015	268.379	49	41
268.192	268.382	59	42
268.238	268.382	61	57
268.243	268.383	71	68
268.386	268.511	66	62
268.386	268.512	70	74
268.387	268.56	58	48
268.514	268.644	61	57
268.515	268.648	73	68
268.561	268.739	49	42
268.739	268.924	42	42
268.785	268.928	64	58
268.787	268.929	76	70
268.929	269.058	64	64
268.93	269.058	76	77
268.931	269.096	43	50
269.061	269.19	70	60
269.061	269.195	75	70
269.1	269.47	51	44
269.285	269.471	61	44
269.33	269.471	63	57
269.334	269.473	73	68
269.474	270.039	68	60
269.474	269.852	72	70
269.477	270.039	44	53
269.666	270.039	63	63
269.666	269.853	75	74
269.667	270.039	51	46
269.852	270.039	72	67
269.853	270.039	60	46
269.853	270.039	75	79
270.038	270.615	66	68
270.038	270.224	78	82
270.039	270.615	45	58
270.223	270.615	75	71
270.224	270.615	54	63
270.224	270.601	78	85
270.409	270.615	69	73
270.409	270.602	81	89
270.412	270.615	63	66
270.601	270.994	78	80
270.602	271.197	48	71
270.602	271.197	81	94
270.797	271.197	74	82
270.797	271.193	86	97
270.801	271.197	54	74
270.994	271.197	78	85
270.997	271.197	62	81
270.997	271.197	90	104
271.193	271.746	86	88
271.193	271.769	91	104
271.196	271.769	34	73
271.197	271.769	46	86
271.323	271.769	79	79
271.326	271.746	82	93
271.371	271.769	50	61
271.371	271.748	58	72
271.55	271.769	55	68
271.553	271.769	62	80
271.595	271.769	81	80
271.595	271.769	84	94
271.746	272.288	82	84
271.746	272.289	86	100
271.748	272.293	58	68
271.749	272.293	67	80
271.876	272.293	74	80
271.878	272.293	79	94
271.921	272.293	55	63
271.924	272.293	62	75
272.193	272.292	26	56
272.194	272.292	38	66
272.288	272.838	82	88
272.289	272.862	86	104
272.292	272.862	26	73
272.292	272.862	38	86
272.421	272.862	74	79
272.424	272.837	79	93
272.467	272.862	50	61
272.47	272.838	58	72
272.649	272.862	55	63
272.649	272.862	62	75
272.691	272.862	78	75
272.691	272.862	81	89
272.837	273.395	79	80
272.838	273.201	58	63
272.838	273.395	82	94
272.841	273.395	67	75
272.974	273.395	86	75
272.974	273.395	91	89
273.02	273.395	55	60
273.023	273.395	62	71
273.199	273.395	50	52
273.201	273.395	58	62
273.391	273.94	85	84
273.392	273.965	89	101
273.394	273.965	46	70
273.395	273.752	58	82
273.524	273.965	77	75
273.527	273.94	82	90
273.573	273.965	53	59
273.573	273.941	61	70
273.752	273.965	58	66
273.753	273.965	65	77
273.796	273.965	81	77
273.796	273.965	84	91
273.94	274.487	82	81
273.94	274.482	85	96
273.941	274.487	61	66
273.944	274.487	70	77
274.077	274.487	73	77
274.077	274.487	77	91
274.122	274.487	58	61
274.125	274.487	65	72
274.395	274.483	37	53
274.396	274.486	49	63
274.482	275.036	85	82
274.483	275.06	37	70
274.483	275.06	89	99
274.486	275.06	49	82
274.623	275.06	77	75
274.623	275.036	82	90
274.668	275.06	53	59
274.668	275.039	61	70
274.847	275.06	58	61
274.85	275.06	65	72
274.892	275.06	81	72
274.892	275.06	84	85
275.036	275.589	82	77
275.036	275.589	85	91
275.039	275.4	61	61
275.04	275.589	70	72
275.173	275.586	89	72
275.176	275.589	94	85
275.219	275.589	58	58
275.221	275.589	65	69
275.4	275.589	53	50
275.4	275.589	61	60
275.585	276.141	84	88
275.586	276.163	89	104
275.589	276.163	32	73
275.589	276.163	44	86
275.722	276.163	77	79
275.726	276.139	80	93
275.764	276.163	53	61
275.767	276.142	60	72
275.949	276.163	56	68
275.953	276.163	65	80
275.994	276.163	82	91
275.995	276.163	79	77
276.139	276.603	80	77
276.141	276.603	84	96
276.142	276.603	60	68
276.142	276.603	68	80
276.275	276.603	72	77
276.277	276.603	77	91
276.317	276.603	56	63
276.32	276.603	65	75
276.61	276.686	36	66
276.611	276.685	24	56
276.684	277.238	80	88
276.685	277.261	24	73
276.685	277.261	84	104
276.686	277.261	36	86
276.815	277.261	72	79
276.817	277.237	77	93
276.863	277.261	53	61
276.866	277.238	60	72
277.048	277.261	56	63
277.049	277.261	65	75
277.093	277.261	76	75
277.093	277.261	79	89
277.237	277.79	77	80
277.238	277.601	60	63
277.238	277.79	80	94
277.24	277.79	68	75
277.367	277.787	84	75
277.367	277.79	89	89
277.413	277.788	56	60
277.415	277.79	65	71
277.598	277.79	53	52
277.601	277.79	60	62
277.787	278.34	84	90
277.787	278.364	88	107
277.788	278.364	44	73
277.788	278.152	56	86
277.919	278.364	76	79
277.92	278.339	80	93
277.966	278.364	52	61
277.968	278.34	60	72
278.152	278.364	56	68
278.152	278.364	64	80
278.196	278.364	79	77
278.196	278.364	82	91
278.339	278.816	80	78
278.34	278.816	60	68
278.34	278.816	84	94
278.343	278.816	68	80
278.473	278.816	72	77
278.473	278.816	76	91
278.518	278.816	56	63
278.518	278.816	64	75
278.809	278.886	48	66
278.812	278.886	36	56
278.882	279.432	80	88
278.886	279.463	36	73
278.886	279.463	48	86
278.886	279.463	84	104
279.016	279.463	72	79
279.018	279.292	76	93
279.064	279.463	52	61
279.065	279.433	60	72
279.242	279.463	56	63
279.246	279.463	64	75
279.291	279.463	79	89
279.292	279.432	76	75
279.432	279.989	76	80
279.432	279.989	80	94
279.433	279.803	60	63
279.433	279.989	68	75
279.569	279.989	84	75
279.569	279.988	88	89
279.614	279.989	56	60
279.617	279.989	64	71
279.799	279.989	52	52
279.803	279.989	60	62
279.985	280.541	83	88
279.988	280.562	43	73
279.988	280.562	88	104
279.989	280.166	55	86
280.121	280.562	76	79
280.121	280.538	79	93
280.166	280.562	55	61
280.167	280.542	64	72
280.352	280.562	59	68
280.352	280.562	67	80
280.391	280.562	78	77
280.391	280.562	81	91
280.538	281.017	79	81
280.541	281.017	83	96
280.542	281.017	64	68
280.542	280.671	71	80
280.671	281.017	71	77
280.674	281.017	76	91
280.716	281.017	59	63
280.72	281.017	67	75
281.01	281.087	47	66
281.014	281.085	35	56
281.084	281.633	79	88
281.085	281.654	35	73
281.085	281.654	83	104
281.087	281.654	47	86
281.216	281.634	71	79
281.217	281.63	76	93
281.263	281.654	55	61
281.265	281.633	64	72
281.444	281.654	59	63
281.444	281.654	67	75
281.485	281.654	78	89
281.489	281.654	75	75
281.63	282.19	76	80
281.633	281.995	64	63
281.633	282.19	79	94
281.634	282.19	71	75
281.767	282.186	83	75
281.77	282.19	88	89
281.813	282.19	59	60
281.815	282.19	67	71
281.994	282.19	55	52
281.995	282.19	64	62
282.186	282.736	83	88
282.187	282.757	86	104
282.189	282.757	43	73
282.19	282.544	55	86
282.319	282.757	74	79
282.323	282.733	79	93
282.366	282.757	50	61
282.368	282.736	59	72
282.544	282.757	55	68
282.546	282.757	62	80
282.588	282.757	78	77
282.588	282.757	81	91
282.733	283.204	79	81
282.736	283.204	59	68
282.736	283.204	83	96
282.739	283.204	67	80
282.872	283.204	71	77
282.873	283.204	74	91
282.918	283.204	55	63
282.919	283.204	62	75
283.211	283.282	43	66
283.212	283.279	31	56
283.278	283.832	83	88
283.279	283.855	31	73
283.279	283.855	86	104
283.282	283.855	43	86
283.418	283.855	74	79
283.418	283.832	79	93
283.457	283.855	50	61
283.458	283.834	59	72
283.643	283.855	55	63
283.643	283.855	62	75
283.688	283.855	78	75
283.688	283.855	81	89
283.832	284.384	79	80
283.832	284.384	83	94
283.834	284.195	59	63
283.835	284.384	67	75
283.968	284.381	86	75
283.969	284.384	91	89
284.01	284.384	55	60
284.011	284.384	62	71
284.192	284.384	50	52
284.195	284.384	59	62
284.377	284.935	81	88
284.381	284.958	42	73
284.381	284.958	86	104
284.384	284.745	54	86
284.518	284.958	74	79
284.52	284.934	78	93
284.56	284.958	50	61
284.562	284.937	57	72
284.745	284.958	54	68
284.748	284.958	62	80
284.79	284.958	79	91
284.791	284.958	76	77
284.934	285.48	78	81
284.935	285.478	81	96
284.937	285.299	57	68
284.937	285.48	66	80
285.066	285.48	69	77
285.067	285.48	74	91
285.113	285.48	54	63
285.114	285.48	62	75
285.298	285.48	50	56
285.299	285.48	57	66
285.477	286.033	77	88
285.478	286.057	81	104
285.479	286.057	41	73
285.48	285.843	53	86
285.61	286.057	69	79
285.613	286.03	74	93
285.658	286.057	50	61
285.658	286.033	57	72
285.843	286.057	53	63
285.844	286.057	62	75
285.886	286.057	76	89
285.889	286.057	73	75
286.03	286.586	74	80
286.033	286.397	57	63
286.033	286.586	65	75
286.033	286.586	77	94
286.162	286.582	81	75
286.163	286.586	86	89
286.209	286.586	53	60
286.211	286.586	62	71
286.396	286.586	50	52
286.397	286.586	57	62
286.582	286.946	81	78
286.582	286.95	84	78
286.583	287.156	41	64
286.583	287.156	89	92
286.586	286.95	53	77
286.764	287.156	78	86
286.765	287.156	48	55
286.765	287.138	57	64
286.946	287.156	81	75
286.95	287.156	53	60
286.95	287.136	77	75
286.95	287.156	84	90
286.951	287.156	60	71
287.136	287.314	72	77
287.136	287.314	77	83
287.138	287.611	57	60
287.138	287.611	65	71
287.314	287.611	72	77
287.314	287.611	77	77
287.317	287.611	53	57
287.317	287.611	60	68
287.317	287.611	81	91
287.5	287.685	69	82
287.587	287.686	29	49
287.587	287.688	41	59
287.685	288.056	69	78
287.685	288.056	72	78
287.686	288.273	29	64
287.686	288.273	77	92
287.688	288.273	41	77
287.871	288.273	66	86
287.874	288.273	48	55
287.875	288.252	57	64
288.056	288.273	69	71
288.056	288.273	72	85
288.059	288.273	65	71
288.06	288.273	53	57
288.06	288.249	60	67
288.249	288.431	60	78
288.252	288.43	57	57
288.43	288.805	57	69
288.431	288.805	60	69
288.433	288.805	41	51
288.433	288.619	65	81
288.619	288.805	53	73
288.619	288.805	65	73
288.623	288.805	29	53
288.799	289.385	54	73
288.801	289.365	66	86
288.802	289.385	27	57
288.802	289.368	39	57
288.938	289.385	63	69
289.077	289.385	61	68
289.214	289.385	59	59
289.365	289.918	66	57
289.368	289.924	39	46
289.368	289.924	71	68
289.501	289.924	59	52
289.501	289.922	63	62
289.502	289.922	42	39
289.641	289.924	54	39
289.778	289.924	61	55
289.779	289.924	64	66
289.781	289.924	47	39
289.918	290.499	66	69
289.922	290.499	42	47
289.922	290.499	63	58
290.058	290.467	75	67
290.061	290.499	71	56
290.062	290.471	47	42
290.192	290.499	59	42
290.328	290.499	51	44
290.467	291.023	75	60
290.471	291.024	47	49
290.471	291.024	78	72
290.611	291.024	51	42
290.611	291.024	66	55
290.611	291.021	71	66
290.744	291.024	63	44
290.88	291.024	70	59
290.881	291.024	73	70
290.884	291.024	54	44
291.021	291.563	71	62
291.023	291.563	75	74
291.024	291.563	51	50
291.157	291.563	78	58
291.157	291.56	83	70
291.158	291.563	54	42
291.29	291.563	66	44
291.426	291.563	59	44
291.56	292.098	83	66
291.562	292.099	87	79
291.563	292.099	54	56
291.695	292.099	75	62
291.696	292.098	59	48
291.696	292.096	78	74
291.825	292.099	71	48
291.961	292.099	76	64
291.962	292.099	63	48
291.962	292.099	82	75
292.096	292.644	78	68
292.098	292.644	59	56
292.098	292.644	83	80
292.225	292.644	87	63
292.225	292.644	90	75
292.226	292.644	63	51
292.357	292.644	75	51
292.494	292.644	66	52
292.634	292.827	79	74
292.634	293.193	82	89
292.637	293.193	52	62
292.777	293.193	58	56
292.827	293.008	79	67
292.83	293.009	85	67
292.83	293.009	91	79
292.913	293.193	67	56
293.008	293.19	79	67
293.009	293.193	85	67
293.009	293.191	91	79
293.054	293.193	61	56
293.19	293.764	79	72
293.191	293.764	83	72
293.191	293.764	91	85
293.192	293.764	51	62
293.328	293.764	78	67
293.33	293.764	54	53
293.33	293.764	90	79
293.46	293.736	66	53
293.597	293.764	59	53
293.736	294.296	66	57
293.737	294.3	71	68
293.74	294.3	39	46
293.878	294.3	59	52
293.879	294.297	63	62
293.88	294.297	42	39
294.013	294.3	54	39
294.15	294.3	61	55
294.151	294.3	64	66
294.153	294.3	47	39
294.296	294.866	66	69
294.297	294.866	42	47
294.297	294.866	63	58
294.43	294.866	71	56
294.43	294.846	75	67
294.433	294.849	47	42
294.569	294.866	59	42
294.706	294.866	51	44
294.846	295.399	75	60
294.846	295.402	78	72
294.849	295.402	47	49
294.982	295.402	66	55
294.983	295.402	51	42
294.983	295.399	71	66
295.123	295.402	63	44
295.256	295.402	70	59
295.258	295.402	54	44
295.258	295.402	73	70
295.399	295.946	71	62
295.399	295.946	75	74
295.402	295.946	51	50
295.532	295.942	83	70
295.535	295.946	78	58
295.536	295.945	54	42
295.668	295.946	66	44
295.805	295.946	59	44
295.942	296.481	83	66
295.942	296.482	87	79
295.945	296.482	54	56
296.075	296.482	75	62
296.075	296.48	78	74
296.076	296.481	59	48
296.207	296.482	71	48
296.337	296.482	76	64
296.34	296.482	63	48
296.34	296.482	82	75
296.48	297.026	78	68
296.481	297.026	59	56
296.481	297.026	83	80
296.606	297.026	90	75
296.607	297.026	87	63
296.61	297.026	63	51
296.74	297.026	75	51
296.876	297.026	66	52
297.016	297.202	79	74
297.017	297.58	82	89
297.019	297.58	52	62
297.156	297.58	58	56
297.202	297.391	79	67
297.204	297.391	85	67
297.205	297.394	91	79
297.292	297.58	67	56
297.391	297.58	79	67
297.391	297.58	85	67
297.394	297.58	91	79
297.433	297.58	61	56
297.577	297.926	80	85
297.579	297.926	84	85
297.579	297.926	92	85
297.58	297.926	41	62
297.758	297.95	81	80
297.758	297.95	87	80
297.759	297.954	93	80
297.762	297.954	48	52
297.955	298.578	58	56
297.955	298.612	70	66
297.957	298.612	49	41
297.957	298.612	54	34
298.168	298.612	57	49
298.168	298.612	69	58
298.17	298.612	48	38
298.367	298.612	63	52
298.367	298.612	66	61
298.37	298.612	41	39
298.574	299.221	61	58
298.577	299.221	73	70
298.578	299.221	51	36
298.578	299.173	58	42
298.772	299.221	60	53
298.773	299.221	57	39
298.773	299.221	72	63
298.972	299.221	63	53
298.972	299.221	66	63
298.973	299.221	41	41
299.173	299.78	58	60
299.175	299.791	49	46
299.175	299.791	70	72
299.176	299.791	54	39
299.369	299.791	57	55
299.372	299.791	48	44
299.372	299.791	69	64
299.568	299.791	63	57
299.571	299.791	41	44
299.571	299.791	66	68
299.777	300.41	61	62
299.778	300.41	51	41
299.778	300.41	73	74
299.78	300.376	58	48
299.974	300.41	60	57
299.975	300.41	72	68
299.977	300.41	57	46
300.173	300.377	63	60
300.174	300.375	66	71
300.176	300.41	41	46
300.375	300.979	66	66
300.376	300.982	58	51
300.376	300.982	78	79
300.377	300.982	63	42
300.572	300.982	65	58
300.573	300.982	57	47
300.573	300.982	77	70
300.771	300.982	72	61
300.772	300.982	53	47
300.772	300.982	75	72
300.978	301.58	70	67
300.979	301.584	66	46
300.979	301.584	82	80
300.982	301.584	61	53
301.174	301.584	69	61
301.177	301.584	60	49
301.177	301.584	81	73
301.373	301.584	75	63
301.374	301.584	53	50
301.374	301.584	78	75
301.576	302.182	73	72
301.577	302.182	63	48
301.577	302.182	85	85
301.58	302.175	70	56
301.772	302.182	84	75
301.773	302.182	72	63
301.776	302.182	69	50
301.972	302.176	75	68
301.972	302.175	78	81
301.973	302.182	53	51
302.172	303.007	90	89
302.175	302.363	70	49
302.175	302.764	78	74
302.176	303.007	75	59
302.364	303.007	69	58
302.571	302.969	84	63
302.571	303.007	89	75
302.764	303.007	78	62
302.766	303.007	88	74
302.969	303.579	84	64
302.97	303.58	87	77
303.17	303.58	78	62
303.172	303.58	86	73
303.38	303.58	81	58
303.382	303.58	85	70
303.575	303.981	75	62
303.579	304.191	65	56
303.579	304.173	84	73
303.786	304.173	78	58
303.788	304.173	83	68
303.981	304.191	75	55
303.984	304.191	82	66
304.195	304.8	78	58
304.195	304.8	81	69
304.196	304.8	65	55
304.39	304.8	72	53
304.391	304.8	80	63
304.594	304.8	75	53
304.594	304.8	79	63
304.797	305.203	69	52
304.8	306.026	65	49
304.8	305.451	78	62
304.999	305.405	72	49
305.0	305.451	77	59
305.203	305.451	69	49
305.205	305.451	76	59
305.405	306.025	72	49
305.409	306.026	75	59
305.609	306.022	63	45
305.611	306.026	74	53
305.813	306.026	69	46
305.815	306.026	73	53
306.022	306.432	63	53
306.025	306.645	53	40
306.025	306.645	72	53
306.225	306.644	69	49
306.226	306.686	71	49
306.432	306.686	63	49
306.434	306.686	74	49
306.644	306.858	69	52
306.645	307.349	53	34
306.645	307.351	72	52
306.858	307.351	69	53
306.858	307.351	79	53
307.083	307.351	75	49
307.085	307.348	77	49
307.241	307.345	62	39
307.243	307.351	34	39
307.345	308.629	62	41
307.348	308.625	70	41
307.348	308.629	77	49
307.349	309.311	46	31
307.349	308.629	53	37
308.625	309.311	65	41
308.625	309.311	70	41
308.626	309.876	58	37
308.626	309.311	74	49
309.245	309.876	67	37
309.246	309.876	72	37
309.248	309.876	51	39
309.248	309.876	75	44
309.79	312.444	41	29
309.872	312.445	63	39
309.876	311.464	53	39
309.876	311.18	74	47
311.146	312.447	72	41
311.465	311.782	54	33
311.783	312.108	55	35
312.109	312.448	53	33
312.448	313.764	62	41
312.452	313.105	70	41
312.452	313.764	77	49
312.454	313.764	46	33
313.105	313.763	70	41
313.106	313.764	65	41
313.106	313.764	74	49
313.761	314.467	67	41
313.763	314.467	70	41
313.764	314.467	58	39
313.764	314.467	75	49
314.072	314.467	65	39
314.075	314.467	74	47
314.401	315.037	68	37
314.401	315.037	71	37
314.402	315.037	77	44
314.404	315.037	51	39
314.713	315.037	72	35
314.715	315.037	67	35
314.715	315.037	75	41
315.035	317.571	63	31
315.035	317.572	69	36
315.035	316.307	74	45
315.037	315.349	53	29
315.35	315.667	54	37
315.668	315.881	57	35
315.885	316.091	55	34
316.091	316.308	53	34
316.308	317.574	72	41
316.309	316.619	41	29
316.62	316.93	42	37
316.934	317.148	45	35
317.148	317.361	43	34
317.365	317.575	41	34
317.575	318.219	70	40
317.576	318.223	62	42
317.578	318.223	77	53
317.579	318.223	34	39
318.219	318.926	67	37
318.219	318.926	70	40
318.22	318.926	79	51
318.222	318.926	61	36
318.223	318.926	64	44
318.86	319.569	69	44
318.861	320.112	75	44
318.863	320.064	53	37
318.863	320.112	60	37
318.863	319.569	81	52
318.864	319.569	63	44
319.479	320.112	70	51
319.48	320.112	67	44
319.48	320.109	82	58
319.949	320.112	72	53
319.951	320.112	81	53
319.952	320.11	65	40
319.952	320.112	84	60
320.021	320.74	46	39
320.064	320.74	53	39
320.107	320.74	74	48
320.109	320.74	82	51
320.109	320.74	86	61
320.11	320.74	65	46
320.736	321.404	67	44
320.737	321.404	70	44
320.739	321.404	64	44
320.739	321.404	73	44
320.739	321.404	79	51
321.39	321.946	69	44
321.394	322.017	63	37
321.394	321.967	72	44
321.394	321.946	81	52
321.395	322.014	60	37
321.397	322.654	53	37
321.397	322.654	65	44
321.926	322.654	67	56
321.967	322.654	72	56
322.01	322.654	82	58
322.013	322.654	51	37
322.013	322.654	55	37
322.014	322.65	60	37
322.017	322.654	63	37
322.479	322.654	84	60
322.647	323.294	74	53
322.647	323.292	81	53
322.648	323.37	86	63
322.65	323.37	50	41
322.65	323.37	57	41
322.65	323.37	60	41
322.654	323.37	66	49
323.292	323.942	72	50
323.292	323.942	81	53
323.294	323.935	74	53
323.294	323.942	84	60
323.295	323.942	30	36
323.298	323.942	42	42
323.935	324.596	74	53
323.936	324.596	70	53
323.936	324.596	79	63
323.938	324.596	31	41
323.938	324.596	82	63
323.939	324.596	43	49
324.572	325.205	73	53
324.575	325.201	77	53
324.575	325.205	81	63
324.576	325.205	33	41
324.576	325.205	45	49
325.041	325.201	67	54
325.043	325.201	74	57
325.044	325.205	34	37
325.044	325.205	46	45
325.044	325.205	79	57
325.199	325.845	65	51
325.201	325.839	67	51
325.201	325.845	74	56
325.201	325.845	77	61
325.202	325.845	35	41
325.205	325.845	47	49
325.838	326.469	63	49
325.839	326.466	67	49
325.842	326.466	72	59
325.842	326.469	75	59
325.843	326.469	36	41
325.845	326.469	48	49
326.308	326.469	66	47
326.311	326.469	38	37
326.311	326.466	70	56
326.311	326.469	74	56
326.312	326.469	50	45
326.465	327.777	60	52
326.466	327.207	67	49
326.466	327.207	70	59
326.466	327.777	72	59
326.468	327.207	39	41
326.469	327.207	51	49
327.084	327.777	65	45
327.085	327.777	41	41
327.085	327.777	69	49
327.088	327.777	53	46
327.418	327.777	63	43
327.42	327.777	67	50
327.771	329.056	62	45
327.771	329.052	70	49
327.774	329.056	77	64
327.775	329.056	34	39
327.981	329.056	52	33
328.194	328.618	53	31
328.404	329.056	55	37
328.618	329.056	53	31
328.835	329.056	41	31
329.052	329.675	65	49
329.052	330.333	70	49
329.055	330.33	74	60
329.056	330.333	46	39
329.251	330.333	52	35
329.461	329.885	53	35
329.672	330.333	62	34
329.675	330.333	55	37
329.675	330.333	65	39
329.885	330.333	53	33
329.99	330.333	67	41
329.993	330.333	72	41
329.994	330.333	75	55
330.098	330.333	41	33
330.33	331.597	63	35
330.33	331.597	74	68
330.332	331.597	48	39
330.332	331.597	69	42
330.529	331.597	52	35
330.742	331.162	53	35
330.953	331.597	55	37
331.162	331.597	53	33
331.274	331.597	72	55
331.376	331.597	41	33
331.596	332.874	67	58
331.597	332.874	51	39
331.799	332.874	52	35
331.905	332.874	65	52
332.01	332.426	53	35
332.213	332.874	58	61
332.215	332.874	55	37
332.426	332.874	53	33
332.538	332.874	60	55
332.646	332.874	41	33
332.871	334.152	62	55
332.871	334.148	70	54
332.872	334.152	77	68
332.873	334.152	34	39
333.189	334.152	52	34
333.35	333.668	53	33
333.51	334.152	65	49
333.511	334.152	55	37
333.511	334.152	74	62
333.668	333.826	53	31
333.826	334.152	53	37
333.99	334.152	41	37
334.148	335.418	70	57
334.151	335.198	67	55
334.152	335.418	46	39
334.152	335.198	75	66
334.462	334.774	65	46
334.463	335.418	52	35
334.463	334.775	74	55
334.613	334.929	53	35
334.774	335.418	65	48
334.775	335.415	74	57
334.778	335.418	55	37
334.929	335.089	53	33
334.989	335.416	69	46
334.991	335.418	77	55
335.089	335.418	53	37
335.198	335.418	67	46
335.198	335.418	75	55
335.253	335.418	41	31
335.415	336.682	63	42
335.415	336.682	74	64
335.416	336.682	69	41
335.417	336.682	29	39
335.726	336.682	52	35
335.881	336.202	53	35
336.038	336.682	55	37
336.202	336.36	53	33
336.357	336.682	72	58
336.36	336.682	53	37
336.521	336.682	41	33
336.679	337.095	67	60
336.682	337.967	51	39
336.884	337.305	65	51
336.99	337.967	52	35
337.095	337.967	67	51
337.148	337.469	53	35
337.305	337.967	55	39
337.305	337.967	65	58
337.469	337.623	53	35
337.518	337.967	58	53
337.623	337.967	53	39
337.739	337.967	60	53
337.798	337.967	41	35
337.883	338.615	62	51
337.924	339.258	70	61
337.966	339.258	46	44
337.966	339.247	77	73
338.128	338.446	53	39
338.285	338.929	55	39
338.446	338.767	53	39
338.614	339.258	67	57
338.614	339.258	79	68
338.615	339.258	62	44
338.767	339.086	53	40
338.929	339.258	55	40
339.086	339.258	53	41
339.247	340.595	75	56
339.247	340.512	77	61
339.248	340.595	69	57
339.248	340.595	81	73
339.251	340.595	41	45
339.398	339.72	53	40
339.562	340.189	55	41
339.72	340.032	53	41
339.877	340.595	70	72
339.877	340.595	82	75
339.881	340.595	63	47
340.032	340.35	53	44
340.189	340.595	55	44
340.347	340.595	72	70
340.35	340.595	53	44
340.35	340.595	84	73
340.512	341.779	77	68
340.514	341.782	74	66
340.514	341.782	86	80
340.515	340.664	46	48
340.665	340.98	53	42
340.822	341.456	55	42
340.98	341.298	53	42
341.144	341.782	67	61
341.144	341.782	79	73
341.145	341.782	62	49
341.298	341.617	53	46
341.456	341.782	55	46
341.617	341.782	53	46
341.778	343.115	69	66
341.778	343.056	81	78
341.779	343.115	77	66
341.781	343.115	41	50
341.781	343.115	75	66
341.932	342.25	53	46
342.086	342.726	55	46
342.25	342.562	53	46
342.409	343.115	82	81
342.411	343.115	63	52
342.411	343.115	70	68
342.562	342.892	53	49
342.726	343.115	55	49
342.891	343.115	72	64
342.891	343.056	84	77
342.892	343.115	53	49
343.056	344.385	81	66
343.056	344.385	84	74
343.059	344.385	74	73
343.059	344.385	86	88
343.06	344.385	42	57
343.206	344.385	49	51
343.37	344.385	50	51
343.531	344.385	57	51
343.699	345.627	75	78
343.699	345.624	87	91
343.7	344.385	54	58
343.857	344.385	61	53
344.015	344.385	62	53
344.175	344.385	69	53
344.337	345.627	79	74
344.337	345.627	82	74
344.339	345.627	43	59
344.49	345.627	49	52
344.651	345.295	74	67
344.652	345.627	50	52
344.652	345.296	86	80
344.809	345.627	58	53
344.974	345.627	73	66
344.976	345.627	55	60
344.976	345.627	85	79
345.134	345.627	61	55
345.295	345.627	74	66
345.296	345.627	62	55
345.296	345.627	86	79
345.453	345.627	70	56
345.62	346.899	81	57
345.621	346.899	84	57
345.624	346.899	87	71
345.624	346.899	89	90
345.625	346.899	45	61
345.625	346.899	77	72
345.778	346.899	52	55
345.94	346.899	53	55
346.104	346.899	60	55
346.264	347.526	79	70
346.265	346.899	57	62
346.265	348.159	91	84
346.422	346.899	64	57
346.58	346.899	65	57
346.737	346.899	72	57
346.898	347.998	86	85
346.899	348.159	47	62
347.049	348.159	54	56
347.203	348.155	77	64
347.203	348.158	89	77
347.206	348.159	55	57
347.364	348.159	62	57
347.525	348.159	75	70
347.525	348.159	87	84
347.526	348.154	79	62
347.528	348.159	59	63
347.675	348.159	66	58
347.839	348.159	67	59
347.998	348.159	86	78
348.001	348.159	74	66
348.154	348.789	79	67
348.155	348.854	77	74
348.158	348.854	89	88
348.159	348.854	36	59
348.309	348.854	43	52
348.469	348.854	75	62
348.47	348.854	48	52
348.47	348.854	87	76
348.627	348.854	55	52
348.789	349.422	79	59
348.79	349.425	74	61
348.792	349.426	38	59
348.792	349.422	86	73
348.942	349.426	43	52
349.1	349.426	71	55
349.104	349.426	50	52
349.104	349.426	83	68
349.261	349.426	55	52
349.422	350.045	79	59
349.422	350.049	86	79
349.425	350.049	74	67
349.426	350.049	39	62
349.576	350.049	43	52
349.729	350.049	84	69
349.73	350.049	48	52
349.73	350.049	72	58
349.884	350.049	55	52
350.042	350.658	73	57
350.045	350.658	67	61
350.045	350.658	79	72
350.046	350.658	40	61
350.192	350.658	46	52
350.35	351.273	70	56
350.35	351.287	82	67
350.353	350.658	49	52
350.504	350.658	55	52
350.655	351.287	72	64
350.657	351.287	41	59
350.657	351.273	75	64
350.807	351.287	48	52
350.958	351.903	81	71
350.962	351.287	51	52
350.962	351.903	69	57
351.113	351.287	57	52
351.273	351.903	70	61
351.273	351.901	75	73
351.274	351.903	43	58
351.427	351.903	46	52
351.581	352.554	67	57
351.581	352.554	79	72
351.582	351.903	51	52
351.739	351.903	58	52
351.901	352.554	72	67
351.901	352.538	75	80
351.903	352.554	45	52
352.061	352.54	48	47
352.225	353.17	66	57
352.225	353.17	78	71
352.226	352.554	51	47
352.38	352.554	60	47
352.538	353.17	75	73
352.54	353.17	48	55
352.54	353.17	69	59
352.691	353.17	51	47
352.852	353.807	65	60
352.853	353.17	57	47
352.853	353.807	77	70
353.006	353.17	63	47
353.167	353.482	70	53
353.168	353.489	50	46
353.168	353.486	58	46
353.168	353.486	62	55
353.482	353.801	70	56
353.483	353.807	66	56
353.485	353.807	78	72
353.486	353.805	58	38
353.486	353.807	62	46
353.489	353.807	50	38
353.801	354.444	67	64
353.801	354.122	70	53
353.804	354.444	51	42
353.804	354.444	79	77
353.805	354.126	58	42
353.805	354.442	63	51
354.12	354.444	65	56
354.122	354.444	70	56
354.122	354.444	77	72
354.123	354.444	53	38
354.126	354.444	58	38
354.126	354.444	62	46
354.441	354.767	69	60
354.442	354.767	54	42
354.442	354.767	63	50
354.442	354.767	72	69
354.764	355.075	65	52
354.764	355.075	68	55
354.765	355.075	74	68
354.766	355.075	47	39
354.766	355.075	59	47
355.072	355.394	63	59
355.073	355.421	67	62
355.074	355.421	48	44
355.074	355.421	75	70
355.075	355.421	60	52
355.39	355.726	66	57
355.393	355.726	69	68
355.394	355.726	51	40
355.394	355.726	63	47
355.719	356.065	65	60
355.722	356.065	70	69
355.723	356.065	50	36
355.725	356.065	53	39
355.725	356.065	62	50
355.726	356.065	58	38
356.041	356.366	63	56
356.044	356.366	66	56
356.044	356.366	72	67
356.045	356.366	45	36
356.045	356.366	57	42
356.36	356.751	62	54
356.362	356.751	65	58
356.362	356.751	74	70
356.363	356.751	46	49
356.363	356.678	58	49
356.678	356.947	58	58
356.681	356.947	61	58
356.682	356.992	40	37
356.682	356.996	52	45
356.682	356.947	67	69
356.916	356.996	55	55
356.997	357.654	58	58
356.997	358.333	60	58
356.999	358.333	63	58
356.999	357.657	70	69
357.003	357.325	28	44
357.003	357.326	40	52
357.328	358.333	41	48
357.329	358.333	29	40
357.658	358.333	57	51
357.661	358.333	55	55
357.661	358.333	69	61
357.987	358.505	53	51
358.329	358.505	62	65
358.33	358.506	46	53
358.33	358.505	70	77
358.333	358.507	58	65
358.508	358.595	61	62
358.508	358.596	66	73
358.509	358.596	52	42
358.512	358.599	58	51
358.683	358.771	61	62
358.683	358.771	66	73
358.686	358.772	52	42
358.686	358.774	58	51
358.857	359.026	61	62
358.858	359.027	52	46
358.858	359.026	66	75
358.861	359.027	58	56
359.029	359.109	60	61
359.029	359.114	65	66
359.03	359.114	53	38
359.033	359.114	57	45
359.193	359.271	69	62
359.194	359.272	53	42
359.194	359.272	75	74
359.197	359.272	65	51
359.198	359.274	60	42
359.348	359.512	69	62
359.351	359.513	75	75
359.355	359.515	53	46
359.355	359.516	60	46
359.355	359.516	65	56
359.516	359.593	70	62
359.519	359.594	74	74
359.52	359.596	58	42
359.52	359.596	65	51
359.67	359.751	73	62
359.67	359.751	78	74
359.671	359.754	64	51
359.673	359.754	70	51
359.827	359.981	73	62
359.828	359.986	64	56
359.828	359.985	78	75
359.83	359.986	70	56
359.988	360.062	72	63
359.988	360.066	77	69
359.989	360.066	65	40
359.992	360.066	69	48
360.138	360.219	81	62
360.139	360.224	87	73
360.142	360.224	65	42
360.143	360.224	72	42
360.143	360.226	77	51
360.296	360.453	81	64
360.297	360.454	87	78
360.3	360.454	65	46
360.3	360.455	72	46
360.301	360.458	77	56
360.458	360.534	82	62
360.458	360.535	86	73
360.46	360.537	70	42
360.461	360.537	77	51
360.608	360.692	78	73
360.61	360.692	73	62
360.612	360.695	64	44
360.612	360.693	70	52
360.765	360.923	73	64
360.769	360.926	64	46
360.769	360.926	70	56
360.769	360.924	78	78
360.927	360.999	72	62
360.93	361.001	65	41
360.93	361.001	69	49
360.93	360.999	77	70
361.079	361.152	69	62
361.08	361.156	75	74
361.083	361.157	53	44
361.083	361.159	60	44
361.083	361.159	65	52
361.23	361.387	69	64
361.23	361.388	75	78
361.231	361.388	53	46
361.233	361.39	60	46
361.233	361.391	65	56
361.391	361.467	70	59
361.392	361.468	74	69
361.394	361.471	58	41
361.395	361.471	65	49
361.541	361.618	66	74
361.542	361.618	61	62
361.545	361.622	52	44
361.548	361.622	58	52
361.699	361.849	61	62
361.703	361.853	52	46
361.703	361.85	66	75
361.704	361.856	58	56
361.856	361.933	60	59
361.857	361.934	53	39
361.857	361.933	65	66
361.86	361.937	57	46
362.011	362.09	57	62
362.011	362.091	63	74
362.012	362.092	41	44
362.012	362.091	48	44
362.012	362.094	53	52
362.171	362.34	57	62
362.172	362.34	41	46
362.172	362.34	63	75
362.175	362.343	48	46
362.175	362.343	53	56
362.343	362.419	58	53
362.344	362.42	62	63
362.347	362.424	46	39
362.347	362.423	53	46
362.5	362.581	60	49
362.501	362.584	67	59
362.504	362.584	48	36
362.504	362.585	52	36
362.505	362.588	58	41
362.658	362.816	48	37
362.658	362.815	60	51
362.658	362.816	67	62
362.662	362.819	52	37
362.662	362.819	58	44
362.82	362.897	53	34
362.82	362.896	65	58
362.822	362.899	57	41
362.973	363.053	69	44
362.973	363.054	75	52
362.974	363.054	53	29
362.974	363.056	65	36
362.977	363.057	60	29
363.126	363.291	69	46
363.13	363.291	75	55
363.131	363.292	53	33
363.131	363.295	60	33
363.134	363.295	65	39
363.295	363.365	70	44
363.296	363.369	74	52
363.299	363.369	58	29
363.299	363.369	65	36
363.445	363.522	72	44
363.446	363.522	79	52
363.449	363.523	60	36
363.449	363.526	64	36
363.453	363.526	70	36
363.603	363.76	72	46
363.606	363.764	60	39
363.606	363.764	79	55
363.607	363.764	64	39
363.607	363.767	70	39
363.768	363.838	65	29
363.768	363.837	77	51
363.769	363.838	69	36
363.918	363.999	81	39
363.918	363.999	87	46
363.919	364.0	65	26
363.921	364.001	72	26
363.921	364.002	77	31
364.075	364.229	81	40
364.076	364.233	65	29
364.076	364.229	87	49
364.078	364.233	72	29
364.079	364.236	77	35
364.236	364.313	82	39
364.237	364.314	86	46
364.24	364.314	70	26
364.24	364.316	77	31
364.386	364.467	79	55
364.39	364.471	60	33
364.39	364.467	72	47
364.391	364.474	64	33
364.391	364.474	70	39
364.551	364.708	72	49
364.551	364.709	79	59
364.552	364.709	60	35
364.555	364.71	64	35
364.555	364.712	70	41
364.713	364.783	65	33
364.713	364.782	77	56
364.715	364.783	69	39
364.863	364.947	69	47
364.866	364.948	53	33
364.866	364.948	60	33
364.866	364.947	75	56
364.867	364.951	65	39
365.027	365.188	69	49
365.028	365.192	53	35
365.028	365.188	75	59
365.03	365.192	60	35
365.031	365.193	65	41
365.195	365.269	70	47
365.195	365.273	74	55
365.196	365.273	58	33
365.199	365.273	65	39
365.353	365.434	48	33
365.353	365.434	60	47
365.353	365.433	67	56
365.354	365.437	52	33
365.356	365.437	58	39
365.51	365.671	60	49
365.51	365.672	67	59
365.511	365.674	48	35
365.511	365.675	52	35
365.514	365.675	58	41
365.678	365.745	65	56
365.679	365.748	53	33
365.679	365.749	57	39
365.832	365.92	57	52
365.832	365.92	60	52
365.836	365.924	41	41
365.836	365.921	63	62
365.837	365.924	53	49
366.0	366.165	60	49
366.004	366.165	57	49
366.004	366.166	63	59
366.005	366.168	41	39
366.007	366.168	53	47
366.169	366.253	57	44
366.169	366.253	61	46
366.172	366.254	40	35
366.172	366.253	64	52
366.173	366.256	52	41
366.325	366.406	57	49
366.326	366.41	59	49
366.329	366.411	63	47
366.33	366.413	52	38
366.33	366.413	69	56
366.333	366.414	54	45
366.483	366.644	57	49
366.484	366.648	59	49
366.487	366.648	63	49
366.487	366.651	69	59
366.488	366.652	52	39
366.488	366.652	54	47
366.653	366.725	56	46
366.654	366.728	64	44
366.655	366.732	52	34
366.655	366.733	59	41
366.655	366.728	68	51
366.809	366.883	62	47
366.809	366.886	64	47
366.81	366.886	68	47
366.812	366.89	52	36
366.812	366.89	74	56
366.813	366.89	59	44
366.966	367.12	62	49
366.967	367.124	64	49
366.967	367.124	68	49
366.968	367.127	74	59
366.97	367.127	52	39
366.97	367.128	59	47
367.128	367.198	61	46
367.131	367.198	69	44
367.131	367.201	73	52
367.132	367.201	52	34
367.132	367.201	57	34
367.134	367.202	64	41
367.277	367.355	69	49
367.278	367.356	71	49
367.281	367.356	75	47
367.282	367.359	52	44
367.282	367.358	81	56
367.284	367.359	59	44
367.285	367.359	66	44
367.435	367.592	69	49
367.436	367.593	71	49
367.439	367.593	75	49
367.439	367.596	81	59
367.44	367.597	52	47
367.44	367.597	59	47
367.442	367.598	66	47
367.6	367.666	68	46
367.6	367.671	76	41
367.6	367.671	80	51
367.604	367.671	52	44
367.604	367.673	59	34
367.604	367.674	64	41
367.747	367.831	74	49
367.75	367.831	76	49
367.75	367.832	80	47
367.754	367.835	62	36
367.754	367.835	86	55
367.755	367.835	52	47
367.757	367.838	59	36
367.757	367.836	64	44
367.911	368.069	74	49
367.912	368.07	76	49
367.915	368.072	62	39
367.915	368.07	80	49
367.915	368.072	86	59
367.916	368.073	59	39
367.919	368.073	52	39
367.919	368.076	64	47
368.076	368.57	67	45
368.077	368.556	71	63
368.079	368.57	59	34
368.08	368.57	65	49
368.235	368.57	68	66
368.237	368.57	50	61
368.237	368.57	77	80
368.391	368.57	70	68
368.392	368.57	53	47
368.392	368.57	74	74
368.394	368.57	62	56
368.556	368.871	71	71
368.556	368.871	80	84
368.557	368.871	47	62
368.709	368.871	73	66
368.71	368.871	77	79
368.713	368.871	53	49
368.713	368.871	59	59
368.867	369.23	74	74
368.871	369.23	44	64
368.871	369.23	83	89
369.017	369.23	80	85
369.018	369.23	76	72
369.021	369.23	47	50
369.021	369.23	56	60
369.175	369.515	77	78
369.179	369.515	41	69
369.179	369.515	86	92
369.332	369.515	79	73
369.336	369.515	83	86
369.337	369.515	47	53
369.337	369.515	53	64
369.496	369.655	80	79
369.497	369.659	38	77
369.497	369.837	89	94
369.655	369.837	80	77
369.658	369.837	92	90
369.659	369.837	26	69
369.659	369.837	38	69
369.826	370.344	88	85
369.83	370.001	37	42
369.83	370.344	81	85
369.83	370.344	93	101
369.831	370.344	25	42
369.998	370.162	57	64
369.998	370.165	64	64
369.999	370.166	69	77
370.001	370.166	37	36
370.001	370.167	49	50
370.162	370.326	57	64
370.165	370.327	64	64
370.166	370.33	37	40
370.166	370.327	69	77
370.167	370.331	49	48
370.326	370.488	57	55
370.327	370.491	64	55
370.327	370.491	69	77
370.33	370.491	37	40
370.331	370.492	49	48
370.488	370.652	57	63
370.491	370.655	37	40
370.491	370.653	64	63
370.491	370.653	69	75
370.492	370.655	49	48
370.652	370.807	57	63
370.653	370.813	64	63
370.653	370.81	69	75
370.655	370.811	37	41
370.655	370.811	49	49
370.807	370.97	57	57
370.81	370.971	65	57
370.81	370.971	69	80
370.811	371.303	37	38
370.811	371.303	49	55
370.97	371.132	57	64
370.971	371.135	65	64
370.971	371.135	69	77
370.974	371.135	36	44
370.975	371.139	48	52
371.132	371.296	57	64
371.135	371.299	36	44
371.135	371.297	65	64
371.135	371.299	69	77
371.139	371.3	48	52
371.296	371.458	57	68
371.297	371.461	65	68
371.299	371.77	36	47
371.299	371.461	69	81
371.3	371.77	48	56
371.458	371.608	57	67
371.461	371.612	37	44
371.461	371.611	65	67
371.461	371.611	69	79
371.462	371.614	49	52
371.608	371.765	57	67
371.611	371.766	65	67
371.611	371.769	69	79
371.612	371.769	37	44
371.614	371.769	49	52
371.765	372.283	57	67
371.766	371.926	65	67
371.769	371.927	37	46
371.769	371.929	49	56
371.769	372.283	69	80
371.922	372.08	58	68
371.926	372.08	65	68
371.927	372.083	37	47
371.927	372.081	70	81
371.929	372.084	49	57
372.08	372.241	58	69
372.08	372.242	65	69
372.081	372.244	70	82
372.083	372.245	37	48
372.084	372.248	49	58
372.241	372.399	58	71
372.242	372.724	65	71
372.244	372.402	70	83
372.245	372.402	37	49
372.248	372.402	49	58
372.399	372.556	58	71
372.399	372.557	66	71
372.402	372.559	37	50
372.402	372.56	49	59
372.402	372.557	70	84
372.556	372.717	58	71
372.557	372.717	66	71
372.557	372.721	70	85
372.559	372.724	37	51
372.56	372.721	49	61
372.717	372.881	58	72
372.717	372.882	66	72
372.721	373.224	49	62
372.721	372.882	70	86
372.724	373.224	37	52
372.881	373.032	58	73
372.882	373.032	66	73
372.882	373.033	70	88
372.885	373.036	36	52
372.885	373.036	48	62
373.032	373.193	58	75
373.032	373.194	66	75
373.033	373.196	70	90
373.036	373.197	36	53
373.036	373.2	48	63
373.193	373.351	58	77
373.194	373.666	66	77
373.196	373.354	70	91
373.197	373.666	36	53
373.2	373.666	48	64
373.351	373.504	58	78
373.351	373.658	65	78
373.354	373.508	37	55
373.354	373.509	49	66
373.354	373.505	70	92
373.504	373.658	58	79
373.505	373.666	64	79
373.505	373.659	70	93
373.508	373.666	37	56
373.509	373.666	49	67
373.658	373.838	58	73
373.658	373.834	65	86
373.659	374.176	70	102
373.662	374.176	38	52
373.662	374.176	50	74
373.83	374.002	62	68
373.834	374.002	65	80
373.834	374.005	74	95
373.837	374.005	53	50
373.838	374.005	46	50
373.838	374.009	58	71
374.002	374.163	62	68
374.002	374.166	65	80
374.005	374.167	46	51
374.005	374.169	53	51
374.005	374.167	74	95
374.009	374.169	58	72
374.163	374.663	62	72
374.166	374.663	65	85
374.167	374.663	46	53
374.167	374.663	74	101
374.169	374.663	53	53
374.169	374.492	58	75
374.331	374.663	60	68
374.331	374.663	72	95
374.492	374.663	58	68
374.495	374.663	70	95
374.66	375.174	27	68
374.66	375.174	39	96
374.828	374.993	62	68
374.831	374.996	66	80
374.832	374.999	46	50
374.832	374.999	51	50
374.832	374.999	74	95
374.833	375.0	58	71
374.993	375.161	62	68
374.996	375.163	66	80
374.999	375.167	46	51
374.999	375.168	51	51
374.999	375.167	74	95
375.0	375.168	58	72
375.161	375.665	62	72
375.163	375.665	66	85
375.167	375.665	46	53
375.167	375.665	74	101
375.168	375.665	51	53
375.168	375.496	58	75
375.329	375.665	60	68
375.332	375.665	72	95
375.496	375.665	58	68
375.497	375.665	70	95
375.664	376.179	29	68
375.664	376.179	41	96
375.84	376.004	62	68
375.84	376.007	65	80
375.842	376.007	74	95
375.843	376.008	46	50
375.843	376.007	53	50
375.843	376.01	58	71
376.004	376.175	62	68
376.007	376.178	53	51
376.007	376.175	65	80
376.007	376.176	74	95
376.008	376.178	46	51
376.01	376.179	58	72
376.175	376.676	62	72
376.175	376.676	65	85
376.176	376.676	74	101
376.178	376.676	46	53
376.178	376.676	53	53
376.179	376.5	58	75
376.335	376.676	60	68
376.336	376.676	72	95
376.5	376.676	58	68
376.501	376.676	70	95
376.672	377.221	30	68
376.676	377.221	42	96
376.858	377.029	63	80
376.861	377.032	74	95
376.862	377.033	46	50
376.862	377.033	51	50
376.864	377.034	58	71
377.029	377.211	63	80
377.032	377.212	74	95
377.033	377.212	46	51
377.033	377.214	51	51
377.034	377.214	58	72
377.211	377.779	63	85
377.212	377.779	46	53
377.212	377.775	74	101
377.214	377.779	51	53
377.214	377.779	58	75
377.396	377.779	72	95
377.575	377.775	70	95
377.624	377.779	31	60
377.624	377.779	43	72
377.772	378.888	62	84
377.774	378.888	65	84
377.775	377.837	32	73
377.775	378.891	70	101
377.775	378.891	74	101
377.778	377.837	44	86
377.901	377.977	29	66
377.904	377.978	41	79
378.18	378.254	31	73
378.184	378.258	43	86
378.331	378.401	32	68
378.331	378.402	44	81
378.471	378.541	29	68
378.472	378.541	41	81
378.895	379.398	62	71
378.895	379.402	65	71
378.896	379.403	70	84
378.896	379.403	74	84
378.898	379.02	32	56
378.898	379.024	44	67
379.025	379.087	29	49
379.028	379.088	41	60
379.283	379.405	31	52
379.283	379.406	43	62
379.406	379.917	62	69
379.409	379.917	65	69
379.409	379.917	71	83
379.41	379.532	32	51
379.41	379.92	74	83
379.412	379.532	44	61
379.535	379.598	29	51
379.535	379.598	41	61
379.924	380.41	62	69
379.924	380.411	65	69
379.927	380.413	70	82
379.927	380.414	74	82
379.931	380.042	32	56
379.931	380.046	44	67
380.047	380.109	29	50
380.047	380.11	41	60
380.294	380.414	31	52
380.295	380.417	43	66
380.418	380.91	62	68
380.42	380.911	65	68
380.42	380.911	71	82
380.424	380.54	32	51
380.424	380.914	74	82
380.425	380.54	44	62
380.541	380.602	29	52
380.543	380.603	41	63
380.914	381.397	63	74
380.914	381.398	66	74
380.917	381.4	71	88
380.918	381.071	33	60
380.918	381.071	45	74
380.918	381.4	75	88
381.04	381.103	30	56
381.041	381.103	42	63
381.285	381.404	31	59
381.286	381.404	43	71
381.405	381.89	63	72
381.405	381.891	66	72
381.407	381.891	72	88
381.407	381.894	75	88
381.408	381.6	33	57
381.411	381.6	45	69
381.526	381.6	42	57
381.527	381.6	54	69
381.894	382.363	64	74
381.894	382.364	67	74
381.895	382.366	72	88
381.898	382.076	34	63
381.898	382.076	46	75
381.898	382.366	76	88
382.014	382.076	31	56
382.016	382.076	43	67
382.251	382.367	33	61
382.252	382.37	45	71
382.37	382.852	64	73
382.371	382.853	67	73
382.371	382.856	73	87
382.372	382.857	76	87
382.373	382.587	34	59
382.373	382.587	46	71
382.489	382.587	43	60
382.493	382.587	55	71
382.859	383.339	65	76
382.86	383.339	68	76
382.86	383.34	73	93
382.861	383.343	77	93
382.863	383.052	35	68
382.864	382.976	47	79
382.976	383.052	47	60
382.979	383.052	59	73
383.343	383.83	65	76
383.344	383.837	69	76
383.344	383.837	75	92
383.344	383.832	77	92
383.346	383.837	36	68
383.346	383.496	48	68
383.496	383.837	48	74
383.497	383.837	60	74
383.652	383.837	49	78
383.652	383.837	61	78
383.83	384.397	65	78
383.831	384.32	70	93
383.832	384.397	77	93
383.833	384.397	50	66
383.833	384.324	58	66
383.836	384.397	62	79
384.32	384.824	66	79
384.32	384.818	70	94
384.323	384.824	51	67
384.323	384.824	78	94
384.324	384.821	58	67
384.324	384.824	63	80
384.818	385.373	70	79
384.818	385.307	72	79
384.82	385.373	54	67
384.82	385.307	75	95
384.82	385.373	82	95
384.821	385.373	58	67
384.823	385.313	60	67
384.824	385.313	63	67
384.824	385.373	66	80
385.306	385.804	69	77
385.307	385.804	72	77
385.307	385.804	75	93
385.308	385.804	81	93
385.31	385.804	53	65
385.313	385.804	60	65
385.313	385.804	63	65
385.314	385.804	65	78
385.8	386.279	70	85
385.8	386.35	74	102
385.801	386.28	82	102
385.804	386.35	46	72
385.804	386.35	58	86
386.279	386.791	70	84
386.28	386.798	75	84
386.28	386.798	78	101
386.28	386.797	82	101
386.283	386.798	39	70
386.284	386.798	51	86
386.791	387.289	70	85
386.794	387.312	74	85
386.795	387.312	77	101
386.797	387.292	82	101
386.798	387.312	34	72
386.798	387.312	46	87
387.289	387.806	70	85
387.291	387.813	75	85
387.291	387.813	78	101
387.292	387.813	27	70
387.292	387.81	82	101
387.295	387.813	39	86
387.806	388.838	70	91
387.806	388.839	74	91
387.809	392.84	77	108
387.81	389.871	34	74
387.81	388.832	82	108
387.812	389.868	46	92
388.832	392.84	82	100
388.834	392.84	94	117
388.835	389.867	62	74
388.838	392.84	65	74
388.838	392.84	70	77
388.839	392.84	74	95
389.867	392.84	62	105
389.868	392.84	46	65
389.871	392.84	34	59
389.871	392.84	41	60
389.872	392.84	50	67
389.872	392.84	53	71
389.874	392.84	58	91
