OnsetTime	OffsetTime	MidiPitch	Velocity
0.500004	2.0071	78	55
1.00001	2.49613	47	50
1.25	2.49613	83	50
1.5	2.0071	55	34
1.5	2.0071	59	34
1.5	2.0071	64	40
1.5	1.63824	79	50
1.56912	2.49613	81	50
1.63824	2.49613	79	57
2.0071	2.49613	55	33
2.0071	2.49613	59	33
2.0071	2.49613	64	39
2.0071	2.49613	78	53
2.24614	2.49613	76	50
2.49613	3.99841	47	50
2.49613	3.99841	78	55
2.74841	3.99841	71	50
2.9984	3.49841	54	26
2.9984	3.49841	59	26
2.9984	3.49841	62	31
3.49841	3.99841	54	26
3.49841	3.99841	59	26
3.49841	3.99841	62	31
3.99841	5.4935	47	50
3.99841	5.00446	73	58
4.24841	4.5685	76	50
4.4984	5.00446	54	34
4.4984	5.00446	58	34
4.4984	5.00446	64	40
4.4984	4.6386	74	50
4.5685	5.4935	76	50
4.6386	5.4935	74	57
5.00446	5.4935	54	33
5.00446	5.4935	58	33
5.00446	5.4935	64	39
5.00446	5.4935	73	53
5.4935	6.98757	47	50
5.4935	6.98757	74	55
5.74578	6.98757	71	50
5.99577	6.48757	54	26
5.99577	6.48757	59	26
5.99577	6.48757	62	31
6.48757	6.98757	54	26
6.48757	6.98757	59	26
6.48757	6.98757	62	31
6.98757	7.51318	37	50
6.98757	7.51318	73	58
7.23757	7.51318	71	50
7.48757	8.00125	49	34
7.48757	8.00125	53	34
7.48757	8.00125	59	40
7.48757	7.56074	69	46
7.56074	8.4903	71	47
7.63391	8.4903	69	55
8.00125	8.4903	49	33
8.00125	8.4903	53	33
8.00125	8.4903	59	39
8.00125	8.4903	68	53
8.4903	9.52056	42	50
8.4903	9.52056	69	55
8.74257	9.52056	73	50
8.99257	9.52056	49	31
8.99257	9.52056	57	37
9.49256	10.2126	61	68
10.2126	10.4608	59	60
10.4608	10.5196	57	57
10.5196	10.5784	59	57
10.5784	10.9313	57	68
10.9313	11.4172	56	67
11.4172	11.8805	57	71
11.8805	12.8238	61	67
12.8238	14.2292	49	47
12.8238	13.2955	56	58
12.8238	13.2955	59	71
13.2955	13.7575	54	55
13.2955	13.7575	57	68
13.7575	14.2292	57	55
13.7575	14.2292	61	68
14.2292	15.6412	49	47
14.2292	14.474	56	57
14.2292	14.2956	59	63
14.2956	14.362	61	63
14.362	14.474	59	73
14.474	14.6979	54	51
14.474	14.6979	57	66
14.6979	15.1695	57	56
14.6979	15.1695	61	72
15.1695	15.6412	57	54
15.1695	15.6412	61	68
15.6412	17.0442	49	47
15.6412	16.1105	56	57
15.6412	15.7073	59	61
15.7073	15.7734	61	61
15.7734	16.1105	59	72
16.1105	16.5725	54	56
16.1105	16.5725	58	72
16.5725	17.0442	58	54
16.5725	17.0442	61	68
17.0442	17.5202	49	47
17.0442	17.291	56	57
17.0442	17.1103	59	62
17.1103	17.1764	61	63
17.1764	17.291	59	73
17.291	18.0033	54	51
17.291	17.5202	58	66
17.5202	18.4918	42	47
17.5202	18.0033	66	72
17.9918	19.4989	78	58
18.4918	19.9879	47	50
18.7418	19.9879	83	50
18.9918	19.4989	55	34
18.9918	19.4989	59	34
18.9918	19.4989	64	40
18.9918	19.1301	79	50
19.0609	19.9879	81	50
19.1301	19.9879	79	57
19.4989	19.9879	55	33
19.4989	19.9879	59	33
19.4989	19.9879	64	39
19.4989	19.9879	78	53
19.7379	19.9879	76	50
19.9879	21.4902	47	50
19.9879	21.4902	78	55
20.2402	21.4902	71	50
20.4902	20.9902	54	26
20.4902	20.9902	59	26
20.4902	20.9902	62	31
20.9902	21.4902	54	26
20.9902	21.4902	59	26
20.9902	21.4902	62	31
21.4902	22.9853	47	50
21.4902	22.4963	73	58
21.7402	22.0603	76	50
21.9902	22.4963	54	34
21.9902	22.4963	58	34
21.9902	22.4963	64	40
21.9902	22.1304	74	50
22.0603	22.9853	76	50
22.1304	22.9853	74	57
22.4963	22.9853	54	33
22.4963	22.9853	58	33
22.4963	22.9853	64	39
22.4963	22.9853	73	53
22.9853	23.9292	47	50
22.9853	23.9292	74	55
23.2376	23.9876	71	50
23.4876	23.9876	54	26
23.4876	23.9876	59	26
23.4876	23.9876	62	31
23.9876	24.6963	50	66
24.46	24.9325	59	38
24.46	24.9325	65	43
24.6963	24.9325	55	58
24.9325	25.0769	52	65
24.9325	25.3657	60	34
24.9325	25.3657	64	38
25.0769	25.2213	53	57
25.2213	25.3657	52	55
25.3657	25.6019	50	63
25.3657	25.8382	60	34
25.3657	25.8382	64	38
25.6019	25.8382	48	57
25.8382	26.1953	50	64
25.8382	26.3143	55	41
25.8382	26.3143	59	41
25.8382	26.3143	65	46
26.1953	26.3143	43	55
26.3143	26.7905	50	64
26.3143	26.7905	55	34
26.3143	26.7905	59	34
26.3143	26.7905	65	38
26.7905	27.2667	48	59
26.7905	27.2667	60	34
26.7905	27.2667	64	38
27.2667	27.5029	50	66
27.2667	27.7392	59	38
27.2667	27.7392	65	43
27.5029	27.7392	55	58
27.7392	27.8836	52	65
27.7392	28.1724	60	34
27.7392	28.1724	64	38
27.8836	28.028	53	57
28.028	28.1724	52	55
28.1724	28.4086	50	63
28.1724	28.6448	60	34
28.1724	28.6448	64	38
28.4086	28.6448	48	57
28.6448	29.002	50	64
28.6448	29.121	55	41
28.6448	29.121	59	41
28.6448	29.121	65	46
29.002	29.121	43	54
29.121	29.5972	50	62
29.121	29.5972	55	33
29.121	29.5972	59	33
29.121	29.5972	65	37
29.5972	30.0734	48	56
29.5972	30.0734	60	32
29.5972	30.0734	64	36
30.0734	30.413	50	60
30.0734	30.5262	55	38
30.0734	30.5262	59	38
30.0734	30.5262	65	43
30.413	30.5262	43	51
30.5262	31.014	48	58
30.5262	31.014	60	31
30.5262	31.014	64	34
31.014	31.3642	50	57
31.014	31.4809	55	36
31.014	31.4809	59	36
31.014	31.4809	65	41
31.3642	31.4809	43	48
31.4809	31.9748	48	56
31.4809	31.9748	60	29
31.4809	31.9748	64	29
31.9748	32.3277	50	55
31.9748	32.4453	55	35
31.9748	32.4453	59	35
31.9748	32.4453	65	39
32.3277	32.4453	43	46
32.4453	32.9474	48	53
32.4453	32.9474	60	28
32.4453	32.9474	64	31
32.9474	34.4537	43	52
32.9474	34.4537	55	52
34.4537	35.96	42	48
34.4537	35.96	54	48
35.96	37.4561	35	46
35.96	37.4561	47	50
35.96	36.9671	78	55
36.21	37.4561	83	50
36.46	36.9671	55	34
36.46	36.9671	59	34
36.46	36.9671	64	40
36.46	36.5982	79	50
36.5291	37.4561	81	50
36.5982	37.4561	79	57
36.9671	37.4561	55	33
36.9671	37.4561	59	33
36.9671	37.4561	64	39
36.9671	37.4561	78	53
37.2061	37.4561	76	50
37.4561	38.9584	47	50
37.4561	38.9584	78	55
37.7084	38.9584	71	50
37.9584	38.4584	54	26
37.9584	38.4584	59	26
37.9584	38.4584	62	31
38.4584	38.9584	54	26
38.4584	38.9584	59	26
38.4584	38.9584	62	31
38.9584	40.4535	47	50
38.9584	39.9644	73	58
39.2084	39.5285	76	50
39.4584	39.9644	54	34
39.4584	39.9644	58	34
39.4584	39.9644	64	40
39.4584	39.5986	74	50
39.5285	40.4535	76	50
39.5986	40.4535	74	57
39.9644	40.4535	54	33
39.9644	40.4535	58	33
39.9644	40.4535	64	39
39.9644	40.4535	73	53
40.4535	41.9434	47	50
40.4535	41.9434	74	55
40.7058	41.9434	71	50
40.9557	41.4496	54	26
40.9557	41.4496	59	26
40.9557	41.4496	62	31
41.4496	41.9434	54	26
41.4496	41.9434	59	26
41.4496	41.9434	62	31
41.9434	42.469	37	50
41.9434	42.469	73	58
42.1934	42.469	71	50
42.4434	42.9571	49	34
42.4434	42.9571	53	34
42.4434	42.9571	59	40
42.4434	42.5166	69	46
42.5166	43.4461	71	47
42.5897	43.4461	69	55
42.9571	43.4461	49	33
42.9571	43.4461	53	33
42.9571	43.4461	59	39
42.9571	43.4461	68	53
43.4461	44.4765	42	50
43.4461	44.4765	69	55
43.6984	44.4765	73	50
43.9484	44.4765	49	31
43.9484	44.4765	57	37
44.4484	45.1713	61	68
45.1713	45.4194	59	60
45.4194	45.4775	57	57
45.4775	45.5357	59	57
45.5357	45.8845	57	68
45.8845	46.3703	56	67
46.3703	46.8355	57	71
46.8355	47.7805	61	67
47.7805	49.1884	49	47
47.7805	48.253	56	58
47.7805	48.253	59	71
48.253	48.7159	54	55
48.253	48.7159	57	68
48.7159	49.1884	57	55
48.7159	49.1884	61	68
49.1884	50.6036	49	47
49.1884	49.4339	56	57
49.1884	49.255	59	63
49.255	49.3215	61	63
49.3215	49.4339	59	73
49.4339	49.6586	54	51
49.4339	49.6586	57	66
49.6586	50.1311	57	56
49.6586	50.1311	61	72
50.1311	50.6036	57	54
50.1311	50.6036	61	68
50.6036	52.0073	49	47
50.6036	51.0719	56	57
50.6036	50.6699	59	61
50.6699	50.7361	61	61
50.7361	51.0719	59	72
51.0719	51.5348	54	56
51.0719	51.5348	58	72
51.5348	52.0073	58	54
51.5348	52.0073	61	68
52.0073	52.4842	49	47
52.0073	52.2546	56	57
52.0073	52.0736	59	62
52.0736	52.1398	61	63
52.1398	52.2546	59	73
52.2546	52.9681	54	51
52.2546	52.4842	58	66
52.4842	53.4567	42	47
52.4842	52.9681	66	72
52.9567	54.4638	78	58
53.4567	54.9528	47	50
53.7067	54.9528	83	50
53.9567	54.4638	55	34
53.9567	54.4638	59	34
53.9567	54.4638	64	40
53.9567	54.0949	79	50
54.0258	54.9528	81	50
54.0949	54.9528	79	57
54.4638	54.9528	55	33
54.4638	54.9528	59	33
54.4638	54.9528	64	39
54.4638	54.9528	78	53
54.7028	54.9528	76	50
54.9528	56.4429	47	50
54.9528	56.4429	78	55
55.2051	56.4429	71	50
55.4551	55.9429	54	26
55.4551	55.9429	59	26
55.4551	55.9429	62	31
55.9429	56.4429	54	26
55.9429	56.4429	59	26
55.9429	56.4429	62	31
56.4429	57.938	47	50
56.4429	57.4489	73	58
56.6929	57.013	76	50
56.9429	57.4489	54	34
56.9429	57.4489	58	34
56.9429	57.4489	64	40
56.9429	57.0831	74	50
57.013	57.938	76	50
57.0831	57.938	74	57
57.4489	57.938	54	33
57.4489	57.938	58	33
57.4489	57.938	64	39
57.4489	57.938	73	53
57.938	58.8819	47	50
57.938	58.8819	74	55
58.1902	58.9402	71	50
58.4402	58.9402	54	26
58.4402	58.9402	59	26
58.4402	58.9402	62	31
58.9402	59.6489	50	66
59.4127	59.8851	59	38
59.4127	59.8851	65	43
59.6489	59.8851	55	58
59.8851	60.0295	52	65
59.8851	60.3183	60	34
59.8851	60.3183	64	38
60.0295	60.1739	53	57
60.1739	60.3183	52	55
60.3183	60.5546	50	63
60.3183	60.7908	60	34
60.3183	60.7908	64	38
60.5546	60.7908	48	57
60.7908	61.1479	50	64
60.7908	61.267	55	41
60.7908	61.267	59	41
60.7908	61.267	65	46
61.1479	61.267	43	55
61.267	61.7432	50	64
61.267	61.7432	55	34
61.267	61.7432	59	34
61.267	61.7432	65	38
61.7432	62.2194	48	59
61.7432	62.2194	60	34
61.7432	62.2194	64	38
62.2194	62.4556	50	66
62.2194	62.6918	59	38
62.2194	62.6918	65	43
62.4556	62.6918	55	58
62.6918	62.8362	52	65
62.6918	63.125	60	34
62.6918	63.125	64	38
62.8362	62.9806	53	57
62.9806	63.125	52	55
63.125	63.3612	50	63
63.125	63.5975	60	34
63.125	63.5975	64	38
63.3612	63.5975	48	57
63.5975	63.9546	50	64
63.5975	64.0737	55	41
63.5975	64.0737	59	41
63.5975	64.0737	65	46
63.9546	64.0737	43	54
64.0737	64.5498	50	62
64.0737	64.5498	55	33
64.0737	64.5498	59	33
64.0737	64.5498	65	37
64.5498	65.026	48	56
64.5498	65.026	60	32
64.5498	65.026	64	36
65.026	65.3657	50	60
65.026	65.4789	55	38
65.026	65.4789	59	38
65.026	65.4789	65	43
65.3657	65.4789	43	51
65.4789	65.9667	48	58
65.4789	65.9667	60	31
65.4789	65.9667	64	34
65.9667	66.3168	50	57
65.9667	66.4336	55	36
65.9667	66.4336	59	36
65.9667	66.4336	65	41
66.3168	66.4336	43	48
66.4336	66.9274	48	56
66.4336	66.9274	60	29
66.4336	66.9274	64	29
66.9274	67.2803	50	55
66.9274	67.398	55	35
66.9274	67.398	59	35
66.9274	67.398	65	39
67.2803	67.398	43	46
67.398	67.9001	48	53
67.398	67.9001	60	28
67.398	67.9001	64	31
67.9001	69.4063	43	52
67.9001	69.4063	55	52
69.4063	70.4364	42	60
69.4063	70.4364	54	59
70.4364	71.0189	41	66
70.4364	71.0189	53	62
71.0189	72.1736	34	74
71.4189	72.1736	53	54
71.4189	71.7963	58	54
71.4189	72.1736	62	64
71.4189	72.1736	65	68
71.4189	71.7963	70	68
71.4189	72.1736	74	80
71.7963	72.1736	54	64
71.7963	72.1736	58	64
71.7963	72.1736	63	64
71.7963	72.1736	66	68
71.7963	72.1736	70	68
71.7963	72.1736	75	80
72.1736	72.9583	46	73
72.1736	72.9583	78	86
72.4447	72.7931	74	61
72.4447	72.7931	77	80
72.5307	73.2652	58	57
72.5307	73.2652	62	57
72.5307	73.2652	65	68
72.5307	72.9583	72	61
72.7931	72.9583	74	61
72.7931	73.169	77	80
72.8806	73.2652	53	68
72.8806	73.2652	70	80
73.2652	74.4045	34	72
73.2652	74.4045	82	85
73.6498	74.4045	53	54
73.6498	74.0272	58	54
73.6498	74.4045	62	64
73.6498	74.4045	65	68
73.6498	74.0272	70	68
73.6498	74.4045	74	80
74.0272	74.4045	54	64
74.0272	74.4045	58	64
74.0272	74.4045	63	64
74.0272	74.4045	66	68
74.0272	74.4045	70	68
74.0272	74.4045	75	80
74.4045	75.1912	46	73
74.4045	75.1912	78	86
74.6756	75.0255	74	61
74.6756	75.0255	77	80
74.7616	75.4981	58	57
74.7616	75.4981	62	57
74.7616	75.4981	65	68
74.7616	75.1912	72	61
75.0255	75.1912	74	61
75.0255	75.4019	77	80
75.1135	75.4981	53	68
75.1135	75.4981	70	80
75.4981	76.6528	34	79
75.8981	76.6528	53	54
75.8981	76.2755	58	54
75.8981	76.6528	62	64
75.8981	76.6528	65	68
75.8981	76.2755	70	68
75.8981	76.6528	74	80
76.2755	76.6528	54	64
76.2755	76.6528	58	64
76.2755	76.6528	63	64
76.2755	76.6528	66	68
76.2755	76.6528	70	68
76.2755	76.6528	75	80
76.6528	77.4352	46	73
76.6528	77.4352	78	86
76.9239	77.2705	74	61
76.9239	77.2705	77	80
77.0096	77.7421	58	57
77.0096	77.7421	62	57
77.0096	77.7421	65	68
77.0096	77.4352	72	61
77.2705	77.4352	74	61
77.2705	77.6459	77	80
77.3574	77.7421	53	68
77.3574	77.7421	70	80
77.7421	78.8814	34	69
77.7421	78.8814	46	72
77.7421	78.8814	82	80
77.7421	78.8814	94	85
78.1267	78.8814	53	54
78.1267	78.504	58	54
78.1267	78.8814	62	64
78.1267	78.8814	65	68
78.1267	78.504	70	68
78.1267	78.8814	74	80
78.504	78.8814	54	64
78.504	78.8814	58	64
78.504	78.8814	63	64
78.504	78.8814	66	68
78.504	78.8814	70	68
78.504	78.8814	75	80
78.8814	79.6663	46	73
78.8814	79.6663	78	86
79.1525	79.5011	74	61
79.1525	79.5011	77	80
79.2387	79.9732	58	57
79.2387	79.9732	62	57
79.2387	79.9732	65	68
79.2387	79.6663	72	61
79.5011	79.6663	74	61
79.5011	79.877	77	80
79.5885	79.9732	53	68
79.5885	79.9732	70	80
79.9732	81.1279	39	81
80.3732	81.1279	58	54
80.3732	80.7505	63	54
80.3732	81.1279	67	64
80.3732	81.1279	70	68
80.3732	80.7505	75	68
80.3732	81.1279	79	80
80.7505	81.1279	59	64
80.7505	81.1279	63	64
80.7505	81.1279	68	64
80.7505	81.1279	71	68
80.7505	81.1279	75	68
80.7505	81.1279	80	80
81.1279	81.8402	51	73
81.1279	81.9179	83	88
81.399	81.7525	79	61
81.399	81.7525	82	88
81.4893	81.9179	58	57
81.4893	81.9179	63	57
81.4893	81.9179	67	68
81.4893	81.9179	77	61
81.7525	81.9179	79	61
81.7525	82.1287	82	88
81.8402	82.2248	51	68
81.8402	82.2248	75	80
82.2248	83.3642	39	73
82.2248	83.3642	87	88
82.2248	83.3642	99	93
82.6094	83.3642	58	54
82.6094	82.9868	63	54
82.6094	83.3642	67	64
82.6094	83.3642	70	68
82.6094	82.9868	75	68
82.6094	83.3642	79	80
82.9868	83.3642	59	64
82.9868	83.3642	63	64
82.9868	83.3642	68	64
82.9868	83.3642	71	68
82.9868	83.3642	75	68
82.9868	83.3642	80	80
83.3642	84.1017	51	73
83.3642	84.1794	83	87
83.6446	84.0107	79	61
83.6446	84.0107	82	88
83.738	84.1794	61	57
83.738	84.1794	67	57
83.738	84.1794	70	68
83.738	84.1794	77	61
84.0107	84.1794	79	61
84.0107	84.3901	82	88
84.1017	84.4863	51	68
84.1017	85.627	76	80
84.4863	85.2873	39	73
84.8709	85.2873	61	65
84.8709	85.2873	70	68
84.8709	85.2873	79	80
85.2424	85.627	62	57
85.2424	85.627	71	65
85.2424	85.627	80	77
85.627	86.005	63	59
85.627	87.965	70	65
85.627	86.005	75	65
85.627	86.005	79	77
86.005	86.3905	64	57
86.005	87.5736	73	62
86.005	86.3905	78	74
86.3905	86.784	65	54
86.3905	86.784	77	71
86.784	87.1827	66	52
86.784	87.965	76	69
87.1827	87.5247	54	59
87.5247	87.5736	57	60
87.5736	87.965	55	68
87.965	88.3696	54	62
88.3696	88.7899	49	55
88.7899	89.227	50	54
89.227	90.7231	47	50
89.227	90.2341	78	55
89.477	90.7231	83	50
89.727	90.2341	55	34
89.727	90.2341	59	34
89.727	90.2341	64	40
89.727	89.8652	79	50
89.7961	90.7231	81	50
89.8652	90.7231	79	57
90.2341	90.7231	55	33
90.2341	90.7231	59	33
90.2341	90.7231	64	39
90.2341	90.7231	78	53
90.4731	90.7231	76	50
90.7231	92.1907	47	50
90.7231	92.1907	78	55
90.9754	92.1907	71	50
91.2254	91.7088	54	26
91.2254	91.7088	59	26
91.2254	91.7088	62	31
91.7088	92.1907	54	26
91.7088	92.1907	59	26
91.7088	92.1907	62	31
92.1907	93.6858	47	50
92.1907	93.1968	73	58
92.4407	92.7608	76	50
92.6907	93.1968	54	34
92.6907	93.1968	58	34
92.6907	93.1968	64	40
92.6907	92.8309	74	50
92.7608	93.6858	76	50
92.8309	93.6858	74	57
93.1968	93.6858	54	33
93.1968	93.6858	58	33
93.1968	93.6858	64	39
93.1968	93.6858	73	53
93.6858	95.1677	47	50
93.6858	95.1677	74	55
93.9381	95.1677	71	50
94.1881	94.6779	54	26
94.1881	94.6779	59	26
94.1881	94.6779	62	31
94.6779	95.1677	54	26
94.6779	95.1677	59	26
94.6779	95.1677	62	31
95.1677	95.6933	37	50
95.1677	95.6933	73	58
95.4177	95.6933	71	50
95.6677	96.1814	49	34
95.6677	96.1814	53	34
95.6677	96.1814	59	40
95.6677	95.7408	69	46
95.7408	96.6704	71	47
95.814	96.6704	69	55
96.1814	96.6704	49	33
96.1814	96.6704	53	33
96.1814	96.6704	59	39
96.1814	96.6704	68	53
96.6704	97.7008	42	50
96.6704	97.7008	69	55
96.9227	97.7008	73	50
97.1727	97.7008	49	31
97.1727	97.7008	57	37
97.6727	98.3955	61	68
98.3955	98.6437	59	60
98.6437	98.7021	57	57
98.7021	98.7604	59	57
98.7604	99.1106	57	68
99.1106	99.5964	56	67
99.5964	100.062	57	71
100.062	101.007	61	67
101.007	102.416	49	47
101.007	101.48	56	58
101.007	101.48	59	71
101.48	101.943	54	55
101.48	101.943	57	68
101.943	102.416	57	55
101.943	102.416	61	68
102.416	103.829	49	47
102.416	102.661	56	57
102.416	102.483	59	63
102.483	102.549	61	63
102.549	102.661	59	73
102.661	102.884	54	51
102.661	102.884	57	66
102.884	103.357	57	56
102.884	103.357	61	72
103.357	103.829	57	54
103.357	103.829	61	68
103.829	105.226	49	47
103.829	104.29	56	57
103.829	103.896	59	61
103.896	103.962	61	61
103.962	104.29	59	72
104.29	104.754	54	56
104.29	104.754	58	72
104.754	105.226	58	54
104.754	105.226	61	68
105.226	105.703	49	47
105.226	105.474	56	57
105.226	105.293	59	62
105.293	105.359	61	63
105.359	105.474	59	73
105.474	106.188	54	51
105.474	105.703	58	66
105.703	106.676	42	47
105.703	106.188	66	72
106.176	107.683	78	58
106.676	108.172	47	50
106.926	108.172	83	50
107.176	107.683	55	34
107.176	107.683	59	34
107.176	107.683	64	40
107.176	107.315	79	50
107.245	108.172	81	50
107.315	108.172	79	57
107.683	108.172	55	33
107.683	108.172	59	33
107.683	108.172	64	39
107.683	108.172	78	53
107.922	108.172	76	50
108.172	109.675	47	50
108.172	109.675	78	55
108.425	109.675	71	50
108.675	109.175	54	26
108.675	109.175	59	26
108.675	109.175	62	31
109.175	109.675	54	26
109.175	109.675	59	26
109.175	109.675	62	31
109.675	111.17	47	50
109.675	110.681	73	58
109.925	110.245	76	50
110.175	110.681	54	34
110.175	110.681	58	34
110.175	110.681	64	40
110.175	110.315	74	50
110.245	111.17	76	50
110.315	111.17	74	57
110.681	111.17	54	33
110.681	111.17	58	33
110.681	111.17	64	39
110.681	111.17	73	53
111.17	112.105	47	50
111.17	112.105	74	55
111.422	112.162	71	50
111.672	112.162	54	26
111.672	112.162	59	26
111.672	112.162	62	31
112.162	112.871	50	66
112.634	113.107	59	38
112.634	113.107	65	43
112.871	113.107	55	58
113.107	113.251	52	65
113.107	113.54	60	34
113.107	113.54	64	38
113.251	113.396	53	57
113.396	113.54	52	55
113.54	113.776	50	63
113.54	114.012	60	34
113.54	114.012	64	38
113.776	114.012	48	57
114.012	114.37	50	64
114.012	114.489	55	41
114.012	114.489	59	41
114.012	114.489	65	46
114.37	114.489	43	55
114.489	114.965	50	64
114.489	114.965	55	34
114.489	114.965	59	34
114.489	114.965	65	38
114.965	115.441	48	59
114.965	115.441	60	34
114.965	115.441	64	38
115.441	115.677	50	66
115.441	115.913	59	38
115.441	115.913	65	43
115.677	115.913	55	58
115.913	116.058	52	65
115.913	116.347	60	34
115.913	116.347	64	38
116.058	116.202	53	57
116.202	116.347	52	55
116.347	116.583	50	63
116.347	116.819	60	34
116.347	116.819	64	38
116.583	116.819	48	57
116.819	117.176	50	64
116.819	117.295	55	41
116.819	117.295	59	41
116.819	117.295	65	46
117.176	117.295	43	54
117.295	117.771	50	62
117.295	117.771	55	33
117.295	117.771	59	33
117.295	117.771	65	37
117.771	118.248	48	56
117.771	118.248	60	32
117.771	118.248	64	36
118.248	118.587	50	60
118.248	118.7	55	38
118.248	118.7	59	38
118.248	118.7	65	43
118.587	118.7	43	51
118.7	119.188	48	58
118.7	119.188	60	31
118.7	119.188	64	34
119.188	119.538	50	57
119.188	119.655	55	36
119.188	119.655	59	36
119.188	119.655	65	41
119.538	119.655	43	48
119.655	120.149	48	56
119.655	120.149	60	29
119.655	120.149	64	29
120.149	120.502	50	55
120.149	120.62	55	35
120.149	120.62	59	35
120.149	120.62	65	39
120.502	120.62	43	46
120.62	121.122	48	53
120.62	121.122	60	28
120.62	121.122	64	31
121.122	122.628	43	52
121.122	122.628	55	52
122.628	124.134	42	48
122.628	124.134	54	48
124.134	125.63	35	46
124.134	125.63	47	50
124.134	125.141	78	55
124.384	125.63	83	50
124.634	125.141	55	34
124.634	125.141	59	34
124.634	125.141	64	40
124.634	124.772	79	50
124.703	125.63	81	50
124.772	125.63	79	57
125.141	125.63	55	33
125.141	125.63	59	33
125.141	125.63	64	39
125.141	125.63	78	53
125.38	125.63	76	50
125.63	127.133	47	50
125.63	127.133	78	55
125.883	127.133	71	50
126.133	126.633	54	26
126.133	126.633	59	26
126.133	126.633	62	31
126.633	127.133	54	26
126.633	127.133	59	26
126.633	127.133	62	31
127.133	128.628	47	50
127.133	128.139	73	58
127.383	127.703	76	50
127.633	128.139	54	34
127.633	128.139	58	34
127.633	128.139	64	40
127.633	127.773	74	50
127.703	128.628	76	50
127.773	128.628	74	57
128.139	128.628	54	33
128.139	128.628	58	33
128.139	128.628	64	39
128.139	128.628	73	53
128.628	130.13	47	50
128.628	130.13	74	55
128.88	130.13	71	50
129.13	129.63	54	26
129.13	129.63	59	26
129.13	129.63	62	31
129.63	130.13	54	26
129.63	130.13	59	26
129.63	130.13	62	31
130.13	130.656	37	50
130.13	130.656	73	58
130.38	130.656	71	50
130.63	131.144	49	34
130.63	131.144	53	34
130.63	131.144	59	40
130.63	130.703	69	46
130.703	131.633	71	47
130.776	131.633	69	55
131.144	131.633	49	33
131.144	131.633	53	33
131.144	131.633	59	39
131.144	131.633	68	53
131.633	132.663	42	50
131.633	132.663	69	55
131.885	132.663	73	50
132.135	132.663	49	31
132.135	132.663	57	37
132.635	133.361	61	68
133.361	133.609	59	60
133.609	133.668	57	57
133.668	133.727	59	57
133.727	134.081	57	68
134.081	134.563	56	67
134.563	135.027	57	71
135.027	135.972	61	67
135.972	137.38	49	47
135.972	136.445	56	58
135.972	136.445	59	71
136.445	136.908	54	55
136.445	136.908	57	68
136.908	137.38	57	55
136.908	137.38	61	68
137.38	138.783	49	47
137.38	137.622	56	57
137.38	137.447	59	63
137.447	137.514	61	63
137.514	137.622	59	73
137.622	137.837	54	51
137.622	137.837	57	66
137.837	138.31	57	56
137.837	138.31	61	72
138.31	138.783	57	54
138.31	138.783	61	68
138.783	140.181	49	47
138.783	139.245	56	57
138.783	138.849	59	61
138.849	138.915	61	61
138.915	139.245	59	72
139.245	139.708	54	56
139.245	139.708	58	72
139.708	140.181	58	54
139.708	140.181	61	68
140.181	140.658	49	47
140.181	140.428	56	57
140.181	140.247	59	62
140.247	140.313	61	63
140.313	140.428	59	73
140.428	141.142	54	51
140.428	140.658	58	66
140.658	141.63	42	47
140.658	141.142	66	72
141.13	142.637	78	58
141.63	143.127	47	50
141.88	143.127	83	50
142.13	142.637	55	34
142.13	142.637	59	34
142.13	142.637	64	40
142.13	142.269	79	50
142.2	143.127	81	50
142.269	143.127	79	57
142.637	143.127	55	33
142.637	143.127	59	33
142.637	143.127	64	39
142.637	143.127	78	53
142.877	143.127	76	50
143.127	144.608	47	50
143.127	144.608	78	55
143.379	144.608	71	50
143.629	144.119	54	26
143.629	144.119	59	26
143.629	144.119	62	31
144.119	144.608	54	26
144.119	144.608	59	26
144.119	144.608	62	31
144.608	146.103	47	50
144.608	145.614	73	58
144.858	145.178	76	50
145.108	145.614	54	34
145.108	145.614	58	34
145.108	145.614	64	40
145.108	145.249	74	50
145.178	146.103	76	50
145.249	146.103	74	57
145.614	146.103	54	33
145.614	146.103	58	33
145.614	146.103	64	39
145.614	146.103	73	53
146.103	147.038	47	50
146.103	147.038	74	55
146.356	147.096	71	50
146.606	147.096	54	26
146.606	147.096	59	26
146.606	147.096	62	31
147.096	147.804	50	66
147.568	148.04	59	38
147.568	148.04	65	43
147.804	148.04	55	58
148.04	148.185	52	65
148.04	148.474	60	34
148.04	148.474	64	38
148.185	148.329	53	57
148.329	148.474	52	55
148.474	148.71	50	63
148.474	148.946	60	34
148.474	148.946	64	38
148.71	148.946	48	57
148.946	149.303	50	64
148.946	149.422	55	41
148.946	149.422	59	41
148.946	149.422	65	46
149.303	149.422	43	55
149.422	149.898	50	64
149.422	149.898	55	34
149.422	149.898	59	34
149.422	149.898	65	38
149.898	150.375	48	59
149.898	150.375	60	34
149.898	150.375	64	38
150.375	150.611	50	66
150.375	150.847	59	38
150.375	150.847	65	43
150.611	150.847	55	58
150.847	150.992	52	65
150.847	151.28	60	34
150.847	151.28	64	38
150.992	151.136	53	57
151.136	151.28	52	55
151.28	151.517	50	63
151.28	151.753	60	34
151.28	151.753	64	38
151.517	151.753	48	57
151.753	152.11	50	64
151.753	152.229	55	41
151.753	152.229	59	41
151.753	152.229	65	46
152.11	152.229	43	54
152.229	152.705	50	62
152.229	152.705	55	33
152.229	152.705	59	33
152.229	152.705	65	37
152.705	153.181	48	56
152.705	153.181	60	32
152.705	153.181	64	36
153.181	153.521	50	60
153.181	153.634	55	38
153.181	153.634	59	38
153.181	153.634	65	43
153.521	153.634	43	51
153.634	154.122	48	58
153.634	154.122	60	31
153.634	154.122	64	34
154.122	154.472	50	57
154.122	154.589	55	36
154.122	154.589	59	36
154.122	154.589	65	41
154.472	154.589	43	48
154.589	155.083	48	56
154.589	155.083	60	29
154.589	155.083	64	29
155.083	155.436	50	55
155.083	155.553	55	35
155.083	155.553	59	35
155.083	155.553	65	39
155.436	155.553	43	46
155.553	156.055	48	53
155.553	156.055	60	28
155.553	156.055	64	31
156.055	157.562	43	52
156.055	157.562	55	52
157.562	158.592	42	60
157.562	158.592	54	59
158.592	159.174	41	66
158.592	159.174	53	62
159.174	160.329	34	74
159.574	160.329	53	54
159.574	159.952	58	54
159.574	160.329	62	64
159.574	160.329	65	68
159.574	159.952	70	68
159.574	160.329	74	80
159.952	160.329	54	64
159.952	160.329	58	64
159.952	160.329	63	64
159.952	160.329	66	68
159.952	160.329	70	68
159.952	160.329	75	80
160.329	161.114	46	73
160.329	161.114	78	86
160.6	160.949	74	61
160.6	160.949	77	80
160.686	161.421	58	57
160.686	161.421	62	57
160.686	161.421	65	68
160.686	161.114	72	61
160.949	161.114	74	61
160.949	161.325	77	80
161.036	161.421	53	68
161.036	161.421	70	80
161.421	162.56	34	72
161.421	162.56	82	85
161.805	162.56	53	54
161.805	162.183	58	54
161.805	162.56	62	64
161.805	162.56	65	68
161.805	162.183	70	68
161.805	162.56	74	80
162.183	162.56	54	64
162.183	162.56	58	64
162.183	162.56	63	64
162.183	162.56	66	68
162.183	162.56	70	68
162.183	162.56	75	80
162.56	163.347	46	73
162.56	163.347	78	86
162.831	163.181	74	61
162.831	163.181	77	80
162.917	163.654	58	57
162.917	163.654	62	57
162.917	163.654	65	68
162.917	163.347	72	61
163.181	163.347	74	61
163.181	163.558	77	80
163.269	163.654	53	68
163.269	163.654	70	80
163.654	164.809	34	79
164.054	164.809	53	54
164.054	164.431	58	54
164.054	164.809	62	64
164.054	164.809	65	68
164.054	164.431	70	68
164.054	164.809	74	80
164.431	164.809	54	64
164.431	164.809	58	64
164.431	164.809	63	64
164.431	164.809	66	68
164.431	164.809	70	68
164.431	164.809	75	80
164.809	165.589	46	73
164.809	165.589	78	86
165.08	165.425	74	61
165.08	165.425	77	80
165.164	165.896	58	57
165.164	165.896	62	57
165.164	165.896	65	68
165.164	165.589	72	61
165.425	165.589	74	61
165.425	165.8	77	80
165.511	165.896	53	68
165.511	165.896	70	80
165.896	167.035	34	69
165.896	167.035	46	72
165.896	167.035	82	80
165.896	167.035	94	85
166.281	167.035	53	54
166.281	166.658	58	54
166.281	167.035	62	64
166.281	167.035	65	68
166.281	166.658	70	68
166.281	167.035	74	80
166.658	167.035	54	64
166.658	167.035	58	64
166.658	167.035	63	64
166.658	167.035	66	68
166.658	167.035	70	68
166.658	167.035	75	80
167.035	167.819	46	73
167.035	167.819	78	86
167.307	167.653	74	61
167.307	167.653	77	80
167.391	168.126	58	57
167.391	168.126	62	57
167.391	168.126	65	68
167.391	167.819	72	61
167.653	167.819	74	61
167.653	168.029	77	80
167.741	168.126	53	68
167.741	168.126	70	80
168.126	169.28	39	81
168.526	169.28	58	54
168.526	168.903	63	54
168.526	169.28	67	64
168.526	169.28	70	68
168.526	168.903	75	68
168.526	169.28	79	80
168.903	169.28	59	64
168.903	169.28	63	64
168.903	169.28	68	64
168.903	169.28	71	68
168.903	169.28	75	68
168.903	169.28	80	80
169.28	169.993	51	73
169.28	170.07	83	88
169.551	169.905	79	61
169.551	169.905	82	88
169.642	170.07	58	57
169.642	170.07	63	57
169.642	170.07	67	68
169.642	170.07	77	61
169.905	170.07	79	61
169.905	170.281	82	88
169.993	170.377	51	68
169.993	170.377	75	80
170.377	171.517	39	73
170.377	171.517	87	88
170.377	171.517	99	93
170.762	171.517	58	54
170.762	171.139	63	54
170.762	171.517	67	64
170.762	171.517	70	68
170.762	171.139	75	68
170.762	171.517	79	80
171.139	171.517	59	64
171.139	171.517	63	64
171.139	171.517	68	64
171.139	171.517	71	68
171.139	171.517	75	68
171.139	171.517	80	80
171.517	172.254	51	73
171.517	172.332	83	87
171.797	172.163	79	61
171.797	172.163	82	88
171.89	172.332	61	57
171.89	172.332	67	57
171.89	172.332	70	68
171.89	172.332	77	61
172.163	172.332	79	61
172.163	172.542	82	88
172.254	172.639	51	68
172.254	173.779	76	80
172.639	173.44	39	73
173.023	173.44	61	65
173.023	173.44	70	68
173.023	173.44	79	80
173.395	173.779	62	57
173.395	173.779	71	65
173.395	173.779	80	77
173.779	174.157	63	59
173.779	176.118	70	65
173.779	174.157	75	65
173.779	174.157	79	77
174.157	174.543	64	57
174.157	176.118	73	62
174.157	174.543	78	74
174.543	174.936	65	54
174.543	174.936	77	71
174.936	175.335	66	52
174.936	176.118	76	69
175.335	175.677	54	59
175.677	175.726	58	60
175.726	176.118	56	68
176.118	176.523	54	63
176.523	176.938	49	56
176.938	177.363	54	53
177.363	178.853	47	50
177.363	178.853	75	59
177.61	178.853	76	61
177.857	178.853	54	36
177.857	178.853	59	36
177.857	178.345	63	43
177.857	178.853	77	63
178.345	178.853	63	36
178.345	178.853	71	43
178.345	178.853	78	66
178.853	179.439	40	53
178.853	179.439	79	69
179.23	179.439	80	64
179.355	180.362	59	37
179.355	180.362	61	37
179.355	180.362	64	37
179.355	180.362	68	44
179.355	180.362	76	69
180.107	180.362	75	67
180.362	181.882	42	50
180.362	180.674	75	71
180.61	180.739	73	59
180.674	181.882	75	60
180.739	181.358	73	69
180.863	181.358	54	36
180.863	181.358	58	36
180.863	181.358	64	43
180.863	181.882	72	67
181.358	181.882	54	38
181.358	181.882	58	38
181.358	181.882	64	45
181.358	181.882	73	70
181.882	183.389	43	54
181.882	183.389	76	71
182.389	182.881	51	39
182.389	182.881	58	39
182.389	182.881	63	47
182.881	183.389	51	37
182.881	183.389	58	37
182.881	183.389	63	44
182.881	183.389	75	64
183.389	184.91	44	50
183.389	184.91	71	58
183.643	184.91	73	60
183.897	184.395	51	36
183.897	184.395	56	36
183.897	184.395	59	43
183.897	184.91	74	63
184.395	184.91	51	36
184.395	184.91	56	36
184.395	184.91	59	43
184.395	184.91	75	67
184.91	186.123	37	53
184.91	186.123	78	69
185.168	186.123	76	64
185.425	186.123	56	38
185.425	186.123	61	38
185.425	186.123	64	45
185.425	186.123	73	70
185.93	186.065	68	56
185.997	186.123	70	56
186.065	186.44	68	64
186.44	187.514	50	50
186.44	187.514	67	64
186.828	187.514	68	61
186.957	187.462	56	37
186.957	187.514	59	37
186.957	187.462	65	44
186.957	187.514	71	64
187.462	187.977	56	37
187.462	187.977	58	37
187.462	187.977	65	44
187.462	187.977	70	64
187.977	189.544	51	55
187.977	189.544	67	69
188.492	189.544	55	39
188.492	189.018	58	39
188.492	189.544	63	47
189.018	189.544	49	39
189.018	189.544	54	39
189.018	189.544	58	39
189.018	189.544	64	47
189.018	189.544	66	64
189.544	191.045	47	50
189.544	191.045	75	59
189.791	191.045	76	61
190.038	191.045	54	36
190.038	191.045	59	36
190.038	191.045	63	43
190.038	191.045	78	63
190.526	191.045	87	69
191.045	192.554	40	51
191.045	192.554	85	69
191.296	192.554	83	64
191.547	192.554	59	37
191.547	192.554	61	37
191.547	192.554	64	37
191.547	192.554	68	44
191.547	192.554	80	69
192.043	192.554	76	67
192.554	194.075	42	50
192.554	192.866	75	71
192.802	192.931	73	59
192.866	194.075	75	60
192.931	193.551	73	69
193.055	193.551	54	36
193.055	193.551	58	36
193.055	193.551	64	43
193.055	194.075	72	67
193.551	194.075	54	38
193.551	194.075	58	38
193.551	194.075	64	45
193.551	194.075	73	70
194.075	195.597	43	54
194.075	195.597	76	71
194.581	195.073	51	39
194.581	195.073	58	39
194.581	195.073	63	47
195.073	195.597	51	37
195.073	195.597	58	37
195.073	195.597	63	44
195.073	195.597	75	64
195.597	197.116	44	55
195.597	196.352	75	67
196.103	197.116	53	36
196.103	197.116	56	36
196.103	197.116	59	36
196.103	197.116	63	43
196.352	196.476	75	56
196.414	197.116	77	56
196.476	197.116	75	63
196.601	197.116	73	65
196.858	197.116	71	62
197.116	198.327	46	53
197.116	198.327	70	69
197.373	198.327	75	64
197.631	198.135	54	38
197.631	198.135	58	38
197.631	198.135	63	45
197.631	198.327	78	70
198.135	198.649	54	38
198.135	198.649	58	38
198.135	198.649	63	45
198.135	198.649	83	69
198.649	199.723	46	50
198.649	199.723	82	71
198.908	199.723	77	61
199.166	199.671	56	37
199.166	199.671	58	37
199.166	199.723	62	44
199.166	199.928	80	70
199.671	200.186	56	37
199.671	200.186	58	37
199.671	200.186	65	44
199.928	200.186	78	67
200.186	201.274	51	55
200.186	201.274	75	71
200.701	201.235	54	29
200.701	201.235	58	33
200.701	201.274	63	39
200.701	201.274	66	70
200.964	201.274	78	69
201.235	201.778	49	23
201.235	201.778	54	28
201.235	201.778	58	30
201.235	201.778	64	35
201.235	201.778	77	68
201.507	201.778	76	65
201.778	203.268	47	50
201.778	203.268	75	59
202.025	203.268	76	61
202.272	203.268	57	36
202.272	202.76	59	36
202.272	202.76	63	43
202.272	203.268	77	63
202.76	203.268	59	36
202.76	203.268	63	36
202.76	203.268	69	43
202.76	203.268	78	66
203.268	203.854	40	53
203.268	203.854	79	69
203.645	203.854	80	64
203.77	204.777	59	37
203.77	204.777	61	37
203.77	204.777	64	37
203.77	204.777	68	44
203.77	204.777	76	69
204.522	204.777	75	67
204.777	206.316	42	50
204.777	205.089	75	71
205.025	205.154	73	59
205.089	206.316	75	60
205.154	205.773	73	69
205.278	205.773	54	36
205.278	205.773	58	36
205.278	205.773	64	43
205.278	206.316	72	67
205.773	206.316	54	38
205.773	206.316	58	38
205.773	206.316	64	45
205.773	206.316	73	70
206.316	207.822	43	54
206.316	207.822	76	71
206.822	207.314	51	39
206.822	207.314	58	39
206.822	207.314	63	47
207.314	207.822	51	37
207.314	207.822	58	37
207.314	207.822	63	44
207.314	207.822	75	64
207.822	209.344	44	50
207.822	209.344	71	58
208.077	209.344	73	60
208.331	208.829	51	36
208.331	208.829	56	36
208.331	208.829	59	43
208.331	209.344	74	63
208.829	209.344	51	36
208.829	209.344	56	36
208.829	209.344	59	43
208.829	209.344	75	67
209.344	210.557	37	53
209.344	210.557	78	69
209.601	210.557	76	64
209.859	210.557	56	38
209.859	210.557	61	38
209.859	210.557	64	45
209.859	210.557	73	70
210.363	210.498	68	56
210.431	210.557	70	56
210.498	210.874	68	64
210.874	211.948	50	50
210.874	211.948	67	64
211.261	211.948	68	61
211.391	211.895	56	37
211.391	211.948	59	37
211.391	211.895	65	44
211.391	211.948	71	64
211.895	212.41	56	37
211.895	212.41	58	37
211.895	212.41	65	44
211.895	212.41	70	64
212.41	213.978	51	55
212.41	213.978	67	69
212.925	213.978	55	39
212.925	213.451	58	39
212.925	213.978	63	47
213.451	213.978	49	34
213.451	213.978	54	35
213.451	213.978	58	39
213.451	213.978	64	47
213.451	213.978	66	64
213.978	215.493	47	50
213.978	215.493	75	59
214.225	215.493	76	61
214.472	215.493	54	36
214.472	215.493	59	36
214.472	215.493	63	43
214.472	215.493	78	63
214.959	215.493	87	69
215.493	217.001	40	51
215.493	217.001	85	69
215.744	217.001	83	64
215.995	217.001	59	37
215.995	217.001	61	37
215.995	217.001	64	37
215.995	217.001	68	44
215.995	217.001	80	69
216.491	217.001	76	67
217.001	218.529	42	50
217.001	217.314	75	71
217.249	217.378	73	59
217.314	218.529	75	60
217.378	217.998	73	69
217.502	217.998	54	36
217.502	217.998	58	36
217.502	217.998	64	43
217.502	218.529	72	67
217.998	218.529	54	38
217.998	218.529	58	38
217.998	218.529	64	45
217.998	218.529	73	70
218.529	220.051	43	54
218.529	220.051	76	71
219.035	219.527	51	39
219.035	219.527	58	39
219.035	219.527	63	47
219.527	220.051	51	37
219.527	220.051	58	37
219.527	220.051	63	44
219.527	220.051	75	64
220.051	221.57	44	55
220.051	220.806	75	67
220.557	221.57	53	36
220.557	221.57	56	36
220.557	221.57	59	36
220.557	221.57	63	43
220.806	220.931	75	56
220.868	221.57	77	56
220.931	221.57	75	63
221.055	221.57	73	65
221.313	221.57	71	62
221.57	222.781	46	53
221.57	222.781	70	69
221.828	222.781	75	64
222.085	222.589	54	38
222.085	222.589	58	38
222.085	222.589	63	45
222.085	222.781	78	70
222.589	223.103	54	38
222.589	223.103	58	38
222.589	223.103	63	45
222.589	223.103	83	69
223.103	224.177	46	50
223.103	224.177	82	71
223.362	224.177	77	61
223.621	224.125	56	37
223.621	224.125	58	37
223.621	224.177	62	44
223.621	224.382	80	70
224.125	224.64	56	37
224.125	224.64	58	37
224.125	224.64	65	44
224.382	224.64	78	67
224.64	226.173	51	55
224.64	226.173	75	71
225.155	225.689	54	29
225.155	225.689	58	33
225.155	226.173	63	39
225.689	226.173	54	36
225.689	226.173	58	42
225.689	226.173	66	50
225.689	226.173	78	75
226.173	227.014	70	54
226.173	226.586	76	64
226.173	227.063	80	69
226.173	227.063	92	82
226.487	227.063	66	60
226.487	227.063	78	65
226.487	227.063	90	77
226.586	227.063	54	58
226.586	227.063	76	64
226.586	227.063	88	76
227.014	227.435	42	60
227.014	227.435	64	63
227.014	227.435	70	75
227.435	228.287	47	68
227.435	227.844	63	64
227.435	227.844	71	76
227.744	228.287	54	59
227.744	228.287	66	62
227.744	228.287	73	73
227.844	228.287	59	56
227.844	228.287	63	66
227.844	228.256	71	68
227.844	228.256	75	81
228.256	228.677	71	51
228.256	228.677	75	60
228.256	228.677	78	65
228.256	228.677	90	77
228.677	229.498	70	54
228.677	229.085	76	64
228.677	229.547	80	69
228.677	229.547	92	82
228.987	229.547	66	60
228.987	229.547	78	65
228.987	229.547	90	77
229.085	229.547	54	58
229.085	229.547	76	64
229.085	229.547	88	76
229.498	229.92	42	60
229.498	229.92	64	63
229.498	229.92	70	75
229.92	230.793	47	68
229.92	230.329	63	64
229.92	230.329	71	76
230.229	230.793	54	59
230.229	230.793	66	62
230.229	230.793	73	73
230.329	230.793	59	56
230.329	230.793	63	66
230.329	230.793	71	68
230.329	230.762	75	81
230.762	231.184	75	65
230.762	231.184	78	77
231.184	232.023	52	68
231.184	232.023	85	69
231.184	232.023	88	81
231.495	231.894	73	62
231.495	231.894	78	62
231.495	231.894	82	73
231.59	231.991	64	56
231.59	231.991	68	66
231.59	231.991	76	66
231.59	231.991	80	73
231.894	232.023	73	62
231.894	232.023	78	62
231.894	232.023	82	73
231.991	232.419	64	55
231.991	232.419	68	65
231.991	232.419	76	65
231.991	232.419	80	77
232.419	233.26	42	68
232.419	233.26	83	69
232.419	233.26	87	81
232.73	233.132	71	62
232.73	233.132	76	62
232.73	233.132	80	73
232.826	233.229	63	56
232.826	233.229	66	66
232.826	233.229	75	66
232.826	233.229	78	73
233.132	233.26	71	62
233.132	233.26	76	62
233.132	233.26	80	73
233.229	233.653	63	55
233.229	233.653	66	65
233.229	233.653	75	65
233.229	233.653	78	77
233.653	234.513	42	68
233.653	234.513	82	69
233.653	234.513	85	81
233.964	234.379	70	62
233.964	234.379	75	62
233.964	234.379	78	73
234.063	234.479	61	56
234.063	234.479	64	66
234.063	234.479	73	66
234.063	234.479	76	73
234.379	234.513	70	62
234.379	234.513	75	62
234.379	234.513	78	73
234.479	234.948	61	55
234.479	234.948	64	65
234.479	234.948	73	65
234.479	234.948	76	77
234.948	235.464	47	61
234.948	235.464	71	58
234.948	235.464	75	69
235.29	235.464	73	52
235.29	235.464	76	62
235.421	236.397	59	46
235.421	235.909	65	55
235.421	235.909	74	56
235.421	235.909	80	67
235.909	236.397	66	50
235.909	236.397	75	50
235.909	236.397	78	59
236.397	237.238	70	54
236.397	236.809	76	64
236.397	237.287	80	69
236.397	237.287	92	82
236.711	237.287	66	60
236.711	237.287	78	65
236.711	237.287	90	77
236.809	237.287	54	58
236.809	237.287	76	64
236.809	237.287	88	76
237.238	237.659	42	60
237.238	237.659	64	63
237.238	237.659	70	75
237.659	238.53	47	68
237.659	238.068	63	64
237.659	238.068	71	76
237.968	238.53	54	59
237.968	238.53	66	62
237.968	238.53	73	73
238.068	238.53	59	56
238.068	238.53	63	66
238.068	238.499	71	68
238.068	238.499	75	81
238.499	238.92	71	51
238.499	238.92	75	60
238.499	238.92	78	65
238.499	238.92	90	77
238.92	239.742	70	54
238.92	239.328	76	64
238.92	239.791	80	69
238.92	239.791	92	82
239.23	239.791	66	60
239.23	239.791	78	65
239.23	239.791	90	77
239.328	239.791	54	58
239.328	239.791	76	64
239.328	239.791	88	76
239.742	240.165	42	60
239.742	240.165	64	63
239.742	240.165	70	75
240.165	241.037	47	68
240.165	240.573	63	64
240.165	240.573	71	76
240.474	241.037	54	59
240.474	241.037	66	62
240.474	241.037	73	73
240.573	241.037	59	56
240.573	241.037	63	66
240.573	241.037	71	68
240.573	241.006	75	81
241.006	241.429	75	65
241.006	241.429	78	77
241.429	242.267	52	68
241.429	242.267	85	69
241.429	242.267	88	81
241.739	242.139	73	62
241.739	242.139	78	62
241.739	242.139	82	73
241.834	242.236	64	56
241.834	242.236	68	66
241.834	242.236	76	66
241.834	242.236	80	73
242.139	242.267	73	62
242.139	242.267	78	62
242.139	242.267	82	73
242.236	242.663	64	55
242.236	242.663	68	65
242.236	242.663	76	65
242.236	242.663	80	77
242.663	243.505	42	68
242.663	243.505	83	69
242.663	243.505	87	81
242.974	243.376	71	62
242.974	243.376	76	62
242.974	243.376	80	73
243.07	243.474	63	56
243.07	243.474	66	66
243.07	243.474	75	66
243.07	243.474	78	73
243.376	243.505	71	62
243.376	243.505	76	62
243.376	243.505	80	73
243.474	243.898	63	55
243.474	243.898	66	65
243.474	243.898	75	65
243.474	243.898	78	77
243.898	244.755	42	68
243.898	244.755	82	69
243.898	244.755	85	81
244.208	244.623	70	62
244.208	244.623	75	62
244.208	244.623	78	73
244.307	244.723	61	56
244.307	244.723	64	66
244.307	244.723	73	66
244.307	244.723	76	73
244.623	244.755	70	62
244.623	244.755	75	62
244.623	244.755	78	73
244.723	245.161	61	55
244.723	245.161	64	65
244.723	245.161	73	65
244.723	245.161	76	77
245.5	245.599	56	41
245.599	245.931	54	47
245.931	246.03	56	41
246.03	246.487	54	46
246.487	246.796	56	44
246.796	246.895	54	37
246.895	247.326	52	44
247.326	247.749	42	38
247.749	248.059	47	44
248.059	248.157	49	41
248.157	248.566	51	45
248.566	248.979	54	44
248.979	249.293	56	46
249.293	249.392	54	42
249.392	249.816	52	45
249.816	250.231	42	39
250.231	250.542	47	44
250.542	250.64	49	41
250.64	251.049	51	45
251.049	251.461	54	44
251.461	252.695	64	49
251.771	251.867	58	41
251.867	252.171	56	44
252.171	252.268	58	41
252.268	252.695	56	45
252.695	253.929	63	49
253.005	253.101	56	41
253.101	253.405	54	44
253.405	253.502	56	41
253.502	253.929	54	45
253.929	255.163	61	49
254.24	254.335	54	41
254.335	254.639	52	44
254.639	254.736	54	41
254.736	255.163	52	45
255.163	255.506	51	44
255.506	255.637	52	41
255.637	256.125	56	45
256.125	256.613	54	44
256.613	256.979	56	46
256.979	257.077	54	42
257.077	257.501	52	45
257.501	257.916	42	39
257.916	258.227	47	44
258.227	258.325	49	41
258.325	258.734	51	45
258.734	259.178	54	44
259.178	259.546	55	43
259.546	259.651	54	39
259.651	260.089	52	42
260.089	260.511	42	36
260.511	260.852	47	41
260.852	260.958	49	38
260.958	261.402	50	41
261.402	261.847	54	40
261.847	262.075	55	42
262.075	262.303	54	38
262.303	262.741	52	41
262.741	263.208	43	35
263.208	263.436	55	41
263.436	263.664	54	37
263.664	264.102	52	40
264.102	264.578	44	34
264.578	264.928	55	40
264.928	265.045	54	36
265.045	265.5	52	39
265.5	265.983	45	34
265.983	266.352	55	40
266.352	266.475	54	36
266.475	266.95	52	39
266.95	267.471	46	33
267.471	268.972	47	42
267.471	268.483	78	46
267.723	268.972	83	42
267.975	268.483	55	28
267.975	268.483	59	28
267.975	268.483	64	34
267.975	268.114	79	42
268.045	268.972	81	42
268.114	268.972	79	48
268.483	268.972	55	28
268.483	268.972	59	28
268.483	268.972	64	33
268.483	268.972	78	45
268.722	268.972	76	42
268.972	270.474	47	42
268.972	270.474	78	46
269.224	270.474	71	42
269.474	269.974	54	22
269.474	269.974	59	22
269.474	269.974	62	26
269.974	270.474	54	22
269.974	270.474	59	22
269.974	270.474	62	26
270.474	271.969	47	42
270.474	271.48	73	49
270.724	271.044	76	42
270.974	271.48	54	28
270.974	271.48	58	28
270.974	271.48	64	34
270.974	271.114	74	42
271.044	271.969	76	42
271.114	271.969	74	48
271.48	271.969	54	28
271.48	271.969	58	28
271.48	271.969	64	33
271.48	271.969	73	45
271.969	273.471	47	42
271.969	273.471	74	46
272.221	273.471	71	42
272.471	272.971	54	22
272.471	272.971	59	22
272.471	272.971	62	26
272.971	273.471	54	22
272.971	273.471	59	22
272.971	273.471	62	26
273.471	273.997	37	47
273.471	273.997	73	55
273.721	273.997	71	47
273.971	274.485	49	32
273.971	274.485	53	32
273.971	274.485	59	38
273.971	274.044	69	43
274.044	274.974	71	44
274.118	274.974	69	52
274.485	274.974	49	31
274.485	274.974	53	31
274.485	274.974	59	37
274.485	274.974	68	50
274.974	276.004	42	47
274.974	276.004	69	52
275.226	276.004	73	47
275.476	276.004	49	29
275.476	276.004	57	35
275.976	276.699	61	68
276.699	276.947	59	60
276.947	277.005	57	57
277.005	277.064	59	57
277.064	277.415	57	68
277.415	277.907	56	67
277.907	278.369	57	71
278.369	279.315	61	67
279.315	280.694	49	47
279.315	279.778	56	58
279.315	279.778	59	71
279.778	280.227	54	55
279.778	280.227	57	68
280.227	280.694	57	55
280.227	280.694	61	68
280.694	282.103	49	47
280.694	280.938	56	57
280.694	280.761	59	63
280.761	280.827	61	63
280.827	280.938	59	73
280.938	281.156	54	51
280.938	281.156	57	66
281.156	281.63	57	56
281.156	281.63	61	72
281.63	282.103	57	54
281.63	282.103	61	68
282.103	283.5	49	47
282.103	282.563	56	57
282.103	282.169	59	61
282.169	282.235	61	61
282.235	282.563	59	72
282.563	283.027	54	56
282.563	283.027	58	72
283.027	283.5	58	54
283.027	283.5	61	68
283.5	283.977	49	47
283.5	283.747	56	57
283.5	283.566	59	62
283.566	283.633	61	63
283.633	283.747	59	73
283.747	284.462	54	51
283.747	283.977	58	66
283.977	284.95	42	47
283.977	284.462	66	72
284.45	285.958	78	58
284.95	286.447	47	50
285.2	286.447	83	50
285.45	285.958	55	34
285.45	285.958	59	34
285.45	285.958	64	40
285.45	285.589	79	50
285.52	286.447	81	50
285.589	286.447	79	57
285.958	286.447	55	33
285.958	286.447	59	33
285.958	286.447	64	39
285.958	286.447	78	53
286.197	286.447	76	50
286.447	287.927	47	50
286.447	287.927	78	55
286.699	287.927	71	50
286.949	287.427	54	26
286.949	287.427	59	26
286.949	287.427	62	31
287.427	287.927	54	26
287.427	287.927	59	26
287.427	287.927	62	31
287.927	289.422	47	50
287.927	288.933	73	58
288.177	288.497	76	50
288.427	288.933	54	34
288.427	288.933	58	34
288.427	288.933	64	40
288.427	288.567	74	50
288.497	289.422	76	50
288.567	289.422	74	57
288.933	289.422	54	33
288.933	289.422	58	33
288.933	289.422	64	39
288.933	289.422	73	53
289.422	290.352	47	50
289.422	290.352	74	55
289.674	290.408	71	50
289.924	290.408	54	26
289.924	290.408	59	26
289.924	290.408	62	31
290.408	291.117	50	66
290.881	291.353	59	38
290.881	291.353	65	43
291.117	291.353	55	58
291.353	291.497	52	65
291.353	291.786	60	34
291.353	291.786	64	38
291.497	291.642	53	57
291.642	291.786	52	55
291.786	292.022	50	63
291.786	292.259	60	34
291.786	292.259	64	38
292.022	292.259	48	57
292.259	292.616	50	64
292.259	292.735	55	41
292.259	292.735	59	41
292.259	292.735	65	46
292.616	292.735	43	55
292.735	293.211	50	64
292.735	293.211	55	34
292.735	293.211	59	34
292.735	293.211	65	38
293.211	293.674	48	59
293.211	293.674	60	34
293.211	293.674	64	38
293.674	293.906	50	66
293.674	294.137	59	38
293.674	294.137	65	43
293.906	294.137	55	58
294.137	294.281	52	65
294.137	294.57	60	34
294.137	294.57	64	38
294.281	294.426	53	57
294.426	294.57	52	55
294.57	294.806	50	63
294.57	295.043	60	34
294.57	295.043	64	38
294.806	295.043	48	57
295.043	295.4	50	64
295.043	295.519	55	41
295.043	295.519	59	41
295.043	295.519	65	46
295.4	295.519	43	54
295.519	295.995	50	62
295.519	295.995	55	33
295.519	295.995	59	33
295.519	295.995	65	37
295.995	296.471	48	56
295.995	296.471	60	32
295.995	296.471	64	36
296.471	296.811	50	60
296.471	296.924	55	38
296.471	296.924	59	38
296.471	296.924	65	43
296.811	296.924	43	51
296.924	297.412	48	58
296.924	297.412	60	31
296.924	297.412	64	34
297.412	297.762	50	57
297.412	297.879	55	36
297.412	297.879	59	36
297.412	297.879	65	41
297.762	297.879	43	48
297.879	298.372	48	56
297.879	298.372	60	29
297.879	298.372	64	29
298.372	298.725	50	55
298.372	298.843	55	35
298.372	298.843	59	35
298.372	298.843	65	39
298.725	298.843	43	46
298.843	299.345	48	53
298.843	299.345	60	28
298.843	299.345	64	31
299.345	299.712	50	54
299.345	299.835	55	34
299.345	299.835	59	34
299.345	299.835	65	38
299.712	299.835	43	45
299.835	300.325	50	51
299.835	300.325	55	26
299.835	300.325	59	26
299.835	300.325	65	30
300.325	300.835	48	45
300.325	300.835	60	25
300.325	300.835	64	28
300.835	301.209	50	50
300.835	301.333	55	31
300.835	301.333	59	31
300.835	301.333	65	36
301.209	301.333	43	41
301.333	301.846	50	46
301.333	301.846	55	24
301.333	301.846	59	24
301.333	301.846	65	28
301.846	302.377	48	41
301.846	302.377	60	23
301.846	302.377	64	26
302.377	305.528	67	40
303.936	307.087	60	45
305.528	308.687	67	40
307.087	311.614	60	45
308.687	311.812	67	41
311.817	312.311	67	54
312.311	312.975	60	59
312.975	313.219	59	52
313.219	313.69	42	44
313.219	313.69	52	50
313.219	313.69	58	59
313.219	313.69	61	59
313.572	314.196	54	45
313.69	314.265	42	39
313.69	314.265	52	49
313.69	314.265	58	58
313.69	314.265	61	58
314.196	314.784	35	37
314.196	314.784	47	44
314.196	314.784	50	47
314.196	314.784	54	47
314.196	314.784	59	56
