OnsetTime	OffsetTime	MidiPitch	Velocity
0.521985	1.50498	53	39
0.522991	1.50598	56	46
0.524989	1.70098	37	32
0.524989	1.70197	44	32
0.525982	1.70197	49	38
1.40298	1.80198	54	31
1.40398	1.80597	58	37
1.70397	2.33397	56	37
1.70497	2.33496	44	25
1.70497	2.32797	53	31
1.70598	2.33496	37	25
1.70897	2.33496	49	30
2.33897	4.03197	37	27
2.33897	4.03197	49	32
2.33897	4.03197	53	46
2.34097	4.03197	44	27
2.47897	3.47295	56	39
2.62598	3.47196	61	43
2.76197	3.47196	65	40
2.90898	4.03197	68	43
3.04597	4.03197	73	43
3.18496	4.03197	77	44
3.32597	4.03197	80	47
3.46995	4.06696	85	52
3.47196	4.06796	61	30
3.47196	4.06996	65	30
3.47295	4.07396	56	25
4.12696	5.09596	68	38
4.12796	5.09596	65	38
4.12996	5.29495	49	26
4.12996	5.29195	56	26
4.13095	5.29596	61	31
4.99795	5.39694	66	35
4.99896	5.39795	70	35
5.29596	5.92896	65	36
5.29895	5.92995	68	36
5.29995	5.92995	49	25
5.29995	5.93096	61	30
5.30195	5.93195	56	25
5.93296	7.66793	56	27
5.93296	7.66793	65	38
5.93395	7.66793	49	27
5.93595	7.66793	61	32
6.07294	7.06693	68	32
6.21995	7.06394	73	36
6.35695	7.06693	77	34
6.50396	7.66793	80	36
6.64394	7.66793	85	36
6.77994	7.66793	89	37
6.91994	7.66793	92	38
7.06394	7.72094	73	21
7.06394	7.72094	97	42
7.06693	7.72194	68	21
7.06693	7.72494	77	25
7.72494	8.88594	54	39
7.72593	8.88993	48	40
7.72593	8.88693	63	46
7.72793	8.88693	44	34
8.88594	9.50692	54	39
8.88693	9.50892	44	39
8.88693	10.5179	63	46
8.88993	10.6679	48	39
9.34293	9.50692	60	42
9.34493	9.50993	51	36
9.50692	11.0959	54	35
9.50692	10.6679	60	42
9.50892	10.6689	44	35
9.50993	11.2769	51	42
9.67392	11.2769	80	46
9.81092	11.2769	78	43
9.95791	11.2769	75	43
10.0949	11.2769	72	49
10.2419	11.2769	68	48
10.3809	11.2769	66	44
10.5179	11.2769	63	44
10.6679	11.2769	48	35
10.6679	11.2769	60	46
10.6689	11.2739	44	29
10.8049	11.2769	56	42
10.9479	11.2769	55	46
11.0959	11.2769	54	42
11.2709	12.4409	61	46
11.2739	12.4429	44	33
11.2739	12.4399	53	39
11.2749	12.4419	37	33
11.2769	12.4429	49	39
12.4399	13.0589	53	37
12.4409	13.7839	61	44
12.4419	13.0649	37	31
12.4429	13.0629	44	31
12.4429	13.0629	49	37
13.0589	14.0669	53	35
13.0629	14.3509	44	29
13.0629	14.2149	49	35
13.0629	13.9269	56	42
13.0649	14.6589	37	29
13.2199	14.8549	77	49
13.3599	14.8549	73	46
13.5029	14.8549	68	46
13.6439	14.8549	65	49
13.7839	14.8549	61	43
13.9269	14.8519	56	46
14.0669	14.8549	53	43
14.2149	14.8549	49	42
14.3509	14.8549	44	38
14.5009	14.8539	41	40
14.6589	14.8549	37	39
14.8519	15.9469	50	36
14.8519	15.9469	56	36
14.8529	15.6729	58	43
14.8539	15.9479	34	33
14.8539	15.9499	41	33
14.8549	15.9499	46	39
15.6739	15.9499	59	42
15.9539	16.5199	56	33
15.9539	16.5199	58	39
15.9569	16.5239	34	32
15.9569	16.5249	46	38
15.9569	16.5239	50	33
15.9579	16.5249	41	32
16.5269	16.6559	51	33
16.5269	16.7929	54	39
16.5309	17.7518	39	30
16.5309	17.7518	46	36
16.6559	17.7518	51	39
16.7929	17.6158	54	42
16.9299	17.6189	58	42
17.0699	17.6158	63	48
17.1989	17.4759	66	44
17.3399	17.7518	70	49
17.4759	17.7518	66	50
17.6149	18.2559	75	63
17.6158	18.2589	54	26
17.6158	18.2569	63	31
17.6189	18.2598	58	26
18.2598	19.3239	62	45
18.2629	19.3268	68	45
18.2638	19.3278	46	33
18.2638	19.3278	53	33
18.2638	19.0678	70	54
18.2659	19.3308	58	39
19.0718	19.3308	71	52
19.3318	19.8948	62	44
19.3318	19.8938	68	44
19.3338	19.8968	53	32
19.3338	19.8948	70	52
19.3348	19.8978	46	32
19.3348	19.8978	58	38
19.8989	20.0278	63	57
19.9018	21.2768	51	41
19.9018	20.9728	58	49
19.9018	20.1608	66	57
20.0278	20.9728	63	49
20.1608	21.2768	66	57
20.2938	21.2768	70	51
20.4298	21.2768	75	55
20.5628	20.8288	78	59
20.6968	21.2768	82	64
20.8288	21.2768	78	69
20.9718	21.3778	87	75
20.9728	21.5428	54	45
20.9728	21.5418	58	45
20.9728	21.5428	63	53
21.3818	21.5458	85	65
21.5468	22.6068	32	54
21.5468	21.6758	84	71
21.5488	22.6078	44	64
21.6768	21.8148	92	76
21.8158	21.9418	90	72
21.9448	22.0748	87	72
22.0748	22.2068	84	77
22.2108	22.3368	80	72
22.3368	22.4708	78	72
22.4728	22.6078	75	72
22.6078	22.7318	72	74
22.6098	23.1278	56	51
22.6098	23.1148	60	51
22.6108	22.8658	66	60
22.7328	22.8668	68	72
22.8668	23.1288	66	72
22.9918	23.1288	63	72
23.1298	23.2678	60	71
23.1308	24.2408	44	65
23.1318	24.2408	32	55
23.2688	23.4048	56	67
23.4048	23.5378	55	71
23.5408	23.6778	56	67
23.6818	23.8168	58	66
23.8178	23.9508	56	59
23.9508	24.0938	55	66
24.0968	24.6828	56	59
24.2418	24.6848	65	65
24.2448	24.8328	44	51
24.2458	24.8338	48	60
24.6858	24.8358	54	51
24.6858	24.8368	63	61
24.8368	25.2458	61	65
24.8398	24.9768	53	55
24.8408	27.1077	37	51
24.8408	27.1077	49	60
24.8428	27.1077	44	51
24.9768	27.1077	53	64
25.1128	25.9188	56	64
25.2458	25.9188	61	64
25.3788	25.9208	65	64
25.5088	27.1077	68	63
25.6418	27.1077	73	61
25.7748	27.1077	77	61
25.9178	27.1077	80	61
25.9188	26.5127	56	36
25.9188	26.5137	61	36
25.9208	26.5098	65	43
26.0478	27.1077	85	63
26.1867	27.1077	89	64
26.3378	27.1077	92	65
26.5087	27.1778	97	77
26.5098	27.1807	65	43
26.5127	27.1807	56	36
26.5137	27.1818	61	36
27.8037	28.2698	61	61
28.2737	28.4268	65	54
28.4277	29.7677	39	45
28.4277	29.4257	65	63
28.4308	28.7138	51	54
28.7138	29.2848	51	49
28.9948	29.5697	61	49
28.9977	29.5687	55	41
29.2848	29.7677	51	49
29.2848	29.7677	63	57
29.4257	29.7677	65	58
29.5687	29.8557	55	41
29.5687	29.7677	67	59
29.5697	29.8557	61	49
29.7087	29.8567	68	61
29.8587	30.1498	51	49
29.8587	30.0057	70	63
30.0067	30.1527	72	64
30.1537	31.9157	39	45
30.1537	31.9157	73	66
30.1567	30.4367	51	54
30.4367	31.0148	51	47
30.7208	31.3007	55	39
30.7208	31.2977	61	47
30.8667	30.9587	75	64
30.9127	31.2977	77	64
30.9587	31.1507	75	64
31.0137	31.9157	74	64
31.0148	31.5947	51	47
31.1507	31.9157	75	66
31.2977	31.9157	61	47
31.2977	31.9157	77	70
31.3007	31.9157	55	39
31.4437	31.9157	79	73
31.5937	31.9157	80	76
31.5947	31.9157	51	47
31.7418	31.9157	82	80
31.9127	34.6537	84	84
31.9137	33.7087	32	45
31.9137	33.7087	44	54
32.2317	32.8127	51	48
32.5187	33.1047	60	48
32.5227	33.1047	56	40
32.8127	33.4117	51	42
32.8127	33.2577	82	64
32.9567	33.4117	80	64
33.1037	34.6537	79	70
33.1047	34.2977	56	35
33.1047	34.2967	60	42
33.2577	34.6537	82	63
33.4117	33.9997	51	42
33.4117	34.6537	80	65
33.5587	34.6537	77	60
33.7047	34.8877	75	60
33.7087	34.6537	32	45
33.7087	34.6537	44	54
33.9997	34.5937	51	37
34.2967	34.6537	60	37
34.2977	34.6537	56	31
34.5937	34.8887	51	37
34.8917	35.3297	72	51
34.8927	35.1787	56	31
34.8927	35.1797	60	37
34.8927	35.3297	75	60
35.1797	35.4857	51	37
35.3307	35.4867	73	48
35.3327	35.4867	77	57
35.4907	35.7807	51	54
35.4907	36.3657	73	51
35.4907	36.3667	77	60
35.4917	37.2337	39	45
35.7807	36.3667	51	37
35.7807	36.6527	67	57
36.0677	36.6527	55	31
36.0687	36.6537	61	37
36.3657	36.9287	73	49
36.3667	36.9297	51	37
36.3667	36.9287	77	58
36.6527	37.8177	55	31
36.6527	37.5207	67	53
36.6537	37.8187	61	37
36.9287	37.2297	73	49
36.9287	37.2327	77	58
36.9297	37.2327	51	37
37.2297	37.8187	73	51
37.2327	37.5237	51	54
37.2327	37.8187	77	60
37.2337	37.8187	39	45
37.5207	37.8187	67	58
37.5237	37.8187	51	37
37.8177	38.1047	55	31
37.8187	38.1057	61	37
38.1057	38.4017	65	51
38.1087	38.4027	51	37
38.1087	38.4027	73	60
38.4037	38.6887	63	51
38.4057	38.6927	72	60
38.4067	38.6927	55	37
38.6927	38.9937	61	48
38.6957	38.9937	70	57
38.6967	38.9947	51	37
38.9947	39.5787	60	54
38.9977	40.7266	32	45
38.9977	40.7256	44	54
39.1447	41.7546	72	60
39.2917	39.8727	51	37
39.5787	40.1566	60	37
39.5817	40.1566	56	31
39.8727	40.4366	51	37
39.8727	40.2926	70	59
40.0156	40.4356	68	57
40.1556	41.7546	67	57
40.1566	41.3036	56	31
40.1566	41.3046	60	37
40.2926	41.7546	70	59
40.4356	41.7546	68	58
40.4366	41.0136	51	37
40.5756	41.7546	65	54
40.7236	41.8816	63	53
40.7256	41.7546	44	54
40.7266	41.7546	32	45
41.0136	41.5956	51	37
41.3036	41.7546	56	31
41.3046	41.7546	60	37
41.5956	41.8846	51	37
41.8846	42.3356	63	64
41.8856	42.1856	56	31
41.8886	42.1856	60	37
42.1866	42.4976	51	37
42.3366	42.5006	65	59
42.5006	43.4986	65	63
42.5016	43.8376	39	45
42.5016	42.7916	51	54
42.7916	43.3566	51	49
43.0686	43.6456	55	41
43.0686	43.6456	61	49
43.3556	43.8376	63	57
43.3566	43.8376	51	49
43.4986	43.8376	65	58
43.6456	43.9326	55	41
43.6456	43.9316	61	49
43.6456	43.8376	67	59
43.7886	43.9326	68	61
43.9366	44.2286	51	49
43.9366	44.0756	70	63
44.0756	44.2296	72	64
44.2296	45.9876	73	66
44.2306	45.9876	39	45
44.2326	44.5146	51	54
44.5146	45.0876	51	47
44.7966	45.3706	55	39
44.7976	45.3706	61	47
44.9376	45.0286	75	64
44.9826	45.3676	77	64
45.0286	45.2206	75	64
45.0836	45.9876	74	64
45.0876	45.6726	51	47
45.2206	45.9876	75	66
45.3676	45.9876	77	70
45.3706	45.9876	55	39
45.3706	45.9876	61	47
45.5176	45.9876	79	73
45.6716	45.9876	80	76
45.6726	45.9876	51	47
45.8186	45.9876	82	80
45.9836	47.7956	44	54
45.9836	48.7556	84	84
45.9866	47.7966	32	45
46.3026	46.8866	51	48
46.5916	47.1736	60	48
46.5926	47.1736	56	40
46.8836	47.3306	82	64
46.8866	47.4886	51	42
47.0266	47.4876	80	64
47.1736	48.3986	56	35
47.1736	48.3996	60	42
47.1736	48.7556	79	70
47.3306	48.7556	82	63
47.4876	48.7556	80	65
47.4886	48.1006	51	42
47.6386	48.7556	77	60
47.7926	48.9896	75	60
47.7956	48.7556	44	54
47.7966	48.7556	32	45
48.1006	48.6936	51	37
48.3986	48.7556	56	31
48.3996	48.7556	60	37
48.6936	48.9896	51	37
48.9906	49.4276	72	51
48.9936	49.2836	56	31
48.9936	49.2846	60	37
48.9936	49.4306	75	60
49.2876	49.5916	51	37
49.4315	49.5916	73	48
49.4346	49.5956	77	57
49.5956	50.4665	73	51
49.5965	49.8825	51	54
49.5965	50.4635	77	60
49.5985	51.3415	39	45
49.8815	50.7495	67	57
49.8825	50.4675	51	37
50.1735	50.7506	55	31
50.1755	50.7506	61	37
50.4635	51.0365	77	58
50.4665	51.0336	73	49
50.4675	51.0375	51	37
50.7495	51.6215	67	53
50.7506	51.9195	55	31
50.7506	51.9165	61	37
51.0336	51.3385	73	49
51.0365	51.3385	77	58
51.0375	51.3395	51	37
51.3385	51.9195	73	51
51.3385	51.9195	77	60
51.3395	51.6255	51	54
51.3415	51.9195	39	45
51.6215	51.9195	67	58
51.6255	51.9195	51	37
51.9165	52.2025	61	37
51.9195	52.2065	55	31
52.2065	52.3525	65	51
52.2095	52.5005	51	37
52.2095	52.3535	73	60
52.5005	52.6425	63	51
52.5015	52.6435	72	60
52.5035	52.7905	55	37
52.7905	52.9445	70	57
52.7915	52.9485	61	48
52.7935	53.0985	51	37
53.0985	53.6965	60	48
53.0995	53.8475	68	57
53.1015	53.2495	44	31
53.1015	53.2495	56	37
53.4065	53.6975	51	37
53.6975	53.9906	56	31
53.7005	53.9915	60	37
53.8475	53.9955	63	57
53.9955	54.1385	68	52
53.9985	54.2885	51	37
54.1395	54.2895	72	51
54.2895	54.4315	75	49
54.2915	54.5795	60	37
54.2925	54.5795	56	31
54.4355	54.5805	80	47
54.5825	54.8735	51	37
54.5825	54.7295	84	44
54.7306	54.8735	87	42
54.8695	55.0195	92	44
54.8765	55.4645	60	37
54.8775	55.4685	56	31
55.0265	55.1355	80	37
55.1635	55.3135	80	37
55.3215	55.4335	92	37
55.4685	55.6125	92	44
55.6115	55.7195	80	37
55.7585	55.9025	80	37
55.9135	56.0245	92	37
56.0565	56.2035	92	43
56.2035	56.3145	80	37
56.3425	56.4865	80	37
56.4935	57.5535	61	46
56.5005	56.6085	92	37
56.5705	57.5585	65	39
56.6405	57.5585	68	52
56.6435	56.7915	92	44
56.7845	56.8935	80	37
56.9235	57.0675	80	37
57.0675	57.1725	92	37
57.2145	57.3585	92	44
57.3625	57.4705	80	37
57.4985	57.6445	80	37
57.5055	57.8445	70	52
57.6445	57.7535	92	37
57.7925	58.2575	65	35
57.7955	58.2585	61	35
57.7955	58.2585	68	42
57.7995	57.9565	92	40
57.9525	58.0685	80	35
58.0965	58.2505	80	35
58.2535	58.3805	92	35
58.2615	60.0115	56	38
58.3385	60.0145	61	32
58.4225	58.5655	92	34
58.4295	60.0145	65	46
58.5725	58.6815	80	28
58.7165	58.8625	80	28
58.8635	58.9715	92	28
59.0065	59.1505	92	32
59.1545	59.2585	80	27
59.2865	59.4305	80	27
59.4375	59.5485	92	27
59.5805	59.7275	92	34
59.7275	59.8365	80	28
59.8635	60.0115	80	27
60.0155	61.0925	61	46
60.0185	60.1405	92	27
60.0955	61.0935	65	39
60.1715	61.0935	68	52
60.1785	60.3265	92	48
60.3265	60.4355	80	37
60.4695	60.6095	80	37
60.6095	60.7145	92	37
60.7605	60.9075	92	44
60.9065	61.0085	80	37
61.0475	61.3305	70	53
61.0505	61.1935	80	37
61.1975	61.2995	92	37
61.3305	61.7895	65	36
61.3315	61.7925	61	36
61.3315	61.7895	68	43
61.3345	61.4845	92	39
61.4805	61.5965	80	35
61.6385	61.7935	80	35
61.7885	61.9085	92	35
61.7935	63.7004	56	40
61.8765	63.7004	61	34
61.9575	63.7014	65	47
61.9605	62.1075	92	32
62.1005	62.2055	80	26
62.2515	62.3915	80	26
62.3985	62.5065	92	27
62.5415	62.6885	92	35
62.6885	62.7895	80	28
62.8285	62.9724	80	28
62.9654	63.0774	92	28
63.1045	63.2525	92	36
63.2525	63.3614	80	28
63.4054	63.5534	80	28
63.4724	64.6034	66	51
63.5424	63.6584	92	28
63.5464	64.6804	68	51
63.6234	64.7634	72	43
63.6974	63.8364	82	37
63.7034	64.8555	75	63
63.7734	63.9104	80	31
63.8364	63.9764	82	37
63.9104	64.0424	80	30
63.9764	64.1094	82	37
64.0424	64.1864	80	32
64.1094	64.2494	82	38
64.1864	64.3134	80	32
64.2494	64.3754	82	39
64.3134	64.4554	80	34
64.3754	64.5264	82	39
64.4554	64.6044	80	34
64.5264	64.6794	82	40
64.6034	65.3235	66	49
64.6044	64.7604	80	35
64.6794	64.8485	82	42
64.6804	65.4075	68	49
64.7604	64.9325	80	35
64.7634	65.4955	72	41
64.8485	65.0015	82	42
64.8555	67.1235	75	61
64.9325	65.0855	80	34
65.0015	65.1705	82	40
65.0855	65.2475	80	34
65.1705	65.3175	82	39
65.2475	65.4045	80	34
65.2485	67.1235	63	39
65.3175	65.4925	82	38
65.3235	67.1235	66	47
65.4045	65.5625	80	31
65.4075	67.1235	68	39
65.4925	65.6365	82	37
65.4955	67.1235	72	58
65.5625	65.7085	80	32
65.6365	65.7685	82	35
65.7085	65.8385	80	30
65.7685	65.8985	82	35
65.8385	65.9745	80	31
65.8985	66.0375	82	35
65.9745	66.1085	80	35
66.0375	66.1715	82	35
66.1085	66.2445	80	30
66.1715	66.3145	82	38
66.2445	66.3845	80	35
66.3145	66.4475	82	39
66.3845	66.5175	80	35
66.4475	66.6025	82	40
66.5175	66.6675	80	36
66.6025	66.7525	82	43
66.6675	66.8225	80	38
66.7525	66.8925	82	43
66.8225	66.9595	80	38
66.8925	67.0425	82	43
66.9595	67.1235	80	37
67.0425	67.1585	82	42
67.0435	68.1945	65	52
67.1245	67.2835	80	36
67.1265	68.2775	68	44
67.2145	68.3655	73	66
67.2285	67.3605	82	43
67.2835	67.4275	80	38
67.3605	67.4975	82	43
67.4275	67.5645	80	37
67.4975	67.6265	82	43
67.5645	67.6965	80	37
67.6265	67.7605	82	42
67.6965	67.8305	80	36
67.7605	67.9116	82	43
67.8305	67.9695	80	38
67.9116	68.0435	82	44
67.9695	68.1135	80	37
68.0435	68.1975	82	42
68.1135	68.2745	80	37
68.1945	68.9286	65	50
68.1975	68.3585	82	42
68.2745	68.4495	80	36
68.2775	69.0036	68	42
68.3585	68.5195	82	42
68.3655	70.3676	73	64
68.4495	68.6035	80	39
68.5195	68.6875	82	42
68.6035	68.7715	80	36
68.6875	68.8526	82	42
68.7715	68.9326	80	37
68.8506	70.5016	61	46
68.8526	69.0026	82	39
68.9286	70.5046	65	46
68.9326	69.0725	80	37
69.0026	69.1496	82	37
69.0036	70.5046	68	45
69.0725	69.2126	80	31
69.1496	69.2756	82	34
69.2126	69.3526	80	30
69.2756	69.4226	82	34
69.3526	69.4786	80	34
69.4226	69.5486	82	34
69.4786	69.6116	80	30
69.5486	69.6886	82	34
69.6116	69.7516	80	34
69.6886	69.8186	82	34
69.7516	69.8816	80	30
69.8186	69.9436	82	34
69.8816	70.0146	80	30
69.9436	70.0846	82	34
70.0146	70.1546	80	30
70.0846	70.2236	82	35
70.1546	70.3046	80	30
70.2236	70.3676	82	35
70.3046	70.3956	80	29
70.3686	70.4626	82	35
70.4306	70.5256	80	29
70.5016	70.5876	82	35
70.5056	71.5536	61	46
70.5716	71.5546	65	39
70.5716	70.6616	80	30
70.6336	71.5546	68	52
70.6406	70.7876	92	44
70.7846	70.8936	80	37
70.9236	71.0676	80	37
71.0646	71.1766	92	37
71.2076	71.3546	92	44
71.3586	71.4676	80	37
71.4986	71.6456	80	37
71.5056	71.8446	70	52
71.6456	71.7506	92	37
71.7896	72.2546	65	35
71.7896	72.2576	68	42
71.7926	72.2586	61	35
71.8036	71.9496	92	40
71.9466	72.0616	80	35
72.0976	72.2506	80	35
72.2516	72.3766	92	35
72.2586	74.0146	56	38
72.3416	74.0146	61	32
72.4226	72.5686	92	34
72.4296	74.0156	65	46
72.5696	72.6776	80	28
72.7126	72.8626	80	28
72.8636	72.9686	92	28
73.0036	73.1496	92	32
73.1506	73.2586	80	27
73.2866	73.4346	80	27
73.4416	73.5496	92	27
73.5806	73.7246	92	34
73.7246	73.8326	80	28
73.8636	74.0076	80	27
74.0186	75.0855	61	46
74.0186	74.1346	92	27
74.0956	75.0895	65	39
74.1755	75.0895	68	52
74.1825	74.3266	92	48
74.3296	74.4306	80	37
74.4655	74.6096	80	37
74.6066	74.7156	92	37
74.7635	74.9075	92	44
74.9005	75.0125	80	37
75.0405	75.3315	70	53
75.0475	75.1945	80	37
75.1955	75.3025	92	37
75.3315	75.7885	65	36
75.3345	75.7895	61	36
75.3345	75.7895	68	43
75.3345	75.4885	92	39
75.4775	75.5895	80	35
75.6315	75.7925	80	35
75.7815	75.9115	92	35
75.7935	77.4655	56	40
75.8695	77.4695	61	34
75.9575	77.4705	65	47
75.9645	76.1075	92	32
76.0965	76.2055	80	26
76.2475	76.3945	80	26
76.3955	76.5065	92	27
76.5385	76.6825	92	35
76.6855	76.7905	80	28
76.8215	76.9695	80	28
76.9695	77.0735	92	28
77.1085	77.2525	92	36
77.2525	77.3565	80	28
77.4025	77.5565	80	28
77.4725	78.6235	56	50
77.5425	78.6245	60	50
77.5425	77.6585	92	28
77.6235	78.6245	63	42
77.6935	78.6255	66	58
77.6995	77.7875	82	37
77.7635	77.8505	80	30
77.8225	77.9105	82	38
77.8965	77.9835	80	32
77.9635	78.0465	82	39
78.0185	78.1065	80	35
78.0955	78.1795	82	40
78.1515	78.2395	80	37
78.2285	78.3165	82	42
78.2855	78.3785	80	38
78.3475	78.4385	82	44
78.4145	78.5055	80	38
78.4775	78.5685	82	46
78.5575	78.6555	80	39
78.6285	79.2305	56	54
78.6285	78.7395	82	47
78.6975	78.8025	80	40
78.7045	79.2335	61	54
78.7855	79.2375	65	51
78.7925	78.8905	82	47
78.8655	78.9645	80	40
78.9365	79.0335	82	49
79.0055	79.1035	80	49
79.0755	79.1805	82	50
79.1595	79.2615	80	44
79.2375	79.3305	82	53
79.2385	80.2315	56	57
79.2995	79.3945	80	47
79.3065	80.2315	60	48
79.3765	80.2315	63	65
79.3775	79.4645	82	55
79.4465	79.5345	80	47
79.5065	79.5905	82	49
79.5695	79.6525	80	44
79.6385	79.7195	82	49
79.7025	79.7826	80	49
79.7656	79.8456	82	49
79.8215	79.9126	80	44
79.8885	79.9756	82	49
79.9446	80.0385	80	42
80.0206	80.1155	82	47
80.0975	80.1895	80	39
80.1535	80.2485	82	44
80.2345	80.8336	53	53
80.2345	80.3285	80	39
80.3015	80.8336	59	53
80.3015	80.4095	82	42
80.3815	80.4865	80	38
80.3825	80.8365	62	45
80.4585	80.5566	82	42
80.4615	80.8365	65	61
80.5425	80.6376	80	39
80.6126	80.7176	82	42
80.6825	80.7875	80	39
80.7595	80.8576	82	42
80.8406	82.7405	56	51
80.8406	80.9346	80	39
80.9036	82.7405	60	60
80.9036	81.0045	82	42
80.9796	82.7415	63	51
80.9825	81.0536	80	38
81.0566	81.1936	80	52
81.0575	82.7415	66	69
81.1936	81.3406	82	54
81.3416	81.4845	84	57
81.4875	81.6235	85	59
81.6245	81.7676	87	63
81.7705	81.9075	89	65
81.9116	82.0475	90	67
82.0485	82.1875	92	70
82.1875	82.3275	94	71
82.3285	82.4645	92	71
82.4675	82.5995	90	70
82.6005	82.7435	89	69
82.7435	82.8765	87	69
82.8775	83.0165	85	67
83.0175	83.1505	84	66
83.1535	83.2895	82	66
83.2935	83.4235	80	66
83.4235	83.5625	78	66
83.5635	83.6955	77	65
83.6995	83.8365	75	64
83.8365	83.9685	73	63
83.9695	84.1025	72	63
84.1055	84.2345	70	61
84.2355	84.3715	68	60
84.3715	84.5085	66	60
84.5105	84.6375	65	58
84.6385	84.7705	63	60
84.7705	84.9035	61	63
84.9045	85.0365	60	59
85.0405	85.1685	58	60
85.1735	85.2985	56	63
85.2995	85.4325	54	64
85.4325	85.5365	53	66
85.5375	85.6454	51	67
85.6484	85.7574	49	69
85.7574	85.8725	48	70
85.8734	85.9954	46	72
85.9954	87.2305	32	84
85.9965	87.2314	44	84
87.8465	88.7914	68	46
88.7384	89.0965	70	43
89.0375	91.4235	68	43
89.6915	91.4245	60	28
89.6955	91.4275	51	26
89.6955	91.4245	54	31
89.6975	91.4285	44	26
91.4285	92.3514	68	46
92.3064	92.6445	70	43
92.5955	94.9445	68	43
93.2165	94.9495	53	32
93.2165	94.9495	61	28
93.2195	94.9515	44	27
94.9524	95.8765	68	46
95.8275	96.1775	70	40
96.1245	98.7745	68	40
96.7335	98.0115	62	35
96.7375	98.0155	44	25
96.7375	98.0145	47	25
96.7375	98.0145	53	30
98.0185	98.7745	48	25
98.0185	98.7745	63	38
98.0195	98.7765	44	25
98.0195	98.7755	54	30
98.7775	102.137	60	34
98.7775	102.14	66	34
98.7785	102.14	68	40
98.7805	102.141	56	29
98.7815	102.144	44	24
98.7815	102.144	51	24
102.788	103.722	68	40
102.789	103.968	56	27
102.789	103.723	65	34
102.791	103.968	61	32
102.792	103.97	49	27
103.677	104.02	70	38
103.678	104.021	66	38
103.971	104.605	65	30
103.971	104.657	68	36
103.972	104.601	61	28
103.975	104.608	49	23
103.975	104.608	56	23
104.608	106.323	61	31
104.612	106.327	49	23
104.612	106.326	56	28
104.612	106.324	65	37
106.368	107.299	68	40
106.372	107.3	65	34
106.373	107.552	56	27
106.373	107.548	61	32
106.375	107.552	49	27
107.254	107.6	66	32
107.255	107.604	70	38
107.553	108.182	65	30
107.556	108.182	49	24
107.556	108.175	61	29
107.556	108.234	68	36
107.557	108.182	56	24
108.185	109.942	61	30
108.185	109.943	65	36
108.186	109.943	56	29
108.189	109.943	49	24
109.988	111.167	75	53
109.989	111.168	60	43
109.989	111.168	66	45
109.991	111.169	56	36
111.17	111.786	66	35
111.171	111.567	60	42
111.171	111.566	75	51
111.172	111.787	56	35
111.619	111.791	63	35
111.619	111.79	72	42
111.791	113.498	66	35
111.792	113.501	72	42
111.794	113.502	56	29
111.794	113.502	63	35
113.551	114.723	65	40
113.554	114.726	61	37
113.554	114.724	73	48
113.555	114.727	49	31
114.727	115.347	65	35
114.731	115.348	49	29
114.731	115.347	61	35
114.731	115.129	73	42
115.185	115.348	68	38
115.35	117.058	65	32
115.35	117.057	68	38
115.351	117.058	61	32
115.354	117.061	49	27
117.11	118.282	66	40
117.111	118.283	54	35
117.111	118.283	70	48
117.114	118.287	61	42
118.287	118.906	66	44
118.287	118.903	70	52
118.288	118.906	54	36
118.29	118.907	61	43
118.91	119.833	70	45
118.91	119.83	73	54
118.911	120.064	54	40
118.913	120.068	61	48
119.784	120.117	68	41
119.788	120.117	72	49
120.069	120.681	61	44
120.069	120.68	66	45
120.069	120.681	70	54
120.071	120.684	54	37
120.685	121.608	65	45
120.685	121.607	68	53
120.687	121.843	49	33
120.687	121.842	61	39
121.562	121.894	66	36
121.563	121.895	70	43
121.843	122.508	68	46
121.844	122.462	65	39
121.846	122.462	49	32
121.846	122.459	61	38
122.462	124.173	61	36
122.466	124.177	49	30
122.466	124.176	56	36
122.466	124.174	65	43
124.226	125.399	70	48
124.23	125.402	54	35
124.23	125.402	61	42
124.23	125.401	66	40
125.406	126.022	66	44
125.406	126.022	70	52
125.407	126.023	54	36
125.409	126.025	61	43
126.025	126.949	70	45
126.026	126.949	73	54
126.029	127.18	54	40
126.029	127.183	61	48
126.903	127.232	72	49
126.904	127.236	68	41
127.184	127.796	66	45
127.187	127.8	61	44
127.187	127.799	70	54
127.188	127.8	54	37
127.803	128.705	68	53
127.804	128.941	49	34
127.804	128.941	61	40
127.804	128.71	65	45
128.661	128.993	66	36
128.661	128.993	70	43
128.944	129.556	65	39
128.944	129.606	68	46
128.945	129.556	61	39
128.948	129.557	49	33
129.56	131.275	61	36
129.56	131.275	65	43
129.561	131.279	49	30
129.561	131.276	56	36
131.323	132.5	66	45
131.328	132.501	56	36
131.328	132.5	75	54
131.331	132.504	60	43
132.504	133.13	75	54
132.505	133.134	66	45
132.507	133.137	56	37
132.507	133.134	60	44
133.137	134.302	66	51
133.138	134.303	60	51
133.138	134.061	78	60
133.141	134.306	56	43
134.012	134.362	75	55
134.306	134.936	66	46
134.31	134.94	56	42
134.31	134.94	63	50
134.31	134.939	72	55
134.944	138.037	56	36
134.944	138.037	65	44
134.944	136.91	73	52
134.946	138.038	61	36
134.947	138.041	49	30
136.864	138.041	68	32
136.865	138.042	77	38
138.621	139.556	73	43
138.625	139.802	49	29
138.625	139.801	65	36
138.628	139.804	56	29
138.628	139.802	61	35
139.51	139.853	68	40
139.805	140.416	65	40
139.808	140.417	61	34
139.809	140.42	49	26
139.809	140.417	56	31
140.421	141.299	65	37
140.424	141.59	60	37
140.425	141.59	44	30
140.425	141.591	56	36
140.425	141.347	68	44
141.299	141.593	63	33
141.3	141.646	66	39
141.593	142.262	63	37
141.594	142.265	60	31
141.597	142.266	44	26
141.597	142.265	54	31
142.293	143.472	65	26
142.293	143.469	68	26
142.293	143.228	77	31
142.296	143.473	61	21
142.297	143.476	49	17
142.297	143.476	56	17
143.175	143.518	73	28
143.477	143.759	65	23
143.477	143.819	68	28
143.479	144.082	56	16
143.479	144.081	61	19
143.48	144.082	49	16
143.763	144.082	65	28
144.085	145.247	60	25
144.086	145.247	66	30
144.086	145.002	70	30
144.088	145.248	44	19
144.089	145.251	51	19
144.089	145.251	56	23
144.956	145.299	68	29
145.251	145.849	60	24
145.254	145.853	44	17
145.254	145.853	54	21
145.254	145.589	63	29
145.537	145.854	65	29
145.856	146.47	49	21
145.856	148.939	61	27
145.857	146.469	53	21
146.469	147.093	44	12
146.469	147.092	53	14
146.47	147.093	49	15
146.472	147.095	37	12
147.092	147.708	53	14
147.093	147.708	44	12
147.093	147.709	49	15
147.095	147.709	37	12
147.708	148.94	44	12
147.708	148.94	53	14
147.709	148.943	37	12
147.709	148.944	49	15
149.559	150.739	56	39
149.562	151.362	49	27
149.563	151.359	37	22
149.854	150.448	61	19
149.854	150.449	68	23
149.855	150.452	65	19
150.448	151.407	58	36
150.448	151.033	61	16
150.449	151.034	68	19
150.452	151.033	65	16
150.739	151.407	56	37
151.033	151.407	61	19
151.033	151.407	65	19
151.034	151.407	68	23
151.358	153.139	53	34
151.359	152.933	37	22
151.362	152.933	49	27
151.646	152.24	61	16
151.649	152.241	65	16
151.649	152.241	68	19
152.24	152.828	61	16
152.241	152.828	65	16
152.241	152.825	68	19
152.825	153.143	68	19
152.828	153.146	61	16
152.828	153.144	65	16
153.147	154.936	49	27
153.147	154.319	56	38
153.15	154.935	37	22
153.441	154.032	61	19
153.441	154.03	65	19
153.442	154.029	68	23
154.029	155.156	58	36
154.029	154.617	68	19
154.03	154.613	65	16
154.032	154.617	61	16
154.319	155.156	56	39
154.613	155.156	65	19
154.617	155.156	61	19
154.617	155.156	68	23
154.935	155.226	37	22
154.935	156.713	53	37
154.936	155.226	49	27
155.229	155.817	68	19
155.23	155.817	61	16
155.23	155.815	65	16
155.815	156.401	65	16
155.817	156.402	61	16
155.817	156.405	68	19
156.401	156.714	65	16
156.402	156.714	61	16
156.405	156.715	68	19
156.717	158.505	32	25
156.717	158.505	44	30
156.717	157.893	63	46
157.011	157.599	66	21
157.011	157.597	68	25
157.597	158.184	68	21
157.599	158.183	66	17
157.893	158.558	63	43
158.183	158.558	66	19
158.184	158.558	68	23
158.338	158.503	60	38
158.503	160.283	60	38
158.505	160.108	32	26
158.505	160.108	44	31
158.793	159.385	66	22
158.793	159.386	68	26
159.385	159.971	66	20
159.386	159.969	68	24
159.969	160.284	68	27
159.971	160.284	66	22
160.285	161.463	61	52
160.286	162.075	49	32
160.287	162.075	37	27
160.581	161.166	65	23
160.581	161.169	68	28
161.166	161.758	65	20
161.169	161.76	68	24
161.463	162.1	61	50
161.758	162.1	65	23
161.76	162.1	68	28
161.915	162.073	56	42
162.073	163.853	56	42
162.075	163.678	37	26
162.075	163.678	49	31
162.369	162.957	65	22
162.369	162.955	68	27
162.955	163.541	68	28
162.957	163.539	65	23
163.539	163.854	65	23
163.541	163.854	68	28
163.856	165.029	58	60
163.857	165.652	30	31
163.857	165.65	42	37
164.151	164.739	61	24
164.151	164.738	70	29
164.152	164.739	66	24
164.738	165.33	70	29
164.739	165.331	61	24
164.739	165.33	66	24
165.029	165.712	58	58
165.33	165.712	66	24
165.33	165.712	70	29
165.331	165.649	61	24
165.649	167.434	61	63
165.65	167.434	42	42
165.652	167.434	30	35
165.939	166.534	66	30
165.939	166.534	70	36
166.532	167.434	60	53
166.534	167.116	66	30
166.534	167.118	70	36
166.819	167.434	58	58
167.116	167.434	66	30
167.118	167.434	70	36
167.431	168.607	56	61
167.434	169.222	37	29
167.434	169.222	49	35
167.725	168.317	61	24
167.727	168.316	68	29
167.728	168.319	65	24
168.316	169.233	58	55
168.316	168.908	68	29
168.317	168.907	61	24
168.319	168.907	65	24
168.607	169.233	56	59
168.907	169.233	61	24
168.907	169.233	65	24
168.908	169.233	68	29
169.22	170.996	53	53
169.222	170.734	37	28
169.222	170.734	49	34
169.507	170.104	61	24
169.509	170.104	68	29
169.51	170.102	65	24
170.102	170.688	65	24
170.104	170.689	61	24
170.104	170.689	68	29
170.688	171.0	65	24
170.689	171.001	61	24
170.689	171.001	68	29
171.003	172.17	58	60
171.004	172.792	30	31
171.004	172.792	42	37
171.291	171.886	66	24
171.291	171.886	70	29
171.292	171.883	61	24
171.883	172.47	61	24
171.886	172.47	66	24
171.886	172.471	70	29
172.17	172.925	58	58
172.47	172.789	61	24
172.47	172.925	66	24
172.471	172.925	70	29
172.789	174.591	61	63
172.792	174.591	30	36
172.792	174.591	42	43
173.084	173.674	66	32
173.086	173.674	70	38
173.672	174.591	60	53
173.674	174.258	66	32
173.674	174.259	70	38
173.966	174.591	58	58
174.258	174.591	66	32
174.259	174.591	70	38
174.578	176.362	37	29
174.578	175.747	56	61
174.58	176.363	49	35
174.865	175.463	61	24
174.867	175.463	68	29
174.868	175.463	65	24
175.46	176.391	58	55
175.463	176.048	61	24
175.463	176.048	65	24
175.463	176.049	68	29
175.747	176.391	56	59
176.048	176.391	61	24
176.048	176.391	65	24
176.049	176.391	68	29
176.359	178.136	53	53
176.362	177.885	37	28
176.363	177.885	49	34
176.647	177.244	61	24
176.649	177.244	65	24
176.649	177.242	68	29
177.242	177.83	68	29
177.244	177.831	61	24
177.244	177.83	65	24
177.83	178.137	65	24
177.83	178.14	68	29
177.831	178.141	61	24
178.143	179.317	63	66
178.144	179.929	32	32
178.144	179.929	44	38
178.435	179.026	72	34
178.437	179.026	66	28
178.438	179.026	68	28
179.026	179.611	66	28
179.026	179.612	68	28
179.026	179.612	72	34
179.317	179.957	63	64
179.611	179.926	66	28
179.612	179.957	68	28
179.612	179.957	72	34
179.926	181.399	66	71
179.929	181.722	32	33
179.929	181.722	44	39
180.224	180.814	72	35
180.226	180.814	68	29
180.812	181.722	63	65
180.814	181.4	68	29
180.814	181.4	72	35
181.102	181.722	60	64
181.399	181.722	66	29
181.4	181.722	68	29
181.4	181.722	72	35
181.717	183.617	61	71
181.718	183.52	37	36
181.721	183.52	49	43
182.012	182.607	65	29
182.014	182.606	68	29
182.015	182.607	73	35
182.606	183.199	68	29
182.607	183.198	65	29
182.607	183.198	73	35
183.198	183.517	65	29
183.198	183.617	73	35
183.199	183.617	68	29
183.517	185.07	65	61
183.52	183.818	37	32
183.52	183.814	49	38
183.818	184.417	73	24
183.821	184.419	68	24
183.821	184.417	77	29
184.417	185.022	73	24
184.417	185.022	77	29
184.419	185.02	68	24
185.02	185.333	68	24
185.022	185.334	73	24
185.022	185.334	77	29
185.334	186.218	61	71
185.336	187.136	37	36
185.337	187.136	49	43
185.631	186.219	65	29
185.631	186.219	68	35
186.216	187.129	56	65
186.218	186.81	61	29
186.219	186.81	65	29
186.219	186.808	68	35
186.509	187.136	53	60
186.808	187.136	68	35
186.81	187.136	61	29
186.81	187.136	65	29
187.129	188.627	56	66
187.13	188.948	44	38
187.132	188.948	32	32
187.423	188.033	68	29
187.426	188.032	60	24
187.426	188.948	65	24
188.029	188.948	54	58
188.032	188.627	60	24
188.032	188.948	63	24
188.033	188.948	68	29
188.322	188.948	51	54
188.626	188.948	66	29
188.627	188.948	56	29
188.627	188.948	60	24
188.946	192.133	49	53
188.948	190.863	37	32
189.263	189.904	65	28
189.264	189.901	56	28
189.264	189.904	61	23
189.901	190.542	56	28
189.904	190.544	61	23
189.904	190.541	65	28
190.541	191.496	65	28
190.542	191.496	56	28
190.544	191.496	61	23
190.863	192.134	37	34
192.137	192.708	65	64
192.641	192.711	61	37
192.711	193.866	65	75
192.714	194.465	46	39
192.715	194.503	34	33
193.002	194.16	53	32
193.289	193.867	58	32
193.576	194.503	66	64
193.577	194.462	61	32
193.866	194.503	65	64
193.867	194.468	58	32
194.16	194.503	53	32
194.462	195.077	61	75
194.465	195.077	46	31
194.465	195.077	73	75
194.468	195.077	58	37
194.738	195.077	65	53
195.015	195.605	72	72
195.017	195.605	63	72
195.018	195.605	48	29
195.018	195.605	57	35
195.291	195.605	65	53
195.568	196.06	61	72
195.57	196.134	70	72
195.571	196.06	49	31
195.571	196.06	58	37
195.854	196.135	65	54
196.064	196.135	63	57
196.138	197.807	41	34
196.138	199.158	70	74
196.139	196.421	53	40
196.421	197.531	53	32
196.698	197.257	57	32
196.982	197.254	69	60
196.985	197.73	63	32
197.254	199.158	69	64
197.257	198.364	57	32
197.528	199.158	72	57
197.531	198.088	53	32
197.73	198.665	63	31
197.804	198.963	65	70
197.805	199.158	29	33
197.807	199.158	41	39
198.088	199.158	53	32
198.364	198.966	57	32
198.665	199.158	63	32
198.963	199.532	65	64
198.966	199.245	57	32
199.246	199.533	53	32
199.463	199.533	61	32
199.534	200.664	65	75
199.536	201.233	34	33
199.537	201.233	46	39
199.816	200.958	53	32
200.1	200.667	58	32
200.38	201.233	66	64
200.381	201.233	61	32
200.664	201.247	65	64
200.667	201.233	58	32
200.958	201.248	53	32
201.251	201.808	61	75
201.252	201.808	58	37
201.252	201.808	73	75
201.255	201.808	46	31
201.525	201.808	65	52
201.801	202.392	63	72
201.804	202.392	72	72
201.805	202.392	48	29
201.805	202.392	57	35
202.075	202.392	65	52
202.354	202.728	61	72
202.355	202.924	70	72
202.357	202.728	49	37
202.357	202.728	58	37
202.641	202.928	65	53
202.85	202.928	63	60
202.929	206.323	70	74
202.931	204.591	41	34
202.931	203.207	53	40
203.207	204.317	53	32
203.485	204.044	57	32
203.768	204.041	69	60
203.771	204.513	63	32
204.041	206.323	69	64
204.044	205.157	57	32
204.315	206.323	72	57
204.317	204.591	53	32
204.513	205.452	63	39
204.59	205.749	65	70
204.591	206.323	41	33
204.591	204.874	53	39
204.874	206.033	53	32
205.157	205.752	57	32
205.452	206.323	63	32
205.749	206.319	65	73
205.752	206.323	57	32
206.033	206.323	53	32
206.246	206.323	61	35
206.319	207.449	65	80
206.32	208.062	46	52
206.323	208.062	34	44
206.603	207.747	53	38
206.886	207.453	58	38
207.171	208.062	66	67
207.173	208.062	61	38
207.449	208.038	65	67
207.453	208.062	58	38
207.747	208.062	53	38
208.037	208.597	77	82
208.038	208.597	37	39
208.038	208.597	65	56
208.041	208.597	49	46
208.314	208.597	70	57
208.315	208.597	73	57
208.591	209.137	75	80
208.595	209.14	36	29
208.595	209.138	48	35
208.595	209.138	63	49
208.864	209.14	72	57
208.867	209.144	69	57
209.144	209.714	73	77
209.145	209.715	46	37
209.145	209.715	61	48
209.147	209.715	34	31
209.42	209.62	65	57
209.42	209.62	70	57
209.569	211.434	63	59
209.637	211.496	66	50
209.717	210.848	72	75
209.718	211.496	39	44
209.718	209.998	51	52
209.998	211.139	51	36
210.275	210.848	54	36
210.565	211.496	60	37
210.565	211.496	73	69
210.848	211.496	54	37
210.848	211.496	72	69
211.139	211.496	51	37
211.434	211.983	63	51
211.434	211.982	75	84
211.436	211.986	36	39
211.436	211.985	48	47
211.702	211.986	66	60
211.703	211.986	72	60
211.987	212.608	61	50
211.989	212.608	73	82
211.99	212.608	49	40
211.993	212.608	37	34
212.255	212.608	65	58
212.256	212.608	70	58
212.539	213.145	72	78
212.542	213.145	60	46
212.543	213.147	39	34
212.543	213.145	51	40
212.816	213.053	63	52
212.819	213.053	66	55
212.9	213.053	58	41
212.984	213.06	61	47
213.06	213.148	65	47
213.148	214.258	70	82
213.149	213.421	53	52
213.151	214.59	41	44
213.421	214.559	53	36
213.701	214.261	58	36
213.981	214.59	61	36
214.258	214.859	70	82
214.261	214.59	58	36
214.559	214.862	53	36
214.709	214.785	58	46
214.786	214.863	64	46
214.866	215.861	70	82
214.867	216.585	42	44
214.867	215.146	54	52
215.146	216.294	54	36
215.433	216.585	60	36
215.724	216.585	64	36
215.724	216.581	72	78
215.861	216.291	70	78
216.007	216.585	58	36
216.007	216.585	69	78
216.291	216.585	70	75
216.294	216.585	54	36
216.581	220.121	72	86
216.582	218.303	41	44
216.585	216.865	53	52
216.865	218.006	53	38
217.149	217.725	65	74
217.151	217.726	57	38
217.439	218.882	60	38
217.725	218.3	65	74
217.726	219.483	57	38
218.006	218.583	53	38
218.3	218.881	65	74
218.303	218.882	41	46
218.583	219.178	53	34
218.881	219.484	65	60
218.882	219.487	41	46
218.882	219.486	60	51
218.882	220.121	63	51
219.178	219.799	53	34
219.483	220.121	57	50
219.484	220.117	65	59
219.486	220.121	60	50
219.487	220.121	41	46
219.799	220.121	53	34
220.032	220.121	61	30
220.117	221.255	65	75
220.12	221.877	34	33
220.12	221.838	46	39
220.4	221.544	53	32
220.684	221.258	58	32
220.971	221.835	61	32
220.971	221.877	66	64
221.255	221.877	65	64
221.258	221.838	58	32
221.544	221.877	53	32
221.835	222.377	61	75
221.836	222.384	73	75
221.838	222.377	46	31
221.838	222.377	58	37
222.116	222.385	65	57
222.385	222.937	72	72
222.389	222.906	48	29
222.389	222.906	57	35
222.389	222.906	63	72
222.667	222.938	65	57
222.938	223.515	70	72
222.939	223.518	61	72
222.941	223.518	49	31
222.941	223.518	58	37
223.225	223.518	65	57
223.441	223.518	63	57
223.515	223.791	53	40
223.515	226.911	70	74
223.516	225.174	41	34
223.791	224.901	53	32
224.076	224.625	57	32
224.355	224.625	69	60
224.356	226.038	63	32
224.625	225.741	57	32
224.625	226.911	69	64
224.901	225.459	53	32
224.901	226.911	72	57
225.1	226.833	61	36
225.174	226.911	41	39
225.174	226.34	65	70
225.178	226.911	29	33
225.459	226.617	53	32
225.741	226.34	57	32
226.038	226.911	63	32
226.34	226.911	57	32
226.34	226.907	65	64
226.617	226.911	53	32
226.833	226.911	61	30
226.907	228.041	65	75
226.911	228.629	34	33
226.911	228.629	46	39
227.189	228.327	53	32
227.47	228.044	58	32
227.757	228.628	61	32
227.757	228.629	66	64
228.041	228.629	65	64
228.044	228.628	58	32
228.327	228.629	53	32
228.626	229.171	73	75
228.628	229.139	58	37
228.628	229.139	61	75
228.629	229.139	46	31
228.901	229.172	65	55
229.172	229.723	72	72
229.174	229.7	57	35
229.174	229.7	63	72
229.175	229.7	48	29
229.454	229.724	65	55
229.724	230.228	61	72
229.725	230.303	70	72
229.727	230.303	58	37
229.728	230.303	49	31
230.015	230.303	65	55
230.228	230.303	61	52
230.302	230.585	51	40
230.302	233.7	68	74
230.303	231.961	39	34
230.585	231.688	51	32
230.862	231.414	55	32
231.141	231.411	67	60
231.142	231.89	61	32
231.411	233.7	67	64
231.414	232.528	55	32
231.688	231.961	51	32
231.688	233.7	70	57
231.89	232.821	61	44
231.96	233.7	63	70
231.961	233.7	39	33
231.961	232.244	51	39
232.244	233.41	51	32
232.528	233.129	55	32
232.821	233.7	61	32
233.127	233.7	73	56
233.127	233.696	75	66
233.129	233.7	55	32
233.41	233.7	51	32
233.696	234.809	75	74
233.697	235.939	44	40
233.697	235.397	72	62
233.98	235.939	51	32
234.257	235.939	56	32
234.544	235.939	60	32
234.544	235.939	77	64
234.809	235.939	63	32
234.809	235.32	75	64
235.104	235.939	68	32
235.32	235.939	75	53
235.395	236.483	80	77
235.397	236.486	72	38
236.486	237.06	79	71
237.06	238.177	77	74
237.063	239.307	49	40
237.063	238.765	73	62
237.344	239.307	53	32
237.624	239.307	58	32
237.911	239.307	79	64
237.912	239.307	61	32
238.177	239.307	65	32
238.177	238.684	77	64
238.471	239.307	70	32
238.684	239.307	77	53
238.762	239.853	82	77
238.765	239.854	73	38
239.854	240.427	80	71
240.28	240.35	70	59
240.35	240.427	73	59
240.428	243.899	79	74
240.43	240.714	51	40
240.431	242.132	39	34
240.714	241.845	51	32
240.991	241.562	55	32
241.275	243.896	77	64
241.277	242.979	61	32
241.562	242.692	55	32
241.562	243.899	75	64
241.845	242.132	51	32
241.981	243.899	63	43
242.058	243.899	67	51
242.131	243.899	73	74
242.132	243.899	39	33
242.132	242.414	51	39
242.414	243.56	51	32
242.692	243.262	55	32
242.976	243.899	72	64
242.979	243.899	61	32
243.262	243.899	55	32
243.262	243.899	70	64
243.56	243.899	51	32
243.723	243.899	68	50
243.812	243.899	71	51
243.896	245.347	44	33
243.896	245.593	77	60
243.899	245.347	56	39
244.176	245.31	59	29
244.463	245.025	62	29
244.74	245.347	65	29
245.025	245.347	62	29
245.31	245.593	59	29
245.593	246.734	75	61
245.597	245.877	56	36
245.88	246.16	60	32
246.164	246.447	63	32
246.448	246.737	68	32
246.738	247.329	73	56
246.741	247.33	67	32
246.741	247.33	75	66
247.028	247.332	63	32
247.333	249.033	72	62
247.333	248.453	75	74
247.334	249.576	44	40
247.615	249.576	51	32
247.9	249.576	56	32
248.187	249.576	60	32
248.187	249.576	77	64
248.453	249.576	63	32
248.453	248.961	75	64
248.74	249.576	68	32
248.961	249.576	75	55
249.031	250.119	80	77
249.033	250.122	72	38
250.122	250.696	79	70
250.697	252.401	73	62
250.697	251.813	77	74
250.7	252.943	49	40
250.98	252.943	53	32
251.264	252.943	58	32
251.553	252.943	79	64
251.554	252.943	61	32
251.813	252.943	65	32
251.813	252.328	77	64
252.107	252.943	70	32
252.328	252.943	77	55
252.398	253.489	82	77
252.401	253.49	73	38
253.49	254.063	80	67
253.916	253.993	70	57
253.993	254.063	73	57
254.067	255.768	39	34
254.067	254.35	51	40
254.067	257.505	79	74
254.35	255.481	51	32
254.634	255.198	55	32
254.918	257.505	77	64
254.921	256.619	61	32
255.194	257.505	75	64
255.198	256.331	55	32
255.481	255.768	51	32
255.624	257.505	63	42
255.694	257.505	67	51
255.766	257.505	73	66
255.768	257.505	39	33
255.768	256.048	51	39
256.048	257.204	51	32
256.331	256.905	55	32
256.619	257.505	61	32
256.619	257.505	72	64
256.903	257.505	70	60
256.905	257.505	55	32
257.204	257.505	51	32
257.501	259.873	56	36
257.501	258.07	68	65
257.504	259.873	60	43
257.787	258.357	72	55
257.788	259.873	63	37
258.068	258.645	75	54
258.07	259.873	68	36
258.354	258.953	80	53
258.357	259.873	72	36
258.645	259.873	75	35
258.645	259.268	84	52
258.953	259.873	80	34
258.953	259.873	87	51
259.265	260.489	92	50
259.268	259.873	84	32
261.158	262.096	68	46
262.05	262.4	70	43
262.344	264.728	68	43
262.995	264.728	60	28
262.996	264.729	54	31
262.998	264.729	44	26
262.998	264.731	51	26
264.731	265.662	68	46
265.61	265.956	70	43
265.903	268.256	68	43
266.519	268.256	61	28
266.52	268.257	44	27
266.523	268.259	53	32
268.259	269.183	68	46
269.137	269.481	70	40
269.428	272.081	68	40
270.044	271.321	62	35
270.045	271.322	44	25
270.047	271.322	47	25
270.048	271.325	53	30
271.326	272.082	63	38
271.327	272.082	54	30
271.329	272.086	44	25
271.329	272.085	48	25
272.086	275.598	68	40
272.088	275.599	60	34
272.089	275.603	44	24
272.089	275.599	66	34
272.092	275.603	51	24
272.093	275.603	56	29
276.197	276.285	65	34
276.286	277.318	68	46
276.288	279.894	37	31
276.289	278.098	49	37
276.582	277.774	53	30
276.877	277.468	56	30
277.168	277.465	67	43
277.171	278.959	61	30
277.318	277.616	68	40
277.465	279.894	67	44
277.468	278.668	56	30
277.616	277.923	68	40
277.774	278.381	53	30
277.774	279.775	70	44
277.923	279.893	68	40
278.098	279.894	49	35
278.098	279.831	65	46
278.381	279.562	53	19
278.665	279.894	89	35
278.668	279.256	56	19
278.763	279.894	87	35
278.858	279.894	85	36
278.959	279.894	61	19
278.959	279.894	84	36
279.054	279.894	82	37
279.152	279.894	80	37
279.254	279.894	78	38
279.256	279.894	56	19
279.354	279.894	77	38
279.456	279.894	75	39
279.562	279.894	53	19
279.562	279.894	73	39
279.663	279.894	72	40
279.775	279.894	70	40
279.831	279.894	65	35
279.893	280.919	68	46
279.894	283.489	37	31
279.894	281.697	49	37
280.18	281.374	53	30
280.475	281.066	56	30
280.772	281.065	67	43
280.775	282.558	61	30
280.919	281.22	68	40
281.065	283.489	67	44
281.066	282.264	56	30
281.22	281.522	68	40
281.371	283.489	70	43
281.374	281.98	53	30
281.522	283.489	68	40
281.697	283.489	49	35
281.697	283.489	65	46
281.98	283.16	53	19
282.263	283.489	89	34
282.264	282.854	56	19
282.365	283.489	87	34
282.456	283.489	85	34
282.557	283.489	84	35
282.558	283.489	61	19
282.655	283.489	82	35
282.752	283.489	80	36
282.852	283.489	78	36
282.854	283.489	56	19
282.956	283.489	77	37
283.054	283.488	75	37
283.16	283.489	53	19
283.16	283.373	73	38
283.261	283.489	72	38
283.373	283.489	73	38
283.488	285.298	44	31
283.488	284.517	75	46
283.489	283.778	56	37
283.778	284.972	56	30
284.077	284.664	60	30
284.367	287.089	74	42
284.369	286.156	66	30
284.517	284.969	75	40
284.661	286.547	78	43
284.664	285.866	60	30
284.814	286.653	77	40
284.969	286.758	75	40
284.972	285.298	56	30
285.122	286.862	73	40
285.298	287.089	44	37
285.298	285.578	56	37
285.298	287.089	72	46
285.578	286.76	56	19
285.865	287.089	90	35
285.866	286.452	60	19
285.963	287.089	89	35
286.057	287.089	87	35
286.156	287.089	66	19
286.156	287.089	85	36
286.253	287.089	84	36
286.352	287.089	82	36
286.45	287.089	80	37
286.452	287.089	60	19
286.547	287.089	78	37
286.653	287.089	77	37
286.758	287.089	75	38
286.76	287.089	56	19
286.862	286.967	73	38
286.967	287.087	73	38
287.023	287.089	65	34
287.087	288.896	49	37
287.087	288.108	73	46
287.089	290.688	37	31
287.38	288.57	53	30
287.671	288.263	56	30
287.965	288.262	72	42
287.969	289.757	61	30
288.108	288.412	73	40
288.262	290.46	72	40
288.263	289.466	56	30
288.412	288.72	73	40
288.569	290.149	77	43
288.57	289.179	53	30
288.72	290.358	73	40
288.895	290.688	68	46
288.896	290.688	49	35
289.179	290.359	53	19
289.463	290.688	89	35
289.466	290.052	56	19
289.561	290.688	87	35
289.655	290.688	85	35
289.757	290.688	61	19
289.757	290.688	84	36
289.851	290.688	82	36
289.95	290.688	80	37
290.051	290.688	78	37
290.052	290.688	56	19
290.149	290.688	77	38
290.251	290.688	75	38
290.358	290.566	73	39
290.359	290.688	53	19
290.46	290.688	72	39
290.566	290.688	73	39
290.621	290.688	66	34
290.684	291.71	70	46
290.687	292.49	42	31
290.687	292.491	54	37
290.978	292.164	58	30
291.268	294.286	60	30
291.566	292.162	69	43
291.567	293.355	66	30
291.71	292.011	70	40
291.854	294.054	72	44
291.856	293.064	61	30
292.011	292.319	70	40
292.162	294.286	69	43
292.164	292.777	58	30
292.319	294.165	70	40
292.487	293.951	73	46
292.49	294.286	42	31
292.491	294.286	54	37
292.777	293.953	58	19
292.777	294.286	94	35
292.869	294.286	92	35
292.963	294.286	90	35
293.062	294.286	89	36
293.064	293.652	61	19
293.156	294.286	87	36
293.253	294.286	85	37
293.352	294.286	84	37
293.355	294.286	66	19
293.446	294.286	82	38
293.544	294.286	80	38
293.649	294.286	78	38
293.652	294.286	61	19
293.747	294.286	77	39
293.852	294.286	75	39
293.951	294.286	73	40
293.953	294.286	58	19
294.054	294.286	72	40
294.165	294.286	70	42
294.222	294.286	65	34
294.282	295.308	68	46
294.285	296.096	37	31
294.285	296.095	49	37
294.576	295.763	56	30
294.867	295.462	61	30
295.165	295.459	67	43
295.166	296.092	65	30
295.308	295.609	68	40
295.459	297.884	67	44
295.462	296.663	61	30
295.609	295.917	68	40
295.763	296.376	56	30
295.763	297.449	70	44
295.917	297.55	68	40
296.092	296.953	65	46
296.095	297.884	49	37
296.096	297.884	37	31
296.374	297.884	89	35
296.376	297.55	56	19
296.47	297.884	87	35
296.567	297.884	85	35
296.662	297.884	84	36
296.663	297.247	61	19
296.754	297.884	82	36
296.855	297.884	80	37
296.953	297.764	65	19
296.953	297.884	78	37
297.05	297.884	77	38
297.147	297.884	75	38
297.246	297.884	73	38
297.247	297.884	61	19
297.344	297.884	72	39
297.449	297.883	70	39
297.55	297.884	56	19
297.55	297.884	68	40
297.652	297.82	66	40
297.764	297.884	65	42
297.82	297.884	66	34
297.883	299.688	54	37
297.883	298.905	70	46
297.884	299.689	42	31
298.173	299.366	58	30
298.465	301.484	60	30
298.764	299.364	69	43
298.765	300.553	66	30
298.905	299.209	70	40
299.058	301.257	72	43
299.059	300.263	61	30
299.209	299.517	70	40
299.364	301.484	69	43
299.366	299.976	58	30
299.517	301.362	70	40
299.686	301.155	73	46
299.688	301.484	54	37
299.689	301.484	42	31
299.972	301.484	94	43
299.976	301.156	58	19
300.067	301.484	92	43
300.165	301.484	90	43
300.26	301.484	89	43
300.263	300.848	61	19
300.353	301.484	87	43
300.452	301.484	85	42
300.553	301.484	66	19
300.553	301.484	84	42
300.641	301.484	82	42
300.746	301.484	80	42
300.847	301.484	78	42
300.848	301.484	61	19
300.946	301.484	77	40
301.047	301.484	75	40
301.155	301.484	73	40
301.156	301.484	58	19
301.257	301.484	72	40
301.362	301.484	70	40
301.418	301.484	65	34
301.481	303.293	37	31
301.481	302.514	68	46
301.484	303.293	49	37
301.775	302.968	56	30
302.069	302.66	61	30
302.36	302.657	67	43
302.363	303.29	65	30
302.514	302.807	68	40
302.657	305.083	67	43
302.66	303.858	61	30
302.807	303.115	68	40
302.965	305.083	70	43
302.968	303.57	56	30
303.115	305.083	68	40
303.29	304.152	65	46
303.293	305.083	37	31
303.293	305.083	49	37
303.57	304.757	56	19
303.858	304.445	61	19
303.858	305.083	89	36
303.956	305.083	87	36
304.05	305.083	85	37
304.152	305.083	65	19
304.152	305.083	84	37
304.246	305.083	82	38
304.347	305.083	80	39
304.445	305.083	61	19
304.445	305.083	78	39
304.544	305.083	77	40
304.649	305.082	75	42
304.753	304.961	73	42
304.757	305.083	56	19
304.855	305.047	72	43
304.961	305.083	73	43
305.019	305.083	66	34
305.047	305.083	72	34
305.082	306.892	32	31
305.082	306.112	75	46
305.083	306.893	44	37
305.373	306.567	56	30
305.67	306.258	60	30
305.962	306.828	66	30
305.962	306.566	74	44
306.112	306.406	75	40
306.258	307.459	60	30
306.258	307.945	77	44
306.406	306.713	75	40
306.566	308.688	74	43
306.567	307.175	56	30
306.713	308.044	75	40
306.828	307.751	66	34
306.857	308.142	73	34
306.892	308.688	32	31
306.892	307.847	78	46
306.893	308.688	44	37
307.171	308.688	90	35
307.175	308.355	56	19
307.266	308.688	89	35
307.364	308.688	87	35
307.459	308.047	60	19
307.459	308.688	85	36
307.557	308.688	84	36
307.648	308.688	82	37
307.75	308.688	80	37
307.751	308.565	66	19
307.847	308.688	78	38
307.945	308.688	77	38
308.044	308.688	75	39
308.047	308.688	60	19
308.142	308.684	73	39
308.246	308.688	72	40
308.352	308.688	70	40
308.355	308.688	56	19
308.457	308.688	68	42
308.565	308.688	66	42
308.684	309.562	65	39
308.684	309.71	73	46
308.688	308.823	37	31
308.688	308.827	49	37
308.97	310.164	56	30
309.268	309.856	61	30
309.562	310.49	65	30
309.562	310.162	72	44
309.71	310.011	73	40
309.854	311.642	75	44
309.856	311.06	61	30
310.011	310.315	73	40
310.162	311.844	72	44
310.164	310.774	56	30
310.315	311.747	73	40
310.49	311.351	65	46
310.491	312.286	37	31
310.491	312.286	49	37
310.491	311.543	77	46
310.773	312.286	90	40
310.774	311.952	56	19
310.871	312.286	89	40
310.963	312.286	87	40
311.057	312.286	85	40
311.06	311.644	61	19
311.155	312.286	84	40
311.249	312.286	82	39
311.348	312.286	80	39
311.351	312.222	65	19
311.446	312.286	78	39
311.543	312.286	77	39
311.642	312.286	75	38
311.644	312.286	61	19
311.747	312.283	73	38
311.844	312.286	72	38
311.95	312.286	70	38
311.952	312.286	56	19
312.055	312.286	68	38
312.166	312.286	66	39
312.222	312.286	65	34
312.283	314.213	73	46
312.286	314.213	37	28
312.286	314.213	49	34
312.589	313.825	53	23
312.902	313.51	56	23
313.218	314.147	68	39
313.22	314.213	61	23
313.507	314.213	65	39
313.51	314.213	56	23
313.825	314.213	53	23
314.147	316.055	60	36
314.147	316.055	68	43
314.151	314.301	32	27
314.151	314.302	44	32
314.452	316.055	44	24
314.767	316.055	48	24
315.082	316.055	66	40
315.083	316.055	51	24
315.393	316.055	63	40
315.397	316.055	54	24
315.705	316.055	56	24
315.992	316.055	77	25
316.02	316.055	80	25
316.051	317.839	89	40
316.052	317.839	37	24
316.052	316.205	49	29
316.356	317.543	56	18
316.664	317.248	61	18
316.807	317.839	85	36
316.955	317.839	80	36
316.958	317.543	65	18
317.098	317.839	77	36
317.244	317.839	73	36
317.248	317.696	61	18
317.388	317.839	68	36
317.543	317.857	56	18
317.543	317.839	65	36
317.696	317.839	61	36
317.808	317.839	60	25
317.832	317.86	66	25
317.861	319.705	70	39
317.864	319.705	32	22
317.865	318.165	44	27
318.165	319.705	44	17
318.473	319.705	48	17
318.779	319.705	68	35
318.781	319.705	51	17
319.085	319.705	63	35
319.086	319.705	54	17
319.393	319.705	65	35
319.394	319.705	56	17
319.702	320.314	49	14
319.702	320.314	53	17
319.702	320.16	61	35
319.852	320.312	65	32
320.003	320.315	56	32
320.16	320.923	61	32
320.312	320.924	65	36
320.314	321.875	49	14
320.314	321.875	53	14
320.315	320.924	56	17
320.458	321.875	68	35
320.612	321.875	73	35
320.763	321.875	77	35
320.923	321.568	61	14
320.923	321.875	80	34
320.924	321.571	56	14
320.924	321.568	65	17
321.074	321.875	85	34
321.238	321.875	89	34
321.403	321.875	92	34
321.567	322.18	97	38
321.568	322.229	61	14
321.568	322.232	65	17
321.571	322.232	56	14
322.233	322.729	68	53
322.897	323.39	68	53
323.517	323.548	60	35
323.548	323.577	63	36
323.577	324.799	68	53
323.58	325.438	32	32
323.58	325.439	44	38
323.885	325.1	56	31
324.189	324.799	60	31
324.497	326.639	70	48
324.498	326.349	66	31
324.799	326.041	60	31
324.799	325.379	68	48
325.1	325.739	56	31
325.379	326.195	68	39
325.407	327.246	72	39
325.438	327.246	32	32
325.438	327.246	78	63
325.439	327.246	44	38
325.739	326.936	56	38
326.041	326.639	60	30
326.195	326.492	68	46
326.349	327.246	66	30
326.349	326.933	67	46
326.492	326.782	68	46
326.639	327.246	60	30
326.639	327.246	70	46
326.782	327.077	68	46
326.933	327.246	67	46
326.936	327.246	56	30
327.077	327.242	68	46
327.209	327.246	65	39
327.242	328.42	68	53
327.245	329.026	37	32
327.245	329.026	49	38
327.538	328.704	56	31
327.833	328.424	61	31
328.137	330.829	70	48
328.138	328.97	65	31
328.42	328.995	68	48
328.424	329.629	61	31
328.704	329.327	56	31
328.97	329.937	65	39
328.995	330.829	68	39
329.023	329.782	77	63
329.026	330.829	37	32
329.026	330.829	49	38
329.327	330.517	56	38
329.629	330.227	61	30
329.782	330.829	77	46
329.936	330.517	75	46
329.937	330.829	65	30
330.08	330.37	73	46
330.227	330.829	61	30
330.227	330.796	72	46
330.37	330.664	73	46
330.517	330.829	56	30
330.517	330.829	75	46
330.664	330.829	73	46
330.796	330.829	72	39
330.825	332.599	32	32
330.825	331.211	78	65
330.828	332.596	44	38
331.116	332.295	56	31
331.116	331.707	80	47
331.211	331.404	78	47
331.308	332.884	77	47
331.404	332.292	78	59
331.406	332.002	60	31
331.707	332.54	66	31
331.707	334.375	80	54
332.001	334.375	82	59
332.002	333.177	60	31
332.292	333.765	78	50
332.295	332.886	56	31
332.54	333.478	66	39
332.568	334.063	72	39
332.596	334.375	44	38
332.596	332.985	75	65
332.599	334.375	32	32
332.884	333.475	77	47
332.886	334.063	56	38
332.985	333.174	75	47
333.076	334.375	74	47
333.174	334.371	75	59
333.177	333.768	60	30
333.475	334.375	77	54
333.478	334.375	66	31
333.765	334.375	78	59
333.768	334.375	60	30
334.063	334.375	56	30
334.063	334.375	72	50
334.318	334.375	65	39
334.346	334.375	68	39
334.371	336.117	75	65
334.374	336.117	37	32
334.374	336.117	49	38
334.661	335.827	56	38
334.948	335.539	61	30
335.102	335.389	73	47
335.249	335.536	72	47
335.253	336.117	65	31
335.389	335.679	73	47
335.536	336.117	72	47
335.539	336.117	61	30
335.679	335.969	73	47
335.826	336.117	77	47
335.827	336.12	56	30
335.969	336.117	73	47
336.124	337.811	68	47
336.125	337.811	37	32
336.125	337.811	49	38
336.425	337.615	56	38
336.72	337.321	61	30
337.017	337.811	65	31
337.32	337.927	73	47
337.321	337.811	61	30
337.615	337.93	56	30
337.867	337.899	65	36
337.899	337.93	71	38
337.931	339.135	73	53
337.933	339.743	37	32
337.934	339.743	49	38
338.231	339.431	56	31
338.536	339.138	61	31
338.841	341.353	75	48
338.844	340.633	65	31
339.135	339.716	73	48
339.138	340.338	61	31
339.431	340.041	56	31
339.687	341.353	71	39
339.716	340.93	73	39
339.74	341.353	80	63
339.743	341.353	37	32
339.743	341.353	49	38
340.041	341.231	56	38
340.338	340.933	61	30
340.633	341.353	65	30
340.93	341.538	73	63
340.933	341.353	61	30
341.231	341.539	56	30
341.486	341.513	66	39
341.514	341.539	70	39
341.542	342.747	73	53
341.543	343.359	37	32
341.543	343.359	49	38
341.847	343.04	58	31
342.148	342.75	61	31
342.459	344.248	66	31
342.459	345.157	75	48
342.747	343.328	73	48
342.75	343.946	61	31
343.04	345.162	58	31
343.302	345.162	69	35
343.328	345.162	73	35
343.356	345.162	78	54
343.359	345.158	37	32
343.359	345.161	49	38
343.653	345.162	57	38
343.946	344.549	61	30
344.248	345.162	66	30
344.548	345.162	77	54
344.549	345.162	61	30
344.843	345.162	56	30
345.126	345.162	72	35
345.157	346.88	75	54
345.158	346.879	37	32
345.161	346.88	49	38
345.294	346.88	78	55
345.438	346.88	81	57
345.584	346.88	84	58
345.733	346.88	87	59
345.734	346.88	60	25
345.735	346.88	57	25
345.735	346.88	63	25
345.735	346.88	66	30
345.869	346.88	90	59
346.015	346.877	93	60
346.156	346.73	96	61
346.299	346.582	99	63
346.446	346.88	102	64
346.582	346.88	99	64
346.73	346.88	96	65
346.877	348.591	93	66
346.879	348.591	25	29
346.879	348.591	37	35
347.013	348.591	90	65
347.159	348.591	87	65
347.303	348.591	84	65
347.445	348.591	81	64
347.446	348.591	49	24
347.447	348.591	54	24
347.447	348.591	56	29
347.45	348.591	51	24
347.587	348.591	78	64
347.734	348.591	75	65
347.87	348.591	72	66
348.017	348.591	69	67
348.161	348.591	66	69
348.301	348.591	63	69
348.447	348.591	60	70
348.59	349.022	61	69
348.732	350.569	65	70
348.875	349.305	56	69
349.022	350.569	61	72
349.162	349.596	53	70
349.305	350.569	56	73
349.445	349.893	49	72
349.596	350.569	53	75
349.74	350.198	44	73
349.893	350.569	49	77
350.048	350.569	41	75
350.198	350.569	44	80
350.356	350.918	37	86
350.999	351.324	68	67
351.65	351.975	68	67
352.301	353.239	68	59
352.302	353.477	56	55
352.302	353.24	65	50
352.304	353.477	61	55
352.305	353.481	49	46
353.194	353.536	70	57
353.481	354.146	68	57
353.483	354.146	65	48
353.484	354.149	49	42
353.484	354.146	61	50
353.485	354.149	56	50
354.149	355.983	61	45
354.153	355.659	65	53
354.156	355.984	49	39
354.156	355.983	56	46
354.461	354.758	80	27
354.461	354.755	85	32
354.461	355.92	89	32
354.755	355.059	77	27
354.755	355.92	85	32
354.758	355.059	80	32
355.059	355.353	77	32
355.059	355.92	80	32
355.06	355.353	73	27
355.353	355.659	73	32
355.353	355.92	77	32
355.357	355.658	68	27
355.658	355.92	68	32
355.659	355.984	65	27
355.659	355.92	73	32
355.987	356.921	65	51
355.988	357.16	56	46
355.988	357.159	61	55
355.988	356.922	68	60
355.99	357.162	49	46
356.872	357.211	70	58
357.163	357.785	65	49
357.163	357.786	68	58
357.164	357.786	61	50
357.166	357.789	56	42
357.167	357.79	49	42
357.79	359.609	61	46
357.793	359.61	49	46
357.793	359.609	56	46
357.793	359.299	65	55
358.111	358.402	85	32
358.112	358.401	80	27
358.112	359.539	89	32
358.401	358.703	80	32
358.402	358.707	77	27
358.402	359.539	85	32
358.703	358.999	73	27
358.703	359.539	80	32
358.707	359.0	77	32
358.999	359.298	73	32
359.0	359.298	68	27
359.0	359.539	77	32
359.298	359.539	68	32
359.298	359.539	73	32
359.299	359.613	65	27
359.613	360.551	65	51
359.614	360.551	68	61
359.616	360.789	49	46
359.616	360.788	61	55
359.617	360.789	56	46
360.502	360.838	70	58
360.789	361.411	65	49
360.792	361.416	56	42
360.792	361.415	68	58
360.793	361.408	61	50
360.795	361.418	49	42
361.418	362.349	65	63
361.419	362.594	56	54
361.419	362.35	61	53
361.422	362.595	49	45
362.3	362.643	66	57
362.595	363.231	61	48
362.596	363.232	65	57
362.597	363.232	49	40
362.598	363.233	56	48
363.235	364.995	61	42
363.235	366.169	65	50
363.236	364.702	56	48
363.239	364.114	49	40
363.533	373.703	32	23
363.534	363.82	37	23
363.534	363.816	41	28
363.816	364.115	41	23
363.82	373.703	37	23
363.82	364.114	44	28
364.114	364.405	44	23
364.114	364.405	49	28
364.115	373.703	41	23
364.404	364.702	53	28
364.405	365.287	44	23
364.405	364.698	49	23
364.698	365.286	49	23
364.702	364.996	53	23
364.702	364.996	56	28
364.995	365.882	61	28
364.996	365.289	53	23
364.996	365.583	56	23
365.286	365.584	49	23
365.287	373.703	44	23
365.289	365.58	53	28
365.58	365.882	53	23
365.583	365.877	56	28
365.584	373.703	49	23
365.877	366.172	56	23
365.882	373.703	53	23
365.882	366.171	61	28
366.169	366.467	65	28
366.171	366.466	61	23
366.172	367.054	56	23
366.466	367.05	61	23
366.466	366.763	68	28
366.467	366.763	65	23
366.76	367.657	73	28
366.763	367.054	65	23
366.763	367.348	68	23
367.05	367.348	61	23
367.054	373.703	56	23
367.054	367.349	65	28
367.348	373.703	61	23
367.348	367.657	68	23
367.349	367.656	65	28
367.656	373.703	65	23
367.657	367.964	68	23
367.657	367.96	73	28
367.96	368.265	73	28
367.964	368.874	68	23
367.964	368.268	77	28
368.265	368.874	73	23
368.266	368.573	80	28
368.268	368.573	77	28
368.569	369.517	85	28
368.573	368.873	77	23
368.573	369.192	80	28
368.873	369.196	77	28
368.874	373.703	68	23
368.874	369.195	73	28
369.192	369.518	80	28
369.195	373.703	73	23
369.196	369.518	77	28
369.517	369.86	85	28
369.518	373.703	77	23
369.518	369.861	80	28
369.86	370.222	85	28
369.861	373.703	80	23
369.864	370.218	89	28
370.218	370.732	89	28
370.221	370.733	92	28
370.222	373.703	85	23
370.732	373.703	89	26
370.733	373.703	92	31
370.733	373.703	97	31
374.261	375.527	56	19
374.261	375.527	65	23
374.264	375.205	44	28
374.264	375.528	61	19
374.265	375.209	32	23
375.209	375.528	34	19
375.212	375.531	46	23
375.531	376.217	56	19
375.532	376.217	65	23
375.534	376.221	44	23
375.534	376.218	61	19
375.535	376.221	32	19
376.224	377.606	56	19
376.224	377.607	61	19
376.225	377.239	41	28
376.225	377.607	65	23
376.228	377.239	29	23
377.24	377.608	42	23
377.243	377.609	30	19
377.61	378.499	56	19
377.61	378.499	61	19
377.613	378.5	65	23
377.614	378.503	29	19
377.614	378.503	41	23
378.503	383.875	56	19
378.506	383.876	61	19
378.506	383.876	65	23
378.507	383.878	25	23
378.51	383.878	37	28
