OnsetTime	OffsetTime	MidiPitch	Velocity
0.500004	0.763156	59	44
0.763156	1.1579	59	40
1.1579	1.28947	59	41
1.28947	1.68421	59	44
1.68421	1.81579	59	40
1.81579	2.07894	59	44
2.07894	2.47368	59	40
2.47368	2.60526	59	40
2.60526	3.00526	59	44
2.60526	3.17587	65	49
2.60526	3.17587	68	58
3.00526	3.13859	59	38
3.13859	3.40174	59	44
3.13859	3.40174	66	50
3.13859	3.40174	69	60
3.40174	3.79648	59	40
3.40174	4.02235	66	47
3.40174	4.02235	69	56
3.79648	3.92806	59	40
3.79648	4.02235	64	44
3.79648	4.02235	73	52
3.92806	4.32575	59	44
3.92806	4.32575	63	47
3.92806	4.46028	71	56
4.32575	4.46028	59	40
4.32575	4.46028	63	42
4.32575	4.46028	67	51
4.46028	4.72344	59	44
4.46028	5.21139	64	47
4.46028	4.72344	68	56
4.72344	5.11818	59	40
4.72344	5.21139	68	49
4.72344	5.21139	71	58
5.11818	5.24977	59	40
5.11818	5.24977	76	48
5.11818	5.24977	80	58
5.24977	5.64627	59	44
5.24977	5.7796	75	46
5.24977	5.7796	78	55
5.64627	5.7796	59	40
5.64627	5.7796	73	44
5.64627	5.7796	76	52
5.7796	6.04627	59	44
5.7796	5.95738	71	47
5.7796	5.95738	75	56
5.86849	6.04627	73	40
5.86849	6.57608	76	48
5.95738	6.44451	71	40
5.95738	6.44451	75	48
6.04627	6.44451	59	40
6.04627	6.58393	69	45
6.04627	6.57608	73	53
6.44451	6.57608	59	40
6.44451	6.58393	71	44
6.44451	6.58393	75	52
6.57608	6.98403	59	44
6.57608	6.98403	73	47
6.57608	7.07779	76	56
6.98403	7.12293	59	44
6.98403	7.12293	69	44
6.98403	7.12293	73	52
7.12293	7.92741	52	39
7.12293	7.3861	59	50
7.12293	7.92741	68	40
7.12293	7.92741	71	48
7.3861	7.92741	59	48
7.785	7.92741	64	49
7.92074	8.41629	63	49
8.32074	8.45407	62	45
8.45407	9.80128	61	48
8.45407	9.14277	68	48
8.45407	9.12626	71	49
8.45407	9.14277	77	56
8.72433	9.14277	69	51
8.72433	9.14277	73	49
8.72433	9.14277	78	55
9.12626	9.26778	71	50
9.12626	9.26778	74	55
9.12626	9.26778	80	55
9.19702	9.28961	83	50
9.26778	9.74132	73	46
9.26778	9.80128	77	49
9.26778	9.74132	81	58
9.66553	9.80128	71	48
9.66553	9.80128	80	57
9.80128	10.5908	66	39
9.80128	10.4658	71	50
9.80128	10.5908	73	46
9.80128	10.4658	80	60
9.80128	10.5908	85	46
10.0644	10.4658	69	49
10.0644	10.4658	78	58
10.4592	10.5908	68	46
10.4592	10.5908	77	50
10.5908	10.9916	69	48
10.5908	11.0707	78	53
10.9916	11.9186	64	46
10.9916	11.1292	69	55
10.9916	11.9186	72	55
11.1292	11.9186	59	37
11.1292	11.7871	63	49
11.1292	11.9186	69	47
11.1292	11.9186	71	57
11.3923	11.9186	62	49
11.3923	11.9186	77	58
11.7871	11.9186	63	49
11.7871	11.9186	78	59
11.9186	12.4662	59	37
11.9186	12.4662	73	46
11.9186	12.4662	81	61
12.324	12.4662	71	48
12.324	12.4662	80	57
12.4662	13.693	64	34
12.4662	13.2286	69	46
12.4662	13.693	71	38
12.4662	13.2286	78	55
12.4662	13.5521	83	42
12.7376	13.2286	68	45
12.7376	13.2286	76	52
13.1449	13.2806	67	41
13.1449	13.2806	75	50
13.2738	13.5453	76	50
13.2806	13.693	68	37
13.693	13.8338	65	49
13.693	13.8338	68	58
13.8338	14.097	59	44
13.8338	14.097	66	50
13.8338	14.097	69	60
14.097	14.4917	59	40
14.097	14.7176	66	47
14.097	14.7176	69	56
14.4917	14.6233	59	40
14.4917	14.7176	64	44
14.4917	14.7176	73	52
14.6233	15.021	59	44
14.6233	15.021	63	47
14.6233	15.1555	71	56
15.021	15.1555	59	40
15.021	15.1555	63	42
15.021	15.1555	67	51
15.1555	15.4187	59	44
15.1555	15.9066	64	47
15.1555	15.4187	68	56
15.4187	15.8134	59	40
15.4187	15.9066	68	49
15.4187	15.9066	71	58
15.8134	15.945	59	40
15.8134	15.945	76	50
15.8134	15.945	80	60
15.945	16.3415	59	44
15.945	16.4748	75	46
15.945	16.4748	78	55
16.3415	16.4748	59	40
16.3415	16.4748	73	44
16.3415	16.4748	76	52
16.4748	16.738	59	44
16.4748	16.6503	71	47
16.4748	16.6503	75	56
16.5625	16.738	73	40
16.5625	17.2643	76	48
16.6503	17.1327	71	40
16.6503	17.1327	75	48
16.738	17.1327	59	40
16.738	17.2721	69	45
16.738	17.2643	73	53
17.1327	17.2643	59	40
17.1327	17.2721	71	44
17.1327	17.2721	75	52
17.2643	17.6723	59	44
17.2643	17.6723	73	47
17.2643	17.766	76	56
17.6723	17.8112	59	44
17.6723	17.8112	69	44
17.6723	17.8112	73	52
17.8112	18.6156	52	50
17.8112	18.609	68	40
17.8112	18.6156	71	48
18.0743	18.6156	59	48
18.4732	18.6156	64	51
18.609	19.1045	68	54
19.009	19.1423	71	55
19.1423	19.9318	70	49
19.1423	20.4702	72	59
19.1423	19.9318	76	52
19.1423	19.8002	81	65
19.4055	19.9131	79	61
19.8002	19.9318	81	61
19.9318	20.4702	69	55
19.9318	20.4117	84	57
19.9384	20.4767	79	51
20.3326	20.4702	77	50
20.4702	21.2644	69	41
20.4702	21.8074	71	49
20.4702	21.2644	75	48
20.4702	21.1304	80	57
20.7333	21.2454	78	51
21.1304	21.2644	80	51
21.2644	21.8074	68	46
21.2644	21.8074	78	44
21.2644	21.7489	83	47
21.6698	21.8074	76	50
21.8074	22.4961	71	48
21.8074	22.4796	74	49
21.8074	22.4961	77	56
22.0777	22.4961	69	51
22.0777	22.4961	73	49
22.0777	22.4961	78	55
22.4796	22.6211	65	55
22.4796	22.6211	74	55
22.4796	22.6211	80	55
22.6211	23.1546	66	44
22.6211	23.1546	73	48
22.6211	23.1546	81	58
23.1546	23.9441	59	39
23.1546	23.8191	69	50
23.1546	23.4178	75	50
23.1546	23.8191	78	60
23.4178	23.8191	73	55
23.4178	23.8125	75	49
23.4178	23.8191	81	58
23.8125	23.9441	71	42
23.8125	23.9441	75	45
23.8125	23.9441	80	53
23.9441	24.4884	64	36
23.9441	24.4884	68	47
23.9441	24.4884	71	42
23.9441	24.4884	76	55
24.4884	24.7516	59	44
24.4884	24.7516	66	50
24.4884	24.7516	69	60
24.7516	25.1463	59	40
24.7516	25.3722	66	47
24.7516	25.3722	69	56
25.1463	25.2779	59	40
25.1463	25.3722	64	44
25.1463	25.3722	73	52
25.2779	25.6756	59	44
25.2779	25.6756	63	47
25.2779	25.8101	71	56
25.6756	25.8101	59	40
25.6756	25.8101	63	42
25.6756	25.8101	67	51
25.8101	26.0733	59	44
25.8101	26.5612	64	47
25.8101	26.0733	68	56
26.0733	26.468	59	40
26.0733	26.5612	68	49
26.0733	26.5612	71	58
26.468	26.5996	59	40
26.468	26.5996	76	50
26.468	26.5996	80	60
26.5996	26.9961	59	44
26.5996	27.1294	75	46
26.5996	27.1294	78	55
26.9961	27.1294	59	40
26.9961	27.1294	73	44
26.9961	27.1294	76	52
27.1294	27.3926	59	44
27.1294	27.3049	71	47
27.1294	27.3049	75	56
27.2172	27.3926	73	40
27.2172	27.9189	76	48
27.3049	27.7873	71	40
27.3049	27.7873	75	48
27.3926	27.7873	59	40
27.3926	27.9268	69	45
27.3926	27.9189	73	53
27.7873	27.9189	59	40
27.7873	27.9268	71	44
27.7873	27.9268	75	52
27.9189	28.3269	59	44
27.9189	28.3269	73	47
27.9189	28.4206	76	56
28.3269	28.4658	59	44
28.3269	28.4658	69	44
28.3269	28.4658	73	52
28.4658	29.2702	52	39
28.4658	28.7289	59	50
28.4658	29.2702	68	40
28.4658	29.2702	71	48
28.7289	29.2702	59	48
29.1278	29.2702	64	49
29.2636	29.7591	63	49
29.6636	29.7969	62	45
29.7969	31.1441	61	48
29.7969	30.4856	68	48
29.7969	30.4691	71	49
29.7969	30.4856	77	56
30.0672	30.4856	69	51
30.0672	30.4856	73	49
30.0672	30.4856	78	55
30.4691	30.6106	71	50
30.4691	30.6106	74	55
30.4691	30.6106	80	55
30.5399	30.6324	83	50
30.6106	31.0842	73	46
30.6106	31.1441	77	46
30.6106	31.0842	81	55
31.0084	31.1441	71	48
31.0084	31.1441	80	57
31.1441	31.9336	66	39
31.1441	31.8086	71	50
31.1441	31.9336	73	43
31.1441	31.8086	80	60
31.1441	31.9336	85	46
31.4073	31.8086	69	49
31.4073	31.8086	78	58
31.802	31.9336	68	44
31.802	31.9336	77	51
31.9336	32.3344	69	48
31.9336	32.4135	78	55
32.3344	32.472	64	46
32.3344	32.472	69	55
32.3344	32.472	72	55
32.472	33.2615	59	39
32.472	33.1299	63	49
32.472	33.2615	69	47
32.472	33.2615	71	57
32.7352	33.2615	62	49
32.7352	33.2615	77	58
33.1299	33.2615	63	49
33.1299	33.2615	78	59
33.2615	33.809	59	39
33.2615	33.809	73	49
33.2615	33.809	75	47
33.2615	33.809	81	62
33.6668	33.809	71	48
33.6668	33.809	80	57
33.809	35.0358	64	34
33.809	34.5714	69	46
33.809	35.0358	71	39
33.809	34.5714	78	55
33.809	34.895	83	40
34.0805	34.5714	68	45
34.0805	34.5714	76	52
34.4877	34.6235	67	41
34.4877	34.6235	75	50
34.6167	34.8882	76	50
34.6235	35.0358	68	37
35.0358	35.1767	64	49
35.0358	35.1767	68	58
35.1767	35.4398	59	44
35.1767	35.4398	66	50
35.1767	35.4398	69	60
35.4398	35.8346	59	40
35.4398	36.0604	66	47
35.4398	36.0604	69	56
35.8346	35.9661	59	40
35.8346	36.0604	64	44
35.8346	36.0604	73	52
35.9661	36.3638	59	44
35.9661	36.3638	63	47
35.9661	36.4983	71	56
36.3638	36.4983	59	40
36.3638	36.4983	63	42
36.3638	36.4983	67	51
36.4983	36.7615	59	44
36.4983	37.2495	64	47
36.4983	36.7615	68	56
36.7615	37.1562	59	40
36.7615	37.2495	68	49
36.7615	37.2495	71	58
37.1562	37.2878	59	40
37.1562	37.2878	76	50
37.1562	37.2878	80	60
37.2878	37.6843	59	44
37.2878	37.8177	75	46
37.2878	37.8177	78	55
37.6843	37.8177	59	40
37.6843	37.8177	73	44
37.6843	37.8177	76	52
37.8177	38.0808	59	44
37.8177	37.9931	71	47
37.8177	37.9931	75	56
37.9054	38.0808	73	40
37.9054	38.6072	76	48
37.9931	38.4756	71	40
37.9931	38.4756	75	48
38.0808	38.4756	59	40
38.0808	38.615	69	45
38.0808	38.6072	73	53
38.4756	38.6072	59	40
38.4756	38.615	71	44
38.4756	38.615	75	52
38.6072	39.0151	59	44
38.6072	39.0151	73	47
38.6072	39.1089	76	56
39.0151	39.154	59	44
39.0151	39.154	69	44
39.0151	39.154	73	52
39.154	39.9585	52	50
39.154	39.9518	68	40
39.154	39.9585	71	48
39.4172	39.9585	59	48
39.8161	39.9585	64	50
39.9518	40.4474	68	54
40.3518	40.4851	71	55
40.4851	41.2746	70	49
40.4851	41.813	72	59
40.4851	41.2746	76	53
40.4851	41.143	81	67
40.7483	41.256	79	61
41.143	41.2746	81	61
41.2746	41.813	69	55
41.2746	41.7545	84	53
41.2812	41.8196	79	61
41.6754	41.813	77	50
41.813	42.6072	69	41
41.813	43.1503	71	49
41.813	42.6072	75	46
41.813	42.4733	80	57
42.0762	42.5882	78	51
42.4733	42.6072	80	51
42.6072	43.1503	68	46
42.6072	43.1503	78	47
42.6072	43.0918	83	45
43.0127	43.1503	76	50
43.1503	43.839	71	48
43.1503	43.8225	74	49
43.1503	43.839	77	56
43.4205	43.839	69	51
43.4205	43.839	73	49
43.4205	43.839	78	55
43.8225	43.964	65	55
43.8225	43.964	74	55
43.8225	43.964	80	55
43.964	44.4975	66	46
43.964	44.4975	73	49
43.964	44.4975	81	58
44.4975	45.287	59	39
44.4975	45.162	69	50
44.4975	44.7607	75	50
44.4975	45.162	78	60
44.7607	45.162	73	56
44.7607	45.1554	75	49
44.7607	45.162	81	58
45.1554	45.287	71	42
45.1554	45.287	75	45
45.1554	45.287	80	53
45.287	45.8254	64	36
45.287	45.8254	68	47
45.287	45.8254	71	42
45.287	45.8254	76	55
45.8254	45.9108	59	48
45.9108	45.9963	61	42
45.9963	46.0818	59	42
46.0818	46.5535	58	44
46.0818	46.6035	63	30
46.0818	46.6035	66	30
46.0818	46.6035	71	37
46.0818	46.6035	75	37
46.4731	46.6035	56	44
46.6035	47.0998	58	48
46.6035	47.1382	63	30
46.6035	47.1382	66	30
46.6035	47.1382	71	37
46.6035	47.1382	75	37
47.0066	47.1382	54	41
47.1382	47.2236	56	48
47.2236	47.3091	58	42
47.3091	47.3946	56	42
47.3946	47.8663	54	44
47.3946	47.9163	63	30
47.3946	47.9163	66	30
47.3946	47.9163	71	37
47.3946	47.9163	75	37
47.7859	47.9163	56	44
47.9163	48.4124	58	48
47.9163	48.4509	63	30
47.9163	48.4509	66	30
47.9163	48.4509	71	37
47.9163	48.4509	75	37
48.3188	48.4509	59	41
48.4509	48.5371	58	48
48.5371	48.6233	59	42
48.6233	48.7095	58	42
48.7095	49.1854	56	44
48.7095	49.2358	63	30
48.7095	49.2358	66	30
48.7095	49.2358	71	37
48.7095	49.2358	75	37
49.1043	49.2358	54	44
49.2358	49.737	56	48
49.2358	49.7764	63	30
49.2358	49.7764	66	30
49.2358	49.7764	71	37
49.2358	49.7764	75	37
49.6412	49.7764	58	41
49.7764	50.9758	54	48
50.0361	50.9758	62	52
50.4309	50.9758	63	51
50.5624	50.9758	66	56
50.9601	51.9062	71	56
51.0947	53.2362	51	46
51.0947	53.2362	69	57
51.0947	51.8589	78	63
51.3555	53.2362	60	48
51.3555	51.9062	66	48
51.3555	51.8939	76	62
51.7538	51.8239	75	59
51.8239	51.9062	75	50
51.8589	51.9062	78	50
51.8939	52.3846	76	58
52.2964	53.2362	75	55
52.4321	53.2362	64	46
52.4321	53.2362	68	51
52.4321	53.2362	72	59
52.693	53.2362	61	40
52.693	53.2362	73	56
53.0912	53.2362	56	49
53.0912	53.2362	76	59
53.2239	53.7208	52	46
53.2239	53.7208	80	64
53.6301	54.5737	49	51
53.6301	53.7697	83	61
53.7697	54.5737	42	53
53.7697	54.5737	83	62
53.7697	54.5737	87	70
54.0305	54.5737	53	48
54.0305	54.4288	82	55
54.0305	54.5737	85	61
54.4288	54.5737	54	49
54.4288	54.5737	78	53
54.4288	54.5737	82	60
54.5615	55.0522	58	52
54.5615	55.0522	76	58
54.5615	55.0522	80	64
54.9639	55.7947	66	49
54.9639	55.7947	74	49
54.9639	55.7947	77	56
55.0997	55.7947	47	53
55.0997	56.4748	75	52
55.0997	56.4748	78	59
55.3605	55.7947	53	45
55.7636	55.8354	54	39
55.8354	55.9303	58	37
55.9072	56.4374	55	46
56.3299	56.4748	54	42
56.4748	56.7335	62	42
56.7335	57.2093	61	39
56.7335	57.2598	66	27
56.7335	57.2598	71	27
56.7335	57.2598	74	33
56.7335	57.2598	78	33
57.1282	57.2598	59	39
57.2598	57.7653	61	42
57.2598	57.8052	66	27
57.2598	57.8052	71	27
57.2598	57.8052	74	33
57.2598	57.8052	78	33
57.6683	57.8052	62	37
57.8052	57.8918	61	42
57.8918	57.9784	62	38
57.9784	58.065	61	38
58.065	58.5409	59	39
58.065	58.5913	66	27
58.065	58.5913	71	27
58.065	58.5913	74	33
58.065	58.5913	78	33
58.4597	58.5913	61	39
58.5913	59.0924	62	42
58.5913	59.1318	66	27
58.5913	59.1318	71	27
58.5913	59.1318	74	33
58.5913	59.1318	78	33
58.9967	59.1318	64	37
59.1318	59.218	62	42
59.218	59.3042	64	38
59.3042	59.3904	62	38
59.3904	59.8701	61	39
59.3904	59.9215	68	27
59.3904	59.9215	71	27
59.3904	59.9215	74	33
59.3904	59.9215	78	33
59.7875	61.1638	59	39
59.9215	61.1638	70	27
59.9215	61.1638	73	39
59.9215	61.1638	76	39
59.9215	60.4341	81	51
60.3362	61.1638	79	46
60.4745	61.1638	71	48
60.4745	61.2711	74	47
60.4745	61.2711	78	52
60.7411	61.1638	65	39
61.1342	61.2026	66	38
61.2026	61.2936	69	35
61.2711	61.7855	67	44
61.681	62.5822	66	38
61.8219	62.5822	63	53
61.8219	62.5822	72	56
61.8219	62.5822	78	56
61.8219	62.5822	81	67
62.0971	62.5822	64	50
62.0971	62.5822	71	54
62.0971	62.51	76	54
62.0971	62.5822	80	64
62.51	62.6476	58	50
62.51	62.6476	73	53
62.51	62.6476	76	53
62.51	62.6476	79	63
62.6476	63.107	59	53
62.6476	63.107	74	56
62.6476	63.0669	78	67
63.0669	63.2084	57	50
63.0669	63.2084	78	52
63.0669	63.2084	83	62
63.2084	63.8448	56	54
63.2084	63.4875	71	65
63.2084	63.8448	77	65
63.2084	63.4875	83	77
63.4875	63.912	55	50
63.4875	63.912	71	60
63.4875	63.912	76	60
63.4875	63.912	83	72
63.912	64.0535	53	55
63.912	64.0535	71	60
63.912	64.0535	73	60
63.912	64.0535	83	72
64.0535	64.6195	54	51
64.0535	64.6195	71	61
64.0535	64.6195	74	61
64.0535	64.6195	83	73
64.6195	64.8898	64	45
64.6195	64.8898	67	48
64.6195	64.8898	71	48
64.6195	64.8898	73	57
64.8898	65.3082	64	48
64.8898	65.2917	67	46
64.8898	65.2917	71	46
64.8898	65.3082	73	55
65.2917	65.4332	62	47
65.2917	65.4332	67	51
65.2917	65.4332	71	51
65.2917	65.4332	74	60
65.4332	65.9667	61	49
65.4332	65.9667	67	53
65.4332	65.9667	71	53
65.4332	65.9068	76	62
65.831	65.9667	79	64
65.9667	66.2299	54	42
65.9667	66.2299	64	50
65.9667	66.2299	70	53
65.9667	66.6247	74	62
66.2299	66.6247	54	40
66.2299	66.6247	64	48
66.2299	66.6247	70	38
66.2299	66.6312	73	55
66.6247	66.7562	54	33
66.6247	66.7562	64	39
66.6247	66.7562	70	36
66.6247	66.7562	74	50
66.7562	67.2946	59	28
66.7562	67.2946	62	44
66.7562	67.2946	66	33
66.7562	67.2946	71	52
67.2946	67.3801	59	48
67.3801	67.4656	61	42
67.4656	67.551	59	42
67.551	68.0228	58	44
67.551	68.0728	63	30
67.551	68.0728	66	30
67.551	68.0728	71	37
67.551	68.0728	75	37
67.9423	68.0728	56	44
68.0728	68.5666	58	48
68.0728	68.605	63	30
68.0728	68.605	66	30
68.0728	68.605	71	37
68.0728	68.605	75	37
68.4734	68.605	54	41
68.605	68.6901	56	48
68.6901	68.7752	58	42
68.7752	68.8603	56	42
68.8603	69.3321	54	44
68.8603	69.3821	63	30
68.8603	69.3821	66	30
68.8603	69.3821	71	37
68.8603	69.3821	75	37
69.2516	69.3821	56	44
69.3821	69.8781	58	48
69.3821	69.9167	63	30
69.3821	69.9167	66	30
69.3821	69.9167	71	37
69.3821	69.9167	75	37
69.7845	69.9167	59	41
69.9167	70.0029	58	48
70.0029	70.0891	59	42
70.0891	70.1753	58	42
70.1753	70.6491	56	44
70.1753	70.6993	63	30
70.1753	70.6993	66	30
70.1753	70.6993	71	37
70.1753	70.6993	75	37
70.5683	70.6993	54	44
70.6993	71.2004	56	48
70.6993	71.2398	63	30
70.6993	71.2398	66	30
70.6993	71.2398	71	37
70.6993	71.2398	75	37
71.1047	71.2398	58	41
71.2398	72.4347	54	48
71.4984	72.4347	62	52
71.8915	72.4347	63	51
72.0225	72.4347	66	56
72.419	73.3628	71	56
72.5535	74.6904	51	46
72.5535	74.6904	69	57
72.5535	73.3155	78	63
72.8121	74.6904	60	48
72.8121	73.3628	66	48
72.8121	73.3506	76	62
73.2104	73.2805	75	59
73.2805	73.3628	75	50
73.3155	73.3628	78	50
73.3506	73.8412	76	58
73.753	74.6904	75	55
73.8887	74.6904	64	46
73.8887	74.6904	68	51
73.8887	74.6904	72	59
74.1496	74.6904	61	40
74.1496	74.6904	73	56
74.5461	74.6904	56	49
74.5461	74.6904	76	59
74.6782	75.1751	52	46
74.6782	75.1751	80	64
75.0844	76.028	49	51
75.0844	75.2239	83	61
75.2239	76.028	42	53
75.2239	76.028	83	62
75.2239	76.028	87	70
75.4848	76.028	53	48
75.4848	75.883	82	55
75.4848	76.028	85	61
75.883	76.028	54	49
75.883	76.028	78	53
75.883	76.028	82	60
76.0158	76.5064	58	52
76.0158	76.5064	76	58
76.0158	76.5064	80	64
76.4182	77.2478	66	49
76.4182	77.2478	74	49
76.4182	77.2478	77	56
76.5539	77.2478	47	53
76.5539	77.9279	75	52
76.5539	77.9279	78	59
76.8148	77.2478	53	45
77.2167	77.2885	54	39
77.2885	77.3834	58	37
77.3603	77.8905	55	46
77.783	77.9279	54	42
77.9279	78.1866	62	42
78.1866	78.6583	61	39
78.1866	78.7083	66	27
78.1866	78.7083	71	27
78.1866	78.7083	74	33
78.1866	78.7083	78	33
78.5779	78.7083	59	39
78.7083	79.2138	61	42
78.7083	79.2538	66	27
78.7083	79.2538	71	27
78.7083	79.2538	74	33
78.7083	79.2538	78	33
79.1168	79.2538	62	37
79.2538	79.3403	61	42
79.3403	79.4269	62	38
79.4269	79.5135	61	38
79.5135	79.9873	59	39
79.5135	80.0375	66	27
79.5135	80.0375	71	27
79.5135	80.0375	74	33
79.5135	80.0375	78	33
79.9065	80.0375	61	39
80.0375	80.5386	62	42
80.0375	80.5781	66	27
80.0375	80.5781	71	27
80.0375	80.5781	74	33
80.0375	80.5781	78	33
80.4429	80.5781	64	37
80.5781	80.6643	62	42
80.6643	80.7505	64	38
80.7505	80.8367	62	38
80.8367	81.3141	61	39
80.8367	81.3654	68	27
80.8367	81.3654	71	27
80.8367	81.3654	74	33
80.8367	81.3654	78	33
81.2315	82.6078	59	39
81.3654	82.6078	70	27
81.3654	82.6078	73	39
81.3654	82.6078	76	39
81.3654	81.8781	81	51
81.7802	82.6078	79	46
81.9184	82.6078	71	48
81.9184	82.7151	74	47
81.9184	82.7151	78	52
82.1851	82.6078	65	39
82.5781	82.6466	66	38
82.6466	82.7375	69	35
82.7151	83.2294	67	44
83.125	84.0262	66	38
83.2658	84.0262	63	53
83.2658	84.0262	72	56
83.2658	84.0262	78	56
83.2658	84.0262	81	67
83.5411	84.0262	64	50
83.5411	84.0262	71	54
83.5411	83.9539	76	54
83.5411	84.0262	80	64
83.9539	84.0915	58	50
83.9539	84.0915	73	53
83.9539	84.0915	76	53
83.9539	84.0915	79	63
84.0915	84.5509	59	53
84.0915	84.5509	74	56
84.0915	84.5108	78	67
84.5108	84.6523	57	50
84.5108	84.6523	78	52
84.5108	84.6523	83	62
84.6523	85.2887	56	54
84.6523	84.9314	71	65
84.6523	85.2887	77	65
84.6523	84.9314	83	77
84.9314	85.3559	55	50
84.9314	85.3559	71	60
84.9314	85.3559	76	60
84.9314	85.3559	83	72
85.3559	85.4974	53	55
85.3559	85.4974	71	60
85.3559	85.4974	73	60
85.3559	85.4974	83	72
85.4974	86.0635	54	51
85.4974	86.0635	71	61
85.4974	86.0635	74	61
85.4974	86.0635	83	73
86.0635	86.3337	64	45
86.0635	86.3337	67	48
86.0635	86.3337	71	48
86.0635	86.3337	73	57
86.3337	86.7522	64	48
86.3337	86.7357	67	46
86.3337	86.7357	71	46
86.3337	86.7522	73	55
86.7357	86.8772	62	47
86.7357	86.8772	67	51
86.7357	86.8772	71	51
86.7357	86.8772	74	60
86.8772	87.4107	61	49
86.8772	87.4107	67	53
86.8772	87.4107	71	53
86.8772	87.3507	76	62
87.2749	87.4107	79	64
87.4107	87.6739	54	42
87.4107	87.6739	64	50
87.4107	87.6739	70	53
87.4107	88.0686	74	62
87.6739	88.0686	54	40
87.6739	88.0686	64	48
87.6739	88.0686	70	38
87.6739	88.0752	73	55
88.0686	88.2002	54	33
88.0686	88.2002	64	39
88.0686	88.2002	70	36
88.0686	88.2002	74	50
88.2002	88.7386	59	28
88.2002	88.7386	62	44
88.2002	88.7386	66	33
88.2002	88.7386	71	52
88.7386	88.9994	59	44
88.7386	88.9994	66	50
88.7386	88.9994	69	60
88.9994	89.3942	59	40
88.9994	89.6201	66	47
88.9994	89.6201	69	56
89.3942	89.5258	59	40
89.3942	89.6201	64	44
89.3942	89.6201	73	52
89.5258	89.9234	59	44
89.5258	89.9234	63	47
89.5258	90.058	71	56
89.9234	90.058	59	40
89.9234	90.058	63	42
89.9234	90.058	67	51
90.058	90.3188	59	44
90.058	90.8068	64	47
90.058	90.3188	68	56
90.3188	90.7136	59	40
90.3188	90.8068	68	49
90.3188	90.8068	71	58
90.7136	90.8452	59	40
90.7136	90.8452	76	48
90.7136	90.8452	80	58
90.8452	91.2417	59	44
90.8452	91.375	75	46
90.8452	91.375	78	55
91.2417	91.375	59	40
91.2417	91.375	73	44
91.2417	91.375	76	52
91.375	91.6382	59	44
91.375	91.5505	71	47
91.375	91.5505	75	56
91.4627	91.6382	73	40
91.4627	92.1622	76	48
91.5505	92.0306	71	40
91.5505	92.0306	75	48
91.6382	92.0306	59	40
91.6382	92.17	69	45
91.6382	92.1622	73	53
92.0306	92.1622	59	40
92.0306	92.17	71	44
92.0306	92.17	75	52
92.1622	92.5701	59	44
92.1622	92.5701	73	47
92.1622	92.6639	76	56
92.5701	92.709	59	44
92.5701	92.709	69	44
92.5701	92.709	73	52
92.709	93.5135	52	37
92.709	92.9722	59	50
92.709	93.5135	68	40
92.709	93.5135	71	48
92.9722	93.5135	59	48
93.3711	93.5135	64	49
93.5069	94.0024	63	49
93.9069	94.0402	62	45
94.0402	95.3874	61	48
94.0402	94.7289	68	48
94.0402	94.7124	71	49
94.0402	94.7289	77	56
94.3104	94.7289	69	51
94.3104	94.7289	73	49
94.3104	94.7289	78	55
94.7124	94.8539	71	50
94.7124	94.8539	74	55
94.7124	94.8539	80	55
94.7831	94.8757	83	50
94.8539	95.3274	73	46
94.8539	95.3874	77	49
94.8539	95.3274	81	58
95.2516	95.3874	71	48
95.2516	95.3874	80	57
95.3874	96.1735	66	39
95.3874	96.0485	71	50
95.3874	96.1735	73	46
95.3874	96.0485	80	60
95.3874	96.1735	85	46
95.6471	96.0485	69	49
95.6471	96.0485	78	58
96.0419	96.1735	68	46
96.0419	96.1735	77	50
96.1735	96.5742	69	48
96.1735	96.6534	78	53
96.5742	96.7118	64	46
96.5742	96.7118	69	55
96.5742	96.7118	72	55
96.7118	97.499	59	37
96.7118	97.3675	63	49
96.7118	97.499	69	47
96.7118	97.499	71	57
96.9727	97.499	62	49
96.9727	97.499	77	58
97.3675	97.499	63	49
97.3675	97.499	78	59
97.499	98.0466	59	37
97.499	98.0466	73	46
97.499	98.0466	81	61
97.9044	98.0466	71	48
97.9044	98.0466	80	57
98.0466	99.2734	64	34
98.0466	98.809	69	46
98.0466	99.2734	71	38
98.0466	98.809	78	55
98.0466	99.1325	83	42
98.318	98.809	68	45
98.318	98.809	76	52
98.7253	98.861	67	41
98.7253	98.861	75	50
98.8542	99.1257	76	50
98.861	99.2734	68	37
99.2734	99.4142	65	49
99.2734	99.4142	68	58
99.4142	99.6774	59	44
99.4142	99.6774	66	50
99.4142	99.6774	69	60
99.6774	100.072	59	40
99.6774	100.298	66	47
99.6774	100.298	69	56
100.072	100.204	59	40
100.072	100.298	64	44
100.072	100.298	73	52
100.204	100.601	59	44
100.204	100.601	63	47
100.204	100.736	71	56
100.601	100.736	59	40
100.601	100.736	63	42
100.601	100.736	67	51
100.736	100.999	59	44
100.736	101.487	64	47
100.736	100.999	68	56
100.999	101.394	59	40
100.999	101.487	68	49
100.999	101.487	71	58
101.394	101.525	59	40
101.394	101.525	76	50
101.394	101.525	80	60
101.525	101.922	59	44
101.525	102.055	75	46
101.525	102.055	78	55
101.922	102.055	59	40
101.922	102.055	73	44
101.922	102.055	76	52
102.055	102.318	59	44
102.055	102.231	71	47
102.055	102.231	75	56
102.143	102.318	73	40
102.143	102.845	76	48
102.231	102.713	71	40
102.231	102.713	75	48
102.318	102.713	59	40
102.318	102.853	69	45
102.318	102.845	73	53
102.713	102.845	59	40
102.713	102.853	71	44
102.713	102.853	75	52
102.845	103.253	59	44
102.845	103.253	73	47
102.845	103.346	76	56
103.253	103.392	59	44
103.253	103.392	69	44
103.253	103.392	73	52
103.392	104.196	52	50
103.392	104.189	68	40
103.392	104.196	71	48
103.655	104.196	59	48
104.054	104.196	64	51
104.189	104.685	68	54
104.589	104.723	71	55
104.723	105.512	70	49
104.723	106.051	72	59
104.723	105.512	76	54
104.723	105.381	81	65
104.986	105.494	79	61
105.381	105.512	81	61
105.512	106.051	69	55
105.512	105.992	84	57
105.519	106.057	79	51
105.913	106.051	77	50
106.051	106.845	69	41
106.051	107.388	71	49
106.051	106.845	75	48
106.051	106.711	80	57
106.314	106.826	78	51
106.711	106.845	80	51
106.845	107.388	68	46
106.845	107.388	78	44
106.845	107.329	83	47
107.25	107.388	76	50
107.388	108.077	71	48
107.388	108.06	74	49
107.388	108.077	77	56
107.658	108.077	69	51
107.658	108.077	73	49
107.658	108.077	78	55
108.06	108.202	65	55
108.06	108.202	74	55
108.06	108.202	80	55
108.202	108.735	66	44
108.202	108.735	73	48
108.202	108.735	81	58
108.735	109.525	59	39
108.735	109.4	69	50
108.735	108.998	75	50
108.735	109.4	78	60
108.998	109.4	73	55
108.998	109.393	75	49
108.998	109.4	81	58
109.393	109.525	71	42
109.393	109.525	75	45
109.393	109.525	80	53
109.525	110.069	64	36
109.525	110.069	68	47
109.525	110.069	71	42
109.525	110.069	76	55
110.069	110.332	60	37
110.069	110.332	64	42
110.069	110.332	67	51
110.332	110.858	59	34
110.332	110.858	62	39
110.332	110.727	67	47
110.727	110.893	60	34
110.727	110.893	64	37
110.727	110.858	67	44
110.858	111.321	59	37
110.858	111.321	62	39
110.858	111.321	67	47
111.256	111.397	57	41
111.256	111.397	66	35
111.256	111.397	72	43
111.256	111.397	74	43
111.397	111.66	55	50
111.397	111.66	67	52
111.397	111.66	71	52
111.397	111.66	74	64
111.66	112.186	54	45
111.66	112.186	69	48
111.66	112.055	71	48
111.66	112.186	75	58
112.055	112.186	52	44
112.055	112.186	68	46
112.055	112.186	71	46
112.055	112.186	76	55
112.186	112.646	50	48
112.186	112.646	71	48
112.186	112.646	77	48
112.186	112.646	80	58
112.584	112.719	47	47
112.584	112.719	83	58
112.719	113.508	48	55
112.719	113.508	76	63
112.719	113.508	81	71
112.982	113.508	45	52
112.982	113.508	84	65
113.376	113.508	42	55
113.376	113.508	88	69
113.508	113.97	47	60
113.508	113.97	81	71
113.508	113.97	87	74
113.906	114.046	35	59
113.906	114.046	95	73
114.046	115.406	40	70
114.046	115.406	80	81
114.046	115.406	92	81
114.314	115.406	47	64
114.707	115.406	52	62
114.838	115.406	56	70
115.234	115.369	59	64
115.369	116.69	59	45
115.369	116.158	63	53
115.369	116.158	69	57
115.369	116.158	71	68
115.632	116.158	64	50
115.632	116.158	73	62
116.027	116.158	66	48
116.027	116.158	75	66
116.158	116.618	63	53
116.158	116.69	69	59
116.158	116.618	71	70
116.556	116.69	66	51
116.556	116.69	80	65
116.69	117.482	64	52
116.69	117.482	68	52
116.69	117.482	71	57
116.69	117.482	76	68
116.954	117.482	63	51
117.348	117.482	62	47
117.482	117.952	61	49
117.888	118.027	60	51
118.027	119.406	47	40
118.027	118.823	51	47
118.027	118.823	57	51
118.027	118.823	59	61
118.29	118.823	52	45
118.29	118.823	61	55
118.688	118.823	54	43
118.688	118.823	63	59
118.823	119.326	51	47
118.823	119.406	57	53
118.823	119.326	59	63
119.113	119.406	68	56
119.259	119.406	54	42
119.406	119.704	52	45
119.406	120.195	56	45
119.406	120.195	59	58
119.406	120.195	64	58
119.704	120.24	40	50
119.704	120.24	52	59
119.704	120.24	76	74
119.704	120.24	80	74
119.704	120.24	88	87
120.776	121.039	59	44
120.776	121.039	66	50
120.776	121.039	69	60
121.039	121.434	59	40
121.039	121.659	66	47
121.039	121.659	69	56
121.434	121.565	59	40
121.434	121.659	64	44
121.434	121.659	73	52
121.565	121.963	59	44
121.565	121.963	63	47
121.565	122.097	71	56
121.963	122.097	59	40
121.963	122.097	63	42
121.963	122.097	67	51
122.097	122.361	59	44
122.097	122.848	64	47
122.097	122.361	68	56
122.361	122.755	59	40
122.361	122.848	68	49
122.361	122.848	71	58
122.755	122.887	59	40
122.755	122.887	76	48
122.755	122.887	80	58
122.887	123.283	59	44
122.887	123.417	75	46
122.887	123.417	78	55
123.283	123.417	59	40
123.283	123.417	73	44
123.283	123.417	76	52
123.417	123.68	59	44
123.417	123.592	71	47
123.417	123.592	75	56
123.504	123.68	73	40
123.504	124.206	76	48
123.592	124.075	71	40
123.592	124.075	75	48
123.68	124.075	59	40
123.68	124.214	69	45
123.68	124.206	73	53
124.075	124.206	59	40
124.075	124.214	71	44
124.075	124.214	75	52
124.206	124.614	59	44
124.206	124.614	73	47
124.206	124.708	76	56
124.614	124.753	59	44
124.614	124.753	69	44
124.614	124.753	73	52
124.753	125.558	52	39
124.753	125.016	59	50
124.753	125.558	68	40
124.753	125.558	71	48
125.016	125.558	59	48
125.415	125.558	64	49
125.551	126.046	63	49
125.951	126.084	62	45
126.084	127.431	61	48
126.084	126.773	68	48
126.084	126.756	71	49
126.084	126.773	77	56
126.354	126.773	69	51
126.354	126.773	73	49
126.354	126.773	78	55
126.756	126.898	71	50
126.756	126.898	74	55
126.756	126.898	80	55
126.827	126.92	83	50
126.898	127.371	73	46
126.898	127.431	77	49
126.898	127.371	81	58
127.296	127.431	71	48
127.296	127.431	80	57
127.431	128.221	66	39
127.431	128.096	71	50
127.431	128.221	73	46
127.431	128.096	80	60
127.431	128.221	85	46
127.695	128.096	69	49
127.695	128.096	78	58
128.089	128.221	68	46
128.089	128.221	77	50
128.221	128.622	69	48
128.221	128.701	78	53
128.622	128.759	64	46
128.622	128.759	69	55
128.622	128.759	72	55
128.759	129.549	59	37
128.759	129.417	63	49
128.759	129.549	69	47
128.759	129.549	71	57
129.022	129.549	62	49
129.022	129.549	77	58
129.417	129.549	63	49
129.417	129.549	78	59
129.549	130.096	59	37
129.549	130.096	73	46
129.549	130.096	81	61
129.954	130.096	71	48
129.954	130.096	80	57
130.096	131.323	64	34
130.096	130.859	69	46
130.096	131.323	71	38
130.096	130.859	78	55
130.096	131.182	83	42
130.368	130.859	68	45
130.368	130.859	76	52
130.775	130.911	67	41
130.775	130.911	75	50
130.904	131.175	76	50
130.911	131.323	68	37
131.323	131.464	65	49
131.323	131.464	68	58
131.464	131.723	59	44
131.464	131.723	66	50
131.464	131.723	69	60
131.723	132.117	59	40
131.723	132.343	66	47
131.723	132.343	69	56
132.117	132.249	59	40
132.117	132.343	64	44
132.117	132.343	73	52
132.249	132.647	59	44
132.249	132.647	63	47
132.249	132.781	71	56
132.647	132.781	59	40
132.647	132.781	63	42
132.647	132.781	67	51
132.781	133.04	59	44
132.781	133.528	64	47
132.781	133.04	68	56
133.04	133.434	59	40
133.04	133.528	68	49
133.04	133.528	71	58
133.434	133.566	59	40
133.434	133.566	76	50
133.434	133.566	80	60
133.566	133.963	59	44
133.566	134.096	75	46
133.566	134.096	78	55
133.963	134.096	59	40
133.963	134.096	73	44
133.963	134.096	76	52
134.096	134.356	59	44
134.096	134.269	71	47
134.096	134.269	75	56
134.182	134.356	73	40
134.182	134.882	76	48
134.269	134.75	71	40
134.269	134.75	75	48
134.356	134.75	59	40
134.356	134.89	69	45
134.356	134.882	73	53
134.75	134.882	59	40
134.75	134.89	71	44
134.75	134.89	75	52
134.882	135.29	59	44
134.882	135.29	73	47
134.882	135.384	76	56
135.29	135.429	59	44
135.29	135.429	69	44
135.29	135.429	73	52
135.429	136.233	52	50
135.429	136.227	68	40
135.429	136.233	71	48
135.692	136.233	59	48
136.091	136.233	64	51
136.227	136.722	68	54
136.627	136.76	71	55
136.76	137.545	70	49
136.76	138.08	72	59
136.76	137.545	76	53
136.76	137.413	81	65
137.019	137.526	79	61
137.413	137.545	81	61
137.545	138.08	69	55
137.545	138.021	84	57
137.551	138.086	79	51
137.942	138.08	77	50
138.08	138.869	69	41
138.08	139.413	71	49
138.08	138.869	75	48
138.08	138.736	80	57
138.338	138.85	78	51
138.736	138.869	80	51
138.869	139.413	68	46
138.869	139.413	78	44
138.869	139.354	83	47
139.275	139.413	76	50
139.413	140.101	71	48
139.413	140.085	74	49
139.413	140.101	77	56
139.683	140.101	69	51
139.683	140.101	73	49
139.683	140.101	78	55
140.085	140.226	65	55
140.085	140.226	74	55
140.085	140.226	80	55
140.226	140.76	66	44
140.226	140.76	73	48
140.226	140.76	81	58
140.76	141.549	59	39
140.76	141.424	69	50
140.76	141.023	75	50
140.76	141.424	78	60
141.023	141.424	73	55
141.023	141.418	75	49
141.023	141.424	81	58
141.418	141.549	71	42
141.418	141.549	75	45
141.418	141.549	80	53
141.549	142.094	64	36
141.549	142.094	68	47
141.549	142.094	71	42
141.549	142.094	76	55
142.094	142.354	60	37
142.094	142.354	64	42
142.094	142.354	67	51
142.354	142.881	59	34
142.354	142.881	62	39
142.354	142.749	67	47
142.749	142.916	60	34
142.749	142.916	64	37
142.749	142.881	67	44
142.881	143.343	59	37
142.881	143.343	62	39
142.881	143.343	67	47
143.278	143.419	57	41
143.278	143.419	66	35
143.278	143.419	72	43
143.278	143.419	74	43
143.419	143.679	55	50
143.419	143.679	67	52
143.419	143.679	71	52
143.419	143.679	74	64
143.679	144.205	54	45
143.679	144.205	69	48
143.679	144.074	71	48
143.679	144.205	75	58
144.074	144.205	52	44
144.074	144.205	68	46
144.074	144.205	71	46
144.074	144.205	76	55
144.205	144.665	50	48
144.205	144.665	71	48
144.205	144.665	77	48
144.205	144.665	80	58
144.603	144.738	47	47
144.603	144.738	83	58
144.738	145.525	48	55
144.738	145.525	76	68
144.738	145.525	81	71
144.998	145.525	45	52
144.998	145.525	84	65
145.393	145.525	42	55
145.393	145.525	88	69
145.525	145.987	47	60
145.525	145.987	81	71
145.525	145.987	87	74
145.922	146.063	35	59
145.922	146.063	95	73
146.063	147.422	40	70
146.063	147.422	80	81
146.063	147.422	92	81
146.33	147.422	47	64
146.723	147.422	52	62
146.854	147.422	56	70
147.251	147.385	59	64
147.385	148.704	59	45
147.385	148.172	63	53
147.385	148.172	69	57
147.385	148.172	71	68
147.645	148.172	64	50
147.645	148.172	73	62
148.04	148.172	66	48
148.04	148.172	75	66
148.172	148.631	63	53
148.172	148.704	69	59
148.172	148.631	71	70
148.569	148.704	66	51
148.569	148.704	80	65
148.704	149.491	64	52
148.704	149.491	68	52
148.704	149.491	71	57
148.704	149.491	76	68
148.962	149.491	63	51
149.357	149.491	62	47
149.491	149.961	61	49
149.897	150.035	60	51
150.035	151.412	47	40
150.035	150.832	51	47
150.035	150.832	57	51
150.035	150.832	59	61
150.299	150.832	52	45
150.299	150.832	61	55
150.697	150.832	54	43
150.697	150.832	63	59
150.832	151.333	51	47
150.832	151.412	57	53
150.832	151.333	59	63
151.122	151.412	68	56
151.267	151.412	54	42
151.412	151.712	52	45
151.412	152.276	56	45
151.412	152.276	59	58
151.412	152.276	64	58
151.712	152.327	40	52
151.712	152.327	52	61
151.712	152.327	76	77
151.712	152.327	80	77
151.712	152.327	88	91
