OnsetTime	OffsetTime	MidiPitch	Velocity
0.500004	1.24775	50	33
0.500004	1.24775	58	25
0.500004	1.24775	70	43
0.873878	1.24775	53	33
0.873878	1.24775	60	25
0.873878	1.24775	72	43
1.24775	2.73046	46	28
1.24775	2.00353	58	34
1.24775	1.60898	62	26
1.24775	2.00353	74	44
1.60898	2.00353	62	36
1.60898	2.00353	65	28
1.60898	2.00353	77	53
1.98839	2.73046	63	39
1.98839	2.73046	67	30
1.98839	2.73046	79	60
2.35168	2.71497	62	44
2.35168	2.73046	65	24
2.35168	2.73046	77	42
2.71497	3.08673	58	42
2.71497	3.50183	62	26
2.71497	3.50183	74	44
3.08673	3.50183	53	36
3.08673	3.50183	58	23
3.08673	3.50183	70	39
3.29428	6.40901	41	43
3.50183	6.40901	51	23
3.50183	6.03514	53	34
3.50183	6.40901	57	27
3.50183	6.03514	60	27
3.50183	6.40901	65	38
5.66126	6.40901	50	39
5.66126	6.40901	58	30
5.66126	6.40901	70	43
6.03514	6.40901	53	39
6.03514	6.40901	60	30
6.03514	6.40901	72	43
6.40901	7.90041	46	34
6.40901	7.17348	58	41
6.40901	6.77024	62	31
6.40901	7.17348	74	44
6.77024	7.17348	62	43
6.77024	7.17348	65	34
6.77024	7.17348	77	53
7.15834	7.90041	63	46
7.15834	7.90041	67	36
7.15834	7.90041	79	58
7.52163	7.88492	62	44
7.52163	7.90041	65	29
7.52163	7.90041	77	42
7.88492	8.25668	58	42
7.88492	8.67178	62	31
7.88492	8.67178	74	44
8.25668	8.67178	53	36
8.25668	8.67178	58	28
8.25668	8.67178	70	39
8.46423	11.5597	41	43
8.67178	11.5597	51	28
8.67178	11.1858	53	34
8.67178	11.5597	57	27
8.67178	11.1858	60	27
8.67178	11.5597	65	38
10.812	11.5597	50	39
10.812	11.5597	58	30
10.812	11.5597	70	43
11.1858	11.5597	53	39
11.1858	11.5597	60	30
11.1858	11.5597	72	43
11.5597	13.0326	46	34
11.5597	12.3057	58	41
11.5597	11.9209	62	37
11.5597	13.7717	74	44
11.9209	12.3057	62	43
11.9209	12.3057	65	44
12.2905	13.0326	63	48
12.2905	13.0326	67	50
12.6538	13.0171	62	47
12.6538	13.0326	65	43
13.0171	13.3889	58	46
13.0171	13.7717	62	46
13.3889	13.7717	53	40
13.3889	13.7717	58	40
13.5803	13.7717	70	53
13.7717	15.2226	48	39
13.7717	14.4956	57	47
13.7717	14.4956	65	42
13.7717	15.2226	77	58
14.1329	14.4956	60	41
14.1329	14.4956	69	45
14.4805	15.2226	62	48
14.4805	15.2226	70	47
14.8438	15.2226	60	39
14.8438	15.2226	69	37
15.0254	15.2226	76	57
15.2071	15.9686	57	44
15.2071	15.9686	65	38
15.2071	15.9686	74	62
15.5788	15.9686	53	37
15.5788	15.9686	60	33
15.7737	15.9686	36	32
15.7737	15.9686	72	55
15.9686	16.7146	51	32
15.9686	16.7146	58	40
15.9686	17.4597	72	59
16.3298	16.7146	52	37
16.3298	16.6994	60	44
16.6994	17.4597	60	43
16.6994	17.4433	69	47
17.0627	17.4597	58	39
17.0627	17.4597	67	35
17.0627	17.4597	70	41
17.4433	18.3234	55	33
17.4433	18.3234	64	37
17.4433	18.3234	69	46
17.7064	18.3234	52	30
17.7064	18.3234	60	34
17.838	18.3234	67	41
17.9998	18.3234	49	30
17.9998	18.3234	58	34
18.3234	21.0404	41	36
18.3234	18.6175	47	30
18.3234	18.6175	56	35
18.3234	21.0404	65	42
18.6002	18.8942	48	27
18.6002	18.8942	57	32
18.8769	19.1537	50	27
18.8769	19.1537	58	32
19.1537	20.5687	48	32
19.1537	20.5687	57	35
21.0404	21.7882	50	39
21.0404	21.7882	58	30
21.0404	21.7882	70	43
21.4143	21.7882	53	39
21.4143	21.7882	60	30
21.4143	21.7882	72	43
21.7882	23.2709	46	34
21.7882	22.544	58	41
21.7882	22.1494	62	31
21.7882	22.544	74	44
22.1494	22.544	62	43
22.1494	22.544	65	34
22.1494	22.544	77	52
22.5288	23.2709	63	46
22.5288	23.2709	67	36
22.5288	23.2709	79	58
22.8921	23.2554	62	44
22.8921	23.2709	65	29
22.8921	23.2709	77	42
23.2554	23.6272	58	42
23.2554	24.0423	62	31
23.2554	24.0423	74	44
23.6272	24.0423	53	36
23.6272	24.0423	58	28
23.6272	24.0423	70	39
23.8347	26.9302	41	43
24.0423	26.9302	51	23
24.0423	26.5563	53	34
24.0423	26.9302	57	27
24.0423	26.5563	60	27
24.0423	26.9302	65	38
26.1824	26.9302	50	39
26.1824	26.9302	58	30
26.1824	26.9302	70	43
26.5563	26.9302	53	39
26.5563	26.9302	60	30
26.5563	26.9302	72	43
26.9302	28.4052	46	34
26.9302	27.6783	58	41
26.9302	27.2914	62	31
26.9302	27.6783	74	44
27.2914	27.6783	62	43
27.2914	27.6783	65	34
27.2914	27.6783	77	52
27.6632	28.4052	63	46
27.6632	28.4052	67	36
27.6632	28.4052	79	58
28.0264	28.3897	62	44
28.0264	28.4052	65	29
28.0264	28.4052	77	42
28.3897	28.7615	58	42
28.3897	29.1766	62	31
28.3897	29.1766	74	44
28.7615	29.1766	53	36
28.7615	29.1766	58	28
28.7615	29.1766	70	39
28.969	32.0645	41	43
29.1766	32.0645	51	28
29.1766	31.6906	53	34
29.1766	32.0645	57	27
29.1766	31.6906	60	27
29.1766	32.0645	65	38
31.3168	32.0645	50	39
31.3168	32.0645	58	30
31.3168	32.0645	70	43
31.6906	32.0645	53	39
31.6906	32.0645	60	30
31.6906	32.0645	72	43
32.0645	33.5374	46	34
32.0645	32.8105	58	41
32.0645	32.4257	62	37
32.0645	34.2765	74	44
32.4257	32.8105	62	43
32.4257	32.8105	65	44
32.7953	33.5374	63	48
32.7953	33.5374	67	50
33.1586	33.5219	62	47
33.1586	33.5374	65	43
33.5219	33.8937	58	46
33.5219	34.2765	62	46
33.8937	34.2765	53	40
33.8937	34.2765	58	40
34.0851	34.2765	70	53
34.2765	35.7274	48	39
34.2765	35.0004	57	47
34.2765	35.0004	65	42
34.2765	35.7274	77	58
34.6378	35.0004	60	41
34.6378	35.0004	69	45
34.9853	35.7274	62	48
34.9853	35.7274	70	47
35.3486	35.7274	60	39
35.3486	35.7274	69	37
35.5302	35.7274	76	57
35.7119	36.4734	57	44
35.7119	36.4734	65	38
35.7119	36.4734	74	62
36.0836	36.4734	53	37
36.0836	36.4734	60	33
36.2785	36.4734	36	32
36.2785	36.4734	72	55
36.4734	37.2208	51	32
36.4734	37.2208	58	40
36.4734	37.997	72	59
36.8347	37.2208	52	37
36.8347	37.2043	60	44
37.2043	37.997	60	43
37.2043	37.9806	69	47
37.6	37.997	58	39
37.6	37.997	67	35
37.6	37.997	70	41
37.9806	38.8385	55	33
37.9806	38.8385	64	37
37.9806	38.8385	69	46
38.2437	38.8385	52	30
38.2437	38.8385	60	34
38.3753	38.8385	67	41
38.5297	38.8385	49	30
38.5297	38.8385	58	34
38.8385	41.498	41	36
38.8385	39.1326	47	30
38.8385	39.1326	56	35
38.8385	41.498	65	42
39.1153	39.4093	48	27
39.1153	39.4093	57	32
39.392	39.6688	50	27
39.392	39.6688	58	32
39.6688	41.0407	48	32
39.6688	41.0407	57	35
41.498	42.233	46	39
41.8655	42.233	48	44
42.1411	42.233	34	47
42.233	43.7257	50	52
42.233	42.9803	56	49
42.233	44.4156	70	49
42.6004	42.9803	58	41
42.9537	43.7257	67	45
43.3089	43.7257	65	37
43.6764	44.4156	46	39
43.6764	44.4156	60	43
43.9228	44.4156	48	44
44.046	44.4156	58	37
44.1692	44.4156	50	48
44.3232	44.4156	36	41
44.4156	45.8733	51	54
44.4156	45.1549	56	49
44.4156	46.6262	70	49
44.7852	45.1549	58	41
45.1444	45.864	65	49
45.5037	45.8733	63	38
45.8733	46.643	46	44
45.8733	46.643	60	46
46.0581	46.643	48	47
46.2429	46.643	50	50
46.2429	46.643	58	38
46.4276	46.643	51	53
46.5269	46.643	37	44
46.6262	47.3965	52	63
46.6262	47.357	56	54
46.6262	47.357	70	54
46.9916	47.3965	64	47
47.2656	47.3965	38	40
47.357	48.1032	53	56
47.357	48.0877	56	57
47.357	48.0877	70	57
47.7223	48.1032	65	52
48.0877	48.8299	38	58
48.0877	48.1824	46	58
48.0877	48.8299	56	59
48.0877	50.3732	70	59
48.1824	48.3698	48	47
48.2766	48.4623	46	57
48.3698	48.8299	48	51
48.4623	48.7058	46	52
48.4623	48.8299	66	54
48.5844	48.8299	45	58
48.7058	50.3732	46	51
48.8299	50.3732	39	55
48.8299	49.6352	56	65
49.245	49.6352	68	49
49.6211	50.2839	55	54
49.9971	50.3732	67	47
50.3732	51.1147	55	50
50.3732	51.1147	63	38
50.3732	51.1147	75	54
50.7386	51.1147	58	44
50.7386	51.1147	65	41
50.7386	51.1147	77	58
51.1147	52.6248	51	42
51.1147	51.8723	63	50
51.1147	51.4907	67	64
51.1147	52.6248	79	64
51.4907	51.8723	67	38
51.4907	51.8723	75	50
51.8603	52.6248	68	43
51.8603	52.6048	77	54
52.2196	52.6248	67	37
52.2196	52.6248	75	50
52.5085	53.3572	72	52
52.6048	53.3572	55	35
52.6048	53.3572	63	42
52.6048	53.3572	77	52
52.9743	53.3572	60	39
52.9743	53.3572	67	45
52.9743	53.3572	75	45
53.3572	54.8713	43	37
53.3572	54.12	58	44
53.3572	53.7311	62	56
53.3572	54.8713	74	56
53.7311	54.12	62	38
53.7311	54.12	70	47
54.0985	54.8713	63	42
54.0985	54.8713	72	52
54.466	54.8713	62	36
54.466	54.8421	70	48
54.7481	55.6088	67	52
54.8421	55.2117	55	41
54.8421	55.6088	58	41
54.8421	55.6088	70	52
55.2117	55.6088	55	36
55.2117	55.6088	62	46
55.6088	57.1306	48	35
55.6088	56.3816	63	42
55.6088	55.9894	67	50
55.6088	56.7307	79	59
55.9894	56.3816	67	38
55.9894	56.3816	75	50
56.3633	57.1306	68	41
56.3633	57.1136	77	54
56.7307	57.1306	67	38
56.7307	57.1306	75	48
56.7307	57.1306	79	48
57.1136	57.8705	55	40
57.1136	57.8705	63	40
57.1136	57.8705	72	45
57.1136	57.8705	77	54
57.4853	57.8705	60	36
57.4853	57.8705	67	48
57.6779	57.8705	75	52
57.8705	59.3684	43	41
57.8705	58.6338	58	41
57.8705	58.2466	62	54
57.8705	59.3684	74	54
58.2466	58.6338	62	34
58.2466	58.6338	70	45
58.6183	59.2785	63	41
58.6183	59.2785	72	49
58.99	59.3684	62	37
58.99	59.3684	70	46
59.3684	60.1137	55	34
59.3684	60.1137	58	40
59.3684	60.1276	62	30
59.3684	60.1276	67	43
59.741	60.1276	57	40
59.741	60.1276	60	28
59.741	60.1276	69	39
60.1137	61.5859	48	27
60.1137	60.8574	55	32
60.1137	60.8574	58	29
60.1137	60.8574	70	42
60.4854	60.8574	53	33
60.4854	60.8574	69	31
60.4854	60.8574	72	44
60.8467	61.6045	52	35
60.8467	61.6045	67	33
60.8467	61.6045	74	46
61.2163	61.6045	50	37
61.2163	61.6045	65	34
61.2163	61.6045	76	48
61.5859	63.8394	36	33
61.5859	62.3437	48	39
61.5859	62.3437	64	35
61.5859	62.3437	77	50
61.962	62.3437	46	40
61.962	62.3437	74	37
61.962	62.3437	79	52
62.3437	63.0998	45	41
62.3437	63.0998	72	38
62.3437	63.0998	81	53
62.7111	63.0998	46	40
62.7111	63.0998	76	37
62.7111	63.0998	79	52
63.0872	63.8551	48	39
63.0872	63.8551	69	36
63.0872	63.8551	77	51
63.4633	63.8551	50	38
63.4633	63.8551	72	35
63.4633	63.8551	76	50
63.8394	64.6006	36	31
63.8394	64.6006	52	37
63.8394	64.6006	67	34
63.8394	64.6006	74	49
64.2155	64.6006	53	36
64.2155	64.6006	69	34
64.2155	64.6006	72	48
64.6006	66.105	48	29
64.6006	65.3763	55	35
64.6006	65.3763	64	33
64.6006	65.3763	70	47
64.9767	65.3763	57	35
64.9767	65.3763	65	28
64.9767	65.3763	69	40
65.3528	66.1225	58	36
65.3528	66.1225	61	33
65.3528	66.1225	67	46
65.7289	66.1225	59	33
65.7289	66.1225	62	28
65.7289	66.1225	65	40
66.105	68.8793	48	33
66.105	66.8707	60	39
66.105	66.8823	63	32
66.105	66.8823	69	45
66.4878	66.8823	58	34
66.4878	66.8823	64	28
66.4878	66.8823	67	40
66.8707	67.7266	57	35
66.8707	67.7022	60	33
66.8707	67.7266	65	46
67.2703	67.7266	56	28
67.2703	67.7266	63	23
67.2703	67.7266	66	35
67.7022	68.2138	55	28
67.7022	68.2138	60	23
67.7022	68.2138	67	33
67.9462	68.2138	54	25
67.9462	68.2138	63	19
67.9462	68.2138	68	28
68.1901	68.8182	53	28
68.1901	68.8182	62	23
68.1901	68.8182	69	33
68.4478	68.8182	51	24
68.4478	68.8182	60	19
68.4478	68.8182	65	28
68.8793	69.6271	50	35
68.8793	69.6271	58	27
68.8793	69.6271	70	38
69.2532	69.6271	53	35
69.2532	69.6271	60	27
69.2532	69.6271	72	38
69.6271	71.116	46	30
69.6271	70.3891	58	36
69.6271	69.9883	62	28
69.6271	70.3891	74	39
69.9883	70.3891	62	38
69.9883	70.3891	65	30
69.9883	70.3891	77	47
70.3739	71.116	63	41
70.3739	71.116	67	32
70.3739	71.116	79	56
70.7372	71.1005	62	39
70.7372	71.116	65	26
70.7372	71.116	77	37
71.1005	71.4723	58	37
71.1005	71.8874	62	28
71.1005	71.8874	74	39
71.4723	71.8874	53	32
71.4723	71.8874	58	24
71.4723	71.8874	70	35
71.6798	74.7564	41	38
71.8874	74.7564	51	25
71.8874	74.3825	53	30
71.8874	74.7564	57	23
71.8874	74.3825	60	23
71.8874	74.7564	65	34
74.0086	74.7564	50	39
74.0086	74.7564	58	30
74.0086	74.7564	70	43
74.3825	74.7564	53	39
74.3825	74.7564	60	30
74.3825	74.7564	72	43
74.7564	76.2159	46	74
74.7564	75.5045	58	41
74.7564	75.1176	62	31
74.7564	75.5045	74	44
75.1176	75.5045	62	43
75.1176	75.5045	65	34
75.1176	75.5045	77	52
75.4893	76.2314	63	46
75.4893	76.2314	67	36
75.4893	76.2314	79	57
75.8526	76.2159	62	44
75.8526	76.2314	65	29
75.8526	76.2314	77	42
76.2159	76.9898	46	70
76.2159	76.5877	58	42
76.2159	76.9898	62	31
76.2159	76.9898	74	44
76.5877	76.9898	50	66
76.5877	76.9898	53	36
76.5877	76.9898	58	28
76.5877	76.9898	70	39
76.7887	77.3534	41	43
76.9898	78.8361	51	28
76.9898	79.21	53	34
76.9898	79.21	57	27
76.9898	78.8361	60	27
76.9898	79.21	65	38
77.3534	77.7215	43	53
77.7215	78.0919	46	59
78.0919	79.21	45	54
78.4623	79.21	44	37
78.4623	79.21	50	44
78.4623	79.21	58	23
78.4623	79.21	70	47
78.8361	79.21	43	39
78.8361	79.21	51	47
78.8361	79.21	60	23
78.8361	79.21	72	49
79.21	79.956	41	40
79.21	79.956	53	48
79.21	79.956	62	25
79.21	79.956	74	51
79.5712	79.956	55	50
79.5712	79.956	63	26
79.5712	79.956	75	52
79.8484	80.6829	39	44
79.9408	80.6829	56	52
79.9408	80.6829	65	28
79.9408	80.6829	77	55
80.3041	80.6829	58	51
80.3041	80.6829	66	28
80.3041	80.6829	78	58
80.5766	81.4024	38	44
80.6674	81.4024	59	52
80.6674	81.4024	67	30
80.6674	81.4024	79	63
81.0391	81.4024	55	56
81.0391	81.4024	65	28
81.0391	81.4024	77	55
81.4024	82.1621	36	28
81.4024	82.1438	60	55
81.4024	82.1621	64	28
81.4024	82.1621	76	55
81.7699	82.1621	43	27
81.7699	82.1621	55	54
81.7699	82.1621	62	26
81.7699	82.1621	74	53
82.1438	82.8948	48	25
82.1438	82.8823	52	52
82.1438	82.8823	60	23
82.1438	82.8823	72	50
82.5096	82.8948	47	24
82.5096	82.8948	53	50
82.5096	82.8948	62	23
82.5096	82.8948	74	47
82.8823	83.6345	46	23
82.8823	83.6345	52	49
82.8823	83.6345	60	22
82.8823	83.6345	72	45
83.2584	83.6345	45	23
83.2584	83.6345	53	47
83.2584	83.6345	62	20
83.2584	83.6345	74	42
83.6345	84.3804	43	40
83.6345	84.3804	55	48
83.6345	84.3804	64	30
83.6345	84.3804	76	51
83.9957	84.3804	57	50
83.9957	84.3804	65	31
83.9957	84.3804	77	52
84.2729	85.1073	41	44
84.3653	85.1073	58	52
84.3653	85.1073	66	33
84.3653	85.1073	78	55
84.7286	85.1073	59	51
84.7286	85.1073	67	33
84.7286	85.1073	79	58
85.001	85.8269	40	44
85.0918	85.8269	60	52
85.0918	85.8269	69	36
85.0918	85.8269	81	63
85.4636	85.8269	58	56
85.4636	85.8269	67	33
85.4636	85.8269	79	55
85.8269	86.598	41	33
85.8269	86.598	57	55
85.8269	86.598	65	33
85.8269	86.598	77	55
86.1943	86.598	43	32
86.1943	86.598	55	54
86.1943	86.598	63	31
86.1943	86.598	75	53
86.5772	87.4725	44	30
86.5772	87.4725	53	52
86.5772	87.4725	62	28
86.5772	87.4725	74	50
86.9923	87.4725	45	29
86.9923	87.4725	51	50
86.9923	87.4725	60	28
86.9923	87.4725	72	47
87.4489	88.2582	46	28
87.4489	88.2582	50	37
87.4489	88.2582	58	28
87.4489	88.2582	70	47
87.8536	88.2582	53	40
87.8536	88.2582	60	24
87.8536	88.2582	72	42
88.2582	89.0159	34	46
88.2582	89.0159	58	43
88.2582	89.0159	62	39
88.2582	89.7839	74	47
88.6278	89.0159	57	39
88.6278	89.0159	72	52
88.9974	89.7839	55	39
88.9974	89.7839	70	49
89.367	89.7839	53	39
89.367	89.7839	69	44
89.7654	90.5256	46	42
89.7654	90.5256	51	39
89.7654	90.5256	67	41
89.7654	90.5256	75	52
90.135	90.5256	50	44
90.135	90.5256	65	44
90.135	90.5256	77	55
90.5133	91.2679	34	52
90.5133	91.2679	48	48
90.5133	91.2679	63	47
90.5133	92.013	79	61
90.8829	91.2679	50	39
90.8829	91.2679	65	43
91.2525	92.013	51	39
91.2525	92.013	67	47
91.6221	92.013	53	36
91.6221	92.013	69	38
91.6221	92.013	77	53
92.0004	92.806	46	42
92.0004	92.806	55	39
92.0004	92.806	70	36
92.0004	92.806	75	51
92.3787	92.806	56	44
92.3787	92.806	71	35
92.3787	92.806	74	50
92.757	93.5112	34	42
92.757	93.5112	57	39
92.757	93.3082	72	52
93.1245	93.5112	55	39
93.1245	93.5112	70	47
93.3082	93.4919	72	43
93.4001	93.5112	74	43
93.4919	94.2584	53	41
93.4919	94.2584	69	33
93.4919	94.2584	72	47
93.8771	94.2584	51	39
93.8771	94.2584	67	31
93.8771	94.2584	74	44
94.2445	94.9837	46	48
94.2445	94.9837	50	44
94.2445	94.9837	65	35
94.2445	94.9837	75	53
94.6141	94.9837	48	38
94.6141	94.9837	63	39
94.9837	95.7445	34	50
94.9837	95.7445	46	46
94.9837	95.7445	62	45
94.9837	96.4921	77	59
95.3533	95.7445	48	35
95.3533	95.7445	63	47
95.7229	96.4921	50	39
95.7229	96.4921	65	47
96.0925	96.4921	51	35
96.0925	96.4921	67	33
96.0925	96.4921	75	46
96.4731	97.2499	46	42
96.4731	97.2499	52	39
96.4731	97.2499	68	33
96.4731	97.2499	74	47
96.8536	97.2499	53	35
96.8536	97.2499	69	31
96.8536	97.2499	72	44
97.2342	98.0088	34	42
97.2342	98.0088	55	39
97.2342	97.7983	70	47
97.6103	98.0088	53	34
97.6103	98.0088	69	39
97.7983	97.9863	70	38
97.8923	98.0088	72	37
97.9863	98.7499	51	39
97.9863	98.7499	67	27
97.9863	98.7499	70	45
98.3715	98.7499	50	34
98.3715	98.7499	65	28
98.3715	98.7499	72	46
98.6471	99.1151	46	33
98.739	99.5068	48	39
98.739	99.5068	63	35
98.739	99.5068	74	50
99.1151	99.5068	46	45
99.1151	99.5068	62	31
99.4911	100.263	34	42
99.4911	100.263	45	39
99.4911	100.263	60	30
99.4911	100.263	75	51
99.8665	103.545	46	38
99.8665	100.263	62	29
99.8665	100.263	74	50
100.244	101.04	48	36
100.244	101.04	63	28
100.244	101.04	72	48
100.629	101.04	49	35
100.629	101.04	64	28
100.629	101.04	70	47
101.02	101.843	50	38
101.02	101.824	65	28
101.02	101.843	69	46
101.418	101.843	51	34
101.418	101.843	63	26
101.418	101.843	67	44
101.824	102.681	53	35
101.824	102.67	62	23
101.824	102.681	65	41
102.244	102.681	55	33
102.244	102.681	60	23
102.244	102.681	63	40
102.563	102.681	57	40
102.67	103.438	58	23
102.67	103.438	62	39
103.103	103.545	57	22
103.103	103.545	60	38
103.551	103.814	55	21
103.558	103.823	58	36
103.808	104.085	53	18
103.808	104.085	57	31
103.808	104.085	62	36
104.085	104.375	51	19
104.085	104.375	55	33
104.085	104.375	63	31
104.375	104.682	50	19
104.375	104.682	53	34
104.375	104.682	65	34
104.682	108.803	48	27
104.682	108.803	51	38
104.682	107.447	58	27
104.682	107.447	66	38
107.429	108.803	57	28
107.429	108.803	65	34
108.632	111.551	34	33
108.803	111.551	50	40
108.803	111.551	53	27
108.803	111.551	58	27
108.803	111.551	65	38
112.238	112.557	69	43
112.238	112.557	72	43
112.238	112.557	77	60
112.397	112.557	65	51
112.557	112.634	70	57
112.557	112.712	74	66
112.712	112.789	62	50
112.867	112.944	67	53
112.867	113.477	70	43
112.867	113.177	74	60
113.022	113.1	65	51
113.177	113.252	64	57
113.177	113.327	72	68
113.327	113.402	60	48
113.477	113.79	65	65
113.477	114.094	69	43
113.477	113.79	72	60
113.633	113.79	57	57
113.79	113.866	62	68
113.79	114.094	65	39
113.79	114.094	70	67
113.942	114.018	55	58
114.094	114.17	60	66
114.094	114.398	64	43
114.094	114.398	67	60
114.246	114.322	58	53
114.398	114.722	57	63
114.398	114.479	63	60
114.398	114.722	72	63
114.56	114.641	63	55
114.722	115.356	55	73
114.722	115.356	70	43
114.722	115.038	75	60
114.88	115.038	62	54
115.038	115.356	74	66
115.192	115.356	57	53
115.345	115.652	54	64
115.345	115.641	62	55
115.345	115.652	69	60
115.499	115.641	60	53
115.652	115.997	55	73
115.652	115.997	58	47
115.652	115.997	70	66
115.809	115.997	48	60
115.966	116.288	53	67
115.966	116.288	60	43
115.966	116.629	65	43
115.966	116.288	69	60
116.127	116.288	45	56
116.288	116.629	46	62
116.288	116.629	62	43
116.288	116.629	67	65
116.444	116.629	43	57
116.6	116.683	48	60
116.6	116.978	60	43
116.6	116.978	64	60
116.767	116.978	46	55
116.935	117.121	45	60
116.935	117.121	65	60
117.121	117.215	69	51
117.308	117.968	29	68
117.308	117.968	41	78
117.308	117.397	72	51
117.308	117.663	77	66
117.485	117.663	65	51
117.663	117.739	70	57
117.663	117.816	74	69
117.816	117.892	62	50
117.968	118.044	67	53
117.968	118.581	70	43
117.968	118.272	74	63
118.12	118.196	65	51
118.272	118.35	64	57
118.272	118.427	72	69
118.427	118.504	60	48
118.581	118.906	65	65
118.581	119.212	69	43
118.581	118.906	72	60
118.744	118.906	57	57
118.906	118.983	62	68
118.906	119.212	65	39
118.906	119.212	70	67
119.059	119.136	55	58
119.212	119.288	60	66
119.212	119.517	64	43
119.212	119.517	67	60
119.365	119.441	58	53
119.517	119.841	57	63
119.517	119.598	63	60
119.517	119.841	72	63
119.679	119.76	63	55
119.841	120.475	55	73
119.841	120.475	70	43
119.841	120.158	75	60
119.999	120.158	62	54
120.158	120.475	74	66
120.311	120.475	57	53
120.465	120.772	54	64
120.465	120.76	62	55
120.465	120.772	69	60
120.618	120.76	60	53
120.772	121.117	55	73
120.772	121.117	58	47
120.772	121.117	70	66
120.929	121.117	48	60
121.085	121.411	53	67
121.085	121.411	60	43
121.085	121.774	65	43
121.085	121.411	69	60
121.248	121.411	45	56
121.411	121.774	46	62
121.411	121.774	62	43
121.411	121.774	67	65
121.578	121.774	43	57
121.744	121.829	48	60
121.744	122.253	60	43
121.744	122.123	64	60
121.914	122.123	46	55
122.083	122.253	45	60
122.083	122.253	65	60
122.253	122.338	57	47
122.422	123.425	29	39
122.422	123.425	41	47
122.422	122.762	60	53
122.422	122.766	65	53
122.592	122.766	53	47
122.762	123.425	57	43
122.762	123.425	60	51
122.92	123.425	48	46
123.078	123.395	58	43
123.078	123.425	62	51
123.237	123.425	56	45
123.395	123.474	58	43
123.395	123.712	63	51
123.554	123.633	54	46
123.712	124.687	30	39
123.712	124.687	42	56
123.712	124.041	58	51
123.712	124.041	63	61
123.876	124.041	51	48
124.041	124.687	54	47
124.041	124.687	58	56
124.197	124.687	46	49
124.353	124.687	44	46
124.353	124.687	53	48
124.353	124.687	60	57
124.509	124.687	51	48
124.665	124.976	29	36
124.665	124.976	41	51
124.665	124.742	49	47
124.665	124.976	61	56
124.82	124.898	56	48
124.976	125.964	30	39
124.976	125.964	42	56
124.976	125.307	58	54
124.976	125.307	63	64
125.142	125.307	51	51
125.307	125.964	54	48
125.307	125.964	58	57
125.461	125.964	46	51
125.616	125.964	44	49
125.616	125.964	53	46
125.616	125.964	60	55
125.77	125.964	51	51
125.924	126.233	29	39
125.924	126.233	41	56
125.924	126.002	49	48
125.924	126.002	61	57
126.079	126.233	49	51
126.233	126.56	30	36
126.233	126.56	42	51
126.233	126.56	58	57
126.397	126.56	51	51
126.56	126.88	31	43
126.56	126.88	43	60
126.56	126.88	63	59
126.715	126.88	48	52
126.871	127.212	32	36
126.871	127.212	44	51
126.871	127.212	60	60
127.032	127.212	53	56
127.194	127.521	33	42
127.194	127.521	45	59
127.194	127.521	65	62
127.348	127.521	50	55
127.503	127.831	34	38
127.503	127.831	46	53
127.503	127.831	62	64
127.662	127.831	55	59
127.821	128.145	35	43
127.821	128.145	47	61
127.821	128.145	67	66
127.975	128.145	60	59
128.128	128.498	36	40
128.128	128.498	48	57
128.128	128.498	72	69
128.294	128.498	65	64
128.459	129.304	29	43
128.459	129.304	41	67
128.459	128.811	77	71
128.624	128.816	69	51
128.811	128.895	72	51
128.811	129.149	77	66
128.98	129.149	65	51
129.149	129.227	70	57
129.149	129.304	74	69
129.304	129.382	62	50
129.459	129.536	67	53
129.459	130.07	70	43
129.459	129.766	74	63
129.613	129.69	65	51
129.766	129.842	64	57
129.766	129.918	72	69
129.918	129.994	60	48
130.07	130.392	65	65
130.07	130.699	69	43
130.07	130.392	72	60
130.231	130.392	57	57
130.392	130.469	62	68
130.392	130.699	65	39
130.392	130.699	70	67
130.546	130.622	55	58
130.699	130.776	60	66
130.699	131.006	64	43
130.699	131.006	67	60
130.853	130.93	58	53
131.006	131.33	57	63
131.006	131.087	63	60
131.006	131.33	72	63
131.168	131.249	63	55
131.33	131.971	55	73
131.33	131.971	70	43
131.33	131.652	75	60
131.491	131.652	62	54
131.652	131.971	74	66
131.806	131.971	57	53
131.96	132.269	54	64
131.96	132.258	62	55
131.96	132.269	69	60
132.115	132.258	60	53
132.269	132.616	55	73
132.269	132.616	58	47
132.269	132.616	70	66
132.427	132.616	48	60
132.584	132.911	53	67
132.584	132.911	60	43
132.584	133.267	65	43
132.584	132.911	69	60
132.748	132.911	45	56
132.911	133.267	46	62
132.911	133.267	62	51
132.911	133.267	67	65
133.075	133.267	43	57
133.239	133.321	48	60
133.239	133.732	60	43
133.239	133.606	64	60
133.403	133.606	46	55
133.567	133.732	45	60
133.567	133.732	65	60
133.732	133.814	57	47
133.896	134.879	29	39
133.896	134.879	41	47
133.896	134.225	60	53
133.896	134.229	65	53
134.061	134.229	53	47
134.225	134.879	57	43
134.225	134.879	60	51
134.381	134.879	48	46
134.537	134.849	58	43
134.537	134.879	62	51
134.693	134.879	56	45
134.849	134.927	58	43
134.849	135.161	63	51
135.005	135.083	54	46
135.161	136.136	30	39
135.161	136.136	42	56
135.161	135.49	58	51
135.161	135.49	63	61
135.325	135.49	51	48
135.49	136.136	54	47
135.49	136.136	58	56
135.646	136.136	46	49
135.802	136.136	44	46
135.802	136.136	53	48
135.802	136.136	60	57
135.958	136.136	51	48
136.114	136.425	29	36
136.114	136.425	41	51
136.114	136.191	49	47
136.114	136.425	61	56
136.269	136.347	56	48
136.425	137.42	30	39
136.425	137.42	42	56
136.425	136.756	58	54
136.425	136.756	63	64
136.591	136.756	51	51
136.756	137.42	54	48
136.756	137.42	58	57
136.912	137.42	46	51
137.068	137.42	44	49
137.068	137.42	53	46
137.068	137.42	60	55
137.224	137.42	51	51
137.38	137.692	29	39
137.38	137.692	41	56
137.38	137.458	49	48
137.38	137.458	61	57
137.536	137.692	49	51
137.692	138.015	30	36
137.692	138.015	42	51
137.692	138.015	58	57
137.853	138.015	51	51
138.015	138.335	31	43
138.015	138.335	43	60
138.015	138.335	63	59
138.17	138.335	48	52
138.326	138.66	32	36
138.326	138.66	44	51
138.326	138.66	60	60
138.484	138.66	53	56
138.642	138.968	33	42
138.642	138.968	45	59
138.642	138.968	65	62
138.796	138.968	50	55
138.949	139.278	34	38
138.949	139.278	46	53
138.949	139.278	62	64
139.109	139.278	55	59
139.268	139.591	35	43
139.268	139.591	47	61
139.268	139.591	67	66
139.421	139.591	60	59
139.575	139.944	36	40
139.575	139.944	48	57
139.575	139.944	72	69
139.74	139.944	65	64
139.906	140.754	29	43
139.906	140.754	41	67
139.906	140.257	77	71
140.071	140.263	69	51
140.257	140.342	72	51
140.257	140.594	77	66
140.426	140.594	65	51
140.594	140.674	70	57
140.594	140.754	74	69
140.754	140.834	62	50
140.914	140.992	67	53
140.914	141.533	70	43
140.914	141.226	74	63
141.07	141.148	65	51
141.226	141.303	64	57
141.226	141.379	72	69
141.379	141.456	60	48
141.533	141.856	65	65
141.533	142.168	69	43
141.533	141.856	72	60
141.695	141.856	57	57
141.856	141.934	62	68
141.856	142.168	65	39
141.856	142.168	70	67
142.012	142.09	55	58
142.168	142.246	60	66
142.168	142.48	64	43
142.168	142.48	67	60
142.324	142.402	58	53
142.48	142.804	57	63
142.48	142.561	63	60
142.48	142.804	72	63
142.642	142.723	63	55
142.804	143.438	55	73
142.804	143.438	70	51
142.804	143.121	75	60
142.962	143.121	62	54
143.121	143.438	74	66
143.274	143.438	57	53
143.428	143.735	54	64
143.428	143.723	62	55
143.428	143.735	69	60
143.581	143.723	60	53
143.735	144.09	55	73
143.735	144.09	58	56
143.735	144.09	70	66
143.896	144.09	48	60
144.057	144.395	53	67
144.057	144.395	60	43
144.057	144.783	65	43
144.057	144.395	69	60
144.226	144.395	45	56
144.395	144.783	46	62
144.395	144.783	62	43
144.395	144.783	67	65
144.571	144.783	43	49
144.747	144.85	48	54
144.747	146.251	60	43
144.747	145.262	64	60
144.953	145.262	46	34
145.16	146.251	45	43
145.16	145.599	53	43
145.16	146.251	65	60
145.599	146.251	51	47
146.251	146.999	50	39
146.251	146.999	58	30
146.251	146.999	70	43
146.625	146.999	53	39
146.625	146.999	60	30
146.625	146.999	72	43
146.999	148.495	46	34
146.999	147.768	58	41
146.999	147.36	62	31
146.999	147.768	74	44
147.36	147.768	62	43
147.36	147.768	65	34
147.36	147.768	77	54
147.753	148.495	63	46
147.753	148.495	67	36
147.753	148.495	79	58
148.116	148.48	62	44
148.116	148.495	65	29
148.116	148.495	77	42
148.48	148.851	58	42
148.48	149.266	62	31
148.48	149.266	74	44
148.851	149.266	53	36
148.851	149.266	58	28
148.851	149.266	70	39
149.059	151.844	41	43
149.266	151.844	51	28
149.266	151.47	53	34
149.266	151.844	57	27
149.266	151.47	60	27
149.266	151.844	65	38
151.097	151.844	50	39
151.097	151.844	58	30
151.097	151.844	70	43
151.47	151.844	53	39
151.47	151.844	60	30
151.47	151.844	72	43
151.844	153.318	46	34
151.844	152.591	58	41
151.844	152.205	62	31
151.844	152.591	74	44
152.205	152.591	62	43
152.205	152.591	65	34
152.205	152.591	77	51
152.576	153.318	63	46
152.576	153.318	67	36
152.576	153.318	79	57
152.939	153.302	62	44
152.939	153.318	65	29
152.939	153.318	77	42
153.302	153.674	58	42
153.302	154.089	62	31
153.302	154.089	74	44
153.674	154.089	53	36
153.674	154.089	58	28
153.674	154.089	70	39
153.881	156.681	41	43
154.089	156.681	51	28
154.089	156.307	53	34
154.089	156.681	57	27
154.089	156.307	60	27
154.089	156.681	65	38
155.933	156.681	50	39
155.933	156.681	58	30
155.933	156.681	70	43
156.307	156.681	53	39
156.307	156.681	60	30
156.307	156.681	72	43
156.681	158.154	46	34
156.681	157.427	58	41
156.681	157.042	62	37
156.681	158.893	74	44
157.042	157.427	62	43
157.042	157.427	65	44
157.412	158.154	63	48
157.412	158.154	67	51
157.775	158.138	62	47
157.775	158.154	65	43
158.138	158.51	58	46
158.138	158.893	62	46
158.51	158.893	53	40
158.51	158.893	58	40
158.701	158.893	70	53
158.893	160.344	48	39
158.893	159.617	57	47
158.893	159.617	65	42
158.893	160.344	77	58
159.254	159.617	60	41
159.254	159.617	69	45
159.602	160.344	62	48
159.602	160.344	70	47
159.965	160.344	60	39
159.965	160.344	69	37
160.147	160.344	76	57
160.328	161.09	57	44
160.328	161.09	65	38
160.328	161.09	74	62
160.7	161.09	53	37
160.7	161.09	60	33
160.895	161.09	36	32
160.895	161.09	72	55
161.09	161.836	51	32
161.09	161.836	58	40
161.09	162.581	72	59
161.451	161.836	52	37
161.451	161.821	60	44
161.821	162.581	60	43
161.821	162.564	69	47
162.184	162.581	58	39
162.184	162.581	67	35
162.184	162.581	70	41
162.564	163.458	55	33
162.564	163.458	64	37
162.564	163.458	69	46
162.834	163.458	52	30
162.834	163.458	60	34
162.968	163.458	67	41
163.131	163.458	49	30
163.131	163.458	58	34
163.458	165.865	41	36
163.458	163.752	47	30
163.458	163.752	56	35
163.458	165.865	65	42
163.734	164.028	48	27
163.734	164.028	57	32
164.011	164.288	50	27
164.011	164.288	58	32
164.288	165.471	48	32
164.288	165.471	57	35
165.865	166.6	46	39
166.232	166.6	48	44
166.508	166.6	34	47
166.6	168.092	50	52
166.6	167.347	56	49
166.6	168.782	70	49
166.967	167.347	58	41
167.32	168.092	67	45
167.676	168.092	65	37
168.043	168.782	46	39
168.043	168.782	60	43
168.29	168.782	48	44
168.413	168.782	58	37
168.536	168.782	50	48
168.69	168.782	36	41
168.782	170.24	51	54
168.782	169.522	56	49
168.782	170.993	70	49
169.152	169.522	58	41
169.511	170.231	65	49
169.87	170.24	63	38
170.24	171.01	46	44
170.24	171.01	60	46
170.425	171.01	48	47
170.61	171.01	50	50
170.61	171.01	58	38
170.794	171.01	51	53
170.894	171.01	37	44
170.993	171.763	52	63
170.993	171.724	56	54
170.993	171.724	70	54
171.358	171.763	64	47
171.632	171.763	38	40
171.724	172.47	53	56
171.724	172.454	56	57
171.724	172.454	70	57
172.089	172.47	65	52
172.454	173.197	38	58
172.454	172.549	46	58
172.454	173.197	56	59
172.454	174.762	70	59
172.549	172.737	48	47
172.643	172.829	46	57
172.737	173.197	48	51
172.829	173.073	46	52
172.829	173.197	66	54
172.951	173.197	45	58
173.073	174.762	46	51
173.197	174.762	39	55
173.197	174.002	56	65
173.612	174.002	68	50
173.988	174.668	55	54
174.364	174.762	67	47
174.762	175.504	55	50
174.762	175.504	63	38
174.762	175.504	75	54
175.128	175.504	58	44
175.128	175.504	65	41
175.128	175.504	77	58
175.504	177.008	51	42
175.504	176.255	63	50
175.504	175.874	67	64
175.504	177.008	79	64
175.874	176.255	67	38
175.874	176.255	75	50
176.243	177.008	68	43
176.243	176.988	77	54
176.602	177.008	67	37
176.602	177.008	75	50
176.891	177.74	72	52
176.988	177.74	55	35
176.988	177.74	63	42
176.988	177.74	77	52
177.357	177.74	60	39
177.357	177.74	67	45
177.357	177.74	75	45
177.74	179.254	43	37
177.74	178.503	58	44
177.74	178.114	62	56
177.74	179.254	74	56
178.114	178.503	62	38
178.114	178.503	70	47
178.481	179.254	63	42
178.481	179.254	72	52
178.849	179.254	62	36
178.849	179.225	70	48
179.131	179.992	67	52
179.225	179.595	55	41
179.225	179.992	58	41
179.225	179.992	70	52
179.595	179.992	55	36
179.595	179.992	62	46
179.992	181.513	43	35
179.992	180.764	63	42
179.992	180.372	67	50
179.992	181.114	79	59
180.372	180.764	67	38
180.372	180.764	75	50
180.746	181.513	68	41
180.746	181.496	77	54
181.114	181.513	67	38
181.114	181.513	75	48
181.114	181.513	79	48
181.496	182.253	55	40
181.496	182.253	63	40
181.496	182.253	72	45
181.496	182.253	77	54
181.868	182.253	60	36
181.868	182.253	67	48
182.061	182.253	75	52
182.253	183.751	43	41
182.253	183.017	58	41
182.253	182.629	62	54
182.253	183.751	74	54
182.629	183.017	62	34
182.629	183.017	70	45
183.001	183.661	63	41
183.001	183.661	72	49
183.373	183.751	62	37
183.373	183.751	70	46
183.751	184.522	55	34
183.751	184.522	58	40
183.751	184.535	62	30
183.751	184.535	67	43
184.136	184.535	57	40
184.136	184.535	60	28
184.136	184.535	69	39
184.522	185.983	48	27
184.522	185.255	55	32
184.522	185.255	58	29
184.522	185.255	70	42
184.883	185.255	53	33
184.883	185.255	69	31
184.883	185.255	72	44
185.244	186.002	52	35
185.244	186.002	67	33
185.244	186.002	74	46
185.614	186.002	50	37
185.614	186.002	65	34
185.614	186.002	76	48
185.983	188.22	36	33
185.983	186.741	48	39
185.983	186.741	64	35
185.983	186.741	77	50
186.359	186.741	46	40
186.359	186.741	74	37
186.359	186.741	79	52
186.741	187.487	45	41
186.741	187.487	72	38
186.741	187.487	81	53
187.109	187.487	46	40
187.109	187.487	76	37
187.109	187.487	79	52
187.475	188.235	48	39
187.475	188.235	69	36
187.475	188.235	77	51
187.847	188.235	50	38
187.847	188.235	72	35
187.847	188.235	76	50
188.22	188.978	36	31
188.22	188.978	52	37
188.22	188.978	67	34
188.22	188.978	74	49
188.593	188.978	53	36
188.593	188.978	69	34
188.593	188.978	72	48
188.978	190.482	48	29
188.978	189.753	55	35
188.978	189.753	64	33
188.978	189.753	70	47
189.354	189.753	57	35
189.354	189.753	65	28
189.354	189.753	69	40
189.73	190.5	58	36
189.73	190.5	61	33
189.73	190.5	67	46
190.106	190.5	59	33
190.106	190.5	62	28
190.106	190.5	65	40
190.482	193.256	48	33
190.482	191.248	60	39
190.482	191.259	63	32
190.482	191.259	69	45
190.865	191.259	58	34
190.865	191.259	64	28
190.865	191.259	67	40
191.248	192.104	57	35
191.248	192.079	60	33
191.248	192.104	65	46
191.647	192.104	56	28
191.647	192.104	63	23
191.647	192.104	66	35
192.079	192.591	55	28
192.079	192.591	60	23
192.079	192.591	67	33
192.323	192.591	54	25
192.323	192.591	63	19
192.323	192.591	68	28
192.567	193.195	53	28
192.567	193.195	62	23
192.567	193.195	69	33
192.825	193.195	51	24
192.825	193.195	60	19
192.825	193.195	65	28
193.256	194.004	50	35
193.256	194.004	58	27
193.256	194.004	70	38
193.63	194.004	53	35
193.63	194.004	60	27
193.63	194.004	72	38
194.004	195.477	46	30
194.004	194.751	58	36
194.004	194.365	62	28
194.004	194.751	74	39
194.365	194.751	62	38
194.365	194.751	65	30
194.365	194.751	77	48
194.735	195.477	63	41
194.735	195.477	67	32
194.735	195.477	79	54
195.099	195.462	62	39
195.099	195.477	65	26
195.099	195.477	77	37
195.462	195.834	58	37
195.462	196.249	62	28
195.462	196.249	74	39
195.834	196.249	53	32
195.834	196.249	58	24
195.834	196.249	70	35
196.041	199.081	41	38
196.249	199.081	51	25
196.249	198.707	53	30
196.249	199.081	57	23
196.249	198.707	60	23
196.249	199.081	65	34
198.333	199.081	50	39
198.333	199.081	58	30
198.333	199.081	70	43
198.707	199.081	53	39
198.707	199.081	60	30
198.707	199.081	72	43
199.081	200.537	46	74
199.081	199.825	58	41
199.081	199.442	62	31
199.081	199.825	74	44
199.442	199.825	62	43
199.442	199.825	65	34
199.442	199.825	77	54
199.81	200.552	63	46
199.81	200.552	67	36
199.81	200.552	79	57
200.173	200.537	62	44
200.173	200.552	65	29
200.173	200.552	77	42
200.537	201.31	46	70
200.537	200.908	58	42
200.537	201.31	62	31
200.537	201.31	74	44
200.908	201.31	50	66
200.908	201.31	53	36
200.908	201.31	58	28
200.908	201.31	70	39
201.109	201.682	41	43
201.31	203.171	51	28
201.31	203.545	53	34
201.31	203.545	57	27
201.31	203.171	60	27
201.31	203.545	65	38
201.682	202.054	43	53
202.054	202.426	46	59
202.426	203.545	45	54
202.797	203.545	44	31
202.797	203.545	50	44
202.797	203.545	58	33
202.797	203.545	70	47
203.171	203.545	43	33
203.171	203.545	51	47
203.171	203.545	60	34
203.171	203.545	72	49
203.545	204.291	41	34
203.545	204.291	53	48
203.545	204.291	62	36
203.545	204.291	74	51
203.906	204.291	55	50
203.906	204.291	63	37
203.906	204.291	75	52
204.184	205.018	39	44
204.276	205.018	56	52
204.276	205.018	65	39
204.276	205.018	77	55
204.639	205.018	58	51
204.639	205.018	66	39
204.639	205.018	78	58
204.912	205.738	38	44
205.003	205.738	59	52
205.003	205.738	67	43
205.003	205.738	79	62
205.374	205.738	55	56
205.374	205.738	65	39
205.374	205.738	77	55
205.738	206.497	36	39
205.738	206.479	60	55
205.738	206.497	64	39
205.738	206.497	76	55
206.105	206.497	43	38
206.105	206.497	55	54
206.105	206.497	62	37
206.105	206.497	74	53
206.479	207.228	48	36
206.479	207.215	52	52
206.479	207.215	60	34
206.479	207.215	72	50
206.847	207.228	47	35
206.847	207.228	53	50
206.847	207.228	62	33
206.847	207.228	74	47
207.215	207.967	46	34
207.215	207.967	52	49
207.215	207.967	60	32
207.215	207.967	72	45
207.591	207.967	45	33
207.591	207.967	53	47
207.591	207.967	62	29
207.591	207.967	74	42
207.967	208.713	43	34
207.967	208.713	55	48
207.967	208.713	64	36
207.967	208.713	76	51
208.329	208.713	57	50
208.329	208.713	65	37
208.329	208.713	77	52
208.606	209.44	41	44
208.698	209.44	58	52
208.698	209.44	66	39
208.698	209.44	78	57
209.061	209.44	59	51
209.061	209.44	67	39
209.061	209.44	79	59
209.334	210.16	40	44
209.425	210.16	60	52
209.425	210.16	69	43
209.425	210.16	81	64
209.796	210.16	58	56
209.796	210.16	67	39
209.796	210.16	79	55
210.16	210.931	41	39
210.16	210.931	57	55
210.16	210.931	65	39
210.16	210.931	77	55
210.527	210.931	43	38
210.527	210.931	55	54
210.527	210.931	63	37
210.527	210.931	75	53
210.91	211.826	44	36
210.91	211.826	53	52
210.91	211.826	62	34
210.91	211.826	74	50
211.325	211.826	45	35
211.325	211.826	51	50
211.325	211.826	60	33
211.325	211.826	72	47
211.803	212.612	46	34
211.803	212.612	50	37
211.803	212.612	58	33
211.803	212.612	70	47
212.207	212.612	53	40
212.207	212.612	60	29
212.207	212.612	72	42
212.612	213.37	34	46
212.612	213.37	58	43
212.612	213.37	62	39
212.612	214.138	74	47
212.982	213.37	57	39
212.982	213.37	72	52
213.351	214.138	55	39
213.351	214.138	70	49
213.721	214.138	53	39
213.721	214.138	69	44
214.119	214.88	46	42
214.119	214.88	51	39
214.119	214.88	67	34
214.119	214.88	75	49
214.489	214.88	50	44
214.489	214.88	65	37
214.489	214.88	77	52
214.867	215.622	34	52
214.867	215.622	48	48
214.867	215.622	63	47
214.867	216.367	79	56
215.237	215.622	50	39
215.237	215.622	65	43
215.606	216.367	51	39
215.606	216.367	67	47
215.976	216.367	53	36
215.976	216.367	69	38
215.976	216.367	77	53
216.354	217.146	46	42
216.354	217.146	55	39
216.354	217.146	70	36
216.354	217.146	75	51
216.725	217.146	56	44
216.725	217.146	71	35
216.725	217.146	74	50
217.097	217.852	34	42
217.097	217.852	57	39
217.097	217.832	72	52
217.465	217.852	55	39
217.465	217.852	70	47
217.832	218.599	53	41
217.832	218.599	69	33
217.832	218.599	72	47
218.217	218.599	51	39
218.217	218.599	67	31
218.217	218.599	74	44
218.585	219.324	46	48
218.585	219.324	50	44
218.585	219.324	65	42
218.585	219.324	75	50
218.954	219.324	48	38
218.954	219.324	63	47
219.324	220.085	34	50
219.324	220.085	46	46
219.324	220.085	62	45
219.324	220.832	77	54
219.694	220.085	48	35
219.694	220.085	63	47
220.063	220.832	50	39
220.063	220.832	65	47
220.433	220.832	51	35
220.433	220.832	67	33
220.433	220.832	75	46
220.813	221.59	46	42
220.813	221.59	52	39
220.813	221.59	68	33
220.813	221.59	74	47
221.194	221.59	53	35
221.194	221.59	69	31
221.194	221.59	72	44
221.575	222.349	34	42
221.575	222.349	55	39
221.575	222.139	70	47
221.951	222.349	53	34
221.951	222.349	69	39
222.139	222.327	70	38
222.233	222.349	72	37
222.327	223.09	51	39
222.327	223.09	67	27
222.327	223.09	70	45
222.712	223.09	50	34
222.712	223.09	65	28
222.712	223.09	72	46
222.987	223.455	46	33
223.079	223.847	48	39
223.079	223.847	63	50
223.079	223.847	74	50
223.455	223.847	46	45
223.455	223.847	62	44
223.831	224.604	34	42
223.831	224.604	45	39
223.831	224.604	60	30
223.831	224.604	75	51
224.207	227.885	46	38
224.207	224.604	62	29
224.207	224.604	74	50
224.585	225.38	48	36
224.585	225.38	63	28
224.585	225.38	72	48
224.969	225.38	49	35
224.969	225.38	64	28
224.969	225.38	70	47
225.36	226.184	50	38
225.36	226.164	65	28
225.36	226.184	69	46
225.759	226.184	51	34
225.759	226.184	63	26
225.759	226.184	67	44
226.164	227.021	53	35
226.164	227.011	62	23
226.164	227.021	65	41
226.584	227.021	55	33
226.584	227.021	60	23
226.584	227.021	63	40
226.903	227.021	57	40
227.011	227.779	58	23
227.011	227.779	62	39
227.444	227.885	57	22
227.444	227.885	60	38
227.885	228.148	55	21
227.885	228.148	58	36
228.148	228.425	53	18
228.148	228.425	57	31
228.148	228.425	62	36
228.425	228.715	51	19
228.425	228.715	55	33
228.425	228.715	63	31
228.715	229.022	50	19
228.715	229.022	53	34
228.715	229.022	65	34
229.022	233.144	48	22
229.022	233.144	51	38
229.022	231.787	58	22
229.022	231.787	66	38
231.77	233.144	57	28
231.77	233.144	65	34
232.972	235.814	34	33
233.144	235.814	50	40
233.144	235.814	53	27
233.144	235.814	58	27
233.144	235.814	65	38
235.892	237.286	31	30
235.892	237.286	43	36
235.892	236.43	63	48
236.024	236.43	51	41
236.157	236.43	58	48
236.29	236.43	62	37
236.423	236.806	60	49
236.555	237.463	51	40
236.684	237.463	57	40
236.806	237.463	60	40
236.928	237.463	33	27
236.928	237.463	45	33
236.928	237.463	63	47
237.048	237.463	69	40
237.168	237.463	72	46
237.286	237.463	31	26
237.286	237.463	43	31
237.286	237.463	75	51
237.405	237.96	30	30
237.405	237.96	42	36
237.405	237.96	74	60
237.538	237.96	62	46
237.671	237.96	69	54
237.804	237.96	72	52
237.936	239.004	33	30
237.936	239.004	45	36
237.936	238.323	70	58
238.069	239.004	62	51
238.2	239.004	67	52
238.323	239.004	70	52
238.445	239.004	31	24
238.445	239.004	43	29
238.445	239.004	74	62
238.566	239.004	79	49
238.686	239.004	82	59
238.806	239.004	86	63
238.982	240.388	27	30
238.982	240.388	39	36
238.982	239.521	60	52
239.115	239.521	48	40
239.248	239.521	55	40
239.38	239.521	58	44
239.513	239.902	57	51
239.646	240.566	48	36
239.779	240.566	53	36
239.902	240.566	57	36
240.025	240.566	29	27
240.025	240.566	41	33
240.025	240.566	60	47
240.147	240.566	65	40
240.268	240.566	69	46
240.388	240.566	27	26
240.388	240.566	39	31
240.388	240.566	72	51
240.509	241.063	26	30
240.509	241.063	38	36
240.509	241.063	70	60
240.641	241.063	58	44
240.774	241.063	65	48
240.907	241.063	69	52
241.04	242.112	29	30
241.04	242.112	41	36
241.04	241.428	67	58
241.172	242.112	58	48
241.304	242.112	63	48
241.428	242.112	67	48
241.55	242.112	27	24
241.55	242.112	39	29
241.55	242.112	70	62
241.672	242.112	75	49
241.794	242.112	79	59
241.914	242.112	82	63
242.091	243.639	24	33
242.091	243.639	36	39
242.091	242.618	57	54
242.22	242.618	45	39
242.35	242.618	51	39
242.48	242.618	55	44
242.61	242.993	54	55
242.74	243.617	45	39
242.87	243.639	50	39
242.993	243.639	54	39
243.115	243.639	26	29
243.115	243.639	38	36
243.115	243.478	57	51
243.237	243.639	62	44
243.358	243.639	66	50
243.478	243.639	30	28
243.478	243.639	42	34
243.478	243.639	57	56
243.617	245.163	33	42
243.617	245.142	45	50
243.617	244.142	69	59
243.746	244.142	57	50
243.876	244.142	64	50
244.005	244.142	67	52
244.134	244.516	66	59
244.264	245.142	57	50
244.392	245.163	62	50
244.516	245.163	66	50
244.639	245.163	38	39
244.639	245.163	50	47
244.639	245.003	69	67
244.761	245.163	74	57
244.882	245.163	78	66
245.003	245.163	42	36
245.003	245.163	54	42
245.003	245.163	69	73
245.142	245.66	45	38
245.142	245.66	57	46
245.142	245.66	81	67
245.269	245.66	69	61
245.397	245.66	76	63
245.525	245.66	49	46
245.525	245.66	61	55
245.525	245.66	79	67
245.652	246.159	50	49
245.652	246.159	62	58
245.652	246.034	78	74
245.78	246.654	69	62
245.908	246.676	74	67
246.034	246.676	78	71
246.159	246.676	50	44
246.159	246.676	62	52
246.159	246.532	81	75
246.284	246.676	86	68
246.408	246.676	90	71
246.532	246.676	54	49
246.532	246.676	66	59
246.532	246.676	81	73
246.654	247.176	57	51
246.654	247.176	69	61
246.654	247.176	93	78
246.783	247.176	81	72
246.912	247.176	88	70
247.044	247.176	61	57
247.044	247.176	73	68
247.044	247.176	91	74
247.176	247.692	62	59
247.176	247.692	74	70
247.176	248.062	90	81
247.692	248.176	62	60
247.692	248.176	69	60
247.692	248.176	74	71
247.692	248.176	78	77
247.692	248.176	81	77
247.692	248.176	86	77
248.337	249.733	31	25
248.337	249.733	43	36
248.337	248.876	63	48
248.47	248.876	51	41
248.603	248.876	58	48
248.735	248.876	62	37
248.868	249.254	60	49
249.001	249.91	51	40
249.132	249.91	57	40
249.254	249.91	60	40
249.375	249.91	33	22
249.375	249.91	45	33
249.375	249.91	63	47
249.495	249.91	69	40
249.615	249.91	72	46
249.733	249.91	31	22
249.733	249.91	43	31
249.733	249.91	75	51
249.853	250.407	30	25
249.853	250.407	42	36
249.853	250.407	74	60
249.985	250.407	62	46
250.118	250.407	69	54
250.251	250.407	72	52
250.384	251.451	33	25
250.384	251.451	45	36
250.384	250.771	70	58
250.516	251.451	62	51
250.648	251.451	67	52
250.771	251.451	70	52
250.893	251.451	31	20
250.893	251.451	43	29
250.893	251.451	74	62
251.014	251.451	79	49
251.134	251.451	82	59
251.252	251.451	86	63
251.429	252.834	27	25
251.429	252.834	39	36
251.429	251.968	60	52
251.562	251.968	48	40
251.694	251.968	55	40
251.827	251.968	58	44
251.96	252.349	57	51
252.093	253.011	48	36
252.225	253.011	53	36
252.349	253.011	57	36
252.471	253.011	29	22
252.471	253.011	41	33
252.471	253.011	60	47
252.593	253.011	65	40
252.714	253.011	69	46
252.834	253.011	27	22
252.834	253.011	39	31
252.834	253.011	72	51
252.954	253.508	26	25
252.954	253.508	38	36
252.954	253.508	70	60
253.086	253.508	58	44
253.219	253.508	65	48
253.352	253.508	69	52
253.485	254.554	29	25
253.485	254.554	41	36
253.485	253.871	67	58
253.617	254.554	58	48
253.748	254.554	63	48
253.871	254.554	67	48
253.993	254.554	27	20
253.993	254.554	39	29
253.993	254.554	70	62
254.115	254.554	75	49
254.236	254.554	79	59
254.356	254.554	82	63
254.533	256.066	24	28
254.533	256.066	36	39
254.533	255.06	57	54
254.663	255.06	45	39
254.792	255.06	51	39
254.922	255.06	55	44
255.052	255.435	54	55
255.182	256.045	45	39
255.311	256.066	50	39
255.435	256.066	54	39
255.558	256.066	26	24
255.558	256.066	38	36
255.558	255.924	57	51
255.681	256.066	62	44
255.802	256.066	66	50
255.924	256.066	30	23
255.924	256.066	42	34
255.924	256.066	57	56
256.045	257.574	33	35
256.045	257.553	45	50
256.045	256.569	69	59
256.174	256.569	57	50
256.303	256.569	64	50
256.433	256.569	67	52
256.562	256.945	66	59
256.691	257.553	57	50
256.821	257.574	62	50
256.945	257.574	66	50
257.068	257.574	38	33
257.068	257.574	50	47
257.068	257.433	69	67
257.191	257.574	74	57
257.312	257.574	78	66
257.433	257.574	42	30
257.433	257.574	54	42
257.433	257.574	69	73
257.553	258.071	45	32
257.553	258.071	57	46
257.553	258.071	81	67
257.68	258.071	69	61
257.808	258.071	76	63
257.936	258.071	49	39
257.936	258.071	61	55
257.936	258.071	79	67
258.063	258.57	50	41
258.063	258.57	62	58
258.063	258.445	78	74
258.191	259.065	69	62
258.319	259.087	74	67
258.445	259.087	78	71
258.57	259.087	50	37
258.57	259.087	62	52
258.57	258.943	81	75
258.695	259.087	86	68
258.819	259.087	90	71
258.943	259.087	54	41
258.943	259.087	66	59
258.943	259.087	81	73
259.065	259.595	57	43
259.065	259.595	69	61
259.065	259.595	93	78
259.194	259.595	81	72
259.323	259.595	88	70
259.455	259.595	61	48
259.455	259.595	73	68
259.455	259.595	91	74
259.587	260.103	62	50
259.587	260.103	74	70
259.587	260.433	90	81
260.103	260.584	62	51
260.103	260.584	69	60
260.103	260.584	74	71
260.103	260.584	78	65
260.103	260.584	81	65
260.103	260.584	86	77
260.745	261.814	34	25
260.745	261.814	46	36
260.745	261.814	62	48
260.877	261.814	50	41
261.01	261.541	56	48
261.143	261.814	60	37
261.276	261.669	58	49
261.408	261.814	51	41
261.541	261.814	56	49
261.669	261.814	36	22
261.669	261.814	48	31
261.669	261.814	58	53
261.794	262.286	37	27
261.794	262.286	49	42
261.794	262.153	67	63
261.915	262.286	52	40
262.035	262.286	58	46
262.153	262.286	67	51
262.271	263.327	38	25
262.271	263.327	50	36
262.271	263.327	65	57
262.404	263.327	53	41
262.537	263.068	58	52
262.67	263.327	63	37
262.802	263.187	62	53
262.935	263.327	55	41
263.068	263.327	58	53
263.187	263.327	39	22
263.187	263.327	51	31
263.187	263.327	62	57
263.307	263.8	40	27
263.307	263.8	52	43
263.307	263.667	68	67
263.428	263.8	56	41
263.548	263.8	62	47
263.667	263.8	68	53
263.786	264.862	41	26
263.786	264.862	53	37
263.786	264.862	67	56
263.919	264.862	56	42
264.052	264.862	62	53
264.184	264.862	65	38
264.317	264.713	64	50
264.45	264.862	58	51
264.582	264.862	61	55
264.713	264.862	42	22
264.713	264.862	54	32
264.713	264.862	64	64
264.842	265.338	43	28
264.842	265.338	55	46
264.842	265.206	70	71
264.965	265.338	61	44
265.086	265.338	64	50
265.206	265.338	70	56
265.324	266.398	44	27
265.324	266.398	56	39
265.324	266.398	68	67
265.457	266.398	61	45
265.59	266.398	64	56
265.722	266.398	67	40
265.855	266.249	66	58
265.988	266.398	60	49
266.121	266.398	63	56
266.249	266.398	45	23
266.249	266.398	57	34
266.249	266.398	66	62
266.377	266.874	46	30
266.377	266.874	58	49
266.377	266.74	72	71
266.499	266.874	63	47
266.62	266.874	66	54
266.74	266.874	72	59
266.859	267.897	48	28
266.859	267.897	60	41
266.859	267.918	70	62
266.992	267.918	63	48
267.125	267.918	66	60
267.257	267.776	69	42
267.39	267.918	68	65
267.523	267.918	62	53
267.656	267.918	65	61
267.776	267.918	47	25
267.776	267.918	59	35
267.776	267.918	69	66
267.897	268.394	48	34
267.897	268.394	60	54
267.897	268.261	74	76
268.02	268.394	65	52
268.141	268.394	69	60
268.261	268.394	74	66
268.379	269.416	50	32
268.379	269.416	62	45
268.379	269.436	72	73
268.512	269.436	65	53
268.645	269.436	69	67
268.778	269.436	71	46
268.91	269.296	70	69
269.043	269.436	64	58
269.176	269.436	67	66
269.296	269.436	49	28
269.296	269.436	61	39
269.296	269.436	70	69
269.416	269.913	50	37
269.416	269.913	62	61
269.416	269.778	76	79
269.537	269.913	67	58
269.658	269.913	70	67
269.778	269.913	76	73
269.898	270.967	52	35
269.898	270.967	64	50
269.898	270.429	74	69
270.031	270.967	67	59
270.164	270.946	70	70
270.296	270.967	73	51
270.429	270.821	74	73
270.562	270.967	65	62
270.695	270.967	69	68
270.821	270.967	53	44
270.821	270.967	74	73
270.946	271.453	55	62
270.946	271.318	70	82
271.071	271.453	62	59
271.195	271.453	67	68
271.318	271.453	70	75
271.441	271.952	57	65
271.441	271.809	69	82
271.564	271.952	61	59
271.686	271.952	64	59
271.809	271.952	55	60
271.809	271.952	69	75
271.941	272.442	53	65
271.941	272.442	74	82
272.064	272.442	62	59
272.186	272.442	69	59
272.309	272.442	54	60
272.309	272.442	72	75
272.431	272.944	57	65
272.431	272.944	70	82
272.554	272.944	61	59
272.676	272.944	64	59
272.798	272.944	55	60
272.798	272.944	69	75
272.932	273.428	53	65
272.932	273.428	74	82
273.054	273.428	62	59
273.176	273.428	69	59
273.298	273.428	54	60
273.298	273.428	72	75
273.42	273.929	57	65
273.42	273.929	70	82
273.542	273.929	61	59
273.664	273.929	64	59
273.786	273.929	55	60
273.786	273.929	69	75
273.919	274.417	53	65
273.919	274.417	74	82
274.04	274.417	62	59
274.162	274.417	69	59
274.283	274.417	54	60
274.283	274.417	72	75
274.405	274.904	55	65
274.405	274.904	70	82
274.526	274.904	62	59
274.648	274.904	64	59
274.769	274.904	58	60
274.769	274.904	67	75
274.891	275.438	57	65
274.891	275.255	69	82
275.012	275.438	61	59
275.133	275.438	64	59
275.255	275.438	45	60
275.255	275.438	69	75
275.424	275.948	50	65
275.424	275.948	62	82
275.552	275.948	54	59
275.68	275.948	57	59
275.807	275.948	48	60
275.807	275.948	60	75
275.935	276.525	46	65
275.935	276.525	58	82
276.065	276.525	50	59
276.196	276.525	54	59
276.335	276.525	45	60
276.335	276.525	57	80
276.519	277.92	31	31
276.519	277.92	43	45
276.519	277.058	63	65
276.652	277.058	51	61
276.784	277.058	58	70
276.917	277.058	62	53
277.05	277.438	60	75
277.183	278.097	51	50
277.315	278.097	57	50
277.438	278.097	60	50
277.56	278.097	33	28
277.56	278.097	45	41
277.56	278.097	63	58
277.681	278.097	69	50
277.801	278.097	72	57
277.92	278.097	31	27
277.92	278.097	43	38
277.92	278.097	75	63
278.04	278.594	30	31
278.04	278.594	42	45
278.04	278.594	74	75
278.172	278.594	62	57
278.305	278.594	69	67
278.438	278.594	72	65
278.571	279.642	33	31
278.571	279.642	45	45
278.571	278.958	70	72
278.703	279.642	62	63
278.836	279.642	67	65
278.958	279.642	70	65
279.081	279.642	31	25
279.081	279.642	43	36
279.081	279.642	74	77
279.202	279.642	79	61
279.323	279.642	82	73
279.444	279.642	86	78
279.62	281.029	27	31
279.62	281.029	39	45
279.62	280.159	60	70
279.753	280.159	48	50
279.886	280.159	55	50
280.018	280.159	58	61
280.151	280.541	57	71
280.284	281.206	48	45
280.417	281.206	53	45
280.541	281.206	57	45
280.664	281.206	29	28
280.664	281.206	41	41
280.664	281.206	60	58
280.787	281.206	65	50
280.908	281.206	69	57
281.029	281.206	27	27
281.029	281.206	39	38
281.029	281.206	72	63
281.148	281.702	26	31
281.148	281.702	38	45
281.148	281.702	70	75
281.281	281.702	58	55
281.414	281.702	65	60
281.546	281.702	69	65
281.679	282.748	29	31
281.679	282.748	41	45
281.679	282.065	67	72
281.812	282.748	58	60
281.942	282.748	63	60
282.065	282.748	67	60
282.188	282.748	27	25
282.188	282.748	39	36
282.188	282.748	70	77
282.309	282.748	75	61
282.43	282.748	79	73
282.55	282.748	82	78
282.726	284.276	24	34
282.726	284.276	36	48
282.726	283.253	57	67
282.856	283.253	45	48
282.986	283.253	51	48
283.116	283.253	55	55
283.246	283.629	54	68
283.376	284.276	45	48
283.505	284.276	50	48
283.629	284.276	54	48
283.751	284.276	26	30
283.751	284.276	38	45
283.751	284.276	57	63
283.873	284.276	62	55
283.994	284.276	66	62
284.115	284.276	28	29
284.115	284.276	40	42
284.115	284.276	69	70
284.254	284.779	30	44
284.254	284.779	42	62
284.254	284.779	74	73
284.383	284.779	62	62
284.513	284.779	69	62
284.642	284.779	72	65
284.771	285.636	33	42
284.771	285.636	45	59
284.771	285.153	70	73
284.901	285.796	62	62
285.03	285.775	67	62
285.153	285.796	70	62
285.275	285.796	31	40
285.275	285.796	43	58
285.275	285.796	74	77
285.396	285.796	79	71
285.517	285.796	82	75
285.636	285.796	33	38
285.636	285.796	45	52
285.636	285.796	86	79
285.775	286.293	34	39
285.775	286.293	46	57
285.775	286.293	67	77
285.902	286.293	55	66
286.03	286.293	62	69
286.158	286.293	65	75
286.285	286.804	38	46
286.285	286.804	50	65
286.285	286.667	63	79
286.413	286.804	55	71
286.541	286.804	60	76
286.667	286.804	63	78
286.794	287.333	36	34
286.794	287.333	48	48
286.794	287.379	67	82
286.921	287.333	72	68
287.05	287.333	75	71
287.195	287.333	33	39
287.195	287.333	45	55
287.195	287.333	79	73
287.379	287.935	38	41
287.379	287.935	50	58
287.379	287.935	69	68
287.379	287.935	72	68
287.379	287.935	78	81
287.935	288.907	31	47
287.935	288.907	43	66
287.935	288.907	70	60
287.935	288.907	74	71
287.935	288.907	79	84
289.046	290.115	34	25
289.046	290.115	46	36
289.046	290.115	62	48
289.179	290.115	50	41
289.311	289.842	56	48
289.444	290.115	60	37
289.577	289.97	58	49
289.71	290.115	51	41
289.842	290.115	56	49
289.97	290.115	36	22
289.97	290.115	48	31
289.97	290.115	58	53
290.095	290.587	37	27
290.095	290.587	49	42
290.095	290.454	67	63
290.216	290.587	52	40
290.336	290.587	58	46
290.454	290.587	67	51
290.573	291.628	38	25
290.573	291.628	50	36
290.573	291.628	65	57
290.705	291.628	53	41
290.838	291.369	58	52
290.971	291.628	63	37
291.104	291.488	62	53
291.236	291.628	55	41
291.369	291.628	58	53
291.488	291.628	39	22
291.488	291.628	51	31
291.488	291.628	62	57
291.608	292.102	40	27
291.608	292.102	52	43
291.608	291.969	68	67
291.729	292.102	56	41
291.849	292.102	62	47
291.969	292.102	68	53
292.087	293.164	41	26
292.087	293.164	53	37
292.087	293.164	67	56
292.22	293.164	56	42
292.353	293.164	62	53
292.485	293.164	65	38
292.618	293.014	64	50
292.751	293.164	58	51
292.884	293.164	61	55
293.014	293.164	42	22
293.014	293.164	54	32
293.014	293.164	64	64
293.143	293.64	43	28
293.143	293.64	55	46
293.143	293.507	70	71
293.266	293.64	61	44
293.387	293.64	64	50
293.507	293.64	70	56
293.625	294.699	44	27
293.625	294.699	56	39
293.625	294.699	68	67
293.758	294.699	61	45
293.891	294.699	64	56
294.024	294.699	67	40
294.156	294.551	66	58
294.289	294.699	60	49
294.422	294.699	63	56
294.551	294.699	45	23
294.551	294.699	57	34
294.551	294.699	66	62
294.678	295.175	46	30
294.678	295.175	58	49
294.678	295.041	72	71
294.8	295.175	63	47
294.921	295.175	66	54
295.041	295.175	72	59
295.16	296.198	48	28
295.16	296.198	60	41
295.16	296.219	70	62
295.293	296.219	63	48
295.426	296.219	66	60
295.559	296.077	69	42
295.691	296.219	68	65
295.824	296.219	62	53
295.957	296.219	65	61
296.077	296.219	47	25
296.077	296.219	59	35
296.077	296.219	69	66
296.198	296.695	48	34
296.198	296.695	60	54
296.198	296.562	74	76
296.321	296.695	65	52
296.442	296.695	69	60
296.562	296.695	74	66
296.681	297.717	50	32
296.681	297.717	62	45
296.681	297.737	72	73
296.813	297.737	65	53
296.946	297.737	69	67
297.079	297.737	71	46
297.212	297.597	70	69
297.344	297.737	64	58
297.477	297.737	67	66
297.597	297.737	49	28
297.597	297.737	61	39
297.597	297.737	70	69
297.717	298.214	50	37
297.717	298.214	62	61
297.717	298.079	76	79
297.838	298.214	67	58
297.959	298.214	70	67
298.079	298.214	76	73
298.199	299.268	52	35
298.199	299.268	64	50
298.199	298.73	74	69
298.332	299.268	67	59
298.465	299.247	70	70
298.598	299.268	73	51
298.73	299.122	74	73
298.863	299.268	65	62
298.996	299.268	69	68
299.122	299.268	53	44
299.122	299.268	74	73
299.247	299.754	55	62
299.247	299.62	70	82
299.372	299.754	62	59
299.496	299.754	67	68
299.62	299.754	70	75
299.743	300.253	57	65
299.743	300.11	69	82
299.865	300.253	61	59
299.987	300.253	64	59
300.11	300.253	55	60
300.11	300.253	69	75
300.243	300.744	53	65
300.243	300.744	74	82
300.365	300.744	62	59
300.487	300.744	69	59
300.61	300.744	54	60
300.61	300.744	72	75
300.732	301.245	57	65
300.732	301.245	70	82
300.855	301.245	61	59
300.977	301.245	64	59
301.1	301.245	55	60
301.1	301.245	69	75
301.234	301.73	53	65
301.234	301.73	74	82
301.356	301.73	62	59
301.478	301.73	69	59
301.599	301.73	54	60
301.599	301.73	72	75
301.721	302.23	57	65
301.721	302.23	70	82
301.843	302.23	61	59
301.965	302.23	64	59
302.087	302.23	55	60
302.087	302.23	69	75
302.22	302.718	53	65
302.22	302.718	74	82
302.341	302.718	62	59
302.463	302.718	69	59
302.584	302.718	54	60
302.584	302.718	72	75
302.706	303.205	55	65
302.706	303.205	70	82
302.827	303.205	62	59
302.949	303.205	64	59
303.07	303.205	58	60
303.07	303.205	67	75
303.192	303.739	57	65
303.192	303.556	69	82
303.313	303.739	61	59
303.435	303.739	64	59
303.556	303.739	45	60
303.556	303.739	69	75
303.726	304.249	50	65
303.726	304.249	62	82
303.853	304.249	54	59
303.981	304.249	57	59
304.109	304.249	48	60
304.109	304.249	60	75
304.236	304.827	46	65
304.236	304.827	58	82
304.367	304.827	50	59
304.497	304.827	54	59
304.636	304.827	45	60
304.636	304.827	57	80
304.82	306.216	31	31
304.82	306.216	43	45
304.82	305.359	63	65
304.953	305.359	51	61
305.086	305.359	58	70
305.218	305.359	62	53
305.351	305.738	60	75
305.484	306.391	51	50
305.616	306.391	57	50
305.738	306.391	60	50
305.859	306.391	33	28
305.859	306.391	45	41
305.859	306.391	63	58
305.978	306.391	69	50
306.097	306.391	72	57
306.216	306.391	31	27
306.216	306.391	43	38
306.216	306.391	75	63
306.334	306.888	30	31
306.334	306.888	42	45
306.334	306.888	74	75
306.467	306.888	62	57
306.599	306.888	69	67
306.732	306.888	72	65
306.865	307.932	33	31
306.865	307.932	45	45
306.865	307.253	70	72
306.998	307.932	62	63
307.13	307.932	67	65
307.253	307.932	70	65
307.375	307.932	31	25
307.375	307.932	43	36
307.375	307.932	74	77
307.496	307.932	79	61
307.615	307.932	82	73
307.733	307.932	86	78
307.91	309.309	27	31
307.91	309.309	39	45
307.91	308.448	60	70
308.043	308.448	48	50
308.175	308.448	55	50
308.308	308.448	58	61
308.441	308.828	57	71
308.573	309.485	48	45
308.706	309.485	53	45
308.828	309.485	57	45
308.95	309.485	29	28
308.95	309.485	41	41
308.95	309.485	60	58
309.07	309.485	65	50
309.19	309.485	69	57
309.309	309.485	27	27
309.309	309.485	39	38
309.309	309.485	72	63
309.427	309.981	26	31
309.427	309.981	38	45
309.427	309.981	70	75
309.56	309.981	58	55
309.693	309.981	65	60
309.826	309.981	69	65
309.958	311.02	29	31
309.958	311.02	41	45
309.958	310.342	67	72
310.091	311.02	58	60
310.22	311.02	63	60
310.342	311.02	67	60
310.463	311.02	27	25
310.463	311.02	39	36
310.463	311.02	70	77
310.583	311.02	75	61
310.703	311.02	79	73
310.822	311.02	82	78
310.998	312.527	24	34
310.998	312.527	36	48
310.998	311.525	57	67
311.128	311.525	45	48
311.258	311.525	51	48
311.388	311.525	55	55
311.518	311.9	54	68
311.648	312.527	45	48
311.777	312.527	50	48
311.9	312.527	54	48
312.022	312.527	26	30
312.022	312.527	38	45
312.022	312.527	57	63
312.144	312.527	62	55
312.265	312.527	66	62
312.385	312.527	28	29
312.385	312.527	40	42
312.385	312.527	69	70
312.505	313.03	30	44
312.505	313.03	42	62
312.505	313.03	74	73
312.634	313.03	62	62
312.764	313.03	69	62
312.893	313.03	72	65
313.022	313.888	33	42
313.022	313.888	45	59
313.022	313.404	70	73
313.152	314.03	62	62
313.281	314.008	67	62
313.404	314.03	70	62
313.526	314.03	31	40
313.526	314.03	43	58
313.526	314.03	74	77
313.647	314.03	79	71
313.768	314.03	82	75
313.888	314.03	33	38
313.888	314.03	45	52
313.888	314.03	86	79
314.008	314.526	34	39
314.008	314.526	46	57
314.008	314.526	67	77
314.136	314.526	55	66
314.264	314.526	62	69
314.391	314.526	65	75
314.519	315.038	38	46
314.519	315.038	50	65
314.519	314.9	63	79
314.647	315.038	55	71
314.774	315.038	60	76
314.9	315.038	63	78
315.027	315.567	36	34
315.027	315.567	48	48
315.027	315.613	67	82
315.155	315.567	72	68
315.284	315.567	75	71
315.429	315.567	33	39
315.429	315.567	45	55
315.429	315.567	79	73
315.613	316.168	38	41
315.613	316.168	50	58
315.613	316.168	69	68
315.613	316.168	72	68
315.613	316.168	78	81
316.168	317.305	31	47
316.168	317.305	43	66
316.168	317.305	70	60
316.168	317.305	74	71
316.168	317.305	79	84
317.538	318.291	51	40
317.538	319.096	55	34
317.538	319.096	58	42
317.538	318.291	61	55
317.538	319.096	67	50
317.915	318.291	50	31
317.915	318.291	62	47
318.291	319.096	49	38
318.291	319.096	63	50
318.668	319.096	64	45
319.072	319.856	45	39
319.072	319.856	57	47
319.072	319.856	61	39
319.072	319.856	65	51
319.449	319.856	55	44
319.449	319.856	64	48
319.837	320.59	46	43
319.837	320.59	53	48
319.837	320.59	62	52
320.214	320.59	43	38
320.214	321.362	52	43
320.214	320.59	64	47
320.59	321.362	45	44
320.59	321.362	61	53
320.967	321.362	41	36
320.967	322.108	50	40
320.967	321.362	62	44
321.344	322.108	43	42
321.344	323.656	58	50
321.72	322.108	41	36
322.097	322.85	40	37
322.097	322.85	49	45
322.473	322.85	38	32
322.473	322.85	50	41
322.85	323.656	36	44
322.85	323.656	51	48
323.227	323.656	52	39
323.636	324.442	37	40
323.636	325.255	57	50
324.03	324.442	55	44
324.423	325.255	38	38
324.423	326.081	50	39
324.423	325.255	53	51
324.846	325.255	31	32
324.846	326.105	55	37
325.24	326.105	33	40
325.24	326.105	52	36
325.66	326.105	49	36
325.66	326.105	53	47
326.081	327.039	26	31
326.081	327.039	38	37
326.081	327.039	50	39
327.022	328.567	58	42
327.022	327.784	61	50
327.022	328.567	67	50
327.022	327.784	75	50
327.398	327.784	62	43
327.398	327.784	74	38
327.775	328.567	63	46
327.775	328.567	73	47
328.151	328.567	64	41
328.556	329.339	57	47
328.556	329.339	61	39
328.556	329.339	65	47
328.556	329.339	69	48
328.932	329.339	55	44
328.932	329.339	64	44
329.321	330.071	53	48
329.321	330.071	62	48
329.321	330.071	70	53
329.687	330.071	55	43
329.687	330.071	64	43
329.687	330.071	67	47
330.062	330.824	52	43
330.062	330.824	61	49
330.062	330.824	69	55
330.428	330.824	53	43
330.428	330.824	62	40
330.428	330.824	65	45
330.807	331.58	50	40
330.807	333.119	58	50
330.807	331.58	67	52
331.181	331.58	65	45
331.561	332.311	49	49
331.561	332.311	64	46
331.931	332.311	50	45
331.931	332.311	62	40
332.311	333.119	51	52
332.311	333.119	60	44
332.691	333.119	52	42
333.101	334.734	57	50
333.101	333.912	61	40
333.496	333.912	55	44
333.892	335.544	50	39
333.892	334.734	53	51
333.892	334.734	62	38
334.322	334.72	55	37
334.322	334.734	58	32
334.72	335.566	52	51
334.72	335.566	55	40
335.132	335.566	49	36
335.132	335.566	53	47
335.132	335.566	57	40
335.544	336.43	50	42
335.98	336.43	48	37
336.417	337.214	44	26
336.417	337.214	46	37
336.417	337.998	53	36
336.417	338.816	62	43
336.815	337.224	43	23
336.815	337.224	47	33
337.214	337.998	44	28
337.214	337.998	46	39
337.599	338.816	43	30
337.599	337.998	47	36
337.989	339.58	48	37
337.989	338.816	57	45
338.378	338.816	47	33
338.378	340.391	55	43
338.793	339.58	46	37
338.793	341.19	64	51
339.183	339.585	45	23
339.183	339.585	49	34
339.58	340.391	46	33
339.58	340.391	48	37
339.973	341.19	45	30
339.973	340.391	49	33
340.371	341.172	50	37
340.371	341.19	58	48
340.763	341.19	49	35
340.763	342.749	57	44
341.172	341.954	50	26
341.172	341.954	60	37
341.172	342.767	66	49
341.559	341.961	51	24
341.559	341.961	59	35
341.954	342.767	50	28
341.954	342.749	60	39
342.351	343.552	51	26
342.351	342.767	59	37
342.749	343.552	57	41
342.749	343.552	60	35
342.749	343.552	72	50
343.14	344.344	56	39
343.14	345.133	59	32
343.14	343.552	71	45
343.544	344.344	52	29
343.544	344.334	62	42
343.544	345.153	68	51
343.934	344.344	53	27
343.934	344.344	61	38
344.334	345.153	51	28
344.334	345.133	62	41
344.726	345.938	53	27
344.726	345.153	61	38
345.133	345.938	59	40
345.133	345.938	62	39
345.133	345.938	74	56
345.527	345.92	58	37
345.527	345.938	61	38
345.527	345.92	73	54
345.92	347.535	54	26
345.92	347.535	58	37
345.92	346.708	66	47
345.92	347.101	73	56
346.314	347.535	61	37
346.314	347.535	68	50
346.708	347.535	66	39
346.708	347.101	70	43
347.101	347.535	70	38
347.101	347.535	73	52
347.517	349.173	71	43
347.517	349.173	75	51
347.517	349.173	78	61
347.916	348.314	70	41
347.916	348.719	73	56
348.314	348.719	66	43
348.314	349.173	70	51
348.719	349.173	61	37
348.719	349.173	66	48
348.719	349.152	73	48
349.152	350.9	49	28
349.152	350.9	59	39
349.152	350.452	65	46
349.152	350.882	73	55
349.573	350.9	61	38
350.022	350.882	66	44
350.452	350.9	65	39
350.882	352.535	54	26
350.882	352.535	58	37
350.882	351.69	66	56
350.882	352.084	73	56
351.286	352.535	61	37
351.286	352.535	68	50
351.69	352.535	66	39
351.69	352.084	70	43
352.084	352.535	70	38
352.084	352.535	73	52
352.517	354.172	71	43
352.517	354.172	75	51
352.517	354.172	78	61
352.916	353.315	70	41
352.916	354.044	73	56
353.315	353.719	66	43
353.315	354.172	70	51
353.719	354.172	61	37
353.719	354.172	66	48
354.044	354.152	73	55
354.152	355.807	58	39
354.152	355.828	64	46
354.152	355.828	73	55
354.557	355.807	54	38
354.971	355.807	49	44
355.4	355.828	46	39
355.828	358.871	41	34
355.828	356.611	50	39
355.828	356.611	58	30
355.828	356.611	70	43
356.22	356.611	53	39
356.22	356.611	60	30
356.22	356.611	72	43
356.611	357.373	58	41
356.611	356.972	62	31
356.611	357.373	74	44
356.972	357.373	62	43
356.972	357.373	65	34
356.972	357.373	77	52
357.358	358.1	63	46
357.358	358.1	67	36
357.358	358.1	79	57
357.721	358.084	62	44
357.721	358.1	65	29
357.721	358.1	77	42
358.084	358.664	58	42
358.084	358.871	62	31
358.084	358.871	74	44
358.456	358.871	53	36
358.664	358.871	58	28
358.664	358.871	70	39
358.871	360.419	42	34
358.871	359.274	50	40
358.871	360.419	58	32
358.871	360.419	70	45
359.242	359.661	51	31
359.629	360.049	50	36
360.016	360.419	49	33
360.419	361.166	50	39
360.419	361.166	58	30
360.419	361.166	70	43
360.792	361.166	53	39
360.792	361.166	60	30
360.792	361.166	72	43
361.166	361.912	41	34
361.166	361.912	58	41
361.166	361.528	62	31
361.166	361.912	74	44
361.528	361.912	62	43
361.528	361.912	65	34
361.528	361.912	77	51
361.897	362.639	63	46
361.897	362.639	67	36
361.897	362.639	79	56
362.26	362.624	62	44
362.26	362.639	65	29
362.26	362.639	77	42
362.624	363.203	58	42
362.624	363.411	62	31
362.624	363.411	74	44
362.995	363.411	53	36
363.203	363.411	58	28
363.203	363.411	70	39
363.411	364.947	42	34
363.411	363.817	50	40
363.411	364.947	58	32
363.411	364.947	70	45
363.786	364.2	51	32
364.168	364.59	50	37
364.557	364.947	49	31
364.947	365.695	50	39
364.947	365.695	58	30
364.947	365.695	70	43
365.321	365.695	53	39
365.321	365.695	60	30
365.321	365.695	72	43
365.695	366.441	43	34
365.695	366.441	50	41
365.695	366.056	58	31
365.695	366.441	70	44
366.056	366.441	58	43
366.056	366.441	62	34
366.056	366.441	74	52
366.425	367.168	60	46
366.425	367.168	63	36
366.425	367.168	75	56
366.789	367.152	58	44
366.789	367.168	62	29
366.789	367.168	74	42
367.152	367.731	55	42
367.152	367.969	58	31
367.152	367.969	70	44
367.524	367.969	50	36
367.731	367.969	55	28
367.731	367.969	67	39
367.969	370.812	42	34
367.969	368.188	46	40
367.969	368.842	53	32
367.969	368.842	65	45
368.188	368.406	48	34
368.406	368.624	46	40
368.624	368.842	45	34
368.842	369.901	46	34
368.987	369.439	50	37
369.134	369.623	55	40
369.284	370.812	47	43
369.439	370.812	50	47
369.623	370.316	55	49
369.722	370.316	67	53
369.821	370.812	62	44
369.821	370.316	79	59
370.316	370.812	53	40
370.316	370.812	65	38
370.316	370.812	77	45
370.812	371.351	48	34
370.812	371.334	51	34
370.812	371.351	60	42
370.812	371.351	63	40
370.812	371.204	75	48
371.073	371.351	77	41
371.204	371.351	75	41
371.334	371.883	51	36
371.334	371.883	58	43
371.334	371.883	66	37
371.334	371.883	74	51
371.595	371.883	72	47
371.856	372.974	53	39
371.856	372.974	62	47
371.856	372.974	65	36
371.856	372.974	70	51
371.856	374.046	77	51
372.951	374.046	41	37
372.951	376.1	60	44
372.951	374.046	63	39
372.951	374.046	69	47
373.909	374.046	70	43
374.046	376.1	46	42
374.046	376.1	62	42
374.046	376.1	70	50
374.583	376.1	58	39
375.121	376.1	53	44
375.659	376.196	50	40
376.196	376.946	46	34
376.196	376.932	58	40
376.196	376.946	62	30
376.196	376.946	67	43
376.564	376.946	57	40
376.564	376.946	60	28
376.564	376.946	69	39
376.932	378.378	48	27
376.932	377.662	55	32
376.932	377.662	58	29
376.932	377.662	70	42
377.296	377.662	53	33
377.296	377.662	69	31
377.296	377.662	72	44
377.651	378.397	52	35
377.651	378.397	67	33
377.651	378.397	74	46
378.012	378.397	50	37
378.012	378.397	65	34
378.012	378.397	76	48
378.378	380.591	36	33
378.378	379.136	48	39
378.378	379.136	64	35
378.378	379.136	77	50
378.755	379.136	46	40
378.755	379.136	74	37
378.755	379.136	79	52
379.136	379.871	45	41
379.136	379.871	72	38
379.136	379.871	81	53
379.493	379.871	46	40
379.493	379.871	76	37
379.493	379.871	79	52
379.859	380.606	48	39
379.859	380.606	69	36
379.859	380.606	77	51
380.225	380.606	50	38
380.225	380.606	72	35
380.225	380.606	76	50
380.591	381.342	36	31
380.591	381.342	52	37
380.591	381.342	67	34
380.591	381.342	74	49
380.957	381.342	53	36
380.957	381.342	69	34
380.957	381.342	72	48
381.342	382.818	48	29
381.342	382.105	55	35
381.342	382.105	64	33
381.342	382.105	70	47
381.714	382.105	57	35
381.714	382.105	65	28
381.714	382.105	69	40
382.082	382.836	58	37
382.082	382.836	61	40
382.082	382.836	67	48
382.45	382.836	59	35
382.45	382.836	62	30
382.45	382.836	65	42
382.818	383.584	48	36
382.818	383.584	60	42
382.818	383.584	63	34
382.818	383.584	69	49
383.201	383.584	58	38
383.201	383.584	64	32
383.201	383.584	67	44
383.584	384.355	41	39
383.584	384.355	57	55
383.584	384.355	65	39
383.584	384.355	77	55
383.951	384.355	43	38
383.951	384.355	55	54
383.951	384.355	63	37
383.951	384.355	75	53
384.334	385.23	44	36
384.334	385.23	53	52
384.334	385.23	62	34
384.334	385.23	74	50
384.749	385.23	45	35
384.749	385.23	51	50
384.749	385.23	60	33
384.749	385.23	72	47
385.206	386.015	46	40
385.206	386.015	50	37
385.206	386.015	58	33
385.206	386.015	70	47
385.611	386.015	53	40
385.611	386.015	60	29
385.611	386.015	72	42
386.015	386.773	34	46
386.015	386.773	58	43
386.015	386.773	62	39
386.015	387.528	74	47
386.385	386.773	57	39
386.385	386.773	72	52
386.754	387.528	55	39
386.754	387.528	70	49
387.124	387.528	53	39
387.124	387.528	69	44
387.509	388.269	46	42
387.509	388.269	51	39
387.509	388.269	67	34
387.509	388.269	75	49
387.879	388.269	50	44
387.879	388.269	65	37
387.879	388.269	77	52
388.257	389.012	34	52
388.257	389.012	48	48
388.257	389.012	63	47
388.257	389.757	79	56
388.627	389.012	50	39
388.627	389.012	65	43
388.996	389.757	51	39
388.996	389.757	67	47
389.366	389.757	53	36
389.366	389.757	69	38
389.366	389.757	77	53
389.744	390.55	46	42
389.744	390.55	55	39
389.744	390.55	70	36
389.744	390.55	75	51
390.123	390.55	56	44
390.123	390.55	71	35
390.123	390.55	74	50
390.501	391.255	34	42
390.501	391.255	57	39
390.501	391.236	72	52
390.868	391.255	55	39
390.868	391.255	70	47
391.236	392.002	53	41
391.236	392.002	69	33
391.236	392.002	72	47
391.621	392.002	51	39
391.621	392.002	67	31
391.621	392.002	74	44
391.988	392.728	46	48
391.988	392.728	50	44
391.988	392.728	65	42
391.988	392.728	75	50
392.358	392.728	48	38
392.358	392.728	63	47
392.728	393.488	34	50
392.728	393.488	46	46
392.728	393.488	62	45
392.728	394.24	77	54
393.097	393.488	50	35
393.097	393.488	65	47
393.467	394.24	53	39
393.467	394.217	70	47
393.836	394.217	58	35
393.836	394.24	74	46
394.217	395.026	58	40
394.217	395.026	62	37
394.217	395.026	70	39
394.217	395.026	82	54
394.622	395.026	65	40
394.622	395.026	72	35
394.622	395.026	84	48
395.026	396.52	58	46
395.026	395.784	70	43
395.026	395.784	74	39
395.026	396.539	86	54
395.396	395.784	69	39
395.396	395.784	84	52
395.765	396.539	67	39
395.765	396.539	82	49
396.135	396.539	65	39
396.135	396.539	81	44
396.52	397.28	58	42
396.52	397.28	63	39
396.52	397.28	79	41
396.52	397.28	87	56
396.89	397.28	62	44
396.89	397.28	77	44
396.89	397.28	89	59
397.268	398.023	46	52
397.268	398.023	60	48
397.268	398.023	75	47
397.268	398.768	91	64
397.638	398.023	62	39
397.638	398.023	77	43
398.007	398.768	63	39
398.007	398.768	79	47
398.377	398.768	65	36
398.377	398.768	81	45
398.377	398.768	89	60
398.755	399.561	58	42
398.755	399.561	67	39
398.755	399.561	82	43
398.755	399.561	87	58
399.133	399.561	68	44
399.133	399.561	83	42
399.133	399.561	86	57
399.512	400.266	46	42
399.512	400.266	69	39
399.512	400.247	84	59
399.879	400.266	67	39
399.879	400.266	82	54
400.247	401.013	65	41
400.247	401.013	81	39
400.247	401.013	84	54
400.632	401.013	63	39
400.632	401.013	79	37
400.632	401.013	86	50
400.999	401.738	58	41
400.999	401.738	62	44
400.999	401.738	77	42
400.999	401.738	87	57
401.369	401.738	60	38
401.369	401.738	75	47
401.738	402.499	46	50
401.738	402.499	58	46
401.738	402.499	74	45
401.738	403.247	89	62
402.108	402.499	60	35
402.108	402.499	75	47
402.478	403.247	62	39
402.478	403.247	77	47
402.847	403.247	63	35
402.847	403.247	79	39
402.847	403.247	87	52
403.228	404.005	58	42
403.228	404.005	64	39
403.228	404.005	80	39
403.228	404.005	86	54
403.608	404.005	65	35
403.608	404.005	81	37
403.608	404.005	84	50
403.989	404.764	46	42
403.989	404.764	67	39
403.989	404.553	82	54
404.365	404.764	65	34
404.365	404.764	81	44
404.553	404.741	82	38
404.647	404.764	84	37
404.741	405.505	63	39
404.741	405.505	79	38
404.741	405.505	82	51
405.126	405.505	62	34
405.126	405.505	77	39
405.126	405.505	84	52
405.402	405.87	58	33
405.494	406.262	60	39
405.494	406.262	75	50
405.494	406.262	86	57
405.87	406.262	58	45
405.87	406.262	74	44
406.246	407.018	46	42
406.246	407.018	57	39
406.246	407.018	72	43
406.246	407.018	87	58
406.621	407.018	58	38
406.621	407.018	74	42
406.621	407.018	86	57
406.999	407.794	60	36
406.999	407.794	75	40
406.999	407.794	84	55
407.384	407.794	61	35
407.384	407.794	76	33
407.384	407.794	82	54
407.775	410.3	58	35
407.775	408.598	62	38
407.775	408.579	77	33
407.775	408.598	81	52
408.173	408.598	63	34
408.173	408.598	75	31
408.173	408.598	79	50
408.579	409.436	65	35
408.579	409.425	74	34
408.579	409.436	77	46
408.999	409.436	67	33
408.999	409.436	72	34
408.999	409.436	75	43
409.318	409.436	69	40
409.425	410.193	70	33
409.425	410.193	74	39
409.858	410.3	69	32
409.858	410.3	72	38
410.3	410.562	67	21
410.3	410.562	70	36
410.562	410.839	65	18
410.562	410.839	69	31
410.562	410.839	74	35
410.839	411.129	63	26
410.839	411.129	67	37
410.839	411.129	75	39
411.129	411.436	62	28
411.129	411.436	65	41
411.129	411.436	77	42
411.436	414.482	60	32
411.436	414.482	63	45
411.436	413.433	70	39
411.436	413.433	78	46
413.42	414.482	69	28
413.42	414.482	77	34
414.349	417.291	46	33
414.482	417.291	62	40
414.482	417.291	65	28
414.482	417.291	70	32
414.482	417.291	77	38
417.668	420.853	48	32
417.668	420.853	51	38
417.668	424.114	58	32
417.668	424.114	66	38
420.853	424.114	49	24
420.853	424.114	52	28
424.44	427.721	36	34
424.766	427.721	52	34
424.766	427.721	58	38
424.766	427.721	67	38
425.714	427.721	69	34
426.677	427.721	70	37
427.46	440.317	41	35
427.721	430.961	51	35
427.721	430.961	57	35
427.721	440.317	65	41
427.721	430.961	74	41
428.773	430.961	72	41
430.367	430.961	70	31
430.664	440.317	34	27
430.961	440.317	50	27
430.961	440.317	58	31
430.961	440.317	70	31
