OnsetTime	OffsetTime	MidiPitch	Velocity
0.500782	1.24822	43	52
0.593466	1.24822	50	45
0.686834	1.05835	55	48
0.78	0.965757	57	40
0.872979	1.24822	59	48
0.965757	1.24822	57	44
1.05835	1.24822	55	44
1.15075	1.25816	64	52
1.24287	1.98363	62	52
1.33461	1.98363	60	45
1.42664	1.79701	59	41
1.51886	1.70405	57	42
1.61135	1.98363	55	49
1.70405	1.98363	57	41
1.79701	1.98363	59	45
1.89018	1.9992	50	41
1.98363	2.76737	43	52
2.07709	2.76737	50	45
2.17035	2.54091	55	48
2.26333	2.4486	57	40
2.35611	2.76737	59	48
2.4486	2.76737	57	44
2.54091	2.76737	55	44
2.63294	2.76737	64	52
2.72468	3.46441	62	52
2.81615	3.46441	60	45
2.90789	3.27769	59	41
2.99992	3.18482	57	42
3.09223	3.46441	55	49
3.18482	3.46441	57	41
3.27769	3.46441	59	45
3.37085	3.48003	50	41
3.46441	4.2134	43	52
3.46441	4.20805	62	77
3.55817	4.2134	50	45
3.65163	4.02344	55	48
3.74489	3.93085	57	40
3.83796	4.2134	59	48
3.93085	4.2134	57	44
4.02344	4.2134	55	44
4.11584	4.2134	64	52
4.20805	4.94767	62	52
4.20805	4.94767	67	69
4.20805	4.94767	71	77
4.2998	4.94767	60	45
4.39173	4.76153	59	41
4.48385	4.66875	57	42
4.57616	4.94767	55	49
4.66875	4.94767	57	41
4.76153	4.94767	59	45
4.85451	4.94767	50	41
4.85451	4.94767	72	66
4.85451	4.94767	76	74
4.94767	5.71481	43	52
4.94767	6.43761	71	73
4.94767	6.43761	74	82
5.04084	5.71481	50	46
5.13391	5.50419	55	50
5.2268	5.41188	57	44
5.31939	5.71481	59	55
5.41188	5.71481	57	53
5.50419	5.71481	55	55
5.59622	5.71481	64	68
5.68806	6.43761	62	70
5.77999	6.43761	60	61
5.8722	6.24468	59	55
5.96479	6.15103	57	56
6.05777	6.43761	55	66
6.15103	6.43761	57	55
6.24468	6.43761	59	60
6.34115	6.43761	50	55
6.34115	6.43761	76	78
6.34115	6.43761	84	92
6.43761	7.18854	43	68
6.43761	7.926	74	74
6.43761	7.926	83	89
6.53136	7.18854	50	58
6.62501	6.99778	55	60
6.71847	6.9049	57	49
6.81173	7.18854	59	58
6.9049	7.18854	57	52
6.99778	7.18854	55	52
7.09056	7.18854	64	60
7.18315	7.926	62	60
7.27546	7.926	60	50
7.36786	7.73928	59	45
7.46045	7.64611	57	45
7.55323	7.926	55	52
7.64611	7.926	57	42
7.73928	7.926	59	46
7.83254	7.926	50	41
7.926	8.6916	43	46
7.926	8.6916	71	62
7.926	8.6916	79	74
8.01976	8.6916	50	40
8.11331	8.48542	55	42
8.20668	8.39273	57	38
8.29985	8.6916	59	46
8.39273	8.6916	57	42
8.48542	8.6916	55	44
8.57791	8.6916	64	53
8.67013	8.77749	62	55
8.76215	8.86975	60	48
8.85437	8.9622	59	41
8.94677	9.05484	57	42
9.03936	9.14771	55	48
9.13223	9.24083	57	39
9.2253	9.33413	59	41
9.31856	9.42774	50	37
9.41212	10.1465	45	46
9.41212	10.9109	67	53
9.41212	10.9109	69	53
9.41212	10.9109	73	61
9.41212	10.9109	78	77
9.50586	10.1465	52	40
9.59942	9.972	57	42
9.69288	9.87912	59	34
9.78605	10.1465	61	42
9.87912	10.1465	59	39
9.972	10.1465	57	39
10.0647	10.1573	66	46
10.1573	10.9109	64	46
10.2496	10.9109	62	40
10.3419	10.7128	61	36
10.4345	10.62	59	37
10.5271	10.9109	57	44
10.62	10.9109	59	36
10.7128	10.9109	61	40
10.806	10.9109	52	36
10.806	10.9109	76	67
10.8585	11.2832	66	55
10.8847	11.2832	74	60
10.9109	11.2669	38	46
10.9109	11.654	81	69
11.0041	11.2669	45	40
11.0972	11.2669	50	42
11.1903	11.2832	52	34
11.2832	11.3916	54	42
11.3761	11.4842	52	39
11.4688	11.5768	50	39
11.5614	11.6693	59	46
11.654	11.7616	57	46
11.7463	11.8542	55	40
11.8388	11.947	54	36
11.9315	12.0401	52	37
12.0246	12.1336	50	44
12.118	12.2273	52	36
12.2116	12.3213	54	40
12.3056	12.4154	47	36
12.3996	13.139	45	46
12.3996	13.9084	67	55
12.3996	13.9084	69	55
12.3996	13.9084	73	55
12.3996	13.9084	78	69
12.494	13.139	52	40
12.5882	12.9633	57	42
12.6822	12.8699	59	34
12.7761	13.139	61	44
12.8699	13.139	59	40
12.9633	13.139	57	41
13.0567	13.1498	66	49
13.1498	13.9084	64	50
13.2427	13.9084	62	44
13.3359	13.7121	61	40
13.4295	13.6175	59	41
13.5233	13.9084	57	50
13.6175	13.9084	59	41
13.7121	13.9084	61	46
13.807	13.9084	52	42
13.807	13.9084	76	60
13.8577	14.3034	66	49
13.883	14.3034	72	56
13.9084	14.3034	38	41
13.9084	14.6571	81	72
14.0024	14.3034	45	38
14.0964	14.3034	50	38
14.1902	14.3034	52	37
14.284	14.393	54	45
14.3774	14.4864	52	41
14.4709	14.5796	50	41
14.564	14.6726	59	41
14.6571	14.7654	57	46
14.75	14.8584	55	41
14.8428	14.9515	54	37
14.936	15.0447	52	39
15.0292	15.1382	50	45
15.1226	15.2317	52	36
15.2161	15.3254	54	40
15.3098	15.4192	45	36
15.4036	16.151	38	46
15.4974	16.151	45	40
15.5911	15.9633	50	42
15.6845	15.8706	52	34
15.7777	16.151	54	42
15.8706	16.151	52	39
15.9633	16.151	50	39
16.0558	16.151	59	46
16.0558	16.151	81	55
16.0558	16.151	84	66
16.148	16.8371	57	46
16.148	16.7973	72	58
16.148	16.8371	76	70
16.24	16.8371	55	40
16.3323	16.7038	54	36
16.4248	16.6106	52	37
16.5176	16.8371	50	44
16.6106	16.8371	52	36
16.7038	16.8371	54	40
16.7973	16.8911	45	36
16.7973	16.8911	72	55
16.7973	16.8911	74	66
16.8911	17.6407	43	52
16.8911	17.6354	62	77
16.9852	17.6407	50	45
17.0789	17.451	55	48
17.1724	17.3584	57	40
17.2656	17.6407	59	48
17.3584	17.6407	57	44
17.451	17.6407	55	44
17.5433	17.6407	64	52
17.6354	18.3759	62	52
17.6354	18.3759	67	69
17.6354	18.3759	71	77
17.7271	18.3759	60	45
17.819	18.1892	59	41
17.9113	18.0963	57	42
18.0037	18.3759	55	49
18.0963	18.3759	57	41
18.1892	18.3759	59	45
18.2824	18.3759	50	41
18.2824	18.3759	72	66
18.2824	18.3759	76	74
18.3759	19.1459	43	52
18.3759	19.8596	71	73
18.3759	19.8596	74	82
18.4696	19.1459	50	46
18.5633	18.935	55	50
18.6566	18.8425	57	44
18.7497	19.1459	59	55
18.8425	19.1459	57	53
18.935	19.1459	55	55
19.0272	19.1459	64	68
19.1191	19.8596	62	70
19.2109	19.8596	60	61
19.3028	19.673	59	55
19.395	19.5801	57	56
19.4874	19.8596	55	66
19.5801	19.8596	57	55
19.673	19.8596	59	60
19.7661	19.8596	50	55
19.7661	19.8596	76	81
19.7661	19.8596	84	96
19.8596	20.6073	43	68
19.8596	21.3439	74	74
19.8596	21.3439	83	89
19.9532	20.6073	50	58
20.0465	20.4178	55	60
20.1397	20.3253	57	49
20.2326	20.6073	59	58
20.3253	20.6073	57	52
20.4178	20.6073	55	52
20.5101	20.6073	64	60
20.602	21.3439	62	60
20.6937	21.3439	60	50
20.7858	21.1567	59	45
20.8781	21.0635	57	45
20.9707	21.3439	55	52
21.0635	21.3439	57	42
21.1567	21.3439	59	46
21.2502	21.3439	50	41
21.3439	22.1117	43	46
21.3439	22.1117	71	62
21.3439	22.1117	79	74
21.4377	22.1117	50	40
21.5314	21.9045	55	42
21.6249	21.8114	57	38
21.7183	22.1117	59	46
21.8114	22.1117	57	42
21.9045	22.1117	55	44
21.9974	22.1117	64	53
22.0901	22.1983	62	55
22.1829	22.2915	60	48
22.2759	22.385	59	41
22.3694	22.4789	57	42
22.4632	22.5731	55	48
22.5574	22.6677	57	39
22.6519	22.7623	59	41
22.7466	22.8567	50	37
22.841	23.5762	43	41
22.841	24.3311	71	61
22.841	23.587	77	75
22.935	23.5762	50	36
23.0288	23.4018	55	38
23.1224	23.3089	57	30
23.2157	23.5762	59	38
23.3089	23.5762	57	34
23.4018	23.5762	55	34
23.4945	23.587	64	42
23.587	24.3311	62	42
23.587	24.2375	77	70
23.6795	24.3311	60	37
23.772	24.144	59	31
23.8648	24.0509	57	34
23.9577	24.3311	55	41
24.0509	24.3311	57	34
24.144	24.3311	59	38
24.2375	24.3311	50	34
24.2375	24.3311	77	75
24.3311	24.8733	43	44
24.3311	25.9208	71	61
24.3311	24.8936	77	75
24.4248	24.8733	50	39
24.5186	24.8733	55	41
24.6123	24.7998	57	31
24.7061	24.8733	59	41
24.7998	25.1047	57	38
24.8936	25.1047	55	38
24.8936	24.9848	77	64
24.9392	25.1047	79	59
24.9848	25.1047	64	42
24.9848	25.1047	77	62
25.08	25.9208	62	45
25.08	25.8895	76	68
25.1755	25.9208	60	40
25.2715	25.6657	59	37
25.3677	25.5632	57	38
25.4644	25.9208	55	44
25.5632	25.9208	57	38
25.6657	25.9208	59	41
25.7722	25.9208	43	38
25.7722	25.9208	75	72
25.8307	28.8707	64	46
25.8503	28.8707	67	50
25.8699	28.8707	72	51
25.8895	26.238	36	44
25.8895	28.8707	76	66
25.9835	26.238	43	39
26.0774	26.238	48	46
26.171	26.28	50	41
26.2645	26.3732	52	49
26.3577	26.4661	50	45
26.4506	26.5588	48	45
26.5434	26.6513	57	53
26.6359	26.7437	55	53
26.7282	26.8362	53	45
26.8208	26.9291	52	40
26.9136	27.0221	50	41
27.0066	27.1153	48	49
27.0997	27.2087	50	40
27.1932	27.3025	52	44
27.2868	27.3968	43	40
27.3812	27.7638	36	50
27.4749	27.7638	43	44
27.5686	27.7638	48	45
27.662	27.7708	50	37
27.7553	27.8638	52	45
27.8484	27.9567	50	41
27.9412	28.0494	48	40
28.0339	28.1418	57	49
28.1264	28.2341	55	48
28.2187	28.3267	53	41
28.3112	28.4194	52	37
28.4039	28.5123	50	37
28.4968	28.6055	48	44
28.59	28.6989	50	36
28.6833	28.7925	52	40
28.7769	28.8864	43	36
28.8707	29.2458	36	46
28.8707	30.3647	64	58
28.8707	30.3647	67	60
28.8707	29.6181	72	75
28.9648	29.2458	43	40
29.0586	29.2458	48	42
29.1524	29.2458	50	34
29.2458	29.6073	52	42
29.3392	29.6073	50	39
29.4324	29.6073	48	39
29.5254	29.6181	57	48
29.6181	30.3647	55	48
29.6181	30.2703	72	75
29.7104	30.3647	53	41
29.803	30.1763	52	37
29.8959	30.0825	50	39
29.9891	30.3647	48	46
30.0825	30.3647	50	39
30.1763	30.3647	52	42
30.2703	30.3647	43	39
30.2703	30.3647	72	81
30.3647	31.1107	36	50
30.3647	31.8941	64	53
30.3647	31.8941	67	60
30.3647	31.8941	72	78
30.4593	31.1107	43	44
30.554	30.9331	48	48
30.6489	30.8385	50	40
30.7438	31.1107	52	50
30.8385	31.1107	50	48
30.9331	31.1107	48	49
31.0275	31.1217	57	63
31.1217	31.8941	55	63
31.216	31.8941	53	52
31.311	31.6971	52	46
31.4065	31.5995	50	46
31.5027	31.8941	48	55
31.5995	31.8941	50	44
31.6971	31.8941	52	48
31.7952	31.8941	43	42
31.7952	31.8941	71	75
31.8941	32.2693	36	56
31.8941	34.9505	64	53
31.8941	34.9505	67	56
31.8941	33.4057	71	74
31.9897	32.2693	43	48
32.085	32.2693	48	50
32.18	32.2749	50	41
32.2749	32.3851	52	49
32.3694	32.4794	50	45
32.4637	32.5734	48	45
32.5578	32.667	57	53
32.6514	32.7605	55	53
32.7449	32.8543	54	45
32.8386	32.9483	52	40
32.9326	33.0424	50	41
33.0267	33.1368	48	49
33.1211	33.2315	50	40
33.2157	33.3263	52	44
33.3105	33.5018	43	40
33.4057	33.8005	36	50
33.4057	34.8475	69	72
33.5018	33.8005	43	44
33.5979	33.8005	48	45
33.6937	33.8005	50	37
33.7894	33.9007	52	45
33.8848	33.9959	50	41
33.98	34.0909	48	40
34.0751	34.1857	57	49
34.1699	34.2807	55	48
34.2649	34.3764	54	41
34.3604	34.4726	52	37
34.4566	34.5695	50	37
34.5533	34.667	48	44
34.6507	34.7652	50	36
34.7488	34.8646	52	40
34.8475	34.9663	43	36
34.8475	34.899	71	70
34.899	35.6131	57	46
34.9248	36.4525	62	49
34.9505	35.6131	38	50
34.9505	36.4525	67	68
35.0452	35.6131	45	44
35.1396	35.5146	48	45
35.2338	35.4213	50	37
35.3276	35.6131	52	45
35.4213	35.6131	50	41
35.5146	35.6131	48	40
35.6077	35.7008	59	49
35.7008	35.8095	57	48
35.7939	35.903	55	41
35.8874	35.9967	52	37
35.981	36.0906	50	37
36.0749	36.1847	48	44
36.1689	36.279	50	36
36.2633	36.3736	52	40
36.3578	36.547	45	36
36.4525	36.8236	38	50
36.4525	37.9679	60	49
36.4525	37.9413	62	62
36.4525	37.8615	66	74
36.547	36.8236	45	44
36.6413	36.8236	50	45
36.7354	36.8291	52	37
36.8291	36.9382	54	45
36.9227	37.0315	52	41
37.0159	37.1245	50	40
37.109	37.2172	59	49
37.2018	37.31	57	48
37.2945	37.403	55	41
37.3874	37.4963	54	37
37.4807	37.5899	52	37
37.5743	37.6846	50	44
37.6687	37.7811	52	36
37.7649	37.8793	54	40
37.8615	37.9837	45	36
37.8615	37.9147	67	67
37.9147	38.345	59	49
37.9413	38.7178	62	52
37.9679	38.3286	43	50
37.9679	39.4632	67	73
38.0625	38.3286	50	44
38.157	38.3286	55	45
38.2511	38.345	57	37
38.345	38.4542	59	45
38.4386	38.5475	57	41
38.532	38.6405	55	40
38.625	38.7333	64	49
38.7178	39.4632	62	48
38.8104	38.9186	60	41
38.9031	39.0114	59	37
38.996	39.1046	57	37
39.089	39.1979	55	44
39.1823	39.2913	57	36
39.2757	39.385	59	40
39.3694	39.4789	50	36
39.4632	40.2027	43	50
39.5575	40.2027	50	44
39.6518	40.027	55	45
39.7459	39.9336	57	37
39.8398	40.2027	59	45
39.9336	40.2027	57	41
40.027	40.2027	55	40
40.1204	40.2136	64	49
40.2136	40.9602	62	48
40.3064	40.9602	60	41
40.3993	40.7726	59	37
40.4925	40.6791	57	37
40.5857	40.9602	55	44
40.6791	40.9602	57	36
40.7726	40.9602	59	40
40.8663	40.9602	50	36
40.9602	41.6964	43	40
40.9602	41.3354	59	46
41.0542	41.6964	50	34
41.0542	41.6964	62	40
41.1482	41.5217	55	37
41.1482	41.5217	67	41
41.2419	41.4286	57	30
41.2419	41.4286	69	34
41.3354	41.6964	59	37
41.3354	41.6964	71	41
41.4286	41.6964	57	33
41.4286	41.6964	69	39
41.5217	41.6964	55	33
41.5217	41.6964	67	39
41.6146	41.7072	64	40
41.6146	41.7072	76	46
41.7072	42.3586	62	40
41.7072	42.4529	74	46
41.7996	42.4529	60	34
41.7996	42.4529	72	40
41.892	42.2647	59	31
41.892	42.2647	71	36
41.9847	42.171	57	33
41.9847	42.171	69	37
42.0777	42.4529	55	38
42.0777	42.4529	67	42
42.171	42.4529	57	31
42.171	42.4529	69	36
42.2647	42.4529	59	34
42.2647	42.4529	71	40
42.3586	42.4529	50	31
42.3586	42.4529	62	36
42.4529	43.1995	43	40
42.4529	42.8279	59	46
42.5469	43.1995	50	34
42.5469	43.1995	62	40
42.6408	43.014	55	37
42.6408	43.014	67	41
42.7344	42.921	57	30
42.7344	42.921	69	34
42.8279	43.1995	59	37
42.8279	43.1995	71	41
42.921	43.1995	57	33
42.921	43.1995	69	39
43.014	43.1995	55	33
43.014	43.1995	67	39
43.1068	43.1995	64	40
43.1068	43.1995	76	46
43.1995	43.8533	62	40
43.1995	43.9474	74	46
43.2924	43.9474	60	34
43.2924	43.9474	72	40
43.3854	43.7594	59	31
43.3854	43.7594	71	36
43.4786	43.6656	57	33
43.4786	43.6656	69	37
43.5721	43.9474	55	38
43.5721	43.9474	67	42
43.6656	43.9474	57	31
43.6656	43.9474	69	36
43.7594	43.9474	59	34
43.7594	43.9474	71	40
43.8533	43.9474	50	31
43.8533	43.9474	62	36
43.9474	44.693	43	40
43.9474	44.508	59	46
44.0414	44.6006	50	34
44.0414	44.6006	62	40
44.1351	44.3221	55	37
44.1351	44.3221	67	41
44.2287	44.4151	57	30
44.2287	44.4151	69	34
44.3221	44.6984	55	37
44.3221	44.6984	67	41
44.4151	44.6984	57	33
44.4151	44.6984	69	39
44.508	44.693	59	33
44.508	44.6984	71	39
44.6006	44.6984	50	40
44.6006	44.6984	62	46
44.693	45.4345	43	40
44.693	45.2479	59	46
44.7851	45.3411	50	34
44.7851	45.3411	62	40
44.8773	45.0622	55	31
44.8773	45.0622	67	36
44.9696	45.1549	57	33
44.9696	45.1549	69	37
45.0622	45.4345	55	38
45.0622	45.4345	67	42
45.1549	45.4345	57	31
45.1549	45.4345	69	36
45.2479	45.4345	59	34
45.2479	45.4345	71	40
45.3411	45.4345	50	31
45.3411	45.4345	62	36
45.4345	46.1849	43	40
45.4345	45.9988	59	46
45.5292	46.1849	50	34
45.5292	46.092	62	40
45.6236	45.8117	55	37
45.6236	45.8117	67	41
45.7178	45.9054	57	30
45.7178	45.9054	69	34
45.8117	46.1849	55	37
45.8117	46.1849	67	41
45.9054	46.1849	57	33
45.9054	46.1849	69	38
45.9988	46.1849	59	31
45.9988	46.1849	71	37
46.092	46.1849	62	38
46.092	46.1849	74	42
46.1849	46.9497	67	37
46.1849	46.5606	79	42
46.2776	46.9497	69	31
46.2776	46.6566	81	38
46.371	46.9497	71	38
46.371	46.7533	83	40
46.4654	46.9497	74	31
46.4654	46.8511	86	34
46.5606	46.9497	79	34
46.5606	46.9497	91	39
46.6566	46.9497	81	33
46.6566	46.9497	93	38
46.7533	46.9497	83	31
46.7533	46.9497	95	37
46.8511	46.9497	86	30
46.8511	46.9497	98	37
46.9497	47.4779	83	40
46.9497	47.4779	95	50
47.7763	48.9931	43	31
47.8278	49.0505	50	33
47.8781	49.1059	55	36
47.9275	49.159	59	34
47.9758	49.21	62	37
48.0231	49.2591	67	40
48.07	49.3065	71	44
48.9931	51.6377	43	27
49.0505	51.6377	50	30
49.1059	51.6377	55	35
49.159	51.6377	59	33
49.21	51.6377	62	35
49.2591	51.6377	67	37
49.3065	51.6377	71	39
