OnsetTime	OffsetTime	MidiPitch	Velocity
0.500755	0.590717	37	50
0.589966	0.679927	44	55
0.679927	0.769888	44	47
0.679927	0.784882	49	57
0.769888	0.874843	52	59
0.85985	0.949811	37	51
0.85985	0.964805	56	61
0.949811	1.05477	49	55
1.03977	1.12973	44	47
1.03977	1.14473	52	56
1.12973	1.23469	56	58
1.2197	1.30966	37	49
1.2197	1.32465	61	60
1.30966	1.41461	52	55
1.39962	1.48958	44	46
1.39962	1.50457	56	56
1.48958	1.59453	61	58
1.57954	1.6695	37	50
1.57954	1.6845	64	60
1.6695	1.77446	56	56
1.75946	1.84942	44	47
1.75946	1.86442	61	57
1.84942	1.95438	64	58
1.93939	2.02935	37	51
1.93939	2.04434	68	59
2.02935	2.1343	61	56
2.11931	2.20927	44	49
2.11931	2.22426	64	56
2.20927	2.31422	68	58
2.29923	2.38919	37	51
2.29923	2.40419	73	59
2.38919	2.49415	64	61
2.47915	2.56912	44	48
2.47915	2.58411	68	56
2.56912	2.67407	73	60
2.65908	2.74904	37	49
2.65908	2.76403	76	62
2.74904	2.85399	68	59
2.839	2.92896	44	46
2.839	2.94395	73	61
2.92896	3.01892	76	64
3.01892	3.40295	37	80
3.01892	3.40295	49	80
3.01892	3.20644	68	82
3.01892	3.20644	73	82
3.01892	3.20644	76	97
3.01892	3.20644	80	97
3.20644	3.40295	44	70
3.20644	3.40295	68	70
3.20644	3.40295	73	70
3.20644	3.40295	76	82
3.20644	3.40295	80	82
3.39395	3.48391	36	49
3.48391	3.57387	44	56
3.57387	3.66383	44	44
3.57387	3.67883	48	57
3.66383	3.76879	51	59
3.75379	3.84376	36	49
3.75379	3.85875	56	61
3.84376	3.94871	48	56
3.93372	4.02368	44	44
3.93372	4.03867	51	57
4.02368	4.12863	56	60
4.11364	4.2036	36	48
4.11364	4.21859	60	62
4.2036	4.30856	51	56
4.29356	4.38352	44	44
4.29356	4.39852	56	57
4.38352	4.48848	60	59
4.47348	4.56345	36	48
4.47348	4.57844	63	61
4.56345	4.6684	56	55
4.65341	4.74337	44	45
4.65341	4.75836	60	56
4.74337	4.84832	63	58
4.83333	4.92329	36	48
4.83333	4.93829	68	60
4.92329	5.02825	60	56
5.01325	5.10321	44	43
5.01325	5.11821	63	57
5.10321	5.20817	68	59
5.19318	5.28314	36	48
5.19318	5.29813	72	61
5.28314	5.38809	63	56
5.3731	5.46306	44	44
5.3731	5.47805	68	57
5.46306	5.56801	72	60
5.55302	5.64298	36	48
5.55302	5.65798	75	62
5.64298	5.74794	68	60
5.73294	5.82291	44	44
5.73294	5.8379	72	61
5.82291	5.91287	75	62
5.91287	6.28918	36	80
5.91287	6.28918	48	80
5.91287	6.10102	68	82
5.91287	6.10102	72	82
5.91287	6.10102	75	97
5.91287	6.10102	80	97
6.10102	6.28918	44	68
6.10102	6.28918	68	69
6.10102	6.28918	72	69
6.10102	6.28918	75	81
6.10102	6.28918	80	81
6.28918	6.37914	35	65
6.37914	6.4841	49	78
6.4691	6.55906	44	59
6.4691	6.57406	53	74
6.55906	6.66402	56	78
6.64903	6.73899	35	67
6.64903	6.75398	61	80
6.73899	6.84394	52	73
6.82895	6.91891	44	61
6.82895	6.9339	56	74
6.91891	7.02387	61	77
7.00887	7.09883	35	67
7.00887	7.11383	65	80
7.09883	7.20379	56	74
7.18879	7.27876	44	62
7.18879	7.29375	61	77
7.27876	7.38371	65	79
7.36872	7.45868	35	67
7.36872	7.47367	68	80
7.45868	7.56363	61	74
7.54864	7.6386	44	62
7.54864	7.65359	65	75
7.6386	7.74356	68	78
7.72856	7.81852	35	67
7.72856	7.83352	73	79
7.81852	7.92348	65	73
7.90849	7.99845	44	62
7.90849	8.01344	68	74
7.99845	8.1034	73	78
8.08841	8.17837	35	67
8.08841	8.19336	77	80
8.17837	8.28332	68	74
8.26833	8.35829	44	61
8.26833	8.37329	73	78
8.35829	8.46325	77	80
8.44825	8.53821	35	67
8.44825	8.55321	80	78
8.53821	8.64317	73	80
8.62818	8.71814	44	60
8.62818	8.73313	77	82
8.71814	8.8081	80	84
8.8081	9.18195	35	85
8.8081	9.18195	47	85
8.8081	8.99502	73	90
8.8081	8.99502	77	90
8.8081	8.99502	80	106
8.8081	8.99502	85	106
8.99502	9.18195	44	76
8.99502	9.18195	73	79
8.99502	9.18195	77	79
8.99502	9.18195	80	93
8.99502	9.18195	85	93
9.18195	9.27191	33	59
9.27191	9.37686	49	72
9.36187	9.45183	45	61
9.36187	9.46682	54	75
9.45183	9.55678	57	73
9.54179	9.63175	33	68
9.54179	9.58677	61	82
9.63175	9.73671	61	85
9.72171	9.81167	45	71
9.72171	9.82667	66	90
9.81167	9.91663	69	87
9.90164	9.9916	33	68
9.90164	9.94662	73	94
9.9916	10.0966	73	91
10.0816	10.1715	45	68
10.0816	10.1865	78	96
10.1715	10.627	81	90
10.2615	10.627	33	79
10.2615	10.4442	73	94
10.2615	10.4442	78	94
10.2615	10.4442	85	111
10.4442	10.627	45	79
10.4442	10.627	73	91
10.4442	10.627	78	91
10.4442	10.627	85	108
10.627	10.717	33	79
10.717	10.8219	49	89
10.8069	10.8969	45	75
10.8069	10.9119	52	91
10.8969	11.0019	55	94
10.9869	11.0768	33	79
10.9869	11.0318	61	90
11.0768	11.1818	61	91
11.1668	11.2567	45	75
11.1668	11.2717	64	94
11.2567	11.3617	67	94
11.3467	11.4367	33	79
11.3467	11.3917	73	95
11.4367	11.5416	73	91
11.5266	11.6166	45	75
11.5266	11.6316	76	94
11.6166	11.7065	79	95
11.7065	12.1252	33	86
11.7065	11.9159	73	92
11.7065	11.9159	79	109
11.7065	11.9159	85	109
11.9159	12.1252	45	86
11.9159	12.1252	73	92
11.9159	12.1252	79	109
11.9159	12.1252	85	109
12.1252	12.6944	32	79
12.1252	12.6944	44	79
12.1252	12.6944	72	108
12.1252	12.4257	80	108
12.1252	12.6944	84	108
12.3346	15.0986	56	74
12.3346	12.5168	60	74
12.3346	12.5168	68	88
12.4257	12.6079	80	69
12.5168	12.699	60	73
12.5168	12.6944	68	89
12.6079	12.699	80	71
12.699	12.8812	61	74
12.699	12.8812	70	90
12.7901	12.8812	80	71
12.8812	13.0634	63	76
12.8812	13.0634	72	90
12.9723	13.0634	80	72
13.0634	13.2456	64	78
13.0634	13.2107	73	92
13.1545	13.2456	80	73
13.2456	13.4278	66	79
13.2456	13.4149	75	93
13.3367	13.4278	80	73
13.4278	13.61	63	80
13.4278	13.5842	72	94
13.5189	13.61	80	73
13.61	13.7969	66	82
13.61	13.7837	75	95
13.7035	13.7969	80	74
13.7969	13.9924	64	84
13.7969	13.9924	73	95
13.8904	13.9924	80	74
13.9838	14.1708	69	85
13.9838	14.1708	78	99
14.0773	14.1708	80	74
14.1708	14.3573	68	84
14.1708	14.3216	76	95
14.2641	14.3573	80	74
14.3573	14.5433	66	82
14.3573	14.5433	75	95
14.4505	14.5433	80	74
14.5433	14.7289	64	80
14.5433	14.7112	73	93
14.6362	14.7289	80	74
14.7289	14.9141	63	79
14.7289	14.901	72	93
14.8215	14.9141	80	73
14.9141	15.6016	61	78
14.9141	15.0678	69	91
15.0063	15.6016	79	72
15.0986	18.0492	56	76
15.0986	15.2827	60	76
15.0986	15.2827	68	90
15.1907	15.3747	80	71
15.2827	15.4664	60	75
15.2827	15.4664	68	89
15.3747	15.558	80	70
15.4664	15.6496	60	73
15.4664	15.6016	68	88
15.558	15.6496	80	70
15.6496	15.8324	61	71
15.6496	15.8019	70	88
15.741	15.8324	80	72
15.8324	16.0235	63	73
15.8324	16.0235	72	90
15.9238	16.0235	80	70
16.0152	16.1979	64	74
16.0152	16.185	73	90
16.1065	16.1979	80	74
16.1979	16.5376	66	77
16.1979	16.3502	75	91
16.2893	16.4721	80	72
16.3807	16.5635	63	79
16.3807	16.5376	72	93
16.4721	16.5635	80	73
16.5635	16.7541	66	80
16.5635	16.7493	75	94
16.6588	16.7541	80	74
16.7541	16.9662	64	80
16.7541	16.9662	73	95
16.8494	16.9662	80	77
16.9438	17.129	69	80
16.9438	17.1158	78	99
17.0364	17.129	80	80
17.129	17.3138	68	79
17.129	17.3138	76	99
17.2215	17.3138	80	79
17.3138	17.5029	66	79
17.3138	17.5029	75	99
17.406	17.5029	80	79
17.4983	17.6822	64	79
17.4983	17.6562	73	99
17.5903	17.6822	80	78
17.6822	17.8659	63	79
17.6822	17.8659	72	99
17.7742	17.8659	80	79
17.8659	18.1452	61	79
17.8659	17.9927	69	99
17.9575	18.1452	79	78
18.0492	18.1452	56	84
18.0492	18.1452	60	84
18.0492	18.1452	68	99
18.1406	18.2321	80	78
18.2321	18.3239	56	73
18.2321	18.3239	61	73
18.2321	18.3239	69	94
18.3239	18.4159	79	79
18.4159	18.5345	56	79
18.4159	18.5345	60	79
18.4159	18.5345	68	99
18.5083	18.6009	80	78
18.6009	18.7296	56	73
18.6009	18.7296	61	73
18.6009	18.7296	69	93
18.6939	18.7872	79	79
18.7872	18.9166	56	84
18.7872	18.9166	60	84
18.7872	18.9166	68	99
18.8806	18.9744	80	78
18.9744	19.1086	56	73
18.9744	19.1086	61	73
18.9744	19.1086	69	93
19.0685	19.1628	79	77
19.1628	19.3027	56	79
19.1628	19.3027	60	79
19.1628	19.3027	68	99
19.2575	19.3525	80	78
19.3525	19.471	56	72
19.3525	19.471	61	72
19.3525	19.471	69	94
19.4479	19.5435	79	77
19.5435	19.8367	56	84
19.5435	19.8367	60	84
19.5435	19.8367	68	99
19.5435	19.8367	80	99
20.0356	22.1946	32	94
20.0356	22.1946	44	94
20.0356	22.1946	56	117
22.1946	22.2846	37	51
22.2846	22.3745	44	53
22.3745	22.4645	44	46
22.3745	22.4795	49	56
22.4645	22.5695	52	58
22.5545	22.6444	37	51
22.5545	22.6594	56	61
22.6444	22.7494	49	56
22.7344	22.8244	44	46
22.7344	22.8393	52	58
22.8244	22.9293	56	60
22.9143	23.0043	37	51
22.9143	23.0193	61	61
23.0043	23.1092	52	56
23.0942	23.1842	44	46
23.0942	23.1992	56	57
23.1842	23.2892	61	59
23.2742	23.3641	37	51
23.2742	23.3791	64	61
23.3641	23.4691	56	56
23.4541	23.544	44	46
23.4541	23.559	61	57
23.544	23.649	64	59
23.634	23.8139	37	51
23.634	23.739	68	61
23.724	23.8289	61	56
23.8139	23.9939	44	46
23.8139	23.9189	64	57
23.9039	24.0088	68	59
23.9939	24.1738	37	51
23.9939	24.0988	73	61
24.0838	24.1888	64	56
24.1738	24.3537	44	46
24.1738	24.2787	68	58
24.2637	24.3687	73	60
24.3537	24.5336	37	51
24.3537	24.4437	76	61
24.4437	24.5486	76	60
24.5336	24.8987	44	46
24.5336	24.6386	80	61
24.6236	25.0838	85	63
24.7135	25.0838	37	90
24.7135	25.0838	49	90
24.7135	24.8987	76	99
24.7135	24.8987	88	117
24.8987	25.0838	44	77
24.8987	25.0838	76	77
24.8987	25.0838	88	91
25.0838	25.1737	34	48
25.1737	25.2787	52	56
25.2637	25.3537	49	43
25.2637	25.3687	55	58
25.3537	25.4586	61	60
25.4436	25.5336	46	48
25.4436	25.5486	64	61
25.5336	25.6385	54	56
25.6235	25.7135	49	44
25.6235	25.7285	61	57
25.7135	25.8185	64	59
25.8035	25.8934	46	48
25.8035	25.9084	67	61
25.8934	25.9984	61	56
25.9834	26.0734	49	44
25.9834	26.0883	64	57
26.0734	26.1783	66	60
26.1633	26.2533	46	48
26.1633	26.2683	73	62
26.2533	26.3582	64	56
26.3432	26.4332	49	44
26.3432	26.4482	66	58
26.4332	26.5382	73	61
26.5232	26.6131	46	48
26.5232	26.6281	76	63
26.6131	26.7181	67	56
26.7031	26.793	49	44
26.7031	26.808	73	59
26.793	26.898	76	61
26.883	26.973	46	48
26.883	26.988	79	63
26.973	27.0779	73	56
27.0629	27.1529	49	43
27.0629	27.1679	76	58
27.1529	27.2578	78	60
27.2429	27.3328	46	48
27.2429	27.3478	85	62
27.3328	27.4378	76	58
27.4228	27.5127	49	44
27.4228	27.5277	78	61
27.5127	27.9694	85	64
27.6027	27.9694	34	90
27.6027	27.9694	46	90
27.6027	27.7861	76	96
27.6027	27.7861	88	114
27.7861	27.9694	49	75
27.7861	27.9694	76	76
27.7861	27.9694	88	90
27.9694	28.1493	31	46
28.0594	28.1493	51	59
28.1493	28.3293	51	43
28.1493	28.2543	58	60
28.2393	28.3442	61	58
28.3293	28.5092	43	48
28.3293	28.4342	63	61
28.4192	28.5242	58	62
28.5092	28.6891	51	46
28.5092	28.6141	61	63
28.5991	28.7041	63	60
28.6891	28.869	43	51
28.6891	28.7941	70	66
28.7791	28.884	61	67
28.869	29.0489	51	48
28.869	28.974	63	68
28.959	29.0639	70	62
29.0489	29.2289	43	53
29.0489	29.1539	73	69
29.1389	29.2439	63	70
29.2289	29.4088	51	51
29.2289	29.3338	70	71
29.3188	29.4238	73	67
29.4088	29.4988	43	56
29.4088	29.5137	75	73
29.4988	29.6037	70	73
29.5887	29.6787	51	52
29.5887	29.6937	73	74
29.6787	29.7836	75	70
29.7686	29.8586	43	58
29.7686	29.8736	82	75
29.8586	29.9636	73	77
29.9486	30.0385	51	54
29.9486	30.0535	75	78
30.0385	30.1435	82	74
30.1285	30.2187	43	61
30.1285	30.2339	85	79
30.2187	30.3251	82	77
30.3098	30.4018	51	57
30.3098	30.4172	75	74
30.4018	30.5102	73	72
30.4946	30.5884	43	56
30.4946	30.6041	82	70
30.5884	30.699	75	68
30.6831	30.7787	51	53
30.6831	30.7948	73	66
30.7787	30.8926	70	62
30.8754	30.9954	44	39
30.8754	31.081	71	53
30.9782	31.0982	51	31
31.081	31.201	47	34
31.1839	31.3026	51	30
31.2867	31.3931	44	39
31.2867	32.0429	75	67
31.378	31.4836	51	30
31.4685	31.5741	47	34
31.5591	31.6647	51	29
31.6496	31.7552	44	39
31.7401	31.8469	51	31
31.8306	31.9445	47	35
31.9282	32.0429	51	30
32.0258	32.1457	44	39
32.0258	32.358	71	55
32.1286	32.2486	51	31
32.2314	32.358	47	35
32.3342	32.4929	51	30
32.3342	32.4055	68	55
32.4055	32.4292	67	44
32.4292	32.453	68	44
32.453	32.4767	70	44
32.4767	32.5902	46	39
32.4767	32.8808	68	63
32.574	32.6875	51	31
32.6712	32.7847	49	35
32.7685	32.8808	51	31
32.8658	32.9714	46	39
32.8658	33.4089	67	55
32.9563	33.0619	51	31
33.0468	33.1524	49	35
33.1373	33.2429	51	31
33.2279	33.3335	46	39
33.3184	33.4255	51	31
33.4089	33.5251	49	35
33.4089	33.6254	67	55
33.5085	33.6254	51	31
33.6081	33.7289	46	39
33.6081	33.9188	75	67
33.7117	33.8325	51	31
33.8152	33.936	49	35
33.9188	34.0385	51	31
33.9188	33.9705	67	57
34.0223	34.1354	47	39
34.0223	34.4249	70	51
34.1192	34.2323	51	34
34.2161	34.3292	47	36
34.313	34.4249	51	31
34.4099	34.5149	47	38
34.4099	34.9497	68	56
34.4999	34.6049	51	34
34.5899	34.6948	47	34
34.6798	34.7848	51	30
34.7698	34.8747	47	39
34.8598	34.9658	51	33
34.9497	35.062	47	36
34.9497	35.1594	68	53
35.046	35.1594	51	31
35.1422	35.2622	47	38
35.1422	35.485	75	67
35.2451	35.365	51	31
35.3479	35.4678	47	35
35.4507	35.5696	51	31
35.4507	35.5696	68	55
35.5535	35.6665	43	38
35.5535	35.9562	71	57
35.6504	35.7634	51	30
35.7473	35.8604	43	35
35.8442	35.9562	51	31
35.9411	36.0467	43	38
35.9411	36.4843	70	55
36.0316	36.1373	51	34
36.1222	36.2278	43	36
36.2127	36.3183	51	36
36.3032	36.4088	43	38
36.3937	36.5014	51	34
36.4843	36.6042	43	37
36.4843	36.707	70	57
36.5871	36.707	51	33
36.6899	36.8098	43	38
36.6899	36.9983	75	53
36.7927	36.9126	51	29
36.8955	37.0154	43	34
36.9983	37.1165	51	31
36.9983	37.1165	70	57
37.1011	37.2091	44	46
37.1011	37.1937	71	61
37.1937	37.3016	51	38
37.2862	37.3942	47	42
37.2862	37.6564	75	60
37.2862	37.6564	87	60
37.3788	37.4867	51	37
37.4713	37.5793	44	48
37.5639	37.6718	51	37
37.6564	37.7644	47	41
37.6564	38.0266	75	63
37.6564	38.0266	87	63
37.749	37.8569	51	37
37.8415	37.9495	44	49
37.9341	38.0416	51	38
38.0266	38.1316	47	42
38.0266	38.1166	75	61
38.0266	38.1166	87	61
38.1166	38.2215	51	38
38.2065	38.3115	44	51
38.2065	38.2965	71	63
38.2065	38.2965	83	63
38.2965	38.4015	51	44
38.3865	38.4914	47	44
38.3865	38.4764	68	64
38.3865	38.4764	80	64
38.4764	38.5814	51	40
38.5664	38.6713	46	55
38.5664	38.6563	68	67
38.5664	38.6563	80	67
38.6563	38.7618	51	41
38.7463	38.855	49	46
38.7463	39.119	67	68
38.7463	39.119	79	68
38.8395	38.9482	51	41
38.9326	39.0413	46	56
39.0258	39.1345	51	42
39.119	39.2277	49	48
39.119	39.4916	67	73
39.119	39.4916	79	73
39.2121	39.3208	51	42
39.3053	39.414	46	58
39.3985	39.5066	51	42
39.4916	39.5966	49	49
39.4916	39.5816	67	75
39.4916	39.5816	79	75
39.5816	39.6866	51	44
39.6716	39.7765	46	59
39.6716	39.7615	75	77
39.6716	39.7615	87	77
39.7615	39.8665	51	48
39.8515	39.9564	49	53
39.8515	39.9414	67	79
39.8515	39.9414	79	79
39.9414	40.0464	51	49
40.0314	40.1364	47	61
40.0314	40.1214	70	81
40.0314	40.1214	82	81
40.1214	40.2269	51	52
40.2113	40.32	47	56
40.2113	40.584	68	82
40.2113	40.584	80	82
40.3045	40.4132	51	51
40.3977	40.5064	47	62
40.4908	40.5995	51	52
40.584	40.6927	47	57
40.584	40.9567	68	86
40.584	40.9567	80	86
40.6772	40.7859	51	57
40.7703	40.879	47	67
40.8635	40.9718	51	56
40.9567	41.0626	47	59
40.9567	41.0475	68	89
40.9567	41.0475	80	89
41.0475	41.1534	51	53
41.1382	41.2442	47	68
41.1382	41.229	75	92
41.1382	41.229	87	92
41.229	41.335	51	58
41.3198	41.4258	47	61
41.3198	41.4106	68	93
41.3198	41.4106	80	93
41.4106	41.5165	51	56
41.5014	41.6073	43	70
41.5014	41.5922	71	94
41.5014	41.5922	83	94
41.5922	41.6984	51	63
41.683	41.7907	43	67
41.683	42.0521	70	96
41.683	42.0521	82	96
41.7753	41.8829	51	67
41.8675	41.9752	43	71
41.9598	42.0675	51	62
42.0521	42.1597	43	68
42.0521	42.4211	70	100
42.0521	42.4211	82	100
42.1443	42.252	51	62
42.2366	42.3443	43	74
42.3289	42.4365	51	63
42.4211	42.5288	43	70
42.4211	42.5134	70	100
42.4211	42.5134	82	100
42.5134	42.6211	51	63
42.6057	42.7133	43	74
42.6057	42.698	75	100
42.6057	42.698	87	100
42.698	42.8056	51	64
42.7902	42.8979	43	71
42.7902	42.8825	70	100
42.7902	42.8825	82	100
42.8825	42.9897	51	64
42.9748	43.0797	42	78
42.9748	43.6944	72	103
42.9748	43.6944	84	103
43.0647	43.1697	51	64
43.1547	43.2596	44	72
43.2446	43.3496	51	64
43.3346	43.4396	42	78
43.4246	43.5295	51	66
43.5145	43.6195	44	72
43.6045	43.7094	51	66
43.6944	43.7994	40	78
43.6944	44.4141	73	103
43.6944	44.4141	85	103
43.7844	43.8894	49	66
43.8744	43.9793	44	73
43.9643	44.0693	49	66
44.0543	44.1592	40	78
44.1443	44.2492	49	67
44.2342	44.3392	44	72
44.3242	44.4297	49	67
44.4141	44.8135	40	78
44.4141	44.8135	70	86
44.4141	44.531	82	86
44.4726	44.5894	83	82
44.5076	44.6946	49	67
44.531	44.7179	82	86
44.5894	44.788	83	86
44.6011	44.8135	42	72
44.6478	44.8135	80	86
44.6946	44.8135	49	67
44.7179	44.8135	82	82
44.788	44.893	39	78
44.788	45.8676	71	103
44.788	45.8676	83	103
44.878	44.983	47	68
44.968	45.0729	42	73
45.0579	45.1629	47	68
45.1479	45.2528	39	78
45.2378	45.3428	47	67
45.3278	45.4328	42	72
45.4178	45.5227	47	66
45.5077	45.6127	39	78
45.5977	45.7026	47	66
45.6877	45.7926	42	71
45.7776	45.8828	47	66
45.8676	45.9745	38	78
45.8676	46.601	68	103
45.8676	46.601	80	103
45.9593	46.0662	47	69
46.0509	46.1579	40	74
46.1426	46.2496	47	69
46.2343	46.3412	38	78
46.326	46.4329	47	69
46.4176	46.5246	40	74
46.5093	46.6162	47	68
46.601	46.7073	37	78
46.601	47.3298	69	102
46.601	47.3298	81	102
46.6921	46.7984	45	68
46.7832	46.8895	40	73
46.8743	46.9806	45	67
46.9654	47.0717	37	78
47.0565	47.1628	45	68
47.1476	47.2539	40	73
47.2387	47.3452	45	68
47.3298	47.715	37	78
47.3298	47.715	67	88
47.3298	47.4224	79	88
47.3877	47.5033	80	83
47.4224	47.6075	46	67
47.4224	47.715	79	88
47.5033	47.7	80	83
47.5149	47.715	39	71
47.5612	47.715	77	88
47.6075	47.715	46	67
47.6306	47.715	78	88
47.7	47.805	35	78
47.7	48.7796	68	103
47.7	48.7796	80	103
47.79	47.895	44	68
47.88	47.9849	39	72
47.9699	48.0749	44	68
48.0599	48.1648	35	78
48.1498	48.2548	44	67
48.2398	48.3448	39	72
48.3298	48.4347	44	68
48.4197	48.5247	35	78
48.5097	48.6146	44	67
48.5996	48.7046	37	72
48.6896	48.7946	44	69
48.7796	49.8591	37	78
48.7796	49.8591	40	78
48.7796	49.8591	45	78
48.7796	49.8591	49	78
48.7796	49.5892	69	103
48.7796	49.5892	73	103
48.7796	49.5892	76	103
48.7796	49.5892	81	103
49.5892	49.6792	76	56
49.6792	49.7691	78	56
49.7691	49.8591	80	57
49.8591	49.9491	81	58
49.9491	50.039	83	59
50.039	50.129	85	60
50.129	50.2189	83	60
50.2189	50.5788	61	59
50.2189	50.5788	64	59
50.2189	50.5758	69	59
50.2189	50.3089	81	58
50.3089	50.3989	76	56
50.3989	50.4888	78	56
50.4888	50.5788	80	56
50.5788	50.6687	81	57
50.6687	50.7587	83	58
50.7587	50.8487	85	59
50.8487	50.9386	83	57
50.9386	51.2985	61	58
50.9386	51.2985	64	58
50.9386	51.2985	69	58
50.9386	51.0286	81	57
51.0286	51.1186	76	56
51.1186	51.2085	78	57
51.2085	51.2985	80	58
51.2985	51.3884	81	59
51.3884	51.4784	83	60
51.4784	51.5684	85	61
51.5684	51.6583	83	58
51.6583	52.0182	61	58
51.6583	52.0182	64	58
51.6583	52.0182	69	58
51.6583	51.7483	81	56
51.7483	51.8382	76	57
51.8382	51.9282	78	60
51.9282	52.0182	80	61
52.0182	52.378	61	62
52.0182	52.378	64	62
52.0182	52.378	69	62
52.0182	52.1081	81	64
52.1081	52.1981	83	67
52.1981	52.288	85	68
52.288	52.378	86	71
52.378	52.7379	61	71
52.378	52.7379	64	71
52.378	52.7379	69	71
52.378	52.468	88	72
52.468	52.5579	87	70
52.5579	52.6479	88	68
52.6479	52.7379	87	67
52.7379	53.0977	61	66
52.7379	53.0977	64	66
52.7379	53.0977	69	66
52.7379	52.8278	88	64
52.8278	52.9178	85	62
52.9178	53.0077	83	61
53.0077	53.0977	81	59
53.0977	53.2027	63	58
53.0977	53.8174	80	57
53.1877	53.2926	71	52
53.2776	53.3826	68	56
53.3676	53.4725	71	52
53.4575	53.5625	63	60
53.5475	53.6525	71	51
53.6375	53.7424	68	56
53.7274	54.5461	71	51
53.8174	54.1817	63	60
53.8174	53.9388	82	59
53.8781	53.9958	83	59
53.9085	54.0907	73	53
53.9388	54.0527	82	59
53.9958	54.1096	83	59
53.9996	54.3639	67	56
54.0527	54.1666	82	59
54.0907	54.2728	73	51
54.1096	54.2197	83	59
54.1666	54.2728	82	57
54.1817	54.5587	63	60
54.2197	54.3184	83	57
54.2728	54.455	73	51
54.2728	54.3639	82	58
54.3184	54.4095	83	59
54.3639	54.5587	67	56
54.3639	54.455	82	60
54.4095	54.5006	83	61
54.455	54.5641	73	51
54.455	54.5587	82	61
54.5006	54.5587	83	62
54.5461	54.7625	64	67
54.5461	54.7625	68	67
54.5461	54.7625	71	67
54.5461	54.7625	80	67
54.979	55.6987	37	90
54.979	55.6987	40	90
54.979	55.6987	45	90
54.979	55.6987	49	90
54.979	55.4288	57	90
54.979	55.4288	61	90
54.979	55.4288	64	90
54.979	55.4288	69	90
55.4288	55.5188	64	59
55.5188	55.6087	66	59
55.6087	55.6987	68	59
55.6987	55.7886	69	57
55.7886	55.8786	71	56
55.8786	55.9686	73	58
55.9686	56.0585	71	57
56.0585	56.1485	69	56
56.1485	56.2384	64	56
56.2384	56.3284	66	57
56.3284	56.4184	68	58
56.4184	56.7782	49	58
56.4184	56.7782	52	58
56.4184	56.7782	57	58
56.4184	56.5083	69	60
56.5083	56.5983	71	61
56.5983	56.6883	73	58
56.6883	56.7782	71	57
56.7782	56.8682	69	57
56.8682	56.9581	64	57
56.9581	57.0481	66	57
57.0481	57.1381	68	59
57.1381	57.4979	49	58
57.1381	57.4979	52	58
57.1381	57.4979	57	58
57.1381	57.228	69	59
57.228	57.318	71	59
57.318	57.4079	73	59
57.4079	57.4979	71	59
57.4979	57.5879	69	58
57.5879	57.6778	64	59
57.6778	57.8578	49	60
57.6778	57.8578	52	60
57.6778	57.8578	57	60
57.6778	57.7678	66	60
57.7678	57.8578	68	61
57.8578	57.9477	69	62
57.9477	58.0377	71	63
58.0377	58.2176	49	72
58.0377	58.2176	52	72
58.0377	58.2176	57	72
58.0377	58.1276	73	66
58.1276	58.2176	71	67
58.2176	58.3076	69	68
58.3076	58.3975	64	69
58.3975	58.5774	49	80
58.3975	58.5774	52	80
58.3975	58.5774	57	80
58.3975	58.4875	66	70
58.4875	58.5774	68	71
58.5774	58.6674	69	73
58.6674	58.7574	71	74
58.7574	58.9373	49	80
58.7574	58.9373	52	80
58.7574	58.9373	57	80
58.7574	58.8473	73	74
58.8473	58.9373	71	75
58.9373	59.2971	49	79
58.9373	59.2971	52	79
58.9373	59.2971	57	79
58.9373	59.0273	69	78
59.0273	59.1172	64	79
59.1172	59.2072	66	80
59.2072	59.2971	68	80
59.2971	59.3871	69	83
59.3871	59.4771	71	84
59.4771	59.567	73	85
59.567	59.657	74	86
59.657	59.7469	76	88
59.7469	59.8369	78	89
59.8369	59.9269	80	90
59.9269	60.0168	81	91
60.0168	60.1068	83	93
60.1068	60.1967	85	93
60.1967	60.2867	86	94
60.2867	60.3767	87	95
60.3767	60.4816	49	83
60.3767	61.0964	76	99
60.3767	61.0964	88	99
60.4666	60.5716	57	72
60.5566	60.6615	52	78
60.6466	60.7515	57	74
60.7365	60.8415	49	83
60.8265	60.9314	57	72
60.9164	61.0214	52	77
61.0064	61.1114	57	72
61.0964	61.2013	50	83
61.0964	61.8161	68	99
61.0964	61.8161	80	99
61.1863	61.2913	59	72
61.2763	61.3812	53	78
61.3662	61.4712	59	73
61.4562	61.5612	50	83
61.5462	61.6511	59	72
61.6361	61.7411	53	75
61.7261	61.831	59	72
61.8161	61.921	51	83
61.8161	62.5357	71	99
61.8161	62.5357	83	99
61.906	62.011	59	72
61.996	62.1009	56	78
62.0859	62.1909	59	78
62.1759	62.2809	51	83
62.2659	62.3708	59	73
62.3558	62.4608	56	78
62.4458	62.5509	59	74
62.5357	62.642	39	83
62.5357	63.2646	55	84
62.5357	63.2646	61	84
62.5357	63.2646	67	99
62.6268	62.7331	51	74
62.7179	62.8242	50	79
62.809	62.9153	51	73
62.9001	63.0064	39	83
62.9913	63.0975	51	73
63.0824	63.1886	50	79
63.1735	63.2646	51	72
63.2646	63.4445	44	84
63.2646	63.4445	59	99
63.2646	63.4445	63	99
63.2646	63.4445	68	99
63.4445	63.5373	63	60
63.4445	63.5373	71	60
63.6302	63.7231	56	51
63.6302	63.7231	63	60
63.6302	63.7231	71	60
63.8159	63.9088	56	51
63.8159	63.9088	63	60
63.8159	63.9088	71	60
64.0014	64.094	56	51
64.0014	64.094	63	60
64.0014	64.094	71	60
64.1866	64.2791	56	51
64.1866	64.2791	63	60
64.1866	64.2791	71	60
64.3717	64.464	58	50
64.3717	64.464	63	58
64.3717	64.464	70	58
64.5563	64.6486	59	50
64.5563	64.6486	63	57
64.5563	64.6486	68	57
64.7408	64.9252	49	56
64.7408	64.9252	61	56
64.7408	64.9252	63	70
64.7408	64.9252	67	70
64.9252	65.1068	61	50
64.9252	65.1068	63	50
64.9252	65.1068	67	58
64.9252	65.1068	75	58
65.1068	65.2884	61	49
65.1068	65.2884	63	49
65.1068	65.2884	67	58
65.1068	65.2884	75	58
65.2884	65.47	61	49
65.2884	65.47	63	49
65.2884	65.47	67	59
65.2884	65.47	75	59
65.47	65.6516	61	49
65.47	65.6516	63	49
65.47	65.6516	67	60
65.47	65.6516	75	60
65.6516	65.8332	61	49
65.6516	65.8332	63	49
65.6516	65.8332	67	60
65.6516	65.8332	75	60
65.8332	66.0149	59	49
65.8332	66.0149	63	49
65.8332	66.0149	68	61
65.8332	66.0149	75	61
66.0149	66.1965	58	48
66.0149	66.1965	63	48
66.0149	66.1965	70	59
66.0149	66.1965	75	59
66.1965	66.3781	44	56
66.1965	66.3781	56	56
66.1965	66.3781	71	69
66.1965	66.3781	75	69
66.3781	66.5644	56	50
66.3781	66.5644	63	59
66.3781	66.5644	71	59
66.5644	66.7507	56	50
66.5644	66.7507	63	59
66.5644	66.7507	71	59
66.7507	66.9364	56	50
66.7507	66.9364	63	59
66.7507	66.9364	71	59
66.9364	67.1221	56	51
66.9364	67.1221	63	59
66.9364	67.1221	71	59
67.1221	67.3072	56	50
67.1221	67.3072	63	59
67.1221	67.3072	71	59
67.3072	67.4921	58	51
67.3072	67.4921	63	59
67.3072	67.4921	70	59
67.4921	67.6766	59	51
67.4921	67.6766	63	57
67.4921	67.6766	68	57
67.6766	67.8609	51	56
67.6766	67.8609	61	56
67.6766	67.8609	63	69
67.6766	67.8609	67	69
67.8609	68.0425	61	49
67.8609	68.0425	63	49
67.8609	68.0425	67	58
67.8609	68.0425	75	58
68.0425	68.2241	61	51
68.0425	68.2241	63	51
68.0425	68.2241	67	58
68.0425	68.2241	75	58
68.2241	68.4057	61	50
68.2241	68.4057	63	50
68.2241	68.4057	67	60
68.2241	68.4057	75	60
68.4057	68.5873	61	50
68.4057	68.5873	63	50
68.4057	68.5873	67	58
68.4057	68.5873	75	58
68.5873	68.7689	61	50
68.5873	68.7689	63	50
68.5873	68.7689	67	58
68.5873	68.7689	75	58
68.7689	68.9505	59	50
68.7689	68.9505	63	50
68.7689	68.9505	68	59
68.7689	68.9505	75	59
68.9505	69.1321	58	50
68.9505	69.1321	63	50
68.9505	69.1321	70	61
68.9505	69.1321	75	61
69.1321	69.2256	44	57
69.1321	69.2256	71	66
69.1321	69.2256	75	66
69.3191	69.409	56	47
69.3191	69.409	59	47
69.3191	69.409	71	59
69.3191	69.409	75	59
69.499	69.7794	56	47
69.499	69.6789	59	47
69.499	69.6789	71	59
69.499	69.7794	75	59
69.6789	69.8588	59	46
69.6789	69.8588	63	46
69.6789	69.8588	68	56
69.6789	69.8588	71	56
69.8588	69.9505	49	56
70.0422	70.1322	56	51
70.0422	70.1322	61	51
70.0422	70.1322	73	59
70.0422	70.1322	76	59
70.2221	70.5452	56	51
70.2221	70.402	61	51
70.2221	70.402	73	59
70.2221	70.5452	76	59
70.402	70.582	61	48
70.402	70.582	64	48
70.402	70.582	68	57
70.402	70.582	73	57
70.582	70.6754	51	56
70.7689	70.8588	56	49
70.7689	70.8588	59	49
70.7689	70.8588	71	56
70.7689	70.8588	75	56
70.9488	71.2652	56	50
70.9488	71.1287	59	50
70.9488	71.1287	71	56
70.9488	71.2652	75	56
71.1287	71.3087	59	46
71.1287	71.3087	63	46
71.1287	71.3087	68	52
71.1287	71.3087	71	52
71.3087	71.404	51	56
71.4993	71.5892	55	47
71.4993	71.5892	58	47
71.4993	71.5892	70	58
71.4993	71.5892	75	58
71.6792	72.0098	55	47
71.6792	71.8591	58	47
71.6792	71.8591	70	56
71.6792	72.0098	75	56
71.8591	72.039	58	46
71.8591	72.039	63	46
71.8591	72.039	67	53
71.8591	72.039	70	53
72.039	72.219	32	50
72.039	72.219	44	50
72.039	72.219	68	58
72.039	72.219	71	58
72.219	72.4029	44	49
72.219	72.4029	51	49
72.219	72.4029	71	61
72.219	72.4029	75	61
72.219	72.4029	83	61
72.4029	72.5867	44	51
72.4029	72.5867	51	51
72.4029	72.5867	71	66
72.4029	72.5867	75	66
72.4029	72.5867	83	66
72.5867	72.7701	44	56
72.5867	72.7701	51	56
72.5867	72.7701	71	69
72.5867	72.7701	75	69
72.5867	72.7701	83	69
72.7701	72.9532	44	59
72.7701	72.9532	51	59
72.7701	72.9532	71	73
72.7701	72.9532	75	73
72.7701	72.9532	83	73
72.9532	73.1359	44	62
72.9532	73.1359	51	62
72.9532	73.1359	71	78
72.9532	73.1359	75	78
72.9532	73.1359	83	78
73.1359	73.3183	46	68
73.1359	73.3183	51	68
73.1359	73.3183	70	81
73.1359	73.3183	73	81
73.1359	73.3183	82	81
73.3183	73.6514	47	70
73.3183	73.5005	51	70
73.3183	73.6514	68	85
73.3183	73.6514	71	85
73.3183	73.6514	80	85
73.5005	73.6862	39	74
73.5005	73.6862	49	74
73.5005	73.6862	51	74
73.5005	73.6862	67	89
73.5005	73.6862	70	89
73.5005	73.6862	79	89
73.6862	73.8679	51	73
73.6862	73.8679	61	73
73.6862	73.8679	76	90
73.6862	73.8679	79	90
73.6862	73.8679	88	90
73.8679	74.0495	51	79
73.8679	74.0495	61	79
73.8679	74.0495	76	97
73.8679	74.0495	79	97
73.8679	74.0495	88	97
74.0495	74.2311	51	75
74.0495	74.2311	61	75
74.0495	74.2311	76	94
74.0495	74.2311	79	94
74.0495	74.2311	88	94
74.2311	74.4127	51	78
74.2311	74.4127	61	78
74.2311	74.4127	76	97
74.2311	74.4127	79	97
74.2311	74.4127	88	97
74.4127	74.5943	51	73
74.4127	74.5943	61	73
74.4127	74.5943	76	92
74.4127	74.5943	79	92
74.4127	74.5943	88	92
74.5943	74.7801	51	79
74.5943	74.7801	59	79
74.5943	74.7801	75	95
74.5943	74.7801	79	95
74.5943	74.7801	87	95
74.7801	74.9658	51	75
74.7801	74.9658	58	75
74.7801	74.9658	73	92
74.7801	74.9658	79	92
74.7801	74.9658	85	92
74.9658	75.1739	32	82
74.9658	75.1563	44	82
74.9658	75.1563	71	97
74.9658	75.1739	80	97
74.9658	75.1563	83	97
75.1563	75.3397	44	49
75.1563	75.3397	51	49
75.1563	75.3397	71	58
75.1563	75.3397	75	58
75.1563	75.3397	83	58
75.3397	75.5228	44	52
75.3397	75.5228	51	52
75.3397	75.5228	71	62
75.3397	75.5228	75	62
75.3397	75.5228	83	62
75.5228	75.7056	44	57
75.5228	75.7056	51	57
75.5228	75.7056	71	68
75.5228	75.7056	75	68
75.5228	75.7056	83	68
75.7056	75.8881	44	61
75.7056	75.8881	51	61
75.7056	75.8881	71	72
75.7056	75.8881	75	72
75.7056	75.8881	83	72
75.8881	76.0703	44	66
75.8881	76.0703	51	66
75.8881	76.0703	71	78
75.8881	76.0703	75	78
75.8881	76.0703	83	78
76.0703	76.2521	46	69
76.0703	76.2521	51	69
76.0703	76.2521	70	82
76.0703	76.2521	73	82
76.0703	76.2521	82	82
76.2521	76.4337	47	73
76.2521	76.4337	51	73
76.2521	76.4337	68	86
76.2521	76.4337	71	86
76.2521	76.4337	80	86
76.4337	76.6145	39	78
76.4337	76.6145	49	78
76.4337	76.6145	51	78
76.4337	76.6145	67	92
76.4337	76.6145	70	92
76.4337	76.6145	79	92
76.6145	76.7948	51	75
76.6145	76.7948	61	75
76.6145	76.7948	76	93
76.6145	76.7948	79	93
76.6145	76.7948	88	93
76.7948	76.9761	51	79
76.7948	76.9761	61	79
76.7948	76.9761	76	96
76.7948	76.9761	79	96
76.7948	76.9761	88	96
76.9761	77.1586	51	74
76.9761	77.1586	61	74
76.9761	77.1586	76	92
76.9761	77.1586	79	92
76.9761	77.1586	88	92
77.1586	77.3422	51	79
77.1586	77.3422	61	79
77.1586	77.3422	76	97
77.1586	77.3422	79	97
77.1586	77.3422	88	97
77.3422	77.527	51	75
77.3422	77.527	61	75
77.3422	77.527	76	92
77.3422	77.527	79	92
77.3422	77.527	88	92
77.527	77.713	51	79
77.527	77.713	59	79
77.527	77.713	75	94
77.527	77.713	79	94
77.527	77.713	87	94
77.713	77.9003	51	79
77.713	77.9003	58	79
77.713	77.9003	73	93
77.713	77.9003	79	93
77.713	77.9003	85	93
77.9003	78.0888	44	82
77.9003	78.0888	56	82
77.9003	78.0888	71	97
77.9003	78.0888	80	97
77.9003	78.0888	83	97
78.0888	78.1788	59	51
78.0888	78.1788	63	51
78.0888	78.1788	80	59
78.0888	78.1788	83	59
78.2687	78.4487	59	49
78.2687	78.4801	63	49
78.2687	78.4801	80	59
78.2687	78.4487	83	59
78.4487	78.6286	56	47
78.4487	78.6286	59	47
78.4487	78.6286	83	57
78.4487	78.6286	87	57
78.6286	78.7206	49	57
78.8125	78.9025	61	50
78.8125	78.9025	64	50
78.8125	78.9025	80	58
78.8125	78.9025	85	58
78.9924	79.1724	61	50
78.9924	79.2991	64	50
78.9924	79.2991	80	58
78.9924	79.1724	85	58
79.1724	79.3523	56	47
79.1724	79.3523	61	47
79.1724	79.3523	85	57
79.1724	79.3523	88	57
79.3523	79.4454	51	57
79.5386	79.6286	59	50
79.5386	79.6286	63	50
79.5386	79.6286	80	58
79.5386	79.6286	83	58
79.7185	79.8985	59	50
79.7185	80.0469	63	50
79.7185	80.0469	80	58
79.7185	79.8985	83	58
79.8985	80.0784	56	47
79.8985	80.0784	59	47
79.8985	80.0784	83	57
79.8985	80.0784	87	57
80.0784	80.1709	49	58
80.2635	80.3535	58	50
80.2635	80.3535	63	50
80.2635	80.3535	79	60
80.2635	80.3535	82	60
80.4434	80.6234	58	50
80.4434	80.786	63	50
80.4434	80.786	79	60
80.4434	80.6234	82	60
80.6234	80.8033	55	48
80.6234	80.8033	58	48
80.6234	80.8033	82	57
80.6234	80.8033	87	57
80.8033	80.985	47	53
80.985	81.0784	63	47
80.985	81.0784	68	47
80.985	81.0784	75	66
80.985	81.0784	83	66
81.1729	81.3654	63	49
81.1729	81.491	68	49
81.1729	81.491	75	61
81.1729	81.491	83	61
81.3654	81.5604	59	49
81.3654	81.5604	63	49
81.3654	81.5604	80	61
81.3654	81.5604	87	61
81.5604	81.7576	51	59
81.7576	81.8579	64	56
81.7576	81.8579	69	56
81.7576	81.8579	73	73
81.7576	81.8579	81	73
81.9598	82.164	64	54
81.9598	82.3137	69	54
81.9598	82.3137	73	67
81.9598	82.3137	81	67
82.164	82.3682	61	54
82.164	82.3682	64	54
82.164	82.3682	76	66
82.164	82.3682	85	66
82.3682	82.5766	47	62
82.5766	82.6832	63	57
82.5766	82.6832	68	57
82.5766	82.6832	71	68
82.5766	82.6832	80	68
82.7906	83.0094	63	57
82.7906	83.1584	68	57
82.7906	83.1584	71	68
82.7906	83.1584	80	68
83.0094	83.2341	59	53
83.0094	83.2341	63	53
83.0094	83.2341	75	61
83.0094	83.2341	83	61
83.2341	83.4666	51	60
83.4666	83.5846	61	51
83.4666	83.5846	67	51
83.4666	83.5846	70	62
83.4666	83.5846	79	62
83.7026	83.939	61	51
83.7026	84.1264	67	51
83.7026	84.1264	70	61
83.7026	84.1264	79	61
83.939	84.1769	58	42
83.939	84.1769	61	42
83.939	84.1769	73	50
83.939	84.1769	82	50
84.1769	84.2928	44	49
84.1769	84.574	71	59
84.1769	84.574	80	59
84.2762	84.392	56	39
84.3755	84.4913	51	43
84.4747	84.5906	56	38
84.574	84.6898	44	49
84.6733	84.7891	56	39
84.7725	84.8884	51	43
84.8718	84.9876	56	39
84.9711	85.0869	44	49
85.0704	85.1862	56	39
85.1696	85.2854	51	44
85.2689	85.3851	56	39
85.3682	85.4864	44	49
85.3682	85.6722	71	59
85.4695	85.5878	56	39
85.5709	85.6891	51	44
85.6722	85.7905	56	39
85.6722	85.7229	68	59
85.7736	85.8919	44	49
85.7736	86.179	67	68
85.875	85.9932	58	39
85.9763	86.0946	51	45
86.0777	86.1969	58	39
86.179	86.3039	44	49
86.179	86.5001	61	56
86.179	86.5001	67	56
86.179	86.5001	75	56
86.2861	86.4109	58	39
86.3931	86.5179	51	44
86.5001	86.625	58	39
86.6071	86.732	44	49
86.6071	86.9282	61	56
86.6071	86.9282	67	56
86.6071	86.9282	75	56
86.7141	86.839	58	41
86.8212	86.946	51	45
86.9282	87.053	58	40
87.0352	87.1601	44	49
87.0352	87.3563	61	59
87.0352	87.3563	67	59
87.0352	87.3563	75	59
87.1422	87.2671	58	40
87.2492	87.3803	51	43
87.3563	87.5168	58	39
87.3563	87.4522	59	59
87.4282	87.5168	68	59
87.5002	87.616	44	49
87.5002	88.6914	75	68
87.5995	87.7153	56	39
87.6988	87.8146	51	44
87.798	87.9138	56	39
87.8973	88.0131	44	49
87.9966	88.1124	56	40
88.0958	88.2116	51	45
88.1951	88.3109	56	40
88.2944	88.4102	44	49
88.3936	88.5095	56	40
88.4929	88.6087	51	45
88.5922	88.7083	56	40
88.6914	88.8093	44	49
88.6914	88.9944	83	69
88.7924	88.9103	56	39
88.8934	89.0113	51	43
88.9944	89.1123	56	39
88.9944	89.0954	80	69
89.0954	89.2133	44	49
89.0954	89.4994	79	79
89.1964	89.3143	58	43
89.2974	89.4153	51	43
89.3984	89.5168	58	40
89.4994	89.6211	44	49
89.4994	89.8123	73	68
89.4994	89.8123	79	68
89.4994	89.8123	87	68
89.6037	89.7254	58	40
89.708	89.8297	51	43
89.8123	89.934	58	39
89.9166	90.0383	44	49
89.9166	90.2295	73	68
89.9166	90.2295	79	68
89.9166	90.2295	87	68
90.0209	90.1426	58	40
90.1252	90.2469	51	43
90.2295	90.3512	58	39
90.3338	90.4555	44	49
90.3338	90.6446	73	68
90.3338	90.6446	79	68
90.3338	90.6446	87	68
90.4381	90.5598	58	41
90.5424	90.6672	51	46
90.6446	90.7967	58	41
90.6446	90.7351	68	56
90.7125	90.7967	80	63
90.7804	90.8946	44	49
90.7804	91.4658	87	86
90.8783	90.9925	56	39
90.9762	91.0904	51	43
91.0741	91.1884	56	39
91.172	91.2863	44	50
91.2699	91.3842	56	39
91.3679	91.4848	51	42
91.4658	91.5963	56	39
91.4658	91.5419	69	51
91.5229	91.5963	79	63
91.58	91.6942	44	49
91.58	92.2654	87	85
91.6779	91.7922	58	41
91.7758	91.8901	51	44
91.8738	91.988	58	44
91.9717	92.0859	44	49
92.0696	92.1838	58	41
92.1675	92.2868	51	45
92.2654	92.4102	58	41
92.2654	92.3511	71	48
92.3297	92.4102	80	63
92.3939	92.5081	44	49
92.3939	93.0793	87	85
92.4918	92.6061	56	39
92.5897	92.704	51	43
92.6877	92.8019	56	39
92.7856	92.8998	44	49
92.8835	92.9977	56	39
92.9814	93.0956	51	43
93.0793	93.1936	56	39
93.0793	93.1446	69	53
93.1283	93.1936	79	62
93.1772	93.2915	44	49
93.1772	93.9606	87	84
93.2752	93.3894	58	40
93.3731	93.4873	51	44
93.471	93.5852	58	39
93.5689	93.6831	44	49
93.6668	93.781	58	40
93.7647	93.879	51	44
93.8626	93.9774	58	41
93.9606	94.0805	44	50
93.9606	94.0805	59	58
94.0635	94.182	56	49
94.0635	94.182	68	59
94.1651	94.2833	51	50
94.1651	94.2833	63	60
94.2664	94.3847	56	48
94.2664	94.3847	68	57
94.3678	94.4855	44	51
94.3678	94.4855	59	62
94.4688	94.5856	56	52
94.4688	94.5856	68	63
94.569	94.6856	51	53
94.569	94.6856	63	64
94.6689	94.7855	56	51
94.6689	94.7855	68	60
94.7689	94.8847	44	56
94.7689	94.8847	59	68
94.8684	94.9823	56	57
94.8684	94.9823	68	68
94.9661	95.079	51	57
94.9661	95.079	63	69
95.0629	95.1756	56	58
95.0629	95.1756	68	62
95.1595	95.2722	44	60
95.1595	95.2722	59	72
95.2561	95.3687	56	61
95.2561	95.3687	68	73
95.3527	95.4644	51	62
95.3527	95.4644	63	74
95.4485	95.5598	56	56
95.4485	95.5598	68	68
95.5439	95.6551	44	63
95.5439	95.6551	60	78
95.6392	95.7504	54	66
95.6392	95.7504	66	79
95.7345	95.8457	51	67
95.7345	95.8457	63	80
95.8298	95.9411	54	61
95.8298	95.9411	66	74
95.9252	96.0364	44	68
95.9252	96.0364	60	82
96.0205	96.1312	54	69
96.0205	96.1312	66	83
96.1156	96.225	51	71
96.1156	96.225	63	84
96.2094	96.3184	54	67
96.2094	96.3184	66	80
96.3029	96.4119	44	73
96.3029	96.4119	60	86
96.3963	96.5054	54	74
96.3963	96.5054	66	88
96.4898	96.5987	51	75
96.4898	96.5987	63	89
96.5832	96.6915	54	68
96.5832	96.6915	66	90
96.6761	96.7844	44	77
96.6761	96.7844	60	92
96.7689	96.8773	54	79
96.7689	96.8773	66	93
96.8618	96.9698	51	79
96.8618	96.9698	63	93
96.9545	97.0613	54	73
96.9545	97.0613	66	86
97.0458	97.1389	37	82
97.0458	97.1389	52	82
97.0458	97.1389	56	82
97.0458	97.1389	61	97
97.0458	97.1389	64	97
97.1389	97.229	44	64
97.229	97.3191	44	47
97.229	97.3341	49	67
97.3191	97.4242	52	68
97.4092	97.4993	37	51
97.4092	97.5143	56	70
97.4993	97.6044	49	64
97.5894	97.6795	44	48
97.5894	97.6945	52	66
97.6795	97.7846	56	67
97.7696	97.8597	37	50
97.7696	97.8747	61	68
97.8597	97.9648	52	61
97.9498	98.0399	44	47
97.9498	98.0549	56	63
98.0399	98.145	61	64
98.13	98.2201	37	47
98.13	98.2351	64	67
98.2201	98.3252	56	62
98.3102	98.4003	44	47
98.3102	98.4153	61	63
98.4003	98.5054	64	66
98.4904	98.5805	37	51
98.4904	98.5955	68	68
98.5805	98.6856	61	62
98.6706	98.7606	44	48
98.6706	98.7757	64	63
98.7606	98.8658	68	66
98.8507	98.9408	37	51
98.8507	98.9559	73	68
98.9408	99.046	64	62
99.0309	99.121	44	48
99.0309	99.1361	68	63
99.121	99.2261	73	66
99.2111	99.3012	37	49
99.2111	99.3162	76	67
99.3012	99.4063	68	62
99.3913	99.4814	44	45
99.3913	99.4964	73	66
99.4814	99.5715	76	68
99.5715	99.9555	37	79
99.5715	99.9555	49	79
99.5715	99.759	68	82
99.5715	99.759	73	82
99.5715	99.759	76	97
99.5715	99.759	80	97
99.759	99.9555	44	70
99.759	99.9555	68	70
99.759	99.9555	73	70
99.759	99.9555	76	82
99.759	99.9555	80	82
99.9465	100.036	36	49
100.036	100.126	44	57
100.126	100.216	44	46
100.126	100.231	48	59
100.216	100.321	51	61
100.306	100.396	36	49
100.306	100.411	56	62
100.396	100.501	48	57
100.486	100.576	44	45
100.486	100.591	51	58
100.576	100.681	56	61
100.666	100.756	36	48
100.666	100.771	60	63
100.756	100.861	51	56
100.846	100.936	44	44
100.846	100.951	56	58
100.936	101.041	60	60
101.026	101.116	36	48
101.026	101.131	63	61
101.116	101.221	56	57
101.206	101.296	44	45
101.206	101.311	60	60
101.296	101.401	63	62
101.386	101.476	36	48
101.386	101.491	68	63
101.476	101.581	60	57
101.566	101.656	44	45
101.566	101.671	63	58
101.656	101.761	68	60
101.746	101.836	36	48
101.746	101.851	72	61
101.836	101.941	63	57
101.926	102.016	44	44
101.926	102.031	68	59
102.016	102.121	72	61
102.106	102.196	36	48
102.106	102.211	75	62
102.196	102.301	68	61
102.286	102.375	44	44
102.286	102.39	72	62
102.375	102.465	75	66
102.465	102.842	36	79
102.465	102.842	48	79
102.465	102.654	68	82
102.465	102.654	72	82
102.465	102.654	75	97
102.465	102.654	80	97
102.654	102.842	44	61
102.654	102.842	68	69
102.654	102.842	72	69
102.654	102.842	75	81
102.654	102.842	80	81
102.842	102.932	35	65
102.932	103.037	49	75
103.022	103.112	44	60
103.022	103.127	53	78
103.112	103.217	56	75
103.202	103.292	35	67
103.202	103.307	61	80
103.292	103.397	52	74
103.382	103.471	44	62
103.382	103.486	56	75
103.471	103.576	61	74
103.561	103.651	35	67
103.561	103.666	65	80
103.651	103.756	56	74
103.741	103.831	44	62
103.741	103.846	61	75
103.831	103.936	65	77
103.921	104.011	35	67
103.921	104.026	68	81
104.011	104.116	61	74
104.101	104.191	44	62
104.101	104.206	65	77
104.191	104.296	68	74
104.281	104.371	35	67
104.281	104.386	73	81
104.371	104.476	65	72
104.461	104.551	44	62
104.461	104.566	68	74
104.551	104.656	73	74
104.641	104.731	35	67
104.641	104.746	77	80
104.731	104.836	68	75
104.821	104.911	44	62
104.821	104.926	73	78
104.911	105.016	77	77
105.001	105.091	35	67
105.001	105.106	80	82
105.091	105.196	73	75
105.181	105.271	44	62
105.181	105.286	77	80
105.271	105.361	80	81
105.361	105.735	35	83
105.361	105.735	47	83
105.361	105.548	73	90
105.361	105.548	77	90
105.361	105.548	80	106
105.361	105.548	85	106
105.548	105.735	44	76
105.548	105.735	73	79
105.548	105.735	77	79
105.548	105.735	80	93
105.548	105.735	85	93
105.735	105.824	33	59
105.824	105.929	49	72
105.914	106.004	45	61
105.914	106.019	54	75
106.004	106.109	57	74
106.094	106.184	33	68
106.094	106.139	61	82
106.184	106.289	61	85
106.274	106.364	45	73
106.274	106.379	66	90
106.364	106.469	69	90
106.454	106.544	33	79
106.454	106.499	73	94
106.544	106.649	73	98
106.634	106.724	45	80
106.634	106.739	78	99
106.724	107.18	81	95
106.814	107.18	33	89
106.814	106.997	73	89
106.814	106.997	78	105
106.814	106.997	85	105
106.997	107.18	45	88
106.997	107.18	73	88
106.997	107.18	78	104
106.997	107.18	85	104
107.18	107.27	33	79
107.27	107.375	49	89
107.36	107.449	45	75
107.36	107.464	52	91
107.449	107.554	55	89
107.539	107.629	33	79
107.539	107.584	61	95
107.629	107.734	61	90
107.719	107.809	45	75
107.719	107.824	64	94
107.809	107.914	67	91
107.899	107.989	33	79
107.899	107.944	73	96
107.989	108.094	73	94
108.079	108.169	45	75
108.079	108.184	76	95
108.169	108.259	79	95
108.259	108.678	33	94
108.259	108.468	73	94
108.259	108.468	79	111
108.259	108.468	85	111
108.468	108.678	45	94
108.468	108.678	73	94
108.468	108.678	79	111
108.468	108.678	85	111
108.678	108.887	32	79
108.678	108.887	44	79
108.678	108.887	72	94
108.678	108.887	80	111
108.678	108.887	84	111
108.887	111.651	56	74
108.887	109.069	60	74
108.887	109.069	68	88
108.978	109.16	80	69
109.069	109.252	60	73
109.069	109.213	68	89
109.16	109.252	80	71
109.252	109.434	61	74
109.252	109.421	70	90
109.343	109.434	80	71
109.434	109.616	63	76
109.434	109.611	72	90
109.525	109.616	80	72
109.616	109.798	64	78
109.616	109.794	73	92
109.707	109.798	80	73
109.798	109.98	66	79
109.798	109.963	75	93
109.889	109.98	80	73
109.98	110.163	63	80
109.98	110.128	72	94
110.071	110.163	80	73
110.163	110.349	66	82
110.163	110.341	75	95
110.256	110.349	80	74
110.349	110.568	64	84
110.349	110.568	73	95
110.443	110.568	80	74
110.536	110.732	69	85
110.536	110.732	78	99
110.63	110.732	80	74
110.723	110.918	68	84
110.723	110.918	76	95
110.817	110.918	80	74
110.91	111.109	66	82
110.91	111.109	75	95
111.003	111.109	80	74
111.096	111.286	64	80
111.096	111.286	73	93
111.189	111.286	80	74
111.281	111.467	63	79
111.281	111.467	72	93
111.374	111.467	80	73
111.467	111.651	61	78
111.467	111.625	69	91
111.559	111.651	79	72
111.651	114.602	56	76
111.651	111.835	60	76
111.651	111.835	68	90
111.743	111.927	80	71
111.835	112.019	60	75
111.835	112.019	68	89
111.927	112.111	80	70
112.019	112.215	60	73
112.019	112.215	68	88
112.111	112.215	80	70
112.202	112.402	61	71
112.202	112.402	70	88
112.294	112.402	80	72
112.385	112.568	63	73
112.385	112.555	72	90
112.476	112.568	80	70
112.568	112.75	64	74
112.568	112.742	73	90
112.659	112.75	80	74
112.75	112.933	66	77
112.75	112.933	75	91
112.842	112.933	80	72
112.933	113.116	63	79
112.933	113.081	72	93
113.025	113.116	80	73
113.116	113.307	66	80
113.116	113.302	75	94
113.211	113.307	80	74
113.307	113.514	64	80
113.307	113.514	73	95
113.402	113.514	80	77
113.496	113.686	69	80
113.496	113.686	78	99
113.589	113.686	80	80
113.681	113.875	68	79
113.681	113.875	76	99
113.774	113.875	80	79
113.866	114.051	66	79
113.866	114.042	75	99
113.959	114.051	80	79
114.051	114.235	64	79
114.051	114.196	73	99
114.143	114.235	80	78
114.235	114.418	63	79
114.235	114.405	72	99
114.327	114.418	80	79
114.418	114.602	61	79
114.418	114.554	69	99
114.51	114.602	79	78
114.602	114.693	56	84
114.602	114.693	60	84
114.602	114.693	68	99
114.693	114.785	80	78
114.785	114.907	56	73
114.785	114.907	61	73
114.785	114.907	69	94
114.876	114.968	79	79
114.968	115.074	56	79
114.968	115.074	60	79
114.968	115.074	68	99
115.061	115.153	80	78
115.153	115.269	56	73
115.153	115.269	61	73
115.153	115.269	69	94
115.246	115.34	79	79
115.34	115.446	56	84
115.34	115.446	60	84
115.34	115.446	68	99
115.433	115.527	80	78
115.527	115.621	56	73
115.527	115.621	61	73
115.527	115.621	69	94
115.621	115.715	79	77
115.715	115.824	56	79
115.715	115.824	60	79
115.715	115.824	68	99
115.81	115.905	80	78
115.905	116.0	56	72
115.905	116.0	61	72
115.905	116.0	69	94
116.0	116.401	79	77
116.096	116.401	56	84
116.096	116.401	60	84
116.096	116.401	68	99
116.096	116.401	80	99
116.588	118.747	32	99
116.588	118.747	44	99
116.588	118.747	56	117
118.747	118.837	37	51
118.837	118.927	44	56
118.927	119.017	44	46
118.927	119.032	49	58
119.017	119.122	52	61
119.107	119.197	37	51
119.107	119.212	56	62
119.197	119.302	49	56
119.287	119.377	44	47
119.287	119.392	52	58
119.377	119.482	56	60
119.467	119.557	37	51
119.467	119.572	61	62
119.557	119.662	52	56
119.647	119.737	44	47
119.647	119.752	56	58
119.737	119.842	61	60
119.827	119.917	37	51
119.827	119.932	64	62
119.917	120.022	56	57
120.007	120.097	44	46
120.007	120.112	61	59
120.097	120.202	64	61
120.187	120.366	37	51
120.187	120.292	68	62
120.277	120.381	61	56
120.366	120.546	44	46
120.366	120.471	64	56
120.456	120.561	68	59
120.546	120.726	37	51
120.546	120.651	73	62
120.636	120.741	64	56
120.726	120.906	44	46
120.726	120.831	68	59
120.816	120.921	73	61
120.906	121.086	37	51
120.906	120.996	76	64
120.996	121.101	76	60
121.086	121.451	44	51
121.086	121.191	80	61
121.176	121.636	85	63
121.266	121.636	37	92
121.266	121.636	49	92
121.266	121.451	76	98
121.266	121.451	88	116
121.451	121.636	44	77
121.451	121.636	76	77
121.451	121.636	88	91
121.636	121.726	34	48
121.726	121.831	52	55
121.816	121.906	49	44
121.816	121.921	55	57
121.906	122.011	61	59
121.996	122.086	46	48
121.996	122.101	64	61
122.086	122.191	54	56
122.176	122.266	49	48
122.176	122.281	61	58
122.266	122.371	64	60
122.356	122.446	46	48
122.356	122.461	67	61
122.446	122.551	61	59
122.536	122.626	49	44
122.536	122.641	64	58
122.626	122.731	66	60
122.716	122.806	46	48
122.716	122.821	73	62
122.806	122.911	64	56
122.896	122.986	49	48
122.896	123.001	66	58
122.986	123.091	73	61
123.076	123.166	46	48
123.076	123.181	76	62
123.166	123.271	67	57
123.256	123.346	49	44
123.256	123.361	73	57
123.346	123.451	76	59
123.436	123.526	46	48
123.436	123.541	79	62
123.526	123.63	73	56
123.615	123.705	49	44
123.615	123.72	76	59
123.705	123.81	78	61
123.795	123.885	46	48
123.795	123.9	85	64
123.885	123.99	76	61
123.975	124.065	49	45
123.975	124.08	78	64
124.065	124.522	85	68
124.155	124.522	34	87
124.155	124.522	46	87
124.155	124.339	76	96
124.155	124.339	88	114
124.339	124.522	49	75
124.339	124.522	76	76
124.339	124.522	88	90
124.522	124.702	31	46
124.612	124.702	51	59
124.702	124.882	51	47
124.702	124.807	58	60
124.792	124.897	61	61
124.882	125.062	43	48
124.882	124.987	63	61
124.972	125.077	58	62
125.062	125.242	51	50
125.062	125.167	61	63
125.152	125.257	63	64
125.242	125.422	43	51
125.242	125.347	70	66
125.332	125.437	61	67
125.422	125.602	51	51
125.422	125.527	63	68
125.512	125.616	70	68
125.602	125.781	43	53
125.602	125.706	73	69
125.691	125.796	63	70
125.781	125.961	51	54
125.781	125.886	70	71
125.871	125.976	73	72
125.961	126.051	43	56
125.961	126.066	75	73
126.051	126.156	70	73
126.141	126.231	51	57
126.141	126.246	73	74
126.231	126.336	75	74
126.321	126.411	43	58
126.321	126.426	82	75
126.411	126.516	73	77
126.501	126.591	51	60
126.501	126.606	75	78
126.591	126.696	82	79
126.681	126.771	43	61
126.681	126.786	85	79
126.771	126.878	82	77
126.862	126.954	51	57
126.862	126.97	75	74
126.954	127.063	73	72
127.047	127.141	43	56
127.047	127.157	82	70
127.141	127.252	75	68
127.236	127.331	51	53
127.236	127.347	73	66
127.331	127.444	70	62
127.427	127.547	44	39
127.427	127.632	71	53
127.53	127.649	51	30
127.632	127.752	47	34
127.735	127.854	51	30
127.838	127.944	44	39
127.838	128.594	75	67
127.929	128.035	51	30
128.02	128.125	47	34
128.11	128.216	51	30
128.201	128.307	44	39
128.291	128.398	51	31
128.382	128.496	47	35
128.48	128.594	51	30
128.577	128.697	44	39
128.577	128.886	71	61
128.68	128.8	51	31
128.783	128.909	47	35
128.886	129.044	51	29
128.886	128.957	68	61
128.957	128.981	67	48
128.981	129.004	68	48
129.004	129.028	70	48
129.028	129.142	46	39
129.028	129.432	68	69
129.125	129.239	51	31
129.223	129.336	49	35
129.32	129.432	51	31
129.417	129.523	46	39
129.417	129.96	67	61
129.508	129.613	51	29
129.598	129.704	49	35
129.689	129.794	51	33
129.779	129.885	46	39
129.87	129.977	51	31
129.96	130.076	49	35
129.96	130.177	67	61
130.06	130.177	51	30
130.159	130.28	46	39
130.159	130.47	75	73
130.263	130.384	51	31
130.367	130.487	49	35
130.47	130.59	51	31
130.47	130.522	67	62
130.574	130.687	47	39
130.574	130.976	70	56
130.671	130.784	51	35
130.767	130.88	47	36
130.864	130.976	51	31
130.961	131.066	47	38
130.961	131.501	68	61
131.051	131.156	51	29
131.141	131.246	47	34
131.231	131.336	51	30
131.321	131.426	47	39
131.411	131.517	51	30
131.501	131.613	47	36
131.501	131.711	68	58
131.597	131.711	51	31
131.694	131.813	47	38
131.694	132.019	75	74
131.796	131.916	51	31
131.899	132.019	47	35
132.002	132.121	51	30
132.002	132.121	68	61
132.105	132.218	43	38
132.105	132.508	71	62
132.202	132.315	51	35
132.299	132.412	43	35
132.396	132.508	51	31
132.492	132.598	43	38
132.492	133.036	70	61
132.583	132.689	51	36
132.673	132.779	43	36
132.764	132.87	51	33
132.855	132.96	43	38
132.945	133.053	51	33
133.036	133.156	43	37
133.036	133.258	70	62
133.138	133.258	51	31
133.241	133.361	43	38
133.241	133.55	75	58
133.344	133.464	51	29
133.447	133.567	43	34
133.55	133.668	51	30
133.55	133.668	70	62
133.652	133.76	44	46
133.652	133.838	71	64
133.745	133.853	51	39
133.838	133.945	47	42
133.838	134.208	75	64
133.838	134.208	87	64
133.93	134.038	51	37
134.023	134.131	44	48
134.115	134.223	51	37
134.208	134.316	47	41
134.208	134.578	75	63
134.208	134.578	87	63
134.3	134.408	51	37
134.393	134.501	44	49
134.485	134.593	51	38
134.578	134.683	47	42
134.578	134.668	75	61
134.578	134.668	87	61
134.668	134.773	51	38
134.758	134.863	44	51
134.758	134.848	71	63
134.758	134.848	83	63
134.848	134.953	51	39
134.938	135.043	47	44
134.938	135.028	68	64
134.938	135.028	80	64
135.028	135.133	51	39
135.118	135.223	46	55
135.118	135.208	68	67
135.118	135.208	80	67
135.208	135.313	51	40
135.298	135.406	49	46
135.298	135.67	67	68
135.298	135.67	79	68
135.391	135.499	51	40
135.484	135.593	46	56
135.577	135.686	51	42
135.67	135.779	49	48
135.67	136.043	67	73
135.67	136.043	79	73
135.763	135.872	51	48
135.857	135.965	46	58
135.95	136.058	51	42
136.043	136.148	49	49
136.043	136.133	67	75
136.043	136.133	79	75
136.133	136.238	51	42
136.223	136.328	46	59
136.223	136.313	75	77
136.223	136.313	87	77
136.313	136.418	51	50
136.403	136.508	49	53
136.403	136.493	67	79
136.403	136.493	79	79
136.493	136.598	51	50
136.583	136.688	47	61
136.583	136.673	70	81
136.583	136.673	82	81
136.673	136.778	51	51
136.763	136.871	47	56
136.763	137.135	68	82
136.763	137.135	80	82
136.856	136.964	51	51
136.949	137.058	47	62
137.042	137.151	51	52
137.135	137.244	47	57
137.135	137.508	68	86
137.135	137.508	80	86
137.228	137.337	51	52
137.322	137.43	47	67
137.415	137.523	51	55
137.508	137.614	47	59
137.508	137.599	68	89
137.508	137.599	80	89
137.599	137.705	51	53
137.69	137.795	47	68
137.69	137.78	75	92
137.69	137.78	87	92
137.78	137.886	51	56
137.871	137.977	47	61
137.871	137.962	68	93
137.871	137.962	80	93
137.962	138.068	51	56
138.053	138.159	43	70
138.053	138.144	71	94
138.053	138.144	83	94
138.144	138.25	51	62
138.234	138.342	43	67
138.234	138.603	70	96
138.234	138.603	82	96
138.327	138.434	51	61
138.419	138.526	43	71
138.511	138.619	51	63
138.603	138.711	43	68
138.603	138.972	70	100
138.603	138.972	82	100
138.696	138.803	51	62
138.788	138.896	43	74
138.88	138.988	51	64
138.972	139.08	43	70
138.972	139.065	70	100
138.972	139.065	82	100
139.065	139.172	51	63
139.157	139.265	43	74
139.157	139.249	75	100
139.157	139.249	87	100
139.249	139.357	51	64
139.342	139.449	43	71
139.342	139.434	70	100
139.342	139.434	82	100
139.434	139.541	51	63
139.526	139.631	42	78
139.526	140.246	72	103
139.526	140.246	84	103
139.616	139.721	51	68
139.706	139.811	44	72
139.796	139.901	51	66
139.886	139.991	42	78
139.976	140.081	51	67
140.066	140.171	44	72
140.156	140.261	51	67
140.246	140.351	40	78
140.246	140.965	73	103
140.246	140.965	85	103
140.336	140.441	49	69
140.426	140.531	44	73
140.516	140.621	49	67
140.606	140.711	40	78
140.696	140.801	49	66
140.786	140.89	44	72
140.875	141.059	49	72
140.965	141.35	40	78
140.965	141.35	70	88
140.965	141.082	82	88
141.024	141.141	83	82
141.059	141.246	49	67
141.082	141.269	82	88
141.141	141.339	83	82
141.152	141.35	42	72
141.199	141.35	80	88
141.246	141.354	49	64
141.269	141.35	82	83
141.339	141.444	39	78
141.339	142.419	71	103
141.339	142.419	83	103
141.429	141.534	47	66
141.519	141.624	42	73
141.609	141.714	47	66
141.699	141.804	39	78
141.789	141.894	47	66
141.879	141.984	42	72
141.969	142.074	47	66
142.059	142.164	39	78
142.149	142.254	47	64
142.239	142.344	42	71
142.329	142.434	47	71
142.419	142.526	38	78
142.419	143.152	68	103
142.419	143.152	80	103
142.511	142.617	47	67
142.602	142.709	40	74
142.694	142.801	47	64
142.786	142.893	38	78
142.877	142.984	47	67
142.969	143.076	40	74
143.061	143.167	47	66
143.152	143.259	37	78
143.152	143.881	69	102
143.152	143.881	81	102
143.243	143.35	45	67
143.334	143.441	40	73
143.426	143.532	45	66
143.517	143.623	37	78
143.608	143.714	45	67
143.699	143.805	40	73
143.79	144.256	45	67
143.881	144.256	37	78
143.881	144.256	67	86
143.881	143.997	79	86
143.939	144.055	80	81
143.974	144.159	46	66
143.997	144.256	79	86
144.055	144.251	80	81
144.066	144.256	39	71
144.112	144.256	77	88
144.159	144.266	46	66
144.182	144.256	78	82
144.251	144.356	35	78
144.251	145.331	68	103
144.251	145.331	80	103
144.341	144.446	44	67
144.431	144.536	39	72
144.521	144.626	44	66
144.611	144.716	35	78
144.701	144.806	44	66
144.791	144.896	39	72
144.881	144.986	44	64
144.971	145.076	35	78
145.061	145.166	44	66
145.151	145.256	37	72
145.241	145.331	44	64
145.331	146.41	37	78
145.331	146.41	40	78
145.331	146.41	45	78
145.331	146.41	49	78
145.331	146.14	69	103
145.331	146.14	73	103
145.331	146.14	76	103
145.331	146.14	81	103
146.14	146.23	76	57
146.23	146.32	78	58
146.32	146.41	80	60
146.41	146.5	81	61
146.5	146.59	83	62
146.59	146.68	85	63
146.68	146.77	83	61
146.77	147.13	61	59
146.77	147.13	64	59
146.77	147.127	69	59
146.77	146.86	81	58
146.86	146.95	76	56
146.95	147.04	78	57
147.04	147.13	80	57
147.13	147.22	81	58
147.22	147.31	83	59
147.31	147.4	85	60
147.4	147.49	83	59
147.49	147.85	61	58
147.49	147.85	64	58
147.49	147.85	69	58
147.49	147.58	81	57
147.58	147.67	76	58
147.67	147.76	78	59
147.76	147.85	80	59
147.85	147.94	81	60
147.94	148.03	83	61
148.03	148.12	85	61
148.12	148.21	83	58
148.21	148.569	61	58
148.21	148.569	64	58
148.21	148.569	69	58
148.21	148.3	81	56
148.3	148.39	76	57
148.39	148.479	78	60
148.479	148.569	80	61
148.569	148.929	61	62
148.569	148.929	64	62
148.569	148.929	69	62
148.569	148.659	81	64
148.659	148.749	83	67
148.749	148.839	85	68
148.839	148.929	86	71
148.929	149.289	61	71
148.929	149.289	64	71
148.929	149.289	69	71
148.929	149.019	88	72
149.019	149.109	87	70
149.109	149.199	88	68
149.199	149.289	87	67
149.289	149.649	61	66
149.289	149.649	64	66
149.289	149.649	69	66
149.289	149.379	88	64
149.379	149.469	85	62
149.469	149.559	83	61
149.559	149.649	81	59
149.649	149.739	63	58
149.649	150.369	80	57
149.739	149.829	71	51
149.829	149.919	68	58
149.919	150.009	71	58
150.009	150.099	63	60
150.099	150.189	71	52
150.189	150.279	68	56
150.279	150.369	71	51
150.369	150.733	63	60
150.369	150.49	82	59
150.429	150.547	83	59
150.46	150.642	73	52
150.49	150.604	82	59
150.547	150.661	83	59
150.551	150.915	67	57
150.604	150.718	82	59
150.642	150.824	73	52
150.661	150.771	83	59
150.718	150.824	82	59
150.733	151.124	63	60
150.771	150.87	83	57
150.824	151.006	73	53
150.824	150.915	82	58
150.87	150.961	83	59
150.915	151.124	67	57
150.915	151.006	82	60
150.961	151.052	83	61
151.006	151.124	73	53
151.006	151.124	82	61
151.052	151.124	83	62
151.097	151.314	64	67
151.097	151.314	68	67
151.097	151.314	71	67
151.097	151.314	80	67
151.53	152.25	37	90
151.53	152.25	40	90
151.53	152.25	45	90
151.53	152.25	49	90
151.53	151.98	57	90
151.53	151.98	61	90
151.53	151.98	64	90
151.53	151.98	69	90
151.98	152.07	64	57
152.07	152.16	66	58
152.16	152.25	68	59
152.25	152.34	69	61
152.34	152.43	71	61
152.43	152.52	73	62
152.52	152.61	71	60
152.61	152.7	69	57
152.7	152.79	64	57
152.79	152.88	66	57
152.88	152.97	68	58
152.97	153.33	49	58
152.97	153.33	52	58
152.97	153.33	57	58
152.97	153.06	69	59
153.06	153.15	71	59
153.15	153.24	73	60
153.24	153.33	71	60
153.33	153.419	69	57
153.419	153.509	64	57
153.509	153.599	66	57
153.599	153.689	68	59
153.689	154.049	49	58
153.689	154.049	52	58
153.689	154.049	57	58
153.689	153.779	69	60
153.779	153.869	71	61
153.869	153.959	73	61
153.959	154.049	71	59
154.049	154.139	69	58
154.139	154.229	64	59
154.229	154.409	49	60
154.229	154.409	52	60
154.229	154.409	57	60
154.229	154.319	66	60
154.319	154.409	68	61
154.409	154.499	69	62
154.499	154.589	71	63
154.589	154.769	49	72
154.589	154.769	52	72
154.589	154.769	57	72
154.589	154.679	73	66
154.679	154.769	71	67
154.769	154.859	69	68
154.859	154.949	64	69
154.949	155.129	49	80
154.949	155.129	52	80
154.949	155.129	57	80
154.949	155.039	66	70
155.039	155.129	68	71
155.129	155.219	69	73
155.219	155.309	71	74
155.309	155.489	49	80
155.309	155.489	52	80
155.309	155.489	57	80
155.309	155.399	73	74
155.399	155.489	71	75
155.489	155.848	49	79
155.489	155.848	52	79
155.489	155.848	57	79
155.489	155.579	69	78
155.579	155.668	64	79
155.668	155.758	66	80
155.758	155.848	68	80
155.848	155.938	69	83
155.938	156.028	71	84
156.028	156.118	73	85
156.118	156.208	74	86
156.208	156.298	76	88
156.298	156.388	78	89
156.388	156.478	80	90
156.478	156.568	81	91
156.568	156.658	83	93
156.658	156.748	85	93
156.748	156.838	86	94
156.838	156.928	87	95
156.928	157.033	49	83
156.928	157.648	76	99
156.928	157.648	88	99
157.018	157.123	57	72
157.108	157.213	52	78
157.198	157.303	57	73
157.288	157.393	49	83
157.378	157.483	57	72
157.468	157.573	52	77
157.558	157.663	57	73
157.648	157.753	50	83
157.648	158.367	68	99
157.648	158.367	80	99
157.738	157.843	59	72
157.828	157.933	53	78
157.918	158.022	59	73
158.007	158.112	50	83
158.097	158.202	59	70
158.187	158.292	53	75
158.277	158.382	59	72
158.367	158.472	51	83
158.367	159.087	71	99
158.367	159.087	83	99
158.457	158.562	59	72
158.547	158.652	56	78
158.637	158.742	59	73
158.727	158.832	51	83
158.817	158.922	59	73
158.907	159.012	56	78
158.997	159.102	59	72
159.087	159.193	39	83
159.087	159.816	55	84
159.087	159.816	61	84
159.087	159.816	67	99
159.178	159.284	51	73
159.269	159.376	50	79
159.36	159.467	51	73
159.451	159.558	39	83
159.543	159.649	51	74
159.634	159.74	50	79
159.725	159.816	51	73
159.816	159.996	44	84
159.816	159.996	59	84
159.816	159.996	63	84
159.816	159.996	68	99
159.996	160.089	63	60
159.996	160.089	71	60
160.181	160.274	56	51
160.181	160.274	63	60
160.181	160.274	71	60
160.367	160.46	56	51
160.367	160.46	63	60
160.367	160.46	71	60
160.553	160.645	56	51
160.553	160.645	63	60
160.553	160.645	71	60
160.738	160.83	56	51
160.738	160.83	63	60
160.738	160.83	71	60
160.923	161.015	58	48
160.923	161.015	63	58
160.923	161.015	70	58
161.108	161.2	59	47
161.108	161.2	63	56
161.108	161.2	68	56
161.292	161.476	49	56
161.292	161.476	61	56
161.292	161.476	63	70
161.292	161.476	67	70
161.476	161.658	61	50
161.476	161.658	63	50
161.476	161.658	67	58
161.476	161.658	75	58
161.658	161.84	61	49
161.658	161.84	63	49
161.658	161.84	67	58
161.658	161.84	75	58
161.84	162.021	61	49
161.84	162.021	63	49
161.84	162.021	67	59
161.84	162.021	75	59
162.021	162.203	61	49
162.021	162.203	63	49
162.021	162.203	67	60
162.021	162.203	75	60
162.203	162.385	61	49
162.203	162.385	63	49
162.203	162.385	67	60
162.203	162.385	75	60
162.385	162.566	59	49
162.385	162.566	63	49
162.385	162.566	68	61
162.385	162.566	75	61
162.566	162.748	58	51
162.566	162.748	63	51
162.566	162.748	70	63
162.566	162.748	75	63
162.748	162.929	44	56
162.748	162.929	56	56
162.748	162.929	71	69
162.748	162.929	75	69
162.929	163.116	56	50
162.929	163.116	63	59
162.929	163.116	71	59
163.116	163.302	56	50
163.116	163.302	63	59
163.116	163.302	71	59
163.302	163.488	56	50
163.302	163.488	63	59
163.302	163.488	71	59
163.488	163.673	56	51
163.488	163.673	63	59
163.488	163.673	71	59
163.673	163.858	56	50
163.673	163.858	63	59
163.673	163.858	71	59
163.858	164.043	58	49
163.858	164.043	63	57
163.858	164.043	70	57
164.043	164.228	59	47
164.043	164.228	63	56
164.043	164.228	68	56
164.228	164.412	51	56
164.228	164.412	61	56
164.228	164.412	63	69
164.228	164.412	67	69
164.412	164.594	61	49
164.412	164.594	63	49
164.412	164.594	67	58
164.412	164.594	75	58
164.594	164.775	61	51
164.594	164.775	63	51
164.594	164.775	67	58
164.594	164.775	75	58
164.775	164.957	61	50
164.775	164.957	63	50
164.775	164.957	67	60
164.775	164.957	75	60
164.957	165.139	61	50
164.957	165.139	63	50
164.957	165.139	67	58
164.957	165.139	75	58
165.139	165.32	61	50
165.139	165.32	63	50
165.139	165.32	67	58
165.139	165.32	75	58
165.32	165.502	59	51
165.32	165.502	63	51
165.32	165.502	68	60
165.32	165.502	75	60
165.502	165.683	58	53
165.502	165.683	63	53
165.502	165.683	70	61
165.502	165.683	75	61
165.683	165.777	44	57
165.683	165.777	71	66
165.683	165.777	75	66
165.87	165.96	56	47
165.87	165.96	59	47
165.87	165.96	71	59
165.87	165.96	75	59
166.05	166.283	56	47
166.05	166.23	59	47
166.05	166.23	71	59
166.05	166.283	75	59
166.23	166.41	59	46
166.23	166.41	63	46
166.23	166.41	68	58
166.23	166.41	71	58
166.41	166.502	49	56
166.593	166.683	56	51
166.593	166.683	61	51
166.593	166.683	73	59
166.593	166.683	76	59
166.773	167.091	56	51
166.773	166.953	61	51
166.773	166.953	73	59
166.773	167.091	76	59
166.953	167.133	61	49
166.953	167.133	64	49
166.953	167.133	68	58
166.953	167.133	73	58
167.133	167.227	51	56
167.32	167.41	56	49
167.32	167.41	59	49
167.32	167.41	71	56
167.32	167.41	75	56
167.5	167.765	56	50
167.5	167.68	59	50
167.5	167.68	71	56
167.5	167.765	75	56
167.68	167.86	59	50
167.68	167.86	63	50
167.68	167.86	68	58
167.68	167.86	71	58
167.86	167.955	51	56
168.051	168.141	55	47
168.051	168.141	58	47
168.051	168.141	70	58
168.051	168.141	75	58
168.23	168.542	55	47
168.23	168.41	58	47
168.23	168.41	70	56
168.23	168.542	75	56
168.41	168.59	58	47
168.41	168.59	63	47
168.41	168.59	67	56
168.41	168.59	70	56
168.59	168.77	32	50
168.59	168.77	44	50
168.59	168.77	68	58
168.59	168.77	71	58
168.77	168.954	44	49
168.77	168.954	51	49
168.77	168.954	71	61
168.77	168.954	75	61
168.77	168.954	83	61
168.954	169.138	44	51
168.954	169.138	51	51
168.954	169.138	71	66
168.954	169.138	75	66
168.954	169.138	83	66
169.138	169.321	44	56
169.138	169.321	51	56
169.138	169.321	71	69
169.138	169.321	75	69
169.138	169.321	83	69
169.321	169.504	44	59
169.321	169.504	51	59
169.321	169.504	71	73
169.321	169.504	75	73
169.321	169.504	83	73
169.504	169.687	44	62
169.504	169.687	51	62
169.504	169.687	71	78
169.504	169.687	75	78
169.504	169.687	83	78
169.687	169.87	46	68
169.687	169.87	51	68
169.687	169.87	70	81
169.687	169.87	73	81
169.687	169.87	82	81
169.87	170.052	47	70
169.87	170.052	51	70
169.87	170.052	68	85
169.87	170.052	71	85
169.87	170.052	80	85
170.052	170.238	39	74
170.052	170.238	49	74
170.052	170.238	51	74
170.052	170.238	67	89
170.052	170.238	70	89
170.052	170.238	79	89
170.238	170.419	51	73
170.238	170.419	61	73
170.238	170.419	76	90
170.238	170.419	79	90
170.238	170.419	88	90
170.419	170.601	51	78
170.419	170.601	61	78
170.419	170.601	76	97
170.419	170.601	79	97
170.419	170.601	88	97
170.601	170.782	51	73
170.601	170.782	61	73
170.601	170.782	76	93
170.601	170.782	79	93
170.601	170.782	88	93
170.782	170.964	51	78
170.782	170.964	61	78
170.782	170.964	76	97
170.782	170.964	79	97
170.782	170.964	88	97
170.964	171.146	51	74
170.964	171.146	61	74
170.964	171.146	76	94
170.964	171.146	79	94
170.964	171.146	88	94
171.146	171.332	51	78
171.146	171.332	59	78
171.146	171.332	75	96
171.146	171.332	79	96
171.146	171.332	87	96
171.332	171.518	51	74
171.332	171.518	58	74
171.332	171.518	73	94
171.332	171.518	79	94
171.332	171.518	85	94
171.518	172.544	32	79
171.518	171.709	44	79
171.518	171.709	71	97
171.518	172.544	80	97
171.518	171.709	83	97
171.709	171.892	44	49
171.709	171.892	51	49
171.709	171.892	71	58
171.709	171.892	75	58
171.709	171.892	83	58
171.892	172.075	44	52
171.892	172.075	51	52
171.892	172.075	71	62
171.892	172.075	75	62
171.892	172.075	83	62
172.075	172.258	44	57
172.075	172.258	51	57
172.075	172.258	71	68
172.075	172.258	75	68
172.075	172.258	83	68
172.258	172.44	44	61
172.258	172.44	51	61
172.258	172.44	71	72
172.258	172.44	75	72
172.258	172.44	83	72
172.44	172.623	44	66
172.44	172.623	51	66
172.44	172.623	71	78
172.44	172.623	75	78
172.44	172.623	83	78
172.623	172.804	46	69
172.623	172.804	51	69
172.623	172.804	70	82
172.623	172.804	73	82
172.623	172.804	82	82
172.804	172.986	47	73
172.804	172.986	51	73
172.804	172.986	68	86
172.804	172.986	71	86
172.804	172.986	80	86
172.986	173.167	39	78
172.986	173.167	49	78
172.986	173.167	51	78
172.986	173.167	67	92
172.986	173.167	70	92
172.986	173.167	79	92
173.167	173.347	51	73
173.167	173.347	61	73
173.167	173.347	76	92
173.167	173.347	79	92
173.167	173.347	88	92
173.347	173.528	51	79
173.347	173.528	61	79
173.347	173.528	76	97
173.347	173.528	79	97
173.347	173.528	88	97
173.528	173.711	51	74
173.528	173.711	61	74
173.528	173.711	76	92
173.528	173.711	79	92
173.528	173.711	88	92
173.711	173.895	51	79
173.711	173.895	61	79
173.711	173.895	76	97
173.711	173.895	79	97
173.711	173.895	88	97
173.895	174.079	51	74
173.895	174.079	61	74
173.895	174.079	76	93
173.895	174.079	79	93
173.895	174.079	88	93
174.079	174.265	51	79
174.079	174.265	59	79
174.079	174.265	75	95
174.079	174.265	79	95
174.079	174.265	87	95
174.265	174.453	51	74
174.265	174.453	58	74
174.265	174.453	73	93
174.265	174.453	79	93
174.265	174.453	85	93
174.453	174.641	44	80
174.453	174.641	56	80
174.453	174.641	71	97
174.453	174.641	80	97
174.453	174.641	83	97
174.641	174.731	59	51
174.641	174.731	63	51
174.641	174.731	80	59
174.641	174.731	83	59
174.821	175.001	59	49
174.821	175.096	63	49
174.821	175.096	80	59
174.821	175.001	83	59
175.001	175.181	56	47
175.001	175.181	59	47
175.001	175.181	83	57
175.001	175.181	87	57
175.181	175.273	49	57
175.365	175.455	61	50
175.365	175.455	64	50
175.365	175.455	80	58
175.365	175.455	85	58
175.545	175.725	61	50
175.545	175.836	64	50
175.545	175.836	80	58
175.545	175.725	85	58
175.725	175.905	56	47
175.725	175.905	61	47
175.725	175.905	85	56
175.725	175.905	88	56
175.905	175.998	51	57
176.091	176.181	59	50
176.091	176.181	63	50
176.091	176.181	80	58
176.091	176.181	83	58
176.271	176.451	59	50
176.271	176.587	63	50
176.271	176.587	80	58
176.271	176.451	83	58
176.451	176.631	56	47
176.451	176.631	59	47
176.451	176.631	83	56
176.451	176.631	87	56
176.631	176.723	49	58
176.816	176.906	58	50
176.816	176.906	63	50
176.816	176.906	79	60
176.816	176.906	82	60
176.996	177.176	58	50
176.996	177.338	63	50
176.996	177.338	79	60
176.996	177.176	82	60
177.176	177.356	55	47
177.176	177.356	58	47
177.176	177.356	82	56
177.176	177.356	87	56
177.356	177.537	47	53
177.537	177.631	63	47
177.537	177.631	68	47
177.537	177.631	75	66
177.537	177.631	83	66
177.725	177.918	63	49
177.725	178.032	68	49
177.725	178.032	75	61
177.725	178.032	83	61
177.918	178.113	59	49
177.918	178.113	63	49
177.918	178.113	80	61
177.918	178.113	87	61
178.113	178.31	51	59
178.31	178.41	64	56
178.31	178.41	69	56
178.31	178.41	73	73
178.31	178.41	81	73
178.512	178.716	64	54
178.512	178.866	69	54
178.512	178.866	73	67
178.512	178.866	81	67
178.716	178.921	61	54
178.716	178.921	64	54
178.716	178.921	76	66
178.716	178.921	85	66
178.921	179.129	47	62
179.129	179.236	63	57
179.129	179.236	68	57
179.129	179.236	71	68
179.129	179.236	80	68
179.343	179.562	63	57
179.343	179.727	68	57
179.343	179.727	71	68
179.343	179.727	80	68
179.562	179.787	59	53
179.562	179.787	63	53
179.562	179.787	75	61
179.562	179.787	83	61
179.787	180.019	51	60
180.019	180.137	61	51
180.019	180.137	67	51
180.019	180.137	70	62
180.019	180.137	79	62
180.255	180.491	61	51
180.255	180.627	67	51
180.255	180.627	70	61
180.255	180.627	79	61
180.491	180.729	58	42
180.491	180.729	61	42
180.491	180.729	73	50
180.491	180.729	82	50
180.729	180.845	44	49
180.729	181.126	71	59
180.729	181.126	80	59
180.829	180.944	56	38
180.928	181.044	51	43
181.027	181.143	56	39
181.126	181.242	44	49
181.226	181.341	56	39
181.325	181.441	51	43
181.424	181.54	56	39
181.523	181.639	44	49
181.623	181.739	56	39
181.722	181.838	51	44
181.821	181.937	56	39
181.921	182.039	44	49
181.921	182.225	71	59
182.022	182.14	56	39
182.123	182.242	51	44
182.225	182.343	56	39
182.225	182.275	68	59
182.326	182.444	44	49
182.326	182.731	67	68
182.427	182.546	58	39
182.529	182.647	51	45
182.63	182.749	58	39
182.731	182.856	44	49
182.731	183.053	61	56
182.731	183.053	67	56
182.731	183.053	75	56
182.838	182.963	58	39
182.945	183.07	51	44
183.053	183.177	58	40
183.16	183.284	44	49
183.16	183.481	61	56
183.16	183.481	67	56
183.16	183.481	75	56
183.267	183.391	58	40
183.374	183.498	51	45
183.481	183.605	58	39
183.588	183.712	44	49
183.588	183.909	61	59
183.588	183.909	67	59
183.588	183.909	75	59
183.695	183.819	58	39
183.802	183.933	51	43
183.909	184.069	58	39
183.909	184.005	59	59
183.981	184.069	68	59
184.053	184.168	44	49
184.053	185.244	75	68
184.152	184.268	56	38
184.251	184.367	51	44
184.35	184.466	56	38
184.45	184.566	44	49
184.549	184.665	56	39
184.648	184.764	51	45
184.747	184.863	56	40
184.847	184.963	44	49
184.946	185.062	56	40
185.045	185.161	51	45
185.145	185.261	56	39
185.244	185.362	44	49
185.244	185.547	83	69
185.345	185.463	56	39
185.446	185.564	51	43
185.547	185.665	56	40
185.547	185.648	80	69
185.648	185.766	44	49
185.648	186.052	79	79
185.749	185.867	58	39
185.85	185.968	51	43
185.951	186.069	58	39
186.052	186.174	44	49
186.052	186.365	73	68
186.052	186.365	79	68
186.052	186.365	87	68
186.156	186.278	58	39
186.26	186.382	51	43
186.365	186.486	58	39
186.469	186.591	44	49
186.469	186.782	73	68
186.469	186.782	79	68
186.469	186.782	87	68
186.573	186.695	58	39
186.678	186.799	51	43
186.782	186.904	58	39
186.886	187.008	44	49
186.886	187.197	73	68
186.886	187.197	79	68
186.886	187.197	87	68
186.991	187.112	58	40
187.095	187.22	51	46
187.197	187.349	58	40
187.197	187.288	68	56
187.265	187.349	80	62
187.333	187.447	44	49
187.333	188.018	87	86
187.431	187.545	56	39
187.529	187.643	51	43
187.627	187.741	56	39
187.724	187.839	44	50
187.822	187.937	56	39
187.92	188.037	51	42
188.018	188.149	56	39
188.018	188.094	69	51
188.075	188.149	79	61
188.132	188.247	44	49
188.132	188.818	87	85
188.23	188.345	58	40
188.328	188.442	51	44
188.426	188.54	58	40
188.524	188.638	44	49
188.622	188.736	58	39
188.72	188.839	51	45
188.818	188.963	58	39
188.818	188.903	71	48
188.882	188.963	80	59
188.946	189.061	44	49
188.946	189.632	87	85
189.044	189.158	56	39
189.142	189.256	51	43
189.24	189.354	56	39
189.338	189.452	44	49
189.436	189.55	56	40
189.534	189.648	51	43
189.632	189.746	56	39
189.632	189.697	69	53
189.681	189.746	79	62
189.73	189.844	44	49
189.73	190.513	87	84
189.828	189.942	58	40
189.925	190.04	51	44
190.023	190.138	58	40
190.121	190.236	44	49
190.219	190.333	58	41
190.317	190.431	51	44
190.415	190.53	58	41
190.513	190.633	44	50
190.513	190.633	59	58
190.616	190.734	56	49
190.616	190.734	68	59
190.717	190.836	51	50
190.717	190.836	63	60
190.819	190.937	56	47
190.819	190.937	68	56
190.92	191.038	44	51
190.92	191.038	59	62
191.021	191.138	56	52
191.021	191.138	68	63
191.121	191.238	51	53
191.121	191.238	63	64
191.221	191.338	56	50
191.221	191.338	68	62
191.321	191.437	44	56
191.321	191.437	59	68
191.421	191.535	56	57
191.421	191.535	68	68
191.519	191.631	51	57
191.519	191.631	63	69
191.615	191.728	56	52
191.615	191.728	68	64
191.712	191.825	44	60
191.712	191.825	59	72
191.808	191.921	56	61
191.808	191.921	68	73
191.905	192.017	51	62
191.905	192.017	63	74
192.001	192.112	56	56
192.001	192.112	68	68
192.096	192.207	44	63
192.096	192.207	60	78
192.192	192.303	54	66
192.192	192.303	66	79
192.287	192.398	51	67
192.287	192.398	63	80
192.382	192.493	54	62
192.382	192.493	66	75
192.478	192.589	44	68
192.478	192.589	60	82
192.573	192.684	54	69
192.573	192.684	66	83
192.668	192.777	51	71
192.668	192.777	63	84
192.762	192.871	54	68
192.762	192.871	66	80
192.855	192.964	44	73
192.855	192.964	60	86
192.949	193.058	54	74
192.949	193.058	66	88
193.042	193.151	51	75
193.042	193.151	63	89
193.136	193.244	54	70
193.136	193.244	66	83
193.228	193.337	44	77
193.228	193.337	60	92
193.321	193.43	54	79
193.321	193.43	66	93
193.414	193.522	51	79
193.414	193.522	63	93
193.507	193.613	54	71
193.507	193.613	66	86
193.598	193.688	37	68
193.598	193.688	53	68
193.598	193.688	56	68
193.598	193.688	61	95
193.598	193.688	65	95
193.688	193.793	49	60
193.778	193.868	44	40
193.778	193.883	53	61
193.868	193.973	56	62
193.958	194.048	37	43
193.958	194.063	61	64
194.048	194.153	53	58
194.138	194.228	44	41
194.138	194.243	56	59
194.228	194.333	61	61
194.318	194.408	37	43
194.318	194.423	65	61
194.408	194.513	56	57
194.498	194.588	44	41
194.498	194.603	61	59
194.588	194.693	65	61
194.678	194.768	37	42
194.678	194.783	68	62
194.768	194.873	61	58
194.858	194.948	44	39
194.858	194.963	65	59
194.948	195.053	68	61
195.038	195.217	37	50
195.038	195.143	73	61
195.128	195.232	65	58
195.217	195.397	44	47
195.217	195.322	68	60
195.307	195.412	73	61
195.397	195.577	37	51
195.397	195.502	77	64
195.487	195.592	68	58
195.577	195.757	44	47
195.577	195.682	73	60
195.667	195.772	77	61
195.757	195.937	37	51
195.757	195.862	80	63
195.847	195.952	73	59
195.937	196.305	44	47
195.937	196.042	77	61
196.027	196.117	80	62
196.117	196.493	37	79
196.117	196.493	49	79
196.117	196.305	73	81
196.117	196.305	77	81
196.117	196.305	80	96
196.117	196.305	85	96
196.305	196.493	44	67
196.305	196.493	73	68
196.305	196.493	77	68
196.305	196.493	80	80
196.305	196.493	85	80
196.493	196.673	35	80
196.583	196.688	49	61
196.673	196.853	44	51
196.673	196.778	53	62
196.763	196.868	56	64
196.853	197.033	35	56
196.853	196.958	61	67
196.943	197.048	53	61
197.033	197.213	44	52
197.033	197.138	56	63
197.123	197.228	61	64
197.213	197.393	35	57
197.213	197.318	65	67
197.303	197.408	56	61
197.393	197.573	44	51
197.393	197.498	61	63
197.483	197.588	65	66
197.573	197.753	35	57
197.573	197.678	68	68
197.663	197.768	61	61
197.753	197.933	44	52
197.753	197.858	65	63
197.843	197.948	68	66
197.933	198.113	35	57
197.933	198.038	73	68
198.023	198.128	65	63
198.113	198.293	44	52
198.113	198.218	68	66
198.203	198.308	73	68
198.293	198.473	35	57
198.293	198.398	77	68
198.383	198.488	68	62
198.473	198.652	44	52
198.473	198.578	73	64
198.563	198.667	77	67
198.652	198.832	35	57
198.652	198.757	80	69
198.742	198.847	73	62
198.832	199.2	44	52
198.832	198.937	77	67
198.922	199.012	80	70
199.012	199.389	35	79
199.012	199.389	47	79
199.012	199.2	73	81
199.012	199.2	77	81
199.012	199.2	80	96
199.012	199.2	85	96
199.2	199.389	44	67
199.2	199.389	73	70
199.2	199.389	77	70
199.2	199.389	80	84
199.2	199.389	85	84
199.389	199.479	33	81
199.479	199.584	49	73
199.569	199.659	45	61
199.569	199.674	54	74
199.659	199.763	57	77
199.748	199.838	33	65
199.748	199.793	61	79
199.838	199.943	61	74
199.928	200.018	45	61
199.928	200.033	66	77
200.018	200.123	69	79
200.108	200.198	33	65
200.108	200.153	73	81
200.198	200.303	73	74
200.288	200.378	45	61
200.288	200.393	78	77
200.378	200.468	81	80
200.468	200.855	33	87
200.468	200.657	73	88
200.468	200.657	78	88
200.468	200.657	81	104
200.468	200.657	85	104
200.657	200.855	45	73
200.657	200.855	73	75
200.657	200.855	78	75
200.657	200.855	81	89
200.657	200.855	85	89
200.846	200.936	29	66
200.936	201.041	49	73
201.026	201.116	41	62
201.026	201.131	56	74
201.116	201.221	59	78
201.206	201.296	29	63
201.206	201.251	61	80
201.296	201.4	61	73
201.385	201.475	41	61
201.385	201.49	68	75
201.475	201.58	71	79
201.565	201.655	29	63
201.565	201.61	73	81
201.655	201.76	73	73
201.745	201.835	41	59
201.745	201.85	80	75
201.835	201.925	83	79
201.925	202.349	29	86
201.925	202.137	73	91
201.925	202.137	80	91
201.925	202.137	83	108
201.925	202.137	85	108
202.137	202.349	41	79
202.137	202.349	73	79
202.137	202.349	80	79
202.137	202.349	83	93
202.137	202.349	85	93
202.349	202.468	30	81
202.349	202.468	42	81
202.349	202.588	73	84
202.349	202.588	78	84
202.349	202.588	81	99
202.349	202.588	85	99
202.468	202.607	61	35
202.588	202.727	57	41
202.707	202.841	61	35
202.826	202.931	54	49
202.826	203.561	73	80
202.916	203.021	61	33
203.006	203.111	57	37
203.096	203.201	61	34
203.186	203.291	54	45
203.276	203.381	61	34
203.366	203.471	57	38
203.456	203.561	61	35
203.546	203.651	54	45
203.546	203.85	69	61
203.636	203.741	61	35
203.726	203.85	57	38
203.816	204.036	61	34
203.816	203.918	66	61
203.918	203.952	65	49
203.952	203.986	66	49
203.986	204.02	68	49
204.02	204.131	56	44
204.02	204.414	66	73
204.115	204.225	61	33
204.21	204.32	59	37
204.304	204.414	61	31
204.399	204.504	56	46
204.399	204.939	65	61
204.489	204.594	61	35
204.579	204.684	59	40
204.669	204.774	61	36
204.759	204.864	56	44
204.849	204.955	61	35
204.939	205.055	59	38
204.939	205.155	65	61
205.038	205.155	61	35
205.138	205.254	56	44
205.138	205.437	73	67
205.238	205.354	61	37
205.337	205.453	59	40
205.437	205.553	61	37
205.437	205.536	65	61
205.536	205.65	57	44
205.536	205.94	68	60
205.634	205.747	61	36
205.731	205.844	57	40
205.828	205.94	61	35
205.925	206.031	57	45
205.925	206.469	66	61
206.016	206.122	61	37
206.106	206.212	57	40
206.197	206.303	61	36
206.287	206.393	57	44
206.378	206.485	61	35
206.469	206.585	57	39
206.469	206.684	66	62
206.568	206.684	61	35
206.668	206.784	57	45
206.668	206.983	73	67
206.767	206.884	61	36
206.867	206.983	57	39
206.967	207.082	61	35
206.967	207.082	66	61
207.066	207.179	53	47
207.066	207.469	69	58
207.163	207.276	61	35
207.26	207.373	53	38
207.357	207.469	61	35
207.454	207.559	53	45
207.454	207.994	68	62
207.544	207.649	61	36
207.634	207.739	53	39
207.724	207.829	61	35
207.814	207.919	53	44
207.904	208.009	61	35
207.994	208.103	53	40
207.994	208.197	68	62
208.087	208.197	61	37
208.181	208.295	53	44
208.181	208.473	73	69
208.278	208.392	61	35
208.376	208.489	53	38
208.473	208.587	61	34
208.473	208.57	68	61
208.57	208.778	54	49
208.57	208.691	69	47
208.674	208.795	73	37
208.778	208.899	69	41
208.882	209.002	73	36
208.986	209.733	61	66
208.986	209.096	66	47
209.08	209.19	73	37
209.175	209.284	69	40
209.269	209.378	73	37
209.362	209.471	66	47
209.456	209.564	73	38
209.549	209.657	69	41
209.641	209.75	73	36
209.733	210.028	57	57
209.733	209.848	66	47
209.832	209.946	73	38
209.93	210.045	69	41
210.028	210.126	54	57
210.028	210.143	73	37
210.126	210.519	54	64
210.126	210.241	68	47
210.225	210.339	73	38
210.323	210.438	71	41
210.421	210.534	73	38
210.519	211.063	53	56
210.519	210.625	68	47
210.61	210.716	73	37
210.7	210.806	71	41
210.791	210.897	73	37
210.881	210.987	68	47
210.972	211.078	73	37
211.063	211.244	53	56
211.063	211.168	71	41
211.153	211.26	73	37
211.244	211.538	61	67
211.244	211.358	68	47
211.342	211.456	73	37
211.44	211.555	71	41
211.538	211.637	53	56
211.538	211.653	73	37
211.637	212.041	56	51
211.637	211.754	66	47
211.738	211.855	73	37
211.839	211.956	69	40
211.94	212.056	73	36
212.041	212.584	54	56
212.041	212.146	66	47
212.131	212.237	73	37
212.222	212.327	69	40
212.312	212.418	73	37
212.403	212.508	66	47
212.493	212.601	73	37
212.584	212.791	54	57
212.584	212.705	69	40
212.687	212.808	73	37
212.791	213.101	61	63
212.791	212.912	66	47
212.894	213.015	73	38
212.998	213.119	69	41
213.101	213.205	54	56
213.101	213.221	73	38
213.205	213.296	54	64
213.205	213.312	66	47
213.296	213.402	74	37
213.387	213.568	54	58
213.387	213.493	69	41
213.477	213.583	74	38
213.568	213.84	62	63
213.568	213.674	66	53
213.659	213.764	74	37
213.749	213.855	69	41
213.84	213.93	54	69
213.84	213.945	74	41
213.93	214.021	54	69
213.93	214.036	69	57
214.021	214.126	74	40
214.111	214.292	54	72
214.111	214.217	72	45
214.202	214.307	74	40
214.292	214.564	62	73
214.292	214.398	69	63
214.383	214.488	74	40
214.473	214.579	72	47
214.564	214.654	54	73
214.564	214.673	74	41
214.654	214.874	55	78
214.654	214.782	67	63
214.764	214.892	74	38
214.874	215.002	71	41
214.984	215.109	74	38
215.094	215.818	50	57
215.094	215.199	67	47
215.184	215.29	74	39
215.275	215.38	71	42
215.365	215.471	74	37
215.456	215.561	67	47
215.546	215.652	74	38
215.637	215.742	71	41
215.727	215.835	74	37
215.818	216.12	47	57
215.818	215.935	67	47
215.919	216.036	74	38
216.019	216.137	71	41
216.12	216.221	43	57
216.12	216.237	74	38
216.221	216.623	43	68
216.221	216.338	69	47
216.321	216.439	74	38
216.422	216.539	72	42
216.522	216.638	74	38
216.623	217.166	42	57
216.623	216.729	69	47
216.714	216.819	74	37
216.804	216.91	72	41
216.895	217.0	74	37
216.985	217.091	69	47
217.076	217.181	74	36
217.166	217.347	42	57
217.166	217.272	72	41
217.257	217.363	74	36
217.347	217.633	50	61
217.347	217.459	69	47
217.443	217.554	74	37
217.538	217.654	72	41
217.633	217.755	42	56
217.633	217.771	74	37
217.755	218.136	45	78
217.755	217.866	67	47
217.85	217.961	74	38
217.945	218.057	71	41
218.041	218.151	74	37
218.136	218.679	43	68
218.136	218.242	67	48
218.227	218.332	74	38
218.317	218.423	71	42
218.408	218.513	74	38
218.498	218.604	67	49
218.589	218.694	74	38
218.679	218.86	43	70
218.679	218.785	71	42
218.77	218.878	74	38
218.86	219.187	50	70
218.86	218.987	67	49
218.969	219.096	74	41
219.078	219.206	71	44
219.187	219.296	42	68
219.187	219.312	74	38
219.296	219.683	42	86
219.296	219.409	68	51
219.393	219.506	74	40
219.49	219.602	71	45
219.586	219.698	74	40
219.683	220.226	41	74
219.683	219.788	68	52
219.773	219.879	73	40
219.864	219.969	71	46
219.954	220.06	73	40
220.045	220.15	68	53
220.135	220.241	73	41
220.226	220.407	41	74
220.226	220.331	71	49
220.316	220.422	73	41
220.407	220.679	49	74
220.407	220.513	68	55
220.497	220.603	73	44
220.588	220.694	71	49
220.679	220.769	41	74
220.679	220.784	73	42
220.769	220.86	42	89
220.769	220.875	66	68
220.86	220.966	73	52
220.95	221.136	42	79
220.95	221.058	69	56
221.043	221.151	73	51
221.136	221.322	45	79
221.136	221.244	66	67
221.229	221.337	73	52
221.322	221.507	42	72
221.322	221.43	69	56
221.414	221.522	73	52
221.507	221.598	38	89
221.507	221.613	66	67
221.598	221.704	78	51
221.688	221.875	38	80
221.688	221.797	69	55
221.781	221.89	78	50
221.875	222.061	42	79
221.875	221.983	66	64
221.968	222.076	78	53
222.061	222.247	38	74
222.061	222.17	69	56
222.154	222.262	78	51
222.247	223.062	36	90
222.247	222.353	66	73
222.338	222.443	78	49
222.428	222.534	68	56
222.428	222.534	75	56
222.519	222.624	78	50
222.609	222.715	66	70
222.7	222.806	78	51
222.79	222.896	68	56
222.79	222.896	75	56
222.881	222.987	78	52
222.971	223.077	66	69
223.062	223.168	78	53
223.153	223.334	36	81
223.153	223.258	68	56
223.153	223.258	75	56
223.243	223.349	78	50
223.334	223.515	39	81
223.334	223.439	66	69
223.424	223.53	78	51
223.515	223.696	36	77
223.515	223.62	68	56
223.515	223.62	75	56
223.605	223.711	78	50
223.696	223.786	37	87
223.696	223.801	64	77
223.786	223.892	76	62
223.877	224.058	37	81
223.877	223.982	73	67
223.967	224.073	76	62
224.058	224.242	40	81
224.058	224.165	64	77
224.15	224.258	76	62
224.242	224.427	37	77
224.242	224.35	73	66
224.335	224.442	76	61
224.427	224.519	33	90
224.427	224.534	64	77
224.519	224.627	76	63
224.611	224.796	33	81
224.611	224.719	73	68
224.704	224.811	76	61
224.796	224.98	37	80
224.796	224.904	64	77
224.888	224.996	76	63
224.98	225.165	33	79
224.98	225.088	73	68
225.073	225.18	76	62
225.165	225.257	30	89
225.165	225.273	63	77
225.257	225.365	75	63
225.35	225.534	30	81
225.35	225.457	73	69
225.442	225.55	75	62
225.534	225.722	33	81
225.534	225.643	63	77
225.628	225.737	75	61
225.722	225.909	30	79
225.722	225.831	73	68
225.815	225.925	75	62
225.909	226.003	31	91
225.909	226.018	63	77
226.003	226.112	75	61
226.097	226.284	31	79
226.097	226.206	73	66
226.19	226.3	75	61
226.284	226.473	34	79
226.284	226.394	63	77
226.378	226.488	75	61
226.473	226.665	31	79
226.473	226.584	73	67
226.568	226.665	75	60
226.665	226.779	32	47
226.665	226.861	63	80
226.665	226.861	72	92
226.665	226.861	75	95
226.762	226.878	44	39
226.861	226.977	32	47
226.961	227.077	44	37
227.061	227.17	32	47
227.061	227.807	68	64
227.154	227.263	44	38
227.248	227.356	32	47
227.341	227.449	44	38
227.434	227.543	32	47
227.527	227.636	44	41
227.62	227.729	32	47
227.713	227.823	44	40
227.807	227.919	32	47
227.807	227.999	69	60
227.903	228.015	44	38
227.999	228.112	32	47
227.999	228.192	68	60
228.095	228.209	44	40
228.192	228.306	32	46
228.192	228.974	57	59
228.192	228.974	61	59
228.192	228.583	66	70
228.29	228.404	44	39
228.387	228.501	32	46
228.485	228.599	44	38
228.583	228.696	32	46
228.583	228.777	68	58
228.68	228.794	44	39
228.777	228.892	32	46
228.777	228.974	66	58
228.875	228.99	44	39
228.974	229.089	32	46
228.974	229.764	56	59
228.974	229.764	59	59
228.974	229.371	64	70
229.072	229.188	44	39
229.171	229.288	32	46
229.271	229.387	44	40
229.371	229.486	32	46
229.371	229.567	66	57
229.469	229.584	44	39
229.567	229.682	32	46
229.567	229.764	64	57
229.666	229.78	44	38
229.764	229.879	32	46
229.764	230.549	54	58
229.764	230.549	57	58
229.764	230.157	63	69
229.862	229.977	44	39
229.96	230.075	32	46
230.059	230.173	44	39
230.157	230.27	32	47
230.157	230.351	64	56
230.254	230.368	44	39
230.351	230.466	32	47
230.351	230.549	63	56
230.45	230.565	44	39
230.549	230.665	32	47
230.549	231.341	52	58
230.549	231.341	56	58
230.549	230.95	61	69
230.648	230.765	44	39
230.748	230.866	32	47
230.849	230.967	44	39
230.95	231.064	32	47
230.95	231.145	63	60
231.048	231.162	44	39
231.145	231.259	32	47
231.145	231.341	61	60
231.243	231.357	44	40
231.341	231.454	32	47
231.341	232.121	51	58
231.341	232.121	54	58
231.341	232.121	60	69
231.438	231.552	44	40
231.536	231.65	32	47
231.633	231.747	44	39
231.731	231.845	32	47
231.829	231.942	44	40
231.926	232.04	32	47
232.024	232.138	44	41
232.121	232.235	32	47
232.121	232.902	49	57
232.121	232.902	52	57
232.121	232.902	61	68
232.219	232.333	44	40
232.316	232.43	32	47
232.414	232.528	44	38
232.512	232.625	32	44
232.609	232.723	44	39
232.707	232.821	32	44
232.804	232.918	44	37
232.902	233.016	32	44
232.902	232.951	48	57
232.951	232.999	56	57
232.999	233.113	44	39
232.999	233.26	63	69
233.097	233.211	32	44
233.195	233.308	44	38
233.292	233.401	32	44
233.292	233.853	80	75
233.386	233.495	44	38
233.479	233.588	32	44
233.573	233.682	44	39
233.666	233.775	32	47
233.76	233.869	44	40
233.853	233.962	32	48
233.853	233.946	80	79
233.946	234.055	44	41
234.039	234.148	32	49
234.039	234.132	81	80
234.132	234.241	44	44
234.226	234.334	32	49
234.226	234.319	80	78
234.319	234.427	44	45
234.412	234.52	32	51
234.412	234.505	78	81
234.505	234.613	44	45
234.597	234.706	32	52
234.597	234.69	69	67
234.597	234.69	73	67
234.597	234.69	78	67
234.69	234.799	44	47
234.783	234.891	32	53
234.783	234.876	71	68
234.783	234.876	75	68
234.783	234.876	80	68
234.876	234.984	44	48
234.968	235.076	32	55
234.968	235.061	69	68
234.968	235.061	73	68
234.968	235.061	78	68
235.061	235.169	44	49
235.154	235.261	32	56
235.154	235.246	68	70
235.154	235.246	71	70
235.154	235.246	76	70
235.246	235.354	44	49
235.339	235.446	32	57
235.339	235.431	68	71
235.339	235.431	71	71
235.339	235.431	76	71
235.431	235.539	44	51
235.523	235.631	32	58
235.523	235.615	69	72
235.523	235.615	73	72
235.523	235.615	78	72
235.615	235.723	44	52
235.708	235.815	32	59
235.708	235.8	68	74
235.708	235.8	71	74
235.708	235.8	76	74
235.8	235.907	44	53
235.892	235.999	32	61
235.892	235.984	66	74
235.892	235.984	69	74
235.892	235.984	75	74
235.984	236.091	44	55
236.076	236.183	32	61
236.076	236.168	66	75
236.076	236.168	69	75
236.076	236.168	75	75
236.168	236.275	44	56
236.26	236.367	32	63
236.26	236.352	68	78
236.26	236.352	71	78
236.26	236.352	76	78
236.352	236.459	44	59
236.444	236.551	32	64
236.444	236.536	66	79
236.444	236.536	69	79
236.444	236.536	75	79
236.536	236.643	44	60
236.628	236.735	32	64
236.628	236.72	64	80
236.628	236.72	68	80
236.628	236.72	73	80
236.72	236.827	44	61
236.812	236.919	32	58
236.812	236.904	64	81
236.812	236.904	68	81
236.812	236.904	73	81
236.904	237.011	44	56
236.996	237.103	32	52
236.996	237.088	66	71
236.996	237.088	69	71
236.996	237.088	75	71
237.088	237.195	44	42
237.18	237.287	32	47
237.18	237.272	64	64
237.18	237.272	68	64
237.18	237.272	73	64
237.272	237.379	44	41
237.364	237.474	32	46
237.364	238.119	63	57
237.364	238.119	66	57
237.364	238.119	72	57
237.458	237.568	44	39
237.552	237.663	32	44
237.647	237.757	44	42
237.741	237.851	32	44
237.836	237.946	44	38
237.93	238.04	32	44
238.024	238.135	44	39
238.119	238.229	32	46
238.119	238.779	61	67
238.119	238.779	64	67
238.119	238.779	73	67
238.213	238.323	44	40
238.308	238.418	32	46
238.402	238.512	44	42
238.496	238.606	32	49
238.591	238.701	44	46
238.685	238.798	32	53
238.779	238.905	44	49
238.779	238.834	60	58
238.834	238.889	66	70
238.889	238.999	32	55
238.889	240.018	66	95
238.889	240.018	75	95
238.983	239.093	44	50
239.078	239.187	32	58
239.172	239.281	44	52
239.266	239.375	32	60
239.36	239.47	44	53
239.454	239.564	32	60
239.548	239.658	44	52
239.642	239.752	32	53
239.736	239.846	44	49
239.83	239.94	32	49
239.924	240.034	44	44
240.018	240.128	32	49
240.018	240.395	64	69
240.018	240.395	68	69
240.018	240.395	73	69
240.112	240.222	44	42
240.206	240.316	32	46
240.301	240.41	44	39
240.395	240.504	32	44
240.395	240.583	63	56
240.395	240.583	66	56
240.395	240.583	72	56
240.489	240.598	44	40
240.583	240.693	32	44
240.677	240.787	44	38
240.771	240.88	32	44
240.771	240.959	63	63
240.771	240.959	66	63
240.771	240.959	72	63
240.865	240.974	44	39
240.959	241.069	32	44
241.054	241.165	44	42
241.149	241.262	32	42
241.149	241.343	61	74
241.149	241.343	64	74
241.149	241.343	73	74
241.246	241.359	44	40
241.343	241.457	32	49
241.441	241.557	44	44
241.54	241.657	32	51
241.54	241.742	61	80
241.54	241.742	64	80
241.54	241.742	73	80
241.641	241.759	44	47
241.742	241.974	32	56
241.844	242.077	44	50
241.844	242.316	60	61
241.909	241.974	66	70
241.974	242.179	32	56
241.974	243.199	66	95
241.974	243.199	75	95
242.077	242.281	44	51
242.179	242.316	32	61
242.281	242.4	44	56
242.383	242.587	32	66
242.485	242.671	44	57
242.587	242.706	32	64
242.689	242.808	44	56
242.791	242.995	32	58
242.893	243.097	44	53
242.995	243.133	32	58
243.097	243.216	44	49
243.199	243.404	32	53
243.199	243.553	61	48
243.199	243.553	64	57
243.302	243.506	44	47
243.404	243.553	32	49
243.404	243.608	73	51
243.506	243.625	44	42
243.608	243.812	32	48
243.608	243.974	63	51
243.608	243.974	66	61
243.71	243.914	44	40
243.812	243.974	32	46
243.812	244.016	72	56
243.914	244.033	44	41
244.016	244.22	32	46
244.016	244.364	63	57
244.016	244.364	66	68
244.118	244.322	44	41
244.22	244.364	32	49
244.22	244.425	72	63
244.322	244.442	44	46
244.425	244.629	32	53
244.425	244.833	61	68
244.425	244.833	64	80
244.527	244.731	44	46
244.629	244.833	32	53
244.629	244.845	73	68
244.731	244.85	44	48
244.833	245.037	32	56
244.833	245.163	61	71
244.833	245.163	64	84
244.935	245.139	44	51
245.037	245.163	32	61
245.037	245.241	73	77
245.139	245.258	44	53
245.241	245.445	32	66
245.241	245.614	60	80
245.241	245.614	66	95
245.343	245.547	44	60
245.445	245.614	32	66
245.445	245.65	75	82
245.547	245.667	44	58
245.65	245.857	32	60
245.65	246.005	60	73
245.65	246.005	66	86
245.752	245.963	44	51
245.857	246.005	32	56
245.857	246.989	75	69
245.963	246.989	44	48
246.07	246.289	33	52
246.07	246.515	61	63
246.07	246.515	64	75
246.179	246.401	45	45
246.289	246.515	33	49
246.289	246.745	73	61
246.401	246.63	45	42
246.515	246.745	33	47
246.515	246.981	61	57
246.515	246.989	64	68
246.63	246.862	45	40
246.745	246.989	33	46
246.745	246.989	73	63
246.862	247.001	45	41
246.981	248.885	30	39
246.981	248.885	42	46
246.981	248.885	57	47
246.981	248.885	61	47
246.981	248.885	63	56
246.981	248.885	69	56
248.885	250.788	32	32
248.885	250.788	44	38
248.885	250.788	56	31
248.885	250.788	60	31
248.885	250.788	63	37
248.885	250.788	68	37
250.788	250.878	37	74
250.878	250.968	44	56
250.968	251.058	44	48
250.968	251.073	49	57
251.058	251.163	52	59
251.148	251.238	37	51
251.148	251.253	56	61
251.238	251.343	49	61
251.328	251.418	44	47
251.328	251.433	52	58
251.418	251.523	56	60
251.508	251.598	37	49
251.508	251.613	61	61
251.598	251.703	52	56
251.688	251.778	44	46
251.688	251.793	56	57
251.778	251.882	61	59
251.867	251.957	37	50
251.867	251.972	64	61
251.957	252.062	56	57
252.047	252.137	44	46
252.047	252.152	61	58
252.137	252.242	64	61
252.227	252.317	37	51
252.227	252.332	68	63
252.317	252.422	61	56
252.407	252.497	44	48
252.407	252.512	64	58
252.497	252.602	68	60
252.587	252.677	37	51
252.587	252.692	73	62
252.677	252.782	64	61
252.767	252.857	44	48
252.767	252.872	68	59
252.857	252.962	73	61
252.947	253.037	37	49
252.947	253.052	76	63
253.037	253.142	68	61
253.127	253.217	44	45
253.127	253.232	73	61
253.217	253.307	76	66
253.307	253.691	37	82
253.307	253.691	49	82
253.307	253.494	68	82
253.307	253.494	73	82
253.307	253.494	76	97
253.307	253.494	80	97
253.494	253.691	44	70
253.494	253.691	68	70
253.494	253.691	73	70
253.494	253.691	76	82
253.494	253.691	80	82
253.682	253.772	36	49
253.772	253.862	44	56
253.862	253.952	44	45
253.862	253.967	48	58
253.952	254.057	51	60
254.042	254.132	36	49
254.042	254.147	56	61
254.132	254.237	48	57
254.222	254.312	44	45
254.222	254.327	51	59
254.312	254.417	56	61
254.402	254.492	36	48
254.402	254.507	60	62
254.492	254.596	51	60
254.581	254.671	44	44
254.581	254.686	56	60
254.671	254.776	60	61
254.761	254.851	36	48
254.761	254.866	63	62
254.851	254.956	56	56
254.941	255.031	44	43
254.941	255.046	60	59
255.031	255.136	63	61
255.121	255.211	36	48
255.121	255.226	68	63
255.211	255.316	60	58
255.301	255.391	44	43
255.301	255.406	63	59
255.391	255.496	68	61
255.481	255.571	36	48
255.481	255.586	72	62
255.571	255.676	63	60
255.661	255.751	44	43
255.661	255.766	68	59
255.751	255.856	72	61
255.841	255.931	36	48
255.841	255.946	75	62
255.931	256.036	68	58
256.021	256.111	44	43
256.021	256.126	72	61
256.111	256.201	75	63
256.201	256.577	36	82
256.201	256.577	48	82
256.201	256.389	68	82
256.201	256.389	72	82
256.201	256.389	75	97
256.201	256.389	80	97
256.389	256.577	44	68
256.389	256.577	68	69
256.389	256.577	72	69
256.389	256.577	75	81
256.389	256.577	80	81
256.577	256.667	35	65
256.667	256.772	49	74
256.757	256.847	44	60
256.757	256.862	53	77
256.847	256.952	56	79
256.937	257.027	35	67
256.937	257.042	61	80
257.027	257.132	52	77
257.117	257.207	44	62
257.117	257.222	56	79
257.207	257.312	61	80
257.297	257.387	35	67
257.297	257.402	65	82
257.387	257.492	56	78
257.477	257.567	44	62
257.477	257.582	61	80
257.567	257.672	65	82
257.657	257.747	35	67
257.657	257.762	68	84
257.747	257.852	61	78
257.837	257.927	44	61
257.837	257.942	65	80
257.927	258.031	68	80
258.016	258.106	35	67
258.016	258.121	73	82
258.106	258.211	65	78
258.196	258.286	44	61
258.196	258.301	68	80
258.286	258.391	73	81
258.376	258.466	35	67
258.376	258.481	77	83
258.466	258.571	68	75
258.556	258.646	44	62
258.556	258.661	73	78
258.646	258.751	77	80
258.736	258.826	35	67
258.736	258.841	80	81
258.826	258.931	73	78
258.916	259.006	44	62
258.916	259.021	77	80
259.006	259.096	80	83
259.096	259.47	35	88
259.096	259.47	47	88
259.096	259.283	73	90
259.096	259.283	77	90
259.096	259.283	80	106
259.096	259.283	85	106
259.283	259.47	44	76
259.283	259.47	73	79
259.283	259.47	77	79
259.283	259.47	80	93
259.283	259.47	85	93
259.47	259.56	33	59
259.56	259.665	49	72
259.65	259.74	45	61
259.65	259.755	54	75
259.74	259.845	57	74
259.83	259.92	33	68
259.83	259.875	61	82
259.92	260.025	61	85
260.01	260.1	45	73
260.01	260.115	66	90
260.1	260.205	69	90
260.19	260.28	33	79
260.19	260.235	73	97
260.28	260.384	73	100
260.369	260.459	45	79
260.369	260.474	78	103
260.459	260.915	81	99
260.549	260.915	33	89
260.549	260.732	73	89
260.549	260.732	78	105
260.549	260.732	85	105
260.732	260.915	45	88
260.732	260.915	73	88
260.732	260.915	78	104
260.732	260.915	85	104
260.915	261.005	33	79
261.005	261.11	49	89
261.095	261.185	45	74
261.095	261.2	52	91
261.185	261.29	55	89
261.275	261.365	33	79
261.275	261.32	61	95
261.365	261.47	61	91
261.455	261.545	45	75
261.455	261.56	64	94
261.545	261.65	67	91
261.635	261.725	33	79
261.635	261.68	73	96
261.725	261.83	73	95
261.815	261.905	45	76
261.815	261.92	76	96
261.905	261.994	79	94
261.994	262.413	33	94
261.994	262.204	73	94
261.994	262.204	79	111
261.994	262.204	85	111
262.204	262.413	45	94
262.204	262.413	73	94
262.204	262.413	79	111
262.204	262.413	85	111
262.413	262.623	32	79
262.413	262.623	44	79
262.413	262.623	72	94
262.413	262.623	80	111
262.413	262.623	84	111
262.623	265.381	56	74
262.623	262.805	60	74
262.623	262.805	68	88
262.714	262.896	80	69
262.805	262.987	60	73
262.805	262.965	68	89
262.896	262.987	80	71
262.987	263.169	61	74
262.987	263.152	70	90
263.078	263.169	80	71
263.169	263.356	63	76
263.169	263.356	72	90
263.26	263.356	80	72
263.351	263.534	64	78
263.351	263.529	73	92
263.442	263.534	80	73
263.534	263.876	66	79
263.534	263.876	75	93
263.625	263.807	80	73
263.716	263.898	63	80
263.716	263.876	72	94
263.807	263.898	80	73
263.898	264.111	66	82
263.898	264.111	75	95
263.991	264.111	80	74
264.085	264.276	64	84
264.085	264.276	73	95
264.178	264.276	80	74
264.272	264.459	69	85
264.272	264.428	78	99
264.365	264.459	80	74
264.459	264.65	68	84
264.459	264.65	76	95
264.552	264.65	80	74
264.645	264.831	66	82
264.645	264.831	75	95
264.738	264.831	80	74
264.831	265.017	64	80
264.831	264.994	73	93
264.924	265.017	80	74
265.017	265.197	63	79
265.017	265.18	72	93
265.107	265.197	80	73
265.197	265.381	61	78
265.197	265.351	69	91
265.289	265.381	79	72
265.381	268.332	56	76
265.381	265.565	60	76
265.381	265.565	68	90
265.473	265.657	80	71
265.565	265.749	60	75
265.565	265.749	68	89
265.657	265.841	80	70
265.749	265.932	60	73
265.749	265.91	68	88
265.841	265.932	80	70
265.932	266.133	61	71
265.932	266.133	70	88
266.024	266.133	80	72
266.115	266.32	63	73
266.115	266.32	72	90
266.207	266.32	80	70
266.298	266.489	64	74
266.298	266.489	73	90
266.389	266.489	80	74
266.481	266.811	66	77
266.481	266.811	75	91
266.572	266.755	80	72
266.663	266.846	63	79
266.663	266.811	72	93
266.755	266.846	80	73
266.846	267.055	66	80
266.846	267.055	75	94
266.942	267.055	80	74
267.037	267.235	64	80
267.037	267.235	73	95
267.132	267.235	80	77
267.227	267.42	69	80
267.227	267.42	78	99
267.319	267.42	80	80
267.412	267.601	68	79
267.412	267.601	76	99
267.504	267.601	80	79
267.597	267.786	66	79
267.597	267.786	75	99
267.689	267.786	80	79
267.781	267.965	64	79
267.781	267.939	73	99
267.873	267.965	80	78
267.965	268.149	63	79
267.965	268.126	72	99
268.057	268.149	80	79
268.149	268.332	61	79
268.149	268.306	69	99
268.24	268.332	79	78
268.332	268.445	56	84
268.332	268.445	60	84
268.332	268.445	68	99
268.423	268.515	80	78
268.515	268.607	56	73
268.515	268.607	61	73
268.515	268.607	69	94
268.607	268.699	79	79
268.699	268.809	56	80
268.699	268.809	60	80
268.699	268.809	68	99
268.791	268.884	80	78
268.884	268.985	56	73
268.884	268.985	61	73
268.884	268.985	69	94
268.977	269.07	79	79
269.07	269.181	56	84
269.07	269.181	60	84
269.07	269.181	68	99
269.163	269.257	80	78
269.257	269.369	56	73
269.257	269.369	61	73
269.257	269.369	69	93
269.351	269.446	79	77
269.446	269.559	56	79
269.446	269.559	60	79
269.446	269.559	68	99
269.54	269.635	80	78
269.635	269.731	56	72
269.635	269.731	61	72
269.635	269.731	69	93
269.731	269.826	79	77
269.826	270.143	56	84
269.826	270.143	60	84
269.826	270.143	68	99
269.826	270.143	80	99
270.318	271.795	32	79
270.318	271.795	44	93
270.318	271.795	56	117
271.795	271.915	49	47
271.897	272.017	56	35
272.0	272.12	52	40
272.103	272.222	56	35
272.206	272.312	49	47
272.206	272.962	68	67
272.297	272.403	56	35
272.388	272.493	52	40
272.478	272.584	56	36
272.569	272.674	49	47
272.659	272.766	56	36
272.75	272.864	52	41
272.847	272.962	56	36
272.945	273.065	49	47
272.945	273.277	64	56
273.048	273.168	56	36
273.151	273.277	52	41
273.253	273.412	56	36
273.253	273.325	61	56
273.325	273.348	60	44
273.348	273.372	61	44
273.372	273.396	63	44
273.396	273.509	51	47
273.396	273.8	61	63
273.493	273.607	56	36
273.59	273.704	54	41
273.688	273.8	56	36
273.785	273.891	51	47
273.785	274.328	60	56
273.875	273.981	56	37
273.966	274.072	54	41
274.057	274.162	56	41
274.147	274.253	51	47
274.238	274.345	56	36
274.328	274.444	54	41
274.328	274.545	60	56
274.428	274.545	56	35
274.527	274.648	51	47
274.527	274.838	68	67
274.631	274.752	56	35
274.734	274.855	54	41
274.838	274.958	56	35
274.838	274.89	60	57
274.942	275.055	52	47
274.942	275.344	63	51
275.038	275.151	56	38
275.135	275.248	52	42
275.232	275.344	56	37
275.329	275.434	52	46
275.329	275.869	61	56
275.419	275.524	56	37
275.509	275.614	52	40
275.599	275.704	56	35
275.689	275.794	52	47
275.779	275.885	56	37
275.869	275.981	52	42
275.869	276.079	61	53
275.965	276.079	56	37
276.061	276.181	52	46
276.061	276.37	68	68
276.164	276.284	56	37
276.267	276.387	52	41
276.37	276.489	56	41
276.37	276.489	61	56
276.473	276.586	48	46
276.473	276.875	64	57
276.57	276.683	56	37
276.666	276.78	48	41
276.763	276.875	56	38
276.86	276.966	48	46
276.86	277.403	63	56
276.951	277.056	56	38
277.041	277.147	48	42
277.132	277.237	56	37
277.222	277.328	48	46
277.313	277.421	56	39
277.403	277.523	48	44
277.403	277.626	63	57
277.506	277.626	56	39
277.609	277.729	48	46
277.609	277.935	68	53
277.712	277.832	56	36
277.815	277.935	48	40
277.917	278.036	56	34
277.917	278.02	63	57
278.02	278.128	49	46
278.02	278.113	64	61
278.113	278.221	56	38
278.205	278.313	52	42
278.205	278.576	68	52
278.205	278.576	80	63
278.298	278.406	56	37
278.391	278.498	49	48
278.483	278.591	56	37
278.576	278.684	52	41
278.576	278.946	68	49
278.576	278.946	80	58
278.668	278.776	56	37
278.761	278.869	49	49
278.853	278.961	56	37
278.946	279.051	52	42
278.946	279.036	68	51
278.946	279.036	80	61
279.036	279.141	56	37
279.126	279.231	49	51
279.126	279.216	64	53
279.126	279.216	76	63
279.216	279.321	56	40
279.306	279.411	52	44
279.306	279.396	61	51
279.306	279.396	73	61
279.396	279.501	56	39
279.486	279.591	51	55
279.486	279.576	61	56
279.486	279.576	73	67
279.576	279.681	56	39
279.665	279.774	54	46
279.665	280.038	60	57
279.665	280.038	72	68
279.759	279.867	56	39
279.852	279.961	51	56
279.945	280.054	56	42
280.038	280.147	54	48
280.038	280.411	60	62
280.038	280.411	72	73
280.131	280.24	56	40
280.224	280.333	51	58
280.318	280.426	56	42
280.411	280.516	54	49
280.411	280.501	60	63
280.411	280.501	72	75
280.501	280.606	56	42
280.591	280.696	51	59
280.591	280.681	68	65
280.591	280.681	80	77
280.681	280.786	56	48
280.771	280.876	54	53
280.771	280.861	60	63
280.771	280.861	72	75
280.861	280.966	56	50
280.951	281.056	52	61
280.951	281.041	63	68
280.951	281.041	75	81
281.041	281.146	56	51
281.131	281.239	52	56
281.131	281.503	61	69
281.131	281.503	73	82
281.224	281.332	56	51
281.317	281.426	52	62
281.41	281.519	56	51
281.503	281.612	52	57
281.503	281.876	61	73
281.503	281.876	73	86
281.596	281.705	56	52
281.69	281.798	52	67
281.783	281.891	56	55
281.876	281.982	52	59
281.876	281.967	61	69
281.876	281.967	73	82
281.967	282.073	56	56
282.057	282.163	52	68
282.057	282.148	68	78
282.057	282.148	80	92
282.148	282.254	56	58
282.239	282.345	52	61
282.239	282.33	61	79
282.239	282.33	73	93
282.33	282.436	56	57
282.421	282.527	48	70
282.421	282.511	64	79
282.421	282.511	76	94
282.511	282.618	56	63
282.602	282.71	48	67
282.602	282.971	63	78
282.602	282.971	75	92
282.694	282.802	56	62
282.787	282.894	48	71
282.879	282.987	56	62
282.971	283.079	48	68
282.971	283.34	63	85
282.971	283.34	75	100
283.064	283.171	56	62
283.156	283.263	48	74
283.248	283.356	56	62
283.34	283.448	48	70
283.34	283.433	63	82
283.34	283.433	75	97
283.433	283.54	56	63
283.525	283.633	48	74
283.525	283.617	68	85
283.525	283.617	80	100
283.617	283.725	56	63
283.709	283.817	48	71
283.709	283.802	63	82
283.709	283.802	75	97
283.802	283.909	56	64
283.894	283.999	47	78
283.894	284.614	65	87
283.894	284.614	77	103
283.984	284.089	56	67
284.074	284.179	49	72
284.164	284.269	56	66
284.254	284.359	47	78
284.344	284.449	56	67
284.434	284.539	49	72
284.524	284.629	56	67
284.614	284.719	45	78
284.614	285.333	66	87
284.614	285.333	78	103
284.704	284.809	54	67
284.794	284.899	49	73
284.884	284.988	54	68
284.973	285.078	45	78
285.063	285.168	54	67
285.153	285.258	49	72
285.243	285.427	54	67
285.333	285.718	45	78
285.333	285.718	63	72
285.333	285.45	75	85
285.392	285.509	76	80
285.427	285.614	54	66
285.45	285.637	75	85
285.509	285.707	76	80
285.52	285.718	47	72
285.567	285.718	73	85
285.614	285.722	54	66
285.637	285.718	75	81
285.707	285.812	44	78
285.707	286.787	64	87
285.707	286.787	76	103
285.797	285.902	52	67
285.887	285.992	47	73
285.977	286.082	52	66
286.067	286.172	44	78
286.157	286.262	52	67
286.247	286.352	47	72
286.337	286.442	52	66
286.427	286.532	44	78
286.517	286.622	52	64
286.607	286.712	47	71
286.697	286.802	52	67
286.787	286.894	43	78
286.787	287.52	61	87
286.787	287.52	73	103
286.878	286.985	52	69
286.97	287.077	45	74
287.062	287.169	52	69
287.153	287.26	43	78
287.245	287.352	52	68
287.337	287.444	45	74
287.428	287.535	52	69
287.52	287.626	42	78
287.52	288.249	62	86
287.52	288.249	74	102
287.611	287.718	50	64
287.702	287.809	45	73
287.793	287.9	50	66
287.885	287.991	42	78
287.976	288.082	50	64
288.067	288.173	45	73
288.158	288.627	50	64
288.249	288.627	42	78
288.249	288.627	60	72
288.249	288.365	72	85
288.307	288.423	73	79
288.342	288.527	51	66
288.365	288.627	72	85
288.423	288.619	73	79
288.434	288.627	44	71
288.48	288.627	70	85
288.527	288.634	51	71
288.55	288.627	71	79
288.619	288.724	40	78
288.619	289.699	61	87
288.619	289.699	73	103
288.709	288.814	49	66
288.799	288.904	44	72
288.889	288.994	49	68
288.979	289.084	40	78
289.069	289.174	49	67
289.159	289.264	44	72
289.249	289.354	49	67
289.339	289.444	40	78
289.429	289.534	49	67
289.519	289.624	42	72
289.609	289.714	49	72
289.699	290.778	42	66
289.699	290.778	45	66
289.699	290.778	50	78
289.699	290.778	54	78
289.699	290.508	62	87
289.699	290.508	66	87
289.699	290.508	69	103
289.699	290.508	74	103
290.508	290.598	69	57
290.598	290.688	71	57
290.688	290.778	73	58
290.778	290.868	74	59
290.868	290.958	76	60
290.958	291.048	78	60
291.048	291.138	76	58
291.138	291.498	54	59
291.138	291.498	57	59
291.138	291.495	62	59
291.138	291.228	74	58
291.228	291.318	69	56
291.318	291.408	71	57
291.408	291.498	73	58
291.498	291.588	74	59
291.588	291.678	76	60
291.678	291.768	78	61
291.768	291.858	76	59
291.858	292.218	54	58
291.858	292.218	57	58
291.858	292.218	62	58
291.858	291.948	74	57
291.948	292.038	69	57
292.038	292.128	71	59
292.128	292.218	73	61
292.218	292.308	74	61
292.308	292.398	76	62
292.398	292.488	78	62
292.488	292.577	76	60
292.577	292.937	54	58
292.577	292.937	57	58
292.577	292.937	62	58
292.577	292.667	74	56
292.667	292.757	69	57
292.757	292.847	71	60
292.847	292.937	73	61
292.937	293.297	54	62
292.937	293.297	57	62
292.937	293.297	62	62
292.937	293.027	74	64
293.027	293.117	76	67
293.117	293.207	78	68
293.207	293.297	79	71
293.297	293.657	54	71
293.297	293.657	57	71
293.297	293.657	62	71
293.297	293.387	81	72
293.387	293.477	80	70
293.477	293.567	81	68
293.567	293.657	80	67
293.657	294.017	54	66
293.657	294.017	57	66
293.657	294.017	62	66
293.657	293.747	81	64
293.747	293.837	78	62
293.837	293.927	76	61
293.927	294.017	74	59
294.017	294.122	56	58
294.017	294.737	73	57
294.107	294.212	64	52
294.197	294.302	61	56
294.287	294.392	64	51
294.377	294.482	56	60
294.467	294.572	64	51
294.557	294.662	61	56
294.647	294.752	64	50
294.737	295.101	56	60
294.737	294.858	75	59
294.797	294.915	76	59
294.828	295.01	66	51
294.858	294.972	75	59
294.915	295.029	76	59
294.919	295.283	60	56
294.972	295.086	75	59
295.01	295.192	66	51
295.029	295.139	76	59
295.086	295.192	75	58
295.101	295.488	56	60
295.139	295.238	76	58
295.192	295.374	66	52
295.192	295.283	75	59
295.238	295.329	76	60
295.283	295.488	60	56
295.283	295.374	75	61
295.329	295.488	76	61
295.374	295.488	66	50
295.374	295.488	75	62
295.465	295.682	57	67
295.465	295.682	61	67
295.465	295.682	64	67
295.465	295.682	73	67
295.898	296.618	30	70
295.898	296.618	33	70
295.898	296.618	38	83
295.898	296.618	42	83
295.898	296.348	50	76
295.898	296.348	54	76
295.898	296.348	57	90
295.898	296.348	62	90
296.348	296.438	57	57
296.438	296.528	59	57
296.528	296.618	61	58
296.618	296.708	62	59
296.708	296.798	64	60
296.798	296.888	66	61
296.888	296.978	64	60
296.978	297.068	62	57
297.068	297.158	57	56
297.158	297.248	59	57
297.248	297.338	61	57
297.338	297.697	42	49
297.338	297.697	45	49
297.338	297.697	50	58
297.338	297.428	62	58
297.428	297.517	64	59
297.517	297.607	66	60
297.607	297.697	64	57
297.697	297.787	62	57
297.787	297.877	57	57
297.877	297.967	59	57
297.967	298.057	61	59
298.057	298.417	42	49
298.057	298.417	45	49
298.057	298.417	50	58
298.057	298.147	62	59
298.147	298.237	64	59
298.237	298.327	66	59
298.327	298.417	64	59
298.417	298.507	62	58
298.507	298.597	57	60
298.597	298.777	42	51
298.597	298.777	45	51
298.597	298.777	50	60
298.597	298.687	59	61
298.687	298.777	61	63
298.777	298.867	62	66
298.867	298.957	64	67
298.957	299.137	42	61
298.957	299.137	45	61
298.957	299.137	50	72
298.957	299.047	66	68
299.047	299.137	67	70
299.137	299.227	69	72
299.227	299.317	71	74
299.317	299.497	42	68
299.317	299.497	45	68
299.317	299.497	50	80
299.317	299.407	73	75
299.407	299.497	74	78
299.497	299.587	76	80
299.587	299.677	78	81
299.677	299.856	42	68
299.677	299.856	45	68
299.677	299.856	50	80
299.677	299.767	79	83
299.767	299.856	80	85
299.856	299.961	42	78
299.856	300.576	69	79
299.856	300.576	81	93
299.946	300.051	50	66
300.036	300.141	45	73
300.126	300.231	50	67
300.216	300.321	42	78
300.306	300.411	50	66
300.396	300.501	45	72
300.486	300.591	50	64
300.576	300.681	43	78
300.576	301.296	61	77
300.576	301.296	73	91
300.666	300.771	52	67
300.756	300.861	46	73
300.846	300.951	52	66
300.936	301.041	43	78
301.026	301.131	52	64
301.116	301.221	46	71
301.206	301.311	52	64
301.296	301.401	44	78
301.296	302.016	64	77
301.296	302.016	76	91
301.386	301.491	52	69
301.476	301.581	49	73
301.566	301.671	52	67
301.656	301.761	44	78
301.746	301.851	52	67
301.836	301.941	49	73
301.926	302.031	52	68
302.016	302.122	32	78
302.016	302.744	48	77
302.016	302.744	54	77
302.016	302.744	60	91
302.107	302.213	44	68
302.198	302.304	43	74
302.289	302.395	44	68
302.38	302.486	32	78
302.471	302.577	44	68
302.562	302.668	43	74
302.653	302.759	44	69
302.744	302.924	37	70
302.744	302.924	49	70
302.744	302.924	52	70
302.744	302.924	61	70
302.924	303.014	49	48
302.924	303.014	56	57
302.924	303.014	64	57
303.104	303.195	49	48
303.104	303.195	56	57
303.104	303.195	64	57
303.286	303.377	49	48
303.286	303.377	56	57
303.286	303.377	64	57
303.469	303.56	49	48
303.469	303.56	56	57
303.469	303.56	64	57
303.651	303.742	49	48
303.651	303.742	56	57
303.651	303.742	64	57
303.833	303.924	51	47
303.833	303.924	56	55
303.833	303.924	63	55
304.015	304.106	52	46
304.015	304.106	56	53
304.015	304.106	61	53
304.197	304.38	42	53
304.197	304.38	54	53
304.197	304.38	56	63
304.197	304.38	60	63
304.38	304.562	54	47
304.38	304.562	56	47
304.38	304.562	60	57
304.38	304.562	68	57
304.562	304.742	54	47
304.562	304.742	56	47
304.562	304.742	60	57
304.562	304.742	68	57
304.742	304.922	54	47
304.742	304.922	56	47
304.742	304.922	60	57
304.742	304.922	68	57
304.922	305.102	54	47
304.922	305.102	56	47
304.922	305.102	60	57
304.922	305.102	68	57
305.102	305.281	54	47
305.102	305.281	56	47
305.102	305.281	60	57
305.102	305.281	68	57
305.281	305.461	52	47
305.281	305.461	56	47
305.281	305.461	61	57
305.281	305.461	68	57
305.461	305.641	51	50
305.461	305.641	56	50
305.461	305.641	63	61
305.461	305.641	68	61
305.641	305.821	37	53
305.641	305.821	49	53
305.641	305.821	64	70
305.641	305.821	68	70
305.821	306.001	49	46
305.821	306.001	56	57
305.821	306.001	64	57
306.001	306.183	49	47
306.001	306.183	56	57
306.001	306.183	64	57
306.183	306.366	49	47
306.183	306.366	56	58
306.183	306.366	64	58
306.366	306.548	49	47
306.366	306.548	56	58
306.366	306.548	64	58
306.548	306.73	49	48
306.548	306.73	56	58
306.548	306.73	64	58
306.73	306.912	51	46
306.73	306.912	56	56
306.73	306.912	63	56
306.912	307.094	52	46
306.912	307.094	56	57
306.912	307.094	61	57
307.094	307.276	44	56
307.094	307.276	54	56
307.094	307.276	56	70
307.094	307.276	60	70
307.276	307.459	54	46
307.276	307.459	56	46
307.276	307.459	60	56
307.276	307.459	68	56
307.459	307.639	54	47
307.459	307.639	56	47
307.459	307.639	60	56
307.459	307.639	68	56
307.639	307.819	54	47
307.639	307.819	56	47
307.639	307.819	60	56
307.639	307.819	68	56
307.819	307.998	54	47
307.819	307.998	56	47
307.819	307.998	60	56
307.819	307.998	68	56
307.998	308.178	54	47
307.998	308.178	56	47
307.998	308.178	60	56
307.998	308.178	68	56
308.178	308.358	52	49
308.178	308.358	56	49
308.178	308.358	61	56
308.178	308.358	68	56
308.358	308.538	51	51
308.358	308.538	56	51
308.358	308.538	63	61
308.358	308.538	68	61
308.538	308.63	37	56
308.538	308.63	64	72
308.538	308.63	68	72
308.722	308.812	49	48
308.722	308.812	52	48
308.722	308.812	64	56
308.722	308.812	68	56
308.901	309.145	49	48
308.901	309.081	52	48
308.901	309.081	64	57
308.901	309.145	68	57
309.081	309.261	52	46
309.081	309.261	56	46
309.081	309.261	61	53
309.081	309.261	64	53
309.261	309.353	42	57
309.445	309.535	49	48
309.445	309.535	54	48
309.445	309.535	66	57
309.445	309.535	69	57
309.625	309.91	49	48
309.625	309.805	54	48
309.625	309.805	66	57
309.625	309.91	69	57
309.805	309.984	54	46
309.805	309.984	57	46
309.805	309.984	61	55
309.805	309.984	66	55
309.984	310.077	44	57
310.169	310.259	49	47
310.169	310.259	52	47
310.169	310.259	64	56
310.169	310.259	68	56
310.349	310.606	49	47
310.349	310.529	52	47
310.349	310.529	64	56
310.349	310.606	68	56
310.529	310.709	52	46
310.529	310.709	56	46
310.529	310.709	61	55
310.529	310.709	64	55
310.709	310.803	44	57
310.898	310.987	48	47
310.898	310.987	51	47
310.898	310.987	63	56
310.898	310.987	68	56
311.077	311.399	48	47
311.077	311.257	51	47
311.077	311.257	63	56
311.077	311.399	68	56
311.257	311.437	51	45
311.257	311.437	56	45
311.257	311.437	60	53
311.257	311.437	63	53
311.437	311.621	37	58
311.437	311.621	49	58
311.437	311.621	61	70
311.437	311.621	64	70
311.621	311.801	49	47
311.621	311.801	56	47
311.621	311.801	64	56
311.621	311.801	68	56
311.621	311.801	76	56
311.801	311.98	49	50
311.801	311.98	56	50
311.801	311.98	64	56
311.801	311.98	68	56
311.801	311.98	76	56
311.98	312.16	49	49
311.98	312.16	56	49
311.98	312.16	64	56
311.98	312.16	68	56
311.98	312.16	76	56
312.16	312.34	49	47
312.16	312.34	56	47
312.16	312.34	64	56
312.16	312.34	68	56
312.16	312.34	76	56
312.34	312.52	49	47
312.34	312.52	56	47
312.34	312.52	64	56
312.34	312.52	68	56
312.34	312.52	76	56
312.52	312.7	51	49
312.52	312.7	56	49
312.52	312.7	63	59
312.52	312.7	66	59
312.52	312.7	75	59
312.7	312.88	52	52
312.7	312.88	56	52
312.7	312.88	61	62
312.7	312.88	64	62
312.7	312.88	73	62
312.88	313.062	44	56
312.88	313.062	54	56
312.88	313.062	56	56
312.88	313.062	60	69
312.88	313.062	63	69
312.88	313.062	72	69
313.062	313.243	56	63
313.062	313.243	66	63
313.062	313.243	72	88
313.062	313.243	75	88
313.062	313.243	84	88
313.243	313.424	56	74
313.243	313.424	66	74
313.243	313.424	72	94
313.243	313.424	75	94
313.243	313.424	84	94
313.424	313.606	56	68
313.424	313.606	66	68
313.424	313.606	72	86
313.424	313.606	75	86
313.424	313.606	84	86
313.606	313.79	56	73
313.606	313.79	66	73
313.606	313.79	72	94
313.606	313.79	75	94
313.606	313.79	84	94
313.79	313.974	56	68
313.79	313.974	66	68
313.79	313.974	72	88
313.79	313.974	75	88
313.79	313.974	84	88
313.974	314.159	56	74
313.974	314.159	64	74
313.974	314.159	73	96
313.974	314.159	76	96
313.974	314.159	85	96
314.159	314.345	56	68
314.159	314.345	63	68
314.159	314.345	75	91
314.159	314.345	78	91
314.159	314.345	87	91
314.345	314.532	37	73
314.345	314.532	49	73
314.345	314.532	76	104
314.345	314.532	80	104
314.345	315.352	88	104
314.532	314.713	49	47
314.532	314.713	56	47
314.532	314.713	64	56
314.532	314.713	68	56
314.532	314.713	76	56
314.713	314.894	49	47
314.713	314.894	56	47
314.713	314.894	64	56
314.713	314.894	68	56
314.713	314.894	76	56
314.894	315.075	49	47
314.894	315.075	56	47
314.894	315.075	64	56
314.894	315.075	68	56
314.894	315.075	76	56
315.075	315.256	49	47
315.075	315.256	56	47
315.075	315.256	64	57
315.075	315.256	68	57
315.075	315.256	76	57
315.256	315.576	49	47
315.256	315.437	56	47
315.256	315.576	64	57
315.256	315.576	68	57
315.256	315.576	76	57
315.437	315.618	51	47
315.437	315.618	56	47
315.437	315.618	63	57
315.437	315.618	66	57
315.437	315.618	75	57
315.618	315.799	52	49
315.618	315.799	56	49
315.618	315.799	61	59
315.618	315.799	64	59
315.618	315.799	73	59
315.799	315.983	44	54
315.799	315.983	54	54
315.799	315.983	56	54
315.799	315.983	60	66
315.799	315.983	63	66
315.799	315.983	72	66
315.983	316.163	56	62
315.983	316.163	66	62
315.983	316.163	72	84
315.983	316.163	75	84
315.983	316.163	84	84
316.163	316.343	56	73
316.163	316.343	66	73
316.163	316.343	72	94
316.163	316.343	75	94
316.163	316.343	84	94
316.343	316.524	56	65
316.343	316.524	66	65
316.343	316.524	72	87
316.343	316.524	75	87
316.343	316.524	84	87
316.524	316.706	56	73
316.524	316.706	66	73
316.524	316.706	72	94
316.524	316.706	75	94
316.524	316.706	84	94
316.706	316.887	56	65
316.706	316.991	66	65
316.706	316.991	72	94
316.706	316.991	75	94
316.706	316.991	84	94
316.887	317.07	56	73
316.887	317.253	64	73
316.887	317.253	73	94
316.887	317.253	76	94
316.887	317.253	85	94
317.07	317.253	56	64
317.07	317.253	63	64
317.07	317.253	75	87
317.07	317.253	78	87
317.07	317.253	87	87
317.253	317.436	49	75
317.253	317.436	61	75
317.253	317.436	76	105
317.253	317.436	80	105
317.253	317.436	88	105
317.436	317.527	61	50
317.436	317.527	64	50
317.436	317.527	80	59
317.436	317.527	85	59
317.617	317.889	61	51
317.617	317.798	64	51
317.617	317.798	80	59
317.617	317.889	85	59
317.798	317.979	64	47
317.798	317.979	68	47
317.798	317.979	76	57
317.798	317.979	80	57
317.979	318.071	54	57
318.163	318.253	61	48
318.163	318.253	66	48
318.163	318.253	81	58
318.163	318.253	85	58
318.344	318.635	61	50
318.344	318.524	66	50
318.344	318.524	81	58
318.344	318.635	85	58
318.524	318.705	66	47
318.524	318.705	69	47
318.524	318.705	78	57
318.524	318.705	81	57
318.705	318.797	56	56
318.889	318.979	61	50
318.889	318.979	64	50
318.889	318.979	76	58
318.889	318.979	80	58
319.069	319.28	61	50
319.069	319.25	64	50
319.069	319.25	76	58
319.069	319.28	80	58
319.25	319.43	64	47
319.25	319.43	68	47
319.25	319.43	73	56
319.25	319.43	76	56
319.43	319.522	54	56
319.615	319.705	60	50
319.615	319.705	63	50
319.615	319.705	75	60
319.615	319.705	80	60
319.795	320.104	60	50
319.795	319.976	63	50
319.795	319.976	75	60
319.795	320.104	80	60
319.976	320.156	63	48
319.976	320.156	68	48
319.976	320.156	72	58
319.976	320.156	75	58
320.156	320.336	52	56
320.336	320.427	56	50
320.336	320.427	61	50
320.336	320.427	76	66
320.336	320.427	80	66
320.517	320.823	56	50
320.517	320.698	61	50
320.517	320.698	76	67
320.517	320.823	80	67
320.698	320.884	61	46
320.698	320.884	64	46
320.698	320.884	68	64
320.698	320.884	76	64
320.884	321.071	42	56
321.071	321.166	54	51
321.071	321.166	57	51
321.071	321.166	69	77
321.071	321.166	78	77
321.261	321.61	54	51
321.261	321.454	57	51
321.261	321.61	69	75
321.261	321.61	78	75
321.454	321.651	57	49
321.454	321.651	62	49
321.454	321.651	66	73
321.454	321.651	74	73
321.651	321.85	44	54
321.85	321.953	52	47
321.85	321.953	56	47
321.85	321.953	68	68
321.85	321.953	76	68
322.056	322.412	52	48
322.056	322.265	56	48
322.056	322.412	68	68
322.056	322.412	76	68
322.265	322.474	56	50
322.265	322.474	61	50
322.265	322.474	64	68
322.265	322.474	73	68
322.474	322.685	44	57
322.685	322.792	51	47
322.685	322.792	54	47
322.685	322.792	66	58
322.685	322.792	75	58
322.902	323.297	51	47
322.902	323.131	54	47
322.902	323.297	66	58
322.902	323.297	75	58
323.131	323.367	54	47
323.131	323.367	60	47
323.131	323.367	63	56
323.131	323.367	72	56
323.367	323.483	37	58
323.367	323.764	64	59
323.367	323.764	73	59
323.466	323.582	49	37
323.566	323.681	44	43
323.665	323.781	49	38
323.764	323.88	37	49
323.863	323.979	49	38
323.963	324.078	44	43
324.062	324.178	49	38
324.161	324.277	37	49
324.26	324.376	49	38
324.36	324.475	44	44
324.459	324.575	49	44
324.558	324.676	37	49
324.558	324.862	64	59
324.66	324.778	49	38
324.761	324.879	44	44
324.862	324.981	49	39
324.862	324.913	61	59
324.964	325.082	37	49
324.964	325.369	60	68
325.065	325.183	51	39
325.166	325.285	44	45
325.268	325.387	51	39
325.369	325.494	37	49
325.369	325.69	54	56
325.369	325.69	60	56
325.369	325.69	68	56
325.476	325.601	51	38
325.583	325.708	44	44
325.69	325.815	51	38
325.797	325.922	37	49
325.797	326.118	54	56
325.797	326.118	60	56
325.797	326.118	68	56
325.904	326.029	51	39
326.011	326.136	44	45
326.118	326.243	51	39
326.225	326.35	37	49
326.225	326.546	54	59
326.225	326.546	60	59
326.225	326.546	68	59
326.332	326.457	51	38
326.439	326.57	44	43
326.546	326.707	51	39
326.546	326.618	52	59
326.618	326.69	61	59
326.69	326.806	37	49
326.69	327.881	68	68
326.79	326.905	49	39
326.889	327.005	44	44
326.988	327.104	49	39
327.087	327.203	37	49
327.187	327.302	49	41
327.286	327.402	44	45
327.385	327.501	49	40
327.484	327.6	37	49
327.584	327.699	49	40
327.683	327.799	44	45
327.782	327.898	49	39
327.881	327.999	37	49
327.881	328.184	76	69
327.982	328.1	49	39
328.083	328.201	44	43
328.184	328.302	49	38
328.184	328.285	73	69
328.285	328.403	37	49
328.285	328.689	72	79
328.386	328.504	51	39
328.487	328.605	44	43
328.588	328.707	51	39
328.689	328.811	37	49
328.689	329.002	66	68
328.689	329.002	72	68
328.689	329.002	80	68
328.794	328.915	51	39
328.898	329.02	44	43
329.002	329.124	51	39
329.107	329.228	37	49
329.107	329.42	66	68
329.107	329.42	72	68
329.107	329.42	80	68
329.211	329.333	51	38
329.315	329.437	44	43
329.42	329.541	51	39
329.524	329.646	37	49
329.524	329.835	66	68
329.524	329.835	72	68
329.524	329.835	80	68
329.628	329.75	51	42
329.732	329.857	44	46
329.835	329.987	51	40
329.835	329.903	61	56
329.903	329.97	73	63
329.97	330.085	37	49
329.97	330.656	80	86
330.068	330.183	49	39
330.166	330.28	44	43
330.264	330.378	49	39
330.362	330.476	37	50
330.46	330.574	49	37
330.558	330.675	44	42
330.656	330.786	49	38
330.656	330.713	62	53
330.713	330.77	72	62
330.77	330.884	37	49
330.77	331.455	80	85
330.868	330.982	51	39
330.966	331.08	44	44
331.064	331.178	51	39
331.162	331.276	37	49
331.26	331.374	51	39
331.358	331.477	44	45
331.455	331.6	51	40
331.455	331.52	64	51
331.52	331.584	73	63
331.584	331.698	37	49
331.584	332.269	80	85
331.682	331.796	49	39
331.78	331.894	44	43
331.878	331.992	49	38
331.976	332.09	37	49
332.074	332.188	49	39
332.171	332.286	44	43
332.269	332.384	49	39
332.269	332.318	62	53
332.318	332.367	72	63
332.367	332.481	37	49
332.367	333.151	80	84
332.465	332.579	51	39
332.563	332.677	44	44
332.661	332.775	51	39
332.759	332.873	37	49
332.857	332.971	51	39
332.955	333.069	44	44
333.053	333.167	51	40
333.151	333.27	37	49
333.151	333.27	52	60
333.253	333.371	49	47
333.253	333.371	61	57
333.354	333.472	44	51
333.354	333.472	56	61
333.455	333.572	49	50
333.455	333.572	61	58
333.556	333.673	37	53
333.556	333.673	52	63
333.656	333.774	49	51
333.656	333.774	61	61
333.757	333.874	44	56
333.757	333.874	56	67
333.858	333.974	49	51
333.858	333.974	61	62
333.958	334.073	37	57
333.958	334.073	52	68
334.056	334.171	49	53
334.056	334.171	61	63
334.155	334.27	44	59
334.155	334.27	56	70
334.253	334.368	49	54
334.253	334.368	61	67
334.352	334.467	37	61
334.352	334.467	52	72
334.451	334.565	49	56
334.451	334.565	61	68
334.549	334.662	44	62
334.549	334.662	56	74
334.646	334.743	49	58
334.646	334.759	61	68
334.743	334.857	35	65
334.743	334.792	49	77
334.743	334.857	53	77
334.84	334.954	47	59
334.84	334.954	61	69
334.938	335.049	37	67
334.938	335.049	56	79
335.034	335.144	47	61
335.034	335.144	61	71
335.128	335.238	35	68
335.128	335.175	49	80
335.128	335.238	53	80
335.222	335.332	47	62
335.222	335.332	61	72
335.316	335.426	37	69
335.316	335.426	56	82
335.41	335.52	47	63
335.41	335.52	61	77
335.504	335.612	35	72
335.504	335.551	49	85
335.504	335.612	53	85
335.597	335.703	47	68
335.597	335.703	61	79
335.688	335.794	37	73
335.688	335.794	56	86
335.779	335.885	47	68
335.779	335.885	61	81
335.87	335.975	35	74
335.87	335.915	49	88
335.87	335.975	53	88
335.96	336.066	47	69
335.96	336.066	61	83
336.051	336.156	37	76
336.051	336.156	56	90
336.141	336.232	47	71
336.141	336.232	61	84
336.232	336.322	33	67
336.232	336.322	45	79
336.232	336.322	49	79
336.232	336.322	54	79
336.232	336.322	57	79
336.232	336.322	61	93
336.322	336.427	49	63
336.412	336.502	42	47
336.412	336.517	54	66
336.502	336.606	57	68
336.592	336.681	33	47
336.592	336.696	61	70
336.681	336.786	54	64
336.771	336.861	42	43
336.771	336.876	57	64
336.861	336.966	61	66
336.951	337.041	33	47
336.951	337.056	66	68
337.041	337.146	57	63
337.131	337.221	42	42
337.131	337.236	61	66
337.221	337.326	66	68
337.311	337.401	33	47
337.311	337.416	69	69
337.401	337.506	61	63
337.491	337.581	42	42
337.491	337.596	66	63
337.581	337.686	69	64
337.671	337.851	33	47
337.671	337.776	73	68
337.761	337.866	66	69
337.851	338.031	42	48
337.851	337.956	69	61
337.941	338.046	73	62
338.031	338.211	33	48
338.031	338.136	78	66
338.121	338.226	69	61
338.211	338.391	42	48
338.211	338.316	73	61
338.301	338.406	78	63
338.391	338.571	33	48
338.391	338.496	81	66
338.481	338.586	73	61
338.571	338.938	42	43
338.571	338.676	78	64
338.661	338.751	81	68
338.751	339.129	33	84
338.751	339.129	45	84
338.751	338.938	73	86
338.751	338.938	78	86
338.751	338.938	81	102
338.751	338.938	85	102
338.938	339.129	42	71
338.938	339.129	73	71
338.938	339.129	78	71
338.938	339.129	81	84
338.938	339.129	85	84
339.126	339.307	32	62
339.216	339.322	49	69
339.307	339.488	40	56
339.307	339.412	52	71
339.397	339.503	56	74
339.488	339.669	32	62
339.488	339.594	61	77
339.578	339.684	52	71
339.669	339.85	40	57
339.669	339.775	56	74
339.759	339.865	61	75
339.85	340.031	32	62
339.85	339.956	64	78
339.941	340.046	56	72
340.031	340.212	40	57
340.031	340.137	61	74
340.122	340.227	64	75
340.212	340.393	32	62
340.212	340.318	68	79
340.303	340.408	61	72
340.393	340.574	40	62
340.393	340.499	64	74
340.484	340.589	68	75
340.574	340.755	32	62
340.574	340.68	73	78
340.665	340.77	64	75
340.755	340.936	40	62
340.755	340.861	68	75
340.846	340.951	73	74
340.936	341.117	32	62
340.936	341.042	76	78
341.027	341.132	68	73
341.117	341.298	40	57
341.117	341.223	73	74
341.208	341.313	76	79
341.298	341.479	32	62
341.298	341.404	80	80
341.389	341.495	73	74
341.479	341.86	40	57
341.479	341.585	76	78
341.57	341.661	80	80
341.661	342.148	32	89
341.661	342.148	44	89
341.661	341.86	73	95
341.661	341.86	76	95
341.661	341.86	80	112
341.661	341.86	85	112
341.86	342.148	40	79
341.86	342.148	73	84
341.86	342.148	76	84
341.86	342.148	80	99
341.86	342.148	85	99
342.148	342.856	31	47
342.384	343.919	49	37
342.443	343.978	52	39
342.502	344.037	55	42
342.561	344.519	58	46
342.62	343.329	61	53
342.856	346.308	31	53
342.915	346.308	34	56
342.974	346.308	37	59
343.033	346.308	40	61
343.092	343.801	43	63
343.329	344.519	61	63
343.388	344.519	64	67
343.447	346.308	67	69
343.506	346.308	70	72
343.565	344.278	73	74
343.801	346.308	43	61
343.86	346.308	46	66
343.919	346.308	49	69
343.978	346.308	52	72
344.037	344.519	55	75
344.278	346.459	73	78
344.338	346.459	76	81
344.399	346.459	79	86
344.459	346.459	82	90
344.519	346.459	55	93
344.519	346.459	58	93
344.519	346.459	61	93
344.519	346.459	64	93
344.519	346.459	85	94
346.459	347.167	30	56
346.695	348.171	45	35
346.754	348.23	48	38
346.813	348.289	51	42
346.872	348.348	54	45
346.931	347.64	57	49
347.167	350.447	30	49
347.227	350.447	33	51
347.286	350.447	36	56
347.345	350.447	39	58
347.404	348.112	42	62
347.64	348.83	57	66
347.699	348.83	60	68
347.758	348.83	63	69
347.817	350.447	66	70
347.876	348.469	69	74
348.112	350.447	42	64
348.171	350.447	45	67
348.23	350.447	48	69
348.289	350.447	51	72
348.348	348.83	54	74
348.469	350.762	69	86
348.589	350.762	72	91
348.71	350.762	75	94
348.83	350.762	54	93
348.83	350.762	57	93
348.83	350.762	60	93
348.83	350.762	63	93
348.83	350.762	81	108
350.762	350.97	49	49
350.866	350.987	68	37
350.97	351.091	64	41
351.074	351.193	68	36
351.177	351.925	56	66
351.177	351.288	61	47
351.272	351.382	68	36
351.367	351.476	64	40
351.461	351.57	68	36
351.554	351.663	61	47
351.647	351.756	68	37
351.74	351.848	64	41
351.833	351.942	68	36
351.925	352.22	52	57
351.925	352.04	61	47
352.023	352.138	68	37
352.122	352.236	64	41
352.22	352.318	49	57
352.22	352.335	68	37
352.318	352.711	49	64
352.318	352.433	63	47
352.416	352.531	68	37
352.515	352.629	66	41
352.613	352.726	68	36
352.711	353.254	48	56
352.711	352.817	63	47
352.802	352.907	68	38
352.892	352.998	66	41
352.983	353.088	68	37
353.073	353.179	63	47
353.164	353.269	68	36
353.254	353.435	48	56
353.254	353.36	66	41
353.345	353.452	68	37
353.435	353.73	56	67
353.435	353.55	63	47
353.534	353.648	68	37
353.632	353.746	66	41
353.73	353.828	48	56
353.73	353.845	68	37
353.828	354.232	51	51
353.828	353.946	61	47
353.929	354.047	68	36
354.03	354.148	64	40
354.131	354.247	68	37
354.232	354.775	49	56
354.232	354.338	61	47
354.323	354.428	68	36
354.413	354.519	64	40
354.504	354.61	68	36
354.594	354.7	61	47
354.685	354.793	68	37
354.775	354.983	49	57
354.775	354.896	64	40
354.879	355.0	68	36
354.983	355.293	56	63
354.983	355.103	61	47
355.086	355.207	68	37
355.19	355.31	64	41
355.293	355.397	49	56
355.293	355.414	68	36
355.397	355.801	52	51
355.397	355.515	60	47
355.498	355.616	68	35
355.599	355.717	66	40
355.7	355.816	68	36
355.801	356.344	51	56
355.801	355.906	60	47
355.891	355.997	68	36
355.982	356.087	66	40
356.072	356.178	68	36
356.163	356.268	60	47
356.253	356.361	68	38
356.344	356.551	51	57
356.344	356.465	66	40
356.447	356.568	68	36
356.551	356.862	56	63
356.551	356.672	60	47
356.655	356.775	68	36
356.758	356.879	66	41
356.862	356.965	51	56
356.862	356.965	68	37
356.965	357.086	52	48
356.965	357.172	61	49
356.965	357.172	64	49
356.965	357.172	68	49
357.069	357.19	56	42
357.172	357.293	52	48
357.276	357.394	56	41
357.379	357.484	52	56
357.379	358.099	68	68
357.379	358.099	80	68
357.469	357.574	56	41
357.559	357.664	52	48
357.649	357.754	56	41
357.739	357.844	52	56
357.829	357.934	56	41
357.919	358.024	52	47
358.009	358.115	56	41
358.099	358.21	52	56
358.099	358.384	64	56
358.099	358.384	76	56
358.194	358.305	56	42
358.289	358.4	52	48
358.384	358.495	56	41
358.384	358.479	61	56
358.384	358.479	73	56
358.479	358.59	54	56
358.479	358.859	61	64
358.479	358.859	73	64
358.574	358.685	56	39
358.669	358.78	54	47
358.764	358.874	56	40
358.859	358.964	54	56
358.859	359.401	60	55
358.859	359.401	72	55
358.949	359.055	56	41
359.04	359.145	54	49
359.13	359.235	56	44
359.22	359.325	54	56
359.31	359.417	56	41
359.401	359.514	54	47
359.401	359.596	60	56
359.401	359.596	72	56
359.498	359.613	56	41
359.596	359.715	54	56
359.596	359.902	68	66
359.596	359.902	80	66
359.698	359.817	56	42
359.8	359.919	54	47
359.902	360.02	56	42
359.902	360.004	60	56
359.902	360.004	72	56
360.004	360.117	52	56
360.004	360.392	63	55
360.004	360.392	75	55
360.101	360.214	56	41
360.198	360.311	52	48
360.295	360.407	56	41
360.392	360.497	52	56
360.392	360.933	61	56
360.392	360.933	73	56
360.482	360.587	56	42
360.572	360.677	52	49
360.662	360.768	56	42
360.753	360.858	52	56
360.843	360.949	56	41
360.933	361.046	52	48
360.933	361.126	61	55
360.933	361.126	73	55
361.03	361.143	56	42
361.126	361.246	52	56
361.126	361.434	68	66
361.126	361.434	80	66
361.229	361.348	56	42
361.331	361.451	52	49
361.434	361.552	56	42
361.434	361.536	61	55
361.434	361.536	73	55
361.536	361.649	48	56
361.536	361.922	64	58
361.536	361.922	76	58
361.633	361.745	56	44
361.729	361.842	48	49
361.826	361.937	56	42
361.922	362.027	48	56
361.922	362.463	63	57
361.922	362.463	75	57
362.012	362.117	56	42
362.102	362.207	48	48
362.192	362.297	56	41
362.282	362.387	48	56
362.372	362.48	56	41
362.463	362.584	48	47
362.463	362.67	63	56
362.463	362.67	75	56
362.567	362.687	56	41
362.67	362.791	48	56
362.67	362.981	68	64
362.67	362.981	80	64
362.774	362.895	56	41
362.877	362.998	48	47
362.981	363.1	56	41
362.981	363.084	63	56
362.981	363.084	75	56
363.084	363.19	49	56
363.084	363.265	66	59
363.084	363.265	78	59
363.175	363.28	56	51
363.265	363.37	49	56
363.265	363.446	64	57
363.265	363.446	76	57
363.355	363.461	56	51
363.446	363.551	49	58
363.446	363.536	73	64
363.446	363.536	85	64
363.536	363.642	56	55
363.627	363.732	49	61
363.627	363.717	64	61
363.627	363.717	76	61
363.717	363.823	56	57
363.808	363.915	47	63
363.808	363.993	66	68
363.808	363.993	78	68
363.9	364.008	49	60
363.993	364.101	47	66
363.993	364.178	65	67
363.993	364.178	77	67
364.085	364.194	49	61
364.178	364.287	47	68
364.178	364.271	73	71
364.178	364.271	85	71
364.271	364.379	49	63
364.364	364.472	47	70
364.364	364.457	65	71
364.364	364.457	77	71
364.457	364.565	49	63
364.55	364.658	45	73
364.55	364.735	68	78
364.55	364.735	80	78
364.643	364.751	49	67
364.735	364.844	45	74
364.735	364.921	66	75
364.735	364.921	78	75
364.828	364.937	49	69
364.921	365.03	45	78
364.921	365.014	73	81
364.921	365.014	85	81
365.014	365.125	49	72
365.109	365.22	45	80
365.109	365.204	66	80
365.109	365.204	78	80
365.204	365.316	49	73
365.3	365.413	41	82
365.3	365.494	69	86
365.3	365.494	81	86
365.397	365.51	49	78
365.494	365.609	41	85
365.494	365.692	68	85
365.494	365.692	80	85
365.592	365.707	49	80
365.692	365.808	41	86
365.692	365.79	73	92
365.692	365.79	85	92
365.79	365.913	49	81
365.895	366.019	41	90
365.895	366.001	68	90
365.895	366.001	80	90
366.001	366.125	49	83
366.11	368.996	30	79
366.11	368.996	39	79
366.11	368.996	42	93
366.11	366.507	81	99
366.23	366.507	78	79
366.35	366.507	73	78
366.47	366.83	69	86
366.59	366.836	66	74
366.71	366.836	61	75
366.83	367.196	69	84
366.951	367.196	66	75
367.071	367.196	61	75
367.191	367.551	57	84
367.311	367.551	54	72
367.431	367.551	49	74
367.551	367.721	57	92
367.641	367.731	54	72
367.731	367.912	49	79
367.821	367.938	45	73
367.912	368.102	49	84
368.002	368.102	52	74
368.092	368.251	56	79
368.182	368.272	61	73
368.272	368.596	66	84
368.362	368.596	69	72
368.452	368.596	73	79
368.542	368.632	78	71
368.632	368.991	81	85
368.722	368.991	78	75
368.813	368.991	73	80
368.904	368.996	69	77
368.996	371.883	30	63
368.996	371.883	38	63
368.996	371.883	42	75
368.996	369.33	81	99
369.116	369.33	78	77
369.236	369.356	74	78
369.356	369.691	69	84
369.476	369.691	66	74
369.596	369.716	62	77
369.716	370.055	69	83
369.836	370.055	66	73
369.956	370.077	62	75
370.077	370.437	57	85
370.197	370.437	54	73
370.317	370.437	50	74
370.437	370.574	57	91
370.527	370.78	54	77
370.617	370.78	50	83
370.707	370.797	45	78
370.797	370.956	50	86
370.887	370.977	54	73
370.977	371.119	57	80
371.068	371.158	62	75
371.158	371.51	66	85
371.248	371.51	69	73
371.338	371.51	74	80
371.428	371.518	78	77
371.518	371.883	81	92
371.608	371.883	78	78
371.699	371.883	74	83
371.791	371.883	69	79
371.883	374.779	31	63
371.883	374.779	37	63
371.883	374.779	43	75
371.883	372.235	85	100
372.003	372.235	82	80
372.123	372.243	79	79
372.243	372.599	76	92
372.364	372.599	73	77
372.484	372.604	70	79
372.604	372.939	76	92
372.724	372.939	73	80
372.844	372.964	70	80
372.964	373.325	67	88
373.054	373.325	64	73
373.144	373.325	61	79
373.234	373.325	58	74
373.325	373.668	64	85
373.415	373.668	61	75
373.505	373.668	58	81
373.595	373.685	55	75
373.685	373.852	52	86
373.775	374.048	49	77
373.865	374.048	52	81
373.955	374.048	55	75
374.045	374.412	57	93
374.106	374.412	61	76
374.166	374.412	64	82
374.227	374.412	67	78
374.288	374.412	70	83
374.349	374.412	73	77
374.41	374.717	76	84
374.471	374.766	79	79
374.532	374.656	82	85
374.594	374.766	85	79
374.656	374.766	82	86
374.717	374.779	76	80
374.779	377.662	32	62
374.779	377.662	37	62
374.779	377.662	44	74
374.779	375.14	88	103
374.899	375.14	85	79
375.02	375.14	80	79
375.14	375.5	76	92
375.26	375.5	73	78
375.38	375.5	68	79
375.5	375.839	76	92
375.62	375.839	73	78
375.74	375.86	68	78
375.86	376.131	64	92
375.951	376.221	73	79
376.041	376.221	68	83
376.131	376.221	64	80
376.221	376.491	61	93
376.311	376.602	68	77
376.401	376.602	64	80
376.491	376.602	61	77
376.581	376.851	56	92
376.671	376.926	64	75
376.761	376.926	61	79
376.851	376.942	56	74
376.942	377.212	52	93
377.032	377.302	61	77
377.122	377.302	56	81
377.212	377.302	52	77
377.302	377.572	49	92
377.392	377.636	56	75
377.482	377.636	52	80
377.572	377.662	49	74
377.662	377.752	44	56
377.752	377.843	45	56
377.843	377.933	46	57
377.933	378.023	47	58
378.023	378.113	48	60
378.113	378.203	49	61
378.203	378.293	50	61
378.293	378.383	51	62
378.383	378.473	52	64
378.473	378.563	53	66
378.563	378.653	54	67
378.653	378.743	55	68
378.743	378.834	56	69
378.834	378.924	57	70
378.924	379.014	58	71
379.014	379.104	59	72
379.104	379.194	60	74
379.194	379.284	61	74
379.284	379.374	62	75
379.374	379.464	63	77
379.464	379.536	64	79
379.536	379.608	65	80
379.608	379.68	66	80
379.68	379.753	67	81
379.753	379.825	68	82
379.825	380.193	69	83
379.897	380.193	70	84
379.969	380.193	71	85
380.041	380.193	72	86
380.113	380.193	73	86
380.185	380.548	74	88
380.245	380.548	75	88
380.305	380.548	76	89
380.365	380.548	77	90
380.41	380.548	78	91
380.455	380.548	79	91
380.548	382.429	56	74
380.548	382.429	60	74
380.548	382.429	66	74
380.548	380.723	81	96
380.635	380.802	83	85
380.723	380.879	81	91
380.802	380.956	83	84
380.879	381.034	81	93
380.956	381.109	83	84
381.034	381.185	81	96
381.109	381.259	83	88
381.185	381.335	81	96
381.259	381.41	83	86
381.335	381.486	81	96
381.41	381.493	83	93
381.486	381.631	81	94
381.558	381.706	83	90
381.631	381.781	81	93
381.706	381.85	83	90
381.781	381.924	81	92
381.85	381.998	83	88
381.924	382.077	81	91
381.998	382.157	83	83
382.077	382.237	81	88
382.157	382.331	83	80
382.237	382.386	81	88
382.331	382.429	83	80
382.429	382.742	80	89
382.742	383.062	78	74
383.062	383.382	76	74
383.382	383.683	75	74
383.683	383.96	78	77
383.96	384.212	73	74
384.212	384.451	72	74
384.451	384.674	75	77
384.674	384.889	69	74
384.889	385.096	68	74
385.096	385.292	66	74
385.292	385.474	69	77
385.474	385.655	64	74
385.655	385.831	63	74
385.831	386.0	66	78
386.0	386.165	61	74
386.165	386.321	60	73
386.321	386.473	63	73
386.473	386.62	57	74
386.62	386.763	56	73
386.763	386.902	54	73
386.902	387.036	57	75
387.036	387.165	52	73
387.165	387.289	51	73
387.289	387.407	54	77
387.407	387.52	49	73
387.52	387.634	48	73
387.634	388.033	51	72
388.183	388.703	45	69
388.912	389.724	44	62
390.084	392.387	31	39
390.084	392.387	43	46
392.387	394.69	32	34
392.387	394.69	44	41
394.69	394.789	37	44
394.69	394.789	49	44
394.789	394.988	49	37
394.888	394.988	44	42
394.988	395.087	49	37
395.087	395.186	37	44
395.186	395.302	49	37
395.285	395.401	44	42
395.385	395.5	49	36
395.484	395.6	37	44
395.583	395.699	49	38
395.682	395.798	44	42
395.782	395.897	49	38
395.881	395.997	37	44
395.881	396.179	64	49
395.98	396.096	49	38
396.079	396.195	44	42
396.179	396.295	49	36
396.179	396.278	61	49
396.278	396.394	37	44
396.278	396.675	60	58
396.377	396.493	51	37
396.477	396.592	44	42
396.576	396.692	51	37
396.675	396.795	37	44
396.675	397.085	54	50
396.675	397.085	60	50
396.675	397.085	68	50
396.778	396.897	51	36
396.88	396.999	44	42
396.982	397.102	51	37
397.085	397.204	37	44
397.085	397.495	54	49
397.085	397.495	60	49
397.085	397.495	68	49
397.187	397.307	51	38
397.29	397.409	44	42
397.392	397.512	51	42
397.495	397.614	37	44
397.495	397.802	54	49
397.495	397.802	60	49
397.495	397.802	68	49
397.597	397.717	51	36
397.7	397.826	44	42
397.802	397.963	51	37
397.802	397.874	52	39
397.874	397.947	61	46
397.947	398.061	37	44
397.947	399.122	68	58
398.045	398.159	49	36
398.142	398.257	44	42
398.24	398.355	49	37
398.338	398.453	37	44
398.436	398.55	49	38
398.534	398.648	44	42
398.632	398.746	49	36
398.73	398.844	37	44
398.828	398.942	49	37
398.926	399.04	44	42
399.024	399.138	49	37
399.122	399.237	37	44
399.122	399.419	76	56
399.221	399.337	49	37
399.32	399.436	44	42
399.419	399.535	49	36
399.419	399.519	73	56
399.519	399.635	37	44
399.519	399.916	72	66
399.618	399.734	51	37
399.717	399.833	44	42
399.816	399.933	51	37
399.916	400.034	37	44
399.916	400.32	66	56
399.916	400.32	72	56
399.916	400.32	80	56
400.017	400.135	51	39
400.118	400.236	44	42
400.219	400.337	51	36
400.32	400.438	37	44
400.32	400.724	66	56
400.32	400.724	72	56
400.32	400.724	80	56
400.421	400.539	51	37
400.522	400.64	44	42
400.623	400.741	51	37
400.724	400.842	37	44
400.724	401.027	66	56
400.724	401.027	72	56
400.724	401.027	80	56
400.825	400.943	51	38
400.926	401.051	44	42
401.027	401.187	51	38
401.027	401.098	64	49
401.098	401.17	73	55
401.17	401.286	37	44
401.17	401.865	80	69
401.269	401.385	49	39
401.369	401.484	44	45
401.468	401.584	49	40
401.567	401.683	37	47
401.666	401.782	49	41
401.766	401.887	44	48
401.865	402.015	49	42
401.865	401.932	66	58
401.932	401.999	72	63
401.999	402.114	37	49
401.999	402.689	80	75
402.097	402.212	51	46
402.196	402.311	44	51
402.295	402.41	51	47
402.393	402.508	37	53
402.492	402.607	51	48
402.59	402.711	44	56
402.689	402.836	51	49
402.689	402.754	64	67
402.754	402.82	73	73
402.82	402.934	37	56
402.82	403.505	80	83
402.918	403.032	49	50
403.016	403.13	44	59
403.113	403.228	49	52
403.211	403.326	37	60
403.309	403.423	49	56
403.407	403.527	44	61
403.505	403.652	49	55
403.505	403.571	66	71
403.571	403.636	72	80
403.636	403.749	37	62
403.636	404.317	80	95
403.733	403.847	51	59
403.83	403.944	44	64
403.928	404.041	51	59
404.025	404.138	37	67
404.122	404.236	51	61
404.219	404.338	44	68
404.317	404.452	51	61
404.317	404.382	64	80
404.382	404.436	73	80
404.436	404.808	37	73
404.436	404.808	44	73
404.436	404.808	49	73
404.436	404.808	80	81
404.532	404.808	52	62
404.532	404.808	64	74
404.627	404.808	56	65
404.627	404.808	68	77
404.722	404.833	61	61
404.722	404.833	73	73
404.817	405.099	64	68
404.817	405.099	76	81
404.912	405.162	56	62
404.912	405.162	68	75
405.005	405.162	61	63
405.005	405.162	73	78
405.099	405.378	64	62
405.099	405.378	76	74
405.192	405.47	68	68
405.192	405.47	80	81
405.285	405.53	61	63
405.285	405.53	73	74
405.378	405.53	64	63
405.378	405.53	76	77
405.47	405.577	68	62
405.47	405.577	80	75
405.562	405.835	73	69
405.562	405.835	85	82
405.653	405.909	64	65
405.653	405.909	76	78
405.744	405.909	68	68
405.744	405.909	80	80
405.835	405.94	73	65
405.835	405.94	85	78
405.925	406.195	76	73
405.925	406.264	88	86
406.015	406.264	73	70
406.015	406.264	85	86
406.105	406.264	68	69
406.105	406.264	80	85
406.195	406.3	64	66
406.195	406.3	76	81
406.285	406.555	73	72
406.285	406.613	85	88
406.375	406.613	68	70
406.375	406.613	80	86
406.465	406.613	64	68
406.465	406.613	76	85
406.555	406.825	61	68
406.555	406.825	73	79
406.645	406.915	68	72
406.645	406.978	80	86
406.735	406.978	64	70
406.735	406.978	76	85
406.825	406.978	61	68
406.825	406.978	73	84
406.915	407.02	56	68
406.915	407.02	68	80
407.005	407.275	64	72
407.005	407.365	76	86
407.095	407.365	61	70
407.095	407.365	73	86
407.185	407.365	56	68
407.185	407.365	68	84
407.275	407.379	52	68
407.275	407.379	64	79
407.365	407.637	61	69
407.365	407.74	73	84
407.455	407.729	56	68
407.455	407.729	68	82
407.545	407.74	52	68
407.545	407.74	64	81
407.637	407.744	49	65
407.637	407.744	61	75
407.729	408.009	56	70
407.729	408.065	68	84
407.822	408.065	52	69
407.822	408.065	64	82
407.915	408.065	49	68
407.915	408.065	61	81
408.009	408.12	44	65
408.009	408.12	56	77
408.104	408.394	52	71
408.104	408.492	64	84
408.2	408.492	49	71
408.2	408.492	61	82
408.297	408.492	44	69
408.297	408.492	56	80
408.394	408.508	40	67
408.394	408.508	52	77
408.492	408.892	49	71
408.492	409.073	61	84
408.591	408.791	44	70
408.591	408.791	56	82
408.69	409.073	40	69
408.69	409.073	52	81
408.791	409.073	44	68
408.791	409.073	56	77
408.892	409.307	37	68
408.892	409.307	49	81
409.709	410.015	37	70
409.709	410.015	40	70
409.709	410.015	44	82
409.709	410.015	49	82
409.709	410.015	73	87
409.709	410.015	76	87
409.709	410.015	80	102
409.709	410.015	85	102
410.526	410.861	37	70
410.526	410.861	40	70
410.526	410.861	44	82
410.526	410.861	49	82
410.526	410.861	61	86
410.526	410.861	64	86
410.526	410.861	68	101
410.526	410.861	73	101
