OnsetTime	OffsetTime	MidiPitch	Velocity
0.500004	3.01519	36	50
0.664384	1.30877	52	28
0.828025	1.4675	55	30
0.989897	1.62624	60	32
1.15004	1.78497	64	34
1.15004	1.78497	79	50
1.30877	1.93725	52	31
1.4675	2.08954	55	31
1.62624	2.24182	60	31
1.78497	2.3941	64	35
1.78497	3.01519	79	54
1.93725	2.54638	52	30
2.08954	2.69867	55	31
2.24182	2.85095	60	33
2.3941	3.01519	64	36
2.54638	3.01519	52	33
2.69867	3.01519	55	33
2.69867	3.01519	76	47
2.85095	3.01519	60	33
3.00323	4.18727	74	50
3.14677	3.72664	53	28
3.29031	3.87589	55	31
3.43385	4.02514	59	33
3.57739	4.18727	62	36
3.57739	4.18727	67	41
3.72664	4.18727	53	33
3.87589	4.18727	55	33
4.02514	4.18727	59	34
4.17439	5.42175	72	50
4.32887	4.9468	52	28
4.48336	5.10128	55	30
4.63784	5.25577	60	32
4.79232	5.42175	64	34
4.79232	5.42175	76	47
4.9468	5.42175	52	32
5.10128	5.42175	55	32
5.25577	5.42175	48	31
5.25577	5.42175	60	33
5.40875	7.80285	36	50
5.56427	6.17214	52	28
5.71825	6.32213	55	30
5.87094	6.47212	60	32
6.02215	6.62211	64	34
6.02215	6.62211	79	50
6.17214	6.76853	52	31
6.32213	6.91495	55	31
6.47212	7.06138	60	31
6.62211	7.2078	64	35
6.62211	7.80285	79	54
6.76853	7.35422	52	30
6.91495	7.50064	55	31
7.06138	7.64706	60	33
7.2078	7.80285	64	36
7.35422	7.80285	52	33
7.50064	7.80285	55	33
7.50064	7.80285	76	47
7.64706	7.80285	60	33
7.79349	8.95343	74	50
7.93393	8.50167	53	28
8.07437	8.64809	55	31
8.21481	8.79451	59	33
8.35525	8.95343	62	36
8.35525	8.95343	67	41
8.50167	8.95343	53	33
8.64809	8.95343	55	33
8.79451	8.95343	59	34
8.94093	10.1534	72	50
9.24091	10.1534	52	30
9.3909	10.1534	55	32
9.54089	9.99086	60	34
9.69088	10.1534	64	32
9.84087	10.1534	62	32
9.99086	10.1534	43	30
9.99086	10.1534	60	33
10.1416	12.5036	31	45
10.1416	10.4519	59	35
10.2992	10.899	55	28
10.4519	11.0468	59	30
10.6026	11.1946	62	32
10.7512	11.3425	67	34
10.7512	11.3425	77	50
10.899	11.4862	55	31
11.0468	11.6299	59	31
11.1946	11.7736	62	31
11.3425	11.9173	67	35
11.3425	12.5036	77	54
11.4862	12.061	55	30
11.6299	12.2047	59	31
11.7736	12.5036	62	33
11.9173	12.3484	67	36
12.061	12.5036	55	33
12.2047	12.5036	59	33
12.2047	12.5036	74	47
12.3484	12.5036	67	33
12.4921	13.6308	76	50
12.63	13.1875	55	28
12.7679	13.6308	60	31
12.9059	13.4749	67	33
13.0438	13.6308	72	41
13.1875	13.6308	55	28
13.3312	13.6308	64	31
13.4749	13.6308	67	33
13.6186	14.8026	71	50
13.7644	14.3473	55	28
13.9101	14.8026	62	30
14.0558	14.6388	67	32
14.2016	14.8026	74	47
14.3473	14.8026	55	28
14.493	14.8026	59	30
14.6388	14.8026	43	32
14.6388	14.8026	67	32
14.7895	17.1202	31	48
14.9471	15.5469	55	28
15.0998	15.6947	59	30
15.2505	15.8426	62	32
15.3991	15.9904	67	34
15.3991	15.9904	77	50
15.5469	16.1302	55	31
15.6947	16.27	59	31
15.8426	16.4098	62	31
15.9904	16.5496	67	35
15.9904	17.1202	77	54
16.1302	16.6894	55	30
16.27	16.8292	59	31
16.4098	17.1202	62	33
16.5496	16.9691	67	36
16.6894	17.1202	55	33
16.8292	17.1202	59	33
16.8292	17.1202	74	47
16.9691	17.1202	67	33
17.1089	18.2221	75	50
17.245	17.7925	55	28
17.3811	18.2221	60	31
17.5172	18.0708	67	33
17.6533	18.2221	72	41
17.7925	18.2221	55	28
17.9316	18.2221	63	31
18.0708	18.2221	67	33
18.21	19.3872	71	50
18.3557	18.9387	55	28
18.5015	19.3872	62	30
18.6472	19.2302	67	32
18.7929	19.3872	74	47
18.9387	19.3872	55	28
19.0844	19.3872	59	30
19.2302	19.3872	67	32
19.3759	20.4891	76	50
19.512	20.0595	55	28
19.6481	20.4891	60	31
19.7842	20.3378	67	33
19.9203	20.4891	72	41
20.0595	20.4891	55	28
20.1987	20.4891	64	31
20.3378	20.4891	67	33
20.477	21.6543	71	50
20.6227	21.2057	55	28
20.7685	21.6543	62	30
20.9142	21.4972	67	32
21.06	21.6543	74	47
21.2057	21.6543	55	28
21.3514	21.6543	59	30
21.4972	21.6543	67	32
21.6429	22.7562	75	50
21.779	22.3265	55	28
21.9151	22.4657	60	31
22.0512	22.7562	67	33
22.1873	22.7562	72	41
22.3265	22.7562	55	28
22.4657	22.7562	60	31
22.6048	22.7562	63	33
22.744	23.327	79	50
22.8898	23.4713	55	28
23.0355	23.9165	59	30
23.1812	23.9165	62	32
23.327	23.9045	79	47
23.4713	23.9165	55	28
23.6157	23.9165	60	30
23.7601	23.9165	63	32
23.9045	24.4819	79	50
24.0488	24.6263	55	28
24.1932	25.0714	59	30
24.3376	25.0714	62	32
24.4819	25.0594	79	47
24.6263	25.0714	55	28
24.7707	25.0714	60	30
24.915	25.0714	63	32
25.0594	25.641	79	50
25.204	25.7879	55	28
25.3491	26.2441	59	30
25.4948	26.2441	62	32
25.641	26.2316	79	47
25.7879	26.2441	55	28
25.9352	26.2441	57	30
26.0831	26.2441	60	32
26.2316	27.4031	79	47
26.379	27.4031	55	36
26.5252	27.4031	59	38
26.6709	27.4031	62	35
26.816	27.3912	67	43
26.9606	27.4031	71	39
27.1047	27.4031	69	41
27.2482	27.4031	66	38
27.3912	27.8171	67	43
27.5336	28.5314	59	38
27.6755	28.5314	62	41
27.8171	28.5314	67	38
27.9579	28.5197	71	46
28.0984	28.5314	74	41
28.2388	28.5314	72	41
28.3793	28.5314	69	37
28.5197	28.8006	71	47
28.6601	29.6549	67	42
28.8006	29.6549	71	47
28.941	29.6549	74	43
29.0815	29.6432	79	51
29.2219	29.6549	83	46
29.3623	29.6549	81	48
29.5028	29.6549	78	43
29.6432	30.7828	79	52
29.7837	30.2047	83	52
29.9241	30.7828	81	53
30.0645	30.7828	84	54
30.2047	30.7828	83	55
30.3446	30.7708	86	56
30.4857	30.7828	85	56
30.6277	30.7828	88	57
30.7708	31.911	86	58
30.915	31.3449	89	59
31.0588	31.7701	88	60
31.2021	31.9226	91	56
31.3449	31.6288	89	61
31.4871	31.9226	93	62
31.6288	31.9226	89	63
31.7701	31.9226	88	59
31.911	33.0324	86	65
32.0511	32.4717	89	66
32.1913	32.8923	88	66
32.3315	33.0441	91	64
32.4717	32.7521	89	68
32.6119	33.0441	93	69
32.7521	33.0441	89	70
32.8923	33.0441	88	66
33.0324	33.7334	86	69
33.1726	34.1645	89	65
33.3128	34.1645	88	67
33.453	33.8736	84	60
33.5932	34.1645	83	64
33.7334	34.1645	86	59
33.8736	34.1645	84	62
34.0137	34.1645	81	55
34.1539	34.8644	79	59
34.2948	35.3196	83	54
34.4363	35.3196	81	56
34.5785	35.0084	77	51
34.7213	35.3196	76	54
34.8644	35.3196	79	46
35.0084	35.3196	77	49
35.154	35.3196	74	42
35.3011	37.6764	36	50
35.3011	37.6764	72	49
35.4596	37.6764	43	30
35.6158	36.0732	48	32
35.7702	36.224	52	34
35.9225	36.3747	55	31
35.9225	36.5255	79	50
35.9225	36.5255	91	50
36.0732	37.6764	48	31
36.224	36.6683	52	31
36.3747	36.8112	55	35
36.5255	36.954	60	30
36.5255	37.6764	79	54
36.5255	37.6764	91	54
36.6683	37.6764	52	31
36.8112	37.2397	55	33
36.954	37.3826	60	36
37.0969	37.5255	64	33
37.2397	37.6764	55	33
37.3826	37.6764	60	33
37.3826	37.6764	76	47
37.3826	37.6764	88	47
37.5255	37.6764	64	36
37.6683	38.7986	65	28
37.6683	38.7986	74	50
37.6683	38.7986	86	50
37.8066	38.7986	64	31
37.9448	38.7986	62	33
38.0831	38.7986	60	36
38.2213	38.7986	59	33
38.2213	38.7986	67	41
38.2213	38.7986	79	41
38.3635	38.7986	57	33
38.5057	38.7986	55	34
38.6479	38.7986	53	34
38.7901	39.2273	52	28
38.7901	39.9748	72	50
38.7901	39.9748	84	50
38.9358	39.9748	55	30
39.0815	39.5188	48	32
39.2273	39.9748	52	34
39.373	39.8102	43	32
39.373	39.9748	76	47
39.373	39.9748	88	47
39.5188	39.9748	48	32
39.6645	39.9748	40	33
39.8102	39.9748	43	34
39.9617	42.2902	36	50
40.1193	42.2902	43	30
40.2705	40.7169	48	32
40.4205	40.8647	52	34
40.569	41.0125	55	31
40.569	41.1603	79	50
40.569	41.1603	91	50
40.7169	42.2902	48	31
40.8647	41.3002	52	31
41.0125	41.44	55	35
41.1603	41.5798	60	30
41.1603	42.2902	79	54
41.1603	42.2902	91	54
41.3002	42.2902	52	31
41.44	41.8594	55	33
41.5798	41.9992	60	36
41.7196	42.139	64	33
41.8594	42.2902	55	33
41.9992	42.2902	60	33
41.9992	42.2902	76	47
41.9992	42.2902	88	47
42.139	42.2902	64	33
42.2788	43.3921	65	28
42.2788	43.3921	74	50
42.2788	43.3921	86	50
42.4149	43.3921	64	31
42.551	43.3921	62	33
42.6872	43.3799	60	36
42.8233	43.2408	59	33
42.8233	43.3921	67	41
42.8233	43.3921	79	41
42.9624	43.3921	55	33
43.1016	43.3921	57	34
43.2408	43.3921	59	34
43.3799	44.56	60	28
43.3799	44.56	72	50
43.3799	44.56	84	50
43.5257	44.56	59	30
43.6714	44.56	57	32
43.8171	44.56	55	34
43.9629	44.56	53	32
44.1086	44.56	52	32
44.2544	44.56	50	33
44.4001	44.56	48	35
44.5508	46.8815	43	45
44.7084	45.1604	47	30
44.8611	45.3082	50	32
45.0119	45.4561	55	34
45.1604	46.8815	47	31
45.1604	45.7517	77	50
45.1604	45.7517	89	50
45.3082	45.7517	50	31
45.4561	45.8915	55	31
45.6039	46.0313	59	35
45.7517	46.8815	50	30
45.7517	46.8815	77	54
45.7517	46.8815	89	54
45.8915	46.311	55	31
46.0313	46.4508	59	33
46.1711	46.5906	62	36
46.311	46.8702	55	33
46.4508	46.8815	59	33
46.5906	46.8815	62	33
46.5906	46.8815	74	47
46.5906	46.8815	86	47
46.7304	46.8815	67	36
46.8702	47.4146	55	28
46.8702	47.9834	76	50
46.8702	47.9834	88	50
47.0063	47.2785	60	31
47.1424	47.693	67	33
47.2785	47.9834	60	36
47.4146	47.9713	55	28
47.4146	47.9834	72	41
47.4146	47.9834	84	41
47.5538	47.8321	64	31
47.693	47.9834	67	33
47.8321	47.9834	64	36
47.9713	48.5543	55	28
47.9713	49.1553	71	50
47.9713	49.1553	83	50
48.1171	48.4085	62	30
48.2628	48.8457	67	32
48.4085	49.1553	62	36
48.5543	49.1553	55	28
48.5543	49.1553	74	47
48.5543	49.1553	86	47
48.7	48.9915	59	30
48.8457	49.1553	67	32
48.9915	49.1553	59	35
49.1422	51.4684	43	48
49.2998	49.7518	47	30
49.4525	49.8996	50	32
49.6032	50.0474	55	34
49.7518	51.4684	47	31
49.7518	50.3431	77	50
49.7518	50.3431	89	50
49.8996	50.3431	50	31
50.0474	50.4829	55	31
50.1953	50.6227	59	35
50.3431	51.4684	50	30
50.3431	51.4684	77	54
50.3431	51.4684	89	54
50.4829	50.9023	55	31
50.6227	51.0421	59	33
50.7625	51.1819	62	36
50.9023	51.4616	55	33
51.0421	51.4684	59	33
51.1819	51.4684	62	33
51.1819	51.4684	74	47
51.1819	51.4684	86	47
51.3218	51.4684	67	36
51.4616	52.006	55	28
51.4616	52.5748	75	50
51.4616	52.5748	87	50
51.5977	51.8699	60	31
51.7338	52.2843	67	33
51.8699	52.5748	60	35
52.006	52.5627	55	28
52.006	52.5748	72	41
52.006	52.5748	84	41
52.1452	52.4235	63	31
52.2843	52.5748	67	33
52.4235	52.5748	63	35
52.5627	53.1456	55	28
52.5627	53.7399	71	50
52.5627	53.7399	83	50
52.7084	52.9999	62	30
52.8541	53.4371	67	32
52.9999	53.7399	62	35
53.1456	53.7286	55	28
53.1456	53.7399	74	47
53.1456	53.7399	86	47
53.2914	53.5828	59	30
53.4371	53.7399	67	32
53.5828	53.7399	59	35
53.7286	54.273	55	28
53.7286	54.8418	76	50
53.7286	54.8418	88	50
53.8647	54.1369	60	31
54.0008	54.5513	67	33
54.1369	54.8418	60	35
54.273	54.8297	55	28
54.273	54.8418	72	42
54.273	54.8418	84	42
54.4122	54.6905	64	32
54.5513	54.8418	67	34
54.6905	54.8418	64	37
54.8297	55.4126	55	29
54.8297	56.0069	71	53
54.8297	56.0069	83	53
54.9754	55.2669	62	32
55.1211	55.7041	67	34
55.2669	56.0069	62	38
55.4126	55.9956	55	31
55.4126	56.0069	74	52
55.4126	56.0069	86	52
55.5584	55.8498	59	33
55.7041	56.0069	67	36
55.8498	56.0069	59	39
55.9956	56.54	55	28
55.9956	57.1088	75	50
55.9956	57.1088	87	50
56.1317	56.4039	60	31
56.2678	57.1088	67	33
56.4039	56.6792	60	35
56.54	57.0967	55	28
56.54	57.1088	72	41
56.54	57.1088	84	41
56.6792	56.9575	60	31
56.8183	57.1088	63	33
56.9575	57.1088	60	35
57.0967	57.6796	55	28
57.0967	57.6796	79	50
57.2424	57.5339	59	30
57.3882	58.2693	62	32
57.5339	58.2693	59	35
57.6796	58.2571	55	28
57.6796	58.2693	79	47
57.824	58.1128	60	30
57.9684	58.2693	63	32
58.1128	58.2693	60	35
58.2571	58.8401	55	42
58.2571	58.4514	81	33
58.3543	58.5486	79	33
58.4029	58.6943	59	27
58.4514	58.6458	81	33
58.5486	58.8522	62	27
58.5486	58.7429	79	33
58.6458	58.8401	81	34
58.6943	58.8522	59	28
58.7429	58.8522	79	34
58.8401	59.4198	55	48
58.8401	59.0335	81	35
58.9368	59.1302	79	35
58.9851	59.2752	60	29
59.0335	59.2269	81	35
59.1302	59.4318	64	30
59.1302	59.3236	79	35
59.2269	59.4198	81	36
59.2752	59.4318	60	31
59.3236	59.4318	79	36
59.4198	59.9949	55	51
59.4198	59.6123	81	37
59.5161	59.7081	79	37
59.5642	59.8518	59	32
59.6123	59.8039	81	37
59.7081	60.008	62	34
59.7081	59.8995	79	39
59.8039	59.9949	81	39
59.8518	60.008	59	34
59.8995	60.008	79	39
59.9949	60.5637	55	58
59.9949	60.1851	81	39
60.0902	60.2801	79	39
60.1377	60.422	57	35
60.1851	60.3748	81	41
60.2801	60.5755	60	37
60.2801	60.4693	79	41
60.3748	60.5637	81	41
60.422	60.5755	57	39
60.4693	60.5755	79	41
60.5637	60.9836	55	64
60.5637	60.7499	81	42
60.6575	60.8445	79	42
60.7036	61.1374	59	42
60.7499	60.9374	81	42
60.8445	61.1374	57	44
60.8445	61.0308	79	42
60.9374	61.1257	81	42
60.9836	61.1374	55	45
61.0308	61.1374	79	44
61.1257	61.5462	53	69
61.1257	61.3122	81	44
61.2186	61.4071	79	44
61.2651	61.699	57	46
61.3122	61.4999	81	45
61.4071	61.699	55	48
61.4071	61.5934	79	45
61.4999	61.6883	81	45
61.5462	61.699	53	50
61.5934	61.699	79	46
61.6883	62.1082	52	77
61.6883	61.8751	81	46
61.7822	61.969	79	47
61.8286	62.2599	55	53
61.8751	62.0617	81	47
61.969	62.2599	53	55
61.969	62.1553	79	48
62.0617	62.2493	81	49
62.1082	62.2599	52	58
62.1553	62.2599	79	49
62.2493	62.6767	50	82
62.2493	62.4379	81	49
62.3434	62.533	79	49
62.3906	62.8338	53	57
62.4379	62.6286	81	50
62.533	62.8338	52	58
62.533	62.7248	79	50
62.6286	62.8218	81	51
62.6767	62.8338	50	59
62.7248	62.8338	79	51
62.8218	65.0469	36	94
62.8218	65.0469	48	94
62.8218	63.0103	81	48
62.9165	63.1051	79	35
62.9631	65.0469	50	56
63.0103	63.1977	81	38
63.0341	65.0469	52	57
63.1051	65.0469	53	60
63.1051	63.2909	79	35
63.1748	65.0469	55	60
63.1977	63.3844	81	38
63.2442	65.0469	57	62
63.2909	63.4758	79	36
63.3143	65.0389	59	63
63.3844	64.9	60	63
63.3844	63.5672	81	40
63.3844	63.9298	91	89
63.4758	63.6597	79	36
63.5212	64.7627	62	65
63.5672	63.7478	81	40
63.5904	64.6218	64	66
63.6597	64.4841	65	67
63.6597	63.8391	79	36
63.7257	64.344	67	69
63.7478	63.9298	81	40
63.7931	64.2056	69	70
63.8391	64.0208	79	36
63.8618	64.0659	71	71
63.9298	65.0469	72	74
63.9298	64.1117	81	40
63.9298	65.0469	91	90
64.0208	64.2056	79	37
64.0659	65.0469	71	71
64.1117	64.2978	81	40
64.2056	65.0469	69	71
64.2056	64.3907	79	36
64.2978	64.4841	81	40
64.344	65.0469	67	71
64.3907	64.5761	79	36
64.4841	65.0469	65	72
64.4841	64.6683	81	40
64.5761	64.7627	79	35
64.6218	65.0469	64	69
64.6683	64.854	81	38
64.7627	65.0469	62	69
64.7627	64.9466	79	33
64.7627	65.0469	88	85
64.854	65.0389	81	38
64.9	65.0469	60	67
64.9466	65.0469	79	34
65.0389	65.3089	59	73
65.0389	65.2183	81	38
65.0389	67.2794	86	90
65.1291	65.3089	79	34
65.1738	67.2794	60	69
65.2183	65.3976	81	36
65.3089	67.2794	59	69
65.3089	65.4885	79	33
65.3976	65.5791	81	37
65.4427	67.2794	57	69
65.4885	65.5791	79	33
65.5791	67.2794	55	75
65.5791	65.6712	79	84
65.5791	65.7631	81	37
65.6712	65.8555	79	33
65.7167	67.2794	53	69
65.7631	65.9469	81	38
65.8555	67.2794	52	69
65.8555	66.0401	79	32
65.9469	66.1325	81	37
65.9936	67.2794	50	69
66.0401	66.2247	79	32
66.1325	66.2707	48	75
66.1325	66.317	81	38
66.1325	67.2794	84	87
66.2247	66.4107	79	32
66.2707	67.2743	48	69
66.317	66.5035	81	37
66.4107	67.2794	47	69
66.4107	66.5966	79	32
66.5035	66.6895	81	36
66.5505	67.2794	45	69
66.5966	66.7848	79	32
66.6895	67.2794	43	72
66.6895	66.8824	81	36
66.6895	67.2794	88	84
66.7848	66.9777	79	34
66.8336	67.2794	41	71
66.8824	67.0743	81	37
66.9777	67.2794	40	75
66.9777	67.1733	79	33
67.0743	67.2743	81	36
67.1228	67.2794	38	80
67.1733	67.2794	79	32
67.2743	69.5934	36	95
67.2743	69.5934	48	95
67.2743	67.4759	81	36
67.3767	67.5814	79	32
67.4264	69.5934	50	56
67.4759	67.6833	81	37
67.5023	69.5934	52	57
67.5814	69.5934	53	60
67.5814	67.7853	79	33
67.6583	69.5934	55	60
67.6833	67.8873	81	38
67.734	69.5934	57	62
67.7853	67.9842	79	33
67.8109	69.5855	59	63
67.8873	69.4462	60	63
67.8873	68.082	81	39
67.8873	68.4722	91	90
67.9842	68.1811	79	35
68.0329	69.3077	62	65
68.082	68.2779	81	40
68.1069	69.1678	64	66
68.1811	69.0278	65	67
68.1811	68.3767	79	36
68.2536	68.8881	67	69
68.2779	68.4722	81	40
68.3274	68.7495	69	70
68.3767	68.564	79	36
68.4007	68.6096	71	71
68.4722	69.5934	72	74
68.4722	68.6557	81	40
68.4722	69.5934	91	92
68.564	68.7495	79	37
68.6096	69.5934	71	71
68.6557	68.8415	81	40
68.7495	69.5934	69	71
68.7495	68.9351	79	36
68.8415	69.0278	81	40
68.8881	69.5934	67	71
68.9351	69.1204	79	36
69.0278	69.5934	65	72
69.0278	69.2152	81	39
69.1204	69.3077	79	36
69.1678	69.5934	64	69
69.2152	69.3996	81	38
69.3077	69.5934	62	69
69.3077	69.4927	79	32
69.3077	69.5934	88	84
69.3996	69.5855	81	37
69.4462	69.5934	60	67
69.4927	69.5934	79	33
69.5855	69.8556	59	73
69.5855	69.7646	81	39
69.5855	70.6878	86	90
69.6753	69.8556	79	32
69.7197	70.6878	60	69
69.7646	69.9453	81	36
69.8556	70.6878	59	69
69.8556	70.0355	79	31
69.9453	70.1274	81	36
69.99	70.6878	57	69
70.0355	70.1274	79	30
70.1274	70.6878	55	75
70.1274	70.2199	79	82
70.1274	70.3114	81	36
70.2199	70.4044	79	31
70.2657	70.6878	53	69
70.3114	70.6878	81	36
70.4044	70.6878	52	69
70.4044	70.5889	79	34
70.4961	70.6878	78	36
70.5425	70.6878	50	69
70.5889	70.6878	79	31
70.6808	70.9622	48	75
70.6808	70.9622	84	86
70.9622	71.2435	36	75
71.2435	71.3373	60	68
71.3373	71.4311	64	62
71.4311	71.5249	60	62
71.5249	71.8062	36	60
71.5249	71.8062	48	71
71.5249	71.6186	55	62
71.6186	71.7124	52	62
71.7124	71.8062	55	62
71.8062	71.8987	60	68
71.8987	71.9911	65	62
71.9911	72.0836	60	62
72.0836	72.361	36	60
72.0836	72.361	48	71
72.0836	72.1761	57	62
72.1761	72.2685	53	62
72.2685	72.361	57	62
72.361	72.4535	60	68
72.4535	72.546	64	61
72.546	72.6384	60	61
72.6384	72.9158	36	57
72.6384	72.9158	48	68
72.6384	72.7309	55	61
72.7309	72.8234	52	61
72.8234	72.9158	55	61
72.9158	73.0083	60	63
73.0083	73.1008	62	59
73.1008	73.1932	60	59
73.1932	73.4706	36	53
73.1932	73.4706	48	63
73.1932	73.2857	53	59
73.2857	73.3782	50	59
73.3782	73.4706	53	59
73.4706	73.5644	60	68
73.5644	73.6582	63	61
73.6582	73.752	60	61
73.752	74.0333	36	59
73.752	74.0333	48	70
73.752	73.8458	54	61
73.8458	73.9396	51	61
73.9396	74.0333	54	61
74.0333	74.1271	60	68
74.1271	74.2209	64	62
74.2209	74.3147	60	62
74.3147	74.596	36	60
74.3147	74.596	48	71
74.3147	74.4085	55	62
74.4085	74.5023	52	62
74.5023	74.596	55	62
74.596	74.6907	59	68
74.6907	74.7854	62	61
74.7854	74.8801	59	61
74.8801	75.1641	36	60
74.8801	75.1641	48	71
74.8801	74.9748	53	61
74.9748	75.0695	50	61
75.0695	75.1641	53	61
75.1641	75.2579	55	68
75.2579	75.3517	60	62
75.3517	75.4455	55	62
75.4455	75.7268	36	71
75.4455	75.5393	52	62
75.5393	75.6331	48	62
75.6331	75.7268	52	62
75.7268	75.8206	64	68
75.8206	75.9144	67	62
75.9144	76.0082	64	62
76.0082	76.2895	40	60
76.0082	76.2895	48	60
76.0082	76.2895	52	71
76.0082	76.102	60	62
76.102	76.1958	55	62
76.1958	76.2895	60	62
76.2895	76.382	65	68
76.382	76.4745	69	62
76.4745	76.567	65	62
76.567	76.8444	41	60
76.567	76.8444	48	60
76.567	76.8444	53	71
76.567	76.6594	60	62
76.6594	76.7519	57	62
76.7519	76.8444	60	62
76.8444	76.9368	64	68
76.9368	77.0293	67	61
77.0293	77.1218	64	61
77.1218	77.3992	40	57
77.1218	77.3992	48	57
77.1218	77.3992	52	68
77.1218	77.2142	60	61
77.2142	77.3067	55	61
77.3067	77.3992	60	61
77.3992	77.4916	62	63
77.4916	77.5841	65	59
77.5841	77.6766	62	59
77.6766	77.954	38	53
77.6766	77.954	48	53
77.6766	77.954	50	63
77.6766	77.7691	60	59
77.7691	77.8615	53	59
77.8615	77.954	60	59
77.954	78.0478	63	68
78.0478	78.1416	66	61
78.1416	78.2353	63	61
78.2353	78.5167	39	59
78.2353	78.5167	48	59
78.2353	78.5167	51	70
78.2353	78.3291	60	61
78.3291	78.4229	54	61
78.4229	78.5167	60	61
78.5167	78.6105	64	68
78.6105	78.7043	67	62
78.7043	78.798	64	62
78.798	79.0794	40	60
78.798	79.0794	48	60
78.798	79.0794	52	71
78.798	78.8918	60	62
78.8918	78.9856	55	62
78.9856	79.0794	60	62
79.0794	79.1741	62	68
79.1741	79.2688	65	61
79.2688	79.3634	62	61
79.3634	79.6475	38	60
79.3634	79.6475	48	60
79.3634	79.6475	50	71
79.3634	79.4581	59	61
79.4581	79.5528	53	61
79.5528	79.6475	59	61
79.6475	79.7417	60	68
79.7417	79.8364	64	62
79.8364	79.9315	60	62
79.9315	80.2198	36	63
79.9315	80.2198	48	63
79.9315	80.0271	52	62
80.0271	80.1231	64	62
80.1231	80.2198	52	62
80.2198	80.3611	40	82
80.314	80.4082	52	70
80.4082	80.5024	64	70
80.5024	80.6438	40	82
80.5967	80.6909	52	71
80.6909	80.7851	64	72
80.7851	80.9258	33	68
80.7851	80.9258	45	80
80.8789	80.9727	57	73
80.9727	81.0665	69	74
81.0665	81.2071	35	70
81.0665	81.2071	47	83
81.1602	81.254	59	75
81.254	81.3478	71	77
81.3478	81.4887	36	72
81.3478	81.4887	48	85
81.4416	81.5359	60	78
81.5359	81.6308	72	79
81.6308	81.7741	38	74
81.6308	81.7741	50	89
81.7262	81.8221	62	80
81.8221	81.9187	74	81
81.9187	82.4922	40	80
81.9187	82.4922	52	95
81.9187	82.0143	76	85
82.0143	82.1099	64	85
82.1099	82.2055	76	84
82.2055	82.301	64	84
82.301	82.3966	76	84
82.3966	82.4922	64	82
82.4922	82.6316	40	74
82.4922	82.6316	52	88
82.5851	82.678	64	79
82.678	82.7709	76	78
82.7709	82.9103	38	73
82.7709	82.9103	50	86
82.8638	82.9567	62	77
82.9567	83.0496	74	77
83.0496	83.1896	36	71
83.0496	83.1896	48	84
83.143	83.2363	60	75
83.2363	83.3296	72	75
83.3296	83.4697	35	69
83.3296	83.4697	47	82
83.423	83.5163	59	74
83.5163	83.6095	71	74
83.6095	83.7487	36	68
83.6095	83.7487	48	80
83.6789	83.772	60	73
83.7954	83.8893	72	73
83.8893	84.0312	33	67
83.8893	84.0312	45	79
83.9837	84.0787	57	72
84.0787	84.1744	69	73
84.1744	84.7467	40	92
84.1744	84.2687	64	85
84.2687	84.3633	52	77
84.3633	84.4585	64	77
84.4585	84.5541	52	77
84.5541	84.6501	64	77
84.6501	84.7467	52	77
84.7467	84.8881	40	69
84.7467	84.8881	52	82
84.8409	84.9352	64	70
84.9352	85.0294	76	70
85.0294	85.1707	40	69
85.0294	85.1707	52	82
85.1236	85.2178	64	71
85.2178	85.3121	74	72
85.3121	85.4527	45	68
85.3121	85.4527	57	80
85.4059	85.4996	69	73
85.4996	85.5934	81	74
85.5934	85.7341	47	70
85.5934	85.7341	59	83
85.6872	85.781	71	75
85.781	85.8747	83	77
85.8747	86.0156	48	72
85.8747	86.0156	60	85
85.9685	86.0629	72	78
86.0629	86.1578	84	79
86.1578	86.301	50	74
86.1578	86.301	62	89
86.2531	86.3491	74	80
86.3491	86.4457	86	81
86.4457	87.0192	52	80
86.4457	87.0192	64	95
86.4457	86.5413	88	85
86.5413	86.6368	76	85
86.6368	86.7324	88	84
86.7324	86.828	76	84
86.828	86.9236	88	84
86.9236	87.0192	76	82
87.0192	87.1585	52	74
87.0192	87.1585	64	88
87.1121	87.205	76	79
87.205	87.2979	88	78
87.2979	87.4372	50	73
87.2979	87.4372	62	86
87.3908	87.4837	74	77
87.4837	87.5766	86	77
87.5766	87.7166	48	71
87.5766	87.7166	60	84
87.6699	87.7633	72	75
87.7633	87.8566	84	75
87.8566	87.9966	47	69
87.8566	87.9966	59	82
87.9499	88.0433	71	74
88.0433	88.1364	83	74
88.1364	88.2757	48	68
88.1364	88.2757	60	80
88.2059	88.299	72	73
88.3223	88.4162	84	73
88.4162	88.5581	45	67
88.4162	88.5581	57	79
88.5107	88.6057	69	72
88.6057	88.7014	81	73
88.7014	89.2776	40	70
88.7014	89.2776	52	82
88.7014	88.7974	76	82
88.7974	88.8935	64	78
88.8935	88.9895	76	78
88.9895	89.0855	64	78
89.0855	89.1816	76	78
89.1816	89.2776	64	78
89.2776	89.4183	41	56
89.2776	89.4183	45	67
89.2776	89.4183	53	79
89.2776	89.3714	81	80
89.3714	89.4652	69	75
89.4652	89.559	81	75
89.559	89.6996	41	53
89.559	89.6996	45	63
89.559	89.6996	53	75
89.559	89.6527	69	75
89.6527	89.7465	81	75
89.7465	89.8403	69	75
89.8403	89.981	40	56
89.8403	89.981	45	67
89.8403	89.981	52	79
89.8403	89.9341	81	82
89.9341	90.0278	69	75
90.0278	90.1216	81	75
90.1216	90.2623	40	56
90.1216	90.2623	45	67
90.1216	90.2623	52	79
90.1216	90.2154	69	75
90.2154	90.3092	81	75
90.3092	90.403	69	75
90.403	90.5463	38	56
90.403	90.5463	45	66
90.403	90.5463	50	78
90.403	90.4985	81	82
90.4985	90.5941	69	75
90.5941	90.6897	81	75
90.6897	90.8331	38	56
90.6897	90.8331	45	66
90.6897	90.8331	50	78
90.6897	90.7853	69	75
90.7853	90.8809	81	75
90.8809	90.9765	69	75
90.9765	91.1198	36	56
90.9765	91.1198	45	66
90.9765	91.1198	48	78
90.9765	91.0721	81	81
91.0721	91.1676	69	75
91.1676	91.2632	81	75
91.2632	91.412	36	56
91.2632	91.412	45	67
91.2632	91.412	48	79
91.2632	91.3588	69	75
91.3588	91.4651	81	75
91.4651	91.5714	69	75
91.5714	91.7148	38	53
91.5714	91.7148	45	63
91.5714	91.7148	50	75
91.5714	91.667	77	81
91.667	91.7626	79	77
91.7626	91.8582	81	77
91.8582	92.0016	38	52
91.8582	92.0016	45	62
91.8582	92.0016	50	74
91.8582	91.9538	77	79
91.9538	92.0494	76	75
92.0494	92.145	74	75
92.145	92.2866	40	56
92.145	92.2866	45	67
92.145	92.2866	52	79
92.145	92.2395	72	80
92.2395	92.3337	74	74
92.3337	92.428	76	74
92.428	92.5693	40	64
92.428	92.5693	52	77
92.428	92.5222	72	78
92.5222	92.6164	71	71
92.6164	92.7106	69	71
92.7106	92.8547	40	62
92.7106	92.8547	52	74
92.7106	92.8067	71	81
92.8067	92.9027	72	73
92.9027	92.9988	74	73
92.9988	93.1471	40	62
92.9988	93.1471	52	74
92.9988	93.0948	71	79
93.0948	93.1994	69	75
93.1994	93.3041	68	75
93.3041	93.4532	36	80
93.3041	93.4035	69	79
93.4035	93.5029	57	75
93.4532	93.6023	45	66
93.5029	93.6023	69	75
93.6023	93.7514	44	66
93.6023	93.7017	57	75
93.7017	93.8011	69	75
93.7514	93.9005	45	66
93.8011	93.9005	57	75
93.9005	94.0412	41	84
93.9005	93.9943	69	80
93.9943	94.0881	57	75
94.0412	94.1818	45	64
94.0881	94.1818	69	75
94.1818	94.3225	44	64
94.1818	94.2756	57	75
94.2756	94.3694	69	75
94.3225	94.4632	45	64
94.3694	94.4632	57	75
94.4632	94.6038	40	84
94.4632	94.557	69	82
94.557	94.6507	57	75
94.6038	94.7445	45	67
94.6507	94.7445	69	75
94.7445	94.8852	44	67
94.7445	94.8383	57	75
94.8383	94.9321	69	75
94.8852	95.0258	45	67
94.9321	95.0258	57	75
95.0258	95.1692	38	82
95.0258	95.1214	69	82
95.1214	95.217	57	75
95.1692	95.3126	45	66
95.217	95.3126	69	75
95.3126	95.456	44	66
95.3126	95.4082	57	75
95.4082	95.5038	69	75
95.456	95.5994	45	66
95.5038	95.5994	57	75
95.5994	95.7427	36	82
95.5994	95.6949	69	81
95.6949	95.7905	57	75
95.7427	95.8861	45	63
95.7905	95.8861	69	75
95.8861	96.0349	44	66
95.8861	95.9817	57	75
95.9817	96.088	69	75
96.0349	96.1943	45	67
96.088	96.1943	57	75
96.1943	96.3377	38	85
96.1943	96.2899	65	81
96.2899	96.3855	67	77
96.3377	96.4811	45	66
96.3855	96.4811	69	77
96.4811	96.6245	38	66
96.4811	96.5767	65	79
96.5767	96.6723	64	75
96.6245	96.7678	45	66
96.6723	96.7678	62	75
96.7678	96.9095	40	85
96.7678	96.8624	60	80
96.8624	96.9566	62	74
96.9095	97.0508	45	67
96.9566	97.0508	64	74
97.0508	97.1922	40	74
97.0508	97.1451	60	78
97.1451	97.2393	59	71
97.1922	97.3335	52	67
97.2393	97.3335	57	71
97.3335	97.4776	40	83
97.3335	97.4296	59	81
97.4296	97.5256	60	73
97.4776	97.6216	52	66
97.5256	97.6216	62	73
97.6216	97.77	40	69
97.6216	97.7177	59	79
97.7177	97.8223	57	75
97.77	97.927	52	63
97.8223	97.927	56	75
97.927	98.0728	45	70
97.927	98.2185	57	79
98.0728	98.2185	52	67
98.2185	98.3643	48	68
98.3643	98.5101	52	68
98.5101	98.809	45	59
98.5101	98.6595	47	70
98.5101	98.6595	76	80
98.5101	98.6595	88	95
98.6595	98.809	52	66
98.809	99.1078	45	55
98.809	98.9584	50	66
98.809	98.9584	76	80
98.809	98.9584	88	95
98.9584	99.1078	52	66
99.1078	99.3994	45	59
99.1078	99.2536	48	70
99.1078	99.2536	64	77
99.1078	99.2536	76	91
99.2536	99.3994	52	63
99.3994	99.6909	45	53
99.3994	99.5452	48	63
99.3994	99.5452	64	77
99.3994	99.5452	76	91
99.5452	99.6909	52	63
99.6909	99.9783	45	59
99.6909	99.8346	47	70
99.6909	99.8346	64	79
99.6909	99.8346	76	93
99.8346	99.9783	52	66
99.9783	100.266	45	55
99.9783	100.122	50	66
99.9783	100.122	68	82
99.9783	100.122	80	97
100.122	100.266	52	66
100.266	100.565	45	59
100.266	100.415	48	70
100.266	100.863	69	85
100.266	100.863	81	100
100.415	100.565	57	63
100.565	100.714	52	63
100.714	100.863	57	63
100.863	101.149	45	36
100.863	101.006	50	43
100.863	101.006	83	58
101.006	101.149	56	37
101.006	101.149	86	53
101.149	101.292	52	37
101.149	101.292	84	53
101.292	101.435	56	37
101.292	101.435	83	53
101.435	101.721	45	36
101.435	101.578	48	44
101.435	101.578	84	56
101.578	101.721	57	38
101.578	101.721	88	53
101.721	101.864	52	38
101.721	101.864	86	53
101.864	102.007	57	38
101.864	102.007	84	53
102.007	102.297	45	36
102.007	102.152	50	44
102.007	102.152	83	58
102.152	102.297	56	38
102.152	102.297	86	53
102.297	102.443	52	38
102.297	102.443	84	53
102.443	102.591	56	38
102.443	102.591	83	53
102.591	102.881	45	36
102.591	102.736	48	44
102.591	103.171	81	52
102.736	102.881	57	37
102.881	103.026	52	37
103.026	103.171	57	37
103.188	103.487	45	59
103.188	103.337	47	70
103.188	103.337	76	80
103.188	103.337	88	95
103.337	103.487	52	66
103.487	103.786	45	55
103.487	103.636	50	66
103.487	103.636	76	80
103.487	103.636	88	95
103.636	103.786	52	66
103.786	104.077	45	59
103.786	103.932	48	70
103.786	103.932	64	77
103.786	103.932	76	91
103.932	104.077	52	63
104.077	104.369	45	53
104.077	104.223	48	63
104.077	104.223	64	77
104.077	104.223	76	91
104.223	104.369	52	63
104.369	104.656	45	59
104.369	104.513	47	70
104.369	104.513	64	79
104.369	104.513	76	93
104.513	104.656	52	66
104.656	104.944	45	55
104.656	104.8	50	66
104.656	104.8	68	82
104.656	104.8	80	97
104.8	104.944	52	66
104.944	105.242	45	59
104.944	105.093	48	70
104.944	105.541	69	85
104.944	105.541	81	100
105.093	105.242	57	63
105.242	105.392	52	63
105.392	105.541	57	63
105.524	105.811	45	36
105.524	105.668	50	43
105.524	105.668	83	58
105.668	105.811	56	37
105.668	105.811	86	53
105.811	105.954	52	37
105.811	105.954	84	53
105.954	106.097	56	37
105.954	106.097	83	52
106.097	106.383	45	35
106.097	106.24	48	43
106.097	106.24	84	55
106.24	106.383	57	37
106.24	106.383	88	52
106.383	106.526	52	37
106.383	106.526	86	51
106.526	106.669	57	37
106.526	106.669	84	51
106.669	106.955	45	35
106.669	106.812	50	43
106.669	106.812	83	56
106.812	106.955	56	37
106.812	106.955	86	51
106.955	107.1	52	37
106.955	107.1	84	51
107.1	107.244	56	37
107.1	107.244	83	51
107.244	107.53	45	34
107.244	107.387	48	42
107.244	107.387	81	53
107.387	107.53	57	36
107.387	107.53	84	49
107.53	107.673	52	35
107.53	107.673	83	48
107.673	107.816	57	35
107.673	107.816	81	48
107.816	108.102	45	32
107.816	107.959	50	37
107.816	107.959	83	52
107.959	108.102	56	33
107.959	108.102	86	46
108.102	108.245	52	33
108.102	108.245	84	46
108.245	108.388	56	32
108.245	108.388	83	45
108.388	108.674	45	31
108.388	108.531	48	38
108.388	108.531	84	46
108.531	108.674	57	33
108.531	108.674	88	43
108.674	108.817	52	32
108.674	108.817	86	42
108.817	108.96	57	32
108.817	108.96	84	42
108.96	109.246	45	29
108.96	109.103	50	34
108.96	109.103	83	45
109.103	109.246	56	31
109.103	109.246	86	40
109.246	109.389	52	29
109.246	109.389	84	39
109.389	109.532	56	29
109.389	109.532	83	39
109.532	109.817	45	26
109.532	109.675	48	32
109.532	109.675	81	39
109.675	109.817	57	28
109.675	109.817	84	37
109.817	109.96	52	28
109.817	109.96	83	37
109.96	110.103	57	28
109.96	110.103	81	37
110.103	110.389	45	26
110.103	110.246	50	32
110.103	110.246	83	41
110.246	110.389	56	28
110.246	110.389	86	37
110.389	110.533	52	28
110.389	110.533	84	37
110.533	110.676	56	28
110.533	110.676	83	37
110.676	110.965	45	26
110.676	110.821	48	32
110.676	110.821	81	39
110.821	110.965	57	28
110.821	110.965	84	37
110.965	111.11	52	28
110.965	111.11	83	37
111.11	111.255	57	28
111.11	111.255	81	37
111.255	111.546	45	26
111.255	111.4	50	32
111.255	111.4	83	41
111.4	111.546	56	28
111.4	111.546	86	37
111.546	111.691	52	28
111.546	111.691	84	37
111.691	111.837	56	28
111.691	111.837	83	37
111.837	116.578	45	62
111.837	115.571	57	62
111.837	116.578	81	92
112.453	113.084	64	63
112.453	113.084	76	92
113.084	114.937	64	74
113.084	116.578	76	97
114.007	116.578	60	47
114.007	116.578	72	53
114.315	116.578	59	50
114.315	116.578	71	58
114.937	116.578	52	47
114.937	116.578	64	54
115.571	116.578	57	47
115.571	116.578	69	54
116.839	121.602	29	74
116.839	121.602	41	74
116.839	120.596	53	102
117.47	118.109	60	74
117.47	118.109	72	92
117.47	118.109	84	92
118.109	119.962	60	79
118.109	119.962	72	95
118.109	121.602	84	95
119.032	121.602	57	48
119.032	121.602	69	57
119.032	121.602	81	57
119.34	121.602	55	53
119.34	121.602	67	60
119.34	121.602	79	60
119.962	121.602	48	49
119.962	121.602	60	56
119.962	121.602	72	56
120.596	121.602	53	49
120.596	121.602	65	56
120.596	121.602	77	56
121.864	131.053	31	90
121.864	127.552	43	90
121.864	124.987	55	103
122.495	123.134	65	80
122.495	123.134	77	63
122.495	123.134	89	90
123.134	125.621	65	81
123.134	125.621	77	67
123.134	131.751	89	93
124.057	126.572	62	53
124.057	126.572	74	56
124.057	131.751	86	66
124.365	126.899	59	59
124.365	126.899	71	58
124.365	131.751	83	69
124.987	127.552	55	55
124.987	127.552	67	49
124.987	131.751	79	58
125.621	128.211	53	55
125.621	128.211	65	54
125.621	131.751	77	64
126.572	129.224	50	44
126.572	129.224	62	44
126.572	131.751	74	52
126.899	129.573	47	51
126.899	129.573	59	46
126.899	131.751	71	55
127.552	131.053	43	36
127.552	131.053	55	41
127.552	131.751	67	49
128.211	131.751	41	41
128.211	131.751	53	43
128.211	131.751	65	51
129.224	131.751	38	33
129.224	131.751	50	34
129.224	131.751	62	40
129.573	131.751	35	33
129.573	131.751	47	34
129.573	131.751	59	40
131.053	131.793	31	28
131.053	131.793	43	33
131.053	131.793	55	40
132.528	135.039	36	50
132.696	133.344	52	28
132.862	133.501	55	30
133.026	133.658	60	32
133.187	133.815	64	34
133.187	133.815	79	50
133.344	133.967	52	31
133.501	134.118	55	31
133.658	134.27	60	31
133.815	134.421	64	35
133.815	135.039	79	54
133.967	134.573	52	30
134.118	134.724	55	31
134.27	134.876	60	33
134.421	135.039	64	36
134.573	135.039	52	33
134.724	135.039	55	33
134.724	135.039	76	47
134.876	135.039	60	33
135.028	136.211	74	50
135.171	135.752	53	28
135.315	135.902	55	31
135.458	136.052	59	33
135.602	136.211	62	36
135.602	136.211	67	41
135.752	136.211	53	33
135.902	136.211	55	33
136.052	136.211	59	34
136.202	137.459	72	50
136.358	136.983	52	28
136.514	137.139	55	30
136.67	137.295	60	32
136.827	137.459	64	34
136.827	137.459	76	47
136.983	137.459	52	32
137.139	137.459	55	32
137.295	137.459	48	31
137.295	137.459	60	33
137.447	139.866	36	50
137.607	138.224	52	28
137.764	138.375	55	30
137.92	138.527	60	32
138.073	138.678	64	34
138.073	138.678	79	50
138.224	138.825	52	31
138.375	138.973	55	31
138.527	139.12	60	31
138.678	139.267	64	35
138.678	139.866	79	54
138.825	139.414	52	30
138.973	139.561	55	31
139.12	139.708	60	33
139.267	139.866	64	36
139.414	139.866	52	33
139.561	139.866	55	33
139.561	139.866	76	47
139.708	139.866	60	33
139.855	141.015	74	50
139.996	140.565	53	28
140.138	140.711	55	31
140.279	140.857	59	33
140.42	141.015	62	36
140.42	141.015	67	41
140.565	141.015	53	33
140.711	141.015	55	33
140.857	141.015	59	34
141.003	142.215	72	50
141.302	142.215	52	30
141.452	142.215	55	32
141.602	142.052	60	34
141.752	142.215	64	32
141.902	142.215	62	32
142.052	142.215	43	30
142.052	142.215	60	33
142.202	144.557	31	45
142.202	142.513	59	35
142.36	142.96	55	28
142.513	143.108	59	30
142.663	143.255	62	32
142.812	143.403	67	34
142.812	143.403	77	50
142.96	143.546	55	31
143.108	143.689	59	31
143.255	143.832	62	31
143.403	143.975	67	35
143.403	144.557	77	54
143.546	144.118	55	30
143.689	144.261	59	31
143.832	144.557	62	33
143.975	144.404	67	36
144.118	144.557	55	33
144.261	144.557	59	33
144.261	144.557	74	47
144.404	144.557	67	33
144.548	145.682	76	50
144.686	145.244	55	28
144.825	145.682	60	31
144.963	145.529	67	33
145.102	145.682	72	41
145.244	145.682	55	28
145.386	145.682	64	31
145.529	145.682	67	33
145.671	146.855	71	50
145.817	146.4	55	28
145.963	146.855	62	30
146.108	146.691	67	32
146.254	146.855	74	47
146.4	146.855	55	28
146.546	146.855	59	30
146.691	146.855	43	32
146.691	146.855	67	32
146.842	149.169	31	48
147.0	147.6	55	28
147.152	147.747	59	30
147.303	147.895	62	32
147.452	148.043	67	34
147.452	148.043	77	50
147.6	148.183	55	31
147.747	148.323	59	31
147.895	148.462	62	31
148.043	148.602	67	35
148.043	149.169	77	54
148.183	148.742	55	30
148.323	148.882	59	31
148.462	149.169	62	33
148.602	149.022	67	36
148.742	149.169	55	33
148.882	149.169	59	33
148.882	149.169	74	47
149.022	149.169	67	33
149.162	150.274	75	50
149.298	149.845	55	28
149.434	150.274	60	31
149.57	150.123	67	33
149.706	150.274	72	41
149.845	150.274	55	28
149.984	150.274	63	31
150.123	150.274	67	33
150.263	151.439	71	50
150.408	150.991	55	28
150.554	151.439	62	30
150.7	151.283	67	32
150.846	151.439	74	47
150.991	151.439	55	28
151.137	151.439	59	30
151.283	151.439	67	32
151.429	152.538	76	50
151.565	152.112	55	28
151.701	152.538	60	31
151.837	152.39	67	33
151.973	152.538	72	41
152.112	152.538	55	28
152.251	152.538	64	31
152.39	152.538	67	33
152.53	153.707	71	50
152.675	153.258	55	28
152.821	153.707	62	30
152.967	153.55	67	32
153.113	153.707	74	47
153.258	153.707	55	28
153.404	153.707	59	30
153.55	153.707	67	32
153.696	154.805	75	50
153.832	154.379	55	28
153.968	154.518	60	31
154.104	154.805	67	33
154.24	154.805	72	41
154.379	154.805	55	28
154.518	154.805	60	31
154.657	154.805	63	33
154.797	155.38	79	50
154.942	155.524	55	28
155.088	155.965	59	30
155.234	155.965	62	32
155.38	155.957	79	47
155.524	155.965	55	28
155.668	155.965	60	30
155.813	155.965	63	32
155.957	156.535	79	50
156.101	156.679	55	28
156.246	157.12	59	30
156.39	157.12	62	32
156.535	157.112	79	47
156.679	157.12	55	28
156.823	157.12	60	30
156.968	157.12	63	32
157.112	157.694	79	50
157.257	157.841	55	28
157.402	158.297	59	30
157.547	158.297	62	32
157.694	158.284	79	47
157.841	158.297	55	28
157.988	158.297	57	30
158.136	158.297	60	32
158.284	159.456	79	47
158.432	159.456	55	36
158.578	159.456	59	38
158.724	159.456	62	35
158.869	159.444	67	43
159.013	159.456	71	39
159.157	159.456	69	41
159.301	159.456	66	38
159.444	159.87	67	43
159.586	160.584	59	38
159.728	160.584	62	41
159.87	160.584	67	38
160.011	160.572	71	46
160.151	160.584	74	41
160.291	160.584	72	41
160.432	160.584	69	37
160.572	160.853	71	47
160.713	161.707	67	42
160.853	161.707	71	47
160.994	161.707	74	43
161.134	161.696	79	51
161.275	161.707	83	46
161.415	161.707	81	48
161.555	161.707	78	43
161.696	162.835	79	52
161.835	162.256	83	52
161.975	162.835	81	53
162.115	162.835	84	54
162.256	162.835	83	55
162.397	162.823	86	56
162.539	162.835	85	56
162.68	162.835	88	57
162.823	163.958	86	58
162.966	163.393	89	59
163.109	163.818	88	60
163.251	163.969	91	56
163.393	163.676	89	61
163.535	163.969	93	62
163.676	163.969	89	63
163.818	163.969	88	59
163.958	165.08	86	65
164.099	164.52	89	66
164.239	164.94	88	66
164.379	165.092	91	64
164.52	164.8	89	68
164.66	165.092	93	69
164.8	165.092	89	70
164.94	165.092	88	66
165.08	165.781	86	69
165.22	166.213	89	65
165.361	166.213	88	67
165.501	165.921	84	60
165.641	166.213	83	64
165.781	166.213	86	59
165.921	166.213	84	62
166.062	166.213	81	55
166.202	166.909	79	59
166.342	167.361	83	54
166.483	167.361	81	56
166.624	167.053	77	51
166.766	167.361	76	54
166.909	167.361	79	46
167.053	167.361	77	49
167.199	167.361	74	42
167.346	169.717	36	50
167.346	169.717	72	49
167.506	169.717	43	30
167.663	168.118	48	32
167.817	168.267	52	34
167.968	168.416	55	31
167.968	168.565	79	50
167.968	168.565	91	50
168.118	169.717	48	31
168.267	168.708	52	31
168.416	168.851	55	35
168.565	168.994	60	30
168.565	169.717	79	54
168.565	169.717	91	54
168.708	169.717	52	31
168.851	169.28	55	33
168.994	169.422	60	36
169.137	169.565	64	33
169.28	169.717	55	33
169.422	169.717	60	33
169.422	169.717	76	47
169.422	169.717	88	47
169.565	169.717	64	36
169.708	170.828	65	28
169.708	170.828	74	50
169.708	170.828	86	50
169.845	170.828	64	31
169.982	170.828	62	33
170.119	170.828	60	36
170.256	170.828	59	33
170.256	170.828	67	41
170.256	170.828	79	41
170.397	170.828	57	33
170.538	170.828	55	34
170.679	170.828	53	34
170.819	171.257	52	28
170.819	172.003	72	50
170.819	172.003	84	50
170.965	172.003	55	30
171.111	171.548	48	32
171.257	172.003	52	34
171.402	171.84	43	32
171.402	172.003	76	47
171.402	172.003	88	47
171.548	172.003	48	32
171.694	172.003	40	33
171.84	172.003	43	34
171.991	174.32	36	50
172.149	174.32	43	30
172.3	172.746	48	32
172.45	172.894	52	34
172.598	173.042	55	31
172.598	173.19	79	50
172.598	173.19	91	50
172.746	174.32	48	31
172.894	173.33	52	31
173.042	173.469	55	35
173.19	173.609	60	30
173.19	174.32	79	54
173.19	174.32	91	54
173.33	174.32	52	31
173.469	173.889	55	33
173.609	174.029	60	36
173.749	174.168	64	33
173.889	174.32	55	33
174.029	174.32	60	33
174.029	174.32	76	47
174.029	174.32	88	47
174.168	174.32	64	33
174.308	175.42	65	28
174.308	175.42	74	50
174.308	175.42	86	50
174.444	175.42	64	31
174.58	175.42	62	33
174.717	175.409	60	36
174.853	175.27	59	33
174.853	175.42	67	41
174.853	175.42	79	41
174.992	175.42	55	33
175.131	175.42	57	34
175.27	175.42	59	34
175.409	176.592	60	28
175.409	176.592	72	50
175.409	176.592	84	50
175.555	176.592	59	30
175.701	176.592	57	32
175.847	176.592	55	34
175.992	176.592	53	32
176.138	176.592	52	32
176.284	176.592	50	33
176.43	176.592	48	35
176.58	178.911	43	45
176.738	177.19	47	30
176.891	177.338	50	32
177.041	177.486	55	34
177.19	178.911	47	31
177.19	177.781	77	50
177.19	177.781	89	50
177.338	177.781	50	31
177.486	177.921	55	31
177.633	178.061	59	35
177.781	178.911	50	30
177.781	178.911	77	54
177.781	178.911	89	54
177.921	178.34	55	31
178.061	178.48	59	33
178.201	178.62	62	36
178.34	178.9	55	33
178.48	178.911	59	33
178.62	178.911	62	33
178.62	178.911	74	47
178.62	178.911	86	47
178.76	178.911	67	36
178.9	179.444	55	28
178.9	180.012	76	50
178.9	180.012	88	50
179.036	179.308	60	31
179.172	179.722	67	33
179.308	180.012	60	36
179.444	180.001	55	28
179.444	180.012	72	41
179.444	180.012	84	41
179.583	179.862	64	31
179.722	180.012	67	33
179.862	180.012	64	36
180.001	180.584	55	28
180.001	181.185	71	50
180.001	181.185	83	50
180.147	180.438	62	30
180.292	180.875	67	32
180.438	181.185	62	36
180.584	181.185	55	28
180.584	181.185	74	47
180.584	181.185	86	47
180.729	181.021	59	30
180.875	181.185	67	32
181.021	181.185	59	35
181.172	183.501	43	48
181.329	181.781	47	30
181.482	181.929	50	32
181.633	182.077	55	34
181.781	183.501	47	31
181.781	182.373	77	50
181.781	182.373	89	50
181.929	182.373	50	31
182.077	182.512	55	31
182.225	182.652	59	35
182.373	183.501	50	30
182.373	183.501	77	54
182.373	183.501	89	54
182.512	182.932	55	31
182.652	183.072	59	33
182.792	183.211	62	36
182.932	183.491	55	33
183.072	183.501	59	33
183.211	183.501	62	33
183.211	183.501	74	47
183.211	183.501	86	47
183.351	183.501	67	36
183.491	184.035	55	28
183.491	184.604	75	50
183.491	184.604	87	50
183.627	183.899	60	31
183.763	184.314	67	33
183.899	184.604	60	35
184.035	184.592	55	28
184.035	184.604	72	41
184.035	184.604	84	41
184.175	184.453	63	31
184.314	184.604	67	33
184.453	184.604	63	35
184.592	185.175	55	28
184.592	185.768	71	50
184.592	185.768	83	50
184.738	185.029	62	30
184.884	185.467	67	32
185.029	185.768	62	35
185.175	185.758	55	28
185.175	185.768	74	47
185.175	185.768	86	47
185.321	185.612	59	30
185.467	185.768	67	32
185.612	185.768	59	35
185.758	186.302	55	28
185.758	186.871	76	50
185.758	186.871	88	50
185.894	186.166	60	31
186.03	186.581	67	33
186.166	186.871	60	35
186.302	186.859	55	28
186.302	186.871	72	42
186.302	186.871	84	42
186.442	186.72	64	32
186.581	186.871	67	34
186.72	186.871	64	37
186.859	187.442	55	29
186.859	188.035	71	53
186.859	188.035	83	53
187.005	187.296	62	32
187.151	187.734	67	34
187.296	188.035	62	38
187.442	188.025	55	31
187.442	188.035	74	52
187.442	188.035	86	52
187.588	187.879	59	33
187.734	188.035	67	36
187.879	188.035	59	39
188.025	188.569	55	28
188.025	189.137	75	50
188.025	189.137	87	50
188.161	188.433	60	31
188.297	189.137	67	33
188.433	188.709	60	35
188.569	189.126	55	28
188.569	189.137	72	41
188.569	189.137	84	41
188.709	188.987	60	31
188.848	189.137	63	33
188.987	189.137	60	35
189.126	189.709	55	28
189.126	189.709	79	50
189.272	189.563	59	30
189.418	190.295	62	32
189.563	190.295	59	35
189.709	190.287	55	28
189.709	190.295	79	47
189.853	190.142	60	30
189.998	190.295	63	32
190.142	190.295	60	35
190.287	190.869	55	47
190.287	190.481	81	37
190.384	190.578	79	37
190.432	190.724	59	30
190.481	190.675	81	37
190.578	190.874	62	31
190.578	190.772	79	37
190.675	190.869	81	38
190.724	190.874	59	32
190.772	190.874	79	38
190.869	191.449	55	53
190.869	191.063	81	39
190.966	191.16	79	39
191.015	191.305	60	32
191.063	191.256	81	39
191.16	191.46	64	33
191.16	191.353	79	39
191.256	191.449	81	40
191.305	191.46	60	34
191.353	191.46	79	40
191.449	192.024	55	57
191.449	191.642	81	41
191.545	191.738	79	41
191.594	191.881	59	35
191.642	191.833	81	41
191.738	192.037	62	38
191.738	191.929	79	43
191.833	192.024	81	43
191.881	192.037	59	38
191.929	192.037	79	43
192.024	192.593	55	64
192.024	192.215	81	44
192.12	192.309	79	44
192.167	192.451	57	39
192.215	192.404	81	45
192.309	192.604	60	41
192.309	192.499	79	45
192.404	192.593	81	45
192.451	192.604	57	43
192.499	192.604	79	45
192.593	193.013	55	71
192.593	192.779	81	47
192.687	192.874	79	47
192.733	193.168	59	47
192.779	192.967	81	47
192.874	193.168	57	49
192.874	193.06	79	47
192.967	193.155	81	47
193.013	193.168	55	50
193.06	193.168	79	48
193.155	193.576	53	76
193.155	193.342	81	48
193.248	193.436	79	48
193.294	193.73	57	50
193.342	193.529	81	49
193.436	193.73	55	53
193.436	193.623	79	49
193.529	193.718	81	50
193.576	193.73	53	55
193.623	193.73	79	51
193.718	194.138	52	85
193.718	193.905	81	51
193.812	193.998	79	52
193.858	194.287	55	58
193.905	194.091	81	52
193.998	194.287	53	61
193.998	194.185	79	52
194.091	194.279	81	54
194.138	194.287	52	64
194.185	194.287	79	54
194.279	194.706	50	90
194.279	194.467	81	54
194.373	194.562	79	55
194.42	194.863	53	63
194.467	194.658	81	55
194.562	194.863	52	64
194.562	194.754	79	55
194.658	194.851	81	56
194.706	194.863	50	65
194.754	194.863	79	56
194.851	197.074	36	94
194.851	197.074	48	94
194.851	195.04	81	48
194.946	195.135	79	35
194.992	197.074	50	56
195.04	195.227	81	38
195.063	197.074	52	57
195.135	197.074	53	60
195.135	195.32	79	35
195.204	197.074	55	60
195.227	195.414	81	38
195.274	197.074	57	62
195.32	195.505	79	36
195.344	197.068	59	63
195.414	196.929	60	63
195.414	195.597	81	40
195.414	195.959	91	89
195.505	195.689	79	36
195.551	196.792	62	65
195.597	195.777	81	40
195.62	196.651	64	66
195.689	196.514	65	67
195.689	195.869	79	36
195.755	196.373	67	69
195.777	195.959	81	40
195.823	196.235	69	70
195.869	196.05	79	36
195.891	196.095	71	71
195.959	197.074	72	74
195.959	196.141	81	40
195.959	197.074	91	90
196.05	196.235	79	37
196.095	197.074	71	71
196.141	196.327	81	40
196.235	197.074	69	71
196.235	196.42	79	36
196.327	196.514	81	40
196.373	197.074	67	71
196.42	196.606	79	36
196.514	197.074	65	72
196.514	196.698	81	40
196.606	196.792	79	35
196.651	197.074	64	69
196.698	196.883	81	38
196.792	197.074	62	69
196.792	196.976	79	33
196.792	197.074	88	85
196.883	197.068	81	38
196.929	197.074	60	67
196.976	197.074	79	34
197.068	197.338	59	73
197.068	197.248	81	38
197.068	199.313	86	90
197.158	197.338	79	34
197.203	199.313	60	69
197.248	197.427	81	36
197.338	199.313	59	69
197.338	197.518	79	33
197.427	197.609	81	37
197.472	199.313	57	69
197.518	197.609	79	33
197.609	199.313	55	75
197.609	197.701	79	84
197.609	197.792	81	37
197.701	197.885	79	33
197.746	199.313	53	69
197.792	197.976	81	38
197.885	199.313	52	69
197.885	198.069	79	32
197.976	198.162	81	37
198.023	199.313	50	69
198.069	198.254	79	32
198.162	198.3	48	75
198.162	198.346	81	38
198.162	199.313	84	87
198.254	198.44	79	32
198.3	199.304	48	69
198.346	198.533	81	37
198.44	199.313	47	69
198.44	198.626	79	32
198.533	198.719	81	36
198.58	199.313	45	69
198.626	198.814	79	32
198.719	199.313	43	72
198.719	198.912	81	36
198.719	199.313	88	84
198.814	199.007	79	34
198.863	199.313	41	71
198.912	199.104	81	37
199.007	199.313	40	75
199.007	199.203	79	33
199.104	199.304	81	36
199.152	199.313	38	80
199.203	199.313	79	32
199.304	201.626	36	95
199.304	201.626	48	95
199.304	199.505	81	36
199.406	199.611	79	32
199.456	201.626	50	56
199.505	199.713	81	37
199.532	201.626	52	57
199.611	201.626	53	60
199.611	199.815	79	33
199.688	201.626	55	60
199.713	199.917	81	38
199.763	201.626	57	62
199.815	200.014	79	33
199.84	201.615	59	63
199.917	201.476	60	63
199.917	200.111	81	39
199.917	200.502	91	90
200.014	200.21	79	35
200.062	201.337	62	65
200.111	200.307	81	40
200.136	201.197	64	66
200.21	201.057	65	67
200.21	200.406	79	36
200.283	200.917	67	69
200.307	200.502	81	40
200.357	200.779	69	70
200.406	200.593	79	36
200.43	200.639	71	71
200.502	201.626	72	74
200.502	200.685	81	40
200.502	201.626	91	92
200.593	200.779	79	37
200.639	201.626	71	71
200.685	200.871	81	40
200.779	201.626	69	71
200.779	200.965	79	36
200.871	201.057	81	40
200.917	201.626	67	71
200.965	201.15	79	36
201.057	201.626	65	72
201.057	201.245	81	39
201.15	201.337	79	36
201.197	201.626	64	69
201.245	201.429	81	38
201.337	201.626	62	69
201.337	201.522	79	32
201.337	201.626	88	84
201.429	201.615	81	37
201.476	201.626	60	67
201.522	201.626	79	33
201.615	201.885	59	73
201.615	201.794	81	39
201.615	202.71	86	90
201.705	201.885	79	32
201.749	202.71	60	69
201.794	201.975	81	36
201.885	202.71	59	69
201.885	202.065	79	31
201.975	202.157	81	36
202.019	202.71	57	69
202.065	202.157	79	30
202.157	202.71	55	75
202.157	202.249	79	82
202.157	202.341	81	36
202.249	202.434	79	31
202.295	202.71	53	69
202.341	202.71	81	36
202.434	202.71	52	69
202.434	202.618	79	34
202.526	202.71	78	36
202.572	202.71	50	69
202.618	202.71	79	31
202.71	202.996	48	75
202.71	202.996	84	86
202.996	203.136	31	77
202.996	203.136	43	77
203.136	203.276	55	67
203.276	203.414	39	62
203.276	203.414	51	74
203.414	203.552	63	62
203.552	203.691	38	62
203.552	203.691	50	74
203.691	203.829	62	62
203.829	203.969	36	65
203.829	203.969	48	77
203.969	204.108	60	65
204.108	204.248	31	61
204.108	204.248	43	72
204.248	204.387	55	61
204.387	204.527	33	62
204.387	204.527	45	73
204.527	204.667	57	62
204.667	204.81	35	62
204.667	204.81	47	73
204.81	204.954	59	62
204.954	205.096	36	65
204.954	205.096	48	77
205.096	205.239	60	65
205.239	205.381	36	61
205.239	205.381	48	72
205.381	205.523	60	61
205.523	205.662	44	66
205.523	205.662	56	78
205.662	205.8	68	66
205.8	205.938	43	62
205.8	205.938	55	73
205.938	206.077	67	62
206.077	206.216	41	68
206.077	206.216	53	80
206.216	206.355	65	68
206.355	206.494	36	63
206.355	206.494	48	75
206.494	206.632	60	63
206.632	206.77	38	63
206.632	206.77	50	75
206.77	206.909	62	63
206.909	207.052	40	63
206.909	207.052	52	75
207.052	207.195	64	63
207.195	207.338	41	66
207.195	207.338	53	78
207.338	207.481	65	66
207.481	207.624	41	62
207.481	207.624	53	74
207.624	207.767	65	62
207.767	207.908	49	68
207.767	207.908	61	80
207.908	208.048	73	68
208.048	208.188	48	64
208.048	208.188	60	76
208.188	208.328	72	64
208.328	208.468	46	68
208.328	208.468	58	80
208.468	208.608	70	68
208.608	208.747	44	62
208.608	208.747	56	73
208.747	208.887	68	62
208.887	209.027	43	62
208.887	209.027	55	74
209.027	209.166	67	62
209.166	209.306	41	62
209.166	209.306	53	74
209.306	209.445	65	62
209.445	209.585	39	69
209.445	209.585	51	82
209.585	209.725	63	69
209.725	209.864	49	75
209.864	210.004	63	63
210.004	210.142	48	75
210.142	210.281	51	40
210.142	210.281	55	40
210.142	210.281	63	63
210.281	210.419	46	75
210.419	210.557	53	40
210.419	210.557	56	50
210.419	210.557	63	63
210.557	210.695	44	84
210.695	210.833	55	44
210.695	210.833	58	56
210.695	210.833	63	71
210.833	210.972	43	76
210.972	211.111	56	40
210.972	211.111	60	51
210.972	211.111	63	64
211.111	211.251	41	76
211.251	211.392	58	40
211.251	211.392	61	51
211.251	211.392	63	64
211.392	211.533	39	76
211.533	211.675	55	40
211.533	211.675	58	51
211.533	211.675	63	64
211.675	211.962	44	84
211.675	211.962	60	82
211.962	212.055	35	63
211.962	212.101	55	79
211.962	212.101	67	79
212.055	212.148	33	56
212.148	212.241	35	57
212.241	212.333	36	57
212.241	212.379	63	62
212.241	212.379	75	74
212.333	212.425	39	58
212.425	212.517	41	59
212.517	212.61	43	60
212.517	212.656	62	62
212.517	212.656	74	74
212.61	212.702	45	62
212.702	212.794	47	63
212.794	212.887	48	60
212.794	212.934	60	65
212.794	212.934	72	77
212.887	212.98	50	62
212.98	213.073	51	63
213.073	213.166	53	65
213.073	213.213	55	61
213.073	213.213	67	72
213.166	213.26	51	63
213.26	213.353	50	62
213.353	213.446	48	63
213.353	213.492	57	62
213.353	213.492	69	73
213.446	213.539	50	62
213.539	213.632	51	63
213.632	213.728	53	65
213.632	213.776	59	62
213.632	213.776	71	73
213.728	213.823	51	64
213.823	213.919	50	63
213.919	214.204	48	68
213.919	214.062	60	65
213.919	214.062	72	77
214.204	214.299	40	63
214.204	214.346	60	61
214.204	214.346	72	72
214.299	214.394	38	56
214.394	214.489	40	56
214.489	214.581	41	54
214.489	214.627	68	66
214.489	214.627	80	78
214.581	214.673	44	56
214.673	214.765	46	58
214.765	214.857	48	60
214.765	214.904	67	62
214.765	214.904	79	73
214.857	214.95	50	62
214.95	215.042	52	63
215.042	215.135	53	65
215.042	215.181	65	68
215.042	215.181	77	80
215.135	215.227	55	65
215.227	215.32	56	66
215.32	215.412	58	68
215.32	215.459	60	63
215.32	215.459	72	75
215.412	215.505	56	65
215.505	215.598	55	63
215.598	215.69	53	60
215.598	215.736	62	63
215.598	215.736	74	75
215.69	215.782	55	62
215.782	215.874	56	64
215.874	215.969	58	66
215.874	216.017	64	63
215.874	216.017	76	75
215.969	216.065	56	64
216.065	216.16	55	63
216.16	216.446	53	67
216.16	216.303	65	66
216.16	216.303	77	78
216.446	216.541	45	63
216.446	216.589	65	62
216.446	216.589	77	74
216.541	216.637	43	58
216.637	216.733	45	58
216.733	216.826	46	63
216.733	216.873	73	68
216.733	216.873	85	80
216.826	216.92	48	58
216.92	217.013	46	58
217.013	217.107	45	63
217.013	217.153	72	64
217.013	217.153	84	76
217.107	217.2	43	60
217.2	217.294	45	60
217.294	217.387	46	59
217.294	217.433	70	68
217.294	217.433	82	80
217.387	217.48	45	59
217.48	217.573	46	60
217.573	217.666	48	61
217.573	217.713	68	62
217.573	217.713	80	73
217.666	217.759	47	59
217.759	217.852	48	59
217.852	217.945	49	63
217.852	217.992	67	62
217.852	217.992	79	74
217.945	218.038	48	61
218.038	218.131	49	61
218.131	218.225	50	64
218.131	218.271	65	62
218.131	218.271	77	74
218.225	218.318	48	62
218.318	218.411	50	62
218.411	218.504	51	67
218.411	218.55	63	69
218.411	218.55	75	82
218.504	218.597	53	63
218.597	218.69	51	63
218.69	218.783	49	67
218.69	218.83	63	63
218.69	218.83	75	75
218.783	218.876	51	63
218.876	218.969	49	63
218.969	219.061	48	66
218.969	219.108	63	60
218.969	219.108	67	60
218.969	219.108	75	75
219.061	219.154	49	63
219.154	219.246	48	63
219.246	219.338	46	66
219.246	219.384	65	60
219.246	219.384	68	60
219.246	219.384	75	75
219.338	219.43	48	62
219.43	219.522	46	62
219.522	219.614	44	64
219.522	219.66	67	67
219.522	219.66	70	67
219.522	219.66	75	84
219.614	219.706	46	62
219.706	219.798	44	62
219.798	219.891	43	64
219.798	219.937	68	60
219.798	219.937	72	60
219.798	219.937	75	76
219.891	219.983	44	61
219.983	220.076	43	61
220.076	220.17	41	63
220.076	220.216	70	60
220.076	220.216	73	60
220.076	220.216	75	76
220.17	220.263	43	62
220.263	220.357	41	62
220.357	220.451	39	63
220.357	220.498	67	60
220.357	220.498	70	60
220.357	220.498	75	76
220.451	220.545	41	60
220.545	220.639	39	60
220.639	220.782	44	77
220.639	220.925	68	71
220.639	220.925	72	76
220.925	221.065	39	79
220.925	221.065	51	79
220.925	221.018	67	55
221.018	221.111	65	56
221.111	221.205	67	57
221.205	221.343	48	62
221.205	221.343	60	74
221.205	221.297	68	58
221.297	221.389	72	60
221.389	221.481	73	61
221.481	221.62	46	62
221.481	221.62	58	74
221.481	221.573	75	62
221.573	221.666	77	63
221.666	221.758	79	63
221.758	221.897	44	65
221.758	221.897	56	77
221.758	221.851	80	63
221.851	221.944	82	63
221.944	222.037	84	65
222.037	222.177	39	61
222.037	222.177	51	72
222.037	222.13	85	66
222.13	222.223	84	63
222.223	222.316	82	63
222.316	222.456	41	62
222.316	222.456	53	73
222.316	222.409	85	66
222.409	222.502	84	63
222.502	222.596	82	63
222.596	222.739	43	62
222.596	222.739	55	73
222.596	222.691	85	67
222.691	222.787	84	63
222.787	222.883	82	63
222.883	223.025	44	65
222.883	223.025	56	77
222.883	223.168	80	76
223.168	223.31	36	61
223.168	223.31	48	72
223.168	223.263	64	55
223.263	223.357	62	56
223.357	223.452	64	57
223.452	223.591	44	66
223.452	223.591	56	78
223.452	223.545	65	58
223.545	223.637	68	60
223.637	223.729	70	61
223.729	223.867	43	62
223.729	223.867	55	73
223.729	223.821	72	62
223.821	223.913	74	63
223.913	224.006	76	63
224.006	224.145	41	68
224.006	224.145	53	80
224.006	224.098	77	63
224.098	224.191	79	63
224.191	224.284	80	65
224.284	224.423	36	63
224.284	224.423	48	75
224.284	224.376	82	66
224.376	224.469	80	63
224.469	224.561	79	63
224.561	224.699	38	63
224.561	224.699	50	75
224.561	224.653	82	66
224.653	224.745	80	63
224.745	224.838	79	63
224.838	224.981	40	63
224.838	224.981	52	75
224.838	224.933	82	67
224.933	225.028	80	63
225.028	225.124	79	63
225.124	225.267	41	66
225.124	225.267	53	78
225.124	225.219	80	70
225.219	225.314	82	68
225.314	225.41	80	68
225.41	225.553	53	62
225.41	225.553	65	74
225.41	225.505	79	70
225.505	225.6	80	66
225.6	225.696	79	66
225.696	225.837	56	68
225.696	225.837	68	80
225.696	225.79	77	69
225.79	225.883	79	66
225.883	225.977	77	65
225.977	226.117	55	64
225.977	226.117	67	76
225.977	226.07	75	69
226.07	226.164	77	64
226.164	226.257	75	64
226.257	226.397	53	68
226.257	226.397	65	80
226.257	226.351	74	68
226.351	226.444	75	64
226.444	226.537	74	64
226.537	226.676	51	62
226.537	226.676	63	73
226.537	226.63	75	68
226.63	226.723	77	64
226.723	226.816	75	64
226.816	226.956	50	62
226.816	226.956	62	74
226.816	226.909	77	70
226.909	227.002	79	65
227.002	227.095	77	66
227.095	227.235	48	62
227.095	227.235	60	74
227.095	227.188	78	70
227.188	227.281	79	66
227.281	227.374	78	66
227.374	227.933	47	69
227.374	227.933	59	82
227.374	227.468	79	72
227.468	227.561	80	67
227.561	227.654	79	67
227.654	227.747	78	67
227.747	227.84	79	67
227.84	227.933	78	67
227.933	228.21	43	64
227.933	228.21	55	76
227.933	228.025	79	72
228.025	228.117	80	67
228.117	228.21	79	67
228.21	228.486	43	61
228.21	228.486	55	72
228.21	228.302	78	67
228.302	228.394	79	67
228.394	228.486	78	67
228.486	228.762	43	64
228.486	228.762	55	76
228.486	228.578	79	72
228.578	228.67	80	67
228.67	228.762	79	67
228.762	229.04	43	60
228.762	229.04	55	71
228.762	228.854	77	69
228.854	228.947	79	65
228.947	229.04	77	65
229.04	229.321	43	64
229.04	229.321	55	76
229.04	229.133	75	68
229.133	229.227	77	63
229.227	229.321	75	63
229.321	229.604	43	61
229.321	229.604	55	72
229.321	229.415	74	67
229.415	229.51	75	62
229.51	229.604	74	62
229.604	229.891	48	71
229.604	229.891	60	84
229.604	229.891	72	82
229.891	229.984	43	63
229.891	230.03	63	79
229.891	230.03	75	79
229.984	230.077	41	56
230.077	230.17	43	57
230.17	230.262	44	57
230.17	230.308	72	62
230.17	230.308	84	74
230.262	230.354	48	58
230.354	230.447	49	59
230.447	230.539	51	60
230.447	230.585	70	62
230.447	230.585	82	74
230.539	230.631	53	62
230.631	230.723	55	63
230.723	230.816	56	60
230.723	230.863	68	65
230.723	230.863	80	77
230.816	230.909	58	62
230.909	231.002	60	63
231.002	231.096	61	65
231.002	231.142	63	61
231.002	231.142	75	72
231.096	231.189	60	63
231.189	231.282	58	62
231.282	231.375	56	63
231.282	231.421	65	62
231.282	231.421	77	73
231.375	231.468	58	62
231.468	231.561	60	63
231.561	231.657	61	65
231.561	231.705	67	62
231.561	231.705	79	73
231.657	231.752	60	64
231.752	231.848	58	63
231.848	232.133	56	68
231.848	231.991	68	65
231.848	231.991	80	77
232.133	232.228	40	63
232.133	232.275	60	61
232.133	232.275	72	72
232.228	232.323	38	56
232.323	232.418	40	56
232.418	232.51	41	54
232.418	232.556	68	66
232.418	232.556	80	78
232.51	232.602	44	56
232.602	232.694	46	58
232.694	232.787	48	60
232.694	232.833	67	62
232.694	232.833	79	73
232.787	232.879	50	62
232.879	232.971	52	63
232.971	233.064	53	65
232.971	233.11	65	68
232.971	233.11	77	80
233.064	233.156	55	65
233.156	233.249	56	66
233.249	233.342	58	68
233.249	233.388	60	63
233.249	233.388	72	75
233.342	233.434	56	65
233.434	233.527	55	63
233.527	233.619	53	60
233.527	233.665	62	63
233.527	233.665	74	75
233.619	233.711	55	62
233.711	233.803	56	64
233.803	233.898	58	66
233.803	233.946	64	63
233.803	233.946	76	75
233.898	233.994	56	64
233.994	234.089	55	63
234.089	234.375	53	67
234.089	234.232	65	66
234.089	234.232	77	78
234.375	234.47	36	63
234.375	234.518	77	62
234.375	234.518	89	74
234.47	234.566	38	58
234.566	234.662	40	58
234.662	234.755	41	63
234.662	234.802	80	68
234.662	234.802	92	80
234.755	234.849	40	58
234.849	234.942	41	58
234.942	235.036	43	63
234.942	235.083	79	64
234.942	235.083	91	76
235.036	235.129	41	60
235.129	235.223	43	60
235.223	235.316	44	59
235.223	235.362	77	68
235.223	235.362	89	80
235.316	235.409	46	59
235.409	235.502	44	60
235.502	235.595	43	61
235.502	235.642	75	62
235.502	235.642	87	73
235.595	235.688	44	59
235.688	235.781	43	59
235.781	235.874	41	63
235.781	235.921	74	62
235.781	235.921	86	74
235.874	235.967	43	61
235.967	236.061	41	61
236.061	236.154	42	64
236.061	236.2	72	62
236.061	236.2	84	74
236.154	236.247	43	62
236.247	236.34	42	62
236.34	236.433	43	67
236.34	236.898	71	69
236.34	236.898	83	82
236.433	236.526	44	63
236.526	236.619	43	63
236.619	236.712	42	67
236.712	236.805	43	63
236.805	236.898	42	63
236.898	236.991	43	66
236.898	237.175	67	66
236.898	237.175	79	78
236.991	237.083	44	63
237.083	237.175	43	63
237.175	237.267	42	66
237.175	237.452	67	62
237.175	237.452	79	73
237.267	237.359	43	62
237.359	237.452	42	62
237.452	237.543	43	64
237.452	237.727	67	66
237.452	237.727	79	78
237.543	237.635	44	62
237.635	237.727	43	62
237.727	237.82	41	64
237.727	238.006	67	61
237.727	238.006	79	72
237.82	237.912	43	61
237.912	238.006	41	61
238.006	238.099	39	63
238.006	238.286	67	66
238.006	238.286	79	78
238.099	238.192	41	62
238.192	238.286	39	62
238.286	238.38	38	63
238.286	238.568	67	62
238.286	238.568	79	73
238.38	238.474	39	60
238.474	238.568	38	60
238.568	238.711	36	77
238.568	238.854	72	71
238.568	238.854	84	76
238.854	238.994	41	79
238.854	238.994	53	79
238.854	238.947	72	55
238.947	239.041	74	56
239.041	239.134	76	57
239.134	239.272	44	62
239.134	239.272	56	74
239.134	239.226	77	58
239.226	239.318	76	60
239.318	239.41	77	61
239.41	239.549	43	62
239.41	239.549	55	74
239.41	239.503	79	62
239.503	239.595	77	63
239.595	239.687	79	63
239.687	239.827	41	68
239.687	239.827	53	80
239.687	239.78	80	68
239.78	239.873	82	64
239.873	239.966	80	64
239.966	240.106	39	62
239.966	240.106	51	73
239.966	240.059	79	68
240.059	240.152	80	64
240.152	240.245	79	64
240.245	240.385	38	62
240.245	240.385	50	74
240.245	240.339	77	70
240.339	240.432	79	65
240.432	240.525	77	66
240.525	240.664	36	62
240.525	240.664	48	74
240.525	240.618	78	70
240.618	240.711	79	66
240.711	240.804	78	66
240.804	241.362	35	69
240.804	241.362	47	82
240.804	240.897	79	72
240.897	240.99	80	67
240.99	241.083	79	67
241.083	241.176	78	67
241.176	241.269	79	67
241.269	241.362	78	67
241.362	241.639	31	64
241.362	241.639	43	76
241.362	241.455	79	72
241.455	241.547	80	67
241.547	241.639	79	67
241.639	241.916	31	61
241.639	241.916	43	72
241.639	241.731	78	67
241.731	241.824	79	67
241.824	241.916	78	67
241.916	242.192	31	64
241.916	242.192	43	76
241.916	242.008	79	72
242.008	242.099	80	67
242.099	242.192	79	67
242.192	242.47	31	60
242.192	242.47	43	71
242.192	242.284	77	69
242.284	242.377	79	65
242.377	242.47	77	65
242.47	242.75	31	64
242.47	242.75	43	76
242.47	242.563	75	68
242.563	242.656	77	63
242.656	242.75	75	63
242.75	243.034	31	61
242.75	243.034	43	72
242.75	242.845	74	67
242.845	242.939	75	62
242.939	243.034	74	62
243.034	243.312	36	69
243.034	243.312	48	82
243.034	243.127	72	72
243.127	243.219	71	67
243.219	243.312	72	67
243.312	243.405	74	67
243.405	243.498	72	67
243.498	243.59	74	67
243.59	243.867	43	67
243.59	243.867	55	79
243.59	243.683	75	75
243.683	243.775	74	70
243.775	243.867	75	70
243.867	244.144	43	64
243.867	244.144	55	75
243.867	243.959	77	70
243.959	244.052	75	70
244.052	244.144	77	70
244.144	244.42	43	67
244.144	244.42	55	79
244.144	244.236	79	75
244.236	244.327	80	70
244.327	244.42	79	70
244.42	244.698	43	63
244.42	244.698	55	74
244.42	244.512	77	72
244.512	244.605	79	68
244.605	244.698	77	68
244.698	244.978	43	67
244.698	244.978	55	79
244.698	244.791	75	71
244.791	244.885	77	66
244.885	244.978	75	66
244.978	245.262	43	64
244.978	245.262	55	75
244.978	245.073	74	70
245.073	245.167	75	65
245.167	245.262	74	65
245.262	245.54	48	72
245.262	245.54	60	86
245.262	245.355	72	75
245.355	245.447	71	70
245.447	245.54	72	70
245.54	245.633	74	70
245.633	245.726	72	70
245.726	245.819	74	70
245.819	246.095	31	80
245.819	246.095	43	95
245.819	245.911	75	79
245.911	246.003	74	73
246.003	246.095	75	73
246.095	246.372	31	77
246.095	246.372	43	90
246.095	246.187	77	73
246.187	246.28	75	73
246.28	246.372	77	73
246.372	246.648	31	80
246.372	246.648	43	95
246.372	246.464	79	79
246.464	246.555	80	73
246.555	246.648	79	73
246.648	246.926	31	75
246.648	246.926	43	89
246.648	246.74	77	75
246.74	246.833	79	71
246.833	246.926	77	71
246.926	247.207	31	80
246.926	247.207	43	95
246.926	247.019	75	74
247.019	247.113	77	69
247.113	247.207	75	69
247.207	247.49	31	77
247.207	247.49	43	90
247.207	247.301	74	73
247.301	247.395	75	68
247.395	247.49	74	68
247.49	247.768	36	85
247.49	247.768	48	103
247.49	247.583	72	79
247.583	247.676	71	69
247.676	247.768	72	71
247.768	247.861	74	73
247.861	247.954	75	75
247.954	248.047	77	78
248.047	248.323	31	80
248.047	248.323	43	95
248.047	248.139	79	80
248.139	248.231	80	77
248.231	248.323	79	75
248.323	248.415	77	74
248.415	248.508	75	73
248.508	248.6	74	73
248.6	248.878	36	85
248.6	248.878	48	103
248.6	248.693	72	79
248.693	248.785	71	69
248.785	248.878	72	71
248.878	248.971	74	73
248.971	249.064	75	75
249.064	249.156	77	78
249.156	249.433	31	80
249.156	249.433	43	95
249.156	249.249	79	80
249.249	249.341	80	77
249.341	249.433	79	75
249.433	249.525	77	74
249.525	249.617	75	73
249.617	249.71	74	73
249.71	249.99	36	73
249.71	249.99	48	86
249.71	249.85	60	85
249.71	249.85	72	101
250.271	250.552	36	73
250.271	250.552	48	86
250.271	250.412	60	85
250.271	250.412	72	101
250.833	251.114	36	73
250.833	251.114	48	86
250.833	250.973	60	83
250.833	250.973	72	99
251.987	252.578	36	48
251.987	252.578	48	57
251.987	252.578	60	62
251.987	252.578	72	73
253.17	253.762	36	39
253.17	253.762	48	46
253.17	253.762	60	47
253.17	253.762	72	56
254.354	256.847	32	70
254.354	254.976	44	82
254.354	254.976	56	108
254.976	256.847	44	58
254.976	256.847	48	58
254.976	256.847	51	58
254.976	255.634	56	69
254.976	255.634	63	81
254.976	255.634	68	81
254.976	256.847	72	81
254.976	255.634	75	96
255.634	256.532	56	60
255.634	256.532	60	60
255.634	256.532	63	60
255.634	256.532	68	71
255.634	256.532	75	81
255.634	256.847	80	81
255.634	256.532	84	81
255.634	256.847	87	97
256.532	256.838	56	40
256.532	256.847	60	40
256.532	256.838	63	40
256.532	256.847	68	48
256.532	256.847	75	54
256.532	256.847	84	64
256.838	257.458	56	44
256.838	257.458	58	44
256.838	257.458	61	44
256.838	257.458	63	44
256.838	257.458	67	52
256.838	257.458	73	57
256.838	258.083	82	68
257.458	258.083	56	33
257.458	258.083	58	33
257.458	258.083	61	33
257.458	258.083	63	33
257.458	258.083	67	39
257.458	258.083	73	50
257.458	258.083	75	60
258.083	258.708	56	33
258.083	258.708	60	33
258.083	258.708	63	33
258.083	258.708	68	39
258.083	258.708	72	50
258.083	258.708	80	60
259.333	261.838	29	70
259.333	259.971	41	82
259.333	259.971	53	108
259.971	261.838	41	58
259.971	261.838	44	58
259.971	261.838	48	58
259.971	260.622	53	69
259.971	260.622	60	81
259.971	260.622	65	81
259.971	261.838	68	81
259.971	260.622	72	96
260.622	261.52	53	59
260.622	261.52	56	59
260.622	261.52	60	59
260.622	261.52	65	70
260.622	261.52	72	79
260.622	261.838	77	79
260.622	261.52	80	79
260.622	261.838	84	95
261.52	261.827	53	40
261.52	261.838	56	40
261.52	261.827	60	40
261.52	261.838	65	48
261.52	261.838	72	54
261.52	261.838	80	64
261.827	262.446	53	44
261.827	262.446	55	44
261.827	262.446	58	44
261.827	262.446	60	44
261.827	262.446	64	52
261.827	262.446	70	57
261.827	263.071	79	68
262.446	263.071	53	33
262.446	263.071	55	33
262.446	263.071	58	33
262.446	263.071	60	33
262.446	263.071	64	39
262.446	263.071	70	50
262.446	263.071	72	60
263.071	263.697	53	33
263.071	263.697	56	33
263.071	263.697	60	33
263.071	263.697	65	39
263.071	263.697	68	50
263.071	263.697	77	60
264.322	266.843	37	70
264.322	264.96	49	82
264.322	264.96	61	108
264.96	266.843	49	58
264.96	266.843	53	58
264.96	266.843	56	58
264.96	265.627	61	69
264.96	265.627	68	81
264.96	265.627	73	81
264.96	266.843	77	81
264.96	265.627	80	96
265.627	266.526	61	60
265.627	266.526	65	60
265.627	266.526	68	60
265.627	266.526	73	71
265.627	266.526	80	81
265.627	266.843	85	81
265.627	266.526	89	81
265.627	266.843	92	97
266.526	266.832	61	40
266.526	266.843	65	40
266.526	266.832	68	40
266.526	266.843	73	48
266.526	266.843	80	54
266.526	266.843	89	64
266.832	267.452	61	44
266.832	267.452	63	44
266.832	267.452	66	44
266.832	267.452	68	44
266.832	267.452	72	52
266.832	267.452	78	57
266.832	268.077	87	68
267.452	268.077	61	33
267.452	268.077	63	33
267.452	268.077	66	33
267.452	268.077	68	33
267.452	268.077	72	39
267.452	268.077	78	50
267.452	268.077	80	60
268.077	269.015	61	33
268.077	269.015	65	33
268.077	269.015	68	33
268.077	269.015	73	39
268.077	269.015	77	50
268.077	269.015	85	60
269.015	269.321	49	32
269.015	269.321	56	32
269.015	269.321	61	38
269.015	269.321	68	43
269.015	269.321	77	51
269.321	269.941	49	35
269.321	269.941	56	35
269.321	269.941	60	41
269.321	269.941	66	45
269.321	270.572	75	54
269.941	270.566	49	26
269.941	270.566	56	26
269.941	270.572	60	31
269.941	270.572	66	39
269.941	270.572	68	47
270.566	271.504	49	26
270.566	271.504	56	26
270.566	271.504	61	31
270.566	271.504	65	39
270.566	271.504	73	47
271.504	271.81	37	19
271.504	271.81	44	23
271.504	271.81	49	28
271.504	271.81	56	32
271.504	271.81	65	38
271.81	272.43	37	22
271.81	272.43	44	26
271.81	272.43	48	30
271.81	272.43	54	34
271.81	274.305	63	40
272.43	273.055	37	16
272.43	273.055	44	19
272.43	274.305	48	23
272.43	274.305	54	29
272.43	273.68	56	35
273.055	273.68	37	16
273.055	273.68	44	19
273.055	273.68	49	23
273.055	273.68	53	29
273.055	276.782	61	35
273.68	274.305	37	16
273.68	274.305	44	19
273.68	276.782	49	23
273.68	276.782	53	29
273.68	274.924	56	35
274.305	274.924	37	22
274.305	274.924	44	26
274.305	274.924	48	30
274.305	274.924	54	34
274.305	275.544	63	40
274.924	275.544	37	16
274.924	275.544	44	19
274.924	275.544	48	23
274.924	275.544	54	29
274.924	276.163	56	35
275.544	276.163	37	22
275.544	276.163	44	26
275.544	276.163	48	30
275.544	276.163	54	34
275.544	276.787	63	40
276.163	276.782	37	16
276.163	276.782	44	19
276.163	276.787	48	23
276.163	276.787	54	29
276.163	276.787	56	35
276.782	277.088	37	16
276.782	277.088	44	19
276.782	277.088	49	23
276.782	277.088	53	30
276.782	277.088	61	36
277.088	277.671	56	27
277.088	277.671	61	32
277.088	277.671	65	38
277.38	277.963	49	36
277.671	278.254	56	27
277.671	278.254	61	32
277.671	278.254	65	38
277.963	278.546	49	38
278.254	278.844	56	27
278.254	278.844	61	32
278.254	278.844	65	38
278.546	278.844	49	38
278.844	279.407	56	37
278.844	279.407	61	44
278.844	279.128	65	52
279.128	279.407	44	45
279.128	279.407	63	52
279.407	279.987	56	30
279.407	279.987	60	36
279.407	279.987	63	43
279.699	280.276	44	42
279.987	280.565	56	30
279.987	281.059	60	36
279.987	280.565	63	43
280.276	280.854	44	38
280.276	280.565	59	30
280.565	281.145	56	30
280.565	281.145	59	36
280.565	281.145	63	43
280.854	281.145	44	38
281.145	281.427	56	41
281.145	281.427	60	41
281.145	281.427	62	49
281.145	281.427	65	58
281.427	281.708	39	25
281.427	281.708	54	25
281.427	281.708	58	30
281.427	281.708	63	39
281.427	281.708	66	47
281.708	282.287	58	27
281.708	282.287	63	32
281.708	282.287	66	38
282.0	282.574	51	36
282.287	282.862	58	27
282.287	282.862	63	32
282.287	282.862	66	38
282.574	283.149	51	38
282.862	283.448	58	27
282.862	283.448	63	32
282.862	283.448	66	38
283.149	283.448	51	38
283.448	284.011	58	37
283.448	284.011	63	44
283.448	283.731	66	52
283.731	284.011	46	45
283.731	284.011	65	52
284.011	284.586	58	30
284.011	284.586	62	36
284.011	284.586	65	43
284.298	284.873	46	42
284.586	285.161	58	30
284.586	285.519	62	36
284.586	285.161	65	43
284.873	285.448	46	38
284.873	285.161	61	30
285.161	285.741	58	30
285.161	285.741	61	36
285.161	285.741	65	43
285.448	285.741	46	41
285.741	286.026	58	41
285.741	286.026	62	41
285.741	286.026	64	49
285.741	286.026	67	58
286.026	286.308	41	25
286.026	286.308	56	25
286.026	286.308	60	30
286.026	286.308	65	39
286.026	286.308	68	47
286.308	286.883	60	27
286.308	286.883	65	32
286.308	286.883	68	38
286.595	287.17	53	36
286.883	287.457	60	27
286.883	287.457	65	32
286.883	287.457	68	38
287.17	287.745	53	38
287.457	288.043	60	27
287.457	288.043	65	32
287.457	288.043	68	38
287.745	288.043	53	38
288.043	288.608	60	34
288.043	288.608	65	40
288.043	288.327	68	48
288.327	288.608	48	41
288.327	288.608	67	48
288.608	289.191	60	30
288.608	289.191	64	36
288.608	289.191	67	43
288.899	289.477	48	42
289.191	289.761	60	34
289.191	289.477	64	40
289.191	289.477	67	48
289.477	290.052	53	38
289.477	289.761	65	34
289.477	289.761	68	48
289.761	290.342	60	30
289.761	290.342	65	36
289.761	290.342	68	43
290.052	290.642	53	38
290.342	290.642	60	34
290.342	290.642	65	40
290.342	290.642	68	47
290.632	292.922	36	46
290.789	292.778	60	36
290.932	292.638	64	37
291.075	292.497	67	38
291.218	291.793	52	39
291.218	291.793	55	39
291.218	292.931	71	40
291.36	292.357	72	41
291.503	292.216	76	42
291.646	292.075	79	44
291.793	292.931	52	39
291.793	292.931	55	39
291.793	292.931	83	45
291.934	292.931	84	44
292.075	292.931	79	43
292.216	292.931	76	43
292.357	292.931	72	42
292.497	292.931	67	41
292.638	292.931	64	41
292.778	292.931	60	40
292.922	295.187	36	46
293.08	295.044	61	36
293.221	294.905	65	37
293.362	294.765	68	38
293.503	294.068	53	39
293.503	294.068	56	39
293.503	295.187	72	40
293.644	294.626	73	41
293.783	294.486	77	42
293.924	294.347	80	44
294.068	295.187	53	39
294.068	295.187	56	39
294.068	295.187	84	45
294.207	295.187	85	44
294.347	295.187	80	43
294.486	295.187	77	43
294.626	295.187	73	42
294.765	295.187	68	41
294.905	295.187	65	41
295.044	295.187	61	40
295.187	297.455	36	46
295.345	297.301	64	36
295.485	297.162	67	37
295.624	297.022	70	38
295.763	296.325	55	39
295.763	296.325	58	39
295.763	297.455	75	40
295.902	296.883	76	41
296.04	296.743	79	42
296.18	296.604	82	44
296.325	297.455	55	39
296.325	297.455	58	39
296.325	297.455	87	45
296.464	297.455	88	44
296.604	297.455	82	43
296.743	297.455	79	43
296.883	297.455	76	42
297.022	297.455	70	41
297.162	297.455	67	41
297.301	297.455	64	40
297.444	299.7	41	46
297.602	299.558	65	36
297.742	299.418	69	37
297.881	299.279	72	38
298.02	298.581	57	39
298.02	298.581	60	39
298.02	299.713	76	40
298.158	299.139	77	41
298.297	299.0	81	42
298.437	298.86	84	44
298.581	299.713	57	39
298.581	299.713	60	39
298.581	299.713	88	45
298.721	299.713	89	44
298.86	299.713	84	43
299.0	299.713	81	43
299.139	299.713	77	42
299.279	299.713	72	41
299.418	299.713	69	41
299.558	299.713	65	40
299.7	301.957	41	46
299.858	301.815	66	36
299.999	301.675	70	37
300.137	301.536	73	38
300.276	300.838	58	39
300.276	300.838	61	39
300.276	301.968	77	40
300.415	301.396	78	41
300.554	301.257	82	42
300.694	301.117	85	44
300.838	301.968	58	39
300.838	301.968	61	39
300.838	301.968	89	45
300.978	301.968	90	44
301.117	301.968	85	43
301.257	301.968	82	43
301.396	301.968	78	42
301.536	301.968	73	41
301.675	301.968	70	41
301.815	301.968	66	40
301.957	304.227	41	46
302.115	304.071	69	36
302.255	303.932	72	37
302.394	303.792	75	38
302.533	303.095	60	39
302.533	303.095	63	39
302.533	304.227	80	40
302.672	303.653	81	41
302.81	303.513	84	42
302.95	303.374	87	44
303.095	304.227	60	39
303.095	304.227	63	39
303.095	304.227	92	45
303.234	304.227	93	44
303.374	304.227	87	43
303.513	304.227	84	43
303.653	304.227	81	42
303.792	304.227	75	41
303.932	304.227	72	41
304.071	304.227	69	40
304.214	306.478	46	46
304.367	305.35	70	39
304.508	305.208	74	41
304.649	305.067	77	44
304.788	305.35	62	39
304.788	305.35	65	39
304.788	305.773	81	46
304.927	305.913	82	44
305.067	305.633	77	42
305.208	305.492	74	40
305.35	306.487	62	39
305.35	306.487	65	39
305.35	306.334	70	45
305.492	306.193	74	41
305.633	306.052	77	43
305.773	306.487	81	45
305.913	306.487	82	47
306.052	306.487	77	45
306.193	306.487	74	44
306.334	306.487	70	42
306.478	308.754	46	46
306.632	307.624	71	39
306.776	307.482	75	41
306.919	307.34	78	44
307.06	307.624	63	39
307.06	307.624	66	39
307.06	308.049	82	46
307.199	308.189	83	44
307.34	307.909	78	42
307.482	307.768	75	40
307.624	308.763	63	39
307.624	308.763	66	39
307.624	308.61	71	45
307.768	308.469	75	41
307.909	308.328	78	43
308.049	308.763	82	45
308.189	308.763	83	47
308.328	308.763	78	45
308.469	308.763	75	44
308.61	308.763	71	42
308.754	311.042	46	46
308.907	309.903	74	39
309.051	309.76	77	41
309.194	309.617	80	44
309.336	309.903	65	39
309.336	309.903	68	39
309.336	310.326	85	46
309.476	310.466	86	44
309.617	310.186	80	42
309.76	310.045	77	40
309.903	311.042	65	39
309.903	311.042	68	39
309.903	310.887	74	45
310.045	310.745	77	41
310.186	310.605	80	43
310.326	311.042	85	45
310.466	311.042	86	47
310.605	311.042	80	45
310.745	311.042	77	44
310.887	311.042	74	42
311.03	313.312	51	46
311.183	311.465	78	39
311.325	313.312	77	46
311.465	313.312	78	44
311.605	312.167	58	39
311.605	312.167	63	39
311.605	312.167	66	39
311.744	312.025	82	44
311.884	313.312	81	47
312.025	313.312	82	40
312.167	313.312	58	39
312.167	313.312	63	39
312.167	313.312	66	39
312.309	312.59	87	41
312.449	313.312	86	43
312.59	312.869	87	42
312.73	313.009	90	47
312.869	313.152	87	45
313.009	313.298	90	49
313.152	313.312	87	42
313.298	315.574	48	46
313.298	314.435	90	53
313.451	314.293	89	51
313.593	314.152	87	49
313.734	314.012	85	47
313.873	314.435	56	39
313.873	314.435	63	39
313.873	314.435	66	39
313.873	314.998	84	45
314.012	314.858	85	46
314.152	314.717	87	47
314.293	314.577	89	48
314.435	315.574	56	39
314.435	315.574	63	39
314.435	315.574	66	39
314.435	315.574	90	53
314.577	315.574	89	52
314.717	315.574	87	51
314.858	315.574	85	50
314.998	315.574	84	49
315.137	315.574	82	48
315.277	315.574	80	47
315.419	315.574	78	46
315.562	317.839	49	39
315.715	315.997	77	39
315.857	317.839	76	46
315.997	317.839	77	44
316.137	316.699	56	33
316.137	316.699	61	33
316.137	316.699	65	33
316.276	316.557	80	44
316.416	317.839	79	47
316.557	317.839	80	40
316.699	317.839	56	33
316.699	317.839	61	33
316.699	317.839	65	33
316.841	317.122	85	41
316.981	317.839	84	43
317.122	317.401	85	42
317.262	317.541	89	47
317.401	317.683	85	45
317.541	317.828	89	49
317.683	317.839	85	42
317.828	320.104	47	39
317.828	318.965	89	53
317.981	318.823	87	51
318.123	318.682	86	49
318.263	318.542	84	47
318.403	318.965	55	33
318.403	318.965	62	33
318.403	318.965	65	33
318.403	319.528	83	45
318.542	319.387	84	46
318.682	319.247	86	47
318.823	319.106	87	48
318.965	320.104	55	33
318.965	320.104	62	33
318.965	320.104	65	33
318.965	320.104	89	53
319.106	320.104	87	52
319.247	320.104	86	51
319.387	320.104	84	50
319.528	320.104	83	49
319.667	320.104	80	48
319.807	320.104	79	47
319.949	320.104	77	46
320.092	322.378	48	39
320.245	320.527	75	39
320.387	322.378	74	46
320.527	322.378	75	44
320.667	321.229	55	33
320.667	321.229	60	33
320.667	321.229	63	33
320.806	321.087	79	44
320.946	322.378	78	47
321.087	322.378	79	40
321.229	322.378	55	33
321.229	322.378	60	33
321.229	322.378	63	33
321.37	321.651	83	41
321.511	321.792	84	43
321.651	322.378	83	42
321.792	322.378	84	47
321.931	322.378	86	45
322.074	322.378	87	49
322.22	322.378	90	42
322.369	323.54	43	33
322.369	323.54	91	53
322.523	323.382	86	51
322.668	323.238	83	49
322.812	323.095	79	47
322.954	323.54	55	29
322.954	323.54	59	29
322.954	323.54	62	29
322.954	323.54	78	45
323.095	323.54	79	46
323.238	323.54	83	47
323.382	323.54	86	48
323.528	324.684	48	35
323.528	324.684	87	53
323.682	324.105	84	51
323.825	324.245	79	49
323.966	324.386	75	47
324.105	324.684	55	30
324.105	324.684	60	30
324.105	324.684	63	30
324.105	324.684	84	51
324.245	324.684	79	50
324.386	324.684	75	49
324.529	324.684	72	48
324.675	325.822	43	37
324.675	325.822	83	53
324.828	325.25	79	51
324.97	325.389	74	49
325.11	325.529	71	47
325.25	325.822	50	32
325.25	325.822	55	32
325.25	325.822	59	32
325.25	325.822	79	51
325.389	325.822	74	50
325.529	325.822	71	49
325.67	325.822	67	48
325.812	326.976	36	46
325.812	326.976	75	53
325.965	326.392	72	51
326.109	326.532	67	49
326.252	326.674	63	47
326.392	326.976	48	39
326.392	326.976	51	39
326.392	326.976	55	39
326.392	326.976	72	51
326.532	326.976	67	50
326.674	326.976	63	49
326.818	326.976	60	48
326.964	328.128	31	46
326.964	327.828	71	53
327.117	328.128	67	51
327.262	327.546	62	49
327.405	328.128	59	47
327.546	328.128	47	39
327.546	328.128	50	39
327.546	328.128	55	39
327.546	328.128	62	47
327.687	328.128	65	48
327.828	328.128	71	50
327.972	328.128	74	52
328.116	329.285	36	46
328.116	329.285	72	53
328.27	328.701	67	51
328.415	328.842	63	49
328.558	328.984	60	47
328.701	329.273	43	39
328.701	329.285	48	39
328.701	329.285	51	39
328.701	329.273	67	51
328.842	329.285	63	50
328.984	329.285	60	49
329.128	329.285	55	48
329.273	330.422	31	69
329.273	330.265	43	69
329.273	330.422	67	79
329.426	329.987	62	75
329.568	329.848	59	75
329.709	330.265	55	70
329.848	330.126	47	69
329.848	330.126	59	75
329.987	330.422	50	60
329.987	330.422	62	71
330.126	330.422	47	60
330.126	330.422	59	71
330.265	330.422	43	59
330.265	330.422	55	71
330.411	331.405	48	63
330.411	331.545	60	70
330.552	330.834	43	52
330.552	330.834	55	61
330.693	330.982	39	52
330.693	330.982	51	61
330.834	331.123	43	52
330.834	331.123	55	60
330.982	331.264	39	57
330.982	331.264	51	64
331.123	331.545	43	47
331.123	331.545	55	54
331.264	331.545	39	46
331.264	331.545	51	54
331.405	331.545	36	45
331.405	331.545	48	54
331.545	333.789	31	57
331.699	332.265	55	34
331.852	332.403	50	34
331.989	332.54	47	34
332.127	332.678	56	40
332.265	332.816	55	34
332.403	332.954	50	34
332.54	333.091	47	34
332.678	333.229	56	40
332.816	333.366	55	34
332.954	333.505	50	34
333.091	333.646	47	34
333.229	333.789	56	39
333.366	333.789	55	34
333.505	333.789	50	34
333.646	333.789	47	34
333.789	336.027	36	50
333.937	334.499	57	34
334.085	334.636	51	34
334.223	334.774	48	34
334.361	334.912	54	40
334.499	335.049	57	34
334.636	335.187	51	34
334.774	335.325	48	34
334.912	335.463	54	40
335.049	335.601	57	34
335.187	335.742	51	34
335.325	335.884	48	34
335.463	336.027	54	40
335.601	336.027	57	34
335.742	336.027	51	34
335.884	336.027	48	34
336.027	338.266	31	50
336.176	336.737	55	34
336.324	336.875	50	34
336.462	337.013	47	34
336.6	337.151	56	39
336.737	337.288	55	34
336.875	337.426	50	34
337.013	337.564	47	34
337.151	337.702	56	39
337.288	337.84	55	34
337.426	337.981	50	34
337.564	338.122	47	34
337.702	338.266	56	39
337.84	338.266	55	34
337.981	338.266	50	34
338.122	338.266	47	34
338.266	340.549	36	50
338.415	338.978	57	34
338.563	339.118	51	34
338.701	339.257	48	34
338.839	339.397	54	39
338.978	339.536	57	34
339.118	339.676	51	34
339.257	339.815	48	34
339.397	339.955	54	39
339.536	340.093	57	34
339.676	340.235	51	34
339.815	340.382	48	34
339.955	340.549	54	39
340.093	340.549	57	34
340.235	340.549	51	34
340.382	340.549	48	34
340.536	342.802	31	85
340.536	341.108	55	77
340.694	340.97	50	60
340.832	341.393	47	60
340.97	341.25	50	60
341.108	341.679	55	76
341.108	341.679	59	75
341.25	341.536	50	60
341.393	341.958	47	60
341.536	341.818	50	60
341.679	342.237	55	76
341.679	342.802	59	75
341.818	342.098	50	59
341.958	342.516	47	59
342.098	342.376	50	59
342.237	342.96	55	67
342.376	342.658	50	61
342.516	347.335	47	61
342.658	343.098	50	61
342.802	345.076	31	85
342.802	343.374	59	77
342.96	343.236	55	60
343.098	343.662	50	60
343.236	343.518	55	60
343.374	343.951	59	76
343.374	343.951	62	75
343.518	343.807	55	60
343.662	344.231	50	60
343.807	344.091	55	60
343.951	344.512	59	76
343.951	345.076	62	75
344.091	344.371	55	59
344.231	344.791	50	59
344.371	344.65	55	59
344.512	345.235	59	66
344.65	344.932	55	58
344.791	347.335	50	58
344.932	345.373	55	58
345.076	347.335	31	85
345.076	345.648	62	77
345.235	345.511	59	60
345.373	345.929	55	60
345.511	345.789	59	60
345.648	346.209	62	76
345.648	346.209	65	75
345.789	346.069	59	60
345.929	346.484	55	60
346.069	346.347	59	60
346.209	346.76	62	76
346.209	347.324	65	75
346.347	346.622	59	59
346.484	347.039	55	59
346.622	346.898	59	59
346.76	347.335	62	66
346.898	347.18	59	58
347.039	347.335	55	58
347.18	347.335	59	58
347.324	347.878	65	64
347.463	347.74	59	39
347.463	347.74	62	50
347.601	348.159	55	49
347.74	348.018	59	39
347.74	348.018	62	49
347.878	348.44	65	58
347.878	360.222	71	64
348.018	348.299	59	38
348.018	348.299	62	47
348.159	348.715	55	47
348.299	348.577	59	37
348.299	348.577	62	47
348.44	348.991	65	61
348.577	348.853	59	37
348.577	348.853	62	47
348.715	349.272	55	47
348.853	349.131	59	35
348.853	349.131	62	46
348.991	349.552	65	54
348.991	360.845	74	57
349.131	349.412	59	35
349.131	349.412	62	44
349.272	349.829	55	44
349.412	349.691	59	34
349.412	349.691	62	43
349.552	350.106	65	56
349.691	349.968	59	33
349.691	349.968	62	42
349.829	350.388	55	42
349.968	350.247	59	32
349.968	350.247	62	42
350.106	350.67	65	49
350.106	351.224	77	52
350.247	350.529	59	32
350.247	350.529	62	39
350.388	350.947	55	39
350.529	350.809	59	31
350.529	350.809	62	39
350.67	351.224	65	50
350.809	351.086	59	30
350.809	351.086	62	39
350.947	351.506	55	39
351.086	351.365	59	29
351.086	351.365	62	38
351.224	351.788	65	45
351.224	351.788	77	52
351.365	351.647	59	29
351.365	351.647	62	36
351.506	352.065	55	35
351.647	351.927	59	28
351.647	351.927	62	35
351.788	352.342	65	43
351.788	353.457	77	49
351.927	352.204	59	26
351.927	352.204	62	33
352.065	352.623	55	33
352.204	352.482	59	24
352.204	352.482	62	31
352.342	354.573	32	41
352.342	354.573	44	41
352.342	352.904	65	38
352.482	352.763	59	24
352.482	352.763	62	31
352.623	353.181	55	30
352.763	353.042	59	23
352.763	353.042	62	30
352.904	355.137	31	38
352.904	355.137	43	38
352.904	353.457	65	42
353.042	353.319	59	25
353.042	353.319	62	31
353.181	353.738	55	31
353.319	353.598	59	24
353.319	353.598	62	30
353.457	354.019	65	38
353.457	354.019	77	50
353.598	353.879	59	23
353.598	353.879	62	30
353.738	354.296	55	30
353.879	354.157	59	22
353.879	354.157	62	30
354.019	354.573	65	40
354.019	355.691	77	50
354.157	354.434	59	24
354.157	354.434	62	30
354.296	354.855	55	30
354.434	354.714	59	23
354.434	354.714	62	30
354.573	360.845	32	41
354.573	360.845	44	41
354.573	355.137	65	36
354.714	354.996	59	23
354.714	354.996	62	30
354.855	355.414	55	29
354.996	355.276	59	21
354.996	355.276	62	29
355.137	360.222	31	39
355.137	359.073	43	39
355.137	355.691	65	40
355.276	355.552	59	23
355.276	355.552	62	31
355.414	355.97	55	30
355.552	355.831	59	23
355.552	355.831	62	29
355.691	356.25	65	35
355.691	356.803	77	45
355.831	356.11	59	23
355.831	356.11	62	29
355.97	356.527	55	28
356.11	356.388	59	22
356.11	356.388	62	28
356.25	356.803	65	39
356.388	356.665	59	23
356.388	356.665	62	30
356.527	357.089	55	30
356.665	356.946	59	23
356.665	356.946	62	29
356.803	357.375	65	36
356.803	360.845	77	45
356.946	357.232	59	23
356.946	357.232	62	29
357.089	357.654	55	28
357.232	357.514	59	22
357.232	357.514	62	28
357.375	357.933	65	39
357.514	357.793	59	24
357.514	357.793	62	30
357.654	358.221	55	30
357.793	358.077	59	23
357.793	358.077	62	29
357.933	360.845	56	45
357.933	358.51	65	36
358.077	358.366	59	23
358.077	358.366	62	29
358.221	358.792	55	28
358.366	358.651	59	22
358.366	358.651	62	28
358.51	359.073	65	40
358.651	358.932	59	24
358.651	358.932	62	31
358.792	359.363	55	31
358.932	359.218	59	23
358.932	359.218	62	30
359.073	360.222	43	46
359.073	359.653	65	36
359.218	359.508	59	23
359.218	359.508	62	30
359.363	359.937	55	29
359.508	359.795	59	22
359.508	359.795	62	29
359.653	360.845	65	40
359.795	360.079	59	24
359.795	360.079	62	31
359.937	360.845	55	31
360.079	360.222	59	23
360.079	360.376	62	30
360.222	360.529	31	65
360.222	360.529	43	77
360.222	360.376	59	68
360.222	360.529	71	80
360.376	360.529	59	57
360.376	360.683	62	68
360.529	360.845	31	65
360.529	360.845	43	77
360.529	360.683	59	57
360.529	360.845	71	69
360.683	360.845	59	57
360.683	360.845	62	69
360.837	363.171	36	71
360.837	361.148	48	79
360.837	362.042	60	87
360.837	362.601	64	91
360.837	363.171	72	104
360.994	363.171	43	66
361.148	361.598	48	70
361.301	361.746	52	76
361.451	361.894	55	68
361.451	362.042	79	77
361.451	362.042	91	94
361.598	363.171	48	68
361.746	362.182	52	68
361.894	362.322	55	76
362.042	362.461	60	66
362.042	363.171	79	84
362.042	363.171	91	100
362.182	363.171	52	68
362.322	362.741	55	71
362.461	362.881	60	78
362.601	363.021	64	71
362.741	363.171	55	71
362.881	363.171	60	71
362.881	363.171	76	73
362.881	363.171	88	87
363.021	363.171	64	78
363.16	364.27	65	62
363.16	364.27	74	77
363.16	364.27	86	94
363.296	364.27	64	68
363.433	364.27	62	71
363.569	364.27	60	78
363.705	364.27	59	71
363.705	364.27	67	63
363.705	364.27	79	76
363.844	364.27	57	71
363.983	364.27	55	76
364.122	364.27	53	76
364.261	364.699	52	62
364.261	365.446	72	75
364.261	365.446	84	88
364.407	365.446	55	66
364.553	364.99	48	70
364.699	365.446	52	76
364.844	365.282	43	70
364.844	365.446	76	73
364.844	365.446	88	87
364.99	365.446	48	70
365.136	365.446	40	71
365.282	365.446	43	76
365.433	367.762	36	94
365.591	367.762	43	66
365.742	366.188	48	70
365.892	366.336	52	76
366.04	366.484	55	68
366.04	366.632	79	77
366.04	366.632	91	94
366.188	367.762	48	68
366.336	366.772	52	68
366.484	366.911	55	76
366.632	367.051	60	66
366.632	367.762	79	84
366.632	367.762	91	100
366.772	367.762	52	68
366.911	367.331	55	71
367.051	367.471	60	78
367.191	367.61	64	71
367.331	367.762	55	71
367.471	367.762	60	71
367.471	367.762	76	73
367.471	367.762	88	87
367.61	367.762	64	71
367.75	368.864	65	62
367.75	368.864	74	77
367.75	368.864	86	94
367.886	368.864	64	68
368.022	368.864	62	71
368.159	368.851	60	78
368.295	368.712	59	71
368.295	368.864	67	63
368.295	368.864	79	76
368.434	368.864	55	71
368.573	368.864	57	76
368.712	368.864	59	76
368.851	370.035	60	62
368.851	370.035	72	69
368.851	370.035	84	83
368.997	370.035	59	64
369.143	370.035	57	68
369.289	370.035	55	73
369.434	370.035	53	68
369.58	370.035	52	68
369.726	370.035	50	69
369.872	370.035	48	74
370.022	372.353	43	80
370.18	370.632	47	58
370.333	370.78	50	62
370.483	370.927	55	67
370.632	372.353	47	60
370.632	371.223	77	69
370.632	371.223	89	82
370.78	371.223	50	60
370.927	371.363	55	60
371.075	371.503	59	68
371.223	372.353	50	58
371.223	372.353	77	73
371.223	372.353	89	86
371.363	371.782	55	60
371.503	371.922	59	63
371.643	372.062	62	70
371.782	372.342	55	53
371.922	372.353	59	53
372.062	372.353	62	45
372.062	372.353	74	45
372.062	372.353	86	55
372.202	372.353	67	50
372.342	372.886	55	28
372.342	373.454	76	44
372.342	373.454	88	52
372.478	372.75	60	32
372.614	373.164	67	34
372.75	373.454	60	37
372.886	373.443	55	28
372.886	373.454	72	35
372.886	373.454	84	42
373.025	373.304	64	32
373.164	373.454	67	34
373.304	373.454	64	37
373.443	374.026	55	28
373.443	374.627	71	44
373.443	374.627	83	52
373.588	373.88	62	31
373.734	374.317	67	33
373.88	374.627	62	37
374.026	374.627	55	28
374.026	374.627	74	41
374.026	374.627	86	49
374.171	374.463	59	31
374.317	374.627	67	33
374.463	374.627	59	36
374.614	376.944	43	86
374.771	375.223	47	58
374.924	375.371	50	62
375.075	375.519	55	67
375.223	376.944	47	60
375.223	375.815	77	66
375.223	375.815	89	78
375.371	375.815	50	60
375.519	375.954	55	60
375.667	376.094	59	68
375.815	376.944	50	58
375.815	376.944	77	71
375.815	376.944	89	85
375.954	376.374	55	60
376.094	376.514	59	63
376.234	376.653	62	70
376.374	376.933	55	53
376.514	376.944	59	53
376.653	376.944	62	53
376.653	376.944	74	51
376.653	376.944	86	62
376.793	376.944	67	59
376.933	377.477	55	26
376.933	378.046	75	42
376.933	378.046	87	50
377.069	377.341	60	30
377.205	377.756	67	32
377.341	378.046	60	33
377.477	378.034	55	26
377.477	378.046	72	33
377.477	378.046	84	39
377.617	377.895	63	30
377.756	378.046	67	32
377.895	378.046	63	33
378.034	378.617	55	26
378.034	379.211	71	42
378.034	379.211	83	50
378.18	378.471	62	30
378.326	378.909	67	31
378.471	379.211	62	33
378.617	379.2	55	26
378.617	379.211	74	38
378.617	379.211	86	45
378.763	379.054	59	30
378.909	379.211	67	31
379.054	379.211	59	33
379.2	379.744	55	33
379.2	380.312	76	50
379.2	380.312	88	60
379.336	379.608	60	37
379.472	380.023	67	39
379.608	380.312	60	42
379.744	380.301	55	33
379.744	380.312	72	42
379.744	380.312	84	50
379.884	380.162	64	38
380.023	380.312	67	40
380.162	380.312	64	44
380.301	380.884	55	34
380.301	381.478	71	54
380.301	381.478	83	63
380.447	380.738	62	38
380.593	381.176	67	40
380.738	381.478	62	45
380.884	381.467	55	37
380.884	381.478	74	52
380.884	381.478	86	62
381.03	381.321	59	39
381.176	381.478	67	43
381.321	381.478	59	46
381.467	382.011	55	33
381.467	382.58	75	60
381.467	382.58	87	60
381.603	381.875	60	37
381.739	382.58	67	39
381.875	382.151	60	42
382.011	382.568	55	33
382.011	382.58	72	40
382.011	382.58	84	49
382.151	382.429	60	37
382.29	382.58	63	39
382.429	382.58	60	42
382.568	383.151	55	28
382.568	383.151	79	50
382.714	383.005	59	30
382.86	383.741	62	32
383.005	383.741	59	35
383.151	383.729	55	28
383.151	383.741	79	47
383.295	383.584	60	30
383.44	383.741	63	32
383.584	383.741	60	35
383.729	384.312	55	47
383.729	383.923	81	37
383.826	384.02	79	37
383.874	384.166	59	30
383.923	384.117	81	37
384.02	384.321	62	31
384.02	384.214	79	37
384.117	384.312	81	38
384.166	384.321	59	32
384.214	384.321	79	38
384.312	384.891	55	53
384.312	384.505	81	39
384.408	384.602	79	39
384.457	384.747	60	32
384.505	384.698	81	39
384.602	384.891	64	33
384.602	384.795	79	39
384.698	384.891	81	40
384.747	384.891	60	34
384.795	384.891	79	40
384.891	385.466	55	57
384.891	385.084	81	41
384.988	385.18	79	41
385.036	385.323	59	35
385.084	385.275	81	41
385.18	385.479	62	38
385.18	385.371	79	43
385.275	385.466	81	43
385.323	385.479	59	38
385.371	385.479	79	43
385.466	386.035	55	64
385.466	385.657	81	44
385.562	385.752	79	44
385.609	385.893	57	39
385.657	385.846	81	45
385.752	386.043	60	41
385.752	385.941	79	45
385.846	386.035	81	45
385.893	386.043	57	43
385.941	386.043	79	45
386.035	386.455	55	71
386.035	386.221	81	47
386.129	386.316	79	47
386.175	386.609	59	47
386.221	386.409	81	47
386.316	386.609	57	49
386.316	386.502	79	47
386.409	386.597	81	47
386.455	386.609	55	50
386.502	386.609	79	48
386.597	387.018	53	76
386.597	386.784	81	48
386.69	386.878	79	48
386.737	387.172	57	50
386.784	386.971	81	49
386.878	387.172	55	53
386.878	387.065	79	49
386.971	387.16	81	50
387.018	387.172	53	55
387.065	387.172	79	51
387.16	387.58	52	85
387.16	387.347	81	51
387.254	387.44	79	52
387.3	387.733	55	58
387.347	387.533	81	52
387.44	387.733	53	61
387.44	387.627	79	52
387.533	387.721	81	54
387.58	387.733	52	64
387.627	387.733	79	54
387.721	388.148	50	90
387.721	387.909	81	54
387.815	388.004	79	55
387.862	388.305	53	63
387.909	388.1	81	55
388.004	388.305	52	64
388.004	388.196	79	55
388.1	388.293	81	56
388.148	388.305	50	65
388.196	388.305	79	56
388.293	390.522	36	94
388.293	390.522	48	94
388.293	388.482	81	48
388.388	388.577	79	35
388.435	390.522	50	56
388.482	388.669	81	38
388.506	390.522	52	57
388.577	390.522	53	60
388.577	388.762	79	35
388.646	390.522	55	60
388.669	388.856	81	38
388.716	390.522	57	62
388.762	388.947	79	36
388.786	390.51	59	63
388.856	390.371	60	63
388.856	389.039	81	40
388.856	389.401	91	89
388.947	389.131	79	36
388.993	390.234	62	65
389.039	389.219	81	40
389.062	390.093	64	66
389.131	389.956	65	67
389.131	389.311	79	36
389.197	389.815	67	69
389.219	389.401	81	40
389.265	389.677	69	70
389.311	389.492	79	36
389.333	389.537	71	71
389.401	390.522	72	74
389.401	389.583	81	40
389.401	390.522	91	90
389.492	389.677	79	37
389.537	390.522	71	71
389.583	389.769	81	40
389.677	390.522	69	71
389.677	389.862	79	36
389.769	389.956	81	40
389.815	390.522	67	71
389.862	390.048	79	36
389.956	390.522	65	72
389.956	390.14	81	40
390.048	390.234	79	35
390.093	390.522	64	69
390.14	390.325	81	38
390.234	390.522	62	69
390.234	390.418	79	33
390.234	390.522	88	85
390.325	390.51	81	38
390.371	390.522	60	67
390.418	390.522	79	34
390.51	390.78	59	73
390.51	390.69	81	38
390.51	392.757	86	90
390.601	390.78	79	34
390.645	392.757	60	69
390.69	390.869	81	36
390.78	392.757	59	69
390.78	390.96	79	33
390.869	391.051	81	37
390.914	392.757	57	69
390.96	391.051	79	33
391.051	392.757	55	75
391.051	391.143	79	84
391.051	391.235	81	37
391.143	391.327	79	33
391.188	392.757	53	69
391.235	391.418	81	38
391.327	392.757	52	69
391.327	391.512	79	32
391.418	391.604	81	37
391.465	392.757	50	69
391.512	391.696	79	32
391.604	391.742	48	75
391.604	391.788	81	38
391.604	392.757	84	87
391.696	391.882	79	32
391.742	392.746	48	69
391.788	391.975	81	37
391.882	392.757	47	69
391.882	392.068	79	32
391.975	392.161	81	36
392.022	392.757	45	69
392.068	392.256	79	32
392.161	392.757	43	72
392.161	392.354	81	36
392.161	392.757	88	84
392.256	392.449	79	34
392.305	392.757	41	71
392.354	392.546	81	37
392.449	392.757	40	75
392.449	392.645	79	33
392.546	392.746	81	36
392.594	392.757	38	80
392.645	392.757	79	32
392.746	395.066	36	95
392.746	395.066	48	95
392.746	392.947	81	36
392.848	393.053	79	32
392.898	395.066	50	56
392.947	393.155	81	37
392.974	395.066	52	57
393.053	395.066	53	60
393.053	393.257	79	33
393.13	395.066	55	60
393.155	393.359	81	38
393.205	395.066	57	62
393.257	393.456	79	33
393.282	395.057	59	63
393.359	394.918	60	63
393.359	393.553	81	39
393.359	393.944	91	90
393.456	393.653	79	35
393.504	394.779	62	65
393.553	393.749	81	40
393.578	394.639	64	66
393.653	394.499	65	67
393.653	393.848	79	36
393.725	394.36	67	69
393.749	393.944	81	40
393.799	394.221	69	70
393.848	394.035	79	36
393.872	394.081	71	71
393.944	395.066	72	74
393.944	394.127	81	40
393.944	395.066	91	92
394.035	394.221	79	37
394.081	395.066	71	71
394.127	394.313	81	40
394.221	395.066	69	71
394.221	394.407	79	36
394.313	394.499	81	40
394.36	395.066	67	71
394.407	394.592	79	36
394.499	395.066	65	72
394.499	394.687	81	39
394.592	394.779	79	36
394.639	395.066	64	69
394.687	394.871	81	38
394.779	395.066	62	69
394.779	394.964	79	32
394.779	395.066	88	84
394.871	395.057	81	37
394.918	395.066	60	67
394.964	395.066	79	33
395.057	395.327	59	73
395.057	395.236	81	39
395.057	396.152	86	90
395.147	395.327	79	32
395.191	396.152	60	69
395.236	395.417	81	36
395.327	396.152	59	69
395.327	395.507	79	31
395.417	395.599	81	36
395.461	396.152	57	69
395.507	395.599	79	30
395.599	396.152	55	75
395.599	395.691	79	82
395.599	395.783	81	36
395.691	395.876	79	31
395.737	396.152	53	69
395.783	396.152	81	36
395.876	396.152	52	69
395.876	396.06	79	34
395.968	396.152	78	36
396.014	396.152	50	69
396.06	396.152	79	31
396.152	396.435	48	75
396.152	396.435	84	86
396.435	396.718	36	75
396.718	396.813	60	68
396.813	396.907	64	62
396.907	397.001	60	62
397.001	397.285	36	60
397.001	397.285	48	71
397.001	397.096	55	62
397.096	397.19	52	62
397.19	397.285	55	62
397.285	397.378	60	68
397.378	397.471	65	62
397.471	397.564	60	62
397.564	397.843	36	60
397.564	397.843	48	71
397.564	397.657	57	62
397.657	397.75	53	62
397.75	397.843	57	62
397.843	397.936	60	68
397.936	398.029	64	61
398.029	398.122	60	61
398.122	398.401	36	57
398.122	398.401	48	68
398.122	398.215	55	61
398.215	398.308	52	61
398.308	398.401	55	61
398.401	398.494	60	63
398.494	398.587	62	59
398.587	398.68	60	59
398.68	398.959	36	53
398.68	398.959	48	63
398.68	398.773	53	59
398.773	398.866	50	59
398.866	398.959	53	59
398.959	399.054	60	68
399.054	399.148	63	61
399.148	399.242	60	61
399.242	399.526	36	59
399.242	399.526	48	70
399.242	399.337	54	61
399.337	399.431	51	61
399.431	399.526	54	61
399.526	399.62	60	68
399.62	399.714	64	62
399.714	399.809	60	62
399.809	400.092	36	60
399.809	400.092	48	71
399.809	399.903	55	62
399.903	399.997	52	62
399.997	400.092	55	62
400.092	400.187	59	68
400.187	400.282	62	61
400.282	400.378	59	61
400.378	400.663	36	60
400.378	400.663	48	71
400.378	400.473	53	61
400.473	400.568	50	61
400.568	400.663	53	61
400.663	400.758	55	68
400.758	400.852	60	62
400.852	400.946	55	62
400.946	401.229	36	71
400.946	401.041	52	62
401.041	401.135	48	62
401.135	401.229	52	62
401.229	401.323	64	68
401.323	401.416	67	62
401.416	401.51	64	62
401.51	401.79	40	60
401.51	401.79	48	60
401.51	401.79	52	71
401.51	401.603	60	62
401.603	401.697	55	62
401.697	401.79	60	62
401.79	401.882	65	68
401.882	401.974	69	62
401.974	402.065	65	62
402.065	402.341	41	60
402.065	402.341	48	60
402.065	402.341	53	71
402.065	402.157	60	62
402.157	402.249	57	62
402.249	402.341	60	62
402.341	402.433	64	68
402.433	402.526	67	61
402.526	402.618	64	61
402.618	402.896	40	57
402.618	402.896	48	57
402.618	402.896	52	68
402.618	402.711	60	61
402.711	402.804	55	61
402.804	402.896	60	61
402.896	402.989	62	63
402.989	403.081	65	59
403.081	403.174	62	59
403.174	403.452	38	53
403.174	403.452	48	53
403.174	403.452	50	63
403.174	403.267	60	59
403.267	403.359	53	59
403.359	403.452	60	59
403.452	403.546	63	68
403.546	403.64	66	61
403.64	403.735	63	61
403.735	404.018	39	59
403.735	404.018	48	59
403.735	404.018	51	70
403.735	403.829	60	61
403.829	403.923	54	61
403.923	404.018	60	61
404.018	404.112	64	68
404.112	404.206	67	62
404.206	404.301	64	62
404.301	404.584	40	60
404.301	404.584	48	60
404.301	404.584	52	71
404.301	404.395	60	62
404.395	404.489	55	62
404.489	404.584	60	62
404.584	404.679	62	68
404.679	404.774	65	61
404.774	404.87	62	61
404.87	405.155	38	60
404.87	405.155	48	60
404.87	405.155	50	71
404.87	404.965	59	61
404.965	405.06	53	61
405.06	405.155	59	61
405.155	405.25	60	68
405.25	405.345	64	62
405.345	405.441	60	62
405.441	405.726	36	63
405.441	405.726	48	63
405.441	405.536	55	62
405.536	405.631	52	62
405.631	405.726	55	62
405.726	405.822	36	61
405.726	405.822	67	68
405.822	405.917	40	53
405.822	405.917	72	59
405.917	406.012	43	53
405.917	406.012	67	59
406.012	406.107	48	60
406.012	406.107	64	67
406.107	406.203	43	55
406.107	406.203	60	58
406.203	406.298	40	55
406.203	406.298	64	58
406.298	406.39	36	61
406.298	406.39	69	71
406.39	406.482	41	55
406.39	406.482	72	61
406.482	406.574	45	55
406.482	406.574	69	61
406.574	406.667	48	60
406.574	406.667	65	67
406.667	406.759	45	53
406.667	406.759	60	60
406.759	406.851	41	53
406.759	406.851	65	60
406.851	406.944	36	61
406.851	406.944	67	68
406.944	407.037	40	55
406.944	407.037	72	59
407.037	407.13	43	55
407.037	407.13	67	60
407.13	407.223	48	60
407.13	407.223	64	67
407.223	407.316	43	55
407.223	407.316	60	58
407.316	407.409	40	55
407.316	407.409	64	58
407.409	407.502	36	61
407.409	407.502	65	70
407.502	407.595	38	55
407.502	407.595	72	59
407.595	407.688	41	55
407.595	407.688	65	59
407.688	407.781	48	60
407.688	407.781	62	67
407.781	407.874	41	53
407.781	407.874	60	60
407.874	407.967	38	53
407.874	407.967	62	59
407.967	408.062	36	66
407.967	408.062	66	66
408.062	408.156	39	55
408.062	408.156	72	57
408.156	408.25	42	55
408.156	408.25	66	60
408.25	408.345	48	60
408.25	408.345	63	70
408.345	408.439	42	55
408.345	408.439	60	58
408.439	408.533	39	55
408.439	408.533	63	58
408.533	408.628	36	68
408.533	408.628	67	71
408.628	408.722	40	55
408.628	408.722	72	61
408.722	408.816	43	55
408.722	408.816	67	61
408.816	408.911	48	60
408.816	408.911	64	67
408.911	409.005	43	53
408.911	409.005	60	60
409.005	409.099	40	53
409.005	409.099	64	60
409.099	409.195	36	61
409.099	409.195	65	68
409.195	409.29	38	53
409.195	409.29	72	56
409.29	409.385	41	52
409.29	409.385	65	57
409.385	409.481	48	60
409.385	409.481	62	62
409.481	409.576	41	52
409.481	409.576	59	58
409.576	409.671	38	52
409.576	409.671	62	58
409.671	409.765	36	61
409.671	409.765	67	63
409.765	409.86	40	52
409.765	409.86	72	57
409.86	409.954	43	52
409.86	409.954	67	57
409.954	410.048	48	60
409.954	410.048	64	60
410.048	410.143	43	52
410.048	410.143	60	57
410.143	410.237	40	55
410.143	410.237	64	57
410.237	410.331	36	61
410.237	410.331	72	68
410.331	410.424	48	53
410.331	410.424	76	59
410.424	410.518	52	53
410.424	410.518	72	59
410.518	410.611	55	60
410.518	410.611	67	67
410.611	410.705	52	55
410.611	410.705	64	58
410.705	410.798	48	55
410.705	410.798	67	58
410.798	410.89	36	61
410.798	410.89	72	71
410.89	410.982	48	55
410.89	410.982	77	61
410.982	411.074	53	55
410.982	411.074	72	61
411.074	411.167	57	60
411.074	411.167	69	67
411.167	411.259	53	53
411.167	411.259	65	60
411.259	411.351	48	53
411.259	411.351	69	60
411.351	411.444	36	61
411.351	411.444	72	68
411.444	411.537	48	55
411.444	411.537	76	59
411.537	411.63	52	55
411.537	411.63	72	60
411.63	411.723	55	60
411.63	411.723	67	67
411.723	411.816	52	55
411.723	411.816	64	58
411.816	411.909	48	55
411.816	411.909	67	58
411.909	412.002	36	61
411.909	412.002	72	70
412.002	412.095	48	55
412.002	412.095	74	59
412.095	412.188	50	55
412.095	412.188	72	59
412.188	412.281	53	60
412.188	412.281	65	67
412.281	412.374	50	53
412.281	412.374	62	60
412.374	412.467	48	53
412.374	412.467	65	59
412.467	412.562	36	66
412.467	412.562	72	66
412.562	412.656	48	55
412.562	412.656	75	57
412.656	412.75	51	55
412.656	412.75	72	60
412.75	412.845	54	60
412.75	412.845	66	70
412.845	412.939	51	55
412.845	412.939	63	58
412.939	413.033	48	55
412.939	413.033	66	58
413.033	413.128	36	68
413.033	413.128	72	71
413.128	413.222	48	55
413.128	413.222	76	61
413.222	413.316	52	55
413.222	413.316	72	61
413.316	413.411	55	60
413.316	413.411	67	67
413.411	413.505	52	53
413.411	413.505	64	60
413.505	413.599	48	53
413.505	413.599	67	60
413.599	413.695	36	61
413.599	413.695	71	68
413.695	413.79	48	53
413.695	413.79	74	56
413.79	413.885	50	52
413.79	413.885	71	57
413.885	413.981	53	60
413.885	413.981	65	62
413.981	414.076	50	52
413.981	414.076	62	58
414.076	414.171	48	52
414.076	414.171	65	58
414.171	414.265	36	61
414.171	414.265	67	63
414.265	414.36	48	52
414.265	414.36	72	57
414.36	414.454	52	52
414.36	414.454	67	57
414.454	414.548	55	60
414.454	414.548	64	60
414.548	414.643	52	52
414.548	414.643	60	57
414.643	414.737	48	55
414.643	414.737	64	57
414.737	414.832	36	70
414.737	414.832	72	74
414.832	414.927	48	53
414.832	414.927	76	59
414.927	415.022	52	53
414.927	415.022	72	59
415.022	415.116	55	60
415.022	415.116	67	70
415.116	415.211	52	55
415.116	415.211	64	58
415.211	415.306	48	55
415.211	415.306	67	58
415.306	415.399	43	61
415.306	415.399	71	71
415.399	415.492	47	55
415.399	415.492	74	61
415.492	415.585	50	55
415.492	415.585	71	61
415.585	415.678	55	60
415.585	415.678	67	67
415.678	415.771	50	53
415.678	415.771	62	60
415.771	415.864	47	53
415.771	415.864	67	60
415.864	415.959	38	70
415.864	415.959	74	74
415.959	416.054	50	53
415.959	416.054	77	59
416.054	416.149	53	53
416.054	416.149	74	59
416.149	416.244	57	60
416.149	416.244	69	70
416.244	416.338	53	55
416.244	416.338	65	58
416.338	416.433	50	55
416.338	416.433	69	58
416.433	416.526	45	61
416.433	416.526	72	71
416.526	416.619	48	55
416.526	416.619	76	61
416.619	416.712	52	55
416.619	416.712	72	61
416.712	416.805	57	60
416.712	416.805	69	67
416.805	416.898	52	53
416.805	416.898	64	60
416.898	416.992	48	53
416.898	416.992	69	60
416.992	417.086	41	70
416.992	417.086	77	74
417.086	417.181	48	53
417.086	417.181	81	59
417.181	417.276	50	53
417.181	417.276	77	59
417.276	417.371	53	60
417.276	417.371	72	70
417.371	417.466	50	55
417.371	417.466	69	58
417.466	417.56	48	55
417.466	417.56	72	58
417.56	417.655	43	61
417.56	417.655	74	75
417.655	417.749	48	55
417.655	417.749	79	61
417.749	417.843	50	55
417.749	417.843	74	61
417.843	417.938	55	60
417.843	417.938	72	67
417.938	418.032	50	53
417.938	418.032	67	60
418.032	418.126	48	53
418.032	418.126	72	60
418.126	418.221	43	70
418.126	418.221	74	74
418.221	418.316	47	53
418.221	418.316	79	59
418.316	418.411	50	53
418.316	418.411	74	59
418.411	418.506	55	60
418.411	418.506	71	70
418.506	418.601	50	55
418.506	418.601	67	58
418.601	418.695	47	55
418.601	418.695	71	58
418.695	418.788	36	61
418.695	418.788	76	71
418.788	418.881	48	52
418.788	418.881	79	58
418.881	418.975	52	52
418.881	418.975	76	58
418.975	419.068	55	59
418.975	419.068	72	63
419.068	419.162	52	51
419.068	419.162	67	60
419.162	419.256	48	51
419.162	419.256	72	58
419.256	419.35	36	70
419.256	419.35	76	74
419.35	419.445	48	53
419.35	419.445	79	59
419.445	419.539	52	53
419.445	419.539	76	59
419.539	419.633	55	60
419.539	419.633	72	70
419.633	419.728	52	55
419.633	419.728	67	58
419.728	419.821	48	55
419.728	419.821	72	58
419.821	419.914	43	61
419.821	419.914	74	71
419.914	420.007	47	55
419.914	420.007	79	61
420.007	420.1	50	55
420.007	420.1	74	61
420.1	420.194	55	60
420.1	420.194	71	67
420.194	420.287	50	53
420.194	420.287	67	60
420.287	420.382	47	53
420.287	420.382	71	60
420.382	420.476	38	70
420.382	420.476	77	74
420.476	420.571	50	53
420.476	420.571	81	59
420.571	420.666	53	53
420.571	420.666	77	59
420.666	420.76	57	60
420.666	420.76	74	70
420.76	420.855	53	55
420.76	420.855	69	58
420.855	420.95	50	55
420.855	420.95	74	58
420.95	421.043	45	61
420.95	421.043	76	71
421.043	421.136	48	55
421.043	421.136	81	61
421.136	421.229	52	55
421.136	421.229	76	61
421.229	421.322	57	60
421.229	421.322	72	67
421.322	421.415	52	53
421.322	421.415	69	60
421.415	421.508	48	53
421.415	421.508	72	60
421.508	421.603	45	70
421.508	421.603	81	74
421.603	421.698	48	53
421.603	421.698	84	59
421.698	421.793	52	53
421.698	421.793	81	59
421.793	421.888	57	60
421.793	421.888	76	70
421.888	421.982	52	55
421.888	421.982	72	58
421.982	422.077	48	55
421.982	422.077	76	58
422.077	422.17	38	61
422.077	422.17	81	75
422.17	422.263	45	55
422.17	422.263	84	61
422.263	422.356	48	55
422.263	422.356	81	61
422.356	422.449	50	60
422.356	422.449	78	67
422.449	422.542	48	53
422.449	422.542	72	60
422.542	422.635	45	53
422.542	422.635	78	60
422.635	422.73	38	70
422.635	422.73	81	74
422.73	422.825	45	53
422.73	422.825	84	59
422.825	422.92	48	53
422.825	422.92	81	59
422.92	423.015	50	60
422.92	423.015	78	70
423.015	423.11	48	55
423.015	423.11	72	58
423.11	423.204	45	55
423.11	423.204	78	58
423.204	423.297	43	61
423.204	423.297	79	71
423.297	423.39	50	52
423.297	423.39	83	58
423.39	423.484	55	52
423.39	423.484	79	58
423.484	423.577	43	59
423.484	423.577	74	63
423.577	423.67	47	51
423.577	423.67	71	60
423.67	423.763	55	51
423.67	423.763	74	58
423.763	423.857	43	70
423.763	423.857	81	74
423.857	423.952	48	53
423.857	423.952	86	59
423.952	424.047	50	53
423.952	424.047	81	59
424.047	424.142	43	60
424.047	424.142	78	70
424.142	424.237	48	55
424.142	424.237	74	58
424.237	424.332	50	55
424.237	424.332	78	58
424.332	424.425	43	61
424.332	424.425	83	75
424.425	424.518	47	55
424.425	424.518	86	61
424.518	424.611	50	55
424.518	424.611	83	61
424.611	424.704	43	60
424.611	424.704	79	67
424.704	424.797	47	53
424.704	424.797	74	60
424.797	424.89	50	53
424.797	424.89	79	60
424.89	424.985	43	70
424.89	424.985	81	74
424.985	425.079	48	53
424.985	425.079	86	59
425.079	425.174	50	53
425.079	425.174	81	59
425.174	425.269	43	60
425.174	425.269	78	70
425.269	425.364	48	55
425.269	425.364	74	58
425.364	425.459	50	55
425.364	425.459	78	58
425.459	425.552	43	69
425.459	425.552	83	77
425.552	425.645	47	52
425.552	425.645	86	58
425.645	425.738	50	52
425.645	425.738	83	58
425.738	425.831	43	59
425.738	425.831	79	63
425.831	425.924	47	51
425.831	425.924	74	60
425.924	426.017	50	51
425.924	426.017	79	58
426.017	426.111	43	48
426.017	426.111	86	51
426.111	426.205	48	36
426.111	426.205	90	40
426.205	426.299	50	36
426.205	426.299	86	40
426.299	426.393	57	41
426.299	426.393	81	48
426.393	426.486	50	37
426.393	426.486	78	39
426.486	426.58	48	37
426.486	426.58	81	39
426.58	426.673	43	42
426.58	426.673	86	51
426.673	426.765	47	37
426.673	426.765	91	42
426.765	426.857	50	37
426.765	426.857	86	42
426.857	426.949	55	41
426.857	426.949	83	45
426.949	427.041	50	36
426.949	427.041	79	41
427.041	427.133	47	36
427.041	427.133	83	41
427.133	427.227	43	48
427.133	427.227	86	51
427.227	427.321	48	36
427.227	427.321	90	40
427.321	427.415	50	36
427.321	427.415	86	40
427.415	427.509	57	41
427.415	427.509	81	48
427.509	427.603	50	37
427.509	427.603	78	39
427.603	427.697	48	37
427.603	427.697	81	39
427.697	427.79	43	47
427.697	427.79	86	52
427.79	427.883	47	36
427.79	427.883	91	39
427.883	427.976	50	36
427.883	427.976	86	39
427.976	428.069	55	40
427.976	428.069	83	43
428.069	428.162	50	35
428.069	428.162	79	41
428.162	428.255	47	35
428.162	428.255	83	39
428.255	428.35	43	77
428.255	428.35	81	81
428.35	428.445	48	58
428.35	428.445	86	61
428.445	428.539	50	58
428.445	428.539	81	61
428.539	428.634	43	66
428.539	428.634	78	69
428.634	428.729	48	60
428.634	428.729	74	63
428.729	428.824	50	60
428.729	428.824	78	63
428.824	428.917	43	67
428.824	428.917	83	82
428.917	429.01	47	60
428.917	429.01	86	62
429.01	429.103	50	60
429.01	429.103	83	62
429.103	429.196	43	66
429.103	429.196	79	67
429.196	429.289	47	58
429.196	429.289	74	63
429.289	429.382	50	58
429.289	429.382	79	66
429.382	429.477	43	77
429.382	429.477	81	81
429.477	429.572	48	58
429.477	429.572	86	61
429.572	429.667	50	58
429.572	429.667	81	61
429.667	429.761	43	66
429.667	429.761	78	68
429.761	429.856	48	60
429.761	429.856	74	63
429.856	429.951	50	60
429.856	429.951	78	63
429.951	430.044	43	75
429.951	430.044	83	84
430.044	430.137	47	57
430.044	430.137	86	63
430.137	430.23	50	57
430.137	430.23	83	63
430.23	430.323	43	64
430.23	430.323	79	69
430.323	430.416	47	56
430.323	430.416	74	66
430.416	430.509	50	56
430.416	430.509	79	63
430.509	430.603	43	48
430.509	430.603	86	51
430.603	430.697	48	36
430.603	430.697	90	40
430.697	430.791	50	36
430.697	430.791	86	40
430.791	430.885	57	41
430.791	430.885	81	48
430.885	430.979	50	37
430.885	430.979	78	39
430.979	431.073	48	37
430.979	431.073	81	39
431.073	431.165	43	42
431.073	431.165	86	51
431.165	431.257	47	37
431.165	431.257	91	42
431.257	431.349	50	37
431.257	431.349	86	42
431.349	431.441	55	41
431.349	431.441	83	45
431.441	431.533	50	36
431.441	431.533	79	41
431.533	431.626	47	36
431.533	431.626	83	41
431.626	431.72	43	48
431.626	431.72	86	51
431.72	431.815	48	36
431.72	431.815	90	40
431.815	431.91	50	36
431.815	431.91	86	40
431.91	432.005	57	41
431.91	432.005	81	48
432.005	432.1	50	37
432.005	432.1	78	39
432.1	432.194	48	37
432.1	432.194	81	39
432.194	432.288	43	51
432.194	432.288	86	57
432.288	432.381	47	39
432.288	432.381	91	42
432.381	432.474	50	40
432.381	432.474	86	44
432.474	432.567	55	46
432.474	432.567	83	49
432.567	432.66	50	41
432.567	432.66	79	48
432.66	432.753	47	42
432.66	432.753	83	47
432.753	432.848	43	59
432.753	432.848	86	63
432.848	432.942	48	45
432.848	432.942	90	50
432.942	433.037	50	46
432.942	433.037	86	51
433.037	433.132	57	54
433.037	433.132	81	63
433.132	433.227	50	50
433.132	433.227	78	52
433.227	433.322	48	51
433.227	433.322	81	53
433.322	433.415	43	59
433.322	433.415	86	72
433.415	433.508	47	52
433.415	433.508	91	60
433.508	433.601	50	54
433.508	433.601	86	62
433.601	433.694	55	61
433.601	433.694	83	67
433.694	433.787	50	54
433.694	433.787	79	62
433.787	433.88	47	56
433.787	433.88	83	64
433.88	433.975	43	76
433.88	433.975	86	80
433.975	434.07	48	58
433.975	434.07	90	64
434.07	434.164	50	59
434.07	434.164	86	66
434.164	434.259	57	68
434.164	434.259	81	80
434.259	434.354	50	63
434.259	434.354	78	66
434.354	434.449	48	64
434.354	434.449	81	67
434.449	436.278	43	68
434.449	436.278	47	68
434.449	436.278	50	68
434.449	436.278	55	80
434.449	435.054	79	98
434.449	456.189	91	104
435.054	435.676	67	81
435.054	435.676	71	81
435.054	435.676	74	81
435.054	435.676	79	96
435.676	456.189	67	81
435.676	437.483	71	81
435.676	437.483	74	81
435.676	437.483	79	96
436.278	436.881	43	78
436.278	438.722	47	78
436.278	438.722	50	78
436.278	438.722	55	92
436.881	439.327	31	85
436.881	438.722	43	101
437.483	438.099	71	81
437.483	438.099	74	81
437.483	438.099	79	81
437.483	438.099	83	96
438.099	449.784	71	81
438.099	439.915	74	81
438.099	456.189	79	81
438.099	439.915	83	96
438.722	439.327	43	78
438.722	441.163	47	78
438.722	441.163	50	78
438.722	441.163	55	92
439.327	441.772	31	85
439.327	441.163	43	101
439.915	440.537	74	81
439.915	440.537	77	81
439.915	440.537	83	81
439.915	440.537	86	96
440.537	448.561	74	81
440.537	442.363	77	81
440.537	442.363	83	81
440.537	442.363	86	96
441.163	441.772	43	78
441.163	443.641	47	78
441.163	443.641	50	78
441.163	443.641	55	92
441.772	444.259	31	85
441.772	443.641	43	101
442.363	443.004	77	81
442.363	443.004	83	81
442.363	443.004	86	81
442.363	443.004	89	96
443.004	447.328	77	81
443.004	444.868	83	81
443.004	444.868	86	81
443.004	444.868	89	96
443.641	444.259	43	78
443.641	450.396	47	78
443.641	450.396	50	78
443.641	445.48	55	92
444.259	456.189	31	76
444.259	450.396	43	90
444.868	446.095	83	69
444.868	446.095	86	69
444.868	446.095	89	69
444.868	456.189	92	81
445.48	446.707	55	54
445.48	446.707	59	54
445.48	446.707	62	54
445.48	446.707	65	64
446.095	447.328	80	60
446.095	447.328	83	60
446.095	447.328	86	60
446.095	456.189	89	70
446.707	447.94	55	49
446.707	447.94	59	49
446.707	447.94	62	49
446.707	447.94	65	58
447.328	448.561	77	57
447.328	448.561	80	57
447.328	448.561	83	57
447.328	456.189	86	67
447.94	449.173	55	43
447.94	449.173	59	43
447.94	449.173	62	43
447.94	449.173	65	51
448.561	449.784	74	50
448.561	449.784	77	50
448.561	449.784	80	50
448.561	456.189	83	60
449.173	456.189	55	40
449.173	454.771	59	40
449.173	453.494	62	40
449.173	452.231	65	48
449.784	451.008	71	41
449.784	451.008	74	41
449.784	451.008	77	41
449.784	456.189	80	49
450.396	451.62	43	32
450.396	451.62	47	32
450.396	451.62	50	32
450.396	451.62	53	38
451.008	452.231	68	39
451.008	452.231	71	39
451.008	452.231	74	39
451.008	456.189	77	46
451.62	452.856	43	30
451.62	452.856	47	30
451.62	452.856	50	30
451.62	452.856	53	36
452.231	453.494	65	36
452.231	453.494	68	36
452.231	453.494	71	36
452.231	456.189	74	44
452.856	454.132	43	28
452.856	454.132	47	28
452.856	454.132	50	28
452.856	454.132	53	34
453.494	454.771	62	34
453.494	454.771	65	34
453.494	454.771	68	34
453.494	456.189	71	41
454.132	456.189	43	21
454.132	456.189	47	21
454.132	456.189	50	21
454.132	456.189	53	25
454.771	456.189	59	26
454.771	456.189	62	26
454.771	456.189	65	26
454.771	456.189	68	32
456.685	458.564	43	21
456.685	458.564	46	21
456.685	458.564	49	21
456.685	458.564	52	25
457.324	458.564	58	26
457.324	458.564	61	26
457.324	458.564	64	26
457.324	458.564	67	32
459.238	461.186	43	21
459.238	461.186	45	21
459.238	461.186	48	21
459.238	461.186	51	25
459.885	461.186	57	26
459.885	461.186	60	26
459.885	461.186	63	26
459.885	461.186	66	32
461.919	464.889	43	25
462.655	468.797	59	22
462.655	468.797	62	22
462.655	468.797	65	27
463.392	468.797	79	30
464.11	468.797	55	27
464.889	468.797	43	25
465.812	468.797	31	25
468.797	475.474	36	72
468.797	475.474	48	75
468.797	472.025	60	85
469.068	469.278	64	41
469.068	469.278	91	50
469.173	469.375	67	34
469.278	469.472	64	41
469.278	470.656	91	53
469.375	469.569	67	34
469.472	470.053	64	41
469.569	469.764	67	33
469.569	470.252	88	50
469.666	469.861	65	41
469.666	471.24	86	54
469.764	469.957	67	34
469.861	471.24	65	41
469.861	471.436	79	50
469.957	470.153	67	35
470.053	470.252	64	41
470.053	471.628	84	50
470.153	470.351	67	34
470.252	470.45	64	41
470.252	471.144	88	49
470.351	470.553	67	35
470.45	470.656	64	41
470.553	470.755	67	34
470.656	470.854	64	41
470.656	470.854	91	50
470.755	470.951	67	34
470.854	471.047	64	41
470.854	472.025	91	53
470.951	471.144	67	34
471.047	471.628	64	41
471.144	471.338	67	33
471.144	472.687	88	50
471.24	471.436	65	41
471.24	472.783	86	54
471.338	471.532	67	34
471.436	472.783	65	41
471.436	473.07	79	50
471.532	471.727	67	35
471.628	471.826	64	41
471.628	473.166	84	50
471.727	471.925	67	34
471.826	472.025	64	41
471.925	472.119	67	35
472.025	472.214	60	41
472.025	472.214	64	41
472.025	472.214	91	50
472.119	472.308	67	34
472.119	472.308	90	47
472.214	472.403	60	41
472.214	472.403	64	41
472.214	472.403	91	50
472.308	472.497	67	34
472.308	472.497	90	46
472.403	472.592	60	41
472.403	472.592	64	41
472.403	472.592	91	50
472.497	472.687	67	34
472.497	473.653	90	47
472.592	472.783	60	41
472.592	473.166	64	41
472.592	473.559	91	50
472.687	472.878	67	33
472.687	473.458	88	47
472.783	472.974	60	38
472.783	472.974	65	38
472.783	472.974	86	48
472.878	473.07	67	32
472.878	474.413	85	43
472.974	473.166	60	38
472.974	474.317	65	38
472.974	474.317	86	48
473.07	473.264	67	33
473.07	474.605	79	45
473.166	473.361	60	38
473.166	473.361	64	38
473.166	473.361	84	48
473.264	473.458	67	32
473.264	474.798	83	44
473.361	473.559	60	38
473.361	473.559	64	38
473.361	474.701	84	50
473.458	473.653	67	33
473.458	474.221	88	46
473.559	473.748	60	41
473.559	473.748	64	41
473.559	473.748	91	50
473.653	473.842	67	34
473.653	473.842	90	46
473.748	473.937	60	41
473.748	473.937	64	41
473.748	473.937	91	50
473.842	474.032	67	34
473.842	474.032	90	47
473.937	474.126	60	41
473.937	474.126	64	41
473.937	474.126	91	50
474.032	474.221	67	34
474.032	475.474	90	46
474.126	474.317	60	41
474.126	474.701	64	41
474.126	475.474	91	50
474.221	474.413	67	33
474.221	474.993	88	44
474.317	474.509	60	38
474.317	474.509	65	38
474.317	474.509	86	48
474.413	474.605	67	32
474.413	475.186	85	45
474.509	474.701	60	38
474.509	475.09	65	38
474.509	475.09	86	49
474.605	474.798	67	33
474.605	475.378	79	45
474.701	474.895	60	38
474.701	474.895	64	38
474.701	474.895	84	49
474.798	474.993	67	32
474.798	475.474	83	46
474.895	475.09	60	38
474.895	475.474	64	38
474.895	475.474	84	49
474.993	475.186	67	33
474.993	475.474	88	46
475.09	475.282	60	48
475.09	475.282	65	48
475.09	475.282	86	59
475.186	475.378	67	43
475.186	475.474	85	55
475.282	475.474	60	54
475.282	475.474	65	54
475.282	475.474	86	68
475.378	475.474	67	47
475.378	475.474	79	62
475.474	475.577	64	60
475.474	475.577	84	74
475.569	475.673	63	53
475.569	475.673	83	67
475.665	475.769	64	53
475.665	475.769	84	67
475.76	475.858	60	54
475.76	475.858	88	67
475.858	475.962	62	61
475.858	475.962	83	76
475.954	476.057	61	54
475.954	476.057	82	69
476.049	476.153	62	54
476.049	476.153	83	69
476.145	476.242	59	54
476.145	476.242	86	69
476.242	476.346	60	61
476.242	476.346	81	75
476.338	476.441	59	54
476.338	476.441	80	70
476.433	476.537	60	54
476.433	476.537	81	70
476.529	476.627	57	54
476.529	476.627	84	70
476.627	476.73	59	60
476.627	476.73	79	75
476.723	476.826	58	54
476.723	476.826	78	69
476.818	476.922	59	54
476.818	476.922	79	69
476.914	477.011	55	54
476.914	477.011	83	69
477.011	477.115	57	60
477.011	477.115	77	75
477.107	477.21	56	54
477.107	477.21	76	69
477.202	477.306	57	54
477.202	477.306	77	69
477.298	477.395	53	54
477.298	477.395	81	69
477.395	477.5	55	60
477.395	477.5	76	75
477.492	477.596	54	54
477.492	477.596	75	70
477.588	477.692	55	54
477.588	477.692	76	70
477.684	477.783	52	54
477.684	477.783	79	70
477.783	477.888	53	61
477.783	477.888	74	75
477.88	477.984	52	54
477.88	477.984	73	70
477.976	478.081	53	54
477.976	478.081	74	70
478.073	478.173	50	54
478.073	478.173	77	69
478.173	478.278	52	62
478.173	478.278	72	75
478.27	478.375	51	54
478.27	478.375	71	69
478.367	478.472	52	54
478.367	478.472	72	69
478.464	478.563	48	54
478.464	478.563	76	69
478.563	478.668	60	61
478.563	478.668	76	75
478.66	478.765	59	54
478.66	478.765	75	68
478.757	478.862	60	54
478.757	478.862	76	68
478.854	478.953	64	54
478.854	478.953	79	68
478.953	479.057	59	61
478.953	479.057	74	75
479.049	479.154	58	54
479.049	479.154	73	68
479.146	479.25	59	54
479.146	479.25	74	68
479.242	479.341	62	54
479.242	479.341	71	68
479.341	479.444	57	61
479.341	479.444	72	74
479.436	479.54	56	54
479.436	479.54	71	68
479.532	479.636	57	54
479.532	479.636	72	68
479.628	479.725	60	54
479.628	479.725	69	68
479.725	479.829	55	60
479.725	479.829	71	74
479.821	479.924	54	54
479.821	479.924	70	69
479.916	480.02	55	54
479.916	480.02	71	68
480.012	480.11	59	54
480.012	480.11	67	68
480.11	480.213	53	61
480.11	480.213	69	74
480.205	480.309	52	54
480.205	480.309	68	68
480.301	480.405	53	54
480.301	480.405	69	68
480.396	480.494	57	54
480.396	480.494	65	68
480.494	480.598	52	62
480.494	480.598	67	74
480.59	480.694	51	54
480.59	480.694	66	68
480.686	480.79	52	54
480.686	480.79	67	68
480.782	480.881	55	54
480.782	480.881	64	68
480.881	480.986	50	60
480.881	480.986	65	74
480.978	481.082	49	54
480.978	481.082	64	68
481.074	481.179	50	54
481.074	481.179	65	68
481.171	481.271	53	53
481.171	481.271	62	68
481.271	481.465	48	84
481.271	481.376	64	91
481.368	481.473	60	81
481.465	481.57	55	81
481.561	481.659	48	72
481.561	481.659	64	81
481.659	481.852	43	84
481.659	481.764	62	90
481.756	481.86	59	81
481.852	481.956	55	81
481.948	482.046	43	72
481.948	482.046	62	81
482.046	482.237	50	84
482.046	482.149	65	91
482.141	482.245	62	81
482.237	482.34	57	81
482.332	482.43	50	72
482.332	482.43	65	81
482.43	482.622	45	84
482.43	482.534	64	90
482.526	482.629	60	81
482.622	482.725	57	81
482.717	482.816	45	72
482.717	482.816	64	81
482.816	483.007	53	84
482.816	482.919	69	90
482.911	483.015	65	81
483.007	483.11	60	81
483.102	483.201	53	73
483.102	483.201	69	81
483.201	483.392	48	84
483.201	483.304	67	90
483.296	483.4	64	81
483.392	483.496	60	81
483.487	483.585	48	74
483.487	483.585	72	81
483.585	483.777	55	84
483.585	483.689	62	91
483.681	483.785	72	81
483.777	483.88	67	81
483.872	483.97	55	73
483.872	483.97	62	81
483.97	484.161	43	84
483.97	484.074	71	91
484.066	484.169	67	81
484.161	484.265	62	81
484.257	484.355	43	74
484.257	484.355	71	81
484.355	484.547	48	84
484.355	484.459	76	91
484.451	484.555	72	81
484.547	484.65	67	81
484.642	484.74	60	73
484.642	484.74	76	81
484.74	484.931	55	84
484.74	484.844	67	91
484.836	484.939	74	81
484.931	485.035	71	81
485.027	485.125	55	73
485.027	485.125	67	81
485.125	485.316	50	84
485.125	485.229	77	91
485.221	485.324	74	81
485.316	485.42	69	81
485.412	485.51	62	72
485.412	485.51	77	81
485.51	485.702	57	84
485.51	485.614	69	93
485.606	485.71	76	81
485.702	485.805	72	81
485.797	485.896	57	72
485.797	485.896	69	81
485.896	486.089	53	84
485.896	486.0	81	92
485.992	486.097	77	81
486.089	486.194	72	81
486.186	486.286	65	73
486.186	486.286	81	81
486.286	486.481	53	84
486.286	486.392	72	92
486.384	486.489	81	81
486.481	486.587	77	81
486.579	486.681	65	73
486.579	486.681	72	81
486.681	486.876	53	83
486.681	486.787	81	92
486.778	486.884	77	81
486.876	486.982	72	81
486.974	487.075	65	72
486.974	487.075	81	81
487.075	487.271	53	82
487.075	487.181	72	91
487.173	487.279	81	81
487.271	487.378	77	81
487.369	487.471	53	72
487.369	487.471	72	81
487.471	490.594	41	82
487.682	487.881	57	41
487.682	487.881	84	50
487.781	487.977	60	34
487.881	488.073	57	41
487.881	489.24	84	53
487.977	488.17	60	34
488.073	488.654	57	41
488.17	488.364	60	33
488.17	488.852	81	50
488.266	488.462	58	41
488.266	489.809	79	54
488.364	488.558	60	34
488.462	489.809	58	41
488.462	490.097	72	50
488.558	488.753	60	35
488.654	488.852	57	41
488.654	490.193	77	50
488.753	488.952	60	34
488.852	489.051	57	41
488.852	489.713	81	47
488.952	489.145	60	35
489.051	489.24	57	41
489.145	489.334	60	34
489.24	489.429	57	41
489.24	489.429	84	50
489.334	489.524	60	34
489.334	489.524	83	46
489.429	489.618	57	41
489.429	489.618	84	50
489.524	489.713	60	34
489.524	490.594	83	47
489.618	490.193	57	41
489.618	490.594	84	50
489.713	489.905	60	33
489.713	490.485	81	47
489.809	490.001	58	38
489.809	490.001	79	48
489.905	490.097	60	32
489.905	490.594	78	43
490.001	490.594	58	38
490.001	490.594	79	48
490.097	490.29	60	33
490.097	490.594	72	45
490.193	490.387	57	38
490.193	490.387	77	48
490.29	490.485	60	32
490.29	490.594	76	44
490.387	490.594	57	38
490.387	490.594	77	50
490.485	490.594	60	33
490.485	490.594	81	46
490.585	492.964	43	85
490.796	491.188	59	42
490.796	490.995	77	39
490.796	490.995	89	46
490.995	491.768	62	43
490.995	492.376	77	40
490.995	492.376	89	48
491.188	491.967	59	39
491.284	491.967	74	39
491.284	491.967	86	46
491.38	492.96	60	43
491.38	492.96	76	41
491.38	492.96	88	49
491.576	492.964	64	42
491.576	492.964	72	39
491.576	492.964	84	46
491.768	492.575	62	42
491.768	492.964	71	39
491.768	492.964	83	46
491.967	492.376	59	39
491.967	492.864	74	35
491.967	492.864	86	42
492.165	492.964	55	46
492.376	492.767	59	42
492.376	492.575	77	39
492.376	492.575	89	46
492.575	492.964	62	43
492.575	492.964	77	40
492.575	492.964	89	48
492.767	492.964	59	39
492.864	492.964	74	39
492.864	492.964	86	46
492.96	493.164	60	43
492.96	493.164	76	41
492.96	493.164	88	49
493.156	493.356	64	42
493.156	493.356	72	39
493.156	493.356	84	46
493.348	493.555	62	42
493.348	493.555	71	39
493.348	493.555	83	46
493.546	493.745	59	39
493.546	493.745	74	35
493.546	493.745	86	42
493.745	493.949	57	43
493.745	493.949	72	41
493.745	493.949	84	49
493.941	494.141	60	42
493.941	494.141	69	39
493.941	494.141	81	46
494.133	494.338	59	42
494.133	494.338	67	39
494.133	494.338	79	46
494.33	494.526	55	39
494.33	494.526	71	35
494.33	494.526	83	42
494.526	494.73	53	43
494.526	494.73	69	41
494.526	494.73	81	49
494.722	494.922	57	42
494.722	494.922	65	39
494.722	494.922	77	46
494.914	495.119	55	42
494.914	495.119	64	39
494.914	495.119	76	46
495.111	495.308	52	39
495.111	495.308	67	35
495.111	495.308	79	42
495.308	495.508	50	44
495.308	495.508	65	42
495.308	495.508	77	51
495.5	495.705	53	43
495.5	495.705	62	40
495.5	495.705	74	48
495.696	495.898	48	44
495.696	495.898	64	41
495.696	495.898	76	48
495.889	496.085	52	41
495.889	496.085	60	36
495.889	496.085	72	44
496.085	496.286	47	46
496.085	496.286	62	43
496.085	496.286	74	52
496.278	496.482	50	44
496.278	496.482	59	41
496.278	496.482	71	49
496.474	496.674	45	44
496.474	496.674	60	41
496.474	496.674	72	49
496.666	496.862	48	42
496.666	496.862	57	37
496.666	496.862	69	46
496.862	497.062	43	47
496.862	497.062	59	44
496.862	497.062	71	54
497.054	497.258	47	46
497.054	497.258	55	42
497.054	497.258	67	50
497.25	497.451	41	47
497.25	497.451	57	42
497.25	497.451	69	50
497.443	497.637	45	42
497.443	497.637	53	39
497.443	497.637	65	47
497.637	497.837	40	48
497.637	497.837	55	46
497.637	497.837	67	55
497.829	498.033	43	47
497.829	498.033	52	43
497.829	498.033	64	51
498.025	498.228	31	47
498.025	498.228	38	47
498.025	498.228	53	43
498.025	498.228	65	51
498.22	498.42	43	43
498.22	498.42	47	40
498.22	498.42	59	48
498.42	500.009	32	79
498.42	500.009	44	94
498.42	500.009	51	104
498.42	498.819	60	104
498.819	499.219	56	82
498.819	499.219	60	89
498.819	499.219	63	98
499.219	500.009	56	82
499.219	500.009	60	89
499.219	500.009	63	98
499.352	500.009	72	74
499.481	500.009	75	74
499.61	500.009	80	78
499.739	500.009	84	74
499.868	500.009	87	74
500.004	500.195	39	47
500.004	500.131	85	58
500.131	500.258	82	49
500.258	500.385	79	49
500.385	500.577	51	34
500.385	500.577	55	34
500.385	500.577	58	34
500.385	500.577	61	40
500.385	500.513	73	55
500.513	500.641	70	50
500.641	500.778	67	50
500.778	500.97	40	47
500.778	500.906	85	56
500.906	501.034	82	49
501.034	501.162	79	49
501.162	501.353	52	34
501.162	501.353	55	34
501.162	501.353	58	34
501.162	501.353	61	40
501.162	501.289	73	55
501.289	501.417	70	50
501.417	501.558	67	50
501.558	503.149	41	94
501.958	502.357	53	82
501.958	502.357	56	89
501.958	502.357	60	98
502.357	503.149	53	82
502.357	503.149	56	89
502.357	503.149	60	98
502.49	503.149	68	74
502.619	503.149	72	74
502.748	503.149	77	78
502.878	503.149	80	74
503.007	503.149	84	74
503.143	503.334	36	47
503.143	503.27	82	58
503.27	503.397	79	49
503.397	503.525	76	49
503.525	503.716	48	34
503.525	503.716	52	34
503.525	503.716	55	34
503.525	503.716	58	40
503.525	503.652	70	55
503.652	503.78	67	50
503.78	503.916	64	50
503.916	504.108	36	47
503.916	504.044	82	56
504.044	504.172	79	49
504.172	504.3	76	49
504.3	504.491	48	34
504.3	504.491	52	34
504.3	504.491	55	34
504.3	504.491	58	40
504.3	504.427	70	55
504.427	504.555	67	50
504.555	504.683	64	50
504.683	506.273	37	94
505.082	505.482	49	73
505.082	505.482	53	80
505.082	505.482	56	88
505.482	506.273	49	73
505.482	506.273	53	80
505.482	506.273	56	88
505.615	506.273	65	74
505.744	506.273	68	74
505.873	506.273	73	78
506.002	506.273	77	74
506.131	506.273	80	74
506.267	506.459	32	47
506.267	506.395	78	58
506.395	506.523	75	49
506.523	506.651	72	49
506.651	506.842	44	34
506.651	506.842	48	34
506.651	506.842	51	34
506.651	506.842	54	40
506.651	506.778	66	55
506.778	506.906	63	50
506.906	507.043	60	50
507.043	507.235	33	47
507.043	507.171	78	56
507.171	507.299	75	49
507.299	507.428	72	49
507.428	507.62	45	34
507.428	507.62	48	34
507.428	507.62	51	34
507.428	507.62	54	40
507.428	507.556	66	55
507.556	507.684	63	50
507.684	507.818	60	50
507.818	509.403	34	58
507.947	508.206	53	39
508.077	509.403	58	40
508.206	508.595	46	27
508.206	508.595	49	27
508.206	508.595	53	32
508.206	509.403	61	41
508.336	509.403	65	43
508.466	509.403	70	44
508.595	509.403	46	27
508.595	509.403	49	27
508.595	509.403	53	32
508.595	509.403	73	46
508.725	509.252	77	45
508.854	509.403	82	47
508.99	509.403	85	49
509.121	509.403	89	45
509.252	509.403	77	41
509.396	510.981	32	58
509.526	509.785	53	39
509.655	510.981	56	40
509.785	510.174	44	27
509.785	510.174	48	27
509.785	510.174	53	32
509.785	510.981	60	41
509.915	510.981	65	43
510.044	510.981	68	44
510.174	510.981	44	27
510.174	510.981	48	27
510.174	510.981	53	32
510.174	510.981	72	46
510.303	510.831	77	45
510.433	510.981	80	47
510.568	510.981	84	49
510.7	510.981	89	45
510.831	510.981	77	41
510.975	512.56	31	58
511.104	511.363	53	39
511.234	512.56	59	40
511.363	511.752	43	27
511.363	511.752	47	27
511.363	511.752	50	27
511.363	511.752	53	32
511.363	512.56	62	41
511.493	512.56	65	43
511.623	512.56	71	44
511.752	512.56	43	27
511.752	512.56	47	27
511.752	512.56	50	27
511.752	512.56	53	32
511.752	512.56	74	46
511.882	512.409	77	45
512.011	512.56	83	47
512.147	512.56	86	49
512.278	512.56	89	45
512.409	512.56	77	41
512.553	514.14	32	58
512.683	512.942	51	39
512.812	514.14	56	40
512.942	513.331	44	27
512.942	513.331	48	27
512.942	513.331	51	32
512.942	514.14	60	41
513.072	514.14	63	43
513.201	514.14	68	44
513.331	514.14	44	27
513.331	514.14	48	27
513.331	514.14	51	32
513.331	514.14	72	46
513.46	513.988	75	45
513.59	514.14	80	47
513.725	514.14	84	49
513.857	514.14	87	45
513.988	514.14	75	41
514.132	517.353	33	41
514.262	517.299	36	37
514.392	517.353	39	37
514.522	517.353	42	41
514.652	517.353	45	37
514.782	517.353	48	37
514.912	517.353	51	41
515.042	517.353	54	38
515.172	517.353	57	39
515.302	517.353	60	45
515.432	517.353	63	41
515.562	517.353	66	41
515.692	517.353	69	46
515.822	517.353	72	41
515.952	517.353	75	41
516.082	517.353	78	46
516.212	516.734	81	41
516.342	516.603	84	41
516.472	517.0	87	47
516.603	517.137	84	43
516.734	517.353	81	43
516.867	517.353	90	47
517.0	517.353	87	43
517.137	517.353	84	43
517.299	517.513	31	41
517.299	517.513	36	41
517.299	517.513	40	41
517.299	517.513	43	41
517.415	517.521	79	41
517.415	517.521	91	49
517.513	517.619	77	41
517.513	517.619	89	49
517.611	517.717	76	41
517.611	517.717	88	49
517.709	517.815	74	40
517.709	517.815	86	48
517.807	517.913	72	40
517.807	517.913	84	48
517.905	518.011	71	39
517.905	518.011	83	47
518.002	518.108	69	39
518.002	518.108	81	39
518.1	518.296	67	39
518.1	518.296	79	47
518.296	518.403	65	38
518.296	518.403	77	45
518.394	518.502	64	38
518.394	518.502	76	45
518.494	518.602	62	37
518.494	518.602	74	44
518.594	518.703	60	37
518.594	518.703	72	44
518.695	518.806	59	36
518.695	518.806	71	43
518.797	518.913	57	35
518.797	518.913	69	42
518.904	519.698	55	35
518.904	519.698	60	35
518.904	519.698	64	35
518.904	520.089	67	42
519.013	519.119	31	29
519.013	519.119	43	35
519.111	519.216	33	29
519.111	519.216	45	35
519.208	519.314	35	30
519.208	519.314	47	36
519.306	519.412	36	31
519.306	519.412	48	37
519.404	519.51	38	31
519.404	519.51	50	37
519.502	519.608	40	32
519.502	519.608	52	38
519.6	519.706	41	32
519.6	519.706	53	38
519.698	519.893	43	33
519.698	519.893	55	39
519.698	519.991	59	35
519.698	520.089	62	35
519.893	519.999	45	31
519.893	519.999	57	37
519.991	520.097	47	32
519.991	520.097	59	38
520.089	520.195	48	33
520.089	520.195	60	39
520.089	520.48	74	42
520.089	520.48	77	46
520.187	520.293	50	34
520.187	520.293	62	40
520.285	520.391	52	35
520.285	520.391	64	42
520.382	520.488	53	36
520.382	520.488	65	43
520.48	520.676	55	37
520.48	520.676	67	44
520.48	520.529	72	41
520.48	520.529	76	49
520.578	520.684	79	41
520.578	520.684	91	49
520.676	520.782	77	41
520.676	520.782	89	49
520.774	520.88	76	41
520.774	520.88	88	49
520.872	520.978	74	40
520.872	520.978	86	48
520.969	521.075	72	40
520.969	521.075	84	48
521.067	521.173	71	39
521.067	521.173	83	47
521.165	521.271	69	39
521.165	521.271	81	39
521.263	521.459	67	39
521.263	521.459	79	47
521.459	521.565	65	38
521.459	521.565	77	45
521.557	521.665	64	38
521.557	521.665	76	45
521.656	521.765	62	37
521.656	521.765	74	44
521.756	521.866	60	37
521.756	521.866	72	44
521.857	521.968	59	36
521.857	521.968	71	43
521.96	522.075	57	35
521.96	522.075	69	42
522.066	522.86	55	35
522.066	522.86	60	35
522.066	522.86	64	35
522.066	523.251	67	42
522.175	522.281	31	29
522.175	522.281	43	35
522.273	522.379	33	29
522.273	522.379	45	35
522.371	522.477	35	30
522.371	522.477	47	36
522.469	522.575	36	31
522.469	522.575	48	37
522.567	522.673	38	31
522.567	522.673	50	37
522.664	522.77	40	32
522.664	522.77	52	38
522.762	522.868	41	32
522.762	522.868	53	38
522.86	523.056	43	33
522.86	523.056	55	39
522.86	523.154	59	35
522.86	523.251	62	35
523.056	523.162	45	31
523.056	523.162	57	37
523.154	523.26	47	32
523.154	523.26	59	38
523.251	523.357	48	33
523.251	523.357	60	39
523.251	523.643	74	42
523.251	523.643	77	46
523.349	523.455	50	34
523.349	523.455	62	40
523.447	523.553	52	35
523.447	523.553	64	42
523.545	523.655	53	36
523.545	523.655	65	43
523.643	523.888	55	37
523.643	523.888	67	44
523.643	523.717	72	41
523.643	523.717	76	49
523.79	523.896	79	41
523.79	523.896	91	49
523.888	523.994	77	41
523.888	523.994	89	49
523.986	524.092	76	41
523.986	524.092	88	49
524.084	524.19	74	40
524.084	524.19	86	48
524.182	524.288	72	40
524.182	524.288	84	48
524.28	524.386	71	39
524.28	524.386	83	47
524.377	524.483	69	39
524.377	524.483	81	39
524.475	524.671	67	39
524.475	524.671	79	47
524.671	524.778	65	38
524.671	524.778	77	45
524.769	524.877	64	38
524.769	524.877	76	45
524.869	524.977	62	37
524.869	524.977	74	44
524.969	525.078	60	37
524.969	525.078	72	44
525.07	525.181	59	36
525.07	525.181	71	43
525.172	525.288	57	35
525.172	525.288	69	42
525.279	525.387	55	44
525.279	525.395	67	44
525.387	525.493	55	35
525.387	525.493	57	46
525.485	525.591	53	37
525.485	525.591	59	47
525.583	525.689	52	38
525.583	525.689	60	49
525.68	525.786	50	40
525.68	525.786	62	51
525.778	525.884	48	41
525.778	525.884	64	53
525.876	525.982	47	43
525.876	525.982	65	54
525.974	526.08	45	44
525.974	526.08	66	56
526.072	526.267	43	46
526.072	526.178	67	58
526.17	526.275	69	59
526.267	526.373	41	47
526.267	526.373	71	61
526.365	526.471	40	48
526.365	526.471	72	63
526.463	526.57	38	50
526.463	526.57	74	65
526.562	526.669	36	51
526.562	526.669	76	66
526.661	526.768	35	53
526.661	526.768	77	68
526.76	526.964	33	54
526.76	530.049	78	70
526.861	530.049	31	57
526.861	526.998	81	54
526.93	527.067	79	35
526.964	530.049	33	57
526.998	527.134	81	44
527.067	530.049	35	58
527.067	527.202	79	38
527.134	527.269	81	44
527.168	530.049	36	58
527.202	527.336	79	37
527.269	530.049	38	59
527.269	527.403	81	41
527.336	527.47	79	36
527.37	530.049	40	59
527.403	527.537	81	41
527.47	530.049	41	60
527.47	527.604	79	37
527.537	527.671	81	41
527.571	530.049	42	60
527.604	527.738	79	35
527.671	530.049	43	61
527.671	527.805	81	41
527.738	527.872	79	37
527.772	530.049	45	61
527.805	527.939	81	41
527.872	530.049	47	62
527.872	528.005	79	36
527.939	528.072	81	41
527.972	530.049	48	62
528.005	528.138	79	36
528.072	530.049	50	63
528.072	528.204	81	41
528.138	528.271	79	37
528.171	530.049	52	63
528.204	528.337	81	41
528.271	530.049	53	64
528.271	528.403	79	37
528.337	528.468	81	41
528.37	530.049	54	64
528.403	528.533	79	36
528.468	530.049	55	64
528.468	528.599	81	41
528.533	528.664	79	36
528.565	530.049	57	64
528.599	528.729	81	41
528.664	530.049	59	65
528.664	528.793	79	37
528.729	528.858	81	41
528.761	530.049	60	65
528.793	528.924	79	37
528.858	530.049	62	66
528.858	528.989	81	41
528.924	529.055	79	36
528.956	530.049	64	66
528.989	529.122	81	41
529.055	530.049	65	67
529.055	529.187	79	37
529.122	529.251	81	41
529.155	530.049	66	67
529.187	529.316	79	36
529.251	530.049	67	68
529.251	529.382	81	40
529.316	529.448	79	36
529.349	530.049	69	66
529.382	529.512	81	39
529.448	530.049	71	65
529.448	529.577	79	35
529.512	529.642	81	39
529.544	530.049	72	63
529.577	529.708	79	35
529.642	530.049	74	62
529.642	529.774	81	39
529.708	529.84	79	35
529.741	529.94	76	57
529.774	529.907	81	39
529.84	530.04	77	55
529.84	529.973	79	35
529.907	530.04	81	39
529.94	530.049	76	53
529.973	530.049	79	35
530.04	530.641	77	56
530.04	530.173	81	36
530.107	530.24	79	32
530.173	530.307	81	35
530.24	530.374	79	31
530.307	530.441	81	35
530.374	530.508	79	31
530.441	530.574	81	35
530.508	530.641	79	31
530.541	530.739	76	43
530.574	530.706	81	35
530.641	530.837	77	46
530.641	530.771	79	31
530.706	530.837	81	35
530.739	531.329	76	43
530.771	530.902	79	31
530.837	531.427	77	51
530.837	530.967	81	36
530.902	531.034	79	32
530.967	531.099	81	35
531.034	531.164	79	31
531.099	531.23	81	35
531.164	531.296	79	31
531.23	531.361	81	35
531.296	531.427	79	31
531.329	531.524	76	42
531.361	531.492	81	35
531.427	531.623	77	46
531.427	531.557	79	31
531.492	531.623	81	35
531.524	533.198	76	42
531.557	531.687	79	31
531.623	533.198	77	50
531.623	531.752	81	36
531.687	531.819	79	32
531.752	531.883	81	35
531.819	531.949	79	32
531.883	532.016	81	36
531.949	532.08	79	32
532.016	532.147	81	37
532.08	532.213	79	33
532.147	532.277	81	38
532.213	532.341	79	34
532.277	532.406	81	39
532.341	532.472	79	35
532.406	532.537	81	41
532.472	532.602	79	37
532.537	532.667	81	40
532.602	532.73	79	36
532.667	532.795	81	42
532.73	532.861	79	37
532.795	532.928	81	42
532.861	532.993	79	38
532.928	533.059	81	43
532.993	533.125	79	39
533.059	533.191	81	44
533.125	533.198	79	39
533.191	536.426	48	51
533.191	533.325	81	46
533.258	533.393	79	31
533.325	535.883	55	31
533.325	533.461	81	33
533.393	533.528	79	29
533.461	533.731	60	31
533.461	533.595	81	32
533.528	533.663	79	28
533.595	533.863	64	33
533.595	533.731	81	31
533.595	533.998	91	57
533.663	533.797	79	27
533.731	534.537	60	31
533.731	533.863	81	31
533.797	533.93	79	27
533.863	534.133	64	31
533.863	533.998	81	31
533.93	534.066	79	27
533.998	534.268	67	35
533.998	534.133	81	32
533.998	536.434	91	59
534.066	534.199	79	28
534.133	534.403	64	31
534.133	534.268	81	31
534.199	534.336	79	27
534.268	536.434	67	31
534.268	534.403	81	31
534.336	534.47	79	27
534.403	534.673	64	35
534.403	534.537	81	31
534.47	534.606	79	27
534.537	535.747	60	31
534.537	534.673	81	31
534.606	534.741	79	27
534.606	536.018	88	50
534.673	535.613	64	31
534.673	534.808	81	31
534.741	534.875	79	27
534.808	535.075	65	35
534.808	534.941	81	37
534.808	536.434	86	57
534.875	535.009	79	28
534.941	535.207	62	31
534.941	535.075	81	34
535.009	535.141	79	28
535.075	536.434	65	31
535.075	535.207	81	34
535.141	535.207	79	28
535.207	535.478	62	36
535.207	535.275	79	50
535.207	535.342	81	31
535.275	535.41	79	27
535.342	536.434	59	31
535.342	535.478	81	31
535.41	535.545	79	27
535.478	536.434	62	31
535.478	535.613	81	31
535.545	535.68	79	27
535.613	536.434	64	35
535.613	535.747	81	32
535.613	536.434	84	53
535.68	535.815	79	28
535.747	536.018	60	31
535.747	535.883	81	31
535.815	535.95	79	27
535.883	536.154	55	31
535.883	536.018	81	31
535.95	536.086	79	27
536.018	536.434	60	35
536.018	536.154	81	31
536.018	536.434	88	53
536.086	536.221	79	27
536.154	536.434	55	31
536.154	536.289	81	31
536.221	536.358	79	27
536.289	536.434	52	31
536.289	536.426	81	31
536.358	536.434	79	27
536.426	539.008	48	49
536.426	536.56	81	36
536.493	536.627	79	31
536.56	539.008	55	31
536.56	536.695	81	33
536.627	536.762	79	29
536.695	536.965	60	31
536.695	536.829	81	32
536.762	536.897	79	28
536.829	537.098	64	33
536.829	536.965	81	31
536.829	537.233	91	57
536.897	537.032	79	27
536.965	537.772	60	31
536.965	537.098	81	31
537.032	537.165	79	27
537.098	537.368	64	31
537.098	537.233	81	31
537.165	537.301	79	27
537.233	537.502	67	35
537.233	537.368	81	32
537.233	539.008	91	59
537.301	537.434	79	28
537.368	537.638	64	31
537.368	537.502	81	31
537.434	537.57	79	27
537.502	539.008	67	31
537.502	537.638	81	31
537.57	537.705	79	27
537.638	537.908	64	35
537.638	537.772	81	31
537.705	537.84	79	27
537.772	538.847	60	31
537.772	537.908	81	31
537.84	537.976	79	27
537.84	539.008	88	50
537.908	539.008	64	31
537.908	538.043	81	31
537.976	538.11	79	27
538.043	538.31	65	35
538.043	538.176	81	32
538.043	539.008	86	57
538.11	538.243	79	28
538.176	538.577	62	31
538.176	538.31	81	31
538.243	538.375	79	27
538.31	539.008	65	31
538.31	538.442	81	31
538.375	538.442	79	27
538.442	538.713	59	36
538.442	538.509	79	50
538.442	538.577	81	31
538.509	538.645	79	27
538.577	539.008	62	31
538.577	538.713	81	31
538.645	538.78	79	27
538.713	539.008	59	31
538.713	538.847	81	31
538.78	538.915	79	27
538.847	539.008	60	35
538.847	538.982	81	32
538.847	539.049	84	53
538.915	539.008	79	28
538.982	539.117	57	31
538.982	539.049	81	32
539.049	539.117	79	28
539.117	539.253	55	31
539.117	539.184	81	34
539.184	539.253	79	30
539.253	539.388	53	35
539.253	539.321	81	35
539.321	539.388	79	31
539.388	539.526	52	31
539.388	539.457	81	36
539.457	539.526	79	32
539.526	539.661	50	31
539.526	539.594	81	38
539.594	539.661	79	34
539.661	542.916	48	63
539.661	539.795	80	46
539.729	539.863	79	31
539.795	542.916	55	31
539.795	539.931	80	33
539.863	539.998	79	29
539.931	540.201	60	31
539.931	540.065	80	32
539.998	540.133	79	28
540.065	540.334	63	33
540.065	540.201	80	31
540.065	540.469	91	57
540.133	540.268	79	27
540.201	541.008	60	31
540.201	540.334	80	31
540.268	540.401	79	27
540.334	540.603	63	31
540.334	540.469	80	31
540.401	540.537	79	27
540.469	540.738	67	35
540.469	540.603	80	32
540.469	542.916	91	59
540.537	540.67	79	28
540.603	540.874	63	31
540.603	540.738	80	31
540.67	540.806	79	27
540.738	542.916	67	31
540.738	540.874	80	31
540.806	540.941	79	27
540.874	541.143	63	35
540.874	541.008	80	31
540.941	541.076	79	27
541.008	542.218	60	31
541.008	541.143	80	31
541.076	541.211	79	27
541.076	542.916	87	50
541.143	542.083	63	31
541.143	541.279	80	31
541.211	541.345	79	27
541.279	541.545	65	35
541.279	541.411	80	37
541.279	542.916	86	57
541.345	541.479	79	28
541.411	541.678	62	31
541.411	541.545	80	34
541.479	541.611	79	28
541.545	542.916	65	31
541.545	541.678	80	34
541.611	541.678	79	28
541.678	541.949	62	36
541.678	541.745	79	50
541.678	541.812	80	31
541.745	541.88	79	27
541.812	542.916	59	31
541.812	541.949	80	31
541.88	542.016	79	27
541.949	542.916	62	31
541.949	542.083	80	31
542.016	542.151	79	27
542.083	542.353	63	35
542.083	542.218	80	32
542.083	542.916	84	53
542.151	542.285	79	28
542.218	542.916	60	31
542.218	542.353	80	31
542.285	542.421	79	27
542.353	542.916	63	31
542.353	542.488	80	31
542.421	542.555	79	27
542.488	542.916	51	35
542.488	542.761	58	35
542.488	542.624	80	31
542.555	542.692	79	27
542.624	542.916	61	31
542.624	542.916	80	31
542.692	542.832	79	27
542.761	542.916	58	31
542.761	542.916	77	31
542.832	542.916	79	27
542.908	543.32	44	45
542.908	543.042	82	36
542.975	543.11	80	31
543.042	543.32	51	31
543.042	543.178	82	33
543.11	543.245	80	29
543.178	543.32	56	31
543.178	543.32	82	32
543.245	543.32	80	28
543.312	543.581	60	33
543.312	543.448	77	31
543.312	543.716	87	57
543.38	543.515	75	27
543.448	544.255	56	31
543.448	543.581	77	31
543.515	543.648	75	27
543.581	543.85	60	31
543.581	543.716	77	31
543.648	543.783	75	27
543.716	543.985	63	35
543.716	543.85	77	32
543.716	545.487	87	59
543.783	543.917	75	28
543.85	544.12	60	31
543.85	543.985	77	31
543.917	544.053	75	27
543.985	545.487	63	31
543.985	544.12	77	31
544.053	544.188	75	27
544.12	544.39	60	35
544.12	544.255	77	31
544.188	544.323	75	27
544.255	545.465	56	31
544.255	544.39	77	31
544.323	544.458	75	27
544.323	545.487	84	50
544.39	545.33	60	31
544.39	544.526	77	31
544.458	544.592	75	27
544.526	544.792	61	35
544.526	544.658	77	32
544.526	545.487	82	57
544.592	544.726	75	28
544.658	544.925	58	31
544.658	544.792	77	31
544.726	544.858	75	27
544.792	545.487	61	31
544.792	544.925	77	31
544.858	544.925	75	27
544.925	545.195	58	36
544.925	544.992	75	50
544.925	545.059	77	31
544.992	545.127	75	27
545.059	545.487	55	31
545.059	545.195	77	31
545.127	545.263	75	27
545.195	545.487	58	31
545.195	545.33	77	31
545.263	545.397	75	27
545.33	545.487	60	35
545.33	545.465	77	32
545.33	545.533	80	53
545.397	545.487	75	28
545.465	545.601	56	31
545.465	545.533	77	32
545.533	545.601	75	28
545.601	545.737	60	31
545.601	545.669	77	34
545.669	545.737	75	30
545.737	545.94	48	35
545.737	545.873	55	35
545.737	545.806	77	35
545.806	545.873	76	31
545.873	546.008	58	31
545.873	545.94	77	36
545.94	546.008	76	32
546.008	546.144	55	31
546.008	546.076	77	38
546.076	546.144	76	34
546.144	549.801	41	45
546.144	546.278	79	36
546.211	546.346	77	31
546.278	549.109	48	31
546.278	546.414	79	33
546.346	546.481	77	29
546.414	546.684	53	31
546.414	547.761	79	32
546.481	548.566	77	28
546.548	546.816	56	33
546.548	546.684	73	31
546.548	546.951	84	57
546.616	546.75	72	27
546.684	547.49	53	31
546.684	546.816	73	31
546.75	546.883	72	27
546.816	547.086	56	31
546.816	546.951	73	31
546.883	547.019	72	27
546.951	547.221	60	35
546.951	547.086	73	32
546.951	549.801	84	59
547.019	547.152	72	28
547.086	547.356	56	31
547.086	547.221	73	31
547.152	547.289	72	27
547.221	549.801	60	31
547.221	547.356	73	31
547.289	547.423	72	27
547.356	547.626	56	35
547.356	547.49	73	31
547.423	547.558	72	27
547.49	548.701	53	31
547.49	547.626	73	31
547.558	547.694	72	27
547.558	549.176	80	50
547.626	548.566	56	31
547.626	547.761	73	31
547.694	547.828	72	27
547.761	548.028	58	35
547.761	547.894	73	32
547.761	549.38	79	57
547.828	547.962	72	28
547.894	548.16	55	31
547.894	548.028	73	31
547.962	548.094	72	27
548.028	549.38	58	31
548.028	548.16	73	31
548.094	548.16	72	27
548.16	548.431	55	36
548.16	548.228	72	50
548.16	548.295	73	31
548.228	548.363	72	27
548.295	549.779	52	31
548.295	548.431	73	31
548.363	548.498	72	27
548.431	549.513	55	31
548.431	548.566	73	31
548.498	548.633	72	27
548.566	548.837	56	35
548.566	548.701	73	32
548.566	549.801	77	57
548.633	548.769	72	28
548.701	548.973	53	31
548.701	548.837	73	32
548.769	548.904	72	28
548.837	549.801	56	31
548.837	548.973	73	34
548.904	549.041	72	30
548.973	549.244	53	35
548.973	549.109	73	35
549.041	549.176	72	29
549.109	549.801	48	31
549.109	549.244	73	34
549.176	549.312	72	29
549.176	549.801	80	53
549.244	549.801	53	31
549.244	549.38	73	34
549.312	549.446	72	28
549.38	549.646	58	35
549.38	549.513	73	32
549.38	549.801	79	57
549.446	549.58	72	28
549.513	549.801	55	31
549.513	549.646	73	31
549.58	549.712	72	27
549.646	549.801	58	31
549.646	549.779	73	31
549.712	549.779	72	27
549.779	549.913	52	36
549.779	549.846	72	50
549.779	549.846	73	31
549.846	549.981	72	27
549.913	550.05	55	31
549.913	549.981	73	31
549.981	550.117	72	27
550.05	550.184	52	31
550.05	550.117	73	31
550.117	550.184	72	27
550.184	550.319	53	35
550.184	550.252	73	32
550.184	550.591	77	57
550.252	550.319	72	28
550.319	550.456	56	31
550.319	550.388	73	32
550.388	550.456	72	28
550.456	550.591	53	31
550.456	550.523	73	34
550.523	550.591	72	30
550.591	550.727	55	35
550.591	550.66	73	34
550.591	550.998	75	53
550.66	550.727	72	29
550.727	550.862	60	31
550.727	550.794	73	34
550.794	550.862	72	28
550.862	550.998	55	31
550.862	550.93	73	34
550.93	550.998	72	29
550.998	551.202	56	40
550.998	551.202	65	40
550.998	551.066	74	32
551.066	551.134	72	28
551.134	551.202	74	32
551.202	551.27	72	28
551.27	551.338	74	34
551.338	551.406	72	30
551.406	551.474	74	33
551.474	551.542	72	28
551.542	551.609	74	35
551.609	551.813	56	40
551.609	551.813	65	40
551.609	551.677	72	28
551.677	551.745	74	34
551.745	551.813	72	30
551.813	552.015	56	44
551.813	552.015	65	44
551.813	551.881	74	33
551.881	551.948	72	29
551.948	552.015	74	33
552.015	552.082	72	29
552.082	552.149	74	36
552.149	552.216	72	32
552.216	552.283	74	37
552.283	552.35	72	33
552.35	552.416	74	36
552.416	552.615	56	41
552.416	552.615	65	41
552.416	552.483	72	31
552.483	552.549	74	37
552.549	552.615	72	31
552.615	552.812	56	49
552.615	552.812	66	49
552.615	552.681	74	35
552.681	552.746	72	30
552.746	552.812	74	35
552.812	552.879	72	31
552.879	552.944	74	37
552.944	553.009	72	33
553.009	553.076	74	39
553.076	553.141	72	34
553.141	553.206	74	39
553.206	553.403	56	47
553.206	553.403	66	47
553.206	553.272	72	36
553.272	553.338	74	39
553.338	553.403	72	35
553.403	553.599	56	52
553.403	553.599	66	52
553.403	553.468	74	36
553.468	553.534	72	32
553.534	553.599	74	36
553.599	553.666	72	32
553.666	553.732	74	39
553.732	553.798	72	35
553.798	553.863	74	40
553.863	553.928	72	36
553.928	553.994	74	40
553.994	554.191	56	48
553.994	554.191	66	48
553.994	554.06	72	35
554.06	554.125	74	40
554.125	554.191	72	34
554.191	554.388	55	56
554.191	554.388	67	56
554.191	554.256	72	38
554.256	554.322	74	33
554.322	554.388	76	39
554.388	554.581	67	57
554.388	554.581	72	57
554.388	554.453	74	34
554.453	554.517	76	42
554.517	554.581	74	37
554.581	554.778	67	59
554.581	554.778	72	59
554.581	554.646	76	44
554.646	554.712	74	39
554.712	554.778	76	43
554.778	554.972	67	60
554.778	554.972	72	60
554.778	554.842	74	37
554.842	554.907	76	45
554.907	554.972	74	40
554.972	555.167	67	62
554.972	555.167	72	62
554.972	555.038	76	42
555.038	555.103	74	37
555.103	555.167	76	42
555.167	555.361	67	63
555.167	555.361	72	63
555.167	555.231	74	37
555.231	555.295	76	46
555.295	555.361	74	41
555.361	555.556	67	64
555.361	555.556	72	64
555.361	555.427	76	48
555.427	555.492	74	43
555.492	555.556	76	49
555.556	555.755	67	66
555.556	555.755	72	66
555.556	555.62	74	40
555.62	555.687	76	49
555.687	555.755	74	42
555.755	557.311	67	68
555.755	555.819	72	46
555.755	555.819	76	46
555.819	555.883	71	40
555.819	555.883	74	40
555.883	555.948	72	47
555.883	555.948	76	47
555.948	556.012	71	41
555.948	556.012	74	41
555.948	556.142	79	63
556.012	556.077	72	50
556.012	556.077	76	49
556.077	556.142	71	45
556.077	556.142	74	45
556.142	556.207	72	52
556.142	556.207	76	52
556.142	556.336	79	64
556.207	556.272	71	44
556.207	556.272	74	47
556.272	556.336	72	52
556.272	556.336	76	53
556.336	556.401	71	43
556.336	556.401	74	43
556.336	556.531	79	66
556.401	556.466	72	54
556.401	556.466	76	52
556.466	556.531	71	45
556.466	556.531	74	53
556.531	556.596	72	50
556.531	556.596	76	50
556.531	556.725	79	68
556.596	556.66	71	44
556.596	556.66	74	44
556.66	556.725	72	50
556.66	556.725	76	50
556.725	556.789	71	44
556.725	556.789	74	44
556.725	556.921	79	69
556.789	556.855	72	54
556.789	556.855	76	54
556.855	556.921	71	48
556.855	556.921	74	48
556.921	556.986	72	55
556.921	556.986	76	58
556.921	557.115	79	71
556.986	557.051	71	44
556.986	557.051	74	47
557.051	557.115	72	54
557.051	557.115	76	56
557.115	557.18	71	48
557.115	557.18	74	48
557.115	557.311	79	72
557.18	557.246	72	56
557.18	557.246	76	58
557.246	557.311	71	50
557.246	557.311	74	48
557.311	558.978	36	85
557.311	558.987	72	97
557.311	558.987	76	97
557.546	557.759	48	66
557.546	557.759	52	66
557.546	557.759	55	66
557.546	557.759	60	78
557.546	557.759	79	75
557.546	557.759	91	75
557.759	558.987	48	66
557.759	558.563	52	66
557.759	558.159	55	66
557.759	558.563	60	78
557.759	558.364	79	75
557.759	558.987	91	79
558.059	558.771	88	75
558.159	558.987	53	69
558.159	558.563	55	69
558.159	558.987	59	82
558.159	558.987	86	81
558.364	558.987	79	75
558.563	558.987	52	65
558.563	558.987	55	65
558.563	558.987	60	77
558.563	558.987	84	75
558.771	558.987	88	73
558.978	560.642	36	48
559.211	559.421	48	37
559.211	559.421	52	37
559.211	559.421	55	37
559.211	559.421	60	43
559.211	559.421	67	50
559.211	559.421	79	50
559.421	560.649	48	37
559.421	560.229	52	37
559.421	559.822	55	37
559.421	560.229	60	43
559.421	560.029	67	50
559.421	560.649	79	53
559.721	560.435	76	50
559.822	560.649	53	38
559.822	560.229	55	38
559.822	560.649	59	46
559.822	560.649	74	54
560.029	560.649	67	50
560.229	560.649	52	37
560.229	560.649	55	37
560.229	560.649	60	43
560.229	560.649	72	50
560.435	560.649	76	49
560.642	562.206	36	85
560.841	561.032	48	66
560.841	561.032	52	66
560.841	561.032	55	66
560.841	561.032	60	78
560.841	561.032	91	75
560.936	561.127	90	69
561.032	562.214	48	66
561.032	561.81	52	66
561.032	561.417	55	66
561.032	561.81	60	78
561.032	561.223	91	75
561.127	562.214	90	70
561.223	562.214	91	75
561.319	562.105	88	70
561.417	562.214	53	69
561.417	561.81	55	69
561.417	562.214	59	82
561.417	561.614	86	72
561.515	562.214	85	64
561.614	562.214	86	72
561.712	562.214	79	67
561.81	562.214	52	65
561.81	562.214	55	65
561.81	562.214	60	77
561.81	562.007	84	72
561.909	562.214	83	66
562.007	562.214	84	75
562.105	562.214	88	69
562.206	563.762	36	48
562.402	562.593	48	37
562.402	562.593	52	37
562.402	562.593	55	37
562.402	562.593	60	43
562.402	562.593	79	50
562.498	562.689	78	47
562.593	563.762	48	37
562.593	563.368	52	37
562.593	562.978	55	37
562.593	563.368	60	43
562.593	562.785	79	50
562.689	563.762	78	46
562.785	563.762	79	50
562.881	563.663	76	44
562.978	563.762	53	38
562.978	563.368	55	38
562.978	563.762	59	46
562.978	563.173	74	48
563.075	563.762	73	45
563.173	563.762	74	49
563.27	563.762	67	45
563.368	563.762	52	37
563.368	563.762	55	37
563.368	563.762	60	43
563.368	563.565	72	49
563.466	563.762	71	46
563.565	563.762	72	49
563.663	563.762	76	46
563.762	563.953	48	34
563.762	563.953	53	41
563.762	563.857	62	50
563.857	563.953	61	45
563.953	564.145	48	30
563.953	564.145	53	36
563.953	564.049	62	51
564.049	564.145	55	46
564.145	564.336	48	31
564.145	564.336	52	37
564.145	564.249	60	51
564.241	564.344	59	46
564.336	564.53	48	32
564.336	564.53	52	38
564.336	564.44	60	51
564.432	564.53	64	46
564.53	564.722	48	34
564.53	564.722	53	41
564.53	564.626	62	50
564.626	564.722	61	45
564.722	564.913	48	30
564.722	564.913	53	36
564.722	564.817	62	51
564.817	564.913	55	46
564.913	565.105	48	31
564.913	565.105	52	37
564.913	565.017	60	51
565.009	565.113	59	46
565.105	565.298	48	32
565.105	565.298	52	38
565.105	565.208	60	51
565.2	565.298	64	46
565.298	565.488	48	37
565.298	565.488	53	45
565.298	565.393	62	55
565.393	565.488	61	49
565.488	565.677	48	33
565.488	565.677	53	33
565.488	565.677	55	40
565.488	565.582	62	57
565.582	565.677	59	52
565.677	565.866	48	36
565.677	565.866	50	36
565.677	565.866	53	36
565.677	565.866	55	36
565.677	565.866	59	43
565.677	565.779	65	59
565.772	565.874	64	54
565.866	566.056	48	38
565.866	566.056	50	38
565.866	566.056	53	38
565.866	566.056	55	38
565.866	566.056	59	45
565.866	565.968	65	61
565.96	566.056	62	56
566.056	566.245	48	42
566.056	566.245	50	42
566.056	566.245	53	42
566.056	566.245	55	42
566.056	566.245	59	51
566.056	566.151	71	62
566.151	566.245	70	56
566.245	566.435	48	38
566.245	566.435	50	38
566.245	566.435	53	38
566.245	566.435	55	38
566.245	566.435	59	46
566.245	566.34	71	65
566.34	566.435	65	59
566.435	566.623	48	40
566.435	566.623	50	40
566.435	566.623	53	40
566.435	566.623	55	40
566.435	566.623	59	48
566.435	566.537	74	67
566.529	566.631	73	61
566.623	566.813	48	43
566.623	566.813	50	43
566.623	566.813	53	43
566.623	566.813	55	43
566.623	566.813	59	51
566.623	566.725	74	69
566.717	566.813	71	63
566.813	567.002	48	47
566.813	567.002	50	47
566.813	567.002	53	47
566.813	567.002	55	47
566.813	567.002	59	57
566.813	566.907	77	70
566.907	567.002	76	63
567.002	567.19	48	42
567.002	567.19	50	42
567.002	567.19	53	42
567.002	567.19	55	42
567.002	567.19	59	50
567.002	567.096	77	71
567.096	567.19	74	65
567.19	567.377	48	44
567.19	567.377	50	44
567.19	567.377	53	44
567.19	567.377	55	44
567.19	567.377	59	52
567.19	567.291	83	73
567.284	567.385	82	66
567.377	567.566	48	45
567.377	567.566	50	45
567.377	567.566	53	45
567.377	567.566	55	45
567.377	567.566	59	55
567.377	567.478	83	73
567.47	567.566	77	67
567.566	567.754	48	49
567.566	567.754	50	49
567.566	567.754	53	49
567.566	567.754	55	49
567.566	567.754	59	60
567.566	567.66	86	74
567.66	567.754	85	67
567.754	567.942	48	45
567.754	567.942	50	45
567.754	567.942	53	45
567.754	567.942	55	45
567.754	567.942	59	54
567.754	567.848	86	76
567.848	567.942	83	69
567.942	568.128	48	46
567.942	568.128	50	46
567.942	568.128	53	46
567.942	568.128	55	46
567.942	568.128	59	55
567.942	568.043	89	77
568.035	568.136	88	70
568.128	568.317	48	48
568.128	568.317	50	48
568.128	568.317	53	48
568.128	568.317	55	48
568.128	568.317	59	58
568.128	568.23	89	78
568.222	568.317	83	71
568.317	576.846	36	71
568.317	568.698	48	71
568.317	570.03	84	91
568.507	568.698	52	56
568.507	568.888	55	67
568.507	568.698	64	68
568.507	568.888	67	81
568.698	574.485	48	59
568.698	569.078	52	70
568.698	568.888	60	72
568.698	569.078	64	85
568.888	569.078	55	56
568.888	569.269	60	67
568.888	569.078	67	68
568.888	569.269	72	81
569.078	573.698	52	59
569.078	569.459	55	70
569.078	569.269	64	71
569.078	569.459	67	84
569.269	569.459	60	56
569.269	569.65	64	67
569.269	569.459	72	68
569.269	569.65	76	81
569.459	573.698	55	60
569.459	569.65	60	71
569.459	569.84	67	73
569.459	569.84	72	86
569.65	572.912	60	56
569.65	569.84	64	67
569.65	569.84	76	68
569.65	570.03	79	81
569.84	570.221	64	59
569.84	570.03	67	70
569.84	570.03	72	73
569.84	570.221	76	86
570.03	570.221	67	57
570.03	570.411	72	68
570.03	570.221	79	68
570.03	570.411	84	81
570.221	572.125	64	59
570.221	570.602	67	70
570.221	570.411	76	73
570.221	570.602	79	86
570.411	570.602	72	57
570.411	570.792	76	68
570.411	570.602	84	69
570.411	570.792	88	82
570.602	572.125	67	60
570.602	570.982	72	71
570.602	570.792	79	73
570.602	570.982	84	87
570.792	570.982	76	58
570.792	571.173	79	69
570.792	570.982	88	69
570.792	571.173	91	82
570.982	571.363	72	61
570.982	571.173	76	72
570.982	571.363	84	74
570.982	571.173	88	88
571.173	571.363	76	58
571.173	572.125	79	69
571.173	571.363	88	69
571.173	576.846	91	82
571.363	572.912	72	61
571.363	572.125	76	72
571.363	576.846	84	73
571.363	576.846	88	87
572.125	572.912	64	44
572.125	573.698	67	62
572.125	572.912	76	54
572.125	575.272	79	76
572.912	574.485	60	39
572.912	573.698	64	56
572.912	576.059	72	50
572.912	575.272	76	70
573.698	574.485	52	37
573.698	577.846	55	52
573.698	574.485	64	43
573.698	575.272	67	60
574.485	576.846	48	32
574.485	577.846	52	45
574.485	576.059	60	39
574.485	575.272	64	56
575.272	575.666	64	28
575.272	575.666	67	34
575.272	575.666	76	36
575.272	575.666	79	43
575.666	576.059	64	28
575.666	577.846	67	34
575.666	576.059	76	36
575.666	576.846	79	43
576.059	577.846	60	28
576.059	577.846	64	34
576.059	577.846	72	35
576.059	577.646	76	42
576.846	577.246	36	69
576.846	577.246	40	69
576.846	577.246	43	69
576.846	577.246	48	82
576.846	577.246	79	85
576.846	577.246	84	85
576.846	577.246	88	101
576.846	577.246	91	101
577.246	577.646	36	69
577.246	577.646	40	69
577.246	577.646	43	69
577.246	577.646	48	82
577.246	577.646	79	85
577.246	577.646	84	85
577.246	577.646	88	101
577.246	577.846	91	101
577.646	577.846	36	69
577.646	577.846	40	69
577.646	577.846	43	69
577.646	577.846	48	82
577.646	577.846	76	85
577.646	577.846	79	85
577.646	577.846	84	101
577.646	577.846	88	101
578.446	578.652	36	69
578.446	578.652	40	69
578.446	578.652	43	69
578.446	578.652	48	82
578.446	578.652	64	85
578.446	578.652	67	85
578.446	578.652	72	101
578.446	578.652	76	101
579.271	579.477	36	69
579.271	579.477	40	69
579.271	579.477	43	69
579.271	579.477	48	82
579.271	579.477	60	85
579.271	579.477	64	85
579.271	579.477	67	101
579.271	579.477	72	101
