OnsetTime	OffsetTime	MidiPitch	Velocity
0.520993	1.50099	53	39
0.523983	1.69999	37	32
0.523983	1.504	56	46
0.524989	1.69999	44	32
0.524989	1.70099	49	38
1.403	1.80899	54	31
1.40599	1.81198	58	37
1.70398	2.32998	56	37
1.70499	2.33297	44	25
1.70499	2.32599	53	31
1.70699	2.33398	37	25
1.70799	2.33697	49	30
2.33697	4.03096	53	46
2.33798	4.03096	37	27
2.33798	4.03096	49	32
2.33997	4.03096	44	27
2.48398	3.47797	56	39
2.62497	3.47597	61	43
2.76799	3.47597	65	40
2.90797	4.03096	68	43
3.05198	4.03096	73	43
3.18798	4.03096	77	44
3.32798	4.03096	80	47
3.47496	4.07295	85	52
3.47597	4.07295	61	30
3.47597	4.07696	65	30
3.47797	4.07696	56	25
4.12596	5.10195	65	38
4.12596	5.10195	68	38
4.12696	5.29796	56	26
4.12896	5.29796	49	26
4.12896	5.30195	61	31
5.00096	5.40295	66	35
5.00396	5.40295	70	35
5.30195	5.92494	65	36
5.30295	5.92794	68	36
5.30494	5.92794	49	25
5.30494	5.92895	61	30
5.30595	5.93194	56	25
5.93294	7.66789	56	27
5.93294	7.66789	65	38
5.93494	7.66789	49	27
5.93494	7.66789	61	32
6.07194	7.0639	68	32
6.21593	7.0639	73	36
6.36192	7.0659	77	34
6.50592	7.66789	80	36
6.6459	7.66789	85	36
6.7859	7.66789	89	37
6.9219	7.66789	92	38
7.06289	7.7209	97	42
7.0639	7.7219	68	21
7.0639	7.7209	73	21
7.0659	7.7239	77	25
7.7239	8.89088	54	39
7.7249	8.89288	63	46
7.72789	8.89389	44	34
7.72789	8.89389	48	40
8.89088	9.51288	54	39
8.89288	10.5249	63	46
8.89389	9.51288	44	39
8.89389	10.6689	48	39
9.34189	9.51588	51	36
9.34189	9.51288	60	42
9.51288	10.6689	44	35
9.51288	11.0989	54	35
9.51288	10.6679	60	42
9.51588	11.2769	51	42
9.67688	11.2769	80	46
9.81787	11.2769	78	43
9.95287	11.2769	75	43
10.1009	11.2769	72	49
10.2399	11.2769	68	48
10.3799	11.2769	66	44
10.5249	11.2769	63	44
10.6679	11.2769	60	46
10.6689	11.2729	44	29
10.6689	11.2769	48	35
10.8039	11.2769	56	42
10.9479	11.2769	55	46
11.0989	11.2769	54	42
11.2699	12.4389	61	46
11.2729	12.4419	37	33
11.2729	12.4429	44	33
11.2729	12.4379	53	39
11.2739	12.4419	49	39
12.4379	13.0659	53	37
12.4389	13.7859	61	44
12.4419	13.0689	37	31
12.4419	13.0689	49	37
12.4429	13.0679	44	31
13.0659	14.0698	53	35
13.0669	13.9259	56	42
13.0679	14.3598	44	29
13.0689	14.6578	37	29
13.0689	14.2128	49	35
13.2189	14.8568	77	49
13.3629	14.8568	73	46
13.5019	14.8568	68	46
13.6459	14.8568	65	49
13.7859	14.8568	61	43
13.9259	14.8498	56	46
14.0698	14.8568	53	43
14.2128	14.8568	49	42
14.3598	14.8568	44	38
14.4998	14.8548	41	40
14.6578	14.8568	37	39
14.8498	15.9518	50	36
14.8498	15.9528	56	36
14.8538	15.9528	34	33
14.8538	15.6718	58	43
14.8548	15.9538	41	33
14.8568	15.9558	46	39
15.6728	15.9558	59	42
15.9568	16.5188	58	39
15.9588	16.5198	56	33
15.9598	16.5228	34	32
15.9598	16.5228	46	38
15.9598	16.5198	50	33
15.9628	16.5258	41	32
16.5268	16.6598	51	33
16.5268	16.7928	54	39
16.5278	17.7548	39	30
16.5298	17.7548	46	36
16.6598	17.7548	51	39
16.7928	17.6158	54	42
16.9328	17.6168	58	42
17.0648	17.6158	63	48
17.2058	17.4788	66	44
17.3418	17.7548	70	49
17.4788	17.7548	66	50
17.6148	18.2548	75	63
17.6158	18.2558	54	26
17.6158	18.2558	63	31
17.6168	18.2588	58	26
18.2598	19.3298	62	45
18.2618	19.3298	68	45
18.2618	19.0678	70	54
18.2628	19.3328	46	33
18.2628	19.3308	53	33
18.2658	19.3328	58	39
19.0678	19.3338	71	52
19.3368	19.8938	62	44
19.3368	19.8928	68	44
19.3378	19.8968	53	32
19.3378	19.8938	70	52
19.3398	19.8978	46	32
19.3398	19.8978	58	38
19.8978	20.0348	63	57
19.8998	20.1668	66	57
19.9008	21.2828	51	41
19.9008	20.9708	58	49
20.0348	20.9718	63	49
20.1668	21.2828	66	57
20.2988	21.2828	70	51
20.4328	21.2828	75	55
20.5658	20.8358	78	59
20.7018	21.2828	82	64
20.8358	21.2828	78	69
20.9688	21.3848	87	75
20.9708	21.5428	54	45
20.9708	21.5418	58	45
20.9718	21.5428	63	53
21.3848	21.5428	85	65
21.5448	21.6818	84	71
21.5458	22.6027	32	54
21.5458	22.6027	44	64
21.6818	21.8148	92	76
21.8157	21.9478	90	72
21.9478	22.0727	87	72
22.0777	22.2098	84	77
22.2107	22.3437	80	72
22.3437	22.4687	78	72
22.4697	22.6057	75	72
22.6057	22.7377	72	74
22.6097	23.1307	56	51
22.6097	23.1197	60	51
22.6107	22.8647	66	60
22.7387	22.8657	68	72
22.8677	23.1317	66	72
22.9977	23.1317	63	72
23.1337	23.2637	60	71
23.1347	24.2407	44	65
23.1377	24.2407	32	55
23.2677	23.4037	56	67
23.4077	23.5437	55	71
23.5447	23.6767	56	67
23.6767	23.8167	58	66
23.8177	23.9567	56	59
23.9567	24.0997	55	66
24.1007	24.6877	56	59
24.2437	24.6887	65	65
24.2447	24.8347	44	51
24.2447	24.8357	48	60
24.6887	24.8357	54	51
24.6907	24.8357	63	61
24.8387	25.2447	61	65
24.8397	27.1067	37	51
24.8397	27.1067	49	60
24.8397	24.9787	53	55
24.8417	27.1067	44	51
24.9787	27.1067	53	64
25.1117	25.9177	56	64
25.2447	25.9177	61	64
25.3787	25.9207	65	64
25.5107	27.1067	68	63
25.6477	27.1067	73	61
25.7807	27.1067	77	61
25.9167	27.1067	80	61
25.9177	26.5117	56	36
25.9177	26.5117	61	36
25.9207	26.5097	65	43
26.0527	27.1067	85	63
26.1937	27.1067	89	64
26.3377	27.1067	92	65
26.5087	27.1767	97	77
26.5097	27.1767	65	43
26.5117	27.1807	56	36
26.5117	27.1807	61	36
27.8037	28.2757	61	61
28.2767	28.4297	65	54
28.4337	29.7667	39	45
28.4337	29.4277	65	63
28.4347	28.7177	51	54
28.7177	29.2847	51	49
29.0007	29.5747	61	49
29.0037	29.5747	55	41
29.2837	29.7667	63	57
29.2847	29.7667	51	49
29.4277	29.7667	65	58
29.5717	29.7667	67	59
29.5747	29.8607	55	41
29.5747	29.8617	61	49
29.7137	29.8617	68	61
29.8627	30.0117	70	63
29.8647	30.1557	51	49
30.0117	30.1587	72	64
30.1587	31.9197	73	66
30.1597	31.9197	39	45
30.1627	30.4437	51	54
30.4437	31.0126	51	47
30.7257	31.3027	61	47
30.7267	31.3027	55	39
30.8737	30.9647	75	64
30.9187	31.3007	77	64
30.9647	31.1567	75	64
31.0126	31.6007	51	47
31.0126	31.9197	74	64
31.1567	31.9197	75	66
31.3007	31.9197	77	70
31.3027	31.9197	55	39
31.3027	31.9197	61	47
31.4467	31.9197	79	73
31.5977	31.9197	80	76
31.6007	31.9197	51	47
31.7477	31.9197	82	80
31.9167	33.7127	44	54
31.9167	34.6567	84	84
31.9187	33.7117	32	45
32.2377	32.8197	51	48
32.5257	33.1097	60	48
32.5277	33.1087	56	40
32.8167	33.2557	82	64
32.8197	33.4177	51	42
32.9587	33.4147	80	64
33.1057	34.6567	79	70
33.1087	34.2967	56	35
33.1097	34.2957	60	42
33.2557	34.6567	82	63
33.4147	34.6567	80	65
33.4177	34.0017	51	42
33.5577	34.6567	77	60
33.7117	34.6567	32	45
33.7117	34.8867	75	60
33.7127	34.6567	44	54
34.0017	34.5937	51	37
34.2957	34.6567	60	37
34.2967	34.6567	56	31
34.5937	34.8877	51	37
34.8877	35.3286	72	51
34.8907	35.1807	56	31
34.8907	35.3286	75	60
34.8917	35.1847	60	37
35.1857	35.4887	51	37
35.3316	35.4926	73	48
35.3316	35.4936	77	57
35.4956	36.3636	73	51
35.4966	37.2396	39	45
35.4966	35.7807	51	54
35.4966	36.3646	77	60
35.7807	36.3676	51	37
35.7807	36.6486	67	57
36.0736	36.6516	55	31
36.0746	36.6516	61	37
36.3636	36.9346	73	49
36.3646	36.9346	77	58
36.3676	36.9346	51	37
36.6486	37.5266	67	53
36.6516	37.8136	55	31
36.6516	37.8166	61	37
36.9346	37.2366	51	37
36.9346	37.2356	73	49
36.9346	37.2366	77	58
37.2356	37.8166	73	51
37.2366	37.5276	51	54
37.2366	37.8166	77	60
37.2396	37.8166	39	45
37.5266	37.8166	67	58
37.5276	37.8166	51	37
37.8136	38.1066	55	31
37.8166	38.1106	61	37
38.1116	38.3976	65	51
38.1136	38.4006	51	37
38.1136	38.3986	73	60
38.4016	38.6946	63	51
38.4046	38.6956	72	60
38.4056	38.6956	55	37
38.6986	38.9956	61	48
38.6996	38.9996	51	37
38.6996	38.9966	70	57
39.0006	40.7246	44	54
39.0006	39.5846	60	54
39.0026	40.7246	32	45
39.1466	41.7576	72	60
39.2946	39.8786	51	37
39.5846	40.1556	56	31
39.5846	40.1556	60	37
39.8756	40.2946	70	59
39.8786	40.4426	51	37
40.0146	40.4416	68	57
40.1546	41.7576	67	57
40.1556	41.3036	56	31
40.1556	41.3036	60	37
40.2946	41.7576	70	59
40.4416	41.7576	68	58
40.4426	41.0126	51	37
40.5786	41.7576	65	54
40.7226	41.8836	63	53
40.7246	41.7576	32	45
40.7246	41.7576	44	54
41.0126	41.5936	51	37
41.3036	41.7576	56	31
41.3036	41.7576	60	37
41.5936	41.8846	51	37
41.8846	42.3346	63	64
41.8856	42.1836	56	31
41.8866	42.1846	60	37
42.1846	42.5026	51	37
42.3356	42.5036	65	59
42.5036	43.4976	65	63
42.5066	43.8436	39	45
42.5066	42.7906	51	54
42.7906	43.3616	51	49
43.0746	43.6436	55	41
43.0746	43.6436	61	49
43.3606	43.8436	63	57
43.3616	43.8436	51	49
43.4976	43.8436	65	58
43.6416	43.8436	67	59
43.6436	43.9316	55	41
43.6436	43.9306	61	49
43.7876	43.9316	68	61
43.9346	44.0816	70	63
43.9356	44.2246	51	49
44.0816	44.2286	72	64
44.2296	45.9926	39	45
44.2296	45.9926	73	66
44.2316	44.5126	51	54
44.5126	45.0866	51	47
44.7966	45.3746	55	39
44.7996	45.3736	61	47
44.9436	45.0336	75	64
44.9886	45.3736	77	64
45.0336	45.2266	75	64
45.0826	45.9926	74	64
45.0866	45.6706	51	47
45.2266	45.9926	75	66
45.3736	45.9926	61	47
45.3736	45.9926	77	70
45.3746	45.9926	55	39
45.5176	45.9926	79	73
45.6706	45.9926	51	47
45.6706	45.9926	80	76
45.8186	45.9926	82	80
45.9896	47.7956	44	54
45.9896	48.7605	84	84
45.9906	47.7956	32	45
46.3076	46.8896	51	48
46.5986	47.1796	60	48
46.5996	47.1796	56	40
46.8896	47.4875	51	42
46.8896	47.3265	82	64
47.0326	47.4875	80	64
47.1785	48.7605	79	70
47.1796	48.3945	56	35
47.1796	48.3975	60	42
47.3265	48.7605	82	63
47.4875	48.1026	51	42
47.4875	48.7605	80	65
47.6415	48.7605	77	60
47.7946	48.9925	75	60
47.7956	48.7605	32	45
47.7956	48.7605	44	54
48.1026	48.6985	51	37
48.3945	48.7605	56	31
48.3975	48.7605	60	37
48.6985	48.9925	51	37
48.9925	49.4295	72	51
48.9955	49.2825	56	31
48.9955	49.2825	60	37
48.9955	49.4305	75	60
49.2865	49.5905	51	37
49.4305	49.5905	73	48
49.4325	49.5915	77	57
49.5945	50.4715	73	51
49.5945	50.4705	77	60
49.5955	49.8885	51	54
49.5975	51.3385	39	45
49.8855	50.7545	67	57
49.8885	50.4725	51	37
50.1755	50.7555	55	31
50.1765	50.7565	61	37
50.4705	51.0355	77	58
50.4715	51.0335	73	49
50.4725	51.0365	51	37
50.7545	51.6285	67	53
50.7555	51.9185	55	31
50.7565	51.9145	61	37
51.0335	51.3375	73	49
51.0355	51.3365	77	58
51.0365	51.3375	51	37
51.3365	51.9185	77	60
51.3375	51.6285	51	54
51.3375	51.9185	73	51
51.3385	51.9185	39	45
51.6285	51.9185	51	37
51.6285	51.9185	67	58
51.9145	52.2085	61	37
51.9185	52.2125	55	31
52.2125	52.3515	65	51
52.2135	52.4995	51	37
52.2135	52.3565	73	60
52.4995	52.6495	63	51
52.5025	52.7965	55	37
52.5025	52.6505	72	60
52.7965	52.9465	70	57
52.7975	53.0975	51	37
52.7975	52.9475	61	48
53.0975	53.6995	60	48
53.0985	53.8465	68	57
53.1015	53.2555	44	31
53.1015	53.2545	56	37
53.4025	53.7005	51	37
53.7005	53.9965	56	31
53.7025	53.9975	60	37
53.8465	54.0005	63	57
54.0005	54.1405	68	52
54.0015	54.2835	51	37
54.1445	54.2885	72	51
54.2905	54.4385	75	49
54.2915	54.5855	56	31
54.2915	54.5845	60	37
54.4385	54.5855	80	47
54.5865	54.7285	84	44
54.5885	54.8785	51	37
54.7285	54.8795	87	42
54.8715	55.0195	92	44
54.8825	55.4675	60	37
54.8835	55.4675	56	31
55.0225	55.1345	80	37
55.1655	55.3125	80	37
55.3275	55.4355	92	37
55.4675	55.6135	92	44
55.6105	55.7225	80	37
55.7615	55.9045	80	37
55.9115	56.0205	92	37
56.0585	56.2015	92	43
56.2025	56.3215	80	37
56.3495	56.4925	80	37
56.4935	57.5565	61	46
56.4955	56.6145	92	37
56.5655	57.5575	65	39
56.6435	57.5575	68	52
56.6505	56.7905	92	44
56.7905	56.8985	80	37
56.9265	57.0735	80	37
57.0665	57.1785	92	37
57.2095	57.3575	92	44
57.3645	57.4685	80	37
57.5005	57.6475	80	37
57.5075	57.8465	70	52
57.6475	57.7535	92	37
57.7905	58.2615	65	35
57.7915	58.2615	61	35
57.7945	58.2635	68	42
57.8045	57.9555	92	40
57.9485	58.0645	80	35
58.0995	58.2565	80	35
58.2605	58.3795	92	35
58.2635	60.0174	56	38
58.3445	60.0174	61	32
58.4255	58.5715	92	34
58.4325	60.0174	65	46
58.5785	58.6805	80	28
58.7225	58.8685	80	28
58.8695	58.9705	92	28
59.0124	59.1524	92	32
59.1534	59.2614	80	27
59.2924	59.4354	80	27
59.4424	59.5514	92	27
59.5834	59.7274	92	34
59.7294	59.8344	80	28
59.8664	60.0104	80	27
60.0214	61.0874	61	46
60.0214	60.1424	92	27
60.0974	61.0914	65	39
60.1784	61.0944	68	52
60.1854	60.3284	92	48
60.3324	60.4334	80	37
60.4684	60.6124	80	37
60.6084	60.7204	92	37
60.7654	60.9024	92	44
60.9024	61.0154	80	37
61.0424	61.3334	70	53
61.0574	61.1964	80	37
61.1964	61.3054	92	37
61.3334	61.7913	65	36
61.3374	61.7953	61	36
61.3374	61.7923	68	43
61.3404	61.4904	92	39
61.4803	61.5953	80	35
61.6413	61.7953	80	35
61.7873	61.9143	92	35
61.7963	63.7023	56	40
61.8723	63.7033	61	34
61.9593	63.7053	65	47
61.9673	62.1093	92	32
62.0993	62.2113	80	26
62.2503	62.3963	80	26
62.3973	62.5093	92	27
62.5403	62.6873	92	35
62.6883	62.7963	80	28
62.8243	62.9713	80	28
62.9713	63.0753	92	28
63.1073	63.2553	92	36
63.2553	63.3663	80	28
63.4043	63.5553	80	28
63.4753	64.6023	66	51
63.5453	63.6603	92	28
63.5523	64.6793	68	51
63.6253	64.7703	72	43
63.6953	63.8353	82	37
63.7063	64.8573	75	63
63.7723	63.9133	80	31
63.8353	63.9753	82	37
63.9133	64.0453	80	30
63.9753	64.1083	82	37
64.0453	64.1853	80	32
64.1083	64.2483	82	38
64.1853	64.3183	80	32
64.2483	64.3813	82	39
64.3183	64.4583	80	34
64.3813	64.5323	82	39
64.4583	64.6023	80	34
64.5323	64.6783	82	40
64.6023	65.3223	66	49
64.6023	64.7663	80	35
64.6783	64.8503	82	42
64.6793	65.4103	68	49
64.7663	64.9343	80	35
64.7703	65.4983	72	41
64.8503	65.0073	82	42
64.8573	67.1224	75	61
64.9343	65.0813	80	34
65.0073	65.1763	82	40
65.0813	65.2463	80	34
65.1763	65.3153	82	39
65.2463	67.1224	63	39
65.2463	65.4033	80	34
65.3153	65.4913	82	38
65.3223	67.1224	66	47
65.4033	65.5653	80	31
65.4103	67.1224	68	39
65.4913	65.6343	82	37
65.4983	67.1224	72	58
65.5653	65.7043	80	32
65.6343	65.7674	82	35
65.7043	65.8373	80	30
65.7674	65.9043	82	35
65.8373	65.9733	80	31
65.9043	66.0403	82	35
65.9733	66.1033	80	35
66.0403	66.1703	82	35
66.1033	66.2443	80	30
66.1703	66.3203	82	38
66.2443	66.3833	80	35
66.3203	66.4533	82	39
66.3833	66.5173	80	35
66.4533	66.6003	82	40
66.5173	66.6744	80	36
66.6003	66.7474	82	43
66.6744	66.8254	80	38
66.7474	66.8954	82	43
66.8254	66.9644	80	38
66.8954	67.0454	82	43
66.9644	67.1224	80	37
67.0454	67.1574	82	42
67.0464	68.1994	65	52
67.1254	67.2864	80	36
67.1294	68.2844	68	44
67.2194	68.3684	73	66
67.2264	67.3604	82	43
67.2864	67.4304	80	38
67.3604	67.5004	82	43
67.4304	67.5694	80	37
67.5004	67.6334	82	43
67.5694	67.6964	80	37
67.6334	67.7664	82	42
67.6964	67.8364	80	36
67.7664	67.9094	82	43
67.8364	67.9694	80	38
67.9094	68.0494	82	44
67.9694	68.1164	80	37
68.0494	68.2004	82	42
68.1164	68.2774	80	37
68.1994	68.9284	65	50
68.2004	68.3644	82	42
68.2774	68.4564	80	36
68.2844	69.0094	68	42
68.3644	68.5254	82	42
68.3684	70.3665	73	64
68.4564	68.6064	80	39
68.5254	68.6904	82	42
68.6064	68.7744	80	36
68.6904	68.8574	82	42
68.7744	68.9314	80	37
68.8484	70.5065	61	46
68.8574	69.0084	82	39
68.9284	70.5075	65	46
68.9314	69.0784	80	37
69.0084	69.1494	82	37
69.0094	70.5095	68	45
69.0784	69.2184	80	31
69.1494	69.2814	82	34
69.2184	69.3584	80	30
69.2814	69.4224	82	34
69.3584	69.4784	80	34
69.4224	69.5544	82	34
69.4784	69.6175	80	30
69.5544	69.6874	82	34
69.6175	69.7514	80	34
69.6874	69.8204	82	34
69.7514	69.8834	80	30
69.8204	69.9504	82	34
69.8834	70.0134	80	30
69.9504	70.0904	82	34
70.0134	70.1564	80	30
70.0904	70.2265	82	35
70.1564	70.3035	80	30
70.2265	70.3665	82	35
70.3035	70.3955	80	29
70.3735	70.4645	82	35
70.4375	70.5234	80	29
70.4995	70.5945	82	35
70.5105	71.5494	61	46
70.5695	70.6645	80	30
70.5705	71.5534	65	39
70.6395	71.5544	68	52
70.6465	70.7895	92	44
70.7865	70.8955	80	37
70.9235	71.0705	80	37
71.0705	71.1715	92	37
71.2105	71.3605	92	44
71.3605	71.4685	80	37
71.5005	71.6445	80	37
71.5035	71.8474	70	52
71.6445	71.7554	92	37
71.7944	72.2604	65	35
71.7954	72.2604	68	42
71.7974	72.2614	61	35
71.8014	71.9554	92	40
71.9454	72.0684	80	35
72.0954	72.2534	80	35
72.2534	72.3824	92	35
72.2634	74.0134	56	38
72.3414	74.0144	61	32
72.4204	72.5684	92	34
72.4274	74.0144	65	46
72.5714	72.6844	80	28
72.7194	72.8624	80	28
72.8654	72.9744	92	28
73.0064	73.1524	92	32
73.1534	73.2574	80	27
73.2854	73.4324	80	27
73.4354	73.5484	92	27
73.5834	73.7274	92	34
73.7274	73.8314	80	28
73.8664	74.0074	80	27
74.0154	75.0913	61	46
74.0214	74.1394	92	27
74.0934	75.0953	65	39
74.1744	75.0963	68	52
74.1814	74.3254	92	48
74.3254	74.4374	80	37
74.4724	74.6094	80	37
74.6024	74.7134	92	37
74.7594	74.9064	92	44
74.8994	75.0103	80	37
75.0453	75.3293	70	53
75.0493	75.1963	80	37
75.1963	75.3013	92	37
75.3323	75.7883	65	36
75.3333	75.7923	61	36
75.3333	75.7913	68	43
75.3363	75.4873	92	39
75.4803	75.5923	80	35
75.6383	75.7923	80	35
75.7883	75.9113	92	35
75.7953	77.4713	56	40
75.8753	77.4753	61	34
75.9563	77.4753	65	47
75.9633	76.1103	92	32
76.1033	76.2083	80	26
76.2533	76.3933	80	26
76.3973	76.5023	92	27
76.5443	76.6873	92	35
76.6913	76.7923	80	28
76.8273	76.9683	80	28
76.9683	77.0763	92	28
77.1073	77.2513	92	36
77.2513	77.3593	80	28
77.4083	77.5523	80	28
77.4763	78.6263	56	50
77.5423	77.6563	92	28
77.5453	78.6273	60	50
77.6223	78.6273	63	42
77.6993	78.6303	66	58
77.7003	77.7863	82	37
77.7623	77.8503	80	30
77.8253	77.9123	82	38
77.9023	77.9893	80	32
77.9573	78.0523	82	39
78.0213	78.1123	80	35
78.0983	78.1863	82	40
78.1503	78.2373	80	37
78.2283	78.3113	82	42
78.2903	78.3783	80	38
78.3503	78.4373	82	44
78.4203	78.5113	80	38
78.4803	78.5743	82	46
78.5643	78.6613	80	39
78.6303	79.2323	56	54
78.6343	78.7383	82	47
78.7033	78.8053	80	40
78.7073	79.2323	61	54
78.7843	79.2323	65	51
78.7943	78.8963	82	47
78.8643	78.9653	80	40
78.9343	79.0323	82	49
79.0042	79.1023	80	49
79.0813	79.1803	82	50
79.1623	79.2663	80	44
79.2363	80.2323	56	57
79.2363	79.3333	82	53
79.3053	79.3933	80	47
79.3123	80.2373	60	48
79.3753	80.2373	63	65
79.3823	79.4703	82	55
79.4453	79.5333	80	47
79.5093	79.5953	82	49
79.5683	79.6553	80	44
79.6383	79.7183	82	49
79.7012	79.7893	80	49
79.7643	79.8523	82	49
79.8273	79.9173	80	44
79.8873	79.9743	82	49
79.9493	80.0443	80	42
80.0193	80.1143	82	47
80.0933	80.1943	80	39
80.1603	80.2533	82	44
80.2393	80.8323	53	53
80.2403	80.3343	80	39
80.3033	80.8323	59	53
80.3063	80.4153	82	42
80.3873	80.8353	62	45
80.3873	80.4923	80	38
80.4543	80.5543	82	42
80.4683	80.8353	65	61
80.5413	80.6423	80	39
80.6183	80.7163	82	42
80.6883	80.7863	80	39
80.7623	80.8563	82	42
80.8393	82.7363	56	51
80.8393	80.9333	80	39
80.9083	81.0063	82	42
80.9093	82.7393	60	60
80.9853	82.7393	63	51
80.9893	81.0553	80	38
81.0553	81.1983	80	52
81.0563	82.7393	66	69
81.1993	81.3463	82	54
81.3473	81.4833	84	57
81.4833	81.6293	85	59
81.6303	81.7733	87	63
81.7733	81.9133	89	65
81.9143	82.0533	90	67
82.0533	82.1893	92	70
82.1923	82.3293	94	71
82.3333	82.4653	92	71
82.4663	82.6063	90	70
82.6073	82.7433	89	69
82.7433	82.8753	87	69
82.8793	83.0163	85	67
83.0193	83.1553	84	66
83.1563	83.2953	82	66
83.2963	83.4293	80	66
83.4293	83.5653	78	66
83.5693	83.7023	77	65
83.7023	83.8343	75	64
83.8353	83.9743	73	63
83.9743	84.1072	72	63
84.1083	84.2402	70	61
84.2413	84.3743	68	60
84.3772	84.5062	66	60
84.5072	84.6432	65	58
84.6432	84.7752	63	60
84.7762	84.9092	61	63
84.9102	85.0412	60	59
85.0422	85.1682	58	60
85.1692	85.3012	56	63
85.3052	85.4372	54	64
85.4382	85.5392	53	66
85.5422	85.6482	51	67
85.6482	85.7592	49	69
85.7622	85.8782	48	70
85.8792	85.9942	46	72
85.9942	87.2302	32	84
85.9982	87.2332	44	84
87.8492	88.7902	68	46
88.7382	89.0952	70	43
89.0392	91.4222	68	43
89.6902	91.4222	60	28
89.6912	91.4232	54	31
89.6932	91.4262	51	26
89.6942	91.4262	44	26
91.4272	92.3572	68	46
92.3042	92.6512	70	43
92.5982	94.9432	68	43
93.2142	94.9442	61	28
93.2152	94.9482	44	27
93.2152	94.9472	53	32
94.9502	95.8812	68	46
95.8322	96.1752	70	40
96.1222	98.7692	68	40
96.7393	98.0172	47	25
96.7393	98.0172	62	35
96.7402	98.0183	53	30
96.7433	98.0203	44	25
98.0203	98.7722	63	38
98.0212	98.7732	48	25
98.0242	98.7762	44	25
98.0242	98.7732	54	30
98.7772	102.143	60	34
98.7772	102.143	66	34
98.7792	102.147	68	40
98.7802	102.148	44	24
98.7802	102.148	51	24
98.7802	102.147	56	29
102.794	103.728	68	40
102.795	103.97	56	27
102.795	103.729	65	34
102.798	103.974	49	27
102.798	103.974	61	32
103.676	104.022	70	38
103.677	104.026	66	38
103.977	104.656	68	36
103.978	104.603	61	28
103.978	104.611	65	30
103.979	104.611	56	23
103.98	104.611	49	23
104.615	106.326	56	28
104.615	106.322	61	31
104.615	106.325	65	37
104.617	106.326	49	23
106.375	107.302	68	40
106.378	107.547	61	32
106.378	107.305	65	34
106.379	107.551	49	27
106.379	107.548	56	27
107.256	107.599	66	32
107.26	107.6	70	38
107.551	108.18	65	30
107.554	108.233	68	36
107.555	108.181	49	24
107.555	108.184	56	24
107.555	108.177	61	29
108.185	109.941	61	30
108.185	109.942	65	36
108.186	109.942	56	29
108.188	109.942	49	24
109.99	111.162	75	53
109.994	111.167	60	43
109.994	111.166	66	45
109.997	111.167	56	36
111.169	111.785	66	35
111.17	111.573	60	42
111.17	111.572	75	51
111.173	111.786	56	35
111.618	111.789	63	35
111.618	111.786	72	42
111.79	113.504	66	35
111.792	113.505	72	42
111.793	113.505	56	29
111.793	113.508	63	35
113.55	114.729	65	40
113.55	114.73	73	48
113.551	114.732	61	37
113.553	114.733	49	31
114.733	115.341	65	35
114.734	115.128	73	42
114.736	115.346	61	35
114.737	115.346	49	29
115.181	115.348	68	38
115.349	117.064	65	32
115.349	117.06	68	38
115.35	117.065	61	32
115.352	117.067	49	27
117.109	118.288	66	40
117.109	118.289	70	48
117.113	118.289	54	35
117.113	118.29	61	42
118.292	118.901	70	52
118.293	118.905	54	36
118.293	118.902	66	44
118.295	118.905	61	43
118.909	120.07	54	40
118.909	119.833	70	45
118.909	119.832	73	54
118.91	120.07	61	48
119.787	120.123	68	41
119.787	120.123	72	49
120.071	120.679	66	45
120.071	120.679	70	54
120.074	120.683	54	37
120.074	120.68	61	44
120.683	121.607	68	53
120.684	121.608	65	45
120.686	121.845	49	33
120.686	121.844	61	39
121.561	121.89	66	36
121.562	121.894	70	43
121.849	122.461	49	32
121.849	122.46	65	39
121.849	122.513	68	46
121.851	122.453	61	38
122.461	124.179	61	36
122.465	124.18	56	36
122.465	124.18	65	43
122.466	124.183	49	30
124.225	125.404	70	48
124.226	125.405	66	40
124.228	125.408	54	35
124.228	125.407	61	42
125.408	126.02	66	44
125.409	126.021	70	52
125.412	126.021	54	36
125.412	126.023	61	43
126.024	126.948	70	45
126.024	126.952	73	54
126.025	127.186	54	40
126.028	127.189	61	48
126.902	127.238	68	41
126.902	127.238	72	49
127.19	127.798	61	44
127.19	127.795	66	45
127.19	127.796	70	54
127.193	127.798	54	37
127.799	128.708	68	53
127.802	128.939	61	40
127.802	128.709	65	45
127.803	128.94	49	34
128.659	128.991	70	43
128.66	128.992	66	36
128.94	129.607	68	46
128.943	129.563	49	33
128.943	129.556	61	39
128.943	129.562	65	39
129.563	131.277	65	43
129.564	131.281	61	36
129.566	131.284	49	30
129.566	131.281	56	36
131.326	132.503	66	45
131.327	132.506	56	36
131.327	132.503	75	54
131.33	132.506	60	43
132.506	133.133	75	54
132.51	133.134	60	44
132.51	133.133	66	45
132.511	133.134	56	37
133.136	134.308	66	51
133.136	134.064	78	60
133.137	134.309	60	51
133.14	134.312	56	43
134.014	134.361	75	55
134.313	134.942	66	46
134.315	134.945	56	42
134.315	134.943	72	55
134.316	134.945	63	50
134.946	138.04	65	44
134.946	136.916	73	52
134.949	138.043	56	36
134.95	138.046	49	30
134.95	138.043	61	36
136.863	138.047	68	32
136.864	138.047	77	38
138.628	139.807	65	36
138.628	139.562	73	43
138.631	139.808	49	29
138.631	139.81	56	29
138.631	139.808	61	35
139.509	139.859	68	40
139.81	140.416	65	40
139.811	140.417	61	34
139.814	140.42	49	26
139.814	140.419	56	31
140.42	141.297	65	37
140.423	141.596	60	37
140.424	141.596	44	30
140.424	141.35	68	44
140.426	141.597	56	36
141.298	141.597	63	33
141.302	141.647	66	39
141.599	142.264	54	31
141.599	142.264	60	31
141.599	142.263	63	37
141.603	142.265	44	26
142.295	143.468	68	26
142.299	143.468	65	26
142.3	143.472	61	21
142.3	143.223	77	31
142.303	143.475	49	17
142.303	143.472	56	17
143.178	143.521	73	28
143.475	143.766	65	23
143.476	143.818	68	28
143.479	144.084	56	16
143.479	144.084	61	19
143.48	144.088	49	16
143.766	144.088	65	28
144.089	145.249	60	25
144.091	145.008	70	30
144.092	145.253	44	19
144.092	145.253	66	30
144.095	145.256	51	19
144.095	145.254	56	23
144.955	145.298	68	29
145.257	145.847	60	24
145.26	145.596	63	29
145.261	145.848	44	17
145.261	145.852	54	21
145.54	145.852	65	29
145.852	148.946	61	27
145.855	146.475	49	21
145.855	146.471	53	21
146.471	147.091	53	14
146.474	147.093	44	12
146.475	147.094	37	12
146.475	147.092	49	15
147.091	147.71	53	14
147.092	147.714	49	15
147.093	147.714	44	12
147.094	147.714	37	12
147.71	148.946	53	14
147.714	148.947	37	12
147.714	148.947	44	12
147.714	148.949	49	15
149.558	150.738	56	39
149.559	151.358	49	27
149.561	151.357	37	22
149.856	150.454	68	23
149.859	150.451	61	19
149.86	150.455	65	19
150.451	151.406	58	36
150.451	151.039	61	16
150.454	151.039	68	19
150.455	151.035	65	16
150.738	151.406	56	37
151.035	151.406	65	19
151.039	151.406	61	19
151.039	151.406	68	23
151.357	152.936	37	22
151.357	153.145	53	34
151.358	152.936	49	27
151.651	152.239	61	16
151.651	152.24	68	19
151.655	152.239	65	16
152.239	152.832	61	16
152.239	152.831	65	16
152.24	152.831	68	19
152.831	153.149	65	16
152.831	153.146	68	19
152.832	153.15	61	16
153.153	154.319	56	38
153.154	154.935	37	22
153.154	154.936	49	27
153.439	154.036	61	19
153.44	154.035	65	19
153.44	154.035	68	23
154.034	155.155	58	36
154.035	154.62	65	16
154.035	154.62	68	19
154.036	154.621	61	16
154.319	155.155	56	39
154.62	155.155	65	19
154.62	155.155	68	23
154.621	155.155	61	19
154.935	155.225	37	22
154.935	156.716	53	37
154.936	155.225	49	27
155.225	155.816	68	19
155.228	155.817	61	16
155.228	155.814	65	16
155.814	156.408	65	16
155.816	156.409	68	19
155.817	156.408	61	16
156.408	156.719	61	16
156.408	156.716	65	16
156.409	156.72	68	19
156.723	157.889	63	46
156.724	158.505	32	25
156.724	158.505	44	30
157.007	157.602	66	21
157.009	157.602	68	25
157.602	158.19	66	17
157.602	158.19	68	21
157.889	158.563	63	43
158.19	158.563	66	19
158.19	158.563	68	23
158.343	158.501	60	38
158.501	160.286	60	38
158.505	160.111	32	26
158.505	160.111	44	31
158.795	159.384	68	26
158.798	159.383	66	22
159.383	159.979	66	20
159.384	159.978	68	24
159.978	160.287	68	27
159.979	160.289	66	22
160.289	161.466	61	52
160.293	162.078	37	27
160.293	162.082	49	32
160.584	161.174	68	28
160.586	161.171	65	23
161.171	161.759	65	20
161.174	161.76	68	24
161.466	162.098	61	50
161.759	162.098	65	23
161.76	162.098	68	28
161.92	162.078	56	42
162.078	163.681	37	26
162.078	163.856	56	42
162.082	163.681	49	31
162.368	162.96	65	22
162.368	162.957	68	27
162.957	163.548	68	28
162.96	163.545	65	23
163.545	163.857	65	23
163.548	163.859	68	28
163.859	165.032	58	60
163.863	165.652	30	31
163.863	165.648	42	37
164.154	164.745	61	24
164.156	164.742	70	29
164.157	164.745	66	24
164.742	165.33	70	29
164.745	165.331	61	24
164.745	165.33	66	24
165.032	165.714	58	58
165.33	165.714	66	24
165.33	165.714	70	29
165.331	165.648	61	24
165.648	167.44	42	42
165.648	167.44	61	63
165.652	167.44	30	35
165.943	166.533	66	30
165.945	166.533	70	36
166.53	167.44	60	53
166.533	167.115	66	30
166.533	167.118	70	36
166.824	167.44	58	58
167.115	167.44	66	30
167.118	167.44	70	36
167.436	168.613	56	61
167.437	169.219	37	29
167.437	169.222	49	35
167.731	168.322	61	24
167.731	168.322	68	29
167.734	168.322	65	24
168.319	169.231	58	55
168.322	168.904	61	24
168.322	168.907	65	24
168.322	168.907	68	29
168.613	169.231	56	59
168.904	169.231	61	24
168.907	169.231	65	24
168.907	169.231	68	29
169.218	170.996	53	53
169.219	170.74	37	28
169.222	170.74	49	34
169.512	170.101	61	24
169.515	170.103	68	29
169.516	170.1	65	24
170.1	170.688	65	24
170.101	170.688	61	24
170.103	170.689	68	29
170.688	170.999	61	24
170.688	170.997	65	24
170.689	170.999	68	29
171.003	172.176	58	60
171.004	172.795	30	31
171.004	172.795	42	37
171.297	171.884	66	24
171.298	171.882	61	24
171.298	171.885	70	29
171.882	172.474	61	24
171.884	172.477	66	24
171.885	172.477	70	29
172.176	172.924	58	58
172.474	172.795	61	24
172.477	172.924	66	24
172.477	172.924	70	29
172.795	174.59	30	36
172.795	174.59	42	43
172.795	174.59	61	63
173.086	173.673	66	32
173.086	173.673	70	38
173.671	174.59	60	53
173.673	174.262	66	32
173.673	174.262	70	38
173.964	174.59	58	58
174.262	174.59	66	32
174.262	174.59	70	38
174.577	176.362	37	29
174.577	175.753	56	61
174.58	176.362	49	35
174.871	175.462	61	24
174.874	175.462	68	29
174.875	175.462	65	24
175.46	176.39	58	55
175.462	176.053	61	24
175.462	176.05	65	24
175.462	176.054	68	29
175.753	176.39	56	59
176.05	176.39	65	24
176.053	176.39	61	24
176.054	176.39	68	29
176.362	177.88	37	28
176.362	177.88	49	34
176.362	178.143	53	53
176.656	177.243	61	24
176.656	177.243	68	29
176.657	177.244	65	24
177.243	177.835	61	24
177.243	177.835	68	29
177.244	177.832	65	24
177.832	178.146	65	24
177.835	178.147	61	24
177.835	178.146	68	29
178.147	179.316	63	66
178.15	179.929	44	38
178.151	179.928	32	32
178.437	179.029	72	34
178.438	179.031	66	28
178.438	179.029	68	28
179.029	179.617	68	28
179.029	179.617	72	34
179.031	179.616	66	28
179.316	179.959	63	64
179.616	179.928	66	28
179.617	179.959	68	28
179.617	179.959	72	34
179.928	181.721	32	33
179.928	181.402	66	71
179.929	181.721	44	39
180.223	180.814	72	35
180.226	180.813	68	29
180.811	181.721	63	65
180.813	181.405	68	29
180.814	181.405	72	35
181.105	181.721	60	64
181.402	181.721	66	29
181.405	181.721	68	29
181.405	181.721	72	35
181.717	183.624	61	71
181.72	183.523	37	36
181.72	183.523	49	43
182.011	182.613	65	29
182.012	182.61	68	29
182.014	182.612	73	35
182.61	183.204	68	29
182.612	183.202	73	35
182.613	183.204	65	29
183.202	183.624	73	35
183.204	183.522	65	29
183.204	183.624	68	29
183.522	185.073	65	61
183.523	183.813	37	32
183.523	183.813	49	38
183.817	184.422	73	24
183.819	184.422	77	29
183.82	184.423	68	24
184.422	185.021	73	24
184.422	185.02	77	29
184.423	185.02	68	24
185.02	185.335	68	24
185.02	185.335	77	29
185.021	185.336	73	24
185.339	186.222	61	71
185.34	187.141	37	36
185.342	187.141	49	43
185.627	186.225	68	35
185.629	186.224	65	29
186.221	187.127	56	65
186.222	186.809	61	29
186.224	186.809	65	29
186.225	186.808	68	35
186.508	187.141	53	60
186.808	187.141	68	35
186.809	187.141	61	29
186.809	187.141	65	29
187.127	188.627	56	66
187.128	188.947	32	32
187.128	188.947	44	38
187.428	188.031	68	29
187.429	188.028	60	24
187.429	188.947	65	24
188.027	188.947	54	58
188.028	188.626	60	24
188.031	188.947	63	24
188.031	188.947	68	29
188.328	188.947	51	54
188.626	188.947	60	24
188.626	188.947	66	29
188.627	188.947	56	29
188.945	192.132	49	53
188.947	190.858	37	32
189.259	189.904	65	28
189.262	189.903	56	28
189.262	189.903	61	23
189.903	190.541	56	28
189.903	190.543	61	23
189.904	190.541	65	28
190.541	191.495	56	28
190.541	191.495	65	28
190.543	191.495	61	23
190.858	192.133	37	34
192.136	192.713	65	64
192.636	192.714	61	37
192.714	193.865	65	75
192.717	194.465	46	39
192.718	194.502	34	33
193.005	194.166	53	32
193.288	193.869	58	32
193.582	194.502	66	64
193.583	194.464	61	32
193.865	194.502	65	64
193.869	194.467	58	32
194.166	194.502	53	32
194.464	195.076	61	75
194.465	195.076	46	31
194.465	195.076	73	75
194.467	195.076	58	37
194.743	195.076	65	53
195.016	195.608	72	72
195.017	195.608	48	29
195.017	195.608	57	35
195.017	195.608	63	72
195.296	195.608	65	53
195.566	196.063	61	72
195.567	196.14	70	72
195.57	196.063	49	31
195.57	196.063	58	37
195.858	196.14	65	54
196.07	196.141	63	57
196.141	199.157	70	74
196.144	197.806	41	34
196.144	196.42	53	40
196.42	197.53	53	32
196.703	197.254	57	32
196.983	197.254	69	60
196.984	197.729	63	32
197.254	198.37	57	32
197.254	199.157	69	64
197.53	198.086	53	32
197.53	199.157	72	57
197.729	198.664	63	31
197.803	199.157	29	33
197.803	198.968	65	70
197.806	199.157	41	39
198.086	199.157	53	32
198.37	198.969	57	32
198.664	199.157	63	32
198.968	199.531	65	64
198.969	199.248	57	32
199.251	199.532	53	32
199.457	199.532	61	32
199.532	200.669	65	75
199.533	201.239	34	33
199.535	201.239	46	39
199.816	200.96	53	32
200.099	200.67	58	32
200.386	201.239	61	32
200.386	201.239	66	64
200.669	201.246	65	64
200.67	201.239	58	32
200.96	201.247	53	32
201.25	201.811	61	75
201.251	201.811	58	37
201.251	201.811	73	75
201.253	201.811	46	31
201.53	201.811	65	52
201.807	202.398	63	72
201.808	202.398	72	72
201.81	202.398	57	35
201.811	202.398	48	29
202.08	202.398	65	52
202.353	202.734	61	72
202.353	202.927	70	72
202.356	202.734	49	37
202.356	202.734	58	37
202.643	202.928	65	53
202.856	202.928	63	60
202.928	206.328	70	74
202.93	204.589	41	34
202.93	203.204	53	40
203.204	204.316	53	32
203.487	204.04	57	32
203.77	204.04	69	60
203.771	204.519	63	32
204.04	205.153	57	32
204.04	206.328	69	64
204.316	204.59	53	32
204.316	206.328	72	57
204.519	205.451	63	39
204.589	206.328	41	33
204.589	205.752	65	70
204.59	204.87	53	39
204.87	206.039	53	32
205.153	205.754	57	32
205.451	206.328	63	32
205.752	206.325	65	73
205.754	206.328	57	32
206.039	206.328	53	32
206.245	206.328	61	35
206.325	207.456	65	80
206.326	208.061	34	44
206.326	208.061	46	52
206.602	207.744	53	38
206.885	207.457	58	38
207.172	208.061	61	38
207.172	208.061	66	67
207.456	208.043	65	67
207.457	208.061	58	38
207.744	208.061	53	38
208.041	208.601	77	82
208.043	208.601	37	39
208.043	208.601	65	56
208.044	208.601	49	46
208.313	208.601	70	57
208.314	208.601	73	57
208.597	209.136	75	80
208.6	209.136	63	49
208.601	209.139	36	29
208.601	209.139	48	35
208.863	209.14	69	57
208.863	209.139	72	57
209.143	209.713	61	48
209.143	209.71	73	77
209.144	209.713	46	37
209.146	209.714	34	31
209.426	209.618	65	57
209.426	209.618	70	57
209.574	211.432	63	59
209.639	211.498	66	50
209.717	210.851	72	75
209.718	211.498	39	44
209.718	209.997	51	52
209.997	211.141	51	36
210.281	210.852	54	36
210.568	211.498	73	69
210.571	211.498	60	37
210.851	211.498	72	69
210.852	211.498	54	37
211.141	211.498	51	37
211.432	211.982	48	47
211.432	211.982	63	51
211.432	211.981	75	84
211.435	211.985	36	39
211.707	211.985	66	60
211.707	211.986	72	60
211.988	212.608	61	50
211.988	212.608	73	82
211.989	212.608	37	34
211.989	212.608	49	40
212.256	212.608	65	58
212.26	212.608	70	58
212.537	213.146	60	46
212.537	213.145	72	78
212.54	213.146	51	40
212.541	213.15	39	34
212.82	213.058	63	52
212.824	213.058	66	55
212.905	213.058	58	41
212.986	213.065	61	47
213.065	213.15	65	47
213.152	214.259	70	82
213.153	214.584	41	44
213.153	213.425	53	52
213.425	214.56	53	36
213.699	214.259	58	36
213.975	214.584	61	36
214.259	214.584	58	36
214.259	214.86	70	82
214.56	214.861	53	36
214.706	214.783	58	46
214.784	214.861	64	46
214.861	215.866	70	82
214.864	216.583	42	44
214.864	215.144	54	52
215.144	216.296	54	36
215.435	216.583	60	36
215.719	216.579	72	78
215.721	216.583	64	36
215.866	216.296	70	78
216.002	216.583	69	78
216.006	216.583	58	36
216.296	216.583	54	36
216.296	216.583	70	75
216.579	218.302	41	44
216.579	220.125	72	86
216.583	216.866	53	52
216.866	218.011	53	38
217.153	217.73	65	74
217.154	217.731	57	38
217.437	218.879	60	38
217.73	218.298	65	74
217.731	219.488	57	38
218.011	218.588	53	38
218.298	218.875	65	74
218.302	218.879	41	46
218.588	219.183	53	34
218.875	219.489	65	60
218.879	219.491	41	46
218.879	219.489	60	51
218.879	220.125	63	51
219.183	219.803	53	34
219.488	220.125	57	50
219.489	220.125	60	50
219.489	220.121	65	59
219.491	220.125	41	46
219.803	220.125	53	34
220.037	220.125	61	30
220.121	221.844	46	39
220.121	221.252	65	75
220.122	221.878	34	33
220.406	221.546	53	32
220.682	221.253	58	32
220.968	221.878	66	64
220.969	221.84	61	32
221.252	221.878	65	64
221.253	221.84	58	32
221.546	221.878	53	32
221.84	222.379	58	37
221.84	222.379	61	75
221.84	222.386	73	75
221.844	222.379	46	31
222.113	222.389	65	57
222.39	222.938	72	72
222.393	222.903	48	29
222.393	222.903	63	72
222.394	222.903	57	35
222.663	222.939	65	57
222.942	223.513	70	72
222.943	223.516	58	37
222.943	223.516	61	72
222.945	223.516	49	31
223.226	223.516	65	57
223.439	223.516	63	57
223.513	223.797	53	40
223.513	226.909	70	74
223.514	225.179	41	34
223.797	224.906	53	32
224.073	224.63	57	32
224.357	224.629	69	60
224.36	226.04	63	32
224.629	226.909	69	64
224.63	225.739	57	32
224.903	226.909	72	57
224.906	225.462	53	32
225.102	226.837	61	36
225.179	226.909	41	39
225.179	226.337	65	70
225.18	226.909	29	33
225.462	226.622	53	32
225.739	226.341	57	32
226.04	226.909	63	32
226.337	226.908	65	64
226.341	226.909	57	32
226.622	226.909	53	32
226.837	226.909	61	30
226.908	228.039	65	75
226.909	228.637	34	33
226.909	228.627	46	39
227.192	228.335	53	32
227.475	228.04	58	32
227.759	228.637	66	64
227.761	228.626	61	32
228.039	228.637	65	64
228.04	228.627	58	32
228.335	228.637	53	32
228.626	229.141	61	75
228.626	229.172	73	75
228.627	229.141	46	31
228.627	229.141	58	37
228.906	229.176	65	55
229.176	229.725	72	72
229.179	229.7	63	72
229.18	229.7	48	29
229.18	229.7	57	35
229.457	229.726	65	55
229.726	230.226	61	72
229.728	230.307	70	72
229.729	230.307	49	31
229.729	230.307	58	37
230.013	230.307	65	55
230.226	230.307	61	52
230.304	233.698	68	74
230.306	230.581	51	40
230.307	231.965	39	34
230.581	231.692	51	32
230.859	231.417	55	32
231.146	231.417	67	60
231.147	231.892	61	32
231.417	232.529	55	32
231.417	233.698	67	64
231.689	233.698	70	57
231.692	231.966	51	32
231.892	232.826	61	44
231.963	233.698	63	70
231.965	233.698	39	33
231.966	232.246	51	39
232.246	233.407	51	32
232.529	233.131	55	32
232.826	233.698	61	32
233.128	233.694	75	66
233.131	233.698	55	32
233.131	233.698	73	56
233.407	233.698	51	32
233.694	234.812	75	74
233.695	235.941	44	40
233.695	235.402	72	62
233.975	235.941	51	32
234.261	235.941	56	32
234.549	235.941	60	32
234.549	235.941	77	64
234.812	235.323	75	64
234.815	235.941	63	32
235.101	235.941	68	32
235.323	235.941	75	53
235.4	236.487	80	77
235.402	236.491	72	38
236.491	237.058	79	71
237.058	238.182	77	74
237.059	238.763	73	62
237.062	239.301	49	40
237.341	239.301	53	32
237.625	239.301	58	32
237.913	239.301	79	64
237.915	239.301	61	32
238.182	239.301	65	32
238.182	238.689	77	64
238.469	239.301	70	32
238.689	239.301	77	53
238.759	239.851	82	77
238.763	239.852	73	38
239.852	240.424	80	71
240.285	240.354	70	59
240.355	240.425	73	59
240.425	243.897	79	74
240.429	242.13	39	34
240.429	240.711	51	40
240.711	241.842	51	32
240.996	241.566	55	32
241.279	243.894	77	64
241.283	242.981	61	32
241.566	242.697	55	32
241.566	243.897	75	64
241.842	242.13	51	32
241.986	243.897	63	43
242.056	243.897	67	51
242.129	243.897	73	74
242.13	243.897	39	33
242.13	242.41	51	39
242.41	243.565	51	32
242.697	243.267	55	32
242.98	243.897	72	64
242.981	243.897	61	32
243.265	243.897	70	64
243.267	243.897	55	32
243.565	243.897	51	32
243.725	243.897	68	50
243.81	243.897	71	51
243.894	245.591	77	60
243.895	245.353	44	33
243.895	245.353	56	39
244.177	245.315	59	29
244.46	245.028	62	29
244.745	245.353	65	29
245.028	245.353	62	29
245.315	245.591	59	29
245.591	246.735	75	61
245.595	245.875	56	36
245.875	246.158	60	32
246.158	246.441	63	32
246.445	246.735	68	32
246.736	247.327	73	56
246.736	247.328	75	66
246.739	247.328	67	32
247.029	247.33	63	32
247.33	249.036	72	62
247.331	249.577	44	40
247.331	248.447	75	74
247.611	249.577	51	32
247.894	249.577	56	32
248.185	249.577	60	32
248.185	249.577	77	64
248.447	248.959	75	64
248.451	249.577	63	32
248.745	249.577	68	32
248.959	249.577	75	55
249.035	250.124	80	77
249.036	250.127	72	38
250.127	250.698	79	70
250.701	252.403	73	62
250.701	251.817	77	74
250.702	252.948	49	40
250.985	252.948	53	32
251.264	252.948	58	32
251.551	252.948	79	64
251.552	252.948	61	32
251.817	252.325	77	64
251.818	252.948	65	32
252.105	252.948	70	32
252.325	252.948	77	55
252.402	253.49	82	77
252.403	253.491	73	38
253.491	254.068	80	67
253.921	253.991	70	57
253.991	254.069	73	57
254.069	257.509	79	74
254.07	254.345	51	40
254.071	255.773	39	34
254.345	255.482	51	32
254.628	255.203	55	32
254.916	257.509	77	64
254.919	256.62	61	32
255.202	257.509	75	64
255.203	256.332	55	32
255.482	255.772	51	32
255.622	257.509	63	42
255.699	257.509	67	51
255.77	257.509	73	66
255.772	256.053	51	39
255.773	257.509	39	33
256.053	257.201	51	32
256.332	256.903	55	32
256.616	257.509	72	64
256.62	257.509	61	32
256.9	257.509	70	60
256.903	257.509	55	32
257.201	257.509	51	32
257.505	258.075	68	65
257.506	259.878	56	36
257.509	259.878	60	43
257.79	258.355	72	55
257.792	259.878	63	37
258.075	259.878	68	36
258.075	258.65	75	54
258.353	258.951	80	53
258.355	259.878	72	36
258.647	259.266	84	52
258.65	259.878	75	35
258.951	259.878	80	34
258.951	259.878	87	51
259.265	260.491	92	50
259.266	259.878	84	32
261.159	262.101	68	46
262.048	262.402	70	43
262.346	264.729	68	43
263.0	264.733	60	28
263.001	264.733	44	26
263.001	264.733	54	31
263.004	264.736	51	26
264.736	265.657	68	46
265.611	265.954	70	43
265.909	268.254	68	43
266.524	268.254	61	28
266.525	268.257	44	27
266.525	268.257	53	32
268.257	269.188	68	46
269.136	269.482	70	40
269.433	272.079	68	40
270.042	271.319	62	35
270.043	271.32	44	25
270.043	271.323	47	25
270.045	271.324	53	30
271.324	272.079	63	38
271.325	272.083	54	30
271.326	272.083	48	25
271.327	272.084	44	25
272.084	275.596	68	40
272.086	275.6	60	34
272.086	275.601	66	34
272.087	275.601	44	24
272.087	275.601	51	24
272.09	275.604	56	29
276.202	276.286	65	34
276.29	277.315	68	46
276.291	279.892	37	31
276.293	278.097	49	37
276.584	277.771	53	30
276.875	277.47	56	30
277.172	277.466	67	43
277.175	278.961	61	30
277.315	277.617	68	40
277.466	279.895	67	44
277.47	278.671	56	30
277.617	277.924	68	40
277.771	278.387	53	30
277.771	279.773	70	44
277.924	279.891	68	40
278.096	279.832	65	46
278.097	279.892	49	35
278.387	279.566	53	19
278.67	279.895	89	35
278.671	279.258	56	19
278.761	279.895	87	35
278.862	279.895	85	36
278.961	279.895	61	19
278.961	279.895	84	36
279.059	279.895	82	37
279.157	279.895	80	37
279.255	279.895	78	38
279.258	279.895	56	19
279.356	279.895	77	38
279.458	279.895	75	39
279.563	279.895	73	39
279.566	279.895	53	19
279.661	279.895	72	40
279.773	279.895	70	40
279.832	279.895	65	35
279.891	280.913	68	46
279.892	283.493	37	31
279.892	281.701	49	37
280.185	281.377	53	30
280.48	281.069	56	30
280.77	281.068	67	43
280.773	282.562	61	30
280.913	281.218	68	40
281.068	283.493	67	44
281.069	282.268	56	30
281.218	281.526	68	40
281.376	283.493	70	43
281.377	281.981	53	30
281.526	283.493	68	40
281.7	283.493	65	46
281.701	283.493	49	35
281.981	283.164	53	19
282.268	282.857	56	19
282.268	283.493	89	34
282.359	283.493	87	34
282.46	283.493	85	34
282.562	283.493	61	19
282.562	283.493	84	35
282.657	283.493	82	35
282.758	283.493	80	36
282.856	283.493	78	36
282.857	283.493	56	19
282.954	283.493	77	37
283.06	283.489	75	37
283.164	283.493	53	19
283.164	283.371	73	38
283.266	283.493	72	38
283.371	283.493	73	38
283.489	285.296	44	31
283.489	284.515	75	46
283.493	283.776	56	37
283.776	284.97	56	30
284.074	284.669	60	30
284.372	286.16	66	30
284.372	287.092	74	42
284.515	284.969	75	40
284.668	286.552	78	43
284.669	285.867	60	30
284.816	286.657	77	40
284.969	286.756	75	40
284.97	285.295	56	30
285.124	286.86	73	40
285.292	287.092	72	46
285.295	285.582	56	37
285.296	287.092	44	37
285.582	286.758	56	19
285.866	287.092	90	35
285.867	286.458	60	19
285.961	287.092	89	35
286.058	287.092	87	35
286.16	287.092	66	19
286.16	287.092	85	36
286.251	287.092	84	36
286.349	287.092	82	36
286.454	287.092	80	37
286.458	287.092	60	19
286.552	287.092	78	37
286.657	287.092	77	37
286.756	287.092	75	38
286.758	287.092	56	19
286.86	286.972	73	38
286.972	287.091	73	38
287.028	287.092	65	34
287.091	288.894	49	37
287.091	288.113	73	46
287.092	290.687	37	31
287.374	288.569	53	30
287.673	288.261	56	30
287.97	288.26	72	42
287.973	289.755	61	30
288.113	288.418	73	40
288.26	290.458	72	40
288.261	289.462	56	30
288.418	288.718	73	40
288.569	289.177	53	30
288.569	290.15	77	43
288.718	290.357	73	40
288.893	290.687	68	46
288.894	290.687	49	35
289.177	290.357	53	19
289.461	290.687	89	35
289.462	290.049	56	19
289.559	290.687	87	35
289.653	290.687	85	35
289.751	290.687	84	36
289.755	290.687	61	19
289.849	290.687	82	36
289.948	290.687	80	37
290.049	290.687	56	19
290.049	290.687	78	37
290.15	290.687	77	38
290.251	290.687	75	38
290.357	290.687	53	19
290.357	290.57	73	39
290.458	290.687	72	39
290.57	290.687	73	39
290.626	290.687	66	34
290.683	291.711	70	46
290.686	292.495	42	31
290.686	292.495	54	37
290.976	292.169	58	30
291.273	294.291	60	30
291.564	292.167	69	43
291.565	293.353	66	30
291.711	292.009	70	40
291.859	294.059	72	44
291.861	293.062	61	30
292.009	292.317	70	40
292.167	294.291	69	43
292.169	292.776	58	30
292.317	294.169	70	40
292.492	293.956	73	46
292.495	294.291	42	31
292.495	294.291	54	37
292.775	294.291	94	35
292.776	293.956	58	19
292.873	294.291	92	35
292.968	294.291	90	35
293.061	294.291	89	36
293.062	293.648	61	19
293.16	294.291	87	36
293.251	294.291	85	37
293.352	294.291	84	37
293.353	294.291	66	19
293.448	294.291	82	38
293.548	294.291	80	38
293.648	294.291	61	19
293.648	294.291	78	38
293.751	294.291	77	39
293.849	294.291	75	39
293.956	294.291	58	19
293.956	294.291	73	40
294.059	294.291	72	40
294.169	294.291	70	42
294.224	294.291	65	34
294.287	296.093	49	37
294.287	295.313	68	46
294.291	296.093	37	31
294.574	295.767	56	30
294.871	295.459	61	30
295.166	295.459	67	43
295.169	296.09	65	30
295.313	295.607	68	40
295.459	296.661	61	30
295.459	297.889	67	44
295.607	295.915	68	40
295.765	297.447	70	44
295.767	296.374	56	30
295.915	297.553	68	40
296.09	296.951	65	46
296.093	297.889	37	31
296.093	297.889	49	37
296.373	297.889	89	35
296.374	297.555	56	19
296.471	297.889	87	35
296.566	297.889	85	35
296.66	297.889	84	36
296.661	297.248	61	19
296.758	297.889	82	36
296.853	297.889	80	37
296.951	297.77	65	19
296.951	297.889	78	37
297.049	297.889	77	38
297.147	297.889	75	38
297.245	297.889	73	38
297.248	297.889	61	19
297.349	297.889	72	39
297.447	297.886	70	39
297.553	297.889	68	40
297.555	297.889	56	19
297.657	297.826	66	40
297.77	297.889	65	42
297.826	297.889	66	34
297.886	298.911	70	46
297.889	299.692	42	31
297.889	299.691	54	37
298.172	299.366	58	30
298.47	301.488	60	30
298.767	299.365	69	43
298.768	300.552	66	30
298.911	299.215	70	40
299.057	301.256	72	43
299.058	300.266	61	30
299.215	299.513	70	40
299.365	301.488	69	43
299.366	299.974	58	30
299.513	301.368	70	40
299.688	301.154	73	46
299.691	301.488	54	37
299.692	301.488	42	31
299.972	301.488	94	43
299.974	301.154	58	19
300.073	301.488	92	43
300.167	301.488	90	43
300.266	300.846	61	19
300.266	301.488	89	43
300.356	301.488	87	43
300.451	301.488	85	42
300.549	301.488	84	42
300.552	301.488	66	19
300.647	301.488	82	42
300.745	301.488	80	42
300.846	301.488	61	19
300.846	301.488	78	42
300.948	301.488	77	40
301.049	301.488	75	40
301.154	301.488	58	19
301.154	301.488	73	40
301.256	301.488	72	40
301.368	301.488	70	40
301.424	301.488	65	34
301.486	302.509	68	46
301.487	303.292	37	31
301.487	303.292	49	37
301.77	302.967	56	30
302.071	302.663	61	30
302.365	302.663	67	43
302.369	303.29	65	30
302.509	302.813	68	40
302.663	303.864	61	30
302.663	305.089	67	43
302.813	303.114	68	40
302.963	305.089	70	43
302.967	303.572	56	30
303.114	305.089	68	40
303.29	304.151	65	46
303.292	305.089	37	31
303.292	305.089	49	37
303.572	304.753	56	19
303.863	305.089	89	36
303.864	304.445	61	19
303.958	305.089	87	36
304.055	305.089	85	37
304.15	305.089	84	37
304.151	305.089	65	19
304.244	305.089	82	38
304.343	305.089	80	39
304.445	305.089	61	19
304.445	305.089	78	39
304.549	305.089	77	40
304.651	305.085	75	42
304.752	304.966	73	42
304.753	305.089	56	19
304.854	305.053	72	43
304.966	305.089	73	43
305.022	305.089	66	34
305.053	305.089	72	34
305.085	306.111	75	46
305.088	306.892	32	31
305.089	306.892	44	37
305.371	306.565	56	30
305.669	306.257	60	30
305.964	306.563	74	44
305.967	306.834	66	30
306.111	306.412	75	40
306.255	307.944	77	44
306.257	307.464	60	30
306.412	306.72	75	40
306.563	308.687	74	43
306.565	307.178	56	30
306.72	308.05	75	40
306.834	307.756	66	34
306.859	308.147	73	34
306.891	307.843	78	46
306.892	308.687	32	31
306.892	308.687	44	37
307.177	308.687	90	35
307.178	308.353	56	19
307.269	308.687	89	35
307.364	308.687	87	35
307.462	308.687	85	36
307.464	308.05	60	19
307.556	308.687	84	36
307.654	308.687	82	37
307.755	308.687	80	37
307.756	308.564	66	19
307.843	308.687	78	38
307.944	308.687	77	38
308.05	308.687	60	19
308.05	308.687	75	39
308.147	308.684	73	39
308.252	308.687	72	40
308.351	308.687	70	40
308.353	308.687	56	19
308.455	308.687	68	42
308.564	308.687	66	42
308.683	309.568	65	39
308.684	309.709	73	46
308.686	308.826	37	31
308.687	308.826	49	37
308.976	310.163	56	30
309.267	309.862	61	30
309.566	310.163	72	44
309.568	310.486	65	30
309.709	310.01	73	40
309.862	311.062	61	30
309.862	311.648	75	44
310.01	310.318	73	40
310.163	310.779	56	30
310.163	311.85	72	44
310.318	311.746	73	40
310.486	311.354	65	46
310.489	312.285	37	31
310.489	311.549	77	46
310.49	312.285	49	37
310.779	311.952	56	19
310.779	312.286	90	40
310.87	312.286	89	40
310.962	312.286	87	40
311.062	311.65	61	19
311.062	312.286	85	40
311.154	312.286	84	40
311.252	312.286	82	39
311.354	312.221	65	19
311.354	312.286	80	39
311.451	312.286	78	39
311.549	312.286	77	39
311.648	312.286	75	38
311.65	312.286	61	19
311.746	312.284	73	38
311.85	312.286	72	38
311.951	312.286	70	38
311.952	312.286	56	19
312.054	312.286	68	38
312.165	312.286	66	39
312.221	312.286	65	34
312.284	314.219	73	46
312.285	314.219	37	28
312.285	314.219	49	34
312.592	313.824	53	23
312.908	313.507	56	23
313.219	314.144	68	39
313.223	314.219	61	23
313.506	314.219	65	39
313.507	314.219	56	23
313.824	314.219	53	23
314.144	316.057	68	43
314.146	314.303	32	27
314.146	316.057	60	36
314.15	314.307	44	32
314.458	316.057	44	24
314.769	316.057	48	24
315.088	316.057	51	24
315.088	316.057	66	40
315.399	316.057	63	40
315.4	316.057	54	24
315.707	316.057	56	24
315.987	316.057	77	25
316.022	316.057	80	25
316.055	317.842	89	40
316.057	317.842	37	24
316.057	316.204	49	29
316.358	317.541	56	18
316.666	317.251	61	18
316.813	317.842	85	36
316.961	317.537	65	18
316.961	317.842	80	36
317.103	317.842	77	36
317.251	317.702	61	18
317.251	317.842	73	36
317.393	317.842	68	36
317.537	317.842	65	36
317.541	317.863	56	18
317.702	317.842	61	36
317.803	317.842	60	25
317.836	317.866	66	25
317.867	319.705	32	22
317.867	319.705	70	39
317.87	318.164	44	27
318.164	319.705	44	17
318.472	319.705	48	17
318.784	319.705	51	17
318.784	319.705	68	35
319.091	319.705	63	35
319.092	319.705	54	17
319.393	319.705	56	17
319.393	319.705	65	35
319.701	320.317	49	14
319.701	320.156	61	35
319.704	320.317	53	17
319.848	320.316	65	32
320.006	320.32	56	32
320.156	320.929	61	32
320.316	320.929	65	36
320.317	321.881	49	14
320.317	321.881	53	14
320.32	320.929	56	17
320.461	321.881	68	35
320.614	321.881	73	35
320.769	321.881	77	35
320.926	321.881	80	34
320.929	321.573	56	14
320.929	321.573	61	14
320.929	321.573	65	17
321.08	321.881	85	34
321.241	321.881	89	34
321.399	321.881	92	34
321.57	322.175	97	38
321.573	322.235	56	14
321.573	322.235	61	14
321.573	322.235	65	17
322.238	322.735	68	53
322.895	323.397	68	53
323.516	323.55	60	35
323.555	323.578	63	36
323.583	324.801	68	53
323.585	325.441	44	38
323.586	325.438	32	32
323.886	325.105	56	31
324.191	324.804	60	31
324.492	326.642	70	48
324.496	326.348	66	31
324.801	325.381	68	48
324.804	326.044	60	31
325.105	325.738	56	31
325.381	326.194	68	39
325.406	327.244	72	39
325.437	327.244	78	63
325.438	327.244	32	32
325.441	327.244	44	38
325.738	326.935	56	38
326.044	326.645	60	30
326.194	326.495	68	46
326.347	326.932	67	46
326.348	327.244	66	30
326.495	326.789	68	46
326.642	327.244	70	46
326.645	327.244	60	30
326.789	327.079	68	46
326.932	327.244	67	46
326.935	327.244	56	30
327.079	327.243	68	46
327.215	327.244	65	39
327.243	328.42	68	53
327.244	329.025	37	32
327.244	329.025	49	38
327.537	328.703	56	31
327.839	328.421	61	31
328.133	330.831	70	48
328.136	328.969	65	31
328.42	329.0	68	48
328.421	329.63	61	31
328.703	329.33	56	31
328.969	329.936	65	39
329.0	330.831	68	39
329.022	329.781	77	63
329.025	330.831	37	32
329.025	330.831	49	38
329.33	330.523	56	38
329.63	330.232	61	30
329.781	330.831	77	46
329.935	330.52	75	46
329.936	330.831	65	30
330.079	330.376	73	46
330.23	330.795	72	46
330.232	330.831	61	30
330.376	330.666	73	46
330.52	330.831	75	46
330.523	330.831	56	30
330.666	330.831	73	46
330.795	330.831	72	39
330.828	331.216	78	65
330.83	332.602	32	32
330.831	332.602	44	38
331.118	331.706	80	47
331.121	332.294	56	31
331.216	331.409	78	47
331.314	332.889	77	47
331.409	332.294	78	59
331.411	332.004	60	31
331.706	334.379	80	54
331.707	332.546	66	31
332.001	334.379	82	59
332.004	333.18	60	31
332.294	332.889	56	31
332.294	333.767	78	50
332.546	333.478	66	39
332.57	334.068	72	39
332.599	332.98	75	65
332.602	334.379	32	32
332.602	334.379	44	38
332.889	334.069	56	38
332.889	333.477	77	47
332.98	333.18	75	47
333.078	334.379	74	47
333.18	333.768	60	30
333.18	334.377	75	59
333.477	334.379	77	54
333.478	334.379	66	31
333.767	334.379	78	59
333.768	334.379	60	30
334.068	334.379	72	50
334.069	334.379	56	30
334.32	334.379	65	39
334.345	334.379	68	39
334.377	336.112	49	38
334.377	336.112	75	65
334.379	336.112	37	32
334.66	335.832	56	38
334.951	335.542	61	30
335.097	335.395	73	47
335.252	336.112	65	31
335.252	335.542	72	47
335.395	335.685	73	47
335.542	336.112	61	30
335.542	336.112	72	47
335.685	335.975	73	47
335.832	336.126	56	30
335.832	336.112	77	47
335.975	336.112	73	47
336.126	337.817	68	47
336.127	337.817	37	32
336.13	337.817	49	38
336.424	337.614	56	38
336.719	337.32	61	30
337.022	337.817	65	31
337.317	337.925	73	47
337.32	337.817	61	30
337.614	337.926	56	30
337.872	337.9	65	36
337.904	337.928	71	38
337.929	339.746	37	32
337.929	339.137	73	53
337.932	339.746	49	38
338.237	339.431	56	31
338.538	339.137	61	31
338.846	341.348	75	48
338.847	340.638	65	31
339.137	340.333	61	31
339.137	339.715	73	48
339.431	340.04	56	31
339.689	341.348	71	39
339.715	340.935	73	39
339.743	341.348	80	63
339.746	341.348	37	32
339.746	341.348	49	38
340.04	341.23	56	38
340.333	340.936	61	30
340.638	341.348	65	30
340.935	341.541	73	63
340.936	341.348	61	30
341.23	341.544	56	30
341.484	341.512	66	39
341.516	341.545	70	39
341.545	342.752	73	53
341.549	343.358	37	32
341.549	343.358	49	38
341.846	343.046	58	31
342.154	342.753	61	31
342.455	345.157	75	48
342.457	344.25	66	31
342.752	343.333	73	48
342.753	343.952	61	31
343.046	345.16	58	31
343.301	345.16	69	35
343.333	345.16	73	35
343.354	345.16	78	54
343.358	345.157	37	32
343.358	345.16	49	38
343.653	345.16	57	38
343.952	344.547	61	30
344.25	345.16	66	30
344.545	345.16	77	54
344.547	345.16	61	30
344.848	345.16	56	30
345.128	345.16	72	35
345.157	346.879	37	32
345.157	346.88	75	54
345.16	346.88	49	38
345.3	346.88	78	55
345.444	346.88	81	57
345.584	346.88	84	58
345.731	346.88	87	59
345.733	346.88	60	25
345.734	346.88	57	25
345.734	346.88	63	25
345.735	346.88	66	30
345.874	346.88	90	59
346.014	346.876	93	60
346.157	346.732	96	61
346.301	346.588	99	63
346.442	346.88	102	64
346.588	346.88	99	64
346.732	346.88	96	65
346.876	348.597	93	66
346.879	348.597	25	29
346.879	348.597	37	35
347.015	348.597	90	65
347.162	348.597	87	65
347.302	348.597	84	65
347.449	348.597	81	64
347.45	348.597	49	24
347.452	348.597	54	24
347.452	348.597	56	29
347.453	348.597	51	24
347.593	348.597	78	64
347.733	348.597	75	65
347.876	348.597	72	66
348.024	348.597	69	67
348.159	348.597	66	69
348.307	348.597	63	69
348.447	348.597	60	70
348.594	349.021	61	69
348.738	350.574	65	70
348.881	349.305	56	69
349.021	350.574	61	72
349.164	349.595	53	70
349.305	350.574	56	73
349.447	349.896	49	72
349.595	350.574	53	75
349.745	350.204	44	73
349.896	350.574	49	77
350.049	350.574	41	75
350.204	350.574	44	80
350.361	350.917	37	86
350.998	351.323	68	67
351.649	351.978	68	67
352.307	353.246	65	50
352.307	353.245	68	59
352.308	353.475	56	55
352.308	353.48	61	55
352.31	353.48	49	46
353.192	353.535	70	57
353.481	354.144	68	57
353.483	354.148	49	42
353.483	354.148	61	50
353.483	354.147	65	48
353.486	354.148	56	50
354.152	355.986	61	45
354.152	355.658	65	53
354.154	355.986	56	46
354.155	355.987	49	39
354.462	355.922	89	32
354.463	354.761	80	27
354.466	354.761	85	32
354.761	355.057	77	27
354.761	355.055	80	32
354.761	355.922	85	32
355.055	355.922	80	32
355.057	355.352	77	32
355.058	355.352	73	27
355.352	355.658	73	32
355.352	355.922	77	32
355.356	355.657	68	27
355.657	355.922	68	32
355.658	355.989	65	27
355.658	355.922	73	32
355.989	356.927	65	51
355.993	357.166	56	46
355.993	357.165	61	55
355.993	356.927	68	60
355.994	357.166	49	46
356.874	357.214	70	58
357.168	357.784	65	49
357.169	357.789	56	42
357.169	357.789	61	50
357.169	357.788	68	58
357.172	357.789	49	42
357.791	359.615	61	46
357.792	359.615	56	46
357.792	359.297	65	55
357.795	359.615	49	46
358.11	358.407	85	32
358.111	358.404	80	27
358.111	359.542	89	32
358.404	358.702	80	32
358.407	359.542	85	32
358.408	358.702	77	27
358.701	358.999	73	27
358.702	358.999	77	32
358.702	359.542	80	32
358.999	359.297	68	27
358.999	359.293	73	32
358.999	359.542	77	32
359.293	359.542	73	32
359.297	359.619	65	27
359.297	359.542	68	32
359.619	360.553	65	51
359.619	360.553	68	61
359.62	360.791	61	55
359.621	360.792	49	46
359.622	360.794	56	46
360.501	360.84	70	58
360.794	361.414	65	49
360.795	361.414	68	58
360.798	361.415	56	42
360.798	361.407	61	50
360.799	361.415	49	42
361.417	362.355	61	53
361.417	362.352	65	63
361.418	362.59	56	54
361.421	362.593	49	45
362.306	362.649	66	57
362.594	363.23	61	48
362.594	363.231	65	57
362.598	363.231	49	40
362.598	363.234	56	48
363.235	364.994	61	42
363.235	366.174	65	50
363.237	364.708	56	48
363.238	364.113	49	40
363.531	373.702	32	23
363.532	363.826	37	23
363.532	363.822	41	28
363.822	364.116	41	23
363.826	373.702	37	23
363.826	364.113	44	28
364.113	364.411	44	23
364.113	364.41	49	28
364.116	373.702	41	23
364.41	364.704	49	23
364.41	364.704	53	28
364.411	365.292	44	23
364.704	365.292	49	23
364.704	364.998	53	23
364.708	364.995	56	28
364.994	365.877	61	28
364.995	365.589	56	23
364.998	365.293	53	23
365.292	373.702	44	23
365.292	365.589	49	23
365.293	365.586	53	28
365.586	365.88	53	23
365.589	373.702	49	23
365.589	365.876	56	28
365.876	366.175	56	23
365.877	366.175	61	28
365.88	373.702	53	23
366.174	366.472	65	28
366.175	367.056	56	23
366.175	366.471	61	23
366.467	366.762	68	28
366.471	367.055	61	23
366.472	366.759	65	23
366.759	367.056	65	23
366.759	367.656	73	28
366.762	367.35	68	23
367.055	367.354	61	23
367.056	373.702	56	23
367.056	367.354	65	28
367.35	367.655	68	23
367.354	373.702	61	23
367.354	367.655	65	28
367.655	373.702	65	23
367.655	367.964	68	23
367.656	367.963	73	28
367.963	368.271	73	28
367.964	368.879	68	23
367.964	368.272	77	28
368.271	368.879	73	23
368.271	368.58	80	28
368.272	368.579	77	28
368.579	368.876	77	23
368.579	369.523	85	28
368.58	369.191	80	28
368.876	369.192	77	28
368.879	373.702	68	23
368.879	369.192	73	28
369.191	369.524	80	28
369.192	373.702	73	23
369.192	369.524	77	28
369.523	369.866	85	28
369.524	373.702	77	23
369.524	369.867	80	28
369.866	370.221	85	28
369.867	373.702	80	23
369.867	370.22	89	28
370.22	370.731	89	28
370.22	370.732	92	28
370.221	373.702	85	23
370.731	373.702	89	26
370.732	373.702	92	31
370.732	373.702	97	31
374.259	375.526	56	19
374.26	375.527	61	19
374.26	375.526	65	23
374.262	375.211	44	28
374.263	375.211	32	23
375.211	375.53	34	19
375.215	375.53	46	23
375.53	376.22	56	19
375.531	376.223	65	23
375.533	376.227	32	19
375.533	376.226	44	23
375.533	376.223	61	19
376.227	377.601	56	19
376.229	377.605	61	19
376.23	377.245	29	23
376.23	377.241	41	28
376.23	377.605	65	23
377.245	377.606	42	23
377.248	377.608	30	19
377.609	378.501	56	19
377.609	378.505	61	19
377.612	378.508	29	19
377.612	378.505	65	23
377.613	378.509	41	23
378.509	383.874	56	19
378.51	383.874	61	19
378.511	383.875	65	23
378.512	383.877	25	23
378.512	383.877	37	28
