OnsetTime	OffsetTime	MidiPitch	Velocity
0.500004	1.14614	46	71
0.500004	1.14614	55	84
0.500004	1.14614	64	89
0.500004	1.14614	73	105
1.14614	1.36152	46	65
1.14614	1.36152	55	77
1.14614	1.36152	64	82
1.14614	1.36152	73	97
1.36152	2.00765	46	71
1.36152	2.00765	55	84
1.36152	2.00765	64	89
1.36152	2.00765	73	105
2.00765	2.22303	46	65
2.00765	2.22303	55	76
2.00765	2.22303	64	82
2.00765	2.22303	73	98
2.22303	2.5461	46	71
2.22303	2.5461	55	84
2.22303	2.5461	64	89
2.22303	2.5461	73	105
2.5461	2.65379	46	65
2.5461	2.65379	55	77
2.5461	2.65379	64	82
2.5461	2.65379	73	97
2.65379	2.97687	46	71
2.65379	2.97687	55	84
2.65379	2.97687	64	89
2.65379	2.97687	73	105
2.97687	3.08456	46	65
2.97687	3.08456	55	76
2.97687	3.08456	64	81
2.97687	3.08456	73	96
3.08456	3.40763	46	71
3.08456	3.40763	55	84
3.08456	3.40763	64	89
3.08456	3.40763	73	105
3.40763	3.51532	46	64
3.40763	3.51532	55	75
3.40763	3.51532	64	82
3.40763	3.51532	73	97
3.51532	3.83839	46	71
3.51532	3.83839	55	84
3.51532	3.83839	64	89
3.51532	3.83839	73	105
3.83839	3.94608	46	64
3.83839	3.94608	55	75
3.83839	3.94608	64	82
3.83839	3.94608	73	97
3.94608	4.37684	46	71
3.94608	4.37684	55	84
3.94608	4.37684	64	89
3.94608	4.37684	73	105
4.58532	4.68956	85	50
4.68956	4.79381	84	50
4.79381	4.89805	82	54
4.89805	5.0023	84	50
5.0023	5.10654	82	50
5.10654	5.21078	80	50
5.21078	5.31503	79	54
5.31503	5.41927	80	50
5.41927	5.52352	79	50
5.52352	5.62776	77	50
5.62776	6.06339	76	54
6.27187	6.37611	73	50
6.37611	6.48036	72	50
6.48036	6.5846	70	53
6.5846	6.68884	72	50
6.68884	6.79309	70	50
6.79309	6.89733	68	50
6.89733	7.00158	67	53
7.00158	7.10582	68	50
7.10582	7.21006	67	50
7.21006	7.31431	65	50
7.31431	7.74196	64	52
7.95043	8.05468	73	50
8.05468	8.15892	72	50
8.15892	8.26317	70	51
8.26317	8.36741	72	51
8.36741	8.47166	70	52
8.47166	8.5759	68	52
8.5759	8.67977	67	53
8.67977	8.78364	68	54
8.78364	8.88751	67	54
8.88751	8.99137	65	55
8.99137	9.09487	64	55
9.09487	9.19836	65	56
9.19836	9.30185	64	57
9.30185	9.40535	61	57
9.40535	9.50848	60	58
9.50848	9.61161	61	61
9.61161	9.71474	60	62
9.71474	9.81787	59	63
9.81787	9.92064	58	64
9.92064	10.0234	60	65
10.0234	10.1258	58	66
10.1258	10.2281	56	67
10.2281	10.3301	55	68
10.3301	10.4318	56	69
10.4318	10.5334	55	70
10.5334	10.6348	53	71
10.6348	10.7359	52	73
10.7359	10.8367	53	71
10.8367	10.9374	52	72
10.9374	11.0378	49	71
11.0378	11.1464	36	60
11.0378	11.1464	48	75
11.1381	11.2464	37	60
11.1381	11.2464	49	75
11.238	11.3467	36	60
11.238	11.3467	48	75
11.3378	11.4534	35	60
11.3378	11.4534	47	75
11.4451	11.5533	36	60
11.4451	11.5533	48	75
11.545	11.6528	37	60
11.545	11.6528	49	75
11.6444	11.7532	36	60
11.6444	11.7532	48	75
11.7449	11.8533	35	60
11.7449	11.8533	47	75
11.845	11.9536	36	60
11.845	11.9536	48	75
11.9452	12.0536	37	60
11.9452	12.0536	49	75
12.0452	12.1547	36	60
12.0452	12.1547	48	75
12.1462	12.2556	35	60
12.1462	12.2556	47	75
12.2472	12.3554	36	60
12.2472	12.3554	48	75
12.347	12.4557	37	60
12.347	12.4557	49	75
12.4474	12.5562	36	60
12.4474	12.5562	48	75
12.5478	12.6563	35	60
12.5478	12.6563	47	75
12.6479	12.7572	36	60
12.6479	12.7572	48	75
12.7488	12.858	37	60
12.7488	12.858	49	75
12.8496	12.9596	36	60
12.8496	12.9596	48	75
12.9507	13.0656	35	60
12.9507	13.0656	47	75
13.0572	13.1668	34	57
13.0572	13.1668	46	74
13.1583	13.2677	36	57
13.1583	13.2677	48	74
13.2594	13.3692	34	57
13.2594	13.3692	46	74
13.3607	13.4709	33	57
13.3607	13.4709	45	74
13.4625	13.5715	34	57
13.4625	13.5715	46	74
13.563	13.6731	36	57
13.563	13.6731	48	74
13.6647	13.7752	34	57
13.6647	13.7752	46	74
13.7663	13.8798	33	57
13.7663	13.8798	45	74
13.8714	13.9809	34	57
13.8714	13.9809	46	74
13.9725	14.0814	36	56
13.9725	14.0814	48	74
14.073	14.1826	34	56
14.073	14.1826	46	74
14.1742	14.284	33	56
14.1742	14.284	45	74
14.2755	14.3848	34	55
14.2755	14.3848	46	73
14.3764	14.4863	36	55
14.3764	14.4863	48	73
14.478	14.588	34	55
14.478	14.588	46	73
14.5792	14.693	33	55
14.5792	14.693	45	73
14.6846	14.7939	34	55
14.6846	14.7939	46	74
14.7855	14.895	36	54
14.7855	14.895	48	72
14.8866	14.9964	34	53
14.8866	14.9964	46	70
14.9879	15.0979	33	52
14.9879	15.0979	45	68
15.0894	15.1998	34	51
15.0894	15.1998	46	67
15.1913	15.3019	36	50
15.1913	15.3019	48	65
15.2933	15.4045	34	49
15.2933	15.4045	46	63
15.3957	15.5087	33	48
15.3957	15.5087	45	61
15.5002	15.6112	34	47
15.5002	15.6112	46	60
15.6026	15.7146	31	46
15.6026	15.7146	43	58
15.706	15.8189	32	45
15.706	15.8189	44	56
15.8102	15.9241	34	44
15.8102	15.9241	46	54
15.9153	16.0303	36	43
15.9153	16.0303	48	53
16.0214	16.1373	34	42
16.0214	16.1373	46	51
16.1283	16.2453	32	41
16.1283	16.2453	44	49
16.2363	16.3539	31	40
16.2363	16.3539	43	47
16.3452	16.7608	29	39
16.4494	16.5535	48	40
16.5535	16.6573	53	37
16.6573	16.7608	56	37
16.7608	16.8639	60	40
16.8639	16.967	61	38
16.967	17.0702	60	38
17.0702	17.1736	58	38
17.1736	17.2771	56	40
17.2771	17.3808	58	37
17.3808	17.4846	56	37
17.4846	17.5884	55	37
17.5884	17.6925	53	40
17.6925	17.7967	55	37
17.7967	17.901	56	37
17.901	18.0095	41	35
17.901	18.0095	53	37
18.0095	18.4245	29	40
18.1137	18.2177	48	40
18.2177	18.3213	53	37
18.3213	18.4245	56	37
18.4245	18.5272	60	40
18.5272	18.63	61	38
18.63	18.7327	60	38
18.7327	18.8356	58	38
18.8356	18.9386	56	40
18.9386	19.0417	58	37
19.0417	19.1452	56	37
19.1452	19.2486	55	37
19.2486	19.3523	53	40
19.3523	19.4561	55	37
19.4561	19.56	56	37
19.56	19.669	41	35
19.56	19.669	53	37
19.669	20.0852	34	40
19.7732	19.8774	49	44
19.8774	19.9814	54	40
19.9814	20.0852	58	40
20.0852	20.1887	61	44
20.1887	20.2921	63	41
20.2921	20.3957	61	41
20.3957	20.4995	60	41
20.4995	20.6033	58	44
20.6033	20.7073	60	40
20.7073	20.8115	58	40
20.8115	20.9157	56	40
20.9157	21.0202	54	44
21.0202	21.1247	56	40
21.1247	21.2294	54	40
21.2294	21.3383	37	36
21.2294	21.3383	53	40
21.3383	21.549	36	40
21.3383	21.4436	52	44
21.4436	21.549	53	40
21.549	21.6544	55	40
21.6544	21.7629	52	40
21.7629	21.9744	37	38
21.7629	21.8686	53	44
21.8686	21.9744	55	40
21.9744	22.0801	56	40
22.0801	22.189	53	40
22.189	22.3998	34	40
22.189	22.2944	55	44
22.2944	22.3998	56	40
22.3998	22.5051	58	40
22.5051	22.6136	55	40
22.6136	22.8244	36	37
22.6136	22.719	52	44
22.719	22.8244	53	37
22.8244	22.9298	55	38
22.9298	23.0387	52	40
23.0387	23.4556	29	40
23.0387	23.4556	41	40
23.0387	23.1429	53	44
23.1429	23.2471	48	40
23.2471	23.3514	53	37
23.3514	23.4556	56	37
23.4556	23.5599	60	40
23.5599	23.6641	61	38
23.6641	23.7707	60	38
23.7707	23.8772	58	38
23.7707	23.8772	68	49
23.7707	23.8772	72	49
23.8772	23.9813	56	40
23.8772	24.2937	68	57
23.8772	24.2937	72	57
23.9813	24.0855	58	37
24.0855	24.1896	56	37
24.1896	24.2937	55	37
24.2937	24.3979	53	40
24.2937	24.502	65	30
24.2937	24.502	68	30
24.3979	24.502	55	37
24.502	24.6062	56	37
24.6062	24.7147	53	37
24.7147	25.1316	29	40
24.7147	25.1316	41	40
24.8189	24.9231	48	40
24.9231	25.0274	53	37
25.0274	25.1316	56	37
25.1316	25.2359	60	40
25.2359	25.3401	61	38
25.3401	25.446	60	38
25.446	25.5518	58	38
25.446	25.5518	68	51
25.446	25.5518	72	51
25.5518	25.6559	56	40
25.5518	25.9683	68	56
25.5518	25.9683	72	56
25.6559	25.7601	58	37
25.7601	25.8642	56	37
25.8642	25.9683	55	37
25.9683	26.0725	53	40
25.9683	26.1766	65	30
25.9683	26.1766	68	30
26.0725	26.1766	55	37
26.1766	26.2808	56	37
26.2808	26.3897	53	37
26.3897	26.8066	34	40
26.3897	26.8066	46	40
26.4939	26.5982	49	44
26.5982	26.7024	54	40
26.7024	26.8066	58	40
26.8066	26.9109	61	44
26.9109	27.0151	63	41
27.0151	27.1213	61	41
27.1213	27.2275	60	41
27.1213	27.2275	70	63
27.1213	27.2275	73	63
27.2275	27.3316	58	44
27.2275	28.0654	70	70
27.2275	28.0654	73	70
27.3316	27.4358	60	40
27.4358	27.5399	58	40
27.5399	27.644	56	40
27.644	27.7482	54	44
27.7482	27.8523	56	40
27.8523	27.9564	54	40
27.9564	28.0654	53	40
28.0654	28.1707	52	44
28.0654	28.2761	70	51
28.0654	28.2761	72	51
28.1707	28.2761	53	40
28.2761	28.49	36	43
28.2761	28.49	48	43
28.2761	28.3815	55	40
28.3815	28.49	52	40
28.49	28.5957	53	44
28.5957	28.7015	55	40
28.7015	28.9161	37	37
28.7015	28.9161	49	37
28.7015	28.8072	56	40
28.8072	28.9161	53	40
28.9161	29.0223	55	44
29.0223	29.1285	56	40
29.1285	29.3431	34	39
29.1285	29.3431	46	39
29.1285	29.2346	58	40
29.2346	29.3431	55	40
29.3431	29.449	52	44
29.449	29.5548	53	37
29.5548	29.7696	36	35
29.5548	29.7696	48	35
29.5548	29.6607	55	38
29.6607	29.7696	52	40
29.7696	30.6437	29	44
29.7696	30.6437	41	44
29.7696	30.4985	53	37
29.8737	30.2902	60	38
29.9778	30.3944	65	40
30.082	30.4985	68	42
30.1861	30.6437	72	43
30.2902	30.6437	60	45
30.3944	30.6437	65	46
30.4985	30.6072	53	52
30.4985	30.6072	56	52
30.4985	30.6437	68	48
30.6072	31.3362	53	65
30.6072	31.3362	56	65
30.7113	31.1279	60	46
30.8155	31.232	65	47
30.9196	31.3362	68	49
31.0238	31.4445	72	50
31.1279	31.4445	60	52
31.232	31.4445	65	53
31.3362	31.4445	53	54
31.3362	31.4445	56	54
31.3362	31.4445	68	38
31.4445	32.2942	48	66
31.4445	32.2942	53	66
31.4445	32.2942	56	66
31.5494	31.9726	59	51
31.6546	32.0794	62	52
31.7603	32.1866	68	52
31.8663	32.2942	71	54
31.9726	32.2942	59	52
32.0794	32.2942	62	52
32.1866	32.2942	68	52
32.2942	32.7458	48	48
32.2942	32.7458	52	48
32.2942	32.7458	55	48
32.2942	32.7458	71	54
32.4013	32.7458	59	52
32.5081	32.7458	64	50
32.6144	32.7458	67	49
32.7202	33.1392	72	52
32.8256	33.1392	60	46
32.9307	33.1392	64	44
33.0352	33.1392	67	38
33.1392	33.9769	36	42
33.1392	33.9769	48	42
33.2434	33.6599	60	38
33.3475	33.7641	64	40
33.4516	33.8682	67	42
33.5558	33.9769	72	43
33.6599	33.9769	60	45
33.7641	33.9769	64	46
33.8682	33.9769	55	60
33.8682	33.9769	58	60
33.8682	33.9769	67	48
33.9769	34.7058	55	68
33.9769	34.7058	58	68
34.081	34.4976	60	46
34.1852	34.6017	64	47
34.2893	34.7058	67	49
34.3934	34.8142	72	50
34.4976	34.8142	60	52
34.6017	34.8142	64	53
34.7058	34.8142	55	61
34.7058	34.8142	58	61
34.7058	34.8142	67	38
34.8142	35.6626	53	58
34.8142	35.6626	55	58
34.8142	35.6626	58	69
34.9195	35.3424	60	51
35.0248	35.4488	64	52
35.1304	35.5556	67	52
35.2363	35.6626	72	54
35.3424	35.6626	60	52
35.4488	35.6626	64	52
35.5556	35.6626	67	52
35.6626	36.0864	53	47
35.6626	36.0864	56	52
35.6626	36.0864	72	53
35.769	36.0864	60	52
35.8751	36.0864	64	50
35.9809	36.0864	67	49
36.0864	36.5048	72	47
36.1915	36.5048	60	46
36.2964	36.5048	65	44
36.4009	36.5048	68	38
36.5048	37.3425	41	45
36.5048	37.3425	53	45
36.609	37.0255	65	38
36.7131	37.1297	69	40
36.8173	37.2338	72	42
36.9214	37.3425	77	43
37.0255	37.3425	65	45
37.1297	37.3425	69	46
37.2338	37.3425	60	59
37.2338	37.3425	63	59
37.2338	37.3425	72	48
37.3425	38.0714	60	68
37.3425	38.0714	63	68
37.4466	37.8632	65	46
37.5508	37.9673	69	47
37.6549	38.0714	72	49
37.759	38.1798	77	50
37.8632	38.1798	65	52
37.9673	38.1798	69	53
38.0714	38.1798	60	66
38.0714	38.1798	63	66
38.0714	38.1798	72	54
38.1798	39.232	58	72
38.1798	39.232	60	72
38.1798	39.232	63	72
38.2853	38.7072	65	50
38.3908	38.8127	69	50
38.4962	38.9182	72	50
38.6017	39.0237	77	55
38.7072	38.9982	65	53
38.8127	38.9982	69	52
38.9182	39.0237	72	52
39.0237	39.1278	65	54
39.0237	39.1278	69	54
39.1278	39.232	77	54
39.232	39.443	58	64
39.232	39.443	61	64
39.232	39.3375	65	53
39.232	39.3375	70	53
39.3375	39.443	77	52
39.443	39.655	56	61
39.443	39.655	60	61
39.443	39.549	65	52
39.443	39.549	72	52
39.549	39.655	77	51
39.655	39.867	55	59
39.655	39.867	58	59
39.655	39.761	65	50
39.655	39.761	73	50
39.761	39.867	77	50
39.867	40.7057	48	56
39.867	40.5959	53	56
39.867	40.5959	56	56
39.9711	40.3876	60	52
40.0752	40.4918	65	49
40.1794	40.5959	68	50
40.2835	40.7057	72	56
40.3876	40.7057	60	50
40.4918	40.7057	65	50
40.5959	40.7057	53	56
40.5959	40.7057	56	56
40.5959	40.7057	68	50
40.7057	41.5444	48	63
40.7057	41.4347	55	63
40.7057	41.5444	58	63
40.7057	41.1222	72	56
40.8098	41.2264	60	52
40.914	41.4347	67	52
41.0181	41.5444	70	52
41.1222	41.5444	72	56
41.2264	41.5444	60	52
41.3305	41.5444	64	52
41.4347	41.5444	52	53
41.4347	41.5444	55	53
41.4347	41.5444	67	52
41.5444	41.8569	53	56
41.5444	41.6486	60	59
41.5444	42.4007	65	59
41.5444	42.4007	68	59
41.5444	42.4007	72	59
41.6486	42.4007	60	49
41.7527	42.0651	56	49
41.8569	42.1693	53	49
41.961	42.2734	48	53
42.0651	42.4007	56	49
42.1693	42.4007	53	49
42.2734	42.4007	48	49
42.2734	42.3825	77	69
42.2734	42.3825	80	69
42.3825	42.6949	44	53
42.3825	43.1114	77	74
42.3825	43.1114	80	74
42.4866	43.2197	53	49
42.5908	42.9032	48	49
42.6949	43.0073	44	49
42.799	43.1114	41	53
42.9032	43.2197	48	49
43.0073	43.2197	44	49
43.1114	43.2197	41	49
43.1114	43.2197	77	70
43.1114	43.2197	80	70
43.2197	43.6526	36	53
43.2197	44.0655	77	75
43.2197	44.0655	80	75
43.3242	43.6526	41	49
43.4288	43.6526	44	49
43.5333	43.6526	48	49
43.6378	43.8469	47	53
43.7424	43.9514	48	49
43.8469	44.0559	47	49
43.9514	44.0655	48	49
44.0559	44.8921	47	53
44.0559	44.8921	76	68
44.0559	44.8921	79	68
44.1605	44.3695	48	49
44.265	44.6831	43	49
44.3695	44.5786	48	49
44.474	44.8921	40	53
44.5786	44.7876	48	49
44.6831	44.8921	43	49
44.7876	44.8921	48	49
44.8921	45.7484	36	56
44.9963	45.3087	40	49
45.1004	45.4128	43	49
45.2045	45.517	48	49
45.3087	45.7484	40	53
45.4128	45.7302	43	49
45.517	45.7484	48	49
45.6211	45.7484	52	49
45.6211	45.7302	79	69
45.6211	45.7302	82	69
45.7302	46.5674	43	53
45.7302	46.4591	79	74
45.7302	46.4591	82	74
45.8343	46.1467	48	49
45.9385	46.2509	52	49
46.0426	46.355	55	49
46.1467	46.5674	48	53
46.2509	46.5674	52	49
46.355	46.5674	55	49
46.4591	46.5674	60	49
46.4591	46.5674	79	70
46.4591	46.5674	82	70
46.5674	47.0003	53	59
46.5674	47.4132	79	75
46.5674	47.4132	82	75
46.6719	47.0003	56	49
46.7765	47.0003	60	49
46.881	47.0003	65	49
46.9855	47.1946	64	53
47.09	47.2991	65	49
47.1946	47.4036	64	49
47.2991	47.4132	65	49
47.4036	48.2398	64	53
47.4036	48.2398	77	68
47.4036	48.2398	80	68
47.5081	47.7172	65	49
47.6127	48.0308	60	49
47.7172	47.9263	65	49
47.8217	48.2398	56	53
47.9263	48.1353	65	49
48.0308	48.2398	60	49
48.1353	48.2398	65	49
48.2398	49.0961	53	61
48.344	48.6564	57	53
48.4481	48.7605	60	53
48.5522	48.8646	65	53
48.6564	49.0961	57	58
48.7605	49.0779	60	53
48.8646	49.0961	65	53
48.9688	49.0961	69	53
48.9688	49.0779	84	82
48.9688	49.0779	87	82
49.0779	49.9151	60	58
49.0779	49.8068	84	89
49.0779	49.8068	87	89
49.182	49.4944	65	53
49.2861	49.5986	69	53
49.3903	49.7027	72	53
49.4944	49.9151	65	58
49.5986	49.9151	69	53
49.7027	49.9151	72	53
49.8068	49.9151	77	53
49.8068	49.9151	84	84
49.8068	49.9151	87	84
49.9151	50.3332	69	67
49.9151	51.1709	84	90
49.9151	51.6102	87	90
50.0196	50.2287	77	53
50.1242	50.348	76	53
50.2287	50.348	77	53
50.3332	50.5423	69	58
50.4377	50.6468	77	53
50.5423	50.7513	69	53
50.6468	50.7609	77	53
50.7513	51.6102	69	57
50.8558	51.0656	77	56
50.9604	51.6102	70	56
50.9604	51.3814	82	79
50.9604	51.6102	85	79
51.0656	51.2762	77	55
51.1709	51.6102	72	54
51.1709	51.5919	80	77
51.1709	51.6102	84	77
51.2762	51.4867	77	53
51.3814	51.6102	73	52
51.3814	51.6102	79	73
51.3814	51.6102	82	73
51.4867	51.5919	77	52
51.5919	52.4257	60	52
51.5919	52.3209	77	82
51.5919	52.3209	80	82
51.6961	52.4439	65	47
51.8002	52.4439	68	47
51.9044	52.1126	72	47
52.0085	52.2168	71	52
52.1126	52.3209	72	47
52.2168	52.4439	71	47
52.3209	52.4439	72	47
52.3209	52.4439	77	79
52.3209	52.4439	80	79
52.3209	52.4439	89	79
52.4257	52.8422	60	52
52.4257	53.1546	79	82
52.4257	53.2649	82	82
52.4257	53.2649	91	82
52.5298	53.2649	64	47
52.6339	52.9464	67	47
52.7381	53.1546	72	47
52.8422	53.2649	60	52
52.9464	53.2649	67	47
53.0505	53.2649	70	47
53.1546	53.2649	72	47
53.1546	53.2649	76	79
53.1546	53.2649	79	79
53.1546	53.2649	88	79
53.2649	54.0986	53	52
53.2649	53.4742	77	73
53.2649	53.5783	80	73
53.2649	54.0986	89	73
53.3698	53.5783	65	38
53.3698	53.5783	68	38
53.3698	53.4742	72	61
53.4742	53.682	60	39
53.4742	53.682	72	39
53.4742	54.0986	77	62
53.5783	53.7852	65	41
53.5783	53.7852	68	41
53.5783	54.0927	80	63
53.682	53.8881	60	45
53.682	53.8881	72	45
53.682	53.8881	84	68
53.7852	53.9906	65	44
53.7852	53.9906	68	44
53.7852	54.0986	85	65
53.8881	54.0927	60	45
53.8881	54.0927	72	45
53.8881	54.0986	84	66
53.9906	54.0986	65	45
53.9906	54.0986	68	45
53.9906	54.0986	82	65
54.0927	54.2972	60	46
54.0927	54.2972	72	46
54.0927	54.2972	80	68
54.1946	54.4006	65	46
54.1946	54.4006	68	46
54.1946	54.9299	82	67
54.2972	54.5048	60	45
54.2972	54.5048	72	45
54.2972	54.7157	80	66
54.4006	54.6098	65	45
54.4006	54.6098	68	45
54.4006	54.6098	79	65
54.5048	54.7157	60	45
54.5048	54.7157	72	45
54.5048	54.8224	77	64
54.6098	54.8224	65	44
54.6098	54.8224	68	44
54.6098	54.9299	79	63
54.7157	54.9299	60	44
54.7157	54.9299	72	44
54.7157	54.9299	80	63
54.8224	54.9299	65	43
54.8224	54.9299	68	43
54.8224	54.9299	77	62
54.9299	55.7988	53	54
55.0651	55.2755	65	38
55.0651	55.2755	68	38
55.0651	55.1706	72	61
55.1706	55.3799	60	39
55.1706	55.3799	72	39
55.1706	55.7988	77	62
55.2755	55.4839	65	41
55.2755	55.4839	68	41
55.2755	55.7928	80	63
55.3799	55.5873	60	45
55.3799	55.5873	72	45
55.3799	55.5873	84	68
55.4839	55.6903	65	44
55.4839	55.6903	68	44
55.4839	55.7988	85	65
55.5873	55.7928	60	45
55.5873	55.7928	72	45
55.5873	55.7988	84	66
55.6903	55.7988	65	45
55.6903	55.7988	68	45
55.6903	55.7988	82	65
55.7928	55.9983	60	46
55.7928	55.9983	72	46
55.7928	55.9983	80	68
55.8953	56.102	65	46
55.8953	56.102	68	46
55.8953	56.6298	82	67
55.9983	56.2062	60	45
55.9983	56.2062	72	45
55.9983	56.4166	80	66
56.102	56.3111	65	45
56.102	56.3111	68	45
56.102	56.3111	79	65
56.2062	56.4166	60	45
56.2062	56.4166	72	45
56.2062	56.5228	77	64
56.3111	56.5228	65	44
56.3111	56.5228	68	44
56.3111	56.6298	79	63
56.4166	56.6298	60	44
56.4166	56.6298	72	44
56.4166	56.6298	80	63
56.5228	56.6298	65	43
56.5228	56.6298	68	43
56.5228	56.6298	77	62
56.6298	57.4976	43	55
56.7653	56.9757	53	40
56.7653	56.9757	55	40
56.7653	57.4976	77	64
56.8708	57.08	50	41
56.8708	57.08	59	41
56.8708	57.4976	83	65
56.9757	57.1838	53	43
56.9757	57.1838	55	43
56.9757	57.4917	86	66
57.08	57.287	50	47
57.08	57.287	59	47
57.08	57.287	89	72
57.1838	57.3896	53	46
57.1838	57.3896	55	46
57.1838	57.4976	91	69
57.287	57.4917	50	47
57.287	57.4917	59	47
57.287	57.4976	89	70
57.3896	57.4976	53	48
57.3896	57.4976	55	48
57.3896	57.4976	87	69
57.4917	57.6961	50	49
57.4917	57.6961	59	49
57.4917	57.6961	86	72
57.5936	57.7992	53	49
57.5936	57.7992	56	49
57.5936	58.3248	87	71
57.6961	57.903	50	48
57.6961	57.903	59	48
57.6961	58.1124	86	70
57.7992	58.0074	53	47
57.7992	58.3248	56	47
57.7992	58.0074	84	69
57.903	58.1124	50	47
57.903	58.1124	59	47
57.903	58.2182	83	68
58.0074	58.2182	53	46
58.0074	58.2182	55	46
58.0074	58.3248	84	67
58.1124	58.3248	50	46
58.1124	58.3248	59	46
58.1124	58.3248	86	66
58.2182	58.3248	53	45
58.2182	58.3248	55	45
58.2182	58.3248	83	65
58.3248	59.191	43	54
58.4599	58.6696	53	40
58.4599	58.6696	55	40
58.4599	59.191	77	64
58.565	58.7736	50	41
58.565	58.7736	59	41
58.565	59.191	83	65
58.6696	58.8772	53	43
58.6696	58.8772	55	43
58.6696	59.1851	86	66
58.7736	58.9803	50	47
58.7736	58.9803	59	47
58.7736	58.9803	89	72
58.8772	59.0829	53	46
58.8772	59.0829	55	46
58.8772	59.191	91	69
58.9803	59.1851	50	47
58.9803	59.1851	59	47
58.9803	59.191	89	70
59.0829	59.191	53	48
59.0829	59.191	55	48
59.0829	59.191	87	69
59.1851	59.3895	50	49
59.1851	59.3895	59	49
59.1851	59.3895	86	72
59.2869	59.4928	53	49
59.2869	59.4928	56	49
59.2869	60.0208	87	71
59.3895	59.5968	50	48
59.3895	59.5968	59	48
59.3895	59.8072	86	70
59.4928	59.7017	53	47
59.4928	60.0208	56	47
59.4928	59.7017	84	69
59.5968	59.8072	50	47
59.5968	59.8072	59	47
59.5968	59.9135	83	68
59.7017	59.9135	53	46
59.7017	59.9135	55	46
59.7017	60.0208	84	67
59.8072	60.0208	50	46
59.8072	60.0208	59	46
59.8072	60.0208	86	66
59.9135	60.0208	53	45
59.9135	60.0208	55	45
59.9135	60.0208	83	65
60.0208	60.8869	48	56
60.1558	60.3655	60	42
60.1558	60.3655	63	42
60.1558	60.8869	79	67
60.2609	60.4696	55	43
60.2609	60.4696	67	43
60.2609	60.8869	84	68
60.3655	60.5731	60	45
60.3655	60.5731	63	45
60.3655	60.881	87	69
60.4696	60.6762	55	49
60.4696	60.6762	67	49
60.4696	60.6762	91	75
60.5731	60.7788	60	48
60.5731	60.7788	63	48
60.5731	60.8869	92	72
60.6762	60.881	55	49
60.6762	60.881	67	49
60.6762	60.8869	91	73
60.7788	60.8869	60	50
60.7788	60.8869	63	50
60.7788	60.8869	89	72
60.881	61.0854	55	51
60.881	61.0854	67	51
60.881	61.0854	87	75
60.9829	61.1887	60	51
60.9829	61.1887	63	51
60.9829	61.7167	89	74
61.0854	61.2927	55	50
61.0854	61.2927	67	50
61.0854	61.5031	87	73
61.1887	61.3976	60	49
61.1887	61.3976	63	49
61.1887	61.3976	86	72
61.2927	61.5031	55	49
61.2927	61.5031	67	49
61.2927	61.6095	84	71
61.3976	61.6095	60	48
61.3976	61.6095	63	48
61.3976	61.7167	86	70
61.5031	61.7167	55	48
61.5031	61.7167	67	48
61.5031	61.7167	87	69
61.6095	61.7167	60	47
61.6095	61.7167	63	47
61.6095	61.7167	84	68
61.7167	62.5828	48	56
61.8518	62.5828	79	67
61.9568	62.269	67	43
61.9568	62.5828	84	68
62.0614	62.5828	63	45
62.0614	62.5769	87	69
62.1655	62.3721	72	49
62.1655	62.3721	91	76
62.269	62.4748	67	49
62.269	62.5828	92	74
62.3721	62.5828	72	50
62.3721	62.5828	91	75
62.4748	62.5828	67	52
62.4748	62.5828	89	74
62.5769	62.7813	75	53
62.5769	62.7813	87	78
62.6788	62.8846	72	53
62.6788	63.4126	89	77
62.7813	63.0935	75	53
62.7813	63.199	87	77
62.8846	63.4126	72	51
62.8846	63.0935	86	76
62.9886	63.199	79	52
62.9886	63.3054	84	75
63.0935	63.3054	75	51
63.0935	63.4126	86	75
63.199	63.4126	79	51
63.199	63.4126	87	74
63.3054	63.4126	75	51
63.3054	63.4126	84	74
63.4126	64.26	77	80
63.4126	64.26	80	80
63.5178	63.7284	85	70
63.6231	63.8336	87	73
63.7284	63.9389	85	70
63.8336	64.26	87	65
63.9389	64.1521	85	63
64.0442	64.26	75	66
64.0442	64.26	79	66
64.0442	64.26	84	59
64.1521	64.26	85	59
64.26	64.7015	74	68
64.26	64.7015	77	68
64.3679	64.5837	83	58
64.4758	64.7015	84	60
64.5837	64.7015	83	57
64.6917	65.1233	75	64
64.6917	65.1233	79	64
64.7996	65.0154	84	57
64.9075	65.1233	86	60
65.0154	65.1233	84	56
65.1233	65.9707	77	80
65.1233	65.9707	80	80
65.2286	65.4391	85	70
65.3339	65.5444	87	73
65.4391	65.6496	85	70
65.5444	65.9707	87	65
65.6496	65.8628	85	63
65.7549	65.9707	75	66
65.7549	65.9707	79	66
65.7549	65.9707	84	59
65.8628	65.9707	85	59
65.9707	66.4123	74	68
65.9707	66.4123	77	68
66.0786	66.2945	83	58
66.1866	66.4123	84	60
66.2945	66.4123	83	57
66.4024	66.8341	75	64
66.4024	66.8341	79	64
66.5103	66.7262	84	57
66.6182	66.8341	86	60
66.7262	66.8341	84	56
66.8341	67.6815	77	80
66.8341	67.6815	80	80
66.9393	67.1499	85	70
67.0446	67.2551	87	73
67.1499	67.3604	85	70
67.2551	67.6815	87	73
67.3604	67.5736	85	70
67.4657	67.6815	75	66
67.4657	67.6815	79	66
67.4657	67.6815	84	59
67.5736	67.6815	85	59
67.6815	68.1231	74	68
67.6815	68.1231	77	68
67.7894	68.0052	83	58
67.8973	68.1231	84	60
68.0052	68.1231	83	58
68.1132	68.5448	72	65
68.1132	68.5448	75	65
68.2211	68.4369	80	58
68.329	68.5448	82	61
68.4369	68.5448	80	57
68.5448	68.9864	71	70
68.5448	68.9864	74	70
68.6527	68.8686	79	60
68.7607	68.9864	80	62
68.8686	68.9864	79	60
68.9765	69.4082	69	70
68.9765	69.4082	72	70
69.0844	69.3003	78	61
69.1923	69.4082	79	65
69.3003	69.4082	78	62
69.4082	69.8497	68	75
69.4082	69.8398	72	75
69.5161	69.7319	77	65
69.624	69.8497	79	67
69.7319	69.8497	77	64
69.8398	70.2715	67	75
69.8398	70.2715	72	75
69.9478	70.1636	75	66
70.0557	70.2715	77	69
70.1636	70.2715	75	67
70.2715	71.1348	66	76
70.3794	70.5953	75	67
70.4873	70.7131	77	70
70.5953	70.7131	75	68
70.7032	71.1348	68	75
70.8111	71.0269	74	66
70.919	71.1348	75	69
71.0269	71.1348	74	64
71.1348	71.9982	55	72
71.1348	71.5764	63	72
71.1348	71.9982	67	72
71.2427	71.4586	72	64
71.3507	71.5764	74	65
71.4586	71.5764	72	62
71.5665	71.9982	62	68
71.6744	71.8903	71	60
71.7823	71.9982	72	62
71.8903	71.9982	71	57
71.9982	72.8456	53	61
71.9982	72.8456	56	61
71.9982	72.8456	61	72
72.1034	72.314	68	66
72.2087	72.4192	80	73
72.314	72.5245	68	59
72.4192	72.6298	80	71
72.5245	72.7377	68	58
72.6298	72.8456	51	50
72.6298	72.8456	55	50
72.6298	72.8456	60	59
72.6298	72.8456	80	63
72.7377	72.8456	68	59
72.8456	73.2872	50	51
72.8456	73.2872	53	54
72.8456	73.2872	59	64
72.9535	73.2872	68	60
73.0614	73.2872	80	71
73.1693	73.2872	79	66
73.2773	73.7089	51	48
73.2773	73.7089	55	48
73.2773	73.7089	60	57
73.2773	73.7089	77	68
73.3852	73.7089	75	66
73.4931	73.7089	74	65
73.601	73.7089	72	58
73.7089	74.5564	53	61
73.7089	74.5564	56	61
73.7089	74.5564	61	72
73.8142	74.0247	80	68
73.9195	74.13	92	75
74.0247	74.2353	80	67
74.13	74.3405	92	74
74.2353	74.4484	80	67
74.3405	74.5564	51	50
74.3405	74.5564	55	50
74.3405	74.5564	60	59
74.3405	74.5564	92	69
74.4484	74.5564	80	60
74.5564	74.9979	50	51
74.5564	74.9979	53	51
74.5564	74.9979	59	61
74.6643	74.9979	80	61
74.7722	74.9979	92	73
74.8801	74.9979	91	66
74.988	75.4197	51	48
74.988	75.4197	55	48
74.988	75.4197	60	57
74.988	75.4197	89	70
75.0959	75.4197	87	68
75.2039	75.4197	86	67
75.3118	75.4197	84	65
75.4197	76.2671	53	61
75.4197	76.2671	56	61
75.4197	76.2671	61	72
75.525	75.7355	68	66
75.6302	75.8407	80	73
75.7355	75.946	68	66
75.8407	76.0513	80	73
75.946	76.1592	68	66
76.0513	76.2671	51	50
76.0513	76.2671	55	50
76.0513	76.2671	60	59
76.0513	76.2671	80	68
76.1592	76.2671	68	61
76.2671	76.7085	50	51
76.2671	76.7085	53	51
76.2671	76.7085	59	61
76.375	76.5909	80	68
76.4829	76.7085	68	60
76.5909	76.7085	80	68
76.6988	77.1228	48	49
76.6988	77.1228	51	49
76.6988	77.1228	56	58
76.8048	77.0168	92	78
76.9108	77.1228	80	69
77.0168	77.1228	92	75
77.1228	77.5627	47	53
77.1228	77.5627	50	63
77.1228	77.5627	55	63
77.2303	77.4454	91	78
77.3378	77.5627	79	71
77.4454	77.5627	91	74
77.5529	77.983	45	53
77.5529	77.983	48	53
77.5529	77.983	51	63
77.5529	77.983	54	63
77.6604	77.8755	90	75
77.768	77.983	78	71
77.8755	77.983	90	74
77.983	78.4183	47	56
77.983	78.4183	50	56
77.983	78.4183	53	67
78.0894	78.3022	89	78
78.1958	78.4183	77	69
78.3022	78.4183	89	74
78.4085	78.834	48	56
78.4085	78.834	51	67
78.5149	78.7277	87	77
78.6213	78.834	75	71
78.6213	78.834	79	71
78.7277	78.834	87	75
78.834	79.6912	42	56
78.834	79.6912	45	56
78.834	79.2724	51	66
78.9412	79.1555	87	75
79.0483	79.2724	75	68
79.0483	79.2724	81	68
79.1555	79.2724	87	75
79.2626	79.6912	50	64
79.3697	79.584	86	73
79.4769	79.6912	74	66
79.4769	79.6912	81	66
79.584	79.6912	86	73
79.6912	80.5483	43	61
79.6912	80.1295	48	61
79.7983	80.0126	84	71
79.9054	80.1295	72	66
79.9054	80.1295	75	66
80.0126	80.1295	84	71
80.1197	80.5483	47	59
80.2269	80.4412	83	69
80.334	80.5483	71	62
80.334	80.5483	74	62
80.4412	80.5483	83	64
80.5483	80.99	36	59
80.5483	80.99	39	59
80.5483	80.99	43	59
80.5483	80.99	48	70
80.5483	80.7603	72	65
80.5483	80.8659	75	65
80.5483	80.9716	79	65
80.5483	80.99	84	77
80.6543	80.99	67	74
80.7603	80.99	72	76
80.8659	80.99	75	78
80.9716	81.1821	79	80
81.0768	81.3916	55	59
81.0768	81.3916	80	76
81.1821	81.3916	60	62
81.1821	81.3916	79	76
81.287	81.3916	63	64
81.287	81.3916	77	76
81.3916	81.6002	67	70
81.3916	81.6002	75	77
81.4958	81.8045	68	64
81.4958	81.8045	77	71
81.6002	81.8045	67	64
81.6002	81.8045	75	72
81.7049	81.8097	65	64
81.7049	81.8097	74	72
81.8097	82.2318	63	70
81.8097	82.2318	72	78
81.9149	82.2318	62	63
81.9149	82.2318	70	73
82.0203	82.2318	60	63
82.0203	82.2318	68	73
82.1259	82.2318	58	63
82.1259	82.2318	67	72
82.2318	82.6789	56	67
82.2318	82.6789	65	75
82.3379	82.6789	55	60
82.3379	82.6789	63	70
82.4443	82.6789	53	60
82.4443	82.6789	62	70
82.5509	82.6789	51	60
82.5509	82.6789	60	70
82.6578	82.8675	50	71
82.6578	82.8776	59	73
82.7677	82.8776	51	65
82.8776	82.9875	53	73
82.8776	83.0424	55	69
82.8776	83.0424	59	69
82.8776	83.0424	62	69
82.8776	83.0424	67	82
82.9875	83.0974	51	69
83.0974	83.2073	50	73
83.0974	83.2622	55	61
83.0974	83.2622	59	61
83.0974	83.2622	65	73
83.0974	83.2622	67	73
83.2073	83.3172	48	73
83.3172	83.4271	47	72
83.3172	83.482	55	60
83.3172	83.482	59	60
83.3172	83.482	65	71
83.3172	83.482	67	71
83.4271	83.5369	44	72
83.5369	83.6468	43	71
83.5369	83.7018	55	61
83.5369	83.7018	59	61
83.5369	83.7018	65	72
83.5369	83.7018	67	72
83.6468	83.7567	41	71
83.7567	83.8666	39	70
83.7567	83.9216	55	61
83.7567	83.9216	59	61
83.7567	83.9216	65	72
83.7567	83.9216	67	72
83.8666	83.9765	38	70
83.9765	84.4121	36	70
83.9765	84.4121	39	70
83.9765	84.4121	43	70
83.9765	84.4121	48	70
83.9765	84.4121	55	77
83.9765	84.4121	60	77
83.9765	84.4121	63	77
83.9765	84.4121	67	77
84.0825	84.4121	79	74
84.1885	84.4121	84	76
84.2941	84.4121	87	78
84.3998	84.6103	91	80
84.505	84.8494	67	59
84.505	84.8494	92	76
84.6103	84.8494	72	62
84.6103	84.8494	91	76
84.7152	84.8494	75	64
84.7152	84.8494	89	76
84.8199	85.0284	79	70
84.8199	85.0284	87	77
84.924	85.287	80	64
84.924	85.287	89	71
85.0284	85.287	79	64
85.0284	85.287	87	72
85.1331	85.287	77	64
85.1331	85.287	86	72
85.238	85.66	75	70
85.238	85.66	84	78
85.3431	85.66	74	63
85.3431	85.66	82	73
85.4485	85.66	72	63
85.4485	85.66	80	73
85.5541	85.66	70	63
85.5541	85.66	79	72
85.66	86.1172	68	67
85.66	86.1172	77	75
85.7662	86.1172	67	60
85.7662	86.1172	75	70
85.8725	86.1172	65	60
85.8725	86.1172	74	70
85.9792	86.1172	63	60
85.9792	86.1172	72	70
86.0861	86.2866	62	71
86.0861	86.3058	71	73
86.1959	86.3058	63	65
86.3058	86.4157	65	73
86.3058	86.4707	67	58
86.3058	86.4707	71	69
86.3058	86.4707	74	69
86.3058	86.4707	79	82
86.4157	86.5256	63	69
86.5256	86.6355	62	73
86.5256	86.6904	67	51
86.5256	86.6904	71	61
86.5256	86.6904	77	73
86.5256	86.6904	79	73
86.6355	86.7454	60	73
86.7454	86.8553	59	72
86.7454	86.9102	67	50
86.7454	86.9102	71	59
86.7454	86.9102	77	70
86.7454	86.9102	79	70
86.8553	86.9652	56	72
86.9652	87.0751	55	71
86.9652	87.13	67	51
86.9652	87.13	71	61
86.9652	87.13	77	73
86.9652	87.13	79	73
87.0751	87.185	53	71
87.185	87.2948	51	70
87.185	87.3498	67	51
87.185	87.3498	71	60
87.185	87.3498	77	71
87.185	87.3498	79	71
87.2948	87.4047	50	70
87.4047	87.8912	48	67
87.4047	87.8912	67	51
87.4047	87.8912	72	61
87.4047	87.8912	75	73
87.4047	87.8912	79	73
87.5402	87.8912	50	60
87.6466	87.8912	51	60
87.7532	87.8912	53	60
87.8601	88.0606	55	71
87.97	88.0799	57	65
88.0799	88.1898	59	73
88.0799	88.2447	79	58
88.0799	88.2447	84	69
88.0799	88.2447	87	69
88.0799	88.2447	91	82
88.1898	88.2997	60	69
88.2997	88.4095	62	73
88.2997	88.4645	79	51
88.2997	88.4645	83	61
88.2997	88.4645	89	73
88.2997	88.4645	91	73
88.4095	88.5194	60	73
88.5194	88.6293	59	72
88.5194	88.6843	79	50
88.5194	88.6843	83	59
88.5194	88.6843	89	70
88.5194	88.6843	91	70
88.6293	88.7392	56	72
88.7392	88.8491	55	71
88.7392	88.904	79	51
88.7392	88.904	83	61
88.7392	88.904	89	73
88.7392	88.904	91	73
88.8491	88.959	53	71
88.959	89.0689	51	70
88.959	89.1238	79	51
88.959	89.1238	83	60
88.959	89.1238	89	71
88.959	89.1238	91	71
89.0689	89.1788	50	70
89.1788	89.6653	48	67
89.1788	89.6653	79	51
89.1788	89.6653	84	61
89.1788	89.6653	87	73
89.1788	89.6653	91	73
89.3142	89.6653	50	60
89.4206	89.6653	51	60
89.5272	89.6653	53	60
89.6341	89.831	55	71
89.744	89.8539	57	65
89.8539	89.9638	59	73
89.8539	90.0187	67	58
89.8539	90.0187	72	69
89.8539	90.0187	75	69
89.8539	90.0187	79	82
89.9638	90.0737	60	69
90.0737	90.1836	62	73
90.0737	90.2385	67	51
90.0737	90.2385	71	61
90.0737	90.2385	77	73
90.0737	90.2385	79	73
90.1836	90.2935	60	73
90.2935	90.4034	59	72
90.2935	90.4583	67	50
90.2935	90.4583	71	59
90.2935	90.4583	77	70
90.2935	90.4583	79	70
90.4034	90.5133	56	72
90.5133	90.6231	55	71
90.5133	90.6781	67	51
90.5133	90.6781	71	61
90.5133	90.6781	77	73
90.5133	90.6781	79	73
90.6231	90.733	53	71
90.733	90.8429	51	70
90.733	90.8979	67	51
90.733	90.8979	71	60
90.733	90.8979	77	71
90.733	90.8979	79	71
90.8429	90.9528	50	70
90.9528	91.4393	48	67
90.9528	91.4393	67	51
90.9528	91.4393	72	61
90.9528	91.4393	75	61
90.9528	91.4393	79	73
91.0883	91.4393	50	60
91.1947	91.4393	51	60
91.3013	91.4393	53	60
91.4082	91.5987	55	71
91.5181	91.628	57	65
91.628	91.7378	59	73
91.628	91.7928	72	58
91.628	91.7928	75	69
91.628	91.7928	79	69
91.628	91.7928	84	82
91.7378	91.8477	60	69
91.8477	91.9576	58	73
91.8477	92.0126	72	51
91.8477	92.0126	76	61
91.8477	92.0126	79	61
91.8477	92.0126	84	73
91.9576	92.0675	56	73
92.0675	92.1774	55	72
92.0675	92.2323	72	50
92.0675	92.2323	76	59
92.0675	92.2323	79	59
92.0675	92.2323	84	70
92.1774	92.2873	53	72
92.2873	92.3972	52	71
92.2873	92.4521	72	51
92.2873	92.4521	76	61
92.2873	92.4521	79	61
92.2873	92.4521	84	73
92.3972	92.5071	50	71
92.5071	92.617	48	70
92.5071	92.6719	72	51
92.5071	92.6719	76	60
92.5071	92.6719	79	60
92.5071	92.6719	84	71
92.617	92.7269	46	70
92.7269	93.2136	44	67
92.7269	93.2136	72	51
92.7269	93.2136	77	61
92.7269	93.2136	80	61
92.7269	93.2136	84	73
92.8623	93.2136	46	60
92.9687	93.2136	48	60
93.0753	93.2136	50	60
93.1822	93.387	52	71
93.2929	93.4036	53	65
93.4036	93.5143	55	73
93.4036	93.625	60	58
93.4036	93.625	65	69
93.4036	93.625	68	69
93.4036	93.625	72	82
93.5143	93.625	56	69
93.625	93.7357	55	73
93.625	93.8468	60	51
93.625	93.8468	64	61
93.625	93.8468	70	73
93.625	93.8468	72	73
93.7357	93.8468	53	73
93.8468	93.9585	52	72
93.8468	94.0705	60	50
93.8468	94.0705	64	59
93.8468	94.0705	70	70
93.8468	94.0705	72	70
93.9585	94.0705	50	72
94.0705	94.1832	48	71
94.0705	94.2962	60	51
94.0705	94.2962	64	61
94.0705	94.2962	70	73
94.0705	94.2962	72	73
94.1832	94.2962	46	71
94.2962	94.4099	44	70
94.2962	94.5241	60	51
94.2962	94.5241	64	60
94.2962	94.5241	70	71
94.2962	94.5241	72	71
94.4099	94.5241	43	70
94.5241	97.9465	30	76
94.5241	97.5156	42	78
94.5241	94.7526	60	63
94.5241	94.8602	63	75
94.5241	95.0747	69	89
94.5241	95.1817	72	89
94.6417	96.9814	57	70
94.7526	96.875	60	71
94.8602	96.769	63	72
94.9676	96.663	66	72
95.0747	96.5573	69	72
95.1817	96.4517	72	73
95.2885	96.3464	75	74
95.3951	96.2412	78	75
95.5015	96.136	81	77
95.6078	96.0308	84	79
95.7138	95.9253	87	81
95.8196	97.9465	90	83
95.9253	97.9465	87	83
96.0308	97.9465	84	82
96.136	97.9465	81	81
96.2412	97.9465	78	81
96.3464	97.9465	75	80
96.4517	97.9465	72	79
96.5573	97.9465	69	78
96.663	97.9465	66	77
96.769	97.9465	63	76
96.875	97.9465	60	75
96.9814	97.9465	57	69
97.0877	97.9465	54	68
97.1945	97.9465	51	68
97.3013	97.9465	48	67
97.4084	97.9465	45	66
97.5156	97.9465	42	66
97.6231	97.9465	39	65
97.7306	97.9465	36	64
97.8385	97.9465	33	63
97.9465	98.3828	30	60
98.0553	98.4193	33	59
98.1644	98.4193	36	58
98.2735	98.4193	39	57
98.3828	98.8214	30	56
98.4923	98.8269	33	54
98.6018	98.8269	36	53
98.7115	98.8269	39	52
98.8214	99.2621	30	51
98.9313	99.2988	33	47
99.0415	99.2988	36	47
99.1518	99.2988	39	47
99.2621	99.7051	30	52
99.3726	99.7051	33	47
99.4833	99.7051	36	46
99.594	99.7051	39	46
99.7051	100.121	29	39
99.8094	99.9135	57	40
99.9135	100.017	60	37
100.017	100.121	63	37
100.121	100.224	66	40
100.224	100.327	68	38
100.327	100.43	66	38
100.43	100.534	65	38
100.534	100.637	63	40
100.637	100.741	65	37
100.741	100.844	63	37
100.844	100.948	61	37
100.948	101.052	60	40
101.052	101.157	61	37
101.157	101.261	63	37
101.261	101.369	41	35
101.261	101.369	60	37
101.369	101.784	29	40
101.474	101.578	57	40
101.578	101.681	60	37
101.681	101.784	63	37
101.784	101.887	66	40
101.887	101.99	68	38
101.99	102.093	66	38
102.093	102.195	65	38
102.195	102.299	63	40
102.299	102.402	65	37
102.402	102.505	63	37
102.505	102.609	61	37
102.609	102.712	60	40
102.712	102.816	61	37
102.816	102.92	63	37
102.92	103.029	41	35
102.92	103.029	60	37
103.029	103.445	29	40
103.133	103.237	57	47
103.237	103.341	60	49
103.341	103.445	63	50
103.445	103.549	66	52
103.549	103.652	68	54
103.652	103.756	57	38
103.652	103.756	66	56
103.756	103.868	58	42
103.756	103.868	65	58
103.868	103.973	60	49
103.868	104.078	63	67
103.973	104.078	61	42
104.078	104.182	60	43
104.078	104.182	63	47
104.182	104.286	58	43
104.182	104.286	65	49
104.286	104.495	57	47
104.286	104.391	66	52
104.391	104.495	68	54
104.495	104.6	57	41
104.495	104.6	66	56
104.6	104.713	58	46
104.6	104.713	65	59
104.713	104.818	60	53
104.713	104.922	63	67
104.818	104.922	61	42
104.922	105.026	60	43
104.922	105.026	63	50
105.026	105.13	58	43
105.026	105.13	65	50
105.13	105.339	57	47
105.13	105.235	66	56
105.235	105.339	68	49
105.339	105.444	57	43
105.339	105.444	66	50
105.444	105.557	58	47
105.444	105.557	65	50
105.557	105.676	60	52
105.557	105.795	63	67
105.676	105.795	61	42
105.795	106.02	60	43
105.795	106.031	66	56
105.795	106.031	78	56
105.913	106.031	58	43
106.031	106.547	57	44
106.031	106.547	65	60
106.031	106.547	77	60
106.151	106.547	54	42
106.271	106.547	53	41
106.271	106.547	69	54
106.271	106.547	81	54
106.391	106.547	51	39
106.511	108.195	49	44
106.511	106.724	70	56
106.511	107.357	82	56
106.618	106.829	53	32
106.618	107.357	65	51
106.724	106.935	58	33
106.724	107.357	70	52
106.829	107.039	53	34
106.829	107.351	73	53
106.935	107.144	58	38
106.935	107.144	77	57
107.039	107.248	53	37
107.039	107.357	78	55
107.144	107.351	58	38
107.144	107.357	77	56
107.248	107.357	53	38
107.248	107.357	75	55
107.351	107.559	58	39
107.351	107.559	73	57
107.455	107.663	53	39
107.455	108.195	75	56
107.559	107.769	58	38
107.559	107.981	73	56
107.663	107.874	53	38
107.663	107.874	72	55
107.769	107.981	58	38
107.769	108.088	70	54
107.874	108.088	53	37
107.874	108.195	72	53
107.981	108.195	58	37
107.981	108.195	73	53
108.088	108.195	53	36
108.088	108.195	70	52
108.195	109.871	49	44
108.301	108.512	53	32
108.301	109.037	65	51
108.406	108.616	58	33
108.406	109.037	70	52
108.512	108.721	53	34
108.512	109.031	73	53
108.616	108.825	58	38
108.616	108.825	77	57
108.721	108.928	53	37
108.721	109.037	78	55
108.825	109.031	58	38
108.825	109.037	77	56
108.928	109.037	53	38
108.928	109.037	75	55
109.031	109.238	58	39
109.031	109.238	73	57
109.134	109.342	53	39
109.134	109.871	75	56
109.238	109.446	58	38
109.238	109.657	73	56
109.342	109.552	53	38
109.342	109.552	72	55
109.446	109.657	58	38
109.446	109.764	70	54
109.552	109.764	53	37
109.552	109.871	72	53
109.657	109.871	58	37
109.657	109.871	73	53
109.764	109.871	53	36
109.764	109.871	70	52
109.871	111.541	51	44
109.976	110.185	54	32
109.976	110.705	66	51
110.08	110.288	59	33
110.08	110.705	71	53
110.185	110.391	54	35
110.185	110.699	75	54
110.288	110.494	59	39
110.288	110.494	78	59
110.391	110.597	54	39
110.391	110.705	80	58
110.494	110.699	59	40
110.494	110.705	78	59
110.597	110.705	54	41
110.597	110.705	77	59
110.699	110.903	59	42
110.699	110.903	75	62
110.801	111.007	54	43
110.801	111.541	77	62
110.903	111.111	59	42
110.903	111.322	75	62
111.007	111.216	54	42
111.007	111.216	73	62
111.111	111.322	59	43
111.111	111.429	71	62
111.216	111.429	54	42
111.216	111.541	73	61
111.322	111.541	59	45
111.322	111.541	75	64
111.429	111.541	54	42
111.429	111.541	71	61
111.535	112.383	53	46
111.535	111.742	70	68
111.638	111.847	58	46
111.638	112.058	72	64
111.742	111.952	61	44
111.742	111.952	70	66
111.847	112.058	58	44
111.847	112.377	69	64
111.952	112.164	61	43
111.952	112.271	70	62
112.058	112.271	58	42
112.058	112.383	72	60
112.164	112.383	61	41
112.164	112.383	73	59
112.271	112.383	58	40
112.271	112.383	70	58
112.377	113.22	51	42
112.377	112.585	69	62
112.481	112.689	53	42
112.481	112.9	70	61
112.585	112.794	60	41
112.585	112.794	69	60
112.689	112.9	53	40
112.689	113.22	67	58
112.794	113.006	60	39
112.794	113.112	69	56
112.9	113.112	53	38
112.9	113.22	70	55
113.006	113.22	60	38
113.006	113.22	72	54
113.112	113.22	53	36
113.112	113.22	69	53
113.22	114.061	49	48
113.22	113.43	70	61
113.325	113.847	65	48
113.43	114.061	70	57
113.534	114.055	73	58
113.639	114.061	58	58
113.639	113.847	77	62
113.743	113.951	61	40
113.743	114.061	78	60
113.847	114.061	65	41
113.847	114.061	77	61
113.951	114.061	61	41
113.951	114.061	75	60
114.055	114.897	57	62
114.055	114.263	73	62
114.158	114.367	61	42
114.158	114.897	75	61
114.263	114.683	65	41
114.263	114.683	73	61
114.367	114.577	61	41
114.367	114.577	72	60
114.472	114.897	58	54
114.472	114.789	70	69
114.472	114.897	82	69
114.577	114.789	61	40
114.577	114.897	72	58
114.683	114.897	65	40
114.683	114.897	73	59
114.789	114.897	61	40
114.789	114.897	70	58
114.897	115.74	49	49
114.897	115.74	81	71
115.003	115.527	65	50
115.108	115.74	70	60
115.214	115.734	73	62
115.318	115.74	58	65
115.318	115.527	77	69
115.318	115.74	82	69
115.423	115.631	61	43
115.423	115.74	78	65
115.527	115.74	65	45
115.527	115.74	77	67
115.631	115.74	61	45
115.631	115.74	75	66
115.734	116.578	57	70
115.734	115.942	73	69
115.838	116.046	61	47
115.838	116.578	75	68
115.942	116.363	65	46
115.942	116.363	73	69
116.046	116.257	61	47
116.046	116.257	72	69
116.151	116.578	58	72
116.151	116.47	70	68
116.151	116.578	82	82
116.257	116.47	61	46
116.257	116.578	72	67
116.363	116.578	65	47
116.363	116.578	73	68
116.47	116.578	61	46
116.47	116.578	70	67
116.578	117.005	51	70
116.578	116.682	71	88
116.578	116.786	83	88
116.682	116.889	66	55
116.682	116.889	71	55
116.682	117.005	78	74
116.786	116.993	63	59
116.786	117.005	83	76
116.889	117.005	66	55
116.889	117.005	71	55
116.889	117.005	87	78
116.993	117.198	63	59
116.993	117.198	90	80
117.096	117.301	66	55
117.096	117.301	71	55
117.096	117.432	92	76
117.198	117.403	63	59
117.198	117.432	90	76
117.301	117.432	66	56
117.301	117.432	71	56
117.301	117.432	89	76
117.403	117.605	63	59
117.403	117.605	87	77
117.504	117.707	66	55
117.504	117.707	71	55
117.504	117.857	89	71
117.605	117.809	63	59
117.605	117.857	87	72
117.707	117.857	66	55
117.707	117.857	71	55
117.707	117.857	85	72
117.809	118.015	63	59
117.809	118.015	83	78
117.912	118.118	66	55
117.912	118.118	71	55
117.912	118.251	85	73
118.015	118.251	63	59
118.015	118.251	83	73
118.118	118.251	66	56
118.118	118.251	71	56
118.118	118.251	82	72
118.222	118.43	65	59
118.222	118.685	81	77
118.326	118.533	69	55
118.326	118.533	72	55
118.326	118.533	75	55
118.326	118.636	84	71
118.43	118.636	65	59
118.43	118.685	87	72
118.533	118.685	69	55
118.533	118.685	72	55
118.533	118.685	75	55
118.533	118.685	85	72
118.636	118.842	65	59
118.636	118.842	84	78
118.739	118.946	69	55
118.739	118.946	72	55
118.739	118.946	75	55
118.739	119.081	85	73
118.842	119.051	65	59
118.842	119.081	84	73
118.946	119.081	69	55
118.946	119.081	72	56
118.946	119.081	75	56
118.946	119.081	82	72
119.051	119.26	65	59
119.051	119.26	81	77
119.156	119.365	69	55
119.156	119.519	82	71
119.26	119.519	65	59
119.26	119.519	81	72
119.365	119.519	69	55
119.365	119.519	78	72
119.47	119.68	53	59
119.47	119.911	77	74
119.575	119.786	65	50
119.575	119.911	75	71
119.68	119.911	53	57
119.68	119.911	73	71
119.786	119.911	65	49
119.786	119.911	72	69
119.892	120.115	46	59
119.892	120.003	70	73
120.115	120.327	58	44
120.115	120.327	61	44
120.115	120.539	77	74
120.221	120.433	65	38
120.327	120.539	58	44
120.327	120.539	61	44
120.433	120.645	65	38
120.539	120.657	58	44
120.539	120.657	61	44
120.539	120.657	77	61
120.645	120.751	65	38
120.751	120.86	58	44
120.751	120.86	61	44
120.751	120.86	77	61
120.86	120.968	65	38
120.968	121.18	58	44
120.968	121.18	61	44
120.968	121.392	78	72
121.074	121.286	64	38
121.18	121.392	58	44
121.18	121.392	61	44
121.286	121.498	64	38
121.392	121.543	58	44
121.392	121.543	61	44
121.392	121.543	78	60
121.498	121.604	64	38
121.604	121.715	57	44
121.604	121.715	60	44
121.604	121.715	78	59
121.715	121.826	64	38
121.826	122.038	57	44
121.826	122.038	60	44
121.826	122.25	77	73
121.932	122.144	65	38
122.038	122.25	57	44
122.038	122.25	60	44
122.144	122.356	65	38
122.25	122.376	57	44
122.25	122.376	60	44
122.25	122.376	77	63
122.356	122.462	65	38
122.462	122.572	57	44
122.462	122.572	60	44
122.462	122.572	77	65
122.572	122.682	65	38
122.682	122.789	57	44
122.682	122.789	60	44
122.682	122.789	72	61
122.789	122.896	65	38
122.896	123.003	57	44
122.896	123.003	60	44
122.896	123.003	73	61
123.003	123.109	65	38
123.109	123.216	57	44
123.109	123.216	60	44
123.109	123.216	75	61
123.216	123.323	65	38
123.323	123.434	58	44
123.323	123.434	61	44
123.323	123.434	73	65
123.434	123.546	65	38
123.546	123.758	58	58
123.546	123.758	61	58
123.546	123.97	77	73
123.546	123.97	89	80
123.652	123.864	65	51
123.758	123.97	58	58
123.758	123.97	61	58
123.864	124.076	65	51
123.97	124.088	58	58
123.97	124.088	61	58
123.97	124.088	77	68
123.97	124.088	89	74
124.076	124.182	65	51
124.182	124.291	58	58
124.182	124.291	61	58
124.182	124.291	77	68
124.182	124.291	89	74
124.291	124.399	65	51
124.399	124.611	58	58
124.399	124.611	61	58
124.399	124.823	78	74
124.399	124.823	90	81
124.505	124.717	64	51
124.611	124.823	58	58
124.611	124.823	61	58
124.717	124.929	64	51
124.823	124.974	58	58
124.823	124.974	61	58
124.823	124.974	78	67
124.823	124.974	90	73
124.929	125.035	64	51
125.035	125.146	57	58
125.035	125.146	60	58
125.035	125.146	78	66
125.035	125.146	90	72
125.146	125.257	64	51
125.257	125.469	57	58
125.257	125.469	60	58
125.257	125.681	77	75
125.257	125.681	89	82
125.363	125.575	65	51
125.469	125.681	57	58
125.469	125.681	60	58
125.575	125.787	65	51
125.681	125.807	57	58
125.681	125.807	60	58
125.681	125.807	77	70
125.681	125.807	89	77
125.787	125.893	65	51
125.893	126.003	57	58
125.893	126.003	60	58
125.893	126.003	77	73
125.893	126.003	89	80
126.003	126.113	65	51
126.113	126.22	57	58
126.113	126.22	60	58
126.113	126.22	72	68
126.113	126.22	84	74
126.22	126.327	65	51
126.327	126.434	57	58
126.327	126.434	60	58
126.327	126.434	73	68
126.327	126.434	85	74
126.434	126.54	65	51
126.54	126.647	57	58
126.54	126.647	60	58
126.54	126.647	75	68
126.54	126.647	87	74
126.647	126.754	65	51
126.754	126.866	58	58
126.754	126.866	61	58
126.754	126.866	73	73
126.754	126.866	85	80
126.866	126.977	65	51
126.977	127.189	52	44
126.977	127.189	55	44
126.977	127.401	72	72
127.083	127.295	60	38
127.189	127.401	52	44
127.189	127.401	55	44
127.295	127.507	60	38
127.401	127.519	52	44
127.401	127.519	55	44
127.401	127.519	72	61
127.507	127.613	60	38
127.613	127.722	53	44
127.613	127.722	56	44
127.613	127.722	72	61
127.722	127.83	60	38
127.83	128.042	53	44
127.83	128.042	56	44
127.83	128.254	71	72
127.936	128.148	62	38
128.042	128.254	53	44
128.042	128.254	56	44
128.148	128.36	62	38
128.254	128.406	53	44
128.254	128.406	56	44
128.254	128.406	71	60
128.36	128.466	62	38
128.466	128.577	52	44
128.466	128.577	55	44
128.466	128.577	71	59
128.577	128.688	62	38
128.688	128.9	52	44
128.688	128.9	55	44
128.688	129.112	72	71
128.794	129.006	60	38
128.9	129.112	52	44
128.9	129.112	55	44
129.006	129.218	60	38
129.112	129.238	52	44
129.112	129.238	55	44
129.112	129.238	72	63
129.218	129.324	60	38
129.324	129.434	52	44
129.324	129.434	55	44
129.324	129.434	72	65
129.434	129.544	60	38
129.544	129.651	52	44
129.544	129.651	55	44
129.544	129.651	67	61
129.651	129.758	60	38
129.758	129.865	52	44
129.758	129.865	55	44
129.758	129.865	68	61
129.865	129.972	60	38
129.972	130.078	52	44
129.972	130.078	55	44
129.972	130.078	70	61
130.078	130.185	60	38
130.185	130.297	53	44
130.185	130.297	56	44
130.185	130.297	68	65
130.297	130.408	60	38
130.408	130.62	53	58
130.408	130.62	56	58
130.408	130.832	72	73
130.408	130.832	84	80
130.514	130.726	60	51
130.62	130.832	53	58
130.62	130.832	56	58
130.726	130.938	60	51
130.832	130.95	53	58
130.832	130.95	56	58
130.832	130.95	72	68
130.832	130.95	84	74
130.938	131.044	60	51
131.044	131.153	53	58
131.044	131.153	56	58
131.044	131.153	72	68
131.044	131.153	84	74
131.153	131.262	60	51
131.262	131.474	53	58
131.262	131.474	56	58
131.262	131.686	71	74
131.262	131.686	83	81
131.368	131.58	62	51
131.474	131.686	53	58
131.474	131.686	56	58
131.58	131.792	62	51
131.686	131.837	53	58
131.686	131.837	56	58
131.686	131.837	71	67
131.686	131.837	83	73
131.792	131.898	62	51
131.898	132.008	52	58
131.898	132.008	55	58
131.898	132.008	71	66
131.898	132.008	83	72
132.008	132.119	62	51
132.119	132.331	52	58
132.119	132.331	55	58
132.119	132.543	72	75
132.119	132.543	84	82
132.225	132.437	60	51
132.331	132.543	52	58
132.331	132.543	55	58
132.437	132.649	60	51
132.543	132.669	52	58
132.543	132.669	55	58
132.543	132.669	72	70
132.543	132.669	84	77
132.649	132.755	60	51
132.755	132.865	52	58
132.755	132.865	55	58
132.755	132.865	72	73
132.755	132.865	84	80
132.865	132.976	60	51
132.976	133.082	52	58
132.976	133.082	55	58
132.976	133.082	67	68
132.976	133.082	79	74
133.082	133.189	60	51
133.189	133.296	52	58
133.189	133.296	55	58
133.189	133.296	68	68
133.189	133.296	80	74
133.296	133.403	60	51
133.403	133.509	52	58
133.403	133.509	55	58
133.403	133.509	70	68
133.403	133.509	82	74
133.509	133.616	60	51
133.616	134.139	41	61
133.616	134.139	44	61
133.616	134.139	48	61
133.616	134.139	53	72
133.616	133.965	68	73
133.616	134.139	80	80
133.753	134.139	60	70
133.859	134.139	65	72
133.965	134.139	68	74
134.07	134.281	72	76
134.176	134.49	48	56
134.176	134.49	73	72
134.281	134.49	53	58
134.281	134.49	72	72
134.386	134.49	56	60
134.386	134.49	70	72
134.49	134.699	60	66
134.49	134.699	68	73
134.595	134.903	61	60
134.595	134.903	70	67
134.699	134.903	60	61
134.699	134.903	68	69
134.804	134.909	58	61
134.804	134.909	67	69
134.909	135.225	56	67
134.909	135.225	65	75
135.014	135.331	58	60
135.014	135.385	67	70
135.119	135.385	60	60
135.119	135.385	68	70
135.225	135.385	56	60
135.225	135.385	65	70
135.331	135.546	58	72
135.331	135.546	66	75
135.44	135.825	60	60
135.44	135.825	61	72
135.546	135.825	58	60
135.546	135.825	66	74
135.651	135.825	56	60
135.651	135.825	70	76
135.757	135.968	54	68
135.757	135.968	73	78
135.862	136.177	49	57
135.862	136.177	75	75
135.968	136.177	54	60
135.968	136.177	73	75
136.072	136.177	58	62
136.072	136.177	72	75
136.177	136.386	61	69
136.177	136.386	70	76
136.281	136.59	63	63
136.281	136.59	72	70
136.386	136.59	61	63
136.386	136.59	70	71
136.49	136.595	60	63
136.49	136.595	68	71
136.595	136.911	58	69
136.595	136.911	66	76
136.7	137.017	60	62
136.7	137.017	68	73
136.806	137.017	61	62
136.806	137.017	70	73
136.911	137.017	58	62
136.911	137.017	66	72
137.017	137.231	60	74
137.017	137.231	69	77
137.125	137.51	61	62
137.125	137.51	63	74
137.231	137.51	60	63
137.231	137.51	69	76
137.336	137.51	58	63
137.336	137.51	72	78
137.442	137.653	57	70
137.442	137.653	75	80
137.547	137.862	51	59
137.547	137.862	77	76
137.653	137.862	57	62
137.653	137.862	75	76
137.757	137.862	60	65
137.757	137.862	73	77
137.862	138.071	63	71
137.862	138.071	72	78
137.966	138.275	65	65
137.966	138.275	73	72
138.071	138.275	63	65
138.071	138.275	72	73
138.175	138.28	61	65
138.175	138.28	70	73
138.28	138.596	60	72
138.28	138.596	69	80
138.385	138.702	61	64
138.385	138.702	70	75
138.491	138.702	63	64
138.491	138.702	72	75
138.596	138.702	60	64
138.596	138.702	69	74
138.702	139.021	61	70
138.702	138.916	70	90
138.81	139.195	53	59
138.81	139.127	65	76
138.916	139.195	58	63
138.916	139.195	70	79
139.021	139.195	61	66
139.021	139.195	73	82
139.127	139.338	65	65
139.127	139.338	77	83
139.232	139.547	66	65
139.232	139.547	78	83
139.338	139.547	65	65
139.338	139.547	77	82
139.442	139.547	63	64
139.442	139.547	75	82
139.547	139.973	61	64
139.547	139.973	73	81
139.651	139.973	60	64
139.651	139.973	72	81
139.755	139.973	58	63
139.755	139.973	70	80
139.86	139.973	56	63
139.86	139.973	68	80
139.964	140.38	54	62
139.964	140.38	66	79
140.068	140.38	53	62
140.068	140.38	65	79
140.172	140.38	51	62
140.172	140.38	63	78
140.276	140.38	49	61
140.276	140.38	61	78
140.38	140.797	48	61
140.38	140.797	60	77
140.485	140.797	46	61
140.485	140.797	58	77
140.589	140.797	44	60
140.589	140.797	56	76
140.693	140.797	42	60
140.693	140.797	54	76
140.797	141.214	41	59
140.797	141.214	53	73
140.901	141.214	39	59
140.901	141.214	51	73
141.005	141.214	37	59
141.005	141.214	49	74
141.11	141.214	36	59
141.11	141.214	48	76
141.214	141.569	34	59
141.214	141.526	46	78
141.318	141.526	36	59
141.318	141.569	48	79
141.422	141.569	37	62
141.422	141.569	49	81
141.526	141.63	36	64
141.526	141.63	46	82
141.63	141.878	34	65
141.63	141.878	46	82
141.878	142.206	35	72
141.878	142.206	47	77
141.878	142.206	50	77
141.878	142.206	53	77
141.878	142.206	56	90
142.206	142.314	36	89
142.206	142.314	48	82
142.206	142.314	52	82
142.206	142.314	55	98
142.314	142.421	48	66
142.314	142.421	60	66
142.421	142.529	40	76
142.529	142.636	48	66
142.529	142.636	60	66
142.636	142.743	36	76
142.743	142.85	48	66
142.743	142.85	60	66
142.85	142.957	41	76
142.957	143.064	48	66
142.957	143.064	60	66
143.064	143.171	36	76
143.171	143.278	48	66
143.171	143.278	60	66
143.278	143.384	43	76
143.384	143.49	48	66
143.384	143.49	60	66
143.49	143.597	36	76
143.597	143.703	48	66
143.597	143.703	60	66
143.703	143.809	44	76
143.809	143.915	48	66
143.809	143.915	60	66
143.915	144.339	36	74
144.021	144.233	60	64
144.021	144.233	72	64
144.127	144.351	46	74
144.233	144.351	60	64
144.233	144.351	72	64
144.339	144.763	36	75
144.445	144.657	60	65
144.445	144.657	72	65
144.551	144.763	44	76
144.657	144.763	60	66
144.657	144.763	72	66
144.763	145.187	36	77
144.869	145.081	60	64
144.869	145.081	72	64
144.975	145.224	43	78
145.081	145.224	60	64
145.081	145.224	72	64
145.187	145.611	36	79
145.293	145.505	60	65
145.293	145.505	72	65
145.399	145.62	41	80
145.505	145.62	60	66
145.505	145.62	72	66
145.611	146.032	36	81
145.716	145.926	72	67
145.716	145.926	84	67
145.821	146.067	40	82
145.926	146.067	72	68
145.926	146.067	84	68
146.032	146.459	36	82
146.138	146.351	72	69
146.138	146.351	84	69
146.245	146.459	41	83
146.351	146.459	72	70
146.351	146.459	84	70
146.459	146.891	36	84
146.566	146.782	72	71
146.566	146.782	84	71
146.674	146.981	43	85
146.782	146.981	72	72
146.782	146.981	84	72
146.891	147.0	36	86
147.0	147.219	72	73
147.0	147.219	84	73
147.109	147.339	44	87
147.219	147.339	72	74
147.219	147.339	84	74
147.329	147.772	36	88
147.439	147.661	84	75
147.439	147.661	96	75
147.55	147.819	45	89
147.661	147.819	84	76
147.661	147.819	96	76
147.772	148.22	36	91
147.883	148.108	84	78
147.883	148.108	96	78
147.995	148.22	46	92
148.108	148.22	84	81
148.108	148.22	96	81
148.22	148.673	36	94
148.333	148.56	84	82
148.333	148.56	96	82
148.446	148.717	47	96
148.56	148.717	84	84
148.56	148.717	96	84
148.673	149.185	36	99
148.788	149.047	84	86
148.788	149.047	96	86
148.91	149.185	48	101
149.047	149.185	84	88
149.047	149.185	96	88
149.185	151.621	34	86
149.185	151.621	37	86
149.185	151.621	42	86
149.185	149.725	46	102
149.296	149.832	49	72
149.403	149.939	54	75
149.51	150.051	58	76
149.618	150.158	61	90
149.725	151.621	46	71
149.832	151.621	49	74
149.939	151.621	54	76
150.051	150.587	58	91
150.158	150.694	61	72
150.265	150.801	66	75
150.372	150.913	70	76
150.48	151.021	73	88
150.587	151.621	58	73
150.694	151.621	61	76
150.801	151.621	66	78
150.913	151.621	70	86
151.021	151.621	73	77
151.13	151.621	78	79
151.24	151.621	82	81
151.351	151.621	85	89
152.636	155.127	36	79
152.636	155.127	43	79
152.636	155.127	46	94
152.636	153.172	48	97
152.744	155.127	52	72
152.851	153.279	55	75
152.958	153.386	58	76
153.065	153.606	64	89
153.172	155.127	48	71
153.279	155.127	55	74
153.386	155.127	58	76
153.499	154.035	60	90
153.606	155.127	64	72
153.713	154.142	67	75
153.821	154.249	70	76
153.928	154.469	76	87
154.035	155.127	60	73
154.142	155.127	67	76
154.249	155.127	70	78
154.361	155.127	72	89
154.469	155.127	76	77
154.577	155.127	79	79
154.686	155.127	82	81
154.796	155.127	88	93
156.081	157.386	37	58
156.224	157.386	49	50
156.367	157.386	52	50
156.51	157.386	55	50
156.617	157.386	58	54
156.726	157.386	61	51
156.835	157.386	64	53
156.945	157.386	67	54
157.802	159.109	40	55
157.945	159.109	52	47
158.088	159.109	55	47
158.231	159.109	58	47
158.338	159.109	61	51
158.447	159.109	64	48
158.557	159.109	67	50
158.668	159.109	70	51
159.525	160.823	43	52
159.668	160.823	55	44
159.811	160.823	58	44
159.954	160.823	61	44
160.061	160.823	64	48
160.168	160.823	67	45
160.275	160.823	70	47
160.382	160.823	73	48
161.239	162.537	46	49
161.382	162.537	58	41
161.525	162.537	61	41
161.668	162.537	64	41
161.775	162.537	67	45
161.882	162.537	70	42
161.989	162.537	73	44
162.096	162.537	76	45
162.954	169.382	49	40
163.168	169.168	52	36
163.382	168.953	55	36
163.596	168.739	58	36
163.811	168.525	61	35
164.025	168.311	64	36
164.239	168.096	67	37
164.454	167.882	70	38
164.668	167.668	73	39
164.882	167.453	76	40
165.096	167.239	79	40
165.311	167.025	82	41
165.525	166.811	85	42
165.739	166.596	88	43
165.954	166.382	91	44
166.168	173.239	94	46
166.382	173.239	91	46
166.596	173.239	88	45
166.811	173.239	85	45
167.025	173.239	82	44
167.239	173.239	79	44
167.453	173.239	76	43
167.668	173.239	73	43
167.882	173.239	70	42
168.096	173.239	67	42
168.311	173.239	64	41
168.525	173.239	61	40
168.739	173.239	58	38
168.953	173.239	55	38
169.168	173.239	52	37
169.382	173.239	49	36
169.596	173.239	46	35
169.811	173.239	43	35
170.668	173.239	40	36
171.525	173.239	37	35
172.382	173.239	34	34
173.239	174.953	31	34
174.953	179.989	36	34
174.953	179.239	43	34
174.953	179.239	46	34
174.953	179.239	48	34
174.953	179.239	52	34
176.668	180.096	55	34
176.668	180.096	58	34
176.668	180.096	60	34
176.668	180.096	64	34
177.525	180.096	67	34
177.525	180.096	70	34
177.525	180.096	72	34
177.525	180.096	76	34
178.382	180.096	79	34
178.382	180.096	82	34
178.382	180.096	84	34
178.382	180.096	88	34
179.239	180.096	43	34
179.239	180.096	46	34
179.239	180.096	48	34
179.239	180.096	52	34
179.989	180.096	36	34
180.096	180.512	29	39
180.096	180.512	41	39
180.201	180.305	48	40
180.305	180.408	53	37
180.408	180.512	56	37
180.512	180.615	60	40
180.615	180.718	61	38
180.718	180.821	60	38
180.821	180.925	58	38
180.925	181.028	56	40
181.028	181.132	58	37
181.132	181.236	56	37
181.236	181.339	55	37
181.339	181.444	53	40
181.444	181.548	55	37
181.548	181.652	56	37
181.652	181.761	53	37
181.761	182.178	29	40
181.761	182.178	41	40
181.865	181.969	48	40
181.969	182.073	53	37
182.073	182.178	56	37
182.178	182.282	60	40
182.282	182.386	61	38
182.386	182.492	60	38
182.492	182.598	58	38
182.492	182.598	68	51
182.492	182.598	72	51
182.598	182.702	56	40
182.598	183.014	68	56
182.598	183.014	72	56
182.702	182.806	58	37
182.806	182.91	56	37
182.91	183.014	55	37
183.014	183.118	53	40
183.014	183.223	65	30
183.014	183.223	68	30
183.118	183.223	55	37
183.223	183.327	56	37
183.327	183.436	53	37
183.436	183.853	34	40
183.436	183.853	46	40
183.54	183.644	49	44
183.644	183.748	54	40
183.748	183.853	58	40
183.853	183.957	61	44
183.957	184.061	63	41
184.061	184.167	61	41
184.167	184.273	60	41
184.167	184.273	70	63
184.167	184.273	73	63
184.273	184.378	58	44
184.273	185.111	70	70
184.273	185.111	73	70
184.378	184.482	60	40
184.482	184.586	58	40
184.586	184.69	56	40
184.69	184.794	54	44
184.794	184.898	56	40
184.898	185.002	54	40
185.002	185.111	53	40
185.111	185.217	52	44
185.111	185.322	70	51
185.111	185.322	72	51
185.217	185.322	53	40
185.322	185.536	36	43
185.322	185.536	48	43
185.322	185.427	55	40
185.427	185.536	52	40
185.536	185.642	53	44
185.642	185.747	55	40
185.747	185.962	37	37
185.747	185.962	49	37
185.747	185.853	56	40
185.853	185.962	53	40
185.962	186.068	55	44
186.068	186.174	56	40
186.174	186.389	34	39
186.174	186.389	46	39
186.174	186.281	58	40
186.281	186.389	55	40
186.389	186.495	52	44
186.495	186.601	53	37
186.601	186.815	36	35
186.601	186.815	48	35
186.601	186.707	55	38
186.707	186.815	52	40
186.815	186.95	29	40
186.815	186.95	41	40
186.815	187.054	53	38
186.95	187.054	48	37
187.054	187.26	53	37
187.157	187.26	56	40
187.26	187.363	60	38
187.363	187.467	61	38
187.467	187.573	60	38
187.467	187.573	64	57
187.573	187.679	58	40
187.679	187.786	56	37
187.679	187.786	65	62
187.786	187.892	58	37
187.892	187.999	56	37
187.892	187.999	67	57
187.999	188.103	55	40
188.103	188.208	53	37
188.103	188.208	68	62
188.208	188.313	55	37
188.313	188.422	56	37
188.313	188.422	65	59
188.422	188.526	53	37
188.526	188.63	56	40
188.63	188.734	48	37
188.734	188.839	53	37
188.839	188.943	56	40
188.943	189.047	60	38
189.047	189.153	61	38
189.153	189.26	60	38
189.153	189.26	64	52
189.153	189.26	76	60
189.26	189.366	58	40
189.366	189.473	56	37
189.366	189.473	65	57
189.366	189.473	77	66
189.473	189.58	58	37
189.58	189.686	56	37
189.58	189.686	67	53
189.58	189.686	79	63
189.686	189.792	55	40
189.792	189.898	53	37
189.792	189.898	68	57
189.792	189.898	80	68
189.898	190.004	55	37
190.004	190.113	56	37
190.004	190.113	65	53
190.004	190.113	77	63
190.113	190.217	53	37
190.217	190.321	58	44
190.321	190.426	49	40
190.426	190.53	54	40
190.53	190.634	58	44
190.634	190.738	61	41
190.738	190.844	63	41
190.844	191.067	61	41
190.844	191.067	65	59
190.844	191.067	77	71
190.956	191.067	60	44
191.067	191.289	58	40
191.067	191.515	66	63
191.067	191.515	78	77
191.178	191.515	60	40
191.289	191.515	58	40
191.289	191.515	70	66
191.289	191.515	82	79
191.399	191.515	56	44
191.51	191.734	54	40
191.51	191.734	73	69
191.51	191.734	85	81
191.621	191.959	56	40
191.734	191.959	54	40
191.734	191.959	73	66
191.734	191.959	85	79
191.847	191.959	53	44
191.959	192.417	52	40
191.959	192.417	73	71
191.959	192.417	85	83
192.069	192.417	53	40
192.179	192.417	55	40
192.287	192.417	56	44
192.396	192.832	58	40
192.396	193.287	72	64
192.396	193.287	84	78
192.504	192.832	56	40
192.613	192.832	55	40
192.723	192.832	53	44
192.832	193.052	52	40
192.942	193.287	53	40
193.052	193.287	52	40
193.162	193.287	49	44
193.272	193.746	48	37
193.272	193.746	64	64
193.272	193.746	76	64
193.382	193.746	46	38
193.491	193.746	44	40
193.601	193.746	43	40
193.711	194.588	41	44
193.711	193.921	65	57
193.711	194.588	77	57
193.816	194.234	60	41
193.921	194.339	65	44
194.026	194.443	68	46
194.13	194.588	72	43
194.234	194.588	60	45
194.339	194.588	65	46
194.443	194.551	53	52
194.443	194.551	56	52
194.443	194.588	68	48
194.551	195.28	53	65
194.551	195.28	56	65
194.655	195.072	60	46
194.759	195.176	65	47
194.864	195.28	68	49
194.968	195.388	72	50
195.072	195.388	60	52
195.176	195.388	65	53
195.28	195.388	53	54
195.28	195.388	56	54
195.28	195.388	68	38
195.388	196.238	48	66
195.388	196.238	53	66
195.388	196.238	56	66
195.493	195.917	59	51
195.599	196.023	62	52
195.704	196.131	68	52
195.81	196.238	71	54
195.917	196.238	59	52
196.023	196.238	62	52
196.131	196.238	68	52
196.238	196.69	48	48
196.238	196.69	52	48
196.238	196.69	55	48
196.238	196.69	71	54
196.345	196.69	59	52
196.452	196.69	64	50
196.558	196.69	67	49
196.664	197.083	72	52
196.77	197.083	60	46
196.875	197.083	64	44
196.979	197.083	67	38
197.083	197.921	36	42
197.083	197.921	48	42
197.187	197.604	60	38
197.292	197.708	64	40
197.396	197.812	67	42
197.5	197.921	72	43
197.604	197.921	60	45
197.708	197.921	64	46
197.812	197.921	55	60
197.812	197.921	58	60
197.812	197.921	67	48
197.921	198.65	55	68
197.921	198.65	58	68
198.025	198.442	60	46
198.129	198.546	64	47
198.233	198.65	67	49
198.337	198.758	72	50
198.442	198.758	60	52
198.546	198.758	64	53
198.65	198.758	55	61
198.65	198.758	58	61
198.65	198.758	67	38
198.758	199.607	53	58
198.758	199.607	55	58
198.758	199.607	58	69
198.864	199.286	60	51
198.969	199.393	64	52
199.074	199.5	67	52
199.18	199.607	72	54
199.286	199.607	60	52
199.393	199.607	64	52
199.5	199.607	67	52
199.607	200.03	53	47
199.607	200.03	56	52
199.607	200.03	72	53
199.713	200.03	60	52
199.819	200.03	64	50
199.925	200.03	67	49
200.03	200.449	72	47
200.136	200.449	60	46
200.24	200.449	65	44
200.345	200.449	68	38
200.449	201.286	41	45
200.449	201.286	53	45
200.553	200.97	65	38
200.657	201.074	69	40
200.761	201.178	72	42
200.865	201.286	77	43
200.97	201.286	65	45
201.074	201.286	69	46
201.178	201.286	60	59
201.178	201.286	63	59
201.178	201.286	72	48
201.286	202.015	60	68
201.286	202.015	63	68
201.391	201.807	65	46
201.495	201.911	69	47
201.599	202.015	72	49
201.703	202.124	77	50
201.807	202.124	65	52
201.911	202.124	69	53
202.015	202.124	60	66
202.015	202.124	63	66
202.015	202.124	72	54
202.124	203.176	58	72
202.124	203.176	60	72
202.124	203.176	63	72
202.229	202.651	65	50
202.335	202.757	69	50
202.44	202.862	72	50
202.546	202.968	77	55
202.651	202.942	65	53
202.757	202.942	69	52
202.862	202.968	72	52
202.968	203.072	65	54
202.968	203.072	69	54
203.072	203.176	77	54
203.176	203.387	58	64
203.176	203.387	61	64
203.176	203.281	65	53
203.176	203.281	70	53
203.281	203.387	77	52
203.387	203.599	56	61
203.387	203.599	60	61
203.387	203.493	65	52
203.387	203.493	72	52
203.493	203.599	77	51
203.599	203.811	55	59
203.599	203.811	58	59
203.599	203.705	65	50
203.599	203.705	73	50
203.705	203.811	77	50
203.811	204.65	48	56
203.811	204.54	53	56
203.811	204.54	56	56
203.915	204.332	60	52
204.019	204.436	65	49
204.123	204.54	68	50
204.228	204.65	72	56
204.332	204.65	60	50
204.436	204.65	65	50
204.54	204.65	53	56
204.54	204.65	56	56
204.54	204.65	68	50
204.65	205.488	48	63
204.65	205.379	55	63
204.65	205.488	58	63
204.65	205.066	72	56
204.754	205.17	60	52
204.858	205.379	67	52
204.962	205.488	70	52
205.066	205.488	72	56
205.17	205.488	60	52
205.275	205.488	64	52
205.379	205.488	52	53
205.379	205.488	55	53
205.379	205.488	67	52
205.488	205.801	53	56
205.488	205.593	60	59
205.488	206.345	65	59
205.488	206.345	68	59
205.488	206.345	72	59
205.593	206.345	60	49
205.697	206.009	56	49
205.801	206.113	53	49
205.905	206.217	48	53
206.009	206.345	56	49
206.113	206.345	53	49
206.217	206.345	48	49
206.217	206.326	77	69
206.217	206.326	80	69
206.326	206.639	44	53
206.326	207.055	77	74
206.326	207.055	80	74
206.431	207.164	53	49
206.535	206.847	48	49
206.639	206.951	44	49
206.743	207.055	41	53
206.847	207.164	48	49
206.951	207.164	44	49
207.055	207.164	41	49
207.055	207.164	77	70
207.055	207.164	80	70
207.164	207.597	36	53
207.164	208.01	77	75
207.164	208.01	80	75
207.268	207.597	41	49
207.373	207.597	44	49
207.477	207.597	48	49
207.582	207.791	47	53
207.686	207.895	48	49
207.791	208.0	47	49
207.895	208.01	48	49
208.0	208.836	47	53
208.0	208.836	76	68
208.0	208.836	79	68
208.104	208.314	48	49
208.209	208.627	43	49
208.314	208.523	48	49
208.418	208.836	40	53
208.523	208.732	48	49
208.627	208.836	43	49
208.732	208.836	48	49
208.836	209.692	36	56
208.94	209.253	40	49
209.044	209.357	43	49
209.149	209.461	48	49
209.253	209.692	40	53
209.357	209.674	43	49
209.461	209.692	48	49
209.565	209.692	52	49
209.565	209.674	79	75
209.565	209.674	82	75
209.674	210.511	43	53
209.674	210.403	79	81
209.674	210.403	82	81
209.778	210.091	48	49
209.882	210.195	52	49
209.987	210.299	55	49
210.091	210.511	48	53
210.195	210.511	52	49
210.299	210.511	55	49
210.403	210.511	60	49
210.403	210.511	79	77
210.403	210.511	82	77
210.511	210.944	53	59
210.511	211.357	79	82
210.511	211.357	82	82
210.616	210.944	56	49
210.72	210.944	60	49
210.825	210.944	65	49
210.93	211.139	64	53
211.034	211.243	65	49
211.139	211.348	64	49
211.243	211.357	65	49
211.348	212.184	64	53
211.348	212.184	77	74
211.348	212.184	80	74
211.452	211.661	65	49
211.557	211.975	60	49
211.661	211.87	65	49
211.766	212.184	56	53
211.87	212.079	65	49
211.975	212.184	60	49
212.079	212.184	65	49
212.184	213.04	53	61
212.288	212.6	57	53
212.392	212.705	60	53
212.496	212.809	65	53
212.6	213.04	57	58
212.705	213.022	60	53
212.809	213.04	65	53
212.913	213.04	69	53
212.913	213.022	84	82
212.913	213.022	87	82
213.022	213.859	60	58
213.022	213.751	84	89
213.022	213.751	87	89
213.126	213.438	65	53
213.23	213.543	69	53
213.334	213.647	72	53
213.438	213.859	65	58
213.543	213.859	69	53
213.647	213.859	72	53
213.751	213.859	77	53
213.751	213.859	84	84
213.751	213.859	87	84
213.859	214.277	69	67
213.859	215.115	84	90
213.859	215.554	87	90
213.964	214.173	77	53
214.068	214.292	76	53
214.173	214.292	77	53
214.277	214.486	69	58
214.382	214.591	77	53
214.486	214.695	69	53
214.591	214.705	77	53
214.695	215.554	69	57
214.8	215.01	77	56
214.904	215.554	70	56
214.904	215.325	82	79
214.904	215.554	85	79
215.01	215.22	77	55
215.115	215.554	72	54
215.115	215.536	80	77
215.115	215.554	84	77
215.22	215.431	77	53
215.325	215.554	73	52
215.325	215.554	79	73
215.325	215.554	82	73
215.431	215.536	77	52
215.536	216.37	60	52
215.536	216.265	77	82
215.536	216.265	80	82
215.64	216.388	65	47
215.744	216.388	68	47
215.848	216.057	72	47
215.952	216.161	71	52
216.057	216.265	72	47
216.161	216.388	71	47
216.265	216.388	72	47
216.265	216.388	77	79
216.265	216.388	80	79
216.265	216.388	89	79
216.37	216.786	60	52
216.37	217.099	79	82
216.37	217.209	82	82
216.37	217.209	91	82
216.474	217.209	64	47
216.578	216.89	67	47
216.682	217.099	72	47
216.786	217.209	60	52
216.89	217.209	67	47
216.994	217.209	70	47
217.099	217.209	72	47
217.099	217.209	76	79
217.099	217.209	79	79
217.099	217.209	88	79
217.209	218.043	53	52
217.209	217.418	77	73
217.209	217.522	80	73
217.209	218.043	89	73
217.314	217.522	65	38
217.314	217.522	68	38
217.314	217.418	72	61
217.418	217.626	60	39
217.418	217.626	72	39
217.418	218.043	77	62
217.522	217.729	65	41
217.522	217.729	68	41
217.522	218.037	80	63
217.626	217.832	60	45
217.626	217.832	72	45
217.626	217.832	84	68
217.729	217.935	65	44
217.729	217.935	68	44
217.729	218.043	85	65
217.832	218.037	60	45
217.832	218.037	72	45
217.832	218.043	84	66
217.935	218.043	65	45
217.935	218.043	68	45
217.935	218.043	82	65
218.037	218.241	60	46
218.037	218.241	72	46
218.037	218.241	80	68
218.139	218.345	65	46
218.139	218.345	68	46
218.139	218.874	82	67
218.241	218.449	60	45
218.241	218.449	72	45
218.241	218.66	80	66
218.345	218.554	65	45
218.345	218.554	68	45
218.345	218.554	79	65
218.449	218.66	60	45
218.449	218.66	72	45
218.449	218.766	77	64
218.554	218.766	65	44
218.554	218.766	68	44
218.554	218.874	79	63
218.66	218.874	60	44
218.66	218.874	72	44
218.66	218.874	80	63
218.766	218.874	65	43
218.766	218.874	68	43
218.766	218.874	77	62
218.874	219.743	53	54
219.009	219.22	65	38
219.009	219.22	68	38
219.009	219.115	72	61
219.115	219.324	60	39
219.115	219.324	72	39
219.115	219.743	77	62
219.22	219.428	65	41
219.22	219.428	68	41
219.22	219.737	80	63
219.324	219.531	60	45
219.324	219.531	72	45
219.324	219.531	84	68
219.428	219.634	65	44
219.428	219.634	68	44
219.428	219.743	85	65
219.531	219.737	60	45
219.531	219.737	72	45
219.531	219.743	84	66
219.634	219.743	65	45
219.634	219.743	68	45
219.634	219.743	82	65
219.737	219.942	60	46
219.737	219.942	72	46
219.737	219.942	80	68
219.839	220.046	65	46
219.839	220.046	68	46
219.839	220.574	82	67
219.942	220.15	60	45
219.942	220.15	72	45
219.942	220.361	80	66
220.046	220.255	65	45
220.046	220.255	68	45
220.046	220.255	79	65
220.15	220.361	60	45
220.15	220.361	72	45
220.15	220.467	77	64
220.255	220.467	65	44
220.255	220.467	68	44
220.255	220.574	79	63
220.361	220.574	60	44
220.361	220.574	72	44
220.361	220.574	80	63
220.467	220.574	65	43
220.467	220.574	68	43
220.467	220.574	77	62
220.574	221.442	44	55
220.709	220.92	54	40
220.709	220.92	56	40
220.709	221.442	78	64
220.815	221.024	51	41
220.815	221.024	60	41
220.815	221.442	84	65
220.92	221.128	54	43
220.92	221.128	56	43
220.92	221.436	87	66
221.024	221.231	51	47
221.024	221.231	60	47
221.024	221.231	90	72
221.128	221.334	54	46
221.128	221.334	56	46
221.128	221.442	92	69
221.231	221.436	51	47
221.231	221.436	60	47
221.231	221.442	90	70
221.334	221.442	54	48
221.334	221.442	56	48
221.334	221.442	89	69
221.436	221.64	51	49
221.436	221.64	60	49
221.436	221.64	87	72
221.538	221.743	54	49
221.538	221.743	56	49
221.538	222.269	89	71
221.64	221.847	51	48
221.64	221.847	60	48
221.64	222.056	87	70
221.743	221.951	54	47
221.743	221.951	56	47
221.743	221.951	85	69
221.847	222.056	51	47
221.847	222.056	60	47
221.847	222.162	84	68
221.951	222.162	54	46
221.951	222.162	56	46
221.951	222.269	85	67
222.056	222.269	51	46
222.056	222.269	60	46
222.056	222.269	87	66
222.162	222.269	54	45
222.162	222.269	56	45
222.162	222.269	84	65
222.269	223.135	44	54
222.404	222.614	54	40
222.404	222.614	56	40
222.404	223.135	78	64
222.509	222.718	51	41
222.509	222.718	60	41
222.509	223.135	84	65
222.614	222.821	54	43
222.614	222.821	56	43
222.614	223.129	87	66
222.718	222.924	51	47
222.718	222.924	60	47
222.718	222.924	90	72
222.821	223.027	54	46
222.821	223.027	56	46
222.821	223.135	92	69
222.924	223.129	51	47
222.924	223.129	60	47
222.924	223.135	90	70
223.027	223.135	54	48
223.027	223.135	56	48
223.027	223.135	89	69
223.129	223.334	51	49
223.129	223.334	60	49
223.129	223.334	87	72
223.231	223.437	54	49
223.231	223.437	56	49
223.231	223.965	89	71
223.334	223.541	51	48
223.334	223.541	60	48
223.334	223.965	87	70
223.437	223.646	54	47
223.437	223.646	56	47
223.437	223.965	85	69
223.541	223.751	51	47
223.541	223.751	60	47
223.541	223.965	84	68
223.646	223.858	54	46
223.646	223.858	56	46
223.646	223.965	82	67
223.751	223.965	51	46
223.751	223.965	60	46
223.751	223.965	80	66
223.858	223.965	54	45
223.858	223.965	56	45
223.858	223.965	78	65
223.965	224.831	49	56
223.965	224.831	77	68
224.1	224.31	61	42
224.1	224.31	65	42
224.1	224.831	80	67
224.205	224.414	56	43
224.205	224.414	68	43
224.205	224.831	85	68
224.31	224.517	61	45
224.31	224.517	65	45
224.31	224.825	89	69
224.414	224.62	56	49
224.414	224.62	68	49
224.414	224.62	92	75
224.517	224.723	61	48
224.517	224.723	65	48
224.517	224.831	94	72
224.62	224.825	56	49
224.62	224.825	68	49
224.62	224.831	92	73
224.723	224.831	61	50
224.723	224.831	65	50
224.723	224.831	90	72
224.825	225.029	56	51
224.825	225.029	68	51
224.825	225.029	89	75
224.927	225.133	61	51
224.927	225.133	65	51
224.927	225.661	90	74
225.029	225.237	56	50
225.029	225.237	68	50
225.029	225.447	89	73
225.133	225.342	61	49
225.133	225.342	65	49
225.133	225.342	87	72
225.237	225.447	56	49
225.237	225.447	68	49
225.237	225.553	85	71
225.342	225.553	61	48
225.342	225.553	65	48
225.342	225.661	87	70
225.447	225.661	56	48
225.447	225.661	68	48
225.447	225.661	89	69
225.553	225.661	61	47
225.553	225.661	65	47
225.553	225.661	85	68
225.661	226.527	49	56
225.796	226.005	61	42
225.796	226.005	65	42
225.796	226.527	80	67
225.901	226.527	56	43
225.901	226.109	68	43
225.901	226.527	85	68
226.005	226.527	61	45
226.005	226.527	65	45
226.005	226.521	89	69
226.109	226.527	68	49
226.109	226.316	92	76
226.213	226.527	94	74
226.316	226.527	73	55
226.316	226.527	92	75
226.419	226.527	90	74
226.521	227.357	77	58
226.521	226.933	89	78
226.623	226.829	90	77
226.725	227.357	80	62
226.725	227.143	92	77
226.829	227.037	90	76
226.933	227.143	85	66
226.933	227.249	89	75
227.037	227.357	90	75
227.143	227.357	85	69
227.143	227.357	92	74
227.249	227.357	89	74
227.357	228.204	82	80
227.357	228.204	85	80
227.462	227.672	90	70
227.567	227.778	92	73
227.672	227.883	90	70
227.778	228.204	92	65
227.883	228.096	90	63
227.988	228.204	80	66
227.988	228.204	84	66
227.988	228.204	89	59
228.096	228.204	90	59
228.204	228.646	79	68
228.204	228.646	82	68
228.312	228.528	88	58
228.42	228.646	89	60
228.528	228.646	88	57
228.636	229.067	80	64
228.636	229.067	84	64
228.744	228.959	89	57
228.851	229.067	91	60
228.959	229.067	89	56
229.067	229.915	82	80
229.067	229.915	85	80
229.173	229.383	90	70
229.278	229.488	92	73
229.383	229.594	90	70
229.488	229.915	92	65
229.594	229.807	90	63
229.699	229.915	80	66
229.699	229.915	84	66
229.699	229.915	89	59
229.807	229.915	90	59
229.915	230.356	79	68
229.915	230.356	82	68
230.023	230.238	88	58
230.131	230.356	89	60
230.238	230.356	88	57
230.346	230.778	80	64
230.346	230.778	84	64
230.454	230.67	89	57
230.562	230.778	91	60
230.67	230.778	89	56
230.778	231.626	82	80
230.778	231.626	85	80
230.883	231.094	90	70
230.989	231.199	92	73
231.094	231.304	90	70
231.199	231.626	92	73
231.304	231.626	90	70
231.41	231.626	80	66
231.41	231.626	84	66
231.41	231.626	89	59
231.518	231.626	91	59
231.626	232.067	79	68
231.626	232.067	82	68
231.733	231.949	88	58
231.841	232.067	89	60
231.949	232.067	88	58
232.057	232.489	77	65
232.057	232.489	80	65
232.165	232.381	85	58
232.273	232.489	87	61
232.381	232.489	85	57
232.489	232.93	76	70
232.489	232.93	79	70
232.597	232.813	84	60
232.705	232.93	85	62
232.813	232.93	84	60
232.921	233.352	74	70
232.921	233.352	77	70
233.028	233.244	83	61
233.136	233.352	84	65
233.244	233.352	83	62
233.352	233.794	73	75
233.352	233.784	77	75
233.46	233.676	82	65
233.568	233.794	84	67
233.676	233.794	82	64
233.784	234.216	72	75
233.784	234.216	77	75
233.892	234.108	80	66
234.0	234.216	82	69
234.108	234.216	80	67
234.216	235.079	71	76
234.323	234.539	80	67
234.431	234.657	82	70
234.539	234.657	80	68
234.647	235.079	74	75
234.755	234.971	79	66
234.863	235.079	80	69
234.971	235.079	79	64
235.079	235.942	60	72
235.079	235.52	68	72
235.079	235.942	72	72
235.187	235.403	77	64
235.295	235.52	79	65
235.403	235.52	77	62
235.511	235.942	67	68
235.618	235.834	76	60
235.726	235.942	77	62
235.834	235.942	76	57
235.942	236.79	46	61
235.942	236.79	49	61
235.942	236.79	54	72
236.047	236.258	61	66
236.153	236.363	73	73
236.258	236.469	61	59
236.363	236.574	73	71
236.469	236.682	61	58
236.574	236.79	44	50
236.574	236.79	48	50
236.574	236.79	53	59
236.574	236.79	73	63
236.682	236.79	61	59
236.79	237.231	43	51
236.79	237.231	46	51
236.79	237.231	52	61
236.898	237.231	61	60
237.005	237.231	73	71
237.113	237.231	72	66
237.221	237.653	44	48
237.221	237.653	48	48
237.221	237.653	53	57
237.221	237.653	70	68
237.329	237.653	68	66
237.437	237.653	67	65
237.545	237.653	65	58
237.653	238.5	46	61
237.653	238.5	49	61
237.653	238.5	54	72
237.758	237.969	73	68
237.863	238.074	85	75
237.969	238.179	73	67
238.074	238.285	85	74
238.179	238.392	73	67
238.285	238.5	44	50
238.285	238.5	48	50
238.285	238.5	53	59
238.285	238.5	85	69
238.392	238.5	73	60
238.5	238.942	43	51
238.5	238.942	46	54
238.5	238.942	52	65
238.608	238.942	73	61
238.716	238.942	85	73
238.824	238.942	84	66
238.932	239.364	44	48
238.932	239.364	48	48
238.932	239.364	53	57
238.932	239.364	82	70
239.04	239.364	80	68
239.148	239.364	79	67
239.256	239.364	77	65
239.364	240.211	46	61
239.364	240.211	49	61
239.364	240.211	54	72
239.469	239.679	61	66
239.574	239.785	73	73
239.679	239.89	61	66
239.785	239.995	73	73
239.89	240.103	61	66
239.995	240.211	44	50
239.995	240.211	48	50
239.995	240.211	53	59
239.995	240.211	73	68
240.103	240.211	61	61
240.211	240.653	43	51
240.211	240.653	46	61
240.211	240.653	52	61
240.319	240.535	73	68
240.427	240.653	61	60
240.535	240.653	73	68
240.643	241.067	41	49
240.643	241.067	44	49
240.643	241.067	49	58
240.749	240.961	85	78
240.855	241.067	73	69
240.961	241.067	85	75
241.067	241.507	40	53
241.067	241.507	43	53
241.067	241.507	48	63
241.174	241.389	84	76
241.282	241.507	72	71
241.389	241.507	84	75
241.497	241.927	38	53
241.497	241.927	41	53
241.497	241.927	44	53
241.497	241.927	47	63
241.604	241.819	83	77
241.712	241.927	71	71
241.819	241.927	83	74
241.927	242.362	40	56
241.927	242.362	43	56
241.927	242.362	46	67
242.033	242.246	82	78
242.14	242.362	70	69
242.246	242.362	82	77
242.353	242.778	41	67
242.353	242.778	44	67
242.459	242.672	80	77
242.565	242.778	68	71
242.565	242.778	72	71
242.672	242.778	80	77
242.778	243.635	35	66
242.778	243.216	44	66
242.885	243.099	80	75
242.992	243.216	68	68
242.992	243.216	74	68
243.099	243.216	80	75
243.207	243.635	42	64
243.314	243.528	79	73
243.421	243.635	67	66
243.421	243.635	74	66
243.528	243.635	79	73
243.635	244.492	36	61
243.635	244.074	41	61
243.742	243.957	77	71
243.849	244.074	65	66
243.849	244.074	68	66
243.957	244.074	77	71
244.064	244.492	40	59
244.171	244.385	76	72
244.278	244.492	64	66
244.278	244.492	67	66
244.385	244.492	76	69
244.492	244.94	29	59
244.492	244.94	32	59
244.492	244.94	36	59
244.492	244.94	41	70
244.492	244.704	65	65
244.492	244.81	68	65
244.492	244.94	77	77
244.598	244.94	60	74
244.704	244.94	65	76
244.81	244.94	68	78
244.916	245.126	72	80
245.021	245.336	48	59
245.021	245.336	73	76
245.126	245.336	53	62
245.126	245.336	72	76
245.231	245.336	56	64
245.231	245.336	70	76
245.336	245.544	60	70
245.336	245.544	68	77
245.44	245.749	61	64
245.44	245.749	70	71
245.544	245.749	60	64
245.544	245.749	68	72
245.649	245.754	58	64
245.649	245.754	67	72
245.754	246.176	56	70
245.754	246.176	65	78
245.859	246.176	55	63
245.859	246.176	63	73
245.964	246.176	53	63
245.964	246.176	61	73
246.07	246.176	51	63
246.07	246.176	60	72
246.176	246.623	49	67
246.176	246.623	58	75
246.282	246.623	48	60
246.282	246.623	56	70
246.388	246.623	46	60
246.388	246.623	54	70
246.495	246.623	44	60
246.495	246.623	53	70
246.602	246.812	43	71
246.602	246.822	52	73
246.712	246.822	44	65
246.822	246.932	46	73
246.822	246.986	48	69
246.822	246.986	52	69
246.822	246.986	54	69
246.822	246.986	60	82
246.932	247.041	44	69
247.041	247.151	43	73
247.041	247.206	48	61
247.041	247.206	52	61
247.041	247.206	58	73
247.041	247.206	60	73
247.151	247.261	41	73
247.261	247.371	40	72
247.261	247.426	48	60
247.261	247.426	52	60
247.261	247.426	58	71
247.261	247.426	60	71
247.371	247.481	38	72
247.481	247.591	36	71
247.481	247.646	48	61
247.481	247.646	52	61
247.481	247.646	58	72
247.481	247.646	60	72
247.591	247.701	34	71
247.701	247.811	32	70
247.701	247.866	48	61
247.701	247.866	52	61
247.701	247.866	58	72
247.701	247.866	60	72
247.811	247.921	31	70
247.921	248.344	29	70
247.921	248.344	32	70
247.921	248.344	36	70
247.921	248.344	41	70
247.921	248.344	48	77
247.921	248.344	53	77
247.921	248.344	56	77
247.921	248.344	60	77
248.027	248.344	72	74
248.133	248.344	77	76
248.238	248.344	80	78
248.344	248.554	84	80
248.449	248.793	60	59
248.449	248.793	85	76
248.554	248.793	65	62
248.554	248.793	84	76
248.659	248.793	68	64
248.659	248.793	82	76
248.764	248.972	72	70
248.764	248.972	80	77
248.868	249.231	73	64
248.868	249.231	82	71
248.972	249.231	72	64
248.972	249.231	80	72
249.077	249.231	70	64
249.077	249.231	79	72
249.182	249.604	68	70
249.182	249.604	77	78
249.287	249.604	67	63
249.287	249.604	75	73
249.393	249.604	65	63
249.393	249.604	73	73
249.498	249.604	63	63
249.498	249.604	72	72
249.604	250.061	61	67
249.604	250.061	70	75
249.71	250.061	60	60
249.71	250.061	68	70
249.817	250.061	58	60
249.817	250.061	67	70
249.923	250.061	56	60
249.923	250.061	65	70
250.03	250.231	55	71
250.03	250.25	64	73
250.14	250.25	56	65
250.25	250.36	58	73
250.25	250.415	60	58
250.25	250.415	64	69
250.25	250.415	67	69
250.25	250.415	72	82
250.36	250.47	56	69
250.47	250.58	55	73
250.47	250.634	60	51
250.47	250.634	64	61
250.47	250.634	70	73
250.47	250.634	72	73
250.58	250.689	53	73
250.689	250.799	52	72
250.689	250.854	60	50
250.689	250.854	64	59
250.689	250.854	70	70
250.689	250.854	72	70
250.799	250.909	50	72
250.909	251.019	48	71
250.909	251.074	60	51
250.909	251.074	64	61
250.909	251.074	70	73
250.909	251.074	72	73
251.019	251.129	46	71
251.129	251.239	44	70
251.129	251.294	60	51
251.129	251.294	64	60
251.129	251.294	70	71
251.129	251.294	72	71
251.239	251.349	43	70
251.349	251.835	41	67
251.349	251.835	60	51
251.349	251.835	65	61
251.349	251.835	68	73
251.349	251.835	72	73
251.484	251.835	43	60
251.591	251.835	44	60
251.697	251.835	46	60
251.804	252.005	48	71
251.914	252.024	50	65
252.024	252.134	52	73
252.024	252.189	72	63
252.024	252.189	77	75
252.024	252.189	80	75
252.024	252.189	84	90
252.134	252.244	53	69
252.244	252.354	55	73
252.244	252.409	72	56
252.244	252.409	76	67
252.244	252.409	82	80
252.244	252.409	84	80
252.354	252.463	53	73
252.463	252.573	52	72
252.463	252.628	72	55
252.463	252.628	76	64
252.463	252.628	82	77
252.463	252.628	84	77
252.573	252.683	50	72
252.683	252.793	48	71
252.683	252.848	72	56
252.683	252.848	76	67
252.683	252.848	82	80
252.683	252.848	84	80
252.793	252.903	46	71
252.903	253.013	44	70
252.903	253.068	72	56
252.903	253.068	76	66
252.903	253.068	82	78
252.903	253.068	84	78
253.013	253.123	43	70
253.123	253.609	41	67
253.123	253.609	72	56
253.123	253.609	77	67
253.123	253.609	80	80
253.123	253.609	84	80
253.258	253.609	43	60
253.365	253.609	44	60
253.471	253.609	46	60
253.578	253.775	48	71
253.688	253.798	50	65
253.798	253.908	52	73
253.798	253.963	60	58
253.798	253.963	65	69
253.798	253.963	68	69
253.798	253.963	72	82
253.908	254.018	53	69
254.018	254.128	55	73
254.018	254.183	60	51
254.018	254.183	64	61
254.018	254.183	70	73
254.018	254.183	72	73
254.128	254.237	53	73
254.237	254.347	52	72
254.237	254.402	60	50
254.237	254.402	64	59
254.237	254.402	70	70
254.237	254.402	72	70
254.347	254.457	50	72
254.457	254.567	48	71
254.457	254.622	60	51
254.457	254.622	64	61
254.457	254.622	70	73
254.457	254.622	72	73
254.567	254.677	46	71
254.677	254.787	44	70
254.677	254.842	60	51
254.677	254.842	64	60
254.677	254.842	70	71
254.677	254.842	72	71
254.787	254.897	43	70
254.897	255.383	41	67
254.897	255.383	60	56
254.897	255.383	65	67
254.897	255.383	68	67
254.897	255.139	72	80
255.032	255.383	40	60
255.139	255.383	38	60
255.139	255.352	72	70
255.139	255.352	77	70
255.139	255.352	80	70
255.139	255.352	84	84
255.245	255.383	36	60
255.352	255.543	34	64
255.352	255.543	72	74
255.352	255.543	77	74
255.352	255.543	80	74
255.352	255.543	84	90
255.462	255.572	32	59
255.572	255.682	31	65
255.572	255.737	72	73
255.572	255.737	77	73
255.572	255.737	80	73
255.572	255.737	84	88
255.682	255.792	29	58
255.792	255.902	31	68
255.792	255.957	72	64
255.792	255.957	76	78
255.792	255.957	82	78
255.792	255.957	84	93
255.902	256.012	32	69
256.012	256.121	34	71
256.012	256.176	72	64
256.012	256.176	76	75
256.012	256.176	82	75
256.012	256.176	84	91
256.121	256.231	36	72
256.231	256.341	38	74
256.231	256.396	72	68
256.231	256.396	76	81
256.231	256.396	82	81
256.231	256.396	84	97
256.341	256.451	40	75
256.451	256.561	41	77
256.451	256.616	72	69
256.451	256.616	76	82
256.451	256.616	82	82
256.451	256.616	84	96
256.561	256.671	43	78
256.671	260.093	30	76
256.671	259.662	42	78
256.671	257.329	72	72
256.671	257.435	75	85
256.671	257.648	81	102
256.671	257.755	84	102
256.789	259.128	57	70
256.899	259.022	60	71
257.007	258.916	63	72
257.114	258.81	66	72
257.221	258.704	69	72
257.329	258.598	72	73
257.435	258.493	75	74
257.542	258.388	78	75
257.648	258.283	81	77
257.755	258.178	84	79
257.861	258.072	87	81
257.966	260.093	90	83
258.072	260.093	87	83
258.178	260.093	84	82
258.283	260.093	81	81
258.388	260.093	78	81
258.493	260.093	75	80
258.598	260.093	72	79
258.704	260.093	69	78
258.81	260.093	66	77
258.916	260.093	63	76
259.022	260.093	60	75
259.128	260.093	57	69
259.235	260.093	54	68
259.341	260.093	51	68
259.448	260.093	48	67
259.555	260.093	45	66
259.662	260.093	42	66
259.77	260.093	39	65
259.877	260.093	36	64
259.985	260.093	33	63
260.093	260.53	30	60
260.202	260.566	39	59
260.311	260.566	36	58
260.42	260.566	33	57
260.53	260.968	30	56
260.639	260.974	39	54
260.749	260.974	36	53
260.858	260.974	33	52
260.968	261.409	30	51
261.078	261.446	39	47
261.188	261.446	36	47
261.299	261.446	33	43
261.409	261.852	30	47
261.519	261.852	39	41
261.63	261.852	36	39
261.741	261.852	33	38
261.852	262.267	29	39
261.956	262.06	57	40
262.06	262.164	60	37
262.164	262.267	63	37
262.267	262.371	66	40
262.371	262.474	68	38
262.474	262.577	66	38
262.577	262.68	65	38
262.68	262.784	63	40
262.784	262.887	65	37
262.887	262.991	63	37
262.991	263.095	61	37
263.095	263.199	60	40
263.199	263.303	61	37
263.303	263.408	63	37
263.408	263.516	41	35
263.408	263.516	60	37
263.516	263.931	29	40
263.62	263.724	57	40
263.724	263.828	60	37
263.828	263.931	63	37
263.931	264.034	66	40
264.034	264.137	68	38
264.137	264.239	66	38
264.239	264.342	65	38
264.342	264.445	63	40
264.445	264.548	65	37
264.548	264.652	63	37
264.652	264.755	61	37
264.755	264.859	60	40
264.859	264.963	61	37
264.963	265.067	63	37
265.067	265.176	41	35
265.067	265.176	60	37
265.176	265.592	29	40
265.28	265.384	57	47
265.384	265.488	60	49
265.488	265.592	63	50
265.592	265.695	66	52
265.695	265.799	68	54
265.799	265.902	57	38
265.799	265.902	66	56
265.902	266.015	58	42
265.902	266.015	65	58
266.015	266.12	60	49
266.015	266.224	63	67
266.12	266.224	61	42
266.224	266.329	60	43
266.224	266.329	63	47
266.329	266.433	58	43
266.329	266.433	65	49
266.433	266.642	57	47
266.433	266.537	66	52
266.537	266.642	68	54
266.642	266.747	57	41
266.642	266.747	66	56
266.747	266.86	58	46
266.747	266.86	65	59
266.86	266.964	60	53
266.86	267.068	63	67
266.964	267.068	61	42
267.068	267.173	60	43
267.068	267.173	63	50
267.173	267.277	58	43
267.173	267.277	65	50
267.277	267.486	57	47
267.277	267.381	66	56
267.381	267.486	68	49
267.486	267.59	57	43
267.486	267.59	66	50
267.59	267.704	58	47
267.59	267.704	65	50
267.704	267.82	60	52
267.704	267.936	63	67
267.82	267.936	61	42
267.936	268.162	60	43
267.936	268.172	66	56
267.936	268.172	78	56
268.054	268.172	58	43
268.172	268.687	57	44
268.172	268.687	65	60
268.172	268.687	77	60
268.292	268.687	54	42
268.412	268.687	53	41
268.412	268.687	69	54
268.412	268.687	81	54
268.532	268.687	51	39
268.652	270.318	49	44
268.652	268.862	70	56
268.652	269.486	82	56
268.757	268.966	53	32
268.757	269.486	65	51
268.862	269.07	58	33
268.862	269.486	70	52
268.966	269.173	53	34
268.966	269.48	73	53
269.07	269.276	58	38
269.07	269.276	77	57
269.173	269.378	53	37
269.173	269.486	78	55
269.276	269.48	58	38
269.276	269.486	77	56
269.378	269.486	53	38
269.378	269.486	75	55
269.48	269.685	58	39
269.48	269.685	73	57
269.582	269.788	53	39
269.582	270.318	75	56
269.685	269.892	58	38
269.685	270.103	73	56
269.788	269.997	53	38
269.788	269.997	72	55
269.892	270.103	58	38
269.892	270.21	70	54
269.997	270.21	53	37
269.997	270.318	72	53
270.103	270.318	58	37
270.103	270.318	73	53
270.21	270.318	53	36
270.21	270.318	70	52
270.318	271.983	49	44
270.422	270.631	53	32
270.422	271.151	65	51
270.527	270.735	58	33
270.527	271.151	70	52
270.631	270.838	53	34
270.631	271.145	73	53
270.735	270.941	58	38
270.735	270.941	77	57
270.838	271.043	53	37
270.838	271.151	78	55
270.941	271.145	58	38
270.941	271.151	77	56
271.043	271.151	53	38
271.043	271.151	75	55
271.145	271.35	58	39
271.145	271.35	73	57
271.247	271.453	53	39
271.247	271.983	75	56
271.35	271.557	58	38
271.35	271.768	73	56
271.453	271.662	53	38
271.453	271.662	72	55
271.557	271.768	58	38
271.557	271.875	70	54
271.662	271.875	53	37
271.662	271.983	72	53
271.768	271.983	58	37
271.768	271.983	73	53
271.875	271.983	53	36
271.875	271.983	70	52
271.983	273.654	51	44
272.087	272.296	54	32
272.087	272.816	66	51
272.192	272.4	59	33
272.192	272.816	71	53
272.296	272.503	54	35
272.296	272.81	75	54
272.4	272.606	59	39
272.4	272.606	78	59
272.503	272.708	54	39
272.503	272.816	80	58
272.606	272.81	59	40
272.606	272.816	78	59
272.708	272.816	54	41
272.708	272.816	77	59
272.81	273.015	59	42
272.81	273.015	75	62
272.912	273.118	54	43
272.912	273.654	77	62
273.015	273.222	59	42
273.015	273.433	75	62
273.118	273.328	54	42
273.118	273.328	73	62
273.222	273.433	59	43
273.222	273.54	71	62
273.328	273.54	54	42
273.328	273.654	73	61
273.433	273.654	59	45
273.433	273.654	75	64
273.54	273.654	54	42
273.54	273.654	71	61
273.648	274.48	53	46
273.648	273.852	70	68
273.75	273.955	58	46
273.75	274.161	72	64
273.852	274.058	61	44
273.852	274.058	70	66
273.955	274.161	58	44
273.955	274.474	69	64
274.058	274.265	61	43
274.058	274.369	70	62
274.161	274.369	58	42
274.161	274.48	72	60
274.265	274.48	61	41
274.265	274.48	73	59
274.369	274.48	58	40
274.369	274.48	70	58
274.474	275.301	51	42
274.474	274.678	69	62
274.576	274.781	53	42
274.576	274.987	70	61
274.678	274.884	60	41
274.678	274.884	69	60
274.781	274.987	53	40
274.781	275.301	67	58
274.884	275.091	60	39
274.884	275.196	69	56
274.987	275.196	53	38
274.987	275.301	70	55
275.091	275.301	60	38
275.091	275.301	72	54
275.196	275.301	53	36
275.196	275.301	69	53
275.301	276.142	49	48
275.301	275.511	70	61
275.406	275.929	65	48
275.511	276.142	70	57
275.616	276.136	73	58
275.72	276.142	58	58
275.72	275.929	77	62
275.824	276.032	61	40
275.824	276.142	78	60
275.929	276.142	65	41
275.929	276.142	77	61
276.032	276.142	61	41
276.032	276.142	75	61
276.136	276.978	57	63
276.136	276.344	73	63
276.24	276.449	61	42
276.24	276.978	75	62
276.344	276.764	65	42
276.344	276.764	73	62
276.449	276.659	61	42
276.449	276.659	72	61
276.553	276.978	58	55
276.553	276.871	70	71
276.553	276.978	82	71
276.659	276.871	61	41
276.659	276.978	72	60
276.764	276.978	65	41
276.764	276.978	73	61
276.871	276.978	61	41
276.871	276.978	70	60
276.978	277.822	49	51
276.978	277.822	81	74
277.084	277.609	65	52
277.19	277.822	70	63
277.295	277.816	73	65
277.4	277.822	58	68
277.4	277.609	77	73
277.4	277.822	82	73
277.504	277.712	61	45
277.504	277.822	78	68
277.609	277.822	65	47
277.609	277.822	77	71
277.712	277.822	61	48
277.712	277.822	75	70
277.816	278.659	57	74
277.816	278.023	73	73
277.919	278.127	61	50
277.919	278.659	75	72
278.023	278.445	65	49
278.023	278.445	73	74
278.127	278.338	61	50
278.127	278.338	72	74
278.233	278.659	58	77
278.233	278.552	70	73
278.233	278.659	82	88
278.338	278.552	61	50
278.338	278.659	72	73
278.445	278.659	65	51
278.445	278.659	73	74
278.552	278.659	61	50
278.552	278.659	70	73
278.659	279.086	51	70
278.659	278.763	71	88
278.659	278.867	83	88
278.763	278.971	66	55
278.763	278.971	71	55
278.763	279.086	78	74
278.867	279.074	63	59
278.867	279.086	83	76
278.971	279.086	66	55
278.971	279.086	71	55
278.971	279.086	87	78
279.074	279.28	63	59
279.074	279.28	90	80
279.177	279.382	66	55
279.177	279.382	71	55
279.177	279.513	92	76
279.28	279.484	63	59
279.28	279.513	90	76
279.382	279.513	66	56
279.382	279.513	71	56
279.382	279.513	89	76
279.484	279.687	63	59
279.484	279.687	87	77
279.586	279.788	66	55
279.586	279.788	71	55
279.586	279.938	89	71
279.687	279.891	63	59
279.687	279.938	87	72
279.788	279.938	66	55
279.788	279.938	71	55
279.788	279.938	85	72
279.891	280.096	63	59
279.891	280.096	83	78
279.993	280.199	66	55
279.993	280.199	71	55
279.993	280.333	85	73
280.096	280.333	63	59
280.096	280.333	83	73
280.199	280.333	66	56
280.199	280.333	71	56
280.199	280.333	82	72
280.303	280.511	65	59
280.303	280.766	81	77
280.408	280.615	69	55
280.408	280.615	72	55
280.408	280.615	75	55
280.408	280.718	84	71
280.511	280.718	65	59
280.511	280.766	87	72
280.615	280.766	69	55
280.615	280.766	72	55
280.615	280.766	75	55
280.615	280.766	85	72
280.718	280.924	65	59
280.718	280.924	84	78
280.821	281.028	69	55
280.821	281.028	72	55
280.821	281.028	75	55
280.821	281.162	85	73
280.924	281.133	65	59
280.924	281.162	84	73
281.028	281.162	69	55
281.028	281.162	72	56
281.028	281.162	75	56
281.028	281.162	82	72
281.133	281.342	65	59
281.133	281.342	81	77
281.237	281.446	69	55
281.237	281.6	82	71
281.342	281.6	65	59
281.342	281.6	81	72
281.446	281.6	69	55
281.446	281.6	78	72
281.551	281.762	53	59
281.551	281.993	77	74
281.656	281.868	65	50
281.656	281.993	75	71
281.762	281.993	53	57
281.762	281.993	73	71
281.868	281.993	65	49
281.868	281.993	72	69
281.973	282.202	46	59
281.973	282.087	70	73
282.202	282.414	58	44
282.202	282.414	61	44
282.202	282.626	77	74
282.308	282.52	65	38
282.414	282.626	58	44
282.414	282.626	61	44
282.52	282.732	65	38
282.626	282.744	58	44
282.626	282.744	61	44
282.626	282.744	77	61
282.732	282.838	65	38
282.838	282.946	58	44
282.838	282.946	61	44
282.838	282.946	77	61
282.946	283.055	65	38
283.055	283.267	58	44
283.055	283.267	61	44
283.055	283.479	78	72
283.161	283.373	64	38
283.267	283.479	58	44
283.267	283.479	61	44
283.373	283.585	64	38
283.479	283.63	58	44
283.479	283.63	61	44
283.479	283.63	78	60
283.585	283.691	64	38
283.691	283.802	57	44
283.691	283.802	60	44
283.691	283.802	78	59
283.802	283.912	64	38
283.912	284.124	57	44
283.912	284.124	60	44
283.912	284.336	77	73
284.018	284.23	65	38
284.124	284.336	57	44
284.124	284.336	60	44
284.23	284.442	65	38
284.336	284.463	57	44
284.336	284.463	60	44
284.336	284.463	77	63
284.442	284.548	65	38
284.548	284.659	57	44
284.548	284.659	60	44
284.548	284.659	77	65
284.659	284.769	65	38
284.769	284.876	57	44
284.769	284.876	60	44
284.769	284.876	72	61
284.876	284.982	65	38
284.982	285.089	57	44
284.982	285.089	60	44
284.982	285.089	73	61
285.089	285.196	65	38
285.196	285.303	57	44
285.196	285.303	60	44
285.196	285.303	75	61
285.303	285.41	65	38
285.41	285.521	58	44
285.41	285.521	61	44
285.41	285.521	73	65
285.521	285.633	65	38
285.633	285.845	58	58
285.633	285.845	61	58
285.633	286.054	77	73
285.633	286.054	89	80
285.739	285.95	65	51
285.845	286.054	58	58
285.845	286.054	61	58
285.95	286.159	65	51
286.054	286.172	58	58
286.054	286.172	61	58
286.054	286.172	77	68
286.054	286.172	89	74
286.159	286.264	65	51
286.264	286.373	58	58
286.264	286.373	61	58
286.264	286.373	77	68
286.264	286.373	89	74
286.373	286.482	65	51
286.482	286.694	58	58
286.482	286.694	61	58
286.482	286.904	78	74
286.482	286.904	90	81
286.588	286.799	64	51
286.694	286.904	58	58
286.694	286.904	61	58
286.799	287.009	64	51
286.904	287.054	58	58
286.904	287.054	61	58
286.904	287.054	78	67
286.904	287.054	90	73
287.009	287.115	64	51
287.115	287.225	57	58
287.115	287.225	60	58
287.115	287.225	78	66
287.115	287.225	90	72
287.225	287.336	64	51
287.336	287.548	57	58
287.336	287.548	60	58
287.336	287.76	77	75
287.336	287.76	89	82
287.442	287.654	65	51
287.548	287.76	57	58
287.548	287.76	60	58
287.654	287.866	65	51
287.76	287.886	57	58
287.76	287.886	60	58
287.76	287.886	77	70
287.76	287.886	89	77
287.866	287.972	65	51
287.972	288.082	57	58
287.972	288.082	60	58
287.972	288.082	77	73
287.972	288.082	89	80
288.082	288.193	65	51
288.193	288.299	57	58
288.193	288.299	60	58
288.193	288.299	72	68
288.193	288.299	84	74
288.299	288.406	65	51
288.406	288.513	57	58
288.406	288.513	60	58
288.406	288.513	73	68
288.406	288.513	85	74
288.513	288.62	65	51
288.62	288.726	57	58
288.62	288.726	60	58
288.62	288.726	75	68
288.62	288.726	87	74
288.726	288.833	65	51
288.833	288.945	58	58
288.833	288.945	61	58
288.833	288.945	73	73
288.833	288.945	85	80
288.945	289.056	65	51
289.056	289.268	52	44
289.056	289.268	55	44
289.056	289.479	72	72
289.162	289.374	60	38
289.268	289.479	52	44
289.268	289.479	55	44
289.374	289.584	60	38
289.479	289.596	52	44
289.479	289.596	55	44
289.479	289.596	72	61
289.584	289.689	60	38
289.689	289.798	53	44
289.689	289.798	56	44
289.689	289.798	72	61
289.798	289.907	60	38
289.907	290.119	53	44
289.907	290.119	56	44
289.907	290.329	71	72
290.013	290.224	62	38
290.119	290.329	53	44
290.119	290.329	56	44
290.224	290.433	62	38
290.329	290.478	53	44
290.329	290.478	56	44
290.329	290.478	71	60
290.433	290.538	62	38
290.538	290.649	52	44
290.538	290.649	55	44
290.538	290.649	71	59
290.649	290.76	62	38
290.76	290.972	52	44
290.76	290.972	55	44
290.76	291.184	72	71
290.866	291.078	60	38
290.972	291.184	52	44
290.972	291.184	55	44
291.078	291.29	60	38
291.184	291.31	52	44
291.184	291.31	55	44
291.184	291.31	72	63
291.29	291.396	60	38
291.396	291.506	52	44
291.396	291.506	55	44
291.396	291.506	72	65
291.506	291.616	60	38
291.616	291.723	52	44
291.616	291.723	55	44
291.616	291.723	67	61
291.723	291.83	60	38
291.83	291.937	52	44
291.83	291.937	55	44
291.83	291.937	68	61
291.937	292.043	60	38
292.043	292.15	52	44
292.043	292.15	55	44
292.043	292.15	70	61
292.15	292.257	60	38
292.257	292.368	53	44
292.257	292.368	56	44
292.257	292.368	68	65
292.368	292.48	60	38
292.48	292.692	53	58
292.48	292.692	56	58
292.48	292.903	72	73
292.48	292.903	84	80
292.586	292.797	60	51
292.692	292.903	53	58
292.692	292.903	56	58
292.797	293.008	60	51
292.903	293.02	53	58
292.903	293.02	56	58
292.903	293.02	72	68
292.903	293.02	84	74
293.008	293.113	60	51
293.113	293.222	53	58
293.113	293.222	56	58
293.113	293.222	72	68
293.113	293.222	84	74
293.222	293.33	60	51
293.33	293.542	53	58
293.33	293.542	56	58
293.33	293.753	71	74
293.33	293.753	83	81
293.436	293.648	62	51
293.542	293.753	53	58
293.542	293.753	56	58
293.648	293.858	62	51
293.753	293.903	53	58
293.753	293.903	56	58
293.753	293.903	71	67
293.753	293.903	83	73
293.858	293.964	62	51
293.964	294.074	52	58
293.964	294.074	55	58
293.964	294.074	71	66
293.964	294.074	83	72
294.074	294.185	62	51
294.185	294.397	52	58
294.185	294.397	55	58
294.185	294.607	72	75
294.185	294.607	84	82
294.291	294.502	60	51
294.397	294.607	52	58
294.397	294.607	55	58
294.502	294.712	60	51
294.607	294.732	52	58
294.607	294.732	55	58
294.607	294.732	72	70
294.607	294.732	84	77
294.712	294.817	60	51
294.817	294.927	52	58
294.817	294.927	55	58
294.817	294.927	72	73
294.817	294.927	84	80
294.927	295.037	60	51
295.037	295.144	52	58
295.037	295.144	55	58
295.037	295.144	67	68
295.037	295.144	79	74
295.144	295.251	60	51
295.251	295.357	52	58
295.251	295.357	55	58
295.251	295.357	68	68
295.251	295.357	80	74
295.357	295.464	60	51
295.464	295.571	52	58
295.464	295.571	55	58
295.464	295.571	70	68
295.464	295.571	82	74
295.571	295.678	60	51
295.678	296.2	41	61
295.678	296.2	44	61
295.678	296.2	48	61
295.678	296.2	53	72
295.678	296.026	68	73
295.678	296.2	80	80
295.815	296.2	60	70
295.921	296.2	65	72
296.026	296.2	68	74
296.132	296.342	72	76
296.237	296.552	48	56
296.237	296.552	73	72
296.342	296.552	53	58
296.342	296.552	72	72
296.447	296.552	56	60
296.447	296.552	70	72
296.552	296.761	60	66
296.552	296.761	68	73
296.656	296.965	61	60
296.656	296.965	70	67
296.761	296.965	60	61
296.761	296.965	68	69
296.865	296.97	58	61
296.865	296.97	67	69
296.97	297.286	56	67
296.97	297.286	65	75
297.075	297.392	58	60
297.075	297.447	67	70
297.181	297.447	60	60
297.181	297.447	68	70
297.286	297.447	56	60
297.286	297.447	65	70
297.392	297.606	58	72
297.392	297.606	66	75
297.501	297.883	60	60
297.501	297.883	61	72
297.606	297.883	58	60
297.606	297.883	66	74
297.711	297.883	56	60
297.711	297.883	70	76
297.816	298.024	54	68
297.816	298.024	73	78
297.92	298.232	49	57
297.92	298.232	75	75
298.024	298.232	54	60
298.024	298.232	73	75
298.128	298.232	58	62
298.128	298.232	72	75
298.232	298.44	61	69
298.232	298.44	70	76
298.336	298.645	63	63
298.336	298.645	72	70
298.44	298.645	61	63
298.44	298.645	70	71
298.545	298.65	60	63
298.545	298.65	68	71
298.65	298.966	58	69
298.65	298.966	66	76
298.755	299.072	60	62
298.755	299.072	68	73
298.86	299.072	61	62
298.86	299.072	70	73
298.966	299.072	58	62
298.966	299.072	66	72
299.072	299.285	60	74
299.072	299.285	69	77
299.179	299.563	61	62
299.179	299.563	63	74
299.285	299.563	60	63
299.285	299.563	69	76
299.39	299.563	58	63
299.39	299.563	72	78
299.495	299.703	57	70
299.495	299.703	75	80
299.599	299.91	51	59
299.599	299.91	77	76
299.703	299.91	57	62
299.703	299.91	75	76
299.807	299.91	60	65
299.807	299.91	73	77
299.91	300.117	63	71
299.91	300.117	72	78
300.014	300.32	65	65
300.014	300.32	73	72
300.117	300.32	63	65
300.117	300.32	72	73
300.221	300.326	61	65
300.221	300.326	70	73
300.326	300.641	60	72
300.326	300.641	69	80
300.43	300.747	61	64
300.43	300.747	70	75
300.536	300.747	63	64
300.536	300.747	72	75
300.641	300.747	60	64
300.641	300.747	69	74
300.747	301.066	61	70
300.747	300.961	70	90
300.855	301.24	53	59
300.855	301.172	65	76
300.961	301.24	58	63
300.961	301.24	70	79
301.066	301.24	61	66
301.066	301.24	73	82
301.172	301.382	65	65
301.172	301.382	77	83
301.277	301.592	66	65
301.277	301.592	78	83
301.382	301.592	65	65
301.382	301.592	77	82
301.487	301.592	63	64
301.487	301.592	75	82
301.592	302.018	61	64
301.592	302.018	73	81
301.696	302.018	60	64
301.696	302.018	72	81
301.8	302.018	58	63
301.8	302.018	70	80
301.904	302.018	56	63
301.904	302.018	68	80
302.008	302.423	54	62
302.008	302.423	66	79
302.112	302.423	53	62
302.112	302.423	65	79
302.216	302.423	51	62
302.216	302.423	63	78
302.319	302.423	49	61
302.319	302.423	61	78
302.423	302.835	48	61
302.423	302.835	60	77
302.526	302.835	46	61
302.526	302.835	58	77
302.629	302.835	44	60
302.629	302.835	56	76
302.732	302.835	42	60
302.732	302.835	54	76
302.835	303.25	41	59
302.835	303.25	53	73
302.939	303.25	39	59
302.939	303.25	51	73
303.042	303.25	37	59
303.042	303.25	49	74
303.146	303.25	36	59
303.146	303.25	48	76
303.25	303.604	34	59
303.25	303.562	46	78
303.354	303.562	36	59
303.354	303.604	48	79
303.458	303.604	37	62
303.458	303.604	49	81
303.562	303.666	36	64
303.562	303.666	46	82
303.666	303.914	34	65
303.666	303.914	46	82
303.914	304.242	35	72
303.914	304.242	47	77
303.914	304.242	50	77
303.914	304.242	53	77
303.914	304.242	56	90
304.242	304.35	36	89
304.242	304.35	48	82
304.242	304.35	52	82
304.242	304.35	55	98
304.35	304.457	48	66
304.35	304.457	60	66
304.457	304.565	40	76
304.565	304.672	48	66
304.565	304.672	60	66
304.672	304.779	36	76
304.779	304.886	48	66
304.779	304.886	60	66
304.886	304.993	41	76
304.993	305.1	48	66
304.993	305.1	60	66
305.1	305.207	36	76
305.207	305.313	48	66
305.207	305.313	60	66
305.313	305.42	43	76
305.42	305.526	48	66
305.42	305.526	60	66
305.526	305.632	36	76
305.632	305.738	48	66
305.632	305.738	60	66
305.738	305.844	44	76
305.844	305.95	48	66
305.844	305.95	60	66
305.95	306.372	36	74
306.056	306.267	60	64
306.056	306.267	72	64
306.162	306.385	46	74
306.267	306.385	60	64
306.267	306.385	72	64
306.372	306.791	36	75
306.477	306.686	60	65
306.477	306.686	72	65
306.582	306.791	44	76
306.686	306.791	60	66
306.686	306.791	72	66
306.791	307.208	36	77
306.895	307.103	60	64
306.895	307.103	72	64
306.999	307.244	43	78
307.103	307.244	60	64
307.103	307.244	72	64
307.208	307.624	36	79
307.312	307.52	60	65
307.312	307.52	72	65
307.416	307.634	41	80
307.52	307.634	60	66
307.52	307.634	72	66
307.624	308.046	36	81
307.729	307.94	72	67
307.729	307.94	84	67
307.834	308.081	40	82
307.94	308.081	72	68
307.94	308.081	84	68
308.046	308.472	36	82
308.152	308.365	72	69
308.152	308.365	84	69
308.258	308.472	41	83
308.365	308.472	72	70
308.365	308.472	84	70
308.472	308.904	36	84
308.58	308.796	72	71
308.58	308.796	84	71
308.688	308.994	43	85
308.796	308.994	72	72
308.796	308.994	84	72
308.904	309.013	36	86
309.013	309.232	72	73
309.013	309.232	84	73
309.123	309.353	44	87
309.232	309.353	72	74
309.232	309.353	84	74
309.342	309.789	36	88
309.453	309.677	84	75
309.453	309.677	96	75
309.565	309.837	45	89
309.677	309.837	84	76
309.677	309.837	96	76
309.789	310.245	36	91
309.902	310.13	84	78
309.902	310.13	96	78
310.016	310.245	46	92
310.13	310.245	84	81
310.13	310.245	96	81
310.245	310.709	36	94
310.36	310.592	84	82
310.36	310.592	96	82
310.476	310.754	47	96
310.592	310.754	84	84
310.592	310.754	96	84
310.709	311.222	36	99
310.825	311.084	84	86
310.825	311.084	96	86
310.947	311.222	48	101
311.084	311.222	84	88
311.084	311.222	96	88
311.222	313.658	34	86
311.222	313.658	37	86
311.222	313.658	42	86
311.222	311.762	46	102
311.333	311.869	49	72
311.44	311.976	54	75
311.547	312.088	58	76
311.655	312.195	61	90
311.762	313.658	46	71
311.869	313.658	49	74
311.976	313.658	54	76
312.088	312.624	58	91
312.195	312.731	61	72
312.302	312.838	66	75
312.409	312.95	70	76
312.516	313.058	73	88
312.624	313.658	58	73
312.731	313.658	61	76
312.838	313.658	66	78
312.95	313.658	70	86
313.058	313.658	73	77
313.167	313.658	78	79
313.276	313.658	82	81
313.388	313.658	85	89
314.673	317.164	36	79
314.673	317.164	43	79
314.673	317.164	46	94
314.673	315.209	48	97
314.78	317.164	52	72
314.888	315.316	55	75
314.995	315.423	58	76
315.102	315.643	64	89
315.209	317.164	48	71
315.316	317.164	55	74
315.423	317.164	58	76
315.536	316.072	60	90
315.643	317.164	64	72
315.75	316.179	67	75
315.857	316.286	70	76
315.965	316.506	76	87
316.072	317.164	60	73
316.179	317.164	67	76
316.286	317.164	70	78
316.398	317.164	72	89
316.506	317.164	76	77
316.614	317.164	79	79
316.723	317.164	82	81
316.833	317.164	88	93
318.118	319.423	37	58
318.261	319.423	49	50
318.404	319.423	52	50
318.547	319.423	55	50
318.654	319.423	58	54
318.762	319.423	61	51
318.872	319.423	64	53
318.982	319.423	67	54
319.839	321.146	40	55
319.982	321.146	52	47
320.125	321.146	55	47
320.267	321.146	58	47
320.375	321.146	61	51
320.484	321.146	64	48
320.594	321.146	67	50
320.705	321.146	70	51
321.562	322.86	43	52
321.705	322.86	55	44
321.848	322.86	58	44
321.991	322.86	61	44
322.098	322.86	64	48
322.205	322.86	67	45
322.312	322.86	70	47
322.419	322.86	73	48
323.276	324.574	46	49
323.419	324.574	58	41
323.562	324.574	61	41
323.705	324.574	64	41
323.812	324.574	67	45
323.919	324.574	70	42
324.026	324.574	73	44
324.133	324.574	76	45
324.99	331.419	49	40
325.205	331.205	52	36
325.419	330.99	55	36
325.633	330.776	58	36
325.848	330.562	61	35
326.062	330.348	64	36
326.276	330.133	67	37
326.49	329.919	70	38
326.705	329.705	73	39
326.919	329.49	76	40
327.133	329.276	79	40
327.348	329.062	82	41
327.562	328.848	85	42
327.776	328.633	88	43
327.99	328.419	91	44
328.205	335.276	94	46
328.419	335.276	91	46
328.633	335.276	88	45
328.848	335.276	85	45
329.062	335.276	82	44
329.276	335.276	79	44
329.49	335.276	76	43
329.705	335.276	73	43
329.919	335.276	70	42
330.133	335.276	67	42
330.348	335.276	64	41
330.562	335.276	61	40
330.776	335.276	58	38
330.99	335.276	55	38
331.205	335.276	52	37
331.419	335.276	49	36
331.633	335.276	46	35
331.848	335.276	43	35
332.705	335.276	40	36
333.562	335.276	37	35
334.419	335.276	34	34
335.276	336.99	31	34
336.99	342.026	36	34
336.99	341.276	43	34
336.99	341.276	46	34
336.99	341.276	48	34
336.99	341.276	52	34
338.705	342.133	55	34
338.705	342.133	58	34
338.705	342.133	60	34
338.705	342.133	64	34
339.562	342.133	67	34
339.562	342.133	70	34
339.562	342.133	72	34
339.562	342.133	76	34
340.419	342.133	79	34
340.419	342.133	82	34
340.419	342.133	84	34
340.419	342.133	88	34
341.276	342.133	43	34
341.276	342.133	46	34
341.276	342.133	48	34
341.276	342.133	52	34
342.026	342.133	36	34
342.133	342.549	29	39
342.133	342.549	41	39
342.237	342.342	48	40
342.342	342.445	53	37
342.445	342.549	56	37
342.549	342.652	60	40
342.652	342.755	61	38
342.755	342.858	60	38
342.858	342.962	58	38
342.962	343.065	56	40
343.065	343.169	58	37
343.169	343.273	56	37
343.273	343.376	55	37
343.376	343.481	53	40
343.481	343.585	55	37
343.585	343.689	56	37
343.689	343.797	53	37
343.797	344.214	29	40
343.797	344.214	41	40
343.902	344.006	48	40
344.006	344.11	53	37
344.11	344.214	56	37
344.214	344.319	60	40
344.319	344.423	61	38
344.423	344.529	60	38
344.529	344.635	58	38
344.529	344.635	68	51
344.529	344.635	72	51
344.635	344.739	56	40
344.635	345.051	68	56
344.635	345.051	72	56
344.739	344.843	58	37
344.843	344.947	56	37
344.947	345.051	55	37
345.051	345.155	53	40
345.051	345.259	65	30
345.051	345.259	68	30
345.155	345.259	55	37
345.259	345.364	56	37
345.364	345.472	53	37
345.472	345.889	34	40
345.472	345.889	46	40
345.577	345.681	49	44
345.681	345.785	54	40
345.785	345.889	58	40
345.889	345.994	61	44
345.994	346.098	63	41
346.098	346.204	61	41
346.204	346.31	60	41
346.204	346.31	70	63
346.204	346.31	73	63
346.31	346.414	58	44
346.31	347.148	70	70
346.31	347.148	73	70
346.414	346.519	60	40
346.519	346.623	58	40
346.623	346.727	56	40
346.727	346.831	54	44
346.831	346.935	56	40
346.935	347.039	54	40
347.039	347.148	53	40
347.148	347.254	52	44
347.148	347.359	70	51
347.148	347.359	72	51
347.254	347.359	53	40
347.359	347.573	36	43
347.359	347.573	48	43
347.359	347.464	55	40
347.464	347.573	52	40
347.573	347.679	53	44
347.679	347.784	55	40
347.784	347.999	37	37
347.784	347.999	49	37
347.784	347.89	56	40
347.89	347.999	53	40
347.999	348.105	55	44
348.105	348.211	56	40
348.211	348.426	34	39
348.211	348.426	46	39
348.211	348.317	58	40
348.317	348.426	55	40
348.426	348.532	52	44
348.532	348.638	53	37
348.638	348.852	36	35
348.638	348.852	48	35
348.638	348.743	55	38
348.743	348.852	52	40
348.852	348.987	29	40
348.852	348.987	41	40
348.852	349.091	53	38
348.987	349.091	48	37
349.091	349.297	53	37
349.194	349.297	56	40
349.297	349.4	60	38
349.4	349.504	61	38
349.504	349.61	60	38
349.504	349.61	64	57
349.61	349.716	58	40
349.716	349.822	56	37
349.716	349.822	65	62
349.822	349.928	58	37
349.928	350.035	56	37
349.928	350.035	67	57
350.035	350.139	55	40
350.139	350.244	53	37
350.139	350.244	68	62
350.244	350.349	55	37
350.349	350.458	56	37
350.349	350.458	65	59
350.458	350.562	53	37
350.562	350.665	56	40
350.665	350.768	48	37
350.768	350.871	53	37
350.871	350.974	56	40
350.974	351.077	60	38
351.077	351.183	61	38
351.183	351.29	60	38
351.183	351.29	64	52
351.183	351.29	76	60
351.29	351.396	58	40
351.396	351.503	56	37
351.396	351.503	65	57
351.396	351.503	77	66
351.503	351.61	58	37
351.61	351.716	56	37
351.61	351.716	67	53
351.61	351.716	79	63
351.716	351.822	55	40
351.822	351.928	53	37
351.822	351.928	68	57
351.822	351.928	80	68
351.928	352.034	55	37
352.034	352.142	56	37
352.034	352.142	65	53
352.034	352.142	77	63
352.142	352.247	53	37
352.247	352.35	58	44
352.35	352.453	49	40
352.453	352.556	54	40
352.556	352.659	58	44
352.659	352.762	61	41
352.762	352.868	63	41
352.868	353.091	61	41
352.868	353.091	65	59
352.868	353.091	77	71
352.979	353.091	60	44
353.091	353.313	58	40
353.091	353.539	66	63
353.091	353.539	78	77
353.202	353.539	60	40
353.313	353.539	58	40
353.313	353.539	70	66
353.313	353.539	82	79
353.423	353.539	56	44
353.533	353.758	54	40
353.533	353.758	73	69
353.533	353.758	85	81
353.645	353.983	56	40
353.758	353.983	54	40
353.758	353.983	73	66
353.758	353.983	85	79
353.87	353.983	53	44
353.983	354.44	52	40
353.983	354.44	73	71
353.983	354.44	85	83
354.093	354.44	53	40
354.203	354.44	55	40
354.311	354.44	56	44
354.42	354.856	58	40
354.42	355.311	72	64
354.42	355.311	84	78
354.528	354.856	56	40
354.637	354.856	55	40
354.746	354.856	53	44
354.856	355.076	52	40
354.966	355.311	53	40
355.076	355.311	52	40
355.186	355.311	49	44
355.295	355.77	48	37
355.295	355.77	64	64
355.295	355.77	76	64
355.405	355.77	46	38
355.515	355.77	44	40
355.625	355.77	43	40
355.735	356.602	41	44
355.735	355.943	65	57
355.735	356.602	77	57
355.839	356.25	60	41
355.943	356.353	65	44
356.046	356.457	68	46
356.148	356.602	72	43
356.25	356.602	60	45
356.353	356.602	65	46
356.457	356.566	53	52
356.457	356.566	56	52
356.457	356.602	68	48
356.566	357.288	53	65
356.566	357.288	56	65
356.669	357.081	60	46
356.773	357.184	65	47
356.875	357.288	68	49
356.978	357.397	72	50
357.081	357.397	60	52
357.184	357.397	65	53
357.288	357.397	53	54
357.288	357.397	56	54
357.288	357.397	68	38
357.397	358.247	48	66
357.397	358.247	53	66
357.397	358.247	56	66
357.502	357.925	59	51
357.607	358.032	62	52
357.713	358.139	68	52
357.819	358.247	71	54
357.925	358.247	59	52
358.032	358.247	62	52
358.139	358.247	68	52
358.247	358.698	48	48
358.247	358.698	52	48
358.247	358.698	55	48
358.247	358.698	71	54
358.354	358.698	59	52
358.46	358.698	64	50
358.567	358.698	67	49
358.673	359.092	72	52
358.778	359.092	60	46
358.883	359.092	64	44
358.988	359.092	67	38
359.092	359.921	36	42
359.092	359.921	48	42
359.195	359.606	60	38
359.299	359.71	64	40
359.402	359.814	67	42
359.504	359.921	72	43
359.606	359.921	60	45
359.71	359.921	64	46
359.814	359.921	55	60
359.814	359.921	58	60
359.814	359.921	67	48
359.921	360.641	55	68
359.921	360.641	58	68
360.024	360.434	60	46
360.127	360.537	64	47
360.23	360.641	67	49
360.332	360.749	72	50
360.434	360.749	60	52
360.537	360.749	64	53
360.641	360.749	55	61
360.641	360.749	58	61
360.641	360.749	67	38
360.749	361.597	53	58
360.749	361.597	55	58
360.749	361.597	58	69
360.854	361.277	60	51
360.96	361.384	64	52
361.065	361.49	67	52
361.171	361.597	72	54
361.277	361.597	60	52
361.384	361.597	64	52
361.49	361.597	67	52
361.597	362.021	53	47
361.597	362.021	56	52
361.597	362.021	72	53
361.704	362.021	60	52
361.81	362.021	64	50
361.916	362.021	67	49
362.021	362.44	72	47
362.126	362.44	60	46
362.231	362.44	65	44
362.336	362.44	68	38
362.44	363.272	41	45
362.44	363.272	53	45
362.543	362.955	65	38
362.647	363.059	69	40
362.75	363.163	72	42
362.853	363.272	77	43
362.955	363.272	65	45
363.059	363.272	69	46
363.163	363.272	60	59
363.163	363.272	63	59
363.163	363.272	72	48
363.272	363.995	60	68
363.272	363.995	63	68
363.375	363.787	65	46
363.479	363.891	69	47
363.582	363.995	72	49
363.685	364.103	77	50
363.787	364.103	65	52
363.891	364.103	69	53
363.995	364.103	60	66
363.995	364.103	63	66
363.995	364.103	72	54
364.103	365.151	58	72
364.103	365.151	60	72
364.103	365.151	63	72
364.209	364.631	65	50
364.314	364.736	69	50
364.42	364.842	72	50
364.525	364.947	77	55
364.631	364.922	65	53
364.736	364.922	69	52
364.842	364.947	72	52
364.947	365.049	65	54
364.947	365.049	69	54
365.049	365.151	77	54
365.151	365.359	58	64
365.151	365.359	61	64
365.151	365.255	65	53
365.151	365.255	70	53
365.255	365.359	77	52
365.359	365.571	56	61
365.359	365.571	60	61
365.359	365.465	65	52
365.359	365.465	72	52
365.465	365.571	77	51
365.571	365.787	55	59
365.571	365.787	58	59
365.571	365.679	65	50
365.571	365.679	73	50
365.679	365.787	77	50
365.787	366.625	48	56
365.787	366.515	53	56
365.787	366.515	56	56
365.891	366.307	60	52
365.995	366.411	65	49
366.099	366.515	68	50
366.203	366.625	72	56
366.307	366.625	60	50
366.411	366.625	65	50
366.515	366.625	53	56
366.515	366.625	56	56
366.515	366.625	68	50
366.625	367.458	48	63
366.625	367.348	55	63
366.625	367.458	58	63
366.625	367.038	72	56
366.729	367.141	60	52
366.832	367.348	67	52
366.935	367.458	70	52
367.038	367.458	72	56
367.141	367.458	60	52
367.245	367.458	64	52
367.348	367.458	52	53
367.348	367.458	55	53
367.348	367.458	67	52
367.458	367.77	53	56
367.458	367.562	60	59
367.458	368.311	65	59
367.458	368.311	68	59
367.458	368.311	72	59
367.562	368.311	60	49
367.666	367.975	56	49
367.77	368.079	53	49
367.873	368.184	48	53
367.975	368.311	56	49
368.079	368.311	53	49
368.184	368.311	48	49
368.184	368.293	77	69
368.184	368.293	80	69
368.293	368.602	44	53
368.293	369.014	77	74
368.293	369.014	80	74
368.396	369.122	53	49
368.499	368.806	48	49
368.602	368.91	44	49
368.704	369.014	41	53
368.806	369.122	48	49
368.91	369.122	44	49
369.014	369.122	41	49
369.014	369.122	77	70
369.014	369.122	80	70
369.122	369.555	36	53
369.122	369.968	77	75
369.122	369.968	80	75
369.226	369.555	41	49
369.331	369.555	44	49
369.435	369.555	48	49
369.54	369.749	47	53
369.645	369.854	48	49
369.749	369.958	47	49
369.854	369.968	48	49
369.958	370.791	47	53
369.958	370.791	76	68
369.958	370.791	79	68
370.063	370.271	48	49
370.167	370.583	43	49
370.271	370.479	48	49
370.375	370.791	40	53
370.479	370.687	48	49
370.583	370.791	43	49
370.687	370.791	48	49
370.791	371.648	36	56
370.896	371.208	40	49
371.0	371.312	43	49
371.104	371.416	48	49
371.208	371.648	40	53
371.312	371.629	43	49
371.416	371.648	48	49
371.52	371.648	52	49
371.52	371.629	79	75
371.52	371.629	82	75
371.629	372.467	43	53
371.629	372.358	79	81
371.629	372.358	82	81
371.734	372.046	48	49
371.838	372.15	52	49
371.942	372.254	55	49
372.046	372.467	48	53
372.15	372.467	52	49
372.254	372.467	55	49
372.358	372.467	60	49
372.358	372.467	79	77
372.358	372.467	82	77
372.467	372.896	53	59
372.467	373.303	79	82
372.467	373.303	82	82
372.571	372.896	56	49
372.675	372.896	60	49
372.778	372.896	65	49
372.881	373.087	64	53
372.984	373.19	65	49
373.087	373.294	64	49
373.19	373.303	65	49
373.294	374.124	64	53
373.294	374.124	77	74
373.294	374.124	80	74
373.398	373.605	65	49
373.501	373.917	60	49
373.605	373.813	65	49
373.709	374.124	56	53
373.813	374.02	65	49
373.917	374.124	60	49
374.02	374.124	65	49
374.124	374.976	53	61
374.228	374.537	57	53
374.331	374.641	60	53
374.435	374.744	65	53
374.537	374.976	57	58
374.641	374.958	60	53
374.744	374.976	65	53
374.849	374.976	69	53
374.849	374.958	84	82
374.849	374.958	87	82
374.958	375.795	60	58
374.958	375.687	84	89
374.958	375.687	87	89
375.062	375.374	65	53
375.166	375.479	69	53
375.27	375.583	72	53
375.374	375.795	65	58
375.479	375.795	69	53
375.583	375.795	72	53
375.687	375.795	77	53
375.687	375.795	84	84
375.687	375.795	87	84
375.795	376.213	69	67
375.795	377.044	84	90
375.795	377.478	87	90
375.9	376.109	77	53
376.004	376.228	76	53
376.109	376.228	77	53
376.213	376.422	69	58
376.318	376.527	77	53
376.422	376.631	69	53
376.527	376.641	77	53
376.631	377.478	69	57
376.734	376.941	77	56
376.837	377.478	70	56
376.837	377.252	82	79
376.837	377.478	85	79
376.941	377.148	77	55
377.044	377.478	72	54
377.044	377.46	80	77
377.044	377.478	84	77
377.148	377.356	77	53
377.252	377.478	73	52
377.252	377.478	79	73
377.252	377.478	82	73
377.356	377.46	77	52
377.46	378.282	60	52
377.46	378.177	77	82
377.46	378.177	80	82
377.563	378.3	65	47
377.666	378.3	68	47
377.769	377.974	72	47
377.872	378.075	71	52
377.974	378.177	72	47
378.075	378.3	71	47
378.177	378.3	72	47
378.177	378.3	77	79
378.177	378.3	80	79
378.177	378.3	89	79
378.282	378.698	60	52
378.282	379.011	79	82
378.282	379.121	82	82
378.282	379.121	91	82
378.386	379.121	64	47
378.49	378.802	67	47
378.594	379.011	72	47
378.698	379.121	60	52
378.802	379.121	67	47
378.907	379.121	70	47
379.011	379.121	72	47
379.011	379.121	76	79
379.011	379.121	79	79
379.011	379.121	88	79
379.121	379.955	53	52
379.121	379.33	77	73
379.121	379.434	80	73
379.121	379.955	89	73
379.226	379.434	65	38
379.226	379.434	68	38
379.226	379.33	72	61
379.33	379.538	60	39
379.33	379.538	72	39
379.33	379.955	77	62
379.434	379.641	65	41
379.434	379.641	68	41
379.434	379.949	80	63
379.538	379.744	60	45
379.538	379.744	72	45
379.538	379.744	84	68
379.641	379.847	65	44
379.641	379.847	68	44
379.641	379.955	85	65
379.744	379.949	60	45
379.744	379.949	72	45
379.744	379.955	84	66
379.847	379.955	65	45
379.847	379.955	68	45
379.847	379.955	82	65
379.949	380.153	60	46
379.949	380.153	72	46
379.949	380.153	80	68
380.051	380.257	65	46
380.051	380.257	68	46
380.051	380.786	82	67
380.153	380.361	60	45
380.153	380.361	72	45
380.153	380.572	80	66
380.257	380.466	65	45
380.257	380.466	68	45
380.257	380.466	79	65
380.361	380.572	60	45
380.361	380.572	72	45
380.361	380.679	77	64
380.466	380.679	65	44
380.466	380.679	68	44
380.466	380.786	79	63
380.572	380.786	60	44
380.572	380.786	72	44
380.572	380.786	80	63
380.679	380.786	65	43
380.679	380.786	68	43
380.679	380.786	77	62
380.786	381.655	53	54
380.921	381.132	65	38
380.921	381.132	68	38
380.921	381.027	72	61
381.027	381.236	60	39
381.027	381.236	72	39
381.027	381.655	77	62
381.132	381.34	65	41
381.132	381.34	68	41
381.132	381.649	80	63
381.236	381.443	60	45
381.236	381.443	72	45
381.236	381.443	84	68
381.34	381.546	65	44
381.34	381.546	68	44
381.34	381.655	85	65
381.443	381.649	60	45
381.443	381.649	72	45
381.443	381.655	84	66
381.546	381.655	65	45
381.546	381.655	68	45
381.546	381.655	82	65
381.649	381.854	60	46
381.649	381.854	72	46
381.649	381.854	80	68
381.751	381.958	65	46
381.751	381.958	68	46
381.751	382.486	82	67
381.854	382.062	60	45
381.854	382.062	72	45
381.854	382.273	80	66
381.958	382.167	65	45
381.958	382.167	68	45
381.958	382.167	79	65
382.062	382.273	60	45
382.062	382.273	72	45
382.062	382.379	77	64
382.167	382.379	65	44
382.167	382.379	68	44
382.167	382.486	79	63
382.273	382.486	60	44
382.273	382.486	72	44
382.273	382.486	80	63
382.379	382.486	65	43
382.379	382.486	68	43
382.379	382.486	77	62
382.486	383.348	44	55
382.621	382.83	54	40
382.621	382.83	56	40
382.621	383.348	78	64
382.726	382.933	51	41
382.726	382.933	60	41
382.726	383.348	84	65
382.83	383.036	54	43
382.83	383.036	56	43
382.83	383.342	87	66
382.933	383.139	51	47
382.933	383.139	60	47
382.933	383.139	90	72
383.036	383.241	54	46
383.036	383.241	56	46
383.036	383.348	92	69
383.139	383.342	51	47
383.139	383.342	60	47
383.139	383.348	90	70
383.241	383.348	54	48
383.241	383.348	56	48
383.241	383.348	89	69
383.342	383.543	51	49
383.342	383.543	60	49
383.342	383.543	87	72
383.442	383.645	54	49
383.442	383.645	56	49
383.442	384.166	89	71
383.543	383.747	51	48
383.543	383.747	60	48
383.543	383.954	87	70
383.645	383.85	54	47
383.645	383.85	56	47
383.645	383.85	85	69
383.747	383.954	51	47
383.747	383.954	60	47
383.747	384.059	84	68
383.85	384.059	54	46
383.85	384.059	56	46
383.85	384.166	85	67
383.954	384.166	51	46
383.954	384.166	60	46
383.954	384.166	87	66
384.059	384.166	54	45
384.059	384.166	56	45
384.059	384.166	84	65
384.166	385.006	44	54
384.285	384.492	54	40
384.285	384.492	56	40
384.285	385.006	78	64
384.389	384.595	51	41
384.389	384.595	60	41
384.389	385.006	84	65
384.492	384.697	54	43
384.492	384.697	56	43
384.492	385.0	87	66
384.595	384.798	51	47
384.595	384.798	60	47
384.595	384.798	90	72
384.697	384.9	54	46
384.697	384.9	56	46
384.697	385.006	92	69
384.798	385.0	51	47
384.798	385.0	60	47
384.798	385.006	90	70
384.9	385.006	54	48
384.9	385.006	56	48
384.9	385.006	89	69
385.0	385.202	51	49
385.0	385.202	60	49
385.0	385.202	87	72
385.101	385.305	54	49
385.101	385.305	56	49
385.101	385.83	89	71
385.202	385.408	51	48
385.202	385.408	60	48
385.202	385.83	87	70
385.305	385.512	54	47
385.305	385.512	56	47
385.305	385.83	85	69
385.408	385.617	51	47
385.408	385.617	60	47
385.408	385.83	84	68
385.512	385.723	54	46
385.512	385.723	56	46
385.512	385.83	82	67
385.617	385.83	51	46
385.617	385.83	60	46
385.617	385.83	80	66
385.723	385.83	54	45
385.723	385.83	56	45
385.723	385.83	78	65
385.83	386.655	49	56
385.83	386.655	77	68
385.935	386.142	61	42
385.935	386.142	65	42
385.935	386.655	80	67
386.038	386.244	56	43
386.038	386.244	68	43
386.038	386.655	85	68
386.142	386.347	61	45
386.142	386.347	65	45
386.142	386.649	89	69
386.244	386.448	56	49
386.244	386.448	68	49
386.244	386.448	92	75
386.347	386.549	61	48
386.347	386.549	65	48
386.347	386.655	94	72
386.448	386.649	56	49
386.448	386.649	68	49
386.448	386.655	92	73
386.549	386.655	61	50
386.549	386.655	65	50
386.549	386.655	90	72
386.649	386.851	56	51
386.649	386.851	68	51
386.649	386.851	89	75
386.75	386.953	61	51
386.75	386.953	65	51
386.75	387.476	90	74
386.851	387.055	56	50
386.851	387.055	68	50
386.851	387.263	89	73
386.953	387.159	61	49
386.953	387.159	65	49
386.953	387.159	87	72
387.055	387.263	56	49
387.055	387.263	68	49
387.055	387.369	85	71
387.159	387.369	61	48
387.159	387.369	65	48
387.159	387.476	87	70
387.263	387.476	56	48
387.263	387.476	68	48
387.263	387.476	89	69
387.369	387.476	61	47
387.369	387.476	65	47
387.369	387.476	85	68
387.476	388.318	49	56
387.595	387.803	61	42
387.595	387.803	65	42
387.595	388.318	80	67
387.699	388.318	56	43
387.699	387.906	68	43
387.699	388.318	85	68
387.803	388.318	61	45
387.803	388.318	65	45
387.803	388.312	89	69
387.906	388.318	68	49
387.906	388.11	92	76
388.008	388.318	94	74
388.11	388.318	73	55
388.11	388.318	92	75
388.211	388.318	90	74
388.312	389.138	77	58
388.312	388.717	89	78
388.412	388.615	90	77
388.513	389.138	80	62
388.513	388.925	92	77
388.615	388.821	90	76
388.717	388.925	85	66
388.717	389.031	89	75
388.821	389.138	90	75
388.925	389.138	85	69
388.925	389.138	92	74
389.031	389.138	89	74
389.138	389.98	82	80
389.138	389.98	85	80
389.243	389.454	90	70
389.349	389.559	92	73
389.454	389.662	90	70
389.559	389.98	92	65
389.662	389.872	90	63
389.765	389.98	80	66
389.765	389.98	84	66
389.765	389.98	89	59
389.872	389.98	90	59
389.98	390.422	79	68
389.98	390.422	82	68
390.088	390.304	88	58
390.196	390.422	89	60
390.304	390.422	88	57
390.412	390.844	80	64
390.412	390.844	84	64
390.52	390.736	89	57
390.628	390.844	91	60
390.736	390.844	89	56
390.844	391.688	82	80
390.844	391.688	85	80
390.949	391.16	90	70
391.054	391.265	92	73
391.16	391.369	90	70
391.265	391.688	92	65
391.369	391.58	90	63
391.472	391.688	80	66
391.472	391.688	84	66
391.472	391.688	89	59
391.58	391.688	90	59
391.688	392.13	79	68
391.688	392.13	82	68
391.796	392.012	88	58
391.904	392.13	89	60
392.012	392.13	88	57
392.12	392.552	80	64
392.12	392.552	84	64
392.228	392.444	89	57
392.336	392.552	91	60
392.444	392.552	89	56
392.552	393.396	82	80
392.552	393.396	85	80
392.657	392.867	90	70
392.762	392.973	92	73
392.867	393.076	90	70
392.973	393.396	92	73
393.076	393.396	90	70
393.18	393.396	80	66
393.18	393.396	84	66
393.18	393.396	89	59
393.288	393.396	91	59
393.396	393.838	79	68
393.396	393.838	82	68
393.504	393.72	88	58
393.612	393.838	89	60
393.72	393.838	88	58
393.828	394.259	77	65
393.828	394.259	80	65
393.936	394.151	85	58
394.044	394.259	87	61
394.151	394.259	85	57
394.259	394.701	76	70
394.259	394.701	79	70
394.367	394.583	84	60
394.475	394.701	85	62
394.583	394.701	84	60
394.691	395.123	74	70
394.691	395.123	77	70
394.799	395.015	83	61
394.907	395.123	84	65
395.015	395.123	83	62
395.123	395.564	73	75
395.123	395.554	77	75
395.231	395.446	82	65
395.339	395.564	84	67
395.446	395.564	82	64
395.554	395.986	72	75
395.554	395.986	77	75
395.662	395.878	80	66
395.77	395.986	82	69
395.878	395.986	80	67
395.986	396.849	71	76
396.094	396.31	80	67
396.202	396.428	82	70
396.31	396.428	80	68
396.418	396.849	74	75
396.526	396.741	79	66
396.634	396.849	80	69
396.741	396.849	79	64
396.849	397.713	60	72
396.849	397.291	68	72
396.849	397.713	72	72
396.957	397.173	77	64
397.065	397.291	79	65
397.173	397.291	77	62
397.281	397.713	67	68
397.389	397.605	76	60
397.497	397.713	77	62
397.605	397.713	76	57
397.713	398.557	46	61
397.713	398.557	49	61
397.713	398.557	54	72
397.818	398.029	61	66
397.923	398.134	73	73
398.029	398.237	61	59
398.134	398.341	73	71
398.237	398.449	61	58
398.341	398.557	44	50
398.341	398.557	48	50
398.341	398.557	53	59
398.341	398.557	73	63
398.449	398.557	61	59
398.557	398.998	43	51
398.557	398.998	46	51
398.557	398.998	52	61
398.664	398.998	61	60
398.772	398.998	73	71
398.88	398.998	72	66
398.988	399.42	44	48
398.988	399.42	48	48
398.988	399.42	53	57
398.988	399.42	70	68
399.096	399.42	68	66
399.204	399.42	67	65
399.312	399.42	65	58
399.42	400.265	46	61
399.42	400.265	49	61
399.42	400.265	54	72
399.525	399.736	73	68
399.63	399.841	85	75
399.736	399.945	73	67
399.841	400.049	85	74
399.945	400.157	73	67
400.049	400.265	44	50
400.049	400.265	48	50
400.049	400.265	53	59
400.049	400.265	85	69
400.157	400.265	73	60
400.265	400.707	43	51
400.265	400.707	46	54
400.265	400.707	52	65
400.373	400.707	73	61
400.481	400.707	85	73
400.589	400.707	84	66
400.697	401.128	44	48
400.697	401.128	48	48
400.697	401.128	53	57
400.697	401.128	82	70
400.805	401.128	80	68
400.913	401.128	79	67
401.021	401.128	77	65
401.128	401.974	46	61
401.128	401.974	49	61
401.128	401.974	54	72
401.234	401.444	61	66
401.339	401.549	73	73
401.444	401.654	61	66
401.549	401.758	73	73
401.654	401.866	61	66
401.758	401.974	44	50
401.758	401.974	48	50
401.758	401.974	53	59
401.758	401.974	73	68
401.866	401.974	61	61
401.974	402.415	43	51
401.974	402.415	46	61
401.974	402.415	52	61
402.082	402.297	73	68
402.189	402.415	61	60
402.297	402.415	73	68
402.405	402.823	41	49
402.405	402.823	44	49
402.405	402.823	49	58
402.51	402.719	85	78
402.614	402.823	73	69
402.719	402.823	85	75
402.823	403.256	40	53
402.823	403.256	43	53
402.823	403.256	48	63
402.929	403.14	84	76
403.035	403.256	72	71
403.14	403.256	84	74
403.246	403.669	38	53
403.246	403.669	41	53
403.246	403.669	44	53
403.246	403.669	47	63
403.352	403.563	83	77
403.457	403.669	71	71
403.563	403.669	83	74
403.669	404.099	40	56
403.669	404.099	43	56
403.669	404.099	46	67
403.774	403.984	82	78
403.879	404.099	70	69
403.984	404.099	82	74
404.09	404.511	41	67
404.09	404.511	44	67
404.195	404.405	80	77
404.3	404.511	68	71
404.3	404.511	72	71
404.405	404.511	80	73
404.511	405.362	35	66
404.511	404.943	44	66
404.616	404.828	80	75
404.722	404.943	68	68
404.722	404.943	74	68
404.828	404.943	80	72
404.933	405.362	42	64
405.04	405.255	79	73
405.147	405.362	67	66
405.147	405.362	74	66
405.255	405.362	79	73
405.362	406.219	36	61
405.362	405.8	41	61
405.469	405.683	77	71
405.576	405.8	65	66
405.576	405.8	68	66
405.683	405.8	77	71
405.79	406.219	40	59
405.897	406.112	76	72
406.005	406.219	64	66
406.005	406.219	67	66
406.112	406.219	76	69
406.219	406.663	29	59
406.219	406.663	32	59
406.219	406.663	36	59
406.219	406.663	41	70
406.219	406.429	65	65
406.219	406.534	68	65
406.219	406.663	77	77
406.324	406.663	60	74
406.429	406.663	65	76
406.534	406.663	68	78
406.638	406.846	72	80
406.742	407.051	48	59
406.742	407.051	73	76
406.846	407.051	53	62
406.846	407.051	72	76
406.949	407.051	56	64
406.949	407.051	70	76
407.051	407.256	60	70
407.051	407.256	68	77
407.154	407.458	61	64
407.154	407.458	70	71
407.256	407.458	60	64
407.256	407.458	68	72
407.36	407.463	58	64
407.36	407.463	67	72
407.463	407.88	56	70
407.463	407.88	65	78
407.567	407.88	55	63
407.567	407.88	63	73
407.671	407.88	53	63
407.671	407.88	61	73
407.775	407.88	51	63
407.775	407.88	60	72
407.88	408.326	49	67
407.88	408.326	58	75
407.986	408.326	48	60
407.986	408.326	56	70
408.091	408.326	46	60
408.091	408.326	54	70
408.198	408.326	44	60
408.198	408.326	53	70
408.305	408.514	43	71
408.305	408.524	52	73
408.415	408.524	44	65
408.524	408.634	46	73
408.524	408.689	48	69
408.524	408.689	52	69
408.524	408.689	54	69
408.524	408.689	60	82
408.634	408.744	44	69
408.744	408.854	43	73
408.744	408.909	48	61
408.744	408.909	52	61
408.744	408.909	58	73
408.744	408.909	60	73
408.854	408.964	41	73
408.964	409.074	40	72
408.964	409.129	48	60
408.964	409.129	52	60
408.964	409.129	58	71
408.964	409.129	60	71
409.074	409.184	38	72
409.184	409.294	36	71
409.184	409.349	48	61
409.184	409.349	52	61
409.184	409.349	58	72
409.184	409.349	60	72
409.294	409.404	34	71
409.404	409.513	32	70
409.404	409.568	48	61
409.404	409.568	52	61
409.404	409.568	58	72
409.404	409.568	60	72
409.513	409.623	31	70
409.623	410.043	29	70
409.623	410.043	32	70
409.623	410.043	36	70
409.623	410.043	41	70
409.623	410.043	48	77
409.623	410.043	53	77
409.623	410.043	56	77
409.623	410.043	60	77
409.729	410.043	72	74
409.834	410.043	77	76
409.939	410.043	80	78
410.043	410.25	84	80
410.147	410.484	60	59
410.147	410.484	85	76
410.25	410.484	65	62
410.25	410.484	84	76
410.352	410.484	68	64
410.352	410.484	82	76
410.455	410.661	72	70
410.455	410.661	80	77
410.558	410.917	73	64
410.558	410.917	82	71
410.661	410.917	72	64
410.661	410.917	80	72
410.765	410.917	70	64
410.765	410.917	79	72
410.869	411.287	68	70
410.869	411.287	77	78
410.973	411.287	67	63
410.973	411.287	75	73
411.077	411.287	65	63
411.077	411.287	73	73
411.182	411.287	63	63
411.182	411.287	72	72
411.287	411.742	61	67
411.287	411.742	70	75
411.393	411.742	60	60
411.393	411.742	68	70
411.498	411.742	58	60
411.498	411.742	67	70
411.604	411.742	56	60
411.604	411.742	65	70
411.711	411.911	55	71
411.711	411.931	64	73
411.821	411.931	56	65
411.931	412.041	58	73
411.931	412.096	60	58
411.931	412.096	64	69
411.931	412.096	67	69
411.931	412.096	72	82
412.041	412.15	56	69
412.15	412.26	55	73
412.15	412.315	60	51
412.15	412.315	64	61
412.15	412.315	70	73
412.15	412.315	72	73
412.26	412.37	53	73
412.37	412.48	52	72
412.37	412.535	60	50
412.37	412.535	64	59
412.37	412.535	70	70
412.37	412.535	72	70
412.48	412.59	50	72
412.59	412.7	48	71
412.59	412.755	60	51
412.59	412.755	64	61
412.59	412.755	70	73
412.59	412.755	72	73
412.7	412.81	46	71
412.81	412.92	44	70
412.81	412.975	60	51
412.81	412.975	64	60
412.81	412.975	70	71
412.81	412.975	72	71
412.92	413.03	43	70
413.03	413.516	41	67
413.03	413.516	60	51
413.03	413.516	65	61
413.03	413.516	68	73
413.03	413.516	72	73
413.165	413.516	43	60
413.271	413.516	44	60
413.378	413.516	46	60
413.485	413.685	48	71
413.595	413.705	50	65
413.705	413.815	52	73
413.705	413.87	72	63
413.705	413.87	77	75
413.705	413.87	80	75
413.705	413.87	84	90
413.815	413.925	53	69
413.925	414.034	55	73
413.925	414.089	72	56
413.925	414.089	76	67
413.925	414.089	82	80
413.925	414.089	84	80
414.034	414.144	53	73
414.144	414.254	52	72
414.144	414.309	72	55
414.144	414.309	76	64
414.144	414.309	82	77
414.144	414.309	84	77
414.254	414.364	50	72
414.364	414.474	48	71
414.364	414.529	72	56
414.364	414.529	76	67
414.364	414.529	82	80
414.364	414.529	84	80
414.474	414.584	46	71
414.584	414.694	44	70
414.584	414.749	72	56
414.584	414.749	76	66
414.584	414.749	82	78
414.584	414.749	84	78
414.694	414.804	43	70
414.804	415.29	41	67
414.804	415.29	72	56
414.804	415.29	77	67
414.804	415.29	80	80
414.804	415.29	84	80
414.939	415.29	43	60
415.045	415.29	44	60
415.152	415.29	46	60
415.259	415.456	48	71
415.369	415.479	50	65
415.479	415.589	52	73
415.479	415.644	60	58
415.479	415.644	65	69
415.479	415.644	68	69
415.479	415.644	72	82
415.589	415.699	53	69
415.699	415.808	55	73
415.699	415.863	60	51
415.699	415.863	64	61
415.699	415.863	70	73
415.699	415.863	72	73
415.808	415.918	53	73
415.918	416.028	52	72
415.918	416.083	60	50
415.918	416.083	64	59
415.918	416.083	70	70
415.918	416.083	72	70
416.028	416.138	50	72
416.138	416.248	48	71
416.138	416.303	60	51
416.138	416.303	64	61
416.138	416.303	70	73
416.138	416.303	72	73
416.248	416.358	46	71
416.358	416.468	44	70
416.358	416.523	60	51
416.358	416.523	64	60
416.358	416.523	70	71
416.358	416.523	72	71
416.468	416.578	43	70
416.578	417.064	41	67
416.578	417.064	60	73
416.578	417.064	65	73
416.578	416.82	68	73
416.578	417.033	72	73
416.713	417.064	67	74
416.82	417.064	68	75
416.926	417.064	70	76
417.033	417.221	72	77
417.142	417.25	74	78
417.25	417.41	36	60
417.25	417.41	41	60
417.25	417.41	44	60
417.25	417.41	48	72
417.25	417.357	76	79
417.357	417.464	77	80
417.464	417.623	36	53
417.464	417.623	40	63
417.464	417.623	43	63
417.464	417.623	46	63
417.464	417.623	48	76
417.464	417.57	79	80
417.57	417.676	77	79
417.676	417.836	36	53
417.676	417.836	40	62
417.676	417.836	43	62
417.676	417.836	46	62
417.676	417.836	48	74
417.676	417.783	76	79
417.783	417.89	73	78
417.89	418.051	36	52
417.89	418.051	40	52
417.89	418.051	43	52
417.89	418.051	46	62
417.89	418.051	48	76
417.89	417.997	72	77
417.997	418.105	70	76
418.105	418.268	36	50
418.105	418.268	40	59
418.105	418.268	43	59
418.105	418.268	46	59
418.105	418.268	48	71
418.105	418.214	68	75
418.214	418.322	67	74
418.322	418.808	36	56
418.322	418.808	41	56
418.322	418.808	44	56
418.322	418.808	48	67
418.322	418.808	65	73
418.458	418.808	67	74
418.564	418.808	68	75
418.671	418.808	70	76
418.778	418.964	72	77
418.885	418.992	74	78
418.992	419.152	48	60
418.992	419.152	53	60
418.992	419.152	56	60
418.992	419.152	60	72
418.992	419.099	76	79
419.099	419.206	77	80
419.206	419.364	48	53
419.206	419.364	52	63
419.206	419.364	55	63
419.206	419.364	58	63
419.206	419.364	60	76
419.206	419.312	79	80
419.312	419.417	77	79
419.417	419.577	48	53
419.417	419.577	52	62
419.417	419.577	55	62
419.417	419.577	58	62
419.417	419.577	60	74
419.417	419.524	76	79
419.524	419.63	73	78
419.63	419.792	48	52
419.63	419.792	52	52
419.63	419.792	55	52
419.63	419.792	58	62
419.63	419.792	60	76
419.63	419.738	72	77
419.738	419.846	70	76
419.846	420.009	48	50
419.846	420.009	52	59
419.846	420.009	55	59
419.846	420.009	58	59
419.846	420.009	60	71
419.846	419.955	68	75
419.955	420.064	67	74
420.064	420.514	48	56
420.064	420.514	53	56
420.064	420.514	56	56
420.064	420.514	60	67
420.064	420.514	65	73
420.169	420.514	67	74
420.273	420.514	68	75
420.378	420.514	70	76
420.484	420.668	72	77
420.59	420.697	74	78
420.697	420.856	36	54
420.697	420.856	41	54
420.697	420.856	44	54
420.697	420.856	48	64
420.697	420.803	76	79
420.803	420.909	77	80
420.909	421.119	36	47
420.909	421.119	40	56
420.909	421.119	43	56
420.909	421.119	46	56
420.909	421.119	48	68
420.909	421.119	79	80
421.014	421.224	78	76
421.119	421.329	36	47
421.119	421.329	40	55
421.119	421.329	43	55
421.119	421.329	46	55
421.119	421.329	48	66
421.119	421.329	79	79
421.224	421.335	78	73
421.329	421.537	36	46
421.329	421.537	40	46
421.329	421.537	43	46
421.329	421.537	46	55
421.329	421.537	48	68
421.329	421.537	79	77
421.433	421.641	78	72
421.537	421.745	36	45
421.537	421.745	40	53
421.537	421.745	43	53
421.537	421.745	46	53
421.537	421.745	48	63
421.537	421.745	79	75
421.641	421.775	78	70
421.745	421.952	36	47
421.745	421.952	40	56
421.745	421.952	43	56
421.745	421.952	46	56
421.745	421.952	48	68
421.745	421.952	79	77
421.848	422.055	78	72
421.952	422.159	36	47
421.952	422.159	40	55
421.952	422.159	43	55
421.952	422.159	46	55
421.952	422.159	48	66
421.952	422.159	79	76
422.055	422.201	78	72
422.159	422.366	36	46
422.159	422.366	40	46
422.159	422.366	43	46
422.159	422.366	46	55
422.159	422.366	48	68
422.159	422.366	79	75
422.262	422.469	78	71
422.366	422.573	36	45
422.366	422.573	40	53
422.366	422.573	43	53
422.366	422.573	46	53
422.366	422.573	48	63
422.366	422.573	79	74
422.469	422.579	78	71
422.573	422.779	36	47
422.573	422.779	40	56
422.573	422.779	43	56
422.573	422.779	46	56
422.573	422.779	48	68
422.573	423.438	79	80
422.676	423.438	77	79
422.779	422.987	36	47
422.779	422.987	40	55
422.779	422.987	43	55
422.779	422.987	46	55
422.779	422.987	48	66
422.779	423.438	76	79
422.882	423.438	73	78
422.987	423.197	36	46
422.987	423.197	40	46
422.987	423.197	43	46
422.987	423.197	46	55
422.987	423.25	48	68
422.987	423.438	72	77
423.091	423.438	70	76
423.197	423.41	36	45
423.197	423.438	40	53
423.197	423.438	43	53
423.197	423.438	46	53
423.197	423.438	68	75
423.25	423.438	48	63
423.303	423.438	67	74
423.41	424.094	29	57
423.41	424.094	32	57
423.41	424.094	36	57
423.41	424.094	41	69
423.41	424.094	56	86
423.41	424.094	60	86
423.41	424.762	65	101
424.094	424.762	29	57
424.094	424.762	32	57
424.094	424.762	36	57
424.094	424.762	41	69
424.094	424.762	56	80
424.094	424.762	60	80
424.094	424.762	68	96
424.762	424.915	36	40
424.762	424.915	48	40
424.762	424.838	55	50
424.762	424.838	58	50
424.762	424.838	67	50
424.915	425.064	36	36
424.915	424.99	55	50
424.915	424.99	58	50
424.915	424.99	64	50
425.064	425.214	36	36
425.064	425.139	55	46
425.064	425.139	58	46
425.064	425.139	60	46
425.214	425.365	36	36
425.214	425.29	55	46
425.214	425.29	58	46
425.214	425.29	64	46
425.365	425.517	29	40
425.365	425.517	41	40
425.365	425.441	56	50
425.365	425.441	60	50
425.365	425.441	65	50
425.517	425.665	41	37
425.517	425.591	56	47
425.517	425.591	60	47
425.665	425.815	41	37
425.665	425.74	56	47
425.665	425.74	60	47
425.665	425.74	65	47
425.815	425.965	41	37
425.815	425.89	56	47
425.815	425.89	60	47
425.815	425.89	68	47
425.965	426.114	36	40
425.965	426.114	48	40
425.965	426.04	55	50
425.965	426.04	58	50
425.965	426.04	67	50
426.114	426.261	36	36
426.114	426.188	55	50
426.114	426.188	58	50
426.114	426.188	64	50
426.261	426.41	36	36
426.261	426.336	55	46
426.261	426.336	58	46
426.261	426.336	60	46
426.41	426.559	36	36
426.41	426.484	55	46
426.41	426.484	58	46
426.41	426.484	64	46
426.559	426.708	29	40
426.559	426.708	41	40
426.559	426.633	56	50
426.559	426.633	60	50
426.559	426.633	65	50
426.708	426.856	41	37
426.708	426.782	56	47
426.708	426.782	60	47
426.856	427.004	41	38
426.856	426.93	56	49
426.856	426.93	60	49
426.856	426.93	65	49
427.004	427.152	41	39
427.004	427.078	56	50
427.004	427.078	60	50
427.004	427.078	68	50
427.152	427.304	31	44
427.152	427.228	55	55
427.152	427.228	60	55
427.152	427.228	67	55
427.304	427.456	43	39
427.304	427.38	55	50
427.304	427.38	60	50
427.304	427.38	63	50
427.456	427.611	31	38
427.456	427.533	55	49
427.456	427.533	59	49
427.456	427.533	62	49
427.611	427.766	31	38
427.611	427.689	55	48
427.611	427.689	59	48
427.611	427.689	67	48
427.766	428.077	36	48
427.766	428.077	60	60
428.233	428.271	36	53
428.233	428.284	60	75
428.271	428.31	34	55
428.284	428.336	62	78
428.31	428.349	32	57
428.336	428.388	64	80
428.349	428.388	31	61
428.388	429.05	29	57
428.388	429.05	32	57
428.388	429.05	36	57
428.388	429.05	41	69
428.388	429.05	56	86
428.388	429.05	60	86
428.388	429.697	65	101
429.05	429.697	29	57
429.05	429.697	32	57
429.05	429.697	36	57
429.05	429.697	41	69
429.05	429.697	56	80
429.05	429.697	60	80
429.05	429.697	68	96
429.697	429.851	36	40
429.697	429.851	48	40
429.697	429.774	55	50
429.697	429.774	58	50
429.697	429.774	67	50
429.851	430.001	36	36
429.851	429.926	55	50
429.851	429.926	58	50
429.851	429.926	64	50
430.001	430.151	36	36
430.001	430.076	55	46
430.001	430.076	58	46
430.001	430.076	60	46
430.151	430.301	36	36
430.151	430.226	55	46
430.151	430.226	58	46
430.151	430.226	64	46
430.301	430.454	29	40
430.301	430.454	41	40
430.301	430.377	56	50
430.301	430.377	60	50
430.301	430.377	65	50
430.454	430.601	41	37
430.454	430.527	56	47
430.454	430.527	60	47
430.601	430.751	41	37
430.601	430.676	56	47
430.601	430.676	60	47
430.601	430.676	65	47
430.751	430.9	41	37
430.751	430.825	56	47
430.751	430.825	60	47
430.751	430.825	68	47
430.9	431.048	36	40
430.9	431.048	48	40
430.9	430.974	55	50
430.9	430.974	58	50
430.9	430.974	67	50
431.048	431.194	36	36
431.048	431.121	55	50
431.048	431.121	58	50
431.048	431.121	64	50
431.194	431.341	36	36
431.194	431.267	55	46
431.194	431.267	58	46
431.194	431.267	60	46
431.341	431.488	36	36
431.341	431.415	55	46
431.341	431.415	58	46
431.341	431.415	64	46
431.488	431.638	29	40
431.488	431.638	41	40
431.488	431.563	56	50
431.488	431.563	60	50
431.488	431.563	65	50
431.638	431.785	41	37
431.638	431.711	56	47
431.638	431.711	60	47
431.785	431.933	41	38
431.785	431.859	56	49
431.785	431.859	60	49
431.785	431.859	65	49
431.933	432.08	41	39
431.933	432.007	56	50
431.933	432.007	60	50
431.933	432.007	68	50
432.08	432.232	31	44
432.08	432.156	55	55
432.08	432.156	60	55
432.08	432.156	67	55
432.232	432.384	43	39
432.232	432.308	55	50
432.232	432.308	60	50
432.232	432.308	63	50
432.384	432.539	31	38
432.384	432.461	55	49
432.384	432.461	59	49
432.384	432.461	62	49
432.539	432.695	31	38
432.539	432.617	55	48
432.539	432.617	59	48
432.539	432.617	67	48
432.695	433.005	36	48
432.695	433.005	60	60
433.161	433.213	39	63
433.161	433.213	63	75
433.213	433.264	41	66
433.213	433.264	65	78
433.264	433.316	43	68
433.264	433.316	67	80
433.316	433.978	32	57
433.316	433.978	36	57
433.316	433.978	39	57
433.316	433.978	44	69
433.316	433.978	60	86
433.316	433.978	63	86
433.316	434.626	68	101
433.978	434.626	32	57
433.978	434.626	36	57
433.978	434.626	39	57
433.978	434.626	44	69
433.978	434.626	60	80
433.978	434.626	63	80
433.978	434.626	72	96
434.626	434.776	39	40
434.626	434.776	51	40
434.626	434.701	58	50
434.626	434.701	61	50
434.626	434.701	70	50
434.776	434.924	39	36
434.776	434.85	58	50
434.776	434.85	61	50
434.776	434.85	67	50
434.924	435.072	39	36
434.924	434.998	58	46
434.924	434.998	61	46
434.924	434.998	63	46
435.072	435.22	39	36
435.072	435.146	58	46
435.072	435.146	61	46
435.072	435.146	67	46
435.22	435.371	32	40
435.22	435.371	44	40
435.22	435.296	60	50
435.22	435.296	63	50
435.22	435.296	68	50
435.371	435.517	44	37
435.371	435.444	60	47
435.371	435.444	63	47
435.517	435.665	44	37
435.517	435.591	60	47
435.517	435.591	63	47
435.517	435.591	68	47
435.665	435.812	44	37
435.665	435.739	60	47
435.665	435.739	63	47
435.665	435.739	72	47
435.812	435.961	39	40
435.812	435.961	51	40
435.812	435.887	58	50
435.812	435.887	61	50
435.812	435.887	70	50
435.961	436.108	39	36
435.961	436.035	58	50
435.961	436.035	61	50
435.961	436.035	67	50
436.108	436.255	39	36
436.108	436.182	58	46
436.108	436.182	61	46
436.108	436.182	63	46
436.255	436.402	39	36
436.255	436.328	58	46
436.255	436.328	61	46
436.255	436.328	67	46
436.402	436.551	32	40
436.402	436.551	44	40
436.402	436.476	60	50
436.402	436.476	63	50
436.402	436.476	68	50
436.551	436.697	44	37
436.551	436.624	60	47
436.551	436.624	63	47
436.697	436.844	44	37
436.697	436.771	60	47
436.697	436.771	63	47
436.697	436.771	68	47
436.844	436.991	44	37
436.844	436.918	60	47
436.844	436.918	63	47
436.844	436.918	72	47
436.991	437.141	29	42
436.991	437.141	41	42
436.991	437.066	60	52
436.991	437.066	63	52
436.991	437.066	69	52
437.141	437.289	29	37
437.141	437.215	60	52
437.141	437.215	63	52
437.141	437.215	65	52
437.289	437.437	29	38
437.289	437.363	60	48
437.289	437.363	63	48
437.289	437.363	69	48
437.437	437.585	29	38
437.437	437.511	60	49
437.437	437.511	63	49
437.437	437.511	72	49
437.585	437.736	34	43
437.585	437.736	46	43
437.585	437.661	61	54
437.585	437.661	65	54
437.585	437.661	70	54
437.736	437.884	46	40
437.736	437.81	61	52
437.736	437.81	65	52
437.884	438.032	46	42
437.884	437.958	61	53
437.884	437.958	65	53
437.884	437.958	70	53
438.032	438.18	46	42
438.032	438.106	61	54
438.032	438.106	65	54
438.032	438.106	73	54
438.18	438.331	36	48
438.18	438.256	60	60
438.18	438.256	65	60
438.18	438.256	72	60
438.331	438.481	48	43
438.331	438.406	60	60
438.331	438.406	65	60
438.331	438.406	68	60
438.481	438.63	36	42
438.481	438.555	60	53
438.481	438.555	64	53
438.481	438.555	67	53
438.63	438.78	36	42
438.63	438.705	60	53
438.63	438.705	64	53
438.63	438.705	72	53
438.78	439.083	29	48
438.78	439.083	41	48
438.78	439.083	65	70
439.234	439.285	39	63
439.234	439.285	63	75
439.285	439.336	41	66
439.285	439.336	65	78
439.336	439.386	43	68
439.336	439.386	67	80
439.386	440.043	32	57
439.386	440.043	36	57
439.386	440.043	39	57
439.386	440.043	44	69
439.386	440.043	60	86
439.386	440.043	63	86
439.386	440.683	68	101
440.043	440.683	32	57
440.043	440.683	36	57
440.043	440.683	39	57
440.043	440.683	44	69
440.043	440.683	60	80
440.043	440.683	63	80
440.043	440.683	72	96
440.683	440.833	39	40
440.683	440.833	51	40
440.683	440.758	58	50
440.683	440.758	61	50
440.683	440.758	70	50
440.833	440.979	39	36
440.833	440.906	58	50
440.833	440.906	61	50
440.833	440.906	67	50
440.979	441.128	39	36
440.979	441.053	58	46
440.979	441.053	61	46
440.979	441.053	63	46
441.128	441.276	39	36
441.128	441.202	58	46
441.128	441.202	61	46
441.128	441.202	67	46
441.276	441.426	32	40
441.276	441.426	44	40
441.276	441.351	60	50
441.276	441.351	63	50
441.276	441.351	68	50
441.426	441.574	44	37
441.426	441.5	60	47
441.426	441.5	63	47
441.574	441.722	44	37
441.574	441.648	60	47
441.574	441.648	63	47
441.574	441.648	68	47
441.722	441.87	44	37
441.722	441.796	60	47
441.722	441.796	63	47
441.722	441.796	72	47
441.87	442.019	39	40
441.87	442.019	51	40
441.87	441.945	58	50
441.87	441.945	61	50
441.87	441.945	70	50
442.019	442.166	39	36
442.019	442.092	58	50
442.019	442.092	61	50
442.019	442.092	67	50
442.166	442.313	39	36
442.166	442.239	58	46
442.166	442.239	61	46
442.166	442.239	63	46
442.313	442.459	39	36
442.313	442.386	58	46
442.313	442.386	61	46
442.313	442.386	67	46
442.459	442.611	32	40
442.459	442.611	44	40
442.459	442.535	60	50
442.459	442.535	63	50
442.459	442.535	68	50
442.611	442.76	44	37
442.611	442.685	60	47
442.611	442.685	63	47
442.76	442.909	44	37
442.76	442.835	60	47
442.76	442.835	63	47
442.76	442.835	68	47
442.909	443.058	44	37
442.909	442.984	60	47
442.909	442.984	63	47
442.909	442.984	72	47
443.058	443.209	29	42
443.058	443.209	41	42
443.058	443.133	60	52
443.058	443.133	63	52
443.058	443.133	69	52
443.209	443.357	29	37
443.209	443.283	60	52
443.209	443.283	63	52
443.209	443.283	65	52
443.357	443.505	29	38
443.357	443.431	60	48
443.357	443.431	63	48
443.357	443.431	69	48
443.505	443.652	29	38
443.505	443.578	60	49
443.505	443.578	63	49
443.505	443.578	72	49
443.652	443.804	34	43
443.652	443.804	46	43
443.652	443.728	61	54
443.652	443.728	65	54
443.652	443.728	70	54
443.804	443.953	46	40
443.804	443.878	61	52
443.804	443.878	65	52
443.953	444.102	46	42
443.953	444.027	61	53
443.953	444.027	65	53
443.953	444.027	70	53
444.102	444.251	46	42
444.102	444.176	61	54
444.102	444.176	65	54
444.102	444.176	73	54
444.251	444.402	36	48
444.251	444.326	60	60
444.251	444.326	65	60
444.251	444.326	72	60
444.402	444.551	48	43
444.402	444.477	60	60
444.402	444.477	65	60
444.402	444.477	68	60
444.551	444.7	36	42
444.551	444.626	60	53
444.551	444.626	64	53
444.551	444.626	67	53
444.7	445.407	36	42
444.7	444.775	60	53
444.7	444.775	64	53
444.7	444.775	72	53
444.849	445.407	29	54
444.849	444.919	41	54
444.849	444.988	65	70
444.919	445.477	41	45
444.919	445.407	60	65
444.988	445.547	44	49
444.988	445.407	65	63
445.058	445.617	48	52
445.058	445.407	68	62
445.129	445.687	53	67
445.129	445.268	72	62
445.198	445.407	73	58
445.268	445.407	72	62
445.338	445.407	70	57
445.407	445.547	68	65
445.477	446.036	41	45
445.477	445.967	70	60
445.547	446.106	44	49
445.547	445.827	68	60
445.617	446.176	48	52
445.617	445.757	67	54
445.687	446.247	53	67
445.687	445.896	65	63
445.757	445.967	67	54
445.827	445.967	68	57
445.896	445.967	65	54
445.967	446.176	68	67
446.036	446.595	41	45
446.036	446.525	60	63
446.106	446.664	44	49
446.106	446.525	65	63
446.176	446.734	48	52
446.176	446.525	68	60
446.247	446.805	53	67
446.247	446.386	72	63
446.316	446.525	73	59
446.386	446.525	72	61
446.455	446.525	70	61
446.525	446.664	68	64
446.595	447.085	41	45
446.595	447.085	70	61
446.664	447.085	44	49
446.664	446.944	68	60
446.734	447.085	48	52
446.734	446.874	67	54
446.805	447.085	53	67
446.805	447.014	65	63
446.874	447.085	67	54
446.944	447.085	68	57
447.014	447.085	65	54
447.085	447.224	66	67
447.154	447.713	46	45
447.154	447.643	61	63
447.224	447.782	49	49
447.224	447.643	66	63
447.294	447.852	54	52
447.294	447.643	70	62
447.365	447.922	58	67
447.365	447.504	73	63
447.434	447.643	75	61
447.504	447.643	73	63
447.574	447.643	72	61
447.643	447.782	70	64
447.713	448.203	46	45
447.713	448.203	72	60
447.782	448.203	49	49
447.782	448.203	70	60
447.852	448.203	54	52
447.852	447.992	68	54
447.922	448.203	58	67
447.922	448.062	66	63
447.992	448.203	68	54
448.062	448.203	66	57
448.132	448.203	65	54
448.203	448.762	64	69
448.273	448.831	48	45
448.273	448.692	65	63
448.342	448.901	55	49
448.342	448.622	67	63
448.413	448.971	58	52
448.413	448.553	68	62
448.483	449.042	60	67
448.483	448.762	70	63
448.553	448.762	68	61
448.622	448.762	67	63
448.692	448.762	65	61
448.762	449.322	64	63
448.831	449.322	48	45
448.831	449.322	65	64
448.901	449.322	55	49
448.901	449.322	67	61
448.971	449.322	58	52
448.971	449.322	68	54
449.042	449.322	60	67
449.042	449.322	70	62
449.111	449.322	72	63
449.181	449.322	74	65
449.251	449.322	76	69
449.322	449.88	41	56
449.322	449.391	53	56
449.322	449.461	77	72
449.391	449.949	53	47
449.391	449.88	72	69
449.461	450.019	56	51
449.461	449.88	77	65
449.531	450.089	60	54
449.531	449.88	80	64
449.601	450.16	65	71
449.601	449.74	84	67
449.671	449.88	85	64
449.74	449.88	84	64
449.81	449.88	82	64
449.88	450.019	80	66
449.949	450.508	53	47
449.949	450.439	82	63
450.019	450.578	56	51
450.019	450.299	80	63
450.089	450.648	60	54
450.089	450.229	79	55
450.16	450.719	65	71
450.16	450.368	77	63
450.229	450.439	79	56
450.299	450.439	80	60
450.368	450.439	77	55
450.439	450.648	80	72
450.508	451.066	53	47
450.508	450.997	72	65
450.578	451.136	56	51
450.578	450.997	77	65
450.648	451.206	60	54
450.648	450.997	80	64
450.719	451.276	65	71
450.719	450.858	84	67
450.788	450.997	85	64
450.858	450.997	84	64
450.927	450.997	82	64
450.997	451.136	80	64
451.066	451.555	53	47
451.066	451.555	82	63
451.136	451.555	56	51
451.136	451.416	80	63
451.206	451.555	60	54
451.206	451.346	79	55
451.276	451.555	65	71
451.276	451.485	77	63
451.346	451.555	79	56
451.416	451.555	80	60
451.485	451.555	77	55
451.555	451.695	78	71
451.625	452.183	58	47
451.625	452.114	73	65
451.695	452.253	61	51
451.695	452.114	78	65
451.765	452.322	66	54
451.765	452.114	82	64
451.835	452.392	70	71
451.835	451.974	85	67
451.905	452.114	87	64
451.974	452.114	85	64
452.044	452.114	84	64
452.114	452.253	82	67
452.183	452.672	58	47
452.183	452.672	84	63
452.253	452.672	61	51
452.253	452.672	82	63
452.322	452.672	66	54
452.322	452.462	80	55
452.392	452.672	70	71
452.392	452.532	78	63
452.462	452.672	80	56
452.532	452.672	78	60
452.601	452.672	77	55
452.672	453.23	76	72
452.741	453.51	60	47
452.741	453.161	77	65
452.811	453.746	64	51
452.811	453.091	79	65
452.881	453.746	67	54
452.881	453.021	80	64
452.952	453.746	72	71
452.952	453.23	82	70
453.021	453.23	80	66
453.091	453.23	79	65
453.161	453.23	77	63
453.23	453.746	76	66
453.3	453.79	48	47
453.3	453.746	77	67
453.37	453.79	52	51
453.37	453.746	79	63
453.44	453.79	55	54
453.44	453.746	80	55
453.51	453.79	60	73
453.51	453.746	82	63
453.58	453.746	84	66
453.65	453.746	86	71
453.719	453.79	88	73
453.79	454.348	41	77
453.79	454.348	53	77
453.79	453.999	89	80
453.86	454.348	80	75
453.929	454.348	84	70
453.999	454.348	89	70
454.07	454.558	92	86
454.209	454.906	72	71
454.278	454.906	77	74
454.348	454.906	80	89
454.418	454.906	84	70
454.488	454.906	89	70
454.558	454.697	92	73
454.628	454.906	96	77
454.697	454.906	92	76
454.767	454.906	60	67
454.767	454.906	91	73
454.837	454.906	88	73
454.906	455.464	65	82
454.906	455.116	89	78
454.976	455.464	80	75
455.046	455.464	84	70
455.116	455.464	89	70
455.186	455.674	92	86
455.325	456.022	72	71
455.395	456.022	77	74
455.464	456.022	80	87
455.534	456.022	84	69
455.604	456.022	89	72
455.674	455.814	92	75
455.744	456.022	96	77
455.814	456.022	92	76
455.883	456.022	60	67
455.883	456.022	91	75
455.953	456.022	88	72
456.022	456.581	65	82
456.022	456.232	89	78
456.092	456.581	80	75
456.162	456.581	84	70
456.232	456.581	89	70
456.302	456.79	92	86
456.441	457.139	72	71
456.511	457.139	77	74
456.581	457.139	80	86
456.65	457.139	84	69
456.72	457.139	89	72
456.79	456.93	92	75
456.86	457.139	96	77
456.93	457.139	92	76
457.0	457.139	60	67
457.0	457.139	91	75
457.069	457.139	88	73
457.139	457.697	65	85
457.139	457.348	89	77
457.208	457.697	80	75
457.278	457.697	84	70
457.348	457.697	89	70
457.418	457.906	92	86
457.558	458.255	72	71
457.627	458.255	77	74
457.697	458.255	80	88
457.767	458.255	84	70
457.836	458.255	89	72
457.906	458.046	92	75
457.977	458.255	96	76
458.046	458.255	92	76
458.116	458.255	60	66
458.116	458.255	91	75
458.185	458.255	88	73
458.255	458.805	65	88
458.255	458.392	89	77
458.324	458.805	84	72
458.392	458.805	89	72
458.461	458.599	92	76
458.53	458.805	96	79
458.599	458.805	92	78
458.667	458.805	60	67
458.667	458.805	91	77
458.736	458.805	88	76
458.805	459.355	53	89
458.805	458.943	89	79
458.874	459.355	84	75
458.943	459.355	89	77
459.012	459.149	92	80
459.081	459.355	96	80
459.149	459.355	92	79
459.218	459.355	48	66
459.218	459.355	91	77
459.286	459.355	88	77
459.355	459.905	41	92
459.355	459.493	89	89
459.424	459.905	84	82
459.493	459.905	89	85
459.562	459.699	92	88
459.631	459.905	96	84
459.699	459.905	92	82
459.768	459.905	36	63
459.768	459.905	91	82
459.836	459.905	88	80
459.905	460.181	29	87
459.905	460.181	96	89
459.974	460.249	92	75
460.043	460.317	36	65
460.043	460.317	91	79
460.111	460.386	88	84
460.181	460.456	29	89
460.181	460.456	96	90
460.249	460.468	92	89
460.317	460.468	36	64
460.317	460.468	91	87
460.386	460.468	88	89
460.456	460.731	29	72
460.456	460.743	96	93
460.524	460.743	32	63
460.524	460.731	92	79
460.592	460.743	36	63
460.592	460.743	89	80
460.661	460.743	41	63
460.661	460.743	84	80
460.731	461.006	29	72
460.731	461.006	92	93
460.799	461.006	32	63
460.799	461.006	89	82
460.867	461.006	36	63
460.867	461.006	84	82
460.936	461.006	41	63
460.936	461.006	80	82
461.006	461.28	29	72
461.006	461.292	89	93
461.074	461.292	32	63
461.074	461.28	84	81
461.142	461.292	36	63
461.142	461.292	80	81
461.211	461.292	41	63
461.211	461.292	77	82
461.28	461.555	29	72
461.28	461.555	84	93
461.348	461.555	32	63
461.348	461.555	80	81
461.417	461.555	36	63
461.417	461.555	77	81
461.485	461.555	41	63
461.485	461.555	72	81
461.555	461.83	29	72
461.555	461.854	80	93
461.623	461.854	32	63
461.623	461.83	77	80
461.692	461.854	36	63
461.692	461.854	72	80
461.76	461.854	41	63
461.76	461.854	68	80
461.83	462.105	29	72
461.83	462.113	77	93
461.898	462.113	32	63
461.898	462.105	72	82
461.967	462.113	36	63
461.967	462.113	68	81
462.035	462.113	41	63
462.035	462.113	65	81
462.105	462.38	29	72
462.105	462.388	72	93
462.173	462.388	32	63
462.173	462.38	68	80
462.241	462.388	36	63
462.241	462.388	65	80
462.31	462.388	41	63
462.31	462.388	60	80
462.38	462.655	29	72
462.38	462.667	68	93
462.448	462.667	32	63
462.448	462.655	65	80
462.516	462.667	36	63
462.516	462.667	60	81
462.585	462.667	41	63
462.585	462.667	56	81
462.655	462.93	29	72
462.655	462.938	65	93
462.723	462.938	32	63
462.723	462.93	60	81
462.791	462.938	36	63
462.791	462.938	56	81
462.86	462.938	41	63
462.86	462.938	53	81
462.93	463.205	29	72
462.93	463.221	60	93
462.998	463.221	32	63
462.998	463.205	56	81
463.066	463.221	36	63
463.066	463.221	53	81
463.135	463.221	41	63
463.135	463.221	48	81
463.205	463.48	29	72
463.205	463.488	56	93
463.273	463.488	32	63
463.273	463.488	51	81
463.342	463.488	36	63
463.342	463.488	48	81
463.41	463.488	41	63
463.41	463.488	44	81
463.48	463.755	29	72
463.48	463.755	53	93
463.548	463.755	32	63
463.548	463.685	48	85
463.617	463.755	36	63
463.617	463.755	44	80
463.685	463.755	41	63
463.685	463.755	48	80
463.755	464.03	29	66
463.755	464.03	32	66
463.755	464.03	36	66
463.755	464.03	41	86
463.755	464.03	44	86
463.755	464.03	48	86
463.755	464.03	53	101
464.321	464.602	29	66
464.321	464.602	32	66
464.321	464.602	36	66
464.321	464.602	41	78
464.321	464.602	65	86
464.321	464.602	68	86
464.321	464.602	72	86
464.321	464.602	77	101
464.899	465.129	29	66
464.899	465.129	32	66
464.899	465.129	36	66
464.899	465.129	41	78
464.899	465.129	53	86
464.899	465.129	56	86
464.899	465.129	60	86
464.899	465.129	65	101
