# onset,offset,note,velocity
0.500004	1.335258	62.000000	67.000000
0.500004	1.335258	74.000000	75.000000
1.335258	1.454576	74.000000	73.000000
1.335258	1.454576	62.000000	65.000000
1.454576	2.289830	62.000000	67.000000
1.454576	2.289830	74.000000	75.000000
2.289830	2.409148	74.000000	71.000000
2.289830	2.409148	62.000000	63.000000
2.409148	3.244402	62.000000	70.000000
2.409148	3.244402	74.000000	78.000000
3.244402	3.363720	62.000000	66.000000
3.244402	3.363720	74.000000	74.000000
3.363720	4.198974	74.000000	78.000000
3.363720	4.198974	62.000000	70.000000
4.198974	4.318292	62.000000	67.000000
4.198974	4.318292	74.000000	75.000000
4.318292	4.785869	62.000000	70.000000
4.318292	4.785869	74.000000	78.000000
4.318292	4.924754	55.000000	68.000000
4.318292	4.924754	47.000000	61.000000
4.785869	5.656823	74.000000	78.000000
4.785869	5.656823	62.000000	70.000000
4.924754	5.028917	47.000000	56.000000
4.924754	5.028917	55.000000	63.000000
5.063638	5.175513	55.000000	63.000000
5.063638	5.175513	47.000000	56.000000
5.212810	5.796190	47.000000	62.000000
5.212810	5.796190	55.000000	69.000000
5.656823	6.522426	62.000000	70.000000
5.656823	6.522426	74.000000	78.000000
5.796190	5.900716	47.000000	56.000000
5.796190	5.900716	55.000000	63.000000
5.935558	6.040084	55.000000	62.000000
5.935558	6.040084	47.000000	55.000000
6.074926	6.750615	47.000000	61.000000
6.074926	6.750615	55.000000	68.000000
6.522426	7.220109	62.000000	70.000000
6.522426	7.220109	74.000000	78.000000
6.750615	6.867988	59.000000	62.000000
6.750615	6.867988	55.000000	55.000000
6.985362	7.102735	57.000000	61.000000
6.985362	7.102735	60.000000	68.000000
7.220109	7.689603	74.000000	75.000000
7.220109	7.689603	62.000000	67.000000
7.220109	7.337483	59.000000	62.000000
7.220109	7.337483	55.000000	55.000000
7.454856	7.572230	60.000000	68.000000
7.454856	7.572230	57.000000	61.000000
7.689603	7.806977	74.000000	76.000000
7.689603	7.806977	62.000000	68.000000
7.689603	7.806977	50.000000	60.000000
7.689603	7.806977	57.000000	67.000000
7.924350	8.522430	59.000000	61.000000
7.924350	8.522430	62.000000	68.000000
8.382566	9.254888	79.000000	83.000000
8.382566	9.254888	67.000000	83.000000
8.522430	8.627331	62.000000	63.000000
8.522430	8.627331	59.000000	56.000000
8.662294	8.773726	59.000000	56.000000
8.662294	8.773726	62.000000	63.000000
8.810875	9.394255	59.000000	62.000000
8.810875	9.394255	62.000000	69.000000
9.254888	9.912298	67.000000	70.000000
9.254888	9.912298	79.000000	78.000000
9.394255	9.501383	62.000000	63.000000
9.394255	9.501383	59.000000	56.000000
9.538813	9.651117	59.000000	55.000000
9.538813	9.651117	62.000000	62.000000
9.688548	9.800423	64.000000	68.000000
9.688548	9.800423	60.000000	61.000000
9.912298	10.364223	67.000000	70.000000
9.912298	10.364223	79.000000	78.000000
9.912298	10.024173	59.000000	54.000000
9.912298	10.024173	62.000000	61.000000
10.136048	10.250135	57.000000	58.000000
10.136048	10.250135	60.000000	65.000000
10.364223	10.481597	79.000000	76.000000
10.364223	10.481597	67.000000	68.000000
10.364223	10.481597	55.000000	53.000000
10.364223	10.481597	59.000000	59.000000
10.598970	10.716344	86.000000	97.000000
10.598970	10.716344	74.000000	87.000000
10.598970	10.716344	78.000000	87.000000
10.598970	10.716344	57.000000	79.000000
10.598970	10.716344	50.000000	71.000000
10.833717	10.951091	86.000000	88.000000
10.833717	10.951091	74.000000	79.000000
10.833717	10.951091	79.000000	79.000000
10.833717	10.951091	59.000000	74.000000
10.833717	10.951091	55.000000	66.000000
11.068465	11.303212	86.000000	94.000000
11.068465	11.303212	74.000000	84.000000
11.068465	11.303212	78.000000	84.000000
11.068465	11.303212	50.000000	71.000000
11.068465	11.303212	57.000000	79.000000
11.537959	12.145412	59.000000	72.000000
11.537959	12.145412	67.000000	80.000000
12.005549	12.876731	51.000000	64.000000
12.005549	12.876731	63.000000	72.000000
12.145412	12.250314	59.000000	67.000000
12.145412	12.250314	67.000000	75.000000
12.285276	12.397151	67.000000	75.000000
12.285276	12.397151	59.000000	67.000000
12.434447	13.016594	67.000000	81.000000
12.434447	13.016594	59.000000	72.000000
12.876731	13.296322	50.000000	63.000000
12.876731	13.296322	62.000000	70.000000
13.016594	13.121496	67.000000	75.000000
13.016594	13.121496	59.000000	67.000000
13.156458	13.261360	59.000000	66.000000
13.156458	13.261360	67.000000	74.000000
13.296322	13.970214	59.000000	72.000000
13.296322	13.970214	67.000000	80.000000
13.743822	14.656672	63.000000	72.000000
13.743822	14.656672	51.000000	64.000000
13.970214	14.085227	67.000000	66.000000
13.970214	14.085227	71.000000	74.000000
14.200241	14.313443	69.000000	72.000000
14.200241	14.313443	72.000000	80.000000
14.426646	14.541659	67.000000	66.000000
14.426646	14.541659	71.000000	74.000000
14.656672	14.769875	69.000000	72.000000
14.656672	14.769875	72.000000	80.000000
14.656672	15.109483	50.000000	62.000000
14.656672	14.883078	62.000000	69.000000
14.883078	15.109483	62.000000	71.000000
14.883078	14.996281	69.000000	79.000000
15.109483	15.707576	74.000000	80.000000
15.109483	15.707576	71.000000	72.000000
15.567712	15.996021	67.000000	68.000000
15.567712	15.996021	55.000000	61.000000
15.707576	15.812477	74.000000	75.000000
15.707576	15.812477	71.000000	67.000000
15.847440	15.958872	71.000000	67.000000
15.847440	15.958872	74.000000	75.000000
15.996021	16.573608	71.000000	72.000000
15.996021	16.573608	74.000000	81.000000
15.996021	16.433248	66.000000	72.000000
15.996021	16.433248	54.000000	64.000000
16.433248	16.868383	65.000000	69.000000
16.433248	16.868383	53.000000	62.000000
16.573608	16.681219	74.000000	75.000000
16.573608	16.681219	71.000000	67.000000
16.718649	16.830953	71.000000	66.000000
16.718649	16.830953	74.000000	74.000000
16.868383	16.980258	72.000000	72.000000
16.868383	16.980258	76.000000	80.000000
16.868383	17.544059	52.000000	64.000000
16.868383	17.544059	64.000000	72.000000
17.092133	17.204008	71.000000	69.000000
17.092133	17.204008	74.000000	77.000000
17.315883	17.429971	69.000000	69.000000
17.315883	17.429971	72.000000	77.000000
17.544059	17.661432	68.000000	75.000000
17.544059	17.661432	64.000000	67.000000
17.544059	17.661432	71.000000	75.000000
17.544059	17.661432	50.000000	54.000000
17.544059	17.661432	52.000000	54.000000
17.544059	17.661432	62.000000	60.000000
17.778806	17.894758	69.000000	82.000000
17.778806	17.894758	64.000000	73.000000
17.778806	17.894758	52.000000	59.000000
17.778806	17.894758	60.000000	66.000000
17.778806	17.894758	48.000000	59.000000
18.010710	18.128566	64.000000	69.000000
18.010710	18.128566	68.000000	69.000000
18.010710	18.128566	71.000000	77.000000
18.010710	18.128566	52.000000	51.000000
18.010710	18.128566	59.000000	57.000000
18.010710	18.128566	47.000000	51.000000
18.246423	18.362831	64.000000	67.000000
18.246423	18.362831	69.000000	73.000000
18.246423	18.362831	72.000000	82.000000
18.246423	18.362831	52.000000	54.000000
18.246423	18.362831	57.000000	60.000000
18.246423	18.362831	45.000000	54.000000
18.479239	18.596612	55.000000	55.000000
18.479239	18.596612	43.000000	49.000000
18.713986	18.826223	74.000000	64.000000
18.713986	18.826223	78.000000	72.000000
18.713986	18.826223	54.000000	60.000000
18.713986	18.826223	42.000000	54.000000
18.938460	19.053460	76.000000	66.000000
18.938460	19.053460	73.000000	59.000000
19.168459	19.281608	74.000000	71.000000
19.168459	19.281608	71.000000	63.000000
19.394758	19.509757	70.000000	67.000000
19.394758	19.509757	73.000000	67.000000
19.394758	19.509757	66.000000	60.000000
19.394758	19.509757	52.000000	51.000000
19.394758	19.509757	64.000000	57.000000
19.624757	19.738832	66.000000	62.000000
19.624757	19.738832	71.000000	69.000000
19.624757	19.738832	50.000000	54.000000
19.624757	19.738832	62.000000	60.000000
19.852906	19.968402	66.000000	57.000000
19.852906	19.968402	70.000000	64.000000
19.852906	19.968402	73.000000	64.000000
19.852906	19.968402	49.000000	50.000000
19.852906	19.968402	61.000000	56.000000
20.083898	20.197972	66.000000	60.000000
20.083898	20.197972	71.000000	67.000000
20.083898	20.197972	74.000000	67.000000
20.083898	20.197972	47.000000	53.000000
20.083898	20.197972	59.000000	59.000000
20.312047	20.427047	45.000000	50.000000
20.312047	20.427047	57.000000	56.000000
20.542046	20.653050	76.000000	64.000000
20.542046	20.653050	80.000000	72.000000
20.542046	20.653050	56.000000	60.000000
20.542046	20.653050	44.000000	54.000000
20.764053	20.877256	78.000000	66.000000
20.764053	20.877256	75.000000	59.000000
20.990458	21.102333	73.000000	63.000000
20.990458	21.102333	76.000000	71.000000
21.214208	21.327854	68.000000	60.000000
21.214208	21.327854	72.000000	67.000000
21.214208	21.327854	75.000000	67.000000
21.214208	21.327854	54.000000	51.000000
21.214208	21.327854	66.000000	57.000000
21.441499	21.552931	68.000000	62.000000
21.441499	21.552931	73.000000	69.000000
21.441499	21.552931	56.000000	54.000000
21.441499	21.552931	64.000000	60.000000
21.441499	21.552931	52.000000	54.000000
21.664364	21.777567	72.000000	64.000000
21.664364	21.777567	68.000000	57.000000
21.664364	21.777567	75.000000	64.000000
21.664364	21.777567	51.000000	50.000000
21.664364	21.777567	63.000000	56.000000
21.664364	21.777567	56.000000	51.000000
21.890769	22.003516	73.000000	67.000000
21.890769	22.003516	76.000000	67.000000
21.890769	22.003516	68.000000	60.000000
21.890769	22.003516	49.000000	53.000000
21.890769	22.003516	61.000000	59.000000
21.890769	22.003516	56.000000	53.000000
22.116263	22.231262	47.000000	50.000000
22.116263	22.231262	59.000000	56.000000
22.346262	22.569127	78.000000	54.000000
22.346262	22.569127	81.000000	61.000000
22.346262	22.791992	45.000000	54.000000
22.346262	22.791992	57.000000	60.000000
22.569127	22.791992	76.000000	49.000000
22.569127	22.791992	79.000000	55.000000
22.791992	23.011451	78.000000	60.000000
22.791992	23.011451	74.000000	54.000000
22.791992	23.229233	59.000000	56.000000
22.791992	23.229233	57.000000	56.000000
22.791992	23.229233	47.000000	50.000000
23.011451	23.229233	69.000000	50.000000
23.011451	23.229233	76.000000	56.000000
23.229233	23.450381	78.000000	54.000000
23.229233	23.450381	81.000000	61.000000
23.229233	23.890129	57.000000	60.000000
23.229233	23.890129	60.000000	60.000000
23.229233	23.890129	48.000000	54.000000
23.450381	23.671516	79.000000	55.000000
23.450381	23.671516	76.000000	49.000000
23.671516	23.890129	74.000000	54.000000
23.671516	23.890129	78.000000	60.000000
23.890129	24.112994	69.000000	52.000000
23.890129	24.112994	76.000000	58.000000
23.890129	24.112994	49.000000	51.000000
23.890129	24.112994	61.000000	57.000000
23.890129	24.112994	57.000000	57.000000
24.112994	24.330776	81.000000	62.000000
24.112994	24.330776	78.000000	55.000000
24.112994	24.551066	45.000000	55.000000
24.112994	24.551066	57.000000	62.000000
24.330776	24.551066	76.000000	51.000000
24.330776	24.551066	79.000000	57.000000
24.551066	24.771356	74.000000	56.000000
24.551066	24.771356	78.000000	63.000000
24.551066	24.995106	59.000000	58.000000
24.551066	24.995106	57.000000	58.000000
24.551066	24.995106	47.000000	52.000000
24.771356	24.995106	76.000000	59.000000
24.771356	24.995106	69.000000	53.000000
24.995106	25.212070	78.000000	56.000000
24.995106	25.212070	81.000000	63.000000
24.995106	25.652664	57.000000	62.000000
24.995106	25.652664	60.000000	62.000000
24.995106	25.652664	48.000000	55.000000
25.212070	25.432360	79.000000	59.000000
25.212070	25.432360	76.000000	53.000000
25.432360	25.652664	74.000000	56.000000
25.432360	25.652664	78.000000	63.000000
25.652664	25.876414	69.000000	54.000000
25.652664	25.876414	76.000000	61.000000
25.652664	25.876414	49.000000	54.000000
25.652664	25.876414	57.000000	60.000000
25.652664	25.876414	61.000000	60.000000
25.876414	26.092560	86.000000	69.000000
25.876414	26.092560	83.000000	62.000000
25.876414	26.308692	50.000000	62.000000
25.876414	26.308692	62.000000	69.000000
26.092560	26.308692	81.000000	56.000000
26.092560	26.308692	84.000000	63.000000
26.308692	26.528996	79.000000	61.000000
26.308692	26.528996	83.000000	68.000000
26.308692	26.753617	64.000000	63.000000
26.308692	26.753617	62.000000	63.000000
26.308692	26.753617	52.000000	56.000000
26.528996	26.753617	81.000000	63.000000
26.528996	26.753617	74.000000	56.000000
26.753617	26.968945	83.000000	63.000000
26.753617	26.968945	86.000000	71.000000
26.753617	27.402055	62.000000	69.000000
26.753617	27.402055	53.000000	62.000000
26.753617	27.402055	65.000000	69.000000
26.968945	27.184273	81.000000	57.000000
26.968945	27.184273	84.000000	64.000000
27.184273	27.402055	83.000000	69.000000
27.184273	27.402055	79.000000	62.000000
27.402055	27.624920	81.000000	66.000000
27.402055	27.624920	74.000000	59.000000
27.402055	27.624920	54.000000	58.000000
27.402055	27.624920	62.000000	65.000000
27.402055	27.624920	66.000000	65.000000
27.624920	27.839430	86.000000	72.000000
27.624920	27.839430	83.000000	64.000000
27.624920	28.053940	62.000000	71.000000
27.624920	28.053940	50.000000	63.000000
27.839430	28.053940	81.000000	58.000000
27.839430	28.053940	84.000000	65.000000
28.053940	28.272553	79.000000	63.000000
28.053940	28.272553	83.000000	71.000000
28.053940	28.487881	64.000000	66.000000
28.053940	28.487881	62.000000	66.000000
28.053940	28.487881	52.000000	59.000000
28.272553	28.487881	81.000000	68.000000
28.272553	28.487881	74.000000	61.000000
28.487881	28.704027	83.000000	65.000000
28.487881	28.704027	86.000000	73.000000
28.487881	29.141254	62.000000	73.000000
28.487881	29.141254	65.000000	73.000000
28.487881	29.141254	53.000000	65.000000
28.704027	28.922641	81.000000	61.000000
28.704027	28.922641	84.000000	68.000000
28.922641	29.141254	83.000000	72.000000
28.922641	29.141254	79.000000	64.000000
29.141254	29.367646	74.000000	70.000000
29.141254	29.367646	81.000000	70.000000
29.141254	29.367646	54.000000	61.000000
29.141254	29.367646	62.000000	68.000000
29.141254	29.367646	66.000000	68.000000
29.367646	29.976066	67.000000	82.000000
29.367646	29.976066	71.000000	82.000000
29.367646	29.976066	79.000000	92.000000
29.367646	29.835223	55.000000	79.000000
29.835223	30.703320	55.000000	71.000000
29.835223	30.703320	65.000000	79.000000
29.835223	30.703320	53.000000	71.000000
29.976066	30.081704	67.000000	77.000000
29.976066	30.081704	71.000000	77.000000
29.976066	30.081704	79.000000	86.000000
30.116922	30.228797	67.000000	77.000000
30.116922	30.228797	79.000000	86.000000
30.116922	30.228797	71.000000	77.000000
30.266093	30.845169	79.000000	93.000000
30.266093	30.845169	71.000000	83.000000
30.266093	30.845169	67.000000	83.000000
30.703320	31.576340	55.000000	69.000000
30.703320	31.576340	52.000000	69.000000
30.703320	31.576340	64.000000	77.000000
30.845169	30.951545	67.000000	77.000000
30.845169	30.951545	71.000000	77.000000
30.845169	30.951545	79.000000	86.000000
30.987004	31.093381	67.000000	76.000000
30.987004	31.093381	71.000000	76.000000
30.987004	31.093381	79.000000	85.000000
31.128840	31.789857	67.000000	82.000000
31.128840	31.789857	71.000000	82.000000
31.128840	31.789857	79.000000	92.000000
31.576340	32.461563	51.000000	71.000000
31.576340	32.461563	63.000000	79.000000
31.576340	32.461563	55.000000	71.000000
31.789857	31.902604	71.000000	73.000000
31.789857	31.902604	83.000000	82.000000
31.789857	31.902604	79.000000	82.000000
32.015350	32.125925	72.000000	78.000000
32.015350	32.125925	81.000000	87.000000
32.015350	32.125925	84.000000	87.000000
32.236499	32.349259	71.000000	76.000000
32.236499	32.349259	79.000000	85.000000
32.236499	32.349259	83.000000	85.000000
32.461563	32.572137	72.000000	78.000000
32.461563	32.572137	84.000000	87.000000
32.461563	32.572137	81.000000	87.000000
32.461563	32.910002	54.000000	67.000000
32.461563	32.910002	62.000000	75.000000
32.461563	32.910002	50.000000	67.000000
32.682711	32.796357	69.000000	72.000000
32.682711	32.796357	81.000000	81.000000
32.682711	32.796357	74.000000	81.000000
32.910002	33.509074	86.000000	101.000000
32.910002	33.509074	74.000000	90.000000
32.910002	33.509074	83.000000	101.000000
32.910002	33.368231	50.000000	74.000000
32.910002	33.368231	38.000000	66.000000
33.368231	33.798511	52.000000	74.000000
33.368231	33.798511	40.000000	66.000000
33.368231	33.798511	50.000000	74.000000
33.509074	33.614712	83.000000	94.000000
33.509074	33.614712	74.000000	84.000000
33.509074	33.614712	86.000000	94.000000
33.649930	33.761362	83.000000	94.000000
33.649930	33.761362	74.000000	84.000000
33.649930	33.761362	86.000000	94.000000
33.798511	34.376581	83.000000	102.000000
33.798511	34.376581	74.000000	91.000000
33.798511	34.376581	86.000000	102.000000
33.798511	34.235738	54.000000	79.000000
33.798511	34.235738	42.000000	71.000000
33.798511	34.235738	50.000000	79.000000
34.235738	34.671611	50.000000	75.000000
34.235738	34.671611	43.000000	67.000000
34.235738	34.671611	55.000000	75.000000
34.376581	34.484446	83.000000	94.000000
34.376581	34.484446	74.000000	84.000000
34.376581	34.484446	86.000000	94.000000
34.521876	34.634181	83.000000	93.000000
34.521876	34.634181	74.000000	83.000000
34.521876	34.634181	86.000000	93.000000
34.671611	34.783486	88.000000	93.000000
34.671611	34.783486	76.000000	83.000000
34.671611	34.783486	84.000000	93.000000
34.895361	35.007236	83.000000	86.000000
34.895361	35.007236	74.000000	77.000000
34.895361	35.007236	86.000000	86.000000
34.895361	35.007236	50.000000	64.000000
34.895361	35.007236	55.000000	72.000000
34.895361	35.007236	43.000000	64.000000
35.119111	35.233199	81.000000	91.000000
35.119111	35.233199	84.000000	91.000000
35.119111	35.233199	72.000000	81.000000
35.119111	35.233199	50.000000	66.000000
35.119111	35.233199	57.000000	74.000000
35.119111	35.233199	45.000000	66.000000
35.347287	35.464660	79.000000	85.000000
35.347287	35.464660	71.000000	76.000000
35.347287	35.464660	74.000000	85.000000
35.347287	35.464660	83.000000	85.000000
35.347287	35.464660	47.000000	59.000000
35.347287	35.464660	59.000000	66.000000
35.347287	35.464660	50.000000	59.000000
35.582034	35.699407	74.000000	84.000000
35.582034	35.699407	81.000000	94.000000
35.582034	35.699407	78.000000	94.000000
35.582034	35.699407	69.000000	84.000000
35.582034	35.699407	57.000000	78.000000
35.582034	35.699407	50.000000	70.000000
35.582034	35.699407	62.000000	78.000000
35.582034	35.699407	54.000000	70.000000
35.816781	35.934154	71.000000	80.000000
35.816781	35.934154	83.000000	89.000000
35.816781	35.934154	74.000000	80.000000
35.816781	35.934154	79.000000	89.000000
35.816781	35.934154	55.000000	65.000000
35.816781	35.934154	62.000000	73.000000
35.816781	35.934154	59.000000	73.000000
36.051528	36.168901	78.000000	94.000000
36.051528	36.168901	69.000000	77.000000
36.051528	36.168901	74.000000	77.000000
36.051528	36.168901	81.000000	94.000000
36.051528	36.168901	50.000000	68.000000
36.051528	36.168901	57.000000	76.000000
36.051528	36.168901	54.000000	68.000000
36.051528	36.168901	62.000000	76.000000
36.521009	37.130434	71.000000	82.000000
36.521009	37.130434	67.000000	82.000000
36.521009	37.130434	79.000000	92.000000
36.521009	36.988585	55.000000	79.000000
36.988585	37.858681	65.000000	79.000000
36.988585	37.858681	53.000000	71.000000
36.988585	37.858681	55.000000	71.000000
37.130434	37.272282	71.000000	77.000000
37.130434	37.272282	67.000000	77.000000
37.130434	37.272282	79.000000	86.000000
37.272282	37.421454	71.000000	77.000000
37.272282	37.421454	79.000000	86.000000
37.272282	37.421454	67.000000	77.000000
37.421454	38.000020	79.000000	93.000000
37.421454	38.000020	67.000000	83.000000
37.421454	38.000020	71.000000	83.000000
37.858681	38.730198	52.000000	69.000000
37.858681	38.730198	64.000000	77.000000
37.858681	38.730198	55.000000	69.000000
38.000020	38.141359	79.000000	86.000000
38.000020	38.141359	67.000000	77.000000
38.000020	38.141359	71.000000	77.000000
38.141359	38.282698	79.000000	85.000000
38.141359	38.282698	67.000000	76.000000
38.141359	38.282698	71.000000	76.000000
38.282698	38.947162	79.000000	92.000000
38.282698	38.947162	67.000000	82.000000
38.282698	38.947162	71.000000	82.000000
38.730198	39.171784	51.000000	71.000000
38.730198	39.171784	63.000000	79.000000
38.730198	39.171784	55.000000	71.000000
38.947162	39.171784	79.000000	82.000000
38.947162	39.171784	71.000000	73.000000
38.947162	39.171784	83.000000	82.000000
39.171784	39.390397	84.000000	87.000000
39.171784	39.390397	72.000000	78.000000
39.171784	39.390397	81.000000	87.000000
39.171784	39.834478	54.000000	67.000000
39.171784	39.834478	62.000000	75.000000
39.171784	39.834478	50.000000	67.000000
39.390397	39.615019	83.000000	85.000000
39.390397	39.615019	71.000000	76.000000
39.390397	39.615019	80.000000	85.000000
39.615019	39.724748	81.000000	87.000000
39.615019	39.724748	84.000000	87.000000
39.615019	39.724748	72.000000	78.000000
39.834478	39.946782	74.000000	81.000000
39.834478	39.946782	69.000000	72.000000
39.834478	39.946782	81.000000	81.000000
39.834478	39.946782	48.000000	61.000000
39.834478	39.946782	54.000000	61.000000
39.834478	39.946782	60.000000	68.000000
40.059086	40.945557	79.000000	87.000000
40.059086	40.723550	74.000000	82.000000
40.059086	40.723550	86.000000	96.000000
40.059086	40.282836	47.000000	64.000000
40.059086	40.282836	55.000000	72.000000
40.059086	40.282836	59.000000	72.000000
40.059086	40.282836	50.000000	64.000000
40.282836	40.506586	48.000000	60.000000
40.282836	40.506586	60.000000	67.000000
40.506586	40.723550	59.000000	72.000000
40.506586	40.723550	47.000000	64.000000
40.723550	40.945557	84.000000	82.000000
40.723550	40.945557	72.000000	73.000000
40.723550	40.945557	45.000000	60.000000
40.723550	40.945557	57.000000	67.000000
40.945557	41.165015	83.000000	87.000000
40.945557	41.165015	71.000000	78.000000
40.945557	41.165015	79.000000	87.000000
40.945557	41.607365	43.000000	63.000000
40.945557	41.607365	55.000000	71.000000
40.945557	41.831115	50.000000	71.000000
41.165015	41.388765	84.000000	85.000000
41.165015	41.388765	72.000000	76.000000
41.165015	41.388765	81.000000	85.000000
41.388765	41.498065	83.000000	87.000000
41.388765	41.498065	74.000000	78.000000
41.388765	41.498065	86.000000	87.000000
41.607365	41.719240	83.000000	81.000000
41.607365	41.719240	71.000000	72.000000
41.607365	41.719240	79.000000	81.000000
41.607365	41.719240	53.000000	67.000000
41.607365	41.719240	41.000000	60.000000
41.831115	42.497216	91.000000	96.000000
41.831115	42.497216	79.000000	82.000000
41.831115	42.497216	84.000000	87.000000
41.831115	41.942990	40.000000	64.000000
41.831115	41.942990	52.000000	72.000000
42.054865	42.166740	54.000000	67.000000
42.054865	42.166740	42.000000	60.000000
42.278615	42.387915	40.000000	64.000000
42.278615	42.387915	52.000000	72.000000
42.497216	42.607159	90.000000	77.000000
42.497216	42.607159	84.000000	69.000000
42.497216	42.607159	78.000000	69.000000
42.497216	42.607159	38.000000	63.000000
42.497216	42.607159	50.000000	70.000000
42.717103	42.824915	76.000000	74.000000
42.717103	42.824915	84.000000	82.000000
42.717103	42.824915	88.000000	82.000000
42.717103	43.369953	48.000000	74.000000
42.717103	43.369953	36.000000	66.000000
42.932726	43.043528	78.000000	72.000000
42.932726	43.043528	86.000000	80.000000
42.932726	43.043528	90.000000	80.000000
43.154330	43.262142	76.000000	74.000000
43.154330	43.262142	88.000000	82.000000
43.154330	43.262142	84.000000	82.000000
43.369953	43.480755	74.000000	68.000000
43.369953	43.480755	83.000000	76.000000
43.369953	43.480755	86.000000	76.000000
43.369953	43.480755	38.000000	65.000000
43.369953	43.480755	50.000000	65.000000
43.591558	43.700630	72.000000	73.000000
43.591558	43.700630	81.000000	81.000000
43.591558	43.700630	84.000000	81.000000
43.591558	44.241001	39.000000	70.000000
43.591558	44.241001	51.000000	70.000000
43.809702	43.918774	83.000000	74.000000
43.809702	43.918774	86.000000	74.000000
43.809702	43.918774	74.000000	66.000000
44.027846	44.134424	72.000000	71.000000
44.027846	44.134424	81.000000	79.000000
44.027846	44.134424	84.000000	79.000000
44.241001	44.350945	79.000000	72.000000
44.241001	44.350945	83.000000	72.000000
44.241001	44.350945	71.000000	64.000000
44.241001	44.350945	40.000000	64.000000
44.241001	44.350945	52.000000	64.000000
44.460889	44.568700	78.000000	77.000000
44.460889	44.568700	69.000000	69.000000
44.460889	44.568700	81.000000	77.000000
44.460889	45.113739	42.000000	71.000000
44.460889	45.113739	54.000000	71.000000
44.676512	44.787314	79.000000	74.000000
44.676512	44.787314	71.000000	66.000000
44.676512	44.787314	83.000000	74.000000
44.898116	45.005927	81.000000	77.000000
44.898116	45.005927	69.000000	69.000000
44.898116	45.005927	78.000000	77.000000
45.113739	45.224541	76.000000	73.000000
45.113739	45.224541	67.000000	65.000000
45.113739	45.224541	79.000000	73.000000
45.113739	45.224541	55.000000	65.000000
45.113739	45.224541	43.000000	65.000000
45.335343	45.444415	74.000000	81.000000
45.335343	45.444415	66.000000	73.000000
45.335343	45.444415	78.000000	81.000000
45.335343	45.984787	45.000000	70.000000
45.335343	45.984787	57.000000	70.000000
45.553487	45.662559	79.000000	74.000000
45.553487	45.662559	76.000000	74.000000
45.553487	45.662559	67.000000	66.000000
45.771632	45.878209	74.000000	79.000000
45.771632	45.878209	66.000000	71.000000
45.771632	45.878209	78.000000	79.000000
45.984787	46.094731	64.000000	64.000000
45.984787	46.094731	72.000000	72.000000
45.984787	46.094731	76.000000	72.000000
45.984787	46.094731	46.000000	64.000000
45.984787	46.094731	58.000000	64.000000
46.204675	46.312486	71.000000	73.000000
46.204675	46.312486	74.000000	73.000000
46.204675	46.312486	62.000000	65.000000
46.204675	46.857525	47.000000	67.000000
46.204675	46.857525	59.000000	67.000000
46.420297	46.531100	72.000000	70.000000
46.420297	46.531100	64.000000	62.000000
46.420297	46.531100	76.000000	70.000000
46.641902	46.749713	71.000000	73.000000
46.641902	46.749713	62.000000	65.000000
46.641902	46.749713	74.000000	73.000000
46.857525	46.968327	72.000000	69.000000
46.857525	46.968327	64.000000	61.000000
46.857525	46.968327	69.000000	69.000000
46.857525	46.968327	48.000000	60.000000
46.857525	46.968327	60.000000	60.000000
47.079129	47.689064	67.000000	65.000000
47.079129	47.689064	71.000000	73.000000
47.079129	47.546719	62.000000	63.000000
47.079129	47.546719	50.000000	63.000000
47.546719	47.980580	63.000000	63.000000
47.546719	47.980580	51.000000	56.000000
47.689064	47.831409	59.000000	61.000000
47.689064	47.831409	67.000000	61.000000
47.689064	47.831409	71.000000	68.000000
47.831409	47.980580	59.000000	61.000000
47.831409	47.980580	67.000000	61.000000
47.831409	47.980580	71.000000	68.000000
47.980580	48.558650	59.000000	62.000000
47.980580	48.558650	67.000000	62.000000
47.980580	48.558650	71.000000	70.000000
47.980580	48.417807	50.000000	63.000000
47.980580	48.417807	62.000000	63.000000
48.417807	48.840336	51.000000	55.000000
48.417807	48.840336	63.000000	61.000000
48.558650	48.699493	59.000000	61.000000
48.558650	48.699493	71.000000	68.000000
48.558650	48.699493	67.000000	61.000000
48.699493	48.840336	71.000000	68.000000
48.699493	48.840336	67.000000	60.000000
48.699493	48.840336	59.000000	60.000000
48.840336	49.287836	59.000000	61.000000
48.840336	49.287836	67.000000	61.000000
48.840336	49.287836	71.000000	69.000000
48.840336	49.287836	62.000000	63.000000
48.840336	49.287836	50.000000	63.000000
49.287836	49.729421	47.000000	56.000000
49.287836	49.729421	59.000000	63.000000
49.504800	49.617117	62.000000	58.000000
49.504800	49.617117	74.000000	65.000000
49.504800	49.617117	67.000000	65.000000
49.729421	49.837903	67.000000	62.000000
49.729421	49.837903	76.000000	69.000000
49.729421	49.837903	64.000000	62.000000
49.729421	49.837903	73.000000	69.000000
49.729421	50.167534	46.000000	53.000000
49.729421	50.167534	58.000000	60.000000
49.946385	50.056959	62.000000	60.000000
49.946385	50.056959	74.000000	68.000000
50.167534	50.276016	64.000000	62.000000
50.167534	50.276016	76.000000	69.000000
50.167534	50.276016	72.000000	69.000000
50.167534	50.609106	45.000000	48.000000
50.167534	50.609106	57.000000	54.000000
50.384498	50.496802	66.000000	57.000000
50.384498	50.496802	78.000000	64.000000
50.609106	50.833728	71.000000	62.000000
50.609106	50.833728	67.000000	62.000000
50.609106	50.833728	79.000000	69.000000
50.609106	50.833728	43.000000	54.000000
50.609106	50.833728	55.000000	60.000000
51.058349	51.494249	51.000000	58.000000
51.058349	51.494249	63.000000	66.000000
51.201714	51.345078	79.000000	67.000000
51.201714	51.345078	71.000000	67.000000
51.201714	51.345078	83.000000	74.000000
51.345078	51.494249	79.000000	67.000000
51.345078	51.494249	83.000000	74.000000
51.345078	51.494249	71.000000	67.000000
51.494249	52.073325	83.000000	77.000000
51.494249	52.073325	71.000000	68.000000
51.494249	52.073325	79.000000	68.000000
51.494249	51.931476	62.000000	66.000000
51.494249	51.931476	50.000000	66.000000
51.931476	52.357022	51.000000	57.000000
51.931476	52.357022	63.000000	64.000000
52.073325	52.215174	83.000000	74.000000
52.073325	52.215174	71.000000	67.000000
52.073325	52.215174	79.000000	67.000000
52.215174	52.357022	83.000000	74.000000
52.215174	52.357022	71.000000	66.000000
52.215174	52.357022	79.000000	66.000000
52.357022	52.804509	83.000000	75.000000
52.357022	52.804509	71.000000	67.000000
52.357022	52.804509	79.000000	67.000000
52.357022	52.804509	62.000000	66.000000
52.357022	52.804509	50.000000	66.000000
52.804509	53.246081	47.000000	58.000000
52.804509	53.246081	59.000000	66.000000
53.021473	53.133777	79.000000	74.000000
53.021473	53.133777	74.000000	66.000000
53.021473	53.133777	86.000000	74.000000
53.246081	53.354563	85.000000	78.000000
53.246081	53.354563	88.000000	78.000000
53.246081	53.354563	76.000000	71.000000
53.246081	53.354563	79.000000	71.000000
53.246081	53.685052	46.000000	55.000000
53.246081	53.685052	58.000000	63.000000
53.463045	53.574049	86.000000	77.000000
53.463045	53.574049	74.000000	69.000000
53.685052	53.902834	84.000000	78.000000
53.685052	53.902834	76.000000	71.000000
53.685052	53.902834	88.000000	78.000000
53.685052	54.127456	45.000000	50.000000
53.685052	54.127456	57.000000	56.000000
53.902834	54.127456	84.000000	65.000000
53.902834	54.127456	90.000000	73.000000
53.902834	54.127456	86.000000	73.000000
53.902834	54.127456	78.000000	65.000000
54.127456	54.352077	83.000000	71.000000
54.127456	54.352077	91.000000	78.000000
54.127456	54.352077	79.000000	71.000000
54.127456	54.352077	86.000000	71.000000
54.127456	54.352077	43.000000	56.000000
54.127456	54.352077	55.000000	63.000000
54.576699	54.685181	86.000000	76.000000
54.576699	54.685181	74.000000	68.000000
54.576699	55.008844	47.000000	53.000000
54.576699	55.008844	54.000000	53.000000
54.576699	55.008844	62.000000	59.000000
54.576699	55.008844	50.000000	53.000000
54.721337	54.829404	76.000000	68.000000
54.721337	54.829404	88.000000	76.000000
54.865426	54.973090	78.000000	69.000000
54.865426	54.973090	90.000000	77.000000
55.008844	55.120276	91.000000	78.000000
55.008844	55.120276	79.000000	70.000000
55.008844	55.120276	55.000000	56.000000
55.008844	55.120276	62.000000	63.000000
55.008844	55.120276	59.000000	56.000000
55.454573	55.563055	74.000000	68.000000
55.454573	55.563055	86.000000	76.000000
55.454573	55.886718	50.000000	53.000000
55.454573	55.886718	54.000000	53.000000
55.454573	55.886718	62.000000	59.000000
55.454573	55.886718	47.000000	53.000000
55.599212	55.707278	76.000000	68.000000
55.599212	55.707278	88.000000	76.000000
55.743300	55.850964	90.000000	77.000000
55.743300	55.850964	78.000000	69.000000
55.886718	55.996018	91.000000	78.000000
55.886718	55.996018	79.000000	70.000000
55.886718	55.996018	59.000000	56.000000
55.886718	55.996018	62.000000	63.000000
55.886718	55.996018	55.000000	56.000000
56.323932	56.432145	86.000000	76.000000
56.323932	56.432145	74.000000	68.000000
56.323932	56.761762	47.000000	53.000000
56.323932	56.761762	54.000000	53.000000
56.323932	56.761762	62.000000	59.000000
56.323932	56.761762	50.000000	53.000000
56.468449	56.577763	76.000000	68.000000
56.468449	56.577763	88.000000	76.000000
56.614334	56.724761	78.000000	69.000000
56.614334	56.724761	90.000000	77.000000
56.761762	56.984627	91.000000	78.000000
56.761762	56.984627	79.000000	70.000000
56.761762	56.984627	55.000000	56.000000
56.761762	56.984627	59.000000	56.000000
56.761762	56.984627	62.000000	63.000000
57.207492	57.280917	67.000000	55.000000
57.207492	57.428345	59.000000	35.000000
57.207492	57.428345	62.000000	39.000000
57.354491	57.428345	69.000000	55.000000
57.502495	57.576926	70.000000	51.000000
57.651653	58.524431	71.000000	55.000000
58.078701	58.301566	59.000000	31.000000
58.078701	58.301566	63.000000	35.000000
58.078701	58.301566	57.000000	31.000000
58.524431	58.970160	72.000000	55.000000
58.970160	59.043318	67.000000	55.000000
58.970160	59.190598	60.000000	31.000000
58.970160	59.190598	64.000000	35.000000
58.970160	59.190598	55.000000	31.000000
59.116743	59.190598	69.000000	55.000000
59.264748	59.339327	71.000000	51.000000
59.414348	60.180334	72.000000	55.000000
59.842912	60.065776	64.000000	34.000000
59.842912	60.065776	60.000000	30.000000
59.842912	60.065776	54.000000	30.000000
59.842912	60.065776	57.000000	30.000000
60.180334	60.294891	76.000000	55.000000
60.294891	60.740621	71.000000	55.000000
60.740621	60.814046	54.000000	55.000000
60.740621	60.961474	59.000000	35.000000
60.740621	60.961474	63.000000	39.000000
60.887619	60.961474	55.000000	55.000000
61.035624	61.110055	57.000000	51.000000
61.184781	62.059075	59.000000	55.000000
61.613345	61.836210	66.000000	39.000000
61.613345	61.836210	63.000000	35.000000
61.613345	61.836210	45.000000	28.000000
61.613345	61.836210	57.000000	32.000000
61.613345	61.836210	47.000000	28.000000
62.059075	62.504805	60.000000	55.000000
62.504805	62.725242	67.000000	39.000000
62.504805	62.725242	64.000000	39.000000
62.504805	62.725242	48.000000	27.000000
62.504805	62.725242	55.000000	31.000000
62.504805	62.725242	43.000000	27.000000
62.651387	62.725242	57.000000	55.000000
62.799392	62.873971	59.000000	51.000000
62.948992	63.716520	60.000000	55.000000
63.379098	63.601963	72.000000	39.000000
63.379098	63.601963	69.000000	39.000000
63.379098	63.601963	54.000000	33.000000
63.379098	63.601963	48.000000	29.000000
63.379098	63.601963	42.000000	29.000000
63.716520	63.831077	64.000000	55.000000
63.831077	64.276807	59.000000	55.000000
64.276807	64.497660	63.000000	39.000000
64.276807	64.350233	66.000000	55.000000
64.276807	64.497660	54.000000	31.000000
64.276807	64.497660	59.000000	35.000000
64.276807	64.497660	47.000000	31.000000
64.423806	64.497660	68.000000	55.000000
64.571810	64.646241	70.000000	51.000000
64.720968	65.605615	71.000000	55.000000
65.159885	65.382750	57.000000	31.000000
65.159885	65.382750	59.000000	31.000000
65.159885	65.382750	63.000000	35.000000
65.605615	66.051344	72.000000	55.000000
66.051344	66.124502	67.000000	55.000000
66.051344	66.271782	55.000000	31.000000
66.051344	66.271782	64.000000	35.000000
66.051344	66.271782	60.000000	31.000000
66.197927	66.271782	69.000000	55.000000
66.345932	66.420510	71.000000	51.000000
66.495532	67.261518	72.000000	55.000000
66.924096	67.146960	60.000000	30.000000
66.924096	67.146960	57.000000	30.000000
66.924096	67.146960	54.000000	30.000000
66.924096	67.146960	64.000000	34.000000
67.261518	67.376075	76.000000	55.000000
67.376075	67.821805	71.000000	55.000000
67.821805	67.895230	54.000000	55.000000
67.821805	68.042658	63.000000	39.000000
67.821805	68.042658	59.000000	35.000000
67.968803	68.042658	55.000000	55.000000
68.116808	68.191239	57.000000	51.000000
68.265965	69.152288	59.000000	55.000000
68.706559	68.929424	63.000000	39.000000
68.706559	68.929424	66.000000	39.000000
68.706559	68.929424	45.000000	28.000000
68.706559	68.929424	47.000000	28.000000
68.706559	68.929424	57.000000	32.000000
69.152288	69.598018	60.000000	55.000000
69.598018	69.818456	64.000000	39.000000
69.598018	69.818456	67.000000	39.000000
69.598018	69.818456	43.000000	27.000000
69.598018	69.818456	55.000000	31.000000
69.598018	69.818456	48.000000	27.000000
69.744601	69.818456	57.000000	55.000000
69.892605	69.967184	59.000000	51.000000
70.042206	70.820221	60.000000	55.000000
70.482799	70.705664	69.000000	39.000000
70.482799	70.705664	72.000000	39.000000
70.482799	70.705664	54.000000	33.000000
70.482799	70.705664	42.000000	29.000000
70.482799	70.705664	48.000000	29.000000
70.820221	70.934778	64.000000	55.000000
70.934778	71.380508	59.000000	55.000000
71.380508	71.601361	71.000000	42.000000
71.380508	71.453934	63.000000	59.000000
71.380508	71.601361	54.000000	33.000000
71.380508	71.601361	59.000000	37.000000
71.380508	71.601361	47.000000	33.000000
71.527507	71.601361	64.000000	59.000000
71.675511	71.749943	65.000000	57.000000
71.824669	72.700505	66.000000	62.000000
72.254775	72.700505	61.000000	46.000000
72.254775	72.700505	45.000000	36.000000
72.254775	72.700505	54.000000	41.000000
72.254775	72.700505	57.000000	41.000000
72.700505	72.923369	60.000000	64.000000
72.700505	72.923369	68.000000	67.000000
72.700505	72.923369	44.000000	44.000000
72.700505	72.923369	56.000000	49.000000
73.146234	73.590248	80.000000	68.000000
73.146234	73.590248	68.000000	61.000000
73.146234	73.220237	44.000000	57.000000
73.294239	73.368241	43.000000	52.000000
73.442243	73.516245	44.000000	52.000000
73.590248	74.034261	67.000000	60.000000
73.590248	74.034261	79.000000	67.000000
73.590248	73.664250	46.000000	59.000000
73.738252	73.812254	44.000000	53.000000
73.886256	73.960259	46.000000	53.000000
74.034261	74.479964	66.000000	60.000000
74.034261	74.479964	68.000000	60.000000
74.034261	74.479964	78.000000	67.000000
74.034261	74.108545	48.000000	59.000000
74.182828	74.257112	46.000000	55.000000
74.331396	74.405680	48.000000	55.000000
74.479964	74.703714	64.000000	54.000000
74.479964	74.703714	68.000000	54.000000
74.479964	74.703714	76.000000	67.000000
74.479964	74.703714	49.000000	60.000000
74.927464	75.074462	64.000000	61.000000
74.927464	75.148317	56.000000	39.000000
74.927464	75.148317	61.000000	44.000000
74.927464	75.148317	49.000000	39.000000
75.074462	75.222467	66.000000	61.000000
75.222467	75.371624	67.000000	59.000000
75.371624	76.247460	68.000000	65.000000
75.801730	76.247460	63.000000	48.000000
75.801730	76.247460	56.000000	48.000000
75.801730	76.247460	59.000000	48.000000
75.801730	76.247460	47.000000	43.000000
76.247460	76.470325	70.000000	69.000000
76.247460	76.470325	62.000000	67.000000
76.247460	76.470325	46.000000	45.000000
76.247460	76.470325	58.000000	51.000000
76.693190	77.132134	82.000000	70.000000
76.693190	77.132134	70.000000	63.000000
76.693190	76.766347	46.000000	61.000000
76.839504	76.912662	45.000000	56.000000
76.985819	77.058976	46.000000	56.000000
77.132134	77.574377	81.000000	70.000000
77.132134	77.574377	69.000000	63.000000
77.132134	77.205841	48.000000	64.000000
77.279548	77.353255	46.000000	57.000000
77.426962	77.500669	48.000000	57.000000
77.574377	78.018390	70.000000	59.000000
77.574377	78.018390	68.000000	59.000000
77.574377	78.018390	80.000000	66.000000
77.574377	77.648379	50.000000	64.000000
77.722381	77.796383	49.000000	59.000000
77.870385	77.944388	50.000000	59.000000
78.018390	78.243012	70.000000	56.000000
78.018390	78.243012	66.000000	56.000000
78.018390	78.243012	78.000000	70.000000
78.018390	78.243012	51.000000	66.000000
78.467633	78.541635	70.000000	59.000000
78.467633	78.689640	58.000000	37.000000
78.467633	78.689640	56.000000	37.000000
78.467633	78.689640	68.000000	41.000000
78.615638	78.689640	72.000000	57.000000
78.763642	78.837644	74.000000	57.000000
78.911646	78.985649	75.000000	60.000000
78.911646	79.133653	58.000000	39.000000
78.911646	79.133653	54.000000	39.000000
78.911646	79.133653	66.000000	44.000000
79.059651	79.133653	74.000000	57.000000
79.207655	79.281657	75.000000	57.000000
79.355660	79.429662	82.000000	60.000000
79.355660	79.577666	62.000000	40.000000
79.355660	79.577666	58.000000	40.000000
79.355660	79.577666	50.000000	36.000000
79.503664	79.577666	81.000000	56.000000
79.651668	79.725671	82.000000	56.000000
79.799673	79.873675	78.000000	60.000000
79.799673	80.021679	51.000000	39.000000
79.799673	80.021679	63.000000	44.000000
79.799673	80.021679	58.000000	39.000000
79.947677	80.021679	77.000000	57.000000
80.095682	80.169684	78.000000	57.000000
80.243686	80.317111	74.000000	61.000000
80.243686	80.463962	53.000000	36.000000
80.243686	80.463962	65.000000	40.000000
80.243686	80.463962	58.000000	36.000000
80.390537	80.463962	73.000000	59.000000
80.537388	80.610814	74.000000	59.000000
80.684239	80.758241	75.000000	60.000000
80.684239	80.906246	66.000000	44.000000
80.684239	80.906246	54.000000	39.000000
80.684239	80.906246	58.000000	39.000000
80.832243	80.906246	74.000000	58.000000
80.980248	81.054250	75.000000	58.000000
81.128252	81.202831	70.000000	59.000000
81.128252	81.351989	68.000000	39.000000
81.128252	81.351989	56.000000	35.000000
81.128252	81.351989	58.000000	35.000000
81.277410	81.351989	69.000000	57.000000
81.426568	81.501147	70.000000	57.000000
81.575725	81.650599	75.000000	60.000000
81.575725	81.800347	66.000000	44.000000
81.575725	81.800347	58.000000	39.000000
81.575725	81.800347	54.000000	39.000000
81.725473	81.800347	74.000000	57.000000
81.875221	81.950095	75.000000	58.000000
82.024969	82.178955	58.000000	70.000000
82.178955	82.332940	58.000000	67.000000
82.332940	82.486926	58.000000	66.000000
82.486926	82.945142	63.000000	72.000000
82.486926	82.945142	54.000000	72.000000
82.639665	82.792403	82.000000	71.000000
82.792403	82.945142	81.000000	66.000000
82.945142	83.097263	82.000000	71.000000
82.945142	83.401506	65.000000	68.000000
82.945142	83.401506	58.000000	68.000000
83.097263	83.249385	70.000000	65.000000
83.249385	83.401506	82.000000	67.000000
83.401506	83.556726	82.000000	71.000000
83.401506	83.867165	66.000000	71.000000
83.401506	83.867165	63.000000	71.000000
83.556726	83.711945	70.000000	67.000000
83.711945	83.867165	82.000000	67.000000
83.867165	84.022384	58.000000	73.000000
84.022384	84.177604	58.000000	70.000000
84.177604	84.332824	58.000000	70.000000
84.332824	84.791039	54.000000	72.000000
84.332824	84.791039	63.000000	72.000000
84.485562	84.638300	82.000000	71.000000
84.638300	84.791039	81.000000	66.000000
84.791039	84.943174	82.000000	71.000000
84.791039	85.247417	58.000000	68.000000
84.791039	85.247417	65.000000	68.000000
84.943174	85.095296	70.000000	65.000000
85.095296	85.247417	82.000000	67.000000
85.247417	85.402637	82.000000	71.000000
85.247417	85.713076	63.000000	71.000000
85.247417	85.713076	66.000000	71.000000
85.402637	85.557856	70.000000	67.000000
85.557856	85.713076	82.000000	67.000000
85.713076	85.787078	71.000000	59.000000
85.713076	85.935082	69.000000	41.000000
85.713076	85.935082	59.000000	37.000000
85.713076	85.935082	57.000000	37.000000
85.861080	85.935082	73.000000	57.000000
86.009085	86.083087	75.000000	57.000000
86.157089	86.231091	76.000000	60.000000
86.157089	86.379096	67.000000	44.000000
86.157089	86.379096	59.000000	39.000000
86.157089	86.379096	55.000000	39.000000
86.305093	86.379096	75.000000	57.000000
86.453098	86.527100	76.000000	57.000000
86.601102	86.675104	83.000000	60.000000
86.601102	86.823109	63.000000	40.000000
86.601102	86.823109	59.000000	40.000000
86.601102	86.823109	51.000000	36.000000
86.749106	86.823109	82.000000	56.000000
86.897111	86.971113	83.000000	56.000000
87.045115	87.119117	79.000000	60.000000
87.045115	87.267122	59.000000	39.000000
87.045115	87.267122	64.000000	44.000000
87.045115	87.267122	52.000000	39.000000
87.193120	87.267122	78.000000	57.000000
87.341124	87.415126	79.000000	57.000000
87.489128	87.562554	75.000000	61.000000
87.489128	87.709405	59.000000	36.000000
87.489128	87.709405	66.000000	40.000000
87.489128	87.709405	54.000000	36.000000
87.635979	87.709405	74.000000	59.000000
87.782831	87.856256	75.000000	59.000000
87.929682	88.003684	76.000000	60.000000
87.929682	88.151688	59.000000	39.000000
87.929682	88.151688	55.000000	39.000000
87.929682	88.151688	67.000000	44.000000
88.077686	88.151688	75.000000	58.000000
88.225690	88.299693	76.000000	58.000000
88.373695	88.448274	71.000000	59.000000
88.373695	88.597431	59.000000	35.000000
88.373695	88.597431	57.000000	35.000000
88.373695	88.597431	69.000000	39.000000
88.522852	88.597431	70.000000	57.000000
88.672010	88.746589	71.000000	57.000000
88.821168	88.896042	76.000000	60.000000
88.821168	89.045790	67.000000	44.000000
88.821168	89.045790	55.000000	39.000000
88.821168	89.045790	59.000000	39.000000
88.970916	89.045790	75.000000	57.000000
89.120664	89.195538	76.000000	58.000000
89.270411	89.424397	59.000000	70.000000
89.424397	89.578383	59.000000	67.000000
89.578383	89.732369	59.000000	66.000000
89.732369	90.190584	55.000000	72.000000
89.732369	90.190584	64.000000	72.000000
89.885107	90.037846	83.000000	71.000000
90.037846	90.190584	82.000000	66.000000
90.190584	90.342719	83.000000	71.000000
90.190584	90.646962	59.000000	68.000000
90.190584	90.646962	66.000000	68.000000
90.342719	90.494841	71.000000	65.000000
90.494841	90.646962	83.000000	67.000000
90.646962	90.802182	83.000000	71.000000
90.646962	91.112621	67.000000	71.000000
90.646962	91.112621	64.000000	71.000000
90.802182	90.957401	71.000000	67.000000
90.957401	91.112621	83.000000	67.000000
91.112621	91.267840	59.000000	73.000000
91.267840	91.423060	59.000000	70.000000
91.423060	91.578279	59.000000	70.000000
91.578279	92.036495	55.000000	72.000000
91.578279	92.036495	64.000000	72.000000
91.731018	91.883756	83.000000	71.000000
91.883756	92.036495	82.000000	66.000000
92.036495	92.188617	83.000000	71.000000
92.036495	92.492860	59.000000	68.000000
92.036495	92.492860	66.000000	68.000000
92.188617	92.340738	71.000000	65.000000
92.340738	92.492860	83.000000	67.000000
92.492860	92.648079	83.000000	71.000000
92.492860	92.958518	64.000000	71.000000
92.492860	92.958518	67.000000	71.000000
92.648079	92.803299	71.000000	67.000000
92.803299	92.958518	83.000000	67.000000
92.958518	93.111874	84.000000	60.000000
92.958518	93.188545	58.000000	44.000000
92.958518	93.188545	60.000000	44.000000
92.958518	93.188545	64.000000	49.000000
93.111874	93.265216	72.000000	56.000000
93.265216	93.418571	84.000000	56.000000
93.418571	93.570693	84.000000	62.000000
93.418571	93.646760	60.000000	45.000000
93.418571	93.646760	65.000000	51.000000
93.418571	93.646760	57.000000	45.000000
93.570693	93.722828	72.000000	59.000000
93.722828	93.874949	84.000000	58.000000
93.874949	94.027071	86.000000	64.000000
93.874949	94.103138	60.000000	46.000000
93.874949	94.103138	62.000000	46.000000
93.874949	94.103138	66.000000	52.000000
94.027071	94.179206	74.000000	59.000000
94.179206	94.330737	86.000000	62.000000
94.330737	94.482859	86.000000	67.000000
94.330737	94.558926	62.000000	48.000000
94.330737	94.558926	67.000000	54.000000
94.330737	94.558926	59.000000	48.000000
94.482859	94.634833	74.000000	62.000000
94.634833	94.786364	86.000000	63.000000
94.786364	94.937440	88.000000	69.000000
94.786364	95.012904	62.000000	50.000000
94.786364	95.012904	64.000000	50.000000
94.786364	95.012904	68.000000	56.000000
94.937440	95.088368	76.000000	65.000000
95.088368	95.238692	88.000000	67.000000
95.238692	95.388722	88.000000	71.000000
95.238692	95.463596	64.000000	52.000000
95.238692	95.463596	69.000000	58.000000
95.238692	95.463596	61.000000	52.000000
95.388722	95.538470	76.000000	67.000000
95.538470	95.688218	88.000000	66.000000
95.688218	95.837965	90.000000	72.000000
95.688218	95.912839	64.000000	53.000000
95.688218	95.912839	70.000000	59.000000
95.688218	95.912839	66.000000	53.000000
95.837965	95.987713	78.000000	68.000000
95.987713	96.137461	90.000000	68.000000
96.137461	96.286042	90.000000	76.000000
96.137461	96.360326	63.000000	54.000000
96.137461	96.360326	71.000000	61.000000
96.137461	96.360326	66.000000	61.000000
96.286042	96.434610	78.000000	69.000000
96.434610	96.582614	90.000000	72.000000
96.582614	96.730619	90.000000	78.000000
96.582614	96.804326	61.000000	56.000000
96.582614	96.804326	64.000000	56.000000
96.582614	96.804326	70.000000	63.000000
96.582614	96.804326	66.000000	63.000000
96.730619	96.878033	78.000000	71.000000
96.878033	97.025461	90.000000	73.000000
97.025461	97.172325	90.000000	80.000000
97.025461	97.245751	59.000000	58.000000
97.025461	97.245751	63.000000	58.000000
97.025461	97.245751	66.000000	65.000000
97.025461	97.245751	71.000000	65.000000
97.172325	97.319176	78.000000	73.000000
97.319176	97.466041	90.000000	76.000000
97.466041	97.612905	90.000000	80.000000
97.466041	97.686330	61.000000	58.000000
97.466041	97.686330	64.000000	58.000000
97.466041	97.686330	66.000000	65.000000
97.466041	97.686330	70.000000	65.000000
97.612905	97.759756	78.000000	73.000000
97.759756	97.906620	90.000000	76.000000
97.906620	98.055792	90.000000	80.000000
97.906620	98.130370	63.000000	58.000000
97.906620	98.130370	66.000000	65.000000
97.906620	98.130370	71.000000	65.000000
97.906620	98.130370	59.000000	58.000000
98.055792	98.204949	78.000000	73.000000
98.204949	98.354120	90.000000	76.000000
98.354120	98.499858	78.000000	78.000000
98.354120	98.572734	49.000000	50.000000
98.354120	98.572734	54.000000	50.000000
98.354120	98.572734	58.000000	56.000000
98.354120	98.572734	52.000000	50.000000
98.499858	98.645610	66.000000	71.000000
98.645610	98.791348	78.000000	73.000000
98.791348	98.939352	78.000000	80.000000
98.791348	99.013354	51.000000	52.000000
98.791348	99.013354	54.000000	52.000000
98.791348	99.013354	59.000000	58.000000
98.791348	99.013354	47.000000	52.000000
98.939352	99.087356	66.000000	73.000000
99.087356	99.235361	78.000000	78.000000
99.235361	99.383365	78.000000	84.000000
99.235361	99.457367	58.000000	60.000000
99.235361	99.457367	49.000000	54.000000
99.235361	99.457367	54.000000	54.000000
99.235361	99.457367	52.000000	54.000000
99.383365	99.531370	66.000000	77.000000
99.531370	99.679374	78.000000	82.000000
99.679374	99.828545	78.000000	88.000000
99.679374	99.903124	47.000000	57.000000
99.679374	99.903124	51.000000	57.000000
99.679374	99.903124	59.000000	63.000000
99.679374	99.903124	54.000000	57.000000
99.828545	99.977703	66.000000	81.000000
99.977703	100.126874	78.000000	85.000000
100.126874	100.277051	78.000000	92.000000
100.126874	100.352958	58.000000	66.000000
100.126874	100.352958	52.000000	59.000000
100.126874	100.352958	54.000000	59.000000
100.126874	100.352958	49.000000	59.000000
100.277051	100.429173	66.000000	84.000000
100.429173	100.583467	78.000000	89.000000
100.583467	100.695784	78.000000	79.000000
100.583467	100.695784	71.000000	79.000000
100.583467	100.695784	75.000000	79.000000
100.583467	100.695784	83.000000	94.000000
100.583467	100.695784	47.000000	55.000000
100.583467	100.695784	54.000000	55.000000
100.583467	100.695784	59.000000	65.000000
100.583467	100.695784	51.000000	55.000000
100.733215	100.844365	75.000000	71.000000
100.733215	100.844365	83.000000	84.000000
100.733215	100.844365	78.000000	71.000000
100.733215	100.844365	71.000000	71.000000
100.733215	100.844365	51.000000	49.000000
100.733215	100.844365	54.000000	49.000000
100.733215	100.844365	59.000000	58.000000
100.733215	100.844365	47.000000	49.000000
100.881219	100.995307	71.000000	71.000000
100.881219	100.995307	83.000000	84.000000
100.881219	100.995307	75.000000	71.000000
100.881219	100.995307	78.000000	71.000000
100.881219	100.995307	47.000000	49.000000
100.881219	100.995307	51.000000	49.000000
100.881219	100.995307	59.000000	58.000000
100.881219	100.995307	54.000000	49.000000
101.033341	101.257962	78.000000	79.000000
101.033341	101.257962	71.000000	79.000000
101.033341	101.257962	75.000000	79.000000
101.033341	101.257962	83.000000	94.000000
101.033341	101.257962	47.000000	55.000000
101.033341	101.257962	54.000000	55.000000
101.033341	101.257962	59.000000	65.000000
101.033341	101.257962	51.000000	55.000000
101.482584	101.594902	75.000000	79.000000
101.482584	101.594902	83.000000	94.000000
101.482584	101.594902	78.000000	79.000000
101.482584	101.594902	71.000000	79.000000
101.482584	101.594902	51.000000	55.000000
101.482584	101.594902	54.000000	55.000000
101.482584	101.594902	59.000000	65.000000
101.482584	101.594902	47.000000	55.000000
101.632332	101.742906	71.000000	71.000000
101.632332	101.742906	83.000000	84.000000
101.632332	101.742906	75.000000	71.000000
101.632332	101.742906	78.000000	71.000000
101.632332	101.742906	47.000000	49.000000
101.632332	101.742906	54.000000	49.000000
101.632332	101.742906	59.000000	58.000000
101.632332	101.742906	51.000000	49.000000
101.779760	101.893405	71.000000	71.000000
101.779760	101.893405	83.000000	84.000000
101.779760	101.893405	75.000000	71.000000
101.779760	101.893405	78.000000	71.000000
101.779760	101.893405	51.000000	49.000000
101.779760	101.893405	54.000000	49.000000
101.779760	101.893405	47.000000	49.000000
101.779760	101.893405	59.000000	58.000000
101.931291	102.155913	78.000000	79.000000
101.931291	102.155913	83.000000	94.000000
101.931291	102.155913	75.000000	79.000000
101.931291	102.155913	71.000000	79.000000
101.931291	102.155913	51.000000	55.000000
101.931291	102.155913	54.000000	55.000000
101.931291	102.155913	59.000000	65.000000
101.931291	102.155913	47.000000	55.000000
102.380535	102.491109	75.000000	79.000000
102.380535	102.491109	71.000000	79.000000
102.380535	102.491109	78.000000	79.000000
102.380535	102.491109	83.000000	94.000000
102.380535	102.491109	47.000000	55.000000
102.380535	102.491109	54.000000	55.000000
102.380535	102.491109	59.000000	65.000000
102.380535	102.491109	51.000000	55.000000
102.527962	102.638536	71.000000	71.000000
102.527962	102.638536	83.000000	84.000000
102.527962	102.638536	75.000000	71.000000
102.527962	102.638536	78.000000	71.000000
102.527962	102.638536	47.000000	49.000000
102.527962	102.638536	51.000000	49.000000
102.527962	102.638536	59.000000	58.000000
102.527962	102.638536	54.000000	49.000000
102.675390	102.789035	78.000000	71.000000
102.675390	102.789035	83.000000	84.000000
102.675390	102.789035	75.000000	71.000000
102.675390	102.789035	71.000000	71.000000
102.675390	102.789035	51.000000	49.000000
102.675390	102.789035	54.000000	49.000000
102.675390	102.789035	59.000000	58.000000
102.675390	102.789035	47.000000	49.000000
102.826922	103.051986	75.000000	79.000000
102.826922	103.051986	71.000000	79.000000
102.826922	103.051986	83.000000	94.000000
102.826922	103.051986	78.000000	79.000000
102.826922	103.051986	47.000000	55.000000
102.826922	103.051986	51.000000	55.000000
102.826922	103.051986	59.000000	65.000000
102.826922	103.051986	54.000000	55.000000
103.276608	103.387611	75.000000	79.000000
103.276608	103.387611	83.000000	94.000000
103.276608	103.387611	78.000000	79.000000
103.276608	103.387611	71.000000	79.000000
103.276608	103.387611	51.000000	55.000000
103.276608	103.387611	54.000000	55.000000
103.276608	103.387611	47.000000	55.000000
103.276608	103.387611	59.000000	65.000000
103.424612	103.535615	71.000000	71.000000
103.424612	103.535615	83.000000	84.000000
103.424612	103.535615	75.000000	71.000000
103.424612	103.535615	78.000000	71.000000
103.424612	103.535615	47.000000	49.000000
103.424612	103.535615	51.000000	49.000000
103.424612	103.535615	59.000000	58.000000
103.424612	103.535615	54.000000	49.000000
103.572616	103.685819	78.000000	71.000000
103.572616	103.685819	71.000000	71.000000
103.572616	103.685819	75.000000	71.000000
103.572616	103.685819	83.000000	84.000000
103.572616	103.685819	47.000000	49.000000
103.572616	103.685819	54.000000	49.000000
103.572616	103.685819	59.000000	58.000000
103.572616	103.685819	51.000000	49.000000
103.723558	103.948179	75.000000	79.000000
103.723558	103.948179	83.000000	94.000000
103.723558	103.948179	78.000000	79.000000
103.723558	103.948179	71.000000	79.000000
103.723558	103.948179	51.000000	55.000000
103.723558	103.948179	54.000000	55.000000
103.723558	103.948179	47.000000	55.000000
103.723558	103.948179	59.000000	65.000000
104.172801	104.321664	74.000000	79.000000
104.172801	104.321664	86.000000	94.000000
104.172801	104.321664	50.000000	55.000000
104.172801	104.321664	62.000000	65.000000
104.321664	104.470245	86.000000	84.000000
104.321664	104.470245	74.000000	71.000000
104.321664	104.470245	50.000000	49.000000
104.321664	104.470245	62.000000	58.000000
104.470245	104.621776	74.000000	71.000000
104.470245	104.621776	86.000000	84.000000
104.470245	104.621776	62.000000	58.000000
104.470245	104.621776	50.000000	49.000000
104.621776	104.846398	74.000000	79.000000
104.621776	104.846398	86.000000	94.000000
104.621776	104.846398	50.000000	55.000000
104.621776	104.846398	62.000000	65.000000
105.071020	105.219588	86.000000	94.000000
105.071020	105.219588	74.000000	79.000000
105.071020	105.219588	50.000000	55.000000
105.071020	105.219588	62.000000	65.000000
105.219588	105.368169	74.000000	71.000000
105.219588	105.368169	86.000000	84.000000
105.219588	105.368169	50.000000	49.000000
105.219588	105.368169	62.000000	58.000000
105.368169	105.520290	86.000000	84.000000
105.368169	105.520290	74.000000	71.000000
105.368169	105.520290	62.000000	58.000000
105.368169	105.520290	50.000000	49.000000
105.520290	105.744912	74.000000	79.000000
105.520290	105.744912	86.000000	94.000000
105.520290	105.744912	50.000000	55.000000
105.520290	105.744912	62.000000	65.000000
105.969534	106.118705	62.000000	71.000000
105.969534	106.118705	74.000000	84.000000
106.118705	106.267876	74.000000	75.000000
106.118705	106.267876	62.000000	63.000000
106.267876	106.419408	62.000000	63.000000
106.267876	106.419408	74.000000	75.000000
106.419408	106.644029	62.000000	71.000000
106.419408	106.644029	74.000000	84.000000
106.868651	107.018399	74.000000	84.000000
106.868651	107.018399	62.000000	71.000000
107.018399	107.168147	62.000000	63.000000
107.018399	107.168147	74.000000	75.000000
107.168147	107.319678	62.000000	63.000000
107.168147	107.319678	74.000000	75.000000
107.319678	107.544300	74.000000	84.000000
107.319678	107.544300	62.000000	71.000000
107.768922	107.920440	62.000000	70.000000
107.768922	107.920440	74.000000	78.000000
107.768922	108.369482	47.000000	61.000000
107.768922	108.369482	55.000000	68.000000
107.920440	108.071971	62.000000	65.000000
107.920440	108.071971	74.000000	73.000000
108.071971	108.223503	62.000000	65.000000
108.071971	108.223503	74.000000	73.000000
108.223503	108.820992	62.000000	70.000000
108.223503	108.820992	74.000000	78.000000
108.369482	108.478970	47.000000	56.000000
108.369482	108.478970	55.000000	63.000000
108.515461	108.630957	47.000000	56.000000
108.515461	108.630957	55.000000	63.000000
108.669461	109.273226	47.000000	62.000000
108.669461	109.273226	55.000000	69.000000
108.820992	108.934637	62.000000	64.000000
108.820992	108.934637	74.000000	72.000000
108.972524	109.086169	62.000000	64.000000
108.972524	109.086169	74.000000	72.000000
109.124055	109.721893	62.000000	70.000000
109.124055	109.721893	74.000000	78.000000
109.273226	109.385101	47.000000	56.000000
109.273226	109.385101	55.000000	63.000000
109.422397	109.534272	47.000000	55.000000
109.422397	109.534272	55.000000	62.000000
109.571568	110.247244	47.000000	61.000000
109.571568	110.247244	55.000000	68.000000
109.721893	109.833325	62.000000	64.000000
109.721893	109.833325	74.000000	72.000000
109.870474	109.981906	62.000000	64.000000
109.870474	109.981906	74.000000	72.000000
110.019055	110.716738	62.000000	70.000000
110.019055	110.716738	74.000000	78.000000
110.247244	110.364618	59.000000	62.000000
110.247244	110.364618	55.000000	55.000000
110.481991	110.599365	57.000000	61.000000
110.481991	110.599365	60.000000	68.000000
110.716738	111.186233	62.000000	67.000000
110.716738	111.186233	74.000000	75.000000
110.716738	110.834112	55.000000	55.000000
110.716738	110.834112	59.000000	62.000000
110.951485	111.068859	60.000000	68.000000
110.951485	111.068859	57.000000	61.000000
111.186233	111.303606	62.000000	68.000000
111.186233	111.303606	74.000000	76.000000
111.186233	111.303606	50.000000	60.000000
111.186233	111.303606	57.000000	67.000000
111.420980	112.018992	62.000000	68.000000
111.420980	112.018992	59.000000	61.000000
111.571921	111.685124	67.000000	67.000000
111.571921	111.685124	79.000000	75.000000
111.722862	111.836065	67.000000	67.000000
111.722862	111.836065	79.000000	75.000000
111.873804	112.460779	67.000000	74.000000
111.873804	112.460779	79.000000	83.000000
112.018992	112.127890	59.000000	56.000000
112.018992	112.127890	62.000000	63.000000
112.164193	112.275626	59.000000	56.000000
112.164193	112.275626	62.000000	63.000000
112.312774	112.901426	59.000000	62.000000
112.312774	112.901426	62.000000	69.000000
112.460779	112.571782	67.000000	67.000000
112.460779	112.571782	79.000000	75.000000
112.608783	112.719787	67.000000	67.000000
112.608783	112.719787	79.000000	75.000000
112.756788	113.422097	67.000000	70.000000
112.756788	113.422097	79.000000	78.000000
112.901426	113.011182	59.000000	56.000000
112.901426	113.011182	62.000000	63.000000
113.048612	113.160916	59.000000	55.000000
113.048612	113.160916	62.000000	62.000000
113.198347	113.310222	64.000000	68.000000
113.198347	113.310222	60.000000	61.000000
113.422097	113.874022	67.000000	70.000000
113.422097	113.874022	79.000000	78.000000
113.422097	113.533972	59.000000	54.000000
113.422097	113.533972	62.000000	61.000000
113.645847	113.759934	57.000000	58.000000
113.645847	113.759934	60.000000	65.000000
113.874022	113.991396	67.000000	68.000000
113.874022	113.991396	79.000000	76.000000
113.874022	113.991396	55.000000	53.000000
113.874022	113.991396	59.000000	59.000000
114.108769	114.226143	74.000000	87.000000
114.108769	114.226143	78.000000	87.000000
114.108769	114.226143	86.000000	97.000000
114.108769	114.226143	50.000000	71.000000
114.108769	114.226143	57.000000	79.000000
114.343516	114.460890	74.000000	79.000000
114.343516	114.460890	79.000000	79.000000
114.343516	114.460890	86.000000	88.000000
114.343516	114.460890	55.000000	66.000000
114.343516	114.460890	59.000000	74.000000
114.578264	114.813011	74.000000	84.000000
114.578264	114.813011	78.000000	84.000000
114.578264	114.813011	86.000000	94.000000
114.578264	114.813011	50.000000	71.000000
114.578264	114.813011	57.000000	79.000000
115.047758	115.654232	59.000000	72.000000
115.047758	115.654232	67.000000	80.000000
115.515348	116.384572	63.000000	72.000000
115.515348	116.384572	51.000000	64.000000
115.654232	115.758396	59.000000	67.000000
115.654232	115.758396	67.000000	75.000000
115.793117	115.904992	59.000000	67.000000
115.793117	115.904992	67.000000	75.000000
115.942288	116.524435	59.000000	72.000000
115.942288	116.524435	67.000000	81.000000
116.384572	116.804163	50.000000	63.000000
116.384572	116.804163	62.000000	70.000000
116.524435	116.629337	59.000000	67.000000
116.524435	116.629337	67.000000	75.000000
116.664299	116.769201	59.000000	66.000000
116.664299	116.769201	67.000000	74.000000
116.804163	117.478055	59.000000	72.000000
116.804163	117.478055	67.000000	80.000000
117.251663	118.164513	51.000000	64.000000
117.251663	118.164513	63.000000	72.000000
117.478055	117.593068	71.000000	74.000000
117.478055	117.593068	67.000000	66.000000
117.708082	117.821284	69.000000	72.000000
117.708082	117.821284	72.000000	80.000000
117.934487	118.049500	67.000000	66.000000
117.934487	118.049500	71.000000	74.000000
118.164513	118.277716	72.000000	80.000000
118.164513	118.277716	69.000000	72.000000
118.164513	118.617324	50.000000	62.000000
118.164513	118.390919	62.000000	69.000000
118.390919	118.617324	62.000000	71.000000
118.390919	118.504122	69.000000	79.000000
118.617324	119.214921	74.000000	80.000000
118.617324	119.214921	71.000000	72.000000
119.075553	119.502870	67.000000	68.000000
119.075553	119.502870	55.000000	61.000000
119.214921	119.319447	71.000000	67.000000
119.214921	119.319447	74.000000	75.000000
119.354288	119.465721	71.000000	67.000000
119.354288	119.465721	74.000000	75.000000
119.502870	120.080443	71.000000	72.000000
119.502870	120.080443	74.000000	81.000000
119.502870	119.940097	66.000000	72.000000
119.502870	119.940097	54.000000	64.000000
119.940097	120.375218	65.000000	69.000000
119.940097	120.375218	53.000000	62.000000
120.080443	120.188054	71.000000	67.000000
120.080443	120.188054	74.000000	75.000000
120.225484	120.337788	71.000000	66.000000
120.225484	120.337788	74.000000	74.000000
120.375218	120.487093	76.000000	80.000000
120.375218	120.487093	72.000000	72.000000
120.375218	121.050894	52.000000	64.000000
120.375218	121.050894	64.000000	72.000000
120.598968	120.710843	71.000000	69.000000
120.598968	120.710843	74.000000	77.000000
120.822718	120.936806	69.000000	69.000000
120.822718	120.936806	72.000000	77.000000
121.050894	121.168268	64.000000	67.000000
121.050894	121.168268	68.000000	75.000000
121.050894	121.168268	71.000000	75.000000
121.050894	121.168268	50.000000	54.000000
121.050894	121.168268	52.000000	54.000000
121.050894	121.168268	62.000000	60.000000
121.285641	121.401593	64.000000	73.000000
121.285641	121.401593	69.000000	82.000000
121.285641	121.401593	52.000000	59.000000
121.285641	121.401593	48.000000	59.000000
121.285641	121.401593	60.000000	66.000000
121.517545	121.635401	64.000000	69.000000
121.517545	121.635401	68.000000	69.000000
121.517545	121.635401	71.000000	77.000000
121.517545	121.635401	47.000000	51.000000
121.517545	121.635401	52.000000	51.000000
121.517545	121.635401	59.000000	57.000000
121.753258	121.869666	64.000000	67.000000
121.753258	121.869666	69.000000	73.000000
121.753258	121.869666	72.000000	82.000000
121.753258	121.869666	45.000000	54.000000
121.753258	121.869666	52.000000	54.000000
121.753258	121.869666	57.000000	60.000000
121.986074	122.103447	43.000000	49.000000
121.986074	122.103447	55.000000	55.000000
122.220821	122.333058	74.000000	64.000000
122.220821	122.333058	78.000000	72.000000
122.220821	122.333058	42.000000	54.000000
122.220821	122.333058	54.000000	60.000000
122.445295	122.560295	73.000000	59.000000
122.445295	122.560295	76.000000	66.000000
122.675295	122.788444	71.000000	63.000000
122.675295	122.788444	74.000000	71.000000
122.901593	123.016592	66.000000	60.000000
122.901593	123.016592	70.000000	67.000000
122.901593	123.016592	73.000000	67.000000
122.901593	123.016592	52.000000	51.000000
122.901593	123.016592	64.000000	57.000000
123.131592	123.245667	66.000000	62.000000
123.131592	123.245667	71.000000	69.000000
123.131592	123.245667	50.000000	54.000000
123.131592	123.245667	62.000000	60.000000
123.359741	123.475237	66.000000	57.000000
123.359741	123.475237	70.000000	64.000000
123.359741	123.475237	73.000000	64.000000
123.359741	123.475237	49.000000	50.000000
123.359741	123.475237	61.000000	56.000000
123.590733	123.704808	66.000000	60.000000
123.590733	123.704808	71.000000	67.000000
123.590733	123.704808	74.000000	67.000000
123.590733	123.704808	47.000000	53.000000
123.590733	123.704808	59.000000	59.000000
123.818882	123.933882	45.000000	50.000000
123.818882	123.933882	57.000000	56.000000
124.048882	124.159885	76.000000	64.000000
124.048882	124.159885	80.000000	72.000000
124.048882	124.159885	44.000000	54.000000
124.048882	124.159885	56.000000	60.000000
124.270888	124.384091	75.000000	59.000000
124.270888	124.384091	78.000000	66.000000
124.497294	124.609169	73.000000	63.000000
124.497294	124.609169	76.000000	71.000000
124.721044	124.834689	68.000000	60.000000
124.721044	124.834689	72.000000	67.000000
124.721044	124.834689	75.000000	67.000000
124.721044	124.834689	54.000000	51.000000
124.721044	124.834689	66.000000	57.000000
124.948334	125.059767	68.000000	62.000000
124.948334	125.059767	73.000000	69.000000
124.948334	125.059767	56.000000	54.000000
124.948334	125.059767	52.000000	54.000000
124.948334	125.059767	64.000000	60.000000
125.171199	125.284402	68.000000	57.000000
125.171199	125.284402	72.000000	64.000000
125.171199	125.284402	75.000000	64.000000
125.171199	125.284402	56.000000	51.000000
125.171199	125.284402	51.000000	50.000000
125.171199	125.284402	63.000000	56.000000
125.397604	125.510351	68.000000	60.000000
125.397604	125.510351	73.000000	67.000000
125.397604	125.510351	76.000000	67.000000
125.397604	125.510351	56.000000	53.000000
125.397604	125.510351	49.000000	53.000000
125.397604	125.510351	61.000000	59.000000
125.623098	125.738098	47.000000	50.000000
125.623098	125.738098	59.000000	56.000000
125.853097	126.075962	78.000000	54.000000
125.853097	126.075962	81.000000	61.000000
125.853097	126.298827	45.000000	54.000000
125.853097	126.298827	57.000000	60.000000
126.075962	126.298827	76.000000	49.000000
126.075962	126.298827	79.000000	55.000000
126.298827	126.518286	74.000000	54.000000
126.298827	126.518286	78.000000	60.000000
126.298827	126.736068	47.000000	50.000000
126.298827	126.736068	59.000000	56.000000
126.298827	126.736068	57.000000	56.000000
126.518286	126.736068	69.000000	50.000000
126.518286	126.736068	76.000000	56.000000
126.736068	126.957203	78.000000	54.000000
126.736068	126.957203	81.000000	61.000000
126.736068	127.396951	57.000000	60.000000
126.736068	127.396951	48.000000	54.000000
126.736068	127.396951	60.000000	60.000000
126.957203	127.178338	76.000000	49.000000
126.957203	127.178338	79.000000	55.000000
127.178338	127.396951	74.000000	54.000000
127.178338	127.396951	78.000000	60.000000
127.396951	127.619816	69.000000	52.000000
127.396951	127.619816	76.000000	58.000000
127.396951	127.619816	49.000000	51.000000
127.396951	127.619816	57.000000	57.000000
127.396951	127.619816	61.000000	57.000000
127.619816	127.837598	78.000000	55.000000
127.619816	127.837598	81.000000	62.000000
127.619816	128.057888	45.000000	55.000000
127.619816	128.057888	57.000000	62.000000
127.837598	128.057888	76.000000	51.000000
127.837598	128.057888	79.000000	57.000000
128.057888	128.278191	74.000000	56.000000
128.057888	128.278191	78.000000	63.000000
128.057888	128.501941	47.000000	52.000000
128.057888	128.501941	59.000000	58.000000
128.057888	128.501941	57.000000	58.000000
128.278191	128.501941	69.000000	53.000000
128.278191	128.501941	76.000000	59.000000
128.501941	128.718905	78.000000	56.000000
128.501941	128.718905	81.000000	63.000000
128.501941	129.159499	57.000000	62.000000
128.501941	129.159499	48.000000	55.000000
128.501941	129.159499	60.000000	62.000000
128.718905	128.939195	76.000000	53.000000
128.718905	128.939195	79.000000	59.000000
128.939195	129.159499	74.000000	56.000000
128.939195	129.159499	78.000000	63.000000
129.159499	129.383249	69.000000	54.000000
129.159499	129.383249	76.000000	61.000000
129.159499	129.383249	49.000000	54.000000
129.159499	129.383249	57.000000	60.000000
129.159499	129.383249	61.000000	60.000000
129.383249	129.599395	83.000000	62.000000
129.383249	129.599395	86.000000	69.000000
129.383249	129.815527	50.000000	62.000000
129.383249	129.815527	62.000000	69.000000
129.599395	129.815527	81.000000	56.000000
129.599395	129.815527	84.000000	63.000000
129.815527	130.035817	79.000000	61.000000
129.815527	130.035817	83.000000	68.000000
129.815527	130.260439	52.000000	56.000000
129.815527	130.260439	64.000000	63.000000
129.815527	130.260439	62.000000	63.000000
130.035817	130.260439	74.000000	56.000000
130.035817	130.260439	81.000000	63.000000
130.260439	130.475780	83.000000	63.000000
130.260439	130.475780	86.000000	71.000000
130.260439	130.908890	62.000000	69.000000
130.260439	130.908890	53.000000	62.000000
130.260439	130.908890	65.000000	69.000000
130.475780	130.691108	81.000000	57.000000
130.475780	130.691108	84.000000	64.000000
130.691108	130.908890	79.000000	62.000000
130.691108	130.908890	83.000000	69.000000
130.908890	131.131755	74.000000	59.000000
130.908890	131.131755	81.000000	66.000000
130.908890	131.131755	54.000000	58.000000
130.908890	131.131755	62.000000	65.000000
130.908890	131.131755	66.000000	65.000000
131.131755	131.346265	83.000000	64.000000
131.131755	131.346265	86.000000	72.000000
131.131755	131.560775	50.000000	63.000000
131.131755	131.560775	62.000000	71.000000
131.346265	131.560775	81.000000	58.000000
131.346265	131.560775	84.000000	65.000000
131.560775	131.779388	79.000000	63.000000
131.560775	131.779388	83.000000	71.000000
131.560775	131.994716	52.000000	59.000000
131.560775	131.994716	64.000000	66.000000
131.560775	131.994716	62.000000	66.000000
131.779388	131.994716	74.000000	61.000000
131.779388	131.994716	81.000000	68.000000
131.994716	132.210849	83.000000	65.000000
131.994716	132.210849	86.000000	73.000000
131.994716	132.648076	62.000000	73.000000
131.994716	132.648076	53.000000	65.000000
131.994716	132.648076	65.000000	73.000000
132.210849	132.429462	81.000000	61.000000
132.210849	132.429462	84.000000	68.000000
132.429462	132.648076	79.000000	64.000000
132.429462	132.648076	83.000000	72.000000
132.648076	132.874468	74.000000	70.000000
132.648076	132.874468	81.000000	70.000000
132.648076	132.874468	54.000000	61.000000
132.648076	132.874468	62.000000	68.000000
132.648076	132.874468	66.000000	68.000000
132.874468	133.482391	67.000000	82.000000
132.874468	133.482391	71.000000	82.000000
132.874468	133.482391	79.000000	92.000000
132.874468	133.342044	55.000000	79.000000
133.342044	134.209136	55.000000	71.000000
133.342044	134.209136	65.000000	79.000000
133.342044	134.209136	53.000000	71.000000
133.482391	133.587654	67.000000	77.000000
133.482391	133.587654	71.000000	77.000000
133.482391	133.587654	79.000000	86.000000
133.622738	133.734613	67.000000	77.000000
133.622738	133.734613	71.000000	77.000000
133.622738	133.734613	79.000000	86.000000
133.771909	134.349000	67.000000	83.000000
133.771909	134.349000	71.000000	83.000000
133.771909	134.349000	79.000000	93.000000
134.209136	135.076228	55.000000	69.000000
134.209136	135.076228	52.000000	69.000000
134.209136	135.076228	64.000000	77.000000
134.349000	134.453901	67.000000	77.000000
134.349000	134.453901	71.000000	77.000000
134.349000	134.453901	79.000000	86.000000
134.488864	134.593765	67.000000	76.000000
134.488864	134.593765	71.000000	76.000000
134.488864	134.593765	79.000000	85.000000
134.628728	135.289759	67.000000	82.000000
134.628728	135.289759	71.000000	82.000000
134.628728	135.289759	79.000000	92.000000
135.076228	135.955376	55.000000	71.000000
135.076228	135.955376	51.000000	71.000000
135.076228	135.955376	63.000000	79.000000
135.289759	135.515252	71.000000	73.000000
135.289759	135.515252	83.000000	82.000000
135.289759	135.515252	79.000000	82.000000
135.515252	135.730312	72.000000	78.000000
135.515252	135.730312	81.000000	87.000000
135.515252	135.730312	84.000000	87.000000
135.730312	135.955376	71.000000	76.000000
135.730312	135.955376	79.000000	85.000000
135.730312	135.955376	83.000000	85.000000
135.955376	136.176511	72.000000	78.000000
135.955376	136.176511	84.000000	87.000000
135.955376	136.176511	81.000000	87.000000
135.955376	136.403801	54.000000	67.000000
135.955376	136.403801	50.000000	67.000000
135.955376	136.403801	62.000000	75.000000
136.176511	136.403801	69.000000	72.000000
136.176511	136.403801	74.000000	81.000000
136.176511	136.403801	81.000000	81.000000
136.403801	137.001894	74.000000	90.000000
136.403801	137.001894	86.000000	101.000000
136.403801	137.001894	83.000000	101.000000
136.403801	136.862030	38.000000	66.000000
136.403801	136.862030	50.000000	74.000000
136.862030	137.290339	50.000000	74.000000
136.862030	137.290339	52.000000	74.000000
136.862030	137.290339	40.000000	66.000000
137.001894	137.106795	74.000000	84.000000
137.001894	137.106795	83.000000	94.000000
137.001894	137.106795	86.000000	94.000000
137.141758	137.253191	74.000000	84.000000
137.141758	137.253191	83.000000	94.000000
137.141758	137.253191	86.000000	94.000000
137.290339	137.867913	74.000000	91.000000
137.290339	137.867913	83.000000	102.000000
137.290339	137.867913	86.000000	102.000000
137.290339	137.727566	50.000000	79.000000
137.290339	137.727566	54.000000	79.000000
137.290339	137.727566	42.000000	71.000000
137.727566	138.162688	50.000000	75.000000
137.727566	138.162688	55.000000	75.000000
137.727566	138.162688	43.000000	67.000000
137.867913	137.975523	74.000000	84.000000
137.867913	137.975523	83.000000	94.000000
137.867913	137.975523	86.000000	94.000000
138.012954	138.125258	74.000000	83.000000
138.012954	138.125258	83.000000	93.000000
138.012954	138.125258	86.000000	93.000000
138.162688	138.274563	76.000000	83.000000
138.162688	138.274563	88.000000	93.000000
138.162688	138.274563	84.000000	93.000000
138.386438	138.498313	74.000000	77.000000
138.386438	138.498313	83.000000	86.000000
138.386438	138.498313	86.000000	86.000000
138.386438	138.498313	43.000000	64.000000
138.386438	138.498313	50.000000	64.000000
138.386438	138.498313	55.000000	72.000000
138.610188	138.724276	72.000000	81.000000
138.610188	138.724276	81.000000	91.000000
138.610188	138.724276	84.000000	91.000000
138.610188	138.724276	45.000000	66.000000
138.610188	138.724276	50.000000	66.000000
138.610188	138.724276	57.000000	74.000000
138.838364	138.955737	71.000000	76.000000
138.838364	138.955737	74.000000	85.000000
138.838364	138.955737	79.000000	85.000000
138.838364	138.955737	83.000000	85.000000
138.838364	138.955737	47.000000	59.000000
138.838364	138.955737	50.000000	59.000000
138.838364	138.955737	59.000000	66.000000
139.073111	139.190484	69.000000	84.000000
139.073111	139.190484	74.000000	84.000000
139.073111	139.190484	78.000000	94.000000
139.073111	139.190484	81.000000	94.000000
139.073111	139.190484	54.000000	70.000000
139.073111	139.190484	57.000000	78.000000
139.073111	139.190484	50.000000	70.000000
139.073111	139.190484	62.000000	78.000000
139.307858	139.425231	71.000000	80.000000
139.307858	139.425231	74.000000	80.000000
139.307858	139.425231	79.000000	89.000000
139.307858	139.425231	83.000000	89.000000
139.307858	139.425231	55.000000	65.000000
139.307858	139.425231	59.000000	73.000000
139.307858	139.425231	62.000000	73.000000
139.542605	139.659978	69.000000	77.000000
139.542605	139.659978	74.000000	77.000000
139.542605	139.659978	78.000000	94.000000
139.542605	139.659978	81.000000	94.000000
139.542605	139.659978	54.000000	68.000000
139.542605	139.659978	50.000000	68.000000
139.542605	139.659978	57.000000	76.000000
139.542605	139.659978	62.000000	76.000000
140.012086	140.621511	67.000000	82.000000
140.012086	140.621511	71.000000	82.000000
140.012086	140.621511	79.000000	92.000000
140.012086	140.479662	55.000000	79.000000
140.479662	141.349744	55.000000	71.000000
140.479662	141.349744	65.000000	79.000000
140.479662	141.349744	53.000000	71.000000
140.621511	140.727887	67.000000	77.000000
140.621511	140.727887	71.000000	77.000000
140.621511	140.727887	79.000000	86.000000
140.763346	140.875221	67.000000	77.000000
140.763346	140.875221	71.000000	77.000000
140.763346	140.875221	79.000000	86.000000
140.912517	141.491593	67.000000	83.000000
140.912517	141.491593	71.000000	83.000000
140.912517	141.491593	79.000000	93.000000
141.349744	142.222764	55.000000	69.000000
141.349744	142.222764	52.000000	69.000000
141.349744	142.222764	64.000000	77.000000
141.491593	141.597970	67.000000	77.000000
141.491593	141.597970	71.000000	77.000000
141.491593	141.597970	79.000000	86.000000
141.633428	141.739805	67.000000	76.000000
141.633428	141.739805	71.000000	76.000000
141.633428	141.739805	79.000000	85.000000
141.775264	142.436295	67.000000	82.000000
141.775264	142.436295	71.000000	82.000000
141.775264	142.436295	79.000000	92.000000
142.222764	142.660916	55.000000	71.000000
142.222764	142.660916	51.000000	71.000000
142.222764	142.660916	63.000000	79.000000
142.436295	142.660916	71.000000	73.000000
142.436295	142.660916	83.000000	82.000000
142.436295	142.660916	79.000000	82.000000
142.660916	142.875976	72.000000	78.000000
142.660916	142.875976	81.000000	87.000000
142.660916	142.875976	84.000000	87.000000
142.660916	143.320056	50.000000	67.000000
142.660916	143.320056	54.000000	67.000000
142.660916	143.320056	62.000000	75.000000
142.875976	143.100598	71.000000	76.000000
142.875976	143.100598	80.000000	85.000000
142.875976	143.100598	83.000000	85.000000
143.100598	143.210327	72.000000	78.000000
143.100598	143.210327	84.000000	87.000000
143.100598	143.210327	81.000000	87.000000
143.320056	143.432360	69.000000	72.000000
143.320056	143.432360	74.000000	81.000000
143.320056	143.432360	81.000000	81.000000
143.320056	143.432360	48.000000	61.000000
143.320056	143.432360	54.000000	61.000000
143.320056	143.432360	60.000000	68.000000
143.544665	144.209129	74.000000	82.000000
143.544665	144.431135	79.000000	87.000000
143.544665	144.209129	86.000000	96.000000
143.544665	143.768415	47.000000	64.000000
143.544665	143.768415	50.000000	64.000000
143.544665	143.768415	55.000000	72.000000
143.544665	143.768415	59.000000	72.000000
143.768415	143.992165	48.000000	60.000000
143.768415	143.992165	60.000000	67.000000
143.992165	144.209129	47.000000	64.000000
143.992165	144.209129	59.000000	72.000000
144.209129	144.431135	72.000000	73.000000
144.209129	144.431135	84.000000	82.000000
144.209129	144.431135	45.000000	60.000000
144.209129	144.431135	57.000000	67.000000
144.431135	144.650594	71.000000	78.000000
144.431135	144.650594	79.000000	87.000000
144.431135	144.650594	83.000000	87.000000
144.431135	145.092944	43.000000	63.000000
144.431135	145.092944	55.000000	71.000000
144.431135	145.316694	50.000000	71.000000
144.650594	144.874344	72.000000	76.000000
144.650594	144.874344	81.000000	85.000000
144.650594	144.874344	84.000000	85.000000
144.874344	144.983644	74.000000	78.000000
144.874344	144.983644	86.000000	87.000000
144.874344	144.983644	83.000000	87.000000
145.092944	145.204819	71.000000	72.000000
145.092944	145.204819	79.000000	81.000000
145.092944	145.204819	83.000000	81.000000
145.092944	145.204819	41.000000	60.000000
145.092944	145.204819	53.000000	67.000000
145.316694	145.982794	79.000000	82.000000
145.316694	145.982794	84.000000	87.000000
145.316694	145.982794	91.000000	96.000000
145.316694	145.428569	40.000000	64.000000
145.316694	145.428569	52.000000	72.000000
145.540444	145.652319	42.000000	60.000000
145.540444	145.652319	54.000000	67.000000
145.764194	145.873494	40.000000	64.000000
145.764194	145.873494	52.000000	72.000000
145.982794	146.092738	84.000000	69.000000
145.982794	146.092738	78.000000	69.000000
145.982794	146.092738	90.000000	77.000000
145.982794	146.092738	38.000000	63.000000
145.982794	146.092738	50.000000	70.000000
146.202682	146.310493	76.000000	74.000000
146.202682	146.310493	84.000000	82.000000
146.202682	146.310493	88.000000	82.000000
146.202682	146.855532	36.000000	66.000000
146.202682	146.855532	48.000000	74.000000
146.418305	146.529107	78.000000	72.000000
146.418305	146.529107	86.000000	80.000000
146.418305	146.529107	90.000000	80.000000
146.639909	146.747720	76.000000	74.000000
146.639909	146.747720	88.000000	82.000000
146.639909	146.747720	84.000000	82.000000
146.855532	146.966334	74.000000	68.000000
146.855532	146.966334	83.000000	76.000000
146.855532	146.966334	86.000000	76.000000
146.855532	146.966334	38.000000	65.000000
146.855532	146.966334	50.000000	65.000000
147.077136	147.186208	72.000000	73.000000
147.077136	147.186208	81.000000	81.000000
147.077136	147.186208	84.000000	81.000000
147.077136	147.726580	39.000000	70.000000
147.077136	147.726580	51.000000	70.000000
147.295280	147.404352	83.000000	74.000000
147.295280	147.404352	86.000000	74.000000
147.295280	147.404352	74.000000	66.000000
147.513425	147.620002	72.000000	71.000000
147.513425	147.620002	81.000000	79.000000
147.513425	147.620002	84.000000	79.000000
147.726580	147.836524	79.000000	72.000000
147.726580	147.836524	71.000000	64.000000
147.726580	147.836524	83.000000	72.000000
147.726580	147.836524	40.000000	64.000000
147.726580	147.836524	52.000000	64.000000
147.946467	148.054279	69.000000	69.000000
147.946467	148.054279	78.000000	77.000000
147.946467	148.054279	81.000000	77.000000
147.946467	148.599318	42.000000	71.000000
147.946467	148.599318	54.000000	71.000000
148.162090	148.272892	71.000000	66.000000
148.162090	148.272892	79.000000	74.000000
148.162090	148.272892	83.000000	74.000000
148.383695	148.491506	69.000000	69.000000
148.383695	148.491506	81.000000	77.000000
148.383695	148.491506	78.000000	77.000000
148.599318	148.710120	67.000000	65.000000
148.599318	148.710120	76.000000	73.000000
148.599318	148.710120	79.000000	73.000000
148.599318	148.710120	43.000000	65.000000
148.599318	148.710120	55.000000	65.000000
148.820922	148.929994	66.000000	73.000000
148.820922	148.929994	74.000000	81.000000
148.820922	148.929994	78.000000	81.000000
148.820922	149.470365	45.000000	70.000000
148.820922	149.470365	57.000000	70.000000
149.039066	149.148138	76.000000	74.000000
149.039066	149.148138	79.000000	74.000000
149.039066	149.148138	67.000000	66.000000
149.257210	149.363788	66.000000	71.000000
149.257210	149.363788	74.000000	79.000000
149.257210	149.363788	78.000000	79.000000
149.470365	149.580309	72.000000	72.000000
149.470365	149.580309	64.000000	64.000000
149.470365	149.580309	76.000000	72.000000
149.470365	149.580309	46.000000	64.000000
149.470365	149.580309	58.000000	64.000000
149.690253	149.798065	62.000000	65.000000
149.690253	149.798065	71.000000	73.000000
149.690253	149.798065	74.000000	73.000000
149.690253	150.343103	47.000000	67.000000
149.690253	150.343103	59.000000	67.000000
149.905876	150.016678	64.000000	62.000000
149.905876	150.016678	76.000000	70.000000
149.905876	150.016678	72.000000	70.000000
150.127480	150.235292	62.000000	65.000000
150.127480	150.235292	74.000000	73.000000
150.127480	150.235292	71.000000	73.000000
150.343103	150.453905	64.000000	61.000000
150.343103	150.453905	69.000000	69.000000
150.343103	150.453905	72.000000	69.000000
150.343103	150.453905	48.000000	60.000000
150.343103	150.453905	60.000000	60.000000
150.564707	151.174629	67.000000	65.000000
150.564707	151.174629	71.000000	73.000000
150.564707	151.032284	50.000000	63.000000
150.564707	151.032284	62.000000	63.000000
151.032284	151.466158	51.000000	56.000000
151.032284	151.466158	63.000000	63.000000
151.174629	151.281394	59.000000	61.000000
151.174629	151.281394	67.000000	61.000000
151.174629	151.281394	71.000000	68.000000
151.316987	151.428862	59.000000	61.000000
151.316987	151.428862	67.000000	61.000000
151.316987	151.428862	71.000000	68.000000
151.466158	152.045234	59.000000	62.000000
151.466158	152.045234	67.000000	62.000000
151.466158	152.045234	71.000000	70.000000
151.466158	151.903385	50.000000	63.000000
151.466158	151.903385	62.000000	63.000000
151.903385	152.328905	51.000000	55.000000
151.903385	152.328905	63.000000	61.000000
152.045234	152.151611	59.000000	61.000000
152.045234	152.151611	67.000000	61.000000
152.045234	152.151611	71.000000	68.000000
152.187069	152.293446	59.000000	60.000000
152.187069	152.293446	67.000000	60.000000
152.187069	152.293446	71.000000	68.000000
152.328905	152.776405	59.000000	61.000000
152.328905	152.776405	67.000000	61.000000
152.328905	152.776405	71.000000	69.000000
152.328905	152.776405	50.000000	63.000000
152.328905	152.776405	62.000000	63.000000
152.776405	153.217991	47.000000	56.000000
152.776405	153.217991	59.000000	63.000000
152.993369	153.217991	62.000000	58.000000
152.993369	153.217991	74.000000	65.000000
152.993369	153.217991	67.000000	65.000000
153.217991	153.434955	67.000000	62.000000
153.217991	153.434955	64.000000	62.000000
153.217991	153.434955	73.000000	69.000000
153.217991	153.434955	76.000000	69.000000
153.217991	153.656089	46.000000	53.000000
153.217991	153.656089	58.000000	60.000000
153.434955	153.656089	62.000000	60.000000
153.434955	153.656089	74.000000	68.000000
153.656089	153.873054	64.000000	62.000000
153.656089	153.873054	76.000000	69.000000
153.656089	153.873054	72.000000	69.000000
153.656089	154.097675	45.000000	48.000000
153.656089	154.097675	57.000000	54.000000
153.873054	154.097675	66.000000	57.000000
153.873054	154.097675	78.000000	64.000000
154.097675	154.322297	67.000000	62.000000
154.097675	154.322297	71.000000	62.000000
154.097675	154.322297	79.000000	69.000000
154.097675	154.322297	43.000000	54.000000
154.097675	154.322297	55.000000	60.000000
154.546919	154.982832	51.000000	58.000000
154.546919	154.982832	63.000000	66.000000
154.690283	154.797813	71.000000	67.000000
154.690283	154.797813	79.000000	67.000000
154.690283	154.797813	83.000000	74.000000
154.833660	154.945535	71.000000	67.000000
154.833660	154.945535	79.000000	67.000000
154.833660	154.945535	83.000000	74.000000
154.982832	155.561384	71.000000	68.000000
154.982832	155.561384	79.000000	68.000000
154.982832	155.561384	83.000000	77.000000
154.982832	155.420045	50.000000	66.000000
154.982832	155.420045	62.000000	66.000000
155.420045	155.844063	51.000000	57.000000
155.420045	155.844063	63.000000	64.000000
155.561384	155.667385	71.000000	67.000000
155.561384	155.667385	79.000000	67.000000
155.561384	155.667385	83.000000	74.000000
155.702724	155.808725	71.000000	66.000000
155.702724	155.808725	79.000000	66.000000
155.702724	155.808725	83.000000	74.000000
155.844063	156.291563	71.000000	67.000000
155.844063	156.291563	79.000000	67.000000
155.844063	156.291563	83.000000	75.000000
155.844063	156.291563	50.000000	66.000000
155.844063	156.291563	62.000000	66.000000
156.291563	156.733148	47.000000	58.000000
156.291563	156.733148	59.000000	66.000000
156.508527	156.733148	74.000000	72.000000
156.508527	156.733148	86.000000	81.000000
156.508527	156.733148	79.000000	81.000000
156.733148	156.950113	79.000000	78.000000
156.733148	156.950113	76.000000	78.000000
156.733148	156.950113	85.000000	85.000000
156.733148	156.950113	88.000000	85.000000
156.733148	157.172119	46.000000	60.000000
156.733148	157.172119	58.000000	69.000000
156.950113	157.172119	74.000000	75.000000
156.950113	157.172119	86.000000	84.000000
157.172119	157.389901	76.000000	78.000000
157.172119	157.389901	88.000000	85.000000
157.172119	157.389901	84.000000	85.000000
157.172119	157.614523	45.000000	55.000000
157.172119	157.614523	57.000000	61.000000
157.389901	157.614523	84.000000	71.000000
157.389901	157.614523	86.000000	80.000000
157.389901	157.614523	78.000000	71.000000
157.389901	157.614523	90.000000	80.000000
157.614523	157.839145	86.000000	78.000000
157.614523	157.839145	79.000000	78.000000
157.614523	157.839145	83.000000	78.000000
157.614523	157.839145	91.000000	85.000000
157.614523	157.839145	43.000000	61.000000
157.614523	157.839145	55.000000	69.000000
158.063766	158.172248	74.000000	74.000000
158.063766	158.172248	86.000000	83.000000
158.063766	158.495911	47.000000	58.000000
158.063766	158.495911	50.000000	58.000000
158.063766	158.495911	54.000000	58.000000
158.063766	158.495911	62.000000	64.000000
158.208405	158.316471	76.000000	74.000000
158.208405	158.316471	88.000000	83.000000
158.352493	158.460157	78.000000	75.000000
158.352493	158.460157	90.000000	84.000000
158.495911	158.718776	79.000000	77.000000
158.495911	158.718776	91.000000	85.000000
158.495911	158.718776	55.000000	61.000000
158.495911	158.718776	59.000000	61.000000
158.495911	158.718776	62.000000	69.000000
158.941641	159.050123	74.000000	74.000000
158.941641	159.050123	86.000000	83.000000
158.941641	159.373785	47.000000	58.000000
158.941641	159.373785	50.000000	58.000000
158.941641	159.373785	54.000000	58.000000
158.941641	159.373785	62.000000	64.000000
159.086279	159.194345	76.000000	74.000000
159.086279	159.194345	88.000000	83.000000
159.230367	159.338031	78.000000	75.000000
159.230367	159.338031	90.000000	84.000000
159.373785	159.613789	79.000000	77.000000
159.373785	159.613789	91.000000	85.000000
159.373785	159.613789	55.000000	61.000000
159.373785	159.613789	59.000000	61.000000
159.373785	159.613789	62.000000	69.000000
159.853793	160.135479	67.000000	71.000000
159.853793	160.135479	71.000000	71.000000
159.853793	160.135479	74.000000	71.000000
159.853793	160.135479	79.000000	79.000000
159.853793	160.135479	55.000000	61.000000
159.853793	160.135479	59.000000	61.000000
159.853793	160.135479	62.000000	68.000000
160.417178	161.907857	59.000000	79.000000
160.417178	161.907857	62.000000	79.000000
160.417178	161.907857	67.000000	88.000000
160.417178	161.907857	43.000000	65.000000
160.417178	161.907857	50.000000	65.000000
160.417178	161.907857	55.000000	73.000000
