OnsetTime	OffsetTime	MidiPitch	Velocity
0.500004	3.30754	36	86
0.500004	0.586211	48	103
0.586211	3.19962	48	77
0.672417	3.10953	55	80
0.758623	0.931036	60	77
0.844829	2.92934	64	90
0.931036	2.83924	60	77
1.01724	2.74915	67	80
1.10345	1.27586	72	78
1.18965	2.56895	76	93
1.27586	2.48275	72	79
1.36207	2.39654	79	82
1.44827	1.62069	84	80
1.53448	2.22413	88	93
1.62069	2.13792	84	80
1.70689	2.05172	91	83
1.7931	1.96551	96	81
1.8793	3.2311	100	95
1.96551	3.2311	96	80
2.05172	3.2311	91	84
2.13792	2.31034	84	80
2.22413	3.2311	88	94
2.31034	3.2311	84	80
2.39654	3.2311	79	83
2.48275	2.65905	72	79
2.56895	3.2311	76	93
2.65905	3.2311	72	79
2.74915	3.2311	67	81
2.83924	3.01943	60	78
2.92934	3.2311	64	92
3.01943	3.2311	60	76
3.10953	3.2311	55	80
3.19962	3.30754	48	77
3.30754	4.7276	29	88
3.30754	4.7276	41	104
3.39474	4.60593	48	80
3.48195	4.60593	57	80
3.56916	3.74359	60	77
3.65638	4.60593	65	91
3.74359	4.60593	60	77
3.8308	4.60593	69	80
3.91801	4.09477	72	78
4.00522	4.60593	77	93
4.09477	4.60593	72	78
4.18432	4.60593	81	82
4.27386	4.45295	84	80
4.36341	4.60593	89	94
4.45295	4.60593	84	81
4.5425	4.63206	93	83
4.63206	4.7276	96	80
4.7276	6.14485	30	85
4.7276	6.14485	42	101
4.7276	6.04849	100	96
4.8148	6.04849	96	80
4.90201	6.04849	93	84
4.98922	5.16364	84	80
5.07643	6.04849	88	95
5.16364	6.04849	84	80
5.25086	6.04849	81	83
5.33807	5.51249	72	79
5.42528	6.04849	76	93
5.51249	6.04849	72	78
5.59971	6.04849	69	81
5.68692	5.86134	60	77
5.77413	6.04849	62	92
5.86134	6.04849	60	76
5.94855	6.04849	57	80
6.03577	6.14485	48	77
6.14485	7.54911	31	85
6.14485	7.54911	43	101
6.23335	7.54911	47	80
6.32185	7.54911	55	77
6.41035	6.58735	59	80
6.49885	7.54911	62	90
6.58735	7.54911	59	77
6.67585	7.54911	67	80
6.76435	6.94516	71	78
6.85285	7.54911	30	86
6.85285	7.54911	42	102
6.85285	7.54911	74	93
6.94516	7.54911	71	79
7.03746	7.54911	79	82
7.12977	7.31641	83	80
7.22208	7.59943	28	82
7.22208	7.59943	40	97
7.22208	7.54911	86	94
7.31641	7.54911	83	80
7.41075	7.54911	91	83
7.50508	7.59943	93	79
7.59943	9.04889	26	86
7.59943	9.04889	38	102
7.59943	8.93809	98	97
7.68952	8.93809	93	80
7.77962	8.93809	90	84
7.86971	8.93809	84	80
7.95981	8.93809	86	95
8.0499	8.93809	81	80
8.14	8.93809	78	82
8.2301	8.93809	72	79
8.32019	8.93809	74	94
8.41029	8.93809	69	77
8.50038	8.93809	66	81
8.59048	8.93809	60	77
8.68057	8.93809	62	80
8.77067	8.93809	57	80
8.86076	8.95086	54	80
8.95086	9.04889	48	80
9.04889	11.8473	31	85
9.04889	11.8473	43	101
9.13585	10.4069	48	77
9.22281	10.4069	53	80
9.30977	10.4069	56	77
9.39672	10.4069	62	91
9.48368	10.4069	60	76
9.57064	10.4069	65	80
9.65759	10.4069	68	77
9.74455	10.4069	74	92
9.83151	10.4069	72	78
9.91847	10.4069	77	82
10.0054	10.4069	80	79
10.0924	10.4069	86	93
10.1793	10.4069	84	80
10.2663	10.4069	89	83
10.3533	11.7156	92	80
10.4402	11.7156	98	95
10.5272	11.7156	91	79
10.6141	11.7156	89	84
10.7011	11.7156	83	79
10.788	11.7156	86	94
10.875	11.7156	79	79
10.962	11.7156	77	83
11.0489	11.7156	71	78
11.1359	11.7156	74	93
11.2228	11.7156	67	77
11.3098	11.7156	65	81
11.3967	11.7156	59	77
11.4837	11.7156	63	95
11.5707	11.7156	55	77
11.6576	11.7446	53	80
11.7446	11.8473	47	77
11.8473	14.6241	36	85
11.8473	11.9335	48	101
11.9335	14.5285	48	76
12.0197	14.4411	55	80
12.1059	12.2783	60	76
12.1921	14.2661	64	85
12.2783	14.1787	60	76
12.3645	14.0912	67	80
12.4508	12.6232	72	78
12.537	13.9163	76	89
12.6232	13.8301	72	78
12.7094	13.7438	79	82
12.7956	12.968	84	79
12.8818	13.5714	88	90
12.968	13.4852	84	80
13.0542	13.399	91	83
13.1404	13.3128	96	80
13.2266	14.5081	100	92
13.3128	14.5081	96	80
13.399	14.5081	91	84
13.4852	13.6576	84	80
13.5714	14.5081	88	92
13.6576	14.5081	84	81
13.7438	14.5081	79	83
13.8301	14.0037	72	79
13.9163	14.5081	76	90
14.0037	14.5081	72	78
14.0912	14.5081	67	81
14.1787	14.3536	60	77
14.2661	14.5081	64	89
14.3536	14.5081	60	77
14.4411	14.5285	55	80
14.5285	14.6241	48	77
14.6241	17.4162	33	86
14.6241	17.4162	45	103
14.7108	15.9297	48	77
14.7975	15.9297	53	80
14.8842	15.0576	60	77
14.9709	15.1443	65	87
15.0576	15.9297	60	76
15.1443	15.9297	65	80
15.231	15.4044	72	77
15.3177	15.4911	77	89
15.4044	15.9297	72	77
15.4911	15.9297	77	82
15.5778	15.7512	84	79
15.6645	15.8379	89	92
15.7512	15.9297	84	80
15.8379	15.9297	89	83
15.9246	16.0988	96	80
16.0113	17.3233	100	93
16.0988	17.3233	96	80
16.1862	17.3233	90	84
16.2737	16.4486	84	79
16.3612	17.3233	88	93
16.4486	17.3233	84	80
16.5361	17.3233	78	83
16.6236	16.7985	72	79
16.711	17.3233	76	90
16.7985	17.3233	72	79
16.886	17.3233	66	81
16.9734	17.1484	60	78
17.0609	17.3233	64	89
17.1484	17.3233	60	77
17.2358	17.3233	54	80
17.3233	17.4162	48	77
17.4162	21.5713	31	81
17.4162	21.5713	43	96
17.5034	18.7091	48	73
17.5906	18.7091	55	76
17.6778	17.8522	60	74
17.765	18.7091	62	81
17.8522	18.7091	60	73
17.9395	18.7091	67	76
18.0267	18.2011	72	74
18.1139	18.7091	74	86
18.2011	18.7091	72	74
18.2883	18.7091	79	77
18.3755	18.5499	84	75
18.4627	18.7091	86	88
18.5499	18.7091	84	76
18.6372	18.7244	91	78
18.7244	18.8116	96	76
18.8116	20.1261	98	89
18.8996	20.1261	95	76
18.9875	20.1261	91	79
19.0755	19.2515	83	75
19.1635	20.1261	86	87
19.2515	20.1261	83	75
19.3394	20.1261	79	78
19.4274	19.6034	71	74
19.5154	20.1261	74	86
19.6034	20.1261	71	75
19.6913	20.1261	67	76
19.7793	19.9553	59	74
19.8673	20.1261	62	83
19.9553	20.1261	59	73
20.0432	20.1312	55	76
20.1312	21.5713	47	71
20.2283	23.0076	36	81
20.2283	22.9086	48	96
20.3148	21.5713	50	76
20.4012	21.5713	55	73
20.4877	20.6606	62	76
20.5742	21.5713	64	78
20.6606	21.5713	62	71
20.7471	21.5713	67	76
20.8335	21.0065	74	74
20.92	21.5713	76	79
21.0065	21.5713	74	74
21.0929	21.5713	79	77
21.1794	21.3523	86	75
21.2658	21.5713	88	83
21.3523	21.5713	86	76
21.4388	21.5713	91	78
21.5252	21.6117	98	76
21.6117	22.9317	100	83
21.6981	22.9317	96	73
21.7846	22.9317	91	77
21.871	22.044	84	73
21.9575	22.9317	88	84
22.044	22.9317	84	73
22.1304	22.9317	79	76
22.2169	22.3898	72	70
22.3033	22.9317	76	81
22.3898	22.9317	72	71
22.4763	22.9317	67	76
22.5627	22.7357	60	70
22.6492	22.9317	64	78
22.7357	22.9317	60	71
22.8221	22.9317	55	74
22.9086	23.0076	48	67
23.0076	25.0924	33	65
23.0076	25.0924	45	77
23.0938	24.3114	52	56
23.18	24.3114	60	61
23.2662	23.4386	64	59
23.3524	24.3114	65	66
23.4386	24.3114	64	57
23.5248	24.3114	72	61
23.611	23.7834	76	58
23.6972	24.3114	77	68
23.7834	24.3114	76	57
23.8697	24.3114	84	63
23.9559	24.1283	88	58
24.0421	24.3114	89	69
24.1283	24.3114	88	60
24.2145	24.3114	96	63
24.3007	25.7396	100	58
24.3927	25.7396	35	65
24.3927	25.7396	47	77
24.3927	25.7396	101	70
24.4802	25.7396	98	59
24.5676	25.7396	95	63
24.6551	24.83	86	59
24.7426	25.7396	89	69
24.83	25.7396	86	59
24.9175	25.7396	83	63
25.005	25.1817	74	58
25.0924	25.8124	33	65
25.0924	25.8124	45	77
25.0924	25.7396	77	68
25.1817	25.7396	74	57
25.271	25.7396	71	62
25.3603	25.5389	62	57
25.4496	25.7396	65	67
25.5389	25.7396	62	56
25.6282	25.7396	59	61
25.7175	25.8124	50	57
25.8124	27.1917	32	65
25.8124	27.1917	44	77
25.8986	27.1055	50	57
25.9848	27.1055	59	61
26.071	26.2434	62	57
26.1572	27.1055	64	71
26.2434	27.1055	62	57
26.3297	27.1055	71	61
26.4159	26.5883	74	58
26.5021	27.1055	76	72
26.5883	27.1055	74	57
26.6745	27.1055	83	63
26.7607	26.9331	86	57
26.8469	27.1055	88	72
26.9331	27.1055	86	58
27.0193	27.1055	95	63
27.1055	27.1917	98	59
27.1917	28.5566	33	64
27.1917	28.5566	45	76
27.1917	28.5566	100	72
27.2789	28.5566	96	60
27.3661	28.5566	93	63
27.4534	27.6278	84	61
27.5406	28.5566	88	74
27.6278	28.5566	84	61
27.715	28.5566	81	66
27.8022	27.9766	72	63
27.8894	28.5871	31	70
27.8894	28.5871	43	82
27.8894	28.5566	76	77
27.9766	28.5566	72	63
28.0638	28.5566	69	68
28.151	28.3255	60	63
28.2383	28.5566	64	79
28.3255	28.5566	60	64
28.4127	28.5566	57	70
28.4999	28.5871	48	65
28.5871	31.3932	29	76
28.5871	31.3932	41	90
28.6743	29.9207	48	65
28.7615	29.9207	57	72
28.8487	29.0232	60	66
28.936	29.9207	64	82
29.0232	29.9207	60	67
29.1104	29.9207	69	72
29.1976	29.372	72	68
29.2848	29.9207	76	82
29.372	29.9207	72	69
29.4592	29.9207	81	73
29.5464	29.7209	84	70
29.6337	29.9207	88	83
29.7209	29.9207	84	71
29.8081	29.9207	93	74
29.8953	31.3015	96	71
29.9825	31.3015	99	86
30.0697	31.3015	95	68
30.1569	31.3015	93	71
30.2441	30.4186	83	64
30.3314	31.3015	87	80
30.4186	31.3015	83	61
30.5058	31.3015	81	63
30.593	30.769	71	58
30.6802	31.3015	75	72
30.769	31.3015	71	54
30.8577	31.3015	69	60
30.9465	31.124	59	53
31.0352	31.3015	63	66
31.124	31.3015	59	63
31.2127	31.3015	57	61
31.3015	31.3932	47	58
31.3932	34.1962	28	64
31.3932	34.1962	40	76
31.4807	32.7358	47	56
31.5682	32.7358	57	60
31.6556	31.8306	59	56
31.7431	32.7358	64	68
31.8306	32.7358	59	56
31.918	32.7358	69	60
32.0055	32.1804	71	55
32.093	32.7358	76	69
32.1804	32.7358	71	56
32.2679	32.7358	81	60
32.3554	32.5303	83	56
32.4428	32.7358	88	69
32.5303	32.7358	83	56
32.6178	32.7358	93	60
32.7052	32.7927	95	56
32.7927	34.1703	100	69
32.8802	34.1703	95	55
32.9676	34.1703	92	60
33.0551	33.23	83	55
33.1426	34.1703	88	68
33.23	34.1703	83	56
33.3175	34.1703	80	60
33.405	33.5799	71	56
33.4924	34.1703	76	68
33.5799	34.1703	71	56
33.6674	34.1703	68	60
33.7548	33.9298	59	56
33.8423	34.1703	64	59
33.9298	34.1703	59	56
34.0172	34.1703	56	60
34.1047	34.1962	47	55
34.1962	36.9377	33	64
34.1962	36.9377	45	76
34.2824	35.5259	52	56
34.3686	35.5259	57	60
34.4548	35.5259	61	56
34.541	35.5259	67	68
34.6272	35.5259	64	56
34.7134	35.5259	69	60
34.7996	35.5259	73	57
34.8858	35.5259	79	69
34.972	35.4893	76	56
35.0582	35.403	81	61
35.1444	35.3168	85	56
35.2306	35.5259	91	70
35.3168	35.5259	85	57
35.403	35.5259	81	62
35.4893	35.8356	76	57
35.5755	36.9668	38	64
35.5755	36.8796	50	76
35.5755	36.9377	91	71
35.6622	36.9377	84	57
35.7489	36.9377	81	63
35.8356	36.9377	76	57
35.9223	36.9377	79	70
36.009	36.9377	72	58
36.0957	36.9377	69	62
36.1824	36.9377	64	57
36.2691	36.9377	67	70
36.3563	36.7051	60	57
36.4435	36.7924	57	61
36.5307	36.9377	52	57
36.6179	36.9377	66	69
36.7051	36.9377	60	60
36.7924	36.9377	57	60
36.8796	36.9668	50	56
36.9668	39.729	31	71
36.9668	39.729	43	85
37.053	38.275	50	63
37.1392	38.275	55	68
37.2254	38.275	60	64
37.3116	38.275	65	76
37.3978	38.275	62	63
37.484	38.275	67	68
37.5702	38.275	72	65
37.6564	38.275	77	77
37.7426	38.275	74	66
37.8288	38.275	79	70
37.915	38.275	84	65
38.0013	38.275	89	75
38.0875	38.275	86	66
38.1737	38.275	91	70
38.2599	38.3461	96	67
38.3461	39.6923	101	77
38.4323	39.6923	95	67
38.5185	39.6923	91	71
38.6047	39.6923	86	67
38.6909	39.6923	89	76
38.7771	39.6923	83	67
38.8633	39.6923	79	70
38.9495	39.6923	74	66
39.0357	39.6923	77	74
39.1219	39.6923	71	66
39.2081	39.6923	67	69
39.2943	39.6923	62	69
39.3806	39.6923	65	73
39.4668	39.6923	59	63
39.553	39.6923	55	68
39.6392	39.729	50	65
39.729	41.1156	36	80
39.729	39.8152	48	95
39.8152	41.1156	48	71
39.9014	41.0665	55	76
39.9876	41.0665	58	72
40.0738	41.0665	64	80
40.16	41.0665	60	72
40.2462	41.0665	67	76
40.3324	41.0665	70	73
40.4186	41.0665	76	85
40.5049	41.0665	72	73
40.5911	41.0665	79	77
40.6773	41.0665	82	73
40.7635	41.0665	88	86
40.8497	41.0665	84	75
40.9359	41.0665	91	78
41.0221	41.1156	96	75
41.1156	42.5028	30	81
41.1156	42.5028	42	96
41.1156	42.4284	99	89
41.2023	42.4284	94	75
41.289	41.4624	87	79
41.3757	42.4284	84	74
41.4624	42.4284	87	87
41.5491	42.4284	82	74
41.6358	41.8092	75	78
41.7225	42.4284	72	73
41.8092	42.4284	75	85
41.8959	42.4284	70	74
41.9826	42.156	63	76
42.0693	42.4284	60	73
42.156	42.4284	63	83
42.2427	42.4284	58	72
42.3294	42.4284	51	76
42.4161	42.5028	48	72
42.5028	43.89	29	81
42.5028	43.89	41	97
42.5895	43.8243	48	72
42.6762	43.8243	51	76
42.7629	43.8243	57	73
42.8496	43.023	63	79
42.9363	43.8243	60	71
43.023	43.8243	63	76
43.1097	43.8243	69	73
43.1964	43.3698	75	82
43.2831	43.8243	72	75
43.3698	43.8243	75	77
43.4565	43.8243	81	74
43.5432	43.7166	87	85
43.6299	43.8243	84	75
43.7166	43.8243	87	78
43.8033	43.89	93	75
43.89	45.2834	35	85
43.89	45.1959	47	100
43.89	45.1879	99	86
43.9768	45.1879	92	73
44.0635	44.2369	87	77
44.1502	45.1879	83	73
44.2369	45.1879	87	85
44.3236	45.1879	80	71
44.4103	44.5837	75	76
44.497	45.1879	71	71
44.5837	45.1879	75	80
44.6711	45.1879	68	70
44.7586	44.9335	63	72
44.8461	45.1879	59	67
44.9335	45.1879	63	71
45.021	45.1879	56	65
45.1085	45.1959	51	69
45.1959	45.2834	47	66
45.2834	48.0824	34	84
45.3709	46.6166	46	66
45.4583	46.6166	53	70
45.5458	46.6166	56	67
45.6333	46.6166	62	76
45.7208	46.6166	58	64
45.8082	46.6166	65	69
45.8957	46.6166	68	65
45.9832	46.6166	74	76
46.0706	46.6166	70	66
46.1581	46.6166	77	71
46.2456	46.6166	80	67
46.333	46.6166	86	76
46.4205	46.6166	82	65
46.508	46.6166	89	71
46.5954	46.6829	92	67
46.6829	47.9949	46	87
46.6829	48.024	98	83
46.7704	48.024	92	70
46.8578	48.024	88	74
46.9453	48.024	82	70
47.0328	48.024	86	84
47.1202	48.024	80	71
47.2077	48.024	76	76
47.2952	48.024	70	71
47.3826	48.024	74	87
47.4701	48.024	68	72
47.5576	48.024	64	76
47.645	48.024	58	70
47.7325	48.024	62	86
47.82	48.024	56	71
47.9074	48.024	52	76
47.9949	48.0824	46	72
48.0824	50.8541	33	78
48.0824	48.1686	45	94
48.1686	50.7548	45	72
48.2548	50.6685	52	76
48.341	48.5134	57	72
48.4272	50.4961	61	81
48.5134	50.4099	57	70
48.5996	50.3237	64	76
48.6858	48.8582	69	74
48.772	50.1513	73	83
48.8582	50.0651	69	74
48.9444	49.9789	76	77
49.0306	49.203	81	73
49.1168	49.8065	85	85
49.203	49.7203	81	74
49.2892	49.6341	88	78
49.3754	49.5479	93	74
49.4617	50.7688	97	87
49.5479	50.7688	93	74
49.6341	50.7688	88	79
49.7203	49.8927	81	74
49.8065	50.7688	85	85
49.8927	50.7688	81	72
49.9789	50.7688	76	77
50.0651	50.2375	69	72
50.1513	50.7688	73	86
50.2375	50.7688	69	72
50.3237	50.7688	64	74
50.4099	50.5823	57	69
50.4961	50.7688	61	84
50.5823	50.7688	57	68
50.6685	50.7688	52	72
50.7548	50.8541	45	68
50.8541	53.5523	38	90
50.941	52.1708	45	69
51.028	52.1708	50	72
51.115	52.1708	54	69
51.2019	52.1708	60	74
51.2889	52.1708	57	68
51.3758	52.1708	62	71
51.4628	52.1708	66	66
51.5497	52.1708	72	74
51.6367	52.1708	69	66
51.7237	52.1708	74	71
51.8106	52.1708	78	68
51.8976	52.1708	84	75
51.9845	52.1708	81	67
52.0715	52.1708	86	70
52.1584	53.5523	90	67
52.2454	53.6506	31	75
52.2454	53.5574	43	84
52.2454	53.5523	96	76
52.3329	53.5523	89	68
52.4203	53.5523	86	71
52.5078	53.5523	79	68
52.5953	53.5523	84	73
52.6827	53.5523	77	66
52.7702	53.5523	74	69
52.8577	53.5523	67	63
52.9451	53.5523	72	74
53.0326	53.5523	65	63
53.1201	53.5523	62	66
53.2075	53.5523	55	62
53.295	53.5523	59	76
53.3825	53.5523	53	64
53.4699	53.5574	50	61
53.5574	53.6506	43	64
53.6506	56.3663	36	79
53.7373	54.946	43	64
53.824	54.946	48	61
53.9107	54.946	52	64
53.9974	54.946	59	74
54.0841	54.946	55	61
54.1708	54.946	60	61
54.2575	54.946	64	65
54.3442	54.946	71	72
54.4309	54.946	67	61
54.5176	54.946	72	66
54.6043	54.946	76	61
54.691	54.946	83	73
54.7777	54.946	79	64
54.8644	54.9511	84	66
54.9511	55.125	88	63
55.0378	56.4332	29	66
55.0378	56.346	41	78
55.0378	56.3663	95	75
55.125	56.3663	88	65
55.2122	56.3663	84	67
55.2994	56.3663	77	67
55.3866	56.3663	83	74
55.4739	56.3663	76	64
55.5611	56.3663	72	66
55.6483	56.3663	65	61
55.7355	56.3663	71	73
55.8227	56.3663	64	66
55.9099	56.3663	60	61
55.9971	56.3663	53	62
56.0843	56.3663	57	74
56.1716	56.3663	52	60
56.2588	56.3663	48	64
56.346	56.4332	41	61
56.4332	57.8286	35	84
56.5204	57.7159	41	65
56.6076	57.7159	47	68
56.6948	57.7159	50	64
56.782	57.7159	57	77
56.8692	57.7159	53	63
56.9565	57.7159	59	68
57.0437	57.7159	62	66
57.1309	57.7159	69	74
57.2181	57.7159	65	64
57.3053	57.7159	71	68
57.3925	57.7159	74	63
57.4797	57.7159	81	74
57.5669	57.7159	77	64
57.6541	57.7414	83	68
57.7414	57.8286	86	64
57.8286	58.5202	28	72
57.8286	58.5202	40	85
57.8286	58.459	91	75
57.915	58.459	86	65
58.0015	58.459	83	68
58.088	58.459	76	65
58.1744	58.459	79	75
58.2609	58.459	74	65
58.3473	58.459	71	68
58.4338	58.5202	64	64
58.5202	59.2251	33	72
58.5202	59.2251	45	85
58.5202	59.1325	69	75
58.6077	59.1325	72	64
58.6952	59.1325	79	68
58.7826	59.1325	76	64
58.8701	59.1325	81	75
58.9576	59.1325	84	65
59.045	59.1325	91	69
59.1325	59.2251	88	65
59.2251	59.9168	26	74
59.2251	59.9168	38	88
59.2251	59.8707	89	76
59.3116	59.8707	84	67
59.398	59.8707	81	70
59.4845	59.8707	74	66
59.5709	59.8707	77	77
59.6574	59.8707	72	67
59.7439	59.8707	69	72
59.8303	59.9168	62	67
59.9168	60.6205	31	74
59.9168	60.6205	43	88
59.9168	60.5664	67	78
60.0042	60.5664	71	66
60.0917	60.5664	77	72
60.1792	60.5664	74	68
60.2666	60.5664	79	78
60.3541	60.5664	83	68
60.4416	60.5664	89	74
60.529	60.6205	86	68
60.6205	61.3122	24	80
60.6205	61.3122	36	94
60.6205	61.2459	88	80
60.7069	61.2459	83	70
60.7934	61.2459	79	75
60.8799	61.2459	72	70
60.9663	61.2459	76	83
61.0528	61.2459	71	70
61.1393	61.2459	67	76
61.2257	61.3122	60	70
61.3122	62.0119	29	82
61.3122	62.0119	41	97
61.3122	61.9601	65	86
61.3996	61.9601	69	71
61.4871	61.9601	76	77
61.5746	61.9601	72	71
61.662	61.9601	77	86
61.7495	61.9601	81	73
61.837	61.9601	88	79
61.9244	62.0119	84	75
62.0119	63.0464	35	85
62.0119	62.9602	47	101
62.0119	63.3061	86	90
62.0981	63.3061	81	76
62.1843	63.3061	77	80
62.2705	63.3061	71	75
62.3567	63.3061	74	90
62.4429	63.3061	69	76
62.5291	63.3061	65	80
62.6153	63.3061	59	74
62.7015	63.3061	62	90
62.7878	63.3061	57	75
62.874	63.3061	53	80
62.9602	63.3061	47	75
63.0464	64.4412	35	102
63.4067	64.355	47	100
63.4067	64.7488	87	91
63.4929	64.7488	81	75
63.5791	64.7488	78	80
63.6653	64.7488	71	75
63.7515	64.7488	75	91
63.8378	64.7488	69	76
63.924	64.7488	66	80
64.0102	64.7488	59	74
64.0964	64.7488	63	91
64.1826	64.7488	57	75
64.2688	64.7488	54	80
64.355	64.7488	47	76
64.4412	64.8048	35	93
64.8048	67.2276	28	84
64.8048	67.2276	40	100
64.891	66.8631	47	76
64.9772	66.8631	52	80
65.0634	66.8631	56	76
65.1497	65.3221	64	91
65.2359	66.8631	59	76
65.3221	66.8631	64	80
65.4083	66.8631	68	77
65.4945	65.6669	76	91
65.5807	66.7928	71	76
65.6669	66.7059	76	80
65.7531	66.6189	80	76
65.8393	66.0117	88	91
65.9255	66.445	83	75
66.0117	66.358	88	80
66.0979	66.2711	92	75
66.1841	66.8631	100	91
66.2711	66.8631	92	77
66.358	66.532	88	79
66.445	66.8631	83	74
66.532	66.8631	88	88
66.6189	66.8631	80	72
66.7059	66.8631	76	76
66.7928	66.8798	71	69
66.8798	66.9667	76	85
66.9667	67.0537	68	69
67.0537	67.1407	64	72
67.1407	67.2276	59	67
67.2276	67.588	26	74
67.2276	67.588	38	88
67.2276	67.3177	65	80
67.3177	67.4078	59	65
67.4078	67.4979	55	69
67.4979	67.588	50	64
67.588	70.3254	24	72
67.588	70.3955	36	85
67.6742	68.9673	48	64
67.7604	70.1975	55	68
67.8466	68.019	60	63
67.9328	70.0173	64	72
68.019	69.9272	60	63
68.1052	69.8371	67	68
68.1914	68.3639	72	65
68.2776	69.6569	76	76
68.3639	69.5707	72	64
68.4501	69.4845	79	70
68.5363	68.7087	84	64
68.6225	69.3121	88	77
68.7087	69.2259	84	65
68.7949	69.1397	91	70
68.8811	69.0535	96	65
68.9673	70.2876	48	78
68.9673	70.3254	100	77
69.0535	70.3254	96	66
69.1397	70.3254	91	71
69.2259	69.3983	84	68
69.3121	70.3254	88	77
69.3983	70.3254	84	66
69.4845	70.3254	79	70
69.5707	69.747	72	65
69.6569	70.3254	76	76
69.747	70.3254	72	65
69.8371	70.3254	67	69
69.9272	70.1074	60	63
70.0173	70.3254	64	75
70.1074	70.3254	60	63
70.1975	70.3254	55	68
70.2876	70.3955	48	63
70.3955	71.8156	29	72
70.3955	71.8156	41	85
70.4827	71.7148	48	64
70.5699	71.7148	57	68
70.6571	70.8316	60	64
70.7444	71.7148	65	78
70.8316	71.7148	60	64
70.9188	71.7148	69	69
71.006	71.1827	72	67
71.0932	71.7148	77	82
71.1827	71.7148	72	68
71.2723	71.7148	81	73
71.3618	71.5409	84	69
71.4514	71.7148	89	83
71.5409	71.7148	84	69
71.6305	71.72	93	74
71.72	71.8156	96	70
71.8156	73.2328	30	77
71.8156	73.2328	42	91
71.8156	73.1747	100	88
71.9028	73.1747	96	70
71.99	73.1747	93	77
72.0772	72.2516	84	71
72.1644	73.1747	88	89
72.2516	73.1747	84	72
72.3388	73.1747	81	79
72.426	72.6005	72	73
72.5133	73.1747	76	89
72.6005	73.1747	72	73
72.6877	73.1747	69	78
72.7749	72.9493	60	72
72.8621	73.1747	62	90
72.9493	73.1747	60	72
73.0365	73.1747	57	79
73.1237	73.2328	48	71
73.2328	74.6261	31	85
73.2328	74.6261	43	101
73.3213	74.6261	47	75
73.4098	74.6261	55	80
73.4983	73.6753	59	75
73.5868	74.6261	62	91
73.6753	74.6261	59	75
73.7638	74.6261	67	80
73.8523	74.0331	71	76
73.9408	74.6261	30	86
73.9408	74.6261	42	102
73.9408	74.6261	74	93
74.0331	74.6261	71	76
74.1254	74.6261	79	82
74.2178	74.4044	83	76
74.3101	74.6874	28	86
74.3101	74.6874	40	103
74.3101	74.6261	86	94
74.4044	74.6261	83	76
74.4987	74.6261	91	83
74.5931	74.6874	93	76
74.6874	76.1368	26	85
74.6874	76.1368	38	101
74.6874	76.0666	98	96
74.7775	76.0666	93	77
74.8676	76.0666	90	84
74.9577	76.0666	84	76
75.0478	76.0666	86	95
75.1379	76.0666	81	76
75.228	76.0666	78	83
75.318	76.0666	72	77
75.4081	76.0666	74	93
75.4982	76.0666	69	77
75.5883	76.0666	66	81
75.6784	76.0666	60	76
75.7685	76.0666	62	91
75.8586	76.0666	57	75
75.9487	76.0666	54	80
76.0388	76.1368	48	74
76.1368	81.6443	31	86
76.1368	81.6443	43	102
76.2238	77.4658	48	75
76.3108	77.4658	53	80
76.3977	77.4658	56	74
76.4847	77.4658	62	91
76.5716	77.4658	60	74
76.6586	77.4658	65	80
76.7455	77.4658	68	76
76.8325	77.4658	74	93
76.9195	77.4658	72	76
77.0064	77.4658	77	82
77.0934	77.4658	80	77
77.1803	77.4658	86	94
77.2673	77.4658	84	78
77.3542	77.4658	89	83
77.4412	78.8865	92	76
77.5282	78.8865	98	95
77.6151	78.8865	91	78
77.7021	78.8865	89	84
77.789	78.8865	83	77
77.876	78.8865	86	94
77.9629	78.8865	79	78
78.0499	78.8865	77	83
78.1369	78.8865	71	77
78.2238	78.8865	74	92
78.3108	78.8865	67	77
78.3977	78.8865	65	81
78.4847	78.8865	59	75
78.5716	78.8865	63	91
78.6586	78.8865	55	74
78.7456	78.8865	53	80
78.8325	81.6443	47	75
78.9353	83.0075	36	79
78.9353	79.0215	48	95
79.0215	81.6165	48	75
79.1077	81.529	55	80
79.1939	79.3663	60	75
79.2801	81.3541	64	92
79.3663	81.2666	60	75
79.4525	81.1791	67	80
79.5387	79.7111	72	76
79.6249	81.0042	76	93
79.7111	80.918	72	76
79.7973	80.8318	79	82
79.8835	80.0559	84	76
79.9697	80.6594	88	94
80.0559	80.5732	84	78
80.1422	80.487	91	83
80.2284	80.4008	96	78
80.3146	81.6443	100	96
80.4008	81.6443	96	77
80.487	81.6443	91	84
80.5732	80.7456	84	77
80.6594	81.6443	88	95
80.7456	81.6443	84	76
80.8318	81.6443	79	83
80.918	81.0917	72	76
81.0042	81.6443	76	94
81.0917	81.6443	72	77
81.1791	81.6443	67	81
81.2666	81.4415	60	77
81.3541	81.6443	64	92
81.4415	81.6443	60	76
81.529	81.6443	55	80
81.6165	81.7987	48	74
81.712	84.4609	33	84
81.712	84.4609	45	100
81.7987	83.0075	48	75
81.8854	83.0075	53	80
81.9721	82.1455	60	75
82.0588	82.2322	65	85
82.1455	83.0075	60	75
82.2322	83.0075	65	80
82.3189	82.4923	72	76
82.4056	82.579	77	88
82.4923	83.0075	72	76
82.579	83.0075	77	82
82.6657	82.8392	84	77
82.7525	82.9259	89	90
82.8392	83.0075	84	78
82.9259	83.0126	89	83
83.0126	83.0993	96	78
83.0993	83.7698	100	92
83.1867	83.7698	96	78
83.2742	83.7698	90	84
83.3617	83.5366	84	78
83.4491	83.7698	88	91
83.5366	83.7698	84	79
83.6241	83.7698	78	83
83.7115	83.799	72	76
83.799	84.4609	75	90
83.8865	84.4609	72	78
83.9739	84.4609	66	81
84.0614	84.2382	60	75
84.1489	84.5096	32	85
84.1489	84.5096	44	101
84.1489	84.4609	63	86
84.2382	84.4609	60	74
84.3274	84.4609	54	80
84.4167	84.5096	48	73
84.5096	87.3217	31	80
84.5096	87.3217	43	95
84.5968	85.8229	48	70
84.684	85.8229	55	76
84.7713	84.9457	60	71
84.8585	85.8229	62	78
84.9457	85.8229	60	71
85.0329	85.8229	67	76
85.1201	85.2945	72	73
85.2073	85.8229	74	83
85.2945	85.8229	72	74
85.3817	85.8229	79	77
85.469	85.6434	84	73
85.5562	85.8229	86	86
85.6434	85.8229	84	76
85.7306	85.8229	91	78
85.8178	87.2416	96	72
85.905	87.2416	98	88
85.993	87.2416	95	74
86.081	87.2416	91	79
86.1689	86.3449	83	74
86.2569	87.2416	86	85
86.3449	87.2416	83	75
86.4329	87.2416	79	78
86.5208	86.6968	71	73
86.6088	87.2416	74	84
86.6968	87.2416	71	72
86.7848	87.2416	67	76
86.8727	87.0487	59	72
86.9607	87.2416	62	82
87.0487	87.2416	59	71
87.1367	87.2416	55	76
87.2246	87.3217	47	71
87.3217	88.7124	30	80
87.3217	88.7124	42	95
87.4079	88.647	48	72
87.4941	88.647	57	76
87.5804	87.7528	60	72
87.6666	88.647	62	78
87.7528	88.647	60	71
87.839	88.647	69	76
87.9252	88.0983	72	72
88.0114	88.647	74	81
88.0983	88.647	72	73
88.1853	88.647	81	77
88.2723	88.4462	84	75
88.3592	88.647	86	85
88.4462	88.647	84	75
88.5331	88.647	93	78
88.6201	88.7124	96	72
88.7124	90.1037	29	79
88.7124	90.1037	41	95
88.7124	89.3367	99	87
88.7986	89.3367	96	74
88.8848	89.3367	93	79
88.971	89.1434	84	73
89.0572	89.3367	87	86
89.1434	89.3367	84	74
89.2296	89.3367	81	78
89.3158	89.402	72	74
89.402	90.0384	75	84
89.4893	90.0384	71	74
89.5765	90.0384	69	76
89.6637	89.8381	59	72
89.7509	90.0384	63	83
89.8381	90.0384	59	72
89.9253	90.0384	57	76
90.0125	90.1037	47	71
90.1037	92.8186	28	81
90.1037	92.875	40	96
90.1899	92.7835	47	71
90.2761	92.6968	56	76
90.3623	90.5347	59	71
90.4485	92.5234	64	80
90.5347	92.4367	59	71
90.6209	92.35	68	76
90.7072	90.8796	71	72
90.7934	92.1766	76	84
90.8796	92.0899	71	72
90.9658	92.0032	80	77
91.052	91.2244	83	73
91.1382	91.8298	88	87
91.2244	91.7431	83	74
91.3106	91.6564	92	78
91.3968	91.5697	95	74
91.483	92.8186	52	96
91.483	92.8186	100	89
91.5697	92.8186	95	75
91.6564	92.8186	92	78
91.7431	91.9165	83	71
91.8298	92.8186	88	86
91.9165	92.8186	83	72
92.0032	92.8186	80	75
92.0899	92.2633	71	69
92.1766	92.8186	76	83
92.2633	92.8186	71	69
92.35	92.8186	68	72
92.4367	92.6101	59	66
92.5234	92.8186	64	78
92.6101	92.8186	59	65
92.6968	92.8186	56	69
92.7835	92.875	47	61
92.875	95.5474	38	73
92.9612	94.1731	50	56
93.0474	94.1731	57	61
93.1336	94.1731	60	55
93.2198	94.1731	65	69
93.306	94.1731	62	56
93.3922	94.1731	69	61
93.4785	94.1731	72	58
93.5647	94.1731	77	70
93.6509	94.1731	74	57
93.7371	94.1731	81	62
93.8233	94.1731	84	58
93.9095	94.1731	89	71
93.9957	94.1731	86	59
94.0819	94.1731	93	63
94.1681	95.5474	96	59
94.2543	95.6372	31	63
94.2543	95.6372	43	75
94.2543	95.5474	101	72
94.3405	95.5474	95	59
94.4267	95.5474	91	64
94.5129	94.6853	86	58
94.5991	95.5474	89	70
94.6853	95.5474	86	56
94.7715	95.5474	79	63
94.8578	95.5474	74	57
94.944	95.5474	77	69
95.0302	95.5474	71	58
95.1164	95.5474	67	62
95.2026	95.5474	62	58
95.2888	95.5474	65	69
95.375	95.5474	59	56
95.4612	95.5474	55	61
95.5474	95.6372	50	56
95.6372	98.4203	36	78
95.7234	96.9382	48	58
95.8096	96.9382	55	63
95.8958	96.0682	60	57
95.982	96.9382	64	70
96.0682	96.9382	60	59
96.1545	96.9382	67	64
96.2407	96.4131	72	58
96.3269	96.9303	76	73
96.4131	96.9382	72	58
96.4993	96.8441	82	65
96.5855	96.7579	84	59
96.6717	96.9382	91	78
96.7579	96.9382	84	68
96.8441	96.9382	82	71
96.9303	97.0165	76	70
97.0165	98.4203	48	84
97.0165	97.6332	90	78
97.104	97.6332	84	68
97.1914	97.6332	81	70
97.2789	97.6332	75	68
97.3664	97.6332	78	76
97.4538	97.6332	72	69
97.5413	97.6332	69	70
97.6288	98.3813	63	68
97.7163	98.3813	77	76
97.8037	98.3813	71	67
97.8912	98.3813	68	67
97.9787	98.3813	62	65
98.0661	98.3813	65	78
98.1536	98.3813	59	68
98.2411	98.3813	56	68
98.3285	98.4203	50	64
98.4203	100.44	36	84
98.5065	99.7284	48	64
98.5927	99.7284	55	68
98.6789	98.8513	60	64
98.7651	99.7284	64	74
98.8513	99.7284	60	68
98.9375	99.7284	67	72
99.0237	99.7133	72	68
99.1099	99.2823	79	78
99.1961	99.7284	76	70
99.2823	99.6271	79	75
99.3685	99.5409	84	70
99.4547	99.7284	88	82
99.5409	99.7284	84	73
99.6271	99.7284	79	78
99.7133	100.058	72	74
99.7996	101.19	31	83
99.7996	101.19	43	99
99.7996	100.44	87	86
99.8858	100.44	81	75
99.972	100.44	78	79
100.058	100.44	72	73
100.144	100.44	75	84
100.231	100.44	69	70
100.317	100.44	66	76
100.403	100.489	60	71
100.489	101.138	74	80
100.576	101.138	68	70
100.664	101.138	65	72
100.751	101.138	59	68
100.838	101.138	62	80
100.925	101.138	56	66
101.012	101.138	53	69
101.1	101.19	47	64
101.19	103.959	31	70
101.19	103.959	43	83
101.276	102.467	46	64
101.362	102.467	52	68
101.449	102.467	55	65
101.535	102.467	61	80
101.621	102.467	58	67
101.707	102.467	64	72
101.793	102.467	67	67
101.88	102.467	73	78
101.966	102.467	70	69
102.052	102.467	76	75
102.138	102.467	79	71
102.225	102.467	85	82
102.311	102.467	82	72
102.397	102.483	88	78
102.483	102.573	91	74
102.573	103.851	97	84
102.66	103.851	90	75
102.746	103.851	87	79
102.832	103.851	81	72
102.918	103.851	85	82
103.005	103.851	78	71
103.091	103.851	75	76
103.177	103.851	69	69
103.263	103.851	73	81
103.35	103.698	66	68
103.437	103.785	63	72
103.524	103.851	57	68
103.611	103.851	72	78
103.698	103.851	66	65
103.785	103.872	63	69
103.872	103.959	57	64
103.959	106.741	31	72
103.959	106.65	43	85
104.045	105.256	56	68
104.131	105.256	62	64
104.217	105.256	65	69
104.304	105.256	72	76
104.39	105.256	68	68
104.476	105.256	74	72
104.562	105.256	77	69
104.648	105.256	84	78
104.735	105.252	80	71
104.821	105.166	86	75
104.907	105.079	89	72
104.993	105.256	96	81
105.079	105.256	89	74
105.166	105.256	86	78
105.252	106.66	80	74
105.338	106.66	95	86
105.424	106.66	89	74
105.511	106.66	86	79
105.597	106.66	79	74
105.683	106.66	83	81
105.769	106.66	77	73
105.856	106.66	74	76
105.942	106.66	67	71
106.029	106.66	71	77
106.116	106.66	65	69
106.202	106.66	62	73
106.289	106.66	55	69
106.377	106.66	59	80
106.468	106.66	53	66
106.559	106.66	50	69
106.65	106.741	43	68
106.741	109.545	24	71
106.741	109.545	36	84
106.828	109.451	43	66
106.914	109.362	52	68
107.001	107.174	55	65
107.088	109.185	60	78
107.174	109.097	55	71
107.261	109.009	64	72
107.347	107.52	67	68
107.434	108.833	72	83
107.52	108.745	67	70
107.607	108.657	76	75
107.693	107.866	79	72
107.78	108.482	84	87
107.866	108.395	79	72
107.952	108.308	88	78
108.043	108.221	91	75
108.134	110.791	96	91
108.221	110.791	91	75
108.308	110.791	88	80
108.395	108.57	79	75
108.482	110.791	84	91
108.57	110.791	79	73
108.657	110.791	76	78
108.745	108.921	67	74
108.833	110.791	72	89
108.921	110.791	67	77
109.009	110.791	64	71
109.097	109.274	55	73
109.185	110.791	60	86
109.274	110.791	55	73
109.362	110.791	52	76
109.451	110.791	43	70
109.545	110.969	24	80
109.545	110.969	36	94
