OnsetTime	OffsetTime	MidiPitch	Velocity
0.500004	1.07673	70	80
1.07673	1.14781	70	74
1.21889	1.28997	70	70
1.36105	1.92966	70	79
1.92966	1.9968	70	75
2.06393	2.13107	70	69
2.19821	2.46675	70	78
2.46675	2.53388	70	72
2.60102	2.66816	70	67
2.73529	3.00383	70	74
3.00383	3.0736	70	69
3.14336	3.21313	70	66
3.28289	3.56196	70	73
3.56196	3.63173	70	59
3.70149	3.77463	70	59
3.84778	4.37183	46	40
3.84778	4.37183	70	72
4.11994	4.37183	58	47
4.11994	4.37183	65	47
4.11994	4.37183	68	47
4.11994	4.37183	74	60
4.2476	4.38289	75	49
4.37183	4.64036	58	51
4.37183	4.64036	65	51
4.37183	4.64036	68	51
4.37183	4.64036	74	57
4.37183	4.64036	77	57
4.64036	5.26328	51	40
4.64036	5.26328	70	67
4.90584	5.15544	58	46
4.90584	5.15544	63	46
4.90584	5.15544	67	46
4.90584	5.15544	75	64
5.03324	5.26328	77	48
5.15544	5.41687	58	50
5.15544	5.41687	63	50
5.15544	5.41687	67	50
5.15544	5.41687	75	56
5.15544	5.41687	79	56
5.41687	5.98181	50	44
5.41687	5.98181	70	72
5.67493	5.9281	58	54
5.67493	5.9281	65	54
5.67493	5.9281	68	54
5.67493	5.9281	77	67
5.80151	5.98181	79	52
5.9281	6.44279	58	59
5.9281	6.69704	65	59
5.9281	6.69704	68	59
5.9281	6.69704	77	75
5.9281	6.69704	80	75
6.18854	6.69704	51	69
6.18854	6.69704	73	69
6.18854	6.69704	79	82
6.18854	6.69704	82	82
6.44279	6.69704	58	62
6.44279	6.69704	61	62
6.44279	6.69704	67	62
6.69704	6.96679	52	70
6.69704	6.83191	73	57
6.69704	6.83191	79	68
6.69704	6.83191	82	68
6.83191	6.96679	73	49
6.83191	6.96679	79	58
6.83191	6.96679	82	58
6.96679	7.09836	53	36
6.96679	7.47826	73	63
6.96679	7.48927	79	63
6.96679	7.22994	82	63
7.22994	7.35679	56	33
7.22994	7.35679	65	33
7.22994	7.36692	84	52
7.35679	7.48927	82	48
7.47826	7.61041	44	37
7.47826	7.61041	72	54
7.47826	7.61041	80	54
7.74256	8.28894	46	58
7.74256	8.28894	71	67
7.74256	8.1278	80	67
8.00175	8.25	55	31
8.00175	8.25	63	31
8.00175	8.28894	82	47
8.1278	8.28894	80	44
8.25	8.51328	55	44
8.25	8.51328	63	44
8.25	8.38164	70	54
8.25	8.38164	79	54
8.51328	9.09028	46	37
8.51328	9.09028	70	66
8.51328	8.89522	79	66
8.76933	9.09028	53	38
8.76933	9.01842	62	38
8.76933	9.09028	80	59
8.89522	9.09028	79	53
9.01842	9.28998	58	45
9.01842	9.28998	62	45
9.01842	9.15421	68	59
9.01842	9.15421	77	59
9.28998	10.0767	51	28
9.28998	9.80815	68	64
9.28998	9.56118	77	64
9.55044	9.80815	58	35
9.55044	9.80815	63	35
9.55044	9.69004	79	60
9.67929	9.81933	77	49
9.80815	10.0767	58	57
9.80815	10.0767	63	57
9.80815	9.94242	67	53
9.80815	9.94242	75	53
10.0767	10.6488	46	61
10.0767	10.6488	70	65
10.3489	10.6029	58	32
10.3489	10.6029	65	32
10.3489	10.6029	68	32
10.3489	10.6029	74	49
10.4771	10.6488	75	60
10.6029	10.8682	58	32
10.6029	10.8682	65	32
10.6029	10.8682	68	32
10.6029	10.8682	74	63
10.6029	10.8682	77	63
10.8682	11.4928	51	43
10.8682	11.4928	70	69
11.1315	11.381	58	37
11.1315	11.381	63	37
11.1315	11.381	67	37
11.1315	11.381	75	68
11.2573	11.4928	77	64
11.381	11.6341	58	48
11.381	11.6341	63	48
11.381	11.6341	67	48
11.381	11.6341	75	73
11.381	11.6341	79	73
11.6341	12.279	50	60
11.6341	12.279	70	76
11.8896	12.1394	58	62
11.8896	12.1394	65	62
11.8896	12.1394	68	62
11.8896	12.1394	77	72
12.0145	12.279	79	62
12.1394	12.6566	58	66
12.1394	12.9099	65	66
12.1394	12.9099	68	66
12.1394	12.9099	77	75
12.1394	12.9099	80	75
12.4032	12.9099	51	61
12.4032	12.9099	73	75
12.4032	12.7833	79	89
12.4032	12.7833	82	89
12.6566	12.9099	58	42
12.6566	12.9099	61	42
12.6566	12.9099	67	42
12.7833	12.9099	79	74
12.7833	12.9099	82	74
12.9099	13.1797	52	32
12.9099	13.1797	73	80
13.0448	13.1797	79	73
13.0448	13.1797	82	73
13.1797	13.3097	53	43
13.1797	13.6908	73	64
13.3097	13.4502	82	72
13.4396	13.5663	56	49
13.4396	13.5663	65	49
13.4396	13.5767	84	64
13.5663	13.7017	82	58
13.6908	13.8216	44	37
13.6908	13.8216	72	54
13.6908	13.8216	80	54
13.9524	14.5258	46	43
13.9524	14.5258	71	65
14.0815	14.3379	80	69
14.2106	14.4634	55	31
14.2106	14.4634	63	31
14.2106	14.5258	82	65
14.3379	14.5258	80	63
14.4634	14.7284	55	41
14.4634	14.7284	63	41
14.4634	14.5959	70	51
14.4634	14.5959	79	51
14.7284	15.3946	46	33
14.7284	15.3946	70	63
14.8657	15.1435	79	46
15.003	15.3946	53	40
15.003	15.284	62	40
15.003	15.3946	80	58
15.1435	15.3946	79	45
15.284	15.8514	58	27
15.284	15.5724	62	27
15.284	15.5724	68	50
15.284	15.5724	77	50
15.5724	15.8514	51	44
15.5724	15.8514	63	44
15.5724	15.7119	67	59
15.5724	15.7119	75	59
15.8514	15.9212	70	57
15.991	16.0607	70	50
16.1305	16.2003	70	56
16.27	16.3432	70	58
16.4163	16.9541	46	26
16.4163	16.9541	70	78
16.6885	16.9463	58	38
16.6885	16.9463	65	38
16.6885	16.9463	68	38
16.6885	16.9463	74	65
16.8192	16.9574	75	57
16.9463	17.2148	58	34
16.9463	17.2148	65	34
16.9463	17.2148	68	34
16.9463	17.2148	74	66
16.9463	17.2148	77	66
17.2148	17.7354	51	34
17.2148	17.7354	70	69
17.4803	17.7354	58	46
17.4803	17.7354	63	46
17.4803	17.7354	67	46
17.4803	17.7354	75	66
17.6091	17.7463	77	56
17.7354	17.9968	58	57
17.7354	17.9968	63	57
17.7354	17.9968	67	57
17.7354	17.9968	75	73
17.7354	17.9968	79	73
17.9968	18.5123	50	71
17.9968	18.5123	70	77
18.2549	18.5047	58	52
18.2549	18.5047	65	52
18.2549	18.5047	68	52
18.2549	18.5047	77	75
18.3815	18.5155	79	58
18.5047	19.0185	58	56
18.5047	19.2719	65	56
18.5047	19.2719	68	56
18.5047	19.2719	77	75
18.5047	19.2719	80	75
18.7651	19.2719	51	62
18.7651	19.2719	73	72
18.7651	19.2719	79	85
18.7651	19.2719	82	85
19.0185	19.2719	58	56
19.0185	19.2719	61	56
19.0185	19.2719	67	56
19.2719	19.5416	52	37
19.2719	19.4067	73	58
19.2719	19.4067	79	69
19.2719	19.4067	82	69
19.4067	19.5416	73	39
19.4067	19.5416	79	47
19.4067	19.5416	82	47
19.5416	19.6735	53	40
19.5416	20.0564	73	65
19.5416	20.0564	79	65
19.5416	19.8159	82	65
19.8054	19.9322	56	34
19.8054	19.9322	65	34
19.8054	19.9425	84	53
19.9322	20.0675	82	49
20.0564	20.1889	44	38
20.0564	20.1889	72	51
20.0564	20.1889	80	51
20.3213	20.8525	46	31
20.3213	20.8525	71	68
20.3213	20.7057	80	68
20.5799	20.8294	55	33
20.5799	20.8294	63	33
20.5799	20.8525	82	47
20.7057	20.8525	80	46
20.8294	21.0927	55	43
20.8294	21.0927	63	43
20.8294	20.9611	70	53
20.8294	20.9611	79	53
21.0927	21.6702	46	50
21.0927	21.6702	70	68
21.0927	21.4747	79	68
21.3488	21.6702	53	37
21.3488	21.5984	62	37
21.3488	21.6702	80	51
21.4747	21.6702	79	49
21.5984	21.8699	58	27
21.5984	21.8699	62	27
21.5984	21.7342	68	61
21.5984	21.7342	77	61
21.8699	23.2273	51	33
21.8699	22.3881	68	74
21.8699	22.1411	77	74
22.1304	22.3881	58	36
22.1304	22.3881	63	36
22.1304	22.27	79	69
22.2593	22.3993	77	53
22.3881	22.9288	58	42
22.3881	23.2273	63	42
22.3881	22.5224	67	68
22.3881	22.5224	75	68
22.6566	23.2273	46	58
22.6566	23.2273	70	70
22.9288	23.1815	58	47
22.9288	23.1815	65	47
22.9288	23.1815	68	47
22.9288	23.1815	74	68
23.0565	23.2273	75	60
23.1815	23.4466	58	44
23.1815	23.4466	65	44
23.1815	23.4466	68	44
23.1815	23.4466	74	63
23.1815	23.4466	77	63
23.4466	23.9649	51	49
23.4466	23.9649	70	72
23.7098	23.9575	58	43
23.7098	23.9575	63	43
23.7098	23.9575	67	43
23.7098	23.9575	75	65
23.8351	23.9681	77	60
23.9575	24.2112	58	64
23.9575	24.2112	63	64
23.9575	24.2112	67	64
23.9575	24.2112	75	68
23.9575	24.2112	79	68
24.2112	24.7294	50	67
24.2112	24.7294	70	76
24.4667	24.714	58	49
24.4667	24.714	65	49
24.4667	24.714	68	49
24.4667	24.714	77	77
24.5916	24.7294	79	70
24.714	25.2313	58	61
24.714	25.4846	65	61
24.714	25.4846	68	61
24.714	25.4846	77	77
24.714	25.4846	80	77
24.9779	25.4846	51	65
24.9779	25.4846	73	71
24.9779	25.3579	79	84
24.9779	25.3579	82	84
25.2313	25.4846	58	48
25.2313	25.4846	61	48
25.2313	25.4846	67	48
25.3579	25.4846	79	72
25.3579	25.4846	82	72
25.4846	25.7544	52	49
25.4846	25.7544	73	80
25.6195	25.7544	79	65
25.6195	25.7544	82	65
25.7544	25.8843	53	44
25.7544	26.2676	73	67
25.8843	26.0248	82	58
26.0143	26.141	56	33
26.0143	26.141	65	33
26.0143	26.1515	84	48
26.141	26.2785	82	60
26.2676	26.3984	44	28
26.2676	26.3984	72	54
26.2676	26.3984	80	54
26.5292	27.0574	46	26
26.5292	27.0574	71	70
26.6584	26.9147	80	69
26.7875	27.0419	55	34
26.7875	27.0419	63	34
26.7875	27.0574	82	45
26.9147	27.0574	80	65
27.0419	27.307	55	38
27.0419	27.307	63	38
27.0419	27.1744	70	55
27.0419	27.1744	79	55
27.307	27.8794	46	30
27.307	27.8794	70	65
27.4443	27.7221	79	50
27.5816	27.8794	53	36
27.5816	27.8626	62	36
27.5816	27.8794	80	44
27.7221	27.8794	79	62
27.8626	28.151	58	24
27.8626	28.151	62	24
27.8626	28.151	68	57
27.8626	28.151	77	57
28.151	28.6956	51	30
28.151	28.2905	67	48
28.151	28.2905	75	48
28.43	28.6956	55	45
28.43	28.6956	63	45
28.43	28.4964	75	53
28.5628	28.6292	75	64
28.6956	28.9612	51	52
28.6956	28.9612	55	52
28.6956	28.9612	61	52
28.6956	28.762	75	67
28.8284	28.8948	75	69
28.9612	29.3561	44	25
28.9612	29.027	75	75
29.0928	29.1587	75	64
29.2245	29.4878	51	33
29.2245	29.4878	56	33
29.2245	29.4878	60	33
29.2245	29.2903	75	75
29.3561	29.4219	75	74
29.4878	29.7577	51	41
29.4878	29.7577	56	41
29.4878	29.7577	60	41
29.4878	29.5536	75	69
29.6194	29.6885	75	69
29.7577	30.1284	44	33
29.7577	29.8915	77	65
29.8812	30.0151	75	58
30.0048	30.252	51	33
30.0048	30.252	56	33
30.0048	30.252	60	33
30.0048	30.1387	72	56
30.1284	30.2623	68	49
30.252	30.4992	51	37
30.252	30.4992	56	37
30.252	30.4992	60	37
30.252	30.3756	63	49
30.3756	30.4992	64	51
30.4992	30.8706	44	37
30.4992	30.5609	65	58
30.6226	30.6845	65	51
30.7464	30.9951	50	26
30.7464	30.9951	56	26
30.7464	30.9951	59	26
30.7464	30.8084	65	55
30.8706	30.9328	65	51
30.9951	31.2453	50	32
30.9951	31.2453	56	32
30.9951	31.2453	59	32
30.9951	31.0575	65	54
31.12	31.1826	65	58
31.2453	31.621	44	38
31.2453	31.3813	63	61
31.3709	31.5065	68	53
31.4961	31.7456	51	29
31.4961	31.7456	56	29
31.4961	31.7456	60	29
31.4961	31.6314	72	48
31.621	31.7559	75	64
31.7456	31.9937	51	48
31.7456	31.9937	56	48
31.7456	31.9937	60	48
31.7456	31.8801	80	61
31.8698	31.9937	76	52
31.9937	32.3737	50	55
31.9937	32.057	77	52
32.1204	32.1837	77	44
32.247	32.5004	56	24
32.247	32.5004	59	24
32.247	32.5004	65	24
32.247	32.3104	77	68
32.3737	32.4371	77	60
32.5004	32.7538	56	36
32.5004	32.7538	59	36
32.5004	32.7538	65	36
32.5004	32.5637	77	53
32.6271	32.6904	77	73
32.7538	33.3014	51	44
32.7538	32.9301	77	77
32.8419	33.3014	79	55
32.9301	33.3014	77	55
33.0182	33.282	60	32
33.0182	33.282	63	32
33.0182	33.282	68	32
33.0182	33.3014	75	65
33.1498	33.3014	80	57
33.282	34.0625	60	42
33.282	33.807	63	42
33.282	34.0625	68	42
33.282	33.4151	84	51
33.5488	34.0625	51	20
33.5488	34.0625	89	66
33.807	34.0625	61	20
33.807	34.0625	63	20
33.807	34.0625	67	20
33.807	34.0625	87	51
33.9348	34.0735	85	45
34.0625	34.3258	61	30
34.0625	34.3258	63	30
34.0625	34.3258	67	30
34.0625	34.1942	79	50
34.3258	34.7121	56	34
34.3258	34.5947	82	58
34.5841	34.8401	60	23
34.5841	34.8401	63	23
34.5841	34.8401	68	23
34.5841	34.7228	80	43
34.7121	34.851	75	44
34.8401	35.1023	60	38
34.8401	35.1023	63	38
34.8401	35.1023	68	38
34.8401	34.9712	72	38
35.1023	35.4972	44	34
35.1023	35.1681	75	48
35.2339	35.2997	75	44
35.3656	35.6288	51	31
35.3656	35.6288	56	31
35.3656	35.6288	60	31
35.3656	35.4314	75	65
35.4972	35.563	75	69
35.6288	35.8987	51	49
35.6288	35.8987	56	49
35.6288	35.8987	60	49
35.6288	35.6947	75	63
35.7605	35.8296	75	71
35.8987	36.2695	44	47
35.8987	36.0326	77	61
36.0223	36.1562	75	59
36.1459	36.3931	51	35
36.1459	36.3931	56	35
36.1459	36.3931	60	35
36.1459	36.2798	72	52
36.2695	36.4034	68	52
36.3931	36.6403	51	52
36.3931	36.6403	56	52
36.3931	36.6403	60	52
36.3931	36.5167	63	47
36.5167	36.6403	64	55
36.6403	37.0103	44	40
36.6403	36.7019	65	57
36.7636	36.8253	65	47
36.8869	37.1336	50	35
36.8869	37.1336	56	35
36.8869	37.1336	59	35
36.8869	36.9486	65	59
37.0103	37.0719	65	55
37.1336	37.3802	50	31
37.1336	37.3802	56	31
37.1336	37.3802	59	31
37.1336	37.1952	65	61
37.2569	37.3186	65	63
37.3802	37.7502	44	38
37.3802	37.5139	63	58
37.5036	37.6372	68	54
37.6269	37.8736	51	30
37.6269	37.8736	56	30
37.6269	37.8736	60	30
37.6269	37.7605	72	50
37.7502	37.8838	75	43
37.8736	38.1202	51	36
37.8736	38.1202	56	36
37.8736	38.1202	60	36
37.8736	38.0072	80	52
37.9969	38.1202	76	47
38.1202	38.5003	50	38
38.1202	38.1836	77	58
38.2469	38.3103	77	50
38.3736	38.627	56	33
38.3736	38.627	59	33
38.3736	38.627	65	33
38.3736	38.437	77	61
38.5003	38.5636	77	57
38.627	38.8803	56	36
38.627	38.8803	59	36
38.627	38.8803	65	36
38.627	38.6903	77	65
38.7537	38.817	77	65
38.8803	39.5183	51	44
38.8803	39.0566	77	75
38.9685	39.5183	79	55
39.0566	39.5183	77	55
39.1448	39.4086	60	29
39.1448	39.4086	63	29
39.1448	39.4086	68	29
39.1448	39.5183	75	66
39.2763	39.5183	80	64
39.4086	39.6753	60	44
39.4086	39.6753	63	44
39.4086	39.6753	68	44
39.4086	39.5416	84	60
39.6753	40.2768	51	27
39.6753	40.2768	89	67
39.9336	40.1891	61	32
39.9336	40.1891	63	32
39.9336	40.1891	67	32
39.9336	40.2768	87	52
40.0613	40.2768	85	48
40.1891	40.4524	61	37
40.1891	40.4524	63	37
40.1891	40.4524	67	37
40.1891	40.3207	79	52
40.4524	41.2529	56	44
40.4524	40.9789	80	65
40.7156	40.9789	60	35
40.7156	40.9789	68	35
40.9789	41.2529	65	47
40.9789	41.2529	68	47
40.9789	41.0246	74	55
41.0246	41.0703	72	49
41.0703	41.1159	74	65
41.1159	41.1616	72	53
41.1616	41.2072	71	67
41.2072	41.2529	72	56
41.2529	41.7802	46	86
41.2529	41.7802	70	87
41.5251	41.7802	58	55
41.5251	41.7802	65	55
41.5251	41.7802	68	55
41.5251	41.7802	74	62
41.6544	41.7912	75	62
41.7802	42.0475	58	65
41.7802	42.0475	65	65
41.7802	42.0475	68	65
41.7802	42.0475	74	67
41.7802	42.0475	77	67
42.0475	42.5794	51	74
42.0475	42.5794	70	85
42.3114	42.5643	58	57
42.3114	42.5643	63	57
42.3114	42.5643	67	57
42.3114	42.5643	75	73
42.4391	42.5794	77	69
42.5643	42.823	58	62
42.5643	42.823	63	62
42.5643	42.823	67	62
42.5643	42.823	75	76
42.5643	42.823	79	76
42.823	43.3422	50	65
42.823	43.3422	70	87
43.0785	43.3271	58	56
43.0785	43.3271	65	56
43.0785	43.3271	68	56
43.0785	43.3271	77	73
43.2038	43.3422	79	68
43.3271	43.5875	58	69
43.3271	43.5875	65	69
43.3271	43.5875	68	69
43.3271	43.5875	77	83
43.3271	43.5875	80	83
43.5875	44.1004	51	61
43.5875	44.0942	73	65
43.5875	44.0942	79	77
43.5875	44.0942	82	77
43.8409	44.1004	58	61
43.8409	44.1004	61	61
43.8409	44.1004	67	61
44.0942	44.2291	52	38
44.0942	44.2291	73	63
44.0942	44.2291	79	75
44.0942	44.2291	82	75
44.2291	44.364	73	58
44.2291	44.364	79	69
44.2291	44.364	82	69
44.364	44.8739	53	38
44.364	44.8739	73	59
44.364	44.8739	79	70
44.364	44.7497	82	70
44.6244	44.8739	56	41
44.6244	44.8739	65	41
44.6244	44.8739	84	59
44.7497	44.8849	82	50
44.8739	45.0058	44	36
44.8739	45.0058	72	53
44.8739	45.0058	80	53
45.1378	45.6823	46	31
45.1378	45.6823	71	69
45.1378	45.5194	80	69
45.3944	45.6433	55	27
45.3944	45.6433	63	27
45.3944	45.6823	82	47
45.5194	45.6823	80	46
45.6433	45.9066	55	41
45.6433	45.9066	63	41
45.6433	45.775	70	52
45.6433	45.775	79	52
45.9066	46.4352	46	39
45.9066	46.4352	70	66
45.9066	46.2877	79	66
46.1627	46.4352	53	26
46.1627	46.4114	62	26
46.1627	46.4352	80	53
46.2877	46.4352	79	47
46.4114	46.683	58	34
46.4114	46.683	62	34
46.4114	46.5472	68	56
46.4114	46.5472	77	56
46.683	47.4697	51	23
46.683	47.2089	68	64
46.683	47.0723	77	64
46.9434	47.2011	58	33
46.9434	47.2011	63	33
46.9434	47.2089	79	52
47.0723	47.2123	77	48
47.2011	47.4697	58	53
47.2011	47.4697	63	53
47.2011	47.3354	67	53
47.2011	47.3354	75	53
47.4697	48.0272	46	37
47.4697	48.0272	70	44
47.6054	48.0023	74	46
47.741	48.0023	58	32
47.741	48.0023	65	32
47.741	48.0023	68	32
47.741	48.0272	75	57
47.872	48.0272	76	44
48.0023	48.2679	58	35
48.0023	48.2679	65	35
48.0023	48.2679	68	35
48.0023	48.2679	74	56
48.0023	48.2679	77	56
48.2679	48.7856	51	41
48.2679	48.7856	70	65
48.3995	48.7856	74	63
48.5308	48.7856	58	45
48.5308	48.7856	63	45
48.5308	48.7856	67	45
48.5308	48.7856	75	57
48.6583	48.7856	77	51
48.7856	49.0396	58	41
48.7856	49.0396	63	41
48.7856	49.0396	67	41
48.7856	49.0396	75	64
48.7856	49.0396	79	64
49.0396	49.549	50	52
49.0396	49.549	70	68
49.1669	49.549	76	73
49.2933	49.543	58	67
49.2933	49.543	65	67
49.2933	49.543	68	67
49.2933	49.543	77	70
49.4181	49.549	79	64
49.543	49.8068	58	56
49.543	49.8068	65	56
49.543	49.8068	68	56
49.543	49.8068	77	80
49.543	49.8068	80	80
49.8068	50.3516	51	66
49.8068	50.3251	73	62
49.8068	50.1869	79	74
49.8068	50.1869	82	74
50.0602	50.3516	58	54
50.0602	50.3516	61	54
50.0602	50.3516	67	54
50.1869	50.3516	79	44
50.1869	50.3516	82	44
50.3251	51.1117	52	42
50.3251	50.6016	73	62
50.4634	51.1117	79	52
50.4634	50.7316	82	52
50.6016	51.1117	53	20
50.6016	51.1117	73	48
50.7316	50.9882	82	56
50.8616	51.1117	56	32
50.8616	51.1117	65	32
50.8616	51.1117	84	54
50.9882	51.1226	82	51
51.1117	51.2425	44	30
51.1117	51.2425	72	56
51.1117	51.2425	80	56
51.3733	51.9062	46	37
51.3733	51.9062	71	47
51.5024	51.7588	80	51
51.6315	51.883	55	29
51.6315	51.883	63	29
51.6315	51.9062	82	54
51.7588	51.9062	80	50
51.883	52.148	55	34
51.883	52.148	63	34
51.883	52.0155	70	50
51.883	52.0155	79	50
52.148	52.7373	46	33
52.148	52.7373	70	63
52.2853	52.5631	79	46
52.4226	52.7373	53	33
52.4226	52.7036	62	33
52.4226	52.7373	80	59
52.5631	52.7373	79	54
52.7036	53.271	58	41
52.7036	52.992	62	41
52.7036	52.992	68	50
52.7036	52.992	77	50
52.992	53.271	51	36
52.992	53.271	63	36
52.992	53.1315	67	45
52.992	53.1315	75	45
53.271	53.3374	75	59
53.4038	53.4702	75	52
53.5366	53.8022	51	32
53.5366	53.8022	55	32
53.5366	53.8022	61	32
53.5366	53.603	75	61
53.6694	53.7358	75	57
53.8022	54.0655	44	27
53.8022	53.868	75	64
53.9339	53.9997	75	67
54.0655	54.3288	51	27
54.0655	54.3288	56	27
54.0655	54.3288	60	27
54.0655	54.1313	75	70
54.1972	54.263	75	64
54.3288	54.5987	51	44
54.3288	54.5987	56	44
54.3288	54.5987	60	44
54.3288	54.3946	75	71
54.4604	54.5296	75	67
54.5987	54.8458	44	39
54.5987	54.7223	77	61
54.7223	54.8458	75	57
54.8458	55.093	51	35
54.8458	55.093	56	35
54.8458	55.093	60	35
54.8458	54.9694	72	50
54.9694	55.093	68	56
55.093	55.3402	51	33
55.093	55.3402	56	33
55.093	55.3402	60	33
55.093	55.2166	63	51
55.2166	55.3402	64	55
55.3402	55.5874	44	47
55.3402	55.4018	65	68
55.4636	55.5254	65	62
55.5874	55.8361	50	29
55.5874	55.8361	56	29
55.5874	55.8361	59	29
55.5874	55.6494	65	62
55.7115	55.7738	65	53
55.8361	56.0863	50	29
55.8361	56.0863	56	29
55.8361	56.0863	59	29
55.8361	55.8985	65	55
55.961	56.0236	65	62
56.0863	56.3371	44	43
56.0863	56.2119	63	68
56.2119	56.3371	68	55
56.3371	56.5866	51	31
56.3371	56.5866	56	31
56.3371	56.5866	60	31
56.3371	56.462	72	50
56.462	56.5866	75	58
56.5866	56.8347	51	38
56.5866	56.8347	56	38
56.5866	56.8347	60	38
56.5866	56.7108	80	59
56.7108	56.8347	76	56
56.8347	57.088	50	44
56.8347	56.898	77	41
56.9613	57.0247	77	63
57.088	57.3414	56	29
57.088	57.3414	59	29
57.088	57.3414	65	29
57.088	57.1514	77	61
57.2147	57.278	77	63
57.3414	57.5947	56	40
57.3414	57.5947	59	40
57.3414	57.5947	65	40
57.3414	57.4047	77	58
57.4681	57.5314	77	54
57.5947	58.2127	51	45
57.5947	57.771	77	58
57.6829	58.2127	79	52
57.771	58.2127	77	52
57.8591	58.123	60	31
57.8591	58.123	63	31
57.8591	58.123	68	31
57.8591	58.2127	75	55
57.9907	58.2127	80	68
58.123	58.3897	60	50
58.123	58.3897	63	50
58.123	58.3897	68	50
58.123	58.256	84	49
58.3897	58.9347	51	40
58.3897	58.9347	89	55
58.6479	58.9035	61	35
58.6479	58.9035	63	35
58.6479	58.9035	67	35
58.6479	58.9347	87	55
58.7757	58.9347	85	51
58.9035	59.1667	61	37
58.9035	59.1667	63	37
58.9035	59.1667	67	37
58.9035	59.0351	79	55
59.1667	59.9432	56	45
59.1667	59.6963	82	60
59.425	59.681	60	37
59.425	59.681	63	37
59.425	59.681	68	37
59.425	59.6963	80	58
59.553	59.6963	75	50
59.681	59.9432	60	45
59.681	59.9432	63	45
59.681	59.9432	68	45
59.681	59.8121	72	38
59.9432	60.2065	44	27
59.9432	60.009	75	48
60.0748	60.1407	75	55
60.2065	60.4698	51	34
60.2065	60.4698	56	34
60.2065	60.4698	60	34
60.2065	60.2723	75	66
60.3381	60.4039	75	73
60.4698	60.7396	51	41
60.4698	60.7396	56	41
60.4698	60.7396	60	41
60.4698	60.5356	75	69
60.6014	60.6705	75	64
60.7396	60.9868	44	33
60.7396	60.8632	77	53
60.8632	60.9868	75	61
60.9868	61.234	51	37
60.9868	61.234	56	37
60.9868	61.234	60	37
60.9868	61.1104	72	50
61.1104	61.234	68	40
61.234	61.4811	51	37
61.234	61.4811	56	37
61.234	61.4811	60	37
61.234	61.3576	63	48
61.3576	61.4811	64	43
61.4811	61.7278	44	35
61.4811	61.5428	65	43
61.6045	61.6661	65	50
61.7278	61.9745	50	35
61.7278	61.9745	56	35
61.7278	61.9745	59	35
61.7278	61.7895	65	53
61.8511	61.9128	65	56
61.9745	62.2211	50	35
61.9745	62.2211	56	35
61.9745	62.2211	59	35
61.9745	62.0361	65	46
62.0978	62.1594	65	43
62.2211	62.4678	44	38
62.2211	62.3444	63	48
62.3444	62.4678	68	48
62.4678	62.7145	51	28
62.4678	62.7145	56	28
62.4678	62.7145	60	28
62.4678	62.5911	72	45
62.5911	62.7145	75	61
62.7145	62.9612	51	41
62.7145	62.9612	56	41
62.7145	62.9612	60	41
62.7145	62.8378	80	52
62.8378	62.9612	76	45
62.9612	63.2145	50	32
62.9612	63.0245	77	50
63.0879	63.1512	77	45
63.2145	63.4679	56	25
63.2145	63.4679	59	25
63.2145	63.4679	65	25
63.2145	63.2779	77	60
63.3412	63.4046	77	65
63.4679	63.7213	56	31
63.4679	63.7213	59	31
63.4679	63.7213	65	31
63.4679	63.5312	77	66
63.5946	63.6579	77	51
63.7213	64.5162	51	33
63.7213	63.8975	77	70
63.8094	64.3864	79	55
63.8975	64.3864	77	48
63.9857	64.2495	56	25
63.9857	64.2495	60	25
63.9857	64.2495	63	25
63.9857	64.3864	75	55
64.1172	64.3864	80	51
64.2495	64.5162	56	33
64.2495	64.5162	60	33
64.2495	64.5162	63	33
64.2495	64.3864	84	46
64.5162	65.2933	51	44
64.5162	65.0612	89	55
64.7745	65.03	61	25
64.7745	65.03	63	25
64.7745	65.03	67	25
64.7745	65.0612	87	42
64.9022	65.0612	85	39
65.03	65.2933	61	25
65.03	65.2933	63	25
65.03	65.2933	67	25
65.03	65.1616	79	47
65.2933	65.5565	44	17
65.2933	65.8198	80	57
65.5565	65.8198	51	24
65.5565	65.8198	60	24
65.8198	66.1206	68	55
66.1206	66.6941	44	34
66.1206	66.6941	75	62
66.1206	66.6941	78	62
66.3845	66.6941	51	44
66.3845	66.6941	60	44
66.6484	66.9066	56	37
66.6484	66.9066	66	37
66.6484	66.9178	71	48
66.6484	66.9178	74	48
66.9066	67.4532	44	37
66.9066	67.4532	72	48
66.9066	67.4532	75	48
67.1747	67.4532	51	29
67.1747	67.4532	60	29
67.1747	67.3041	68	50
67.3041	67.4301	68	42
67.4301	67.7007	56	29
67.4301	67.7007	66	29
67.4301	67.7007	68	56
67.7007	68.2618	49	37
67.7007	68.2618	78	60
67.7007	68.2618	82	60
67.97	68.2618	53	34
67.97	68.2618	61	34
68.2393	69.023	56	41
68.2393	69.023	65	41
68.2393	69.023	76	48
68.2393	69.023	79	48
68.4969	69.023	49	31
68.4969	69.023	77	49
68.4969	69.023	80	49
68.7687	69.0341	53	26
68.7687	69.0341	61	26
68.7687	68.8975	68	49
68.8975	69.023	68	42
69.023	69.2899	56	32
69.023	69.2899	65	32
69.023	69.2899	68	55
69.2899	69.8447	44	40
69.2899	69.8447	75	58
69.2899	69.8447	78	58
69.5598	69.8447	51	35
69.5598	69.8447	60	35
69.8297	70.0873	56	41
69.8297	70.0873	66	41
69.8297	70.0985	71	44
69.8297	70.0985	74	44
70.0873	70.6416	44	37
70.0873	70.6416	72	48
70.0873	70.6416	75	48
70.3554	70.6416	51	25
70.3554	70.6416	60	25
70.3554	70.4885	68	51
70.4885	70.6217	68	43
70.6217	70.8947	56	37
70.6217	70.8947	66	37
70.6217	70.8947	68	52
70.8947	71.7358	49	35
70.8947	71.1821	70	53
70.8947	71.1821	78	53
71.1821	71.4635	56	37
71.1821	71.4635	68	45
71.1821	71.4635	77	45
71.4635	71.7358	60	18
71.4635	71.7358	66	49
71.4635	71.7358	75	49
71.7358	72.312	49	29
71.7358	72.0178	61	29
71.7358	72.2959	65	47
71.7358	72.312	73	47
72.0178	72.312	53	36
72.0178	72.312	61	36
72.0178	72.1569	68	40
72.1569	72.2959	68	36
72.2959	72.5765	56	36
72.2959	72.5765	65	36
72.2959	72.5765	68	40
72.5765	73.1253	44	36
72.5765	73.1253	75	47
72.5765	73.1253	78	47
72.8434	73.1253	51	31
72.8434	73.1253	60	31
73.1103	73.3685	56	39
73.1103	73.3685	66	39
73.1103	73.3796	71	42
73.1103	73.3796	74	42
73.3685	73.9217	44	40
73.3685	73.9217	72	42
73.3685	73.9217	75	42
73.6365	73.9217	51	36
73.6365	73.9217	60	36
73.6365	73.7659	68	44
73.7659	73.8909	68	39
73.8909	74.1586	56	32
73.8909	74.1586	66	32
73.8909	74.1586	68	53
74.1586	74.705	37	45
74.1586	74.705	78	64
74.1586	74.705	82	64
74.4243	74.705	53	30
74.4243	74.705	61	30
74.69	75.4743	56	53
74.69	75.4743	65	53
74.69	75.4743	76	52
74.69	75.4743	79	52
74.9482	75.4743	49	32
74.9482	75.4743	77	52
74.9482	75.4743	80	52
75.2199	75.4856	53	44
75.2199	75.4856	61	44
75.2199	75.3487	68	45
75.3487	75.4743	68	36
75.4743	75.746	56	39
75.4743	75.746	65	39
75.4743	75.746	68	55
75.746	76.3007	42	38
75.746	76.1398	80	63
76.0105	76.3007	54	43
76.0105	76.3007	62	43
76.0105	76.3007	70	63
76.1398	76.3007	80	49
76.2692	76.5391	58	37
76.2692	76.5391	63	37
76.2692	77.091	75	56
76.2692	76.9356	78	56
76.5391	77.091	44	37
76.8042	77.091	53	30
76.8042	77.091	60	30
76.8042	77.091	68	53
76.9356	77.091	78	46
77.067	77.3418	56	46
77.067	77.3418	61	46
77.067	77.9285	73	50
77.067	77.7521	77	50
77.3418	77.9285	44	33
77.6111	77.8931	51	30
77.6111	77.8931	56	30
77.6111	77.8931	60	30
77.6111	77.8931	66	40
77.7521	77.9285	77	40
77.8931	78.1959	51	36
77.8931	78.1959	56	36
77.8931	78.1959	60	36
77.8931	78.1959	66	38
77.8931	78.1959	75	38
78.1959	78.4987	49	45
78.1959	78.4987	56	45
78.1959	78.4987	61	45
78.1959	78.4987	65	36
78.1959	78.4987	73	36
78.4987	78.5635	68	43
78.6283	78.6932	68	35
78.758	79.0297	68	43
79.0297	79.6041	44	47
79.0297	79.6041	75	48
79.0297	79.6041	78	48
79.302	79.6041	51	44
79.302	79.6041	60	44
79.5659	79.8241	56	49
79.5659	79.8241	66	49
79.5659	80.3556	71	45
79.5659	80.3556	74	45
79.8241	80.3556	44	42
79.8241	80.3556	72	45
79.8241	80.3556	75	45
80.0922	80.3589	51	39
80.0922	80.3589	60	39
80.0922	80.2216	68	47
80.2216	80.3479	68	42
80.3479	80.6204	56	39
80.3479	80.6204	66	39
80.3479	80.6204	68	56
80.6204	81.174	49	51
80.6204	81.174	78	60
80.6204	81.174	82	60
80.8897	81.174	53	45
80.8897	81.174	61	45
81.159	81.9433	56	50
81.159	81.9433	65	50
81.159	81.9433	76	48
81.159	81.9433	79	48
81.4166	81.9433	49	52
81.4166	81.9433	77	49
81.4166	81.9433	80	49
81.6884	81.9544	53	37
81.6884	81.9544	61	37
81.6884	81.8172	68	47
81.8172	81.9433	68	40
81.9433	82.2101	56	34
81.9433	82.2101	65	34
81.9433	82.2101	68	55
82.2101	82.78	44	45
82.2101	82.78	75	58
82.2101	82.78	78	58
82.48	82.78	51	34
82.48	82.78	60	34
82.7499	83.0076	56	41
82.7499	83.0076	66	41
82.7499	83.0187	71	44
82.7499	83.0187	74	44
83.0076	83.5581	44	43
83.0076	83.5581	72	48
83.0076	83.5581	75	48
83.2756	83.5581	51	28
83.2756	83.5581	60	28
83.2756	83.4088	68	44
83.4088	83.5419	68	39
83.5419	83.8193	56	43
83.5419	83.8193	66	43
83.5419	83.8193	68	52
83.8193	84.6705	49	44
83.8193	84.1168	70	53
83.8193	84.1168	78	53
84.1168	84.3982	56	40
84.1168	84.3982	68	46
84.1168	84.3982	77	46
84.3982	84.6705	60	28
84.3982	84.6705	66	49
84.3982	84.6705	75	49
84.6705	85.3671	49	29
84.6705	84.9525	61	29
84.6705	85.2306	65	47
84.6705	85.3671	73	47
84.9525	85.3671	53	35
84.9525	85.3671	61	35
84.9525	85.0916	68	40
85.0916	85.2306	68	33
85.2306	85.3671	56	35
85.2306	85.3671	65	35
85.2306	85.5096	68	40
85.5096	86.0815	44	35
85.5096	86.0815	75	47
85.5096	86.0815	78	47
85.7765	86.0815	51	38
85.7765	86.0815	60	38
86.0433	86.3016	56	40
86.0433	86.3016	66	40
86.0433	86.8292	71	42
86.0433	86.8292	74	42
86.3016	86.8292	44	61
86.3016	86.8292	72	42
86.3016	86.8292	75	42
86.5696	86.8363	51	49
86.5696	86.8363	60	49
86.5696	86.699	68	37
86.699	86.8253	68	29
86.8253	87.0898	56	57
86.8253	87.0898	66	57
86.8253	87.0898	68	53
87.0898	87.6513	37	61
87.0898	87.6513	78	64
87.0898	87.6513	82	64
87.3555	87.6513	53	47
87.3555	87.6513	61	47
87.6212	87.8794	56	57
87.6212	87.8794	65	57
87.6212	88.4504	76	52
87.6212	88.4504	79	52
87.8794	88.4504	49	53
87.8794	88.4504	77	52
87.8794	88.4504	80	52
88.1511	88.4504	53	40
88.1511	88.4504	61	40
88.1511	88.2799	68	45
88.2799	88.4062	68	41
88.4062	88.678	56	48
88.4062	88.678	65	48
88.4062	88.678	68	55
88.678	89.2327	42	49
88.678	89.0718	80	63
88.9424	89.2327	54	43
88.9424	89.2327	62	43
88.9424	89.2327	70	63
89.0718	89.2327	80	49
89.2012	89.4711	58	48
89.2012	89.4711	63	48
89.2012	90.015	75	56
89.2012	89.8676	78	56
89.4711	90.015	44	42
89.7362	90.015	53	28
89.7362	90.015	60	28
89.7362	90.015	68	53
89.8676	90.015	78	46
89.999	90.2738	56	41
89.999	90.2738	61	41
89.999	90.834	73	50
89.999	90.6841	77	50
90.2738	90.834	44	43
90.5431	90.8251	51	29
90.5431	90.8251	56	29
90.5431	90.8251	60	29
90.5431	90.8251	66	40
90.6841	90.834	77	40
90.8251	91.1279	51	46
90.8251	91.1279	56	46
90.8251	91.1279	60	46
90.8251	91.1279	66	38
90.8251	91.1279	75	38
91.1279	91.4307	49	46
91.1279	91.4307	56	46
91.1279	91.4307	61	46
91.1279	91.4307	65	36
91.1279	91.4307	73	36
91.7334	91.8654	49	67
91.7334	91.8654	56	67
91.7334	91.8654	61	67
91.7334	91.8654	65	77
91.7334	91.8654	77	77
91.9643	91.9973	77	69
91.9973	92.1293	51	62
91.9973	92.1293	58	62
91.9973	92.1293	61	73
91.9973	92.1293	67	82
91.9973	92.1293	75	82
92.2612	92.3932	67	68
92.4921	92.5251	77	55
92.5251	92.6571	51	67
92.5251	92.6571	58	67
92.5251	92.6571	61	67
92.5251	92.6571	67	67
92.5251	92.6571	75	67
92.789	92.921	51	62
92.789	92.921	58	62
92.789	92.921	61	73
92.789	92.921	67	81
93.02	93.0529	77	59
93.0529	93.1849	67	69
93.0529	93.1849	75	69
93.3168	93.4488	51	52
93.3168	93.4488	58	52
93.3168	93.4488	61	52
93.3168	93.4488	67	66
93.5804	94.0879	44	36
93.5804	94.0879	68	59
93.7082	94.0879	72	47
93.8354	94.0879	51	32
93.8354	94.0879	56	32
93.8354	94.0879	60	32
93.8354	94.0879	75	53
93.962	94.0879	80	53
94.0879	94.3501	51	37
94.0879	94.3501	56	37
94.0879	94.3501	60	37
94.0879	94.219	84	59
94.3501	94.6013	44	38
94.3501	94.4338	80	63
94.4338	94.5175	82	44
94.5175	94.6013	80	51
94.6013	94.7268	50	39
94.6013	94.8524	56	39
94.6013	94.8524	59	39
94.6013	94.7268	77	36
94.7268	94.8524	53	29
94.7268	94.8524	74	58
94.8524	94.9843	51	50
94.8524	94.9843	56	50
94.8524	94.9843	60	50
94.8524	94.9843	75	63
95.0833	95.1163	77	64
95.1163	95.25	51	64
95.1163	95.25	58	64
95.1163	95.25	61	76
95.1163	95.25	67	78
95.1163	95.25	75	78
95.3838	95.5175	67	60
95.6178	95.6512	77	53
95.6512	95.785	51	63
95.6512	95.785	58	63
95.6512	95.785	61	63
95.6512	95.785	67	71
95.6512	95.785	75	71
95.9187	96.0524	51	57
95.9187	96.0524	58	57
95.9187	96.0524	61	68
95.9187	96.0524	67	81
96.1527	96.1862	77	51
96.1862	96.3199	67	72
96.1862	96.3199	75	72
96.4536	96.5874	51	45
96.4536	96.5874	58	45
96.4536	96.5874	61	45
96.4536	96.5874	67	72
96.7206	96.9766	39	40
96.7206	96.806	63	64
96.806	96.8913	65	52
96.8913	96.9766	63	60
96.9766	97.2388	55	39
96.9766	97.2388	61	39
96.9766	97.1071	62	44
97.1071	97.2388	63	54
97.2388	97.5118	51	37
97.2388	97.5118	61	37
97.2388	97.3753	72	58
97.3753	97.5118	70	53
97.5118	97.7837	44	48
97.5118	97.5475	68	48
97.5475	97.5832	70	41
97.5832	97.6501	68	64
97.6501	97.7837	67	49
97.7837	98.0488	56	36
97.7837	98.0488	60	36
97.7837	97.9168	68	71
97.9168	98.0488	70	66
98.0488	98.3221	51	45
98.0488	98.3221	60	45
98.0488	98.1798	72	77
98.1798	98.2874	73	56
98.2874	98.3221	77	69
98.3221	98.454	51	61
98.3221	98.454	58	61
98.3221	98.454	61	72
98.3221	98.454	67	85
98.3221	98.454	75	85
98.586	98.7179	67	63
98.8169	98.8499	77	57
98.8499	98.9818	51	64
98.8499	98.9818	58	64
98.8499	98.9818	61	64
98.8499	98.9818	67	70
98.8499	98.9818	75	70
99.1138	99.2457	51	62
99.1138	99.2457	58	62
99.1138	99.2457	61	73
99.1138	99.2457	67	86
99.3447	99.3777	77	67
99.3777	99.5096	67	74
99.3777	99.5096	75	74
99.6416	99.7735	51	51
99.6416	99.7735	58	51
99.6416	99.7735	61	51
99.6416	99.7735	67	65
99.9051	100.413	44	46
99.9051	100.413	68	57
100.033	100.413	72	38
100.16	100.413	51	35
100.16	100.413	56	35
100.16	100.413	60	35
100.16	100.413	75	43
100.287	100.413	80	53
100.413	100.675	51	42
100.413	100.675	56	42
100.413	100.675	60	42
100.413	100.544	84	57
100.675	100.926	44	49
100.675	100.759	80	67
100.759	100.842	82	52
100.842	100.926	80	58
100.926	101.052	50	44
100.926	101.177	56	44
100.926	101.177	59	44
100.926	101.052	77	64
101.052	101.177	53	29
101.052	101.177	74	50
101.177	101.309	51	51
101.177	101.309	56	51
101.177	101.309	60	51
101.177	101.309	75	68
101.408	101.441	77	67
101.441	101.575	51	57
101.441	101.575	58	57
101.441	101.575	61	68
101.441	101.575	67	81
101.441	101.575	75	81
101.708	101.842	67	72
101.943	101.976	77	67
101.976	102.11	51	63
101.976	102.11	58	63
101.976	102.11	61	63
101.976	102.11	67	72
101.976	102.11	75	72
102.243	102.377	51	60
102.243	102.377	58	71
102.243	102.377	61	71
102.243	102.377	67	86
102.477	102.511	77	64
102.511	102.645	67	72
102.511	102.645	75	72
102.778	102.912	51	36
102.778	102.912	58	36
102.778	102.912	61	36
102.778	102.912	67	63
103.045	103.322	56	45
103.045	103.322	60	45
103.045	103.081	68	45
103.081	103.116	70	37
103.116	103.185	68	46
103.185	103.322	67	39
103.322	103.454	68	58
103.454	103.585	70	53
103.585	103.715	72	58
103.715	103.843	73	54
103.843	103.976	75	60
103.976	104.11	77	57
104.11	104.245	78	67
104.245	104.382	79	59
104.382	104.866	82	68
104.866	105.059	80	47
105.059	105.613	44	38
105.059	105.613	75	55
105.059	105.613	78	55
105.328	105.613	51	44
105.328	105.613	60	44
105.597	105.861	56	36
105.597	105.861	66	36
105.597	106.437	71	48
105.597	106.437	74	48
105.861	106.437	44	43
105.861	106.437	72	48
105.861	106.437	75	48
106.129	106.437	51	35
106.129	106.437	60	35
106.129	106.26	68	43
106.26	106.39	68	37
106.39	106.656	56	39
106.39	106.656	66	39
106.39	106.656	68	56
106.656	107.225	37	51
106.656	107.225	78	60
106.656	107.225	82	60
106.925	107.225	53	37
106.925	107.225	61	37
107.195	107.452	56	45
107.195	107.452	65	45
107.195	107.464	76	48
107.195	107.464	79	48
107.452	107.997	49	37
107.452	107.997	77	49
107.452	107.997	80	49
107.724	107.997	53	40
107.724	107.997	61	40
107.724	107.853	68	42
107.853	107.982	68	35
107.982	108.248	56	39
107.982	108.248	65	39
107.982	108.248	68	55
108.248	108.811	44	38
108.248	108.811	75	58
108.248	108.811	78	58
108.518	108.811	51	45
108.518	108.811	60	45
108.788	109.58	56	45
108.788	109.58	66	45
108.788	109.58	71	44
108.788	109.58	74	44
109.046	109.58	44	44
109.046	109.58	72	48
109.046	109.58	75	48
109.314	109.592	51	42
109.314	109.592	60	42
109.314	109.447	68	44
109.447	109.58	68	44
109.58	109.855	56	34
109.58	109.855	66	34
109.58	109.855	68	52
109.855	110.698	49	38
109.855	110.145	70	53
109.855	110.145	78	53
110.145	110.426	56	46
110.145	110.426	68	51
110.145	110.426	77	51
110.426	110.698	60	45
110.426	110.698	66	49
110.426	110.698	75	49
110.698	111.257	49	43
110.698	110.98	61	43
110.698	111.253	65	47
110.698	111.257	73	47
110.98	111.257	53	36
110.98	111.257	61	36
110.98	111.119	68	40
111.119	111.253	68	37
111.253	111.391	56	36
111.253	111.391	65	36
111.253	111.529	68	40
111.529	112.078	44	33
111.529	112.078	75	47
111.529	112.078	78	47
111.796	112.078	51	38
111.796	112.078	60	38
112.063	112.321	56	35
112.063	112.321	66	35
112.063	112.852	71	42
112.063	112.852	74	42
112.321	112.852	44	43
112.321	112.852	72	42
112.321	112.852	75	42
112.589	112.856	51	35
112.589	112.856	60	35
112.589	112.718	68	37
112.718	112.845	68	35
112.845	113.109	56	39
112.845	113.109	66	39
112.845	113.109	68	53
113.109	113.662	37	48
113.109	113.662	78	64
113.109	113.662	82	64
113.374	113.662	53	38
113.374	113.662	61	38
113.64	113.898	56	47
113.64	113.898	65	47
113.64	113.909	76	52
113.64	113.909	79	52
113.898	114.437	49	52
113.898	114.437	77	52
113.898	114.437	80	52
114.17	114.437	53	40
114.17	114.437	61	40
114.17	114.299	68	45
114.299	114.425	68	36
114.425	114.697	56	39
114.425	114.697	65	39
114.425	114.697	68	55
114.697	114.829	42	46
114.697	114.829	80	63
114.961	115.231	54	37
114.961	115.231	62	37
114.961	115.22	70	63
115.091	115.22	80	49
115.22	115.49	58	43
115.22	115.49	63	43
115.22	115.755	75	56
115.22	115.887	78	56
115.49	115.623	44	35
115.755	116.029	53	40
115.755	116.029	60	40
115.755	116.018	68	53
115.887	116.018	78	46
116.018	116.293	56	41
116.018	116.293	61	41
116.018	116.562	73	50
116.018	116.703	77	50
116.293	116.427	44	33
116.562	116.844	51	36
116.562	116.844	56	36
116.562	116.844	60	36
116.562	116.844	66	40
116.703	116.844	77	40
116.844	117.147	51	30
116.844	117.147	56	30
116.844	117.147	60	30
116.844	117.147	66	38
116.844	117.147	75	38
117.147	117.298	49	42
117.147	117.298	56	42
117.147	117.298	61	42
117.147	117.298	65	36
117.147	117.298	73	36
117.45	117.514	61	52
117.579	117.644	61	52
117.709	117.976	61	52
117.976	118.878	37	61
117.976	118.577	65	72
117.976	118.577	68	72
118.277	118.577	49	43
118.277	118.577	56	43
118.277	118.577	59	43
118.577	119.178	49	51
118.577	119.178	56	51
118.577	119.178	59	51
118.577	118.953	65	69
118.577	118.878	68	69
118.878	119.589	37	65
118.878	118.953	68	66
118.915	119.589	70	66
118.953	119.472	65	72
118.953	119.472	68	72
119.178	119.472	49	56
119.178	119.472	56	56
119.178	119.472	59	56
119.325	119.589	63	60
119.325	119.589	66	60
119.472	119.766	49	57
119.472	119.766	56	57
119.472	119.766	59	57
119.472	119.766	65	72
119.472	119.766	68	72
119.766	120.601	42	63
119.766	120.832	66	76
119.766	120.318	70	76
120.038	120.318	49	45
120.038	120.318	54	45
120.038	120.318	58	45
120.318	120.832	49	45
120.318	120.832	54	45
120.318	120.832	58	45
120.318	120.601	70	81
120.318	120.832	73	81
120.601	120.832	42	55
120.601	121.443	70	87
120.601	121.443	78	87
120.882	121.162	50	41
120.882	121.162	58	41
121.162	121.443	51	46
121.162	121.443	58	46
121.443	122.21	44	35
121.443	122.21	68	58
121.443	122.21	77	58
121.72	121.991	51	32
121.72	121.991	56	32
121.72	121.991	60	32
121.855	121.991	75	54
121.991	122.539	51	37
121.991	122.539	56	37
121.991	122.539	60	37
121.991	122.812	66	58
121.991	122.676	75	58
122.262	123.021	44	45
122.262	123.021	68	60
122.262	123.021	77	60
122.539	122.812	51	38
122.539	122.812	56	38
122.539	122.812	60	38
122.676	122.812	75	50
122.812	123.085	51	38
122.812	123.085	56	38
122.812	123.085	60	38
122.812	123.085	66	56
122.812	123.085	75	56
123.085	123.853	44	49
123.085	123.853	68	60
123.085	123.853	77	60
123.362	123.643	51	35
123.362	123.643	56	35
123.362	123.643	60	35
123.503	123.643	75	51
123.643	123.924	51	40
123.643	123.924	56	40
123.643	123.924	60	40
123.643	123.924	66	57
123.643	123.924	75	57
123.924	124.766	49	34
123.924	124.064	64	68
123.924	124.064	72	68
124.204	124.485	56	38
124.204	124.485	61	38
124.345	124.415	73	56
124.485	124.766	56	35
124.485	124.766	61	35
124.485	124.766	65	62
124.485	124.766	73	62
124.766	125.59	49	60
124.766	125.18	77	86
124.766	125.18	80	86
125.043	125.317	61	45
125.043	125.317	68	45
125.043	125.317	71	45
125.18	125.317	77	72
125.18	125.317	80	72
125.317	125.869	61	54
125.317	125.869	68	54
125.317	125.869	71	54
125.317	125.66	77	80
125.317	125.59	80	80
125.59	126.124	49	63
125.59	125.66	80	77
125.625	126.124	82	78
125.66	126.124	77	86
125.66	126.124	80	86
125.869	126.139	61	45
125.869	126.139	68	45
125.869	126.139	71	45
126.004	126.139	75	80
126.004	126.139	78	80
126.139	126.41	61	48
126.139	126.41	68	48
126.139	126.41	71	48
126.139	126.41	77	80
126.139	126.41	80	80
126.41	127.218	54	50
126.41	127.483	78	88
126.41	126.945	82	88
126.677	126.945	61	49
126.677	126.945	66	49
126.677	126.945	70	49
126.945	127.483	61	55
126.945	127.483	66	55
126.945	127.483	70	55
126.945	127.218	82	88
126.945	127.483	85	88
127.218	127.483	54	46
127.218	128.03	82	94
127.218	128.03	90	94
127.483	127.758	62	43
127.483	127.758	70	43
127.758	128.03	63	43
127.758	128.03	70	43
128.03	128.755	56	49
128.03	128.755	80	58
128.03	128.755	89	58
128.295	128.556	63	42
128.295	128.556	68	42
128.295	128.556	72	42
128.425	128.556	87	48
128.556	129.082	63	36
128.556	129.082	68	36
128.556	129.082	72	36
128.556	129.342	78	56
128.556	129.212	87	56
128.816	129.533	56	44
128.816	129.533	80	59
128.816	129.533	89	59
129.082	129.342	63	36
129.082	129.342	68	36
129.082	129.342	72	36
129.212	129.342	87	55
129.342	129.602	63	36
129.342	129.602	68	36
129.342	129.602	72	36
129.342	129.602	78	55
129.342	129.602	87	55
129.602	130.373	56	43
129.602	130.373	80	59
129.602	130.373	89	59
129.869	130.151	63	32
129.869	130.151	68	32
129.869	130.151	72	32
130.01	130.151	87	50
130.151	130.447	63	38
130.151	130.447	68	38
130.151	130.447	72	38
130.151	130.447	78	55
130.151	130.447	87	55
130.447	130.743	61	38
130.447	130.743	68	38
130.447	130.743	73	38
130.447	130.743	77	59
130.447	130.743	85	59
131.039	131.335	61	67
131.335	132.191	37	59
131.335	131.906	65	72
131.335	131.906	68	72
131.621	131.906	49	49
131.621	131.906	56	49
131.621	131.906	59	49
131.906	132.477	49	55
131.906	132.477	56	55
131.906	132.477	59	55
131.906	132.263	65	69
131.906	132.191	68	69
132.191	132.785	37	58
132.191	132.263	68	66
132.227	132.785	70	66
132.263	132.755	65	72
132.263	132.755	68	72
132.477	132.755	49	50
132.477	132.755	56	50
132.477	132.755	59	50
132.616	132.785	63	68
132.616	132.785	66	68
132.755	133.033	49	54
132.755	133.033	56	54
132.755	133.033	59	54
132.755	133.033	65	72
132.755	133.033	68	72
133.033	133.858	42	54
133.033	134.131	66	76
133.033	133.583	70	76
133.305	133.583	49	51
133.305	133.583	54	51
133.305	133.583	58	51
133.583	134.131	49	54
133.583	134.131	54	54
133.583	134.131	58	54
133.583	133.858	70	81
133.583	134.131	73	81
133.858	134.131	42	63
133.858	134.7	70	87
133.858	134.7	78	87
134.139	134.42	50	51
134.139	134.42	58	51
134.42	134.7	51	54
134.42	134.7	58	54
134.7	135.467	44	45
134.7	135.467	68	61
134.7	135.467	77	61
134.977	135.248	51	34
134.977	135.248	56	34
134.977	135.248	60	34
135.113	135.248	75	52
135.248	135.519	51	37
135.248	135.519	56	37
135.248	135.519	60	37
135.248	135.519	66	56
135.248	135.519	75	56
135.519	136.282	44	45
135.519	136.282	68	60
135.519	136.282	77	60
135.797	136.07	51	34
135.797	136.07	56	34
135.797	136.07	60	34
135.933	136.07	75	52
136.07	136.343	51	38
136.07	136.343	56	38
136.07	136.343	60	38
136.07	136.343	66	56
136.07	136.343	75	56
136.343	137.003	44	49
136.343	137.003	68	60
136.343	137.003	77	60
136.619	136.9	51	36
136.619	136.9	56	36
136.619	136.9	60	36
136.76	136.9	75	55
136.9	137.181	51	40
136.9	137.181	56	40
136.9	137.181	60	40
136.9	137.181	66	57
136.9	137.181	75	57
137.181	138.023	49	52
137.181	137.321	64	68
137.181	137.321	72	68
137.461	137.742	56	45
137.461	137.742	61	45
137.602	137.672	73	58
137.742	138.023	56	45
137.742	138.023	61	45
137.742	138.023	65	62
137.742	138.023	73	62
138.023	138.847	49	60
138.023	138.437	77	86
138.023	138.437	80	86
138.3	138.574	61	50
138.3	138.574	68	50
138.3	138.574	71	50
138.437	138.574	77	80
138.437	138.574	80	80
138.574	139.126	61	56
138.574	139.126	68	56
138.574	139.126	71	56
138.574	138.918	77	80
138.574	138.847	80	80
138.847	139.412	49	60
138.847	138.918	80	77
138.882	139.412	82	78
138.918	139.397	77	86
138.918	139.397	80	86
139.126	139.397	61	47
139.126	139.397	68	47
139.126	139.397	71	47
139.261	139.412	75	75
139.261	139.412	78	75
139.397	139.667	61	53
139.397	139.667	68	53
139.397	139.667	71	53
139.397	139.667	77	80
139.397	139.667	80	80
139.667	140.475	54	60
139.667	140.732	78	88
139.667	140.203	82	88
139.934	140.203	61	56
139.934	140.203	66	56
139.934	140.203	70	56
140.203	140.732	61	60
140.203	140.732	66	60
140.203	140.732	70	60
140.203	140.475	82	92
140.203	140.732	85	92
140.475	140.732	54	67
140.475	142.016	82	101
140.475	142.016	90	101
140.74	141.015	62	61
140.74	141.015	70	61
141.015	141.552	63	62
141.015	142.016	70	62
141.287	142.016	56	45
141.287	142.016	80	59
141.287	142.016	89	59
141.552	141.813	63	35
141.552	141.813	68	35
141.552	141.813	72	35
141.683	141.813	87	56
141.813	142.339	63	38
141.813	142.339	68	38
141.813	142.339	72	38
141.813	142.599	78	56
141.813	142.469	87	56
142.073	142.775	56	44
142.073	142.775	80	59
142.073	142.775	89	59
142.339	142.599	63	35
142.339	142.599	68	35
142.339	142.599	72	35
142.469	142.599	87	51
142.599	143.126	63	36
142.599	143.126	68	36
142.599	143.126	72	36
142.599	143.408	78	55
142.599	143.267	87	55
142.859	143.63	56	46
142.859	143.63	80	59
142.859	143.63	89	59
143.126	143.408	63	36
143.126	143.408	68	36
143.126	143.408	72	36
143.267	143.408	87	52
143.408	143.704	63	38
143.408	143.704	68	38
143.408	143.704	72	38
143.408	143.704	78	55
143.408	143.704	87	55
143.704	144.0	61	45
143.704	144.0	68	45
143.704	144.0	73	45
143.704	144.0	77	59
143.704	144.0	85	59
144.296	144.523	77	50
144.523	144.556	77	45
144.556	144.685	46	50
144.556	144.685	78	52
144.783	144.815	78	41
144.815	145.074	53	42
144.815	145.074	61	42
144.815	144.945	76	46
145.042	145.074	76	43
145.074	145.334	53	46
145.074	145.334	61	46
145.074	145.204	77	50
145.301	145.334	77	46
145.334	145.462	45	50
145.334	145.462	78	53
145.559	145.591	78	44
145.591	145.848	53	45
145.591	145.848	60	45
145.591	145.848	63	45
145.591	145.719	76	50
145.816	145.848	76	45
145.848	146.105	53	39
145.848	146.105	60	39
145.848	146.105	63	39
145.848	145.976	77	50
146.073	146.105	77	50
146.105	146.227	46	50
146.105	146.227	85	57
146.319	146.349	85	50
146.349	146.594	53	47
146.349	146.594	58	47
146.349	146.594	61	47
146.349	146.471	84	59
146.563	146.594	84	56
146.594	146.838	53	53
146.594	146.838	58	53
146.594	146.838	61	53
146.594	146.716	83	66
146.808	146.838	83	64
146.838	146.959	51	56
146.838	146.959	82	75
147.05	147.08	82	63
147.08	147.322	58	49
147.08	147.322	60	49
147.08	147.322	66	49
147.08	147.201	81	73
147.292	147.322	81	63
147.322	147.564	58	50
147.322	147.564	60	50
147.322	147.564	66	50
147.322	147.443	80	70
147.534	147.564	80	58
147.564	147.685	53	56
147.564	147.685	79	67
147.776	147.806	79	54
147.806	148.048	58	46
147.806	148.048	61	46
147.806	148.048	65	46
147.806	147.927	78	65
148.018	148.048	78	51
148.048	148.29	58	50
148.048	148.29	61	50
148.048	148.29	65	50
148.048	148.169	77	63
148.259	148.29	77	49
148.29	148.411	53	50
148.29	148.411	76	60
148.501	148.532	76	46
148.532	148.775	57	46
148.532	148.775	63	46
148.532	148.775	65	46
148.532	148.653	75	58
148.745	148.775	75	44
148.775	149.02	57	48
148.775	149.02	63	48
148.775	149.02	65	48
148.775	148.897	72	54
148.989	149.02	72	44
149.02	149.143	46	50
149.02	149.143	73	52
149.235	149.266	73	38
149.266	149.512	53	47
149.266	149.512	61	47
149.266	149.389	69	48
149.481	149.512	69	39
149.512	149.758	53	47
149.512	149.758	61	47
149.512	149.635	70	50
149.727	149.758	70	39
149.758	149.883	46	50
149.758	149.883	73	50
149.976	150.008	73	39
150.008	150.257	53	47
150.008	150.257	61	47
150.008	150.132	75	50
150.226	150.257	75	37
150.257	150.511	53	47
150.257	150.511	61	47
150.257	150.384	76	51
150.48	150.511	76	40
150.511	150.636	46	53
150.511	150.636	78	54
150.73	150.762	78	44
150.762	151.014	53	49
150.762	151.014	61	49
150.762	150.887	76	55
150.982	151.014	76	44
151.014	151.267	53	52
151.014	151.267	61	52
151.014	151.14	77	58
151.235	151.267	77	49
151.267	151.392	45	55
151.267	151.392	78	62
151.485	151.516	78	51
151.516	151.766	53	54
151.516	151.766	60	54
151.516	151.766	63	54
151.516	151.641	76	68
151.735	151.766	76	54
151.766	152.015	53	60
151.766	152.015	60	60
151.766	152.015	63	60
151.766	151.891	77	73
151.984	152.015	77	71
152.015	152.137	46	68
152.015	152.137	89	83
152.228	152.259	89	68
152.259	152.502	53	62
152.259	152.502	58	62
152.259	152.502	61	62
152.259	152.38	85	80
152.472	152.502	85	63
152.502	152.745	53	56
152.502	152.745	58	56
152.502	152.745	61	56
152.502	152.624	82	76
152.715	152.745	82	57
152.745	152.868	51	60
152.745	152.868	78	71
152.959	152.99	78	52
152.99	153.236	58	56
152.99	153.236	60	56
152.99	153.236	66	56
152.99	153.113	75	66
153.205	153.236	75	44
153.236	153.483	58	57
153.236	153.483	60	57
153.236	153.483	66	57
153.236	153.359	72	57
153.452	153.483	78	41
153.483	153.604	53	56
153.483	153.604	77	55
153.695	153.725	77	42
153.725	153.967	58	52
153.725	153.967	61	52
153.725	153.967	65	52
153.725	153.846	76	53
153.937	153.967	76	42
153.967	154.209	58	52
153.967	154.209	61	52
153.967	154.209	65	52
153.967	154.088	75	55
154.179	154.209	75	43
154.209	154.33	53	53
154.209	154.33	74	56
154.421	154.451	74	44
154.451	154.693	57	49
154.451	154.693	63	49
154.451	154.693	65	49
154.451	154.572	73	58
154.663	154.693	73	46
154.693	154.935	57	53
154.693	154.935	63	53
154.693	154.935	65	53
154.693	154.814	72	60
154.905	154.935	72	46
154.935	155.182	58	58
154.935	155.182	61	58
154.935	155.182	65	58
154.935	155.058	71	62
155.151	155.182	71	49
155.182	155.306	70	64
155.399	155.431	70	48
155.431	155.556	69	66
155.651	155.682	69	47
155.682	155.809	68	67
155.904	155.936	68	51
155.936	156.065	67	69
156.161	156.193	67	55
156.193	156.334	66	71
156.475	157.331	37	54
156.475	157.046	65	72
156.475	157.046	68	72
156.761	157.046	49	49
156.761	157.046	56	49
156.761	157.046	59	49
157.046	157.617	49	49
157.046	157.617	56	49
157.046	157.617	59	49
157.046	157.403	65	69
157.046	157.331	68	69
157.331	157.973	37	54
157.331	157.403	68	66
157.367	157.973	70	66
157.403	157.895	65	72
157.403	157.895	68	72
157.617	157.895	49	50
157.617	157.895	56	50
157.617	157.895	59	50
157.756	157.973	63	68
157.756	157.973	66	68
157.895	158.173	49	50
157.895	158.173	56	50
157.895	158.173	59	50
157.895	158.173	65	72
157.895	158.173	68	72
158.173	158.309	42	54
158.173	158.309	66	76
158.173	158.309	70	76
158.445	158.723	49	51
158.445	158.723	54	51
158.445	158.723	58	51
158.723	159.251	49	54
158.723	159.251	54	54
158.723	159.251	58	54
158.723	159.003	70	81
158.723	159.251	73	81
159.003	159.251	42	63
159.003	159.845	70	87
159.003	159.845	78	87
159.284	159.564	50	54
159.284	159.564	58	54
159.564	159.845	51	54
159.564	159.845	58	54
159.845	160.624	44	45
159.845	160.624	68	61
159.845	160.624	77	61
160.122	160.393	51	36
160.122	160.393	56	36
160.122	160.393	60	36
160.257	160.393	75	52
160.393	160.664	51	37
160.393	160.664	56	37
160.393	160.664	60	37
160.393	160.664	66	56
160.393	160.664	75	56
160.664	161.439	44	45
160.664	161.439	68	60
160.664	161.439	77	60
160.941	161.214	51	37
160.941	161.214	56	37
160.941	161.214	60	37
161.078	161.214	75	53
161.214	161.487	51	38
161.214	161.487	56	38
161.214	161.487	60	38
161.214	161.487	66	56
161.214	161.487	75	56
161.487	162.231	44	49
161.487	162.231	68	60
161.487	162.231	77	60
161.764	162.045	51	39
161.764	162.045	56	39
161.764	162.045	60	39
161.904	162.045	75	53
162.045	162.325	51	40
162.045	162.325	56	40
162.045	162.325	60	40
162.045	162.325	66	57
162.045	162.325	75	57
162.325	163.167	49	52
162.325	162.466	64	68
162.325	162.466	72	68
162.606	162.887	56	43
162.606	162.887	61	43
162.746	162.816	73	57
162.887	163.167	56	45
162.887	163.167	61	45
162.887	163.167	65	62
162.887	163.167	73	62
163.167	163.992	49	60
163.167	163.582	77	86
163.167	163.582	80	86
163.445	163.718	61	54
163.445	163.718	68	54
163.445	163.718	71	54
163.582	163.718	77	76
163.582	163.718	80	76
163.718	164.271	61	56
163.718	164.271	68	56
163.718	164.271	71	56
163.718	164.062	77	80
163.718	163.992	80	80
163.992	164.51	49	60
163.992	164.062	80	77
164.027	164.51	82	78
164.062	164.51	77	86
164.062	164.51	80	86
164.271	164.541	61	53
164.271	164.541	68	53
164.271	164.541	71	53
164.406	164.541	75	76
164.406	164.541	78	76
164.541	164.812	61	54
164.541	164.812	68	54
164.541	164.812	71	54
164.541	164.812	77	80
164.541	164.812	80	80
164.812	165.623	54	60
164.812	165.904	78	88
164.812	165.347	82	88
165.079	165.347	61	56
165.079	165.347	66	56
165.079	165.347	70	56
165.347	165.904	61	60
165.347	165.904	66	60
165.347	165.888	70	60
165.347	165.623	82	92
165.347	165.904	85	92
165.623	165.904	54	65
165.623	166.435	82	96
165.623	166.435	90	96
165.888	166.163	62	58
165.888	166.163	70	58
166.163	166.435	63	62
166.163	166.435	70	62
166.435	167.171	56	45
166.435	167.171	80	59
166.435	167.171	89	59
166.7	166.961	63	36
166.7	166.961	68	36
166.7	166.961	72	36
166.83	166.961	87	52
166.961	167.487	63	38
166.961	167.487	68	38
166.961	167.487	72	38
166.961	167.747	78	56
166.961	167.617	87	56
167.221	167.934	56	44
167.221	167.934	80	59
167.221	167.934	89	59
167.487	167.747	63	34
167.487	167.747	68	34
167.487	167.747	72	34
167.617	167.747	87	52
167.747	168.274	63	36
167.747	168.274	68	36
167.747	168.274	72	36
167.747	168.556	78	55
167.747	168.415	87	55
168.007	168.774	56	46
168.007	168.774	80	59
168.007	168.774	89	59
168.274	168.556	63	37
168.274	168.556	68	37
168.274	168.556	72	37
168.415	168.556	87	53
168.556	168.852	63	38
168.556	168.852	68	38
168.556	168.852	72	38
168.556	168.852	78	55
168.556	168.852	87	55
168.852	169.148	61	45
168.852	169.148	68	45
168.852	169.148	73	45
168.852	169.148	77	59
168.852	169.148	85	59
169.444	169.671	77	50
169.671	169.703	77	45
169.703	169.833	46	50
169.703	169.833	78	52
169.93	169.963	78	44
169.963	170.222	53	45
169.963	170.222	61	45
169.963	170.092	76	50
170.19	170.222	76	43
170.222	170.481	53	46
170.222	170.481	61	46
170.222	170.352	77	50
170.449	170.481	77	46
170.481	170.61	45	50
170.481	170.61	78	53
170.706	170.738	78	44
170.738	170.996	53	44
170.738	170.996	60	44
170.738	170.996	63	44
170.738	170.867	76	50
170.963	170.996	76	45
170.996	171.253	53	45
170.996	171.253	60	45
170.996	171.253	63	45
170.996	171.124	77	50
171.22	171.253	77	50
171.253	171.375	46	50
171.253	171.375	85	57
171.467	171.498	85	50
171.498	171.743	53	50
171.498	171.743	58	50
171.498	171.743	61	50
171.498	171.621	84	59
171.713	171.743	84	56
171.743	171.987	53	53
171.743	171.987	58	53
171.743	171.987	61	53
171.743	171.866	83	66
171.957	171.987	83	64
171.987	172.108	51	56
171.987	172.108	82	75
172.199	172.229	82	63
172.229	172.471	58	53
172.229	172.471	60	53
172.229	172.471	66	53
172.229	172.35	81	73
172.441	172.471	81	63
172.471	172.713	58	50
172.471	172.713	60	50
172.471	172.713	66	50
172.471	172.592	80	70
172.683	172.713	80	58
172.713	172.834	53	56
172.713	172.834	79	67
172.925	172.955	79	54
172.955	173.197	58	49
172.955	173.197	61	49
172.955	173.197	65	49
172.955	173.076	78	65
173.167	173.197	78	51
173.197	173.439	58	50
173.197	173.439	61	50
173.197	173.439	65	50
173.197	173.318	77	63
173.409	173.439	77	49
173.439	173.56	53	50
173.439	173.56	76	60
173.651	173.681	76	46
173.681	173.924	57	48
173.681	173.924	63	48
173.681	173.924	65	48
173.681	173.803	75	58
173.894	173.924	75	44
173.924	174.169	57	48
173.924	174.169	63	48
173.924	174.169	65	48
173.924	174.047	72	54
174.139	174.169	72	44
174.169	174.292	46	50
174.169	174.292	73	52
174.385	174.415	73	38
174.415	174.661	53	47
174.415	174.661	61	47
174.415	174.538	69	50
174.631	174.661	69	39
174.661	174.907	53	47
174.661	174.907	61	47
174.661	174.784	70	50
174.877	174.907	70	39
174.907	175.032	46	50
174.907	175.032	73	50
175.126	175.157	73	39
175.157	175.406	53	46
175.157	175.406	61	46
175.157	175.282	75	50
175.375	175.406	75	37
175.406	175.66	53	47
175.406	175.66	61	47
175.406	175.533	76	51
175.628	175.66	76	40
175.66	175.785	46	53
175.66	175.785	78	54
175.879	175.91	78	44
175.91	176.16	53	49
175.91	176.16	61	49
175.91	176.035	76	55
176.129	176.16	76	44
176.16	176.41	53	52
176.16	176.41	61	52
176.16	176.285	77	58
176.379	176.41	77	49
176.41	176.535	45	55
176.41	176.535	78	62
176.629	176.66	78	51
176.66	176.911	53	56
176.66	176.911	60	56
176.66	176.911	63	56
176.66	176.785	76	68
176.88	176.911	76	54
176.911	177.164	53	60
176.911	177.164	60	60
176.911	177.164	63	60
176.911	177.037	77	73
177.132	177.164	77	71
177.164	177.285	46	64
177.164	177.285	89	83
177.376	177.407	89	68
177.407	177.65	53	62
177.407	177.65	58	62
177.407	177.65	61	62
177.407	177.529	85	80
177.62	177.65	85	63
177.65	177.894	53	56
177.65	177.894	58	56
177.65	177.894	61	56
177.65	177.772	82	76
177.863	177.894	82	57
177.894	178.016	51	60
177.894	178.016	78	71
178.108	178.138	78	52
178.138	178.384	58	55
178.138	178.384	60	55
178.138	178.384	66	55
178.138	178.261	75	66
178.353	178.384	75	44
178.384	178.632	58	57
178.384	178.632	60	57
178.384	178.632	66	57
178.384	178.508	72	57
178.601	178.632	78	41
178.632	178.753	53	56
178.632	178.753	77	55
178.843	178.874	77	42
178.874	179.116	58	52
178.874	179.116	61	52
178.874	179.116	65	52
178.874	178.995	76	53
179.085	179.116	76	42
179.116	179.358	58	52
179.116	179.358	61	52
179.116	179.358	65	52
179.116	179.237	75	55
179.327	179.358	75	43
179.358	179.479	53	53
179.358	179.479	74	56
179.569	179.599	74	44
179.599	179.841	57	49
179.599	179.841	63	49
179.599	179.841	65	49
179.599	179.72	73	58
179.811	179.841	73	46
179.841	180.083	57	53
179.841	180.083	63	53
179.841	180.083	65	53
179.841	179.962	72	60
180.053	180.083	72	46
180.083	180.33	58	58
180.083	180.33	61	58
180.083	180.33	65	58
180.083	180.206	71	62
180.299	180.33	71	49
180.33	180.454	70	64
180.548	180.579	70	48
180.579	180.704	69	66
180.799	180.83	69	47
180.83	180.957	68	67
181.053	181.085	68	51
181.085	181.213	67	69
181.309	181.342	67	55
181.342	181.483	66	71
181.624	182.48	37	54
181.624	182.194	65	72
181.624	182.194	68	72
181.909	182.194	49	49
181.909	182.194	56	49
181.909	182.194	59	49
182.194	182.765	49	49
182.194	182.765	56	49
182.194	182.765	59	49
182.194	182.551	65	69
182.194	182.48	68	69
182.48	183.031	37	54
182.48	182.551	68	66
182.515	183.031	70	66
182.551	183.031	65	72
182.551	183.031	68	72
182.765	183.043	49	48
182.765	183.043	56	48
182.765	183.043	59	48
182.904	183.043	63	68
182.904	183.043	66	68
183.043	183.321	49	50
183.043	183.321	56	50
183.043	183.321	59	50
183.043	183.321	65	72
183.043	183.321	68	72
183.321	184.151	42	54
183.321	184.415	66	76
183.321	183.872	70	76
183.594	183.872	49	51
183.594	183.872	54	51
183.594	183.872	58	51
183.872	184.415	49	54
183.872	184.415	54	54
183.872	184.415	58	54
183.872	184.151	70	81
183.872	184.415	73	81
184.151	184.415	42	63
184.151	184.993	70	87
184.151	184.993	78	87
184.432	184.712	50	54
184.432	184.712	58	54
184.712	184.993	51	54
184.712	184.993	58	54
184.993	185.776	44	45
184.993	185.776	68	61
184.993	185.776	77	61
185.27	185.541	51	36
185.27	185.541	56	36
185.27	185.541	60	36
185.405	185.541	75	54
185.541	185.812	51	37
185.541	185.812	56	37
185.541	185.812	60	37
185.541	185.812	66	56
185.541	185.812	75	56
185.812	186.559	44	45
185.812	186.559	68	60
185.812	186.559	77	60
186.09	186.363	51	37
186.09	186.363	56	37
186.09	186.363	60	37
186.226	186.363	75	54
186.363	186.636	51	38
186.363	186.636	56	38
186.363	186.636	60	38
186.363	186.636	66	56
186.363	186.636	75	56
186.636	187.412	44	49
186.636	187.412	68	60
186.636	187.412	77	60
186.912	187.193	51	39
186.912	187.193	56	39
186.912	187.193	60	39
187.053	187.193	75	55
187.193	187.474	51	40
187.193	187.474	56	40
187.193	187.474	60	40
187.193	187.474	66	57
187.193	187.474	75	57
187.474	188.316	49	52
187.474	187.614	64	68
187.474	187.614	72	68
187.754	188.035	56	42
187.754	188.035	61	42
187.895	187.965	73	57
188.035	188.316	56	45
188.035	188.316	61	45
188.035	188.316	65	62
188.035	188.316	73	62
188.316	189.14	49	60
188.316	188.73	77	86
188.316	188.73	80	86
188.593	188.867	61	53
188.593	188.867	68	53
188.593	188.867	71	53
188.73	188.867	77	77
188.73	188.867	80	77
188.867	189.419	61	56
188.867	189.419	68	56
188.867	189.419	71	56
188.867	189.21	77	80
188.867	189.14	80	80
189.14	189.646	49	60
189.14	189.21	80	77
189.175	189.646	82	78
189.21	189.646	77	86
189.21	189.646	80	86
189.419	189.689	61	53
189.419	189.689	68	53
189.419	189.689	71	53
189.554	189.689	75	77
189.554	189.689	78	77
189.689	189.96	61	54
189.689	189.96	68	54
189.689	189.96	71	54
189.689	189.96	77	80
189.689	189.96	80	80
189.96	190.771	54	60
189.96	191.028	78	88
189.96	190.496	82	88
190.227	190.496	61	56
190.227	190.496	66	56
190.227	190.496	70	56
190.496	191.028	61	60
190.496	191.028	66	60
190.496	191.028	70	60
190.496	190.771	82	92
190.496	191.028	85	92
190.771	191.028	54	67
190.771	192.312	82	95
190.771	192.312	90	95
191.036	191.311	62	61
191.036	191.311	70	61
191.311	191.848	63	62
191.311	192.312	70	62
191.583	192.312	56	45
191.583	192.312	80	59
191.583	192.312	89	59
191.848	192.109	63	36
191.848	192.109	68	36
191.848	192.109	72	36
191.979	192.109	87	53
192.109	192.635	63	38
192.109	192.635	68	38
192.109	192.635	72	38
192.109	192.895	78	56
192.109	192.765	87	56
192.369	193.097	56	44
192.369	193.097	80	59
192.369	193.097	89	59
192.635	192.895	63	36
192.635	192.895	68	36
192.635	192.895	72	36
192.765	192.895	87	52
192.895	193.155	63	36
192.895	193.155	68	36
192.895	193.155	72	36
192.895	193.155	78	55
192.895	193.155	87	55
193.155	193.935	56	46
193.155	193.935	80	59
193.155	193.935	89	59
193.422	193.704	63	38
193.422	193.704	68	38
193.422	193.704	72	38
193.563	193.704	87	52
193.704	194.0	63	38
193.704	194.0	68	38
193.704	194.0	72	38
193.704	194.0	78	55
193.704	194.0	87	55
194.0	194.296	61	45
194.0	194.296	68	45
194.0	194.296	73	45
194.0	194.296	77	59
194.0	194.296	85	59
194.592	194.833	73	51
194.833	195.073	73	51
195.073	196.147	46	32
195.073	195.254	73	54
195.254	195.435	75	55
195.435	195.796	54	36
195.435	195.796	61	36
195.435	195.616	73	54
195.616	195.796	72	48
195.796	196.147	54	36
195.796	196.147	61	36
195.796	195.973	73	49
195.973	196.147	74	51
196.147	196.485	47	38
196.147	196.811	77	53
196.485	196.811	54	35
196.485	196.811	56	35
196.485	196.811	63	35
196.811	197.135	54	35
196.811	197.135	56	35
196.811	197.135	63	35
196.811	197.135	75	50
197.135	198.147	46	30
197.135	197.303	68	50
197.303	197.472	70	50
197.472	197.81	53	24
197.472	197.81	59	24
197.472	197.641	68	50
197.641	197.81	67	50
197.81	198.147	53	30
197.81	198.147	59	30
197.81	197.978	68	50
197.978	198.147	69	50
198.147	198.491	42	30
198.147	198.491	70	61
198.491	198.828	49	29
198.491	198.828	58	29
198.491	198.575	66	50
198.66	198.828	70	51
198.828	199.166	49	34
198.828	199.166	58	34
198.828	198.997	71	54
198.997	199.166	72	56
199.166	200.199	46	37
199.166	199.211	73	50
199.211	199.256	75	50
199.256	199.347	73	50
199.347	199.516	72	55
199.516	199.856	54	29
199.516	199.856	61	29
199.516	199.685	73	57
199.685	199.856	82	58
199.856	200.199	54	35
199.856	200.199	61	35
199.856	200.027	80	60
200.027	200.199	78	62
200.199	200.528	47	29
200.199	200.856	77	64
200.528	200.856	54	29
200.528	200.856	56	29
200.528	200.856	63	29
200.856	201.207	54	36
200.856	201.207	56	36
200.856	201.207	63	36
200.856	201.207	75	56
201.207	202.303	49	36
201.207	201.332	68	52
201.332	201.456	70	50
201.456	201.581	68	50
201.581	201.946	53	19
201.581	201.946	59	19
201.581	201.767	67	52
201.767	201.946	68	50
201.946	202.303	53	26
201.946	202.303	59	26
201.946	202.124	71	56
202.124	202.303	70	50
202.303	202.663	42	27
202.303	202.394	66	50
202.486	202.663	60	42
202.663	203.014	49	32
202.663	203.014	58	32
202.663	202.839	61	43
202.839	203.014	65	45
203.014	203.363	49	34
203.014	203.363	58	34
203.014	203.189	66	47
203.189	203.363	70	48
203.363	204.418	46	28
203.363	203.536	73	50
203.536	203.71	75	51
203.71	204.062	54	28
203.71	204.062	61	28
203.71	203.885	73	53
203.885	204.062	72	55
204.062	204.418	54	37
204.062	204.418	61	37
204.062	204.239	73	56
204.239	204.373	74	58
204.373	204.418	74	54
204.418	204.778	47	33
204.418	205.127	77	67
204.778	205.127	55	30
204.778	205.127	63	30
205.127	205.476	56	33
205.127	205.476	63	33
205.127	205.476	75	59
205.476	206.531	49	25
205.476	205.651	68	50
205.651	205.825	70	50
205.825	206.175	53	20
205.825	206.175	59	20
205.825	205.869	68	41
205.869	205.913	70	41
205.913	206.0	68	49
206.0	206.175	67	50
206.175	206.531	53	29
206.175	206.531	59	29
206.175	206.352	68	52
206.352	206.531	69	55
206.531	206.894	42	34
206.531	206.894	70	64
206.894	207.257	49	28
206.894	207.257	58	28
206.894	206.985	66	54
207.075	207.257	70	53
207.257	207.619	49	33
207.257	207.619	58	33
207.257	207.438	71	55
207.438	207.619	72	57
207.619	208.844	46	38
207.619	207.669	73	50
207.669	207.719	75	50
207.719	207.818	73	59
207.818	208.016	72	57
208.016	208.458	54	28
208.016	208.458	61	28
208.016	208.181	73	58
208.181	208.32	83	67
208.32	208.458	82	65
208.458	208.844	54	28
208.458	208.844	61	28
208.458	208.587	82	63
208.587	208.716	80	61
208.716	208.844	78	59
208.844	209.206	47	35
208.844	209.567	77	57
209.206	209.567	54	30
209.206	209.567	56	30
209.206	209.567	63	30
209.567	209.929	54	28
209.567	209.929	56	28
209.567	209.929	63	28
209.567	209.929	75	55
209.929	211.077	49	26
209.929	210.048	68	46
210.048	210.167	70	46
210.167	210.285	68	46
210.285	210.654	53	26
210.285	210.654	59	26
210.285	210.466	67	46
210.466	210.654	68	47
210.654	211.077	53	25
210.654	211.077	59	25
210.654	210.864	71	49
210.864	211.077	70	45
211.077	211.503	42	30
211.077	211.29	66	39
211.503	211.929	49	27
211.503	211.929	58	27
211.929	212.0	70	39
212.071	212.141	70	39
212.212	212.495	34	35
212.212	212.495	46	35
212.212	212.354	70	39
212.778	213.061	56	37
212.778	213.061	58	37
212.778	213.061	65	37
212.778	212.849	70	39
212.92	212.99	70	39
213.061	213.344	55	32
213.061	213.344	58	32
213.061	213.344	64	32
213.061	213.203	70	39
213.627	213.91	54	36
213.627	213.91	58	36
213.627	213.91	63	36
213.627	213.698	70	39
213.769	213.84	70	39
213.91	214.193	53	32
213.91	214.193	58	32
213.91	214.193	62	32
213.91	214.052	70	39
214.193	214.335	34	82
214.193	214.335	46	82
214.193	214.335	70	94
214.193	214.335	82	94
214.335	214.476	34	78
214.335	214.476	46	78
214.335	214.476	70	91
214.335	214.476	82	91
214.476	214.759	34	82
214.476	214.759	46	82
214.476	214.759	70	95
214.476	214.759	82	95
214.759	214.901	34	82
214.759	214.901	46	82
214.759	214.901	70	95
214.759	214.901	82	95
214.901	215.042	34	78
214.901	215.042	46	78
214.901	215.042	70	91
214.901	215.042	82	91
215.042	215.325	34	82
215.042	215.325	46	82
215.042	215.325	70	95
215.042	215.325	82	95
215.325	215.467	34	82
215.325	215.467	46	82
215.325	215.467	70	95
215.325	215.467	82	95
215.467	215.608	34	78
215.467	215.608	46	78
215.467	215.608	70	91
215.467	215.608	82	91
215.608	215.75	34	82
215.608	215.75	46	82
215.608	215.75	70	95
215.608	215.75	82	95
216.174	216.464	46	39
216.174	216.464	56	39
216.174	216.247	58	39
216.174	216.247	65	39
216.174	216.247	70	39
216.319	216.391	58	39
216.319	216.391	70	39
216.464	216.608	46	36
216.464	216.608	55	36
216.464	216.608	58	39
216.464	216.608	64	39
216.464	216.608	70	39
217.042	217.363	46	39
217.042	217.363	54	39
217.042	217.12	58	39
217.042	217.12	63	39
217.042	217.12	70	39
217.199	217.281	58	39
217.199	217.281	70	39
217.363	217.515	46	36
217.363	217.515	53	36
217.363	217.515	58	39
217.363	217.515	62	39
217.363	217.515	70	39
217.668	217.736	58	43
217.668	217.736	70	43
217.805	217.874	58	47
217.805	217.874	70	47
217.943	218.218	58	52
217.943	218.218	70	52
218.218	218.288	58	55
218.218	218.288	70	55
218.359	218.429	58	57
218.359	218.429	70	57
218.499	218.78	58	66
218.499	218.78	70	66
218.78	218.858	58	72
218.78	218.858	70	72
218.936	219.014	58	67
218.936	219.014	70	67
219.09	219.626	34	95
219.09	219.626	46	95
219.09	219.368	58	97
219.09	219.626	70	97
219.368	219.626	58	54
219.368	219.626	65	54
219.368	219.626	68	54
219.368	219.626	74	56
219.499	219.637	75	51
219.626	220.159	58	62
219.626	220.417	65	62
219.626	220.417	68	62
219.626	220.417	74	64
219.626	220.289	77	64
219.893	220.417	39	95
219.893	220.417	51	95
219.893	220.417	70	96
220.159	220.417	58	57
220.159	220.417	63	57
220.159	220.417	67	57
220.159	220.417	75	59
220.289	220.428	77	55
220.417	220.678	58	61
220.417	221.187	63	61
220.417	221.187	67	61
220.417	221.187	75	67
220.417	221.063	79	67
220.678	221.187	46	96
220.678	220.936	58	96
220.678	221.187	70	97
220.936	221.187	58	60
220.936	221.187	65	60
220.936	221.187	68	60
220.936	221.187	77	67
221.063	221.198	79	65
221.187	221.448	58	67
221.187	221.448	65	67
221.187	221.448	68	67
221.187	221.448	77	75
221.187	221.448	80	75
221.448	221.967	51	97
221.448	221.954	73	82
221.448	221.954	79	82
221.448	221.954	82	82
221.701	221.967	58	71
221.701	221.967	61	71
221.701	221.967	67	71
221.954	222.089	52	92
221.954	222.089	73	69
221.954	222.089	79	69
221.954	222.089	82	69
222.089	222.224	73	69
222.089	222.224	79	69
222.089	222.224	82	69
222.224	222.356	53	60
222.224	222.739	73	77
222.224	222.739	79	77
222.224	222.498	82	77
222.488	222.615	56	47
222.488	222.615	65	47
222.488	222.625	84	60
222.615	222.75	82	54
222.739	222.872	44	53
222.739	222.872	72	58
222.739	222.872	80	58
223.004	223.527	46	55
223.004	223.527	71	76
223.004	223.388	80	76
223.263	223.512	55	44
223.263	223.512	63	44
223.263	223.527	82	57
223.388	223.527	80	53
223.512	223.775	55	51
223.512	223.775	63	51
223.512	223.644	70	56
223.512	223.644	79	56
223.775	224.312	46	54
223.775	224.312	70	71
223.775	224.157	79	71
224.031	224.312	53	41
224.031	224.281	62	41
224.031	224.312	80	55
224.157	224.312	79	51
224.281	224.813	58	49
224.281	225.07	62	49
224.281	224.416	68	54
224.281	224.416	77	54
224.552	225.871	51	51
224.552	225.07	68	64
224.552	224.941	77	64
224.813	225.07	58	38
224.813	225.07	63	38
224.813	225.07	79	48
224.941	225.082	77	45
225.07	225.342	58	47
225.07	225.871	63	47
225.07	225.206	67	48
225.07	225.206	75	48
225.342	225.871	46	95
225.342	225.615	58	95
225.342	225.871	70	96
225.342	225.871	82	96
225.615	225.871	58	54
225.615	225.871	65	54
225.615	225.871	68	54
225.615	225.871	74	57
225.744	225.882	75	52
225.871	226.4	58	58
225.871	226.651	65	58
225.871	226.651	68	58
225.871	226.651	74	63
225.871	226.527	77	63
226.137	226.651	39	94
226.137	226.651	51	94
226.137	226.651	70	95
226.137	226.651	82	95
226.4	226.651	58	64
226.4	226.651	63	64
226.4	226.651	67	64
226.4	226.651	75	60
226.527	226.662	77	57
226.651	226.905	58	69
226.651	227.408	63	69
226.651	227.408	67	69
226.651	227.408	75	68
226.651	227.285	79	68
226.905	227.408	46	95
226.905	227.16	58	95
226.905	227.408	70	93
226.905	227.408	82	93
227.16	227.408	58	66
227.16	227.408	65	66
227.16	227.408	68	66
227.16	227.408	77	72
227.285	227.419	79	68
227.408	227.672	58	70
227.408	227.672	65	70
227.408	227.672	68	70
227.408	227.672	77	80
227.408	227.672	80	80
227.672	227.799	51	78
227.672	228.052	73	101
227.672	228.052	79	101
227.672	228.052	82	101
227.925	228.052	58	48
227.925	228.052	61	48
227.925	228.052	67	48
228.052	228.179	79	76
228.052	228.179	82	76
228.179	228.449	52	49
228.179	228.449	73	68
228.314	228.449	79	74
228.314	228.449	82	74
228.449	228.578	53	43
228.449	228.959	73	64
228.578	228.719	82	72
228.708	228.835	56	49
228.708	228.835	65	49
228.708	228.845	84	64
228.835	228.97	82	57
228.959	229.09	44	37
228.959	229.09	72	54
228.959	229.09	80	54
229.22	229.739	46	43
229.22	229.739	71	65
229.35	229.606	80	69
229.479	229.731	55	31
229.479	229.731	63	31
229.479	229.739	82	65
229.606	229.742	80	55
229.731	230.552	55	41
229.731	230.552	63	41
229.731	229.863	70	51
229.731	229.863	79	51
229.996	230.552	46	33
229.996	230.552	70	63
230.133	230.411	79	46
230.271	230.552	53	40
230.271	230.552	62	40
230.271	230.552	80	58
230.411	230.564	79	45
230.552	231.119	58	27
230.552	230.84	62	27
230.552	230.84	68	50
230.552	230.84	77	50
230.84	231.119	51	44
230.84	231.119	63	44
230.84	230.979	67	59
230.84	230.979	75	59
231.119	231.185	75	53
231.252	231.318	75	64
231.385	231.65	51	52
231.385	231.65	55	52
231.385	231.65	61	52
231.385	231.451	75	67
231.517	231.584	75	69
231.65	232.045	44	25
231.65	231.716	75	78
231.782	231.848	75	64
231.913	232.177	51	33
231.913	232.177	56	33
231.913	232.177	60	33
231.913	231.979	75	78
232.045	232.111	75	74
232.177	232.447	51	41
232.177	232.447	56	41
232.177	232.447	60	41
232.177	232.243	75	69
232.308	232.377	75	69
232.447	232.817	44	33
232.447	232.58	77	65
232.57	232.704	75	58
232.694	232.941	51	33
232.694	232.941	56	33
232.694	232.941	60	33
232.694	232.828	72	56
232.817	232.951	68	48
232.941	233.188	51	37
232.941	233.188	56	37
232.941	233.188	60	37
232.941	233.065	63	52
233.065	233.188	64	44
233.188	233.56	44	37
233.188	233.25	65	58
233.312	233.373	65	51
233.435	233.684	50	26
233.435	233.684	56	26
233.435	233.684	59	26
233.435	233.497	65	55
233.56	233.622	65	46
233.684	233.934	50	32
233.684	233.934	56	32
233.684	233.934	59	32
233.684	233.746	65	54
233.809	233.872	65	64
233.934	234.31	44	38
233.934	234.07	63	61
234.06	234.196	68	53
234.185	234.435	51	29
234.185	234.435	56	29
234.185	234.435	60	29
234.185	234.32	72	46
234.31	234.445	75	64
234.435	234.683	51	48
234.435	234.683	56	48
234.435	234.683	60	48
234.435	234.569	80	59
234.559	234.683	76	52
234.683	235.063	50	55
234.683	234.746	77	52
234.809	234.873	77	48
234.936	235.189	56	24
234.936	235.189	59	24
234.936	235.189	65	24
234.936	234.999	77	64
235.063	235.126	77	60
235.189	235.443	56	36
235.189	235.443	59	36
235.189	235.443	65	36
235.189	235.253	77	53
235.316	235.379	77	73
235.443	235.839	51	44
235.443	235.542	77	77
235.531	235.63	79	55
235.619	235.718	77	55
235.707	235.971	60	32
235.707	235.971	63	32
235.707	235.971	68	32
235.707	235.85	75	65
235.839	235.982	80	57
235.971	236.238	60	42
235.971	236.238	63	42
235.971	236.238	68	42
235.971	236.104	84	51
236.238	236.757	51	20
236.238	236.757	89	66
236.496	236.751	61	20
236.496	236.751	63	20
236.496	236.751	67	20
236.496	236.757	87	50
236.624	236.762	85	45
236.751	237.529	61	30
236.751	237.273	63	30
236.751	237.529	67	30
236.751	236.883	79	52
237.015	237.529	56	34
237.015	237.529	82	58
237.273	237.529	60	23
237.273	237.529	63	23
237.273	237.529	68	23
237.273	237.529	80	43
237.401	237.54	75	44
237.529	237.791	60	38
237.529	237.791	63	38
237.529	237.791	68	38
237.529	237.66	72	38
237.791	238.186	44	34
237.791	237.857	75	48
237.923	237.989	75	44
238.054	238.318	51	31
238.054	238.318	56	31
238.054	238.318	60	31
238.054	238.12	75	65
238.186	238.252	75	69
238.318	238.588	51	49
238.318	238.588	56	49
238.318	238.588	60	49
238.318	238.384	75	63
238.449	238.519	75	71
238.588	238.958	44	47
238.588	238.722	77	61
238.711	238.845	75	56
238.835	239.082	51	35
238.835	239.082	56	35
238.835	239.082	60	35
238.835	238.969	72	50
238.958	239.092	68	50
239.082	239.329	51	52
239.082	239.329	56	52
239.082	239.329	60	52
239.082	239.206	63	48
239.206	239.329	64	53
239.329	239.699	44	40
239.329	239.391	65	57
239.453	239.514	65	51
239.576	239.823	50	35
239.576	239.823	56	35
239.576	239.823	59	35
239.576	239.638	65	55
239.699	239.761	65	55
239.823	240.069	50	31
239.823	240.069	56	31
239.823	240.069	59	31
239.823	239.884	65	61
239.946	240.008	65	65
240.069	240.439	44	38
240.069	240.203	63	58
240.193	240.326	68	52
240.316	240.562	51	30
240.316	240.562	56	30
240.316	240.562	60	30
240.316	240.449	72	49
240.439	240.573	75	45
240.562	240.809	51	36
240.562	240.809	56	36
240.562	240.809	60	36
240.562	240.696	80	52
240.686	240.809	76	48
240.809	241.189	50	38
240.809	240.873	77	58
240.936	240.999	77	49
241.063	241.316	56	33
241.063	241.316	59	33
241.063	241.316	65	33
241.063	241.126	77	61
241.189	241.253	77	57
241.316	241.569	56	36
241.316	241.569	59	36
241.316	241.569	65	36
241.316	241.379	77	65
241.443	241.506	77	65
241.569	241.965	51	44
241.569	241.668	77	75
241.657	241.757	79	55
241.746	241.845	77	55
241.834	242.098	60	29
241.834	242.098	63	29
241.834	242.098	68	29
241.834	241.976	75	66
241.965	242.109	80	64
242.098	242.364	60	44
242.098	242.364	63	44
242.098	242.364	68	44
242.098	242.231	84	60
242.364	242.75	51	27
242.364	242.633	89	67
242.622	242.878	61	32
242.622	242.878	63	32
242.622	242.878	67	32
242.622	242.761	87	52
242.75	242.889	85	50
242.878	243.141	61	37
242.878	243.141	63	37
242.878	243.141	67	37
242.878	243.01	79	52
243.141	243.942	56	44
243.141	243.668	80	65
243.405	243.668	60	35
243.405	243.668	68	35
243.668	243.942	65	47
243.668	243.942	68	47
243.668	243.714	74	55
243.714	243.759	72	49
243.759	243.805	74	65
243.805	243.851	72	53
243.851	243.896	71	67
243.896	243.942	72	56
243.942	244.524	46	86
243.942	244.524	70	87
244.214	244.477	58	55
244.214	244.477	65	55
244.214	244.477	68	55
244.214	244.477	74	62
244.346	244.524	75	62
244.477	245.009	58	65
244.477	245.268	65	65
244.477	245.268	68	65
244.477	245.268	74	67
244.477	245.138	77	67
244.745	245.268	51	74
244.745	245.268	70	85
245.009	245.268	58	57
245.009	245.268	63	57
245.009	245.268	67	57
245.009	245.268	75	73
245.138	245.279	77	69
245.268	245.783	58	62
245.268	246.034	63	62
245.268	246.034	67	62
245.268	246.034	75	76
245.268	245.908	79	76
245.527	246.034	50	65
245.527	246.034	70	87
245.783	246.034	58	56
245.783	246.034	65	56
245.783	246.034	68	56
245.783	246.034	77	73
245.908	246.044	79	68
246.034	246.294	58	69
246.034	246.294	65	69
246.034	246.294	68	69
246.034	246.294	77	83
246.034	246.294	80	83
246.294	246.801	51	61
246.294	246.801	73	77
246.294	246.801	79	77
246.294	246.801	82	77
246.547	246.801	58	61
246.547	246.801	61	61
246.547	246.801	67	61
246.801	246.936	52	38
246.801	246.936	73	75
246.801	246.936	79	75
246.801	246.936	82	75
246.936	247.07	73	69
246.936	247.07	79	69
246.936	247.07	82	69
247.07	247.613	53	38
247.07	247.613	73	70
247.07	247.613	79	70
247.07	247.458	82	70
247.331	247.613	56	41
247.331	247.613	65	41
247.331	247.613	84	59
247.458	247.613	82	56
247.582	247.714	44	36
247.582	247.714	72	53
247.582	247.714	80	53
247.846	248.369	46	31
247.846	248.369	71	69
247.846	248.229	80	69
248.103	248.353	55	27
248.103	248.353	63	27
248.103	248.369	82	47
248.229	248.369	80	45
248.353	248.617	55	41
248.353	248.617	63	41
248.353	248.485	70	52
248.353	248.485	79	52
248.617	249.146	46	39
248.617	249.146	70	66
248.617	248.998	79	66
248.873	249.146	53	26
248.873	249.122	62	26
248.873	249.146	80	53
248.998	249.146	79	47
249.122	249.654	58	34
249.122	249.912	62	34
249.122	249.258	68	67
249.122	249.258	77	67
249.394	250.709	51	23
249.394	249.912	68	64
249.394	249.783	77	64
249.654	249.912	58	33
249.654	249.912	63	33
249.654	249.912	79	52
249.783	249.923	77	48
249.912	250.453	58	53
249.912	250.709	63	53
249.912	250.046	67	53
249.912	250.046	75	53
250.18	250.709	34	91
250.18	250.709	46	91
250.18	250.709	70	97
250.18	250.709	82	97
250.453	250.709	58	54
250.453	250.709	65	54
250.453	250.709	68	54
250.453	250.709	74	57
250.582	250.719	75	53
250.709	250.974	58	58
250.709	250.974	65	58
250.709	250.974	68	58
250.709	250.974	74	63
250.709	250.974	77	63
250.974	251.51	39	92
250.974	251.51	51	92
250.974	251.51	70	97
250.974	251.51	82	97
251.237	251.488	58	58
251.237	251.488	63	58
251.237	251.488	67	58
251.237	251.488	75	60
251.364	251.51	77	57
251.488	251.742	58	64
251.488	251.742	63	64
251.488	251.742	67	64
251.488	251.742	75	68
251.488	251.742	79	68
251.742	252.311	46	91
251.742	252.012	58	91
251.742	252.311	70	96
251.742	252.311	82	96
252.012	252.301	58	66
252.012	252.301	65	66
252.012	252.301	68	66
252.012	252.301	77	72
252.154	252.315	79	70
252.301	252.626	58	72
252.301	252.626	65	72
252.301	252.626	68	72
252.301	252.626	77	80
252.301	252.626	80	80
252.626	254.448	51	90
252.626	254.448	58	90
252.626	254.448	61	90
252.626	254.448	67	90
252.626	254.448	73	99
252.626	254.448	79	99
252.626	254.448	82	99
254.709	255.606	52	40
254.709	254.863	73	49
254.709	254.863	79	49
254.709	254.863	82	49
254.863	255.018	73	49
254.863	255.018	79	49
254.863	255.018	82	49
255.018	255.606	53	48
255.018	255.606	73	55
255.018	255.606	79	55
255.018	255.464	82	55
255.322	255.606	56	44
255.322	255.606	65	44
255.322	255.606	84	53
255.464	255.619	82	52
255.606	255.758	44	44
255.606	255.758	72	48
255.606	255.758	80	48
255.91	256.495	46	39
255.91	256.495	71	54
255.91	256.351	80	54
256.207	256.495	55	36
256.207	256.495	63	36
256.207	256.495	82	51
256.351	256.507	80	48
256.495	258.004	55	36
256.495	258.004	63	36
256.495	256.646	70	45
256.495	256.646	79	45
256.798	258.004	46	35
256.798	258.004	70	44
256.798	257.289	79	44
257.116	257.461	53	32
257.116	257.461	58	32
257.116	257.461	62	32
257.116	258.004	80	41
257.289	258.004	79	38
257.461	258.004	53	32
257.461	258.004	58	30
257.461	258.004	62	30
257.461	258.004	68	35
257.461	258.004	77	35
258.547	259.256	39	33
258.819	259.09	46	29
258.819	259.09	55	29
259.09	259.633	46	31
259.09	259.633	55	31
259.362	260.071	39	32
259.633	259.905	46	29
259.633	259.905	55	29
259.905	260.448	46	31
259.905	260.448	55	31
260.177	260.825	39	34
260.448	260.72	46	29
260.448	260.72	55	29
260.72	261.263	46	32
260.72	261.263	55	32
260.991	261.625	39	33
261.263	261.534	46	30
261.263	261.534	55	30
261.534	262.077	46	32
261.534	262.077	55	32
261.806	262.425	39	33
261.806	261.942	63	40
261.942	262.077	63	38
262.077	262.349	46	29
262.077	262.349	55	29
262.077	262.213	63	40
262.213	262.349	63	37
262.349	262.621	46	31
262.349	262.621	55	31
262.349	262.621	63	49
262.621	263.29	39	33
262.621	262.873	55	39
262.747	263.29	58	39
262.873	263.126	46	30
262.873	263.126	55	30
262.873	263.29	63	46
263.0	263.29	67	45
263.126	263.378	46	30
263.126	263.378	55	30
263.126	263.347	72	55
263.347	263.378	72	44
263.378	263.623	39	36
263.378	263.5	71	51
263.592	263.623	71	39
263.623	263.867	51	33
263.623	263.867	55	33
263.623	263.867	61	33
263.623	263.745	70	48
263.837	263.867	70	39
263.867	264.113	51	30
263.867	264.113	55	30
263.867	264.113	61	30
263.867	263.99	69	46
264.082	264.113	69	35
264.113	264.36	51	33
264.113	264.36	55	33
264.113	264.36	61	33
264.113	264.236	68	44
264.329	264.36	68	33
264.36	264.607	51	29
264.36	264.607	55	29
264.36	264.607	61	29
264.36	264.483	67	41
264.576	264.607	67	32
264.607	264.855	51	29
264.607	264.855	55	29
264.607	264.855	61	29
264.607	264.731	65	39
264.855	265.364	39	36
264.855	264.98	63	44
264.98	265.104	63	41
265.104	265.353	51	31
265.104	265.353	56	31
265.104	265.353	60	31
265.104	265.229	63	44
265.229	265.353	63	41
265.353	265.602	51	31
265.353	265.602	56	31
265.353	265.602	60	31
265.353	265.602	63	53
265.602	266.1	39	36
265.602	265.849	60	42
265.726	266.1	63	42
265.849	266.096	51	33
265.849	266.096	56	33
265.849	266.096	60	33
265.849	266.1	68	50
265.973	266.1	72	49
266.096	266.343	51	33
266.096	266.343	56	33
266.096	266.343	60	33
266.096	266.312	77	59
266.312	266.343	79	48
266.343	266.584	39	39
266.343	266.463	77	56
266.554	266.584	77	42
266.584	266.825	51	36
266.584	266.825	56	36
266.584	266.825	60	36
266.584	266.704	76	52
266.795	266.825	76	42
266.825	267.067	51	33
266.825	267.067	56	33
266.825	267.067	60	33
266.825	266.946	75	50
267.037	267.067	75	38
267.067	267.31	51	36
267.067	267.31	56	36
267.067	267.31	60	36
267.067	267.188	74	48
267.279	267.31	74	36
267.31	267.553	51	31
267.31	267.553	56	31
267.31	267.553	60	31
267.31	267.432	73	45
267.523	267.553	73	35
267.553	267.798	51	31
267.553	267.798	56	31
267.553	267.798	60	31
267.553	267.675	72	42
267.798	268.442	39	39
267.798	268.045	51	39
267.798	267.921	71	48
267.921	268.045	71	45
268.045	268.292	51	32
268.045	268.292	56	32
268.045	268.292	62	32
268.045	268.168	71	48
268.168	268.292	71	37
268.292	268.538	51	34
268.292	268.538	56	34
268.292	268.538	62	34
268.292	268.415	71	48
268.415	268.477	71	42
268.538	269.047	39	39
268.538	268.778	51	39
268.538	269.047	68	46
268.658	269.047	71	45
268.778	269.018	51	35
268.778	269.018	56	35
268.778	269.018	62	35
268.778	269.047	74	55
268.898	269.047	77	53
269.018	269.258	51	36
269.018	269.258	56	36
269.018	269.258	62	36
269.018	269.228	83	70
269.228	269.258	83	52
269.258	269.495	39	40
269.258	269.495	51	40
269.258	269.376	82	62
269.465	269.495	82	53
269.495	269.732	51	39
269.495	269.732	56	39
269.495	269.732	59	39
269.495	269.732	62	39
269.495	269.613	81	65
269.703	269.732	81	54
269.732	269.972	51	44
269.732	269.972	56	44
269.732	269.972	59	44
269.732	269.972	62	44
269.732	269.852	80	68
269.942	269.972	80	59
269.972	270.212	51	46
269.972	270.212	56	46
269.972	270.212	59	46
269.972	270.212	62	46
269.972	270.092	79	70
270.182	270.212	79	60
270.212	270.454	51	46
270.212	270.454	56	46
270.212	270.454	59	46
270.212	270.454	62	46
270.212	270.333	78	73
270.424	270.454	78	65
270.454	270.713	51	50
270.454	270.713	56	50
270.454	270.713	59	50
270.454	270.713	62	50
270.454	270.515	77	76
270.679	270.713	77	70
270.713	270.953	51	47
270.713	270.953	56	47
270.713	270.953	59	47
270.713	270.953	62	47
270.713	270.833	91	88
270.923	270.953	91	71
270.953	271.193	51	38
270.953	271.193	56	38
270.953	271.193	59	38
270.953	271.193	62	38
270.953	271.073	89	80
271.163	271.193	89	70
271.193	271.433	51	45
271.193	271.433	56	45
271.193	271.433	59	45
271.193	271.433	62	45
271.193	271.313	88	80
271.403	271.433	88	69
271.433	271.666	51	47
271.433	271.666	56	47
271.433	271.666	59	47
271.433	271.666	62	47
271.433	271.55	87	80
271.637	271.666	87	72
271.666	271.897	51	38
271.666	271.897	56	38
271.666	271.897	59	38
271.666	271.897	62	38
271.666	271.782	86	80
271.868	271.897	86	70
271.897	272.124	51	45
271.897	272.124	56	45
271.897	272.124	59	45
271.897	272.124	62	45
271.897	272.011	85	80
272.096	272.124	85	70
272.124	272.35	51	45
272.124	272.35	56	45
272.124	272.35	58	45
272.124	272.35	62	45
272.124	272.237	84	80
272.322	272.35	84	70
272.35	272.579	51	43
272.35	272.579	56	43
272.35	272.579	58	43
272.35	272.579	62	43
272.35	272.464	83	83
272.55	272.579	83	71
272.579	272.81	51	48
272.579	272.81	56	48
272.579	272.81	58	48
272.579	272.81	62	48
272.579	272.694	82	86
272.781	272.81	82	73
272.81	273.043	51	49
272.81	273.043	56	49
272.81	273.043	58	49
272.81	273.043	62	49
272.81	272.926	81	89
273.014	273.043	81	77
273.043	273.279	51	46
273.043	273.279	56	46
273.043	273.279	58	46
273.043	273.279	62	46
273.043	273.161	80	92
273.25	273.279	80	79
273.279	273.536	51	52
273.279	273.536	56	52
273.279	273.536	58	52
273.279	273.536	62	52
273.279	273.408	77	95
273.536	274.157	39	96
273.536	274.157	51	96
273.536	274.157	75	100
273.536	274.157	87	100
273.786	274.027	61	74
273.786	274.027	63	74
273.786	274.027	67	74
273.786	274.027	70	74
273.786	274.027	79	75
273.906	274.157	80	84
274.027	274.28	61	80
274.027	274.28	63	80
274.027	274.28	67	80
274.027	274.28	70	80
274.027	274.28	79	87
274.027	274.28	82	87
274.28	274.844	39	96
274.28	274.844	51	96
274.28	274.844	75	100
274.28	274.844	87	100
274.53	274.772	60	76
274.53	274.772	63	76
274.53	274.772	66	76
274.53	274.772	69	76
274.53	274.772	78	78
274.651	274.844	80	83
274.772	275.024	60	81
274.772	275.024	63	81
274.772	275.024	66	81
274.772	275.024	69	81
274.772	275.024	78	86
274.772	275.024	81	86
275.024	275.654	39	96
275.024	275.654	51	96
275.024	275.654	75	100
275.024	275.654	87	100
275.276	275.531	59	78
275.276	275.531	63	78
275.276	275.531	65	78
275.276	275.531	68	78
275.276	275.531	77	86
275.403	275.654	79	82
275.531	275.794	59	83
275.531	275.794	63	83
275.531	275.794	65	83
275.531	275.794	68	83
275.531	275.794	77	89
275.531	275.794	80	89
275.794	277.147	39	98
275.794	277.147	51	98
275.794	276.339	70	100
275.794	276.339	79	100
275.794	276.339	82	100
276.066	276.339	55	78
276.066	276.339	58	78
276.066	276.339	63	78
276.066	276.339	67	78
276.339	277.147	55	84
276.339	276.896	58	84
276.339	277.147	63	84
276.339	277.147	67	84
276.339	276.486	70	95
276.339	276.486	79	95
276.339	276.486	82	95
276.486	276.633	70	92
276.486	276.633	79	92
276.486	276.633	82	92
276.633	277.147	34	97
276.633	277.147	46	97
276.633	277.417	70	100
276.633	277.025	79	100
276.633	277.417	82	100
276.896	277.154	56	78
276.896	277.154	58	78
276.896	277.154	62	78
276.896	277.154	65	78
276.896	277.147	80	96
277.025	277.154	79	91
277.154	277.417	56	84
277.154	277.417	58	84
277.154	277.417	62	84
277.154	277.417	65	84
277.154	277.286	77	96
277.417	278.01	39	85
277.417	278.01	51	85
277.417	278.196	70	94
277.417	277.805	77	94
277.417	278.196	82	94
277.677	277.932	55	71
277.677	277.932	58	71
277.677	277.932	63	71
277.677	278.01	79	84
277.805	278.01	77	78
277.932	278.196	55	66
277.932	278.196	58	66
277.932	278.196	63	66
277.932	278.064	75	75
278.196	278.835	46	67
278.196	278.476	58	67
278.196	278.608	70	77
278.196	278.835	79	77
278.476	278.739	53	53
278.476	278.739	56	53
278.476	278.739	58	53
278.476	278.739	62	53
278.476	278.835	72	69
278.608	278.835	70	58
278.739	279.009	53	56
278.739	279.009	56	56
278.739	279.009	58	56
278.739	279.009	62	56
278.739	278.874	68	62
278.739	278.874	77	62
279.009	279.576	39	63
279.009	279.291	51	63
279.009	279.426	68	71
279.009	279.576	77	71
279.291	279.56	51	42
279.291	279.56	58	42
279.291	279.56	61	42
279.291	279.576	70	62
279.426	279.576	68	52
279.56	279.839	51	49
279.56	279.839	58	49
279.56	279.839	61	49
279.56	279.7	67	56
279.56	279.7	75	56
279.839	280.496	44	62
279.839	280.109	56	62
279.839	280.638	63	68
279.839	280.638	75	68
280.109	280.369	51	47
280.109	280.369	56	47
280.109	280.369	60	47
280.109	280.369	68	55
280.239	280.496	70	57
280.369	280.907	51	51
280.369	280.638	56	51
280.369	281.234	60	51
280.369	280.504	68	59
280.369	280.504	72	59
280.638	281.234	44	59
280.638	280.907	56	59
280.638	281.43	63	65
280.638	281.43	75	65
280.907	281.165	51	45
280.907	281.165	56	45
280.907	281.165	59	45
280.907	281.165	68	51
281.036	281.234	70	54
281.165	281.43	51	48
281.165	281.43	56	48
281.165	281.43	59	48
281.165	281.298	68	56
281.165	281.298	71	56
281.43	282.022	39	56
281.43	282.251	63	62
281.43	282.251	75	62
281.708	281.974	46	45
281.708	281.974	51	45
281.708	281.974	55	45
281.708	281.974	67	46
281.841	282.022	68	49
281.974	282.251	46	48
281.974	282.251	51	48
281.974	282.251	55	48
281.974	282.112	67	51
281.974	282.112	70	51
282.251	282.91	39	52
282.251	282.807	58	59
282.251	282.807	67	59
282.251	282.807	70	59
282.529	282.807	46	41
282.529	282.807	51	41
282.529	282.807	55	41
282.807	283.098	46	45
282.807	283.098	51	45
282.807	283.098	55	45
282.807	282.953	58	49
282.807	282.953	67	49
282.807	282.953	70	49
282.953	283.098	58	45
282.953	283.098	67	45
282.953	283.098	70	45
283.098	283.728	39	48
283.098	283.934	58	55
283.098	283.516	67	55
283.098	283.934	70	55
283.38	283.653	46	38
283.38	283.653	50	38
283.38	283.653	56	38
283.38	283.728	68	48
283.516	283.728	67	43
283.653	283.934	46	44
283.653	283.934	50	44
283.653	283.934	56	44
283.653	283.793	65	48
283.934	284.681	39	46
283.934	284.811	58	52
283.934	284.37	65	55
283.934	284.811	70	52
284.223	284.517	46	38
284.223	284.517	51	38
284.223	284.517	55	38
284.223	284.681	67	46
284.37	284.681	65	44
284.517	284.811	46	41
284.517	284.811	51	41
284.517	284.811	55	41
284.517	284.681	63	47
284.811	285.544	39	46
284.811	285.544	62	46
284.811	284.943	71	50
284.943	285.074	71	46
285.074	285.334	46	31
285.074	285.334	53	31
285.074	285.334	56	31
285.074	285.204	71	50
285.204	285.334	71	45
285.334	285.84	46	39
285.334	286.152	53	39
285.334	286.152	56	39
285.334	285.464	71	39
285.464	285.544	71	46
285.593	286.152	39	43
285.593	286.152	71	48
285.717	286.152	70	43
285.84	286.087	46	29
285.84	286.087	51	29
285.84	286.087	55	29
285.84	286.152	67	47
285.964	286.152	63	41
286.087	286.334	46	34
286.087	286.334	51	34
286.087	286.334	55	34
286.087	286.211	58	46
286.334	286.964	39	48
286.334	287.101	58	55
286.334	286.718	67	55
286.334	287.101	70	55
286.593	286.843	46	38
286.593	286.843	50	38
286.593	286.843	56	38
286.593	286.964	68	42
286.718	286.964	67	45
286.843	287.101	46	44
286.843	287.101	50	44
286.843	287.101	56	44
286.843	286.972	65	48
287.101	287.739	39	46
287.101	287.859	58	52
287.101	287.481	65	55
287.101	287.859	70	52
287.357	287.605	46	37
287.357	287.605	51	37
287.357	287.605	55	37
287.357	287.739	67	46
287.481	287.739	65	44
287.605	287.859	46	41
287.605	287.859	51	41
287.605	287.859	55	41
287.605	287.739	63	40
287.859	288.516	39	46
287.859	288.516	62	50
287.859	287.98	72	50
287.98	288.102	72	48
288.102	288.345	46	36
288.102	288.345	53	36
288.102	288.345	56	36
288.102	288.223	72	50
288.223	288.345	72	47
288.345	288.588	46	39
288.345	288.588	53	39
288.345	288.588	56	39
288.345	288.466	72	44
288.466	288.527	72	47
288.588	288.826	39	43
288.588	288.707	72	48
288.707	288.826	70	45
288.826	289.064	46	33
288.826	289.064	51	33
288.826	289.064	55	33
288.826	288.945	67	47
288.945	289.064	63	42
289.064	289.302	46	36
289.064	289.302	51	36
289.064	289.302	55	36
289.064	289.183	58	46
289.302	289.902	39	46
289.302	289.902	62	52
289.302	289.424	71	52
289.424	289.546	71	50
289.546	289.79	46	40
289.546	289.79	53	40
289.546	289.79	56	40
289.546	289.668	71	53
289.668	289.79	71	51
289.79	290.034	46	43
289.79	290.034	53	43
289.79	290.034	56	43
289.79	289.902	71	48
289.912	289.973	71	53
290.034	290.273	39	48
290.034	290.153	71	56
290.153	290.273	70	53
290.273	290.512	46	42
290.273	290.512	53	42
290.273	290.512	56	42
290.273	290.392	68	57
290.392	290.512	65	56
290.512	290.751	46	44
290.512	290.751	53	44
290.512	290.751	56	44
290.512	290.631	62	55
290.751	290.983	39	56
290.751	290.867	79	73
290.867	290.983	77	59
290.983	291.215	46	49
290.983	291.215	53	49
290.983	291.215	56	49
290.983	291.099	74	64
291.099	291.215	71	59
291.215	291.45	46	51
291.215	291.45	53	51
291.215	291.45	56	51
291.215	291.333	68	58
291.45	291.683	39	67
291.45	291.566	83	80
291.566	291.683	80	67
291.683	291.918	46	56
291.683	291.918	53	56
291.683	291.918	56	56
291.683	291.8	77	71
291.8	291.918	74	67
291.918	292.155	46	60
291.918	292.155	53	60
291.918	292.155	56	60
291.918	292.036	71	68
292.155	292.498	39	67
292.155	292.498	51	67
292.155	292.341	95	90
292.341	292.498	91	74
292.498	292.756	51	61
292.498	292.756	56	61
292.498	292.756	59	61
292.498	292.756	62	61
292.498	292.639	95	77
292.639	292.756	92	76
292.756	292.873	89	74
292.873	292.989	86	72
292.989	293.22	51	63
292.989	293.22	56	63
292.989	293.22	59	63
292.989	293.22	62	63
292.989	293.105	83	80
293.105	293.22	79	73
293.22	293.45	51	58
293.22	293.45	56	58
293.22	293.45	59	58
293.22	293.45	62	58
293.22	293.335	83	77
293.335	293.45	80	76
293.45	293.565	77	76
293.565	293.679	74	75
293.679	293.905	51	63
293.679	293.905	56	63
293.679	293.905	59	63
293.679	293.905	62	63
293.679	293.792	71	80
293.792	293.905	67	73
293.905	294.13	51	60
293.905	294.13	56	60
293.905	294.13	59	60
293.905	294.13	62	60
293.905	294.017	70	75
294.017	294.13	68	74
294.13	294.243	65	73
294.243	294.356	62	72
294.356	294.469	59	80
294.469	294.581	55	73
294.581	294.694	59	76
294.694	294.809	56	75
294.809	294.924	53	75
294.924	295.042	50	74
295.042	295.161	27	67
295.042	295.161	39	67
295.042	295.161	51	89
295.279	295.384	55	50
295.384	295.488	56	50
295.488	295.592	58	50
295.592	295.695	60	50
295.695	295.798	62	50
295.798	295.9	63	50
295.9	296.001	65	50
296.001	296.102	67	50
296.102	296.202	68	50
296.202	296.302	69	50
296.302	296.405	72	53
296.405	296.509	70	50
296.509	296.714	55	33
296.509	296.714	58	33
296.509	296.714	63	33
296.509	296.612	67	45
296.612	296.714	68	45
296.714	296.918	55	33
296.714	296.918	58	33
296.714	296.918	63	33
296.714	296.918	67	33
296.714	296.816	70	46
296.816	296.918	72	47
296.918	297.12	55	36
296.918	297.12	58	36
296.918	297.12	63	36
296.918	297.12	67	36
296.918	297.019	74	50
297.019	297.12	75	50
297.12	297.32	55	33
297.12	297.32	58	33
297.12	297.32	63	33
297.12	297.32	67	33
297.12	297.22	77	50
297.22	297.32	79	49
297.32	297.519	55	33
297.32	297.519	58	33
297.32	297.519	63	33
297.32	297.519	67	33
297.32	297.42	80	51
297.42	297.519	81	53
297.519	297.716	55	33
297.519	297.716	58	33
297.519	297.716	63	33
297.519	297.716	67	33
297.519	297.618	84	59
297.618	297.716	82	55
297.716	297.912	55	30
297.716	297.912	58	30
297.716	297.912	63	30
297.716	297.912	67	30
297.716	297.814	79	51
297.814	297.912	80	50
297.912	298.106	55	30
297.912	298.106	58	30
297.912	298.106	63	30
297.912	298.106	67	30
297.912	298.009	82	50
298.009	298.106	84	51
298.106	298.299	55	33
298.106	298.299	58	33
298.106	298.299	63	33
298.106	298.299	67	33
298.106	298.202	86	52
298.202	298.299	87	53
298.299	298.492	55	29
298.299	298.492	58	29
298.299	298.492	63	29
298.299	298.492	67	29
298.299	298.395	89	54
298.395	298.492	91	55
298.492	298.685	55	29
298.492	298.685	58	29
298.492	298.685	63	29
298.492	298.685	67	29
298.492	298.588	92	55
298.588	298.685	93	56
298.685	298.878	55	33
298.685	298.878	58	33
298.685	298.878	63	33
298.685	298.878	67	33
298.685	298.781	96	65
298.781	298.878	94	58
298.878	299.071	55	31
298.878	299.071	58	31
298.878	299.071	63	31
298.878	299.071	67	31
298.878	298.974	91	55
298.974	299.071	92	51
299.071	299.264	55	31
299.071	299.264	58	31
299.071	299.264	63	31
299.071	299.264	67	31
299.071	299.167	93	53
299.167	299.264	94	55
299.264	299.457	55	33
299.264	299.457	58	33
299.264	299.457	63	33
299.264	299.457	67	33
299.264	299.36	96	64
299.36	299.457	94	59
299.457	299.649	55	30
299.457	299.649	58	30
299.457	299.649	63	30
299.457	299.649	67	30
299.457	299.553	91	51
299.553	299.649	92	52
299.649	299.842	55	30
299.649	299.842	58	30
299.649	299.842	63	30
299.649	299.842	67	30
299.649	299.746	93	54
299.746	300.311	94	55
299.842	300.405	55	33
299.842	300.95	58	33
299.842	300.405	63	33
299.842	300.95	67	33
299.842	300.405	99	57
300.03	300.587	91	50
300.124	300.678	92	51
300.217	300.769	93	53
300.311	300.86	94	55
300.405	304.646	51	29
300.405	300.95	55	29
300.405	300.95	63	29
300.405	300.95	99	57
300.587	301.131	91	46
300.678	301.221	92	48
300.769	301.311	93	50
300.86	301.4	94	52
300.95	304.646	55	31
300.95	301.49	58	31
300.95	302.024	63	31
300.95	301.49	67	31
300.95	301.49	99	54
301.131	301.669	91	49
301.221	301.758	92	50
301.311	301.847	93	52
301.4	301.936	94	53
301.49	302.555	58	33
301.49	302.024	67	33
301.49	302.555	70	33
301.49	302.024	99	55
301.669	302.201	91	50
301.758	302.29	92	52
301.847	302.378	93	55
301.936	302.467	94	57
302.024	304.646	63	36
302.024	302.555	67	36
302.024	303.112	75	36
302.024	302.555	99	59
302.201	302.738	91	50
302.29	302.83	92	51
302.378	302.923	93	53
302.467	303.017	94	55
302.555	304.646	58	35
302.555	303.112	67	35
302.555	303.694	70	35
302.555	303.112	99	57
302.738	303.303	91	44
302.83	303.399	92	46
302.923	303.497	93	48
303.017	303.595	94	50
303.112	304.646	67	33
303.112	304.646	75	33
303.112	303.694	79	33
303.112	303.694	99	53
303.303	303.909	91	33
303.399	304.022	92	35
303.497	304.137	93	37
303.595	304.256	94	39
303.694	304.646	70	28
303.694	304.396	79	28
303.694	304.646	82	28
303.694	304.396	99	42
303.909	304.396	91	30
304.022	304.646	92	31
304.137	304.646	93	32
304.256	304.646	94	33
304.396	304.646	79	24
304.396	304.646	87	24
304.396	304.646	91	34
304.396	304.646	99	34
305.896	306.457	63	76
305.896	306.457	70	76
305.896	306.457	75	90
305.896	306.457	79	78
305.896	306.457	82	78
305.896	306.457	87	92
305.896	306.457	91	92
306.737	307.053	51	76
306.737	307.053	58	76
306.737	307.053	63	90
306.737	307.053	67	78
306.737	307.053	70	78
306.737	307.053	75	92
306.737	307.053	79	92
307.053	307.369	51	76
307.053	307.369	58	76
307.053	307.369	63	90
307.053	307.369	67	78
307.053	307.369	70	78
307.053	307.369	75	92
307.053	307.369	79	92
307.369	307.795	51	76
307.369	308.866	58	76
307.369	308.866	63	90
307.369	308.866	67	78
307.369	308.866	70	78
307.369	308.866	75	92
307.369	308.866	79	92
307.795	309.402	27	91
307.795	309.402	39	101
307.795	309.402	51	113
