OnsetTime	OffsetTime	MidiPitch	Velocity
2.07894	2.41414	55	43
2.07894	2.41414	59	43
2.07894	2.41414	67	52
2.41414	3.04573	55	45
2.41414	3.04573	59	45
2.41414	2.96678	67	55
2.96678	3.04573	71	53
3.04573	3.36831	55	43
3.04573	3.36831	60	43
3.04573	3.36831	69	53
3.36831	3.99329	55	45
3.36831	3.99329	60	45
3.36831	3.94382	62	55
3.6808	3.99329	64	51
3.99329	4.30581	55	43
3.99329	4.30581	60	43
3.99329	4.14954	66	51
4.14954	4.18861	67	50
4.18861	4.22767	66	50
4.22767	4.26674	64	50
4.26674	4.30581	66	50
4.30581	4.42423	55	42
4.30581	4.42423	59	42
4.30581	4.42423	67	52
4.6216	4.74002	55	41
4.6216	4.74002	59	41
4.6216	4.74002	67	50
4.93739	5.05581	55	41
4.93739	5.05581	59	41
4.93739	5.05581	67	50
5.25318	5.89329	55	41
5.25318	5.89329	59	41
5.25318	5.89329	67	50
5.89329	6.12766	54	41
5.89329	6.20578	62	50
5.89329	6.12766	69	50
6.12766	6.20578	57	41
6.12766	6.20578	72	50
6.20578	6.51188	55	44
6.20578	7.12258	62	46
6.20578	6.51188	71	55
6.51188	6.81802	54	41
6.51188	6.81802	69	50
6.81802	7.1736	55	41
6.81802	7.1736	71	50
7.12258	7.73786	57	43
7.12258	8.35977	62	41
7.12258	7.73786	66	49
7.12258	7.59996	74	55
7.4287	7.73786	72	50
7.73786	8.39403	55	41
7.73786	8.05365	67	50
7.73786	8.05365	71	50
8.05365	8.39403	50	43
8.05365	8.39403	67	53
8.05365	8.39403	71	53
8.35977	8.66433	62	41
8.35977	8.66433	66	50
8.35977	8.66433	69	50
8.66433	8.9689	62	41
8.66433	8.9689	66	50
8.66433	8.9689	69	50
8.9689	9.27977	62	41
8.9689	9.59065	66	50
8.9689	9.59065	69	50
9.27977	9.59065	60	41
9.59065	9.89834	59	42
9.59065	9.89834	68	52
9.59065	9.89834	71	52
9.89834	10.5137	57	45
9.89834	10.2201	69	55
9.89834	10.2201	72	55
10.206	10.5137	71	57
10.206	10.5137	74	57
10.5137	10.8262	55	44
10.5137	10.8262	72	57
10.5137	10.8262	76	57
10.8262	11.3672	54	45
10.8262	11.4612	72	57
10.8262	11.4612	76	57
11.1437	11.4612	57	44
11.4612	11.7802	62	44
11.4612	11.7802	69	58
11.4612	11.5632	72	58
11.5632	11.6678	71	47
11.6678	11.7802	72	49
11.7802	14.2324	55	52
11.7802	12.0863	67	56
11.7802	12.0863	71	56
12.0863	12.3924	69	55
12.0863	12.3924	72	55
12.3924	12.6986	65	52
12.3924	12.6986	71	55
12.3924	12.6986	74	55
12.6986	13.1646	64	52
12.6986	14.5633	67	57
12.6986	13.1646	72	57
13.0047	13.3093	62	52
13.0047	13.3093	74	57
13.3093	13.6138	60	52
13.3093	13.6138	76	57
13.6138	14.5633	59	47
13.6138	14.5633	74	59
13.9231	14.5633	54	45
13.9231	14.5633	57	45
13.9231	14.2324	79	64
14.2324	14.5417	52	45
14.2324	14.5417	55	45
14.2324	14.5633	79	64
14.5417	15.4784	52	48
14.5417	15.4784	55	48
14.5417	15.4784	81	67
14.6947	15.4784	79	59
14.8478	15.4784	59	47
14.8478	15.4784	78	64
15.0008	15.4784	76	56
15.1539	15.4784	57	45
15.1539	15.8081	67	45
15.1539	15.4784	74	62
15.307	15.4784	73	55
15.4784	16.4711	62	45
15.4784	15.8081	76	53
15.8081	16.1396	66	41
15.8081	16.1396	74	49
16.1396	16.4711	66	41
16.1396	16.4711	74	49
16.4711	17.134	62	36
16.4711	17.134	66	36
16.4711	16.9683	74	49
16.9683	17.134	71	49
17.134	17.2998	72	49
17.2998	17.4655	69	49
17.4655	18.0971	55	45
17.4655	18.0971	59	45
17.4655	18.0182	67	55
18.0182	18.0971	71	53
18.0971	18.4197	55	43
18.0971	18.4197	60	43
18.0971	18.4197	69	53
18.4197	19.0447	55	45
18.4197	19.0447	60	45
18.4197	18.9627	62	55
18.7322	19.0447	64	51
19.0447	19.3572	55	43
19.0447	19.3572	60	43
19.0447	19.2009	66	51
19.2009	19.24	67	50
19.24	19.2791	66	50
19.2791	19.3181	64	50
19.3181	19.3572	66	50
19.3572	19.4756	55	42
19.3572	19.4756	59	42
19.3572	19.4756	67	52
19.673	19.7914	55	41
19.673	19.7914	59	41
19.673	19.7914	67	50
19.9888	20.1072	55	41
19.9888	20.1072	59	41
19.9888	20.1072	67	50
20.3046	20.9447	55	41
20.3046	20.9447	59	41
20.3046	20.9447	67	50
20.9447	21.1791	54	41
20.9447	21.2572	62	50
20.9447	21.1791	69	50
21.1791	21.2572	57	41
21.1791	21.2572	72	50
21.2572	21.5633	55	44
21.2572	22.174	62	46
21.2572	21.5633	71	55
21.5633	21.8694	54	41
21.5633	21.8694	69	50
21.8694	22.174	55	41
21.8694	22.174	71	50
22.174	22.7893	57	43
22.174	23.1034	62	41
22.174	22.7893	66	49
22.174	22.6179	74	55
22.4801	22.7893	72	50
22.7893	23.1034	55	41
22.7893	23.1034	67	50
22.7893	23.1034	71	50
23.1034	23.4095	50	43
23.1034	23.4095	67	53
23.1034	23.4095	71	53
23.4095	23.7141	62	41
23.4095	23.7141	66	50
23.4095	23.7141	69	50
23.7141	24.0186	62	41
23.7141	24.0186	66	50
23.7141	24.0186	69	50
24.0186	24.4332	62	41
24.0186	24.6404	66	50
24.0186	24.6404	69	50
24.3295	24.6404	60	41
24.6404	24.9481	59	42
24.6404	24.9481	68	52
24.6404	24.9481	71	52
24.9481	25.5869	57	45
24.9481	25.2609	69	55
24.9481	25.2609	72	55
25.2558	25.5869	71	57
25.2558	25.5869	74	57
25.5635	25.876	55	44
25.5635	25.876	72	57
25.5635	25.876	76	57
25.876	26.4408	54	45
25.876	26.5109	72	57
25.876	26.5109	76	57
26.1935	26.5109	57	44
26.5109	27.1254	62	44
26.5109	27.1254	69	59
26.5109	26.6135	72	59
26.6135	26.7209	71	52
26.7209	27.1254	72	52
26.8333	29.2855	55	52
26.8333	27.1394	67	56
26.8333	27.1394	71	56
27.1394	27.4596	69	55
27.1394	27.4596	72	55
27.4455	27.8397	65	52
27.4455	27.8397	71	55
27.4455	27.8397	74	55
27.7517	28.3192	64	52
27.7517	29.6317	67	57
27.7517	28.3192	72	57
28.0578	28.3624	62	52
28.0578	28.3624	74	57
28.3624	28.6669	60	52
28.3624	28.6669	76	57
28.6669	29.6317	59	47
28.6669	29.6317	74	59
28.9762	29.6317	54	45
28.9762	29.6317	57	45
28.9762	29.2855	79	64
29.2855	29.5947	52	45
29.2855	29.5947	55	45
29.2855	29.6317	79	64
29.5947	30.5315	52	48
29.5947	30.5315	55	48
29.5947	29.7478	81	67
29.7478	30.5315	79	59
29.9009	30.5315	59	47
29.9009	30.5315	78	64
30.0539	30.5315	76	58
30.207	30.5315	57	45
30.207	30.8611	67	45
30.207	30.5315	74	62
30.36	30.5315	73	53
30.5315	31.5241	62	45
30.5315	30.8611	76	53
30.8611	31.1926	66	41
30.8611	31.1926	74	49
31.1926	31.5241	66	41
31.1926	31.5241	74	49
31.5241	32.2741	62	36
31.5241	32.2741	66	36
31.5241	32.2741	74	49
32.2741	32.6689	59	38
32.2741	32.6689	62	38
32.2741	32.6689	79	59
32.6689	33.3282	59	40
32.6689	33.3282	62	40
32.6689	33.2458	79	59
33.2458	33.3282	83	53
33.3282	33.6634	60	38
33.3282	33.6634	64	38
33.3282	33.6634	81	57
33.6634	33.9695	59	40
33.6634	33.9695	62	40
33.6634	33.9695	79	59
33.9695	34.2847	57	40
33.9695	34.2847	60	40
33.9695	34.2847	78	55
34.2756	34.5865	55	38
34.2756	34.5865	59	38
34.2756	34.5865	76	55
34.5865	34.7062	54	37
34.5865	34.7062	57	37
34.5865	34.7062	74	56
34.9057	35.0254	54	36
34.9057	35.0254	57	36
34.9057	35.0254	74	53
35.2248	35.3445	54	36
35.2248	35.3445	57	36
35.2248	35.3445	74	53
35.544	36.4947	54	36
35.544	35.8631	57	36
35.544	36.1822	74	53
35.8631	36.1822	59	44
36.1822	36.4947	60	48
36.1822	36.4947	75	57
36.4947	36.8139	55	41
36.4947	36.8139	59	41
36.4947	36.8139	76	58
36.8139	37.133	54	42
36.8139	37.133	57	42
36.8139	37.0134	78	60
36.9735	37.0785	79	50
37.0134	37.0785	78	50
37.0533	37.0932	76	50
37.0932	37.133	78	50
37.133	37.4522	52	42
37.133	37.4522	55	42
37.133	37.4522	79	64
37.4522	38.4324	57	37
37.4522	37.7765	67	37
37.4522	37.7765	69	58
37.7765	38.105	66	37
37.7765	38.105	71	56
38.1008	38.4324	64	37
38.1008	38.308	73	52
38.2666	38.3315	74	44
38.308	38.3495	73	44
38.3495	38.3909	71	44
38.3909	38.4324	73	44
38.4324	38.5981	74	52
38.7638	39.0882	50	23
38.7638	39.0882	54	29
39.0882	39.3314	52	23
39.0882	39.3314	55	29
39.0882	39.2503	74	47
39.4125	39.5747	74	48
39.7368	40.0612	54	24
39.7368	40.0612	57	31
40.0612	40.3044	55	24
40.0612	40.3044	59	31
40.0612	40.2233	74	47
40.3855	40.5477	74	50
40.7098	41.0341	57	30
40.7098	41.0341	60	38
41.0341	41.2774	55	28
41.0341	41.2774	59	36
41.0341	41.1963	74	49
41.3585	41.5206	74	51
41.6828	42.0071	54	28
41.6828	42.0071	57	35
42.0071	42.2504	52	26
42.0071	42.2504	55	33
42.0071	42.1693	74	46
42.3315	42.6558	50	36
42.3315	42.6558	54	36
42.3315	42.4936	74	48
42.6558	43.4099	74	42
42.6558	43.4099	78	42
42.9801	43.3044	62	39
42.9801	43.4099	76	40
42.9801	43.4099	79	40
43.3044	43.4666	62	41
43.6288	44.3153	78	42
43.6288	44.3153	81	42
43.9531	44.2774	62	39
43.9531	44.3153	79	40
43.9531	44.3153	83	40
44.2774	44.4396	62	40
44.6018	45.2977	81	45
44.6018	45.2977	84	45
44.9261	45.2504	62	40
44.9261	45.2977	79	41
44.9261	45.2977	83	41
45.2504	45.854	62	54
45.5747	45.9256	66	48
45.5747	45.9256	72	53
45.5747	45.9256	81	53
45.9256	46.4018	67	48
45.9256	46.4018	71	53
45.9256	46.4018	79	53
46.4018	48.5447	62	46
46.4018	48.5447	69	46
46.4018	48.5447	72	51
46.4018	48.5447	78	51
48.5447	48.658	71	48
48.658	48.7697	72	51
48.7697	48.88	74	53
48.88	48.9903	72	51
48.9903	49.1006	71	50
49.1006	49.2109	69	49
49.2109	49.8424	55	45
49.2109	49.8424	59	45
49.2109	49.7635	67	55
49.7635	49.8424	71	53
49.8424	50.165	55	43
49.8424	50.165	60	43
49.8424	50.691	69	53
50.165	50.79	55	45
50.165	50.79	60	45
50.165	50.691	62	55
50.4775	50.79	64	51
50.79	51.1025	55	43
50.79	51.1025	60	43
50.79	50.9463	66	51
50.9463	50.9983	67	50
50.9853	51.0374	66	50
51.0244	51.0765	64	50
51.0635	51.1025	66	50
51.1025	51.2209	55	42
51.1025	51.2209	59	42
51.1025	51.2209	67	52
51.4183	51.5367	55	41
51.4183	51.5367	59	41
51.4183	51.5367	67	50
51.7341	51.8525	55	41
51.7341	51.8525	59	41
51.7341	51.8525	67	50
52.0499	52.69	55	41
52.0499	52.69	59	41
52.0499	52.69	67	50
52.69	52.9244	54	41
52.69	53.0025	62	50
52.69	52.9244	69	50
52.9244	53.0025	57	41
52.9244	53.0025	72	50
53.0025	53.3086	55	44
53.0025	53.9193	62	46
53.0025	53.3086	71	55
53.3086	53.6148	54	41
53.3086	53.6148	69	50
53.6148	53.9193	55	41
53.6148	53.9193	71	50
53.9193	54.5346	57	43
53.9193	54.8504	62	41
53.9193	54.5346	66	49
53.9193	54.4147	74	55
54.2254	54.5346	72	50
54.5346	54.8504	55	41
54.5346	54.8504	67	50
54.5346	54.8504	71	50
54.8504	55.1565	50	43
54.8504	55.1565	67	53
54.8504	55.1565	71	53
55.1565	55.4611	62	41
55.1565	55.4611	66	50
55.1565	55.4611	69	50
55.4611	55.7656	62	41
55.4611	55.7656	66	50
55.4611	55.7656	69	50
55.7656	56.2397	62	41
55.7656	56.3874	66	50
55.7656	56.3874	69	50
56.0765	56.3874	60	41
56.3874	56.6951	59	42
56.3874	56.6951	68	52
56.3874	56.6951	71	52
56.6951	57.3183	57	45
56.6951	57.0028	69	55
56.6951	57.0028	72	55
57.0028	57.3183	71	57
57.0028	57.3183	74	57
57.3104	57.623	55	44
57.3104	57.623	72	57
57.3104	57.623	76	57
57.623	58.1825	54	45
57.623	58.2579	72	57
57.623	58.2579	76	57
57.9404	58.2579	57	44
58.2579	58.5688	62	44
58.2579	58.5688	69	50
58.2579	58.4133	72	50
58.4133	58.4651	74	48
58.4522	58.504	72	48
58.4911	58.5429	71	48
58.5299	58.5815	72	48
58.5688	59.5084	55	44
58.5688	58.8813	67	52
58.5688	58.8813	71	52
58.8749	59.181	69	51
58.8749	59.181	72	51
59.181	59.3406	71	51
59.181	59.3406	74	51
59.3406	59.3953	73	50
59.3953	59.4499	74	50
59.4499	59.5084	76	50
59.5084	60.0709	43	46
59.5084	60.1206	71	53
59.5084	60.1206	74	53
59.8145	60.1206	47	45
60.1206	60.4267	52	41
60.1206	60.4267	59	45
60.1206	60.2737	67	45
60.2737	60.3247	69	41
60.312	60.363	67	41
60.3502	60.4012	66	41
60.3885	60.4267	67	41
60.4267	61.3451	48	44
60.4267	61.3132	60	49
60.4267	61.3132	69	49
60.7329	61.3132	64	46
60.7329	61.3132	72	46
61.039	61.3451	62	46
61.039	61.3451	71	46
61.3451	62.3661	50	42
61.3451	62.011	60	49
61.3451	61.5394	69	49
61.5005	62.011	71	40
61.5394	61.6171	69	40
61.5783	61.656	67	40
61.6171	62.011	69	40
61.656	62.011	59	45
61.656	62.011	67	45
62.011	62.3661	57	39
62.011	62.1885	66	39
62.1885	62.2477	67	39
62.2329	62.2921	66	39
62.2773	62.3365	64	39
62.3217	62.3823	66	39
62.3661	62.8011	43	36
62.3661	62.8011	60	44
62.3661	62.8011	69	44
62.7557	64.1485	47	29
62.7557	63.1453	59	34
62.7557	63.1453	67	34
63.1453	64.1485	50	29
63.1453	63.5349	59	34
63.1453	63.5349	67	34
63.5349	64.3141	55	29
63.5349	64.3141	59	34
63.5349	64.3141	67	34
64.3141	64.7427	59	38
64.3141	64.7427	62	38
64.3141	64.7427	79	59
64.7427	65.402	59	40
64.7427	65.402	62	40
64.7427	65.3196	79	59
65.3196	65.402	83	57
65.402	65.7372	60	38
65.402	65.7372	64	38
65.402	65.7372	81	57
65.7372	66.3494	59	40
65.7372	66.3766	62	40
65.7372	66.3766	79	59
66.0433	66.3766	57	40
66.0433	66.3766	60	40
66.0433	66.3766	78	55
66.3494	66.6603	55	38
66.3494	66.6603	59	38
66.3494	66.6603	76	55
66.6603	66.78	54	37
66.6603	66.78	57	37
66.6603	66.78	74	56
66.9795	67.0991	54	36
66.9795	67.0991	57	36
66.9795	67.0991	74	53
67.2986	67.4183	54	36
67.2986	67.4183	57	36
67.2986	67.4183	74	53
67.6178	68.5685	54	36
67.6178	67.9369	57	36
67.6178	68.256	74	53
67.9369	68.256	59	44
68.256	68.5685	60	48
68.256	68.5685	75	57
68.5685	69.0047	55	41
68.5685	69.0047	59	41
68.5685	69.0047	76	58
68.8877	69.2069	54	42
68.8877	69.2069	57	42
68.8877	69.0473	78	60
69.0473	69.1005	79	50
69.0872	69.1404	78	50
69.1271	69.1803	76	50
69.167	69.2202	78	50
69.2069	69.526	52	42
69.2069	69.526	55	42
69.2069	69.526	79	64
69.526	70.5062	57	37
69.526	70.1152	67	37
69.526	70.1152	69	58
69.8503	70.1747	66	37
69.8503	70.1747	71	56
70.1747	70.5062	64	37
70.1747	70.3404	73	52
70.3404	70.3957	74	44
70.3819	70.4371	73	44
70.4233	70.4786	71	44
70.4647	70.52	73	44
70.5062	70.6719	74	52
70.8377	71.162	50	24
70.8377	71.162	54	30
71.162	71.4053	52	24
71.162	71.4053	55	30
71.162	71.3242	74	47
71.4863	71.6485	74	48
71.8107	72.135	54	26
71.8107	72.135	57	33
72.135	72.3782	55	24
72.135	72.3782	59	31
72.135	72.2972	74	47
72.4593	72.6215	74	50
72.7837	73.108	57	30
72.7837	73.108	60	38
73.108	73.3512	55	28
73.108	73.3512	59	36
73.108	73.2701	74	49
73.4323	73.5945	74	51
73.7566	74.081	54	28
73.7566	74.081	57	36
74.081	74.3242	52	28
74.081	74.3242	55	36
74.081	74.2431	74	46
74.4053	74.7296	50	36
74.4053	74.7296	54	36
74.4053	74.5675	74	48
74.7296	75.5121	74	42
74.7296	75.5121	78	42
75.0539	75.3783	62	39
75.0539	75.5121	76	40
75.0539	75.5121	79	40
75.3783	75.5404	62	41
75.7026	76.4175	78	42
75.7026	76.4175	81	42
76.0269	76.3513	62	39
76.0269	76.4175	79	40
76.0269	76.4175	83	40
76.3513	76.5134	62	40
76.6756	77.3999	81	45
76.6756	77.3999	84	45
76.9999	77.3243	62	40
76.9999	77.3999	79	41
76.9999	77.3999	83	41
77.3243	77.9688	62	54
77.6486	77.9995	66	48
77.6486	77.9995	72	53
77.6486	77.9995	81	53
77.9995	78.4756	67	48
77.9995	78.4756	71	53
77.9995	78.4756	79	53
78.4756	80.6185	62	46
78.4756	80.6185	69	46
78.4756	80.6185	72	51
78.4756	80.6185	78	51
80.6185	80.7318	71	48
80.7318	80.8435	72	51
80.8435	80.9538	74	53
80.9538	81.0641	72	51
81.0641	81.1744	71	50
81.1744	81.2847	69	49
81.2847	81.9163	55	45
81.2847	81.9163	59	45
81.2847	81.8373	67	55
81.8373	81.9163	71	53
81.9163	82.2388	55	43
81.9163	82.2388	60	43
81.9163	82.2388	69	53
82.2388	82.8638	55	45
82.2388	82.8638	60	45
82.2388	82.7818	62	55
82.5513	82.8638	64	51
82.8638	83.1764	55	43
82.8638	83.1764	60	43
82.8638	83.0201	66	51
83.0201	83.0722	67	50
83.0592	83.1113	66	50
83.0982	83.1503	64	50
83.1373	83.1895	66	50
83.1764	83.2948	55	42
83.1764	83.2948	59	42
83.1764	83.2948	67	52
83.4922	83.6106	55	41
83.4922	83.6106	59	41
83.4922	83.6106	67	50
83.8079	83.9264	55	41
83.8079	83.9264	59	41
83.8079	83.9264	67	50
84.1237	84.7638	55	41
84.1237	84.7638	59	41
84.1237	84.7638	67	50
84.7638	84.9982	54	41
84.7638	85.0763	62	50
84.7638	84.9982	69	50
84.9982	85.0763	57	41
84.9982	85.0763	72	50
85.0763	85.3824	55	44
85.0763	85.9931	62	46
85.0763	85.3824	71	55
85.3824	85.6886	54	41
85.3824	85.6886	69	50
85.6886	85.9931	55	41
85.6886	85.9931	71	50
85.9931	86.6084	57	43
85.9931	86.9242	62	41
85.9931	86.6084	66	49
85.9931	86.4885	74	55
86.2992	86.6084	72	50
86.6084	86.9242	55	41
86.6084	86.9242	67	50
86.6084	86.9242	71	50
86.9242	87.2303	50	43
86.9242	87.2303	67	53
86.9242	87.2303	71	53
87.2303	87.5349	62	41
87.2303	87.5349	66	50
87.2303	87.5349	69	50
87.5349	87.8394	62	41
87.5349	87.8394	66	50
87.5349	87.8394	69	50
87.8394	88.1503	62	41
87.8394	88.4612	66	50
87.8394	88.4612	69	50
88.1503	88.4612	60	41
88.4612	88.7689	59	42
88.4612	88.7689	68	52
88.4612	88.7689	71	52
88.7689	89.396	57	45
88.7689	89.0766	69	55
88.7689	89.0766	72	55
89.0766	89.396	71	57
89.0766	89.396	74	57
89.3843	89.7007	55	44
89.3843	89.6968	72	57
89.3843	89.6968	76	57
89.6968	90.2735	54	45
89.6968	90.3317	72	57
89.6968	90.3317	76	57
90.0142	90.3317	57	44
90.3317	90.6426	62	44
90.3317	90.6426	69	50
90.3317	90.4871	72	50
90.4871	90.5389	74	48
90.526	90.5778	72	48
90.5649	90.6167	71	48
90.6037	90.6553	72	48
90.6426	91.5822	55	44
90.6426	90.9487	67	52
90.6426	90.9487	71	52
90.9487	91.2548	69	51
90.9487	91.2548	72	51
91.2548	91.4144	71	51
91.2548	91.4144	74	51
91.4144	91.4691	73	50
91.4691	91.5237	74	50
91.5237	91.5822	76	50
91.5822	92.1715	43	46
91.5822	92.1944	71	53
91.5822	92.1944	74	53
91.8883	92.1944	47	45
92.1944	92.5005	52	41
92.1944	92.5005	59	45
92.1944	92.3475	67	45
92.3475	92.3985	69	41
92.3858	92.4368	67	41
92.424	92.475	66	41
92.4623	92.5133	67	41
92.5005	93.4189	48	44
92.5005	93.3628	60	49
92.5005	93.3628	69	49
92.8067	93.3628	64	46
92.8067	93.3628	72	46
93.1128	93.4189	62	46
93.1128	93.4189	71	46
93.4189	94.4399	50	42
93.4189	94.1692	60	49
93.4189	93.6132	69	49
93.5744	94.1692	71	40
93.6132	93.6909	69	40
93.6521	93.7298	67	40
93.6909	94.1692	69	40
93.7298	94.1692	59	45
93.7298	94.1692	67	45
94.0848	94.4399	57	39
94.0848	94.2624	66	39
94.2624	94.3215	67	39
94.3067	94.3659	66	39
94.3511	94.4103	64	39
94.3955	94.4561	66	39
94.4399	94.8863	43	36
94.4399	94.8863	60	44
94.4399	94.8863	69	44
94.8295	96.2045	47	29
94.8295	95.2191	59	34
94.8295	95.2191	67	34
95.2191	96.2045	50	29
95.2191	95.6087	59	34
95.2191	95.6087	67	34
95.6087	96.3879	55	29
95.6087	96.3879	59	34
95.6087	96.3879	67	34
96.3879	96.5527	74	46
96.7176	96.8824	74	46
97.0473	97.3769	55	27
97.0473	97.3769	58	32
97.3769	97.5418	75	49
97.7066	97.8714	75	49
98.0363	98.3659	55	30
98.0363	98.3659	60	36
98.3659	98.5308	78	52
98.6956	98.8605	78	52
99.0253	99.355	55	32
99.0253	99.355	60	38
99.355	99.5198	79	63
99.6846	99.8442	79	63
100.004	100.343	55	51
100.004	100.662	58	61
100.343	100.662	55	64
100.343	100.662	64	64
100.343	100.662	73	81
100.343	101.262	82	81
100.662	101.309	53	58
100.662	101.309	65	58
100.662	101.309	74	81
100.981	101.309	81	77
101.309	101.66	55	64
101.309	101.66	64	64
101.309	101.66	73	81
101.309	102.239	82	81
101.628	102.279	53	57
101.628	102.279	65	57
101.628	102.279	74	81
101.947	102.279	81	76
102.279	102.598	58	61
102.279	102.598	62	61
102.279	102.598	65	61
102.279	102.438	80	86
102.438	102.505	81	75
102.491	102.558	80	77
102.545	102.811	78	77
102.598	103.549	57	58
102.598	103.549	62	58
102.598	103.549	65	58
102.598	102.917	80	88
102.917	103.075	81	77
103.233	103.391	81	77
103.549	104.493	56	57
103.549	104.493	62	57
103.549	104.493	65	57
103.868	104.024	83	77
104.18	104.336	83	77
104.493	105.506	57	45
104.493	105.506	62	45
104.493	105.506	65	45
104.812	105.159	69	49
105.159	105.506	69	49
105.506	105.848	69	51
105.848	106.191	67	35
105.848	106.191	71	44
106.191	106.583	67	35
106.191	106.583	73	44
106.583	106.963	67	32
106.583	107.723	73	39
106.963	107.343	65	25
107.343	107.723	64	24
107.723	108.102	62	25
107.723	108.102	74	37
108.482	108.672	74	46
108.837	109.002	74	46
109.167	109.496	55	27
109.167	109.496	58	32
109.496	109.661	75	49
109.826	109.991	75	49
110.156	110.485	55	28
110.156	110.485	60	34
110.485	110.65	78	52
110.815	110.98	78	52
111.145	111.474	55	29
111.145	111.474	60	35
111.474	111.639	79	63
111.804	111.964	79	63
112.123	112.462	55	51
112.123	112.462	58	61
112.462	112.781	55	64
112.462	112.781	64	64
112.462	112.781	73	81
112.462	113.379	82	81
112.781	113.428	53	58
112.781	113.428	65	58
112.781	113.428	74	81
113.1	113.428	81	74
113.428	113.775	55	64
113.428	113.775	64	64
113.428	113.775	73	81
113.428	114.358	82	81
113.747	114.398	53	57
113.747	114.398	65	57
113.747	114.398	74	81
114.067	114.398	81	74
114.398	114.717	58	61
114.398	114.717	62	61
114.398	114.717	65	61
114.398	114.558	80	86
114.558	114.624	81	72
114.611	114.677	80	72
114.664	114.731	78	73
114.717	115.668	57	58
114.717	115.668	62	58
114.717	115.668	65	58
114.717	115.036	80	90
115.036	115.194	81	75
115.352	115.51	81	75
115.668	116.612	56	57
115.668	116.612	62	57
115.668	116.612	65	57
115.987	116.143	83	86
116.3	116.456	83	86
116.612	117.625	57	45
116.612	117.625	62	45
116.612	117.625	65	45
116.931	117.278	69	49
117.278	117.625	69	49
117.625	117.968	69	51
117.968	118.311	67	35
117.968	118.311	71	44
118.311	118.703	67	35
118.311	118.703	73	44
118.703	119.083	67	33
118.703	119.842	73	39
119.083	119.462	65	27
119.462	119.842	64	25
119.842	120.222	62	25
119.842	120.222	74	37
120.602	120.991	74	40
120.991	121.348	74	42
121.348	121.705	58	26
121.348	121.705	62	26
121.705	122.044	67	42
122.044	122.383	72	44
122.383	122.74	57	31
122.383	122.74	63	31
122.74	123.079	66	42
123.079	123.418	70	44
123.418	123.778	55	31
123.418	123.778	58	31
123.778	124.119	61	49
124.119	124.46	62	51
124.46	125.107	38	51
124.46	125.107	50	51
124.787	125.107	58	51
124.787	125.107	62	62
124.787	125.107	67	78
124.787	125.504	79	78
125.107	125.754	60	47
125.107	125.754	63	56
125.107	125.754	69	65
125.426	125.754	78	77
125.754	126.502	58	51
125.754	126.502	62	62
125.754	126.502	67	65
125.754	126.502	79	78
126.073	126.723	60	46
126.073	126.723	63	55
126.073	126.723	69	65
126.392	126.723	78	75
126.723	127.126	58	49
126.723	127.126	62	58
126.723	127.126	67	65
126.723	127.126	79	82
127.126	128.198	54	44
127.126	128.198	57	44
127.126	128.198	60	52
127.126	128.198	63	52
127.126	128.548	72	70
127.126	128.548	75	70
127.126	128.548	78	83
127.126	128.548	81	83
128.179	129.215	55	40
128.53	128.872	74	49
128.53	128.872	82	49
128.872	129.215	74	49
128.872	129.566	82	49
129.215	130.252	60	43
129.215	130.896	75	49
129.566	129.909	72	37
129.566	129.909	81	49
129.909	130.896	72	37
129.909	130.896	81	49
130.252	131.389	62	43
130.603	130.987	70	40
130.603	130.987	74	46
130.603	130.987	79	46
130.987	131.372	69	38
130.987	131.372	72	42
130.987	131.372	78	42
131.372	132.949	55	29
131.372	132.572	69	29
131.372	132.572	72	39
131.372	132.572	78	39
132.572	132.949	67	30
132.572	132.949	70	37
132.572	132.949	79	37
133.327	133.716	74	40
133.716	134.073	74	42
134.073	134.431	58	27
134.073	134.431	62	27
134.431	134.77	67	42
134.77	135.109	72	44
135.109	135.466	57	31
135.109	135.466	63	31
135.466	135.805	66	42
135.805	136.144	70	44
136.144	136.503	55	31
136.144	136.503	58	31
136.503	136.844	61	49
136.844	137.185	62	51
137.185	137.832	38	51
137.185	137.832	50	51
137.513	137.832	58	51
137.513	137.832	62	62
137.513	137.832	67	65
137.513	138.432	79	78
137.832	138.479	60	47
137.832	138.479	63	56
137.832	138.479	69	65
138.151	138.479	78	77
138.479	138.798	58	51
138.479	138.798	62	62
138.479	138.798	67	65
138.479	139.323	79	78
138.798	139.448	60	46
138.798	139.448	63	55
138.798	139.448	69	65
139.117	139.448	78	75
139.448	139.851	58	49
139.448	139.851	62	58
139.448	139.851	67	65
139.448	139.851	79	82
139.851	140.904	54	44
139.851	140.904	57	44
139.851	140.904	60	52
139.851	140.904	63	52
139.851	141.255	72	70
139.851	141.255	75	70
139.851	141.255	78	83
139.851	141.255	81	83
140.904	141.94	55	40
141.255	141.598	74	49
141.255	141.598	82	49
141.598	141.94	74	49
141.598	142.291	82	49
141.94	142.977	60	43
141.94	143.658	75	49
142.291	142.634	72	37
142.291	142.634	81	49
142.634	143.658	72	37
142.634	143.658	81	49
142.977	144.114	62	43
143.328	143.713	70	40
143.328	143.713	74	46
143.328	143.713	79	46
143.713	144.097	69	38
143.713	144.097	72	42
143.713	144.097	78	42
144.097	145.697	55	29
144.097	145.297	69	29
144.097	145.297	72	39
144.097	145.297	78	39
145.297	145.697	67	30
145.297	145.697	70	37
145.297	145.697	79	37
146.097	146.497	55	43
146.097	146.497	59	43
146.097	146.497	67	52
146.497	147.129	55	45
146.497	147.129	59	45
146.497	147.05	67	55
147.05	147.129	71	53
147.129	147.45	55	43
147.129	147.45	60	43
147.129	147.45	69	53
147.45	148.049	55	45
147.45	148.049	60	45
147.45	148.015	62	55
147.757	148.015	63	51
147.904	148.049	64	51
148.049	148.345	55	43
148.049	148.345	60	43
148.049	148.3	65	51
148.194	148.345	66	51
148.345	149.856	55	38
148.345	148.512	59	38
148.345	148.655	67	52
148.499	148.655	58	34
148.655	148.824	59	37
148.655	148.968	67	50
148.811	148.968	58	34
148.968	149.139	59	36
148.968	149.285	67	50
149.126	149.285	58	35
149.285	149.856	59	41
149.285	149.856	67	50
149.856	150.074	54	41
149.856	150.146	62	50
149.856	150.074	69	50
150.074	150.146	57	46
150.074	150.146	72	50
150.146	150.413	55	44
150.146	151.022	62	55
150.146	150.413	71	55
150.29	150.433	54	41
150.29	150.433	70	53
150.433	150.664	55	44
150.433	150.664	71	55
150.576	150.719	54	41
150.576	150.719	70	52
150.719	151.029	55	44
150.719	151.029	71	55
150.861	151.029	59	41
150.861	151.022	74	52
151.022	151.636	57	43
151.022	152.242	62	49
151.022	151.636	66	49
151.022	151.528	74	55
151.336	151.636	72	50
151.636	152.256	55	41
151.636	151.936	67	50
151.636	151.936	71	50
151.936	152.256	50	43
151.936	152.256	67	53
151.936	152.256	71	53
152.089	152.256	61	36
152.242	152.548	62	42
152.242	152.548	66	50
152.242	152.548	69	50
152.395	152.57	61	37
152.548	152.766	62	42
152.548	152.854	66	50
152.548	152.854	69	50
152.701	152.854	61	37
152.854	153.18	62	43
152.854	153.463	66	50
152.854	153.463	69	50
153.003	153.18	64	41
153.151	153.463	60	43
153.3	153.463	62	41
153.448	153.679	59	44
153.448	154.091	68	52
153.448	154.073	71	52
153.604	154.073	60	41
153.761	154.091	57	45
153.761	154.091	69	55
153.761	154.091	72	55
153.917	154.091	64	42
154.073	154.331	60	42
154.073	154.386	71	57
154.073	154.386	74	57
154.229	154.386	59	41
154.386	154.599	57	41
154.386	154.702	72	57
154.386	154.702	76	57
154.544	154.702	55	40
154.702	155.249	54	40
154.702	155.293	72	57
154.702	155.293	76	57
154.847	155.249	57	39
154.993	155.249	60	40
155.143	155.293	62	42
155.293	155.588	64	44
155.293	155.588	71	53
155.293	155.588	74	53
155.441	155.588	66	45
155.441	155.588	69	53
155.441	155.588	72	53
155.588	156.176	67	52
155.588	155.876	71	55
155.736	155.883	72	51
155.883	156.134	71	55
156.03	156.176	72	51
156.176	156.466	65	50
156.176	156.397	71	55
156.321	156.466	74	50
156.466	156.775	64	50
156.466	156.775	72	57
156.617	156.775	67	47
156.767	157.025	62	49
156.767	157.077	74	57
156.922	157.077	65	45
157.077	157.386	60	48
157.077	157.386	76	57
157.231	157.386	64	43
157.386	157.853	59	47
157.386	158.006	74	59
157.543	158.006	62	44
157.7	158.006	55	47
157.7	158.006	79	64
157.853	158.006	59	44
158.006	158.261	54	47
158.006	158.312	79	64
158.159	158.312	57	44
158.312	158.86	52	48
158.312	158.86	81	67
158.467	158.86	55	47
158.467	158.86	79	66
158.623	158.86	57	46
158.623	158.86	78	64
158.778	158.934	61	46
158.778	158.934	76	63
158.934	159.213	64	45
158.934	159.213	74	62
159.089	159.582	67	44
159.089	159.252	73	61
159.252	159.582	62	45
159.252	159.582	76	53
159.582	159.917	62	38
159.582	159.917	66	38
159.582	159.917	74	49
159.917	160.252	62	38
159.917	160.252	66	38
159.917	160.252	74	46
160.252	160.919	62	36
160.252	160.919	66	36
160.252	160.755	74	46
160.755	160.919	71	49
160.919	161.083	72	49
161.083	161.247	69	49
161.247	161.878	55	45
161.247	161.878	59	45
161.247	161.832	67	55
161.799	161.878	71	53
161.878	162.199	55	43
161.878	162.199	60	43
161.878	162.199	69	53
162.199	162.799	55	45
162.199	162.799	60	45
162.199	162.812	62	55
162.507	162.812	63	51
162.654	162.812	64	51
162.799	163.098	55	43
162.799	163.098	60	43
162.799	163.039	65	51
162.945	163.098	66	51
163.098	164.612	55	42
163.098	163.268	59	42
163.098	163.412	67	52
163.255	163.412	58	36
163.412	163.583	59	41
163.412	163.727	67	50
163.57	163.727	58	37
163.727	163.897	59	39
163.727	164.041	67	50
163.884	164.041	58	36
164.041	164.612	59	41
164.041	164.612	67	50
164.612	164.83	54	41
164.612	164.902	62	50
164.612	164.83	69	50
164.83	164.902	57	46
164.83	164.902	72	50
164.902	165.162	55	44
164.902	165.777	62	55
164.902	165.162	71	55
165.046	165.189	54	41
165.046	165.189	70	53
165.189	165.427	55	44
165.189	165.427	71	55
165.332	165.755	54	41
165.332	165.755	70	52
165.475	165.755	55	44
165.475	165.755	71	55
165.617	165.777	59	41
165.617	165.777	74	52
165.777	166.387	57	43
165.777	166.689	62	49
165.777	166.387	66	49
165.777	166.324	74	55
166.092	166.387	72	50
166.387	166.689	55	41
166.387	166.689	67	50
166.387	166.689	71	50
166.689	166.978	50	43
166.689	167.0	67	53
166.689	167.0	71	53
166.844	167.0	61	41
167.0	167.296	62	42
167.0	167.31	66	50
167.0	167.31	69	50
167.155	167.31	61	41
167.31	167.54	62	42
167.31	167.621	66	50
167.31	167.621	69	50
167.466	167.621	61	41
167.621	167.881	62	43
167.621	168.212	66	50
167.621	168.212	69	50
167.769	167.917	64	41
167.917	168.191	60	43
168.065	168.212	62	41
168.212	168.523	59	44
168.212	168.523	68	52
168.212	168.523	71	52
168.368	168.523	60	41
168.523	168.807	57	45
168.523	168.834	69	55
168.523	168.834	72	55
168.679	168.834	64	42
168.834	169.1	60	42
168.834	169.145	71	57
168.834	169.145	74	57
168.99	169.145	59	41
169.145	169.407	57	41
169.145	169.462	72	57
169.145	169.462	76	57
169.304	169.462	55	40
169.462	170.0	54	40
169.462	170.052	72	57
169.462	170.052	76	57
169.608	170.0	57	39
169.754	170.0	60	40
169.903	170.052	62	42
170.052	170.346	64	44
170.052	170.346	71	53
170.052	170.346	74	53
170.199	170.346	66	45
170.199	170.346	69	53
170.199	170.346	72	53
170.346	170.933	67	52
170.346	170.62	71	55
170.494	170.641	72	51
170.641	170.877	71	55
170.788	170.933	72	51
170.933	171.223	65	50
170.933	171.154	71	55
171.078	171.223	74	50
171.223	171.498	64	50
171.223	171.519	72	57
171.371	171.519	67	47
171.519	171.788	62	49
171.519	171.817	74	57
171.668	171.817	65	45
171.817	172.122	60	48
171.817	172.122	76	57
171.969	172.122	64	43
172.122	172.581	59	47
172.122	172.674	74	59
172.275	172.674	62	44
172.429	172.674	55	47
172.429	172.732	79	64
172.581	172.732	59	44
172.732	172.963	54	47
172.732	173.035	79	64
172.884	173.035	57	44
173.035	173.637	52	48
173.035	173.637	81	67
173.188	173.637	55	47
173.188	173.637	79	66
173.34	173.637	57	46
173.34	173.637	78	64
173.492	173.644	61	46
173.492	173.644	76	63
173.644	173.96	64	45
173.644	173.96	74	62
173.797	174.291	67	44
173.797	173.96	73	61
173.96	174.291	62	45
173.96	174.291	76	53
174.291	174.621	62	38
174.291	174.621	66	38
174.291	174.621	74	49
174.621	174.951	62	38
174.621	174.951	66	38
174.621	174.951	74	46
174.951	176.518	62	36
174.951	176.518	66	36
174.951	175.28	74	46
175.61	175.943	71	38
175.61	175.943	79	59
175.777	176.1	74	38
175.943	176.256	71	38
175.943	176.518	79	59
176.1	176.412	74	36
176.256	176.518	71	38
176.412	176.568	74	35
176.49	176.568	83	57
176.568	176.86	72	38
176.568	176.887	81	57
176.728	176.887	76	35
176.887	177.207	71	38
176.887	177.207	79	59
177.036	177.207	74	36
177.184	177.456	69	38
177.184	177.482	78	55
177.333	177.482	72	36
177.482	177.724	67	38
177.482	177.786	76	55
177.634	177.786	71	35
177.786	178.1	66	37
177.786	178.1	74	56
177.943	178.257	69	35
178.1	178.414	66	37
178.1	178.414	74	53
178.257	178.571	69	36
178.414	178.729	66	37
178.414	178.729	74	53
178.571	178.886	69	35
178.729	179.043	66	37
178.729	179.65	74	53
178.886	179.175	69	35
179.043	179.193	66	37
179.193	179.497	69	36
179.343	179.65	66	37
179.343	179.65	75	57
179.497	179.65	69	35
179.65	180.239	67	41
179.65	180.092	76	58
179.797	180.12	75	56
179.944	180.12	78	58
180.092	180.239	76	57
180.239	180.386	79	58
180.386	180.533	78	57
180.533	181.121	57	37
180.533	181.121	61	37
180.533	181.121	64	37
180.533	181.121	67	37
180.533	181.065	81	58
180.68	181.065	79	57
180.827	181.065	78	57
180.974	181.121	76	56
181.121	181.296	74	55
181.268	181.415	73	53
181.415	181.718	74	59
181.567	181.718	50	36
181.718	181.87	54	37
181.87	182.021	50	35
182.021	182.176	52	36
182.021	182.33	74	52
182.176	182.33	55	39
182.33	182.64	74	57
182.485	182.64	54	39
182.64	182.794	57	43
182.794	182.949	54	37
182.949	183.104	55	39
182.949	183.258	74	52
183.104	183.258	59	42
183.258	183.568	74	59
183.413	183.568	57	41
183.568	183.722	60	44
183.722	183.877	57	41
183.877	184.031	59	43
183.877	184.186	74	52
184.031	184.186	55	41
184.186	184.495	74	56
184.341	184.495	54	37
184.495	184.65	57	41
184.65	184.805	54	37
184.805	184.959	55	40
184.805	185.114	74	46
184.959	185.114	52	37
185.114	185.717	50	38
185.269	185.575	74	46
185.423	185.717	78	48
185.575	185.726	74	44
185.726	186.029	50	36
185.726	186.029	76	46
185.878	186.029	79	48
186.029	186.609	50	38
186.181	186.484	78	46
186.332	186.609	81	48
186.484	186.635	78	45
186.635	186.938	38	56
186.635	186.849	79	47
186.787	186.938	83	49
186.938	188.736	38	64
187.09	187.534	81	64
187.241	188.736	84	66
187.388	187.827	78	60
187.534	188.736	81	64
187.68	188.119	72	59
187.827	188.736	78	63
187.973	188.417	69	57
188.119	188.736	72	60
188.268	188.736	66	55
188.417	188.736	69	58
188.568	188.736	60	54
188.736	190.643	76	56
188.887	190.568	48	44
189.041	189.523	57	47
189.196	190.568	54	40
189.354	190.568	60	42
189.523	190.568	57	37
189.719	190.972	66	40
190.643	190.725	74	49
190.725	190.807	72	49
190.807	190.89	71	49
190.89	190.972	69	49
190.972	191.604	55	45
190.972	191.604	59	45
190.972	191.58	67	55
191.525	191.604	71	53
191.604	191.925	55	43
191.604	191.925	60	43
191.604	191.925	69	53
191.925	192.524	55	45
191.925	192.524	60	45
191.925	192.529	62	55
192.232	192.529	63	51
192.379	192.529	64	51
192.524	192.824	55	43
192.524	192.824	60	43
192.524	192.741	65	51
192.671	192.824	66	51
192.824	194.338	55	42
192.824	192.994	59	42
192.824	193.138	67	52
192.981	193.138	58	37
193.138	193.308	59	41
193.138	193.452	67	50
193.295	193.452	58	37
193.452	193.622	59	41
193.452	193.766	67	50
193.609	193.766	58	37
193.766	194.338	59	41
193.766	194.338	67	50
194.338	194.555	54	41
194.338	194.627	62	50
194.338	194.555	69	50
194.555	194.627	57	46
194.555	194.627	72	50
194.627	194.914	55	44
194.627	195.503	62	55
194.627	194.914	71	55
194.771	194.914	54	41
194.771	194.914	70	53
194.914	195.166	55	44
194.914	195.166	71	55
195.057	195.2	54	41
195.057	195.2	70	52
195.2	195.503	55	44
195.2	195.503	71	55
195.342	195.503	59	41
195.342	195.503	74	52
195.503	196.112	57	43
195.503	196.408	62	49
195.503	196.112	66	49
195.503	196.056	74	55
195.817	196.112	72	50
196.112	196.408	55	41
196.112	196.408	67	50
196.112	196.408	71	50
196.408	196.736	50	43
196.408	196.736	67	53
196.408	196.736	71	53
196.561	196.736	61	41
196.714	196.969	62	42
196.714	197.02	66	50
196.714	197.02	69	50
196.867	197.02	61	41
197.02	197.319	62	42
197.02	197.326	66	50
197.02	197.326	69	50
197.173	197.326	61	41
197.326	197.616	62	43
197.326	197.92	66	50
197.326	197.92	69	50
197.475	197.623	64	41
197.623	197.871	60	43
197.772	197.92	62	41
197.92	198.23	59	44
197.92	198.23	68	52
197.92	198.23	71	52
198.075	198.23	60	41
198.23	198.539	57	45
198.23	198.539	69	55
198.23	198.539	72	55
198.384	198.539	64	42
198.539	198.876	60	42
198.539	198.876	71	57
198.539	198.876	74	57
198.694	198.876	59	41
198.848	199.144	57	41
198.848	199.162	72	57
198.848	199.162	76	57
199.005	199.162	55	40
199.162	199.779	54	40
199.162	199.779	72	57
199.162	199.779	76	57
199.312	199.779	55	39
199.461	199.779	57	40
199.615	199.779	50	42
199.77	200.071	52	44
199.77	200.071	71	53
199.77	200.071	74	53
199.921	200.071	54	45
199.921	200.071	69	53
199.921	200.071	72	53
200.071	200.345	55	44
200.071	200.381	67	55
200.071	200.381	71	55
200.226	200.381	54	43
200.381	200.654	52	42
200.381	200.69	69	52
200.381	200.69	72	52
200.535	200.69	50	40
200.69	201.018	48	39
200.69	201.018	71	52
200.69	201.018	74	52
200.849	201.018	47	38
201.009	201.297	52	43
201.009	201.315	59	53
201.009	201.315	67	53
201.162	201.315	50	42
201.315	201.648	48	40
201.315	201.648	60	50
201.315	201.648	69	50
201.468	201.648	47	39
201.621	201.927	45	37
201.621	201.927	62	50
201.621	201.927	71	50
201.774	201.927	43	36
201.927	202.234	48	44
201.927	202.234	69	52
202.08	202.512	64	52
202.234	202.529	47	40
202.234	202.529	71	50
202.381	202.756	62	50
202.529	202.852	45	40
202.529	202.852	72	50
202.69	203.007	60	50
202.852	203.798	50	44
202.852	203.692	72	51
203.007	203.318	60	50
203.163	203.692	69	50
203.318	203.636	60	50
203.473	203.798	66	48
203.636	204.872	60	50
203.798	204.199	43	36
203.798	204.872	69	46
203.966	204.199	54	33
204.138	204.491	55	36
204.313	204.501	54	33
204.491	204.872	55	34
204.672	204.872	54	31
204.872	205.272	55	29
204.872	205.272	59	35
204.872	205.272	67	35
205.672	206.005	71	38
205.672	206.005	79	59
205.838	206.005	74	38
206.005	206.317	71	38
206.005	206.616	79	59
206.161	206.474	74	36
206.317	206.616	71	38
206.474	206.63	74	35
206.552	206.63	83	57
206.63	206.954	72	38
206.63	206.954	81	57
206.789	206.954	76	35
206.949	207.223	71	38
206.949	207.249	79	59
207.099	207.249	74	36
207.249	207.531	69	38
207.249	207.549	78	55
207.399	207.549	72	36
207.549	207.858	67	38
207.549	207.858	76	55
207.704	207.858	71	35
207.858	208.171	66	37
207.858	208.171	74	56
208.015	208.327	69	35
208.171	208.483	66	37
208.171	208.483	74	53
208.327	208.64	69	36
208.483	208.796	66	37
208.483	208.796	74	53
208.64	208.952	69	35
208.796	209.108	66	37
208.796	209.408	74	53
208.952	209.258	69	35
209.108	209.258	66	37
209.258	209.408	69	36
209.408	209.713	66	37
209.408	209.713	75	57
209.561	209.713	69	35
209.713	210.301	67	41
209.713	210.154	76	58
209.86	210.245	75	56
210.007	210.245	78	58
210.154	210.301	76	57
210.301	210.595	79	58
210.448	210.595	78	57
210.595	211.183	57	37
210.595	211.183	61	37
210.595	211.183	64	37
210.595	211.183	67	37
210.595	211.176	81	58
210.742	211.176	79	57
210.889	211.176	78	57
211.036	211.183	76	56
211.183	211.415	74	55
211.33	211.477	73	53
211.477	211.781	74	58
211.629	211.781	50	36
211.781	211.932	54	37
211.932	212.084	50	35
212.084	212.238	52	36
212.084	212.393	74	51
212.238	212.393	55	39
212.393	212.702	74	55
212.547	212.702	54	39
212.702	212.857	57	43
212.857	213.011	54	37
213.011	213.166	55	39
213.011	213.321	74	52
213.166	213.321	59	42
213.321	213.63	74	57
213.475	213.63	57	41
213.63	213.785	60	44
213.785	213.939	57	41
213.939	214.094	59	43
213.939	214.249	74	51
214.094	214.249	55	41
214.249	214.558	74	56
214.403	214.558	54	37
214.558	214.712	57	41
214.712	214.867	54	37
214.867	215.022	55	40
214.867	215.176	74	46
215.022	215.176	52	37
215.176	215.78	50	38
215.331	215.637	74	46
215.486	215.78	78	48
215.637	215.789	74	44
215.789	216.092	50	36
215.789	216.03	76	46
215.94	216.092	79	48
216.092	216.662	50	38
216.243	216.546	78	46
216.395	216.662	81	48
216.546	216.698	78	45
216.698	217.001	38	57
216.698	217.001	79	47
216.849	217.001	83	49
217.001	218.798	38	69
217.152	217.597	81	64
217.304	218.798	84	66
217.45	217.889	78	60
217.597	218.798	81	64
217.743	218.182	72	59
217.889	218.798	78	63
218.036	218.479	69	57
218.182	218.798	72	60
218.33	218.798	66	55
218.479	218.798	69	58
218.631	218.798	60	54
218.798	220.705	76	56
218.95	220.488	48	44
219.103	219.586	57	47
219.259	220.488	54	40
219.416	220.488	60	42
219.586	220.488	57	37
219.782	221.035	66	40
220.705	220.787	74	49
220.787	220.87	72	49
220.87	220.952	71	49
220.952	221.035	69	49
221.035	221.666	55	45
221.035	221.666	59	45
221.035	221.587	67	55
221.587	221.666	71	53
221.666	221.987	55	43
221.666	221.987	60	43
221.666	221.987	69	53
221.987	222.587	55	45
221.987	222.587	60	45
221.987	222.573	62	55
222.295	222.573	63	51
222.442	222.587	64	51
222.587	222.886	55	43
222.587	222.886	60	43
222.587	222.814	65	51
222.733	222.886	66	51
222.886	224.4	55	42
222.886	223.056	59	42
222.886	223.2	67	52
223.043	223.2	58	38
223.2	223.37	59	41
223.2	223.514	67	50
223.357	223.514	58	36
223.514	223.684	59	41
223.514	223.828	67	50
223.671	223.828	58	37
223.828	224.4	59	41
223.828	224.4	67	50
224.4	224.617	54	41
224.4	224.689	62	50
224.4	224.617	69	50
224.617	224.689	57	46
224.617	224.689	72	50
224.689	224.969	55	44
224.689	225.565	62	55
224.689	224.969	71	55
224.833	224.977	54	41
224.833	224.977	70	53
224.977	225.222	55	44
224.977	225.222	71	55
225.119	225.262	54	41
225.119	225.262	70	52
225.262	225.565	55	44
225.262	225.565	71	55
225.404	225.565	59	41
225.404	225.565	74	52
225.565	226.175	57	43
225.565	226.47	62	49
225.565	226.175	66	49
225.565	226.139	74	55
225.879	226.175	72	50
226.175	226.47	55	41
226.175	226.47	67	50
226.175	226.47	71	50
226.47	226.756	50	43
226.47	226.778	67	53
226.47	226.778	71	53
226.624	226.778	61	41
226.778	227.086	62	42
226.778	227.086	66	50
226.778	227.086	69	50
226.932	227.093	61	41
227.086	227.371	62	42
227.086	227.393	66	50
227.086	227.393	69	50
227.239	227.393	61	41
227.393	227.841	62	43
227.393	227.99	66	50
227.393	227.99	69	50
227.542	227.977	64	41
227.692	227.977	60	43
227.841	227.99	62	41
227.99	228.3	59	44
227.99	228.3	68	52
227.99	228.3	71	52
228.145	228.3	60	41
228.3	228.573	57	45
228.3	228.609	69	55
228.3	228.609	72	55
228.454	228.609	64	42
228.609	228.891	60	42
228.609	228.918	71	57
228.609	228.918	74	57
228.763	228.918	59	41
228.918	229.132	57	41
228.918	229.236	72	57
228.918	229.236	76	57
229.077	229.236	55	40
229.236	229.815	54	40
229.236	229.824	72	57
229.236	229.824	76	57
229.381	229.815	55	39
229.527	229.815	57	40
229.675	229.824	50	42
229.824	230.118	52	44
229.824	230.118	71	53
229.824	230.118	74	53
229.971	230.118	54	45
229.971	230.118	69	53
229.971	230.118	72	53
230.118	230.4	55	44
230.118	230.427	67	55
230.118	230.427	71	55
230.273	230.427	54	43
230.427	230.673	52	42
230.427	230.736	69	52
230.427	230.736	72	52
230.582	230.736	50	40
230.736	231.107	48	39
230.736	231.107	71	52
230.736	231.107	74	52
230.895	231.107	47	38
231.054	231.367	52	43
231.054	231.367	59	53
231.054	231.367	67	53
231.206	231.367	50	42
231.359	231.628	48	40
231.359	231.663	60	50
231.359	231.663	69	50
231.511	231.663	47	39
231.663	231.968	45	37
231.663	231.968	62	50
231.663	231.968	71	50
231.815	231.968	43	36
231.968	232.272	48	44
231.968	232.272	69	52
232.12	232.552	64	52
232.272	232.569	47	40
232.272	232.569	71	50
232.421	232.822	62	50
232.569	232.887	45	40
232.569	232.887	72	50
232.728	233.041	60	50
232.887	233.83	50	44
232.887	233.83	72	51
233.041	233.351	60	50
233.196	233.83	69	50
233.351	233.667	60	50
233.505	233.83	66	48
233.667	234.941	60	50
233.83	234.161	43	36
233.83	234.941	69	46
233.999	234.172	54	33
234.172	234.526	55	36
234.347	234.526	54	33
234.526	234.906	55	34
234.706	234.941	54	31
234.906	235.613	55	29
234.906	235.613	59	35
234.906	235.613	67	35
235.706	235.871	74	46
236.036	236.201	74	46
236.366	236.695	55	22
236.366	236.695	58	27
236.695	236.86	74	49
236.86	237.025	75	49
237.025	237.19	75	51
237.355	237.684	55	24
237.355	237.684	60	29
237.684	237.849	79	55
237.849	238.014	78	52
238.014	238.179	78	52
238.344	238.673	55	27
238.344	238.673	60	32
238.673	238.838	82	66
238.838	239.003	78	63
239.003	239.163	79	63
239.322	239.65	55	43
239.322	239.65	58	51
239.65	239.81	82	70
239.81	239.971	81	74
239.971	240.571	84	83
240.437	240.593	82	69
240.593	240.848	81	69
240.67	240.848	79	69
240.748	240.848	77	69
240.826	240.865	76	69
240.865	240.904	74	69
240.904	241.836	67	66
240.904	241.836	70	66
240.904	241.836	73	66
241.214	241.836	79	83
241.214	241.836	82	83
241.214	241.836	85	98
241.214	241.836	88	98
241.836	242.464	65	68
241.836	242.464	69	68
241.913	242.464	77	75
241.99	242.464	81	78
242.069	242.301	85	79
242.147	242.379	86	80
242.224	242.464	79	79
242.301	242.464	85	81
242.379	242.464	86	83
242.456	242.792	64	65
242.456	242.792	67	65
242.456	242.687	88	85
242.533	242.792	81	82
242.61	242.792	86	84
242.687	242.792	88	86
242.765	243.154	62	65
242.765	243.154	65	65
242.765	243.154	89	99
243.144	243.881	68	69
243.144	243.881	71	69
243.144	243.881	74	79
243.144	243.881	77	93
243.144	243.881	83	93
243.881	244.906	57	65
243.881	244.906	62	65
243.881	244.906	65	65
244.231	244.841	69	65
244.231	244.841	81	77
244.569	244.841	77	64
244.737	244.906	74	64
244.906	245.941	57	55
244.906	245.941	64	55
244.906	245.941	67	55
245.241	245.844	69	62
245.241	245.844	79	73
245.584	245.844	76	60
245.755	245.941	73	60
245.941	246.736	73	55
246.736	247.046	50	31
246.736	247.046	62	31
246.736	247.046	74	41
247.15	247.564	50	31
247.15	247.564	62	31
247.15	247.564	74	41
247.978	248.142	74	46
248.307	248.472	74	46
248.637	248.967	55	22
248.637	248.967	58	27
248.967	249.131	74	49
249.131	249.296	75	49
249.296	249.461	75	51
249.626	249.956	55	27
249.626	249.956	60	32
249.956	250.12	79	55
250.12	250.285	78	52
250.285	250.45	78	52
250.615	250.945	55	28
250.615	250.945	60	34
250.945	251.109	82	66
251.109	251.274	78	63
251.274	251.434	79	63
251.593	251.921	55	43
251.593	251.921	58	51
251.921	252.082	82	70
252.082	252.242	81	74
252.242	252.838	84	83
252.708	252.864	82	69
252.864	253.208	81	69
252.942	253.208	79	69
253.019	253.208	77	69
253.097	253.208	76	69
253.136	253.208	74	69
253.175	254.107	67	66
253.175	254.107	70	66
253.175	254.107	73	66
253.486	254.107	79	82
253.486	254.107	82	82
253.486	254.107	85	98
253.486	254.107	88	98
254.107	254.757	65	68
254.107	254.757	69	68
254.185	254.757	77	75
254.262	254.757	81	78
254.341	254.571	85	79
254.417	254.649	86	80
254.493	254.757	79	79
254.571	254.757	85	81
254.649	254.757	86	83
254.726	255.046	64	65
254.726	255.046	67	65
254.726	254.96	88	85
254.806	255.046	81	82
254.884	255.046	86	84
254.96	255.046	88	86
255.037	255.443	62	65
255.037	255.443	65	65
255.037	255.443	89	99
255.416	256.153	68	69
255.416	256.153	71	69
255.416	256.153	74	79
255.416	256.153	77	93
255.416	256.153	83	93
256.153	257.179	57	64
256.153	257.179	62	64
256.153	257.179	65	64
256.502	257.09	69	66
256.502	257.09	81	78
256.84	257.09	77	64
257.01	257.179	74	64
257.179	258.221	57	51
257.179	258.221	64	51
257.179	258.221	67	51
257.52	258.061	69	61
257.52	258.061	79	72
257.863	258.061	76	60
258.035	258.221	73	60
258.221	259.016	73	55
259.016	259.326	50	31
259.016	259.326	62	31
259.016	259.326	74	41
259.429	259.843	50	31
259.429	259.843	62	31
259.429	259.843	74	41
260.257	260.452	74	40
260.647	260.825	74	42
261.004	261.361	58	25
261.004	261.361	62	30
261.361	261.7	67	42
261.7	262.039	72	44
262.039	262.396	57	28
262.039	262.396	63	33
262.396	262.735	66	42
262.735	263.074	70	44
263.074	263.433	55	28
263.074	263.433	58	33
263.433	263.774	61	49
263.774	264.115	62	51
264.115	264.443	38	51
264.115	264.443	50	51
264.443	264.759	58	62
264.443	264.759	62	62
264.443	264.759	67	78
264.601	264.759	79	71
264.759	265.693	60	56
264.759	265.693	63	56
264.759	265.065	69	76
264.912	265.065	79	71
265.065	265.319	78	71
265.222	265.693	69	71
265.379	265.701	58	62
265.379	265.701	62	62
265.379	265.701	67	75
265.536	265.701	79	71
265.693	266.317	60	55
265.693	266.317	63	55
265.693	265.979	69	72
265.847	266.001	79	72
266.001	266.309	78	72
266.159	266.317	69	72
266.317	266.637	58	58
266.317	266.637	62	58
266.317	266.637	67	78
266.477	266.637	79	78
266.637	267.585	54	52
266.637	266.967	60	62
266.637	266.967	75	86
266.796	266.967	87	77
266.952	267.292	62	49
266.952	267.292	74	83
267.108	267.292	86	74
267.261	267.585	63	49
267.261	267.562	72	74
267.423	268.144	84	70
267.585	268.144	55	50
267.585	268.55	62	50
267.747	268.144	82	68
267.909	268.55	57	41
267.909	268.144	81	68
268.068	268.388	79	68
268.228	268.55	58	42
268.228	268.55	78	68
268.388	268.55	79	66
268.55	269.6	60	43
268.55	269.6	63	43
268.55	269.155	77	64
268.709	269.155	75	61
268.871	269.155	74	59
269.037	269.205	72	57
269.205	269.6	70	54
269.375	269.6	69	52
269.559	270.679	50	39
269.559	270.295	58	39
269.559	270.17	67	47
270.102	270.295	69	44
270.295	270.679	57	33
270.295	270.679	66	44
271.479	271.679	43	29
271.479	271.679	55	29
271.479	271.679	67	35
271.879	272.068	43	29
271.879	272.068	55	29
271.879	272.068	67	35
272.634	272.829	74	40
273.024	273.202	74	42
273.381	273.738	58	25
273.381	273.738	62	30
273.738	274.077	67	42
274.077	274.416	72	44
274.416	274.773	57	28
274.416	274.773	63	33
274.773	275.112	66	42
275.112	275.451	70	44
275.451	275.81	55	28
275.451	275.81	58	33
275.81	276.151	61	49
276.151	276.492	62	51
276.492	276.82	38	51
276.492	276.82	50	51
276.82	277.136	58	62
276.82	277.136	62	62
276.82	277.136	67	78
276.978	277.136	79	70
277.136	277.756	60	56
277.136	277.756	63	56
277.136	277.442	69	76
277.289	277.442	79	71
277.442	277.756	78	71
277.599	277.756	69	71
277.756	278.078	58	62
277.756	278.078	62	62
277.756	278.078	67	75
277.913	278.078	79	75
278.07	279.014	60	55
278.07	279.014	63	55
278.07	278.392	69	72
278.224	278.392	79	72
278.378	278.633	78	72
278.536	279.014	69	72
278.694	279.014	58	58
278.694	279.014	62	58
278.694	279.014	67	78
278.854	279.014	79	78
279.014	279.962	54	54
279.014	279.337	60	64
279.014	279.337	75	84
279.173	279.337	87	75
279.329	279.638	62	50
279.329	279.601	74	83
279.484	279.638	86	72
279.638	279.962	63	50
279.638	279.947	72	72
279.8	280.597	84	67
279.962	280.597	55	52
279.962	280.926	62	52
280.124	280.597	82	64
280.286	280.605	57	40
280.286	280.597	81	64
280.445	280.605	79	64
280.605	280.926	58	41
280.605	280.926	78	64
280.765	280.926	79	63
280.926	281.936	60	43
280.926	281.936	63	43
280.926	281.562	77	62
281.086	281.562	75	60
281.248	281.562	74	58
281.413	281.582	72	55
281.582	281.925	70	51
281.752	281.936	69	49
281.936	283.056	50	39
281.936	282.672	58	39
281.936	282.513	67	47
282.479	282.672	69	44
282.672	283.056	57	33
282.672	283.056	66	44
283.856	284.056	43	29
283.856	284.056	55	29
283.856	284.056	67	35
284.256	284.445	43	29
284.256	284.445	55	29
284.256	284.445	67	35
285.011	285.346	55	38
285.011	285.346	59	38
285.011	285.346	67	49
285.346	285.978	55	40
285.346	285.978	59	40
285.346	285.899	67	51
285.899	285.978	71	47
285.978	286.3	55	36
285.978	286.3	60	36
285.978	286.3	69	50
286.3	286.906	55	38
286.3	286.906	60	38
286.3	286.609	62	51
286.609	286.867	66	54
286.758	286.894	64	48
286.906	287.203	55	40
286.906	287.203	60	40
286.906	287.203	67	56
287.054	287.203	66	51
287.203	287.787	55	42
287.203	287.787	59	42
287.203	287.454	69	58
287.349	287.485	67	54
287.497	287.813	72	61
287.642	287.813	71	56
287.787	288.086	55	34
287.787	288.086	59	34
287.787	288.004	74	62
287.933	288.073	71	57
288.086	288.683	55	37
288.086	288.683	59	37
288.086	288.683	67	55
288.683	288.975	54	49
288.683	288.975	62	57
288.683	288.975	69	57
288.975	289.117	55	45
288.975	289.877	62	57
288.975	289.117	70	57
289.117	289.258	56	48
289.117	289.258	71	58
289.258	289.397	57	49
289.258	289.397	72	61
289.397	289.536	58	51
289.397	289.536	73	62
289.536	289.877	59	54
289.536	289.877	74	63
289.877	290.505	57	56
289.877	290.821	62	62
289.877	290.505	66	62
289.877	290.38	74	62
290.196	290.505	72	63
290.505	290.821	55	54
290.505	290.821	67	56
290.505	290.821	71	56
290.821	291.445	50	57
290.821	291.16	67	63
290.821	291.16	71	63
291.127	291.431	66	60
291.127	291.431	69	60
291.279	291.445	52	56
291.355	291.445	54	57
291.431	291.736	55	60
291.431	291.736	66	60
291.431	291.736	69	60
291.508	291.736	57	61
291.584	291.736	59	62
291.66	291.736	61	63
291.736	292.284	62	66
291.736	292.358	66	60
291.736	292.358	69	60
292.047	292.358	60	58
292.358	292.665	59	58
292.358	292.665	68	62
292.358	292.665	71	62
292.665	293.295	57	54
292.665	292.896	72	64
292.742	292.944	69	66
292.819	292.944	71	67
292.896	292.973	72	68
292.973	293.295	74	70
293.05	293.295	76	70
293.127	293.295	78	73
293.204	293.295	80	74
293.281	293.62	55	52
293.281	293.62	81	75
293.359	293.62	83	76
293.437	293.593	84	78
293.515	293.62	86	79
293.593	294.539	54	54
293.593	294.157	84	81
293.593	294.157	88	81
293.911	294.228	83	68
293.911	294.228	86	68
294.228	295.151	62	52
294.228	294.845	81	68
294.228	294.435	84	68
294.384	294.502	86	68
294.435	294.502	84	68
294.487	294.539	83	68
294.539	296.384	55	54
294.539	294.845	84	70
294.845	295.151	79	67
294.845	295.151	83	67
295.151	295.457	65	49
295.151	295.381	86	66
295.381	295.457	88	56
295.457	295.768	64	46
295.457	295.611	86	66
295.611	295.669	84	62
295.689	295.768	86	55
295.768	296.075	62	46
295.768	295.92	84	66
295.92	295.978	83	62
295.998	296.075	84	56
296.075	296.384	60	46
296.075	296.228	83	66
296.228	296.286	81	62
296.306	296.384	83	56
296.384	298.12	55	46
296.384	296.697	59	46
296.384	296.538	81	66
296.538	296.598	79	62
296.618	296.697	81	56
296.697	297.127	57	44
296.697	296.852	79	66
296.852	297.175	78	60
297.011	297.445	60	44
297.175	297.502	81	66
297.338	297.796	59	40
297.502	297.83	79	63
297.666	298.673	67	39
297.83	298.158	76	58
297.994	298.673	57	36
298.158	298.673	73	53
298.33	299.68	62	38
298.501	298.673	74	44
298.665	298.993	66	36
298.665	298.985	76	48
298.829	298.993	74	44
298.993	299.331	66	36
298.993	299.34	76	48
299.157	299.331	74	44
299.331	299.68	66	33
299.331	299.68	74	44
300.029	300.364	55	38
300.029	300.364	59	38
300.029	300.364	67	49
300.364	300.996	55	40
300.364	300.996	59	40
300.364	300.954	67	51
300.917	300.996	71	47
300.996	301.318	55	36
300.996	301.318	60	36
300.996	301.318	69	50
301.318	301.924	55	38
301.318	301.924	60	38
301.318	301.628	62	51
301.628	301.902	66	54
301.776	301.912	64	50
301.924	302.221	55	40
301.924	302.221	60	40
301.924	302.221	67	58
302.072	302.221	66	52
302.221	302.805	55	42
302.221	302.805	59	42
302.221	302.489	69	58
302.368	302.503	67	52
302.515	302.702	72	61
302.66	302.951	71	57
302.805	303.104	55	34
302.805	303.104	59	34
302.805	303.013	74	62
302.951	303.091	71	57
303.104	303.701	55	37
303.104	303.701	59	37
303.104	303.701	67	55
303.701	303.993	54	49
303.701	303.993	62	57
303.701	303.993	69	57
303.993	304.135	55	45
303.993	304.895	62	57
303.993	304.135	70	57
304.135	304.276	56	48
304.135	304.276	71	58
304.276	304.415	57	49
304.276	304.415	72	61
304.415	304.554	58	51
304.415	304.554	73	62
304.554	304.895	59	54
304.554	304.895	74	63
304.895	305.523	57	56
304.895	305.839	62	62
304.895	305.523	66	62
304.895	305.428	74	62
305.214	305.523	72	63
305.523	305.839	55	54
305.523	305.839	67	57
305.523	305.839	71	57
305.839	306.467	50	57
305.839	306.149	67	63
305.839	306.149	71	63
306.145	306.449	66	60
306.145	306.449	69	60
306.297	306.467	52	55
306.373	306.467	54	56
306.449	306.784	55	58
306.449	306.754	66	60
306.449	306.754	69	60
306.526	306.784	57	60
306.602	306.784	59	62
306.678	306.784	61	62
306.754	307.32	62	64
306.754	307.376	66	60
306.754	307.376	69	60
307.065	307.376	60	58
307.376	307.684	59	58
307.376	307.684	68	62
307.376	307.684	71	62
307.684	308.343	57	54
307.684	307.914	72	68
307.76	307.987	69	68
307.837	307.987	71	69
307.914	307.991	72	70
307.991	308.343	74	72
308.068	308.343	76	73
308.145	308.343	78	74
308.222	308.343	80	74
308.299	308.611	55	52
308.299	308.377	81	75
308.377	308.604	83	76
308.455	308.604	84	78
308.533	308.611	86	79
308.611	309.557	54	54
308.611	308.937	84	80
308.611	308.937	88	80
308.929	309.246	83	68
308.929	309.246	86	68
309.246	310.169	62	52
309.246	309.863	81	68
309.246	309.402	84	68
309.402	309.454	86	68
309.454	309.505	84	68
309.505	309.557	83	68
309.557	311.402	55	54
309.557	309.863	84	70
309.863	310.169	79	67
309.863	310.169	83	67
310.169	310.476	65	49
310.169	310.399	86	66
310.399	310.476	88	56
310.476	310.786	64	46
310.476	310.629	86	66
310.629	310.688	84	62
310.707	310.786	86	55
310.786	311.093	62	46
310.786	310.938	84	66
310.938	310.996	83	62
311.016	311.093	84	56
311.093	311.402	60	46
311.093	311.246	83	66
311.246	311.304	81	62
311.324	311.402	83	56
311.402	313.119	55	46
311.402	311.715	59	46
311.402	311.557	81	66
311.557	311.616	79	62
311.636	311.715	81	56
311.715	312.164	57	44
311.715	311.87	79	66
311.87	312.193	78	60
312.029	312.515	60	44
312.193	312.521	81	66
312.357	312.839	59	40
312.521	312.848	79	63
312.684	313.683	67	39
312.848	313.652	76	58
313.012	313.652	57	36
313.176	313.652	73	53
313.348	314.698	62	38
313.519	313.683	74	44
313.683	314.011	66	36
313.683	314.003	76	48
313.847	314.011	74	44
314.011	314.349	66	36
314.011	314.392	76	48
314.175	314.349	74	44
314.349	314.698	66	33
314.349	314.698	74	44
315.047	315.415	71	40
315.047	315.415	74	40
315.047	315.577	79	48
315.415	316.358	71	44
315.415	316.358	74	44
315.415	315.672	78	48
315.577	315.697	79	48
315.738	315.995	81	51
315.899	316.02	79	48
316.06	316.376	72	40
316.06	316.376	76	40
316.06	316.358	81	52
316.218	316.358	79	48
316.376	316.692	71	45
316.376	316.692	74	45
316.376	316.646	81	52
316.534	316.653	79	48
316.692	317.005	69	40
316.692	317.005	72	40
316.692	316.95	79	52
316.848	316.965	78	48
317.005	317.549	67	40
317.005	317.549	71	40
317.005	317.215	78	51
317.161	317.278	76	48
317.317	317.944	66	46
317.317	317.944	69	46
317.317	317.549	76	53
317.475	317.593	74	50
317.633	317.711	74	49
317.788	317.866	74	50
317.944	318.255	66	40
317.944	318.255	69	40
317.944	318.021	74	51
318.099	318.177	74	52
318.255	318.873	66	50
318.255	318.873	69	50
318.255	318.479	76	57
318.41	318.565	75	53
318.565	318.642	75	53
318.719	318.796	75	53
318.873	319.181	66	48
318.873	319.181	69	48
318.873	318.95	75	53
319.027	319.104	75	53
319.181	320.129	67	55
319.181	320.129	71	55
319.181	319.427	75	58
319.337	319.65	76	55
319.493	319.746	78	55
319.65	320.113	76	55
319.806	320.113	79	58
319.962	320.129	78	55
320.129	321.067	57	49
320.129	321.067	64	49
320.129	321.067	67	49
320.129	320.697	81	56
320.285	320.697	79	57
320.44	320.697	78	59
320.594	320.981	76	61
320.749	320.981	74	63
320.904	321.067	73	66
321.067	321.327	74	88
321.222	321.377	86	73
321.377	321.686	50	52
321.377	321.686	54	52
321.377	321.454	74	67
321.531	321.609	74	67
321.686	321.841	52	53
321.686	321.841	55	53
321.686	321.763	74	67
321.841	321.918	74	67
321.995	322.268	74	90
322.15	322.305	86	73
322.305	322.614	54	51
322.305	322.614	57	51
322.305	322.382	74	67
322.459	322.537	74	67
322.614	322.768	55	52
322.614	322.768	59	52
322.614	322.691	74	67
322.768	322.846	74	67
322.923	323.215	74	88
323.005	323.215	78	64
323.086	323.215	81	68
323.168	323.249	86	62
323.249	323.558	57	52
323.249	323.558	60	52
323.249	323.326	74	69
323.404	323.481	74	64
323.558	323.713	55	53
323.558	323.713	59	53
323.558	323.636	74	64
323.713	323.79	74	64
323.868	324.167	74	85
323.947	324.167	78	60
324.026	324.167	81	66
324.106	324.185	86	58
324.185	324.494	54	49
324.185	324.494	57	49
324.185	324.262	74	64
324.34	324.417	74	64
324.494	324.649	52	49
324.494	324.649	55	49
324.494	324.572	74	64
324.649	324.726	74	64
324.804	325.113	50	49
324.804	325.113	54	49
324.804	325.072	74	84
324.958	325.113	86	66
325.113	325.422	62	48
325.113	325.422	66	48
325.113	325.19	86	64
325.268	325.345	86	64
325.422	325.731	64	46
325.422	325.731	67	46
325.422	325.5	86	64
325.577	325.654	86	64
325.731	326.027	85	76
325.886	326.041	86	66
326.041	326.35	66	47
326.041	326.35	69	47
326.041	326.118	86	64
326.195	326.273	86	64
326.35	326.659	67	46
326.35	326.659	70	46
326.35	326.427	86	64
326.505	326.582	86	64
326.659	326.868	87	82
326.814	326.969	86	66
326.969	327.275	69	45
326.969	327.275	72	45
326.969	327.045	86	64
327.122	327.198	86	64
327.275	327.581	67	41
327.275	327.581	70	41
327.275	327.351	86	64
327.428	327.504	86	64
327.581	327.845	85	75
327.735	327.89	86	66
327.89	328.199	66	42
327.89	328.199	69	42
327.89	327.967	86	64
328.045	328.122	86	64
328.199	328.509	64	40
328.199	328.509	67	40
328.199	328.277	86	64
328.354	328.431	86	64
328.509	329.137	62	42
328.509	329.137	66	42
328.509	328.587	86	65
328.666	328.744	86	65
328.823	328.901	86	65
328.98	329.058	86	64
329.137	329.215	86	62
329.294	329.373	86	62
329.451	329.613	86	60
329.775	329.938	86	58
330.1	330.262	86	58
330.424	330.593	84	57
330.424	330.593	86	57
330.761	330.93	84	55
330.761	330.93	86	55
331.098	331.267	84	55
331.098	331.267	86	55
331.435	331.702	81	37
331.435	331.702	84	52
331.435	331.702	86	52
331.79	332.057	81	35
331.79	332.057	84	50
331.79	332.057	86	50
332.145	332.412	81	35
332.145	332.412	84	50
332.145	332.412	86	50
332.5	332.871	78	29
332.5	332.871	81	29
332.5	332.871	84	47
332.5	332.871	86	47
332.871	333.241	78	28
332.871	333.241	81	28
332.871	333.241	84	45
332.871	333.241	86	45
333.241	333.725	78	26
333.241	333.725	81	26
333.241	333.725	84	42
333.241	333.725	86	42
333.725	335.177	78	24
333.725	335.177	81	24
333.725	335.177	84	40
333.725	335.177	86	40
336.288	336.801	66	24
336.288	336.801	69	24
336.288	336.801	72	35
336.288	336.801	74	35
336.801	338.467	66	24
336.801	338.467	69	24
336.801	338.467	72	35
336.801	338.467	74	35
338.467	338.814	55	43
338.467	338.814	59	43
338.467	338.814	67	52
338.814	339.456	55	45
338.814	339.456	59	45
338.814	339.376	67	55
339.376	339.456	71	53
339.456	339.778	55	43
339.456	339.778	60	43
339.456	339.778	69	53
339.778	340.428	55	45
339.778	340.428	60	45
339.778	340.375	62	55
340.092	340.428	64	51
340.428	340.763	55	43
340.428	340.763	60	43
340.428	340.595	66	51
340.595	340.651	67	50
340.637	340.693	66	50
340.679	340.735	64	50
340.721	340.776	66	50
340.763	340.881	55	42
340.763	340.881	59	42
340.763	340.881	67	52
341.079	341.197	55	41
341.079	341.197	59	41
341.079	341.197	67	50
341.394	341.513	55	41
341.394	341.513	59	41
341.394	341.513	67	50
341.71	342.347	55	41
341.71	342.347	59	41
341.71	342.347	67	50
342.347	342.658	50	58
342.347	342.658	62	63
342.347	342.658	66	63
342.347	342.658	69	63
342.658	342.969	55	62
342.658	342.969	59	62
342.658	342.969	62	67
342.658	342.969	67	67
342.658	342.969	71	67
343.21	343.61	43	45
343.23	343.61	47	48
343.25	343.61	50	51
343.27	343.61	55	55
343.29	343.61	62	58
343.311	343.61	67	61
343.331	343.61	71	63
343.351	343.61	74	67
343.61	344.356	45	46
343.629	344.356	48	49
343.649	344.356	54	51
343.668	344.356	57	55
343.688	344.356	62	60
343.708	344.356	66	63
343.727	344.356	69	66
343.747	344.356	72	68
344.356	344.667	47	54
344.356	344.667	50	54
344.356	344.667	55	54
344.356	344.667	62	60
344.356	344.667	67	60
344.356	344.667	71	60
344.667	344.985	62	61
344.744	344.985	64	61
344.822	344.985	66	61
344.9	344.985	67	61
344.977	345.478	69	63
345.055	345.478	71	66
345.133	345.478	73	67
345.211	345.478	74	68
345.288	345.478	76	70
345.375	345.478	78	71
345.463	345.678	79	72
345.507	345.678	81	73
345.553	345.678	83	74
345.598	345.678	85	77
345.645	346.59	38	59
345.645	346.59	42	59
345.645	346.59	45	59
345.645	346.59	50	59
345.645	346.59	86	94
346.59	346.935	64	29
346.59	346.935	68	48
346.59	346.935	71	48
346.935	347.275	60	31
346.935	347.275	69	50
346.935	347.275	72	50
347.275	347.591	59	31
347.275	347.591	71	51
347.275	347.591	74	51
347.591	347.769	57	30
347.591	347.769	72	45
347.591	347.769	76	45
347.946	348.308	57	28
347.946	348.308	72	41
347.946	348.308	76	41
348.68	349.027	62	32
348.68	349.027	66	50
348.68	349.027	69	50
349.027	349.365	59	33
349.027	349.365	67	53
349.027	349.365	71	53
349.365	349.681	57	33
349.365	349.681	69	52
349.365	349.681	72	52
349.681	349.86	55	29
349.681	349.86	71	46
349.681	349.86	74	46
350.038	350.398	55	29
350.038	350.398	71	42
350.038	350.398	74	42
350.757	351.091	52	35
350.757	351.091	67	44
351.091	351.252	48	35
351.091	351.252	69	48
351.413	351.572	71	49
351.731	351.888	72	49
352.046	352.204	50	30
352.046	352.204	62	49
352.362	352.52	64	47
352.678	352.836	66	47
352.994	353.164	55	41
353.335	353.505	50	37
353.675	353.894	47	37
354.004	354.851	43	44
354.022	354.851	47	47
354.04	354.851	50	51
354.059	354.851	55	53
354.077	354.851	59	53
354.095	354.851	62	57
354.113	354.851	67	60
355.024	355.404	71	40
355.024	355.404	74	40
355.024	355.404	79	48
355.404	356.049	71	44
355.404	356.049	74	44
355.404	355.717	78	48
355.565	355.717	79	48
355.726	356.011	81	51
355.887	356.011	79	48
356.049	356.365	72	40
356.049	356.365	76	40
356.049	356.365	81	52
356.207	356.365	79	48
356.365	356.68	71	45
356.365	356.68	74	45
356.365	356.596	81	52
356.522	356.641	79	48
356.68	356.993	69	40
356.68	356.993	72	40
356.68	356.929	79	52
356.837	356.954	78	48
356.993	357.557	67	40
356.993	357.557	71	40
356.993	357.186	78	51
357.149	357.266	76	48
357.305	357.932	66	46
357.305	357.932	69	46
357.305	357.557	76	53
357.463	357.582	74	50
357.621	357.699	74	49
357.777	357.854	74	50
357.932	358.243	66	40
357.932	358.243	69	40
357.932	358.01	74	51
358.087	358.165	74	52
358.243	358.861	66	50
358.243	358.861	69	50
358.243	358.476	76	57
358.398	358.554	75	53
358.554	358.631	75	53
358.708	358.785	75	53
358.861	359.169	66	48
358.861	359.169	69	48
358.861	358.938	75	53
359.015	359.092	75	53
359.169	360.117	67	55
359.169	360.117	71	55
359.169	359.482	75	58
359.325	359.482	76	55
359.482	359.756	78	55
359.638	359.794	76	55
359.794	360.117	79	58
359.95	360.117	78	55
360.117	361.056	57	49
360.117	361.056	64	49
360.117	361.056	67	49
360.117	360.678	81	56
360.273	360.678	79	57
360.428	360.678	78	58
360.583	360.97	76	58
360.737	360.97	74	59
360.892	361.056	73	60
361.056	361.306	74	85
361.21	361.365	86	68
361.365	361.674	50	52
361.365	361.674	54	52
361.365	361.442	74	64
361.52	361.597	74	64
361.674	361.829	52	53
361.674	361.829	55	53
361.674	361.752	74	64
361.829	361.906	74	64
361.984	362.243	74	86
362.138	362.293	86	68
362.293	362.602	54	51
362.293	362.602	57	51
362.293	362.37	74	64
362.448	362.525	74	64
362.602	362.757	55	52
362.602	362.757	59	52
362.602	362.679	74	64
362.757	362.834	74	64
362.911	363.174	74	84
362.992	363.174	78	62
363.074	363.174	81	68
363.155	363.236	86	62
363.236	363.546	57	52
363.236	363.546	60	52
363.236	363.314	74	64
363.392	363.469	74	64
363.546	363.701	55	53
363.546	363.701	59	53
363.546	363.624	74	64
363.701	363.778	74	64
363.856	364.104	74	82
363.935	364.104	78	61
364.015	364.104	81	67
364.095	364.175	86	60
364.175	364.484	54	49
364.175	364.484	57	49
364.175	364.252	74	64
364.329	364.407	74	64
364.484	364.639	52	49
364.484	364.639	55	49
364.484	364.561	74	64
364.639	364.716	74	64
364.793	365.102	50	49
364.793	365.102	54	49
364.793	365.052	74	80
364.948	365.102	86	66
365.102	365.412	62	48
365.102	365.412	66	48
365.102	365.18	86	64
365.257	365.334	86	64
365.412	365.721	64	46
365.412	365.721	67	46
365.412	365.489	86	64
365.566	365.644	86	64
365.721	365.994	85	73
365.876	366.03	86	66
366.03	366.339	66	47
366.03	366.339	69	47
366.03	366.108	86	64
366.185	366.262	86	64
366.339	366.649	67	46
366.339	366.649	70	46
366.339	366.417	86	64
366.494	366.571	86	64
366.649	366.904	87	81
366.803	366.958	86	66
366.958	367.264	69	45
366.958	367.264	72	45
366.958	367.035	86	64
367.111	367.188	86	64
367.264	367.57	67	41
367.264	367.57	70	41
367.264	367.341	86	64
367.417	367.494	86	64
367.57	367.825	85	76
367.725	367.88	86	66
367.88	368.189	66	42
367.88	368.189	69	42
367.88	367.957	86	64
368.034	368.112	86	64
368.189	368.498	64	40
368.189	368.498	67	40
368.189	368.266	86	64
368.343	368.421	86	64
368.498	369.126	62	42
368.498	369.126	66	42
368.498	368.577	86	65
368.655	368.734	86	64
368.812	368.891	86	63
368.969	369.048	86	62
369.126	369.205	86	61
369.283	369.362	86	60
369.441	369.603	86	60
369.765	369.927	86	58
370.089	370.251	86	58
370.414	370.582	84	57
370.414	370.582	86	57
370.751	370.919	84	55
370.751	370.919	86	55
371.088	371.256	84	55
371.088	371.256	86	55
371.425	371.691	81	37
371.425	371.691	84	52
371.425	371.691	86	52
371.78	372.046	81	35
371.78	372.046	84	50
371.78	372.046	86	50
372.135	372.401	81	35
372.135	372.401	84	50
372.135	372.401	86	50
372.49	372.86	78	29
372.49	372.86	81	29
372.49	372.86	84	47
372.49	372.86	86	47
372.86	373.231	78	28
372.86	373.231	81	28
372.86	373.231	84	45
372.86	373.231	86	45
373.231	373.714	78	26
373.231	373.714	81	26
373.231	373.714	84	42
373.231	373.714	86	42
373.714	375.166	78	24
373.714	375.166	81	24
373.714	375.166	84	40
373.714	375.166	86	40
376.277	376.79	66	24
376.277	376.79	69	24
376.277	376.79	72	35
376.277	376.79	74	35
376.79	378.457	66	24
376.79	378.457	69	24
376.79	378.457	72	35
376.79	378.457	74	35
378.457	378.804	55	43
378.457	378.804	59	43
378.457	378.804	67	52
378.804	379.445	55	45
378.804	379.445	59	45
378.804	379.365	67	55
379.365	379.445	71	53
379.445	379.768	55	43
379.445	379.768	60	43
379.445	379.768	69	53
379.768	380.417	55	45
379.768	380.417	60	45
379.768	380.342	62	55
380.082	380.417	64	51
380.417	380.752	55	43
380.417	380.752	60	43
380.417	380.585	66	51
380.585	380.627	67	50
380.627	380.669	66	50
380.669	380.71	64	50
380.71	380.752	66	50
380.752	380.871	55	42
380.752	380.871	59	42
380.752	380.871	67	52
381.068	381.187	55	41
381.068	381.187	59	41
381.068	381.187	67	50
381.384	381.502	55	41
381.384	381.502	59	41
381.384	381.502	67	50
381.7	382.336	55	41
381.7	382.336	59	41
381.7	382.336	67	50
382.336	382.647	50	58
382.336	382.647	62	63
382.336	382.647	66	63
382.336	382.647	69	63
382.647	382.958	55	62
382.647	382.958	59	62
382.647	382.958	62	67
382.647	382.958	67	67
382.647	382.958	71	67
383.199	383.598	43	48
383.219	383.598	47	50
383.24	383.598	50	53
383.26	383.598	55	57
383.28	383.598	62	58
383.3	383.598	67	61
383.32	383.598	71	64
383.34	383.598	74	68
383.598	384.348	45	47
383.618	384.348	48	50
383.638	384.348	54	52
383.658	384.348	57	57
383.678	384.348	62	59
383.698	384.348	66	62
383.718	384.348	69	64
383.738	384.348	72	68
384.348	384.658	47	54
384.348	384.658	50	54
384.348	384.658	55	54
384.348	384.658	62	60
384.348	384.658	67	60
384.348	384.658	71	60
384.658	384.932	62	61
384.736	384.932	64	61
384.814	384.932	66	61
384.892	385.469	67	61
384.969	385.469	69	63
385.047	385.469	71	66
385.125	385.469	73	67
385.202	385.469	74	68
385.28	385.469	76	70
385.366	385.469	78	71
385.454	385.647	79	72
385.499	385.647	81	73
385.545	385.647	83	74
385.591	385.647	85	77
385.639	386.584	38	59
385.639	386.584	42	59
385.639	386.584	45	59
385.639	386.584	50	59
385.639	386.584	86	94
386.584	386.929	64	29
386.584	386.929	68	48
386.584	386.929	71	48
386.929	387.27	60	31
386.929	387.27	69	50
386.929	387.27	72	50
387.27	387.589	59	31
387.27	387.589	71	51
387.27	387.589	74	51
387.589	387.766	57	30
387.589	387.766	72	45
387.589	387.766	76	45
387.944	388.305	57	28
387.944	388.305	72	41
387.944	388.305	76	41
388.678	389.025	62	32
388.678	389.025	66	50
388.678	389.025	69	50
389.025	389.363	59	33
389.025	389.363	67	53
389.025	389.363	71	53
389.363	389.682	57	33
389.363	389.682	69	52
389.363	389.682	72	52
389.682	389.861	55	29
389.682	389.861	71	46
389.682	389.861	74	46
390.039	390.398	55	29
390.039	390.398	71	42
390.039	390.398	74	42
390.758	391.092	52	35
390.758	391.092	67	44
391.092	391.253	48	35
391.092	391.253	69	48
391.414	391.573	71	49
391.732	391.89	72	49
392.048	392.209	50	30
392.048	392.209	62	49
392.37	392.532	64	47
392.693	392.854	66	47
393.016	393.194	55	41
393.373	393.551	50	37
393.73	393.97	47	37
394.09	394.868	43	44
394.11	394.868	47	45
394.13	394.868	50	50
394.15	394.868	55	53
394.17	394.868	59	56
394.19	394.868	62	56
394.21	394.868	67	62
