OnsetTime	OffsetTime	MidiPitch	Velocity
0.521985	1.59098	61	64
0.588987	1.58999	64	64
0.654982	1.59098	69	76
0.657987	1.59098	45	59
0.658979	1.59098	57	70
1.58999	2.07198	40	53
1.58999	2.07198	64	70
1.59098	2.07198	52	63
2.06498	2.54899	73	72
2.06599	2.54899	49	48
2.06599	2.54899	61	57
2.31099	2.54899	74	74
2.42298	2.54899	71	70
2.54198	2.78997	45	45
2.54198	2.78997	69	70
2.54298	2.78997	57	53
3.50097	3.99396	73	50
3.73797	3.99396	74	52
3.86096	3.99396	71	46
3.98397	4.85194	69	49
4.46996	4.85194	85	57
4.47397	4.85194	57	40
4.47397	4.85194	66	40
4.95294	5.42595	75	50
4.95395	5.42896	59	40
4.95395	5.42896	69	40
5.43295	6.37395	64	40
5.43295	6.37395	76	52
5.43394	6.37395	68	40
6.13595	6.37395	77	51
6.37395	6.60496	80	57
6.60795	6.83895	78	56
6.83995	7.07094	76	54
7.07094	7.30794	74	53
7.30894	7.53594	73	52
7.53693	7.77794	71	51
7.78095	8.25994	52	39
7.78095	8.25994	69	51
8.01895	8.25994	68	46
8.01994	8.25994	62	33
8.25794	8.71594	59	33
8.25794	8.72593	76	53
8.48094	8.72593	74	51
8.48493	8.72593	62	28
8.71594	9.19493	59	31
8.95292	9.19493	62	29
9.18492	9.66492	52	40
9.18492	9.66492	71	57
9.42491	9.66492	69	53
9.42592	9.66492	61	34
9.66391	10.1199	57	34
9.66391	10.1259	78	57
9.88891	10.1259	76	56
9.88991	10.1259	61	30
10.1199	10.5949	57	32
10.3499	10.5949	61	28
10.5879	11.0499	76	63
10.5909	11.0499	50	42
10.8229	11.0499	74	59
10.8259	11.0499	59	36
11.0469	11.5159	79	62
11.0499	11.5149	54	36
11.2809	11.5159	78	59
11.2819	11.5159	59	34
11.5149	11.9849	54	36
11.7439	11.9849	59	34
11.9809	12.4849	66	51
11.9849	12.4849	50	39
12.4539	12.6769	76	53
12.6799	12.9049	74	51
12.9049	13.1359	73	51
13.1369	13.3739	71	49
13.3749	13.8499	69	51
13.3779	13.8539	52	33
13.3779	13.8539	62	39
13.6089	13.8539	68	48
13.8499	14.3329	57	33
13.8499	14.3329	69	51
13.8509	14.3329	61	39
14.6159	14.6759	71	68
14.6769	14.7319	76	71
14.7329	14.7949	80	74
14.7979	16.1989	83	77
14.7989	15.7359	52	60
15.0299	15.5019	56	52
15.2609	15.7359	59	56
15.5019	15.7359	56	52
15.7339	15.9639	54	56
15.9649	16.2019	52	51
16.2059	16.6709	51	60
16.2059	16.6709	83	73
16.3179	16.6709	81	72
16.4369	16.6709	80	71
16.4379	16.6709	52	50
16.5449	16.6609	78	70
16.6609	17.1369	78	72
16.6639	17.1369	54	50
16.7759	17.1369	76	71
16.8949	17.1369	47	51
16.8949	17.1369	75	69
17.0099	17.1369	73	68
17.1259	17.6509	71	70
17.1299	17.6509	49	54
17.2419	17.4799	69	67
17.3579	17.5959	68	67
17.3599	17.6509	51	51
17.4799	17.6509	69	67
17.5959	17.7099	68	67
17.5979	18.0709	52	60
17.7109	18.0709	71	69
17.8299	18.0709	56	52
17.8299	18.0709	76	70
17.9419	18.0709	80	72
18.0619	18.9769	83	73
18.0639	18.2879	59	52
18.2889	18.5189	56	52
18.5189	18.7429	54	55
18.7469	18.9779	52	52
18.9779	19.4439	83	73
18.9809	19.4439	51	60
19.0929	19.4439	81	72
19.2089	19.4439	80	71
19.2129	19.4439	52	50
19.3249	19.4429	78	70
19.4429	19.9079	54	50
19.4429	19.9079	78	72
19.5589	19.9079	76	71
19.6709	19.9079	75	69
19.6719	19.9079	47	51
19.7859	19.9079	73	68
19.9019	20.4269	71	70
19.9029	20.4269	49	54
20.0179	20.2559	69	67
20.1329	20.3789	68	67
20.1359	20.4269	51	51
20.2559	20.4269	69	67
20.3789	20.8459	52	60
20.3789	20.4929	68	67
20.4939	20.8459	71	64
20.6089	20.8299	69	70
20.7209	20.8459	68	64
20.8299	21.2979	69	68
20.9509	21.2979	71	68
21.0599	21.2979	73	69
21.1759	21.2979	75	70
21.2879	21.7559	76	70
21.4069	21.7559	78	71
21.5189	21.7559	80	72
21.6379	21.7559	81	72
21.7529	22.2109	83	73
21.8619	22.2109	85	74
21.9809	22.1979	87	74
22.0889	22.2109	88	75
22.1979	22.3099	87	72
22.3099	22.6529	85	70
22.4259	22.6529	83	68
22.5339	22.6529	81	65
22.6459	23.1049	80	63
22.7579	23.1049	78	61
22.8669	23.1049	76	59
22.9819	23.1049	75	57
23.0999	23.3319	73	50
23.1009	23.5629	57	38
23.1009	23.5629	66	45
23.4469	23.5639	85	50
23.5659	24.6139	59	33
23.5659	24.0739	76	54
23.5669	24.0739	68	39
23.9929	24.0739	80	50
24.0709	24.6139	75	53
24.0719	24.6139	78	53
24.0729	24.6139	69	39
24.6129	25.1479	64	35
24.6129	25.1439	76	51
24.6139	25.1509	68	42
25.1129	25.6519	52	35
26.2299	27.2949	61	64
26.2929	27.2939	64	64
26.3619	27.2949	69	76
26.3629	27.2949	45	59
26.3629	27.2949	57	70
27.2939	27.7769	40	53
27.2939	27.7769	52	63
27.2939	27.7769	64	70
27.7699	28.2529	73	72
27.7709	28.2529	49	48
27.7709	28.2529	61	57
28.0189	28.2529	74	74
28.1309	28.2529	71	70
28.2499	28.4979	69	70
28.2519	28.4979	45	45
28.2529	28.4979	57	53
29.2039	29.6979	73	50
29.4459	29.6979	74	52
29.5659	29.6979	71	46
29.6879	30.5599	69	49
30.1809	30.5599	85	57
30.1819	30.5599	57	40
30.1849	30.5599	66	40
30.6569	31.1329	75	50
30.6579	31.1329	59	40
30.6579	31.1339	69	40
31.1369	32.0779	64	40
31.1369	32.0779	76	52
31.1379	32.0779	68	40
31.8409	32.0779	77	51
32.0779	32.3019	80	57
32.3059	32.5429	78	56
32.5439	32.7749	76	54
32.7779	33.0129	74	53
33.0129	33.2469	73	52
33.2479	33.4949	71	51
33.4959	33.9689	69	51
33.4989	33.9689	52	39
33.7299	33.9689	68	46
33.7309	33.9689	62	33
33.9679	34.4269	59	33
33.9679	34.4309	76	53
34.1929	34.4309	74	51
34.1949	34.4309	62	28
34.4269	34.9059	59	31
34.6609	34.9059	62	29
34.8959	35.3749	71	57
34.8969	35.3749	52	40
35.1339	35.3749	69	53
35.1369	35.3749	61	34
35.3719	35.8328	78	57
35.3749	35.8308	57	34
35.5969	35.8328	76	56
35.5989	35.8328	61	30
35.8308	36.3028	57	32
36.0619	36.3028	61	28
36.2988	36.7678	76	63
36.3028	36.7678	50	42
36.5338	36.7678	74	59
36.5348	36.7678	59	36
36.7578	37.2268	79	62
36.7618	37.2238	54	36
36.9918	37.2268	78	59
36.9928	37.2268	59	34
37.2238	37.6988	54	36
37.4618	37.6988	59	34
37.6928	38.2028	50	39
37.6928	38.2028	66	51
38.1648	38.3878	76	53
38.3888	38.6198	74	51
38.6198	38.8468	73	51
38.8468	39.0848	71	49
39.0858	39.5538	69	51
39.0878	39.5608	52	33
39.0888	39.5608	62	39
39.3198	39.5608	68	48
39.5538	40.0438	57	33
39.5538	40.0438	69	51
39.5548	40.0438	61	39
40.3268	40.3868	71	68
40.3878	40.4428	76	71
40.4428	40.5058	80	74
40.5098	41.9088	83	77
40.5108	41.4478	52	60
40.7418	41.2098	56	52
40.9788	41.4478	59	56
41.2098	41.4478	56	52
41.4438	41.6778	54	56
41.6788	41.9138	52	51
41.9158	42.3817	83	73
41.9168	42.3817	51	60
42.0298	42.3817	81	72
42.1478	42.3817	52	50
42.1478	42.3817	80	71
42.2568	42.3728	78	70
42.3728	42.8447	78	72
42.3748	42.8447	54	50
42.4868	42.8447	76	71
42.6058	42.8447	75	69
42.6068	42.8447	47	51
42.7217	42.8447	73	68
42.8377	43.3618	71	70
42.8388	43.3618	49	54
42.9527	43.1908	69	67
43.0688	43.3068	68	67
43.0718	43.3618	51	51
43.1908	43.3618	69	67
43.3068	43.4218	68	67
43.3088	43.7798	52	60
43.4218	43.7798	71	69
43.5408	43.7798	56	52
43.5408	43.7798	76	70
43.6538	43.7798	80	72
43.7758	44.6888	83	73
43.7788	44.0028	59	52
44.0038	44.2258	56	52
44.2268	44.4548	54	55
44.4548	44.6898	52	52
44.6898	45.1578	51	60
44.6898	45.1578	83	73
44.8048	45.1578	81	72
44.9198	45.1578	80	71
44.9238	45.1578	52	50
45.0348	45.1548	78	70
45.1548	45.6198	54	50
45.1548	45.6198	78	72
45.2698	45.6198	76	71
45.3858	45.6198	75	69
45.3888	45.6198	47	51
45.4938	45.6198	73	68
45.6128	46.1378	71	70
45.6138	46.1378	49	54
45.7248	45.9638	69	67
45.8478	46.0888	68	67
45.8508	46.1378	51	51
45.9638	46.1378	69	67
46.0888	46.5538	52	60
46.0888	46.1998	68	67
46.2008	46.5538	71	64
46.3198	46.5428	69	70
46.4358	46.5538	68	64
46.5428	47.0088	69	68
46.6628	47.0088	71	68
46.7788	47.0088	73	69
46.8878	47.0088	75	70
47.0058	47.4738	76	70
47.1218	47.4738	78	71
47.2378	47.4738	80	72
47.3518	47.4738	81	72
47.4608	47.9228	83	73
47.5798	47.9228	85	74
47.6888	47.9168	87	74
47.8038	47.9228	88	75
47.9168	48.0248	87	72
48.0278	48.3677	85	70
48.1368	48.3677	83	68
48.2458	48.3677	81	65
48.3567	48.8187	80	63
48.4657	48.8187	78	61
48.5808	48.8187	76	59
48.6997	48.8187	75	57
48.8108	49.0467	73	50
48.8117	49.2737	57	38
48.8117	49.2737	66	45
49.1577	49.2747	85	50
49.2767	50.3247	59	33
49.2767	49.7877	76	54
49.2777	49.7877	68	39
49.7077	49.7877	80	50
49.7777	50.3247	75	53
49.7807	50.3247	78	53
49.7817	50.3247	69	39
50.3207	50.8557	76	51
50.3237	50.8587	64	35
50.3237	50.8597	68	42
50.8277	51.3657	52	35
51.8737	52.3597	64	61
51.9437	52.3597	76	74
52.3577	52.8367	66	61
52.4197	52.8367	78	70
52.8327	53.3757	67	61
52.8967	53.3757	79	70
53.3727	53.8587	54	47
53.3727	53.8587	71	56
53.6107	53.8587	61	39
53.8497	54.3237	70	52
53.8517	54.3237	66	39
54.0797	54.3237	64	39
54.3137	54.7967	62	39
54.5517	54.7967	61	39
54.6707	54.7967	70	51
54.7937	55.2687	73	57
54.7967	55.2687	54	47
55.0247	55.2687	62	42
55.2647	55.7307	71	56
55.2657	55.7307	66	42
55.4967	55.7307	62	42
55.7247	56.2067	61	42
55.9597	56.2067	59	42
56.0777	56.2067	71	63
56.2007	56.6757	74	66
56.2017	56.6757	54	56
56.4237	56.6757	58	47
56.6657	57.1387	73	60
56.6667	57.1387	64	47
56.8967	57.1387	61	47
57.1347	57.6007	59	47
57.3657	57.6007	58	47
57.4807	57.6007	73	68
57.5977	58.0797	76	72
57.6007	58.0797	59	57
57.8317	58.0797	74	68
58.0697	58.5377	77	72
58.2937	58.5377	76	67
58.5317	59.0047	79	70
58.7657	59.0047	77	66
59.0037	59.4827	69	56
59.0047	59.4827	52	47
59.2347	59.4827	59	39
59.4727	59.9417	68	52
59.4767	59.9417	64	39
59.7077	59.9417	62	39
59.9387	60.4247	60	39
60.1767	60.4247	59	39
60.2917	60.4247	68	51
60.4157	60.8937	71	57
60.4177	60.8937	52	47
60.6527	60.8937	60	42
60.8907	61.3597	69	56
60.8917	61.3597	64	42
61.1147	61.3597	60	42
61.3487	61.8287	59	42
61.5867	61.8287	57	42
61.7027	61.8287	69	63
61.8257	62.2977	72	66
61.8277	62.2977	52	56
62.0587	62.2977	56	47
62.2916	62.7697	62	47
62.2916	62.7697	71	60
62.5256	62.7697	59	47
62.7667	63.2387	57	47
62.9977	63.2387	56	47
63.1157	63.2387	71	68
63.2357	63.7117	74	72
63.2387	64.1736	57	57
63.4667	63.7117	72	68
63.7047	64.1736	71	72
63.9387	64.1736	69	67
64.1707	64.6377	43	69
64.1707	64.4007	81	73
64.1727	64.6387	55	69
64.4007	64.5827	81	70
64.6387	65.5836	83	78
64.6427	65.5836	41	72
64.6427	65.5836	53	72
64.8777	65.5836	81	78
65.1107	65.5836	79	77
65.3487	65.5836	77	75
65.5836	65.8107	76	79
65.8107	66.0597	75	75
66.0626	67.0076	84	81
66.0637	67.4956	54	61
66.0637	66.5326	57	61
66.2977	67.0076	56	42
66.5326	67.0076	57	46
66.7626	67.0076	60	41
67.0056	67.4956	59	46
67.0056	67.4956	75	55
67.2466	67.4956	57	41
67.4916	68.1916	76	55
67.4946	67.9596	52	57
67.4946	67.9606	56	57
68.1916	68.3136	78	57
68.3146	68.4366	76	46
68.4366	68.5547	76	55
68.5586	68.6736	74	53
68.6747	68.7937	73	52
68.7967	68.9297	71	51
68.9307	69.9966	61	64
68.9936	69.9936	64	64
69.0626	69.9966	69	76
69.0637	69.9966	45	59
69.0666	69.9966	57	70
69.9936	70.4737	64	70
69.9947	70.4737	40	53
69.9966	70.4737	52	63
70.4696	70.9527	73	72
70.4706	70.9527	49	48
70.4737	70.9527	61	57
70.7117	70.9527	74	74
70.8267	70.9527	71	70
70.9457	71.1976	69	70
70.9467	71.1976	45	45
70.9487	71.1976	57	53
71.9047	72.3947	73	50
72.1467	72.3947	74	52
72.2687	72.3947	71	46
72.3847	73.2587	69	49
72.8787	73.2587	57	40
72.8787	73.2587	85	57
72.8807	73.2587	66	40
73.3577	73.8327	75	50
73.3607	73.8366	59	40
73.3607	73.8377	69	40
73.8377	74.7827	64	40
73.8377	74.7827	76	52
73.8397	74.7827	68	40
74.5447	74.7827	77	51
74.7817	75.0057	80	57
75.0057	75.2437	78	56
75.2446	75.4707	76	54
75.4717	75.7086	74	53
75.7097	75.9406	73	52
75.9406	76.1846	71	51
76.1846	76.6606	69	51
76.1856	76.6606	52	39
76.4237	76.6606	68	46
76.4267	76.6606	62	33
76.6566	77.1196	76	53
76.6577	77.1166	59	33
76.8857	77.1196	62	28
76.8857	77.1196	74	51
77.1166	77.5956	59	31
77.3546	77.5956	62	29
77.5856	78.0586	71	57
77.5866	78.0586	52	40
77.8246	78.0586	69	53
77.8266	78.0586	61	34
78.0546	78.5236	78	57
78.0576	78.5166	57	34
78.2826	78.5236	76	56
78.2856	78.5236	61	30
78.5166	78.9886	57	32
78.7446	78.9886	61	28
78.9826	79.4646	71	63
78.9856	79.4646	52	42
79.2196	79.4646	61	36
79.2196	79.4646	69	59
79.4626	79.9276	57	36
79.4626	79.9276	81	62
79.6956	79.9276	79	59
79.6966	79.9276	61	34
79.9276	80.3966	57	36
80.1616	80.3996	61	34
80.3956	80.6266	79	55
80.3966	80.8576	50	28
80.3966	80.8576	57	28
80.3996	80.8616	62	34
80.6276	80.8616	78	52
80.8616	81.0956	76	51
81.0956	81.3336	74	50
81.3346	81.5716	73	49
81.5726	81.8166	71	47
81.8166	81.9386	76	49
81.8176	82.1706	49	40
81.9396	81.9946	78	45
81.9956	82.0546	76	45
82.0546	82.1106	74	45
82.1146	82.1706	76	45
82.1706	82.3096	78	52
82.1736	82.3106	50	33
82.3106	82.7966	69	51
82.3136	83.2756	52	38
82.3146	82.7966	61	38
82.8006	83.2806	59	32
82.8006	83.2796	68	48
83.1616	83.2206	69	66
83.2206	83.2826	73	67
83.2826	83.7466	76	67
83.2836	84.2176	57	54
83.5116	83.9776	61	46
83.7466	84.2176	64	50
83.7466	84.6765	76	69
83.9776	84.2176	61	46
84.2136	84.4456	59	50
84.4456	84.6796	57	45
84.6805	85.1455	56	54
84.6805	85.1455	76	65
84.7956	85.1455	74	64
84.9116	85.1455	73	63
84.9136	85.1455	57	45
85.0266	85.1426	71	63
85.1426	85.6105	71	64
85.1455	85.6105	59	45
85.2546	85.6105	69	63
85.3706	85.6105	68	62
85.3726	85.6105	52	45
85.4855	85.6105	66	61
85.6015	86.1286	64	63
85.6035	86.1286	54	48
85.7196	85.9535	62	60
85.8345	86.0736	61	60
85.8375	86.1286	56	45
85.9535	86.1286	62	60
86.0736	86.1846	61	60
86.0755	86.5446	57	54
86.1876	86.5386	64	62
86.3116	86.5446	61	46
86.3116	86.5446	69	63
86.4256	86.5446	73	64
86.5386	86.7686	64	46
86.5386	87.2206	76	65
86.7696	86.9935	61	46
86.9935	87.2216	59	49
87.2216	87.4516	88	65
87.2246	87.4525	57	46
87.4525	87.9245	88	70
87.4545	87.9245	56	52
87.5676	87.9245	86	70
87.6866	87.9245	85	69
87.6896	87.9245	57	44
87.8025	87.9205	83	69
87.9205	88.3856	59	51
87.9205	88.3856	83	68
88.0356	88.3856	81	67
88.1516	88.3856	80	67
88.1526	88.3856	52	44
88.2676	88.3856	78	66
88.3766	88.9046	76	66
88.3796	88.9046	54	50
88.4996	88.7295	74	65
88.6146	88.8525	73	65
88.6176	88.9046	56	46
88.7295	88.9046	74	64
88.8525	88.9675	73	63
88.8556	89.3146	57	51
88.9675	89.3215	76	64
89.0856	89.3106	74	60
89.2016	89.3215	73	61
89.3106	89.7766	74	62
89.3136	89.7726	54	40
89.3146	89.7756	57	48
89.4266	89.7766	76	63
89.5425	89.7766	78	64
89.6536	89.7766	80	66
89.7726	90.2416	50	44
89.7726	90.2416	54	44
89.7726	90.2416	81	67
89.7756	90.2346	57	52
89.8846	90.2416	83	68
90.0036	90.2416	85	70
90.1196	90.2416	86	71
90.2306	90.6865	88	72
90.2346	90.6865	49	47
90.2346	90.6865	52	47
90.2346	90.6865	57	56
90.3455	90.6865	86	71
90.4555	90.6865	85	69
90.5635	90.6865	83	68
90.6855	90.7905	81	66
90.7915	91.1305	80	65
90.9026	91.1305	78	63
91.0115	91.1305	76	62
91.1245	91.6065	74	60
91.2315	91.6065	73	59
91.3475	91.6065	71	57
91.4606	91.6065	69	56
91.5995	91.7215	80	59
91.6035	92.1036	50	38
91.6035	92.1036	59	45
91.6626	91.7855	78	55
91.7215	91.9695	80	59
91.7855	91.9075	78	55
91.8406	92.1036	76	59
91.9075	92.1036	78	55
91.9695	92.1036	80	55
92.0336	92.1036	81	55
92.0926	92.6315	69	59
92.0965	93.1365	52	33
92.0965	92.6315	61	39
92.5446	92.6315	73	50
92.6216	93.1365	68	53
92.6225	93.1365	71	53
92.6245	93.1365	62	39
93.1355	93.6755	57	35
93.1355	93.6745	69	51
93.1365	93.6775	61	42
93.6785	94.2285	45	35
94.7075	95.2005	64	61
94.7775	95.2005	76	74
95.1975	95.6695	66	61
95.2565	95.6695	78	70
95.6665	96.2105	67	61
95.7225	96.2105	79	70
96.2095	96.6825	71	56
96.2105	96.6825	54	47
96.4405	96.6825	61	39
96.6775	97.1465	70	52
96.6815	97.1465	66	39
96.9095	97.1465	64	39
97.1435	97.6265	62	39
97.3815	97.6265	61	39
97.4965	97.6265	70	51
97.6205	98.0985	54	47
97.6205	98.0985	73	57
97.8575	98.0985	62	42
98.0955	98.5645	71	56
98.0965	98.5645	66	42
98.3205	98.5645	62	42
98.5545	99.0335	61	42
98.7915	99.0335	59	42
98.9035	99.0335	71	63
99.0245	99.4985	74	66
99.0265	99.4985	54	56
99.2545	99.4985	58	47
99.4955	99.9745	73	60
99.4965	99.9745	64	47
99.7235	99.9745	61	47
99.9645	100.437	59	47
100.199	100.437	58	47
100.314	100.437	73	68
100.433	100.905	76	72
100.437	100.905	59	57
100.668	100.905	74	68
100.898	101.374	77	72
101.13	101.374	76	67
101.368	101.841	79	70
101.598	101.841	77	66
101.837	102.313	69	56
101.84	102.313	52	47
102.07	102.313	59	39
102.302	102.767	68	52
102.306	102.767	64	39
102.534	102.767	62	39
102.764	103.247	60	39
102.999	103.247	59	39
103.121	103.247	68	51
103.244	103.716	71	57
103.245	103.716	52	47
103.475	103.716	60	42
103.715	104.181	69	56
103.716	104.181	64	42
103.947	104.181	60	42
104.172	104.657	59	42
104.41	104.657	57	42
104.524	104.657	69	63
104.647	105.13	72	66
104.651	105.13	52	56
104.885	105.13	56	47
105.119	105.591	71	60
105.12	105.591	62	47
105.351	105.591	59	47
105.582	106.061	57	47
105.819	106.061	56	47
105.934	106.061	71	68
106.058	106.534	74	72
106.061	106.999	57	57
106.284	106.534	72	68
106.523	106.999	71	72
106.754	106.999	69	67
106.995	107.222	81	73
106.996	107.461	43	69
106.996	107.461	55	69
107.222	107.405	81	70
107.465	108.402	41	72
107.465	108.402	83	78
107.468	108.402	53	72
107.688	108.402	81	78
107.927	108.402	79	77
108.165	108.402	77	75
108.4	108.633	76	79
108.637	108.892	75	75
108.893	109.361	57	61
108.893	109.834	84	81
108.894	110.325	54	61
109.131	109.834	56	42
109.361	109.834	57	46
109.593	109.834	60	41
109.831	110.325	75	55
109.834	110.325	59	46
110.076	110.325	57	41
110.321	111.021	76	55
110.324	110.789	52	57
110.324	110.79	56	57
111.021	111.142	78	57
111.143	111.265	76	46
111.266	111.381	76	55
111.381	111.496	74	53
111.497	111.619	73	52
111.619	111.751	71	51
111.752	112.82	61	64
111.819	112.818	64	64
111.886	112.82	69	76
111.888	112.82	45	59
111.889	112.82	57	70
112.818	113.296	64	70
112.819	113.296	40	53
112.82	113.296	52	63
113.293	113.779	73	72
113.296	113.779	49	48
113.296	113.779	61	57
113.537	113.779	74	74
113.653	113.779	71	70
113.776	114.02	45	45
113.776	114.02	69	70
113.778	114.02	57	53
114.73	115.217	73	50
114.969	115.217	74	52
115.085	115.217	71	46
115.207	116.078	69	49
115.7	116.078	57	40
115.7	116.078	85	57
115.703	116.078	66	40
116.179	116.651	75	50
116.183	116.652	59	40
116.183	116.652	69	40
116.655	117.597	76	52
116.656	117.597	64	40
116.656	117.597	68	40
117.36	117.597	77	51
117.597	117.825	80	57
117.825	118.062	78	56
118.063	118.293	76	54
118.294	118.532	74	53
118.532	118.762	73	52
118.766	119.014	71	51
119.015	119.484	52	39
119.015	119.484	69	51
119.249	119.484	62	33
119.249	119.484	68	46
119.48	119.949	76	53
119.484	119.939	59	33
119.707	119.949	62	28
119.707	119.949	74	51
119.939	120.418	59	31
120.17	120.418	62	29
120.408	120.883	71	57
120.409	120.883	52	40
120.646	120.883	69	53
120.649	120.883	61	34
120.879	121.349	78	57
120.88	121.338	57	34
121.105	121.349	76	56
121.108	121.349	61	30
121.338	121.811	57	32
121.57	121.811	61	28
121.808	122.287	71	63
121.809	122.287	52	42
122.04	122.287	69	59
122.042	122.287	61	36
122.284	122.753	81	62
122.287	122.749	57	36
122.515	122.753	79	59
122.519	122.753	61	34
122.749	123.221	57	36
122.981	123.222	61	34
123.219	123.687	50	28
123.219	123.449	79	55
123.221	123.687	57	28
123.222	123.688	62	34
123.449	123.691	78	52
123.691	123.918	76	51
123.919	124.156	74	50
124.157	124.398	73	49
124.398	124.639	71	47
124.639	124.761	76	49
124.643	124.993	49	40
124.762	124.817	78	45
124.818	124.877	76	45
124.878	124.933	74	45
124.937	124.993	76	45
124.994	125.132	78	52
124.996	125.133	50	33
125.133	125.619	69	51
125.136	126.102	52	38
125.137	125.623	61	38
125.623	126.103	68	48
125.624	126.103	59	32
125.987	126.043	69	66
126.046	126.106	73	67
126.106	126.575	76	67
126.11	127.043	57	54
126.34	126.806	61	46
126.575	127.505	76	69
126.576	127.043	64	50
126.806	127.043	61	46
127.037	127.268	59	50
127.268	127.506	57	45
127.509	127.971	76	65
127.51	127.971	56	54
127.625	127.971	74	64
127.743	127.971	73	63
127.744	127.971	57	45
127.85	127.968	71	63
127.968	128.429	71	64
127.969	128.429	59	45
128.08	128.429	69	63
128.195	128.429	52	45
128.195	128.429	68	62
128.311	128.429	66	61
128.427	128.948	54	48
128.427	128.948	64	63
128.542	128.78	62	60
128.658	128.896	61	60
128.66	128.948	56	45
128.78	128.948	62	60
128.896	129.01	61	60
128.899	129.371	57	54
129.011	129.361	64	62
129.127	129.371	69	63
129.129	129.371	61	46
129.242	129.371	73	64
129.361	129.585	64	46
129.361	130.043	76	65
129.588	129.816	61	46
129.817	130.044	59	49
130.046	130.277	88	65
130.047	130.278	57	46
130.278	130.739	88	70
130.279	130.739	56	52
130.394	130.739	86	70
130.505	130.739	57	44
130.505	130.739	85	69
130.62	130.73	83	69
130.73	131.198	83	68
130.732	131.198	59	51
130.845	131.198	81	67
130.964	131.198	80	67
130.965	131.198	52	44
131.076	131.198	78	66
131.195	131.712	54	50
131.195	131.712	76	66
131.311	131.541	74	65
131.429	131.712	56	46
131.429	131.667	73	65
131.541	131.712	74	64
131.667	131.779	73	63
131.668	132.133	57	51
131.779	132.14	76	64
131.899	132.13	74	60
132.011	132.14	73	61
132.13	132.585	54	40
132.13	132.591	74	62
132.133	132.587	57	48
132.245	132.591	76	63
132.354	132.591	78	64
132.472	132.591	80	66
132.584	133.054	81	67
132.585	133.054	50	44
132.585	133.054	54	44
132.587	133.053	57	52
132.697	133.054	83	68
132.812	133.054	85	70
132.928	133.054	86	71
133.05	133.505	88	72
133.051	133.505	49	47
133.053	133.505	52	47
133.053	133.505	57	56
133.158	133.505	86	71
133.274	133.505	85	69
133.382	133.505	83	68
133.495	133.602	81	66
133.603	133.942	80	65
133.718	133.942	78	63
133.83	133.942	76	62
133.939	134.422	74	60
134.047	134.422	73	59
134.159	134.422	71	57
134.278	134.422	69	56
134.408	134.538	80	59
134.411	134.925	50	38
134.411	134.925	59	45
134.474	134.604	78	55
134.538	134.786	80	59
134.604	134.73	78	55
134.664	134.925	76	59
134.73	134.925	78	55
134.786	134.925	80	55
134.853	134.925	81	55
134.918	135.465	69	59
134.919	136.001	52	33
134.919	135.465	61	39
135.377	135.465	73	50
135.454	136.001	68	53
135.458	136.001	62	39
135.458	136.001	71	53
135.998	136.532	69	51
136.0	136.536	57	35
136.001	136.536	61	42
136.539	137.075	45	35
139.231	139.794	66	42
139.234	141.334	38	37
139.234	140.814	69	50
139.238	141.334	50	44
139.519	140.049	57	45
139.791	140.816	62	42
139.794	140.814	66	50
140.049	140.547	57	47
140.291	140.816	64	44
140.292	140.816	67	52
140.547	140.816	57	49
140.814	141.328	66	45
140.814	141.334	69	54
141.083	141.334	57	48
141.328	141.824	62	42
141.328	141.825	66	50
141.573	141.835	61	39
141.576	141.835	64	47
141.824	142.332	62	42
141.825	142.331	66	50
142.08	142.332	64	39
142.083	142.332	67	47
142.331	142.839	66	42
142.332	142.839	69	50
142.579	142.839	62	45
142.829	143.34	67	45
142.83	143.35	71	53
143.078	143.35	62	47
143.34	143.861	45	34
143.34	143.861	67	45
143.34	143.861	73	54
143.343	143.861	57	41
143.595	143.861	64	47
143.858	144.383	66	45
143.858	144.39	74	54
143.859	144.39	38	34
143.861	144.39	50	41
144.118	144.39	69	49
144.379	144.88	62	42
144.383	144.88	66	50
144.384	144.88	78	55
144.631	144.891	61	39
144.632	144.891	64	47
144.632	144.891	76	46
144.88	145.387	62	42
144.88	145.384	66	50
144.88	145.387	78	54
145.135	145.387	64	39
145.135	145.387	67	47
145.136	145.387	79	47
145.384	145.891	66	42
145.385	145.891	69	50
145.387	145.891	81	53
145.626	145.891	62	45
145.881	146.4	67	45
145.885	146.406	71	53
145.885	146.406	83	53
146.136	146.406	62	47
146.4	146.924	67	45
146.4	146.924	73	54
146.402	146.924	85	53
146.654	146.924	64	47
146.921	147.467	66	45
146.922	147.47	74	54
146.923	147.477	86	54
147.187	147.477	69	49
147.467	147.718	66	45
147.47	147.722	74	54
147.722	147.974	64	41
147.723	147.977	73	49
147.978	148.225	62	41
147.978	148.226	71	49
148.226	148.499	61	41
148.229	148.499	69	49
148.499	149.024	59	45
148.502	149.024	68	54
148.503	149.024	52	41
148.756	149.024	64	47
149.018	149.538	61	43
149.018	149.528	69	51
149.02	149.538	49	35
149.272	149.538	64	42
149.528	150.036	69	44
149.528	150.036	73	52
149.532	150.036	45	35
149.784	150.036	64	42
150.033	150.567	68	43
150.036	150.567	52	40
150.036	150.567	71	51
150.288	150.567	64	44
150.554	151.065	66	45
150.557	151.065	74	54
150.558	151.065	86	60
150.799	151.065	64	41
150.802	151.065	73	49
150.802	151.065	85	58
151.061	151.586	62	41
151.061	151.586	71	49
151.065	151.586	83	56
151.316	151.586	61	41
151.317	151.586	69	49
151.317	151.586	81	56
151.513	151.586	87	54
151.58	152.073	59	45
151.58	152.073	68	54
151.581	152.073	88	65
151.825	152.073	64	47
152.006	152.073	87	54
152.069	152.562	61	43
152.072	152.56	69	51
152.073	152.561	88	65
152.314	152.562	64	42
152.493	152.562	87	54
152.56	153.054	69	44
152.56	153.054	73	52
152.561	153.053	88	66
152.801	153.054	64	42
152.986	153.054	87	54
153.052	153.564	68	43
153.053	153.564	71	51
153.053	153.564	88	65
153.302	153.561	64	44
153.561	155.068	64	64
153.563	153.816	45	51
153.563	153.815	73	64
153.816	154.063	71	59
153.82	154.067	44	47
154.068	154.309	45	51
154.068	154.309	73	61
154.312	154.561	74	54
154.313	154.561	47	47
154.562	155.068	76	66
154.564	155.068	49	51
154.803	155.061	69	59
155.061	155.569	69	64
155.065	155.569	73	64
155.066	155.569	52	46
155.303	155.569	64	58
155.56	156.067	68	64
155.562	156.067	40	49
155.562	156.067	71	64
155.803	156.067	64	58
156.066	156.577	69	64
156.067	156.578	45	49
156.307	156.578	64	58
156.577	156.825	69	64
156.577	156.829	73	64
156.578	156.83	85	58
156.832	157.07	68	59
156.832	157.071	71	59
156.833	157.074	83	53
157.075	157.326	69	61
157.077	157.329	73	61
157.078	157.33	85	59
157.33	157.578	71	54
157.334	157.578	74	54
157.334	157.581	86	52
157.582	158.079	73	66
157.582	158.089	76	66
157.585	158.089	88	58
157.823	158.078	69	59
158.078	158.589	69	64
158.079	158.589	73	64
158.082	158.589	85	62
158.321	158.589	64	58
158.576	159.086	68	64
158.579	159.086	71	64
158.579	159.086	83	59
158.822	159.086	64	58
159.084	159.59	69	64
159.086	159.59	81	56
159.325	159.59	64	58
159.58	160.084	66	61
159.584	160.084	50	36
159.584	160.084	59	43
159.825	160.084	74	53
160.077	160.584	71	61
160.078	160.584	52	32
160.078	160.584	62	38
160.325	160.584	68	55
160.578	161.078	61	43
160.578	161.078	69	59
160.579	161.078	57	36
160.823	161.078	64	50
161.075	161.585	50	32
161.075	161.585	66	56
161.078	161.585	59	38
161.323	161.585	74	50
161.579	162.107	71	57
161.582	162.107	62	43
161.583	162.107	52	36
161.834	162.107	68	48
162.104	162.604	57	34
162.104	162.604	61	40
162.104	162.597	69	52
162.345	162.604	68	46
162.597	162.842	69	52
162.845	163.083	71	45
163.087	163.353	67	48
163.353	163.651	64	48
163.651	164.204	66	42
163.652	165.229	69	50
163.654	165.744	38	37
163.654	165.744	50	44
163.928	164.46	57	45
164.203	165.232	62	42
164.204	165.232	66	50
164.46	164.957	57	47
164.708	165.232	64	44
164.708	165.232	67	52
164.957	165.232	57	49
165.229	165.744	69	54
165.232	165.744	66	45
165.491	165.744	57	48
165.743	166.234	62	42
165.744	166.237	66	50
165.985	166.244	61	39
165.986	166.244	64	47
166.234	166.742	62	42
166.237	166.741	66	50
166.49	166.742	64	39
166.492	166.742	67	47
166.741	167.249	66	42
166.742	167.249	69	50
166.99	167.249	62	45
167.238	167.753	67	45
167.239	167.766	71	53
167.49	167.766	62	47
167.753	168.278	67	45
167.756	168.278	73	54
167.757	168.278	45	34
167.757	168.278	57	41
168.005	168.278	64	47
168.274	168.792	66	45
168.274	168.795	74	54
168.275	168.795	38	34
168.277	168.795	50	41
168.527	168.795	69	49
168.788	169.288	62	42
168.792	169.289	66	50
168.793	169.289	78	55
169.04	169.299	61	39
169.041	169.299	64	47
169.041	169.299	76	46
169.288	169.798	62	42
169.289	169.794	66	50
169.289	169.798	78	54
169.545	169.798	64	39
169.548	169.798	67	47
169.548	169.798	79	47
169.794	170.301	66	42
169.797	170.301	69	50
169.797	170.301	81	53
170.042	170.301	62	45
170.298	170.809	67	45
170.298	170.819	71	53
170.301	170.819	83	53
170.547	170.819	62	47
170.809	171.334	67	45
170.809	171.334	73	54
170.812	171.334	85	53
171.063	171.334	64	47
171.33	171.876	66	45
171.333	171.878	74	54
171.333	171.885	86	54
171.6	171.885	69	49
171.876	172.131	66	45
171.878	172.131	74	54
172.132	172.383	64	41
172.135	172.387	73	49
172.388	172.635	62	41
172.39	172.636	71	49
172.636	172.908	61	41
172.638	172.909	69	49
172.911	173.436	59	45
172.912	173.436	52	41
172.912	173.436	68	54
173.164	173.436	64	47
173.427	173.954	61	43
173.43	173.954	49	35
173.43	173.941	69	51
173.682	173.954	64	42
173.941	174.452	69	44
173.944	174.452	73	52
173.945	174.452	45	35
174.193	174.452	64	42
174.449	174.977	68	43
174.449	174.977	71	51
174.452	174.977	52	40
174.7	174.977	64	44
174.963	175.477	66	45
174.966	175.477	74	54
174.967	175.477	86	60
175.218	175.477	64	41
175.219	175.477	73	49
175.219	175.477	85	58
175.472	175.996	62	41
175.473	175.996	71	49
175.474	175.996	83	56
175.726	175.996	61	41
175.729	175.996	69	49
175.729	175.996	81	56
175.922	175.996	87	54
175.995	176.492	59	45
175.995	176.492	68	54
175.996	176.482	88	65
176.237	176.492	64	47
176.422	176.492	87	54
176.481	176.975	61	43
176.482	176.968	69	51
176.482	176.972	88	65
176.723	176.975	64	42
176.902	176.975	87	54
176.968	177.472	69	44
176.969	177.472	73	52
176.972	177.462	88	66
177.213	177.472	64	42
177.395	177.472	87	54
177.461	177.983	68	43
177.462	177.983	71	51
177.462	177.983	88	65
177.711	177.98	64	44
177.98	179.477	64	64
177.98	178.225	73	64
177.981	178.228	45	51
178.228	178.473	71	59
178.229	178.476	44	47
178.477	178.718	73	61
178.48	178.719	45	51
178.721	178.97	74	54
178.722	178.97	47	47
178.971	179.477	76	66
178.974	179.477	49	51
179.215	179.471	69	59
179.471	179.978	69	64
179.474	179.978	73	64
179.475	179.978	52	46
179.713	179.978	64	58
179.971	180.479	40	49
179.971	180.479	68	64
179.971	180.479	71	64
180.213	180.479	64	58
180.476	180.987	45	49
180.476	180.983	69	64
180.724	180.987	64	58
180.983	181.238	69	64
180.987	181.242	73	64
180.987	181.242	85	58
181.243	181.49	68	59
181.243	181.49	71	59
181.245	181.491	83	53
181.491	181.735	69	61
181.494	181.738	73	61
181.494	181.739	85	59
181.742	181.987	71	54
181.743	181.988	74	54
181.743	181.988	86	52
181.99	182.491	73	66
181.991	182.498	76	66
181.994	182.498	88	58
182.232	182.489	69	59
182.489	182.998	69	64
182.491	182.998	73	64
182.491	182.998	85	62
182.733	182.998	64	58
182.988	183.496	68	64
182.989	183.496	71	64
182.991	183.496	83	59
183.232	183.496	64	58
183.492	183.999	69	64
183.496	183.999	81	56
183.741	183.999	64	58
183.993	184.497	66	61
183.994	184.497	50	36
183.996	184.497	59	43
184.238	184.497	74	53
184.493	184.994	62	38
184.493	184.994	71	61
184.497	184.994	52	32
184.735	184.994	68	55
184.991	185.494	69	59
184.993	185.494	61	43
184.994	185.494	57	36
185.236	185.494	64	50
185.484	185.998	66	56
185.487	185.998	50	32
185.487	185.998	59	38
185.732	185.998	74	50
185.991	186.519	71	57
185.992	186.519	52	36
185.992	186.519	62	43
186.251	186.519	68	48
186.513	187.013	57	34
186.513	187.006	69	52
186.516	187.013	61	40
186.758	187.013	68	46
187.006	187.254	69	52
187.255	187.504	71	45
187.504	187.752	67	48
187.752	188.007	64	48
188.007	188.568	66	42
188.008	189.586	69	50
188.011	190.107	35	37
188.011	190.107	47	44
188.294	188.822	59	45
188.567	189.589	63	42
188.568	189.589	66	50
188.822	189.321	59	47
189.065	189.589	64	44
189.068	189.589	67	52
189.321	189.589	59	49
189.586	190.107	69	54
189.589	190.103	66	45
189.851	190.107	59	48
190.101	190.601	63	37
190.103	190.601	66	45
190.104	190.601	84	54
190.35	190.601	59	42
190.352	190.601	83	50
190.598	191.111	64	39
190.598	191.111	67	46
190.601	191.111	81	54
190.843	191.111	59	44
190.846	191.111	79	50
191.104	191.605	69	48
191.105	191.605	66	40
191.108	191.605	78	54
191.354	191.605	59	43
191.603	192.098	63	37
191.605	192.098	66	45
191.605	192.098	81	54
191.848	192.098	59	42
191.85	192.098	79	50
192.096	192.603	64	39
192.097	192.603	67	46
192.098	192.603	78	55
192.341	192.603	59	44
192.343	192.603	76	50
192.599	193.17	69	48
192.603	193.17	66	40
192.603	193.17	75	54
193.124	193.342	71	60
193.125	193.342	83	71
193.128	193.345	47	49
193.128	193.345	59	59
193.365	193.586	69	56
193.366	193.59	81	66
193.369	193.59	45	46
193.37	193.59	57	55
193.608	193.831	67	60
193.611	193.832	43	49
193.611	193.832	55	59
193.611	193.831	79	71
193.859	194.083	66	56
193.859	194.087	78	67
193.86	194.087	42	46
193.863	194.088	54	55
194.115	194.59	64	62
194.116	194.591	40	50
194.116	194.591	76	74
194.118	194.594	52	60
194.643	195.672	64	60
194.644	195.673	40	46
194.644	195.673	76	71
194.646	195.673	52	55
195.158	196.057	71	61
195.158	196.057	83	73
195.161	196.057	47	50
195.161	196.057	59	60
195.672	196.117	64	60
195.673	196.118	40	46
195.673	196.12	52	55
195.673	196.117	76	71
196.169	196.386	71	60
196.169	196.387	83	71
196.17	196.387	47	49
196.173	196.387	59	59
196.411	196.631	69	56
196.414	196.632	81	66
196.415	196.634	45	46
196.418	196.638	57	55
196.655	196.883	67	60
196.656	196.884	79	71
196.659	196.884	43	49
196.66	196.886	55	59
196.911	197.142	66	56
196.912	197.146	78	67
196.914	197.146	42	46
196.915	197.149	54	55
197.171	197.65	64	62
197.174	197.651	76	74
197.178	197.653	40	50
197.178	197.653	52	60
197.699	198.728	64	60
197.702	198.728	76	71
197.703	198.731	40	46
197.706	198.731	52	55
198.213	199.067	71	61
198.214	199.067	47	50
198.214	199.067	83	73
198.216	199.067	59	60
198.728	199.207	64	60
198.728	199.208	76	71
198.731	199.208	40	46
198.731	199.209	52	55
199.256	199.511	76	50
199.512	199.768	74	46
199.768	200.023	76	50
200.026	200.278	77	47
200.278	200.797	79	51
200.279	201.311	60	42
200.54	201.049	64	39
200.797	201.557	79	53
200.8	201.311	67	42
201.049	201.311	64	39
201.301	201.825	59	35
201.304	201.825	65	42
201.557	201.825	79	50
201.559	201.825	62	37
201.815	202.833	60	42
201.815	202.833	84	55
202.067	202.575	64	37
202.326	202.833	67	42
202.326	202.833	79	50
202.575	202.833	64	37
202.824	203.345	59	35
202.826	203.345	65	42
203.072	203.345	62	38
203.328	203.828	79	56
203.331	204.328	60	46
203.582	204.076	64	42
203.828	204.581	79	58
203.831	204.328	67	46
204.076	204.328	64	42
204.328	204.846	59	38
204.328	204.846	65	46
204.581	204.846	79	55
204.583	204.846	62	40
204.842	206.357	84	60
204.843	205.833	60	46
205.087	205.577	64	40
205.336	206.211	79	55
205.34	206.357	67	46
205.577	206.079	64	40
205.833	206.357	60	46
206.079	206.357	64	41
206.211	206.357	79	61
206.348	207.856	88	70
206.35	207.867	58	53
206.593	207.594	60	45
206.845	207.723	79	55
206.848	207.348	64	51
207.096	207.867	67	43
207.348	207.867	64	52
207.594	207.867	60	46
207.723	207.867	79	65
207.856	209.351	88	74
207.857	209.35	57	58
208.104	209.091	61	51
208.35	209.218	79	61
208.353	208.844	64	58
208.595	209.351	67	50
208.844	209.351	64	58
209.091	209.351	61	51
209.218	209.348	79	55
209.348	209.595	79	60
209.35	210.334	57	48
209.35	210.335	62	57
209.596	209.841	77	58
209.841	210.085	76	58
210.085	210.337	77	54
210.338	210.831	56	41
210.338	210.583	64	49
210.338	210.582	76	58
210.585	210.831	74	55
210.586	210.835	65	43
210.835	211.076	73	58
210.838	211.324	57	44
210.838	211.328	64	52
211.076	211.328	80	55
211.329	211.569	81	58
211.57	211.814	80	55
211.815	212.063	81	58
212.063	212.308	76	55
212.309	213.789	62	43
212.309	212.553	79	60
212.311	213.789	58	43
212.311	213.789	68	51
212.554	212.795	77	58
212.795	213.043	76	58
213.043	213.295	77	54
213.296	213.536	76	58
213.54	213.792	74	55
213.792	214.03	81	58
213.793	214.283	57	44
213.793	214.282	61	44
213.796	214.283	69	52
214.03	214.283	80	55
214.285	214.523	81	58
214.524	214.775	76	55
214.776	215.017	77	58
214.777	215.269	57	37
214.778	215.27	62	37
214.779	215.27	65	44
215.017	215.272	74	55
215.272	215.51	81	58
215.273	215.765	61	44
215.276	215.77	57	44
215.276	215.77	64	52
215.514	215.771	80	55
215.772	216.004	81	58
216.004	216.252	76	55
216.256	216.745	57	37
216.256	216.497	77	58
216.259	216.75	62	37
216.259	216.75	65	44
216.498	216.752	74	49
216.753	217.247	57	44
216.753	216.998	69	51
216.754	217.25	61	44
216.757	217.25	64	52
216.998	217.25	68	45
217.251	217.502	69	51
217.505	217.757	68	47
217.758	218.019	69	51
218.02	218.286	68	44
218.286	218.84	66	42
218.287	219.865	69	50
218.29	220.386	38	37
218.29	220.386	50	44
218.574	219.102	57	45
218.839	219.869	62	42
218.84	219.868	66	50
219.102	219.596	57	47
219.343	219.869	64	44
219.346	219.869	67	52
219.596	219.869	57	49
219.865	220.386	69	54
219.868	220.386	66	45
220.13	220.386	62	48
220.38	220.88	71	42
220.382	220.887	74	50
220.628	220.887	69	39
220.628	220.887	73	47
220.877	221.381	67	42
220.88	221.383	71	50
221.133	221.383	66	39
221.135	221.383	69	47
221.381	221.891	67	50
221.383	221.891	47	53
221.626	221.891	62	45
221.881	222.402	66	45
221.884	222.402	45	49
221.884	222.402	69	53
222.13	222.402	62	47
222.392	222.913	67	45
222.395	222.913	71	54
222.396	222.913	43	47
222.641	222.913	62	47
222.909	223.428	69	54
222.91	223.428	50	53
222.91	223.428	66	45
223.172	223.428	62	48
223.421	223.922	71	39
223.421	223.928	74	47
223.424	223.928	86	55
223.672	223.928	69	37
223.673	223.928	73	44
223.673	223.928	85	51
223.921	224.429	67	39
223.922	224.43	71	47
223.922	224.43	83	55
224.177	224.43	66	37
224.178	224.43	69	44
224.18	224.43	81	51
224.425	224.932	64	42
224.429	224.932	67	47
224.429	224.932	79	55
224.673	224.932	62	42
224.923	225.444	66	42
224.925	225.444	69	50
224.926	225.444	81	58
225.173	225.444	62	44
225.433	225.954	67	42
225.437	225.954	71	51
225.437	225.954	83	59
225.683	225.954	62	44
225.952	226.472	66	42
225.952	226.472	69	51
225.954	226.472	81	59
226.211	226.472	62	45
226.462	226.963	67	42
226.465	226.97	71	50
226.711	226.97	66	39
226.714	226.97	69	47
226.96	227.471	64	42
226.963	227.471	67	50
227.211	227.471	62	39
227.212	227.471	66	47
227.468	227.967	61	45
227.471	227.967	45	53
227.471	227.967	64	50
227.708	227.967	57	45
227.965	228.478	62	45
227.967	228.485	42	49
227.967	228.485	69	53
228.215	228.485	57	47
228.478	228.996	62	45
228.479	228.996	38	47
228.479	228.996	66	54
228.731	228.996	57	47
228.994	229.514	61	45
228.994	229.514	64	54
228.996	229.514	45	53
229.253	229.514	57	48
229.504	230.007	67	39
229.507	230.015	71	47
229.507	230.015	83	55
229.755	230.015	66	37
229.756	230.015	69	44
229.759	230.015	81	51
230.005	230.505	64	39
230.007	230.508	67	47
230.008	230.508	79	55
230.254	230.508	62	37
230.256	230.508	66	44
230.257	230.508	78	51
230.442	230.508	80	48
230.504	231.012	61	42
230.505	231.012	64	47
230.505	231.005	81	63
230.75	231.012	57	42
230.935	231.012	80	48
231.002	231.502	66	42
231.003	231.509	69	50
231.005	231.503	81	63
231.251	231.509	57	44
231.432	231.509	80	48
231.502	232.003	62	42
231.502	232.003	66	51
231.503	232.003	81	64
231.748	232.003	57	44
231.933	232.003	80	48
232.0	232.514	64	51
232.001	232.514	61	42
232.003	232.514	81	64
232.262	232.514	69	45
232.511	234.011	62	50
232.511	232.762	74	64
232.514	232.765	59	46
232.766	233.014	73	59
232.769	233.015	58	41
233.015	233.255	74	61
233.017	233.259	59	47
233.259	233.508	71	54
233.26	233.508	55	41
233.511	234.018	54	48
233.511	234.018	69	63
233.753	234.018	57	55
234.009	234.519	67	61
234.011	234.519	62	54
234.012	234.519	52	44
234.254	234.519	59	54
234.509	235.017	61	54
234.509	235.017	64	61
234.512	235.017	45	44
234.751	235.017	57	51
235.012	235.534	62	52
235.013	235.534	66	64
235.016	235.534	50	49
235.255	235.534	69	55
235.523	235.779	71	64
235.524	235.779	74	64
235.524	235.78	86	58
235.78	236.024	70	56
235.783	236.025	73	56
235.783	236.031	85	53
236.031	236.276	71	61
236.032	236.277	74	61
236.032	236.279	86	59
236.28	236.524	67	54
236.28	236.525	71	54
236.281	236.528	83	52
236.529	237.036	66	56
236.532	237.036	69	66
236.532	237.036	81	58
236.773	237.036	62	51
237.029	237.527	64	54
237.03	237.536	67	64
237.03	237.536	79	62
237.271	237.536	59	51
237.526	238.037	61	54
237.527	238.037	64	64
237.529	238.037	76	59
237.771	238.037	57	52
238.031	238.54	62	54
238.033	238.54	66	64
238.033	238.54	74	56
238.275	238.532	69	54
238.531	239.034	59	50
238.532	239.034	69	61
238.533	239.034	43	43
238.775	239.034	67	51
239.024	239.531	55	38
239.024	239.531	64	61
239.027	239.531	45	32
239.272	239.531	61	52
239.525	240.032	62	59
239.527	240.032	54	43
239.528	240.032	50	36
239.773	240.025	69	50
240.022	240.535	59	50
240.025	240.535	69	56
240.026	240.535	43	38
240.271	240.535	67	50
240.526	241.054	64	57
240.528	241.054	45	36
240.528	241.054	55	43
240.781	241.054	61	48
241.051	241.545	62	52
241.054	241.554	50	34
241.054	241.554	54	40
241.292	241.554	61	46
241.545	241.792	62	52
241.793	242.041	64	45
242.041	242.3	66	48
242.303	242.597	67	48
242.597	243.151	66	42
242.601	244.697	35	37
242.601	244.176	69	50
242.602	244.697	47	44
242.885	243.406	59	45
243.151	244.18	63	42
243.151	244.179	66	50
243.406	243.906	59	47
243.655	244.18	64	44
243.658	244.18	67	52
243.906	244.18	59	49
244.176	244.697	69	54
244.179	244.693	66	45
244.442	244.697	59	48
244.691	245.194	63	37
244.693	245.194	66	45
244.694	245.194	84	54
244.939	245.194	59	42
244.943	245.194	83	50
245.184	245.696	64	39
245.184	245.696	67	46
245.185	245.696	81	54
245.436	245.696	59	44
245.437	245.696	79	50
245.694	246.195	69	48
245.695	246.188	66	40
245.695	246.195	78	54
245.944	246.195	59	43
246.188	246.692	63	37
246.188	246.692	66	45
246.189	246.692	81	54
246.44	246.692	59	42
246.44	246.692	79	50
246.681	247.189	64	39
246.682	247.189	67	46
246.682	247.189	78	55
246.931	247.189	59	44
246.933	247.189	76	50
247.186	247.76	66	40
247.186	247.76	69	48
247.189	247.76	75	54
247.715	247.927	71	60
247.718	247.928	47	49
247.718	247.928	83	71
247.719	247.931	59	59
247.955	248.168	69	56
247.956	248.173	81	66
247.959	248.173	45	46
247.96	248.173	57	55
248.198	248.421	67	60
248.201	248.422	43	49
248.201	248.422	79	71
248.202	248.422	55	59
248.446	248.673	66	56
248.446	248.677	78	67
248.447	248.678	42	46
248.447	248.68	54	55
248.705	249.181	64	62
248.705	249.181	76	74
248.706	249.181	40	50
248.708	249.184	52	60
249.233	250.258	64	60
249.234	250.263	40	46
249.234	250.262	76	71
249.236	250.263	52	55
249.744	250.644	71	61
249.744	250.644	83	73
249.745	250.644	47	50
249.748	250.644	59	60
250.258	250.707	64	60
250.262	250.71	76	71
250.263	250.711	40	46
250.263	250.711	52	55
250.756	250.976	71	60
250.756	250.976	83	71
250.757	250.977	47	49
250.757	250.977	59	59
251.001	251.224	69	56
251.002	251.225	45	46
251.002	251.228	57	55
251.002	251.225	81	66
251.245	251.473	67	60
251.246	251.474	79	71
251.249	251.476	43	49
251.25	251.477	55	59
251.497	251.735	66	56
251.498	251.736	42	46
251.498	251.736	78	67
251.501	251.739	54	55
251.757	252.24	64	62
251.761	252.243	40	50
251.761	252.241	76	74
251.762	252.243	52	60
252.292	253.314	64	60
252.293	253.315	40	46
252.293	253.314	76	71
252.296	253.318	52	55
252.803	253.657	71	61
252.804	253.657	47	50
252.804	253.657	83	73
252.806	253.657	59	60
253.314	253.793	64	60
253.314	253.794	76	71
253.315	253.797	40	46
253.318	253.798	52	55
253.85	254.094	76	50
254.099	254.358	74	46
254.361	254.609	76	50
254.609	254.868	77	47
254.869	255.383	79	51
254.872	255.895	60	42
255.123	255.639	64	39
255.383	255.895	67	42
255.383	256.143	79	53
255.639	255.895	64	39
255.891	256.409	59	35
255.894	256.409	65	42
256.143	256.409	79	50
256.146	256.409	62	37
256.405	257.42	84	55
256.408	257.42	60	42
256.657	257.157	64	37
256.91	257.42	79	50
256.912	257.42	67	42
257.157	257.42	64	37
257.41	257.928	59	35
257.41	257.928	65	42
257.658	257.928	62	38
257.922	258.922	60	46
257.922	258.418	79	56
258.172	258.666	64	42
258.418	259.173	79	58
258.421	258.922	67	46
258.666	258.922	64	42
258.918	259.433	59	38
258.919	259.433	65	46
259.173	259.433	62	40
259.173	259.433	79	55
259.429	260.944	84	60
259.432	260.423	60	46
259.677	260.171	64	40
259.923	260.801	79	55
259.924	260.944	67	46
260.171	260.669	64	40
260.423	260.944	60	46
260.669	260.944	64	41
260.801	260.944	79	61
260.938	262.443	88	70
260.939	262.45	58	53
261.186	262.184	60	45
261.432	261.938	64	51
261.432	262.313	79	55
261.686	262.45	67	43
261.938	262.45	64	52
262.184	262.45	60	46
262.313	262.45	79	65
262.443	263.941	57	58
262.443	263.941	88	74
262.687	263.678	61	51
262.94	263.81	79	61
262.943	263.434	64	58
263.184	263.941	67	50
263.434	263.941	64	58
263.678	263.941	61	51
263.81	263.94	79	55
263.94	264.178	79	60
263.941	264.924	57	48
263.941	264.925	62	57
264.182	264.423	77	58
264.424	264.675	76	58
264.675	264.927	77	54
264.927	265.168	76	58
264.928	265.418	56	41
264.931	265.169	64	49
265.169	265.421	74	55
265.173	265.421	65	43
265.422	265.914	57	44
265.422	265.666	73	58
265.424	265.918	64	52
265.666	265.918	80	55
265.921	266.159	81	58
266.16	266.405	80	55
266.405	266.65	81	58
266.65	266.898	76	55
266.898	267.143	79	60
266.901	268.379	58	43
266.901	268.378	62	43
266.902	268.381	68	51
267.144	267.385	77	58
267.388	267.633	76	58
267.637	267.878	77	54
267.879	268.126	76	58
268.13	268.382	74	55
268.382	268.872	61	44
268.382	268.624	81	58
268.383	268.872	57	44
268.385	268.875	69	52
268.624	268.875	80	55
268.876	269.117	81	58
269.118	269.365	76	55
269.366	269.607	77	58
269.368	269.859	57	37
269.369	269.859	62	37
269.373	269.86	65	44
269.607	269.862	74	55
269.862	270.1	81	58
269.863	270.353	57	44
269.863	270.353	61	44
269.866	270.353	64	52
270.104	270.355	80	55
270.356	270.598	81	58
270.598	270.839	76	55
270.839	271.091	77	58
270.842	271.332	57	37
270.846	271.333	62	37
270.846	271.333	65	44
271.092	271.336	74	49
271.337	271.837	57	44
271.337	271.581	69	51
271.339	271.84	61	44
271.343	271.84	64	52
271.581	271.841	68	45
271.841	272.085	69	51
272.086	272.347	68	47
272.348	272.609	69	51
272.61	272.876	68	44
272.876	273.43	66	42
272.877	274.458	69	50
272.88	274.972	38	37
272.88	274.972	50	44
273.157	273.688	57	45
273.43	274.459	62	42
273.43	274.458	66	50
273.688	274.185	57	47
273.93	274.459	64	44
273.93	274.459	67	52
274.185	274.459	57	49
274.458	274.972	66	45
274.458	274.972	69	54
274.72	274.972	62	48
274.966	275.463	71	42
274.966	275.473	74	50
275.211	275.473	69	39
275.213	275.473	73	47
275.463	275.967	67	42
275.463	275.971	71	50
275.718	275.971	66	39
275.718	275.971	69	47
275.967	276.474	67	50
275.97	276.474	47	53
276.216	276.474	62	45
276.465	276.992	66	45
276.467	276.992	45	49
276.467	276.992	69	53
276.723	276.992	62	47
276.982	277.497	67	45
276.985	277.497	71	54
276.986	277.497	43	47
277.231	277.497	62	47
277.493	278.014	69	54
277.496	278.014	66	45
277.497	278.014	50	53
277.761	278.014	62	48
278.005	278.508	71	39
278.007	278.514	74	47
278.007	278.514	86	55
278.255	278.514	69	37
278.255	278.514	73	44
278.256	278.514	85	51
278.505	279.012	67	39
278.508	279.015	71	47
278.508	279.015	83	55
278.761	279.015	66	37
278.763	279.015	69	44
278.763	279.015	81	51
279.012	279.519	64	42
279.012	279.519	67	47
279.013	279.519	79	55
279.26	279.519	62	42
279.508	280.034	66	42
279.509	280.034	69	50
279.509	280.034	81	58
279.758	280.034	62	44
280.027	280.538	67	42
280.027	280.538	71	51
280.028	280.538	83	59
280.273	280.538	62	44
280.535	281.055	69	51
280.537	281.055	66	42
280.537	281.055	81	59
280.803	281.055	62	45
281.053	281.549	67	42
281.053	281.556	71	50
281.294	281.556	66	39
281.297	281.556	69	47
281.546	282.054	64	42
281.549	282.055	67	50
281.802	282.055	62	39
281.804	282.055	66	47
282.053	282.561	61	45
282.054	282.561	45	53
282.054	282.561	64	50
282.301	282.561	57	45
282.55	283.068	62	45
282.551	283.075	69	53
282.554	283.075	42	49
282.799	283.075	57	47
283.068	283.58	62	45
283.069	283.58	38	47
283.069	283.58	66	54
283.316	283.58	57	47
283.577	284.098	64	54
283.579	284.098	45	53
283.579	284.098	61	45
283.846	284.098	57	48
284.094	284.591	67	39
284.094	284.598	71	47
284.097	284.598	83	55
284.339	284.598	66	37
284.339	284.598	69	44
284.342	284.598	81	51
284.591	285.096	64	39
284.591	285.098	67	47
284.592	285.098	79	55
284.846	285.098	62	37
284.846	285.098	66	44
284.847	285.098	78	51
285.025	285.098	80	48
285.096	285.602	61	42
285.096	285.602	64	47
285.098	285.595	81	63
285.34	285.602	57	42
285.525	285.602	80	48
285.592	286.093	66	42
285.595	286.103	69	50
285.595	286.094	81	63
285.837	286.103	57	44
286.025	286.103	80	48
286.093	286.593	62	42
286.093	286.593	66	51
286.094	286.593	81	64
286.34	286.593	57	44
286.526	286.593	80	48
286.59	287.104	64	51
286.592	287.104	61	42
286.593	287.104	81	64
286.852	287.104	69	45
287.101	288.602	62	50
287.101	287.355	74	64
287.104	287.356	59	46
287.356	287.604	73	59
287.359	287.605	58	41
287.605	287.845	74	61
287.607	287.85	59	47
287.85	288.098	71	54
287.852	288.098	55	41
288.101	288.602	54	48
288.101	288.602	69	63
288.344	288.602	57	55
288.601	289.105	67	61
288.602	289.105	52	44
288.602	289.105	62	54
288.84	289.105	59	54
289.102	289.602	61	54
289.102	289.602	64	61
289.103	289.602	45	44
289.34	289.602	57	51
289.598	290.116	62	52
289.599	290.116	50	49
289.599	290.116	66	64
289.846	290.116	69	55
290.106	290.368	71	64
290.109	290.368	74	64
290.109	290.369	86	58
290.372	290.61	70	56
290.372	290.611	73	56
290.372	290.613	85	53
290.613	290.865	71	61
290.617	290.866	74	61
290.617	290.868	86	59
290.869	291.113	67	54
290.869	291.114	71	54
290.869	291.12	83	52
291.121	291.621	66	56
291.121	291.621	69	66
291.122	291.621	81	58
291.362	291.621	62	51
291.615	292.119	64	54
291.618	292.12	67	64
291.621	292.12	79	62
291.86	292.12	59	51
292.115	292.626	61	54
292.119	292.626	64	64
292.119	292.626	76	59
292.361	292.626	57	52
292.622	293.129	62	54
292.623	293.129	66	64
292.623	293.129	74	56
292.864	293.121	69	54
293.12	293.623	59	50
293.121	293.623	69	61
293.122	293.623	43	43
293.365	293.623	67	51
293.616	294.123	55	38
293.616	294.123	64	61
293.617	294.123	45	32
293.855	294.123	61	52
294.116	294.615	62	59
294.117	294.615	50	36
294.117	294.615	54	43
294.362	294.614	69	50
294.614	295.124	59	50
294.614	295.124	69	56
294.615	295.124	43	38
294.86	295.124	67	50
295.115	295.65	64	57
295.117	295.65	45	36
295.117	295.65	55	43
295.37	295.65	61	48
295.636	296.525	50	34
295.636	296.525	54	40
295.636	296.525	62	52
296.252	296.56	38	40
297.487	298.559	61	64
297.554	298.555	64	64
297.624	298.559	45	59
297.624	298.559	69	76
297.627	298.559	57	70
298.555	299.038	64	70
298.556	299.038	40	53
298.559	299.038	52	63
299.031	299.515	73	72
299.032	299.515	49	48
299.032	299.515	61	57
299.28	299.515	74	74
299.391	299.515	71	70
299.513	299.759	69	70
299.514	299.759	45	45
299.514	299.759	57	53
300.469	300.959	73	50
300.704	300.959	74	52
300.83	300.959	71	46
300.952	301.821	69	49
301.442	301.821	85	57
301.443	301.821	57	40
301.446	301.821	66	40
301.925	302.394	75	50
301.926	302.394	59	40
301.926	302.395	69	40
302.398	303.339	64	40
302.398	303.339	76	52
302.399	303.339	68	40
303.102	303.339	77	51
303.339	303.567	80	57
303.57	303.804	78	56
303.808	304.032	76	54
304.032	304.267	74	53
304.27	304.501	73	52
304.502	304.753	71	51
304.754	305.226	52	39
304.754	305.226	69	51
304.992	305.226	62	33
304.992	305.226	68	46
305.222	305.692	76	53
305.226	305.682	59	33
305.45	305.692	74	51
305.453	305.692	62	28
305.682	306.16	59	31
305.919	306.16	62	29
306.151	306.629	52	40
306.151	306.629	71	57
306.388	306.629	69	53
306.392	306.629	61	34
306.627	307.094	78	57
306.629	307.088	57	34
306.857	307.094	76	56
306.858	307.094	61	30
307.088	307.558	57	32
307.316	307.558	61	28
307.554	308.025	76	63
307.557	308.025	50	42
307.789	308.025	74	59
307.792	308.025	59	36
308.016	308.484	79	62
308.018	308.481	54	36
308.247	308.484	78	59
308.25	308.484	59	34
308.481	308.954	54	36
308.716	308.954	59	34
308.95	309.454	50	39
308.95	309.454	66	51
309.422	309.642	76	53
309.643	309.874	74	51
309.878	310.108	73	51
310.112	310.346	71	49
310.35	310.822	52	33
310.35	310.822	62	39
310.35	310.815	69	51
310.581	310.822	68	48
310.815	311.305	57	33
310.815	311.305	69	51
310.819	311.305	61	39
311.588	311.648	71	68
311.649	311.704	76	71
311.708	311.771	80	74
311.771	313.175	83	77
311.772	312.709	52	60
312.003	312.471	56	52
312.233	312.709	59	56
312.471	312.709	56	52
312.705	312.936	54	56
312.937	313.175	52	51
313.175	313.643	83	73
313.177	313.643	51	60
313.291	313.643	81	72
313.41	313.643	52	50
313.41	313.643	80	71
313.518	313.636	78	70
313.636	314.102	78	72
313.637	314.102	54	50
313.752	314.102	76	71
313.868	314.102	75	69
313.869	314.102	47	51
313.984	314.102	73	68
314.1	314.627	71	70
314.102	314.627	49	54
314.214	314.445	69	67
314.33	314.568	68	67
314.333	314.627	51	51
314.445	314.627	69	67
314.568	314.683	68	67
314.572	315.043	52	60
314.683	315.043	71	69
314.802	315.043	76	70
314.803	315.043	56	52
314.918	315.043	80	72
315.034	315.95	83	73
315.036	315.257	59	52
315.258	315.487	56	52
315.492	315.716	54	55
315.716	315.95	52	52
315.951	316.419	83	73
315.953	316.419	51	60
316.066	316.419	81	72
316.184	316.419	80	71
316.185	316.419	52	50
316.3	316.416	78	70
316.416	316.884	78	72
316.418	316.884	54	50
316.532	316.884	76	71
316.64	316.884	75	69
316.643	316.884	47	51
316.755	316.884	73	68
316.874	317.398	71	70
316.875	317.398	49	54
316.989	317.227	69	67
317.108	317.347	68	67
317.109	317.398	51	51
317.227	317.398	69	67
317.347	317.812	52	60
317.347	317.461	68	67
317.466	317.812	71	64
317.581	317.801	69	70
317.69	317.812	68	64
317.801	318.27	69	68
317.917	318.27	71	68
318.036	318.27	73	69
318.151	318.27	75	70
318.26	318.729	76	70
318.376	318.729	78	71
318.492	318.729	80	72
318.61	318.729	81	72
318.726	319.18	83	73
318.835	319.18	85	74
318.953	319.173	87	74
319.062	319.18	88	75
319.173	319.282	87	72
319.282	319.625	85	70
319.393	319.625	83	68
319.509	319.625	81	65
319.618	320.076	80	63
319.729	320.076	78	61
319.842	320.076	76	59
319.958	320.076	75	57
320.066	320.535	57	38
320.066	320.304	73	50
320.069	320.538	66	45
320.419	320.539	85	50
320.539	321.046	76	54
320.542	321.582	59	33
320.542	321.046	68	39
320.966	321.046	80	50
321.038	321.582	75	53
321.039	321.582	69	39
321.039	321.582	78	53
321.578	322.121	64	35
321.578	322.12	76	51
321.582	322.121	68	42
322.085	322.624	52	35
323.128	323.621	64	61
323.199	323.621	76	74
323.619	324.087	66	61
323.674	324.087	78	70
324.081	324.631	67	61
324.14	324.631	79	70
324.627	325.103	71	56
324.631	325.103	54	47
324.861	325.103	61	39
325.1	325.565	70	52
325.103	325.565	66	39
325.331	325.565	64	39
325.564	326.047	62	39
325.796	326.047	61	39
325.914	326.047	70	51
326.04	326.519	73	57
326.041	326.519	54	47
326.276	326.519	62	42
326.517	326.978	71	56
326.518	326.978	66	42
326.741	326.978	62	42
326.976	327.455	61	42
327.214	327.455	59	42
327.328	327.455	71	63
327.444	327.917	74	66
327.448	327.917	54	56
327.676	327.917	58	47
327.914	328.396	73	60
327.916	328.396	64	47
328.147	328.396	61	47
328.386	328.858	59	47
328.623	328.858	58	47
328.736	328.858	73	68
328.855	329.331	76	72
328.858	329.331	59	57
329.086	329.331	74	68
329.32	329.796	77	72
329.551	329.796	76	67
329.79	330.262	79	70
330.024	330.262	77	66
330.261	330.734	52	47
330.261	330.734	69	56
330.486	330.734	59	39
330.724	331.192	68	52
330.726	331.192	64	39
330.955	331.192	62	39
331.183	331.668	60	39
331.421	331.668	59	39
331.542	331.668	68	51
331.658	332.138	71	57
331.662	332.138	52	47
331.896	332.138	60	42
332.135	332.603	69	56
332.137	332.603	64	42
332.362	332.603	60	42
332.596	333.075	59	42
332.831	333.075	57	42
332.946	333.075	69	63
333.072	333.548	72	66
333.073	333.548	52	56
333.303	333.548	56	47
333.541	334.013	71	60
333.542	334.013	62	47
333.773	334.013	59	47
334.004	334.482	57	47
334.241	334.483	56	47
334.356	334.483	71	68
334.48	334.955	74	72
334.482	335.418	57	57
334.707	334.955	72	68
334.945	335.418	71	72
335.176	335.418	69	67
335.414	335.644	81	73
335.417	335.883	43	69
335.417	335.883	55	69
335.644	335.823	81	70
335.886	336.824	41	72
335.886	336.824	83	78
335.887	336.824	53	72
336.111	336.824	81	78
336.349	336.824	79	77
336.586	336.824	77	75
336.822	337.055	76	79
337.056	337.314	75	75
337.315	337.783	57	61
337.315	338.259	84	81
337.316	338.746	54	61
337.549	338.259	56	42
337.783	338.259	57	46
338.014	338.259	60	41
338.255	338.746	75	55
338.256	338.746	59	46
338.497	338.746	57	41
338.742	339.442	76	55
338.743	339.204	52	57
338.746	339.205	56	57
339.442	339.564	78	57
339.565	339.684	76	46
339.687	339.798	76	55
339.803	339.918	74	53
339.919	340.037	73	52
340.041	340.173	71	51
340.174	341.242	61	64
340.237	341.239	64	64
340.307	341.242	69	76
340.31	341.242	45	59
340.31	341.242	57	70
341.239	341.718	64	70
341.241	341.718	40	53
341.242	341.718	52	63
341.714	342.201	73	72
341.717	342.201	49	48
341.717	342.201	61	57
341.959	342.201	74	74
342.071	342.201	71	70
342.197	342.441	69	70
342.2	342.441	45	45
342.201	342.441	57	53
343.152	343.639	73	50
343.39	343.639	74	52
343.509	343.639	71	46
343.628	344.499	69	49
344.122	344.499	57	40
344.122	344.499	85	57
344.125	344.499	66	40
344.601	345.073	75	50
344.605	345.074	59	40
344.606	345.074	69	40
345.077	346.019	76	52
345.078	346.019	64	40
345.078	346.019	68	40
345.781	346.019	77	51
346.018	346.246	80	57
346.246	346.484	78	56
346.485	346.711	76	54
346.712	346.95	74	53
346.95	347.174	73	52
347.177	347.425	71	51
347.426	347.895	52	39
347.426	347.895	69	51
347.657	347.895	68	46
347.661	347.895	62	33
347.891	348.349	59	33
347.891	348.353	76	53
348.116	348.353	74	51
348.119	348.353	62	28
348.349	348.829	59	31
348.581	348.829	62	29
348.819	349.292	71	57
348.82	349.292	52	40
349.057	349.292	61	34
349.057	349.292	69	53
349.291	349.757	78	57
349.292	349.75	57	34
349.515	349.757	76	56
349.519	349.757	61	30
349.75	350.223	57	32
349.981	350.223	61	28
350.219	350.698	52	42
350.219	350.698	71	63
350.451	350.698	69	59
350.453	350.698	61	36
350.695	351.164	81	62
350.696	351.158	57	36
350.926	351.164	79	59
350.929	351.164	61	34
351.158	351.63	57	36
351.388	351.632	61	34
351.626	351.856	79	55
351.63	352.091	50	28
351.63	352.095	57	28
351.63	352.095	62	34
351.861	352.095	78	52
352.096	352.329	76	51
352.333	352.567	74	50
352.568	352.802	73	49
352.802	353.05	71	47
353.05	353.169	76	49
353.051	353.404	49	40
353.172	353.228	78	45
353.229	353.285	76	45
353.288	353.344	74	45
353.345	353.404	76	45
353.407	353.544	50	33
353.407	353.543	78	52
353.544	354.03	69	51
353.547	354.513	52	38
353.548	354.03	61	38
354.031	354.514	68	48
354.034	354.514	59	32
354.398	354.453	69	66
354.454	354.515	73	67
354.516	354.983	76	67
354.517	355.451	57	54
354.745	355.217	61	46
354.983	355.917	76	69
354.986	355.451	64	50
355.217	355.451	61	46
355.448	355.679	59	50
355.679	355.918	57	45
355.918	356.383	76	65
355.92	356.383	56	54
356.033	356.383	74	64
356.145	356.383	73	63
356.147	356.383	57	45
356.26	356.372	71	63
356.372	356.841	71	64
356.373	356.841	59	45
356.484	356.841	69	63
356.604	356.841	68	62
356.606	356.841	52	45
356.719	356.841	66	61
356.831	357.356	54	48
356.831	357.356	64	63
356.953	357.185	62	60
357.069	357.306	61	60
357.071	357.356	56	45
357.185	357.356	62	60
357.306	357.421	61	60
357.31	357.778	57	54
357.422	357.771	64	62
357.538	357.778	69	63
357.541	357.778	61	46
357.653	357.778	73	64
357.769	358.454	76	65
357.771	357.996	64	46
357.996	358.223	61	46
358.223	358.455	59	49
358.455	358.686	88	65
358.458	358.689	57	46
358.689	359.151	56	52
358.689	359.151	88	70
358.798	359.151	86	70
358.914	359.151	85	69
358.916	359.151	57	44
359.029	359.141	83	69
359.141	359.61	83	68
359.144	359.61	59	51
359.256	359.61	81	67
359.374	359.61	80	67
359.375	359.61	52	44
359.488	359.61	78	66
359.6	360.124	76	66
359.603	360.124	54	50
359.718	359.953	74	65
359.837	360.075	73	65
359.84	360.124	56	46
359.953	360.124	74	64
360.075	360.19	73	63
360.078	360.541	57	51
360.19	360.544	76	64
360.306	360.54	74	60
360.422	360.544	73	61
360.54	360.998	74	62
360.541	360.996	54	40
360.541	360.997	57	48
360.656	360.998	76	63
360.764	360.998	78	64
360.88	360.998	80	66
360.995	361.461	81	67
360.996	361.461	50	44
360.996	361.461	54	44
360.997	361.457	57	52
361.108	361.461	83	68
361.223	361.461	85	70
361.339	361.461	86	71
361.454	361.912	88	72
361.455	361.912	49	47
361.457	361.912	52	47
361.457	361.912	57	56
361.566	361.912	86	71
361.682	361.912	85	69
361.793	361.912	83	68
361.906	362.01	81	66
362.014	362.353	80	65
362.123	362.353	78	63
362.238	362.353	76	62
362.344	362.83	74	60
362.458	362.83	73	59
362.571	362.83	71	57
362.68	362.83	69	56
362.819	362.949	80	59
362.82	363.337	50	38
362.822	363.337	59	45
362.882	363.012	78	55
362.949	363.197	80	59
363.012	363.134	78	55
363.074	363.337	76	59
363.134	363.337	78	55
363.197	363.337	80	55
363.26	363.337	81	55
363.327	363.869	69	59
363.331	364.416	52	33
363.331	363.869	61	39
363.788	363.869	73	50
363.866	364.416	68	53
363.869	364.416	62	39
363.869	364.416	71	53
364.415	365.031	57	35
364.415	365.031	69	51
364.416	365.034	61	42
365.034	365.647	45	35
