OnsetTime	OffsetTime	MidiPitch	Velocity
0.519987	1.06499	77	60
0.882984	1.24699	58	42
1.06199	1.24799	74	53
1.24999	1.42598	70	55
1.251	1.60799	62	48
1.60899	1.80098	70	55
1.61099	1.98599	67	47
1.987	2.35298	60	52
1.987	2.34998	75	60
2.35399	2.71697	63	47
2.35399	2.71697	79	55
2.71798	3.08197	69	52
2.72098	3.08497	65	48
3.08596	3.44896	63	46
3.44896	3.62695	72	55
3.45296	3.81696	62	53
3.62796	3.81696	70	53
3.81795	4.17297	57	47
3.81795	3.99097	74	57
3.99497	4.17697	72	54
4.17697	4.35897	75	58
4.17797	4.53696	58	51
4.35997	4.54196	74	56
4.54196	4.72697	77	60
4.54396	4.90497	51	51
4.54497	4.90596	60	51
4.72697	4.90596	75	57
4.90796	5.45796	74	60
4.90897	5.64297	58	52
4.91197	6.00796	53	52
5.45796	5.54897	75	57
5.54996	5.64396	74	53
5.64396	5.82195	72	52
5.64697	6.01096	57	47
5.82496	6.01196	74	54
6.01196	6.19996	75	55
6.20096	6.39296	76	57
6.39296	6.93795	77	59
6.75696	7.12496	58	39
6.93896	7.00196	75	53
7.00196	7.05796	74	53
7.06096	7.12496	72	53
7.12496	7.29596	70	56
7.12596	7.48396	62	47
7.48495	7.85496	67	46
7.48495	7.66996	70	56
7.85597	8.21695	60	51
7.85597	8.21596	75	60
8.21695	8.57995	63	45
8.21695	8.57995	79	55
8.58395	8.94795	65	48
8.58395	8.94395	69	58
8.94795	9.30495	63	43
9.12595	9.30495	69	52
9.30796	9.67196	62	51
9.30796	9.48596	70	58
9.48697	9.67196	74	55
9.67296	9.84995	67	58
9.67595	10.036	51	47
9.67595	10.039	63	47
9.85096	10.04	72	55
10.04	10.4099	70	58
10.044	10.785	53	50
10.044	10.4109	62	50
10.4109	10.7859	69	55
10.414	10.7879	60	48
10.789	10.9699	70	58
10.7919	11.156	58	51
10.971	11.065	65	56
11.156	11.251	67	60
11.338	11.429	69	63
11.524	11.611	70	67
11.698	11.789	72	70
11.884	11.971	74	74
12.055	12.154	75	77
12.248	12.752	58	64
12.248	12.799	77	85
12.437	12.752	65	54
12.616	12.794	62	59
12.795	12.979	74	74
12.798	12.983	65	54
12.984	13.162	55	63
12.984	13.162	70	78
13.163	13.34	62	56
13.341	13.526	70	78
13.344	13.526	58	59
13.529	13.711	62	55
13.712	14.0499	51	64
13.712	13.9429	75	85
13.893	14.0499	77	61
13.894	14.075	60	54
13.9429	14.0329	75	61
13.9849	14.0499	74	61
14.0329	14.079	75	61
14.0799	14.436	79	78
14.0819	14.257	55	59
14.2579	14.439	60	55
14.4399	14.621	53	64
14.4399	14.81	69	81
14.625	14.81	63	54
14.811	14.988	60	60
14.989	15.173	63	56
15.174	15.356	72	78
15.178	15.534	62	66
15.357	15.535	70	74
15.535	15.72	74	81
15.539	15.902	57	60
15.539	16.266	62	60
15.72	15.903	72	77
15.903	16.081	75	82
15.904	16.267	58	64
16.081	16.269	74	79
16.27	16.633	51	64
16.27	16.452	77	85
16.271	16.634	60	64
16.452	16.634	75	81
16.634	17.184	74	85
16.637	17.369	58	65
16.638	17.736	53	65
17.184	17.277	75	81
17.278	17.37	74	81
17.37	17.547	72	73
17.372	17.736	57	60
17.551	17.737	74	77
17.74	17.925	75	78
17.928	18.118	76	81
18.118	18.814	77	83
18.121	18.814	58	65
18.301	18.667	65	55
18.486	18.814	62	60
18.665	18.814	75	74
18.667	18.842	65	55
18.727	18.814	74	74
18.787	18.843	72	74
18.845	18.937	70	79
18.846	19.028	55	64
19.028	19.116	70	76
19.031	19.202	62	57
19.203	19.395	58	60
19.203	19.301	70	79
19.395	19.482	70	76
19.396	19.58	62	57
19.581	19.913	51	64
19.581	19.809	75	85
19.763	19.913	77	61
19.767	19.941	60	55
19.809	19.896	75	61
19.851	19.913	74	61
19.896	19.942	75	61
19.942	20.305	79	78
19.945	20.119	55	59
20.123	20.309	60	55
20.309	20.673	69	82
20.31	20.487	53	64
20.488	20.673	63	55
20.674	20.851	60	59
20.855	21.033	63	55
20.855	21.033	81	77
21.034	21.384	82	85
21.037	21.397	50	59
21.037	21.764	58	59
21.156	21.384	77	74
21.275	21.398	74	72
21.401	21.764	51	55
21.401	21.764	79	84
21.517	21.764	75	73
21.635	21.764	72	74
21.761	22.111	77	84
21.762	22.49	53	59
21.762	22.118	62	59
21.881	22.111	74	75
21.996	22.119	70	74
22.121	22.49	75	84
22.122	22.49	63	56
22.241	22.49	72	74
22.364	22.49	69	74
22.486	22.983	70	83
22.49	22.983	58	59
22.49	22.983	62	59
22.875	23.259	46	64
23.07	23.263	65	53
23.263	23.353	70	58
23.451	23.546	69	53
23.637	23.735	70	55
23.83	23.924	72	53
24.022	24.417	74	55
24.418	24.807	70	56
24.418	24.806	74	56
24.419	24.807	58	48
24.81	25.195	70	59
24.81	25.195	74	59
24.811	25.196	55	48
25.198	25.584	72	55
25.198	25.584	75	55
25.199	25.585	51	45
25.587	25.979	53	47
25.587	25.979	69	54
25.587	25.978	72	54
25.982	26.36	41	55
26.175	26.361	65	55
26.363	26.455	72	57
26.552	26.643	70	55
26.738	26.833	72	56
26.93	27.021	74	53
27.116	27.519	75	56
27.523	27.903	67	56
27.526	27.908	60	45
27.526	27.904	75	56
27.908	28.299	72	58
27.911	28.303	57	45
27.911	28.302	75	58
28.303	28.688	77	56
28.304	28.689	69	56
28.306	28.691	53	42
28.691	29.083	70	54
28.695	29.087	58	46
28.695	29.087	74	54
29.087	29.465	46	65
29.279	29.469	70	73
29.469	29.559	74	79
29.654	29.745	72	72
29.839	29.93	74	75
30.025	30.115	76	72
30.206	30.574	77	79
30.389	30.575	57	53
30.577	30.756	60	57
30.697	30.82	77	77
30.756	30.942	57	53
30.82	30.943	79	79
30.945	31.057	81	82
30.946	31.299	65	67
31.061	31.179	79	76
31.18	31.302	77	76
31.303	31.422	76	79
31.425	31.543	74	77
31.544	31.666	72	76
31.666	32.037	70	75
31.851	32.041	55	53
32.041	32.219	58	58
32.16	32.282	76	73
32.22	32.398	55	54
32.283	32.398	77	76
32.402	32.7661	64	66
32.402	32.52	79	80
32.5211	32.6431	77	79
32.6431	32.7661	76	78
32.7661	32.8881	74	77
32.8891	33.0031	72	76
33.0031	33.1251	70	75
33.1261	33.2171	69	73
33.1271	33.4891	65	69
33.2181	33.3111	72	69
33.3111	33.4021	70	71
33.4031	33.4901	69	72
33.4931	33.5811	70	74
33.5841	33.6761	72	76
33.6791	33.7621	74	77
33.7631	33.8541	76	79
33.8551	33.9411	77	81
33.9451	34.0361	79	82
34.0361	34.1261	81	84
34.1301	34.2141	82	86
34.2151	34.3161	84	87
34.2181	34.5921	53	53
34.4061	34.5931	69	59
34.4071	34.5931	65	59
34.5961	34.9601	69	56
34.5971	34.9601	65	56
34.5991	34.7771	48	53
34.7781	34.9611	60	47
34.9631	35.1461	64	52
34.9631	35.1451	67	52
34.9641	35.1461	59	49
35.1471	35.3301	60	47
35.3311	36.0591	79	76
35.3321	35.6951	58	54
35.5091	35.8801	60	50
35.6951	36.0591	58	45
35.8781	36.0591	76	60
35.8801	36.0591	60	41
35.9681	36.0591	72	60
36.0581	36.4261	77	67
36.0591	36.2411	57	48
36.2441	36.4271	60	45
36.4271	36.7941	78	70
36.4301	36.6121	57	51
36.6121	36.7951	60	47
36.7951	37.5291	79	74
36.7971	37.1581	58	53
36.9801	37.3431	60	50
37.1581	37.5291	58	47
37.3401	37.5291	76	61
37.3431	37.5291	60	43
37.4321	37.5291	72	61
37.5261	37.8861	77	65
37.5291	37.7031	57	46
37.7041	37.8861	60	36
37.8871	38.0711	57	43
38.0721	38.2571	60	36
38.2571	38.3471	79	75
38.2581	38.4351	58	56
38.4351	38.9912	79	75
38.4391	38.8041	60	55
38.6251	38.9912	58	49
38.8041	38.9912	60	46
38.8041	38.9912	76	61
38.8941	38.9912	72	61
38.9892	39.1672	57	48
38.9892	39.0792	77	64
39.1672	39.2612	77	68
39.1681	39.3521	60	45
39.3532	39.5382	57	50
39.3532	39.4472	78	71
39.5382	39.6252	78	71
39.5392	39.7162	60	47
39.7202	39.8072	79	77
39.7212	40.0802	58	53
39.8992	40.4482	79	77
39.9002	40.2622	60	50
40.0802	40.4482	58	48
40.2592	40.4482	76	60
40.2622	40.4482	60	45
40.3512	40.4482	72	62
40.4452	40.8232	77	66
40.4482	40.8062	57	53
40.6262	40.8232	60	49
40.8062	41.1872	57	53
40.9912	41.1872	60	49
41.1722	41.5462	78	69
41.1732	41.5332	58	54
41.2641	41.4422	79	70
41.3522	41.5462	60	48
41.3522	41.5462	81	71
41.4422	41.5462	79	71
41.5332	41.9002	58	57
41.5332	41.8972	77	72
41.6251	41.9002	76	73
41.7182	41.9002	74	74
41.7191	41.9002	60	52
41.8032	41.9002	72	75
41.8972	42.1742	77	80
41.8982	42.6422	57	64
41.9892	42.6422	72	76
42.0822	42.3552	81	80
42.1742	42.6422	77	76
42.2692	42.4472	84	80
42.3552	42.5412	81	76
42.4472	42.6282	84	80
42.5412	42.6422	81	75
42.6282	43.0102	84	78
42.7192	43.0102	82	78
42.8072	43.0102	81	77
42.9022	43.0102	79	76
42.9932	43.3572	65	71
42.9932	43.3602	77	76
42.9962	43.3602	57	71
43.0802	43.3602	75	76
43.1752	43.3562	74	75
43.2662	43.3602	72	75
43.3562	43.6302	74	79
43.3572	43.7172	58	81
43.3572	43.7212	65	81
43.4482	43.6992	70	74
43.5392	43.6992	77	81
43.6302	43.7212	74	75
43.7212	43.9912	82	84
43.8122	44.0782	77	79
43.9002	44.0782	86	82
43.9912	44.0852	82	80
44.0852	44.3932	86	78
44.1722	44.3932	84	76
44.2662	44.3932	82	75
44.3502	44.8092	81	73
44.4452	44.8092	79	72
44.4462	44.8092	65	51
44.4462	44.8092	67	51
44.4492	44.8092	58	51
44.5332	44.8092	77	69
44.6242	44.8092	76	67
44.7112	44.8092	74	65
44.8082	45.5472	72	63
44.8092	45.5342	60	55
44.9842	45.3522	69	51
45.1702	45.5472	65	56
45.3522	45.5472	69	51
45.5312	45.6702	81	67
45.5342	45.9042	60	55
45.6002	45.7402	79	61
45.6702	45.8032	81	67
45.7162	45.9042	70	49
45.7402	45.8742	79	59
45.8032	45.9042	81	67
45.8742	46.0132	79	61
45.8952	46.2652	64	55
45.9432	46.2622	81	67
46.0132	46.1702	79	67
46.0802	46.2652	70	49
46.0802	46.2652	77	69
46.1702	46.2652	79	70
46.2622	46.3492	81	72
46.2652	46.6182	65	55
46.3492	46.4392	82	74
46.4402	46.5272	84	74
46.5282	46.6222	82	72
46.6222	46.7132	81	71
46.7172	46.8002	79	70
46.8012	46.8952	77	68
46.8042	46.9862	67	61
46.8962	46.9862	76	67
46.9872	47.0732	77	69
46.9902	47.3473	69	66
47.0742	47.1642	79	71
47.1682	47.2593	81	72
47.2622	47.3473	79	70
47.3482	47.4413	77	69
47.4423	47.5253	75	69
47.5283	47.6203	74	68
47.5293	47.7103	57	60
47.6203	47.7143	73	67
47.7143	47.8013	74	67
47.7173	48.0703	58	66
47.8023	47.8923	76	70
47.8923	47.9773	77	72
47.9803	48.0743	75	71
48.0753	48.1583	74	70
48.1593	48.2533	72	69
48.2533	48.3443	70	68
48.3443	48.4313	69	68
48.4323	48.5223	67	67
48.4363	48.7993	34	67
48.4363	48.8003	46	67
48.5263	48.6173	69	68
48.6173	48.7043	70	69
48.7053	48.8003	69	68
48.8013	48.8903	67	66
48.8913	48.9783	65	65
48.9783	49.0683	64	63
49.0723	49.1633	62	61
49.1643	49.3483	60	60
49.1663	49.3523	48	57
49.3523	49.4363	62	60
49.3533	49.5273	57	54
49.4373	49.5273	64	61
49.5303	49.6223	65	62
49.5343	49.7093	53	57
49.6223	49.7103	67	64
49.7123	49.8003	69	65
49.7133	49.8883	57	54
49.8033	49.8883	70	66
49.8913	50.0693	48	63
49.8913	49.9813	72	67
49.9823	50.0703	74	69
50.0733	50.1603	76	70
50.0743	50.2483	57	57
50.1643	50.2483	77	71
50.2523	50.4303	53	67
50.2523	50.3423	79	73
50.3433	50.4313	81	74
50.4333	50.5213	82	75
50.4343	50.6123	57	61
50.5213	50.6163	84	77
50.6193	51.3553	48	57
50.6193	51.3643	77	71
50.6793	50.8023	79	64
50.7423	50.8643	81	58
50.8023	50.9313	79	64
50.8043	51.1763	58	53
50.8643	50.9873	81	58
50.9313	51.0503	79	65
50.9873	51.1163	81	62
50.9893	51.3643	52	57
51.0503	51.1733	79	67
51.1163	51.2323	81	61
51.1733	51.2953	79	68
51.1763	51.3643	58	53
51.2323	51.3553	81	61
51.2953	51.3643	79	69
51.3553	52.1533	48	57
51.3553	51.4743	81	64
51.4183	51.5343	79	70
51.4743	51.5963	81	64
51.5343	51.6563	79	70
51.5363	51.9014	58	53
51.5963	51.7193	81	66
51.6563	51.8094	79	69
51.7193	52.1533	81	72
51.7214	52.1533	52	57
51.8094	51.9993	79	72
51.9003	52.1524	77	73
51.9014	52.1533	58	52
51.9993	52.1533	79	70
52.1524	52.4533	53	57
52.1524	52.2784	77	76
52.1533	52.4543	57	57
52.2784	52.4563	77	72
52.4603	53.0973	53	47
52.4603	53.0973	57	47
52.6383	52.8244	77	55
52.8244	53.0004	77	57
53.0004	53.1813	77	54
53.1813	53.5523	57	47
53.1824	53.5523	53	47
53.3664	53.5494	77	55
53.5494	53.7284	77	57
53.5514	53.9174	55	50
53.5523	53.9174	53	50
53.5523	53.9194	58	50
53.7284	54.0074	77	53
53.9174	54.5324	53	50
53.9174	54.5324	55	50
53.9194	54.5324	58	50
54.0914	54.2764	77	60
54.2764	54.4594	77	64
54.4594	54.8184	77	60
54.6384	55.0084	53	54
54.6414	55.0114	56	54
54.6414	55.0114	59	54
54.8184	55.0084	77	69
55.0084	55.7334	53	55
55.0084	55.1834	77	72
55.0094	55.3684	60	55
55.0114	55.3664	57	55
55.1834	55.3684	77	69
55.3664	55.7364	57	61
55.3684	55.7364	61	61
55.5474	55.7404	77	79
55.7404	55.9224	77	82
55.7414	56.1064	58	66
55.7434	56.4903	53	66
55.7434	56.1074	62	66
55.9224	56.1074	77	78
56.1103	56.4923	59	71
56.1114	56.4923	62	71
56.2923	56.4893	77	80
56.4893	57.9484	60	77
56.4893	57.9484	77	86
56.4903	57.9484	53	77
56.4913	57.9484	63	77
56.6643	56.8503	81	81
56.8503	57.9484	81	86
57.0293	57.2103	84	81
57.2103	57.7594	84	86
57.3953	57.5783	87	81
57.5783	57.9484	87	86
57.7594	57.9454	84	75
57.9454	58.6943	84	81
58.1273	58.3053	81	73
58.3053	58.6943	81	79
58.4943	58.6804	77	71
58.6804	58.8653	77	68
58.8663	59.0543	76	57
59.0543	59.2533	76	57
59.2543	59.4843	77	57
59.4853	60.0313	77	67
59.8453	60.2093	58	45
60.0303	60.2093	74	53
60.2123	60.3913	70	55
60.2163	60.5703	62	48
60.5703	60.7623	70	53
60.5713	60.9483	67	46
60.9483	61.3154	75	60
60.9493	61.3154	60	52
61.3163	61.6783	79	55
61.3193	61.6793	63	46
61.6823	62.0433	69	57
61.6833	62.0443	65	48
62.0463	62.4103	63	46
62.4113	62.5963	72	55
62.4143	62.7743	62	53
62.5963	62.7783	70	53
62.7793	63.1423	57	47
62.7793	62.9563	74	57
62.9573	63.1433	72	54
63.1433	63.3203	75	58
63.1463	63.5033	58	51
63.3213	63.5033	74	56
63.5043	63.6883	77	60
63.5063	63.8743	51	49
63.5063	63.8743	60	49
63.6893	63.8753	75	57
63.8773	64.9763	53	52
63.8773	64.4193	74	60
63.8783	64.6013	58	52
64.4203	64.5113	75	57
64.5113	64.6063	74	57
64.6083	64.7843	72	52
64.6093	64.9773	57	47
64.7873	64.9773	74	54
64.9793	65.1693	75	55
65.1693	65.3543	76	57
65.3553	65.8993	77	59
65.7183	66.0863	58	41
65.9003	65.9633	75	53
65.9643	66.0223	74	53
66.0233	66.0863	72	53
66.0873	66.2643	70	56
66.0893	66.4463	62	47
66.4463	66.6283	70	56
66.4473	66.8173	67	45
66.8173	67.1743	75	60
66.8183	67.1783	60	51
67.1783	67.5413	79	55
67.1813	67.5423	63	47
67.5463	67.9103	65	48
67.5463	67.9053	69	58
67.9103	68.2733	63	45
68.0883	68.2743	69	54
68.2743	68.4523	70	58
68.2773	68.6333	62	51
68.4553	68.6343	74	55
68.6343	68.8193	67	58
68.6373	69.0013	51	47
68.6373	68.9983	63	47
68.8203	69.0024	72	55
69.0024	69.3763	70	58
69.0053	69.7474	53	50
69.0053	69.3794	62	50
69.3794	69.7474	69	55
69.3803	69.7504	60	48
69.7504	69.9394	70	58
69.7544	70.1184	58	51
69.9403	70.0274	65	56
70.1224	70.2124	67	60
70.3004	70.3944	69	63
70.4864	70.5724	70	67
70.6644	70.7554	72	70
70.8454	70.9304	74	74
71.0244	71.1184	75	77
71.2164	71.9834	58	64
71.2174	71.9834	77	85
71.3994	71.7674	65	54
71.5784	71.9834	62	59
71.7634	71.9834	74	74
71.7674	71.9834	65	54
71.9454	72.1244	55	63
71.9454	72.1194	70	78
72.1274	72.3094	62	55
72.3094	72.4944	70	78
72.3104	72.4954	58	59
72.4954	72.6804	62	55
72.6804	72.9074	75	85
72.6814	72.9983	51	64
72.8624	73.0413	60	56
72.8624	72.9983	77	61
72.9074	72.9953	75	61
72.9533	72.9983	74	61
72.9953	73.0413	75	61
73.0423	73.4053	79	78
73.0443	73.2193	55	59
73.2203	73.4073	60	55
73.4083	73.5863	53	64
73.4083	73.7713	69	81
73.5863	73.7723	63	56
73.7723	73.9573	60	60
73.9573	74.1354	63	56
74.1363	74.3183	72	78
74.1393	74.5004	62	66
74.3183	74.5034	70	71
74.5073	74.6823	74	81
74.5084	74.8673	57	57
74.5084	75.2284	62	57
74.6863	74.8683	72	75
74.8714	75.0494	75	82
74.8723	75.2284	58	64
75.0503	75.2294	74	77
75.2314	75.5994	51	64
75.2314	75.4134	77	85
75.2324	75.5994	60	64
75.4144	75.6024	75	81
75.6024	76.1454	74	85
75.6064	76.7014	53	65
75.6064	76.3304	58	65
76.1464	76.2364	75	78
76.2394	76.3314	74	76
76.3344	76.7024	57	60
76.3344	76.5124	72	73
76.5124	76.7044	74	77
76.7054	76.8904	75	78
76.8904	77.0864	76	81
77.0874	77.7414	58	65
77.0874	77.7414	77	83
77.2654	77.6354	65	55
77.4474	77.7414	62	60
77.6334	77.7414	75	74
77.6354	77.8114	65	55
77.6894	77.7484	74	74
77.7494	77.8114	72	74
77.8144	77.9894	55	64
77.8144	77.8984	70	79
77.9924	78.0774	70	79
77.9934	78.1714	62	56
78.1714	78.2654	70	79
78.1724	78.3564	58	60
78.3574	78.4484	70	79
78.3604	78.5424	62	55
78.5434	78.7704	75	85
78.5464	78.8584	51	64
78.7254	78.8584	77	61
78.7264	78.9094	60	55
78.7704	78.8584	75	61
78.8154	78.8604	74	61
78.8614	78.9104	75	61
78.9104	79.2704	79	78
78.9114	79.0884	55	59
79.0884	79.2714	60	55
79.2714	79.6344	69	82
79.2724	79.4454	53	64
79.4493	79.6354	63	55
79.6374	79.8204	60	59
79.8204	79.9983	81	77
79.8214	79.9993	63	54
80.0024	80.3763	82	85
80.0033	80.3763	50	59
80.0053	80.7193	58	59
80.1214	80.3763	77	75
80.2374	80.3763	74	74
80.3604	80.7054	79	84
80.3624	80.7193	51	56
80.4824	80.7054	75	75
80.6044	80.7204	72	75
80.7234	81.4524	53	59
80.7234	81.0973	77	84
80.7244	81.0973	62	59
80.8423	81.0973	74	74
80.9653	81.0973	70	74
81.0873	81.4524	75	84
81.0904	81.4524	63	56
81.2093	81.4524	72	74
81.3284	81.4524	69	72
81.4484	81.9553	70	83
81.4514	81.9553	58	59
81.4514	81.9553	62	59
81.8443	82.2244	46	63
82.0324	82.2254	65	55
82.2254	82.3154	70	58
82.4134	82.5074	69	52
82.6024	82.7003	70	55
82.7914	82.8894	72	51
82.9844	83.3763	74	55
83.3794	83.7684	70	56
83.3794	83.7684	74	56
83.3833	83.7693	58	46
83.7723	84.1563	70	59
83.7723	84.1573	74	59
83.7733	84.1593	55	48
84.1603	84.5523	72	55
84.1603	84.5533	75	55
84.1613	84.5533	51	46
84.5553	84.9403	72	54
84.5563	84.9443	53	47
84.5563	84.9413	69	54
84.9443	85.3223	41	57
85.1363	85.3253	65	55
85.3253	85.4203	72	57
85.5143	85.6053	70	54
85.7003	85.7973	72	56
85.8923	85.9873	74	54
86.0813	86.4843	75	56
86.4873	86.8653	67	56
86.4883	86.8703	60	45
86.4883	86.8693	75	56
86.8723	87.2613	72	58
86.8723	87.2613	75	58
86.8733	87.2623	57	45
87.2643	87.6573	69	56
87.2643	87.6573	77	56
87.2683	87.6603	53	42
87.6603	88.0523	70	54
87.6603	88.0513	74	54
87.6613	88.0523	58	46
88.0553	88.4303	46	58
88.2443	88.4313	70	58
88.4313	88.5283	74	64
88.6193	88.7133	72	59
88.8083	88.8993	74	64
88.9893	89.0843	75	67
89.1753	89.4803	77	71
89.5783	89.8723	62	53
89.5783	89.8723	77	76
89.5823	89.8763	58	53
89.9763	90.2814	77	79
89.9813	90.2823	58	56
89.9813	90.2823	62	56
90.3793	90.6804	77	82
90.3803	90.6813	58	60
90.3803	90.6813	62	60
90.7854	92.2864	78	91
90.7893	91.5424	57	68
90.7893	91.5424	60	68
90.9883	91.1743	72	59
91.1743	91.3564	74	59
91.3573	91.5424	75	63
91.5433	91.7274	75	63
91.5454	92.2914	50	54
91.5454	92.2914	57	54
91.7283	91.9084	74	62
91.9134	92.1014	74	61
92.1054	92.2934	72	57
92.2943	93.8333	51	53
92.2943	93.0604	70	70
92.2943	93.0614	79	70
92.4943	92.6794	55	52
92.6804	92.8604	57	54
92.8654	93.0614	58	57
93.0644	93.2524	58	57
93.0644	93.8344	73	64
93.2534	93.4464	57	55
93.4464	93.6384	57	55
93.6394	93.8344	55	54
93.8373	94.2303	74	69
93.8384	94.2303	50	47
93.8384	94.2303	54	47
94.5194	94.6184	62	63
94.6193	95.0133	74	80
95.0133	95.4023	74	76
95.4023	96.1713	82	85
95.4033	96.1643	55	58
95.5993	95.9793	58	50
95.7943	96.1713	62	54
95.9773	96.1713	81	75
95.9793	96.1713	58	50
96.0393	96.1623	79	72
96.1023	96.1713	78	72
96.1623	96.5673	79	79
96.1643	96.5673	55	54
96.3473	96.5673	58	47
96.5333	96.9243	74	73
96.5373	96.9243	62	50
96.7293	96.9243	58	47
96.9223	97.6773	75	80
96.9243	97.6773	55	58
97.1213	97.4993	60	51
97.3133	97.6773	63	54
97.4993	97.6843	60	51
97.5893	97.6843	67	71
97.6853	98.4373	55	53
97.6853	98.0514	79	86
97.8633	98.2404	60	49
98.0514	98.4373	79	83
98.0523	98.4373	63	51
98.2404	98.4373	60	48
98.4334	99.2034	53	58
98.4334	99.2034	87	101
98.6224	98.9983	60	51
98.8084	99.2034	63	54
98.9974	99.2034	86	75
98.9983	99.2034	60	51
99.0564	99.1834	84	71
99.1164	99.2034	83	71
99.1834	99.9434	55	56
99.1834	99.9454	84	79
99.3644	99.7424	60	50
99.5474	99.9454	75	78
99.5494	99.9454	63	52
99.7424	99.9454	60	49
99.9424	100.463	74	74
99.9434	100.463	55	53
100.138	100.463	58	50
100.342	100.54	62	50
100.541	100.722	73	69
100.723	100.911	74	73
100.911	101.008	82	72
101.107	101.205	81	71
101.3	101.397	79	69
101.495	101.884	60	50
101.495	101.831	78	74
101.499	101.884	57	50
101.499	101.888	63	50
101.787	101.838	79	64
101.838	101.888	81	64
101.889	101.974	79	78
101.891	102.076	58	46
101.891	102.077	62	46
102.077	102.175	79	74
102.279	102.468	85	83
102.472	102.668	86	78
102.669	102.759	82	74
102.854	102.958	79	74
103.056	103.452	78	77
103.057	103.452	63	49
103.06	103.452	57	49
103.061	103.452	60	49
103.348	103.445	79	66
103.396	103.452	81	66
103.445	103.54	79	77
103.446	103.637	58	45
103.446	103.638	62	45
103.641	103.83	74	67
103.83	103.927	79	71
104.026	104.128	79	71
104.226	104.323	79	71
104.421	104.527	79	71
104.624	104.932	79	78
104.625	106.209	51	53
104.625	105.416	58	53
104.933	104.978	81	63
104.979	105.03	82	63
105.031	105.125	81	75
105.222	105.321	79	72
105.416	105.514	77	72
105.417	106.21	55	47
105.611	105.709	75	70
105.808	105.905	74	68
106.007	106.105	73	67
106.21	106.406	73	71
106.214	106.609	54	40
106.214	106.612	57	40
106.406	106.613	74	68
106.613	107.004	50	28
106.613	106.906	74	59
106.616	107.004	54	28
106.617	107.005	57	34
107.008	107.4	50	29
107.008	107.298	74	58
107.009	107.4	54	29
107.011	107.4	57	35
107.404	107.812	50	28
107.404	107.708	74	54
107.405	107.813	54	28
107.407	107.813	57	34
107.813	107.872	73	40
107.877	107.942	74	44
107.946	108.013	75	49
108.016	109.43	74	62
108.205	108.604	53	27
108.208	108.605	57	37
108.209	108.607	50	27
108.604	108.994	53	27
108.605	108.996	57	37
108.607	108.997	50	27
108.994	109.43	53	26
108.996	109.43	57	36
108.997	109.43	50	26
109.43	111.017	77	72
109.815	110.208	50	38
109.816	110.208	53	38
109.816	110.209	58	51
110.208	110.603	50	41
110.208	110.603	53	41
110.209	110.604	58	56
110.603	111.017	50	45
110.603	111.017	53	45
110.604	111.017	58	60
111.016	112.574	62	74
111.017	112.574	56	74
111.401	111.79	46	45
111.401	111.792	53	60
111.79	112.182	46	48
111.792	112.181	53	63
112.181	112.574	53	60
112.182	112.574	46	45
112.57	112.955	55	74
112.571	113.595	63	74
112.573	112.955	39	48
112.573	112.958	51	63
112.958	113.319	51	46
113.322	113.686	55	41
113.595	113.687	58	45
113.687	113.959	62	49
113.69	114.053	56	38
113.959	114.054	58	46
114.054	114.429	63	52
114.057	114.429	55	44
114.331	114.429	58	49
114.424	114.792	65	51
114.428	114.792	50	35
114.698	114.792	58	51
114.786	115.17	51	41
114.786	115.17	67	53
115.062	115.17	58	54
115.157	115.545	53	46
115.157	115.457	68	56
115.444	115.545	58	54
115.546	116.675	65	57
115.923	116.287	46	41
116.291	116.675	50	45
116.56	116.675	58	50
116.65	117.022	64	52
116.651	117.022	49	41
116.928	117.022	58	53
117.019	117.407	65	55
117.021	117.407	50	47
117.292	117.407	58	51
117.386	117.785	67	52
117.389	117.785	52	38
117.659	117.785	58	54
117.751	118.114	68	56
117.753	118.114	53	42
118.023	118.114	58	56
118.111	118.509	70	57
118.114	118.509	50	48
118.408	118.509	58	55
118.506	118.88	67	58
118.509	118.884	51	50
118.884	119.24	39	45
119.062	119.244	70	63
119.245	119.506	75	67
119.509	119.601	77	69
119.602	119.889	79	72
119.605	119.972	55	49
119.605	119.975	63	49
119.888	119.976	70	63
119.976	120.245	72	66
120.246	120.336	74	68
120.34	120.714	75	71
120.343	120.714	56	47
120.343	120.714	63	47
120.619	120.714	67	63
120.714	120.984	68	65
120.984	121.071	70	67
121.071	121.365	72	70
121.072	121.441	60	46
121.075	121.442	63	46
121.348	121.442	68	63
121.446	121.621	58	46
121.446	121.624	63	46
121.446	121.806	67	61
121.809	121.988	46	58
121.988	122.166	70	63
122.17	122.44	75	65
122.44	122.534	77	67
122.535	122.898	55	47
122.535	122.845	79	70
122.537	122.901	63	47
122.814	122.902	71	63
122.902	123.171	72	66
123.172	123.259	74	67
123.262	123.584	75	71
123.263	123.63	56	47
123.263	123.63	63	47
123.545	123.631	67	61
123.633	123.903	68	63
123.906	123.997	70	64
123.997	124.309	72	68
123.998	124.369	63	47
124.001	124.369	60	47
124.274	124.37	68	61
124.372	124.561	58	52
124.372	124.561	63	52
124.372	124.749	67	57
124.75	124.942	46	62
124.942	125.12	67	49
125.124	125.306	70	53
125.31	125.495	69	49
125.496	125.87	60	47
125.496	125.873	63	47
125.685	125.874	69	54
125.877	126.058	72	58
126.059	126.241	70	55
126.244	126.615	55	49
126.244	126.615	63	49
126.433	126.616	71	61
126.619	126.98	56	52
126.619	126.801	74	66
126.62	126.98	63	52
126.802	126.982	72	60
126.983	127.346	56	55
126.983	127.165	75	71
126.987	127.347	53	55
127.166	127.347	74	62
127.35	127.532	77	74
127.351	127.711	55	56
127.351	127.71	58	56
127.532	127.714	75	63
127.715	128.078	55	57
127.715	127.896	77	79
127.717	128.079	58	57
127.896	128.079	76	69
128.079	128.26	79	86
128.081	128.442	53	57
128.082	128.446	56	57
128.082	128.446	58	57
128.264	128.447	77	74
128.447	128.627	80	91
128.449	128.813	51	59
128.45	128.813	55	59
128.45	128.817	58	59
128.628	128.817	79	83
128.818	128.995	82	99
128.82	129.181	50	65
128.82	129.181	53	65
128.824	129.182	58	65
128.996	129.184	80	83
130.098	130.283	77	49
130.284	130.556	79	52
130.286	130.65	63	48
130.287	130.651	70	48
130.557	130.651	75	49
130.651	130.92	72	53
130.654	131.015	68	47
130.655	131.016	56	47
130.923	131.016	77	49
131.018	131.379	75	53
131.019	131.774	58	48
131.019	131.379	67	48
131.382	131.778	74	49
131.383	131.778	65	45
131.778	131.959	82	97
131.779	132.149	50	68
131.781	132.149	53	68
131.781	132.149	58	68
131.964	132.15	80	87
133.059	133.244	77	48
133.245	133.608	63	46
133.245	133.513	79	51
133.247	133.612	70	46
133.518	133.612	75	48
133.613	133.881	72	51
133.615	133.976	68	43
133.616	133.976	56	43
133.882	133.977	77	48
133.977	134.347	75	51
133.979	134.729	58	46
133.98	134.347	67	46
134.35	134.732	65	43
134.35	134.732	74	48
134.732	134.826	67	69
134.829	135.302	79	74
135.306	135.488	75	56
135.492	136.244	67	44
135.492	135.677	72	51
135.494	136.247	63	44
135.862	136.055	72	47
136.247	136.611	77	55
136.248	136.986	71	49
136.251	136.993	62	49
136.611	136.993	80	56
136.993	137.178	71	46
136.997	137.364	65	46
136.997	137.368	68	46
137.556	137.741	71	46
137.742	137.931	74	52
137.745	139.205	67	40
137.746	138.105	63	40
137.931	138.11	72	49
138.11	138.288	75	55
138.112	138.473	59	42
138.292	138.474	74	50
138.474	138.651	77	58
138.477	138.837	60	45
138.656	138.842	75	53
138.842	139.205	62	46
139.026	139.208	71	46
139.208	139.386	74	50
139.209	140.289	67	42
139.212	139.565	63	42
139.387	139.565	72	48
139.566	139.751	75	55
139.569	139.93	59	46
139.752	139.933	74	51
139.933	140.111	77	58
139.934	140.294	60	49
140.112	140.294	75	51
140.294	140.475	77	62
140.479	140.667	76	56
140.668	141.214	77	75
141.214	141.392	74	44
141.393	141.575	70	48
141.397	142.131	62	41
141.397	142.131	65	41
141.76	141.945	70	48
142.132	142.499	75	52
142.134	142.859	60	49
142.134	142.856	69	49
142.499	142.859	78	49
142.86	143.041	69	52
142.863	143.234	63	40
142.863	143.233	66	40
143.412	143.6	69	44
143.601	143.779	72	49
143.604	143.965	61	42
143.605	145.078	65	42
143.779	143.966	70	47
143.966	144.151	73	51
143.969	144.332	57	44
144.151	144.333	72	47
144.333	144.518	75	54
144.336	144.71	58	47
144.518	144.711	73	51
144.711	145.081	60	42
144.895	145.081	69	45
145.085	145.446	61	43
145.085	145.26	72	50
145.086	146.183	65	43
145.263	145.446	70	45
145.447	145.624	73	52
145.449	145.805	57	46
145.627	145.806	72	48
145.806	145.991	75	55
145.81	146.184	58	48
145.991	146.184	73	50
146.187	146.548	58	44
146.188	146.549	65	44
146.369	146.453	73	51
146.551	146.734	73	55
146.737	146.912	71	52
146.915	147.279	65	49
146.916	147.279	56	49
147.093	147.283	71	48
147.283	147.461	71	53
147.462	147.64	70	49
147.64	148.004	54	49
147.643	148.008	61	49
147.821	148.008	70	52
148.009	148.186	70	71
148.189	148.372	80	73
148.372	148.736	53	49
148.373	148.739	62	49
148.557	148.739	80	74
148.743	148.924	80	78
148.925	149.102	78	75
149.103	149.47	63	58
149.104	149.471	51	58
149.288	149.471	78	76
149.474	149.656	78	81
149.656	149.834	77	78
149.835	150.198	53	66
149.838	150.199	61	66
150.02	150.202	77	84
150.202	150.38	77	89
150.381	150.566	76	84
150.566	150.93	61	71
150.569	150.93	54	71
150.747	150.934	76	91
150.934	151.333	82	93
150.937	152.375	54	71
150.937	151.651	64	71
151.291	151.473	84	76
151.333	151.428	82	78
151.378	151.574	81	80
151.428	151.574	82	79
151.473	151.651	84	86
151.651	152.012	85	92
151.655	152.379	58	76
152.012	152.38	76	89
152.382	152.558	77	91
152.383	153.828	53	74
152.383	153.096	57	74
152.558	152.736	76	79
152.737	152.918	77	85
152.918	153.097	72	74
153.1	153.282	75	78
153.101	153.828	58	65
153.282	153.464	73	70
153.465	153.642	72	68
153.643	153.831	70	64
153.831	154.01	78	76
153.832	154.553	57	59
153.835	155.298	53	59
154.011	154.189	77	71
154.189	154.374	76	71
154.375	154.553	77	61
154.556	155.299	58	47
154.556	154.738	75	66
154.739	154.924	73	60
154.927	155.109	72	56
155.112	155.299	70	53
155.301	155.721	69	50
155.302	155.484	65	47
155.302	155.721	72	50
155.484	155.721	65	47
155.672	156.085	70	62
155.673	156.085	73	62
155.848	156.04	65	45
156.037	156.505	72	57
156.04	156.215	65	47
156.04	156.505	69	57
156.215	156.505	65	47
156.398	156.779	70	62
156.398	156.779	76	62
156.585	156.779	65	44
156.775	157.222	77	65
156.776	157.222	69	65
156.779	156.958	65	47
156.958	157.222	65	47
157.146	157.59	70	62
157.146	157.59	73	62
157.321	157.507	65	44
157.506	157.88	72	57
157.507	157.688	65	47
157.507	157.881	69	57
157.688	157.881	65	47
157.884	158.253	70	62
157.885	158.253	76	62
158.06	158.253	65	47
158.249	158.427	77	68
158.252	158.665	69	68
158.253	158.616	53	53
158.253	158.665	65	53
158.427	158.665	77	68
158.616	159.263	53	50
158.617	159.263	57	50
158.79	158.974	77	60
158.974	159.159	77	64
159.159	159.337	77	60
159.337	159.701	53	50
159.338	159.705	57	50
159.515	159.701	77	60
159.701	160.069	53	53
159.701	159.884	77	63
159.702	160.07	55	53
159.702	160.069	58	53
159.884	160.201	77	60
160.069	160.66	53	50
160.069	160.66	58	50
160.07	160.66	55	50
160.243	160.433	77	64
160.433	160.611	77	67
160.611	160.79	77	64
160.79	161.16	53	54
160.791	161.165	59	54
160.793	161.165	56	54
160.975	161.158	77	69
161.158	161.336	77	72
161.16	161.885	53	55
161.161	161.521	60	55
161.164	161.522	57	55
161.336	161.522	77	74
161.523	161.888	57	61
161.525	161.889	61	61
161.7	161.889	77	79
161.892	162.071	77	82
161.893	162.634	53	66
161.893	162.257	58	66
161.893	162.256	62	66
162.071	162.26	77	84
162.26	162.634	59	71
162.263	162.638	62	71
162.448	162.638	77	86
162.639	162.725	77	86
162.641	164.091	60	77
162.641	164.09	63	77
162.642	164.093	53	77
162.819	163.002	65	67
163.002	163.18	64	66
163.181	163.365	65	65
163.366	163.547	66	64
163.548	163.729	67	63
163.73	163.912	68	62
163.912	164.094	69	61
164.097	164.279	70	60
164.279	164.457	71	59
164.458	164.643	72	58
164.643	164.821	73	57
164.822	165.006	74	56
165.011	165.193	75	55
165.196	165.385	76	54
165.389	165.594	77	52
165.595	166.145	77	66
165.958	166.326	58	42
166.141	166.327	74	53
166.327	166.505	70	55
166.33	166.687	62	48
166.688	167.065	67	46
166.688	166.88	70	55
167.066	167.43	60	52
167.066	167.429	75	60
167.43	167.79	79	55
167.432	167.791	63	46
167.793	168.161	65	48
167.793	168.161	69	57
168.162	168.525	63	47
168.528	168.706	72	55
168.529	168.891	62	53
168.707	168.892	70	53
168.892	169.071	74	57
168.896	169.252	57	47
169.074	169.253	72	54
169.253	169.438	75	58
169.256	169.616	58	51
169.438	169.621	74	56
169.621	169.806	77	60
169.622	169.98	51	51
169.623	169.985	60	51
169.806	169.987	75	57
169.987	170.533	74	60
169.988	171.094	53	52
169.988	170.719	58	52
170.534	170.628	75	57
170.629	170.723	74	55
170.723	170.901	72	52
170.724	171.094	57	47
170.902	171.095	74	54
171.097	171.279	75	55
171.28	171.472	76	57
171.472	172.018	77	59
171.835	172.192	58	45
172.018	172.081	75	53
172.081	172.136	74	53
172.141	172.196	72	53
172.199	172.382	70	56
172.2	172.56	62	47
172.561	172.931	67	47
172.561	172.746	70	56
172.931	173.292	75	60
172.935	173.293	60	51
173.295	173.659	79	55
173.296	173.659	63	46
173.66	174.02	69	58
173.663	174.02	65	48
174.021	174.384	63	48
174.205	174.384	69	54
174.387	174.752	62	51
174.387	174.566	70	58
174.567	174.752	74	55
174.752	174.93	67	58
174.753	175.115	51	47
174.755	175.116	63	47
174.93	175.118	72	55
175.119	175.864	53	50
175.119	175.487	62	50
175.119	175.486	70	58
175.489	175.865	69	55
175.49	175.865	60	48
175.868	176.049	70	58
175.869	176.235	58	51
176.05	176.14	65	56
176.235	176.329	67	60
176.417	176.508	69	63
176.596	176.686	70	67
176.781	176.869	72	70
176.956	177.047	74	74
177.134	177.233	75	77
177.328	177.986	58	64
177.335	177.986	77	85
177.514	177.874	65	56
177.692	177.986	62	59
177.874	178.059	65	56
177.874	178.058	74	74
178.059	178.237	70	78
178.062	178.237	55	63
178.241	178.419	62	57
178.42	178.605	58	59
178.42	178.605	70	78
178.606	178.79	62	56
178.791	179.102	51	64
178.791	179.018	75	85
178.973	179.102	77	61
178.974	179.154	60	56
179.018	179.102	75	61
179.064	179.109	74	61
179.11	179.158	75	61
179.159	179.336	55	59
179.159	179.515	79	78
179.337	179.518	60	56
179.518	179.889	69	81
179.519	179.7	53	64
179.704	179.889	63	57
179.889	180.064	60	60
180.067	180.254	63	57
180.254	180.432	72	78
180.255	180.61	62	66
180.432	180.614	70	73
180.614	180.799	74	81
180.617	181.345	62	60
180.618	180.977	57	60
180.799	180.978	72	75
180.978	181.163	75	82
180.982	181.346	58	64
181.163	181.346	74	77
181.348	181.524	77	85
181.349	181.709	51	58
181.349	181.71	60	58
181.524	181.713	75	81
181.714	182.262	74	85
181.716	182.812	53	65
181.716	182.444	58	65
182.263	182.353	75	81
182.354	182.448	74	76
182.451	182.812	57	60
182.451	182.626	72	73
182.629	182.815	74	77
182.815	183.004	75	78
183.005	183.196	76	81
183.197	183.886	58	65
183.197	183.886	77	83
183.375	183.744	65	57
183.564	183.886	62	60
183.744	183.921	65	56
183.744	183.886	75	74
183.806	183.886	74	74
183.866	183.922	72	74
183.924	184.012	70	79
183.925	184.103	55	64
184.103	184.194	70	76
184.104	184.289	62	57
184.289	184.373	70	79
184.29	184.475	58	60
184.475	184.565	70	77
184.478	184.656	62	57
184.66	184.888	75	85
184.663	184.978	51	64
184.842	184.978	77	61
184.843	185.017	60	56
184.888	184.971	75	61
184.926	184.978	74	61
184.971	185.02	75	61
185.02	185.384	79	78
185.024	185.198	55	59
185.199	185.384	60	56
185.385	185.749	69	82
185.388	185.562	53	64
185.566	185.752	63	56
185.752	185.93	60	59
185.931	186.112	63	55
185.931	186.108	81	77
186.113	186.836	58	59
186.113	186.486	82	85
186.115	186.486	50	59
186.232	186.486	77	75
186.354	186.486	74	74
186.477	186.829	79	84
186.479	186.837	51	57
186.592	186.829	75	76
186.715	186.837	72	75
186.838	187.218	77	84
186.84	187.218	62	59
186.841	187.568	53	59
186.959	187.218	74	76
187.082	187.218	70	77
187.198	187.568	75	84
187.201	187.568	63	57
187.32	187.568	72	76
187.442	187.568	69	75
187.565	187.95	70	83
187.566	187.95	58	59
187.568	187.951	62	59
187.953	188.339	46	63
188.149	188.342	65	55
188.342	188.432	70	58
188.531	188.625	69	53
188.716	188.81	70	55
188.909	189.0	72	52
189.101	189.493	74	55
189.494	189.882	70	56
189.497	189.882	74	56
189.498	189.885	58	47
189.885	190.27	70	59
189.889	190.274	55	48
189.889	190.274	74	59
190.278	190.663	72	55
190.278	190.663	75	55
190.279	190.663	51	46
190.664	191.054	72	54
190.666	191.058	53	47
190.666	191.058	69	54
191.058	191.439	41	57
191.254	191.44	65	55
191.443	191.53	72	57
191.629	191.722	70	53
191.814	191.909	72	56
192.006	192.101	74	52
192.199	192.595	75	56
192.595	192.982	67	56
192.596	192.983	75	56
192.597	192.986	60	45
192.987	193.378	75	58
192.989	193.379	72	58
192.99	193.379	57	45
193.382	193.767	77	56
193.383	193.77	53	45
193.383	193.768	69	56
193.77	194.163	70	54
193.771	194.163	74	54
193.774	194.164	58	46
194.166	194.544	46	70
194.358	194.544	70	56
194.548	194.638	74	60
194.733	194.824	75	64
194.914	195.009	77	68
195.1	195.194	79	72
195.285	195.475	80	76
195.66	195.86	65	72
195.661	195.866	50	59
195.661	195.864	58	64
195.661	195.864	68	72
195.664	195.867	38	53
196.059	196.259	58	65
196.059	196.258	68	73
196.06	196.259	65	73
196.063	196.262	38	57
196.063	196.263	50	64
196.459	196.675	68	71
196.462	196.676	60	63
196.462	196.675	65	71
196.466	196.679	36	52
196.466	196.679	48	58
196.888	197.281	65	72
196.889	197.282	62	64
196.892	197.282	67	72
196.893	197.284	35	51
196.893	197.282	47	57
197.285	197.652	59	66
197.469	197.653	74	53
197.653	197.743	79	58
197.833	197.928	78	53
198.023	198.387	67	47
198.023	198.113	79	56
198.024	198.387	58	47
198.208	198.303	74	53
198.387	198.586	77	57
198.391	198.775	60	48
198.391	198.776	67	48
198.587	198.779	75	53
198.779	199.146	48	55
198.968	199.149	67	53
199.15	199.241	72	54
199.242	199.332	71	58
199.335	199.423	74	61
199.423	199.514	72	65
199.515	199.601	75	69
199.602	199.689	74	73
199.689	199.78	77	76
199.784	199.867	75	80
199.868	200.053	79	84
200.238	200.441	67	74
200.242	200.442	60	66
200.242	200.444	63	74
200.243	200.445	36	52
200.245	200.445	48	58
200.645	200.844	60	66
200.648	200.845	63	74
200.648	200.845	67	74
200.649	200.845	48	62
200.652	200.847	36	55
201.047	201.26	60	64
201.047	201.26	66	72
201.051	201.264	34	52
201.051	201.267	46	58
201.051	201.264	63	72
201.481	201.866	63	71
201.482	201.867	65	71
201.484	201.867	45	57
201.484	201.867	60	63
201.485	201.869	33	51
201.87	202.237	57	60
202.054	202.238	72	52
202.24	202.328	77	55
202.422	202.513	76	52
202.608	202.979	57	44
202.608	202.698	77	55
202.612	202.979	65	44
202.793	202.888	72	52
202.979	203.171	75	55
202.983	203.361	58	44
202.983	203.361	65	44
203.172	203.364	74	52
203.367	203.728	46	51
203.486	203.609	82	73
203.609	203.729	81	69
203.731	203.85	82	77
203.85	203.966	81	69
203.97	204.088	79	70
204.089	204.208	77	73
204.211	204.329	75	72
204.334	204.452	74	71
204.453	204.638	72	70
204.642	204.823	51	52
204.827	205.012	58	55
204.946	205.068	72	70
205.013	205.191	55	51
205.069	205.191	74	72
205.195	205.559	60	60
205.195	205.313	75	74
205.314	205.436	74	73
205.437	205.559	72	68
205.56	205.677	79	73
205.682	205.8	77	72
205.803	205.922	75	71
205.923	206.279	74	69
206.104	206.283	53	57
206.286	206.461	58	60
206.402	206.528	82	74
206.465	206.647	56	54
206.528	206.649	81	74
206.65	206.769	82	76
206.651	207.007	62	68
206.769	206.891	80	72
206.896	207.008	79	71
207.011	207.13	77	73
207.134	207.252	75	71
207.254	207.378	74	70
207.379	207.747	75	74
207.561	207.747	55	54
207.747	207.925	63	58
207.87	207.985	75	71
207.926	208.108	58	54
207.986	208.108	77	72
208.109	208.226	79	74
208.111	208.472	67	65
208.23	208.349	77	73
208.352	208.472	75	72
208.475	208.601	82	79
208.602	208.723	80	72
208.723	208.849	79	70
208.85	209.216	77	72
209.028	209.217	50	55
209.217	209.396	58	58
209.336	209.459	82	74
209.396	209.581	53	55
209.459	209.582	81	71
209.584	209.696	82	76
209.585	209.941	62	64
209.696	209.819	80	72
209.822	209.942	79	73
209.942	210.061	77	71
210.064	210.182	79	72
210.186	210.305	80	74
210.306	210.428	79	72
210.309	212.489	51	73
210.428	210.55	82	78
210.551	210.673	81	75
210.674	210.796	79	71
210.796	210.914	81	73
210.919	211.037	82	75
211.041	211.764	55	70
211.041	211.159	75	70
211.16	211.282	79	74
211.282	211.405	77	69
211.405	211.52	75	70
211.521	211.642	77	72
211.642	211.765	79	75
211.765	211.884	72	73
211.766	212.49	60	74
211.885	212.007	75	76
212.01	212.128	74	74
212.132	212.244	72	73
212.245	212.367	74	74
212.371	212.493	75	69
212.494	213.214	60	70
212.494	212.608	67	72
212.495	213.215	52	70
212.612	212.734	70	74
212.735	212.853	69	72
212.854	212.969	67	68
212.973	213.091	69	70
213.092	213.217	70	71
213.217	213.495	69	71
213.221	213.56	53	65
213.309	213.56	65	69
213.402	213.56	67	70
213.403	213.581	60	60
213.495	213.582	69	71
213.582	213.935	70	72
213.585	213.935	57	68
213.676	213.935	72	73
213.761	213.935	74	74
213.764	213.939	60	66
213.854	213.942	76	76
213.942	214.334	77	77
213.946	214.334	53	69
214.033	214.334	79	78
214.128	214.334	81	79
214.131	214.334	60	65
214.212	214.334	82	80
214.303	214.492	84	93
214.304	214.492	57	71
214.489	214.579	75	76
214.491	214.674	60	66
214.674	214.947	74	74
214.675	215.02	53	65
214.762	215.02	70	69
214.853	215.02	72	71
214.855	215.03	62	58
214.947	215.034	74	72
215.034	215.38	75	74
215.038	215.38	58	66
215.126	215.38	77	75
215.214	215.38	79	77
215.216	215.391	62	62
215.304	215.392	81	78
215.395	215.744	53	69
215.395	215.744	82	80
215.486	215.744	84	81
215.574	215.751	62	64
215.574	215.744	86	83
215.664	215.752	87	84
215.755	216.049	89	99
215.756	216.049	58	71
215.941	216.126	62	66
215.941	216.122	82	82
216.127	216.493	53	71
216.127	216.491	81	78
216.211	216.396	82	81
216.305	216.493	84	83
216.307	216.493	63	67
216.396	216.493	82	80
216.491	216.865	60	71
216.491	216.865	81	79
216.578	216.865	82	82
216.669	216.865	84	85
216.672	216.865	63	66
216.757	216.865	86	88
216.851	217.212	87	89
216.852	217.212	53	75
216.938	217.212	86	87
217.03	217.212	84	86
217.032	217.212	60	71
217.117	217.212	82	84
217.211	217.579	57	73
217.211	217.579	81	82
217.295	217.579	79	80
217.393	217.579	77	78
217.394	217.579	60	66
217.484	217.579	75	77
217.576	217.848	74	75
217.579	217.957	53	69
217.663	217.957	77	75
217.754	217.943	75	74
217.758	217.957	62	65
217.848	217.957	74	73
217.943	218.304	58	67
217.943	218.304	75	71
218.034	218.304	77	73
218.122	218.304	79	76
218.124	218.304	62	63
218.212	218.304	81	78
218.3	218.632	82	79
218.304	218.632	53	68
218.395	218.632	81	78
218.483	218.632	79	77
218.485	218.667	62	63
218.573	218.668	77	76
218.668	219.046	75	75
218.67	219.046	58	65
218.759	219.046	74	74
218.847	219.042	72	72
218.849	219.046	62	56
218.94	219.046	70	71
219.039	219.219	77	70
219.041	219.224	69	70
219.042	219.409	57	60
219.042	219.409	60	60
219.042	219.227	72	70
219.045	219.412	53	60
219.413	219.605	65	71
219.798	219.976	51	54
219.798	220.343	72	76
219.98	220.165	53	50
220.165	220.344	51	45
220.344	220.435	69	60
220.347	220.522	53	41
220.438	220.526	65	60
220.526	220.894	70	67
220.527	220.711	50	48
220.712	220.894	53	45
220.897	221.264	71	70
220.9	221.079	50	51
221.082	221.268	53	47
221.268	221.81	72	74
221.271	221.446	51	53
221.446	221.624	53	50
221.628	221.814	51	47
221.814	221.901	69	61
221.816	221.992	53	43
221.902	221.993	65	61
221.993	222.353	70	65
221.995	222.171	50	46
222.174	222.353	53	38
222.354	222.538	50	44
222.539	222.724	53	42
222.724	222.815	72	75
222.727	222.909	51	56
222.909	223.269	72	75
222.912	223.091	53	55
223.091	223.27	51	49
223.27	223.361	69	61
223.273	223.455	53	46
223.364	223.455	65	61
223.459	223.637	50	48
223.459	223.543	70	64
223.637	223.728	70	68
223.638	223.819	53	45
223.82	223.913	71	71
223.822	224.005	50	50
224.005	224.092	71	71
224.008	224.186	53	47
224.187	224.365	51	53
224.187	224.281	72	77
224.365	224.733	72	77
224.369	224.547	53	50
224.548	224.733	51	48
224.734	224.82	69	60
224.735	224.911	53	45
224.821	224.912	65	62
224.914	225.279	70	66
224.915	225.093	50	53
225.094	225.28	65	49
225.28	225.457	62	53
225.458	225.639	65	49
225.639	226.023	83	65
225.64	226.007	63	54
225.73	225.91	84	68
225.818	226.023	86	70
225.821	226.023	65	48
225.91	226.023	84	73
226.007	226.367	63	57
226.007	226.365	82	76
226.091	226.367	81	77
226.186	226.367	79	80
226.187	226.367	65	52
226.276	226.367	77	79
226.365	226.644	82	85
226.367	226.735	62	64
226.458	226.728	77	75
226.55	226.728	86	85
226.644	226.735	82	79
226.739	226.917	89	85
226.823	227.008	86	78
226.917	227.015	89	85
227.008	227.095	86	77
227.096	227.186	89	83
227.189	227.281	87	83
227.281	227.369	86	82
227.369	227.459	84	81
227.46	227.547	82	81
227.463	227.827	50	75
227.463	227.826	58	75
227.55	227.641	81	80
227.641	227.732	79	79
227.736	227.827	77	79
227.83	228.1	79	87
227.831	228.192	51	85
227.831	228.192	58	85
227.914	228.192	75	78
228.005	228.191	82	86
228.1	228.192	79	76
228.191	228.366	82	86
228.278	228.461	81	77
228.366	228.516	82	83
228.461	228.544	81	77
228.548	228.639	82	79
228.639	228.729	81	73
228.734	228.821	79	76
228.822	228.912	77	68
228.912	228.996	75	72
228.913	229.276	58	57
228.915	229.279	51	57
228.915	229.279	60	57
229.0	229.09	74	67
229.094	229.185	72	68
229.186	229.283	70	63
229.283	229.324	65	67
229.284	229.457	53	61
229.363	229.458	77	67
229.458	229.549	79	69
229.461	229.64	62	57
229.549	229.64	77	67
229.64	229.73	75	67
229.641	229.822	58	62
229.731	229.825	74	64
229.826	230.003	62	57
229.826	229.909	72	67
229.909	230.004	70	64
230.004	230.137	74	67
230.008	230.378	53	61
230.074	230.207	72	62
230.137	230.277	74	67
230.186	230.378	63	55
230.207	230.347	72	67
230.277	230.378	74	67
230.347	230.48	72	61
230.368	230.686	57	61
230.417	230.686	74	67
230.48	230.641	72	63
230.551	230.686	70	69
230.553	230.728	63	55
230.641	230.729	72	70
230.731	230.823	74	72
230.732	231.092	58	61
230.823	230.914	75	74
230.914	231.001	77	74
231.002	231.096	75	72
231.096	231.18	74	71
231.183	231.275	72	70
231.275	231.368	70	68
231.277	231.453	60	69
231.369	231.453	69	67
231.456	231.547	70	69
231.46	231.82	62	74
231.547	231.638	72	71
231.642	231.725	74	72
231.729	231.82	72	70
231.821	231.908	70	69
231.908	231.998	68	69
231.999	232.093	67	68
232.003	232.181	38	64
232.003	232.181	50	64
232.093	232.181	66	67
232.184	232.545	39	69
232.184	232.271	67	67
232.185	232.545	51	69
232.272	232.366	69	70
232.367	232.454	70	72
232.454	232.549	69	71
232.549	232.632	67	70
232.633	232.727	65	69
232.728	232.814	63	68
232.814	232.905	62	68
232.906	232.996	60	67
232.999	233.091	62	68
233.092	233.178	63	69
233.182	233.272	62	68
233.273	233.357	60	66
233.358	233.451	58	65
233.451	233.543	57	63
233.546	233.636	55	61
233.637	233.819	53	60
233.64	235.086	41	88
233.641	235.089	29	88
233.819	233.909	55	62
233.91	234.004	57	64
234.005	234.088	58	66
234.092	234.183	60	68
234.183	234.27	62	70
234.271	234.365	63	69
234.366	234.456	67	72
234.456	234.539	65	71
234.544	234.634	63	70
234.637	234.729	62	69
234.729	234.817	63	67
234.817	234.907	65	67
234.908	234.995	67	68
234.996	235.093	69	69
235.093	235.176	70	71
235.094	235.45	41	70
235.094	235.45	50	70
235.096	235.451	46	70
235.177	235.267	69	71
235.268	235.362	67	70
235.363	235.451	65	69
235.454	235.54	67	68
235.541	235.628	69	69
235.629	235.723	70	70
235.723	235.807	72	71
235.807	235.901	74	73
235.811	236.174	46	71
235.811	236.175	50	71
235.814	236.175	41	71
235.902	235.989	72	73
235.989	236.08	70	72
236.083	236.177	69	71
236.178	236.261	70	70
236.262	236.353	72	71
236.353	236.44	74	73
236.444	236.534	75	75
236.535	236.899	58	81
236.535	236.713	77	76
236.538	236.899	53	81
236.539	236.899	62	81
236.629	236.807	74	71
236.713	236.899	77	76
236.807	236.899	74	70
236.899	237.074	82	82
236.99	237.165	77	76
237.074	237.347	82	82
237.165	237.977	77	76
237.256	237.435	86	88
237.347	237.526	82	83
237.435	237.704	86	88
237.526	237.973	82	83
237.613	237.795	89	95
237.704	237.879	86	88
237.795	237.977	89	95
237.879	237.977	86	85
237.973	238.149	82	93
238.061	238.24	86	89
238.149	238.422	82	93
238.24	239.411	86	87
238.327	238.509	77	89
238.422	238.596	82	84
238.509	238.781	77	90
238.596	239.411	82	84
238.687	238.869	74	87
238.781	238.957	77	80
238.869	239.139	74	87
238.957	239.411	77	80
239.048	239.23	70	81
239.139	239.321	74	73
239.23	239.411	70	81
239.321	239.411	74	73
239.409	239.594	65	83
239.41	239.595	53	57
239.595	239.775	62	54
239.78	240.326	77	91
239.782	239.958	58	57
239.961	240.143	62	53
240.144	240.326	53	57
240.326	240.416	79	77
240.329	240.504	62	52
240.417	240.505	77	76
240.507	240.598	75	76
240.508	240.685	58	57
240.598	240.686	74	75
240.686	240.776	72	74
240.689	240.864	62	53
240.777	240.865	70	73
240.868	242.143	70	53
240.869	241.599	53	66
240.927	241.054	72	48
240.991	241.109	74	49
241.054	241.418	63	59
241.054	241.173	72	53
241.109	241.236	74	51
241.173	241.295	72	55
241.236	241.351	74	52
241.239	241.965	60	65
241.295	241.418	72	56
241.351	241.474	74	52
241.418	241.779	63	61
241.418	241.536	72	56
241.474	241.597	74	54
241.536	241.656	72	58
241.597	241.719	74	55
241.599	242.331	53	65
241.656	241.778	72	59
241.719	241.841	74	54
241.778	241.897	72	60
241.779	242.145	63	61
241.841	241.964	74	56
241.897	242.048	72	57
241.964	242.331	74	65
241.965	242.331	60	65
242.048	242.236	72	61
242.143	242.328	70	67
242.145	242.331	63	61
242.236	242.331	72	64
242.328	242.514	70	70
242.331	242.699	58	52
242.331	242.696	62	52
242.514	242.768	70	59
242.696	243.296	62	52
242.699	243.296	58	52
242.873	243.056	70	56
243.056	243.241	70	57
243.241	243.598	70	57
243.42	243.784	58	56
243.42	243.785	62	56
243.598	243.785	70	56
243.783	243.959	72	60
243.784	244.147	58	58
243.784	244.147	69	58
243.959	244.256	72	57
244.147	244.788	58	54
244.147	244.788	69	54
244.325	244.508	72	57
244.508	244.683	72	60
244.683	244.862	72	57
244.865	245.233	58	61
244.869	245.236	69	61
245.05	245.236	72	61
245.233	245.592	58	67
245.233	245.411	74	65
245.236	245.59	68	67
245.411	245.775	74	61
245.59	245.953	68	62
245.592	245.957	58	62
245.775	245.957	74	70
245.96	246.135	75	72
245.961	246.318	58	71
245.961	246.318	67	71
246.135	246.373	75	70
246.318	246.682	58	68
246.318	246.681	67	68
246.496	246.682	76	77
246.682	246.864	77	81
246.685	247.043	62	82
246.686	247.043	58	82
246.864	247.165	77	78
247.043	247.406	58	76
247.043	247.409	62	76
247.22	247.409	78	85
247.409	247.588	79	92
247.41	247.77	58	85
247.413	247.784	63	85
247.588	247.784	79	92
247.77	248.145	58	91
247.77	247.864	81	96
247.771	248.145	60	91
247.955	248.05	81	96
248.145	248.546	74	109
248.148	248.326	46	76
248.148	248.326	58	90
248.235	248.414	82	93
248.324	248.505	86	105
248.326	248.546	46	73
248.326	248.546	58	87
248.414	248.546	82	96
248.505	248.684	86	105
248.599	248.778	82	96
248.684	248.886	46	71
248.684	248.886	86	103
248.687	248.886	58	84
248.778	248.886	82	94
248.866	249.208	74	110
248.869	249.047	50	76
248.869	249.048	62	90
248.957	249.14	82	94
249.047	249.208	50	74
249.047	249.208	86	103
249.048	249.208	62	88
249.14	249.229	82	100
249.23	249.412	86	105
249.317	249.499	82	94
249.412	249.594	46	72
249.412	249.594	86	100
249.413	249.594	58	85
249.499	249.594	82	95
249.593	249.961	74	109
249.594	249.776	43	76
249.594	249.776	55	90
249.677	249.86	82	95
249.772	249.95	86	100
249.776	249.961	43	74
249.776	249.961	55	88
249.86	249.961	82	93
249.95	250.129	86	105
250.042	250.224	82	95
250.129	250.315	86	100
250.132	250.315	43	71
250.133	250.315	55	84
250.224	250.315	82	93
250.314	250.493	58	90
250.314	250.643	74	109
250.315	250.493	46	76
250.402	250.584	82	95
250.492	250.643	86	101
250.493	250.643	46	73
250.493	250.643	58	87
250.584	250.675	82	94
250.675	250.857	86	105
250.763	250.949	82	96
250.857	251.04	86	100
250.858	251.04	43	71
250.86	251.04	55	84
250.949	251.04	82	93
251.037	251.354	74	109
251.039	251.225	38	76
251.039	251.225	50	90
251.127	251.316	82	95
251.224	251.354	86	100
251.225	251.354	38	75
251.225	251.354	50	89
251.316	251.407	82	95
251.407	251.593	86	104
251.501	251.687	82	94
251.593	251.805	86	101
251.595	251.805	38	74
251.595	251.805	50	88
251.687	251.805	82	93
251.787	251.882	74	109
251.788	251.988	39	77
251.788	251.988	51	91
251.883	252.086	82	95
251.984	252.195	86	100
251.988	252.211	39	77
251.988	252.211	51	91
252.086	252.211	82	95
252.195	252.404	86	104
252.196	252.404	40	81
252.196	252.404	52	96
252.295	252.505	82	95
252.404	252.688	40	78
252.404	252.688	52	92
252.404	252.681	86	100
252.505	252.681	82	95
252.681	254.115	82	99
252.681	254.115	86	99
252.684	254.115	41	79
252.684	254.115	74	99
252.684	254.115	77	99
252.687	254.115	53	93
254.234	254.322	65	57
254.322	254.406	69	59
254.407	254.493	67	61
254.497	254.581	70	62
254.581	254.668	69	64
254.669	254.759	72	66
254.763	254.857	70	68
254.959	255.046	69	54
255.047	255.137	72	56
255.141	255.225	70	58
255.225	255.32	74	60
255.32	255.407	72	61
255.408	255.498	75	63
255.499	255.589	74	65
255.683	255.778	72	56
255.779	255.876	75	58
255.876	255.967	74	59
255.971	256.065	77	60
256.068	256.163	75	62
256.166	256.271	79	63
256.272	256.457	53	51
256.273	256.818	77	69
256.458	256.635	62	45
256.638	256.817	58	47
256.818	257.004	62	44
256.818	257.003	74	66
257.004	257.182	70	70
257.006	257.185	53	50
257.185	257.363	62	44
257.364	257.549	58	47
257.364	257.546	70	70
257.549	257.734	62	44
257.735	257.912	75	76
257.738	257.913	53	51
257.916	257.961	77	54
257.917	258.102	63	44
257.962	258.007	75	54
258.008	258.053	74	54
258.054	258.102	75	54
258.103	258.276	60	47
258.103	258.459	79	70
258.281	258.459	63	45
258.46	258.83	69	72
258.463	258.644	53	50
258.645	258.83	63	39
258.834	259.012	60	44
259.013	259.201	63	38
259.205	259.852	53	51
259.206	259.852	77	68
259.383	259.752	61	41
259.564	259.852	58	45
259.751	259.929	73	59
259.752	259.93	61	41
259.93	260.108	70	63
259.932	260.108	53	47
260.111	260.293	61	40
260.297	260.479	58	45
260.297	260.479	70	63
260.482	260.66	61	40
260.661	260.892	75	68
260.664	260.972	53	48
260.846	260.972	77	48
260.849	261.024	63	40
260.892	260.972	75	48
260.934	260.979	74	48
260.98	261.024	75	48
261.025	261.392	78	63
261.028	261.203	60	45
261.207	261.392	63	40
261.393	261.756	69	64
261.396	261.57	53	48
261.571	261.756	63	36
261.76	261.938	60	41
261.939	262.124	63	35
262.124	262.214	70	76
262.125	262.487	54	75
262.125	262.49	61	75
262.309	262.491	82	79
262.491	262.67	84	81
262.67	262.855	85	77
262.856	263.034	84	84
263.037	263.212	82	77
263.213	263.398	80	79
263.401	263.579	78	78
263.58	264.318	77	76
263.583	265.049	54	66
263.764	263.943	58	63
263.947	264.129	60	66
264.133	264.318	61	70
264.319	265.05	76	72
264.322	264.496	61	70
264.497	264.682	60	65
264.682	264.864	60	69
264.865	265.05	58	66
265.052	265.228	77	86
265.053	265.418	53	47
265.053	265.418	57	67
265.228	265.596	77	86
265.418	266.064	53	35
265.418	266.064	57	50
265.596	265.778	77	60
265.778	265.956	77	65
265.956	266.138	77	60
266.139	266.505	53	35
266.141	266.506	57	50
266.32	266.503	77	60
266.503	266.684	77	65
266.505	266.87	53	38
266.505	266.87	58	53
266.506	266.869	55	38
266.684	267.002	77	60
266.869	267.45	55	35
266.87	267.45	53	35
266.87	267.45	58	50
267.044	267.235	77	64
267.235	267.413	77	66
267.413	267.591	77	64
267.591	267.965	56	54
267.592	267.965	59	54
267.594	267.964	53	38
267.776	267.962	77	69
267.962	268.326	57	39
267.962	268.137	77	72
267.963	268.33	60	55
267.964	268.689	53	39
268.137	268.33	77	72
268.326	268.69	57	43
268.326	268.69	61	61
268.501	268.691	77	79
268.693	268.875	77	82
268.694	269.057	58	47
268.694	269.06	62	66
268.695	269.443	53	47
268.875	269.061	77	84
269.064	269.445	59	51
269.065	269.445	62	71
269.25	269.442	77	86
269.442	270.905	77	86
269.443	270.905	53	55
269.443	270.905	63	77
269.445	270.905	60	55
269.624	269.803	81	81
269.803	270.905	81	86
269.985	270.17	84	81
270.17	270.716	84	86
270.349	270.534	87	81
270.534	270.905	87	86
270.716	270.905	84	75
270.905	271.531	84	81
271.08	271.266	81	73
271.266	271.531	81	79
271.448	271.629	77	71
271.63	271.822	77	68
271.822	272.014	76	57
272.015	272.21	76	60
272.214	272.438	77	57
272.438	272.634	77	57
272.442	272.635	53	36
272.635	272.827	76	56
272.637	272.827	57	36
272.827	273.596	75	54
272.83	273.022	57	42
273.026	273.215	60	42
273.218	273.401	60	50
273.404	273.601	63	48
273.601	274.335	75	66
273.603	273.779	63	56
273.779	273.964	60	51
273.965	274.15	60	55
274.15	274.339	57	53
274.339	274.615	75	68
274.34	274.52	57	55
274.525	274.71	53	51
274.71	274.993	75	70
274.711	274.898	54	56
274.899	275.084	55	59
275.084	275.357	75	76
275.085	275.262	56	62
275.266	275.452	57	65
275.452	275.857	74	84
275.455	275.637	58	69
275.637	275.857	58	46
275.823	276.195	77	58
275.826	276.195	68	58
276.001	276.194	58	46
276.193	276.645	75	54
276.194	276.369	58	48
276.194	276.645	67	54
276.369	276.645	58	46
276.551	276.919	74	48
276.554	276.919	66	48
276.733	276.919	58	46
276.916	277.307	67	48
276.918	277.307	75	48
276.919	277.101	58	49
277.101	277.307	58	46
277.296	277.713	70	56
277.296	277.713	79	56
277.464	277.657	58	46
277.653	278.017	77	54
277.657	277.832	58	49
277.657	278.017	68	54
277.832	278.017	58	46
278.021	278.389	67	51
278.021	278.389	76	51
278.195	278.389	58	45
278.385	278.846	68	56
278.389	278.57	58	48
278.389	278.75	77	56
278.57	278.846	58	51
278.75	279.154	77	63
278.753	279.154	80	63
278.934	279.119	58	57
279.117	279.508	75	69
279.118	279.508	79	69
279.119	279.295	58	60
279.295	279.508	58	64
279.477	279.845	74	78
279.477	279.845	77	78
279.655	279.848	58	70
279.844	280.023	79	78
279.845	280.198	59	66
279.845	280.024	74	66
279.845	280.026	77	78
280.023	280.141	79	78
280.024	280.141	74	66
280.026	280.141	77	78
280.198	280.565	47	56
280.201	280.565	59	66
280.376	280.569	74	66
280.38	280.569	77	78
280.38	280.57	79	78
280.57	280.75	87	82
280.572	280.929	60	71
280.572	280.751	75	69
280.572	280.749	79	69
280.573	280.929	48	60
280.749	280.838	79	66
280.75	280.838	87	78
280.751	280.839	75	66
280.933	281.297	46	56
280.933	281.296	58	66
281.111	281.297	79	75
281.112	281.3	72	63
281.112	281.301	75	63
281.301	281.482	77	78
281.304	281.657	45	61
281.304	281.48	72	66
281.304	281.482	75	78
281.305	281.658	57	72
281.48	281.633	72	63
281.482	281.633	75	75
281.482	281.633	77	75
281.658	282.014	57	66
281.66	282.018	45	56
281.836	282.018	72	69
281.836	282.021	77	82
281.837	282.022	75	82
282.022	282.2	77	73
282.023	282.2	74	73
282.024	282.201	86	86
282.025	282.374	46	58
282.025	282.378	58	69
282.2	282.353	74	68
282.2	282.353	77	68
282.201	282.353	86	81
282.379	282.743	45	56
282.379	282.742	57	66
282.56	282.743	70	63
282.564	282.746	74	63
282.564	282.746	77	75
282.747	282.932	74	78
282.749	282.932	70	66
282.75	283.106	55	70
282.75	282.933	75	78
282.753	283.11	43	59
282.932	283.089	70	62
282.932	283.089	74	74
282.933	283.089	75	74
283.111	283.47	43	56
283.111	283.474	55	66
283.289	283.478	70	67
283.289	283.477	74	79
283.289	283.477	75	79
283.478	283.659	84	84
283.481	283.656	72	71
283.481	283.66	75	71
283.482	283.838	57	69
283.484	283.838	45	58
283.656	283.82	72	65
283.659	283.82	84	77
283.66	283.82	75	65
283.841	284.206	43	56
283.841	284.206	55	66
284.019	284.209	69	62
284.019	284.206	72	62
284.02	284.209	75	74
284.209	284.388	72	78
284.213	284.569	54	68
284.213	284.391	69	66
284.213	284.387	74	78
284.214	284.57	42	57
284.387	284.549	74	74
284.388	284.549	72	74
284.391	284.549	69	62
284.573	284.937	42	56
284.573	284.936	54	66
284.755	284.937	69	64
284.755	284.94	72	76
284.758	284.941	74	76
284.941	285.122	82	83
284.942	285.119	74	70
284.943	285.122	70	70
284.944	285.297	43	59
284.944	285.298	55	70
285.119	285.237	74	65
285.122	285.237	70	65
285.122	285.237	82	77
285.298	285.661	53	66
285.3	285.662	41	56
285.483	285.666	67	63
285.483	285.665	70	63
285.483	285.666	74	75
285.666	285.855	72	78
285.668	285.854	70	78
285.669	285.854	67	66
285.672	286.032	39	62
285.673	286.032	51	73
285.854	286.032	67	63
285.854	286.032	70	75
285.855	286.032	72	75
285.857	286.032	55	65
286.029	286.214	58	65
286.215	286.393	55	65
286.215	286.393	72	78
286.396	286.575	51	71
286.396	286.574	82	86
286.575	286.666	82	82
286.576	286.753	55	65
286.753	286.938	82	84
286.757	286.942	58	65
286.943	287.118	55	60
286.943	287.118	72	76
287.121	287.211	74	79
287.125	287.306	53	69
287.306	287.39	74	79
287.307	287.484	56	60
287.485	287.67	58	65
287.671	287.846	56	60
287.671	287.845	74	74
287.846	288.031	82	86
287.848	288.031	53	69
288.032	288.119	82	82
288.034	288.202	56	61
288.205	288.384	82	82
288.206	288.384	58	65
288.385	288.569	74	76
288.388	288.57	56	61
288.57	288.661	75	80
288.573	288.749	55	71
288.752	288.937	58	64
288.752	288.842	75	80
288.937	289.115	63	68
289.116	289.294	76	77
289.117	289.298	58	65
289.298	289.389	77	82
289.301	289.483	50	78
289.484	289.662	56	66
289.484	289.571	77	82
289.662	289.847	58	71
289.848	290.03	78	79
289.85	290.03	56	69
290.03	290.215	79	80
290.031	290.216	51	79
290.216	290.299	79	82
290.217	290.393	63	72
290.394	290.484	81	83
290.396	290.579	48	82
290.579	290.673	81	85
290.582	290.764	60	73
290.765	290.95	50	83
290.765	290.859	82	86
290.95	291.04	82	88
290.951	291.135	62	76
291.136	291.23	84	89
291.138	291.328	45	84
291.328	291.52	57	78
291.328	291.418	84	91
291.52	292.295	85	98
291.521	292.319	46	90
291.521	292.319	58	90
292.102	292.319	84	84
292.148	292.246	82	87
292.196	292.319	81	89
292.246	292.319	82	92
292.295	293.095	85	94
292.298	293.099	42	89
292.298	293.099	54	89
292.896	293.099	84	87
292.941	293.04	82	89
292.994	293.099	81	91
293.04	293.099	82	94
293.095	294.573	85	95
293.096	294.222	40	89
293.096	294.222	52	89
294.296	294.573	82	87
294.384	294.573	79	86
294.468	294.573	76	84
294.562	294.919	73	83
294.65	294.919	70	82
294.744	294.919	67	81
294.835	294.933	64	79
294.933	295.314	61	69
295.028	295.314	58	71
295.125	295.314	55	74
295.224	295.321	52	77
295.322	295.759	50	80
295.427	295.759	46	82
295.531	295.759	43	85
295.633	295.759	40	88
295.746	296.844	41	108
295.748	296.844	53	108
296.934	297.117	57	66
297.034	297.134	55	67
297.134	297.408	53	69
297.226	297.408	55	70
297.32	297.408	57	71
297.407	297.999	58	72
297.499	297.999	60	74
297.586	297.999	62	74
297.674	297.999	63	76
297.754	297.999	65	78
297.835	297.999	67	79
297.922	298.002	69	81
298.006	298.443	70	83
298.08	298.443	72	84
298.16	298.443	74	86
298.237	298.443	75	88
298.314	298.443	77	89
298.387	298.461	79	91
298.461	298.915	81	93
298.531	298.915	82	94
298.608	298.915	84	94
298.678	298.915	86	96
298.748	298.915	87	98
298.818	298.915	89	99
299.784	299.976	70	63
299.98	300.071	70	64
300.071	300.161	72	60
300.162	300.249	74	65
300.25	300.344	72	60
300.344	300.428	74	66
300.432	300.515	72	61
300.516	300.603	74	67
300.604	300.687	72	63
300.687	300.771	74	68
300.771	300.854	72	63
300.855	300.935	74	69
300.936	301.016	72	65
301.016	301.093	74	70
301.093	301.173	72	65
301.174	301.331	74	69
301.176	303.379	60	54
301.177	303.382	53	54
301.177	303.382	57	54
301.177	303.379	63	54
301.248	301.408	72	64
301.331	301.485	74	68
301.408	301.563	72	67
301.485	301.639	74	66
301.563	301.72	72	62
301.639	301.775	74	65
301.72	301.792	72	64
301.793	302.248	71	63
301.878	302.248	72	65
301.954	302.248	74	66
302.035	302.248	75	68
302.108	302.248	77	69
302.186	302.258	79	71
302.258	302.654	81	72
302.336	302.654	82	74
302.409	302.654	84	75
302.479	302.626	86	76
302.556	302.654	87	78
302.626	302.693	86	79
302.696	303.039	89	96
302.783	303.038	87	94
302.864	303.039	86	91
302.948	303.039	84	89
303.038	303.36	87	92
303.123	303.36	86	91
303.208	303.36	84	89
303.291	303.36	82	87
303.382	303.694	86	91
303.459	303.694	84	89
303.547	303.694	82	87
303.634	303.694	81	85
303.714	304.05	84	89
303.803	304.05	82	88
303.889	304.05	81	86
303.97	304.05	79	88
304.058	304.331	81	90
304.229	304.401	79	82
304.401	304.481	77	80
304.568	304.656	75	75
304.736	305.045	79	81
304.911	305.086	77	74
305.087	305.174	75	71
305.258	305.346	74	67
305.433	305.689	79	72
305.608	305.786	77	68
305.787	305.874	75	65
305.962	306.048	74	62
306.14	306.703	77	64
306.497	306.854	75	60
306.857	307.028	74	56
307.208	307.389	72	52
307.565	307.655	70	51
307.75	307.845	72	49
307.935	308.026	73	48
308.128	308.226	74	46
308.323	309.346	75	47
309.347	310.644	76	40
310.645	311.194	77	60
311.012	311.372	58	42
311.194	311.372	74	53
311.376	311.557	70	55
311.377	311.737	62	48
311.737	311.929	70	55
311.74	312.115	67	46
312.115	312.296	75	60
312.117	312.481	60	52
312.297	312.342	77	47
312.343	312.388	75	47
312.388	312.437	74	47
312.437	312.482	75	49
312.482	312.842	79	55
312.485	312.843	63	47
312.843	313.206	69	57
312.845	313.207	65	48
313.21	313.577	63	45
313.392	313.578	69	52
313.581	313.76	72	55
313.582	313.938	62	53
313.76	313.939	70	53
313.941	314.123	74	57
313.942	314.302	57	47
313.942	314.67	65	47
314.124	314.305	72	54
314.305	314.483	75	58
314.306	314.67	58	51
314.487	314.671	74	56
314.673	315.034	51	48
314.673	314.848	77	60
314.674	315.037	60	48
314.851	315.037	75	57
315.041	316.139	53	52
315.041	315.768	58	52
315.041	315.586	74	60
315.586	315.678	75	57
315.681	315.769	74	54
315.769	315.954	72	52
315.771	316.14	57	47
315.954	316.14	74	58
316.14	316.329	75	64
316.329	316.521	76	69
316.522	316.616	46	62
316.522	317.066	77	76
316.7	316.888	58	50
316.888	317.067	62	53
317.067	317.126	75	68
317.071	317.246	58	50
317.127	317.189	74	68
317.19	317.249	72	68
317.25	317.34	43	62
317.25	317.428	70	72
317.428	317.518	70	65
317.429	317.606	55	52
317.606	317.696	70	65
317.61	317.791	58	54
317.795	317.976	70	65
317.796	317.981	55	52
317.981	318.162	75	78
317.982	318.071	36	64
318.163	318.212	77	60
318.166	318.344	48	51
318.212	318.25	75	60
318.25	318.296	74	60
318.299	318.345	75	60
318.348	318.523	51	54
318.348	318.712	79	71
318.524	318.713	48	52
318.713	319.069	69	75
318.714	318.796	41	64
318.887	319.07	53	53
319.072	319.255	57	54
319.255	319.436	77	77
319.258	319.437	53	54
319.437	319.79	74	84
319.44	319.797	58	63
319.559	319.79	77	74
319.679	319.798	82	78
319.798	320.143	79	89
319.8	320.161	51	54
319.923	320.143	75	76
320.039	320.161	72	76
320.162	320.508	77	88
320.165	320.525	53	57
320.284	320.508	74	76
320.407	320.529	70	76
320.53	320.903	41	54
320.53	320.903	75	85
320.652	320.903	72	76
320.771	320.903	69	76
320.901	321.263	50	69
320.901	321.246	70	90
320.903	321.267	58	69
321.023	321.145	82	86
321.145	321.267	82	82
321.267	321.394	82	87
321.394	321.512	82	79
321.512	321.634	82	80
321.635	321.757	82	86
321.758	321.88	81	77
321.88	321.995	79	77
321.996	322.118	77	81
321.998	322.359	50	63
321.999	322.363	58	63
322.118	322.24	75	78
322.24	322.363	74	77
322.366	322.738	72	88
322.367	322.738	51	68
322.367	322.738	58	68
322.489	322.605	79	77
322.605	322.737	79	77
322.737	322.856	79	83
322.856	322.979	79	76
322.979	323.098	79	76
323.101	323.22	79	80
323.22	323.342	77	76
323.343	323.462	75	75
323.465	323.822	51	64
323.465	323.58	74	78
323.469	323.822	57	64
323.581	323.703	75	73
323.704	323.826	72	73
323.826	324.19	76	81
323.829	324.19	50	69
323.829	324.914	58	69
323.913	324.092	77	83
324.005	324.19	79	85
324.092	324.19	77	83
324.186	324.543	75	80
324.187	324.55	55	59
324.278	324.543	74	79
324.364	324.543	72	77
324.459	324.551	70	76
324.553	324.729	74	74
324.554	324.915	51	66
324.638	324.795	72	68
324.729	324.852	74	66
324.795	324.907	72	63
324.852	324.917	74	66
324.918	325.037	72	66
324.921	325.285	57	59
324.922	325.288	53	59
324.98	325.253	74	66
325.037	325.195	72	66
325.103	325.253	70	69
325.195	325.289	72	69
325.292	325.38	70	74
325.293	325.663	50	64
325.293	325.667	58	64
325.474	325.565	82	74
325.568	325.668	81	72
325.668	325.751	82	74
325.751	325.845	81	70
325.846	325.936	82	74
325.937	326.031	81	71
326.031	326.122	82	74
326.125	326.209	81	74
326.212	326.303	79	73
326.303	326.395	77	72
326.395	326.71	75	71
326.398	326.762	50	54
326.398	326.762	58	54
326.49	326.71	74	70
326.577	326.71	72	70
326.671	326.762	70	69
326.766	327.134	51	58
326.766	327.133	58	58
326.766	326.853	67	77
326.947	327.039	79	75
327.039	327.134	78	72
327.136	327.22	79	75
327.221	327.312	78	71
327.315	327.406	79	75
327.406	327.497	78	72
327.5	327.591	79	74
327.595	327.686	77	74
327.686	327.777	75	73
327.778	327.871	74	72
327.872	328.235	51	55
327.872	328.235	72	71
327.873	328.235	60	55
327.959	328.235	70	70
328.05	328.235	69	70
328.145	328.235	67	69
328.233	328.586	65	77
328.235	328.586	53	64
328.417	328.586	67	70
328.418	328.603	62	57
328.509	328.604	69	72
328.604	328.964	70	73
328.607	328.964	58	64
328.694	328.964	72	74
328.785	328.964	74	76
328.786	328.967	62	58
328.877	328.971	75	77
328.971	329.321	77	79
328.972	329.321	53	64
329.055	329.321	79	80
329.149	329.321	81	82
329.152	329.328	62	58
329.237	329.328	82	83
329.331	329.685	58	64
329.331	329.685	84	84
329.416	329.685	86	86
329.509	329.685	87	87
329.51	329.685	62	58
329.594	329.685	89	89
329.685	330.417	53	64
329.685	330.778	82	71
329.745	329.867	84	66
329.804	329.926	86	67
329.867	329.989	84	72
329.87	330.238	63	64
329.926	330.049	86	69
329.989	330.112	84	73
330.049	330.171	86	69
330.051	330.777	60	67
330.112	330.235	84	74
330.171	330.291	86	71
330.235	330.351	84	75
330.238	330.597	63	64
330.291	330.414	86	71
330.351	330.473	84	75
330.414	330.529	86	71
330.417	330.778	53	70
330.473	330.596	84	77
330.529	330.652	86	73
330.596	330.715	84	79
330.597	330.778	63	64
330.652	330.775	86	74
330.715	330.778	84	79
330.775	331.143	86	82
330.777	331.143	60	71
330.869	331.048	84	79
330.961	331.142	82	87
330.963	331.143	63	66
331.048	331.143	84	85
331.142	331.474	62	66
331.142	331.474	82	93
331.328	331.513	58	49
331.514	331.877	62	41
331.692	332.056	58	34
331.877	332.244	62	40
332.056	332.426	58	35
332.244	332.619	62	40
332.423	332.619	70	51
332.426	332.619	58	35
332.615	333.207	80	54
332.619	332.98	65	43
332.802	333.169	58	39
332.98	333.207	65	44
333.168	333.346	77	52
333.169	333.347	58	38
333.347	333.532	74	50
333.35	333.532	68	44
333.533	333.717	58	38
333.718	333.896	68	44
333.718	333.896	74	51
333.9	334.078	58	38
334.079	334.264	67	44
334.079	334.261	75	56
334.264	334.449	58	42
334.45	334.634	77	57
334.453	334.635	62	47
334.635	334.82	58	44
334.82	335.005	79	61
334.821	335.006	63	50
335.006	335.191	58	46
335.191	335.377	63	44
335.378	335.558	79	53
335.38	335.559	58	44
335.559	336.283	77	57
335.562	335.927	60	43
335.745	336.113	58	38
335.745	336.283	75	57
335.926	336.283	74	56
335.927	336.283	60	41
336.112	336.293	72	56
336.113	336.294	58	40
336.297	337.04	70	55
336.298	336.664	60	48
336.477	336.847	69	55
336.479	336.851	58	43
336.662	337.044	75	62
336.664	337.044	60	43
336.847	337.044	69	58
336.851	337.043	58	39
337.04	337.127	70	58
337.043	337.396	58	45
337.043	337.396	62	45
337.217	337.308	72	60
337.4	337.491	74	61
337.581	337.669	75	63
337.764	337.858	76	65
337.949	338.04	77	67
338.135	338.225	78	69
338.32	338.415	79	71
338.512	339.149	80	73
338.513	338.877	65	42
338.692	339.062	58	38
338.877	339.149	65	42
339.06	339.149	79	58
339.062	339.237	58	39
339.115	339.177	77	58
339.182	339.238	75	58
339.238	339.332	74	63
339.24	339.423	68	42
339.423	339.51	74	60
339.427	339.605	58	39
339.605	339.692	74	64
339.606	339.784	68	42
339.784	339.874	74	60
339.785	339.962	58	38
339.965	340.336	75	66
339.966	340.329	67	42
340.151	340.336	58	42
340.337	340.658	62	46
340.337	340.456	79	59
340.395	340.518	77	59
340.456	340.658	79	60
340.518	340.655	77	60
340.519	340.7	58	42
340.609	340.658	75	59
340.655	340.704	77	63
340.704	341.074	79	66
340.705	340.886	63	45
340.887	341.075	58	34
341.075	341.25	63	39
341.253	341.438	79	55
341.254	341.439	58	35
341.439	342.202	77	59
341.442	341.807	60	45
341.625	342.202	75	58
341.628	341.993	58	42
341.806	342.202	74	57
341.807	342.178	60	45
341.992	342.202	72	57
341.993	342.202	58	42
342.178	342.548	60	46
342.178	342.814	70	56
342.363	342.741	69	56
342.364	342.742	58	42
342.548	342.814	60	46
342.548	342.814	75	60
342.741	342.93	69	57
342.742	342.93	58	44
342.931	343.312	70	61
342.933	343.315	58	49
342.933	343.315	62	49
343.504	343.69	74	53
343.693	344.263	60	39
343.693	344.263	77	56
343.694	344.431	53	39
343.871	344.263	75	54
344.057	344.263	72	54
344.06	344.435	63	39
344.249	344.435	69	54
344.438	344.809	70	57
344.439	344.813	58	46
344.439	344.81	62	46
344.999	345.096	74	50
345.097	345.194	70	48
345.195	345.884	60	37
345.195	345.884	77	54
345.198	345.971	53	37
345.387	345.884	75	51
345.58	345.884	72	51
345.581	345.972	63	37
345.775	345.972	69	49
345.975	346.391	58	43
345.975	346.392	62	43
345.975	346.388	70	55
346.581	346.776	77	91
346.777	346.975	75	81
346.78	346.976	72	81
346.781	346.976	77	96
346.783	346.979	81	96
346.784	346.98	41	71
346.784	346.98	53	84
347.172	347.375	72	81
347.175	347.378	75	81
347.175	347.378	77	96
347.175	347.376	81	96
347.179	347.382	41	71
347.179	347.382	53	84
347.577	347.784	70	84
347.581	347.784	82	99
347.582	347.785	74	84
347.582	347.785	77	99
347.585	347.788	34	75
347.585	347.788	46	89
