# onset,offset,note,velocity
0.500004	0.566376	61.000000	64.000000
0.566376	0.632747	64.000000	64.000000
0.632747	1.561945	69.000000	76.000000
0.632747	1.561945	45.000000	59.000000
0.632747	1.561945	57.000000	70.000000
1.561945	2.038131	64.000000	70.000000
1.561945	2.038131	40.000000	53.000000
1.561945	2.038131	52.000000	63.000000
2.038131	2.286062	73.000000	72.000000
2.038131	2.518609	49.000000	48.000000
2.038131	2.518609	61.000000	57.000000
2.286062	2.402335	74.000000	74.000000
2.402335	2.518609	71.000000	70.000000
2.518609	2.758614	69.000000	70.000000
2.518609	2.758614	45.000000	45.000000
2.518609	2.758614	57.000000	53.000000
3.478613	3.718617	73.000000	50.000000
3.718617	3.838619	74.000000	52.000000
3.838619	3.958621	71.000000	46.000000
3.958621	4.450726	69.000000	49.000000
4.450726	4.686949	85.000000	57.000000
4.450726	4.686949	57.000000	40.000000
4.450726	4.686949	66.000000	40.000000
4.932840	5.405285	75.000000	50.000000
4.932840	5.405285	59.000000	40.000000
4.932840	5.405285	69.000000	40.000000
5.405285	6.113952	76.000000	52.000000
5.405285	5.877730	64.000000	40.000000
5.405285	5.877730	68.000000	40.000000
6.113952	6.330487	77.000000	51.000000
6.350174	6.582735	80.000000	57.000000
6.582735	6.818958	78.000000	56.000000
6.818958	7.049722	76.000000	54.000000
7.049722	7.284093	74.000000	53.000000
7.284093	7.514857	73.000000	52.000000
7.514857	7.760762	71.000000	51.000000
7.760762	7.996985	69.000000	51.000000
7.760762	7.996985	52.000000	39.000000
7.996985	8.233207	68.000000	46.000000
7.996985	8.233207	62.000000	33.000000
8.233207	8.460484	76.000000	53.000000
8.233207	8.460484	59.000000	33.000000
8.460484	8.691248	74.000000	51.000000
8.460484	8.691248	62.000000	28.000000
8.691248	8.927470	59.000000	31.000000
8.927470	9.163693	62.000000	29.000000
9.163693	9.399915	71.000000	57.000000
9.163693	9.399915	52.000000	40.000000
9.399915	9.636137	69.000000	53.000000
9.399915	9.636137	61.000000	34.000000
9.636137	9.863401	78.000000	57.000000
9.636137	9.863401	57.000000	34.000000
9.863401	10.095962	76.000000	56.000000
9.863401	10.095962	61.000000	30.000000
10.095962	10.328510	57.000000	32.000000
10.328510	10.564732	61.000000	28.000000
10.564732	10.799104	76.000000	63.000000
10.564732	10.799104	50.000000	42.000000
10.799104	11.026381	74.000000	59.000000
10.799104	11.026381	59.000000	36.000000
11.026381	11.255388	79.000000	62.000000
11.026381	11.255388	54.000000	36.000000
11.255388	11.489759	78.000000	59.000000
11.255388	11.489759	59.000000	34.000000
11.489759	11.724131	54.000000	36.000000
11.724131	11.958503	59.000000	34.000000
11.958503	12.427259	66.000000	51.000000
11.958503	12.427259	50.000000	39.000000
12.427259	12.654536	76.000000	53.000000
12.654536	12.885300	74.000000	51.000000
12.885300	13.114307	73.000000	51.000000
13.114307	13.352407	71.000000	49.000000
13.352407	13.586792	69.000000	51.000000
13.352407	13.821164	52.000000	33.000000
13.352407	13.821164	62.000000	39.000000
13.586792	13.821164	68.000000	48.000000
13.821164	14.297350	69.000000	51.000000
13.821164	14.297350	57.000000	33.000000
13.821164	14.297350	61.000000	39.000000
14.594968	14.654486	71.000000	68.000000
14.654486	14.714005	76.000000	71.000000
14.714005	14.773523	80.000000	74.000000
14.773523	16.179766	83.000000	77.000000
14.773523	15.007895	52.000000	60.000000
15.007895	15.242266	56.000000	52.000000
15.242266	15.476638	59.000000	56.000000
15.476638	15.711009	56.000000	52.000000
15.711009	15.945394	54.000000	56.000000
15.945394	16.179766	52.000000	51.000000
16.179766	16.295155	83.000000	73.000000
16.179766	16.410543	51.000000	60.000000
16.295155	16.410543	81.000000	72.000000
16.410543	16.525932	80.000000	71.000000
16.410543	16.641321	52.000000	50.000000
16.525932	16.641321	78.000000	70.000000
16.641321	16.756709	78.000000	72.000000
16.641321	16.872098	54.000000	50.000000
16.756709	16.872098	76.000000	71.000000
16.872098	16.987487	75.000000	69.000000
16.872098	17.102876	47.000000	51.000000
16.987487	17.102876	73.000000	68.000000
17.102876	17.220061	71.000000	70.000000
17.102876	17.337247	49.000000	54.000000
17.220061	17.337247	69.000000	67.000000
17.337247	17.456297	68.000000	67.000000
17.337247	17.575347	51.000000	51.000000
17.456297	17.575347	69.000000	67.000000
17.575347	17.691621	68.000000	67.000000
17.575347	17.807895	52.000000	60.000000
17.691621	17.807895	71.000000	69.000000
17.807895	17.924168	76.000000	70.000000
17.807895	18.040442	56.000000	52.000000
17.924168	18.040442	80.000000	72.000000
18.040442	18.956525	83.000000	73.000000
18.040442	18.267719	59.000000	52.000000
18.267719	18.494997	56.000000	52.000000
18.494997	18.725761	54.000000	55.000000
18.725761	18.956525	52.000000	52.000000
18.956525	19.071913	83.000000	73.000000
18.956525	19.187302	51.000000	60.000000
19.071913	19.187302	81.000000	72.000000
19.187302	19.302691	80.000000	71.000000
19.187302	19.418079	52.000000	50.000000
19.302691	19.418079	78.000000	70.000000
19.418079	19.533468	78.000000	72.000000
19.418079	19.648857	54.000000	50.000000
19.533468	19.648857	76.000000	71.000000
19.648857	19.764246	75.000000	69.000000
19.648857	19.879634	47.000000	51.000000
19.764246	19.879634	73.000000	68.000000
19.879634	19.996820	71.000000	70.000000
19.879634	20.114006	49.000000	54.000000
19.996820	20.114006	69.000000	67.000000
20.114006	20.233056	68.000000	67.000000
20.114006	20.352106	51.000000	51.000000
20.233056	20.352106	69.000000	67.000000
20.352106	20.468379	68.000000	67.000000
20.352106	20.813660	52.000000	60.000000
20.468379	20.584653	71.000000	64.000000
20.584653	20.699157	69.000000	70.000000
20.699157	20.813660	68.000000	64.000000
20.806982	20.920667	69.000000	68.000000
20.927292	21.040924	71.000000	68.000000
21.040924	21.154556	73.000000	69.000000
21.154556	21.268188	75.000000	70.000000
21.268188	21.383577	76.000000	70.000000
21.383577	21.498965	78.000000	71.000000
21.498965	21.614354	80.000000	72.000000
21.614354	21.729099	81.000000	72.000000
21.729099	21.842731	83.000000	73.000000
21.842731	21.955545	85.000000	74.000000
21.955545	22.067688	87.000000	74.000000
22.067688	22.179161	88.000000	75.000000
22.179161	22.290271	87.000000	72.000000
22.290271	22.401382	85.000000	70.000000
22.401382	22.512492	83.000000	68.000000
22.512492	22.623013	81.000000	65.000000
22.623013	22.733413	80.000000	63.000000
22.733413	22.845636	78.000000	61.000000
22.845636	22.959885	76.000000	59.000000
22.959885	23.075274	75.000000	57.000000
23.075274	23.307821	73.000000	50.000000
23.075274	23.540369	57.000000	38.000000
23.075274	23.540369	66.000000	45.000000
23.424095	23.540369	85.000000	50.000000
23.540369	23.970327	76.000000	54.000000
23.540369	24.583695	59.000000	33.000000
23.540369	24.043150	68.000000	39.000000
23.970327	24.043150	80.000000	50.000000
24.043150	24.583695	75.000000	53.000000
24.043150	24.583695	78.000000	53.000000
24.043150	24.583695	69.000000	39.000000
24.583695	25.124228	76.000000	51.000000
24.583695	25.124228	64.000000	35.000000
24.583695	25.124228	68.000000	42.000000
25.093825	25.634358	52.000000	35.000000
26.205306	26.271678	61.000000	64.000000
26.271678	26.338049	64.000000	64.000000
26.338049	27.267247	69.000000	76.000000
26.338049	27.267247	45.000000	59.000000
26.338049	27.267247	57.000000	70.000000
27.267247	27.743434	64.000000	70.000000
27.267247	27.743434	40.000000	53.000000
27.267247	27.743434	52.000000	63.000000
27.743434	27.991364	73.000000	72.000000
27.743434	28.223911	49.000000	48.000000
27.743434	28.223911	61.000000	57.000000
27.991364	28.107638	74.000000	74.000000
28.107638	28.223911	71.000000	70.000000
28.223911	28.463916	69.000000	70.000000
28.223911	28.463916	45.000000	45.000000
28.223911	28.463916	57.000000	53.000000
29.183915	29.423919	73.000000	50.000000
29.423919	29.543921	74.000000	52.000000
29.543921	29.663923	71.000000	46.000000
29.663923	30.156029	69.000000	49.000000
30.156029	30.392251	85.000000	57.000000
30.156029	30.392251	57.000000	40.000000
30.156029	30.392251	66.000000	40.000000
30.638143	31.110587	75.000000	50.000000
30.638143	31.110587	59.000000	40.000000
30.638143	31.110587	69.000000	40.000000
31.110587	31.819254	76.000000	52.000000
31.110587	31.583032	64.000000	40.000000
31.110587	31.583032	68.000000	40.000000
31.819254	32.035789	77.000000	51.000000
32.055476	32.286240	80.000000	57.000000
32.286240	32.522463	78.000000	56.000000
32.522463	32.755024	76.000000	54.000000
32.755024	32.991246	74.000000	53.000000
32.991246	33.225618	73.000000	52.000000
33.225618	33.471523	71.000000	51.000000
33.471523	33.707745	69.000000	51.000000
33.471523	33.707745	52.000000	39.000000
33.707745	33.943967	68.000000	46.000000
33.707745	33.943967	62.000000	33.000000
33.943967	34.171244	76.000000	53.000000
33.943967	34.171244	59.000000	33.000000
34.171244	34.402008	74.000000	51.000000
34.171244	34.402008	62.000000	28.000000
34.402008	34.638231	59.000000	31.000000
34.638231	34.874453	62.000000	29.000000
34.874453	35.110675	71.000000	57.000000
34.874453	35.110675	52.000000	40.000000
35.110675	35.346898	69.000000	53.000000
35.110675	35.346898	61.000000	34.000000
35.346898	35.574161	78.000000	57.000000
35.346898	35.574161	57.000000	34.000000
35.574161	35.806722	76.000000	56.000000
35.574161	35.806722	61.000000	30.000000
35.806722	36.039270	57.000000	32.000000
36.039270	36.275492	61.000000	28.000000
36.275492	36.509864	76.000000	63.000000
36.275492	36.509864	50.000000	42.000000
36.509864	36.738871	74.000000	59.000000
36.509864	36.738871	59.000000	36.000000
36.738871	36.967878	79.000000	62.000000
36.738871	36.967878	54.000000	36.000000
36.967878	37.202250	78.000000	59.000000
36.967878	37.202250	59.000000	34.000000
37.202250	37.436621	54.000000	36.000000
37.436621	37.670993	59.000000	34.000000
37.670993	38.139750	66.000000	51.000000
37.670993	38.139750	50.000000	39.000000
38.139750	38.367027	76.000000	53.000000
38.367027	38.597791	74.000000	51.000000
38.597791	38.825068	73.000000	51.000000
38.825068	39.063168	71.000000	49.000000
39.063168	39.297553	69.000000	51.000000
39.063168	39.531924	52.000000	33.000000
39.063168	39.531924	62.000000	39.000000
39.297553	39.531924	68.000000	48.000000
39.531924	40.008111	69.000000	51.000000
39.531924	40.008111	57.000000	33.000000
39.531924	40.008111	61.000000	39.000000
40.305729	40.365247	71.000000	68.000000
40.365247	40.424765	76.000000	71.000000
40.424765	40.484283	80.000000	74.000000
40.484283	41.890526	83.000000	77.000000
40.484283	40.718655	52.000000	60.000000
40.718655	40.953027	56.000000	52.000000
40.953027	41.187398	59.000000	56.000000
41.187398	41.421770	56.000000	52.000000
41.421770	41.656155	54.000000	56.000000
41.656155	41.890526	52.000000	51.000000
41.890526	42.005915	83.000000	73.000000
41.890526	42.121304	51.000000	60.000000
42.005915	42.121304	81.000000	72.000000
42.121304	42.236692	80.000000	71.000000
42.121304	42.352081	52.000000	50.000000
42.236692	42.352081	78.000000	70.000000
42.352081	42.467470	78.000000	72.000000
42.352081	42.582859	54.000000	50.000000
42.467470	42.582859	76.000000	71.000000
42.582859	42.698247	75.000000	69.000000
42.582859	42.813636	47.000000	51.000000
42.698247	42.813636	73.000000	68.000000
42.813636	42.930822	71.000000	70.000000
42.813636	43.048007	49.000000	54.000000
42.930822	43.048007	69.000000	67.000000
43.048007	43.167057	68.000000	67.000000
43.048007	43.286107	51.000000	51.000000
43.167057	43.286107	69.000000	67.000000
43.286107	43.402381	68.000000	67.000000
43.286107	43.518655	52.000000	60.000000
43.402381	43.518655	71.000000	69.000000
43.518655	43.634929	76.000000	70.000000
43.518655	43.751203	56.000000	52.000000
43.634929	43.751203	80.000000	72.000000
43.751203	44.667285	83.000000	73.000000
43.751203	43.978480	59.000000	52.000000
43.978480	44.205757	56.000000	52.000000
44.205757	44.436521	54.000000	55.000000
44.436521	44.667285	52.000000	52.000000
44.667285	44.782674	83.000000	73.000000
44.667285	44.898062	51.000000	60.000000
44.782674	44.898062	81.000000	72.000000
44.898062	45.013451	80.000000	71.000000
44.898062	45.128840	52.000000	50.000000
45.013451	45.128840	78.000000	70.000000
45.128840	45.244228	78.000000	72.000000
45.128840	45.359617	54.000000	50.000000
45.244228	45.359617	76.000000	71.000000
45.359617	45.475006	75.000000	69.000000
45.359617	45.590395	47.000000	51.000000
45.475006	45.590395	73.000000	68.000000
45.590395	45.707580	71.000000	70.000000
45.590395	45.824766	49.000000	54.000000
45.707580	45.824766	69.000000	67.000000
45.824766	45.943816	68.000000	67.000000
45.824766	46.062866	51.000000	51.000000
45.943816	46.062866	69.000000	67.000000
46.062866	46.179140	68.000000	67.000000
46.062866	46.527975	52.000000	60.000000
46.179140	46.295414	71.000000	64.000000
46.295414	46.411688	69.000000	70.000000
46.411688	46.527975	68.000000	64.000000
46.521189	46.634982	69.000000	68.000000
46.641607	46.755239	71.000000	68.000000
46.755239	46.868870	73.000000	69.000000
46.868870	46.982502	75.000000	70.000000
46.982502	47.097891	76.000000	70.000000
47.097891	47.213280	78.000000	71.000000
47.213280	47.328668	80.000000	72.000000
47.328668	47.443413	81.000000	72.000000
47.443413	47.557045	83.000000	73.000000
47.557045	47.669859	85.000000	74.000000
47.669859	47.782002	87.000000	74.000000
47.782002	47.893475	88.000000	75.000000
47.893475	48.004585	87.000000	72.000000
48.004585	48.115696	85.000000	70.000000
48.115696	48.226807	83.000000	68.000000
48.226807	48.337327	81.000000	65.000000
48.337327	48.447727	80.000000	63.000000
48.447727	48.559951	78.000000	61.000000
48.559951	48.674199	76.000000	59.000000
48.674199	48.789588	75.000000	57.000000
48.789588	49.022136	73.000000	50.000000
48.789588	49.254683	57.000000	38.000000
48.789588	49.254683	66.000000	45.000000
49.138410	49.254683	85.000000	50.000000
49.254683	49.684642	76.000000	54.000000
49.254683	50.298010	59.000000	33.000000
49.254683	49.757464	68.000000	39.000000
49.684642	49.757464	80.000000	50.000000
49.757464	50.298010	75.000000	53.000000
49.757464	50.298010	78.000000	53.000000
49.757464	50.298010	69.000000	39.000000
50.298010	50.838542	76.000000	51.000000
50.298010	50.838542	64.000000	35.000000
50.298010	50.838542	68.000000	42.000000
50.808139	51.348672	52.000000	35.000000
51.852056	51.979152	64.000000	61.000000
51.919634	52.336289	76.000000	74.000000
52.336289	52.455339	66.000000	61.000000
52.395820	52.812475	78.000000	70.000000
52.812475	52.931525	67.000000	61.000000
52.872007	53.352029	79.000000	70.000000
53.352029	53.828228	71.000000	56.000000
53.352029	53.590128	54.000000	47.000000
53.590128	53.828228	61.000000	39.000000
53.828228	54.293350	70.000000	52.000000
53.828228	54.060789	66.000000	39.000000
54.060789	54.293350	64.000000	39.000000
54.293350	54.527722	62.000000	39.000000
54.527722	54.769657	61.000000	39.000000
54.648690	54.769657	70.000000	51.000000
54.769657	55.242102	73.000000	57.000000
54.769657	55.005880	54.000000	47.000000
55.005880	55.242102	62.000000	42.000000
55.242102	55.703630	71.000000	56.000000
55.242102	55.472866	66.000000	42.000000
55.472866	55.703630	62.000000	42.000000
55.703630	55.939852	61.000000	42.000000
55.939852	56.176075	59.000000	42.000000
56.057964	56.176075	71.000000	63.000000
56.176075	56.641210	74.000000	66.000000
56.176075	56.406839	54.000000	56.000000
56.406839	56.641210	58.000000	47.000000
56.641210	57.109967	73.000000	60.000000
56.641210	56.875595	64.000000	47.000000
56.875595	57.109967	61.000000	47.000000
57.109967	57.344338	59.000000	47.000000
57.344338	57.578710	58.000000	47.000000
57.461524	57.578710	73.000000	68.000000
57.578710	57.809487	76.000000	72.000000
57.578710	58.047587	59.000000	57.000000
57.809487	58.047587	74.000000	68.000000
58.047587	58.274864	77.000000	72.000000
58.274864	58.511087	76.000000	67.000000
58.511087	58.743648	79.000000	70.000000
58.743648	58.979870	77.000000	66.000000
58.979870	59.452315	69.000000	56.000000
58.979870	59.216092	52.000000	47.000000
59.216092	59.452315	59.000000	39.000000
59.452315	59.917437	68.000000	52.000000
59.452315	59.684876	64.000000	39.000000
59.684876	59.917437	62.000000	39.000000
59.917437	60.151808	60.000000	39.000000
60.151808	60.393744	59.000000	39.000000
60.272776	60.393744	68.000000	51.000000
60.393744	60.866188	71.000000	57.000000
60.393744	60.629966	52.000000	47.000000
60.629966	60.866188	60.000000	42.000000
60.866188	61.327716	69.000000	56.000000
60.866188	61.096952	64.000000	42.000000
61.096952	61.327716	60.000000	42.000000
61.327716	61.563939	59.000000	42.000000
61.563939	61.800161	57.000000	42.000000
61.682050	61.800161	69.000000	63.000000
61.800161	62.268944	72.000000	66.000000
61.800161	62.032722	52.000000	56.000000
62.032722	62.268944	56.000000	47.000000
62.268944	62.741389	71.000000	60.000000
62.268944	62.505167	62.000000	47.000000
62.505167	62.741389	59.000000	47.000000
62.741389	62.977611	57.000000	47.000000
62.977611	63.213834	56.000000	47.000000
63.095722	63.213834	71.000000	68.000000
63.213834	63.444611	74.000000	72.000000
63.213834	64.149711	57.000000	57.000000
63.444611	63.682711	72.000000	68.000000
63.682711	63.913488	71.000000	72.000000
63.913488	64.149711	69.000000	67.000000
64.149711	64.324135	81.000000	73.000000
64.149711	64.618481	43.000000	69.000000
64.149711	64.618481	55.000000	69.000000
64.382272	64.559432	81.000000	70.000000
64.618481	64.854703	83.000000	78.000000
64.618481	65.556047	41.000000	72.000000
64.618481	65.556047	53.000000	72.000000
64.854703	65.090925	81.000000	78.000000
65.090925	65.323486	79.000000	77.000000
65.323486	65.556047	77.000000	75.000000
65.556047	65.792270	76.000000	79.000000
65.792270	66.042265	75.000000	75.000000
66.042265	66.979765	84.000000	81.000000
66.042265	66.276650	57.000000	61.000000
66.042265	67.467578	54.000000	61.000000
66.276650	66.511022	56.000000	42.000000
66.511022	66.745393	57.000000	46.000000
66.745393	66.979765	60.000000	41.000000
66.979765	67.467578	75.000000	55.000000
66.979765	67.223672	59.000000	46.000000
67.223672	67.467578	57.000000	41.000000
67.467578	68.170707	76.000000	55.000000
67.467578	67.936335	52.000000	57.000000
67.467578	67.936335	56.000000	57.000000
68.170707	68.291674	78.000000	57.000000
68.291674	68.412642	76.000000	46.000000
68.412642	68.533610	76.000000	55.000000
68.533610	68.654577	74.000000	53.000000
68.654577	68.775545	73.000000	52.000000
68.775545	68.905981	71.000000	51.000000
68.905981	68.972352	61.000000	64.000000
68.972352	69.038724	64.000000	64.000000
69.038724	69.967922	69.000000	76.000000
69.038724	69.967922	45.000000	59.000000
69.038724	69.967922	57.000000	70.000000
69.967922	70.444108	64.000000	70.000000
69.967922	70.444108	40.000000	53.000000
69.967922	70.444108	52.000000	63.000000
70.444108	70.692038	73.000000	72.000000
70.444108	70.924586	49.000000	48.000000
70.444108	70.924586	61.000000	57.000000
70.692038	70.808312	74.000000	74.000000
70.808312	70.924586	71.000000	70.000000
70.924586	71.164590	69.000000	70.000000
70.924586	71.164590	45.000000	45.000000
70.924586	71.164590	57.000000	53.000000
71.884589	72.124594	73.000000	50.000000
72.124594	72.244596	74.000000	52.000000
72.244596	72.364598	71.000000	46.000000
72.364598	72.856703	69.000000	49.000000
72.856703	73.092925	85.000000	57.000000
72.856703	73.092925	57.000000	40.000000
72.856703	73.092925	66.000000	40.000000
73.338817	73.811262	75.000000	50.000000
73.338817	73.811262	59.000000	40.000000
73.338817	73.811262	69.000000	40.000000
73.811262	74.519929	76.000000	52.000000
73.811262	74.283706	64.000000	40.000000
73.811262	74.283706	68.000000	40.000000
74.519929	74.736463	77.000000	51.000000
74.756151	74.985158	80.000000	57.000000
74.985158	75.221380	78.000000	56.000000
75.221380	75.452144	76.000000	54.000000
75.452144	75.688367	74.000000	53.000000
75.688367	75.920928	73.000000	52.000000
75.920928	76.166833	71.000000	51.000000
76.166833	76.403055	69.000000	51.000000
76.166833	76.403055	52.000000	39.000000
76.403055	76.633819	68.000000	46.000000
76.403055	76.633819	62.000000	33.000000
76.633819	76.861096	76.000000	53.000000
76.633819	76.861096	59.000000	33.000000
76.861096	77.091860	74.000000	51.000000
76.861096	77.091860	62.000000	28.000000
77.091860	77.328083	59.000000	31.000000
77.328083	77.564305	62.000000	29.000000
77.564305	77.800527	71.000000	57.000000
77.564305	77.800527	52.000000	40.000000
77.800527	78.033088	69.000000	53.000000
77.800527	78.033088	61.000000	34.000000
78.033088	78.260352	78.000000	57.000000
78.033088	78.260352	57.000000	34.000000
78.260352	78.492913	76.000000	56.000000
78.260352	78.492913	61.000000	30.000000
78.492913	78.725461	57.000000	32.000000
78.725461	78.961683	61.000000	28.000000
78.961683	79.196055	71.000000	63.000000
78.961683	79.196055	52.000000	42.000000
79.196055	79.439961	69.000000	59.000000
79.196055	79.439961	61.000000	36.000000
79.439961	79.668969	81.000000	62.000000
79.439961	79.668969	57.000000	36.000000
79.668969	79.903340	79.000000	59.000000
79.668969	79.903340	61.000000	34.000000
79.903340	80.137712	57.000000	36.000000
80.137712	80.372083	61.000000	34.000000
80.372083	80.604644	79.000000	55.000000
80.372083	80.840867	50.000000	28.000000
80.372083	80.840867	57.000000	28.000000
80.372083	80.840867	62.000000	34.000000
80.604644	80.840867	78.000000	52.000000
80.840867	81.077089	76.000000	51.000000
81.077089	81.313311	74.000000	50.000000
81.313311	81.549534	73.000000	49.000000
81.549534	81.795439	71.000000	47.000000
81.795439	81.918391	76.000000	49.000000
81.795439	82.150939	49.000000	40.000000
81.918391	81.976528	78.000000	45.000000
81.976528	82.034665	76.000000	45.000000
82.034665	82.092802	74.000000	45.000000
82.092802	82.150939	76.000000	45.000000
82.150939	82.288550	78.000000	52.000000
82.150939	82.288550	50.000000	33.000000
82.288550	82.776350	69.000000	51.000000
82.288550	83.259792	52.000000	38.000000
82.288550	82.776350	61.000000	38.000000
82.776350	83.259792	68.000000	48.000000
82.776350	83.259792	59.000000	32.000000
83.140755	83.200273	69.000000	66.000000
83.200273	83.259792	73.000000	67.000000
83.259792	83.723170	76.000000	67.000000
83.259792	83.488799	57.000000	54.000000
83.488799	83.723170	61.000000	46.000000
83.723170	84.657036	76.000000	69.000000
83.723170	83.957542	64.000000	50.000000
83.957542	84.191914	61.000000	46.000000
84.191914	84.424475	59.000000	50.000000
84.424475	84.657036	57.000000	45.000000
84.657036	84.772424	76.000000	65.000000
84.657036	84.887813	56.000000	54.000000
84.772424	84.887813	74.000000	64.000000
84.887813	85.003202	73.000000	63.000000
84.887813	85.118591	57.000000	45.000000
85.003202	85.118591	71.000000	63.000000
85.118591	85.233979	71.000000	64.000000
85.118591	85.349368	59.000000	45.000000
85.233979	85.349368	69.000000	63.000000
85.349368	85.464757	68.000000	62.000000
85.349368	85.580145	52.000000	45.000000
85.464757	85.580145	66.000000	61.000000
85.580145	85.697331	64.000000	63.000000
85.580145	85.814517	54.000000	48.000000
85.697331	85.814517	62.000000	60.000000
85.814517	85.933567	61.000000	60.000000
85.814517	86.052617	56.000000	45.000000
85.933567	86.052617	62.000000	60.000000
86.052617	86.168891	61.000000	60.000000
86.052617	86.285164	57.000000	54.000000
86.168891	86.285164	64.000000	62.000000
86.285164	86.401438	69.000000	63.000000
86.285164	86.517712	61.000000	46.000000
86.401438	86.517712	73.000000	64.000000
86.517712	87.203030	76.000000	65.000000
86.517712	86.744989	64.000000	46.000000
86.744989	86.972266	61.000000	46.000000
86.972266	87.203030	59.000000	49.000000
87.203030	87.433794	88.000000	65.000000
87.203030	87.433794	57.000000	46.000000
87.433794	87.549183	88.000000	70.000000
87.433794	87.664572	56.000000	52.000000
87.549183	87.664572	86.000000	70.000000
87.664572	87.779961	85.000000	69.000000
87.664572	87.895349	57.000000	44.000000
87.779961	87.895349	83.000000	69.000000
87.895349	88.010738	83.000000	68.000000
87.895349	88.126127	59.000000	51.000000
88.010738	88.126127	81.000000	67.000000
88.126127	88.241515	80.000000	67.000000
88.126127	88.356904	52.000000	44.000000
88.241515	88.356904	78.000000	66.000000
88.356904	88.474090	76.000000	66.000000
88.356904	88.591276	54.000000	50.000000
88.474090	88.591276	74.000000	65.000000
88.591276	88.710326	73.000000	65.000000
88.591276	88.829376	56.000000	46.000000
88.710326	88.829376	74.000000	64.000000
88.829376	88.945649	73.000000	63.000000
88.829376	89.292701	57.000000	51.000000
88.945649	89.061923	76.000000	64.000000
89.061923	89.177312	74.000000	60.000000
89.177312	89.292701	73.000000	61.000000
89.292701	89.406332	74.000000	62.000000
89.292701	89.747228	54.000000	40.000000
89.292701	89.747228	57.000000	48.000000
89.406332	89.519964	76.000000	63.000000
89.519964	89.633596	78.000000	64.000000
89.633596	89.747228	80.000000	66.000000
89.747228	89.862617	81.000000	67.000000
89.747228	90.208139	50.000000	44.000000
89.747228	90.208139	54.000000	44.000000
89.747228	90.208139	57.000000	52.000000
89.862617	89.978005	83.000000	68.000000
89.978005	90.093394	85.000000	70.000000
90.093394	90.208139	86.000000	71.000000
90.208139	90.321771	88.000000	72.000000
90.208139	90.658201	49.000000	47.000000
90.208139	90.658201	52.000000	47.000000
90.208139	90.658201	57.000000	56.000000
90.321771	90.434585	86.000000	71.000000
90.434585	90.546728	85.000000	69.000000
90.546728	90.658201	83.000000	68.000000
90.658201	90.769311	81.000000	66.000000
90.769311	90.880422	80.000000	65.000000
90.880422	90.991532	78.000000	63.000000
90.991532	91.102053	76.000000	62.000000
91.102053	91.212453	74.000000	60.000000
91.212453	91.324676	73.000000	59.000000
91.324676	91.438925	71.000000	57.000000
91.438925	91.575289	69.000000	56.000000
91.575289	91.637275	80.000000	59.000000
91.575289	92.071176	50.000000	38.000000
91.575289	92.071176	59.000000	45.000000
91.637275	91.699261	78.000000	55.000000
91.699261	91.761246	80.000000	59.000000
91.761246	91.823232	78.000000	55.000000
91.823232	91.885218	76.000000	59.000000
91.885218	91.947204	78.000000	55.000000
91.947204	92.009190	80.000000	55.000000
92.009190	92.071176	81.000000	55.000000
92.071176	92.525341	69.000000	59.000000
92.071176	93.106643	52.000000	33.000000
92.071176	92.598163	61.000000	39.000000
92.525341	92.598163	73.000000	50.000000
92.598163	93.106643	68.000000	53.000000
92.598163	93.106643	71.000000	53.000000
92.598163	93.106643	62.000000	39.000000
93.106643	93.657100	69.000000	51.000000
93.106643	93.657100	57.000000	35.000000
93.106643	93.657100	61.000000	42.000000
93.657100	94.207557	45.000000	35.000000
94.689215	94.816311	64.000000	61.000000
94.756793	95.173448	76.000000	74.000000
95.173448	95.291572	66.000000	61.000000
95.232979	95.643130	78.000000	70.000000
95.643130	95.760771	67.000000	61.000000
95.701723	96.183836	79.000000	70.000000
96.183836	96.656281	71.000000	56.000000
96.183836	96.420059	54.000000	47.000000
96.420059	96.656281	61.000000	39.000000
96.656281	97.121403	70.000000	52.000000
96.656281	96.888842	66.000000	39.000000
96.888842	97.121403	64.000000	39.000000
97.121403	97.355775	62.000000	39.000000
97.355775	97.597710	61.000000	39.000000
97.476743	97.597710	70.000000	51.000000
97.597710	98.070155	73.000000	57.000000
97.597710	97.833933	54.000000	47.000000
97.833933	98.070155	62.000000	42.000000
98.070155	98.531683	71.000000	56.000000
98.070155	98.300919	66.000000	42.000000
98.300919	98.531683	62.000000	42.000000
98.531683	98.767905	61.000000	42.000000
98.767905	99.004127	59.000000	42.000000
98.886016	99.004127	71.000000	63.000000
99.004127	99.469370	74.000000	66.000000
99.004127	99.233148	54.000000	56.000000
99.233148	99.469370	58.000000	47.000000
99.469370	99.941815	73.000000	60.000000
99.469370	99.705593	64.000000	47.000000
99.705593	99.941815	61.000000	47.000000
99.941815	100.178037	59.000000	47.000000
100.178037	100.414260	58.000000	47.000000
100.296148	100.414260	73.000000	68.000000
100.414260	100.641537	76.000000	72.000000
100.414260	100.879637	59.000000	57.000000
100.641537	100.879637	74.000000	68.000000
100.879637	101.110414	77.000000	72.000000
101.110414	101.346636	76.000000	67.000000
101.346636	101.579197	79.000000	70.000000
101.579197	101.815420	77.000000	66.000000
101.815420	102.282406	69.000000	56.000000
101.815420	102.046184	52.000000	47.000000
102.046184	102.282406	59.000000	39.000000
102.282406	102.742164	68.000000	52.000000
102.282406	102.511400	64.000000	39.000000
102.511400	102.742164	62.000000	39.000000
102.742164	102.976535	60.000000	39.000000
102.976535	103.218471	59.000000	39.000000
103.097503	103.218471	68.000000	51.000000
103.218471	103.690915	71.000000	57.000000
103.218471	103.454693	52.000000	47.000000
103.454693	103.690915	60.000000	42.000000
103.690915	104.152443	69.000000	56.000000
103.690915	103.921679	64.000000	42.000000
103.921679	104.152443	60.000000	42.000000
104.152443	104.388666	59.000000	42.000000
104.388666	104.624888	57.000000	42.000000
104.506777	104.624888	69.000000	63.000000
104.624888	105.097319	72.000000	66.000000
104.624888	104.861097	52.000000	56.000000
104.861097	105.097319	56.000000	47.000000
105.097319	105.562455	71.000000	60.000000
105.097319	105.329894	62.000000	47.000000
105.329894	105.562455	59.000000	47.000000
105.562455	105.798677	57.000000	47.000000
105.798677	106.034899	56.000000	47.000000
105.916788	106.034899	71.000000	68.000000
106.034899	106.265677	74.000000	72.000000
106.034899	106.970776	57.000000	57.000000
106.265677	106.503776	72.000000	68.000000
106.503776	106.734554	71.000000	72.000000
106.734554	106.970776	69.000000	67.000000
106.970776	107.145200	81.000000	73.000000
106.970776	107.439546	43.000000	69.000000
106.970776	107.439546	55.000000	69.000000
107.203337	107.380497	81.000000	70.000000
107.439546	107.670324	83.000000	78.000000
107.439546	108.378991	41.000000	72.000000
107.439546	108.378991	53.000000	72.000000
107.670324	107.906546	81.000000	78.000000
107.906546	108.142768	79.000000	77.000000
108.142768	108.378991	77.000000	75.000000
108.378991	108.615213	76.000000	79.000000
108.615213	108.871619	75.000000	75.000000
108.871619	109.809118	84.000000	81.000000
108.871619	109.106004	57.000000	61.000000
108.871619	110.296932	54.000000	61.000000
109.106004	109.340375	56.000000	42.000000
109.340375	109.574747	57.000000	46.000000
109.574747	109.809118	60.000000	41.000000
109.809118	110.296932	75.000000	55.000000
109.809118	110.053025	59.000000	46.000000
110.053025	110.296932	57.000000	41.000000
110.296932	111.000060	76.000000	55.000000
110.296932	110.765689	52.000000	57.000000
110.296932	110.765689	56.000000	57.000000
111.000060	111.121028	78.000000	57.000000
111.121028	111.241996	76.000000	46.000000
111.241996	111.360107	76.000000	55.000000
111.360107	111.478218	74.000000	53.000000
111.478218	111.600165	73.000000	52.000000
111.600165	111.730601	71.000000	51.000000
111.730601	111.796972	61.000000	64.000000
111.796972	111.863343	64.000000	64.000000
111.863343	112.792541	69.000000	76.000000
111.863343	112.792541	45.000000	59.000000
111.863343	112.792541	57.000000	70.000000
112.792541	113.268728	64.000000	70.000000
112.792541	113.268728	40.000000	53.000000
112.792541	113.268728	52.000000	63.000000
113.268728	113.516658	73.000000	72.000000
113.268728	113.749206	49.000000	48.000000
113.268728	113.749206	61.000000	57.000000
113.516658	113.632932	74.000000	74.000000
113.632932	113.749206	71.000000	70.000000
113.749206	113.989210	69.000000	70.000000
113.749206	113.989210	45.000000	45.000000
113.749206	113.989210	57.000000	53.000000
114.709209	114.946370	73.000000	50.000000
114.946370	115.066372	74.000000	52.000000
115.066372	115.186374	71.000000	46.000000
115.186374	115.678480	69.000000	49.000000
115.678480	115.914702	85.000000	57.000000
115.678480	115.914702	57.000000	40.000000
115.678480	115.914702	66.000000	40.000000
116.160594	116.633038	75.000000	50.000000
116.160594	116.633038	59.000000	40.000000
116.160594	116.633038	69.000000	40.000000
116.633038	117.341705	76.000000	52.000000
116.633038	117.105483	64.000000	40.000000
116.633038	117.105483	68.000000	40.000000
117.341705	117.558240	77.000000	51.000000
117.577927	117.806935	80.000000	57.000000
117.806935	118.043157	78.000000	56.000000
118.043157	118.273921	76.000000	54.000000
118.273921	118.510143	74.000000	53.000000
118.510143	118.746365	73.000000	52.000000
118.746365	118.992270	71.000000	51.000000
118.992270	119.228493	69.000000	51.000000
118.992270	119.228493	52.000000	39.000000
119.228493	119.457500	68.000000	46.000000
119.228493	119.457500	62.000000	33.000000
119.457500	119.684777	76.000000	53.000000
119.457500	119.684777	59.000000	33.000000
119.684777	119.915541	74.000000	51.000000
119.684777	119.915541	62.000000	28.000000
119.915541	120.151763	59.000000	31.000000
120.151763	120.387986	62.000000	29.000000
120.387986	120.624208	71.000000	57.000000
120.387986	120.624208	52.000000	40.000000
120.624208	120.856769	69.000000	53.000000
120.624208	120.856769	61.000000	34.000000
120.856769	121.084033	78.000000	57.000000
120.856769	121.084033	57.000000	34.000000
121.084033	121.316594	76.000000	56.000000
121.084033	121.316594	61.000000	30.000000
121.316594	121.549142	57.000000	32.000000
121.549142	121.785364	61.000000	28.000000
121.785364	122.019735	71.000000	63.000000
121.785364	122.019735	52.000000	42.000000
122.019735	122.263642	69.000000	59.000000
122.019735	122.263642	61.000000	36.000000
122.263642	122.492649	81.000000	62.000000
122.263642	122.492649	57.000000	36.000000
122.492649	122.727021	79.000000	59.000000
122.492649	122.727021	61.000000	34.000000
122.727021	122.961393	57.000000	36.000000
122.961393	123.195764	61.000000	34.000000
123.195764	123.428325	79.000000	55.000000
123.195764	123.664548	50.000000	28.000000
123.195764	123.664548	57.000000	28.000000
123.195764	123.664548	62.000000	34.000000
123.428325	123.664548	78.000000	52.000000
123.664548	123.900770	76.000000	51.000000
123.900770	124.136992	74.000000	50.000000
124.136992	124.373214	73.000000	49.000000
124.373214	124.619120	71.000000	47.000000
124.619120	124.742072	76.000000	49.000000
124.619120	124.974620	49.000000	40.000000
124.742072	124.800209	78.000000	45.000000
124.800209	124.858346	76.000000	45.000000
124.858346	124.916483	74.000000	45.000000
124.916483	124.974620	76.000000	45.000000
124.974620	125.112231	78.000000	52.000000
124.974620	125.112231	50.000000	33.000000
125.112231	125.600031	69.000000	51.000000
125.112231	126.083472	52.000000	38.000000
125.112231	125.600031	61.000000	38.000000
125.600031	126.083472	68.000000	48.000000
125.600031	126.083472	59.000000	32.000000
125.964436	126.023954	69.000000	66.000000
126.023954	126.083472	73.000000	67.000000
126.083472	126.552216	76.000000	67.000000
126.083472	126.317844	57.000000	54.000000
126.317844	126.552216	61.000000	46.000000
126.552216	127.486094	76.000000	69.000000
126.552216	126.784777	64.000000	50.000000
126.784777	127.017338	61.000000	46.000000
127.017338	127.251723	59.000000	50.000000
127.251723	127.486094	57.000000	45.000000
127.486094	127.601483	76.000000	65.000000
127.486094	127.716872	56.000000	54.000000
127.601483	127.716872	74.000000	64.000000
127.716872	127.830504	73.000000	63.000000
127.716872	127.944136	57.000000	45.000000
127.830504	127.944136	71.000000	63.000000
127.944136	128.058652	71.000000	64.000000
127.944136	128.173156	59.000000	45.000000
128.058652	128.173156	69.000000	63.000000
128.173156	128.287660	68.000000	62.000000
128.173156	128.402163	52.000000	45.000000
128.287660	128.402163	66.000000	61.000000
128.402163	128.519349	64.000000	63.000000
128.402163	128.636535	54.000000	48.000000
128.519349	128.636535	62.000000	60.000000
128.636535	128.755585	61.000000	60.000000
128.636535	128.874635	56.000000	45.000000
128.755585	128.874635	62.000000	60.000000
128.874635	128.990908	61.000000	60.000000
128.874635	129.107182	57.000000	54.000000
128.990908	129.107182	64.000000	62.000000
129.107182	129.223456	69.000000	63.000000
129.107182	129.339730	61.000000	46.000000
129.223456	129.339730	73.000000	64.000000
129.339730	130.025048	76.000000	65.000000
129.339730	129.567007	64.000000	46.000000
129.567007	129.794284	61.000000	46.000000
129.794284	130.025048	59.000000	49.000000
130.025048	130.255812	88.000000	65.000000
130.025048	130.255812	57.000000	46.000000
130.255812	130.369444	88.000000	70.000000
130.255812	130.483076	56.000000	52.000000
130.369444	130.483076	86.000000	70.000000
130.483076	130.597580	85.000000	69.000000
130.483076	130.712083	57.000000	44.000000
130.597580	130.712083	83.000000	69.000000
130.712083	130.826600	83.000000	68.000000
130.712083	130.941104	59.000000	51.000000
130.826600	130.941104	81.000000	67.000000
130.941104	131.055607	80.000000	67.000000
130.941104	131.170111	52.000000	44.000000
131.055607	131.170111	78.000000	66.000000
131.170111	131.287297	76.000000	66.000000
131.170111	131.404482	54.000000	50.000000
131.287297	131.404482	74.000000	65.000000
131.404482	131.523532	73.000000	65.000000
131.404482	131.642582	56.000000	46.000000
131.523532	131.642582	74.000000	64.000000
131.642582	131.758856	73.000000	63.000000
131.642582	132.107678	57.000000	51.000000
131.758856	131.875130	76.000000	64.000000
131.875130	131.991404	74.000000	60.000000
131.991404	132.107678	73.000000	61.000000
132.107678	132.221309	74.000000	62.000000
132.107678	132.562205	54.000000	40.000000
132.107678	132.562205	57.000000	48.000000
132.221309	132.334941	76.000000	63.000000
132.334941	132.448573	78.000000	64.000000
132.448573	132.562205	80.000000	66.000000
132.562205	132.677594	81.000000	67.000000
132.562205	133.023116	50.000000	44.000000
132.562205	133.023116	54.000000	44.000000
132.562205	133.023116	57.000000	52.000000
132.677594	132.792982	83.000000	68.000000
132.792982	132.908371	85.000000	70.000000
132.908371	133.023116	86.000000	71.000000
133.023116	133.136748	88.000000	72.000000
133.023116	133.473178	49.000000	47.000000
133.023116	133.473178	52.000000	47.000000
133.023116	133.473178	57.000000	56.000000
133.136748	133.249562	86.000000	71.000000
133.249562	133.361705	85.000000	69.000000
133.361705	133.473178	83.000000	68.000000
133.473178	133.584288	81.000000	66.000000
133.584288	133.695399	80.000000	65.000000
133.695399	133.806509	78.000000	63.000000
133.806509	133.917030	76.000000	62.000000
133.917030	134.027430	74.000000	60.000000
134.027430	134.139653	73.000000	59.000000
134.139653	134.253902	71.000000	57.000000
134.253902	134.390266	69.000000	56.000000
134.390266	134.453284	80.000000	59.000000
134.390266	134.894508	50.000000	38.000000
134.390266	134.894508	59.000000	45.000000
134.453284	134.516316	78.000000	55.000000
134.516316	134.579348	80.000000	59.000000
134.579348	134.642380	78.000000	55.000000
134.642380	134.705412	76.000000	59.000000
134.705412	134.768444	78.000000	55.000000
134.768444	134.831476	80.000000	55.000000
134.831476	134.894508	81.000000	55.000000
134.894508	135.358624	69.000000	59.000000
134.894508	135.971992	52.000000	33.000000
134.894508	135.431446	61.000000	39.000000
135.358624	135.431446	73.000000	50.000000
135.431446	135.971992	68.000000	53.000000
135.431446	135.971992	71.000000	53.000000
135.431446	135.971992	62.000000	39.000000
135.971992	136.512538	69.000000	51.000000
135.971992	136.512538	57.000000	35.000000
135.971992	136.512538	61.000000	42.000000
136.512538	137.053084	45.000000	35.000000
139.215255	139.498268	66.000000	42.000000
139.215255	139.498268	69.000000	50.000000
139.215255	141.304321	38.000000	37.000000
139.215255	141.304321	50.000000	44.000000
139.498268	139.768541	57.000000	45.000000
139.768541	140.024947	62.000000	42.000000
139.768541	140.024947	66.000000	50.000000
140.024947	140.270852	57.000000	47.000000
140.270852	140.522953	64.000000	44.000000
140.270852	140.522953	67.000000	52.000000
140.522953	140.793226	57.000000	49.000000
140.793226	141.056391	69.000000	54.000000
140.793226	141.056391	66.000000	45.000000
141.056391	141.304321	57.000000	48.000000
141.304321	141.552251	62.000000	42.000000
141.304321	141.552251	66.000000	50.000000
141.552251	141.802247	61.000000	39.000000
141.552251	141.802247	64.000000	47.000000
141.802247	142.056480	62.000000	42.000000
141.802247	142.056480	66.000000	50.000000
142.056480	142.306476	64.000000	39.000000
142.056480	142.306476	67.000000	47.000000
142.306476	142.554406	66.000000	42.000000
142.306476	142.554406	69.000000	50.000000
142.554406	142.806507	62.000000	45.000000
142.806507	143.056516	67.000000	45.000000
142.806507	143.056516	71.000000	53.000000
143.056516	143.319667	62.000000	47.000000
143.319667	143.571768	67.000000	45.000000
143.319667	143.571768	73.000000	54.000000
143.319667	143.834920	45.000000	34.000000
143.319667	143.834920	57.000000	41.000000
143.571768	143.834920	64.000000	47.000000
143.834920	144.095792	66.000000	45.000000
143.834920	144.095792	74.000000	54.000000
143.834920	144.356664	38.000000	34.000000
143.834920	144.356664	50.000000	41.000000
144.095792	144.356664	69.000000	49.000000
144.356664	144.604594	62.000000	42.000000
144.356664	144.604594	66.000000	50.000000
144.356664	144.604594	78.000000	55.000000
144.604594	144.854589	61.000000	39.000000
144.604594	144.854589	64.000000	47.000000
144.604594	144.854589	76.000000	46.000000
144.854589	145.108823	62.000000	42.000000
144.854589	145.108823	66.000000	50.000000
144.854589	145.108823	78.000000	54.000000
145.108823	145.358818	64.000000	39.000000
145.108823	145.358818	67.000000	47.000000
145.108823	145.358818	79.000000	47.000000
145.358818	145.606748	66.000000	42.000000
145.358818	145.606748	69.000000	50.000000
145.358818	145.860982	81.000000	53.000000
145.606748	145.860982	62.000000	45.000000
145.860982	146.115228	67.000000	45.000000
145.860982	146.115228	71.000000	53.000000
145.860982	146.376100	83.000000	53.000000
146.115228	146.376100	62.000000	47.000000
146.376100	146.630347	67.000000	45.000000
146.376100	146.630347	73.000000	54.000000
146.376100	146.898206	85.000000	53.000000
146.630347	146.898206	64.000000	47.000000
146.898206	147.166065	66.000000	45.000000
146.898206	147.166065	74.000000	54.000000
146.898206	147.443848	86.000000	54.000000
147.166065	147.443848	69.000000	49.000000
147.443848	147.698081	66.000000	45.000000
147.443848	147.698081	74.000000	54.000000
147.698081	147.956700	64.000000	41.000000
147.698081	147.956700	73.000000	49.000000
147.956700	148.204630	62.000000	41.000000
147.956700	148.204630	71.000000	49.000000
148.204630	148.477357	61.000000	41.000000
148.204630	148.477357	69.000000	49.000000
148.477357	148.733763	59.000000	45.000000
148.477357	148.733763	68.000000	54.000000
148.477357	148.994635	52.000000	41.000000
148.733763	148.994635	64.000000	47.000000
148.994635	149.248869	61.000000	43.000000
148.994635	149.248869	69.000000	51.000000
148.994635	149.507487	49.000000	35.000000
149.248869	149.507487	64.000000	42.000000
149.507487	149.759575	69.000000	44.000000
149.507487	149.759575	73.000000	52.000000
149.507487	150.011676	45.000000	35.000000
149.759575	150.011676	64.000000	42.000000
150.011676	150.263777	68.000000	43.000000
150.011676	150.263777	71.000000	51.000000
150.011676	150.531636	52.000000	40.000000
150.263777	150.531636	64.000000	44.000000
150.531636	150.779566	66.000000	45.000000
150.531636	150.779566	74.000000	54.000000
150.531636	150.779566	86.000000	60.000000
150.779566	151.035972	64.000000	41.000000
150.779566	151.035972	73.000000	49.000000
150.779566	151.035972	85.000000	58.000000
151.035972	151.290205	62.000000	41.000000
151.035972	151.290205	71.000000	49.000000
151.035972	151.290205	83.000000	56.000000
151.290205	151.555690	61.000000	41.000000
151.290205	151.555690	69.000000	49.000000
151.290205	151.489319	81.000000	56.000000
151.489319	151.555690	87.000000	54.000000
151.555690	151.801596	59.000000	45.000000
151.555690	151.801596	68.000000	54.000000
151.555690	151.984522	88.000000	65.000000
151.801596	152.045502	64.000000	47.000000
151.984522	152.045502	87.000000	54.000000
152.045502	152.291394	61.000000	43.000000
152.045502	152.291394	69.000000	51.000000
152.045502	152.472846	88.000000	65.000000
152.291394	152.533329	64.000000	42.000000
152.472846	152.533329	87.000000	54.000000
152.533329	152.777236	69.000000	44.000000
152.533329	152.777236	73.000000	52.000000
152.533329	152.964736	88.000000	66.000000
152.777236	153.027232	64.000000	42.000000
152.964736	153.027232	87.000000	54.000000
153.027232	153.277241	68.000000	43.000000
153.027232	153.277241	71.000000	51.000000
153.027232	153.540392	88.000000	65.000000
153.277241	153.540392	64.000000	44.000000
153.540392	155.036771	64.000000	64.000000
153.540392	153.796798	73.000000	64.000000
153.540392	153.796798	45.000000	51.000000
153.796798	154.044728	71.000000	59.000000
153.796798	154.044728	44.000000	47.000000
154.044728	154.288635	73.000000	61.000000
154.044728	154.288635	45.000000	51.000000
154.288635	154.538631	74.000000	54.000000
154.288635	154.538631	47.000000	47.000000
154.538631	154.782538	76.000000	66.000000
154.538631	155.036771	49.000000	51.000000
154.782538	155.036771	69.000000	59.000000
155.036771	155.537084	69.000000	64.000000
155.036771	155.280678	73.000000	64.000000
155.036771	155.537084	52.000000	46.000000
155.280678	155.537084	64.000000	58.000000
155.537084	156.039609	68.000000	64.000000
155.537084	155.780990	71.000000	64.000000
155.537084	156.039609	40.000000	49.000000
155.780990	156.039609	64.000000	58.000000
156.039609	156.287539	69.000000	64.000000
156.039609	156.550691	45.000000	49.000000
156.287539	156.550691	64.000000	58.000000
156.550691	156.807097	69.000000	64.000000
156.550691	156.807097	73.000000	64.000000
156.550691	156.807097	85.000000	58.000000
156.807097	157.055027	68.000000	59.000000
156.807097	157.055027	71.000000	59.000000
156.807097	157.055027	83.000000	53.000000
157.055027	157.307128	69.000000	61.000000
157.055027	157.307128	73.000000	61.000000
157.055027	157.307128	85.000000	59.000000
157.307128	157.557124	71.000000	54.000000
157.307128	157.557124	74.000000	54.000000
157.307128	157.557124	86.000000	52.000000
157.557124	157.801030	73.000000	66.000000
157.557124	157.801030	76.000000	66.000000
157.557124	158.055264	88.000000	58.000000
157.801030	158.055264	69.000000	59.000000
158.055264	158.299171	69.000000	64.000000
158.055264	158.299171	73.000000	64.000000
158.055264	158.555577	85.000000	62.000000
158.299171	158.555577	64.000000	58.000000
158.555577	158.799483	68.000000	64.000000
158.555577	158.799483	71.000000	64.000000
158.555577	159.058102	83.000000	59.000000
158.799483	159.058102	64.000000	58.000000
159.058102	159.306032	69.000000	64.000000
159.058102	159.560266	81.000000	56.000000
159.306032	159.560266	64.000000	58.000000
159.560266	159.804173	66.000000	61.000000
159.560266	160.054168	50.000000	36.000000
159.560266	160.054168	59.000000	43.000000
159.804173	160.054168	74.000000	53.000000
160.054168	160.300073	71.000000	61.000000
160.054168	160.554306	62.000000	38.000000
160.054168	160.554306	52.000000	32.000000
160.300073	160.554306	68.000000	55.000000
160.554306	160.802237	69.000000	59.000000
160.554306	161.050167	61.000000	43.000000
160.554306	161.050167	57.000000	36.000000
160.802237	161.050167	64.000000	50.000000
161.050167	161.300176	66.000000	56.000000
161.050167	161.556582	50.000000	32.000000
161.050167	161.556582	59.000000	38.000000
161.300176	161.556582	74.000000	50.000000
161.556582	161.812987	71.000000	57.000000
161.556582	162.076139	62.000000	43.000000
161.556582	162.076139	52.000000	36.000000
161.812987	162.076139	68.000000	48.000000
162.076139	162.324056	69.000000	52.000000
162.076139	162.571986	57.000000	34.000000
162.076139	162.571986	61.000000	40.000000
162.324056	162.571986	68.000000	46.000000
162.571986	162.819916	69.000000	52.000000
162.819916	163.067846	71.000000	45.000000
163.067846	163.333332	67.000000	48.000000
163.333332	163.627449	64.000000	48.000000
163.627449	163.910463	66.000000	42.000000
163.627449	163.910463	69.000000	50.000000
163.627449	165.716516	38.000000	37.000000
163.627449	165.716516	50.000000	44.000000
163.910463	164.180736	57.000000	45.000000
164.180736	164.437142	62.000000	42.000000
164.180736	164.437142	66.000000	50.000000
164.437142	164.683047	57.000000	47.000000
164.683047	164.935148	64.000000	44.000000
164.683047	164.935148	67.000000	52.000000
164.935148	165.205421	57.000000	49.000000
165.205421	165.468586	69.000000	54.000000
165.205421	165.468586	66.000000	45.000000
165.468586	165.716516	57.000000	48.000000
165.716516	165.964446	62.000000	42.000000
165.716516	165.964446	66.000000	50.000000
165.964446	166.214442	61.000000	39.000000
165.964446	166.214442	64.000000	47.000000
166.214442	166.468675	62.000000	42.000000
166.214442	166.468675	66.000000	50.000000
166.468675	166.718670	64.000000	39.000000
166.468675	166.718670	67.000000	47.000000
166.718670	166.966601	66.000000	42.000000
166.718670	166.966601	69.000000	50.000000
166.966601	167.218702	62.000000	45.000000
167.218702	167.468710	67.000000	45.000000
167.218702	167.468710	71.000000	53.000000
167.468710	167.731862	62.000000	47.000000
167.731862	167.983963	67.000000	45.000000
167.731862	167.983963	73.000000	54.000000
167.731862	168.247115	45.000000	34.000000
167.731862	168.247115	57.000000	41.000000
167.983963	168.247115	64.000000	47.000000
168.247115	168.507987	66.000000	45.000000
168.247115	168.507987	74.000000	54.000000
168.247115	168.768858	38.000000	34.000000
168.247115	168.768858	50.000000	41.000000
168.507987	168.768858	69.000000	49.000000
168.768858	169.016789	62.000000	42.000000
168.768858	169.016789	66.000000	50.000000
168.768858	169.016789	78.000000	55.000000
169.016789	169.266784	61.000000	39.000000
169.016789	169.266784	64.000000	47.000000
169.016789	169.266784	76.000000	46.000000
169.266784	169.521017	62.000000	42.000000
169.266784	169.521017	66.000000	50.000000
169.266784	169.521017	78.000000	54.000000
169.521017	169.771013	64.000000	39.000000
169.521017	169.771013	67.000000	47.000000
169.521017	169.771013	79.000000	47.000000
169.771013	170.018943	66.000000	42.000000
169.771013	170.018943	69.000000	50.000000
169.771013	170.273176	81.000000	53.000000
170.018943	170.273176	62.000000	45.000000
170.273176	170.527423	67.000000	45.000000
170.273176	170.527423	71.000000	53.000000
170.273176	170.788295	83.000000	53.000000
170.527423	170.788295	62.000000	47.000000
170.788295	171.042542	67.000000	45.000000
170.788295	171.042542	73.000000	54.000000
170.788295	171.310401	85.000000	53.000000
171.042542	171.310401	64.000000	47.000000
171.310401	171.578260	66.000000	45.000000
171.310401	171.578260	74.000000	54.000000
171.310401	171.856043	86.000000	54.000000
171.578260	171.856043	69.000000	49.000000
171.856043	172.110276	66.000000	45.000000
171.856043	172.110276	74.000000	54.000000
172.110276	172.368895	64.000000	41.000000
172.110276	172.368895	73.000000	49.000000
172.368895	172.616825	62.000000	41.000000
172.368895	172.616825	71.000000	49.000000
172.616825	172.889552	61.000000	41.000000
172.616825	172.889552	69.000000	49.000000
172.889552	173.145958	59.000000	45.000000
172.889552	173.145958	68.000000	54.000000
172.889552	173.406830	52.000000	41.000000
173.145958	173.406830	64.000000	47.000000
173.406830	173.661063	61.000000	43.000000
173.406830	173.661063	69.000000	51.000000
173.406830	173.919682	49.000000	35.000000
173.661063	173.919682	64.000000	42.000000
173.919682	174.171770	69.000000	44.000000
173.919682	174.171770	73.000000	52.000000
173.919682	174.423871	45.000000	35.000000
174.171770	174.423871	64.000000	42.000000
174.423871	174.675972	68.000000	43.000000
174.423871	174.675972	71.000000	51.000000
174.423871	174.943831	52.000000	40.000000
174.675972	174.943831	64.000000	44.000000
174.943831	175.191761	66.000000	45.000000
174.943831	175.191761	74.000000	54.000000
174.943831	175.191761	86.000000	60.000000
175.191761	175.448167	64.000000	41.000000
175.191761	175.448167	73.000000	49.000000
175.191761	175.448167	85.000000	58.000000
175.448167	175.702400	62.000000	41.000000
175.448167	175.702400	71.000000	49.000000
175.448167	175.702400	83.000000	56.000000
175.702400	175.967885	61.000000	41.000000
175.702400	175.967885	69.000000	49.000000
175.702400	175.901514	81.000000	56.000000
175.901514	175.967885	87.000000	54.000000
175.967885	176.213790	59.000000	45.000000
175.967885	176.213790	68.000000	54.000000
175.967885	176.396717	88.000000	65.000000
176.213790	176.457697	64.000000	47.000000
176.396717	176.457697	87.000000	54.000000
176.457697	176.703589	61.000000	43.000000
176.457697	176.703589	69.000000	51.000000
176.457697	176.885041	88.000000	65.000000
176.703589	176.945524	64.000000	42.000000
176.885041	176.945524	87.000000	54.000000
176.945524	177.189431	69.000000	44.000000
176.945524	177.189431	73.000000	52.000000
176.945524	177.376931	88.000000	66.000000
177.189431	177.439427	64.000000	42.000000
177.376931	177.439427	87.000000	54.000000
177.439427	177.689436	68.000000	43.000000
177.439427	177.689436	71.000000	51.000000
177.439427	177.952587	88.000000	65.000000
177.689436	177.952587	64.000000	44.000000
177.952587	179.448966	64.000000	64.000000
177.952587	178.208993	73.000000	64.000000
177.952587	178.208993	45.000000	51.000000
178.208993	178.456923	71.000000	59.000000
178.208993	178.456923	44.000000	47.000000
178.456923	178.700830	73.000000	61.000000
178.456923	178.700830	45.000000	51.000000
178.700830	178.950826	74.000000	54.000000
178.700830	178.950826	47.000000	47.000000
178.950826	179.194732	76.000000	66.000000
178.950826	179.448966	49.000000	51.000000
179.194732	179.448966	69.000000	59.000000
179.448966	179.949279	69.000000	64.000000
179.448966	179.692873	73.000000	64.000000
179.448966	179.949279	52.000000	46.000000
179.692873	179.949279	64.000000	58.000000
179.949279	180.451804	68.000000	64.000000
179.949279	180.193185	71.000000	64.000000
179.949279	180.451804	40.000000	49.000000
180.193185	180.451804	64.000000	58.000000
180.451804	180.699734	69.000000	64.000000
180.451804	180.962886	45.000000	49.000000
180.699734	180.962886	64.000000	58.000000
180.962886	181.219292	69.000000	64.000000
180.962886	181.219292	73.000000	64.000000
180.962886	181.219292	85.000000	58.000000
181.219292	181.467222	68.000000	59.000000
181.219292	181.467222	71.000000	59.000000
181.219292	181.467222	83.000000	53.000000
181.467222	181.719323	69.000000	61.000000
181.467222	181.719323	73.000000	61.000000
181.467222	181.719323	85.000000	59.000000
181.719323	181.969319	71.000000	54.000000
181.719323	181.969319	74.000000	54.000000
181.719323	181.969319	86.000000	52.000000
181.969319	182.213225	73.000000	66.000000
181.969319	182.213225	76.000000	66.000000
181.969319	182.467459	88.000000	58.000000
182.213225	182.467459	69.000000	59.000000
182.467459	182.711366	69.000000	64.000000
182.467459	182.711366	73.000000	64.000000
182.467459	182.967771	85.000000	62.000000
182.711366	182.967771	64.000000	58.000000
182.967771	183.211678	68.000000	64.000000
182.967771	183.211678	71.000000	64.000000
182.967771	183.470297	83.000000	59.000000
183.211678	183.470297	64.000000	58.000000
183.470297	183.718227	69.000000	64.000000
183.470297	183.972461	81.000000	56.000000
183.718227	183.972461	64.000000	58.000000
183.972461	184.216367	66.000000	61.000000
183.972461	184.466363	50.000000	36.000000
183.972461	184.466363	59.000000	43.000000
184.216367	184.466363	74.000000	53.000000
184.466363	184.712268	71.000000	61.000000
184.466363	184.966501	62.000000	38.000000
184.466363	184.966501	52.000000	32.000000
184.712268	184.966501	68.000000	55.000000
184.966501	185.214431	69.000000	59.000000
184.966501	185.462362	61.000000	43.000000
184.966501	185.462362	57.000000	36.000000
185.214431	185.462362	64.000000	50.000000
185.462362	185.712370	66.000000	56.000000
185.462362	185.968776	50.000000	32.000000
185.462362	185.968776	59.000000	38.000000
185.712370	185.968776	74.000000	50.000000
185.968776	186.225182	71.000000	57.000000
185.968776	186.488334	62.000000	43.000000
185.968776	186.488334	52.000000	36.000000
186.225182	186.488334	68.000000	48.000000
186.488334	186.736251	69.000000	52.000000
186.488334	186.984181	57.000000	34.000000
186.488334	186.984181	61.000000	40.000000
186.736251	186.984181	68.000000	46.000000
186.984181	187.232111	69.000000	52.000000
187.232111	187.480041	71.000000	45.000000
187.480041	187.734275	67.000000	48.000000
187.734275	187.988508	64.000000	48.000000
187.988508	188.271535	66.000000	42.000000
187.988508	188.271535	69.000000	50.000000
187.988508	190.077588	35.000000	37.000000
187.988508	190.077588	47.000000	44.000000
188.271535	188.541808	59.000000	45.000000
188.541808	188.798214	63.000000	42.000000
188.541808	188.798214	66.000000	50.000000
188.798214	189.044119	59.000000	47.000000
189.044119	189.296220	64.000000	44.000000
189.044119	189.296220	67.000000	52.000000
189.296220	189.566493	59.000000	49.000000
189.566493	189.829658	69.000000	54.000000
189.566493	189.829658	66.000000	45.000000
189.829658	190.077588	59.000000	48.000000
190.077588	190.327597	63.000000	37.000000
190.077588	190.327597	66.000000	45.000000
190.077588	190.327597	84.000000	54.000000
190.327597	190.573502	59.000000	42.000000
190.327597	190.573502	83.000000	50.000000
190.573502	190.821419	64.000000	39.000000
190.573502	190.821419	67.000000	46.000000
190.573502	190.821419	81.000000	54.000000
190.821419	191.080037	59.000000	44.000000
190.821419	191.080037	79.000000	50.000000
191.080037	191.330046	69.000000	48.000000
191.080037	191.330046	66.000000	40.000000
191.080037	191.577976	78.000000	54.000000
191.330046	191.577976	59.000000	43.000000
191.577976	191.825907	63.000000	37.000000
191.577976	191.825907	66.000000	45.000000
191.577976	191.825907	81.000000	54.000000
191.825907	192.071812	59.000000	42.000000
191.825907	192.071812	79.000000	50.000000
192.071812	192.317703	64.000000	39.000000
192.071812	192.317703	67.000000	46.000000
192.071812	192.317703	78.000000	55.000000
192.317703	192.576322	59.000000	44.000000
192.317703	192.576322	76.000000	50.000000
192.576322	193.103014	69.000000	48.000000
192.576322	193.103014	66.000000	40.000000
192.576322	193.103014	75.000000	54.000000
193.103014	193.320770	71.000000	60.000000
193.103014	193.320770	83.000000	71.000000
193.103014	193.320770	47.000000	49.000000
193.103014	193.320770	59.000000	59.000000
193.344963	193.564475	69.000000	56.000000
193.344963	193.564475	81.000000	66.000000
193.344963	193.564475	45.000000	46.000000
193.344963	193.564475	57.000000	55.000000
193.588870	193.812017	67.000000	60.000000
193.588870	193.812017	79.000000	71.000000
193.588870	193.812017	43.000000	49.000000
193.588870	193.812017	55.000000	59.000000
193.836814	194.067578	66.000000	56.000000
193.836814	194.067578	78.000000	67.000000
193.836814	194.067578	42.000000	46.000000
193.836814	194.067578	54.000000	55.000000
194.093220	194.571096	64.000000	62.000000
194.093220	194.571096	76.000000	74.000000
194.093220	194.571096	40.000000	50.000000
194.093220	194.571096	52.000000	60.000000
194.624190	195.085731	64.000000	60.000000
194.624190	195.085731	76.000000	71.000000
194.624190	195.085731	40.000000	46.000000
194.624190	195.085731	52.000000	55.000000
195.137015	195.598557	71.000000	61.000000
195.137015	195.598557	83.000000	73.000000
195.137015	195.598557	47.000000	50.000000
195.137015	195.598557	59.000000	60.000000
195.649841	196.096120	64.000000	60.000000
195.649841	196.096120	76.000000	71.000000
195.649841	196.096120	40.000000	46.000000
195.649841	196.096120	52.000000	55.000000
196.145701	196.365213	71.000000	60.000000
196.145701	196.365213	83.000000	71.000000
196.145701	196.365213	47.000000	49.000000
196.145701	196.365213	59.000000	59.000000
196.389608	196.612754	69.000000	56.000000
196.389608	196.612754	81.000000	66.000000
196.389608	196.612754	45.000000	46.000000
196.389608	196.612754	57.000000	55.000000
196.637551	196.864440	67.000000	60.000000
196.637551	196.864440	79.000000	71.000000
196.637551	196.864440	43.000000	49.000000
196.637551	196.864440	55.000000	59.000000
196.889652	197.124440	66.000000	56.000000
196.889652	197.124440	78.000000	67.000000
196.889652	197.124440	42.000000	46.000000
196.889652	197.124440	54.000000	55.000000
197.150524	197.628400	64.000000	62.000000
197.150524	197.628400	76.000000	74.000000
197.150524	197.628400	40.000000	50.000000
197.150524	197.628400	52.000000	60.000000
197.681495	198.143036	64.000000	60.000000
197.681495	198.143036	76.000000	71.000000
197.681495	198.143036	40.000000	46.000000
197.681495	198.143036	52.000000	55.000000
198.194320	198.655861	71.000000	61.000000
198.194320	198.655861	83.000000	73.000000
198.194320	198.655861	47.000000	50.000000
198.194320	198.655861	59.000000	60.000000
198.707145	199.185021	64.000000	60.000000
198.707145	199.185021	76.000000	71.000000
198.707145	199.185021	40.000000	46.000000
198.707145	199.185021	52.000000	55.000000
199.238116	199.490217	76.000000	50.000000
199.490217	199.748835	74.000000	46.000000
199.748835	200.000936	76.000000	50.000000
200.000936	200.259555	77.000000	47.000000
200.259555	200.772407	79.000000	51.000000
200.259555	201.280874	60.000000	42.000000
200.518174	200.772407	64.000000	39.000000
200.772407	201.535107	79.000000	53.000000
200.772407	201.026641	67.000000	42.000000
201.026641	201.280874	64.000000	39.000000
201.280874	201.791513	59.000000	35.000000
201.280874	201.535107	65.000000	42.000000
201.535107	201.791513	79.000000	50.000000
201.535107	201.791513	62.000000	37.000000
201.791513	202.299993	84.000000	55.000000
201.791513	202.799984	60.000000	42.000000
202.045760	202.299993	64.000000	37.000000
202.299993	202.799984	79.000000	50.000000
202.299993	202.549989	67.000000	42.000000
202.549989	202.799984	64.000000	37.000000
202.799984	203.308612	59.000000	35.000000
202.799984	203.049993	65.000000	42.000000
203.049993	203.308612	62.000000	38.000000
203.308612	203.806618	79.000000	56.000000
203.308612	204.306609	60.000000	46.000000
203.560713	203.806618	64.000000	42.000000
203.806618	204.560856	79.000000	58.000000
203.806618	204.056613	67.000000	46.000000
204.056613	204.306609	64.000000	42.000000
204.306609	204.815089	59.000000	38.000000
204.306609	204.560856	65.000000	46.000000
204.560856	204.815089	79.000000	55.000000
204.560856	204.815089	62.000000	40.000000
204.815089	205.313095	84.000000	60.000000
204.815089	205.808955	60.000000	46.000000
205.067190	205.313095	64.000000	40.000000
205.313095	205.808955	79.000000	55.000000
205.313095	205.561025	67.000000	46.000000
205.561025	205.808955	64.000000	40.000000
205.808955	206.058951	60.000000	46.000000
206.058951	206.326796	64.000000	41.000000
206.192874	206.326796	79.000000	61.000000
206.326796	206.822697	88.000000	70.000000
206.326796	207.322688	58.000000	53.000000
206.576792	206.822697	60.000000	45.000000
206.822697	207.322688	79.000000	55.000000
206.822697	207.072692	64.000000	51.000000
207.072692	207.322688	67.000000	43.000000
207.322688	207.572683	64.000000	52.000000
207.572683	207.833555	60.000000	46.000000
207.703119	207.833555	79.000000	65.000000
207.833555	208.327457	88.000000	74.000000
207.833555	208.821306	57.000000	58.000000
208.083550	208.327457	61.000000	51.000000
208.327457	208.821306	79.000000	61.000000
208.327457	208.573376	64.000000	58.000000
208.573376	208.821306	67.000000	50.000000
208.821306	209.069236	64.000000	58.000000
209.069236	209.330108	61.000000	51.000000
209.199672	209.330108	79.000000	55.000000
209.330108	209.574015	79.000000	60.000000
209.330108	210.313782	57.000000	48.000000
209.330108	210.313782	62.000000	57.000000
209.574015	209.817922	77.000000	58.000000
209.817922	210.065852	76.000000	58.000000
210.065852	210.313782	77.000000	54.000000
210.313782	210.561712	76.000000	58.000000
210.313782	210.809642	56.000000	41.000000
210.313782	210.561712	64.000000	49.000000
210.561712	210.809642	74.000000	55.000000
210.561712	210.809642	65.000000	43.000000
210.809642	211.055547	73.000000	58.000000
210.809642	211.307648	57.000000	44.000000
210.809642	211.307648	64.000000	52.000000
211.055547	211.307648	80.000000	55.000000
211.307648	211.549584	81.000000	58.000000
211.549584	211.795489	80.000000	55.000000
211.795489	212.041394	81.000000	58.000000
212.041394	212.287299	76.000000	55.000000
212.287299	212.531206	79.000000	60.000000
212.287299	213.766833	62.000000	43.000000
212.287299	213.766833	58.000000	43.000000
212.287299	213.766833	68.000000	51.000000
212.531206	212.775113	77.000000	58.000000
212.775113	213.023043	76.000000	58.000000
213.023043	213.270973	77.000000	54.000000
213.270973	213.518903	76.000000	58.000000
213.518903	213.766833	74.000000	55.000000
213.766833	214.010740	81.000000	58.000000
213.766833	214.262841	61.000000	44.000000
213.766833	214.262841	57.000000	44.000000
213.766833	214.262841	69.000000	52.000000
214.010740	214.262841	80.000000	55.000000
214.262841	214.504776	81.000000	58.000000
214.504776	214.752707	76.000000	55.000000
214.752707	215.000637	77.000000	58.000000
214.752707	215.248567	57.000000	37.000000
214.752707	215.248567	62.000000	37.000000
214.752707	215.248567	65.000000	44.000000
215.000637	215.248567	74.000000	55.000000
215.248567	215.492474	81.000000	58.000000
215.248567	215.744575	61.000000	44.000000
215.248567	215.744575	57.000000	44.000000
215.248567	215.744575	64.000000	52.000000
215.492474	215.744575	80.000000	55.000000
215.744575	215.986510	81.000000	58.000000
215.986510	216.232415	76.000000	55.000000
216.232415	216.478320	77.000000	58.000000
216.232415	216.724306	57.000000	37.000000
216.232415	216.724306	62.000000	37.000000
216.232415	216.724306	65.000000	44.000000
216.478320	216.724306	74.000000	49.000000
216.724306	216.974355	69.000000	51.000000
216.724306	217.226711	57.000000	44.000000
216.724306	217.226711	61.000000	44.000000
216.724306	217.226711	64.000000	52.000000
216.974355	217.226711	68.000000	45.000000
217.226711	217.480998	69.000000	51.000000
217.480998	217.737404	68.000000	47.000000
217.737404	217.998034	69.000000	51.000000
217.998034	218.266483	68.000000	44.000000
218.266483	218.549497	66.000000	42.000000
218.266483	218.549497	69.000000	50.000000
218.266483	220.355550	38.000000	37.000000
218.266483	220.355550	50.000000	44.000000
218.549497	218.819770	57.000000	45.000000
218.819770	219.076176	62.000000	42.000000
218.819770	219.076176	66.000000	50.000000
219.076176	219.322081	57.000000	47.000000
219.322081	219.574182	64.000000	44.000000
219.322081	219.574182	67.000000	52.000000
219.574182	219.844455	57.000000	49.000000
219.844455	220.107620	69.000000	54.000000
219.844455	220.107620	66.000000	45.000000
220.107620	220.355550	62.000000	48.000000
220.355550	220.603480	71.000000	42.000000
220.355550	220.603480	74.000000	50.000000
220.603480	220.853475	69.000000	39.000000
220.603480	220.853475	73.000000	47.000000
220.853475	221.107709	67.000000	42.000000
220.853475	221.107709	71.000000	50.000000
221.107709	221.357704	66.000000	39.000000
221.107709	221.357704	69.000000	47.000000
221.357704	221.605634	67.000000	50.000000
221.357704	221.857735	47.000000	53.000000
221.605634	221.857735	62.000000	45.000000
221.857735	222.107744	66.000000	45.000000
221.857735	222.107744	69.000000	53.000000
221.857735	222.370896	45.000000	49.000000
222.107744	222.370896	62.000000	47.000000
222.370896	222.622997	67.000000	45.000000
222.370896	222.622997	71.000000	54.000000
222.370896	222.886149	43.000000	47.000000
222.622997	222.886149	62.000000	47.000000
222.886149	223.149314	69.000000	54.000000
222.886149	223.149314	66.000000	45.000000
222.886149	223.397244	50.000000	53.000000
223.149314	223.397244	62.000000	48.000000
223.397244	223.645174	71.000000	39.000000
223.397244	223.645174	74.000000	47.000000
223.397244	223.645174	86.000000	55.000000
223.645174	223.895170	69.000000	37.000000
223.645174	223.895170	73.000000	44.000000
223.645174	223.895170	85.000000	51.000000
223.895170	224.149403	67.000000	39.000000
223.895170	224.149403	71.000000	47.000000
223.895170	224.149403	83.000000	55.000000
224.149403	224.399398	66.000000	37.000000
224.149403	224.399398	69.000000	44.000000
224.149403	224.399398	81.000000	51.000000
224.399398	224.647328	64.000000	42.000000
224.399398	224.647328	67.000000	47.000000
224.399398	224.899429	79.000000	55.000000
224.647328	224.899429	62.000000	42.000000
224.899429	225.149438	66.000000	42.000000
224.899429	225.149438	69.000000	50.000000
224.899429	225.412590	81.000000	58.000000
225.149438	225.412590	62.000000	44.000000
225.412590	225.664691	67.000000	42.000000
225.412590	225.664691	71.000000	51.000000
225.412590	225.927843	83.000000	59.000000
225.664691	225.927843	62.000000	44.000000
225.927843	226.191008	69.000000	51.000000
225.927843	226.191008	66.000000	42.000000
225.927843	226.438938	81.000000	59.000000
226.191008	226.438938	62.000000	45.000000
226.438938	226.686868	67.000000	42.000000
226.438938	226.686868	71.000000	50.000000
226.686868	226.936864	66.000000	39.000000
226.686868	226.936864	69.000000	47.000000
226.936864	227.191097	64.000000	42.000000
226.936864	227.191097	67.000000	50.000000
227.191097	227.441092	62.000000	39.000000
227.191097	227.441092	66.000000	47.000000
227.441092	227.689023	61.000000	45.000000
227.441092	227.689023	64.000000	50.000000
227.441092	227.941124	45.000000	53.000000
227.689023	227.941124	57.000000	45.000000
227.941124	228.191132	62.000000	45.000000
227.941124	228.191132	69.000000	53.000000
227.941124	228.454284	42.000000	49.000000
228.191132	228.454284	57.000000	47.000000
228.454284	228.706385	62.000000	45.000000
228.454284	228.706385	66.000000	54.000000
228.454284	228.969537	38.000000	47.000000
228.706385	228.969537	57.000000	47.000000
228.969537	229.232702	64.000000	54.000000
228.969537	229.232702	61.000000	45.000000
228.969537	229.480632	45.000000	53.000000
229.232702	229.480632	57.000000	48.000000
229.480632	229.728562	67.000000	39.000000
229.480632	229.728562	71.000000	47.000000
229.480632	229.728562	83.000000	55.000000
229.728562	229.978558	66.000000	37.000000
229.728562	229.978558	69.000000	44.000000
229.728562	229.978558	81.000000	51.000000
229.978558	230.232791	64.000000	39.000000
229.978558	230.232791	67.000000	47.000000
229.978558	230.232791	79.000000	55.000000
230.232791	230.482786	62.000000	37.000000
230.232791	230.482786	66.000000	44.000000
230.232791	230.420291	78.000000	51.000000
230.420291	230.482786	80.000000	48.000000
230.482786	230.728678	61.000000	42.000000
230.482786	230.728678	64.000000	47.000000
230.482786	230.854729	81.000000	63.000000
230.728678	230.980792	57.000000	42.000000
230.917761	230.980792	80.000000	48.000000
230.980792	231.226698	66.000000	42.000000
230.980792	231.226698	69.000000	50.000000
230.980792	231.352748	81.000000	63.000000
231.226698	231.478812	57.000000	44.000000
231.415780	231.478812	80.000000	48.000000
231.478812	231.726742	62.000000	42.000000
231.478812	231.726742	66.000000	51.000000
231.478812	231.852793	81.000000	64.000000
231.726742	231.978857	57.000000	44.000000
231.915825	231.978857	80.000000	48.000000
231.978857	232.242022	64.000000	51.000000
231.978857	232.242022	61.000000	42.000000
231.978857	232.489952	81.000000	64.000000
232.242022	232.489952	69.000000	45.000000
232.489952	233.732097	62.000000	50.000000
232.489952	232.746358	74.000000	64.000000
232.489952	232.746358	59.000000	46.000000
232.746358	232.994288	73.000000	59.000000
232.746358	232.994288	58.000000	41.000000
232.994288	233.238195	74.000000	61.000000
232.994288	233.238195	59.000000	47.000000
233.238195	233.488190	71.000000	54.000000
233.238195	233.488190	55.000000	41.000000
233.488190	233.732097	69.000000	63.000000
233.488190	233.986330	54.000000	48.000000
233.732097	233.986330	57.000000	55.000000
233.986330	234.486643	67.000000	61.000000
233.986330	234.230237	62.000000	54.000000
233.986330	234.486643	52.000000	44.000000
234.230237	234.486643	59.000000	54.000000
234.486643	234.989169	64.000000	61.000000
234.486643	234.730550	61.000000	54.000000
234.486643	234.989169	45.000000	44.000000
234.730550	234.989169	57.000000	51.000000
234.989169	235.357718	62.000000	52.000000
234.989169	235.237099	66.000000	64.000000
234.989169	235.500264	50.000000	49.000000
235.237099	235.500264	69.000000	55.000000
235.500264	235.756683	71.000000	64.000000
235.500264	235.756683	74.000000	64.000000
235.500264	235.756683	86.000000	58.000000
235.756683	236.004613	70.000000	56.000000
235.756683	236.004613	73.000000	56.000000
235.756683	236.004613	85.000000	53.000000
236.004613	236.256714	71.000000	61.000000
236.004613	236.256714	74.000000	61.000000
236.004613	236.256714	86.000000	59.000000
236.256714	236.506710	67.000000	54.000000
236.256714	236.506710	71.000000	54.000000
236.256714	236.506710	83.000000	52.000000
236.506710	236.750617	66.000000	56.000000
236.506710	236.750617	69.000000	66.000000
236.506710	237.004850	81.000000	58.000000
236.750617	237.004850	62.000000	51.000000
237.004850	237.248757	64.000000	54.000000
237.004850	237.248757	67.000000	64.000000
237.004850	237.505163	79.000000	62.000000
237.248757	237.505163	59.000000	51.000000
237.505163	237.749070	61.000000	54.000000
237.505163	237.749070	64.000000	64.000000
237.505163	238.007688	76.000000	59.000000
237.749070	238.007688	57.000000	52.000000
238.007688	238.255619	62.000000	54.000000
238.007688	238.255619	66.000000	64.000000
238.007688	238.509852	74.000000	56.000000
238.255619	238.509852	69.000000	54.000000
238.509852	238.878763	59.000000	50.000000
238.509852	238.753759	69.000000	61.000000
238.509852	239.003768	43.000000	43.000000
238.753759	239.003768	67.000000	51.000000
239.003768	239.249673	64.000000	61.000000
239.003768	239.503906	55.000000	38.000000
239.003768	239.503906	45.000000	32.000000
239.249673	239.503906	61.000000	52.000000
239.503906	239.751836	62.000000	59.000000
239.503906	239.999766	54.000000	43.000000
239.503906	239.999766	50.000000	36.000000
239.751836	239.999766	69.000000	50.000000
239.999766	240.377985	59.000000	50.000000
239.999766	240.249775	69.000000	56.000000
239.999766	240.506195	43.000000	38.000000
240.249775	240.506195	67.000000	50.000000
240.506195	240.762601	64.000000	57.000000
240.506195	241.025752	55.000000	43.000000
240.506195	241.025752	45.000000	36.000000
240.762601	241.025752	61.000000	48.000000
241.025752	241.273669	62.000000	52.000000
241.025752	241.521599	50.000000	34.000000
241.025752	241.521599	54.000000	40.000000
241.273669	241.521599	61.000000	46.000000
241.521599	241.769529	62.000000	52.000000
241.769529	242.017459	64.000000	45.000000
242.017459	242.282945	66.000000	48.000000
242.282945	242.577062	67.000000	48.000000
242.577062	242.860089	66.000000	42.000000
242.577062	242.860089	69.000000	50.000000
242.577062	244.666143	35.000000	37.000000
242.577062	244.666143	47.000000	44.000000
242.860089	243.130362	59.000000	45.000000
243.130362	243.386768	63.000000	42.000000
243.130362	243.386768	66.000000	50.000000
243.386768	243.632673	59.000000	47.000000
243.632673	243.884774	64.000000	44.000000
243.632673	243.884774	67.000000	52.000000
243.884774	244.155047	59.000000	49.000000
244.155047	244.418212	69.000000	54.000000
244.155047	244.418212	66.000000	45.000000
244.418212	244.666143	59.000000	48.000000
244.666143	244.916151	63.000000	37.000000
244.666143	244.916151	66.000000	45.000000
244.666143	244.916151	84.000000	54.000000
244.916151	245.162057	59.000000	42.000000
244.916151	245.162057	83.000000	50.000000
245.162057	245.409973	64.000000	39.000000
245.162057	245.409973	67.000000	46.000000
245.162057	245.409973	81.000000	54.000000
245.409973	245.668592	59.000000	44.000000
245.409973	245.668592	79.000000	50.000000
245.668592	245.918601	69.000000	48.000000
245.668592	245.918601	66.000000	40.000000
245.668592	246.166531	78.000000	54.000000
245.918601	246.166531	59.000000	43.000000
246.166531	246.414461	63.000000	37.000000
246.166531	246.414461	66.000000	45.000000
246.166531	246.414461	81.000000	54.000000
246.414461	246.660366	59.000000	42.000000
246.414461	246.660366	79.000000	50.000000
246.660366	246.906258	64.000000	39.000000
246.660366	246.906258	67.000000	46.000000
246.660366	246.906258	78.000000	55.000000
246.906258	247.164877	59.000000	44.000000
246.906258	247.164877	76.000000	50.000000
247.164877	247.691569	69.000000	48.000000
247.164877	247.691569	66.000000	40.000000
247.164877	247.691569	75.000000	54.000000
247.691569	247.909324	71.000000	60.000000
247.691569	247.909324	83.000000	71.000000
247.691569	247.909324	47.000000	49.000000
247.691569	247.909324	59.000000	59.000000
247.933518	248.153030	69.000000	56.000000
247.933518	248.153030	81.000000	66.000000
247.933518	248.153030	45.000000	46.000000
247.933518	248.153030	57.000000	55.000000
248.177425	248.400571	67.000000	60.000000
248.177425	248.400571	79.000000	71.000000
248.177425	248.400571	43.000000	49.000000
248.177425	248.400571	55.000000	59.000000
248.425368	248.656132	66.000000	56.000000
248.425368	248.656132	78.000000	67.000000
248.425368	248.656132	42.000000	46.000000
248.425368	248.656132	54.000000	55.000000
248.681774	249.159650	64.000000	62.000000
248.681774	249.159650	76.000000	74.000000
248.681774	249.159650	40.000000	50.000000
248.681774	249.159650	52.000000	60.000000
249.212745	249.674286	64.000000	60.000000
249.212745	249.674286	76.000000	71.000000
249.212745	249.674286	40.000000	46.000000
249.212745	249.674286	52.000000	55.000000
249.725570	250.187111	71.000000	61.000000
249.725570	250.187111	83.000000	73.000000
249.725570	250.187111	47.000000	50.000000
249.725570	250.187111	59.000000	60.000000
250.238395	250.684675	64.000000	60.000000
250.238395	250.684675	76.000000	71.000000
250.238395	250.684675	40.000000	46.000000
250.238395	250.684675	52.000000	55.000000
250.734256	250.953768	71.000000	60.000000
250.734256	250.953768	83.000000	71.000000
250.734256	250.953768	47.000000	49.000000
250.734256	250.953768	59.000000	59.000000
250.978162	251.201309	69.000000	56.000000
250.978162	251.201309	81.000000	66.000000
250.978162	251.201309	45.000000	46.000000
250.978162	251.201309	57.000000	55.000000
251.226106	251.452994	67.000000	60.000000
251.226106	251.452994	79.000000	71.000000
251.226106	251.452994	43.000000	49.000000
251.226106	251.452994	55.000000	59.000000
251.478207	251.712994	66.000000	56.000000
251.478207	251.712994	78.000000	67.000000
251.478207	251.712994	42.000000	46.000000
251.478207	251.712994	54.000000	55.000000
251.739079	252.216955	64.000000	62.000000
251.739079	252.216955	76.000000	74.000000
251.739079	252.216955	40.000000	50.000000
251.739079	252.216955	52.000000	60.000000
252.270049	252.731591	64.000000	60.000000
252.270049	252.731591	76.000000	71.000000
252.270049	252.731591	40.000000	46.000000
252.270049	252.731591	52.000000	55.000000
252.782874	253.244416	71.000000	61.000000
252.782874	253.244416	83.000000	73.000000
252.782874	253.244416	47.000000	50.000000
252.782874	253.244416	59.000000	60.000000
253.295700	253.773576	64.000000	60.000000
253.295700	253.773576	76.000000	71.000000
253.295700	253.773576	40.000000	46.000000
253.295700	253.773576	52.000000	55.000000
253.826670	254.078771	76.000000	50.000000
254.078771	254.337390	74.000000	46.000000
254.337390	254.589491	76.000000	50.000000
254.589491	254.848110	77.000000	47.000000
254.848110	255.360962	79.000000	51.000000
254.848110	255.869428	60.000000	42.000000
255.106728	255.360962	64.000000	39.000000
255.360962	256.123662	79.000000	53.000000
255.360962	255.615195	67.000000	42.000000
255.615195	255.869428	64.000000	39.000000
255.869428	256.380068	59.000000	35.000000
255.869428	256.123662	65.000000	42.000000
256.123662	256.380068	79.000000	50.000000
256.123662	256.380068	62.000000	37.000000
256.380068	256.888548	84.000000	55.000000
256.380068	257.388539	60.000000	42.000000
256.634315	256.888548	64.000000	37.000000
256.888548	257.388539	79.000000	50.000000
256.888548	257.138543	67.000000	42.000000
257.138543	257.388539	64.000000	37.000000
257.388539	257.897166	59.000000	35.000000
257.388539	257.638548	65.000000	42.000000
257.638548	257.897166	62.000000	38.000000
257.897166	258.395172	79.000000	56.000000
257.897166	258.895163	60.000000	46.000000
258.149267	258.395172	64.000000	42.000000
258.395172	259.149410	79.000000	58.000000
258.395172	258.645168	67.000000	46.000000
258.645168	258.895163	64.000000	42.000000
258.895163	259.403643	59.000000	38.000000
258.895163	259.149410	65.000000	46.000000
259.149410	259.403643	79.000000	55.000000
259.149410	259.403643	62.000000	40.000000
259.403643	259.901650	84.000000	60.000000
259.403643	260.397510	60.000000	46.000000
259.655744	259.901650	64.000000	40.000000
259.901650	260.397510	79.000000	55.000000
259.901650	260.149580	67.000000	46.000000
260.149580	260.397510	64.000000	40.000000
260.397510	260.647505	60.000000	46.000000
260.647505	260.915351	64.000000	41.000000
260.781428	260.915351	79.000000	61.000000
260.915351	261.411251	88.000000	70.000000
260.915351	261.911242	58.000000	53.000000
261.165346	261.411251	60.000000	45.000000
261.411251	261.911242	79.000000	55.000000
261.411251	261.661247	64.000000	51.000000
261.661247	261.911242	67.000000	43.000000
261.911242	262.161238	64.000000	52.000000
262.161238	262.422110	60.000000	46.000000
262.291674	262.422110	79.000000	65.000000
262.422110	262.916012	88.000000	74.000000
262.422110	263.409861	57.000000	58.000000
262.672105	262.916012	61.000000	51.000000
262.916012	263.409861	79.000000	61.000000
262.916012	263.161930	64.000000	58.000000
263.161930	263.409861	67.000000	50.000000
263.409861	263.657791	64.000000	58.000000
263.657791	263.918663	61.000000	51.000000
263.788227	263.918663	79.000000	55.000000
263.918663	264.162569	79.000000	60.000000
263.918663	264.902336	57.000000	48.000000
263.918663	264.902336	62.000000	57.000000
264.162569	264.406476	77.000000	58.000000
264.406476	264.654406	76.000000	58.000000
264.654406	264.902336	77.000000	54.000000
264.902336	265.150267	76.000000	58.000000
264.902336	265.398197	56.000000	41.000000
264.902336	265.150267	64.000000	49.000000
265.150267	265.398197	74.000000	55.000000
265.150267	265.398197	65.000000	43.000000
265.398197	265.644102	73.000000	58.000000
265.398197	265.896203	57.000000	44.000000
265.398197	265.896203	64.000000	52.000000
265.644102	265.896203	80.000000	55.000000
265.896203	266.138138	81.000000	58.000000
266.138138	266.384043	80.000000	55.000000
266.384043	266.629948	81.000000	58.000000
266.629948	266.875854	76.000000	55.000000
266.875854	267.119760	79.000000	60.000000
266.875854	268.355388	62.000000	43.000000
266.875854	268.355388	58.000000	43.000000
266.875854	268.355388	68.000000	51.000000
267.119760	267.363667	77.000000	58.000000
267.363667	267.611597	76.000000	58.000000
267.611597	267.859527	77.000000	54.000000
267.859527	268.107458	76.000000	58.000000
268.107458	268.355388	74.000000	55.000000
268.355388	268.599295	81.000000	58.000000
268.355388	268.851396	61.000000	44.000000
268.355388	268.851396	57.000000	44.000000
268.355388	268.851396	69.000000	52.000000
268.599295	268.851396	80.000000	55.000000
268.851396	269.093331	81.000000	58.000000
269.093331	269.341261	76.000000	55.000000
269.341261	269.589191	77.000000	58.000000
269.341261	269.837121	57.000000	37.000000
269.341261	269.837121	62.000000	37.000000
269.341261	269.837121	65.000000	44.000000
269.589191	269.837121	74.000000	55.000000
269.837121	270.081028	81.000000	58.000000
269.837121	270.333129	61.000000	44.000000
269.837121	270.333129	57.000000	44.000000
269.837121	270.333129	64.000000	52.000000
270.081028	270.333129	80.000000	55.000000
270.333129	270.575065	81.000000	58.000000
270.575065	270.820970	76.000000	55.000000
270.820970	271.066875	77.000000	58.000000
270.820970	271.312860	57.000000	37.000000
270.820970	271.312860	62.000000	37.000000
270.820970	271.312860	65.000000	44.000000
271.066875	271.312860	74.000000	49.000000
271.312860	271.562910	69.000000	51.000000
271.312860	271.815265	57.000000	44.000000
271.312860	271.815265	61.000000	44.000000
271.312860	271.815265	64.000000	52.000000
271.562910	271.815265	68.000000	45.000000
271.815265	272.069552	69.000000	51.000000
272.069552	272.325958	68.000000	47.000000
272.325958	272.586589	69.000000	51.000000
272.586589	272.855038	68.000000	44.000000
272.855038	273.138051	66.000000	42.000000
272.855038	273.138051	69.000000	50.000000
272.855038	274.944104	38.000000	37.000000
272.855038	274.944104	50.000000	44.000000
273.138051	273.408324	57.000000	45.000000
273.408324	273.664730	62.000000	42.000000
273.408324	273.664730	66.000000	50.000000
273.664730	273.910635	57.000000	47.000000
273.910635	274.162736	64.000000	44.000000
273.910635	274.162736	67.000000	52.000000
274.162736	274.433009	57.000000	49.000000
274.433009	274.696174	69.000000	54.000000
274.433009	274.696174	66.000000	45.000000
274.696174	274.944104	62.000000	48.000000
274.944104	275.192035	71.000000	42.000000
274.944104	275.192035	74.000000	50.000000
275.192035	275.442030	69.000000	39.000000
275.192035	275.442030	73.000000	47.000000
275.442030	275.696263	67.000000	42.000000
275.442030	275.696263	71.000000	50.000000
275.696263	275.946259	66.000000	39.000000
275.696263	275.946259	69.000000	47.000000
275.946259	276.194189	67.000000	50.000000
275.946259	276.446290	47.000000	53.000000
276.194189	276.446290	62.000000	45.000000
276.446290	276.696299	66.000000	45.000000
276.446290	276.696299	69.000000	53.000000
276.446290	276.959451	45.000000	49.000000
276.696299	276.959451	62.000000	47.000000
276.959451	277.211552	67.000000	45.000000
276.959451	277.211552	71.000000	54.000000
276.959451	277.474703	43.000000	47.000000
277.211552	277.474703	62.000000	47.000000
277.474703	277.737868	69.000000	54.000000
277.474703	277.737868	66.000000	45.000000
277.474703	277.985798	50.000000	53.000000
277.737868	277.985798	62.000000	48.000000
277.985798	278.233729	71.000000	39.000000
277.985798	278.233729	74.000000	47.000000
277.985798	278.233729	86.000000	55.000000
278.233729	278.483724	69.000000	37.000000
278.233729	278.483724	73.000000	44.000000
278.233729	278.483724	85.000000	51.000000
278.483724	278.737957	67.000000	39.000000
278.483724	278.737957	71.000000	47.000000
278.483724	278.737957	83.000000	55.000000
278.737957	278.987953	66.000000	37.000000
278.737957	278.987953	69.000000	44.000000
278.737957	278.987953	81.000000	51.000000
278.987953	279.235883	64.000000	42.000000
278.987953	279.235883	67.000000	47.000000
278.987953	279.487984	79.000000	55.000000
279.235883	279.487984	62.000000	42.000000
279.487984	279.737993	66.000000	42.000000
279.487984	279.737993	69.000000	50.000000
279.487984	280.001145	81.000000	58.000000
279.737993	280.001145	62.000000	44.000000
280.001145	280.253246	67.000000	42.000000
280.001145	280.253246	71.000000	51.000000
280.001145	280.516397	83.000000	59.000000
280.253246	280.516397	62.000000	44.000000
280.516397	280.779562	69.000000	51.000000
280.516397	280.779562	66.000000	42.000000
280.516397	281.027493	81.000000	59.000000
280.779562	281.027493	62.000000	45.000000
281.027493	281.275423	67.000000	42.000000
281.027493	281.275423	71.000000	50.000000
281.275423	281.525418	66.000000	39.000000
281.275423	281.525418	69.000000	47.000000
281.525418	281.779651	64.000000	42.000000
281.525418	281.779651	67.000000	50.000000
281.779651	282.029647	62.000000	39.000000
281.779651	282.029647	66.000000	47.000000
282.029647	282.277577	61.000000	45.000000
282.029647	282.277577	64.000000	50.000000
282.029647	282.529678	45.000000	53.000000
282.277577	282.529678	57.000000	45.000000
282.529678	282.779687	62.000000	45.000000
282.529678	282.779687	69.000000	53.000000
282.529678	283.042839	42.000000	49.000000
282.779687	283.042839	57.000000	47.000000
283.042839	283.294940	62.000000	45.000000
283.042839	283.294940	66.000000	54.000000
283.042839	283.558091	38.000000	47.000000
283.294940	283.558091	57.000000	47.000000
283.558091	283.821256	64.000000	54.000000
283.558091	283.821256	61.000000	45.000000
283.558091	284.069187	45.000000	53.000000
283.821256	284.069187	57.000000	48.000000
284.069187	284.317117	67.000000	39.000000
284.069187	284.317117	71.000000	47.000000
284.069187	284.317117	83.000000	55.000000
284.317117	284.567112	66.000000	37.000000
284.317117	284.567112	69.000000	44.000000
284.317117	284.567112	81.000000	51.000000
284.567112	284.821346	64.000000	39.000000
284.567112	284.821346	67.000000	47.000000
284.567112	284.821346	79.000000	55.000000
284.821346	285.071341	62.000000	37.000000
284.821346	285.071341	66.000000	44.000000
284.821346	285.008845	78.000000	51.000000
285.008845	285.071341	80.000000	48.000000
285.071341	285.317233	61.000000	42.000000
285.071341	285.317233	64.000000	47.000000
285.071341	285.443283	81.000000	63.000000
285.317233	285.569347	57.000000	42.000000
285.506315	285.569347	80.000000	48.000000
285.569347	285.815252	66.000000	42.000000
285.569347	285.815252	69.000000	50.000000
285.569347	285.941303	81.000000	63.000000
285.815252	286.067367	57.000000	44.000000
286.004335	286.067367	80.000000	48.000000
286.067367	286.315297	62.000000	42.000000
286.067367	286.315297	66.000000	51.000000
286.067367	286.441347	81.000000	64.000000
286.315297	286.567411	57.000000	44.000000
286.504379	286.567411	80.000000	48.000000
286.567411	286.830576	64.000000	51.000000
286.567411	286.830576	61.000000	42.000000
286.567411	287.078506	81.000000	64.000000
286.830576	287.078506	69.000000	45.000000
287.078506	288.320652	62.000000	50.000000
287.078506	287.334912	74.000000	64.000000
287.078506	287.334912	59.000000	46.000000
287.334912	287.582842	73.000000	59.000000
287.334912	287.582842	58.000000	41.000000
287.582842	287.826749	74.000000	61.000000
287.582842	287.826749	59.000000	47.000000
287.826749	288.076745	71.000000	54.000000
287.826749	288.076745	55.000000	41.000000
288.076745	288.320652	69.000000	63.000000
288.076745	288.574885	54.000000	48.000000
288.320652	288.574885	57.000000	55.000000
288.574885	289.075198	67.000000	61.000000
288.574885	288.818792	62.000000	54.000000
288.574885	289.075198	52.000000	44.000000
288.818792	289.075198	59.000000	54.000000
289.075198	289.577723	64.000000	61.000000
289.075198	289.319105	61.000000	54.000000
289.075198	289.577723	45.000000	44.000000
289.319105	289.577723	57.000000	51.000000
289.577723	289.946272	62.000000	52.000000
289.577723	289.825653	66.000000	64.000000
289.577723	290.088819	50.000000	49.000000
289.825653	290.088819	69.000000	55.000000
290.088819	290.345238	71.000000	64.000000
290.088819	290.345238	74.000000	64.000000
290.088819	290.345238	86.000000	58.000000
290.345238	290.593168	70.000000	56.000000
290.345238	290.593168	73.000000	56.000000
290.345238	290.593168	85.000000	53.000000
290.593168	290.845269	71.000000	61.000000
290.593168	290.845269	74.000000	61.000000
290.593168	290.845269	86.000000	59.000000
290.845269	291.095264	67.000000	54.000000
290.845269	291.095264	71.000000	54.000000
290.845269	291.095264	83.000000	52.000000
291.095264	291.339171	66.000000	56.000000
291.095264	291.339171	69.000000	66.000000
291.095264	291.593405	81.000000	58.000000
291.339171	291.593405	62.000000	51.000000
291.593405	291.837312	64.000000	54.000000
291.593405	291.837312	67.000000	64.000000
291.593405	292.093717	79.000000	62.000000
291.837312	292.093717	59.000000	51.000000
292.093717	292.337624	61.000000	54.000000
292.093717	292.337624	64.000000	64.000000
292.093717	292.596243	76.000000	59.000000
292.337624	292.596243	57.000000	52.000000
292.596243	292.844173	62.000000	54.000000
292.596243	292.844173	66.000000	64.000000
292.596243	293.098407	74.000000	56.000000
292.844173	293.098407	69.000000	54.000000
293.098407	293.467318	59.000000	50.000000
293.098407	293.342313	69.000000	61.000000
293.098407	293.592322	43.000000	43.000000
293.342313	293.592322	67.000000	51.000000
293.592322	293.838227	64.000000	61.000000
293.592322	294.092461	55.000000	38.000000
293.592322	294.092461	45.000000	32.000000
293.838227	294.092461	61.000000	52.000000
294.092461	294.340391	62.000000	59.000000
294.092461	294.588321	54.000000	43.000000
294.092461	294.588321	50.000000	36.000000
294.340391	294.588321	69.000000	50.000000
294.588321	294.966540	59.000000	50.000000
294.588321	294.838330	69.000000	56.000000
294.588321	295.094749	43.000000	38.000000
294.838330	295.094749	67.000000	50.000000
295.094749	295.351155	64.000000	57.000000
295.094749	295.614307	55.000000	43.000000
295.094749	295.614307	45.000000	36.000000
295.351155	295.614307	61.000000	48.000000
295.614307	296.232851	62.000000	52.000000
295.614307	295.923579	50.000000	34.000000
295.614307	295.923579	54.000000	40.000000
296.232851	296.542137	38.000000	40.000000
297.469968	297.536339	61.000000	64.000000
297.536339	297.602710	64.000000	64.000000
297.602710	298.531908	69.000000	76.000000
297.602710	298.531908	45.000000	59.000000
297.602710	298.531908	57.000000	70.000000
298.531908	299.008095	64.000000	70.000000
298.531908	299.008095	40.000000	53.000000
298.531908	299.008095	52.000000	63.000000
299.008095	299.256025	73.000000	72.000000
299.008095	299.488573	49.000000	48.000000
299.008095	299.488573	61.000000	57.000000
299.256025	299.372299	74.000000	74.000000
299.372299	299.488573	71.000000	70.000000
299.488573	299.728577	69.000000	70.000000
299.488573	299.728577	45.000000	45.000000
299.488573	299.728577	57.000000	53.000000
300.448576	300.688580	73.000000	50.000000
300.688580	300.808582	74.000000	52.000000
300.808582	300.928584	71.000000	46.000000
300.928584	301.420690	69.000000	49.000000
301.420690	301.656912	85.000000	57.000000
301.420690	301.656912	57.000000	40.000000
301.420690	301.656912	66.000000	40.000000
301.902804	302.375248	75.000000	50.000000
301.902804	302.375248	59.000000	40.000000
301.902804	302.375248	69.000000	40.000000
302.375248	303.083915	76.000000	52.000000
302.375248	302.847693	64.000000	40.000000
302.375248	302.847693	68.000000	40.000000
303.083915	303.300450	77.000000	51.000000
303.320137	303.549145	80.000000	57.000000
303.549145	303.785367	78.000000	56.000000
303.785367	304.012644	76.000000	54.000000
304.012644	304.248866	74.000000	53.000000
304.248866	304.485089	73.000000	52.000000
304.485089	304.730994	71.000000	51.000000
304.730994	304.967216	69.000000	51.000000
304.730994	304.967216	52.000000	39.000000
304.967216	305.203438	68.000000	46.000000
304.967216	305.203438	62.000000	33.000000
305.203438	305.430715	76.000000	53.000000
305.203438	305.430715	59.000000	33.000000
305.430715	305.661479	74.000000	51.000000
305.430715	305.661479	62.000000	28.000000
305.661479	305.897702	59.000000	31.000000
305.897702	306.133924	62.000000	29.000000
306.133924	306.370146	71.000000	57.000000
306.133924	306.370146	52.000000	40.000000
306.370146	306.606369	69.000000	53.000000
306.370146	306.606369	61.000000	34.000000
306.606369	306.833632	78.000000	57.000000
306.606369	306.833632	57.000000	34.000000
306.833632	307.066193	76.000000	56.000000
306.833632	307.066193	61.000000	30.000000
307.066193	307.298741	57.000000	32.000000
307.298741	307.534963	61.000000	28.000000
307.534963	307.769335	76.000000	63.000000
307.534963	307.769335	50.000000	42.000000
307.769335	307.996612	74.000000	59.000000
307.769335	307.996612	59.000000	36.000000
307.996612	308.225619	79.000000	62.000000
307.996612	308.225619	54.000000	36.000000
308.225619	308.459991	78.000000	59.000000
308.225619	308.459991	59.000000	34.000000
308.459991	308.694362	54.000000	36.000000
308.694362	308.928734	59.000000	34.000000
308.928734	309.397491	66.000000	51.000000
308.928734	309.397491	50.000000	39.000000
309.397491	309.623051	76.000000	53.000000
309.623051	309.855612	74.000000	51.000000
309.855612	310.088173	73.000000	51.000000
310.088173	310.326273	71.000000	49.000000
310.326273	310.560658	69.000000	51.000000
310.326273	310.795030	52.000000	33.000000
310.326273	310.795030	62.000000	39.000000
310.560658	310.795030	68.000000	48.000000
310.795030	311.271216	69.000000	51.000000
310.795030	311.271216	57.000000	33.000000
310.795030	311.271216	61.000000	39.000000
311.568834	311.628352	71.000000	68.000000
311.628352	311.687871	76.000000	71.000000
311.687871	311.747389	80.000000	74.000000
311.747389	313.153632	83.000000	77.000000
311.747389	311.981760	52.000000	60.000000
311.981760	312.216132	56.000000	52.000000
312.216132	312.450504	59.000000	56.000000
312.450504	312.684875	56.000000	52.000000
312.684875	312.919260	54.000000	56.000000
312.919260	313.153632	52.000000	51.000000
313.153632	313.269020	83.000000	73.000000
313.153632	313.384409	51.000000	60.000000
313.269020	313.384409	81.000000	72.000000
313.384409	313.499798	80.000000	71.000000
313.384409	313.615187	52.000000	50.000000
313.499798	313.615187	78.000000	70.000000
313.615187	313.730575	78.000000	72.000000
313.615187	313.845964	54.000000	50.000000
313.730575	313.845964	76.000000	71.000000
313.845964	313.961353	75.000000	69.000000
313.845964	314.076741	47.000000	51.000000
313.961353	314.076741	73.000000	68.000000
314.076741	314.193927	71.000000	70.000000
314.076741	314.311113	49.000000	54.000000
314.193927	314.311113	69.000000	67.000000
314.311113	314.430163	68.000000	67.000000
314.311113	314.549213	51.000000	51.000000
314.430163	314.549213	69.000000	67.000000
314.549213	314.665487	68.000000	67.000000
314.549213	314.781760	52.000000	60.000000
314.665487	314.781760	71.000000	69.000000
314.781760	314.898034	76.000000	70.000000
314.781760	315.014308	56.000000	52.000000
314.898034	315.014308	80.000000	72.000000
315.014308	315.930390	83.000000	73.000000
315.014308	315.241585	59.000000	52.000000
315.241585	315.468862	56.000000	52.000000
315.468862	315.699626	54.000000	55.000000
315.699626	315.930390	52.000000	52.000000
315.930390	316.045779	83.000000	73.000000
315.930390	316.161168	51.000000	60.000000
316.045779	316.161168	81.000000	72.000000
316.161168	316.276556	80.000000	71.000000
316.161168	316.391945	52.000000	50.000000
316.276556	316.391945	78.000000	70.000000
316.391945	316.507334	78.000000	72.000000
316.391945	316.622723	54.000000	50.000000
316.507334	316.622723	76.000000	71.000000
316.622723	316.738111	75.000000	69.000000
316.622723	316.853500	47.000000	51.000000
316.738111	316.853500	73.000000	68.000000
316.853500	316.970686	71.000000	70.000000
316.853500	317.087872	49.000000	54.000000
316.970686	317.087872	69.000000	67.000000
317.087872	317.206922	68.000000	67.000000
317.087872	317.325971	51.000000	51.000000
317.206922	317.325971	69.000000	67.000000
317.325971	317.442245	68.000000	67.000000
317.325971	317.787526	52.000000	60.000000
317.442245	317.558519	71.000000	64.000000
317.558519	317.673023	69.000000	70.000000
317.673023	317.787526	68.000000	64.000000
317.780848	317.894533	69.000000	68.000000
317.901158	318.014790	71.000000	68.000000
318.014790	318.128422	73.000000	69.000000
318.128422	318.242054	75.000000	70.000000
318.242054	318.357442	76.000000	70.000000
318.357442	318.472831	78.000000	71.000000
318.472831	318.588220	80.000000	72.000000
318.588220	318.702965	81.000000	72.000000
318.702965	318.816597	83.000000	73.000000
318.816597	318.929410	85.000000	74.000000
318.929410	319.041554	87.000000	74.000000
319.041554	319.153026	88.000000	75.000000
319.153026	319.264137	87.000000	72.000000
319.264137	319.375248	85.000000	70.000000
319.375248	319.486358	83.000000	68.000000
319.486358	319.596879	81.000000	65.000000
319.596879	319.707278	80.000000	63.000000
319.707278	319.819502	78.000000	61.000000
319.819502	319.933751	76.000000	59.000000
319.933751	320.049140	75.000000	57.000000
320.049140	320.281687	73.000000	50.000000
320.049140	320.514235	57.000000	38.000000
320.049140	320.514235	66.000000	45.000000
320.397961	320.514235	85.000000	50.000000
320.514235	320.944193	76.000000	54.000000
320.514235	321.557561	59.000000	33.000000
320.514235	321.017015	68.000000	39.000000
320.944193	321.017015	80.000000	50.000000
321.017015	321.557561	75.000000	53.000000
321.017015	321.557561	78.000000	53.000000
321.017015	321.557561	69.000000	39.000000
321.557561	322.098094	76.000000	51.000000
321.557561	322.098094	64.000000	35.000000
321.557561	322.098094	68.000000	42.000000
322.067691	322.608223	52.000000	35.000000
323.111607	323.238704	64.000000	61.000000
323.179186	323.595840	76.000000	74.000000
323.595840	323.713965	66.000000	61.000000
323.655372	324.065522	78.000000	70.000000
324.065522	324.183164	67.000000	61.000000
324.124115	324.606229	79.000000	70.000000
324.606229	325.078674	71.000000	56.000000
324.606229	324.842451	54.000000	47.000000
324.842451	325.078674	61.000000	39.000000
325.078674	325.543796	70.000000	52.000000
325.078674	325.311235	66.000000	39.000000
325.311235	325.543796	64.000000	39.000000
325.543796	325.778167	62.000000	39.000000
325.778167	326.020103	61.000000	39.000000
325.899135	326.020103	70.000000	51.000000
326.020103	326.492547	73.000000	57.000000
326.020103	326.256325	54.000000	47.000000
326.256325	326.492547	62.000000	42.000000
326.492547	326.954075	71.000000	56.000000
326.492547	326.723311	66.000000	42.000000
326.723311	326.954075	62.000000	42.000000
326.954075	327.190298	61.000000	42.000000
327.190298	327.426520	59.000000	42.000000
327.308409	327.426520	71.000000	63.000000
327.426520	327.891763	74.000000	66.000000
327.426520	327.655541	54.000000	56.000000
327.655541	327.891763	58.000000	47.000000
327.891763	328.364208	73.000000	60.000000
327.891763	328.127985	64.000000	47.000000
328.127985	328.364208	61.000000	47.000000
328.364208	328.600430	59.000000	47.000000
328.600430	328.836652	58.000000	47.000000
328.718541	328.836652	73.000000	68.000000
328.836652	329.063929	76.000000	72.000000
328.836652	329.302029	59.000000	57.000000
329.063929	329.302029	74.000000	68.000000
329.302029	329.532807	77.000000	72.000000
329.532807	329.769029	76.000000	67.000000
329.769029	330.001590	79.000000	70.000000
330.001590	330.237812	77.000000	66.000000
330.237812	330.704798	69.000000	56.000000
330.237812	330.468576	52.000000	47.000000
330.468576	330.704798	59.000000	39.000000
330.704798	331.164556	68.000000	52.000000
330.704798	330.933792	64.000000	39.000000
330.933792	331.164556	62.000000	39.000000
331.164556	331.398928	60.000000	39.000000
331.398928	331.640863	59.000000	39.000000
331.519896	331.640863	68.000000	51.000000
331.640863	332.113308	71.000000	57.000000
331.640863	331.877086	52.000000	47.000000
331.877086	332.113308	60.000000	42.000000
332.113308	332.574836	69.000000	56.000000
332.113308	332.344072	64.000000	42.000000
332.344072	332.574836	60.000000	42.000000
332.574836	332.811058	59.000000	42.000000
332.811058	333.047280	57.000000	42.000000
332.929169	333.047280	69.000000	63.000000
333.047280	333.519712	72.000000	66.000000
333.047280	333.283489	52.000000	56.000000
333.283489	333.519712	56.000000	47.000000
333.519712	333.984847	71.000000	60.000000
333.519712	333.752286	62.000000	47.000000
333.752286	333.984847	59.000000	47.000000
333.984847	334.221070	57.000000	47.000000
334.221070	334.457292	56.000000	47.000000
334.339181	334.457292	71.000000	68.000000
334.457292	334.688069	74.000000	72.000000
334.457292	335.393169	57.000000	57.000000
334.688069	334.926169	72.000000	68.000000
334.926169	335.156946	71.000000	72.000000
335.156946	335.393169	69.000000	67.000000
335.393169	335.567593	81.000000	73.000000
335.393169	335.861939	43.000000	69.000000
335.393169	335.861939	55.000000	69.000000
335.625730	335.802890	81.000000	70.000000
335.861939	336.092716	83.000000	78.000000
335.861939	336.801383	41.000000	72.000000
335.861939	336.801383	53.000000	72.000000
336.092716	336.328938	81.000000	78.000000
336.328938	336.565161	79.000000	77.000000
336.565161	336.801383	77.000000	75.000000
336.801383	337.037605	76.000000	79.000000
337.037605	337.294011	75.000000	75.000000
337.294011	338.231511	84.000000	81.000000
337.294011	337.528396	57.000000	61.000000
337.294011	338.719325	54.000000	61.000000
337.528396	337.762768	56.000000	42.000000
337.762768	337.997139	57.000000	46.000000
337.997139	338.231511	60.000000	41.000000
338.231511	338.719325	75.000000	55.000000
338.231511	338.475418	59.000000	46.000000
338.475418	338.719325	57.000000	41.000000
338.719325	339.422453	76.000000	55.000000
338.719325	339.188081	52.000000	57.000000
338.719325	339.188081	56.000000	57.000000
339.422453	339.543421	78.000000	57.000000
339.543421	339.664388	76.000000	46.000000
339.664388	339.782499	76.000000	55.000000
339.782499	339.900611	74.000000	53.000000
339.900611	340.022557	73.000000	52.000000
340.022557	340.152993	71.000000	51.000000
340.152993	340.219364	61.000000	64.000000
340.219364	340.285736	64.000000	64.000000
340.285736	341.214934	69.000000	76.000000
340.285736	341.214934	45.000000	59.000000
340.285736	341.214934	57.000000	70.000000
341.214934	341.691120	64.000000	70.000000
341.214934	341.691120	40.000000	53.000000
341.214934	341.691120	52.000000	63.000000
341.691120	341.939051	73.000000	72.000000
341.691120	342.171598	49.000000	48.000000
341.691120	342.171598	61.000000	57.000000
341.939051	342.055324	74.000000	74.000000
342.055324	342.171598	71.000000	70.000000
342.171598	342.411602	69.000000	70.000000
342.171598	342.411602	45.000000	45.000000
342.171598	342.411602	57.000000	53.000000
343.131602	343.368763	73.000000	50.000000
343.368763	343.488765	74.000000	52.000000
343.488765	343.608767	71.000000	46.000000
343.608767	344.100872	69.000000	49.000000
344.100872	344.337094	85.000000	57.000000
344.100872	344.337094	57.000000	40.000000
344.100872	344.337094	66.000000	40.000000
344.582986	345.055431	75.000000	50.000000
344.582986	345.055431	59.000000	40.000000
344.582986	345.055431	69.000000	40.000000
345.055431	345.764098	76.000000	52.000000
345.055431	345.527875	64.000000	40.000000
345.055431	345.527875	68.000000	40.000000
345.764098	345.980633	77.000000	51.000000
346.000320	346.227597	80.000000	57.000000
346.227597	346.463819	78.000000	56.000000
346.463819	346.691096	76.000000	54.000000
346.691096	346.927319	74.000000	53.000000
346.927319	347.156326	73.000000	52.000000
347.156326	347.402231	71.000000	51.000000
347.402231	347.638453	69.000000	51.000000
347.402231	347.638453	52.000000	39.000000
347.638453	347.867460	68.000000	46.000000
347.638453	347.867460	62.000000	33.000000
347.867460	348.094738	76.000000	53.000000
347.867460	348.094738	59.000000	33.000000
348.094738	348.325502	74.000000	51.000000
348.094738	348.325502	62.000000	28.000000
348.325502	348.561724	59.000000	31.000000
348.561724	348.797946	62.000000	29.000000
348.797946	349.034169	71.000000	57.000000
348.797946	349.034169	52.000000	40.000000
349.034169	349.266730	69.000000	53.000000
349.034169	349.266730	61.000000	34.000000
349.266730	349.493993	78.000000	57.000000
349.266730	349.493993	57.000000	34.000000
349.493993	349.726554	76.000000	56.000000
349.493993	349.726554	61.000000	30.000000
349.726554	349.959102	57.000000	32.000000
349.959102	350.195324	61.000000	28.000000
350.195324	350.429696	71.000000	63.000000
350.195324	350.429696	52.000000	42.000000
350.429696	350.673603	69.000000	59.000000
350.429696	350.673603	61.000000	36.000000
350.673603	350.902610	81.000000	62.000000
350.673603	350.902610	57.000000	36.000000
350.902610	351.136982	79.000000	59.000000
350.902610	351.136982	61.000000	34.000000
351.136982	351.371353	57.000000	36.000000
351.371353	351.605725	61.000000	34.000000
351.605725	351.838286	79.000000	55.000000
351.605725	352.074508	50.000000	28.000000
351.605725	352.074508	57.000000	28.000000
351.605725	352.074508	62.000000	34.000000
351.838286	352.074508	78.000000	52.000000
352.074508	352.310730	76.000000	51.000000
352.310730	352.546953	74.000000	50.000000
352.546953	352.783175	73.000000	49.000000
352.783175	353.029080	71.000000	47.000000
353.029080	353.152033	76.000000	49.000000
353.029080	353.384580	49.000000	40.000000
353.152033	353.210170	78.000000	45.000000
353.210170	353.268306	76.000000	45.000000
353.268306	353.326443	74.000000	45.000000
353.326443	353.384580	76.000000	45.000000
353.384580	353.522191	78.000000	52.000000
353.384580	353.522191	50.000000	33.000000
353.522191	354.009991	69.000000	51.000000
353.522191	354.493433	52.000000	38.000000
353.522191	354.009991	61.000000	38.000000
354.009991	354.493433	68.000000	48.000000
354.009991	354.493433	59.000000	32.000000
354.374397	354.433915	69.000000	66.000000
354.433915	354.493433	73.000000	67.000000
354.493433	354.962176	76.000000	67.000000
354.493433	354.727805	57.000000	54.000000
354.727805	354.962176	61.000000	46.000000
354.962176	355.896055	76.000000	69.000000
354.962176	355.194737	64.000000	50.000000
355.194737	355.427298	61.000000	46.000000
355.427298	355.661683	59.000000	50.000000
355.661683	355.896055	57.000000	45.000000
355.896055	356.011444	76.000000	65.000000
355.896055	356.126832	56.000000	54.000000
356.011444	356.126832	74.000000	64.000000
356.126832	356.240464	73.000000	63.000000
356.126832	356.354096	57.000000	45.000000
356.240464	356.354096	71.000000	63.000000
356.354096	356.468613	71.000000	64.000000
356.354096	356.583117	59.000000	45.000000
356.468613	356.583117	69.000000	63.000000
356.583117	356.697620	68.000000	62.000000
356.583117	356.812124	52.000000	45.000000
356.697620	356.812124	66.000000	61.000000
356.812124	356.929310	64.000000	63.000000
356.812124	357.046495	54.000000	48.000000
356.929310	357.046495	62.000000	60.000000
357.046495	357.165545	61.000000	60.000000
357.046495	357.284595	56.000000	45.000000
357.165545	357.284595	62.000000	60.000000
357.284595	357.400869	61.000000	60.000000
357.284595	357.517143	57.000000	54.000000
357.400869	357.517143	64.000000	62.000000
357.517143	357.633417	69.000000	63.000000
357.517143	357.749691	61.000000	46.000000
357.633417	357.749691	73.000000	64.000000
357.749691	358.435009	76.000000	65.000000
357.749691	357.976968	64.000000	46.000000
357.976968	358.204245	61.000000	46.000000
358.204245	358.435009	59.000000	49.000000
358.435009	358.665773	88.000000	65.000000
358.435009	358.665773	57.000000	46.000000
358.665773	358.779405	88.000000	70.000000
358.665773	358.893037	56.000000	52.000000
358.779405	358.893037	86.000000	70.000000
358.893037	359.007540	85.000000	69.000000
358.893037	359.122044	57.000000	44.000000
359.007540	359.122044	83.000000	69.000000
359.122044	359.236561	83.000000	68.000000
359.122044	359.351064	59.000000	51.000000
359.236561	359.351064	81.000000	67.000000
359.351064	359.465568	80.000000	67.000000
359.351064	359.580071	52.000000	44.000000
359.465568	359.580071	78.000000	66.000000
359.580071	359.697257	76.000000	66.000000
359.580071	359.814443	54.000000	50.000000
359.697257	359.814443	74.000000	65.000000
359.814443	359.933493	73.000000	65.000000
359.814443	360.052543	56.000000	46.000000
359.933493	360.052543	74.000000	64.000000
360.052543	360.168817	73.000000	63.000000
360.052543	360.517638	57.000000	51.000000
360.168817	360.285090	76.000000	64.000000
360.285090	360.401364	74.000000	60.000000
360.401364	360.517638	73.000000	61.000000
360.517638	360.631270	74.000000	62.000000
360.517638	360.972166	54.000000	40.000000
360.517638	360.972166	57.000000	48.000000
360.631270	360.744902	76.000000	63.000000
360.744902	360.858534	78.000000	64.000000
360.858534	360.972166	80.000000	66.000000
360.972166	361.087554	81.000000	67.000000
360.972166	361.433077	50.000000	44.000000
360.972166	361.433077	54.000000	44.000000
360.972166	361.433077	57.000000	52.000000
361.087554	361.202943	83.000000	68.000000
361.202943	361.318332	85.000000	70.000000
361.318332	361.433077	86.000000	71.000000
361.433077	361.546709	88.000000	72.000000
361.433077	361.883138	49.000000	47.000000
361.433077	361.883138	52.000000	47.000000
361.433077	361.883138	57.000000	56.000000
361.546709	361.659522	86.000000	71.000000
361.659522	361.771666	85.000000	69.000000
361.771666	361.883138	83.000000	68.000000
361.883138	361.994249	81.000000	66.000000
361.994249	362.105359	80.000000	65.000000
362.105359	362.216470	78.000000	63.000000
362.216470	362.326990	76.000000	62.000000
362.326990	362.437390	74.000000	60.000000
362.437390	362.549614	73.000000	59.000000
362.549614	362.663863	71.000000	57.000000
362.663863	362.800226	69.000000	56.000000
362.800226	362.863245	80.000000	59.000000
362.800226	363.304469	50.000000	38.000000
362.800226	363.304469	59.000000	45.000000
362.863245	362.926277	78.000000	55.000000
362.926277	362.989309	80.000000	59.000000
362.989309	363.052341	78.000000	55.000000
363.052341	363.115373	76.000000	59.000000
363.115373	363.178405	78.000000	55.000000
363.178405	363.241437	80.000000	55.000000
363.241437	363.304469	81.000000	55.000000
363.304469	363.768585	69.000000	59.000000
363.304469	364.391864	52.000000	33.000000
363.304469	363.841407	61.000000	39.000000
363.768585	363.841407	73.000000	50.000000
363.841407	364.391864	68.000000	53.000000
363.841407	364.391864	71.000000	53.000000
363.841407	364.391864	62.000000	39.000000
364.391864	365.010422	69.000000	51.000000
364.391864	365.010422	57.000000	35.000000
364.391864	365.010422	61.000000	42.000000
365.010422	365.628980	45.000000	35.000000
