OnsetTime	OffsetTime	MidiPitch	Velocity
0.500004	0.959132	64	50
0.500004	0.959132	79	79
0.728609	1.18467	60	36
0.959132	1.4102	64	43
0.959132	1.85946	79	71
1.18467	1.63573	60	38
1.4102	1.85224	64	51
1.63573	1.85946	60	40
1.63573	1.85946	77	71
1.74399	1.85224	76	69
1.85224	2.28526	64	45
1.85224	2.28526	76	70
1.96049	2.28526	74	64
2.06875	2.28526	60	43
2.06875	2.28526	72	67
2.177	2.28526	71	66
2.28526	2.72943	64	51
2.28526	2.45182	74	47
2.36854	2.5351	72	49
2.45182	2.61839	74	55
2.50734	2.95152	60	45
2.5351	2.70167	72	52
2.61839	2.78495	74	57
2.70167	2.86824	72	51
2.72943	3.16803	64	51
2.78495	2.95152	74	59
2.86824	3.19042	72	56
2.95152	3.19042	60	40
2.95152	3.19042	74	62
3.05977	3.19042	76	63
3.16803	3.61593	64	42
3.16803	4.07302	67	69
3.39198	3.83516	60	28
3.61593	4.05439	64	33
3.83516	4.07302	60	27
4.05439	4.50146	64	51
4.05439	4.27792	79	77
4.27792	4.72501	60	36
4.27792	4.50146	79	73
4.50146	4.94856	64	43
4.50146	5.40665	79	69
4.72501	5.17211	60	36
4.94856	5.40665	64	43
5.17211	5.40665	60	36
5.17211	5.40665	77	64
5.28036	5.38862	76	61
5.38862	5.82533	65	40
5.38862	5.82533	76	64
5.49687	5.82163	74	60
5.60512	5.82533	60	36
5.60512	5.82533	72	61
5.71338	5.82533	71	60
5.82163	6.26581	64	38
5.82163	5.9882	74	48
5.90491	6.07148	72	46
5.9882	6.15476	74	50
6.04372	6.48789	60	34
6.07148	6.23804	72	49
6.15476	6.32133	74	52
6.23804	6.40461	72	54
6.26581	6.7044	64	39
6.32133	6.48789	74	54
6.40461	6.72849	72	52
6.48789	6.72849	60	33
6.48789	6.72849	74	57
6.59615	6.72849	76	61
6.7044	7.14903	64	34
6.7044	7.58443	67	62
6.92672	7.36673	60	27
7.14903	7.58443	64	31
7.36673	7.58443	60	27
7.58443	7.79872	65	34
7.58443	7.69157	69	54
7.79872	8.013	60	29
7.79872	7.90586	72	53
8.013	8.21792	65	34
8.013	8.11546	77	54
8.21792	8.44725	60	30
8.21792	8.33258	81	52
8.44725	8.87946	65	34
8.44725	9.31089	84	58
8.66335	9.09469	60	26
8.87946	9.31089	65	31
9.09469	9.31089	60	26
9.31089	9.52273	64	36
9.31089	9.41681	67	56
9.52273	9.73457	60	32
9.52273	9.62865	72	54
9.73457	9.93813	64	36
9.73457	9.83635	76	56
9.93813	10.164	60	30
9.93813	10.0511	79	53
10.164	10.5962	64	36
10.164	11.0284	84	61
10.3801	10.8123	60	26
10.5962	11.0284	64	32
10.8123	11.0284	60	27
10.9204	11.0284	67	63
11.0284	11.4606	60	57
11.0284	11.4606	64	57
11.0284	12.3251	79	83
11.2445	11.6767	55	50
11.4606	11.9037	60	57
11.4606	11.9037	64	57
11.6767	11.9037	55	50
11.8928	12.3251	59	54
11.8928	12.3251	62	54
12.1089	12.3413	55	46
12.3251	12.7573	59	50
12.3251	12.7573	62	50
12.3251	12.3791	79	68
12.3791	12.6492	77	60
12.4331	12.7573	79	68
12.4872	12.5412	76	61
12.5412	12.7573	55	46
12.5412	12.7573	76	76
12.6492	12.7573	77	71
12.7573	13.6403	60	48
12.7573	13.6637	75	78
12.9823	13.6637	48	43
13.2073	13.6637	52	48
13.2073	13.6637	76	76
13.4238	13.6637	55	43
13.6403	14.4913	60	57
13.8568	14.2823	64	47
14.0733	14.4913	67	52
14.2823	14.4913	64	46
14.4913	14.915	65	37
14.4913	14.8091	69	57
14.7031	15.1268	60	28
14.7031	15.0209	72	57
14.8091	15.3831	69	52
14.915	15.3387	65	37
14.915	15.2327	77	57
15.0209	15.3831	72	51
15.1268	15.3831	60	29
15.1268	15.3831	81	55
15.2327	15.3831	77	50
15.3387	15.7833	65	37
15.3387	16.2127	84	63
15.561	15.998	60	29
15.7833	16.2127	65	33
15.998	16.2127	60	29
16.2127	16.6364	64	37
16.2127	16.5305	67	59
16.4246	16.8482	60	29
16.4246	16.7423	72	59
16.5305	17.0914	67	53
16.6364	17.0601	64	37
16.6364	16.9542	76	59
16.7423	17.0914	72	52
16.8482	17.0914	60	28
16.8482	17.0914	79	57
16.9542	17.0914	76	50
17.0601	17.5016	64	37
17.0601	17.934	84	63
17.2809	17.7178	60	27
17.5016	17.934	64	32
17.7178	17.934	60	29
17.934	18.1473	60	48
17.934	18.3606	64	48
17.934	18.1473	81	85
18.1473	18.3606	55	42
18.1473	18.3606	79	74
18.3606	18.5739	60	45
18.3606	18.7872	64	45
18.3606	18.4672	77	79
18.5739	18.7872	55	40
18.5739	18.6805	76	73
18.7872	19.0004	62	48
18.7872	19.2137	65	48
18.7872	19.0004	76	85
19.0004	19.2137	55	42
19.0004	19.2137	74	73
19.2137	19.427	62	45
19.2137	19.6403	65	45
19.2137	19.3204	72	79
19.427	19.6403	55	40
19.427	19.5337	71	73
19.6403	20.5051	60	56
19.6403	20.5051	64	56
19.6403	19.77	72	82
19.7484	19.8781	67	69
19.8565	19.9862	69	70
19.9646	20.0943	71	68
20.0727	20.2024	72	73
20.1808	20.3105	74	72
20.2889	20.4186	76	76
20.397	20.5267	77	74
20.5051	20.6348	79	77
20.6132	20.7429	81	72
20.7212	20.851	83	77
20.8293	20.9374	84	71
20.9374	21.0499	79	75
21.1624	21.2749	79	72
21.3874	21.8374	55	45
21.3874	21.843	64	45
21.4999	21.7249	79	54
21.6124	21.843	81	54
21.7249	21.843	79	51
21.8374	22.2873	55	41
21.8374	22.3192	62	41
21.9499	22.1748	77	54
22.0624	22.3192	79	54
22.1748	22.3192	77	51
22.2873	22.7373	55	46
22.2873	22.7561	60	46
22.3998	22.6248	76	54
22.5123	22.7561	77	54
22.6248	22.7561	76	50
22.7373	23.1873	55	41
22.7373	23.1873	59	41
22.8498	23.0748	74	54
22.9623	23.1085	76	54
23.0748	23.1873	74	53
23.1873	24.0533	60	58
23.1873	23.3172	72	79
23.2955	23.4254	67	72
23.4038	23.5337	69	76
23.512	23.6419	71	73
23.6203	23.7502	72	79
23.7286	23.8585	74	75
23.8368	23.9667	76	80
23.9451	24.075	77	74
24.0533	24.1832	79	78
24.1616	24.2915	81	74
24.2698	24.3997	83	79
24.3781	24.4863	84	72
24.4863	24.5988	79	75
24.7113	24.8238	79	72
24.9363	25.3863	55	48
24.9363	25.3938	64	48
25.0488	25.2738	79	54
25.1613	25.3938	81	54
25.2738	25.3938	79	51
25.3863	25.8362	55	45
25.3863	25.8569	62	45
25.4988	25.7237	77	54
25.6113	25.8569	79	54
25.7237	25.8569	77	50
25.8362	26.2862	55	47
25.8362	26.3068	60	47
25.9487	26.1737	76	54
26.0612	26.3068	77	54
26.1737	26.3068	76	51
26.2862	26.7362	55	45
26.2862	26.7362	59	45
26.3987	26.6237	74	54
26.5112	26.6499	76	54
26.6237	26.7362	74	51
26.7362	26.8591	48	58
26.7362	27.4149	72	81
26.9819	27.1984	60	64
27.1984	27.4149	59	56
27.4149	27.6315	58	56
27.4149	27.5232	74	73
27.5232	27.6315	76	68
27.6315	27.7469	57	59
27.6315	27.7469	77	82
27.8624	28.079	57	57
27.8624	28.2955	77	79
28.079	28.2955	55	57
28.2955	28.512	53	54
28.2955	28.4037	79	76
28.4037	28.512	81	71
28.512	28.7285	52	57
28.512	28.7285	79	83
28.7285	28.945	76	78
28.945	29.17	48	57
28.945	29.0575	84	81
29.17	29.2825	84	79
29.395	29.5036	86	78
29.5036	29.6123	84	71
29.6123	29.721	83	74
29.721	29.8297	81	68
29.8297	30.3203	48	48
29.8297	30.3203	60	48
29.8297	29.9444	81	69
29.9444	30.0591	79	63
30.0591	30.1897	77	67
30.1897	30.3203	76	64
30.3203	31.2087	55	48
30.3203	31.0773	64	48
30.3203	31.0773	79	68
30.9866	31.2087	60	54
30.9866	31.2087	76	67
31.2087	31.6602	59	48
31.2087	31.6602	74	61
31.4409	31.6602	43	65
31.6602	31.8794	47	72
31.8794	32.1237	50	69
32.1237	32.5762	55	45
32.1237	32.5762	73	60
32.3472	32.5762	59	43
32.3472	32.5762	74	56
32.5708	32.7873	62	41
32.5708	32.679	72	55
32.679	32.7873	71	52
32.7873	32.8955	69	55
32.8955	33.0038	67	53
33.0038	33.4816	55	45
33.0038	33.4816	73	61
33.2273	33.4816	59	43
33.2273	33.4816	74	59
33.4509	33.6674	62	41
33.4509	33.5591	72	55
33.5591	33.6674	71	52
33.6674	33.7895	69	55
33.7895	33.9117	67	53
33.9117	34.8176	55	44
33.9117	34.838	75	64
34.1381	34.5911	60	40
34.1381	34.3646	76	60
34.3646	34.838	64	43
34.3646	34.5911	76	63
34.5911	34.838	60	40
34.5911	34.8176	76	57
34.8176	35.5751	55	44
34.8176	35.5751	76	63
35.0399	35.4755	60	40
35.2622	35.5751	64	43
35.4755	36.1242	60	40
35.5822	36.7528	69	64
35.6888	36.5596	54	57
35.6888	36.7528	81	82
35.9065	36.7528	57	54
36.1242	36.7528	60	49
36.3419	36.7528	79	72
36.4145	36.7528	78	69
36.4871	36.7528	76	66
36.5596	36.7986	54	57
36.5596	36.7986	74	80
36.7986	37.0265	57	54
36.7986	36.9126	86	75
37.0265	37.2545	60	51
37.0265	37.1405	86	78
37.2545	37.3747	86	74
37.4949	38.3912	55	57
37.4949	38.1869	86	85
37.7207	38.3912	59	51
37.9466	38.1869	62	53
38.0668	38.3071	83	70
38.1869	38.3912	62	50
38.1869	38.3912	86	73
38.3071	38.4273	83	70
38.4273	38.6532	55	57
38.4273	38.879	79	72
38.6532	38.879	59	39
38.879	38.992	62	42
39.1049	39.2178	62	37
39.3308	39.7988	55	44
39.3308	39.7988	73	60
39.5566	39.7988	59	41
39.5566	39.7988	74	58
39.7825	39.999	62	41
39.7825	39.8908	72	54
39.8908	39.999	71	51
39.999	40.1073	69	54
40.1073	40.2155	67	52
40.2155	40.6795	55	44
40.2155	40.6795	73	54
40.3266	40.5487	74	53
40.4376	40.6795	59	41
40.4376	40.6795	76	55
40.5487	40.6795	74	57
40.6597	40.8762	62	41
40.6597	40.768	72	56
40.768	40.8762	71	55
40.8762	40.9983	69	54
40.9983	41.1205	67	54
41.1205	42.0358	55	43
41.1205	42.0434	75	64
41.3493	41.807	60	40
41.3493	41.5781	76	63
41.5781	42.0434	64	40
41.5781	41.807	76	63
41.807	42.0434	60	40
41.807	42.0358	76	60
42.0358	42.9227	55	45
42.0358	42.9227	76	63
42.263	42.7065	60	38
42.4903	42.9227	64	42
42.7065	42.9227	60	40
42.9227	44.6522	54	52
42.9227	44.6522	57	52
42.9227	44.6522	60	52
42.9227	44.6522	62	62
42.9227	43.0524	81	77
43.0308	43.1605	83	71
43.1389	43.2686	84	77
43.2469	43.3767	83	72
43.355	43.4848	81	78
43.4631	43.5928	79	74
43.5712	43.7009	78	78
43.6793	43.809	76	73
43.7874	43.9171	74	73
43.8955	44.0252	78	75
44.0036	44.1333	81	77
44.1117	44.2414	79	72
44.2198	44.3495	78	75
44.3279	44.4576	76	72
44.436	44.5657	74	74
44.5441	44.6748	72	67
44.6522	44.8032	55	61
44.6522	44.8786	71	78
44.8032	44.9541	59	54
44.9541	45.1051	67	51
45.1051	45.5834	57	61
45.1051	45.2184	74	67
45.1618	45.275	72	63
45.2184	45.5581	74	67
45.2561	45.5834	60	53
45.275	45.4449	72	63
45.3316	45.5834	71	76
45.4071	45.5834	67	50
45.4449	45.5834	72	72
45.5581	46.1355	59	61
45.5581	46.4597	74	81
45.7025	46.4597	62	57
45.8468	46.2798	67	49
45.9911	46.4597	55	61
46.1355	46.4597	59	48
46.2798	46.4597	67	45
46.2798	46.4597	76	53
46.3623	46.4597	78	53
46.4345	46.8675	60	43
46.4345	46.8675	79	61
46.5788	46.8675	64	40
46.7232	46.8675	67	37
46.8675	47.3005	60	43
46.8675	47.1923	79	56
47.0118	47.3096	64	40
47.1562	47.3096	67	38
47.1923	47.3005	79	54
47.3005	47.7336	60	43
47.3005	47.7372	79	56
47.4449	47.7372	64	40
47.5892	47.7372	67	38
47.7336	48.1052	60	43
47.7336	48.1052	78	55
47.8418	48.1052	76	52
47.8779	48.1052	64	41
47.9501	48.1052	74	53
48.0222	48.1666	67	39
48.0583	48.1666	72	51
48.1666	48.3146	55	57
48.1666	48.3887	71	77
48.3146	48.4627	59	50
48.4627	48.9069	67	50
48.6108	49.0766	57	57
48.6108	48.7218	74	68
48.6663	48.7773	72	63
48.7218	49.0549	74	68
48.7588	49.0766	60	51
48.7773	48.9439	72	63
48.8329	49.0766	71	74
48.9069	49.0766	67	48
48.9439	49.0766	72	72
49.0549	49.6323	59	57
49.0549	49.936	74	82
49.1993	49.936	62	52
49.3436	49.7766	67	46
49.488	49.936	55	57
49.6323	49.936	59	50
49.7766	49.936	67	47
49.7766	49.936	76	53
49.8563	49.936	78	51
49.936	50.369	60	38
49.936	50.369	79	61
50.0803	50.3726	64	36
50.2247	50.3726	67	36
50.369	50.802	60	38
50.369	50.6938	79	55
50.5133	50.8219	64	36
50.6577	50.8219	67	36
50.6938	50.802	79	54
50.802	51.2351	60	45
50.802	51.2423	79	55
50.9464	51.2423	64	43
51.0907	51.2423	67	40
51.2351	51.6681	60	45
51.2351	51.6681	78	54
51.3433	51.6681	76	53
51.3794	51.6681	64	44
51.4516	51.6681	74	54
51.5237	51.6681	67	41
51.5598	51.6681	72	50
51.6681	51.9006	55	61
51.6681	51.7843	71	79
51.9006	52.0305	79	70
52.0089	52.1388	81	72
52.1171	52.247	83	76
52.2254	52.3553	81	72
52.3336	52.4635	79	77
52.4419	52.5718	78	72
52.5501	52.7671	48	61
52.5501	52.68	76	77
52.6584	52.7889	74	72
52.7671	52.8982	72	77
52.8763	53.008	71	72
52.9859	53.1184	69	74
53.0963	53.2293	67	72
53.2071	53.3407	66	75
53.3184	53.4552	64	69
53.4306	53.6764	50	63
53.4306	53.6764	62	81
53.9221	54.846	51	53
53.9221	54.846	54	53
53.9221	54.846	57	63
53.9221	54.846	60	89
54.846	55.308	52	40
54.846	55.308	55	48
54.846	55.308	59	72
55.308	55.7555	48	36
55.308	55.7555	52	43
55.539	55.6472	57	55
55.7555	55.8637	60	55
55.972	56.0803	64	53
56.1885	56.405	68	55
56.405	56.6215	69	53
56.6215	56.8474	72	55
56.8474	57.0733	76	54
57.0733	57.3058	76	63
57.3058	57.5384	67	55
57.5384	58.8921	50	44
57.5384	58.0163	59	44
57.5384	58.8921	67	55
58.0035	58.8921	60	44
58.4421	58.8921	66	56
58.4421	58.8921	71	56
58.6671	58.8921	69	54
58.8921	59.1246	55	46
58.8921	59.3572	59	46
58.8921	59.3572	67	54
59.3572	59.5898	43	44
59.8223	60.0388	74	75
60.0388	60.2553	71	67
60.2553	60.4718	79	54
60.4718	60.5815	78	53
60.6911	60.8008	76	51
60.9104	61.0201	74	49
61.1297	61.2394	72	48
61.349	61.4587	71	50
61.5683	61.7904	69	53
62.0125	62.2346	71	54
62.4567	62.6802	74	58
62.6802	62.9038	73	54
62.9038	63.3509	54	40
62.9038	63.7839	62	40
62.9038	63.1273	72	51
63.3509	63.7839	55	43
63.3509	63.5674	71	51
63.5674	63.7839	72	54
63.7839	64.0004	74	57
64.0004	64.1087	75	59
64.2169	65.0913	48	43
64.2169	65.0913	55	43
64.2169	64.328	78	48
64.2724	64.3835	76	49
64.328	64.439	78	51
64.3835	64.4945	76	54
64.439	64.55	78	56
64.4945	64.7629	76	58
64.55	64.7629	78	58
64.6583	64.7666	79	68
64.8748	64.9831	78	64
65.0913	65.1996	76	63
65.3078	65.4163	74	59
65.5253	65.9732	49	43
65.5253	65.9732	52	43
65.5253	65.6342	72	60
65.7436	65.8607	71	56
65.9732	66.8732	50	43
65.9732	66.4232	55	43
65.9732	66.3613	74	64
66.3107	66.4232	71	59
66.4232	66.8732	54	41
66.4232	66.6482	69	55
66.8732	67.198	62	77
66.8732	67.198	74	86
67.198	67.2521	64	70
67.198	67.2521	76	81
67.2521	67.3062	66	66
67.2521	67.3062	78	78
67.3062	67.5227	67	71
67.3062	67.5227	79	86
67.5227	67.631	66	56
67.5227	67.631	78	62
67.7392	67.8475	64	56
67.7392	67.8475	76	62
67.9557	68.064	62	52
67.9557	68.064	74	58
68.1722	68.2805	60	56
68.1722	68.2805	72	62
68.3888	68.497	59	52
68.3888	68.497	71	57
68.6053	68.8259	57	57
68.6053	68.8259	69	63
69.0466	69.2673	59	62
69.0466	69.2673	71	70
69.488	69.7087	60	67
69.488	69.7087	72	72
69.9298	70.1519	61	65
69.9298	70.1519	73	78
70.375	70.5985	62	70
70.375	70.5985	74	83
70.8235	71.049	63	66
70.8235	71.049	75	83
71.2755	71.6174	64	72
71.2755	71.7329	76	87
71.6174	71.7329	64	82
71.7257	72.1708	48	43
71.7257	72.1708	57	43
71.7257	72.1708	72	72
72.0555	72.1708	69	72
72.1671	73.0501	50	43
72.1671	72.6423	59	43
72.1671	72.6423	67	69
72.5608	72.6423	71	57
72.617	73.0501	60	43
72.617	73.0501	66	63
72.617	73.0501	69	63
73.0501	73.9161	55	60
73.0501	73.936	67	71
73.2666	73.6996	59	50
73.4831	73.936	62	54
73.5914	73.8079	79	74
73.6996	73.936	59	48
73.6996	73.936	81	77
73.8079	73.936	79	73
73.9161	74.7822	55	56
73.9161	74.5656	76	78
74.0244	74.2409	79	74
74.1326	74.5656	60	45
74.1326	74.7822	81	77
74.2409	74.4574	79	74
74.3491	74.7822	64	49
74.3491	74.7822	84	81
74.4574	74.7822	79	76
74.5656	74.7822	60	47
74.5656	74.7822	76	78
74.6739	74.7822	72	73
74.7822	75.0071	55	56
74.7822	74.8946	79	83
75.0071	75.2321	59	50
75.0071	75.1196	79	81
75.2321	75.6976	62	54
75.3404	75.5569	79	73
75.4486	75.6976	59	47
75.4486	75.6976	81	77
75.5569	75.6976	79	73
75.6651	76.5312	55	56
75.6651	76.3147	76	78
75.7734	75.9899	79	74
75.8816	76.3147	60	50
75.8816	76.5312	81	76
75.9899	76.2064	79	74
76.0982	76.5312	64	54
76.0982	76.5312	84	81
76.2064	76.5312	79	75
76.3147	76.5312	60	49
76.3147	76.5312	76	77
76.4229	76.5312	72	73
76.5312	76.9782	55	56
76.5312	76.9782	59	56
76.5312	76.9782	62	56
76.5312	76.6429	79	84
76.7547	76.8665	79	82
76.9782	77.4279	72	41
77.0865	77.303	74	55
77.1947	77.4279	78	55
77.303	77.4279	74	53
77.4113	77.8554	71	44
77.4113	77.5223	79	59
77.6333	77.7444	79	59
77.8554	78.2884	72	43
77.9637	78.1802	74	54
78.0719	78.2884	78	54
78.1802	78.2884	74	52
78.2884	78.7326	71	45
78.2884	78.3995	79	59
78.5105	78.6216	79	59
78.7326	78.9491	66	52
78.8409	79.0574	74	67
78.9491	79.1747	66	54
78.9491	79.1747	81	71
79.0574	79.1747	74	69
79.1657	79.3826	67	57
79.1657	79.3826	83	75
79.2739	79.4918	74	73
79.3826	79.6125	67	60
79.3826	79.6125	83	79
79.4918	79.6125	74	76
79.6015	79.8231	69	62
79.6015	79.8231	84	83
79.712	79.9348	74	81
79.8231	80.0603	69	65
79.8231	80.0603	84	88
79.9348	80.0603	74	84
80.0471	80.9795	71	67
80.0471	80.9795	86	91
80.2736	80.7266	83	79
80.5001	80.9795	79	84
80.7266	80.9795	83	73
80.953	81.6325	74	78
81.1795	81.859	79	70
81.406	81.859	71	72
81.6325	81.859	74	68
81.859	82.0796	69	60
82.0796	82.3003	76	63
82.3003	82.753	48	44
82.3003	82.753	52	44
82.3003	82.753	57	44
82.3003	82.753	74	63
82.4107	82.753	72	60
82.521	82.753	71	63
82.6314	82.753	69	60
82.7417	83.6476	50	44
82.7417	83.2022	55	44
82.7417	83.2022	59	44
82.7417	83.1947	67	63
83.1947	83.6476	57	44
83.1947	83.6476	60	44
83.1947	83.2702	67	63
83.2702	83.4211	66	60
83.3456	83.5948	67	63
83.4211	83.5721	66	60
83.4966	83.5948	64	63
83.5721	83.6476	66	60
83.6476	83.8641	55	51
83.6476	84.0806	67	77
83.8641	84.0806	59	46
84.0806	84.5263	62	54
84.1889	84.4054	79	74
84.2971	84.5263	59	49
84.2971	84.5263	81	77
84.4054	84.5263	79	75
84.5136	85.3797	55	54
84.5136	85.1632	76	81
84.6219	84.8384	79	75
84.7302	85.1632	60	50
84.7302	85.3797	81	79
84.8384	85.0549	79	75
84.9467	85.3797	64	54
84.9467	85.3797	84	81
85.0549	85.3797	79	78
85.1632	85.3797	60	50
85.1632	85.3797	76	79
85.2714	85.3797	72	75
85.3797	85.6032	55	58
85.3797	85.4914	79	84
85.6032	85.8267	59	50
85.6032	85.715	79	81
85.8267	86.2634	62	54
85.935	86.1515	79	75
86.0433	86.2634	59	54
86.0433	86.2634	81	77
86.1515	86.2634	79	73
86.2598	87.1258	55	54
86.2598	86.9093	76	81
86.368	86.5846	79	75
86.4763	86.9093	60	50
86.4763	87.1258	81	78
86.5846	86.8011	79	77
86.6928	87.1258	64	54
86.6928	87.1258	84	81
86.8011	87.1258	79	76
86.9093	87.1258	60	50
86.9093	87.1258	76	78
87.0176	87.1258	72	75
87.1258	87.57	55	58
87.1258	87.57	59	58
87.1258	87.57	62	58
87.1258	87.2369	79	84
87.3479	87.459	79	82
87.57	88.003	72	43
87.6783	87.8948	74	54
87.7865	87.9976	78	54
87.8948	88.003	74	50
88.003	88.4472	71	45
88.003	88.1141	79	56
88.2251	88.3362	79	57
88.4472	88.8802	72	43
88.5555	88.772	74	54
88.6637	88.8802	78	54
88.772	88.8802	74	50
88.8802	89.3273	71	45
88.8802	88.992	79	57
89.1038	89.2155	79	57
89.3273	89.5438	66	48
89.4356	89.6521	74	67
89.5438	89.7766	66	51
89.5438	89.7766	81	71
89.6521	89.7766	74	66
89.7603	89.9773	67	54
89.7603	89.9773	83	75
89.8686	90.0865	74	73
89.9773	90.2127	67	57
89.9773	90.2127	83	81
90.0865	90.2127	74	77
90.1961	90.4178	69	61
90.1961	90.4178	84	84
90.3067	90.5295	74	82
90.4178	90.6418	69	64
90.4178	90.6418	84	90
90.5295	90.6418	74	85
90.6418	91.5434	71	67
90.6418	90.8653	86	94
90.7536	90.9771	83	85
90.8653	91.5434	86	89
90.9771	91.2006	83	83
91.0889	91.3124	79	87
91.2006	91.4242	83	81
91.3124	91.5434	79	85
91.4242	91.5434	83	81
91.5359	91.7595	74	86
91.6477	91.8712	79	80
91.7595	92.0948	74	81
91.8712	92.4301	79	74
91.983	92.2065	71	73
92.0948	92.3183	74	68
92.2065	92.4301	71	68
92.3183	92.4301	74	63
92.4301	92.5464	69	54
92.5464	92.6626	76	51
92.6626	92.7789	75	54
92.7789	92.8952	76	52
92.8952	93.3603	48	44
92.8952	93.3603	52	44
92.8952	93.3603	57	44
92.8952	93.0115	74	54
93.0115	93.1277	72	51
93.1277	93.244	71	54
93.244	93.3603	69	52
93.3603	94.288	50	44
93.3603	93.8246	55	44
93.3603	93.8246	59	44
93.3603	93.8132	67	63
93.8132	94.288	57	44
93.8132	94.288	60	44
93.8132	93.9642	67	63
93.8887	94.0397	66	59
93.9642	94.2549	67	63
94.0397	94.2053	66	59
94.1225	94.2549	64	63
94.2053	94.288	66	60
94.288	95.0786	55	78
94.288	95.0786	67	86
94.6268	95.3534	50	72
94.6268	95.1915	62	81
94.7398	95.3534	59	78
94.7398	95.3534	71	86
95.0786	95.3534	55	72
95.0786	95.3534	67	81
95.1915	95.4174	62	77
95.1915	95.4174	74	87
95.6432	95.7731	81	54
95.7515	95.8814	79	51
95.8597	95.9896	78	54
95.968	96.0985	76	52
96.0763	96.2983	50	41
96.0763	96.2983	55	41
96.0763	96.2983	59	41
96.0763	96.2983	74	57
96.5204	96.6503	76	54
96.6287	96.7586	74	51
96.7369	96.8668	72	54
96.8452	96.9757	71	51
96.9534	97.1755	50	41
96.9534	97.1755	54	41
96.9534	97.1755	60	41
96.9534	97.1755	69	57
97.3976	97.5275	74	56
97.5059	97.6358	72	56
97.6141	97.744	71	56
97.7224	97.8531	69	53
97.8306	98.0556	55	72
97.8306	98.0556	67	84
97.9431	98.1681	50	67
97.9431	98.1681	62	80
98.0556	98.2862	55	72
98.0556	98.2862	67	84
98.1681	98.2862	50	67
98.1681	98.2862	62	80
98.2806	98.5056	59	72
98.2806	98.5056	71	84
98.3931	98.6181	55	67
98.3931	98.6181	67	80
98.5056	98.9068	59	72
98.5056	98.9068	71	84
98.6181	98.9068	55	66
98.6181	98.9068	67	80
98.7306	98.9556	62	72
98.7306	98.9556	74	84
99.1805	99.3104	81	55
99.2888	99.4187	79	52
99.3971	99.527	78	55
99.5053	99.6362	76	52
99.6136	99.8401	50	45
99.6136	99.8401	55	45
99.6136	99.8401	59	45
99.6136	99.7268	74	58
99.8401	99.9533	74	58
100.067	100.196	76	54
100.175	100.305	74	51
100.283	100.413	72	54
100.391	100.522	71	50
100.5	100.724	50	45
100.5	100.724	54	45
100.5	100.724	60	45
100.5	100.611	69	57
100.724	100.837	69	57
100.951	101.08	74	55
101.059	101.189	72	53
101.167	101.297	71	55
101.275	101.408	69	52
101.384	101.87	55	46
101.384	101.87	59	46
101.384	101.87	67	58
101.87	102.123	55	46
101.87	102.123	62	54
101.87	102.123	71	54
102.375	102.618	43	46
102.375	102.618	59	56
102.375	102.618	67	56
103.349	103.809	64	50
103.349	103.809	79	79
103.578	104.034	60	36
103.809	104.26	64	43
103.809	104.709	79	71
104.034	104.485	60	38
104.26	104.702	64	51
104.485	104.709	60	40
104.485	104.709	77	71
104.593	104.702	76	69
104.702	105.135	64	45
104.702	105.138	76	70
104.81	105.135	74	64
104.918	105.138	60	43
104.918	105.138	72	67
105.026	105.138	71	66
105.135	105.579	64	51
105.135	105.301	74	47
105.218	105.384	72	49
105.301	105.468	74	55
105.357	105.801	60	45
105.384	105.551	72	52
105.468	105.634	74	57
105.551	105.718	72	51
105.579	106.017	64	51
105.634	105.801	74	59
105.718	106.04	72	56
105.801	106.04	60	40
105.801	106.04	74	62
105.909	106.04	76	63
106.017	106.465	64	42
106.017	106.926	67	69
106.241	106.685	60	28
106.465	106.904	64	33
106.685	106.926	60	27
106.904	107.351	64	51
106.904	107.127	79	77
107.127	107.574	60	36
107.127	107.351	79	73
107.351	107.798	64	43
107.351	108.258	79	69
107.574	108.021	60	36
107.798	108.258	64	43
108.021	108.258	60	36
108.021	108.258	77	64
108.13	108.238	76	61
108.238	108.677	65	40
108.238	108.677	76	64
108.346	108.671	74	60
108.455	108.677	60	36
108.455	108.677	72	61
108.563	108.677	71	60
108.671	109.115	64	38
108.671	108.838	74	48
108.754	108.921	72	46
108.838	109.004	74	50
108.893	109.337	60	34
108.921	109.087	72	49
109.004	109.171	74	52
109.087	109.254	72	54
109.115	109.554	64	39
109.171	109.337	74	54
109.254	109.578	72	52
109.337	109.578	60	33
109.337	109.578	74	57
109.446	109.578	76	61
109.554	109.998	64	34
109.554	110.434	67	62
109.776	110.216	60	27
109.998	110.434	64	31
110.216	110.434	60	27
110.434	110.648	65	34
110.434	110.541	69	54
110.648	110.862	60	29
110.648	110.755	72	53
110.862	111.075	65	34
110.862	110.969	77	54
111.075	111.305	60	30
111.075	111.19	81	52
111.305	111.737	65	34
111.305	112.169	84	58
111.521	111.952	60	26
111.737	112.169	65	31
111.952	112.169	60	26
112.169	112.38	64	36
112.169	112.275	67	56
112.38	112.592	60	32
112.38	112.486	72	54
112.592	112.796	64	36
112.592	112.694	76	56
112.796	113.022	60	30
112.796	112.909	79	53
113.022	113.454	64	36
113.022	113.887	84	61
113.238	113.67	60	26
113.454	113.887	64	32
113.67	113.887	60	27
113.778	113.887	67	63
113.887	114.319	60	57
113.887	114.319	64	57
113.887	115.184	79	86
114.103	114.535	55	50
114.319	114.762	60	57
114.319	114.762	64	57
114.535	114.762	55	50
114.751	115.184	59	54
114.751	115.184	62	54
114.968	115.189	55	46
115.184	115.644	59	50
115.184	115.644	62	50
115.184	115.238	79	68
115.238	115.52	77	60
115.292	115.644	79	68
115.346	115.4	76	61
115.4	115.644	55	46
115.4	115.644	76	76
115.52	115.644	77	71
115.64	116.523	60	48
115.64	116.545	75	78
115.865	116.545	48	43
116.09	116.545	52	48
116.09	116.545	76	76
116.307	116.545	55	43
116.523	117.374	60	57
116.74	117.165	64	47
116.956	117.374	67	52
117.165	117.374	64	46
117.374	117.798	65	37
117.374	117.692	69	57
117.586	118.003	60	28
117.586	117.901	72	57
117.692	118.231	69	52
117.798	118.209	65	37
117.798	118.106	77	57
117.901	118.231	72	51
118.003	118.231	60	29
118.003	118.231	81	55
118.106	118.231	77	50
118.209	118.654	65	37
118.209	119.083	84	63
118.431	118.868	60	29
118.654	119.083	65	33
118.868	119.083	60	29
119.083	119.507	64	37
119.083	119.401	67	59
119.295	119.714	60	29
119.295	119.61	72	59
119.401	119.963	67	53
119.507	119.943	64	37
119.507	119.828	76	59
119.61	119.963	72	52
119.714	119.963	60	28
119.714	119.963	79	57
119.828	119.963	76	50
119.943	120.384	64	37
119.943	120.817	84	63
120.164	120.601	60	27
120.384	120.817	64	32
120.601	120.817	60	29
120.817	121.03	60	48
120.817	121.243	64	48
120.817	121.03	81	83
121.03	121.243	55	42
121.03	121.243	79	74
121.243	121.457	60	45
121.243	121.67	64	45
121.243	121.35	77	79
121.457	121.67	55	40
121.457	121.563	76	73
121.67	121.883	62	48
121.67	122.097	65	48
121.67	121.883	76	83
121.883	122.097	55	42
121.883	122.097	74	73
122.097	122.31	62	45
122.097	122.536	65	45
122.097	122.203	72	79
122.31	122.536	55	40
122.31	122.423	71	73
122.536	123.391	60	56
122.536	123.391	64	56
122.536	122.665	72	81
122.644	122.774	67	69
122.752	122.882	69	70
122.86	122.989	71	68
122.968	123.095	72	73
123.074	123.2	74	72
123.179	123.306	76	76
123.285	123.412	77	74
123.391	123.52	79	77
123.498	123.628	81	72
123.606	123.736	83	77
123.714	123.822	84	71
123.822	123.935	79	75
124.047	124.16	79	72
124.272	124.722	55	45
124.272	124.735	64	45
124.385	124.61	79	54
124.497	124.735	81	54
124.61	124.735	79	51
124.722	125.172	55	41
124.722	125.195	62	41
124.835	125.06	77	54
124.947	125.195	79	54
125.06	125.195	77	51
125.172	125.622	55	46
125.172	125.641	60	46
125.285	125.51	76	54
125.397	125.641	77	54
125.51	125.641	76	50
125.622	126.072	55	41
125.622	126.072	59	41
125.735	125.96	74	54
125.847	126.072	76	54
125.96	126.072	74	53
126.072	126.92	60	58
126.072	126.202	72	79
126.18	126.309	67	72
126.287	126.415	69	76
126.394	126.521	71	73
126.5	126.626	72	79
126.605	126.731	74	75
126.71	126.836	76	80
126.815	126.941	77	74
126.92	127.048	79	78
127.027	127.156	81	74
127.134	127.263	83	79
127.241	127.348	84	72
127.348	127.461	79	75
127.573	127.686	79	72
127.798	128.248	55	48
127.798	128.256	64	48
127.911	128.136	79	54
128.023	128.256	81	54
128.136	128.256	79	51
128.248	128.698	55	45
128.248	128.719	62	45
128.361	128.586	77	54
128.473	128.719	79	54
128.586	128.719	77	50
128.698	129.148	55	47
128.698	129.174	60	47
128.811	129.036	76	54
128.923	129.174	77	54
129.036	129.174	76	51
129.148	129.598	55	45
129.148	129.598	59	45
129.261	129.486	74	54
129.373	129.598	76	54
129.486	129.598	74	51
129.598	129.721	48	58
129.598	130.277	72	81
129.844	130.06	60	64
130.06	130.277	59	56
130.277	130.493	58	56
130.277	130.385	74	73
130.385	130.493	76	68
130.493	130.609	57	59
130.493	130.609	77	82
130.724	130.941	57	57
130.724	131.157	77	79
130.941	131.157	55	57
131.157	131.387	53	54
131.157	131.272	79	76
131.272	131.387	81	71
131.387	131.603	52	57
131.387	131.603	79	83
131.603	131.819	76	78
131.819	132.044	48	57
131.819	131.932	84	80
132.044	132.157	84	79
132.269	132.4	86	80
132.378	132.509	84	71
132.487	132.617	83	76
132.595	132.704	81	71
132.704	133.186	48	48
132.704	133.186	60	48
132.704	132.841	81	71
132.818	132.957	79	67
132.931	133.084	77	68
133.059	133.186	76	64
133.186	134.074	55	48
133.186	133.943	64	48
133.186	133.943	79	68
133.852	134.074	60	54
133.852	134.074	76	67
134.074	134.526	59	48
134.074	134.526	74	61
134.306	134.526	43	65
134.526	134.745	47	72
134.745	134.985	50	69
134.985	135.438	55	45
134.985	135.438	73	60
135.209	135.438	59	43
135.209	135.438	74	56
135.432	135.649	62	41
135.432	135.54	72	55
135.54	135.649	71	52
135.649	135.757	69	55
135.757	135.865	67	53
135.865	136.343	55	45
135.865	136.343	73	61
136.089	136.343	59	43
136.089	136.343	74	59
136.312	136.529	62	41
136.312	136.421	72	55
136.421	136.529	71	52
136.529	136.649	69	55
136.649	136.769	67	53
136.769	137.675	55	44
136.769	137.707	75	64
136.996	137.449	60	40
136.996	137.222	76	60
137.222	137.707	64	43
137.222	137.449	76	63
137.449	137.707	60	40
137.449	137.675	76	57
137.675	138.433	55	44
137.675	138.433	76	63
137.897	138.333	60	40
138.12	138.433	64	43
138.333	138.982	60	40
138.44	139.61	69	64
138.546	139.417	54	57
138.546	139.61	81	82
138.764	139.61	57	54
138.982	139.61	60	49
139.199	139.61	79	72
139.272	139.61	78	69
139.345	139.61	76	66
139.417	139.656	54	57
139.417	139.656	74	80
139.656	139.884	57	54
139.656	139.77	86	75
139.884	140.112	60	51
139.884	139.998	86	78
140.112	140.235	86	74
140.358	141.288	55	57
140.358	141.044	86	85
140.584	141.301	59	51
140.81	141.044	62	53
140.927	141.166	83	70
141.044	141.301	62	50
141.044	141.301	86	73
141.166	141.301	83	70
141.288	141.514	55	57
141.288	141.735	79	72
141.514	141.735	59	39
141.735	141.848	62	43
141.962	142.08	62	37
142.199	142.66	55	44
142.199	142.66	73	60
142.421	142.66	59	41
142.421	142.66	74	58
142.644	142.86	62	41
142.644	142.752	72	54
142.752	142.86	71	51
142.86	142.968	69	54
142.968	143.077	67	52
143.077	143.541	55	44
143.077	143.541	73	54
143.188	143.41	74	53
143.299	143.541	59	41
143.299	143.541	76	55
143.41	143.541	74	57
143.521	143.737	62	41
143.521	143.629	72	56
143.629	143.737	71	55
143.737	143.857	69	54
143.857	143.978	67	54
143.978	144.893	55	43
143.978	144.901	75	64
144.207	144.664	60	40
144.207	144.435	76	63
144.435	144.901	64	40
144.435	144.664	76	63
144.664	144.901	60	40
144.664	144.893	76	60
144.893	145.812	55	45
144.893	145.812	76	63
145.12	145.564	60	38
145.347	145.812	64	42
145.564	145.812	60	40
145.812	147.541	54	52
145.812	147.541	57	52
145.812	147.541	60	52
145.812	147.541	62	62
145.812	145.942	81	77
145.92	146.05	83	71
146.028	146.158	84	77
146.136	146.266	83	72
146.244	146.374	81	78
146.352	146.482	79	74
146.46	146.59	78	78
146.568	146.698	76	73
146.676	146.806	74	73
146.784	146.914	78	75
146.892	147.022	81	77
147.001	147.13	79	72
147.109	147.238	78	75
147.217	147.346	76	72
147.325	147.454	74	74
147.433	147.563	72	67
147.541	147.692	55	61
147.541	147.767	71	78
147.692	147.843	59	54
147.843	147.994	67	51
147.994	148.467	57	61
147.994	148.107	74	67
148.05	148.164	72	63
148.107	148.447	74	67
148.145	148.467	60	53
148.164	148.333	72	63
148.22	148.467	71	76
148.296	148.467	67	50
148.333	148.467	72	72
148.447	149.024	59	61
148.447	149.345	74	81
148.591	149.345	62	57
148.735	149.168	67	49
148.88	149.345	55	61
149.024	149.345	59	48
149.168	149.345	67	45
149.168	149.345	76	53
149.251	149.345	78	53
149.323	149.756	60	43
149.323	149.756	79	61
149.467	149.756	64	40
149.612	149.756	67	37
149.756	150.189	60	43
149.756	150.081	79	56
149.9	150.193	64	40
150.045	150.193	67	38
150.081	150.189	79	54
150.189	150.622	60	43
150.189	150.631	79	56
150.333	150.631	64	40
150.478	150.631	67	38
150.622	151.042	60	43
150.622	151.042	78	55
150.727	151.042	76	52
150.762	151.042	64	41
150.832	151.042	74	53
150.902	151.042	67	39
150.937	151.042	72	51
151.042	151.19	55	57
151.042	151.264	71	77
151.19	151.338	59	50
151.338	151.782	67	50
151.486	151.952	57	57
151.486	151.597	74	68
151.541	151.652	72	63
151.597	151.93	74	68
151.634	151.952	60	51
151.652	151.819	72	63
151.708	151.952	71	74
151.782	151.952	67	48
151.819	151.952	72	72
151.93	152.507	59	57
151.93	152.811	74	82
152.074	152.811	62	52
152.219	152.652	67	46
152.363	152.811	55	57
152.507	152.811	59	50
152.652	152.811	67	47
152.652	152.811	76	53
152.731	152.811	78	51
152.811	153.244	60	38
152.811	153.244	79	61
152.955	153.25	64	36
153.1	153.25	67	36
153.244	153.677	60	38
153.244	153.569	79	55
153.388	153.697	64	36
153.533	153.697	67	36
153.569	153.677	79	54
153.677	154.11	60	45
153.677	154.131	79	55
153.822	154.131	64	43
153.966	154.131	67	40
154.11	154.547	60	45
154.11	154.547	78	54
154.216	154.547	76	53
154.251	154.547	64	44
154.321	154.547	74	54
154.397	154.547	67	41
154.434	154.547	72	50
154.547	154.795	55	61
154.547	154.671	71	79
154.795	154.925	79	70
154.904	155.033	81	72
155.012	155.142	83	76
155.12	155.25	81	72
155.228	155.358	79	77
155.337	155.467	78	72
155.445	155.662	48	61
155.445	155.575	76	77
155.553	155.684	74	72
155.662	155.793	72	77
155.771	155.903	71	72
155.881	156.013	69	74
155.991	156.124	67	72
156.102	156.235	66	75
156.213	156.35	64	69
156.325	156.571	50	63
156.325	156.571	62	81
156.817	157.741	51	63
156.817	157.741	54	63
156.817	157.741	57	63
156.817	157.741	60	89
157.741	158.203	52	48
157.741	158.203	55	48
157.741	158.203	59	72
158.203	158.65	48	43
158.203	158.65	52	43
158.434	158.542	57	55
158.65	158.758	60	55
158.867	158.975	64	53
159.083	159.3	68	55
159.3	159.516	69	53
159.516	159.733	72	55
159.733	159.981	76	54
159.981	160.214	76	63
160.214	160.446	67	55
160.446	161.8	50	44
160.446	160.931	59	44
160.446	161.8	67	55
160.911	161.8	60	44
161.35	161.8	66	56
161.35	161.8	71	56
161.575	161.8	69	54
161.8	162.032	55	46
161.8	162.265	59	46
161.8	162.265	67	54
162.265	162.498	43	44
162.73	162.947	74	75
162.947	163.163	71	67
163.163	163.38	79	54
163.38	163.489	78	53
163.599	163.709	76	51
163.818	163.928	74	49
164.038	164.147	72	48
164.257	164.366	71	50
164.476	164.698	69	53
164.92	165.142	71	54
165.379	165.602	74	58
165.602	165.826	73	54
165.826	166.273	54	40
165.826	166.706	62	40
165.826	166.05	72	51
166.273	166.706	55	43
166.273	166.49	71	51
166.49	166.706	72	54
166.706	166.923	74	57
166.923	167.031	75	59
167.139	168.014	48	43
167.139	168.014	55	43
167.139	167.25	78	48
167.195	167.306	76	49
167.25	167.361	78	51
167.306	167.417	76	54
167.361	167.472	78	56
167.417	167.685	76	58
167.472	167.685	78	58
167.581	167.689	79	68
167.797	167.905	78	64
168.014	168.122	76	63
168.23	168.338	74	59
168.447	168.9	49	43
168.447	168.9	52	43
168.447	168.559	72	60
168.67	168.787	71	56
168.9	169.8	50	43
168.9	169.35	55	43
168.9	169.288	74	64
169.237	169.35	71	59
169.35	169.8	54	41
169.35	169.575	69	55
169.8	170.124	62	77
169.8	170.124	74	86
170.124	170.179	64	70
170.124	170.179	76	81
170.179	170.233	66	66
170.179	170.233	78	78
170.233	170.449	67	71
170.233	170.449	79	86
170.449	170.557	66	56
170.449	170.557	78	62
170.666	170.774	64	56
170.666	170.774	76	62
170.882	170.99	62	52
170.882	170.99	74	58
171.099	171.207	60	56
171.099	171.207	72	62
171.315	171.423	59	52
171.315	171.423	71	57
171.532	171.752	57	57
171.532	171.752	69	63
171.973	172.194	59	62
171.973	172.194	71	70
172.414	172.635	60	67
172.414	172.635	72	72
172.856	173.078	61	65
172.856	173.078	73	78
173.301	173.525	62	70
173.301	173.525	74	80
173.75	173.975	63	66
173.75	173.975	75	83
174.202	174.544	64	72
174.202	174.659	76	90
174.544	174.659	64	82
174.652	175.101	48	43
174.652	175.101	57	43
174.652	175.101	72	72
174.982	175.101	69	72
175.093	175.976	50	43
175.093	175.562	59	43
175.093	175.562	67	69
175.487	175.562	71	57
175.543	175.976	60	43
175.543	175.976	66	63
175.543	175.976	69	63
175.976	176.843	55	60
175.976	176.862	67	71
176.193	176.626	59	50
176.41	176.862	62	54
176.518	176.734	79	74
176.626	176.862	59	48
176.626	176.862	81	77
176.734	176.862	79	73
176.843	177.697	55	56
176.843	177.481	76	78
176.948	177.159	79	74
177.054	177.481	60	45
177.054	177.697	81	77
177.159	177.373	79	74
177.265	177.697	64	49
177.265	177.697	84	81
177.373	177.697	79	76
177.481	177.697	60	47
177.481	177.697	76	78
177.589	177.697	72	73
177.697	177.922	55	56
177.697	177.809	79	83
177.922	178.147	59	50
177.922	178.034	79	81
178.147	178.601	62	54
178.255	178.471	79	73
178.363	178.601	59	47
178.363	178.601	81	77
178.471	178.601	79	73
178.58	179.431	55	56
178.58	178.685	76	78
178.685	178.894	79	74
178.79	179.215	60	50
178.79	179.431	81	76
178.894	179.107	79	74
178.999	179.431	64	54
178.999	179.431	84	81
179.107	179.431	79	75
179.215	179.431	60	49
179.215	179.431	76	77
179.323	179.431	72	73
179.431	179.878	55	56
179.431	179.878	59	56
179.431	179.878	62	56
179.431	179.543	79	84
179.655	179.766	79	82
179.878	180.321	72	41
179.986	180.199	74	55
180.095	180.321	78	55
180.199	180.321	74	53
180.304	180.749	71	44
180.304	180.415	79	59
180.526	180.637	79	59
180.749	181.175	72	43
180.857	181.07	74	54
180.965	181.175	78	54
181.07	181.175	74	52
181.175	181.619	71	45
181.175	181.286	79	59
181.397	181.508	79	59
181.619	181.836	66	52
181.727	181.94	74	67
181.836	182.053	66	54
181.836	182.053	81	71
181.94	182.053	74	69
182.044	182.261	67	57
182.044	182.261	83	75
182.152	182.37	74	73
182.261	182.491	67	60
182.261	182.491	83	79
182.37	182.491	74	76
182.48	182.701	69	62
182.48	182.701	84	83
182.59	182.813	74	81
182.701	182.933	69	65
182.701	182.933	84	88
182.813	182.933	74	84
182.925	183.854	71	67
182.925	183.854	86	91
183.152	183.605	83	79
183.378	183.854	79	84
183.605	183.854	83	73
183.831	184.511	74	78
184.058	184.737	79	70
184.284	184.737	71	72
184.511	184.737	74	68
184.737	184.958	69	60
184.958	185.179	76	63
185.179	185.635	48	44
185.179	185.635	52	44
185.179	185.635	57	44
185.179	185.635	74	63
185.289	185.635	72	60
185.399	185.635	71	63
185.51	185.635	69	60
185.62	186.526	50	44
185.62	186.079	55	44
185.62	186.079	59	44
185.62	186.073	67	63
186.073	186.526	57	44
186.073	186.526	60	44
186.073	186.224	67	63
186.148	186.299	66	60
186.224	186.471	67	63
186.299	186.45	66	60
186.375	186.471	64	63
186.45	186.526	66	60
186.526	186.742	55	51
186.526	186.959	67	77
186.742	186.959	59	46
186.959	187.402	62	54
187.067	187.284	79	74
187.175	187.402	59	49
187.175	187.402	81	77
187.284	187.402	79	75
187.392	188.246	55	54
187.392	188.03	76	81
187.498	187.709	79	75
187.603	188.03	60	50
187.603	188.246	81	79
187.709	187.922	79	75
187.814	188.246	64	54
187.814	188.246	84	81
187.922	188.246	79	78
188.03	188.246	60	50
188.03	188.246	76	79
188.138	188.246	72	75
188.246	188.47	55	58
188.246	188.358	79	84
188.47	188.693	59	50
188.47	188.581	79	81
188.693	189.14	62	54
188.801	189.016	79	75
188.91	189.14	59	54
188.91	189.14	81	77
189.016	189.14	79	73
189.122	189.974	55	54
189.122	189.227	76	81
189.227	189.437	79	75
189.332	189.758	60	50
189.332	189.974	81	78
189.437	189.65	79	77
189.542	189.974	64	54
189.542	189.974	84	81
189.65	189.974	79	76
189.758	189.974	60	50
189.758	189.974	76	78
189.866	189.974	72	75
189.974	190.418	55	58
189.974	190.418	59	58
189.974	190.418	62	58
189.974	190.085	79	84
190.196	190.307	79	82
190.418	190.871	72	43
190.526	190.743	74	54
190.634	190.871	78	54
190.743	190.871	74	50
190.851	191.295	71	45
190.851	190.962	79	56
191.073	191.184	79	57
191.295	191.728	72	43
191.403	191.62	74	54
191.512	191.728	78	54
191.62	191.728	74	50
191.728	192.175	71	45
191.728	191.84	79	57
191.952	192.063	79	57
192.175	192.392	66	48
192.283	192.5	74	67
192.392	192.624	66	51
192.392	192.624	81	71
192.5	192.624	74	66
192.608	192.825	67	54
192.608	192.825	83	75
192.716	192.934	74	73
192.825	193.061	67	57
192.825	193.061	83	81
192.934	193.061	74	77
193.044	193.266	69	61
193.044	193.266	84	84
193.155	193.382	74	82
193.266	193.496	69	64
193.266	193.496	84	90
193.382	193.496	74	85
193.496	194.393	71	67
193.496	193.718	86	94
193.607	193.83	83	85
193.718	194.393	86	89
193.83	194.052	83	83
193.941	194.163	79	87
194.052	194.275	83	81
194.163	194.393	79	85
194.275	194.393	83	81
194.386	194.608	74	86
194.497	194.72	79	80
194.608	194.942	74	81
194.72	195.276	79	74
194.831	195.054	71	73
194.942	195.165	74	68
195.054	195.276	71	68
195.165	195.276	74	63
195.276	195.392	69	54
195.392	195.509	76	51
195.509	195.625	75	54
195.625	195.741	76	52
195.741	196.206	48	44
195.741	196.206	52	44
195.741	196.206	57	44
195.741	195.857	74	54
195.857	195.974	72	51
195.974	196.09	71	54
196.09	196.206	69	52
196.206	197.112	50	44
196.206	196.671	55	44
196.206	196.671	59	44
196.206	196.659	67	63
196.659	197.112	57	44
196.659	197.112	60	44
196.659	196.81	67	63
196.735	196.886	66	59
196.81	197.082	67	63
196.886	197.037	66	59
196.961	197.082	64	63
197.037	197.112	66	60
197.112	197.905	55	78
197.112	197.905	67	86
197.452	198.185	50	72
197.452	198.018	62	81
197.565	198.185	59	78
197.565	198.185	71	86
197.905	198.185	55	72
197.905	198.185	67	81
198.018	198.251	62	77
198.018	198.251	74	87
198.484	198.614	81	54
198.592	198.722	79	51
198.7	198.83	78	54
198.809	198.939	76	52
198.917	199.139	50	41
198.917	199.139	55	41
198.917	199.139	59	41
198.917	199.139	74	57
199.361	199.491	76	54
199.469	199.599	74	51
199.578	199.707	72	54
199.686	199.816	71	51
199.794	200.016	50	41
199.794	200.016	54	41
199.794	200.016	60	41
199.794	200.016	69	57
200.238	200.368	74	56
200.346	200.476	72	56
200.455	200.585	71	56
200.563	200.694	69	53
200.671	200.896	55	72
200.671	200.896	67	84
200.784	201.009	50	67
200.784	201.009	62	80
200.896	201.132	55	72
200.896	201.132	67	84
201.009	201.132	50	67
201.009	201.132	62	80
201.121	201.342	59	72
201.121	201.342	71	84
201.231	201.452	55	67
201.231	201.452	67	80
201.342	201.739	59	72
201.342	201.739	71	84
201.452	201.739	55	66
201.452	201.739	67	80
201.562	201.788	62	72
201.562	201.788	74	84
202.014	202.144	81	55
202.122	202.252	79	52
202.231	202.361	78	55
202.339	202.47	76	52
202.447	202.674	50	45
202.447	202.674	55	45
202.447	202.674	59	45
202.447	202.56	74	58
202.674	202.787	74	58
202.9	203.03	76	54
203.008	203.138	74	51
203.117	203.247	72	54
203.225	203.355	71	50
203.333	203.558	50	45
203.333	203.558	54	45
203.333	203.558	60	45
203.333	203.444	69	57
203.558	203.671	69	57
203.784	203.914	74	55
203.892	204.022	72	53
204.001	204.131	71	55
204.109	204.241	69	52
204.217	204.703	55	46
204.217	204.703	59	46
204.217	204.703	67	58
204.703	204.956	55	46
204.703	204.956	62	54
204.703	204.956	71	54
205.209	205.452	43	46
205.209	205.452	59	56
205.209	205.452	67	56
206.181	206.641	67	40
206.181	207.118	74	51
206.412	206.869	71	36
206.641	207.098	67	36
206.869	207.118	71	31
206.869	207.118	75	53
207.098	207.548	67	40
207.098	207.548	76	54
207.321	207.548	71	36
207.321	207.548	78	55
207.544	207.993	65	40
207.544	207.993	79	56
207.767	207.993	68	36
207.767	207.993	71	53
207.99	208.401	64	40
207.99	208.401	74	54
208.217	208.444	67	36
208.217	208.444	72	53
208.444	208.671	64	38
208.671	208.894	67	32
208.671	208.894	71	51
208.894	209.786	64	40
208.894	209.786	72	54
209.117	209.786	67	36
209.117	209.786	74	55
209.34	209.786	62	40
209.34	209.786	76	56
209.563	209.786	65	36
209.563	209.786	68	50
209.786	210.22	60	40
209.786	210.22	71	54
210.015	210.243	64	35
210.015	210.243	69	51
210.243	210.472	60	40
210.472	210.695	64	35
210.472	210.695	68	51
210.695	211.141	60	40
210.695	211.148	69	54
210.918	211.148	64	35
210.918	211.148	71	54
211.141	211.587	60	40
211.141	211.587	72	56
211.364	211.587	63	35
211.364	211.587	66	50
211.587	212.042	59	38
211.587	212.042	69	54
211.81	212.046	62	35
211.81	212.046	67	51
212.046	212.48	60	38
212.046	212.48	76	72
212.269	212.491	62	35
212.269	212.491	66	54
212.491	212.84	59	38
212.491	212.84	69	56
212.714	212.936	62	35
212.714	212.936	67	51
212.936	213.381	60	38
212.936	213.381	76	72
213.159	213.381	62	35
213.159	213.381	66	51
213.381	213.801	59	38
213.381	213.801	69	55
213.607	213.847	62	35
213.607	213.847	67	50
213.847	214.317	60	38
213.847	214.317	75	71
214.077	214.317	63	35
214.077	214.317	66	51
214.306	214.673	59	38
214.306	214.673	69	55
214.533	214.76	62	36
214.533	214.76	67	51
214.76	215.215	60	38
214.76	215.215	75	67
214.988	215.215	63	35
214.988	215.215	66	49
215.215	216.107	59	43
215.215	216.107	62	43
215.215	215.438	67	72
215.438	215.572	69	64
215.549	215.683	71	65
215.661	215.794	72	67
215.772	215.906	74	68
215.884	216.017	76	69
215.995	216.129	78	71
216.107	216.24	79	72
216.218	216.353	81	70
216.33	216.465	83	74
216.443	216.579	78	72
216.556	216.693	79	73
216.671	216.809	74	69
216.785	216.924	76	71
216.901	217.909	71	68
217.017	217.909	50	54
217.017	217.92	74	81
217.243	217.695	59	50
217.469	217.909	55	54
217.695	217.92	59	50
217.92	218.84	50	54
217.92	218.09	74	59
218.005	218.174	72	54
218.09	218.259	74	59
218.146	218.598	57	49
218.174	218.344	72	54
218.259	218.428	74	59
218.344	218.513	72	54
218.372	218.84	54	54
218.428	218.84	74	59
218.513	218.711	72	54
218.598	218.84	57	50
218.598	218.823	71	63
218.711	218.84	72	59
218.823	219.715	55	46
218.823	219.758	71	66
219.046	219.492	59	43
219.269	219.758	62	45
219.492	219.758	59	40
219.715	220.161	55	50
219.882	219.938	69	38
219.938	220.05	67	48
220.05	220.161	66	44
220.161	220.217	67	51
220.384	220.444	71	51
220.624	221.562	55	40
220.624	221.652	76	55
220.86	221.328	59	32
221.094	221.652	62	36
221.094	221.652	74	51
221.328	221.652	59	31
221.562	222.003	55	40
221.727	221.783	72	37
221.783	221.893	71	48
221.893	222.003	69	45
222.003	222.058	71	54
222.224	222.283	74	54
222.46	223.41	55	40
222.46	223.452	79	64
222.698	223.172	59	36
222.935	223.452	62	40
222.935	223.452	77	56
223.172	223.452	59	38
223.41	223.854	55	44
223.576	223.632	76	54
223.632	223.743	74	67
223.743	223.854	73	61
223.854	223.909	74	71
224.076	224.131	77	74
224.298	225.255	56	64
224.298	225.255	84	75
224.534	225.255	83	71
224.77	225.255	59	64
225.005	226.161	86	81
225.241	226.161	62	69
225.477	226.161	80	73
225.705	226.161	65	65
225.933	227.096	83	81
226.161	227.096	59	69
226.389	227.096	74	78
226.624	227.096	57	63
226.86	228.02	77	84
227.096	228.02	56	67
227.332	228.02	76	81
227.561	228.02	64	63
227.79	228.02	74	72
228.02	228.908	57	38
228.02	229.13	72	61
228.242	228.686	60	35
228.464	228.93	64	35
228.686	228.93	60	35
228.908	229.807	57	38
229.075	229.58	74	46
229.13	229.58	60	35
229.13	229.352	72	54
229.241	229.807	71	48
229.352	229.807	65	35
229.352	229.807	72	54
229.58	229.807	60	35
229.58	229.807	74	53
229.807	230.752	57	38
229.807	230.731	72	56
230.038	230.5	62	35
230.269	230.752	65	35
230.5	230.752	62	35
230.731	231.624	55	43
230.731	230.904	72	54
230.817	230.991	70	49
230.904	231.077	72	55
230.962	231.424	60	39
230.991	231.164	70	50
231.077	231.25	72	55
231.164	231.337	70	49
231.193	231.624	64	39
231.25	231.624	72	55
231.337	231.539	70	51
231.424	231.655	60	39
231.424	231.624	69	59
231.539	231.655	70	54
231.655	232.576	53	48
231.655	232.576	69	68
231.89	232.362	60	39
231.89	232.576	72	71
232.126	232.576	65	54
232.362	232.598	60	43
232.362	233.544	77	76
232.598	233.544	53	54
232.833	233.295	57	48
232.833	233.544	81	77
233.064	233.544	62	59
233.295	233.544	57	51
233.295	233.544	82	78
233.544	234.447	52	59
233.544	234.481	81	83
233.769	234.221	57	46
233.995	234.481	61	51
234.221	234.481	57	45
234.447	234.835	52	56
234.447	234.899	79	77
234.673	234.899	57	45
234.899	235.125	61	50
235.125	235.378	57	45
235.378	236.281	50	36
235.378	236.281	79	70
235.601	236.048	57	32
235.825	236.281	60	32
236.048	236.281	57	32
236.048	236.281	78	61
236.281	236.642	50	36
236.281	236.642	77	57
236.51	236.74	55	33
236.74	236.969	59	33
236.969	237.199	55	33
237.199	238.108	48	38
237.199	238.117	77	61
237.423	237.873	55	36
237.648	238.117	60	36
237.873	238.117	55	36
237.873	238.117	76	55
238.108	238.437	48	38
238.108	238.437	75	54
238.339	238.569	55	34
238.569	238.8	60	34
238.8	239.031	55	34
239.031	239.496	53	43
239.031	239.496	75	63
239.261	239.496	56	38
239.261	239.49	74	60
239.49	239.952	60	38
239.49	239.721	74	57
239.721	239.952	56	38
239.721	239.952	74	60
239.952	240.886	53	43
239.952	240.417	74	60
240.185	240.651	56	38
240.417	240.886	60	38
240.417	240.886	74	60
240.651	240.886	56	38
240.886	241.821	54	43
240.886	241.842	74	62
241.121	241.593	57	45
241.304	241.842	77	64
241.365	241.842	60	48
241.365	242.749	75	72
241.593	241.842	57	45
241.821	242.749	54	43
242.049	242.519	57	39
242.23	242.749	74	57
242.29	242.749	60	39
242.29	242.749	72	63
242.519	242.749	57	39
242.749	243.207	55	39
242.749	243.36	71	54
242.978	243.36	79	54
243.207	243.664	55	41
243.436	243.664	79	56
243.664	244.116	55	45
243.664	244.116	57	45
243.891	244.116	78	57
244.116	244.564	55	46
244.116	244.564	59	46
244.341	244.564	77	60
244.564	245.023	55	50
244.564	245.023	60	50
244.564	245.012	77	64
244.794	245.023	76	61
245.023	245.475	55	48
245.023	245.475	67	48
245.25	245.475	75	59
245.475	245.919	55	46
245.475	245.919	65	46
245.698	245.919	74	56
245.919	246.358	55	44
245.919	246.358	63	44
246.14	246.358	72	54
246.358	246.817	55	45
246.358	246.817	62	45
246.358	246.817	72	60
246.587	246.817	71	54
246.817	247.276	55	48
246.817	247.281	59	48
246.932	247.161	79	56
247.046	247.281	81	60
247.161	247.281	79	55
247.276	247.735	55	51
247.276	247.744	57	51
247.39	247.62	78	61
247.505	247.744	79	66
247.62	247.744	78	60
247.735	248.193	55	54
247.735	248.193	59	54
247.849	248.079	77	63
247.964	248.193	79	70
248.079	248.193	77	65
248.193	248.652	55	57
248.193	248.662	60	57
248.308	248.538	76	73
248.423	248.662	77	76
248.538	248.662	76	71
248.652	249.108	55	61
248.652	249.114	67	61
248.766	248.994	75	73
248.88	249.114	77	80
248.994	249.114	75	73
249.108	249.574	55	64
249.108	249.574	65	64
249.222	249.448	74	79
249.335	249.574	75	83
249.448	249.574	74	79
249.561	250.011	54	67
249.561	250.011	63	67
249.674	249.899	72	82
249.786	250.011	74	87
249.899	250.011	72	86
250.011	250.458	55	71
250.011	250.458	62	71
250.011	250.235	71	88
250.179	250.41	72	71
250.235	250.41	71	75
250.347	250.458	69	75
250.458	250.682	71	79
250.682	250.794	72	76
250.905	251.017	74	79
251.073	251.129	76	68
251.129	251.241	74	72
251.241	251.354	73	72
251.354	251.581	74	79
251.581	251.696	76	79
251.81	252.263	55	38
251.81	252.263	62	38
251.81	252.263	77	73
252.374	252.485	79	54
252.485	252.708	61	38
252.485	252.597	76	56
252.597	252.708	79	54
252.708	253.152	55	38
252.708	253.152	62	38
252.708	253.152	77	54
253.263	253.374	79	53
253.374	253.596	61	38
253.374	253.485	76	56
253.485	253.596	79	53
253.596	254.04	55	38
253.596	254.04	62	38
253.596	254.04	77	53
254.151	254.262	79	55
254.262	254.484	61	40
254.262	254.373	76	57
254.373	254.484	79	61
254.484	254.93	55	45
254.484	254.723	62	45
254.484	254.723	77	63
254.595	254.723	79	66
254.706	254.943	61	49
254.706	254.943	76	70
254.818	254.943	79	68
254.93	255.381	55	54
254.93	255.174	62	54
254.93	255.174	77	75
255.042	255.174	79	73
255.155	255.381	61	59
255.155	255.381	76	81
255.268	255.381	79	79
255.381	256.287	55	63
255.381	256.287	62	63
255.381	255.608	77	86
255.608	255.721	76	72
255.834	255.948	74	77
256.061	256.174	72	72
256.287	256.404	71	60
256.521	256.638	57	54
256.521	256.638	72	62
256.755	256.873	59	54
256.755	256.873	74	59
256.99	257.107	60	54
256.99	257.107	76	56
257.224	257.341	62	52
257.224	257.341	77	62
257.458	257.575	60	55
257.458	257.575	76	57
257.692	257.809	59	59
257.692	257.809	74	61
257.926	258.043	60	62
257.926	258.043	76	64
258.16	258.279	62	65
258.16	258.279	77	67
258.399	258.52	61	67
258.399	258.52	76	71
258.643	258.767	62	71
258.643	258.767	77	73
258.892	259.019	63	73
258.892	259.019	78	77
259.147	259.612	64	50
259.147	259.612	79	86
259.38	259.845	60	45
259.612	260.077	64	51
259.612	260.546	79	82
259.845	260.31	60	45
260.077	260.526	64	51
260.31	260.546	60	40
260.31	260.546	77	71
260.418	260.526	76	69
260.526	260.959	64	45
260.526	260.963	76	70
260.635	260.959	74	66
260.743	260.963	60	43
260.743	260.963	72	67
260.851	260.963	71	66
260.959	261.403	64	51
260.959	261.126	74	52
261.043	261.209	72	51
261.126	261.292	74	55
261.181	261.626	60	45
261.209	261.376	72	52
261.292	261.459	74	57
261.376	261.542	72	53
261.403	261.842	64	51
261.459	261.626	74	59
261.542	261.865	72	58
261.626	261.865	60	40
261.626	261.865	74	62
261.734	261.865	76	67
261.842	262.303	64	46
261.842	262.745	67	71
262.073	262.524	60	31
262.303	262.745	64	35
262.524	262.745	60	31
262.745	263.213	64	51
262.745	262.979	79	86
262.979	263.447	60	36
262.979	263.213	79	78
263.213	263.681	64	43
263.213	264.151	79	76
263.447	263.915	60	36
263.681	264.151	64	43
263.915	264.151	60	36
263.915	264.151	77	64
264.023	264.132	76	61
264.132	264.565	65	40
264.132	264.565	76	64
264.24	264.565	74	61
264.348	264.565	60	36
264.348	264.565	72	61
264.456	264.565	71	60
264.565	265.009	64	38
264.565	264.731	74	48
264.648	264.814	72	49
264.731	264.898	74	50
264.787	265.231	60	34
264.814	264.981	72	49
264.898	265.064	74	52
264.981	265.148	72	50
265.009	265.447	64	39
265.064	265.231	74	55
265.148	265.466	72	52
265.231	265.466	60	33
265.231	265.466	74	57
265.339	265.466	76	61
265.447	265.895	64	38
265.447	266.337	67	65
265.671	266.116	60	30
265.895	266.337	64	33
266.116	266.337	60	29
266.337	266.554	65	34
266.337	266.446	69	56
266.554	266.772	60	29
266.554	266.663	72	54
266.772	266.985	65	34
266.772	266.878	77	56
266.985	267.212	60	30
266.985	267.098	81	54
267.212	267.441	65	34
267.212	267.326	84	66
267.441	267.66	60	30
267.441	267.551	89	70
267.66	268.099	65	34
267.88	268.099	60	30
268.099	268.311	64	36
268.099	268.205	67	58
268.311	268.522	60	32
268.311	268.417	72	56
268.522	268.736	64	36
268.522	268.629	76	58
268.736	268.961	60	30
268.736	268.848	79	55
268.961	269.182	64	36
268.961	269.072	84	66
269.182	269.403	60	30
269.182	269.292	88	74
269.403	269.701	64	36
269.623	269.844	60	30
269.734	270.764	67	63
269.844	270.3	60	57
269.844	270.3	64	57
269.844	271.212	79	84
270.072	270.528	55	50
270.3	270.764	60	57
270.3	270.764	64	57
270.528	270.764	55	50
270.756	271.212	59	54
270.756	271.212	62	54
270.984	271.44	55	46
271.212	271.668	59	51
271.212	271.668	62	51
271.212	271.326	79	68
271.269	271.554	77	64
271.326	271.668	79	68
271.383	271.44	76	64
271.44	271.668	55	44
271.44	271.668	76	77
271.554	271.668	77	73
271.668	272.13	60	48
271.668	272.13	75	78
271.897	272.13	48	45
272.127	272.575	52	48
272.127	272.575	76	75
272.349	272.575	55	45
272.571	273.463	60	57
272.793	273.237	64	48
273.015	273.463	67	52
273.237	273.463	64	48
273.459	273.888	65	37
273.459	273.567	69	61
273.567	274.339	72	57
273.674	274.1	60	28
273.674	274.339	74	61
273.781	274.339	76	56
273.888	274.317	65	37
273.888	274.339	77	61
273.994	274.339	79	58
274.1	274.339	60	29
274.1	274.339	81	61
274.207	274.339	83	57
274.317	274.779	65	37
274.317	275.23	84	72
274.557	275.0	60	27
274.779	275.23	65	32
275.0	275.23	60	29
275.221	275.649	64	37
275.221	276.083	67	63
275.328	276.083	72	58
275.435	275.862	60	29
275.435	276.083	74	63
275.542	276.083	76	56
275.649	276.077	64	37
275.649	276.083	77	63
275.755	276.083	79	58
275.862	276.083	60	28
275.862	276.083	81	63
275.97	276.083	83	58
276.077	276.534	64	37
276.077	276.969	84	72
276.311	276.751	60	27
276.534	276.969	64	33
276.751	276.969	60	29
276.969	277.184	60	51
276.969	277.398	64	51
276.969	277.184	81	85
277.184	277.398	55	45
277.184	277.398	79	79
277.398	277.613	60	51
277.398	277.828	64	51
277.398	277.506	77	82
277.613	277.828	55	45
277.613	277.72	76	78
277.828	278.042	62	51
277.828	278.257	65	51
277.828	278.042	76	85
278.042	278.257	55	43
278.042	278.257	74	74
278.257	278.472	62	48
278.257	278.687	65	48
278.257	278.365	72	77
278.472	278.687	55	45
278.472	278.579	71	76
278.687	279.558	60	56
278.687	279.558	64	56
278.687	278.817	72	77
278.796	278.926	67	68
278.904	279.035	69	72
279.013	279.144	71	70
279.122	279.253	72	75
279.231	279.362	74	73
279.34	279.471	76	78
279.449	279.58	77	76
279.558	279.689	79	80
279.667	279.798	81	77
279.776	279.907	83	78
279.885	280.017	84	75
279.994	280.107	79	81
280.219	280.331	79	79
280.444	280.894	55	46
280.444	280.913	64	46
280.556	280.781	79	54
280.669	280.913	81	57
280.781	280.913	79	54
280.894	281.344	55	40
280.894	281.365	62	40
281.006	281.231	77	54
281.119	281.365	79	57
281.231	281.365	77	54
281.344	281.794	55	46
281.344	281.816	60	46
281.456	281.681	76	54
281.569	281.816	77	56
281.681	281.816	76	54
281.794	282.244	55	42
281.794	282.244	59	42
281.906	282.131	74	54
282.019	282.244	76	56
282.131	282.244	74	54
282.244	283.11	60	58
282.244	282.374	72	83
282.352	282.482	67	76
282.46	282.59	69	79
282.569	282.699	71	75
282.677	282.807	72	81
282.785	282.915	74	79
282.893	283.023	76	82
283.002	283.132	77	78
283.11	283.24	79	81
283.218	283.348	81	76
283.326	283.456	83	80
283.435	283.565	84	75
283.543	283.655	79	82
283.768	283.88	79	80
283.993	284.443	55	46
283.993	284.45	64	46
284.105	284.33	79	54
284.218	284.45	81	56
284.33	284.45	79	54
284.443	284.893	55	42
284.443	284.893	62	42
284.555	284.78	77	54
284.668	284.88	79	56
284.78	284.893	77	54
284.893	285.343	55	45
284.893	285.363	60	45
285.005	285.23	76	54
285.118	285.363	77	56
285.23	285.363	76	54
285.343	285.793	55	45
285.343	285.793	59	45
285.455	285.68	74	54
285.568	285.753	76	54
285.68	285.793	74	54
285.793	285.916	48	62
285.793	285.916	72	81
286.039	286.255	60	68
286.039	286.472	72	81
286.255	286.472	59	59
286.472	286.688	58	59
286.472	286.58	74	73
286.58	286.688	76	70
286.688	286.804	57	63
286.688	286.804	77	82
286.919	287.136	57	67
286.919	287.352	77	79
287.136	287.352	55	61
287.352	287.569	53	61
287.352	287.46	79	76
287.46	287.569	81	76
287.569	287.785	52	60
287.569	287.785	79	83
287.785	288.002	76	80
288.002	288.227	48	60
288.002	288.114	84	83
288.227	288.339	84	80
288.452	288.581	86	84
288.56	288.69	84	76
288.668	288.798	83	78
288.776	288.885	81	73
288.885	289.367	48	51
288.885	289.367	60	51
288.885	289.014	81	73
288.993	289.128	79	66
289.101	289.261	77	68
289.234	289.367	76	64
289.367	290.281	55	51
289.367	290.281	64	51
289.367	290.281	79	68
290.033	290.281	60	54
290.033	290.281	76	69
290.255	290.694	59	54
290.255	290.694	74	67
290.477	290.694	43	71
290.694	290.918	47	72
290.918	291.15	50	69
291.15	291.602	55	45
291.15	291.602	73	60
291.373	291.602	59	42
291.373	291.602	74	56
291.597	291.813	62	40
291.597	291.705	72	55
291.705	291.813	71	52
291.813	291.922	69	55
291.922	292.03	67	53
292.03	292.488	55	45
292.03	292.488	73	61
292.253	292.488	59	43
292.253	292.488	74	59
292.477	292.694	62	41
292.477	292.585	72	55
292.585	292.694	71	54
292.694	292.808	69	55
292.808	292.923	67	53
292.923	293.845	55	44
292.923	293.897	75	64
293.153	293.614	60	40
293.153	293.384	76	61
293.384	293.897	64	43
293.384	293.614	76	63
293.614	293.897	60	41
293.614	293.845	76	59
293.845	294.74	55	44
293.845	294.74	76	63
294.067	294.512	60	40
294.29	294.74	64	43
294.512	294.74	60	40
294.623	294.74	69	60
294.734	295.605	54	57
294.734	295.869	81	87
294.952	295.844	57	51
295.17	295.869	60	54
295.387	295.869	79	76
295.46	295.869	78	72
295.532	295.869	76	76
295.605	295.869	54	57
295.605	295.869	74	84
295.844	296.072	57	51
295.844	295.958	86	82
296.072	296.3	60	54
296.072	296.186	86	82
296.3	296.423	86	79
296.546	297.728	53	57
296.546	297.248	86	90
296.78	297.728	57	52
297.014	297.728	59	57
297.131	297.365	83	74
297.248	297.728	62	52
297.248	297.728	86	77
297.365	297.728	83	76
297.482	297.973	65	62
297.482	297.728	79	77
297.72	297.973	71	54
297.72	297.973	74	54
297.961	298.478	64	43
297.961	298.478	72	54
297.961	298.478	76	54
298.201	298.478	62	45
298.201	298.478	74	50
298.201	298.478	77	50
298.456	298.963	60	44
298.456	298.963	78	60
298.689	298.963	64	39
298.689	298.963	79	58
298.921	299.138	67	41
298.921	299.03	77	54
299.03	299.138	76	51
299.138	299.246	74	54
299.246	299.354	72	52
299.354	299.819	60	44
299.354	299.819	78	54
299.469	299.699	79	53
299.584	299.819	64	39
299.584	299.819	81	55
299.699	299.819	79	57
299.813	300.03	67	41
299.813	299.922	77	56
299.922	300.03	76	55
300.03	300.138	74	54
300.138	300.791	72	54
300.246	300.791	60	43
300.246	300.791	80	62
300.48	300.791	65	37
300.48	300.715	81	56
300.715	300.949	69	40
300.715	300.832	81	60
300.949	301.183	65	38
300.949	301.066	81	56
301.183	301.417	60	45
301.183	301.651	81	63
301.417	301.651	65	39
301.651	301.885	69	41
301.885	302.119	65	40
302.119	303.873	59	62
302.119	303.873	62	62
302.119	303.873	65	62
302.119	303.873	67	62
302.119	302.251	86	81
302.229	302.36	88	77
302.338	302.47	89	81
302.448	302.58	88	77
302.558	302.689	86	79
302.667	302.799	84	73
302.777	302.908	83	77
302.887	303.018	81	75
302.996	303.128	79	78
303.106	303.237	83	73
303.215	303.347	86	81
303.325	303.457	84	74
303.435	303.566	83	81
303.544	303.676	81	75
303.654	303.786	79	81
303.764	303.896	77	76
303.873	304.024	60	61
303.873	304.1	76	86
304.024	304.175	64	57
304.175	304.326	72	53
304.326	304.796	62	61
304.326	304.44	79	71
304.383	304.496	77	66
304.44	304.779	79	71
304.477	304.796	65	57
304.496	304.666	77	67
304.553	304.796	76	81
304.628	304.796	72	53
304.666	304.796	77	79
304.779	305.232	64	61
304.779	305.232	79	89
304.924	305.232	67	57
305.068	305.232	72	53
305.212	305.668	60	61
305.357	305.668	64	48
305.501	305.668	72	48
305.501	305.668	81	53
305.583	305.668	83	49
305.656	306.089	65	43
305.656	306.089	84	61
305.8	306.233	69	40
305.944	306.377	72	38
306.089	306.522	65	43
306.089	306.413	84	56
306.233	306.536	69	40
306.377	306.536	72	39
306.413	306.522	84	54
306.522	306.955	65	43
306.522	307.388	84	56
306.666	307.099	69	41
306.81	307.243	72	40
306.955	307.388	65	43
306.955	307.388	83	55
307.063	307.388	81	50
307.099	307.388	69	41
307.171	307.388	79	53
307.243	307.388	72	40
307.28	307.388	77	51
307.388	307.845	60	57
307.388	307.845	76	78
307.536	307.845	64	55
307.684	307.845	72	50
307.832	308.276	62	57
307.832	307.943	79	72
307.887	307.999	77	68
307.943	308.276	79	72
307.98	308.276	65	54
307.999	308.165	77	68
308.054	308.276	76	82
308.128	308.276	72	51
308.165	308.276	77	79
308.276	308.72	64	57
308.276	308.72	79	87
308.42	308.72	67	54
308.565	308.72	72	51
308.709	309.161	60	57
308.853	309.161	64	54
308.998	309.161	72	49
308.998	309.161	81	53
309.077	309.161	83	48
309.157	309.59	65	38
309.157	309.59	84	61
309.301	309.734	69	36
309.446	309.879	72	36
309.59	310.023	65	38
309.59	309.915	84	55
309.734	310.036	69	36
309.879	310.036	72	36
309.915	310.023	84	52
310.023	310.456	65	43
310.023	310.889	84	55
310.168	310.601	69	39
310.312	310.745	72	39
310.456	310.889	65	43
310.456	310.889	83	54
310.564	310.889	81	52
310.601	310.889	69	40
310.673	310.889	79	54
310.745	310.889	72	40
310.781	310.889	77	53
310.889	311.122	60	64
310.889	311.006	76	83
311.122	311.252	84	78
311.23	311.36	86	78
311.338	311.468	88	81
311.447	311.576	86	78
311.555	311.685	84	81
311.663	311.793	83	78
311.771	311.988	53	64
311.771	311.901	81	81
311.88	312.01	79	78
311.988	312.119	77	81
312.097	312.229	76	76
312.207	312.34	74	81
312.317	312.45	72	76
312.428	312.562	71	81
312.54	312.676	69	73
312.652	312.898	55	60
312.652	312.898	67	85
313.143	314.067	56	59
313.143	314.067	59	59
313.143	314.067	62	59
313.143	314.067	65	90
314.067	314.529	57	51
314.067	314.529	60	51
314.067	314.529	64	76
314.529	314.977	53	43
314.529	314.977	57	43
314.76	314.868	62	55
314.977	315.085	65	54
315.193	315.301	69	53
315.41	315.626	73	55
315.626	315.843	74	54
315.843	316.059	77	55
316.059	316.276	81	53
316.276	316.508	81	61
316.508	316.741	72	55
316.741	318.094	55	44
316.741	317.235	64	44
316.741	318.094	72	54
317.206	318.094	65	44
317.645	318.094	71	56
317.645	318.094	76	56
317.87	318.094	74	54
318.094	318.327	60	46
318.094	318.56	64	46
318.094	318.56	72	54
318.56	318.792	48	44
319.025	319.241	79	76
319.241	319.458	76	72
319.458	319.674	84	57
319.674	319.784	83	53
319.894	320.003	81	51
320.113	320.223	79	49
320.332	320.442	77	54
320.551	320.661	76	50
320.771	320.993	74	53
321.215	321.437	76	54
321.659	321.883	79	58
321.883	322.106	78	54
322.106	322.553	59	43
322.106	322.986	67	43
322.106	322.33	77	54
322.553	322.986	60	43
322.553	322.77	76	51
322.77	322.986	77	54
322.986	323.203	79	57
323.203	323.311	80	59
323.419	324.294	53	43
323.419	324.294	60	43
323.419	323.53	83	48
323.475	323.586	81	49
323.53	323.641	83	51
323.586	323.697	81	54
323.641	323.752	83	53
323.697	324.077	81	58
323.752	324.077	83	62
323.861	324.077	84	68
324.077	324.185	83	61
324.294	324.402	81	62
324.51	324.619	79	57
324.728	325.176	54	40
324.728	325.176	57	40
324.728	324.837	77	60
324.946	325.063	76	57
325.176	326.076	55	43
325.176	325.626	60	43
325.176	325.626	79	64
325.513	325.626	76	61
325.626	326.076	59	40
325.626	325.851	74	61
326.076	326.4	67	77
326.076	326.4	79	86
326.4	326.455	69	68
326.4	326.455	81	81
326.455	326.509	71	63
326.455	326.509	83	76
326.509	326.725	72	69
326.509	326.725	84	85
326.725	326.833	71	56
326.725	326.833	83	62
326.942	327.05	69	56
326.942	327.05	81	62
327.158	327.266	67	52
327.158	327.266	79	60
327.375	327.483	65	56
327.375	327.483	77	62
327.591	327.699	64	52
327.591	327.699	76	59
327.808	328.028	62	57
327.808	328.028	74	63
328.249	328.47	64	62
328.249	328.47	76	70
328.69	328.911	65	67
328.69	328.911	77	72
329.132	329.354	66	69
329.132	329.354	78	78
329.577	329.801	67	70
329.577	329.801	79	79
330.026	330.251	68	72
330.026	330.251	80	82
330.478	330.82	69	77
330.478	330.939	81	85
330.82	330.939	69	79
330.928	331.371	53	48
330.928	331.371	62	48
330.928	331.371	77	84
331.258	331.371	74	81
331.369	332.252	55	48
331.369	331.854	64	48
331.369	331.854	72	77
331.763	331.854	76	64
331.819	332.252	65	48
331.819	332.252	71	71
331.819	332.252	74	71
332.252	332.707	60	60
332.252	332.707	72	71
332.476	332.707	64	52
332.7	333.157	67	57
332.808	333.157	72	64
332.916	333.157	64	53
332.916	333.157	74	65
333.024	333.157	76	66
333.133	333.604	60	60
333.133	333.188	79	68
333.166	333.222	77	59
333.2	333.483	79	68
333.233	333.375	77	59
333.267	333.604	76	70
333.375	333.604	65	53
333.375	333.604	77	71
333.483	333.604	79	72
333.591	334.043	69	57
333.591	333.644	83	66
333.623	333.676	81	54
333.655	333.935	83	65
333.686	333.826	81	55
333.718	334.043	79	75
333.826	334.043	65	51
333.826	334.043	81	76
333.935	334.043	83	78
334.043	334.268	60	60
334.043	334.155	84	87
334.268	334.493	64	47
334.268	334.38	84	84
334.493	334.937	67	54
334.601	334.937	72	63
334.709	334.937	64	49
334.709	334.937	74	65
334.817	334.937	76	66
334.926	335.396	60	60
334.926	334.992	79	64
334.959	335.025	77	54
334.992	335.275	79	64
335.025	335.167	77	53
335.058	335.396	76	70
335.167	335.396	65	53
335.167	335.396	77	72
335.275	335.396	79	72
335.383	335.838	69	57
335.383	335.437	83	64
335.415	335.47	81	53
335.448	335.73	83	64
335.481	335.622	81	53
335.513	335.838	79	76
335.622	335.838	65	52
335.622	335.838	81	78
335.73	335.838	83	79
335.838	336.285	60	58
335.838	336.285	64	58
335.838	336.285	67	58
335.838	335.95	84	88
336.061	336.173	84	86
336.285	336.718	65	46
336.285	337.162	67	46
336.393	336.61	79	55
336.501	336.718	83	58
336.61	336.718	79	55
336.718	337.162	64	44
336.718	336.829	84	59
336.94	337.051	84	59
337.162	337.595	65	43
337.162	338.039	67	43
337.27	337.487	79	54
337.379	337.595	83	57
337.487	337.595	79	54
337.595	338.039	64	45
337.595	337.706	84	59
337.817	337.928	84	66
338.039	338.256	65	52
338.039	338.256	67	52
338.148	338.364	79	67
338.256	338.485	65	52
338.256	338.472	67	54
338.256	338.485	83	71
338.364	338.485	79	68
338.472	338.689	64	52
338.472	338.689	67	57
338.472	338.689	84	75
338.581	338.798	79	72
338.689	338.934	64	52
338.689	338.908	67	60
338.689	338.934	84	79
338.798	338.934	79	75
338.908	339.13	59	52
338.908	339.13	67	62
338.908	339.13	86	83
339.019	339.241	79	81
339.13	339.354	59	52
339.13	339.354	67	65
339.13	339.354	86	88
339.241	339.354	79	83
339.354	341.166	60	67
339.354	341.166	67	67
339.354	341.166	88	91
339.58	340.033	84	80
339.807	340.486	79	82
340.033	341.166	84	79
340.26	340.939	76	78
340.486	341.166	79	71
340.713	341.166	72	72
340.939	341.166	76	69
341.166	341.618	69	60
341.386	341.618	81	60
341.607	342.06	53	44
341.607	342.06	57	44
341.607	342.06	62	44
341.607	342.06	79	63
341.717	342.06	77	58
341.828	342.06	76	63
341.938	342.06	74	58
342.048	342.954	55	44
342.048	342.511	60	44
342.048	342.511	64	44
342.048	342.501	72	63
342.501	342.954	62	43
342.501	342.954	65	43
342.501	342.577	72	63
342.577	342.728	71	60
342.652	342.954	72	63
342.728	342.879	71	59
342.803	342.954	69	63
342.879	342.954	71	60
342.954	343.412	60	60
342.954	343.412	72	71
343.178	343.412	64	52
343.401	343.848	67	57
343.51	343.848	72	64
343.618	343.848	64	52
343.618	343.848	74	65
343.726	343.848	76	66
343.834	344.257	60	60
343.834	343.868	79	68
343.868	343.901	77	63
343.901	343.934	79	68
343.934	344.075	77	64
343.967	344.257	76	70
344.075	344.292	65	53
344.075	344.257	77	71
344.183	344.292	79	72
344.292	344.749	69	57
344.292	344.358	83	70
344.325	344.391	81	64
344.358	344.641	83	70
344.391	344.533	81	64
344.424	344.749	79	75
344.533	344.749	65	57
344.533	344.749	81	76
344.641	344.749	83	78
344.749	344.974	60	60
344.749	344.861	84	84
344.974	345.199	64	52
344.974	345.086	84	81
345.199	345.651	67	57
345.307	345.651	72	63
345.415	345.651	64	51
345.415	345.651	74	65
345.523	345.651	76	66
345.632	346.076	60	60
345.632	345.664	79	64
345.664	345.697	77	59
345.697	345.979	79	64
345.73	345.87	77	61
345.762	346.076	76	70
345.87	346.087	65	53
345.87	346.076	77	72
345.979	346.087	79	72
346.087	346.541	69	57
346.087	346.119	83	70
346.119	346.184	81	64
346.151	346.432	83	70
346.184	346.324	81	64
346.216	346.541	79	76
346.324	346.541	65	51
346.324	346.541	81	78
346.432	346.541	83	79
346.541	346.988	60	60
346.541	346.988	64	60
346.541	346.988	67	60
346.541	346.652	84	84
346.764	346.876	84	80
346.988	347.421	65	46
346.988	347.865	67	46
347.096	347.312	79	55
347.204	347.376	83	59
347.312	347.421	79	55
347.421	347.865	64	44
347.421	347.532	84	59
347.643	347.754	84	59
347.865	348.298	65	42
347.865	348.742	67	42
347.973	348.19	79	54
348.081	348.298	83	56
348.19	348.298	79	54
348.298	348.742	64	45
348.298	348.409	84	59
348.52	348.631	84	59
348.742	348.959	65	52
348.742	348.959	67	52
348.85	349.067	79	67
348.959	349.193	65	52
348.959	349.175	67	54
348.959	349.193	83	71
349.067	349.193	79	68
349.175	349.392	64	52
349.175	349.392	67	57
349.175	349.392	84	75
349.283	349.501	79	73
349.392	349.615	64	52
349.392	349.611	67	60
349.392	349.615	84	79
349.501	349.615	79	77
349.611	349.832	59	52
349.611	349.832	67	62
349.611	349.832	86	83
349.721	349.944	79	81
349.832	350.07	59	52
349.832	350.056	67	65
349.832	350.07	86	88
349.944	350.07	79	82
350.056	350.528	60	67
350.056	350.528	67	67
350.056	350.283	88	88
350.17	350.396	84	78
350.283	350.528	88	84
350.396	350.528	84	80
350.509	350.736	79	82
350.623	350.849	84	74
350.736	351.076	79	79
350.849	351.868	84	71
350.962	351.189	76	78
351.076	351.302	79	71
351.189	351.529	76	76
351.302	351.868	79	71
351.415	351.642	72	72
351.529	351.755	76	67
351.642	351.868	72	71
351.755	351.868	76	63
351.868	352.339	69	60
352.089	352.339	81	63
352.31	352.774	53	44
352.31	352.774	57	44
352.31	352.774	62	44
352.31	352.774	79	63
352.42	352.774	77	58
352.53	352.774	76	63
352.641	352.774	74	60
352.751	353.657	55	44
352.751	353.221	60	44
352.751	353.221	64	44
352.751	353.204	72	63
353.204	353.657	62	41
353.204	353.657	65	41
353.204	353.28	72	63
353.28	353.431	71	59
353.355	353.657	72	62
353.431	353.582	71	58
353.506	353.657	69	63
353.582	353.657	71	57
353.657	354.47	60	78
353.657	354.47	72	82
354.005	354.812	55	71
354.005	354.586	67	78
354.122	354.812	64	76
354.122	354.812	76	82
354.47	354.812	60	68
354.47	354.812	72	76
354.586	354.812	67	74
354.586	354.812	79	81
355.037	355.167	86	54
355.145	355.275	84	50
355.254	355.383	83	54
355.362	355.492	81	49
355.47	355.692	55	41
355.47	355.692	60	41
355.47	355.692	64	41
355.47	355.692	79	57
355.914	356.044	81	54
356.023	356.152	79	50
356.131	356.261	77	54
356.239	356.369	76	50
356.347	356.569	55	41
356.347	356.569	59	41
356.347	356.569	65	41
356.347	356.569	74	57
356.791	356.921	79	56
356.9	357.03	77	53
357.008	357.138	76	56
357.116	357.247	74	52
357.224	357.453	60	70
357.224	357.453	72	81
357.339	357.568	55	65
357.339	357.568	67	75
357.453	357.797	60	70
357.453	357.797	72	82
357.568	358.325	55	65
357.568	358.14	67	78
357.682	357.911	64	70
357.682	357.911	76	82
357.797	358.025	60	64
357.797	358.025	72	78
357.911	358.325	64	71
357.911	358.325	76	82
358.025	358.325	60	65
358.025	358.325	72	76
358.14	358.364	67	71
358.14	358.364	79	82
358.588	358.718	86	55
358.696	358.826	84	53
358.804	358.934	83	55
358.912	359.043	81	53
359.021	359.247	55	45
359.021	359.247	60	45
359.021	359.247	64	45
359.021	359.134	79	58
359.247	359.36	79	58
359.474	359.604	81	54
359.582	359.712	79	50
359.69	359.82	77	54
359.798	359.929	76	50
359.907	360.131	55	45
359.907	360.131	59	45
359.907	360.131	65	45
359.907	360.018	74	57
360.131	360.245	74	57
360.358	360.488	79	55
360.466	360.596	77	51
360.574	360.704	76	55
360.683	360.813	74	51
360.791	361.242	64	51
360.791	361.701	72	62
361.016	361.467	60	41
361.242	361.701	64	51
361.467	361.701	60	41
361.467	361.701	80	57
361.689	362.154	65	51
361.689	362.154	81	62
361.912	362.154	60	41
361.912	362.154	83	64
362.134	362.579	67	51
362.134	362.579	84	70
362.356	362.579	60	41
362.356	362.579	76	62
362.579	362.959	69	51
362.579	362.959	79	66
362.807	363.035	60	43
362.807	363.035	77	62
363.035	363.263	70	51
363.263	363.485	60	43
363.263	363.485	76	55
363.485	363.938	69	51
363.485	363.938	77	60
363.707	363.938	60	43
363.707	363.938	79	62
363.929	364.374	67	51
363.929	364.374	81	65
364.151	364.374	60	43
364.151	364.374	73	57
364.374	364.742	65	51
364.374	364.742	76	63
364.602	364.829	60	43
364.602	364.829	74	57
364.829	365.057	64	51
365.057	365.28	60	35
365.057	365.28	73	49
365.28	366.168	65	40
365.28	366.168	74	52
365.502	365.946	60	37
365.502	366.168	76	54
365.724	366.168	62	40
365.724	366.168	77	57
365.946	366.168	60	36
365.946	366.168	71	49
366.168	366.642	64	39
366.168	366.642	74	50
366.396	366.642	60	36
366.396	366.642	72	49
366.624	367.089	65	40
366.624	367.089	81	70
366.846	367.089	60	34
366.846	367.089	71	49
367.068	367.537	64	40
367.068	367.537	74	51
367.296	367.537	60	38
367.296	367.537	72	49
367.524	367.974	65	41
367.524	367.974	81	70
367.746	367.974	60	34
367.746	367.974	71	49
367.968	368.447	64	41
368.196	368.447	60	37
368.196	368.447	74	49
368.311	368.447	72	43
368.425	368.913	65	40
368.656	368.913	60	33
368.656	368.913	80	57
368.773	368.913	71	43
368.89	369.382	64	41
369.124	369.382	60	37
369.124	369.382	74	51
369.242	369.382	72	43
369.36	369.931	65	41
369.598	369.931	60	35
369.598	369.931	80	55
369.732	369.931	71	41
369.931	371.786	48	33
369.931	371.786	60	39
369.931	371.285	65	45
369.931	371.264	67	45
369.931	371.285	71	54
369.931	371.285	74	54
371.264	371.786	64	34
371.264	371.786	67	34
371.264	371.786	72	40
372.309	372.766	67	40
372.309	373.245	74	51
372.537	372.994	71	36
372.766	373.223	67	36
372.994	373.245	71	31
372.994	373.245	75	53
373.223	373.678	67	40
373.223	373.678	76	54
373.446	373.678	71	36
373.446	373.678	78	55
373.669	374.115	65	40
373.669	374.115	79	56
373.892	374.115	68	36
373.892	374.115	71	53
374.115	374.45	64	40
374.115	374.45	74	54
374.342	374.569	67	36
374.342	374.569	72	53
374.569	374.796	64	38
374.796	375.019	67	32
374.796	375.019	71	51
375.019	375.911	64	40
375.019	375.911	72	54
375.242	375.911	67	36
375.242	375.911	74	55
375.465	375.911	62	40
375.465	375.911	76	56
375.688	375.911	65	36
375.688	375.911	68	50
375.911	376.248	60	40
375.911	376.248	71	54
376.14	376.368	64	35
376.14	376.368	69	51
376.368	376.597	60	40
376.597	376.82	64	35
376.597	376.82	68	51
376.82	377.266	60	40
376.82	377.271	69	54
377.043	377.271	64	35
377.043	377.271	71	54
377.266	377.712	60	40
377.266	377.712	72	56
377.489	377.712	63	35
377.489	377.712	66	50
377.712	378.154	59	38
377.712	378.154	69	54
377.935	378.154	62	35
377.935	378.154	67	51
378.151	378.599	60	38
378.151	378.599	76	72
378.371	378.599	62	35
378.371	378.599	66	54
378.595	379.046	59	38
378.595	379.046	69	56
378.816	379.046	62	35
378.816	379.046	67	51
379.031	379.476	60	38
379.031	379.476	76	72
379.252	379.476	62	35
379.252	379.476	66	51
379.476	379.911	59	38
379.476	379.911	69	55
379.702	379.922	62	35
379.702	379.922	67	50
379.922	380.39	60	38
379.922	380.39	75	71
380.148	380.39	63	35
380.148	380.39	66	51
380.379	380.825	59	38
380.379	380.825	69	55
380.606	380.825	62	36
380.606	380.825	67	51
380.825	381.283	60	38
380.825	381.283	75	67
381.054	381.283	63	35
381.054	381.283	66	49
381.283	382.173	59	43
381.283	382.173	62	43
381.283	381.506	67	72
381.506	381.639	69	64
381.617	381.751	71	65
381.728	381.862	72	67
381.84	381.973	74	68
381.951	382.084	76	69
382.062	382.196	78	71
382.173	382.307	79	72
382.285	382.419	81	70
382.397	382.532	83	74
382.51	382.646	78	72
382.623	382.76	79	73
382.737	382.875	74	69
382.852	382.991	76	71
382.968	383.993	71	68
383.084	383.987	50	54
383.084	383.987	74	79
383.31	383.761	59	50
383.536	383.993	55	54
383.761	383.993	59	50
383.987	384.907	50	54
383.987	384.157	74	59
384.072	384.241	72	54
384.157	384.326	74	59
384.213	384.664	57	49
384.241	384.41	72	54
384.326	384.495	74	59
384.41	384.58	72	54
384.439	384.907	54	54
384.495	384.907	74	59
384.58	384.777	72	54
384.664	384.907	57	50
384.664	384.89	71	63
384.777	384.907	72	59
384.89	385.782	55	46
384.89	385.856	71	66
385.113	385.559	59	43
385.336	385.856	62	45
385.559	385.856	59	40
385.782	386.228	55	50
385.949	386.005	69	38
386.005	386.116	67	48
386.116	386.228	66	44
386.228	386.284	67	51
386.451	386.507	71	51
386.674	387.611	55	40
386.674	387.7	76	55
386.909	387.377	59	32
387.143	387.7	62	36
387.143	387.7	74	51
387.377	387.7	59	31
387.611	388.046	55	40
387.774	387.829	72	37
387.829	387.937	71	48
387.937	388.046	69	45
388.046	388.101	71	54
388.267	388.322	74	54
388.487	389.436	55	40
388.487	389.479	79	64
388.725	389.199	59	36
388.962	389.479	62	40
388.962	389.479	77	56
389.199	389.479	59	38
389.436	389.881	55	44
389.603	389.659	76	54
389.659	389.77	74	67
389.77	389.881	73	61
389.881	389.936	74	71
390.103	390.158	77	74
390.325	391.295	56	64
390.325	391.295	84	75
390.561	391.295	83	71
390.796	391.295	59	64
391.032	392.227	86	81
391.268	392.227	62	69
391.503	392.227	80	73
391.731	392.227	65	65
391.959	393.123	83	82
392.187	393.123	59	69
392.415	393.123	74	80
392.651	393.123	57	63
392.887	394.047	77	84
393.123	394.047	56	67
393.358	394.047	76	77
393.588	394.047	64	63
393.817	394.047	74	72
394.047	394.935	57	38
394.047	395.157	72	61
394.269	394.713	60	35
394.491	394.957	64	35
394.713	394.957	60	35
394.935	395.834	57	38
395.101	395.606	74	46
395.157	395.606	60	35
395.157	395.379	72	54
395.268	395.834	71	48
395.379	395.834	65	35
395.379	395.834	72	54
395.606	395.834	60	35
395.606	395.834	74	53
395.834	396.775	57	38
395.834	396.757	72	56
396.064	396.526	62	35
396.295	396.775	65	35
396.526	396.775	62	35
396.757	397.651	55	43
396.757	396.931	72	54
396.844	397.017	70	49
396.931	397.104	72	55
396.988	397.45	60	39
397.017	397.191	70	50
397.104	397.277	72	55
397.191	397.364	70	49
397.219	397.651	64	39
397.277	397.651	72	55
397.364	397.566	70	51
397.45	397.681	60	39
397.45	397.651	69	59
397.566	397.681	70	54
397.681	398.629	53	48
397.681	398.649	69	68
397.917	398.389	60	39
397.917	398.649	72	71
398.153	398.649	65	54
398.389	398.649	60	43
398.389	399.553	77	76
398.629	399.553	53	54
398.854	399.316	57	48
398.854	399.547	81	81
399.085	399.553	62	59
399.316	399.553	57	51
399.316	399.553	82	81
399.547	400.471	52	59
399.547	400.496	81	87
399.778	400.24	57	46
400.009	400.496	61	51
400.24	400.496	57	45
400.471	400.868	52	56
400.471	400.933	79	81
400.702	400.933	57	45
400.933	401.164	61	50
401.164	401.417	57	45
401.417	402.32	50	36
401.417	402.32	79	70
401.64	402.087	57	32
401.864	402.32	60	32
402.087	402.32	57	32
402.087	402.32	78	61
402.32	402.681	50	36
402.32	402.681	77	57
402.549	402.779	55	33
402.779	403.008	59	33
403.008	403.238	55	33
403.238	404.147	48	38
403.238	404.158	77	61
403.463	403.913	55	36
403.688	404.158	60	36
403.913	404.158	55	36
403.913	404.158	76	55
404.147	404.476	48	38
404.147	404.476	75	54
404.378	404.609	55	34
404.609	404.84	60	34
404.84	405.071	55	34
405.071	405.549	53	43
405.071	405.549	75	63
405.3	405.549	56	38
405.3	405.53	74	60
405.53	405.992	60	38
405.53	405.761	74	57
405.761	405.992	56	38
405.761	405.992	74	60
405.992	406.925	53	43
405.992	406.457	74	60
406.224	406.691	56	38
406.457	406.925	60	38
406.457	406.925	74	60
406.691	406.925	56	38
406.925	407.86	54	43
406.925	407.883	74	62
407.161	407.632	57	45
407.343	407.883	77	64
407.404	407.883	60	48
407.404	408.788	75	72
407.632	407.883	57	45
407.86	408.788	54	43
408.088	408.558	57	39
408.269	408.788	74	57
408.329	408.788	60	39
408.329	408.788	72	63
408.558	408.788	57	39
408.788	409.247	55	39
408.788	409.4	71	54
409.017	409.4	79	54
409.247	409.704	55	41
409.476	409.704	79	56
409.704	410.156	55	45
409.704	410.156	57	45
409.93	410.156	78	57
410.156	410.604	55	46
410.156	410.604	59	46
410.38	410.604	77	60
410.604	411.062	55	50
410.604	411.062	60	50
410.604	411.051	77	64
410.833	411.062	76	61
411.062	411.514	55	48
411.062	411.514	67	48
411.289	411.514	75	59
411.514	411.959	55	46
411.514	411.959	65	46
411.737	411.959	74	56
411.959	412.397	55	44
411.959	412.397	63	44
412.179	412.397	72	54
412.397	412.856	55	45
412.397	412.894	62	45
412.397	412.894	72	60
412.627	412.894	71	54
412.856	413.315	55	48
412.856	413.324	59	48
412.971	413.2	79	56
413.085	413.324	81	60
413.2	413.324	79	55
413.315	413.774	55	51
413.315	413.78	57	51
413.43	413.659	78	61
413.544	413.78	79	66
413.659	413.78	78	60
413.774	414.233	55	54
413.774	414.236	59	54
413.889	414.118	77	63
414.003	414.236	79	70
414.118	414.236	77	65
414.233	414.692	55	57
414.233	414.705	60	57
414.347	414.577	76	73
414.462	414.705	77	76
414.577	414.705	76	71
414.692	415.147	55	61
414.692	415.153	67	61
414.806	415.033	75	73
414.92	415.153	77	80
415.033	415.153	75	73
415.147	415.621	55	64
415.147	415.621	65	64
415.261	415.487	74	79
415.374	415.621	75	83
415.487	415.621	74	79
415.6	416.05	54	67
415.6	416.05	63	67
415.713	415.938	72	82
415.825	416.05	74	87
415.938	416.05	72	86
416.05	416.498	55	71
416.05	416.498	62	71
416.05	416.274	71	88
416.218	416.449	72	71
416.274	416.449	71	75
416.386	416.498	69	75
416.498	416.721	71	79
416.721	416.833	72	76
416.945	417.056	74	79
417.112	417.168	76	68
417.168	417.281	74	72
417.281	417.394	73	72
417.394	417.621	74	79
417.621	417.735	76	79
417.85	418.303	55	38
417.85	418.303	62	38
417.85	418.303	77	73
418.41	418.517	79	54
418.517	418.731	61	38
418.517	418.624	76	56
418.624	418.731	79	54
418.731	419.172	55	38
418.731	419.172	62	38
418.731	419.172	77	54
419.278	419.384	79	53
419.384	419.595	61	38
419.384	419.489	76	56
419.489	419.595	79	53
419.595	420.036	55	38
419.595	420.036	62	38
419.595	420.036	77	53
420.146	420.257	79	55
420.257	420.477	61	40
420.257	420.367	76	57
420.367	420.477	79	61
420.477	420.923	55	45
420.477	420.71	62	45
420.477	420.71	77	63
420.588	420.71	79	66
420.699	420.936	61	49
420.699	420.936	76	70
420.811	420.936	79	68
420.923	421.374	55	54
420.923	421.169	62	54
420.923	421.169	77	75
421.035	421.169	79	73
421.148	421.374	61	59
421.148	421.374	76	81
421.261	421.374	79	79
421.374	422.28	55	63
421.374	422.28	62	63
421.374	421.601	77	86
421.601	421.714	76	72
421.827	421.941	74	77
422.054	422.167	72	72
422.28	422.397	71	60
422.514	422.631	57	54
422.514	422.631	72	62
422.748	422.865	59	54
422.748	422.865	74	59
422.982	423.1	60	54
422.982	423.1	76	56
423.217	423.334	62	52
423.217	423.334	77	62
423.451	423.568	60	55
423.451	423.568	76	57
423.685	423.802	59	59
423.685	423.802	74	61
423.919	424.036	60	62
423.919	424.036	76	64
424.153	424.272	62	65
424.153	424.272	77	67
424.392	424.513	61	67
424.392	424.513	76	71
424.636	424.76	62	71
424.636	424.76	77	73
424.885	425.026	63	73
424.885	425.026	78	77
425.158	425.623	64	50
425.158	425.623	79	86
425.39	425.856	60	45
425.623	426.088	64	51
425.623	426.559	79	82
425.856	426.321	60	45
426.088	426.537	64	51
426.321	426.559	60	40
426.321	426.559	77	71
426.429	426.537	76	69
426.537	426.97	64	45
426.537	426.979	76	70
426.645	426.97	74	66
426.754	426.979	60	43
426.754	426.979	72	67
426.862	426.979	71	66
426.97	427.414	64	51
426.97	427.137	74	52
427.054	427.22	72	51
427.137	427.303	74	55
427.192	427.636	60	45
427.22	427.387	72	52
427.303	427.47	74	57
427.387	427.553	72	53
427.414	427.853	64	51
427.47	427.636	74	59
427.553	427.884	72	58
427.636	427.884	60	40
427.636	427.884	74	62
427.745	427.884	76	67
427.853	428.314	64	46
427.853	428.756	67	71
428.084	428.535	60	31
428.314	428.756	64	35
428.535	428.756	60	31
428.756	429.224	64	51
428.756	428.99	79	86
428.99	429.458	60	36
428.99	429.224	79	78
429.224	429.692	64	43
429.224	430.161	79	76
429.458	429.926	60	36
429.692	430.161	64	43
429.926	430.161	60	36
429.926	430.161	77	64
430.034	430.143	76	61
430.143	430.577	65	40
430.143	430.577	76	64
430.251	430.576	74	61
430.359	430.577	60	36
430.359	430.577	72	61
430.467	430.577	71	60
430.576	431.02	64	38
430.576	430.742	74	48
430.659	430.825	72	49
430.742	430.909	74	50
430.798	431.242	60	34
430.825	430.992	72	49
430.909	431.075	74	52
430.992	431.159	72	50
431.02	431.458	64	39
431.075	431.242	74	55
431.159	431.481	72	52
431.242	431.481	60	33
431.242	431.481	74	57
431.35	431.481	76	61
431.458	431.906	64	38
431.458	432.348	67	65
431.682	432.127	60	30
431.906	432.348	64	33
432.127	432.348	60	29
432.348	432.564	65	34
432.348	432.456	69	56
432.564	432.781	60	29
432.564	432.673	72	54
432.781	433.002	65	34
432.781	432.892	77	56
433.002	433.231	60	30
433.002	433.117	81	54
433.231	433.46	65	34
433.231	433.346	84	66
433.46	433.68	60	30
433.46	433.57	89	70
433.68	434.118	65	34
433.899	434.118	60	30
434.118	434.33	64	36
434.118	434.224	67	58
434.33	434.538	60	32
434.33	434.434	72	56
434.538	434.747	64	36
434.538	434.642	76	58
434.747	434.976	60	30
434.747	434.861	79	55
434.976	435.197	64	36
434.976	435.086	84	66
435.197	435.417	60	30
435.197	435.307	88	74
435.417	435.715	64	36
435.638	435.859	60	30
435.748	436.79	67	63
435.859	436.315	60	57
435.859	436.315	64	57
435.859	437.226	79	87
436.087	436.543	55	50
436.315	436.79	60	57
436.315	436.79	64	57
436.543	436.79	55	50
436.771	437.226	59	54
436.771	437.226	62	54
436.999	437.454	55	46
437.226	437.686	59	51
437.226	437.686	62	51
437.226	437.34	79	68
437.283	437.568	77	64
437.34	437.686	79	68
437.397	437.454	76	64
437.454	437.686	55	44
437.454	437.686	76	77
437.568	437.686	77	73
437.682	438.145	60	48
437.682	438.145	75	78
437.912	438.145	48	45
438.141	438.604	52	48
438.141	438.604	76	75
438.363	438.604	55	45
438.585	439.474	60	57
438.808	439.252	64	48
439.03	439.474	67	52
439.252	439.474	64	48
439.474	439.902	65	37
439.474	440.353	69	61
439.581	440.353	72	57
439.688	440.115	60	28
439.688	440.353	74	61
439.796	440.353	76	56
439.902	440.333	65	37
439.902	440.353	77	61
440.008	440.353	79	58
440.115	440.353	60	29
440.115	440.353	81	61
440.226	440.353	83	57
440.333	440.796	65	37
440.333	441.237	84	72
440.573	441.016	60	27
440.796	441.237	65	32
441.016	441.237	60	29
441.237	441.665	64	37
441.237	442.122	67	63
441.344	442.122	72	58
441.452	441.878	60	29
441.452	442.122	74	63
441.558	442.122	76	56
441.665	442.103	64	37
441.665	442.122	77	63
441.772	442.122	79	58
441.878	442.122	60	28
441.878	442.122	81	63
441.991	442.122	83	58
442.103	442.559	64	37
442.103	442.994	84	72
442.337	442.777	60	27
442.559	442.994	64	33
442.777	442.994	60	29
442.994	443.203	60	51
442.994	443.417	64	51
442.994	443.203	81	85
443.203	443.417	55	45
443.203	443.417	79	79
443.417	443.631	60	51
443.417	443.846	64	51
443.417	443.524	77	82
443.631	443.846	55	45
443.631	443.738	76	78
443.846	444.055	62	51
443.846	444.268	65	51
443.846	444.055	76	85
444.055	444.268	55	43
444.055	444.268	74	74
444.268	444.481	62	48
444.268	444.694	65	48
444.268	444.374	72	77
444.481	444.694	55	45
444.481	444.587	71	76
444.694	445.565	60	56
444.694	445.565	64	56
444.694	444.824	72	77
444.803	444.933	67	68
444.911	445.042	69	72
445.02	445.151	71	70
445.129	445.26	72	75
445.238	445.369	74	73
445.347	445.478	76	78
445.456	445.587	77	76
445.565	445.696	79	80
445.674	445.805	81	77
445.783	445.914	83	78
445.892	446.001	84	75
446.001	446.113	79	81
446.226	446.338	79	79
446.451	446.887	55	46
446.451	446.887	64	46
446.56	446.779	79	54
446.67	446.873	81	57
446.779	446.887	79	54
446.887	447.335	55	40
446.887	447.348	62	40
446.999	447.223	77	54
447.111	447.348	79	57
447.223	447.348	77	54
447.335	447.776	55	46
447.335	447.782	60	46
447.447	447.668	76	54
447.559	447.782	77	56
447.668	447.782	76	54
447.776	448.224	55	42
447.776	448.224	59	42
447.888	448.112	74	54
448.0	448.224	76	56
448.112	448.224	74	54
448.224	449.09	60	58
448.224	448.354	72	83
448.332	448.462	67	76
448.441	448.571	69	79
448.549	448.679	71	75
448.657	448.787	72	81
448.765	448.895	74	79
448.874	449.004	76	82
448.982	449.112	77	78
449.09	449.22	79	81
449.198	449.328	81	76
449.307	449.437	83	80
449.415	449.523	84	75
449.523	449.636	79	82
449.748	449.861	79	80
449.973	450.414	55	46
449.973	450.422	64	46
450.082	450.302	79	54
450.191	450.422	81	56
450.302	450.422	79	54
450.414	450.867	55	42
450.414	450.873	62	42
450.526	450.753	77	54
450.638	450.873	79	56
450.753	450.873	77	54
450.867	451.309	55	45
450.867	451.324	60	45
450.976	451.197	76	54
451.085	451.324	77	56
451.197	451.324	76	54
451.309	451.756	55	45
451.309	451.756	59	45
451.421	451.644	74	54
451.532	451.717	76	54
451.644	451.756	74	54
451.756	451.879	48	62
451.756	451.879	72	81
452.002	452.219	60	68
452.002	452.435	72	81
452.219	452.435	59	59
452.435	452.652	58	59
452.435	452.543	74	73
452.543	452.652	76	70
452.652	452.767	57	63
452.652	452.767	77	82
452.883	453.099	57	67
452.883	453.316	77	79
453.099	453.316	55	61
453.316	453.532	53	61
453.316	453.424	79	76
453.424	453.532	81	76
453.532	453.749	52	60
453.532	453.749	79	83
453.749	453.965	76	77
453.965	454.19	48	60
453.965	454.078	84	82
454.19	454.303	84	78
454.415	454.523	86	81
454.523	454.632	84	76
454.632	454.742	83	78
454.742	454.852	81	73
454.852	455.316	48	51
454.852	455.316	60	51
454.852	454.966	81	73
454.966	455.079	79	66
455.079	455.198	77	68
455.198	455.316	76	64
455.316	456.23	55	51
455.316	456.23	64	51
455.316	456.23	79	68
455.982	456.23	60	54
455.982	456.23	76	69
456.204	456.643	59	54
456.204	456.643	74	67
456.426	456.643	43	71
456.643	456.867	47	72
456.867	457.099	50	69
457.099	457.54	55	45
457.099	457.54	73	60
457.322	457.546	59	42
457.322	457.546	74	56
457.546	457.762	62	40
457.546	457.654	72	55
457.654	457.762	71	52
457.762	457.871	69	55
457.871	457.979	67	53
457.979	458.437	55	45
457.979	458.437	73	61
458.202	458.437	59	43
458.202	458.437	74	59
458.426	458.643	62	41
458.426	458.534	72	55
458.534	458.643	71	54
458.643	458.751	69	55
458.751	458.859	67	53
458.859	459.781	55	44
458.859	459.833	75	64
459.09	459.551	60	40
459.09	459.32	76	61
459.32	459.833	64	43
459.32	459.551	76	63
459.551	459.833	60	41
459.551	459.781	76	59
459.781	460.676	55	44
459.781	460.676	76	63
460.003	460.448	60	40
460.226	460.676	64	43
460.448	460.676	60	40
460.559	460.676	69	60
460.67	461.541	54	57
460.67	461.805	81	87
460.888	461.78	57	51
461.106	461.805	60	54
461.323	461.805	79	76
461.396	461.805	78	72
461.469	461.805	76	76
461.541	461.805	54	57
461.541	461.805	74	84
461.78	462.008	57	51
461.78	461.894	86	82
462.008	462.236	60	54
462.008	462.122	86	82
462.236	462.359	86	79
462.482	463.652	53	57
462.482	463.184	86	90
462.716	463.652	57	52
462.95	463.652	59	57
463.067	463.301	83	74
463.184	463.652	62	52
463.184	463.652	86	77
463.301	463.652	83	76
463.418	463.89	65	62
463.418	463.652	79	77
463.65	463.89	71	54
463.65	463.89	74	54
463.89	464.412	64	43
463.89	464.412	72	54
463.89	464.412	76	54
464.134	464.412	62	45
464.134	464.412	74	50
464.134	464.412	77	50
464.391	464.897	60	44
464.391	464.897	78	60
464.623	464.897	64	39
464.623	464.897	79	58
464.856	465.072	67	41
464.856	464.964	77	54
464.964	465.072	76	51
465.072	465.181	74	54
465.181	465.289	72	52
465.289	465.786	60	44
465.289	465.786	78	54
465.404	465.633	79	53
465.518	465.786	64	39
465.518	465.786	81	55
465.633	465.786	79	57
465.748	465.964	67	41
465.748	465.856	77	56
465.856	465.964	76	55
465.964	466.072	74	54
466.072	466.725	72	54
466.181	466.725	60	43
466.181	466.725	80	62
466.415	466.725	65	37
466.415	466.649	81	56
466.649	466.883	69	40
466.649	466.766	81	60
466.883	467.117	65	38
466.883	467.0	81	56
467.117	467.351	60	45
467.117	467.585	81	63
467.351	467.585	65	39
467.585	467.819	69	41
467.819	468.053	65	40
468.053	469.808	59	52
468.053	469.808	62	52
468.053	469.808	65	52
468.053	469.808	67	62
468.053	468.185	86	81
468.163	468.295	88	77
468.273	468.404	89	81
468.382	468.514	88	77
468.492	468.624	86	79
468.602	468.733	84	73
468.711	468.843	83	77
468.821	468.952	81	75
468.931	469.062	79	78
469.04	469.172	83	73
469.15	469.281	86	81
469.259	469.391	84	74
469.369	469.501	83	81
469.479	469.61	81	75
469.588	469.72	79	81
469.698	469.83	77	76
469.808	469.959	60	61
469.808	470.034	76	86
469.959	470.11	64	57
470.11	470.261	72	53
470.261	470.73	62	61
470.261	470.374	79	71
470.317	470.431	77	66
470.374	470.714	79	71
470.412	470.73	65	57
470.431	470.6	77	67
470.487	470.73	76	81
470.563	470.73	72	53
470.6	470.73	77	79
470.714	471.167	64	61
470.714	471.167	79	89
470.858	471.167	67	57
471.002	471.167	72	53
471.147	471.603	60	61
471.291	471.603	64	48
471.435	471.603	72	48
471.435	471.603	81	53
471.518	471.603	83	49
471.59	472.03	65	43
471.59	472.03	84	61
471.739	472.174	69	40
471.886	472.317	72	38
472.03	472.461	65	43
472.03	472.353	84	56
472.174	472.47	69	40
472.317	472.47	72	39
472.353	472.461	84	54
472.461	472.893	65	43
472.461	473.326	84	56
472.605	473.037	69	41
472.749	473.182	72	40
472.893	473.326	65	43
472.893	473.326	83	55
473.001	473.326	81	50
473.037	473.326	69	41
473.11	473.326	79	53
473.182	473.326	72	40
473.218	473.326	77	51
473.326	473.787	60	57
473.326	473.787	76	78
473.474	473.787	64	55
473.622	473.787	72	50
473.77	474.214	62	57
473.77	473.826	79	72
473.826	473.937	77	68
473.881	474.214	79	72
473.918	474.214	65	54
473.937	474.103	77	68
473.992	474.214	76	82
474.066	474.214	72	51
474.103	474.214	77	79
474.214	474.664	64	57
474.214	474.664	79	87
474.359	474.664	67	54
474.503	474.664	72	51
474.647	475.095	60	57
474.792	475.095	64	54
474.936	475.095	72	49
474.936	475.095	81	53
475.016	475.095	83	48
475.095	475.533	65	38
475.095	475.533	84	61
475.244	475.677	69	36
475.39	475.821	72	36
475.533	475.965	65	38
475.533	475.857	84	55
475.677	475.978	69	36
475.821	475.978	72	36
475.857	475.965	84	52
475.965	476.397	65	43
475.965	476.828	84	55
476.109	476.541	69	39
476.253	476.685	72	39
476.397	476.828	65	43
476.397	476.828	83	54
476.505	476.828	81	52
476.541	476.828	69	40
476.613	476.828	79	54
476.685	476.828	72	40
476.721	476.828	77	53
476.828	477.061	60	64
476.828	476.945	76	85
477.061	477.169	84	78
477.169	477.278	86	78
477.278	477.386	88	81
477.386	477.494	86	78
477.494	477.602	84	81
477.602	477.711	83	78
477.711	477.928	53	64
477.711	477.819	81	81
477.819	477.928	79	78
477.928	478.037	77	81
478.037	478.146	76	76
478.146	478.257	74	81
478.257	478.368	72	76
478.368	478.479	71	81
478.479	478.591	69	73
478.591	478.837	55	60
478.591	478.837	67	85
479.083	480.006	56	50
479.083	480.006	59	50
479.083	480.006	62	59
479.083	480.006	65	90
480.006	480.468	57	43
480.006	480.468	60	51
480.006	480.468	64	76
480.468	480.916	53	36
480.468	480.916	57	43
480.699	480.808	62	55
480.916	481.024	65	54
481.132	481.241	69	53
481.349	481.565	73	55
481.565	481.782	74	54
481.782	481.998	77	55
481.998	482.243	81	53
482.243	482.475	81	61
482.475	482.708	72	55
482.708	484.061	55	44
482.708	483.186	64	44
482.708	484.061	72	54
483.173	484.061	65	44
483.612	484.061	71	56
483.612	484.061	76	56
483.837	484.061	74	54
484.061	484.294	60	46
484.061	484.527	64	46
484.061	484.527	72	54
484.527	484.759	48	44
484.992	485.208	79	75
485.208	485.425	76	72
485.425	485.641	84	57
485.641	485.751	83	53
485.861	485.97	81	51
486.08	486.19	79	49
486.299	486.409	77	54
486.518	486.628	76	50
486.738	486.96	74	53
487.182	487.404	76	54
487.626	487.85	79	58
487.85	488.073	78	54
488.073	488.52	59	43
488.073	488.953	67	43
488.073	488.297	77	54
488.52	488.953	60	43
488.52	488.737	76	51
488.737	488.953	77	54
488.953	489.17	79	57
489.17	489.278	80	59
489.386	490.261	53	43
489.386	490.261	60	43
489.386	489.497	83	48
489.442	489.553	81	49
489.497	489.608	83	51
489.553	489.664	81	54
489.608	489.719	83	53
489.664	490.044	81	58
489.719	490.044	83	62
489.828	490.044	84	68
490.044	490.152	83	61
490.261	490.369	81	62
490.477	490.586	79	57
490.695	491.143	54	40
490.695	491.143	57	40
490.695	490.804	77	60
490.913	491.03	76	57
491.143	492.043	55	43
491.143	491.593	60	43
491.143	491.593	79	64
491.48	491.593	76	61
491.593	492.043	59	40
491.593	491.818	74	61
492.043	492.367	67	77
492.043	492.367	79	86
492.367	492.422	69	68
492.367	492.422	81	81
492.422	492.476	71	63
492.422	492.476	83	76
492.476	492.692	72	69
492.476	492.692	84	85
492.692	492.8	71	56
492.692	492.8	83	62
492.909	493.017	69	56
492.909	493.017	81	62
493.125	493.233	67	52
493.125	493.233	79	60
493.342	493.45	65	56
493.342	493.45	77	62
493.558	493.666	64	52
493.558	493.666	76	59
493.775	493.995	62	57
493.775	493.995	74	63
494.216	494.437	64	62
494.216	494.437	76	70
494.657	494.878	65	67
494.657	494.878	77	72
495.099	495.321	66	69
495.099	495.321	78	78
495.544	495.768	67	70
495.544	495.768	79	81
495.993	496.218	68	72
495.993	496.218	80	78
496.445	496.787	69	77
496.445	496.899	81	86
496.787	496.899	69	81
496.895	497.336	53	48
496.895	497.336	62	48
496.895	497.336	77	83
497.225	497.336	74	81
497.336	498.219	55	48
497.336	497.806	64	48
497.336	497.806	72	77
497.73	497.806	76	64
497.786	498.219	65	48
497.786	498.219	71	71
497.786	498.219	74	71
498.219	498.667	60	60
498.219	498.667	72	71
498.443	498.667	64	52
498.667	499.094	67	57
498.775	499.094	72	64
498.883	499.094	64	53
498.883	499.094	74	65
498.989	499.094	76	66
499.094	499.525	60	60
499.094	499.161	79	68
499.128	499.195	77	59
499.161	499.442	79	68
499.195	499.336	77	59
499.228	499.525	76	70
499.336	499.548	65	53
499.336	499.525	77	71
499.442	499.548	79	72
499.548	499.995	69	57
499.548	499.611	83	66
499.58	499.643	81	54
499.611	499.889	83	65
499.643	499.783	81	55
499.675	499.995	79	75
499.783	499.995	65	51
499.783	499.995	81	76
499.889	499.995	83	78
499.995	500.219	60	60
499.995	500.107	84	87
500.219	500.444	64	47
500.219	500.332	84	84
500.444	500.867	67	54
500.553	500.867	72	63
500.661	500.872	64	49
500.661	500.867	74	65
500.767	500.872	76	66
500.872	501.366	60	60
500.872	500.939	79	64
500.905	500.972	77	54
500.939	501.219	79	64
500.972	501.113	77	53
501.005	501.366	76	70
501.113	501.366	65	53
501.113	501.366	77	72
501.219	501.366	79	72
501.325	501.775	69	57
501.325	501.39	83	64
501.357	501.423	81	53
501.39	501.669	83	64
501.423	501.563	81	53
501.455	501.775	79	76
501.563	501.775	65	52
501.563	501.775	81	78
501.669	501.775	83	79
501.775	502.222	60	58
501.775	502.222	64	58
501.775	502.222	67	58
501.775	501.886	84	88
501.998	502.11	84	86
502.222	502.655	65	46
502.222	503.099	67	46
502.33	502.546	79	55
502.438	502.655	83	58
502.546	502.655	79	55
502.655	503.099	64	44
502.655	502.766	84	59
502.877	502.988	84	59
503.099	503.532	65	43
503.099	503.965	67	43
503.207	503.424	79	54
503.315	503.532	83	57
503.424	503.532	79	54
503.532	503.965	64	45
503.532	503.643	84	59
503.754	503.86	84	66
503.965	504.182	65	52
503.965	504.182	67	52
504.073	504.287	79	67
504.182	504.406	65	52
504.182	504.393	67	54
504.182	504.406	83	71
504.287	504.406	79	68
504.393	504.61	64	52
504.393	504.61	67	57
504.393	504.61	84	75
504.501	504.719	79	72
504.61	504.834	64	52
504.61	504.829	67	60
504.61	504.834	84	79
504.719	504.834	79	75
504.829	505.05	59	52
504.829	505.05	67	62
504.829	505.05	86	83
504.939	505.162	79	81
505.05	505.274	59	52
505.05	505.274	67	65
505.05	505.274	86	88
505.162	505.274	79	83
505.274	507.086	60	67
505.274	507.086	67	67
505.274	507.086	88	91
505.501	505.954	84	80
505.727	506.407	79	82
505.954	507.086	84	79
506.18	506.86	76	78
506.407	507.086	79	71
506.633	507.086	72	72
506.86	507.086	76	69
507.086	507.539	69	60
507.307	507.539	81	60
507.528	507.98	53	44
507.528	507.98	57	44
507.528	507.98	62	44
507.528	507.98	79	63
507.638	507.98	77	58
507.748	507.98	76	63
507.859	507.98	74	58
507.969	508.875	55	44
507.969	508.428	60	44
507.969	508.428	64	44
507.969	508.422	72	63
508.422	508.875	62	43
508.422	508.875	65	43
508.422	508.498	72	63
508.498	508.649	71	60
508.573	508.875	72	63
508.649	508.8	71	59
508.724	508.875	69	63
508.8	508.875	71	60
508.875	509.333	60	60
508.875	509.333	72	71
509.099	509.333	64	52
509.322	509.739	67	57
509.43	509.739	72	64
509.539	509.755	64	52
509.539	509.739	74	65
509.647	509.755	76	66
509.755	510.174	60	60
509.755	509.788	79	68
509.788	509.855	77	63
509.822	510.102	79	68
509.855	509.996	77	64
509.888	510.174	76	70
509.996	510.207	65	53
509.996	510.174	77	71
510.102	510.207	79	72
510.207	510.66	69	57
510.207	510.274	83	70
510.241	510.307	81	64
510.274	510.554	83	70
510.307	510.448	81	64
510.34	510.66	79	75
510.448	510.66	65	57
510.448	510.66	81	76
510.554	510.66	83	78
510.66	510.885	60	60
510.66	510.772	84	87
510.885	511.11	64	52
510.885	510.997	84	85
511.11	511.557	67	57
511.218	511.557	72	63
511.326	511.557	64	51
511.326	511.557	74	65
511.432	511.557	76	66
511.537	511.977	60	60
511.537	511.57	79	64
511.57	511.603	77	59
511.603	511.882	79	64
511.635	511.776	77	61
511.668	511.977	76	70
511.776	511.987	65	53
511.776	511.977	77	72
511.882	511.987	79	72
511.987	512.441	69	57
511.987	512.02	83	70
512.02	512.085	81	64
512.052	512.333	83	70
512.085	512.225	81	64
512.117	512.441	79	76
512.225	512.441	65	51
512.225	512.441	81	78
512.333	512.441	83	79
512.441	512.888	60	60
512.441	512.888	64	60
512.441	512.888	67	60
512.441	512.553	84	86
512.665	512.777	84	84
512.888	513.321	65	46
512.888	513.766	67	46
512.997	513.213	79	55
513.105	513.276	83	59
513.213	513.321	79	55
513.321	513.766	64	44
513.321	513.432	84	59
513.543	513.654	84	59
513.766	514.199	65	42
513.766	514.643	67	42
513.874	514.09	79	54
513.982	514.199	83	56
514.09	514.199	79	54
514.199	514.643	64	45
514.199	514.31	84	59
514.421	514.532	84	59
514.643	514.859	65	52
514.643	514.859	67	52
514.751	514.968	79	67
514.859	515.081	65	52
514.859	515.076	67	54
514.859	515.081	83	71
514.968	515.081	79	68
515.076	515.293	64	52
515.076	515.293	67	57
515.076	515.293	84	75
515.184	515.402	79	73
515.293	515.515	64	52
515.293	515.512	67	60
515.293	515.515	84	79
515.402	515.515	79	77
515.512	515.733	59	52
515.512	515.733	67	62
515.512	515.733	86	83
515.622	515.845	79	81
515.733	515.963	59	52
515.733	515.957	67	65
515.733	515.963	86	88
515.845	515.963	79	82
515.957	516.423	60	67
515.957	516.423	67	67
515.957	516.184	88	88
516.07	516.297	84	78
516.184	516.423	88	84
516.297	516.423	84	80
516.41	516.637	79	82
516.523	516.75	84	74
516.637	516.976	79	79
516.75	517.78	84	71
516.863	517.09	76	78
516.976	517.203	79	71
517.09	517.429	76	76
517.203	517.78	79	71
517.316	517.543	72	72
517.429	517.656	76	67
517.543	517.78	72	71
517.656	517.78	76	63
517.769	518.24	69	60
517.99	518.24	81	63
518.21	518.669	53	44
518.21	518.669	57	44
518.21	518.669	62	44
518.21	518.669	79	63
518.321	518.669	77	58
518.431	518.669	76	63
518.541	518.669	74	60
518.652	519.558	55	44
518.652	519.114	60	44
518.652	519.114	64	44
518.652	519.105	72	63
519.105	519.558	62	41
519.105	519.558	65	41
519.105	519.18	72	63
519.18	519.331	71	59
519.256	519.558	72	62
519.331	519.482	71	58
519.407	519.558	69	63
519.482	519.558	71	57
519.558	520.371	60	78
519.558	520.371	72	82
519.906	520.712	55	71
519.906	520.487	67	78
520.022	520.712	64	76
520.022	520.712	76	82
520.371	520.712	60	68
520.371	520.712	72	76
520.487	520.712	67	74
520.487	520.712	79	81
520.938	521.065	86	54
521.043	521.171	84	50
521.149	521.279	83	54
521.258	521.389	81	49
521.366	521.589	55	41
521.366	521.589	60	41
521.366	521.589	64	41
521.366	521.589	79	57
521.811	521.937	81	54
521.916	522.043	79	50
522.022	522.151	77	54
522.13	522.26	76	50
522.238	522.46	55	41
522.238	522.46	59	41
522.238	522.46	65	41
522.238	522.46	74	57
522.682	522.809	79	56
522.787	522.915	77	53
522.893	523.023	76	56
523.001	523.132	74	52
523.109	523.338	60	70
523.109	523.338	72	81
523.223	523.452	55	65
523.223	523.452	67	75
523.338	523.681	60	70
523.338	523.681	72	82
523.452	524.209	55	65
523.452	524.024	67	78
523.567	523.795	64	70
523.567	523.795	76	82
523.681	523.91	60	64
523.681	523.91	72	78
523.795	524.209	64	71
523.795	524.209	76	82
523.91	524.209	60	65
523.91	524.209	72	76
524.024	524.248	67	71
524.024	524.248	79	82
524.472	524.599	86	55
524.578	524.705	84	53
524.683	524.813	83	55
524.791	524.922	81	53
524.899	525.126	55	45
524.899	525.126	60	45
524.899	525.126	64	45
524.899	525.013	79	58
525.126	525.239	79	58
525.352	525.48	81	54
525.459	525.587	79	50
525.565	525.694	77	54
525.673	525.803	76	50
525.781	526.005	55	45
525.781	526.005	59	45
525.781	526.005	65	45
525.781	525.892	74	57
526.005	526.119	74	57
526.232	526.362	79	55
526.34	526.47	77	51
526.448	526.578	76	55
526.557	526.687	74	51
526.665	527.116	64	51
526.665	527.575	72	62
526.89	527.341	60	41
527.116	527.575	64	51
527.341	527.575	60	41
527.341	527.575	80	57
527.564	528.025	65	51
527.564	528.025	81	62
527.786	528.025	60	41
527.786	528.025	83	64
528.008	528.474	67	51
528.008	528.474	84	68
528.23	528.474	60	41
528.23	528.474	76	62
528.453	528.833	69	51
528.453	528.833	79	66
528.681	528.909	60	43
528.681	528.909	77	62
528.909	529.137	70	51
529.137	529.359	60	43
529.137	529.359	76	55
529.359	529.812	69	51
529.359	529.812	77	60
529.581	529.812	60	43
529.581	529.812	79	62
529.803	530.248	67	51
529.803	530.248	81	65
530.025	530.248	60	43
530.025	530.248	73	57
530.248	530.616	65	51
530.248	530.616	76	63
530.476	530.704	60	43
530.476	530.704	74	57
530.704	530.931	64	51
530.931	531.154	60	35
530.931	531.154	73	49
531.154	532.042	65	40
531.154	532.042	74	52
531.376	531.82	60	37
531.376	532.042	76	54
531.598	532.042	62	40
531.598	532.042	77	57
531.82	532.042	60	36
531.82	532.042	71	49
532.042	532.503	64	39
532.042	532.503	74	50
532.27	532.503	60	36
532.27	532.503	72	49
532.498	532.969	65	40
532.498	532.969	81	70
532.72	532.969	60	34
532.72	532.969	71	49
532.942	533.413	64	40
532.942	533.413	74	51
533.17	533.413	60	38
533.17	533.413	72	49
533.398	533.857	65	41
533.398	533.857	81	70
533.62	533.857	60	34
533.62	533.857	71	49
533.842	534.305	64	41
534.07	534.305	60	37
534.07	534.305	74	49
534.185	534.305	72	43
534.3	534.784	65	40
534.531	534.784	60	33
534.531	534.784	80	57
534.647	534.784	71	43
534.763	535.266	64	41
535.002	535.266	60	37
535.002	535.266	74	51
535.126	535.266	72	43
535.253	535.886	65	41
535.514	535.886	60	35
535.514	535.886	80	54
535.656	535.886	71	41
535.886	537.988	48	33
535.886	537.988	60	39
535.886	537.522	65	45
535.886	537.465	67	45
535.886	537.522	71	54
535.886	537.522	74	54
537.465	537.988	64	30
537.465	537.988	67	30
537.465	537.988	72	36
