OnsetTime	OffsetTime	MidiPitch	Velocity
0.500957	0.958019	50	64
0.500957	0.967567	54	64
0.500957	0.967567	57	74
0.500957	0.958019	74	79
0.500957	0.967567	78	79
0.500957	0.967567	81	88
0.729011	0.967567	62	60
0.729011	0.967567	69	74
0.958019	1.41603	50	62
0.958019	1.41603	55	62
0.958019	1.41603	58	71
0.958019	1.41603	70	75
0.958019	1.41603	74	75
0.958019	1.41603	76	84
1.18703	1.41603	62	55
1.18703	1.41603	64	69
1.41603	1.85884	50	64
1.41603	1.86807	54	64
1.41603	1.86807	57	74
1.41603	1.85884	74	79
1.41603	1.86807	78	79
1.41603	1.86807	81	88
1.63744	1.86807	62	61
1.63744	1.86807	69	75
1.85884	2.30165	50	62
1.85884	2.30165	55	62
1.85884	2.22784	58	71
1.85884	2.22784	70	75
1.85884	2.22784	74	75
1.85884	2.30165	76	84
2.08024	2.30165	62	53
2.08024	2.30165	64	70
2.30165	3.15146	60	63
2.30165	3.15146	62	63
2.30165	3.15146	66	70
2.30165	3.15146	69	70
2.30165	2.35446	74	72
2.40727	2.46008	76	67
2.5129	2.56571	74	71
2.61852	2.67152	76	67
2.7244	2.83117	78	72
2.93793	3.0447	78	68
3.15146	3.20516	58	70
3.15146	3.57889	67	66
3.15146	3.57889	74	66
3.15146	3.36576	76	73
3.25874	3.31232	57	66
3.36576	3.41913	55	70
3.36576	3.57889	79	69
3.47251	3.5257	54	67
3.57889	3.95669	52	72
3.57889	3.95669	73	64
3.57889	4.48058	76	72
3.79165	4.02603	57	66
3.79165	4.2533	69	68
4.02603	4.48058	50	64
4.02603	4.49478	54	64
4.02603	4.49478	57	74
4.02603	4.48058	74	79
4.02603	4.49478	78	79
4.02603	4.49478	81	88
4.2533	4.49478	62	62
4.2533	4.49478	69	75
4.48058	4.93512	50	62
4.48058	4.93512	55	62
4.48058	4.93512	58	71
4.48058	4.93512	70	75
4.48058	4.93512	74	75
4.48058	4.93512	76	84
4.70784	4.93512	62	59
4.70784	4.93512	64	73
4.93512	5.37149	50	64
4.93512	5.38239	54	64
4.93512	5.38239	57	74
4.93512	5.37149	74	79
4.93512	5.38239	78	79
4.93512	5.38239	81	88
5.1533	5.38239	62	62
5.1533	5.38239	69	75
5.37149	5.80784	50	62
5.37149	5.80784	55	62
5.37149	5.73512	58	71
5.37149	5.73512	70	75
5.37149	5.73512	74	75
5.37149	5.80784	76	84
5.58966	5.80784	62	55
5.58966	5.80784	64	72
5.80784	6.66503	60	63
5.80784	6.66503	62	63
5.80784	6.66503	66	70
5.80784	6.66503	69	70
5.80784	5.86142	74	77
5.915	5.96858	76	73
6.02215	6.07573	74	78
6.12931	6.18288	76	73
6.23646	6.3436	78	80
6.45074	6.55788	78	72
6.66503	6.7186	58	60
6.66503	6.7186	62	60
6.66503	6.7186	74	80
6.66503	6.7186	76	80
6.77218	6.82556	78	81
6.87893	6.93212	58	66
6.87893	6.93212	79	83
6.98531	7.03831	57	68
6.98531	7.03831	81	85
7.09131	7.31436	55	71
7.09131	7.31436	82	86
7.53741	7.97547	43	41
7.53741	7.97547	51	41
7.64123	7.85573	61	42
7.64123	7.85573	63	42
7.74503	7.97547	58	37
7.85573	7.97547	61	42
7.85573	7.97547	63	42
7.96642	8.40119	56	43
7.96642	8.40119	60	47
8.1838	8.40119	44	37
8.1838	8.40119	51	37
8.1838	8.40119	63	42
8.1838	8.40119	72	42
8.40119	8.8425	45	44
8.40119	8.8425	53	44
8.50572	8.72094	63	46
8.50572	8.72094	65	46
8.61025	8.8425	60	40
8.72094	8.8425	63	46
8.72094	8.8425	65	46
8.83163	9.26641	58	48
8.83163	9.26641	62	52
9.04901	9.26641	46	40
9.04901	9.26641	53	40
9.04901	9.26641	65	41
9.04901	9.26641	74	47
9.26641	9.71141	47	45
9.26641	9.706	55	45
9.26641	9.71141	62	49
9.48459	9.71141	59	38
9.48459	9.71141	65	38
9.48459	9.71141	67	38
9.48459	9.71141	74	41
9.706	10.1496	48	47
9.706	10.1424	55	47
9.706	10.1496	63	50
9.9226	10.1496	60	39
9.9226	10.1496	67	38
9.9226	10.1496	75	43
10.1424	10.587	50	49
10.1424	10.578	55	49
10.1424	10.587	65	54
10.359	10.587	62	41
10.359	10.587	71	38
10.359	10.587	79	43
10.578	10.9511	48	47
10.578	11.0127	55	47
10.578	11.0127	63	53
10.7953	11.0127	60	40
10.7953	11.0127	67	40
10.7953	11.0127	75	45
11.0127	11.4667	47	46
11.0127	11.4667	55	46
11.1173	11.3325	65	47
11.1173	11.3325	67	47
11.2218	11.4667	62	42
11.3325	11.4667	65	48
11.3325	11.4667	67	48
11.4432	11.878	60	51
11.4432	11.878	64	53
11.6606	11.878	48	42
11.6606	11.878	55	42
11.6606	11.878	67	43
11.6606	11.878	76	48
11.878	12.3374	49	52
11.878	12.3374	57	52
11.9825	12.1977	67	53
11.9825	12.1977	69	53
12.087	12.3374	64	46
12.1977	12.3374	67	53
12.1977	12.3374	69	53
12.3084	12.7432	62	54
12.3084	12.7432	65	58
12.5258	12.7432	50	47
12.5258	12.7432	57	47
12.5258	12.7432	69	47
12.5258	12.7432	77	53
12.7432	13.1909	49	54
12.7432	13.182	57	54
12.7432	13.1909	64	58
12.9606	13.1909	61	46
12.9606	13.1909	67	44
12.9606	13.1909	69	44
12.9606	13.1909	76	49
13.182	13.6216	50	56
13.182	13.6144	57	56
13.182	13.6216	65	59
13.397	13.6216	62	47
13.397	13.6216	69	46
13.397	13.6216	77	52
13.6144	14.0567	52	57
13.6144	14.0477	57	57
13.6144	14.0567	67	65
13.8287	14.0567	64	49
13.8287	14.0567	73	46
13.8287	14.0567	81	53
14.0477	14.4209	50	56
14.0477	14.4825	57	56
14.0477	14.4825	65	62
14.2651	14.4825	62	48
14.2651	14.4825	69	48
14.2651	14.4825	77	55
14.4825	14.927	49	58
14.4825	14.9182	57	58
14.4825	14.927	64	66
14.6968	14.927	61	49
14.6968	14.927	67	50
14.6968	14.927	69	50
14.6968	14.927	76	57
14.9182	15.3564	50	61
14.9182	15.3564	57	61
14.9182	15.3564	65	66
15.1309	15.3564	62	52
15.1309	15.3483	69	50
15.1309	15.3564	77	57
15.3483	15.7888	51	63
15.3483	15.7816	59	63
15.3483	15.7888	69	70
15.5626	15.7888	63	53
15.5626	15.7888	78	50
15.5626	15.7888	83	57
15.7816	16.1548	52	60
15.7816	16.2164	59	60
15.7816	16.2164	67	67
15.999	16.2164	64	52
15.999	16.2164	71	53
15.999	16.2164	79	59
16.2164	16.6507	51	64
16.2164	16.6481	59	64
16.2164	16.6507	66	71
16.4291	16.6507	63	54
16.4291	16.6507	69	57
16.4291	16.6507	71	57
16.4291	16.6507	78	64
16.6481	17.0814	52	66
16.6481	17.0814	59	66
16.6481	17.0814	67	74
16.8594	17.0814	64	56
16.8594	17.0752	71	58
16.8594	17.0814	79	64
17.0752	17.51	53	67
17.0752	17.5055	61	67
17.0752	17.51	71	76
17.2872	17.51	65	57
17.2872	17.51	80	58
17.2872	17.51	85	65
17.5055	17.8747	54	65
17.5055	17.9356	61	65
17.5055	17.9356	69	75
17.7206	17.9356	66	56
17.7206	17.9356	73	60
17.7206	17.9356	81	67
17.9356	18.3722	54	72
17.9356	18.365	62	72
17.9356	18.3722	72	82
18.1484	18.3722	66	60
18.1484	18.3722	81	60
18.1484	18.3722	86	69
18.365	18.7355	55	70
18.365	18.7966	62	70
18.365	18.7966	71	78
18.5808	18.7966	67	60
18.5808	18.7966	74	65
18.5808	18.7966	83	72
18.7966	19.2369	54	73
18.7966	19.2252	62	73
18.7966	19.2369	72	83
19.0086	19.2369	66	61
19.0086	19.2369	81	61
19.0086	19.2369	86	70
19.2252	19.5972	55	71
19.2252	19.6593	62	71
19.2252	19.6593	71	79
19.4403	19.6593	67	60
19.4403	19.6593	74	61
19.4403	19.6593	83	70
19.6593	19.7638	67	69
19.6593	19.7638	70	69
19.6593	19.7638	74	77
19.6593	19.7115	88	86
19.7638	19.8161	86	74
19.8683	19.9206	82	80
19.9729	20.0251	81	72
20.0774	20.1296	76	79
20.0774	20.1819	79	77
20.1819	20.2342	74	71
20.2864	20.3387	70	74
20.391	20.4432	69	68
20.4955	20.5483	64	74
20.4955	20.6011	67	82
20.6011	20.6539	62	63
20.7069	20.7599	58	70
20.8129	20.8659	57	64
20.9191	20.9723	52	71
20.9191	21.0256	55	75
21.0256	21.079	50	62
21.1324	21.1858	46	66
21.2394	21.293	45	58
21.3467	21.4542	43	75
21.5617	21.6693	43	69
21.7768	21.8843	44	74
21.7768	22.5843	62	72
21.7768	22.4235	64	72
21.8843	21.9919	45	62
21.9919	22.0994	46	68
22.0994	22.2069	44	60
22.2069	22.4235	45	73
22.4235	22.5908	45	71
22.4235	22.5908	55	71
22.4235	22.5908	61	80
22.4235	22.5908	64	80
22.4235	22.5908	69	80
22.6466	22.9282	50	77
22.6466	22.9282	54	77
22.6466	22.9282	62	86
22.6466	22.9282	69	86
22.6466	22.9282	74	86
23.0927	23.1455	78	78
23.1983	23.2511	76	71
23.3039	23.3567	74	73
23.4096	23.4624	73	68
23.5152	23.8973	59	50
23.5152	23.8973	62	50
23.5152	23.8973	66	57
23.5152	23.8973	71	75
23.7279	23.9453	73	66
23.9453	23.9991	54	70
23.9453	24.3786	61	77
24.0529	24.1066	52	60
24.1604	24.2149	50	62
24.1604	24.3786	66	69
24.1604	24.3786	70	69
24.2695	24.324	49	58
24.3786	24.7647	47	69
24.3786	24.8134	62	77
24.5929	24.8134	66	69
24.5929	24.8134	71	69
24.8134	25.2643	55	47
24.8134	25.2579	59	52
24.8134	25.2643	61	71
24.9237	25.2643	73	52
25.034	25.2643	47	44
25.034	25.2643	67	59
25.146	25.2643	71	55
25.2579	25.7106	54	48
25.2579	25.7024	59	55
25.2579	25.7106	62	66
25.3682	25.7106	74	59
25.4785	25.7106	45	45
25.4785	25.7106	66	62
25.5904	25.7106	71	59
25.7024	26.1517	52	49
25.7024	26.1517	55	49
25.7024	26.1436	59	56
25.7024	26.1517	67	73
25.8119	26.1517	79	60
25.9214	26.1517	47	46
25.9214	26.1517	71	66
26.0325	26.1517	76	59
26.1436	26.5196	50	41
26.1436	26.5196	54	41
26.1436	26.5824	59	47
26.1436	26.5824	66	70
26.2523	26.5196	78	53
26.361	26.5824	47	36
26.361	26.5196	71	58
26.4717	26.5824	74	52
26.5824	26.6356	78	73
26.6887	26.7419	76	67
26.7951	26.8483	74	70
26.9015	26.9547	73	63
27.0079	27.39	59	50
27.0079	27.39	62	50
27.0079	27.39	66	57
27.0079	27.39	71	75
27.2206	27.438	73	66
27.438	27.4924	54	64
27.438	27.8752	61	77
27.5467	27.6011	52	58
27.6554	27.7103	50	62
27.6554	27.8752	66	69
27.6554	27.8752	70	69
27.7653	27.8202	49	58
27.8752	28.2637	47	63
27.8752	28.3124	62	77
28.0918	28.3124	66	69
28.0918	28.3124	71	69
28.3124	28.7627	55	47
28.3124	28.7536	59	52
28.3124	28.7627	61	71
28.4211	28.7627	73	52
28.5298	28.7627	47	44
28.5298	28.7627	67	59
28.6417	28.7627	71	55
28.7536	29.204	54	48
28.7536	29.1949	59	55
28.7536	29.204	62	66
28.8623	29.204	74	59
28.971	29.204	45	45
28.971	29.204	66	62
29.083	29.204	71	59
29.1949	29.6453	52	49
29.1949	29.6453	55	49
29.1949	29.6353	59	56
29.1949	29.6453	67	73
29.304	29.6453	79	60
29.4131	29.6453	47	46
29.4131	29.6453	71	66
29.5242	29.6453	76	59
29.6353	30.0085	50	41
29.6353	30.0085	54	41
29.6353	30.0701	59	47
29.6353	30.0701	66	70
29.744	30.0085	78	53
29.8527	30.0701	47	36
29.8527	30.0085	71	58
29.9614	30.0701	74	52
30.0701	30.1242	47	59
30.1783	30.2322	49	53
30.2859	30.3395	50	55
30.2859	30.7175	59	48
30.2859	30.7175	62	48
30.3929	30.4463	52	50
30.4993	30.5539	53	57
30.7175	30.9427	54	58
30.7175	31.1563	59	52
30.7175	31.1563	62	52
30.9381	31.3841	57	60
31.1563	31.3841	56	55
31.1563	31.5959	59	51
31.1563	31.5959	62	51
31.3777	31.5959	55	57
31.5959	31.6523	54	51
31.5959	31.6523	59	44
31.5959	31.6523	62	44
31.8214	32.2507	53	51
31.8214	31.8756	71	64
31.9296	31.9835	70	58
32.0373	32.4689	59	44
32.0373	32.4689	62	44
32.0373	32.0908	69	60
32.1443	32.1976	68	55
32.2507	32.6894	52	51
32.2507	32.3052	67	62
32.4689	32.9076	59	42
32.4689	33.1161	62	42
32.4689	32.6894	68	63
32.6894	33.129	50	51
32.6894	33.1161	73	72
32.9076	33.129	56	44
32.9076	33.129	59	44
32.9076	33.129	64	44
32.9076	33.129	71	60
33.129	33.5678	49	51
33.129	33.3858	63	62
33.3472	33.4024	52	44
33.3472	33.4024	57	44
33.3472	33.4024	61	44
33.3472	33.4024	64	56
33.5678	33.622	49	59
33.676	33.7299	50	53
33.7836	33.8372	52	55
33.7836	34.2152	61	48
33.7836	34.2152	64	48
33.8907	33.944	54	50
33.997	34.0516	55	57
34.2152	34.4431	56	58
34.2152	34.654	61	52
34.2152	34.654	64	52
34.4358	34.8845	59	60
34.654	34.8845	58	55
34.654	35.0936	61	51
34.654	35.0936	64	51
34.8754	35.0936	57	57
35.0936	35.2064	56	51
35.0936	35.2064	61	44
35.0936	35.2064	64	44
35.3192	35.7484	55	51
35.3192	35.3733	73	64
35.4273	35.4812	72	58
35.535	35.9666	61	44
35.535	35.9666	64	44
35.535	35.5886	71	60
35.642	35.6953	70	55
35.7484	36.1899	54	51
35.7484	35.8029	69	62
35.9666	36.4054	61	42
35.9666	36.6331	64	42
35.9666	36.1899	70	63
36.1872	36.6331	52	51
36.1872	36.6331	74	72
36.4054	36.6331	58	44
36.4054	36.6331	61	44
36.4054	36.6331	66	44
36.4054	36.6331	73	60
36.6268	37.0655	50	51
36.6268	36.9065	65	62
36.8449	36.9065	54	44
36.8449	36.9065	59	44
36.8449	36.9065	62	44
36.8449	36.9065	66	56
37.0655	37.1197	47	74
37.0655	37.1197	71	83
37.1737	37.2276	49	64
37.1737	37.2276	73	74
37.2814	37.3349	50	70
37.2814	37.3349	74	80
37.3884	37.4417	52	62
37.3884	37.4417	76	73
37.4948	37.5501	54	75
37.4948	37.5501	78	85
37.7162	37.8847	43	60
37.7162	37.8847	47	60
37.7162	37.8847	50	60
37.7162	37.8847	55	67
37.7162	37.8847	67	70
37.7162	37.8847	71	70
37.7162	37.8847	74	70
37.7162	37.8847	79	80
37.9409	38.3896	41	71
37.9409	38.3896	65	84
38.1591	38.3896	53	64
38.1591	38.3896	77	78
38.3805	38.8192	42	72
38.3805	38.8192	66	85
38.5986	38.8192	54	63
38.5986	38.8192	78	77
38.8192	38.8734	47	74
38.8192	38.8734	71	83
38.9274	38.9813	49	63
38.9274	38.9813	73	77
39.0351	39.0886	50	70
39.0351	39.0886	74	80
39.1421	39.1954	52	64
39.1421	39.1954	76	75
39.2485	39.3038	54	75
39.2485	39.3038	78	85
39.4699	39.6384	43	60
39.4699	39.6384	47	60
39.4699	39.6384	50	60
39.4699	39.6384	55	67
39.4699	39.6384	67	70
39.4699	39.6384	71	70
39.4699	39.6384	74	70
39.4699	39.6384	79	80
39.6946	40.1442	41	71
39.6946	40.1442	65	84
39.9128	40.1442	53	64
39.9128	40.1442	77	78
40.1342	40.5729	42	72
40.1342	40.5729	66	85
40.3524	40.5729	54	63
40.3524	40.5729	78	77
40.5729	40.6271	50	74
40.5729	40.6271	74	83
40.6811	40.735	52	61
40.6811	40.735	76	74
40.7888	40.8424	54	69
40.7888	40.8424	78	80
40.8958	40.9491	55	60
40.8958	40.9491	79	75
41.0022	41.0575	57	75
41.0022	41.0575	81	85
41.2236	41.3921	46	61
41.2236	41.3921	50	61
41.2236	41.3921	53	61
41.2236	41.3921	58	69
41.2236	41.3921	70	71
41.2236	41.3921	74	71
41.2236	41.3921	77	71
41.2236	41.3921	82	81
41.4483	41.8961	44	71
41.4483	41.8961	68	84
41.6665	41.8961	56	64
41.6665	41.8961	80	78
41.8879	42.3267	45	72
41.8879	42.3267	69	85
42.1061	42.3267	57	63
42.1061	42.3267	81	77
42.3267	42.3808	50	74
42.3267	42.3808	74	83
42.4348	42.4887	52	64
42.4348	42.4887	76	75
42.5425	42.5961	54	70
42.5425	42.5961	78	80
42.6495	42.7028	55	64
42.6495	42.7028	79	75
42.7559	42.8113	57	75
42.7559	42.8113	81	85
42.9773	43.1459	46	61
42.9773	43.1459	50	61
42.9773	43.1459	53	61
42.9773	43.1459	58	69
42.9773	43.1459	70	71
42.9773	43.1459	74	71
42.9773	43.1459	77	71
42.9773	43.1459	82	81
43.202	43.6507	44	71
43.202	43.6507	68	84
43.4202	43.6507	56	64
43.4202	43.6507	80	78
43.6416	44.0804	45	72
43.6416	44.0804	69	85
43.8598	44.0804	57	63
43.8598	44.0804	81	77
44.0804	44.5291	44	71
44.0804	44.5291	68	84
44.2986	44.5291	56	64
44.2986	44.5291	80	78
44.52	44.9587	45	72
44.52	44.9587	69	85
44.7382	44.9587	57	63
44.7382	44.9587	81	77
44.9587	45.4083	46	71
44.9587	45.4083	70	84
45.1769	45.4083	58	64
45.1769	45.4083	82	78
45.3983	45.8453	40	72
45.3983	45.8453	64	85
45.6165	45.8453	52	63
45.6165	45.8453	76	77
45.8371	46.2858	43	71
45.8371	46.2858	67	84
46.0553	46.2858	55	64
46.0553	46.2858	79	78
46.2767	46.7218	34	72
46.2767	46.7218	58	85
46.4949	46.7218	46	63
46.4949	46.7218	70	77
46.7155	47.166	38	71
46.7155	47.166	62	84
46.9336	47.166	50	64
46.9336	47.166	74	78
47.155	47.5938	33	72
47.155	47.5938	57	85
47.3732	47.5938	45	63
47.3732	47.5938	69	77
47.5938	47.7202	44	68
47.7021	47.8285	45	59
47.8104	47.9368	48	62
47.9187	48.027	49	57
48.027	48.1534	51	69
48.1353	48.2617	52	61
48.2437	48.3707	56	66
48.352	48.4643	57	60
48.4643	48.5907	56	71
48.5726	48.699	57	63
48.6809	48.8073	60	69
48.7892	48.8975	61	63
48.8975	49.0239	63	72
49.0059	49.1322	64	64
49.1142	49.2412	68	70
49.2225	49.3348	69	64
49.3348	49.4612	68	73
49.4431	49.5695	69	62
49.5514	49.6778	72	70
49.6598	49.7681	73	61
49.7681	49.8944	75	74
49.8764	50.0027	76	64
49.9847	50.1116	80	74
50.093	50.2045	81	69
50.2045	50.3309	80	74
50.3128	50.4392	81	66
50.4211	50.5475	84	73
50.5294	50.6377	85	64
50.6377	50.7644	87	77
50.7462	50.874	88	67
50.8557	51.0914	92	75
50.9664	52.1837	93	67
51.7173	52.1744	50	64
51.7173	52.1837	54	64
51.7173	52.1837	57	74
51.7173	52.1744	74	79
51.7173	52.1837	78	79
51.7173	52.1837	81	88
51.9454	52.1837	62	61
51.9454	52.1837	69	72
52.1744	52.6221	50	62
52.1744	52.6221	55	62
52.1744	52.6221	58	71
52.1744	52.6221	70	75
52.1744	52.6221	74	75
52.1744	52.6221	76	84
52.3983	52.6221	62	56
52.3983	52.6221	64	70
52.6221	53.065	50	64
52.6221	53.0742	54	64
52.6221	53.0742	57	74
52.6221	53.065	74	79
52.6221	53.0742	78	79
52.6221	53.0742	81	88
52.8435	53.0742	62	61
52.8435	53.0742	69	74
53.065	53.5078	50	62
53.065	53.5078	55	62
53.065	53.434	58	71
53.065	53.434	70	75
53.065	53.434	74	75
53.065	53.5078	76	84
53.2864	53.5078	62	56
53.2864	53.5078	64	70
53.5078	54.3576	60	63
53.5078	54.3576	62	63
53.5078	54.3576	66	70
53.5078	54.3576	69	70
53.5078	53.5606	74	72
53.6134	53.6662	76	67
53.719	53.7718	74	70
53.8246	53.8776	76	66
53.9305	54.0373	78	72
54.144	54.2508	78	68
54.3576	54.4113	58	70
54.3576	54.785	67	66
54.3576	54.785	74	66
54.3576	54.5719	76	73
54.4649	54.5184	57	60
54.5719	54.6252	55	67
54.5719	54.785	79	69
54.6786	54.7318	54	60
54.785	55.1607	52	72
54.785	55.1607	73	64
54.785	55.6808	76	72
54.9963	55.2297	57	66
54.9963	55.4553	69	68
55.2297	55.6808	50	64
55.2297	55.6902	54	64
55.2297	55.6902	57	74
55.2297	55.6808	74	79
55.2297	55.6902	78	79
55.2297	55.6902	81	88
55.4553	55.6902	62	61
55.4553	55.6902	69	73
55.6808	56.132	50	62
55.6808	56.132	55	62
55.6808	56.132	58	71
55.6808	56.132	70	75
55.6808	56.132	74	75
55.6808	56.132	76	84
55.9064	56.132	62	53
55.9064	56.132	64	70
56.132	56.5699	50	64
56.132	56.579	54	64
56.132	56.579	57	74
56.132	56.5699	74	79
56.132	56.579	78	79
56.132	56.579	81	88
56.351	56.579	62	60
56.351	56.579	69	73
56.5699	57.0079	50	62
56.5699	57.0079	55	62
56.5699	56.9349	58	71
56.5699	56.9349	70	75
56.5699	56.9349	74	75
56.5699	57.0079	76	84
56.7889	57.0079	62	53
56.7889	57.0079	64	69
57.0079	57.8651	60	63
57.0079	57.8651	62	63
57.0079	57.8651	66	70
57.0079	57.8651	69	70
57.0079	57.0615	74	77
57.115	57.1686	76	71
57.2222	57.2758	74	77
57.3293	57.3829	76	70
57.4365	57.5436	78	80
57.6508	57.7579	78	72
57.8651	57.9186	58	60
57.8651	57.9186	62	60
57.8651	57.9186	74	80
57.8651	57.9186	76	80
57.9722	58.0256	78	81
58.079	58.1322	58	66
58.079	58.1322	79	83
58.1853	58.2383	57	68
58.1853	58.2383	81	85
58.2913	58.5144	55	71
58.2913	58.5144	82	86
58.7375	59.1755	43	41
58.7375	59.1755	51	41
58.8413	59.0558	61	42
58.8413	59.0558	63	42
58.9451	59.1755	58	37
59.0558	59.1755	61	42
59.0558	59.1755	63	42
59.1665	59.6012	56	43
59.1665	59.6012	60	47
59.3838	59.6012	44	37
59.3838	59.6012	51	37
59.3838	59.6012	63	42
59.3838	59.6012	72	42
59.6012	60.0407	45	44
59.6012	60.0407	53	44
59.7058	59.921	63	46
59.7058	59.921	65	46
59.8103	60.0407	60	40
59.921	60.0407	63	46
59.921	60.0407	65	46
60.0317	60.4664	58	48
60.0317	60.4664	62	52
60.2491	60.4664	46	40
60.2491	60.4664	53	40
60.2491	60.4664	65	41
60.2491	60.4664	74	47
60.4664	60.9147	47	45
60.4664	60.9093	55	45
60.4664	60.9147	62	49
60.6862	60.9147	59	38
60.6862	60.9147	65	38
60.6862	60.9147	67	38
60.6862	60.9147	74	41
60.9093	61.3548	48	47
60.9093	61.3449	55	47
60.9093	61.3548	63	50
61.1283	61.3548	60	39
61.1283	61.3548	67	38
61.1283	61.3548	75	43
61.3449	61.7867	50	49
61.3449	61.7812	55	49
61.3449	61.7867	65	54
61.5622	61.7867	62	41
61.5622	61.7867	71	38
61.5622	61.7867	79	43
61.7812	62.216	48	47
61.7812	62.216	55	47
61.7812	62.216	63	53
61.9986	62.216	60	40
61.9986	62.216	67	40
61.9986	62.216	75	45
62.216	62.6591	47	46
62.216	62.6591	55	46
62.3205	62.5357	65	47
62.3205	62.5357	67	47
62.425	62.6591	62	42
62.5357	62.6591	65	48
62.5357	62.6591	67	48
62.6464	63.0812	60	51
62.6464	63.0812	64	53
62.8638	63.0812	48	42
62.8638	63.0812	55	42
62.8638	63.0812	67	43
62.8638	63.0812	76	48
63.0812	63.5216	49	52
63.0812	63.5216	57	52
63.1858	63.401	67	53
63.1858	63.401	69	53
63.2903	63.5216	64	46
63.401	63.5216	67	53
63.401	63.5216	69	53
63.5117	63.9465	62	54
63.5117	63.9465	65	58
63.7291	63.9465	50	47
63.7291	63.9465	57	47
63.7291	63.9465	69	47
63.7291	63.9465	77	53
63.9465	64.3906	49	54
63.9465	64.3834	57	54
63.9465	64.3906	64	58
64.162	64.3906	61	46
64.162	64.3906	67	44
64.162	64.3906	69	44
64.162	64.3906	76	49
64.3834	64.8287	50	56
64.3834	64.8197	57	56
64.3834	64.8287	65	59
64.5999	64.8287	62	47
64.5999	64.8287	69	46
64.5999	64.8287	77	52
64.8197	65.2624	52	57
64.8197	65.256	57	57
64.8197	65.2624	67	65
65.0371	65.2624	64	49
65.0371	65.2624	73	46
65.0371	65.2624	81	53
65.256	65.6292	50	56
65.256	65.6908	57	56
65.256	65.6908	65	62
65.4734	65.6908	62	48
65.4734	65.6908	69	48
65.4734	65.6908	77	55
65.6908	66.1352	49	58
65.6908	66.1281	57	58
65.6908	66.1352	64	66
65.9067	66.1352	61	49
65.9067	66.1352	67	50
65.9067	66.1352	69	50
65.9067	66.1352	76	57
66.1281	66.5679	50	61
66.1281	66.5679	57	61
66.1281	66.5679	65	66
66.3416	66.5679	62	52
66.3416	66.559	69	50
66.3416	66.5679	77	57
66.559	67.0003	51	63
66.559	66.993	59	63
66.559	67.0003	69	70
66.774	67.0003	63	53
66.774	67.0003	78	50
66.774	67.0003	83	57
66.993	67.3662	52	60
66.993	67.4278	59	60
66.993	67.4278	67	67
67.2104	67.4278	64	52
67.2104	67.4278	71	53
67.2104	67.4278	79	59
67.4278	67.868	51	64
67.4278	67.8618	59	64
67.4278	67.868	66	71
67.6428	67.868	63	54
67.6428	67.868	69	57
67.6428	67.868	71	57
67.6428	67.868	78	64
67.8618	68.2993	52	66
67.8618	68.2993	59	66
67.8618	68.2993	67	74
68.0746	68.2993	64	56
68.0746	68.2904	71	58
68.0746	68.2993	79	64
68.2904	68.7284	53	67
68.2904	68.723	61	67
68.2904	68.7284	71	76
68.5047	68.7284	65	57
68.5047	68.7284	80	58
68.5047	68.7284	85	65
68.723	69.0922	54	65
68.723	69.1531	61	65
68.723	69.1531	69	75
68.9381	69.1531	66	56
68.9381	69.1531	73	60
68.9381	69.1531	81	67
69.1531	69.5906	54	72
69.1531	69.5825	62	72
69.1531	69.5906	72	82
69.3659	69.5906	66	60
69.3659	69.5906	81	60
69.3659	69.5906	86	69
69.5825	70.023	55	70
69.5825	70.0141	62	70
69.5825	70.023	71	78
69.7983	70.023	67	60
69.7983	70.023	74	65
69.7983	70.023	83	72
70.0141	70.4526	54	73
70.0141	70.4428	62	73
70.0141	70.4526	72	83
70.2262	70.4526	66	61
70.2262	70.4526	81	61
70.2262	70.4526	86	70
70.4428	70.8148	55	71
70.4428	70.8768	62	71
70.4428	70.8768	71	79
70.6578	70.8768	67	60
70.6578	70.8768	74	61
70.6578	70.8768	83	70
70.8768	70.9824	67	69
70.8768	70.9824	70	69
70.8768	70.9824	74	77
70.8768	70.9296	88	86
70.9824	71.0352	86	74
71.0881	71.1409	82	78
71.1937	71.2465	81	75
71.2993	71.3521	76	80
71.2993	71.4049	79	77
71.4049	71.4577	74	71
71.5106	71.5634	70	75
71.6162	71.669	69	67
71.7218	71.7746	64	74
71.7218	71.8274	67	82
71.8274	71.8802	62	64
71.9332	71.9862	58	71
72.0392	72.0923	57	64
72.1454	72.1986	52	71
72.1454	72.252	55	75
72.252	72.3053	50	62
72.3587	72.4122	46	68
72.4657	72.5193	45	61
72.573	72.6805	43	75
72.7881	72.8956	43	69
73.0031	73.1107	44	74
73.0031	73.8106	62	72
73.0031	73.6498	64	72
73.1107	73.2182	45	66
73.2182	73.3257	46	73
73.3257	73.4332	44	64
73.4332	73.6498	45	73
73.6498	73.8171	45	71
73.6498	73.8171	55	71
73.6498	73.8171	61	80
73.6498	73.8171	64	80
73.6498	73.8171	69	80
73.8729	74.1885	50	77
73.8729	74.1885	54	77
73.8729	74.1885	62	86
73.8729	74.1885	69	86
73.8729	74.1885	74	86
74.3729	75.3072	46	64
74.3729	75.3072	54	73
74.3729	75.3072	58	73
74.3729	75.3072	74	81
74.3729	75.3072	78	91
74.3729	75.3072	86	91
74.8398	75.3072	55	57
74.8398	75.3072	79	79
75.3014	76.228	48	62
75.3014	75.8982	56	69
75.3014	76.228	60	69
75.3014	76.228	72	79
75.3014	75.8982	76	89
75.3014	76.228	84	89
75.7665	76.228	57	59
75.7665	76.228	77	81
76.228	76.6809	49	63
76.228	76.6809	57	70
76.228	76.6809	61	70
76.228	76.6752	69	79
76.228	76.6809	77	89
76.228	76.6752	81	89
76.5677	76.6809	70	64
76.5677	76.6809	82	72
76.6809	76.9162	50	56
76.6809	76.9162	58	63
76.6809	76.9162	62	63
76.6809	76.9162	67	70
76.6809	76.9162	77	79
76.6809	76.9162	79	79
77.1515	77.6202	48	55
77.1515	77.6202	55	62
77.1515	77.6202	58	67
77.1515	77.6202	64	75
77.1515	77.6202	69	75
77.6202	77.851	41	44
77.6202	77.851	48	50
77.6202	77.851	57	53
77.6202	77.851	65	60
78.0817	78.5505	29	35
78.0817	78.5398	41	39
78.3125	78.5505	57	39
78.3125	78.5505	60	44
78.5398	79.4765	41	37
78.5398	79.4765	48	37
78.5398	79.4882	55	41
78.5398	79.4882	58	44
78.5398	79.4765	65	49
78.7732	79.2384	64	40
79.0067	79.4882	62	41
79.2384	79.4882	64	38
79.4765	79.947	41	26
79.4765	79.947	48	26
79.4765	79.947	53	29
79.4765	79.947	57	33
79.4765	79.947	65	37
79.947	80.4171	65	38
79.947	80.4171	69	38
79.947	80.4171	72	42
80.1833	80.4171	48	37
80.4123	81.3508	53	40
80.4123	81.3607	58	40
80.4123	81.3607	61	45
80.6457	81.1127	52	35
80.8792	81.3607	50	38
81.1127	81.3607	52	35
81.3508	81.817	53	36
81.3508	81.817	57	28
81.3508	81.817	60	31
81.817	82.4503	57	40
82.0451	82.4503	50	46
82.0451	82.4503	62	49
82.275	82.5049	41	40
82.275	82.5049	69	52
82.275	82.5049	73	52
82.5049	82.7313	74	49
82.7313	83.3519	58	47
82.9577	83.3519	50	51
82.9577	83.3519	62	58
83.1856	83.4137	43	48
83.1856	83.4137	70	61
83.1856	83.4137	73	61
83.4137	83.6384	74	58
83.6384	84.2315	59	56
83.8631	84.2315	52	59
83.8631	84.2315	64	66
84.0904	84.3177	44	55
84.0904	84.3177	71	74
84.0904	84.3177	75	74
84.3177	84.5424	76	68
84.5424	85.103	61	62
84.7671	85.103	52	68
84.7671	85.103	64	80
84.9935	85.22	45	63
84.9935	85.22	69	84
84.9935	85.22	73	84
84.9935	85.22	75	84
85.22	85.4609	76	80
85.4609	86.3952	46	64
85.4609	86.3952	54	73
85.4609	86.3952	58	73
85.4609	86.3952	74	81
85.4609	86.3952	78	91
85.4609	86.3952	86	91
85.9279	86.3952	55	62
85.9279	86.3952	79	83
86.3894	87.3161	48	62
86.3894	86.9863	56	69
86.3894	87.3161	60	69
86.3894	87.3161	72	79
86.3894	86.9863	76	89
86.3894	87.3161	84	89
86.8545	87.3161	57	60
86.8545	87.3161	77	79
87.3161	87.7689	49	63
87.3161	87.7689	57	70
87.3161	87.7689	61	70
87.3161	87.7632	69	79
87.3161	87.7689	77	89
87.3161	87.7632	81	89
87.6557	87.7689	70	64
87.6557	87.7689	82	72
87.7689	88.0456	50	56
87.7689	88.0456	58	63
87.7689	88.0456	62	63
87.7689	88.0456	67	70
87.7689	88.0456	77	79
87.7689	88.0456	79	79
88.2432	88.7101	48	55
88.2432	88.7101	55	62
88.2432	88.7101	58	67
88.2432	88.7101	64	75
88.2432	88.7101	69	75
88.7101	88.9409	41	44
88.7101	88.9409	48	50
88.7101	88.9409	57	53
88.7101	88.9409	65	60
89.1716	89.6628	29	35
89.1716	89.6297	41	39
89.4024	89.6628	57	39
89.4024	89.6628	60	44
89.6297	90.5664	41	37
89.6297	90.5664	48	37
89.6297	90.58	55	41
89.6297	90.58	58	44
89.6297	90.5664	65	49
89.8631	90.3283	64	40
90.0966	90.58	62	41
90.3283	90.58	64	38
90.5664	91.0333	41	26
90.5664	91.0333	48	26
90.5664	91.0333	53	29
90.5664	91.0333	57	33
90.5664	91.0333	65	37
91.0333	91.5024	65	38
91.0333	91.5024	69	38
91.0333	91.5024	72	42
91.2695	91.5024	48	37
91.4985	92.437	53	40
91.4985	92.4469	58	40
91.4985	92.4469	61	45
91.732	92.1989	52	35
91.9654	92.4469	50	38
92.1989	92.4469	52	35
92.437	92.9024	53	36
92.437	92.9024	57	28
92.437	92.9024	60	31
92.9024	93.5337	57	40
93.1285	93.5337	50	46
93.1285	93.5337	62	48
93.3584	93.5883	41	40
93.3584	93.5883	69	50
93.3584	93.5883	73	50
93.5883	93.813	74	48
93.813	94.4354	58	47
94.0394	94.4354	50	51
94.0394	94.4354	62	56
94.2684	94.4974	43	48
94.2684	94.4974	70	59
94.2684	94.4974	73	59
94.4974	94.7213	74	57
94.7213	95.3108	59	56
94.9452	95.3108	52	59
94.9452	95.3108	64	64
95.1707	95.3963	44	55
95.1707	95.3963	71	69
95.1707	95.3963	75	69
95.3963	95.6185	76	66
95.6185	96.1757	61	62
95.8407	96.1757	52	68
95.8407	96.1757	64	71
96.0655	96.2936	45	63
96.0655	96.2936	69	78
96.0655	96.2936	73	78
96.0655	96.2936	75	78
96.2936	96.5298	76	72
96.5298	97.4612	45	64
96.5298	97.4612	53	64
96.5298	97.4612	57	73
96.5298	97.4612	77	75
96.5298	97.4612	85	89
96.5298	97.4612	89	79
96.9967	97.4612	46	58
96.9967	97.4612	58	66
96.9967	97.4612	86	89
97.4583	98.057	47	62
97.4583	98.3868	55	64
97.4583	98.057	59	69
97.4583	98.3868	67	79
97.4583	98.057	75	89
97.4583	98.3868	79	89
97.9252	98.3868	48	57
97.9252	98.3868	60	64
97.9252	98.3868	76	85
98.3868	98.8396	52	63
98.3868	99.3029	60	63
98.3868	98.8396	64	70
98.3868	98.8339	72	79
98.3868	98.8396	80	81
98.3868	98.8339	84	89
98.7264	98.8396	71	64
98.7264	98.8396	83	72
98.8396	99.0713	53	56
98.8396	99.0713	65	63
98.8396	99.0713	69	70
98.8396	99.0713	81	79
99.3029	99.7592	57	70
99.3029	99.7535	65	79
99.3029	99.7592	73	81
99.3029	99.7535	77	89
99.6451	99.7592	64	64
99.6451	99.7592	76	72
99.7592	99.9908	58	63
99.7592	99.9908	62	70
99.7592	99.9908	74	79
100.228	100.696	58	39
100.459	100.696	62	44
100.686	101.632	57	41
100.686	101.632	60	44
100.686	101.623	67	49
100.919	101.385	66	40
101.153	101.897	50	41
101.153	101.632	64	41
101.385	101.632	66	38
101.623	101.897	43	26
101.623	101.897	55	29
101.623	101.897	58	33
101.623	101.897	62	33
101.623	101.897	67	37
102.082	102.545	70	39
102.313	102.545	74	44
102.541	103.493	69	41
102.541	103.493	72	44
102.541	103.483	79	49
102.776	103.245	78	40
103.011	103.769	62	41
103.011	103.493	76	41
103.245	103.493	78	38
103.483	103.769	55	26
103.483	103.769	67	29
103.483	103.769	70	33
103.483	103.769	74	33
103.483	103.769	79	37
103.971	104.899	47	64
103.971	104.899	55	64
103.971	104.899	59	73
103.971	104.899	79	81
103.971	104.899	87	91
103.971	104.899	91	85
104.438	104.899	48	58
104.438	104.899	60	66
104.438	104.899	88	86
104.899	105.498	49	62
104.899	105.828	57	64
104.899	105.498	61	69
104.899	105.828	69	79
104.899	105.498	77	89
104.899	105.828	81	89
105.366	105.828	50	57
105.366	105.828	62	64
105.366	105.828	78	85
105.828	106.281	54	63
105.828	106.744	62	63
105.828	106.281	66	70
105.828	106.275	74	79
105.828	106.281	82	81
105.828	106.275	86	89
106.167	106.281	73	64
106.167	106.281	85	72
106.281	106.512	55	56
106.281	106.512	67	63
106.281	106.512	71	70
106.281	106.512	83	79
106.744	107.207	59	70
106.744	107.207	67	79
106.744	107.207	75	81
106.744	107.207	79	89
107.086	107.207	66	64
107.086	107.207	78	72
107.2	107.432	60	63
107.2	107.432	64	70
107.2	107.432	76	79
107.669	108.138	60	39
107.9	108.138	64	44
108.127	109.075	59	41
108.127	109.075	62	44
108.127	109.064	69	49
108.36	108.826	68	40
108.594	109.338	52	41
108.594	109.075	66	41
108.826	109.075	68	38
109.064	109.338	45	26
109.064	109.338	57	29
109.064	109.338	60	33
109.064	109.338	64	33
109.064	109.338	69	37
109.523	109.991	72	39
109.754	109.991	76	44
109.981	110.935	71	41
109.981	110.935	74	44
109.981	110.924	81	49
110.217	110.686	80	40
110.452	111.207	64	41
110.452	110.935	78	41
110.686	110.935	80	38
110.924	111.207	57	26
110.924	111.207	69	29
110.924	111.207	72	33
110.924	111.207	76	33
110.924	111.207	81	37
111.4	111.859	72	39
111.514	111.849	76	49
111.629	111.859	81	53
111.739	111.859	88	49
111.849	112.309	71	49
111.849	112.309	74	50
111.849	112.309	76	50
111.849	112.309	80	50
112.079	112.309	57	35
112.079	112.309	64	35
112.309	112.773	69	39
112.424	112.773	72	49
112.538	112.762	76	53
112.65	112.773	81	49
112.762	113.227	68	49
112.762	113.227	71	50
112.762	113.227	74	50
112.762	113.227	76	50
112.993	113.227	57	35
112.993	113.227	64	35
113.227	113.686	72	39
113.342	113.676	76	49
113.456	113.686	81	53
113.566	113.686	88	49
113.676	114.136	71	49
113.676	114.136	74	50
113.676	114.136	76	50
113.676	114.136	80	50
113.906	114.136	57	35
113.906	114.136	64	35
114.136	114.597	69	39
114.25	114.597	72	49
114.364	114.59	76	53
114.477	114.597	81	49
114.59	115.05	68	49
114.59	115.05	71	50
114.59	115.05	74	50
114.59	115.05	76	50
114.82	115.05	57	35
114.82	115.05	64	35
115.05	115.523	57	39
115.05	115.523	81	56
115.167	115.397	88	46
115.282	115.523	73	49
115.282	115.523	90	52
115.397	115.523	88	48
115.514	115.631	74	52
115.514	115.631	80	56
115.631	115.86	88	46
115.746	115.987	64	35
115.746	115.987	90	53
115.86	115.987	88	48
115.977	116.445	57	39
115.977	116.445	83	56
116.092	116.32	88	46
116.206	116.445	68	49
116.206	116.445	90	52
116.32	116.445	88	48
116.435	116.55	69	52
116.435	116.55	85	56
116.55	116.779	88	46
116.664	116.901	64	35
116.664	116.901	90	53
116.779	116.901	88	48
116.896	117.361	57	39
116.896	117.361	69	56
117.011	117.236	76	46
117.124	117.361	61	49
117.124	117.361	78	52
117.236	117.361	76	48
117.352	117.467	62	52
117.352	117.467	68	56
117.467	117.693	76	46
117.58	117.817	52	35
117.58	117.817	78	53
117.693	117.817	76	48
117.809	118.274	45	39
117.809	118.274	71	56
117.924	118.151	76	46
118.037	118.274	56	49
118.037	118.274	78	52
118.151	118.274	76	48
118.267	118.382	57	52
118.267	118.382	73	56
118.382	118.608	76	46
118.495	118.726	61	35
118.495	118.726	78	53
118.608	118.726	76	48
118.724	119.184	66	70
118.724	119.135	69	58
118.839	119.069	73	48
118.954	119.135	74	55
119.069	119.184	73	50
119.184	119.297	65	64
119.297	119.43	69	48
119.411	119.526	64	62
119.411	119.545	73	56
119.526	119.642	69	50
119.642	119.757	62	64
119.757	119.892	64	48
119.872	119.988	61	61
119.872	120.007	69	48
119.988	120.103	64	50
120.103	120.219	45	63
120.103	120.219	61	58
120.219	120.354	64	48
120.334	120.45	49	58
120.334	120.469	66	55
120.45	120.565	64	50
120.565	121.026	54	64
120.565	120.977	57	58
120.68	120.91	61	48
120.795	120.977	62	55
120.91	121.026	61	50
121.026	121.139	53	59
121.139	121.272	57	48
121.252	121.368	52	57
121.252	121.387	61	56
121.368	121.483	57	50
121.483	121.599	50	59
121.599	121.733	52	48
121.714	121.83	49	56
121.714	121.849	57	48
121.83	121.945	52	50
121.945	122.061	47	59
122.061	122.195	49	48
122.176	122.292	45	56
122.176	122.311	52	55
122.292	122.407	49	50
122.407	122.521	44	59
122.521	122.654	49	48
122.635	122.749	45	56
122.635	122.768	52	48
122.749	122.864	49	51
122.864	122.978	47	61
122.978	123.111	49	49
123.092	123.206	45	58
123.092	123.225	52	57
123.206	123.32	49	52
123.32	123.434	44	63
123.434	123.567	49	51
123.548	123.662	45	60
123.548	123.681	52	51
123.662	123.777	49	55
123.777	123.891	47	66
123.891	124.024	49	53
124.005	124.119	45	62
124.005	124.138	52	61
124.119	124.233	49	57
124.233	124.364	44	68
124.345	124.476	45	57
124.458	124.589	48	63
124.57	124.682	49	57
124.682	124.814	51	69
124.795	124.926	52	61
124.907	125.039	56	66
125.02	125.138	57	59
125.138	125.267	56	71
125.249	125.378	57	61
125.36	125.489	60	66
125.47	125.581	61	59
125.581	125.71	63	72
125.692	125.821	64	63
125.802	125.932	68	69
125.913	126.028	69	64
126.028	126.155	68	74
126.137	126.264	69	63
126.246	126.373	72	71
126.355	126.464	73	63
126.464	126.592	75	75
126.573	126.701	76	64
126.683	126.811	80	72
126.792	126.905	81	64
126.905	127.031	80	78
127.013	127.14	81	67
127.121	127.248	84	74
127.23	127.338	85	67
127.338	127.465	87	79
127.447	127.574	88	71
127.556	127.792	92	77
127.667	128.885	93	72
128.418	128.875	50	64
128.418	128.885	54	64
128.418	128.885	57	74
128.418	128.875	74	79
128.418	128.885	78	79
128.418	128.885	81	88
128.646	128.885	62	60
128.646	128.885	69	74
128.875	129.333	50	62
128.875	129.333	55	62
128.875	129.333	58	71
128.875	129.333	70	75
128.875	129.333	74	75
128.875	129.333	76	84
129.104	129.333	62	53
129.104	129.333	64	69
129.333	129.781	50	64
129.333	129.79	54	64
129.333	129.79	57	74
129.333	129.781	74	79
129.333	129.79	78	79
129.333	129.79	81	88
129.557	129.79	62	59
129.557	129.79	69	74
129.781	130.223	50	62
129.781	130.223	55	62
129.781	130.15	58	71
129.781	130.15	70	75
129.781	130.15	74	75
129.781	130.223	76	84
130.002	130.223	62	55
130.002	130.223	64	74
130.223	131.073	60	63
130.223	131.073	62	63
130.223	131.073	66	70
130.223	131.073	69	70
130.223	130.276	74	72
130.329	130.382	76	62
130.435	130.487	74	69
130.54	130.593	76	63
130.646	130.753	78	72
130.86	130.966	78	68
131.073	131.127	58	70
131.073	131.501	67	66
131.073	131.501	74	66
131.073	131.287	76	73
131.18	131.234	57	61
131.287	131.341	55	67
131.287	131.501	79	69
131.394	131.447	54	61
131.501	131.877	52	72
131.501	131.877	73	64
131.501	132.404	76	72
131.712	131.946	57	66
131.712	132.175	69	68
131.946	132.404	50	64
131.946	132.422	54	64
131.946	132.422	57	74
131.946	132.404	74	79
131.946	132.422	78	79
131.946	132.422	81	88
132.175	132.422	62	60
132.175	132.422	69	74
132.404	132.862	50	62
132.404	132.862	55	62
132.404	132.862	58	71
132.404	132.862	70	75
132.404	132.862	74	75
132.404	132.862	76	84
132.633	132.862	62	56
132.633	132.862	64	70
132.862	133.305	50	64
132.862	133.324	54	64
132.862	133.324	57	74
132.862	133.305	74	79
132.862	133.324	78	79
132.862	133.324	81	88
133.084	133.324	62	60
133.084	133.324	69	74
133.305	133.748	50	62
133.305	133.748	55	62
133.305	133.674	58	71
133.305	133.674	70	75
133.305	133.674	74	75
133.305	133.748	76	84
133.526	133.748	62	55
133.526	133.748	64	71
133.748	134.605	60	63
133.748	134.605	62	63
133.748	134.605	66	70
133.748	134.605	69	70
133.748	133.801	74	77
133.855	133.909	76	72
133.962	134.016	74	77
134.069	134.123	76	71
134.176	134.284	78	80
134.391	134.498	78	72
134.605	134.659	58	60
134.605	134.659	62	60
134.605	134.659	74	80
134.605	134.659	76	80
134.712	134.766	78	81
134.819	134.872	58	66
134.819	134.872	79	83
134.925	134.978	57	68
134.925	134.978	81	85
135.031	135.254	55	71
135.031	135.254	82	86
135.477	135.92	43	41
135.477	135.92	51	41
135.582	135.796	61	42
135.582	135.796	63	42
135.686	135.92	58	37
135.796	135.92	61	42
135.796	135.92	63	42
135.907	136.342	56	43
135.907	136.342	60	47
136.125	136.342	44	37
136.125	136.342	51	37
136.125	136.342	63	42
136.125	136.342	72	42
136.342	136.785	45	44
136.342	136.785	53	44
136.446	136.662	63	46
136.446	136.662	65	46
136.551	136.785	60	40
136.662	136.785	63	46
136.662	136.785	65	46
136.772	137.207	58	48
136.772	137.207	62	52
136.99	137.207	46	40
136.99	137.207	53	40
136.99	137.207	65	41
136.99	137.207	74	47
137.207	137.653	47	45
137.207	137.648	55	45
137.207	137.653	62	49
137.426	137.653	59	38
137.426	137.653	65	38
137.426	137.653	67	38
137.426	137.653	74	41
137.648	138.093	48	47
137.648	138.085	55	47
137.648	138.093	63	50
137.865	138.093	60	39
137.865	138.093	67	38
137.865	138.093	75	43
138.085	138.528	50	49
138.085	138.52	55	49
138.085	138.528	65	54
138.301	138.528	62	41
138.301	138.528	71	38
138.301	138.528	79	43
138.52	138.893	48	47
138.52	138.955	55	47
138.52	138.955	63	53
138.738	138.955	60	40
138.738	138.955	67	40
138.738	138.955	75	45
138.955	139.393	47	46
138.955	139.393	55	46
139.059	139.273	65	47
139.059	139.273	67	47
139.163	139.393	62	42
139.273	139.393	65	48
139.273	139.393	67	48
139.384	139.819	60	51
139.384	139.819	64	53
139.601	139.819	48	42
139.601	139.819	55	42
139.601	139.819	67	43
139.601	139.819	76	48
139.819	140.259	49	52
139.819	140.259	57	52
139.923	140.138	67	53
139.923	140.138	69	53
140.027	140.259	64	46
140.138	140.259	67	53
140.138	140.259	69	53
140.249	140.683	62	54
140.249	140.683	65	58
140.466	140.683	50	47
140.466	140.683	57	47
140.466	140.683	69	47
140.466	140.683	77	53
140.683	141.132	49	54
140.683	141.123	57	54
140.683	141.132	64	58
140.901	141.132	61	46
140.901	141.132	67	44
140.901	141.132	69	44
140.901	141.132	76	49
141.123	141.566	50	56
141.123	141.558	57	56
141.123	141.566	65	59
141.339	141.566	62	47
141.339	141.566	69	46
141.339	141.566	77	52
141.558	141.996	52	57
141.558	141.992	57	57
141.558	141.996	67	65
141.773	141.996	64	49
141.773	141.996	73	46
141.773	141.996	81	53
141.992	142.365	50	56
141.992	142.427	57	56
141.992	142.427	65	62
142.209	142.427	62	48
142.209	142.427	69	48
142.209	142.427	77	55
142.427	142.869	49	58
142.427	142.862	57	58
142.427	142.869	64	66
142.641	142.869	61	49
142.641	142.869	67	50
142.641	142.869	69	50
142.641	142.869	76	57
142.862	143.301	50	61
142.862	143.301	57	61
142.862	143.301	65	66
143.075	143.301	62	52
143.075	143.292	69	50
143.075	143.301	77	57
143.292	143.729	51	63
143.292	143.726	59	63
143.292	143.729	69	70
143.507	143.729	63	53
143.507	143.729	78	50
143.507	143.729	83	57
143.726	144.099	52	60
143.726	144.16	59	60
143.726	144.16	67	67
143.943	144.16	64	52
143.943	144.16	71	53
143.943	144.16	79	59
144.16	144.598	51	64
144.16	144.592	59	64
144.16	144.598	66	71
144.373	144.598	63	54
144.373	144.598	69	57
144.373	144.598	71	57
144.373	144.598	78	64
144.592	145.027	52	66
144.592	145.027	59	66
144.592	145.027	67	74
144.803	145.027	64	56
144.803	145.019	71	58
144.803	145.027	79	64
145.019	145.458	53	67
145.019	145.45	61	67
145.019	145.458	71	76
145.231	145.458	65	57
145.231	145.458	80	58
145.231	145.458	85	65
145.45	145.819	54	65
145.45	145.88	61	65
145.45	145.88	69	75
145.665	145.88	66	56
145.665	145.88	73	60
145.665	145.88	81	67
145.88	146.322	54	72
145.88	146.309	62	72
145.88	146.322	72	82
146.092	146.322	66	60
146.092	146.322	81	60
146.092	146.322	86	69
146.309	146.747	55	70
146.309	146.741	62	70
146.309	146.747	71	78
146.525	146.747	67	60
146.525	146.747	74	65
146.525	146.747	83	72
146.741	147.18	54	73
146.741	147.169	62	73
146.741	147.18	72	83
146.953	147.18	66	61
146.953	147.18	81	61
146.953	147.18	86	70
147.169	147.541	55	71
147.169	147.603	62	71
147.169	147.603	71	79
147.384	147.603	67	60
147.384	147.603	74	61
147.384	147.603	83	70
147.603	147.707	67	69
147.603	147.707	70	69
147.603	147.707	74	77
147.603	147.655	88	86
147.707	147.759	86	73
147.811	147.863	82	80
147.915	147.967	81	71
148.019	148.07	76	80
148.019	148.122	79	77
148.122	148.174	74	71
148.226	148.278	70	74
148.33	148.382	69	71
148.433	148.537	67	82
148.433	148.485	76	74
148.537	148.588	74	67
148.641	148.693	70	72
148.745	148.797	69	64
148.85	148.902	64	71
148.85	148.955	67	75
148.955	149.008	62	60
149.061	149.114	58	67
149.168	149.221	57	61
149.275	149.381	55	74
149.275	149.328	64	74
149.381	149.434	62	63
149.487	149.54	58	70
149.593	149.646	57	60
149.699	149.752	52	71
149.699	149.805	55	75
149.805	149.859	50	62
149.912	149.965	46	67
150.019	150.073	45	61
150.126	150.232	43	71
150.126	150.179	52	74
150.232	150.285	50	64
150.338	150.391	46	70
150.444	150.497	45	64
150.55	150.603	40	69
150.55	150.656	43	75
150.656	150.71	38	59
150.763	150.817	34	64
150.87	150.924	33	55
150.978	151.087	31	63
151.196	151.305	31	62
151.414	151.518	31	63
151.518	151.623	33	56
151.623	151.733	34	59
151.733	151.844	31	53
151.844	151.952	33	61
152.06	152.168	33	59
152.277	152.49	34	63
152.49	153.151	31	58
152.718	154.462	50	56
152.718	154.462	52	56
152.718	154.462	62	62
152.718	154.462	64	62
153.151	153.597	31	56
153.151	153.597	43	56
153.592	154.151	33	59
153.592	154.151	45	59
154.027	154.462	34	55
154.027	154.462	46	55
154.462	154.571	43	49
154.68	154.789	43	44
154.898	155.002	43	49
155.002	155.107	45	42
155.107	155.217	46	49
155.217	155.327	43	41
155.327	155.436	45	49
155.544	155.652	45	42
155.761	155.974	46	49
155.974	156.192	43	45
156.192	157.951	62	49
156.192	157.951	64	49
156.192	157.951	74	56
156.192	157.951	76	56
156.626	157.071	43	42
156.626	157.071	55	42
157.067	157.716	45	48
157.067	157.716	57	48
157.502	157.951	46	44
157.502	157.951	58	44
157.951	159.695	74	41
157.951	159.695	76	41
157.951	159.695	86	45
157.951	159.695	88	45
158.384	158.834	55	35
158.384	158.834	67	35
158.825	159.447	57	39
158.825	159.447	69	39
159.26	159.695	58	36
159.26	159.695	70	36
160.555	160.664	43	85
160.555	160.664	79	97
160.772	160.881	43	77
160.772	160.881	79	88
160.99	161.119	43	84
160.99	161.119	79	96
161.1	161.23	45	72
161.1	161.23	81	83
161.211	161.341	46	79
161.211	161.341	82	88
161.322	161.434	43	72
161.322	161.434	79	79
161.434	161.55	44	86
161.434	161.55	80	101
161.664	161.784	45	82
161.664	161.784	81	93
161.904	162.154	38	81
161.904	162.154	45	81
161.904	162.154	50	91
161.904	162.154	74	99
161.904	162.154	78	99
161.904	162.154	86	111
