OnsetTime	OffsetTime	MidiPitch	Velocity
0.518994	2.10798	58	40
0.518994	2.10798	62	45
1.32698	2.90597	55	38
2.09799	3.68597	63	45
2.09998	3.68597	60	40
2.90597	4.48297	55	33
3.67897	5.23397	62	45
3.67998	5.27097	58	40
4.48297	6.02099	55	36
5.23397	6.77297	62	45
5.23498	6.77398	57	40
5.23598	6.77398	60	45
6.02099	7.52197	55	33
6.77297	8.26097	58	40
6.77297	8.26097	62	45
7.51897	7.86797	67	56
7.52197	8.98897	55	38
7.86797	8.10396	67	52
7.98396	8.26097	69	49
8.10396	8.26097	67	48
8.22297	9.70196	66	57
8.22497	9.70196	60	38
8.22596	9.70196	63	42
8.98897	10.407	55	33
9.33197	9.70196	69	44
9.68797	11.197	67	52
9.68896	11.197	58	42
9.68896	11.16	62	49
10.046	11.197	70	57
10.407	11.9319	55	40
10.407	11.197	74	64
10.771	11.197	78	69
11.155	12.7019	79	68
11.1589	12.7019	57	33
11.1589	12.7019	60	39
11.16	12.6849	62	45
11.9319	13.4799	55	34
12.2969	12.7019	78	60
12.6839	14.0879	74	61
12.6849	13.4829	58	34
12.6849	13.4839	62	38
13.4799	14.1829	55	37
13.4829	14.1829	58	37
13.4839	14.1859	62	41
13.4859	13.8289	43	46
13.8289	14.0679	43	39
13.9509	14.0879	45	39
14.0679	14.1859	43	39
14.1859	15.6629	42	49
14.9379	15.6629	62	42
14.9389	15.6629	57	38
14.9389	15.6629	60	42
15.2859	15.6629	45	47
15.6559	17.1439	43	46
16.0059	17.1439	46	49
16.3599	17.1439	62	49
16.3609	17.1439	50	51
16.3609	17.1439	58	42
16.7239	17.1779	54	54
17.1119	18.6519	55	57
17.8849	18.6519	62	42
17.8859	18.6519	57	38
17.8889	18.6519	60	38
18.2709	18.6519	54	44
18.6349	20.1249	50	40
19.3799	20.1249	62	38
19.3799	19.7339	67	56
19.3809	20.1249	55	33
19.3809	20.1249	58	33
19.7339	19.9659	67	52
19.8499	20.1249	69	48
19.9659	20.1249	67	48
20.0849	21.5749	66	61
20.0879	21.5749	48	45
20.8529	21.5749	54	33
20.8539	21.5749	57	33
20.8539	21.5749	62	38
21.1979	21.5749	69	53
21.5539	23.0339	67	58
21.5549	23.0339	46	49
21.9109	23.0339	70	62
22.2709	23.0339	74	66
22.2749	23.0339	58	36
22.2749	23.0339	62	40
22.2759	23.0339	55	36
22.6349	23.0339	78	69
23.0209	24.5709	79	73
23.0239	24.5709	47	53
23.7969	24.5709	59	34
23.7979	24.5709	55	34
23.8009	24.5709	62	39
24.1619	24.5669	77	67
24.5669	25.2879	77	67
24.5679	25.2889	48	52
24.9349	25.3509	54	52
25.2889	26.0549	67	44
25.2919	25.7289	55	51
25.2919	26.0559	72	52
25.2919	26.0559	75	58
25.6689	26.1179	60	54
26.0579	27.6199	74	62
26.0589	27.6199	65	57
26.8319	27.6149	72	46
26.8329	27.6199	67	46
26.8349	27.6159	55	36
26.8349	27.6199	60	40
27.2099	27.6199	63	51
27.6149	27.8889	72	68
27.6159	29.1069	55	36
27.6159	29.1069	58	36
27.6189	29.1079	62	40
27.9759	28.2559	66	57
28.3469	28.6299	67	62
28.3479	30.6609	50	45
28.7249	29.0159	69	58
29.1099	30.6619	60	46
29.1099	30.6619	70	58
29.1319	30.6679	66	46
29.8829	30.6579	62	35
30.2519	30.6619	69	46
30.6569	31.5849	67	42
30.6579	31.5849	43	28
30.6579	31.5849	58	37
30.6579	31.5849	62	37
30.6609	31.5849	50	36
31.4069	31.9629	74	64
31.9629	32.0329	74	63
32.0329	32.1089	75	63
32.1099	33.3809	74	69
32.1109	33.4929	63	37
32.1109	33.4919	66	43
32.7989	34.1749	58	35
33.1499	33.4929	69	55
33.4939	33.6639	70	56
33.4949	34.8429	65	43
33.4959	34.8429	62	37
33.8389	34.0069	73	58
34.1759	35.5149	58	36
34.1759	34.3429	74	62
34.5109	34.6828	75	66
34.8438	35.0048	77	67
34.8469	36.1908	60	37
34.8469	36.1868	63	43
35.1649	35.3439	78	68
35.5149	35.6799	82	70
35.5189	36.8248	58	34
35.8409	36.0148	81	68
36.1308	36.1938	81	64
36.1938	37.1989	84	77
36.1949	37.4719	62	43
36.1949	37.4719	65	47
36.8248	38.1119	58	39
37.1429	37.3908	82	67
37.4159	37.4749	82	68
37.4749	37.6289	86	75
37.4759	38.7599	62	47
37.4759	38.7609	72	54
37.4789	38.7629	66	47
37.7829	37.9479	81	70
38.0599	38.1119	82	67
38.1129	38.2739	86	75
38.1159	39.4109	58	49
38.4269	38.5919	81	69
38.7039	38.7639	81	68
38.7669	39.0749	86	75
38.7679	40.0899	62	39
38.7679	40.0899	70	47
38.7699	40.0899	67	43
39.0759	40.0899	79	68
39.4139	40.7349	58	37
39.7269	41.4089	82	70
40.0759	41.4089	60	42
40.0769	41.4089	63	47
40.3879	41.4089	78	64
40.7349	42.0739	58	34
41.0489	42.3889	81	68
41.3989	42.7709	62	49
41.7209	42.4139	74	64
42.0739	43.4429	58	32
42.4139	42.6239	79	67
42.6249	42.6969	74	55
42.6979	42.7749	75	58
42.7749	43.8729	74	67
42.7759	44.0839	66	50
42.7779	44.0869	63	45
43.4429	44.7419	58	36
43.7619	44.0869	69	55
44.0869	44.2409	70	56
44.0909	45.3789	62	37
44.0909	45.3789	65	43
44.4019	44.5729	73	58
44.7419	44.8949	74	62
44.7429	46.0159	58	36
45.0529	45.2169	75	64
45.3789	45.5389	77	67
45.3819	46.6559	60	37
45.3819	46.6559	63	43
45.6969	45.8609	78	68
46.0159	46.1799	82	70
46.0189	47.2969	58	34
46.3379	46.4979	81	68
46.6029	46.6599	81	64
46.6599	47.6709	84	75
46.6609	47.9339	62	43
46.6609	47.9369	65	47
47.2969	48.5849	58	39
47.6149	47.8529	82	67
47.8809	47.9369	78	63
47.9369	48.0909	82	73
47.9379	49.2389	66	45
47.9379	49.2429	72	51
47.9409	49.2429	62	45
48.2449	48.4129	78	67
48.5249	48.5849	78	63
48.5859	48.7419	82	73
48.5879	49.8869	58	49
48.8959	49.0639	78	64
49.1829	49.2439	78	62
49.2439	50.2609	81	70
49.2459	50.5269	62	43
49.2459	50.5309	67	43
49.2459	50.5239	70	47
49.5609	50.2609	74	60
49.8869	51.1709	58	39
50.2089	50.4459	79	61
50.4779	50.5309	74	57
50.5319	50.6839	70	66
50.5339	51.8289	50	41
50.5339	51.8289	54	41
50.5349	51.8299	60	46
50.8419	51.0099	69	58
51.1219	51.1749	74	57
51.1759	52.5219	46	37
51.1759	51.3279	70	64
51.4859	51.6609	69	55
51.7689	51.8329	74	56
51.8329	52.8339	69	68
51.8339	53.2149	58	46
51.8359	53.2149	50	41
51.8359	53.2189	55	41
52.1649	52.8579	67	64
52.5219	53.9019	46	37
52.8579	53.0639	62	58
53.0649	53.1419	62	50
53.1419	53.2189	63	50
53.2189	54.3629	62	62
53.2219	54.5869	51	39
53.2219	54.5879	54	45
53.9019	55.2239	46	39
54.2449	54.5879	57	60
54.5889	54.7409	58	62
54.5909	55.8639	50	37
54.5909	55.8609	53	43
54.9049	55.0629	61	63
55.2249	56.4869	46	36
55.2249	55.3819	62	64
55.5419	55.6999	63	66
55.8649	57.1279	51	43
55.8649	56.0189	65	67
55.8689	57.1279	48	37
56.1759	56.3339	66	68
56.4879	56.6519	70	70
56.4909	57.7859	46	36
56.8099	56.9699	69	68
57.0759	57.1289	69	64
57.1319	58.4329	53	47
57.1319	58.1669	72	72
57.1349	58.4339	50	43
57.7859	59.0919	46	39
58.1079	58.3529	70	67
58.3809	58.4379	70	61
58.4379	58.5869	74	72
58.4399	59.7389	54	45
58.4409	59.7429	50	45
58.4409	59.7419	60	51
58.7419	58.9159	69	64
59.0319	59.0919	70	60
59.0919	59.2449	74	73
59.0959	60.3939	46	49
59.3999	59.5669	69	62
59.6829	59.7429	69	59
59.7469	61.0439	50	43
59.7469	61.0489	55	43
59.7469	60.7749	74	70
59.7489	61.0489	58	47
60.0689	60.7749	62	64
60.3939	61.7129	46	39
60.7159	60.9679	67	61
60.9889	61.0509	62	61
61.0519	62.3989	52	41
61.0519	61.1989	67	70
61.0529	62.3999	57	46
61.3519	61.5349	61	63
61.6499	61.7159	62	57
61.7169	62.4019	45	37
61.7169	61.8709	67	68
62.0349	62.2209	61	62
62.3429	62.4029	62	58
62.4029	63.8619	50	45
62.4029	63.4559	67	68
62.7519	63.8619	57	52
63.1059	63.8629	38	34
63.4569	63.8659	66	54
63.8659	65.2369	58	41
63.8689	65.2379	55	37
64.2049	64.4159	62	49
64.3109	64.5309	63	49
64.4159	64.5309	62	49
64.5199	65.2409	50	41
64.5199	65.1819	61	57
65.0599	65.2419	62	55
65.2419	65.3139	66	66
65.2449	66.5329	57	41
65.2449	66.5329	60	41
65.3949	65.4689	68	62
65.5459	65.6259	69	64
65.7059	65.7939	73	67
65.8709	66.5329	50	41
65.8709	66.5329	74	69
66.5319	67.8349	58	43
66.5329	67.8349	62	43
66.8509	67.0089	79	66
67.0089	67.1069	79	58
67.0619	67.1769	81	58
67.1069	67.1769	79	58
67.1589	67.8349	78	67
67.1629	67.8349	50	37
67.6639	67.8349	79	63
67.8319	69.1969	86	74
67.8329	69.1969	57	52
67.8349	69.1969	60	52
68.1459	69.1969	74	64
68.5069	69.1969	50	40
68.8499	69.1969	62	40
69.1959	70.5539	55	37
69.1969	70.5579	58	41
69.5209	69.7319	62	52
69.6279	69.8189	63	52
69.7319	69.8359	62	52
69.8369	70.4979	61	61
69.8379	70.5579	50	41
70.3759	70.5579	62	57
70.5609	70.6309	66	64
70.5619	71.8909	57	41
70.5619	71.8909	60	41
70.7119	70.7889	68	61
70.8619	70.9429	69	64
71.0269	71.1069	73	68
71.1869	71.8909	74	73
71.1879	71.8909	50	41
71.8669	73.2529	58	43
71.8669	73.2529	62	43
72.1989	72.3599	79	64
72.3599	72.4659	79	59
72.4159	72.5349	81	59
72.4659	72.5349	79	59
72.5249	73.2529	50	38
72.5249	73.2529	78	65
73.0469	73.2529	79	64
73.2249	74.6069	86	76
73.2259	74.6069	57	43
73.2259	74.6069	60	43
73.5359	74.6069	74	54
73.8969	74.6069	50	35
74.2429	74.6069	62	35
74.5899	75.9999	55	35
74.5899	75.9999	58	38
74.9259	75.0909	79	64
75.0909	75.2019	79	59
75.1469	75.2689	81	59
75.2019	75.2689	79	60
75.2509	75.9999	78	65
75.2549	75.9999	50	38
75.7979	75.9999	79	65
75.9829	77.3539	57	53
75.9829	77.3539	86	77
75.9839	77.3539	60	53
76.2879	77.3539	74	64
76.6509	77.3539	50	41
76.9949	77.3539	62	41
77.3409	78.7229	55	46
77.3409	78.7229	58	46
77.6759	78.7229	73	63
78.0229	78.7229	50	38
78.3639	78.7229	61	41
78.7099	80.0989	54	45
78.7129	80.0989	57	45
79.0489	80.0989	74	64
79.3849	80.0989	50	38
79.7169	80.0989	62	41
80.0809	81.5019	55	47
80.0819	81.5019	58	47
80.4349	81.5019	73	59
80.7889	81.5019	50	38
81.1279	81.5019	61	41
81.4849	82.8779	54	41
81.4849	82.8779	57	41
81.8279	83.2519	74	57
82.1839	83.6269	50	38
82.5139	84.0399	62	39
82.8779	84.4639	54	42
82.8779	84.4639	57	42
83.2519	84.4639	74	55
83.6269	84.4639	50	38
84.0399	84.4639	62	38
84.4639	85.9609	58	40
84.4639	85.9609	62	45
85.2089	85.5549	67	56
85.2099	86.6759	55	38
85.5549	85.7939	67	49
85.6779	85.9609	69	49
85.7939	85.9609	67	48
85.9119	87.3959	66	61
85.9159	87.3959	60	38
85.9159	87.3959	63	42
86.6759	88.0969	55	34
87.0189	87.3959	69	53
87.3819	88.8659	67	58
87.3829	88.8659	58	42
87.3829	88.8449	62	49
87.7389	88.8659	70	62
88.0959	88.8659	74	66
88.0969	89.6189	55	40
88.4579	88.8659	78	68
88.8449	90.3719	62	45
88.8449	90.3849	79	68
88.8459	90.3849	60	39
88.8489	90.3849	57	39
89.6189	91.1729	55	34
89.9869	90.3849	78	64
90.3719	91.1729	62	42
90.3719	91.7779	74	62
90.3749	91.1699	58	38
91.1699	91.8699	58	37
91.1729	91.5229	43	46
91.1729	91.8729	55	37
91.1729	91.8729	62	41
91.5229	91.7569	43	39
91.6389	91.7779	45	40
91.7569	91.8759	43	40
91.8769	93.3639	42	46
92.6319	93.3639	57	38
92.6329	93.3639	60	42
92.6329	93.3639	62	42
92.9799	93.3639	45	43
93.3439	94.8369	43	46
93.6999	94.8369	46	49
94.0529	94.8369	58	42
94.0569	94.8369	62	49
94.0579	94.8369	50	51
94.4179	94.8649	54	54
94.8059	96.3359	55	57
95.5789	96.3359	57	38
95.5839	96.3359	60	38
95.5839	96.3359	62	42
95.9579	96.3359	54	39
96.3289	97.8189	50	36
97.0739	97.8189	55	33
97.0739	97.8189	58	33
97.0739	97.4209	67	56
97.0779	97.8189	62	38
97.4209	97.6549	67	52
97.5389	97.8189	69	52
97.6549	97.8189	67	52
97.7809	99.2469	66	61
97.7819	99.2469	48	45
98.5399	99.2469	57	33
98.5409	99.2469	62	38
98.5439	99.2469	54	33
98.8829	99.2469	69	53
99.2439	100.724	46	49
99.2439	100.724	67	54
99.5979	100.724	70	57
99.9619	100.724	62	40
99.9619	100.724	74	60
99.9629	100.724	55	36
99.9629	100.724	58	36
100.326	100.724	78	63
100.711	102.258	79	66
100.714	102.258	47	49
101.487	102.258	59	39
101.488	102.258	55	31
101.488	102.258	62	44
101.852	102.254	77	57
102.254	102.982	77	56
102.258	102.983	48	41
102.622	103.041	54	46
102.985	103.741	75	52
102.986	103.745	67	40
102.986	103.745	72	46
102.989	103.423	55	49
103.36	103.808	60	45
103.746	105.31	74	60
103.748	105.31	65	49
104.522	105.31	67	41
104.523	105.303	72	41
104.526	105.306	55	32
104.526	105.31	60	36
104.9	105.31	63	45
105.303	105.575	72	56
105.304	106.804	62	36
105.306	106.804	55	32
105.307	106.804	58	32
105.67	105.95	66	49
106.034	106.321	67	54
106.035	108.352	50	37
106.419	106.703	69	50
106.805	108.376	60	37
106.808	108.376	70	46
106.818	108.376	66	37
107.581	108.348	62	26
107.949	108.376	69	48
108.348	109.093	62	36
108.351	109.093	67	42
108.352	109.845	50	31
108.352	109.097	58	35
108.355	109.845	43	31
109.093	115.113	55	34
109.093	109.845	62	39
109.093	109.443	67	46
109.097	109.845	58	34
109.443	109.674	67	41
109.563	109.845	69	41
109.674	109.845	67	41
109.797	111.305	66	48
110.559	111.305	63	37
110.56	111.305	60	31
110.921	111.305	69	40
111.27	112.792	67	42
111.645	112.792	70	46
112.009	112.792	74	49
112.012	112.792	58	31
112.012	112.792	62	37
112.379	112.792	78	50
112.761	114.353	79	55
113.538	114.353	60	31
113.538	114.353	63	37
113.913	114.353	78	50
114.316	115.113	58	35
114.316	115.631	74	45
114.319	115.11	62	39
115.11	115.631	62	36
115.113	115.631	55	29
115.113	115.631	58	29
115.114	115.468	43	38
115.468	115.631	43	33
115.579	115.694	45	36
115.695	115.813	43	36
115.813	117.332	42	42
116.591	117.332	57	28
116.591	117.332	60	33
116.591	117.332	62	33
116.948	117.332	45	37
117.308	118.823	43	36
117.675	118.823	46	38
118.039	118.795	55	30
118.043	118.823	58	33
118.044	118.823	50	40
118.044	118.823	62	36
118.417	118.866	54	42
118.795	120.374	55	44
119.572	120.374	62	33
119.573	120.374	57	28
119.575	120.374	60	28
119.961	120.374	54	36
120.346	121.892	50	26
120.349	121.892	43	26
121.124	121.892	62	33
121.127	121.892	58	28
121.871	123.457	55	38
122.649	123.457	57	25
122.652	123.457	62	28
122.653	123.457	60	25
123.031	123.457	54	33
123.423	124.98	50	26
123.425	124.98	43	26
124.189	124.98	58	28
124.192	124.98	62	33
124.959	126.555	55	38
125.739	126.555	62	28
125.74	126.555	57	25
125.74	126.555	60	25
126.12	126.555	54	33
126.523	135.085	43	26
126.524	135.085	50	26
127.335	128.959	62	29
127.336	128.96	55	24
127.336	128.96	58	24
128.959	130.585	62	26
128.96	130.584	55	22
128.96	130.584	58	22
130.584	132.204	55	20
130.584	132.203	58	20
130.585	132.204	62	25
132.203	135.085	58	18
132.204	135.085	55	18
132.204	135.085	62	23
