# onset,offset,note,velocity
0.500004	0.599340	71.000000	66.000000
0.599340	0.698676	69.000000	64.000000
0.698676	0.798011	68.000000	64.000000
0.798011	0.910798	69.000000	64.000000
0.910798	1.010134	72.000000	71.000000
0.910798	1.010134	57.000000	57.000000
1.109470	1.208805	64.000000	52.000000
1.109470	1.208805	60.000000	43.000000
1.321592	1.421599	74.000000	66.000000
1.321592	1.421599	60.000000	43.000000
1.321592	1.421599	64.000000	52.000000
1.421599	1.521605	72.000000	63.000000
1.521605	1.621611	71.000000	63.000000
1.521605	1.621611	60.000000	42.000000
1.521605	1.621611	64.000000	51.000000
1.621611	1.735243	72.000000	63.000000
1.735243	1.834579	76.000000	72.000000
1.735243	1.834579	57.000000	57.000000
1.933914	2.033250	64.000000	52.000000
1.933914	2.033250	60.000000	43.000000
2.143542	2.242878	77.000000	66.000000
2.143542	2.242878	64.000000	52.000000
2.143542	2.242878	60.000000	43.000000
2.242878	2.342214	76.000000	63.000000
2.342214	2.441549	75.000000	63.000000
2.342214	2.441549	64.000000	52.000000
2.342214	2.441549	60.000000	43.000000
2.441549	2.545713	76.000000	63.000000
2.545713	2.645049	83.000000	70.000000
2.545713	2.645049	57.000000	57.000000
2.645049	2.744384	81.000000	64.000000
2.744384	2.843720	80.000000	64.000000
2.744384	2.843720	64.000000	50.000000
2.744384	2.843720	60.000000	42.000000
2.843720	2.943056	81.000000	64.000000
2.943056	3.044417	83.000000	69.000000
2.943056	3.044417	57.000000	57.000000
3.044417	3.145764	81.000000	64.000000
3.145764	3.247111	80.000000	64.000000
3.145764	3.247111	64.000000	52.000000
3.145764	3.247111	60.000000	43.000000
3.247111	3.361615	81.000000	64.000000
3.361615	3.788354	84.000000	72.000000
3.361615	3.463659	57.000000	57.000000
3.565704	3.672081	64.000000	50.000000
3.565704	3.672081	60.000000	42.000000
3.788354	3.887690	81.000000	68.000000
3.788354	3.887690	64.000000	50.000000
3.788354	3.887690	60.000000	42.000000
3.987026	4.094167	84.000000	65.000000
3.987026	4.094167	64.000000	50.000000
3.987026	4.094167	60.000000	42.000000
4.166989	4.189305	79.000000	63.000000
4.189305	4.211621	81.000000	63.000000
4.211621	4.312968	83.000000	80.000000
4.211621	4.312968	52.000000	65.000000
4.414315	4.515663	78.000000	54.000000
4.414315	4.515663	81.000000	64.000000
4.414315	4.515663	64.000000	53.000000
4.414315	4.515663	59.000000	44.000000
4.617010	4.716346	76.000000	58.000000
4.617010	4.716346	79.000000	69.000000
4.617010	4.716346	64.000000	53.000000
4.617010	4.716346	59.000000	44.000000
4.815681	4.922822	78.000000	54.000000
4.815681	4.922822	81.000000	64.000000
4.815681	4.922822	64.000000	53.000000
4.815681	4.922822	59.000000	44.000000
4.994250	5.016700	79.000000	65.000000
5.016700	5.039150	81.000000	65.000000
5.039150	5.140497	83.000000	82.000000
5.039150	5.140497	52.000000	66.000000
5.241844	5.343192	78.000000	56.000000
5.241844	5.343192	81.000000	66.000000
5.241844	5.343192	64.000000	52.000000
5.241844	5.343192	59.000000	43.000000
5.444539	5.543875	76.000000	58.000000
5.444539	5.543875	79.000000	69.000000
5.444539	5.543875	64.000000	52.000000
5.444539	5.543875	59.000000	43.000000
5.643211	5.751129	78.000000	55.000000
5.643211	5.751129	81.000000	65.000000
5.643211	5.751129	64.000000	52.000000
5.643211	5.751129	59.000000	43.000000
5.819941	5.842137	79.000000	64.000000
5.842137	5.889505	81.000000	64.000000
5.864332	5.965009	83.000000	79.000000
5.864332	5.965009	52.000000	67.000000
6.065686	6.166362	78.000000	57.000000
6.065686	6.166362	81.000000	68.000000
6.065686	6.166362	64.000000	52.000000
6.065686	6.166362	59.000000	43.000000
6.267039	6.376527	76.000000	58.000000
6.267039	6.376527	79.000000	69.000000
6.267039	6.376527	47.000000	52.000000
6.486015	6.602289	75.000000	56.000000
6.486015	6.602289	78.000000	66.000000
6.486015	6.602289	59.000000	52.000000
6.718562	7.175879	76.000000	69.000000
6.718562	7.175879	52.000000	57.000000
7.206363	7.305698	71.000000	66.000000
7.305698	7.405034	69.000000	64.000000
7.405034	7.504370	68.000000	64.000000
7.504370	7.617157	69.000000	64.000000
7.617157	7.716492	72.000000	71.000000
7.617157	7.716492	57.000000	57.000000
7.815828	7.915164	64.000000	52.000000
7.815828	7.915164	60.000000	43.000000
8.027951	8.127957	74.000000	66.000000
8.027951	8.127957	60.000000	43.000000
8.027951	8.127957	64.000000	52.000000
8.127957	8.227963	72.000000	63.000000
8.227963	8.327969	71.000000	63.000000
8.227963	8.327969	60.000000	42.000000
8.227963	8.327969	64.000000	51.000000
8.327969	8.441601	72.000000	63.000000
8.441601	8.540937	76.000000	72.000000
8.441601	8.540937	57.000000	57.000000
8.640273	8.739608	64.000000	52.000000
8.640273	8.739608	60.000000	43.000000
8.849901	8.949236	77.000000	66.000000
8.849901	8.949236	64.000000	52.000000
8.849901	8.949236	60.000000	43.000000
8.949236	9.048572	76.000000	63.000000
9.048572	9.147908	75.000000	63.000000
9.048572	9.147908	64.000000	52.000000
9.048572	9.147908	60.000000	43.000000
9.147908	9.252071	76.000000	63.000000
9.252071	9.351407	83.000000	70.000000
9.252071	9.351407	57.000000	57.000000
9.351407	9.450743	81.000000	64.000000
9.450743	9.550078	80.000000	64.000000
9.450743	9.550078	64.000000	50.000000
9.450743	9.550078	60.000000	42.000000
9.550078	9.649414	81.000000	64.000000
9.649414	9.750775	83.000000	69.000000
9.649414	9.750775	57.000000	57.000000
9.750775	9.852122	81.000000	64.000000
9.852122	9.953470	80.000000	64.000000
9.852122	9.953470	64.000000	52.000000
9.852122	9.953470	60.000000	43.000000
9.953470	10.067973	81.000000	64.000000
10.067973	10.494713	84.000000	72.000000
10.067973	10.170018	57.000000	57.000000
10.272063	10.378439	64.000000	50.000000
10.272063	10.378439	60.000000	42.000000
10.494713	10.594049	81.000000	68.000000
10.494713	10.594049	64.000000	50.000000
10.494713	10.594049	60.000000	42.000000
10.693384	10.800525	84.000000	65.000000
10.693384	10.800525	64.000000	50.000000
10.693384	10.800525	60.000000	42.000000
10.873347	10.895663	79.000000	63.000000
10.895663	10.917979	81.000000	63.000000
10.917979	11.019326	83.000000	80.000000
10.917979	11.019326	52.000000	65.000000
11.120674	11.222021	78.000000	54.000000
11.120674	11.222021	81.000000	64.000000
11.120674	11.222021	64.000000	53.000000
11.120674	11.222021	59.000000	44.000000
11.323368	11.422704	76.000000	58.000000
11.323368	11.422704	79.000000	69.000000
11.323368	11.422704	64.000000	53.000000
11.323368	11.422704	59.000000	44.000000
11.522040	11.629181	78.000000	54.000000
11.522040	11.629181	81.000000	64.000000
11.522040	11.629181	64.000000	53.000000
11.522040	11.629181	59.000000	44.000000
11.700608	11.723058	79.000000	65.000000
11.723058	11.745508	81.000000	65.000000
11.745508	11.846856	83.000000	82.000000
11.745508	11.846856	52.000000	66.000000
11.948203	12.049550	78.000000	56.000000
11.948203	12.049550	81.000000	66.000000
11.948203	12.049550	64.000000	52.000000
11.948203	12.049550	59.000000	43.000000
12.150898	12.250233	76.000000	58.000000
12.150898	12.250233	79.000000	69.000000
12.150898	12.250233	64.000000	52.000000
12.150898	12.250233	59.000000	43.000000
12.349569	12.457488	78.000000	55.000000
12.349569	12.457488	81.000000	65.000000
12.349569	12.457488	64.000000	52.000000
12.349569	12.457488	59.000000	43.000000
12.526300	12.548495	79.000000	64.000000
12.548495	12.595689	81.000000	64.000000
12.570690	12.670683	83.000000	79.000000
12.570690	12.670683	52.000000	67.000000
12.770689	12.870696	78.000000	57.000000
12.770689	12.870696	81.000000	68.000000
12.770689	12.870696	64.000000	52.000000
12.770689	12.870696	59.000000	43.000000
12.970702	13.079398	76.000000	58.000000
12.970702	13.079398	79.000000	69.000000
12.970702	13.079398	47.000000	52.000000
13.188095	13.311048	75.000000	56.000000
13.188095	13.311048	78.000000	66.000000
13.188095	13.311048	59.000000	52.000000
13.434000	13.866694	76.000000	69.000000
13.434000	13.866694	52.000000	57.000000
13.895542	14.004238	72.000000	56.000000
13.895542	14.004238	76.000000	56.000000
14.112935	14.219311	74.000000	56.000000
14.112935	14.219311	77.000000	56.000000
14.325688	14.429851	76.000000	66.000000
14.325688	14.429851	79.000000	66.000000
14.325688	14.429851	48.000000	59.000000
14.534015	14.638179	76.000000	57.000000
14.534015	14.638179	79.000000	57.000000
14.534015	14.638179	60.000000	53.000000
14.742342	14.845084	81.000000	64.000000
14.742342	14.845084	52.000000	59.000000
14.845084	14.947813	79.000000	57.000000
14.947813	15.055571	77.000000	57.000000
14.947813	15.055571	64.000000	57.000000
15.055571	15.168358	76.000000	57.000000
15.168358	15.601763	74.000000	65.000000
15.168358	15.384182	71.000000	65.000000
15.168358	15.601763	55.000000	60.000000
15.384182	15.601763	67.000000	59.000000
15.601763	15.710459	72.000000	56.000000
15.601763	15.710459	76.000000	56.000000
15.819156	15.925533	74.000000	56.000000
15.819156	15.925533	77.000000	56.000000
16.031909	16.136073	76.000000	66.000000
16.031909	16.136073	79.000000	66.000000
16.031909	16.136073	48.000000	59.000000
16.240236	16.344400	76.000000	57.000000
16.240236	16.344400	79.000000	57.000000
16.240236	16.344400	60.000000	53.000000
16.448564	16.551306	81.000000	64.000000
16.448564	16.551306	52.000000	59.000000
16.551306	16.654034	79.000000	57.000000
16.654034	16.761792	77.000000	57.000000
16.654034	16.761792	64.000000	57.000000
16.761792	16.874579	76.000000	57.000000
16.874579	17.307984	74.000000	65.000000
16.874579	17.307984	71.000000	65.000000
16.874579	17.307984	55.000000	60.000000
17.307984	17.421616	69.000000	56.000000
17.307984	17.421616	72.000000	56.000000
17.535248	17.641624	71.000000	56.000000
17.535248	17.641624	74.000000	56.000000
17.748001	17.852165	72.000000	66.000000
17.748001	17.852165	76.000000	66.000000
17.748001	17.852165	45.000000	59.000000
17.956328	18.060492	72.000000	57.000000
17.956328	18.060492	76.000000	57.000000
17.956328	18.060492	57.000000	53.000000
18.164655	18.267398	77.000000	64.000000
18.164655	18.267398	48.000000	59.000000
18.267398	18.370126	76.000000	57.000000
18.370126	18.477884	74.000000	57.000000
18.370126	18.477884	60.000000	57.000000
18.477884	18.590671	72.000000	57.000000
18.590671	19.022319	71.000000	65.000000
18.590671	18.806495	68.000000	65.000000
18.590671	19.022319	52.000000	60.000000
18.806495	19.022319	64.000000	59.000000
19.022319	19.131016	69.000000	56.000000
19.022319	19.131016	72.000000	56.000000
19.239712	19.346089	71.000000	56.000000
19.239712	19.346089	74.000000	56.000000
19.452465	19.556629	72.000000	66.000000
19.452465	19.556629	76.000000	66.000000
19.452465	19.556629	45.000000	59.000000
19.660793	19.764956	72.000000	57.000000
19.660793	19.764956	76.000000	57.000000
19.660793	19.764956	57.000000	53.000000
19.869120	19.971862	77.000000	64.000000
19.869120	19.971862	48.000000	59.000000
19.971862	20.074591	76.000000	57.000000
20.074591	20.182349	74.000000	57.000000
20.074591	20.182349	60.000000	57.000000
20.182349	20.295135	72.000000	57.000000
20.295135	20.726784	71.000000	65.000000
20.295135	20.726784	68.000000	65.000000
20.295135	20.726784	52.000000	60.000000
20.726784	20.826119	71.000000	56.000000
20.826119	20.925455	69.000000	56.000000
20.925455	21.024791	68.000000	56.000000
21.024791	21.137578	69.000000	56.000000
21.137578	21.236913	72.000000	59.000000
21.137578	21.236913	57.000000	53.000000
21.336249	21.435585	64.000000	47.000000
21.336249	21.435585	60.000000	47.000000
21.548372	21.648378	74.000000	62.000000
21.548372	21.648378	60.000000	47.000000
21.548372	21.648378	64.000000	47.000000
21.648378	21.748384	72.000000	57.000000
21.748384	21.848390	71.000000	57.000000
21.748384	21.848390	60.000000	47.000000
21.748384	21.848390	64.000000	47.000000
21.848390	21.962022	72.000000	57.000000
21.962022	22.061358	76.000000	66.000000
21.962022	22.061358	57.000000	54.000000
22.160694	22.260029	64.000000	48.000000
22.160694	22.260029	60.000000	48.000000
22.370322	22.469657	77.000000	63.000000
22.370322	22.469657	64.000000	48.000000
22.370322	22.469657	60.000000	48.000000
22.469657	22.568993	76.000000	58.000000
22.568993	22.668329	75.000000	58.000000
22.568993	22.668329	64.000000	48.000000
22.568993	22.668329	60.000000	48.000000
22.668329	22.772492	76.000000	58.000000
22.772492	22.872499	83.000000	70.000000
22.772492	22.872499	57.000000	56.000000
22.872499	22.972505	81.000000	63.000000
22.972505	23.072511	80.000000	63.000000
22.972505	23.072511	64.000000	49.000000
22.972505	23.072511	60.000000	49.000000
23.072511	23.172517	81.000000	63.000000
23.172517	23.275970	83.000000	71.000000
23.172517	23.275970	57.000000	57.000000
23.275970	23.379423	81.000000	64.000000
23.379423	23.482876	80.000000	64.000000
23.379423	23.482876	64.000000	52.000000
23.379423	23.482876	60.000000	43.000000
23.482876	23.611086	81.000000	64.000000
23.611086	24.037825	84.000000	76.000000
23.611086	23.713130	53.000000	57.000000
23.815175	23.921551	63.000000	51.000000
23.815175	23.921551	57.000000	51.000000
24.037825	24.140567	81.000000	62.000000
24.037825	24.140567	63.000000	43.000000
24.037825	24.140567	57.000000	43.000000
24.243309	24.350450	83.000000	62.000000
24.243309	24.350450	63.000000	39.000000
24.243309	24.350450	57.000000	39.000000
24.457591	24.558939	84.000000	70.000000
24.457591	24.558939	52.000000	46.000000
24.660286	24.761633	83.000000	62.000000
24.660286	24.761633	64.000000	42.000000
24.660286	24.761633	57.000000	42.000000
24.862981	24.962316	81.000000	62.000000
24.862981	24.962316	50.000000	42.000000
25.061652	25.168793	80.000000	62.000000
25.061652	25.168793	59.000000	42.000000
25.061652	25.168793	53.000000	42.000000
25.275934	25.377281	81.000000	71.000000
25.275934	25.377281	48.000000	47.000000
25.478628	25.579976	76.000000	64.000000
25.478628	25.579976	57.000000	39.000000
25.478628	25.579976	52.000000	39.000000
25.681323	25.780659	50.000000	41.000000
25.683804	25.783140	77.000000	64.000000
25.879994	25.987913	74.000000	64.000000
25.879994	25.987913	59.000000	41.000000
25.879994	25.987913	53.000000	41.000000
26.095832	26.506800	72.000000	74.000000
26.095832	26.198574	52.000000	48.000000
26.095832	26.198574	57.000000	48.000000
26.301316	26.404058	57.000000	41.000000
26.301316	26.404058	52.000000	41.000000
26.501664	26.610052	52.000000	41.000000
26.506800	26.561142	72.000000	64.000000
26.506800	26.615484	56.000000	41.000000
26.557521	26.611863	71.000000	57.000000
26.611863	26.666204	72.000000	57.000000
26.666204	26.720546	71.000000	57.000000
26.724167	26.838402	52.000000	41.000000
26.724167	26.838402	56.000000	41.000000
26.730752	26.787145	72.000000	57.000000
26.776805	26.834298	71.000000	57.000000
26.824240	26.888734	69.000000	64.000000
26.888734	26.965861	71.000000	57.000000
26.981257	27.424170	69.000000	65.000000
26.981257	27.453701	45.000000	46.000000
26.981257	27.424170	57.000000	46.000000
27.453701	27.562398	72.000000	56.000000
27.453701	27.562398	76.000000	56.000000
27.671094	27.777471	74.000000	56.000000
27.671094	27.777471	77.000000	56.000000
27.883847	27.988011	76.000000	66.000000
27.883847	27.988011	79.000000	66.000000
27.883847	27.988011	48.000000	59.000000
28.092175	28.196338	76.000000	57.000000
28.092175	28.196338	79.000000	57.000000
28.092175	28.196338	60.000000	53.000000
28.300502	28.403244	81.000000	64.000000
28.300502	28.403244	52.000000	59.000000
28.403244	28.505973	79.000000	57.000000
28.505973	28.613731	77.000000	57.000000
28.505973	28.613731	64.000000	57.000000
28.613731	28.726517	76.000000	57.000000
28.726517	29.159923	74.000000	65.000000
28.726517	28.942342	71.000000	65.000000
28.726517	29.159923	55.000000	60.000000
28.942342	29.159923	67.000000	59.000000
29.159923	29.268619	72.000000	56.000000
29.159923	29.268619	76.000000	56.000000
29.377316	29.483692	74.000000	56.000000
29.377316	29.483692	77.000000	56.000000
29.590069	29.694232	76.000000	66.000000
29.590069	29.694232	79.000000	66.000000
29.590069	29.694232	48.000000	59.000000
29.798396	29.902560	76.000000	57.000000
29.798396	29.902560	79.000000	57.000000
29.798396	29.902560	60.000000	53.000000
30.006723	30.109465	81.000000	64.000000
30.006723	30.109465	52.000000	59.000000
30.109465	30.212194	79.000000	57.000000
30.212194	30.319952	77.000000	57.000000
30.212194	30.319952	64.000000	57.000000
30.319952	30.432739	76.000000	57.000000
30.432739	30.866144	74.000000	65.000000
30.432739	30.866144	71.000000	65.000000
30.432739	30.866144	55.000000	60.000000
30.866144	30.979776	69.000000	56.000000
30.866144	30.979776	72.000000	56.000000
31.093408	31.199784	71.000000	56.000000
31.093408	31.199784	74.000000	56.000000
31.306161	31.410324	72.000000	66.000000
31.306161	31.410324	76.000000	66.000000
31.306161	31.410324	45.000000	59.000000
31.514488	31.618651	72.000000	57.000000
31.514488	31.618651	76.000000	57.000000
31.514488	31.618651	57.000000	53.000000
31.722815	31.825557	77.000000	64.000000
31.722815	31.825557	48.000000	59.000000
31.825557	31.928286	76.000000	57.000000
31.928286	32.036044	74.000000	57.000000
31.928286	32.036044	60.000000	57.000000
32.036044	32.148831	72.000000	57.000000
32.148831	32.580479	71.000000	65.000000
32.148831	32.364655	68.000000	65.000000
32.148831	32.580479	52.000000	60.000000
32.364655	32.580479	64.000000	59.000000
32.580479	32.689175	69.000000	56.000000
32.580479	32.689175	72.000000	56.000000
32.797872	32.904248	71.000000	56.000000
32.797872	32.904248	74.000000	56.000000
33.010625	33.114789	72.000000	66.000000
33.010625	33.114789	76.000000	66.000000
33.010625	33.114789	45.000000	59.000000
33.218952	33.323116	72.000000	57.000000
33.218952	33.323116	76.000000	57.000000
33.218952	33.323116	57.000000	53.000000
33.427280	33.530022	77.000000	64.000000
33.427280	33.530022	48.000000	59.000000
33.530022	33.632750	76.000000	57.000000
33.632750	33.740508	74.000000	57.000000
33.632750	33.740508	60.000000	57.000000
33.740508	33.853295	72.000000	57.000000
33.853295	34.284943	71.000000	65.000000
33.853295	34.284943	68.000000	65.000000
33.853295	34.284943	52.000000	60.000000
34.284943	34.384279	71.000000	56.000000
34.384279	34.483615	69.000000	56.000000
34.483615	34.582950	68.000000	56.000000
34.582950	34.695737	69.000000	56.000000
34.695737	34.795073	72.000000	59.000000
34.695737	34.795073	57.000000	53.000000
34.894409	34.993744	64.000000	47.000000
34.894409	34.993744	60.000000	47.000000
35.106531	35.206538	74.000000	62.000000
35.106531	35.206538	60.000000	47.000000
35.106531	35.206538	64.000000	47.000000
35.206538	35.306544	72.000000	57.000000
35.306544	35.406550	71.000000	57.000000
35.306544	35.406550	60.000000	47.000000
35.306544	35.406550	64.000000	47.000000
35.406550	35.520182	72.000000	57.000000
35.520182	35.619518	76.000000	66.000000
35.520182	35.619518	57.000000	54.000000
35.718853	35.818189	64.000000	48.000000
35.718853	35.818189	60.000000	48.000000
35.928481	36.027817	77.000000	63.000000
35.928481	36.027817	64.000000	48.000000
35.928481	36.027817	60.000000	48.000000
36.027817	36.127153	76.000000	58.000000
36.127153	36.226488	75.000000	58.000000
36.127153	36.226488	64.000000	48.000000
36.127153	36.226488	60.000000	48.000000
36.226488	36.330652	76.000000	58.000000
36.330652	36.430658	83.000000	70.000000
36.330652	36.430658	57.000000	56.000000
36.430658	36.530665	81.000000	63.000000
36.530665	36.630671	80.000000	63.000000
36.530665	36.630671	64.000000	49.000000
36.530665	36.630671	60.000000	49.000000
36.630671	36.730677	81.000000	63.000000
36.730677	36.834130	83.000000	71.000000
36.730677	36.834130	57.000000	57.000000
36.834130	36.937583	81.000000	64.000000
36.937583	37.041036	80.000000	64.000000
36.937583	37.041036	64.000000	52.000000
36.937583	37.041036	60.000000	43.000000
37.041036	37.169245	81.000000	64.000000
37.169245	37.595985	84.000000	76.000000
37.169245	37.271290	53.000000	57.000000
37.373335	37.479711	63.000000	51.000000
37.373335	37.479711	57.000000	51.000000
37.595985	37.698727	81.000000	62.000000
37.595985	37.698727	63.000000	43.000000
37.595985	37.698727	57.000000	43.000000
37.801469	37.908610	83.000000	62.000000
37.801469	37.908610	63.000000	39.000000
37.801469	37.908610	57.000000	39.000000
38.015751	38.117098	84.000000	70.000000
38.015751	38.117098	52.000000	46.000000
38.218446	38.319793	83.000000	62.000000
38.218446	38.319793	64.000000	42.000000
38.218446	38.319793	57.000000	42.000000
38.421140	38.520476	81.000000	62.000000
38.421140	38.520476	50.000000	42.000000
38.619812	38.726953	80.000000	62.000000
38.619812	38.726953	59.000000	42.000000
38.619812	38.726953	53.000000	42.000000
38.834093	38.935441	81.000000	71.000000
38.834093	38.935441	48.000000	47.000000
39.036788	39.138135	76.000000	64.000000
39.036788	39.138135	57.000000	39.000000
39.036788	39.138135	52.000000	39.000000
39.239483	39.338818	50.000000	41.000000
39.241964	39.341300	77.000000	64.000000
39.438154	39.546073	74.000000	64.000000
39.438154	39.546073	59.000000	41.000000
39.438154	39.546073	53.000000	41.000000
39.653992	40.064960	72.000000	74.000000
39.653992	39.756734	52.000000	48.000000
39.653992	39.756734	57.000000	48.000000
39.859476	39.962218	57.000000	41.000000
39.859476	39.962218	52.000000	41.000000
40.059824	40.168212	52.000000	41.000000
40.064960	40.119302	72.000000	64.000000
40.064960	40.173643	56.000000	41.000000
40.115681	40.170022	71.000000	57.000000
40.170022	40.224364	72.000000	57.000000
40.224364	40.278705	71.000000	57.000000
40.282326	40.396562	52.000000	41.000000
40.282326	40.396562	56.000000	41.000000
40.288911	40.345305	72.000000	57.000000
40.334965	40.392458	71.000000	57.000000
40.382400	40.446893	69.000000	64.000000
40.446893	40.524020	71.000000	57.000000
40.539416	40.982330	69.000000	65.000000
40.539416	41.011861	45.000000	46.000000
40.539416	40.982330	57.000000	46.000000
41.011861	41.117500	69.000000	73.000000
41.011861	41.117500	81.000000	84.000000
41.223139	41.331057	71.000000	73.000000
41.223139	41.331057	83.000000	84.000000
41.331057	41.367026	45.000000	64.000000
41.367026	41.402994	49.000000	64.000000
41.402994	41.438963	52.000000	64.000000
41.438963	41.854316	73.000000	78.000000
41.438963	41.854316	85.000000	90.000000
41.438963	41.541007	57.000000	73.000000
41.643052	41.748678	57.000000	69.000000
41.854316	41.957769	69.000000	73.000000
41.854316	41.957769	81.000000	84.000000
41.854316	41.957769	57.000000	69.000000
42.061222	42.166861	71.000000	73.000000
42.061222	42.166861	83.000000	84.000000
42.061222	42.166861	57.000000	69.000000
42.166861	42.202078	45.000000	60.000000
42.202078	42.237296	49.000000	60.000000
42.237296	42.272513	52.000000	60.000000
42.272513	42.374545	73.000000	79.000000
42.272513	42.374545	85.000000	91.000000
42.272513	42.374545	57.000000	72.000000
42.476589	42.579318	71.000000	72.000000
42.476589	42.579318	83.000000	82.000000
42.476589	42.579318	57.000000	64.000000
42.682060	42.784802	69.000000	77.000000
42.682060	42.784802	81.000000	89.000000
42.682060	42.784802	57.000000	65.000000
42.887544	42.999486	68.000000	73.000000
42.887544	42.999486	80.000000	84.000000
42.887544	42.999486	57.000000	67.000000
42.999486	43.036796	38.000000	63.000000
43.036796	43.074105	42.000000	63.000000
43.074105	43.111415	45.000000	63.000000
43.111415	43.214157	66.000000	80.000000
43.111415	43.214157	78.000000	92.000000
43.111415	43.214157	50.000000	73.000000
43.316899	43.421800	68.000000	69.000000
43.316899	43.421800	80.000000	78.000000
43.316899	43.421800	50.000000	69.000000
43.421800	43.456763	39.000000	63.000000
43.456763	43.491726	42.000000	63.000000
43.491726	43.526688	45.000000	63.000000
43.526688	43.629430	69.000000	75.000000
43.526688	43.629430	81.000000	86.000000
43.526688	43.629430	51.000000	73.000000
43.732172	43.844114	71.000000	70.000000
43.732172	43.844114	83.000000	80.000000
43.732172	43.844114	51.000000	71.000000
43.844114	43.881424	40.000000	63.000000
43.881424	43.918734	44.000000	63.000000
43.918734	43.956043	47.000000	63.000000
43.956043	44.168809	68.000000	78.000000
43.956043	44.168809	80.000000	90.000000
43.956043	44.168809	52.000000	73.000000
44.168809	44.282455	64.000000	73.000000
44.168809	44.282455	76.000000	84.000000
44.168809	44.282455	52.000000	73.000000
44.396087	44.500250	69.000000	73.000000
44.396087	44.500250	81.000000	84.000000
44.604414	44.709315	71.000000	73.000000
44.604414	44.709315	83.000000	84.000000
44.709315	44.744278	45.000000	64.000000
44.744278	44.779240	49.000000	64.000000
44.779240	44.814203	52.000000	64.000000
44.814203	45.228095	73.000000	78.000000
44.814203	45.228095	85.000000	90.000000
44.814203	44.916248	57.000000	73.000000
45.018292	45.123194	57.000000	69.000000
45.228095	45.330140	69.000000	73.000000
45.228095	45.330140	81.000000	84.000000
45.228095	45.330140	57.000000	69.000000
45.432184	45.537823	71.000000	73.000000
45.432184	45.537823	83.000000	84.000000
45.432184	45.537823	57.000000	69.000000
45.537823	45.573041	45.000000	60.000000
45.573041	45.608258	49.000000	60.000000
45.608258	45.643476	52.000000	60.000000
45.643476	45.746218	73.000000	79.000000
45.643476	45.746218	85.000000	91.000000
45.643476	45.746218	57.000000	72.000000
45.848960	45.952413	71.000000	72.000000
45.848960	45.952413	83.000000	82.000000
45.848960	45.952413	57.000000	64.000000
46.055865	46.160029	69.000000	77.000000
46.055865	46.160029	81.000000	89.000000
46.055865	46.160029	57.000000	65.000000
46.264193	46.372889	68.000000	73.000000
46.264193	46.372889	80.000000	84.000000
46.264193	46.372889	57.000000	67.000000
46.372889	46.409126	38.000000	63.000000
46.409126	46.445363	42.000000	63.000000
46.445363	46.481599	45.000000	63.000000
46.481599	46.585052	66.000000	80.000000
46.481599	46.585052	78.000000	92.000000
46.481599	46.585052	50.000000	73.000000
46.688505	46.797202	71.000000	69.000000
46.688505	46.797202	83.000000	78.000000
46.688505	46.797202	50.000000	69.000000
46.797202	46.833438	40.000000	63.000000
46.833438	46.869675	44.000000	63.000000
46.869675	46.905912	47.000000	63.000000
46.905912	47.018699	68.000000	75.000000
46.905912	47.018699	80.000000	86.000000
46.905912	47.018699	52.000000	73.000000
47.131486	47.247759	64.000000	70.000000
47.131486	47.247759	76.000000	80.000000
47.131486	47.247759	52.000000	71.000000
47.364033	47.786964	69.000000	78.000000
47.364033	47.786964	81.000000	90.000000
47.364033	47.786964	45.000000	73.000000
47.815154	47.920793	69.000000	73.000000
47.815154	47.920793	81.000000	84.000000
48.026432	48.134351	71.000000	73.000000
48.026432	48.134351	83.000000	84.000000
48.134351	48.170319	45.000000	64.000000
48.170319	48.206288	49.000000	64.000000
48.206288	48.242256	52.000000	64.000000
48.242256	48.657610	73.000000	78.000000
48.242256	48.657610	85.000000	90.000000
48.242256	48.344301	57.000000	73.000000
48.446346	48.551971	57.000000	69.000000
48.657610	48.761063	69.000000	73.000000
48.657610	48.761063	81.000000	84.000000
48.657610	48.761063	57.000000	69.000000
48.864516	48.970892	71.000000	73.000000
48.864516	48.970892	83.000000	84.000000
48.864516	48.970892	57.000000	69.000000
48.970892	49.006351	45.000000	60.000000
49.006351	49.041810	49.000000	60.000000
49.041810	49.077269	52.000000	60.000000
49.077269	49.179300	73.000000	79.000000
49.077269	49.179300	85.000000	91.000000
49.077269	49.179300	57.000000	72.000000
49.281345	49.386246	71.000000	72.000000
49.281345	49.386246	83.000000	82.000000
49.281345	49.386246	57.000000	64.000000
49.491147	49.593889	69.000000	77.000000
49.491147	49.593889	81.000000	89.000000
49.491147	49.593889	57.000000	65.000000
49.696631	49.803772	68.000000	73.000000
49.696631	49.803772	80.000000	84.000000
49.696631	49.803772	57.000000	67.000000
49.803772	49.839486	38.000000	63.000000
49.839486	49.875199	42.000000	63.000000
49.875199	49.910913	45.000000	63.000000
49.910913	50.013655	66.000000	80.000000
49.910913	50.013655	78.000000	92.000000
49.910913	50.013655	50.000000	73.000000
50.116397	50.224316	68.000000	69.000000
50.116397	50.224316	80.000000	78.000000
50.116397	50.224316	50.000000	69.000000
50.224316	50.260284	39.000000	63.000000
50.260284	50.296253	42.000000	63.000000
50.296253	50.332221	45.000000	63.000000
50.332221	50.436385	69.000000	75.000000
50.332221	50.436385	81.000000	86.000000
50.332221	50.436385	51.000000	73.000000
50.540549	50.650037	71.000000	70.000000
50.540549	50.650037	83.000000	80.000000
50.540549	50.650037	51.000000	71.000000
50.650037	50.686528	40.000000	63.000000
50.686528	50.723019	44.000000	63.000000
50.723019	50.759511	47.000000	63.000000
50.759511	50.972277	68.000000	78.000000
50.759511	50.972277	80.000000	90.000000
50.759511	50.972277	52.000000	73.000000
50.972277	51.082570	64.000000	73.000000
50.972277	51.082570	76.000000	84.000000
50.972277	51.082570	52.000000	73.000000
51.192862	51.299239	69.000000	73.000000
51.192862	51.299239	81.000000	84.000000
51.405615	51.510517	71.000000	73.000000
51.405615	51.510517	83.000000	84.000000
51.510517	51.545479	45.000000	64.000000
51.545479	51.580442	49.000000	64.000000
51.580442	51.615404	52.000000	64.000000
51.615404	52.029296	73.000000	78.000000
51.615404	52.029296	85.000000	90.000000
51.615404	51.717449	57.000000	73.000000
51.819494	51.924395	57.000000	69.000000
52.029296	52.131341	69.000000	73.000000
52.029296	52.131341	81.000000	84.000000
52.029296	52.131341	57.000000	69.000000
52.233386	52.341305	71.000000	73.000000
52.233386	52.341305	83.000000	84.000000
52.233386	52.341305	57.000000	69.000000
52.341305	52.377273	45.000000	60.000000
52.377273	52.413241	49.000000	60.000000
52.413241	52.449210	52.000000	60.000000
52.449210	52.551952	73.000000	79.000000
52.449210	52.551952	85.000000	91.000000
52.449210	52.551952	57.000000	72.000000
52.654694	52.758147	71.000000	72.000000
52.654694	52.758147	83.000000	82.000000
52.654694	52.758147	57.000000	64.000000
52.861600	52.965763	69.000000	77.000000
52.861600	52.965763	81.000000	89.000000
52.861600	52.965763	57.000000	65.000000
53.069927	53.178624	68.000000	73.000000
53.069927	53.178624	80.000000	84.000000
53.069927	53.178624	57.000000	67.000000
53.178624	53.214860	38.000000	63.000000
53.214860	53.251097	42.000000	63.000000
53.251097	53.287334	45.000000	63.000000
53.287334	53.390787	66.000000	80.000000
53.287334	53.390787	78.000000	92.000000
53.287334	53.390787	50.000000	73.000000
53.494239	53.607885	71.000000	69.000000
53.494239	53.607885	83.000000	78.000000
53.494239	53.607885	50.000000	69.000000
53.607885	53.645757	40.000000	63.000000
53.645757	53.683630	44.000000	63.000000
53.683630	53.721503	47.000000	63.000000
53.721503	53.834290	68.000000	75.000000
53.721503	53.834290	80.000000	86.000000
53.721503	53.834290	52.000000	73.000000
53.947077	54.063351	64.000000	70.000000
53.947077	54.063351	76.000000	80.000000
53.947077	54.063351	52.000000	71.000000
54.179625	54.602797	69.000000	78.000000
54.179625	54.602797	81.000000	90.000000
54.179625	54.602797	45.000000	73.000000
54.631604	54.749139	85.000000	60.000000
54.739040	54.850231	86.000000	52.000000
54.839744	54.955494	85.000000	52.000000
54.944631	55.064030	83.000000	52.000000
55.053315	55.171171	81.000000	58.000000
55.053315	55.160456	54.000000	50.000000
55.160456	55.277936	83.000000	50.000000
55.267596	55.381376	81.000000	50.000000
55.267596	55.371036	61.000000	37.000000
55.267596	55.371036	57.000000	31.000000
55.371036	55.485043	80.000000	50.000000
55.474475	55.590682	78.000000	56.000000
55.474475	55.580114	61.000000	37.000000
55.474475	55.580114	57.000000	31.000000
55.580114	55.696388	81.000000	50.000000
55.685753	55.802765	80.000000	46.000000
55.685753	55.792130	61.000000	37.000000
55.685753	55.792130	57.000000	31.000000
55.792130	55.908926	78.000000	46.000000
55.898506	56.013104	77.000000	58.000000
55.898506	56.002683	56.000000	50.000000
56.002683	56.117348	78.000000	47.000000
56.106860	56.222236	80.000000	49.000000
56.106860	56.211748	61.000000	36.000000
56.106860	56.211748	59.000000	30.000000
56.211748	56.327123	77.000000	46.000000
56.316636	56.432011	73.000000	56.000000
56.316636	56.421524	61.000000	36.000000
56.316636	56.421524	59.000000	30.000000
56.421524	56.536980	75.000000	47.000000
56.526412	56.642618	77.000000	50.000000
56.526412	56.632050	61.000000	36.000000
56.526412	56.632050	59.000000	30.000000
56.632050	56.748257	73.000000	47.000000
56.737689	56.853896	78.000000	56.000000
56.737689	56.843328	54.000000	50.000000
56.843328	56.959455	77.000000	47.000000
56.948967	57.064342	78.000000	51.000000
56.948967	57.053855	61.000000	36.000000
56.948967	57.053855	57.000000	30.000000
57.053855	57.169230	80.000000	48.000000
57.158743	57.274118	81.000000	58.000000
57.158743	57.263631	61.000000	37.000000
57.158743	57.263631	57.000000	31.000000
57.263631	57.379086	80.000000	54.000000
57.368519	57.484725	81.000000	56.000000
57.368519	57.474157	61.000000	38.000000
57.368519	57.474157	57.000000	32.000000
57.474157	57.590217	83.000000	59.000000
57.579796	57.694394	85.000000	68.000000
57.579796	57.683973	53.000000	55.000000
57.683973	57.798356	84.000000	62.000000
57.788150	57.900401	85.000000	66.000000
57.788150	57.890195	61.000000	38.000000
57.788150	57.890195	56.000000	31.000000
57.890195	57.992240	84.000000	59.000000
57.992240	58.106824	85.000000	61.000000
57.992240	58.096403	61.000000	38.000000
57.992240	58.096403	56.000000	31.000000
58.096403	58.211215	86.000000	55.000000
58.200581	58.318316	85.000000	55.000000
58.200581	58.306957	61.000000	38.000000
58.200581	58.306957	56.000000	31.000000
58.306957	58.431076	83.000000	55.000000
58.420589	58.535964	81.000000	58.000000
58.420589	58.525477	54.000000	50.000000
58.525477	58.640704	83.000000	47.000000
58.630365	58.744144	81.000000	53.000000
58.630365	58.733804	61.000000	36.000000
58.630365	58.733804	57.000000	30.000000
58.733804	58.847664	80.000000	47.000000
58.837243	58.951841	78.000000	54.000000
58.837243	58.941421	61.000000	36.000000
58.837243	58.941421	57.000000	30.000000
58.941421	59.056233	81.000000	47.000000
59.045598	59.162609	80.000000	50.000000
59.045598	59.151974	61.000000	36.000000
59.045598	59.151974	57.000000	30.000000
59.151974	59.268986	78.000000	46.000000
59.258351	59.375362	76.000000	56.000000
59.258351	59.364727	56.000000	50.000000
59.364727	59.481524	78.000000	47.000000
59.471104	59.585701	80.000000	50.000000
59.471104	59.575281	64.000000	36.000000
59.471104	59.575281	61.000000	30.000000
59.575281	59.689945	76.000000	47.000000
59.679458	59.794833	73.000000	54.000000
59.679458	59.784346	64.000000	36.000000
59.679458	59.784346	61.000000	30.000000
59.784346	59.899949	75.000000	47.000000
59.889233	60.007090	76.000000	53.000000
59.889233	59.996374	64.000000	36.000000
59.889233	59.996374	61.000000	30.000000
59.996374	60.114003	73.000000	47.000000
60.103515	60.218890	75.000000	53.000000
60.103515	60.208403	56.000000	50.000000
60.208403	60.323778	76.000000	47.000000
60.313291	60.428666	78.000000	51.000000
60.313291	60.418179	66.000000	37.000000
60.313291	60.418179	63.000000	31.000000
60.418179	60.533554	75.000000	47.000000
60.523067	60.639689	72.000000	50.000000
60.523067	60.629054	63.000000	31.000000
60.523067	60.629054	66.000000	37.000000
60.629054	60.746736	73.000000	47.000000
60.735940	60.856036	75.000000	50.000000
60.735940	60.844315	63.000000	31.000000
60.735940	60.844315	66.000000	37.000000
60.844315	60.972364	72.000000	46.000000
60.961501	61.369103	73.000000	52.000000
60.961501	61.369103	64.000000	50.000000
60.961501	61.369103	61.000000	42.000000
61.397829	61.519240	85.000000	60.000000
61.508927	61.620507	86.000000	52.000000
61.610019	61.725770	85.000000	52.000000
61.714907	61.834386	83.000000	52.000000
61.823590	61.942305	81.000000	58.000000
61.823590	61.931509	54.000000	50.000000
61.931509	62.049996	83.000000	50.000000
62.039428	62.155634	81.000000	50.000000
62.039428	62.145066	61.000000	37.000000
62.039428	62.145066	57.000000	31.000000
62.145066	62.261273	80.000000	50.000000
62.250705	62.366912	78.000000	56.000000
62.250705	62.356344	61.000000	37.000000
62.250705	62.356344	57.000000	31.000000
62.356344	62.472618	81.000000	50.000000
62.461983	62.578995	80.000000	46.000000
62.461983	62.568360	61.000000	37.000000
62.461983	62.568360	57.000000	31.000000
62.568360	62.685532	78.000000	46.000000
62.674736	62.793451	77.000000	58.000000
62.674736	62.782655	56.000000	50.000000
62.782655	62.901061	78.000000	47.000000
62.890574	63.005949	80.000000	49.000000
62.890574	62.995461	61.000000	36.000000
62.890574	62.995461	59.000000	30.000000
62.995461	63.110837	77.000000	46.000000
63.100349	63.215725	73.000000	56.000000
63.100349	63.205237	61.000000	36.000000
63.100349	63.205237	59.000000	30.000000
63.205237	63.320693	75.000000	47.000000
63.310125	63.426332	77.000000	50.000000
63.310125	63.415764	61.000000	36.000000
63.310125	63.415764	59.000000	30.000000
63.415764	63.531971	73.000000	47.000000
63.521403	63.637609	78.000000	56.000000
63.521403	63.627042	54.000000	50.000000
63.627042	63.743168	77.000000	47.000000
63.732680	63.848056	78.000000	51.000000
63.732680	63.837568	61.000000	36.000000
63.732680	63.837568	57.000000	30.000000
63.837568	63.952944	80.000000	48.000000
63.942456	64.057831	81.000000	58.000000
63.942456	64.047344	61.000000	37.000000
63.942456	64.047344	57.000000	31.000000
64.047344	64.162800	80.000000	54.000000
64.152232	64.268439	81.000000	56.000000
64.152232	64.257871	61.000000	38.000000
64.152232	64.257871	57.000000	32.000000
64.257871	64.374145	83.000000	59.000000
64.363510	64.480521	85.000000	68.000000
64.363510	64.469886	53.000000	55.000000
64.469886	64.586602	84.000000	62.000000
64.576263	64.690042	85.000000	66.000000
64.576263	64.679702	61.000000	38.000000
64.576263	64.679702	56.000000	31.000000
64.679702	64.783141	84.000000	59.000000
64.783141	64.896934	85.000000	64.000000
64.783141	64.886594	61.000000	38.000000
64.783141	64.886594	56.000000	31.000000
64.886594	65.000669	86.000000	57.000000
64.990034	65.107045	85.000000	57.000000
64.990034	65.096410	61.000000	38.000000
64.990034	65.096410	56.000000	31.000000
65.096410	65.213274	83.000000	57.000000
65.202787	65.318162	81.000000	60.000000
65.202787	65.307675	54.000000	50.000000
65.307675	65.422902	83.000000	51.000000
65.412562	65.526342	81.000000	55.000000
65.412562	65.516002	61.000000	36.000000
65.412562	65.516002	57.000000	30.000000
65.516002	65.629781	80.000000	47.000000
65.619441	65.733221	78.000000	54.000000
65.619441	65.722881	61.000000	36.000000
65.619441	65.722881	57.000000	30.000000
65.722881	65.836955	81.000000	47.000000
65.826320	65.943332	80.000000	50.000000
65.826320	65.932697	61.000000	36.000000
65.826320	65.932697	57.000000	30.000000
65.932697	66.049641	78.000000	46.000000
66.039073	66.155280	76.000000	53.000000
66.039073	66.144712	56.000000	50.000000
66.144712	66.260624	78.000000	47.000000
66.250351	66.363366	80.000000	50.000000
66.250351	66.353093	64.000000	36.000000
66.250351	66.353093	61.000000	30.000000
66.353093	66.466256	76.000000	47.000000
66.455835	66.570433	73.000000	54.000000
66.455835	66.560012	64.000000	36.000000
66.455835	66.560012	61.000000	30.000000
66.560012	66.674905	75.000000	47.000000
66.664189	66.782046	76.000000	53.000000
66.664189	66.771330	64.000000	36.000000
66.664189	66.771330	61.000000	30.000000
66.771330	66.889187	73.000000	47.000000
66.878471	66.996327	75.000000	53.000000
66.878471	66.985612	56.000000	50.000000
66.985612	67.103240	76.000000	47.000000
67.092753	67.208128	78.000000	51.000000
67.092753	67.197641	66.000000	37.000000
67.092753	67.197641	63.000000	31.000000
67.197641	67.313016	75.000000	47.000000
67.302529	67.419151	72.000000	50.000000
67.302529	67.408516	63.000000	31.000000
67.302529	67.408516	66.000000	37.000000
67.408516	67.526198	73.000000	47.000000
67.515402	67.635498	75.000000	50.000000
67.515402	67.623777	63.000000	31.000000
67.515402	67.623777	66.000000	37.000000
67.623777	67.751826	72.000000	46.000000
67.740963	68.148565	73.000000	52.000000
67.740963	68.148565	64.000000	50.000000
67.740963	68.148565	61.000000	42.000000
68.175736	68.290320	76.000000	69.000000
68.279899	68.394564	74.000000	59.000000
68.384076	68.499827	73.000000	59.000000
68.488964	68.608363	71.000000	59.000000
68.597647	68.715504	69.000000	66.000000
68.597647	68.704788	57.000000	57.000000
68.704788	68.822497	71.000000	57.000000
68.811929	68.928136	73.000000	57.000000
68.811929	68.917568	64.000000	43.000000
68.811929	68.917568	61.000000	36.000000
68.917568	69.033775	74.000000	57.000000
69.023207	69.139414	76.000000	64.000000
69.023207	69.128846	64.000000	43.000000
69.023207	69.128846	61.000000	36.000000
69.128846	69.245120	78.000000	57.000000
69.234485	69.351496	80.000000	56.000000
69.234485	69.340861	64.000000	43.000000
69.234485	69.340861	61.000000	36.000000
69.340861	69.442812	81.000000	56.000000
69.447251	69.560266	81.000000	66.000000
69.447251	69.549993	59.000000	57.000000
69.549993	69.663223	80.000000	60.000000
69.652735	69.768111	78.000000	60.000000
69.652735	69.757623	64.000000	42.000000
69.652735	69.757623	62.000000	35.000000
69.757623	69.858139	76.000000	57.000000
69.862511	69.977900	76.000000	64.000000
69.862511	69.967412	56.000000	57.000000
69.967412	70.082868	74.000000	59.000000
70.072300	70.188507	73.000000	59.000000
70.072300	70.177939	64.000000	42.000000
70.072300	70.177939	62.000000	35.000000
70.177939	70.293784	71.000000	59.000000
70.283578	70.395828	69.000000	64.000000
70.283578	70.385623	57.000000	57.000000
70.385623	70.498155	71.000000	54.000000
70.487667	70.603043	73.000000	57.000000
70.487667	70.592555	64.000000	41.000000
70.487667	70.592555	61.000000	35.000000
70.592555	70.707930	74.000000	54.000000
70.697443	70.812818	76.000000	64.000000
70.697443	70.802331	64.000000	41.000000
70.697443	70.802331	61.000000	35.000000
70.802331	70.918672	78.000000	58.000000
70.907219	71.034020	80.000000	60.000000
70.907219	71.021722	64.000000	41.000000
70.907219	71.021722	61.000000	35.000000
71.021722	71.144675	81.000000	63.000000
71.144675	71.371952	82.000000	75.000000
71.144675	71.371952	52.000000	57.000000
71.371952	71.486536	83.000000	69.000000
71.371952	71.476116	62.000000	39.000000
71.371952	71.476116	56.000000	33.000000
71.580802	71.699021	76.000000	69.000000
71.580802	71.688547	56.000000	33.000000
71.580802	71.688547	62.000000	39.000000
71.688547	71.801897	74.000000	59.000000
71.791409	71.907160	73.000000	59.000000
71.791409	71.896297	56.000000	33.000000
71.791409	71.896297	62.000000	39.000000
71.896297	72.015696	71.000000	59.000000
72.004981	72.122837	69.000000	66.000000
72.004981	72.112121	57.000000	57.000000
72.112121	72.229830	71.000000	57.000000
72.219262	72.335469	73.000000	57.000000
72.219262	72.324901	64.000000	43.000000
72.219262	72.324901	61.000000	36.000000
72.324901	72.441108	74.000000	57.000000
72.430540	72.546747	76.000000	64.000000
72.430540	72.536179	64.000000	43.000000
72.430540	72.536179	61.000000	36.000000
72.536179	72.652453	78.000000	57.000000
72.641818	72.758829	80.000000	56.000000
72.641818	72.748194	64.000000	43.000000
72.641818	72.748194	61.000000	36.000000
72.748194	72.850145	81.000000	56.000000
72.854584	72.967599	81.000000	66.000000
72.854584	72.957326	59.000000	57.000000
72.957326	73.070556	80.000000	57.000000
73.060068	73.175444	78.000000	60.000000
73.060068	73.164956	64.000000	42.000000
73.060068	73.164956	62.000000	35.000000
73.164956	73.265472	76.000000	57.000000
73.269844	73.385233	76.000000	64.000000
73.269844	73.374745	56.000000	57.000000
73.374745	73.490201	74.000000	59.000000
73.479633	73.595840	73.000000	59.000000
73.479633	73.585272	64.000000	42.000000
73.479633	73.585272	62.000000	35.000000
73.585272	73.701117	71.000000	59.000000
73.690911	73.803161	73.000000	64.000000
73.690911	73.792956	57.000000	57.000000
73.792956	73.905488	76.000000	54.000000
73.895000	74.010376	69.000000	57.000000
73.895000	73.999888	54.000000	46.000000
73.999888	74.115049	73.000000	54.000000
74.104776	74.217791	71.000000	64.000000
74.104776	74.207518	50.000000	46.000000
74.207518	74.321204	74.000000	58.000000
74.310260	74.430691	68.000000	60.000000
74.310260	74.419748	52.000000	46.000000
74.419748	74.529236	71.000000	55.000000
74.529236	74.853985	69.000000	66.000000
74.529236	74.749821	45.000000	57.000000
74.749821	74.853985	57.000000	44.000000
74.959315	75.081718	85.000000	60.000000
75.071177	75.184366	86.000000	52.000000
75.173878	75.289629	85.000000	52.000000
75.278766	75.398084	83.000000	52.000000
75.387449	75.504461	81.000000	58.000000
75.387449	75.493826	52.000000	50.000000
75.493826	75.610770	83.000000	50.000000
75.600202	75.716409	81.000000	50.000000
75.600202	75.705841	61.000000	42.000000
75.600202	75.705841	57.000000	35.000000
75.705841	75.822048	80.000000	50.000000
75.811480	75.927687	78.000000	56.000000
75.811480	75.917119	61.000000	42.000000
75.811480	75.917119	57.000000	35.000000
75.917119	76.033393	81.000000	50.000000
76.022758	76.139769	80.000000	46.000000
76.022758	76.129134	61.000000	42.000000
76.022758	76.129134	57.000000	35.000000
76.129134	76.246079	78.000000	46.000000
76.235511	76.351718	77.000000	58.000000
76.235511	76.341150	56.000000	50.000000
76.341150	76.457276	78.000000	47.000000
76.446789	76.562164	80.000000	49.000000
76.446789	76.551676	61.000000	41.000000
76.446789	76.551676	59.000000	34.000000
76.551676	76.667052	77.000000	46.000000
76.656564	76.771940	73.000000	56.000000
76.656564	76.761452	61.000000	41.000000
76.656564	76.761452	59.000000	34.000000
76.761452	76.876908	75.000000	47.000000
76.866340	76.982547	77.000000	50.000000
76.866340	76.971979	61.000000	41.000000
76.866340	76.971979	59.000000	34.000000
76.971979	77.088414	73.000000	47.000000
77.077618	77.196332	78.000000	56.000000
77.077618	77.185536	54.000000	50.000000
77.185536	77.303943	77.000000	47.000000
77.293455	77.408831	78.000000	50.000000
77.293455	77.398343	61.000000	40.000000
77.293455	77.398343	57.000000	34.000000
77.398343	77.513718	80.000000	47.000000
77.503231	77.618606	81.000000	56.000000
77.503231	77.608119	61.000000	40.000000
77.503231	77.608119	57.000000	34.000000
77.608119	77.723575	80.000000	51.000000
77.713007	77.829213	81.000000	53.000000
77.713007	77.818646	61.000000	40.000000
77.713007	77.818646	57.000000	34.000000
77.818646	77.934557	83.000000	55.000000
77.924284	78.037299	85.000000	62.000000
77.924284	78.027026	49.000000	50.000000
78.027026	78.140189	84.000000	57.000000
78.129769	78.244366	85.000000	60.000000
78.129769	78.233946	61.000000	49.000000
78.129769	78.233946	56.000000	41.000000
78.233946	78.338123	84.000000	54.000000
78.338123	78.452707	85.000000	62.000000
78.338123	78.442286	61.000000	48.000000
78.338123	78.442286	55.000000	40.000000
78.442286	78.557098	86.000000	56.000000
78.546463	78.663475	85.000000	65.000000
78.546463	78.652840	61.000000	48.000000
78.546463	78.652840	54.000000	40.000000
78.652840	78.769932	82.000000	60.000000
78.759216	78.877073	86.000000	69.000000
78.759216	78.866357	47.000000	59.000000
78.866357	78.983919	85.000000	63.000000
78.973498	79.088096	86.000000	69.000000
78.973498	79.077675	59.000000	53.000000
78.973498	79.077675	54.000000	45.000000
79.077675	79.192273	85.000000	64.000000
79.181852	79.296450	86.000000	68.000000
79.181852	79.286029	59.000000	56.000000
79.181852	79.286029	54.000000	47.000000
79.286029	79.400841	85.000000	66.000000
79.390206	79.507218	86.000000	72.000000
79.390206	79.496583	59.000000	54.000000
79.390206	79.496583	54.000000	45.000000
79.496583	79.613594	85.000000	68.000000
79.602959	79.719971	86.000000	70.000000
79.602959	79.709336	47.000000	65.000000
79.709336	79.826133	85.000000	69.000000
79.815712	79.930310	83.000000	67.000000
79.815712	79.919889	59.000000	54.000000
79.815712	79.919889	56.000000	45.000000
79.919889	80.034487	81.000000	66.000000
80.024067	80.138664	80.000000	64.000000
80.024067	80.128244	59.000000	60.000000
80.024067	80.128244	56.000000	51.000000
80.128244	80.243136	81.000000	61.000000
80.232421	80.350277	83.000000	64.000000
80.232421	80.339562	59.000000	54.000000
80.232421	80.339562	56.000000	45.000000
80.339562	80.457123	80.000000	61.000000
80.446702	80.561300	81.000000	57.000000
80.446702	80.550880	49.000000	58.000000
80.550880	80.665544	83.000000	49.000000
80.655057	80.770432	85.000000	55.000000
80.655057	80.759944	57.000000	47.000000
80.655057	80.759944	54.000000	39.000000
80.759944	80.875320	81.000000	50.000000
80.864832	80.981455	77.000000	53.000000
80.864832	80.970820	49.000000	55.000000
80.970820	81.088502	78.000000	47.000000
81.077706	81.198902	80.000000	54.000000
81.077706	81.186081	56.000000	41.000000
81.077706	81.186081	59.000000	49.000000
81.186081	81.325153	77.000000	47.000000
81.314290	81.721893	78.000000	54.000000
81.314290	81.721893	57.000000	46.000000
81.314290	81.721893	54.000000	39.000000
81.749063	81.863647	76.000000	69.000000
81.853227	81.967891	74.000000	59.000000
81.957404	82.073155	73.000000	59.000000
82.062292	82.181690	71.000000	59.000000
82.170975	82.288831	69.000000	66.000000
82.170975	82.278116	57.000000	57.000000
82.278116	82.395825	71.000000	57.000000
82.385257	82.501464	73.000000	57.000000
82.385257	82.490896	64.000000	43.000000
82.385257	82.490896	61.000000	36.000000
82.490896	82.607250	74.000000	57.000000
82.596535	82.714391	76.000000	64.000000
82.596535	82.703676	64.000000	43.000000
82.596535	82.703676	61.000000	36.000000
82.703676	82.821679	78.000000	57.000000
82.810816	82.930363	80.000000	56.000000
82.810816	82.919500	64.000000	43.000000
82.810816	82.919500	61.000000	36.000000
82.919500	83.023663	81.000000	56.000000
83.028196	83.142780	81.000000	66.000000
83.028196	83.132360	59.000000	57.000000
83.132360	83.247024	80.000000	60.000000
83.236537	83.351912	78.000000	60.000000
83.236537	83.341425	64.000000	42.000000
83.236537	83.341425	62.000000	35.000000
83.341425	83.441941	76.000000	57.000000
83.446313	83.561701	76.000000	64.000000
83.446313	83.551214	56.000000	57.000000
83.551214	83.666670	74.000000	59.000000
83.656102	83.772309	73.000000	59.000000
83.656102	83.761741	64.000000	42.000000
83.656102	83.761741	62.000000	35.000000
83.761741	83.877585	71.000000	59.000000
83.867379	83.979630	69.000000	64.000000
83.867379	83.969424	57.000000	57.000000
83.969424	84.081956	71.000000	54.000000
84.071469	84.186844	73.000000	57.000000
84.071469	84.176357	64.000000	41.000000
84.071469	84.176357	61.000000	35.000000
84.176357	84.291732	74.000000	54.000000
84.281245	84.396620	76.000000	64.000000
84.281245	84.386132	64.000000	41.000000
84.281245	84.386132	61.000000	35.000000
84.386132	84.502473	78.000000	58.000000
84.491020	84.618238	80.000000	60.000000
84.491020	84.605524	64.000000	41.000000
84.491020	84.605524	61.000000	35.000000
84.605524	84.732647	81.000000	63.000000
84.732647	84.967019	82.000000	75.000000
84.732647	84.967019	52.000000	57.000000
84.967019	85.081603	83.000000	69.000000
84.967019	85.071182	62.000000	39.000000
84.967019	85.071182	56.000000	33.000000
85.175360	85.289944	76.000000	69.000000
85.175360	85.279523	56.000000	33.000000
85.175360	85.279523	62.000000	39.000000
85.279523	85.394188	74.000000	59.000000
85.383700	85.499451	73.000000	59.000000
85.383700	85.488588	56.000000	33.000000
85.383700	85.488588	62.000000	39.000000
85.488588	85.607987	71.000000	59.000000
85.597271	85.715128	69.000000	66.000000
85.597271	85.704412	57.000000	57.000000
85.704412	85.822121	71.000000	57.000000
85.811553	85.927760	73.000000	57.000000
85.811553	85.917192	64.000000	43.000000
85.811553	85.917192	61.000000	36.000000
85.917192	86.033546	74.000000	57.000000
86.022831	86.140687	76.000000	64.000000
86.022831	86.129972	64.000000	43.000000
86.022831	86.129972	61.000000	36.000000
86.129972	86.247748	78.000000	57.000000
86.237113	86.354124	80.000000	56.000000
86.237113	86.343489	64.000000	43.000000
86.237113	86.343489	61.000000	36.000000
86.343489	86.445440	81.000000	56.000000
86.449879	86.564463	81.000000	66.000000
86.449879	86.554043	59.000000	57.000000
86.554043	86.668707	80.000000	57.000000
86.658220	86.773595	78.000000	60.000000
86.658220	86.763108	64.000000	42.000000
86.658220	86.763108	62.000000	35.000000
86.763108	86.863623	76.000000	57.000000
86.867995	86.983384	76.000000	64.000000
86.867995	86.972897	56.000000	57.000000
86.972897	87.088353	74.000000	59.000000
87.077785	87.193991	73.000000	59.000000
87.077785	87.183423	64.000000	42.000000
87.077785	87.183423	62.000000	35.000000
87.183423	87.299268	71.000000	59.000000
87.289062	87.401313	73.000000	64.000000
87.289062	87.391107	57.000000	57.000000
87.391107	87.503639	76.000000	54.000000
87.493152	87.608527	69.000000	57.000000
87.493152	87.598040	54.000000	46.000000
87.598040	87.713200	73.000000	54.000000
87.702927	87.815942	71.000000	64.000000
87.702927	87.805670	50.000000	46.000000
87.805670	87.919355	74.000000	58.000000
87.908412	88.028843	68.000000	60.000000
87.908412	88.017899	52.000000	46.000000
88.017899	88.127387	71.000000	55.000000
88.127387	88.455891	69.000000	66.000000
88.127387	88.347972	45.000000	57.000000
88.347972	88.455891	57.000000	44.000000
88.565138	88.689391	85.000000	60.000000
88.679024	88.791100	86.000000	52.000000
88.780613	88.896364	85.000000	52.000000
88.885501	89.004819	83.000000	52.000000
88.994184	89.111195	81.000000	58.000000
88.994184	89.100560	52.000000	50.000000
89.100560	89.217505	83.000000	50.000000
89.206937	89.323144	81.000000	50.000000
89.206937	89.312576	61.000000	42.000000
89.206937	89.312576	57.000000	35.000000
89.312576	89.428783	80.000000	50.000000
89.418215	89.534421	78.000000	56.000000
89.418215	89.523854	61.000000	42.000000
89.418215	89.523854	57.000000	35.000000
89.523854	89.640127	81.000000	50.000000
89.629492	89.746504	80.000000	46.000000
89.629492	89.735869	61.000000	42.000000
89.629492	89.735869	57.000000	35.000000
89.735869	89.852813	78.000000	46.000000
89.842245	89.958452	77.000000	58.000000
89.842245	89.947884	56.000000	50.000000
89.947884	90.064011	78.000000	47.000000
90.053523	90.168898	80.000000	49.000000
90.053523	90.158411	61.000000	41.000000
90.053523	90.158411	59.000000	34.000000
90.158411	90.273786	77.000000	46.000000
90.263299	90.378674	73.000000	56.000000
90.263299	90.368187	61.000000	41.000000
90.263299	90.368187	59.000000	34.000000
90.368187	90.483642	75.000000	47.000000
90.473074	90.589281	77.000000	50.000000
90.473074	90.578713	61.000000	41.000000
90.473074	90.578713	59.000000	34.000000
90.578713	90.695148	73.000000	47.000000
90.684352	90.803067	78.000000	56.000000
90.684352	90.792271	54.000000	50.000000
90.792271	90.910677	77.000000	47.000000
90.900190	91.015565	78.000000	50.000000
90.900190	91.005078	61.000000	40.000000
90.900190	91.005078	57.000000	34.000000
91.005078	91.120453	80.000000	47.000000
91.109965	91.225341	81.000000	56.000000
91.109965	91.214853	61.000000	40.000000
91.109965	91.214853	57.000000	34.000000
91.214853	91.330309	80.000000	51.000000
91.319741	91.435948	81.000000	53.000000
91.319741	91.425380	61.000000	40.000000
91.319741	91.425380	57.000000	34.000000
91.425380	91.541439	83.000000	55.000000
91.531019	91.645616	85.000000	62.000000
91.531019	91.635196	49.000000	50.000000
91.635196	91.749793	84.000000	57.000000
91.739373	91.853970	85.000000	60.000000
91.739373	91.843550	61.000000	49.000000
91.739373	91.843550	56.000000	41.000000
91.843550	91.947727	84.000000	54.000000
91.947727	92.062311	85.000000	62.000000
91.947727	92.051891	61.000000	48.000000
91.947727	92.051891	55.000000	40.000000
92.051891	92.166703	86.000000	56.000000
92.156068	92.273079	85.000000	65.000000
92.156068	92.262444	61.000000	48.000000
92.156068	92.262444	54.000000	40.000000
92.262444	92.379536	82.000000	60.000000
92.368821	92.486677	86.000000	69.000000
92.368821	92.475962	47.000000	59.000000
92.475962	92.593590	85.000000	63.000000
92.583103	92.698478	86.000000	69.000000
92.583103	92.687991	59.000000	53.000000
92.583103	92.687991	54.000000	45.000000
92.687991	92.803366	85.000000	64.000000
92.792878	92.908254	86.000000	68.000000
92.792878	92.897766	59.000000	56.000000
92.792878	92.897766	54.000000	47.000000
92.897766	93.013289	85.000000	66.000000
93.002654	93.119666	86.000000	72.000000
93.002654	93.109031	59.000000	54.000000
93.002654	93.109031	54.000000	45.000000
93.109031	93.226042	85.000000	68.000000
93.215407	93.332418	86.000000	70.000000
93.215407	93.321783	47.000000	65.000000
93.321783	93.438580	85.000000	69.000000
93.428160	93.542757	83.000000	67.000000
93.428160	93.532337	59.000000	54.000000
93.428160	93.532337	56.000000	45.000000
93.532337	93.646934	81.000000	66.000000
93.636514	93.751112	80.000000	64.000000
93.636514	93.740691	59.000000	60.000000
93.636514	93.740691	56.000000	51.000000
93.740691	93.855584	81.000000	61.000000
93.844868	93.962725	83.000000	64.000000
93.844868	93.952009	59.000000	54.000000
93.844868	93.952009	56.000000	45.000000
93.952009	94.069570	80.000000	61.000000
94.059150	94.173748	81.000000	57.000000
94.059150	94.163327	49.000000	58.000000
94.163327	94.277992	83.000000	49.000000
94.267504	94.382879	85.000000	55.000000
94.267504	94.372392	57.000000	47.000000
94.267504	94.372392	54.000000	39.000000
94.372392	94.487767	81.000000	50.000000
94.477280	94.593902	77.000000	53.000000
94.477280	94.583267	49.000000	55.000000
94.583267	94.700949	78.000000	47.000000
94.690154	94.811349	80.000000	54.000000
94.690154	94.798528	56.000000	41.000000
94.690154	94.798528	59.000000	49.000000
94.798528	94.939130	77.000000	47.000000
94.926738	95.391605	78.000000	54.000000
94.926738	95.391605	57.000000	46.000000
94.926738	95.391605	54.000000	39.000000
95.422598	95.529739	69.000000	73.000000
95.422598	95.529739	81.000000	84.000000
95.636880	95.744799	71.000000	73.000000
95.636880	95.744799	83.000000	84.000000
95.744799	95.780767	45.000000	64.000000
95.780767	95.816736	49.000000	64.000000
95.816736	95.852704	52.000000	64.000000
95.852704	96.268058	73.000000	78.000000
95.852704	96.268058	85.000000	90.000000
95.852704	95.954749	57.000000	73.000000
96.056794	96.162419	57.000000	69.000000
96.268058	96.371511	69.000000	73.000000
96.268058	96.371511	81.000000	84.000000
96.268058	96.371511	57.000000	69.000000
96.474964	96.580603	71.000000	73.000000
96.474964	96.580603	83.000000	84.000000
96.474964	96.580603	57.000000	69.000000
96.580603	96.615820	45.000000	60.000000
96.615820	96.651037	49.000000	60.000000
96.651037	96.686255	52.000000	60.000000
96.686255	96.788286	73.000000	79.000000
96.686255	96.788286	85.000000	91.000000
96.686255	96.788286	57.000000	72.000000
96.890331	96.993059	71.000000	72.000000
96.890331	96.993059	83.000000	82.000000
96.890331	96.993059	57.000000	64.000000
97.095802	97.198544	69.000000	77.000000
97.095802	97.198544	81.000000	89.000000
97.095802	97.198544	57.000000	65.000000
97.301286	97.413228	68.000000	73.000000
97.301286	97.413228	80.000000	84.000000
97.301286	97.413228	57.000000	67.000000
97.413228	97.450537	38.000000	63.000000
97.450537	97.487847	42.000000	63.000000
97.487847	97.525156	45.000000	63.000000
97.525156	97.627899	66.000000	80.000000
97.525156	97.627899	78.000000	92.000000
97.525156	97.627899	50.000000	73.000000
97.730641	97.835542	68.000000	69.000000
97.730641	97.835542	80.000000	78.000000
97.730641	97.835542	50.000000	69.000000
97.835542	97.870504	39.000000	63.000000
97.870504	97.905467	42.000000	63.000000
97.905467	97.940430	45.000000	63.000000
97.940430	98.046820	69.000000	75.000000
97.940430	98.046820	81.000000	86.000000
97.940430	98.046820	51.000000	73.000000
98.153196	98.265138	71.000000	70.000000
98.153196	98.265138	83.000000	80.000000
98.153196	98.265138	51.000000	71.000000
98.265138	98.302448	40.000000	63.000000
98.302448	98.339757	44.000000	63.000000
98.339757	98.377067	47.000000	63.000000
98.377067	98.589833	68.000000	78.000000
98.377067	98.589833	80.000000	90.000000
98.377067	98.589833	52.000000	73.000000
98.589833	98.703478	64.000000	73.000000
98.589833	98.703478	76.000000	84.000000
98.589833	98.703478	52.000000	73.000000
98.817110	98.923487	69.000000	73.000000
98.817110	98.923487	81.000000	84.000000
99.029863	99.134765	71.000000	73.000000
99.029863	99.134765	83.000000	84.000000
99.134765	99.169727	45.000000	64.000000
99.169727	99.204690	49.000000	64.000000
99.204690	99.239652	52.000000	64.000000
99.239652	99.653544	73.000000	78.000000
99.239652	99.653544	85.000000	90.000000
99.239652	99.341697	57.000000	73.000000
99.443742	99.548643	57.000000	69.000000
99.653544	99.755589	69.000000	73.000000
99.653544	99.755589	81.000000	84.000000
99.653544	99.755589	57.000000	69.000000
99.857634	99.963273	71.000000	73.000000
99.857634	99.963273	83.000000	84.000000
99.857634	99.963273	57.000000	69.000000
99.963273	99.998490	45.000000	60.000000
99.998490	100.033707	49.000000	60.000000
100.033707	100.068925	52.000000	60.000000
100.068925	100.171667	73.000000	79.000000
100.068925	100.171667	85.000000	91.000000
100.068925	100.171667	57.000000	72.000000
100.274409	100.377862	71.000000	72.000000
100.274409	100.377862	83.000000	82.000000
100.274409	100.377862	57.000000	64.000000
100.481315	100.585478	69.000000	77.000000
100.481315	100.585478	81.000000	89.000000
100.481315	100.585478	57.000000	65.000000
100.689642	100.798339	68.000000	73.000000
100.689642	100.798339	80.000000	84.000000
100.689642	100.798339	57.000000	67.000000
100.798339	100.834575	38.000000	63.000000
100.834575	100.870812	42.000000	63.000000
100.870812	100.907049	45.000000	63.000000
100.907049	101.010502	66.000000	80.000000
100.907049	101.010502	78.000000	92.000000
100.907049	101.010502	50.000000	73.000000
101.113954	101.222651	71.000000	69.000000
101.113954	101.222651	83.000000	78.000000
101.113954	101.222651	50.000000	69.000000
101.222651	101.258888	40.000000	63.000000
101.258888	101.295124	44.000000	63.000000
101.295124	101.331361	47.000000	63.000000
101.331361	101.444148	68.000000	75.000000
101.331361	101.444148	80.000000	86.000000
101.331361	101.444148	52.000000	73.000000
101.556935	101.673209	64.000000	70.000000
101.556935	101.673209	76.000000	80.000000
101.556935	101.673209	52.000000	71.000000
101.789483	102.212414	69.000000	78.000000
101.789483	102.212414	81.000000	90.000000
101.789483	102.212414	45.000000	73.000000
102.240604	102.345505	69.000000	73.000000
102.240604	102.345505	81.000000	84.000000
102.450406	102.558325	71.000000	73.000000
102.450406	102.558325	83.000000	84.000000
102.558325	102.594293	45.000000	64.000000
102.594293	102.630262	49.000000	64.000000
102.630262	102.666230	52.000000	64.000000
102.666230	103.081584	73.000000	78.000000
102.666230	103.081584	85.000000	90.000000
102.666230	102.768275	57.000000	73.000000
102.870320	102.975945	57.000000	69.000000
103.081584	103.185037	69.000000	73.000000
103.081584	103.185037	81.000000	84.000000
103.081584	103.185037	57.000000	69.000000
103.288490	103.394866	71.000000	73.000000
103.288490	103.394866	83.000000	84.000000
103.288490	103.394866	57.000000	69.000000
103.394866	103.430325	45.000000	60.000000
103.430325	103.465784	49.000000	60.000000
103.465784	103.501243	52.000000	60.000000
103.501243	103.603274	73.000000	79.000000
103.501243	103.603274	85.000000	91.000000
103.501243	103.603274	57.000000	72.000000
103.705319	103.810220	71.000000	72.000000
103.705319	103.810220	83.000000	82.000000
103.705319	103.810220	57.000000	64.000000
103.915121	104.017863	69.000000	77.000000
103.915121	104.017863	81.000000	89.000000
103.915121	104.017863	57.000000	65.000000
104.120605	104.227746	68.000000	73.000000
104.120605	104.227746	80.000000	84.000000
104.120605	104.227746	57.000000	67.000000
104.227746	104.263460	38.000000	63.000000
104.263460	104.299174	42.000000	63.000000
104.299174	104.334887	45.000000	63.000000
104.334887	104.437629	66.000000	80.000000
104.334887	104.437629	78.000000	92.000000
104.334887	104.437629	50.000000	73.000000
104.540371	104.648290	68.000000	69.000000
104.540371	104.648290	80.000000	78.000000
104.540371	104.648290	50.000000	69.000000
104.648290	104.684259	39.000000	63.000000
104.684259	104.720227	42.000000	63.000000
104.720227	104.756195	45.000000	63.000000
104.756195	104.864114	69.000000	75.000000
104.756195	104.864114	81.000000	86.000000
104.756195	104.864114	51.000000	73.000000
104.972033	105.083975	71.000000	70.000000
104.972033	105.083975	83.000000	80.000000
104.972033	105.083975	51.000000	71.000000
105.083975	105.121285	40.000000	63.000000
105.121285	105.158594	44.000000	63.000000
105.158594	105.195904	47.000000	63.000000
105.195904	105.408670	68.000000	78.000000
105.195904	105.408670	80.000000	90.000000
105.195904	105.408670	52.000000	73.000000
105.408670	105.522315	64.000000	73.000000
105.408670	105.522315	76.000000	84.000000
105.408670	105.522315	52.000000	73.000000
105.635947	105.740111	69.000000	73.000000
105.635947	105.740111	81.000000	84.000000
105.844275	105.949176	71.000000	73.000000
105.844275	105.949176	83.000000	84.000000
105.949176	105.984138	45.000000	64.000000
105.984138	106.019101	49.000000	64.000000
106.019101	106.054064	52.000000	64.000000
106.054064	106.467956	73.000000	78.000000
106.054064	106.467956	85.000000	90.000000
106.054064	106.156108	57.000000	73.000000
106.258153	106.363054	57.000000	69.000000
106.467956	106.570000	69.000000	73.000000
106.467956	106.570000	81.000000	84.000000
106.467956	106.570000	57.000000	69.000000
106.672045	106.779964	71.000000	73.000000
106.672045	106.779964	83.000000	84.000000
106.672045	106.779964	57.000000	69.000000
106.779964	106.815932	45.000000	60.000000
106.815932	106.851901	49.000000	60.000000
106.851901	106.887869	52.000000	60.000000
106.887869	106.990611	73.000000	79.000000
106.887869	106.990611	85.000000	91.000000
106.887869	106.990611	57.000000	72.000000
107.093353	107.196806	71.000000	72.000000
107.093353	107.196806	83.000000	82.000000
107.093353	107.196806	57.000000	64.000000
107.300259	107.404423	69.000000	77.000000
107.300259	107.404423	81.000000	89.000000
107.300259	107.404423	57.000000	65.000000
107.508586	107.617283	68.000000	73.000000
107.508586	107.617283	80.000000	84.000000
107.508586	107.617283	57.000000	67.000000
107.617283	107.653520	38.000000	63.000000
107.653520	107.689756	42.000000	63.000000
107.689756	107.725993	45.000000	63.000000
107.725993	107.829446	66.000000	80.000000
107.725993	107.829446	78.000000	92.000000
107.725993	107.829446	50.000000	73.000000
107.932899	108.046544	71.000000	69.000000
107.932899	108.046544	83.000000	78.000000
107.932899	108.046544	50.000000	69.000000
108.046544	108.084417	40.000000	63.000000
108.084417	108.122290	44.000000	63.000000
108.122290	108.160162	47.000000	63.000000
108.160162	108.272949	68.000000	75.000000
108.160162	108.272949	80.000000	86.000000
108.160162	108.272949	52.000000	73.000000
108.385736	108.502010	64.000000	70.000000
108.385736	108.502010	76.000000	80.000000
108.385736	108.502010	52.000000	71.000000
108.618284	109.175218	69.000000	78.000000
108.618284	109.175218	81.000000	90.000000
108.618284	109.175218	45.000000	73.000000
109.212353	109.311689	71.000000	66.000000
109.311689	109.411025	69.000000	64.000000
109.411025	109.510360	68.000000	64.000000
109.510360	109.623147	69.000000	64.000000
109.623147	109.722483	72.000000	71.000000
109.623147	109.722483	57.000000	57.000000
109.821819	109.921154	64.000000	52.000000
109.821819	109.921154	60.000000	43.000000
110.033941	110.133948	74.000000	66.000000
110.033941	110.133948	60.000000	43.000000
110.033941	110.133948	64.000000	52.000000
110.133948	110.233954	72.000000	63.000000
110.233954	110.333960	71.000000	63.000000
110.233954	110.333960	60.000000	42.000000
110.233954	110.333960	64.000000	51.000000
110.333960	110.447592	72.000000	63.000000
110.447592	110.546928	76.000000	72.000000
110.447592	110.546928	57.000000	57.000000
110.646263	110.745599	64.000000	52.000000
110.646263	110.745599	60.000000	43.000000
110.855891	110.955227	77.000000	66.000000
110.855891	110.955227	64.000000	52.000000
110.855891	110.955227	60.000000	43.000000
110.955227	111.054563	76.000000	63.000000
111.054563	111.153898	75.000000	63.000000
111.054563	111.153898	64.000000	52.000000
111.054563	111.153898	60.000000	43.000000
111.153898	111.258062	76.000000	63.000000
111.258062	111.357398	83.000000	70.000000
111.258062	111.357398	57.000000	57.000000
111.357398	111.456733	81.000000	64.000000
111.456733	111.556069	80.000000	64.000000
111.456733	111.556069	64.000000	50.000000
111.456733	111.556069	60.000000	42.000000
111.556069	111.655405	81.000000	64.000000
111.655405	111.756766	83.000000	69.000000
111.655405	111.756766	57.000000	57.000000
111.756766	111.858113	81.000000	64.000000
111.858113	111.959460	80.000000	64.000000
111.858113	111.959460	64.000000	52.000000
111.858113	111.959460	60.000000	43.000000
111.959460	112.073964	81.000000	64.000000
112.073964	112.500704	84.000000	72.000000
112.073964	112.176009	57.000000	57.000000
112.278053	112.384430	64.000000	50.000000
112.278053	112.384430	60.000000	42.000000
112.500704	112.600039	81.000000	68.000000
112.500704	112.600039	64.000000	50.000000
112.500704	112.600039	60.000000	42.000000
112.699375	112.806516	84.000000	65.000000
112.699375	112.806516	64.000000	50.000000
112.699375	112.806516	60.000000	42.000000
112.879338	112.901654	79.000000	63.000000
112.901654	112.923970	81.000000	63.000000
112.923970	113.025317	83.000000	80.000000
112.923970	113.025317	52.000000	65.000000
113.126664	113.228012	78.000000	54.000000
113.126664	113.228012	81.000000	64.000000
113.126664	113.228012	64.000000	53.000000
113.126664	113.228012	59.000000	44.000000
113.329359	113.428695	76.000000	58.000000
113.329359	113.428695	79.000000	69.000000
113.329359	113.428695	64.000000	53.000000
113.329359	113.428695	59.000000	44.000000
113.528031	113.635171	78.000000	54.000000
113.528031	113.635171	81.000000	64.000000
113.528031	113.635171	64.000000	53.000000
113.528031	113.635171	59.000000	44.000000
113.706599	113.729049	79.000000	65.000000
113.729049	113.751499	81.000000	65.000000
113.751499	113.852846	83.000000	82.000000
113.751499	113.852846	52.000000	66.000000
113.954194	114.055541	78.000000	56.000000
113.954194	114.055541	81.000000	66.000000
113.954194	114.055541	64.000000	52.000000
113.954194	114.055541	59.000000	43.000000
114.156888	114.256224	76.000000	58.000000
114.156888	114.256224	79.000000	69.000000
114.156888	114.256224	64.000000	52.000000
114.156888	114.256224	59.000000	43.000000
114.355560	114.463478	78.000000	55.000000
114.355560	114.463478	81.000000	65.000000
114.355560	114.463478	64.000000	52.000000
114.355560	114.463478	59.000000	43.000000
114.532290	114.554486	79.000000	64.000000
114.554486	114.601854	81.000000	64.000000
114.576681	114.677358	83.000000	79.000000
114.576681	114.677358	52.000000	67.000000
114.778035	114.878711	78.000000	57.000000
114.778035	114.878711	81.000000	68.000000
114.778035	114.878711	64.000000	52.000000
114.778035	114.878711	59.000000	43.000000
114.979388	115.088876	76.000000	58.000000
114.979388	115.088876	79.000000	69.000000
114.979388	115.088876	47.000000	52.000000
115.198364	115.314638	75.000000	56.000000
115.198364	115.314638	78.000000	66.000000
115.198364	115.314638	59.000000	52.000000
115.430912	115.888228	76.000000	69.000000
115.430912	115.888228	52.000000	57.000000
115.918712	116.018047	71.000000	66.000000
116.018047	116.117383	69.000000	64.000000
116.117383	116.216719	68.000000	64.000000
116.216719	116.329506	69.000000	64.000000
116.329506	116.428841	72.000000	71.000000
116.329506	116.428841	57.000000	57.000000
116.528177	116.627513	64.000000	52.000000
116.528177	116.627513	60.000000	43.000000
116.740300	116.840306	74.000000	66.000000
116.740300	116.840306	60.000000	43.000000
116.740300	116.840306	64.000000	52.000000
116.840306	116.940312	72.000000	63.000000
116.940312	117.040318	71.000000	63.000000
116.940312	117.040318	60.000000	42.000000
116.940312	117.040318	64.000000	51.000000
117.040318	117.153950	72.000000	63.000000
117.153950	117.253286	76.000000	72.000000
117.153950	117.253286	57.000000	57.000000
117.352622	117.451957	64.000000	52.000000
117.352622	117.451957	60.000000	43.000000
117.562250	117.661586	77.000000	66.000000
117.562250	117.661586	64.000000	52.000000
117.562250	117.661586	60.000000	43.000000
117.661586	117.760921	76.000000	63.000000
117.760921	117.860257	75.000000	63.000000
117.760921	117.860257	64.000000	52.000000
117.760921	117.860257	60.000000	43.000000
117.860257	117.964421	76.000000	63.000000
117.964421	118.063756	83.000000	70.000000
117.964421	118.063756	57.000000	57.000000
118.063756	118.163092	81.000000	64.000000
118.163092	118.262428	80.000000	64.000000
118.163092	118.262428	64.000000	50.000000
118.163092	118.262428	60.000000	42.000000
118.262428	118.361763	81.000000	64.000000
118.361763	118.463124	83.000000	69.000000
118.361763	118.463124	57.000000	57.000000
118.463124	118.564471	81.000000	64.000000
118.564471	118.665819	80.000000	64.000000
118.564471	118.665819	64.000000	52.000000
118.564471	118.665819	60.000000	43.000000
118.665819	118.780322	81.000000	64.000000
118.780322	119.207062	84.000000	72.000000
118.780322	118.882367	57.000000	57.000000
118.984412	119.090788	64.000000	50.000000
118.984412	119.090788	60.000000	42.000000
119.207062	119.306398	81.000000	68.000000
119.207062	119.306398	64.000000	50.000000
119.207062	119.306398	60.000000	42.000000
119.405733	119.512874	84.000000	65.000000
119.405733	119.512874	64.000000	50.000000
119.405733	119.512874	60.000000	42.000000
119.585696	119.608012	79.000000	63.000000
119.608012	119.630328	81.000000	63.000000
119.630328	119.731676	83.000000	80.000000
119.630328	119.731676	52.000000	65.000000
119.833023	119.934370	78.000000	54.000000
119.833023	119.934370	81.000000	64.000000
119.833023	119.934370	64.000000	53.000000
119.833023	119.934370	59.000000	44.000000
120.035718	120.135053	76.000000	58.000000
120.035718	120.135053	79.000000	69.000000
120.035718	120.135053	64.000000	53.000000
120.035718	120.135053	59.000000	44.000000
120.234389	120.341530	78.000000	54.000000
120.234389	120.341530	81.000000	64.000000
120.234389	120.341530	64.000000	53.000000
120.234389	120.341530	59.000000	44.000000
120.412957	120.435407	79.000000	65.000000
120.435407	120.457857	81.000000	65.000000
120.457857	120.559205	83.000000	82.000000
120.457857	120.559205	52.000000	66.000000
120.660552	120.761899	78.000000	56.000000
120.660552	120.761899	81.000000	66.000000
120.660552	120.761899	64.000000	52.000000
120.660552	120.761899	59.000000	43.000000
120.863247	120.962582	76.000000	58.000000
120.863247	120.962582	79.000000	69.000000
120.863247	120.962582	64.000000	52.000000
120.863247	120.962582	59.000000	43.000000
121.061918	121.169837	78.000000	55.000000
121.061918	121.169837	81.000000	65.000000
121.061918	121.169837	64.000000	52.000000
121.061918	121.169837	59.000000	43.000000
121.238649	121.260844	79.000000	64.000000
121.260844	121.308038	81.000000	64.000000
121.283039	121.383032	83.000000	79.000000
121.283039	121.383032	52.000000	67.000000
121.483038	121.583045	78.000000	57.000000
121.483038	121.583045	81.000000	68.000000
121.483038	121.583045	64.000000	52.000000
121.483038	121.583045	59.000000	43.000000
121.683051	121.791748	76.000000	58.000000
121.683051	121.791748	79.000000	69.000000
121.683051	121.791748	47.000000	52.000000
121.900444	122.023397	75.000000	56.000000
121.900444	122.023397	78.000000	66.000000
121.900444	122.023397	59.000000	52.000000
122.146349	122.579043	76.000000	69.000000
122.146349	122.579043	52.000000	57.000000
122.607891	122.716587	72.000000	56.000000
122.607891	122.716587	76.000000	56.000000
122.825284	122.931660	74.000000	56.000000
122.825284	122.931660	77.000000	56.000000
123.038037	123.142200	76.000000	66.000000
123.038037	123.142200	79.000000	66.000000
123.038037	123.142200	48.000000	59.000000
123.246364	123.350528	76.000000	57.000000
123.246364	123.350528	79.000000	57.000000
123.246364	123.350528	60.000000	53.000000
123.454691	123.557433	81.000000	64.000000
123.454691	123.557433	52.000000	59.000000
123.557433	123.660162	79.000000	57.000000
123.660162	123.767920	77.000000	57.000000
123.660162	123.767920	64.000000	57.000000
123.767920	123.880707	76.000000	57.000000
123.880707	124.314112	74.000000	65.000000
123.880707	124.096531	71.000000	65.000000
123.880707	124.314112	55.000000	60.000000
124.096531	124.314112	67.000000	59.000000
124.314112	124.422809	72.000000	56.000000
124.314112	124.422809	76.000000	56.000000
124.531505	124.637882	74.000000	56.000000
124.531505	124.637882	77.000000	56.000000
124.744258	124.848422	76.000000	66.000000
124.744258	124.848422	79.000000	66.000000
124.744258	124.848422	48.000000	59.000000
124.952585	125.056749	76.000000	57.000000
124.952585	125.056749	79.000000	57.000000
124.952585	125.056749	60.000000	53.000000
125.160913	125.263655	81.000000	64.000000
125.160913	125.263655	52.000000	59.000000
125.263655	125.366383	79.000000	57.000000
125.366383	125.474141	77.000000	57.000000
125.366383	125.474141	64.000000	57.000000
125.474141	125.586928	76.000000	57.000000
125.586928	126.020333	74.000000	65.000000
125.586928	126.020333	71.000000	65.000000
125.586928	126.020333	55.000000	60.000000
126.020333	126.133965	69.000000	56.000000
126.020333	126.133965	72.000000	56.000000
126.247597	126.353973	71.000000	56.000000
126.247597	126.353973	74.000000	56.000000
126.460350	126.564514	72.000000	66.000000
126.460350	126.564514	76.000000	66.000000
126.460350	126.564514	45.000000	59.000000
126.668677	126.772841	72.000000	57.000000
126.668677	126.772841	76.000000	57.000000
126.668677	126.772841	57.000000	53.000000
126.877005	126.979747	77.000000	64.000000
126.877005	126.979747	48.000000	59.000000
126.979747	127.082475	76.000000	57.000000
127.082475	127.190233	74.000000	57.000000
127.082475	127.190233	60.000000	57.000000
127.190233	127.303020	72.000000	57.000000
127.303020	127.734668	71.000000	65.000000
127.303020	127.518844	68.000000	65.000000
127.303020	127.734668	52.000000	60.000000
127.518844	127.734668	64.000000	59.000000
127.734668	127.843365	69.000000	56.000000
127.734668	127.843365	72.000000	56.000000
127.952061	128.058438	71.000000	56.000000
127.952061	128.058438	74.000000	56.000000
128.164814	128.268978	72.000000	66.000000
128.164814	128.268978	76.000000	66.000000
128.164814	128.268978	45.000000	59.000000
128.373142	128.477305	72.000000	57.000000
128.373142	128.477305	76.000000	57.000000
128.373142	128.477305	57.000000	53.000000
128.581469	128.684211	77.000000	64.000000
128.581469	128.684211	48.000000	59.000000
128.684211	128.786940	76.000000	57.000000
128.786940	128.894698	74.000000	57.000000
128.786940	128.894698	60.000000	57.000000
128.894698	129.007485	72.000000	57.000000
129.007485	129.439133	71.000000	65.000000
129.007485	129.439133	68.000000	65.000000
129.007485	129.439133	52.000000	60.000000
129.439133	129.538468	71.000000	56.000000
129.538468	129.637804	69.000000	56.000000
129.637804	129.737140	68.000000	56.000000
129.737140	129.849927	69.000000	56.000000
129.849927	129.949262	72.000000	59.000000
129.849927	129.949262	57.000000	53.000000
130.048598	130.147934	64.000000	47.000000
130.048598	130.147934	60.000000	47.000000
130.260721	130.360727	74.000000	62.000000
130.260721	130.360727	60.000000	47.000000
130.260721	130.360727	64.000000	47.000000
130.360727	130.460733	72.000000	57.000000
130.460733	130.560739	71.000000	57.000000
130.460733	130.560739	60.000000	47.000000
130.460733	130.560739	64.000000	47.000000
130.560739	130.674371	72.000000	57.000000
130.674371	130.773707	76.000000	66.000000
130.674371	130.773707	57.000000	54.000000
130.873043	130.972378	64.000000	48.000000
130.873043	130.972378	60.000000	48.000000
131.082671	131.182006	77.000000	63.000000
131.082671	131.182006	64.000000	48.000000
131.082671	131.182006	60.000000	48.000000
131.182006	131.281342	76.000000	58.000000
131.281342	131.380678	75.000000	58.000000
131.281342	131.380678	64.000000	48.000000
131.281342	131.380678	60.000000	48.000000
131.380678	131.484841	76.000000	58.000000
131.484841	131.584848	83.000000	70.000000
131.484841	131.584848	57.000000	56.000000
131.584848	131.684854	81.000000	63.000000
131.684854	131.784860	80.000000	63.000000
131.684854	131.784860	64.000000	49.000000
131.684854	131.784860	60.000000	49.000000
131.784860	131.884866	81.000000	63.000000
131.884866	131.988319	83.000000	71.000000
131.884866	131.988319	57.000000	57.000000
131.988319	132.091772	81.000000	64.000000
132.091772	132.195225	80.000000	64.000000
132.091772	132.195225	64.000000	52.000000
132.091772	132.195225	60.000000	43.000000
132.195225	132.323435	81.000000	64.000000
132.323435	132.750174	84.000000	76.000000
132.323435	132.425479	53.000000	57.000000
132.527524	132.633901	63.000000	51.000000
132.527524	132.633901	57.000000	51.000000
132.750174	132.852916	81.000000	62.000000
132.750174	132.852916	63.000000	43.000000
132.750174	132.852916	57.000000	43.000000
132.955659	133.062799	83.000000	62.000000
132.955659	133.062799	63.000000	39.000000
132.955659	133.062799	57.000000	39.000000
133.169940	133.271288	84.000000	70.000000
133.169940	133.271288	52.000000	46.000000
133.372635	133.473982	83.000000	62.000000
133.372635	133.473982	64.000000	42.000000
133.372635	133.473982	57.000000	42.000000
133.575330	133.678072	81.000000	62.000000
133.575330	133.678072	50.000000	42.000000
133.780814	133.887955	80.000000	62.000000
133.780814	133.887955	59.000000	42.000000
133.780814	133.887955	53.000000	42.000000
133.995096	134.096443	81.000000	71.000000
133.995096	134.096443	48.000000	47.000000
134.197790	134.299138	76.000000	64.000000
134.197790	134.299138	57.000000	39.000000
134.197790	134.299138	52.000000	39.000000
134.400485	134.503938	50.000000	41.000000
134.403073	134.506526	77.000000	64.000000
134.607391	134.715310	74.000000	64.000000
134.607391	134.715310	59.000000	41.000000
134.607391	134.715310	53.000000	41.000000
134.823228	135.234197	72.000000	74.000000
134.823228	134.925970	52.000000	48.000000
134.823228	134.925970	57.000000	48.000000
135.028712	135.131455	57.000000	41.000000
135.028712	135.131455	52.000000	41.000000
135.229060	135.337448	52.000000	41.000000
135.234197	135.288538	72.000000	64.000000
135.234197	135.342880	56.000000	41.000000
135.284917	135.339259	71.000000	57.000000
135.339259	135.393600	72.000000	57.000000
135.393600	135.447942	71.000000	57.000000
135.451563	135.565798	52.000000	41.000000
135.451563	135.565798	56.000000	41.000000
135.458148	135.514541	72.000000	57.000000
135.504201	135.561695	71.000000	57.000000
135.551636	135.616130	69.000000	64.000000
135.616130	135.693257	71.000000	57.000000
135.708653	136.151566	69.000000	65.000000
135.708653	136.181097	45.000000	46.000000
135.708653	136.151566	57.000000	46.000000
136.181097	136.289794	72.000000	56.000000
136.181097	136.289794	76.000000	56.000000
136.398491	136.504867	74.000000	56.000000
136.398491	136.504867	77.000000	56.000000
136.611244	136.715407	76.000000	66.000000
136.611244	136.715407	79.000000	66.000000
136.611244	136.715407	48.000000	59.000000
136.819571	136.923735	76.000000	57.000000
136.819571	136.923735	79.000000	57.000000
136.819571	136.923735	60.000000	53.000000
137.027898	137.130640	81.000000	64.000000
137.027898	137.130640	52.000000	59.000000
137.130640	137.233369	79.000000	57.000000
137.233369	137.341127	77.000000	57.000000
137.233369	137.341127	64.000000	57.000000
137.341127	137.453914	76.000000	57.000000
137.453914	137.887319	74.000000	65.000000
137.453914	137.669738	71.000000	65.000000
137.453914	137.887319	55.000000	60.000000
137.669738	137.887319	67.000000	59.000000
137.887319	137.996015	72.000000	56.000000
137.887319	137.996015	76.000000	56.000000
138.104712	138.211088	74.000000	56.000000
138.104712	138.211088	77.000000	56.000000
138.317465	138.421629	76.000000	66.000000
138.317465	138.421629	79.000000	66.000000
138.317465	138.421629	48.000000	59.000000
138.525792	138.629956	76.000000	57.000000
138.525792	138.629956	79.000000	57.000000
138.525792	138.629956	60.000000	53.000000
138.734120	138.836862	81.000000	64.000000
138.734120	138.836862	52.000000	59.000000
138.836862	138.939590	79.000000	57.000000
138.939590	139.047348	77.000000	57.000000
138.939590	139.047348	64.000000	57.000000
139.047348	139.160135	76.000000	57.000000
139.160135	139.593540	74.000000	65.000000
139.160135	139.593540	71.000000	65.000000
139.160135	139.593540	55.000000	60.000000
139.593540	139.707172	69.000000	56.000000
139.593540	139.707172	72.000000	56.000000
139.820804	139.927180	71.000000	56.000000
139.820804	139.927180	74.000000	56.000000
140.033557	140.137720	72.000000	66.000000
140.033557	140.137720	76.000000	66.000000
140.033557	140.137720	45.000000	59.000000
140.241884	140.346048	72.000000	57.000000
140.241884	140.346048	76.000000	57.000000
140.241884	140.346048	57.000000	53.000000
140.450211	140.552953	77.000000	64.000000
140.450211	140.552953	48.000000	59.000000
140.552953	140.655682	76.000000	57.000000
140.655682	140.763440	74.000000	57.000000
140.655682	140.763440	60.000000	57.000000
140.763440	140.876227	72.000000	57.000000
140.876227	141.307875	71.000000	65.000000
140.876227	141.092051	68.000000	65.000000
140.876227	141.307875	52.000000	60.000000
141.092051	141.307875	64.000000	59.000000
141.307875	141.416572	69.000000	56.000000
141.307875	141.416572	72.000000	56.000000
141.525268	141.631645	71.000000	56.000000
141.525268	141.631645	74.000000	56.000000
141.738021	141.842185	72.000000	66.000000
141.738021	141.842185	76.000000	66.000000
141.738021	141.842185	45.000000	59.000000
141.946349	142.050512	72.000000	57.000000
141.946349	142.050512	76.000000	57.000000
141.946349	142.050512	57.000000	53.000000
142.154676	142.257418	77.000000	64.000000
142.154676	142.257418	48.000000	59.000000
142.257418	142.360147	76.000000	57.000000
142.360147	142.467904	74.000000	57.000000
142.360147	142.467904	60.000000	57.000000
142.467904	142.580691	72.000000	57.000000
142.580691	143.012340	71.000000	65.000000
142.580691	143.012340	68.000000	65.000000
142.580691	143.012340	52.000000	60.000000
143.012340	143.111675	71.000000	56.000000
143.111675	143.211011	69.000000	56.000000
143.211011	143.310347	68.000000	56.000000
143.310347	143.423134	69.000000	56.000000
143.423134	143.522469	72.000000	59.000000
143.423134	143.522469	57.000000	53.000000
143.621805	143.721141	64.000000	47.000000
143.621805	143.721141	60.000000	47.000000
143.833928	143.933934	74.000000	62.000000
143.833928	143.933934	60.000000	47.000000
143.833928	143.933934	64.000000	47.000000
143.933934	144.033940	72.000000	57.000000
144.033940	144.133946	71.000000	57.000000
144.033940	144.133946	60.000000	47.000000
144.033940	144.133946	64.000000	47.000000
144.133946	144.247578	72.000000	57.000000
144.247578	144.346914	76.000000	66.000000
144.247578	144.346914	57.000000	54.000000
144.446249	144.545585	64.000000	48.000000
144.446249	144.545585	60.000000	48.000000
144.655878	144.755213	77.000000	63.000000
144.655878	144.755213	64.000000	48.000000
144.655878	144.755213	60.000000	48.000000
144.755213	144.854549	76.000000	58.000000
144.854549	144.953885	75.000000	58.000000
144.854549	144.953885	64.000000	48.000000
144.854549	144.953885	60.000000	48.000000
144.953885	145.058048	76.000000	58.000000
145.058048	145.158055	83.000000	70.000000
145.058048	145.158055	57.000000	56.000000
145.158055	145.258061	81.000000	63.000000
145.258061	145.358067	80.000000	63.000000
145.258061	145.358067	64.000000	49.000000
145.258061	145.358067	60.000000	49.000000
145.358067	145.458073	81.000000	63.000000
145.458073	145.561526	83.000000	71.000000
145.458073	145.561526	57.000000	57.000000
145.561526	145.664979	81.000000	64.000000
145.664979	145.768432	80.000000	64.000000
145.664979	145.768432	64.000000	52.000000
145.664979	145.768432	60.000000	43.000000
145.768432	145.896642	81.000000	64.000000
145.896642	146.323381	84.000000	76.000000
145.896642	145.998686	57.000000	57.000000
146.100731	146.207107	63.000000	51.000000
146.100731	146.207107	57.000000	51.000000
146.323381	146.426123	81.000000	62.000000
146.323381	146.426123	63.000000	43.000000
146.323381	146.426123	57.000000	43.000000
146.528865	146.636006	83.000000	62.000000
146.528865	146.636006	63.000000	39.000000
146.528865	146.636006	57.000000	39.000000
146.743147	146.844495	84.000000	70.000000
146.743147	146.844495	52.000000	46.000000
146.945842	147.047189	83.000000	62.000000
146.945842	147.047189	64.000000	42.000000
146.945842	147.047189	57.000000	42.000000
147.148537	147.251989	81.000000	62.000000
147.148537	147.251989	50.000000	42.000000
147.355442	147.462583	80.000000	62.000000
147.355442	147.462583	59.000000	42.000000
147.355442	147.462583	53.000000	42.000000
147.569724	147.671071	81.000000	71.000000
147.569724	147.671071	48.000000	47.000000
147.772419	147.873766	76.000000	64.000000
147.772419	147.873766	57.000000	39.000000
147.772419	147.873766	52.000000	39.000000
147.975113	148.079277	50.000000	41.000000
147.977715	148.081879	77.000000	64.000000
148.183441	148.291360	74.000000	64.000000
148.183441	148.291360	59.000000	41.000000
148.183441	148.291360	53.000000	41.000000
148.399278	148.810247	72.000000	74.000000
148.399278	148.502020	52.000000	48.000000
148.399278	148.502020	57.000000	48.000000
148.604762	148.707505	57.000000	41.000000
148.604762	148.707505	52.000000	41.000000
148.805110	148.913498	52.000000	41.000000
148.810247	148.864588	72.000000	64.000000
148.810247	148.918930	56.000000	41.000000
148.860967	148.915309	71.000000	57.000000
148.915309	148.969650	72.000000	57.000000
148.969650	149.023992	71.000000	57.000000
149.027613	149.141848	52.000000	41.000000
149.027613	149.141848	56.000000	41.000000
149.034198	149.090591	72.000000	57.000000
149.080251	149.137745	71.000000	57.000000
149.127686	149.192180	69.000000	64.000000
149.192180	149.269307	71.000000	57.000000
149.284703	149.727616	69.000000	65.000000
149.284703	149.757147	45.000000	46.000000
149.284703	149.727616	57.000000	46.000000
149.757147	149.860600	69.000000	82.000000
149.860600	149.964053	81.000000	79.000000
149.964053	150.071972	71.000000	83.000000
150.071972	150.179877	83.000000	80.000000
150.071972	150.107940	45.000000	64.000000
150.107940	150.143909	49.000000	70.000000
150.143909	150.179877	52.000000	76.000000
150.179877	150.281909	73.000000	89.000000
150.179877	150.281909	57.000000	87.000000
150.281909	150.383953	85.000000	84.000000
150.383953	150.489592	57.000000	69.000000
150.595231	150.698684	69.000000	85.000000
150.595231	150.698684	57.000000	69.000000
150.698684	150.802137	81.000000	73.000000
150.802137	150.907776	71.000000	84.000000
150.802137	150.907776	57.000000	69.000000
150.907776	151.013428	83.000000	72.000000
150.907776	150.942993	45.000000	65.000000
150.942993	150.978210	49.000000	69.000000
150.978210	151.013428	52.000000	73.000000
151.013428	151.115473	73.000000	90.000000
151.013428	151.115473	57.000000	85.000000
151.115473	151.217517	85.000000	75.000000
151.217517	151.320259	71.000000	84.000000
151.217517	151.320259	57.000000	64.000000
151.320259	151.423002	83.000000	73.000000
151.423002	151.525744	69.000000	87.000000
151.423002	151.525744	57.000000	65.000000
151.525744	151.628486	81.000000	74.000000
151.628486	151.740428	68.000000	83.000000
151.628486	151.740428	57.000000	67.000000
151.740428	151.852356	80.000000	76.000000
151.740428	151.777737	38.000000	66.000000
151.777737	151.815047	42.000000	71.000000
151.815047	151.852356	45.000000	77.000000
151.852356	151.955098	66.000000	88.000000
151.852356	151.955098	50.000000	85.000000
151.955098	152.057841	78.000000	75.000000
152.057841	152.162742	68.000000	83.000000
152.057841	152.162742	50.000000	69.000000
152.162742	152.267630	80.000000	69.000000
152.162742	152.197704	39.000000	68.000000
152.197704	152.232667	42.000000	72.000000
152.232667	152.267630	45.000000	75.000000
152.267630	152.375548	69.000000	79.000000
152.267630	152.375548	51.000000	85.000000
152.375548	152.483467	81.000000	71.000000
152.483467	152.595409	71.000000	81.000000
152.483467	152.595409	51.000000	71.000000
152.595409	152.707338	83.000000	73.000000
152.595409	152.632719	40.000000	64.000000
152.632719	152.670028	44.000000	69.000000
152.670028	152.707338	47.000000	74.000000
152.707338	152.813728	68.000000	86.000000
152.707338	152.920104	52.000000	85.000000
152.813728	152.920104	80.000000	73.000000
152.920104	153.033736	64.000000	81.000000
152.920104	153.033736	52.000000	73.000000
153.033736	153.147368	76.000000	72.000000
153.147368	153.246690	69.000000	83.000000
153.246690	153.346026	81.000000	73.000000
153.346026	153.450927	71.000000	82.000000
153.450927	153.555815	83.000000	73.000000
153.450927	153.485890	45.000000	67.000000
153.485890	153.520852	49.000000	71.000000
153.520852	153.555815	52.000000	76.000000
153.555815	153.657860	73.000000	89.000000
153.555815	153.657860	57.000000	84.000000
153.657860	153.759904	85.000000	77.000000
153.759904	153.864806	57.000000	69.000000
153.969707	154.071752	69.000000	85.000000
153.969707	154.071752	57.000000	69.000000
154.071752	154.173796	81.000000	76.000000
154.173796	154.279435	71.000000	84.000000
154.173796	154.279435	57.000000	69.000000
154.279435	154.385088	83.000000	77.000000
154.279435	154.314653	45.000000	61.000000
154.314653	154.349870	49.000000	66.000000
154.349870	154.385088	52.000000	72.000000
154.385088	154.487830	73.000000	92.000000
154.385088	154.487830	57.000000	87.000000
154.487830	154.590572	85.000000	77.000000
154.590572	154.694025	71.000000	84.000000
154.590572	154.694025	57.000000	64.000000
154.694025	154.797477	83.000000	75.000000
154.797477	154.901641	69.000000	88.000000
154.797477	154.901641	57.000000	65.000000
154.901641	155.005805	81.000000	77.000000
155.005805	155.114501	68.000000	84.000000
155.005805	155.114501	57.000000	67.000000
155.114501	155.223211	80.000000	75.000000
155.114501	155.150738	38.000000	68.000000
155.150738	155.186975	42.000000	72.000000
155.186975	155.223211	45.000000	76.000000
155.223211	155.326664	66.000000	91.000000
155.223211	155.326664	50.000000	83.000000
155.326664	155.430117	78.000000	79.000000
155.430117	155.538814	71.000000	82.000000
155.430117	155.538814	50.000000	69.000000
155.538814	155.647524	83.000000	72.000000
155.538814	155.575050	40.000000	67.000000
155.575050	155.611287	44.000000	72.000000
155.611287	155.647524	47.000000	78.000000
155.647524	155.760311	68.000000	86.000000
155.647524	155.760311	52.000000	82.000000
155.760311	155.873098	80.000000	75.000000
155.873098	155.989371	64.000000	80.000000
155.873098	155.989371	52.000000	71.000000
155.989371	156.105645	76.000000	74.000000
156.105645	156.528576	69.000000	78.000000
156.105645	156.528576	81.000000	90.000000
156.105645	156.528576	45.000000	84.000000
156.556766	156.658114	69.000000	82.000000
156.658114	156.759461	81.000000	79.000000
156.759461	156.867380	71.000000	83.000000
156.867380	156.975285	83.000000	80.000000
156.867380	156.903348	45.000000	64.000000
156.903348	156.939317	49.000000	70.000000
156.939317	156.975285	52.000000	76.000000
156.975285	157.077316	73.000000	89.000000
156.975285	157.077316	57.000000	87.000000
157.077316	157.179361	85.000000	84.000000
157.179361	157.285000	57.000000	69.000000
157.390639	157.494092	69.000000	85.000000
157.390639	157.494092	57.000000	69.000000
157.494092	157.597545	81.000000	73.000000
157.597545	157.703183	71.000000	84.000000
157.597545	157.703183	57.000000	69.000000
157.703183	157.808836	83.000000	72.000000
157.703183	157.738401	45.000000	65.000000
157.738401	157.773618	49.000000	69.000000
157.773618	157.808836	52.000000	73.000000
157.808836	157.910880	73.000000	90.000000
157.808836	157.910880	57.000000	85.000000
157.910880	158.012925	85.000000	75.000000
158.012925	158.115667	71.000000	84.000000
158.012925	158.115667	57.000000	64.000000
158.115667	158.218409	83.000000	73.000000
158.218409	158.321151	69.000000	87.000000
158.218409	158.321151	57.000000	65.000000
158.321151	158.423893	81.000000	74.000000
158.423893	158.535836	68.000000	83.000000
158.423893	158.535836	57.000000	67.000000
158.535836	158.647764	80.000000	76.000000
158.535836	158.573145	38.000000	66.000000
158.573145	158.610455	42.000000	71.000000
158.610455	158.647764	45.000000	77.000000
158.647764	158.750506	66.000000	88.000000
158.647764	158.750506	50.000000	85.000000
158.750506	158.853248	78.000000	75.000000
158.853248	158.958150	68.000000	83.000000
158.853248	158.958150	50.000000	69.000000
158.958150	159.063037	80.000000	69.000000
158.958150	158.993112	39.000000	68.000000
158.993112	159.028075	42.000000	72.000000
159.028075	159.063037	45.000000	75.000000
159.063037	159.170956	69.000000	79.000000
159.063037	159.170956	51.000000	85.000000
159.170956	159.278875	81.000000	71.000000
159.278875	159.390817	71.000000	81.000000
159.278875	159.390817	51.000000	71.000000
159.390817	159.502746	83.000000	73.000000
159.390817	159.428127	40.000000	64.000000
159.428127	159.465436	44.000000	69.000000
159.465436	159.502746	47.000000	74.000000
159.502746	159.609136	68.000000	86.000000
159.502746	159.715512	52.000000	85.000000
159.609136	159.715512	80.000000	73.000000
159.715512	159.825805	64.000000	81.000000
159.715512	159.825805	52.000000	73.000000
159.825805	159.936097	76.000000	72.000000
159.936097	160.035419	69.000000	83.000000
160.035419	160.134755	81.000000	73.000000
160.134755	160.239656	71.000000	82.000000
160.239656	160.344544	83.000000	73.000000
160.239656	160.274619	45.000000	67.000000
160.274619	160.309582	49.000000	71.000000
160.309582	160.344544	52.000000	76.000000
160.344544	160.446589	73.000000	89.000000
160.344544	160.446589	57.000000	84.000000
160.446589	160.548634	85.000000	77.000000
160.548634	160.653535	57.000000	69.000000
160.758436	160.860481	69.000000	85.000000
160.758436	160.860481	57.000000	69.000000
160.860481	160.962525	81.000000	76.000000
160.962525	161.068164	71.000000	84.000000
160.962525	161.068164	57.000000	69.000000
161.068164	161.173817	83.000000	77.000000
161.068164	161.103382	45.000000	61.000000
161.103382	161.138599	49.000000	66.000000
161.138599	161.173817	52.000000	72.000000
161.173817	161.276559	73.000000	92.000000
161.173817	161.276559	57.000000	87.000000
161.276559	161.379301	85.000000	77.000000
161.379301	161.482754	71.000000	84.000000
161.379301	161.482754	57.000000	64.000000
161.482754	161.586207	83.000000	75.000000
161.586207	161.690370	69.000000	88.000000
161.586207	161.690370	57.000000	65.000000
161.690370	161.794534	81.000000	77.000000
161.794534	161.903230	68.000000	84.000000
161.794534	161.903230	57.000000	67.000000
161.903230	162.011940	80.000000	75.000000
161.903230	161.939467	38.000000	68.000000
161.939467	161.975704	42.000000	72.000000
161.975704	162.011940	45.000000	76.000000
162.011940	162.115393	66.000000	91.000000
162.011940	162.115393	50.000000	83.000000
162.115393	162.218846	78.000000	79.000000
162.218846	162.327543	71.000000	82.000000
162.218846	162.327543	50.000000	69.000000
162.327543	162.436253	83.000000	72.000000
162.327543	162.363779	40.000000	67.000000
162.363779	162.400016	44.000000	72.000000
162.400016	162.436253	47.000000	78.000000
162.436253	162.549040	68.000000	86.000000
162.436253	162.549040	52.000000	82.000000
162.549040	162.661827	80.000000	75.000000
162.661827	162.778101	64.000000	80.000000
162.661827	162.778101	52.000000	71.000000
162.778101	162.883753	76.000000	74.000000
162.778101	162.813318	45.000000	61.000000
162.813318	162.848535	49.000000	66.000000
162.848535	162.883753	52.000000	72.000000
162.883753	163.296129	69.000000	78.000000
162.883753	163.296129	81.000000	90.000000
162.883753	162.986481	57.000000	87.000000
163.089224	163.192676	57.000000	64.000000
163.296129	163.613153	85.000000	90.000000
163.296129	163.692372	73.000000	78.000000
163.296129	163.400293	57.000000	65.000000
163.504457	163.613153	57.000000	64.000000
163.613153	163.692372	85.000000	90.000000
163.613153	163.648357	45.000000	61.000000
163.648357	163.683575	49.000000	66.000000
163.683575	163.718765	52.000000	72.000000
163.692372	164.131155	73.000000	74.000000
163.701170	164.131155	76.000000	77.000000
163.709968	164.131155	81.000000	80.000000
163.718765	164.553791	85.000000	90.000000
163.718765	163.821507	57.000000	87.000000
163.924249	164.027702	57.000000	68.000000
164.131155	164.235319	57.000000	68.000000
164.339482	164.448179	57.000000	68.000000
164.448179	164.483383	45.000000	61.000000
164.483383	164.518601	49.000000	66.000000
164.518601	164.553791	52.000000	72.000000
164.527398	164.966181	73.000000	74.000000
164.536196	164.966181	76.000000	77.000000
164.544993	164.966181	81.000000	80.000000
164.553791	165.388857	85.000000	90.000000
164.553791	164.656533	57.000000	87.000000
164.759275	164.862728	57.000000	68.000000
164.966181	165.070345	57.000000	68.000000
165.174508	165.283205	57.000000	68.000000
165.283205	165.318422	45.000000	61.000000
165.318422	165.353640	49.000000	66.000000
165.353640	165.388857	52.000000	72.000000
165.388857	165.491599	86.000000	90.000000
165.388857	165.491599	57.000000	87.000000
165.491599	165.594341	85.000000	87.000000
165.594341	165.646068	83.000000	86.000000
165.594341	165.697794	57.000000	67.000000
165.697794	165.749521	85.000000	86.000000
165.801247	165.905411	86.000000	90.000000
165.801247	165.905411	57.000000	67.000000
165.905411	166.009574	85.000000	84.000000
166.009574	166.063916	83.000000	84.000000
166.009574	166.118258	57.000000	67.000000
166.118258	166.176395	85.000000	85.000000
166.118258	166.157016	38.000000	61.000000
166.157016	166.195773	42.000000	66.000000
166.195773	166.234531	45.000000	72.000000
166.234531	167.069571	78.000000	80.000000
166.234531	167.069571	81.000000	80.000000
166.234531	167.043164	86.000000	90.000000
166.234531	166.337274	50.000000	87.000000
166.440016	166.543468	50.000000	67.000000
166.646921	166.751085	50.000000	67.000000
166.849173	166.957602	50.000000	67.000000
166.963945	166.999149	45.000000	61.000000
166.999149	167.034367	49.000000	66.000000
167.034367	167.069571	52.000000	72.000000
167.043164	167.069571	86.000000	76.000000
167.069571	167.122383	76.000000	76.000000
167.069571	167.122383	81.000000	76.000000
167.069571	167.122383	85.000000	90.000000
167.069571	167.122383	57.000000	87.000000
167.254429	167.280835	86.000000	76.000000
167.280835	167.332561	76.000000	72.000000
167.280835	167.332561	81.000000	72.000000
167.280835	167.332561	85.000000	85.000000
167.280835	167.332561	57.000000	67.000000
167.461871	167.487727	86.000000	76.000000
167.487727	167.539816	76.000000	72.000000
167.487727	167.539816	81.000000	72.000000
167.487727	167.539816	85.000000	85.000000
167.487727	167.539816	57.000000	67.000000
167.670024	167.696068	86.000000	76.000000
167.696068	167.750410	76.000000	72.000000
167.696068	167.750410	81.000000	72.000000
167.696068	167.750410	85.000000	85.000000
167.696068	167.750410	57.000000	67.000000
167.804751	167.839969	40.000000	61.000000
167.839969	167.875186	44.000000	66.000000
167.875186	167.910404	47.000000	72.000000
167.910404	168.771621	76.000000	80.000000
167.910404	168.797665	80.000000	80.000000
167.910404	168.641413	83.000000	90.000000
167.910404	168.013146	52.000000	87.000000
168.115888	168.219341	52.000000	66.000000
168.322793	168.426957	52.000000	66.000000
168.531121	168.641413	52.000000	66.000000
168.641413	168.758599	88.000000	103.000000
168.641413	168.693488	45.000000	61.000000
168.693488	168.745577	49.000000	66.000000
168.745577	168.797665	52.000000	72.000000
168.758599	169.210055	73.000000	74.000000
168.771621	169.210055	76.000000	77.000000
168.784643	169.210055	81.000000	80.000000
168.797665	169.632691	85.000000	90.000000
168.797665	168.900408	57.000000	87.000000
169.003150	169.106602	57.000000	68.000000
169.210055	169.314219	57.000000	68.000000
169.418383	169.527079	57.000000	68.000000
169.527079	169.562283	45.000000	61.000000
169.562283	169.597501	49.000000	66.000000
169.597501	169.632691	52.000000	72.000000
169.606298	170.045081	73.000000	74.000000
169.615096	170.045081	76.000000	77.000000
169.623894	170.045081	81.000000	80.000000
169.632691	170.467757	85.000000	90.000000
169.632691	169.735433	57.000000	87.000000
169.838175	169.941628	57.000000	66.000000
170.045081	170.149245	57.000000	66.000000
170.253409	170.362105	57.000000	66.000000
170.362105	170.397323	45.000000	61.000000
170.397323	170.432540	49.000000	66.000000
170.432540	170.467757	52.000000	72.000000
170.467757	170.570499	86.000000	90.000000
170.467757	170.570499	57.000000	87.000000
170.570499	170.673242	85.000000	87.000000
170.673242	170.724968	83.000000	86.000000
170.673242	170.776694	57.000000	66.000000
170.776694	170.828421	85.000000	86.000000
170.880147	170.984311	86.000000	90.000000
170.880147	170.984311	57.000000	66.000000
170.984311	171.088475	85.000000	84.000000
171.088475	171.142816	83.000000	84.000000
171.088475	171.197158	57.000000	66.000000
171.197158	171.255295	85.000000	85.000000
171.197158	171.235916	38.000000	61.000000
171.235916	171.274674	42.000000	66.000000
171.274674	171.313432	45.000000	72.000000
171.313432	172.148471	78.000000	80.000000
171.313432	172.148471	81.000000	80.000000
171.313432	172.122065	86.000000	90.000000
171.313432	171.416174	50.000000	87.000000
171.518916	171.622369	50.000000	66.000000
171.725822	171.829985	50.000000	66.000000
171.928074	172.036502	50.000000	66.000000
172.042845	172.078049	45.000000	61.000000
172.078049	172.113267	49.000000	66.000000
172.113267	172.148471	52.000000	72.000000
172.122065	172.148471	86.000000	76.000000
172.148471	172.989304	76.000000	76.000000
172.148471	172.989304	81.000000	76.000000
172.148471	172.962897	85.000000	90.000000
172.148471	172.254096	57.000000	87.000000
172.359735	172.463188	57.000000	66.000000
172.566641	172.670805	57.000000	66.000000
172.774968	172.883665	57.000000	66.000000
172.883665	172.918882	40.000000	61.000000
172.918882	172.954100	44.000000	66.000000
172.954100	172.989304	47.000000	72.000000
172.962897	172.989304	85.000000	76.000000
172.989304	173.040681	76.000000	76.000000
172.989304	173.040681	80.000000	76.000000
172.989304	173.040681	83.000000	90.000000
172.989304	173.040681	52.000000	87.000000
173.169106	173.194788	85.000000	76.000000
173.194788	173.246514	76.000000	72.000000
173.194788	173.246514	80.000000	72.000000
173.194788	173.246514	83.000000	85.000000
173.194788	173.246514	52.000000	66.000000
173.375824	173.401680	85.000000	76.000000
173.401680	173.453769	76.000000	72.000000
173.401680	173.453769	80.000000	72.000000
173.401680	173.453769	83.000000	85.000000
173.401680	173.453769	52.000000	65.000000
173.583977	173.610021	85.000000	76.000000
173.610021	173.664363	76.000000	72.000000
173.610021	173.664363	80.000000	72.000000
173.610021	173.664363	83.000000	85.000000
173.610021	173.664363	52.000000	65.000000
173.827414	174.207845	81.000000	90.000000
173.827414	173.936111	57.000000	64.000000
173.936111	174.044807	64.000000	54.000000
174.044807	174.153504	61.000000	54.000000
174.153504	174.262187	64.000000	54.000000
174.207845	174.235016	76.000000	55.000000
174.235016	174.262187	81.000000	60.000000
174.262187	174.579211	85.000000	67.000000
174.262187	174.366351	57.000000	40.000000
174.366351	174.470514	64.000000	31.000000
174.470514	174.579211	61.000000	31.000000
174.579211	174.632024	85.000000	63.000000
174.579211	174.684836	64.000000	31.000000
174.632024	174.658430	76.000000	55.000000
174.658430	174.684836	81.000000	60.000000
174.684836	175.467063	85.000000	70.000000
174.684836	174.787579	57.000000	40.000000
174.787579	174.890321	64.000000	31.000000
174.890321	174.993773	61.000000	31.000000
174.993773	175.097226	64.000000	31.000000
175.097226	175.201390	57.000000	40.000000
175.201390	175.305554	64.000000	31.000000
175.305554	175.414250	61.000000	31.000000
175.414250	175.519876	64.000000	31.000000
175.467063	175.493469	76.000000	55.000000
175.493469	175.519876	81.000000	60.000000
175.519876	176.354928	85.000000	69.000000
175.519876	175.622618	57.000000	40.000000
175.622618	175.725360	64.000000	31.000000
175.725360	175.828813	61.000000	31.000000
175.828813	175.932266	64.000000	31.000000
175.932266	176.036429	57.000000	40.000000
176.036429	176.140593	64.000000	31.000000
176.140593	176.249289	61.000000	31.000000
176.249289	176.354928	64.000000	31.000000
176.354928	176.457670	86.000000	69.000000
176.354928	176.457670	57.000000	40.000000
176.457670	176.560413	85.000000	60.000000
176.457670	176.560413	64.000000	31.000000
176.560413	176.612139	83.000000	60.000000
176.560413	176.663865	61.000000	31.000000
176.663865	176.715592	85.000000	60.000000
176.663865	176.767318	64.000000	31.000000
176.767318	176.871482	86.000000	68.000000
176.767318	176.871482	57.000000	40.000000
176.871482	176.975646	85.000000	61.000000
176.871482	176.975646	64.000000	31.000000
176.975646	177.029987	83.000000	61.000000
176.975646	177.084329	61.000000	31.000000
177.084329	177.142466	85.000000	61.000000
177.084329	177.200603	64.000000	31.000000
177.200603	178.009222	86.000000	67.000000
177.200603	177.303331	57.000000	40.000000
177.303331	177.406073	66.000000	31.000000
177.406073	177.509526	62.000000	31.000000
177.509526	177.612979	66.000000	31.000000
177.612979	177.717143	57.000000	40.000000
177.717143	177.821306	66.000000	31.000000
177.821306	177.930003	62.000000	31.000000
177.930003	178.035628	66.000000	31.000000
178.009222	178.035628	86.000000	59.000000
178.035628	178.088441	85.000000	71.000000
178.035628	178.141254	57.000000	40.000000
178.141254	178.246879	64.000000	31.000000
178.220473	178.246879	86.000000	56.000000
178.246879	178.298606	85.000000	64.000000
178.246879	178.350332	61.000000	31.000000
178.350332	178.453772	64.000000	31.000000
178.427915	178.453772	86.000000	57.000000
178.453772	178.505860	85.000000	65.000000
178.453772	178.557949	57.000000	40.000000
178.557949	178.662112	64.000000	31.000000
178.636068	178.662112	86.000000	59.000000
178.662112	178.716454	85.000000	66.000000
178.662112	178.770796	61.000000	31.000000
178.770796	178.876434	64.000000	31.000000
178.876434	179.605848	83.000000	67.000000
178.876434	178.979177	52.000000	40.000000
178.979177	179.081919	64.000000	31.000000
179.081919	179.185372	59.000000	31.000000
179.185372	179.288824	64.000000	31.000000
179.288824	179.392988	52.000000	40.000000
179.392988	179.497152	64.000000	31.000000
179.497152	179.605848	59.000000	31.000000
179.605848	179.712989	88.000000	94.000000
179.605848	179.677276	64.000000	31.000000
179.677276	179.701080	45.000000	61.000000
179.701080	179.724898	49.000000	61.000000
179.712989	180.161106	73.000000	74.000000
179.724898	180.161106	76.000000	77.000000
179.724898	179.748716	52.000000	61.000000
179.736807	180.161106	81.000000	80.000000
179.748716	180.583742	85.000000	90.000000
179.748716	179.851458	57.000000	87.000000
179.954200	180.057653	57.000000	67.000000
180.161106	180.265270	57.000000	67.000000
180.369433	180.478130	57.000000	64.000000
180.478130	180.513334	45.000000	61.000000
180.513334	180.548551	49.000000	66.000000
180.548551	180.583742	52.000000	72.000000
180.557349	180.996132	73.000000	74.000000
180.566147	180.996132	76.000000	77.000000
180.574944	180.996132	81.000000	80.000000
180.583742	181.418808	85.000000	90.000000
180.583742	180.686484	57.000000	87.000000
180.789226	180.892679	57.000000	66.000000
180.996132	181.100296	57.000000	66.000000
181.204459	181.313156	57.000000	66.000000
181.313156	181.348373	45.000000	61.000000
181.348373	181.383591	49.000000	66.000000
181.383591	181.418808	52.000000	72.000000
181.418808	181.521550	86.000000	90.000000
181.418808	181.521550	57.000000	87.000000
181.521550	181.624292	85.000000	87.000000
181.624292	181.676019	83.000000	86.000000
181.624292	181.727745	57.000000	67.000000
181.727745	181.779472	85.000000	86.000000
181.831198	181.935362	86.000000	90.000000
181.831198	181.935362	57.000000	67.000000
181.935362	182.039525	85.000000	84.000000
182.039525	182.093867	83.000000	84.000000
182.039525	182.148209	57.000000	67.000000
182.148209	182.206345	85.000000	85.000000
182.148209	182.186967	38.000000	61.000000
182.186967	182.225724	42.000000	66.000000
182.225724	182.264482	45.000000	72.000000
182.264482	183.099522	78.000000	80.000000
182.264482	183.099522	81.000000	80.000000
182.264482	183.073115	86.000000	90.000000
182.264482	182.367224	50.000000	87.000000
182.469967	182.573419	50.000000	68.000000
182.676872	182.781036	50.000000	68.000000
182.879124	182.987553	50.000000	68.000000
182.993896	183.029100	45.000000	61.000000
183.029100	183.064318	49.000000	66.000000
183.064318	183.099522	52.000000	72.000000
183.073115	183.099522	86.000000	76.000000
183.099522	183.940355	76.000000	76.000000
183.099522	183.940355	81.000000	76.000000
183.099522	183.913948	85.000000	90.000000
183.099522	183.205147	57.000000	87.000000
183.310786	183.414239	57.000000	67.000000
183.517692	183.621855	57.000000	67.000000
183.726019	183.834716	57.000000	67.000000
183.834716	183.869933	40.000000	61.000000
183.869933	183.905150	44.000000	66.000000
183.905150	183.940355	47.000000	72.000000
183.913948	183.940355	85.000000	76.000000
183.940355	183.991732	76.000000	76.000000
183.940355	183.991732	80.000000	76.000000
183.940355	183.991732	83.000000	90.000000
183.940355	183.991732	52.000000	87.000000
184.120157	184.145839	85.000000	76.000000
184.145839	184.197565	76.000000	72.000000
184.145839	184.197565	80.000000	72.000000
184.145839	184.197565	83.000000	85.000000
184.145839	184.197565	52.000000	67.000000
184.326874	184.352731	85.000000	76.000000
184.352731	184.404820	76.000000	72.000000
184.352731	184.404820	80.000000	72.000000
184.352731	184.404820	83.000000	85.000000
184.352731	184.404820	52.000000	67.000000
184.535027	184.561072	85.000000	76.000000
184.561072	184.615413	76.000000	72.000000
184.561072	184.615413	80.000000	72.000000
184.561072	184.615413	83.000000	85.000000
184.561072	184.615413	52.000000	67.000000
184.669755	184.704972	45.000000	61.000000
184.704972	184.740190	49.000000	66.000000
184.740190	184.775407	52.000000	72.000000
184.775407	185.409240	69.000000	90.000000
184.775407	185.409240	73.000000	90.000000
184.775407	185.409240	76.000000	90.000000
184.775407	185.409240	81.000000	90.000000
184.775407	184.881046	57.000000	87.000000
184.986685	185.092324	57.000000	67.000000
185.197963	185.303602	57.000000	67.000000
185.409240	185.466935	73.000000	73.000000
185.409240	185.466935	85.000000	87.000000
185.409240	185.524629	57.000000	67.000000
185.524629	185.563092	45.000000	61.000000
185.563092	185.601555	49.000000	66.000000
185.601555	185.640018	52.000000	72.000000
185.640018	186.273851	69.000000	90.000000
185.640018	186.273851	81.000000	90.000000
185.640018	185.745657	57.000000	87.000000
185.851296	185.956934	57.000000	66.000000
186.062573	186.168212	57.000000	66.000000
186.273851	186.332444	73.000000	73.000000
186.273851	186.332444	85.000000	87.000000
186.273851	186.391037	57.000000	66.000000
186.391037	186.430103	45.000000	61.000000
186.430103	186.469170	49.000000	66.000000
186.469170	186.508236	52.000000	72.000000
186.508236	187.142069	69.000000	90.000000
186.508236	187.142069	81.000000	90.000000
186.508236	186.613875	57.000000	87.000000
186.719514	186.825153	57.000000	67.000000
186.930792	187.036430	57.000000	67.000000
187.142069	187.199321	73.000000	73.000000
187.142069	187.199321	85.000000	87.000000
187.142069	187.256573	57.000000	67.000000
187.256573	187.294741	45.000000	61.000000
187.294741	187.332909	49.000000	66.000000
187.332909	187.371076	52.000000	72.000000
187.371076	187.477453	69.000000	82.000000
187.371076	187.477453	81.000000	97.000000
187.371076	187.477453	57.000000	95.000000
187.583829	187.687993	73.000000	78.000000
187.583829	187.687993	85.000000	92.000000
187.583829	187.687993	57.000000	70.000000
187.687993	187.722714	45.000000	67.000000
187.722714	187.757435	49.000000	72.000000
187.757435	187.792157	52.000000	79.000000
187.792157	187.896320	69.000000	83.000000
187.792157	187.896320	81.000000	99.000000
187.792157	187.896320	57.000000	95.000000
188.000484	188.112426	73.000000	79.000000
188.000484	188.112426	85.000000	93.000000
188.000484	188.112426	57.000000	70.000000
188.224368	188.682382	69.000000	90.000000
188.224368	188.682382	81.000000	108.000000
188.224368	188.682382	45.000000	88.000000
188.682382	189.182387	69.000000	82.000000
188.682382	189.182387	73.000000	82.000000
188.682382	189.182387	76.000000	82.000000
188.682382	189.182387	81.000000	97.000000
188.682382	189.182387	57.000000	88.000000
189.182387	189.682391	69.000000	86.000000
189.182387	189.682391	73.000000	86.000000
189.182387	189.682391	76.000000	86.000000
189.182387	189.682391	81.000000	103.000000
189.182387	189.682391	45.000000	74.000000
189.182387	189.682391	49.000000	74.000000
189.182387	189.682391	52.000000	74.000000
189.182387	189.682391	57.000000	88.000000
