OnsetTime	OffsetTime	MidiPitch	Velocity
0.524989	1.54599	69	50
0.526987	1.54899	57	42
1.52099	2.54296	76	50
1.52198	2.54296	64	42
2.52597	3.51297	75	53
2.52698	3.51297	63	44
3.49497	3.69798	76	47
3.49597	3.69898	64	38
3.98497	4.50697	72	49
3.98598	4.50697	60	39
4.35999	4.50998	71	47
4.36098	4.51397	59	39
4.49298	5.46896	69	48
4.49598	5.46896	57	38
5.45996	6.47396	56	56
5.45996	6.47396	64	56
5.46196	6.47396	52	52
5.46196	6.47396	59	56
6.45996	7.71597	60	52
6.46096	7.71597	48	47
7.44696	7.71597	45	39
7.44696	7.71597	57	51
8.45897	9.47396	45	42
8.45897	9.45996	57	50
9.45996	10.4429	57	59
9.46096	10.4429	65	59
9.46195	10.4429	38	45
10.429	11.3569	58	64
10.433	11.358	37	48
10.433	11.3569	67	64
11.358	11.5629	65	54
11.36	11.5659	38	42
11.36	11.5639	57	54
11.8499	12.3609	57	51
11.8509	12.3609	45	44
12.221	12.3719	59	54
12.2219	12.3719	47	45
12.347	13.3449	48	45
12.347	13.3449	60	52
13.3379	14.3479	59	54
13.3379	14.3479	64	54
13.3389	14.3479	52	54
13.3409	14.3479	40	47
13.3409	14.3479	56	54
14.3459	15.4899	48	50
14.3459	15.4899	60	50
14.3469	15.4899	36	45
15.3219	15.5359	45	50
15.3259	15.5369	33	41
15.3259	15.5359	57	50
16.3409	17.3939	38	35
16.3439	17.3939	45	35
16.3449	17.3939	41	35
17.3259	17.4499	33	33
18.3279	19.3539	36	36
18.3289	19.3539	40	36
18.3289	19.3539	45	36
19.3009	19.4209	33	35
19.7879	21.3	57	52
20.2779	21.3	41	36
20.2789	21.3	38	36
20.2789	21.3	45	36
20.7469	21.3	62	46
21.2199	21.71	64	49
21.2239	21.338	33	34
21.692	22.186	65	47
22.167	23.151	64	50
22.172	23.151	36	36
22.175	23.151	40	36
22.176	23.151	45	36
23.092	23.291	57	46
23.0929	23.2919	33	34
23.575	24.0689	67	44
24.051	24.9859	38	37
24.051	24.9859	65	47
24.0519	24.9859	41	37
24.055	24.9859	45	37
24.9509	25.1529	57	48
24.9519	25.1539	33	35
25.4379	25.9199	65	45
25.9029	26.8969	64	50
25.9039	26.8969	36	36
25.9059	26.8969	40	36
25.9059	26.8969	45	36
26.8059	26.9979	57	48
26.8069	27.0019	33	33
27.2849	27.7439	57	56
27.2849	28.7579	69	56
27.7439	28.7579	53	45
27.7439	28.7579	57	45
27.7469	28.7579	50	45
28.2059	28.7579	62	56
28.2089	28.7579	74	56
28.6689	29.1539	76	59
28.6719	28.7789	45	35
28.6719	29.1549	64	59
29.1369	29.6239	65	54
29.1379	29.6239	77	54
29.6059	30.5579	64	59
29.6089	30.5579	48	41
29.6089	30.5579	76	59
29.6099	30.5579	52	41
29.6129	30.5049	57	41
30.5049	30.6969	57	56
30.5059	30.6979	69	56
30.5089	30.6979	45	36
30.9769	32.3739	76	69
30.9779	32.3739	64	69
31.4289	32.3739	47	70
31.4299	32.3739	52	70
31.4299	32.3739	55	70
31.8939	32.3739	67	74
31.8949	32.3739	79	74
32.3429	32.8289	69	79
32.3459	32.8289	81	79
32.3469	32.5139	43	54
32.8119	33.2879	71	77
32.8119	33.2909	83	77
33.2879	34.2609	71	85
33.2909	34.2599	83	85
33.2919	34.2679	42	63
33.2919	34.2649	51	63
33.2919	34.2679	54	71
34.2599	35.2229	83	81
34.2609	35.2229	71	81
34.2639	35.2229	47	54
34.2649	35.2229	51	54
34.2669	35.2229	59	61
35.2089	36.1619	67	63
35.2099	36.1619	55	49
35.2099	36.1619	79	63
35.2119	36.1619	43	49
36.1439	36.3369	52	42
36.1439	36.3359	64	53
36.1439	36.3359	76	53
36.1449	36.3369	40	42
37.1129	38.0829	59	41
37.1139	38.0939	30	26
37.1139	38.0799	71	41
37.1159	38.0939	42	26
37.1169	38.0869	39	26
38.0799	39.0388	71	37
38.0829	39.0388	35	24
38.0829	39.0388	59	37
38.0869	39.0388	39	24
38.0869	39.0388	47	24
39.0278	39.9908	55	37
39.0319	39.9908	31	30
39.0319	39.9908	43	30
39.0319	39.9908	67	37
39.9728	40.1718	52	33
39.9738	40.1728	28	27
39.9738	40.1728	64	33
39.9758	40.1758	40	27
40.9318	41.7958	55	37
40.9318	41.7968	67	37
40.9348	41.9258	40	30
41.7998	41.9258	52	33
41.8008	41.9268	64	33
41.9078	42.0339	41	23
42.0168	42.1458	40	27
42.1219	42.2479	41	25
42.2338	42.3589	40	29
42.3419	42.4719	41	22
42.4539	42.5809	40	27
42.5629	42.6919	41	23
42.6709	43.5249	65	45
42.6749	43.5289	53	45
42.6779	42.7939	40	31
42.7799	42.8989	41	28
42.8809	43.0099	40	31
42.9929	43.1159	41	25
43.0979	43.2249	40	34
43.2069	43.3289	41	30
43.3109	43.4409	40	34
43.4239	43.5459	41	29
43.5289	43.6539	62	40
43.5319	43.6549	40	34
43.5319	43.6549	50	40
43.6369	43.7629	41	28
43.7459	43.8759	40	34
43.8579	43.9829	41	29
43.9689	44.0919	40	34
44.0709	44.2009	41	29
44.1829	44.3159	40	34
44.2979	44.4209	41	30
44.4039	45.2609	64	56
44.4069	44.5299	40	39
44.4069	45.2639	52	56
44.5119	44.6339	41	33
44.6179	44.7399	40	39
44.7219	44.8519	41	33
44.8339	44.9529	40	39
44.9359	45.0579	41	33
45.0439	45.1709	40	40
45.1529	45.2819	41	35
45.2649	45.3909	48	51
45.2649	45.3919	60	51
45.2689	45.3919	40	40
45.3659	45.4999	41	35
45.4819	45.6109	40	41
45.5929	45.7199	41	34
45.7059	45.8319	40	41
45.8139	45.9469	41	36
45.9259	46.059	40	42
46.0419	46.1679	41	37
46.1509	47.039	50	73
46.1509	47.039	62	73
46.154	46.2789	40	47
46.2579	46.388	41	39
46.371	46.497	40	47
46.476	46.605	41	39
46.587	46.714	40	48
46.696	46.83	41	40
46.805	46.941	40	48
46.923	47.064	41	42
47.04	47.18	59	69
47.043	47.18	40	49
47.043	47.18	47	69
47.154	47.295	41	43
47.27	47.41	40	54
47.393	47.525	41	48
47.509	47.648	40	62
47.624	47.764	41	63
47.746	47.896	40	71
47.875	48.072	44	79
48.047	49.084	57	95
48.051	49.084	33	80
48.051	49.084	69	95
48.052	49.084	45	80
49.063	50.081	64	91
49.064	50.081	76	91
49.066	50.081	40	76
49.066	50.081	52	76
50.063	51.012	63	88
50.064	51.013	51	73
50.064	51.012	75	88
50.067	51.013	39	73
51.016	51.264	64	81
51.016	51.264	76	81
51.017	51.267	40	66
51.017	51.267	52	66
51.516	51.88	72	78
51.517	51.88	52	48
51.517	51.862	64	78
51.862	51.95	64	48
51.863	51.953	50	46
51.863	51.95	71	73
51.866	51.953	62	46
51.978	52.339	64	63
51.978	52.339	69	80
51.982	52.339	48	48
51.982	52.339	60	48
52.328	52.415	62	63
52.328	52.416	67	73
52.332	52.417	47	46
52.332	52.416	59	46
52.443	52.814	65	72
52.444	52.814	60	63
52.446	52.814	57	43
52.447	52.814	45	43
52.793	52.874	64	70
52.794	52.875	44	42
52.794	52.875	59	58
52.795	52.877	56	42
52.902	53.27	60	74
52.902	53.27	65	74
52.905	53.27	45	46
52.905	53.27	57	46
53.252	53.336	59	57
53.253	53.34	55	40
53.253	53.336	64	70
53.255	53.34	43	40
53.368	53.756	53	46
53.368	53.756	57	64
53.368	53.756	62	75
53.37	53.756	41	46
53.706	53.798	61	70
53.711	53.799	52	42
53.711	53.799	55	58
53.713	53.799	40	42
53.826	54.183	57	76
53.827	54.183	53	48
53.827	54.183	62	76
53.829	54.183	41	48
54.169	54.253	59	63
54.169	54.257	64	73
54.17	54.26	44	46
54.17	54.257	56	46
54.285	54.648	60	77
54.285	54.648	65	77
54.286	54.648	45	48
54.288	54.648	57	48
54.628	54.711	62	63
54.628	54.715	68	73
54.629	54.715	47	46
54.631	54.715	59	46
54.736	55.103	69	81
54.737	55.079	64	81
54.739	55.103	48	52
54.74	55.103	60	52
55.079	55.166	64	67
55.08	55.167	50	48
55.08	55.166	71	80
55.082	55.17	62	48
55.194	55.323	64	71
55.195	55.324	60	53
55.195	55.324	69	86
55.198	55.327	48	53
55.712	56.741	57	97
55.713	56.746	45	90
56.741	57.76	57	85
56.745	57.76	65	85
56.745	57.76	69	85
56.746	57.76	38	86
56.746	57.747	45	86
57.743	58.695	58	90
57.743	58.694	70	90
57.746	58.698	37	71
57.746	58.698	67	90
57.747	58.95	45	71
58.699	58.951	65	80
58.701	58.953	69	80
58.702	58.954	38	71
58.702	58.954	57	80
59.212	59.566	77	89
59.213	59.566	57	53
59.213	59.558	69	73
59.558	59.646	69	53
59.563	59.65	55	52
59.563	59.651	67	52
59.563	59.647	76	84
59.674	60.042	74	80
59.678	60.042	69	70
59.679	60.042	53	48
59.681	60.042	65	48
60.0239	60.105	67	63
60.025	60.109	52	46
60.025	60.109	72	73
60.0279	60.11	64	46
60.137	60.5009	65	63
60.137	60.5009	70	72
60.138	60.5009	62	43
60.14	60.5009	50	43
60.4819	60.5699	64	58
60.487	60.5709	49	42
60.487	60.5739	61	42
60.487	60.5709	69	70
60.5949	60.9619	70	75
60.5959	60.9619	50	46
60.5959	60.9619	62	46
60.5959	60.9619	65	64
60.9409	61.0219	64	57
60.9419	61.0229	69	70
60.9449	61.0249	48	40
60.9459	61.0249	60	40
61.0539	61.4109	62	74
61.0539	61.4109	67	74
61.0549	61.4109	46	46
61.0569	61.4109	58	46
61.3929	61.4809	60	58
61.3969	61.4849	45	42
61.3969	61.4839	57	42
61.3969	61.4839	66	70
61.5089	61.8689	62	77
61.5119	61.8689	58	47
61.5119	61.8689	67	77
61.5149	61.8689	46	47
61.8439	61.9279	69	73
61.8479	61.9289	64	63
61.8509	61.9289	61	46
61.8519	61.9319	49	46
61.9559	62.3059	65	78
61.9599	62.3059	70	78
61.9609	62.3059	50	48
61.9609	62.3059	62	48
62.2919	62.3839	67	63
62.2959	62.3839	73	73
62.2969	62.3849	64	46
62.2989	62.3849	52	46
62.4049	62.7439	69	70
62.4049	62.7649	74	84
62.4059	62.7649	53	52
62.4079	62.7649	65	52
62.7409	62.8279	76	80
62.7439	62.8289	55	48
62.7439	62.8289	69	67
62.7449	62.8319	67	48
62.8559	62.9779	69	71
62.8569	62.9819	74	86
62.8589	62.9819	53	53
62.8599	62.9829	65	53
63.3569	64.3509	55	86
63.3569	64.3509	58	96
63.3579	64.3329	50	86
63.3599	64.3509	62	96
64.3299	64.5109	38	72
64.3329	64.5119	50	81
65.3309	66.2999	50	85
65.3309	66.3069	53	85
65.3319	66.3069	62	95
65.3339	66.3069	57	95
66.2999	66.4829	38	72
66.2999	66.4779	50	81
66.7829	67.2729	62	83
66.7839	68.2499	74	93
67.2699	68.2499	55	77
67.2729	68.2499	58	86
67.2729	68.2499	62	86
67.2739	68.2179	50	77
67.7379	68.2499	67	80
67.7429	68.2499	79	89
68.2149	68.6969	69	84
68.2159	68.3889	38	62
68.2159	68.6979	81	94
68.2179	68.3899	50	69
68.6799	69.1629	70	80
68.6809	69.1629	82	89
69.1459	70.0549	69	83
69.1469	70.0549	53	73
69.1469	70.0549	81	93
69.1489	70.0419	50	73
69.1489	70.0549	57	82
69.1499	70.0389	62	82
70.0389	70.2309	62	76
70.0409	70.2319	38	66
70.0409	70.2309	74	85
70.0419	70.2339	50	74
70.5069	70.9999	72	87
70.5109	71.0039	84	97
70.9789	71.9139	70	87
70.9799	71.9139	82	97
70.9829	71.8759	50	73
70.9839	71.9139	55	73
70.9839	71.9139	58	82
70.9839	71.8759	62	82
71.8729	72.0649	74	92
71.8759	72.0679	38	66
71.8759	72.0659	50	74
71.8759	72.0659	62	82
72.3409	72.8309	70	87
72.3419	72.8309	82	97
72.8139	73.7309	69	82
72.8139	73.7309	81	92
72.8169	73.7309	53	74
72.8169	73.7309	57	83
72.8169	73.7069	62	83
72.8179	73.7099	50	74
73.7069	73.9019	62	75
73.7099	73.9089	50	73
73.7099	73.9059	74	84
73.7109	73.9099	38	65
74.1779	75.5989	74	97
74.1789	74.6449	62	87
74.6439	75.5719	50	75
74.6439	75.5989	55	75
74.6449	75.5989	62	84
74.6479	75.5989	58	84
75.1129	75.5989	67	81
75.1129	75.5989	79	91
75.5689	76.0409	69	86
75.5709	76.0439	81	96
75.5719	75.7399	38	66
75.5719	75.7399	50	74
76.0229	76.5059	70	83
76.0229	76.5069	82	93
76.4879	77.3879	69	88
76.4889	77.3739	50	75
76.4889	77.3879	81	98
76.4919	77.3879	57	84
76.4929	77.3879	53	75
76.4929	77.3739	62	84
77.3709	77.5629	74	84
77.3739	77.5639	38	66
77.3739	77.5669	50	74
77.3739	77.5639	62	75
77.8359	79.2219	69	84
77.8369	79.2219	81	94
78.2879	79.2219	52	72
78.2879	79.2219	57	81
78.2889	79.2219	60	81
78.2909	79.2059	48	72
78.7459	79.2219	84	95
78.7469	79.2219	72	85
79.2049	79.6729	74	93
79.2059	79.3699	36	63
79.2059	79.3699	48	71
79.2059	79.6739	86	104
79.6529	80.1499	76	90
79.6529	80.1469	88	101
80.1469	81.1159	88	108
80.1499	81.1259	47	74
80.1499	81.1149	76	97
80.1509	81.1199	56	83
80.1509	81.1259	59	83
81.1149	82.0669	76	84
81.1159	82.0669	64	76
81.1159	82.0669	88	94
81.1189	82.0669	52	68
81.1199	82.0669	56	76
82.0499	83.0829	84	96
82.0509	83.0829	48	71
82.0509	83.0829	72	86
82.0519	83.0829	60	79
82.9819	83.1839	81	81
82.9839	83.1879	69	72
82.9849	83.1879	45	65
82.9849	83.1908	57	73
83.9749	84.9768	64	48
83.9759	84.9759	76	48
83.9779	84.9768	44	40
83.9789	84.9858	47	40
83.9819	84.9858	35	40
84.9759	85.9558	76	48
84.9768	85.9558	40	37
84.9768	85.9558	44	37
84.9768	85.9558	64	48
84.9788	85.9558	52	37
85.9419	86.9708	60	45
85.9448	86.9708	72	45
85.9459	86.9708	48	37
85.9488	86.9708	36	37
86.8838	87.0798	57	41
86.8838	87.0828	69	41
86.8848	87.0828	45	37
86.8868	87.0868	33	37
87.8528	88.8128	58	34
87.8538	88.8128	34	31
87.8538	88.8128	70	34
87.8568	88.8128	46	31
88.7708	88.9448	67	25
88.7718	88.9458	31	24
88.7718	88.9458	55	25
88.7728	88.9488	43	24
89.7228	90.6638	58	31
89.7258	90.6638	34	30
89.7258	90.6638	46	30
89.7258	90.6638	70	31
90.6458	90.8168	55	25
90.6458	90.8218	67	25
90.6468	90.8238	31	22
90.6468	90.8248	43	22
91.5948	92.5258	58	31
91.5948	92.5258	70	31
91.5958	92.5258	34	30
91.5958	92.5258	46	30
92.5088	92.6768	55	24
92.5088	92.6798	67	24
92.5118	92.6798	31	23
92.5118	92.6828	43	23
93.4318	94.3398	70	34
93.4358	94.3398	58	34
93.4368	94.3398	34	31
93.4368	94.3398	46	31
94.3358	94.4998	55	29
94.3388	94.5038	31	26
94.3388	94.5038	43	26
94.3388	94.5028	67	29
95.2348	95.4558	35	68
95.2348	95.4558	59	80
95.3438	95.5648	71	76
95.3468	95.5678	47	55
95.4558	95.6758	35	54
95.4558	95.6748	59	72
95.5648	95.7848	71	67
95.5678	95.7878	47	52
95.6748	95.8968	59	63
95.6758	95.8978	35	51
95.7848	96.0078	71	60
95.7878	96.0088	47	49
95.8968	96.1108	59	57
95.8978	96.1128	35	48
96.0078	96.2218	71	54
96.0088	96.2228	47	46
96.1108	96.3308	59	60
96.1128	96.3328	35	49
96.2218	96.4418	71	57
96.2228	96.4458	47	48
96.3308	96.5477	59	55
96.3328	96.5488	35	47
96.4418	96.6617	71	52
96.4458	96.6627	47	45
96.5477	96.7677	59	58
96.5488	96.7687	35	51
96.6617	96.8707	71	56
96.6627	96.8727	47	47
96.7677	96.9837	59	54
96.7687	96.9837	35	44
96.8707	96.9837	71	51
96.8727	96.9837	47	43
96.9817	97.1987	32	64
96.9817	97.1987	56	80
97.0857	97.3077	44	53
97.0857	97.3067	68	75
97.1987	97.4127	32	50
97.1987	97.4117	56	69
97.3067	97.5207	68	65
97.3077	97.5237	44	46
97.4117	97.6317	56	61
97.4127	97.6327	32	57
97.5207	97.7417	68	60
97.5237	97.7437	44	53
97.6317	97.8457	56	59
97.6327	97.8467	32	52
97.7417	97.9577	68	58
97.7437	97.9577	44	51
97.8457	98.0667	56	69
97.8467	98.0697	32	59
97.9577	98.1787	44	54
97.9577	98.1777	68	68
98.0667	98.2827	56	66
98.0697	98.2837	32	53
98.1777	98.3927	68	63
98.1787	98.3947	44	39
98.2827	98.4967	56	73
98.2837	98.5007	32	59
98.3927	98.6057	68	70
98.3947	98.6077	44	58
98.4967	98.7447	56	67
98.5007	98.7447	32	56
98.6057	98.7447	68	64
98.6077	98.7447	44	54
98.7417	99.3996	71	99
98.7417	99.3996	83	99
98.7427	99.3996	59	79
98.7447	99.3996	47	79
99.1897	99.3996	68	90
99.1897	99.3996	80	90
99.1927	99.3996	56	69
99.1937	99.3996	44	69
99.6376	100.359	71	98
99.6386	100.359	83	98
99.6406	100.359	59	79
99.6416	100.359	47	79
100.097	100.359	88	93
100.098	100.359	52	69
100.098	100.359	76	93
100.1	100.359	64	69
100.547	101.307	71	95
100.551	101.307	83	95
100.552	101.307	59	75
100.555	101.307	47	75
101.013	101.307	68	90
101.013	101.307	80	90
101.014	101.307	56	70
101.017	101.307	44	70
101.482	102.42	76	90
101.483	102.42	52	69
101.483	102.42	64	90
101.484	102.42	40	69
101.977	102.42	59	81
101.977	102.42	71	81
101.979	102.42	35	60
101.979	102.42	47	60
102.606	104.555	64	34
102.606	104.555	68	34
102.607	106.466	35	27
102.607	104.555	56	34
102.609	106.467	47	27
104.535	106.467	57	38
104.538	106.467	71	38
104.539	106.467	63	38
106.464	106.67	59	93
106.466	106.672	35	81
106.568	106.778	47	50
106.568	106.775	71	87
106.67	107.303	59	81
106.672	107.307	35	63
106.775	107.402	71	75
106.778	107.404	47	48
106.88	107.089	56	91
106.881	107.09	32	72
106.985	107.192	68	86
106.986	107.195	44	52
107.089	108.234	56	81
107.09	109.893	32	58
107.192	108.126	68	75
107.195	108.129	44	46
107.303	107.507	59	84
107.307	107.507	35	72
107.402	107.611	71	80
107.404	107.612	47	53
107.507	109.89	35	60
107.507	108.64	59	77
107.611	108.539	71	73
107.612	108.542	47	45
107.716	107.919	64	88
107.717	107.92	40	72
107.821	108.025	52	53
107.821	108.024	76	85
107.919	109.047	64	83
107.92	109.893	40	62
108.024	108.947	76	80
108.025	108.948	52	48
108.126	108.332	68	91
108.129	108.333	44	77
108.234	108.437	56	60
108.234	108.434	80	88
108.332	109.887	68	86
108.333	109.893	44	68
108.434	109.893	80	83
108.437	109.89	56	55
108.539	108.742	71	94
108.542	108.745	47	79
108.639	108.841	83	91
108.64	108.843	59	57
108.742	109.365	71	88
108.745	109.366	47	66
108.841	109.473	83	84
108.843	109.477	59	51
108.947	109.149	76	102
108.948	109.151	52	88
109.046	109.253	88	96
109.047	109.256	64	57
109.149	109.893	76	90
109.151	109.893	52	74
109.253	109.893	88	84
109.256	109.887	64	57
109.365	109.591	71	82
109.366	109.592	47	73
109.473	109.712	83	71
109.477	109.714	59	48
109.591	109.893	71	68
109.592	109.89	47	58
109.712	109.893	83	64
109.714	109.893	59	47
109.887	111.822	64	39
109.887	111.822	68	39
109.89	113.737	35	37
109.89	113.736	47	37
109.89	111.822	56	39
111.809	113.737	71	47
111.811	113.737	57	47
111.811	113.737	63	47
113.733	114.761	56	34
113.736	114.763	40	20
113.736	114.763	47	20
113.736	114.761	64	40
114.761	115.787	56	26
114.761	115.791	64	30
114.763	115.791	40	19
114.763	115.791	47	19
115.787	116.269	56	39
115.791	116.273	40	20
115.791	116.273	47	20
115.791	116.752	64	39
116.269	116.738	56	34
116.269	116.752	68	34
116.273	116.742	40	16
116.273	116.742	47	16
116.738	117.228	56	38
116.742	117.231	40	19
116.742	117.231	47	19
116.742	117.749	66	38
117.228	117.749	56	35
117.228	117.749	68	35
117.231	117.728	40	15
117.231	117.749	47	15
117.725	118.712	57	39
117.726	118.716	61	39
117.728	118.716	40	23
117.729	118.716	49	23
118.712	119.7	57	28
118.716	119.703	40	17
118.716	119.702	49	17
118.716	119.699	61	28
119.699	120.686	61	38
119.7	120.182	57	38
119.702	120.667	49	20
119.703	120.187	40	20
120.18	120.666	59	31
120.182	120.666	57	31
120.186	120.686	51	15
120.186	120.686	66	31
120.187	120.666	40	15
120.662	121.655	64	37
120.666	121.145	40	19
120.666	121.142	57	37
120.666	121.142	59	37
120.667	121.655	49	19
121.141	121.655	66	29
121.142	121.655	57	29
121.142	121.645	59	29
121.145	121.649	40	15
121.145	121.655	51	15
121.645	123.623	59	36
121.646	122.632	56	36
121.648	123.623	52	23
121.649	122.635	40	23
122.632	123.615	56	24
122.633	123.622	47	17
122.633	123.62	64	29
122.635	123.623	40	17
123.615	124.099	56	46
123.62	124.599	64	46
123.622	124.102	47	23
123.623	124.102	40	23
124.099	124.582	56	38
124.099	124.599	68	38
124.102	124.582	40	18
124.102	124.585	47	18
124.581	125.544	66	46
124.582	125.061	40	24
124.582	125.058	56	46
124.585	125.059	47	24
125.058	125.544	56	39
125.058	125.544	68	39
125.059	125.544	47	18
125.061	125.526	40	18
125.52	126.51	57	46
125.523	126.511	64	46
125.524	126.513	49	25
125.524	126.511	69	46
125.526	126.514	40	25
126.51	127.501	57	38
126.511	127.501	64	38
126.511	127.493	69	38
126.513	127.501	49	19
126.514	127.5	40	19
127.493	128.457	69	51
127.498	128.453	61	51
127.498	128.457	73	51
127.5	129.432	40	30
127.501	129.432	49	36
127.984	129.43	52	33
128.453	128.944	61	50
128.457	129.432	57	37
128.457	129.432	69	50
128.457	129.432	73	50
128.944	129.432	61	39
129.425	130.41	64	34
129.426	130.409	68	34
129.429	130.412	76	40
129.43	130.413	52	26
129.43	130.413	59	26
130.409	131.39	68	26
130.41	131.39	64	26
130.412	131.39	76	31
130.413	131.389	52	20
130.413	131.39	59	20
131.385	132.338	63	38
131.386	131.858	69	38
131.386	132.355	78	38
131.389	131.859	52	22
131.39	131.859	59	22
131.856	132.337	66	31
131.858	132.355	69	31
131.858	132.355	75	31
131.859	132.341	52	18
131.859	132.355	59	18
132.337	133.301	66	36
132.338	133.301	63	20
132.338	133.301	71	36
132.341	132.804	52	20
132.8	133.283	64	31
132.803	133.301	69	31
132.804	133.287	52	18
132.807	133.301	61	18
133.283	134.253	64	29
133.283	134.253	68	35
133.287	134.256	52	24
133.287	134.256	59	24
134.253	135.229	64	19
134.253	135.229	68	23
134.256	135.226	52	15
134.256	135.227	59	15
135.221	136.171	63	37
135.226	135.698	52	22
135.226	135.695	69	37
135.226	136.188	78	37
135.227	135.698	59	22
135.694	136.188	75	30
135.695	136.17	66	30
135.695	136.188	69	30
135.698	136.171	52	17
135.698	136.188	59	17
136.17	137.126	66	35
136.17	137.126	71	35
136.171	136.642	52	20
136.171	137.126	63	20
136.639	137.115	64	30
136.64	137.126	61	18
136.64	137.126	69	30
136.642	137.116	52	18
137.115	138.092	64	29
137.115	138.092	68	35
137.116	138.093	52	24
137.119	138.093	59	29
138.092	139.072	64	19
138.092	139.075	68	23
138.093	139.073	52	15
138.093	139.075	59	15
139.072	140.052	56	25
139.072	139.547	64	35
139.073	139.551	52	25
139.547	140.034	64	26
139.548	140.052	59	23
139.548	140.052	68	31
139.551	140.038	52	23
140.034	140.513	64	29
140.034	141.039	66	35
140.038	140.514	52	25
140.038	141.039	57	25
140.511	141.039	68	33
140.513	141.021	64	27
140.514	141.022	52	24
140.514	141.039	59	24
141.021	142.001	64	28
141.021	142.334	71	34
141.022	142.005	52	25
141.025	142.006	61	25
142.001	142.334	64	18
142.005	142.334	52	15
142.005	142.334	70	24
142.006	142.334	61	15
142.96	144.21	83	44
142.96	143.909	88	44
142.964	143.912	64	22
142.964	143.912	72	22
142.964	143.909	76	44
143.905	144.332	81	27
143.909	144.333	76	27
143.909	144.333	88	27
143.912	144.335	64	8
143.912	144.336	72	9
144.829	146.114	69	34
144.83	145.779	59	25
144.83	145.778	64	34
144.833	145.779	52	25
145.778	146.215	64	24
145.779	146.222	52	9
145.779	146.219	59	11
145.779	146.219	68	24
146.74	147.718	88	42
146.741	148.046	81	42
146.744	147.72	64	22
146.744	147.713	76	42
146.745	147.718	71	22
147.713	148.161	76	26
147.717	148.161	79	26
147.718	148.165	71	11
147.718	148.165	88	26
147.72	148.165	64	11
148.69	149.663	64	88
148.691	149.666	60	70
148.693	149.667	54	70
148.694	149.67	45	62
148.694	149.67	66	88
148.697	149.671	33	62
149.663	150.146	64	69
149.666	150.146	60	55
149.667	150.146	54	55
149.67	150.146	45	45
149.67	150.146	66	69
149.671	150.146	33	45
150.636	151.105	76	46
150.637	151.123	73	46
150.637	151.123	78	55
150.639	151.109	64	39
150.639	151.123	66	39
150.64	151.123	57	39
151.105	151.591	71	37
151.105	151.575	76	37
151.106	151.591	80	46
151.109	151.591	59	34
151.109	151.578	64	34
151.109	151.591	68	34
151.574	152.05	69	42
151.575	152.036	76	42
151.577	152.05	81	50
151.578	152.05	61	37
151.578	152.037	64	37
152.036	152.516	71	37
152.036	152.516	76	37
152.037	152.519	64	36
152.037	152.518	80	46
152.039	152.519	59	36
152.039	152.519	68	36
152.522	153.81	76	50
152.523	153.484	71	50
152.523	153.485	83	50
152.526	153.488	59	36
152.526	153.489	66	36
152.526	153.489	69	36
153.484	153.926	71	26
153.485	153.929	75	33
153.485	153.927	83	26
153.488	153.929	59	17
153.489	153.93	66	17
153.489	153.93	69	17
154.454	155.399	64	30
154.455	155.403	59	27
154.455	155.402	68	37
154.458	155.403	52	27
155.399	155.875	64	23
155.402	155.875	68	23
155.403	155.875	52	23
155.403	155.875	59	16
156.365	157.325	54	72
156.366	157.325	64	91
156.366	157.327	66	91
156.368	157.321	60	72
156.369	157.328	33	67
156.369	157.328	45	67
157.321	157.786	60	52
157.325	157.786	54	52
157.325	157.786	64	67
157.327	157.786	66	67
157.328	157.786	33	49
157.328	157.786	45	49
158.256	158.731	73	46
158.259	158.731	66	39
158.259	158.725	76	46
158.259	158.731	78	55
158.262	158.725	64	39
158.263	158.731	57	39
158.722	159.215	80	49
158.724	159.215	71	41
158.725	159.195	64	36
158.725	159.194	76	41
158.728	159.215	68	36
158.729	159.215	59	36
159.191	159.666	81	53
159.194	159.658	76	44
159.195	159.662	64	39
159.195	159.666	69	44
159.197	159.666	61	39
159.655	160.153	71	39
159.658	160.153	76	39
159.659	160.156	59	36
159.659	160.167	68	36
159.659	160.167	80	47
159.662	160.167	64	36
160.149	161.118	83	50
160.153	161.119	71	42
160.153	161.409	76	50
160.154	161.122	66	36
160.154	161.122	69	36
160.156	161.122	59	36
161.118	161.563	75	33
161.118	161.567	83	27
161.119	161.569	71	26
161.122	161.57	59	17
161.122	161.571	66	17
161.122	161.57	69	17
162.095	163.068	52	103
162.095	163.068	64	103
162.096	163.072	40	84
163.068	163.515	52	47
163.068	163.516	64	66
163.072	163.516	40	52
164.045	164.521	56	36
164.045	165.007	59	36
164.046	164.523	40	22
164.048	164.521	47	22
164.52	165.007	68	30
164.521	164.994	47	17
164.521	164.989	56	30
164.523	164.993	40	17
164.989	165.454	56	37
164.99	165.976	66	37
164.993	165.459	40	20
164.994	165.459	47	20
165.454	165.976	56	30
165.458	165.959	68	30
165.459	165.963	40	16
165.459	165.976	47	16
165.959	166.971	68	39
165.962	166.884	60	24
165.962	166.971	71	39
165.963	166.886	40	16
165.966	166.886	48	16
166.883	167.121	66	23
166.884	167.124	60	22
166.884	167.125	69	23
166.886	167.125	40	8
166.886	167.125	48	8
167.835	168.92	68	39
167.836	168.92	71	39
167.838	168.774	40	23
167.838	168.769	59	29
167.839	168.774	51	23
168.769	169.015	59	19
168.77	169.015	66	23
168.773	169.016	69	23
168.774	169.018	40	9
168.774	169.016	51	9
169.746	170.698	76	103
169.747	170.699	40	82
169.747	170.699	64	103
169.75	170.701	52	82
170.698	171.185	76	68
170.699	171.185	40	44
170.699	171.185	64	60
170.701	171.185	52	44
171.671	172.637	59	38
171.674	172.147	56	38
171.675	172.151	40	25
171.675	172.152	47	25
172.147	172.62	56	31
172.151	172.623	40	18
172.151	172.637	68	31
172.152	172.62	47	18
172.62	173.085	47	25
172.62	173.081	56	38
172.62	173.606	66	38
172.623	173.085	40	25
173.081	173.606	56	31
173.082	173.606	68	31
173.085	173.593	40	17
173.085	173.606	47	17
173.589	174.492	61	37
173.589	174.496	69	44
173.589	174.572	73	44
173.592	174.572	45	24
173.593	174.497	40	24
174.492	174.73	61	23
174.496	174.734	66	26
174.496	174.735	69	26
174.497	174.735	40	13
174.499	174.737	49	18
175.434	176.361	68	41
175.434	176.361	71	41
175.435	176.341	59	35
175.437	176.343	40	25
175.437	176.361	47	25
176.34	176.571	66	29
176.341	176.572	59	27
176.341	176.574	69	29
176.343	176.575	40	16
176.343	176.578	51	22
177.26	178.157	64	35
177.264	178.157	59	35
177.264	178.191	69	41
177.265	178.161	52	25
177.267	178.16	40	25
178.156	178.377	67	29
178.157	178.377	59	26
178.157	178.381	64	26
178.16	178.381	40	5
178.161	178.382	52	14
179.039	179.938	57	36
179.039	179.994	67	42
179.042	179.942	45	25
179.042	179.943	48	25
179.042	179.938	60	36
179.938	180.156	57	27
179.938	180.155	60	26
179.942	180.156	45	14
179.942	180.156	65	29
179.943	180.158	48	14
180.816	181.712	55	36
180.817	181.713	48	25
180.817	181.71	60	36
180.817	181.751	65	42
181.71	181.937	60	26
181.71	181.937	64	29
181.712	181.938	55	26
181.713	181.94	48	16
182.612	183.536	64	42
182.616	183.512	57	36
182.619	183.515	38	25
182.619	183.513	50	25
182.619	183.513	53	36
183.508	183.735	62	29
183.512	183.736	57	25
183.513	183.74	50	15
183.513	183.736	53	25
183.515	183.74	38	15
184.407	185.346	52	35
184.408	185.346	57	35
184.408	185.367	62	41
184.411	185.346	40	24
184.412	185.367	45	24
185.342	185.587	60	29
185.346	185.591	40	14
185.346	186.336	52	39
185.346	185.588	57	24
186.311	187.26	51	37
187.242	187.481	52	35
190.102	191.079	59	41
190.106	191.082	40	19
190.106	191.097	47	33
190.106	191.097	57	29
191.079	191.52	56	29
191.079	191.519	59	29
191.082	191.52	40	12
191.082	192.052	52	39
192.038	192.99	51	37
192.965	193.21	52	35
195.891	196.913	57	42
195.891	196.913	69	50
196.889	197.911	64	42
196.889	197.911	76	50
197.886	198.881	75	53
197.89	198.881	63	44
198.863	199.066	64	38
198.863	199.066	76	47
199.353	199.868	72	49
199.354	199.868	60	39
199.727	199.875	71	47
199.728	199.875	59	39
199.853	200.813	69	48
199.857	200.813	57	38
200.802	201.824	56	59
200.806	201.824	52	52
200.806	201.824	59	59
200.806	201.824	64	59
201.811	203.066	60	52
201.814	203.066	48	47
202.79	203.066	45	39
202.79	203.066	57	51
203.802	204.803	57	50
203.805	204.823	45	42
204.803	205.796	57	63
204.805	205.796	65	63
204.806	205.796	38	45
205.782	206.7	58	70
205.783	206.701	37	50
205.783	206.7	67	70
206.703	206.91	38	42
206.703	206.909	57	54
206.703	206.91	65	54
207.2	207.703	57	51
207.201	207.703	45	44
207.571	207.718	47	45
207.571	207.718	59	54
207.7	208.681	60	52
207.701	208.681	48	45
208.674	209.688	52	62
208.677	209.688	56	62
208.677	209.688	59	62
208.677	209.688	64	62
208.681	209.688	40	52
209.678	210.822	48	50
209.678	210.822	60	50
209.679	210.822	36	45
210.662	210.868	45	50
210.665	210.872	33	41
210.665	210.868	57	50
211.68	212.726	38	35
211.681	212.726	41	35
211.684	212.726	45	35
212.665	212.782	33	33
213.668	214.69	36	36
213.669	214.69	40	36
213.669	214.69	45	36
214.634	214.75	33	35
215.128	216.622	57	52
215.603	216.622	38	36
215.607	216.622	41	36
215.608	216.622	45	36
216.076	216.622	62	46
216.542	217.032	64	49
216.546	216.66	33	34
217.014	217.514	65	47
217.49	218.477	64	50
217.491	218.477	36	36
217.493	218.477	40	36
217.494	218.477	45	36
218.418	218.617	57	46
218.421	218.621	33	34
218.904	219.393	67	47
219.379	220.318	65	47
219.38	220.318	38	37
219.38	220.318	41	37
219.381	220.318	45	37
220.283	220.482	33	35
220.283	220.479	57	48
220.769	221.253	65	45
221.235	222.229	64	50
221.239	222.229	36	36
221.239	222.229	40	36
221.24	222.229	45	36
222.141	222.334	33	33
222.141	222.334	57	48
222.618	223.08	57	56
222.618	224.091	69	56
223.077	224.091	50	51
223.079	224.091	53	51
223.08	224.091	57	51
223.542	224.091	62	57
223.542	224.091	74	57
223.996	224.48	64	60
223.997	224.112	45	35
223.997	224.48	76	60
224.466	224.952	65	56
224.466	224.953	77	56
224.938	225.882	64	60
224.939	225.882	76	60
224.941	225.882	48	41
224.942	225.882	52	41
224.946	225.839	57	41
225.839	226.023	57	56
225.841	226.027	45	36
225.841	226.026	69	56
226.303	227.703	64	68
226.306	227.703	76	68
226.755	227.703	47	57
226.758	227.703	52	57
226.759	227.703	55	57
227.213	227.703	67	74
227.217	227.703	79	74
227.671	228.148	69	77
227.672	227.839	43	54
227.672	228.148	81	77
228.127	228.61	71	73
228.127	228.613	83	73
228.61	229.582	71	85
228.613	229.583	83	85
228.614	229.589	42	59
228.614	229.587	51	59
228.614	229.589	54	66
229.582	230.545	71	71
229.583	230.545	83	71
229.586	230.545	47	49
229.587	230.545	51	49
229.587	230.545	59	55
230.527	231.479	67	57
230.528	231.479	79	57
230.531	231.479	43	49
230.532	231.479	55	49
231.463	231.662	64	53
231.463	231.662	76	53
231.465	231.665	40	42
231.466	231.665	52	42
232.431	233.404	59	41
232.432	233.405	71	41
232.435	233.415	30	26
232.436	233.406	39	26
232.438	233.415	42	26
233.404	234.363	59	37
233.405	234.363	35	24
233.405	234.363	71	37
233.406	234.363	39	24
233.408	234.363	47	24
234.35	235.312	55	37
234.35	235.312	67	37
234.353	235.312	31	30
234.354	235.312	43	30
235.295	235.491	52	33
235.295	235.494	64	33
235.298	235.494	28	27
235.298	235.498	40	27
236.261	237.247	40	30
236.261	237.118	55	37
236.261	237.119	67	37
237.119	237.227	52	33
237.122	237.23	64	33
237.23	237.356	41	30
237.338	237.465	40	26
237.451	237.573	41	30
237.552	237.678	40	24
237.664	237.79	41	30
237.773	237.903	40	25
237.884	238.01	41	30
237.993	238.847	65	48
237.994	238.847	53	48
237.997	238.116	40	31
238.098	238.228	41	28
238.21	238.332	40	31
238.315	238.434	41	31
238.424	238.547	40	34
238.529	238.651	41	30
238.633	238.763	40	34
238.742	238.872	41	29
238.851	238.959	50	43
238.851	238.96	62	43
238.854	238.976	40	34
238.96	239.085	41	28
239.068	239.198	40	34
239.18	239.309	41	29
239.288	239.414	40	34
239.4	239.526	41	29
239.505	239.638	40	34
239.62	239.747	41	30
239.729	240.584	52	58
239.729	240.583	64	58
239.733	239.851	40	39
239.834	239.956	41	33
239.939	240.062	40	39
240.044	240.17	41	33
240.153	240.275	40	39
240.261	240.387	41	33
240.363	240.492	40	40
240.475	240.6	41	35
240.586	240.695	48	50
240.587	240.713	40	40
240.587	240.695	60	50
240.696	240.822	41	35
240.804	240.933	40	41
240.915	241.042	41	34
241.024	241.151	40	41
241.136	241.269	41	36
241.251	241.381	40	42
241.36	241.489	41	37
241.473	242.361	50	73
241.473	242.361	62	73
241.474	241.598	40	47
241.58	241.71	41	39
241.693	241.818	40	47
241.805	241.93	41	39
241.913	242.032	40	48
242.018	242.151	41	40
242.127	242.267	40	48
242.242	242.382	41	42
242.361	242.481	47	67
242.365	242.501	40	49
242.365	242.484	59	67
242.484	242.617	41	43
242.592	242.732	40	54
242.715	242.847	41	48
242.83	242.97	40	62
242.946	243.093	41	63
243.068	243.225	40	71
243.194	243.394	44	79
243.369	244.406	57	98
243.369	244.406	69	98
243.373	244.406	33	78
243.373	244.406	45	78
244.392	245.402	64	88
244.393	245.402	40	75
244.393	245.402	76	88
244.395	245.402	52	75
245.385	246.338	63	84
245.386	246.34	39	72
245.386	246.338	75	84
245.387	246.341	51	72
246.341	246.586	76	77
246.345	246.589	40	67
246.345	246.586	64	77
246.346	246.589	52	67
246.834	247.202	72	80
246.838	247.202	52	48
246.839	247.184	64	67
247.184	247.265	64	48
247.188	247.268	71	73
247.189	247.268	50	46
247.189	247.268	62	46
247.292	247.653	64	63
247.296	247.653	69	80
247.297	247.653	48	48
247.3	247.653	60	48
247.643	247.73	62	63
247.647	247.731	47	46
247.647	247.733	59	46
247.647	247.731	67	73
247.758	248.126	60	63
247.761	248.126	65	72
247.762	248.126	45	43
247.762	248.126	57	43
248.101	248.189	59	58
248.102	248.19	64	70
248.105	248.19	44	42
248.105	248.192	56	42
248.217	248.577	60	64
248.22	248.577	45	46
248.22	248.577	57	46
248.22	248.577	65	75
248.56	248.647	59	57
248.56	248.648	64	70
248.561	248.65	43	40
248.563	248.651	55	40
248.675	249.06	57	64
248.676	249.06	62	75
248.678	249.06	41	46
248.679	249.06	53	46
249.019	249.099	55	58
249.022	249.102	40	42
249.022	249.103	52	42
249.022	249.102	61	70
249.13	249.487	57	78
249.131	249.487	41	48
249.131	249.487	53	48
249.131	249.487	62	78
249.473	249.558	59	63
249.473	249.558	64	73
249.474	249.561	44	46
249.474	249.561	56	46
249.589	249.945	45	48
249.589	249.945	60	78
249.589	249.945	65	78
249.592	249.945	57	48
249.929	250.012	62	63
249.932	250.013	47	46
249.932	250.013	68	73
249.935	250.014	59	46
250.04	250.376	64	70
250.041	250.394	48	52
250.041	250.394	69	84
250.044	250.394	60	52
250.376	250.464	64	67
250.38	250.464	71	80
250.381	250.465	50	48
250.381	250.467	62	48
250.488	250.621	64	71
250.488	250.622	69	86
250.489	250.624	48	53
250.489	250.625	60	53
251.009	252.028	57	97
251.01	252.033	45	90
252.028	253.019	57	85
252.029	253.019	65	85
252.032	253.019	38	86
252.032	253.019	69	85
252.033	253.012	45	86
253.006	253.953	67	90
253.008	253.954	58	90
253.009	253.957	37	71
253.009	253.954	70	90
253.012	254.208	45	71
253.958	254.209	57	80
253.958	254.212	69	80
253.96	254.213	65	80
253.961	254.213	38	71
254.464	254.816	77	89
254.465	254.816	57	53
254.465	254.811	69	73
254.811	254.898	69	53
254.811	254.902	76	84
254.815	254.903	55	52
254.815	254.903	67	52
254.923	255.287	69	70
254.924	255.287	74	80
254.926	255.287	53	48
254.927	255.287	65	48
255.273	255.35	67	63
255.274	255.354	52	46
255.274	255.357	64	46
255.274	255.353	72	73
255.378	255.739	65	63
255.381	255.739	70	72
255.385	255.739	50	43
255.385	255.739	62	43
255.725	255.808	64	58
255.725	255.811	69	70
255.726	255.812	49	42
255.728	255.816	61	42
255.839	256.2	65	73
255.84	256.2	50	46
255.84	256.2	70	73
255.843	256.2	62	46
256.182	256.263	64	57
256.183	256.264	69	70
256.186	256.264	48	40
256.187	256.267	60	40
256.295	256.648	62	72
256.295	256.648	67	72
256.296	256.648	46	46
256.296	256.648	58	46
256.631	256.715	60	58
256.631	256.715	66	70
256.632	256.719	45	42
256.634	256.719	57	42
256.74	257.106	46	48
256.74	257.106	62	76
256.74	257.106	67	76
256.743	257.106	58	48
257.083	257.171	49	46
257.083	257.17	64	63
257.083	257.171	69	73
257.085	257.171	61	46
257.191	257.541	65	77
257.192	257.541	70	77
257.194	257.541	50	48
257.195	257.541	62	48
257.53	257.611	67	63
257.531	257.612	52	46
257.531	257.614	64	46
257.531	257.611	73	73
257.639	257.975	69	79
257.639	258.0	74	79
257.642	258.0	53	52
257.642	258.0	65	52
257.975	258.059	69	67
257.975	258.059	76	80
257.979	258.059	55	48
257.979	258.062	67	48
258.086	258.213	69	71
258.087	258.216	53	53
258.087	258.214	74	86
258.09	258.216	65	53
258.591	259.56	50	88
258.591	259.578	55	88
258.594	259.578	58	98
258.594	259.578	62	98
259.56	259.745	38	72
259.56	259.746	50	81
260.558	261.518	50	87
260.561	261.524	53	87
260.561	261.524	57	97
260.565	261.524	62	97
261.517	261.698	38	72
261.518	261.699	50	81
262.003	262.486	62	83
262.004	263.449	74	93
262.483	263.417	50	75
262.484	263.449	55	75
262.484	263.449	58	84
262.486	263.449	62	84
262.949	263.449	67	80
262.949	263.449	79	89
263.414	263.897	69	84
263.415	263.582	38	62
263.415	263.897	81	94
263.417	263.586	50	69
263.88	264.366	70	81
263.88	264.369	82	91
264.348	265.265	69	83
264.349	265.265	81	93
264.352	265.248	50	73
264.353	265.265	53	73
264.355	265.265	57	82
264.355	265.245	62	82
265.245	265.434	62	76
265.246	265.437	74	85
265.247	265.437	38	66
265.248	265.441	50	74
265.713	266.206	72	87
265.713	266.207	84	97
266.19	267.121	70	87
266.193	267.089	50	73
266.193	267.121	82	97
266.194	267.121	55	73
266.197	267.121	58	82
266.197	267.086	62	82
267.086	267.274	62	82
267.086	267.275	74	92
267.087	267.278	38	66
267.089	267.279	50	74
267.554	268.041	70	87
267.555	268.041	82	97
268.024	268.933	69	82
268.027	268.933	81	92
268.028	268.924	50	74
268.028	268.933	53	74
268.031	268.933	57	83
268.031	268.919	62	83
268.919	269.108	62	75
268.92	269.109	74	84
268.923	269.112	38	65
268.924	269.112	50	73
269.389	269.851	62	87
269.389	270.806	74	97
269.848	270.779	50	75
269.85	270.806	55	75
269.851	270.806	58	84
269.851	270.806	62	84
270.323	270.806	67	82
270.323	270.806	79	92
270.775	271.25	69	87
270.775	271.25	81	97
270.778	270.943	38	66
270.779	270.943	50	74
271.229	271.715	70	82
271.229	271.719	82	92
271.691	272.598	69	89
271.695	272.585	50	75
271.695	272.598	81	99
271.699	272.598	53	75
271.699	272.598	57	84
271.699	272.582	62	84
272.582	272.766	62	75
272.584	272.77	38	66
272.584	272.769	74	84
272.585	272.77	50	74
273.042	274.432	69	85
273.043	274.432	81	95
273.497	274.418	48	72
273.501	274.432	52	72
273.502	274.432	57	81
273.502	274.432	60	81
273.953	274.432	72	82
273.953	274.432	84	92
274.415	274.884	74	91
274.415	274.887	86	102
274.418	274.579	36	63
274.418	274.579	48	71
274.863	275.36	76	94
274.866	275.359	88	105
275.359	276.326	88	107
275.36	276.336	47	76
275.36	276.325	76	96
275.363	276.329	56	85
275.363	276.336	59	85
276.325	277.285	76	84
276.326	277.285	64	85
276.326	277.285	88	94
276.329	277.285	52	76
276.329	277.285	56	85
277.274	278.299	84	89
277.275	278.299	48	73
277.275	278.299	72	80
277.276	278.299	60	82
278.198	278.401	81	81
278.202	278.408	45	65
278.202	278.408	57	73
278.202	278.405	69	72
279.191	280.189	64	48
279.192	280.193	76	48
279.196	280.203	35	40
279.196	280.197	44	40
279.199	280.203	47	40
280.189	281.174	64	48
280.193	281.174	76	48
280.194	281.174	40	37
280.197	281.174	44	37
280.197	281.174	52	37
281.159	282.188	60	45
281.163	282.188	36	37
281.163	282.188	72	45
281.166	282.188	48	37
282.101	282.283	57	41
282.102	282.284	69	41
282.104	282.284	33	37
282.104	282.286	45	37
283.062	284.022	58	34
283.067	284.022	34	31
283.067	284.022	70	34
283.07	284.022	46	31
283.98	284.155	55	25
283.984	284.159	31	24
283.984	284.162	43	24
283.984	284.159	67	25
284.922	285.863	58	31
284.925	285.863	34	30
284.925	285.863	70	31
284.926	285.863	46	30
285.839	286.013	55	25
285.84	286.017	67	25
285.842	286.018	31	22
285.843	286.018	43	22
286.773	287.707	58	31
286.776	287.707	70	31
286.777	287.707	34	30
286.78	287.707	46	30
287.691	287.862	55	24
287.691	287.862	67	24
287.693	287.863	31	23
287.694	287.865	43	23
288.615	289.507	58	34
288.615	289.507	70	34
288.618	289.507	34	31
288.618	289.507	46	31
289.501	289.667	55	29
289.503	289.668	67	29
289.504	289.668	31	26
289.504	289.668	43	26
290.396	290.62	59	80
290.397	290.621	35	72
290.511	290.732	47	31
290.511	290.732	71	76
290.62	290.84	59	72
290.621	290.841	35	42
290.732	290.946	47	30
290.732	290.945	71	67
290.84	291.055	59	63
290.841	291.057	35	46
290.945	291.166	71	60
290.946	291.166	47	33
291.055	291.277	59	57
291.057	291.278	35	44
291.166	291.38	47	31
291.166	291.38	71	54
291.277	291.491	59	60
291.278	291.491	35	45
291.38	291.603	47	33
291.38	291.6	71	57
291.491	291.706	35	44
291.491	291.706	59	55
291.6	291.817	71	52
291.603	291.817	47	31
291.706	291.922	35	51
291.706	291.919	59	58
291.817	292.034	47	37
291.817	292.03	71	56
291.919	292.142	59	54
291.922	292.142	35	47
292.03	292.142	71	51
292.034	292.142	47	33
292.14	292.35	56	80
292.142	292.352	32	74
292.244	292.461	68	75
292.247	292.461	44	37
292.35	292.563	56	69
292.352	292.566	32	47
292.461	292.678	44	37
292.461	292.675	68	65
292.563	292.784	56	61
292.566	292.786	32	52
292.675	292.895	68	60
292.678	292.895	44	39
292.784	293.001	56	59
292.786	293.001	32	49
292.895	293.106	44	38
292.895	293.105	68	58
293.001	293.222	32	55
293.001	293.221	56	69
293.105	293.325	68	68
293.106	293.326	44	39
293.221	293.435	56	66
293.222	293.437	32	51
293.325	293.539	68	63
293.326	293.543	44	39
293.435	293.651	56	73
293.437	293.652	32	66
293.539	293.766	68	70
293.543	293.767	44	52
293.651	293.899	56	67
293.652	293.899	32	57
293.766	293.899	68	64
293.767	293.899	44	46
293.895	294.546	71	99
293.896	294.546	47	79
293.896	294.546	83	99
293.897	294.546	59	79
294.344	294.546	68	90
294.345	294.546	44	69
294.345	294.546	80	90
294.347	294.546	56	69
294.791	295.505	83	96
294.792	295.505	71	96
294.795	295.505	47	79
294.796	295.505	59	79
295.243	295.505	88	90
295.244	295.505	64	69
295.244	295.505	76	90
295.247	295.505	52	69
295.702	296.457	71	89
295.702	296.457	83	89
295.705	296.457	47	70
295.705	296.457	59	70
296.164	296.457	80	82
296.168	296.457	44	63
296.168	296.457	56	63
296.168	296.457	68	82
296.633	297.515	64	65
296.633	297.515	76	65
296.634	297.515	40	54
296.634	297.515	52	54
297.123	297.515	59	53
297.123	297.515	71	53
297.126	297.515	47	44
297.127	297.515	35	44
297.676	299.622	56	34
297.676	299.622	64	34
297.68	301.534	35	27
297.68	301.534	47	27
297.68	299.622	68	34
299.601	301.534	63	38
299.605	301.534	57	38
299.605	301.534	71	38
301.533	301.737	59	93
301.534	301.739	35	81
301.631	301.841	71	87
301.632	301.842	47	38
301.737	302.369	59	81
301.739	302.37	35	58
301.841	302.474	71	75
301.842	302.475	47	38
301.953	302.163	32	72
301.953	302.16	56	91
302.055	302.265	68	86
302.058	302.266	44	38
302.16	303.3	56	81
302.163	304.959	32	57
302.265	303.196	68	75
302.266	303.196	44	38
302.369	302.579	59	84
302.37	302.58	35	72
302.474	302.681	71	80
302.475	302.684	47	40
302.579	303.706	59	77
302.58	304.957	35	60
302.681	303.605	71	73
302.684	303.606	47	41
302.782	302.992	40	72
302.782	302.989	64	88
302.887	303.095	76	85
302.888	303.097	52	45
302.989	304.112	64	83
302.992	304.959	40	61
303.095	304.012	76	80
303.097	304.013	52	45
303.196	303.405	44	77
303.196	303.403	68	91
303.297	303.504	80	88
303.3	303.504	56	49
303.403	304.956	68	86
303.405	304.959	44	66
303.504	304.953	56	51
303.504	304.959	80	83
303.605	303.808	71	94
303.606	303.811	47	79
303.704	303.913	83	91
303.706	303.914	59	53
303.808	304.431	71	88
303.811	304.432	47	72
303.913	304.547	83	84
303.914	304.548	59	55
304.012	304.215	76	102
304.013	304.218	52	88
304.11	304.32	88	96
304.112	304.321	64	57
304.215	304.959	76	90
304.218	304.959	52	74
304.32	304.959	88	84
304.321	304.953	64	57
304.431	304.663	71	82
304.432	304.665	47	73
304.547	304.778	83	71
304.548	304.781	59	48
304.663	304.959	71	68
304.665	304.957	47	58
304.778	304.959	83	64
304.781	304.959	59	47
304.953	306.894	56	35
304.953	306.894	64	35
304.956	306.894	68	35
304.957	308.81	35	28
304.957	308.806	47	28
306.881	308.81	57	36
306.881	308.81	63	36
306.882	308.81	71	43
308.805	309.831	56	34
308.806	309.836	47	20
308.806	309.832	64	40
308.809	309.835	40	20
309.831	310.86	56	23
309.832	310.86	64	27
309.835	310.864	40	17
309.836	310.861	47	17
310.86	311.343	56	39
310.86	311.823	64	39
310.861	311.344	47	20
310.864	311.345	40	20
311.343	311.812	56	34
311.344	311.816	47	16
311.344	311.823	68	34
311.345	311.813	40	16
311.812	312.302	56	38
311.813	312.303	40	19
311.813	312.819	66	38
311.816	312.303	47	19
312.302	312.819	56	35
312.302	312.819	68	35
312.303	312.802	40	15
312.303	312.819	47	15
312.798	313.785	57	39
312.799	313.786	61	39
312.802	313.786	40	23
312.802	313.786	49	23
313.785	314.769	57	25
313.786	314.773	40	15
313.786	314.776	49	15
313.786	314.772	61	25
314.769	315.248	57	38
314.772	315.742	61	38
314.773	315.252	40	20
314.776	315.721	49	20
315.248	315.717	57	31
315.249	315.718	59	31
315.251	315.742	66	31
315.252	315.721	40	15
315.252	315.742	51	15
315.717	316.183	57	37
315.718	316.184	59	37
315.718	316.697	64	37
315.721	316.187	40	19
315.721	316.697	49	19
316.183	316.697	57	29
316.183	316.697	66	29
316.184	316.695	59	29
316.187	316.697	40	15
316.187	316.697	51	15
316.694	317.681	56	36
316.695	318.671	52	23
316.695	318.671	59	36
316.697	317.682	40	23
317.681	318.668	56	24
317.682	318.669	40	17
317.682	318.668	64	29
317.684	318.669	47	17
318.668	319.147	56	46
318.668	319.648	64	46
318.669	319.151	40	23
318.669	319.151	47	23
319.147	319.631	56	36
319.15	319.648	68	36
319.151	319.631	40	18
319.151	319.634	47	18
319.63	320.593	66	45
319.631	320.11	40	24
319.631	320.107	56	45
319.634	320.107	47	24
320.107	320.593	47	18
320.107	320.593	56	39
320.107	320.593	68	39
320.11	320.575	40	18
320.569	321.559	57	42
320.572	321.559	64	42
320.572	321.555	69	42
320.575	321.562	40	25
320.576	321.56	49	25
321.555	322.546	69	37
321.559	322.55	57	37
321.559	322.55	64	37
321.56	322.549	49	19
321.562	322.549	40	19
322.546	323.506	69	40
322.547	323.505	61	40
322.547	323.501	73	48
322.549	324.479	40	30
322.549	324.479	49	36
323.028	324.478	52	33
323.501	324.479	73	48
323.505	323.985	61	40
323.506	324.479	57	37
323.506	324.479	69	40
323.985	324.479	61	39
324.474	325.454	64	34
324.475	325.455	76	40
324.478	325.458	52	26
324.478	325.451	68	34
324.479	325.458	59	26
325.451	326.439	68	23
325.454	326.439	64	23
325.455	326.439	76	27
325.458	326.438	52	17
325.458	326.438	59	17
326.434	326.904	69	38
326.435	327.39	63	38
326.435	327.404	78	38
326.438	326.907	52	22
326.438	326.907	59	22
326.904	327.404	69	31
326.904	327.404	75	31
326.907	327.387	52	18
326.907	327.404	59	18
326.907	327.387	66	31
327.386	328.349	71	36
327.387	327.856	52	20
327.387	328.349	66	36
327.39	328.349	63	20
327.852	328.331	64	31
327.852	328.349	69	31
327.853	328.349	61	18
327.856	328.335	52	18
328.331	329.301	64	29
328.332	329.302	68	35
328.335	329.305	52	24
328.336	329.304	59	24
329.301	330.275	64	19
329.302	330.275	68	23
329.304	330.275	59	15
329.305	330.274	52	15
330.27	331.233	78	37
330.271	331.222	63	37
330.271	330.743	69	37
330.274	330.744	52	22
330.275	330.743	59	22
330.74	331.215	66	30
330.74	331.233	75	30
330.743	331.233	59	17
330.743	331.233	69	30
330.744	331.22	52	17
331.215	332.168	66	35
331.216	332.168	71	35
331.22	331.679	52	20
331.222	332.168	63	20
331.678	332.16	64	30
331.678	332.168	69	30
331.679	332.168	52	18
331.679	332.168	61	18
332.16	333.137	64	29
332.165	333.14	68	35
332.167	333.141	59	29
332.168	333.141	52	24
333.137	334.113	64	19
333.14	334.118	68	23
333.141	334.118	52	15
333.141	334.118	59	15
334.113	334.597	64	35
334.114	335.1	56	25
334.118	334.598	52	25
334.597	335.079	64	26
334.597	335.1	68	31
334.598	335.081	52	23
334.598	335.1	59	23
335.079	335.559	64	29
335.08	336.087	57	25
335.08	336.087	66	35
335.081	335.563	52	25
335.559	336.07	64	27
335.559	336.087	68	33
335.563	336.071	52	24
335.563	336.087	59	24
336.07	337.046	64	28
336.071	337.048	52	25
336.071	337.382	71	34
336.074	337.047	61	25
337.046	337.382	64	18
337.047	337.382	61	15
337.047	337.382	70	24
337.048	337.382	52	15
338.005	338.951	76	41
338.006	339.255	83	41
338.006	338.951	88	41
338.007	338.952	64	22
338.009	338.954	72	22
338.951	339.374	76	25
338.951	339.377	88	25
338.952	339.378	64	8
338.952	339.378	81	25
338.954	339.378	72	9
339.871	340.823	64	34
339.871	341.156	69	34
339.875	340.827	52	25
339.875	340.827	59	25
340.823	341.264	64	24
340.823	341.268	68	24
340.827	341.268	52	9
340.827	341.271	59	11
341.789	342.762	76	42
341.789	342.766	88	42
341.79	343.095	81	42
341.793	342.767	64	22
341.793	342.769	71	22
342.762	343.21	76	25
342.766	343.211	79	25
342.766	343.211	88	25
342.767	343.213	64	11
342.769	343.214	71	11
343.739	344.685	60	78
343.739	344.687	66	86
343.74	344.684	64	86
343.742	344.687	33	58
343.742	344.684	54	78
343.743	344.691	45	64
344.684	345.17	54	59
344.684	345.17	64	67
344.685	345.17	60	59
344.687	345.17	33	39
344.687	345.17	66	67
344.691	345.17	45	44
345.653	346.143	73	46
345.653	346.122	76	46
345.657	346.129	64	39
345.657	346.143	78	55
345.658	346.143	66	39
345.66	346.143	57	39
346.122	346.585	76	37
346.126	346.598	71	37
346.126	346.598	80	46
346.129	346.588	64	34
346.13	346.598	59	34
346.13	346.598	68	34
346.584	347.063	81	50
346.585	347.063	69	42
346.585	347.043	76	42
346.588	347.046	64	37
346.589	347.063	61	37
347.043	347.522	76	37
347.044	347.526	80	46
347.045	347.526	71	37
347.046	347.53	59	36
347.046	347.529	64	36
347.047	347.53	68	36
347.536	348.817	76	50
347.537	348.503	69	36
347.537	348.502	71	50
347.537	348.498	83	50
347.539	348.505	66	36
347.54	348.503	59	36
348.498	348.933	83	26
348.502	348.936	71	26
348.502	348.936	75	33
348.503	348.936	59	17
348.503	348.94	69	17
348.505	348.94	66	17
349.468	350.414	64	30
349.469	350.416	52	27
349.469	350.413	68	37
349.471	350.416	59	27
350.413	350.886	68	23
350.414	350.886	64	23
350.416	350.886	52	23
350.416	350.886	59	16
351.379	352.331	54	79
351.38	352.332	60	79
351.38	352.332	66	89
351.382	352.334	64	89
351.383	352.335	33	58
351.383	352.335	45	64
352.331	352.8	54	59
352.332	352.8	60	59
352.332	352.8	66	67
352.334	352.8	64	67
352.335	352.8	33	42
352.335	352.8	45	48
353.262	353.738	76	46
353.266	353.742	73	46
353.266	353.742	78	55
353.27	353.742	57	39
353.27	353.742	64	39
353.27	353.742	66	39
353.735	354.221	71	41
353.736	354.221	80	49
353.738	354.221	59	36
353.738	354.208	76	41
353.739	354.221	68	36
353.742	354.211	64	36
354.204	354.68	69	44
354.208	354.666	76	44
354.208	354.68	81	53
354.209	354.68	61	39
354.211	354.67	64	39
354.666	355.156	71	39
354.666	355.16	76	39
354.666	355.181	80	47
354.669	355.16	59	36
354.669	355.181	68	36
354.67	355.181	64	36
355.156	356.133	71	42
355.156	356.133	83	50
355.16	356.137	59	36
355.16	356.136	69	36
355.16	356.416	76	50
355.163	356.136	66	36
356.133	356.58	71	26
356.133	356.581	83	27
356.135	356.581	75	33
356.136	356.583	66	17
356.136	356.584	69	17
356.137	356.584	59	17
357.109	358.055	40	86
357.109	358.054	52	104
357.109	358.054	64	104
358.054	358.502	52	74
358.054	358.502	64	83
358.055	358.502	40	70
359.03	359.499	56	36
359.03	359.993	59	36
359.031	359.503	40	22
359.031	359.503	47	22
359.499	359.972	56	30
359.502	359.993	68	30
359.503	359.972	40	17
359.503	359.973	47	17
359.968	360.962	66	37
359.972	360.441	40	20
359.972	360.44	56	37
359.973	360.444	47	20
360.44	360.962	56	30
360.441	360.948	40	16
360.441	360.945	68	30
360.444	360.962	47	16
360.945	361.956	68	39
360.945	361.956	71	39
360.948	361.872	40	16
360.948	361.872	48	16
360.948	361.87	60	24
361.869	362.106	69	23
361.87	362.107	60	22
361.87	362.107	66	23
361.872	362.11	40	8
361.872	362.111	48	8
362.821	363.752	59	29
362.822	363.906	68	39
362.822	363.906	71	39
362.824	363.76	40	23
362.824	363.76	51	23
363.752	363.996	59	19
363.755	363.997	66	23
363.759	364.0	69	23
363.76	364.001	40	9
363.76	364.001	51	9
364.728	365.687	64	105
364.729	365.688	76	105
364.732	365.691	40	86
364.733	365.688	52	86
365.687	366.181	64	61
365.688	366.181	52	66
365.688	366.181	76	69
365.691	366.181	40	59
366.667	367.147	56	38
366.668	367.63	59	38
366.671	367.148	40	25
366.671	367.147	47	25
367.144	367.63	68	31
367.147	367.616	47	18
367.147	367.612	56	31
367.148	367.619	40	18
367.612	368.078	56	38
367.613	368.599	66	38
367.616	368.082	47	25
367.619	368.081	40	25
368.078	368.599	56	31
368.081	368.589	40	17
368.081	368.599	68	31
368.082	368.599	47	17
368.581	369.495	61	37
368.585	369.572	73	44
368.586	369.496	69	44
368.588	369.572	45	24
368.589	369.499	40	24
369.495	369.726	61	19
369.496	369.73	66	23
369.496	369.726	69	23
369.499	369.73	40	12
369.499	369.731	49	16
370.429	371.343	59	35
370.433	371.365	71	41
370.434	371.365	47	25
370.434	371.365	68	41
370.435	371.347	40	25
371.34	371.567	69	25
371.343	371.568	59	24
371.344	371.571	51	18
371.344	371.571	66	25
371.347	371.572	40	14
372.264	373.146	64	35
372.267	373.149	59	35
372.267	373.181	69	41
372.268	373.153	40	25
372.268	373.15	52	25
373.146	373.367	64	23
373.149	373.37	59	23
373.149	373.367	67	25
373.15	373.37	52	12
373.153	373.37	40	4
374.027	374.917	60	36
374.031	374.98	67	42
374.032	374.921	45	25
374.032	374.918	57	36
374.035	374.921	48	25
374.917	375.138	60	23
374.917	375.137	65	25
374.918	375.141	57	24
374.921	375.142	45	12
374.921	375.142	48	12
375.788	376.691	55	36
375.789	376.687	60	36
375.792	376.723	65	42
375.793	376.692	48	25
376.687	376.909	60	23
376.691	376.909	55	23
376.692	376.912	48	14
376.692	376.912	64	25
377.57	378.473	53	36
377.57	378.469	57	36
377.574	378.473	38	25
377.574	378.498	64	42
377.575	378.474	50	25
378.469	378.697	57	25
378.47	378.698	62	29
378.473	378.7	38	15
378.473	378.698	53	25
378.474	378.701	50	15
379.369	380.308	52	35
379.372	380.325	62	41
379.373	380.308	40	24
379.373	380.303	57	35
379.376	380.325	45	24
380.303	380.548	57	20
380.307	380.549	60	25
380.308	380.552	40	12
380.308	381.297	52	39
381.273	382.232	51	37
382.207	382.446	52	35
385.078	386.047	40	19
385.078	386.067	57	29
385.078	386.044	59	41
385.079	386.068	47	33
386.044	386.488	59	25
386.046	386.489	56	25
386.047	386.489	40	9
386.051	387.02	52	39
387.003	387.962	51	37
387.944	388.182	52	35
390.863	391.794	60	36
390.867	391.098	41	22
390.983	391.206	48	14
391.098	391.322	41	17
391.206	391.434	48	15
391.322	391.549	41	18
391.434	391.665	48	14
391.549	391.78	41	18
391.665	391.794	48	13
391.777	392.686	57	33
391.778	392.687	69	33
391.78	392.001	41	20
391.885	392.114	48	12
392.001	392.225	41	18
392.114	392.334	48	13
392.225	392.442	41	19
392.334	392.554	48	12
392.442	392.666	41	16
392.554	392.679	48	12
392.663	393.568	56	40
392.666	392.89	41	24
392.666	393.569	68	40
392.781	393.002	48	14
392.89	393.11	41	18
393.002	393.222	48	15
393.11	393.331	41	20
393.222	393.443	48	16
393.331	393.554	41	19
393.443	393.561	48	15
393.552	394.451	57	37
393.552	394.451	69	37
393.554	393.663	41	21
393.663	393.884	48	14
393.772	393.993	41	20
393.884	394.104	48	15
393.993	394.213	41	20
394.104	394.325	48	14
394.213	394.445	41	18
394.325	394.451	48	13
394.444	395.337	58	47
394.445	394.548	41	27
394.445	395.337	70	47
394.553	394.766	48	17
394.661	394.875	41	22
394.766	394.987	48	20
394.875	395.098	41	27
394.987	395.207	48	20
395.098	395.319	41	27
395.207	395.337	48	20
395.318	396.211	57	45
395.319	395.536	41	31
395.319	396.211	69	45
395.427	395.641	48	19
395.536	395.753	41	29
395.641	395.864	48	21
395.753	395.973	41	33
395.864	396.089	48	22
395.973	396.205	41	29
396.089	396.211	48	21
396.201	397.083	62	63
396.205	396.414	41	37
396.205	397.084	74	63
396.302	396.53	48	28
396.414	396.635	41	31
396.53	396.746	48	31
396.635	396.849	41	35
396.746	396.96	48	30
396.849	397.066	41	36
396.96	397.083	48	31
397.065	397.934	60	61
397.066	397.279	41	42
397.066	397.934	72	61
397.174	397.391	48	30
397.279	397.5	41	42
397.391	397.605	48	33
397.5	397.709	41	42
397.605	397.818	48	32
397.709	397.934	41	41
397.818	397.934	48	31
397.933	398.808	67	77
397.933	398.808	79	77
397.934	398.137	41	54
398.035	398.249	48	39
398.137	398.353	41	45
398.249	398.462	48	40
398.353	398.575	41	52
398.462	398.679	48	38
398.575	398.791	41	52
398.679	398.808	48	42
398.79	399.659	65	73
398.791	399.004	41	57
398.791	399.659	77	73
398.899	399.113	48	41
399.004	399.218	41	54
399.113	399.33	48	45
399.218	399.434	41	60
399.33	399.544	48	43
399.434	399.653	41	57
399.544	399.659	48	42
399.652	400.521	70	96
399.652	400.521	82	96
399.653	399.756	41	62
399.757	399.967	48	48
399.861	400.078	41	57
399.967	400.181	48	53
400.078	400.292	41	63
400.181	400.394	48	49
400.292	400.505	41	63
400.394	400.521	48	50
400.502	401.371	69	93
400.503	401.364	81	93
400.505	400.611	41	68
400.611	400.825	48	48
400.716	400.933	41	65
400.825	401.035	48	49
400.933	401.147	41	69
401.035	401.248	48	51
401.147	401.367	41	65
401.248	401.371	48	48
401.364	402.246	81	101
401.364	402.431	86	101
401.365	402.431	77	90
401.367	402.431	41	75
401.367	402.246	45	75
401.367	402.431	74	90
401.37	402.431	50	84
401.371	402.431	53	84
402.245	402.431	69	76
402.246	402.431	45	69
402.246	402.431	81	85
402.249	402.431	57	77
403.145	404.219	88	101
403.148	404.219	85	101
403.152	404.219	40	75
403.152	404.219	76	90
403.152	404.034	81	90
403.153	404.034	45	75
403.155	404.219	49	84
403.155	404.219	52	84
404.033	404.219	69	76
404.034	404.219	45	69
404.034	404.219	81	85
404.037	404.219	57	77
404.929	406.039	89	101
404.93	406.039	86	101
404.933	405.809	81	90
404.934	406.039	38	75
404.934	406.039	77	90
404.935	406.039	41	75
404.936	405.812	45	84
404.937	406.039	50	84
405.808	406.039	69	76
405.809	406.039	81	85
405.812	406.039	45	69
405.812	406.039	57	77
406.704	407.761	88	102
406.708	407.761	85	102
406.709	407.761	76	91
406.709	407.587	81	91
406.711	407.761	40	75
406.711	407.587	45	75
406.712	407.761	49	84
406.715	407.761	52	84
407.586	407.761	69	76
407.587	407.765	45	69
407.587	407.765	81	85
407.588	407.768	57	77
408.024	408.447	57	85
408.024	408.447	69	85
408.367	408.447	55	73
408.367	408.447	67	73
408.476	409.358	81	101
408.476	409.371	86	101
408.479	409.371	74	90
408.479	409.371	77	90
408.482	408.926	65	87
408.483	408.926	53	87
408.808	408.926	52	72
408.808	408.926	64	72
408.916	409.361	50	78
408.917	409.361	62	78
409.245	409.371	49	72
409.246	409.371	61	72
409.358	409.798	69	83
409.358	409.798	81	93
409.361	409.798	50	78
409.361	409.798	62	78
409.683	409.798	48	70
409.686	409.798	60	70
409.794	409.966	46	79
409.795	409.97	58	79
410.134	410.2	45	75
410.138	410.201	57	75
410.257	411.145	88	104
410.26	411.136	81	93
410.26	411.145	85	104
410.261	411.145	76	93
410.264	410.701	43	73
410.265	410.701	55	73
410.582	410.701	41	69
410.586	410.701	53	69
410.694	411.145	40	74
410.694	411.145	52	74
411.016	411.145	38	68
411.02	411.145	50	68
411.135	411.583	69	84
411.136	411.583	37	80
411.136	411.583	81	94
411.137	411.583	49	80
411.46	411.583	34	74
411.461	411.583	46	74
411.562	411.734	33	84
411.566	411.734	45	84
411.898	411.961	31	73
411.902	411.961	43	73
412.018	412.92	86	101
412.018	412.92	89	101
412.021	412.486	29	84
412.021	412.92	77	90
412.021	412.918	81	90
412.022	412.486	41	84
412.368	412.486	55	69
412.368	412.486	67	69
412.468	412.92	65	76
412.472	412.92	53	76
412.801	412.92	64	66
412.802	412.92	52	66
412.917	413.389	69	82
412.918	413.389	50	77
412.918	413.389	81	92
412.92	413.389	62	77
413.242	413.389	48	65
413.242	413.389	60	65
413.35	413.816	46	76
413.354	413.816	58	76
413.69	413.816	45	67
413.691	413.816	57	67
413.799	414.687	88	104
413.802	414.687	85	104
413.803	414.687	76	93
413.803	414.675	81	93
413.806	414.25	43	74
413.807	414.25	55	74
414.131	414.25	41	67
414.132	414.25	53	67
414.233	414.687	40	73
414.236	414.687	52	73
414.565	414.687	38	67
414.565	414.687	50	67
414.674	415.143	69	83
414.675	415.143	81	93
414.678	415.143	37	78
414.678	415.143	49	78
415.002	415.143	34	72
415.003	415.143	46	72
415.118	415.287	33	81
415.119	415.287	45	81
415.454	415.51	31	70
415.461	415.517	43	70
415.57	416.476	84	105
415.57	416.487	89	105
415.571	416.487	81	94
415.573	416.045	29	84
415.573	416.045	41	84
415.573	416.487	77	94
415.924	416.045	55	71
415.924	416.045	67	71
416.035	416.477	65	78
416.036	416.477	53	78
416.36	416.487	64	71
416.361	416.487	52	71
416.474	416.934	72	82
416.476	416.934	84	92
416.477	416.934	53	77
416.477	416.934	65	77
416.802	416.934	52	69
416.802	416.934	64	69
416.911	417.075	50	76
416.914	417.076	62	76
417.243	417.295	48	69
417.243	417.296	60	69
417.351	418.241	91	100
417.352	418.241	88	100
417.354	418.228	84	90
417.355	417.803	46	78
417.355	418.241	79	90
417.358	417.803	58	78
417.676	417.803	45	66
417.677	417.803	57	66
417.789	418.241	43	72
417.789	418.241	55	72
418.118	418.241	41	68
418.119	418.241	53	68
418.227	418.688	72	76
418.228	418.688	84	85
418.23	418.688	40	74
418.23	418.688	52	74
418.552	418.688	38	69
418.556	418.688	50	69
418.664	418.825	36	79
418.665	418.825	48	79
418.996	419.049	34	71
418.997	419.05	46	71
419.105	420.018	89	100
419.105	420.018	93	100
419.108	420.018	81	90
419.108	420.005	84	90
419.112	420.018	33	85
419.112	420.018	45	85
419.455	420.018	58	73
419.455	420.018	70	73
419.563	420.018	57	80
419.564	420.018	69	80
419.888	420.018	55	71
419.889	420.018	67	71
420.004	420.463	72	76
420.005	420.463	65	76
420.005	420.463	84	85
420.008	420.463	53	76
420.33	420.463	64	72
420.331	420.463	52	72
420.446	420.617	50	82
420.446	420.618	62	82
420.782	420.841	48	69
420.782	420.841	60	69
420.893	421.786	91	96
420.894	421.786	88	96
420.896	421.776	84	86
420.897	421.352	46	85
420.897	421.786	79	86
420.9	421.352	58	85
421.222	421.352	45	69
421.225	421.352	57	69
421.334	421.786	43	80
421.338	421.786	55	80
421.66	421.786	41	70
421.66	421.786	53	70
421.776	422.227	72	76
421.776	422.227	84	85
421.777	422.227	40	83
421.779	422.227	52	83
422.101	422.227	38	73
422.101	422.227	50	73
422.216	422.385	36	84
422.219	422.388	48	84
422.566	422.629	34	84
422.567	422.633	46	84
422.689	423.018	89	97
422.689	423.588	93	97
422.69	423.019	81	87
422.69	423.018	84	87
422.692	423.588	33	78
422.692	423.588	36	78
422.692	423.588	41	87
422.693	423.575	45	87
423.018	423.129	84	70
423.018	423.126	89	70
423.019	423.13	81	63
423.021	423.13	77	63
423.126	423.588	89	78
423.129	423.458	84	78
423.13	423.463	77	70
423.13	423.459	81	70
423.458	423.567	84	70
423.459	423.568	81	70
423.463	423.572	72	63
423.463	423.571	77	63
423.567	423.935	84	78
423.568	423.896	81	78
423.571	423.897	77	70
423.572	423.935	53	58
423.572	423.897	72	70
423.574	423.935	48	52
423.574	423.935	57	58
423.575	423.935	45	52
423.896	423.97	81	70
423.897	423.973	69	63
423.897	423.971	72	63
423.897	423.97	77	70
424.005	424.095	69	70
424.009	424.1	72	70
424.009	424.1	77	78
424.01	424.102	81	78
424.25	424.341	65	63
424.25	424.341	69	63
424.251	424.345	72	70
424.251	424.345	77	70
424.502	425.394	93	99
424.506	424.838	84	89
424.506	424.834	89	99
424.509	424.839	81	89
424.51	425.394	33	60
424.51	425.394	36	67
424.512	425.391	41	67
424.513	425.394	29	60
424.834	424.946	89	70
424.838	424.946	84	70
424.839	424.95	77	63
424.839	424.947	81	63
424.946	425.268	84	78
424.946	425.394	89	78
424.947	425.272	81	70
424.95	425.272	77	70
425.268	425.384	84	70
425.272	425.388	77	63
425.272	425.385	81	70
425.275	425.388	72	63
425.384	425.782	84	78
425.385	425.717	81	78
425.388	425.782	45	52
425.388	425.72	72	70
425.388	425.719	77	70
425.39	425.782	48	58
425.391	425.782	41	52
425.391	425.782	53	58
425.717	425.793	81	70
425.719	425.794	77	70
425.72	425.797	69	63
425.72	425.794	72	63
425.828	425.923	69	70
425.829	425.923	72	70
425.829	425.924	77	78
425.832	425.924	81	78
426.069	426.175	65	63
426.074	426.176	69	63
426.074	426.178	72	70
426.076	426.178	77	70
426.343	426.679	88	92
426.343	426.679	93	92
426.347	426.683	81	82
426.347	426.683	85	82
426.35	427.25	33	70
426.35	427.25	45	78
426.679	426.792	88	70
426.679	426.791	93	70
426.683	426.794	81	63
426.683	426.794	85	70
426.686	426.795	37	63
426.686	426.795	49	70
426.791	427.12	93	83
426.792	427.123	88	83
426.794	427.127	81	74
426.794	427.124	85	74
426.795	427.25	37	70
426.795	427.25	49	78
427.12	427.232	93	70
427.123	427.235	88	70
427.124	427.235	85	63
427.127	427.239	40	63
427.127	427.236	81	63
427.128	427.239	52	70
427.232	427.565	93	82
427.235	427.566	85	73
427.235	427.565	88	82
427.236	427.568	81	73
427.239	427.645	40	70
427.239	427.645	52	78
427.565	427.645	88	70
427.565	427.645	93	70
427.566	427.645	85	63
427.568	427.645	45	63
427.568	427.645	81	63
427.569	427.645	57	70
427.68	427.768	85	72
427.68	427.768	88	80
427.68	427.767	93	80
427.684	427.772	45	70
427.684	427.772	57	78
427.684	427.771	81	72
427.911	427.998	81	63
427.911	427.999	85	63
427.915	428.002	45	63
427.915	428.002	88	70
427.915	428.002	93	70
427.918	428.003	57	71
428.149	428.488	81	50
428.15	428.485	76	50
428.152	429.062	69	50
428.152	428.485	73	50
428.153	429.062	57	50
428.485	428.604	73	45
428.485	428.604	76	45
428.488	428.608	61	40
428.488	428.601	81	45
428.601	428.94	81	50
428.604	428.939	73	50
428.604	428.94	76	50
428.608	429.062	61	49
428.939	429.053	73	45
428.94	429.052	76	45
428.94	429.048	81	45
428.943	429.053	64	38
429.048	429.384	81	49
429.052	429.382	76	49
429.053	429.444	64	48
429.053	429.381	73	49
429.381	429.465	73	45
429.382	429.465	76	45
429.384	429.466	81	45
429.385	429.466	69	38
429.496	429.584	76	50
429.496	429.584	81	50
429.5	429.587	69	45
429.5	429.585	73	50
429.724	429.808	73	45
429.725	429.815	69	38
429.725	429.811	76	45
429.725	429.812	81	45
429.954	430.298	72	45
429.955	430.298	77	45
429.958	430.298	81	45
429.959	430.301	65	44
429.959	430.302	69	44
430.298	430.413	72	38
430.298	430.413	77	38
430.298	430.414	81	38
430.301	430.417	65	33
430.302	430.417	69	33
430.413	430.756	72	45
430.413	430.757	77	45
430.414	430.757	81	45
430.417	430.76	65	42
430.417	430.76	69	42
430.756	430.872	72	37
430.757	430.876	77	37
430.757	430.876	81	37
430.76	430.877	65	33
430.76	430.877	69	33
430.872	431.208	72	45
430.876	431.212	77	45
430.876	431.212	81	45
430.877	431.212	65	42
430.877	431.213	69	42
431.208	431.285	72	38
431.212	431.289	65	34
431.212	431.288	77	38
431.212	431.289	81	38
431.213	431.289	69	34
431.323	431.411	72	45
431.327	431.412	77	45
431.328	431.414	65	40
431.328	431.414	81	45
431.33	431.415	69	40
431.55	431.642	77	39
431.551	431.646	72	39
431.554	431.646	81	39
431.555	431.65	65	36
431.555	431.65	69	36
431.8	432.247	72	51
431.803	432.139	77	51
431.804	432.25	81	51
431.807	432.702	41	31
431.807	432.702	53	31
432.136	432.636	74	37
432.139	432.248	77	37
432.139	432.636	82	37
432.247	432.588	72	45
432.248	432.636	77	45
432.25	432.636	81	45
432.587	432.66	70	37
432.588	432.661	72	37
432.588	432.664	79	37
432.703	433.084	69	45
432.703	433.039	72	45
432.706	433.084	45	37
432.706	433.084	77	45
432.707	433.084	57	37
433.038	433.116	70	37
433.039	433.116	72	37
433.039	433.117	79	37
433.147	433.542	69	45
433.147	433.542	72	45
433.148	433.542	77	45
433.49	433.563	65	37
433.494	433.568	70	37
433.494	433.568	74	37
433.605	434.387	64	52
433.606	433.942	70	52
433.609	434.39	72	52
433.61	434.505	48	34
433.61	434.505	55	34
433.941	434.05	65	37
433.942	434.054	70	37
433.942	434.054	74	37
434.05	434.505	65	45
434.054	434.39	70	45
434.054	434.505	74	45
434.387	434.501	64	37
434.39	434.502	70	37
434.39	434.502	72	37
434.501	434.883	64	45
434.502	434.837	70	45
434.502	434.883	72	45
434.503	434.883	60	37
434.834	434.942	65	37
434.837	434.943	70	37
434.838	434.943	74	37
434.946	435.03	65	39
434.947	435.03	70	39
434.947	435.031	74	39
435.166	435.25	64	37
435.167	435.251	70	37
435.17	435.251	72	37
435.412	435.863	74	45
435.412	435.755	79	45
435.413	435.866	82	45
435.415	436.318	43	31
435.415	436.318	55	31
435.755	436.223	75	37
435.755	435.864	79	37
435.758	436.223	84	37
435.863	436.203	74	45
435.864	436.223	79	45
435.866	436.223	82	45
436.202	436.276	72	37
436.203	436.279	74	37
436.203	436.279	81	37
436.319	436.765	70	45
436.322	436.654	74	45
436.322	436.766	79	45
436.323	437.175	46	37
436.323	437.175	58	37
436.654	437.109	72	37
436.654	436.766	74	37
436.658	437.175	81	37
436.765	437.175	70	45
436.766	437.175	74	45
436.766	437.175	79	45
437.105	437.176	67	37
437.109	437.179	72	37
437.109	437.179	75	37
437.217	438.003	66	52
437.218	437.558	72	52
437.218	438.005	74	52
437.221	438.121	50	37
437.221	438.121	57	37
437.557	437.667	67	37
437.558	437.669	72	37
437.558	437.669	75	37
437.667	438.121	67	45
437.669	438.005	72	45
437.669	438.121	75	45
438.003	438.118	66	37
438.005	438.118	72	37
438.005	438.12	74	37
438.118	438.505	66	45
438.118	438.447	72	45
438.12	438.505	74	45
438.121	438.505	62	37
438.447	438.558	67	37
438.447	438.559	72	37
438.448	438.561	75	37
438.561	438.646	67	39
438.562	438.646	72	39
438.562	438.647	75	39
438.789	438.866	66	37
438.79	438.866	72	37
438.792	438.867	74	37
439.03	439.369	71	51
439.031	439.37	77	51
439.031	439.707	79	51
439.032	439.937	43	40
439.033	439.937	50	40
439.369	439.482	71	37
439.37	439.483	77	37
439.37	439.483	80	37
439.482	439.706	71	51
439.483	439.706	77	51
439.483	439.937	80	51
439.706	439.937	71	42
439.706	439.937	77	42
439.707	439.937	79	42
439.927	440.267	67	45
439.93	440.27	70	45
439.93	440.305	72	45
439.934	440.305	48	37
439.934	440.305	52	37
440.267	440.339	67	39
440.27	440.343	70	39
440.27	440.343	73	39
440.374	440.462	67	47
440.375	440.463	70	47
440.378	440.465	73	47
440.606	440.689	67	37
440.609	440.69	70	37
440.609	440.693	72	37
440.843	441.187	69	52
440.847	441.188	75	52
440.847	441.53	77	52
440.851	441.76	41	41
440.851	441.76	48	41
441.187	441.298	69	42
441.188	441.299	75	42
441.188	441.301	79	42
441.298	441.527	69	49
441.299	441.53	75	49
441.301	441.76	79	49
441.527	441.76	69	37
441.53	441.76	75	37
441.53	441.76	77	37
441.753	442.086	62	49
441.754	442.087	65	49
441.757	442.156	46	37
441.757	442.156	70	49
441.758	442.156	50	37
442.086	442.16	62	37
442.087	442.161	65	37
442.087	442.163	72	37
442.198	442.279	62	45
442.198	442.279	65	45
442.202	442.281	72	45
442.422	442.506	62	37
442.425	442.506	70	37
442.426	442.507	65	37
442.656	443.004	65	55
442.657	443.017	70	55
442.66	443.017	74	55
442.661	443.007	46	49
442.661	443.017	50	49
443.004	443.115	65	55
443.006	443.119	73	55
443.007	443.119	46	49
443.007	443.119	76	55
443.01	443.12	49	49
443.011	443.122	52	49
443.115	443.452	65	59
443.119	443.456	46	53
443.119	443.469	73	59
443.119	443.469	76	59
443.12	443.469	49	53
443.122	443.469	52	53
443.452	443.563	65	58
443.455	443.563	74	58
443.456	443.567	46	52
443.456	443.564	77	58
443.458	443.567	50	52
443.458	443.567	53	52
443.563	443.906	65	67
443.563	443.906	74	67
443.564	443.906	77	67
443.567	443.896	46	60
443.567	443.906	50	60
443.567	443.906	53	60
443.893	444.008	67	66
443.896	444.012	46	59
443.896	444.011	76	66
443.896	444.012	79	66
443.897	444.012	52	59
443.899	444.014	55	59
444.008	444.357	67	73
444.011	444.357	76	73
444.012	444.357	46	64
444.012	444.357	52	64
444.012	444.357	79	73
444.014	444.357	55	64
444.347	444.457	68	67
444.348	444.459	77	67
444.348	444.459	80	67
444.35	444.46	47	60
444.351	444.46	53	60
444.351	444.463	56	60
444.457	444.794	68	76
444.459	444.794	77	76
444.459	444.796	80	76
444.46	444.805	47	68
444.46	444.805	53	68
444.463	444.805	56	68
444.792	444.903	72	70
444.794	444.903	68	70
444.794	444.907	77	70
444.796	444.907	36	63
444.796	444.907	80	70
444.798	444.908	48	63
444.903	445.249	68	76
444.903	445.249	72	76
444.907	445.249	36	67
444.907	445.236	77	76
444.907	445.249	80	76
444.908	445.249	48	67
445.232	445.35	67	71
445.236	445.351	71	71
445.236	445.351	77	71
445.236	445.351	79	71
445.238	445.354	38	64
445.239	445.355	50	64
445.35	445.698	67	78
445.351	445.698	71	78
445.351	445.7	77	78
445.351	445.701	79	78
445.354	445.708	38	69
445.355	445.708	50	69
445.698	445.816	67	65
445.698	445.816	71	65
445.7	445.817	74	73
445.7	445.82	77	73
445.701	445.82	79	73
445.704	445.82	31	58
445.704	445.821	43	65
445.816	446.166	67	81
445.816	446.191	71	81
445.817	446.191	74	81
445.82	446.191	31	64
445.82	446.191	77	81
445.82	446.191	79	81
445.821	446.191	43	72
446.163	446.278	64	69
446.166	446.279	67	69
446.166	446.279	72	77
446.166	446.281	76	77
446.167	446.282	36	61
446.17	446.282	48	68
446.285	446.723	64	84
446.286	446.639	67	84
446.286	446.636	72	94
446.288	446.761	36	69
446.288	446.638	76	94
446.289	446.761	48	77
446.636	446.723	72	72
446.638	446.723	76	80
446.639	446.723	67	72
446.639	446.723	79	80
446.762	446.852	67	81
446.762	446.853	72	81
446.765	446.853	76	91
446.765	446.855	79	91
447.006	447.108	84	82
447.01	447.108	79	82
447.013	447.111	72	73
447.013	447.109	76	73
447.275	447.745	72	84
447.276	447.748	77	94
447.276	447.748	80	94
447.279	447.713	48	92
447.28	447.713	60	92
447.626	447.713	44	81
447.629	447.713	56	81
447.752	447.839	44	85
447.752	447.84	56	85
447.99	448.084	41	80
447.99	448.084	53	80
448.245	448.672	64	84
448.246	448.589	67	84
448.248	448.585	72	94
448.249	448.704	36	77
448.249	448.588	76	94
448.252	448.704	48	77
448.585	448.672	72	69
448.588	448.672	76	77
448.589	448.672	67	69
448.589	448.672	79	77
448.705	448.798	67	82
448.707	448.799	72	82
448.707	448.799	76	92
448.711	448.801	79	92
448.952	449.05	84	85
448.956	449.054	79	76
448.957	449.054	76	85
448.959	449.057	72	76
449.214	449.687	72	84
449.218	449.687	77	94
449.218	449.688	80	94
449.219	449.649	48	92
449.219	449.649	60	92
449.565	449.649	44	81
449.566	449.649	56	81
449.688	449.785	44	85
449.691	449.786	56	85
449.953	450.044	41	80
449.954	450.048	53	80
450.226	451.168	84	84
450.227	451.171	76	84
450.227	451.168	79	84
450.229	450.573	72	84
450.23	451.178	36	70
450.23	451.178	48	70
450.573	450.688	72	58
450.688	451.031	72	70
451.031	451.171	72	55
451.168	452.116	79	69
451.168	452.116	84	69
451.171	451.511	72	69
451.171	452.116	76	69
451.511	451.626	72	57
451.626	451.98	72	69
451.98	452.106	72	56
452.106	452.925	72	66
452.109	454.002	67	45
452.11	454.002	58	36
452.11	454.002	64	36
452.456	452.571	73	58
452.571	454.002	73	64
452.925	453.041	72	51
453.041	453.398	72	63
453.398	453.513	72	53
453.513	453.87	72	62
453.87	453.992	72	49
453.992	454.801	72	60
453.993	455.875	60	36
453.993	455.875	65	45
453.994	455.875	57	36
454.336	454.448	77	49
454.448	455.875	77	63
454.801	454.916	72	44
454.916	455.263	72	56
455.263	455.381	72	42
455.381	455.736	72	54
455.736	455.861	72	41
455.861	456.66	72	53
455.862	457.755	55	32
455.862	457.755	64	40
455.865	457.755	58	32
456.197	456.313	74	39
456.313	457.755	74	52
456.66	456.782	72	39
456.782	457.755	72	50
457.128	457.251	82	37
457.251	457.755	82	47
457.615	457.755	76	35
457.748	459.588	89	47
457.749	459.588	65	35
457.749	459.588	77	47
457.751	458.661	53	28
457.751	458.662	57	28
458.088	458.196	84	35
458.196	458.542	84	43
458.542	459.001	84	34
458.657	459.588	83	42
458.661	459.588	53	27
458.662	459.588	57	27
458.665	459.588	60	34
459.001	459.12	84	34
459.12	459.456	84	41
459.456	459.588	84	35
459.578	461.441	81	44
459.917	461.441	84	34
460.037	460.838	93	42
460.038	460.496	53	22
460.038	460.498	57	22
460.04	460.499	60	28
460.376	460.492	91	34
460.492	461.441	91	41
460.496	460.948	53	22
460.498	460.95	57	22
460.499	460.951	60	28
460.838	460.947	93	35
460.947	461.441	93	41
460.948	461.434	53	20
460.95	461.441	57	20
460.951	461.441	60	26
461.3	461.441	89	37
461.43	462.35	62	31
461.43	462.357	88	48
461.431	462.35	58	24
461.434	462.347	53	24
461.772	461.881	86	33
461.881	462.224	86	43
462.224	462.357	86	35
462.347	463.288	53	24
462.347	463.288	85	45
462.35	463.288	58	24
462.35	463.288	62	30
462.69	462.805	86	34
462.805	463.151	86	44
463.151	463.288	86	33
463.274	464.209	82	44
463.617	464.209	86	35
463.733	464.209	91	43
463.737	464.196	58	19
463.737	464.195	60	19
463.737	464.209	64	24
463.74	464.196	53	19
464.076	464.191	89	34
464.191	465.15	89	44
464.192	465.15	62	24
464.195	464.661	60	19
464.196	464.662	53	19
464.196	464.661	58	19
464.542	464.657	91	34
464.657	465.15	91	42
464.66	465.15	64	24
464.661	465.15	58	19
464.661	465.15	60	19
464.662	465.144	53	19
465.011	465.15	88	33
465.136	466.067	84	47
465.14	466.067	65	37
465.143	466.067	57	29
465.144	466.057	53	29
465.484	465.598	72	35
465.598	465.941	72	43
465.941	466.067	72	36
466.057	466.985	53	23
466.057	466.985	71	42
466.06	466.985	56	23
466.061	466.985	60	29
466.399	466.515	72	33
466.515	466.859	72	41
466.859	466.985	72	35
466.974	467.912	68	44
467.317	467.912	72	33
467.433	467.892	53	22
467.433	467.912	80	42
467.436	467.894	56	22
467.436	467.894	60	28
467.775	467.891	79	31
467.891	468.815	79	41
467.892	468.345	53	22
467.894	468.346	56	22
467.894	468.346	60	28
468.234	468.342	80	33
468.342	468.825	80	41
468.345	468.818	53	20
468.346	468.818	56	20
468.346	468.825	60	26
468.693	468.825	77	34
468.815	469.746	79	48
468.816	469.735	61	24
468.816	469.735	65	31
468.818	469.746	53	24
468.818	469.732	56	24
469.154	469.273	77	39
469.273	469.617	77	43
469.617	469.746	77	41
469.728	470.67	76	45
469.732	470.67	56	24
469.735	470.67	61	24
469.735	470.67	65	30
470.075	470.191	77	41
470.191	470.537	77	44
470.537	470.67	77	41
470.66	471.593	73	44
471.003	471.593	77	36
471.118	471.593	82	43
471.119	471.593	67	22
471.121	471.58	61	17
471.121	471.58	63	17
471.122	471.583	56	17
471.461	471.577	80	35
471.577	472.518	80	44
471.58	472.045	61	19
471.58	472.043	63	19
471.58	472.518	65	24
471.583	472.045	56	19
471.923	472.042	82	34
472.042	472.518	82	42
472.043	472.515	63	17
472.043	472.518	67	22
472.045	472.514	56	17
472.045	472.518	61	17
472.395	472.518	79	34
472.511	474.362	75	45
472.514	474.362	56	20
472.515	474.359	60	20
472.515	474.359	63	20
472.515	474.362	68	26
472.861	472.977	84	40
472.977	474.362	84	48
473.319	473.428	82	36
473.428	474.362	82	46
473.771	473.887	80	35
473.887	474.362	80	44
474.23	474.355	78	35
474.355	476.21	78	44
474.359	476.21	57	17
474.359	476.21	60	17
474.359	476.21	63	17
474.36	476.207	65	22
474.695	474.811	77	35
474.811	475.161	77	40
475.161	476.21	77	35
475.28	476.21	76	40
475.622	475.742	75	34
475.742	476.081	75	40
476.081	476.21	75	39
476.203	478.055	73	45
476.204	478.055	58	20
476.204	478.055	61	20
476.207	478.051	65	26
476.553	476.669	85	45
476.669	478.055	85	48
477.009	477.128	84	38
477.128	478.055	84	46
477.471	477.579	82	38
477.579	478.055	82	44
477.922	478.048	80	38
478.048	479.914	59	17
478.048	479.914	80	44
478.049	479.914	62	17
478.051	479.914	65	17
478.052	479.897	67	22
478.391	478.506	79	35
478.506	478.849	79	40
478.849	479.914	79	34
478.972	479.914	78	40
479.315	479.431	77	36
479.431	479.774	77	40
479.774	479.914	77	36
479.894	480.83	76	45
479.896	480.83	60	20
479.896	480.83	64	20
479.897	480.81	67	25
480.239	480.355	88	41
480.355	480.698	88	49
480.698	480.83	88	41
480.81	482.671	67	22
480.81	481.747	91	51
480.813	481.747	61	22
480.813	482.671	70	28
481.156	481.272	89	42
481.272	481.618	89	50
481.618	481.738	89	38
481.738	482.671	89	50
481.74	482.651	60	32
482.076	482.189	88	41
482.189	482.539	88	48
482.539	482.651	88	40
482.651	483.577	60	21
482.651	483.584	88	48
482.654	483.584	65	21
482.655	483.584	68	27
482.991	483.105	83	36
483.105	483.452	83	45
483.452	483.584	83	42
483.575	484.506	67	28
483.575	484.506	86	56
483.576	484.506	64	22
483.577	484.506	60	22
483.914	484.029	84	40
484.029	484.506	84	49
484.372	484.506	76	39
484.492	485.432	49	17
484.492	485.432	79	47
484.493	487.263	55	17
484.495	487.267	58	22
484.831	484.947	77	35
484.947	485.296	77	44
485.296	485.417	77	38
485.417	487.267	77	46
485.419	486.333	48	22
485.759	485.871	76	39
485.871	486.211	76	46
486.211	486.332	76	37
486.332	487.267	76	44
486.333	487.261	48	20
486.333	487.267	53	20
486.336	487.267	56	25
486.673	486.784	71	36
486.784	487.134	71	44
487.134	487.267	71	37
487.261	489.118	48	22
487.261	489.118	74	46
487.263	489.118	52	22
487.263	489.118	55	28
487.6	487.708	72	36
487.708	488.051	72	44
488.051	488.167	72	36
488.167	489.118	72	43
488.516	488.632	76	39
488.632	488.986	76	47
488.986	489.112	76	38
489.112	490.407	76	47
489.113	491.03	59	22
489.114	491.023	62	22
489.115	491.025	64	28
489.462	489.58	68	38
489.58	489.934	68	47
489.934	490.053	68	37
490.053	491.03	68	45
490.407	490.532	76	39
490.532	490.893	76	47
490.893	491.022	76	37
491.022	492.342	76	45
491.023	492.972	57	20
491.023	492.969	62	20
491.025	492.971	64	26
491.376	491.495	69	32
491.495	491.853	69	40
491.853	491.975	69	32
491.975	492.972	69	39
492.342	492.464	76	34
492.464	492.829	76	39
492.829	492.965	76	34
492.965	495.142	76	41
492.969	495.149	56	17
492.969	495.149	62	17
492.971	495.149	64	22
493.328	493.458	71	33
493.458	493.833	71	37
493.833	493.963	71	32
493.963	495.149	71	37
494.351	494.484	77	29
494.484	494.908	77	34
494.908	495.149	77	30
495.139	496.161	68	37
495.14	496.161	74	37
495.142	496.171	52	33
495.142	496.161	76	37
496.154	497.176	59	30
497.158	498.169	58	36
498.145	498.348	59	34
498.516	498.635	65	32
498.636	498.988	65	36
498.989	499.121	65	32
499.122	500.162	56	36
499.125	500.162	62	36
499.125	500.162	64	36
499.126	500.162	40	31
500.14	501.166	47	33
501.144	502.166	46	38
502.135	502.338	47	35
505.089	506.114	69	50
505.09	506.118	57	42
506.093	507.116	76	50
506.094	507.117	64	42
507.091	508.085	75	53
507.094	508.085	63	44
508.06	508.27	76	47
508.061	508.271	64	38
508.553	509.076	72	49
508.554	509.076	60	39
508.932	509.083	71	47
508.933	509.083	59	39
509.058	510.038	57	38
509.058	510.038	69	48
510.031	511.043	64	58
510.035	511.043	56	58
510.035	511.043	59	58
510.036	511.043	52	52
511.032	512.285	60	52
511.033	512.285	48	47
512.017	512.285	57	51
512.019	512.285	45	39
513.024	514.046	45	42
513.024	514.032	57	50
514.029	515.015	65	60
514.032	515.015	38	49
514.032	515.015	57	60
515.001	515.925	58	67
515.001	515.925	67	67
515.005	515.929	37	52
515.929	516.135	57	54
515.932	516.138	38	42
515.932	516.136	65	54
516.422	516.93	57	51
516.423	516.93	33	44
516.423	516.93	45	44
516.793	516.939	59	54
516.794	516.944	35	45
516.794	516.944	47	45
516.919	517.917	36	45
516.919	517.917	60	52
516.923	517.917	48	45
517.91	518.921	56	60
517.913	518.921	52	55
517.913	518.921	59	60
517.913	518.921	64	60
517.914	518.921	40	55
518.914	520.055	60	50
518.918	520.055	36	45
518.918	520.055	48	45
519.895	520.108	45	50
519.895	520.104	57	50
519.898	520.111	33	41
520.913	521.899	57	46
520.916	521.962	62	46
520.917	521.962	65	46
520.917	521.962	69	46
521.899	522.022	57	37
522.897	523.919	60	47
522.898	523.919	69	47
522.9	523.919	64	47
522.901	523.867	57	47
523.867	523.982	57	40
524.35	525.83	45	46
524.818	525.83	62	47
524.819	525.83	69	47
524.823	525.76	57	47
524.823	525.83	65	47
525.284	525.83	50	41
525.76	525.872	57	39
525.761	526.261	52	44
526.236	526.737	53	42
526.716	527.7	69	45
526.72	527.64	57	45
526.723	527.7	52	45
526.723	527.7	60	45
527.64	527.758	57	39
527.641	527.759	45	41
528.122	528.613	55	51
528.592	529.526	62	47
528.595	529.526	69	47
528.596	529.498	57	47
528.599	529.526	53	46
529.498	529.614	57	40
529.499	529.618	45	43
529.981	530.468	53	40
530.45	531.444	60	45
530.454	531.356	57	45
530.454	531.444	69	45
530.455	531.444	52	45
531.356	531.469	57	37
531.357	531.47	45	43
531.833	533.278	33	56
531.834	533.278	45	56
532.281	533.278	74	69
532.281	533.278	77	69
532.281	533.278	81	69
532.284	533.19	69	69
532.725	533.278	38	52
532.726	533.278	50	52
533.19	533.359	69	56
533.191	533.668	40	56
533.191	533.667	52	56
533.649	534.143	41	52
533.65	534.143	53	52
534.118	535.07	72	70
534.122	535.019	69	70
534.122	535.07	81	70
534.123	535.07	40	56
534.125	535.07	52	56
535.019	535.137	33	53
535.019	535.137	69	54
535.021	535.138	45	53
535.484	536.869	40	62
535.484	536.869	52	62
535.931	536.869	71	74
535.932	536.869	76	74
535.932	536.869	79	74
536.383	536.869	43	68
536.383	536.869	55	68
536.839	537.009	67	73
536.842	537.314	45	74
536.842	537.315	57	74
537.296	537.773	59	72
537.297	537.769	47	72
537.766	538.68	75	82
537.769	538.682	47	85
537.769	538.686	66	82
537.769	538.686	78	82
537.773	538.68	59	85
538.675	539.627	71	76
538.679	539.627	83	76
538.68	539.627	59	70
538.68	539.627	75	76
538.682	539.627	47	70
539.61	540.558	67	73
539.613	540.558	55	58
539.613	540.558	79	73
539.614	540.558	43	58
540.534	540.73	64	60
540.535	540.734	40	47
540.535	540.734	52	47
540.535	540.734	76	60
541.503	542.483	66	38
541.504	542.483	54	38
541.504	542.474	63	38
541.507	542.477	35	32
541.507	542.476	47	32
542.473	543.429	59	36
542.474	543.429	63	36
542.474	543.429	71	36
542.476	543.429	47	30
542.477	543.429	35	30
543.425	544.37	67	37
543.426	544.37	31	29
543.426	544.37	55	37
543.428	544.37	43	29
544.353	544.545	52	31
544.354	544.545	64	31
544.356	544.546	28	28
544.357	544.549	40	28
545.311	546.176	55	37
545.315	546.305	40	30
545.315	546.176	67	37
546.18	546.28	52	33
546.18	546.281	64	33
546.281	546.414	41	30
546.389	546.519	40	26
546.502	546.627	41	30
546.614	546.739	40	24
546.722	546.852	41	30
546.834	546.956	40	25
546.936	547.065	41	30
547.047	547.908	65	48
547.048	547.174	40	31
547.048	547.909	53	48
547.156	547.278	41	28
547.264	547.387	40	31
547.373	547.496	41	31
547.478	547.604	40	34
547.579	547.709	41	30
547.691	547.814	40	34
547.797	547.926	41	29
547.909	548.017	50	42
547.911	548.017	62	42
547.912	548.034	40	34
548.018	548.143	41	28
548.126	548.255	40	34
548.237	548.363	41	29
548.346	548.469	40	34
548.451	548.58	41	29
548.562	548.696	40	34
548.671	548.801	41	30
548.784	549.637	52	57
548.784	549.637	64	57
548.785	548.906	40	39
548.888	549.014	41	33
548.997	549.12	40	39
549.102	549.231	41	33
549.213	549.333	40	39
549.315	549.438	41	33
549.421	549.55	40	40
549.533	549.651	41	35
549.638	549.746	48	52
549.641	549.764	40	40
549.641	549.746	60	52
549.75	549.879	41	35
549.861	549.991	40	41
549.966	550.1	41	34
550.082	550.211	40	41
550.194	550.327	41	36
550.306	550.436	40	42
550.415	550.547	41	37
550.53	551.419	62	76
550.531	551.419	50	76
550.534	550.659	40	47
550.635	550.768	41	39
550.744	550.873	40	47
550.855	550.981	41	39
550.967	551.094	40	48
551.076	551.205	41	40
551.188	551.317	40	48
551.303	551.437	41	42
551.419	551.534	47	67
551.423	551.559	40	49
551.423	551.535	59	67
551.535	551.668	41	43
551.65	551.789	40	54
551.765	551.905	41	48
551.888	552.021	40	62
552.004	552.143	41	63
552.125	552.28	40	71
552.255	552.451	44	79
552.426	553.463	57	101
552.431	553.463	45	78
552.431	553.463	69	101
552.433	553.463	33	78
553.443	554.453	64	93
553.445	554.453	76	93
553.446	554.453	40	77
553.446	554.453	52	77
554.44	555.406	75	89
554.444	555.406	39	75
554.444	555.406	51	75
554.444	555.406	63	89
555.399	555.644	76	75
555.403	555.647	40	71
555.403	555.647	52	71
555.403	555.647	64	75
555.899	556.262	48	68
555.903	556.262	33	37
555.903	556.262	52	68
555.904	556.262	45	37
556.249	556.34	50	61
556.249	556.339	56	61
556.25	556.343	35	35
556.253	556.344	47	35
556.357	556.719	52	64
556.361	556.719	57	64
556.362	556.719	36	39
556.362	556.719	48	39
556.711	556.805	59	63
556.714	556.809	53	63
556.715	556.809	50	36
556.718	556.81	38	36
556.823	557.194	55	65
556.824	557.194	60	65
556.826	557.194	40	41
556.826	557.194	52	41
557.173	557.264	57	67
557.173	557.264	62	67
557.174	557.268	41	38
557.174	557.268	53	38
557.282	557.645	55	70
557.282	557.645	60	70
557.284	557.645	40	45
557.285	557.645	52	45
557.632	557.723	41	39
557.632	557.723	57	55
557.632	557.722	62	67
557.633	557.726	53	39
557.747	558.132	59	70
557.748	558.132	43	44
557.748	558.132	64	70
557.749	558.132	55	44
558.09	558.181	65	67
558.091	558.185	45	40
558.091	558.185	60	56
558.093	558.186	57	40
558.199	558.566	59	71
558.199	558.566	64	71
558.2	558.566	55	46
558.202	558.566	43	46
558.545	558.639	57	60
558.549	558.643	62	70
558.552	558.644	41	44
558.552	558.644	53	44
558.657	559.021	55	73
558.658	559.021	60	73
558.66	559.021	52	46
558.661	559.021	40	46
559.0	559.091	53	60
559.001	559.094	59	70
559.003	559.095	50	44
559.004	559.098	38	44
559.116	559.476	57	73
559.119	559.476	36	50
559.119	559.452	52	73
559.12	559.476	48	50
559.452	559.553	52	64
559.452	559.55	56	77
559.455	559.553	35	46
559.456	559.556	47	46
559.567	559.696	52	68
559.571	559.7	36	51
559.571	559.697	48	51
559.571	559.697	57	82
560.085	561.132	57	100
560.089	561.118	69	100
560.09	561.119	45	85
561.118	562.106	69	93
561.118	562.115	77	93
561.119	562.108	45	74
561.119	562.115	81	93
561.121	562.115	38	74
562.105	563.053	79	98
562.106	563.305	69	98
562.108	563.054	37	71
562.108	563.309	45	71
562.108	563.053	82	98
563.057	563.309	77	89
563.057	563.31	81	89
563.058	563.312	38	71
563.56	563.921	53	67
563.565	563.921	38	44
563.565	563.921	57	67
563.567	563.921	50	44
563.91	564.009	55	62
563.911	564.012	52	37
563.911	564.012	61	62
563.914	564.013	40	37
564.026	564.394	57	66
564.026	564.394	62	66
564.03	564.394	41	42
564.03	564.394	53	42
564.376	564.467	58	64
564.376	564.471	64	64
564.377	564.471	55	40
564.38	564.471	43	40
564.484	564.848	65	67
564.485	564.848	60	67
564.488	564.848	45	43
564.489	564.848	57	43
564.834	564.925	62	64
564.835	564.929	46	42
564.835	564.925	67	64
564.838	564.929	58	42
564.943	565.311	60	68
564.947	565.311	57	45
564.947	565.311	65	68
564.948	565.311	45	45
565.293	565.388	62	55
565.293	565.388	67	67
565.294	565.388	46	39
565.297	565.389	58	39
565.401	565.762	69	71
565.402	565.762	64	71
565.405	565.762	48	44
565.405	565.762	60	44
565.744	565.839	65	56
565.745	565.84	70	67
565.749	565.842	50	40
565.749	565.84	62	40
565.856	566.22	69	72
565.857	566.22	64	72
565.86	566.22	48	46
565.861	566.22	60	46
566.199	566.287	62	60
566.2	566.288	46	44
566.2	566.287	67	70
566.203	566.288	58	44
566.301	566.651	60	74
566.305	566.651	45	46
566.305	566.651	57	46
566.305	566.651	65	74
566.648	566.731	58	60
566.648	566.732	64	70
566.649	566.736	43	44
566.649	566.736	55	44
566.749	567.085	57	75
566.75	567.109	62	75
566.752	567.109	53	50
566.753	567.109	41	50
567.085	567.179	57	64
567.088	567.18	61	77
567.089	567.183	40	46
567.089	567.183	52	46
567.197	567.327	57	68
567.197	567.323	62	82
567.198	567.327	41	51
567.201	567.327	53	51
567.701	568.67	50	89
567.702	568.688	55	89
567.704	568.688	62	99
567.705	568.688	58	99
568.67	568.856	50	81
568.671	568.856	38	72
569.671	570.645	50	90
569.672	570.645	53	90
569.672	570.645	57	100
569.673	570.645	62	100
570.644	570.82	38	72
570.645	570.82	50	81
571.128	571.614	62	82
571.128	572.59	74	92
571.61	572.556	50	77
571.611	572.59	55	77
571.611	572.59	58	86
571.614	572.59	62	86
572.083	572.59	79	91
572.084	572.59	67	81
572.553	573.06	69	83
572.554	573.06	81	93
572.556	572.735	38	61
572.556	572.734	50	68
573.035	573.526	70	81
573.039	573.526	82	91
573.508	574.432	69	82
573.508	574.432	81	92
573.509	574.411	50	72
573.511	574.432	53	72
573.511	574.432	57	81
573.511	574.408	62	81
574.407	574.582	74	85
574.408	574.583	62	76
574.411	574.585	38	65
574.411	574.583	50	73
574.876	575.38	72	84
574.88	575.384	84	94
575.363	576.297	82	96
575.366	576.269	50	72
575.366	576.297	70	86
575.367	576.297	55	72
575.37	576.297	58	81
575.37	576.266	62	81
576.265	576.438	74	91
576.266	576.438	62	81
576.269	576.441	38	65
576.269	576.441	50	73
576.735	577.221	70	85
576.735	577.222	82	95
577.207	578.121	81	91
577.208	578.108	50	73
577.208	578.121	57	82
577.208	578.121	69	81
577.209	578.106	62	82
577.21	578.121	53	73
578.106	578.271	62	74
578.107	578.275	38	64
578.107	578.271	74	83
578.108	578.275	50	72
578.569	579.043	62	86
578.57	579.972	74	96
579.042	579.945	55	79
579.043	579.972	58	79
579.043	579.972	62	88
579.045	579.5	67	88
579.5	579.972	67	84
579.5	579.972	79	94
579.941	580.427	82	105
579.944	580.428	70	94
579.945	580.112	43	65
579.945	580.116	55	73
580.409	580.896	74	92
580.41	580.896	86	103
580.879	581.785	87	110
580.88	581.785	75	99
580.882	581.765	55	74
580.882	581.785	60	74
580.883	581.785	63	83
580.883	581.761	67	83
581.761	581.935	67	74
581.764	581.936	79	83
581.765	581.94	43	65
581.765	581.936	55	73
582.226	582.702	75	94
582.226	582.703	87	105
582.684	583.609	74	94
582.685	583.609	86	105
582.688	583.609	58	73
582.689	583.574	55	73
582.689	583.571	67	82
582.69	583.609	62	82
583.571	583.735	67	74
583.571	583.738	79	83
583.572	583.739	43	64
583.574	583.739	55	72
584.032	585.411	74	87
584.033	585.411	86	97
584.491	585.409	53	73
584.491	585.411	62	82
584.492	585.411	57	73
584.494	585.411	65	82
584.949	585.418	77	85
584.95	585.418	89	95
585.405	586.36	91	104
585.408	586.36	79	93
585.409	586.36	41	66
585.409	586.36	53	74
585.849	586.343	81	90
585.849	586.346	93	100
586.343	587.313	81	98
586.346	587.41	52	76
586.346	587.312	93	109
586.347	587.313	61	85
586.347	587.41	64	85
587.312	588.211	93	105
587.313	588.212	61	75
587.313	588.212	81	94
587.315	588.214	69	84
587.316	588.215	57	75
588.253	589.191	89	89
588.254	589.191	65	82
588.254	589.191	77	80
588.257	589.191	53	73
589.185	589.384	74	72
589.185	589.384	86	81
589.187	589.385	62	73
589.188	589.388	50	65
590.16	591.148	69	52
590.161	591.147	81	52
590.164	591.242	40	44
590.165	591.152	49	44
590.167	591.242	52	44
591.147	592.078	81	52
591.148	592.079	69	52
591.151	592.079	57	40
591.152	592.08	45	40
591.152	592.082	49	40
592.124	593.104	65	49
592.125	593.104	53	40
592.125	593.104	77	49
592.127	593.104	41	40
593.056	593.255	74	45
593.059	593.258	38	40
593.059	593.258	50	40
593.059	593.255	62	45
594.028	594.963	63	37
594.029	594.963	51	34
594.029	594.963	75	37
594.031	594.963	39	34
594.943	595.134	72	27
594.946	595.138	36	26
594.946	595.138	60	27
594.949	595.141	48	26
595.887	596.818	63	34
595.887	596.818	75	34
595.888	596.818	39	33
595.891	596.818	51	33
596.801	596.992	72	27
596.804	596.996	48	24
596.804	596.993	60	27
596.805	596.997	36	24
597.742	598.81	69	34
597.745	598.642	75	34
597.746	598.813	54	33
597.746	598.642	60	33
598.639	598.831	72	27
598.642	598.831	63	24
599.572	600.64	69	34
599.573	600.641	53	33
599.573	600.479	75	34
599.575	600.479	60	33
600.469	600.657	63	24
600.469	600.657	72	27
601.4	602.471	69	34
601.4	602.309	76	34
601.401	602.471	52	33
601.403	602.309	61	33
602.296	602.484	73	27
602.299	602.485	64	24
603.23	604.298	68	34
603.231	604.143	62	33
603.231	604.143	76	34
603.232	604.298	52	33
604.125	604.315	71	27
604.126	604.315	64	24
605.056	605.383	73	34
605.057	605.386	45	20
605.057	605.382	61	34
605.061	605.386	52	20
605.382	605.708	61	29
605.383	605.707	73	29
605.386	605.712	45	16
605.386	605.708	52	16
605.707	606.047	73	29
605.708	606.048	52	16
605.708	606.043	61	29
605.712	606.048	45	16
606.043	607.023	61	23
606.047	607.031	73	27
606.048	607.028	45	16
606.048	607.028	52	16
607.023	607.5	61	39
607.027	608.974	69	39
607.028	607.504	45	20
607.028	607.503	52	20
607.5	607.979	61	34
607.503	607.98	52	16
607.503	608.467	73	34
607.504	607.98	45	16
607.975	608.974	71	38
607.979	608.466	61	38
607.98	608.469	45	19
607.98	608.467	52	19
608.466	608.974	61	35
608.467	608.974	52	15
608.467	608.974	73	35
608.469	608.967	45	15
608.966	609.278	66	39
608.967	609.281	45	23
608.967	609.277	62	39
608.968	609.278	54	23
609.277	609.597	62	30
609.278	609.6	54	19
609.278	609.597	66	30
609.281	609.599	45	19
609.597	609.921	62	30
609.597	609.922	66	30
609.599	609.922	45	17
609.6	609.925	54	17
609.921	610.901	62	25
609.922	610.906	45	15
609.922	610.905	66	25
609.925	610.906	54	15
610.901	611.393	62	38
610.905	611.893	66	38
610.906	611.395	45	20
610.906	611.879	54	20
611.392	611.875	64	31
611.392	611.893	71	31
611.393	611.875	62	31
611.395	611.876	45	15
611.395	611.893	56	15
611.875	612.345	62	37
611.875	612.345	64	37
611.875	612.859	69	37
611.876	612.347	45	19
611.879	612.859	54	19
612.344	612.859	71	29
612.345	612.859	62	29
612.345	612.852	64	29
612.347	612.858	45	15
612.347	612.859	56	15
612.852	613.163	64	36
612.855	613.163	57	23
612.855	613.16	61	36
612.858	613.163	45	23
613.16	613.475	61	29
613.163	613.478	45	18
613.163	613.478	57	18
613.163	613.475	64	29
613.475	613.804	61	29
613.475	614.794	64	29
613.478	613.807	45	17
613.478	614.794	57	17
613.804	614.786	61	20
613.807	614.787	45	15
613.807	614.791	52	15
613.807	614.787	69	25
614.786	615.27	61	50
614.787	615.271	45	23
614.787	616.698	69	50
614.791	615.271	52	23
615.27	615.75	61	40
615.271	615.754	45	18
615.271	615.753	52	18
615.271	616.229	73	40
615.75	616.225	61	42
615.753	616.23	52	26
615.753	616.709	71	42
615.754	616.229	45	26
616.225	616.709	61	42
616.229	616.702	45	22
616.229	616.709	73	42
616.23	616.709	52	22
616.698	616.999	62	48
616.698	617.0	69	48
616.699	617.003	54	31
616.699	616.999	74	48
616.702	617.003	45	31
616.999	617.307	62	40
616.999	617.304	74	40
617.0	617.307	69	40
617.003	617.311	45	23
617.003	617.311	54	23
617.304	617.62	74	40
617.307	617.619	62	40
617.307	617.619	69	40
617.311	617.622	45	22
617.311	617.622	54	22
617.619	618.609	62	36
617.619	618.609	69	36
617.62	618.602	74	36
617.622	618.603	45	17
617.622	618.606	54	17
618.602	618.924	66	42
618.602	618.928	74	42
618.603	620.548	45	56
618.603	618.924	78	42
618.606	620.548	54	56
618.924	619.246	66	38
618.924	619.247	78	38
618.928	619.246	74	38
619.088	620.545	57	53
619.246	619.561	66	38
619.246	619.568	74	38
619.247	619.565	78	38
619.561	620.051	66	42
619.565	620.548	78	42
619.568	620.548	62	56
619.568	620.548	74	42
620.051	620.548	66	58
620.541	620.836	69	40
620.542	620.835	73	40
620.545	620.839	57	26
620.545	620.835	81	40
620.548	620.839	64	26
620.835	621.15	73	36
620.835	621.151	81	36
620.836	621.151	69	36
620.839	621.154	57	22
620.839	621.154	64	22
621.15	621.47	73	36
621.151	621.469	69	36
621.151	621.469	81	36
621.154	621.472	57	22
621.154	621.473	64	22
621.469	622.449	69	23
621.469	622.449	81	27
621.47	622.449	73	23
621.472	622.446	57	17
621.473	622.449	64	17
622.445	623.398	68	45
622.445	622.921	74	45
622.446	622.924	57	24
622.446	623.418	83	45
622.449	622.922	64	24
622.917	623.418	80	36
622.921	623.418	74	36
622.922	623.418	64	19
622.922	623.397	71	36
622.924	623.398	57	19
623.397	624.384	71	41
623.398	623.877	57	22
623.398	624.384	68	22
623.398	624.384	76	41
623.877	624.373	57	19
623.877	624.371	69	34
623.877	624.384	74	34
623.88	624.384	66	19
624.37	624.668	73	35
624.371	624.667	69	35
624.373	624.668	57	24
624.373	624.671	64	24
624.667	624.969	69	27
624.668	624.969	57	19
624.668	624.968	73	27
624.671	624.972	64	19
624.968	625.277	73	26
624.969	625.277	57	19
624.969	625.276	69	26
624.972	625.28	64	19
625.276	626.247	69	19
625.277	626.246	57	15
625.277	626.247	73	23
625.28	626.243	64	15
626.239	627.188	68	44
626.243	626.713	64	24
626.243	626.713	74	44
626.243	627.208	83	44
626.246	626.715	57	24
626.712	627.185	71	33
626.712	627.208	80	33
626.713	627.208	64	18
626.713	627.208	74	33
626.715	627.188	57	18
627.185	628.167	71	38
627.188	627.675	57	22
627.188	628.167	68	22
627.188	628.167	76	38
627.674	628.157	69	33
627.674	628.167	74	33
627.675	628.158	57	19
627.678	628.167	66	19
628.154	628.459	73	35
628.157	628.455	69	35
628.158	628.459	57	29
628.158	628.462	64	29
628.455	628.76	69	31
628.459	628.76	57	26
628.459	628.76	73	31
628.462	628.762	64	26
628.76	629.071	57	22
628.76	629.067	69	28
628.76	629.067	73	28
628.762	629.067	64	22
629.067	630.051	64	15
629.067	630.037	69	19
629.067	630.051	73	23
629.071	630.037	57	15
630.037	630.523	57	25
630.037	630.52	69	35
630.038	631.024	61	25
630.519	631.024	73	31
630.52	631.024	64	23
630.52	631.006	69	26
630.523	631.01	57	23
631.006	631.482	69	29
631.006	631.986	71	35
631.007	631.986	62	25
631.01	631.486	57	25
631.482	631.979	69	27
631.485	631.986	73	33
631.486	631.983	57	24
631.486	631.986	64	24
631.979	632.284	69	34
631.983	632.285	57	25
631.983	632.287	66	25
631.983	632.284	76	34
632.284	632.585	69	30
632.284	632.585	76	30
632.285	632.586	57	20
632.287	632.588	66	20
632.585	632.893	69	29
632.585	633.225	76	29
632.586	632.896	57	20
632.588	632.894	66	20
632.893	633.225	69	18
632.893	633.225	75	24
632.894	633.225	66	15
632.896	633.225	57	15
633.852	634.154	88	37
633.852	634.153	93	37
633.853	634.156	69	22
633.853	634.153	81	37
633.855	634.156	77	22
634.153	634.451	81	31
634.153	634.447	93	31
634.154	634.45	88	31
634.156	634.454	69	19
634.156	634.455	77	19
634.447	634.752	93	30
634.45	635.059	88	30
634.451	634.752	81	30
634.454	634.752	69	19
634.455	634.755	77	19
634.751	635.175	86	24
634.752	635.178	69	8
634.752	635.178	81	24
634.752	635.175	93	24
634.755	635.179	77	9
635.671	635.986	69	34
635.672	635.987	74	34
635.675	635.99	57	25
635.675	635.987	64	25
635.986	636.301	69	29
635.987	636.302	64	20
635.987	636.302	74	29
635.99	636.303	57	20
636.301	636.614	69	29
636.302	636.617	64	22
636.302	636.949	74	29
636.303	636.616	57	22
636.613	637.061	73	27
636.614	637.061	69	27
636.616	637.062	57	12
636.617	637.065	64	13
637.582	637.882	93	37
637.586	637.881	86	37
637.587	637.884	76	22
637.587	637.881	81	37
637.588	637.884	69	22
637.881	638.183	81	33
637.881	638.182	86	33
637.882	638.182	93	33
637.884	638.185	69	19
637.884	638.185	76	19
638.182	638.808	86	30
638.182	638.475	93	30
638.183	638.479	81	30
638.185	638.479	69	20
638.185	638.483	76	20
638.475	638.923	93	27
638.479	638.927	69	13
638.479	638.926	81	27
638.479	638.927	84	27
638.483	638.927	76	13
639.445	639.753	59	85
639.449	639.749	65	85
639.449	639.75	69	85
639.449	639.749	71	85
639.452	639.754	38	59
639.452	639.753	50	59
639.749	640.058	65	79
639.749	640.057	71	79
639.75	640.057	69	79
639.753	640.061	50	53
639.753	640.061	59	79
639.754	640.061	38	53
640.057	640.366	69	73
640.057	640.365	71	73
640.058	640.366	65	73
640.061	640.369	38	49
640.061	640.369	50	49
640.061	640.365	59	73
640.365	640.89	59	57
640.365	640.89	71	57
640.366	640.89	65	57
640.366	640.89	69	57
640.369	640.89	38	34
640.369	640.89	50	34
641.338	641.821	78	46
641.339	641.811	81	46
641.342	641.814	69	39
641.342	641.821	83	55
641.343	641.821	71	39
641.345	641.821	62	39
641.81	642.301	85	46
641.811	642.301	76	37
641.811	642.28	81	37
641.814	642.283	69	34
641.815	642.301	64	34
641.815	642.301	73	34
642.276	642.763	74	42
642.28	642.749	81	42
642.283	642.75	69	37
642.283	642.763	86	50
642.284	642.763	66	37
642.743	643.249	85	46
642.746	643.239	76	37
642.749	643.242	64	36
642.749	643.249	73	36
642.749	643.236	81	37
642.75	643.249	69	36
643.235	643.534	88	50
643.236	643.536	81	50
643.239	643.533	76	50
643.242	643.536	64	36
643.242	643.537	71	36
643.243	643.537	74	36
643.533	643.837	76	42
643.534	643.834	88	42
643.536	643.838	64	34
643.536	643.835	81	42
643.537	643.841	71	34
643.537	643.842	74	34
643.834	644.146	88	41
643.835	644.467	81	41
643.837	644.146	76	41
643.838	644.149	64	29
643.841	644.147	71	29
643.842	644.146	74	29
644.145	644.583	80	28
644.146	644.586	74	15
644.146	644.586	76	23
644.146	644.586	88	23
644.147	644.587	71	15
644.149	644.59	64	15
645.111	645.42	69	37
645.112	645.419	73	37
645.115	645.423	64	27
645.116	645.423	57	27
645.419	645.728	73	30
645.42	645.726	69	30
645.423	645.73	57	24
645.423	645.73	64	24
645.726	646.042	69	29
645.728	646.043	73	29
645.73	646.043	57	24
645.73	646.044	64	24
646.042	646.51	69	23
646.043	646.51	57	23
646.043	646.51	73	23
646.044	646.51	64	16
647.003	647.302	69	85
647.004	647.301	65	85
647.004	647.302	71	85
647.007	647.297	59	85
647.008	647.305	38	63
647.008	647.305	50	63
647.297	647.603	59	79
647.301	647.603	65	79
647.302	647.603	69	79
647.302	647.605	71	79
647.305	647.606	38	55
647.305	647.606	50	55
647.603	647.9	59	72
647.603	647.9	65	72
647.603	647.897	69	72
647.605	647.897	71	72
647.606	647.9	38	51
647.606	647.904	50	51
647.897	648.369	69	56
647.897	648.369	71	56
647.9	648.369	38	35
647.9	648.369	59	56
647.9	648.369	65	56
647.904	648.369	50	35
648.838	649.324	78	46
648.838	649.324	83	55
648.842	649.324	62	39
648.842	649.324	71	39
648.842	649.307	81	46
648.843	649.312	69	39
649.307	649.783	81	41
649.311	649.793	73	36
649.311	649.793	76	41
649.311	649.793	85	49
649.312	649.783	69	36
649.313	649.793	64	36
649.779	650.255	86	53
649.78	650.255	74	44
649.783	650.255	66	39
649.783	650.248	69	39
649.783	650.244	81	44
650.244	650.738	81	39
650.245	650.735	76	39
650.245	650.745	85	47
650.246	650.742	64	36
650.248	650.745	69	36
650.249	650.745	73	36
650.735	651.036	76	50
650.735	651.032	88	50
650.738	651.037	71	36
650.738	651.032	81	50
650.739	651.037	74	36
650.742	651.036	64	36
651.032	651.337	81	47
651.032	651.338	88	47
651.036	651.34	64	33
651.036	651.333	76	47
651.037	651.338	71	33
651.037	651.34	74	33
651.333	651.639	76	47
651.337	651.921	81	47
651.338	651.641	71	33
651.338	651.638	88	47
651.34	651.639	64	33
651.34	651.641	74	33
651.638	652.083	88	27
651.639	652.086	64	17
651.639	652.083	76	26
651.639	652.086	80	33
651.641	652.09	71	17
651.641	652.086	74	17
652.611	652.859	69	106
652.612	652.863	45	83
652.612	652.863	57	95
652.614	652.863	33	74
652.901	653.202	57	88
652.902	653.205	45	73
652.902	653.203	69	97
652.905	653.206	33	66
653.202	653.52	57	78
653.203	653.525	69	86
653.205	653.527	45	67
653.206	653.525	33	59
653.52	653.965	57	69
653.525	653.966	33	50
653.525	653.966	69	77
653.527	653.966	45	57
654.493	656.425	64	36
654.494	654.971	52	22
654.494	654.97	61	36
654.495	654.971	45	22
654.97	655.439	61	30
654.971	655.442	45	17
654.971	655.439	52	17
654.971	655.904	73	30
655.438	656.425	71	37
655.439	655.905	52	20
655.439	655.901	61	37
655.442	655.905	45	20
655.901	656.425	61	30
655.904	656.405	73	30
655.905	656.412	45	16
655.905	656.425	52	16
656.405	657.419	73	39
656.409	657.329	65	24
656.411	657.419	76	39
656.412	657.336	45	16
656.412	657.336	53	16
657.329	657.567	65	22
657.333	657.57	71	23
657.333	657.571	74	23
657.336	657.574	45	8
657.336	657.574	53	8
658.281	659.373	76	39
658.285	659.219	64	29
658.285	659.373	73	39
658.288	659.223	45	23
658.288	659.22	56	23
659.219	659.46	64	19
659.22	659.464	56	9
659.22	659.461	71	23
659.22	659.461	74	23
659.223	659.465	45	9
660.192	660.489	69	95
660.192	660.489	81	106
660.196	660.493	33	73
660.196	660.49	45	82
660.489	660.797	69	89
660.489	660.797	81	100
660.49	660.798	45	75
660.493	660.801	33	68
660.797	661.109	69	84
660.797	661.112	81	94
660.798	661.113	45	73
660.801	661.113	33	66
661.109	661.595	69	67
661.112	661.595	81	74
661.113	661.595	33	51
661.113	661.595	45	58
662.085	662.561	61	38
662.085	664.014	64	38
662.086	662.564	52	25
662.089	662.562	45	25
662.561	663.031	61	31
662.562	663.034	45	18
662.562	663.496	73	31
662.564	663.031	52	18
663.03	664.014	71	42
663.031	663.5	52	27
663.031	663.496	61	42
663.034	663.5	45	27
663.496	664.014	61	38
663.496	664.014	73	38
663.5	664.004	45	22
663.5	664.014	52	22
664.0	664.907	66	37
664.001	664.907	74	44
664.003	664.987	50	28
664.003	664.987	78	44
664.004	664.91	45	28
664.906	665.26	71	23
664.907	665.261	66	19
664.907	665.263	74	23
664.91	665.263	45	12
664.91	665.264	54	16
665.844	666.776	73	41
665.849	666.755	64	35
665.849	666.776	76	41
665.851	666.755	45	25
665.852	666.776	52	25
666.75	667.101	71	25
666.755	667.105	45	14
666.755	667.101	64	24
666.755	667.101	74	25
666.758	667.105	56	18
667.675	668.599	71	35
667.679	668.564	64	35
667.679	668.599	74	41
667.68	668.567	45	25
667.68	668.567	57	25
668.564	668.893	64	23
668.565	668.896	69	23
668.565	668.896	72	25
668.567	668.897	45	4
668.567	668.9	57	12
669.446	670.391	72	42
669.447	670.335	62	36
669.447	670.335	65	36
669.449	670.339	53	25
669.45	670.339	50	25
670.335	670.657	62	24
670.335	670.661	65	23
670.336	670.661	70	25
670.339	670.661	50	12
670.339	670.664	53	12
671.203	672.173	70	41
671.207	672.142	60	35
671.207	672.141	64	35
671.208	672.144	40	24
671.21	672.173	48	24
672.141	673.132	64	39
672.142	672.506	60	20
672.142	672.505	69	25
672.144	672.509	40	14
672.144	673.132	52	29
673.107	674.076	63	37
673.11	674.08	51	34
674.059	674.419	64	35
674.062	674.42	52	33
676.925	677.944	69	29
676.926	677.899	59	41
676.926	677.899	64	29
676.927	677.903	40	19
676.929	677.944	47	33
677.899	678.34	59	25
677.899	678.875	64	39
677.902	678.34	68	25
677.903	678.343	40	16
677.903	678.876	52	35
678.854	679.827	63	37
678.858	679.828	51	35
679.802	680.166	64	35
679.803	680.17	52	34
682.62	684.934	57	28
682.624	684.934	63	28
682.627	684.937	51	22
682.627	684.935	66	28
682.628	684.941	45	22
682.628	684.937	54	22
686.316	688.626	66	28
686.317	688.627	57	28
686.317	688.627	63	28
686.318	688.629	45	20
686.32	688.63	51	20
686.32	688.63	54	20
690.009	690.954	63	34
690.01	690.954	39	31
690.01	690.954	75	34
690.012	690.954	51	31
690.911	691.083	60	25
690.912	691.084	48	24
690.912	691.083	72	25
690.915	691.084	36	24
691.842	692.757	75	31
691.843	692.757	39	30
691.843	692.757	63	31
691.846	692.757	51	30
692.739	692.91	60	25
692.743	692.911	36	22
692.743	692.911	72	25
692.744	692.914	48	22
693.67	694.163	63	36
693.67	694.163	75	36
693.671	694.163	51	30
693.673	694.163	39	30
694.115	694.272	60	34
694.118	694.279	36	23
694.118	694.275	48	23
694.118	694.275	72	34
694.552	695.052	63	46
694.555	695.052	75	46
694.556	695.052	39	39
694.556	695.052	51	39
695.0	695.153	60	40
695.0	695.158	72	40
695.001	695.158	36	30
695.001	695.161	48	30
695.433	695.924	63	59
695.438	695.924	51	52
695.438	695.924	75	59
695.439	695.924	39	52
695.875	696.032	72	57
695.876	696.036	60	57
695.878	696.036	36	50
695.878	696.036	48	50
696.306	696.792	39	66
696.306	696.792	63	71
696.306	696.792	75	71
696.309	696.792	51	66
696.74	696.904	60	66
696.74	696.904	72	66
696.743	696.907	36	58
696.743	696.907	48	58
697.18	697.405	64	92
697.184	697.406	40	72
697.296	697.523	52	41
697.296	697.521	76	82
697.405	697.626	64	78
697.406	697.628	40	53
697.521	697.734	76	74
697.523	697.737	52	38
697.626	697.846	64	69
697.628	697.849	40	47
697.734	697.955	76	66
697.737	697.958	52	40
697.846	698.066	64	62
697.849	698.069	40	47
697.955	698.172	76	60
697.958	698.172	52	37
698.066	698.28	64	70
698.069	698.283	40	42
698.172	698.394	52	33
698.172	698.392	76	67
698.28	698.501	64	65
698.283	698.503	40	42
698.392	698.612	76	62
698.394	698.616	52	35
698.501	698.717	64	70
698.503	698.718	40	41
698.612	698.826	76	67
698.616	698.829	52	32
698.717	698.941	64	64
698.718	698.941	40	42
698.826	698.941	76	61
698.829	698.941	52	31
698.938	699.147	61	96
698.941	699.148	37	75
699.042	699.256	73	84
699.043	699.26	49	37
699.147	699.361	61	79
699.148	699.364	37	50
699.256	699.47	73	74
699.26	699.473	49	35
699.361	699.588	61	69
699.364	699.589	37	49
699.47	699.69	73	65
699.473	699.693	49	32
699.588	699.803	61	62
699.589	699.805	37	42
699.69	699.907	73	55
699.693	699.908	49	33
699.803	700.016	61	73
699.805	700.019	37	43
699.907	700.127	73	69
699.908	700.131	49	32
700.016	700.233	61	66
700.019	700.233	37	43
700.127	700.341	73	56
700.131	700.344	49	33
700.233	700.449	37	43
700.233	700.447	61	72
700.341	700.558	73	69
700.344	700.558	49	35
700.447	700.698	61	66
700.449	700.698	37	42
700.558	700.698	49	37
700.558	700.698	73	63
700.691	701.206	76	102
700.692	701.206	88	102
700.694	701.206	64	83
700.695	701.206	52	83
701.121	701.278	73	94
701.122	701.279	85	94
701.125	701.282	49	72
701.125	701.283	61	72
701.558	702.098	88	101
701.559	702.098	76	101
701.562	702.098	52	83
701.563	702.098	64	83
702.0	702.165	93	94
702.001	702.166	57	72
702.001	702.165	69	72
702.001	702.165	81	94
702.441	702.93	76	93
702.441	702.93	88	93
702.444	702.93	52	73
702.444	702.93	64	73
702.903	703.074	73	86
702.907	703.078	49	66
702.907	703.078	61	66
702.907	703.074	85	86
703.368	703.893	81	78
703.369	703.893	45	57
703.369	703.893	57	57
703.369	703.893	69	78
703.862	704.068	76	68
703.863	704.068	64	68
703.865	704.069	52	44
703.866	704.072	40	44
704.408	706.351	61	34
704.412	706.351	69	34
704.412	706.351	73	34
704.413	708.272	52	27
704.415	708.272	40	27
706.34	708.272	62	38
706.341	708.272	76	38
706.344	708.272	68	38
708.269	708.476	64	97
708.272	708.478	40	71
708.37	708.58	76	90
708.371	708.581	52	38
708.476	709.102	64	86
708.478	709.105	40	47
708.58	709.207	76	83
708.581	709.207	52	35
708.685	708.892	61	88
708.686	708.895	37	66
708.79	708.998	73	85
708.791	709.0	49	37
708.892	710.033	61	82
708.895	711.702	37	42
708.998	709.935	73	78
709.0	709.935	49	35
709.102	709.312	64	87
709.105	709.313	40	63
709.207	709.417	52	41
709.207	709.413	76	85
709.312	710.445	64	83
709.313	711.696	40	51
709.413	710.338	76	80
709.417	710.341	52	38
709.521	709.725	45	67
709.521	709.721	69	89
709.62	709.827	81	86
709.621	709.829	57	40
709.721	710.851	69	84
709.725	711.702	45	52
709.827	710.744	81	81
709.829	710.747	57	40
709.935	710.137	49	72
709.935	710.135	73	94
710.029	710.24	85	92
710.033	710.243	61	47
710.135	711.693	73	90
710.137	711.702	49	61
710.24	711.702	85	88
710.243	711.692	61	48
710.338	710.541	76	102
710.341	710.543	52	79
710.443	710.645	88	98
710.445	710.649	64	52
710.541	711.17	76	94
710.543	711.17	52	63
710.645	711.279	88	90
710.649	711.282	64	56
710.744	710.953	81	109
710.747	710.957	57	84
710.849	711.059	93	100
710.851	711.06	69	57
710.953	711.702	81	94
710.957	711.702	57	66
711.059	711.702	93	88
711.06	711.692	69	53
711.17	711.397	52	73
711.17	711.395	76	83
711.279	711.517	88	77
711.282	711.52	64	46
711.395	711.702	76	70
711.397	711.696	52	57
711.517	711.702	88	60
711.52	711.702	64	45
711.692	713.623	61	35
711.692	713.623	69	35
711.693	713.623	73	35
711.696	715.545	40	28
711.696	715.549	52	28
713.613	715.549	68	36
713.616	715.549	76	43
713.617	715.549	62	36
715.544	716.473	49	34
715.545	716.476	40	26
715.545	716.851	61	34
715.546	716.476	45	26
715.549	716.476	33	26
716.473	716.851	49	21
716.473	716.851	57	21
716.476	716.851	33	13
716.476	716.851	40	13
716.476	716.851	45	13
717.446	718.359	74	42
717.449	718.359	80	42
717.449	718.499	88	42
717.453	718.36	57	26
717.453	718.363	64	26
717.453	718.363	71	26
718.359	718.72	74	28
718.359	718.72	80	28
718.36	718.72	57	11
718.363	718.723	64	11
718.363	718.723	71	11
719.322	720.263	49	34
719.325	720.264	33	26
719.325	720.266	40	26
719.325	720.634	61	34
719.329	720.266	45	26
720.263	720.634	49	23
720.264	720.634	33	12
720.264	720.634	57	23
720.266	720.634	40	12
720.266	720.634	45	12
721.232	722.156	74	42
721.232	722.527	88	42
721.233	722.157	80	42
721.236	722.161	57	26
721.236	722.16	71	26
721.24	722.157	64	26
722.156	722.527	74	28
722.157	722.527	64	11
722.157	722.527	80	28
722.16	722.527	71	11
722.161	722.527	57	11
723.101	724.036	49	34
723.105	724.407	61	34
723.106	724.04	33	26
723.106	724.039	40	26
723.106	724.04	45	26
724.036	724.407	49	20
724.037	724.407	57	20
724.039	724.407	40	12
724.04	724.407	33	12
724.04	724.407	45	12
725.002	725.898	74	42
725.003	725.898	80	42
725.003	726.276	88	42
725.004	725.905	57	26
725.005	725.902	71	26
725.006	725.902	64	26
725.898	726.276	74	26
725.898	726.276	80	26
725.902	726.276	64	11
725.902	726.276	71	11
725.905	726.276	57	11
726.836	727.736	74	42
726.836	727.736	80	42
726.837	727.739	57	26
726.837	728.1	88	42
726.84	727.737	64	26
726.84	727.739	71	26
727.736	728.1	74	28
727.736	728.1	80	28
727.737	728.1	64	11
727.739	728.1	57	11
727.739	728.1	71	11
728.67	729.961	88	42
728.671	729.573	74	42
728.671	729.576	80	42
728.673	729.577	57	26
728.673	729.577	64	26
728.674	729.58	71	26
729.573	729.961	74	28
729.576	729.961	80	28
729.577	729.961	57	11
729.577	729.961	64	11
729.58	729.961	71	11
730.507	734.371	73	98
730.508	734.371	85	98
730.511	734.371	61	78
730.512	734.371	49	78
734.358	738.211	69	24
734.358	738.211	81	38
734.359	738.209	45	22
734.359	738.208	57	35
738.204	739.299	49	24
738.205	739.301	61	30
738.208	739.3	52	24
738.208	739.3	57	24
738.209	739.303	40	13
738.209	739.304	45	17
738.211	739.304	33	13
739.299	740.479	49	24
739.3	740.476	52	24
739.3	740.479	57	24
739.301	740.476	61	30
739.303	740.483	40	13
739.304	740.483	33	13
739.304	740.479	45	17
740.476	747.987	52	24
740.476	747.987	61	30
740.479	747.987	45	17
740.479	747.987	49	24
740.479	747.987	57	24
740.483	747.987	33	13
740.483	747.987	40	13
