OnsetTime	OffsetTime	MidiPitch	Velocity
0.519987	0.578995	50	46
0.771994	2.25194	43	50
0.771994	1.00997	55	50
0.772986	2.25295	31	42
0.848987	1.00997	50	36
0.922976	1.00997	57	36
0.998976	1.06198	58	50
1.26497	1.50396	57	50
1.33997	1.50396	50	36
1.41597	1.50396	58	36
1.49296	1.55595	60	50
1.75595	1.98995	58	50
1.83296	1.98995	50	35
1.90995	1.98995	60	35
1.98695	2.05295	62	50
2.25295	2.49094	55	50
2.32895	2.49094	50	36
2.40295	2.49094	57	36
2.47995	2.54294	58	50
2.48094	2.54394	34	37
2.48094	2.54394	46	44
2.74594	2.98694	48	50
2.74594	2.98694	57	50
2.74693	2.98694	36	42
2.81593	2.98694	51	38
2.88993	2.98694	58	38
2.97292	3.03692	60	50
3.23192	3.47091	54	50
3.23292	3.47091	38	40
3.23593	3.47091	50	48
3.30894	3.47091	48	40
3.38292	3.47091	55	40
3.45992	3.53092	57	50
3.72292	3.96389	43	50
3.72292	3.96389	55	50
3.72391	3.96389	31	42
3.79592	3.96389	50	40
3.8739	3.96389	57	41
3.9509	4.01691	58	50
4.2049	4.32791	57	50
4.38791	4.44391	54	44
4.4469	4.50991	50	58
4.4509	4.5109	38	47
4.70291	6.17885	43	50
4.70291	4.93988	55	50
4.7039	6.18284	31	42
4.7799	4.93988	50	38
4.8529	4.93988	57	38
4.9269	4.98989	58	50
5.19588	5.43386	57	50
5.26989	5.43386	50	38
5.34688	5.43386	58	38
5.42387	5.48587	60	50
5.68587	5.91985	58	50
5.76286	5.91985	50	37
5.84086	5.91985	60	37
5.91685	5.97985	62	50
6.18385	6.41683	55	50
6.25685	6.41683	50	40
6.33384	6.41683	57	40
6.41083	6.46983	58	50
6.41184	6.47384	34	37
6.41184	6.47283	46	44
6.66983	6.91482	48	50
6.66983	6.91482	57	50
6.67083	6.91482	36	42
6.74682	6.91482	51	40
6.82082	6.91482	58	40
6.89681	6.96382	60	50
7.15882	7.40182	59	50
7.16283	7.40182	38	40
7.16582	7.23984	50	48
7.23984	7.40182	50	39
7.31383	7.40182	60	40
7.39082	7.45282	62	50
7.64983	7.89479	60	50
7.65282	7.89479	39	42
7.65282	7.89479	51	50
7.72682	7.89479	55	41
7.80081	7.89479	62	41
7.8808	7.93979	63	50
8.1218	8.3448	59	54
8.18879	8.3448	53	45
8.26581	8.3448	60	45
8.3358	8.3978	62	56
8.33679	8.46081	38	35
8.33881	8.4648	50	42
8.5908	8.8318	39	46
8.5908	8.8318	60	59
8.59181	8.8318	51	55
8.66779	8.8318	55	48
8.74478	8.8318	62	48
8.81778	8.88178	63	59
9.07679	9.31577	63	63
9.08178	9.31577	36	48
9.08178	9.31577	48	57
9.15878	9.31577	55	51
9.23478	9.31577	65	51
9.31178	9.37478	67	61
9.57077	9.81575	38	50
9.57077	9.81575	66	70
9.57178	9.81575	50	59
9.64778	9.81575	54	53
9.72576	9.81575	67	54
9.80176	9.86176	69	71
10.0568	10.1238	62	67
10.3208	10.3858	50	61
10.3208	10.3828	62	64
10.5788	11.5758	43	64
10.5788	10.8238	67	64
10.5798	11.0758	46	64
10.5798	11.0758	55	76
10.6527	10.8238	62	48
10.7338	10.8238	69	48
10.8078	10.8768	70	64
11.0768	11.3307	69	64
11.0788	11.5768	50	68
11.0798	11.5768	57	80
11.1528	11.3307	62	50
11.2297	11.3307	70	50
11.3077	11.3768	72	64
11.5777	11.8358	70	64
11.5797	12.0728	55	71
11.5797	12.0728	58	84
11.6578	11.8358	62	49
11.7308	11.8358	72	49
11.8148	11.8778	74	64
12.0768	12.3107	67	64
12.1508	12.3107	62	50
12.2237	12.3107	69	52
12.3017	12.3707	70	64
12.3027	12.3717	55	72
12.3047	12.3717	46	61
12.5677	13.0607	57	79
12.5677	12.7977	69	64
12.5707	13.0617	48	67
12.5707	13.0607	55	67
12.6447	12.7977	63	52
12.7177	12.7977	70	52
12.7947	12.8607	72	64
13.0637	13.2977	66	64
13.0647	13.5507	54	66
13.0647	13.5477	62	77
13.0677	13.5507	50	61
13.1337	13.2977	60	51
13.2107	13.2977	67	51
13.2947	13.3577	69	64
13.5507	13.7957	67	64
13.5537	14.0227	55	81
13.5547	14.0267	43	68
13.5547	14.0277	46	68
13.6307	13.7957	62	54
13.7057	13.7957	69	54
13.7817	13.8447	70	64
14.0277	14.1417	69	64
14.1977	14.2567	66	52
14.2577	14.3197	62	71
14.2587	14.3207	50	81
14.5057	14.7477	67	64
14.5097	15.5037	43	68
14.5097	15.0027	46	68
14.5107	15.0067	55	80
14.5827	14.7477	62	49
14.6637	14.7477	69	50
14.7367	14.8067	70	64
15.0077	15.2407	69	64
15.0097	15.5037	50	68
15.0097	15.5077	57	81
15.0797	15.2407	62	51
15.1607	15.2407	70	52
15.2377	15.3067	72	64
15.5077	15.7447	70	64
15.5087	16.0217	58	85
15.5107	16.0227	55	72
15.5877	15.7447	62	55
15.6617	15.7447	72	55
15.7377	15.8087	74	64
16.0227	16.2517	75	71
16.0917	16.2517	67	56
16.1687	16.2517	77	56
16.2427	16.3047	79	64
16.2447	16.3057	51	53
16.2457	16.3057	39	45
16.5007	16.7527	69	59
16.5047	16.7527	41	62
16.5047	16.7527	53	74
16.5857	16.7527	60	47
16.6617	16.7527	70	47
16.7357	16.7987	72	59
16.9767	17.2107	74	71
16.9807	17.2107	34	55
16.9807	17.2107	46	65
17.0537	17.2107	65	52
17.1317	17.2107	75	55
17.2007	17.2637	77	65
17.4607	17.7117	51	75
17.4607	17.7117	67	59
17.4637	17.7117	39	63
17.5447	17.7117	58	44
17.6207	17.7117	69	44
17.6977	17.7577	70	59
17.9427	18.1737	72	68
18.0197	18.1737	63	51
18.0937	18.1737	74	51
18.1637	18.4257	45	81
18.1637	18.2257	75	66
18.1667	18.4267	33	68
18.4267	18.6677	66	59
18.4277	18.9197	50	74
18.4297	18.9197	38	62
18.5027	18.6677	57	45
18.5777	18.6677	67	45
18.6497	18.7207	69	58
18.9206	19.1496	72	66
18.9927	19.1496	63	50
19.0706	19.1496	74	51
19.1436	19.2096	75	65
19.1476	19.4056	32	65
19.1476	19.4066	44	77
19.4066	19.6476	66	62
19.4086	19.8996	50	68
19.4096	19.8996	38	57
19.4796	19.6476	57	47
19.5576	19.6476	67	51
19.6336	19.6936	69	60
19.9006	20.1296	72	66
19.9766	20.1296	63	53
20.0506	20.1296	74	50
20.1276	20.3856	33	65
20.1276	20.1866	75	65
20.1286	20.3866	45	77
20.3866	20.6236	66	66
20.3896	21.8906	38	57
20.3896	21.3836	50	68
20.4636	20.6236	57	51
20.5366	20.6236	67	51
20.6206	20.6836	69	64
20.8796	21.1236	60	59
20.9566	21.1236	57	47
21.0376	21.1236	62	45
21.1146	21.1836	63	56
21.3836	21.6396	54	54
21.4676	21.6396	50	38
21.5476	21.6396	55	38
21.6216	21.6906	57	52
21.8906	21.9506	50	50
22.1496	22.2126	50	52
22.1506	22.2166	38	52
22.3976	22.6496	55	50
22.4026	23.8966	31	42
22.4026	23.8996	43	50
22.4836	22.6496	50	37
22.5556	22.6496	57	37
22.6336	22.7026	58	50
22.8986	23.1436	57	50
22.9796	23.1436	50	38
23.0566	23.1436	58	38
23.1416	23.2036	60	50
23.4026	23.6386	58	50
23.4796	23.6386	50	37
23.5536	23.6386	60	39
23.6376	23.6996	62	51
23.8996	24.1346	55	52
23.9736	24.1346	50	40
24.0496	24.1346	57	40
24.1246	24.1936	58	53
24.1276	24.1976	34	39
24.1276	24.1936	46	47
24.3936	24.6346	57	55
24.3945	24.8805	36	46
24.3945	24.8805	48	55
24.4705	24.6346	51	42
24.5435	24.6346	58	42
24.6175	24.6795	60	56
24.8835	25.3735	38	46
24.8835	25.1175	59	57
24.8845	25.3735	50	55
24.9605	25.1175	53	44
25.0305	25.1175	60	49
25.1145	25.1776	62	58
25.3745	25.6145	60	60
25.3765	25.4505	51	60
25.3775	25.8385	39	50
25.4505	25.8385	51	48
25.5245	25.6145	62	49
25.5975	25.6565	63	61
25.8395	26.0765	59	62
25.9125	26.0765	53	53
25.9895	26.0765	60	54
26.0665	26.1325	62	63
26.0675	26.1955	38	50
26.0675	26.1965	50	60
26.3245	26.6725	60	65
26.3255	26.7955	36	54
26.3255	26.7955	48	65
26.4065	26.7955	55	55
26.4825	26.7915	62	56
26.5565	26.7955	63	66
26.6725	26.7955	60	63
26.7915	27.0255	62	67
26.7945	27.2945	38	54
26.7945	27.2955	50	64
26.8645	27.0255	55	58
26.9415	27.0255	63	58
27.0185	27.0845	65	68
27.2955	27.5425	64	70
27.2975	28.0715	37	58
27.2985	28.0725	49	70
27.3765	27.5425	55	60
27.4525	27.5425	66	60
27.5335	27.6725	67	70
27.8095	28.0785	67	75
27.8995	28.0785	58	65
27.9785	28.0785	69	64
28.0695	28.2215	70	75
28.0715	28.3865	37	56
28.0725	28.3865	49	67
28.3875	28.9365	62	73
28.3875	28.9375	74	86
28.3905	28.9405	38	72
28.3905	28.9395	50	85
28.9405	29.4885	62	66
28.9435	29.4895	66	78
28.9445	29.4925	38	64
28.9445	29.4935	50	77
28.9445	29.4895	57	66
29.4935	29.7305	64	70
29.4955	30.2604	49	70
29.4965	30.2604	37	58
29.5705	29.7305	55	60
29.6475	29.7305	66	60
29.7275	29.8664	67	70
30.0075	30.2664	67	77
30.0885	30.2664	58	67
30.1684	30.2664	69	70
30.2594	30.4244	70	82
30.2604	30.5914	37	56
30.2604	30.5914	49	67
30.5924	31.1734	74	80
30.5954	31.1824	70	80
30.5954	31.1824	79	94
30.5964	31.1734	38	79
30.5964	31.1764	50	93
31.1694	31.9424	66	72
31.1734	31.9424	38	70
31.1734	31.9424	69	72
31.1734	31.9424	74	85
31.1764	31.9424	50	84
31.9364	32.9084	62	72
31.9394	32.9084	58	72
31.9394	32.9084	67	85
31.9404	32.9084	31	70
31.9404	32.9084	43	84
33.4544	34.2074	53	43
33.4584	35.6534	34	50
33.4594	35.6534	46	50
33.6474	34.2074	50	30
33.8224	34.2074	55	43
34.2074	34.9464	57	43
34.3854	34.9464	50	36
34.5744	34.9464	58	43
34.9464	35.6534	60	43
35.1204	35.6534	50	31
35.2914	35.6534	62	46
35.6494	36.3784	48	50
35.6534	36.3784	32	50
35.6534	36.3784	63	49
35.8134	36.3784	50	31
35.9814	36.3784	65	56
36.3744	38.5164	47	50
36.3784	38.5164	31	50
36.4014	37.7984	67	62
36.5524	37.1014	50	35
36.7284	37.1014	65	59
37.0884	37.8084	63	56
37.2634	37.8084	50	32
37.4424	37.8084	62	50
37.7984	38.5164	67	59
37.7994	38.5164	60	43
37.9764	38.5164	50	30
38.1514	38.5164	59	41
38.5134	39.2554	57	43
38.5164	39.2554	69	55
38.6834	39.2554	50	30
38.8594	39.2554	71	59
38.8624	39.2554	55	40
39.1464	41.3854	63	60
39.2544	39.9964	48	45
39.2854	41.3854	75	69
39.4324	39.9964	36	31
39.6154	39.9964	50	42
39.9724	40.6824	51	47
40.1504	40.6824	48	32
40.3264	40.6824	53	42
40.6794	41.3854	55	48
40.8544	41.3854	48	32
41.0334	41.3854	57	39
41.0334	42.1664	74	51
41.3854	42.1664	59	42
41.5294	42.1664	72	55
41.6214	42.1664	60	47
41.6704	42.1664	70	53
41.8194	42.1664	69	51
41.8724	42.1664	62	52
41.9814	42.1664	67	50
42.1634	45.1103	65	59
42.1644	43.5873	57	57
42.1654	45.1103	41	57
42.1694	42.9043	63	59
42.3374	42.9043	53	32
42.5274	42.9043	62	53
42.8953	43.5973	60	49
43.0663	43.5973	53	32
43.2303	43.5973	58	48
43.5873	44.2973	57	47
43.7623	44.2903	53	32
43.9443	44.2973	55	43
44.2903	45.1103	53	46
44.4343	45.1103	67	42
44.4733	45.1103	51	45
44.5883	45.1103	69	46
44.6653	45.1103	50	44
44.7393	45.1103	70	50
44.8653	45.1103	48	42
44.9073	45.1103	72	54
45.1063	45.8583	34	34
45.1063	45.8583	74	63
45.1103	45.8583	46	41
45.2773	45.8583	62	32
45.4563	45.8583	72	56
45.8343	46.5563	70	63
45.8353	47.2973	79	63
46.0163	46.5563	58	32
46.2023	46.5563	69	54
46.5553	47.2973	67	48
46.7333	48.0683	58	37
46.9233	47.2973	65	44
46.9243	47.2973	77	52
47.2943	48.0683	64	47
47.2973	47.5813	76	56
47.5013	48.0683	77	32
47.5813	48.0683	76	32
47.6653	48.0683	62	45
47.6683	48.0683	74	53
47.8673	48.0693	60	40
47.8673	48.0673	72	48
48.0673	48.8193	72	53
48.0683	48.8193	45	41
48.2393	48.8193	60	32
48.4073	48.8193	70	53
48.7913	49.5173	69	49
48.7953	50.3033	77	58
48.9693	49.5173	57	32
49.1523	49.5173	67	54
49.5163	50.3033	65	48
49.7053	51.1943	57	37
49.8943	50.3033	76	52
49.8953	50.3033	64	44
50.2933	51.1963	62	47
50.2973	51.1963	47	41
50.2973	51.1963	56	41
50.2973	50.5773	74	56
50.5243	50.7273	76	43
50.5773	50.6853	74	44
50.6303	51.1963	73	45
50.6853	51.1963	74	46
50.7273	51.1963	76	54
50.7343	51.1963	64	45
50.9473	51.1973	65	46
50.9523	51.1933	77	55
51.1933	52.8803	60	41
51.1933	52.0543	77	61
51.1943	52.8803	57	41
51.1963	52.8803	48	41
51.4093	52.0543	65	37
51.6313	52.0543	76	53
52.0543	52.8803	74	58
52.2423	52.8803	65	30
52.6533	52.8763	72	52
52.8763	54.5373	58	41
52.8763	53.6913	72	58
52.8773	54.5373	64	41
52.8803	54.5373	48	41
53.0723	53.6913	60	37
53.2793	53.6913	70	53
53.6893	54.5373	69	58
53.8983	54.5373	60	31
54.3193	54.5363	67	52
54.5363	55.3723	53	43
54.5363	56.1833	67	43
54.5393	57.1533	60	43
54.7313	55.5573	58	37
54.9443	55.3723	52	43
55.3473	56.1833	50	43
55.5603	56.1833	58	37
55.7603	56.1833	48	43
56.1813	57.1533	65	43
56.1903	58.0043	53	43
56.3903	57.1533	57	31
56.6043	57.1533	63	43
57.0463	58.0183	62	47
57.0483	58.0183	41	43
57.2763	58.0183	51	31
57.5143	58.7643	61	40
58.0043	58.7643	53	43
58.0113	60.1883	46	50
58.0123	60.1883	34	50
58.1993	58.7643	50	30
58.3673	58.7643	55	43
58.3823	58.7643	62	43
58.7633	59.4773	57	43
58.9313	59.4773	50	36
59.1243	59.4843	58	43
59.4703	60.1883	60	43
59.6493	60.1883	50	31
59.8163	60.1883	62	46
60.1813	60.9093	48	50
60.1823	60.9093	32	50
60.1843	60.9093	63	49
60.3533	60.9093	50	31
60.5273	60.9163	65	56
60.9063	63.0503	31	50
60.9093	63.0503	47	50
60.9163	62.3273	67	62
61.0833	61.6373	50	35
61.2663	61.6373	65	59
61.6193	62.3363	63	56
61.7903	62.3363	50	32
61.9733	62.3363	62	50
62.3273	63.0503	67	59
62.3303	63.0503	60	43
62.5053	63.0503	50	30
62.6873	63.0503	59	41
63.0443	63.7933	57	43
63.0473	63.7933	69	55
63.2153	63.7933	50	30
63.3933	63.7933	55	40
63.3943	63.7943	71	59
63.6803	65.9213	63	60
63.7933	64.5283	48	45
63.7963	65.9213	75	69
63.9673	64.5283	36	31
64.1533	64.5283	50	42
64.5103	65.2153	51	47
64.6853	65.2153	48	32
64.8603	65.2153	53	42
65.2143	65.9213	55	48
65.3922	65.9213	48	32
65.5702	66.6983	74	51
65.5713	65.9213	57	39
65.9143	66.6983	59	42
66.0622	66.6983	72	55
66.1522	66.6983	60	47
66.2053	66.6983	70	53
66.3583	66.6983	69	51
66.4043	66.6983	62	52
66.5133	66.6983	67	50
66.6803	67.4363	63	59
66.6952	69.6422	41	57
66.6952	69.6422	65	59
66.6983	68.1232	57	57
66.8733	67.4363	53	32
67.0513	67.4363	62	53
67.4292	68.1322	60	49
67.5972	68.1322	53	32
67.7653	68.1322	58	48
68.1232	68.8322	57	47
68.3012	68.8232	53	32
68.4692	68.8322	55	43
68.8232	69.6422	53	46
68.9692	69.6422	67	42
69.0042	69.6422	51	45
69.1202	69.6422	69	46
69.1962	69.6422	50	44
69.2782	69.6422	70	50
69.4002	69.6422	48	42
69.4462	69.6422	72	54
69.6392	70.3982	74	63
69.6412	70.3982	34	34
69.6412	70.3982	46	41
69.8092	70.3982	62	32
69.9922	70.3982	72	56
70.3662	71.0882	70	63
70.3732	71.8322	79	63
70.5482	71.0882	58	32
70.7412	71.0882	69	54
71.0872	71.8322	67	48
71.2722	72.6022	58	37
71.4552	71.8322	65	44
71.4583	71.8322	77	52
71.8263	72.6022	64	47
71.8263	72.1162	76	56
72.0362	72.6022	77	32
72.1162	72.6022	76	32
72.1892	72.6022	74	53
72.1972	72.6022	62	45
72.4002	72.6022	60	40
72.4092	72.5992	72	48
72.5992	73.3512	72	53
72.6002	73.3512	45	41
72.7702	73.3512	60	32
72.9462	73.3512	70	53
73.3252	74.0512	69	49
73.3262	74.8352	77	58
73.5022	74.0512	57	32
73.6912	74.0512	67	54
74.0482	74.8352	65	48
74.2373	75.7292	57	37
74.4263	74.8352	64	44
74.4292	74.8352	76	52
74.8282	75.1132	74	56
74.8292	75.7322	47	41
74.8292	75.7322	62	47
74.8322	75.7322	56	41
75.0562	75.2562	76	43
75.1132	75.2133	74	44
75.1642	75.7322	73	45
75.2133	75.7322	74	46
75.2562	75.7322	76	54
75.2662	75.7322	64	45
75.4722	75.7282	77	55
75.4862	75.7352	65	46
75.7282	76.5872	77	61
75.7292	77.4112	57	41
75.7312	77.4112	48	41
75.7322	77.4112	60	41
75.9442	76.5872	65	37
76.1632	76.5872	76	53
76.5862	77.4112	74	58
76.7742	77.4112	65	30
77.1882	77.4092	72	52
77.4092	79.0702	64	41
77.4092	78.2312	72	58
77.4102	79.0702	58	41
77.4112	79.0702	48	41
77.6072	78.2312	60	37
77.8172	78.2312	70	53
78.2302	79.0702	69	58
78.4302	79.0702	60	31
78.8502	79.0682	67	52
79.0632	79.9032	53	43
79.0682	80.8032	67	43
79.0702	81.9092	60	43
79.2732	80.1032	58	37
79.4862	79.9032	52	43
79.8752	80.8032	50	43
80.1032	80.8032	58	37
80.3162	80.8032	48	43
80.8032	81.9092	65	43
80.8102	81.9092	53	43
81.0482	81.9092	57	31
82.6612	85.6372	41	50
82.7742	83.5052	65	43
82.7832	85.6372	57	50
82.9622	83.5052	63	30
83.1332	83.5052	67	43
83.4872	84.2052	69	43
83.6732	84.2052	63	36
83.8512	84.2062	70	43
84.2012	84.9082	72	43
84.3802	84.9082	63	31
84.5482	84.9082	74	46
84.9012	85.6372	75	49
85.0762	85.6372	63	31
85.2412	85.6372	77	56
85.5352	88.5042	39	50
85.6372	87.0392	58	50
85.6512	86.3462	78	62
85.8082	86.3462	63	35
85.9872	86.3462	77	59
86.3262	87.0392	75	56
86.5042	87.0392	63	32
86.6792	87.0392	73	50
87.0332	90.6162	48	50
87.0372	87.7542	72	43
87.2082	87.7542	63	30
87.3942	87.7542	70	41
87.7482	88.5042	69	43
87.9222	88.5042	63	30
88.1072	88.5042	70	40
88.4922	89.2031	65	36
88.4932	90.6162	41	42
88.5042	89.1861	69	36
88.6702	89.2031	63	25
88.8462	89.2031	67	36
89.1861	89.9071	69	36
89.3742	89.9071	63	30
89.5522	89.9071	70	36
89.9031	90.6162	72	36
90.0811	90.6162	63	26
90.2421	90.6162	73	39
90.6092	91.3422	75	41
90.7781	91.3422	63	26
90.9452	91.3422	77	47
91.2392	92.7451	39	42
91.3411	92.7451	58	42
91.3521	92.0551	78	52
91.5131	92.0551	63	29
91.6911	92.0551	77	50
92.0391	92.7451	75	47
92.2121	92.7451	63	27
92.5601	92.7451	73	42
92.7381	94.2601	42	42
92.7521	93.4591	73	36
92.9131	93.4591	63	25
93.0951	93.4591	72	34
93.4491	93.6231	70	36
93.5361	94.2601	72	36
93.6231	94.2601	70	36
93.6241	94.2601	60	25
93.7951	94.2601	44	34
93.9841	94.2601	68	34
94.2021	94.9221	41	34
94.2021	94.9221	49	34
94.2081	96.3291	73	36
94.3761	95.0891	61	36
94.5511	94.9221	51	29
94.9041	98.1241	53	34
95.0901	95.7941	61	36
95.2651	95.6321	54	34
95.6161	96.3291	56	36
95.7941	96.4841	61	36
95.9611	96.3291	58	36
96.3151	97.0741	60	38
96.4841	96.6581	61	36
96.6581	97.2421	61	38
97.0881	98.4851	62	40
97.2421	97.9501	61	36
97.4241	98.4851	59	39
97.7721	98.4851	56	38
97.9501	98.6571	61	36
98.1241	98.4851	53	37
98.4751	102.564	49	36
98.6571	99.3711	61	36
98.8281	99.9271	47	35
99.1891	99.9271	44	34
99.3711	99.7321	61	36
99.5491	99.9271	41	33
99.7321	100.651	61	36
99.9171	102.566	42	36
100.095	100.651	58	30
100.277	100.651	63	29
100.638	101.348	65	37
100.812	101.348	58	30
100.991	101.348	66	39
101.338	102.044	68	41
101.513	102.044	58	36
101.688	102.044	70	43
102.035	102.791	71	44
102.206	102.791	58	30
102.384	102.791	73	43
102.564	102.791	49	37
102.566	105.776	42	37
102.791	105.332	50	45
102.804	105.783	74	50
102.968	103.686	59	35
103.148	105.783	71	41
103.508	105.783	68	45
103.509	104.225	62	49
103.686	104.576	59	30
103.865	105.783	65	41
104.225	105.783	62	46
104.397	104.943	56	37
104.576	105.783	59	41
104.943	105.783	56	40
105.135	105.783	53	38
105.332	105.783	50	36
105.542	105.783	47	34
105.773	106.51	61	36
105.776	108.657	42	36
105.776	108.425	49	36
105.95	106.51	58	30
106.14	106.51	63	29
106.493	107.203	65	37
106.672	107.203	58	30
106.851	107.203	66	39
107.197	107.9	68	41
107.368	107.9	58	36
107.546	107.9	70	43
107.893	108.657	71	44
108.065	108.657	58	30
108.24	108.657	72	43
108.425	108.657	49	37
108.656	111.694	36	45
108.656	111.694	52	45
108.657	111.694	73	50
108.831	109.562	58	35
109.013	111.694	70	41
109.377	111.694	67	45
109.378	110.123	61	41
109.562	110.512	58	30
109.752	111.694	64	41
110.123	111.694	61	43
110.315	111.694	55	33
110.512	111.694	58	41
110.907	111.827	41	34
110.907	111.711	57	46
111.201	111.712	53	32
111.519	111.712	51	27
111.713	111.828	58	36
111.828	112.576	58	36
111.83	112.576	53	34
111.831	114.021	34	40
111.831	114.021	46	40
112.012	112.576	50	24
112.202	112.576	55	35
112.562	113.311	57	36
112.754	113.311	50	30
112.944	113.311	58	37
113.308	114.021	60	38
113.479	114.021	50	28
113.662	114.021	62	42
114.012	114.74	63	46
114.015	114.74	32	47
114.015	114.74	48	47
114.183	114.74	50	29
114.355	114.74	65	54
114.739	116.881	31	50
114.74	116.881	47	50
114.749	116.165	67	62
114.914	115.467	50	35
115.096	115.467	65	59
115.451	116.167	63	56
115.628	116.167	50	32
115.804	116.167	62	50
116.165	116.881	67	59
116.167	116.881	60	43
116.335	116.881	50	30
116.518	116.881	59	41
116.864	117.624	69	55
116.875	117.624	57	43
117.046	117.624	50	30
117.217	117.624	71	59
117.227	117.624	55	40
117.507	119.758	63	60
117.62	118.358	48	45
117.626	119.758	75	69
117.798	118.358	36	31
117.983	118.358	50	42
118.342	119.051	51	47
118.516	119.051	48	32
118.698	119.051	53	42
119.048	119.758	55	48
119.222	119.758	48	32
119.399	120.529	74	51
119.401	119.758	57	39
119.744	120.529	59	42
119.892	120.529	72	55
119.989	120.529	60	47
120.035	120.529	70	53
120.186	120.529	69	51
120.241	120.529	62	52
120.343	120.529	67	50
120.525	121.267	63	59
120.528	123.472	65	59
120.529	123.472	41	57
120.529	121.96	57	57
120.71	121.267	53	32
120.889	121.267	62	53
121.263	121.963	60	49
121.427	121.963	53	32
121.611	121.963	58	48
121.96	122.663	57	47
122.131	122.653	53	32
122.307	122.663	55	43
122.653	123.472	53	46
122.807	123.472	67	42
122.839	123.472	51	45
122.95	123.472	69	46
123.024	123.472	50	44
123.108	123.472	70	50
123.234	123.472	48	42
123.276	123.472	72	54
123.468	124.228	74	63
123.471	124.228	46	41
123.472	124.228	34	34
123.643	124.228	62	32
123.822	124.228	72	56
124.194	124.918	70	63
124.207	125.662	79	63
124.382	124.918	58	32
124.571	124.918	69	54
124.917	125.662	67	48
125.102	126.43	58	37
125.289	125.662	65	44
125.296	125.662	77	52
125.656	125.947	76	56
125.657	126.43	64	47
125.862	126.43	77	32
125.947	126.43	76	32
126.03	126.43	62	45
126.037	126.43	74	53
126.219	126.426	72	48
126.237	126.433	60	40
126.426	127.185	72	53
126.429	127.185	45	41
126.6	127.185	60	32
126.777	127.185	70	53
127.155	127.887	69	49
127.164	128.672	77	58
127.332	127.887	57	32
127.521	127.887	67	54
127.886	128.672	65	48
128.067	129.562	57	37
128.257	128.672	64	44
128.26	128.672	76	52
128.658	129.565	62	47
128.659	129.565	47	41
128.659	128.946	74	56
128.662	129.565	56	41
128.894	129.103	76	43
128.946	129.045	74	44
128.994	129.565	73	45
129.045	129.565	74	46
129.089	129.565	64	45
129.103	129.565	76	54
129.299	129.565	65	46
129.309	129.559	77	55
129.559	130.417	77	61
129.56	131.241	48	41
129.562	131.242	57	41
129.562	131.242	60	41
129.775	130.417	65	37
129.999	130.417	76	53
130.416	131.242	74	58
130.611	131.242	65	30
131.019	131.238	72	52
131.238	132.061	72	58
131.239	132.901	58	41
131.239	132.901	64	41
131.241	132.901	48	41
131.438	132.061	60	37
131.645	132.061	70	53
132.061	132.901	69	58
132.26	132.898	60	31
132.684	132.898	67	52
132.898	133.74	53	43
132.898	135.739	60	43
132.898	134.633	67	43
133.104	133.933	58	37
133.307	133.74	52	43
133.72	134.633	50	43
133.934	135.739	58	37
134.154	134.633	48	43
134.631	135.739	65	43
134.633	135.739	53	43
134.879	135.739	57	31
136.622	139.468	41	50
136.622	139.468	57	50
136.625	137.329	65	43
136.793	137.329	63	30
136.958	137.329	67	43
137.322	138.035	69	43
137.503	138.035	63	36
137.688	138.036	70	43
138.024	138.742	72	43
138.203	138.742	63	31
138.378	138.742	74	46
138.747	139.468	75	49
138.907	139.468	63	31
139.085	139.477	77	56
139.365	142.333	39	50
139.467	140.871	58	50
139.478	140.177	78	62
139.638	140.177	63	35
139.814	140.177	77	59
140.167	140.871	75	56
140.338	140.871	63	32
140.503	140.871	73	50
140.864	144.448	48	50
140.867	141.586	72	43
141.035	141.586	63	30
141.231	141.586	70	41
141.584	142.309	69	43
141.752	142.333	63	30
141.927	142.333	70	40
142.309	143.026	69	36
142.32	143.033	65	36
142.323	144.448	41	42
142.502	143.033	63	25
142.687	143.04	67	36
143.026	143.737	69	36
143.205	143.737	63	30
143.376	143.737	70	36
143.74	144.448	72	36
143.912	144.448	63	26
144.08	144.448	73	39
144.448	145.172	75	41
144.608	145.172	63	26
144.777	145.172	77	47
145.071	146.575	39	42
145.168	146.575	58	42
145.182	145.886	78	52
145.343	145.886	63	29
145.521	145.886	77	50
145.869	146.575	75	47
146.044	146.575	63	27
146.39	146.568	73	42
146.568	147.282	73	36
146.569	148.09	42	42
146.743	147.282	63	25
146.926	147.282	72	34
147.28	147.454	70	36
147.363	148.09	72	36
147.454	148.09	60	25
147.454	148.09	70	36
147.633	148.09	44	34
147.812	148.09	68	34
148.021	148.752	49	34
148.032	148.752	41	34
148.032	150.156	73	36
148.206	148.92	61	36
148.385	148.752	51	29
148.746	151.959	53	34
148.921	149.624	61	36
149.095	149.459	54	34
149.456	150.156	56	36
149.624	150.314	61	36
149.806	150.156	58	36
150.138	150.905	60	38
150.314	150.489	61	36
150.489	151.074	61	38
150.919	152.315	62	40
151.074	151.78	61	36
151.255	152.315	59	39
151.602	152.315	56	38
151.78	152.48	61	36
151.959	152.315	53	37
152.304	156.394	49	36
152.48	153.198	61	36
152.658	153.757	47	35
153.02	153.757	44	34
153.198	153.562	61	36
153.38	153.757	41	33
153.562	154.482	61	36
153.747	156.397	42	36
153.925	154.482	58	30
154.107	154.482	63	29
154.465	155.179	65	37
154.643	155.179	58	30
154.822	155.179	66	39
155.168	155.874	68	41
155.343	155.874	58	36
155.518	155.874	70	43
155.865	156.627	71	44
156.036	156.627	58	30
156.214	156.627	73	43
156.394	156.627	49	37
156.397	159.606	42	37
156.625	159.162	50	45
156.634	159.613	74	50
156.799	157.513	59	35
156.978	159.613	71	41
157.339	158.053	62	49
157.339	159.613	68	45
157.513	158.406	59	30
157.693	159.613	65	41
158.053	159.613	62	46
158.227	158.774	56	37
158.406	159.613	59	41
158.774	159.613	56	40
158.965	159.613	53	38
159.162	159.613	50	36
159.372	159.613	47	34
159.603	160.338	61	36
159.606	162.487	42	36
159.606	162.256	49	36
159.789	160.338	58	30
159.964	160.338	63	29
160.324	161.033	65	37
160.502	161.033	58	30
160.677	161.033	66	39
161.031	161.73	68	41
161.198	161.73	58	36
161.374	161.73	70	43
161.723	162.487	71	44
161.895	162.487	58	30
162.071	162.487	72	43
162.256	162.487	49	37
162.484	165.525	36	45
162.486	165.525	52	45
162.493	165.525	73	50
162.662	163.389	58	35
162.843	165.525	70	41
163.209	163.953	61	41
163.209	165.525	67	45
163.389	164.342	58	30
163.582	165.525	64	41
163.953	165.525	61	43
164.145	165.525	55	33
164.342	165.525	58	41
164.737	165.542	57	46
164.738	165.654	41	34
165.027	165.542	53	32
165.349	165.543	51	27
165.543	165.657	58	36
165.658	166.406	53	34
165.662	167.845	34	40
165.662	167.845	46	40
165.662	166.406	58	36
165.843	166.406	50	24
166.021	166.406	55	35
166.385	167.142	57	36
166.585	167.142	50	30
166.764	167.142	58	37
167.138	167.845	60	38
167.316	167.845	50	28
167.492	167.845	62	42
167.828	168.574	63	46
167.842	168.574	32	47
167.842	168.574	48	47
168.013	168.574	50	29
168.188	168.577	65	54
168.573	170.712	47	50
168.574	170.712	31	50
168.58	169.995	67	62
168.745	169.297	50	35
168.927	169.297	65	59
169.281	169.998	63	56
169.459	169.998	50	32
169.634	169.998	62	50
169.995	170.712	67	59
169.998	170.712	60	43
170.166	170.712	50	30
170.349	170.712	59	41
170.705	171.454	69	55
170.708	171.454	57	43
170.876	171.454	50	30
171.058	171.454	71	59
171.062	171.454	55	40
171.345	173.585	63	60
171.447	172.188	48	45
171.454	173.585	75	69
171.629	172.188	36	31
171.8	172.188	50	42
172.174	172.878	51	47
172.346	172.878	48	32
172.525	172.879	53	42
172.881	173.585	55	48
173.053	173.585	48	32
173.229	174.359	74	51
173.233	173.585	57	39
173.575	174.359	59	42
173.722	174.359	72	55
173.82	174.359	60	47
173.865	174.359	70	53
174.016	174.359	69	51
174.069	174.359	62	52
174.174	174.359	67	50
174.356	177.303	65	59
174.357	175.79	57	57
174.357	175.097	63	59
174.359	177.303	41	57
174.537	175.097	53	32
174.72	175.097	62	53
175.087	175.791	60	49
175.258	175.791	53	32
175.44	175.791	58	48
175.79	176.494	57	47
175.962	176.484	53	32
176.138	176.494	55	43
176.484	177.303	53	46
176.631	177.303	67	42
176.669	177.303	51	45
176.78	177.303	69	46
176.854	177.303	50	44
176.935	177.303	70	50
177.058	177.303	48	42
177.103	177.303	72	54
177.3	178.058	74	59
177.302	178.058	34	34
177.303	178.058	46	41
177.47	178.058	62	32
177.653	178.058	72	55
178.024	178.749	70	65
178.027	179.507	66	40
178.212	178.749	62	32
178.401	178.749	69	54
178.765	179.507	79	69
178.923	179.507	67	32
179.102	179.507	77	56
179.476	180.204	75	64
179.477	180.204	69	32
179.657	180.204	65	32
179.854	180.204	74	54
179.855	180.204	70	30
180.202	180.959	46	41
180.202	180.959	72	59
180.372	180.959	60	32
180.547	180.959	70	51
180.925	181.65	68	57
180.929	182.402	63	40
181.11	181.65	60	32
181.3	181.65	67	52
181.66	182.402	77	65
181.825	182.402	65	32
182.0	182.402	75	56
182.377	183.099	74	64
182.378	183.099	67	32
182.559	183.099	63	32
182.752	183.099	68	30
182.752	183.099	72	54
183.096	183.854	70	59
183.099	184.565	46	41
183.273	183.854	62	32
183.452	183.854	68	51
183.827	184.562	67	57
184.012	184.565	56	32
184.201	184.565	34	41
184.201	184.565	66	52
184.562	185.342	39	41
184.562	185.342	67	59
184.744	185.342	55	32
184.926	185.342	63	51
185.315	186.116	62	53
185.317	186.119	33	29
185.317	187.554	45	35
185.499	186.119	55	32
185.692	186.119	61	48
186.116	186.903	62	53
186.118	187.624	38	36
186.371	186.903	57	41
186.63	186.903	55	41
186.889	187.554	54	48
187.289	187.733	52	28
187.289	187.732	55	34
187.291	187.735	46	31
187.624	188.506	38	35
187.736	188.507	54	40
187.74	188.51	45	41
187.74	188.509	57	48
187.74	188.51	62	48
188.807	188.87	50	46
188.808	188.87	38	42
189.055	189.301	55	50
189.058	190.536	43	50
189.059	190.536	31	42
189.14	189.301	50	35
189.216	189.301	57	35
189.29	189.352	58	50
189.556	189.794	57	50
189.626	189.794	50	38
189.707	189.794	58	39
189.784	189.846	60	50
190.049	190.281	58	50
190.126	190.281	50	36
190.2	190.281	60	36
190.277	190.34	62	50
190.539	190.781	55	50
190.62	190.781	50	37
190.696	190.781	57	37
190.77	190.833	58	50
190.774	190.833	34	37
190.774	190.834	46	44
191.029	191.274	57	50
191.032	191.274	36	42
191.032	191.274	48	50
191.107	191.274	51	38
191.183	191.274	58	38
191.257	191.326	60	50
191.523	191.761	54	50
191.527	191.761	38	40
191.527	191.761	50	48
191.6	191.761	48	37
191.674	191.761	55	37
191.751	191.813	57	50
192.013	192.254	55	50
192.014	192.254	31	42
192.014	192.254	43	50
192.086	192.254	50	39
192.163	192.254	57	39
192.242	192.303	58	50
192.5	192.614	57	50
192.678	192.737	54	44
192.738	192.804	38	49
192.738	192.804	50	58
192.985	193.23	55	50
192.986	194.467	31	42
192.989	194.467	43	50
193.063	193.23	50	37
193.14	193.23	57	37
193.214	193.283	58	50
193.48	193.717	57	50
193.557	193.717	50	39
193.638	193.717	58	39
193.707	193.777	60	50
193.98	194.21	58	50
194.057	194.21	50	37
194.131	194.21	60	37
194.208	194.27	62	50
194.47	194.704	55	50
194.544	194.704	50	39
194.621	194.704	57	39
194.695	194.764	58	50
194.697	194.764	34	37
194.698	194.765	46	44
194.96	195.204	57	50
194.961	195.204	36	42
194.963	195.204	48	50
195.038	195.204	51	39
195.114	195.204	58	39
195.188	195.25	60	50
195.45	195.688	38	40
195.45	195.688	59	50
195.451	195.533	50	48
195.533	195.688	50	38
195.605	195.688	60	38
195.682	195.744	62	50
195.943	196.177	60	50
195.944	196.177	39	42
195.944	196.177	51	50
196.017	196.177	55	42
196.094	196.177	62	44
196.171	196.227	63	50
196.413	196.63	59	54
196.483	196.63	53	50
196.552	196.63	60	50
196.627	196.689	62	56
196.629	196.756	38	35
196.63	196.756	50	42
196.881	197.123	60	59
196.885	197.123	51	55
196.886	197.123	39	46
196.958	197.123	55	51
197.032	197.123	62	51
197.109	197.171	63	59
197.372	197.609	48	57
197.372	197.609	63	63
197.373	197.609	36	48
197.445	197.609	55	53
197.523	197.609	65	54
197.599	197.665	67	61
197.858	198.107	66	70
197.859	198.107	38	50
197.861	198.107	50	59
197.939	198.107	54	57
198.016	198.107	67	57
198.086	198.152	69	71
198.352	198.415	62	67
198.614	198.677	50	70
198.614	198.677	62	73
198.866	199.117	67	64
198.867	199.367	46	64
198.873	199.37	55	76
198.874	199.867	43	64
198.944	199.117	62	49
199.02	199.117	69	49
199.101	199.163	70	64
199.37	199.622	69	64
199.373	199.868	57	80
199.374	199.87	50	68
199.444	199.622	62	50
199.521	199.622	70	50
199.601	199.661	72	64
199.87	200.126	70	64
199.871	200.368	55	71
199.871	200.368	58	84
199.944	200.126	62	49
200.025	200.126	72	49
200.098	200.168	74	64
200.368	200.602	67	64
200.442	200.602	62	51
200.518	200.602	69	51
200.592	200.658	70	64
200.595	200.658	55	72
200.596	200.659	46	61
200.854	201.088	69	64
200.855	201.348	48	67
200.857	201.348	55	67
200.857	201.348	57	79
200.935	201.088	63	50
201.012	201.088	70	50
201.086	201.148	72	64
201.349	201.589	66	64
201.351	201.841	54	66
201.351	201.841	62	77
201.352	201.842	50	61
201.429	201.589	60	50
201.502	201.589	67	50
201.579	201.642	69	64
201.842	202.082	67	64
201.844	202.317	46	68
201.844	202.317	55	81
201.845	202.317	50	68
201.915	202.082	62	51
201.999	202.082	69	51
202.073	202.135	70	64
202.318	202.432	69	64
202.485	202.541	66	52
202.545	202.608	50	71
202.545	202.608	62	62
202.796	203.041	67	64
202.797	203.797	43	68
202.8	203.297	46	68
202.8	203.297	55	80
202.874	203.041	62	49
202.957	203.041	69	49
203.028	203.094	70	64
203.297	203.535	69	64
203.301	203.798	50	68
203.301	203.797	57	81
203.375	203.535	62	52
203.455	203.535	70	52
203.528	203.597	72	64
203.798	204.035	70	64
203.801	204.319	55	72
203.801	204.32	58	85
203.875	204.035	62	49
203.952	204.035	72	49
204.029	204.105	74	64
204.32	204.542	75	71
204.39	204.542	67	51
204.466	204.542	77	51
204.533	204.595	79	64
204.535	204.599	39	45
204.535	204.595	51	53
204.795	205.05	41	62
204.795	205.05	53	74
204.795	205.05	69	59
204.876	205.05	60	46
204.952	205.05	70	51
205.034	205.103	72	59
205.309	205.536	74	71
205.31	205.536	34	55
205.313	205.536	46	65
205.387	205.536	65	53
205.456	205.536	75	53
205.533	205.595	77	65
205.792	206.036	51	75
205.792	206.036	67	59
205.793	206.036	39	63
205.869	206.036	58	47
205.945	206.036	69	47
206.027	206.082	70	59
206.267	206.502	72	68
206.345	206.502	63	54
206.414	206.502	74	54
206.492	206.744	33	68
206.492	206.555	75	66
206.493	206.744	45	81
206.747	207.237	50	74
206.747	206.992	66	59
206.748	207.238	38	62
206.821	206.992	57	46
206.897	206.992	67	46
206.975	207.037	69	58
207.238	207.475	72	66
207.315	207.475	63	51
207.387	207.475	74	51
207.465	207.534	75	65
207.466	207.724	44	77
207.468	207.727	32	65
207.727	207.975	66	62
207.731	208.221	38	57
207.731	208.22	50	68
207.808	207.975	57	51
207.882	207.975	67	46
207.959	208.021	69	60
208.221	208.459	72	66
208.295	208.459	63	50
208.375	208.459	74	50
208.448	208.711	33	65
208.448	208.515	75	65
208.449	208.711	45	77
208.712	208.955	66	66
208.714	210.208	38	57
208.715	209.705	50	68
208.788	208.955	57	53
208.865	208.955	67	53
208.945	209.008	69	64
209.2	209.455	60	59
209.282	209.455	57	47
209.362	209.455	62	47
209.446	209.508	63	56
209.705	209.963	54	51
209.785	209.963	50	43
209.869	209.963	55	43
209.949	210.013	57	52
210.209	210.278	50	50
210.471	210.534	50	52
210.472	210.537	38	52
210.727	212.203	31	42
210.727	210.965	55	50
210.73	212.207	43	50
210.801	210.965	50	38
210.878	210.965	57	39
210.954	211.017	58	50
211.22	211.458	57	50
211.297	211.458	50	39
211.371	211.458	58	39
211.448	211.51	60	50
211.714	211.945	58	50
211.791	211.945	50	38
211.865	211.945	60	38
211.941	212.008	62	51
212.207	212.445	55	52
212.281	212.445	50	42
212.358	212.445	57	42
212.435	212.498	46	47
212.435	212.497	58	53
212.438	212.498	34	39
212.7	212.942	57	55
212.701	213.187	36	46
212.701	213.187	48	55
212.775	212.942	51	43
212.845	212.942	58	43
212.925	212.988	60	56
213.188	213.425	59	57
213.19	213.674	50	55
213.191	213.677	38	46
213.264	213.425	53	46
213.341	213.425	60	46
213.415	213.477	62	58
213.677	213.919	60	60
213.678	214.146	39	50
213.681	213.754	51	60
213.754	214.146	51	48
213.824	213.919	62	49
213.901	213.964	63	61
214.147	214.384	59	62
214.223	214.384	53	51
214.297	214.384	60	52
214.371	214.433	62	63
214.374	214.503	38	50
214.374	214.506	50	60
214.633	215.105	48	65
214.633	214.976	60	65
214.634	215.105	36	54
214.71	215.105	55	55
214.786	215.102	62	56
214.86	215.105	63	66
214.976	215.105	60	63
215.102	215.602	38	54
215.102	215.602	50	64
215.102	215.336	62	67
215.175	215.336	55	58
215.249	215.336	63	58
215.322	215.392	65	68
215.606	216.38	49	70
215.606	215.851	64	70
215.607	216.38	37	58
215.679	215.851	55	60
215.76	215.851	66	60
215.84	215.98	67	70
216.12	216.382	67	75
216.204	216.382	58	65
216.288	216.382	69	64
216.379	216.449	70	75
216.38	216.694	37	56
216.38	216.695	49	67
216.697	217.244	62	73
216.698	217.247	38	72
216.698	217.247	74	86
216.699	217.247	50	85
217.251	217.797	57	66
217.251	217.797	62	66
217.252	217.798	66	78
217.254	217.8	38	64
217.254	217.8	50	77
217.801	218.041	64	70
217.804	218.562	37	58
217.804	218.563	49	70
217.87	218.041	55	60
217.955	218.041	66	60
218.031	218.168	67	70
218.307	218.571	67	77
218.396	218.571	58	67
218.476	218.571	69	70
218.56	218.643	70	82
218.562	218.899	37	56
218.563	218.9	49	67
218.902	219.481	74	80
218.903	219.484	70	80
218.903	219.484	79	94
218.907	219.484	38	79
218.907	219.484	50	93
219.48	219.868	66	72
219.481	219.868	69	72
219.481	219.868	74	85
219.484	220.243	38	70
219.484	220.239	50	84
219.861	220.244	65	79
220.244	220.377	80	85
220.245	220.659	43	84
220.246	220.659	31	70
220.307	220.443	68	64
220.377	220.443	80	64
220.439	220.551	56	72
220.439	220.547	77	77
220.66	220.867	77	85
220.663	220.867	69	70
220.731	220.867	56	56
220.731	220.867	65	63
220.794	220.867	75	63
220.796	220.867	58	56
220.866	220.971	74	77
220.867	220.974	59	66
221.076	221.283	65	70
221.076	221.283	74	85
221.15	221.283	53	56
221.15	221.283	62	65
221.219	221.283	72	65
221.22	221.283	55	56
221.282	221.388	71	77
221.283	221.391	56	66
221.5	221.707	71	85
221.504	221.707	62	70
221.574	221.707	50	56
221.574	221.707	59	65
221.637	221.707	68	65
221.638	221.707	51	56
221.704	221.812	67	77
221.706	221.815	53	66
221.919	222.134	67	85
221.92	222.134	51	66
221.92	222.134	63	66
221.991	222.134	60	67
222.056	222.134	71	67
222.126	222.241	72	77
222.354	223.586	31	75
222.354	223.303	72	86
222.357	223.45	43	75
222.424	223.586	63	71
222.494	223.586	74	68
222.564	222.787	75	79
222.787	223.586	75	94
222.861	223.586	67	80
222.931	223.586	77	77
223.002	223.586	36	67
223.002	223.233	79	92
223.005	223.586	48	67
223.233	223.586	51	73
223.233	223.586	79	90
223.235	223.586	39	73
223.303	223.586	72	81
223.369	223.586	83	83
223.45	223.586	43	70
223.45	223.586	84	97
223.451	223.586	55	70
223.705	224.131	45	80
223.705	223.915	87	97
223.708	224.132	43	80
223.708	224.132	57	96
223.775	223.915	75	77
223.845	223.915	86	77
223.909	224.02	84	87
223.911	224.02	66	82
224.132	224.338	84	95
224.135	224.338	78	78
224.202	224.338	66	62
224.202	224.338	72	74
224.272	224.338	67	61
224.272	224.338	82	74
224.335	224.443	81	84
224.338	224.444	69	72
224.555	224.762	81	91
224.556	224.762	75	75
224.626	224.762	67	71
224.629	224.762	63	59
224.695	224.762	65	59
224.695	224.762	79	71
224.759	224.866	78	81
224.761	224.867	66	69
224.975	225.186	78	88
224.979	225.186	69	72
225.053	225.186	60	58
225.053	225.186	66	68
225.119	225.186	75	68
225.12	225.186	61	57
225.182	225.301	74	78
225.185	225.304	62	67
225.426	225.633	82	93
225.427	225.854	43	77
225.427	225.854	55	92
225.496	225.633	70	74
225.567	225.633	81	74
225.63	225.734	79	83
225.631	225.739	63	78
225.857	226.061	79	91
225.858	226.057	75	75
225.927	226.061	67	71
225.928	226.061	63	60
225.99	226.061	65	59
225.99	226.061	77	71
226.057	226.168	75	82
226.061	226.169	67	70
226.281	226.707	55	88
226.281	226.49	82	89
226.348	226.49	70	68
226.418	226.49	81	68
226.488	226.596	63	68
226.488	226.596	79	80
226.708	226.914	79	87
226.711	226.912	75	72
226.778	226.914	67	67
226.781	226.914	63	57
226.849	226.914	77	67
226.851	226.914	65	57
226.912	227.019	75	78
226.914	227.023	67	67
227.124	227.335	82	85
227.125	227.548	55	84
227.194	227.335	70	67
227.261	227.335	81	67
227.331	227.44	63	66
227.331	227.439	79	77
227.548	227.757	79	85
227.551	227.755	75	70
227.614	227.757	67	64
227.618	227.757	63	55
227.685	227.757	77	64
227.687	227.757	65	55
227.755	227.856	75	76
227.757	227.857	67	65
227.968	228.172	72	69
227.968	228.175	75	84
228.038	228.174	63	65
228.041	228.175	60	54
228.101	228.175	74	65
228.104	228.175	62	54
228.172	228.278	72	75
228.174	228.282	63	64
228.384	228.592	72	83
228.385	228.592	66	64
228.455	228.592	60	62
228.521	228.592	70	62
228.591	228.699	69	74
228.592	228.801	50	64
228.804	229.01	70	82
228.805	229.01	43	64
228.874	229.01	58	62
228.938	229.01	69	62
229.008	229.116	67	73
229.009	229.221	51	63
229.221	229.431	67	81
229.222	229.427	63	67
229.291	229.428	55	63
229.295	229.431	51	53
229.361	229.431	65	63
229.365	229.431	53	53
229.427	229.536	63	73
229.428	229.536	55	62
229.644	229.852	70	80
229.645	229.852	43	62
229.71	229.852	58	62
229.781	229.852	69	62
229.851	229.952	67	72
229.852	230.06	51	62
230.064	230.271	67	79
230.065	230.268	63	65
230.128	230.27	55	60
230.131	230.271	51	52
230.198	230.271	53	52
230.198	230.271	65	60
230.268	230.368	63	71
230.27	230.373	55	61
230.481	230.683	43	61
230.481	230.683	70	79
230.544	230.683	58	61
230.614	230.683	69	61
230.681	230.898	51	61
230.681	230.789	67	71
230.898	231.1	67	78
230.901	231.098	63	64
230.964	231.1	55	59
230.965	231.1	51	51
231.027	231.1	65	59
231.03	231.1	53	51
231.098	231.201	63	70
231.1	231.202	55	60
231.31	231.518	63	77
231.311	231.517	60	63
231.381	231.518	51	58
231.385	231.518	48	50
231.447	231.518	62	58
231.448	231.518	50	50
231.517	231.618	60	70
231.518	231.619	51	60
231.727	231.933	60	76
231.73	231.933	54	59
231.793	231.933	48	58
231.864	231.933	58	60
231.927	232.035	57	69
231.93	232.147	38	59
232.147	232.35	31	58
232.147	232.35	58	75
232.21	232.35	46	58
232.28	232.35	57	58
232.347	232.552	38	58
232.347	232.448	55	68
232.553	232.756	54	58
232.553	232.756	60	74
232.616	232.756	48	58
232.687	232.756	58	62
232.752	232.853	57	67
232.756	232.958	38	58
232.959	233.162	58	73
232.962	233.162	31	57
233.022	233.162	46	57
233.092	233.162	57	57
233.159	233.252	55	66
233.162	233.361	38	57
233.361	233.561	60	73
233.362	233.561	54	56
233.424	233.561	48	60
233.491	233.561	58	59
233.56	233.655	57	66
233.561	233.76	38	56
233.76	233.96	62	76
233.761	234.94	31	59
233.764	234.941	43	59
233.826	233.96	46	62
233.89	233.96	60	62
233.954	234.058	58	70
234.155	234.349	67	79
234.219	234.349	55	64
234.283	234.349	63	64
234.348	234.447	62	72
234.544	234.747	70	81
234.615	234.747	58	67
234.675	234.747	69	68
234.737	234.842	67	74
234.941	235.135	74	84
235.003	235.135	62	69
235.066	235.135	70	71
235.126	235.226	69	77
235.127	235.328	38	66
235.128	235.328	50	66
235.329	235.524	79	86
235.332	236.486	31	67
235.332	236.491	43	67
235.395	235.524	67	72
235.458	235.524	75	73
235.514	235.619	74	80
235.717	235.913	82	89
235.78	235.913	70	74
235.847	235.913	81	75
235.903	236.0	79	82
236.102	236.301	86	91
236.165	236.301	74	76
236.229	236.301	84	77
236.295	236.389	82	84
236.491	236.686	91	94
236.554	236.686	79	78
236.617	236.686	87	79
236.676	236.908	86	87
236.677	236.908	38	74
236.679	236.908	50	74
236.903	239.67	94	109
236.904	237.473	82	88
236.907	239.67	31	68
236.908	239.67	43	76
237.316	237.807	79	81
237.316	239.67	91	88
237.473	237.971	82	88
237.639	238.132	74	81
237.642	239.67	86	88
237.807	238.297	79	88
237.971	238.458	70	81
237.971	239.67	82	88
238.132	238.623	74	88
238.296	238.787	67	81
238.297	239.67	79	88
238.458	238.954	70	88
238.623	239.112	62	81
238.623	239.67	74	88
238.787	239.283	67	88
238.952	239.445	58	81
238.954	239.67	70	88
239.112	239.67	62	88
239.281	242.412	55	81
239.283	239.67	67	88
239.445	239.67	58	88
239.665	240.712	60	68
239.669	240.88	48	98
239.669	241.047	63	88
239.669	242.412	68	96
240.032	242.412	56	92
240.197	242.412	54	78
240.372	242.412	57	78
240.372	241.713	69	85
240.536	242.412	51	78
240.712	242.412	60	78
240.88	242.412	48	78
241.047	242.412	63	78
241.215	242.412	45	78
241.376	242.412	66	78
241.544	242.412	42	78
241.713	242.412	69	78
241.877	242.412	39	78
242.037	242.412	72	78
242.206	242.412	36	78
242.406	242.745	62	78
242.406	242.748	67	82
242.409	242.748	70	88
242.41	242.749	31	78
242.41	242.752	43	85
242.753	243.077	67	85
242.755	243.078	79	92
242.91	243.235	70	92
243.081	243.403	62	85
243.082	243.404	74	92
243.235	243.567	67	92
243.406	243.728	58	85
243.407	243.729	70	92
243.568	243.889	62	92
243.729	244.057	55	85
243.732	244.061	67	92
243.89	244.222	58	92
244.061	244.383	50	85
244.062	244.386	62	92
244.222	244.557	55	92
244.386	244.736	46	85
244.387	244.74	58	92
244.558	244.928	50	92
244.741	248.034	43	85
244.741	245.15	55	92
244.932	245.15	46	92
245.153	246.22	48	68
245.153	246.567	51	83
245.154	248.034	56	95
245.157	246.393	36	100
245.524	248.034	44	92
245.695	248.034	42	78
245.874	248.034	45	78
245.874	247.278	57	85
246.045	248.034	39	78
246.22	248.034	48	78
246.393	246.57	36	78
246.567	248.034	51	78
246.57	248.034	36	78
246.738	248.034	33	78
246.92	248.034	54	78
247.096	248.034	30	78
247.278	248.034	57	78
247.449	248.034	27	78
247.627	248.034	60	78
247.806	248.034	24	78
248.03	248.772	50	75
248.031	249.164	55	79
248.033	251.079	31	81
248.033	248.964	58	88
248.405	250.186	46	78
248.583	249.976	62	78
248.772	249.766	50	79
248.964	249.563	58	81
249.164	249.364	55	81
249.364	254.429	55	82
249.563	254.429	58	85
249.766	254.429	50	85
249.976	254.429	62	87
250.186	254.429	46	88
250.403	254.429	67	88
250.62	254.429	43	94
250.848	254.429	70	91
251.079	254.429	31	103
251.379	254.429	79	101
