# onset,offset,note,velocity
0.500004	1.503849	63.000000	72.000000
0.500004	1.256777	67.000000	72.000000
0.500004	1.256777	75.000000	88.000000
0.500004	2.008225	51.000000	58.000000
0.500004	2.008225	58.000000	70.000000
1.256777	1.503849	67.000000	73.000000
1.503849	2.008225	70.000000	84.000000
1.503849	2.008225	67.000000	70.000000
1.503849	2.008225	63.000000	70.000000
2.008225	2.255297	72.000000	78.000000
2.008225	2.255297	67.000000	64.000000
2.008225	2.512829	63.000000	64.000000
2.008225	2.512829	51.000000	44.000000
2.008225	2.512829	58.000000	52.000000
2.008225	2.512829	46.000000	44.000000
2.255297	2.512829	67.000000	73.000000
2.512829	3.526772	70.000000	80.000000
2.512829	3.526772	63.000000	67.000000
2.512829	3.526772	67.000000	67.000000
2.512829	4.014478	58.000000	64.000000
2.512829	4.014478	51.000000	53.000000
3.526772	4.014478	63.000000	62.000000
3.526772	4.014478	67.000000	66.000000
3.526772	3.768721	70.000000	81.000000
3.768721	4.014478	72.000000	70.000000
4.014478	4.505993	63.000000	68.000000
4.014478	4.256414	67.000000	81.000000
4.014478	4.505993	51.000000	49.000000
4.014478	4.505993	58.000000	58.000000
4.014478	4.505993	46.000000	49.000000
4.256414	4.505993	72.000000	68.000000
4.505993	5.514733	70.000000	80.000000
4.505993	5.514733	67.000000	67.000000
4.505993	5.514733	63.000000	67.000000
4.505993	6.019109	51.000000	54.000000
4.505993	6.019109	58.000000	65.000000
5.514733	6.523472	63.000000	68.000000
5.514733	6.523472	67.000000	68.000000
5.514733	6.523472	70.000000	81.000000
6.019109	6.523472	46.000000	50.000000
6.019109	6.523472	58.000000	61.000000
6.019109	6.523472	51.000000	50.000000
6.523472	7.280030	77.000000	84.000000
6.523472	7.280030	65.000000	70.000000
6.523472	8.032725	70.000000	70.000000
6.523472	8.032725	62.000000	67.000000
6.523472	8.032725	58.000000	56.000000
6.523472	8.032725	51.000000	56.000000
7.280030	7.528349	79.000000	77.000000
7.280030	7.528349	67.000000	64.000000
7.528349	8.032725	65.000000	70.000000
7.528349	8.032725	77.000000	84.000000
8.032725	8.533346	68.000000	68.000000
8.032725	8.278523	60.000000	68.000000
8.032725	8.278523	72.000000	81.000000
8.032725	8.533346	53.000000	56.000000
8.032725	8.533346	46.000000	46.000000
8.278523	8.533346	62.000000	66.000000
8.278523	8.533346	74.000000	78.000000
8.533346	9.542085	75.000000	84.000000
8.533346	9.542085	63.000000	70.000000
8.533346	9.542085	67.000000	70.000000
8.533346	10.035948	51.000000	56.000000
8.533346	10.035948	58.000000	67.000000
9.542085	9.785992	63.000000	67.000000
9.542085	10.035948	67.000000	67.000000
9.542085	9.785992	75.000000	80.000000
9.785992	10.035948	62.000000	58.000000
9.785992	10.035948	74.000000	69.000000
10.035948	10.282738	72.000000	75.000000
10.035948	10.282738	60.000000	63.000000
10.035948	10.540270	68.000000	63.000000
10.035948	10.540270	46.000000	46.000000
10.035948	10.540270	53.000000	56.000000
10.282738	10.540270	74.000000	64.000000
10.282738	10.540270	62.000000	53.000000
10.540270	12.047874	67.000000	65.000000
10.540270	12.047874	63.000000	65.000000
10.540270	11.549009	58.000000	65.000000
10.540270	12.047874	70.000000	77.000000
10.540270	11.796846	51.000000	65.000000
11.549009	12.548857	58.000000	72.000000
11.796846	12.047874	50.000000	63.000000
12.047874	12.548857	70.000000	71.000000
12.047874	12.548857	68.000000	59.000000
12.047874	12.548857	65.000000	59.000000
12.047874	12.296756	48.000000	59.000000
12.047874	12.548857	46.000000	50.000000
12.296756	12.548857	50.000000	56.000000
12.548857	14.058566	67.000000	62.000000
12.548857	14.058566	70.000000	73.000000
12.548857	13.557596	58.000000	60.000000
12.548857	14.058566	63.000000	60.000000
12.548857	13.806465	51.000000	60.000000
13.557596	14.568495	58.000000	72.000000
13.806465	14.058566	50.000000	63.000000
14.058566	14.568495	65.000000	59.000000
14.058566	14.568495	68.000000	59.000000
14.058566	14.568495	70.000000	71.000000
14.058566	14.568495	46.000000	50.000000
14.058566	14.307449	48.000000	59.000000
14.307449	14.568495	50.000000	56.000000
14.568495	15.572339	63.000000	72.000000
14.568495	15.325267	67.000000	73.000000
14.568495	15.325267	75.000000	88.000000
14.568495	16.076715	58.000000	70.000000
14.568495	16.076715	51.000000	58.000000
15.325267	15.572339	67.000000	73.000000
15.572339	16.076715	70.000000	84.000000
15.572339	16.076715	67.000000	70.000000
15.572339	16.076715	63.000000	70.000000
16.076715	16.323787	72.000000	78.000000
16.076715	16.323787	67.000000	64.000000
16.076715	16.581320	63.000000	64.000000
16.076715	16.581320	46.000000	44.000000
16.076715	16.581320	58.000000	52.000000
16.076715	16.581320	51.000000	44.000000
16.323787	16.581320	67.000000	73.000000
16.581320	17.595262	70.000000	80.000000
16.581320	17.595262	67.000000	67.000000
16.581320	17.595262	63.000000	67.000000
16.581320	18.082969	51.000000	53.000000
16.581320	18.082969	58.000000	64.000000
17.595262	18.082969	67.000000	66.000000
17.595262	18.082969	63.000000	62.000000
17.595262	17.837211	70.000000	81.000000
17.837211	18.082969	72.000000	70.000000
18.082969	18.574484	63.000000	68.000000
18.082969	18.324904	67.000000	81.000000
18.082969	18.574484	51.000000	49.000000
18.082969	18.574484	46.000000	49.000000
18.082969	18.574484	58.000000	58.000000
18.324904	18.574484	72.000000	68.000000
18.574484	19.583223	63.000000	67.000000
18.574484	19.583223	70.000000	80.000000
18.574484	19.583223	67.000000	67.000000
18.574484	20.087599	58.000000	65.000000
18.574484	20.087599	51.000000	54.000000
19.583223	20.591962	70.000000	81.000000
19.583223	20.591962	67.000000	68.000000
19.583223	20.591962	63.000000	68.000000
20.087599	20.591962	51.000000	50.000000
20.087599	20.591962	46.000000	50.000000
20.087599	20.591962	58.000000	61.000000
20.591962	21.348520	77.000000	84.000000
20.591962	21.348520	65.000000	70.000000
20.591962	22.101216	70.000000	70.000000
20.591962	22.101216	51.000000	56.000000
20.591962	22.101216	58.000000	56.000000
20.591962	22.101216	62.000000	67.000000
21.348520	21.596839	67.000000	64.000000
21.348520	21.596839	79.000000	77.000000
21.596839	22.101216	65.000000	70.000000
21.596839	22.101216	77.000000	84.000000
22.101216	22.347013	72.000000	81.000000
22.101216	22.347013	60.000000	68.000000
22.101216	22.601837	68.000000	68.000000
22.101216	22.601837	53.000000	56.000000
22.101216	22.601837	46.000000	46.000000
22.347013	22.601837	62.000000	66.000000
22.347013	22.601837	74.000000	78.000000
22.601837	23.610576	67.000000	70.000000
22.601837	23.610576	63.000000	70.000000
22.601837	23.610576	75.000000	84.000000
22.601837	24.107335	58.000000	67.000000
22.601837	24.107335	51.000000	56.000000
23.610576	23.857380	63.000000	67.000000
23.610576	24.107335	67.000000	67.000000
23.610576	23.857380	75.000000	80.000000
23.857380	24.107335	62.000000	58.000000
23.857380	24.107335	74.000000	69.000000
24.107335	24.354125	72.000000	75.000000
24.107335	24.354125	60.000000	63.000000
24.107335	24.611657	68.000000	63.000000
24.107335	24.611657	53.000000	56.000000
24.107335	24.611657	46.000000	46.000000
24.354125	24.611657	74.000000	64.000000
24.354125	24.611657	62.000000	53.000000
24.611657	26.119261	70.000000	73.000000
24.611657	26.119261	67.000000	62.000000
24.611657	25.620397	63.000000	62.000000
24.611657	26.119261	51.000000	62.000000
24.611657	26.119261	58.000000	62.000000
25.620397	25.868233	63.000000	70.000000
25.868233	26.119261	62.000000	66.000000
26.119261	26.620244	66.000000	59.000000
26.119261	26.620244	72.000000	71.000000
26.119261	26.368143	60.000000	61.000000
26.119261	26.620244	44.000000	50.000000
26.119261	26.620244	50.000000	50.000000
26.368143	26.620244	62.000000	58.000000
26.620244	27.885309	67.000000	74.000000
26.620244	27.641791	60.000000	62.000000
26.620244	27.885309	62.000000	62.000000
26.620244	27.885309	43.000000	52.000000
26.620244	27.885309	50.000000	62.000000
27.641791	27.885309	59.000000	63.000000
27.885309	28.125689	41.000000	63.000000
28.125689	28.596283	55.000000	80.000000
28.125689	28.360986	39.000000	63.000000
28.360986	28.596283	38.000000	63.000000
28.596283	28.713925	60.000000	75.000000
28.596283	28.713925	36.000000	67.000000
28.831566	28.945198	43.000000	61.000000
29.058830	29.518829	63.000000	66.000000
29.058830	29.518829	67.000000	80.000000
29.058830	29.518829	60.000000	61.000000
29.058830	29.173334	48.000000	63.000000
29.287837	29.403333	43.000000	59.000000
29.518829	29.746093	62.000000	67.000000
29.518829	29.632461	36.000000	67.000000
29.746093	29.858451	43.000000	59.000000
29.970808	30.425148	65.000000	67.000000
29.970808	30.425148	67.000000	81.000000
29.970808	30.425148	62.000000	62.000000
29.970808	30.084011	48.000000	62.000000
30.197214	30.311181	43.000000	59.000000
30.425148	30.655188	63.000000	73.000000
30.425148	30.540161	36.000000	68.000000
30.655188	30.768391	43.000000	60.000000
30.881593	31.105477	62.000000	58.000000
30.881593	31.334538	65.000000	58.000000
30.881593	31.334538	67.000000	69.000000
30.881593	30.993535	48.000000	63.000000
31.105477	31.334538	60.000000	71.000000
31.105477	31.220008	43.000000	60.000000
31.334538	31.563599	59.000000	66.000000
31.334538	31.449069	36.000000	67.000000
31.563599	31.678129	43.000000	60.000000
31.792660	32.244934	67.000000	80.000000
31.792660	32.244934	55.000000	60.000000
31.792660	32.244934	65.000000	63.000000
31.792660	31.905728	48.000000	63.000000
32.018797	32.131866	43.000000	59.000000
32.244934	32.474692	60.000000	75.000000
32.244934	32.359813	36.000000	67.000000
32.474692	32.586433	43.000000	61.000000
32.698174	33.155384	60.000000	66.000000
32.698174	33.155384	67.000000	80.000000
32.698174	33.155384	63.000000	66.000000
32.698174	32.811283	48.000000	63.000000
32.924392	33.039888	43.000000	59.000000
33.155384	33.381602	57.000000	67.000000
33.155384	33.268493	36.000000	67.000000
33.381602	33.494710	43.000000	59.000000
33.607819	33.833125	57.000000	66.000000
33.607819	34.061059	65.000000	66.000000
33.607819	34.061059	67.000000	81.000000
33.607819	33.720472	48.000000	62.000000
33.833125	34.061059	59.000000	67.000000
33.833125	33.947092	43.000000	59.000000
34.061059	34.292051	60.000000	75.000000
34.061059	34.176555	36.000000	67.000000
34.292051	34.404221	43.000000	61.000000
34.516405	34.971469	63.000000	66.000000
34.516405	34.971469	67.000000	80.000000
34.516405	34.971469	60.000000	66.000000
34.516405	34.629514	48.000000	63.000000
34.742622	34.857045	43.000000	59.000000
34.971469	35.197686	75.000000	71.000000
34.971469	35.197686	79.000000	85.000000
34.971469	35.197686	67.000000	71.000000
34.971469	35.197686	72.000000	71.000000
34.971469	35.084577	36.000000	67.000000
35.197686	35.310795	43.000000	59.000000
35.423904	35.878217	67.000000	81.000000
35.423904	35.878217	55.000000	67.000000
35.423904	35.536557	48.000000	62.000000
35.649210	35.763713	43.000000	59.000000
35.878217	36.106366	72.000000	75.000000
35.878217	36.106366	67.000000	75.000000
35.878217	36.106366	63.000000	75.000000
35.878217	36.106366	60.000000	75.000000
35.878217	35.992291	36.000000	67.000000
36.106366	36.218308	43.000000	61.000000
36.330250	36.785475	60.000000	66.000000
36.330250	36.785475	72.000000	80.000000
36.330250	36.443359	48.000000	63.000000
36.556467	36.670971	55.000000	59.000000
36.785475	37.009359	62.000000	66.000000
36.785475	37.009359	74.000000	80.000000
36.785475	37.009359	71.000000	66.000000
36.785475	37.009359	67.000000	66.000000
36.785475	36.897417	55.000000	67.000000
37.009359	37.121301	48.000000	59.000000
37.233243	37.686697	62.000000	67.000000
37.233243	37.686697	74.000000	81.000000
37.233243	37.345896	43.000000	62.000000
37.458548	37.572623	36.000000	59.000000
37.686697	37.913103	67.000000	75.000000
37.686697	37.913103	63.000000	75.000000
37.686697	37.913103	75.000000	75.000000
37.686697	37.913103	72.000000	75.000000
37.686697	37.799900	36.000000	67.000000
37.913103	38.025461	43.000000	61.000000
38.137818	38.360040	62.000000	66.000000
38.137818	38.360040	74.000000	80.000000
38.137818	38.248929	48.000000	63.000000
38.360040	38.581429	72.000000	80.000000
38.360040	38.581429	60.000000	66.000000
38.360040	38.470734	55.000000	59.000000
38.581429	38.806145	62.000000	66.000000
38.581429	38.806145	67.000000	66.000000
38.581429	38.806145	71.000000	66.000000
38.581429	38.806145	74.000000	80.000000
38.581429	38.693787	55.000000	67.000000
38.806145	38.918087	48.000000	59.000000
39.030029	39.484342	55.000000	67.000000
39.030029	39.484342	67.000000	81.000000
39.030029	39.142682	43.000000	62.000000
39.255335	39.369838	36.000000	59.000000
39.484342	39.712491	60.000000	79.000000
39.484342	39.712491	72.000000	79.000000
39.484342	39.598416	36.000000	70.000000
39.712491	39.824017	43.000000	63.000000
39.935543	40.381970	75.000000	74.000000
39.935543	40.381970	79.000000	88.000000
39.935543	40.381970	67.000000	74.000000
39.935543	40.381970	72.000000	74.000000
39.935543	40.047485	48.000000	67.000000
40.159427	40.270699	55.000000	62.000000
40.381970	40.608188	63.000000	71.000000
40.381970	40.608188	75.000000	85.000000
40.381970	40.495079	55.000000	72.000000
40.608188	40.721297	48.000000	62.000000
40.834406	41.059711	62.000000	72.000000
40.834406	41.059711	67.000000	72.000000
40.834406	41.059711	71.000000	72.000000
40.834406	41.059711	74.000000	86.000000
40.834406	40.947059	43.000000	65.000000
41.059711	41.301929	75.000000	86.000000
41.059711	41.301929	63.000000	72.000000
41.059711	41.180800	36.000000	62.000000
41.301929	41.538204	60.000000	73.000000
41.301929	41.538204	72.000000	86.000000
41.301929	41.538204	36.000000	64.000000
41.538204	41.780475	75.000000	99.000000
41.538204	41.780475	79.000000	99.000000
41.538204	41.780475	67.000000	83.000000
41.538204	41.780475	72.000000	83.000000
41.538204	41.780475	51.000000	59.000000
41.538204	41.780475	55.000000	70.000000
41.538204	41.780475	60.000000	70.000000
41.538204	41.780475	48.000000	59.000000
41.780475	42.754815	77.000000	100.000000
41.780475	42.754815	80.000000	100.000000
41.780475	42.754815	68.000000	83.000000
41.780475	42.754815	72.000000	83.000000
41.780475	42.662976	56.000000	59.000000
41.780475	42.662976	65.000000	70.000000
41.780475	42.662976	60.000000	70.000000
41.780475	42.662976	53.000000	59.000000
42.662976	43.238686	46.000000	53.000000
42.693580	43.238686	53.000000	53.000000
42.724198	43.238686	58.000000	63.000000
42.754815	43.238686	70.000000	81.000000
42.754815	43.238686	74.000000	81.000000
42.754815	43.238686	77.000000	96.000000
42.754815	43.238686	82.000000	96.000000
42.754815	43.238686	62.000000	63.000000
43.238686	43.475954	67.000000	78.000000
43.238686	43.475954	70.000000	78.000000
43.238686	43.475954	79.000000	92.000000
43.238686	43.475954	75.000000	92.000000
43.238686	43.475954	63.000000	66.000000
43.238686	43.475954	55.000000	56.000000
43.238686	43.475954	58.000000	66.000000
43.238686	43.475954	51.000000	56.000000
43.475954	43.718225	75.000000	92.000000
43.475954	43.718225	72.000000	78.000000
43.475954	43.718225	67.000000	78.000000
43.475954	43.718225	79.000000	92.000000
43.475954	43.718225	63.000000	66.000000
43.475954	43.718225	60.000000	66.000000
43.718225	44.692578	77.000000	99.000000
43.718225	44.692578	72.000000	83.000000
43.718225	44.692578	68.000000	83.000000
43.718225	44.692578	80.000000	99.000000
43.718225	44.600726	56.000000	59.000000
43.718225	44.600726	53.000000	59.000000
43.718225	44.600726	65.000000	70.000000
43.718225	44.600726	60.000000	70.000000
44.600726	45.183423	46.000000	61.000000
44.631343	45.183423	53.000000	61.000000
44.661961	45.183423	58.000000	73.000000
44.692578	45.183423	77.000000	99.000000
44.692578	45.183423	82.000000	99.000000
44.692578	45.183423	74.000000	83.000000
44.692578	45.183423	70.000000	83.000000
44.692578	45.183423	62.000000	73.000000
45.183423	45.428845	67.000000	81.000000
45.183423	45.428845	70.000000	81.000000
45.183423	45.428845	75.000000	96.000000
45.183423	45.428845	79.000000	96.000000
45.183423	45.428845	58.000000	66.000000
45.183423	45.428845	55.000000	56.000000
45.183423	45.428845	51.000000	56.000000
45.183423	45.428845	63.000000	66.000000
45.679873	45.792486	87.000000	79.000000
45.679873	45.792486	79.000000	79.000000
45.679873	45.792486	67.000000	73.000000
45.679873	45.792486	60.000000	73.000000
45.792486	45.905098	75.000000	70.000000
45.905098	46.017711	72.000000	67.000000
46.017711	46.130324	75.000000	70.000000
46.130324	46.242936	86.000000	79.000000
46.130324	46.242936	79.000000	79.000000
46.130324	46.242936	62.000000	74.000000
46.130324	46.242936	59.000000	74.000000
46.242936	46.355549	74.000000	62.000000
46.355549	46.468161	71.000000	67.000000
46.468161	46.580774	74.000000	63.000000
46.580774	46.694285	84.000000	77.000000
46.580774	46.694285	78.000000	77.000000
46.580774	46.694285	62.000000	72.000000
46.580774	46.694285	56.000000	72.000000
46.694285	46.807796	72.000000	63.000000
46.807796	46.921308	68.000000	62.000000
46.921308	47.034819	72.000000	63.000000
47.034819	47.148330	74.000000	75.000000
47.034819	47.148330	79.000000	75.000000
47.034819	47.148330	83.000000	75.000000
47.034819	47.148330	55.000000	71.000000
47.034819	47.148330	62.000000	71.000000
47.148330	47.261841	71.000000	62.000000
47.261841	47.378651	67.000000	59.000000
47.378651	47.495462	71.000000	62.000000
47.495462	47.608973	80.000000	77.000000
47.495462	47.608973	74.000000	77.000000
47.495462	47.608973	71.000000	77.000000
47.495462	47.608973	53.000000	70.000000
47.608973	47.722484	68.000000	60.000000
47.722484	47.836156	65.000000	57.000000
47.836156	47.950123	68.000000	61.000000
47.950123	48.064090	72.000000	75.000000
47.950123	48.064090	79.000000	75.000000
47.950123	48.064090	51.000000	67.000000
48.064090	48.178527	67.000000	58.000000
48.178527	48.292963	63.000000	56.000000
48.292963	48.407561	67.000000	58.000000
48.407561	48.522467	67.000000	73.000000
48.407561	48.522467	71.000000	73.000000
48.407561	48.522467	77.000000	73.000000
48.407561	48.522467	50.000000	63.000000
48.522467	48.637373	65.000000	57.000000
48.637373	48.752761	62.000000	58.000000
48.752761	48.868150	65.000000	57.000000
48.868150	49.104426	63.000000	73.000000
48.868150	49.104426	75.000000	86.000000
48.868150	49.104426	67.000000	73.000000
48.868150	49.104426	72.000000	73.000000
48.868150	49.104426	48.000000	64.000000
49.104426	49.346697	67.000000	83.000000
49.104426	49.346697	72.000000	83.000000
49.104426	49.346697	75.000000	99.000000
49.104426	49.346697	79.000000	99.000000
49.104426	49.346697	63.000000	70.000000
49.104426	49.346697	60.000000	70.000000
49.346697	50.321037	68.000000	83.000000
49.346697	50.321037	72.000000	83.000000
49.346697	50.321037	80.000000	100.000000
49.346697	50.321037	77.000000	100.000000
49.346697	50.229198	56.000000	59.000000
49.346697	50.229198	65.000000	70.000000
49.346697	50.229198	60.000000	70.000000
49.346697	50.229198	53.000000	59.000000
50.229198	50.804907	46.000000	53.000000
50.259802	50.804907	53.000000	53.000000
50.290419	50.804907	58.000000	63.000000
50.321037	50.804907	77.000000	96.000000
50.321037	50.804907	74.000000	81.000000
50.321037	50.804907	70.000000	81.000000
50.321037	50.804907	82.000000	96.000000
50.321037	50.804907	62.000000	63.000000
50.804907	51.042176	75.000000	92.000000
50.804907	51.042176	70.000000	78.000000
50.804907	51.042176	67.000000	78.000000
50.804907	51.042176	79.000000	92.000000
50.804907	51.042176	63.000000	66.000000
50.804907	51.042176	55.000000	56.000000
50.804907	51.042176	58.000000	66.000000
50.804907	51.042176	51.000000	56.000000
51.042176	51.284446	75.000000	92.000000
51.042176	51.284446	79.000000	92.000000
51.042176	51.284446	67.000000	78.000000
51.042176	51.284446	72.000000	78.000000
51.042176	51.284446	60.000000	66.000000
51.042176	51.284446	63.000000	66.000000
51.284446	52.258786	68.000000	83.000000
51.284446	52.258786	80.000000	99.000000
51.284446	52.258786	77.000000	99.000000
51.284446	52.258786	72.000000	83.000000
51.284446	52.166934	56.000000	59.000000
51.284446	52.166934	60.000000	70.000000
51.284446	52.166934	65.000000	70.000000
51.284446	52.166934	53.000000	59.000000
52.166934	52.749631	46.000000	61.000000
52.197551	52.749631	53.000000	61.000000
52.228169	52.749631	58.000000	73.000000
52.258786	52.749631	70.000000	83.000000
52.258786	52.749631	82.000000	99.000000
52.258786	52.749631	74.000000	83.000000
52.258786	52.749631	77.000000	99.000000
52.258786	52.749631	62.000000	73.000000
52.749631	52.995053	67.000000	81.000000
52.749631	52.995053	70.000000	81.000000
52.749631	52.995053	75.000000	96.000000
52.749631	52.995053	79.000000	96.000000
52.749631	52.995053	63.000000	66.000000
52.749631	52.995053	58.000000	66.000000
52.749631	52.995053	55.000000	56.000000
52.749631	52.995053	51.000000	56.000000
53.244485	53.357581	79.000000	79.000000
53.244485	53.357581	75.000000	79.000000
53.244485	53.357581	51.000000	73.000000
53.244485	53.357581	58.000000	73.000000
53.357581	53.470676	67.000000	70.000000
53.470676	53.583772	63.000000	67.000000
53.583772	53.696424	67.000000	70.000000
53.696424	53.809077	80.000000	79.000000
53.696424	53.809077	75.000000	79.000000
53.696424	53.809077	58.000000	74.000000
53.696424	53.809077	53.000000	74.000000
53.809077	53.921730	68.000000	62.000000
53.921730	54.033927	65.000000	67.000000
54.033927	54.146124	68.000000	63.000000
54.146124	54.258321	82.000000	77.000000
54.146124	54.258321	75.000000	77.000000
54.146124	54.258321	58.000000	72.000000
54.146124	54.258321	55.000000	72.000000
54.258321	54.370089	70.000000	63.000000
54.370089	54.481856	67.000000	62.000000
54.481856	54.593476	70.000000	63.000000
54.593476	54.705244	84.000000	75.000000
54.593476	54.705244	75.000000	75.000000
54.593476	54.705244	56.000000	71.000000
54.593476	54.705244	63.000000	71.000000
54.705244	54.817012	72.000000	62.000000
54.817012	54.930563	68.000000	59.000000
54.930563	55.044115	72.000000	62.000000
55.044115	55.156768	79.000000	77.000000
55.044115	55.156768	83.000000	77.000000
55.044115	55.156768	55.000000	70.000000
55.044115	55.156768	62.000000	70.000000
55.156768	55.269420	71.000000	60.000000
55.269420	55.382073	67.000000	57.000000
55.382073	55.494726	71.000000	61.000000
55.494726	55.607379	84.000000	75.000000
55.494726	55.607379	79.000000	75.000000
55.494726	55.607379	62.000000	67.000000
55.494726	55.607379	57.000000	67.000000
55.607379	55.720032	72.000000	58.000000
55.720032	55.832685	69.000000	56.000000
55.832685	55.945337	72.000000	58.000000
55.945337	56.057990	86.000000	73.000000
55.945337	56.057990	79.000000	73.000000
55.945337	56.057990	62.000000	63.000000
55.945337	56.057990	59.000000	63.000000
56.057990	56.170643	74.000000	57.000000
56.170643	56.286528	71.000000	58.000000
56.286528	56.402413	74.000000	57.000000
56.402413	56.638689	79.000000	73.000000
56.402413	56.638689	75.000000	73.000000
56.402413	56.638689	87.000000	86.000000
56.402413	56.638689	60.000000	70.000000
56.402413	56.638689	72.000000	70.000000
56.402413	56.638689	67.000000	70.000000
56.638689	56.880960	75.000000	83.000000
56.638689	56.880960	79.000000	83.000000
56.638689	56.880960	87.000000	99.000000
56.638689	56.880960	84.000000	99.000000
56.638689	56.880960	60.000000	63.000000
56.638689	56.880960	70.000000	63.000000
56.638689	56.880960	58.000000	63.000000
56.880960	57.851652	89.000000	100.000000
56.880960	57.851652	84.000000	100.000000
56.880960	57.851652	77.000000	83.000000
56.880960	57.608737	57.000000	70.000000
56.880960	57.608737	69.000000	70.000000
56.880960	57.608737	60.000000	70.000000
57.608737	57.851652	53.000000	59.000000
57.608737	57.851652	65.000000	59.000000
57.851652	58.335523	85.000000	96.000000
57.851652	58.335523	77.000000	96.000000
57.851652	58.335523	73.000000	81.000000
57.851652	58.093587	67.000000	62.000000
57.851652	58.093587	55.000000	62.000000
58.093587	58.335523	69.000000	66.000000
58.093587	58.335523	57.000000	66.000000
58.335523	58.572791	74.000000	78.000000
58.335523	58.572791	86.000000	92.000000
58.335523	58.572791	77.000000	92.000000
58.335523	58.572791	70.000000	69.000000
58.335523	58.572791	58.000000	69.000000
58.572791	58.815062	84.000000	92.000000
58.572791	58.815062	87.000000	92.000000
58.572791	58.815062	75.000000	78.000000
58.572791	58.815062	79.000000	78.000000
58.572791	58.815062	60.000000	63.000000
58.572791	58.815062	70.000000	63.000000
58.572791	58.815062	58.000000	63.000000
58.815062	59.785432	77.000000	83.000000
58.815062	59.785432	84.000000	99.000000
58.815062	59.785432	89.000000	99.000000
58.815062	59.542517	60.000000	69.000000
58.815062	59.542517	69.000000	69.000000
58.815062	59.542517	57.000000	69.000000
59.542517	59.785432	65.000000	61.000000
59.542517	59.785432	53.000000	61.000000
59.785432	60.276276	73.000000	83.000000
59.785432	60.276276	77.000000	99.000000
59.785432	60.276276	85.000000	99.000000
59.785432	60.030854	67.000000	63.000000
59.785432	60.030854	55.000000	63.000000
60.030854	60.276276	57.000000	64.000000
60.030854	60.276276	69.000000	64.000000
60.276276	60.388473	86.000000	75.000000
60.276276	60.388473	82.000000	75.000000
60.276276	60.388473	77.000000	75.000000
60.276276	60.388473	58.000000	71.000000
60.276276	60.388473	65.000000	71.000000
60.388473	60.500670	74.000000	62.000000
60.500670	60.614208	70.000000	59.000000
60.614208	60.727746	74.000000	62.000000
60.727746	60.840828	78.000000	77.000000
60.727746	60.840828	81.000000	77.000000
60.727746	60.840828	63.000000	70.000000
60.727746	60.840828	58.000000	70.000000
60.840828	60.953910	69.000000	60.000000
60.953910	61.066992	66.000000	57.000000
61.066992	61.180074	69.000000	61.000000
61.180074	61.293156	82.000000	75.000000
61.180074	61.293156	77.000000	75.000000
61.180074	61.293156	62.000000	67.000000
61.180074	61.293156	58.000000	67.000000
61.293156	61.406238	70.000000	58.000000
61.406238	61.519320	65.000000	56.000000
61.519320	61.632402	70.000000	58.000000
61.632402	61.745484	78.000000	73.000000
61.632402	61.745484	69.000000	73.000000
61.632402	61.745484	46.000000	63.000000
61.745484	61.858566	66.000000	57.000000
61.858566	61.974894	63.000000	58.000000
61.974894	62.091221	66.000000	57.000000
62.091221	62.203418	77.000000	72.000000
62.091221	62.203418	70.000000	72.000000
62.091221	62.203418	46.000000	64.000000
62.203418	62.315615	65.000000	56.000000
62.315615	62.429153	62.000000	55.000000
62.429153	62.542691	65.000000	56.000000
62.542691	62.655773	66.000000	69.000000
62.542691	62.655773	69.000000	69.000000
62.542691	62.655773	46.000000	63.000000
62.655773	62.768855	63.000000	57.000000
62.768855	62.881937	60.000000	55.000000
62.881937	62.995019	63.000000	53.000000
62.995019	63.108101	70.000000	68.000000
62.995019	63.108101	65.000000	68.000000
62.995019	63.108101	46.000000	63.000000
63.108101	63.221183	62.000000	56.000000
63.221183	63.334265	58.000000	55.000000
63.334265	63.447347	62.000000	57.000000
63.447347	63.560429	63.000000	64.000000
63.447347	63.560429	57.000000	64.000000
63.447347	63.560429	34.000000	62.000000
63.560429	63.673511	54.000000	56.000000
63.673511	63.789838	51.000000	56.000000
63.789838	63.906166	54.000000	56.000000
63.906166	64.018363	65.000000	67.000000
63.906166	64.018363	58.000000	67.000000
63.906166	64.018363	34.000000	59.000000
64.018363	64.130560	53.000000	51.000000
64.130560	64.244098	50.000000	50.000000
64.244098	64.357636	53.000000	51.000000
64.357636	64.470718	54.000000	63.000000
64.357636	64.470718	57.000000	63.000000
64.357636	64.470718	34.000000	58.000000
64.470718	64.583800	51.000000	52.000000
64.583800	64.696882	48.000000	50.000000
64.696882	64.809964	51.000000	49.000000
64.809964	64.923046	58.000000	62.000000
64.809964	64.923046	53.000000	62.000000
64.809964	64.923046	34.000000	58.000000
64.923046	65.036128	50.000000	51.000000
65.036128	65.149210	46.000000	50.000000
65.149210	65.262292	50.000000	52.000000
65.262292	65.375374	57.000000	59.000000
65.262292	65.375374	51.000000	59.000000
65.262292	65.375374	34.000000	58.000000
65.375374	65.488456	48.000000	51.000000
65.488456	65.604783	42.000000	51.000000
65.604783	65.721111	48.000000	51.000000
65.721111	65.833307	50.000000	59.000000
65.721111	65.833307	58.000000	59.000000
65.721111	65.833307	34.000000	52.000000
65.833307	65.945504	46.000000	46.000000
65.945504	66.059042	41.000000	45.000000
66.059042	66.172580	46.000000	46.000000
66.172580	66.285662	51.000000	57.000000
66.172580	66.285662	57.000000	57.000000
66.172580	66.285662	34.000000	51.000000
66.285662	66.398744	48.000000	47.000000
66.398744	66.511826	42.000000	45.000000
66.511826	66.624908	48.000000	44.000000
66.624908	66.737990	50.000000	56.000000
66.624908	66.737990	58.000000	56.000000
66.624908	66.737990	34.000000	51.000000
66.737990	66.851072	46.000000	46.000000
66.851072	66.964154	41.000000	45.000000
66.964154	67.077236	46.000000	47.000000
67.077236	67.190318	57.000000	52.000000
67.077236	67.190318	51.000000	52.000000
67.077236	67.190318	34.000000	51.000000
67.190318	67.303400	48.000000	46.000000
67.303400	67.419728	42.000000	46.000000
67.419728	67.536055	48.000000	46.000000
67.536055	67.776060	50.000000	59.000000
67.536055	67.776060	58.000000	59.000000
67.536055	67.696063	34.000000	45.000000
67.696063	67.856056	41.000000	43.000000
67.856056	68.016050	46.000000	43.000000
68.016050	68.176044	50.000000	49.000000
68.176044	68.336038	53.000000	51.000000
68.336038	68.496032	58.000000	49.000000
68.496032	68.655556	62.000000	52.000000
68.655556	68.815872	58.000000	54.000000
68.815872	68.977167	62.000000	56.000000
68.977167	69.139441	65.000000	58.000000
69.139441	69.302546	70.000000	60.000000
69.302546	69.466818	74.000000	61.000000
69.466818	70.470649	63.000000	64.000000
69.466818	70.223577	75.000000	79.000000
69.466818	70.223577	67.000000	64.000000
69.466818	70.975025	51.000000	45.000000
69.466818	69.635153	58.000000	56.000000
69.635153	69.803274	57.000000	45.000000
69.803274	69.971395	58.000000	45.000000
69.971395	70.139516	60.000000	51.000000
70.139516	70.305934	57.000000	46.000000
70.223577	70.470649	67.000000	68.000000
70.305934	70.470649	60.000000	46.000000
70.470649	70.975025	63.000000	56.000000
70.470649	70.975025	67.000000	56.000000
70.470649	70.975025	70.000000	71.000000
70.470649	71.479629	58.000000	55.000000
70.975025	71.222097	72.000000	70.000000
70.975025	71.222097	67.000000	57.000000
70.975025	71.479629	63.000000	57.000000
70.975025	71.479629	46.000000	39.000000
71.222097	71.479629	67.000000	65.000000
71.479629	72.493585	70.000000	71.000000
71.479629	72.493585	67.000000	60.000000
71.479629	72.493585	63.000000	60.000000
71.479629	71.648622	58.000000	51.000000
71.479629	72.981292	51.000000	46.000000
71.648622	71.817615	57.000000	45.000000
71.817615	71.986607	58.000000	45.000000
71.986607	72.155600	60.000000	49.000000
72.155600	72.324593	57.000000	46.000000
72.324593	72.493585	60.000000	46.000000
72.493585	72.981292	63.000000	53.000000
72.493585	72.981292	67.000000	57.000000
72.493585	72.756013	70.000000	70.000000
72.493585	73.472807	58.000000	56.000000
72.735534	72.981292	72.000000	61.000000
72.981292	73.472807	63.000000	59.000000
72.981292	73.244028	67.000000	70.000000
72.981292	73.472807	46.000000	44.000000
73.223227	73.472807	72.000000	59.000000
73.472807	74.646837	67.000000	60.000000
73.472807	74.646837	63.000000	60.000000
73.472807	74.646837	70.000000	71.000000
73.472807	74.975381	51.000000	41.000000
73.472807	73.640941	58.000000	51.000000
73.640941	73.809076	57.000000	45.000000
73.809076	73.977197	58.000000	45.000000
73.977197	74.145318	60.000000	51.000000
74.145318	74.313439	57.000000	47.000000
74.313439	74.481560	60.000000	47.000000
74.481560	75.471885	58.000000	57.000000
74.646837	74.811445	62.000000	57.000000
74.811445	74.975381	63.000000	57.000000
74.975381	75.138487	67.000000	58.000000
74.975381	75.471885	46.000000	45.000000
75.138487	75.303818	70.000000	62.000000
75.303818	75.471885	75.000000	66.000000
75.471885	76.248882	77.000000	75.000000
75.471885	76.248882	65.000000	63.000000
75.471885	76.980870	70.000000	63.000000
75.471885	75.639953	62.000000	50.000000
75.471885	75.723986	58.000000	46.000000
75.471885	75.723986	51.000000	46.000000
75.639953	75.808020	61.000000	45.000000
75.808020	75.976087	62.000000	45.000000
75.976087	76.144155	63.000000	49.000000
76.144155	76.310961	61.000000	46.000000
76.228188	76.497523	79.000000	69.000000
76.228188	76.497523	67.000000	57.000000
76.310961	76.476507	63.000000	46.000000
76.476507	76.980870	65.000000	63.000000
76.476507	76.980870	77.000000	75.000000
76.476507	76.728689	62.000000	57.000000
76.980870	77.226668	72.000000	72.000000
76.980870	77.247898	60.000000	61.000000
76.980870	77.502493	68.000000	61.000000
76.980870	77.481478	46.000000	41.000000
76.980870	77.481478	58.000000	50.000000
77.226668	77.481478	62.000000	59.000000
77.226668	77.481478	74.000000	70.000000
77.481478	78.734111	63.000000	63.000000
77.481478	78.984066	67.000000	63.000000
77.481478	78.734111	75.000000	75.000000
77.481478	78.984066	51.000000	45.000000
77.481478	77.649599	58.000000	51.000000
77.649599	77.817720	57.000000	45.000000
77.817720	77.985841	58.000000	45.000000
77.985841	78.153962	60.000000	49.000000
78.153962	78.322083	57.000000	45.000000
78.322083	78.490204	60.000000	45.000000
78.490204	78.734111	58.000000	57.000000
78.734111	79.004639	62.000000	52.000000
78.734111	79.004639	74.000000	62.000000
78.984066	79.252327	72.000000	67.000000
78.984066	79.252327	60.000000	56.000000
78.984066	79.488402	68.000000	56.000000
78.984066	79.488402	58.000000	50.000000
78.984066	79.488402	46.000000	41.000000
79.230870	79.488402	62.000000	47.000000
79.230870	79.488402	74.000000	57.000000
79.488402	79.992765	63.000000	55.000000
79.488402	79.992765	67.000000	55.000000
79.488402	79.992765	70.000000	69.000000
79.488402	79.656523	58.000000	49.000000
79.488402	80.995992	51.000000	46.000000
79.656523	79.824644	57.000000	45.000000
79.824644	79.992765	58.000000	45.000000
79.992765	80.744964	63.000000	53.000000
79.992765	80.995992	67.000000	53.000000
79.992765	80.995992	70.000000	66.000000
79.992765	80.160886	60.000000	49.000000
80.160886	80.329007	57.000000	47.000000
80.329007	80.497128	60.000000	47.000000
80.497128	81.496976	58.000000	57.000000
80.744964	80.995992	62.000000	56.000000
80.995992	81.496976	68.000000	50.000000
80.995992	81.496976	70.000000	63.000000
80.995992	81.244875	60.000000	53.000000
80.995992	81.496976	46.000000	45.000000
81.244875	81.496976	62.000000	50.000000
81.496976	82.007615	63.000000	53.000000
81.496976	82.007615	67.000000	55.000000
81.496976	82.007615	70.000000	65.000000
81.496976	81.667189	58.000000	48.000000
81.496976	82.757481	51.000000	49.000000
81.667189	81.837402	57.000000	44.000000
81.837402	82.007615	58.000000	44.000000
82.007615	82.675003	70.000000	63.000000
82.007615	83.003882	63.000000	51.000000
82.007615	83.003882	67.000000	53.000000
82.007615	82.174985	60.000000	47.000000
82.174985	82.342355	57.000000	43.000000
82.342355	82.509725	60.000000	42.000000
82.509725	83.003882	58.000000	55.000000
82.675003	82.839784	72.000000	59.000000
82.839784	83.003882	69.000000	58.000000
83.003882	83.506287	68.000000	53.000000
83.003882	83.167309	70.000000	63.000000
83.003882	83.506287	62.000000	53.000000
83.003882	83.506287	58.000000	52.000000
83.003882	83.506287	46.000000	45.000000
83.167309	83.334612	72.000000	63.000000
83.334612	83.506287	74.000000	66.000000
83.506287	84.263046	75.000000	79.000000
83.506287	84.263046	67.000000	64.000000
83.506287	83.674622	58.000000	56.000000
83.506287	85.014481	51.000000	45.000000
83.674622	83.842743	57.000000	45.000000
83.842743	84.010864	58.000000	45.000000
84.010864	84.178985	60.000000	51.000000
84.178985	84.345403	57.000000	46.000000
84.263046	84.510118	67.000000	68.000000
84.345403	84.510118	60.000000	46.000000
84.510118	85.014481	63.000000	56.000000
84.510118	85.014481	67.000000	56.000000
84.510118	85.014481	70.000000	71.000000
84.510118	85.519085	58.000000	55.000000
85.014481	85.283010	72.000000	70.000000
85.014481	85.261552	67.000000	57.000000
85.014481	85.519085	63.000000	57.000000
85.014481	85.519085	46.000000	39.000000
85.261552	85.519085	67.000000	65.000000
85.519085	86.533041	70.000000	71.000000
85.519085	86.533041	67.000000	60.000000
85.519085	86.533041	63.000000	60.000000
85.519085	85.688078	58.000000	51.000000
85.519085	87.020747	51.000000	46.000000
85.688078	85.857070	57.000000	45.000000
85.857070	86.026063	58.000000	45.000000
86.026063	86.195056	60.000000	49.000000
86.195056	86.364048	57.000000	46.000000
86.364048	86.533041	60.000000	46.000000
86.533041	87.020747	63.000000	53.000000
86.533041	87.020747	67.000000	57.000000
86.533041	86.795469	70.000000	70.000000
86.533041	87.512263	58.000000	56.000000
86.774990	87.020747	72.000000	61.000000
87.020747	87.512263	63.000000	59.000000
87.020747	87.283483	67.000000	70.000000
87.020747	87.512263	46.000000	44.000000
87.262683	87.512263	72.000000	59.000000
87.512263	88.686266	67.000000	57.000000
87.512263	88.686266	63.000000	56.000000
87.512263	88.686266	70.000000	71.000000
87.512263	87.680383	58.000000	51.000000
87.512263	89.014810	51.000000	41.000000
87.680383	87.848504	57.000000	45.000000
87.848504	88.016625	58.000000	45.000000
88.016625	88.184746	60.000000	51.000000
88.184746	88.352867	57.000000	47.000000
88.352867	88.520988	60.000000	47.000000
88.520988	89.511314	58.000000	57.000000
88.686266	88.850873	62.000000	57.000000
88.850873	89.014810	63.000000	57.000000
89.014810	89.177915	67.000000	58.000000
89.014810	89.511314	46.000000	45.000000
89.177915	89.343247	70.000000	62.000000
89.343247	89.511314	75.000000	66.000000
89.511314	90.282034	77.000000	75.000000
89.511314	90.282034	65.000000	63.000000
89.511314	91.014023	70.000000	63.000000
89.511314	89.759231	51.000000	46.000000
89.511314	89.676592	62.000000	50.000000
89.511314	89.759231	58.000000	46.000000
89.676592	89.842916	61.000000	45.000000
89.842916	90.010286	62.000000	45.000000
90.010286	90.177656	63.000000	49.000000
90.177656	90.344114	61.000000	46.000000
90.261341	90.530675	79.000000	69.000000
90.261341	90.530675	67.000000	57.000000
90.344114	90.509660	63.000000	46.000000
90.509660	91.014023	65.000000	63.000000
90.509660	91.014023	77.000000	75.000000
90.509660	90.761841	62.000000	57.000000
91.014023	91.281050	72.000000	72.000000
91.014023	91.281050	60.000000	59.000000
91.014023	91.514631	68.000000	57.000000
91.014023	91.514631	46.000000	41.000000
91.014023	91.514631	58.000000	50.000000
91.259821	91.514631	62.000000	59.000000
91.259821	91.514631	74.000000	70.000000
91.514631	92.759632	63.000000	63.000000
91.514631	93.009588	67.000000	63.000000
91.514631	92.759632	75.000000	75.000000
91.514631	93.009588	51.000000	45.000000
91.514631	91.679922	58.000000	51.000000
91.679922	91.846246	57.000000	45.000000
91.846246	92.013616	58.000000	45.000000
92.013616	92.180986	60.000000	49.000000
92.180986	92.348356	57.000000	45.000000
92.348356	92.515726	60.000000	45.000000
92.515726	92.759632	58.000000	57.000000
92.759632	93.030160	62.000000	52.000000
92.759632	93.030160	74.000000	62.000000
93.009588	93.277849	72.000000	67.000000
93.009588	93.277849	60.000000	56.000000
93.009588	93.513924	68.000000	56.000000
93.009588	93.513924	58.000000	50.000000
93.009588	93.513924	46.000000	41.000000
93.256391	93.513924	62.000000	47.000000
93.256391	93.513924	74.000000	57.000000
93.513924	94.013941	63.000000	55.000000
93.513924	94.013941	67.000000	55.000000
93.513924	94.013941	70.000000	69.000000
93.513924	95.014916	51.000000	46.000000
93.513924	93.679899	58.000000	49.000000
93.679899	93.846571	57.000000	45.000000
93.846571	94.013941	58.000000	45.000000
94.013941	94.763888	63.000000	53.000000
94.013941	95.014916	67.000000	53.000000
94.013941	95.014916	70.000000	66.000000
94.013941	94.181311	60.000000	49.000000
94.181311	94.348681	57.000000	47.000000
94.348681	94.516051	60.000000	47.000000
94.516051	95.515899	58.000000	57.000000
94.763888	95.014916	62.000000	56.000000
95.014916	95.515899	68.000000	53.000000
95.014916	95.515899	70.000000	63.000000
95.014916	95.263798	60.000000	53.000000
95.014916	95.515899	46.000000	45.000000
95.263798	95.515899	62.000000	50.000000
95.515899	96.014884	70.000000	66.000000
95.515899	96.014884	67.000000	58.000000
95.515899	96.014884	63.000000	55.000000
95.515899	97.015858	51.000000	46.000000
95.515899	95.681190	58.000000	49.000000
95.681190	95.847514	57.000000	45.000000
95.847514	96.014884	58.000000	44.000000
96.014884	97.015858	70.000000	64.000000
96.014884	97.015858	67.000000	52.000000
96.014884	96.764830	63.000000	52.000000
96.014884	96.182254	60.000000	48.000000
96.182254	96.349624	57.000000	46.000000
96.349624	96.516994	60.000000	45.000000
96.516994	97.681449	58.000000	54.000000
96.764830	97.015858	62.000000	53.000000
97.015858	97.516842	68.000000	49.000000
97.015858	97.516842	70.000000	59.000000
97.015858	97.264741	60.000000	49.000000
97.015858	97.516842	46.000000	42.000000
97.264741	97.516842	62.000000	46.000000
97.516842	97.763752	70.000000	63.000000
97.516842	97.763752	67.000000	53.000000
97.516842	97.763752	63.000000	53.000000
97.516842	99.016989	51.000000	42.000000
97.681449	97.846056	57.000000	40.000000
97.846056	98.010663	58.000000	40.000000
98.010663	99.769121	70.000000	59.000000
98.010663	99.769121	63.000000	50.000000
98.010663	99.769121	67.000000	50.000000
98.010663	98.177336	60.000000	44.000000
98.177336	98.344706	57.000000	41.000000
98.344706	98.512773	60.000000	41.000000
98.512773	99.686482	58.000000	50.000000
99.016989	99.521191	46.000000	47.000000
99.521191	101.024409	51.000000	38.000000
99.686482	99.851760	57.000000	37.000000
99.851760	100.017051	58.000000	36.000000
100.017051	101.776541	63.000000	43.000000
100.017051	101.776541	67.000000	43.000000
100.017051	101.776541	70.000000	54.000000
100.017051	100.184421	60.000000	40.000000
100.184421	100.352140	57.000000	38.000000
100.352140	100.520207	60.000000	37.000000
100.520207	101.693902	58.000000	45.000000
101.024409	101.528611	46.000000	40.000000
101.528611	101.776541	51.000000	34.000000
101.693902	101.860226	57.000000	33.000000
101.860226	102.027596	58.000000	33.000000
102.027596	102.192887	60.000000	35.000000
102.192887	102.359211	57.000000	34.000000
102.359211	102.526581	60.000000	33.000000
102.526581	102.774417	58.000000	40.000000
102.691805	102.858089	62.000000	37.000000
102.858089	103.025445	63.000000	36.000000
103.025445	103.191367	65.000000	40.000000
103.191367	103.358361	62.000000	36.000000
103.358361	103.526429	65.000000	36.000000
103.526429	103.774359	63.000000	40.000000
103.691720	103.858392	66.000000	33.000000
103.858392	104.026460	67.000000	33.000000
104.026460	104.191751	68.000000	35.000000
104.191751	104.358424	66.000000	34.000000
104.358424	104.526491	68.000000	33.000000
104.526491	104.774327	67.000000	40.000000
104.691715	104.857999	69.000000	37.000000
104.837078	105.004434	70.000000	36.000000
105.025355	105.191277	72.000000	40.000000
105.191277	105.358271	69.000000	36.000000
105.358271	105.526339	72.000000	36.000000
105.526339	105.778520	70.000000	40.000000
105.694460	105.863627	74.000000	33.000000
105.863627	106.033840	75.000000	33.000000
106.033840	106.201210	77.000000	35.000000
106.201210	106.370001	74.000000	34.000000
106.370001	106.540214	77.000000	33.000000
106.540214	106.795534	75.000000	40.000000
106.710427	106.882491	78.000000	37.000000
106.860752	107.034666	79.000000	36.000000
107.056406	107.226619	81.000000	40.000000
107.226619	107.398307	82.000000	36.000000
107.398307	107.571471	86.000000	36.000000
107.571471	112.242889	87.000000	40.000000
108.642893	109.842887	75.000000	30.000000
108.642893	109.842887	79.000000	30.000000
108.642893	109.842887	70.000000	26.000000
108.642893	109.842887	63.000000	26.000000
109.842887	112.242889	75.000000	30.000000
109.842887	112.242889	79.000000	30.000000
109.842887	112.242889	63.000000	26.000000
109.842887	112.242889	70.000000	26.000000
