# onset,offset,note,velocity
0.500004	0.640217	36.000000	25.000000
0.686954	0.827167	48.000000	28.000000
0.686954	0.827167	52.000000	33.000000
0.686954	0.827167	43.000000	26.000000
0.686954	0.827167	36.000000	22.000000
0.873904	1.013219	48.000000	28.000000
0.873904	1.013219	52.000000	33.000000
0.873904	1.013219	43.000000	26.000000
0.873904	1.013219	36.000000	22.000000
1.059661	1.198975	48.000000	28.000000
1.059661	1.198975	52.000000	34.000000
1.059661	1.198975	43.000000	27.000000
1.059661	1.198975	36.000000	22.000000
1.245418	1.385939	48.000000	28.000000
1.245418	1.385939	52.000000	34.000000
1.245418	1.385939	43.000000	27.000000
1.245418	1.385939	36.000000	22.000000
1.432824	1.573492	48.000000	28.000000
1.432824	1.573492	52.000000	34.000000
1.432824	1.573492	43.000000	28.000000
1.432824	1.573492	36.000000	23.000000
1.620377	1.760134	48.000000	29.000000
1.620377	1.760134	52.000000	35.000000
1.620377	1.760134	43.000000	28.000000
1.620377	1.760134	36.000000	23.000000
1.806724	1.946480	48.000000	29.000000
1.806724	1.946480	52.000000	35.000000
1.806724	1.946480	43.000000	29.000000
1.806724	1.946480	36.000000	24.000000
1.993070	2.133189	48.000000	30.000000
1.993070	2.133189	52.000000	36.000000
1.993070	2.133189	36.000000	25.000000
1.993070	2.133189	43.000000	30.000000
2.179927	2.320139	48.000000	30.000000
2.179927	2.320139	52.000000	36.000000
2.179927	2.320139	36.000000	22.000000
2.179927	2.320139	43.000000	27.000000
2.366877	2.506633	48.000000	31.000000
2.366877	2.506633	52.000000	37.000000
2.366877	2.506633	36.000000	23.000000
2.366877	2.506633	43.000000	28.000000
2.553223	2.692980	48.000000	32.000000
2.553223	2.692980	52.000000	38.000000
2.553223	2.692980	36.000000	24.000000
2.553223	2.692980	43.000000	29.000000
2.739570	2.879782	48.000000	33.000000
2.739570	2.879782	52.000000	39.000000
2.739570	2.879782	36.000000	25.000000
2.739570	2.879782	43.000000	30.000000
2.926520	3.066732	48.000000	34.000000
2.926520	3.066732	52.000000	40.000000
2.926520	3.066732	36.000000	25.000000
2.926520	3.066732	43.000000	30.000000
3.113470	3.253683	50.000000	34.000000
3.113470	3.253683	54.000000	40.000000
3.113470	3.253683	36.000000	25.000000
3.113470	3.253683	45.000000	30.000000
3.300420	3.440633	50.000000	34.000000
3.300420	3.440633	54.000000	40.000000
3.300420	3.440633	36.000000	25.000000
3.300420	3.440633	45.000000	30.000000
3.487370	4.048220	50.000000	39.000000
3.487370	4.048220	55.000000	46.000000
3.487370	3.627583	35.000000	25.000000
3.487370	3.627583	43.000000	30.000000
3.674320	3.814533	35.000000	25.000000
3.674320	3.814533	43.000000	30.000000
3.861270	4.001483	35.000000	25.000000
3.861270	4.001483	43.000000	30.000000
4.048220	4.141696	59.000000	40.000000
4.048220	4.188433	35.000000	25.000000
4.048220	4.188433	43.000000	30.000000
4.141696	4.235171	57.000000	40.000000
4.235171	4.328646	55.000000	45.000000
4.235171	4.375383	35.000000	25.000000
4.235171	4.375383	43.000000	30.000000
4.422121	4.562333	35.000000	25.000000
4.422121	4.562333	43.000000	30.000000
4.609071	4.749283	35.000000	25.000000
4.609071	4.749283	43.000000	30.000000
4.796021	4.942121	35.000000	25.000000
4.796021	4.942121	43.000000	30.000000
4.942121	4.990816	85.000000	46.000000
4.990816	5.465474	86.000000	57.000000
4.990816	5.133215	35.000000	25.000000
4.990816	5.133215	43.000000	30.000000
5.180677	5.323075	35.000000	25.000000
5.180677	5.323075	43.000000	30.000000
5.370537	5.512936	35.000000	25.000000
5.370537	5.512936	43.000000	30.000000
5.465474	5.560397	84.000000	48.000000
5.560397	5.655334	83.000000	47.000000
5.560397	5.702796	35.000000	25.000000
5.560397	5.702796	43.000000	30.000000
5.655334	5.750258	81.000000	45.000000
5.750258	5.940118	79.000000	44.000000
5.750258	5.892656	35.000000	25.000000
5.750258	5.892656	43.000000	30.000000
5.940118	6.082516	35.000000	25.000000
5.940118	6.082516	43.000000	30.000000
6.129978	6.272377	35.000000	25.000000
6.129978	6.272377	43.000000	30.000000
6.319838	6.465000	35.000000	25.000000
6.319838	6.465000	43.000000	30.000000
6.513387	6.653599	46.000000	29.000000
6.513387	6.653599	50.000000	35.000000
6.513387	6.653599	41.000000	30.000000
6.513387	6.653599	34.000000	26.000000
6.700337	6.840549	46.000000	29.000000
6.700337	6.840549	50.000000	35.000000
6.700337	6.840549	41.000000	30.000000
6.700337	6.840549	34.000000	25.000000
6.887287	7.026158	46.000000	29.000000
6.887287	7.026158	50.000000	35.000000
6.887287	7.026158	41.000000	30.000000
6.887287	7.026158	34.000000	25.000000
7.072453	7.211325	46.000000	30.000000
7.072453	7.211325	50.000000	36.000000
7.072453	7.211325	41.000000	31.000000
7.072453	7.211325	34.000000	26.000000
7.257620	7.398288	46.000000	31.000000
7.257620	7.398288	50.000000	37.000000
7.257620	7.398288	41.000000	31.000000
7.257620	7.398288	34.000000	26.000000
7.445173	7.585842	46.000000	31.000000
7.445173	7.585842	50.000000	37.000000
7.445173	7.585842	41.000000	31.000000
7.445173	7.585842	34.000000	26.000000
7.632727	7.773395	46.000000	32.000000
7.632727	7.773395	50.000000	38.000000
7.632727	7.773395	41.000000	31.000000
7.632727	7.773395	34.000000	26.000000
7.820281	7.960949	46.000000	33.000000
7.820281	7.960949	50.000000	39.000000
7.820281	7.960949	41.000000	31.000000
7.820281	7.960949	34.000000	26.000000
8.007834	8.148047	46.000000	33.000000
8.007834	8.148047	50.000000	39.000000
8.007834	8.148047	34.000000	26.000000
8.007834	8.148047	41.000000	31.000000
8.194784	8.334997	46.000000	34.000000
8.194784	8.334997	50.000000	40.000000
8.194784	8.334997	34.000000	26.000000
8.194784	8.334997	41.000000	31.000000
8.381734	8.522403	46.000000	34.000000
8.381734	8.522403	50.000000	40.000000
8.381734	8.522403	34.000000	26.000000
8.381734	8.522403	41.000000	31.000000
8.569288	8.709956	46.000000	34.000000
8.569288	8.709956	50.000000	40.000000
8.569288	8.709956	34.000000	26.000000
8.569288	8.709956	41.000000	31.000000
8.756841	8.895713	46.000000	34.000000
8.756841	8.895713	50.000000	40.000000
8.756841	8.895713	34.000000	26.000000
8.756841	8.895713	41.000000	31.000000
8.942008	9.080879	46.000000	34.000000
8.942008	9.080879	50.000000	40.000000
8.942008	9.080879	34.000000	25.000000
8.942008	9.080879	41.000000	30.000000
9.127174	9.266488	48.000000	34.000000
9.127174	9.266488	52.000000	40.000000
9.127174	9.266488	34.000000	25.000000
9.127174	9.266488	43.000000	30.000000
9.312931	9.452245	48.000000	34.000000
9.312931	9.452245	52.000000	40.000000
9.312931	9.452245	34.000000	25.000000
9.312931	9.452245	43.000000	30.000000
9.498687	10.057687	48.000000	39.000000
9.498687	10.057687	53.000000	46.000000
9.498687	9.638404	33.000000	25.000000
9.498687	9.638404	41.000000	30.000000
9.684994	9.824750	33.000000	25.000000
9.684994	9.824750	41.000000	30.000000
9.871340	10.011097	33.000000	25.000000
9.871340	10.011097	41.000000	30.000000
10.057687	10.150867	57.000000	40.000000
10.057687	10.197457	33.000000	25.000000
10.057687	10.197457	41.000000	30.000000
10.150867	10.244047	55.000000	40.000000
10.244047	10.337227	53.000000	45.000000
10.244047	10.383817	33.000000	25.000000
10.244047	10.383817	41.000000	30.000000
10.430407	10.570163	33.000000	25.000000
10.430407	10.570163	41.000000	30.000000
10.616753	10.756510	33.000000	25.000000
10.616753	10.756510	41.000000	30.000000
10.803100	10.949683	33.000000	25.000000
10.803100	10.949683	41.000000	30.000000
10.949683	10.998539	83.000000	46.000000
10.998539	11.473197	84.000000	57.000000
10.998539	11.140938	32.000000	25.000000
10.998539	11.140938	41.000000	30.000000
11.188400	11.330798	32.000000	25.000000
11.188400	11.330798	41.000000	30.000000
11.378260	11.520658	32.000000	25.000000
11.378260	11.520658	41.000000	30.000000
11.473197	11.568120	82.000000	50.000000
11.568120	11.663057	80.000000	49.000000
11.568120	11.710519	32.000000	25.000000
11.568120	11.710519	41.000000	30.000000
11.663057	11.757980	79.000000	47.000000
11.757980	11.947841	77.000000	46.000000
11.757980	11.900379	32.000000	25.000000
11.757980	11.900379	41.000000	30.000000
11.947841	12.090239	32.000000	25.000000
11.947841	12.090239	41.000000	30.000000
12.138050	12.281977	32.000000	25.000000
12.138050	12.281977	41.000000	30.000000
12.329949	12.473876	32.000000	25.000000
12.329949	12.473876	41.000000	30.000000
12.473876	12.521847	88.000000	67.000000
12.521847	13.642368	89.000000	73.000000
12.521847	12.662060	31.000000	30.000000
12.521847	12.662060	41.000000	36.000000
12.708797	12.849010	31.000000	32.000000
12.708797	12.849010	41.000000	38.000000
12.895747	13.035061	31.000000	33.000000
12.895747	13.035061	41.000000	39.000000
13.081504	13.220818	31.000000	34.000000
13.081504	13.220818	41.000000	41.000000
13.267260	13.407929	31.000000	36.000000
13.267260	13.407929	41.000000	43.000000
13.454814	13.595483	31.000000	38.000000
13.454814	13.595483	41.000000	45.000000
13.642368	13.736151	89.000000	74.000000
13.642368	13.783036	32.000000	39.000000
13.642368	13.783036	41.000000	46.000000
13.736151	13.829921	87.000000	73.000000
13.829921	13.923705	86.000000	71.000000
13.829921	13.970590	32.000000	40.000000
13.829921	13.970590	41.000000	48.000000
13.923705	14.017475	84.000000	70.000000
14.017475	14.110950	83.000000	72.000000
14.017475	14.157687	31.000000	44.000000
14.017475	14.157687	41.000000	52.000000
14.110950	14.204425	84.000000	71.000000
14.204425	14.297900	86.000000	72.000000
14.204425	14.344637	31.000000	44.000000
14.204425	14.344637	41.000000	52.000000
14.297900	14.391375	87.000000	73.000000
14.391375	14.485762	89.000000	74.000000
14.391375	14.532956	32.000000	45.000000
14.391375	14.532956	41.000000	55.000000
14.485762	14.580149	87.000000	72.000000
14.580149	14.674536	86.000000	71.000000
14.580149	14.721730	32.000000	46.000000
14.580149	14.721730	41.000000	55.000000
14.674536	14.768923	84.000000	69.000000
14.768923	14.862398	83.000000	72.000000
14.768923	14.909136	31.000000	48.000000
14.768923	14.909136	41.000000	58.000000
14.862398	14.955873	84.000000	75.000000
14.955873	15.049348	86.000000	77.000000
14.955873	15.096086	31.000000	51.000000
14.955873	15.096086	41.000000	60.000000
15.049348	15.142823	87.000000	80.000000
15.142823	15.236298	89.000000	80.000000
15.142823	15.283036	32.000000	54.000000
15.142823	15.283036	41.000000	64.000000
15.236298	15.329773	87.000000	80.000000
15.329773	15.423248	86.000000	79.000000
15.329773	15.469986	32.000000	56.000000
15.329773	15.469986	41.000000	66.000000
15.423248	15.516723	84.000000	81.000000
15.516723	15.610909	83.000000	85.000000
15.516723	15.909506	31.000000	70.000000
15.516723	15.909506	41.000000	85.000000
15.610909	15.706436	84.000000	89.000000
15.706436	15.804471	86.000000	94.000000
15.804471	15.909506	87.000000	98.000000
15.909506	16.002981	89.000000	100.000000
15.909506	16.847314	43.000000	81.000000
15.909506	16.847314	55.000000	96.000000
16.002981	16.096456	87.000000	98.000000
16.096456	16.189931	86.000000	96.000000
16.189931	16.283406	84.000000	94.000000
16.283406	16.376882	83.000000	93.000000
16.376882	16.470357	80.000000	91.000000
16.470357	16.563832	79.000000	89.000000
16.563832	16.657307	77.000000	87.000000
16.657307	16.752311	75.000000	85.000000
16.752311	16.847314	74.000000	83.000000
16.847314	16.942318	72.000000	81.000000
16.847314	16.942318	57.000000	67.000000
16.942318	17.037322	71.000000	79.000000
16.942318	17.037322	59.000000	70.000000
17.037322	17.186333	72.000000	93.000000
17.037322	17.186333	60.000000	72.000000
17.434678	17.598320	67.000000	83.000000
17.434678	17.598320	43.000000	56.000000
17.434678	17.598320	55.000000	66.000000
17.871047	18.042803	63.000000	72.000000
17.871047	18.042803	39.000000	52.000000
17.871047	18.042803	51.000000	62.000000
18.329062	18.545409	60.000000	64.000000
18.329062	18.545409	36.000000	48.000000
18.329062	18.545409	48.000000	57.000000
18.905992	20.689313	55.000000	60.000000
18.905992	20.689313	31.000000	46.000000
18.905992	20.689313	43.000000	54.000000
20.689313	20.829526	64.000000	37.000000
20.689313	22.180193	36.000000	30.000000
20.689313	20.876263	48.000000	30.000000
20.782788	20.876263	60.000000	33.000000
20.876263	21.016476	64.000000	37.000000
20.876263	21.063213	48.000000	31.000000
20.969738	21.063213	60.000000	33.000000
20.969738	21.063213	55.000000	26.000000
21.063213	21.202541	64.000000	37.000000
21.063213	21.248983	48.000000	31.000000
21.156098	21.248983	60.000000	33.000000
21.156098	21.248983	55.000000	27.000000
21.248983	21.388311	64.000000	36.000000
21.248983	21.434753	48.000000	31.000000
21.341868	21.434753	60.000000	33.000000
21.341868	21.434753	55.000000	27.000000
21.434753	21.574081	64.000000	36.000000
21.434753	21.620523	48.000000	31.000000
21.527638	21.620523	60.000000	33.000000
21.527638	21.620523	55.000000	26.000000
21.620523	21.759851	64.000000	37.000000
21.620523	21.806293	48.000000	31.000000
21.713408	21.806293	60.000000	33.000000
21.713408	21.806293	55.000000	27.000000
21.806293	21.946506	64.000000	36.000000
21.806293	21.993243	48.000000	31.000000
21.899768	21.993243	60.000000	33.000000
21.899768	21.993243	55.000000	27.000000
21.993243	22.133456	64.000000	36.000000
21.993243	22.180193	48.000000	31.000000
22.086718	22.180193	60.000000	33.000000
22.086718	22.180193	55.000000	25.000000
22.180193	22.320406	64.000000	37.000000
22.180193	22.367143	48.000000	31.000000
22.273668	22.367143	60.000000	33.000000
22.273668	22.367143	55.000000	26.000000
22.367143	22.507356	64.000000	37.000000
22.367143	22.554093	48.000000	31.000000
22.460618	22.554093	60.000000	33.000000
22.460618	22.554093	55.000000	26.000000
22.554093	22.692965	64.000000	37.000000
22.554093	22.739260	48.000000	31.000000
22.646670	22.739260	60.000000	33.000000
22.646670	22.739260	55.000000	27.000000
22.739260	22.878131	64.000000	36.000000
22.739260	22.924426	48.000000	31.000000
22.831836	22.924426	60.000000	33.000000
22.831836	22.924426	55.000000	27.000000
22.924426	23.063298	64.000000	36.000000
22.924426	23.109593	48.000000	31.000000
23.017003	23.109593	60.000000	33.000000
23.017003	23.109593	55.000000	26.000000
23.109593	23.248464	64.000000	37.000000
23.109593	23.294759	48.000000	31.000000
23.202169	23.294759	60.000000	33.000000
23.202169	23.294759	55.000000	27.000000
23.294759	23.434824	66.000000	36.000000
23.294759	23.481562	48.000000	31.000000
23.388087	23.481562	62.000000	33.000000
23.388087	23.481562	57.000000	27.000000
23.481562	23.621774	66.000000	36.000000
23.481562	23.668512	48.000000	31.000000
23.575037	23.668512	62.000000	33.000000
23.575037	23.668512	57.000000	25.000000
23.668512	24.229362	67.000000	46.000000
23.668512	23.855462	47.000000	26.000000
23.668512	23.855462	50.000000	31.000000
23.761987	23.855462	55.000000	25.000000
23.855462	24.042412	47.000000	26.000000
23.855462	24.042412	50.000000	31.000000
23.948937	24.042412	55.000000	25.000000
24.042412	24.229362	47.000000	26.000000
24.042412	24.229362	50.000000	31.000000
24.135887	24.229362	55.000000	25.000000
24.229362	24.322837	71.000000	40.000000
24.229362	24.416312	47.000000	26.000000
24.229362	24.416312	50.000000	31.000000
24.322837	24.416312	69.000000	40.000000
24.322837	24.416312	55.000000	25.000000
24.416312	24.509787	67.000000	45.000000
24.416312	24.603262	47.000000	26.000000
24.416312	24.603262	50.000000	31.000000
24.509787	24.603262	55.000000	25.000000
24.603262	24.790212	47.000000	26.000000
24.603262	24.790212	50.000000	31.000000
24.696737	24.790212	55.000000	25.000000
24.790212	24.977162	47.000000	26.000000
24.790212	24.977162	50.000000	31.000000
24.883687	24.977162	55.000000	25.000000
24.977162	25.170711	47.000000	26.000000
24.977162	25.170711	50.000000	31.000000
25.073937	25.170711	55.000000	25.000000
25.122324	25.170711	85.000000	46.000000
25.170711	25.643920	86.000000	57.000000
25.170711	25.359994	47.000000	26.000000
25.170711	25.359994	50.000000	31.000000
25.265352	25.359994	55.000000	25.000000
25.359994	25.549278	47.000000	26.000000
25.359994	25.549278	50.000000	31.000000
25.454636	25.549278	55.000000	25.000000
25.549278	25.738562	47.000000	26.000000
25.549278	25.738562	50.000000	31.000000
25.643920	25.738562	84.000000	48.000000
25.643920	25.738562	55.000000	25.000000
25.738562	25.833203	83.000000	47.000000
25.738562	25.927845	47.000000	26.000000
25.738562	25.927845	50.000000	31.000000
25.833203	25.927845	81.000000	45.000000
25.833203	25.927845	55.000000	25.000000
25.927845	26.117129	79.000000	44.000000
25.927845	26.117129	47.000000	26.000000
25.927845	26.117129	50.000000	31.000000
26.022487	26.117129	55.000000	25.000000
26.117129	26.306412	47.000000	26.000000
26.117129	26.306412	50.000000	31.000000
26.211771	26.306412	55.000000	25.000000
26.306412	26.495696	47.000000	26.000000
26.306412	26.495696	50.000000	31.000000
26.401054	26.495696	55.000000	25.000000
26.495696	26.688225	47.000000	26.000000
26.495696	26.688225	50.000000	31.000000
26.591961	26.688225	55.000000	25.000000
26.688225	26.828438	65.000000	40.000000
26.688225	28.179159	38.000000	33.000000
26.688225	26.875175	50.000000	33.000000
26.781700	26.875175	62.000000	36.000000
26.875175	27.015388	65.000000	40.000000
26.875175	27.062125	50.000000	34.000000
26.968650	27.062125	62.000000	36.000000
26.968650	27.062125	57.000000	28.000000
27.062125	27.200997	65.000000	40.000000
27.062125	27.247292	50.000000	34.000000
27.154702	27.247292	62.000000	36.000000
27.154702	27.247292	57.000000	29.000000
27.247292	27.386163	65.000000	39.000000
27.247292	27.432458	50.000000	34.000000
27.339868	27.432458	62.000000	36.000000
27.339868	27.432458	57.000000	29.000000
27.432458	27.571330	65.000000	39.000000
27.432458	27.617624	50.000000	34.000000
27.525035	27.617624	62.000000	36.000000
27.525035	27.617624	57.000000	28.000000
27.617624	27.756496	65.000000	41.000000
27.617624	27.802791	50.000000	34.000000
27.710201	27.802791	62.000000	36.000000
27.710201	27.802791	57.000000	29.000000
27.802791	27.943929	65.000000	40.000000
27.802791	27.990975	50.000000	34.000000
27.896883	27.990975	62.000000	37.000000
27.896883	27.990975	57.000000	30.000000
27.990975	28.132113	65.000000	40.000000
27.990975	28.179159	50.000000	35.000000
28.085067	28.179159	62.000000	37.000000
28.085067	28.179159	57.000000	28.000000
28.179159	28.319371	65.000000	41.000000
28.179159	28.366109	50.000000	35.000000
28.272634	28.366109	62.000000	37.000000
28.272634	28.366109	57.000000	29.000000
28.366109	28.506321	65.000000	41.000000
28.366109	28.553059	50.000000	35.000000
28.459584	28.553059	62.000000	37.000000
28.459584	28.553059	57.000000	29.000000
28.553059	28.692386	65.000000	42.000000
28.553059	28.738829	50.000000	35.000000
28.645944	28.738829	62.000000	37.000000
28.645944	28.738829	57.000000	30.000000
28.738829	28.878156	65.000000	41.000000
28.738829	28.924599	50.000000	35.000000
28.831714	28.924599	62.000000	38.000000
28.831714	28.924599	57.000000	30.000000
28.924599	29.065536	65.000000	41.000000
28.924599	29.112581	50.000000	36.000000
29.018490	29.112581	62.000000	38.000000
29.018490	29.112581	57.000000	29.000000
29.112581	29.253719	65.000000	42.000000
29.112581	29.300765	50.000000	36.000000
29.206673	29.300765	62.000000	38.000000
29.206673	29.300765	57.000000	31.000000
29.300765	29.441903	68.000000	41.000000
29.300765	29.488949	50.000000	36.000000
29.394857	29.488949	64.000000	38.000000
29.394857	29.488949	59.000000	31.000000
29.488949	29.630087	68.000000	42.000000
29.488949	29.677133	50.000000	36.000000
29.583041	29.677133	64.000000	38.000000
29.583041	29.677133	59.000000	29.000000
29.677133	30.237983	69.000000	55.000000
29.677133	29.864083	48.000000	30.000000
29.677133	29.864083	52.000000	37.000000
29.770608	29.864083	57.000000	29.000000
29.864083	30.051033	48.000000	30.000000
29.864083	30.051033	52.000000	37.000000
29.957558	30.051033	57.000000	29.000000
30.051033	30.237983	48.000000	30.000000
30.051033	30.237983	52.000000	37.000000
30.144508	30.237983	57.000000	29.000000
30.237983	30.331459	72.000000	48.000000
30.237983	30.424934	48.000000	30.000000
30.237983	30.424934	52.000000	37.000000
30.331459	30.424934	71.000000	48.000000
30.331459	30.424934	57.000000	29.000000
30.424934	30.518409	69.000000	53.000000
30.424934	30.611884	48.000000	30.000000
30.424934	30.611884	52.000000	37.000000
30.518409	30.611884	57.000000	29.000000
30.611884	30.798834	48.000000	30.000000
30.611884	30.798834	52.000000	37.000000
30.705359	30.798834	57.000000	29.000000
30.798834	30.985784	48.000000	30.000000
30.798834	30.985784	52.000000	37.000000
30.892309	30.985784	57.000000	29.000000
30.985784	31.179962	48.000000	30.000000
30.985784	31.179962	52.000000	37.000000
31.082866	31.179962	57.000000	29.000000
31.131414	31.179962	87.000000	55.000000
31.179962	31.653172	88.000000	68.000000
31.179962	31.369246	48.000000	30.000000
31.179962	31.369246	52.000000	37.000000
31.274604	31.369246	57.000000	29.000000
31.369246	31.558530	48.000000	30.000000
31.369246	31.558530	52.000000	37.000000
31.463888	31.558530	57.000000	29.000000
31.558530	31.747813	48.000000	30.000000
31.558530	31.747813	52.000000	37.000000
31.653172	31.747813	86.000000	59.000000
31.653172	31.747813	57.000000	29.000000
31.747813	31.842455	84.000000	58.000000
31.747813	31.937097	48.000000	30.000000
31.747813	31.937097	52.000000	39.000000
31.842455	31.937097	83.000000	57.000000
31.842455	31.937097	57.000000	31.000000
31.937097	32.126381	81.000000	57.000000
31.937097	32.126381	48.000000	32.000000
31.937097	32.126381	52.000000	39.000000
32.031739	32.126381	57.000000	31.000000
32.126381	32.315664	48.000000	32.000000
32.126381	32.315664	52.000000	41.000000
32.221022	32.315664	57.000000	31.000000
32.315664	32.504948	48.000000	33.000000
32.315664	32.504948	52.000000	41.000000
32.410306	32.504948	57.000000	33.000000
32.504948	32.697477	48.000000	35.000000
32.504948	32.697477	52.000000	42.000000
32.601212	32.697477	57.000000	33.000000
32.649345	32.697477	87.000000	66.000000
32.697477	33.172161	88.000000	85.000000
32.697477	32.887351	48.000000	37.000000
32.697477	32.887351	52.000000	45.000000
32.792414	32.887351	58.000000	36.000000
32.887351	33.077224	48.000000	38.000000
32.887351	33.077224	52.000000	45.000000
32.982287	33.077224	58.000000	37.000000
33.077224	33.267098	48.000000	39.000000
33.077224	33.267098	52.000000	47.000000
33.172161	33.267098	86.000000	76.000000
33.172161	33.267098	58.000000	38.000000
33.267098	33.362035	84.000000	75.000000
33.267098	33.456972	48.000000	39.000000
33.267098	33.456972	52.000000	47.000000
33.362035	33.456972	83.000000	71.000000
33.362035	33.456972	58.000000	38.000000
33.456972	33.646845	82.000000	71.000000
33.456972	33.646845	48.000000	41.000000
33.456972	33.646845	52.000000	50.000000
33.551909	33.646845	58.000000	40.000000
33.646845	33.836719	48.000000	41.000000
33.646845	33.836719	52.000000	51.000000
33.741782	33.836719	58.000000	40.000000
33.836719	34.026593	48.000000	42.000000
33.836719	34.026593	52.000000	51.000000
33.931656	34.026593	58.000000	42.000000
34.026593	34.222662	48.000000	43.000000
34.026593	34.222662	52.000000	53.000000
34.124628	34.222662	58.000000	42.000000
34.222662	34.705621	83.000000	56.000000
34.222662	34.331721	47.000000	40.000000
34.316137	34.425196	51.000000	35.000000
34.409612	34.518671	54.000000	35.000000
34.503088	34.596563	59.000000	35.000000
34.596563	34.705621	47.000000	41.000000
34.690038	34.799096	81.000000	54.000000
34.690038	34.799096	51.000000	35.000000
34.783513	34.892571	79.000000	53.000000
34.783513	34.892571	54.000000	35.000000
34.876988	34.986046	78.000000	51.000000
34.876988	34.970463	59.000000	35.000000
34.970463	35.079521	79.000000	53.000000
34.970463	35.079521	47.000000	39.000000
35.063938	35.172996	78.000000	52.000000
35.063938	35.172996	52.000000	35.000000
35.157413	35.266472	76.000000	51.000000
35.157413	35.266472	55.000000	35.000000
35.250888	35.359947	75.000000	50.000000
35.250888	35.344363	59.000000	35.000000
35.344363	35.453422	76.000000	50.000000
35.344363	35.453422	47.000000	40.000000
35.437838	35.546897	79.000000	52.000000
35.437838	35.546897	52.000000	35.000000
35.531313	35.640372	78.000000	50.000000
35.531313	35.640372	55.000000	35.000000
35.624788	35.733847	76.000000	50.000000
35.624788	35.718263	59.000000	35.000000
35.718263	35.827322	75.000000	50.000000
35.718263	35.827322	47.000000	40.000000
35.811738	35.920797	73.000000	49.000000
35.811738	35.920797	54.000000	35.000000
35.905213	36.014513	71.000000	48.000000
35.905213	36.014513	57.000000	35.000000
35.998889	36.108283	70.000000	47.000000
35.998889	36.092659	59.000000	35.000000
36.092659	36.202107	71.000000	49.000000
36.092659	36.202107	47.000000	40.000000
36.186430	36.296186	73.000000	49.000000
36.186430	36.296186	54.000000	35.000000
36.280508	36.390264	74.000000	49.000000
36.280508	36.390264	57.000000	35.000000
36.374587	36.484504	75.000000	50.000000
36.374587	36.468772	59.000000	35.000000
36.468772	36.578891	76.000000	50.000000
36.468772	36.578891	47.000000	40.000000
36.563159	36.673278	75.000000	50.000000
36.563159	36.673278	52.000000	35.000000
36.657546	36.767919	76.000000	51.000000
36.657546	36.767919	55.000000	35.000000
36.752135	36.862615	78.000000	51.000000
36.752135	36.846830	59.000000	35.000000
36.846830	36.957364	79.000000	49.000000
36.846830	36.957364	47.000000	40.000000
36.941526	37.052381	80.000000	50.000000
36.941526	37.052381	52.000000	35.000000
37.036543	37.147399	81.000000	52.000000
37.036543	37.147399	55.000000	35.000000
37.131560	37.242456	82.000000	53.000000
37.131560	37.226779	59.000000	35.000000
37.226779	37.336535	83.000000	55.000000
37.226779	37.336535	47.000000	40.000000
37.320857	37.430613	82.000000	53.000000
37.320857	37.430613	51.000000	35.000000
37.414936	37.524544	83.000000	53.000000
37.414936	37.524544	54.000000	35.000000
37.508920	37.618314	82.000000	50.000000
37.508920	37.602690	59.000000	35.000000
37.602690	37.712084	83.000000	52.000000
37.602690	37.712084	47.000000	40.000000
37.696461	37.805613	81.000000	52.000000
37.696461	37.805613	51.000000	35.000000
37.790030	37.899088	79.000000	51.000000
37.790030	37.899088	54.000000	35.000000
37.883505	37.992563	78.000000	50.000000
37.883505	37.976980	59.000000	35.000000
37.976980	38.086038	79.000000	52.000000
37.976980	38.086038	47.000000	40.000000
38.070455	38.179513	78.000000	51.000000
38.070455	38.179513	52.000000	35.000000
38.163930	38.272988	76.000000	49.000000
38.163930	38.272988	55.000000	35.000000
38.257405	38.366463	75.000000	50.000000
38.257405	38.350880	59.000000	35.000000
38.350880	38.459938	76.000000	50.000000
38.350880	38.459938	47.000000	41.000000
38.444355	38.553414	79.000000	53.000000
38.444355	38.553414	52.000000	35.000000
38.537830	38.646889	78.000000	50.000000
38.537830	38.646889	55.000000	35.000000
38.631305	38.740364	76.000000	50.000000
38.631305	38.724780	59.000000	35.000000
38.724780	38.833839	75.000000	50.000000
38.724780	38.833839	47.000000	40.000000
38.818255	38.927314	73.000000	49.000000
38.818255	38.927314	54.000000	35.000000
38.911730	39.020789	71.000000	48.000000
38.911730	39.020789	57.000000	35.000000
39.005205	39.114264	70.000000	47.000000
39.005205	39.098680	59.000000	35.000000
39.098680	39.207739	71.000000	49.000000
39.098680	39.207739	47.000000	40.000000
39.192155	39.301214	73.000000	50.000000
39.192155	39.301214	54.000000	36.000000
39.285630	39.394689	74.000000	50.000000
39.285630	39.394689	57.000000	36.000000
39.379105	39.488164	75.000000	52.000000
39.379105	39.472580	59.000000	36.000000
39.472580	39.581639	76.000000	52.000000
39.472580	39.581639	47.000000	42.000000
39.566055	39.675114	75.000000	52.000000
39.566055	39.675114	52.000000	36.000000
39.659530	39.768589	76.000000	54.000000
39.659530	39.768589	55.000000	37.000000
39.753005	39.862064	78.000000	54.000000
39.753005	39.846480	59.000000	37.000000
39.846480	39.955539	79.000000	56.000000
39.846480	39.955539	47.000000	42.000000
39.939956	40.049805	80.000000	58.000000
39.939956	40.049805	52.000000	37.000000
40.033431	40.148041	81.000000	60.000000
40.033431	40.148041	55.000000	37.000000
40.131667	40.245486	82.000000	62.000000
40.131667	40.229903	59.000000	38.000000
40.229903	40.323391	83.000000	68.000000
40.229903	40.323391	47.000000	44.000000
40.323391	40.416866	78.000000	60.000000
40.323391	40.416866	51.000000	38.000000
40.416866	40.510341	75.000000	61.000000
40.416866	40.510341	54.000000	38.000000
40.510341	40.603816	71.000000	61.000000
40.510341	40.603816	59.000000	38.000000
40.603816	40.697291	70.000000	75.000000
40.603816	40.697291	58.000000	50.000000
40.697291	40.790766	71.000000	63.000000
40.697291	40.790766	59.000000	41.000000
40.790766	40.884241	76.000000	63.000000
40.790766	40.884241	55.000000	40.000000
40.884241	40.977716	79.000000	63.000000
40.884241	40.977716	52.000000	41.000000
40.977716	41.071191	83.000000	74.000000
40.977716	41.071191	47.000000	52.000000
41.071191	41.164666	78.000000	65.000000
41.071191	41.164666	51.000000	44.000000
41.164666	41.258141	75.000000	68.000000
41.164666	41.258141	54.000000	45.000000
41.258141	41.351616	71.000000	68.000000
41.258141	41.351616	59.000000	45.000000
41.351616	41.445092	70.000000	80.000000
41.351616	41.445092	58.000000	60.000000
41.445092	41.538567	71.000000	71.000000
41.445092	41.538567	59.000000	51.000000
41.538567	41.632042	76.000000	71.000000
41.538567	41.632042	55.000000	51.000000
41.632042	41.725517	79.000000	72.000000
41.632042	41.725517	52.000000	52.000000
41.725517	41.819005	83.000000	91.000000
41.725517	41.819005	47.000000	63.000000
41.819005	41.912480	78.000000	82.000000
41.819005	41.912480	51.000000	52.000000
41.912480	42.005955	75.000000	82.000000
41.912480	42.005955	54.000000	52.000000
42.005955	42.099430	71.000000	82.000000
42.005955	42.099430	59.000000	52.000000
42.099430	42.192905	83.000000	91.000000
42.099430	42.192905	47.000000	63.000000
42.192905	42.286380	79.000000	82.000000
42.192905	42.286380	52.000000	52.000000
42.286380	42.379855	76.000000	82.000000
42.286380	42.379855	55.000000	52.000000
42.379855	42.473330	71.000000	82.000000
42.379855	42.473330	59.000000	52.000000
42.473330	42.566819	83.000000	91.000000
42.473330	42.566819	47.000000	63.000000
42.566819	42.660294	78.000000	82.000000
42.566819	42.660294	51.000000	52.000000
42.660294	42.753769	75.000000	81.000000
42.660294	42.753769	54.000000	52.000000
42.753769	42.847244	71.000000	81.000000
42.753769	42.847244	59.000000	52.000000
42.847244	42.940732	83.000000	91.000000
42.847244	42.940732	47.000000	63.000000
42.940732	43.034208	79.000000	81.000000
42.940732	43.034208	52.000000	52.000000
43.034208	43.127683	76.000000	81.000000
43.034208	43.127683	55.000000	52.000000
43.127683	43.221158	71.000000	82.000000
43.127683	43.221158	59.000000	52.000000
43.221158	43.314941	83.000000	91.000000
43.221158	43.596292	47.000000	54.000000
43.221158	43.596292	51.000000	54.000000
43.221158	43.596292	54.000000	54.000000
43.221158	43.596292	59.000000	63.000000
43.314941	43.408725	78.000000	82.000000
43.408725	43.502508	75.000000	82.000000
43.502508	43.596292	71.000000	82.000000
43.596292	43.690075	78.000000	91.000000
43.690075	43.784060	75.000000	82.000000
43.784060	43.878152	71.000000	82.000000
43.878152	43.972244	66.000000	82.000000
43.972244	44.066336	75.000000	91.000000
44.066336	44.160428	71.000000	82.000000
44.160428	44.254613	66.000000	81.000000
44.254613	44.349000	63.000000	81.000000
44.349000	44.443387	71.000000	91.000000
44.443387	44.537774	66.000000	81.000000
44.537774	44.632161	63.000000	81.000000
44.632161	44.726656	59.000000	82.000000
44.726656	44.820439	66.000000	91.000000
44.820439	44.914223	63.000000	81.000000
44.914223	45.008207	59.000000	80.000000
45.008207	45.102299	54.000000	80.000000
45.102299	45.196485	63.000000	89.000000
45.196485	45.290872	59.000000	79.000000
45.290872	45.385259	54.000000	79.000000
45.385259	45.479955	51.000000	78.000000
45.479955	45.574650	59.000000	87.000000
45.574650	45.669560	54.000000	78.000000
45.669560	45.764564	51.000000	77.000000
45.764564	45.859675	47.000000	77.000000
45.859675	45.955001	35.000000	85.000000
45.955001	46.050327	39.000000	76.000000
46.050327	46.150252	42.000000	76.000000
46.150252	46.250178	47.000000	75.000000
46.250178	46.346134	35.000000	77.000000
46.442090	46.538046	47.000000	68.000000
46.634003	46.729959	37.000000	73.000000
46.825915	46.921871	49.000000	66.000000
47.017827	47.113783	71.000000	75.000000
47.017827	47.113783	39.000000	71.000000
47.209739	47.305695	59.000000	69.000000
47.209739	47.305695	51.000000	65.000000
47.401651	47.497607	73.000000	74.000000
47.593563	47.693825	61.000000	65.000000
47.794086	47.890042	75.000000	71.000000
47.794086	47.890042	39.000000	69.000000
47.985998	48.081954	63.000000	64.000000
47.985998	48.081954	51.000000	61.000000
48.178218	48.274483	40.000000	65.000000
48.370855	48.467455	52.000000	59.000000
48.564054	48.660869	75.000000	67.000000
48.564054	48.660869	42.000000	65.000000
48.757790	48.854712	63.000000	53.000000
48.757790	48.854712	54.000000	54.000000
48.951956	49.049199	76.000000	59.000000
49.146657	49.244223	64.000000	50.000000
49.341788	49.438710	78.000000	52.000000
49.535632	49.632661	66.000000	49.000000
49.729904	49.827148	80.000000	52.000000
49.924606	50.022171	68.000000	49.000000
50.119844	50.217745	81.000000	52.000000
50.119844	50.217745	42.000000	41.000000
50.315645	50.413546	69.000000	48.000000
50.315645	50.413546	54.000000	36.000000
50.511447	50.609012	81.000000	52.000000
50.511447	50.609012	44.000000	41.000000
50.706685	50.804586	71.000000	46.000000
50.706685	50.804586	56.000000	36.000000
50.902821	51.001165	81.000000	51.000000
50.902821	51.001165	45.000000	40.000000
51.099723	51.198616	73.000000	46.000000
51.099723	51.198616	57.000000	37.000000
51.297629	51.396871	81.000000	51.000000
51.297629	51.396871	47.000000	39.000000
51.496448	51.596146	75.000000	46.000000
51.496448	51.596146	59.000000	36.000000
51.696072	51.795260	81.000000	51.000000
51.696072	51.795260	49.000000	38.000000
51.895588	51.997619	76.000000	47.000000
51.895588	51.997619	61.000000	37.000000
52.101367	52.209528	81.000000	50.000000
52.101367	52.209528	51.000000	40.000000
52.324554	52.447386	78.000000	46.000000
52.324554	52.447386	63.000000	37.000000
52.581496	53.462039	71.000000	42.000000
52.581496	53.462039	76.000000	42.000000
52.581496	53.462039	80.000000	55.000000
52.581496	53.462039	68.000000	39.000000
52.581496	53.462039	64.000000	33.000000
53.462039	53.892642	69.000000	40.000000
53.462039	53.892642	75.000000	40.000000
53.462039	53.892642	78.000000	52.000000
53.462039	53.892642	66.000000	35.000000
53.462039	53.892642	63.000000	29.000000
53.462039	53.892642	59.000000	29.000000
53.892642	54.348296	68.000000	40.000000
53.892642	54.348296	73.000000	40.000000
53.892642	54.348296	76.000000	52.000000
53.892642	54.348296	64.000000	35.000000
53.892642	54.348296	61.000000	29.000000
54.348296	55.232138	66.000000	42.000000
54.348296	55.232138	72.000000	42.000000
54.348296	55.232138	75.000000	55.000000
54.348296	55.232138	63.000000	39.000000
54.348296	55.232138	60.000000	33.000000
54.348296	55.232138	56.000000	33.000000
55.232138	56.136888	64.000000	40.000000
55.232138	56.136888	73.000000	52.000000
55.232138	56.136888	61.000000	34.000000
55.232138	56.136888	57.000000	28.000000
56.136888	57.027422	69.000000	49.000000
56.136888	57.027422	71.000000	49.000000
56.136888	57.027422	75.000000	63.000000
56.136888	57.027422	54.000000	37.000000
56.136888	57.027422	57.000000	45.000000
56.136888	57.027422	59.000000	37.000000
56.136888	57.027422	63.000000	45.000000
57.027422	57.492544	71.000000	50.000000
57.027422	57.492544	76.000000	66.000000
57.027422	57.492544	56.000000	40.000000
57.027422	57.492544	59.000000	40.000000
57.027422	57.492544	64.000000	49.000000
57.492544	57.982342	73.000000	48.000000
57.492544	57.982342	76.000000	55.000000
57.492544	57.982342	78.000000	72.000000
57.492544	57.982342	66.000000	51.000000
57.492544	57.982342	57.000000	46.000000
57.492544	57.982342	61.000000	42.000000
57.982342	59.354763	71.000000	59.000000
57.982342	58.891438	76.000000	59.000000
57.982342	58.891438	80.000000	77.000000
57.982342	59.819308	59.000000	49.000000
57.982342	58.891438	64.000000	49.000000
57.982342	58.891438	68.000000	59.000000
58.891438	59.821253	75.000000	32.000000
58.891438	59.821253	78.000000	49.000000
58.891438	59.821253	63.000000	27.000000
58.891438	59.821253	66.000000	32.000000
59.354763	59.821253	69.000000	48.000000
59.821253	60.701796	59.000000	37.000000
59.821253	60.701796	64.000000	37.000000
59.821253	60.701796	68.000000	45.000000
59.821253	60.701796	56.000000	35.000000
59.821253	60.701796	52.000000	29.000000
60.701796	61.132398	57.000000	36.000000
60.701796	61.132398	63.000000	36.000000
60.701796	61.132398	66.000000	43.000000
60.701796	61.132398	54.000000	31.000000
60.701796	61.132398	51.000000	26.000000
60.701796	61.132398	47.000000	26.000000
61.132398	61.588052	56.000000	36.000000
61.132398	61.588052	61.000000	36.000000
61.132398	61.588052	64.000000	43.000000
61.132398	61.588052	52.000000	31.000000
61.132398	61.588052	49.000000	26.000000
61.588052	62.471894	54.000000	37.000000
61.588052	62.471894	60.000000	37.000000
61.588052	62.471894	63.000000	45.000000
61.588052	62.471894	51.000000	35.000000
61.588052	62.471894	48.000000	29.000000
61.588052	62.471894	44.000000	29.000000
62.471894	63.376644	57.000000	36.000000
62.471894	63.376644	52.000000	36.000000
62.471894	63.376644	61.000000	43.000000
62.471894	63.376644	49.000000	30.000000
62.471894	63.376644	45.000000	25.000000
63.376644	63.821918	52.000000	44.000000
63.376644	63.821918	56.000000	44.000000
63.376644	64.267191	59.000000	52.000000
63.376644	65.163278	35.000000	33.000000
63.376644	65.163278	47.000000	40.000000
63.821918	65.163278	54.000000	50.000000
63.821918	65.163278	57.000000	50.000000
64.267191	64.702568	61.000000	61.000000
64.702568	65.163278	63.000000	69.000000
65.163278	65.313629	56.000000	43.000000
65.163278	65.276038	64.000000	49.000000
65.163278	65.614332	40.000000	38.000000
65.163278	65.614332	52.000000	43.000000
65.313629	65.426389	66.000000	48.000000
65.463980	65.576741	68.000000	49.000000
65.614332	65.726649	69.000000	47.000000
65.764093	65.876411	71.000000	48.000000
65.913854	66.026172	73.000000	49.000000
66.063615	66.175504	74.000000	50.000000
66.212800	66.324688	75.000000	51.000000
66.361985	66.473873	76.000000	52.000000
66.511169	66.623058	77.000000	52.000000
66.660354	66.772242	78.000000	53.000000
66.809538	66.921427	79.000000	53.000000
66.958723	67.826954	71.000000	45.000000
66.958723	67.103428	80.000000	57.000000
66.958723	67.826954	68.000000	44.000000
66.958723	67.826954	64.000000	37.000000
67.103428	67.248133	79.000000	53.000000
67.248133	67.392839	80.000000	53.000000
67.392839	67.537544	81.000000	53.000000
67.537544	67.682249	79.000000	53.000000
67.682249	67.826954	80.000000	53.000000
67.826954	68.251535	69.000000	60.000000
67.826954	68.251535	66.000000	40.000000
67.826954	68.251535	63.000000	33.000000
67.826954	68.251535	59.000000	33.000000
67.968481	68.110008	80.000000	54.000000
68.110008	68.251535	78.000000	54.000000
68.251535	68.700819	68.000000	60.000000
68.251535	68.700819	64.000000	40.000000
68.251535	68.700819	61.000000	33.000000
68.401296	68.551057	78.000000	53.000000
68.551057	68.700819	76.000000	53.000000
68.700819	69.572349	66.000000	60.000000
68.700819	69.572349	63.000000	44.000000
68.700819	69.572349	60.000000	37.000000
68.700819	69.572349	56.000000	37.000000
68.846074	68.991329	72.000000	54.000000
68.991329	69.136584	75.000000	54.000000
69.136584	69.281839	76.000000	54.000000
69.281839	69.427094	72.000000	54.000000
69.427094	69.572349	75.000000	54.000000
69.572349	70.464439	64.000000	60.000000
69.572349	70.464439	61.000000	39.000000
69.572349	70.464439	57.000000	32.000000
69.717605	69.862860	69.000000	54.000000
69.862860	70.008115	73.000000	54.000000
70.008115	70.160223	75.000000	54.000000
70.160223	70.312331	69.000000	54.000000
70.312331	70.464439	73.000000	54.000000
70.464439	71.342568	69.000000	62.000000
70.464439	71.342568	54.000000	39.000000
70.464439	71.342568	57.000000	47.000000
70.464439	71.342568	59.000000	39.000000
70.464439	71.342568	63.000000	47.000000
70.610794	70.757149	74.000000	62.000000
70.757149	70.903504	75.000000	57.000000
70.903504	71.049859	76.000000	57.000000
71.049859	71.196214	74.000000	59.000000
71.196214	71.342568	75.000000	59.000000
71.342568	71.771856	71.000000	71.000000
71.342568	71.771856	56.000000	45.000000
71.342568	71.771856	59.000000	45.000000
71.342568	71.771856	64.000000	53.000000
71.485664	71.628760	78.000000	63.000000
71.628760	71.771856	76.000000	64.000000
71.771856	72.226410	73.000000	74.000000
71.771856	72.226410	66.000000	59.000000
71.771856	72.226410	57.000000	49.000000
71.771856	72.226410	61.000000	49.000000
71.923374	72.074892	80.000000	65.000000
72.074892	72.226410	78.000000	65.000000
72.226410	72.371666	80.000000	79.000000
72.226410	73.097941	76.000000	79.000000
72.226410	73.996723	59.000000	53.000000
72.226410	73.097941	64.000000	53.000000
72.226410	73.097941	68.000000	65.000000
72.371666	72.516921	79.000000	72.000000
72.516921	72.662176	80.000000	72.000000
72.662176	72.807431	83.000000	68.000000
72.807431	72.952686	81.000000	72.000000
72.952686	73.097941	80.000000	69.000000
73.097941	73.244846	75.000000	67.000000
73.097941	73.244846	78.000000	67.000000
73.097941	73.538655	63.000000	45.000000
73.097941	73.538655	66.000000	53.000000
73.244846	73.391751	73.000000	64.000000
73.244846	73.391751	76.000000	64.000000
73.391751	73.538655	75.000000	60.000000
73.391751	73.538655	71.000000	60.000000
73.538655	73.691984	69.000000	60.000000
73.538655	73.691984	73.000000	60.000000
73.538655	73.691984	47.000000	44.000000
73.691984	73.845312	68.000000	56.000000
73.691984	73.845312	71.000000	56.000000
73.691984	73.845312	49.000000	43.000000
73.845312	73.998641	66.000000	53.000000
73.845312	73.998641	69.000000	53.000000
73.845312	73.998641	51.000000	41.000000
73.998641	74.866873	59.000000	57.000000
73.998641	74.143346	68.000000	57.000000
73.998641	74.866873	56.000000	45.000000
73.998641	74.866873	52.000000	37.000000
74.143346	74.288052	67.000000	49.000000
74.288052	74.432757	68.000000	49.000000
74.432757	74.577462	69.000000	49.000000
74.577462	74.722167	67.000000	49.000000
74.722167	74.866873	68.000000	49.000000
74.866873	75.291453	57.000000	56.000000
74.866873	75.291453	54.000000	41.000000
74.866873	75.291453	51.000000	33.000000
74.866873	75.291453	47.000000	33.000000
75.008399	75.149926	68.000000	50.000000
75.149926	75.291453	66.000000	50.000000
75.291453	75.740737	56.000000	56.000000
75.291453	75.740737	52.000000	41.000000
75.291453	75.740737	49.000000	33.000000
75.441214	75.590976	66.000000	49.000000
75.590976	75.740737	64.000000	49.000000
75.740737	76.612268	51.000000	37.000000
75.740737	76.612268	54.000000	49.000000
75.740737	76.612268	48.000000	37.000000
75.740737	76.612268	44.000000	37.000000
75.885992	76.031247	60.000000	50.000000
76.031247	76.176502	63.000000	50.000000
76.176502	76.321757	64.000000	53.000000
76.321757	76.467012	60.000000	50.000000
76.467012	76.612268	63.000000	50.000000
76.612268	77.504357	45.000000	39.000000
76.612268	77.504357	49.000000	39.000000
76.612268	77.504357	52.000000	32.000000
76.757523	76.902778	57.000000	50.000000
76.902778	77.048033	61.000000	50.000000
77.048033	77.200141	63.000000	53.000000
77.200141	77.352249	57.000000	50.000000
77.352249	77.504357	61.000000	50.000000
77.504357	77.951616	52.000000	60.000000
77.504357	79.317183	35.000000	46.000000
77.504357	79.317183	47.000000	55.000000
77.650712	77.797067	56.000000	56.000000
77.797067	77.951616	59.000000	57.000000
77.951616	78.406050	54.000000	66.000000
78.099647	78.247692	57.000000	61.000000
78.247692	78.406050	59.000000	61.000000
78.406050	78.861891	54.000000	74.000000
78.557581	78.707342	57.000000	67.000000
78.707342	78.861891	61.000000	65.000000
78.861891	79.317183	54.000000	80.000000
79.012229	79.162567	57.000000	71.000000
79.162567	79.317183	63.000000	70.000000
79.317183	79.462988	56.000000	77.000000
79.317183	79.462988	64.000000	82.000000
79.317183	79.754598	40.000000	50.000000
79.317183	79.754598	52.000000	60.000000
79.462988	79.608793	59.000000	75.000000
79.608793	79.754598	56.000000	77.000000
79.754598	79.900403	59.000000	82.000000
79.754598	80.631721	47.000000	76.000000
79.900403	80.046208	64.000000	77.000000
80.046208	80.195969	68.000000	77.000000
80.195969	80.341211	66.000000	82.000000
80.341211	80.486466	63.000000	77.000000
80.486466	80.631721	59.000000	77.000000
80.631721	80.776976	63.000000	82.000000
80.631721	81.503480	47.000000	76.000000
80.776976	80.922232	66.000000	77.000000
80.922232	81.072570	69.000000	77.000000
81.072570	81.216215	68.000000	82.000000
81.216215	81.359848	64.000000	75.000000
81.359848	81.503480	59.000000	77.000000
81.503480	81.647112	64.000000	82.000000
81.503480	82.374260	47.000000	75.000000
81.647112	81.790745	68.000000	77.000000
81.790745	81.940506	71.000000	77.000000
81.940506	82.083079	69.000000	82.000000
82.083079	82.225652	66.000000	77.000000
82.225652	82.374260	63.000000	77.000000
82.374260	82.516833	75.000000	82.000000
82.374260	82.801979	47.000000	74.000000
82.516833	82.659406	69.000000	77.000000
82.659406	82.801979	66.000000	77.000000
82.801979	83.228128	68.000000	63.000000
82.801979	83.228128	76.000000	75.000000
82.801979	82.944028	52.000000	73.000000
82.944028	83.086078	47.000000	67.000000
83.086078	83.228128	44.000000	69.000000
83.228128	84.088420	71.000000	80.000000
83.228128	83.370178	47.000000	73.000000
83.370178	83.512228	52.000000	69.000000
83.512228	83.659133	56.000000	69.000000
83.659133	83.802229	54.000000	73.000000
83.802229	83.945325	51.000000	69.000000
83.945325	84.088420	47.000000	69.000000
84.088420	84.951368	71.000000	80.000000
84.088420	84.231516	51.000000	73.000000
84.231516	84.374612	54.000000	69.000000
84.374612	84.522080	57.000000	69.000000
84.522080	84.665176	56.000000	73.000000
84.665176	84.808272	52.000000	67.000000
84.808272	84.951368	47.000000	69.000000
84.951368	85.820351	71.000000	80.000000
84.951368	85.094464	52.000000	73.000000
85.094464	85.237560	56.000000	69.000000
85.237560	85.385028	59.000000	69.000000
85.385028	85.528674	57.000000	73.000000
85.528674	85.672306	54.000000	69.000000
85.672306	85.820351	51.000000	69.000000
85.820351	86.253541	71.000000	80.000000
85.820351	85.962924	63.000000	73.000000
85.962924	86.105497	57.000000	69.000000
86.105497	86.253541	54.000000	69.000000
86.253541	86.395578	76.000000	82.000000
86.253541	86.395578	56.000000	64.000000
86.395578	86.537628	71.000000	75.000000
86.395578	86.537628	59.000000	56.000000
86.537628	86.679677	68.000000	77.000000
86.537628	86.679677	64.000000	56.000000
86.679677	86.821727	71.000000	82.000000
86.679677	86.821727	59.000000	64.000000
86.821727	86.963777	76.000000	77.000000
86.821727	86.963777	56.000000	57.000000
86.963777	87.110682	80.000000	77.000000
86.963777	87.110682	52.000000	57.000000
87.110682	87.253255	78.000000	82.000000
87.110682	87.253255	51.000000	64.000000
87.253255	87.395828	75.000000	77.000000
87.253255	87.395828	54.000000	56.000000
87.395828	87.538401	71.000000	77.000000
87.395828	87.538401	57.000000	56.000000
87.538401	87.680974	75.000000	82.000000
87.538401	87.680974	54.000000	64.000000
87.680974	87.823546	78.000000	77.000000
87.680974	87.823546	51.000000	57.000000
87.823546	87.969901	81.000000	77.000000
87.823546	87.969901	47.000000	58.000000
87.969901	88.111442	80.000000	82.000000
87.975212	88.116752	52.000000	64.000000
88.111442	88.252982	76.000000	75.000000
88.111442	88.252982	56.000000	56.000000
88.252982	88.394509	71.000000	77.000000
88.252982	88.394509	59.000000	56.000000
88.394509	88.536036	76.000000	82.000000
88.394509	88.536036	56.000000	64.000000
88.536036	88.677562	80.000000	77.000000
88.536036	88.677562	52.000000	57.000000
88.677562	88.832728	83.000000	77.000000
88.683383	88.838052	47.000000	57.000000
88.832728	88.974778	81.000000	82.000000
88.832728	88.974778	51.000000	64.000000
88.974778	89.116828	78.000000	77.000000
88.974778	89.116828	57.000000	56.000000
89.116828	89.270157	75.000000	77.000000
89.122581	89.275467	59.000000	56.000000
89.270157	89.411697	87.000000	82.000000
89.270157	89.411697	57.000000	64.000000
89.411697	89.553224	81.000000	77.000000
89.411697	89.553224	59.000000	57.000000
89.553224	89.694751	78.000000	77.000000
89.553224	89.694751	66.000000	58.000000
89.694751	89.906283	88.000000	84.000000
89.694751	89.835781	56.000000	64.000000
89.835781	89.976785	83.000000	74.000000
89.835781	89.976785	59.000000	55.000000
89.976785	90.117802	80.000000	74.000000
89.976785	90.117802	64.000000	55.000000
90.117802	90.329321	83.000000	79.000000
90.117802	90.258820	52.000000	62.000000
90.258820	90.399823	80.000000	73.000000
90.258820	90.399823	56.000000	55.000000
90.399823	90.546178	76.000000	72.000000
90.399823	90.546178	59.000000	54.000000
90.546178	90.756919	81.000000	78.000000
90.546178	90.686672	54.000000	59.000000
90.686672	90.827167	78.000000	71.000000
90.686672	90.827167	57.000000	51.000000
90.827167	90.967661	75.000000	70.000000
90.827167	90.967661	59.000000	51.000000
90.967661	91.178402	87.000000	77.000000
90.967661	91.108155	57.000000	57.000000
91.108155	91.248649	83.000000	69.000000
91.108155	91.248649	59.000000	51.000000
91.248649	91.403198	78.000000	67.000000
91.248649	91.403198	66.000000	51.000000
91.403198	91.613175	88.000000	74.000000
91.403198	91.543183	56.000000	56.000000
91.543183	91.683167	83.000000	65.000000
91.543183	91.683167	59.000000	48.000000
91.683167	91.823152	80.000000	65.000000
91.683167	91.823152	64.000000	48.000000
91.823152	92.033129	83.000000	72.000000
91.823152	91.963136	52.000000	54.000000
91.963136	92.103121	80.000000	64.000000
91.963136	92.103121	56.000000	48.000000
92.103121	92.250026	76.000000	63.000000
92.103121	92.250026	59.000000	47.000000
92.250026	92.459265	81.000000	69.000000
92.250026	92.389514	54.000000	51.000000
92.389514	92.529016	78.000000	62.000000
92.389514	92.529016	57.000000	44.000000
92.529016	92.668504	75.000000	60.000000
92.529016	92.668504	59.000000	44.000000
92.668504	92.877744	87.000000	68.000000
92.668504	92.807993	57.000000	50.000000
92.807993	92.947494	83.000000	59.000000
92.807993	92.947494	59.000000	44.000000
92.947494	93.102043	78.000000	58.000000
92.947494	93.102043	66.000000	44.000000
93.102043	93.205536	88.000000	64.000000
93.102043	93.205536	56.000000	50.000000
93.205536	93.308842	83.000000	58.000000
93.205536	93.308842	59.000000	43.000000
93.308842	93.411906	80.000000	58.000000
93.308842	93.411906	52.000000	43.000000
93.411906	93.514661	76.000000	59.000000
93.411906	93.514661	59.000000	44.000000
93.514661	93.617122	81.000000	65.000000
93.514661	93.617122	54.000000	51.000000
93.617122	93.719341	78.000000	59.000000
93.617122	93.719341	59.000000	44.000000
93.719341	93.821318	87.000000	62.000000
93.719341	93.821318	57.000000	44.000000
93.821318	93.922988	83.000000	63.000000
93.821318	93.922988	59.000000	44.000000
93.922988	94.024375	88.000000	69.000000
93.922988	94.024375	56.000000	52.000000
94.024375	94.125696	83.000000	63.000000
94.024375	94.125696	59.000000	46.000000
94.125696	94.227016	80.000000	63.000000
94.125696	94.227016	52.000000	47.000000
94.227016	94.328337	76.000000	64.000000
94.227016	94.328337	59.000000	49.000000
94.328337	94.429657	81.000000	71.000000
94.328337	94.429657	54.000000	55.000000
94.429657	94.530978	78.000000	66.000000
94.429657	94.530978	59.000000	48.000000
94.530978	94.632298	87.000000	67.000000
94.530978	94.632298	57.000000	48.000000
94.632298	94.740190	83.000000	67.000000
94.632298	94.740190	59.000000	49.000000
94.740190	94.840813	88.000000	74.000000
94.740190	94.840813	56.000000	58.000000
94.840813	94.941262	83.000000	67.000000
94.840813	94.941262	59.000000	50.000000
94.941262	95.041523	87.000000	69.000000
94.941262	95.041523	57.000000	51.000000
95.041523	95.141503	83.000000	69.000000
95.041523	95.141503	59.000000	52.000000
95.141503	95.241375	88.000000	77.000000
95.141503	95.241375	56.000000	60.000000
95.241375	95.340952	83.000000	77.000000
95.241375	95.340952	59.000000	52.000000
95.340952	95.440368	87.000000	72.000000
95.340952	95.440368	57.000000	52.000000
95.440368	95.539610	83.000000	73.000000
95.440368	95.539610	59.000000	54.000000
95.539610	95.638503	88.000000	80.000000
95.539610	95.638503	56.000000	62.000000
95.638503	95.737396	83.000000	73.000000
95.638503	95.737396	59.000000	55.000000
95.737396	95.836289	87.000000	74.000000
95.737396	95.836289	57.000000	55.000000
95.836289	95.935182	83.000000	74.000000
95.836289	95.935182	59.000000	57.000000
95.935182	96.034075	88.000000	82.000000
95.935182	96.034075	56.000000	65.000000
96.034075	96.132968	83.000000	85.000000
96.034075	96.132968	59.000000	57.000000
96.132968	96.231861	87.000000	78.000000
96.132968	96.231861	57.000000	57.000000
96.231861	96.340397	83.000000	79.000000
96.231861	96.340397	59.000000	58.000000
96.340397	96.438955	88.000000	89.000000
96.340397	96.438955	56.000000	70.000000
96.438955	96.537513	83.000000	81.000000
96.438955	96.537513	59.000000	60.000000
96.537513	96.635963	86.000000	81.000000
96.537513	96.635963	44.000000	60.000000
96.635963	96.734199	83.000000	81.000000
96.635963	96.734199	52.000000	62.000000
96.734199	96.832422	86.000000	89.000000
96.734199	96.832422	44.000000	70.000000
96.832422	96.930430	83.000000	83.000000
96.832422	96.930430	52.000000	60.000000
96.930430	97.028331	86.000000	82.000000
96.930430	97.028331	44.000000	60.000000
97.028331	97.126178	83.000000	82.000000
97.028331	97.126178	52.000000	60.000000
97.126178	97.223743	86.000000	89.000000
97.126178	97.223743	44.000000	70.000000
97.223743	97.321308	83.000000	81.000000
97.223743	97.321308	52.000000	60.000000
97.321308	97.418874	86.000000	81.000000
97.321308	97.418874	44.000000	60.000000
97.418874	97.516439	83.000000	81.000000
97.418874	97.516439	52.000000	62.000000
97.516439	97.614005	86.000000	89.000000
97.516439	97.614005	44.000000	70.000000
97.614005	97.711570	83.000000	83.000000
97.614005	97.711570	52.000000	60.000000
97.711570	97.809136	86.000000	82.000000
97.711570	97.809136	44.000000	60.000000
97.809136	97.910456	83.000000	82.000000
97.809136	97.910456	52.000000	60.000000
97.910456	98.100464	86.000000	89.000000
97.910456	98.005460	44.000000	70.000000
98.005460	98.100464	52.000000	60.000000
98.100464	98.195468	85.000000	81.000000
98.100464	98.195468	44.000000	60.000000
98.195468	98.290472	83.000000	81.000000
98.195468	98.290472	52.000000	62.000000
98.290472	98.385476	81.000000	88.000000
98.290472	98.385476	44.000000	70.000000
98.385476	98.480479	80.000000	83.000000
98.385476	98.480479	52.000000	60.000000
98.480479	98.575483	78.000000	83.000000
98.480479	98.575483	44.000000	60.000000
98.575483	98.670487	76.000000	83.000000
98.575483	98.670487	52.000000	61.000000
98.670487	98.765491	74.000000	88.000000
98.670487	98.765491	44.000000	71.000000
98.765491	98.860495	73.000000	82.000000
98.765491	98.860495	52.000000	61.000000
98.860495	98.955499	71.000000	83.000000
98.860495	98.955499	44.000000	61.000000
98.955499	99.050503	69.000000	83.000000
98.955499	99.050503	52.000000	63.000000
99.050503	99.145507	68.000000	91.000000
99.050503	99.145507	44.000000	72.000000
99.145507	99.240511	66.000000	86.000000
99.145507	99.240511	52.000000	62.000000
99.240511	99.335515	64.000000	85.000000
99.240511	99.335515	44.000000	62.000000
99.335515	99.430518	62.000000	85.000000
99.335515	99.430518	52.000000	62.000000
99.430518	99.522733	61.000000	93.000000
99.430518	99.569122	45.000000	67.000000
99.430518	99.569122	49.000000	67.000000
99.430518	99.569122	52.000000	80.000000
99.522733	99.616101	63.000000	84.000000
99.616101	99.709173	64.000000	84.000000
99.616101	99.755857	45.000000	60.000000
99.616101	99.755857	49.000000	60.000000
99.616101	99.755857	52.000000	73.000000
99.709173	99.802876	63.000000	86.000000
99.802876	99.896284	64.000000	92.000000
99.896284	99.989210	68.000000	85.000000
99.989210	100.087110	69.000000	85.000000
99.989210	100.136061	45.000000	60.000000
99.989210	100.136061	49.000000	60.000000
99.989210	100.136061	52.000000	73.000000
100.087110	100.185011	68.000000	85.000000
100.185011	100.277936	69.000000	93.000000
100.185011	100.323990	45.000000	67.000000
100.185011	100.323990	49.000000	67.000000
100.185011	100.323990	52.000000	80.000000
100.277936	100.370714	72.000000	84.000000
100.370714	100.464082	73.000000	84.000000
100.370714	100.510001	45.000000	60.000000
100.370714	100.510001	49.000000	60.000000
100.370714	100.510001	52.000000	73.000000
100.464082	100.556202	72.000000	84.000000
100.556202	100.650200	73.000000	93.000000
100.650200	100.743085	75.000000	84.000000
100.743085	100.840651	76.000000	84.000000
100.743085	100.889440	45.000000	60.000000
100.743085	100.889440	49.000000	60.000000
100.743085	100.889440	52.000000	73.000000
100.840651	100.938229	75.000000	84.000000
100.938229	101.031168	76.000000	95.000000
100.938229	101.077423	45.000000	67.000000
100.938229	101.077423	49.000000	67.000000
100.938229	101.077423	52.000000	78.000000
101.031168	101.124549	80.000000	86.000000
101.124549	101.217193	81.000000	86.000000
101.124549	101.263917	45.000000	60.000000
101.124549	101.263917	49.000000	60.000000
101.124549	101.263917	52.000000	73.000000
101.217193	101.310896	80.000000	86.000000
101.310896	101.403486	81.000000	95.000000
101.403486	101.496706	84.000000	86.000000
101.496706	101.593628	85.000000	86.000000
101.496706	101.642082	45.000000	60.000000
101.496706	101.642082	49.000000	60.000000
101.496706	101.642082	52.000000	73.000000
101.593628	101.690536	84.000000	86.000000
101.690536	101.783139	85.000000	95.000000
101.690536	101.829528	45.000000	67.000000
101.690536	101.829528	49.000000	67.000000
101.690536	101.829528	52.000000	78.000000
101.783139	101.876547	87.000000	86.000000
101.876547	101.969097	88.000000	86.000000
101.876547	102.015057	45.000000	60.000000
101.876547	102.015057	49.000000	60.000000
101.876547	102.015057	52.000000	73.000000
101.969097	102.061593	87.000000	86.000000
102.061593	102.155497	88.000000	95.000000
102.155497	102.248664	87.000000	86.000000
102.248664	102.349636	85.000000	86.000000
102.248664	102.400115	45.000000	60.000000
102.248664	102.400115	49.000000	60.000000
102.248664	102.400115	52.000000	73.000000
102.349636	102.449347	84.000000	86.000000
102.449347	102.542178	85.000000	95.000000
102.449347	102.588527	52.000000	67.000000
102.449347	102.588527	46.000000	67.000000
102.449347	102.588527	49.000000	67.000000
102.449347	102.588527	54.000000	78.000000
102.542178	102.635506	84.000000	86.000000
102.635506	102.729356	85.000000	86.000000
102.635506	102.775504	52.000000	60.000000
102.635506	102.775504	46.000000	60.000000
102.635506	102.775504	49.000000	60.000000
102.635506	102.775504	54.000000	73.000000
102.729356	102.822134	87.000000	86.000000
102.822134	102.915636	88.000000	95.000000
102.915636	103.009245	87.000000	86.000000
103.009245	103.106166	85.000000	86.000000
103.009245	103.154621	52.000000	60.000000
103.009245	103.154621	46.000000	60.000000
103.009245	103.154621	49.000000	60.000000
103.009245	103.154621	54.000000	73.000000
103.106166	103.203075	84.000000	86.000000
103.203075	103.296107	85.000000	95.000000
103.203075	103.342402	52.000000	67.000000
103.203075	103.342402	46.000000	67.000000
103.203075	103.342402	49.000000	67.000000
103.203075	103.342402	54.000000	78.000000
103.296107	103.389234	84.000000	86.000000
103.389234	103.483326	85.000000	86.000000
103.389234	103.529674	52.000000	60.000000
103.389234	103.529674	46.000000	60.000000
103.389234	103.529674	49.000000	60.000000
103.389234	103.529674	54.000000	73.000000
103.483326	103.576170	87.000000	86.000000
103.576170	103.670356	88.000000	95.000000
103.670356	103.763576	87.000000	86.000000
103.763576	103.860176	85.000000	86.000000
103.763576	103.908469	52.000000	60.000000
103.763576	103.908469	46.000000	60.000000
103.763576	103.908469	49.000000	60.000000
103.763576	103.908469	54.000000	73.000000
103.860176	103.956763	84.000000	86.000000
103.956763	104.049929	85.000000	95.000000
103.956763	104.096318	52.000000	67.000000
103.956763	104.096318	46.000000	67.000000
103.956763	104.096318	49.000000	67.000000
103.956763	104.096318	54.000000	78.000000
104.049929	104.143297	84.000000	86.000000
104.143297	104.237241	85.000000	86.000000
104.143297	104.283590	52.000000	60.000000
104.143297	104.283590	46.000000	60.000000
104.143297	104.283590	49.000000	60.000000
104.143297	104.283590	54.000000	73.000000
104.237241	104.329885	87.000000	86.000000
104.329885	104.423293	88.000000	95.000000
104.423293	104.516459	87.000000	86.000000
104.516459	104.613381	85.000000	86.000000
104.516459	104.661835	52.000000	60.000000
104.516459	104.661835	46.000000	60.000000
104.516459	104.661835	49.000000	60.000000
104.516459	104.661835	54.000000	73.000000
104.613381	104.710289	84.000000	86.000000
104.710289	104.803081	85.000000	95.000000
104.710289	104.849764	52.000000	67.000000
104.710289	104.849764	46.000000	67.000000
104.710289	104.849764	49.000000	67.000000
104.710289	104.849764	54.000000	78.000000
104.803081	104.896784	84.000000	86.000000
104.896784	104.989803	85.000000	86.000000
104.896784	105.036285	52.000000	60.000000
104.896784	105.036285	46.000000	60.000000
104.896784	105.036285	49.000000	60.000000
104.896784	105.036285	54.000000	73.000000
104.989803	105.083009	87.000000	86.000000
105.083009	105.176042	88.000000	95.000000
105.176042	105.269115	87.000000	86.000000
105.269115	105.365714	88.000000	86.000000
105.269115	105.414008	52.000000	60.000000
105.269115	105.414008	46.000000	60.000000
105.269115	105.414008	49.000000	60.000000
105.269115	105.414008	54.000000	73.000000
105.365714	105.462301	85.000000	86.000000
105.462301	105.555776	71.000000	87.000000
105.462301	105.555776	83.000000	103.000000
105.462301	105.555776	47.000000	78.000000
105.555776	105.649251	52.000000	70.000000
105.649251	105.742726	71.000000	73.000000
105.649251	105.742726	83.000000	87.000000
105.649251	105.742726	56.000000	70.000000
105.742726	105.836201	59.000000	70.000000
105.836201	105.930897	68.000000	74.000000
105.836201	105.930897	80.000000	88.000000
105.836201	105.930897	47.000000	77.000000
105.930897	106.025592	52.000000	70.000000
106.025592	106.120287	64.000000	73.000000
106.025592	106.120287	76.000000	87.000000
106.025592	106.120287	56.000000	70.000000
106.120287	106.214983	59.000000	70.000000
106.214983	106.308458	76.000000	87.000000
106.214983	106.308458	88.000000	103.000000
106.214983	106.308458	47.000000	75.000000
106.308458	106.401933	52.000000	70.000000
106.401933	106.495408	76.000000	73.000000
106.401933	106.495408	88.000000	87.000000
106.401933	106.495408	56.000000	70.000000
106.495408	106.588883	59.000000	70.000000
106.588883	106.684209	71.000000	73.000000
106.588883	106.684209	83.000000	87.000000
106.588883	106.684209	47.000000	75.000000
106.684209	106.779535	52.000000	70.000000
106.779535	106.874860	68.000000	73.000000
106.779535	106.874860	80.000000	87.000000
106.779535	106.874860	56.000000	70.000000
106.874860	106.969569	59.000000	70.000000
106.969569	107.063044	71.000000	87.000000
106.969569	107.063044	83.000000	103.000000
106.969569	107.063044	47.000000	78.000000
107.063044	107.156519	52.000000	70.000000
107.156519	107.249994	71.000000	73.000000
107.156519	107.249994	83.000000	87.000000
107.156519	107.249994	56.000000	70.000000
107.249994	107.343469	59.000000	70.000000
107.343469	107.437856	68.000000	74.000000
107.343469	107.437856	80.000000	88.000000
107.343469	107.437856	47.000000	77.000000
107.437856	107.532243	52.000000	70.000000
107.532243	107.626630	64.000000	73.000000
107.532243	107.626630	76.000000	87.000000
107.532243	107.626630	56.000000	70.000000
107.626630	107.721017	59.000000	70.000000
107.721017	107.814492	76.000000	87.000000
107.721017	107.814492	88.000000	103.000000
107.721017	107.814492	56.000000	75.000000
107.907967	108.001443	76.000000	73.000000
107.907967	108.001443	88.000000	87.000000
107.907967	108.001443	56.000000	70.000000
108.094918	108.189613	71.000000	73.000000
108.094918	108.189613	83.000000	87.000000
108.094918	108.189613	52.000000	75.000000
108.284308	108.379004	68.000000	73.000000
108.284308	108.379004	80.000000	87.000000
108.284308	108.379004	47.000000	70.000000
108.473699	108.567174	59.000000	86.000000
108.567174	108.660649	80.000000	47.000000
108.660649	108.847600	83.000000	50.000000
108.660649	108.754125	56.000000	47.000000
108.754125	108.847600	80.000000	47.000000
108.847600	109.034550	83.000000	51.000000
108.847600	108.941075	64.000000	53.000000
108.941075	109.034550	80.000000	47.000000
109.034550	109.221500	83.000000	50.000000
109.034550	109.128025	59.000000	48.000000
109.128025	109.221500	80.000000	47.000000
109.221500	109.406653	83.000000	51.000000
109.221500	109.314076	68.000000	52.000000
109.314076	109.406653	80.000000	47.000000
109.406653	109.591806	83.000000	50.000000
109.406653	109.499229	64.000000	41.000000
109.499229	109.591806	80.000000	47.000000
109.591806	109.776959	83.000000	52.000000
109.591806	109.684382	71.000000	50.000000
109.684382	109.776959	80.000000	47.000000
109.776959	109.962112	83.000000	51.000000
109.776959	109.869535	68.000000	41.000000
109.869535	109.962112	80.000000	47.000000
109.962112	110.148271	83.000000	50.000000
109.962112	110.055091	76.000000	50.000000
110.055091	110.148271	80.000000	47.000000
110.148271	110.334631	83.000000	50.000000
110.148271	110.241451	71.000000	41.000000
110.241451	110.334631	80.000000	47.000000
110.334631	110.520991	83.000000	51.000000
110.334631	110.427811	76.000000	50.000000
110.427811	110.520991	80.000000	47.000000
110.520991	110.707351	83.000000	50.000000
110.520991	110.614171	71.000000	39.000000
110.614171	110.707351	80.000000	47.000000
110.707351	110.893912	83.000000	51.000000
110.707351	110.800531	76.000000	50.000000
110.800531	110.893912	80.000000	47.000000
110.893912	111.081573	83.000000	50.000000
110.893912	110.987588	71.000000	41.000000
110.987588	111.081573	80.000000	47.000000
111.081573	111.270467	83.000000	52.000000
111.081573	111.175866	76.000000	50.000000
111.175866	111.270467	80.000000	47.000000
111.270467	111.460596	83.000000	51.000000
111.270467	111.365377	71.000000	42.000000
111.365377	111.460596	80.000000	47.000000
111.460596	111.554688	75.000000	46.000000
111.554688	111.648163	81.000000	42.000000
111.648163	111.835019	83.000000	45.000000
111.648163	111.741638	71.000000	37.000000
111.741638	111.835019	81.000000	41.000000
111.835019	112.021272	84.000000	44.000000
111.835019	111.928199	75.000000	43.000000
111.928199	112.021272	81.000000	40.000000
112.021272	112.206934	83.000000	42.000000
112.021272	112.114157	71.000000	36.000000
112.114157	112.206934	81.000000	39.000000
112.206934	112.391471	84.000000	42.000000
112.206934	112.298934	75.000000	41.000000
112.298934	112.391471	81.000000	38.000000
112.391471	112.576570	83.000000	40.000000
112.391471	112.483779	71.000000	32.000000
112.483779	112.576570	81.000000	37.000000
112.576570	112.761160	84.000000	40.000000
112.576570	112.668409	75.000000	39.000000
112.668409	112.761160	81.000000	36.000000
112.761160	112.945092	83.000000	39.000000
112.761160	112.852771	71.000000	31.000000
112.852771	112.945092	81.000000	35.000000
112.945092	113.130366	84.000000	37.000000
112.945092	113.037240	75.000000	36.000000
113.037240	113.130366	81.000000	34.000000
113.130366	113.314674	83.000000	36.000000
113.130366	113.221722	71.000000	30.000000
113.221722	113.314674	81.000000	34.000000
113.314674	113.498473	84.000000	37.000000
113.314674	113.406526	75.000000	36.000000
113.406526	113.498473	81.000000	34.000000
113.498473	113.682848	83.000000	36.000000
113.498473	113.590513	71.000000	31.000000
113.590513	113.682848	81.000000	34.000000
113.682848	113.869302	84.000000	37.000000
113.682848	113.776028	75.000000	36.000000
113.776028	113.869302	81.000000	34.000000
113.869302	114.056560	83.000000	36.000000
113.869302	113.962777	71.000000	29.000000
113.962777	114.056560	81.000000	34.000000
114.056560	114.244731	84.000000	38.000000
114.056560	114.150545	75.000000	36.000000
114.150545	114.244731	81.000000	34.000000
114.244731	114.433773	83.000000	37.000000
114.244731	114.339118	71.000000	30.000000
114.339118	114.433773	81.000000	34.000000
114.433773	114.621675	85.000000	37.000000
114.433773	114.496523	75.000000	37.000000
114.496523	114.558750	76.000000	32.000000
114.527476	114.621675	81.000000	34.000000
114.558750	114.621675	75.000000	36.000000
114.621675	114.809765	83.000000	36.000000
114.621675	114.683809	76.000000	31.000000
114.683809	114.747189	75.000000	36.000000
114.715566	114.809765	81.000000	35.000000
114.747189	114.809765	76.000000	33.000000
114.809765	114.997748	85.000000	38.000000
114.809765	114.872368	75.000000	37.000000
114.872368	114.935682	76.000000	33.000000
114.904085	114.997748	81.000000	36.000000
114.935682	114.997748	75.000000	37.000000
114.997748	115.185100	83.000000	38.000000
114.997748	115.060257	76.000000	33.000000
115.060257	115.123034	75.000000	38.000000
115.091826	115.185100	81.000000	36.000000
115.123034	115.185100	76.000000	34.000000
115.185100	115.372533	85.000000	40.000000
115.185100	115.248025	75.000000	38.000000
115.248025	115.309904	76.000000	35.000000
115.279112	115.372533	81.000000	37.000000
115.309904	115.372533	75.000000	39.000000
115.372533	115.558813	83.000000	40.000000
115.372533	115.435109	76.000000	35.000000
115.435109	115.496572	75.000000	39.000000
115.465901	115.558813	81.000000	38.000000
115.496572	115.558813	76.000000	36.000000
115.558813	115.746044	85.000000	43.000000
115.558813	115.621684	75.000000	40.000000
115.621684	115.683562	76.000000	36.000000
115.652771	115.746044	81.000000	39.000000
115.683562	115.746044	75.000000	40.000000
115.746044	115.931841	83.000000	43.000000
115.746044	115.808406	76.000000	36.000000
115.808406	115.870043	75.000000	41.000000
115.839251	115.931841	81.000000	40.000000
115.870043	115.931841	76.000000	37.000000
115.931841	116.117209	90.000000	44.000000
115.931841	115.993747	75.000000	41.000000
115.993747	116.056256	76.000000	36.000000
116.025196	116.117209	83.000000	41.000000
116.025196	116.117209	81.000000	41.000000
116.056256	116.117209	75.000000	42.000000
116.117209	116.303515	90.000000	43.000000
116.117209	116.179329	76.000000	37.000000
116.179329	116.241838	75.000000	42.000000
116.210778	116.303515	83.000000	41.000000
116.210778	116.303515	81.000000	41.000000
116.241838	116.303515	76.000000	37.000000
116.303515	116.489875	90.000000	46.000000
116.303515	116.366091	75.000000	43.000000
116.366091	116.428332	76.000000	38.000000
116.397419	116.489875	83.000000	42.000000
116.397419	116.489875	81.000000	42.000000
116.428332	116.489875	75.000000	43.000000
116.489875	116.675565	90.000000	46.000000
116.489875	116.552357	76.000000	39.000000
116.552357	116.613646	75.000000	44.000000
116.583203	116.675565	83.000000	44.000000
116.583203	116.675565	81.000000	44.000000
116.613646	116.675565	76.000000	39.000000
116.675565	116.862273	90.000000	49.000000
116.675565	116.738087	75.000000	44.000000
116.738087	116.799697	76.000000	38.000000
116.768852	116.862273	83.000000	45.000000
116.768852	116.862273	81.000000	45.000000
116.799697	116.862273	75.000000	45.000000
116.862273	117.048378	90.000000	49.000000
116.862273	116.923978	76.000000	38.000000
116.923978	116.986339	75.000000	45.000000
116.954917	117.048378	83.000000	47.000000
116.954917	117.048378	81.000000	47.000000
116.986339	117.048378	76.000000	40.000000
117.048378	117.235369	90.000000	54.000000
117.048378	117.141277	75.000000	50.000000
117.141277	117.235369	83.000000	48.000000
117.141277	117.235369	81.000000	48.000000
117.141277	117.235369	76.000000	44.000000
117.235369	117.432592	90.000000	53.000000
117.235369	117.331969	73.000000	52.000000
117.331969	117.432592	83.000000	49.000000
117.331969	117.432592	81.000000	49.000000
117.331969	117.432592	75.000000	47.000000
117.432592	118.574878	80.000000	72.000000
117.432592	118.574878	83.000000	72.000000
117.432592	118.574878	88.000000	72.000000
117.432592	120.450924	64.000000	48.000000
117.432592	118.200978	76.000000	57.000000
118.200978	118.948778	68.000000	38.000000
118.200978	118.948778	74.000000	45.000000
118.200978	118.948778	71.000000	38.000000
118.574878	118.668353	88.000000	58.000000
118.668353	118.761828	86.000000	57.000000
118.761828	118.855303	84.000000	56.000000
118.855303	118.948778	83.000000	55.000000
118.948778	119.042253	84.000000	58.000000
118.948778	119.701997	72.000000	47.000000
118.948778	119.701997	69.000000	39.000000
119.042253	119.135729	83.000000	57.000000
119.135729	119.229204	81.000000	56.000000
119.229204	119.322679	80.000000	55.000000
119.322679	119.416154	81.000000	51.000000
119.416154	119.509629	83.000000	52.000000
119.509629	119.603104	84.000000	53.000000
119.603104	119.701997	86.000000	54.000000
119.701997	119.795472	88.000000	56.000000
119.701997	120.450924	74.000000	46.000000
119.701997	120.450924	71.000000	39.000000
119.701997	120.450924	68.000000	39.000000
119.795472	119.888947	89.000000	57.000000
119.888947	119.982422	88.000000	57.000000
119.982422	120.075897	87.000000	56.000000
120.075897	120.169372	88.000000	56.000000
120.169372	120.263048	86.000000	56.000000
120.263048	120.356832	84.000000	56.000000
120.356832	120.450924	83.000000	56.000000
120.450924	120.545110	84.000000	57.000000
120.450924	120.828794	69.000000	40.000000
120.450924	120.828794	72.000000	48.000000
120.545110	120.639497	86.000000	57.000000
120.639497	120.734098	84.000000	57.000000
120.734098	120.828794	83.000000	53.000000
120.828794	120.923798	81.000000	56.000000
120.923798	121.018909	80.000000	52.000000
121.018909	121.114234	81.000000	56.000000
121.114234	121.209560	83.000000	52.000000
121.209560	121.993517	72.000000	45.000000
121.209560	121.598508	84.000000	59.000000
121.209560	121.993517	57.000000	39.000000
121.209560	121.993517	60.000000	39.000000
121.209560	121.993517	66.000000	39.000000
121.209560	121.993517	69.000000	47.000000
121.598508	121.792981	81.000000	52.000000
121.792981	121.993517	78.000000	52.000000
121.993517	122.778184	71.000000	45.000000
121.993517	122.382478	83.000000	57.000000
121.993517	122.778184	59.000000	39.000000
121.993517	122.778184	64.000000	39.000000
121.993517	122.778184	67.000000	46.000000
122.382478	122.576951	79.000000	52.000000
122.576951	122.778184	76.000000	52.000000
122.778184	123.558707	69.000000	45.000000
122.778184	123.168446	81.000000	57.000000
122.778184	123.558707	63.000000	37.000000
122.778184	123.558707	66.000000	44.000000
122.778184	123.558707	59.000000	37.000000
123.168446	123.363577	78.000000	52.000000
123.363577	123.558707	75.000000	52.000000
123.558707	124.699009	76.000000	72.000000
123.558707	124.326316	64.000000	56.000000
123.558707	126.568591	52.000000	45.000000
124.326316	125.071729	62.000000	45.000000
124.326316	125.071729	59.000000	38.000000
124.326316	125.071729	56.000000	38.000000
124.699009	124.792189	76.000000	58.000000
124.792189	124.885369	74.000000	57.000000
124.885369	124.978549	72.000000	56.000000
124.978549	125.071729	71.000000	55.000000
125.071729	125.164909	72.000000	58.000000
125.071729	125.822882	57.000000	39.000000
125.071729	125.822882	60.000000	47.000000
125.164909	125.258089	71.000000	57.000000
125.258089	125.351269	69.000000	56.000000
125.351269	125.444449	68.000000	55.000000
125.444449	125.537629	69.000000	51.000000
125.537629	125.630809	71.000000	52.000000
125.630809	125.723989	72.000000	53.000000
125.723989	125.822882	74.000000	54.000000
125.822882	125.916357	76.000000	56.000000
125.822882	126.568591	62.000000	46.000000
125.822882	126.568591	59.000000	39.000000
125.822882	126.568591	56.000000	39.000000
125.916357	126.009832	77.000000	57.000000
126.009832	126.103307	76.000000	57.000000
126.103307	126.196782	75.000000	56.000000
126.196782	126.289359	76.000000	56.000000
126.289359	126.382137	74.000000	56.000000
126.382137	126.475209	72.000000	56.000000
126.475209	126.568591	71.000000	56.000000
126.568591	126.662267	72.000000	57.000000
126.568591	126.945146	57.000000	48.000000
126.568591	126.945146	60.000000	48.000000
126.662267	126.756251	74.000000	57.000000
126.756251	126.850545	72.000000	57.000000
126.850545	126.945146	71.000000	53.000000
126.945146	127.040056	69.000000	56.000000
127.040056	127.135275	68.000000	52.000000
127.135275	127.230802	69.000000	56.000000
127.230802	127.326650	71.000000	52.000000
127.326650	128.109373	60.000000	45.000000
127.326650	127.714310	72.000000	59.000000
127.326650	128.109373	45.000000	39.000000
127.326650	128.109373	48.000000	39.000000
127.326650	128.109373	54.000000	39.000000
127.326650	128.109373	57.000000	47.000000
127.714310	127.908140	69.000000	52.000000
127.908140	128.109373	66.000000	52.000000
128.109373	128.894027	59.000000	45.000000
128.109373	128.498320	71.000000	57.000000
128.109373	128.894027	47.000000	39.000000
128.109373	128.894027	52.000000	39.000000
128.109373	128.894027	55.000000	46.000000
128.498320	128.692794	67.000000	52.000000
128.692794	128.894027	64.000000	52.000000
128.894027	129.677219	57.000000	45.000000
128.894027	129.282988	69.000000	57.000000
128.894027	129.677219	54.000000	44.000000
128.894027	129.677219	51.000000	37.000000
128.894027	129.677219	47.000000	37.000000
129.282988	129.480103	66.000000	52.000000
129.480103	129.677219	63.000000	52.000000
129.677219	129.875019	64.000000	55.000000
129.677219	130.079806	55.000000	44.000000
129.677219	130.079806	52.000000	37.000000
130.079806	130.276921	76.000000	67.000000
130.079806	130.474037	43.000000	42.000000
130.079806	130.671153	52.000000	51.000000
130.276921	130.474037	74.000000	62.000000
130.474037	130.868268	72.000000	66.000000
130.474037	131.269447	45.000000	42.000000
130.671153	130.868268	53.000000	49.000000
130.868268	131.065384	69.000000	61.000000
130.868268	131.065384	55.000000	51.000000
131.065384	131.269447	65.000000	54.000000
131.065384	131.269447	57.000000	55.000000
131.269447	131.665046	71.000000	51.000000
131.269447	132.060645	59.000000	41.000000
131.269447	132.851830	47.000000	35.000000
131.269447	132.060645	55.000000	35.000000
131.665046	131.862845	67.000000	46.000000
131.862845	132.060645	64.000000	46.000000
132.060645	132.456231	69.000000	51.000000
132.060645	132.851830	54.000000	33.000000
132.060645	132.851830	57.000000	39.000000
132.456231	132.654031	66.000000	46.000000
132.654031	132.851830	63.000000	46.000000
132.851830	133.049630	64.000000	55.000000
132.851830	133.256616	48.000000	37.000000
132.851830	133.256616	52.000000	37.000000
132.851830	133.256616	55.000000	44.000000
133.256616	133.454416	72.000000	66.000000
133.256616	133.652215	40.000000	42.000000
133.256616	133.850015	48.000000	51.000000
133.454416	133.652215	71.000000	62.000000
133.652215	134.047815	69.000000	66.000000
133.652215	134.451863	41.000000	42.000000
133.850015	134.047815	50.000000	49.000000
134.047815	134.245614	65.000000	61.000000
134.047815	134.245614	52.000000	51.000000
134.245614	134.451863	62.000000	54.000000
134.245614	134.451863	53.000000	55.000000
134.451863	134.848817	67.000000	51.000000
134.451863	135.252087	52.000000	35.000000
134.451863	136.055101	43.000000	35.000000
134.451863	135.252087	55.000000	41.000000
134.848817	135.047300	64.000000	46.000000
135.047300	135.252087	60.000000	46.000000
135.252087	135.650409	65.000000	51.000000
135.252087	136.055101	53.000000	39.000000
135.252087	136.055101	50.000000	33.000000
135.650409	135.849576	62.000000	46.000000
135.849576	136.055101	59.000000	46.000000
136.055101	136.195313	48.000000	28.000000
136.055101	136.195313	52.000000	33.000000
136.055101	136.242051	60.000000	40.000000
136.055101	136.195313	36.000000	25.000000
136.242051	136.382263	48.000000	28.000000
136.242051	136.382263	52.000000	33.000000
136.242051	136.382263	43.000000	26.000000
136.242051	136.382263	36.000000	22.000000
136.429001	136.568315	48.000000	28.000000
136.429001	136.568315	52.000000	33.000000
136.429001	136.568315	43.000000	26.000000
136.429001	136.568315	36.000000	22.000000
136.614757	136.754071	48.000000	28.000000
136.614757	136.754071	52.000000	34.000000
136.614757	136.754071	43.000000	27.000000
136.614757	136.754071	36.000000	22.000000
136.800514	136.941035	48.000000	28.000000
136.800514	136.941035	52.000000	34.000000
136.800514	136.941035	43.000000	27.000000
136.800514	136.941035	36.000000	22.000000
136.987920	137.128588	48.000000	28.000000
136.987920	137.128588	52.000000	34.000000
136.987920	137.128588	43.000000	28.000000
136.987920	137.128588	36.000000	23.000000
137.175473	137.315230	48.000000	29.000000
137.175473	137.315230	52.000000	35.000000
137.175473	137.315230	43.000000	28.000000
137.175473	137.315230	36.000000	23.000000
137.361820	137.501577	48.000000	29.000000
137.361820	137.501577	52.000000	35.000000
137.361820	137.501577	43.000000	29.000000
137.361820	137.501577	36.000000	24.000000
137.548167	137.688285	48.000000	30.000000
137.548167	137.688285	52.000000	36.000000
137.548167	137.688285	36.000000	25.000000
137.548167	137.688285	43.000000	30.000000
137.735023	137.875235	48.000000	30.000000
137.735023	137.875235	52.000000	36.000000
137.735023	137.875235	36.000000	22.000000
137.735023	137.875235	43.000000	27.000000
137.921973	138.061730	48.000000	31.000000
137.921973	138.061730	52.000000	37.000000
137.921973	138.061730	36.000000	23.000000
137.921973	138.061730	43.000000	28.000000
138.108320	138.248076	48.000000	32.000000
138.108320	138.248076	52.000000	38.000000
138.108320	138.248076	36.000000	24.000000
138.108320	138.248076	43.000000	29.000000
138.294666	138.434879	48.000000	33.000000
138.294666	138.434879	52.000000	39.000000
138.294666	138.434879	36.000000	25.000000
138.294666	138.434879	43.000000	30.000000
138.481616	138.621829	48.000000	34.000000
138.481616	138.621829	52.000000	40.000000
138.481616	138.621829	36.000000	25.000000
138.481616	138.621829	43.000000	30.000000
138.668566	138.808779	50.000000	34.000000
138.668566	138.808779	54.000000	40.000000
138.668566	138.808779	36.000000	25.000000
138.668566	138.808779	45.000000	30.000000
138.855516	138.995729	50.000000	34.000000
138.855516	138.995729	54.000000	40.000000
138.855516	138.995729	36.000000	25.000000
138.855516	138.995729	45.000000	30.000000
139.042466	139.606737	50.000000	39.000000
139.042466	139.606737	55.000000	46.000000
139.042466	139.183537	35.000000	25.000000
139.042466	139.183537	43.000000	30.000000
139.230557	139.371627	35.000000	25.000000
139.230557	139.371627	43.000000	30.000000
139.418647	139.559717	35.000000	25.000000
139.418647	139.559717	43.000000	30.000000
139.606737	139.700775	59.000000	40.000000
139.606737	139.747794	35.000000	25.000000
139.606737	139.747794	43.000000	30.000000
139.700775	139.794813	57.000000	40.000000
139.794813	139.888852	55.000000	45.000000
139.794813	139.935871	35.000000	25.000000
139.794813	139.935871	43.000000	30.000000
139.982890	140.123961	35.000000	25.000000
139.982890	140.123961	43.000000	30.000000
140.170980	140.312051	35.000000	25.000000
140.170980	140.312051	43.000000	30.000000
140.359070	140.504701	35.000000	25.000000
140.359070	140.504701	43.000000	30.000000
140.504701	140.553249	85.000000	46.000000
140.553249	141.027906	86.000000	57.000000
140.553249	140.695647	35.000000	25.000000
140.553249	140.695647	43.000000	30.000000
140.743109	140.885507	35.000000	25.000000
140.743109	140.885507	43.000000	30.000000
140.932969	141.075368	35.000000	25.000000
140.932969	141.075368	43.000000	30.000000
141.027906	141.122829	84.000000	48.000000
141.122829	141.217766	83.000000	47.000000
141.122829	141.265228	35.000000	25.000000
141.122829	141.265228	43.000000	30.000000
141.217766	141.312690	81.000000	45.000000
141.312690	141.499640	79.000000	44.000000
141.312690	141.452902	35.000000	25.000000
141.312690	141.452902	43.000000	30.000000
141.499640	141.639852	35.000000	25.000000
141.499640	141.639852	43.000000	30.000000
141.686590	141.826802	35.000000	25.000000
141.686590	141.826802	43.000000	30.000000
141.873540	142.016529	35.000000	25.000000
141.873540	142.016529	43.000000	30.000000
142.064191	142.204404	46.000000	29.000000
142.064191	142.204404	50.000000	35.000000
142.064191	142.204404	41.000000	30.000000
142.064191	142.204404	34.000000	26.000000
142.251142	142.391354	46.000000	29.000000
142.251142	142.391354	50.000000	35.000000
142.251142	142.391354	41.000000	30.000000
142.251142	142.391354	34.000000	25.000000
142.438092	142.576963	46.000000	29.000000
142.438092	142.576963	50.000000	35.000000
142.438092	142.576963	41.000000	30.000000
142.438092	142.576963	34.000000	25.000000
142.623258	142.762130	46.000000	30.000000
142.623258	142.762130	50.000000	36.000000
142.623258	142.762130	41.000000	31.000000
142.623258	142.762130	34.000000	26.000000
142.808425	142.949093	46.000000	31.000000
142.808425	142.949093	50.000000	37.000000
142.808425	142.949093	41.000000	31.000000
142.808425	142.949093	34.000000	26.000000
142.995978	143.136647	46.000000	31.000000
142.995978	143.136647	50.000000	37.000000
142.995978	143.136647	41.000000	31.000000
142.995978	143.136647	34.000000	26.000000
143.183532	143.324200	46.000000	32.000000
143.183532	143.324200	50.000000	38.000000
143.183532	143.324200	41.000000	31.000000
143.183532	143.324200	34.000000	26.000000
143.371085	143.511754	46.000000	33.000000
143.371085	143.511754	50.000000	39.000000
143.371085	143.511754	41.000000	31.000000
143.371085	143.511754	34.000000	26.000000
143.558639	143.698851	46.000000	33.000000
143.558639	143.698851	50.000000	39.000000
143.558639	143.698851	34.000000	26.000000
143.558639	143.698851	41.000000	31.000000
143.745589	143.885802	46.000000	34.000000
143.745589	143.885802	50.000000	40.000000
143.745589	143.885802	34.000000	26.000000
143.745589	143.885802	41.000000	31.000000
143.932539	144.073208	46.000000	34.000000
143.932539	144.073208	50.000000	40.000000
143.932539	144.073208	34.000000	26.000000
143.932539	144.073208	41.000000	31.000000
144.120093	144.260761	46.000000	34.000000
144.120093	144.260761	50.000000	40.000000
144.120093	144.260761	34.000000	26.000000
144.120093	144.260761	41.000000	31.000000
144.307646	144.446518	46.000000	34.000000
144.307646	144.446518	50.000000	40.000000
144.307646	144.446518	34.000000	26.000000
144.307646	144.446518	41.000000	31.000000
144.492813	144.631684	46.000000	34.000000
144.492813	144.631684	50.000000	40.000000
144.492813	144.631684	34.000000	25.000000
144.492813	144.631684	41.000000	30.000000
144.677979	144.817293	48.000000	34.000000
144.677979	144.817293	52.000000	40.000000
144.677979	144.817293	34.000000	25.000000
144.677979	144.817293	43.000000	30.000000
144.863736	145.003050	48.000000	34.000000
144.863736	145.003050	52.000000	40.000000
144.863736	145.003050	34.000000	25.000000
144.863736	145.003050	43.000000	30.000000
145.049492	145.608492	48.000000	39.000000
145.049492	145.608492	53.000000	46.000000
145.049492	145.189208	33.000000	25.000000
145.049492	145.189208	41.000000	30.000000
145.235798	145.375555	33.000000	25.000000
145.235798	145.375555	41.000000	30.000000
145.422145	145.561902	33.000000	25.000000
145.422145	145.561902	41.000000	30.000000
145.608492	145.701672	57.000000	40.000000
145.608492	145.748262	33.000000	25.000000
145.608492	145.748262	41.000000	30.000000
145.701672	145.794852	55.000000	40.000000
145.794852	145.888032	53.000000	45.000000
145.794852	145.934622	33.000000	25.000000
145.794852	145.934622	41.000000	30.000000
145.981212	146.120968	33.000000	25.000000
145.981212	146.120968	41.000000	30.000000
146.167558	146.312250	33.000000	25.000000
146.167558	146.312250	41.000000	30.000000
146.360476	146.506576	33.000000	25.000000
146.360476	146.506576	41.000000	30.000000
146.506576	146.555272	83.000000	46.000000
146.555272	147.028454	84.000000	57.000000
146.555272	146.697228	32.000000	25.000000
146.555272	146.697228	41.000000	30.000000
146.744542	146.886498	32.000000	25.000000
146.744542	146.886498	41.000000	30.000000
146.933812	147.075768	32.000000	25.000000
146.933812	147.075768	41.000000	30.000000
147.028454	147.123082	82.000000	50.000000
147.123082	147.217724	80.000000	49.000000
147.123082	147.265038	32.000000	25.000000
147.123082	147.265038	41.000000	30.000000
147.217724	147.312353	79.000000	47.000000
147.312353	147.501623	77.000000	46.000000
147.312353	147.454309	32.000000	25.000000
147.312353	147.454309	41.000000	30.000000
147.501623	147.643579	32.000000	25.000000
147.501623	147.643579	41.000000	30.000000
147.691336	147.836966	32.000000	25.000000
147.691336	147.836966	41.000000	30.000000
147.885514	148.031145	32.000000	25.000000
147.885514	148.031145	41.000000	30.000000
148.031145	148.079693	88.000000	67.000000
148.079693	149.200213	89.000000	73.000000
148.079693	148.219905	31.000000	30.000000
148.079693	148.219905	41.000000	36.000000
148.266643	148.406856	31.000000	32.000000
148.266643	148.406856	41.000000	38.000000
148.453593	148.592907	31.000000	33.000000
148.453593	148.592907	41.000000	39.000000
148.639350	148.778664	31.000000	34.000000
148.639350	148.778664	41.000000	41.000000
148.825106	148.965775	31.000000	36.000000
148.825106	148.965775	41.000000	43.000000
149.012660	149.153328	31.000000	38.000000
149.012660	149.153328	41.000000	45.000000
149.200213	149.293997	89.000000	74.000000
149.200213	149.340882	32.000000	39.000000
149.200213	149.340882	41.000000	46.000000
149.293997	149.387767	87.000000	73.000000
149.387767	149.481550	86.000000	71.000000
149.387767	149.528435	32.000000	40.000000
149.387767	149.528435	41.000000	48.000000
149.481550	149.575320	84.000000	70.000000
149.575320	149.668795	83.000000	72.000000
149.575320	149.715533	31.000000	44.000000
149.575320	149.715533	41.000000	52.000000
149.668795	149.762270	84.000000	71.000000
149.762270	149.855746	86.000000	72.000000
149.762270	149.902483	31.000000	44.000000
149.762270	149.902483	41.000000	52.000000
149.855746	149.949221	87.000000	73.000000
149.949221	150.043608	89.000000	74.000000
149.949221	150.090801	32.000000	45.000000
149.949221	150.090801	41.000000	55.000000
150.043608	150.137995	87.000000	72.000000
150.137995	150.232382	86.000000	71.000000
150.137995	150.279575	32.000000	46.000000
150.137995	150.279575	41.000000	55.000000
150.232382	150.326769	84.000000	69.000000
150.326769	150.420244	83.000000	72.000000
150.326769	150.466981	31.000000	48.000000
150.326769	150.466981	41.000000	58.000000
150.420244	150.513719	84.000000	75.000000
150.513719	150.607194	86.000000	77.000000
150.513719	150.653931	31.000000	51.000000
150.513719	150.653931	41.000000	60.000000
150.607194	150.700669	87.000000	80.000000
150.700669	150.794144	89.000000	80.000000
150.700669	150.840881	32.000000	54.000000
150.700669	150.840881	41.000000	64.000000
150.794144	150.887619	87.000000	80.000000
150.887619	150.981094	86.000000	79.000000
150.887619	151.027831	32.000000	56.000000
150.887619	151.027831	41.000000	66.000000
150.981094	151.074569	84.000000	81.000000
151.074569	151.168755	83.000000	85.000000
151.074569	151.467352	31.000000	70.000000
151.074569	151.467352	41.000000	85.000000
151.168755	151.264282	84.000000	89.000000
151.264282	151.362316	86.000000	94.000000
151.362316	151.467352	87.000000	98.000000
151.467352	151.560827	89.000000	100.000000
151.467352	152.405160	43.000000	81.000000
151.467352	152.405160	55.000000	96.000000
151.560827	151.654302	87.000000	98.000000
151.654302	151.747777	86.000000	96.000000
151.747777	151.841252	84.000000	94.000000
151.841252	151.934727	83.000000	93.000000
151.934727	152.028202	80.000000	91.000000
152.028202	152.121677	79.000000	89.000000
152.121677	152.215152	77.000000	87.000000
152.215152	152.310156	75.000000	85.000000
152.310156	152.405160	74.000000	83.000000
152.405160	152.500164	72.000000	81.000000
152.405160	152.500164	57.000000	67.000000
152.500164	152.595168	71.000000	79.000000
152.500164	152.595168	59.000000	70.000000
152.595168	152.745170	72.000000	93.000000
152.595168	152.745170	60.000000	72.000000
152.995166	153.158204	67.000000	83.000000
152.995166	153.158204	43.000000	56.000000
152.995166	153.158204	55.000000	66.000000
153.431441	153.615119	63.000000	72.000000
153.431441	153.615119	39.000000	52.000000
153.431441	153.615119	51.000000	62.000000
153.921239	154.142911	60.000000	64.000000
153.921239	154.142911	36.000000	48.000000
153.921239	154.142911	48.000000	57.000000
154.512372	156.316883	55.000000	60.000000
154.512372	156.316883	31.000000	46.000000
154.512372	156.316883	43.000000	54.000000
156.316883	156.457095	64.000000	37.000000
156.316883	157.807763	36.000000	30.000000
156.316883	156.503833	48.000000	30.000000
156.410358	156.503833	60.000000	33.000000
156.503833	156.644045	64.000000	37.000000
156.503833	156.690783	48.000000	31.000000
156.597308	156.690783	60.000000	33.000000
156.597308	156.690783	55.000000	26.000000
156.690783	156.830110	64.000000	37.000000
156.690783	156.876553	48.000000	31.000000
156.783668	156.876553	60.000000	33.000000
156.783668	156.876553	55.000000	27.000000
156.876553	157.015880	64.000000	36.000000
156.876553	157.062323	48.000000	31.000000
156.969438	157.062323	60.000000	33.000000
156.969438	157.062323	55.000000	27.000000
157.062323	157.201650	64.000000	36.000000
157.062323	157.248093	48.000000	31.000000
157.155208	157.248093	60.000000	33.000000
157.155208	157.248093	55.000000	26.000000
157.248093	157.387420	64.000000	37.000000
157.248093	157.433863	48.000000	31.000000
157.340978	157.433863	60.000000	33.000000
157.340978	157.433863	55.000000	27.000000
157.433863	157.574075	64.000000	36.000000
157.433863	157.620813	48.000000	31.000000
157.527338	157.620813	60.000000	33.000000
157.527338	157.620813	55.000000	27.000000
157.620813	157.761025	64.000000	36.000000
157.620813	157.807763	48.000000	31.000000
157.714288	157.807763	60.000000	33.000000
157.714288	157.807763	55.000000	25.000000
157.807763	157.947975	64.000000	37.000000
157.807763	157.994713	48.000000	31.000000
157.901238	157.994713	60.000000	33.000000
157.901238	157.994713	55.000000	26.000000
157.994713	158.134925	64.000000	37.000000
157.994713	158.181663	48.000000	31.000000
158.088188	158.181663	60.000000	33.000000
158.088188	158.181663	55.000000	26.000000
158.181663	158.320534	64.000000	37.000000
158.181663	158.366829	48.000000	31.000000
158.274240	158.366829	60.000000	33.000000
158.274240	158.366829	55.000000	27.000000
158.366829	158.505701	64.000000	36.000000
158.366829	158.551996	48.000000	31.000000
158.459406	158.551996	60.000000	33.000000
158.459406	158.551996	55.000000	27.000000
158.551996	158.690867	64.000000	36.000000
158.551996	158.737162	48.000000	31.000000
158.644572	158.737162	60.000000	33.000000
158.644572	158.737162	55.000000	26.000000
158.737162	158.876034	64.000000	37.000000
158.737162	158.922329	48.000000	31.000000
158.829739	158.922329	60.000000	33.000000
158.829739	158.922329	55.000000	27.000000
158.922329	159.062394	66.000000	36.000000
158.922329	159.109131	48.000000	31.000000
159.015656	159.109131	62.000000	33.000000
159.015656	159.109131	57.000000	27.000000
159.109131	159.249344	66.000000	36.000000
159.109131	159.296081	48.000000	31.000000
159.202606	159.296081	62.000000	33.000000
159.202606	159.296081	57.000000	25.000000
159.296081	159.856932	67.000000	46.000000
159.296081	159.483031	47.000000	26.000000
159.296081	159.483031	50.000000	31.000000
159.389556	159.483031	55.000000	25.000000
159.483031	159.669982	47.000000	26.000000
159.483031	159.669982	50.000000	31.000000
159.576506	159.669982	55.000000	25.000000
159.669982	159.856932	47.000000	26.000000
159.669982	159.856932	50.000000	31.000000
159.763457	159.856932	55.000000	25.000000
159.856932	159.950407	71.000000	40.000000
159.856932	160.043882	47.000000	26.000000
159.856932	160.043882	50.000000	31.000000
159.950407	160.043882	69.000000	40.000000
159.950407	160.043882	55.000000	25.000000
160.043882	160.137357	67.000000	45.000000
160.043882	160.230832	47.000000	26.000000
160.043882	160.230832	50.000000	31.000000
160.137357	160.230832	55.000000	25.000000
160.230832	160.417782	47.000000	26.000000
160.230832	160.417782	50.000000	31.000000
160.324307	160.417782	55.000000	25.000000
160.417782	160.604732	47.000000	26.000000
160.417782	160.604732	50.000000	31.000000
160.511257	160.604732	55.000000	25.000000
160.604732	160.798911	47.000000	26.000000
160.604732	160.798911	50.000000	31.000000
160.701815	160.798911	55.000000	25.000000
160.750363	160.798911	85.000000	46.000000
160.798911	161.272120	86.000000	57.000000
160.798911	160.988194	47.000000	26.000000
160.798911	160.988194	50.000000	31.000000
160.893552	160.988194	55.000000	25.000000
160.988194	161.177478	47.000000	26.000000
160.988194	161.177478	50.000000	31.000000
161.082836	161.177478	55.000000	25.000000
161.177478	161.366761	47.000000	26.000000
161.177478	161.366761	50.000000	31.000000
161.272120	161.366761	84.000000	48.000000
161.272120	161.366761	55.000000	25.000000
161.366761	161.461403	83.000000	47.000000
161.366761	161.556045	47.000000	26.000000
161.366761	161.556045	50.000000	31.000000
161.461403	161.556045	81.000000	45.000000
161.461403	161.556045	55.000000	25.000000
161.556045	161.745329	79.000000	44.000000
161.556045	161.745329	47.000000	26.000000
161.556045	161.745329	50.000000	31.000000
161.650687	161.745329	55.000000	25.000000
161.745329	161.934612	47.000000	26.000000
161.745329	161.934612	50.000000	31.000000
161.839970	161.934612	55.000000	25.000000
161.934612	162.123896	47.000000	26.000000
161.934612	162.123896	50.000000	31.000000
162.029254	162.123896	55.000000	25.000000
162.123896	162.316425	47.000000	26.000000
162.123896	162.316425	50.000000	31.000000
162.220160	162.316425	55.000000	25.000000
162.316425	162.456638	65.000000	40.000000
162.316425	163.807359	38.000000	33.000000
162.316425	162.503375	50.000000	33.000000
162.409900	162.503375	62.000000	36.000000
162.503375	162.643588	65.000000	40.000000
162.503375	162.690325	50.000000	34.000000
162.596850	162.690325	62.000000	36.000000
162.596850	162.690325	57.000000	28.000000
162.690325	162.829197	65.000000	40.000000
162.690325	162.875492	50.000000	34.000000
162.782902	162.875492	62.000000	36.000000
162.782902	162.875492	57.000000	29.000000
162.875492	163.014363	65.000000	39.000000
162.875492	163.060658	50.000000	34.000000
162.968068	163.060658	62.000000	36.000000
162.968068	163.060658	57.000000	29.000000
163.060658	163.199529	65.000000	39.000000
163.060658	163.245824	50.000000	34.000000
163.153235	163.245824	62.000000	36.000000
163.153235	163.245824	57.000000	28.000000
163.245824	163.384696	65.000000	41.000000
163.245824	163.430991	50.000000	34.000000
163.338401	163.430991	62.000000	36.000000
163.338401	163.430991	57.000000	29.000000
163.430991	163.572129	65.000000	40.000000
163.430991	163.619175	50.000000	34.000000
163.525083	163.619175	62.000000	37.000000
163.525083	163.619175	57.000000	30.000000
163.619175	163.760313	65.000000	40.000000
163.619175	163.807359	50.000000	35.000000
163.713267	163.807359	62.000000	37.000000
163.713267	163.807359	57.000000	28.000000
163.807359	163.947571	65.000000	41.000000
163.807359	163.994309	50.000000	35.000000
163.900834	163.994309	62.000000	37.000000
163.900834	163.994309	57.000000	29.000000
163.994309	164.134521	65.000000	41.000000
163.994309	164.181259	50.000000	35.000000
164.087784	164.181259	62.000000	37.000000
164.087784	164.181259	57.000000	29.000000
164.181259	164.320586	65.000000	42.000000
164.181259	164.367029	50.000000	35.000000
164.274144	164.367029	62.000000	37.000000
164.274144	164.367029	57.000000	30.000000
164.367029	164.506356	65.000000	41.000000
164.367029	164.552799	50.000000	35.000000
164.459914	164.552799	62.000000	38.000000
164.459914	164.552799	57.000000	30.000000
164.552799	164.693735	65.000000	41.000000
164.552799	164.740781	50.000000	36.000000
164.646689	164.740781	62.000000	38.000000
164.646689	164.740781	57.000000	29.000000
164.740781	164.881919	65.000000	42.000000
164.740781	164.928965	50.000000	36.000000
164.834873	164.928965	62.000000	38.000000
164.834873	164.928965	57.000000	31.000000
164.928965	165.070103	68.000000	41.000000
164.928965	165.117149	50.000000	36.000000
165.023057	165.117149	64.000000	38.000000
165.023057	165.117149	59.000000	31.000000
165.117149	165.258287	68.000000	42.000000
165.117149	165.305333	50.000000	36.000000
165.211241	165.305333	64.000000	38.000000
165.211241	165.305333	59.000000	29.000000
165.305333	165.866183	69.000000	55.000000
165.305333	165.492283	48.000000	30.000000
165.305333	165.492283	52.000000	37.000000
165.398808	165.492283	57.000000	29.000000
165.492283	165.679233	48.000000	30.000000
165.492283	165.679233	52.000000	37.000000
165.585758	165.679233	57.000000	29.000000
165.679233	165.866183	48.000000	30.000000
165.679233	165.866183	52.000000	37.000000
165.772708	165.866183	57.000000	29.000000
165.866183	165.959658	72.000000	48.000000
165.866183	166.053134	48.000000	30.000000
165.866183	166.053134	52.000000	37.000000
165.959658	166.053134	71.000000	48.000000
165.959658	166.053134	57.000000	29.000000
166.053134	166.146609	69.000000	53.000000
166.053134	166.240084	48.000000	30.000000
166.053134	166.240084	52.000000	37.000000
166.146609	166.240084	57.000000	29.000000
166.240084	166.427034	48.000000	30.000000
166.240084	166.427034	52.000000	37.000000
166.333559	166.427034	57.000000	29.000000
166.427034	166.613984	48.000000	30.000000
166.427034	166.613984	52.000000	37.000000
166.520509	166.613984	57.000000	29.000000
166.613984	166.809423	48.000000	30.000000
166.613984	166.809423	52.000000	37.000000
166.711710	166.809423	57.000000	29.000000
166.760567	166.809423	87.000000	55.000000
166.809423	167.284107	88.000000	68.000000
166.809423	166.999297	48.000000	30.000000
166.809423	166.999297	52.000000	37.000000
166.904360	166.999297	57.000000	29.000000
166.999297	167.189170	48.000000	30.000000
166.999297	167.189170	52.000000	37.000000
167.094234	167.189170	57.000000	29.000000
167.189170	167.379044	48.000000	30.000000
167.189170	167.379044	52.000000	37.000000
167.284107	167.379044	86.000000	59.000000
167.284107	167.379044	57.000000	29.000000
167.379044	167.473981	84.000000	58.000000
167.379044	167.568918	48.000000	30.000000
167.379044	167.568918	52.000000	39.000000
167.473981	167.568918	83.000000	57.000000
167.473981	167.568918	57.000000	31.000000
167.568918	167.758792	81.000000	57.000000
167.568918	167.758792	48.000000	32.000000
167.568918	167.758792	52.000000	39.000000
167.663855	167.758792	57.000000	31.000000
167.758792	167.948665	48.000000	32.000000
167.758792	167.948665	52.000000	41.000000
167.853728	167.948665	57.000000	31.000000
167.948665	168.138539	48.000000	33.000000
167.948665	168.138539	52.000000	41.000000
168.043602	168.138539	57.000000	33.000000
168.138539	168.334609	48.000000	35.000000
168.138539	168.334609	52.000000	42.000000
168.236574	168.334609	57.000000	33.000000
168.285591	168.334609	87.000000	66.000000
168.334609	168.815395	88.000000	85.000000
168.334609	168.526923	48.000000	37.000000
168.334609	168.526923	52.000000	45.000000
168.430766	168.526923	58.000000	36.000000
168.526923	168.719238	48.000000	38.000000
168.526923	168.719238	52.000000	45.000000
168.623080	168.719238	58.000000	37.000000
168.719238	168.911552	48.000000	39.000000
168.719238	168.911552	52.000000	47.000000
168.815395	168.911552	86.000000	76.000000
168.815395	168.911552	58.000000	38.000000
168.911552	169.007709	84.000000	75.000000
168.911552	169.103867	48.000000	39.000000
168.911552	169.103867	52.000000	47.000000
169.007709	169.103867	83.000000	71.000000
169.007709	169.103867	58.000000	38.000000
169.103867	169.296181	82.000000	71.000000
169.103867	169.296181	48.000000	41.000000
169.103867	169.296181	52.000000	50.000000
169.200024	169.296181	58.000000	40.000000
169.296181	169.488496	48.000000	41.000000
169.296181	169.488496	52.000000	51.000000
169.392338	169.488496	58.000000	40.000000
169.488496	169.680810	48.000000	42.000000
169.488496	169.680810	52.000000	51.000000
169.584653	169.680810	58.000000	42.000000
169.680810	169.884202	48.000000	43.000000
169.680810	169.884202	52.000000	53.000000
169.782506	169.884202	58.000000	42.000000
169.884202	170.376790	83.000000	56.000000
169.884202	169.996024	47.000000	40.000000
169.980051	170.091618	51.000000	35.000000
170.075699	170.186917	54.000000	35.000000
170.171038	170.266176	59.000000	35.000000
170.266176	170.376790	47.000000	41.000000
170.361019	170.471378	81.000000	54.000000
170.361019	170.471378	51.000000	35.000000
170.455661	170.565671	79.000000	53.000000
170.455661	170.565671	54.000000	35.000000
170.549994	170.659670	78.000000	51.000000
170.549994	170.644046	59.000000	35.000000
170.644046	170.753413	79.000000	53.000000
170.644046	170.753413	47.000000	39.000000
170.737789	170.847156	78.000000	52.000000
170.737789	170.847156	52.000000	35.000000
170.831532	170.940899	76.000000	51.000000
170.831532	170.940899	55.000000	35.000000
170.925275	171.034643	75.000000	50.000000
170.925275	171.019019	59.000000	35.000000
171.019019	171.128386	76.000000	50.000000
171.019019	171.128386	47.000000	40.000000
171.112762	171.222129	79.000000	52.000000
171.112762	171.222129	52.000000	35.000000
171.206505	171.315872	78.000000	50.000000
171.206505	171.315872	55.000000	35.000000
171.300249	171.409495	76.000000	50.000000
171.300249	171.393911	59.000000	35.000000
171.393911	171.502970	75.000000	50.000000
171.393911	171.502970	47.000000	40.000000
171.487386	171.596445	73.000000	49.000000
171.487386	171.596445	54.000000	35.000000
171.580861	171.690162	71.000000	48.000000
171.580861	171.690162	57.000000	35.000000
171.674538	171.783932	70.000000	47.000000
171.674538	171.768308	59.000000	35.000000
171.768308	171.877755	71.000000	49.000000
171.768308	171.877755	47.000000	40.000000
171.862078	171.971834	73.000000	49.000000
171.862078	171.971834	54.000000	35.000000
171.956156	172.065912	74.000000	49.000000
171.956156	172.065912	57.000000	35.000000
172.050235	172.160273	75.000000	50.000000
172.050235	172.144501	59.000000	35.000000
172.144501	172.254914	76.000000	50.000000
172.144501	172.254914	47.000000	40.000000
172.239143	172.349798	75.000000	50.000000
172.239143	172.349798	52.000000	35.000000
172.333973	172.444788	76.000000	51.000000
172.333973	172.444788	55.000000	35.000000
172.428909	172.540033	78.000000	51.000000
172.428909	172.524155	59.000000	35.000000
172.524155	172.635413	79.000000	49.000000
172.524155	172.635413	47.000000	40.000000
172.619494	172.730953	80.000000	50.000000
172.619494	172.730953	52.000000	35.000000
172.715034	172.826748	81.000000	52.000000
172.715034	172.826748	55.000000	35.000000
172.810776	172.922852	82.000000	53.000000
172.810776	172.906826	59.000000	35.000000
172.906826	173.018701	83.000000	55.000000
172.906826	173.018701	47.000000	40.000000
173.002782	173.114201	82.000000	53.000000
173.002782	173.114201	51.000000	35.000000
173.098322	173.209285	83.000000	53.000000
173.098322	173.209285	54.000000	35.000000
173.193460	173.303967	82.000000	50.000000
173.193460	173.288196	59.000000	35.000000
173.288196	173.398314	83.000000	52.000000
173.288196	173.398314	47.000000	40.000000
173.382637	173.492312	81.000000	52.000000
173.382637	173.492312	51.000000	35.000000
173.476688	173.585908	79.000000	51.000000
173.476688	173.585908	54.000000	35.000000
173.570338	173.679182	78.000000	50.000000
173.570338	173.663598	59.000000	35.000000
173.663598	173.772657	79.000000	52.000000
173.663598	173.772657	47.000000	40.000000
173.757073	173.866132	78.000000	51.000000
173.757073	173.866132	52.000000	35.000000
173.850548	173.959607	76.000000	49.000000
173.850548	173.959607	55.000000	35.000000
173.944023	174.053082	75.000000	50.000000
173.944023	174.037498	59.000000	35.000000
174.037498	174.146557	76.000000	50.000000
174.037498	174.146557	47.000000	41.000000
174.130973	174.240032	79.000000	53.000000
174.130973	174.240032	52.000000	35.000000
174.224448	174.333507	78.000000	50.000000
174.224448	174.333507	55.000000	35.000000
174.317923	174.426982	76.000000	50.000000
174.317923	174.411398	59.000000	35.000000
174.411398	174.520457	75.000000	50.000000
174.411398	174.520457	47.000000	40.000000
174.504873	174.613932	73.000000	49.000000
174.504873	174.613932	54.000000	35.000000
174.598349	174.707407	71.000000	48.000000
174.598349	174.707407	57.000000	35.000000
174.691824	174.800882	70.000000	47.000000
174.691824	174.785299	59.000000	35.000000
174.785299	174.894357	71.000000	49.000000
174.785299	174.894357	47.000000	40.000000
174.878774	174.987832	73.000000	50.000000
174.878774	174.987832	54.000000	36.000000
174.972249	175.081307	74.000000	50.000000
174.972249	175.081307	57.000000	36.000000
175.065724	175.174782	75.000000	52.000000
175.065724	175.159199	59.000000	36.000000
175.159199	175.268258	76.000000	52.000000
175.159199	175.268258	47.000000	42.000000
175.252674	175.361733	75.000000	52.000000
175.252674	175.361733	52.000000	36.000000
175.346149	175.455208	76.000000	54.000000
175.346149	175.455208	55.000000	37.000000
175.439624	175.548683	78.000000	54.000000
175.439624	175.533099	59.000000	37.000000
175.533099	175.642158	79.000000	56.000000
175.533099	175.642158	47.000000	42.000000
175.626574	175.736424	80.000000	58.000000
175.626574	175.736424	52.000000	37.000000
175.720049	175.834660	81.000000	60.000000
175.720049	175.834660	55.000000	37.000000
175.818285	175.932105	82.000000	62.000000
175.818285	175.916521	59.000000	38.000000
175.916521	176.010009	83.000000	68.000000
175.916521	176.010009	47.000000	44.000000
176.010009	176.103485	78.000000	60.000000
176.010009	176.103485	51.000000	38.000000
176.103485	176.196960	75.000000	61.000000
176.103485	176.196960	53.000000	38.000000
176.196960	176.290435	71.000000	61.000000
176.196960	176.290435	59.000000	38.000000
176.290435	176.383910	70.000000	75.000000
176.290435	176.383910	58.000000	50.000000
176.383910	176.477385	71.000000	63.000000
176.383910	176.477385	59.000000	41.000000
176.477385	176.570860	76.000000	63.000000
176.477385	176.570860	55.000000	40.000000
176.570860	176.664335	79.000000	63.000000
176.570860	176.664335	52.000000	41.000000
176.664335	176.757810	83.000000	74.000000
176.664335	176.757810	47.000000	52.000000
176.757810	176.851285	78.000000	65.000000
176.757810	176.851285	51.000000	44.000000
176.851285	176.944760	75.000000	68.000000
176.851285	176.944760	54.000000	45.000000
176.944760	177.038235	71.000000	68.000000
176.944760	177.038235	59.000000	45.000000
177.038235	177.131710	70.000000	80.000000
177.038235	177.131710	58.000000	60.000000
177.131710	177.225185	71.000000	71.000000
177.131710	177.225185	59.000000	51.000000
177.225185	177.318660	76.000000	71.000000
177.225185	177.318660	55.000000	51.000000
177.318660	177.412135	79.000000	72.000000
177.318660	177.412135	52.000000	52.000000
177.412135	177.505610	83.000000	91.000000
177.412135	177.505610	47.000000	63.000000
177.505610	177.599085	78.000000	82.000000
177.505610	177.599085	51.000000	52.000000
177.599085	177.692560	75.000000	82.000000
177.599085	177.692560	54.000000	52.000000
177.692560	177.786035	71.000000	82.000000
177.692560	177.786035	59.000000	52.000000
177.786035	177.879510	83.000000	91.000000
177.786035	177.879510	47.000000	63.000000
177.879510	177.972985	79.000000	82.000000
177.879510	177.972985	52.000000	52.000000
177.972985	178.066460	76.000000	82.000000
177.972985	178.066460	55.000000	52.000000
178.066460	178.159936	71.000000	82.000000
178.066460	178.159936	59.000000	52.000000
178.159936	178.253424	83.000000	91.000000
178.159936	178.253424	47.000000	63.000000
178.253424	178.346899	78.000000	82.000000
178.253424	178.346899	51.000000	52.000000
178.346899	178.440374	75.000000	81.000000
178.346899	178.440374	54.000000	52.000000
178.440374	178.533849	71.000000	81.000000
178.440374	178.533849	59.000000	52.000000
178.533849	178.627324	83.000000	91.000000
178.533849	178.627324	47.000000	63.000000
178.627324	178.720799	79.000000	81.000000
178.627324	178.720799	52.000000	52.000000
178.720799	178.814274	76.000000	81.000000
178.720799	178.814274	55.000000	52.000000
178.814274	178.907749	71.000000	82.000000
178.814274	178.907749	59.000000	52.000000
178.907749	179.001533	83.000000	91.000000
178.907749	179.282883	47.000000	54.000000
178.907749	179.282883	51.000000	54.000000
178.907749	179.282883	54.000000	54.000000
178.907749	179.282883	59.000000	63.000000
179.001533	179.095316	78.000000	82.000000
179.095316	179.189100	75.000000	82.000000
179.189100	179.282883	71.000000	82.000000
179.282883	179.376667	78.000000	91.000000
179.376667	179.470651	75.000000	82.000000
179.470651	179.564743	71.000000	82.000000
179.564743	179.658835	66.000000	82.000000
179.658835	179.752927	75.000000	91.000000
179.752927	179.847019	71.000000	82.000000
179.847019	179.941205	66.000000	81.000000
179.941205	180.035592	63.000000	81.000000
180.035592	180.129979	71.000000	91.000000
180.129979	180.224366	66.000000	81.000000
180.224366	180.318753	63.000000	81.000000
180.318753	180.413247	59.000000	82.000000
180.413247	180.507031	66.000000	91.000000
180.507031	180.600814	63.000000	81.000000
180.600814	180.694799	59.000000	80.000000
180.694799	180.788891	54.000000	80.000000
180.788891	180.883077	63.000000	89.000000
180.883077	180.977464	59.000000	79.000000
180.977464	181.071851	54.000000	79.000000
181.071851	181.166546	51.000000	78.000000
181.166546	181.261242	59.000000	87.000000
181.261242	181.356152	54.000000	78.000000
181.356152	181.451156	51.000000	77.000000
181.451156	181.546267	47.000000	77.000000
181.546267	181.641593	35.000000	85.000000
181.641593	181.736918	39.000000	76.000000
181.736918	181.836844	42.000000	76.000000
181.836844	181.936770	47.000000	75.000000
181.936770	182.029655	35.000000	77.000000
182.122540	182.218080	47.000000	68.000000
182.313621	182.407377	37.000000	73.000000
182.501134	182.596674	49.000000	66.000000
182.692215	182.785100	71.000000	75.000000
182.692215	182.785100	39.000000	71.000000
182.877984	182.973216	59.000000	69.000000
182.877984	182.973216	51.000000	65.000000
183.068448	183.163680	73.000000	74.000000
183.258912	183.359173	61.000000	65.000000
183.459434	183.553767	75.000000	71.000000
183.459434	183.553767	39.000000	69.000000
183.648610	183.744459	63.000000	64.000000
183.648610	183.744459	51.000000	61.000000
183.840724	183.935057	40.000000	65.000000
184.030142	184.126741	52.000000	59.000000
184.223341	184.318278	75.000000	67.000000
184.223341	184.318278	42.000000	65.000000
184.413215	184.509989	63.000000	53.000000
184.413215	184.509989	54.000000	54.000000
184.607233	184.704476	76.000000	59.000000
184.801934	184.899500	64.000000	50.000000
184.997065	185.093987	78.000000	52.000000
185.190908	185.287937	66.000000	49.000000
185.385181	185.482425	80.000000	52.000000
185.579883	185.677448	68.000000	49.000000
185.775121	185.873021	81.000000	52.000000
185.775121	185.873021	42.000000	41.000000
185.970922	186.068823	69.000000	48.000000
185.970922	186.068823	54.000000	36.000000
186.166724	186.264289	81.000000	52.000000
186.166724	186.264289	44.000000	41.000000
186.361962	186.459862	71.000000	46.000000
186.361962	186.459862	56.000000	36.000000
186.558098	186.656442	81.000000	51.000000
186.558098	186.656442	45.000000	40.000000
186.754999	186.853893	73.000000	46.000000
186.754999	186.853893	57.000000	37.000000
186.952906	187.052148	81.000000	51.000000
186.952906	187.052148	47.000000	39.000000
187.151725	187.251423	75.000000	46.000000
187.151725	187.251423	59.000000	36.000000
187.351349	187.450537	81.000000	51.000000
187.351349	187.450537	49.000000	38.000000
187.550865	187.652896	76.000000	47.000000
187.550865	187.652896	61.000000	37.000000
187.756644	187.864804	81.000000	50.000000
187.756644	187.864804	51.000000	40.000000
187.979831	188.102663	78.000000	46.000000
187.979831	188.102663	63.000000	37.000000
188.236773	189.132296	71.000000	42.000000
188.236773	189.132296	76.000000	42.000000
188.236773	189.132296	80.000000	55.000000
188.236773	189.132296	68.000000	39.000000
188.236773	189.132296	64.000000	33.000000
189.132296	189.570248	69.000000	40.000000
189.132296	189.570248	75.000000	40.000000
189.132296	189.570248	78.000000	52.000000
189.132296	189.570248	66.000000	35.000000
189.132296	189.570248	63.000000	29.000000
189.132296	189.570248	59.000000	29.000000
189.570248	190.025593	68.000000	40.000000
189.570248	190.025593	73.000000	40.000000
189.570248	190.025593	76.000000	52.000000
189.570248	190.025593	64.000000	35.000000
189.570248	190.025593	61.000000	29.000000
190.025593	190.908859	66.000000	42.000000
190.025593	190.908859	72.000000	42.000000
190.025593	190.908859	75.000000	55.000000
190.025593	190.908859	63.000000	39.000000
190.025593	190.908859	60.000000	33.000000
190.025593	190.908859	56.000000	33.000000
190.908859	191.812992	64.000000	40.000000
190.908859	191.812992	73.000000	52.000000
190.908859	191.812992	61.000000	34.000000
190.908859	191.812992	57.000000	28.000000
191.812992	192.711868	69.000000	49.000000
191.812992	192.711868	71.000000	49.000000
191.812992	192.711868	75.000000	63.000000
191.812992	192.711868	54.000000	37.000000
191.812992	192.711868	57.000000	45.000000
191.812992	192.711868	59.000000	37.000000
191.812992	192.711868	63.000000	45.000000
192.711868	193.171639	71.000000	50.000000
192.711868	193.171639	76.000000	66.000000
192.711868	193.171639	56.000000	40.000000
192.711868	193.171639	59.000000	40.000000
192.711868	193.171639	64.000000	49.000000
193.171639	193.686664	73.000000	49.000000
193.171639	193.686664	76.000000	55.000000
193.171639	193.686664	78.000000	72.000000
193.171639	193.686664	66.000000	55.000000
193.171639	193.686664	57.000000	42.000000
193.171639	193.686664	61.000000	43.000000
193.686664	195.102723	71.000000	59.000000
193.686664	194.616894	76.000000	59.000000
193.686664	194.616894	80.000000	77.000000
193.686664	195.566987	59.000000	49.000000
193.686664	194.616894	64.000000	49.000000
193.686664	194.616894	68.000000	59.000000
194.616894	195.568932	75.000000	32.000000
194.616894	195.568932	78.000000	49.000000
194.616894	195.568932	63.000000	27.000000
194.616894	195.568932	66.000000	32.000000
195.102723	195.568932	69.000000	48.000000
195.568932	196.448885	59.000000	37.000000
195.568932	196.448885	64.000000	37.000000
195.568932	196.448885	68.000000	45.000000
195.568932	196.448885	56.000000	35.000000
195.568932	196.448885	52.000000	29.000000
196.448885	196.879205	57.000000	36.000000
196.448885	196.879205	63.000000	36.000000
196.448885	196.879205	66.000000	43.000000
196.448885	196.879205	54.000000	31.000000
196.448885	196.879205	51.000000	26.000000
196.448885	196.879205	47.000000	26.000000
196.879205	197.334551	56.000000	36.000000
196.879205	197.334551	61.000000	36.000000
196.879205	197.334551	64.000000	43.000000
196.879205	197.334551	52.000000	31.000000
196.879205	197.334551	49.000000	26.000000
197.334551	198.217816	54.000000	37.000000
197.334551	198.217816	60.000000	37.000000
197.334551	198.217816	63.000000	45.000000
197.334551	198.217816	51.000000	35.000000
197.334551	198.217816	48.000000	29.000000
197.334551	198.217816	44.000000	29.000000
198.217816	199.121949	57.000000	36.000000
198.217816	199.121949	52.000000	36.000000
198.217816	199.121949	61.000000	43.000000
198.217816	199.121949	49.000000	30.000000
198.217816	199.121949	45.000000	25.000000
199.121949	199.566914	52.000000	44.000000
199.121949	199.566914	56.000000	44.000000
199.121949	200.011880	59.000000	52.000000
199.121949	200.907363	35.000000	33.000000
199.121949	200.907363	47.000000	40.000000
199.566914	200.907363	54.000000	49.000000
199.566914	200.907363	57.000000	49.000000
200.011880	200.446975	61.000000	61.000000
200.446975	200.907363	63.000000	68.000000
200.907363	201.056064	56.000000	42.000000
200.907363	201.018889	64.000000	49.000000
200.907363	201.353468	40.000000	42.000000
200.907363	201.353468	52.000000	45.000000
201.056064	201.167591	66.000000	48.000000
201.204766	201.316292	68.000000	49.000000
201.353468	201.464579	69.000000	46.000000
201.501620	201.612730	71.000000	47.000000
201.649772	201.760882	73.000000	48.000000
201.797924	201.908619	74.000000	50.000000
201.945512	202.056207	75.000000	51.000000
202.093101	202.203796	76.000000	52.000000
202.240690	202.351384	77.000000	53.000000
202.388278	202.498973	78.000000	51.000000
202.535867	202.646562	79.000000	52.000000
202.683456	203.551687	71.000000	46.000000
202.683456	202.828161	80.000000	56.000000
202.683456	203.551687	68.000000	43.000000
202.683456	203.551687	64.000000	36.000000
202.828161	202.972866	79.000000	53.000000
202.972866	203.117571	80.000000	53.000000
203.117571	203.262277	81.000000	53.000000
203.262277	203.406982	79.000000	53.000000
203.406982	203.551687	80.000000	53.000000
203.551687	203.976268	69.000000	60.000000
203.551687	203.976268	66.000000	39.000000
203.551687	203.976268	63.000000	32.000000
203.551687	203.976268	59.000000	32.000000
203.693214	203.834741	80.000000	54.000000
203.834741	203.976268	78.000000	54.000000
203.976268	204.425551	68.000000	60.000000
203.976268	204.425551	64.000000	39.000000
203.976268	204.425551	61.000000	32.000000
204.126029	204.275790	78.000000	53.000000
204.275790	204.425551	76.000000	53.000000
204.425551	205.297082	66.000000	60.000000
204.425551	205.297082	63.000000	43.000000
204.425551	205.297082	60.000000	36.000000
204.425551	205.297082	56.000000	36.000000
204.570807	204.716062	72.000000	54.000000
204.716062	204.861317	75.000000	54.000000
204.861317	205.006572	76.000000	54.000000
205.006572	205.151827	72.000000	54.000000
205.151827	205.297082	75.000000	54.000000
205.297082	206.189172	64.000000	60.000000
205.297082	206.189172	61.000000	38.000000
205.297082	206.189172	57.000000	31.000000
205.442337	205.587592	69.000000	54.000000
205.587592	205.732848	73.000000	54.000000
205.732848	205.884956	75.000000	54.000000
205.884956	206.037064	69.000000	54.000000
206.037064	206.189172	73.000000	54.000000
206.189172	207.067301	69.000000	62.000000
206.189172	207.067301	54.000000	39.000000
206.189172	207.067301	57.000000	47.000000
206.189172	207.067301	59.000000	39.000000
206.189172	207.067301	63.000000	47.000000
206.335527	206.481882	74.000000	62.000000
206.481882	206.628237	75.000000	57.000000
206.628237	206.774591	76.000000	57.000000
206.774591	206.920946	74.000000	59.000000
206.920946	207.067301	75.000000	59.000000
207.067301	207.496589	71.000000	71.000000
207.067301	207.496589	56.000000	45.000000
207.067301	207.496589	59.000000	45.000000
207.067301	207.496589	64.000000	53.000000
207.210397	207.353493	78.000000	63.000000
207.353493	207.496589	76.000000	64.000000
207.496589	207.951143	73.000000	74.000000
207.496589	207.951143	66.000000	59.000000
207.496589	207.951143	57.000000	49.000000
207.496589	207.951143	61.000000	49.000000
207.648107	207.799625	80.000000	65.000000
207.799625	207.951143	78.000000	65.000000
207.951143	208.096398	80.000000	79.000000
207.951143	208.822674	76.000000	79.000000
207.951143	209.721456	59.000000	53.000000
207.951143	208.822674	64.000000	53.000000
207.951143	208.822674	68.000000	65.000000
208.096398	208.241653	79.000000	72.000000
208.241653	208.386909	80.000000	72.000000
208.386909	208.532164	83.000000	68.000000
208.532164	208.677419	81.000000	72.000000
208.677419	208.822674	80.000000	69.000000
208.822674	208.969579	75.000000	67.000000
208.822674	208.969579	78.000000	67.000000
208.822674	209.263388	63.000000	45.000000
208.822674	209.263388	66.000000	53.000000
208.969579	209.116483	73.000000	64.000000
208.969579	209.116483	76.000000	64.000000
209.116483	209.263388	75.000000	60.000000
209.116483	209.263388	71.000000	60.000000
209.263388	209.416717	69.000000	60.000000
209.263388	209.416717	73.000000	60.000000
209.263388	209.416717	47.000000	44.000000
209.416717	209.570045	68.000000	56.000000
209.416717	209.570045	71.000000	56.000000
209.416717	209.570045	49.000000	43.000000
209.570045	209.723374	66.000000	53.000000
209.570045	209.723374	69.000000	53.000000
209.570045	209.723374	51.000000	41.000000
209.723374	210.602468	59.000000	57.000000
209.723374	209.869889	68.000000	57.000000
209.723374	210.602468	56.000000	45.000000
209.723374	210.602468	52.000000	37.000000
209.869889	210.016405	67.000000	49.000000
210.016405	210.162921	68.000000	49.000000
210.162921	210.309437	69.000000	49.000000
210.309437	210.455952	67.000000	49.000000
210.455952	210.602468	68.000000	49.000000
210.602468	211.031032	57.000000	56.000000
210.602468	211.031032	54.000000	41.000000
210.602468	211.031032	51.000000	33.000000
210.602468	211.031032	47.000000	33.000000
210.745323	210.888177	68.000000	50.000000
210.888177	211.031032	66.000000	50.000000
211.031032	211.480316	56.000000	56.000000
211.031032	211.480316	52.000000	41.000000
211.031032	211.480316	49.000000	33.000000
211.180793	211.330554	66.000000	49.000000
211.330554	211.480316	64.000000	49.000000
211.480316	212.351846	51.000000	37.000000
211.480316	212.351846	54.000000	49.000000
211.480316	212.351846	48.000000	37.000000
211.480316	212.351846	44.000000	37.000000
211.625571	211.770826	60.000000	50.000000
211.770826	211.916081	63.000000	50.000000
211.916081	212.061336	64.000000	53.000000
212.061336	212.206591	60.000000	50.000000
212.206591	212.351846	63.000000	50.000000
212.351846	213.243936	45.000000	39.000000
212.351846	213.243936	49.000000	39.000000
212.351846	213.243936	52.000000	32.000000
212.497101	212.642357	57.000000	50.000000
212.642357	212.787612	61.000000	50.000000
212.787612	212.939720	63.000000	53.000000
212.939720	213.091828	57.000000	50.000000
213.091828	213.243936	61.000000	50.000000
213.243936	213.691195	52.000000	60.000000
213.243936	215.056789	35.000000	46.000000
213.243936	215.056789	47.000000	55.000000
213.390291	213.536646	56.000000	56.000000
213.536646	213.691195	59.000000	57.000000
213.691195	214.145642	54.000000	66.000000
213.839239	213.987284	57.000000	61.000000
213.987284	214.145642	59.000000	61.000000
214.145642	214.601484	54.000000	74.000000
214.297173	214.446935	57.000000	67.000000
214.446935	214.601484	61.000000	65.000000
214.601484	215.056789	54.000000	80.000000
214.751835	214.902173	57.000000	71.000000
214.902173	215.056789	63.000000	70.000000
215.056789	215.201186	56.000000	77.000000
215.056789	215.201186	64.000000	82.000000
215.056789	215.490006	40.000000	50.000000
215.056789	215.490006	52.000000	60.000000
215.201186	215.345596	59.000000	75.000000
215.345596	215.490006	56.000000	77.000000
215.490006	215.634416	59.000000	82.000000
215.490006	216.358680	47.000000	74.000000
215.634416	215.778827	64.000000	77.000000
215.778827	215.928588	68.000000	77.000000
215.928588	216.071952	66.000000	82.000000
216.071952	216.215316	63.000000	77.000000
216.215316	216.358680	59.000000	77.000000
216.358680	216.502044	63.000000	82.000000
216.358680	217.222781	47.000000	74.000000
216.502044	216.645409	66.000000	77.000000
216.645409	216.795747	69.000000	77.000000
216.795747	216.938091	68.000000	82.000000
216.938091	217.080436	64.000000	75.000000
217.080436	217.222781	59.000000	77.000000
217.222781	217.365126	64.000000	82.000000
217.222781	218.088518	47.000000	74.000000
217.365126	217.507471	68.000000	77.000000
217.507471	217.657232	71.000000	77.000000
217.657232	217.798571	69.000000	82.000000
217.798571	217.939911	66.000000	77.000000
217.939911	218.088518	63.000000	77.000000
218.088518	218.231091	75.000000	82.000000
218.088518	218.516237	47.000000	73.000000
218.231091	218.373664	69.000000	77.000000
218.373664	218.516237	66.000000	77.000000
218.516237	218.938766	68.000000	63.000000
218.516237	218.938766	76.000000	75.000000
218.516237	218.657080	52.000000	73.000000
218.657080	218.797923	47.000000	67.000000
218.797923	218.938766	44.000000	69.000000
218.938766	219.792902	71.000000	80.000000
218.938766	219.079609	47.000000	73.000000
219.079609	219.220452	52.000000	69.000000
219.220452	219.367356	56.000000	69.000000
219.367356	219.509205	54.000000	73.000000
219.509205	219.651054	51.000000	69.000000
219.651054	219.792902	47.000000	69.000000
219.792902	220.649614	71.000000	80.000000
219.792902	219.934751	51.000000	73.000000
219.934751	220.076600	54.000000	69.000000
220.076600	220.224068	57.000000	69.000000
220.224068	220.365917	56.000000	73.000000
220.365917	220.507765	52.000000	67.000000
220.507765	220.649614	47.000000	69.000000
220.649614	221.512521	71.000000	80.000000
220.649614	220.791463	52.000000	73.000000
220.791463	220.933311	56.000000	69.000000
220.933311	221.080779	59.000000	69.000000
221.080779	221.222628	57.000000	73.000000
221.222628	221.364477	54.000000	69.000000
221.364477	221.512521	51.000000	69.000000
221.512521	221.943244	71.000000	80.000000
221.512521	221.653861	63.000000	73.000000
221.653861	221.795200	57.000000	69.000000
221.795200	221.943244	54.000000	69.000000
221.943244	222.084087	76.000000	82.000000
221.943244	222.084087	56.000000	64.000000
222.084087	222.224930	71.000000	75.000000
222.084087	222.224930	59.000000	56.000000
222.224930	222.365773	68.000000	77.000000
222.224930	222.365773	64.000000	56.000000
222.365773	222.506616	71.000000	82.000000
222.365773	222.506616	59.000000	64.000000
222.506616	222.647459	76.000000	77.000000
222.506616	222.647459	56.000000	57.000000
222.647459	222.794363	80.000000	77.000000
222.647459	222.794363	52.000000	57.000000
222.794363	222.935206	78.000000	82.000000
222.794363	222.935206	51.000000	64.000000
222.935206	223.076049	75.000000	77.000000
222.935206	223.076049	54.000000	56.000000
223.076049	223.216892	71.000000	77.000000
223.076049	223.216892	57.000000	56.000000
223.216892	223.357735	75.000000	82.000000
223.216892	223.357735	54.000000	64.000000
223.357735	223.498578	78.000000	77.000000
223.357735	223.498578	51.000000	57.000000
223.498578	223.644933	81.000000	77.000000
223.498578	223.644933	47.000000	58.000000
223.644933	223.784783	80.000000	82.000000
223.650176	223.790027	52.000000	64.000000
223.784783	223.924647	76.000000	75.000000
223.784783	223.924647	56.000000	56.000000
223.924647	224.064511	71.000000	77.000000
223.924647	224.064511	59.000000	56.000000
224.064511	224.204375	76.000000	82.000000
224.064511	224.204375	56.000000	64.000000
224.204375	224.344239	80.000000	77.000000
224.204375	224.344239	52.000000	57.000000
224.344239	224.499405	83.000000	77.000000
224.350059	224.504662	47.000000	57.000000
224.499405	224.639751	81.000000	82.000000
224.499405	224.639751	51.000000	64.000000
224.639751	224.780098	78.000000	77.000000
224.639751	224.780098	57.000000	56.000000
224.780098	224.933426	75.000000	77.000000
224.785851	224.938670	59.000000	56.000000
224.933426	225.073290	87.000000	82.000000
224.933426	225.073290	57.000000	64.000000
225.073290	225.213154	81.000000	77.000000
225.073290	225.213154	59.000000	57.000000
225.213154	225.353018	78.000000	77.000000
225.213154	225.353018	66.000000	58.000000
225.353018	225.562083	88.000000	86.000000
225.353018	225.492399	56.000000	64.000000
225.492399	225.631767	83.000000	74.000000
225.492399	225.631767	59.000000	55.000000
225.631767	225.771135	80.000000	74.000000
225.631767	225.771135	64.000000	55.000000
225.771135	225.980186	83.000000	82.000000
225.771135	225.910502	52.000000	62.000000
225.910502	226.049870	80.000000	73.000000
225.910502	226.049870	56.000000	55.000000
226.049870	226.196225	76.000000	72.000000
226.049870	226.196225	59.000000	54.000000
226.196225	226.404552	81.000000	79.000000
226.196225	226.335110	54.000000	59.000000
226.335110	226.473994	78.000000	71.000000
226.335110	226.473994	57.000000	51.000000
226.473994	226.612879	75.000000	70.000000
226.473994	226.612879	59.000000	51.000000
226.612879	226.821207	87.000000	76.000000
226.612879	226.751764	57.000000	57.000000
226.751764	226.890649	83.000000	69.000000
226.751764	226.890649	59.000000	51.000000
226.890649	227.045198	78.000000	67.000000
226.890649	227.045198	66.000000	51.000000
227.045198	227.253539	88.000000	75.000000
227.045198	227.184096	56.000000	56.000000
227.184096	227.322981	83.000000	65.000000
227.184096	227.322981	59.000000	48.000000
227.322981	227.461866	80.000000	65.000000
227.322981	227.461866	64.000000	48.000000
227.461866	227.670193	83.000000	72.000000
227.461866	227.600751	52.000000	54.000000
227.600751	227.739636	80.000000	64.000000
227.600751	227.739636	56.000000	48.000000
227.739636	227.886541	76.000000	63.000000
227.739636	227.886541	59.000000	47.000000
227.886541	228.093433	81.000000	69.000000
227.886541	228.024473	54.000000	51.000000
228.024473	228.162392	78.000000	62.000000
228.024473	228.162392	57.000000	44.000000
228.162392	228.300325	75.000000	60.000000
228.162392	228.300325	59.000000	44.000000
228.300325	228.507217	87.000000	69.000000
228.300325	228.438258	57.000000	50.000000
228.438258	228.576177	83.000000	59.000000
228.438258	228.576177	59.000000	44.000000
228.576177	228.730726	78.000000	58.000000
228.576177	228.730726	66.000000	44.000000
228.730726	228.834219	88.000000	64.000000
228.730726	228.834219	56.000000	50.000000
228.834219	228.937525	83.000000	58.000000
228.834219	228.937525	59.000000	43.000000
228.937525	229.040589	80.000000	58.000000
228.937525	229.040589	52.000000	43.000000
229.040589	229.143344	76.000000	59.000000
229.040589	229.143344	59.000000	44.000000
229.143344	229.245804	81.000000	65.000000
229.143344	229.245804	54.000000	51.000000
229.245804	229.348024	78.000000	59.000000
229.245804	229.348024	59.000000	44.000000
229.348024	229.450001	87.000000	62.000000
229.348024	229.450001	57.000000	44.000000
229.450001	229.551670	83.000000	63.000000
229.450001	229.551670	59.000000	44.000000
229.551670	229.653058	88.000000	69.000000
229.551670	229.653058	56.000000	52.000000
229.653058	229.754378	83.000000	63.000000
229.653058	229.754378	59.000000	46.000000
229.754378	229.855699	80.000000	63.000000
229.754378	229.855699	52.000000	47.000000
229.855699	229.957019	76.000000	64.000000
229.855699	229.957019	59.000000	49.000000
229.957019	230.058340	81.000000	71.000000
229.957019	230.058340	54.000000	55.000000
230.058340	230.159660	78.000000	66.000000
230.058340	230.159660	59.000000	48.000000
230.159660	230.260981	87.000000	67.000000
230.159660	230.260981	57.000000	48.000000
230.260981	230.368873	83.000000	67.000000
230.260981	230.368873	59.000000	49.000000
230.368873	230.469496	88.000000	74.000000
230.368873	230.469496	56.000000	58.000000
230.469496	230.569945	83.000000	67.000000
230.469496	230.569945	59.000000	50.000000
230.569945	230.670206	87.000000	69.000000
230.569945	230.670206	57.000000	51.000000
230.670206	230.770185	83.000000	69.000000
230.670206	230.770185	59.000000	52.000000
230.770185	230.870057	88.000000	77.000000
230.770185	230.870057	56.000000	60.000000
230.870057	230.969634	83.000000	77.000000
230.870057	230.969634	59.000000	52.000000
230.969634	231.069051	87.000000	72.000000
230.969634	231.069051	57.000000	52.000000
231.069051	231.168292	83.000000	73.000000
231.069051	231.168292	59.000000	54.000000
231.168292	231.267186	88.000000	80.000000
231.168292	231.267186	56.000000	62.000000
231.267186	231.366079	83.000000	73.000000
231.267186	231.366079	59.000000	55.000000
231.366079	231.464972	87.000000	74.000000
231.366079	231.464972	57.000000	55.000000
231.464972	231.563865	83.000000	74.000000
231.464972	231.563865	59.000000	57.000000
231.563865	231.662758	88.000000	82.000000
231.563865	231.662758	56.000000	65.000000
231.662758	231.761651	83.000000	85.000000
231.662758	231.761651	59.000000	57.000000
231.761651	231.860544	87.000000	78.000000
231.761651	231.860544	57.000000	57.000000
231.860544	231.969080	83.000000	79.000000
231.860544	231.969080	59.000000	58.000000
231.969080	232.067638	88.000000	89.000000
231.969080	232.067638	56.000000	70.000000
232.067638	232.166196	83.000000	81.000000
232.067638	232.166196	59.000000	60.000000
232.166196	232.264646	86.000000	81.000000
232.166196	232.264646	44.000000	60.000000
232.264646	232.362882	83.000000	81.000000
232.264646	232.362882	52.000000	62.000000
232.362882	232.461118	86.000000	89.000000
232.362882	232.461118	44.000000	70.000000
232.461118	232.559126	83.000000	83.000000
232.461118	232.559126	52.000000	60.000000
232.559126	232.657027	86.000000	82.000000
232.559126	232.657027	44.000000	60.000000
232.657027	232.754874	83.000000	82.000000
232.657027	232.754874	52.000000	60.000000
232.754874	232.852439	86.000000	89.000000
232.754874	232.852439	44.000000	70.000000
232.852439	232.950005	83.000000	81.000000
232.852439	232.950005	52.000000	60.000000
232.950005	233.047570	86.000000	81.000000
232.950005	233.047570	44.000000	60.000000
233.047570	233.145135	83.000000	81.000000
233.047570	233.145135	52.000000	62.000000
233.145135	233.242701	86.000000	89.000000
233.145135	233.242701	44.000000	70.000000
233.242701	233.340266	83.000000	83.000000
233.242701	233.340266	52.000000	60.000000
233.340266	233.437832	86.000000	82.000000
233.340266	233.437832	44.000000	60.000000
233.437832	233.539152	83.000000	82.000000
233.437832	233.539152	52.000000	60.000000
233.539152	233.729160	86.000000	89.000000
233.539152	233.634156	44.000000	70.000000
233.634156	233.729160	52.000000	60.000000
233.729160	233.824164	85.000000	81.000000
233.729160	233.824164	44.000000	60.000000
233.824164	233.919168	83.000000	81.000000
233.824164	233.919168	52.000000	62.000000
233.919168	234.014172	81.000000	86.000000
233.919168	234.014172	44.000000	70.000000
234.014172	234.109176	80.000000	82.000000
234.014172	234.109176	52.000000	60.000000
234.109176	234.204180	78.000000	83.000000
234.109176	234.204180	44.000000	60.000000
234.204180	234.299183	76.000000	83.000000
234.204180	234.299183	52.000000	61.000000
234.299183	234.394187	74.000000	86.000000
234.299183	234.394187	44.000000	71.000000
234.394187	234.489191	73.000000	82.000000
234.394187	234.489191	52.000000	61.000000
234.489191	234.584195	71.000000	83.000000
234.489191	234.584195	44.000000	61.000000
234.584195	234.679199	69.000000	83.000000
234.584195	234.679199	52.000000	63.000000
234.679199	234.774203	68.000000	88.000000
234.679199	234.774203	44.000000	72.000000
234.774203	234.869207	66.000000	85.000000
234.774203	234.869207	52.000000	62.000000
234.869207	234.964211	64.000000	85.000000
234.869207	234.964211	44.000000	62.000000
234.964211	235.059215	62.000000	85.000000
234.964211	235.059215	52.000000	62.000000
235.059215	235.151912	61.000000	93.000000
235.059215	235.198287	45.000000	67.000000
235.059215	235.198287	49.000000	67.000000
235.059215	235.198287	52.000000	80.000000
235.151912	235.244408	63.000000	83.000000
235.244408	235.337642	64.000000	83.000000
235.244408	235.383521	45.000000	60.000000
235.244408	235.383521	49.000000	60.000000
235.244408	235.383521	52.000000	73.000000
235.337642	235.430513	63.000000	84.000000
235.430513	235.524095	64.000000	92.000000
235.524095	235.617262	68.000000	84.000000
235.617262	235.715163	69.000000	84.000000
235.617262	235.764113	45.000000	60.000000
235.617262	235.764113	49.000000	60.000000
235.617262	235.764113	52.000000	73.000000
235.715163	235.813063	68.000000	84.000000
235.813063	235.906056	69.000000	93.000000
235.813063	235.953182	45.000000	67.000000
235.813063	235.953182	49.000000	67.000000
235.813063	235.953182	52.000000	80.000000
235.906056	236.000322	72.000000	84.000000
236.000322	236.094213	73.000000	84.000000
236.000322	236.140923	45.000000	60.000000
236.000322	236.140923	49.000000	60.000000
236.000322	236.140923	52.000000	73.000000
236.094213	236.187661	72.000000	84.000000
236.187661	236.281914	73.000000	93.000000
236.281914	236.375080	75.000000	84.000000
236.375080	236.472646	76.000000	84.000000
236.375080	236.521435	45.000000	60.000000
236.375080	236.521435	49.000000	60.000000
236.375080	236.521435	52.000000	73.000000
236.472646	236.569715	75.000000	84.000000
236.569715	236.663002	76.000000	95.000000
236.569715	236.709136	45.000000	67.000000
236.569715	236.709136	49.000000	67.000000
236.569715	236.709136	52.000000	78.000000
236.663002	236.756223	80.000000	85.000000
236.756223	236.850543	81.000000	85.000000
236.756223	236.896891	45.000000	60.000000
236.756223	236.896891	49.000000	60.000000
236.756223	236.896891	52.000000	73.000000
236.850543	236.944044	80.000000	85.000000
236.944044	237.037627	81.000000	95.000000
237.037627	237.130820	84.000000	85.000000
237.130820	237.227742	85.000000	85.000000
237.130820	237.276196	45.000000	60.000000
237.130820	237.276196	49.000000	60.000000
237.130820	237.276196	52.000000	73.000000
237.227742	237.324650	84.000000	86.000000
237.324650	237.417951	85.000000	95.000000
237.324650	237.465050	45.000000	67.000000
237.324650	237.465050	49.000000	67.000000
237.324650	237.465050	52.000000	78.000000
237.417951	237.512029	87.000000	86.000000
237.512029	237.604673	88.000000	86.000000
237.512029	237.651947	45.000000	60.000000
237.512029	237.651947	49.000000	60.000000
237.512029	237.651947	52.000000	73.000000
237.604673	237.699194	87.000000	86.000000
237.699194	237.792709	88.000000	95.000000
237.792709	237.886841	87.000000	86.000000
237.886841	237.987813	85.000000	86.000000
237.886841	238.038293	45.000000	60.000000
237.886841	238.038293	49.000000	60.000000
237.886841	238.038293	52.000000	73.000000
237.987813	238.088772	84.000000	86.000000
238.088772	238.182488	85.000000	95.000000
238.088772	238.229092	52.000000	67.000000
238.088772	238.229092	46.000000	67.000000
238.088772	238.229092	49.000000	67.000000
238.088772	238.229092	54.000000	78.000000
238.182488	238.276379	84.000000	86.000000
238.276379	238.370471	85.000000	86.000000
238.276379	238.416967	52.000000	60.000000
238.276379	238.416967	46.000000	60.000000
238.276379	238.416967	49.000000	60.000000
238.276379	238.416967	54.000000	73.000000
238.370471	238.464228	87.000000	86.000000
238.464228	238.557636	88.000000	95.000000
238.557636	238.651325	87.000000	86.000000
238.651325	238.748247	85.000000	86.000000
238.651325	238.796701	52.000000	60.000000
238.651325	238.796701	46.000000	60.000000
238.651325	238.796701	49.000000	60.000000
238.651325	238.796701	54.000000	73.000000
238.748247	238.845155	84.000000	86.000000
238.845155	238.938214	85.000000	95.000000
238.845155	238.985193	52.000000	67.000000
238.845155	238.985193	46.000000	67.000000
238.845155	238.985193	49.000000	67.000000
238.845155	238.985193	54.000000	78.000000
238.938214	239.031931	84.000000	86.000000
239.031931	239.124977	85.000000	86.000000
239.031931	239.172412	52.000000	60.000000
239.031931	239.172412	46.000000	60.000000
239.031931	239.172412	49.000000	60.000000
239.031931	239.172412	54.000000	73.000000
239.124977	239.219525	87.000000	86.000000
239.219525	239.312785	88.000000	95.000000
239.312785	239.406542	87.000000	86.000000
239.406542	239.503142	85.000000	86.000000
239.406542	239.551435	52.000000	60.000000
239.406542	239.551435	46.000000	60.000000
239.406542	239.551435	49.000000	60.000000
239.406542	239.551435	54.000000	73.000000
239.503142	239.599728	84.000000	86.000000
239.599728	239.693565	85.000000	95.000000
239.599728	239.740625	52.000000	67.000000
239.599728	239.740625	46.000000	67.000000
239.599728	239.740625	49.000000	67.000000
239.599728	239.740625	54.000000	78.000000
239.693565	239.787040	84.000000	86.000000
239.787040	239.880636	85.000000	86.000000
239.787040	239.927615	52.000000	60.000000
239.787040	239.927615	46.000000	60.000000
239.787040	239.927615	49.000000	60.000000
239.787040	239.927615	54.000000	73.000000
239.880636	239.974057	87.000000	86.000000
239.974057	240.067546	88.000000	95.000000
240.067546	240.160712	87.000000	86.000000
240.160712	240.257634	85.000000	86.000000
240.160712	240.306088	52.000000	60.000000
240.160712	240.306088	46.000000	60.000000
240.160712	240.306088	49.000000	60.000000
240.160712	240.306088	54.000000	73.000000
240.257634	240.354542	84.000000	86.000000
240.354542	240.448929	85.000000	95.000000
240.354542	240.496230	52.000000	67.000000
240.354542	240.496230	46.000000	67.000000
240.354542	240.496230	49.000000	67.000000
240.354542	240.496230	54.000000	78.000000
240.448929	240.543062	84.000000	86.000000
240.543062	240.636952	85.000000	86.000000
240.543062	240.683891	52.000000	60.000000
240.543062	240.683891	46.000000	60.000000
240.543062	240.683891	49.000000	60.000000
240.543062	240.683891	54.000000	73.000000
240.636952	240.730481	87.000000	86.000000
240.730481	240.823648	88.000000	95.000000
240.823648	240.916814	87.000000	86.000000
240.916814	241.013414	88.000000	86.000000
240.916814	241.061707	52.000000	60.000000
240.916814	241.061707	46.000000	60.000000
240.916814	241.061707	49.000000	60.000000
240.916814	241.061707	54.000000	73.000000
241.013414	241.110000	85.000000	86.000000
241.110000	241.203167	71.000000	87.000000
241.110000	241.203167	83.000000	103.000000
241.110000	241.203167	47.000000	78.000000
241.203167	241.296334	52.000000	70.000000
241.296334	241.389500	71.000000	73.000000
241.296334	241.389500	83.000000	87.000000
241.296334	241.389500	56.000000	70.000000
241.389500	241.482667	59.000000	70.000000
241.482667	241.577362	68.000000	74.000000
241.482667	241.577362	80.000000	88.000000
241.482667	241.577362	47.000000	77.000000
241.577362	241.672058	52.000000	70.000000
241.672058	241.766753	64.000000	73.000000
241.672058	241.766753	76.000000	87.000000
241.672058	241.766753	56.000000	70.000000
241.766753	241.861449	59.000000	70.000000
241.861449	241.954334	76.000000	87.000000
241.861449	241.954334	88.000000	103.000000
241.861449	241.954334	47.000000	75.000000
241.954334	242.047219	52.000000	70.000000
242.047219	242.140104	76.000000	73.000000
242.047219	242.140104	88.000000	87.000000
242.047219	242.140104	56.000000	70.000000
242.140104	242.232988	59.000000	70.000000
242.232988	242.328314	71.000000	73.000000
242.232988	242.328314	83.000000	87.000000
242.232988	242.328314	47.000000	75.000000
242.328314	242.423640	52.000000	70.000000
242.423640	242.518966	68.000000	73.000000
242.423640	242.518966	80.000000	87.000000
242.423640	242.518966	56.000000	70.000000
242.518966	242.613675	59.000000	70.000000
242.613675	242.707150	71.000000	87.000000
242.613675	242.707150	83.000000	103.000000
242.613675	242.707150	47.000000	78.000000
242.707150	242.800625	52.000000	70.000000
242.800625	242.894100	71.000000	73.000000
242.800625	242.894100	83.000000	87.000000
242.800625	242.894100	56.000000	70.000000
242.894100	242.987575	59.000000	70.000000
242.987575	243.081962	68.000000	74.000000
242.987575	243.081962	80.000000	88.000000
242.987575	243.081962	47.000000	77.000000
243.081962	243.176349	52.000000	70.000000
243.176349	243.270736	64.000000	73.000000
243.176349	243.270736	76.000000	87.000000
243.176349	243.270736	56.000000	70.000000
243.270736	243.365123	59.000000	70.000000
243.365123	243.458598	76.000000	87.000000
243.365123	243.458598	88.000000	103.000000
243.365123	243.458598	56.000000	75.000000
243.552073	243.645548	76.000000	73.000000
243.552073	243.645548	88.000000	87.000000
243.552073	243.645548	56.000000	70.000000
243.739023	243.833718	71.000000	73.000000
243.739023	243.833718	83.000000	87.000000
243.739023	243.833718	52.000000	75.000000
243.928414	244.023109	68.000000	73.000000
243.928414	244.023109	80.000000	87.000000
243.928414	244.023109	47.000000	70.000000
244.117805	244.211280	59.000000	82.000000
244.211280	244.304755	80.000000	47.000000
244.304755	244.491705	83.000000	50.000000
244.304755	244.398230	56.000000	47.000000
244.398230	244.491705	80.000000	47.000000
244.491705	244.678655	83.000000	51.000000
244.491705	244.585180	64.000000	53.000000
244.585180	244.678655	80.000000	47.000000
244.678655	244.865605	83.000000	50.000000
244.678655	244.772130	59.000000	48.000000
244.772130	244.865605	80.000000	47.000000
244.865605	245.050758	83.000000	51.000000
244.865605	244.958182	68.000000	52.000000
244.958182	245.050758	80.000000	47.000000
245.050758	245.235911	83.000000	50.000000
245.050758	245.143335	64.000000	41.000000
245.143335	245.235911	80.000000	47.000000
245.235911	245.421064	83.000000	52.000000
245.235911	245.328488	71.000000	50.000000
245.328488	245.421064	80.000000	47.000000
245.421064	245.606217	83.000000	51.000000
245.421064	245.513641	68.000000	41.000000
245.513641	245.606217	80.000000	47.000000
245.606217	245.792376	83.000000	50.000000
245.606217	245.699196	76.000000	50.000000
245.699196	245.792376	80.000000	47.000000
245.792376	245.978736	83.000000	50.000000
245.792376	245.885556	71.000000	41.000000
245.885556	245.978736	80.000000	47.000000
245.978736	246.165096	83.000000	51.000000
245.978736	246.071916	76.000000	50.000000
246.071916	246.165096	80.000000	47.000000
246.165096	246.351456	83.000000	50.000000
246.165096	246.258276	71.000000	39.000000
246.258276	246.351456	80.000000	47.000000
246.351456	246.538017	83.000000	51.000000
246.351456	246.444636	76.000000	50.000000
246.444636	246.538017	80.000000	47.000000
246.538017	246.725678	83.000000	50.000000
246.538017	246.631693	71.000000	41.000000
246.631693	246.725678	80.000000	47.000000
246.725678	246.914573	83.000000	52.000000
246.725678	246.819971	76.000000	50.000000
246.819971	246.914573	80.000000	47.000000
246.914573	247.104701	83.000000	51.000000
246.914573	247.009483	71.000000	42.000000
247.009483	247.104701	80.000000	47.000000
247.104701	247.198793	75.000000	46.000000
247.198793	247.292268	81.000000	42.000000
247.292268	247.479125	83.000000	45.000000
247.292268	247.385743	71.000000	37.000000
247.385743	247.479125	81.000000	41.000000
247.479125	247.665377	84.000000	44.000000
247.479125	247.572305	75.000000	43.000000
247.572305	247.665377	81.000000	40.000000
247.665377	247.851040	83.000000	42.000000
247.665377	247.758262	71.000000	36.000000
247.758262	247.851040	81.000000	39.000000
247.851040	248.039143	84.000000	42.000000
247.851040	247.945534	75.000000	41.000000
247.945534	248.039143	81.000000	38.000000
248.039143	248.225208	83.000000	40.000000
248.039143	248.131505	71.000000	32.000000
248.131505	248.225208	81.000000	37.000000
248.225208	248.409704	84.000000	40.000000
248.225208	248.318429	75.000000	39.000000
248.318429	248.409704	81.000000	36.000000
248.409704	248.594897	83.000000	39.000000
248.409704	248.502106	71.000000	31.000000
248.502106	248.594897	81.000000	35.000000
248.594897	248.778548	84.000000	37.000000
248.594897	248.685905	75.000000	36.000000
248.685905	248.778548	81.000000	34.000000
248.778548	248.961113	83.000000	36.000000
248.778548	248.869972	71.000000	30.000000
248.869972	248.961113	81.000000	34.000000
248.961113	249.146695	84.000000	37.000000
248.961113	249.054239	75.000000	36.000000
249.054239	249.146695	81.000000	34.000000
249.146695	249.330293	83.000000	36.000000
249.146695	249.237957	71.000000	31.000000
249.237957	249.330293	81.000000	34.000000
249.330293	249.516746	84.000000	37.000000
249.330293	249.423473	75.000000	36.000000
249.423473	249.516746	81.000000	34.000000
249.516746	249.704005	83.000000	36.000000
249.516746	249.610221	71.000000	29.000000
249.610221	249.704005	81.000000	34.000000
249.704005	249.892175	84.000000	38.000000
249.704005	249.797990	75.000000	36.000000
249.797990	249.892175	81.000000	34.000000
249.892175	250.081218	83.000000	37.000000
249.892175	249.986562	71.000000	30.000000
249.986562	250.081218	81.000000	34.000000
250.081218	250.268999	85.000000	37.000000
250.081218	250.143847	75.000000	37.000000
250.143847	250.206075	76.000000	32.000000
250.174800	250.268999	81.000000	34.000000
250.206075	250.268999	75.000000	36.000000
250.268999	250.457089	83.000000	36.000000
250.268999	250.331133	76.000000	31.000000
250.331133	250.394513	75.000000	36.000000
250.362890	250.457089	81.000000	35.000000
250.394513	250.457089	76.000000	33.000000
250.457089	250.645072	85.000000	38.000000
250.457089	250.519692	75.000000	37.000000
250.519692	250.583006	76.000000	33.000000
250.551409	250.645072	81.000000	36.000000
250.583006	250.645072	75.000000	37.000000
250.645072	250.832424	83.000000	38.000000
250.645072	250.707581	76.000000	33.000000
250.707581	250.770358	75.000000	38.000000
250.739151	250.832424	81.000000	36.000000
250.770358	250.832424	76.000000	34.000000
250.832424	251.019857	85.000000	40.000000
250.832424	250.895349	75.000000	38.000000
250.895349	250.957228	76.000000	35.000000
250.926436	251.019857	81.000000	37.000000
250.957228	251.019857	75.000000	39.000000
251.019857	251.206137	83.000000	40.000000
251.019857	251.082433	76.000000	35.000000
251.082433	251.143896	75.000000	39.000000
251.113225	251.206137	81.000000	38.000000
251.143896	251.206137	76.000000	36.000000
251.206137	251.393369	85.000000	43.000000
251.206137	251.269008	75.000000	40.000000
251.269008	251.330886	76.000000	36.000000
251.300095	251.393369	81.000000	39.000000
251.330886	251.393369	75.000000	40.000000
251.393369	251.579165	83.000000	43.000000
251.393369	251.455730	76.000000	36.000000
251.455730	251.517367	75.000000	41.000000
251.486575	251.579165	81.000000	40.000000
251.517367	251.579165	76.000000	37.000000
251.579165	251.764533	90.000000	44.000000
251.579165	251.641071	75.000000	41.000000
251.641071	251.703580	76.000000	36.000000
251.672520	251.764533	83.000000	41.000000
251.672520	251.764533	81.000000	41.000000
251.703580	251.764533	75.000000	42.000000
251.764533	251.950839	90.000000	43.000000
251.764533	251.826653	76.000000	37.000000
251.826653	251.889162	75.000000	42.000000
251.858102	251.950839	83.000000	41.000000
251.858102	251.950839	81.000000	41.000000
251.889162	251.950839	76.000000	37.000000
251.950839	252.137199	90.000000	46.000000
251.950839	252.013415	75.000000	43.000000
252.013415	252.075656	76.000000	38.000000
252.044743	252.137199	83.000000	42.000000
252.044743	252.137199	81.000000	42.000000
252.075656	252.137199	75.000000	43.000000
252.137199	252.322889	90.000000	46.000000
252.137199	252.199681	76.000000	39.000000
252.199681	252.260970	75.000000	44.000000
252.230527	252.322889	83.000000	44.000000
252.230527	252.322889	81.000000	44.000000
252.260970	252.322889	76.000000	39.000000
252.322889	252.509597	90.000000	49.000000
252.322889	252.385411	75.000000	44.000000
252.385411	252.447021	76.000000	38.000000
252.416176	252.509597	83.000000	45.000000
252.416176	252.509597	81.000000	45.000000
252.447021	252.509597	75.000000	45.000000
252.509597	252.695703	90.000000	49.000000
252.509597	252.571302	76.000000	38.000000
252.571302	252.633663	75.000000	45.000000
252.602241	252.695703	83.000000	47.000000
252.602241	252.695703	81.000000	47.000000
252.633663	252.695703	76.000000	40.000000
252.695703	252.882693	90.000000	54.000000
252.695703	252.788601	75.000000	50.000000
252.788601	252.882693	83.000000	48.000000
252.788601	252.882693	81.000000	48.000000
252.788601	252.882693	76.000000	44.000000
252.882693	253.079916	90.000000	53.000000
252.882693	252.979293	73.000000	52.000000
252.979293	253.079916	83.000000	49.000000
252.979293	253.079916	81.000000	49.000000
252.979293	253.079916	75.000000	47.000000
253.079916	254.222202	80.000000	72.000000
253.079916	254.222202	83.000000	72.000000
253.079916	254.222202	88.000000	72.000000
253.079916	256.095552	64.000000	48.000000
253.079916	253.848302	76.000000	57.000000
253.848302	254.596103	68.000000	38.000000
253.848302	254.596103	74.000000	45.000000
253.848302	254.596103	71.000000	38.000000
254.222202	254.315677	88.000000	58.000000
254.315677	254.409152	86.000000	57.000000
254.409152	254.502628	84.000000	56.000000
254.502628	254.596103	83.000000	55.000000
254.596103	254.688692	84.000000	58.000000
254.596103	255.346625	72.000000	47.000000
254.596103	255.346625	69.000000	39.000000
254.688692	254.781282	83.000000	57.000000
254.781282	254.873872	81.000000	56.000000
254.873872	254.966462	80.000000	55.000000
254.966462	255.060219	81.000000	51.000000
255.060219	255.153976	83.000000	52.000000
255.153976	255.247732	84.000000	53.000000
255.247732	255.346625	86.000000	54.000000
255.346625	255.440100	88.000000	56.000000
255.346625	256.095552	74.000000	46.000000
255.346625	256.095552	71.000000	39.000000
255.346625	256.095552	68.000000	39.000000
255.440100	255.533575	89.000000	57.000000
255.533575	255.627050	88.000000	57.000000
255.627050	255.720526	87.000000	56.000000
255.720526	255.814001	88.000000	56.000000
255.814001	255.907677	86.000000	56.000000
255.907677	256.001460	84.000000	56.000000
256.001460	256.095552	83.000000	56.000000
256.095552	256.189738	84.000000	57.000000
256.095552	256.473422	69.000000	40.000000
256.095552	256.473422	72.000000	48.000000
256.189738	256.284125	86.000000	57.000000
256.284125	256.378727	84.000000	57.000000
256.378727	256.473422	83.000000	53.000000
256.473422	256.568426	81.000000	56.000000
256.568426	256.663537	80.000000	52.000000
256.663537	256.758863	81.000000	56.000000
256.758863	256.854189	83.000000	52.000000
256.854189	257.638145	72.000000	45.000000
256.854189	257.243136	84.000000	59.000000
256.854189	257.638145	57.000000	39.000000
256.854189	257.638145	60.000000	39.000000
256.854189	257.638145	66.000000	39.000000
256.854189	257.638145	69.000000	47.000000
257.243136	257.437610	81.000000	52.000000
257.437610	257.638145	78.000000	52.000000
257.638145	258.422813	71.000000	45.000000
257.638145	258.027106	83.000000	57.000000
257.638145	258.422813	59.000000	39.000000
257.638145	258.422813	64.000000	39.000000
257.638145	258.422813	67.000000	46.000000
258.027106	258.221580	79.000000	52.000000
258.221580	258.422813	76.000000	52.000000
258.422813	259.203349	69.000000	45.000000
258.422813	258.813088	81.000000	57.000000
258.422813	259.203349	66.000000	44.000000
258.422813	259.203349	63.000000	37.000000
258.422813	259.203349	59.000000	37.000000
258.813088	259.008219	78.000000	52.000000
259.008219	259.203349	75.000000	52.000000
259.203349	260.349512	76.000000	72.000000
259.203349	259.970958	64.000000	56.000000
259.203349	262.222191	52.000000	45.000000
259.970958	260.723358	62.000000	45.000000
259.970958	260.723358	59.000000	38.000000
259.970958	260.723358	56.000000	38.000000
260.349512	260.442973	76.000000	58.000000
260.442973	260.536435	74.000000	57.000000
260.536435	260.629897	72.000000	56.000000
260.629897	260.723358	71.000000	55.000000
260.723358	260.816820	72.000000	58.000000
260.723358	261.476483	57.000000	39.000000
260.723358	261.476483	60.000000	47.000000
260.816820	260.910282	71.000000	57.000000
260.910282	261.003743	69.000000	56.000000
261.003743	261.097205	68.000000	55.000000
261.097205	261.190666	69.000000	51.000000
261.190666	261.284128	71.000000	52.000000
261.284128	261.377590	72.000000	53.000000
261.377590	261.476483	74.000000	54.000000
261.476483	261.569958	76.000000	56.000000
261.476483	262.222191	62.000000	46.000000
261.476483	262.222191	59.000000	39.000000
261.476483	262.222191	56.000000	39.000000
261.569958	261.663433	77.000000	57.000000
261.663433	261.756908	76.000000	57.000000
261.756908	261.850383	75.000000	56.000000
261.850383	261.942959	76.000000	56.000000
261.942959	262.035737	74.000000	56.000000
262.035737	262.128810	72.000000	56.000000
262.128810	262.222191	71.000000	56.000000
262.222191	262.315867	72.000000	57.000000
262.222191	262.598747	57.000000	48.000000
262.222191	262.598747	60.000000	48.000000
262.315867	262.409852	74.000000	57.000000
262.409852	262.504145	72.000000	57.000000
262.504145	262.598747	71.000000	53.000000
262.598747	262.693657	69.000000	56.000000
262.693657	262.788875	68.000000	52.000000
262.788875	262.884402	69.000000	56.000000
262.884402	262.980251	71.000000	52.000000
262.980251	263.755370	60.000000	45.000000
262.980251	263.361205	72.000000	59.000000
262.980251	263.755370	45.000000	39.000000
262.980251	263.755370	48.000000	39.000000
262.980251	263.755370	54.000000	39.000000
262.980251	263.755370	57.000000	47.000000
263.361205	263.554137	69.000000	52.000000
263.554137	263.755370	66.000000	52.000000
263.755370	264.536027	59.000000	45.000000
263.755370	264.139985	71.000000	57.000000
263.755370	264.536027	47.000000	39.000000
263.755370	264.536027	52.000000	39.000000
263.755370	264.536027	55.000000	46.000000
264.139985	264.334794	67.000000	52.000000
264.334794	264.536027	64.000000	52.000000
264.536027	265.319206	57.000000	45.000000
264.536027	264.924974	69.000000	57.000000
264.536027	265.319206	54.000000	44.000000
264.536027	265.319206	51.000000	37.000000
264.536027	265.319206	47.000000	37.000000
264.924974	265.122090	66.000000	52.000000
265.122090	265.319206	63.000000	52.000000
265.319206	265.517005	64.000000	55.000000
265.319206	265.709306	55.000000	44.000000
265.319206	265.709306	52.000000	37.000000
265.709306	265.906422	76.000000	68.000000
265.709306	266.103538	43.000000	42.000000
265.709306	266.300653	52.000000	51.000000
265.906422	266.103538	74.000000	63.000000
266.103538	266.497769	72.000000	66.000000
266.103538	266.898947	45.000000	42.000000
266.300653	266.497769	53.000000	49.000000
266.497769	266.694885	69.000000	61.000000
266.497769	266.694885	55.000000	51.000000
266.694885	266.898947	65.000000	54.000000
266.694885	266.898947	57.000000	55.000000
266.898947	267.294547	71.000000	51.000000
266.898947	267.690146	59.000000	41.000000
266.898947	268.481344	47.000000	35.000000
266.898947	267.690146	55.000000	35.000000
267.294547	267.492346	67.000000	46.000000
267.492346	267.690146	64.000000	46.000000
267.690146	268.085745	69.000000	51.000000
267.690146	268.481344	54.000000	33.000000
267.690146	268.481344	57.000000	39.000000
268.085745	268.283545	66.000000	46.000000
268.283545	268.481344	63.000000	46.000000
268.481344	268.679144	64.000000	55.000000
268.481344	268.873953	48.000000	37.000000
268.481344	268.873953	52.000000	37.000000
268.481344	268.873953	55.000000	44.000000
268.873953	269.071753	72.000000	67.000000
268.873953	269.269552	40.000000	42.000000
268.873953	269.467352	48.000000	51.000000
269.071753	269.269552	71.000000	63.000000
269.269552	269.665152	69.000000	66.000000
269.269552	270.069200	41.000000	42.000000
269.467352	269.665152	50.000000	49.000000
269.665152	269.862951	65.000000	61.000000
269.665152	269.862951	52.000000	51.000000
269.862951	270.069200	62.000000	54.000000
269.862951	270.069200	53.000000	55.000000
270.069200	270.466154	67.000000	51.000000
270.069200	270.869424	52.000000	35.000000
270.069200	271.672438	43.000000	35.000000
270.069200	270.869424	55.000000	41.000000
270.466154	270.664637	64.000000	46.000000
270.664637	270.869424	60.000000	46.000000
270.869424	271.267746	65.000000	51.000000
270.869424	271.672438	53.000000	39.000000
270.869424	271.672438	50.000000	33.000000
271.267746	271.466913	62.000000	46.000000
271.466913	271.672438	59.000000	46.000000
271.672438	272.071510	60.000000	55.000000
271.672438	272.071510	48.000000	37.000000
271.672438	272.071510	52.000000	44.000000
272.071510	272.269310	77.000000	69.000000
272.071510	272.467110	45.000000	42.000000
272.071510	272.664909	53.000000	51.000000
272.269310	272.467110	76.000000	64.000000
272.467110	272.862709	74.000000	66.000000
272.467110	273.266757	46.000000	42.000000
272.664909	272.862709	55.000000	49.000000
272.862709	273.060508	70.000000	61.000000
272.862709	273.060508	57.000000	51.000000
273.060508	273.266757	67.000000	54.000000
273.060508	273.266757	58.000000	55.000000
273.266757	273.663711	72.000000	51.000000
273.266757	274.066981	60.000000	41.000000
273.266757	274.869995	48.000000	35.000000
273.266757	274.066981	57.000000	35.000000
273.663711	273.862194	69.000000	46.000000
273.862194	274.066981	65.000000	46.000000
274.066981	274.465303	70.000000	51.000000
274.066981	274.869995	55.000000	33.000000
274.066981	274.869995	58.000000	39.000000
274.465303	274.664471	67.000000	46.000000
274.664471	274.869995	64.000000	46.000000
274.869995	275.075519	65.000000	55.000000
274.869995	275.282506	50.000000	37.000000
274.869995	275.282506	53.000000	37.000000
274.869995	275.282506	57.000000	44.000000
275.282506	275.480305	65.000000	68.000000
275.282506	275.678105	33.000000	42.000000
275.282506	275.875904	41.000000	51.000000
275.480305	275.678105	64.000000	63.000000
275.678105	276.073704	62.000000	66.000000
275.678105	276.477752	34.000000	42.000000
275.875904	276.073704	43.000000	49.000000
276.073704	276.271504	58.000000	61.000000
276.073704	276.271504	45.000000	51.000000
276.271504	276.477752	55.000000	54.000000
276.271504	276.477752	46.000000	55.000000
276.477752	276.874706	60.000000	51.000000
276.477752	277.277976	48.000000	41.000000
276.477752	278.080990	36.000000	35.000000
276.477752	277.277976	45.000000	35.000000
276.874706	277.073190	57.000000	46.000000
277.073190	277.277976	53.000000	46.000000
277.277976	277.676298	58.000000	51.000000
277.277976	278.080990	43.000000	33.000000
277.277976	278.080990	46.000000	39.000000
277.676298	277.875466	55.000000	46.000000
277.875466	278.080990	52.000000	46.000000
278.080990	278.174465	45.000000	33.000000
278.080990	278.267940	53.000000	40.000000
278.080990	278.174465	41.000000	28.000000
278.080990	278.174465	29.000000	25.000000
278.267940	278.361415	41.000000	28.000000
278.267940	278.361415	45.000000	33.000000
278.267940	278.361415	36.000000	26.000000
278.267940	278.361415	29.000000	22.000000
278.454890	278.547775	41.000000	28.000000
278.454890	278.547775	45.000000	33.000000
278.454890	278.547775	36.000000	26.000000
278.454890	278.547775	29.000000	22.000000
278.640660	278.733545	41.000000	28.000000
278.640660	278.733545	45.000000	34.000000
278.640660	278.733545	36.000000	27.000000
278.640660	278.733545	29.000000	22.000000
278.826430	278.920053	41.000000	28.000000
278.826430	278.920053	45.000000	34.000000
278.826430	278.920053	36.000000	27.000000
278.826430	278.920053	29.000000	22.000000
279.013836	279.107620	41.000000	28.000000
279.013836	279.107620	45.000000	34.000000
279.013836	279.107620	36.000000	28.000000
279.013836	279.107620	29.000000	23.000000
279.201403	279.294583	41.000000	29.000000
279.201403	279.294583	45.000000	35.000000
279.201403	279.294583	36.000000	28.000000
279.201403	279.294583	29.000000	23.000000
279.387763	279.480943	41.000000	29.000000
279.387763	279.480943	45.000000	35.000000
279.387763	279.480943	36.000000	29.000000
279.387763	279.480943	29.000000	24.000000
279.574123	279.667504	41.000000	30.000000
279.574123	279.667504	45.000000	36.000000
279.574123	279.667504	29.000000	25.000000
279.574123	279.667504	36.000000	30.000000
279.760979	279.854454	41.000000	30.000000
279.760979	279.854454	45.000000	36.000000
279.760979	279.854454	29.000000	22.000000
279.760979	279.854454	36.000000	27.000000
279.947930	280.041110	41.000000	31.000000
279.947930	280.041110	45.000000	37.000000
279.947930	280.041110	29.000000	23.000000
279.947930	280.041110	36.000000	28.000000
280.134290	280.227470	41.000000	32.000000
280.134290	280.227470	45.000000	38.000000
280.134290	280.227470	29.000000	24.000000
280.134290	280.227470	36.000000	29.000000
280.320650	280.414125	41.000000	33.000000
280.320650	280.414125	45.000000	39.000000
280.320650	280.414125	29.000000	25.000000
280.320650	280.414125	36.000000	30.000000
280.507600	280.601075	41.000000	34.000000
280.507600	280.601075	45.000000	40.000000
280.507600	280.601075	29.000000	25.000000
280.507600	280.601075	36.000000	30.000000
280.694550	280.788025	43.000000	34.000000
280.694550	280.788025	47.000000	40.000000
280.694550	280.788025	29.000000	25.000000
280.694550	280.788025	38.000000	30.000000
280.881500	280.974975	43.000000	34.000000
280.881500	280.974975	47.000000	40.000000
280.881500	280.974975	29.000000	25.000000
280.881500	280.974975	38.000000	30.000000
281.068450	281.629300	48.000000	46.000000
281.068450	281.208662	40.000000	25.000000
281.068450	281.208662	43.000000	30.000000
281.255400	281.395613	40.000000	25.000000
281.255400	281.395613	43.000000	30.000000
281.442350	281.582563	40.000000	25.000000
281.442350	281.582563	43.000000	30.000000
281.629300	281.722775	52.000000	40.000000
281.629300	281.769513	40.000000	25.000000
281.629300	281.769513	43.000000	30.000000
281.722775	281.816250	50.000000	40.000000
281.816250	281.909725	48.000000	45.000000
281.816250	281.956463	40.000000	25.000000
281.816250	281.956463	43.000000	30.000000
282.003200	282.143413	40.000000	25.000000
282.003200	282.143413	43.000000	30.000000
282.190150	282.330363	40.000000	25.000000
282.190150	282.330363	43.000000	30.000000
282.377101	282.521028	40.000000	25.000000
282.377101	282.521028	43.000000	30.000000
282.521028	282.568999	78.000000	46.000000
282.568999	283.036375	79.000000	57.000000
282.568999	282.709212	39.000000	25.000000
282.568999	282.709212	43.000000	30.000000
282.755949	282.896162	39.000000	25.000000
282.755949	282.896162	43.000000	30.000000
282.942899	283.083112	39.000000	25.000000
282.942899	283.083112	43.000000	30.000000
283.036375	283.129850	77.000000	48.000000
283.129850	283.223325	75.000000	47.000000
283.129850	283.270062	39.000000	25.000000
283.129850	283.270062	43.000000	30.000000
283.223325	283.316800	74.000000	45.000000
283.316800	283.503750	72.000000	44.000000
283.316800	283.457012	39.000000	25.000000
283.316800	283.457012	43.000000	30.000000
283.503750	283.643962	39.000000	25.000000
283.503750	283.643962	43.000000	30.000000
283.690700	283.830912	39.000000	25.000000
283.690700	283.830912	43.000000	30.000000
283.877650	284.020639	39.000000	25.000000
283.877650	284.020639	43.000000	30.000000
284.068301	284.629152	54.000000	46.000000
284.068301	284.208514	38.000000	25.000000
284.068301	284.208514	45.000000	30.000000
284.255252	284.395464	38.000000	25.000000
284.255252	284.395464	45.000000	30.000000
284.442202	284.582414	38.000000	25.000000
284.442202	284.582414	45.000000	30.000000
284.629152	284.721138	57.000000	40.000000
284.629152	284.767138	38.000000	25.000000
284.629152	284.767138	45.000000	30.000000
284.721138	284.813138	55.000000	40.000000
284.813138	284.908678	54.000000	45.000000
284.813138	284.956448	38.000000	25.000000
284.813138	284.956448	45.000000	30.000000
285.004219	285.147529	38.000000	25.000000
285.004219	285.147529	45.000000	30.000000
285.195299	285.338610	38.000000	25.000000
285.195299	285.338610	45.000000	30.000000
285.386380	285.532963	38.000000	25.000000
285.386380	285.532963	45.000000	30.000000
285.532963	285.581819	86.000000	46.000000
285.581819	286.048001	87.000000	57.000000
285.581819	285.722032	42.000000	25.000000
285.581819	285.722032	50.000000	30.000000
285.768769	285.908982	42.000000	25.000000
285.768769	285.908982	50.000000	30.000000
285.955720	286.094148	42.000000	25.000000
285.955720	286.094148	50.000000	30.000000
286.048001	286.140296	86.000000	48.000000
286.140296	286.232577	84.000000	47.000000
286.140296	286.278725	42.000000	25.000000
286.140296	286.278725	50.000000	30.000000
286.232577	286.324872	82.000000	45.000000
286.324872	286.514732	81.000000	44.000000
286.324872	286.467271	42.000000	25.000000
286.324872	286.467271	50.000000	30.000000
286.514732	286.657131	42.000000	25.000000
286.514732	286.657131	50.000000	30.000000
286.704593	286.846991	42.000000	25.000000
286.704593	286.846991	50.000000	30.000000
286.894453	287.040084	42.000000	25.000000
286.894453	287.040084	50.000000	30.000000
287.088632	287.275582	58.000000	57.000000
287.088632	287.259998	43.000000	30.000000
287.182107	287.275582	50.000000	26.000000
287.275582	287.366992	62.000000	48.000000
287.275582	287.443166	43.000000	30.000000
287.366992	287.458401	60.000000	48.000000
287.366992	287.458401	50.000000	27.000000
287.458401	287.645351	58.000000	51.000000
287.458401	287.629768	43.000000	30.000000
287.551876	287.645351	50.000000	26.000000
287.645351	287.816718	43.000000	30.000000
287.738826	287.832301	50.000000	25.000000
287.832301	287.924288	84.000000	54.000000
287.832301	288.000945	45.000000	31.000000
287.924288	288.016274	82.000000	52.000000
287.924288	288.016274	50.000000	26.000000
288.016274	288.108261	81.000000	50.000000
288.016274	288.184918	45.000000	31.000000
288.108261	288.200247	79.000000	48.000000
288.108261	288.200247	50.000000	27.000000
288.200247	288.387197	78.000000	51.000000
288.200247	288.371614	45.000000	31.000000
288.293722	288.387197	50.000000	28.000000
288.387197	288.558564	45.000000	31.000000
288.480672	288.574147	50.000000	27.000000
288.574147	288.761097	67.000000	57.000000
288.574147	288.745514	46.000000	30.000000
288.667622	288.761097	50.000000	26.000000
288.761097	288.852507	70.000000	48.000000
288.761097	288.928682	46.000000	30.000000
288.852507	288.943917	69.000000	48.000000
288.852507	288.943917	50.000000	27.000000
288.943917	289.130867	67.000000	51.000000
288.943917	289.115283	46.000000	30.000000
289.037392	289.130867	50.000000	26.000000
289.130867	289.307048	46.000000	30.000000
289.224342	289.323584	50.000000	25.000000
289.323584	289.415570	87.000000	54.000000
289.323584	289.492228	42.000000	31.000000
289.415570	289.507557	86.000000	52.000000
289.415570	289.507557	50.000000	26.000000
289.507557	289.599543	84.000000	50.000000
289.507557	289.676201	42.000000	31.000000
289.599543	289.691529	82.000000	48.000000
289.599543	289.691529	50.000000	27.000000
289.691529	289.878480	81.000000	51.000000
289.691529	289.862896	42.000000	31.000000
289.785005	289.878480	50.000000	28.000000
289.878480	290.049846	42.000000	31.000000
289.971955	290.065430	50.000000	27.000000
290.065430	290.252380	58.000000	59.000000
290.065430	290.236796	43.000000	31.000000
290.158905	290.252380	50.000000	27.000000
290.252380	290.343790	62.000000	50.000000
290.252380	290.419964	43.000000	31.000000
290.343790	290.435199	60.000000	51.000000
290.343790	290.435199	50.000000	29.000000
290.435199	290.622149	58.000000	56.000000
290.435199	290.606566	43.000000	32.000000
290.528674	290.622149	50.000000	28.000000
290.622149	290.793516	43.000000	34.000000
290.715624	290.809099	50.000000	29.000000
290.809099	290.901086	84.000000	63.000000
290.809099	290.977743	45.000000	36.000000
290.901086	290.993072	82.000000	63.000000
290.901086	290.993072	50.000000	31.000000
290.993072	291.085059	81.000000	62.000000
290.993072	291.161716	45.000000	38.000000
291.085059	291.177045	79.000000	60.000000
291.085059	291.177045	50.000000	35.000000
291.177045	291.363995	78.000000	64.000000
291.177045	291.348412	45.000000	40.000000
291.270520	291.363995	50.000000	37.000000
291.363995	291.535362	45.000000	43.000000
291.457470	291.550945	50.000000	38.000000
291.550945	291.642932	74.000000	73.000000
291.550945	291.719589	46.000000	45.000000
291.642932	291.734918	72.000000	71.000000
291.642932	291.734918	50.000000	39.000000
291.734918	291.826905	70.000000	71.000000
291.734918	291.903562	46.000000	48.000000
291.826905	291.918891	69.000000	67.000000
291.826905	291.918891	50.000000	42.000000
291.918891	292.114961	67.000000	74.000000
291.918891	292.098626	46.000000	50.000000
292.016926	292.114961	55.000000	46.000000
292.114961	292.304110	46.000000	54.000000
292.215973	292.321732	55.000000	51.000000
292.321732	292.413719	80.000000	87.000000
292.321732	292.490376	47.000000	64.000000
292.413719	292.505705	79.000000	83.000000
292.413719	292.505705	55.000000	53.000000
292.505705	292.597691	77.000000	81.000000
292.505705	292.674349	47.000000	64.000000
292.597691	292.689678	75.000000	78.000000
292.597691	292.689678	55.000000	56.000000
292.689678	292.876628	74.000000	83.000000
292.689678	292.861044	47.000000	66.000000
292.783153	292.876628	55.000000	59.000000
292.876628	293.047994	47.000000	66.000000
292.970103	293.063578	55.000000	57.000000
293.063578	293.250528	63.000000	57.000000
293.063578	293.234944	48.000000	30.000000
293.157053	293.250528	55.000000	26.000000
293.250528	293.341938	67.000000	48.000000
293.250528	293.418113	48.000000	30.000000
293.341938	293.433348	65.000000	48.000000
293.341938	293.433348	55.000000	27.000000
293.433348	293.620298	63.000000	51.000000
293.433348	293.604714	48.000000	30.000000
293.526823	293.620298	55.000000	26.000000
293.620298	293.791664	48.000000	30.000000
293.713773	293.807248	55.000000	25.000000
293.807248	293.899234	77.000000	54.000000
293.807248	293.975892	50.000000	31.000000
293.899234	293.991221	75.000000	52.000000
293.899234	293.991221	55.000000	26.000000
293.991221	294.083207	74.000000	50.000000
293.991221	294.159865	50.000000	31.000000
294.083207	294.175193	72.000000	48.000000
294.083207	294.175193	55.000000	27.000000
294.175193	294.362144	71.000000	51.000000
294.175193	294.346560	50.000000	31.000000
294.268669	294.362144	55.000000	28.000000
294.362144	294.533510	50.000000	31.000000
294.455619	294.549094	55.000000	27.000000
294.549094	294.736044	60.000000	57.000000
294.549094	294.720460	51.000000	30.000000
294.642569	294.736044	55.000000	26.000000
294.736044	294.827453	63.000000	48.000000
294.736044	294.903628	51.000000	30.000000
294.827453	294.918863	62.000000	48.000000
294.827453	294.918863	55.000000	27.000000
294.918863	295.111178	60.000000	51.000000
294.918863	295.095152	51.000000	30.000000
295.015020	295.111178	55.000000	26.000000
295.111178	295.292951	51.000000	30.000000
295.207335	295.310077	55.000000	25.000000
295.310077	295.402063	80.000000	54.000000
295.310077	295.478721	47.000000	31.000000
295.402063	295.494050	79.000000	52.000000
295.402063	295.494050	55.000000	26.000000
295.494050	295.586036	77.000000	50.000000
295.494050	295.662694	47.000000	31.000000
295.586036	295.678023	75.000000	48.000000
295.586036	295.678023	55.000000	27.000000
295.678023	295.864973	74.000000	51.000000
295.678023	295.849389	47.000000	31.000000
295.771498	295.864973	55.000000	28.000000
295.864973	296.036339	47.000000	31.000000
295.958448	296.051923	55.000000	27.000000
296.051923	296.238873	63.000000	59.000000
296.051923	296.223289	48.000000	31.000000
296.145398	296.238873	55.000000	27.000000
296.238873	296.330283	67.000000	50.000000
296.238873	296.406458	48.000000	31.000000
296.330283	296.421693	65.000000	51.000000
296.330283	296.421693	55.000000	29.000000
296.421693	296.608643	63.000000	56.000000
296.421693	296.593059	48.000000	32.000000
296.515168	296.608643	55.000000	28.000000
296.608643	296.780009	48.000000	34.000000
296.702118	296.795593	55.000000	29.000000
296.795593	296.887579	77.000000	63.000000
296.795593	296.964237	50.000000	36.000000
296.887579	296.979566	75.000000	63.000000
296.887579	296.979566	55.000000	31.000000
296.979566	297.071552	74.000000	62.000000
296.979566	297.148210	50.000000	38.000000
297.071552	297.163538	72.000000	60.000000
297.071552	297.163538	55.000000	35.000000
297.163538	297.350488	71.000000	64.000000
297.163538	297.334905	50.000000	40.000000
297.257013	297.350488	55.000000	37.000000
297.350488	297.521855	50.000000	43.000000
297.443963	297.537439	55.000000	38.000000
297.537439	297.629425	79.000000	73.000000
297.537439	297.706083	51.000000	45.000000
297.629425	297.721411	77.000000	71.000000
297.629425	297.721411	55.000000	39.000000
297.721411	297.813398	75.000000	71.000000
297.721411	297.890055	51.000000	48.000000
297.813398	297.905384	74.000000	67.000000
297.813398	297.905384	55.000000	42.000000
297.905384	298.099563	72.000000	74.000000
297.905384	298.083376	51.000000	50.000000
298.002467	298.099563	60.000000	46.000000
298.099563	298.290094	51.000000	54.000000
298.201956	298.307716	60.000000	47.000000
298.307716	298.399702	85.000000	87.000000
298.307716	298.476360	52.000000	64.000000
298.399702	298.491689	84.000000	83.000000
298.399702	298.491689	60.000000	53.000000
298.491689	298.583675	82.000000	81.000000
298.491689	298.660333	52.000000	64.000000
298.583675	298.675661	80.000000	78.000000
298.583675	298.675661	60.000000	56.000000
298.675661	298.862612	79.000000	83.000000
298.675661	298.847028	52.000000	66.000000
298.769137	298.862612	60.000000	59.000000
298.862612	299.090251	52.000000	66.000000
298.956087	299.117086	60.000000	57.000000
299.117086	299.308288	80.000000	48.000000
299.117086	299.212694	53.000000	25.000000
299.212694	299.308288	56.000000	22.000000
299.308288	299.401776	84.000000	40.000000
299.308288	299.401776	60.000000	22.000000
299.401776	299.495265	82.000000	40.000000
299.401776	299.495265	65.000000	22.000000
299.495265	299.686466	80.000000	43.000000
299.495265	299.590872	53.000000	25.000000
299.590872	299.686466	56.000000	22.000000
299.686466	299.782060	60.000000	22.000000
299.782060	299.877654	65.000000	22.000000
299.877654	300.065825	85.000000	48.000000
299.877654	299.971733	53.000000	26.000000
299.971733	300.065825	58.000000	22.000000
300.065825	300.159916	89.000000	40.000000
300.065825	300.159916	61.000000	22.000000
300.159916	300.254008	87.000000	40.000000
300.159916	300.254008	65.000000	22.000000
300.254008	300.445196	85.000000	43.000000
300.254008	300.349602	53.000000	26.000000
300.349602	300.445196	58.000000	23.000000
300.445196	300.540790	61.000000	22.000000
300.540790	300.636384	65.000000	22.000000
300.636384	300.827572	66.000000	40.000000
300.636384	300.731978	52.000000	25.000000
300.731978	300.827572	54.000000	22.000000
300.827572	300.921061	70.000000	34.000000
300.827572	300.921061	58.000000	22.000000
300.921061	301.014549	68.000000	34.000000
300.921061	301.014549	61.000000	22.000000
301.014549	301.205737	66.000000	36.000000
301.014549	301.110143	52.000000	25.000000
301.110143	301.205737	54.000000	22.000000
301.205737	301.301331	58.000000	22.000000
301.301331	301.427449	61.000000	22.000000
301.427449	302.247387	71.000000	40.000000
301.427449	301.521527	51.000000	26.000000
301.521527	301.615619	54.000000	22.000000
301.615619	301.709711	59.000000	22.000000
301.709711	301.803803	63.000000	22.000000
301.803803	301.899397	51.000000	26.000000
301.899397	301.994991	54.000000	23.000000
301.994991	302.090585	59.000000	22.000000
302.090585	302.247387	63.000000	22.000000
302.247387	302.440185	77.000000	48.000000
302.247387	302.343786	51.000000	25.000000
302.343786	302.440185	53.000000	22.000000
302.440185	302.534464	81.000000	40.000000
302.440185	302.534464	57.000000	22.000000
302.534464	302.628744	79.000000	40.000000
302.534464	302.628744	60.000000	22.000000
302.628744	302.821541	77.000000	43.000000
302.628744	302.725143	51.000000	25.000000
302.725143	302.821541	53.000000	22.000000
302.821541	302.917940	57.000000	22.000000
302.917940	303.014339	60.000000	22.000000
303.014339	303.204092	82.000000	48.000000
303.014339	303.109222	49.000000	26.000000
303.109222	303.204092	53.000000	22.000000
303.204092	303.298961	85.000000	40.000000
303.204092	303.298961	58.000000	22.000000
303.298961	303.393831	84.000000	40.000000
303.298961	303.393831	61.000000	22.000000
303.393831	303.586628	82.000000	43.000000
303.393831	303.490230	49.000000	26.000000
303.490230	303.586628	53.000000	23.000000
303.586628	303.683027	58.000000	22.000000
303.683027	303.779426	61.000000	22.000000
303.779426	303.972223	63.000000	40.000000
303.779426	303.875824	49.000000	25.000000
303.875824	303.972223	51.000000	22.000000
303.972223	304.066503	67.000000	34.000000
303.972223	304.066503	55.000000	22.000000
304.066503	304.160782	65.000000	34.000000
304.066503	304.160782	58.000000	22.000000
304.160782	304.353593	63.000000	36.000000
304.160782	304.257195	49.000000	25.000000
304.257195	304.353593	51.000000	22.000000
304.353593	304.449992	55.000000	22.000000
304.449992	304.577169	58.000000	22.000000
304.577169	305.342256	68.000000	40.000000
304.577169	304.672052	48.000000	26.000000
304.672052	304.766922	51.000000	22.000000
304.766922	304.861792	56.000000	22.000000
304.861792	304.956661	60.000000	22.000000
304.956661	305.053060	48.000000	26.000000
305.053060	305.149459	51.000000	23.000000
305.149459	305.245857	56.000000	22.000000
305.245857	305.342256	60.000000	22.000000
305.342256	305.535053	73.000000	48.000000
305.342256	305.438655	47.000000	25.000000
305.438655	305.535053	49.000000	22.000000
305.535053	305.629333	77.000000	40.000000
305.535053	305.629333	53.000000	22.000000
305.629333	305.723613	75.000000	40.000000
305.629333	305.723613	56.000000	22.000000
305.723613	305.916424	73.000000	43.000000
305.723613	305.820025	47.000000	25.000000
305.820025	305.916424	49.000000	22.000000
305.916424	306.012822	53.000000	22.000000
306.012822	306.109221	56.000000	22.000000
306.109221	306.298974	78.000000	48.000000
306.109221	306.204104	46.000000	26.000000
306.204104	306.298974	49.000000	22.000000
306.298974	306.393844	82.000000	40.000000
306.298974	306.393844	54.000000	22.000000
306.393844	306.488713	80.000000	40.000000
306.393844	306.488713	58.000000	22.000000
306.488713	306.681511	78.000000	43.000000
306.488713	306.585112	46.000000	26.000000
306.585112	306.681511	49.000000	23.000000
306.681511	306.777909	54.000000	22.000000
306.777909	306.874308	58.000000	22.000000
306.874308	307.067119	60.000000	42.000000
306.874308	306.970720	46.000000	26.000000
306.970720	307.067119	48.000000	23.000000
307.067119	307.161398	64.000000	35.000000
307.067119	307.161398	52.000000	23.000000
307.161398	307.255678	62.000000	35.000000
307.161398	307.255678	55.000000	23.000000
307.255678	307.448476	60.000000	38.000000
307.255678	307.352077	46.000000	26.000000
307.352077	307.448476	48.000000	23.000000
307.448476	307.544874	52.000000	23.000000
307.544874	307.672051	55.000000	23.000000
307.672051	308.437138	72.000000	42.000000
307.672051	307.766934	44.000000	27.000000
307.766934	307.861804	48.000000	23.000000
307.861804	307.956674	53.000000	23.000000
307.956674	308.051544	56.000000	23.000000
308.051544	308.147942	44.000000	28.000000
308.147942	308.244341	48.000000	25.000000
308.244341	308.340740	53.000000	23.000000
308.340740	308.437138	56.000000	23.000000
308.437138	308.629949	72.000000	59.000000
308.437138	308.533550	43.000000	32.000000
308.533550	308.629949	46.000000	28.000000
308.629949	308.724229	76.000000	52.000000
308.629949	308.724229	52.000000	28.000000
308.724229	308.818509	74.000000	52.000000
308.724229	308.818509	55.000000	29.000000
308.818509	309.011319	72.000000	56.000000
308.818509	308.914921	43.000000	34.000000
308.914921	309.011319	46.000000	29.000000
309.011319	309.107718	52.000000	31.000000
309.107718	309.234895	55.000000	32.000000
309.234895	309.999982	84.000000	69.000000
309.234895	309.329778	41.000000	39.000000
309.329778	309.424648	44.000000	33.000000
309.424648	309.519518	48.000000	33.000000
309.519518	309.614388	53.000000	34.000000
309.614388	309.742919	41.000000	41.000000
309.742919	309.871451	44.000000	35.000000
309.871451	309.999982	53.000000	36.000000
309.999982	310.199136	84.000000	68.000000
309.999982	310.132752	40.000000	44.000000
310.132752	310.264180	43.000000	45.000000
310.199136	310.296702	88.000000	70.000000
310.264180	310.394267	52.000000	47.000000
310.296702	310.394267	86.000000	71.000000
310.394267	310.493509	84.000000	73.000000
310.394267	310.526594	39.000000	47.000000
310.526594	310.658907	43.000000	49.000000
310.592751	310.691993	84.000000	77.000000
310.658907	310.791234	51.000000	51.000000
310.791234	310.890476	84.000000	81.000000
310.791234	310.923561	38.000000	54.000000
310.923561	311.055875	41.000000	53.000000
310.989718	311.188188	84.000000	83.000000
311.055875	311.188188	50.000000	56.000000
311.188188	311.392988	89.000000	86.000000
311.188188	311.324726	37.000000	56.000000
311.324726	311.467299	41.000000	58.000000
311.392988	311.615907	83.000000	90.000000
311.467299	311.615907	49.000000	59.000000
311.615907	312.026567	84.000000	93.000000
311.615907	311.752793	36.000000	66.000000
311.615907	311.752793	48.000000	70.000000
311.752793	311.889680	43.000000	61.000000
311.889680	312.026567	40.000000	62.000000
312.026567	312.857797	67.000000	75.000000
312.026567	312.163453	43.000000	70.000000
312.163453	312.300340	48.000000	63.000000
312.300340	312.441397	52.000000	64.000000
312.441397	312.578794	50.000000	70.000000
312.578794	312.716190	47.000000	63.000000
312.716190	312.857797	43.000000	64.000000
312.857797	313.272132	67.000000	75.000000
312.857797	312.994161	47.000000	70.000000
312.994161	313.130524	50.000000	65.000000
313.130524	313.272132	53.000000	65.000000
313.272132	313.404646	72.000000	82.000000
313.272132	313.404646	52.000000	64.000000
313.404646	313.537161	67.000000	74.000000
313.404646	313.537161	55.000000	56.000000
313.537161	313.669676	64.000000	74.000000
313.537161	313.669676	60.000000	56.000000
313.669676	313.802190	67.000000	82.000000
313.669676	313.802190	55.000000	64.000000
313.802190	313.934705	72.000000	74.000000
313.802190	313.934705	52.000000	57.000000
313.934705	314.073992	76.000000	73.000000
313.934705	314.073992	48.000000	57.000000
314.073992	314.206963	74.000000	82.000000
314.073992	314.206963	53.000000	64.000000
314.206963	314.339933	71.000000	74.000000
314.206963	314.339933	56.000000	56.000000
314.339933	314.472904	68.000000	74.000000
314.339933	314.472904	60.000000	56.000000
314.472904	314.605874	71.000000	82.000000
314.472904	314.605874	56.000000	64.000000
314.605874	314.738845	74.000000	75.000000
314.605874	314.738845	53.000000	57.000000
314.738845	314.877596	77.000000	75.000000
314.738845	314.877596	48.000000	58.000000
314.877596	315.009654	76.000000	82.000000
314.877596	315.405830	55.000000	64.000000
315.009654	315.141713	73.000000	74.000000
315.009654	315.273772	58.000000	56.000000
315.141713	315.273772	70.000000	77.000000
315.141713	318.066168	60.000000	56.000000
315.273772	315.405830	73.000000	82.000000
315.273772	318.066168	58.000000	64.000000
315.405830	315.537889	76.000000	75.000000
315.405830	318.066168	55.000000	57.000000
315.537889	315.685008	79.000000	74.000000
315.537889	318.066168	48.000000	57.000000
315.685008	315.817523	82.000000	82.000000
315.817523	315.950038	76.000000	74.000000
315.950038	316.082552	85.000000	74.000000
316.082552	316.214611	76.000000	82.000000
316.214611	316.346669	73.000000	74.000000
316.346669	316.478728	82.000000	74.000000
316.478728	316.610787	73.000000	82.000000
316.610787	316.742845	70.000000	74.000000
316.742845	316.874904	76.000000	74.000000
316.874904	317.006963	70.000000	78.000000
317.006963	317.139021	64.000000	74.000000
317.139021	317.271080	73.000000	74.000000
317.271080	317.403595	70.000000	77.000000
317.403595	317.536109	64.000000	71.000000
317.536109	317.668624	72.000000	71.000000
317.668624	317.801138	70.000000	76.000000
317.801138	317.933653	64.000000	71.000000
317.933653	318.066168	72.000000	71.000000
318.066168	318.473207	65.000000	67.000000
318.066168	318.473207	69.000000	67.000000
318.066168	318.473207	72.000000	79.000000
318.066168	318.201847	41.000000	66.000000
318.066168	318.201847	53.000000	70.000000
318.201847	318.337527	48.000000	61.000000
318.337527	318.473207	45.000000	62.000000
318.473207	319.297074	72.000000	75.000000
318.473207	318.608873	48.000000	70.000000
318.608873	318.744552	53.000000	63.000000
318.744552	318.884376	57.000000	64.000000
318.884376	319.020552	55.000000	70.000000
319.020552	319.156728	52.000000	63.000000
319.156728	319.297074	48.000000	64.000000
319.297074	319.707748	72.000000	75.000000
319.297074	319.432245	52.000000	70.000000
319.432245	319.567401	55.000000	65.000000
319.567401	319.707748	58.000000	65.000000
319.707748	319.840262	77.000000	82.000000
319.707748	319.840262	57.000000	64.000000
319.840262	319.972777	72.000000	74.000000
319.840262	319.972777	60.000000	56.000000
319.972777	320.105292	69.000000	74.000000
319.972777	320.105292	65.000000	56.000000
320.105292	320.237806	72.000000	82.000000
320.105292	320.237806	60.000000	64.000000
320.237806	320.370321	77.000000	74.000000
320.237806	320.370321	57.000000	57.000000
320.370321	320.509608	81.000000	73.000000
320.370321	320.509608	53.000000	57.000000
320.509608	320.642579	79.000000	82.000000
320.509608	320.642579	58.000000	64.000000
320.642579	320.775549	76.000000	74.000000
320.642579	320.775549	61.000000	56.000000
320.775549	320.908520	73.000000	74.000000
320.775549	320.908520	65.000000	56.000000
320.908520	321.041490	76.000000	82.000000
320.908520	321.041490	61.000000	64.000000
321.041490	321.174461	79.000000	75.000000
321.041490	321.174461	58.000000	57.000000
321.174461	321.313212	82.000000	75.000000
321.174461	321.313212	53.000000	58.000000
321.313212	321.445271	81.000000	82.000000
321.313212	321.841446	60.000000	64.000000
321.445271	321.577329	78.000000	74.000000
321.445271	321.709388	63.000000	56.000000
321.577329	321.709388	75.000000	77.000000
321.577329	324.501784	65.000000	56.000000
321.709388	321.841446	78.000000	82.000000
321.709388	324.501784	63.000000	64.000000
321.841446	321.973505	81.000000	75.000000
321.841446	324.501784	60.000000	57.000000
321.973505	322.120624	84.000000	74.000000
321.973505	324.501784	53.000000	57.000000
322.120624	322.253139	87.000000	82.000000
322.253139	322.385654	81.000000	74.000000
322.385654	322.518168	90.000000	74.000000
322.518168	322.650227	78.000000	82.000000
322.650227	322.782286	75.000000	74.000000
322.782286	322.914344	84.000000	74.000000
322.914344	323.046403	75.000000	82.000000
323.046403	323.178461	72.000000	74.000000
323.178461	323.310520	81.000000	74.000000
323.310520	323.442579	75.000000	78.000000
323.442579	323.574637	69.000000	74.000000
323.574637	323.706696	78.000000	74.000000
323.706696	323.839211	75.000000	77.000000
323.839211	323.971725	69.000000	71.000000
323.971725	324.104240	77.000000	71.000000
324.104240	324.236755	75.000000	76.000000
324.236755	324.369269	69.000000	71.000000
324.369269	324.501784	77.000000	71.000000
324.501784	324.908823	70.000000	67.000000
324.501784	324.908823	74.000000	67.000000
324.501784	324.908823	77.000000	79.000000
324.501784	324.637463	34.000000	66.000000
324.501784	324.637463	46.000000	70.000000
324.637463	324.773143	41.000000	61.000000
324.773143	324.908823	38.000000	62.000000
324.908823	325.732691	65.000000	75.000000
324.908823	325.044489	41.000000	70.000000
325.044489	325.180169	46.000000	63.000000
325.180169	325.319992	50.000000	64.000000
325.319992	325.456168	48.000000	70.000000
325.456168	325.592344	45.000000	63.000000
325.592344	325.732691	41.000000	64.000000
325.732691	326.143364	65.000000	75.000000
325.732691	325.867861	45.000000	70.000000
325.867861	326.003017	48.000000	65.000000
326.003017	326.143364	51.000000	65.000000
326.143364	326.275878	70.000000	82.000000
326.143364	326.275878	50.000000	64.000000
326.275878	326.408393	65.000000	74.000000
326.275878	326.408393	53.000000	56.000000
326.408393	326.540908	62.000000	74.000000
326.408393	326.540908	58.000000	56.000000
326.540908	326.673422	65.000000	82.000000
326.540908	326.673422	53.000000	64.000000
326.673422	326.805937	70.000000	74.000000
326.673422	326.805937	50.000000	57.000000
326.805937	326.945224	74.000000	73.000000
326.805937	326.945224	46.000000	57.000000
326.945224	327.078195	72.000000	82.000000
326.945224	327.078195	51.000000	64.000000
327.078195	327.211165	69.000000	74.000000
327.078195	327.211165	54.000000	56.000000
327.211165	327.344136	66.000000	74.000000
327.211165	327.344136	58.000000	56.000000
327.344136	327.477107	69.000000	82.000000
327.344136	327.477107	54.000000	64.000000
327.477107	327.610077	72.000000	75.000000
327.477107	327.610077	51.000000	57.000000
327.610077	327.748828	75.000000	75.000000
327.610077	327.748828	46.000000	58.000000
327.748828	327.880887	74.000000	82.000000
327.748828	328.277062	53.000000	64.000000
327.880887	328.012945	71.000000	74.000000
327.880887	328.145004	56.000000	56.000000
328.012945	328.145004	68.000000	77.000000
328.012945	330.949403	58.000000	56.000000
328.145004	328.277062	71.000000	82.000000
328.145004	330.949403	56.000000	64.000000
328.277062	328.409121	74.000000	75.000000
328.277062	330.949403	53.000000	57.000000
328.409121	328.556240	77.000000	74.000000
328.409121	330.949403	46.000000	57.000000
328.556240	328.688755	80.000000	82.000000
328.688755	328.821270	74.000000	74.000000
328.821270	328.953784	83.000000	74.000000
328.953784	329.085843	74.000000	82.000000
329.085843	329.217902	71.000000	74.000000
329.217902	329.349960	80.000000	74.000000
329.349960	329.482019	71.000000	82.000000
329.482019	329.614077	68.000000	74.000000
329.614077	329.746136	77.000000	74.000000
329.746136	329.878195	68.000000	78.000000
329.878195	330.010253	65.000000	74.000000
330.010253	330.142312	74.000000	74.000000
330.142312	330.274827	68.000000	77.000000
330.274827	330.407341	62.000000	71.000000
330.407341	330.539856	71.000000	71.000000
330.539856	330.672371	68.000000	76.000000
330.672371	330.804885	62.000000	71.000000
330.804885	330.949403	70.000000	71.000000
330.949403	331.081461	78.000000	82.000000
330.949403	331.477637	51.000000	64.000000
331.081461	331.213520	75.000000	74.000000
331.081461	331.345579	54.000000	56.000000
331.213520	331.345579	70.000000	77.000000
331.213520	334.136017	58.000000	56.000000
331.345579	331.477637	75.000000	82.000000
331.345579	334.136017	54.000000	64.000000
331.477637	331.609696	78.000000	75.000000
331.477637	334.136017	51.000000	57.000000
331.609696	331.741755	82.000000	74.000000
331.609696	334.136017	46.000000	57.000000
331.741755	331.874269	78.000000	82.000000
331.874269	332.006784	75.000000	74.000000
332.006784	332.139298	87.000000	74.000000
332.139298	332.271357	75.000000	82.000000
332.271357	332.403416	70.000000	74.000000
332.403416	332.535474	82.000000	74.000000
332.535474	332.667533	70.000000	82.000000
332.667533	332.799592	66.000000	74.000000
332.799592	332.931650	78.000000	74.000000
332.931650	333.063709	66.000000	78.000000
333.063709	333.195768	63.000000	74.000000
333.195768	333.327826	75.000000	74.000000
333.327826	333.460341	66.000000	77.000000
333.460341	333.592856	63.000000	71.000000
333.592856	333.725370	75.000000	71.000000
333.725370	333.857885	66.000000	76.000000
333.857885	333.990399	63.000000	71.000000
333.990399	334.136017	75.000000	71.000000
334.136017	334.268075	78.000000	82.000000
334.136017	334.664251	49.000000	64.000000
334.268075	334.400134	76.000000	74.000000
334.268075	334.532193	54.000000	56.000000
334.400134	334.532193	73.000000	77.000000
334.400134	337.322631	58.000000	56.000000
334.532193	334.664251	76.000000	82.000000
334.532193	337.322631	54.000000	64.000000
334.664251	334.796310	78.000000	75.000000
334.664251	337.322631	49.000000	57.000000
334.796310	334.928368	85.000000	74.000000
334.796310	337.322631	46.000000	57.000000
334.928368	335.060883	78.000000	82.000000
335.060883	335.193398	76.000000	74.000000
335.193398	335.325912	88.000000	74.000000
335.325912	335.457971	76.000000	82.000000
335.457971	335.590030	73.000000	74.000000
335.590030	335.722088	85.000000	74.000000
335.722088	335.854147	73.000000	82.000000
335.854147	335.986206	66.000000	74.000000
335.986206	336.118264	78.000000	74.000000
336.118264	336.250323	66.000000	78.000000
336.250323	336.382382	64.000000	74.000000
336.382382	336.514440	76.000000	74.000000
336.514440	336.646955	66.000000	77.000000
336.646955	336.779469	64.000000	71.000000
336.779469	336.911984	76.000000	71.000000
336.911984	337.044499	66.000000	76.000000
337.044499	337.177013	64.000000	71.000000
337.177013	337.322631	76.000000	71.000000
337.322631	337.454689	78.000000	82.000000
337.322631	337.850865	50.000000	64.000000
337.454689	337.586748	74.000000	74.000000
337.454689	337.718806	54.000000	56.000000
337.586748	337.718806	71.000000	77.000000
337.586748	340.509244	59.000000	56.000000
337.718806	337.850865	74.000000	82.000000
337.718806	340.509244	54.000000	64.000000
337.850865	337.982924	78.000000	75.000000
337.850865	340.509244	50.000000	57.000000
337.982924	338.114982	83.000000	74.000000
337.982924	340.509244	47.000000	57.000000
338.114982	338.247497	78.000000	82.000000
338.247497	338.380012	74.000000	74.000000
338.380012	338.512526	86.000000	74.000000
338.512526	338.644585	74.000000	82.000000
338.644585	338.776644	71.000000	74.000000
338.776644	338.908702	83.000000	74.000000
338.908702	339.040761	71.000000	82.000000
339.040761	339.172819	66.000000	74.000000
339.172819	339.304878	78.000000	74.000000
339.304878	339.436937	66.000000	78.000000
339.436937	339.568995	62.000000	74.000000
339.568995	339.701054	74.000000	74.000000
339.701054	339.833569	66.000000	77.000000
339.833569	339.966083	62.000000	71.000000
339.966083	340.098598	74.000000	71.000000
340.098598	340.231113	66.000000	76.000000
340.231113	340.363627	62.000000	71.000000
340.363627	340.509244	74.000000	71.000000
340.509244	340.641303	79.000000	82.000000
340.509244	341.037479	50.000000	64.000000
340.641303	340.773362	74.000000	74.000000
340.641303	340.905420	55.000000	56.000000
340.773362	340.905420	71.000000	77.000000
340.773362	343.695858	59.000000	56.000000
340.905420	341.037479	74.000000	82.000000
340.905420	343.695858	55.000000	64.000000
341.037479	341.169538	79.000000	75.000000
341.037479	343.695858	50.000000	57.000000
341.169538	341.301596	83.000000	74.000000
341.169538	343.695858	47.000000	57.000000
341.301596	341.434111	79.000000	82.000000
341.434111	341.566626	74.000000	74.000000
341.566626	341.699140	86.000000	74.000000
341.699140	341.831199	74.000000	82.000000
341.831199	341.963257	71.000000	74.000000
341.963257	342.095316	83.000000	74.000000
342.095316	342.227375	71.000000	82.000000
342.227375	342.359433	67.000000	74.000000
342.359433	342.491492	79.000000	74.000000
342.491492	342.623551	67.000000	78.000000
342.623551	342.755609	65.000000	74.000000
342.755609	342.887668	77.000000	74.000000
342.887668	343.020183	67.000000	77.000000
343.020183	343.152697	62.000000	71.000000
343.152697	343.285212	74.000000	71.000000
343.285212	343.417726	67.000000	76.000000
343.417726	343.550241	62.000000	71.000000
343.550241	343.695858	74.000000	71.000000
343.695858	343.827917	84.000000	82.000000
343.695858	344.224093	51.000000	64.000000
343.827917	343.959976	79.000000	74.000000
343.827917	344.092034	55.000000	56.000000
343.959976	344.092034	75.000000	77.000000
343.959976	346.882472	60.000000	56.000000
344.092034	344.224093	79.000000	82.000000
344.092034	346.882472	55.000000	64.000000
344.224093	344.356152	84.000000	75.000000
344.224093	346.882472	51.000000	57.000000
344.356152	344.488210	87.000000	74.000000
344.356152	346.882472	48.000000	57.000000
344.488210	344.620725	79.000000	82.000000
344.620725	344.753239	75.000000	74.000000
344.753239	344.885754	87.000000	74.000000
344.885754	345.017813	75.000000	82.000000
345.017813	345.149871	72.000000	74.000000
345.149871	345.281930	84.000000	74.000000
345.281930	345.413989	72.000000	82.000000
345.413989	345.546047	67.000000	74.000000
345.546047	345.678106	79.000000	74.000000
345.678106	345.810165	67.000000	78.000000
345.810165	345.942223	63.000000	74.000000
345.942223	346.074282	75.000000	74.000000
346.074282	346.206797	67.000000	77.000000
346.206797	346.339311	63.000000	71.000000
346.339311	346.471826	75.000000	71.000000
346.471826	346.604340	67.000000	76.000000
346.604340	346.736855	63.000000	71.000000
346.736855	346.882472	75.000000	71.000000
346.882472	347.014531	77.000000	82.000000
346.882472	347.410707	56.000000	64.000000
347.014531	347.146590	73.000000	74.000000
347.014531	347.278648	61.000000	56.000000
347.146590	347.278648	68.000000	77.000000
347.146590	348.468544	65.000000	56.000000
347.278648	347.410707	73.000000	82.000000
347.278648	348.468544	61.000000	64.000000
347.410707	347.542765	77.000000	75.000000
347.410707	348.468544	56.000000	57.000000
347.542765	347.674824	80.000000	74.000000
347.542765	348.468544	53.000000	57.000000
347.674824	347.807339	77.000000	82.000000
347.807339	347.939853	73.000000	74.000000
347.939853	348.072368	68.000000	74.000000
348.072368	348.204427	77.000000	82.000000
348.204427	348.336485	73.000000	74.000000
348.336485	348.468544	68.000000	74.000000
348.468544	348.600603	75.000000	82.000000
348.468544	348.996779	60.000000	64.000000
348.600603	348.732661	72.000000	74.000000
348.600603	348.864720	63.000000	56.000000
348.732661	348.864720	69.000000	77.000000
348.732661	350.054616	66.000000	56.000000
348.864720	348.996779	72.000000	82.000000
348.864720	349.260896	63.000000	64.000000
348.996779	349.128837	75.000000	75.000000
348.996779	350.054616	60.000000	57.000000
349.128837	349.260896	81.000000	74.000000
349.128837	350.054616	54.000000	57.000000
349.260896	349.393410	75.000000	82.000000
349.393410	349.525925	72.000000	74.000000
349.525925	349.658440	69.000000	74.000000
349.658440	349.790498	75.000000	82.000000
349.790498	349.922557	72.000000	74.000000
349.922557	350.054616	69.000000	74.000000
350.054616	350.581335	59.000000	70.000000
350.186674	350.450617	62.000000	61.000000
350.318733	351.107799	67.000000	61.000000
350.450617	350.581335	71.000000	83.000000
350.450617	351.266036	62.000000	70.000000
350.581335	350.712052	74.000000	72.000000
350.581335	351.266036	59.000000	62.000000
350.712052	350.842770	79.000000	72.000000
350.712052	352.079363	55.000000	62.000000
350.842770	350.975284	74.000000	83.000000
350.975284	351.107799	71.000000	71.000000
351.107799	351.266036	67.000000	70.000000
351.266036	351.398081	77.000000	58.000000
351.266036	351.673021	62.000000	36.000000
351.398081	351.530140	71.000000	47.000000
351.530140	351.673021	67.000000	47.000000
351.673021	351.805536	77.000000	55.000000
351.673021	352.079363	59.000000	41.000000
351.805536	351.938051	74.000000	47.000000
351.938051	352.079363	67.000000	47.000000
352.079363	352.211877	75.000000	55.000000
352.079363	353.321119	55.000000	36.000000
352.211877	352.344392	74.000000	47.000000
352.344392	352.485704	67.000000	47.000000
352.485704	352.618219	75.000000	55.000000
352.485704	352.891013	60.000000	36.000000
352.618219	352.750734	72.000000	48.000000
352.750734	352.891013	67.000000	48.000000
352.891013	353.023528	74.000000	55.000000
352.891013	353.321119	66.000000	36.000000
353.023528	353.156043	72.000000	47.000000
353.156043	353.321119	69.000000	47.000000
353.321119	353.847838	47.000000	62.000000
353.453178	353.717121	50.000000	55.000000
353.585236	354.374303	55.000000	55.000000
353.717121	353.847838	59.000000	78.000000
353.717121	354.532540	50.000000	62.000000
353.847838	353.978556	62.000000	71.000000
353.847838	354.532540	47.000000	56.000000
353.978556	354.109273	67.000000	71.000000
353.978556	355.345880	43.000000	56.000000
354.109273	354.241788	62.000000	74.000000
354.241788	354.374303	59.000000	63.000000
354.374303	354.532540	55.000000	62.000000
354.532540	354.664598	65.000000	52.000000
354.532540	354.939538	50.000000	32.000000
354.664598	354.796657	59.000000	42.000000
354.796657	354.939538	55.000000	42.000000
354.939538	355.072053	65.000000	49.000000
354.939538	355.345880	47.000000	36.000000
355.072053	355.204568	62.000000	42.000000
355.204568	355.345880	55.000000	42.000000
355.345880	355.478394	63.000000	49.000000
355.345880	356.760585	43.000000	32.000000
355.478394	355.610909	62.000000	42.000000
355.610909	355.752221	55.000000	42.000000
355.752221	355.884736	63.000000	49.000000
355.752221	356.157530	48.000000	32.000000
355.884736	356.017251	60.000000	43.000000
356.017251	356.157530	55.000000	43.000000
356.157530	356.290045	62.000000	49.000000
356.157530	356.561820	54.000000	32.000000
356.290045	356.422559	60.000000	42.000000
356.422559	356.561820	57.000000	42.000000
356.561820	356.694334	62.000000	49.000000
356.561820	356.760585	55.000000	36.000000
356.694334	356.826836	59.000000	42.000000
356.826836	356.968148	55.000000	42.000000
356.968148	357.101588	60.000000	49.000000
356.968148	357.377909	48.000000	32.000000
357.101588	357.235028	55.000000	42.000000
357.235028	357.377909	51.000000	41.000000
357.377909	357.512275	59.000000	48.000000
357.377909	357.789521	43.000000	31.000000
357.512275	357.646640	55.000000	41.000000
357.646640	357.789521	50.000000	41.000000
357.789521	357.924839	57.000000	46.000000
357.789521	358.203588	36.000000	30.000000
357.924839	358.060156	51.000000	39.000000
358.060156	358.203588	48.000000	39.000000
358.203588	358.339871	55.000000	45.000000
358.203588	358.620671	31.000000	33.000000
358.339871	358.476154	50.000000	38.000000
358.476154	358.620671	47.000000	37.000000
358.620671	358.758430	54.000000	43.000000
358.620671	359.041242	36.000000	28.000000
358.758430	358.896188	51.000000	36.000000
358.896188	359.041242	45.000000	36.000000
359.041242	359.179483	55.000000	42.000000
359.041242	359.462792	31.000000	27.000000
359.179483	359.317738	50.000000	36.000000
359.317738	359.462792	47.000000	36.000000
359.462792	359.602562	54.000000	40.000000
359.462792	359.889062	36.000000	26.000000
359.602562	359.742332	51.000000	34.000000
359.742332	359.889062	45.000000	34.000000
359.889062	361.594063	47.000000	38.000000
359.889062	361.594063	50.000000	38.000000
359.889062	361.594063	55.000000	45.000000
359.889062	359.988988	31.000000	37.000000
359.988988	360.088914	36.000000	33.000000
360.088914	360.188839	35.000000	33.000000
360.188839	360.288765	33.000000	33.000000
360.288765	360.388691	31.000000	37.000000
360.388691	360.488617	36.000000	33.000000
360.488617	360.588542	35.000000	33.000000
360.588542	360.688468	33.000000	33.000000
360.688468	360.788394	31.000000	37.000000
360.788394	360.888320	36.000000	33.000000
360.888320	360.988245	35.000000	33.000000
360.988245	361.088171	33.000000	33.000000
361.088171	361.188097	31.000000	37.000000
361.188097	361.288023	36.000000	33.000000
361.288023	361.387948	35.000000	33.000000
361.387948	361.487137	33.000000	33.000000
361.487137	363.200667	31.000000	33.000000
361.594063	361.693989	50.000000	40.000000
361.693989	361.793915	52.000000	40.000000
361.793915	361.893840	54.000000	40.000000
361.893840	361.993766	55.000000	45.000000
361.993766	362.093692	50.000000	40.000000
362.093692	362.193618	52.000000	40.000000
362.193618	362.293543	54.000000	40.000000
362.293543	362.393469	55.000000	45.000000
362.393469	362.493395	50.000000	40.000000
362.493395	362.593321	52.000000	40.000000
362.593321	362.693246	54.000000	40.000000
362.693246	362.793172	55.000000	46.000000
362.793172	362.893098	50.000000	40.000000
362.893098	362.993024	52.000000	40.000000
362.993024	363.092949	54.000000	40.000000
363.092949	364.806480	55.000000	45.000000
363.200667	363.300593	36.000000	33.000000
363.300593	363.400519	35.000000	33.000000
363.400519	363.500444	33.000000	33.000000
363.500444	363.600370	31.000000	37.000000
363.600370	363.700296	36.000000	33.000000
363.700296	363.800222	35.000000	33.000000
363.800222	363.900147	33.000000	33.000000
363.900147	364.000073	31.000000	37.000000
364.000073	364.099999	36.000000	33.000000
364.099999	364.199925	35.000000	33.000000
364.199925	364.299850	33.000000	33.000000
364.299850	364.399776	31.000000	37.000000
364.399776	364.499702	36.000000	33.000000
364.499702	364.599628	35.000000	33.000000
364.599628	364.699553	33.000000	33.000000
364.699553	366.405292	31.000000	33.000000
364.806480	364.906406	54.000000	40.000000
364.906406	365.006331	55.000000	40.000000
365.006331	365.106257	57.000000	40.000000
365.106257	365.206183	59.000000	45.000000
365.206183	365.306109	54.000000	40.000000
365.306109	365.406034	55.000000	40.000000
365.406034	365.505960	57.000000	40.000000
365.505960	365.605886	59.000000	45.000000
365.605886	365.705812	54.000000	40.000000
365.705812	365.805737	55.000000	40.000000
365.805737	365.905663	57.000000	40.000000
365.905663	366.005589	59.000000	46.000000
366.005589	366.105515	54.000000	40.000000
366.105515	366.205440	55.000000	40.000000
366.205440	366.305366	57.000000	40.000000
366.305366	366.505218	59.000000	45.000000
366.405292	366.505218	36.000000	33.000000
366.505218	366.605143	35.000000	33.000000
366.605143	366.705069	33.000000	33.000000
366.705069	366.804995	31.000000	37.000000
366.804995	366.904921	36.000000	33.000000
366.904921	367.004847	59.000000	41.000000
366.904921	367.004847	35.000000	33.000000
367.004847	367.104772	60.000000	44.000000
367.004847	367.104772	33.000000	33.000000
367.104772	367.204698	62.000000	48.000000
367.104772	367.204698	31.000000	38.000000
367.204698	367.304624	36.000000	33.000000
367.304624	367.404550	35.000000	34.000000
367.404550	367.504475	33.000000	34.000000
367.504475	367.604401	31.000000	38.000000
367.604401	367.704327	36.000000	34.000000
367.704327	367.770940	62.000000	45.000000
367.704327	367.804253	35.000000	34.000000
367.770940	367.837566	64.000000	47.000000
367.804253	367.904178	33.000000	34.000000
367.837566	367.904178	66.000000	48.000000
367.904178	368.102662	67.000000	53.000000
367.904178	368.003420	31.000000	39.000000
368.003420	368.102662	36.000000	35.000000
368.102662	368.201904	35.000000	35.000000
368.201904	368.301146	33.000000	35.000000
368.301146	368.400387	31.000000	39.000000
368.400387	368.499629	36.000000	35.000000
368.499629	368.595585	67.000000	51.000000
368.499629	368.595585	35.000000	35.000000
368.595585	368.691541	69.000000	51.000000
368.595585	368.691541	33.000000	35.000000
368.691541	368.790783	71.000000	55.000000
368.691541	368.790783	31.000000	40.000000
368.790783	368.890025	36.000000	36.000000
368.890025	368.985981	71.000000	51.000000
368.890025	368.985981	35.000000	36.000000
368.985981	369.081937	72.000000	52.000000
368.985981	369.081937	33.000000	36.000000
369.081937	369.181179	74.000000	55.000000
369.081937	369.181179	31.000000	40.000000
369.181179	369.280421	36.000000	36.000000
369.280421	369.344391	74.000000	52.000000
369.280421	369.376377	35.000000	36.000000
369.344391	369.408362	76.000000	54.000000
369.376377	369.472333	33.000000	36.000000
369.408362	369.472333	78.000000	56.000000
369.472333	369.670816	79.000000	58.000000
369.472333	369.571575	31.000000	41.000000
369.571575	369.670816	36.000000	36.000000
369.670816	369.770058	35.000000	37.000000
369.770058	369.869300	33.000000	37.000000
369.869300	369.968542	31.000000	42.000000
369.968542	370.067784	36.000000	37.000000
370.067784	370.131339	62.000000	50.000000
370.067784	370.163109	35.000000	37.000000
370.131339	370.194880	64.000000	53.000000
370.163109	370.258435	33.000000	37.000000
370.194880	370.258435	66.000000	55.000000
370.258435	370.456919	67.000000	58.000000
370.258435	370.357677	31.000000	42.000000
370.357677	370.456919	36.000000	38.000000
370.456919	370.556161	35.000000	38.000000
370.556161	370.655402	33.000000	38.000000
370.655402	370.754644	31.000000	44.000000
370.754644	370.853886	36.000000	38.000000
370.853886	370.948581	67.000000	55.000000
370.853886	370.948581	35.000000	38.000000
370.948581	371.043277	69.000000	59.000000
370.948581	371.043277	33.000000	38.000000
371.043277	371.141835	71.000000	63.000000
371.043277	371.141835	31.000000	44.000000
371.141835	371.240393	36.000000	39.000000
371.240393	371.338950	35.000000	39.000000
371.338950	371.437508	33.000000	39.000000
371.437508	371.536066	31.000000	45.000000
371.536066	371.634624	36.000000	39.000000
371.634624	371.729011	71.000000	57.000000
371.634624	371.729011	35.000000	39.000000
371.729011	371.823398	72.000000	58.000000
371.729011	371.823398	33.000000	39.000000
371.823398	371.921956	74.000000	63.000000
371.823398	371.921956	31.000000	45.000000
371.921956	372.020514	36.000000	39.000000
372.020514	372.083438	74.000000	58.000000
372.020514	372.114901	35.000000	40.000000
372.083438	372.146363	76.000000	60.000000
372.114901	372.209288	33.000000	40.000000
372.146363	372.209288	78.000000	63.000000
372.209288	372.307524	79.000000	66.000000
372.209288	372.307524	31.000000	46.000000
372.307524	372.405760	36.000000	40.000000
372.405760	372.499851	79.000000	65.000000
372.405760	372.499851	35.000000	40.000000
372.499851	372.593943	81.000000	68.000000
372.499851	372.593943	33.000000	40.000000
372.593943	372.692179	83.000000	70.000000
372.593943	372.692179	31.000000	46.000000
372.692179	372.790415	36.000000	41.000000
372.790415	372.888651	35.000000	41.000000
372.888651	372.986887	33.000000	41.000000
372.986887	373.085123	31.000000	47.000000
373.085123	373.183359	36.000000	41.000000
373.183359	373.245479	74.000000	65.000000
373.183359	373.276539	35.000000	41.000000
373.245479	373.307599	76.000000	68.000000
373.276539	373.369719	33.000000	41.000000
373.307599	373.369719	78.000000	69.000000
373.369719	373.467955	79.000000	71.000000
373.369719	373.467955	31.000000	48.000000
373.467955	373.566191	36.000000	42.000000
373.566191	373.664427	35.000000	42.000000
373.664427	373.762663	33.000000	42.000000
373.762663	373.860899	31.000000	48.000000
373.860899	373.959135	36.000000	42.000000
373.959135	374.051712	79.000000	66.000000
373.959135	374.051712	35.000000	42.000000
374.051712	374.144288	81.000000	68.000000
374.051712	374.144288	33.000000	42.000000
374.144288	374.242524	83.000000	73.000000
374.144288	374.242524	31.000000	49.000000
374.242524	374.340760	36.000000	42.000000
374.340760	374.438996	35.000000	44.000000
374.438996	374.537232	33.000000	44.000000
374.537232	374.634154	31.000000	49.000000
374.634154	374.731075	36.000000	44.000000
374.731075	374.822485	79.000000	68.000000
374.731075	374.822485	35.000000	44.000000
374.822485	374.913895	81.000000	72.000000
374.822485	374.913895	33.000000	44.000000
374.913895	375.010816	83.000000	76.000000
374.913895	375.010816	31.000000	50.000000
375.010816	375.107738	36.000000	45.000000
375.107738	375.198866	83.000000	68.000000
375.107738	375.198866	35.000000	45.000000
375.198866	375.289994	84.000000	71.000000
375.198866	375.289994	33.000000	45.000000
375.289994	375.386594	86.000000	75.000000
375.289994	375.386594	31.000000	50.000000
375.386594	375.483194	36.000000	45.000000
375.483194	375.573745	86.000000	70.000000
375.483194	375.573745	35.000000	45.000000
375.573745	375.664297	88.000000	75.000000
375.573745	375.664297	33.000000	45.000000
375.664297	375.760897	89.000000	79.000000
375.664297	375.760897	31.000000	51.000000
375.760897	375.857497	36.000000	46.000000
375.857497	375.954096	35.000000	46.000000
375.954096	376.050696	33.000000	46.000000
376.050696	376.146652	31.000000	52.000000
376.146652	376.242608	36.000000	47.000000
376.242608	376.333160	86.000000	77.000000
376.242608	376.333160	35.000000	48.000000
376.333160	376.423711	88.000000	82.000000
376.333160	376.423711	33.000000	48.000000
376.423711	376.519037	89.000000	86.000000
376.423711	376.519037	31.000000	54.000000
376.519037	376.614363	37.000000	49.000000
376.614363	376.709689	35.000000	49.000000
376.709689	376.805014	33.000000	50.000000
376.805014	376.900340	31.000000	56.000000
376.900340	376.995666	37.000000	51.000000
376.995666	377.086217	86.000000	79.000000
376.995666	377.086217	35.000000	51.000000
377.086217	377.176769	88.000000	84.000000
377.086217	377.176769	33.000000	51.000000
377.176769	377.271773	89.000000	88.000000
377.176769	377.287611	31.000000	57.000000
377.271773	377.381837	38.000000	52.000000
377.366790	377.457060	86.000000	79.000000
377.366790	377.472107	35.000000	52.000000
377.457060	377.547330	88.000000	84.000000
377.457060	377.563168	33.000000	53.000000
377.547330	377.642347	89.000000	88.000000
377.547330	377.658185	31.000000	59.000000
377.642347	377.752452	38.000000	54.000000
377.737364	377.827916	86.000000	81.000000
377.737364	377.843003	35.000000	54.000000
377.827916	377.918467	88.000000	85.000000
377.827916	377.934306	33.000000	54.000000
377.918467	378.013484	89.000000	89.000000
377.918467	378.029323	31.000000	61.000000
378.013484	378.123589	38.000000	55.000000
378.108502	378.199053	86.000000	81.000000
378.108502	378.214141	35.000000	56.000000
378.199053	378.289605	88.000000	86.000000
378.199053	378.305443	33.000000	56.000000
378.289605	378.384622	89.000000	92.000000
378.289605	378.400460	31.000000	63.000000
378.384622	378.494686	38.000000	57.000000
378.479639	378.569909	86.000000	85.000000
378.479639	378.584956	35.000000	57.000000
378.569909	378.660179	88.000000	91.000000
378.569909	378.675226	33.000000	57.000000
378.660179	378.765536	89.000000	96.000000
378.660179	378.765536	31.000000	67.000000
378.750449	378.856235	88.000000	94.000000
378.750449	378.856235	33.000000	66.000000
378.841094	378.947216	86.000000	92.000000
378.841094	378.947216	35.000000	65.000000
378.932034	379.038585	84.000000	91.000000
378.932034	379.038585	36.000000	63.000000
379.023350	379.130290	83.000000	89.000000
379.023350	379.130290	38.000000	62.000000
379.114961	379.222330	84.000000	91.000000
379.114961	379.222330	36.000000	63.000000
379.206947	379.314772	86.000000	92.000000
379.206947	379.314772	35.000000	64.000000
379.299336	379.407496	88.000000	93.000000
379.299336	379.407496	33.000000	66.000000
379.392020	379.500623	89.000000	96.000000
379.392020	379.500623	31.000000	66.000000
379.485093	379.593642	88.000000	95.000000
379.485093	379.593642	33.000000	65.000000
379.578165	379.686379	86.000000	94.000000
379.578165	379.686379	35.000000	64.000000
379.670943	379.778808	84.000000	93.000000
379.670943	379.778808	36.000000	64.000000
379.763426	379.870942	83.000000	93.000000
379.763426	379.870942	38.000000	61.000000
379.855613	379.962794	84.000000	93.000000
379.855613	379.962794	36.000000	63.000000
379.947506	380.054499	86.000000	95.000000
379.947506	380.054499	35.000000	65.000000
380.039211	380.146057	88.000000	97.000000
380.039211	380.146057	33.000000	67.000000
380.130822	380.329131	89.000000	99.000000
380.130822	380.329131	31.000000	69.000000
380.313842	380.420876	88.000000	97.000000
380.313842	380.420876	33.000000	66.000000
380.405547	380.512862	86.000000	96.000000
380.405547	380.512862	35.000000	65.000000
380.497533	380.604996	84.000000	95.000000
380.497533	380.604996	36.000000	64.000000
380.589614	380.697278	83.000000	93.000000
380.589614	380.697278	38.000000	63.000000
380.681895	380.789814	81.000000	92.000000
380.681895	380.789814	40.000000	63.000000
380.774378	380.882699	79.000000	91.000000
380.774378	380.882699	41.000000	62.000000
380.867169	380.975879	77.000000	90.000000
380.867169	380.975879	43.000000	61.000000
380.960349	381.069206	76.000000	88.000000
380.960349	381.069206	45.000000	60.000000
381.053623	381.162681	74.000000	87.000000
381.053623	381.162681	47.000000	59.000000
381.147098	381.256398	72.000000	86.000000
381.147098	381.256398	48.000000	58.000000
381.240774	381.350222	71.000000	85.000000
381.240774	381.350222	50.000000	57.000000
381.334544	381.444300	69.000000	83.000000
381.334544	381.444300	52.000000	56.000000
381.428623	381.538540	67.000000	82.000000
381.428623	381.538540	53.000000	55.000000
381.522808	381.632779	65.000000	81.000000
381.522808	381.632779	55.000000	55.000000
381.617195	381.804146	64.000000	80.000000
381.617195	381.804146	48.000000	54.000000
381.804146	381.944358	48.000000	28.000000
381.804146	381.944358	52.000000	33.000000
381.804146	381.944358	43.000000	26.000000
381.804146	381.944358	36.000000	22.000000
381.991096	382.130410	48.000000	28.000000
381.991096	382.130410	52.000000	33.000000
381.991096	382.130410	43.000000	26.000000
381.991096	382.130410	36.000000	22.000000
382.176852	382.316166	48.000000	28.000000
382.176852	382.316166	52.000000	34.000000
382.176852	382.316166	43.000000	27.000000
382.176852	382.316166	36.000000	22.000000
382.362609	382.503130	48.000000	28.000000
382.362609	382.503130	52.000000	34.000000
382.362609	382.503130	43.000000	27.000000
382.362609	382.503130	36.000000	22.000000
382.550015	382.690683	48.000000	28.000000
382.550015	382.690683	52.000000	34.000000
382.550015	382.690683	43.000000	28.000000
382.550015	382.690683	36.000000	23.000000
382.737568	382.877325	48.000000	29.000000
382.737568	382.877325	52.000000	35.000000
382.737568	382.877325	43.000000	28.000000
382.737568	382.877325	36.000000	23.000000
382.923915	383.063671	48.000000	29.000000
382.923915	383.063671	52.000000	35.000000
382.923915	383.063671	43.000000	29.000000
382.923915	383.063671	36.000000	24.000000
383.110261	383.250380	48.000000	30.000000
383.110261	383.250380	52.000000	36.000000
383.110261	383.250380	36.000000	25.000000
383.110261	383.250380	43.000000	30.000000
383.297118	383.437330	48.000000	30.000000
383.297118	383.437330	52.000000	36.000000
383.297118	383.437330	36.000000	22.000000
383.297118	383.437330	43.000000	27.000000
383.484068	383.623824	48.000000	31.000000
383.484068	383.623824	52.000000	37.000000
383.484068	383.623824	36.000000	23.000000
383.484068	383.623824	43.000000	28.000000
383.670414	383.810171	48.000000	32.000000
383.670414	383.810171	52.000000	38.000000
383.670414	383.810171	36.000000	24.000000
383.670414	383.810171	43.000000	29.000000
383.856761	383.996974	48.000000	33.000000
383.856761	383.996974	52.000000	39.000000
383.856761	383.996974	36.000000	25.000000
383.856761	383.996974	43.000000	30.000000
384.043711	384.183924	48.000000	34.000000
384.043711	384.183924	52.000000	40.000000
384.043711	384.183924	36.000000	25.000000
384.043711	384.183924	43.000000	30.000000
384.230661	384.370874	50.000000	34.000000
384.230661	384.370874	54.000000	40.000000
384.230661	384.370874	36.000000	25.000000
384.230661	384.370874	45.000000	30.000000
384.417611	384.557824	50.000000	34.000000
384.417611	384.557824	54.000000	40.000000
384.417611	384.557824	36.000000	25.000000
384.417611	384.557824	45.000000	30.000000
384.604561	385.165412	50.000000	39.000000
384.604561	385.165412	55.000000	46.000000
384.604561	384.744774	35.000000	25.000000
384.604561	384.744774	43.000000	30.000000
384.791511	384.931724	35.000000	25.000000
384.791511	384.931724	43.000000	30.000000
384.978462	385.118674	35.000000	25.000000
384.978462	385.118674	43.000000	30.000000
385.165412	385.258887	59.000000	40.000000
385.165412	385.305624	35.000000	25.000000
385.165412	385.305624	43.000000	30.000000
385.258887	385.352362	57.000000	40.000000
385.352362	385.445837	55.000000	45.000000
385.352362	385.492574	35.000000	25.000000
385.352362	385.492574	43.000000	30.000000
385.539312	385.679524	35.000000	25.000000
385.539312	385.679524	43.000000	30.000000
385.726262	385.866474	35.000000	25.000000
385.726262	385.866474	43.000000	30.000000
385.913212	386.057139	35.000000	25.000000
385.913212	386.057139	43.000000	30.000000
386.057139	386.105111	85.000000	46.000000
386.105111	386.572486	86.000000	57.000000
386.105111	386.245323	35.000000	25.000000
386.105111	386.245323	43.000000	30.000000
386.292061	386.432273	35.000000	25.000000
386.292061	386.432273	43.000000	30.000000
386.479011	386.619223	35.000000	25.000000
386.479011	386.619223	43.000000	30.000000
386.572486	386.665961	84.000000	48.000000
386.665961	386.759436	83.000000	47.000000
386.665961	386.806174	35.000000	25.000000
386.665961	386.806174	43.000000	30.000000
386.759436	386.852911	81.000000	45.000000
386.852911	387.039861	79.000000	44.000000
386.852911	386.993124	35.000000	25.000000
386.852911	386.993124	43.000000	30.000000
387.039861	387.180074	35.000000	25.000000
387.039861	387.180074	43.000000	30.000000
387.226811	387.367024	35.000000	25.000000
387.226811	387.367024	43.000000	30.000000
387.413761	387.556750	35.000000	25.000000
387.413761	387.556750	43.000000	30.000000
387.604413	387.744625	46.000000	29.000000
387.604413	387.744625	50.000000	37.000000
387.604413	387.744625	41.000000	30.000000
387.604413	387.744625	34.000000	26.000000
387.791363	387.931576	46.000000	29.000000
387.791363	387.931576	50.000000	35.000000
387.791363	387.931576	41.000000	30.000000
387.791363	387.931576	34.000000	25.000000
387.978313	388.117185	46.000000	29.000000
387.978313	388.117185	50.000000	35.000000
387.978313	388.117185	41.000000	30.000000
387.978313	388.117185	34.000000	25.000000
388.163480	388.302351	46.000000	30.000000
388.163480	388.302351	50.000000	36.000000
388.163480	388.302351	41.000000	31.000000
388.163480	388.302351	34.000000	26.000000
388.348646	388.489314	46.000000	31.000000
388.348646	388.489314	50.000000	37.000000
388.348646	388.489314	41.000000	31.000000
388.348646	388.489314	34.000000	26.000000
388.536200	388.676868	46.000000	31.000000
388.536200	388.676868	50.000000	37.000000
388.536200	388.676868	41.000000	31.000000
388.536200	388.676868	34.000000	26.000000
388.723753	388.864422	46.000000	32.000000
388.723753	388.864422	50.000000	38.000000
388.723753	388.864422	41.000000	31.000000
388.723753	388.864422	34.000000	26.000000
388.911307	389.051975	46.000000	33.000000
388.911307	389.051975	50.000000	39.000000
388.911307	389.051975	41.000000	31.000000
388.911307	389.051975	34.000000	26.000000
389.098860	389.239073	46.000000	33.000000
389.098860	389.239073	50.000000	39.000000
389.098860	389.239073	34.000000	26.000000
389.098860	389.239073	41.000000	31.000000
389.285810	389.426023	46.000000	34.000000
389.285810	389.426023	50.000000	40.000000
389.285810	389.426023	34.000000	26.000000
389.285810	389.426023	41.000000	31.000000
389.472760	389.613429	46.000000	34.000000
389.472760	389.613429	50.000000	40.000000
389.472760	389.613429	34.000000	26.000000
389.472760	389.613429	41.000000	31.000000
389.660314	389.800983	46.000000	34.000000
389.660314	389.800983	50.000000	40.000000
389.660314	389.800983	34.000000	26.000000
389.660314	389.800983	41.000000	31.000000
389.847868	389.986739	46.000000	34.000000
389.847868	389.986739	50.000000	40.000000
389.847868	389.986739	34.000000	26.000000
389.847868	389.986739	41.000000	31.000000
390.033034	390.171906	46.000000	34.000000
390.033034	390.171906	50.000000	40.000000
390.033034	390.171906	34.000000	25.000000
390.033034	390.171906	41.000000	30.000000
390.218200	390.357515	48.000000	34.000000
390.218200	390.357515	52.000000	40.000000
390.218200	390.357515	34.000000	25.000000
390.218200	390.357515	43.000000	30.000000
390.403957	390.543271	48.000000	34.000000
390.403957	390.543271	52.000000	40.000000
390.403957	390.543271	34.000000	25.000000
390.403957	390.543271	43.000000	30.000000
390.589713	391.148713	48.000000	39.000000
390.589713	391.148713	53.000000	46.000000
390.589713	390.729430	33.000000	25.000000
390.589713	390.729430	41.000000	30.000000
390.776020	390.915776	33.000000	25.000000
390.776020	390.915776	41.000000	30.000000
390.962366	391.102123	33.000000	25.000000
390.962366	391.102123	41.000000	30.000000
391.148713	391.241893	57.000000	40.000000
391.148713	391.288483	33.000000	25.000000
391.148713	391.288483	41.000000	30.000000
391.241893	391.335073	55.000000	40.000000
391.335073	391.428253	53.000000	45.000000
391.335073	391.474843	33.000000	25.000000
391.335073	391.474843	41.000000	30.000000
391.521433	391.661190	33.000000	25.000000
391.521433	391.661190	41.000000	30.000000
391.707780	391.847536	33.000000	25.000000
391.707780	391.847536	41.000000	30.000000
391.894126	392.037584	33.000000	25.000000
391.894126	392.037584	41.000000	30.000000
392.037584	392.085408	83.000000	46.000000
392.085408	392.552783	84.000000	57.000000
392.085408	392.225621	32.000000	25.000000
392.085408	392.225621	41.000000	30.000000
392.272358	392.412571	32.000000	25.000000
392.272358	392.412571	41.000000	30.000000
392.459308	392.599521	32.000000	25.000000
392.459308	392.599521	41.000000	30.000000
392.552783	392.646258	82.000000	50.000000
392.646258	392.739733	80.000000	49.000000
392.646258	392.786471	32.000000	25.000000
392.646258	392.786471	41.000000	30.000000
392.739733	392.833208	79.000000	47.000000
392.833208	393.020159	77.000000	46.000000
392.833208	392.973421	32.000000	25.000000
392.833208	392.973421	41.000000	30.000000
393.020159	393.160371	32.000000	25.000000
393.020159	393.160371	41.000000	30.000000
393.207940	393.351868	32.000000	25.000000
393.207940	393.351868	41.000000	30.000000
393.399839	393.543766	32.000000	25.000000
393.399839	393.543766	41.000000	30.000000
393.543766	393.591738	88.000000	67.000000
393.591738	394.712258	89.000000	73.000000
393.591738	393.731950	31.000000	30.000000
393.591738	393.731950	41.000000	36.000000
393.778688	393.918900	31.000000	32.000000
393.778688	393.918900	41.000000	38.000000
393.965638	394.104952	31.000000	33.000000
393.965638	394.104952	41.000000	39.000000
394.151394	394.290708	31.000000	34.000000
394.151394	394.290708	41.000000	41.000000
394.337151	394.477819	31.000000	36.000000
394.337151	394.477819	41.000000	43.000000
394.524704	394.665373	31.000000	38.000000
394.524704	394.665373	41.000000	45.000000
394.712258	394.806042	89.000000	74.000000
394.712258	394.852927	32.000000	39.000000
394.712258	394.852927	41.000000	46.000000
394.806042	394.899812	87.000000	73.000000
394.899812	394.993595	86.000000	71.000000
394.899812	395.040480	32.000000	40.000000
394.899812	395.040480	41.000000	48.000000
394.993595	395.087365	84.000000	70.000000
395.087365	395.180840	83.000000	72.000000
395.087365	395.227578	31.000000	44.000000
395.087365	395.227578	41.000000	52.000000
395.180840	395.274315	84.000000	71.000000
395.274315	395.367790	86.000000	72.000000
395.274315	395.414528	31.000000	44.000000
395.274315	395.414528	41.000000	52.000000
395.367790	395.461265	87.000000	73.000000
395.461265	395.555652	89.000000	74.000000
395.461265	395.602846	32.000000	45.000000
395.461265	395.602846	41.000000	55.000000
395.555652	395.650039	87.000000	72.000000
395.650039	395.744426	86.000000	71.000000
395.650039	395.791620	32.000000	46.000000
395.650039	395.791620	41.000000	55.000000
395.744426	395.838813	84.000000	69.000000
395.838813	395.932288	83.000000	72.000000
395.838813	395.979026	31.000000	48.000000
395.838813	395.979026	41.000000	58.000000
395.932288	396.025763	84.000000	75.000000
396.025763	396.119238	86.000000	77.000000
396.025763	396.165976	31.000000	51.000000
396.025763	396.165976	41.000000	60.000000
396.119238	396.212714	87.000000	80.000000
396.212714	396.306189	89.000000	80.000000
396.212714	396.352926	32.000000	54.000000
396.212714	396.352926	41.000000	64.000000
396.306189	396.399664	87.000000	80.000000
396.399664	396.493139	86.000000	79.000000
396.399664	396.539876	32.000000	56.000000
396.399664	396.539876	41.000000	66.000000
396.493139	396.586614	84.000000	81.000000
396.586614	396.680800	83.000000	85.000000
396.586614	396.979397	41.000000	85.000000
396.591308	396.984077	31.000000	70.000000
396.680800	396.776326	84.000000	89.000000
396.776326	396.874361	86.000000	94.000000
396.874361	396.979397	87.000000	98.000000
396.979397	397.072885	89.000000	100.000000
396.979397	397.917218	43.000000	81.000000
396.979397	397.917218	55.000000	96.000000
397.072885	397.166360	87.000000	98.000000
397.166360	397.259835	86.000000	96.000000
397.259835	397.353310	84.000000	94.000000
397.353310	397.446785	83.000000	93.000000
397.446785	397.540260	80.000000	91.000000
397.540260	397.633735	79.000000	89.000000
397.633735	397.727210	77.000000	87.000000
397.727210	397.822214	75.000000	85.000000
397.822214	397.917218	74.000000	83.000000
397.917218	398.012222	72.000000	81.000000
397.917218	398.012222	57.000000	67.000000
398.012222	398.107226	71.000000	79.000000
398.012222	398.107226	59.000000	70.000000
398.107226	398.259763	72.000000	93.000000
398.107226	398.259763	60.000000	72.000000
398.513997	398.679435	67.000000	83.000000
398.513997	398.679435	43.000000	56.000000
398.513997	398.679435	55.000000	66.000000
398.955167	399.134446	63.000000	72.000000
398.955167	399.134446	39.000000	52.000000
398.955167	399.134446	51.000000	62.000000
399.433257	399.668863	60.000000	64.000000
399.433257	399.668863	36.000000	48.000000
399.433257	399.668863	48.000000	57.000000
400.061538	401.969636	56.000000	60.000000
400.061538	401.969636	32.000000	46.000000
400.061538	401.969636	44.000000	54.000000
401.969636	402.128651	73.000000	54.000000
401.969636	402.128651	61.000000	37.000000
402.393667	402.566750	68.000000	52.000000
402.393667	402.566750	56.000000	33.000000
402.855208	403.051721	65.000000	48.000000
402.855208	403.051721	53.000000	32.000000
403.379232	403.632044	61.000000	43.000000
403.379232	403.632044	49.000000	29.000000
404.053392	405.977235	58.000000	39.000000
404.053392	405.977235	34.000000	24.000000
404.053392	405.977235	46.000000	29.000000
405.977235	406.120223	63.000000	41.000000
406.072561	406.167886	67.000000	37.000000
406.167886	406.263212	70.000000	37.000000
406.263212	406.358538	75.000000	37.000000
406.358538	406.501526	58.000000	37.000000
406.453864	406.549189	67.000000	37.000000
406.549189	406.644515	70.000000	37.000000
406.644515	406.739841	75.000000	37.000000
406.739841	406.882830	55.000000	37.000000
406.835167	406.930492	67.000000	37.000000
406.930492	407.025818	70.000000	37.000000
407.025818	407.121144	75.000000	37.000000
407.121144	407.267003	51.000000	37.000000
407.218388	407.315618	67.000000	37.000000
407.315618	407.412861	70.000000	37.000000
407.412861	407.510105	75.000000	37.000000
407.510105	407.653093	53.000000	35.000000
407.605431	407.700756	65.000000	37.000000
407.700756	407.796082	68.000000	37.000000
407.796082	407.891408	75.000000	37.000000
407.891408	408.033458	56.000000	38.000000
407.986103	408.080812	65.000000	41.000000
408.080812	408.175508	71.000000	41.000000
408.175508	408.270203	74.000000	41.000000
408.270203	408.413192	57.000000	39.000000
408.365529	408.460855	63.000000	45.000000
408.460855	408.556180	66.000000	45.000000
408.556180	408.651506	74.000000	45.000000
408.651506	408.797861	54.000000	37.000000
408.749072	408.846650	63.000000	39.000000
408.846650	408.944216	69.000000	39.000000
408.944216	409.041781	72.000000	39.000000
409.041781	409.187640	55.000000	46.000000
409.139025	409.236255	62.000000	44.000000
409.236255	409.333498	67.000000	44.000000
409.333498	409.430742	72.000000	44.000000
409.430742	409.579082	54.000000	44.000000
409.529635	409.628528	62.000000	48.000000
409.628528	409.727421	67.000000	48.000000
409.727421	409.826314	72.000000	48.000000
409.826314	409.972669	55.000000	60.000000
409.923880	410.021459	62.000000	53.000000
410.021459	410.119024	67.000000	53.000000
410.119024	410.216590	71.000000	53.000000
410.216590	410.365962	43.000000	56.000000
410.316167	410.415757	62.000000	58.000000
410.415757	410.515334	65.000000	59.000000
410.515334	410.639172	71.000000	59.000000
410.639172	410.826122	64.000000	68.000000
410.639172	410.826122	72.000000	84.000000
410.639172	412.130052	36.000000	70.000000
410.639172	410.826122	48.000000	70.000000
410.826122	410.966335	64.000000	37.000000
410.826122	411.013072	48.000000	31.000000
410.919597	411.013072	60.000000	33.000000
410.919597	411.013072	55.000000	26.000000
411.013072	411.152399	64.000000	37.000000
411.013072	411.198842	48.000000	31.000000
411.105957	411.198842	60.000000	33.000000
411.105957	411.198842	55.000000	27.000000
411.198842	411.338169	64.000000	36.000000
411.198842	411.384612	48.000000	31.000000
411.291727	411.384612	60.000000	33.000000
411.291727	411.384612	55.000000	27.000000
411.384612	411.523939	64.000000	36.000000
411.384612	411.570382	48.000000	31.000000
411.477497	411.570382	60.000000	33.000000
411.477497	411.570382	55.000000	26.000000
411.570382	411.709709	64.000000	37.000000
411.570382	411.756152	48.000000	31.000000
411.663267	411.756152	60.000000	33.000000
411.663267	411.756152	55.000000	27.000000
411.756152	411.896364	64.000000	36.000000
411.756152	411.943102	48.000000	31.000000
411.849627	411.943102	60.000000	33.000000
411.849627	411.943102	55.000000	27.000000
411.943102	412.083314	64.000000	36.000000
411.943102	412.130052	48.000000	31.000000
412.036577	412.130052	60.000000	33.000000
412.036577	412.130052	55.000000	25.000000
412.130052	412.270264	64.000000	37.000000
412.130052	412.317002	48.000000	31.000000
412.223527	412.317002	60.000000	33.000000
412.223527	412.317002	55.000000	26.000000
412.317002	412.457215	64.000000	37.000000
412.317002	412.503952	48.000000	31.000000
412.410477	412.503952	60.000000	33.000000
412.410477	412.503952	55.000000	26.000000
412.503952	412.642824	64.000000	37.000000
412.503952	412.689118	48.000000	31.000000
412.596529	412.689118	60.000000	33.000000
412.596529	412.689118	55.000000	27.000000
412.689118	412.827990	64.000000	36.000000
412.689118	412.874285	48.000000	31.000000
412.781695	412.874285	60.000000	33.000000
412.781695	412.874285	55.000000	27.000000
412.874285	413.013156	64.000000	36.000000
412.874285	413.059451	48.000000	31.000000
412.966861	413.059451	60.000000	33.000000
412.966861	413.059451	55.000000	26.000000
413.059451	413.198323	64.000000	37.000000
413.059451	413.244618	48.000000	31.000000
413.152028	413.244618	60.000000	33.000000
413.152028	413.244618	55.000000	27.000000
413.244618	413.384683	66.000000	36.000000
413.244618	413.431420	48.000000	31.000000
413.337945	413.431420	62.000000	33.000000
413.337945	413.431420	57.000000	27.000000
413.431420	413.571633	66.000000	36.000000
413.431420	413.618370	48.000000	31.000000
413.524895	413.618370	62.000000	33.000000
413.524895	413.618370	57.000000	25.000000
413.618370	414.179221	67.000000	46.000000
413.618370	413.805321	47.000000	26.000000
413.618370	413.805321	50.000000	31.000000
413.711845	413.805321	55.000000	25.000000
413.805321	413.992271	47.000000	26.000000
413.805321	413.992271	50.000000	31.000000
413.898796	413.992271	55.000000	25.000000
413.992271	414.179221	47.000000	26.000000
413.992271	414.179221	50.000000	31.000000
414.085746	414.179221	55.000000	25.000000
414.179221	414.272696	71.000000	40.000000
414.179221	414.366171	47.000000	26.000000
414.179221	414.366171	50.000000	31.000000
414.272696	414.366171	69.000000	40.000000
414.272696	414.366171	55.000000	25.000000
414.366171	414.459646	67.000000	45.000000
414.366171	414.553121	47.000000	26.000000
414.366171	414.553121	50.000000	31.000000
414.459646	414.553121	55.000000	25.000000
414.553121	414.740071	47.000000	26.000000
414.553121	414.740071	50.000000	31.000000
414.646596	414.740071	55.000000	25.000000
414.740071	414.927021	47.000000	26.000000
414.740071	414.927021	50.000000	31.000000
414.833546	414.927021	55.000000	25.000000
414.927021	415.118920	47.000000	26.000000
414.927021	415.118920	50.000000	31.000000
415.022977	415.118920	55.000000	25.000000
415.070948	415.118920	85.000000	46.000000
415.118920	415.586295	86.000000	57.000000
415.118920	415.305870	47.000000	26.000000
415.118920	415.305870	50.000000	31.000000
415.212395	415.305870	55.000000	25.000000
415.305870	415.492820	47.000000	26.000000
415.305870	415.492820	50.000000	31.000000
415.399345	415.492820	55.000000	25.000000
415.492820	415.679770	47.000000	26.000000
415.492820	415.679770	50.000000	31.000000
415.586295	415.679770	84.000000	48.000000
415.586295	415.679770	55.000000	25.000000
415.679770	415.773245	83.000000	47.000000
415.679770	415.866720	47.000000	26.000000
415.679770	415.866720	50.000000	31.000000
415.773245	415.866720	81.000000	45.000000
415.773245	415.866720	55.000000	25.000000
415.866720	416.053670	79.000000	44.000000
415.866720	416.053670	47.000000	26.000000
415.866720	416.053670	50.000000	31.000000
415.960195	416.053670	55.000000	25.000000
416.053670	416.240620	47.000000	26.000000
416.053670	416.240620	50.000000	31.000000
416.147145	416.240620	55.000000	25.000000
416.240620	416.427570	47.000000	26.000000
416.240620	416.427570	50.000000	31.000000
416.334095	416.427570	55.000000	25.000000
416.427570	416.620100	47.000000	26.000000
416.427570	416.620100	50.000000	31.000000
416.523835	416.620100	55.000000	25.000000
416.620100	416.760312	65.000000	40.000000
416.620100	418.111033	38.000000	33.000000
416.620100	416.807050	50.000000	33.000000
416.713575	416.807050	62.000000	36.000000
416.807050	416.947262	65.000000	40.000000
416.807050	416.994000	50.000000	34.000000
416.900525	416.994000	62.000000	36.000000
416.900525	416.994000	57.000000	28.000000
416.994000	417.132871	65.000000	40.000000
416.994000	417.179166	50.000000	34.000000
417.086576	417.179166	62.000000	36.000000
417.086576	417.179166	57.000000	29.000000
417.179166	417.318038	65.000000	39.000000
417.179166	417.364333	50.000000	34.000000
417.271743	417.364333	62.000000	36.000000
417.271743	417.364333	57.000000	29.000000
417.364333	417.503204	65.000000	39.000000
417.364333	417.549499	50.000000	34.000000
417.456909	417.549499	62.000000	36.000000
417.456909	417.549499	57.000000	28.000000
417.549499	417.688370	65.000000	41.000000
417.549499	417.734665	50.000000	34.000000
417.642075	417.734665	62.000000	36.000000
417.642075	417.734665	57.000000	29.000000
417.734665	417.875803	65.000000	40.000000
417.734665	417.922849	50.000000	34.000000
417.828757	417.922849	62.000000	37.000000
417.828757	417.922849	57.000000	30.000000
417.922849	418.063987	65.000000	40.000000
417.922849	418.111033	50.000000	35.000000
418.016941	418.111033	62.000000	37.000000
418.016941	418.111033	57.000000	28.000000
418.111033	418.251246	65.000000	41.000000
418.111033	418.297983	50.000000	35.000000
418.204508	418.297983	62.000000	37.000000
418.204508	418.297983	57.000000	29.000000
418.297983	418.438196	65.000000	41.000000
418.297983	418.484933	50.000000	35.000000
418.391458	418.484933	62.000000	37.000000
418.391458	418.484933	57.000000	29.000000
418.484933	418.624261	65.000000	42.000000
418.484933	418.670703	50.000000	35.000000
418.577818	418.670703	62.000000	37.000000
418.577818	418.670703	57.000000	30.000000
418.670703	418.810031	65.000000	41.000000
418.670703	418.856473	50.000000	35.000000
418.763588	418.856473	62.000000	38.000000
418.763588	418.856473	57.000000	30.000000
418.856473	418.997410	65.000000	41.000000
418.856473	419.044456	50.000000	36.000000
418.950364	419.044456	62.000000	38.000000
418.950364	419.044456	57.000000	29.000000
419.044456	419.185594	65.000000	42.000000
419.044456	419.232640	50.000000	36.000000
419.138548	419.232640	62.000000	38.000000
419.138548	419.232640	57.000000	31.000000
419.232640	419.373778	68.000000	41.000000
419.232640	419.420824	50.000000	36.000000
419.326732	419.420824	64.000000	38.000000
419.326732	419.420824	59.000000	31.000000
419.420824	419.561962	68.000000	42.000000
419.420824	419.609008	50.000000	36.000000
419.514916	419.609008	64.000000	38.000000
419.514916	419.609008	59.000000	29.000000
419.609008	420.169858	69.000000	55.000000
419.609008	419.795958	48.000000	30.000000
419.609008	419.795958	52.000000	37.000000
419.702483	419.795958	57.000000	29.000000
419.795958	419.982908	48.000000	30.000000
419.795958	419.982908	52.000000	37.000000
419.889433	419.982908	57.000000	29.000000
419.982908	420.169858	48.000000	30.000000
419.982908	420.169858	52.000000	37.000000
420.076383	420.169858	57.000000	29.000000
420.169858	420.263333	72.000000	48.000000
420.169858	420.356808	48.000000	30.000000
420.169858	420.356808	52.000000	37.000000
420.263333	420.356808	71.000000	48.000000
420.263333	420.356808	57.000000	29.000000
420.356808	420.450283	69.000000	53.000000
420.356808	420.543758	48.000000	30.000000
420.356808	420.543758	52.000000	37.000000
420.450283	420.543758	57.000000	29.000000
420.543758	420.730708	48.000000	30.000000
420.543758	420.730708	52.000000	37.000000
420.637233	420.730708	57.000000	29.000000
420.730708	420.917658	48.000000	30.000000
420.730708	420.917658	52.000000	37.000000
420.824183	420.917658	57.000000	29.000000
420.917658	421.109557	48.000000	30.000000
420.917658	421.109557	52.000000	37.000000
421.013614	421.109557	57.000000	29.000000
421.061586	421.109557	87.000000	55.000000
421.109557	421.576932	88.000000	68.000000
421.109557	421.296507	48.000000	30.000000
421.109557	421.296507	52.000000	37.000000
421.203032	421.296507	57.000000	29.000000
421.296507	421.483457	48.000000	30.000000
421.296507	421.483457	52.000000	37.000000
421.389982	421.483457	57.000000	29.000000
421.483457	421.670407	48.000000	30.000000
421.483457	421.670407	52.000000	37.000000
421.576932	421.670407	86.000000	58.000000
421.576932	421.670407	57.000000	29.000000
421.670407	421.763882	84.000000	57.000000
421.670407	421.857357	48.000000	30.000000
421.670407	421.857357	52.000000	38.000000
421.763882	421.857357	83.000000	55.000000
421.763882	421.857357	57.000000	30.000000
421.857357	422.044308	81.000000	55.000000
421.857357	422.044308	48.000000	31.000000
421.857357	422.044308	52.000000	38.000000
421.950832	422.044308	57.000000	30.000000
422.044308	422.231258	48.000000	31.000000
422.044308	422.231258	52.000000	39.000000
422.137783	422.231258	57.000000	30.000000
422.231258	422.418208	48.000000	31.000000
422.231258	422.418208	52.000000	39.000000
422.324733	422.418208	57.000000	31.000000
422.418208	422.610737	48.000000	33.000000
422.418208	422.610737	52.000000	39.000000
422.514472	422.610737	57.000000	31.000000
422.562605	422.610737	83.000000	61.000000
422.610737	423.078112	84.000000	78.000000
422.610737	422.797687	53.000000	34.000000
422.610737	422.797687	57.000000	41.000000
422.704212	422.797687	60.000000	33.000000
422.797687	422.984637	53.000000	35.000000
422.797687	422.984637	57.000000	41.000000
422.891162	422.984637	60.000000	34.000000
422.984637	423.171587	53.000000	35.000000
422.984637	423.171587	57.000000	42.000000
423.078112	423.171587	83.000000	68.000000
423.078112	423.171587	60.000000	34.000000
423.171587	423.265062	81.000000	67.000000
423.171587	423.358537	53.000000	35.000000
423.171587	423.358537	57.000000	42.000000
423.265062	423.358537	80.000000	64.000000
423.265062	423.358537	60.000000	34.000000
423.358537	423.545487	81.000000	63.000000
423.358537	423.545487	53.000000	36.000000
423.358537	423.545487	57.000000	44.000000
423.452012	423.545487	62.000000	35.000000
423.545487	423.732437	53.000000	37.000000
423.545487	423.732437	57.000000	45.000000
423.638962	423.732437	62.000000	36.000000
423.732437	423.919387	53.000000	37.000000
423.732437	423.919387	57.000000	45.000000
423.825912	423.919387	62.000000	37.000000
423.919387	424.136231	53.000000	38.000000
423.919387	424.136231	57.000000	46.000000
424.015652	424.136231	62.000000	37.000000
424.063784	424.136231	83.000000	63.000000
424.136231	424.603606	84.000000	81.000000
424.136231	424.323181	53.000000	35.000000
424.136231	424.323181	57.000000	43.000000
424.229706	424.323181	63.000000	34.000000
424.323181	424.510131	53.000000	36.000000
424.323181	424.510131	57.000000	43.000000
424.416656	424.510131	63.000000	35.000000
424.510131	424.697081	53.000000	37.000000
424.510131	424.697081	57.000000	44.000000
424.603606	424.697081	83.000000	72.000000
424.603606	424.697081	63.000000	36.000000
424.697081	424.790556	81.000000	71.000000
424.697081	424.884031	53.000000	37.000000
424.697081	424.884031	57.000000	44.000000
424.790556	424.884031	80.000000	67.000000
424.790556	424.884031	63.000000	36.000000
424.884031	424.977493	81.000000	70.000000
424.884031	425.071249	53.000000	38.000000
424.884031	425.071249	57.000000	47.000000
424.977493	425.071249	80.000000	66.000000
424.977493	425.071249	60.000000	37.000000
425.071249	425.165288	81.000000	66.000000
425.071249	425.259621	53.000000	38.000000
425.071249	425.259621	57.000000	47.000000
425.165288	425.259621	83.000000	66.000000
425.165288	425.259621	60.000000	37.000000
425.259621	425.354263	84.000000	69.000000
425.259621	425.448905	53.000000	47.000000
425.354263	425.448905	85.000000	70.000000
425.354263	425.448905	57.000000	39.000000
425.448905	425.552358	86.000000	71.000000
425.448905	425.682230	53.000000	49.000000
425.552358	425.682230	87.000000	74.000000
425.552358	425.682230	57.000000	39.000000
425.682230	426.178587	88.000000	68.000000
425.682230	425.795084	52.000000	40.000000
425.779004	425.891496	56.000000	35.000000
425.875470	425.987493	59.000000	35.000000
425.971520	426.067262	64.000000	35.000000
426.067262	426.178587	52.000000	41.000000
426.162708	426.273577	86.000000	54.000000
426.162708	426.273577	56.000000	35.000000
426.257752	426.368259	84.000000	53.000000
426.257752	426.368259	59.000000	35.000000
426.352488	426.462606	83.000000	51.000000
426.352488	426.446929	64.000000	35.000000
426.446929	426.556658	84.000000	53.000000
426.446929	426.556658	52.000000	39.000000
426.540980	426.650709	83.000000	52.000000
426.540980	426.650709	57.000000	35.000000
426.635032	426.744761	81.000000	51.000000
426.635032	426.744761	60.000000	35.000000
426.729084	426.838813	80.000000	50.000000
426.729084	426.823135	64.000000	35.000000
426.823135	426.932865	81.000000	50.000000
426.823135	426.932865	52.000000	40.000000
426.917187	427.026916	84.000000	52.000000
426.917187	427.026916	57.000000	35.000000
427.011239	427.120968	83.000000	50.000000
427.011239	427.120968	60.000000	35.000000
427.105291	427.214738	81.000000	50.000000
427.105291	427.199155	64.000000	35.000000
427.199155	427.308213	80.000000	50.000000
427.199155	427.308213	52.000000	40.000000
427.292630	427.401688	78.000000	49.000000
427.292630	427.401688	59.000000	35.000000
427.386105	427.495405	76.000000	48.000000
427.386105	427.495405	62.000000	35.000000
427.479781	427.589175	75.000000	47.000000
427.479781	427.573551	64.000000	35.000000
427.573551	427.682999	76.000000	49.000000
427.573551	427.682999	52.000000	40.000000
427.667321	427.777077	78.000000	49.000000
427.667321	427.777077	59.000000	35.000000
427.761400	427.871156	79.000000	49.000000
427.761400	427.871156	62.000000	35.000000
427.855478	427.965395	80.000000	50.000000
427.855478	427.949664	64.000000	35.000000
427.949664	428.059782	81.000000	50.000000
427.949664	428.059782	52.000000	40.000000
428.044051	428.154169	80.000000	50.000000
428.044051	428.154169	57.000000	35.000000
428.138438	428.248811	81.000000	51.000000
428.138438	428.248811	60.000000	35.000000
428.233026	428.343506	83.000000	51.000000
428.233026	428.327722	64.000000	35.000000
428.327722	428.438296	84.000000	49.000000
428.327722	428.438296	52.000000	40.000000
428.422417	428.536371	85.000000	50.000000
428.422417	428.536371	57.000000	35.000000
428.519540	428.642559	86.000000	52.000000
428.519540	428.642559	60.000000	35.000000
428.623905	428.756218	87.000000	53.000000
428.623905	428.740299	64.000000	35.000000
428.740299	428.851758	88.000000	55.000000
428.740299	428.851758	52.000000	40.000000
428.835840	428.947151	87.000000	53.000000
428.835840	428.947151	56.000000	35.000000
428.931273	429.042397	88.000000	53.000000
428.931273	429.042397	59.000000	35.000000
429.026518	429.137387	87.000000	50.000000
429.026518	429.121562	64.000000	35.000000
429.121562	429.232270	88.000000	52.000000
429.121562	429.232270	52.000000	40.000000
429.216499	429.326912	86.000000	52.000000
429.216499	429.326912	56.000000	35.000000
429.311141	429.421393	84.000000	51.000000
429.311141	429.421393	59.000000	35.000000
429.405675	429.515686	83.000000	50.000000
429.405675	429.500009	64.000000	35.000000
429.500009	429.609738	84.000000	52.000000
429.500009	429.609738	52.000000	40.000000
429.594060	429.703790	83.000000	51.000000
429.594060	429.703790	57.000000	35.000000
429.688112	429.797841	81.000000	49.000000
429.688112	429.797841	60.000000	35.000000
429.782164	429.891839	80.000000	50.000000
429.782164	429.876215	64.000000	35.000000
429.876215	429.985583	81.000000	50.000000
429.876215	429.985583	52.000000	41.000000
429.969959	430.079326	84.000000	53.000000
429.969959	430.079326	57.000000	35.000000
430.063702	430.173069	83.000000	50.000000
430.063702	430.173069	60.000000	35.000000
430.157445	430.266665	81.000000	50.000000
430.157445	430.251095	64.000000	35.000000
430.251095	430.360113	80.000000	50.000000
430.251095	430.360113	52.000000	40.000000
430.344543	430.453561	78.000000	49.000000
430.344543	430.453561	59.000000	35.000000
430.437991	430.547010	76.000000	48.000000
430.437991	430.547010	62.000000	35.000000
430.531439	430.640458	75.000000	47.000000
430.531439	430.624888	64.000000	35.000000
430.624888	430.733906	76.000000	49.000000
430.624888	430.733906	52.000000	40.000000
430.718336	430.827354	78.000000	50.000000
430.718336	430.827354	59.000000	36.000000
430.811784	430.920802	79.000000	50.000000
430.811784	430.920802	62.000000	36.000000
430.905232	431.014251	80.000000	52.000000
430.905232	430.998680	64.000000	36.000000
430.998680	431.107699	81.000000	52.000000
430.998680	431.107699	52.000000	42.000000
431.092129	431.201147	80.000000	52.000000
431.092129	431.201147	57.000000	36.000000
431.185577	431.294595	81.000000	54.000000
431.185577	431.294595	60.000000	37.000000
431.279025	431.388044	83.000000	54.000000
431.279025	431.372473	64.000000	37.000000
431.372473	431.481492	84.000000	56.000000
431.372473	431.481492	52.000000	42.000000
431.465922	431.575745	85.000000	58.000000
431.465922	431.575745	57.000000	37.000000
431.559370	431.673981	86.000000	60.000000
431.559370	431.673981	60.000000	37.000000
431.657606	431.771425	87.000000	62.000000
431.657606	431.755842	64.000000	38.000000
431.755842	431.849330	88.000000	68.000000
431.755842	431.849330	52.000000	44.000000
431.849330	431.942805	83.000000	60.000000
431.849330	431.942805	56.000000	38.000000
431.942805	432.036280	80.000000	61.000000
431.942805	432.036280	59.000000	38.000000
432.036280	432.129755	76.000000	61.000000
432.036280	432.129755	64.000000	38.000000
432.129755	432.223217	75.000000	75.000000
432.129755	432.223217	63.000000	50.000000
432.223217	432.316692	76.000000	63.000000
432.223217	432.316692	64.000000	41.000000
432.316692	432.410167	81.000000	63.000000
432.316692	432.410167	60.000000	40.000000
432.410167	432.503642	84.000000	63.000000
432.410167	432.503642	57.000000	41.000000
432.503642	432.597117	88.000000	74.000000
432.503642	432.597117	52.000000	52.000000
432.597117	432.690592	83.000000	65.000000
432.597117	432.690592	56.000000	44.000000
432.690592	432.784067	80.000000	68.000000
432.690592	432.784067	59.000000	45.000000
432.784067	432.877542	76.000000	68.000000
432.784067	432.877542	64.000000	45.000000
432.877542	432.971017	75.000000	80.000000
432.877542	432.971017	63.000000	60.000000
432.971017	433.064492	76.000000	71.000000
432.971017	433.064492	64.000000	51.000000
433.064492	433.157967	81.000000	71.000000
433.064492	433.157967	60.000000	51.000000
433.157967	433.251442	84.000000	72.000000
433.157967	433.251442	57.000000	52.000000
433.251442	433.344917	88.000000	91.000000
433.251442	433.344917	52.000000	63.000000
433.344917	433.438392	83.000000	82.000000
433.344917	433.438392	56.000000	52.000000
433.438392	433.531868	80.000000	82.000000
433.438392	433.531868	59.000000	52.000000
433.531868	433.625343	76.000000	82.000000
433.531868	433.625343	64.000000	52.000000
433.625343	433.718818	88.000000	91.000000
433.625343	433.718818	52.000000	63.000000
433.718818	433.812293	84.000000	82.000000
433.718818	433.812293	57.000000	52.000000
433.812293	433.905768	81.000000	82.000000
433.812293	433.905768	60.000000	52.000000
433.905768	433.999243	76.000000	82.000000
433.905768	433.999243	64.000000	52.000000
433.999243	434.092718	88.000000	91.000000
433.999243	434.092718	52.000000	63.000000
434.092718	434.186193	83.000000	82.000000
434.092718	434.186193	56.000000	52.000000
434.186193	434.279668	80.000000	81.000000
434.186193	434.279668	59.000000	52.000000
434.279668	434.373143	76.000000	81.000000
434.279668	434.373143	64.000000	52.000000
434.373143	434.466618	88.000000	91.000000
434.373143	434.466618	52.000000	63.000000
434.466618	434.560093	84.000000	81.000000
434.466618	434.560093	57.000000	52.000000
434.560093	434.653568	81.000000	81.000000
434.560093	434.653568	60.000000	52.000000
434.653568	434.747043	76.000000	82.000000
434.653568	434.747043	64.000000	52.000000
434.747043	434.840827	88.000000	91.000000
434.747043	435.122177	52.000000	54.000000
434.747043	435.122177	56.000000	54.000000
434.747043	435.122177	59.000000	54.000000
434.747043	435.122177	64.000000	63.000000
434.840827	434.934610	83.000000	82.000000
434.934610	435.028394	80.000000	82.000000
435.028394	435.122177	76.000000	82.000000
435.122177	435.215961	83.000000	91.000000
435.215961	435.309945	80.000000	82.000000
435.309945	435.404037	76.000000	82.000000
435.404037	435.498129	71.000000	82.000000
435.498129	435.592221	80.000000	91.000000
435.592221	435.686313	76.000000	82.000000
435.686313	435.780499	71.000000	81.000000
435.780499	435.874886	68.000000	81.000000
435.874886	435.969273	76.000000	91.000000
435.969273	436.063660	71.000000	81.000000
436.063660	436.158047	68.000000	81.000000
436.158047	436.252541	64.000000	82.000000
436.252541	436.346311	71.000000	91.000000
436.346311	436.440095	68.000000	81.000000
436.440095	436.534079	64.000000	80.000000
436.534079	436.628171	59.000000	80.000000
436.628171	436.722357	68.000000	89.000000
436.722357	436.816744	64.000000	79.000000
436.816744	436.911131	59.000000	79.000000
436.911131	437.005827	56.000000	78.000000
437.005827	437.100522	64.000000	87.000000
437.100522	437.195432	59.000000	78.000000
437.195432	437.290436	56.000000	77.000000
437.290436	437.385547	52.000000	77.000000
437.385547	437.480873	40.000000	85.000000
437.480873	437.576199	44.000000	76.000000
437.576199	437.676125	47.000000	76.000000
437.676125	437.776050	52.000000	75.000000
437.776050	437.869217	40.000000	77.000000
437.962384	438.057924	52.000000	68.000000
438.153464	438.246926	42.000000	73.000000
438.340387	438.435928	54.000000	66.000000
438.531468	438.624930	76.000000	75.000000
438.531468	438.624930	44.000000	71.000000
438.718391	438.813932	64.000000	69.000000
438.718391	438.813932	56.000000	65.000000
438.909472	439.003805	78.000000	74.000000
439.098139	439.198400	66.000000	65.000000
439.298661	439.392699	80.000000	71.000000
439.298661	439.392699	44.000000	69.000000
439.486738	439.582586	68.000000	64.000000
439.486738	439.582586	56.000000	61.000000
439.678851	439.773184	45.000000	65.000000
439.868269	439.964868	57.000000	59.000000
440.061468	440.156110	80.000000	67.000000
440.061468	440.156110	47.000000	65.000000
440.251248	440.347405	68.000000	53.000000
440.251248	440.347405	59.000000	54.000000
440.444649	440.541892	81.000000	59.000000
440.639351	440.736916	69.000000	50.000000
440.834481	440.929713	83.000000	52.000000
441.024945	441.121666	71.000000	49.000000
441.218909	441.316153	85.000000	52.000000
441.413611	441.511176	73.000000	49.000000
441.608849	441.706750	86.000000	52.000000
441.608849	441.706750	47.000000	41.000000
441.804650	441.902551	74.000000	48.000000
441.804650	441.902551	59.000000	36.000000
442.000452	442.098017	86.000000	52.000000
442.000452	442.098017	49.000000	41.000000
442.195690	442.293591	76.000000	46.000000
442.195690	442.293591	61.000000	36.000000
442.391827	442.490170	86.000000	51.000000
442.391827	442.490170	50.000000	40.000000
442.588728	442.687621	78.000000	46.000000
442.588728	442.687621	62.000000	37.000000
442.786635	442.885876	86.000000	51.000000
442.786635	442.885876	52.000000	39.000000
442.985453	443.085151	80.000000	46.000000
442.985453	443.085151	64.000000	36.000000
443.185077	443.284265	86.000000	51.000000
443.185077	443.284265	54.000000	38.000000
443.384593	443.486625	81.000000	47.000000
443.384593	443.486625	66.000000	37.000000
443.590372	443.698533	86.000000	50.000000
443.590372	443.698533	56.000000	40.000000
443.813559	443.936391	83.000000	46.000000
443.813559	443.936391	68.000000	37.000000
444.070502	444.950723	73.000000	42.000000
444.070502	444.950723	76.000000	42.000000
444.070502	444.950723	81.000000	42.000000
444.070502	444.950723	85.000000	55.000000
444.070502	444.950723	64.000000	33.000000
444.070502	444.950723	61.000000	33.000000
444.070502	444.950723	69.000000	39.000000
444.070502	444.950723	57.000000	33.000000
444.950723	445.381164	71.000000	40.000000
444.950723	445.381164	76.000000	40.000000
444.950723	445.381164	80.000000	40.000000
444.950723	445.381164	83.000000	52.000000
444.950723	445.381164	59.000000	29.000000
444.950723	445.381164	64.000000	35.000000
444.950723	445.381164	56.000000	29.000000
444.950723	445.381164	52.000000	29.000000
445.381164	445.851758	69.000000	40.000000
445.381164	445.851758	73.000000	40.000000
445.381164	445.851758	78.000000	40.000000
445.381164	445.851758	81.000000	52.000000
445.381164	445.851758	57.000000	29.000000
445.381164	445.851758	61.000000	29.000000
445.381164	445.851758	66.000000	35.000000
445.381164	445.851758	54.000000	29.000000
445.851758	446.740642	68.000000	42.000000
445.851758	446.740642	71.000000	42.000000
445.851758	446.740642	77.000000	42.000000
445.851758	446.740642	80.000000	55.000000
445.851758	446.740642	49.000000	33.000000
445.851758	446.740642	61.000000	39.000000
445.851758	446.740642	56.000000	33.000000
445.851758	446.740642	53.000000	33.000000
446.740642	447.647726	74.000000	40.000000
446.740642	447.647726	66.000000	40.000000
446.740642	447.647726	69.000000	40.000000
446.740642	447.647726	78.000000	52.000000
446.740642	447.647726	54.000000	28.000000
446.740642	447.647726	50.000000	28.000000
446.740642	447.647726	62.000000	34.000000
446.740642	447.647726	57.000000	28.000000
447.647726	448.549981	68.000000	49.000000
447.647726	448.549981	74.000000	49.000000
447.647726	448.549981	76.000000	49.000000
447.647726	448.549981	80.000000	63.000000
447.647726	448.549981	47.000000	37.000000
447.647726	448.549981	52.000000	45.000000
447.647726	448.549981	56.000000	37.000000
447.647726	448.549981	59.000000	45.000000
448.549981	449.018738	69.000000	50.000000
448.549981	449.018738	76.000000	50.000000
448.549981	449.018738	81.000000	66.000000
448.549981	449.018738	57.000000	40.000000
448.549981	449.018738	49.000000	40.000000
448.549981	449.018738	52.000000	40.000000
448.549981	449.018738	61.000000	49.000000
449.018738	449.527218	71.000000	55.000000
449.018738	449.527218	78.000000	55.000000
449.018738	449.527218	81.000000	55.000000
449.018738	449.527218	83.000000	72.000000
449.018738	449.527218	59.000000	46.000000
449.018738	449.527218	62.000000	55.000000
449.018738	449.527218	50.000000	36.000000
449.018738	449.527218	54.000000	41.000000
449.527218	450.426094	73.000000	59.000000
449.527218	450.891216	76.000000	59.000000
449.527218	450.426094	81.000000	59.000000
449.527218	450.426094	85.000000	77.000000
449.527218	450.426094	61.000000	49.000000
449.527218	451.357559	52.000000	49.000000
449.527218	450.426094	57.000000	49.000000
449.527218	450.426094	64.000000	59.000000
450.426094	451.357559	71.000000	33.000000
450.426094	451.357559	80.000000	32.000000
450.426094	451.357559	83.000000	49.000000
450.426094	451.357559	59.000000	27.000000
450.426094	451.357559	56.000000	27.000000
450.426094	451.355614	64.000000	32.000000
450.891216	451.357559	74.000000	55.000000
451.357559	452.237780	64.000000	37.000000
451.357559	452.237780	69.000000	37.000000
451.357559	452.237780	72.000000	45.000000
451.357559	452.237780	60.000000	35.000000
451.357559	452.237780	57.000000	29.000000
452.237780	452.668221	64.000000	36.000000
452.237780	452.668221	67.000000	36.000000
452.237780	452.668221	71.000000	43.000000
452.237780	452.668221	59.000000	31.000000
452.237780	452.668221	55.000000	26.000000
452.237780	452.668221	52.000000	26.000000
452.668221	453.123701	60.000000	36.000000
452.668221	453.123701	65.000000	36.000000
452.668221	453.123701	69.000000	43.000000
452.668221	453.123701	57.000000	31.000000
452.668221	453.123701	53.000000	26.000000
453.123701	454.007221	60.000000	37.000000
453.123701	454.007221	64.000000	37.000000
453.123701	454.007221	67.000000	45.000000
453.123701	454.007221	55.000000	35.000000
453.123701	454.007221	52.000000	29.000000
453.123701	454.007221	48.000000	29.000000
454.007221	454.911622	62.000000	36.000000
454.007221	454.911622	57.000000	36.000000
454.007221	454.911622	65.000000	43.000000
454.007221	454.911622	53.000000	30.000000
454.007221	454.911622	50.000000	25.000000
454.911622	455.356721	60.000000	44.000000
454.911622	455.356721	64.000000	44.000000
454.911622	455.801821	67.000000	52.000000
454.911622	455.356721	48.000000	35.000000
454.911622	455.356721	52.000000	35.000000
454.911622	456.697585	43.000000	26.000000
455.356721	456.697585	62.000000	45.000000
455.356721	456.697585	65.000000	45.000000
455.356721	456.697585	50.000000	35.000000
455.356721	456.697585	53.000000	35.000000
455.801821	456.237050	69.000000	61.000000
456.237050	456.697585	71.000000	69.000000
456.697585	456.848379	60.000000	41.000000
456.697585	456.848379	64.000000	41.000000
456.697585	456.810641	72.000000	51.000000
456.697585	457.149136	48.000000	37.000000
456.697585	457.149136	52.000000	40.000000
456.848379	456.961448	74.000000	48.000000
456.999039	457.111679	76.000000	49.000000
457.149136	457.261359	77.000000	50.000000
457.298669	457.410477	79.000000	50.000000
457.447652	457.559179	81.000000	51.000000
457.596220	457.707330	82.000000	52.000000
457.744224	457.854919	83.000000	48.000000
457.891679	458.001971	84.000000	49.000000
458.038597	458.148353	85.000000	51.000000
458.184844	458.294332	86.000000	53.000000
458.330824	458.440312	87.000000	54.000000
458.476669	459.344901	84.000000	48.000000
458.476669	458.621374	88.000000	58.000000
458.476669	459.344901	76.000000	44.000000
458.476669	459.344901	72.000000	37.000000
458.621374	458.766080	87.000000	53.000000
458.766080	458.910785	88.000000	53.000000
458.910785	459.055490	89.000000	53.000000
459.055490	459.200195	87.000000	53.000000
459.200195	459.344901	88.000000	53.000000
459.344901	459.769481	83.000000	60.000000
459.344901	459.769481	77.000000	40.000000
459.344901	459.769481	74.000000	40.000000
459.344901	459.769481	71.000000	33.000000
459.344901	459.769481	68.000000	33.000000
459.486427	459.627954	88.000000	54.000000
459.627954	459.769481	86.000000	54.000000
459.769481	460.218765	76.000000	40.000000
459.769481	460.218765	72.000000	40.000000
459.769481	460.218765	69.000000	33.000000
459.919242	460.069004	86.000000	53.000000
460.069004	460.218765	84.000000	53.000000
460.218765	461.090296	80.000000	60.000000
460.218765	461.090296	74.000000	44.000000
460.218765	461.090296	71.000000	44.000000
460.218765	461.090296	68.000000	37.000000
460.218765	461.090296	64.000000	37.000000
460.364020	460.509275	82.000000	54.000000
460.509275	460.654530	83.000000	54.000000
460.654530	460.799785	84.000000	54.000000
460.799785	460.945041	82.000000	54.000000
460.945041	461.090296	83.000000	54.000000
461.090296	461.982386	77.000000	60.000000
461.090296	461.982386	72.000000	39.000000
461.090296	461.982386	69.000000	39.000000
461.090296	461.982386	65.000000	32.000000
461.235551	461.380806	80.000000	54.000000
461.380806	461.526061	81.000000	54.000000
461.526061	461.678169	83.000000	54.000000
461.678169	461.830277	80.000000	54.000000
461.830277	461.982386	81.000000	54.000000
461.982386	462.860515	77.000000	62.000000
461.982386	462.860515	62.000000	39.000000
461.982386	462.860515	65.000000	47.000000
461.982386	462.860515	67.000000	39.000000
461.982386	462.860515	71.000000	47.000000
462.128740	462.275095	82.000000	62.000000
462.275095	462.421450	83.000000	57.000000
462.421450	462.567805	84.000000	57.000000
462.567805	462.714160	82.000000	59.000000
462.714160	462.860515	83.000000	59.000000
462.860515	463.289802	79.000000	71.000000
462.860515	463.289802	64.000000	45.000000
462.860515	463.289802	67.000000	45.000000
462.860515	463.289802	72.000000	53.000000
463.003610	463.146706	86.000000	63.000000
463.146706	463.289802	84.000000	64.000000
463.289802	463.744357	81.000000	74.000000
463.289802	463.744357	72.000000	56.000000
463.289802	463.744357	74.000000	57.000000
463.289802	463.744357	65.000000	45.000000
463.289802	463.744357	69.000000	48.000000
463.441320	463.592839	88.000000	65.000000
463.592839	463.744357	86.000000	65.000000
463.744357	463.889612	88.000000	79.000000
463.744357	464.615887	84.000000	79.000000
463.744357	465.056601	67.000000	53.000000
463.744357	464.615887	72.000000	53.000000
463.744357	464.615887	76.000000	65.000000
463.889612	464.034867	87.000000	72.000000
464.034867	464.180122	88.000000	72.000000
464.180122	464.325377	91.000000	68.000000
464.325377	464.470632	89.000000	72.000000
464.470632	464.615887	88.000000	69.000000
464.615887	464.762792	83.000000	67.000000
464.615887	464.762792	86.000000	67.000000
464.615887	465.056601	71.000000	45.000000
464.615887	465.056601	74.000000	53.000000
464.762792	464.909697	81.000000	64.000000
464.762792	464.909697	84.000000	64.000000
464.909697	465.056601	83.000000	60.000000
464.909697	465.056601	79.000000	60.000000
465.056601	465.209930	77.000000	60.000000
465.056601	465.209930	81.000000	60.000000
465.056601	465.209930	55.000000	44.000000
465.209930	465.363259	76.000000	56.000000
465.209930	465.363259	79.000000	56.000000
465.209930	465.363259	57.000000	43.000000
465.363259	465.516587	74.000000	53.000000
465.363259	465.516587	77.000000	53.000000
465.363259	465.516587	59.000000	41.000000
465.516587	466.384819	67.000000	57.000000
465.516587	465.661292	76.000000	57.000000
465.516587	466.384819	64.000000	45.000000
465.516587	466.384819	60.000000	37.000000
465.661292	465.805998	75.000000	49.000000
465.805998	465.950703	76.000000	49.000000
465.950703	466.095408	77.000000	49.000000
466.095408	466.240113	75.000000	49.000000
466.240113	466.384819	76.000000	49.000000
466.384819	466.809399	65.000000	56.000000
466.384819	466.809399	62.000000	41.000000
466.384819	466.809399	59.000000	33.000000
466.384819	466.809399	56.000000	33.000000
466.526346	466.667872	76.000000	50.000000
466.667872	466.809399	74.000000	50.000000
466.809399	467.258683	64.000000	56.000000
466.809399	467.258683	60.000000	41.000000
466.809399	467.258683	57.000000	33.000000
466.959161	467.108922	74.000000	49.000000
467.108922	467.258683	72.000000	49.000000
467.258683	468.130214	59.000000	37.000000
467.258683	468.130214	62.000000	56.000000
467.258683	468.130214	56.000000	37.000000
467.258683	468.130214	52.000000	37.000000
467.403938	467.549193	70.000000	50.000000
467.549193	467.694448	71.000000	50.000000
467.694448	467.839704	72.000000	53.000000
467.839704	467.984959	70.000000	50.000000
467.984959	468.130214	71.000000	50.000000
468.130214	469.022304	53.000000	39.000000
468.130214	469.022304	57.000000	39.000000
468.130214	469.022304	60.000000	32.000000
468.275469	468.420724	65.000000	50.000000
468.420724	468.565979	68.000000	50.000000
468.565979	468.718087	69.000000	53.000000
468.718087	468.870195	68.000000	50.000000
468.870195	469.022304	69.000000	50.000000
469.022304	469.168658	60.000000	60.000000
469.022304	469.469562	48.000000	52.000000
469.022304	470.835129	43.000000	46.000000
469.022304	469.469562	52.000000	55.000000
469.168658	469.315013	64.000000	56.000000
469.315013	469.469562	67.000000	57.000000
469.469562	469.617594	62.000000	66.000000
469.469562	470.835129	50.000000	55.000000
469.469562	470.835129	53.000000	58.000000
469.617594	469.765638	65.000000	61.000000
469.765638	469.923996	67.000000	61.000000
469.923996	470.075527	62.000000	74.000000
470.075527	470.225289	65.000000	67.000000
470.225289	470.379838	69.000000	65.000000
470.379838	470.530175	62.000000	80.000000
470.530175	470.680513	65.000000	71.000000
470.680513	470.835129	71.000000	70.000000
470.835129	470.980934	64.000000	77.000000
470.835129	470.980934	72.000000	82.000000
470.835129	471.272544	36.000000	50.000000
470.835129	471.272544	48.000000	60.000000
470.980934	471.126739	55.000000	75.000000
471.126739	471.272544	52.000000	77.000000
471.272544	471.418349	55.000000	82.000000
471.272544	472.149681	43.000000	60.000000
471.418349	471.564154	60.000000	77.000000
471.564154	471.713916	64.000000	77.000000
471.713916	471.859171	62.000000	82.000000
471.859171	472.004426	59.000000	77.000000
472.004426	472.149681	55.000000	77.000000
472.149681	472.294936	59.000000	82.000000
472.149681	473.021440	43.000000	60.000000
472.294936	472.440191	62.000000	77.000000
472.440191	472.590529	65.000000	77.000000
472.590529	472.734175	64.000000	82.000000
472.734175	472.877807	60.000000	75.000000
472.877807	473.021440	55.000000	77.000000
473.021440	473.165072	60.000000	82.000000
473.021440	473.892206	43.000000	60.000000
473.165072	473.308704	64.000000	77.000000
473.308704	473.458466	67.000000	77.000000
473.458466	473.601025	65.000000	82.000000
473.601025	473.743598	62.000000	77.000000
473.743598	473.892206	59.000000	77.000000
473.892206	474.034779	71.000000	82.000000
473.892206	474.319925	43.000000	60.000000
474.034779	474.177352	65.000000	77.000000
474.177352	474.319925	62.000000	77.000000
474.319925	474.746074	64.000000	63.000000
474.319925	474.746074	72.000000	75.000000
474.319925	474.461975	48.000000	73.000000
474.461975	474.604024	43.000000	67.000000
474.604024	474.746074	40.000000	69.000000
474.746074	475.606367	67.000000	75.000000
474.746074	474.888124	43.000000	73.000000
474.888124	475.030174	48.000000	69.000000
475.030174	475.177079	52.000000	69.000000
475.177079	475.320175	50.000000	73.000000
475.320175	475.463271	47.000000	69.000000
475.463271	475.606367	43.000000	69.000000
475.606367	476.469314	67.000000	75.000000
475.606367	475.749463	47.000000	73.000000
475.749463	475.892559	50.000000	69.000000
475.892559	476.040026	53.000000	69.000000
476.040026	476.183122	52.000000	73.000000
476.183122	476.326218	48.000000	67.000000
476.326218	476.469314	43.000000	69.000000
476.469314	477.338297	67.000000	75.000000
476.469314	476.612410	48.000000	73.000000
476.612410	476.755506	52.000000	69.000000
476.755506	476.902974	55.000000	69.000000
476.902974	477.046620	53.000000	73.000000
477.046620	477.190252	50.000000	69.000000
477.190252	477.338297	47.000000	69.000000
477.338297	477.771487	67.000000	75.000000
477.338297	477.480870	59.000000	73.000000
477.480870	477.623443	53.000000	69.000000
477.623443	477.771487	50.000000	69.000000
477.771487	477.913537	72.000000	82.000000
477.771487	477.913537	52.000000	64.000000
477.913537	478.055587	67.000000	75.000000
477.913537	478.055587	55.000000	56.000000
478.055587	478.197637	64.000000	77.000000
478.055587	478.197637	60.000000	56.000000
478.197637	478.339687	67.000000	82.000000
478.197637	478.339687	55.000000	64.000000
478.339687	478.481737	72.000000	77.000000
478.339687	478.481737	52.000000	57.000000
478.481737	478.628641	76.000000	77.000000
478.481737	478.628641	48.000000	57.000000
478.628641	478.771214	74.000000	82.000000
478.628641	478.771214	47.000000	64.000000
478.771214	478.913787	71.000000	77.000000
478.771214	478.913787	50.000000	56.000000
478.913787	479.056360	67.000000	77.000000
478.913787	479.056360	53.000000	56.000000
479.056360	479.198933	71.000000	82.000000
479.056360	479.198933	50.000000	64.000000
479.198933	479.341506	74.000000	77.000000
479.198933	479.341506	47.000000	57.000000
479.341506	479.487861	77.000000	77.000000
479.341506	479.487861	43.000000	58.000000
479.487861	479.629401	76.000000	82.000000
479.493172	479.634712	48.000000	64.000000
479.629401	479.770941	72.000000	75.000000
479.629401	479.770941	52.000000	56.000000
479.770941	479.912468	67.000000	77.000000
479.770941	479.912468	55.000000	56.000000
479.912468	480.053995	72.000000	82.000000
479.912468	480.053995	52.000000	64.000000
480.053995	480.195522	76.000000	77.000000
480.053995	480.195522	48.000000	57.000000
480.195522	480.350688	79.000000	77.000000
480.201342	480.356012	43.000000	57.000000
480.350688	480.492724	77.000000	82.000000
480.350688	480.492724	47.000000	64.000000
480.492724	480.634774	74.000000	77.000000
480.492724	480.634774	53.000000	56.000000
480.634774	480.788103	71.000000	77.000000
480.640528	480.793414	55.000000	56.000000
480.788103	480.929643	83.000000	82.000000
480.788103	480.929643	53.000000	64.000000
480.929643	481.071170	77.000000	77.000000
480.929643	481.071170	55.000000	57.000000
481.071170	481.212697	74.000000	77.000000
481.071170	481.212697	62.000000	58.000000
481.212697	481.424229	84.000000	82.000000
481.212697	481.353727	52.000000	64.000000
481.353727	481.494731	79.000000	74.000000
481.353727	481.494731	55.000000	55.000000
481.494731	481.635748	76.000000	74.000000
481.494731	481.635748	60.000000	55.000000
481.635748	481.847268	79.000000	79.000000
481.635748	481.776766	48.000000	62.000000
481.776766	481.917769	76.000000	73.000000
481.776766	481.917769	52.000000	55.000000
481.917769	482.064124	72.000000	72.000000
481.917769	482.064124	55.000000	54.000000
482.064124	482.274866	77.000000	77.000000
482.064124	482.204619	50.000000	59.000000
482.204619	482.345113	74.000000	71.000000
482.204619	482.345113	53.000000	51.000000
482.345113	482.485607	71.000000	70.000000
482.345113	482.485607	55.000000	51.000000
482.485607	482.696348	83.000000	74.000000
482.485607	482.626101	53.000000	57.000000
482.626101	482.766595	79.000000	69.000000
482.626101	482.766595	55.000000	51.000000
482.766595	482.921144	74.000000	67.000000
482.766595	482.921144	62.000000	51.000000
482.921144	483.131121	84.000000	72.000000
482.921144	483.061129	52.000000	56.000000
483.061129	483.201113	79.000000	65.000000
483.061129	483.201113	55.000000	48.000000
483.201113	483.341098	76.000000	65.000000
483.201113	483.341098	60.000000	48.000000
483.341098	483.551075	79.000000	70.000000
483.341098	483.481083	48.000000	54.000000
483.481083	483.621067	76.000000	64.000000
483.481083	483.621067	52.000000	48.000000
483.621067	483.767972	72.000000	63.000000
483.621067	483.767972	55.000000	47.000000
483.767972	483.977211	77.000000	67.000000
483.767972	483.907460	50.000000	51.000000
483.907460	484.046962	74.000000	62.000000
483.907460	484.046962	53.000000	44.000000
484.046962	484.186450	71.000000	60.000000
484.046962	484.186450	55.000000	44.000000
484.186450	484.395690	83.000000	64.000000
484.186450	484.325939	53.000000	50.000000
484.325939	484.465441	79.000000	59.000000
484.325939	484.465441	55.000000	44.000000
484.465441	484.619990	74.000000	58.000000
484.465441	484.619990	62.000000	44.000000
484.619990	484.723483	84.000000	64.000000
484.619990	484.723483	52.000000	50.000000
484.723483	484.826788	79.000000	58.000000
484.723483	484.826788	55.000000	43.000000
484.826788	484.929852	76.000000	58.000000
484.826788	484.929852	48.000000	43.000000
484.929852	485.032607	72.000000	59.000000
484.929852	485.032607	55.000000	44.000000
485.032607	485.135068	77.000000	65.000000
485.032607	485.135068	50.000000	51.000000
485.135068	485.237287	74.000000	59.000000
485.135068	485.237287	55.000000	44.000000
485.237287	485.339265	83.000000	62.000000
485.237287	485.339265	53.000000	44.000000
485.339265	485.440934	79.000000	63.000000
485.339265	485.440934	55.000000	44.000000
485.440934	485.542321	84.000000	69.000000
485.440934	485.542321	52.000000	52.000000
485.542321	485.643642	79.000000	63.000000
485.542321	485.643642	55.000000	46.000000
485.643642	485.744962	76.000000	63.000000
485.643642	485.744962	48.000000	47.000000
485.744962	485.846283	72.000000	64.000000
485.744962	485.846283	55.000000	49.000000
485.846283	485.947603	77.000000	71.000000
485.846283	485.947603	50.000000	55.000000
485.947603	486.048924	74.000000	66.000000
485.947603	486.048924	55.000000	48.000000
486.048924	486.150244	83.000000	67.000000
486.048924	486.150244	53.000000	48.000000
486.150244	486.258136	79.000000	67.000000
486.150244	486.258136	55.000000	49.000000
486.258136	486.358759	84.000000	74.000000
486.258136	486.358759	52.000000	58.000000
486.358759	486.459208	79.000000	67.000000
486.358759	486.459208	55.000000	50.000000
486.459208	486.559469	83.000000	69.000000
486.459208	486.559469	53.000000	51.000000
486.559469	486.659449	79.000000	69.000000
486.559469	486.659449	55.000000	52.000000
486.659449	486.759321	84.000000	77.000000
486.659449	486.759321	52.000000	60.000000
486.759321	486.858898	79.000000	77.000000
486.759321	486.858898	55.000000	52.000000
486.858898	486.958314	83.000000	72.000000
486.858898	486.958314	53.000000	52.000000
486.958314	487.057556	79.000000	73.000000
486.958314	487.057556	55.000000	54.000000
487.057556	487.156449	84.000000	80.000000
487.057556	487.156449	52.000000	62.000000
487.156449	487.255342	79.000000	73.000000
487.156449	487.255342	55.000000	55.000000
487.255342	487.354235	83.000000	74.000000
487.255342	487.354235	53.000000	55.000000
487.354235	487.453128	79.000000	74.000000
487.354235	487.453128	55.000000	57.000000
487.453128	487.552021	84.000000	82.000000
487.453128	487.552021	52.000000	65.000000
487.552021	487.650915	79.000000	85.000000
487.552021	487.650915	55.000000	57.000000
487.650915	487.749808	83.000000	78.000000
487.650915	487.749808	53.000000	57.000000
487.749808	487.858343	79.000000	79.000000
487.749808	487.858343	55.000000	58.000000
487.858343	487.956901	84.000000	89.000000
487.858343	487.956901	52.000000	70.000000
487.956901	488.055459	79.000000	81.000000
487.956901	488.055459	55.000000	60.000000
488.055459	488.153910	82.000000	81.000000
488.055459	488.153910	40.000000	60.000000
488.153910	488.252145	79.000000	81.000000
488.153910	488.252145	48.000000	62.000000
488.252145	488.350368	82.000000	89.000000
488.252145	488.350368	40.000000	70.000000
488.350368	488.448376	79.000000	83.000000
488.350368	488.448376	48.000000	60.000000
488.448376	488.546277	82.000000	82.000000
488.448376	488.546277	40.000000	60.000000
488.546277	488.644124	79.000000	82.000000
488.546277	488.644124	48.000000	60.000000
488.644124	488.741689	82.000000	89.000000
488.644124	488.741689	40.000000	70.000000
488.741689	488.839255	79.000000	81.000000
488.741689	488.839255	48.000000	60.000000
488.839255	488.936820	82.000000	81.000000
488.839255	488.936820	40.000000	60.000000
488.936820	489.034385	79.000000	81.000000
488.936820	489.034385	48.000000	62.000000
489.034385	489.131951	82.000000	89.000000
489.034385	489.131951	40.000000	70.000000
489.131951	489.229516	79.000000	83.000000
489.131951	489.229516	48.000000	60.000000
489.229516	489.327082	82.000000	82.000000
489.229516	489.327082	40.000000	60.000000
489.327082	489.428402	79.000000	82.000000
489.327082	489.428402	48.000000	60.000000
489.428402	489.618410	82.000000	89.000000
489.428402	489.523406	40.000000	70.000000
489.523406	489.618410	48.000000	60.000000
489.618410	489.713414	81.000000	81.000000
489.618410	489.713414	40.000000	60.000000
489.713414	489.808418	79.000000	81.000000
489.713414	489.808418	48.000000	62.000000
489.808418	489.903422	77.000000	84.000000
489.808418	489.903422	40.000000	70.000000
489.903422	489.998426	76.000000	78.000000
489.903422	489.998426	48.000000	60.000000
489.998426	490.093430	74.000000	78.000000
489.998426	490.093430	40.000000	60.000000
490.093430	490.188433	72.000000	80.000000
490.093430	490.188433	48.000000	61.000000
490.188433	490.283437	70.000000	84.000000
490.188433	490.283437	40.000000	71.000000
490.283437	490.378441	69.000000	80.000000
490.283437	490.378441	48.000000	61.000000
490.378441	490.473445	67.000000	80.000000
490.378441	490.473445	40.000000	61.000000
490.473445	490.568449	65.000000	81.000000
490.473445	490.568449	48.000000	63.000000
490.568449	490.663453	64.000000	86.000000
490.568449	490.663453	40.000000	72.000000
490.663453	490.758457	62.000000	84.000000
490.663453	490.758457	48.000000	62.000000
490.758457	490.853461	60.000000	85.000000
490.758457	490.853461	40.000000	62.000000
490.853461	490.948465	58.000000	85.000000
490.853461	490.948465	48.000000	62.000000
490.948465	491.042785	57.000000	93.000000
490.948465	491.089348	41.000000	67.000000
490.948465	491.089348	45.000000	67.000000
490.948465	491.089348	48.000000	80.000000
491.042785	491.136193	59.000000	81.000000
491.136193	491.229681	60.000000	81.000000
491.136193	491.276164	41.000000	60.000000
491.136193	491.276164	45.000000	60.000000
491.136193	491.276164	48.000000	73.000000
491.229681	491.323558	59.000000	81.000000
491.323558	491.416832	60.000000	92.000000
491.416832	491.510589	64.000000	81.000000
491.510589	491.608490	65.000000	81.000000
491.510589	491.657440	41.000000	60.000000
491.510589	491.657440	45.000000	60.000000
491.510589	491.657440	48.000000	73.000000
491.608490	491.706390	64.000000	82.000000
491.706390	491.798793	65.000000	93.000000
491.706390	491.846026	41.000000	67.000000
491.706390	491.846026	45.000000	67.000000
491.706390	491.846026	48.000000	80.000000
491.798793	491.893126	68.000000	80.000000
491.893126	491.986279	69.000000	80.000000
491.893126	492.033620	41.000000	60.000000
491.893126	492.033620	45.000000	60.000000
491.893126	492.033620	48.000000	73.000000
491.986279	492.080425	68.000000	81.000000
492.080425	492.173940	69.000000	93.000000
492.173940	492.266825	71.000000	83.000000
492.266825	492.364390	72.000000	83.000000
492.266825	492.413180	41.000000	60.000000
492.266825	492.413180	45.000000	60.000000
492.266825	492.413180	48.000000	73.000000
492.364390	492.461969	71.000000	83.000000
492.461969	492.555417	72.000000	95.000000
492.461969	492.601498	41.000000	67.000000
492.461969	492.601498	45.000000	67.000000
492.461969	492.601498	48.000000	78.000000
492.555417	492.647793	76.000000	84.000000
492.647793	492.741831	77.000000	84.000000
492.647793	492.788488	41.000000	60.000000
492.647793	492.788488	45.000000	60.000000
492.647793	492.788488	48.000000	73.000000
492.741831	492.834542	76.000000	84.000000
492.834542	492.927789	77.000000	95.000000
492.927789	493.020861	80.000000	82.000000
493.020861	493.117783	81.000000	82.000000
493.020861	493.166237	41.000000	60.000000
493.020861	493.166237	45.000000	60.000000
493.020861	493.166237	48.000000	73.000000
493.117783	493.214691	80.000000	82.000000
493.214691	493.307590	81.000000	95.000000
493.214691	493.354569	41.000000	67.000000
493.214691	493.354569	45.000000	67.000000
493.214691	493.354569	48.000000	78.000000
493.307590	493.401038	83.000000	82.000000
493.401038	493.493574	84.000000	82.000000
493.401038	493.539869	41.000000	60.000000
493.401038	493.539869	45.000000	60.000000
493.401038	493.539869	48.000000	73.000000
493.493574	493.586164	83.000000	82.000000
493.586164	493.679827	84.000000	95.000000
493.679827	493.773289	83.000000	82.000000
493.773289	493.874260	81.000000	83.000000
493.773289	493.924740	41.000000	60.000000
493.773289	493.924740	45.000000	60.000000
493.773289	493.924740	48.000000	73.000000
493.874260	493.975219	80.000000	83.000000
493.975219	494.068117	81.000000	95.000000
493.975219	494.114104	48.000000	67.000000
493.975219	494.114104	42.000000	67.000000
493.975219	494.114104	45.000000	67.000000
493.975219	494.114104	50.000000	78.000000
494.068117	494.160640	80.000000	83.000000
494.160640	494.254289	81.000000	83.000000
494.160640	494.300383	48.000000	60.000000
494.160640	494.300383	42.000000	60.000000
494.160640	494.300383	45.000000	60.000000
494.160640	494.300383	50.000000	73.000000
494.254289	494.347027	83.000000	83.000000
494.347027	494.441213	84.000000	95.000000
494.441213	494.534272	83.000000	85.000000
494.534272	494.631194	81.000000	85.000000
494.534272	494.679648	48.000000	60.000000
494.534272	494.679648	42.000000	60.000000
494.534272	494.679648	45.000000	60.000000
494.534272	494.679648	50.000000	73.000000
494.631194	494.728102	80.000000	85.000000
494.728102	494.820571	81.000000	95.000000
494.728102	494.867161	48.000000	67.000000
494.728102	494.867161	42.000000	67.000000
494.728102	494.867161	45.000000	67.000000
494.728102	494.867161	50.000000	78.000000
494.820571	494.914408	80.000000	84.000000
494.914408	495.007816	81.000000	84.000000
494.914408	495.055023	48.000000	60.000000
494.914408	495.055023	42.000000	60.000000
494.914408	495.055023	45.000000	60.000000
494.914408	495.055023	50.000000	73.000000
495.007816	495.102190	83.000000	84.000000
495.102190	495.195303	84.000000	95.000000
495.195303	495.288764	83.000000	84.000000
495.288764	495.385364	81.000000	84.000000
495.288764	495.433657	48.000000	60.000000
495.288764	495.433657	42.000000	60.000000
495.288764	495.433657	45.000000	60.000000
495.288764	495.433657	50.000000	73.000000
495.385364	495.481951	80.000000	84.000000
495.481951	495.574621	81.000000	95.000000
495.481951	495.621117	48.000000	67.000000
495.481951	495.621117	42.000000	67.000000
495.481951	495.621117	45.000000	67.000000
495.481951	495.621117	50.000000	78.000000
495.574621	495.668579	80.000000	84.000000
495.668579	495.761813	81.000000	84.000000
495.668579	495.808537	48.000000	60.000000
495.668579	495.808537	42.000000	60.000000
495.668579	495.808537	45.000000	60.000000
495.668579	495.808537	50.000000	73.000000
495.761813	495.855261	83.000000	84.000000
495.855261	495.948561	84.000000	95.000000
495.948561	496.041688	83.000000	83.000000
496.041688	496.138610	81.000000	83.000000
496.041688	496.187064	48.000000	60.000000
496.041688	496.187064	42.000000	60.000000
496.041688	496.187064	45.000000	60.000000
496.041688	496.187064	50.000000	73.000000
496.138610	496.235518	80.000000	83.000000
496.235518	496.329462	81.000000	95.000000
496.235518	496.376468	48.000000	67.000000
496.235518	496.376468	42.000000	67.000000
496.235518	496.376468	45.000000	67.000000
496.235518	496.376468	50.000000	78.000000
496.329462	496.422803	80.000000	83.000000
496.422803	496.516681	81.000000	83.000000
496.422803	496.563566	48.000000	60.000000
496.422803	496.563566	42.000000	60.000000
496.422803	496.563566	45.000000	60.000000
496.422803	496.563566	50.000000	73.000000
496.516681	496.610276	83.000000	83.000000
496.610276	496.703738	84.000000	95.000000
496.703738	496.796905	83.000000	84.000000
496.796905	496.893504	84.000000	84.000000
496.796905	496.941798	48.000000	60.000000
496.796905	496.941798	42.000000	60.000000
496.796905	496.941798	45.000000	60.000000
496.796905	496.941798	50.000000	73.000000
496.893504	496.990091	81.000000	86.000000
496.990091	497.083566	67.000000	87.000000
496.990091	497.083566	79.000000	103.000000
496.990091	497.083566	43.000000	78.000000
497.083566	497.177041	48.000000	70.000000
497.177041	497.270516	67.000000	73.000000
497.177041	497.270516	79.000000	87.000000
497.177041	497.270516	52.000000	70.000000
497.270516	497.363991	55.000000	70.000000
497.363991	497.458686	64.000000	74.000000
497.363991	497.458686	76.000000	88.000000
497.363991	497.458686	43.000000	77.000000
497.458686	497.553382	48.000000	70.000000
497.553382	497.648077	60.000000	73.000000
497.553382	497.648077	72.000000	87.000000
497.553382	497.648077	52.000000	70.000000
497.648077	497.742773	55.000000	70.000000
497.742773	497.836248	72.000000	87.000000
497.742773	497.836248	84.000000	103.000000
497.742773	497.836248	43.000000	75.000000
497.836248	497.929723	48.000000	70.000000
497.929723	498.023198	72.000000	73.000000
497.929723	498.023198	84.000000	87.000000
497.929723	498.023198	52.000000	70.000000
498.023198	498.116673	55.000000	70.000000
498.116673	498.211999	67.000000	73.000000
498.116673	498.211999	79.000000	87.000000
498.116673	498.211999	43.000000	75.000000
498.211999	498.307324	48.000000	70.000000
498.307324	498.402650	64.000000	73.000000
498.307324	498.402650	76.000000	87.000000
498.307324	498.402650	52.000000	70.000000
498.402650	498.497359	55.000000	70.000000
498.497359	498.590834	67.000000	87.000000
498.497359	498.590834	79.000000	103.000000
498.497359	498.590834	43.000000	78.000000
498.590834	498.684309	48.000000	70.000000
498.684309	498.777784	67.000000	73.000000
498.684309	498.777784	79.000000	87.000000
498.684309	498.777784	52.000000	70.000000
498.777784	498.871259	55.000000	70.000000
498.871259	498.965646	64.000000	74.000000
498.871259	498.965646	76.000000	88.000000
498.871259	498.965646	43.000000	77.000000
498.965646	499.060033	48.000000	70.000000
499.060033	499.154420	60.000000	73.000000
499.060033	499.154420	72.000000	87.000000
499.060033	499.154420	52.000000	70.000000
499.154420	499.248807	55.000000	70.000000
499.248807	499.342282	72.000000	87.000000
499.248807	499.342282	84.000000	103.000000
499.248807	499.342282	52.000000	75.000000
499.435757	499.529232	72.000000	73.000000
499.435757	499.529232	84.000000	87.000000
499.435757	499.529232	52.000000	70.000000
499.622707	499.717403	67.000000	73.000000
499.622707	499.717403	79.000000	87.000000
499.622707	499.717403	48.000000	75.000000
499.812098	499.906794	64.000000	73.000000
499.812098	499.906794	76.000000	87.000000
499.812098	499.906794	43.000000	70.000000
500.001489	500.095192	55.000000	86.000000
500.095192	500.188801	84.000000	47.000000
500.188801	500.375376	88.000000	50.000000
500.188801	500.282209	52.000000	47.000000
500.282209	500.375376	84.000000	47.000000
500.375376	500.560945	91.000000	51.000000
500.375376	500.468261	60.000000	53.000000
500.468261	500.560945	88.000000	47.000000
500.560945	500.745695	91.000000	50.000000
500.560945	500.653441	55.000000	48.000000
500.653441	500.745695	88.000000	47.000000
500.745695	500.930848	91.000000	51.000000
500.745695	500.838272	64.000000	52.000000
500.838272	500.930848	88.000000	47.000000
500.930848	501.116001	91.000000	50.000000
500.930848	501.023425	60.000000	41.000000
501.023425	501.116001	88.000000	47.000000
501.116001	501.301154	91.000000	52.000000
501.116001	501.208578	67.000000	50.000000
501.208578	501.301154	88.000000	47.000000
501.301154	501.486307	91.000000	51.000000
501.301154	501.393731	64.000000	41.000000
501.393731	501.486307	88.000000	47.000000
501.486307	501.672466	91.000000	50.000000
501.486307	501.579286	72.000000	50.000000
501.579286	501.672466	88.000000	47.000000
501.672466	501.858826	91.000000	50.000000
501.672466	501.765646	67.000000	41.000000
501.765646	501.858826	88.000000	47.000000
501.858826	502.045186	91.000000	51.000000
501.858826	501.952006	76.000000	50.000000
501.952006	502.045186	88.000000	47.000000
502.045186	502.231546	91.000000	50.000000
502.045186	502.138366	72.000000	39.000000
502.138366	502.231546	88.000000	47.000000
502.231546	502.418107	91.000000	51.000000
502.231546	502.324726	79.000000	50.000000
502.324726	502.418107	88.000000	47.000000
502.418107	502.605768	91.000000	50.000000
502.418107	502.511784	76.000000	41.000000
502.511784	502.605768	88.000000	47.000000
502.605768	502.794663	91.000000	52.000000
502.605768	502.700061	84.000000	50.000000
502.700061	502.794663	88.000000	47.000000
502.794663	502.984792	91.000000	51.000000
502.794663	502.889573	79.000000	42.000000
502.889573	502.984792	88.000000	47.000000
502.984792	503.078884	83.000000	46.000000
503.078884	503.172359	89.000000	42.000000
503.172359	503.359215	91.000000	45.000000
503.172359	503.265834	79.000000	37.000000
503.265834	503.359215	89.000000	41.000000
503.359215	503.545468	92.000000	44.000000
503.359215	503.452395	83.000000	43.000000
503.452395	503.545468	89.000000	40.000000
503.545468	503.731130	91.000000	42.000000
503.545468	503.638352	79.000000	36.000000
503.638352	503.731130	89.000000	39.000000
503.731130	503.914017	92.000000	42.000000
503.731130	503.823063	83.000000	41.000000
503.823063	503.914017	89.000000	38.000000
503.914017	504.097654	91.000000	40.000000
503.914017	504.006231	79.000000	32.000000
504.006231	504.097654	89.000000	37.000000
504.097654	504.279978	92.000000	40.000000
504.097654	504.188930	83.000000	39.000000
504.188930	504.279978	89.000000	36.000000
504.279978	504.462220	91.000000	39.000000
504.279978	504.371951	79.000000	31.000000
504.371951	504.462220	89.000000	35.000000
504.462220	504.643551	92.000000	37.000000
504.462220	504.552128	83.000000	36.000000
504.552128	504.643551	89.000000	34.000000
504.643551	504.823662	91.000000	36.000000
504.643551	504.733244	79.000000	30.000000
504.733244	504.823662	89.000000	34.000000
504.823662	505.005220	92.000000	37.000000
504.823662	504.914991	83.000000	36.000000
504.914991	505.005220	89.000000	34.000000
505.005220	505.189462	91.000000	36.000000
505.005220	505.097126	79.000000	31.000000
505.097126	505.189462	89.000000	34.000000
505.189462	505.375915	92.000000	37.000000
505.189462	505.282642	83.000000	36.000000
505.282642	505.375915	89.000000	34.000000
505.375915	505.563174	91.000000	36.000000
505.375915	505.469390	79.000000	29.000000
505.469390	505.563174	89.000000	34.000000
505.563174	505.751344	92.000000	38.000000
505.563174	505.657159	83.000000	36.000000
505.657159	505.751344	89.000000	34.000000
505.751344	505.939984	91.000000	37.000000
505.751344	505.845731	79.000000	30.000000
505.845731	505.939984	89.000000	34.000000
505.939984	506.130113	93.000000	37.000000
505.939984	506.003580	83.000000	37.000000
506.003580	506.067175	84.000000	32.000000
506.035256	506.130113	89.000000	34.000000
506.067175	506.130113	83.000000	36.000000
506.130113	506.318525	91.000000	36.000000
506.130113	506.192903	84.000000	31.000000
506.192903	506.256271	83.000000	36.000000
506.224580	506.318525	89.000000	35.000000
506.256271	506.318525	84.000000	33.000000
506.318525	506.506575	93.000000	38.000000
506.318525	506.380658	83.000000	37.000000
506.380658	506.443878	84.000000	33.000000
506.412201	506.506575	89.000000	36.000000
506.443878	506.506575	83.000000	37.000000
506.506575	506.694021	91.000000	38.000000
506.506575	506.569177	84.000000	33.000000
506.569177	506.631954	83.000000	38.000000
506.600747	506.694021	89.000000	36.000000
506.631954	506.694021	84.000000	34.000000
506.694021	506.881454	93.000000	40.000000
506.694021	506.756946	83.000000	38.000000
506.756946	506.818824	84.000000	35.000000
506.788032	506.881454	89.000000	37.000000
506.818824	506.881454	83.000000	39.000000
506.881454	507.067733	91.000000	40.000000
506.881454	506.944030	84.000000	35.000000
506.944030	507.005493	83.000000	39.000000
506.974821	507.067733	89.000000	38.000000
507.005493	507.067733	84.000000	36.000000
507.067733	507.254965	93.000000	43.000000
507.067733	507.130604	83.000000	40.000000
507.130604	507.192483	84.000000	36.000000
507.161691	507.254965	89.000000	39.000000
507.192483	507.254965	83.000000	40.000000
507.254965	507.440762	91.000000	43.000000
507.254965	507.317326	84.000000	36.000000
507.317326	507.378964	83.000000	41.000000
507.348172	507.440762	89.000000	40.000000
507.378964	507.440762	84.000000	37.000000
507.440762	507.534116	93.000000	44.000000
507.440762	507.502667	83.000000	41.000000
507.502667	507.565176	84.000000	36.000000
507.565176	507.626129	83.000000	42.000000
507.626129	507.719698	89.000000	43.000000
507.626129	507.719698	91.000000	43.000000
507.626129	507.688249	84.000000	37.000000
507.688249	507.750758	83.000000	42.000000
507.750758	507.812436	84.000000	37.000000
507.812436	507.906340	89.000000	46.000000
507.812436	507.906340	91.000000	46.000000
507.812436	507.875012	83.000000	43.000000
507.875012	507.937252	84.000000	38.000000
507.937252	507.998796	83.000000	43.000000
507.998796	508.092123	89.000000	46.000000
507.998796	508.092123	91.000000	46.000000
507.998796	508.061278	84.000000	39.000000
508.061278	508.122566	83.000000	44.000000
508.122566	508.184485	84.000000	39.000000
508.184485	508.277772	89.000000	49.000000
508.184485	508.277772	91.000000	49.000000
508.184485	508.247007	83.000000	44.000000
508.247007	508.308618	84.000000	38.000000
508.308618	508.371194	83.000000	45.000000
508.371194	508.463837	89.000000	49.000000
508.371194	508.463837	91.000000	49.000000
508.371194	508.432898	84.000000	38.000000
508.432898	508.495259	83.000000	45.000000
508.495259	508.557299	84.000000	40.000000
508.557299	508.650197	89.000000	54.000000
508.557299	508.650197	91.000000	54.000000
508.557299	508.650197	83.000000	50.000000
508.650197	508.744289	84.000000	44.000000
508.744289	508.840889	89.000000	53.000000
508.744289	508.840889	91.000000	53.000000
508.744289	508.840889	81.000000	52.000000
508.840889	508.941512	83.000000	47.000000
508.941512	510.083799	84.000000	82.000000
508.941512	511.959844	60.000000	52.000000
508.941512	509.709899	72.000000	62.000000
509.709899	510.457699	64.000000	38.000000
509.709899	510.457699	67.000000	38.000000
509.709899	510.457699	70.000000	45.000000
510.083799	510.177274	84.000000	58.000000
510.177274	510.270749	82.000000	57.000000
510.270749	510.364224	80.000000	56.000000
510.364224	510.457699	79.000000	55.000000
510.457699	510.551174	80.000000	58.000000
510.457699	511.210917	65.000000	39.000000
510.457699	511.210917	68.000000	47.000000
510.551174	510.644649	79.000000	57.000000
510.644649	510.738124	77.000000	56.000000
510.738124	510.831599	76.000000	55.000000
510.831599	510.925074	77.000000	51.000000
510.925074	511.018549	79.000000	52.000000
511.018549	511.112024	80.000000	53.000000
511.112024	511.210917	82.000000	54.000000
511.210917	511.304392	84.000000	56.000000
511.210917	511.959844	64.000000	39.000000
511.210917	511.959844	67.000000	39.000000
511.210917	511.959844	70.000000	46.000000
511.304392	511.397867	85.000000	57.000000
511.397867	511.491343	84.000000	57.000000
511.491343	511.584818	83.000000	56.000000
511.584818	511.678293	84.000000	56.000000
511.678293	511.771969	82.000000	56.000000
511.771969	511.865752	80.000000	56.000000
511.865752	511.959844	79.000000	56.000000
511.959844	512.054030	80.000000	57.000000
511.959844	512.337714	68.000000	48.000000
511.959844	512.337714	65.000000	40.000000
512.054030	512.148417	82.000000	57.000000
512.148417	512.243019	80.000000	57.000000
512.243019	512.337714	79.000000	53.000000
512.337714	512.432718	77.000000	56.000000
512.432718	512.527829	76.000000	52.000000
512.527829	512.623155	77.000000	56.000000
512.623155	512.718481	79.000000	52.000000
512.718481	513.502437	68.000000	45.000000
512.718481	513.107428	80.000000	59.000000
512.718481	513.502437	65.000000	47.000000
512.718481	513.502437	61.000000	39.000000
512.718481	513.502437	56.000000	39.000000
512.718481	513.502437	53.000000	39.000000
513.107428	513.301902	77.000000	52.000000
513.301902	513.502437	73.000000	52.000000
513.502437	514.287105	67.000000	45.000000
513.502437	513.891398	79.000000	57.000000
513.502437	514.287105	60.000000	39.000000
513.502437	514.287105	55.000000	39.000000
513.502437	514.287105	63.000000	46.000000
513.891398	514.085872	75.000000	52.000000
514.085872	514.287105	72.000000	52.000000
514.287105	515.067641	65.000000	45.000000
514.287105	514.677380	77.000000	57.000000
514.287105	515.067641	55.000000	37.000000
514.287105	515.067641	59.000000	37.000000
514.287105	515.067641	62.000000	44.000000
514.677380	514.872511	74.000000	52.000000
514.872511	515.067641	71.000000	52.000000
515.067641	516.207943	72.000000	72.000000
515.067641	515.835250	60.000000	56.000000
515.067641	518.077524	48.000000	45.000000
515.835250	516.580663	52.000000	38.000000
515.835250	516.580663	55.000000	38.000000
515.835250	516.580663	58.000000	45.000000
516.207943	516.301123	72.000000	58.000000
516.301123	516.394303	70.000000	57.000000
516.394303	516.487483	69.000000	56.000000
516.487483	516.580663	67.000000	55.000000
516.580663	516.673843	69.000000	58.000000
516.580663	517.331816	53.000000	39.000000
516.580663	517.331816	57.000000	47.000000
516.673843	516.767023	67.000000	57.000000
516.767023	516.860203	65.000000	56.000000
516.860203	516.953383	64.000000	55.000000
516.953383	517.046563	65.000000	51.000000
517.046563	517.139743	67.000000	52.000000
517.139743	517.232923	69.000000	53.000000
517.232923	517.331816	70.000000	54.000000
517.331816	517.425291	72.000000	56.000000
517.331816	518.077524	55.000000	39.000000
517.331816	518.077524	58.000000	46.000000
517.331816	518.077524	52.000000	39.000000
517.425291	517.518766	74.000000	57.000000
517.518766	517.612241	72.000000	57.000000
517.612241	517.705716	71.000000	56.000000
517.705716	517.798293	72.000000	56.000000
517.798293	517.891071	70.000000	56.000000
517.891071	517.984143	69.000000	56.000000
517.984143	518.077524	67.000000	56.000000
518.077524	518.171201	69.000000	57.000000
518.077524	518.454080	53.000000	48.000000
518.077524	518.454080	57.000000	48.000000
518.171201	518.265185	70.000000	57.000000
518.265185	518.359478	69.000000	57.000000
518.359478	518.454080	67.000000	53.000000
518.454080	518.548990	65.000000	56.000000
518.548990	518.644209	64.000000	52.000000
518.644209	518.739735	65.000000	56.000000
518.739735	518.835584	67.000000	52.000000
518.835584	519.618307	57.000000	45.000000
518.835584	519.223244	69.000000	59.000000
518.835584	519.618307	41.000000	39.000000
518.835584	519.618307	50.000000	47.000000
518.835584	519.618307	45.000000	39.000000
519.223244	519.417074	65.000000	52.000000
519.417074	519.618307	62.000000	52.000000
519.618307	521.186140	55.000000	45.000000
519.618307	520.007254	67.000000	57.000000
519.618307	520.402961	48.000000	39.000000
519.618307	521.186140	43.000000	39.000000
519.618307	520.402961	52.000000	46.000000
520.007254	520.201728	64.000000	52.000000
520.201728	520.402961	60.000000	52.000000
520.402961	520.791908	65.000000	57.000000
520.402961	521.186140	50.000000	37.000000
520.402961	521.186140	53.000000	44.000000
520.791908	520.989024	62.000000	52.000000
520.989024	521.186140	59.000000	52.000000
521.186140	521.588726	55.000000	51.000000
521.186140	521.588726	60.000000	55.000000
521.186140	521.588726	48.000000	37.000000
521.186140	521.588726	52.000000	44.000000
521.588726	521.785842	72.000000	68.000000
521.588726	522.180073	48.000000	51.000000
521.588726	521.982957	40.000000	42.000000
521.785842	521.982957	71.000000	64.000000
521.982957	522.377189	69.000000	66.000000
521.982957	522.778367	41.000000	42.000000
522.180073	522.377189	50.000000	49.000000
522.377189	522.574304	65.000000	61.000000
522.377189	522.574304	52.000000	51.000000
522.574304	522.778367	62.000000	54.000000
522.574304	522.778367	53.000000	55.000000
522.778367	523.173966	67.000000	51.000000
522.778367	524.360751	43.000000	35.000000
522.778367	523.569566	52.000000	35.000000
522.778367	523.569566	55.000000	41.000000
523.173966	523.371766	64.000000	46.000000
523.371766	523.569566	60.000000	46.000000
523.569566	523.965151	65.000000	51.000000
523.569566	524.360751	50.000000	33.000000
523.569566	524.360751	53.000000	39.000000
523.965151	524.162951	62.000000	46.000000
524.162951	524.360751	59.000000	46.000000
524.360751	524.755317	60.000000	55.000000
524.360751	524.755317	52.000000	44.000000
524.360751	524.755317	48.000000	37.000000
524.755317	524.953117	77.000000	68.000000
524.755317	525.150917	45.000000	42.000000
524.755317	525.348716	53.000000	51.000000
524.953117	525.150917	76.000000	64.000000
525.150917	525.546516	74.000000	66.000000
525.150917	525.950564	46.000000	42.000000
525.348716	525.546516	55.000000	49.000000
525.546516	525.744315	70.000000	61.000000
525.546516	525.744315	57.000000	51.000000
525.744315	525.950564	67.000000	54.000000
525.744315	525.950564	58.000000	55.000000
525.950564	526.347518	72.000000	51.000000
525.950564	526.750788	60.000000	41.000000
525.950564	526.750788	57.000000	35.000000
525.950564	527.553815	48.000000	35.000000
526.347518	526.546001	69.000000	46.000000
526.546001	526.750788	65.000000	46.000000
526.750788	527.149123	70.000000	51.000000
526.750788	527.553815	55.000000	33.000000
526.750788	527.553815	58.000000	39.000000
527.149123	527.348291	67.000000	46.000000
527.348291	527.553815	64.000000	46.000000
527.553815	527.966313	65.000000	55.000000
527.553815	527.966313	56.000000	44.000000
527.553815	527.966313	53.000000	37.000000
527.966313	528.164112	77.000000	67.000000
527.966313	528.361912	44.000000	42.000000
527.966313	528.559711	53.000000	51.000000
528.164112	528.361912	75.000000	63.000000
528.361912	528.757511	73.000000	66.000000
528.361912	529.161559	46.000000	42.000000
528.559711	528.757511	55.000000	49.000000
528.757511	528.955311	70.000000	61.000000
528.757511	528.955311	56.000000	51.000000
528.955311	529.161559	67.000000	54.000000
528.955311	529.161559	58.000000	55.000000
529.161559	529.558513	72.000000	51.000000
529.161559	530.764811	48.000000	35.000000
529.161559	529.961783	60.000000	41.000000
529.161559	529.961783	56.000000	35.000000
529.558513	529.756997	68.000000	46.000000
529.756997	529.961783	65.000000	46.000000
529.961783	530.360119	70.000000	51.000000
529.961783	530.764811	55.000000	33.000000
529.961783	530.764811	58.000000	39.000000
530.360119	530.559286	67.000000	46.000000
530.559286	530.764811	64.000000	46.000000
530.764811	530.951761	65.000000	40.000000
530.764811	530.858286	49.000000	25.000000
530.764811	530.858286	56.000000	28.000000
530.764811	530.858286	53.000000	25.000000
530.951761	531.045236	49.000000	28.000000
530.951761	531.045236	53.000000	33.000000
530.951761	531.045236	37.000000	22.000000
530.951761	531.045236	44.000000	26.000000
531.138711	531.231596	49.000000	28.000000
531.138711	531.231596	53.000000	33.000000
531.138711	531.231596	44.000000	26.000000
531.138711	531.231596	37.000000	22.000000
531.324481	531.417366	49.000000	28.000000
531.324481	531.417366	53.000000	34.000000
531.324481	531.417366	44.000000	27.000000
531.324481	531.417366	37.000000	22.000000
531.510251	531.603873	49.000000	28.000000
531.510251	531.603873	53.000000	34.000000
531.510251	531.603873	37.000000	22.000000
531.510251	531.603873	44.000000	27.000000
531.697657	531.791440	49.000000	28.000000
531.697657	531.791440	53.000000	34.000000
531.697657	531.791440	44.000000	28.000000
531.697657	531.791440	37.000000	23.000000
531.885224	531.978404	49.000000	29.000000
531.885224	531.978404	53.000000	35.000000
531.885224	531.978404	44.000000	28.000000
531.885224	531.978404	37.000000	23.000000
532.071584	532.164764	49.000000	29.000000
532.071584	532.164764	53.000000	35.000000
532.071584	532.164764	37.000000	24.000000
532.071584	532.164764	44.000000	29.000000
532.257944	532.351325	49.000000	30.000000
532.257944	532.351325	53.000000	36.000000
532.257944	532.351325	37.000000	25.000000
532.257944	532.351325	44.000000	30.000000
532.444800	532.538275	49.000000	30.000000
532.444800	532.538275	53.000000	36.000000
532.444800	532.538275	44.000000	27.000000
532.444800	532.538275	37.000000	22.000000
532.631750	532.724930	49.000000	31.000000
532.631750	532.724930	53.000000	37.000000
532.631750	532.724930	37.000000	23.000000
532.631750	532.724930	44.000000	28.000000
532.818110	532.911290	49.000000	32.000000
532.818110	532.911290	53.000000	38.000000
532.818110	532.911290	44.000000	29.000000
532.818110	532.911290	37.000000	24.000000
533.004470	533.097945	49.000000	33.000000
533.004470	533.097945	53.000000	39.000000
533.004470	533.097945	37.000000	25.000000
533.004470	533.097945	44.000000	30.000000
533.191420	533.284895	49.000000	34.000000
533.191420	533.284895	53.000000	40.000000
533.191420	533.284895	37.000000	25.000000
533.191420	533.284895	44.000000	30.000000
533.378370	533.471845	51.000000	34.000000
533.378370	533.471845	55.000000	40.000000
533.378370	533.471845	37.000000	25.000000
533.378370	533.471845	46.000000	30.000000
533.565320	533.658795	51.000000	34.000000
533.565320	533.658795	55.000000	40.000000
533.565320	533.658795	37.000000	25.000000
533.565320	533.658795	46.000000	30.000000
533.752270	534.313121	56.000000	46.000000
533.752270	533.892483	36.000000	25.000000
533.752270	533.892483	44.000000	30.000000
533.752270	533.892483	39.000000	25.000000
533.939220	534.079433	36.000000	25.000000
533.939220	534.079433	39.000000	25.000000
533.939220	534.079433	44.000000	30.000000
534.126170	534.266383	36.000000	25.000000
534.126170	534.266383	39.000000	25.000000
534.126170	534.266383	44.000000	30.000000
534.313121	534.406596	60.000000	40.000000
534.313121	534.453333	36.000000	25.000000
534.313121	534.453333	39.000000	25.000000
534.313121	534.453333	44.000000	30.000000
534.406596	534.500071	58.000000	40.000000
534.500071	534.593546	56.000000	45.000000
534.500071	534.640283	36.000000	25.000000
534.500071	534.640283	39.000000	25.000000
534.500071	534.640283	44.000000	30.000000
534.687021	534.827233	44.000000	30.000000
534.687021	534.827233	39.000000	25.000000
534.687021	534.827233	36.000000	25.000000
534.873971	535.014183	36.000000	25.000000
534.873971	535.014183	39.000000	25.000000
534.873971	535.014183	44.000000	30.000000
535.060921	535.204848	36.000000	25.000000
535.060921	535.204848	39.000000	25.000000
535.060921	535.204848	44.000000	30.000000
535.204848	535.252820	86.000000	72.000000
535.252820	535.720195	87.000000	89.000000
535.252820	535.393032	41.000000	38.000000
535.252820	535.393032	39.000000	38.000000
535.252820	535.393032	36.000000	38.000000
535.252820	535.393032	45.000000	47.000000
535.439770	535.579982	39.000000	38.000000
535.439770	535.579982	36.000000	38.000000
535.439770	535.579982	45.000000	47.000000
535.439770	535.579982	41.000000	38.000000
535.626720	535.766932	39.000000	38.000000
535.626720	535.766932	36.000000	38.000000
535.626720	535.766932	41.000000	38.000000
535.626720	535.766932	45.000000	47.000000
535.720195	535.813670	85.000000	75.000000
535.813670	535.907145	84.000000	73.000000
535.813670	535.953883	41.000000	38.000000
535.813670	535.953883	39.000000	38.000000
535.813670	535.953883	36.000000	38.000000
535.813670	535.953883	45.000000	47.000000
535.907145	536.000620	82.000000	70.000000
536.000620	536.187570	81.000000	69.000000
536.000620	536.140833	41.000000	38.000000
536.000620	536.140833	45.000000	47.000000
536.000620	536.140833	36.000000	38.000000
536.000620	536.140833	39.000000	38.000000
536.187570	536.327783	36.000000	37.000000
536.187570	536.327783	39.000000	37.000000
536.187570	536.327783	41.000000	37.000000
536.187570	536.327783	45.000000	45.000000
536.374520	536.514733	41.000000	37.000000
536.374520	536.514733	39.000000	37.000000
536.374520	536.514733	36.000000	37.000000
536.374520	536.514733	45.000000	45.000000
536.561470	536.704459	41.000000	37.000000
536.561470	536.704459	45.000000	45.000000
536.561470	536.704459	39.000000	37.000000
536.561470	536.704459	36.000000	37.000000
536.752122	537.312972	58.000000	46.000000
536.752122	536.892334	41.000000	25.000000
536.752122	536.892334	37.000000	25.000000
536.752122	536.892334	46.000000	30.000000
536.939072	537.079285	41.000000	25.000000
536.939072	537.079285	37.000000	25.000000
536.939072	537.079285	46.000000	30.000000
537.126022	537.266235	41.000000	25.000000
537.126022	537.266235	37.000000	25.000000
537.126022	537.266235	46.000000	30.000000
537.312972	537.404959	61.000000	40.000000
537.312972	537.450958	41.000000	25.000000
537.312972	537.450958	37.000000	25.000000
537.312972	537.450958	46.000000	30.000000
537.404959	537.496958	60.000000	40.000000
537.496958	537.590433	58.000000	45.000000
537.496958	537.637171	46.000000	30.000000
537.496958	537.637171	41.000000	25.000000
537.496958	537.637171	37.000000	25.000000
537.683908	537.824121	37.000000	25.000000
537.683908	537.824121	46.000000	30.000000
537.683908	537.824121	41.000000	25.000000
537.870859	538.011071	37.000000	25.000000
537.870859	538.011071	46.000000	30.000000
537.870859	538.011071	41.000000	25.000000
538.057809	538.201736	37.000000	25.000000
538.057809	538.201736	46.000000	30.000000
538.057809	538.201736	41.000000	25.000000
538.201736	538.249707	88.000000	72.000000
538.249707	538.715889	89.000000	89.000000
538.249707	538.389920	47.000000	47.000000
538.249707	538.389920	41.000000	38.000000
538.249707	538.389920	38.000000	38.000000
538.436657	538.576870	41.000000	38.000000
538.436657	538.576870	38.000000	38.000000
538.436657	538.576870	47.000000	47.000000
538.623608	538.762036	41.000000	38.000000
538.623608	538.762036	38.000000	38.000000
538.623608	538.762036	47.000000	47.000000
538.715889	538.808184	87.000000	75.000000
538.808184	538.900465	86.000000	73.000000
538.808184	538.946613	41.000000	38.000000
538.808184	538.946613	38.000000	38.000000
538.808184	538.946613	47.000000	47.000000
538.900465	538.992760	84.000000	70.000000
538.992760	539.179710	83.000000	69.000000
538.992760	539.132973	41.000000	37.000000
538.992760	539.132973	38.000000	37.000000
538.992760	539.132973	47.000000	45.000000
539.179710	539.319923	47.000000	45.000000
539.179710	539.319923	41.000000	37.000000
539.179710	539.319923	38.000000	37.000000
539.366660	539.506873	41.000000	37.000000
539.366660	539.506873	47.000000	45.000000
539.366660	539.506873	38.000000	37.000000
539.553611	539.696599	38.000000	37.000000
539.553611	539.696599	41.000000	37.000000
539.553611	539.696599	47.000000	45.000000
539.744262	539.931212	60.000000	82.000000
539.744262	539.884475	43.000000	37.000000
539.744262	539.884475	39.000000	37.000000
539.744262	539.884475	47.000000	45.000000
539.931212	540.022622	63.000000	70.000000
539.931212	540.068327	43.000000	37.000000
539.931212	540.068327	39.000000	37.000000
539.931212	540.068327	47.000000	45.000000
540.022622	540.114032	62.000000	70.000000
540.114032	540.300982	60.000000	74.000000
540.114032	540.254244	43.000000	37.000000
540.114032	540.254244	39.000000	37.000000
540.114032	540.254244	48.000000	45.000000
540.300982	540.447833	39.000000	37.000000
540.300982	540.447833	48.000000	45.000000
540.300982	540.447833	43.000000	37.000000
540.496783	540.588770	80.000000	78.000000
540.496783	540.634769	41.000000	37.000000
540.496783	540.634769	48.000000	45.000000
540.496783	540.634769	44.000000	37.000000
540.588770	540.680769	79.000000	75.000000
540.680769	540.772756	77.000000	73.000000
540.680769	540.818756	41.000000	38.000000
540.680769	540.818756	48.000000	46.000000
540.680769	540.818756	44.000000	38.000000
540.772756	540.864756	75.000000	70.000000
540.864756	541.051706	74.000000	74.000000
540.864756	541.004968	44.000000	38.000000
540.864756	541.004968	41.000000	38.000000
540.864756	541.004968	50.000000	46.000000
541.051706	541.191918	50.000000	46.000000
541.051706	541.191918	41.000000	38.000000
541.051706	541.191918	44.000000	38.000000
541.238656	541.425606	64.000000	82.000000
541.238656	541.378868	43.000000	38.000000
541.238656	541.378868	46.000000	38.000000
541.238656	541.378868	50.000000	47.000000
541.425606	541.517016	67.000000	70.000000
541.425606	541.562720	43.000000	38.000000
541.425606	541.562720	46.000000	38.000000
541.425606	541.562720	50.000000	47.000000
541.517016	541.608425	65.000000	70.000000
541.608425	541.795375	64.000000	74.000000
541.608425	541.748638	43.000000	39.000000
541.608425	541.748638	46.000000	39.000000
541.608425	541.748638	52.000000	47.000000
541.795375	541.944238	46.000000	39.000000
541.795375	541.944238	43.000000	39.000000
541.795375	541.944238	52.000000	48.000000
541.993859	542.085845	84.000000	78.000000
541.993859	542.131845	44.000000	39.000000
541.993859	542.131845	52.000000	48.000000
541.993859	542.131845	48.000000	39.000000
542.085845	542.177845	82.000000	75.000000
542.177845	542.269832	80.000000	73.000000
542.177845	542.315832	44.000000	39.000000
542.177845	542.315832	52.000000	48.000000
542.177845	542.315832	48.000000	39.000000
542.269832	542.361832	79.000000	70.000000
542.361832	542.548782	77.000000	74.000000
542.361832	542.502044	44.000000	40.000000
542.361832	542.502044	53.000000	49.000000
542.361832	542.502044	48.000000	40.000000
542.548782	542.691770	48.000000	40.000000
542.548782	542.691770	44.000000	40.000000
542.548782	542.691770	53.000000	49.000000
542.739433	542.831420	87.000000	90.000000
542.739433	542.877420	54.000000	51.000000
542.739433	542.877420	45.000000	42.000000
542.739433	542.877420	48.000000	42.000000
542.831420	542.923419	86.000000	86.000000
542.923419	543.015406	84.000000	84.000000
542.923419	543.061406	54.000000	51.000000
542.923419	543.061406	45.000000	42.000000
542.923419	543.061406	48.000000	42.000000
543.015406	543.107406	83.000000	80.000000
543.107406	543.294356	84.000000	85.000000
543.107406	543.247618	48.000000	42.000000
543.107406	543.247618	45.000000	42.000000
543.107406	543.247618	54.000000	51.000000
543.294356	543.437344	48.000000	42.000000
543.294356	543.437344	45.000000	42.000000
543.294356	543.437344	54.000000	51.000000
543.485007	543.576994	75.000000	90.000000
543.485007	543.622994	54.000000	51.000000
543.485007	543.622994	48.000000	42.000000
543.485007	543.622994	45.000000	42.000000
543.576994	543.668994	74.000000	86.000000
543.668994	543.760980	72.000000	84.000000
543.668994	543.806980	48.000000	42.000000
543.668994	543.806980	45.000000	42.000000
543.668994	543.806980	54.000000	51.000000
543.760980	543.852980	71.000000	80.000000
543.852980	544.039930	72.000000	85.000000
543.852980	543.993192	48.000000	42.000000
543.852980	543.993192	45.000000	42.000000
543.852980	543.993192	54.000000	51.000000
544.039930	544.187961	48.000000	42.000000
544.039930	544.187961	45.000000	42.000000
544.039930	544.187961	54.000000	51.000000
544.237300	544.329287	63.000000	90.000000
544.237300	544.375287	48.000000	42.000000
544.237300	544.375287	54.000000	51.000000
544.237300	544.375287	44.000000	42.000000
544.329287	544.421287	62.000000	86.000000
544.421287	544.513273	60.000000	84.000000
544.421287	544.559273	54.000000	51.000000
544.421287	544.559273	44.000000	42.000000
544.421287	544.559273	48.000000	42.000000
544.513273	544.605273	59.000000	80.000000
544.605273	544.792223	60.000000	85.000000
544.605273	544.745485	48.000000	42.000000
544.605273	544.745485	44.000000	42.000000
544.605273	544.745485	54.000000	51.000000
544.792223	544.932436	48.000000	42.000000
544.792223	544.932436	44.000000	42.000000
544.792223	544.932436	54.000000	51.000000
544.979173	545.071159	75.000000	90.000000
544.979173	545.117159	48.000000	42.000000
544.979173	545.117159	44.000000	42.000000
544.979173	545.117159	51.000000	51.000000
545.071159	545.163159	74.000000	86.000000
545.163159	545.255146	72.000000	84.000000
545.163159	545.301146	51.000000	51.000000
545.163159	545.301146	48.000000	42.000000
545.163159	545.301146	44.000000	42.000000
545.255146	545.347146	71.000000	80.000000
545.347146	545.441841	72.000000	85.000000
545.347146	545.490081	44.000000	42.000000
545.347146	545.490081	48.000000	51.000000
545.441841	545.538870	74.000000	85.000000
545.538870	545.638232	75.000000	85.000000
545.538870	545.688899	48.000000	51.000000
545.538870	545.688899	44.000000	42.000000
545.638232	545.740156	78.000000	85.000000
545.740156	545.919033	79.000000	85.000000
545.740156	545.919033	43.000000	42.000000
545.740156	545.919033	47.000000	51.000000
545.935301	546.114177	67.000000	38.000000
545.935301	546.114177	79.000000	45.000000
546.130445	546.309322	67.000000	38.000000
546.130445	546.309322	79.000000	45.000000
546.325589	546.504466	67.000000	38.000000
546.325589	546.504466	79.000000	45.000000
546.520733	546.699610	67.000000	38.000000
546.520733	546.699610	79.000000	45.000000
546.715878	546.894754	67.000000	38.000000
546.715878	546.894754	79.000000	45.000000
546.911022	547.089899	67.000000	38.000000
546.911022	547.089899	79.000000	45.000000
547.106166	547.285043	67.000000	38.000000
547.106166	547.285043	79.000000	45.000000
547.301310	547.476647	67.000000	37.000000
547.301310	547.476647	70.000000	37.000000
547.301310	547.476647	73.000000	37.000000
547.301310	547.476647	79.000000	45.000000
547.492592	547.667928	67.000000	39.000000
547.492592	547.667928	70.000000	39.000000
547.492592	547.667928	73.000000	39.000000
547.492592	547.667928	79.000000	47.000000
547.683874	547.859210	67.000000	41.000000
547.683874	547.859210	70.000000	41.000000
547.683874	547.859210	73.000000	41.000000
547.683874	547.859210	79.000000	49.000000
547.875156	548.050438	67.000000	43.000000
547.875156	548.050438	70.000000	43.000000
547.875156	548.050438	73.000000	43.000000
547.875156	548.050438	79.000000	52.000000
548.066424	548.243142	67.000000	45.000000
548.066424	548.243142	70.000000	45.000000
548.066424	548.243142	73.000000	45.000000
548.066424	548.243142	79.000000	54.000000
548.259289	548.438005	67.000000	46.000000
548.259289	548.438005	70.000000	46.000000
548.259289	548.438005	73.000000	46.000000
548.259289	548.438005	79.000000	55.000000
548.454326	548.635134	67.000000	49.000000
548.454326	548.635134	70.000000	49.000000
548.454326	548.635134	73.000000	49.000000
548.454326	548.635134	79.000000	59.000000
548.651669	548.834583	67.000000	51.000000
548.651669	548.834583	70.000000	51.000000
548.651669	548.834583	73.000000	51.000000
548.651669	548.834583	79.000000	61.000000
548.851293	549.053223	67.000000	41.000000
548.851293	549.053223	71.000000	41.000000
548.851293	549.053223	74.000000	41.000000
548.851293	549.053223	79.000000	49.000000
548.851293	549.002744	47.000000	29.000000
548.851293	549.002744	50.000000	35.000000
549.053223	549.443512	91.000000	58.000000
549.053223	549.443512	79.000000	49.000000
549.053223	549.199578	50.000000	35.000000
549.053223	549.199578	47.000000	29.000000
549.248367	549.394722	50.000000	35.000000
549.248367	549.394722	47.000000	29.000000
549.443512	549.833800	89.000000	53.000000
549.443512	549.833800	77.000000	53.000000
549.443512	549.589867	47.000000	29.000000
549.443512	549.589867	50.000000	35.000000
549.638656	549.785011	47.000000	29.000000
549.638656	549.785011	50.000000	35.000000
549.833800	550.224089	88.000000	55.000000
549.833800	550.224089	76.000000	46.000000
549.833800	549.980155	50.000000	35.000000
549.833800	549.980155	47.000000	29.000000
550.028944	550.175299	47.000000	29.000000
550.028944	550.175299	50.000000	35.000000
550.224089	550.609294	86.000000	53.000000
550.224089	550.609294	74.000000	45.000000
550.224089	550.366139	47.000000	29.000000
550.224089	550.366139	50.000000	35.000000
550.413493	550.560344	47.000000	29.000000
550.413493	550.560344	50.000000	35.000000
550.609294	551.001554	84.000000	52.000000
550.609294	551.001554	72.000000	44.000000
550.609294	550.756145	47.000000	29.000000
550.609294	550.756145	50.000000	35.000000
550.805203	550.952550	47.000000	29.000000
550.805203	550.952550	50.000000	35.000000
551.001554	551.392165	83.000000	50.000000
551.001554	551.392165	71.000000	42.000000
551.001554	551.148405	47.000000	29.000000
551.001554	551.148405	50.000000	35.000000
551.197248	551.343550	50.000000	35.000000
551.197248	551.343550	47.000000	29.000000
551.392165	551.780039	81.000000	49.000000
551.392165	551.780039	69.000000	41.000000
551.392165	551.537970	47.000000	29.000000
551.392165	551.537970	50.000000	35.000000
551.586424	551.731746	52.000000	35.000000
551.586424	551.731746	49.000000	29.000000
551.780039	551.972903	79.000000	47.000000
551.780039	551.972903	67.000000	39.000000
551.780039	551.924771	49.000000	29.000000
551.780039	551.924771	52.000000	35.000000
551.972903	552.066379	65.000000	38.000000
551.972903	552.066379	77.000000	45.000000
551.972903	552.533754	53.000000	42.000000
551.972903	552.904677	50.000000	42.000000
552.066379	552.159854	62.000000	37.000000
552.159854	552.253329	64.000000	39.000000
552.253329	552.346804	65.000000	40.000000
552.346804	552.440279	67.000000	42.000000
552.440279	552.533754	69.000000	44.000000
552.533754	552.625740	71.000000	45.000000
552.533754	552.625740	57.000000	40.000000
552.625740	552.717727	73.000000	47.000000
552.625740	552.717727	55.000000	40.000000
552.717727	552.811202	74.000000	48.000000
552.717727	552.904677	53.000000	45.000000
552.811202	552.904677	65.000000	42.000000
552.904677	552.998152	67.000000	43.000000
552.998152	553.091627	69.000000	45.000000
553.091627	553.185102	71.000000	46.000000
553.185102	553.278577	73.000000	48.000000
553.278577	553.374533	74.000000	49.000000
553.374533	553.470489	76.000000	50.000000
553.470489	553.563964	77.000000	52.000000
553.470489	553.937864	69.000000	46.000000
553.563964	553.657439	74.000000	46.000000
553.657439	553.750914	76.000000	46.000000
553.750914	553.844389	77.000000	47.000000
553.844389	553.937864	79.000000	48.000000
553.937864	554.031339	81.000000	49.000000
553.937864	554.031339	67.000000	40.000000
554.031339	554.123326	83.000000	50.000000
554.031339	554.123326	65.000000	40.000000
554.123326	554.215312	85.000000	51.000000
554.123326	554.215312	64.000000	40.000000
554.215312	554.308787	86.000000	52.000000
554.215312	554.402262	62.000000	45.000000
554.308787	554.402262	85.000000	46.000000
554.402262	554.495737	86.000000	47.000000
554.495737	554.589212	88.000000	48.000000
554.589212	554.682687	89.000000	49.000000
554.682687	554.776162	85.000000	51.000000
554.776162	554.872119	86.000000	52.000000
554.872119	554.968075	88.000000	53.000000
554.968075	555.170005	89.000000	49.000000
554.968075	555.119526	45.000000	29.000000
554.968075	555.119526	48.000000	35.000000
555.170005	555.560293	89.000000	58.000000
555.170005	555.560293	77.000000	49.000000
555.170005	555.316360	45.000000	29.000000
555.170005	555.316360	48.000000	35.000000
555.365149	555.511504	48.000000	35.000000
555.365149	555.511504	45.000000	29.000000
555.560293	555.950582	88.000000	53.000000
555.560293	555.950582	76.000000	53.000000
555.560293	555.706648	45.000000	29.000000
555.560293	555.706648	48.000000	35.000000
555.755438	555.901792	45.000000	29.000000
555.755438	555.901792	48.000000	35.000000
555.950582	556.340870	86.000000	55.000000
555.950582	556.340870	74.000000	46.000000
555.950582	556.096937	48.000000	35.000000
555.950582	556.096937	45.000000	29.000000
556.145726	556.292081	45.000000	29.000000
556.145726	556.292081	48.000000	35.000000
556.340870	556.726076	84.000000	53.000000
556.340870	556.726076	72.000000	45.000000
556.340870	556.482920	45.000000	29.000000
556.340870	556.482920	48.000000	35.000000
556.530275	556.677126	48.000000	35.000000
556.530275	556.677126	45.000000	29.000000
556.726076	557.118336	83.000000	52.000000
556.726076	557.118336	71.000000	44.000000
556.726076	556.872927	45.000000	29.000000
556.726076	556.872927	48.000000	35.000000
556.921985	557.069332	45.000000	29.000000
556.921985	557.069332	48.000000	35.000000
557.118336	557.508946	81.000000	50.000000
557.118336	557.508946	69.000000	42.000000
557.118336	557.265187	48.000000	35.000000
557.118336	557.265187	45.000000	29.000000
557.314030	557.460331	45.000000	29.000000
557.314030	557.460331	48.000000	35.000000
557.508946	557.896821	79.000000	49.000000
557.508946	557.896821	67.000000	41.000000
557.508946	557.654751	48.000000	35.000000
557.508946	557.654751	45.000000	29.000000
557.703205	557.848528	47.000000	29.000000
557.703205	557.848528	50.000000	35.000000
557.896821	558.089685	77.000000	47.000000
557.896821	558.089685	65.000000	39.000000
557.896821	558.041553	47.000000	29.000000
557.896821	558.041553	50.000000	35.000000
558.089685	558.183160	64.000000	38.000000
558.089685	558.183160	76.000000	45.000000
558.089685	558.650535	52.000000	42.000000
558.089685	559.021458	48.000000	42.000000
558.183160	558.276635	64.000000	37.000000
558.276635	558.370110	65.000000	39.000000
558.370110	558.463585	67.000000	40.000000
558.463585	558.557060	69.000000	42.000000
558.557060	558.650535	71.000000	44.000000
558.650535	558.742522	72.000000	45.000000
558.650535	558.742522	55.000000	40.000000
558.742522	558.834508	74.000000	47.000000
558.742522	558.834508	53.000000	40.000000
558.834508	558.927983	76.000000	48.000000
558.834508	559.021458	52.000000	45.000000
558.927983	559.021458	69.000000	42.000000
559.021458	559.114933	71.000000	43.000000
559.114933	559.208408	72.000000	45.000000
559.208408	559.301883	74.000000	46.000000
559.301883	559.395359	76.000000	48.000000
559.395359	559.491315	78.000000	49.000000
559.491315	559.587257	80.000000	50.000000
559.539286	559.587257	48.000000	36.000000
559.587257	559.680732	81.000000	52.000000
559.587257	560.054632	64.000000	46.000000
559.680732	559.774207	76.000000	46.000000
559.774207	559.867682	78.000000	46.000000
559.867682	559.961157	80.000000	47.000000
559.961157	560.054632	81.000000	48.000000
560.054632	560.148108	83.000000	49.000000
560.054632	560.148108	62.000000	40.000000
560.148108	560.240094	84.000000	50.000000
560.148108	560.240094	60.000000	40.000000
560.240094	560.332080	86.000000	51.000000
560.240094	560.332080	59.000000	40.000000
560.332080	560.425555	88.000000	52.000000
560.332080	560.519030	57.000000	45.000000
560.425555	560.519030	86.000000	46.000000
560.519030	560.612506	84.000000	47.000000
560.612506	560.705981	83.000000	48.000000
560.705981	560.799456	81.000000	49.000000
560.799456	560.892931	83.000000	51.000000
560.892931	560.988887	84.000000	52.000000
560.988887	561.084843	81.000000	53.000000
561.084843	561.645693	53.000000	44.000000
561.084843	562.016616	50.000000	44.000000
561.178318	561.271793	65.000000	38.000000
561.271793	561.365268	67.000000	41.000000
561.365268	561.458743	69.000000	42.000000
561.458743	561.552218	71.000000	44.000000
561.552218	561.645693	72.000000	47.000000
561.645693	561.737680	74.000000	48.000000
561.645693	561.737680	57.000000	43.000000
561.737680	561.829666	76.000000	50.000000
561.737680	561.829666	55.000000	43.000000
561.829666	561.923141	77.000000	52.000000
561.829666	562.016616	53.000000	49.000000
561.923141	562.016616	71.000000	45.000000
562.016616	562.110091	72.000000	47.000000
562.110091	562.203566	74.000000	49.000000
562.203566	562.297041	76.000000	51.000000
562.297041	562.390516	77.000000	53.000000
562.390516	562.486472	79.000000	54.000000
562.486472	562.582415	81.000000	56.000000
562.534444	562.582415	50.000000	35.000000
562.582415	562.675890	83.000000	58.000000
562.582415	563.049790	65.000000	55.000000
562.675890	562.769365	77.000000	51.000000
562.769365	562.862840	79.000000	52.000000
562.862840	562.956315	81.000000	53.000000
562.956315	563.049790	83.000000	55.000000
563.049790	563.143265	84.000000	56.000000
563.049790	563.143265	64.000000	46.000000
563.143265	563.235252	86.000000	58.000000
563.143265	563.235252	62.000000	46.000000
563.235252	563.327238	88.000000	59.000000
563.235252	563.327238	60.000000	46.000000
563.327238	563.420713	89.000000	60.000000
563.327238	563.514188	59.000000	52.000000
563.420713	563.514188	88.000000	54.000000
563.514188	563.607663	86.000000	55.000000
563.607663	563.701138	84.000000	57.000000
563.701138	563.794613	83.000000	58.000000
563.794613	563.888088	84.000000	61.000000
563.888088	563.984044	86.000000	62.000000
563.984044	564.104462	83.000000	64.000000
564.032016	564.104462	52.000000	40.000000
564.104462	564.571838	67.000000	64.000000
564.197937	564.291412	79.000000	56.000000
564.291412	564.384887	81.000000	56.000000
564.384887	564.478362	83.000000	57.000000
564.478362	564.571838	84.000000	59.000000
564.571838	564.665313	86.000000	60.000000
564.571838	564.665313	65.000000	52.000000
564.665313	564.757299	88.000000	62.000000
564.665313	564.757299	64.000000	51.000000
564.757299	564.849285	89.000000	63.000000
564.757299	564.849285	62.000000	51.000000
564.849285	564.942760	91.000000	65.000000
564.849285	565.036235	61.000000	56.000000
564.942760	565.036235	89.000000	57.000000
565.036235	565.129711	88.000000	59.000000
565.129711	565.223186	86.000000	60.000000
565.223186	565.316661	85.000000	62.000000
565.316661	565.410136	86.000000	65.000000
565.410136	565.506092	88.000000	66.000000
565.506092	565.626510	85.000000	68.000000
565.554063	565.626510	53.000000	46.000000
565.626510	566.000410	69.000000	73.000000
565.719985	565.813460	73.000000	59.000000
565.813460	565.906935	74.000000	59.000000
565.906935	566.000410	76.000000	61.000000
566.000410	566.093885	77.000000	63.000000
566.000410	566.093885	67.000000	60.000000
566.093885	566.187400	79.000000	64.000000
566.093885	566.187400	65.000000	60.000000
566.187400	566.284040	81.000000	66.000000
566.187400	566.284040	64.000000	60.000000
566.284040	566.490007	77.000000	67.000000
566.284040	566.396532	62.000000	59.000000
566.333540	566.396532	55.000000	47.000000
566.396532	566.770432	71.000000	75.000000
566.490007	566.583482	75.000000	61.000000
566.583482	566.676957	76.000000	61.000000
566.676957	566.770432	77.000000	64.000000
566.770432	566.863907	79.000000	65.000000
566.770432	566.863907	69.000000	62.000000
566.863907	566.957476	81.000000	66.000000
566.863907	566.957476	67.000000	62.000000
566.957476	567.053030	83.000000	69.000000
566.957476	567.053030	65.000000	63.000000
567.053030	567.256596	79.000000	70.000000
567.053030	567.163121	64.000000	62.000000
567.101726	567.163121	57.000000	50.000000
567.163121	567.537022	72.000000	78.000000
567.256596	567.350071	76.000000	63.000000
567.350071	567.443546	77.000000	64.000000
567.443546	567.537022	79.000000	66.000000
567.537022	567.630497	81.000000	68.000000
567.537022	567.630497	71.000000	64.000000
567.630497	567.723972	83.000000	69.000000
567.630497	567.723972	69.000000	64.000000
567.723972	567.819271	84.000000	72.000000
567.723972	567.819271	67.000000	65.000000
567.819271	568.023052	81.000000	73.000000
567.819271	567.929576	65.000000	64.000000
567.868181	567.929576	59.000000	54.000000
567.929576	568.303477	74.000000	81.000000
568.023052	568.116527	78.000000	66.000000
568.116527	568.210002	79.000000	66.000000
568.210002	568.303477	81.000000	68.000000
568.303477	568.396952	83.000000	70.000000
568.303477	568.396952	72.000000	67.000000
568.396952	568.490521	84.000000	71.000000
568.396952	568.490521	71.000000	67.000000
568.490521	568.586074	86.000000	74.000000
568.490521	568.586074	69.000000	67.000000
568.586074	568.788112	83.000000	75.000000
568.586074	568.694637	67.000000	66.000000
568.634770	568.694637	60.000000	56.000000
568.694637	569.068537	76.000000	84.000000
568.788112	568.881587	80.000000	69.000000
568.881587	568.975062	81.000000	69.000000
568.975062	569.068537	83.000000	71.000000
569.068537	569.162012	84.000000	73.000000
569.068537	569.162012	74.000000	69.000000
569.162012	569.255581	86.000000	74.000000
569.162012	569.255581	72.000000	70.000000
569.255581	569.353669	88.000000	77.000000
569.255581	569.353669	71.000000	70.000000
569.353669	569.557692	84.000000	79.000000
569.353669	569.464217	69.000000	69.000000
569.404350	569.464217	62.000000	58.000000
569.464217	569.838117	77.000000	87.000000
569.557692	569.651167	82.000000	71.000000
569.651167	569.744642	83.000000	71.000000
569.744642	569.838117	84.000000	74.000000
569.838117	569.931592	86.000000	75.000000
569.838117	569.931592	76.000000	71.000000
569.931592	570.025161	88.000000	77.000000
569.931592	570.025161	74.000000	72.000000
570.025161	570.120715	89.000000	79.000000
570.025161	570.120715	72.000000	72.000000
570.120715	570.219085	86.000000	81.000000
570.120715	570.219085	71.000000	71.000000
570.219085	570.282841	64.000000	78.000000
570.282841	570.346597	72.000000	74.000000
570.346597	570.410353	76.000000	74.000000
570.410353	570.474109	79.000000	76.000000
570.474109	570.537866	84.000000	69.000000
570.537866	570.601622	91.000000	70.000000
570.601622	570.665378	64.000000	79.000000
570.665378	570.729134	72.000000	74.000000
570.729134	570.792890	76.000000	75.000000
570.792890	570.856646	79.000000	78.000000
570.856646	570.920402	84.000000	72.000000
570.920402	570.984159	91.000000	71.000000
570.984159	571.047700	64.000000	81.000000
571.047700	571.111456	72.000000	77.000000
571.111456	571.175427	76.000000	77.000000
571.175427	571.239612	80.000000	80.000000
571.239612	571.304012	84.000000	73.000000
571.304012	571.368627	92.000000	74.000000
571.368627	571.433456	64.000000	81.000000
571.433456	571.498499	72.000000	78.000000
571.498499	571.563771	76.000000	79.000000
571.563771	571.629257	80.000000	82.000000
571.629257	571.694958	84.000000	75.000000
571.694958	571.760954	92.000000	75.000000
571.760954	571.861577	81.000000	85.000000
571.760954	572.142069	72.000000	75.000000
571.760954	572.142069	77.000000	75.000000
571.760954	572.142069	65.000000	75.000000
571.861577	571.955146	93.000000	88.000000
571.955146	572.048607	91.000000	87.000000
572.048607	572.142069	89.000000	86.000000
572.142069	572.235531	88.000000	86.000000
572.235531	572.328992	86.000000	85.000000
572.328992	572.422454	84.000000	84.000000
572.422454	572.515915	83.000000	83.000000
572.515915	572.609565	81.000000	82.000000
572.609565	572.703322	79.000000	81.000000
572.703322	572.797078	77.000000	80.000000
572.797078	572.890835	76.000000	79.000000
572.890835	572.984578	74.000000	78.000000
572.984578	573.078335	72.000000	77.000000
573.078335	573.172092	71.000000	77.000000
573.172092	573.266036	69.000000	76.000000
573.266036	573.360088	68.000000	75.000000
573.360088	573.454126	69.000000	78.000000
573.454126	573.548164	67.000000	77.000000
573.548164	573.642203	65.000000	77.000000
573.642203	573.736254	64.000000	77.000000
573.642203	574.112019	29.000000	75.000000
573.736254	573.830293	62.000000	77.000000
573.830293	573.924331	60.000000	76.000000
573.924331	574.018275	59.000000	76.000000
574.018275	574.112019	57.000000	76.000000
574.112019	574.205775	55.000000	75.000000
574.112019	574.205775	31.000000	68.000000
574.205775	574.299626	53.000000	75.000000
574.205775	574.299626	33.000000	69.000000
574.299626	574.393664	52.000000	75.000000
574.299626	574.393664	35.000000	70.000000
574.393664	574.487917	50.000000	75.000000
574.393664	574.487917	36.000000	71.000000
574.487917	574.582250	48.000000	74.000000
574.487917	574.582250	38.000000	73.000000
574.582250	574.676785	47.000000	74.000000
574.582250	574.676785	40.000000	74.000000
574.676785	574.771427	45.000000	74.000000
574.676785	574.771427	41.000000	75.000000
574.771427	574.866364	43.000000	75.000000
574.771427	575.151174	31.000000	63.000000
574.771427	575.151174	36.000000	63.000000
574.771427	575.151174	40.000000	75.000000
574.866364	574.961300	48.000000	75.000000
574.961300	575.056237	47.000000	47.000000
575.056237	575.151174	50.000000	47.000000
575.151174	575.246111	48.000000	47.000000
575.246111	575.341048	52.000000	48.000000
575.341048	575.435985	51.000000	48.000000
575.435985	575.530922	53.000000	48.000000
575.530922	575.625657	52.000000	48.000000
575.625657	575.720299	55.000000	49.000000
575.720299	575.814941	54.000000	49.000000
575.814941	575.909583	57.000000	49.000000
575.909583	576.004224	55.000000	50.000000
576.004224	576.098866	60.000000	50.000000
576.098866	576.193508	59.000000	50.000000
576.193508	576.288150	62.000000	51.000000
576.288150	576.381907	60.000000	51.000000
576.381907	576.475663	64.000000	51.000000
576.475663	576.569420	63.000000	52.000000
576.569420	576.663177	65.000000	52.000000
576.663177	576.756933	64.000000	52.000000
576.756933	576.850690	67.000000	53.000000
576.850690	576.944447	66.000000	53.000000
576.944447	577.038203	69.000000	53.000000
577.038203	577.131960	67.000000	54.000000
577.131960	577.225717	72.000000	54.000000
577.225717	577.319473	71.000000	54.000000
577.319473	577.413230	74.000000	55.000000
577.413230	577.506987	72.000000	55.000000
577.506987	577.600743	76.000000	55.000000
577.600743	577.694500	75.000000	56.000000
577.694500	577.788257	77.000000	56.000000
577.788257	577.882013	76.000000	56.000000
577.882013	577.975770	79.000000	58.000000
577.975770	578.069527	78.000000	60.000000
578.069527	578.176855	81.000000	62.000000
578.176855	578.223740	79.000000	70.000000
578.270625	578.364409	84.000000	62.000000
578.270625	578.364409	76.000000	52.000000
578.364409	578.458192	83.000000	62.000000
578.364409	578.458192	75.000000	52.000000
578.458192	578.561283	84.000000	63.000000
578.458192	578.561283	76.000000	53.000000
578.561283	578.608155	79.000000	70.000000
578.561283	578.608155	67.000000	60.000000
578.655027	578.748783	88.000000	63.000000
578.655027	578.748783	72.000000	54.000000
578.748783	578.842540	87.000000	64.000000
578.748783	578.842540	71.000000	55.000000
578.842540	578.942546	88.000000	65.000000
578.842540	578.942546	72.000000	55.000000
578.942546	578.989418	79.000000	72.000000
578.942546	578.989418	67.000000	61.000000
579.036289	579.130046	84.000000	65.000000
579.036289	579.130046	76.000000	56.000000
579.130046	579.223803	83.000000	66.000000
579.130046	579.223803	75.000000	56.000000
579.223803	579.323474	84.000000	66.000000
579.223803	579.323474	76.000000	56.000000
579.323474	579.370345	79.000000	74.000000
579.323474	579.370345	67.000000	63.000000
579.417217	579.510974	88.000000	67.000000
579.417217	579.510974	72.000000	57.000000
579.510974	579.604730	87.000000	68.000000
579.510974	579.604730	71.000000	58.000000
579.604730	579.703409	88.000000	68.000000
579.604730	579.703409	72.000000	58.000000
579.703409	579.750280	79.000000	76.000000
579.703409	579.750280	67.000000	65.000000
579.797152	579.890895	84.000000	69.000000
579.797152	579.890895	76.000000	59.000000
579.890895	579.984652	83.000000	69.000000
579.890895	579.984652	75.000000	59.000000
579.984652	580.083009	84.000000	70.000000
579.984652	580.083009	76.000000	59.000000
580.083009	580.130028	79.000000	78.000000
580.083009	580.130028	67.000000	67.000000
580.177047	580.271085	88.000000	71.000000
580.177047	580.271085	72.000000	60.000000
580.271085	580.365124	87.000000	71.000000
580.271085	580.365124	71.000000	60.000000
580.365124	580.459162	88.000000	71.000000
580.365124	580.459162	72.000000	61.000000
580.459162	580.506208	79.000000	80.000000
580.459162	580.506208	67.000000	69.000000
580.553871	580.651557	84.000000	72.000000
580.553871	580.651557	76.000000	62.000000
580.651557	580.760709	83.000000	73.000000
580.651557	580.760709	75.000000	62.000000
580.760709	580.888933	84.000000	73.000000
580.760709	580.888933	76.000000	63.000000
580.888933	582.372249	89.000000	87.000000
580.888933	582.372249	83.000000	87.000000
580.888933	583.002313	74.000000	73.000000
580.888933	583.229188	67.000000	73.000000
580.888933	582.859687	77.000000	73.000000
582.372249	582.440819	89.000000	73.000000
582.440819	582.509725	88.000000	73.000000
582.509725	582.578994	86.000000	72.000000
582.578994	582.648624	84.000000	71.000000
582.648624	582.718603	83.000000	70.000000
582.718603	582.788957	81.000000	69.000000
582.788957	582.859687	79.000000	68.000000
582.859687	583.229188	77.000000	68.000000
582.930806	583.002313	76.000000	66.000000
583.002313	583.229188	74.000000	66.000000
583.074197	583.147890	72.000000	65.000000
583.147890	583.229188	71.000000	65.000000
583.229188	585.096034	71.000000	78.000000
583.229188	585.096034	77.000000	78.000000
583.229188	585.732308	65.000000	65.000000
583.229188	585.848984	55.000000	65.000000
583.229188	585.848984	62.000000	65.000000
585.096034	585.179370	77.000000	64.000000
585.179370	585.264436	76.000000	62.000000
585.264436	585.351139	74.000000	60.000000
585.351139	585.439893	72.000000	60.000000
585.439893	585.530445	71.000000	60.000000
585.530445	585.626857	69.000000	59.000000
585.626857	585.732308	67.000000	56.000000
585.732308	585.848984	65.000000	54.000000
585.848984	586.739384	55.000000	42.000000
585.848984	586.739384	60.000000	42.000000
585.848984	586.739384	64.000000	50.000000
585.848984	586.739384	48.000000	39.000000
585.848984	586.739384	36.000000	33.000000
586.739384	587.174828	53.000000	40.000000
586.739384	587.174828	59.000000	40.000000
586.739384	587.174828	62.000000	48.000000
586.739384	587.174828	44.000000	29.000000
586.739384	587.174828	32.000000	29.000000
587.174828	587.635591	52.000000	40.000000
587.174828	587.635591	57.000000	40.000000
587.174828	587.635591	60.000000	48.000000
587.174828	587.635591	45.000000	35.000000
587.174828	587.635591	33.000000	29.000000
587.635591	588.529384	50.000000	42.000000
587.635591	588.529384	56.000000	42.000000
587.635591	588.529384	59.000000	50.000000
587.635591	588.529384	40.000000	39.000000
588.529384	589.444300	48.000000	40.000000
588.529384	589.444300	57.000000	48.000000
588.529384	589.444300	41.000000	34.000000
589.444300	590.344865	65.000000	45.000000
589.444300	590.344865	67.000000	45.000000
589.444300	590.344865	71.000000	53.000000
589.444300	590.344865	53.000000	41.000000
589.444300	590.344865	55.000000	34.000000
589.444300	590.344865	59.000000	41.000000
589.444300	590.344865	50.000000	34.000000
590.344865	590.785137	67.000000	47.000000
590.344865	590.785137	72.000000	56.000000
590.344865	590.785137	55.000000	38.000000
590.344865	590.785137	60.000000	46.000000
590.344865	590.785137	52.000000	38.000000
590.785137	591.272347	69.000000	51.000000
590.785137	591.272347	72.000000	51.000000
590.785137	591.272347	74.000000	62.000000
590.785137	591.272347	62.000000	51.000000
590.785137	591.272347	53.000000	43.000000
590.785137	591.272347	60.000000	43.000000
590.785137	591.272347	57.000000	43.000000
591.272347	592.618120	67.000000	56.000000
591.272347	592.166140	72.000000	56.000000
591.272347	592.166140	76.000000	67.000000
591.272347	593.089867	55.000000	46.000000
591.272347	592.166140	60.000000	46.000000
591.272347	592.166140	64.000000	56.000000
592.166140	593.089867	71.000000	50.000000
592.166140	593.089867	74.000000	60.000000
592.166140	593.089867	59.000000	41.000000
592.166140	593.089867	62.000000	49.000000
592.618120	592.853993	79.000000	50.000000
592.853993	593.089867	77.000000	49.000000
593.089867	593.968988	76.000000	50.000000
593.089867	593.968988	72.000000	42.000000
593.529427	593.968988	88.000000	52.000000
593.529427	593.968988	84.000000	44.000000
593.968988	594.397565	86.000000	50.000000
593.968988	594.397565	83.000000	42.000000
593.968988	594.397565	77.000000	42.000000
593.968988	594.397565	74.000000	48.000000
593.968988	594.397565	68.000000	40.000000
593.968988	594.397565	71.000000	40.000000
594.397565	594.846836	84.000000	50.000000
594.397565	594.846836	81.000000	42.000000
594.397565	594.846836	76.000000	42.000000
594.397565	594.846836	69.000000	40.000000
594.397565	594.846836	72.000000	48.000000
594.846836	595.718353	74.000000	45.000000
594.846836	595.718353	80.000000	45.000000
594.846836	595.718353	83.000000	53.000000
594.846836	595.718353	64.000000	42.000000
594.846836	595.718353	68.000000	42.000000
594.846836	595.718353	71.000000	50.000000
595.718353	596.623948	72.000000	42.000000
595.718353	596.623948	81.000000	50.000000
595.718353	596.623948	65.000000	40.000000
595.718353	596.623948	69.000000	48.000000
596.623948	597.076745	72.000000	45.000000
596.623948	597.076745	76.000000	45.000000
596.623948	597.547929	79.000000	53.000000
596.623948	597.076745	64.000000	34.000000
596.623948	597.076745	67.000000	40.000000
596.623948	599.382011	55.000000	34.000000
597.076745	599.382011	74.000000	40.000000
597.076745	599.382011	77.000000	48.000000
597.076745	599.382011	69.000000	35.000000
597.076745	599.382011	65.000000	29.000000
597.547929	598.079650	81.000000	53.000000
598.079650	599.382011	83.000000	51.000000
599.382011	599.867022	60.000000	45.000000
599.382011	599.867022	64.000000	45.000000
599.382011	600.362359	67.000000	53.000000
599.382011	603.850695	43.000000	34.000000
599.382011	599.867022	55.000000	40.000000
599.382011	599.867022	52.000000	34.000000
599.867022	603.850695	62.000000	40.000000
599.867022	603.850695	65.000000	48.000000
599.867022	603.850695	53.000000	29.000000
599.867022	603.850695	57.000000	35.000000
601.353034	602.383338	68.000000	56.000000
602.383338	603.850695	71.000000	46.000000
603.850695	604.335706	48.000000	45.000000
603.850695	604.335706	52.000000	45.000000
603.850695	604.831043	55.000000	53.000000
603.850695	608.319379	31.000000	34.000000
603.850695	604.335706	40.000000	34.000000
603.850695	604.335706	43.000000	40.000000
604.335706	608.319379	50.000000	40.000000
604.335706	608.319379	53.000000	48.000000
604.335706	608.319379	41.000000	29.000000
604.335706	608.319379	45.000000	35.000000
605.821718	606.852022	57.000000	56.000000
606.852022	608.319379	59.000000	46.000000
608.319379	608.409796	52.000000	28.000000
608.319379	608.500214	60.000000	40.000000
608.319379	608.409796	48.000000	25.000000
608.319379	608.409796	36.000000	25.000000
608.500214	608.590631	60.000000	28.000000
608.500214	608.590631	64.000000	33.000000
608.500214	608.590631	55.000000	26.000000
608.500214	608.590631	48.000000	22.000000
608.681048	608.770876	60.000000	28.000000
608.681048	608.770876	64.000000	33.000000
608.681048	608.770876	55.000000	26.000000
608.681048	608.770876	48.000000	22.000000
608.860703	608.950530	60.000000	28.000000
608.860703	608.950530	64.000000	34.000000
608.860703	608.950530	55.000000	27.000000
608.860703	608.950530	48.000000	22.000000
609.040357	609.130922	60.000000	28.000000
609.040357	609.130922	64.000000	34.000000
609.040357	609.130922	48.000000	22.000000
609.040357	609.130922	55.000000	27.000000
609.221634	609.312347	60.000000	28.000000
609.221634	609.312347	64.000000	34.000000
609.221634	609.312347	55.000000	28.000000
609.221634	609.312347	48.000000	23.000000
609.403059	609.493181	60.000000	29.000000
609.403059	609.493181	64.000000	35.000000
609.403059	609.493181	55.000000	28.000000
609.403059	609.493181	48.000000	23.000000
609.583304	609.673426	60.000000	29.000000
609.583304	609.673426	64.000000	35.000000
609.583304	609.673426	55.000000	29.000000
609.583304	609.673426	48.000000	24.000000
609.763548	609.853872	60.000000	30.000000
609.763548	609.853872	64.000000	36.000000
609.763548	609.853872	48.000000	25.000000
609.763548	609.853872	55.000000	30.000000
609.944289	610.034706	60.000000	30.000000
609.944289	610.034706	64.000000	36.000000
609.944289	610.034706	48.000000	22.000000
609.944289	610.034706	55.000000	27.000000
610.125124	610.215246	60.000000	31.000000
610.125124	610.215246	64.000000	37.000000
610.125124	610.215246	48.000000	23.000000
610.125124	610.215246	55.000000	28.000000
610.305368	610.395491	60.000000	32.000000
610.305368	610.395491	64.000000	38.000000
610.305368	610.395491	55.000000	29.000000
610.305368	610.395491	48.000000	24.000000
610.485613	610.576030	60.000000	33.000000
610.485613	610.576030	64.000000	39.000000
610.485613	610.576030	55.000000	30.000000
610.485613	610.576030	48.000000	25.000000
610.666448	610.756865	60.000000	34.000000
610.666448	610.756865	64.000000	40.000000
610.666448	610.756865	48.000000	25.000000
610.666448	610.756865	55.000000	30.000000
610.847282	610.937699	62.000000	34.000000
610.847282	610.937699	66.000000	40.000000
610.847282	610.937699	57.000000	30.000000
610.847282	610.937699	48.000000	25.000000
611.028117	611.118534	62.000000	34.000000
611.028117	611.118534	66.000000	40.000000
611.028117	611.118534	48.000000	25.000000
611.028117	611.118534	57.000000	30.000000
611.208951	611.389786	67.000000	52.000000
611.208951	611.344577	47.000000	28.000000
611.208951	611.344577	50.000000	28.000000
611.208951	611.344577	55.000000	34.000000
611.389786	611.478487	71.000000	46.000000
611.389786	611.522837	55.000000	34.000000
611.389786	611.522837	47.000000	28.000000
611.389786	611.522837	50.000000	28.000000
611.478487	611.567188	69.000000	46.000000
611.567188	611.657605	67.000000	52.000000
611.567188	611.702814	47.000000	28.000000
611.567188	611.702814	50.000000	28.000000
611.567188	611.702814	55.000000	34.000000
611.748022	611.883648	47.000000	28.000000
611.748022	611.883648	50.000000	28.000000
611.748022	611.883648	55.000000	35.000000
611.928857	612.109691	72.000000	65.000000
611.928857	612.064483	46.000000	34.000000
611.928857	612.064483	48.000000	34.000000
611.928857	612.064483	55.000000	42.000000
612.109691	612.198392	76.000000	58.000000
612.109691	612.242743	55.000000	42.000000
612.109691	612.242743	46.000000	34.000000
612.109691	612.242743	48.000000	34.000000
612.198392	612.287093	74.000000	58.000000
612.287093	612.377510	72.000000	64.000000
612.287093	612.422719	55.000000	42.000000
612.287093	612.422719	48.000000	35.000000
612.287093	612.422719	46.000000	35.000000
612.467928	612.603554	55.000000	43.000000
612.467928	612.603554	46.000000	35.000000
612.467928	612.603554	48.000000	35.000000
612.648762	612.829597	77.000000	75.000000
612.648762	612.784388	45.000000	38.000000
612.648762	612.784388	48.000000	38.000000
612.648762	612.784388	53.000000	48.000000
612.829597	612.918298	81.000000	65.000000
612.829597	612.962648	45.000000	38.000000
612.829597	612.962648	48.000000	38.000000
612.829597	612.962648	53.000000	48.000000
612.918298	613.006998	79.000000	65.000000
613.006998	613.097416	77.000000	73.000000
613.006998	613.142624	45.000000	39.000000
613.006998	613.142624	48.000000	39.000000
613.006998	613.142624	53.000000	49.000000
613.187833	613.323459	45.000000	39.000000
613.187833	613.323459	53.000000	49.000000
613.187833	613.323459	48.000000	39.000000
613.368668	613.459085	89.000000	87.000000
613.368668	613.504294	44.000000	62.000000
613.368668	613.504294	48.000000	62.000000
613.368668	613.504294	53.000000	62.000000
613.459085	613.549502	88.000000	79.000000
613.549502	613.639920	89.000000	79.000000
613.549502	613.685128	32.000000	55.000000
613.549502	613.685128	44.000000	55.000000
613.639920	613.730337	88.000000	79.000000
613.730337	613.820754	89.000000	79.000000
613.730337	613.865963	32.000000	55.000000
613.730337	613.865963	44.000000	55.000000
613.820754	613.911172	88.000000	79.000000
613.911172	614.001589	89.000000	79.000000
613.911172	614.046798	32.000000	55.000000
613.911172	614.046798	44.000000	55.000000
614.001589	614.092006	88.000000	79.000000
614.092006	614.182423	89.000000	78.000000
614.092006	614.182423	43.000000	56.000000
614.092006	614.182423	31.000000	56.000000
614.182423	614.272841	88.000000	78.000000
614.182423	614.272841	33.000000	57.000000
614.272841	614.363258	86.000000	79.000000
614.272841	614.363258	35.000000	57.000000
614.363258	614.453675	84.000000	80.000000
614.363258	614.453675	36.000000	58.000000
614.453675	614.544093	83.000000	81.000000
614.453675	614.544093	38.000000	59.000000
614.544093	614.634510	81.000000	82.000000
614.544093	614.634510	40.000000	59.000000
614.634510	614.724927	79.000000	83.000000
614.634510	614.724927	41.000000	60.000000
614.724927	614.815345	77.000000	84.000000
614.724927	614.815345	43.000000	62.000000
614.815345	614.905990	76.000000	85.000000
614.815345	614.905990	45.000000	62.000000
614.905990	614.997400	74.000000	86.000000
614.905990	614.997400	47.000000	63.000000
614.997400	615.089681	72.000000	88.000000
614.997400	615.089681	48.000000	63.000000
615.089681	615.182861	71.000000	89.000000
615.089681	615.182861	50.000000	64.000000
615.182861	615.276953	69.000000	90.000000
615.182861	615.276953	52.000000	65.000000
615.276953	615.371957	67.000000	92.000000
615.276953	615.371957	53.000000	66.000000
615.371957	615.467913	65.000000	92.000000
615.371957	615.467913	55.000000	67.000000
615.467913	615.564835	64.000000	93.000000
615.467913	615.564835	57.000000	68.000000
615.564835	615.759966	62.000000	100.000000
615.564835	615.759966	53.000000	78.000000
615.564835	615.759966	41.000000	66.000000
615.955097	616.150227	67.000000	85.000000
615.955097	616.150227	71.000000	85.000000
615.955097	616.150227	74.000000	100.000000
615.955097	616.150227	79.000000	100.000000
615.955097	616.150227	43.000000	66.000000
615.955097	616.150227	47.000000	66.000000
615.955097	616.150227	50.000000	78.000000
615.955097	616.150227	55.000000	78.000000
617.125895	617.321026	64.000000	89.000000
617.125895	617.321026	67.000000	89.000000
617.125895	617.321026	72.000000	106.000000
617.125895	617.321026	76.000000	106.000000
617.125895	617.321026	60.000000	78.000000
617.125895	617.321026	55.000000	78.000000
617.125895	617.321026	48.000000	66.000000
617.125895	617.321026	52.000000	66.000000
617.906432	618.101563	67.000000	89.000000
617.906432	618.101563	71.000000	89.000000
617.906432	618.101563	74.000000	106.000000
617.906432	618.101563	79.000000	106.000000
617.906432	618.101563	47.000000	66.000000
617.906432	618.101563	43.000000	66.000000
617.906432	618.101563	50.000000	78.000000
617.906432	618.101563	55.000000	78.000000
618.721301	618.933598	84.000000	106.000000
618.721301	618.933598	79.000000	106.000000
618.721301	618.933598	76.000000	89.000000
618.721301	618.933598	72.000000	89.000000
618.721301	618.933598	36.000000	65.000000
618.721301	618.933598	40.000000	65.000000
618.721301	618.933598	43.000000	77.000000
618.721301	618.933598	48.000000	77.000000
