OnsetTime	OffsetTime	MidiPitch	Velocity
0.500004	0.635134	79	60
0.770264	0.903006	71	53
0.770264	0.903006	74	57
1.03575	1.16849	72	57
1.03575	1.16849	75	60
1.30123	1.43398	69	54
1.30123	1.43398	79	57
1.56672	1.69946	74	57
1.56672	1.69946	78	64
1.8322	1.96495	72	53
1.8322	1.96495	81	59
2.09769	2.22813	70	57
2.09769	2.18465	79	64
2.18465	2.2716	81	54
2.2716	2.35856	79	54
2.35856	2.48956	69	54
2.35856	2.48956	78	58
2.62056	2.751	70	57
2.62056	2.751	79	63
2.88143	3.01358	67	54
2.88143	3.01358	82	60
3.14574	3.27789	66	57
3.14574	3.27789	74	63
3.14574	3.27789	81	63
3.41004	3.54219	62	55
3.41004	3.54219	84	60
3.67435	3.80422	67	57
3.67435	3.80422	82	64
3.93409	4.06453	71	52
3.93409	4.06453	80	63
3.93409	4.06453	86	63
3.93409	4.06453	89	63
4.19496	4.32767	72	55
4.19496	4.32767	79	61
4.19496	4.32767	84	61
4.19496	4.32767	88	61
4.46018	4.5917	69	52
4.46018	4.5917	78	60
4.46018	4.5917	84	60
4.46018	4.5917	87	60
4.72343	4.85554	70	55
4.72343	4.85554	79	58
4.72343	4.85554	86	58
4.98795	5.12499	66	53
4.98795	5.12499	74	57
4.98795	5.12499	81	57
4.98795	5.12499	84	57
5.26049	5.74485	67	57
5.26049	5.74485	74	59
5.26049	5.74485	79	59
5.26049	5.74485	82	65
5.52833	5.79619	65	52
5.52833	5.79619	71	60
5.52833	5.79619	80	60
5.79619	6.37578	64	54
5.79619	6.37578	72	57
5.79619	6.61105	79	57
6.06496	6.37578	63	57
6.06496	6.37578	73	60
6.33695	6.80182	62	58
6.33695	6.80182	74	62
6.61105	6.8972	61	61
6.61105	6.8972	75	67
6.61105	6.8972	79	67
6.61105	6.8972	82	67
6.8972	8.40671	38	59
6.8972	8.01453	70	70
6.8972	8.01453	74	70
6.8972	8.40671	79	70
6.8972	8.40671	82	70
7.17654	7.7352	62	55
7.7352	8.28116	62	51
8.01453	8.5478	70	67
8.01453	8.5478	74	67
8.28116	8.80851	62	51
8.5478	9.12507	69	61
8.5478	8.80851	72	61
8.80851	9.34305	62	55
8.80851	9.12507	72	64
8.80851	9.12507	75	64
9.07883	9.60728	77	69
9.07883	10.3494	81	69
9.34305	9.86799	62	54
9.60728	9.86799	74	70
9.60728	10.3494	77	70
9.86799	10.3991	62	52
9.86799	10.1396	70	65
9.86799	10.3494	74	65
10.1396	10.3494	67	68
10.1396	10.3494	70	68
10.3991	10.9276	62	55
10.3991	10.6634	75	63
10.3991	11.1797	79	63
10.6634	10.9276	72	67
10.6634	11.1797	75	67
10.9276	11.4514	62	51
10.9276	11.1797	69	63
10.9276	11.1797	72	63
11.1918	11.7156	66	67
11.1918	11.7156	69	67
11.4514	11.981	62	51
11.4514	11.7156	74	64
11.4514	11.7156	77	64
11.7156	11.981	70	70
11.7156	12.2198	74	70
11.981	12.2513	62	51
11.981	12.2198	67	66
11.981	12.2198	70	66
12.2513	12.792	62	46
12.2513	12.792	63	69
12.2513	12.7683	67	69
12.5216	12.792	70	63
12.792	13.3327	50	43
12.792	13.3327	60	55
12.792	13.3327	66	56
12.792	13.1877	69	65
13.0586	13.3327	74	56
13.3327	13.8921	47	51
13.3327	14.9523	74	68
13.8661	14.7973	60	39
13.8661	14.9523	62	29
13.8661	14.9523	65	29
13.8661	14.9523	68	29
14.4092	14.9523	59	36
14.9523	15.542	48	51
15.219	15.3936	72	64
15.3063	15.542	74	61
15.3936	15.542	72	61
15.4809	16.5463	57	45
15.4809	16.5463	63	45
15.4809	16.5463	67	45
15.4809	16.4867	71	64
15.7428	16.4867	72	61
16.0094	16.4867	74	64
16.276	16.5463	75	62
16.5463	17.6026	38	51
16.5463	17.577	67	61
16.5463	17.577	70	61
16.813	17.577	72	63
17.075	17.577	73	66
17.3359	17.6026	74	69
17.6026	18.0454	62	44
17.6026	18.0454	79	70
17.8669	18.1347	74	66
18.1347	19.484	50	51
18.1347	19.1634	60	51
18.1347	19.2111	66	68
18.1347	19.2111	70	68
18.4026	18.9383	61	44
18.6704	19.0292	62	51
18.9383	19.1202	61	51
19.0292	19.1634	62	45
19.1202	19.2111	61	45
19.2111	19.7039	60	51
19.2111	19.7039	69	68
19.484	19.7543	50	44
19.6886	20.0246	67	55
19.7215	20.0246	74	56
19.7543	20.0246	43	44
19.7543	20.0246	50	44
19.7543	20.0246	58	44
19.7543	20.0246	79	60
20.0246	20.1568	71	53
20.0246	20.1568	74	57
20.2889	20.4211	72	57
20.2889	20.4211	75	60
20.5532	20.6854	69	54
20.5532	20.6854	79	57
20.8175	20.9497	74	57
20.8175	20.9497	78	64
21.0818	21.214	72	53
21.0818	21.214	81	59
21.3461	21.476	70	57
21.3461	21.4327	79	64
21.4327	21.5193	81	54
21.5193	21.6059	79	54
21.6059	21.7358	69	55
21.6059	21.7358	78	59
21.8656	21.9978	70	59
21.8656	21.9978	79	66
22.1299	22.2627	67	57
22.1299	22.2627	82	64
22.3954	22.5282	66	62
22.3954	22.5282	74	61
22.3954	22.5282	81	69
22.6609	22.7967	62	61
22.6609	22.7967	86	71
22.9325	23.4609	48	51
22.9325	24.3871	77	68
23.4609	24.542	60	41
23.4609	24.542	63	41
23.4609	24.3871	66	49
23.9991	24.542	67	54
23.9991	24.542	75	68
24.542	25.0802	41	51
24.542	24.7182	74	64
24.6301	25.0802	75	55
24.7182	25.0802	74	55
24.8063	25.0802	72	59
25.0681	26.1359	60	41
25.0681	26.1359	63	41
25.0681	25.9816	68	55
25.0681	25.9816	71	64
25.3324	25.9816	72	58
25.599	26.1359	69	56
25.599	25.9816	74	64
25.8656	26.1359	75	58
26.1359	27.0998	46	57
26.1359	27.4608	74	69
26.6657	27.0998	61	46
26.6657	27.0998	66	46
26.6657	27.0998	69	55
26.9275	27.5768	62	51
26.9275	27.5768	70	60
27.1942	28.2178	59	55
27.1942	28.2178	68	47
27.1942	27.5768	73	59
27.4608	28.2178	74	56
27.7311	28.2549	48	60
27.7311	29.0456	67	46
27.7311	28.2178	77	59
27.993	28.2549	75	57
28.2549	29.1723	59	49
28.2549	29.1723	74	64
28.517	29.1723	60	52
28.517	29.1723	75	61
28.7806	29.1723	62	55
28.7806	29.1723	72	69
29.0456	29.3127	63	57
29.0456	29.3127	67	66
29.3127	29.5805	41	63
29.3127	29.5805	65	63
29.3127	29.5805	70	64
29.3127	29.5805	74	70
29.5805	29.7138	74	53
29.5805	29.7138	77	57
29.8472	29.9805	75	57
29.8472	29.9805	78	60
30.1138	30.2471	72	54
30.1138	30.2471	82	57
30.3804	30.5138	77	57
30.3804	30.5138	81	64
30.6471	30.7804	75	53
30.6471	30.7804	84	59
30.9137	31.0423	74	57
30.9137	30.9995	82	64
30.9995	31.0852	84	54
31.0852	31.171	82	54
31.171	31.2996	73	54
31.171	31.2996	81	58
31.4282	31.5616	74	57
31.4282	31.5616	82	63
31.6949	31.8282	70	53
31.6949	31.8282	86	63
31.9615	32.0936	69	55
31.9615	32.0936	77	58
31.9615	32.0936	84	63
32.2257	32.3609	65	51
32.2257	32.3609	89	60
32.4961	33.0857	46	51
32.7627	33.0857	70	64
33.0246	34.0901	53	45
33.0246	34.0901	62	45
33.0246	34.0901	72	64
33.2865	34.0901	74	61
33.5531	34.0901	77	64
33.8197	34.0901	75	62
34.0901	34.6233	46	48
34.0901	34.2678	74	61
34.1789	34.6156	75	56
34.2678	34.6156	74	55
34.3567	34.6233	71	59
34.6233	35.696	54	37
34.6233	35.696	59	37
34.6233	35.696	63	44
34.6233	35.4281	70	63
34.89	35.6067	68	57
35.1603	35.6067	66	65
35.4281	35.629	70	58
35.629	35.696	70	60
35.696	36.6668	46	52
35.696	36.753	65	65
35.9638	36.6668	58	52
36.2257	36.6668	60	54
36.4876	36.753	62	51
36.753	37.1277	65	55
36.753	37.2888	68	56
36.753	37.2888	70	56
37.0184	37.2888	62	53
37.2888	37.4641	63	48
37.2888	38.3475	66	41
37.2888	38.3475	70	57
37.3764	38.0805	65	42
37.4641	37.8149	63	42
37.5518	38.2527	62	46
37.8149	38.2527	63	55
38.0805	38.3475	65	57
38.3475	38.8865	66	61
38.3475	38.7985	69	67
38.6162	38.8865	75	64
38.8865	39.4761	46	51
39.1532	39.4761	70	64
39.415	40.4805	56	37
39.415	40.4805	62	45
39.415	40.4805	68	45
39.415	40.4805	71	64
39.6769	40.4805	74	61
39.9436	40.4805	59	37
39.9436	40.4805	77	67
40.2102	40.4805	78	67
40.4805	41.0138	46	48
40.4805	41.006	70	41
40.4805	40.6583	77	61
40.5694	41.006	78	51
40.6583	41.006	77	51
40.7472	41.0138	75	54
41.0138	42.0864	58	37
41.0138	41.5507	66	44
41.0138	41.9972	71	65
41.2804	41.8186	70	58
41.5507	42.0864	66	65
41.8186	42.0195	70	58
42.0195	42.0864	70	60
42.0864	43.0826	46	57
42.0864	43.1689	65	63
42.3797	43.0826	58	55
42.6416	43.0826	60	57
42.9035	43.1689	62	54
43.1689	43.5436	65	58
43.1689	43.7047	68	56
43.1689	43.7047	70	56
43.4343	43.7047	62	55
43.7047	43.88	63	52
43.7047	44.7634	66	48
43.7047	44.7634	70	65
43.7923	44.4964	65	44
43.88	44.2307	63	44
43.9677	44.6686	62	49
44.2307	44.6686	63	58
44.4964	44.7634	65	61
44.7634	45.3024	66	65
44.7634	45.2143	69	67
45.0321	45.3024	75	64
45.3024	46.6478	46	58
45.3024	46.6478	74	64
45.8455	46.9318	58	41
45.8455	46.9318	62	41
45.8455	46.6478	64	49
46.3887	46.9318	65	46
46.9318	47.5214	48	51
47.1985	47.373	72	64
47.2858	47.5214	74	54
47.373	47.5214	72	54
47.4603	48.5258	60	38
47.4603	48.5258	63	38
47.4603	48.5258	67	38
47.4603	48.4661	70	38
47.4603	48.4661	71	58
47.7222	48.4661	72	61
47.9889	48.5258	69	45
47.9889	48.4661	74	64
48.2555	48.5258	75	62
48.5258	49.5773	38	51
48.5258	49.5519	67	61
48.5258	49.5519	70	61
48.789	49.5519	72	63
49.0521	49.5519	73	66
49.3119	49.5773	74	69
49.5773	50.0179	62	44
49.5773	50.0179	79	70
49.8394	50.1072	74	66
50.1072	51.4564	50	48
50.1072	51.1359	60	51
50.1072	51.1836	66	59
50.1072	51.1836	70	68
50.3751	50.9108	61	44
50.6429	51.0017	62	51
50.9108	51.0927	61	51
51.0017	51.1359	62	45
51.0927	51.1836	61	45
51.1836	51.6764	60	51
51.1836	51.6764	69	65
51.4564	51.7268	50	44
51.6611	51.9971	67	55
51.694	51.9971	74	56
51.7268	51.9971	43	44
51.7268	51.9971	50	44
51.7268	51.9971	58	44
51.7268	51.9971	79	60
51.9971	52.1299	71	53
51.9971	52.1299	74	57
52.2626	52.3953	72	57
52.2626	52.3953	75	60
52.5281	52.6608	69	54
52.5281	52.6608	79	57
52.7936	52.9263	74	57
52.7936	52.9263	78	64
53.0591	53.1918	72	53
53.0591	53.1918	81	59
53.3245	53.455	70	57
53.3245	53.4115	79	64
53.4115	53.4985	81	54
53.4985	53.5854	79	54
53.5854	53.7158	69	54
53.5854	53.7158	78	58
53.8463	53.9779	70	57
53.8463	53.9779	79	63
54.1094	54.2416	67	54
54.1094	54.2416	82	60
54.3737	54.5059	66	57
54.3737	54.5059	74	63
54.3737	54.5059	81	63
54.638	54.7702	62	55
54.638	54.7702	84	60
54.9023	55.0317	67	57
54.9023	55.0317	82	64
55.161	55.2937	71	52
55.161	55.2937	80	63
55.161	55.2937	86	63
55.161	55.2937	89	63
55.4265	55.5592	72	55
55.4265	55.5592	79	61
55.4265	55.5592	84	61
55.4265	55.5592	88	61
55.6917	55.8232	69	52
55.6917	55.8232	78	60
55.6917	55.8232	84	60
55.6917	55.8232	87	60
55.9549	56.087	70	55
55.9549	56.087	79	58
55.9549	56.087	86	58
56.2194	56.3565	66	53
56.2194	56.3565	74	57
56.2194	56.3565	81	57
56.2194	56.3565	84	57
56.492	56.9763	67	57
56.492	56.9763	74	65
56.492	56.9763	79	65
56.492	56.9763	82	65
56.7598	57.0277	65	52
56.7598	57.0277	71	60
56.7598	57.0277	80	60
57.0277	57.6073	64	54
57.0277	57.6073	72	57
57.0277	57.8425	79	57
57.2964	57.6073	63	57
57.2964	57.6073	73	60
57.5684	58.0333	62	58
57.5684	58.0333	74	62
57.8425	58.1287	61	61
57.8425	58.1287	75	67
57.8425	58.1287	79	67
57.8425	58.1287	82	67
58.1287	59.6382	38	59
58.1287	59.246	70	70
58.1287	59.246	74	70
58.1287	59.6382	79	70
58.1287	59.6382	82	70
58.408	58.9667	62	57
58.9667	59.5127	62	51
59.246	59.7793	70	68
59.246	59.7793	74	68
59.5127	60.04	62	51
59.7793	60.3533	69	61
59.7793	60.04	72	61
60.04	60.5733	62	56
60.04	60.3533	72	66
60.04	60.3533	75	66
60.3066	60.8399	77	70
60.3066	61.5829	81	70
60.5733	61.1006	62	54
60.8399	61.1006	74	71
60.8399	61.5829	77	71
61.1006	61.6329	62	52
61.1006	61.3722	70	65
61.1006	61.5829	74	65
61.3722	61.5829	67	68
61.3722	61.5829	70	68
61.6329	62.1615	62	56
61.6329	61.8972	75	65
61.6329	62.4136	79	65
61.8972	62.1615	72	67
61.8972	62.4136	75	67
62.1615	62.6875	62	51
62.1615	62.4136	69	63
62.1615	62.4136	72	63
62.4257	62.9542	66	67
62.4257	62.9542	69	67
62.6875	63.2208	62	51
62.6875	62.9542	74	62
62.6875	62.9542	77	62
62.9542	63.2208	70	69
62.9542	63.4596	74	69
63.2208	63.4912	62	51
63.2208	63.4912	67	66
63.2208	63.4912	70	66
63.4912	64.0391	62	46
63.4912	64.0391	63	53
63.4912	64.0151	67	69
63.7651	64.0391	70	63
64.0391	64.6001	50	43
64.0391	64.6001	60	47
64.0391	64.6001	66	58
64.0391	64.4489	69	65
64.3143	64.6001	70	59
64.6001	66.1167	43	35
64.6001	65.6753	50	42
64.6001	65.1389	59	44
64.6001	65.0042	62	44
64.6001	66.2116	71	55
64.8695	65.1547	64	42
65.0042	65.1547	62	42
65.1389	66.1167	59	44
65.4108	65.9435	62	41
65.6753	66.2116	38	32
65.6753	66.2116	50	38
65.9435	66.2116	62	42
66.2116	67.7211	44	36
66.2116	67.2856	50	43
66.2116	66.748	59	45
66.2116	66.7718	65	45
66.2116	67.8244	71	55
66.4798	66.7718	64	42
66.6139	66.7718	62	42
66.748	67.7211	59	44
67.0199	67.555	62	42
67.2856	67.8244	38	32
67.2856	67.8244	50	38
67.555	67.8244	62	42
67.8244	69.4435	45	35
67.8244	68.8997	50	42
67.8244	68.3632	60	44
67.8244	68.2285	62	44
67.8244	69.4435	72	55
68.0938	68.3791	64	42
68.2285	68.3791	62	42
68.3632	68.8997	60	44
68.6351	69.1716	62	41
68.8997	69.4435	38	32
68.8997	69.4435	50	38
68.8997	69.4435	60	44
68.8997	69.466	68	53
69.1716	69.4435	62	41
69.4435	71.0626	42	35
69.4435	70.5188	50	42
69.4435	69.9823	60	44
69.4435	69.8476	62	44
69.4435	71.0626	69	55
69.7129	69.9982	64	42
69.8476	69.9982	62	42
69.9823	70.5188	60	44
70.2542	70.7907	62	41
70.5188	71.0626	38	32
70.5188	71.0626	50	38
70.5188	71.0626	60	44
70.5188	71.0851	70	53
70.7907	71.0626	62	41
71.0626	72.6817	43	35
71.0626	72.1379	50	42
71.0626	71.6014	59	44
71.0626	71.4667	62	44
71.0626	72.1379	71	55
71.332	71.6173	64	42
71.4667	71.6173	62	42
71.6014	72.1379	59	44
71.8734	72.4098	62	41
72.1379	72.6817	38	32
72.1379	72.6817	50	38
72.1379	72.6817	59	44
72.1379	72.7042	71	53
72.4098	72.6817	62	41
72.6817	73.757	52	35
72.6817	73.2205	56	39
72.6817	73.2205	62	44
72.6817	73.2205	64	55
72.9511	73.318	59	38
72.9511	73.318	67	42
73.0858	73.318	57	38
73.0858	73.318	65	42
73.2205	74.3006	56	39
73.2205	73.757	62	44
73.2205	73.757	64	44
73.4925	74.3006	71	54
73.757	74.3006	52	38
73.757	74.3006	62	37
73.757	74.3006	64	37
73.757	74.3006	68	37
73.757	74.3006	72	59
74.0289	74.3231	74	57
74.3006	75.92	45	35
74.3006	75.3761	52	42
74.3006	74.8272	60	44
74.3006	75.3761	72	55
74.57	74.8272	65	42
74.7047	74.8397	64	42
74.8397	75.3279	60	44
75.1108	75.3761	64	41
75.3761	75.648	51	46
75.3761	75.92	60	44
75.3761	75.9427	72	53
75.5121	75.92	53	32
75.648	75.92	51	34
75.648	75.92	67	41
75.92	77.6123	38	38
75.92	76.4424	60	47
75.92	76.3298	66	58
76.1932	76.4424	69	45
76.3298	76.4662	66	45
76.4662	77.0329	55	41
76.4662	77.0329	60	47
76.4662	77.0329	64	44
76.7433	77.0329	69	44
77.0329	77.6123	54	37
77.0329	77.5306	60	50
77.0329	77.6123	62	39
77.3154	77.6123	70	44
77.6123	79.1289	43	25
77.6123	78.6875	50	39
77.6123	78.1511	59	41
77.6123	78.0164	62	41
77.6123	79.2239	71	55
77.8817	78.167	64	39
78.0164	78.167	62	39
78.1511	79.1289	59	41
78.423	78.9557	62	38
78.6875	79.2239	38	32
78.6875	79.2239	50	38
78.9557	79.2239	62	42
79.2239	80.7334	44	34
79.2239	80.2979	50	41
79.2239	79.7602	59	43
79.2239	79.784	65	43
79.2239	80.8367	71	55
79.492	79.784	64	40
79.6261	79.784	62	40
79.7602	80.7334	59	42
80.0321	80.5673	62	40
80.2979	80.8367	38	32
80.2979	80.8367	50	38
80.5673	80.8367	62	42
80.8367	82.4558	45	35
80.8367	81.9119	50	42
80.8367	81.3755	60	44
80.8367	81.2408	62	44
80.8367	82.4558	72	55
81.1061	81.3913	64	42
81.2408	81.3913	62	42
81.3755	81.9119	60	44
81.6474	82.1838	62	41
81.9119	82.4558	38	32
81.9119	82.4558	50	38
81.9119	82.4558	60	44
81.9119	82.4782	68	53
82.1838	82.4558	62	41
82.4558	84.0749	42	35
82.4558	83.531	50	42
82.4558	82.9946	60	44
82.4558	82.8599	62	44
82.4558	84.0749	69	55
82.7252	83.0104	64	42
82.8599	83.0104	62	42
82.9946	83.531	60	44
83.2665	83.803	62	41
83.531	84.0749	38	32
83.531	84.0749	50	38
83.531	84.0749	60	44
83.531	84.0973	70	53
83.803	84.0749	62	41
84.0749	85.5977	43	35
84.0749	85.5977	50	42
84.0749	84.6137	59	44
84.0749	84.479	62	44
84.0749	85.5977	71	55
84.3443	84.6296	64	42
84.479	84.6296	62	42
84.6137	85.5977	59	44
84.8856	85.4221	62	41
85.1501	85.694	55	47
85.4221	85.694	62	49
85.694	85.8512	49	51
85.694	86.3235	59	51
85.694	86.2328	64	51
85.8287	86.3235	50	39
85.9634	87.3073	49	49
85.9634	86.3235	69	46
86.0981	86.3235	67	47
86.2328	86.7692	64	50
86.5047	87.3073	54	46
86.5047	87.0371	71	57
86.7692	87.3073	55	50
86.7692	87.3073	64	50
86.7692	87.3073	76	59
87.0371	87.3073	61	44
87.0371	87.3073	71	55
87.3073	88.8352	54	49
87.3073	87.9367	62	61
87.3073	88.8352	74	50
87.5767	87.9367	67	53
87.7114	87.9367	66	53
87.8461	88.8352	65	55
88.118	89.4439	64	55
88.3825	89.4439	42	46
88.3825	88.8352	73	59
88.6545	89.4439	66	55
88.9332	90.5686	47	48
88.9332	90.5686	62	53
88.9332	90.5686	71	66
89.2026	89.4439	57	47
89.3392	89.4758	55	45
89.4758	90.095	53	49
89.749	90.095	54	46
90.0222	90.5686	59	52
90.5686	91.6565	38	62
90.5686	91.6565	69	56
90.5686	91.6565	72	75
90.8367	90.974	62	53
90.974	91.1113	62	53
91.1113	91.3858	62	59
91.3858	91.6565	62	55
91.6565	93.3039	68	55
91.6565	92.2056	71	73
91.9311	92.4802	62	55
92.2056	93.3039	71	56
92.2056	93.6425	74	75
92.4802	93.0293	62	53
92.7548	93.6425	69	63
92.7548	93.6425	72	71
93.0293	93.5784	62	53
93.3039	93.853	68	61
93.3039	94.915	71	68
93.5784	94.1224	62	49
93.853	94.915	65	53
93.853	94.915	68	71
94.1224	94.6519	62	51
94.1224	94.915	66	52
94.1224	94.3885	69	70
94.3885	94.915	69	52
94.3885	94.6519	72	70
94.6519	95.1782	62	55
94.6519	94.915	72	54
94.6519	94.915	76	73
94.915	95.4472	76	57
94.915	95.4472	79	76
95.1782	95.7139	62	54
95.1782	95.4472	74	55
95.1782	95.4472	78	74
95.4472	95.7139	78	57
95.4472	96.4097	81	76
95.7139	96.2537	62	57
95.7139	96.4097	74	52
95.7139	96.4097	78	70
95.9805	96.2537	72	55
95.9805	96.4097	76	74
96.2537	96.8001	62	51
96.2537	96.9174	69	51
96.2537	96.9174	72	67
96.5269	96.9174	68	52
96.5269	96.8001	71	70
96.8001	97.0734	62	51
96.8001	97.0734	71	51
96.8001	97.0734	74	67
97.0734	98.1613	38	62
97.0734	98.1613	69	63
97.0734	98.1613	72	75
97.3415	97.4788	62	48
97.4788	97.6161	62	48
97.6161	97.8906	62	52
97.8906	98.1613	62	49
98.1613	100.147	68	56
98.1613	100.147	71	66
98.4359	98.985	62	49
98.7104	99.8086	70	57
98.7104	100.147	74	68
98.985	99.5341	62	48
99.2595	100.147	69	53
99.2595	100.147	72	63
99.5341	100.083	62	48
99.8086	101.422	67	51
99.8086	101.422	70	61
100.083	100.625	62	44
100.358	101.422	65	51
100.358	101.422	68	60
100.625	101.157	62	46
100.625	101.422	66	48
100.625	100.891	69	57
100.891	101.422	69	51
100.891	101.157	72	60
101.157	101.688	62	45
101.157	101.422	72	51
101.157	101.422	75	60
101.422	101.957	75	53
101.422	101.957	79	63
101.688	102.223	62	50
101.688	101.957	74	50
101.688	101.957	78	59
101.957	102.223	78	54
101.957	102.919	81	65
102.223	102.763	62	48
102.223	102.919	74	53
102.223	102.919	78	63
102.49	102.919	72	50
102.49	102.919	75	59
102.763	103.31	62	42
102.763	103.427	67	38
102.763	103.31	69	56
103.036	103.427	66	40
103.036	103.427	74	57
103.31	103.583	62	40
103.31	103.583	69	38
103.31	103.583	72	55
103.583	105.301	67	51
103.583	105.301	70	60
103.85	104.115	63	51
103.982	105.301	65	50
104.115	104.653	63	54
104.384	104.922	62	49
104.653	105.301	63	54
104.922	105.301	62	50
105.201	106.805	61	51
105.465	105.755	75	63
105.733	106.021	77	66
105.998	106.286	79	64
106.264	106.557	77	66
106.535	106.805	75	66
106.805	108.441	73	54
106.805	107.617	75	50
106.805	107.347	79	50
106.805	108.441	84	70
107.076	108.441	82	62
107.347	108.441	79	66
107.617	108.167	75	57
107.892	108.441	77	61
108.167	108.441	75	57
108.441	110.058	61	51
108.441	109.93	63	45
108.441	108.981	67	45
108.441	109.93	72	54
108.711	109.25	70	54
108.981	109.93	67	56
109.25	109.93	70	62
109.52	109.93	75	63
109.789	110.058	79	63
110.058	111.789	37	56
110.058	111.789	67	62
110.058	111.789	70	62
110.058	111.789	75	62
110.058	111.789	79	62
110.325	110.596	63	51
110.461	111.789	65	50
110.596	111.138	63	54
110.867	111.408	62	49
111.138	111.789	63	54
111.408	111.789	62	50
111.687	113.306	61	51
111.957	112.25	75	63
112.228	112.519	77	66
112.496	112.787	79	64
112.764	113.058	77	66
113.035	113.306	75	66
113.306	114.942	73	54
113.306	114.118	75	50
113.306	113.847	79	50
113.306	114.942	84	70
113.577	114.942	82	62
113.847	114.942	79	66
114.118	114.667	75	57
114.393	114.942	77	61
114.667	114.942	75	57
114.942	116.559	61	51
114.942	116.431	63	45
114.942	115.481	67	45
114.942	116.431	72	54
115.212	115.751	70	54
115.481	116.431	67	56
115.751	116.431	70	62
116.02	116.431	75	63
116.289	116.559	79	63
116.559	118.042	38	57
116.559	117.643	70	69
116.559	117.643	74	69
116.559	118.042	79	69
116.559	118.042	82	69
116.83	117.372	62	55
117.372	117.914	62	50
117.643	118.185	70	67
117.643	118.185	74	67
117.914	118.45	62	50
118.185	118.765	69	60
118.185	118.45	72	60
118.45	118.984	62	56
118.45	118.765	72	65
118.45	118.765	75	65
118.719	119.25	77	70
118.719	119.995	81	70
118.984	119.515	62	53
119.25	119.515	74	71
119.25	119.995	77	71
119.515	120.045	62	51
119.515	119.784	70	63
119.515	119.995	74	63
119.784	119.995	67	66
119.784	119.995	70	66
120.045	120.579	62	56
120.045	120.31	75	65
120.045	120.836	79	65
120.31	120.579	72	66
120.31	120.836	75	66
120.579	121.112	62	50
120.579	120.836	69	61
120.579	120.836	72	61
120.848	121.381	66	65
120.848	121.381	69	65
121.112	121.651	62	50
121.112	121.381	74	60
121.112	121.381	77	60
121.381	121.651	70	69
121.381	121.894	74	69
121.651	121.926	62	50
121.651	121.894	67	64
121.651	121.894	70	64
121.926	122.476	62	45
121.926	122.476	63	68
121.926	122.452	67	68
122.201	122.476	70	62
122.476	123.03	50	42
122.476	123.03	60	54
122.476	123.03	66	54
122.476	122.882	69	64
122.751	123.03	74	56
123.03	123.566	47	53
123.03	124.652	74	70
123.566	124.497	60	40
123.566	124.652	62	29
123.566	124.652	65	29
123.566	124.652	68	29
124.109	124.652	59	36
124.652	125.242	48	51
124.919	125.093	72	64
125.006	125.242	74	61
125.093	125.242	72	61
125.18	126.246	57	45
125.18	126.246	63	45
125.18	126.246	67	45
125.18	126.186	71	64
125.442	126.186	72	61
125.709	126.186	74	64
125.976	126.246	75	62
126.246	127.316	38	51
126.246	127.29	67	61
126.246	127.29	70	61
126.513	127.29	72	63
126.779	127.29	73	66
127.046	127.316	74	69
127.316	127.763	62	44
127.316	127.763	79	70
127.584	127.852	74	66
127.852	129.201	50	51
127.852	128.881	60	51
127.852	128.928	66	68
127.852	128.928	70	68
128.12	128.656	61	44
128.388	128.746	62	51
128.656	128.837	61	51
128.746	128.881	62	45
128.837	128.928	61	45
128.928	129.421	60	51
128.928	129.421	69	68
129.201	129.472	50	44
129.406	129.742	67	55
129.439	129.742	74	56
129.472	129.742	43	44
129.472	129.742	50	44
129.472	129.742	58	44
129.472	129.742	79	60
129.742	129.875	71	53
129.742	129.875	74	57
130.007	130.14	72	57
130.007	130.14	75	60
130.273	130.406	69	54
130.273	130.406	79	57
130.538	130.671	74	57
130.538	130.671	78	64
130.804	130.937	72	53
130.804	130.937	81	59
131.069	131.2	70	57
131.069	131.157	79	64
131.157	131.244	81	54
131.244	131.331	79	54
131.331	131.462	69	55
131.331	131.462	78	59
131.592	131.723	70	59
131.592	131.723	79	66
131.854	131.987	67	57
131.854	131.987	82	64
132.12	132.252	66	62
132.12	132.252	74	61
132.12	132.252	81	69
132.385	132.521	62	61
132.385	132.521	86	71
132.657	133.185	48	51
132.657	134.116	77	68
133.185	134.271	60	41
133.185	134.271	63	41
133.185	134.116	66	49
133.728	134.271	67	54
133.728	134.271	75	68
134.271	134.81	41	51
134.271	134.448	74	64
134.359	134.81	75	55
134.448	134.81	74	55
134.536	134.81	72	59
134.797	135.865	60	41
134.797	135.865	63	41
134.797	135.711	68	55
134.797	135.711	71	64
135.062	135.711	72	58
135.328	135.865	69	56
135.328	135.711	74	64
135.595	135.865	75	58
135.865	136.829	46	57
135.865	137.19	74	69
136.395	136.829	61	46
136.395	136.829	66	46
136.395	136.829	69	55
136.657	137.306	62	51
136.657	137.306	70	60
136.924	137.947	59	55
136.924	137.947	68	47
136.924	137.306	73	59
137.19	137.947	74	56
137.46	137.984	48	60
137.46	138.775	67	46
137.46	137.947	77	59
137.722	137.984	75	57
137.984	138.902	59	49
137.984	138.902	74	64
138.246	138.902	60	52
138.246	138.902	75	61
138.51	138.902	62	55
138.51	138.902	72	69
138.775	139.042	63	57
138.775	139.042	67	66
139.042	139.31	41	63
139.042	139.31	65	63
139.042	139.31	70	64
139.042	139.31	74	70
139.31	139.443	74	53
139.31	139.443	77	57
139.577	139.71	75	57
139.577	139.71	78	60
139.843	139.976	72	54
139.843	139.976	82	57
140.11	140.243	77	57
140.11	140.243	81	64
140.376	140.51	75	53
140.376	140.51	84	59
140.643	140.772	74	57
140.643	140.729	82	64
140.729	140.815	84	54
140.815	140.9	82	54
140.9	141.029	73	54
140.9	141.029	81	58
141.158	141.291	74	57
141.158	141.291	82	63
141.424	141.558	70	52
141.424	141.558	86	63
141.691	141.823	69	55
141.691	141.823	77	58
141.691	141.823	84	63
141.955	142.09	65	51
141.955	142.09	89	60
142.225	142.815	46	51
142.492	142.815	70	64
142.754	143.819	53	45
142.754	143.819	62	45
142.754	143.76	72	64
143.016	143.76	74	61
143.282	143.76	77	64
143.549	143.819	75	62
143.819	144.353	46	48
143.819	143.997	74	61
143.908	144.345	75	56
143.997	144.345	74	55
144.086	144.353	71	59
144.353	145.425	54	37
144.353	145.425	59	37
144.353	145.425	63	44
144.353	145.157	70	63
144.619	145.336	68	57
144.89	145.336	66	65
145.157	145.358	70	58
145.358	145.425	70	60
145.425	146.396	46	54
145.425	146.482	65	65
145.693	146.396	58	52
145.955	146.396	60	54
146.217	146.482	62	51
146.482	146.857	65	55
146.482	147.018	68	56
146.482	147.018	70	56
146.748	147.018	62	53
147.018	147.193	63	48
147.018	148.077	66	41
147.018	148.077	70	57
147.106	147.81	65	42
147.193	147.544	63	42
147.281	147.982	62	46
147.544	147.982	63	55
147.81	148.077	65	57
148.077	148.616	66	61
148.077	148.528	69	67
148.346	148.616	75	64
148.616	149.205	46	51
148.883	149.205	70	64
149.144	150.15	56	37
149.144	150.21	62	45
149.144	150.21	68	45
149.144	150.15	71	64
149.406	150.15	74	61
149.673	150.21	59	37
149.673	150.15	77	67
149.94	150.21	78	67
150.21	150.743	46	48
150.21	150.735	70	41
150.21	150.388	77	61
150.299	150.735	78	51
150.388	150.735	77	51
150.477	150.743	75	54
150.743	151.816	58	37
150.743	151.28	66	44
150.743	151.727	71	65
151.01	151.548	70	58
151.28	151.816	66	65
151.548	151.749	70	58
151.749	151.816	70	60
151.816	152.812	46	57
151.816	152.898	65	63
152.109	152.812	58	55
152.371	152.812	60	57
152.633	152.898	62	54
152.898	153.273	65	58
152.898	153.434	68	56
152.898	153.434	70	56
153.164	153.434	62	56
153.434	153.609	63	52
153.434	154.493	66	48
153.434	154.493	70	65
153.522	154.226	65	44
153.609	153.96	63	44
153.697	154.398	62	49
153.96	154.398	63	58
154.226	154.493	65	61
154.493	155.032	66	65
154.493	154.944	69	67
154.761	155.032	75	64
155.032	156.377	46	58
155.032	156.377	74	64
155.575	156.661	58	41
155.575	156.661	62	41
155.575	156.377	64	49
156.118	156.661	65	46
156.661	157.251	48	51
156.928	157.102	72	64
157.015	157.251	74	54
157.102	157.251	72	54
157.19	158.255	60	38
157.19	158.255	63	38
157.19	158.255	67	38
157.19	158.195	70	38
157.19	158.195	71	58
157.452	158.195	72	61
157.718	158.255	69	45
157.718	158.195	74	64
157.985	158.255	75	62
158.255	159.318	38	51
158.255	159.293	67	61
158.255	159.293	70	61
158.519	159.293	72	63
158.784	159.293	73	66
159.048	159.318	74	69
159.318	159.761	62	44
159.318	159.761	79	70
159.583	159.851	74	66
159.851	161.2	50	48
159.851	160.879	60	51
159.851	160.927	66	59
159.851	160.927	70	68
160.118	160.654	61	44
160.386	160.745	62	51
160.654	160.836	61	51
160.745	160.879	62	45
160.836	160.927	61	45
160.927	161.42	60	51
160.927	161.42	69	65
161.2	161.47	50	44
161.404	161.739	67	55
161.437	161.739	74	56
161.47	161.739	43	44
161.47	161.739	50	44
161.47	161.739	58	44
161.47	161.739	79	60
161.739	161.872	71	53
161.739	161.872	74	57
162.005	162.138	72	57
162.005	162.138	75	60
162.27	162.403	69	54
162.27	162.403	79	57
162.536	162.668	74	57
162.536	162.668	78	64
162.801	162.934	72	53
162.801	162.934	81	59
163.067	163.196	70	57
163.067	163.153	79	64
163.153	163.239	81	54
163.239	163.325	79	54
163.325	163.455	69	54
163.325	163.455	78	58
163.585	163.716	70	57
163.585	163.716	79	63
163.847	163.98	67	54
163.847	163.98	82	60
164.113	164.245	66	57
164.113	164.245	74	63
164.113	164.245	81	63
164.378	164.511	62	55
164.378	164.511	84	60
164.644	164.773	67	57
164.644	164.773	82	64
164.902	165.035	71	52
164.902	165.035	80	63
164.902	165.035	86	63
164.902	165.035	89	63
165.169	165.302	72	55
165.169	165.302	79	61
165.169	165.302	84	61
165.169	165.302	88	61
165.434	165.566	69	52
165.434	165.566	78	60
165.434	165.566	84	60
165.434	165.566	87	60
165.697	165.829	70	55
165.697	165.829	79	58
165.697	165.829	86	58
165.962	166.099	66	53
165.962	166.099	74	57
165.962	166.099	81	57
165.962	166.099	84	57
166.234	166.719	67	57
166.234	166.719	74	65
166.234	166.719	79	65
166.234	166.719	82	65
166.502	166.77	65	52
166.502	166.77	71	60
166.502	166.77	80	60
166.77	167.35	64	54
166.77	167.35	72	57
166.77	167.585	79	57
167.039	167.35	63	57
167.039	167.35	73	60
167.311	167.776	62	58
167.311	167.776	74	62
167.585	167.871	61	61
167.585	167.871	75	67
167.585	167.871	79	67
167.585	167.871	82	67
167.871	169.381	38	59
167.871	168.988	70	70
167.871	168.988	74	70
167.871	169.381	79	70
167.871	169.381	82	70
168.15	168.709	62	57
168.709	169.255	62	51
168.988	169.522	70	67
168.988	169.522	74	67
169.255	169.782	62	51
169.522	170.096	69	61
169.522	169.782	72	61
169.782	170.316	62	54
169.782	170.096	72	67
169.782	170.096	75	67
170.049	170.582	77	70
170.049	171.321	81	70
170.316	170.843	62	54
170.582	170.843	74	71
170.582	171.321	77	71
170.843	171.372	62	52
170.843	171.11	70	65
170.843	171.321	74	65
171.11	171.321	67	68
171.11	171.321	70	68
171.372	171.901	62	58
171.372	171.637	75	63
171.372	172.153	79	63
171.637	171.901	72	67
171.637	172.153	75	67
171.901	172.427	62	51
171.901	172.153	69	63
171.901	172.153	72	63
172.166	172.694	66	67
172.166	172.694	69	67
172.427	172.961	62	51
172.427	172.694	74	64
172.427	172.694	77	64
172.694	172.961	70	70
172.694	173.2	74	70
172.961	173.231	62	51
172.961	173.231	67	65
172.961	173.231	70	65
173.231	173.779	62	46
173.231	173.779	63	62
173.231	173.755	67	69
173.505	173.779	70	63
173.779	174.34	50	43
173.779	174.34	60	55
173.779	174.34	66	55
173.779	174.189	69	65
174.054	174.34	70	59
174.34	174.926	43	46
174.34	176.027	59	45
174.34	176.027	62	45
174.34	176.027	67	45
174.34	176.027	71	53
174.618	174.926	49	43
174.896	175.501	50	46
175.185	175.398	53	43
175.327	175.468	51	47
175.398	175.501	53	42
175.468	175.936	51	51
175.747	176.027	50	51
176.027	177.718	43	39
176.027	177.718	51	47
176.027	176.303	56	50
176.303	177.578	60	51
176.58	177.578	63	53
176.859	177.578	68	54
177.138	177.578	70	56
177.423	177.718	72	58
177.718	178.321	43	46
177.718	179.428	62	45
177.718	179.428	67	45
177.718	179.428	71	45
177.718	179.428	74	53
177.998	178.321	49	43
178.278	178.87	50	46
178.57	178.783	53	43
178.712	178.854	51	47
178.783	178.877	53	42
178.854	179.333	51	51
179.134	179.428	50	51
179.428	181.176	43	39
179.428	181.176	51	47
179.428	179.714	56	50
179.714	181.023	58	51
180.0	181.023	60	56
180.188	181.023	63	53
180.377	181.023	68	53
180.568	181.023	72	57
180.762	181.023	75	53
180.961	181.176	84	53
181.176	181.709	43	46
181.176	185.581	74	55
181.176	186.585	79	55
181.176	186.585	83	55
181.462	182.198	49	43
181.747	182.198	50	46
182.046	182.214	53	43
182.19	182.286	51	47
182.262	182.819	53	42
182.334	182.819	51	51
182.62	182.914	50	51
182.914	183.453	55	46
183.203	184.06	59	43
183.491	184.06	61	46
183.787	184.06	62	43
184.004	184.572	65	42
184.076	184.572	63	51
184.365	184.671	62	51
184.671	185.225	67	46
184.968	185.855	71	43
185.265	185.855	73	46
185.581	186.217	74	43
185.81	186.585	77	42
185.887	186.585	75	51
186.217	186.585	74	51
186.585	188.793	67	32
186.585	190.793	74	32
186.585	190.793	79	32
186.585	190.793	83	43
186.585	190.793	86	43
186.585	190.793	91	51
186.585	190.793	95	51
188.793	191.365	43	23
188.793	191.365	50	23
188.793	191.365	55	27
188.793	191.365	59	35
188.793	191.365	62	35
188.793	191.365	67	42
188.793	191.365	71	42
