OnsetTime	OffsetTime	MidiPitch	Velocity
0.500004	0.809438	61	53
0.500004	0.809438	73	68
0.809438	1.12937	59	49
0.809438	1.12937	71	62
1.12937	2.38085	64	50
1.12937	2.38085	76	63
1.75164	2.38085	52	37
1.75164	2.38085	59	37
1.75164	2.38085	68	44
1.75164	2.38085	71	44
2.38085	2.69028	68	52
2.38085	2.69028	80	67
2.69028	2.99972	71	50
2.69028	2.99972	83	63
2.99972	3.30915	73	55
2.99972	3.30915	85	69
3.30915	3.63649	71	49
3.30915	3.63649	83	62
3.63649	4.25537	68	51
3.63649	4.88456	80	64
4.25537	4.88456	52	37
4.25537	4.88456	59	37
4.25537	4.88456	68	44
4.25537	4.88456	71	44
4.88456	5.19741	64	50
4.88456	5.19741	76	63
5.19741	5.51027	61	48
5.19741	5.51027	73	60
5.51027	5.82312	68	50
5.51027	5.82312	80	63
5.82312	6.14486	66	47
5.82312	6.14486	78	59
6.14486	7.39634	61	49
6.14486	7.39634	73	62
6.76715	7.39634	52	37
6.76715	7.39634	59	37
6.76715	7.39634	66	44
6.76715	7.39634	69	44
7.39634	7.70578	61	48
7.39634	7.70578	73	61
7.70578	8.01521	59	41
7.70578	8.01521	71	57
8.01521	8.32981	66	47
8.01521	8.32981	78	62
8.32981	8.65155	64	39
8.32981	8.65155	76	57
8.65155	9.90994	59	41
8.65155	9.90994	71	58
9.28074	9.90994	52	37
9.28074	9.90994	56	37
9.28074	9.90994	64	44
9.28074	9.90994	68	44
9.90994	10.2245	58	48
9.90994	10.2245	70	61
10.2245	10.5391	59	47
10.2245	10.5391	71	59
10.5391	10.8486	61	53
10.5391	10.8486	73	68
10.8486	11.1685	59	49
10.8486	11.1685	71	62
11.1685	12.42	64	50
11.1685	12.42	76	63
11.7908	12.42	52	37
11.7908	12.42	59	37
11.7908	12.42	68	44
11.7908	12.42	71	44
12.42	12.7294	68	52
12.42	12.7294	80	67
12.7294	13.0388	71	50
12.7294	13.0388	83	63
13.0388	13.3483	73	55
13.0388	13.3483	85	69
13.3483	13.6756	71	49
13.3483	13.6756	83	62
13.6756	14.2945	68	51
13.6756	14.9237	80	64
14.2945	14.9237	52	37
14.2945	14.9237	59	37
14.2945	14.9237	68	44
14.2945	14.9237	71	44
14.9237	15.2365	64	50
14.9237	15.2365	76	63
15.2365	15.5494	61	48
15.2365	15.5494	73	60
15.5494	15.8622	59	50
15.5494	15.8622	71	63
15.8622	16.1896	63	47
15.8622	16.1896	75	59
16.1896	16.8119	71	49
16.1896	17.4411	83	62
16.8119	17.4411	51	37
16.8119	17.4411	56	37
16.8119	17.4411	59	37
16.8119	17.4411	71	44
16.8119	17.4411	75	44
17.4411	17.7574	70	48
17.4411	17.7574	82	61
17.7574	18.0773	68	41
17.7574	18.0773	80	57
18.0773	18.7065	64	48
18.0773	18.7065	76	57
18.7065	19.3566	51	37
18.7065	19.3566	58	37
18.7065	19.3447	63	48
18.7065	19.3566	67	44
18.7065	19.3566	70	44
18.7065	19.3566	75	57
19.0212	19.3447	61	41
19.0212	19.3447	73	53
19.3447	20.0247	56	34
19.3447	20.0247	61	46
19.3447	20.0101	63	40
19.3447	20.0247	68	40
19.3447	20.0247	73	57
19.6611	20.0101	59	39
19.6611	20.0247	71	52
19.9052	20.65	44	31
19.9576	20.65	51	31
20.0101	20.4811	58	40
20.0101	20.65	59	37
20.0101	20.65	63	38
20.0101	20.4811	70	52
20.3282	20.65	56	37
20.3282	20.65	68	52
20.65	20.9681	69	64
20.9681	21.2917	65	60
21.2917	22.247	66	64
21.4508	22.551	42	39
21.6098	22.551	49	37
21.7689	22.551	54	37
21.928	22.551	57	39
22.0871	22.551	61	39
22.247	22.551	66	39
22.4079	22.57	69	42
22.57	22.8864	78	67
22.8864	23.2137	76	63
23.2137	23.5318	76	67
23.5318	23.8536	74	63
23.8536	25.1481	75	66
24.0145	25.1001	47	39
24.1753	25.1001	54	37
24.3362	25.1001	57	37
24.4971	25.1001	59	39
24.658	25.1001	63	39
24.8189	25.1001	66	39
24.9835	25.1481	69	42
25.1481	25.4717	73	67
25.4717	25.8009	71	67
25.8009	26.1209	69	64
26.1209	26.4445	65	60
26.4445	27.4107	66	64
26.6063	27.7147	42	37
26.768	27.7147	49	40
26.9298	27.7147	54	44
27.0916	27.7147	57	48
27.2507	27.7147	61	46
27.4107	27.7147	66	50
27.5715	27.7337	69	55
27.7337	27.9531	81	68
27.9531	28.172	80	64
28.172	28.3902	78	63
28.3902	28.7138	76	68
28.7138	29.0374	47	29
28.7138	29.0374	54	29
28.7138	29.0374	59	35
28.7138	29.0374	63	35
28.7138	29.0374	69	35
28.7138	29.0374	75	60
29.0374	29.361	73	68
29.361	29.6846	49	25
29.361	29.6846	52	25
29.361	29.6846	57	35
29.361	29.6846	64	35
29.361	29.6846	69	35
29.361	29.6846	75	59
29.6846	30.0082	73	63
30.0082	30.3318	50	29
30.0082	30.3318	56	35
30.0082	30.3318	65	35
30.0082	30.3318	71	56
30.3318	30.6554	70	59
30.6554	30.9827	51	29
30.6554	30.9827	57	35
30.6554	30.9827	66	35
30.6554	30.9827	71	57
30.9827	31.3045	69	64
31.3045	31.6281	65	60
31.6281	32.5834	66	64
31.7871	32.8874	42	39
31.9462	32.8874	49	37
32.1053	32.8874	54	37
32.2643	32.8874	57	39
32.4234	32.8874	61	39
32.5834	32.8874	66	39
32.7443	32.9064	69	42
32.9064	33.2227	78	67
33.2227	33.5501	76	63
33.5501	33.8682	76	67
33.8682	34.1899	74	63
34.1899	35.4845	75	66
34.3508	35.4364	47	39
34.5117	35.4364	54	37
34.6726	35.4364	57	37
34.8335	35.4364	59	39
34.9943	35.4364	63	39
35.1552	35.4364	66	39
35.3198	35.4845	69	42
35.4845	35.8081	73	67
35.8081	36.1373	71	67
36.1373	36.4572	69	64
36.4572	36.7808	65	60
36.7808	37.747	66	64
36.9426	38.051	42	37
37.1044	38.051	49	40
37.2662	38.051	54	44
37.428	38.051	57	48
37.5871	38.051	61	46
37.747	38.051	66	50
37.9079	38.07	69	55
38.07	38.2895	81	68
38.2895	38.5084	80	64
38.5084	38.7266	78	63
38.7266	39.0483	76	68
39.0483	39.3795	47	29
39.0483	39.3795	54	29
39.0483	39.3795	59	35
39.0483	39.3795	63	35
39.0483	39.3795	69	35
39.0483	39.3795	75	60
39.3795	39.5964	80	64
39.5964	39.8134	78	61
39.8134	40.0304	76	60
40.0304	40.3503	75	63
40.3503	40.6795	49	24
40.3503	40.6795	52	24
40.3503	40.6795	57	24
40.3503	40.6795	61	29
40.3503	40.6795	64	29
40.3503	40.6795	69	29
40.3503	40.6795	73	59
40.6795	40.8965	78	63
40.8965	41.1135	76	60
41.1135	41.3304	75	60
41.3304	41.654	61	59
41.3304	41.654	73	71
41.654	41.9776	51	37
41.654	41.9776	54	37
41.654	41.9776	59	37
41.654	41.9776	66	37
41.654	41.9776	69	37
41.654	41.9776	71	66
41.9776	42.3012	61	67
41.9776	42.3012	73	80
42.3012	42.6248	52	42
42.3012	42.6248	56	42
42.3012	42.6248	59	42
42.3012	42.6248	64	42
42.3012	42.6248	68	42
42.3012	42.6248	71	73
42.6248	42.9522	61	71
42.6248	42.9522	73	84
42.9522	43.2795	53	48
42.9522	43.2795	56	48
42.9522	43.2795	59	48
42.9522	43.2795	62	48
42.9522	43.2795	68	48
42.9522	43.2795	71	79
43.2795	43.6146	61	72
43.2795	43.6146	73	86
43.6146	43.9497	54	55
43.6146	43.9497	59	55
43.6146	43.9497	63	55
43.6146	43.9497	69	55
43.6146	43.9497	71	89
43.9497	44.2714	61	70
43.9497	44.2714	73	88
44.2714	44.5914	59	64
44.2714	44.5914	71	81
44.5914	46.3891	64	69
44.5914	45.8156	68	69
44.5914	45.8156	71	69
44.5914	45.8156	76	85
44.7965	46.3891	40	61
45.0013	45.4072	47	61
45.2049	45.6108	52	66
45.4072	46.3891	47	62
45.6108	46.0218	52	62
45.8156	46.228	59	69
45.8156	46.3891	68	69
45.8156	46.1249	71	69
45.8156	46.1249	76	69
45.8156	46.1249	80	86
46.0218	46.3891	52	62
46.1249	46.4342	71	66
46.1249	46.4342	76	66
46.1249	46.4342	80	66
46.1249	46.4342	83	82
46.228	46.4342	59	61
46.4342	46.7436	64	71
46.4342	46.7436	73	70
46.4342	46.7436	76	70
46.4342	46.7436	80	70
46.4342	46.7436	85	89
46.7436	47.0709	71	64
46.7436	47.0709	83	81
47.0709	48.2994	68	66
47.0709	48.2994	71	66
47.0709	48.2994	76	66
47.0709	48.9182	80	83
47.2761	48.9182	40	61
47.4807	47.888	47	61
47.6845	48.0929	52	66
47.888	48.9182	47	62
48.0929	48.5056	52	62
48.2994	48.7119	59	69
48.2994	48.9182	64	66
48.2994	48.6088	68	66
48.2994	48.6088	71	66
48.2994	48.9182	76	82
48.5056	48.9182	52	62
48.6088	48.9182	61	61
48.6088	48.9182	68	61
48.6088	48.9182	71	61
48.6088	48.9182	73	78
48.7119	48.9182	59	61
48.9182	49.2277	63	71
48.9182	49.2277	68	66
48.9182	49.2277	71	66
48.9182	49.2277	80	82
49.2277	49.5371	66	61
49.2277	49.5371	78	77
49.5371	50.7713	61	64
49.5371	50.7713	66	64
49.5371	50.7713	69	64
49.5371	50.7713	73	81
49.7443	51.3902	40	55
49.9505	50.3597	47	55
50.1557	50.5648	54	59
50.3597	51.3902	47	56
50.5648	50.9776	54	56
50.7713	51.1839	59	61
50.7713	51.3902	61	62
50.7713	51.0807	66	62
50.7713	51.3902	69	62
50.7713	51.3902	73	79
50.9776	51.3902	54	56
51.0807	51.3902	63	58
51.0807	51.3902	66	58
51.0807	51.3902	71	73
51.1839	51.3902	59	55
51.3902	51.6996	64	63
51.3902	51.6996	66	61
51.3902	51.6996	68	61
51.3902	51.6996	71	61
51.3902	51.6996	78	77
51.6996	52.009	64	58
51.6996	52.009	76	73
52.009	53.5554	59	59
52.009	53.2445	64	59
52.009	53.2445	68	59
52.009	53.5554	71	74
52.2152	53.8783	40	55
52.4214	52.8329	47	55
52.6276	53.0383	52	59
52.8329	53.8783	47	56
53.0383	53.4518	52	56
53.2445	53.659	56	61
53.2445	53.8783	58	62
53.2445	53.8663	64	62
53.2445	53.8663	68	62
53.2445	53.8783	70	79
53.4518	53.8783	52	56
53.5554	53.8663	59	61
53.5554	53.8783	71	77
53.659	53.8783	56	55
53.8663	54.188	59	63
53.8663	54.188	61	70
53.8663	54.188	64	70
53.8663	54.188	68	70
53.8663	54.188	73	88
54.188	54.508	59	64
54.188	54.508	64	64
54.188	54.508	68	64
54.188	54.508	71	81
54.508	56.3638	64	69
54.508	55.7388	68	69
54.508	55.7388	71	69
54.508	55.7388	76	85
54.7145	56.3767	40	61
54.9199	55.3275	47	61
55.1242	55.5321	52	66
55.3275	56.3767	47	62
55.5321	55.9471	52	62
55.7388	56.1555	59	69
55.7388	56.3767	68	69
55.7388	56.0513	71	69
55.7388	56.0513	76	69
55.7388	56.0513	80	86
55.9471	56.3767	52	62
56.0513	56.3767	71	66
56.0513	56.3638	76	66
56.0513	56.3638	80	66
56.0513	56.3767	83	82
56.1555	56.3767	59	61
56.3638	56.6732	64	71
56.3638	56.6732	73	70
56.3638	56.6732	76	70
56.3638	56.6732	80	70
56.3638	56.6732	85	89
56.6732	57.0006	71	64
56.6732	57.0006	83	81
57.0006	58.2298	68	66
57.0006	58.2298	71	66
57.0006	58.2298	76	66
57.0006	58.8487	80	83
57.2068	58.8603	40	61
57.4121	57.8198	47	61
57.6165	58.0241	52	66
57.8198	58.8603	47	62
58.0241	58.4361	52	62
58.2298	58.6424	59	69
58.2298	58.8603	64	66
58.2298	58.5392	68	66
58.2298	58.5392	71	66
58.2298	58.8603	76	82
58.4361	58.8603	52	62
58.5392	58.8603	61	61
58.5392	58.8487	68	61
58.5392	58.8487	71	61
58.5392	58.8603	73	78
58.6424	58.8603	59	61
58.8487	59.1581	63	71
58.8487	59.1581	68	66
58.8487	59.1581	71	66
58.8487	59.1581	80	82
59.1581	59.4675	66	61
59.1581	59.4675	78	77
59.4675	60.7012	61	64
59.4675	60.7012	66	64
59.4675	60.7012	69	64
59.4675	60.7012	73	81
59.6737	61.333	40	55
59.8794	60.2886	47	55
60.0842	60.4942	54	59
60.2886	61.333	47	56
60.4942	60.9075	54	56
60.7012	61.1138	59	61
60.7012	61.333	61	62
60.7012	61.0107	66	62
60.7012	61.333	69	62
60.7012	61.333	73	79
60.9075	61.333	54	56
61.0107	61.333	63	58
61.0107	61.3201	66	58
61.0107	61.3201	71	73
61.1138	61.333	59	55
61.3201	61.6295	64	63
61.3201	61.6295	66	61
61.3201	61.6295	68	61
61.3201	61.6295	71	61
61.3201	61.6295	78	77
61.6295	61.9389	64	58
61.6295	61.9389	76	73
61.9389	63.4814	59	59
61.9389	63.1708	64	59
61.9389	63.1708	68	59
61.9389	63.4814	71	74
62.1451	63.8039	40	55
62.3508	62.76	47	55
62.5559	62.9648	52	59
62.76	63.8039	47	56
62.9648	63.3777	52	56
63.1708	63.585	56	61
63.1708	63.8039	58	59
63.1708	63.4814	64	59
63.1708	63.4814	68	59
63.1708	63.8039	70	74
63.3777	63.8039	52	56
63.4814	63.7923	59	58
63.4814	63.7923	64	58
63.4814	63.7923	68	58
63.4814	63.8039	71	72
63.585	63.8039	56	55
63.7923	64.1017	59	63
63.7923	64.1017	61	58
63.7923	64.1017	64	58
63.7923	64.1017	68	58
63.7923	64.1017	73	72
64.1017	64.4111	58	52
64.1017	64.4111	70	67
64.4111	65.9615	59	52
64.4111	65.6493	64	52
64.4111	65.6493	68	52
64.4111	65.9615	71	66
64.6184	66.2856	40	51
64.8251	65.2364	47	50
65.0313	65.4423	52	52
65.2364	66.2856	47	49
65.4423	65.8574	52	48
65.6493	66.0657	56	51
65.6493	66.2856	58	44
65.6493	65.9615	64	44
65.6493	65.9615	68	44
65.6493	66.2856	70	56
65.8574	66.2856	52	46
65.9615	66.274	59	42
65.9615	66.274	64	42
65.9615	66.274	68	42
65.9615	66.2856	71	53
66.0657	66.2856	56	45
66.274	66.5835	59	50
66.274	66.5835	61	40
66.274	66.5835	64	40
66.274	66.5835	68	40
66.274	66.5835	73	51
66.5835	66.8929	58	37
66.5835	66.8929	70	48
66.8929	68.7704	59	37
66.8929	68.7704	64	37
66.8929	68.7704	68	37
66.8929	68.7704	71	47
67.1001	68.7704	40	40
67.3061	67.7153	47	39
67.5107	67.9212	52	41
67.7153	68.7704	47	39
67.9212	68.3376	52	38
68.1287	68.5484	56	40
68.3376	68.7704	52	36
68.5484	68.7704	56	35
68.76	69.815	45	42
68.7987	69.815	52	47
68.8374	69.8022	57	52
68.876	69.8022	60	62
68.9147	69.815	64	67
68.9533	69.815	69	69
68.992	69.5714	72	73
69.5714	69.8022	72	62
69.8022	70.2765	50	48
69.8022	70.2765	57	53
69.8022	70.2765	60	60
69.8022	70.2765	66	60
69.8022	70.231	72	68
70.1579	70.231	71	62
70.2172	70.2765	69	62
70.2765	70.391	43	50
70.2765	70.391	50	50
70.2765	70.391	59	57
70.2765	70.391	62	63
70.2765	70.391	67	71
70.5055	70.6218	47	49
70.5055	70.6218	55	49
70.5055	70.6218	59	56
70.5055	70.6218	62	62
70.5055	70.6218	67	62
70.5055	70.6218	74	70
70.738	70.859	48	53
70.738	70.859	55	53
70.738	70.859	60	60
70.738	70.859	64	68
70.738	70.859	67	68
70.738	70.859	72	68
70.738	70.859	76	75
70.98	71.1045	52	51
70.98	71.1045	60	51
70.98	71.1045	64	58
70.98	71.1045	67	66
70.98	71.1045	72	66
70.98	71.1045	79	73
71.2289	72.0872	55	55
71.2289	72.0872	59	55
71.2289	72.0872	62	61
71.2289	72.0872	67	69
71.2289	72.0872	71	69
71.2289	72.0872	74	78
72.0872	72.2882	52	58
72.0872	72.2882	59	58
72.0872	72.2882	64	58
72.0872	72.2882	68	64
72.0872	72.2882	71	64
72.0872	72.1873	76	81
72.1873	72.2882	74	71
72.2882	72.39	72	66
72.39	72.4927	71	59
72.4927	72.5954	63	46
72.4927	72.5954	69	46
72.4927	72.5954	72	55
72.6725	72.6981	83	55
72.6981	72.8009	57	49
72.6981	72.8009	78	59
72.6981	72.8009	84	59
72.9036	73.0063	63	48
72.9036	73.0063	69	48
72.9036	73.0063	72	57
73.0833	73.109	83	55
73.109	73.2117	57	49
73.109	73.2117	78	58
73.109	73.2117	84	58
73.3144	73.4172	63	46
73.3144	73.4172	69	46
73.3144	73.4172	72	55
73.4942	73.5199	83	55
73.5199	73.6226	57	49
73.5199	73.6226	78	59
73.5199	73.6226	84	59
73.7253	73.9263	52	58
73.7253	73.9263	59	58
73.7253	73.9263	64	58
73.7253	73.9263	68	64
73.7253	73.9263	71	64
73.7253	73.8254	76	81
73.8254	73.9263	74	71
73.9263	74.0281	72	66
74.0281	74.1308	71	59
74.1308	74.2335	63	46
74.1308	74.2335	69	46
74.1308	74.2335	72	55
74.3106	74.3363	83	55
74.3363	74.439	57	49
74.3363	74.439	78	59
74.3363	74.439	84	59
74.5417	74.6444	63	48
74.5417	74.6444	69	48
74.5417	74.6444	72	57
74.7214	74.7471	83	55
74.7471	74.8498	57	49
74.7471	74.8498	78	58
74.7471	74.8498	84	58
74.9525	75.0553	63	46
74.9525	75.0553	69	46
74.9525	75.0553	72	55
75.1323	75.158	83	55
75.158	75.2607	57	49
75.158	75.2607	78	59
75.158	75.2607	84	59
75.3634	75.5644	52	58
75.3634	75.5644	59	58
75.3634	75.5644	64	58
75.3634	75.5644	68	64
75.3634	75.5644	71	64
75.3634	75.4635	76	81
75.4635	75.5644	74	71
75.5644	75.6662	72	66
75.6662	75.7612	71	59
75.7612	76.8168	45	42
75.8005	76.8168	52	47
75.8397	76.8079	57	52
75.879	76.8079	60	62
75.9183	76.8168	64	67
75.9575	76.8168	69	69
75.9968	76.5762	72	73
76.5762	76.8079	72	62
76.8079	77.2841	50	48
76.8079	77.2841	57	53
76.8079	77.2841	60	60
76.8079	77.2841	66	60
76.8079	77.2384	72	68
77.165	77.2384	71	62
77.2245	77.2841	69	62
77.2841	77.3986	43	50
77.2841	77.3986	50	50
77.2841	77.3986	59	57
77.2841	77.3986	62	63
77.2841	77.3986	67	71
77.5131	77.6307	47	49
77.5131	77.6307	55	49
77.5131	77.6307	59	56
77.5131	77.6307	62	62
77.5131	77.6307	67	62
77.5131	77.6307	74	70
77.7483	77.8693	48	53
77.7483	77.8693	55	53
77.7483	77.8693	60	60
77.7483	77.8693	64	68
77.7483	77.8693	67	68
77.7483	77.8693	72	68
77.7483	77.8693	76	75
77.9903	78.1148	52	51
77.9903	78.1148	60	51
77.9903	78.1148	64	58
77.9903	78.1148	67	66
77.9903	78.1148	72	66
77.9903	78.1148	79	73
78.2392	79.0975	55	55
78.2392	79.0975	59	55
78.2392	79.0975	62	61
78.2392	79.0975	67	69
78.2392	79.0975	71	69
78.2392	79.0975	74	78
79.0975	79.2985	55	58
79.0975	79.2985	59	58
79.0975	79.2985	61	58
79.0975	79.2985	64	58
79.0975	79.2985	71	64
79.0975	79.1976	76	81
79.1976	79.2985	74	71
79.2985	79.4003	73	66
79.4003	79.503	71	59
79.503	79.6057	59	46
79.503	79.6057	62	46
79.503	79.6057	66	46
79.6828	79.7084	79	55
79.7084	79.8112	54	49
79.7084	79.8112	71	59
79.7084	79.8112	74	59
79.7084	79.8112	78	59
79.9139	80.0166	59	48
79.9139	80.0166	62	48
79.9139	80.0166	66	48
80.0936	80.1193	79	55
80.1193	80.222	54	49
80.1193	80.222	71	58
80.1193	80.222	74	58
80.1193	80.222	78	58
80.3247	80.4274	59	46
80.3247	80.4274	62	46
80.3247	80.4274	66	46
80.5045	80.5302	79	55
80.5302	80.6329	54	49
80.5302	80.6329	71	59
80.5302	80.6329	74	59
80.5302	80.6329	78	59
80.7356	80.9366	55	58
80.7356	80.9366	59	58
80.7356	80.9366	61	58
80.7356	80.9366	64	58
80.7356	80.9366	71	64
80.7356	80.8357	76	81
80.8357	80.9366	74	71
80.9366	81.0384	73	66
81.0384	81.1411	71	59
81.1411	81.2438	59	46
81.1411	81.2438	62	46
81.1411	81.2438	66	46
81.3209	81.3465	79	55
81.3465	81.4493	54	49
81.3465	81.4493	71	59
81.3465	81.4493	74	59
81.3465	81.4493	78	59
81.552	81.6547	59	48
81.552	81.6547	62	48
81.552	81.6547	66	48
81.7317	81.7574	79	55
81.7574	81.8601	54	49
81.7574	81.8601	71	58
81.7574	81.8601	74	58
81.7574	81.8601	78	58
81.9628	82.0656	59	46
81.9628	82.0656	62	46
81.9628	82.0656	66	46
82.1426	82.1683	79	55
82.1683	82.271	54	49
82.1683	82.271	71	59
82.1683	82.271	74	59
82.1683	82.271	78	59
82.3737	82.5747	55	58
82.3737	82.5747	59	58
82.3737	82.5747	61	58
82.3737	82.5747	64	58
82.3737	82.5747	71	64
82.3737	82.4738	76	81
82.4738	82.5747	74	71
82.5747	82.6765	73	66
82.6765	82.7792	71	59
82.7792	82.8819	50	46
82.7792	82.8819	54	46
82.7792	82.8819	57	46
82.959	82.9847	71	55
82.9847	83.0874	45	49
82.9847	83.0874	62	59
82.9847	83.0874	66	59
82.9847	83.0874	69	59
83.1901	83.2928	50	48
83.1901	83.2928	54	48
83.1901	83.2928	57	48
83.3698	83.3955	71	55
83.3955	83.4982	45	49
83.3955	83.4982	62	58
83.3955	83.4982	66	58
83.3955	83.4982	69	58
83.6009	83.7037	51	46
83.6009	83.7037	54	46
83.6009	83.7037	57	46
83.7807	83.8064	71	55
83.8064	83.9091	45	49
83.8064	83.9091	60	59
83.8064	83.9091	66	59
83.8064	83.9091	69	59
84.0118	84.2128	52	58
84.0118	84.2128	55	58
84.0118	84.2128	57	58
84.0118	84.2128	61	64
84.0118	84.1119	69	81
84.1119	84.2128	67	71
84.2128	84.3146	66	66
84.3146	84.4173	64	59
84.4173	84.5171	62	80
84.5171	84.6176	61	68
84.6176	84.719	59	66
84.719	84.8203	57	70
84.8203	84.9201	55	78
84.9201	85.0208	54	66
85.0208	85.122	52	66
85.122	85.2223	50	64
85.224	85.3255	50	73
85.3255	85.4285	49	64
85.4285	85.5331	47	63
85.5331	85.6385	45	61
85.6385	85.7431	43	69
85.7431	85.8486	42	62
85.8486	85.9549	40	60
85.9549	86.062	38	58
86.062	87.0983	45	42
86.0999	87.0983	52	47
86.1377	87.0914	57	52
86.1756	87.0914	60	62
86.2135	87.0983	64	67
86.2514	87.0983	69	69
86.2892	86.8588	72	73
86.8588	87.0914	72	62
87.0914	87.5657	50	48
87.0914	87.5657	57	53
87.0914	87.5657	60	60
87.0914	87.5657	66	60
87.0914	87.5203	72	68
87.4472	87.5203	71	62
87.5064	87.5657	69	62
87.5657	87.6811	43	50
87.5657	87.6811	50	50
87.5657	87.6811	59	57
87.5657	87.6811	62	63
87.5657	87.6811	67	71
87.7965	87.9146	47	49
87.7965	87.9146	55	49
87.7965	87.9146	59	56
87.7965	87.9146	62	62
87.7965	87.9146	67	62
87.7965	87.9146	74	70
88.0327	88.1537	48	53
88.0327	88.1537	55	53
88.0327	88.1537	60	60
88.0327	88.1537	64	68
88.0327	88.1537	67	68
88.0327	88.1537	72	68
88.0327	88.1537	76	75
88.2747	88.3997	52	51
88.2747	88.3997	60	51
88.2747	88.3997	64	58
88.2747	88.3997	67	66
88.2747	88.3997	72	66
88.2747	88.3997	79	73
88.5247	89.3829	55	55
88.5247	89.3829	59	55
88.5247	89.3829	62	61
88.5247	89.3829	67	69
88.5247	89.3829	71	69
88.5247	89.3829	74	78
89.3829	89.5839	52	58
89.3829	89.5839	59	58
89.3829	89.5839	64	58
89.3829	89.5839	68	64
89.3829	89.5839	71	64
89.3829	89.4831	76	81
89.4831	89.5839	74	71
89.5839	89.6857	72	66
89.6857	89.7885	71	59
89.7885	89.8912	63	46
89.7885	89.8912	69	46
89.7885	89.8912	72	55
89.9682	89.9939	83	55
89.9939	90.0966	57	49
89.9939	90.0966	78	59
89.9939	90.0966	84	59
90.1993	90.302	63	48
90.1993	90.302	69	48
90.1993	90.302	72	57
90.3791	90.4047	83	55
90.4047	90.5075	57	49
90.4047	90.5075	78	58
90.4047	90.5075	84	58
90.6102	90.7129	63	46
90.6102	90.7129	69	46
90.6102	90.7129	72	55
90.7899	90.8156	83	55
90.8156	90.9183	57	49
90.8156	90.9183	78	59
90.8156	90.9183	84	59
91.021	91.2221	52	58
91.021	91.2221	59	58
91.021	91.2221	64	58
91.021	91.2221	68	64
91.021	91.2221	71	64
91.021	91.1212	76	81
91.1212	91.2221	74	71
91.2221	91.3238	72	66
91.3238	91.4266	71	59
91.4266	91.5293	63	46
91.4266	91.5293	69	46
91.4266	91.5293	72	55
91.6063	91.632	83	55
91.632	91.7347	57	49
91.632	91.7347	78	59
91.632	91.7347	84	59
91.8374	91.9401	63	48
91.8374	91.9401	69	48
91.8374	91.9401	72	57
92.0172	92.0429	83	55
92.0429	92.1456	57	49
92.0429	92.1456	78	58
92.0429	92.1456	84	58
92.2483	92.351	63	46
92.2483	92.351	69	46
92.2483	92.351	72	55
92.428	92.4537	83	55
92.4537	92.5564	57	49
92.4537	92.5564	78	59
92.4537	92.5564	84	59
92.6591	92.8602	52	58
92.6591	92.8602	59	58
92.6591	92.8602	64	58
92.6591	92.8602	68	64
92.6591	92.8602	71	64
92.6591	92.7593	76	81
92.7593	92.8602	74	71
92.8602	92.962	72	66
92.962	93.0569	71	59
93.0569	94.1033	45	42
93.0952	94.1033	52	47
93.1335	94.0935	57	52
93.1717	94.0935	60	62
93.21	94.1033	64	67
93.2483	94.1033	69	69
93.2865	93.861	72	73
93.861	94.0935	72	62
94.0935	94.5641	50	48
94.0935	94.5641	57	53
94.0935	94.5641	60	60
94.0935	94.5641	66	60
94.0935	94.519	72	68
94.4465	94.519	71	62
94.5053	94.5641	69	62
94.5641	94.6786	43	50
94.5641	94.6786	50	50
94.5641	94.6786	59	57
94.5641	94.6786	62	63
94.5641	94.6786	67	71
94.7931	94.9108	47	49
94.7931	94.9108	55	49
94.7931	94.9108	59	56
94.7931	94.9108	62	62
94.7931	94.9108	67	62
94.7931	94.9108	74	70
95.0284	95.1504	48	53
95.0284	95.1504	55	53
95.0284	95.1504	60	60
95.0284	95.1504	64	68
95.0284	95.1504	67	68
95.0284	95.1504	72	68
95.0284	95.1504	76	75
95.2723	95.3963	52	51
95.2723	95.3963	60	51
95.2723	95.3963	64	58
95.2723	95.3963	67	66
95.2723	95.3963	72	66
95.2723	95.3963	79	73
95.5202	96.3785	55	55
95.5202	96.3785	59	55
95.5202	96.3785	62	61
95.5202	96.3785	67	69
95.5202	96.3785	71	69
95.5202	96.3785	74	78
96.3785	96.5795	55	58
96.3785	96.5795	59	58
96.3785	96.5795	61	58
96.3785	96.5795	64	58
96.3785	96.5795	71	64
96.3785	96.4786	76	81
96.4786	96.5795	74	71
96.5795	96.6813	73	66
96.6813	96.784	71	59
96.784	96.8867	59	46
96.784	96.8867	62	46
96.784	96.8867	66	46
96.9638	96.9894	79	55
96.9894	97.0922	54	49
96.9894	97.0922	71	59
96.9894	97.0922	74	59
96.9894	97.0922	78	59
97.1949	97.2976	59	48
97.1949	97.2976	62	48
97.1949	97.2976	66	48
97.3746	97.4003	79	55
97.4003	97.503	54	49
97.4003	97.503	71	58
97.4003	97.503	74	58
97.4003	97.503	78	58
97.6057	97.7084	59	46
97.6057	97.7084	62	46
97.6057	97.7084	66	46
97.7855	97.8112	79	55
97.8112	97.9139	54	49
97.8112	97.9139	71	59
97.8112	97.9139	74	59
97.8112	97.9139	78	59
98.0166	98.2176	55	58
98.0166	98.2176	59	58
98.0166	98.2176	61	58
98.0166	98.2176	64	58
98.0166	98.2176	71	64
98.0166	98.1167	76	81
98.1167	98.2176	74	71
98.2176	98.3194	73	66
98.3194	98.4221	71	59
98.4221	98.5248	59	46
98.4221	98.5248	62	46
98.4221	98.5248	66	46
98.6019	98.6275	79	55
98.6275	98.7303	54	49
98.6275	98.7303	71	59
98.6275	98.7303	74	59
98.6275	98.7303	78	59
98.833	98.9357	59	48
98.833	98.9357	62	48
98.833	98.9357	66	48
99.0127	99.0384	79	55
99.0384	99.1411	54	49
99.0384	99.1411	71	58
99.0384	99.1411	74	58
99.0384	99.1411	78	58
99.2438	99.3466	59	46
99.2438	99.3466	62	46
99.2438	99.3466	66	46
99.4236	99.4493	79	55
99.4493	99.552	54	49
99.4493	99.552	71	59
99.4493	99.552	74	59
99.4493	99.552	78	59
99.6547	99.8557	55	58
99.6547	99.8557	59	58
99.6547	99.8557	61	58
99.6547	99.8557	64	58
99.6547	99.8557	71	64
99.6547	99.7548	76	81
99.7548	99.8557	74	71
99.8557	99.9575	73	66
99.9575	100.06	71	59
100.06	100.163	59	46
100.06	100.163	63	46
100.06	100.163	66	46
100.24	100.266	80	55
100.266	100.368	54	49
100.266	100.368	71	59
100.266	100.368	75	59
100.266	100.368	78	59
100.471	100.574	59	48
100.471	100.574	63	48
100.471	100.574	66	48
100.651	100.677	80	55
100.677	100.779	54	49
100.677	100.779	71	58
100.677	100.779	75	58
100.677	100.779	78	58
100.882	100.985	59	46
100.882	100.985	63	46
100.882	100.985	66	46
101.062	101.087	80	55
101.087	101.19	54	49
101.087	101.19	71	59
101.087	101.19	75	59
101.087	101.19	78	59
101.293	101.396	59	46
101.293	101.396	63	46
101.293	101.396	66	46
101.473	101.498	80	55
101.498	101.603	54	49
101.498	101.603	71	59
101.498	101.603	75	59
101.498	101.603	78	59
101.707	101.81	66	46
101.707	101.81	69	46
101.707	101.81	71	46
101.887	101.912	85	55
101.912	102.015	59	49
101.912	102.015	75	59
101.912	102.015	78	59
101.912	102.015	83	59
102.118	102.22	66	48
102.118	102.22	69	48
102.118	102.22	71	48
102.297	102.323	85	55
102.323	102.426	59	49
102.323	102.426	75	58
102.323	102.426	78	58
102.323	102.426	83	58
102.529	102.631	66	46
102.529	102.631	69	46
102.529	102.631	71	46
102.708	102.734	85	55
102.734	102.837	59	49
102.734	102.837	75	59
102.734	102.837	78	59
102.734	102.837	83	59
102.939	103.042	66	46
102.939	103.042	69	46
102.939	103.042	71	46
103.119	103.145	85	55
103.145	103.249	59	49
103.145	103.249	75	59
103.145	103.249	78	59
103.145	103.249	83	59
103.354	103.457	59	52
103.354	103.457	66	52
103.354	103.457	69	52
103.354	103.457	71	52
103.457	103.508	76	59
103.559	103.611	74	62
103.662	103.714	75	59
103.766	103.817	71	63
103.869	103.92	76	62
103.971	104.023	74	66
104.074	104.126	75	62
104.178	104.28	63	57
104.178	104.28	69	57
104.178	104.28	71	57
104.28	104.332	80	66
104.383	104.434	77	70
104.486	104.538	78	66
104.59	104.641	71	71
104.693	104.744	80	67
104.795	104.847	77	73
104.898	104.95	78	71
105.002	105.105	66	59
105.002	105.105	71	59
105.002	105.105	75	59
105.105	105.156	83	75
105.207	105.259	80	80
105.31	105.362	81	77
105.414	105.465	78	79
105.517	105.568	83	71
105.619	105.671	80	77
105.722	105.774	81	71
105.826	105.878	78	76
105.929	105.98	83	70
106.032	106.083	80	75
106.134	106.187	81	69
106.239	106.29	78	75
106.341	106.393	83	68
106.444	106.495	80	73
106.547	106.599	81	67
106.651	106.702	78	72
106.754	106.805	83	65
106.857	106.908	80	69
106.96	107.012	81	64
107.063	107.115	78	65
107.167	107.219	83	57
107.271	107.323	80	60
107.375	107.427	81	55
107.48	107.532	78	57
107.584	107.636	83	52
107.689	107.741	80	54
107.794	107.846	81	49
107.899	107.951	78	51
108.004	108.057	83	45
108.11	108.163	80	48
108.216	108.269	81	43
108.327	108.778	61	53
108.327	108.764	76	44
108.434	108.778	83	39
108.542	108.778	59	49
108.542	108.778	79	44
108.653	108.778	80	39
108.764	109.637	64	50
108.764	109.195	76	44
108.871	109.305	83	40
108.979	109.414	79	44
109.087	109.523	80	40
109.195	109.637	52	37
109.195	109.637	59	37
109.195	109.632	76	44
109.305	109.637	83	39
109.414	109.637	79	44
109.523	109.637	80	39
109.632	110.079	68	52
109.632	110.062	76	46
109.739	110.079	83	43
109.847	110.079	71	50
109.847	110.079	79	47
109.954	110.079	80	43
110.062	110.522	73	55
110.062	110.115	76	50
110.169	110.522	83	45
110.276	110.522	71	49
110.276	110.522	80	47
110.39	110.522	85	45
110.503	111.379	68	51
110.503	110.557	76	44
110.611	111.042	83	40
110.718	111.151	80	44
110.825	111.26	85	40
110.933	111.379	52	37
110.933	111.379	59	37
110.933	111.37	76	44
111.042	111.379	83	40
111.151	111.379	80	44
111.26	111.379	85	40
111.37	111.813	64	50
111.37	111.813	76	45
111.478	111.813	83	43
111.587	111.813	61	48
111.587	111.813	80	46
111.695	111.813	85	43
111.804	112.258	68	50
111.804	112.244	78	49
111.912	112.258	83	40
112.021	112.258	66	47
112.021	112.258	81	45
112.132	112.258	87	40
112.244	113.113	61	49
112.244	112.298	78	46
112.352	112.785	83	44
112.46	112.894	81	45
112.568	113.003	87	42
112.676	113.121	52	37
112.676	113.121	54	37
112.676	113.121	57	37
112.676	113.113	78	47
112.785	113.121	83	44
112.894	113.121	81	44
113.003	113.121	87	43
113.113	113.552	61	48
113.113	113.166	78	46
113.22	113.552	83	43
113.327	113.552	59	41
113.327	113.542	81	45
113.435	113.552	87	42
113.542	113.993	66	47
113.542	113.993	81	44
113.651	113.993	83	40
113.76	113.993	64	39
113.76	113.993	80	44
113.872	113.993	88	40
113.984	114.865	59	41
113.984	114.038	79	44
114.093	114.529	83	40
114.202	114.639	80	44
114.311	114.748	88	40
114.42	114.865	52	37
114.42	114.857	79	44
114.529	114.865	83	40
114.639	114.865	80	44
114.748	114.865	88	40
114.857	115.305	58	48
114.857	114.912	79	46
114.966	115.305	85	40
115.075	115.305	59	47
115.075	115.305	80	46
115.184	115.305	83	43
115.294	115.738	61	53
115.294	115.347	76	49
115.401	115.738	83	43
115.508	115.738	59	49
115.508	115.738	79	46
115.619	115.738	80	44
115.73	116.609	64	50
115.73	116.162	76	44
115.838	116.271	83	40
115.946	116.381	79	44
116.054	116.49	80	40
116.162	116.609	52	37
116.162	116.609	59	37
116.162	116.599	76	44
116.271	116.609	83	39
116.381	116.609	79	47
116.49	116.609	80	43
116.599	117.037	68	52
116.599	116.653	76	49
116.706	117.037	83	44
116.814	117.037	71	50
116.814	117.037	79	47
116.921	117.037	80	44
117.028	117.487	73	55
117.028	117.082	76	50
117.136	117.487	83	44
117.243	117.487	71	49
117.243	117.487	80	49
117.357	117.487	85	44
117.47	118.346	68	51
117.47	117.524	76	47
117.578	118.009	83	43
117.685	118.118	80	46
117.792	118.227	85	44
117.9	118.346	52	37
117.9	118.346	59	37
117.9	118.336	76	44
118.009	118.346	83	40
118.118	118.346	80	44
118.227	118.346	85	40
118.336	118.787	64	50
118.336	118.391	76	45
118.446	118.787	83	42
118.556	118.787	61	48
118.556	118.787	80	45
118.666	118.787	85	42
118.776	119.233	51	45
118.776	119.233	59	50
118.776	118.831	79	45
118.886	119.233	87	42
118.996	119.233	63	47
118.996	119.233	80	47
119.11	119.233	83	43
119.225	120.114	71	49
119.225	119.279	79	50
119.334	119.773	87	44
119.444	119.884	80	49
119.553	119.995	83	46
119.663	120.114	63	37
119.663	120.105	79	44
119.773	120.114	87	40
119.884	120.114	80	44
119.995	120.114	83	40
120.105	120.564	70	48
120.105	120.564	79	47
120.217	120.564	87	44
120.329	120.564	68	41
120.329	120.564	80	47
120.441	120.564	83	45
120.554	121.009	64	48
120.554	121.0	82	49
120.666	121.009	91	44
120.777	121.009	84	47
120.889	121.009	85	44
121.0	121.483	51	37
121.0	121.483	63	48
121.0	121.057	82	50
121.115	121.483	91	44
121.23	121.466	61	41
121.23	121.483	86	47
121.348	121.483	87	43
121.466	122.458	56	34
121.466	121.949	61	46
121.466	121.524	80	50
121.581	121.949	92	45
121.697	121.949	59	39
121.697	121.949	87	46
121.817	121.938	80	43
121.938	122.458	58	40
121.938	121.996	80	45
122.055	122.173	75	42
122.173	122.458	59	37
122.173	122.458	75	44
122.303	122.458	68	36
122.433	123.552	69	61
122.592	124.358	42	37
122.751	124.358	49	35
122.751	124.358	65	57
122.913	124.358	54	35
123.074	124.358	57	37
123.074	123.392	66	61
123.233	124.358	61	37
123.392	123.87	66	37
123.552	124.03	69	40
123.711	124.191	73	46
123.87	124.358	66	42
124.03	124.358	69	49
124.191	124.358	73	45
124.353	124.669	78	62
124.669	124.996	76	60
124.996	126.947	76	62
125.155	126.947	47	37
125.314	126.947	54	35
125.314	126.947	74	60
125.475	126.947	57	35
125.636	126.947	59	37
125.636	126.947	75	62
125.797	126.441	63	37
125.958	126.601	66	37
126.119	126.28	69	40
126.28	126.766	69	44
126.441	126.947	63	40
126.601	126.947	66	47
126.766	126.947	69	45
126.931	127.254	73	62
127.254	127.584	71	62
127.584	128.712	69	61
127.743	129.524	42	35
127.903	129.524	49	38
127.903	129.524	65	57
128.065	129.524	54	41
128.227	129.524	57	45
128.227	128.551	66	61
128.389	129.524	61	42
128.551	129.524	66	47
128.712	129.033	69	51
128.874	129.193	73	55
129.033	129.524	69	52
129.193	129.524	73	54
129.354	129.524	78	56
129.516	129.681	81	63
129.736	129.9	80	61
129.955	130.118	78	60
130.173	130.496	76	63
130.496	130.82	47	28
130.496	130.82	54	28
130.496	130.82	59	33
130.496	130.82	63	33
130.496	130.82	69	33
130.496	130.82	75	57
130.82	131.144	73	63
131.144	131.467	49	23
131.144	131.467	52	23
131.144	131.467	57	33
131.144	131.467	64	33
131.144	131.467	69	33
131.144	131.467	75	56
131.467	131.791	73	60
131.791	132.114	50	28
131.791	132.114	56	28
131.791	132.114	65	33
131.791	132.114	71	52
132.114	132.438	70	56
132.438	132.765	51	28
132.438	132.765	57	33
132.438	132.765	66	33
132.438	132.765	71	53
132.765	133.888	69	61
132.926	134.706	42	37
133.087	134.706	49	35
133.087	134.706	65	57
133.249	134.706	54	35
133.411	134.706	57	37
133.411	133.729	66	61
133.57	134.706	61	37
133.729	134.206	66	37
133.888	134.366	69	40
134.047	134.527	73	45
134.206	134.706	66	41
134.366	134.706	69	45
134.527	134.706	73	43
134.689	135.005	78	62
135.005	135.333	76	60
135.333	137.28	76	62
135.492	137.28	47	37
135.651	137.28	54	35
135.651	137.28	74	60
135.812	137.28	57	35
135.973	137.28	59	37
135.973	137.28	75	62
136.133	136.777	63	37
136.294	136.938	66	37
136.455	136.616	69	37
136.616	137.102	69	46
136.777	137.28	63	41
136.938	137.28	66	48
137.102	137.28	69	46
137.267	137.591	73	62
137.591	137.92	71	62
137.92	139.049	69	61
138.08	139.866	42	35
138.24	139.866	49	38
138.24	139.866	65	57
138.402	139.866	54	41
138.563	139.866	57	45
138.563	138.887	66	61
138.725	139.866	61	42
138.887	139.866	66	47
139.049	139.37	69	51
139.211	139.53	73	48
139.37	139.866	69	50
139.53	139.866	73	52
139.69	139.866	78	54
139.853	140.072	81	63
140.072	140.291	80	61
140.291	140.509	78	60
140.509	140.831	76	63
140.831	141.162	47	28
140.831	141.162	54	33
140.831	141.162	59	33
140.831	141.162	63	33
140.831	141.162	69	33
140.831	141.162	75	57
141.162	141.379	80	61
141.379	141.596	78	58
141.596	141.813	76	57
141.813	142.133	75	60
142.133	142.462	49	22
142.133	142.462	52	22
142.133	142.462	57	22
142.133	142.462	61	27
142.133	142.462	64	27
142.133	142.462	69	27
142.133	142.462	73	56
142.462	142.679	78	60
142.679	142.896	76	57
142.896	143.113	75	57
143.113	143.437	61	56
143.113	143.437	73	67
143.437	143.76	51	35
143.437	143.76	54	35
143.437	143.76	59	35
143.437	143.76	66	35
143.437	143.76	69	35
143.437	143.76	71	62
143.76	144.084	61	58
143.76	144.084	73	71
144.084	144.407	52	37
144.084	144.407	56	37
144.084	144.407	59	37
144.084	144.407	64	37
144.084	144.407	68	37
144.084	144.407	71	63
144.407	144.735	61	61
144.407	144.735	73	74
144.735	145.062	53	40
144.735	145.062	56	40
144.735	145.062	59	40
144.735	145.062	62	40
144.735	145.062	68	40
144.735	145.062	71	68
145.062	145.397	61	61
145.062	145.397	73	75
145.397	145.732	54	46
145.397	145.732	59	46
145.397	145.732	63	46
145.397	145.732	69	46
145.397	145.732	71	75
145.732	145.784	69	59
145.835	145.887	73	53
145.938	146.041	51	45
145.938	145.99	70	59
146.041	146.093	71	55
146.144	146.248	57	45
146.144	146.248	59	45
146.144	146.248	66	45
146.144	146.196	69	59
146.248	146.299	73	55
146.351	146.402	70	59
146.454	146.505	71	53
146.557	146.608	69	59
146.66	146.712	76	55
146.763	146.866	47	45
146.763	146.815	74	59
146.866	146.918	75	53
146.969	147.072	57	45
146.969	147.072	59	45
146.969	147.072	66	45
146.969	147.021	69	60
147.072	147.124	76	56
147.176	147.227	74	59
147.279	147.33	75	53
147.388	147.445	75	53
147.496	147.548	80	47
147.599	147.651	77	51
147.703	147.754	78	47
147.806	147.858	75	50
147.91	147.962	80	46
148.014	148.066	77	49
148.118	148.17	78	43
148.222	148.274	78	48
148.327	148.379	83	44
148.431	148.484	80	47
148.536	148.589	81	41
148.641	148.694	78	46
148.747	148.799	83	43
148.852	148.905	80	44
148.958	149.011	81	42
149.069	149.516	61	53
149.069	149.506	76	44
149.177	149.516	83	39
149.284	149.516	59	49
149.284	149.516	79	44
149.395	149.516	80	39
149.506	150.383	64	50
149.506	149.56	76	44
149.614	150.047	83	40
149.722	150.156	79	44
149.83	150.265	80	40
149.938	150.383	52	37
149.938	150.383	59	37
149.938	150.375	76	44
150.047	150.383	83	39
150.156	150.383	79	44
150.265	150.383	80	39
150.375	150.82	68	52
150.375	150.804	76	46
150.482	150.82	83	43
150.589	150.82	71	50
150.589	150.82	79	47
150.697	150.82	80	43
150.804	151.252	73	55
150.804	150.858	76	50
150.911	151.252	83	45
151.019	151.252	71	49
151.019	151.252	80	47
151.132	151.252	85	45
151.246	152.12	68	51
151.246	151.3	76	44
151.353	151.785	83	40
151.461	151.894	80	44
151.568	152.003	85	40
151.675	152.12	52	37
151.675	152.12	59	37
151.675	152.112	76	44
151.785	152.12	83	40
151.894	152.12	80	44
152.003	152.12	85	40
152.112	152.555	64	50
152.112	152.555	76	45
152.221	152.555	83	43
152.329	152.555	61	48
152.329	152.555	80	46
152.438	152.555	85	43
152.546	152.993	68	50
152.546	152.601	78	49
152.655	152.993	83	40
152.763	152.993	66	47
152.763	152.993	81	45
152.875	152.993	87	40
152.987	153.855	61	49
152.987	153.041	78	46
153.095	153.528	83	44
153.203	153.637	81	45
153.31	153.746	87	42
153.418	153.865	52	37
153.418	153.865	54	37
153.418	153.865	57	37
153.418	153.855	78	47
153.528	153.865	83	44
153.637	153.865	81	44
153.746	153.865	87	43
153.855	154.294	61	48
153.855	153.909	78	46
153.962	154.294	83	43
154.07	154.294	59	41
154.07	154.285	81	45
154.177	154.294	87	42
154.285	154.732	66	47
154.285	154.732	81	44
154.394	154.732	83	40
154.503	154.732	64	39
154.503	154.732	80	44
154.615	154.732	88	40
154.726	155.608	59	41
154.726	154.781	79	44
154.835	155.272	83	40
154.945	155.381	80	44
155.054	155.49	88	40
155.163	155.608	52	37
155.163	155.599	79	44
155.272	155.608	83	40
155.381	155.608	80	44
155.49	155.608	88	40
155.599	156.046	58	48
155.599	155.654	79	46
155.709	156.046	85	40
155.818	156.046	59	47
155.818	156.046	80	46
155.927	156.046	83	43
156.036	156.483	61	53
156.036	156.09	76	49
156.144	156.483	83	43
156.251	156.483	59	49
156.251	156.483	79	46
156.362	156.483	80	44
156.473	157.351	64	50
156.473	156.905	76	44
156.581	157.014	83	40
156.689	157.123	79	44
156.797	157.232	80	40
156.905	157.351	52	37
156.905	157.351	59	37
156.905	157.341	76	44
157.014	157.351	83	39
157.123	157.351	79	47
157.232	157.351	80	43
157.341	157.78	68	52
157.341	157.395	76	49
157.449	157.78	83	44
157.556	157.78	71	50
157.556	157.78	79	47
157.664	157.78	80	44
157.771	158.209	73	55
157.771	157.825	76	50
157.878	158.209	83	44
157.986	158.209	71	49
157.986	158.209	80	49
158.096	158.209	85	44
158.205	159.081	68	51
158.205	158.259	76	47
158.313	158.744	83	43
158.42	158.853	80	46
158.528	158.962	85	44
158.635	159.081	52	37
158.635	159.081	59	37
158.635	159.072	76	44
158.744	159.081	83	40
158.853	159.081	80	44
158.962	159.081	85	40
159.072	159.514	64	50
159.072	159.126	76	45
159.18	159.514	83	42
159.288	159.514	61	48
159.288	159.514	80	45
159.396	159.514	85	42
159.505	159.952	68	50
159.505	159.941	78	45
159.613	159.952	83	42
159.721	159.952	66	47
159.721	159.952	81	47
159.831	159.952	87	43
159.941	160.812	61	49
159.941	159.995	78	47
160.049	160.484	83	44
160.158	160.593	81	46
160.266	160.703	87	42
160.374	160.82	52	37
160.374	160.82	54	37
160.374	160.82	57	37
160.374	160.812	78	44
160.484	160.82	83	40
160.593	160.82	81	44
160.703	160.82	87	40
160.812	161.259	61	48
160.812	160.866	78	47
160.921	161.259	83	44
161.029	161.259	59	41
161.029	161.25	81	47
161.139	161.259	87	45
161.25	161.692	66	48
161.25	161.692	81	49
161.358	161.692	83	44
161.467	161.692	64	41
161.467	161.692	80	47
161.576	161.692	88	44
161.684	162.575	59	48
161.684	161.739	79	50
161.793	162.132	83	44
161.902	162.132	80	47
162.012	162.132	88	43
162.121	162.575	52	41
162.121	162.177	79	50
162.232	162.575	83	45
162.343	162.575	80	46
162.456	162.575	88	43
162.569	163.019	58	40
162.569	162.625	79	45
162.68	163.019	85	42
162.791	163.019	59	37
162.791	163.019	80	44
162.901	163.019	83	36
163.012	163.452	61	42
163.012	163.452	76	49
163.121	163.452	83	44
163.229	163.452	59	39
163.229	163.452	79	47
163.338	163.452	80	44
163.447	164.342	56	42
163.447	163.501	71	47
163.555	163.774	76	44
163.664	163.894	75	47
163.774	163.894	76	43
163.884	165.209	52	39
163.884	163.939	71	46
163.995	164.219	76	43
164.105	164.342	75	45
164.219	164.342	76	43
164.332	164.783	55	40
164.332	164.387	71	45
164.443	164.664	76	42
164.553	164.783	56	37
164.553	164.783	75	44
164.664	164.783	76	36
164.775	165.215	57	42
164.775	165.215	64	43
164.883	165.101	71	39
164.992	165.215	56	39
164.992	165.215	70	43
165.101	165.215	71	37
165.209	165.658	52	40
165.209	165.646	59	43
165.318	165.537	68	36
165.427	165.658	67	43
165.537	165.658	68	36
165.646	167.471	40	39
165.646	166.103	59	43
165.757	165.981	68	36
165.868	166.103	67	42
165.981	166.103	68	36
166.094	166.551	46	40
166.094	166.15	56	42
166.206	166.43	64	36
166.318	166.551	47	37
166.318	166.551	63	41
166.43	166.551	64	36
166.542	167.016	49	42
166.542	166.598	56	37
166.655	166.883	64	35
166.768	167.016	47	39
166.768	167.016	63	37
166.883	167.016	64	34
166.998	167.97	44	40
166.998	167.471	52	37
167.115	167.351	59	32
167.232	167.482	58	37
167.351	167.482	59	32
167.471	169.483	40	39
167.471	167.96	52	37
167.591	167.836	59	33
167.713	167.97	58	36
167.836	167.97	59	33
167.96	168.469	43	40
167.96	168.46	52	36
168.085	168.335	59	33
168.21	168.469	58	36
168.335	168.469	59	33
168.46	168.975	44	42
168.46	168.96	52	37
168.585	168.835	59	35
168.71	168.975	58	37
168.835	168.975	59	34
168.96	169.495	45	40
168.96	169.483	52	37
169.09	169.351	59	32
169.22	169.495	58	37
169.351	169.495	59	32
169.483	175.895	40	39
169.483	170.028	44	42
169.483	170.019	52	37
169.616	169.884	59	33
169.749	170.028	58	36
169.884	170.028	59	33
170.019	170.585	43	40
170.019	170.572	52	36
170.155	170.431	59	33
170.293	170.585	58	36
170.431	170.585	59	33
170.572	175.895	44	39
170.572	171.198	52	37
170.726	171.039	59	35
170.882	171.214	58	37
171.039	171.214	59	33
171.198	171.854	52	36
171.359	171.687	59	30
171.522	171.872	58	36
171.687	171.872	59	30
171.854	172.591	52	35
172.031	172.4	59	30
172.213	172.613	58	31
172.4	172.613	59	25
172.591	172.688	52	27
172.787	173.195	59	23
172.988	173.502	58	27
173.195	173.502	59	24
173.495	173.795	52	22
