OnsetTime	OffsetTime	MidiPitch	Velocity
0.500004	0.599876	67	50
0.533291	0.566577	72	41
0.549934	0.827475	43	48
0.566577	0.599876	74	41
0.574905	0.827475	48	54
0.599876	0.827475	57	60
0.599876	0.827475	75	72
0.701787	0.827475	66	47
0.803698	0.905608	72	50
0.905608	1.00752	75	50
0.956557	1.23312	43	55
0.982038	1.23312	50	59
1.00752	1.23312	59	63
1.00752	1.23312	74	71
1.10942	1.23312	65	45
1.21133	1.32028	71	50
1.32028	1.42923	74	50
1.37475	2.1931	43	51
1.40199	2.15164	51	54
1.42923	1.83548	60	58
1.42923	2.18933	72	71
1.53079	2.1931	69	46
1.63235	2.1931	66	50
1.73392	2.1931	63	50
1.83548	2.1931	60	52
1.93704	2.1931	57	51
2.0386	2.1931	54	50
2.15164	2.2647	51	50
2.15164	2.2647	67	50
2.18933	2.22701	72	41
2.22701	2.2647	74	41
2.2647	2.50168	43	48
2.2647	2.50168	48	52
2.2647	2.50168	57	60
2.2647	2.50168	75	72
2.36627	2.50168	66	47
2.46784	2.5694	72	50
2.5694	2.67096	75	50
2.67096	2.91479	43	51
2.67096	2.91479	50	55
2.67096	2.91479	59	60
2.67096	2.91479	74	71
2.77252	2.91479	65	45
2.87408	2.98263	71	50
2.98263	3.09118	74	50
3.09118	3.85312	43	46
3.09118	3.8115	51	51
3.09118	3.49743	60	57
3.09118	3.85312	72	71
3.19274	3.85312	69	46
3.2943	3.85312	66	50
3.39587	3.8115	63	50
3.49743	3.85312	60	52
3.59899	3.85312	57	51
3.70055	3.85312	54	50
3.8115	3.92247	51	50
3.8115	3.92247	63	50
3.84849	3.88548	67	41
3.86698	4.27794	43	40
3.88548	3.92247	68	41
3.92247	4.27794	52	58
3.92247	4.16452	70	71
4.02403	4.16452	61	42
4.12559	4.22715	67	47
4.22715	4.32873	70	40
4.27794	4.69351	43	43
4.32873	4.69351	53	63
4.32873	4.5534	68	66
4.43029	4.5534	60	40
4.53185	4.63962	65	46
4.63962	4.74739	68	42
4.69351	5.46582	43	39
4.74739	5.15364	55	48
4.74739	5.46582	67	66
4.84895	5.46582	64	40
4.95052	5.46582	61	45
5.05208	5.46582	58	40
5.15364	5.46582	55	52
5.2349	5.46582	52	51
5.31616	5.46582	49	50
5.4027	5.49452	46	50
5.47156	5.58635	58	50
5.49452	5.58635	43	50
5.50982	5.54809	61	41
5.54809	5.58635	64	41
5.58635	5.99538	31	56
5.58635	5.99538	43	70
5.58635	5.89313	65	67
5.68861	6.00492	56	42
5.79087	6.00492	60	47
5.89313	6.00492	65	40
5.99538	6.42617	31	60
5.99538	6.42617	43	70
5.99538	6.31481	62	66
6.09941	6.42617	53	40
6.20344	6.42617	59	46
6.31481	6.42617	62	42
6.42617	6.87936	36	54
6.42617	6.78618	43	67
6.42617	6.87936	60	66
6.51404	6.87936	55	40
6.60328	6.87936	51	45
6.69399	6.87936	48	40
6.78618	6.87936	43	40
6.87936	7.34961	36	78
7.24973	7.34961	67	50
7.28302	7.31631	72	41
7.29966	7.57721	43	57
7.31631	7.34961	74	41
7.32463	7.57721	48	60
7.34961	7.57721	57	64
7.34961	7.57721	75	72
7.45152	7.57721	66	47
7.55343	7.65534	72	50
7.65534	7.75725	75	50
7.70629	7.98285	43	55
7.73177	7.98285	50	58
7.75725	7.98285	59	60
7.75725	7.98285	74	71
7.85915	7.98285	65	45
7.96106	8.07001	71	50
8.07001	8.17896	74	50
8.12448	8.94283	43	55
8.15172	8.90137	51	59
8.17896	8.58521	60	63
8.17896	8.93906	72	71
8.28052	8.94283	69	46
8.38208	8.94283	66	50
8.48364	8.94283	63	50
8.58521	8.94283	60	52
8.68677	8.94283	57	51
8.78833	8.94283	54	50
8.90137	9.01443	51	50
8.90137	9.01443	67	50
8.93906	8.97674	72	41
8.97674	9.01443	74	41
9.01443	9.25141	43	48
9.01443	9.25141	48	52
9.01443	9.25141	57	60
9.01443	9.25141	75	72
9.116	9.25141	66	47
9.21756	9.31913	72	50
9.31913	9.42069	75	50
9.42069	9.66451	43	51
9.42069	9.66451	50	55
9.42069	9.66451	59	60
9.42069	9.66451	74	71
9.52225	9.66451	65	45
9.62381	9.73236	71	50
9.73236	9.84091	74	50
9.84091	10.6028	43	46
9.84091	10.5612	51	51
9.84091	10.2472	60	57
9.84091	10.6028	72	71
9.94247	10.6028	69	46
10.044	10.6028	66	50
10.1456	10.5612	63	50
10.2472	10.6028	60	52
10.3487	10.6028	57	51
10.4503	10.6028	54	50
10.5612	10.6722	51	50
10.5612	10.6722	63	50
10.5982	10.6352	67	41
10.6167	11.0277	43	40
10.6352	10.6722	68	41
10.6722	11.0277	52	50
10.6722	10.9143	70	71
10.7738	10.9143	61	42
10.8753	10.9769	67	47
10.9769	11.0785	70	40
11.0277	11.4432	43	43
11.0785	11.4432	53	50
11.0785	11.3031	68	66
11.18	11.3031	60	40
11.2816	11.3894	65	46
11.3894	11.4971	68	42
11.4432	12.2156	43	39
11.4971	11.9034	55	48
11.4971	12.2156	67	66
11.5987	12.2156	64	40
11.7002	12.2156	61	45
11.8018	12.2156	58	40
11.9034	12.2156	55	52
11.9846	12.2156	52	51
12.0659	12.2156	49	50
12.1524	12.2443	46	50
12.2213	12.3361	58	50
12.2443	12.3361	43	50
12.2596	12.2978	61	41
12.2978	12.3361	64	41
12.3361	12.7451	31	56
12.3361	12.7451	43	70
12.3361	12.6429	65	67
12.4383	12.7546	56	42
12.5406	12.7546	60	47
12.6429	12.7546	65	40
12.7451	13.1759	31	60
12.7451	13.1759	43	70
12.7451	13.0645	62	66
12.8491	13.1759	53	40
12.9532	13.1759	59	46
13.0645	13.1759	62	42
13.1759	13.6291	36	54
13.1759	13.5359	43	67
13.1759	13.6291	60	66
13.2638	13.6291	55	40
13.353	13.6291	51	45
13.4437	13.6291	48	40
13.5359	13.6291	43	40
13.6291	14.1013	36	80
13.8781	14.1013	62	59
13.9943	14.1013	63	43
14.1013	14.7313	43	52
14.1013	14.7156	62	67
14.2087	14.7313	58	41
14.3161	14.7313	57	46
14.416	14.7313	55	39
14.5158	14.9297	50	42
14.7156	14.9244	62	57
14.7156	14.9297	67	57
14.82	14.9297	63	46
14.9244	15.5505	38	51
14.9244	15.5398	62	70
14.9244	15.5505	66	70
15.031	15.5505	60	44
15.1376	15.5505	58	45
15.2381	15.5505	57	45
15.3387	15.7591	50	43
15.5398	15.7538	62	62
15.6468	15.7591	63	45
15.7538	16.3793	43	52
15.7538	16.368	62	72
15.8611	16.3793	58	41
15.9685	16.3793	57	46
16.0684	16.3793	55	39
16.1683	16.5812	50	42
16.368	16.5768	62	53
16.368	16.5812	67	53
16.4724	16.5812	63	46
16.5768	17.2029	38	51
16.5768	17.1922	62	69
16.5768	17.2029	66	69
16.6834	17.2029	60	44
16.79	17.2029	58	45
16.8906	17.2029	57	45
16.9911	17.4062	50	43
17.1922	17.4062	62	57
17.2992	17.4062	63	45
17.4062	18.2346	43	69
17.4062	18.2346	62	68
17.5136	18.2346	58	41
17.621	18.2346	57	46
17.7208	18.2346	55	39
17.8207	18.2346	50	42
17.8207	18.2346	70	69
18.0204	18.2292	63	53
18.1248	18.2346	65	46
18.2292	19.0576	36	72
18.2292	18.8435	63	70
18.3366	19.0576	58	41
18.444	19.0576	57	46
18.5439	19.0576	55	39
18.6437	19.0576	48	42
18.6437	19.0576	75	76
18.8435	19.0523	63	53
18.9479	19.0576	65	46
19.0523	19.8901	41	75
19.0523	19.7712	63	70
19.1596	19.8901	57	41
19.267	19.8901	55	46
19.3647	19.8901	53	39
19.4623	19.8901	48	42
19.4623	19.8901	69	73
19.6576	19.8847	62	53
19.7712	19.8901	63	46
19.8847	20.7131	34	80
19.8847	20.499	62	70
19.9921	20.7131	57	41
20.0995	20.7131	55	46
20.1994	20.7131	53	39
20.2992	20.7131	46	42
20.2992	20.7131	74	76
20.499	20.7078	62	53
20.6034	20.7131	63	46
20.7078	21.5511	39	72
20.7078	21.4339	62	70
20.8151	21.5511	55	41
20.9225	21.5511	53	46
21.0224	21.5511	51	39
21.1223	21.5511	46	42
21.1223	21.5511	67	73
21.322	21.5457	60	53
21.4339	21.5511	62	46
21.5457	22.3741	33	71
21.5457	22.16	60	70
21.6531	22.3741	55	41
21.7605	22.3741	53	46
21.8604	22.3741	51	39
21.9602	22.3741	45	42
21.9602	22.3741	72	76
22.16	22.3688	60	53
22.2644	22.3741	62	46
22.3688	23.1918	38	67
22.3688	23.1971	60	70
22.4761	23.1971	54	41
22.5835	23.1971	52	46
22.6834	23.1971	50	39
22.7832	23.1971	45	42
22.7832	23.1971	66	73
22.983	23.1918	72	53
23.0874	23.1971	74	46
23.1918	23.8381	38	68
23.1918	23.8381	72	70
23.2991	23.8381	66	41
23.4065	23.8381	64	46
23.5064	23.8381	62	39
23.6063	24.0372	57	42
23.6063	23.8381	78	73
23.8277	24.0372	74	64
23.9324	24.0372	75	47
24.0372	24.6656	43	52
24.0372	24.6656	55	52
24.0372	24.6499	74	73
24.1438	24.6656	70	45
24.2504	24.6656	69	50
24.3503	24.6656	67	42
24.4502	24.8587	62	42
24.6499	24.8587	74	62
24.6499	24.864	79	62
24.7543	24.864	75	50
24.8587	25.4848	50	51
24.8587	25.273	62	51
24.8587	25.4741	74	77
24.8587	25.4848	78	77
24.9653	25.4848	72	48
25.0719	25.4848	70	49
25.1725	25.4848	69	49
25.273	25.6935	62	43
25.4741	25.6881	74	68
25.5811	25.6935	75	49
25.6881	26.3137	55	52
25.6881	26.0027	67	52
25.6881	26.3023	74	79
25.7955	26.3137	70	45
25.9029	26.3137	69	50
26.0027	26.3137	67	42
26.1026	26.5111	62	42
26.3023	26.5111	74	58
26.3023	26.5156	79	58
26.4067	26.5156	75	50
26.5111	27.1372	50	51
26.5111	26.9255	62	51
26.5111	27.1265	74	75
26.5111	27.1372	78	75
26.6177	27.1372	72	48
26.7244	27.1372	70	49
26.8249	27.1372	69	49
26.9255	27.3405	62	43
27.1265	27.3405	74	62
27.2335	27.3405	75	49
27.3405	28.1601	43	62
27.3405	28.1601	55	62
27.3405	28.1601	74	74
27.4479	28.1601	70	45
27.5553	28.1601	69	50
27.6529	28.1601	67	42
27.7506	28.1601	62	42
27.7506	28.1601	82	75
27.9459	28.1547	75	58
28.0503	28.1601	77	50
28.1547	28.9875	48	62
28.1547	28.7601	75	77
28.2621	28.9875	70	45
28.3695	28.9875	69	50
28.4671	28.9875	67	42
28.5648	28.9875	60	42
28.5648	28.9875	87	83
28.7601	28.9822	75	58
28.8711	28.9875	77	50
28.9822	29.8004	41	62
28.9822	29.6907	75	77
29.0895	29.8004	69	45
29.1969	29.8004	67	50
29.2942	29.8004	65	42
29.3916	29.8004	60	42
29.3916	29.8004	81	65
29.5863	29.795	74	58
29.6907	29.8004	75	50
29.795	30.6234	46	62
29.795	30.4093	74	77
29.9024	30.6234	69	45
30.0098	30.6234	67	50
30.1097	30.6234	65	42
30.2095	30.6234	58	42
30.2095	30.6234	86	80
30.4093	30.6181	74	58
30.5137	30.6234	75	50
30.6181	31.4614	39	62
30.6181	31.3442	74	77
30.7254	31.4614	67	45
30.8328	31.4614	65	50
30.9327	31.4614	63	42
31.0326	31.4614	58	42
31.0326	31.4614	79	69
31.2323	31.456	72	58
31.3442	31.4614	74	50
31.456	32.2844	45	65
31.456	32.0703	72	77
31.5634	32.2844	67	45
31.6708	32.2844	65	50
31.7707	32.2844	63	42
31.8705	32.2844	57	42
31.8705	32.2844	84	83
32.0703	32.2791	72	53
32.1747	32.2844	74	46
32.2791	33.1021	50	67
32.2791	32.8933	72	70
32.3864	33.1074	66	41
32.4938	33.1074	64	46
32.5937	33.1074	62	39
32.6935	33.1074	57	42
32.6935	33.1074	78	68
32.8933	33.1021	72	53
32.9977	33.1074	74	46
33.1021	34.149	38	68
33.1021	33.9214	50	68
33.1021	34.149	72	70
33.2094	34.149	66	41
33.3168	33.9214	64	46
33.4167	34.149	62	39
33.5166	34.149	57	42
33.5166	34.149	84	73
33.8215	34.149	74	62
33.8548	34.1252	79	53
33.8881	34.149	81	56
33.9214	34.149	50	44
33.9214	34.149	55	48
33.9214	34.149	64	55
33.9214	34.149	82	79
34.0233	34.149	73	51
34.1252	34.2271	79	55
34.2271	34.329	82	55
34.329	34.5546	50	47
34.329	34.5546	57	50
34.329	34.5546	66	55
34.329	34.5546	81	78
34.4309	34.5546	72	49
34.5328	34.6418	78	55
34.6418	34.7507	81	55
34.7507	35.5146	50	42
34.7507	35.4731	58	47
34.7507	35.1569	67	52
34.7507	35.5108	79	78
34.8523	35.5146	76	61
34.9538	35.5146	73	65
35.0554	35.5146	70	69
35.1569	35.5146	67	61
35.2585	35.5146	64	66
35.3601	35.5146	61	55
35.4731	35.5862	58	55
35.4731	35.5862	74	64
35.5108	35.5485	79	56
35.5485	35.5862	81	58
35.5862	35.8232	50	44
35.5862	35.8232	55	48
35.5862	35.8232	64	55
35.5862	35.8232	82	79
35.6877	35.8232	73	51
35.7893	35.8909	79	55
35.8909	35.9924	82	55
35.9924	36.2363	50	47
35.9924	36.2363	57	50
35.9924	36.2363	66	55
35.9924	36.2363	81	78
36.094	36.2363	72	49
36.1955	36.3041	78	55
36.3041	36.4126	81	55
36.4126	37.1746	50	42
36.4126	37.133	58	47
36.4126	36.8189	67	52
36.4126	37.1746	79	78
36.5142	37.1746	76	58
36.6158	37.1746	73	62
36.7173	37.133	70	65
36.8189	37.1746	67	61
36.9205	37.1746	64	66
37.022	37.1746	61	55
37.133	37.2439	58	55
37.133	37.2439	70	63
37.17	37.2069	74	51
37.1884	37.5994	50	44
37.2069	37.2439	75	57
37.2439	37.5994	59	62
37.2439	37.486	77	78
37.3455	37.486	68	46
37.4471	37.5486	74	51
37.5486	37.6502	77	44
37.5994	38.015	50	47
37.6502	38.015	60	58
37.6502	37.8749	75	72
37.7518	37.8749	67	44
37.8533	37.9611	72	50
37.9611	38.0689	75	46
38.015	38.7548	50	42
38.0689	38.4751	62	52
38.0689	38.7548	74	72
38.1704	38.7548	71	44
38.272	38.7548	68	49
38.3735	38.7242	65	44
38.4751	38.7548	62	57
38.5564	38.7548	59	56
38.6376	38.7548	56	55
38.7242	38.816	53	55
38.7242	38.9078	65	63
38.7854	38.8466	68	45
38.816	38.9078	50	55
38.8466	38.9078	71	56
38.9078	39.3168	38	44
38.9078	39.3168	50	55
38.9078	39.2146	72	73
39.01	39.3264	63	46
39.1123	39.3264	67	51
39.2146	39.3264	72	44
39.3168	39.7476	38	47
39.3168	39.7476	50	55
39.3168	39.6362	69	72
39.4209	39.7476	60	44
39.5249	39.7476	66	50
39.6362	39.7476	69	46
39.7476	40.2012	43	42
39.7476	40.1076	50	52
39.7476	40.2012	67	72
39.8355	40.2012	62	52
39.9247	40.2012	58	55
40.0154	40.2012	55	58
40.1076	40.2012	50	61
40.2012	40.4605	43	82
40.4389	40.5684	55	60
40.5468	40.6547	54	46
40.6547	40.7797	55	68
40.7589	40.8631	56	50
40.8631	40.988	53	58
40.9672	41.0714	55	49
41.0714	41.1947	51	60
41.1741	41.2769	53	50
41.2769	41.4013	50	56
41.3796	41.4879	51	48
41.4879	41.9062	48	60
41.5903	41.9062	50	51
41.6927	41.9062	51	51
41.7951	41.9062	55	57
41.8975	42.3127	60	56
42.002	42.3127	62	60
42.1065	42.3127	63	65
42.2096	42.3127	59	56
42.3127	42.4364	60	67
42.4158	42.5189	59	51
42.5189	42.6426	60	59
42.622	42.7251	55	51
42.7251	42.848	56	60
42.8275	42.9299	55	48
42.9299	43.0527	56	54
43.0323	43.1347	52	47
43.1347	43.2579	53	58
43.2374	43.3401	52	50
43.3401	43.4643	53	54
43.4429	43.55	50	48
43.55	43.8844	55	57
43.6528	43.8844	53	56
43.7555	43.8844	51	55
43.7555	43.8844	60	54
43.86	43.9646	50	54
43.86	43.9646	59	41
43.9646	44.17	51	55
43.9646	44.0878	60	61
44.0673	44.17	62	45
44.17	44.2728	51	53
44.17	44.2933	60	52
44.2728	44.3755	62	44
44.3755	44.4779	50	59
44.3755	44.4984	58	54
44.4779	44.5803	60	45
44.5803	44.6827	48	53
44.5803	44.7038	57	50
44.6827	44.7883	58	43
44.7883	45.6139	46	59
44.7883	45.2113	55	54
44.8911	45.2113	57	45
44.9938	45.2113	58	45
45.0966	45.2113	62	51
45.1993	45.6139	67	50
45.302	45.6139	69	54
45.4048	45.6139	45	53
45.4048	45.6139	70	58
45.5075	45.6139	66	50
45.6139	45.8194	46	61
45.6139	45.7372	67	60
45.7166	45.8194	66	45
45.8194	45.9221	47	55
45.8194	45.9427	67	53
45.9221	46.0249	62	45
46.0249	46.1287	48	61
46.0249	46.1494	63	54
46.1287	46.2325	62	43
46.2325	46.3363	50	55
46.2325	46.3575	63	48
46.3363	46.4427	59	42
46.4427	46.5465	51	65
46.4427	46.5672	60	52
46.5465	46.6503	59	45
46.6503	46.7541	48	55
46.6503	46.7748	60	48
46.7541	46.8579	55	43
46.8579	46.9617	50	55
46.8579	46.9824	59	51
46.9617	47.0655	55	50
47.0655	47.1922	53	58
47.0655	47.1922	67	66
47.1711	47.2767	50	52
47.1711	47.2767	66	50
47.2767	47.4843	51	64
47.2767	47.4013	67	74
47.3805	47.4843	68	55
47.4843	47.5881	38	55
47.4843	47.5881	50	55
47.4843	47.6089	65	63
47.5881	47.6919	67	53
47.6919	47.7986	36	61
47.6919	47.7986	48	61
47.6919	47.8199	63	66
47.7986	47.9052	65	55
47.9052	48.0123	34	55
47.9052	48.0123	46	55
47.9052	48.0349	62	61
48.0123	48.1254	63	52
48.1254	48.7659	33	66
48.1254	48.7659	45	66
48.1254	48.5637	60	66
48.2384	48.5637	62	56
48.3439	48.5637	63	56
48.4494	48.5637	67	62
48.5549	48.6604	72	61
48.6604	48.9928	74	66
48.7659	48.9928	33	56
48.7659	48.9928	45	56
48.7659	48.9928	75	71
48.8798	48.9928	66	61
48.9928	49.4527	34	61
48.9928	49.4527	46	61
48.9928	49.3307	74	73
49.1054	49.4527	67	56
49.2181	49.4527	70	64
49.3307	49.4527	74	56
49.4433	49.8961	36	60
49.4433	49.8961	48	60
49.4433	49.7813	72	66
49.5559	49.8961	63	52
49.6686	49.8961	69	59
49.7813	49.8961	72	51
49.8961	50.4863	38	63
49.8961	50.4719	50	63
49.8961	50.2627	66	63
50.0145	50.4863	60	55
50.1366	50.4863	62	59
50.2627	50.4863	66	52
50.4719	50.7598	43	54
50.4719	50.7598	50	64
50.4719	50.7598	59	59
50.4719	50.7598	67	70
50.7598	50.8893	55	60
50.8678	50.9757	54	46
50.9757	51.1006	55	68
51.0798	51.184	56	50
51.184	51.309	53	58
51.2881	51.3923	55	49
51.3923	51.5156	51	60
51.4951	51.5978	53	50
51.5978	51.7222	50	56
51.7005	51.8088	51	48
51.8088	52.2271	48	60
51.9112	52.2271	50	51
52.0136	52.2271	51	51
52.116	52.2271	55	57
52.2184	52.6337	60	56
52.3229	52.6337	62	60
52.4275	52.6337	63	65
52.5306	52.6337	59	56
52.6337	52.7574	60	67
52.7367	52.8398	59	51
52.8398	52.9635	60	59
52.9429	53.046	55	51
53.046	53.1689	56	60
53.1484	53.2508	55	48
53.2508	53.3737	56	54
53.3532	53.4556	52	47
53.4556	53.5789	53	58
53.5583	53.6611	52	50
53.6611	53.7852	53	54
53.7638	53.871	50	48
53.871	54.2053	55	57
53.9737	54.2053	53	56
54.0764	54.2053	51	55
54.0764	54.2053	60	54
54.181	54.2855	50	54
54.181	54.2855	59	41
54.2855	54.491	51	55
54.2855	54.4088	60	61
54.3882	54.491	62	45
54.491	54.5937	51	53
54.491	54.6143	60	52
54.5937	54.6965	62	44
54.6965	54.7989	50	59
54.6965	54.8193	58	54
54.7989	54.9012	60	45
54.9012	55.0036	48	53
54.9012	55.0248	57	50
55.0036	55.1093	58	43
55.1093	55.9348	46	59
55.1093	55.5322	55	54
55.212	55.5322	57	45
55.3147	55.5322	58	45
55.4175	55.5322	62	51
55.5202	55.9348	67	50
55.623	55.9348	69	54
55.7257	55.9348	45	53
55.7257	55.9348	70	58
55.8285	55.9348	66	50
55.9348	56.1403	46	61
55.9348	56.0581	67	60
56.0376	56.1403	66	45
56.1403	56.2431	47	55
56.1403	56.2636	67	53
56.2431	56.3458	62	45
56.3458	56.4496	48	61
56.3458	56.4704	63	54
56.4496	56.5534	62	43
56.5534	56.6572	50	55
56.5534	56.6785	63	48
56.6572	56.7636	59	42
56.7636	56.8674	51	65
56.7636	56.8881	60	52
56.8674	56.9712	59	45
56.9712	57.075	48	55
56.9712	57.0958	60	48
57.075	57.1788	55	43
57.1788	57.2826	50	55
57.1788	57.3034	59	51
57.2826	57.3864	55	50
57.3864	57.5132	53	58
57.3864	57.5132	67	66
57.492	57.5977	50	52
57.492	57.5977	66	50
57.5977	57.8053	51	64
57.5977	57.7222	67	74
57.7015	57.8053	68	55
57.8053	57.9091	38	55
57.8053	57.9091	50	55
57.8053	57.9298	65	63
57.9091	58.0129	67	53
58.0129	58.1195	36	61
58.0129	58.1195	48	61
58.0129	58.1408	63	66
58.1195	58.2261	65	55
58.2261	58.3332	34	55
58.2261	58.3332	46	55
58.2261	58.3559	62	61
58.3332	58.4463	63	52
58.4463	59.0868	33	66
58.4463	59.0868	45	66
58.4463	58.8846	60	66
58.5593	58.8846	62	56
58.6648	58.8846	63	56
58.7703	58.8846	67	62
58.8758	58.9813	72	61
58.9813	59.3138	74	66
59.0868	59.3138	33	56
59.0868	59.3138	45	56
59.0868	59.3138	75	71
59.2007	59.3138	66	61
59.3138	59.7736	34	61
59.3138	59.7736	46	61
59.3138	59.6516	74	73
59.4264	59.7736	67	56
59.539	59.7736	70	64
59.6516	59.7736	74	56
59.7642	60.217	36	60
59.7642	60.217	48	60
59.7642	60.1022	72	66
59.8769	60.217	63	52
59.9895	60.217	69	59
60.1022	60.217	72	51
60.217	60.8076	38	63
60.217	60.7928	50	63
60.217	60.5836	66	63
60.3354	60.8076	60	55
60.4576	60.8076	62	59
60.5836	60.8076	66	52
60.7928	61.0878	43	54
60.7928	61.0878	50	64
60.7928	61.0878	59	59
60.7928	61.0878	67	70
61.0878	61.1924	72	54
61.1924	61.5183	71	41
61.2969	61.5183	36	66
61.2969	61.5183	72	61
61.4028	61.5183	73	45
61.5086	62.1332	48	63
61.5086	61.8228	70	52
61.6145	62.1332	72	44
61.7204	62.0275	68	54
61.8228	62.1332	70	45
61.9252	62.1332	52	65
61.9252	62.1332	67	50
62.0275	62.1332	68	43
62.1332	63.1795	53	70
62.1332	62.3507	65	54
62.2359	62.3507	67	45
62.3387	62.9588	41	63
62.3387	62.9588	68	45
62.4414	62.9588	72	51
62.5442	62.9588	77	50
62.6469	62.9588	79	54
62.7496	62.9588	44	63
62.7496	62.9588	80	58
62.8524	62.9588	75	50
62.9588	64.0297	46	71
62.9588	63.289	74	60
63.0694	63.4286	75	45
63.1795	63.4286	53	63
63.1795	63.4286	72	53
63.289	63.4286	74	45
63.398	63.8242	55	68
63.398	63.7189	70	54
63.5058	63.8242	72	43
63.6127	63.8242	57	69
63.6127	63.8242	69	48
63.7189	63.8242	70	42
63.8242	65.1413	58	70
63.8242	64.0494	67	54
63.927	64.0494	69	48
64.0297	64.6498	46	63
64.0297	64.6498	70	48
64.1324	64.6498	74	51
64.2352	64.6498	79	50
64.3379	64.6498	81	54
64.4406	64.6498	50	63
64.4406	64.6498	82	58
64.5434	64.6498	78	50
64.6498	65.7101	51	71
64.6498	64.9788	79	60
64.7603	65.1413	80	53
64.87	65.1413	59	63
64.87	65.1413	77	60
64.9788	65.1413	79	51
65.0868	65.5046	60	68
65.0868	65.1906	75	61
65.1906	65.5046	77	50
65.2944	65.5046	62	69
65.2944	65.5046	74	55
65.3982	65.5046	75	52
65.5046	66.5473	63	70
65.5046	65.7195	72	61
65.6073	65.7195	74	50
65.7101	66.3302	51	63
65.7101	66.3302	75	50
65.8128	66.3302	79	55
65.9156	66.3302	84	56
66.0183	66.3302	86	60
66.121	66.3302	55	63
66.121	66.3302	87	65
66.2238	66.3302	83	56
66.3302	66.7643	56	75
66.3302	66.7535	84	71
66.4387	66.7535	86	54
66.5473	66.9846	60	61
66.5473	66.9846	63	72
66.5473	66.7535	87	63
66.6558	66.7643	83	53
66.7643	67.2095	57	73
66.7643	67.2095	84	68
66.8745	67.2095	86	53
66.9846	67.2095	60	52
66.9846	67.2095	63	62
66.9846	67.2095	66	74
66.9846	67.2095	87	59
67.0948	67.2095	78	51
67.2048	67.443	59	50
67.2048	67.443	62	53
67.2048	67.443	65	60
67.2048	67.443	67	71
67.2048	67.4299	79	60
67.3175	67.443	80	55
67.4299	67.6637	60	54
67.4299	67.6637	63	54
67.4299	67.6637	68	64
67.4299	67.6534	79	63
67.5418	67.6637	80	60
67.6534	67.89	62	50
67.6534	67.89	65	56
67.6534	67.8769	67	56
67.6534	67.89	71	67
67.6534	67.8769	79	66
67.7649	67.89	80	61
67.8769	68.1017	63	57
67.8769	68.1017	67	57
67.8769	68.1017	72	68
67.8769	68.1017	79	64
67.9893	68.1017	80	55
68.1017	68.3317	65	68
68.1017	68.3207	67	68
68.1017	68.3317	74	80
68.1017	68.3317	79	66
68.2112	68.3317	80	60
68.3207	68.7496	55	62
68.3207	68.7496	67	73
68.3207	68.4282	77	65
68.4282	68.7654	79	57
68.5353	68.7654	75	63
68.6425	68.7654	77	54
68.7496	68.9798	55	56
68.7496	69.4271	67	69
68.7496	68.8611	74	63
68.8611	68.9798	75	54
68.9726	69.4271	60	54
68.9726	69.4271	72	61
69.0836	69.4271	74	56
69.1954	69.4271	63	68
69.1954	69.4271	75	60
69.3066	69.4271	79	63
69.417	69.8591	69	69
69.417	69.8591	84	65
69.5269	69.8591	86	63
69.6363	69.8591	72	71
69.6363	69.8591	79	58
69.6363	69.8591	87	68
69.7471	69.8591	78	61
69.8591	70.0891	62	50
69.8591	70.0891	65	60
69.8591	70.0891	71	74
69.8591	70.0891	79	66
69.9686	70.0891	80	60
70.0781	70.507	55	62
70.0781	70.507	67	73
70.0781	70.1856	77	65
70.1856	70.5228	79	57
70.2927	70.5228	75	63
70.3998	70.5228	77	54
70.507	70.7372	55	56
70.507	71.1845	67	69
70.507	70.6185	74	63
70.6185	70.7372	75	54
70.73	71.1845	60	54
70.73	71.1845	72	61
70.841	71.1845	74	56
70.9528	71.1845	63	68
70.9528	71.1845	75	60
71.064	71.1845	79	63
71.1744	71.5818	69	73
71.1744	71.5818	84	65
71.2842	71.5818	86	52
71.3934	72.0744	72	71
71.3934	71.5818	79	62
71.3934	71.5818	87	62
71.5037	72.0847	78	55
71.6145	72.0847	62	47
71.6145	72.0847	65	59
71.6145	72.0847	71	74
71.6145	72.0847	79	67
71.731	72.0847	80	52
71.8464	72.0847	55	69
71.8464	72.0744	77	57
71.9609	72.0847	89	52
72.0744	72.531	63	47
72.0744	72.531	67	59
72.0744	72.531	72	74
72.0744	72.531	77	68
72.1868	72.531	79	52
72.2983	72.531	55	69
72.2983	72.5208	75	57
72.4097	72.531	87	54
72.5208	72.9747	65	60
72.5208	72.9747	68	75
72.5208	72.6316	75	68
72.6316	72.9747	77	54
72.7423	72.9747	55	67
72.7423	72.9627	74	58
72.8526	72.9747	86	54
72.9627	73.401	63	57
72.9627	73.401	67	73
72.9627	73.0726	74	69
73.0726	73.401	75	55
73.1823	73.6187	55	70
73.1823	73.401	72	58
73.2918	73.401	84	55
73.401	73.8464	62	59
73.401	73.8464	65	77
73.401	73.8464	72	70
73.51	73.8464	74	55
73.6187	74.0516	55	71
73.6187	73.8356	70	55
73.7273	73.8464	82	55
73.8356	74.2716	60	57
73.8356	74.2716	63	78
73.8356	74.2716	70	73
73.9437	74.2716	72	55
74.0516	74.4794	55	74
74.0516	74.2663	68	55
74.1591	74.2716	80	55
74.2663	74.6993	59	55
74.2663	74.6993	62	70
74.2663	74.3727	68	76
74.3727	74.6993	70	56
74.4794	74.9097	55	87
74.4794	74.6939	67	57
74.5865	74.6993	79	57
74.6939	74.9097	67	71
74.8017	75.1268	79	55
74.9097	75.1268	43	64
74.9097	75.1268	55	80
74.9097	75.1268	67	76
75.018	75.1268	68	55
75.1268	75.7792	36	76
75.1268	75.7792	48	90
75.1268	75.7624	67	77
75.2434	75.7792	63	47
75.36	75.7792	62	52
75.4606	75.7792	60	44
75.5612	75.9861	55	73
75.7624	75.9861	67	65
75.7624	75.9916	72	65
75.8743	75.9916	68	52
75.9861	76.6114	43	75
75.9861	76.4018	55	89
75.9861	76.601	67	80
75.9861	76.6114	71	80
76.0944	76.6114	65	50
76.2026	76.6114	63	51
76.3022	76.6114	62	51
76.4018	76.8153	55	75
76.601	76.8099	67	71
76.7055	76.8153	68	51
76.8099	77.4308	48	74
76.8099	77.1228	60	88
76.8099	77.4187	67	82
76.917	77.4308	63	47
77.0242	77.4308	62	52
77.1228	77.4308	60	44
77.2214	77.6469	55	75
77.4187	77.6424	67	60
77.4187	77.6469	72	60
77.5305	77.6469	68	52
77.6424	78.2594	43	75
77.6424	78.2491	67	79
77.6424	78.2594	71	79
77.6487	78.0537	55	89
77.7503	78.2594	65	50
77.8582	78.2594	63	51
77.9559	78.2594	62	51
78.0537	78.4546	55	76
78.2491	78.4546	67	65
78.3518	78.4546	68	51
78.4546	79.2709	36	67
78.4546	79.2709	48	79
78.4546	79.2709	67	78
78.5644	79.2709	63	47
78.6743	79.2709	62	52
78.7714	79.2709	60	44
78.8685	79.2709	55	57
78.8685	79.2709	75	79
79.0627	79.2654	68	60
79.164	79.2709	70	52
79.2654	80.1082	41	69
79.2654	79.6803	53	82
79.2654	79.8739	68	80
79.3761	80.1082	63	47
79.4868	80.1082	65	52
79.5835	80.1082	60	44
79.6803	80.1082	53	62
79.6803	80.1082	80	87
79.8739	80.1027	68	60
79.9883	80.1082	70	52
80.1027	80.9197	34	73
80.1027	80.9197	46	86
80.1027	80.813	68	80
80.213	80.9197	62	47
80.3233	80.9197	60	52
80.4204	80.9197	58	44
80.5175	80.9197	53	61
80.5175	80.9197	74	83
80.7116	80.9143	67	59
80.813	80.9197	68	51
80.9143	81.7259	39	77
80.9143	81.3236	51	91
80.9143	81.5177	67	79
81.0219	81.7259	62	46
81.1294	81.7259	63	50
81.2265	81.7259	58	43
81.3236	81.7259	51	60
81.3236	81.7259	79	85
81.5177	81.7204	67	58
81.6191	81.7259	68	50
81.7204	82.5365	32	66
81.7204	82.5365	44	79
81.7204	82.43	67	77
81.8299	82.5365	60	45
81.9394	82.5365	58	50
82.0368	82.5365	56	42
82.1342	82.5365	51	57
82.1342	82.5365	72	79
82.329	82.531	65	57
82.43	82.5365	67	49
82.531	83.3727	38	64
82.531	82.9434	50	76
82.531	83.1376	65	76
82.6401	83.3727	60	44
82.7492	83.3727	62	49
82.8463	83.3727	56	41
82.9434	83.3727	50	56
82.9434	83.3727	77	81
83.1376	83.3673	65	56
83.2524	83.3727	67	48
83.3673	84.1738	31	61
83.3673	84.1738	43	72
83.3673	83.9717	65	75
83.476	84.1791	59	43
83.5846	84.1791	57	48
83.6814	84.1791	55	40
83.7782	84.1791	50	56
83.7782	84.1791	71	77
83.9717	84.1738	65	55
84.0728	84.1791	67	47
84.1738	85.2274	31	60
84.1738	84.9563	43	71
84.1738	85.2274	65	73
84.2813	85.2274	59	43
84.3888	85.2274	62	47
84.4856	85.2274	55	40
84.5824	85.2274	50	57
84.5824	85.2274	77	75
84.9064	85.2274	67	52
84.9396	85.2043	72	43
84.9563	85.2274	43	50
84.9729	85.2274	74	43
84.9813	85.2274	48	56
85.0062	85.2274	57	63
85.0062	85.2274	75	75
85.1052	85.2274	66	49
85.2043	85.3033	72	52
85.3033	85.4023	75	52
85.3528	85.6216	43	57
85.3775	85.6216	50	61
85.4023	85.6216	59	66
85.4023	85.6216	74	74
85.5013	85.6216	65	47
85.6003	85.7067	71	52
85.7067	85.8131	74	52
85.7599	86.5534	43	53
85.7865	86.5131	51	56
85.8131	86.2065	60	60
85.8131	86.5497	72	74
85.9114	86.5534	69	48
86.0098	86.5534	66	52
86.1081	86.5534	63	52
86.2065	86.5534	60	54
86.3049	86.5534	57	53
86.4032	86.5534	54	52
86.5131	86.623	51	52
86.5131	86.623	67	52
86.5497	86.5863	72	43
86.5863	86.623	74	43
86.623	86.8532	43	50
86.623	86.8532	48	54
86.623	86.8532	57	63
86.623	86.8532	75	75
86.7217	86.8532	66	49
86.8203	86.919	72	52
86.919	87.0177	75	52
87.0177	87.2558	43	53
87.0177	87.2558	50	57
87.0177	87.2558	59	63
87.0177	87.2558	74	74
87.1164	87.2558	65	47
87.2151	87.3236	71	52
87.3236	87.4322	74	52
87.4322	88.1827	43	48
87.4322	88.1411	51	53
87.4322	87.8308	60	59
87.4322	88.1827	72	74
87.5318	88.1827	69	48
87.6315	88.1827	66	52
87.7312	88.1411	63	52
87.8308	88.1827	60	54
87.9305	88.1827	57	53
88.0302	88.1827	54	52
88.1411	88.2521	51	52
88.1411	88.2521	63	52
88.1781	88.2151	67	43
88.1966	88.6033	43	42
88.2151	88.2521	68	43
88.2521	88.6033	52	60
88.2521	88.4912	70	74
88.3524	88.4912	61	44
88.4528	88.5531	67	49
88.5531	88.6534	70	42
88.6033	89.0157	43	45
88.6534	89.0157	53	66
88.6534	88.8756	68	69
88.7538	88.8756	60	42
88.8541	88.9619	65	48
88.9619	89.0696	68	44
89.0157	89.755	43	40
89.0696	89.4723	55	50
89.0696	89.755	67	69
89.1703	89.755	64	42
89.271	89.755	61	47
89.3717	89.7196	58	42
89.4723	89.755	55	54
89.5529	89.755	52	53
89.6334	89.755	49	52
89.7196	89.8114	46	52
89.7196	89.9032	58	52
89.7808	89.842	61	43
89.8114	89.9032	43	52
89.842	89.9032	64	43
89.9032	90.3123	31	58
89.9032	90.3123	43	73
89.9032	90.21	65	70
90.0055	90.3218	56	44
90.1077	90.3218	60	49
90.21	90.3218	65	42
90.3123	90.7431	31	63
90.3123	90.7431	43	73
90.3123	90.6317	62	69
90.4163	90.7431	53	42
90.5203	90.7431	59	48
90.6317	90.7431	62	44
90.7431	91.1962	36	56
90.7431	91.1031	43	70
90.7431	91.1962	60	69
90.8309	91.1962	55	42
90.9202	91.1962	51	47
91.0109	91.1962	48	42
91.1031	91.1962	43	42
91.1962	91.4431	36	81
91.4431	91.6612	51	34
91.4431	91.6612	55	28
91.4431	91.6612	58	39
91.4431	91.6612	63	39
91.4431	91.6612	67	47
91.6855	92.172	50	38
91.6855	92.1575	53	32
91.6855	92.172	58	42
91.6855	92.172	65	42
92.1575	92.6601	48	35
92.1575	92.6601	53	29
92.1575	92.6601	57	39
92.1575	92.6601	63	39
92.1575	92.6601	69	47
92.653	93.1123	46	40
92.653	93.1123	58	42
92.653	93.1123	62	42
92.653	93.1123	70	50
92.6792	93.1385	53	34
93.3782	93.6215	51	35
93.3782	93.6215	55	29
93.3782	93.6215	58	39
93.3782	93.6215	63	39
93.3782	93.6215	67	47
93.6215	94.1025	50	38
93.6215	94.0955	53	32
93.6215	94.1025	58	42
93.6215	94.1025	65	42
94.0955	94.591	48	35
94.0955	94.591	53	29
94.0955	94.591	57	39
94.0955	94.591	63	39
94.0955	94.591	69	47
94.579	95.0383	46	40
94.579	95.0383	58	42
94.579	95.0383	62	42
94.579	95.0383	70	50
94.6051	95.0644	53	34
95.3042	95.5455	46	33
95.3042	95.5455	53	39
95.3042	95.5455	58	45
95.3042	95.5455	62	45
95.3042	95.5455	65	53
95.5455	96.0386	39	36
95.5455	96.0282	51	43
95.5455	96.0282	58	48
95.5455	96.0282	63	48
95.5455	96.0386	67	57
96.0282	96.5362	43	34
96.0282	96.5362	51	41
96.0282	96.5362	55	45
96.0282	96.527	58	45
96.0282	96.5362	63	54
96.527	97.048	46	39
96.527	97.048	50	46
96.527	97.048	53	49
96.527	97.048	58	49
96.527	97.048	65	58
97.2629	97.5062	46	34
97.2629	97.5062	50	41
97.2629	97.5062	53	45
97.2629	97.5062	58	45
97.2629	97.5062	65	54
97.5062	98.0014	39	39
97.5062	97.9889	51	46
97.5062	97.9889	55	50
97.5062	98.0014	67	59
97.9889	98.547	43	36
97.9889	98.547	51	43
97.9889	98.547	55	45
97.9889	98.4897	58	45
97.9889	98.547	63	54
98.4897	98.9803	46	40
98.4897	98.9803	50	48
98.4897	98.9803	53	51
98.4897	98.9803	58	51
98.4897	98.9803	65	60
99.2256	99.474	46	24
99.2256	99.474	50	29
99.2256	99.474	53	35
99.2256	99.474	58	35
99.2256	99.474	62	42
99.474	99.9977	46	29
99.474	99.979	48	35
99.474	99.9977	55	40
99.474	99.9977	58	40
99.474	99.979	63	48
99.979	100.506	45	26
99.979	100.522	48	31
99.979	100.506	53	34
99.979	100.506	60	34
99.979	100.522	63	41
100.506	101.024	45	29
100.506	101.024	46	35
100.506	101.024	53	40
100.506	101.024	60	40
100.506	101.024	62	48
101.294	101.563	46	27
101.294	101.563	53	29
101.294	101.563	58	29
101.294	101.563	62	35
101.563	102.126	39	29
101.563	102.126	46	35
101.563	102.126	55	36
101.563	102.126	58	36
101.563	102.112	60	43
102.112	102.7	41	25
102.112	102.7	45	30
102.112	102.7	53	31
102.112	102.7	60	37
102.688	104.3	34	30
102.688	104.3	46	36
102.688	103.392	58	43
103.542	103.795	56	34
103.542	103.795	60	28
103.542	103.795	63	38
103.542	103.795	68	38
103.542	103.795	72	45
103.795	104.3	55	38
103.795	104.287	58	32
103.795	104.3	63	41
103.795	104.3	70	49
104.287	104.813	53	35
104.287	104.799	58	29
104.287	104.813	62	36
104.287	104.813	68	36
104.287	104.813	74	43
104.799	105.279	51	40
104.799	105.279	58	34
104.799	105.279	63	41
104.799	105.279	67	41
104.799	105.279	75	49
105.553	105.803	56	32
105.553	105.803	60	27
105.553	105.803	63	36
105.553	105.803	72	43
105.803	106.314	55	38
105.803	106.302	58	32
105.803	106.314	63	42
105.803	106.314	70	50
106.302	106.83	53	33
106.302	106.817	58	28
106.302	106.83	62	37
106.302	106.83	68	37
106.302	106.83	74	44
106.817	107.308	51	42
106.817	107.308	58	35
106.817	107.308	63	40
106.817	107.308	67	40
106.817	107.308	75	48
107.588	107.843	51	34
107.588	107.843	58	34
107.588	107.843	63	39
107.588	107.843	67	39
107.588	107.843	70	39
107.843	108.38	48	36
107.843	108.38	58	43
107.843	108.38	63	45
107.843	108.38	67	45
107.843	108.38	75	53
108.363	108.904	50	35
108.363	108.904	57	42
108.363	108.893	62	45
108.363	108.904	66	45
108.363	108.904	74	53
108.893	109.422	43	38
108.893	109.422	55	45
108.893	109.422	62	48
108.893	109.422	67	48
108.893	109.422	70	57
109.682	109.979	43	24
109.682	109.979	51	29
109.682	109.979	61	34
109.682	109.979	70	41
109.979	110.558	44	29
109.979	110.558	51	35
109.979	110.558	60	39
109.979	110.558	72	47
110.546	111.145	46	27
110.546	111.145	50	32
110.546	111.145	65	34
110.546	111.145	70	41
111.132	111.699	48	34
111.132	111.699	58	40
111.132	111.699	64	40
111.132	111.699	67	48
111.983	112.25	48	29
111.983	112.25	58	34
111.983	112.25	64	34
111.983	112.25	67	41
112.25	112.811	41	35
112.25	112.811	60	39
112.25	112.796	65	39
112.25	112.811	68	47
112.796	113.369	46	32
112.796	113.369	56	34
112.796	113.361	62	34
112.796	113.369	65	41
113.22	113.369	57	34
113.361	113.952	43	34
113.361	113.952	58	40
113.361	113.952	62	40
113.361	113.952	67	48
114.203	114.47	48	29
114.203	114.47	58	34
114.203	114.47	64	34
114.203	114.47	67	41
114.47	115.023	41	35
114.47	115.023	60	39
114.47	115.009	65	39
114.47	115.023	68	47
115.009	115.592	46	32
115.009	115.592	56	34
115.009	115.592	62	34
115.009	115.592	65	41
115.576	116.144	39	34
115.576	116.144	55	40
115.576	116.144	63	48
116.427	116.702	39	29
116.427	116.702	55	34
116.427	118.479	63	41
116.702	117.898	44	35
116.702	117.898	60	39
117.281	117.898	59	34
117.88	118.479	43	34
117.88	118.479	58	40
118.779	120.882	39	26
118.779	124.241	51	26
118.779	124.241	63	26
119.116	120.882	48	34
119.116	120.882	56	31
119.86	120.882	47	32
120.859	124.241	46	30
120.859	124.241	55	23
