OnsetTime	OffsetTime	MidiPitch	Velocity
0.500004	0.572639	31	44
0.887383	0.980724	55	40
0.980724	1.07406	57	32
1.07406	1.16741	55	34
1.16741	1.26921	50	34
1.26921	1.37729	62	40
1.58193	1.65433	34	35
1.58193	1.65433	50	40
1.58193	1.65433	55	40
1.67847	1.75088	33	40
1.67847	1.75088	48	46
1.67847	1.75088	54	46
2.06467	2.15801	60	43
2.15801	2.25135	62	37
2.25135	2.34469	60	37
2.34469	2.44762	57	37
2.44762	2.55407	69	49
2.75672	2.82889	30	33
2.75672	2.82889	50	44
2.75672	2.82889	60	44
2.85295	2.92511	31	40
2.85295	2.92511	50	48
2.85295	2.92511	58	48
3.23782	3.33147	55	40
3.33147	3.42512	57	34
3.42512	3.51877	55	34
3.51877	3.62132	50	34
3.62132	3.69525	67	50
3.9147	3.98686	34	32
3.9147	3.98686	55	44
3.9147	3.98686	65	44
4.01092	4.08235	36	37
4.01092	4.08235	55	47
4.01092	4.08235	63	47
4.29663	4.37084	38	33
4.29663	4.37084	55	40
4.29663	4.37084	62	40
4.39557	4.46675	39	38
4.39557	4.46675	55	44
4.39557	4.46675	60	44
4.68031	4.75425	58	50
4.77889	4.85082	51	40
4.77889	4.85082	57	46
4.77889	4.85082	61	46
5.06658	5.14795	55	40
5.17508	5.24725	38	45
5.17508	5.24725	50	45
5.17508	5.24725	54	50
5.17508	5.24725	62	50
5.55995	6.32967	74	72
5.94481	6.32967	30	40
5.94481	6.70877	62	61
6.23346	6.32967	72	58
6.32967	6.5176	31	44
6.32967	6.40014	70	65
6.61156	6.68447	69	55
6.70877	7.36916	55	60
6.70877	6.77901	67	64
6.70877	7.08727	70	64
6.98971	7.06288	65	56
7.08727	7.15775	63	64
7.36916	7.46672	53	51
7.36916	7.44233	62	56
7.46672	7.53696	51	58
7.46672	7.53696	60	64
7.74766	7.82058	50	51
7.84488	7.91704	48	57
7.84488	8.70309	77	68
8.13352	8.70309	46	50
8.22975	8.70309	33	40
8.22975	8.99371	65	61
8.51839	8.70309	75	58
8.6146	8.80253	34	44
8.6146	8.70309	74	65
8.89649	8.96941	72	55
8.99371	9.65409	58	60
8.99371	9.06394	70	64
8.99371	9.37221	74	64
9.27464	9.34781	69	56
9.37221	9.44268	67	64
9.65409	9.75166	57	51
9.65409	9.72727	65	56
9.75166	9.82189	55	58
9.75166	9.82189	64	64
10.0326	10.1055	53	51
10.1298	10.202	52	57
10.1298	10.8995	81	70
10.4185	10.8995	50	50
10.5147	10.8995	37	40
10.5147	11.2786	69	61
10.8033	10.8995	79	58
10.8995	11.0875	38	44
10.8995	10.97	78	65
11.1814	11.2543	75	55
11.2786	11.939	62	58
11.2786	11.3489	74	64
11.2786	11.6571	78	64
11.5596	11.6327	72	56
11.6571	11.7276	70	64
11.6571	11.7276	79	64
11.939	12.0122	60	51
11.939	12.0122	69	56
12.0366	12.1068	58	58
12.0366	12.1068	67	64
12.3175	12.3904	57	51
12.4147	12.4869	55	57
12.4147	12.7996	70	71
12.7034	12.7756	53	50
12.7996	12.8718	52	57
12.7996	13.19	69	52
12.7996	13.19	73	62
13.0883	13.19	51	50
13.0883	13.19	67	58
13.1845	13.255	50	58
13.1845	13.255	66	56
13.1845	13.255	74	61
13.4664	13.5393	63	51
13.5636	14.224	50	60
13.5636	13.6338	62	59
13.5636	13.9421	66	59
13.8445	13.9421	60	50
13.9421	14.0126	58	57
13.9421	14.0126	67	57
14.224	14.3215	48	45
14.224	14.2971	57	49
14.3215	14.3918	46	51
14.3215	14.3918	55	57
14.6025	14.6754	45	44
14.6997	14.7702	43	52
14.6997	15.0788	58	61
14.9816	15.0545	41	42
15.0788	15.1517	40	48
15.0788	15.1517	57	55
15.0788	15.4677	61	55
15.3705	15.4434	39	35
15.3705	15.4434	55	47
15.4677	15.5406	38	41
15.4677	15.6621	54	54
15.4677	15.6621	62	54
15.7593	15.8323	36	29
15.8566	15.9266	34	35
15.8566	15.9499	55	40
15.9499	16.0432	57	32
16.0432	16.1366	55	34
16.1366	16.2129	33	28
16.1366	16.2384	50	34
16.2384	16.3195	31	35
16.2384	16.3195	62	40
16.5511	16.6235	34	35
16.5511	16.6235	50	40
16.5511	16.6235	55	40
16.6477	16.7201	33	40
16.6477	16.7201	48	46
16.6477	16.7201	54	46
17.0339	17.1272	60	43
17.1272	17.2205	62	37
17.2205	17.3139	60	37
17.3139	17.4168	57	37
17.4168	17.4967	69	49
17.7259	17.7981	30	33
17.7259	17.7981	50	44
17.7259	17.7981	60	44
17.8222	17.8943	31	40
17.8222	17.8943	50	48
17.8222	17.8943	58	48
18.207	18.3007	55	40
18.3007	18.3943	57	34
18.3943	18.488	55	34
18.488	18.5905	50	34
18.5905	18.6645	67	50
18.8839	18.9561	34	32
18.8839	18.9561	55	44
18.8839	18.9561	65	44
18.9801	19.0516	36	37
18.9801	19.0516	55	47
18.9801	19.0516	63	47
19.2658	19.34	38	33
19.2658	19.34	55	40
19.2658	19.34	62	40
19.3648	19.436	39	38
19.3648	19.436	55	44
19.3648	19.436	60	44
19.6495	19.7234	58	50
19.7481	19.82	51	40
19.7481	19.82	57	46
19.7481	19.82	61	46
20.0358	20.1172	55	40
20.1443	20.2405	38	45
20.1443	20.2405	50	45
20.1443	20.2405	54	50
20.1443	20.2405	62	50
20.5291	21.2989	74	72
20.914	21.2989	30	40
20.914	21.678	62	61
21.2026	21.2989	72	58
21.2989	21.4868	31	44
21.2989	21.3693	70	65
21.5807	21.6537	69	55
21.678	22.3383	55	60
21.678	21.7482	67	64
21.678	22.0565	70	64
21.9589	22.0321	65	56
22.0565	22.1269	63	64
22.3383	22.4359	53	51
22.3383	22.4115	62	56
22.4359	22.5061	51	58
22.4359	22.5061	60	64
22.7168	22.7898	50	51
22.8141	22.8862	48	57
22.8141	23.6723	77	68
23.1027	23.6723	46	50
23.1989	23.6723	33	40
23.1989	23.9629	65	61
23.4876	23.6723	75	58
23.5838	23.7717	34	44
23.5838	23.6723	74	65
23.8657	23.9386	72	55
23.9629	24.6233	58	60
23.9629	24.0331	70	64
23.9629	24.3414	74	64
24.2438	24.317	69	56
24.3414	24.4119	67	64
24.6233	24.7209	57	51
24.6233	24.6965	65	56
24.7209	24.7911	55	58
24.7209	24.7911	64	64
25.0018	25.0747	53	51
25.099	25.1712	52	57
25.099	25.8687	81	70
25.3876	25.8687	50	50
25.4839	25.8687	37	40
25.4839	26.2478	69	61
25.7725	25.8687	79	58
25.8687	26.0567	38	44
25.8687	25.9392	78	65
26.1506	26.2235	75	55
26.2478	26.9082	62	58
26.2478	26.3181	74	64
26.2478	26.6263	78	64
26.5288	26.6019	72	56
26.6263	26.6968	70	64
26.6263	26.6968	79	64
26.9082	27.0058	60	51
26.9082	26.9814	69	56
27.0058	27.076	58	58
27.0058	27.076	67	64
27.2867	27.3596	57	51
27.3839	27.4561	55	57
27.3839	27.7688	70	71
27.6726	27.7447	53	50
27.7688	27.841	52	57
27.7688	28.1592	69	52
27.7688	28.1592	73	62
28.0575	28.1592	51	50
28.0575	28.1592	67	58
28.1537	28.2242	50	58
28.1537	28.2242	66	56
28.1537	28.2242	74	61
28.4356	28.5085	63	51
28.5328	29.1932	50	60
28.5328	28.603	62	59
28.5328	28.9113	66	59
28.8137	28.8869	60	50
28.9113	28.9818	58	57
28.9113	28.9818	67	57
29.1932	29.2907	48	45
29.1932	29.2664	57	49
29.2907	29.361	46	51
29.2907	29.361	55	57
29.5717	29.6446	45	44
29.6689	29.7394	43	52
29.6689	30.048	58	61
29.9508	30.0237	41	45
30.048	30.1209	40	50
30.048	30.1209	57	55
30.048	30.4369	61	55
30.3397	30.4126	39	50
30.3397	30.4126	55	47
30.4369	30.6403	38	50
30.4369	30.6403	54	54
30.4369	30.6403	62	54
30.8436	31.6531	70	58
31.2345	31.6531	38	40
31.2345	32.0606	46	40
31.2345	32.0606	58	40
31.5417	31.6531	66	50
31.6455	32.0606	39	40
31.6455	32.0606	67	56
31.9495	32.0606	69	51
32.0509	32.8767	70	57
32.4379	32.8767	38	40
32.4379	33.2711	46	40
32.4379	33.2711	58	40
32.7458	32.8767	66	54
32.8496	33.2711	39	40
32.8496	33.2711	67	61
33.1547	33.2711	69	52
33.2564	34.1347	70	57
33.4525	34.1347	58	47
33.6087	34.4813	36	33
33.6608	34.8657	51	40
33.6608	34.0703	74	64
33.8656	34.1347	72	57
34.0703	34.4813	74	66
34.271	34.4813	72	63
34.4717	34.8657	48	40
34.4717	34.8657	70	59
34.6007	34.8657	67	51
34.7297	34.8657	63	51
34.8588	35.2952	41	36
34.8588	35.2952	53	36
34.8588	35.2952	57	36
34.8588	35.2952	62	57
35.1812	35.2952	51	32
35.1812	35.2952	60	47
35.2952	35.5142	46	37
35.2952	35.5142	50	37
35.2952	35.5142	58	54
35.7332	36.5359	77	58
36.0686	36.5359	41	28
36.0926	36.5359	49	32
36.1166	36.5359	57	36
36.1166	36.9434	65	40
36.4241	36.5359	73	50
36.5283	36.9434	50	40
36.5283	36.9434	58	40
36.5283	36.9434	74	56
36.8323	36.9434	75	51
36.9337	37.761	77	57
37.2724	37.761	41	29
37.2966	37.761	49	32
37.3207	37.761	57	36
37.3207	38.1554	65	40
37.6294	37.761	73	54
37.7339	38.1554	50	40
37.7339	38.1554	58	40
37.7339	38.1554	74	61
38.039	38.1554	75	52
38.1407	38.9997	77	57
38.3367	38.9997	65	47
38.4838	38.9997	46	33
38.5083	39.3452	53	33
38.5328	38.9355	62	40
38.5328	38.9355	81	64
38.7314	38.9997	79	57
38.9355	39.7295	62	40
38.9355	39.3452	81	66
39.1355	39.3452	79	63
39.3355	39.7295	55	40
39.3355	39.7295	77	59
39.4646	39.7295	74	51
39.5936	39.7295	70	51
39.7226	40.1587	48	36
39.7226	40.1587	60	36
39.7226	40.1587	64	36
39.7226	40.1587	69	57
40.0437	40.1587	58	32
40.0437	40.1587	67	47
40.1587	40.3777	53	37
40.1587	40.3777	57	37
40.1587	40.3777	65	54
40.5966	41.4021	82	58
40.9386	41.4021	50	32
40.9631	41.3685	58	36
40.9875	41.4029	65	40
40.9875	41.8109	70	40
41.2906	41.4021	77	50
41.3166	41.8109	51	27
41.3426	41.8109	54	33
41.3685	41.8109	58	40
41.3945	41.8109	66	40
41.3945	41.8109	78	60
41.6995	41.8109	80	57
41.8012	42.6252	82	62
42.1399	42.6252	50	33
42.1641	42.5719	58	36
42.1883	42.6252	65	40
42.1883	43.0195	70	40
42.4935	42.6252	77	57
42.5196	43.0195	51	27
42.5458	43.0195	54	31
42.5719	43.0195	58	35
42.5981	43.0195	66	40
42.5981	43.0195	78	63
42.9031	43.0195	80	55
43.0048	43.8622	82	60
43.2009	43.8622	73	50
43.3479	43.8622	54	33
43.3724	44.2067	61	33
43.3969	43.7983	70	40
43.3969	43.7983	89	65
43.5976	43.8622	87	60
43.7983	44.5909	70	40
43.7983	44.2067	89	66
43.9976	44.2067	87	63
44.197	44.5909	63	40
44.197	44.5909	85	62
44.326	44.5909	82	57
44.455	44.5909	78	51
44.5841	45.0219	56	36
44.5841	45.0219	66	36
44.5841	45.0219	72	36
44.5841	45.0219	77	57
44.9061	45.0219	75	47
45.0219	45.2401	61	37
45.0219	45.2401	65	37
45.0219	45.2401	73	54
45.4583	46.2562	80	58
45.8003	46.2562	44	28
45.8247	46.2562	51	32
45.8491	46.2562	60	36
45.8491	46.6651	68	40
46.1505	46.2562	75	50
46.2486	46.6651	53	40
46.2486	46.6651	61	40
46.2486	46.6651	77	56
46.5537	46.6651	78	51
46.6554	47.479	80	57
46.9952	47.479	44	29
47.0194	47.479	51	32
47.0437	47.479	60	36
47.0437	47.879	68	40
47.3498	47.479	75	54
47.4518	47.879	53	40
47.4518	47.879	61	40
47.4518	47.879	77	61
47.7598	47.879	78	52
47.8643	48.7228	80	57
48.0603	48.7228	70	47
48.2074	48.7228	49	33
48.2319	49.0662	56	33
48.2564	48.6591	65	40
48.2564	48.6591	84	64
48.4577	48.7228	82	57
48.6591	49.4529	65	40
48.6591	49.0662	84	66
48.8578	49.0662	82	63
49.0564	49.4529	58	40
49.0564	49.4529	80	59
49.1863	49.4529	77	51
49.3162	49.4529	73	51
49.446	49.8648	51	36
49.446	49.8648	61	36
49.446	49.8648	67	36
49.446	49.8648	72	57
49.7553	49.8648	70	47
49.8648	50.0837	56	37
49.8648	50.0837	60	37
49.8648	50.0837	68	54
50.3027	51.0984	54	49
50.6827	51.4899	44	32
50.6827	51.4899	60	34
50.6827	51.4899	63	34
50.6827	51.4899	68	40
50.9878	51.0984	50	42
51.0894	51.4899	51	47
51.3838	51.4899	53	43
51.4819	52.2773	54	49
51.4819	52.2773	69	52
51.8656	52.6769	44	32
52.1706	52.2773	62	45
52.2723	52.6769	63	50
52.5689	52.6769	65	45
52.6674	53.4668	51	46
52.6674	53.8515	60	50
52.6674	53.8515	66	51
53.051	53.8515	44	32
53.3561	53.4668	47	43
53.4578	53.8417	48	47
53.7531	53.8515	49	42
53.8515	55.8317	51	47
53.8515	54.6419	66	52
54.2352	55.8317	44	32
54.5402	54.6419	59	45
54.6419	55.0436	60	50
54.9375	55.0436	61	45
55.0356	55.8251	63	51
55.4184	57.0133	45	32
55.7234	55.8317	53	45
55.8251	56.2255	54	50
55.8251	56.2255	63	51
56.1195	56.2255	56	45
56.2176	57.4069	57	51
56.6	58.198	47	32
56.9051	57.0133	50	45
57.0067	57.4069	51	50
57.302	57.4069	52	45
57.4005	58.6266	54	51
57.7841	58.8472	48	32
58.0928	58.198	49	45
58.198	58.633	50	50
58.5195	58.633	52	51
58.6266	59.3216	54	55
58.8472	59.0882	50	45
59.0882	59.3216	52	51
59.3216	59.9979	54	54
59.9979	60.6924	31	44
59.9979	60.0912	55	40
60.0912	60.1846	57	32
60.1846	60.2779	55	34
60.2779	60.3797	50	34
60.3797	60.4608	62	40
60.6924	60.7649	34	35
60.6924	60.7649	50	40
60.6924	60.7649	55	40
60.789	60.8614	33	40
60.789	60.8614	48	46
60.789	60.8614	54	46
61.1752	61.2685	60	43
61.2685	61.3619	62	37
61.3619	61.4552	60	37
61.4552	61.5581	57	37
61.5581	61.638	69	49
61.8673	61.9394	30	33
61.8673	61.9394	50	44
61.8673	61.9394	60	44
61.9635	62.0356	31	40
61.9635	62.0356	50	48
61.9635	62.0356	58	48
62.3484	62.442	55	40
62.442	62.5357	57	34
62.5357	62.6293	55	34
62.6293	62.7319	50	34
62.7319	62.8058	67	50
63.0252	63.0974	34	32
63.0252	63.0974	55	44
63.0252	63.0974	65	44
63.1215	63.1929	36	37
63.1215	63.1929	55	47
63.1215	63.1929	63	47
63.4072	63.4814	38	33
63.4072	63.4814	55	40
63.4072	63.4814	62	40
63.5061	63.5773	39	38
63.5061	63.5773	55	44
63.5061	63.5773	60	44
63.7908	63.8648	58	50
63.8894	63.9614	51	40
63.8894	63.9614	57	46
63.8894	63.9614	61	46
64.1771	64.2585	55	40
64.2856	64.3578	38	45
64.2856	64.3578	50	45
64.2856	64.3578	54	50
64.2856	64.3578	62	50
64.6705	65.4402	74	72
65.0553	65.4402	30	40
65.0553	65.8193	62	61
65.344	65.4402	72	58
65.4402	65.6281	31	44
65.4402	65.5107	70	65
65.7221	65.795	69	55
65.8193	66.4797	55	60
65.8193	65.8895	67	64
65.8193	66.1978	70	64
66.1002	66.1734	65	56
66.1978	66.2683	63	64
66.4797	66.5773	53	51
66.4797	66.5529	62	56
66.5773	66.6475	51	58
66.5773	66.6475	60	64
66.8582	66.9311	50	51
66.9554	67.0276	48	57
66.9554	67.8136	77	68
67.2441	67.8136	46	50
67.3403	67.8136	33	40
67.3403	68.1042	65	61
67.6289	67.8136	75	58
67.7251	67.9131	34	44
67.7251	67.8136	74	65
68.007	68.0799	72	55
68.1042	68.7646	58	60
68.1042	68.1745	70	64
68.1042	68.4827	74	64
68.3852	68.4583	69	56
68.4827	68.5532	67	64
68.7646	68.8622	57	51
68.7646	68.8378	65	56
68.8622	68.9324	55	58
68.8622	68.9324	64	64
69.1431	69.216	53	51
69.2403	69.3125	52	57
69.2403	70.0101	81	70
69.529	70.0101	50	50
69.6252	70.0101	37	40
69.6252	70.3892	69	61
69.9139	70.0101	79	58
70.0101	70.198	38	44
70.0101	70.0805	78	65
70.292	70.3649	75	55
70.3892	71.0496	62	58
70.3892	70.4594	74	64
70.3892	70.7677	78	64
70.6701	70.7433	72	56
70.7677	70.8382	70	64
70.7677	70.8616	79	64
71.0496	71.1471	60	51
71.0496	71.1227	69	56
71.1471	71.2174	58	58
71.1471	71.2174	67	64
71.4281	71.501	57	51
71.5253	71.5975	55	57
71.5253	71.9102	70	71
71.8139	71.8861	53	50
71.9102	71.9823	52	57
71.9102	72.3005	69	52
71.9102	72.3005	73	62
72.1988	72.3005	51	50
72.1988	72.3005	67	58
72.295	72.483	50	58
72.295	72.483	66	56
72.295	72.483	74	61
72.5769	72.6499	68	51
72.6742	73.4514	55	60
72.6742	73.4514	67	59
72.6742	73.4514	71	59
72.9599	73.4514	65	49
73.0619	73.4514	63	55
73.0619	73.4514	72	55
73.3532	73.4566	53	43
73.3532	73.4514	62	47
73.4566	73.6593	51	48
73.4566	73.8686	60	54
73.7607	73.8416	50	40
73.8686	74.0734	48	48
73.8686	75.622	50	38
73.8686	74.294	63	56
74.1849	74.2667	46	38
74.294	74.7719	45	43
74.294	74.7719	62	49
74.294	74.7719	66	49
74.6213	74.7719	44	30
74.6213	74.7719	60	41
74.7648	75.622	43	32
74.7648	75.622	58	39
74.7648	75.622	67	47
75.622	75.9844	48	31
75.622	75.9935	55	37
75.622	75.9844	60	38
75.622	75.9844	63	38
75.622	75.9935	67	45
75.9844	76.3519	48	38
75.9844	76.3519	57	45
75.9844	76.3519	60	40
75.9844	76.3519	63	40
75.9844	76.3519	66	40
75.9844	76.3519	69	48
76.3015	76.3519	43	42
76.3468	76.6805	58	47
76.3468	76.6805	62	48
76.3468	76.6805	70	57
76.5207	76.6805	60	36
76.5207	76.6805	72	47
76.6753	77.0067	57	42
76.6753	77.0067	69	51
76.83	77.0067	58	38
76.83	77.0067	70	47
76.9994	77.1436	55	52
76.9994	77.1436	67	58
77.1436	77.3271	62	46
77.1436	77.3271	74	54
77.3271	77.68	62	54
77.3271	77.68	74	62
77.68	78.0114	48	32
77.68	78.0183	55	38
77.68	78.0114	60	40
77.68	78.0114	63	40
77.68	78.0183	67	47
78.0114	78.3471	48	39
78.0114	78.3471	57	47
78.0114	78.3471	60	42
78.0114	78.3471	63	42
78.0114	78.3471	66	42
78.0114	78.3471	69	50
78.3013	78.3471	43	44
78.3428	78.6757	58	49
78.3428	78.6757	62	50
78.3428	78.6757	70	59
78.5166	78.6757	60	37
78.5166	78.6757	72	49
78.6681	78.9886	57	44
78.6681	78.9886	69	53
78.8197	78.9886	58	39
78.8197	78.9886	70	49
78.9832	79.3177	55	55
78.9832	79.3177	67	63
79.1273	79.3154	63	47
79.1273	79.3154	75	56
79.3154	79.6693	63	56
79.3154	79.6693	75	63
79.6693	80.0055	48	34
79.6693	80.0055	55	40
79.6693	80.0007	60	47
79.6693	80.0007	63	47
79.6693	80.0055	67	56
80.0007	80.3727	41	41
80.0007	80.6664	53	49
80.0007	80.3727	60	49
80.0007	80.3727	63	49
80.0007	80.6664	69	59
80.3321	80.6664	46	51
80.3321	80.6664	62	52
80.506	80.6664	58	39
80.506	80.6664	70	51
80.6594	80.9848	55	46
80.6594	80.9848	67	56
80.8128	80.9848	57	41
80.8128	80.9848	69	51
80.9767	81.31	53	55
80.9767	81.31	65	63
81.1255	81.3063	62	48
81.1255	81.3063	74	56
81.3063	81.6601	62	58
81.3063	81.9985	74	67
81.6601	81.9985	46	34
81.6601	81.9985	53	40
81.6601	81.9915	58	47
81.6601	81.9915	62	47
81.6601	81.9985	65	56
81.9915	82.3229	39	41
81.9915	82.651	51	49
81.9915	82.3229	58	49
81.9915	82.3229	62	49
81.9915	82.651	67	59
82.3229	82.651	45	51
82.3229	82.651	60	52
82.4968	82.651	57	39
82.4968	82.651	69	51
82.646	82.9635	53	46
82.646	82.9635	65	56
82.7952	82.9635	55	41
82.7952	82.9635	67	51
82.9565	83.2895	51	55
82.9565	83.2895	63	63
83.1088	83.2895	60	48
83.1088	83.2895	72	56
83.2895	83.6434	60	58
83.2895	83.6434	72	67
83.6434	83.9831	36	34
83.6434	83.9831	48	40
83.6434	83.9831	55	47
83.6434	83.9831	60	47
83.6434	83.9831	63	56
83.9748	84.3468	38	41
83.9748	84.637	50	49
83.9748	84.3468	54	49
83.9748	84.3468	57	49
83.9748	84.637	62	58
84.3062	84.637	43	51
84.3062	84.637	55	52
84.4801	84.637	51	38
84.4801	84.637	63	50
84.6319	84.9541	48	45
84.6319	84.9541	60	55
84.7838	84.9541	50	40
84.7838	84.9541	62	50
84.9464	85.2912	46	56
84.9464	85.2912	58	64
85.1014	85.2912	55	49
85.1014	85.2912	67	56
85.2912	85.6451	55	59
85.2912	85.6451	67	64
85.6451	85.9841	36	37
85.6451	85.9841	48	44
85.6451	85.9841	55	51
85.6451	85.9841	60	51
85.6451	85.9841	63	61
85.9765	86.3159	38	45
85.9765	86.4818	50	54
85.9765	86.3159	54	54
85.9765	86.3159	57	54
85.9765	86.4818	62	64
86.3079	86.6417	43	56
86.3079	86.6417	55	57
86.4818	86.6417	50	49
86.4818	86.6417	62	56
86.6372	87.2742	52	55
86.6372	87.2742	64	59
86.7925	87.2742	54	59
86.7925	87.2742	66	63
86.9517	87.2742	55	62
86.9517	87.2742	67	66
87.1028	87.2742	57	66
87.1028	87.2742	69	69
87.2742	87.628	58	69
87.2742	87.628	70	75
87.628	87.9594	55	48
87.628	87.9594	58	48
87.628	87.9677	62	57
87.628	87.9594	67	67
87.628	87.9594	70	67
87.628	87.9677	74	80
87.9594	88.2908	55	59
87.9594	88.2908	58	59
87.9594	88.2908	61	59
87.9594	88.2908	64	70
87.9594	88.2908	67	70
87.9594	88.2908	70	70
87.9594	88.2908	73	70
87.9594	88.2908	76	83
88.2494	88.6229	50	60
88.2701	88.6229	57	60
88.2908	88.6229	65	73
88.2908	88.6229	69	62
88.2908	88.6229	74	62
88.2908	88.6229	77	74
88.4647	88.6229	67	56
88.4647	88.6229	79	73
88.6165	89.2786	64	66
88.6165	89.2786	76	80
88.7684	89.2786	65	59
88.7684	89.2786	77	73
88.9342	89.2786	62	78
88.9342	89.2786	74	88
89.088	89.2698	70	68
89.088	89.2698	82	80
89.2698	89.6237	70	80
89.2698	89.6306	82	88
89.6237	89.9551	55	48
89.6237	89.9551	58	48
89.6237	89.9634	62	57
89.6237	89.9551	67	67
89.6237	89.9551	70	67
89.6237	89.9634	74	80
89.9551	90.3038	55	59
89.9551	90.3038	58	59
89.9551	90.3038	61	59
89.9551	90.3038	64	70
89.9551	90.3038	67	70
89.9551	90.3038	70	70
89.9551	90.3038	73	70
89.9551	90.3038	76	83
90.245	90.6184	50	60
90.2658	90.6184	57	60
90.2865	90.6184	65	73
90.2865	90.6184	69	62
90.2865	90.6184	74	62
90.2865	90.6184	77	74
90.4603	90.6184	67	56
90.4603	90.6184	79	73
90.6133	91.2679	64	66
90.6133	91.2679	76	80
90.7663	91.2679	65	59
90.7663	91.2679	77	73
90.9326	91.2679	62	77
90.9326	91.2679	74	87
91.0872	91.2679	70	68
91.0872	91.2679	82	80
91.2679	91.6218	70	80
91.2679	91.6307	82	89
91.6218	91.9531	50	37
91.6218	91.9531	58	37
91.6218	91.9531	62	44
91.6218	91.9607	65	51
91.6218	91.9531	70	51
91.6218	91.9531	74	62
91.9531	92.2932	50	45
91.9531	92.2845	58	45
91.9531	92.2932	62	54
91.9531	92.2932	66	54
91.9531	92.2845	70	54
91.9531	92.2932	74	64
92.2845	92.4649	51	49
92.2845	92.4649	58	49
92.2845	92.4649	60	58
92.2845	92.4584	67	52
92.2845	92.4649	70	52
92.2845	92.4649	72	62
92.4584	93.229	67	62
92.4584	93.229	79	65
92.7638	93.229	63	45
92.7638	93.229	75	56
92.9134	93.229	60	55
92.9134	93.229	72	66
93.0576	93.229	58	45
93.0576	93.229	70	54
93.229	94.2698	53	42
93.229	93.9046	57	50
93.229	93.9046	69	61
93.4059	94.2698	63	47
93.4059	94.2698	75	68
93.7328	94.2698	60	41
93.7328	94.2698	72	47
93.9046	94.2698	57	45
93.9046	94.2698	69	57
94.0731	94.2698	55	41
94.0731	94.2698	67	45
94.2698	94.4232	54	35
94.2698	94.4232	57	40
94.2698	94.4232	69	52
94.3596	94.5851	62	39
94.3596	94.5851	74	43
94.7207	95.0758	48	31
94.7207	95.0846	55	37
94.7207	95.0758	60	38
94.7207	95.0758	63	38
94.7207	95.0846	67	45
95.0758	95.4359	48	38
95.0758	95.4359	57	45
95.0758	95.4359	60	40
95.0758	95.4359	63	40
95.0758	95.4359	66	40
95.0758	95.4359	69	48
95.3864	95.4359	43	42
95.4308	95.7664	58	47
95.4308	95.7664	62	48
95.4308	95.7664	70	57
95.6047	95.7664	60	36
95.6047	95.7664	72	47
95.7593	96.0864	57	42
95.7593	96.0864	69	51
95.9139	96.0864	58	38
95.9139	96.0864	70	47
96.0792	96.2234	55	53
96.0792	96.2234	67	61
96.2234	96.4075	62	50
96.2234	96.4075	74	54
96.4075	96.7603	62	55
96.4075	96.7603	74	66
96.7603	97.0917	48	32
96.7603	97.0986	55	38
96.7603	97.0917	60	40
96.7603	97.0917	63	40
96.7603	97.0986	67	47
97.0917	97.4275	48	39
97.0917	97.4275	57	47
97.0917	97.4275	60	42
97.0917	97.4275	63	42
97.0917	97.4275	66	42
97.0917	97.4275	69	50
97.3817	97.4275	43	44
97.4231	97.7561	58	49
97.4231	97.7561	62	50
97.4231	97.7561	70	59
97.597	97.7561	60	37
97.597	97.7561	72	49
97.7485	98.0689	57	44
97.7485	98.0689	69	53
97.9	98.0689	58	39
97.9	98.0689	70	49
98.0635	98.406	55	56
98.0635	98.406	67	65
98.2077	98.4038	63	48
98.2077	98.4038	75	58
98.4038	98.7577	63	62
98.4038	98.7577	75	68
98.7577	99.0939	48	34
98.7577	99.0939	55	40
98.7577	99.089	60	47
98.7577	99.089	63	47
98.7577	99.0939	67	56
99.089	99.461	41	41
99.089	99.7547	53	49
99.089	99.461	60	49
99.089	99.461	63	49
99.089	99.7547	69	59
99.4204	99.7547	46	51
99.4204	99.7547	62	52
99.5943	99.7547	58	39
99.5943	99.7547	70	51
99.7477	100.067	55	46
99.7477	100.067	67	56
99.9011	100.067	57	41
99.9011	100.067	69	51
100.059	100.394	53	55
100.059	100.394	65	63
100.208	100.39	62	48
100.208	100.39	74	56
100.39	100.744	62	58
100.39	101.082	74	67
100.744	101.082	46	34
100.744	101.082	53	40
100.744	101.075	58	47
100.744	101.075	62	47
100.744	101.082	65	56
101.075	101.407	39	41
101.075	101.735	51	49
101.075	101.407	58	49
101.075	101.407	62	49
101.075	101.735	67	59
101.407	101.735	45	51
101.407	101.735	60	52
101.581	101.735	57	39
101.581	101.735	69	51
101.73	102.044	53	46
101.73	102.044	65	56
101.879	102.044	55	41
101.879	102.044	67	51
102.037	102.37	51	55
102.037	102.37	63	66
102.189	102.37	60	48
102.189	102.37	72	62
102.37	102.724	60	58
102.37	102.724	72	67
102.724	103.064	36	34
102.724	103.064	48	40
102.724	103.064	55	47
102.724	103.064	60	47
102.724	103.064	63	56
103.055	103.427	38	41
103.055	103.718	50	49
103.055	103.427	54	49
103.055	103.427	57	49
103.055	103.718	62	58
103.387	103.718	43	51
103.387	103.718	55	52
103.561	103.718	51	38
103.561	103.718	63	50
103.712	104.036	48	45
103.712	104.036	60	55
103.864	104.036	50	40
103.864	104.036	62	50
104.029	104.367	46	57
104.029	104.367	58	67
104.184	104.367	55	52
104.184	104.367	67	61
104.367	104.721	55	61
104.367	104.721	67	69
104.721	105.06	36	37
104.721	105.06	48	44
104.721	105.06	55	51
104.721	105.06	60	51
104.721	105.06	63	61
105.052	105.384	38	40
105.052	105.738	50	48
105.052	105.384	54	48
105.052	105.384	57	48
105.052	105.738	62	57
105.384	105.738	43	42
105.384	105.738	55	50
105.738	106.102	34	47
105.738	106.102	46	56
105.738	106.093	53	60
105.738	106.102	58	60
105.738	106.102	62	71
106.093	106.453	33	49
106.093	106.453	45	58
106.093	106.453	53	63
106.093	106.453	60	63
106.093	106.448	65	75
106.448	106.787	32	56
106.448	106.787	44	67
106.448	106.787	62	67
106.448	106.772	65	67
106.448	106.622	70	79
106.622	106.787	58	56
106.622	106.787	70	64
106.772	107.095	53	62
106.772	107.095	65	72
106.923	107.095	55	52
106.923	107.095	67	67
107.088	107.415	46	62
107.088	107.315	58	76
107.315	107.415	58	55
107.315	107.415	70	66
107.415	107.768	58	63
107.415	107.768	70	78
107.768	108.131	32	47
107.768	108.131	44	56
107.768	108.131	62	69
107.768	108.123	65	69
107.768	108.123	70	81
108.123	108.483	31	49
108.123	108.483	43	58
108.123	108.483	65	72
108.123	108.483	70	72
108.123	108.478	74	86
108.478	108.817	29	56
108.478	108.817	41	67
108.478	108.817	68	77
108.478	108.817	74	77
108.478	108.651	77	90
108.651	108.817	65	64
108.651	108.817	77	73
108.802	109.125	60	71
108.802	109.125	72	82
108.953	109.125	62	59
108.953	109.125	74	77
109.118	109.446	56	71
109.118	109.345	68	87
109.345	109.446	68	63
109.345	109.446	80	75
109.446	109.799	68	72
109.446	109.799	80	89
109.799	110.169	29	51
109.799	110.169	41	61
109.799	110.169	68	82
109.799	110.159	72	82
109.799	110.169	80	97
110.159	110.552	27	57
110.159	110.552	39	67
110.159	110.552	72	89
110.159	110.547	77	89
110.159	110.552	84	106
110.547	112.694	26	69
110.547	112.628	38	83
110.547	111.243	77	98
110.547	110.893	82	98
110.547	110.721	89	115
110.721	112.694	89	70
110.893	112.694	82	77
111.064	112.694	84	69
111.243	111.417	77	76
111.417	112.694	77	66
111.588	112.694	70	79
111.76	112.694	72	64
111.937	112.111	65	74
112.111	112.694	65	65
112.282	112.694	58	75
112.453	112.694	60	68
112.628	114.005	38	60
112.628	113.328	53	74
112.802	113.328	65	54
112.975	113.328	58	60
113.144	113.328	60	54
113.319	115.336	46	66
113.319	114.005	54	74
113.488	114.005	66	54
113.655	114.005	58	60
113.822	114.005	60	55
113.996	114.671	39	60
113.996	114.671	55	74
114.165	114.671	67	54
114.331	114.671	40	60
114.331	114.671	60	60
114.498	114.671	61	55
114.671	115.342	41	60
114.671	115.342	56	74
114.838	115.342	68	55
115.002	115.342	62	60
115.167	115.342	63	55
115.336	115.993	42	60
115.336	116.64	46	69
115.336	115.993	57	74
115.498	115.993	69	54
115.658	115.993	62	60
115.818	115.993	63	54
115.985	116.64	43	60
115.985	116.64	58	74
116.147	116.64	70	54
116.307	117.293	51	66
116.307	116.64	59	70
116.468	116.64	71	55
116.632	117.941	45	61
116.632	117.293	60	76
116.794	117.293	72	55
116.958	117.293	65	63
117.118	117.293	66	56
117.286	117.95	53	64
117.286	117.95	62	79
117.446	117.95	74	58
117.607	117.95	65	65
117.77	117.95	66	58
117.941	118.644	45	66
117.941	118.644	54	66
117.941	118.644	63	82
118.108	118.644	75	59
118.274	118.644	71	67
118.449	118.644	72	60
118.638	119.323	46	69
118.638	119.323	55	69
118.638	119.323	67	79
118.813	119.323	79	62
118.978	119.323	74	69
119.144	119.323	75	60
119.318	120.0	47	60
119.318	120.0	56	60
119.318	120.0	65	74
119.488	120.0	77	62
119.653	120.0	73	66
119.818	120.0	74	60
119.992	120.668	48	58
119.992	120.668	55	58
119.992	120.668	63	71
120.157	120.364	75	57
120.323	121.336	57	57
120.323	120.405	74	57
120.364	120.668	75	56
120.405	120.668	74	61
120.488	120.668	72	56
120.664	122.006	50	54
120.664	121.336	65	66
120.828	121.336	77	57
120.992	121.336	70	61
121.156	121.336	72	56
121.331	123.335	58	55
121.331	122.006	66	68
121.494	122.006	78	56
121.658	122.006	70	63
121.821	122.006	72	56
121.997	122.67	51	57
121.997	122.67	67	71
122.16	122.67	79	59
122.324	122.67	52	58
122.324	122.67	72	68
122.49	122.67	73	58
122.666	123.342	53	60
122.666	123.342	68	74
122.834	123.342	80	54
122.997	123.342	74	68
123.162	123.342	75	63
123.335	124.001	54	61
123.335	124.661	58	61
123.335	124.001	69	76
123.501	124.001	81	57
123.663	124.001	74	70
123.824	124.001	75	68
123.993	124.661	55	63
123.993	124.661	70	78
124.155	124.661	82	64
124.316	125.324	63	64
124.316	124.661	71	79
124.478	124.661	83	63
124.656	125.991	56	66
124.656	125.324	72	84
124.821	125.324	84	60
124.982	125.324	77	66
125.143	125.324	78	60
125.311	125.991	65	67
125.311	125.991	74	85
125.48	125.991	86	61
125.643	125.991	77	66
125.805	125.991	78	53
125.981	126.692	57	42
125.981	126.692	66	50
125.981	126.692	75	83
126.146	126.692	87	59
126.311	126.692	83	69
126.484	126.692	84	63
126.686	127.364	58	39
126.686	127.364	67	47
126.686	127.364	79	85
126.854	127.364	91	70
127.019	127.364	86	75
127.184	127.364	87	67
127.356	128.031	59	29
127.356	128.031	62	29
127.356	128.031	65	37
127.356	128.031	68	44
127.356	128.031	77	78
127.525	128.031	89	52
127.687	128.031	85	64
127.848	128.031	86	59
128.02	128.698	60	27
128.02	128.698	63	27
128.02	128.698	66	34
128.02	128.698	69	41
128.02	128.698	75	68
128.189	128.698	87	54
128.352	128.698	83	63
128.516	128.698	84	53
128.691	129.371	62	25
128.691	129.371	65	32
128.691	129.363	70	38
128.691	129.371	74	59
128.859	129.371	86	48
129.023	129.371	82	54
129.188	129.371	84	47
129.363	130.043	64	25
129.363	130.043	67	32
129.363	130.032	70	38
129.363	130.043	72	59
129.531	130.043	84	47
129.695	130.043	80	54
129.858	130.043	82	47
130.032	130.708	65	32
130.032	130.708	68	38
130.032	130.708	70	59
130.2	130.713	82	47
130.366	130.713	79	54
130.533	130.713	80	46
130.708	131.39	62	25
130.708	131.376	65	32
130.708	131.376	68	38
130.708	131.39	70	59
130.874	131.39	82	46
131.039	131.39	79	53
131.204	131.39	80	46
131.376	132.055	63	25
131.376	132.047	65	32
131.376	132.047	68	38
131.376	132.055	71	59
131.544	132.055	82	47
131.712	132.055	79	53
131.88	132.055	80	47
132.047	132.734	62	25
132.047	132.725	65	32
132.047	132.725	68	38
132.047	132.734	70	59
132.213	132.734	82	44
132.379	132.734	71	52
132.379	132.734	79	52
132.551	132.734	80	46
132.725	133.417	60	25
132.725	133.409	65	32
132.725	133.409	68	38
132.725	133.417	72	59
132.895	133.235	82	46
133.065	133.417	80	53
133.235	133.417	82	46
133.409	134.105	59	25
133.409	134.097	65	32
133.409	134.097	68	38
133.409	134.105	73	59
133.579	134.105	82	48
133.75	134.105	79	54
133.921	134.105	80	48
134.097	134.811	60	25
134.097	134.802	65	32
134.097	134.802	68	38
134.097	134.811	72	59
134.268	134.811	82	48
134.438	134.811	73	59
134.438	134.811	79	48
134.613	134.811	80	48
134.802	136.094	59	25
134.802	136.094	65	32
134.802	136.094	68	38
134.802	135.712	74	59
134.982	135.893	82	48
135.349	135.893	80	45
135.531	135.893	77	50
135.712	135.893	74	48
135.893	136.094	71	50
136.094	136.908	70	36
136.094	137.152	79	46
136.482	137.152	68	27
136.482	137.152	77	32
136.689	137.152	65	37
136.689	137.152	74	40
136.908	137.152	62	30
136.908	137.152	70	33
137.152	137.675	59	27
137.152	137.675	68	28
137.675	138.038	48	21
137.675	138.047	55	31
137.675	138.038	60	24
137.675	138.038	63	32
137.675	138.047	67	38
138.038	138.405	48	32
138.038	138.405	57	38
138.038	138.405	60	25
138.038	138.405	63	28
138.038	138.405	66	34
138.038	138.405	69	40
138.355	138.405	43	35
138.4	138.733	58	39
138.4	138.733	62	40
138.4	138.733	70	48
138.574	138.733	60	33
138.574	138.733	72	42
138.729	139.059	57	38
138.729	139.059	69	47
138.883	139.059	58	35
138.883	139.059	70	42
139.052	139.196	55	47
139.052	139.196	67	56
139.196	139.382	62	40
139.196	139.382	74	47
139.382	139.735	62	49
139.382	139.735	74	56
139.735	140.066	48	27
139.735	140.073	55	32
139.735	140.066	60	34
139.735	140.066	63	34
139.735	140.073	67	40
140.066	140.402	48	33
140.066	140.402	57	39
140.066	140.402	60	35
140.066	140.402	63	35
140.066	140.402	66	35
140.066	140.402	69	42
140.356	140.402	43	37
140.397	140.73	58	41
140.397	140.73	62	42
140.397	140.73	70	50
140.571	140.73	60	34
140.571	140.73	72	45
140.723	141.04	57	40
140.723	141.04	69	49
140.874	141.04	58	36
140.874	141.04	70	45
141.034	141.372	55	51
141.034	141.372	67	58
141.179	141.37	63	45
141.179	141.37	75	52
141.37	141.724	63	52
141.37	141.724	75	63
141.724	142.06	48	28
141.724	142.06	55	34
141.724	142.055	60	39
141.724	142.055	63	39
141.724	142.06	67	47
142.055	142.427	41	34
142.055	142.721	53	41
142.055	142.427	60	41
142.055	142.427	63	41
142.055	142.721	69	50
142.386	142.721	46	43
142.386	142.721	62	44
142.56	142.721	58	36
142.56	142.721	70	47
142.714	143.028	55	42
142.714	143.028	67	51
142.867	143.028	57	37
142.867	143.028	69	47
143.02	143.354	53	50
143.02	143.354	65	58
143.169	143.35	62	44
143.169	143.35	74	51
143.35	143.704	62	53
143.35	144.042	74	61
143.704	144.042	46	28
143.704	144.042	53	34
143.704	144.035	58	39
143.704	144.035	62	39
143.704	144.042	65	47
144.035	144.367	39	34
144.035	144.695	51	41
144.035	144.367	58	41
144.035	144.367	62	41
144.035	144.695	67	50
144.367	144.695	45	43
144.367	144.695	60	44
144.54	144.695	57	33
144.54	144.695	69	43
144.69	144.995	53	42
144.69	144.995	65	51
144.839	144.995	55	37
144.839	144.995	67	47
144.988	145.312	51	50
144.988	145.312	63	58
145.14	145.312	60	44
145.14	145.312	72	51
145.312	145.666	60	53
145.312	145.666	72	61
145.666	146.005	36	28
145.666	146.005	48	34
145.666	146.005	55	39
145.666	146.005	60	39
145.666	146.005	63	47
145.997	146.369	38	34
145.997	146.659	50	41
145.997	146.369	54	41
145.997	146.369	57	41
145.997	146.659	62	49
146.328	146.659	43	43
146.328	146.659	55	44
146.502	146.659	51	35
146.502	146.659	63	46
146.654	146.966	48	41
146.654	146.966	60	50
146.806	146.966	50	37
146.806	146.966	62	46
146.958	147.284	46	49
146.958	147.284	58	57
147.113	147.284	55	42
147.113	147.284	67	49
147.284	147.638	55	51
147.284	147.638	67	59
147.638	148.007	36	31
147.638	148.007	48	37
147.638	148.007	55	43
147.638	148.007	60	43
147.638	148.007	63	51
147.998	148.378	38	38
147.998	148.772	50	45
147.998	148.378	54	45
147.998	148.378	57	45
147.998	148.772	62	54
148.378	148.772	43	47
148.378	148.772	55	48
148.772	149.577	70	58
149.163	149.577	38	40
149.163	149.986	46	40
149.163	149.986	58	40
149.468	149.577	66	50
149.569	149.986	39	40
149.569	149.986	67	56
149.874	149.986	69	51
149.976	150.798	70	57
150.363	150.798	38	40
150.363	151.194	46	40
150.363	151.194	58	40
150.669	150.798	66	54
150.771	151.194	39	40
150.771	151.194	67	61
151.077	151.194	69	52
151.179	152.045	70	57
151.375	152.045	58	47
151.522	152.392	36	33
151.571	152.774	51	40
151.571	151.981	74	64
151.776	152.045	72	57
151.981	152.392	74	66
152.182	152.392	72	63
152.382	152.774	48	40
152.382	152.774	70	59
152.511	152.774	67	51
152.639	152.774	63	51
152.767	153.186	41	36
152.767	153.186	53	36
152.767	153.186	57	36
152.767	153.186	62	57
153.076	153.186	51	32
153.076	153.186	60	47
153.186	153.405	46	37
153.186	153.405	50	37
153.186	153.405	58	54
153.624	154.432	77	58
153.966	154.432	41	28
153.99	154.432	49	32
154.014	154.432	57	36
154.014	154.841	65	40
154.319	154.432	73	50
154.424	154.841	50	40
154.424	154.841	58	40
154.424	154.841	74	56
154.729	154.841	75	51
154.831	155.654	77	57
155.17	155.654	41	29
155.194	155.654	49	32
155.218	155.654	57	36
155.218	156.048	65	40
155.522	155.654	73	54
155.627	156.048	50	40
155.627	156.048	58	40
155.627	156.048	74	61
155.932	156.048	75	52
156.033	156.899	77	57
156.229	156.899	65	47
156.376	156.899	46	33
156.401	157.245	53	33
156.425	156.835	62	40
156.425	156.835	81	64
156.63	156.899	79	57
156.835	157.628	62	40
156.835	157.245	81	66
157.035	157.245	79	63
157.235	157.628	55	40
157.235	157.628	77	59
157.364	157.628	74	51
157.492	157.628	70	51
157.621	158.04	48	36
157.621	158.04	60	36
157.621	158.04	64	36
157.621	158.04	69	57
157.93	158.04	58	32
157.93	158.04	67	47
158.04	158.258	53	37
158.04	158.258	57	37
158.04	158.258	65	54
158.477	159.283	82	58
158.819	159.283	50	32
158.844	159.25	58	36
158.868	159.284	65	40
158.868	159.692	70	40
159.173	159.283	77	53
159.199	159.692	51	27
159.224	159.692	54	33
159.25	159.692	58	40
159.275	159.692	66	40
159.275	159.692	78	57
159.58	159.692	80	55
159.682	160.504	82	58
160.021	160.504	50	33
160.045	160.452	58	36
160.069	160.504	65	40
160.069	160.9	70	40
160.375	160.504	77	54
160.401	160.9	51	27
160.426	160.9	54	31
160.452	160.9	58	35
160.477	160.9	66	40
160.477	160.9	78	61
160.783	160.9	80	56
160.885	161.743	82	61
161.081	161.743	73	47
161.228	161.743	54	33
161.253	162.084	61	33
161.277	161.68	70	40
161.277	161.68	89	64
161.479	161.743	87	57
161.68	162.467	70	40
161.68	162.084	89	66
161.877	162.084	87	63
162.075	162.467	63	40
162.075	162.467	85	59
162.203	162.467	82	51
162.332	162.467	78	51
162.461	162.888	56	36
162.461	162.888	66	36
162.461	162.888	72	36
162.461	162.888	77	57
162.772	162.888	75	47
162.888	163.106	61	37
162.888	163.106	65	37
162.888	163.106	73	54
163.324	164.128	80	58
163.666	164.128	44	32
163.691	164.128	51	36
163.715	164.128	60	40
163.715	164.536	68	40
164.018	164.128	75	50
164.121	164.536	53	40
164.121	164.536	61	40
164.121	164.536	77	56
164.425	164.536	78	51
164.526	165.348	80	57
164.865	165.348	44	33
164.889	165.348	51	36
164.913	165.348	60	40
164.913	165.744	68	40
165.219	165.348	75	54
165.321	165.744	53	40
165.321	165.744	61	40
165.321	165.744	77	61
165.627	165.744	78	52
165.729	166.59	80	57
165.925	166.59	70	47
166.072	166.59	49	33
166.097	166.935	56	33
166.121	166.525	65	40
166.121	166.525	84	64
166.323	166.59	82	57
166.525	167.323	65	40
166.525	166.935	84	66
166.725	166.935	82	63
166.925	167.323	58	40
166.925	167.323	80	59
167.056	167.323	77	51
167.186	167.323	73	51
167.316	167.74	51	36
167.316	167.74	61	36
167.316	167.74	67	36
167.316	167.74	72	57
167.628	167.74	70	47
167.74	167.959	56	37
167.74	167.959	60	37
167.74	167.959	68	54
168.177	168.973	54	46
168.557	169.364	44	32
168.557	169.364	60	34
168.557	169.364	63	34
168.557	169.364	68	40
168.862	168.973	50	43
168.964	169.364	51	49
169.258	169.364	53	42
169.356	170.151	54	49
169.356	170.151	69	52
169.74	170.551	44	32
170.045	170.151	62	45
170.146	170.551	63	50
170.443	170.551	65	45
170.542	171.341	51	46
170.542	171.726	60	50
170.542	171.726	66	51
170.925	171.726	44	32
171.23	171.341	47	42
171.332	171.716	48	49
171.627	171.726	49	44
171.726	172.516	51	48
171.726	172.516	66	52
172.109	173.706	44	32
172.414	172.516	59	45
172.516	172.918	60	50
172.812	172.918	61	45
172.91	173.699	63	51
173.293	174.887	45	32
173.598	173.706	53	45
173.699	174.1	54	50
173.699	174.1	63	51
173.994	174.1	56	45
174.092	175.281	57	51
174.474	176.065	47	32
174.779	174.887	50	45
174.881	175.281	51	50
175.176	175.281	52	45
175.275	176.479	54	51
175.658	176.699	48	32
175.963	176.065	49	45
176.065	176.485	50	50
176.375	176.485	52	51
176.479	177.171	54	55
176.699	176.939	50	43
176.939	177.171	52	49
177.171	177.858	54	53
177.858	178.553	31	44
177.858	177.952	55	40
177.952	178.045	57	32
178.045	178.138	55	34
178.138	178.24	50	34
178.24	178.321	62	40
178.553	178.625	34	35
178.553	178.625	50	40
178.553	178.625	55	40
178.649	178.722	33	40
178.649	178.722	48	46
178.649	178.722	54	46
179.036	179.129	60	43
179.129	179.222	62	37
179.222	179.316	60	37
179.316	179.419	57	37
179.419	179.498	69	49
179.728	179.8	30	33
179.728	179.8	50	44
179.728	179.8	60	44
179.824	179.896	31	40
179.824	179.896	50	48
179.824	179.896	58	48
180.209	180.302	55	40
180.302	180.396	57	34
180.396	180.49	55	34
180.49	180.592	50	34
180.592	180.666	67	50
180.886	180.958	34	32
180.886	180.958	55	44
180.886	180.958	65	44
180.982	181.053	36	37
180.982	181.053	55	47
180.982	181.053	63	47
181.268	181.342	38	33
181.268	181.342	55	40
181.268	181.342	62	40
181.367	181.438	39	38
181.367	181.438	55	44
181.367	181.438	60	44
181.651	181.725	58	50
181.75	181.822	51	40
181.75	181.822	57	46
181.75	181.822	61	46
182.038	182.119	55	40
182.146	182.218	38	45
182.146	182.218	50	45
182.146	182.218	54	50
182.146	182.218	62	50
182.531	183.301	74	72
182.916	183.301	30	40
182.916	183.68	62	61
183.204	183.301	72	58
183.301	183.489	31	44
183.301	183.371	70	65
183.582	183.655	69	55
183.68	184.34	55	60
183.68	183.75	67	64
183.68	184.058	70	64
183.961	184.034	65	56
184.058	184.129	63	64
184.34	184.438	53	51
184.34	184.413	62	56
184.438	184.508	51	58
184.438	184.508	60	64
184.719	184.792	50	51
184.816	184.888	48	57
184.816	185.674	77	68
185.104	185.674	46	50
185.201	185.674	33	40
185.201	185.965	65	61
185.489	185.674	75	58
185.586	185.773	34	44
185.586	185.674	74	65
185.867	185.94	72	55
185.965	186.625	58	60
185.965	186.035	70	64
185.965	186.343	74	64
186.246	186.319	69	56
186.343	186.414	67	64
186.625	186.723	57	51
186.625	186.698	65	56
186.723	186.793	55	58
186.723	186.793	64	64
187.004	187.076	53	51
187.101	187.173	52	57
187.101	187.87	81	70
187.389	187.87	50	50
187.486	187.87	37	40
187.486	188.25	69	61
187.774	187.87	79	58
187.87	188.058	38	44
187.87	187.941	78	65
188.152	188.225	75	55
188.25	188.91	62	58
188.25	188.32	74	64
188.25	188.628	78	64
188.531	188.604	72	56
188.628	188.699	70	64
188.628	188.722	79	64
188.91	189.008	60	51
188.91	188.983	69	56
189.008	189.078	58	58
189.008	189.078	67	64
189.288	189.361	57	51
189.386	189.458	55	57
189.386	189.771	70	71
189.674	189.747	53	50
189.771	189.843	52	57
189.771	190.161	69	52
189.771	190.161	73	62
190.059	190.161	51	50
190.059	190.161	67	58
190.155	190.343	50	58
190.155	190.343	66	56
190.155	190.343	74	61
190.437	190.51	63	51
190.535	191.312	50	60
190.535	191.312	62	59
190.535	191.312	66	59
190.82	191.312	60	49
190.922	191.312	58	55
190.922	191.312	67	55
191.214	191.317	48	43
191.214	191.312	57	47
191.317	191.761	46	53
191.317	191.761	55	54
191.633	191.761	45	49
191.748	192.219	43	48
191.748	192.219	58	56
191.967	192.219	41	42
192.201	192.834	40	41
192.201	192.834	57	47
192.201	192.834	61	47
192.478	192.834	39	32
192.478	192.834	55	38
192.819	194.833	38	47
193.047	194.833	45	29
193.047	194.833	54	35
193.047	194.833	62	42
