OnsetTime	OffsetTime	MidiPitch	Velocity
0.532996	1.58799	70	59
0.534994	2.64498	51	51
0.534994	1.592	67	59
1.58599	2.15898	65	55
1.58599	2.15898	68	55
2.10999	2.68098	63	53
2.11398	2.68098	67	53
2.63798	3.18397	68	54
2.64198	3.18896	72	54
3.13898	3.68497	67	52
3.13898	3.68597	70	52
3.68897	4.69997	70	59
3.68997	4.70397	51	50
3.68997	4.69997	67	59
4.70397	5.70097	65	53
4.70497	5.70097	68	53
4.70697	5.70196	53	46
5.70497	6.74496	63	51
5.70497	6.74496	67	51
5.70597	6.74596	55	45
6.74796	7.77396	58	55
6.74796	7.77295	64	65
6.74895	7.77396	61	55
7.77596	8.29796	65	55
7.77695	8.81295	56	51
7.77695	8.81195	60	51
8.30195	8.81295	72	55
8.81395	9.06495	70	53
9.06495	9.32095	68	51
9.32395	9.57595	67	53
9.57895	9.83494	65	52
9.83595	10.9059	55	59
9.83595	10.9089	63	59
9.83694	10.0999	45	47
10.1009	10.3699	46	50
10.3739	10.6399	48	53
10.6399	10.9099	46	51
10.9099	11.1679	53	53
10.9129	11.9559	46	49
10.9129	11.1689	62	53
11.3019	11.4339	58	47
11.4349	11.5599	62	51
11.5639	11.6959	60	49
11.6969	11.8299	63	52
11.8299	11.9599	62	51
11.9599	12.0919	65	53
12.0929	12.2179	63	51
12.2179	12.3509	67	54
12.3519	12.4809	65	54
12.4809	12.6139	68	57
12.6139	12.7399	67	54
12.7439	12.8659	70	59
12.8689	12.9949	68	56
12.9959	13.1279	72	60
12.9979	14.0519	39	53
12.9989	14.0559	51	53
13.1319	14.0559	67	61
13.1329	13.7899	70	61
13.7929	13.9189	72	53
13.9199	14.0569	70	50
14.0569	14.3179	68	53
14.3209	14.5839	67	51
14.5869	14.8539	65	53
14.8539	15.1269	63	52
15.1269	15.3859	79	62
15.1299	16.1769	51	49
15.1309	16.1769	60	49
15.3889	15.6549	74	54
15.6559	15.9139	75	58
15.9169	16.1809	72	52
16.1809	17.2509	70	56
16.1839	17.2518	53	53
16.1839	17.2518	60	53
17.2548	17.4478	70	50
17.2558	18.3078	58	50
17.2558	18.3088	62	50
17.3488	17.5478	68	48
17.4478	17.6468	70	50
17.5478	17.7448	68	48
17.6468	17.8428	70	50
17.7448	17.9478	68	48
17.8428	18.2728	70	50
17.9478	18.1758	68	49
18.0418	18.2728	67	57
18.1758	18.3088	68	55
18.3118	18.4488	67	60
18.3128	18.8478	60	49
18.3128	18.8478	63	49
18.5848	18.8488	75	65
18.8508	19.1138	74	62
19.1138	19.3828	73	59
19.3828	19.6948	71	57
19.3838	20.6428	44	54
19.3868	20.6428	56	54
19.6208	19.6978	74	53
19.6978	19.9988	72	61
19.9218	19.9988	70	53
19.9998	20.2998	68	57
20.2228	20.2998	67	47
20.3008	20.6438	65	55
20.6458	22.4238	63	51
20.6468	23.0338	46	50
20.6468	21.8258	55	50
21.8268	23.0338	56	40
22.4248	22.7248	67	50
22.4258	23.0348	62	50
22.7258	23.0358	65	47
23.0368	24.0898	63	46
23.0398	23.2998	51	32
23.3028	23.5618	55	32
23.5618	23.8238	58	30
23.8248	24.0908	55	27
24.0908	25.1338	51	33
24.3528	24.8748	55	29
24.6188	25.1328	67	49
24.6188	25.1338	70	49
24.6228	25.6448	58	31
24.8748	25.3848	55	29
25.1328	25.6438	67	52
25.1338	26.1848	51	33
25.1338	25.6448	70	52
25.3848	25.9068	55	29
25.6438	26.1868	67	46
25.6448	26.1868	58	31
25.6448	26.1868	70	46
25.9068	26.1868	55	29
26.1838	27.7628	68	57
26.1838	26.7078	75	57
26.1848	26.6268	51	36
26.4418	26.7088	53	27
26.7088	27.7628	74	50
26.7118	27.7628	56	30
26.9718	27.4998	53	27
27.2338	27.7628	51	32
27.4998	27.7628	53	27
27.7628	28.2868	56	30
27.7628	28.2868	82	54
28.0148	28.2868	80	51
28.0168	28.2868	53	27
28.2698	29.2958	79	54
28.2728	29.2948	51	32
28.5258	29.2918	77	52
28.5288	29.0388	53	27
28.7818	29.2958	75	52
28.7838	29.2958	56	30
29.0368	29.2958	74	49
29.0388	29.2958	53	27
29.2918	29.4668	77	54
29.2948	29.5568	51	33
29.3788	29.4968	75	52
29.4668	29.5618	77	54
29.5618	30.0828	75	53
29.5628	29.8188	55	27
29.8198	30.0828	58	30
30.0838	30.3408	55	27
30.0838	30.2078	74	45
30.2088	30.3408	72	44
30.3418	30.8658	70	45
30.3448	30.6038	51	29
30.6048	30.8667	55	27
30.8667	31.3788	67	45
30.8678	31.3808	70	45
30.8698	31.8927	58	30
31.1188	31.6328	55	27
31.3788	31.8918	67	50
31.3808	32.4138	51	29
31.3808	31.8898	70	50
31.6328	32.1478	55	27
31.8898	32.4138	70	45
31.8918	32.4138	67	45
31.8927	32.4138	58	30
32.1478	32.4138	55	27
32.4107	34.5447	68	56
32.4138	32.9447	51	35
32.4138	32.9447	75	56
32.6688	32.9447	53	29
32.9317	34.5447	74	46
32.9347	33.4837	56	30
33.1907	33.4837	53	29
33.4537	34.4897	51	32
33.7157	34.2337	53	27
33.9777	34.5447	82	53
33.9787	34.5447	56	27
34.2327	34.5447	80	50
34.2337	34.5447	53	27
34.4897	35.5007	51	32
34.4897	35.5007	79	53
34.7377	35.5007	77	50
34.7397	35.2517	53	27
34.9927	35.4977	75	52
34.9937	35.5007	56	27
35.2497	35.5007	74	50
35.2517	35.5007	53	27
35.4977	35.8407	75	53
35.4997	36.5118	55	27
35.5007	36.5127	51	27
35.7527	36.0287	77	43
35.8407	36.0077	75	43
35.9207	36.0287	74	43
36.0077	36.3868	75	43
36.1307	36.3878	77	44
36.2568	36.3878	79	45
36.3868	36.5148	75	44
36.5158	36.7668	70	43
37.0158	37.5618	70	48
37.0168	37.5618	67	48
37.0198	37.5658	55	32
37.0198	37.5658	58	32
37.5687	38.1287	65	45
37.5687	38.1317	68	45
37.5698	38.1357	56	34
37.5698	38.1357	60	34
38.1367	38.7517	63	49
38.1367	38.7527	67	49
38.1397	38.7547	57	35
38.1397	38.7557	60	35
38.7557	39.8897	63	53
38.7587	39.6047	70	53
38.7597	39.8927	58	37
39.6057	39.8927	67	39
39.8927	41.0057	62	35
39.8967	41.0067	65	35
40.4597	41.0087	58	46
41.0087	41.5457	53	46
41.5457	42.0768	50	46
41.9467	42.0807	65	67
42.0837	43.6627	46	53
42.0837	43.6627	77	72
42.6097	43.6627	50	45
43.1307	43.6627	53	47
43.6597	44.2427	75	70
43.6627	44.2427	58	45
43.7917	44.2427	74	62
43.9277	44.2427	72	65
44.0547	44.2427	70	63
44.1877	44.7437	69	71
44.1907	44.7437	63	51
44.7167	45.2487	70	70
44.7197	45.2487	62	47
45.2447	45.8777	72	67
45.2477	45.8777	63	51
45.2477	45.8777	69	67
45.2487	45.8777	60	51
45.7977	45.9267	75	65
45.8017	46.4107	62	47
45.8017	46.4107	70	65
45.8027	46.4107	58	47
45.9307	46.1897	74	62
46.0597	46.3257	72	65
46.1897	46.4107	74	61
46.3257	46.8507	72	65
46.3297	46.8517	60	47
46.3297	46.8517	75	65
46.3307	46.8537	57	47
46.8537	47.3977	65	49
47.3977	47.9427	65	53
47.9427	48.4887	65	50
48.4897	50.0717	75	72
49.0097	50.0717	53	45
49.5387	50.0717	57	45
50.0677	50.6057	77	69
50.0707	50.6057	60	45
50.2007	50.6057	75	63
50.3337	50.6057	74	69
50.4637	50.6057	72	63
50.5997	51.1257	62	50
50.5997	51.1247	70	73
51.1257	51.6567	69	70
51.1277	51.6567	72	70
51.1287	51.6567	63	45
51.1287	52.2787	65	45
51.6547	52.2787	74	71
51.6567	52.2787	62	51
51.6567	52.2787	70	71
52.2027	52.8007	72	67
52.2027	52.3277	77	67
52.2037	52.8007	60	45
52.2057	52.8007	63	45
52.3327	52.6057	75	67
52.4717	52.7427	74	67
52.6057	52.8007	75	64
52.7427	53.2147	74	72
52.7427	53.2147	77	72
52.7447	53.2697	62	50
52.7457	53.2707	58	50
53.2727	53.8197	46	54
53.8197	54.3617	46	57
54.3627	54.9077	46	54
54.9087	56.4867	80	76
55.4297	55.9577	50	54
55.9587	56.4907	53	56
56.4907	57.0147	56	52
56.4907	56.6197	79	67
56.6207	56.7527	77	63
56.7557	56.8817	75	67
56.8827	57.0187	74	64
57.0187	57.5707	75	72
57.0197	57.5717	55	56
57.5747	57.8687	77	74
57.5757	57.8697	50	53
58.1587	59.7687	78	80
58.6947	59.2337	51	53
58.6947	59.2307	58	53
59.2377	59.7697	58	53
59.2387	59.7697	51	53
59.7707	60.0187	80	72
59.7727	60.2837	59	55
59.7737	60.2837	51	55
60.0187	60.2847	79	69
60.2877	60.8047	51	55
60.2877	60.5397	77	70
60.2887	60.8057	60	55
60.5407	60.8087	75	67
60.8097	61.3137	57	53
60.8097	61.0547	74	67
60.8127	61.3137	51	53
61.0577	61.3147	72	64
61.3147	61.4847	77	75
61.3167	61.8287	50	54
61.3167	61.8277	58	54
61.4877	61.6527	76	71
61.6567	61.8287	77	73
61.8317	62.3657	51	50
61.8317	62.0027	79	75
61.8347	62.3707	58	50
62.0027	62.1707	67	67
62.1717	62.3707	75	69
62.3707	63.4237	70	75
62.3737	62.8947	53	50
62.3737	62.8947	62	50
62.8987	63.4247	62	46
62.8997	63.4267	53	46
63.4267	64.4976	69	62
63.4307	63.6857	74	68
63.4317	63.9597	53	42
63.4317	63.9597	63	42
63.6867	63.9627	72	60
63.9627	64.2257	70	66
63.9637	64.4987	53	42
63.9637	64.4976	63	42
64.2257	64.5017	72	59
64.5017	65.5556	70	60
64.5026	65.0276	62	45
64.5046	64.7616	58	45
64.7616	65.4426	58	50
65.0276	65.4426	62	54
65.2966	65.5556	65	57
65.5556	65.8136	63	63
65.8176	66.0836	65	54
66.0846	66.6046	70	75
66.0866	66.5486	62	63
66.0866	66.6056	77	75
66.3456	66.6076	65	54
66.6086	67.1336	77	59
66.6116	67.1336	72	80
66.6126	67.0286	60	63
66.8716	67.1346	65	56
67.1376	67.6806	74	76
67.1376	67.6766	77	76
67.1406	67.6806	58	63
67.3996	67.6806	65	55
67.6766	68.4606	77	80
67.6796	69.2406	75	63
67.6806	68.2316	57	63
67.9356	68.2316	60	53
68.1976	68.6416	63	56
68.3246	68.6416	79	69
68.4606	68.7186	62	53
68.4606	68.6416	77	67
68.5866	68.7186	76	70
68.7196	68.9776	77	76
68.7226	68.9816	60	61
68.9826	69.2436	58	54
69.2446	69.7766	69	75
69.2446	69.7766	77	75
69.2456	69.7516	57	56
69.5106	69.7776	55	54
69.7776	70.3186	70	76
69.7796	70.3186	53	56
69.7796	70.3186	79	76
70.0346	70.3186	55	54
70.3056	70.8606	72	75
70.3076	70.8606	51	56
70.3076	70.8606	81	75
70.5676	70.8606	53	54
70.8286	71.7256	82	86
70.8296	71.3086	50	61
70.8296	72.3696	70	86
71.0816	71.3376	53	52
71.3376	71.7716	58	54
71.4706	71.7716	84	75
71.6006	71.7716	86	76
71.6026	71.8546	53	51
71.7256	71.8556	82	72
71.8556	72.1136	77	78
71.8566	72.1146	62	57
72.3696	72.9086	74	54
72.3706	72.9096	77	54
72.3736	72.9116	58	41
72.3736	72.9126	62	41
72.9156	73.4506	72	54
72.9156	73.4516	75	54
72.9166	73.4516	60	43
72.9186	73.4546	63	43
73.4556	74.0286	70	54
73.4556	74.0286	74	54
73.4566	74.0326	65	39
73.4576	74.0326	62	39
74.0346	74.6786	72	57
74.0356	75.0676	67	46
74.0366	75.0716	63	46
74.6796	74.8056	74	52
74.8096	74.9426	75	54
74.9426	75.0726	72	52
75.0726	75.3306	79	59
75.5896	76.1176	67	49
75.5936	76.1226	60	41
75.5936	76.1216	72	49
75.5966	76.1226	51	41
76.1246	76.6526	65	52
76.1256	76.6536	70	52
76.1286	77.2106	53	43
76.1286	76.6536	62	43
76.6566	77.2136	69	49
76.6576	77.2136	63	42
76.6576	77.2136	72	49
77.2146	78.0466	72	54
77.2176	78.3336	63	45
77.2176	78.3296	69	54
77.2206	78.6095	58	45
78.0476	78.3346	73	50
78.3346	78.8896	70	45
78.3376	78.6106	62	35
78.3376	78.8906	74	45
78.6126	78.8906	58	51
78.8916	79.4285	70	74
78.8936	79.4285	62	54
78.8936	79.4266	77	74
79.1565	79.4285	65	51
79.4266	79.9855	72	80
79.4266	79.9655	77	59
79.4285	79.9855	63	57
79.6915	79.9855	62	54
79.9655	80.5016	77	75
79.9675	80.5036	74	75
79.9685	80.5036	60	55
80.2306	80.5036	58	53
80.5005	82.0645	75	83
80.5016	81.0076	57	63
80.5016	81.2835	77	83
80.7595	81.0175	60	54
81.0215	81.5005	63	56
81.1545	81.5005	79	69
81.2835	81.5005	77	71
81.2845	81.5385	62	54
81.4175	81.5435	76	67
81.5435	81.8025	77	77
81.5465	81.8045	60	61
81.8055	82.0645	58	54
82.0685	82.6105	69	76
82.0685	82.6105	77	76
82.0695	82.6105	57	56
82.3195	82.6105	55	54
82.5845	83.1665	79	81
82.5855	83.1665	70	81
82.5865	83.1665	53	56
82.8495	83.1665	55	54
83.1185	83.6725	72	76
83.1215	83.6725	51	56
83.1215	83.6725	81	76
83.3915	83.6725	53	54
83.6685	84.5715	82	86
83.6715	85.2175	70	86
83.6725	84.6305	50	61
83.9275	84.4485	53	46
84.1825	84.6305	58	51
84.3115	84.6305	84	67
84.4485	84.7005	53	45
84.4485	84.6305	86	70
84.5715	84.7005	82	66
84.7015	84.9555	77	63
84.7035	84.9555	62	50
85.2185	85.7565	74	54
85.2185	85.7575	77	54
85.2195	85.7575	58	41
85.2215	85.7615	62	41
85.7615	86.2965	72	54
85.7615	86.2965	75	54
85.7635	86.2995	60	43
85.7645	86.2995	63	43
86.3005	86.8765	70	54
86.3035	86.8775	65	42
86.3035	86.8775	74	54
86.3045	86.8805	62	42
86.8805	87.0195	71	45
86.8815	87.4505	63	43
86.8845	87.4515	67	43
87.0205	87.1675	72	45
87.1685	87.3075	74	46
87.3075	87.4515	72	45
87.4545	87.5915	75	50
87.5915	87.7285	74	47
87.7305	87.8675	77	52
87.8715	88.0045	75	50
88.0045	89.0575	79	60
89.0605	89.5865	77	54
89.0615	89.5865	57	43
89.0615	90.1635	63	43
89.0645	90.1635	53	43
89.5895	90.1645	60	43
90.0165	90.1645	69	50
90.1675	91.0765	58	43
90.1675	92.2215	70	51
90.4185	90.9305	62	39
90.6755	91.0765	65	40
90.9305	91.4415	62	42
91.1865	92.2215	58	46
91.4415	91.9495	62	44
91.6965	92.2215	80	66
91.6975	92.2215	65	45
91.9495	92.2215	62	46
92.2085	92.5435	63	53
92.2085	92.7225	79	70
92.4665	92.7235	60	50
92.7255	93.2545	65	51
92.7255	93.2545	81	73
92.9845	93.2545	63	53
93.2515	93.7865	84	76
93.2545	93.7025	62	56
93.5165	93.7865	65	51
93.7875	94.3175	82	71
93.7895	94.3175	62	53
94.0485	94.3175	60	50
94.3155	95.4105	58	64
94.5805	95.4105	56	56
94.8475	95.4105	68	69
94.8495	95.4105	53	59
95.1235	95.4105	50	56
95.3935	95.9485	67	69
95.3964	95.8965	51	64
95.6725	95.9495	48	59
95.9525	96.6045	63	63
95.9525	96.6075	69	63
95.9535	96.6075	53	64
96.2745	96.6075	41	54
96.6035	97.9655	72	54
96.6045	98.6405	46	46
96.6045	97.9655	63	54
97.9665	98.6445	70	42
97.9685	98.6475	62	42
98.6475	99.2704	62	47
98.6485	99.2714	56	42
98.6485	99.2704	65	47
99.2744	99.8514	63	52
99.2744	99.8524	67	52
99.2774	99.8524	55	45
99.8554	100.488	65	55
99.8564	100.489	53	49
99.8564	100.489	68	55
100.493	101.545	70	59
100.495	101.545	67	59
100.496	102.599	51	51
101.538	102.112	65	55
101.542	102.116	68	55
102.066	102.637	63	53
102.07	102.638	67	53
102.595	103.141	68	54
102.599	103.145	72	54
103.096	103.641	67	52
103.097	103.642	70	52
103.642	104.653	67	59
103.646	104.654	51	50
103.646	104.654	70	59
104.655	105.65	65	53
104.656	105.651	68	53
104.657	105.651	53	46
105.651	106.701	63	51
105.654	106.701	67	51
105.655	106.702	55	45
106.704	107.73	58	55
106.704	107.726	64	65
106.705	107.73	61	55
107.733	108.766	56	51
107.733	108.254	65	55
107.734	108.766	60	51
108.258	108.77	72	55
108.77	109.021	70	53
109.022	109.277	68	51
109.278	109.532	67	53
109.535	109.788	65	52
109.788	110.862	55	59
109.792	110.058	45	47
109.792	110.863	63	59
110.058	110.323	46	50
110.323	110.596	48	53
110.597	110.863	46	51
110.866	111.124	53	53
110.867	111.912	46	49
110.867	111.125	62	53
111.258	111.39	58	47
111.391	111.52	62	51
111.521	111.65	60	49
111.653	111.779	63	52
111.78	111.916	62	51
111.916	112.039	65	53
112.042	112.175	63	51
112.176	112.308	67	54
112.308	112.433	65	54
112.438	112.563	68	57
112.563	112.692	67	54
112.693	112.826	70	59
112.827	112.952	68	56
112.952	113.084	72	60
112.953	114.008	39	53
112.955	114.009	51	53
113.085	114.012	67	61
113.089	113.742	70	61
113.743	113.876	72	53
113.877	114.013	70	50
114.013	114.275	68	53
114.275	114.537	67	51
114.537	114.803	65	53
114.804	115.083	63	52
115.084	115.342	79	62
115.087	116.133	51	49
115.088	116.134	60	49
115.345	115.605	74	54
115.605	115.871	75	58
115.871	116.134	72	52
116.137	117.207	70	56
116.138	117.208	53	53
116.14	117.208	60	53
117.211	117.404	70	50
117.212	118.265	58	50
117.212	118.264	62	50
117.305	117.502	68	48
117.404	117.599	70	50
117.502	117.701	68	48
117.599	117.799	70	50
117.701	117.897	68	48
117.799	118.222	70	50
117.897	118.132	68	49
117.999	118.222	67	57
118.132	118.265	68	55
118.268	118.398	67	60
118.269	118.804	60	49
118.269	118.804	63	49
118.534	118.805	75	65
118.808	119.07	74	62
119.073	119.336	73	59
119.339	119.651	71	57
119.34	120.592	44	54
119.343	120.593	56	54
119.57	119.652	74	53
119.654	119.952	72	61
119.878	119.955	70	53
119.956	120.256	68	57
120.18	120.257	67	47
120.257	120.593	65	55
120.596	122.381	63	51
120.597	122.99	46	50
120.597	121.782	55	50
121.783	122.99	56	40
122.381	122.991	62	50
122.382	122.682	67	50
122.682	122.993	65	47
122.993	124.04	63	46
122.994	123.249	51	32
123.25	123.518	55	32
123.519	123.777	58	30
123.778	124.04	55	27
124.041	125.083	51	33
124.31	124.825	55	29
124.575	125.082	67	49
124.576	125.083	70	49
124.579	125.595	58	31
124.825	125.335	55	29
125.082	125.594	67	52
125.083	126.141	51	33
125.083	125.594	70	52
125.335	125.864	55	29
125.594	126.141	67	46
125.594	126.141	70	46
125.595	126.141	58	31
125.864	126.141	55	29
126.14	127.72	68	57
126.141	126.585	51	36
126.141	126.658	75	57
126.4	126.662	53	27
126.662	127.72	74	50
126.663	127.719	56	30
126.928	127.453	53	27
127.186	127.72	51	32
127.453	127.72	53	27
127.719	128.244	56	30
127.719	128.244	82	54
127.972	128.244	80	51
127.974	128.244	53	27
128.227	129.252	79	54
128.23	129.252	51	32
128.482	129.248	77	52
128.485	128.996	53	27
128.738	129.252	75	52
128.74	129.252	56	30
128.993	129.252	74	49
128.996	129.252	53	27
129.248	129.423	77	54
129.252	129.511	51	33
129.335	129.454	75	52
129.423	129.511	77	54
129.512	129.769	55	27
129.512	130.032	75	53
129.769	130.033	58	30
130.033	130.165	74	45
130.034	130.291	55	27
130.165	130.292	72	44
130.292	130.816	70	45
130.295	130.561	51	29
130.561	130.816	55	27
130.816	131.33	67	45
130.817	131.331	70	45
130.82	131.842	58	30
131.076	131.589	55	27
131.33	131.839	67	50
131.331	132.37	51	29
131.331	131.842	70	50
131.589	132.104	55	27
131.839	132.371	67	45
131.842	132.371	58	30
131.842	132.371	70	45
132.104	132.371	55	27
132.367	134.501	68	56
132.37	132.898	51	35
132.37	132.898	75	56
132.626	132.898	53	29
132.889	134.501	74	46
132.891	133.438	56	30
133.151	133.438	53	29
133.41	134.44	51	32
133.673	134.191	53	27
133.935	134.501	82	53
133.938	134.501	56	27
134.19	134.501	80	50
134.191	134.501	53	27
134.44	135.457	51	32
134.44	135.457	79	53
134.694	135.457	77	50
134.698	135.201	53	27
134.949	135.454	75	52
134.95	135.457	56	27
135.199	135.457	74	50
135.201	135.457	53	27
135.454	135.79	75	53
135.457	136.469	51	27
135.457	136.469	55	27
135.709	135.986	77	43
135.79	135.958	75	43
135.878	135.986	74	43
135.958	136.343	75	43
136.087	136.344	77	44
136.214	136.344	79	45
136.343	136.472	75	44
136.473	136.72	70	43
136.973	137.518	67	48
136.973	137.519	70	48
136.976	137.522	55	32
136.976	137.522	58	32
137.523	138.089	65	45
137.525	138.09	68	45
137.526	138.092	56	34
137.526	138.09	60	34
138.093	138.708	63	49
138.093	138.709	67	49
138.094	138.709	57	35
138.096	138.713	60	35
138.713	139.846	63	53
138.716	139.846	58	37
138.716	139.563	70	53
139.563	139.85	67	39
139.85	140.959	62	35
139.853	140.963	65	35
140.416	140.966	58	46
140.966	141.502	53	46
141.502	142.03	50	46
141.897	142.031	65	67
142.033	143.62	77	72
142.034	143.62	46	53
142.559	143.62	50	45
143.087	143.62	53	47
143.616	144.193	75	70
143.617	144.193	58	45
143.749	144.193	74	62
143.875	144.193	72	65
144.011	144.193	70	63
144.145	144.704	69	71
144.148	144.704	63	51
144.673	145.201	70	70
144.676	145.201	62	47
145.195	145.828	69	67
145.197	145.828	72	67
145.198	145.828	60	51
145.198	145.828	63	51
145.755	145.88	75	65
145.758	146.349	58	47
145.758	146.349	62	47
145.758	146.349	70	65
145.881	146.136	74	62
146.006	146.266	72	65
146.136	146.349	74	61
146.266	146.79	72	65
146.266	146.79	75	65
146.268	146.794	57	47
146.269	146.794	60	47
146.794	147.336	65	49
147.336	147.882	65	53
147.883	148.428	65	50
148.429	150.0	75	72
148.95	150.0	53	45
149.479	150.0	57	45
149.997	150.528	77	69
150.0	150.528	60	45
150.126	150.528	75	63
150.259	150.528	74	69
150.389	150.528	72	63
150.525	151.047	62	50
150.525	151.043	70	73
151.047	151.585	69	70
151.049	151.585	72	70
151.05	151.585	63	45
151.05	152.201	65	45
151.576	152.201	70	71
151.578	152.201	62	51
151.578	152.201	74	71
152.128	152.257	77	67
152.131	152.722	72	67
152.132	152.722	60	45
152.132	152.722	63	45
152.261	152.527	75	67
152.391	152.664	74	67
152.527	152.722	75	64
152.664	153.139	74	72
152.665	153.139	77	72
152.667	153.192	58	50
152.667	153.192	62	50
153.195	153.737	46	54
153.738	154.284	46	57
154.284	154.83	46	54
154.83	156.415	80	76
155.358	155.886	50	54
155.887	156.415	53	56
156.416	156.549	79	67
156.419	156.936	56	52
156.549	156.677	77	63
156.678	156.811	75	67
156.811	156.937	74	64
156.94	157.5	75	72
156.941	157.501	55	56
157.501	157.791	77	74
157.504	157.791	50	53
158.081	159.688	78	80
158.62	159.155	51	53
158.621	159.156	58	53
159.156	159.688	51	53
159.159	159.691	58	53
159.691	159.943	80	72
159.692	160.209	59	55
159.695	160.212	51	55
159.947	160.212	79	69
160.216	160.461	77	70
160.217	160.727	51	55
160.217	160.727	60	55
160.462	160.731	75	66
160.731	160.983	74	67
160.735	161.249	51	53
160.735	161.252	57	53
160.983	161.253	72	66
161.256	161.414	77	75
161.257	161.757	50	54
161.257	161.757	58	54
161.414	161.585	76	71
161.588	161.757	77	73
161.76	162.295	51	50
161.76	161.924	79	75
161.761	162.296	58	50
161.925	162.1	67	67
162.1	162.296	75	69
162.299	163.353	70	75
162.3	162.82	53	50
162.3	162.824	62	50
162.827	163.353	53	46
162.828	163.354	62	46
163.356	164.423	69	68
163.356	163.604	74	68
163.357	163.884	53	42
163.357	163.888	63	42
163.608	163.889	72	60
163.889	164.147	70	66
163.891	164.424	53	42
163.891	164.426	63	42
164.148	164.43	72	59
164.431	164.7	58	45
164.431	165.494	70	60
164.432	164.966	62	45
164.7	165.389	58	50
164.966	165.389	62	54
165.232	165.495	65	57
165.495	165.76	63	63
165.761	166.022	65	54
166.023	166.544	70	75
166.024	166.544	77	75
166.026	166.485	62	63
166.286	166.545	65	54
166.548	167.076	72	80
166.548	167.08	77	59
166.549	166.967	60	63
166.814	167.081	65	56
167.083	167.619	74	76
167.084	167.619	58	63
167.084	167.616	77	76
167.346	167.619	65	55
167.616	169.18	75	63
167.616	168.397	77	80
167.619	168.168	57	63
167.875	168.168	60	53
168.134	168.581	63	56
168.27	168.581	79	69
168.397	168.581	77	67
168.399	168.658	62	53
168.533	168.659	76	70
168.659	168.917	77	76
168.661	168.918	60	61
168.921	169.18	58	54
169.181	169.715	69	75
169.184	169.691	57	56
169.184	169.716	77	75
169.446	169.716	55	54
169.719	170.261	70	76
169.72	170.261	53	56
169.72	170.261	79	76
169.978	170.261	55	54
170.247	170.808	72	75
170.248	170.808	51	56
170.248	170.808	81	75
170.506	170.808	53	54
170.769	172.295	70	86
170.769	171.659	82	86
170.77	171.251	50	61
171.022	171.283	53	52
171.284	171.703	58	54
171.409	171.703	84	75
171.538	171.703	86	76
171.539	171.788	53	51
171.659	171.788	82	72
171.789	172.043	77	77
171.791	172.043	62	57
172.298	172.837	74	54
172.299	172.838	77	54
172.302	172.84	58	41
172.302	172.841	62	41
172.841	173.377	72	54
172.844	173.377	75	54
172.845	173.38	60	43
172.845	173.38	63	43
173.38	173.964	70	54
173.384	173.965	62	39
173.384	173.964	74	54
173.385	173.965	65	39
173.968	174.608	72	57
173.969	174.997	63	46
173.969	174.997	67	46
174.608	174.742	74	52
174.742	174.871	75	54
174.872	174.998	72	52
175.001	175.256	79	59
175.518	176.047	67	49
175.522	176.047	72	49
175.523	176.051	51	41
175.523	176.051	60	41
176.051	176.582	65	52
176.054	177.139	53	43
176.054	176.582	70	52
176.055	176.583	62	43
176.586	177.14	69	49
176.586	177.142	72	49
176.587	177.143	63	42
177.143	178.259	69	54
177.146	177.979	72	54
177.147	178.539	58	45
177.147	178.259	63	45
177.979	178.263	73	50
178.263	178.819	70	45
178.264	178.539	62	35
178.264	178.82	74	45
178.54	178.82	58	51
178.82	179.362	70	74
178.822	179.362	62	54
178.822	179.362	77	74
179.086	179.362	65	51
179.359	179.915	72	80
179.362	179.915	63	57
179.362	179.894	77	59
179.624	179.915	62	54
179.894	180.432	74	75
179.894	180.429	77	75
179.895	180.432	60	55
180.159	180.432	58	53
180.429	181.21	77	83
180.43	180.936	57	63
180.43	181.99	75	83
180.688	180.946	60	54
180.947	181.43	63	56
181.081	181.43	79	69
181.21	181.43	77	71
181.213	181.469	62	54
181.343	181.472	76	67
181.472	181.734	77	78
181.473	181.738	60	61
181.738	181.993	58	54
181.994	182.536	69	76
181.997	182.536	77	76
181.998	182.536	57	56
182.249	182.536	55	54
182.512	183.103	70	81
182.512	183.103	79	81
182.515	183.103	53	56
182.778	183.103	55	54
183.05	183.607	72	76
183.054	183.607	51	56
183.054	183.607	81	76
183.323	183.607	53	54
183.603	184.5	82	86
183.604	184.559	50	61
183.604	185.133	70	86
183.856	184.377	53	46
184.111	184.559	58	51
184.245	184.559	84	67
184.374	184.559	86	70
184.377	184.622	53	45
184.5	184.623	82	66
184.623	184.877	77	63
184.625	184.878	62	50
185.133	185.679	74	54
185.134	185.679	77	54
185.137	185.68	58	41
185.137	185.683	62	41
185.683	186.211	72	54
185.684	186.214	60	43
185.684	186.212	75	54
185.686	186.215	63	43
186.215	186.799	70	54
186.218	186.799	74	54
186.219	186.802	62	42
186.221	186.803	65	42
186.803	186.942	71	45
186.804	187.373	63	43
186.806	187.373	67	43
186.943	187.085	72	45
187.09	187.226	74	46
187.229	187.377	72	45
187.377	187.509	75	50
187.514	187.65	74	47
187.653	187.789	77	52
187.794	187.926	75	50
187.927	188.98	79	60
188.983	189.508	77	54
188.984	190.082	53	43
188.984	189.511	57	43
188.987	190.086	63	43
189.512	190.086	60	43
189.939	190.086	69	50
190.09	191.003	58	43
190.09	192.147	70	51
190.341	190.849	62	39
190.597	191.003	65	40
190.849	191.364	62	42
191.108	192.147	58	46
191.364	191.871	62	44
191.619	192.147	80	66
191.62	192.147	65	45
191.871	192.147	62	46
192.129	192.644	79	70
192.13	192.458	63	53
192.386	192.647	60	50
192.648	193.177	65	51
192.648	193.177	81	72
192.907	193.177	63	53
193.176	193.624	62	56
193.176	193.697	84	76
193.439	193.701	65	51
193.704	194.238	82	71
193.705	194.238	62	53
193.968	194.238	60	50
194.238	195.325	58	64
194.503	195.325	56	56
194.769	195.325	68	69
194.772	195.325	53	59
195.035	195.325	50	56
195.318	195.871	67	69
195.319	195.819	51	64
195.588	195.872	48	59
195.872	196.526	63	63
195.875	196.527	53	64
195.875	196.527	69	63
196.197	196.527	41	54
196.525	197.883	72	54
196.526	198.566	46	46
196.526	197.887	63	54
197.89	198.567	62	42
197.891	198.567	70	42
198.569	199.192	62	47
198.57	199.196	56	42
198.57	199.193	65	47
199.197	199.774	63	52
199.197	199.774	67	52
199.198	199.775	55	45
199.775	200.404	65	55
199.778	200.408	53	49
199.778	200.408	68	55
200.411	202.581	52	56
200.411	201.499	66	67
200.411	201.5	69	67
201.5	202.042	67	62
201.501	202.046	70	62
202.046	202.581	70	54
202.047	202.584	73	54
202.584	203.137	64	56
202.588	203.721	48	46
202.588	203.141	67	56
203.141	203.722	68	51
203.144	203.722	72	51
203.723	204.852	67	55
203.726	205.945	50	53
203.726	204.852	70	55
204.856	205.415	65	52
204.856	205.416	68	52
205.416	205.945	77	54
205.945	206.466	77	54
205.948	207.002	56	43
205.948	207.001	60	43
206.466	207.002	77	54
207.003	208.062	78	62
207.004	208.062	58	43
207.005	208.065	61	43
208.065	208.572	79	56
208.573	209.605	82	63
209.087	210.131	60	43
209.091	210.131	70	43
209.608	210.132	76	57
210.134	211.705	65	43
210.134	211.187	70	43
210.134	211.183	79	64
211.188	211.712	68	36
211.188	211.709	77	60
211.712	212.255	41	45
212.256	212.793	41	46
212.794	213.333	41	44
213.333	216.374	41	52
213.872	214.373	80	59
214.376	214.621	79	61
214.624	214.873	77	59
214.874	215.107	75	57
215.111	215.362	73	57
215.367	215.622	72	59
215.622	215.877	73	62
215.878	216.126	77	66
216.127	216.375	73	60
216.375	219.573	62	57
216.378	219.574	68	57
216.378	217.421	72	57
216.381	217.943	41	42
217.422	219.577	71	47
217.943	218.478	41	45
218.478	219.002	41	46
219.007	219.577	41	45
219.577	222.678	42	54
220.109	221.138	63	53
220.11	220.619	72	53
220.62	220.879	71	56
220.879	221.138	72	58
221.139	222.15	63	50
221.139	221.39	74	59
221.39	221.642	72	56
221.643	221.893	71	56
221.894	222.153	72	59
222.153	223.732	63	61
222.153	222.405	75	61
222.408	222.678	74	60
222.681	224.263	43	49
222.681	223.732	71	66
223.733	225.82	63	60
223.735	225.821	72	60
224.267	224.782	43	48
224.782	225.296	43	50
225.296	225.821	43	47
225.822	227.875	44	55
226.336	226.853	63	62
226.336	226.854	72	62
226.854	227.365	63	64
226.857	227.365	72	64
227.366	227.876	63	67
227.368	227.876	72	67
227.879	228.379	63	70
227.88	228.915	45	62
227.88	228.38	72	70
228.383	228.915	63	72
228.383	228.916	72	72
228.916	229.57	73	74
228.919	229.958	46	62
228.919	230.486	63	74
229.57	229.698	72	62
229.699	229.828	70	57
229.832	229.958	68	54
229.962	230.99	49	48
229.962	230.486	67	66
230.49	230.994	79	67
230.994	231.502	80	67
230.995	232.03	48	54
231.502	232.285	72	65
232.031	233.101	49	44
232.286	232.541	70	56
232.545	232.797	73	60
232.8	233.101	77	55
233.102	234.144	51	43
233.102	234.69	68	63
233.104	234.144	60	43
234.145	235.267	51	36
234.148	235.268	61	36
234.691	235.268	67	55
234.693	234.98	72	55
234.981	235.268	70	55
235.269	236.815	68	46
235.271	235.526	56	33
235.527	236.038	60	26
235.782	236.817	63	27
236.038	236.556	60	25
236.301	236.856	56	30
236.556	236.856	60	26
236.815	237.329	68	46
236.815	237.33	72	46
236.817	237.837	63	29
237.07	237.582	60	26
237.329	237.834	68	49
237.33	238.372	56	33
237.33	237.834	72	49
237.582	238.099	60	27
237.834	238.372	68	46
237.834	238.369	72	46
237.837	238.372	63	29
238.099	238.372	60	27
238.369	239.912	70	58
238.369	239.915	72	58
238.37	238.631	55	36
238.37	238.89	77	58
238.631	238.894	58	26
238.897	239.916	76	46
238.898	239.901	60	27
239.15	239.66	58	26
239.405	239.901	55	32
239.66	239.919	58	26
239.919	240.428	70	47
239.92	240.942	60	27
239.92	240.431	72	47
240.172	240.682	58	25
240.428	240.941	70	51
240.431	241.454	55	32
240.431	240.941	72	51
240.682	241.194	58	27
240.941	241.454	70	47
240.941	241.453	72	47
240.942	241.454	60	27
241.194	241.454	58	25
241.45	241.977	79	59
241.453	241.714	53	36
241.453	242.995	68	59
241.453	242.996	72	59
241.715	241.977	56	27
241.978	242.922	60	30
241.978	243.0	77	51
242.229	242.744	56	27
242.488	242.922	53	32
242.744	243.0	56	26
243.003	243.517	68	51
243.003	243.518	72	51
243.004	244.046	60	27
243.258	243.776	56	26
243.517	244.045	68	54
243.518	244.046	72	54
243.521	244.589	53	32
243.776	244.309	56	27
244.045	244.588	68	49
244.046	244.589	60	29
244.046	244.588	72	49
244.309	244.589	56	27
244.585	245.103	80	64
244.588	244.84	51	36
244.588	246.142	68	64
244.588	246.143	72	64
244.844	245.106	54	30
245.106	246.167	78	60
245.107	246.143	56	32
245.366	245.883	54	29
245.627	246.167	51	36
245.883	246.167	54	29
246.142	246.653	68	50
246.143	247.158	56	32
246.143	246.654	72	50
246.395	246.899	54	29
246.653	247.157	68	55
246.654	247.665	51	35
246.654	247.157	72	55
246.899	247.409	54	29
247.157	247.664	68	51
247.157	247.665	72	51
247.158	247.665	56	31
247.409	247.665	54	27
247.661	248.249	78	61
247.664	249.212	68	61
247.664	250.209	73	61
247.665	248.249	49	40
247.928	248.249	52	34
248.189	249.215	76	56
248.19	249.216	56	36
248.442	248.956	52	33
248.704	250.209	49	40
248.956	249.464	52	33
249.212	249.723	68	59
249.215	249.724	76	59
249.216	250.209	56	36
249.464	250.209	52	33
249.723	250.24	68	64
249.724	250.209	47	39
249.724	250.241	76	64
249.982	250.244	51	34
250.245	250.786	68	59
250.247	250.787	75	59
250.248	250.79	56	36
250.507	250.79	51	33
250.786	252.365	68	65
250.787	252.365	46	36
250.787	251.721	75	65
250.788	252.369	53	36
251.592	251.851	77	52
251.721	251.851	75	49
251.851	252.369	74	52
252.372	252.902	46	29
252.372	252.901	62	45
252.372	252.901	68	45
252.376	252.904	53	29
252.904	253.432	62	47
252.905	253.433	68	47
252.908	253.437	46	32
252.908	253.437	53	32
253.437	253.975	62	45
253.44	253.976	46	29
253.44	253.975	68	45
253.443	253.979	53	29
253.979	255.043	62	47
253.98	255.043	46	32
253.98	255.043	68	47
253.982	255.046	53	32
255.582	256.135	74	39
255.585	256.136	65	27
255.585	256.136	80	39
255.586	256.138	58	27
256.138	256.684	74	39
256.139	256.688	65	27
256.139	256.687	80	39
256.142	256.688	58	27
256.691	257.273	74	39
256.692	257.273	65	27
256.692	257.273	80	39
256.694	257.276	58	27
257.276	258.536	74	43
257.277	257.934	80	43
257.28	258.539	58	31
257.28	258.539	65	31
257.934	258.01	82	34
258.011	258.084	80	36
258.085	258.158	79	39
258.161	258.235	80	41
258.235	258.385	82	42
258.386	258.54	84	38
258.542	258.802	82	43
258.805	259.071	80	39
259.072	259.344	79	44
259.345	259.61	77	44
259.613	259.877	75	46
259.88	260.146	74	44
260.146	260.422	72	44
260.426	260.737	70	44
260.737	261.531	70	46
260.741	262.827	51	39
260.741	261.798	67	46
261.525	261.658	72	46
261.661	261.795	70	46
261.795	262.309	65	44
261.796	262.309	68	44
262.312	262.819	63	42
262.313	262.824	67	42
262.824	263.348	68	43
262.826	263.348	72	43
263.352	263.883	67	41
263.353	263.884	70	41
263.884	264.773	70	45
263.887	264.654	51	37
263.887	264.916	67	45
264.14	264.916	55	33
264.395	264.916	58	36
264.651	264.916	72	42
264.654	264.916	51	33
264.773	264.916	70	42
264.902	265.938	68	47
264.903	265.68	53	40
265.161	265.896	56	32
265.417	265.896	62	35
265.68	265.938	53	33
265.942	267.24	67	47
265.943	266.719	55	40
266.201	266.873	58	32
266.457	266.873	63	36
266.719	266.978	55	33
266.978	270.058	56	41
266.979	270.061	60	41
267.241	267.492	64	44
267.493	267.754	65	45
267.755	268.011	67	46
268.011	268.266	68	49
268.27	268.521	69	51
268.521	268.777	70	52
268.778	269.032	71	54
269.033	269.158	74	56
269.159	269.285	72	54
269.285	269.414	71	52
269.417	269.543	72	54
269.543	269.669	70	52
269.673	269.799	68	49
269.799	269.932	67	51
269.936	270.061	65	50
270.065	271.118	55	54
270.066	270.327	45	44
270.066	271.118	63	54
270.328	270.589	46	46
270.59	270.849	48	49
270.849	271.119	46	45
271.119	271.252	53	47
271.122	272.155	46	45
271.122	271.252	62	47
271.253	271.377	58	49
271.378	271.504	57	50
271.507	271.639	58	51
271.64	271.766	59	52
271.769	271.902	60	53
271.903	272.028	61	54
272.028	272.155	62	54
272.158	272.287	63	55
272.291	272.417	64	56
272.417	272.546	65	57
272.547	272.672	66	59
272.673	272.799	67	60
272.799	272.927	68	61
272.931	273.061	69	62
273.061	273.194	70	63
273.197	274.229	67	63
273.198	274.23	39	45
273.198	273.974	70	63
273.199	274.23	51	45
273.975	274.101	72	57
274.101	274.231	70	53
274.233	274.356	68	55
274.357	274.482	67	54
274.486	274.611	72	56
274.612	274.737	70	53
274.741	274.873	75	57
274.874	275.0	74	55
275.001	275.133	77	61
275.133	275.262	75	55
275.263	276.316	51	53
275.263	275.396	80	63
275.266	276.316	60	53
275.396	275.528	79	59
275.529	275.661	78	61
275.661	275.787	79	61
275.791	275.924	77	61
275.925	276.05	75	59
276.054	276.182	74	57
276.187	276.319	72	55
276.323	277.373	53	51
276.323	276.848	70	60
276.324	277.377	60	51
276.849	277.898	69	63
277.377	277.899	58	46
277.378	278.429	62	46
277.899	278.693	68	63
277.901	278.43	59	40
278.433	279.991	63	47
278.434	278.948	60	47
278.693	278.948	67	66
278.952	279.469	55	45
278.952	279.203	75	68
279.204	279.473	73	64
279.474	279.995	56	50
279.474	279.731	71	67
279.732	279.995	72	64
279.996	280.239	74	69
280.243	280.498	75	64
280.499	281.023	75	70
280.502	282.567	46	51
280.502	281.542	55	51
281.026	281.797	70	66
281.545	282.571	56	37
281.8	281.923	72	54
281.927	282.052	70	50
282.053	282.185	70	53
282.189	282.314	68	45
282.315	282.441	67	51
282.444	282.574	65	45
282.574	284.044	63	46
282.575	282.837	51	30
282.837	283.359	55	26
283.1	284.044	58	27
283.359	283.887	55	27
283.628	284.044	51	30
283.887	284.156	55	27
284.156	284.67	67	46
284.157	284.67	70	46
284.159	285.181	58	29
284.411	284.923	55	27
284.67	285.721	51	33
284.67	285.181	67	50
284.67	285.181	70	50
284.923	285.443	55	27
285.181	285.721	58	29
285.181	285.721	67	46
285.181	285.721	70	46
285.443	285.721	55	27
285.717	287.312	68	54
285.72	286.244	75	54
285.721	285.976	51	36
285.977	286.245	53	27
286.245	287.312	74	46
286.246	287.306	56	30
286.504	287.035	53	27
286.773	287.312	51	32
287.035	287.312	53	27
287.305	287.764	82	50
287.306	287.764	56	27
287.551	287.809	80	47
287.553	287.809	53	26
287.812	288.838	79	52
287.815	288.835	51	32
288.065	288.575	53	27
288.065	288.834	77	47
288.317	288.838	75	49
288.32	288.838	56	27
288.573	288.838	74	45
288.575	288.838	53	27
288.834	288.911	77	54
288.835	289.097	51	33
288.915	289.095	75	52
289.01	289.097	77	54
289.095	289.615	75	52
289.097	289.356	55	26
289.356	289.616	58	27
289.618	289.745	74	49
289.619	289.877	55	26
289.745	289.878	72	45
289.878	290.398	70	50
289.881	290.136	51	31
290.137	290.399	55	26
290.402	290.914	67	49
290.403	291.429	58	27
290.403	290.914	70	49
290.655	291.166	55	26
290.914	291.425	67	53
290.914	291.425	70	53
290.917	291.95	51	33
291.166	291.684	55	27
291.425	291.951	67	49
291.425	291.951	70	49
291.429	291.951	58	30
291.684	291.951	55	27
291.946	292.464	68	62
291.95	292.205	51	36
291.95	292.205	75	62
292.208	292.467	74	55
292.209	292.468	53	25
292.471	293.517	84	60
292.472	292.726	56	27
292.727	292.989	53	24
292.989	293.248	51	29
293.252	293.518	53	23
293.518	293.64	82	50
293.521	293.766	56	27
293.64	293.769	80	49
293.769	293.896	84	52
293.77	294.021	53	23
293.896	294.022	80	49
294.025	294.147	79	51
294.026	294.27	51	30
294.151	294.274	77	49
294.274	294.399	80	51
294.277	294.526	53	26
294.4	294.529	77	49
294.53	294.655	75	51
294.533	294.784	56	26
294.656	294.785	74	49
294.785	294.911	77	52
294.786	295.029	53	25
294.911	295.034	74	49
295.036	295.159	75	54
295.037	296.051	51	27
295.037	296.056	55	27
295.159	295.289	77	52
295.289	295.414	75	52
295.415	295.544	74	52
295.544	295.624	75	50
295.625	295.712	76	47
295.713	295.793	77	50
295.793	295.922	78	53
295.922	296.056	79	54
296.058	296.559	70	50
296.559	297.105	67	45
296.563	297.106	55	32
296.563	297.106	70	45
297.109	297.668	65	47
297.11	297.669	68	47
297.112	297.672	56	34
297.673	298.267	63	51
297.673	298.268	67	51
297.674	298.268	57	35
298.27	299.345	63	58
298.271	299.628	58	37
298.271	298.526	70	58
298.53	298.792	69	49
298.796	299.069	70	53
299.069	299.346	67	42
299.346	300.427	62	38
299.348	300.427	65	38
299.629	299.898	59	41
299.899	300.157	60	45
300.161	300.428	58	43
300.43	300.686	58	45
300.689	300.951	56	44
300.955	301.214	55	45
301.217	301.483	53	45
301.347	301.484	70	67
301.484	303.065	82	73
301.487	303.048	51	53
302.009	303.048	55	45
302.538	303.069	58	47
303.069	303.608	80	70
303.07	303.608	63	45
303.196	303.608	79	66
303.328	303.608	77	70
303.462	303.608	75	64
303.592	304.129	68	51
303.592	304.129	74	74
304.12	304.651	67	47
304.12	304.651	75	72
304.648	305.205	74	67
304.649	305.205	77	67
304.651	305.205	65	51
304.651	305.205	68	51
305.201	305.737	80	69
305.202	305.788	75	69
305.204	305.788	67	47
305.205	305.788	63	47
305.33	305.596	79	65
305.466	305.737	77	66
305.596	305.788	79	65
305.737	306.254	77	70
305.737	306.254	80	70
305.738	306.255	62	47
305.74	306.258	65	47
306.258	306.8	70	57
306.801	307.346	70	59
307.347	307.892	70	59
307.892	309.499	80	72
308.417	309.499	58	45
308.949	309.499	62	45
309.472	309.603	82	69
309.474	310.037	65	45
309.604	310.037	80	65
309.738	310.037	79	69
309.873	310.037	77	64
310.0	310.583	75	73
310.002	310.583	67	50
310.528	311.061	74	70
310.532	311.061	68	45
310.532	311.647	70	45
310.532	311.061	77	70
311.057	311.647	75	71
311.06	311.647	67	51
311.06	311.647	79	71
311.61	312.145	82	67
311.613	312.149	65	45
311.613	312.149	68	45
311.613	312.149	77	67
311.739	312.009	80	63
311.875	312.145	79	67
312.009	312.149	80	64
312.145	312.533	79	72
312.145	312.533	82	72
312.149	312.673	63	50
312.149	312.677	67	50
312.677	313.219	39	54
312.678	313.22	51	54
313.22	313.766	39	56
313.222	313.766	51	56
313.767	314.311	39	54
313.769	314.311	51	54
314.312	315.627	73	83
314.839	315.365	63	47
314.84	315.368	55	47
315.372	315.89	55	49
315.372	315.891	63	49
315.631	315.697	75	62
315.701	315.763	73	58
315.764	315.826	72	62
315.827	315.893	73	59
315.894	316.425	55	48
315.894	316.155	75	67
315.897	316.426	63	48
316.156	316.426	77	67
316.427	316.685	75	67
316.429	316.954	55	51
316.429	316.954	63	51
316.685	316.955	73	60
316.955	317.223	72	67
316.957	317.514	55	45
316.957	317.515	63	45
317.227	317.517	71	61
317.518	318.858	71	70
318.049	318.592	55	47
318.05	319.124	63	47
318.592	319.125	56	50
318.859	319.127	72	67
319.127	319.382	75	69
319.128	319.646	56	55
319.128	319.645	63	55
319.387	319.649	74	69
319.649	320.167	56	55
319.649	319.901	77	69
319.65	320.17	63	55
319.904	320.171	75	64
320.171	320.426	74	68
320.174	320.684	56	50
320.174	320.685	63	50
320.427	320.685	72	61
320.688	320.895	70	59
320.689	321.189	55	53
320.689	321.192	63	53
320.853	321.07	71	60
321.02	321.238	72	62
321.192	321.406	73	66
321.193	321.7	56	48
321.196	321.7	63	48
321.363	321.574	74	68
321.532	321.701	75	69
321.704	321.829	75	60
321.707	322.222	46	50
321.708	322.225	55	50
321.829	322.75	63	73
322.225	322.75	46	46
322.225	322.753	55	46
322.753	323.019	67	59
322.757	323.832	62	59
322.758	323.288	46	39
322.758	323.292	56	39
323.02	323.295	65	64
323.296	323.835	46	39
323.296	323.552	63	64
323.297	323.835	56	39
323.555	323.835	65	59
323.836	324.898	63	55
323.839	324.101	51	45
323.839	324.37	55	45
324.101	324.826	51	50
324.37	324.826	55	54
324.634	324.899	58	57
324.902	325.161	56	63
325.162	325.428	58	56
325.431	325.949	63	75
325.431	325.952	70	75
325.432	325.875	55	63
325.69	325.953	58	56
325.953	327.023	65	80
325.956	326.355	53	63
325.956	326.485	70	59
326.212	326.747	58	56
326.481	327.023	67	75
326.485	327.023	51	63
326.485	327.021	70	75
326.747	327.023	58	56
327.021	327.803	70	80
327.023	327.509	50	63
327.023	328.584	68	63
327.28	327.541	53	54
327.542	327.968	56	56
327.667	327.968	72	76
327.803	327.968	70	70
327.804	328.063	55	53
327.931	328.067	69	69
328.067	328.325	70	79
328.068	328.325	53	61
328.326	328.584	51	54
328.588	329.155	62	74
328.588	329.155	70	74
328.591	329.155	50	56
328.855	329.155	48	54
329.124	329.728	46	56
329.124	329.728	63	76
329.124	329.728	72	76
329.383	329.728	48	54
329.645	330.171	65	72
329.646	330.171	44	56
329.646	330.171	74	72
329.907	330.171	46	52
330.167	331.07	75	81
330.17	331.713	63	81
330.171	331.111	43	61
330.426	330.947	46	47
330.684	331.111	51	52
330.81	331.111	77	70
330.945	331.111	79	72
330.947	331.199	46	47
331.07	331.2	75	66
331.2	331.454	55	52
331.2	331.451	70	69
331.714	332.253	67	52
331.717	332.257	51	43
331.717	332.26	55	43
331.717	332.256	70	52
332.26	332.795	65	54
332.261	332.796	53	43
332.261	332.796	68	54
332.263	332.798	56	43
332.798	333.372	63	52
332.799	333.377	55	43
332.799	333.376	67	52
332.802	333.379	58	43
333.38	334.415	56	46
333.38	334.416	60	46
333.38	334.023	65	57
334.024	334.153	67	50
334.153	334.286	68	52
334.286	334.416	65	50
334.419	334.674	72	56
334.936	335.466	60	46
334.937	335.467	44	36
334.937	335.466	65	46
334.94	335.469	53	36
335.469	335.997	58	49
335.47	336.557	46	43
335.47	335.998	63	49
335.473	336.001	55	43
336.002	336.558	62	46
336.004	336.558	65	46
336.005	336.56	56	36
336.561	337.67	62	54
336.561	337.394	65	54
336.562	337.957	51	45
336.564	337.671	56	45
337.395	337.671	66	50
337.674	337.958	63	45
337.675	337.958	55	35
337.675	338.234	67	45
337.958	338.235	63	52
338.235	338.832	75	76
338.238	338.832	67	54
338.238	338.773	82	76
338.5	338.832	70	51
338.773	339.305	77	77
338.773	339.306	82	77
338.774	339.266	68	57
339.036	339.308	67	52
339.312	339.848	79	76
339.313	339.848	65	54
339.313	339.845	82	76
339.575	339.848	63	53
339.845	340.628	82	81
339.846	341.409	80	81
339.848	340.306	62	63
340.103	340.366	65	54
340.366	340.852	68	56
340.492	340.852	84	73
340.628	340.887	67	54
340.628	340.852	82	69
340.758	340.888	81	70
340.888	341.146	82	78
340.89	341.15	65	61
341.15	341.409	63	54
341.412	341.937	74	76
341.412	341.937	82	76
341.413	341.937	62	56
341.664	341.937	60	54
341.923	342.458	75	80
341.924	342.434	58	56
341.924	342.462	84	80
342.19	342.463	60	54
342.463	343.05	77	75
342.464	343.05	86	75
342.465	343.05	56	56
342.732	343.05	58	53
343.015	344.559	75	86
343.015	343.786	87	86
343.016	343.554	55	61
343.274	343.554	58	45
343.529	343.974	60	49
343.656	343.974	86	68
343.786	343.974	87	70
343.787	344.043	62	45
343.918	344.044	82	66
344.044	344.3	79	61
344.047	344.3	63	46
344.562	345.094	79	54
344.562	345.098	82	54
344.566	345.098	63	43
344.567	345.098	67	43
345.101	345.632	77	54
345.102	345.637	65	43
345.102	345.633	80	54
345.103	345.637	68	43
345.64	346.221	75	54
345.64	346.221	79	54
345.641	346.225	67	36
345.644	346.225	70	36
346.226	346.364	76	51
346.228	346.795	68	43
346.228	346.796	72	43
346.368	346.512	77	50
346.512	346.655	79	56
346.656	346.798	77	55
346.798	346.935	80	59
346.935	347.075	79	58
347.076	347.215	82	62
347.215	347.348	80	60
347.349	348.405	84	66
348.406	348.934	62	43
348.406	348.93	82	59
348.408	349.504	58	43
348.408	349.508	68	43
348.934	349.511	65	43
349.36	349.511	74	53
349.511	350.963	75	56
349.512	350.533	63	43
349.763	350.275	67	39
350.019	350.963	70	40
350.275	350.785	67	42
350.533	350.963	63	46
350.785	351.041	67	44
351.041	351.548	85	69
351.042	351.474	70	49
351.297	351.551	67	50
351.552	352.599	84	72
351.555	351.915	68	58
351.807	352.599	65	55
352.07	352.599	86	75
352.071	352.599	70	56
352.329	352.599	68	58
352.598	353.452	89	81
352.599	353.132	67	62
352.861	353.452	70	56
353.131	353.659	87	78
353.132	353.452	67	53
353.389	353.659	65	55
353.66	353.924	63	70
353.925	354.19	61	61
354.191	354.757	73	72
354.194	354.757	58	64
354.457	354.757	55	61
354.741	355.195	56	70
354.741	355.29	72	74
355.013	355.29	53	64
355.291	355.949	68	69
355.293	355.951	58	70
355.293	355.951	74	69
355.619	355.951	46	59
355.948	357.309	77	59
355.949	357.309	68	59
355.951	357.989	51	50
357.31	357.989	67	52
357.313	357.989	75	52
357.992	358.615	62	47
357.992	358.615	65	47
357.993	358.618	56	42
358.618	359.196	63	52
358.619	359.197	55	45
358.619	359.196	67	52
359.199	359.829	65	54
359.199	359.829	68	54
359.2	359.83	53	47
359.833	360.911	66	67
359.834	361.988	52	56
359.834	360.911	69	67
360.912	361.446	67	62
360.912	361.45	70	62
361.45	361.989	70	54
361.451	361.989	73	54
361.992	362.546	64	56
361.993	363.13	48	46
361.993	362.546	67	56
362.547	363.133	68	51
362.549	363.133	72	51
363.137	364.256	67	55
363.137	364.257	70	55
363.138	365.349	50	53
364.26	364.82	65	52
364.261	364.821	68	52
364.824	365.349	77	54
365.352	366.406	60	43
365.352	365.877	77	54
365.353	366.406	56	43
365.878	366.406	77	54
366.41	367.47	58	43
366.41	367.47	61	43
366.41	367.469	78	62
367.471	367.984	79	56
367.984	369.009	82	63
368.502	369.531	60	43
368.503	369.535	70	43
369.013	369.538	76	57
369.538	370.592	79	64
369.539	371.12	65	43
369.539	370.592	70	43
370.593	371.121	68	36
370.593	371.121	77	60
371.124	371.659	41	45
371.66	372.198	41	46
372.198	372.737	41	44
372.741	375.782	41	52
373.279	373.777	80	59
373.778	374.025	79	61
374.029	374.277	77	59
374.278	374.523	75	57
374.523	374.771	73	57
374.771	375.033	72	59
375.034	375.288	73	62
375.289	375.538	77	66
375.538	375.782	73	60
375.783	378.971	62	57
375.783	378.974	68	57
375.786	377.343	41	42
375.786	376.825	72	57
376.826	378.975	71	47
377.343	377.875	41	45
377.879	378.404	41	46
378.404	378.978	41	45
378.978	382.071	42	54
379.506	380.535	63	53
379.507	380.025	72	53
380.025	380.28	71	56
380.281	380.536	72	58
380.536	381.543	63	50
380.539	380.783	74	59
380.784	381.04	72	56
381.04	381.295	71	56
381.295	381.547	72	59
381.547	383.125	63	61
381.548	381.799	75	61
381.803	382.072	74	60
382.076	383.654	43	49
382.076	383.126	71	66
383.126	385.208	63	60
383.127	385.208	72	60
383.654	384.168	43	48
384.169	384.689	43	50
384.69	385.212	43	47
385.212	387.251	44	55
385.712	386.23	63	62
385.713	386.23	72	62
386.234	386.741	63	64
386.234	386.742	72	64
386.742	387.252	63	67
386.744	387.252	72	67
387.255	387.745	63	70
387.256	388.277	45	62
387.256	387.746	72	70
387.746	388.281	63	72
387.749	388.282	72	72
388.282	388.935	73	74
388.284	389.848	63	74
388.285	389.327	46	62
388.936	389.069	72	62
389.069	389.194	70	57
389.198	389.328	68	54
389.331	389.853	67	66
389.334	390.364	49	48
389.855	390.364	79	67
390.365	390.871	80	67
390.367	391.403	48	54
390.874	391.655	72	65
391.403	392.445	49	44
391.658	391.9	70	56
391.901	392.145	73	60
392.146	392.446	77	55
392.449	394.025	68	63
392.45	393.478	51	43
392.45	393.483	60	43
393.483	394.606	51	36
393.484	394.606	61	36
394.028	394.609	67	55
394.029	394.315	72	55
394.319	394.609	70	55
394.613	394.861	56	33
394.613	396.152	68	46
394.864	395.379	60	26
395.124	396.153	63	27
395.379	395.89	60	25
395.635	396.191	56	30
395.89	396.191	60	26
396.152	396.665	68	46
396.152	396.666	72	46
396.153	397.178	63	29
396.409	396.916	60	26
396.665	397.176	68	49
396.666	397.176	72	49
396.667	397.707	56	33
396.916	397.44	60	27
397.176	397.707	68	46
397.176	397.706	72	46
397.178	397.707	63	29
397.44	397.707	60	27
397.704	399.25	70	58
397.706	399.25	72	58
397.707	397.969	55	36
397.707	398.228	77	58
397.969	398.228	58	26
398.229	399.25	76	46
398.232	399.24	60	27
398.485	398.998	58	26
398.74	399.24	55	32
398.998	399.254	58	26
399.254	399.765	70	47
399.257	400.279	60	27
399.257	399.766	72	47
399.506	400.017	58	25
399.765	400.275	70	51
399.766	400.79	55	32
399.766	400.276	72	51
400.017	400.528	58	27
400.275	400.79	70	47
400.276	400.788	72	47
400.279	400.79	60	27
400.528	400.79	58	25
400.787	402.333	68	59
400.787	401.311	79	59
400.788	402.334	72	59
400.79	401.049	53	36
401.053	401.312	56	27
401.315	402.334	77	51
401.316	402.263	60	30
401.568	402.078	56	27
401.823	402.263	53	32
402.078	402.337	56	26
402.337	402.859	68	51
402.338	402.859	72	51
402.34	403.384	60	27
402.596	403.118	56	26
402.859	403.381	68	54
402.859	403.384	72	54
402.862	403.923	53	32
403.118	403.646	56	27
403.381	403.922	68	49
403.384	403.923	60	29
403.384	403.922	72	49
403.646	403.923	56	27
403.921	404.441	80	64
403.922	405.484	68	64
403.922	405.484	72	64
403.923	404.178	51	36
404.179	404.441	54	30
404.442	405.501	78	60
404.444	405.487	56	32
404.703	405.218	54	29
404.963	405.501	51	36
405.218	405.501	54	29
405.484	405.988	68	50
405.484	405.988	72	50
405.487	406.496	56	32
405.736	406.241	54	29
405.988	406.492	68	55
405.988	406.495	72	55
405.989	407.007	51	35
406.241	406.744	54	29
406.492	407.006	68	51
406.495	407.007	72	51
406.496	407.007	56	31
406.744	407.007	54	27
407.003	407.587	78	61
407.006	407.587	49	40
407.006	408.553	68	61
407.006	409.54	73	61
407.262	407.587	52	34
407.528	408.557	76	56
407.531	408.557	56	36
407.784	408.294	52	33
408.042	409.54	49	40
408.294	408.806	52	33
408.553	409.065	68	59
408.557	409.54	56	36
408.557	409.066	76	59
408.806	409.54	52	33
409.065	409.579	68	64
409.066	409.579	76	64
409.067	409.54	47	39
409.317	409.58	51	34
409.58	410.121	68	59
409.582	410.125	56	36
409.582	410.122	75	59
409.852	410.125	51	33
410.121	411.703	68	65
410.122	411.704	46	36
410.122	411.06	75	65
410.125	411.704	53	36
410.93	411.189	77	52
411.06	411.189	75	49
411.186	411.706	74	52
411.707	412.238	46	29
411.707	412.236	62	45
411.707	412.236	68	45
411.71	412.239	53	29
412.239	412.774	62	47
412.243	412.779	46	32
412.243	412.778	68	47
412.244	412.781	53	32
412.781	413.309	62	45
412.782	413.31	46	29
412.782	413.31	68	45
412.785	413.313	53	29
413.314	414.384	62	47
413.316	414.385	68	47
413.317	414.385	46	32
413.317	414.388	53	32
414.916	415.47	74	39
414.919	415.47	80	39
414.92	415.473	65	27
414.923	415.473	58	27
415.473	416.026	74	39
415.477	416.029	65	27
415.477	416.029	80	39
415.478	416.03	58	27
416.033	416.606	74	39
416.033	416.607	80	39
416.034	416.611	58	27
416.034	416.61	65	27
416.611	417.88	74	43
416.614	417.268	80	43
416.615	417.881	58	31
416.615	417.881	65	31
417.272	417.345	82	34
417.345	417.419	80	36
417.419	417.495	79	39
417.496	417.576	80	41
417.58	417.72	82	40
417.723	417.881	84	37
417.884	418.146	82	43
418.147	418.413	80	40
418.413	418.679	79	44
418.679	418.948	77	44
418.948	419.214	75	46
419.215	419.483	74	44
419.487	419.763	72	44
419.768	420.078	70	44
420.079	420.87	70	46
420.082	421.128	67	46
420.083	422.151	51	39
420.866	420.995	72	46
420.996	421.121	70	46
421.126	421.639	65	44
421.126	421.64	68	44
421.644	422.144	63	42
421.644	422.147	67	42
422.148	422.672	68	43
422.151	422.675	72	43
422.676	423.215	67	41
422.676	423.215	70	41
423.216	424.098	70	45
423.218	423.977	51	37
423.218	424.241	67	45
423.464	424.241	55	33
423.719	424.241	58	36
423.975	424.241	72	42
423.977	424.241	51	33
424.098	424.241	70	42
424.227	425.262	68	47
424.23	425.003	53	40
424.485	425.221	56	32
424.742	425.221	62	35
425.003	425.263	53	33
425.265	426.558	67	47
425.266	426.044	55	40
425.525	426.197	58	32
425.781	426.197	63	36
426.044	426.301	55	33
426.302	429.385	56	41
426.302	429.385	60	41
426.558	426.82	64	44
426.82	427.079	65	45
427.079	427.334	67	46
427.338	427.589	68	49
427.59	427.849	69	51
427.849	428.101	70	52
428.101	428.356	71	54
428.36	428.485	74	56
428.486	428.612	72	54
428.613	428.734	71	52
428.734	428.867	72	54
428.868	428.993	70	52
428.997	429.123	68	49
429.123	429.256	67	51
429.257	429.386	65	50
429.389	430.442	55	54
429.389	430.443	63	54
429.39	429.651	45	44
429.651	429.91	46	46
429.911	430.172	48	49
430.173	430.443	46	45
430.445	430.568	53	47
430.446	431.478	46	45
430.446	430.569	62	47
430.572	430.702	58	49
430.702	430.834	57	50
430.835	430.964	58	51
430.964	431.096	59	52
431.097	431.223	60	53
431.224	431.353	61	54
431.353	431.479	62	54
431.481	431.611	63	55
431.615	431.74	64	56
431.741	431.87	65	57
431.871	431.997	66	59
431.997	432.122	67	60
432.123	432.252	68	61
432.252	432.385	69	62
432.385	432.518	70	63
432.521	433.554	67	63
432.522	433.555	39	45
432.522	433.299	70	63
432.525	433.555	51	45
433.299	433.424	72	57
433.425	433.555	70	53
433.557	433.68	68	55
433.68	433.806	67	54
433.809	433.936	72	56
433.936	434.061	70	53
434.065	434.198	75	57
434.199	434.323	74	55
434.327	434.457	77	61
434.458	434.587	75	55
434.587	434.719	80	63
434.588	435.643	51	53
434.59	435.644	60	53
434.72	434.852	79	59
434.852	434.982	78	61
434.982	435.111	79	61
435.115	435.248	77	61
435.248	435.38	75	59
435.381	435.51	74	57
435.51	435.644	72	55
435.645	436.172	70	60
435.647	436.7	53	51
435.647	436.701	60	51
436.173	437.226	69	63
436.701	437.229	58	46
436.702	437.754	62	46
437.229	438.016	68	63
437.233	437.757	59	40
437.757	439.318	63	47
437.758	438.271	60	47
438.017	438.272	67	66
438.272	438.528	75	68
438.275	438.794	55	45
438.528	438.797	73	64
438.797	439.056	71	67
438.798	439.319	56	50
439.057	439.319	72	64
439.319	439.566	74	69
439.567	439.823	75	64
439.823	440.347	75	70
439.826	441.894	46	51
439.826	440.865	55	51
440.351	441.125	70	66
440.869	441.895	56	37
441.125	441.25	72	54
441.251	441.384	70	50
441.384	441.509	70	53
441.513	441.639	68	45
441.64	441.765	67	51
441.769	441.898	65	45
441.899	442.16	51	30
441.899	443.368	63	46
442.161	442.689	55	26
442.423	443.368	58	27
442.689	443.215	55	27
442.952	443.368	51	30
443.215	443.479	55	27
443.48	443.995	67	46
443.48	443.995	70	46
443.483	444.506	58	29
443.736	444.246	55	27
443.995	444.503	67	50
443.995	444.505	70	50
443.996	445.045	51	33
444.246	444.768	55	27
444.503	445.046	67	46
444.505	445.046	70	46
444.506	445.046	58	29
444.768	445.046	55	27
445.045	445.3	51	36
445.045	446.637	68	54
445.045	445.569	75	54
445.3	445.57	53	27
445.57	446.637	74	46
445.573	446.623	56	30
445.833	446.361	53	27
446.099	446.637	51	32
446.361	446.637	53	27
446.623	447.088	56	27
446.623	447.088	82	50
446.876	447.137	80	47
446.878	447.138	53	26
447.138	448.156	51	32
447.138	448.157	79	52
447.394	448.153	77	47
447.397	447.905	53	27
447.642	448.157	75	49
447.645	448.157	56	27
447.905	448.157	53	27
447.905	448.157	74	45
448.153	448.24	77	54
448.156	448.418	51	33
448.24	448.416	75	52
448.328	448.418	77	54
448.416	448.674	55	26
448.416	448.933	75	52
448.675	448.937	58	27
448.94	449.192	55	26
448.94	449.062	74	49
449.063	449.192	72	45
449.193	449.713	70	50
449.196	449.451	51	31
449.454	449.714	55	26
449.717	450.228	67	49
449.718	450.74	58	27
449.718	450.228	70	49
449.97	450.48	55	26
450.228	450.739	67	53
450.228	450.74	70	53
450.232	451.265	51	33
450.48	450.999	55	27
450.739	451.265	67	49
450.74	451.265	58	30
450.74	451.265	70	49
450.999	451.265	55	27
451.261	451.768	68	62
451.261	451.513	75	62
451.265	451.513	51	36
451.514	451.768	74	55
451.516	451.772	53	25
451.772	452.801	84	60
451.775	452.03	56	27
452.031	452.286	53	24
452.287	452.545	51	29
452.549	452.801	53	23
452.804	453.06	56	27
452.804	452.93	82	50
452.931	453.06	80	49
453.061	453.311	53	23
453.061	453.185	84	52
453.186	453.315	80	49
453.315	453.441	79	51
453.316	453.563	51	30
453.441	453.564	77	49
453.564	453.69	80	51
453.565	453.816	53	26
453.69	453.818	77	49
453.819	453.945	75	51
453.823	454.075	56	26
453.946	454.075	74	49
454.076	454.193	77	52
454.078	454.323	53	25
454.194	454.324	74	49
454.324	454.449	75	54
454.326	455.338	51	27
454.326	455.339	55	27
454.453	454.578	77	52
454.579	454.705	75	52
454.708	454.834	74	52
454.835	454.914	75	50
454.915	455.002	76	47
455.003	455.083	77	50
455.086	455.208	78	53
455.213	455.339	79	54
455.342	455.849	70	50
455.85	456.394	67	45
455.852	456.399	70	45
455.853	456.399	55	32
456.399	456.966	65	47
456.4	456.967	56	34
456.4	456.966	68	47
456.967	457.557	63	51
456.969	457.558	57	35
456.969	457.558	67	51
457.558	458.635	63	58
457.56	457.816	70	58
457.561	458.919	58	37
457.817	458.085	69	49
458.086	458.351	70	53
458.352	458.639	67	42
458.639	459.714	62	38
458.64	459.716	65	38
458.922	459.184	59	41
459.188	459.447	60	45
459.45	459.717	58	43
459.721	459.976	58	45
459.976	460.245	56	44
460.245	460.504	55	45
460.504	460.759	53	45
460.634	460.76	70	67
460.763	462.345	82	73
460.764	462.327	51	53
461.288	462.327	55	45
461.817	462.346	58	47
462.348	462.888	80	70
462.349	462.888	63	45
462.478	462.888	79	66
462.608	462.888	77	70
462.741	462.888	75	64
462.877	463.409	68	51
462.877	463.409	74	74
463.403	463.931	75	72
463.406	463.931	67	47
463.927	464.48	74	67
463.928	464.48	68	51
463.928	464.48	77	67
463.931	464.48	65	51
464.474	465.004	80	69
464.477	465.058	63	47
464.477	465.058	67	47
464.477	465.058	75	69
464.603	464.866	79	65
464.732	465.002	77	66
464.866	465.058	79	65
465.002	465.527	77	70
465.004	465.527	80	70
465.006	465.527	62	47
465.006	465.531	65	47
465.531	466.066	70	57
466.066	466.611	70	59
466.612	467.158	70	59
467.158	468.765	80	72
467.686	468.765	58	45
468.215	468.765	62	45
468.745	468.869	82	69
468.747	469.307	65	45
468.87	469.307	80	65
469.006	469.307	79	69
469.139	469.307	77	64
469.273	469.849	75	73
469.275	469.849	67	50
469.797	470.903	70	45
469.797	470.329	74	70
469.797	470.329	77	70
469.8	470.329	68	45
470.325	470.903	75	71
470.325	470.903	79	71
470.326	470.903	67	51
470.865	471.4	82	67
470.868	471.404	65	45
470.868	471.404	77	67
470.869	471.404	68	45
470.994	471.263	80	63
471.13	471.4	79	67
471.263	471.404	80	64
471.4	471.788	79	72
471.4	471.788	82	72
471.401	471.935	63	50
471.404	471.935	67	50
471.939	472.481	39	54
471.939	472.482	51	54
472.485	473.027	39	56
472.486	473.028	51	56
473.028	473.566	39	54
473.031	473.566	51	54
473.566	474.882	73	83
474.095	474.623	63	47
474.098	474.624	55	47
474.627	475.148	55	49
474.627	475.152	63	49
474.886	474.953	75	62
474.956	475.018	73	58
475.019	475.082	72	62
475.083	475.155	73	59
475.155	475.411	75	67
475.156	475.68	55	48
475.156	475.681	63	48
475.414	475.681	77	67
475.682	475.94	75	67
475.684	476.212	55	51
475.684	476.215	63	51
475.94	476.215	73	60
476.216	476.477	72	67
476.219	476.768	55	45
476.219	476.771	63	45
476.481	476.771	71	61
476.775	478.112	71	70
477.303	477.843	55	47
477.306	478.378	63	47
477.843	478.381	56	50
478.112	478.381	72	67
478.382	478.9	63	55
478.382	478.64	75	69
478.385	478.903	56	55
478.641	478.903	74	69
478.903	479.155	77	69
478.906	479.424	56	55
478.906	479.424	63	55
479.155	479.425	75	64
479.428	479.949	56	50
479.428	479.683	74	68
479.429	479.953	63	50
479.687	479.954	72	61
479.956	480.159	70	59
479.957	480.454	55	53
479.957	480.457	63	53
480.117	480.334	71	60
480.289	480.502	72	62
480.457	480.67	73	66
480.461	480.968	56	48
480.461	480.968	63	48
480.625	480.838	74	68
480.8	480.969	75	69
480.971	481.094	75	60
480.972	481.492	46	50
480.972	481.497	55	50
481.094	482.018	63	73
481.497	482.018	46	46
481.499	482.022	55	46
482.022	482.273	67	59
482.023	482.546	46	39
482.023	483.078	62	59
482.025	482.547	56	39
482.273	482.55	65	64
482.55	482.805	63	64
482.551	483.079	46	39
482.551	483.081	56	39
482.808	483.082	65	59
483.085	484.149	63	55
483.086	483.355	51	45
483.086	483.621	55	45
483.355	484.072	51	50
483.621	484.072	55	54
483.887	484.15	58	57
484.15	484.415	56	63
484.416	484.677	58	56
484.678	485.199	63	75
484.679	485.122	55	63
484.679	485.2	70	75
484.941	485.2	58	56
485.203	486.274	65	80
485.204	485.606	53	63
485.204	485.739	70	59
485.469	486.001	58	56
485.735	486.274	67	75
485.739	486.274	51	63
485.739	486.271	70	75
486.001	486.274	58	56
486.271	486.767	50	63
486.271	487.835	68	63
486.271	487.052	70	80
486.529	486.788	53	54
486.789	487.219	56	56
486.925	487.219	72	76
487.052	487.219	70	70
487.054	487.313	55	53
487.18	487.314	69	69
487.314	487.573	70	79
487.315	487.573	53	61
487.574	487.836	51	54
487.836	488.402	62	74
487.838	488.402	50	56
487.838	488.402	70	74
488.102	488.402	48	54
488.374	488.982	63	76
488.375	488.982	46	56
488.375	488.982	72	76
488.63	488.982	48	54
488.899	489.425	65	72
488.903	489.425	44	56
488.903	489.425	74	72
489.158	489.425	46	52
489.424	490.307	75	81
489.425	490.348	43	61
489.425	490.953	63	81
489.677	490.184	46	47
489.939	490.348	51	52
490.061	490.348	77	70
490.184	490.439	46	47
490.184	490.348	79	72
490.307	490.442	75	66
490.442	490.698	70	69
490.446	490.699	55	52
490.954	491.492	67	52
490.954	491.493	70	52
490.955	491.493	51	43
490.957	491.496	55	43
491.496	492.031	65	54
491.496	492.031	68	54
491.5	492.032	53	43
491.5	492.035	56	43
492.035	492.612	63	52
492.036	492.613	67	52
492.038	492.613	55	43
492.038	492.616	58	43
492.616	493.263	65	57
492.617	493.648	56	46
492.619	493.652	60	46
493.264	493.397	67	50
493.397	493.522	68	52
493.523	493.653	65	50
493.655	493.911	72	56
494.166	494.702	60	46
494.167	494.702	65	46
494.17	494.703	44	36
494.171	494.706	53	36
494.706	495.237	58	49
494.707	495.238	63	49
494.709	495.79	46	43
494.709	495.238	55	43
495.238	495.795	62	46
495.241	495.797	56	36
495.241	495.795	65	46
495.798	497.19	51	45
495.798	496.914	62	54
495.798	496.634	65	54
495.801	496.915	56	45
496.634	496.915	66	50
496.917	497.194	63	45
496.918	497.195	55	35
496.918	497.47	67	45
497.197	497.471	63	52
497.471	498.069	75	76
497.474	498.01	82	76
497.475	498.069	67	54
497.741	498.069	70	51
498.009	498.545	77	77
498.01	498.503	68	57
498.01	498.545	82	77
498.272	498.546	67	52
498.549	499.085	79	76
498.549	499.081	82	76
498.55	499.085	65	54
498.814	499.085	63	53
499.081	499.865	82	81
499.084	500.645	80	81
499.085	499.543	62	63
499.34	499.601	65	54
499.602	500.088	68	56
499.736	500.088	84	73
499.865	500.088	82	69
499.866	500.123	67	54
499.998	500.124	81	70
500.127	500.387	65	61
500.127	500.382	82	78
500.387	500.648	63	54
500.649	501.174	74	76
500.649	501.174	82	76
500.65	501.174	62	56
500.904	501.174	60	54
501.16	501.695	75	80
501.163	501.67	58	56
501.163	501.698	84	80
501.432	501.698	60	54
501.699	502.29	77	75
501.702	502.29	86	75
501.703	502.29	56	56
501.978	502.29	58	53
502.258	503.015	87	86
502.259	502.794	55	61
502.259	503.792	75	86
502.511	502.794	58	45
502.766	503.211	60	49
502.892	503.211	86	68
503.015	503.211	87	70
503.018	503.28	62	45
503.148	503.285	82	66
503.285	503.536	79	61
503.287	503.536	63	46
503.792	504.33	79	54
503.795	504.335	63	43
503.795	504.334	82	54
503.796	504.335	67	43
504.337	504.873	77	54
504.338	504.874	65	43
504.338	504.874	80	54
504.341	504.876	68	43
504.877	505.458	75	54
504.877	505.458	79	54
504.878	505.46	67	36
504.881	505.461	70	36
505.461	505.601	76	51
505.465	506.032	68	43
505.465	506.032	72	43
505.602	505.748	77	50
505.748	505.888	79	56
505.889	506.035	77	55
506.035	506.171	80	59
506.172	506.311	79	58
506.311	506.448	82	62
506.452	506.584	80	60
506.585	507.638	84	66
507.642	508.17	82	59
507.645	508.744	58	43
507.645	508.171	62	43
507.646	508.745	68	43
508.171	508.745	65	43
508.597	508.747	74	53
508.748	509.767	63	43
508.748	510.2	75	56
509.0	509.511	67	39
509.255	510.2	70	40
509.511	510.022	67	42
509.767	510.2	63	46
510.022	510.277	67	44
510.277	510.788	85	69
510.278	510.711	70	49
510.533	510.789	67	50
510.789	511.836	84	72
510.791	511.152	68	58
511.044	511.836	65	55
511.306	511.836	86	75
511.307	511.836	70	56
511.565	511.836	68	58
511.835	512.364	67	62
511.835	512.692	89	81
512.094	512.692	70	56
512.36	512.895	87	78
512.364	512.692	67	53
512.63	512.895	65	55
512.896	513.161	63	70
513.161	513.43	61	61
513.431	513.997	58	64
513.431	513.997	73	72
513.697	513.997	55	61
513.973	514.533	72	74
513.974	514.432	56	70
514.25	514.533	53	64
514.534	515.185	68	69
514.537	515.223	58	70
514.537	515.223	74	69
514.855	515.223	46	59
515.184	516.486	77	54
515.185	516.49	68	54
515.188	517.144	51	46
516.49	517.144	67	42
516.493	517.145	75	42
517.148	517.84	62	41
517.148	517.84	65	41
517.767	518.376	63	46
517.767	518.376	67	46
518.377	519.076	65	45
518.377	519.076	68	45
518.38	519.08	46	36
519.073	521.631	62	34
519.076	521.631	65	37
519.076	521.632	68	37
519.077	522.653	39	27
519.08	522.653	51	31
521.635	522.653	63	36
521.635	522.653	67	36
