# onset,offset,note,velocity
0.500648	0.578365	39.000000	45.000000
0.655438	0.733155	46.000000	41.000000
0.810873	0.888590	39.000000	41.000000
0.966307	1.044024	34.000000	41.000000
1.121741	1.198465	39.000000	45.000000
1.275190	1.351915	46.000000	41.000000
1.428639	1.505364	39.000000	41.000000
1.582089	1.660208	63.000000	45.000000
1.582089	1.660208	34.000000	41.000000
1.660208	1.738099	65.000000	45.000000
1.738099	1.815615	66.000000	49.000000
1.738099	1.815615	70.000000	49.000000
1.738099	1.815615	39.000000	45.000000
1.815615	1.893131	65.000000	45.000000
1.893131	1.970647	63.000000	45.000000
1.893131	1.970647	46.000000	42.000000
1.970647	2.048163	65.000000	45.000000
2.048163	2.124311	66.000000	47.000000
2.048163	2.124311	70.000000	47.000000
2.048163	2.124311	39.000000	42.000000
2.124311	2.200459	65.000000	45.000000
2.200459	2.278793	63.000000	45.000000
2.200459	2.278793	34.000000	42.000000
2.278793	2.357127	65.000000	45.000000
2.357127	2.434643	70.000000	49.000000
2.357127	2.434643	66.000000	49.000000
2.357127	2.434643	39.000000	45.000000
2.512159	2.589674	66.000000	45.000000
2.512159	2.589674	63.000000	45.000000
2.512159	2.589674	46.000000	42.000000
2.667190	2.746557	66.000000	46.000000
2.667190	2.746557	63.000000	46.000000
2.667190	2.746557	39.000000	42.000000
2.825924	2.904043	66.000000	45.000000
2.825924	2.904043	70.000000	45.000000
2.825924	2.904043	34.000000	42.000000
2.982162	3.059477	65.000000	50.000000
2.982162	3.059477	69.000000	50.000000
2.982162	3.059477	39.000000	45.000000
3.136792	3.214107	60.000000	45.000000
3.136792	3.214107	65.000000	45.000000
3.136792	3.214107	46.000000	42.000000
3.291421	3.370573	65.000000	46.000000
3.291421	3.370573	60.000000	46.000000
3.291421	3.370573	39.000000	42.000000
3.449725	3.527644	65.000000	45.000000
3.449725	3.527644	69.000000	45.000000
3.449725	3.527644	34.000000	42.000000
3.605562	4.064783	69.000000	54.000000
3.605562	4.064783	65.000000	54.000000
3.605562	3.682099	39.000000	45.000000
3.758636	3.835172	46.000000	41.000000
3.911709	3.988246	39.000000	41.000000
4.064783	4.143519	68.000000	46.000000
4.064783	4.143519	34.000000	41.000000
4.143519	4.221800	70.000000	49.000000
4.221800	4.299316	71.000000	54.000000
4.221800	4.299316	75.000000	54.000000
4.221800	4.299316	39.000000	49.000000
4.299316	4.376832	70.000000	51.000000
4.376832	4.454347	68.000000	51.000000
4.376832	4.454347	46.000000	45.000000
4.454347	4.531863	70.000000	51.000000
4.531863	4.608199	75.000000	54.000000
4.531863	4.608199	71.000000	54.000000
4.531863	4.608199	39.000000	45.000000
4.608199	4.684535	70.000000	50.000000
4.684535	4.763070	68.000000	50.000000
4.684535	4.763070	34.000000	45.000000
4.763070	4.841605	70.000000	50.000000
4.841605	4.919322	71.000000	54.000000
4.841605	4.919322	75.000000	54.000000
4.841605	4.919322	39.000000	49.000000
4.997039	5.074756	71.000000	50.000000
4.997039	5.074756	68.000000	50.000000
4.997039	5.074756	46.000000	45.000000
5.152473	5.232256	68.000000	50.000000
5.152473	5.232256	71.000000	50.000000
5.152473	5.232256	39.000000	45.000000
5.312038	5.390372	75.000000	50.000000
5.312038	5.390372	71.000000	50.000000
5.312038	5.390372	34.000000	45.000000
5.468706	5.546222	70.000000	54.000000
5.468706	5.546222	74.000000	54.000000
5.468706	5.546222	39.000000	49.000000
5.623738	5.701254	70.000000	50.000000
5.623738	5.701254	65.000000	50.000000
5.623738	5.701254	46.000000	45.000000
5.778769	5.858136	70.000000	50.000000
5.778769	5.858136	65.000000	50.000000
5.778769	5.858136	39.000000	45.000000
5.937503	6.015622	74.000000	50.000000
5.937503	6.015622	70.000000	50.000000
5.937503	6.015622	34.000000	45.000000
6.093741	6.321582	70.000000	58.000000
6.093741	6.321582	74.000000	58.000000
6.093741	6.169688	39.000000	49.000000
6.245635	6.321582	46.000000	45.000000
6.397529	6.474843	39.000000	45.000000
6.552158	6.631310	78.000000	74.000000
6.631310	6.710462	80.000000	74.000000
6.710462	6.786999	82.000000	86.000000
6.710462	6.786999	85.000000	86.000000
6.710462	7.174927	66.000000	67.000000
6.710462	7.174927	73.000000	67.000000
6.786999	6.863536	80.000000	73.000000
6.863536	6.940073	78.000000	73.000000
6.940073	7.016610	80.000000	73.000000
7.016610	7.161731	85.000000	79.000000
7.016610	7.161731	82.000000	79.000000
7.174927	7.253878	73.000000	73.000000
7.253878	7.332829	75.000000	73.000000
7.332829	7.409554	77.000000	85.000000
7.332829	7.409554	80.000000	85.000000
7.332829	7.797616	68.000000	67.000000
7.332829	7.797616	61.000000	67.000000
7.409554	7.486278	75.000000	73.000000
7.486278	7.563003	73.000000	71.000000
7.563003	7.639727	75.000000	71.000000
7.639727	7.784460	77.000000	80.000000
7.639727	7.784460	80.000000	80.000000
7.797616	7.876151	71.000000	73.000000
7.876151	7.954686	73.000000	73.000000
7.954686	8.031411	78.000000	86.000000
7.954686	8.031411	75.000000	86.000000
7.954686	8.419473	66.000000	67.000000
7.954686	8.419473	59.000000	67.000000
8.031411	8.108135	73.000000	71.000000
8.108135	8.184860	71.000000	71.000000
8.184860	8.261585	73.000000	71.000000
8.261585	8.406317	78.000000	80.000000
8.261585	8.406317	75.000000	80.000000
8.419473	8.498008	66.000000	74.000000
8.498008	8.576543	68.000000	74.000000
8.576543	8.653268	73.000000	89.000000
8.576543	8.653268	70.000000	89.000000
8.576543	9.036904	61.000000	67.000000
8.576543	9.036904	54.000000	67.000000
8.653268	8.729993	68.000000	71.000000
8.729993	8.806717	66.000000	71.000000
8.806717	8.883442	68.000000	71.000000
8.883442	9.024110	73.000000	79.000000
8.883442	9.024110	70.000000	79.000000
9.036904	9.115641	53.000000	69.000000
9.036904	9.115641	41.000000	67.000000
9.115641	9.194377	54.000000	69.000000
9.115641	9.194377	42.000000	67.000000
9.194377	9.270914	56.000000	79.000000
9.194377	9.270914	44.000000	79.000000
9.270914	9.347451	54.000000	67.000000
9.270914	9.347451	42.000000	67.000000
9.347451	9.425986	53.000000	67.000000
9.347451	9.425986	41.000000	67.000000
9.504521	9.581058	54.000000	73.000000
9.504521	9.581058	42.000000	70.000000
9.581058	9.657595	53.000000	63.000000
9.581058	9.657595	41.000000	64.000000
9.657595	9.736331	51.000000	63.000000
9.657595	9.736331	39.000000	64.000000
9.815067	9.891604	53.000000	69.000000
9.815067	9.891604	41.000000	69.000000
9.891604	9.968141	51.000000	61.000000
9.891604	9.968141	39.000000	60.000000
9.968141	10.046475	49.000000	61.000000
9.968141	10.046475	37.000000	60.000000
10.124809	10.201346	51.000000	66.000000
10.124809	10.201346	39.000000	67.000000
10.201346	10.277883	49.000000	59.000000
10.201346	10.277883	37.000000	59.000000
10.277883	10.354420	48.000000	59.000000
10.277883	10.354420	36.000000	59.000000
11.043198	11.119923	51.000000	45.000000
11.043198	11.119923	39.000000	45.000000
11.119923	11.196647	49.000000	40.000000
11.119923	11.196647	37.000000	41.000000
11.196647	11.273372	47.000000	40.000000
11.196647	11.273372	35.000000	41.000000
11.661783	11.738347	46.000000	73.000000
11.661783	12.281803	34.000000	67.000000
11.661783	12.281803	41.000000	67.000000
11.738347	11.815165	53.000000	67.000000
11.815165	11.892225	58.000000	67.000000
11.892225	11.969607	58.000000	67.000000
11.969607	12.047230	65.000000	72.000000
12.047230	12.125148	70.000000	74.000000
12.125148	12.203335	70.000000	78.000000
12.203335	12.281803	77.000000	81.000000
12.281803	12.439289	77.000000	85.000000
12.281803	12.439289	70.000000	85.000000
12.281803	12.439289	82.000000	85.000000
12.281803	12.439289	65.000000	81.000000
12.281803	12.439289	58.000000	81.000000
12.754247	12.832984	32.000000	61.000000
12.832984	12.911720	34.000000	61.000000
12.911720	13.687281	47.000000	45.000000
12.911720	13.687281	50.000000	45.000000
12.911720	13.687281	53.000000	45.000000
12.911720	12.989236	35.000000	68.000000
12.989236	13.066752	34.000000	61.000000
13.066752	13.144268	32.000000	61.000000
13.144268	13.221784	34.000000	61.000000
13.221784	13.299299	35.000000	64.000000
13.299299	13.376815	34.000000	61.000000
13.376815	13.454935	32.000000	61.000000
13.454935	13.533027	34.000000	61.000000
13.533027	13.610154	35.000000	73.000000
13.687281	13.765401	32.000000	67.000000
13.843520	13.920647	32.000000	67.000000
13.997774	14.073345	50.000000	42.000000
13.997774	14.073345	53.000000	42.000000
13.997774	14.073345	59.000000	51.000000
14.148917	14.226044	50.000000	46.000000
14.148917	14.226044	53.000000	46.000000
14.148917	14.226044	59.000000	55.000000
14.303171	14.380297	50.000000	42.000000
14.303171	14.380297	53.000000	42.000000
14.303171	14.380297	58.000000	51.000000
14.303171	14.380297	46.000000	52.000000
14.457424	14.534551	50.000000	42.000000
14.457424	14.534551	53.000000	42.000000
14.457424	14.534551	58.000000	51.000000
14.457424	14.534551	46.000000	52.000000
14.611678	14.689395	50.000000	46.000000
14.611678	14.689395	53.000000	46.000000
14.611678	14.689395	57.000000	55.000000
14.611678	14.689395	47.000000	54.000000
14.767113	14.845648	50.000000	49.000000
14.767113	14.845648	53.000000	49.000000
14.767113	14.845648	57.000000	59.000000
14.767113	14.845648	47.000000	56.000000
14.924183	15.002718	50.000000	48.000000
14.924183	15.002718	53.000000	48.000000
14.924183	15.002718	56.000000	57.000000
15.081253	15.162551	50.000000	46.000000
15.081253	15.162551	53.000000	46.000000
15.081253	15.162551	56.000000	55.000000
15.243849	15.322384	35.000000	61.000000
15.322384	15.400919	37.000000	61.000000
15.400919	16.174173	50.000000	46.000000
15.400919	16.174173	53.000000	46.000000
15.400919	16.174173	56.000000	46.000000
15.400919	15.478046	38.000000	68.000000
15.478046	15.555173	37.000000	61.000000
15.555173	15.632300	35.000000	61.000000
15.632300	15.709427	37.000000	61.000000
15.709427	15.786554	38.000000	64.000000
15.786554	15.863681	37.000000	61.000000
15.863681	15.941800	35.000000	61.000000
15.941800	16.019920	37.000000	61.000000
16.019920	16.097046	38.000000	73.000000
16.174173	16.251300	35.000000	67.000000
16.328427	16.405554	35.000000	67.000000
16.482681	16.558440	53.000000	35.000000
16.482681	16.558440	56.000000	35.000000
16.482681	16.558440	62.000000	59.000000
16.634199	16.710535	53.000000	36.000000
16.634199	16.710535	56.000000	36.000000
16.634199	16.710535	62.000000	60.000000
16.786871	16.863207	53.000000	35.000000
16.786871	16.863207	56.000000	35.000000
16.786871	16.863207	61.000000	59.000000
16.786871	16.863207	49.000000	54.000000
16.939542	17.015878	53.000000	35.000000
16.939542	17.015878	56.000000	35.000000
16.939542	17.015878	61.000000	59.000000
16.939542	17.015878	49.000000	54.000000
17.092214	17.169730	53.000000	37.000000
17.092214	17.169730	56.000000	37.000000
17.092214	17.169730	60.000000	63.000000
17.092214	17.169730	50.000000	56.000000
17.247246	17.325781	53.000000	41.000000
17.247246	17.325781	56.000000	41.000000
17.247246	17.325781	60.000000	70.000000
17.247246	17.325781	50.000000	61.000000
17.404316	17.482851	53.000000	39.000000
17.404316	17.482851	56.000000	39.000000
17.404316	17.482851	59.000000	67.000000
17.561386	17.638513	53.000000	38.000000
17.561386	17.638513	56.000000	38.000000
17.561386	17.638513	59.000000	64.000000
17.715640	17.791587	56.000000	35.000000
17.715640	17.791587	59.000000	35.000000
17.715640	17.791587	65.000000	60.000000
17.867534	17.944848	56.000000	37.000000
17.867534	17.944848	59.000000	37.000000
17.867534	17.944848	65.000000	64.000000
18.022163	18.099478	56.000000	35.000000
18.022163	18.099478	59.000000	35.000000
18.022163	18.099478	64.000000	60.000000
18.022163	18.099478	52.000000	58.000000
18.176792	18.254107	56.000000	35.000000
18.176792	18.254107	59.000000	35.000000
18.176792	18.254107	64.000000	60.000000
18.176792	18.254107	52.000000	58.000000
18.331422	18.407181	56.000000	39.000000
18.331422	18.407181	60.000000	39.000000
18.331422	18.407181	63.000000	66.000000
18.331422	18.407181	53.000000	63.000000
18.482940	18.559665	56.000000	44.000000
18.482940	18.559665	59.000000	44.000000
18.482940	18.559665	63.000000	73.000000
18.482940	18.559665	53.000000	67.000000
18.636389	18.713114	56.000000	40.000000
18.636389	18.713114	59.000000	40.000000
18.636389	18.713114	62.000000	70.000000
18.789839	18.867556	56.000000	39.000000
18.789839	18.867556	59.000000	39.000000
18.789839	18.867556	62.000000	67.000000
18.945273	19.021810	59.000000	47.000000
18.945273	19.021810	62.000000	47.000000
18.945273	19.021810	68.000000	66.000000
19.098346	19.175272	59.000000	49.000000
19.098346	19.175272	62.000000	49.000000
19.098346	19.175272	68.000000	70.000000
19.252198	19.329124	59.000000	47.000000
19.252198	19.329124	62.000000	47.000000
19.252198	19.329124	67.000000	66.000000
19.252198	19.329124	55.000000	63.000000
19.406050	19.483566	59.000000	47.000000
19.406050	19.483566	62.000000	47.000000
19.406050	19.483566	67.000000	66.000000
19.406050	19.483566	55.000000	63.000000
19.561081	19.636840	59.000000	51.000000
19.561081	19.636840	62.000000	51.000000
19.561081	19.636840	66.000000	72.000000
19.561081	19.636840	56.000000	68.000000
19.712600	19.789136	59.000000	54.000000
19.712600	19.789136	62.000000	54.000000
19.712600	19.789136	66.000000	76.000000
19.712600	19.789136	56.000000	69.000000
19.865673	19.942210	59.000000	51.000000
19.865673	19.942210	62.000000	51.000000
19.865673	19.942210	65.000000	72.000000
20.018747	20.096263	59.000000	49.000000
20.018747	20.096263	62.000000	49.000000
20.018747	20.096263	65.000000	69.000000
20.173779	20.249927	62.000000	53.000000
20.173779	20.249927	65.000000	53.000000
20.173779	20.249927	71.000000	75.000000
20.326075	20.402612	62.000000	58.000000
20.326075	20.402612	65.000000	58.000000
20.326075	20.402612	71.000000	81.000000
20.479149	20.555685	62.000000	56.000000
20.479149	20.555685	65.000000	56.000000
20.479149	20.555685	70.000000	79.000000
20.479149	20.555685	58.000000	70.000000
20.632222	20.709738	62.000000	54.000000
20.632222	20.709738	65.000000	54.000000
20.632222	20.709738	70.000000	76.000000
20.632222	20.709738	58.000000	76.000000
20.787254	20.862825	65.000000	55.000000
20.787254	20.862825	68.000000	55.000000
20.787254	20.862825	74.000000	78.000000
20.938397	21.014934	65.000000	60.000000
20.938397	21.014934	68.000000	60.000000
20.938397	21.014934	74.000000	86.000000
21.091470	21.168007	65.000000	58.000000
21.091470	21.168007	68.000000	58.000000
21.091470	21.168007	73.000000	81.000000
21.091470	21.168007	61.000000	74.000000
21.244544	21.322060	65.000000	56.000000
21.244544	21.322060	68.000000	56.000000
21.244544	21.322060	73.000000	79.000000
21.244544	21.322060	61.000000	78.000000
21.399576	21.475335	68.000000	57.000000
21.399576	21.475335	71.000000	57.000000
21.399576	21.475335	77.000000	80.000000
21.551094	21.627631	68.000000	62.000000
21.551094	21.627631	71.000000	86.000000
21.551094	21.627631	77.000000	86.000000
21.704168	21.780705	68.000000	60.000000
21.704168	21.780705	71.000000	60.000000
21.704168	21.780705	76.000000	86.000000
21.704168	21.780705	64.000000	76.000000
21.857242	21.934556	68.000000	58.000000
21.857242	21.934556	71.000000	58.000000
21.857242	21.934556	76.000000	81.000000
21.857242	21.934556	64.000000	82.000000
22.011871	22.091868	71.000000	71.000000
22.011871	22.091868	74.000000	71.000000
22.011871	22.091868	80.000000	85.000000
22.171865	22.249984	71.000000	79.000000
22.171865	22.249984	74.000000	79.000000
22.171865	22.249984	80.000000	94.000000
22.328104	22.406223	71.000000	75.000000
22.328104	22.406223	74.000000	75.000000
22.328104	22.406223	79.000000	89.000000
22.328104	22.406223	67.000000	80.000000
22.484342	22.567209	71.000000	72.000000
22.484342	22.567209	74.000000	72.000000
22.484342	22.567209	79.000000	86.000000
22.484342	22.567209	67.000000	85.000000
22.650076	22.728196	72.000000	47.000000
22.728196	22.806087	74.000000	45.000000
22.806087	22.883603	79.000000	49.000000
22.806087	22.883603	76.000000	49.000000
22.806087	22.883603	67.000000	45.000000
22.806087	22.883603	60.000000	45.000000
22.883603	22.961119	74.000000	45.000000
22.961119	23.038635	72.000000	45.000000
22.961119	23.038635	67.000000	41.000000
22.961119	23.038635	60.000000	41.000000
23.038635	23.116151	74.000000	45.000000
23.116151	23.192299	76.000000	47.000000
23.116151	23.192299	79.000000	47.000000
23.116151	23.192299	67.000000	41.000000
23.116151	23.192299	60.000000	41.000000
23.192299	23.268447	74.000000	45.000000
23.268447	23.346781	72.000000	45.000000
23.268447	23.346781	67.000000	41.000000
23.268447	23.346781	60.000000	41.000000
23.346781	23.425115	74.000000	45.000000
23.425115	23.502630	79.000000	49.000000
23.425115	23.502630	76.000000	49.000000
23.425115	23.502630	67.000000	45.000000
23.425115	23.502630	60.000000	45.000000
23.580146	23.657662	76.000000	45.000000
23.580146	23.657662	72.000000	45.000000
23.580146	23.657662	67.000000	41.000000
23.580146	23.657662	60.000000	41.000000
23.735178	23.814545	76.000000	46.000000
23.735178	23.814545	72.000000	46.000000
23.735178	23.814545	67.000000	41.000000
23.735178	23.814545	60.000000	41.000000
23.893911	23.972031	79.000000	45.000000
23.893911	23.972031	76.000000	45.000000
23.893911	23.972031	67.000000	41.000000
23.893911	23.972031	60.000000	41.000000
24.050150	24.127465	77.000000	50.000000
24.050150	24.127465	81.000000	50.000000
24.050150	24.127465	67.000000	45.000000
24.050150	24.127465	60.000000	45.000000
24.204780	24.282094	71.000000	45.000000
24.204780	24.282094	74.000000	45.000000
24.204780	24.282094	67.000000	40.000000
24.204780	24.282094	60.000000	40.000000
24.359409	24.438561	71.000000	46.000000
24.359409	24.438561	74.000000	46.000000
24.359409	24.438561	67.000000	40.000000
24.359409	24.438561	60.000000	40.000000
24.517713	24.595631	77.000000	51.000000
24.517713	24.595631	81.000000	51.000000
24.517713	24.595631	67.000000	40.000000
24.517713	24.595631	60.000000	40.000000
24.673550	25.132771	77.000000	55.000000
24.673550	25.132771	81.000000	55.000000
24.673550	24.750086	67.000000	45.000000
24.673550	24.750086	60.000000	45.000000
24.826623	24.903160	67.000000	40.000000
24.826623	24.903160	60.000000	40.000000
24.979697	25.056234	67.000000	40.000000
24.979697	25.056234	60.000000	40.000000
25.132771	25.210890	72.000000	45.000000
25.132771	25.210890	60.000000	40.000000
25.132771	25.210890	67.000000	40.000000
25.210890	25.288782	74.000000	45.000000
25.288782	25.366297	79.000000	49.000000
25.288782	25.366297	76.000000	49.000000
25.288782	25.366297	67.000000	45.000000
25.288782	25.366297	60.000000	45.000000
25.443813	25.521329	76.000000	45.000000
25.443813	25.521329	72.000000	45.000000
25.443813	25.521329	67.000000	41.000000
25.443813	25.521329	60.000000	41.000000
25.598845	25.678212	76.000000	46.000000
25.598845	25.678212	72.000000	46.000000
25.598845	25.678212	60.000000	41.000000
25.598845	25.678212	67.000000	41.000000
25.757578	25.835698	79.000000	45.000000
25.757578	25.835698	76.000000	45.000000
25.757578	25.835698	67.000000	41.000000
25.757578	25.835698	60.000000	41.000000
25.913817	25.991132	77.000000	50.000000
25.913817	25.991132	81.000000	50.000000
25.913817	25.991132	60.000000	45.000000
25.913817	25.991132	67.000000	45.000000
26.068447	26.145761	71.000000	45.000000
26.068447	26.145761	74.000000	45.000000
26.068447	26.145761	67.000000	40.000000
26.068447	26.145761	60.000000	40.000000
26.223076	26.302228	71.000000	46.000000
26.223076	26.302228	74.000000	46.000000
26.223076	26.302228	67.000000	40.000000
26.223076	26.302228	60.000000	40.000000
26.381380	26.459298	77.000000	51.000000
26.381380	26.459298	81.000000	51.000000
26.381380	26.459298	60.000000	40.000000
26.381380	26.459298	67.000000	40.000000
26.537217	26.613579	76.000000	55.000000
26.537217	26.613579	79.000000	55.000000
26.537217	26.613579	67.000000	45.000000
26.537217	26.613579	60.000000	45.000000
26.689915	26.766251	72.000000	50.000000
26.689915	26.766251	76.000000	50.000000
26.689915	26.766251	67.000000	40.000000
26.689915	26.766251	60.000000	40.000000
26.842399	26.918546	77.000000	58.000000
26.842399	26.918546	81.000000	58.000000
26.842399	26.918546	60.000000	41.000000
26.842399	26.918546	67.000000	41.000000
26.994654	27.070601	71.000000	52.000000
26.994654	27.070601	74.000000	52.000000
26.994654	27.070601	67.000000	42.000000
26.994654	27.070601	60.000000	42.000000
27.146548	27.222428	76.000000	60.000000
27.146548	27.222428	79.000000	60.000000
27.146548	27.222428	67.000000	47.000000
27.146548	27.222428	60.000000	47.000000
27.298187	27.373946	72.000000	54.000000
27.298187	27.373946	76.000000	54.000000
27.298187	27.373946	67.000000	43.000000
27.298187	27.373946	60.000000	43.000000
27.449611	27.525182	77.000000	63.000000
27.449611	27.525182	81.000000	63.000000
27.449611	27.525182	60.000000	45.000000
27.449611	27.525182	67.000000	45.000000
27.600753	27.677679	71.000000	56.000000
27.600753	27.677679	74.000000	56.000000
27.600753	27.677679	67.000000	45.000000
27.600753	27.677679	60.000000	45.000000
27.754605	27.829989	76.000000	64.000000
27.754605	27.829989	79.000000	64.000000
27.754605	27.829989	67.000000	51.000000
27.754605	27.829989	60.000000	51.000000
27.905211	27.980394	72.000000	59.000000
27.905211	27.980394	76.000000	59.000000
27.905211	27.980394	67.000000	46.000000
27.905211	27.980394	60.000000	46.000000
28.055576	28.130570	85.000000	78.000000
28.055576	28.130570	81.000000	78.000000
28.055576	28.130570	71.000000	63.000000
28.055576	28.130570	64.000000	63.000000
28.205565	28.280560	75.000000	72.000000
28.205565	28.280560	78.000000	72.000000
28.205565	28.280560	71.000000	58.000000
28.205565	28.280560	64.000000	58.000000
28.355554	28.430549	83.000000	79.000000
28.355554	28.430549	80.000000	79.000000
28.355554	28.430549	64.000000	63.000000
28.355554	28.430549	71.000000	63.000000
28.505544	28.580538	76.000000	73.000000
28.505544	28.580538	80.000000	73.000000
28.505544	28.580538	64.000000	58.000000
28.505544	28.580538	71.000000	58.000000
28.655533	28.730527	85.000000	79.000000
28.655533	28.730527	81.000000	79.000000
28.655533	28.730527	64.000000	63.000000
28.655533	28.730527	71.000000	63.000000
28.805522	28.880517	75.000000	72.000000
28.805522	28.880517	78.000000	72.000000
28.805522	28.880517	64.000000	58.000000
28.805522	28.880517	71.000000	58.000000
28.955511	29.029580	83.000000	79.000000
28.955511	29.029580	80.000000	79.000000
28.955511	29.029580	64.000000	63.000000
28.955511	29.029580	71.000000	63.000000
29.103650	29.177719	76.000000	76.000000
29.103650	29.177719	80.000000	76.000000
29.103650	29.177719	64.000000	59.000000
29.103650	29.177719	71.000000	59.000000
29.251788	29.325857	80.000000	82.000000
29.251788	29.325857	83.000000	82.000000
29.251788	29.325857	64.000000	64.000000
29.251788	29.325857	71.000000	64.000000
29.399927	29.473996	76.000000	79.000000
29.399927	29.473996	80.000000	79.000000
29.399927	29.473996	64.000000	61.000000
29.399927	29.473996	71.000000	61.000000
29.548065	29.620887	83.000000	87.000000
29.548065	29.620887	80.000000	87.000000
29.548065	29.620887	64.000000	68.000000
29.548065	29.620887	71.000000	68.000000
29.693709	29.766531	76.000000	83.000000
29.693709	29.766531	80.000000	83.000000
29.693709	29.766531	64.000000	64.000000
29.693709	29.766531	71.000000	64.000000
29.839353	29.912175	80.000000	90.000000
29.839353	29.912175	83.000000	90.000000
29.839353	29.912175	64.000000	72.000000
29.839353	29.912175	71.000000	72.000000
29.984997	30.061534	76.000000	87.000000
29.984997	30.061534	80.000000	87.000000
29.984997	30.061534	64.000000	67.000000
29.984997	30.061534	71.000000	67.000000
30.138071	30.723437	58.000000	79.000000
30.723437	30.796259	83.000000	87.000000
30.723437	30.796259	80.000000	87.000000
30.723437	30.796259	64.000000	68.000000
30.723437	30.796259	71.000000	68.000000
30.869081	30.941903	76.000000	83.000000
30.869081	30.941903	80.000000	83.000000
30.869081	30.941903	64.000000	64.000000
30.869081	30.941903	71.000000	64.000000
31.014725	31.087547	80.000000	90.000000
31.014725	31.087547	83.000000	90.000000
31.014725	31.087547	64.000000	72.000000
31.014725	31.087547	71.000000	72.000000
31.160369	31.236906	76.000000	87.000000
31.160369	31.236906	80.000000	87.000000
31.160369	31.236906	64.000000	67.000000
31.160369	31.236906	71.000000	67.000000
31.313443	31.898808	58.000000	76.000000
31.898808	31.971630	83.000000	85.000000
31.898808	31.971630	80.000000	85.000000
31.898808	31.971630	64.000000	64.000000
31.898808	31.971630	71.000000	64.000000
32.044452	32.117274	76.000000	79.000000
32.044452	32.117274	80.000000	79.000000
32.044452	32.117274	64.000000	61.000000
32.044452	32.117274	71.000000	61.000000
32.190096	32.262918	80.000000	85.000000
32.190096	32.262918	83.000000	85.000000
32.190096	32.262918	64.000000	64.000000
32.190096	32.262918	71.000000	64.000000
32.335741	32.412277	76.000000	81.000000
32.335741	32.412277	80.000000	81.000000
32.335741	32.412277	64.000000	59.000000
32.335741	32.412277	71.000000	59.000000
32.488814	37.644681	58.000000	72.000000
32.635156	32.708326	57.000000	45.000000
32.781497	32.854668	56.000000	45.000000
32.927839	33.001009	55.000000	45.000000
33.074180	33.147351	54.000000	45.000000
33.220521	33.293692	53.000000	45.000000
33.366863	33.440034	52.000000	45.000000
33.513204	33.586375	51.000000	45.000000
33.805887	33.879058	50.000000	45.000000
33.952228	34.025399	49.000000	45.000000
34.098570	34.171741	48.000000	45.000000
34.244911	34.317908	47.000000	45.000000
34.390985	34.464155	46.000000	45.000000
34.537500	34.610939	45.000000	45.000000
34.684472	34.758179	44.000000	45.000000
35.128405	35.277227	43.000000	41.000000
35.729756	35.882683	42.000000	40.000000
36.347979	36.505291	41.000000	37.000000
36.990717	37.154211	40.000000	36.000000
37.802193	37.880313	63.000000	45.000000
37.880313	37.958204	65.000000	45.000000
37.958204	38.035720	70.000000	49.000000
37.958204	38.035720	66.000000	49.000000
37.958204	38.035720	39.000000	45.000000
38.035720	38.113236	65.000000	45.000000
38.113236	38.190752	63.000000	45.000000
38.113236	38.190752	46.000000	42.000000
38.190752	38.268268	65.000000	45.000000
38.268268	38.344416	66.000000	47.000000
38.268268	38.344416	70.000000	47.000000
38.268268	38.344416	39.000000	42.000000
38.344416	38.420564	65.000000	45.000000
38.420564	38.498898	63.000000	45.000000
38.420564	38.498898	34.000000	42.000000
38.498898	38.577232	65.000000	45.000000
38.577232	38.654747	70.000000	49.000000
38.577232	38.654747	66.000000	49.000000
38.577232	38.654747	39.000000	45.000000
38.732263	38.809779	66.000000	45.000000
38.732263	38.809779	63.000000	45.000000
38.732263	38.809779	46.000000	42.000000
38.887295	38.966662	66.000000	46.000000
38.887295	38.966662	63.000000	46.000000
38.887295	38.966662	39.000000	42.000000
39.046028	39.124148	70.000000	45.000000
39.046028	39.124148	66.000000	45.000000
39.046028	39.124148	34.000000	42.000000
39.202267	39.279582	65.000000	50.000000
39.202267	39.279582	69.000000	50.000000
39.202267	39.279582	39.000000	45.000000
39.356897	39.434211	60.000000	45.000000
39.356897	39.434211	65.000000	45.000000
39.356897	39.434211	46.000000	42.000000
39.511526	39.590678	60.000000	46.000000
39.511526	39.590678	65.000000	46.000000
39.511526	39.590678	39.000000	42.000000
39.669830	39.747748	65.000000	45.000000
39.669830	39.747748	69.000000	45.000000
39.669830	39.747748	34.000000	42.000000
39.825667	40.284888	65.000000	54.000000
39.825667	40.284888	69.000000	54.000000
39.825667	39.902203	39.000000	45.000000
39.978740	40.055277	46.000000	41.000000
40.131814	40.208351	39.000000	41.000000
40.284888	40.363624	68.000000	46.000000
40.284888	40.363624	34.000000	41.000000
40.363624	40.441904	70.000000	49.000000
40.441904	40.519420	71.000000	54.000000
40.441904	40.519420	75.000000	54.000000
40.441904	40.519420	39.000000	49.000000
40.519420	40.596936	70.000000	51.000000
40.596936	40.674452	68.000000	51.000000
40.596936	40.674452	46.000000	45.000000
40.674452	40.751968	70.000000	51.000000
40.751968	40.828304	71.000000	54.000000
40.751968	40.828304	75.000000	54.000000
40.751968	40.828304	39.000000	45.000000
40.828304	40.904639	70.000000	50.000000
40.904639	40.983175	68.000000	50.000000
40.904639	40.983175	34.000000	45.000000
40.983175	41.061710	70.000000	50.000000
41.061710	41.139427	71.000000	54.000000
41.061710	41.139427	75.000000	54.000000
41.061710	41.139427	39.000000	49.000000
41.217144	41.294861	68.000000	50.000000
41.217144	41.294861	71.000000	50.000000
41.217144	41.294861	46.000000	45.000000
41.372578	41.452360	71.000000	50.000000
41.372578	41.452360	68.000000	50.000000
41.372578	41.452360	39.000000	45.000000
41.532143	41.610477	71.000000	50.000000
41.532143	41.610477	75.000000	50.000000
41.532143	41.610477	34.000000	45.000000
41.688811	41.766326	70.000000	54.000000
41.688811	41.766326	74.000000	54.000000
41.688811	41.766326	39.000000	49.000000
41.843842	41.921358	65.000000	50.000000
41.843842	41.921358	70.000000	50.000000
41.843842	41.921358	46.000000	45.000000
41.998874	42.078241	65.000000	50.000000
41.998874	42.078241	70.000000	50.000000
41.998874	42.078241	39.000000	45.000000
42.157607	42.235727	70.000000	50.000000
42.157607	42.235727	74.000000	50.000000
42.157607	42.235727	34.000000	45.000000
42.313846	42.541687	70.000000	58.000000
42.313846	42.541687	74.000000	58.000000
42.313846	42.389793	39.000000	49.000000
42.465740	42.541687	46.000000	45.000000
42.617633	42.693580	39.000000	45.000000
42.769527	42.848679	83.000000	78.000000
42.848679	42.927831	85.000000	78.000000
42.927831	43.004368	87.000000	90.000000
42.927831	43.004368	90.000000	90.000000
42.927831	43.392296	78.000000	70.000000
42.927831	43.392296	71.000000	70.000000
43.004368	43.080905	85.000000	77.000000
43.080905	43.157442	83.000000	77.000000
43.157442	43.233979	85.000000	77.000000
43.233979	43.379100	90.000000	81.000000
43.233979	43.379100	87.000000	81.000000
43.392296	43.471247	78.000000	77.000000
43.471247	43.550198	80.000000	77.000000
43.550198	43.626922	85.000000	90.000000
43.550198	43.626922	82.000000	90.000000
43.550198	44.014985	66.000000	70.000000
43.550198	44.014985	73.000000	70.000000
43.626922	43.703647	80.000000	77.000000
43.703647	43.780372	78.000000	74.000000
43.780372	43.857096	80.000000	74.000000
43.857096	44.001828	85.000000	83.000000
43.857096	44.001828	82.000000	83.000000
44.014985	44.093520	76.000000	77.000000
44.093520	44.172055	78.000000	77.000000
44.172055	44.248780	80.000000	90.000000
44.172055	44.248780	83.000000	90.000000
44.172055	44.636842	64.000000	70.000000
44.172055	44.636842	71.000000	70.000000
44.248780	44.325504	78.000000	74.000000
44.325504	44.402229	76.000000	74.000000
44.402229	44.478954	78.000000	74.000000
44.478954	44.623686	83.000000	83.000000
44.478954	44.623686	80.000000	83.000000
44.636842	44.715377	71.000000	78.000000
44.715377	44.793912	73.000000	78.000000
44.793912	44.870637	78.000000	91.000000
44.793912	44.870637	75.000000	91.000000
44.793912	45.254273	59.000000	70.000000
44.793912	45.254273	66.000000	70.000000
44.870637	44.947361	73.000000	74.000000
44.947361	45.024086	71.000000	74.000000
45.024086	45.100811	73.000000	74.000000
45.100811	45.241479	78.000000	81.000000
45.100811	45.241479	75.000000	81.000000
45.254273	45.333010	58.000000	72.000000
45.254273	45.333010	46.000000	70.000000
45.333010	45.411746	59.000000	72.000000
45.333010	45.411746	47.000000	70.000000
45.411746	45.488283	61.000000	81.000000
45.411746	45.488283	49.000000	81.000000
45.488283	45.564820	59.000000	70.000000
45.488283	45.564820	47.000000	70.000000
45.564820	45.643355	58.000000	70.000000
45.564820	45.643355	46.000000	70.000000
45.721890	45.798427	59.000000	77.000000
45.721890	45.798427	47.000000	73.000000
45.798427	45.874964	58.000000	65.000000
45.798427	45.874964	46.000000	67.000000
45.874964	45.953700	56.000000	65.000000
45.874964	45.953700	44.000000	67.000000
46.032436	46.108973	58.000000	72.000000
46.032436	46.108973	46.000000	72.000000
46.108973	46.185510	56.000000	64.000000
46.108973	46.185510	44.000000	63.000000
46.185510	46.263844	54.000000	64.000000
46.185510	46.263844	42.000000	63.000000
46.342178	46.418715	56.000000	69.000000
46.342178	46.418715	44.000000	70.000000
46.418715	46.495252	54.000000	63.000000
46.418715	46.495252	42.000000	63.000000
46.495252	46.571789	53.000000	63.000000
46.495252	46.571789	41.000000	63.000000
47.260567	47.338284	56.000000	45.000000
47.260567	47.338284	44.000000	45.000000
47.338284	47.416001	54.000000	42.000000
47.338284	47.416001	42.000000	41.000000
47.416001	47.493718	52.000000	42.000000
47.416001	47.493718	40.000000	41.000000
47.894883	47.971447	51.000000	78.000000
47.894883	48.514903	39.000000	77.000000
47.894883	48.514903	46.000000	77.000000
47.971447	48.048265	58.000000	73.000000
48.048265	48.125325	63.000000	73.000000
48.125325	48.202707	63.000000	73.000000
48.202707	48.280330	70.000000	76.000000
48.280330	48.358248	75.000000	81.000000
48.358248	48.436435	75.000000	85.000000
48.436435	48.514903	82.000000	87.000000
48.514903	48.674897	75.000000	92.000000
48.514903	48.674897	87.000000	92.000000
48.514903	48.674897	82.000000	92.000000
48.514903	48.674897	70.000000	92.000000
48.514903	48.674897	63.000000	92.000000
48.993208	49.072360	32.000000	61.000000
49.072360	49.151512	34.000000	61.000000
49.151512	49.927073	47.000000	45.000000
49.151512	49.927073	50.000000	45.000000
49.151512	49.927073	53.000000	45.000000
49.151512	49.229028	35.000000	68.000000
49.229028	49.306544	34.000000	61.000000
49.306544	49.384060	32.000000	61.000000
49.384060	49.461576	34.000000	61.000000
49.461576	49.539092	35.000000	64.000000
49.539092	49.616608	34.000000	61.000000
49.616608	49.694727	32.000000	61.000000
49.694727	49.772819	34.000000	61.000000
49.772819	49.849946	35.000000	73.000000
49.927073	50.005407	32.000000	67.000000
50.083741	50.160868	32.000000	67.000000
50.237995	50.313567	50.000000	36.000000
50.237995	50.313567	53.000000	36.000000
50.237995	50.313567	59.000000	51.000000
50.389138	50.466265	50.000000	38.000000
50.389138	50.466265	53.000000	38.000000
50.389138	50.466265	59.000000	55.000000
50.543392	50.620519	50.000000	36.000000
50.543392	50.620519	53.000000	36.000000
50.543392	50.620519	58.000000	51.000000
50.543392	50.620519	46.000000	52.000000
50.697646	50.774773	50.000000	36.000000
50.697646	50.774773	53.000000	36.000000
50.697646	50.774773	58.000000	51.000000
50.697646	50.774773	46.000000	52.000000
50.851900	50.929617	50.000000	38.000000
50.851900	50.929617	53.000000	38.000000
50.851900	50.929617	57.000000	55.000000
50.851900	50.929617	47.000000	54.000000
51.007334	51.085869	50.000000	41.000000
51.007334	51.085869	53.000000	41.000000
51.007334	51.085869	57.000000	59.000000
51.007334	51.085869	47.000000	56.000000
51.164404	51.242939	50.000000	40.000000
51.164404	51.242939	53.000000	40.000000
51.164404	51.242939	56.000000	57.000000
51.321474	51.402772	50.000000	38.000000
51.321474	51.402772	53.000000	38.000000
51.321474	51.402772	56.000000	55.000000
51.484070	51.562605	35.000000	61.000000
51.562605	51.641140	37.000000	61.000000
51.641140	52.414395	50.000000	46.000000
51.641140	52.414395	53.000000	46.000000
51.641140	52.414395	56.000000	46.000000
51.641140	51.718267	38.000000	68.000000
51.718267	51.795394	37.000000	61.000000
51.795394	51.872521	35.000000	61.000000
51.872521	51.949648	37.000000	61.000000
51.949648	52.026775	38.000000	64.000000
52.026775	52.103902	37.000000	61.000000
52.103902	52.182021	35.000000	61.000000
52.182021	52.260141	37.000000	61.000000
52.260141	52.337268	38.000000	73.000000
52.414395	52.491522	35.000000	67.000000
52.568649	52.645776	35.000000	67.000000
52.722903	52.798662	53.000000	49.000000
52.722903	52.798662	56.000000	49.000000
52.722903	52.798662	62.000000	59.000000
52.874421	52.950756	53.000000	50.000000
52.874421	52.950756	56.000000	50.000000
52.874421	52.950756	62.000000	60.000000
53.027092	53.103428	53.000000	49.000000
53.027092	53.103428	56.000000	49.000000
53.027092	53.103428	61.000000	59.000000
53.027092	53.103428	49.000000	54.000000
53.179764	53.256099	53.000000	49.000000
53.179764	53.256099	56.000000	49.000000
53.179764	53.256099	61.000000	59.000000
53.179764	53.256099	49.000000	54.000000
53.332435	53.409951	53.000000	53.000000
53.332435	53.409951	56.000000	53.000000
53.332435	53.409951	60.000000	63.000000
53.332435	53.409951	50.000000	56.000000
53.487467	53.566002	53.000000	59.000000
53.487467	53.566002	56.000000	59.000000
53.487467	53.566002	60.000000	70.000000
53.487467	53.566002	50.000000	61.000000
53.644537	53.723072	53.000000	56.000000
53.644537	53.723072	56.000000	56.000000
53.644537	53.723072	59.000000	67.000000
53.801607	53.878734	53.000000	55.000000
53.801607	53.878734	56.000000	55.000000
53.801607	53.878734	59.000000	64.000000
53.955861	54.031808	56.000000	51.000000
53.955861	54.031808	59.000000	51.000000
53.955861	54.031808	65.000000	60.000000
54.107755	54.185070	56.000000	53.000000
54.107755	54.185070	59.000000	53.000000
54.107755	54.185070	65.000000	64.000000
54.262384	54.339699	56.000000	51.000000
54.262384	54.339699	59.000000	51.000000
54.262384	54.339699	64.000000	60.000000
54.262384	54.339699	52.000000	58.000000
54.417014	54.494329	56.000000	51.000000
54.417014	54.494329	59.000000	51.000000
54.417014	54.494329	64.000000	60.000000
54.417014	54.494329	52.000000	58.000000
54.571643	54.647402	56.000000	55.000000
54.571643	54.647402	60.000000	55.000000
54.571643	54.647402	63.000000	66.000000
54.571643	54.647402	53.000000	63.000000
54.723161	54.799886	56.000000	61.000000
54.723161	54.799886	59.000000	61.000000
54.723161	54.799886	63.000000	73.000000
54.723161	54.799886	53.000000	67.000000
54.876611	54.953335	56.000000	58.000000
54.876611	54.953335	59.000000	58.000000
54.876611	54.953335	62.000000	70.000000
55.030060	55.107777	56.000000	56.000000
55.030060	55.107777	59.000000	56.000000
55.030060	55.107777	62.000000	67.000000
55.185494	55.262031	59.000000	55.000000
55.185494	55.262031	62.000000	66.000000
55.185494	55.262031	68.000000	66.000000
55.338568	55.415494	59.000000	58.000000
55.338568	55.415494	62.000000	58.000000
55.338568	55.415494	68.000000	70.000000
55.492419	55.569345	59.000000	55.000000
55.492419	55.569345	62.000000	55.000000
55.492419	55.569345	67.000000	66.000000
55.492419	55.569345	55.000000	63.000000
55.646271	55.723787	59.000000	55.000000
55.646271	55.723787	62.000000	55.000000
55.646271	55.723787	67.000000	66.000000
55.646271	55.723787	55.000000	63.000000
55.801303	55.877062	59.000000	60.000000
55.801303	55.877062	62.000000	60.000000
55.801303	55.877062	66.000000	72.000000
55.801303	55.877062	56.000000	68.000000
55.952821	56.029358	59.000000	65.000000
55.952821	56.029358	62.000000	65.000000
55.952821	56.029358	66.000000	76.000000
55.952821	56.029358	56.000000	69.000000
56.105895	56.182431	59.000000	60.000000
56.105895	56.182431	62.000000	60.000000
56.105895	56.182431	65.000000	72.000000
56.258968	56.336484	59.000000	58.000000
56.258968	56.336484	62.000000	58.000000
56.258968	56.336484	65.000000	69.000000
56.414000	56.490148	62.000000	53.000000
56.414000	56.490148	65.000000	53.000000
56.414000	56.490148	71.000000	75.000000
56.566296	56.642833	62.000000	58.000000
56.566296	56.642833	65.000000	58.000000
56.566296	56.642833	71.000000	81.000000
56.719370	56.795907	62.000000	56.000000
56.719370	56.795907	65.000000	56.000000
56.719370	56.795907	70.000000	79.000000
56.719370	56.795907	58.000000	70.000000
56.872444	56.949960	62.000000	54.000000
56.872444	56.949960	65.000000	54.000000
56.872444	56.949960	70.000000	76.000000
56.872444	56.949960	58.000000	76.000000
57.027475	57.103047	65.000000	55.000000
57.027475	57.103047	68.000000	55.000000
57.027475	57.103047	74.000000	78.000000
57.178618	57.255155	65.000000	60.000000
57.178618	57.255155	68.000000	60.000000
57.178618	57.255155	74.000000	86.000000
57.331692	57.408229	65.000000	58.000000
57.331692	57.408229	68.000000	58.000000
57.331692	57.408229	73.000000	81.000000
57.331692	57.408229	61.000000	74.000000
57.484766	57.562281	65.000000	56.000000
57.484766	57.562281	68.000000	56.000000
57.484766	57.562281	73.000000	79.000000
57.484766	57.562281	61.000000	78.000000
57.639797	57.715556	68.000000	57.000000
57.639797	57.715556	71.000000	57.000000
57.639797	57.715556	77.000000	80.000000
57.791315	57.867852	68.000000	62.000000
57.791315	57.867852	71.000000	62.000000
57.791315	57.867852	77.000000	86.000000
57.944389	58.020926	68.000000	60.000000
57.944389	58.020926	71.000000	60.000000
57.944389	58.020926	76.000000	86.000000
57.944389	58.020926	64.000000	76.000000
58.097463	58.174778	68.000000	58.000000
58.097463	58.174778	71.000000	58.000000
58.097463	58.174778	76.000000	81.000000
58.097463	58.174778	64.000000	82.000000
58.252092	58.332089	71.000000	71.000000
58.252092	58.332089	74.000000	71.000000
58.252092	58.332089	80.000000	85.000000
58.412086	58.490206	71.000000	79.000000
58.412086	58.490206	74.000000	79.000000
58.412086	58.490206	80.000000	94.000000
58.568325	58.646444	71.000000	75.000000
58.568325	58.646444	74.000000	75.000000
58.568325	58.646444	79.000000	89.000000
58.568325	58.646444	67.000000	80.000000
58.724564	58.807431	71.000000	72.000000
58.724564	58.807431	74.000000	72.000000
58.724564	58.807431	79.000000	86.000000
58.724564	58.807431	67.000000	85.000000
58.890298	58.968417	72.000000	45.000000
58.968417	59.046308	74.000000	45.000000
59.046308	59.123824	79.000000	49.000000
59.046308	59.123824	76.000000	49.000000
59.046308	59.123824	67.000000	45.000000
59.046308	59.123824	60.000000	45.000000
59.123824	59.201340	74.000000	45.000000
59.201340	59.278856	72.000000	45.000000
59.201340	59.278856	67.000000	41.000000
59.201340	59.278856	60.000000	41.000000
59.278856	59.356372	74.000000	45.000000
59.356372	59.432520	76.000000	47.000000
59.356372	59.432520	79.000000	47.000000
59.356372	59.432520	67.000000	41.000000
59.356372	59.432520	60.000000	41.000000
59.432520	59.508668	74.000000	45.000000
59.508668	59.587002	72.000000	45.000000
59.508668	59.587002	67.000000	41.000000
59.508668	59.587002	60.000000	41.000000
59.587002	59.665336	74.000000	45.000000
59.665336	59.742852	79.000000	49.000000
59.665336	59.742852	76.000000	49.000000
59.665336	59.742852	67.000000	45.000000
59.665336	59.742852	60.000000	45.000000
59.820368	59.897883	76.000000	45.000000
59.820368	59.897883	72.000000	45.000000
59.820368	59.897883	67.000000	41.000000
59.820368	59.897883	60.000000	41.000000
59.975399	60.054766	76.000000	46.000000
59.975399	60.054766	72.000000	46.000000
59.975399	60.054766	67.000000	41.000000
59.975399	60.054766	60.000000	41.000000
60.134133	60.212252	79.000000	45.000000
60.134133	60.212252	76.000000	45.000000
60.134133	60.212252	67.000000	41.000000
60.134133	60.212252	60.000000	41.000000
60.290371	60.367686	77.000000	50.000000
60.290371	60.367686	81.000000	50.000000
60.290371	60.367686	67.000000	45.000000
60.290371	60.367686	60.000000	45.000000
60.445001	60.522316	71.000000	45.000000
60.445001	60.522316	74.000000	45.000000
60.445001	60.522316	67.000000	40.000000
60.445001	60.522316	60.000000	40.000000
60.599630	60.678782	71.000000	46.000000
60.599630	60.678782	74.000000	46.000000
60.599630	60.678782	67.000000	40.000000
60.599630	60.678782	60.000000	40.000000
60.757934	60.835853	77.000000	51.000000
60.757934	60.835853	81.000000	51.000000
60.757934	60.835853	67.000000	40.000000
60.757934	60.835853	60.000000	40.000000
60.913771	61.372992	77.000000	55.000000
60.913771	61.372992	81.000000	55.000000
60.913771	60.990308	67.000000	45.000000
60.913771	60.990308	60.000000	45.000000
61.066845	61.143381	67.000000	40.000000
61.066845	61.143381	60.000000	40.000000
61.219918	61.296455	67.000000	40.000000
61.219918	61.296455	60.000000	40.000000
61.372992	61.451112	72.000000	45.000000
61.372992	61.451112	60.000000	40.000000
61.372992	61.451112	67.000000	40.000000
61.451112	61.529003	74.000000	45.000000
61.529003	61.606519	79.000000	49.000000
61.529003	61.606519	76.000000	49.000000
61.529003	61.606519	67.000000	45.000000
61.529003	61.606519	60.000000	45.000000
61.684035	61.761551	76.000000	45.000000
61.684035	61.761551	72.000000	45.000000
61.684035	61.761551	67.000000	41.000000
61.684035	61.761551	60.000000	41.000000
61.839066	61.918433	76.000000	46.000000
61.839066	61.918433	72.000000	46.000000
61.839066	61.918433	60.000000	41.000000
61.839066	61.918433	67.000000	41.000000
61.997800	62.075919	79.000000	45.000000
61.997800	62.075919	76.000000	45.000000
61.997800	62.075919	67.000000	41.000000
61.997800	62.075919	60.000000	41.000000
62.154038	62.231353	77.000000	50.000000
62.154038	62.231353	81.000000	50.000000
62.154038	62.231353	60.000000	45.000000
62.154038	62.231353	67.000000	45.000000
62.308668	62.385983	71.000000	45.000000
62.308668	62.385983	74.000000	45.000000
62.308668	62.385983	67.000000	40.000000
62.308668	62.385983	60.000000	40.000000
62.463297	62.542449	71.000000	46.000000
62.463297	62.542449	74.000000	46.000000
62.463297	62.542449	67.000000	40.000000
62.463297	62.542449	60.000000	40.000000
62.621601	62.699520	77.000000	51.000000
62.621601	62.699520	81.000000	51.000000
62.621601	62.699520	60.000000	40.000000
62.621601	62.699520	67.000000	40.000000
62.777438	62.853800	76.000000	55.000000
62.777438	62.853800	79.000000	55.000000
62.777438	62.853800	67.000000	45.000000
62.777438	62.853800	60.000000	45.000000
62.930136	63.006472	72.000000	50.000000
62.930136	63.006472	76.000000	50.000000
62.930136	63.006472	67.000000	40.000000
62.930136	63.006472	60.000000	40.000000
63.082620	63.158768	77.000000	58.000000
63.082620	63.158768	81.000000	58.000000
63.082620	63.158768	60.000000	41.000000
63.082620	63.158768	67.000000	41.000000
63.234876	63.310822	71.000000	52.000000
63.234876	63.310822	74.000000	52.000000
63.234876	63.310822	67.000000	42.000000
63.234876	63.310822	60.000000	42.000000
63.386769	63.462649	76.000000	60.000000
63.386769	63.462649	79.000000	60.000000
63.386769	63.462649	67.000000	47.000000
63.386769	63.462649	60.000000	47.000000
63.538408	63.614167	72.000000	54.000000
63.538408	63.614167	76.000000	54.000000
63.538408	63.614167	67.000000	43.000000
63.538408	63.614167	60.000000	43.000000
63.689832	63.765403	77.000000	63.000000
63.689832	63.765403	81.000000	63.000000
63.689832	63.765403	60.000000	45.000000
63.689832	63.765403	67.000000	45.000000
63.840975	63.917901	71.000000	56.000000
63.840975	63.917901	74.000000	56.000000
63.840975	63.917901	67.000000	45.000000
63.840975	63.917901	60.000000	45.000000
63.994826	64.070210	76.000000	64.000000
63.994826	64.070210	79.000000	64.000000
63.994826	64.070210	67.000000	51.000000
63.994826	64.070210	60.000000	51.000000
64.145432	64.220615	72.000000	59.000000
64.145432	64.220615	76.000000	59.000000
64.145432	64.220615	67.000000	46.000000
64.145432	64.220615	60.000000	46.000000
64.295797	64.370792	85.000000	78.000000
64.295797	64.370792	81.000000	78.000000
64.295797	64.370792	71.000000	63.000000
64.295797	64.370792	64.000000	63.000000
64.445786	64.520781	75.000000	72.000000
64.445786	64.520781	78.000000	72.000000
64.445786	64.520781	71.000000	58.000000
64.445786	64.520781	64.000000	58.000000
64.595776	64.670770	83.000000	79.000000
64.595776	64.670770	80.000000	79.000000
64.595776	64.670770	64.000000	63.000000
64.595776	64.670770	71.000000	63.000000
64.745765	64.820759	76.000000	73.000000
64.745765	64.820759	80.000000	73.000000
64.745765	64.820759	64.000000	58.000000
64.745765	64.820759	71.000000	58.000000
64.895754	64.970749	85.000000	79.000000
64.895754	64.970749	81.000000	79.000000
64.895754	64.970749	64.000000	63.000000
64.895754	64.970749	71.000000	63.000000
65.045743	65.120738	75.000000	72.000000
65.045743	65.120738	78.000000	72.000000
65.045743	65.120738	64.000000	58.000000
65.045743	65.120738	71.000000	58.000000
65.195733	65.269802	83.000000	79.000000
65.195733	65.269802	80.000000	79.000000
65.195733	65.269802	64.000000	63.000000
65.195733	65.269802	71.000000	63.000000
65.343871	65.417940	76.000000	76.000000
65.343871	65.417940	80.000000	76.000000
65.343871	65.417940	64.000000	59.000000
65.343871	65.417940	71.000000	59.000000
65.492010	65.566079	80.000000	82.000000
65.492010	65.566079	83.000000	82.000000
65.492010	65.566079	64.000000	64.000000
65.492010	65.566079	71.000000	64.000000
65.640148	65.714217	76.000000	79.000000
65.640148	65.714217	80.000000	79.000000
65.640148	65.714217	64.000000	61.000000
65.640148	65.714217	71.000000	61.000000
65.788287	65.861109	83.000000	87.000000
65.788287	65.861109	80.000000	87.000000
65.788287	65.861109	64.000000	68.000000
65.788287	65.861109	71.000000	68.000000
65.933931	66.006753	76.000000	83.000000
65.933931	66.006753	80.000000	83.000000
65.933931	66.006753	64.000000	64.000000
65.933931	66.006753	71.000000	64.000000
66.079575	66.152397	80.000000	90.000000
66.079575	66.152397	83.000000	90.000000
66.079575	66.152397	64.000000	72.000000
66.079575	66.152397	71.000000	72.000000
66.225219	66.301756	76.000000	87.000000
66.225219	66.301756	80.000000	87.000000
66.225219	66.301756	64.000000	67.000000
66.225219	66.301756	71.000000	67.000000
66.378292	66.963658	58.000000	79.000000
66.963658	67.036480	83.000000	87.000000
66.963658	67.036480	80.000000	87.000000
66.963658	67.036480	64.000000	68.000000
66.963658	67.036480	71.000000	68.000000
67.109302	67.182124	76.000000	83.000000
67.109302	67.182124	80.000000	83.000000
67.109302	67.182124	64.000000	64.000000
67.109302	67.182124	71.000000	64.000000
67.254946	67.327768	80.000000	90.000000
67.254946	67.327768	83.000000	90.000000
67.254946	67.327768	64.000000	72.000000
67.254946	67.327768	71.000000	72.000000
67.400590	67.477127	76.000000	87.000000
67.400590	67.477127	80.000000	87.000000
67.400590	67.477127	64.000000	67.000000
67.400590	67.477127	71.000000	67.000000
67.553664	68.139030	58.000000	76.000000
68.139030	68.211852	83.000000	85.000000
68.139030	68.211852	80.000000	85.000000
68.139030	68.211852	64.000000	64.000000
68.139030	68.211852	71.000000	64.000000
68.284674	68.357496	76.000000	79.000000
68.284674	68.357496	80.000000	79.000000
68.284674	68.357496	64.000000	61.000000
68.284674	68.357496	71.000000	61.000000
68.430318	68.503140	80.000000	85.000000
68.430318	68.503140	83.000000	85.000000
68.430318	68.503140	64.000000	64.000000
68.430318	68.503140	71.000000	64.000000
68.575962	68.652499	76.000000	81.000000
68.575962	68.652499	80.000000	81.000000
68.575962	68.652499	64.000000	59.000000
68.575962	68.652499	71.000000	59.000000
68.729036	73.884902	58.000000	72.000000
68.875377	68.948548	57.000000	45.000000
69.021718	69.094889	56.000000	45.000000
69.168060	69.241231	55.000000	45.000000
69.314401	69.387572	54.000000	45.000000
69.460743	69.533913	53.000000	45.000000
69.607084	69.680255	52.000000	45.000000
69.753426	69.826596	51.000000	45.000000
70.046108	70.119279	50.000000	45.000000
70.192450	70.265620	49.000000	45.000000
70.338791	70.411962	48.000000	45.000000
70.485133	70.558129	47.000000	45.000000
70.631206	70.704377	46.000000	45.000000
70.777722	70.851161	45.000000	45.000000
70.924693	70.998400	44.000000	45.000000
71.368626	71.517448	43.000000	41.000000
71.969978	72.122904	42.000000	40.000000
72.588200	72.745512	41.000000	37.000000
73.230939	73.394433	40.000000	36.000000
74.042415	74.120534	63.000000	45.000000
74.120534	74.198425	65.000000	45.000000
74.198425	74.275941	70.000000	49.000000
74.198425	74.275941	66.000000	49.000000
74.198425	74.275941	39.000000	45.000000
74.275941	74.353457	65.000000	45.000000
74.353457	74.430973	63.000000	45.000000
74.353457	74.430973	46.000000	42.000000
74.430973	74.508489	65.000000	45.000000
74.508489	74.584637	66.000000	47.000000
74.508489	74.584637	70.000000	47.000000
74.508489	74.584637	39.000000	42.000000
74.584637	74.660785	65.000000	45.000000
74.660785	74.739119	63.000000	45.000000
74.660785	74.739119	34.000000	42.000000
74.739119	74.817453	65.000000	45.000000
74.817453	74.894969	70.000000	49.000000
74.817453	74.894969	66.000000	49.000000
74.817453	74.894969	39.000000	45.000000
74.972485	75.050001	66.000000	45.000000
74.972485	75.050001	63.000000	45.000000
74.972485	75.050001	46.000000	42.000000
75.127516	75.206883	66.000000	46.000000
75.127516	75.206883	63.000000	46.000000
75.127516	75.206883	39.000000	42.000000
75.286250	75.364369	70.000000	45.000000
75.286250	75.364369	66.000000	45.000000
75.286250	75.364369	34.000000	42.000000
75.442488	75.519803	65.000000	50.000000
75.442488	75.519803	69.000000	50.000000
75.442488	75.519803	39.000000	45.000000
75.597118	75.674433	60.000000	45.000000
75.597118	75.674433	65.000000	45.000000
75.597118	75.674433	46.000000	42.000000
75.751747	75.830899	60.000000	46.000000
75.751747	75.830899	65.000000	46.000000
75.751747	75.830899	39.000000	42.000000
75.910051	75.987970	65.000000	45.000000
75.910051	75.987970	69.000000	45.000000
75.910051	75.987970	34.000000	42.000000
76.065888	76.525109	65.000000	54.000000
76.065888	76.525109	69.000000	54.000000
76.065888	76.142425	39.000000	45.000000
76.218962	76.295499	46.000000	41.000000
76.372035	76.448572	39.000000	41.000000
76.525109	76.603845	68.000000	46.000000
76.525109	76.603845	34.000000	41.000000
76.603845	76.682126	70.000000	49.000000
76.682126	76.759642	71.000000	54.000000
76.682126	76.759642	75.000000	54.000000
76.682126	76.759642	39.000000	49.000000
76.759642	76.837158	70.000000	51.000000
76.837158	76.914673	68.000000	51.000000
76.837158	76.914673	46.000000	45.000000
76.914673	76.992189	70.000000	51.000000
76.992189	77.068525	71.000000	54.000000
76.992189	77.068525	75.000000	54.000000
76.992189	77.068525	39.000000	45.000000
77.068525	77.144861	70.000000	50.000000
77.144861	77.223396	68.000000	50.000000
77.144861	77.223396	34.000000	45.000000
77.223396	77.301931	70.000000	50.000000
77.301931	77.379648	71.000000	54.000000
77.301931	77.379648	75.000000	54.000000
77.301931	77.379648	39.000000	49.000000
77.457365	77.535082	68.000000	50.000000
77.457365	77.535082	71.000000	50.000000
77.457365	77.535082	46.000000	45.000000
77.612799	77.692582	71.000000	50.000000
77.612799	77.692582	68.000000	50.000000
77.612799	77.692582	39.000000	45.000000
77.772364	77.850698	71.000000	50.000000
77.772364	77.850698	75.000000	50.000000
77.772364	77.850698	34.000000	45.000000
77.929032	78.006548	70.000000	54.000000
77.929032	78.006548	74.000000	54.000000
77.929032	78.006548	39.000000	49.000000
78.084064	78.161580	65.000000	50.000000
78.084064	78.161580	70.000000	50.000000
78.084064	78.161580	46.000000	45.000000
78.239095	78.318462	65.000000	50.000000
78.239095	78.318462	70.000000	50.000000
78.239095	78.318462	39.000000	45.000000
78.397829	78.475948	70.000000	50.000000
78.397829	78.475948	74.000000	50.000000
78.397829	78.475948	34.000000	45.000000
78.554067	78.781908	70.000000	58.000000
78.554067	78.781908	74.000000	58.000000
78.554067	78.630014	39.000000	49.000000
78.705961	78.781908	46.000000	45.000000
78.857855	78.933801	39.000000	45.000000
79.009748	79.088900	83.000000	78.000000
79.088900	79.168052	85.000000	78.000000
79.168052	79.244589	87.000000	90.000000
79.168052	79.244589	90.000000	90.000000
79.168052	79.632517	78.000000	70.000000
79.168052	79.632517	71.000000	70.000000
79.244589	79.321126	85.000000	77.000000
79.321126	79.397663	83.000000	77.000000
79.397663	79.474200	85.000000	77.000000
79.474200	79.619321	90.000000	81.000000
79.474200	79.619321	87.000000	81.000000
79.632517	79.711468	78.000000	77.000000
79.711468	79.790419	80.000000	77.000000
79.790419	79.867144	85.000000	90.000000
79.790419	79.867144	82.000000	90.000000
79.790419	80.255206	66.000000	70.000000
79.790419	80.255206	73.000000	70.000000
79.867144	79.943868	80.000000	77.000000
79.943868	80.020593	78.000000	74.000000
80.020593	80.097318	80.000000	74.000000
80.097318	80.242050	85.000000	83.000000
80.097318	80.242050	82.000000	83.000000
80.255206	80.333741	76.000000	77.000000
80.333741	80.412276	78.000000	77.000000
80.412276	80.489001	80.000000	90.000000
80.412276	80.489001	83.000000	90.000000
80.412276	80.877063	64.000000	70.000000
80.412276	80.877063	71.000000	70.000000
80.489001	80.565726	78.000000	74.000000
80.565726	80.642450	76.000000	74.000000
80.642450	80.719175	78.000000	74.000000
80.719175	80.863907	83.000000	83.000000
80.719175	80.863907	80.000000	83.000000
80.877063	80.955598	71.000000	78.000000
80.955598	81.034133	73.000000	78.000000
81.034133	81.110858	78.000000	91.000000
81.034133	81.110858	75.000000	91.000000
81.034133	81.494495	59.000000	70.000000
81.034133	81.494495	66.000000	70.000000
81.110858	81.187583	73.000000	74.000000
81.187583	81.264307	71.000000	74.000000
81.264307	81.341032	73.000000	74.000000
81.341032	81.481701	78.000000	81.000000
81.341032	81.481701	75.000000	81.000000
81.494495	81.573231	58.000000	72.000000
81.494495	81.573231	46.000000	70.000000
81.573231	81.651967	59.000000	72.000000
81.573231	81.651967	47.000000	70.000000
81.651967	81.728504	61.000000	81.000000
81.651967	81.728504	49.000000	81.000000
81.728504	81.805041	59.000000	70.000000
81.728504	81.805041	47.000000	70.000000
81.805041	81.883576	58.000000	70.000000
81.805041	81.883576	46.000000	70.000000
81.962111	82.038648	59.000000	77.000000
81.962111	82.038648	47.000000	73.000000
82.038648	82.115185	58.000000	65.000000
82.038648	82.115185	46.000000	67.000000
82.115185	82.193921	56.000000	65.000000
82.115185	82.193921	44.000000	67.000000
82.272658	82.349195	58.000000	72.000000
82.272658	82.349195	46.000000	72.000000
82.349195	82.425731	56.000000	64.000000
82.349195	82.425731	44.000000	63.000000
82.425731	82.504065	54.000000	64.000000
82.425731	82.504065	42.000000	63.000000
82.582399	82.658936	56.000000	69.000000
82.582399	82.658936	44.000000	70.000000
82.658936	82.735473	54.000000	63.000000
82.658936	82.735473	42.000000	63.000000
82.735473	82.812010	53.000000	63.000000
82.735473	82.812010	41.000000	63.000000
83.500788	83.578371	56.000000	45.000000
83.500788	83.578371	44.000000	45.000000
83.578371	83.656330	54.000000	42.000000
83.578371	83.656330	42.000000	41.000000
83.656330	83.734691	52.000000	42.000000
83.656330	83.734691	40.000000	41.000000
84.136915	84.213479	51.000000	82.000000
84.136915	84.756935	39.000000	81.000000
84.136915	84.756935	46.000000	81.000000
84.213479	84.290297	58.000000	76.000000
84.290297	84.367357	63.000000	76.000000
84.367357	84.444739	63.000000	76.000000
84.444739	84.522362	70.000000	80.000000
84.522362	84.600280	75.000000	85.000000
84.600280	84.678467	75.000000	89.000000
84.678467	84.756935	82.000000	92.000000
84.756935	84.914421	75.000000	95.000000
84.756935	84.914421	87.000000	95.000000
84.756935	84.914421	82.000000	95.000000
84.756935	84.914421	70.000000	97.000000
84.756935	84.914421	63.000000	97.000000
