OnsetTime	OffsetTime	MidiPitch	Velocity
0.524989	1.14099	71	49
0.825987	1.14198	64	35
0.829983	1.14498	67	35
1.14498	1.43898	63	29
1.14498	1.43898	66	29
1.14799	1.58898	71	49
1.43997	1.73999	62	35
1.43997	1.73999	65	34
1.58999	1.73999	71	40
1.74399	2.63197	61	33
1.74399	2.04097	71	49
1.74498	2.63597	64	33
2.04398	2.34197	70	46
2.34197	2.63597	76	48
2.63698	3.23096	69	33
2.63897	2.92997	60	33
2.63897	2.93097	63	33
2.63997	2.93097	75	47
2.93297	3.23096	74	49
2.93396	3.54197	59	41
2.93396	3.54596	62	41
3.23395	3.54897	67	42
3.54897	3.84696	66	34
3.54996	4.00496	62	39
3.54996	4.00496	72	47
3.55296	4.00596	57	39
3.84995	4.15397	67	39
4.00796	4.15796	55	34
4.00796	4.15496	62	34
4.00796	4.15496	71	45
4.15896	4.77397	67	46
4.15896	4.77797	71	46
4.16095	4.46596	55	38
4.16095	4.77797	62	38
4.46996	4.78097	59	39
4.78197	5.39997	62	40
4.78197	5.39798	66	45
4.78197	5.39697	69	45
5.08897	6.61597	50	38
5.40098	6.01397	62	61
5.70497	6.01397	79	46
5.70597	6.01397	71	46
5.70597	6.01698	74	46
6.01698	6.31497	69	48
6.01698	6.31396	78	48
6.01797	6.31497	74	48
6.02097	6.46497	62	60
6.31697	6.61597	76	50
6.31796	6.61798	67	50
6.31796	6.61897	73	50
6.46597	6.61897	62	56
6.62297	8.10996	66	56
6.62297	8.10596	74	56
6.62397	8.11097	69	56
6.62597	6.91297	62	60
6.91297	7.22098	60	56
7.22098	7.51097	64	58
7.51097	7.80497	62	55
7.80597	8.11097	60	57
8.11296	8.41396	67	45
8.11396	8.41895	59	51
8.11396	8.41796	74	45
8.11696	8.41895	62	51
8.42095	8.72896	66	42
8.42195	8.88696	57	55
8.42195	8.88796	62	55
8.42195	8.88696	72	42
8.72995	9.05496	67	41
8.88796	9.05595	71	41
8.89095	9.05595	55	45
8.89095	9.05795	62	45
9.05895	9.40096	55	50
9.05895	9.72296	67	44
9.05895	9.72395	71	44
9.06196	9.72395	62	50
9.40195	9.72395	59	35
9.72696	10.43	69	40
9.72795	10.431	62	38
9.72795	10.43	66	40
10.063	10.434	50	33
10.434	11.046	71	49
10.735	11.047	64	35
10.738	11.047	67	35
11.047	11.34	63	29
11.05	11.344	66	29
11.051	11.491	71	49
11.345	11.645	62	35
11.345	11.646	65	34
11.491	11.646	71	40
11.646	12.5369	61	33
11.648	12.538	64	33
11.648	11.946	71	49
11.947	12.246	70	46
12.2469	12.54	76	48
12.5409	12.8339	60	33
12.5409	12.8349	63	33
12.542	13.1329	69	33
12.5439	12.8349	75	47
12.8359	13.1359	74	49
12.8379	13.4549	62	41
12.839	13.4549	59	41
13.1359	13.4549	67	42
13.4579	13.7559	66	34
13.4579	13.9059	72	47
13.4589	13.9099	57	39
13.4619	13.9099	62	39
13.7559	14.0639	67	39
13.9099	14.0639	71	45
13.9129	14.0649	55	34
13.9139	14.0669	62	34
14.0669	14.6829	67	46
14.0679	14.6829	71	46
14.0709	14.3719	55	38
14.0709	14.6859	62	38
14.3719	14.6899	59	39
14.6899	15.3059	66	45
14.6909	15.3069	62	40
14.6909	15.3059	69	45
14.9939	16.5129	50	38
15.3089	15.9149	62	61
15.6069	15.9149	71	46
15.6069	15.9179	74	46
15.6099	15.9179	79	46
15.9189	16.2159	69	48
15.9219	16.2189	74	48
15.9229	16.3659	62	60
15.9229	16.2199	78	48
16.2199	16.5139	67	50
16.2229	16.5139	73	50
16.2229	16.5169	76	50
16.3699	16.5179	62	56
16.5179	18.0119	66	56
16.5199	18.0119	69	56
16.5209	18.0119	74	56
16.5239	16.8139	62	60
16.8179	17.1219	60	56
17.1259	17.4119	64	58
17.4129	17.7099	62	55
17.7109	18.0149	60	57
18.0149	18.3229	67	45
18.0149	18.3229	74	45
18.0189	18.3269	59	51
18.0189	18.3269	62	51
18.3299	18.6449	66	42
18.3299	18.8059	72	42
18.3309	18.8069	57	55
18.3339	18.8069	62	55
18.6449	18.9809	67	41
18.8089	18.9809	71	41
18.8099	18.9849	55	45
18.8099	18.9849	62	45
18.9849	19.6799	67	44
18.9859	19.6809	71	44
18.9869	19.3619	55	50
18.9879	19.6839	62	50
19.3649	19.6849	59	35
19.6869	20.4299	66	40
19.6879	20.4339	62	38
19.6879	20.4329	69	40
20.0229	20.4369	50	33
20.4379	20.6889	52	35
20.5599	20.6899	59	26
20.5599	20.6899	64	26
20.5609	20.6899	67	26
20.6929	20.8149	54	32
20.8149	20.9329	59	28
20.8179	20.9379	64	28
20.8179	20.9409	67	28
20.8189	20.9409	55	32
20.9409	21.1859	57	35
21.0629	21.1899	64	31
21.0629	21.1899	66	31
21.0669	21.1909	60	31
21.1929	21.4519	45	32
21.3179	21.4549	66	26
21.3189	21.4589	60	26
21.3189	21.4549	64	26
21.4589	21.7109	47	35
21.5809	21.7119	59	26
21.5819	21.7119	63	26
21.5819	21.7119	66	26
21.7139	21.9689	35	32
21.8369	21.9699	59	27
21.8369	21.9699	63	27
21.8379	21.9729	66	27
21.9739	22.2329	40	41
22.0959	22.2329	59	31
22.0989	22.2329	64	31
22.0989	22.2339	67	31
22.2359	22.5059	43	49
22.3649	22.5089	55	39
22.3659	22.5089	59	39
22.3659	22.5089	62	39
22.5099	22.7609	48	46
22.6309	22.7619	55	30
22.6319	22.7619	60	30
22.6319	22.7639	64	30
22.7639	22.8839	50	41
22.8839	23.0019	55	31
22.8849	23.0059	60	31
22.8859	23.0059	64	31
22.8869	23.0069	52	41
23.0089	23.2539	53	45
23.1319	23.2549	57	32
23.1319	23.2549	60	32
23.1319	23.2559	62	32
23.2569	23.5139	41	40
23.3799	23.5139	57	28
23.3799	23.5149	60	28
23.3839	23.5169	62	28
23.5169	23.7689	43	44
23.6429	23.7689	55	31
23.6439	23.7729	59	31
23.6439	23.7729	62	31
23.7739	24.0309	31	40
23.8979	24.0319	55	32
23.8989	24.0319	59	32
23.8989	24.0349	62	32
24.0349	24.2969	36	48
24.1649	24.5739	55	41
24.1649	24.5779	60	41
24.1679	24.5779	64	41
24.2979	24.5819	35	52
24.5819	24.8329	52	44
24.7029	24.8329	59	29
24.7029	24.8339	64	29
24.7069	24.8369	67	29
24.8369	24.9519	54	41
24.9549	25.0819	59	33
24.9559	25.0819	64	33
24.9559	25.0829	67	33
24.9589	25.0849	55	46
25.0849	25.3299	57	51
25.2069	25.3329	66	36
25.2109	25.3339	60	36
25.2109	25.3339	64	36
25.3339	25.5919	45	41
25.4669	25.5969	60	28
25.4669	25.5959	64	28
25.4669	25.5929	66	28
25.5969	25.8469	47	49
25.7189	25.8479	59	28
25.7189	25.8479	63	28
25.7219	25.8509	66	28
25.8519	26.1099	35	40
25.9809	26.1109	59	29
25.9809	26.1109	63	29
25.9819	26.1119	66	29
26.1129	26.3769	40	48
26.2399	26.3769	59	34
26.2429	26.3779	64	34
26.2439	26.3799	67	34
26.3799	26.6419	43	53
26.5089	26.6429	55	42
26.5099	26.6459	59	42
26.5099	26.6459	62	42
26.6489	26.9009	48	53
26.7709	26.9059	55	32
26.7719	26.9079	60	32
26.7719	26.9089	64	32
26.9089	27.0279	50	47
27.0279	27.1459	55	34
27.0309	27.1469	60	34
27.0309	27.1499	64	34
27.0319	27.1499	52	50
27.1529	27.3919	53	52
27.2689	27.3949	57	36
27.2689	27.3949	60	36
27.2719	27.3959	62	36
27.3989	27.6579	41	52
27.5239	27.6608	57	31
27.5249	27.6608	60	31
27.5279	27.6619	62	31
27.6649	27.9199	43	55
27.7898	27.9208	55	35
27.7909	27.9228	59	35
27.7929	27.9228	62	35
27.9239	28.1819	31	50
28.0529	28.1828	55	39
28.0529	28.1828	59	39
28.0529	28.1859	62	39
28.1859	28.4688	36	53
28.3258	28.8118	55	49
28.3258	28.8128	60	49
28.3298	28.8158	64	49
28.4738	28.8188	35	62
28.8678	29.4808	71	49
29.1729	29.4819	64	35
29.1738	29.4839	67	35
29.4848	29.7779	63	29
29.4878	29.7788	66	29
29.4889	29.9289	71	49
29.7788	30.0789	62	35
29.7818	30.0839	65	34
29.9299	30.0839	71	40
30.0839	30.9779	61	33
30.0849	30.9789	64	33
30.0858	30.3798	71	49
30.3809	30.9789	70	46
30.6879	30.9828	76	48
30.9828	31.2768	60	33
30.9859	31.2768	63	33
30.9859	31.5778	69	33
30.9859	31.2778	75	47
31.2798	31.8928	62	41
31.2798	31.5778	74	49
31.2809	31.8928	59	41
31.5788	31.8938	67	42
31.8938	32.1938	66	34
31.8958	32.3438	57	39
31.8958	32.3428	72	47
31.8968	32.3438	62	39
32.1948	32.5008	67	39
32.3468	32.5018	71	45
32.3478	32.5018	55	34
32.3478	32.5018	62	34
32.5048	33.1208	67	46
32.5058	32.8058	55	38
32.5058	33.1208	71	46
32.5078	33.1218	62	38
32.8088	33.1238	59	39
33.1248	33.7438	66	45
33.1278	33.7448	62	40
33.1278	33.7448	69	45
33.4358	34.9648	50	38
33.7448	34.3628	62	61
34.0548	34.3638	71	46
34.0558	34.3668	74	46
34.0588	34.3678	79	46
34.3678	34.6638	69	48
34.3698	34.6648	74	48
34.3708	34.8188	62	60
34.3708	34.6678	78	48
34.6688	34.9698	67	50
34.6708	34.9698	73	50
34.6718	34.9718	76	50
34.8188	34.9728	62	56
34.9728	36.4598	66	56
34.9758	36.4598	69	56
34.9768	35.2698	62	60
34.9768	36.4608	74	56
35.2708	35.5778	60	56
35.5778	35.8618	64	58
35.8618	36.1558	62	55
36.1588	36.4638	60	57
36.4638	36.7678	67	45
36.4648	36.7688	59	51
36.4648	36.7678	74	45
36.4668	36.7718	62	51
36.7718	37.2368	72	42
36.7728	37.2378	57	55
36.7728	37.0798	66	42
36.7748	37.2378	62	55
37.0828	37.3978	67	41
37.2398	37.3988	71	41
37.2408	37.4018	55	45
37.2438	37.4048	62	45
37.4048	38.0738	67	44
37.4058	37.7518	55	50
37.4058	38.0738	71	44
37.4088	38.0748	62	50
37.7548	38.0768	59	35
38.0768	38.7808	66	40
38.0778	38.7808	69	40
38.0808	38.7838	62	38
38.4128	38.7838	50	33
38.7838	38.9128	71	59
38.7878	39.6168	55	59
38.7878	38.9168	62	59
38.7878	39.3268	67	59
38.9178	39.0568	64	53
38.9178	39.0538	72	53
39.0568	39.1858	69	53
39.0578	39.1868	60	53
39.1898	39.3268	71	53
39.1908	39.3298	62	53
39.3298	39.4728	67	59
39.3308	39.4738	59	59
39.6168	39.7638	71	64
39.6178	39.7638	68	64
39.6198	39.7648	52	64
39.6198	39.7638	76	64
39.6208	39.7678	64	64
39.8998	40.1868	45	59
40.1878	40.3238	69	62
40.1878	40.3238	76	62
40.1888	40.3278	72	62
40.1908	40.3278	64	62
40.1918	40.3308	52	62
40.4638	40.7368	50	59
40.7368	40.9468	69	62
40.7408	40.9508	62	62
40.7408	40.9478	72	62
40.7408	40.9478	74	62
40.7428	40.9508	54	62
40.7438	40.9518	50	62
41.0168	41.5588	67	59
41.0168	41.1498	71	59
41.0178	41.8527	55	59
41.0208	41.1508	62	59
41.1528	41.2898	72	53
41.1538	41.2898	64	52
41.2908	41.4227	69	53
41.2937	41.4238	60	52
41.4238	41.5627	71	53
41.4268	41.5638	62	52
41.5658	41.7067	67	59
41.5667	41.7067	59	59
41.8538	42.0677	70	63
41.8538	42.0667	73	63
41.8538	42.0677	78	63
41.8567	42.0697	66	66
41.8577	42.0707	54	66
42.1437	42.4267	47	59
42.4277	42.6587	71	62
42.4277	42.6587	78	62
42.4307	42.6597	74	62
42.4317	42.6617	54	62
42.4317	42.6617	66	62
42.7357	43.0647	69	63
42.7357	43.0637	74	63
42.7357	43.0647	78	63
42.7397	43.0687	50	62
42.7397	43.0687	62	62
43.0707	43.3377	74	59
43.0717	43.3397	71	59
43.0717	43.3407	79	59
43.0747	43.3407	62	59
43.0757	43.3417	55	59
43.4317	44.0087	79	70
43.4327	43.8197	52	46
43.7227	44.0137	64	37
43.7227	44.0137	67	37
43.7257	44.0167	59	37
44.0167	44.5937	78	66
44.0177	44.4887	45	46
44.3037	44.5937	66	37
44.3047	44.5947	57	37
44.3047	44.5947	60	37
44.5977	44.9857	47	40
44.5977	45.1787	75	59
44.8877	45.1787	63	31
44.8917	45.1797	54	31
44.8917	45.1817	57	31
45.1817	45.8017	76	48
45.1857	45.6367	48	36
45.4907	45.8027	64	28
45.4937	45.8027	55	28
45.4947	45.8027	52	28
45.8047	46.2637	50	38
45.8047	46.3857	74	50
46.0927	46.3867	54	27
46.0927	46.3887	62	27
46.3897	46.8827	52	37
46.3897	46.9737	72	45
46.6767	46.9747	60	27
46.6797	46.9747	55	27
46.9757	47.6047	70	42
46.9767	47.4817	54	34
47.2887	47.6047	64	26
47.2897	47.6067	61	26
47.6077	48.3037	71	38
47.6107	49.5437	59	29
47.9267	48.3047	63	27
47.9267	48.3047	66	27
48.3047	48.9337	71	49
48.6187	48.9347	67	35
48.6227	48.9367	64	35
48.9377	49.2417	66	29
48.9377	49.3927	71	49
48.9417	49.2427	63	29
49.2447	49.5467	65	34
49.2457	49.5467	62	35
49.3927	49.5467	71	40
49.5507	50.4497	61	33
49.5507	50.4497	64	33
49.5507	49.8507	71	49
49.8517	50.1587	70	46
50.1587	50.4527	76	48
50.4527	50.7467	63	33
50.4537	51.0477	69	33
50.4537	50.7467	75	47
50.4567	50.7477	60	33
50.7477	51.0487	74	49
50.7507	51.3597	62	41
50.7517	51.3597	59	41
51.0517	51.3627	67	42
51.3637	51.8147	72	47
51.3667	51.8147	57	39
51.3667	51.6607	66	34
51.3677	51.8157	62	39
51.6637	51.9687	67	39
51.8187	51.9727	55	34
51.8187	51.9717	71	45
51.8197	51.9757	62	34
51.9757	52.5907	67	46
51.9767	52.2757	55	38
51.9767	52.5917	71	46
51.9787	52.5947	62	38
52.2797	52.5957	59	39
52.5957	53.2107	66	45
52.5987	53.2137	69	45
52.5997	53.2147	62	40
52.8987	54.4247	50	38
53.2147	53.8227	62	61
53.5187	53.8237	79	46
53.5217	53.8237	71	46
53.5227	53.8267	74	46
53.8277	54.1237	74	48
53.8277	54.1247	78	48
53.8287	54.1247	69	48
53.8297	54.2747	62	60
54.1277	54.4257	67	50
54.1286	54.4297	73	50
54.1286	54.4297	76	50
54.2747	54.4297	62	56
54.4307	55.9237	69	56
54.4327	55.9267	66	56
54.4327	55.9237	74	56
54.4337	54.7267	62	60
54.7267	55.0347	60	56
55.0347	55.3317	64	58
55.3317	55.6227	62	55
55.6227	55.9267	60	57
55.9276	56.2316	74	45
55.9307	56.2346	59	51
55.9307	56.2346	62	51
55.9307	56.2316	67	45
56.2356	56.5426	66	42
56.2386	56.7076	57	55
56.2386	56.7116	62	55
56.2386	56.7066	72	42
56.5466	56.8686	67	41
56.7116	56.8726	55	45
56.7116	56.8716	71	41
56.7126	56.8726	62	45
56.8756	57.5436	67	44
56.8756	57.5436	71	44
56.8766	57.2186	55	50
56.8786	57.5446	62	50
57.2186	57.5476	59	35
57.5476	58.2476	69	40
57.5486	58.2476	66	40
57.5506	58.2486	62	38
57.8866	58.2486	50	33
58.2506	58.4996	52	35
58.3726	58.5006	67	26
58.3736	58.5026	64	26
58.3766	58.5026	59	26
58.5066	58.6296	54	32
58.6296	58.7546	59	28
58.6306	58.7586	67	28
58.6316	58.7586	64	28
58.6326	58.7596	55	32
58.7616	59.0066	57	35
58.8776	59.0076	60	31
58.8776	59.0096	64	31
58.8776	59.0076	66	31
59.0106	59.2696	45	32
59.1326	59.2696	64	26
59.1326	59.2696	66	26
59.1366	59.2706	60	26
59.2736	59.5216	47	35
59.3946	59.5246	63	26
59.3946	59.5216	66	26
59.3956	59.5246	59	26
59.5246	59.7906	35	32
59.6536	59.7906	66	27
59.6576	59.7916	63	27
59.6586	59.7916	59	27
59.7946	60.0496	40	41
59.9166	60.0506	59	31
59.9176	60.0536	64	31
59.9206	60.0536	67	31
60.0546	60.3226	43	49
60.1826	60.3266	55	39
60.1826	60.3256	62	39
60.1866	60.3266	59	39
60.3266	60.5776	48	46
60.4526	60.5826	55	30
60.4526	60.5826	64	30
60.4536	60.5826	60	30
60.5856	60.7006	50	41
60.7016	60.8266	55	31
60.7046	60.8306	60	31
60.7046	60.8306	64	31
60.7056	60.8336	52	41
60.8336	61.0716	53	45
60.9486	61.0726	57	32
60.9496	61.0726	60	32
60.9496	61.0756	62	32
61.0756	61.3336	41	40
61.2046	61.3346	57	28
61.2056	61.3346	62	28
61.2086	61.3376	60	28
61.3376	61.5856	43	44
61.4606	61.5906	62	31
61.4636	61.5926	55	31
61.4636	61.5936	59	31
61.5936	61.8496	31	40
61.7226	61.8526	55	32
61.7226	61.8496	59	32
61.7266	61.8526	62	32
61.8566	62.1256	36	48
61.9886	62.3986	55	41
61.9886	62.3946	64	41
61.9926	62.3986	60	41
62.1256	62.3986	35	52
62.4016	62.6576	52	41
62.5236	62.6606	59	31
62.5246	62.6616	64	31
62.5246	62.6616	67	31
62.6616	62.7796	54	47
62.7796	62.9056	64	33
62.7806	62.9066	59	33
62.7836	62.9096	55	49
62.7836	62.9086	67	33
62.9096	63.1546	57	53
63.0356	63.1586	60	37
63.0356	63.1586	66	37
63.0386	63.1616	64	37
63.1616	63.4166	45	41
63.2906	63.4166	64	28
63.2906	63.4206	66	28
63.2916	63.4206	60	28
63.4236	63.6726	47	47
63.5456	63.6756	59	28
63.5466	63.6766	63	28
63.5466	63.6766	66	28
63.6766	63.9386	35	40
63.8096	63.9416	59	29
63.8096	63.9426	63	29
63.8096	63.9426	66	29
63.9456	64.2006	40	46
64.0676	64.2046	59	34
64.0676	64.2016	64	34
64.0686	64.2046	67	34
64.2046	64.4736	43	53
64.3406	64.4746	55	42
64.3406	64.4746	62	42
64.3446	64.4766	59	42
64.4776	64.7296	48	59
64.6036	64.7326	64	35
64.6046	64.7326	55	35
64.6046	64.7336	60	35
64.7336	64.8546	50	51
64.8556	64.9776	60	35
64.8596	64.9816	55	35
64.8596	64.9826	64	35
64.8626	64.9826	52	55
64.9846	65.2226	53	59
65.1006	65.2236	57	37
65.1036	65.2256	60	37
65.1046	65.2256	62	37
65.2266	65.4896	41	49
65.3556	65.4896	57	31
65.3556	65.4926	60	31
65.3596	65.4926	62	31
65.4956	65.7516	43	56
65.6186	65.7556	55	35
65.6186	65.7516	62	35
65.6196	65.7556	59	35
65.7556	66.0106	31	50
65.8846	66.0136	59	39
65.8856	66.0136	55	39
65.8876	66.0146	62	39
66.0176	66.3005	36	56
66.1566	66.6506	60	49
66.1576	66.6545	55	49
66.1576	66.6506	64	49
66.3005	66.6545	35	62
66.6966	67.3126	71	49
67.0045	67.3156	67	35
67.0076	67.3156	64	35
67.3156	67.6135	66	29
67.3166	67.7646	71	49
67.3195	67.6135	63	29
67.6165	67.9176	62	35
67.6165	67.9146	65	34
67.7676	67.9176	71	40
67.9216	68.8106	61	33
67.9225	68.8116	64	33
67.9225	68.2116	71	49
68.2125	68.8116	70	46
68.5196	68.8136	76	48
68.8136	69.1075	63	33
68.8146	69.1086	75	47
68.8175	69.1086	60	33
68.8175	69.4085	69	33
69.1106	69.4095	74	49
69.1115	69.7235	59	41
69.1115	69.7195	62	41
69.4116	69.7246	67	42
69.7246	70.1785	72	47
69.7275	70.1785	57	39
69.7275	70.1825	62	39
69.7275	70.0245	66	34
70.0255	70.3335	67	39
70.1835	70.3335	71	45
70.1855	70.3335	55	34
70.1865	70.3345	62	34
70.3355	70.9525	67	46
70.3365	70.6445	55	38
70.3365	70.9565	71	46
70.3395	70.9565	62	38
70.6485	70.9565	59	39
70.9575	71.5725	66	45
70.9595	71.5755	62	40
70.9595	71.5755	69	45
71.2645	72.7865	50	38
71.5795	72.1845	62	61
71.8805	72.1845	79	46
71.8835	72.1855	71	46
71.8835	72.1855	74	46
72.1875	72.4855	69	48
72.1875	72.4855	74	48
72.1885	72.4865	78	48
72.1915	72.6355	62	60
72.4885	72.7895	67	50
72.4895	72.7895	73	50
72.4895	72.7905	76	50
72.6365	72.7905	62	56
72.7935	74.3125	69	56
72.7945	74.3155	66	56
72.7945	74.3135	74	56
72.7965	73.0945	62	60
73.0945	73.4055	60	56
73.4095	73.7105	64	58
73.7115	74.0115	62	55
74.0125	74.3165	60	57
74.3195	74.6375	74	45
74.3205	74.6415	59	51
74.3205	74.9735	67	45
74.3225	74.6425	62	51
74.6425	74.9775	72	42
74.6445	74.9785	57	55
74.6455	74.9805	64	55
75.1495	75.3305	60	37
75.1495	75.3315	66	37
75.1525	75.3315	50	40
75.1525	75.3345	57	40
75.3345	76.1325	60	41
75.3355	76.9235	50	45
75.3355	76.1325	66	41
75.3375	76.1335	57	45
76.1335	76.9275	67	36
76.1365	76.9305	43	36
76.1365	76.9275	59	36
