OnsetTime	OffsetTime	MidiPitch	Velocity
0.500004	6.68424	62	74
1.35969	5.72598	61	69
2.21992	6.71352	60	64
3.09849	6.71352	57	61
4.0003	6.71352	54	57
4.91727	5.75782	50	45
5.75782	5.83424	53	39
5.83424	6.71352	51	49
6.68424	7.45011	50	48
6.68424	7.0606	62	53
7.0606	7.18604	62	53
7.18604	7.45011	62	53
7.45011	8.21098	43	34
7.45011	8.21098	50	40
7.45011	8.21098	55	40
7.45011	8.19694	58	47
7.45011	8.19694	62	47
7.45011	8.19694	67	56
7.95174	8.21098	69	53
8.21098	8.97837	43	38
8.21098	8.97837	60	47
8.21098	8.97837	63	51
8.21098	8.97837	66	50
8.21098	8.97837	70	60
8.71972	8.97837	69	52
8.97837	9.75964	43	35
8.97837	9.77309	58	41
8.97837	9.75964	62	48
8.97837	9.50648	67	57
9.50648	9.77309	67	53
9.75964	10.5191	43	35
9.75964	10.5191	50	41
9.75964	10.5191	57	41
9.75964	10.1323	60	53
9.75964	10.1323	62	53
10.1323	10.2565	60	53
10.1323	10.2565	62	53
10.2565	10.5191	60	53
10.2565	10.5191	62	53
10.5191	11.2766	43	34
10.5191	11.2766	50	40
10.5191	11.2766	55	40
10.5191	11.2626	58	47
10.5191	11.2626	62	56
10.5191	11.2626	67	56
11.0185	11.2766	69	53
11.2766	12.0489	43	38
11.2766	12.0489	60	47
11.2766	12.0489	63	60
11.2766	12.0489	66	51
11.2766	12.0489	70	60
11.7834	12.0489	69	51
12.0489	12.8418	43	35
12.0489	12.8418	58	41
12.0489	12.7122	62	41
12.0489	12.5826	67	57
12.5826	12.8418	67	53
12.8418	13.6334	42	35
12.8418	13.6334	54	41
12.8418	13.2273	58	53
12.8418	13.2273	62	53
13.2273	13.3593	58	53
13.2273	13.3593	62	53
13.3593	13.6334	58	53
13.3593	13.6334	62	53
13.6334	15.2598	41	39
13.6334	14.4503	50	48
13.6334	14.4347	58	60
13.6334	14.1621	65	60
14.1621	14.4503	65	58
14.4503	15.2598	51	42
14.4503	15.2598	57	58
14.4503	15.2598	65	58
14.979	15.2598	62	57
15.2598	16.0646	46	48
15.2598	16.0722	50	48
15.2598	16.0722	53	61
15.2598	15.7964	58	61
15.7964	16.0646	58	62
16.0646	16.8689	39	39
16.0646	16.8689	46	48
16.0646	16.8689	55	59
16.0646	16.4599	58	59
16.4599	16.8689	58	59
16.5948	16.8689	60	53
16.8689	17.6963	34	36
16.8689	17.6887	46	42
16.8689	17.6963	53	49
16.8689	17.6887	58	49
16.8689	17.6963	62	49
17.6887	18.4884	39	48
17.6887	18.4884	46	48
17.6887	18.4884	54	46
17.6887	18.0815	58	55
18.0815	18.4884	58	50
18.2143	18.4884	60	56
18.4884	19.2727	34	38
18.4884	19.2727	46	46
18.4884	19.2582	53	48
18.4884	19.2582	58	57
18.4884	19.2582	62	57
19.0044	19.2727	65	60
19.2727	20.0592	41	38
19.2727	20.0592	48	46
19.2727	20.0592	57	56
19.2727	20.0592	63	66
19.2727	20.0592	67	66
19.7937	20.0592	65	56
20.0592	20.9384	46	48
20.0592	20.9384	53	49
20.0592	20.9053	58	52
20.0592	20.9384	62	58
20.6073	20.9384	60	52
20.9053	21.7822	39	33
20.9053	21.7822	51	39
20.9053	21.4838	55	49
20.9053	21.3364	58	49
21.3364	21.7822	58	48
21.4838	21.7822	45	37
21.4838	21.7822	55	41
21.4838	21.7822	60	41
21.7822	24.1852	38	31
21.7822	24.1852	50	38
21.7822	24.1852	54	36
21.7822	24.1852	57	40
21.7822	24.1852	62	49
24.1852	24.5615	74	53
24.5615	24.687	74	53
24.687	24.951	74	53
24.951	25.7143	55	34
24.951	25.7143	62	40
24.951	25.7143	67	40
24.951	25.7002	70	47
24.951	25.7002	74	47
24.951	25.7002	79	56
25.455	25.7143	81	53
25.7143	26.4816	55	36
25.7143	26.4816	72	44
25.7143	26.4816	75	47
25.7143	26.4816	78	51
25.7143	26.4816	82	60
26.223	26.4816	81	51
26.4816	27.2629	55	35
26.4816	28.0225	70	41
26.4816	27.1764	74	48
26.4816	27.0098	79	57
27.0098	28.0225	79	53
27.2629	28.0225	55	35
27.2629	28.0225	62	41
27.2629	28.0225	69	41
27.2629	27.6356	72	53
27.2629	27.6356	74	53
27.6356	27.7598	72	53
27.6356	27.7598	74	53
27.7598	28.0225	72	53
27.7598	28.0225	74	53
28.0225	28.7798	55	34
28.0225	28.7798	62	40
28.0225	28.7798	67	40
28.0225	28.7659	70	47
28.0225	28.7659	74	56
28.0225	28.7659	79	56
28.5218	28.7798	81	53
28.7798	29.5522	55	33
28.7798	29.5522	72	44
28.7798	29.5522	75	52
28.7798	29.5522	78	52
28.7798	29.5522	82	60
29.2867	29.5522	81	51
29.5522	30.3451	55	35
29.5522	30.3451	70	41
29.5522	30.33	74	57
29.5522	30.0859	79	57
30.0859	30.3451	79	53
30.3451	31.1367	54	35
30.3451	31.1367	66	41
30.3451	30.7306	70	53
30.3451	30.7306	74	53
30.7306	30.8626	70	53
30.7306	30.8626	74	53
30.8626	31.1367	70	53
30.8626	31.1367	74	53
31.1367	32.7631	53	36
31.1367	31.9536	62	48
31.1367	31.938	70	60
31.1367	31.6654	77	60
31.6654	31.9536	77	55
31.9536	32.7631	63	42
31.9536	32.7631	69	51
31.9536	32.7631	77	58
32.4823	32.7631	70	61
32.7631	33.5755	58	48
32.7631	33.5755	62	48
32.7631	33.5755	65	55
32.7631	33.2997	70	61
33.2997	33.5679	70	62
33.5679	34.3722	51	39
33.5679	34.3722	63	48
33.5679	34.3722	67	59
33.5679	33.9633	70	59
33.9633	34.3722	70	59
34.0981	34.3722	72	58
34.3722	35.1996	46	36
34.3722	35.192	58	42
34.3722	35.1996	65	49
34.3722	35.192	70	49
34.3722	35.1996	74	49
35.192	35.9917	51	48
35.192	35.9917	58	48
35.192	35.9917	66	46
35.192	35.5848	70	55
35.5848	35.9917	70	50
35.7176	35.9917	72	56
35.9917	36.776	46	38
35.9917	36.776	58	46
35.9917	36.7615	65	48
35.9917	36.7615	70	57
35.9917	36.7615	74	57
36.5077	36.776	77	57
36.776	37.5625	53	38
36.776	37.5625	60	46
36.776	37.5625	69	56
36.776	37.5625	75	56
36.776	37.5625	79	66
37.297	37.5625	77	56
37.5625	38.4417	58	48
37.5625	38.4417	65	49
37.5625	38.4086	70	58
37.5625	38.4417	74	58
38.1106	38.4417	72	52
38.4086	39.2855	51	33
38.4086	39.2855	63	39
38.4086	39.2855	67	49
38.4086	38.8397	70	49
38.8397	39.2855	70	48
38.9871	39.2855	57	37
38.9871	39.2855	72	41
39.2855	42.5097	50	31
39.2855	41.7438	62	38
39.2855	42.5097	66	40
39.2855	42.5097	69	40
39.2855	42.5097	74	49
41.7438	42.1202	62	53
42.1202	42.2456	62	53
42.2456	42.5097	62	53
42.5097	44.0426	43	34
42.5097	44.0426	56	40
42.5097	43.2612	59	47
42.5097	43.2612	62	47
42.5097	43.2612	65	56
43.016	43.2612	67	54
43.2104	43.2752	70	51
43.2752	44.0426	59	51
43.2752	44.0426	62	60
43.2752	44.0426	68	60
43.784	44.0426	67	55
44.0426	45.6016	43	35
44.0426	44.8239	55	41
44.0426	44.7648	59	48
44.0426	44.7648	62	48
44.0426	44.5707	65	57
44.5707	44.8239	65	53
44.8239	45.609	53	41
44.8239	45.6016	56	53
44.8239	45.6016	59	53
45.1965	45.609	51	39
45.1965	45.609	60	53
45.3208	45.609	50	40
45.3208	45.6016	62	53
45.6016	47.1346	43	34
45.6016	47.1346	56	40
45.6016	46.3532	59	47
45.6016	46.3532	62	47
45.6016	46.3532	65	56
46.108	46.3532	67	58
46.3024	46.3672	70	51
46.3672	47.1346	59	51
46.3672	47.1346	62	53
46.3672	47.1346	68	60
46.8759	47.1346	67	55
47.1346	47.8526	43	35
47.1346	47.9237	56	41
47.1346	47.9155	59	48
47.1346	47.9237	62	48
47.1346	47.6627	65	57
47.6627	47.9237	65	53
47.8526	48.6959	43	66
47.9155	48.6959	59	62
47.9155	48.2881	67	67
47.9155	48.6959	74	67
47.9155	48.2881	77	79
47.9155	48.2881	79	79
48.2881	48.6959	61	55
48.2881	48.415	67	61
48.2881	48.6959	70	61
48.2881	48.415	77	72
48.2881	48.415	79	72
48.415	48.6959	62	57
48.415	48.6959	67	61
48.415	48.6959	71	61
48.415	48.6959	77	72
48.415	48.6959	79	72
48.6959	49.4157	36	69
48.6959	49.4157	48	69
48.6959	49.2022	79	70
48.6959	49.4157	84	70
48.6959	49.2022	87	70
48.6959	49.4157	91	84
49.2022	49.4705	60	50
49.2022	49.4705	67	50
49.2022	49.4705	72	60
49.2022	49.4705	75	68
49.2022	49.4705	79	68
49.2022	49.4705	87	81
49.4705	49.8398	60	53
49.4705	49.8398	67	53
49.4705	49.8398	72	64
49.4705	50.2185	75	72
49.4705	49.8398	79	72
49.4705	50.2185	87	85
49.8398	49.963	60	52
49.8398	49.963	67	52
49.8398	49.963	72	62
49.8398	50.2185	74	67
49.8398	49.963	79	67
49.8398	50.2185	86	79
49.963	50.2185	60	52
49.963	50.2185	67	62
49.963	50.2185	72	67
49.963	50.2185	79	67
49.963	50.2185	84	79
50.2185	50.5879	60	53
50.2185	50.5879	68	53
50.2185	50.5879	71	64
50.2185	50.5879	74	72
50.2185	50.5879	77	72
50.2185	50.8835	86	85
50.5879	50.711	60	49
50.5879	50.711	68	59
50.5879	50.711	71	62
50.5879	50.711	74	62
50.5879	50.8835	77	74
50.711	50.9027	60	49
50.711	50.9027	68	59
50.711	50.9027	71	62
50.711	50.9027	74	62
50.711	50.9027	79	74
50.9027	50.9704	82	66
50.9704	51.342	60	50
50.9704	51.342	68	61
50.9704	51.342	71	64
50.9704	51.342	74	64
50.9704	51.723	80	78
51.342	51.4675	60	48
51.342	51.4675	68	58
51.342	51.4675	71	62
51.342	51.4675	74	62
51.342	51.723	79	73
51.4675	51.723	60	45
51.4675	51.723	68	55
51.4675	51.723	71	58
51.4675	51.723	74	58
51.4675	51.723	77	69
51.723	52.0947	60	50
51.723	52.0947	67	61
51.723	52.0947	72	66
51.723	52.0947	75	80
52.0947	52.2201	60	47
52.0947	52.2201	67	57
52.0947	52.2201	72	62
52.0947	52.2201	75	62
52.0947	52.4088	78	74
52.2201	52.4818	60	47
52.2201	52.4818	67	57
52.2201	52.4818	72	62
52.2201	52.4818	75	62
52.2201	52.4818	79	74
52.4818	52.8512	60	53
52.4818	52.8512	67	53
52.4818	52.8512	72	64
52.4818	53.2299	75	72
52.4818	52.8512	79	72
52.4818	53.2299	87	85
52.8512	52.9743	60	52
52.8512	52.9743	67	52
52.8512	52.9743	72	62
52.8512	53.2299	74	67
52.8512	52.9743	79	67
52.8512	53.2299	86	79
52.9743	53.2299	60	49
52.9743	53.2299	67	49
52.9743	53.2299	72	63
52.9743	53.2299	79	63
52.9743	53.2299	84	75
53.2299	53.5992	60	53
53.2299	53.5992	68	53
53.2299	53.5992	71	64
53.2299	53.5992	74	72
53.2299	53.5992	77	72
53.2299	53.8948	86	85
53.5992	53.7223	60	49
53.5992	53.7223	68	59
53.5992	53.7223	71	62
53.5992	53.7223	74	62
53.5992	53.8948	77	74
53.7223	53.914	60	49
53.7223	53.914	68	59
53.7223	53.914	71	62
53.7223	53.914	74	62
53.7223	53.914	79	74
53.914	53.9817	82	67
53.9817	54.3534	60	50
53.9817	54.3534	68	61
53.9817	54.3534	71	64
53.9817	54.3534	74	64
53.9817	54.6513	80	78
54.3534	54.4788	60	48
54.3534	54.4788	68	58
54.3534	54.4788	71	62
54.3534	54.4788	74	62
54.3534	54.6513	79	73
54.4788	54.7344	60	48
54.4788	54.7344	68	58
54.4788	54.7344	71	62
54.4788	54.7344	74	62
54.4788	54.7344	77	73
54.7344	55.4819	60	50
54.7344	55.4819	67	61
54.7344	55.1037	72	66
54.7344	55.1037	75	80
55.1037	55.2268	72	62
55.1037	55.2268	75	62
55.1037	55.4249	78	74
55.2268	55.4819	72	62
55.2268	55.4819	75	62
55.2268	55.4819	79	74
55.4819	56.2304	58	50
55.4819	56.2304	67	50
55.4819	55.9706	74	68
55.4819	55.8553	79	68
55.4819	56.2304	86	81
55.8553	56.1623	79	74
55.9706	56.2262	74	74
56.2304	57.7469	57	50
56.2304	57.6787	63	50
56.2304	56.7278	72	68
56.2304	56.6073	79	68
56.2304	56.8556	84	81
56.6073	56.8514	79	70
56.7278	56.8556	72	68
56.8556	56.9894	81	62
56.9195	57.6787	84	62
56.9894	57.7469	62	50
56.9894	57.6787	72	51
56.9894	57.6787	74	51
56.9894	57.6787	78	51
56.9894	57.4913	81	72
57.3656	57.6787	79	69
57.4913	57.7469	81	69
57.7469	59.2798	55	50
57.7469	58.5128	62	50
57.7469	58.443	70	68
57.7469	58.2511	74	68
57.7469	58.5128	82	81
58.1291	58.443	79	74
58.2511	58.5128	74	74
58.5128	59.2798	64	50
58.5128	59.0193	74	72
58.5128	58.8926	79	72
58.5128	59.2103	82	72
58.5128	59.2103	86	72
58.8926	59.2103	79	69
59.0193	59.2798	74	69
59.2798	60.8324	57	50
59.2798	60.0418	65	50
59.2798	59.7863	69	57
59.2798	59.6595	74	68
59.2798	60.0418	81	68
59.6595	59.9737	74	74
59.7863	60.0418	69	56
60.0418	60.8324	64	50
60.0418	60.8324	73	61
60.0418	60.8324	79	61
60.0418	60.5641	81	72
60.4326	60.8324	82	69
60.5641	60.8324	67	45
60.5641	60.8324	81	69
60.8324	61.2158	62	53
60.8324	61.5992	66	45
60.8324	61.5992	74	67
60.8324	61.5992	81	67
60.8324	61.5992	86	79
61.2158	61.3436	61	50
61.3436	61.5992	62	50
61.5992	62.3659	62	53
61.9825	62.1103	74	63
62.1103	62.3659	74	63
62.3659	62.8724	62	49
62.3659	63.9064	67	49
62.3659	63.152	69	60
62.3659	63.152	72	60
62.3659	63.1341	75	71
62.7456	63.152	61	42
62.7456	63.1341	79	61
62.8724	63.1341	62	49
62.8724	63.152	82	61
63.1341	63.9064	62	50
63.1341	63.9064	75	58
63.1341	63.6381	79	58
63.1341	63.9064	86	69
63.5121	63.9064	84	63
63.6381	63.9064	79	63
63.9064	64.4129	62	49
63.9064	65.4469	66	49
63.9064	64.7051	72	56
63.9064	64.7051	74	56
63.9064	64.4129	81	71
64.2862	64.7051	61	42
64.2862	64.7051	82	61
64.4129	64.6747	62	49
64.4129	64.7051	81	61
64.6747	65.4469	62	50
64.6747	65.4469	75	58
64.6747	65.0527	78	58
64.6747	65.4469	84	69
65.0527	65.4469	74	53
65.0527	65.1787	78	53
65.0527	65.4469	82	63
65.1787	65.4469	72	53
65.1787	65.4469	78	53
65.1787	65.4469	81	63
65.4469	65.8321	62	49
65.4469	65.9604	70	60
65.4469	65.9604	74	60
65.4469	65.9604	79	71
65.8321	65.9604	62	42
65.8321	66.2243	72	51
65.8321	66.2622	75	51
65.8321	66.2622	81	61
65.9604	66.2243	62	49
65.9604	66.2622	70	51
65.9604	66.2622	74	51
65.9604	66.2622	79	61
66.2243	67.0111	62	50
66.2243	67.0111	69	55
66.2243	67.0111	72	55
66.2243	67.0111	77	64
66.6132	66.7428	70	49
66.6132	67.0111	74	49
66.6132	67.0111	79	58
66.7428	67.0111	67	49
66.7428	67.0111	70	49
66.7428	67.0111	75	58
67.0111	67.5477	62	49
67.0111	67.8954	66	51
67.0111	67.8954	69	51
67.0111	67.8954	74	61
67.4136	67.8954	63	39
67.5477	67.816	62	44
67.816	68.2191	62	44
68.2191	68.3539	62	47
68.3539	68.6236	62	47
68.6236	69.1371	50	44
68.6236	70.1759	55	44
68.6236	69.4296	57	53
68.6236	69.4296	60	53
68.6236	69.3989	63	63
69.0087	69.4296	49	38
69.0087	69.3989	67	55
69.1371	69.3989	50	44
69.1371	69.4296	70	55
69.3989	70.1759	50	45
69.3989	70.1759	63	51
69.3989	69.9076	67	51
69.3989	70.1759	74	61
69.7804	70.1759	72	57
69.9076	70.1759	67	57
70.1759	70.6823	50	44
70.1759	71.7164	54	44
70.1759	70.9746	60	45
70.1759	70.9746	62	48
70.1759	70.6823	69	63
70.5556	70.9746	49	38
70.5556	70.9746	70	55
70.6823	70.9441	50	44
70.6823	70.9746	69	55
70.9441	71.7164	50	45
70.9441	71.7164	63	51
70.9441	71.7164	66	51
70.9441	71.7164	72	61
71.3221	71.7164	70	57
71.4481	71.7164	69	57
71.7164	72.1072	50	44
71.7164	72.2371	58	53
71.7164	72.2371	62	53
71.7164	72.2371	67	63
72.1072	72.2371	50	38
72.1072	72.5137	60	46
72.1072	72.5682	63	46
72.1072	72.5682	69	55
72.2371	72.5137	50	44
72.2371	72.5682	58	46
72.2371	72.5682	62	46
72.2371	72.5682	67	55
72.5137	73.3359	50	45
72.5137	73.3359	57	49
72.5137	73.3359	60	49
72.5137	73.3359	65	58
72.9141	73.0476	58	42
72.9141	73.3359	62	42
72.9141	73.3359	67	51
73.0476	73.3359	55	42
73.0476	73.3359	58	42
73.0476	73.3359	63	51
73.3359	73.575	50	38
73.3359	74.1457	54	38
73.3359	74.1523	57	58
73.3359	74.1457	62	58
73.4721	73.6078	49	38
73.6078	73.8588	50	38
73.7431	73.8779	49	37
73.8779	74.1523	50	38
74.012	74.1523	49	33
74.1457	74.6693	51	38
74.1457	74.9389	54	38
74.1457	74.9389	60	53
74.1457	74.5384	62	53
74.2766	74.5384	50	33
74.4075	74.9389	49	38
74.5384	74.8041	50	34
74.5384	74.6693	62	53
74.6693	74.9389	51	38
74.6693	74.9389	62	53
74.8041	74.9389	50	30
74.9389	75.7391	43	37
74.9389	75.7391	55	37
74.9389	75.7391	58	47
74.9389	75.7391	62	47
74.9389	75.7391	67	56
75.0682	75.7391	54	40
75.1974	75.7391	53	41
75.3267	75.7391	52	42
75.4559	75.7391	51	44
75.4559	75.7391	69	56
75.5883	75.7391	50	47
75.7207	76.5043	49	47
75.7207	76.5043	63	51
75.7207	76.5043	66	60
75.7207	76.5043	70	60
75.8505	76.5043	50	44
75.9804	76.5043	51	42
76.1103	76.5043	52	41
76.2402	76.5043	53	40
76.2402	76.5043	69	55
76.3722	76.5043	54	40
76.5043	77.338	43	41
76.5043	76.7739	55	41
76.5043	77.0435	58	48
76.5043	77.0435	62	48
76.5043	77.0435	67	57
76.6391	76.8065	54	36
76.7739	77.0109	55	41
76.9087	77.0435	50	37
77.0435	77.338	49	41
77.0435	77.338	67	53
77.1728	77.338	50	36
77.302	78.0776	54	41
77.302	77.6825	60	53
77.302	77.6825	62	53
77.4289	77.6825	50	40
77.5557	78.0776	49	41
77.6825	77.9435	50	36
77.6825	77.8094	60	53
77.6825	77.8094	62	53
77.8094	78.0776	51	42
77.8094	78.0776	60	49
77.8094	78.0776	62	49
77.9435	78.0776	50	41
78.0776	78.8509	43	37
78.0776	78.8443	55	37
78.0776	78.8443	58	47
78.0776	78.8443	62	56
78.0776	78.8443	67	56
78.2051	78.8443	54	40
78.3325	78.8443	53	42
78.46	78.8443	52	44
78.5875	78.8443	51	44
78.5875	78.8509	69	53
78.7192	78.8509	50	42
78.8509	79.6395	49	42
78.8509	79.6395	63	60
78.8509	79.6395	66	60
78.8509	79.6395	70	60
78.9803	79.6395	50	41
79.1097	79.6395	51	40
79.2391	79.6395	52	37
79.3685	79.6395	53	41
79.3685	79.6395	69	52
79.504	79.6395	54	41
79.6395	80.4924	43	41
79.6395	79.912	55	41
79.6395	80.1845	58	43
79.6395	80.1845	62	48
79.6395	80.1845	67	57
79.7758	79.912	54	36
79.912	80.1777	55	41
80.0482	80.1845	50	37
80.1845	80.4924	49	47
80.1845	80.4924	67	53
80.3169	80.4924	50	42
80.4492	81.2575	42	47
80.4492	80.8428	58	53
80.4492	80.8428	62	53
80.5786	80.8428	50	41
80.708	81.2575	49	40
80.8428	81.1176	50	41
80.8428	80.9776	58	53
80.8428	80.9776	62	53
80.9776	81.2575	51	41
80.9776	81.2575	58	49
80.9776	81.2575	62	49
81.1176	81.2575	50	41
81.2575	82.0825	41	49
81.2575	81.5275	50	49
81.2575	81.7978	58	60
81.2575	81.7978	65	60
81.3925	81.5466	49	40
81.5275	81.7978	50	49
81.6624	81.7978	49	40
81.7978	82.0892	50	48
81.7978	82.0825	65	58
81.938	82.0892	49	42
82.0825	82.9042	41	47
82.0825	82.3524	51	47
82.0825	82.6555	57	58
82.0825	82.6555	65	58
82.2175	82.3907	50	41
82.3524	82.6555	51	48
82.4874	82.6555	48	41
82.6224	82.9042	53	47
82.6224	82.9042	62	55
82.7611	82.9042	51	41
82.9042	83.7259	46	47
82.9042	83.1781	50	47
82.9042	83.452	53	61
82.9042	83.452	58	61
83.0412	83.1907	49	38
83.1781	83.4258	50	47
83.3151	83.452	49	38
83.452	83.6871	50	47
83.452	83.7259	58	62
83.589	83.7259	49	41
83.7259	84.5471	39	47
83.7259	84.2672	55	59
83.7259	84.1295	58	59
83.8589	84.5471	45	41
83.9919	84.5471	46	48
84.1295	84.4071	51	44
84.1295	84.5471	58	59
84.2672	84.5471	55	52
84.2672	84.5471	60	58
84.4071	84.5471	51	41
84.5471	85.2301	46	49
84.5471	84.8167	53	49
84.5471	85.3669	58	49
84.5471	85.4432	62	49
84.6814	85.4432	52	44
84.8167	85.4432	53	48
84.9533	85.4432	49	41
85.0911	85.4432	50	49
85.2301	85.4432	46	41
85.3669	86.1835	39	47
85.3669	85.9036	54	46
85.3669	85.768	58	55
85.4996	86.1835	45	41
85.6323	86.1835	46	42
85.768	86.0435	52	41
85.768	86.1835	58	50
85.9036	86.1835	54	47
85.9036	86.1835	60	56
86.0435	86.1835	52	41
86.1835	86.4469	46	48
86.1835	86.9649	53	48
86.1835	86.9649	58	57
86.1835	86.9649	62	57
86.3152	86.9649	45	41
86.4469	86.8473	46	48
86.5786	86.9649	49	44
86.7104	86.9649	50	47
86.7104	86.9843	65	60
86.8473	86.9843	46	41
86.9843	87.6518	41	52
86.9843	87.8468	57	56
86.9843	87.8468	63	66
86.9843	87.8468	67	66
87.1173	87.8468	47	41
87.2503	87.8468	48	44
87.3833	87.8468	50	47
87.5163	87.8468	51	48
87.5163	87.8468	65	56
87.6518	87.8468	41	41
87.7873	88.0672	46	49
87.7873	88.6924	53	49
87.7873	88.6513	58	51
87.7873	88.6924	62	58
87.9273	88.6924	45	41
88.0672	88.4992	46	47
88.2072	88.6924	49	40
88.3471	88.6924	50	47
88.3471	88.6924	60	52
88.4992	88.6924	46	41
88.6513	89.5544	39	44
88.6513	89.242	55	49
88.6513	89.0915	58	49
88.7962	89.3944	45	41
88.9411	89.5544	46	44
89.0915	89.5544	48	37
89.0915	89.5544	58	48
89.242	89.5544	51	41
89.242	89.5544	55	41
89.242	89.5544	60	41
89.3944	89.5544	45	37
89.5544	89.8653	38	47
89.5544	92.8516	54	40
89.5544	92.8516	57	40
89.5544	92.0858	62	49
89.7173	89.8803	49	41
89.8803	90.1967	50	47
90.026	90.1967	44	41
90.1709	90.4214	46	47
90.3057	90.4405	45	41
90.4405	90.6843	41	47
90.5753	90.7102	42	41
90.7102	90.9476	37	47
90.845	90.9803	38	41
90.9803	91.319	32	47
91.1412	91.319	33	41
91.319	92.8516	38	49
92.0858	92.4621	62	53
92.4621	92.5876	62	53
92.5876	92.8516	62	53
92.8516	94.3846	43	34
92.8516	94.3846	56	40
92.8516	93.6032	59	47
92.8516	93.6032	62	47
92.8516	93.6032	65	56
93.358	93.6032	67	56
93.5524	93.6172	70	51
93.6172	94.3846	59	51
93.6172	94.3846	62	60
93.6172	94.3846	68	60
94.1259	94.3846	67	56
94.3846	95.9436	43	35
94.3846	95.1659	56	41
94.3846	95.1659	59	48
94.3846	95.1804	62	48
94.3846	94.9127	65	57
94.9127	95.1804	65	53
95.1659	95.9436	53	41
95.1659	95.9436	56	53
95.1659	95.9436	59	53
95.5385	95.9436	51	39
95.5385	95.9436	60	53
95.6627	95.9436	50	40
95.6627	95.9436	62	53
95.9436	97.4765	43	34
95.9436	97.4765	56	40
95.9436	96.6951	59	47
95.9436	96.6951	62	47
95.9436	96.6951	65	56
96.4499	96.6951	67	58
96.6443	96.7091	70	51
96.7091	97.4765	59	51
96.7091	97.4765	62	60
96.7091	97.4765	68	60
97.2179	97.4765	67	59
97.4765	98.1945	43	35
97.4765	98.2657	56	41
97.4765	98.2574	59	48
97.4765	98.2657	62	48
97.4765	98.0046	65	57
98.0046	98.2657	65	53
98.1945	99.0378	43	66
98.2574	99.0378	59	62
98.2574	98.63	67	67
98.2574	99.0378	74	67
98.2574	98.63	77	79
98.2574	98.63	79	79
98.63	99.0378	61	55
98.63	98.757	67	61
98.63	99.0378	70	61
98.63	98.757	77	72
98.63	98.757	79	72
98.757	99.0378	62	57
98.757	99.0378	67	61
98.757	99.0378	71	61
98.757	99.0378	77	72
98.757	99.0378	79	72
99.0378	101.356	36	69
99.0378	100.368	79	70
99.0378	100.494	84	70
99.0378	100.62	87	70
99.0378	101.356	91	84
99.174	101.356	43	61
99.3102	101.356	48	61
99.4464	101.356	51	61
99.5825	101.356	55	69
99.7187	101.356	60	61
99.8549	101.356	63	61
99.9845	101.356	67	61
100.113	101.356	72	59
100.241	101.356	75	63
100.368	101.356	79	68
100.494	101.356	84	72
100.62	101.445	87	79
101.445	102.25	60	53
101.445	101.828	63	58
101.445	101.828	67	58
101.445	102.25	69	58
101.828	102.25	58	51
101.828	101.955	63	58
101.828	101.955	67	58
101.828	102.25	70	70
101.955	102.243	57	52
101.955	102.243	63	58
101.955	102.243	67	58
101.955	102.243	72	70
102.243	103.07	57	59
102.243	103.023	63	63
102.243	103.023	67	63
102.243	103.023	72	77
102.243	103.07	75	77
103.023	103.835	63	59
103.023	103.408	67	58
103.023	103.408	69	58
103.023	103.835	72	70
103.408	103.835	62	57
103.408	103.539	67	63
103.408	103.539	69	63
103.408	103.835	74	77
103.539	103.835	60	57
103.539	103.835	67	62
103.539	103.835	69	62
103.539	103.835	75	74
103.835	104.958	60	61
103.835	104.958	67	70
103.835	104.989	69	70
103.835	104.989	75	82
103.835	104.989	81	82
104.958	105.798	57	52
104.958	105.798	60	58
104.958	105.798	63	58
104.958	105.478	67	69
105.348	105.798	69	60
105.478	105.747	67	58
105.747	106.284	50	51
105.747	106.553	58	51
105.747	106.553	62	58
105.747	106.553	67	58
105.747	106.553	74	69
106.15	106.481	49	41
106.284	106.553	50	47
106.553	107.341	50	47
106.941	107.07	62	57
107.07	107.341	62	57
107.341	107.863	50	49
107.341	108.925	55	49
107.341	108.2	57	56
107.341	108.2	60	56
107.341	108.132	63	67
107.733	108.2	49	41
107.733	108.132	67	59
107.863	108.132	50	49
107.863	108.2	69	59
108.132	108.925	50	48
108.132	108.925	63	57
108.132	108.925	67	57
108.132	108.925	72	68
108.52	108.925	74	59
108.649	108.925	75	59
108.925	109.478	50	49
108.925	109.755	58	49
108.925	109.798	62	56
108.925	109.755	67	56
108.925	109.798	74	67
109.34	109.798	49	41
109.478	109.798	50	49
109.755	110.547	51	48
109.755	110.557	58	48
109.755	110.557	61	55
109.755	110.557	67	66
110.143	110.557	72	56
110.272	110.557	70	59
110.547	111.395	44	48
110.547	111.395	51	48
110.547	111.383	60	55
110.547	111.395	68	66
110.948	111.395	72	55
111.081	111.305	67	56
111.228	111.383	66	55
111.305	111.395	67	56
111.383	112.238	50	48
111.383	112.238	60	52
111.383	111.939	66	62
111.8	112.238	64	55
111.939	112.238	66	55
112.238	113.117	43	49
112.238	112.796	50	49
112.238	113.117	58	44
112.238	113.117	67	52
112.66	113.117	51	41
112.796	113.058	50	49
113.058	113.824	50	48
113.058	113.824	57	45
113.058	113.434	60	45
113.058	113.434	62	53
113.434	113.56	60	45
113.434	113.56	62	53
113.56	113.824	60	45
113.56	113.824	62	53
113.824	114.585	43	34
113.824	114.585	50	40
113.824	114.585	55	40
113.824	114.57	58	47
113.824	114.57	62	47
113.824	114.57	67	56
114.325	114.585	69	55
114.585	115.352	43	38
114.585	115.352	60	47
114.585	115.352	63	51
114.585	115.352	66	50
114.585	115.352	70	60
115.093	115.352	69	53
115.352	116.133	43	35
115.352	116.147	58	41
115.352	116.133	62	48
115.352	115.88	67	57
115.88	116.147	67	53
116.133	116.893	43	35
116.133	116.893	50	41
116.133	116.893	57	41
116.133	116.506	60	53
116.133	116.506	62	53
116.506	116.63	60	53
116.506	116.63	62	53
116.63	116.893	60	51
116.63	116.893	62	51
116.893	117.645	43	34
116.893	117.645	50	40
116.893	117.645	55	40
116.893	117.631	58	47
116.893	117.631	62	56
116.893	117.631	67	56
117.387	117.645	69	55
117.645	118.418	43	38
117.645	118.418	60	47
117.645	118.418	63	51
117.645	118.418	66	51
117.645	118.418	70	60
118.152	118.418	69	51
118.418	119.255	43	35
118.418	119.211	58	41
118.418	119.211	62	51
118.418	118.951	67	57
118.951	119.255	67	53
119.211	120.004	42	35
119.211	120.004	54	41
119.211	119.597	58	53
119.211	119.597	62	53
119.597	119.73	58	53
119.597	119.73	62	53
119.73	120.004	58	50
119.73	120.004	62	50
120.004	121.63	41	39
120.004	120.82	50	48
120.004	120.805	58	60
120.004	120.532	65	60
120.532	120.82	65	58
120.82	121.63	51	42
120.82	121.63	57	58
120.82	121.63	65	58
121.349	121.63	62	56
121.63	122.435	46	45
121.63	122.442	50	45
121.63	122.442	53	61
121.63	122.167	58	61
122.167	122.435	58	62
122.435	123.239	39	39
122.435	123.239	46	48
122.435	123.239	55	59
122.435	122.83	58	59
122.83	123.239	58	59
122.965	123.239	60	58
123.239	124.066	34	36
123.239	124.059	46	42
123.239	124.066	53	49
123.239	124.059	58	49
123.239	124.066	62	49
124.059	124.859	39	48
124.059	124.859	46	48
124.059	124.859	54	46
124.059	124.452	58	55
124.452	124.859	58	50
124.584	124.859	60	56
124.859	125.64	34	38
124.859	125.64	46	46
124.859	125.626	53	48
124.859	125.626	58	57
124.859	125.626	62	57
125.372	125.64	65	60
125.64	126.427	41	38
125.64	126.427	48	46
125.64	126.427	57	56
125.64	126.427	63	66
125.64	126.427	67	66
126.161	126.427	65	56
126.427	127.306	46	48
126.427	127.306	53	49
126.427	127.273	58	52
126.427	127.306	62	58
126.975	127.306	60	52
127.273	128.15	39	33
127.273	128.15	51	39
127.273	127.851	55	49
127.273	127.704	58	49
127.704	128.15	58	48
127.851	128.15	45	37
127.851	128.15	55	41
127.851	128.15	60	41
128.15	130.553	38	31
128.15	130.553	50	35
128.15	130.553	54	38
128.15	130.553	57	40
128.15	130.553	62	49
130.553	130.929	74	53
130.929	131.054	74	53
131.054	131.319	74	53
131.319	132.076	55	34
131.319	132.076	62	40
131.319	132.076	67	40
131.319	132.062	70	47
131.319	132.062	74	47
131.319	132.062	79	56
131.816	132.076	81	53
132.076	132.843	55	38
132.076	132.843	72	43
132.076	132.843	75	51
132.076	132.843	78	51
132.076	132.843	82	60
132.584	132.843	81	50
132.843	133.624	55	35
132.843	133.624	70	41
132.843	133.611	74	48
132.843	133.371	79	57
133.371	133.624	79	53
133.624	134.384	55	35
133.624	134.384	62	41
133.624	134.384	69	41
133.624	133.997	72	53
133.624	133.997	74	53
133.997	134.121	72	53
133.997	134.121	74	53
134.121	134.384	72	53
134.121	134.384	74	53
134.384	135.141	55	34
134.384	135.141	62	40
134.384	135.141	67	40
134.384	135.127	70	47
134.384	135.127	74	56
134.384	135.127	79	56
134.883	135.141	81	55
135.141	135.914	55	38
135.141	135.914	72	45
135.141	135.914	75	51
135.141	135.914	78	51
135.141	135.914	82	60
135.648	135.914	81	53
135.914	136.707	55	35
135.914	136.707	70	41
135.914	136.669	74	57
135.914	136.447	79	57
136.447	136.707	79	53
136.707	137.498	54	35
136.707	137.498	66	41
136.707	137.092	70	53
136.707	137.092	74	53
137.092	137.224	70	53
137.092	137.224	74	53
137.224	137.498	70	53
137.224	137.498	74	53
137.498	139.127	53	39
137.498	138.317	62	48
137.498	138.302	70	60
137.498	138.029	77	60
138.029	138.317	77	58
138.317	139.127	63	42
138.317	139.127	69	58
138.317	139.127	77	58
138.846	139.127	70	61
139.127	139.939	58	42
139.127	139.939	62	48
139.127	139.939	65	54
139.127	139.663	70	61
139.663	139.932	70	62
139.932	140.752	51	39
139.932	140.752	63	48
139.932	140.752	67	59
139.932	140.327	70	59
140.327	140.736	70	59
140.462	140.752	72	58
140.736	141.563	46	36
140.736	141.556	58	42
140.736	141.563	65	49
140.736	141.556	70	49
140.736	141.563	74	49
141.556	142.355	51	48
141.556	142.355	58	48
141.556	142.355	66	46
141.556	141.949	70	55
141.949	142.355	70	50
142.081	142.355	72	56
142.355	143.14	46	38
142.355	143.14	58	46
142.355	143.125	65	48
142.355	143.125	70	57
142.355	143.125	74	57
142.872	143.14	77	60
143.14	143.926	53	38
143.14	143.926	60	46
143.14	143.926	69	56
143.14	143.926	75	66
143.14	143.926	79	66
143.661	143.926	77	56
143.926	144.806	58	48
143.926	144.806	65	49
143.926	144.772	70	58
143.926	144.806	74	58
144.474	144.806	72	52
144.772	145.649	51	33
144.772	145.649	63	39
144.772	145.649	67	49
144.772	145.204	70	49
145.204	145.649	70	48
145.351	145.649	57	37
145.351	145.649	72	41
145.649	148.873	50	31
145.649	148.108	62	38
145.649	148.873	66	40
145.649	148.873	69	40
145.649	148.873	74	49
148.108	148.484	62	53
148.484	148.609	62	53
148.609	148.873	62	53
148.873	150.406	43	34
148.873	150.406	56	40
148.873	149.625	59	47
148.873	149.625	62	47
148.873	149.625	65	56
149.38	149.625	67	55
149.574	149.639	70	51
149.639	150.406	59	51
149.639	150.406	62	60
149.639	150.406	68	60
150.148	150.406	67	55
150.406	151.965	43	35
150.406	151.188	55	41
150.406	151.129	59	48
150.406	151.129	62	48
150.406	150.935	65	57
150.935	151.188	65	53
151.188	151.965	53	41
151.188	151.965	56	53
151.188	151.965	59	53
151.56	151.965	51	39
151.56	151.965	60	53
151.685	151.965	50	40
151.685	151.965	62	53
151.965	153.498	43	34
151.965	153.498	56	40
151.965	152.717	59	47
151.965	152.717	62	47
151.965	152.717	65	56
152.472	152.717	67	57
152.666	152.731	70	51
152.731	153.498	59	51
152.731	153.498	62	60
152.731	153.498	68	60
153.24	153.498	67	55
153.498	154.218	43	35
153.498	154.29	56	41
153.498	154.281	59	48
153.498	154.29	62	48
153.498	154.027	65	57
154.027	154.29	65	53
154.218	155.062	43	66
154.281	155.062	59	62
154.281	154.654	67	67
154.281	155.062	74	67
154.281	154.654	77	79
154.281	154.654	79	79
154.654	155.062	61	55
154.654	154.781	67	61
154.654	155.062	70	61
154.654	154.781	77	72
154.654	154.781	79	72
154.781	155.062	62	57
154.781	155.062	67	61
154.781	155.062	71	61
154.781	155.062	77	72
154.781	155.062	79	72
155.062	155.931	36	69
155.062	155.931	48	69
155.062	155.568	79	70
155.062	155.931	84	70
155.062	155.568	87	70
155.062	155.931	91	84
155.568	155.836	60	50
155.568	155.836	67	50
155.568	155.836	72	60
155.568	155.836	75	68
155.568	155.836	79	68
155.568	155.836	87	81
155.836	156.206	60	53
155.836	156.206	67	53
155.836	156.206	72	64
155.836	156.584	75	72
155.836	156.206	79	72
155.836	156.584	87	85
156.206	156.329	60	52
156.206	156.329	67	52
156.206	156.329	72	62
156.206	156.584	74	67
156.206	156.329	79	67
156.206	156.584	86	79
156.329	156.584	60	52
156.329	156.584	67	62
156.329	156.584	72	67
156.329	156.584	79	67
156.329	156.584	84	79
156.584	156.954	60	53
156.584	156.954	68	53
156.584	156.954	71	64
156.584	156.954	74	72
156.584	156.954	77	72
156.584	157.249	86	85
156.954	157.077	60	49
156.954	157.077	68	59
156.954	157.077	71	62
156.954	157.077	74	62
156.954	157.249	77	74
157.077	157.268	60	49
157.077	157.268	68	59
157.077	157.268	71	62
157.077	157.268	74	62
157.077	157.268	79	74
157.268	157.335	82	66
157.335	157.706	60	50
157.335	157.706	68	61
157.335	157.706	71	64
157.335	157.706	74	64
157.335	158.087	80	78
157.706	157.832	60	48
157.706	157.832	68	58
157.706	157.832	71	62
157.706	157.832	74	62
157.706	158.087	79	73
157.832	158.087	60	48
157.832	158.087	68	58
157.832	158.087	71	62
157.832	158.087	74	62
157.832	158.087	77	73
158.087	158.459	60	50
158.087	158.459	67	61
158.087	158.459	72	66
158.087	158.459	75	80
158.459	158.584	60	47
158.459	158.584	67	57
158.459	158.584	72	62
158.459	158.584	75	62
158.459	158.876	78	74
158.584	158.846	60	47
158.584	158.846	67	57
158.584	158.846	72	62
158.584	158.846	75	62
158.584	158.846	79	74
158.846	159.215	60	53
158.846	159.215	67	53
158.846	159.215	72	64
158.846	159.594	75	72
158.846	159.215	79	72
158.846	159.594	87	85
159.215	159.338	60	52
159.215	159.338	67	52
159.215	159.338	72	62
159.215	159.594	74	67
159.215	159.338	79	67
159.215	159.594	86	79
159.338	159.594	60	52
159.338	159.594	67	52
159.338	159.594	72	67
159.338	159.594	79	67
159.338	159.594	84	79
159.594	159.963	60	53
159.594	159.963	68	53
159.594	159.963	71	64
159.594	159.963	74	72
159.594	159.963	77	72
159.594	160.259	86	85
159.963	160.086	60	49
159.963	160.086	68	59
159.963	160.086	71	62
159.963	160.086	74	62
159.963	160.259	77	74
160.086	160.278	60	49
160.086	160.278	68	59
160.086	160.278	71	62
160.086	160.278	74	62
160.086	160.278	79	74
160.278	160.345	82	67
160.345	160.716	60	50
160.345	160.716	68	61
160.345	160.716	71	64
160.345	160.716	74	64
160.345	161.097	80	78
160.716	160.842	60	48
160.716	160.842	68	58
160.716	160.842	71	62
160.716	160.842	74	62
160.716	161.097	79	73
160.842	161.097	60	48
160.842	161.097	68	58
160.842	161.097	71	62
160.842	161.097	74	62
160.842	161.097	77	73
161.097	161.904	60	50
161.097	161.845	67	61
161.097	161.466	72	66
161.097	161.466	75	80
161.466	161.59	72	62
161.466	161.59	75	62
161.466	161.904	78	74
161.59	161.904	72	62
161.59	161.904	75	62
161.59	161.845	79	74
161.845	162.593	58	50
161.845	162.593	67	50
161.845	162.333	74	68
161.845	162.218	79	68
161.845	162.593	86	81
162.218	162.525	79	74
162.333	162.589	74	68
162.593	164.109	57	50
162.593	164.041	63	50
162.593	163.09	72	68
162.593	162.97	79	68
162.593	163.218	84	81
162.97	163.214	79	70
163.09	163.218	72	66
163.218	163.352	81	62
163.282	164.041	84	62
163.352	164.109	62	50
163.352	164.041	72	51
163.352	164.041	74	51
163.352	164.041	78	51
163.352	163.854	81	72
163.728	164.041	79	69
163.854	164.109	81	69
164.109	165.642	55	50
164.109	164.875	62	50
164.109	164.806	70	68
164.109	164.614	74	68
164.109	164.875	82	81
164.492	164.806	79	71
164.614	164.875	74	68
164.875	165.642	64	50
164.875	165.382	74	72
164.875	165.255	79	72
164.875	165.642	82	72
164.875	165.642	86	72
165.255	165.642	79	69
165.382	165.642	74	69
165.642	167.195	57	50
165.642	166.404	65	50
165.642	166.149	69	57
165.642	166.022	74	68
165.642	166.404	81	68
166.022	166.336	74	74
166.149	166.404	69	66
166.404	167.195	64	50
166.404	167.195	73	61
166.404	167.195	79	61
166.404	166.927	81	72
166.795	167.195	82	69
166.927	167.195	67	45
166.927	167.195	81	69
167.195	167.572	62	53
167.195	167.957	66	45
167.195	167.957	74	67
167.195	167.957	81	67
167.195	167.957	86	79
167.572	167.701	61	50
167.701	167.957	62	50
167.957	168.723	62	53
168.34	168.467	74	63
168.467	168.723	74	63
168.723	169.229	62	49
168.723	170.263	67	49
168.723	169.502	69	60
168.723	169.502	72	60
168.723	169.491	75	71
169.102	169.502	61	42
169.102	169.491	79	61
169.229	169.491	62	49
169.229	169.502	82	61
169.491	170.263	62	50
169.491	170.263	75	58
169.491	169.995	79	58
169.491	170.263	86	69
169.869	170.263	84	63
169.995	170.263	79	63
170.263	170.77	62	49
170.263	171.804	66	49
170.263	171.062	72	52
170.263	171.062	74	52
170.263	170.77	81	71
170.643	171.062	61	42
170.643	171.062	82	61
170.77	171.031	62	49
170.77	171.062	81	61
171.031	171.804	62	50
171.031	171.804	75	58
171.031	171.409	78	58
171.031	171.804	84	69
171.409	171.804	74	53
171.409	171.535	78	53
171.409	171.804	82	63
171.535	171.804	72	53
171.535	171.804	78	53
171.535	171.804	81	63
171.804	172.189	62	49
171.804	172.317	70	60
171.804	172.317	74	60
171.804	172.317	79	71
172.189	172.317	62	42
172.189	172.581	72	51
172.189	172.589	75	51
172.189	172.589	81	61
172.317	172.581	62	49
172.317	172.589	70	51
172.317	172.589	74	51
172.317	172.589	79	61
172.581	173.368	62	50
172.581	173.368	69	55
172.581	173.368	72	55
172.581	173.368	77	64
172.97	173.1	70	49
172.97	173.368	74	49
172.97	173.368	79	58
173.1	173.368	67	49
173.1	173.368	70	49
173.1	173.368	75	58
173.368	173.904	62	49
173.368	174.252	66	51
173.368	174.252	69	51
173.368	174.252	74	61
173.77	174.252	63	39
173.904	174.173	62	44
174.173	174.576	62	44
174.576	174.711	62	47
174.711	174.98	62	47
174.98	175.494	50	44
174.98	176.533	55	44
174.98	175.792	57	53
174.98	175.792	60	53
174.98	175.756	63	63
175.366	175.792	49	38
175.366	175.756	67	55
175.494	175.756	50	44
175.494	175.792	70	55
175.756	176.533	50	45
175.756	176.533	63	51
175.756	176.264	67	51
175.756	176.533	74	61
176.137	176.533	72	57
176.264	176.533	67	57
176.533	177.039	50	44
176.533	178.073	54	44
176.533	177.396	60	47
176.533	177.396	62	50
176.533	177.039	69	63
176.912	177.396	49	38
176.912	177.396	70	55
177.039	177.301	50	44
177.039	177.396	69	55
177.301	178.073	50	45
177.301	178.073	63	51
177.301	178.073	66	51
177.301	178.073	72	61
177.679	178.073	70	57
177.805	178.073	69	57
178.073	178.464	50	44
178.073	178.594	58	53
178.073	178.594	62	53
178.073	178.594	67	63
178.464	178.594	50	38
178.464	178.87	60	46
178.464	178.925	63	46
178.464	178.925	69	55
178.594	178.87	50	44
178.594	178.925	58	46
178.594	178.925	62	46
178.594	178.925	67	55
178.87	179.693	50	45
178.87	179.693	57	49
178.87	179.693	60	49
178.87	179.693	65	58
179.271	179.404	58	42
179.271	179.693	62	42
179.271	179.693	67	51
179.404	179.693	55	42
179.404	179.693	58	42
179.404	179.693	63	51
179.693	179.932	50	38
179.693	180.502	54	38
179.693	180.509	57	58
179.693	180.502	62	58
179.829	179.965	49	38
179.965	180.216	50	38
180.1	180.235	49	37
180.235	180.509	50	38
180.369	180.509	49	33
180.502	181.02	51	38
180.502	181.289	54	38
180.502	181.289	60	53
180.502	180.89	62	53
180.632	180.89	50	33
180.761	181.289	49	38
180.89	181.155	50	34
180.89	181.02	62	53
181.02	181.289	51	38
181.02	181.289	62	53
181.155	181.289	50	33
181.289	182.126	43	37
181.289	182.126	55	37
181.289	182.126	58	47
181.289	182.126	62	47
181.289	182.126	67	56
181.419	182.126	54	40
181.548	182.126	53	41
181.677	182.126	52	42
181.806	182.126	51	44
181.806	182.126	69	56
181.939	182.126	50	47
182.071	182.855	49	47
182.071	182.855	63	51
182.071	182.855	66	60
182.071	182.855	70	60
182.201	182.855	50	44
182.331	182.855	51	42
182.461	182.855	52	41
182.591	182.855	53	40
182.591	182.855	69	59
182.723	182.855	54	40
182.855	183.695	43	41
182.855	183.124	55	41
182.855	183.406	58	48
182.855	183.406	62	48
182.855	183.394	67	57
182.99	183.157	54	36
183.124	183.406	55	41
183.259	183.406	50	37
183.394	183.695	49	41
183.394	183.695	67	53
183.523	183.695	50	36
183.652	184.428	54	41
183.652	184.033	60	53
183.652	184.033	62	53
183.779	184.033	50	40
183.906	184.428	49	41
184.033	184.294	50	36
184.033	184.16	60	53
184.033	184.16	62	53
184.16	184.428	51	42
184.16	184.428	60	51
184.16	184.428	62	51
184.294	184.428	50	41
184.428	185.201	43	37
184.428	185.195	55	37
184.428	185.195	58	47
184.428	185.195	62	56
184.428	185.195	67	56
184.556	185.195	54	40
184.683	185.195	53	42
184.81	185.195	52	44
184.938	185.195	51	44
184.938	185.201	69	56
185.07	185.201	50	42
185.201	185.99	49	42
185.201	185.99	63	60
185.201	185.99	66	60
185.201	185.99	70	60
185.331	185.99	50	41
185.46	185.99	51	40
185.59	185.99	52	37
185.719	185.99	53	41
185.719	185.99	69	53
185.854	185.99	54	41
185.99	186.8	43	41
185.99	186.262	55	41
185.99	186.535	58	48
185.99	186.535	62	48
185.99	186.535	67	57
186.126	186.262	54	36
186.262	186.528	55	41
186.399	186.535	50	37
186.535	186.8	49	47
186.535	186.8	67	53
186.667	186.8	50	42
186.8	187.612	42	47
186.8	187.195	58	53
186.8	187.195	62	53
186.929	187.195	50	41
187.058	187.612	49	37
187.195	187.472	50	41
187.195	187.332	58	53
187.195	187.332	62	53
187.332	187.612	51	42
187.332	187.612	58	49
187.332	187.612	62	49
187.472	187.612	50	41
187.612	188.437	41	49
187.612	187.882	50	49
187.612	188.153	58	60
187.612	188.153	65	60
187.747	187.901	49	44
187.882	188.153	50	49
188.017	188.153	49	42
188.153	188.444	50	48
188.153	188.437	65	58
188.293	188.444	49	42
188.437	189.259	41	47
188.437	188.695	51	47
188.437	188.977	57	58
188.437	188.977	65	58
188.572	188.707	50	41
188.707	188.958	51	48
188.842	188.977	48	41
188.977	189.259	53	47
188.977	189.259	62	59
189.116	189.259	51	41
189.259	190.081	46	47
189.259	189.533	50	47
189.259	189.807	53	61
189.259	189.807	58	61
189.396	189.545	49	39
189.533	189.781	50	47
189.67	189.807	49	41
189.807	190.068	50	47
189.807	190.081	58	62
189.944	190.081	49	41
190.081	190.902	39	47
190.081	190.622	55	59
190.081	190.484	58	59
190.214	190.902	45	41
190.347	190.902	46	48
190.484	190.762	51	44
190.484	190.902	58	59
190.622	190.902	55	52
190.622	190.902	60	58
190.762	190.902	51	41
190.902	191.587	46	49
190.902	191.172	53	49
190.902	191.725	58	49
190.902	191.801	62	49
191.036	191.801	52	44
191.172	191.801	53	48
191.308	191.801	49	41
191.446	191.801	50	49
191.587	191.801	46	41
191.725	192.541	39	47
191.725	192.261	54	46
191.725	192.126	58	55
191.858	192.541	45	41
191.99	192.541	46	42
192.126	192.401	52	41
192.126	192.541	58	50
192.261	192.541	54	47
192.261	192.541	60	56
192.401	192.541	52	41
192.541	192.805	46	48
192.541	193.372	53	48
192.541	193.372	58	57
192.541	193.372	62	57
192.673	193.372	45	41
192.805	193.203	46	48
192.935	193.372	49	44
193.066	193.372	50	47
193.066	193.372	65	60
193.203	193.372	46	41
193.34	194.007	41	52
193.34	194.202	57	56
193.34	194.202	63	66
193.34	194.202	67	66
193.473	194.202	47	41
193.606	194.202	48	44
193.739	194.202	50	47
193.872	194.202	51	48
193.872	194.202	65	56
194.007	194.202	41	41
194.143	194.423	46	49
194.143	195.096	53	49
194.143	195.007	58	50
194.143	195.096	62	58
194.283	195.096	45	41
194.423	194.855	46	47
194.562	195.096	49	40
194.702	195.096	50	47
194.702	195.096	60	52
194.855	195.096	46	41
195.007	195.91	39	44
195.007	195.597	55	49
195.007	195.447	58	49
195.152	195.75	45	41
195.296	195.91	46	44
195.447	195.91	48	37
195.447	195.91	58	48
195.597	195.91	51	41
195.597	195.91	55	41
195.597	195.91	60	41
195.75	195.91	45	37
195.91	196.221	38	47
195.91	199.226	54	40
195.91	199.226	57	40
195.91	198.441	62	49
196.073	196.236	49	41
196.236	196.552	50	47
196.381	196.552	44	41
196.526	196.777	46	47
196.661	196.796	45	41
196.796	197.04	41	47
196.931	197.065	42	41
197.065	197.357	37	47
197.2	197.357	38	41
197.336	197.76	32	47
197.497	197.76	33	41
197.674	199.226	38	49
198.441	198.817	62	53
198.817	198.943	62	53
198.943	199.207	62	53
199.207	200.74	43	34
199.207	200.74	56	40
199.207	199.958	59	47
199.207	199.958	62	47
199.207	199.958	65	56
199.713	199.958	67	58
199.908	199.973	70	51
199.973	200.74	59	51
199.973	200.74	62	60
199.973	200.74	68	60
200.481	200.74	67	55
200.74	202.299	43	35
200.74	201.521	56	41
200.74	201.462	59	48
200.74	201.462	62	48
200.74	201.268	65	57
201.268	201.521	65	53
201.521	202.306	53	41
201.521	202.299	56	53
201.521	202.299	59	53
201.894	202.306	51	39
201.894	202.306	60	53
202.018	202.306	50	40
202.018	202.299	62	53
202.299	203.832	43	34
202.299	203.832	56	40
202.299	203.05	59	47
202.299	203.05	62	47
202.299	203.05	65	56
202.805	203.05	67	58
203.0	203.065	70	51
203.065	203.832	59	51
203.065	203.832	62	60
203.065	203.832	68	60
203.573	203.832	67	56
203.832	204.552	43	35
203.832	204.624	56	41
203.832	204.616	59	48
203.832	204.624	62	48
203.832	204.36	65	57
204.36	204.624	65	53
204.552	205.39	43	66
204.616	205.39	59	62
204.616	204.983	67	67
204.616	205.39	74	67
204.616	204.983	77	79
204.616	204.983	79	79
204.983	205.39	61	55
204.983	205.109	67	61
204.983	205.39	70	61
204.983	205.109	77	72
204.983	205.109	79	72
205.109	205.39	62	57
205.109	205.39	67	61
205.109	205.39	71	61
205.109	205.39	77	72
205.109	205.39	79	72
205.39	207.708	36	69
205.39	206.721	79	70
205.39	206.847	84	70
205.39	206.972	87	70
205.39	207.708	91	84
205.526	207.708	43	61
205.663	207.708	48	61
205.799	207.708	51	61
205.935	207.708	55	69
206.071	207.708	60	61
206.207	207.708	63	61
206.337	207.708	67	61
206.466	207.708	72	59
206.594	207.708	75	63
206.721	207.708	79	68
206.847	207.708	84	72
206.972	207.798	87	79
207.798	208.596	60	53
207.798	208.18	63	58
207.798	208.18	67	58
207.798	208.596	69	58
208.18	208.596	58	51
208.18	208.307	63	58
208.18	208.307	67	58
208.18	208.596	70	70
208.307	208.596	57	52
208.307	208.596	63	58
208.307	208.596	67	58
208.307	208.596	72	70
208.596	209.422	57	59
208.596	209.375	63	63
208.596	209.375	67	63
208.596	209.375	72	77
208.596	209.422	75	77
209.375	210.264	63	59
209.375	209.761	67	58
209.375	209.761	69	58
209.375	210.264	72	70
209.761	210.264	62	57
209.761	209.891	67	63
209.761	209.891	69	63
209.761	210.264	74	77
209.891	210.187	60	57
209.891	210.187	67	62
209.891	210.187	69	62
209.891	210.187	75	74
210.187	211.311	60	61
210.187	211.311	67	70
210.187	211.318	69	70
210.187	211.318	75	82
210.187	211.318	81	82
211.311	212.099	57	52
211.311	212.099	60	58
211.311	212.099	63	58
211.311	211.83	67	69
211.7	212.099	69	60
211.83	212.099	67	58
212.099	212.635	50	51
212.099	212.903	58	51
212.099	212.903	62	58
212.099	212.903	67	58
212.099	212.903	74	69
212.498	212.832	49	41
212.635	212.903	50	47
212.903	213.692	50	47
213.291	213.42	62	57
213.42	213.692	62	53
213.692	214.214	50	49
213.692	215.275	55	49
213.692	214.519	57	56
213.692	214.519	60	56
213.692	214.483	63	67
214.083	214.519	49	41
214.083	214.483	67	59
214.214	214.483	50	49
214.214	214.519	69	59
214.483	215.275	50	48
214.483	215.275	63	57
214.483	215.275	67	57
214.483	215.275	72	68
214.87	215.275	74	59
215.0	215.275	75	59
215.275	215.828	50	49
215.275	216.105	58	49
215.275	216.117	62	56
215.275	216.105	67	56
215.275	216.117	74	67
215.69	216.117	49	41
215.828	216.117	50	49
216.105	216.898	51	48
216.105	216.898	58	48
216.105	216.898	61	55
216.105	216.898	67	66
216.493	216.898	72	56
216.622	216.898	70	59
216.898	217.733	44	48
216.898	217.733	51	48
216.898	217.651	60	55
216.898	217.651	68	66
217.298	217.651	72	55
217.432	217.651	67	56
217.578	217.656	66	55
217.656	217.733	67	56
217.733	218.589	50	48
217.733	218.663	60	52
217.733	218.289	66	62
218.15	218.663	64	55
218.289	218.663	66	55
218.589	219.422	43	49
218.589	219.146	50	49
218.589	219.422	58	44
218.589	219.422	67	52
219.01	219.422	51	41
219.146	219.408	50	49
219.408	220.174	50	48
219.408	220.174	57	45
219.408	219.785	60	45
219.408	219.785	62	53
219.785	219.91	60	45
219.785	219.91	62	53
219.91	220.174	60	49
219.91	220.174	62	49
220.174	220.995	43	51
220.174	220.706	50	51
220.174	220.995	58	47
220.174	220.995	62	47
220.174	220.995	67	56
220.569	220.995	51	42
220.706	220.965	50	51
220.706	220.995	69	55
220.965	221.732	50	50
220.965	221.732	63	51
220.965	221.732	66	60
220.965	221.732	70	60
221.474	221.732	69	54
221.732	222.578	43	51
221.732	222.266	50	51
221.732	222.519	62	48
221.732	222.266	67	57
222.129	222.578	51	42
222.266	222.519	50	51
222.266	222.578	67	53
222.519	223.287	50	50
222.519	223.287	57	40
222.519	222.891	60	53
222.519	222.891	62	53
222.891	223.016	60	53
222.891	223.016	62	53
223.016	223.287	60	53
223.016	223.287	62	53
223.287	224.087	43	51
223.287	223.81	50	51
223.287	224.072	58	47
223.287	224.072	62	56
223.287	224.072	67	56
223.679	224.072	51	40
223.81	224.087	50	49
223.81	224.072	69	54
224.018	224.109	72	44
224.087	224.928	50	47
224.087	224.978	60	47
224.087	224.978	63	56
224.087	224.978	66	56
224.087	224.978	70	56
224.623	224.978	69	52
224.928	225.355	43	41
224.928	225.889	50	41
224.928	225.624	58	49
224.928	225.889	62	49
224.928	226.038	67	49
225.216	226.038	42	49
225.216	226.038	54	49
225.355	226.038	43	49
225.355	226.038	55	49
225.49	226.019	45	50
225.49	226.019	57	50
225.624	226.038	46	51
225.624	226.038	58	51
225.757	226.038	49	52
225.757	226.038	61	52
225.889	226.038	50	53
225.889	226.038	62	53
226.019	226.795	45	50
226.019	226.795	57	50
226.149	226.795	46	51
226.149	226.795	58	51
226.277	226.783	49	51
226.277	226.783	61	51
226.405	226.795	50	52
226.405	226.795	62	52
226.531	226.795	54	53
226.531	226.795	66	53
226.657	226.795	55	56
226.657	226.795	67	56
226.783	227.532	49	51
226.783	227.532	61	51
226.906	227.532	50	52
226.906	227.532	62	52
227.028	227.52	54	56
227.028	227.52	66	56
227.15	227.532	55	57
227.15	227.532	67	57
227.272	227.532	57	59
227.272	227.532	69	59
227.394	227.532	58	60
227.394	227.532	70	60
227.52	228.281	54	56
227.52	228.281	66	56
227.643	228.281	55	58
227.643	228.281	67	58
227.765	228.258	57	59
227.765	228.258	69	59
227.887	228.281	58	60
227.887	228.281	70	60
228.009	228.281	61	61
228.009	228.281	73	61
228.131	228.281	62	62
228.131	228.281	74	62
228.258	229.016	57	57
228.258	229.016	69	57
228.379	229.016	58	58
228.379	229.016	70	58
228.501	228.988	61	60
228.501	228.988	73	60
228.622	229.016	62	61
228.622	229.016	74	61
228.743	229.016	66	64
228.743	229.016	78	64
228.863	229.016	67	66
228.863	229.016	79	66
228.988	229.732	61	68
228.988	229.732	73	59
229.107	229.732	62	61
229.107	229.732	74	61
229.226	229.703	66	63
229.226	229.703	78	63
229.345	229.732	67	65
229.345	229.732	79	64
229.464	229.732	69	67
229.464	229.732	81	66
229.582	229.732	70	68
229.582	229.732	82	68
229.703	230.404	66	70
229.703	230.404	78	64
229.82	230.404	67	62
229.82	230.404	79	66
229.938	230.404	69	66
229.938	230.404	81	69
230.055	230.404	70	69
230.055	230.404	82	72
230.172	230.404	73	72
230.172	230.404	85	74
230.289	230.41	74	76
230.289	230.41	86	77
230.41	230.912	69	74
230.41	230.912	81	74
230.53	230.912	70	77
230.53	230.912	82	77
230.651	230.912	73	81
230.651	230.912	85	81
230.775	230.912	74	83
230.775	230.912	86	83
230.912	231.754	79	93
230.912	231.754	91	93
231.67	232.428	38	70
231.67	232.428	50	84
231.67	232.428	72	79
231.67	232.428	74	79
231.67	232.428	78	93
231.67	232.428	81	93
231.67	232.428	86	93
232.428	233.241	43	84
232.428	233.241	55	84
232.428	233.241	70	79
232.428	233.186	74	79
232.428	233.241	79	93
232.428	233.241	82	93
233.186	233.943	38	70
233.186	233.943	50	84
233.186	233.943	69	79
233.186	233.943	72	79
233.186	233.943	74	93
233.186	233.943	78	93
233.943	236.835	31	77
233.943	236.835	43	92
233.943	236.835	67	86
233.943	235.459	70	86
233.943	236.835	74	96
233.943	235.459	79	102
235.459	236.975	55	79
235.459	236.975	62	79
235.459	236.975	70	93
235.459	236.975	79	90
235.459	236.975	86	102
235.459	236.975	91	108
