OnsetTime	OffsetTime	MidiPitch	Velocity
2.825	2.90778	63	79
2.92435	5.98726	63	83
6.00382	6.08661	60	63
6.00382	6.08661	63	64
6.00382	6.08661	66	63
6.00382	6.08661	68	74
6.10317	9.16608	60	66
6.10317	9.16608	63	66
6.10317	9.16608	66	66
6.10317	9.16608	68	79
9.18264	9.26543	59	63
9.18264	9.26543	63	63
9.18264	9.26543	66	63
9.18264	9.26543	69	74
9.28199	10.0799	59	65
9.28199	10.0799	63	65
9.28199	10.0799	66	65
9.28199	10.0799	69	78
10.1331	10.9664	59	67
10.1331	10.9664	63	69
10.1331	10.9664	66	67
10.1331	10.9664	69	80
11.022	11.8807	53	60
11.022	11.8807	62	60
11.022	11.8807	65	71
11.022	11.8807	69	83
11.938	12.5884	53	60
11.938	12.5884	60	72
11.938	12.5884	63	71
11.938	12.5884	69	83
12.6136	18.3065	46	73
12.6905	18.3065	53	65
12.77	18.3065	58	65
12.8518	15.6794	62	70
12.9367	15.6794	65	70
13.0243	15.5506	70	80
15.5506	15.8077	70	41
15.5506	15.8077	74	46
15.6794	18.3065	62	41
15.6794	15.9346	65	41
15.8077	15.9346	70	41
15.8077	16.0605	74	41
15.8077	16.0605	77	46
15.9346	18.3065	65	41
15.9346	16.1855	70	41
16.0605	16.1855	74	41
16.0605	16.3073	77	41
16.0605	16.3073	82	46
16.1855	18.3065	70	41
16.1855	16.4112	74	41
16.3073	16.4112	77	41
16.3073	16.5102	82	41
16.3073	16.5102	86	46
16.4112	18.3065	74	41
16.4112	16.6046	77	41
16.5102	16.6046	82	41
16.5102	16.6903	86	41
16.5102	16.6903	89	46
16.6046	18.3065	77	41
16.6046	16.7679	82	41
16.6903	16.7679	86	42
16.6903	16.841	89	42
16.6903	16.841	94	48
16.7679	18.3065	82	44
16.7679	16.9103	86	44
16.841	16.9103	89	46
16.841	16.983	94	46
16.841	16.983	98	51
16.9103	18.3065	86	48
16.9103	18.3065	89	54
16.983	18.7477	94	49
16.983	18.7477	98	55
16.983	18.7477	101	49
18.7477	19.0703	88	41
18.7477	19.0703	94	41
18.7477	19.0703	97	46
19.0703	19.3442	91	37
19.0703	19.3442	99	42
19.3442	19.5551	89	39
19.3442	19.5551	98	43
19.5852	19.8178	85	41
19.5852	19.8178	89	41
19.5852	19.8178	93	46
19.8178	19.9917	87	37
19.8178	19.9917	96	42
19.9917	20.1375	86	37
19.9917	20.1375	94	42
20.1583	20.3196	82	41
20.1583	20.3196	85	41
20.1583	20.3196	88	46
20.3196	20.4557	86	39
20.3196	20.4557	91	43
20.4557	20.5686	82	39
20.4557	20.5686	89	43
20.5847	20.7172	76	41
20.5847	20.7172	82	41
20.5847	20.7172	85	46
20.7172	20.8422	79	37
20.7172	20.8422	87	42
20.8422	20.9451	77	39
20.8422	20.9451	86	43
20.9598	21.0679	73	41
20.9598	21.0679	77	41
20.9598	21.0679	81	46
21.0679	21.1695	75	37
21.0679	21.1695	84	42
21.1695	21.2583	74	39
21.1695	21.2583	82	43
21.271	21.3752	70	42
21.271	21.3752	73	42
21.271	21.3752	76	48
21.3752	21.4708	74	41
21.3752	21.4708	79	46
21.4708	21.5546	70	41
21.4708	21.5546	77	47
21.5665	21.6651	64	44
21.5665	21.6651	70	44
21.5665	21.6651	73	50
21.6651	21.759	67	41
21.6651	21.759	75	47
21.759	21.8413	65	41
21.759	21.8413	74	46
21.8534	21.95	61	47
21.8534	21.95	65	47
21.8534	21.95	69	52
21.95	22.0418	63	43
21.95	22.0418	72	49
22.0418	22.122	62	44
22.0418	22.122	70	50
22.1335	22.2265	58	49
22.1335	22.2265	61	49
22.1335	22.2265	64	55
22.2265	22.3146	62	46
22.2265	22.3146	67	51
22.3146	22.3917	58	46
22.3146	22.3917	65	51
22.4027	22.4936	52	55
22.4027	22.4936	58	55
22.4027	22.4936	61	62
22.4936	22.5806	55	51
22.4936	22.5806	63	58
22.5806	22.6567	53	51
22.5806	22.6567	62	58
22.6675	22.925	49	58
22.6675	22.925	53	58
22.6675	22.925	57	65
22.7606	22.925	51	54
22.7606	22.925	60	60
22.8483	22.925	50	54
22.8483	22.925	58	60
22.936	23.1201	46	62
22.936	23.1857	49	62
22.936	23.1857	52	70
23.0312	23.1857	50	59
23.0312	23.1857	55	66
23.1201	23.1979	46	59
23.1201	23.1979	53	66
23.209	23.4912	40	69
23.209	23.4912	46	69
23.209	23.4912	49	77
23.3047	23.4912	43	62
23.3047	23.4912	51	70
23.4027	23.4925	41	62
23.4027	23.4925	50	70
23.5053	24.1239	34	92
24.1239	24.2049	36	74
24.2049	24.2851	34	67
24.2851	24.3641	36	74
24.3641	24.4418	34	72
24.4418	24.5184	36	80
24.5184	24.5938	34	75
24.5938	24.668	36	85
24.668	24.7412	34	79
24.7412	24.8133	36	89
24.8133	24.8847	34	85
24.8847	24.9442	36	93
24.9442	25.0083	34	89
25.0083	25.0772	33	97
25.0772	25.1486	34	85
25.1486	25.3338	46	86
25.7041	26.2623	62	60
25.7362	26.2623	70	60
25.7683	26.2623	77	60
25.8003	26.2623	80	59
25.8324	26.2623	86	64
25.8644	26.2623	89	67
25.8965	26.2623	94	72
26.6282	29.8861	58	74
29.8861	29.9531	81	46
29.9618	30.0294	82	41
30.0381	30.1053	87	43
30.1137	30.1787	84	41
30.187	30.2521	82	41
30.2604	30.3255	80	40
30.3338	30.3988	79	37
30.4072	30.4722	77	42
30.4805	30.5456	75	42
30.5539	30.6189	74	41
30.6273	30.6856	72	41
30.694	30.888	70	46
31.2112	31.4176	39	31
31.2112	31.4176	46	31
31.2112	31.4176	55	31
31.2112	31.4176	58	31
31.2112	31.4176	63	34
31.7617	31.97	39	31
31.7617	31.97	46	31
31.7617	31.97	56	32
31.7617	31.97	58	32
31.7617	31.97	65	36
32.3172	32.5357	39	31
32.3172	32.5357	46	31
32.3172	32.5357	57	31
32.3172	32.5357	58	31
32.3172	32.5357	66	35
32.8998	34.2042	39	33
32.8998	34.2042	46	33
32.8998	33.5955	58	33
32.8998	33.5955	67	37
33.552	33.8781	55	31
33.552	33.8781	63	34
34.2042	34.2556	81	46
34.2645	34.3159	82	41
34.3247	34.3762	91	41
34.3849	34.4346	89	41
34.4431	34.4928	87	41
34.5013	34.551	86	41
34.5596	34.6092	84	41
34.6178	34.6674	82	41
34.676	34.7257	80	40
34.7342	34.7839	79	37
34.7924	34.8421	77	42
34.8506	34.9003	75	42
34.9089	34.9585	74	41
34.9671	35.0236	72	41
35.0321	35.2348	70	46
35.5727	35.785	39	31
35.5727	35.785	46	31
35.5727	35.785	55	29
35.5727	35.785	58	29
35.5727	35.785	63	29
36.1387	36.3731	39	33
36.1387	36.3731	46	33
36.1387	36.3731	56	32
36.1387	36.3731	62	32
36.1387	36.3731	65	36
36.7637	37.0284	39	31
36.7637	37.0284	46	31
36.7637	37.0284	58	31
36.7637	37.0284	67	34
37.4696	39.0893	39	31
37.4696	39.0893	46	31
37.4696	39.0893	55	31
37.4696	39.0893	63	34
39.1597	39.2183	93	46
39.2222	39.2808	94	41
39.2847	39.3316	99	43
39.3355	39.3824	96	41
39.3863	39.4332	94	41
39.4371	39.4839	92	40
39.4878	39.5347	91	37
39.5386	39.5855	89	42
39.5894	39.6362	87	42
39.6402	39.687	86	41
39.6909	39.7378	84	41
39.7417	39.7886	82	41
39.7925	39.8393	80	41
39.8432	39.8901	79	41
39.894	39.9409	77	41
39.9448	39.9917	75	41
39.9956	40.0424	74	41
40.0503	40.0971	72	41
40.0971	40.2962	70	46
40.6319	40.8403	39	33
40.6319	40.8403	46	33
40.6319	40.8403	55	33
40.6319	40.8403	58	33
40.6319	40.8403	63	37
41.1875	41.4038	39	36
41.1875	41.4038	46	36
41.1875	41.4038	56	35
41.1875	41.4038	58	35
41.1875	41.4038	65	40
41.7644	42.0013	39	34
41.7644	42.0013	46	34
41.7644	42.0013	57	34
41.7644	42.0013	58	34
41.7644	42.0013	66	39
42.396	43.9387	39	36
42.396	43.9387	46	36
42.396	43.1394	58	36
42.396	43.1394	67	41
43.0937	43.5162	55	33
43.0937	43.5162	63	37
43.9387	44.012	93	46
44.017	44.0903	94	41
44.0953	44.1458	103	41
44.1509	44.2014	101	41
44.2064	44.2569	99	41
44.262	44.3125	98	41
44.3176	44.3681	96	41
44.3731	44.4236	94	41
44.4287	44.4792	92	40
44.4843	44.5348	91	37
44.5398	44.5903	89	42
44.5954	44.6459	87	42
44.6509	44.7014	86	41
44.7065	44.757	84	41
44.7621	44.8126	82	41
44.8176	44.8681	80	41
44.8732	44.9237	79	41
44.9287	44.9793	77	41
44.9843	45.0348	75	41
45.0399	45.0904	74	41
45.0954	45.1459	72	41
45.151	45.3537	70	46
45.6915	45.91	39	35
45.6915	45.91	46	35
45.6915	45.91	55	36
45.6915	45.91	58	36
45.6915	45.91	63	41
46.2741	46.506	39	36
46.2741	46.506	47	36
46.2741	46.506	56	37
46.2741	46.506	62	37
46.2741	46.506	65	42
46.8926	47.1811	39	35
46.8926	47.1811	46	35
46.8926	47.1811	56	36
46.8926	47.1811	62	36
46.8926	47.1811	67	41
47.6619	49.2591	39	33
47.6619	49.2591	46	33
47.6619	49.2591	51	33
47.6619	49.2591	55	34
47.6619	49.2591	63	39
49.3285	49.697	46	59
49.3935	49.697	45	59
49.4584	49.697	44	59
49.5233	49.697	43	59
49.5883	49.697	42	59
49.6532	49.7165	41	59
49.7181	50.1125	40	62
49.7831	50.1125	39	64
49.848	50.1125	38	66
49.913	50.1125	37	69
49.9779	50.1125	36	71
50.0428	50.1125	35	73
50.1078	50.2493	34	89
50.6738	50.8783	46	46
50.6738	50.8783	53	46
50.6738	50.8783	58	50
50.6738	50.8783	62	56
51.2193	51.4315	46	51
51.2193	51.4315	54	51
51.2193	51.4315	58	56
51.2193	51.4315	60	56
51.2193	51.4315	63	63
51.7853	52.0103	46	48
51.7853	52.0103	55	48
51.7853	52.0103	58	51
51.7853	52.0103	61	51
51.7853	52.0103	64	57
52.3853	54.152	46	50
52.3853	53.0375	58	50
52.3853	53.0375	62	51
52.3853	53.0766	65	58
53.0375	53.3989	53	49
53.0375	53.3989	58	49
53.0375	53.3989	62	55
53.7604	54.152	34	62
53.825	54.152	36	63
53.8897	54.152	38	64
53.9544	54.152	39	66
54.0191	54.152	41	67
54.0838	54.152	43	69
54.1485	54.5033	45	70
54.2131	54.5033	46	71
54.2778	54.5033	48	72
54.3425	54.5033	50	73
54.4072	54.5033	51	75
54.4719	54.5348	52	77
54.5365	54.5977	55	78
54.5995	57.7763	53	70
55.182	55.3943	41	46
55.182	55.3943	46	46
55.182	55.3943	58	49
55.182	55.3943	62	55
55.748	55.9708	41	49
55.748	55.9708	48	49
55.748	55.9708	57	52
55.748	55.9708	63	59
56.3494	56.594	41	48
56.3494	56.594	50	48
56.3494	56.594	57	50
56.3494	56.594	65	56
57.0016	58.4831	46	49
57.0016	58.4213	58	51
57.0016	58.4213	62	57
57.7423	58.1127	34	54
58.4831	58.5397	70	65
58.5412	58.5979	69	65
58.5993	58.656	68	65
58.6575	58.7142	67	65
58.7156	58.7723	66	65
58.7737	58.8304	65	65
58.8319	58.8886	64	67
58.89	58.9467	63	70
58.9482	59.0048	62	72
59.0063	59.063	61	75
59.0644	59.1211	60	78
59.1226	59.1793	59	80
59.1807	59.3057	58	97
59.6807	59.8853	46	49
59.6807	59.8853	53	49
59.6807	59.8853	58	49
59.6807	59.8853	62	52
59.6807	59.8853	70	52
59.6807	59.8853	74	59
60.2262	60.4345	46	54
60.2262	60.4345	54	54
60.2262	60.4345	60	54
60.2262	60.4345	63	57
60.2262	60.4345	70	57
60.2262	60.4345	75	64
60.7817	61.0067	46	51
60.7817	61.0067	55	51
60.7817	61.0067	61	54
60.7817	61.0067	64	54
60.7817	61.0067	70	54
60.7817	61.0067	76	60
61.3817	62.7482	46	52
61.3817	62.7482	53	52
61.3817	62.1023	62	59
61.3817	62.6886	65	51
61.3817	62.6886	70	51
61.3817	62.1023	77	62
62.0339	62.391	58	58
62.0339	62.391	74	58
62.7482	62.8163	46	55
62.8182	62.8864	48	56
62.8883	62.9565	50	57
62.9584	63.0266	51	59
63.0285	63.0966	53	60
63.0985	63.1667	55	62
63.1686	63.2368	57	62
63.2387	63.3069	58	63
63.3087	63.3769	60	64
63.3788	63.447	62	65
63.4489	63.5171	63	67
63.519	63.5871	64	69
63.589	63.6553	67	70
63.6572	65.3186	65	62
64.3801	65.086	53	39
64.3801	65.086	59	39
64.3801	65.086	68	41
64.3801	65.086	74	47
65.086	65.798	53	41
65.086	65.798	60	41
65.086	65.798	69	46
65.086	65.798	75	51
65.3186	65.5511	65	48
65.5511	65.798	67	42
65.798	66.5017	53	36
65.798	66.7734	57	36
65.798	66.0647	63	48
65.798	66.6647	65	41
65.798	66.7734	72	41
65.798	66.7734	77	46
66.0647	66.3387	60	44
66.3387	66.4474	62	43
66.4474	68.3275	46	36
66.5017	68.3275	53	36
66.556	68.3275	62	41
66.6104	68.3275	58	41
66.6647	68.3275	65	41
66.7191	68.3275	70	41
66.7734	68.3275	74	43
68.3742	68.8394	73	52
68.3742	68.8394	77	52
68.3742	68.8394	82	52
68.5733	68.8394	81	43
68.6397	68.8394	72	43
68.6397	68.8394	80	43
68.729	68.8394	71	44
68.729	68.8394	74	44
68.729	68.8394	79	44
68.8178	69.0796	70	46
68.8178	69.3469	78	46
68.9058	69.3469	69	47
68.9058	69.3346	72	47
68.9058	69.3469	77	47
68.9931	69.2503	68	48
68.9931	69.3469	76	48
69.0796	69.3346	67	49
69.0796	69.3469	70	49
69.0796	69.3469	75	49
69.1653	69.3469	66	51
69.1653	69.3469	74	51
69.2503	69.3469	65	52
69.2503	69.3469	68	52
69.2503	69.3469	73	52
69.3346	69.4576	64	54
69.3346	69.4576	67	54
69.3346	69.4576	72	54
69.8264	69.904	48	57
69.8264	70.0004	55	42
69.8264	70.0004	58	42
69.8264	70.0004	64	48
69.904	69.9812	49	59
69.9812	70.0581	48	60
70.0581	70.1344	47	63
70.1344	70.2105	46	64
70.2105	70.286	45	65
70.286	70.4816	44	67
70.286	70.4816	56	46
70.286	70.4816	61	46
70.286	70.4816	65	51
70.8077	70.877	41	58
70.8077	70.9935	59	42
70.8077	70.9935	62	42
70.8077	70.9935	68	48
70.877	70.9473	42	57
70.9473	71.019	41	56
71.019	71.0919	40	56
71.0919	71.1661	39	55
71.1661	71.2459	38	54
71.2459	71.34	37	52
71.34	71.9483	36	46
71.34	71.9483	64	42
71.34	71.9483	67	48
71.9225	72.1545	52	40
71.9225	72.1545	55	36
71.9225	72.1545	60	41
72.5411	73.0009	85	56
72.5411	73.0009	89	56
72.5411	73.0009	94	56
72.7402	73.0009	93	46
72.8066	73.0009	84	47
72.8066	73.0009	92	47
72.8925	73.0009	83	48
72.8925	73.0009	86	48
72.8925	73.0009	91	48
72.9782	73.2326	82	49
72.9782	73.4831	90	49
73.0634	73.4831	81	50
73.0634	73.4831	84	50
73.0634	73.4831	89	50
73.1481	73.4	80	51
73.1481	73.4831	88	51
73.2326	73.4831	79	52
73.2326	73.4831	82	52
73.2326	73.4831	87	52
73.3166	73.4831	78	55
73.3166	73.4831	86	55
73.4	73.4831	77	56
73.4	73.4831	80	56
73.4	73.4831	85	56
73.4831	73.606	76	57
73.4831	73.606	79	57
73.4831	73.606	84	57
73.9749	74.4344	48	57
73.9749	74.0524	60	57
73.9749	74.1489	64	42
73.9749	74.1489	67	42
73.9749	74.1489	70	42
73.9749	74.1489	76	48
74.0524	74.1296	61	59
74.1296	74.2066	60	60
74.2066	74.2829	59	63
74.2829	74.3589	58	64
74.3589	74.4344	57	65
74.4344	74.6235	44	67
74.4344	74.6235	56	67
74.4344	74.6235	65	47
74.4344	74.6235	68	47
74.4344	74.6235	73	47
74.4344	74.6235	77	52
74.9386	75.4871	41	58
74.9386	75.0125	53	58
74.9386	75.1358	69	42
74.9386	75.1358	71	42
74.9386	75.1358	74	42
74.9386	75.1358	80	48
75.0125	75.0871	54	57
75.0871	75.1624	53	56
75.1624	75.2386	52	56
75.2386	75.3154	51	55
75.3154	75.3969	50	54
75.3969	75.4871	49	52
75.4871	76.0776	36	46
75.4871	76.0776	48	46
75.4871	76.0776	67	42
75.4871	76.0776	76	42
75.4871	76.0776	79	48
76.0696	76.3089	55	40
76.0696	76.3089	64	40
76.0696	76.3089	72	41
76.7079	77.1496	65	56
76.7079	77.619	68	56
76.7079	77.4449	72	56
76.7079	77.1496	80	56
76.8055	77.1496	64	50
76.8055	77.1496	79	54
76.903	77.1496	63	51
76.903	77.1496	78	55
76.9957	77.1496	62	52
76.9957	77.1496	77	56
77.0871	77.1777	61	55
77.0871	77.1777	76	58
77.1777	77.6395	60	56
77.1777	77.6395	75	60
77.2676	77.6395	59	57
77.2676	77.6395	74	62
77.3566	77.6395	58	59
77.3566	77.6395	73	63
77.4449	77.6395	57	60
77.4449	77.6395	72	65
77.5323	77.6395	56	62
77.5323	77.6395	71	66
77.619	77.7419	62	64
77.619	77.7419	65	64
77.619	77.7419	68	69
77.619	77.7419	70	69
78.1108	78.1883	46	57
78.1108	78.2848	53	46
78.1108	78.2848	56	46
78.1108	78.2848	62	51
78.1883	78.2655	47	59
78.2655	78.3425	46	60
78.3425	78.4188	45	63
78.4188	78.4948	44	64
78.4948	78.5703	43	65
78.5703	78.7489	42	67
78.5703	78.7489	54	51
78.5703	78.7489	59	51
78.5703	78.7489	63	51
79.0465	79.1179	39	64
79.0465	79.2366	57	47
79.0465	79.2366	60	47
79.0465	79.2366	66	52
79.1179	79.1898	40	64
79.1898	79.2623	39	63
79.2623	79.3356	38	62
79.3356	79.4094	37	62
79.4094	79.4883	36	60
79.4883	79.5713	35	60
79.5713	80.1596	34	59
79.5713	80.1596	62	51
79.5713	80.1596	65	57
80.1596	80.4096	50	55
80.1596	80.4096	53	43
80.1596	80.4096	58	49
80.8262	81.2502	64	56
80.8262	81.7216	68	56
80.8262	81.6336	71	56
80.8262	81.2502	80	56
80.9171	81.2502	63	50
80.9171	81.2502	79	54
81.008	81.2502	62	51
81.008	81.2502	78	55
81.0983	81.2502	61	52
81.0983	81.2502	77	56
81.1886	81.7277	60	55
81.1886	81.7277	76	58
81.2782	81.6336	59	56
81.2782	81.7277	75	60
81.3677	81.7277	58	57
81.3677	81.7277	74	62
81.4566	81.7277	57	59
81.4566	81.7277	73	63
81.5454	81.7277	56	60
81.5454	81.7277	72	65
81.6336	81.7277	59	62
81.6336	81.7277	71	66
81.7216	81.8445	62	64
81.7216	81.8445	65	64
81.7216	81.8445	68	69
81.7216	81.8445	70	69
82.1519	82.7262	46	66
82.2134	82.2988	58	66
82.2134	82.4057	62	51
82.2134	82.4057	65	51
82.2134	82.4057	68	51
82.2134	82.4057	74	58
82.2988	82.3843	59	67
82.3843	82.4698	58	69
82.4698	82.5553	57	69
82.5553	82.6407	56	70
82.6407	82.7262	55	71
82.7262	82.9121	42	71
82.7262	82.9121	54	71
82.7262	82.9121	63	67
82.7262	82.9121	66	67
82.7262	82.9121	71	67
82.7262	82.9121	75	75
83.1601	83.7799	39	72
83.2221	83.2956	51	72
83.2221	83.4191	66	67
83.2221	83.4191	69	67
83.2221	83.4191	72	67
83.2221	83.4191	78	75
83.2956	83.3702	53	72
83.3702	83.4459	51	72
83.4459	83.5228	50	72
83.5228	83.6009	49	72
83.6009	83.6848	48	72
83.6848	83.7799	47	72
83.712	84.4854	34	69
83.7255	85.0577	46	86
83.7391	84.4854	65	71
83.7527	84.4854	70	71
83.7663	84.4854	74	71
83.7799	84.4854	82	88
84.4465	84.6966	50	58
84.4465	84.6966	53	58
84.4465	84.6966	58	73
85.1132	85.6842	70	80
85.1132	85.6842	82	89
85.2876	85.6842	81	70
85.2876	85.6842	93	78
85.3458	85.6842	68	69
85.3458	85.6842	80	77
85.4233	85.6842	79	71
85.4233	85.6842	91	79
85.5002	85.6842	66	71
85.5002	85.6842	78	79
85.5765	85.6842	77	73
85.5765	85.6842	89	82
85.6523	86.1267	64	73
85.6523	86.1267	76	82
85.7275	86.1267	75	75
85.7275	86.1267	87	85
85.8021	86.1267	62	75
85.8021	86.1267	74	85
85.8762	86.1267	73	78
85.8762	86.1267	85	87
85.9497	86.1267	60	78
85.9497	86.1267	72	87
86.0227	86.1402	71	81
86.0227	86.1402	83	90
86.0952	86.3654	58	85
86.0952	86.3654	70	94
86.6357	87.2418	34	71
86.6357	87.2418	41	71
86.6357	87.2418	46	71
86.6357	87.2418	50	70
86.6357	87.2418	53	70
86.6357	87.2418	58	70
86.6357	87.2418	62	78
87.2418	87.7259	74	80
87.2418	87.7259	86	89
87.4162	87.7259	85	70
87.4162	87.7259	97	78
87.4743	87.7259	72	69
87.4743	87.7259	84	77
87.5519	87.7259	83	71
87.5519	87.7259	95	79
87.6288	87.7297	70	71
87.6288	87.7297	82	79
87.7051	88.2237	81	73
87.7051	88.2237	93	82
87.7808	88.2237	68	73
87.7808	88.2237	80	82
87.856	88.2237	79	75
87.856	88.2237	91	85
87.9307	88.2237	66	75
87.9307	88.2237	78	85
88.0047	88.2237	77	78
88.0047	88.2237	89	87
88.0783	88.2237	64	78
88.0783	88.2237	76	87
88.1512	88.2688	75	81
88.1512	88.2688	87	90
88.2237	88.494	62	85
88.2237	88.494	74	94
88.7643	89.3048	34	71
88.7643	89.3048	41	71
88.7643	89.3048	50	71
88.7643	89.3048	53	70
88.7643	89.3048	58	70
88.7643	89.3048	62	70
88.7643	89.3048	65	78
89.3048	89.4268	77	74
89.3048	89.4268	89	83
89.4268	89.5487	88	66
89.4268	89.5487	100	74
89.5487	89.625	75	74
89.5487	89.625	87	83
89.625	89.7005	86	66
89.625	89.7005	98	74
89.7005	89.7749	73	75
89.7005	89.7749	85	85
89.7749	89.8484	84	67
89.7749	89.8484	96	75
89.8484	89.9211	71	77
89.8484	89.9211	83	86
89.9211	89.9936	82	67
89.9211	89.9936	94	75
89.9936	90.066	69	78
89.9936	90.066	81	87
90.066	90.1385	80	69
90.066	90.1385	92	77
90.1385	90.211	67	79
90.1385	90.211	79	88
90.211	90.2834	78	69
90.211	90.2834	90	77
90.2834	90.3559	65	79
90.2834	90.3559	77	88
90.3559	90.4283	76	70
90.3559	90.4283	88	78
90.4283	90.5008	63	80
90.4283	90.5008	75	89
90.5008	90.5733	74	70
90.5008	90.5733	86	78
90.5733	90.6457	61	81
90.5733	90.6548	73	90
90.6457	90.7272	72	71
90.6457	90.7272	84	79
90.7182	90.7997	59	82
90.7182	90.8088	71	92
90.7906	90.8812	70	71
90.7906	90.8812	82	79
90.8631	90.9537	57	82
90.8631	90.9537	69	92
90.9356	91.0261	68	72
90.9356	91.0261	80	80
91.008	91.0986	55	82
91.008	91.0986	67	93
91.0805	91.1711	66	72
91.0805	91.1711	78	80
91.1529	91.5486	53	83
91.1529	91.5486	65	94
91.2254	91.5486	64	72
91.2254	91.5486	76	81
91.2979	91.5486	51	85
91.2979	91.5486	63	95
91.3709	91.5486	62	72
91.3709	91.5486	74	81
91.4438	91.5486	49	86
91.4438	91.5486	61	96
91.5174	91.9466	60	73
91.5174	91.9466	72	82
91.5909	91.9466	47	86
91.5909	91.9466	59	96
91.665	91.9466	58	73
91.665	91.9466	70	82
91.7391	91.9466	45	87
91.7391	91.9466	57	97
91.8137	91.9466	56	73
91.8137	91.9466	68	82
91.8883	91.9992	41	88
91.8883	91.9992	53	98
91.9635	92.4251	50	73
91.9635	92.4251	62	82
92.0387	92.4932	34	94
92.0387	92.4932	46	105
92.4932	92.569	33	83
92.4932	92.569	45	83
92.569	92.6439	34	81
92.569	92.6439	46	81
92.6439	92.7274	38	81
92.6439	92.7274	50	81
92.7183	92.8025	41	82
92.7183	92.8025	53	82
92.7915	92.8768	44	82
92.7915	92.8768	56	82
92.8642	92.9502	46	83
92.8642	92.9502	58	83
92.9359	93.0234	50	83
92.9359	93.0234	62	83
93.0073	93.725	53	85
93.0073	93.2936	65	85
93.0788	93.725	56	85
93.0788	93.3655	68	85
93.1502	93.725	58	86
93.1502	93.4518	70	86
93.2216	93.725	62	86
93.2216	93.5384	74	86
93.2936	93.725	65	86
93.2936	93.6253	77	86
93.3655	93.725	68	87
93.3655	93.7123	80	87
93.4518	93.725	70	87
93.4518	93.725	82	87
93.5384	93.725	74	88
93.5384	93.725	86	88
93.6253	93.725	77	89
93.6253	93.725	89	89
93.7123	93.7995	80	89
93.7123	93.7995	92	89
93.7995	93.8516	81	90
93.7995	93.8516	93	90
93.8704	93.9328	84	87
93.8704	93.9328	96	87
93.9411	94.003	82	86
93.9411	94.003	94	86
94.0113	94.0731	80	86
94.0113	94.0731	92	86
94.0813	94.1428	77	86
94.0813	94.1428	89	86
94.1509	94.2121	74	86
94.1509	94.2121	86	86
94.2202	94.2812	70	86
94.2202	94.2812	82	86
94.2934	94.3539	69	90
94.2934	94.3539	81	90
94.3619	94.4305	72	87
94.3619	94.4305	84	87
94.4305	94.499	70	86
94.4305	94.499	82	86
94.499	94.5676	68	86
94.499	94.5676	80	86
94.5676	94.6361	65	86
94.5676	94.6361	77	86
94.6361	94.7047	62	86
94.6361	94.7047	74	86
94.7047	94.7732	58	86
94.7047	94.7732	70	86
94.7772	94.8377	57	90
94.7772	94.8377	69	90
94.8458	94.9143	60	87
94.8458	94.9143	72	87
94.9143	94.9829	58	86
94.9143	94.9829	70	86
94.9829	95.0514	56	86
94.9829	95.0514	68	86
95.0514	95.12	53	86
95.0514	95.12	65	86
95.12	95.1885	50	86
95.12	95.1885	62	86
95.1885	95.257	46	85
95.1885	95.257	58	85
95.2611	95.3505	45	87
95.2611	95.3505	57	87
95.3469	95.4371	46	89
95.3469	95.4371	58	89
95.4334	95.5247	50	93
95.4334	95.5247	62	93
95.521	95.6227	53	95
95.521	95.6227	65	95
95.6097	95.6994	56	98
95.6097	95.6994	68	98
95.6994	96.1406	45	82
95.6994	96.1406	57	103
96.2435	96.3234	58	72
96.2435	96.3234	70	90
96.3234	96.8788	51	74
96.3234	96.8788	63	94
96.4119	96.8788	62	65
96.4119	96.8788	74	82
96.498	96.8788	49	75
96.498	96.8788	61	95
96.5809	96.8788	60	66
96.5809	96.8788	72	83
96.6613	96.8788	47	78
96.6613	96.8788	59	97
96.7398	96.8788	58	69
96.7398	96.8788	70	86
96.8164	96.9253	45	80
96.8164	96.9253	57	100
96.8904	97.5566	56	71
96.8904	97.5566	68	88
96.9624	97.5566	43	81
96.9624	97.5566	55	101
97.0325	97.5566	54	72
97.0325	97.5566	66	90
97.1014	97.5566	41	82
97.1014	97.5566	53	103
97.1683	97.5566	52	73
97.1683	97.5566	64	92
97.2335	97.5566	39	82
97.2335	97.5566	51	104
97.2972	97.5566	50	74
97.2972	97.5566	62	94
97.3598	97.5566	37	106
97.3598	97.5566	49	106
97.4208	97.5566	48	77
97.4208	97.5566	60	96
97.4805	97.5816	35	108
97.4805	97.5816	47	108
97.5504	97.7379	34	83
97.5504	97.7379	46	103
98.0504	98.2776	39	71
98.0504	98.2776	46	71
98.0504	98.2776	51	71
98.0504	98.2776	63	72
98.0504	98.2776	67	72
98.0504	98.2776	75	90
98.5958	98.8295	39	73
98.5958	98.8295	46	73
98.5958	98.8295	53	73
98.5958	98.8295	65	78
98.5958	98.8295	68	78
98.5958	98.8295	77	97
99.1566	99.4041	39	71
99.1566	99.4041	46	71
99.1566	99.4041	54	71
99.1566	99.4041	66	72
99.1566	99.4041	69	72
99.1566	99.4041	78	90
99.7506	100.978	39	73
99.7506	100.978	46	73
99.7506	100.422	55	92
99.7506	100.422	67	78
99.7506	100.422	70	78
99.7506	100.422	79	97
100.396	100.687	51	88
100.396	100.687	63	72
100.396	100.687	75	89
100.978	101.61	45	95
100.978	101.61	57	95
101.16	101.61	58	86
101.16	101.61	70	86
101.214	101.61	55	90
101.214	101.61	67	90
101.302	101.61	65	78
101.302	101.61	77	78
101.388	101.61	51	93
101.388	101.61	63	93
101.471	101.61	62	80
101.471	101.61	74	80
101.552	102.061	48	95
101.552	102.061	60	95
101.631	102.14	58	83
101.631	102.14	70	83
101.707	102.14	44	97
101.707	102.14	56	97
101.782	102.14	55	85
101.782	102.14	67	85
101.854	102.14	41	101
101.854	102.14	53	101
101.925	102.14	51	88
101.925	102.14	63	88
101.994	102.14	38	103
101.994	102.14	50	103
102.061	102.173	48	90
102.061	102.173	60	90
102.134	102.32	34	103
102.134	102.32	46	103
102.63	102.87	39	74
102.63	102.87	46	74
102.63	102.87	51	74
102.63	102.87	63	79
102.63	102.87	67	79
102.63	102.87	75	88
103.207	103.457	39	79
103.207	103.457	46	79
103.207	103.457	51	79
103.207	103.457	53	79
103.207	103.457	65	85
103.207	103.457	68	85
103.207	103.457	77	95
103.807	104.094	39	74
103.807	104.094	46	74
103.807	104.094	55	74
103.807	104.094	67	79
103.807	104.094	70	79
103.807	104.094	79	88
104.496	105.67	39	72
104.496	105.67	46	72
104.496	105.67	55	72
104.496	105.67	63	74
104.496	105.67	67	74
104.496	105.67	75	83
105.721	105.786	93	46
105.79	105.855	94	41
105.859	105.904	99	43
105.908	105.953	96	41
105.957	106.002	94	41
106.005	106.05	92	40
106.054	106.099	91	37
106.102	106.147	89	42
106.151	106.195	87	42
106.199	106.243	86	41
106.247	106.291	84	41
106.295	106.339	82	41
106.342	106.386	80	41
106.39	106.434	79	41
106.437	106.481	77	41
106.485	106.528	75	41
106.532	106.575	74	41
106.583	106.626	72	41
106.626	106.832	70	46
107.179	107.395	51	33
107.179	107.395	55	33
107.179	107.395	58	33
107.179	107.395	63	37
107.755	107.985	50	36
107.755	107.985	56	35
107.755	107.985	59	35
107.755	107.985	65	40
108.368	108.618	38	34
108.368	108.618	57	34
108.368	108.618	60	34
108.368	108.618	66	39
109.034	110.577	43	33
109.034	109.743	50	33
109.034	109.743	59	34
109.034	109.743	67	39
109.732	110.155	47	31
109.732	110.155	55	32
109.732	110.155	62	36
110.577	110.644	90	31
110.577	110.644	94	31
110.644	110.711	91	31
110.644	110.711	95	31
110.711	110.778	95	33
110.711	110.778	103	33
110.778	110.845	93	33
110.778	110.845	102	33
110.845	110.907	91	33
110.845	110.907	100	33
110.907	110.969	90	33
110.907	110.969	98	33
110.969	111.03	88	33
110.969	111.03	96	33
111.03	111.092	86	32
111.03	111.092	95	32
111.092	111.153	84	32
111.092	111.153	93	32
111.153	111.214	83	32
111.153	111.214	91	32
111.214	111.274	81	32
111.214	111.274	90	32
111.274	111.335	79	32
111.274	111.335	88	32
111.335	111.395	78	31
111.335	111.395	86	31
111.395	111.455	76	31
111.395	111.455	84	31
111.455	111.514	74	31
111.455	111.514	83	31
111.514	111.574	72	31
111.514	111.574	81	31
111.574	111.799	71	31
111.574	111.799	79	31
112.174	112.765	48	32
112.174	112.765	60	36
112.174	112.765	64	36
112.174	112.765	67	41
112.819	113.4	41	35
112.819	113.4	60	36
112.819	113.4	65	36
112.819	113.4	68	41
113.516	114.325	34	34
113.516	114.325	46	34
113.516	114.325	56	34
113.516	114.325	62	34
113.516	114.325	70	39
114.399	116.243	39	34
114.399	116.243	46	34
114.399	116.243	55	33
114.399	116.243	63	33
114.399	116.243	70	37
116.366	116.95	43	82
116.366	116.95	55	92
116.95	117.363	39	79
116.95	117.363	51	88
117.145	117.363	36	82
117.145	117.363	48	92
117.316	117.481	35	78
117.316	117.481	47	87
117.481	117.606	36	78
117.481	117.606	48	87
117.481	117.647	55	88
117.647	117.771	38	78
117.647	117.771	50	87
117.813	118.072	39	82
117.813	118.072	51	92
117.813	118.774	60	92
117.98	118.14	38	78
117.98	118.14	50	87
118.14	118.26	39	78
118.14	118.26	51	87
118.14	118.461	67	87
118.3	118.421	41	78
118.3	118.421	53	87
118.461	118.752	43	82
118.461	118.752	55	92
118.461	119.391	62	92
118.62	118.774	42	79
118.62	118.774	54	88
118.774	118.89	43	79
118.774	118.89	55	88
118.774	119.084	59	88
118.929	119.045	45	79
118.929	119.045	57	88
119.084	119.327	47	85
119.084	119.327	59	95
119.084	119.993	74	92
119.24	119.391	45	79
119.24	119.391	57	88
119.391	119.505	47	79
119.391	119.505	59	88
119.391	119.543	65	88
119.543	119.656	43	79
119.543	119.656	55	88
119.694	119.867	48	88
119.694	119.867	60	98
119.694	120.286	63	90
119.846	119.993	47	80
119.846	119.993	59	89
119.993	120.103	48	80
119.993	120.103	60	89
119.993	120.14	67	93
120.14	120.25	50	80
120.14	120.25	62	89
120.286	120.449	51	93
120.286	120.578	63	103
120.286	120.72	79	96
120.436	120.578	50	81
120.436	120.578	62	90
120.578	120.684	51	81
120.578	120.684	63	90
120.578	120.72	72	86
120.72	120.827	53	81
120.72	120.827	65	90
120.72	120.862	80	81
120.862	121.584	55	93
120.862	121.584	67	103
120.862	121.72	72	86
120.862	121.72	74	86
121.199	121.72	43	82
121.199	121.72	50	82
121.199	121.584	59	92
121.199	121.584	62	72
121.199	121.72	71	81
121.584	122.113	55	85
121.584	122.113	59	85
121.584	122.113	62	85
121.584	122.113	67	95
121.584	122.113	79	85
121.584	122.113	83	85
121.584	122.113	86	85
121.584	122.113	91	95
122.113	122.234	79	75
122.113	122.234	91	85
122.274	122.391	80	79
122.274	122.391	92	88
122.43	122.541	79	75
122.43	122.541	91	85
122.579	122.88	53	62
122.579	123.178	59	69
122.579	123.178	62	69
122.579	122.69	80	75
122.579	122.69	92	85
122.728	122.842	74	75
122.728	122.842	86	85
122.88	123.473	51	67
122.88	123.178	67	75
122.88	122.995	79	79
122.88	122.995	91	88
123.033	123.142	78	75
123.033	123.142	90	85
123.178	123.473	60	77
123.178	123.287	79	75
123.178	123.287	91	85
123.324	123.435	72	75
123.324	123.435	84	85
123.473	123.587	77	79
123.473	123.587	89	88
123.625	123.733	76	77
123.625	123.733	88	86
123.769	124.063	50	62
123.769	124.362	56	69
123.769	124.063	59	62
123.769	123.878	77	77
123.769	123.878	89	86
123.914	124.025	71	77
123.914	124.025	83	86
124.063	124.362	48	67
124.063	124.362	63	75
124.063	124.174	75	79
124.063	124.174	87	88
124.212	124.325	74	75
124.212	124.325	86	85
124.362	124.683	51	63
124.362	124.683	55	63
124.362	124.683	60	71
124.362	124.475	75	75
124.362	124.475	87	85
124.513	124.654	44	63
124.513	124.64	72	75
124.513	124.64	84	85
124.683	125.881	44	75
124.683	124.832	63	67
124.683	124.832	67	75
124.683	124.832	72	75
124.683	124.832	84	85
124.832	124.959	62	64
124.832	124.959	65	72
124.832	124.959	70	72
124.832	124.959	82	81
124.984	125.13	62	64
124.984	125.13	65	72
124.984	125.13	70	72
124.984	125.13	82	81
125.13	125.257	60	64
125.13	125.257	63	72
125.13	125.257	68	72
125.13	125.257	80	81
125.282	125.429	60	69
125.282	125.429	63	77
125.282	125.429	68	77
125.282	125.429	80	86
125.429	125.555	58	64
125.429	125.555	62	72
125.429	125.555	67	72
125.429	125.555	79	81
125.581	125.729	58	64
125.581	125.729	62	72
125.581	125.729	67	72
125.581	125.729	79	81
125.729	125.856	56	64
125.729	125.856	60	72
125.729	125.856	66	72
125.729	125.856	78	81
125.881	126.035	56	67
125.881	126.035	60	75
125.881	126.035	66	75
125.881	126.035	78	85
126.035	126.148	55	66
126.035	126.148	59	74
126.035	126.148	67	74
126.035	126.148	79	83
126.186	126.369	43	78
126.186	126.369	55	87
126.186	126.369	79	95
126.186	126.369	91	106
126.549	127.052	55	82
126.549	127.052	67	92
127.052	127.22	51	79
127.052	127.22	63	88
127.22	127.38	48	82
127.22	127.38	60	92
127.38	127.534	47	78
127.38	127.534	59	87
127.534	127.687	31	79
127.534	127.649	48	78
127.534	127.649	60	87
127.687	127.8	50	78
127.687	127.8	62	87
127.838	128.75	36	82
127.838	127.994	51	82
127.838	127.994	63	92
127.994	128.146	50	78
127.994	128.146	62	87
128.146	128.449	43	78
128.146	128.259	51	78
128.146	128.259	63	87
128.297	128.411	53	78
128.297	128.411	65	87
128.449	129.344	38	82
128.449	128.601	55	82
128.449	128.601	67	92
128.601	128.75	54	79
128.601	128.75	66	88
128.75	129.048	35	79
128.75	128.862	55	79
128.75	128.862	67	88
128.899	129.011	57	79
128.899	129.011	69	88
129.048	129.927	50	82
129.048	129.198	59	85
129.048	129.198	71	95
129.198	129.344	57	79
129.198	129.344	69	88
129.344	129.49	41	79
129.344	129.453	59	79
129.344	129.453	71	88
129.49	129.599	55	79
129.49	129.599	67	88
129.635	130.493	39	72
129.635	129.783	60	88
129.635	129.783	72	98
129.783	129.927	59	80
129.783	129.927	71	89
129.927	130.07	43	82
129.927	130.034	60	80
129.927	130.034	72	89
130.07	130.178	62	80
130.07	130.178	74	89
130.213	130.63	55	86
130.213	130.357	63	93
130.213	130.357	75	103
130.357	130.493	62	81
130.357	130.493	74	90
130.493	130.63	48	77
130.493	130.596	63	81
130.493	130.596	75	90
130.63	130.767	56	72
130.63	130.733	65	81
130.63	130.733	77	90
130.767	131.09	48	77
130.767	131.458	50	86
130.767	130.928	67	93
130.767	130.928	79	103
131.09	131.458	47	81
131.09	131.366	55	104
131.458	131.982	55	75
131.458	131.982	59	75
131.458	131.982	62	75
131.458	131.982	67	95
131.982	132.102	55	67
131.982	132.102	67	85
132.143	132.261	56	71
132.143	132.261	68	88
132.301	132.413	55	67
132.301	132.413	67	85
132.45	132.707	56	67
132.45	132.707	68	85
132.45	132.752	77	64
132.45	132.752	83	81
132.45	132.752	86	81
132.6	132.714	50	67
132.6	132.714	62	85
132.752	132.987	55	71
132.752	132.987	67	88
132.752	133.047	75	72
132.752	133.316	83	72
132.752	133.316	91	90
132.9	133.01	54	67
132.9	133.01	66	85
133.047	133.316	55	67
133.047	133.316	67	85
133.047	133.342	72	63
133.047	133.342	75	63
133.047	133.342	84	79
133.194	133.316	48	67
133.194	133.316	60	85
133.342	133.456	53	71
133.342	133.456	65	88
133.494	133.603	52	69
133.494	133.603	64	86
133.639	133.899	53	69
133.639	133.899	65	86
133.639	133.933	74	67
133.639	133.933	80	67
133.639	133.933	86	85
133.785	133.899	47	69
133.785	133.899	59	86
133.933	134.168	51	71
133.933	134.168	63	88
133.933	134.223	79	73
133.933	134.437	86	73
133.933	134.437	91	92
134.08	134.187	50	67
134.08	134.187	62	85
134.223	134.437	51	67
134.223	134.437	63	85
134.223	134.509	72	65
134.223	134.509	79	65
134.223	134.509	84	82
134.366	134.473	48	67
134.366	134.473	60	85
134.509	134.615	46	67
134.509	134.615	58	85
134.651	134.757	44	64
134.651	134.757	56	81
134.792	134.901	43	64
134.792	134.901	55	81
134.792	135.082	80	75
134.792	135.082	84	75
134.792	135.082	92	95
134.937	135.045	41	64
134.937	135.045	53	81
135.082	135.192	39	69
135.082	135.192	51	86
135.082	135.375	79	82
135.082	135.375	84	82
135.082	135.375	91	103
135.228	135.339	43	64
135.228	135.339	55	81
135.375	135.487	41	64
135.375	135.487	53	81
135.375	135.601	83	77
135.375	135.601	91	77
135.375	135.601	95	96
135.525	135.64	38	64
135.525	135.653	50	81
135.678	135.831	35	67
135.678	135.831	47	85
135.678	135.908	84	86
135.678	135.908	87	86
135.678	135.908	96	108
135.831	135.959	36	66
135.831	135.959	48	83
135.985	136.271	51	73
135.985	136.271	55	73
135.985	136.271	60	92
135.985	136.271	63	73
135.985	136.271	67	73
135.985	136.271	72	92
136.367	136.853	34	87
136.367	136.853	46	97
136.367	136.853	58	90
136.367	136.853	70	101
136.691	137.005	41	66
136.691	137.005	44	74
136.691	137.005	62	74
136.691	137.005	65	74
136.853	137.005	34	78
136.853	137.005	46	87
136.853	137.005	58	78
136.853	137.005	70	87
137.005	137.156	34	82
137.005	137.156	46	92
137.005	137.156	58	82
137.005	137.156	70	92
137.156	137.302	33	69
137.156	137.302	45	77
137.156	137.302	57	72
137.156	137.302	69	81
137.302	137.448	34	72
137.302	137.448	46	81
137.302	137.448	58	74
137.302	137.448	70	83
137.448	137.593	38	75
137.448	137.593	50	85
137.448	137.593	62	77
137.448	137.593	74	86
137.593	137.742	41	78
137.593	137.742	53	87
137.593	137.742	65	79
137.593	137.742	77	88
137.742	138.121	46	81
137.742	138.121	58	90
137.742	138.121	70	81
137.742	138.121	82	90
137.885	138.121	50	83
137.885	138.121	62	94
137.885	138.121	74	82
137.885	138.121	86	93
138.027	138.314	53	86
138.027	138.314	65	96
138.027	138.314	77	85
138.027	138.314	89	95
138.167	138.461	56	89
138.167	138.652	68	100
138.167	138.652	80	87
138.167	138.652	92	97
138.314	138.652	53	82
138.314	138.652	65	92
138.314	138.461	77	82
138.314	138.652	89	92
138.461	138.734	50	71
138.461	138.734	56	71
138.461	138.734	58	71
138.461	138.734	62	79
138.461	138.734	74	70
138.461	138.734	77	70
138.461	138.734	86	78
138.825	139.311	34	87
138.825	139.311	46	97
138.825	139.311	58	90
138.825	139.311	70	101
139.149	139.459	41	66
139.149	139.459	44	74
139.149	139.459	62	66
139.149	139.459	65	74
139.311	139.459	34	78
139.311	139.459	46	87
139.311	139.459	58	78
139.311	139.459	70	87
139.459	139.607	34	82
139.459	139.607	46	92
139.459	139.607	58	82
139.459	139.607	70	92
139.607	139.75	33	69
139.607	139.75	45	77
139.607	139.75	57	72
139.607	139.75	69	81
139.75	139.894	34	72
139.75	139.894	46	81
139.75	139.894	58	74
139.75	139.894	70	83
139.894	140.038	38	75
139.894	140.038	50	85
139.894	140.038	62	77
139.894	140.038	74	86
140.038	140.185	41	78
140.038	140.185	53	87
140.038	140.185	65	79
140.038	140.185	77	88
140.185	140.587	46	81
140.185	140.587	58	90
140.185	140.587	70	81
140.185	140.587	82	90
140.333	140.587	50	83
140.333	140.587	62	94
140.333	140.587	74	82
140.333	140.587	86	93
140.484	140.796	53	86
140.484	140.796	65	96
140.484	140.796	77	85
140.484	140.796	89	95
140.635	140.975	56	89
140.635	141.18	68	100
140.635	141.18	80	87
140.635	141.18	92	97
140.796	141.18	53	82
140.796	141.18	65	92
140.796	141.18	77	82
140.796	141.18	89	92
140.975	141.268	47	71
140.975	141.268	56	71
140.975	141.268	59	71
140.975	141.268	62	79
140.975	141.268	71	70
140.975	141.268	74	70
140.975	141.268	83	78
141.365	141.904	43	100
141.365	141.904	55	100
141.365	141.904	67	92
141.365	141.904	79	102
141.904	142.073	39	78
141.904	142.073	51	78
141.904	142.073	63	78
141.904	142.073	75	87
142.073	142.196	36	82
142.073	142.196	48	82
142.073	142.196	60	82
142.073	142.196	72	93
142.236	142.357	35	78
142.236	142.357	47	78
142.236	142.357	59	78
142.236	142.357	71	87
142.398	142.554	36	78
142.398	142.632	39	57
142.398	142.632	43	57
142.398	142.554	48	78
142.398	142.554	60	78
142.398	142.632	63	57
142.398	142.632	67	57
142.398	142.554	72	87
142.554	142.71	38	78
142.554	142.71	50	78
142.554	142.71	62	78
142.554	142.71	74	87
142.71	142.83	39	81
142.71	143.335	43	60
142.71	143.335	48	60
142.71	142.83	51	81
142.71	142.83	63	81
142.71	143.335	67	60
142.71	143.335	72	60
142.71	142.83	75	90
142.87	142.988	38	78
142.87	142.988	50	78
142.87	142.988	62	78
142.87	142.988	74	87
143.027	143.181	39	78
143.027	143.181	51	78
143.027	143.181	63	78
143.027	143.181	75	87
143.181	143.335	41	78
143.181	143.335	53	78
143.181	143.335	65	78
143.181	143.335	77	87
143.335	143.454	43	81
143.335	143.57	48	60
143.335	143.57	50	60
143.335	143.454	55	81
143.335	143.454	67	81
143.335	143.57	72	60
143.335	143.57	74	60
143.335	143.454	79	90
143.493	143.621	42	78
143.493	143.621	54	78
143.493	143.621	66	78
143.493	143.621	78	87
143.646	143.796	43	78
143.646	143.87	47	60
143.646	143.87	50	60
143.646	143.796	55	78
143.646	143.796	67	78
143.646	143.87	71	60
143.646	143.87	74	60
143.646	143.796	79	87
143.796	143.945	45	78
143.796	143.945	57	78
143.796	143.945	69	78
143.796	143.945	81	87
143.945	144.06	47	83
143.945	144.06	59	83
143.945	144.06	71	83
143.945	144.06	83	94
144.099	144.234	45	78
144.099	144.234	57	78
144.099	144.234	69	78
144.099	144.234	81	87
144.247	144.394	47	78
144.247	144.468	50	60
144.247	144.468	53	60
144.247	144.394	59	78
144.247	144.394	71	78
144.247	144.468	74	60
144.247	144.468	77	60
144.247	144.394	83	87
144.394	144.542	43	78
144.394	144.542	55	78
144.394	144.542	67	78
144.394	144.542	79	87
144.542	144.667	48	88
144.542	144.765	51	67
144.542	144.667	60	88
144.542	144.667	72	88
144.542	144.765	75	67
144.542	144.667	84	98
144.692	144.838	47	77
144.692	144.838	59	77
144.692	144.838	71	77
144.692	144.838	83	86
144.838	144.983	48	78
144.838	145.056	51	67
144.838	145.056	55	67
144.838	144.983	60	78
144.838	144.983	72	78
144.838	145.056	75	67
144.838	145.056	79	67
144.838	144.983	84	87
144.983	145.129	50	80
144.983	145.129	62	80
144.983	145.129	74	80
144.983	145.129	86	89
145.129	145.254	51	90
145.129	145.35	55	70
145.129	145.35	60	70
145.129	145.254	63	90
145.129	145.254	75	90
145.129	145.35	79	70
145.129	145.35	84	70
145.129	145.254	87	101
145.279	145.421	50	78
145.279	145.421	62	78
145.279	145.421	74	78
145.279	145.421	86	87
145.421	145.562	51	81
145.421	145.633	56	70
145.421	145.633	60	70
145.421	145.562	63	81
145.421	145.562	75	81
145.421	145.633	80	70
145.421	145.633	84	70
145.421	145.562	87	90
145.562	145.704	53	82
145.562	145.704	65	82
145.562	145.704	77	82
145.562	145.704	89	93
145.704	145.873	55	90
145.704	145.873	59	90
145.704	145.873	67	90
145.704	145.873	79	90
145.704	145.873	83	90
145.704	145.873	91	99
146.043	146.319	43	77
146.043	146.319	50	77
146.043	146.319	55	77
146.043	146.319	59	77
146.043	146.319	62	77
146.043	146.319	67	86
146.411	146.943	55	80
146.411	146.943	59	80
146.411	146.943	62	80
146.411	146.943	67	89
146.411	146.943	79	85
146.411	146.943	83	85
146.411	146.943	86	85
146.411	146.943	91	95
146.943	147.121	43	72
146.943	147.121	55	80
146.943	147.121	79	82
146.943	147.121	91	93
147.121	147.291	41	74
147.121	147.291	47	74
147.121	147.291	53	83
147.121	147.291	80	86
147.121	147.291	86	86
147.121	147.291	92	96
147.291	147.458	40	72
147.291	147.458	52	80
147.291	147.458	79	82
147.291	147.458	91	93
147.458	147.623	41	72
147.458	147.623	47	72
147.458	147.623	53	80
147.458	147.623	80	82
147.458	147.623	86	86
147.458	147.623	92	93
147.623	147.784	47	72
147.623	147.784	59	80
147.623	147.784	74	82
147.623	147.784	86	93
147.784	147.943	39	74
147.784	147.943	51	83
147.784	147.943	79	86
147.784	147.943	91	96
147.943	148.1	38	72
147.943	148.1	50	80
147.943	148.1	78	82
147.943	148.1	90	93
148.1	148.257	39	72
148.1	148.257	48	80
148.1	148.257	51	80
148.1	148.257	79	82
148.1	148.257	84	82
148.1	148.257	91	93
148.257	148.417	44	72
148.257	148.417	56	80
148.257	148.417	72	82
148.257	148.417	84	93
148.417	148.572	38	74
148.417	148.572	44	74
148.417	148.572	50	83
148.417	148.572	77	86
148.417	148.572	84	86
148.417	148.572	89	96
148.572	148.723	37	72
148.572	148.723	49	81
148.572	148.723	76	83
148.572	148.723	88	94
148.723	148.836	38	72
148.723	148.836	43	72
148.723	148.836	50	81
148.723	148.836	77	83
148.723	148.836	83	83
148.723	148.836	89	94
148.873	149.028	43	72
148.873	149.028	55	81
148.873	149.028	71	83
148.873	149.028	83	94
149.028	149.176	36	74
149.028	149.176	48	83
149.028	149.176	75	86
149.028	149.176	87	96
149.176	149.321	35	72
149.176	149.321	47	80
149.176	149.321	74	82
149.176	149.321	86	93
149.321	149.43	36	72
149.321	149.43	43	72
149.321	149.43	48	80
149.321	149.43	75	82
149.321	149.43	79	82
149.321	149.43	87	93
149.466	149.609	39	72
149.466	149.609	51	80
149.466	149.609	72	82
149.466	149.609	84	93
149.609	149.893	41	74
149.609	149.893	53	83
149.609	149.716	70	86
149.609	149.716	74	86
149.609	149.716	82	96
149.752	149.857	68	82
149.752	149.857	80	93
149.893	150.001	51	72
149.893	150.001	63	80
149.893	150.001	67	82
149.893	150.001	79	93
150.037	150.146	50	72
150.037	150.146	62	80
150.037	150.146	65	82
150.037	150.146	77	93
150.182	150.292	48	75
150.182	150.292	60	85
150.182	150.292	63	87
150.182	150.292	75	97
150.329	150.439	43	72
150.329	150.439	55	80
150.329	150.439	67	82
150.329	150.439	79	93
150.476	150.588	44	72
150.476	150.588	56	80
150.476	150.588	65	82
150.476	150.588	71	93
150.476	150.588	77	93
150.626	150.753	43	72
150.626	150.753	55	80
150.626	150.74	62	82
150.626	150.753	74	93
150.778	150.934	35	72
150.778	150.934	47	80
150.778	150.934	59	82
150.778	150.934	71	93
150.934	151.055	36	71
150.934	151.055	48	79
150.934	151.055	60	82
150.934	151.055	72	92
151.095	151.333	48	78
151.095	151.333	51	78
151.095	151.333	55	78
151.095	151.333	60	87
151.095	151.333	72	90
151.095	151.333	75	90
151.095	151.333	79	90
151.095	151.333	84	101
151.937	152.012	63	87
152.012	153.113	63	92
153.113	153.383	35	77
153.113	153.383	47	86
153.113	153.383	59	78
153.113	153.383	71	87
153.383	153.592	36	71
153.383	153.592	48	79
153.383	153.592	60	72
153.383	153.592	72	80
153.661	153.899	48	62
153.661	153.899	54	62
153.661	153.899	56	62
153.661	153.899	63	70
153.661	153.899	75	62
153.661	153.899	78	62
153.661	153.899	80	62
153.661	153.899	87	69
154.533	154.608	60	60
154.533	154.608	63	63
154.533	154.608	66	60
154.533	154.608	68	67
154.608	155.67	60	67
154.608	155.67	63	69
154.608	155.67	66	67
154.608	155.67	68	75
155.67	155.758	35	60
155.67	155.758	47	67
155.67	156.361	63	50
155.67	156.361	66	50
155.67	156.361	69	56
155.846	155.937	36	57
155.846	155.937	48	64
156.028	156.278	42	52
156.028	156.278	54	59
156.361	157.077	63	51
156.361	157.077	66	51
156.361	157.077	69	57
156.361	156.455	71	57
156.361	156.455	83	64
156.55	156.648	72	54
156.55	156.648	84	60
156.746	156.994	78	52
156.746	156.994	90	59
157.077	157.862	62	49
157.077	157.862	65	49
157.077	157.862	69	55
157.077	157.174	76	54
157.077	157.174	88	60
157.272	157.388	77	50
157.272	157.388	89	56
157.504	157.772	89	49
157.504	157.772	101	55
157.862	157.989	40	51
157.862	157.989	52	65
157.862	159.194	60	46
157.862	159.194	63	46
157.862	159.194	69	58
158.116	158.355	41	51
158.116	158.355	53	64
158.435	159.194	53	47
158.435	159.194	65	59
159.194	160.975	58	47
159.194	160.975	62	47
159.194	160.975	70	59
160.392	160.834	34	54
160.392	160.834	46	60
160.686	160.975	41	52
160.686	160.975	44	52
160.834	160.94	34	54
160.834	160.94	46	54
160.975	161.046	34	50
160.975	161.046	46	56
161.116	161.185	33	51
161.116	161.185	45	58
161.253	161.322	34	51
161.253	161.322	46	58
161.391	161.459	38	52
161.391	161.459	50	59
161.528	161.598	41	55
161.528	161.598	53	62
161.669	161.74	46	57
161.669	161.74	58	64
161.811	161.883	50	57
161.811	161.883	62	64
161.955	162.028	53	58
161.955	162.028	65	65
162.1	162.171	56	60
162.1	162.171	68	67
162.242	162.316	53	57
162.242	162.316	65	64
162.39	162.551	50	49
162.39	162.551	62	55
162.712	163.153	58	51
162.712	163.153	70	58
163.006	163.295	65	51
163.006	163.295	68	51
163.153	163.259	58	46
163.153	163.259	70	51
163.295	163.365	58	48
163.295	163.365	70	54
163.436	163.505	57	50
163.436	163.505	69	56
163.573	163.642	58	51
163.573	163.642	70	57
163.711	163.779	62	51
163.711	163.779	74	57
163.848	163.918	65	52
163.848	163.918	77	59
163.988	164.059	70	55
163.988	164.059	82	62
164.13	164.202	74	55
164.13	164.202	86	62
164.275	164.348	77	56
164.275	164.348	89	63
164.419	164.489	80	58
164.419	164.489	92	65
164.558	164.632	77	55
164.558	164.632	89	62
164.706	164.865	74	47
164.706	164.865	86	52
164.785	164.865	68	43
164.865	164.944	62	44
164.944	165.024	53	47
165.024	165.318	46	49
165.612	165.681	80	48
165.612	165.681	92	54
165.751	165.825	77	43
165.751	165.825	89	49
165.898	166.057	71	39
165.898	166.057	83	43
165.978	166.057	56	39
166.057	166.137	53	41
166.137	166.216	47	43
166.216	166.51	39	44
166.804	166.873	92	41
166.873	166.942	89	41
166.942	167.012	83	41
167.012	167.081	82	41
167.081	167.15	80	41
167.15	167.219	77	41
167.219	167.288	71	41
167.288	167.357	70	41
167.357	167.426	68	41
167.426	167.495	65	41
167.495	167.564	59	41
167.564	167.634	58	41
167.634	167.703	56	41
167.703	167.772	53	41
167.772	167.842	47	41
167.842	167.912	46	41
167.912	168.07	38	41
168.504	169.017	62	35
168.528	169.017	69	36
168.552	169.017	72	37
168.576	169.017	78	39
168.6	169.017	81	40
168.624	169.017	84	41
168.648	169.017	90	42
168.672	169.017	93	43
169.411	169.918	58	36
169.411	169.904	65	37
169.442	169.904	68	39
169.474	169.904	74	40
169.506	169.904	80	41
169.537	169.904	86	42
169.569	169.904	94	43
170.156	170.246	58	34
170.246	170.35	60	36
170.315	170.417	58	35
170.384	170.484	60	37
170.45	170.555	58	35
170.52	170.622	60	37
170.589	170.687	58	36
170.654	170.755	60	39
170.72	170.823	58	36
170.789	170.891	60	39
170.857	170.959	58	36
170.925	171.024	60	40
170.991	171.089	58	37
171.057	171.153	60	40
171.121	171.215	58	37
171.184	171.277	60	40
171.246	171.339	58	37
171.307	171.403	60	40
171.371	171.466	58	36
171.435	171.505	60	40
171.482	171.55	58	36
171.527	171.595	60	39
171.572	171.639	58	36
171.617	171.713	57	36
171.713	171.811	58	36
171.811	171.907	60	41
171.875	171.969	59	39
171.938	172.033	60	41
172.001	172.095	59	39
172.064	172.156	60	41
172.126	172.23	59	39
172.185	172.258	60	41
172.23	172.297	59	39
172.274	172.343	60	42
172.32	172.39	59	40
172.366	172.466	58	40
172.466	172.567	59	40
172.567	172.662	62	44
172.631	172.723	60	41
172.693	172.782	62	44
172.753	172.842	60	41
172.812	172.903	62	44
172.872	172.98	60	41
172.934	173.026	62	44
172.98	173.049	60	41
173.026	173.094	62	46
173.072	173.137	60	42
173.115	173.202	59	42
173.202	173.3	60	42
173.3	173.394	62	46
173.363	173.453	61	42
173.423	173.514	62	47
173.482	173.577	61	42
173.545	173.639	62	48
173.609	173.698	61	43
173.669	173.735	62	49
173.713	173.781	61	44
173.758	173.828	62	49
173.804	173.875	61	44
173.852	173.922	62	49
173.899	173.97	61	46
173.946	174.018	62	50
173.994	174.066	61	46
174.043	174.136	62	50
174.105	174.195	61	46
174.166	174.255	62	51
174.225	174.317	61	44
174.286	174.379	62	51
174.348	174.44	61	44
174.409	174.477	62	49
174.455	174.522	61	43
174.5	174.566	62	48
174.544	174.611	61	42
174.588	174.655	62	46
174.633	174.7	61	42
174.677	174.747	62	46
174.723	174.795	61	41
174.771	174.869	62	46
174.836	174.936	61	40
174.902	175.002	62	43
174.969	175.068	61	39
175.035	175.133	62	41
175.101	175.209	61	37
175.165	175.265	62	40
175.232	175.331	61	36
175.298	175.397	62	37
175.364	175.489	61	34
175.428	175.696	60	33
175.696	176.008	61	29
176.008	176.633	62	27
178.544	178.605	81	46
178.613	178.674	82	41
178.681	178.742	87	43
178.749	178.807	84	41
178.814	178.872	82	41
178.879	178.937	80	40
178.944	179.002	79	37
179.01	179.067	77	42
179.075	179.132	75	42
179.14	179.197	74	41
179.205	179.257	72	41
179.264	179.461	70	46
179.79	179.999	39	31
179.79	179.999	46	31
179.79	179.999	55	31
179.79	179.999	58	31
179.79	179.999	63	34
180.346	180.56	39	31
180.346	180.56	46	31
180.346	180.56	56	32
180.346	180.56	58	32
180.346	180.56	65	36
180.917	181.142	39	31
180.917	181.142	46	31
180.917	181.142	57	31
180.917	181.142	58	31
180.917	181.142	66	35
181.517	182.822	39	33
181.517	182.822	46	33
181.517	182.175	58	33
181.517	182.175	67	37
182.17	182.496	55	31
182.17	182.496	63	34
182.822	182.873	81	46
182.882	182.933	82	41
182.942	182.994	91	41
183.002	183.052	89	41
183.061	183.11	87	41
183.119	183.169	86	41
183.177	183.227	84	41
183.235	183.285	82	41
183.294	183.343	80	40
183.352	183.401	79	37
183.41	183.46	77	42
183.468	183.518	75	42
183.526	183.576	74	41
183.585	183.641	72	41
183.65	183.852	70	46
184.19	184.402	39	31
184.19	184.402	46	31
184.19	184.402	55	29
184.19	184.402	58	29
184.19	184.402	63	33
184.756	184.991	39	33
184.756	184.991	46	33
184.756	184.991	56	32
184.756	184.991	62	32
184.756	184.991	65	36
185.381	185.646	39	31
185.381	185.646	46	31
185.381	185.646	58	31
185.381	185.646	67	34
186.087	187.707	39	31
186.087	187.707	46	31
186.087	187.707	55	31
186.087	187.707	63	34
187.777	187.837	93	46
187.841	187.901	94	41
187.905	187.953	99	43
187.957	188.005	96	41
188.009	188.057	94	41
188.061	188.109	92	40
188.113	188.161	91	37
188.165	188.213	89	42
188.217	188.265	87	42
188.269	188.317	86	41
188.321	188.369	84	41
188.373	188.421	82	41
188.425	188.473	80	41
188.477	188.525	79	41
188.529	188.577	77	41
188.581	188.629	75	41
188.633	188.681	74	41
188.689	188.737	72	41
188.737	188.936	70	46
189.272	189.48	39	33
189.272	189.48	46	33
189.272	189.48	55	33
189.272	189.48	58	33
189.272	189.48	63	37
189.828	190.044	39	36
189.828	190.044	46	36
189.828	190.044	56	35
189.828	190.044	58	35
189.828	190.044	65	40
190.404	190.641	39	34
190.404	190.641	46	34
190.404	190.641	57	34
190.404	190.641	58	34
190.404	190.641	66	39
191.036	192.579	39	36
191.036	192.579	46	36
191.036	191.734	58	36
191.036	191.734	67	41
191.734	192.156	55	33
191.734	192.156	63	37
192.579	192.649	93	46
192.654	192.724	94	41
192.729	192.778	103	41
192.783	192.831	101	41
192.835	192.884	99	41
192.888	192.936	98	41
192.941	192.989	96	41
192.994	193.041	94	41
193.046	193.094	92	40
193.099	193.146	91	37
193.151	193.198	89	42
193.203	193.25	87	42
193.255	193.301	86	41
193.306	193.353	84	41
193.358	193.404	82	41
193.409	193.456	80	41
193.461	193.508	79	41
193.513	193.561	77	41
193.566	193.614	75	41
193.618	193.666	74	41
193.671	193.72	72	41
193.725	193.927	70	46
194.265	194.478	39	35
194.265	194.478	46	35
194.265	194.478	55	36
194.265	194.478	58	36
194.265	194.478	63	41
194.834	195.079	39	36
194.834	195.079	47	36
194.834	195.079	56	37
194.834	195.079	62	37
194.834	195.079	65	42
195.486	195.775	39	35
195.486	195.775	46	35
195.486	195.775	56	36
195.486	195.775	62	36
195.486	195.775	67	41
196.256	197.853	39	33
196.256	197.853	46	33
196.256	197.853	51	33
196.256	197.853	55	34
196.256	197.853	63	39
197.922	198.299	46	59
197.987	198.299	45	59
198.051	198.299	44	59
198.115	198.299	43	59
198.179	198.299	42	59
198.243	198.305	41	59
198.307	198.689	40	63
198.37	198.689	39	65
198.433	198.689	38	67
198.496	198.689	37	70
198.559	198.689	36	72
198.622	198.689	35	74
198.684	198.825	34	93
199.25	199.455	46	46
199.25	199.455	53	46
199.25	199.455	58	50
199.25	199.455	62	56
199.795	200.008	46	51
199.795	200.008	54	51
199.795	200.008	58	56
199.795	200.008	60	56
199.795	200.008	63	63
200.361	200.586	46	48
200.361	200.586	55	48
200.361	200.586	58	51
200.361	200.586	61	51
200.361	200.586	64	57
200.961	202.337	46	50
200.961	201.614	58	50
200.961	201.614	62	51
200.961	201.632	65	58
201.614	201.975	53	49
201.614	201.975	58	49
201.614	201.975	62	55
202.337	202.737	34	62
202.401	202.737	36	63
202.466	202.737	38	64
202.531	202.737	39	66
202.595	202.737	41	67
202.66	202.737	43	69
202.725	203.207	45	70
202.789	203.207	46	71
202.854	203.207	48	72
202.919	203.207	50	73
202.983	203.207	51	75
203.048	203.207	52	77
203.113	203.207	55	78
203.176	206.318	53	70
203.758	203.97	41	46
203.758	203.97	46	46
203.758	203.97	58	49
203.758	203.97	62	55
204.324	204.547	41	49
204.324	204.547	48	49
204.324	204.547	57	52
204.324	204.547	63	59
204.926	205.17	41	48
204.926	205.17	50	48
204.926	205.17	57	50
204.926	205.17	65	56
205.578	207.059	46	49
205.578	206.998	58	51
205.578	206.998	62	57
206.318	206.689	34	54
207.059	207.444	70	65
207.117	207.444	69	65
207.175	207.444	68	65
207.232	207.444	67	65
207.29	207.444	66	65
207.347	207.444	65	65
207.404	207.459	64	67
207.461	207.78	63	70
207.518	207.78	62	73
207.574	207.78	61	77
207.631	207.78	60	80
207.687	207.78	59	82
207.743	207.868	58	97
208.243	208.447	46	43
208.243	208.447	53	43
208.243	208.447	58	43
208.243	208.447	62	47
208.243	208.447	70	47
208.243	208.447	74	59
208.788	208.997	46	48
208.788	208.997	54	48
208.788	208.997	60	48
208.788	208.997	63	51
208.788	208.997	70	51
208.788	208.997	75	64
209.344	209.567	46	46
209.344	209.567	55	46
209.344	209.567	61	48
209.344	209.567	64	48
209.344	209.567	70	48
209.344	209.567	76	60
209.938	211.304	46	47
209.938	211.304	53	47
209.938	210.59	62	47
209.938	211.245	65	46
209.938	211.245	70	46
209.938	210.59	77	62
210.59	210.947	58	46
210.59	210.947	74	58
211.304	211.373	46	55
211.374	211.443	48	56
211.445	211.513	50	57
211.515	211.583	51	59
211.585	211.653	53	60
211.655	211.723	55	62
211.725	211.793	57	62
211.795	211.863	58	63
211.865	211.933	60	64
211.935	212.003	62	65
212.005	212.073	63	67
212.075	212.143	64	69
212.145	212.212	67	70
212.213	213.875	65	62
212.936	213.642	53	39
212.936	213.642	59	39
212.936	213.642	68	41
212.936	213.642	74	47
213.642	214.354	53	41
213.642	214.354	60	41
213.642	214.354	69	46
213.642	214.354	75	51
213.875	214.107	65	48
214.107	214.354	67	37
214.354	215.058	53	36
214.354	215.33	57	36
214.354	214.621	63	48
214.354	215.221	65	41
214.354	215.33	72	46
214.354	215.33	77	46
214.621	214.895	60	44
214.895	215.004	62	43
215.004	216.884	46	36
215.058	216.884	53	36
215.112	216.884	62	41
215.167	216.884	58	36
215.221	216.884	65	36
215.275	216.884	70	36
215.33	216.884	74	43
216.93	217.387	73	52
216.93	217.387	77	52
216.93	217.387	82	52
217.13	217.387	81	43
217.196	217.387	72	43
217.196	217.387	80	43
217.283	217.387	71	44
217.283	217.387	74	44
217.283	217.387	79	44
217.369	217.624	70	46
217.369	217.877	78	46
217.455	217.877	69	47
217.455	217.873	72	47
217.455	217.877	77	47
217.54	217.791	68	48
217.54	217.877	76	48
217.624	217.873	67	49
217.624	217.877	70	49
217.624	217.877	75	49
217.708	217.877	66	51
217.708	217.877	74	51
217.791	217.877	65	52
217.791	217.877	68	52
217.791	217.877	73	52
217.873	217.996	64	54
217.873	217.996	67	54
217.873	217.996	72	54
218.364	218.442	48	57
218.364	218.538	55	42
218.364	218.538	58	42
218.364	218.538	64	48
218.442	218.519	49	59
218.519	218.596	48	60
218.596	218.672	47	63
218.672	218.748	46	64
218.748	218.824	45	65
218.824	219.02	44	67
218.824	219.02	56	46
218.824	219.02	61	46
218.824	219.02	65	51
219.346	219.415	41	58
219.346	219.531	59	42
219.346	219.531	62	42
219.346	219.531	68	48
219.415	219.485	42	57
219.485	219.557	41	56
219.557	219.63	40	56
219.63	219.704	39	55
219.704	219.784	38	54
219.784	219.878	37	52
219.878	220.46	36	51
219.878	220.46	64	42
219.878	220.46	67	48
220.46	220.692	52	44
220.46	220.692	55	36
220.46	220.692	60	41
221.079	221.538	85	56
221.079	221.538	89	56
221.079	221.538	94	56
221.278	221.538	93	46
221.345	221.538	84	47
221.345	221.538	92	47
221.428	221.538	83	48
221.428	221.538	86	48
221.428	221.538	91	48
221.512	221.76	82	49
221.512	222.016	90	49
221.595	222.016	81	50
221.595	222.004	84	50
221.595	222.016	89	50
221.678	221.923	80	51
221.678	222.016	88	51
221.76	222.004	79	52
221.76	222.016	82	52
221.76	222.016	87	52
221.842	222.016	78	55
221.842	222.016	86	55
221.923	222.016	77	56
221.923	222.016	80	56
221.923	222.016	85	56
222.004	222.126	76	57
222.004	222.126	79	57
222.004	222.126	84	57
222.492	222.951	48	57
222.492	222.569	60	57
222.492	222.665	64	42
222.492	222.665	67	42
222.492	222.665	70	42
222.492	222.665	76	48
222.569	222.646	61	59
222.646	222.723	60	60
222.723	222.799	59	63
222.799	222.876	58	64
222.876	222.951	57	65
222.951	223.14	44	60
222.951	223.14	56	67
222.951	223.14	65	47
222.951	223.14	68	47
222.951	223.14	73	47
222.951	223.14	77	52
223.455	224.004	41	58
223.455	223.529	53	58
223.455	223.652	68	42
223.455	223.652	71	42
223.455	223.652	74	42
223.455	223.652	80	48
223.529	223.604	54	57
223.604	223.679	53	56
223.679	223.755	52	56
223.755	223.832	51	55
223.832	223.913	50	54
223.913	224.004	49	52
224.004	224.586	36	46
224.004	224.586	48	51
224.004	224.586	67	42
224.004	224.586	76	42
224.004	224.586	79	48
224.586	224.826	55	40
224.586	224.826	64	44
224.586	224.826	72	41
225.224	225.678	65	56
225.224	226.11	68	56
225.224	225.941	72	56
225.224	225.678	80	56
225.319	225.678	64	50
225.319	225.678	79	54
225.413	225.678	63	51
225.413	225.678	78	55
225.505	225.678	62	52
225.505	225.678	77	56
225.594	225.682	61	55
225.594	225.682	76	58
225.682	226.13	60	56
225.682	226.13	75	60
225.769	226.13	59	57
225.769	226.13	74	62
225.856	226.13	58	59
225.856	226.13	73	63
225.941	226.13	57	60
225.941	226.13	72	65
226.026	226.13	56	62
226.026	226.13	71	66
226.11	226.233	62	64
226.11	226.233	65	64
226.11	226.233	68	69
226.11	226.233	70	69
226.601	226.679	46	57
226.601	226.775	53	46
226.601	226.775	56	46
226.601	226.775	62	51
226.679	226.756	47	59
226.756	226.833	46	60
226.833	226.909	45	63
226.909	226.986	44	64
226.986	227.061	43	65
227.061	227.24	42	67
227.061	227.24	54	51
227.061	227.24	59	51
227.061	227.24	63	57
227.537	227.609	39	64
227.537	227.727	57	47
227.537	227.727	60	47
227.537	227.727	66	52
227.609	227.681	40	64
227.681	227.753	39	63
227.753	227.826	38	62
227.826	227.9	37	62
227.9	227.979	36	60
227.979	228.062	35	60
228.062	228.65	34	59
228.062	228.65	62	51
228.062	228.65	65	57
228.65	228.9	50	55
228.65	228.9	53	43
228.65	228.9	58	49
229.317	229.758	64	56
229.317	230.212	68	56
229.317	230.124	71	56
229.317	229.758	80	56
229.408	229.758	63	50
229.408	229.758	79	54
229.499	229.758	62	51
229.499	229.758	78	55
229.589	229.758	61	52
229.589	229.758	77	56
229.679	229.769	60	55
229.679	229.769	76	58
229.769	230.124	59	56
229.769	230.203	75	60
229.858	230.203	58	57
229.858	230.203	74	62
229.947	230.203	57	59
229.947	230.203	73	63
230.036	230.203	56	60
230.036	230.203	72	65
230.124	230.212	59	62
230.124	230.212	71	66
230.212	230.335	62	64
230.212	230.335	65	64
230.212	230.335	68	69
230.212	230.335	70	69
230.643	231.217	46	59
230.704	230.79	58	66
230.704	230.896	62	51
230.704	230.896	65	51
230.704	230.896	68	51
230.704	230.896	74	58
230.79	230.875	59	67
230.875	230.961	58	69
230.961	231.046	57	69
231.046	231.131	56	70
231.131	231.217	55	71
231.217	231.403	42	63
231.217	231.403	54	71
231.217	231.403	63	67
231.217	231.403	66	67
231.217	231.403	71	67
231.217	231.403	75	75
231.651	232.271	39	64
231.713	231.786	51	72
231.713	231.91	66	67
231.713	231.91	69	67
231.713	231.91	72	67
231.713	231.91	78	75
231.786	231.861	53	72
231.861	231.937	51	72
231.937	232.014	50	72
232.014	232.092	49	72
232.092	232.176	48	72
232.176	232.271	47	72
232.203	232.937	34	77
232.216	233.548	46	86
232.23	232.937	65	71
232.243	232.937	70	71
232.257	232.937	74	71
232.271	232.937	82	88
232.937	233.187	50	65
232.937	233.187	53	73
232.937	233.187	58	73
233.604	234.079	70	80
233.604	234.079	82	89
233.778	234.079	81	70
233.778	234.079	93	78
233.836	234.079	68	77
233.836	234.079	80	77
233.914	234.079	79	71
233.914	234.079	91	79
233.991	234.092	66	71
233.991	234.092	78	79
234.067	234.575	77	73
234.067	234.575	89	82
234.143	234.575	64	73
234.143	234.575	76	82
234.218	234.575	75	75
234.218	234.575	87	85
234.293	234.575	62	75
234.293	234.575	74	85
234.367	234.575	73	79
234.367	234.575	85	88
234.44	234.575	60	79
234.44	234.575	72	88
234.513	234.631	71	82
234.513	234.631	83	92
234.586	234.856	58	90
234.586	234.856	70	100
235.126	235.732	34	72
235.126	235.732	41	72
235.126	235.732	46	72
235.126	235.732	50	72
235.126	235.732	53	72
235.126	235.732	58	72
235.126	235.732	62	80
235.732	236.19	74	80
235.732	236.19	86	89
235.907	236.19	85	70
235.907	236.19	97	78
235.965	236.19	72	69
235.965	236.19	84	77
236.043	236.19	83	71
236.043	236.19	95	79
236.119	236.22	70	71
236.119	236.22	82	79
236.196	236.714	81	73
236.196	236.714	93	82
236.272	236.714	68	73
236.272	236.714	80	82
236.347	236.714	79	75
236.347	236.714	91	85
236.421	236.714	66	75
236.421	236.714	78	85
236.495	236.714	77	79
236.495	236.714	89	88
236.569	236.714	64	79
236.569	236.714	76	88
236.642	236.759	75	82
236.642	236.759	87	92
236.714	236.985	62	90
236.714	236.985	74	100
237.255	237.796	34	72
237.255	237.796	41	72
237.255	237.796	50	72
237.255	237.796	53	72
237.255	237.796	58	72
237.255	237.796	62	72
237.255	237.796	65	80
237.796	237.917	77	74
237.796	237.917	89	83
237.917	238.039	88	66
237.917	238.039	100	74
238.039	238.116	75	74
238.039	238.116	87	83
238.116	238.191	86	66
238.116	238.191	98	74
238.191	238.266	73	75
238.191	238.266	85	85
238.266	238.339	84	67
238.266	238.339	96	75
238.339	238.412	71	77
238.339	238.412	83	86
238.412	238.484	82	67
238.412	238.484	94	75
238.484	238.557	69	78
238.484	238.557	81	87
238.557	238.629	80	69
238.557	238.629	92	77
238.629	238.702	67	79
238.629	238.702	79	88
238.702	238.774	78	69
238.702	238.774	90	77
238.774	238.847	65	79
238.774	238.847	77	88
238.847	238.919	76	70
238.847	238.919	88	78
238.919	238.992	63	80
238.919	238.992	75	89
238.992	239.064	74	70
238.992	239.064	86	78
239.064	239.136	61	81
239.064	239.146	73	90
239.136	239.218	72	71
239.136	239.218	84	79
239.209	239.29	59	82
239.209	239.299	71	92
239.281	239.372	70	71
239.281	239.372	82	79
239.354	239.444	57	82
239.354	239.444	69	92
239.426	239.517	68	72
239.426	239.517	80	80
239.499	239.589	55	82
239.499	239.589	67	93
239.571	239.662	66	72
239.571	239.662	78	80
239.644	239.982	53	83
239.644	239.982	65	94
239.716	239.982	64	72
239.716	239.982	76	81
239.789	239.982	51	85
239.789	239.982	63	95
239.862	239.982	62	72
239.862	239.982	74	81
239.935	240.032	49	86
239.935	240.032	61	96
240.008	240.545	60	73
240.008	240.545	72	82
240.082	240.545	47	86
240.082	240.545	59	96
240.156	240.545	58	73
240.156	240.545	70	82
240.23	240.545	45	87
240.23	240.545	57	97
240.304	240.545	56	73
240.304	240.545	68	82
240.379	240.545	41	88
240.379	240.545	53	98
240.454	240.567	50	73
240.454	240.567	62	82
240.529	240.983	34	94
240.529	240.983	46	105
240.983	241.057	33	83
240.983	241.057	45	83
241.057	241.131	34	81
241.057	241.131	46	81
241.131	241.212	38	81
241.131	241.212	50	81
241.203	241.286	41	82
241.203	241.286	53	82
241.275	241.358	44	82
241.275	241.358	56	82
241.346	241.43	46	83
241.346	241.43	58	83
241.417	241.502	50	83
241.417	241.502	62	83
241.486	242.182	53	85
241.486	241.764	65	85
241.555	242.182	56	85
241.555	241.833	68	85
241.625	242.182	58	86
241.625	241.917	70	86
241.694	242.182	62	86
241.694	242.001	74	86
241.764	242.182	65	86
241.764	242.085	77	86
241.833	242.182	68	87
241.833	242.17	80	87
241.917	242.182	70	87
241.917	242.182	82	87
242.001	242.182	74	88
242.001	242.182	86	88
242.085	242.182	77	89
242.085	242.182	89	89
242.17	242.254	80	89
242.17	242.254	92	89
242.254	242.306	81	90
242.254	242.306	93	90
242.325	242.387	84	87
242.325	242.387	96	87
242.396	242.458	82	86
242.396	242.458	94	86
242.466	242.528	80	86
242.466	242.528	92	86
242.536	242.597	77	86
242.536	242.597	89	86
242.605	242.665	74	86
242.605	242.665	86	86
242.673	242.733	70	86
242.673	242.733	82	86
242.745	242.804	69	90
242.745	242.804	81	90
242.812	242.879	72	87
242.812	242.879	84	87
242.879	242.946	70	86
242.879	242.946	82	86
242.946	243.013	68	86
242.946	243.013	80	86
243.013	243.08	65	86
243.013	243.08	77	86
243.08	243.147	62	86
243.08	243.147	74	86
243.147	243.214	58	86
243.147	243.214	70	86
243.218	243.277	57	90
243.218	243.277	69	90
243.285	243.352	60	87
243.285	243.352	72	87
243.352	243.419	58	86
243.352	243.419	70	86
243.419	243.486	56	86
243.419	243.486	68	86
243.486	243.553	53	86
243.486	243.553	65	86
243.553	243.62	50	86
243.553	243.62	62	86
243.62	243.687	46	85
243.62	243.687	58	85
243.691	243.78	45	87
243.691	243.78	57	87
243.776	243.866	46	89
243.776	243.866	58	89
243.863	243.954	50	93
243.863	243.954	62	93
243.95	244.052	53	95
243.95	244.052	65	95
244.039	244.129	56	98
244.039	244.129	68	98
244.129	245.218	45	82
244.129	245.218	57	103
244.673	245.169	58	86
244.673	245.169	70	102
244.753	245.218	51	66
244.753	245.218	63	84
244.841	245.218	62	83
244.841	245.218	74	83
244.927	245.218	49	67
244.927	245.218	61	85
245.01	245.218	60	72
245.01	245.218	72	86
245.091	245.218	47	70
245.091	245.218	59	87
245.169	245.98	58	73
245.169	245.98	70	87
245.246	245.98	45	72
245.246	245.98	57	90
245.32	245.98	56	76
245.32	245.98	68	90
245.392	245.98	43	73
245.392	245.98	55	91
245.462	245.98	54	77
245.462	245.98	66	91
245.531	245.98	41	74
245.531	245.98	53	94
245.598	245.98	52	80
245.598	245.98	64	94
245.663	245.98	39	77
245.663	245.98	51	97
245.727	245.98	50	81
245.727	245.98	62	96
245.789	245.98	37	99
245.789	245.98	49	99
245.85	245.98	48	82
245.85	245.98	60	98
245.91	246.011	35	81
245.91	246.011	47	100
245.98	246.167	34	77
245.98	246.167	46	97
246.48	246.707	39	79
246.48	246.707	46	79
246.48	246.707	51	79
246.48	246.707	63	81
246.48	246.707	67	81
246.48	246.707	75	90
247.025	247.259	39	82
247.025	247.259	46	82
247.025	247.259	53	82
247.025	247.259	65	87
247.025	247.259	68	87
247.025	247.259	77	97
247.586	247.834	39	79
247.586	247.834	46	79
247.586	247.834	54	79
247.586	247.834	66	81
247.586	247.834	69	81
247.586	247.834	78	90
248.18	249.408	39	82
248.18	249.408	46	82
248.18	248.825	55	82
248.18	248.825	67	87
248.18	248.825	70	87
248.18	248.825	79	97
248.825	249.116	51	79
248.825	249.116	63	80
248.825	249.116	75	89
249.408	250.005	45	79
249.408	250.005	57	89
249.59	250.005	58	80
249.59	250.005	70	90
249.643	250.005	55	75
249.643	250.005	67	85
249.732	250.005	65	73
249.732	250.005	77	81
249.818	250.005	51	76
249.818	250.005	63	87
249.901	250.022	62	75
249.901	250.022	74	84
249.982	250.49	48	80
249.982	250.49	60	90
250.061	250.563	58	78
250.061	250.563	70	89
250.137	250.563	44	84
250.137	250.563	56	94
250.211	250.563	55	81
250.211	250.563	67	91
250.284	250.563	41	87
250.284	250.563	53	96
250.354	250.563	51	86
250.354	250.563	63	96
250.423	250.563	38	89
250.423	250.563	50	99
250.49	250.603	48	87
250.49	250.603	60	98
250.563	250.749	34	91
250.563	250.749	46	101
251.059	251.3	39	74
251.059	251.3	46	74
251.059	251.3	51	83
251.059	251.3	63	79
251.059	251.3	67	79
251.059	251.3	75	88
251.636	251.886	39	79
251.636	251.886	46	79
251.636	251.886	51	88
251.636	251.886	53	88
251.636	251.886	65	85
251.636	251.886	68	85
251.636	251.886	77	95
252.236	252.523	39	74
252.236	252.523	46	74
252.236	252.523	55	83
252.236	252.523	67	79
252.236	252.523	70	79
252.236	252.523	79	88
252.926	254.099	39	72
252.926	254.099	46	72
252.926	254.099	55	80
252.926	254.099	67	74
252.926	254.099	70	74
252.926	254.099	75	83
254.15	254.215	93	46
254.22	254.284	94	41
254.288	254.333	99	43
254.337	254.382	96	41
254.386	254.431	94	41
254.435	254.48	92	40
254.483	254.528	91	37
254.532	254.576	89	42
254.58	254.624	87	42
254.628	254.672	86	41
254.676	254.72	84	41
254.724	254.768	82	41
254.772	254.816	80	41
254.819	254.863	79	41
254.867	254.911	77	41
254.914	254.958	75	41
254.961	255.005	74	41
255.012	255.055	72	41
255.055	255.262	70	46
255.608	255.824	51	33
255.608	255.824	55	33
255.608	255.824	58	33
255.608	255.824	63	37
256.185	256.415	50	36
256.185	256.415	56	35
256.185	256.415	59	35
256.185	256.415	65	40
256.797	257.047	38	34
256.797	257.047	57	34
256.797	257.047	60	34
256.797	257.047	66	39
257.464	259.007	43	33
257.464	258.162	50	33
257.464	258.162	59	34
257.464	258.162	67	39
258.162	258.584	47	31
258.162	258.584	55	32
258.162	258.584	62	36
259.007	259.074	90	31
259.007	259.074	94	31
259.074	259.141	91	31
259.074	259.141	95	31
259.141	259.207	95	33
259.141	259.207	103	33
259.207	259.274	93	33
259.207	259.274	102	33
259.274	259.336	91	33
259.274	259.336	100	33
259.336	259.398	90	33
259.336	259.398	98	33
259.398	259.46	88	33
259.398	259.46	96	33
259.46	259.521	86	32
259.46	259.521	95	32
259.521	259.582	84	32
259.521	259.582	93	32
259.582	259.643	83	32
259.582	259.643	91	32
259.643	259.704	81	32
259.643	259.704	90	32
259.704	259.764	79	32
259.704	259.764	88	32
259.764	259.824	78	31
259.764	259.824	86	31
259.824	259.884	76	31
259.824	259.884	84	31
259.884	259.944	74	31
259.884	259.944	83	31
259.944	260.003	72	31
259.944	260.003	81	31
260.003	260.228	71	31
260.003	260.228	79	31
260.603	261.228	48	36
260.603	261.228	60	36
260.603	261.228	64	36
260.603	261.228	67	41
261.285	261.902	41	40
261.285	261.902	60	36
261.285	261.902	65	36
261.285	261.902	68	41
262.026	262.913	34	39
262.026	262.913	46	39
262.026	262.913	56	34
262.026	262.913	62	34
262.026	262.913	70	39
262.993	264.838	39	39
262.993	264.838	46	39
262.993	264.838	55	33
262.993	264.838	63	33
262.993	264.838	70	37
264.961	265.042	57	44
265.044	265.125	58	48
265.127	265.206	63	49
265.208	265.287	62	48
265.289	265.369	60	48
265.371	265.452	58	47
265.454	265.536	56	46
265.538	265.621	55	46
265.623	265.707	53	44
265.709	265.793	51	44
265.796	265.881	50	44
265.883	265.97	48	44
265.972	268.795	47	47
266.806	267.321	39	28
266.806	267.321	45	28
266.806	267.321	54	32
266.806	267.321	75	39
266.806	267.321	83	39
266.806	267.321	87	43
267.424	267.95	39	31
267.424	267.95	45	31
267.424	267.95	54	35
267.424	267.95	75	41
267.424	267.95	83	41
267.424	267.95	89	46
268.056	268.545	39	31
268.056	268.545	45	31
268.056	268.545	54	35
268.056	268.545	75	42
268.056	268.545	83	42
268.056	268.545	90	48
268.587	269.477	39	33
268.628	269.477	46	37
268.67	269.477	55	37
268.749	270.276	75	39
268.753	270.256	82	39
268.795	269.477	91	43
269.477	269.866	87	40
270.256	270.322	57	42
270.333	270.399	58	46
270.409	270.471	67	47
270.481	270.543	65	47
270.554	270.616	63	47
270.626	270.689	62	47
270.7	270.763	60	46
270.774	270.837	58	46
270.848	270.912	56	46
270.923	270.988	55	46
270.999	271.064	53	44
271.075	271.14	51	44
271.152	271.218	50	44
271.229	271.305	48	42
271.316	276.181	46	46
272.161	272.902	40	39
272.161	272.902	58	37
272.161	272.902	61	37
272.161	272.902	67	42
272.902	273.635	41	42
272.902	273.635	58	40
272.902	273.635	60	40
272.902	273.635	68	44
273.702	274.662	34	37
273.702	274.662	58	33
273.702	274.662	62	33
273.702	274.384	68	39
273.702	274.384	72	44
274.384	274.662	67	34
274.384	274.662	70	39
274.662	276.181	39	36
274.662	276.181	63	33
274.662	276.181	67	37
276.181	276.243	93	41
276.247	276.31	94	36
276.314	276.363	99	39
276.367	276.416	96	36
276.42	276.469	94	36
276.473	276.522	92	35
276.526	276.575	91	33
276.579	276.629	89	37
276.633	276.683	87	37
276.687	276.738	86	36
276.742	276.792	84	36
276.797	276.848	82	36
276.852	276.903	80	36
276.908	276.959	79	36
276.964	277.016	77	36
277.02	277.073	75	36
277.077	277.13	74	36
277.139	277.192	72	36
277.192	279.78	71	41
277.924	278.445	59	35
277.924	278.445	66	40
277.924	278.445	69	39
277.924	278.445	75	39
277.924	278.445	83	43
278.549	279.054	59	35
278.549	279.054	64	40
278.549	279.054	69	39
278.549	279.054	76	41
278.549	279.054	83	46
279.155	279.676	59	35
279.155	279.624	63	40
279.155	279.624	69	42
279.155	279.624	78	42
279.155	279.624	83	48
279.78	280.439	64	40
279.78	280.439	68	44
279.78	280.439	80	44
279.78	280.439	83	50
280.439	280.829	71	33
280.439	280.829	76	37
280.439	280.829	88	43
280.439	280.829	92	49
281.219	281.285	70	41
281.285	281.352	71	36
281.352	281.418	80	40
281.418	281.482	78	39
281.482	281.547	76	37
281.547	281.613	75	37
281.613	281.679	73	36
281.679	281.746	71	36
281.746	281.814	69	36
281.814	281.881	68	36
281.881	281.95	66	36
281.95	282.019	64	36
282.019	282.089	63	36
282.089	282.159	61	36
282.159	282.23	59	36
282.23	285.799	58	39
283.075	283.865	52	36
283.075	283.865	61	35
283.075	283.865	67	35
283.075	283.865	70	40
283.865	284.619	53	40
283.865	284.392	62	37
283.865	284.49	68	37
283.865	284.619	70	42
284.392	285.799	62	34
284.49	285.799	68	31
284.587	284.683	74	35
284.683	285.799	46	35
284.683	285.458	72	40
285.458	285.799	70	36
285.799	287.255	51	31
285.799	287.255	63	31
285.799	287.255	67	31
285.799	287.255	70	35
287.318	287.384	57	40
287.396	287.461	58	43
287.472	287.533	67	43
287.544	287.605	65	43
287.616	287.678	63	43
287.689	287.751	62	43
287.762	287.825	60	43
287.836	287.9	58	43
287.911	287.975	56	43
287.986	288.05	55	43
288.061	288.126	53	42
288.137	288.203	51	42
288.214	288.28	50	42
288.292	288.367	48	40
288.379	293.664	46	43
289.224	290.013	40	37
289.224	290.013	55	36
289.224	290.013	58	36
289.224	290.013	61	41
290.013	290.81	41	40
290.013	290.81	56	37
290.013	290.81	58	37
290.013	290.81	62	42
290.883	292.149	34	35
290.883	291.732	56	35
290.883	291.732	60	41
290.883	292.149	62	35
291.732	292.149	55	31
291.732	292.149	58	35
292.149	293.664	39	29
292.149	293.664	51	31
292.149	293.664	55	31
292.149	293.664	63	34
293.664	293.76	93	40
293.772	293.863	94	35
293.875	293.962	99	41
293.973	294.059	96	40
294.07	294.156	94	39
294.167	294.252	92	37
294.263	294.347	91	36
294.358	294.442	89	37
294.453	294.536	87	37
294.547	294.63	86	36
294.64	294.714	84	36
294.725	294.788	81	37
294.799	294.864	82	39
294.875	294.94	91	40
294.95	295.015	87	41
295.025	295.089	86	42
295.1	295.164	84	43
295.174	295.238	82	44
295.248	295.311	80	43
295.321	295.385	79	44
295.395	295.458	77	46
295.468	295.531	75	47
295.54	295.603	74	48
295.613	295.675	72	50
295.683	295.753	69	49
295.762	295.832	70	50
295.841	295.911	75	52
295.92	295.989	72	55
295.998	296.067	70	57
296.076	296.144	68	59
296.153	296.221	67	62
296.23	296.298	65	62
296.307	296.375	63	64
296.383	296.45	62	66
296.459	296.52	60	69
296.529	296.921	57	59
296.593	296.912	58	60
296.657	296.921	67	63
296.721	296.921	63	64
296.785	296.921	62	66
296.849	296.921	60	67
296.912	297.406	58	70
296.976	297.406	56	69
297.039	297.406	55	71
297.103	297.406	53	73
297.166	297.406	51	75
297.229	297.406	50	77
297.292	297.406	48	79
297.353	298.686	46	96
298.02	298.686	37	69
298.02	298.686	39	69
298.02	298.686	51	69
298.02	298.686	55	69
298.02	298.686	58	69
298.02	298.686	63	77
298.686	300.067	47	91
299.353	300.067	35	67
299.353	300.067	39	67
299.353	300.067	51	67
299.353	300.067	54	67
299.353	300.067	59	67
299.353	300.067	63	75
300.067	300.857	32	68
300.067	300.857	39	68
300.067	300.857	47	80
300.067	300.857	51	68
300.067	300.857	56	68
300.067	300.857	59	68
300.067	300.857	63	75
300.857	301.78	32	68
300.857	301.78	39	68
300.857	301.78	44	80
300.857	301.78	53	68
300.857	301.78	56	68
300.857	301.78	59	68
300.857	301.78	65	75
301.78	304.98	27	68
301.78	304.98	34	68
301.78	304.98	39	77
301.78	304.98	55	75
301.78	304.98	58	75
301.78	304.98	63	75
301.78	304.98	67	84
304.98	306.98	27	68
304.98	306.98	34	68
304.98	306.98	39	77
304.98	306.98	55	73
304.98	306.98	58	73
304.98	306.98	63	73
304.98	306.98	67	82
306.98	309.333	27	68
306.98	309.333	34	68
306.98	309.333	39	77
306.98	309.333	55	73
306.98	309.333	58	73
306.98	309.333	63	73
306.98	309.333	67	82
309.333	318.744	27	68
309.333	318.744	34	68
309.333	318.744	39	77
309.333	318.744	55	73
309.333	318.744	58	73
309.333	318.744	63	73
309.333	318.744	67	82
