# onset,offset,note,velocity
0.500004	2.778489	67.000000	84.000000
0.500004	2.778489	79.000000	95.000000
0.500004	2.778489	43.000000	70.000000
0.500004	2.778489	31.000000	60.000000
2.778489	3.192247	71.000000	44.000000
3.192247	3.330166	72.000000	38.000000
3.330166	3.726382	74.000000	51.000000
3.894503	4.278086	74.000000	42.000000
4.440856	4.824130	74.000000	42.000000
4.986766	5.400524	72.000000	46.000000
5.400524	5.538443	74.000000	47.000000
5.538443	6.365959	75.000000	53.000000
6.365959	6.641798	74.000000	44.000000
6.641798	7.193475	72.000000	39.000000
7.193475	7.600782	74.000000	49.000000
7.600782	7.743194	72.000000	42.000000
7.743194	8.294871	71.000000	46.000000
8.294871	8.708629	69.000000	44.000000
8.708629	8.846548	71.000000	36.000000
8.846548	9.414882	72.000000	48.000000
9.414882	9.834192	74.000000	43.000000
9.834192	9.982236	75.000000	44.000000
9.982236	11.758785	74.000000	51.000000
11.758785	12.035777	62.000000	37.000000
11.758785	12.035777	67.000000	37.000000
11.758785	12.035777	71.000000	44.000000
11.758785	12.034624	55.000000	35.000000
12.172543	12.241503	63.000000	35.000000
12.172543	12.241503	67.000000	35.000000
12.172543	12.241503	72.000000	42.000000
12.172543	12.241503	55.000000	33.000000
12.310462	12.582304	65.000000	43.000000
12.310462	12.582304	67.000000	43.000000
12.310462	12.582304	74.000000	51.000000
12.310462	12.581178	55.000000	40.000000
12.851880	13.127437	65.000000	35.000000
12.851880	13.127437	67.000000	35.000000
12.851880	13.127437	74.000000	42.000000
12.851880	13.126297	55.000000	33.000000
13.400714	13.674809	65.000000	35.000000
13.400714	13.674809	67.000000	35.000000
13.400714	13.674809	74.000000	42.000000
13.400714	13.673669	55.000000	33.000000
13.946624	14.223616	63.000000	39.000000
13.946624	14.223616	67.000000	39.000000
13.946624	14.223616	72.000000	39.000000
13.946624	14.222463	55.000000	46.000000
14.360382	14.429342	65.000000	39.000000
14.360382	14.429342	67.000000	39.000000
14.360382	14.429342	74.000000	47.000000
14.360382	14.429342	55.000000	47.000000
14.498301	15.443714	67.000000	45.000000
14.498301	15.443714	75.000000	53.000000
14.498301	14.636221	55.000000	53.000000
15.032759	15.169739	57.000000	53.000000
15.443714	15.512204	65.000000	37.000000
15.443714	15.512204	67.000000	37.000000
15.443714	15.512204	74.000000	44.000000
15.443714	15.512204	59.000000	43.000000
15.580694	15.854669	63.000000	33.000000
15.580694	15.854669	67.000000	33.000000
15.580694	15.854669	72.000000	39.000000
15.580694	15.854669	60.000000	49.000000
16.128643	16.401316	65.000000	41.000000
16.128643	16.401316	68.000000	41.000000
16.128643	16.401316	74.000000	49.000000
16.128643	16.400190	53.000000	45.000000
16.535950	16.607149	63.000000	35.000000
16.535950	16.607149	68.000000	42.000000
16.535950	16.607149	72.000000	42.000000
16.535950	16.607149	53.000000	36.000000
16.678349	16.954187	62.000000	39.000000
16.678349	16.954187	67.000000	39.000000
16.678349	16.954187	71.000000	46.000000
16.678349	17.643784	55.000000	44.000000
17.230026	17.507018	60.000000	37.000000
17.230026	17.507018	67.000000	37.000000
17.230026	17.507018	69.000000	44.000000
17.643784	17.712743	62.000000	30.000000
17.643784	17.712743	67.000000	30.000000
17.643784	17.712743	71.000000	36.000000
17.643784	17.712743	55.000000	36.000000
17.643784	17.712743	53.000000	30.000000
17.781703	18.063469	63.000000	40.000000
17.781703	18.063469	67.000000	40.000000
17.781703	18.063469	72.000000	48.000000
17.781703	18.063469	51.000000	40.000000
17.781703	18.063469	55.000000	48.000000
18.364976	18.649170	67.000000	45.000000
18.364976	18.649170	75.000000	53.000000
18.364976	18.647990	43.000000	45.000000
18.364976	18.647990	55.000000	53.000000
18.789503	18.863532	65.000000	37.000000
18.789503	18.863532	67.000000	37.000000
18.789503	18.863532	74.000000	44.000000
18.789503	18.863532	55.000000	44.000000
18.789503	18.863532	43.000000	37.000000
18.937561	20.714110	63.000000	43.000000
18.937561	20.714110	67.000000	43.000000
18.937561	20.714110	72.000000	51.000000
18.937561	20.714110	48.000000	46.000000
18.937561	20.714110	55.000000	55.000000
20.714110	21.127868	74.000000	44.000000
21.127868	21.265787	75.000000	38.000000
21.265787	21.658302	77.000000	51.000000
21.824854	22.211964	77.000000	42.000000
22.376223	22.759497	77.000000	42.000000
22.922133	23.335891	75.000000	46.000000
23.335891	23.473810	74.000000	47.000000
23.473810	24.301326	79.000000	53.000000
24.301326	24.577164	77.000000	44.000000
24.577164	25.136244	75.000000	39.000000
25.136244	25.543551	74.000000	49.000000
25.543551	25.685963	72.000000	42.000000
25.685963	26.237640	71.000000	46.000000
26.237640	26.651398	69.000000	44.000000
26.651398	26.789318	71.000000	36.000000
26.789318	27.364464	72.000000	48.000000
27.364464	27.783774	77.000000	43.000000
27.783774	27.931819	75.000000	44.000000
27.931819	29.708368	74.000000	51.000000
29.708368	29.985359	65.000000	37.000000
29.708368	29.985359	70.000000	37.000000
29.708368	29.985359	74.000000	44.000000
29.708368	29.984206	58.000000	35.000000
30.122125	30.191085	67.000000	35.000000
30.122125	30.191085	70.000000	35.000000
30.122125	30.191085	75.000000	42.000000
30.122125	30.191085	58.000000	33.000000
30.260045	30.537037	68.000000	43.000000
30.260045	30.537037	70.000000	43.000000
30.260045	30.537037	77.000000	51.000000
30.260045	30.535883	58.000000	40.000000
30.811722	31.088714	68.000000	35.000000
30.811722	31.088714	70.000000	35.000000
30.811722	31.088714	77.000000	42.000000
30.811722	31.087560	58.000000	33.000000
31.363399	31.637494	68.000000	35.000000
31.363399	31.637494	70.000000	35.000000
31.363399	31.637494	77.000000	42.000000
31.363399	31.636354	58.000000	33.000000
31.909309	32.186301	67.000000	39.000000
31.909309	32.186301	70.000000	39.000000
31.909309	32.186301	75.000000	46.000000
31.909309	32.185148	58.000000	46.000000
32.323067	32.392027	65.000000	39.000000
32.323067	32.392027	70.000000	39.000000
32.323067	32.392027	74.000000	47.000000
32.323067	32.392027	58.000000	47.000000
32.460986	33.406399	70.000000	47.000000
32.460986	33.406399	79.000000	56.000000
32.460986	32.598906	58.000000	53.000000
32.995444	33.132424	60.000000	53.000000
33.406399	33.474889	68.000000	41.000000
33.406399	33.474889	70.000000	41.000000
33.406399	33.474889	77.000000	49.000000
33.406399	33.474889	62.000000	43.000000
33.543379	33.817354	67.000000	35.000000
33.543379	33.817354	70.000000	35.000000
33.543379	33.817354	75.000000	42.000000
33.543379	33.817354	63.000000	49.000000
34.091328	34.364001	65.000000	44.000000
34.091328	34.364001	68.000000	44.000000
34.091328	34.364001	74.000000	52.000000
34.091328	34.362875	53.000000	45.000000
34.498635	34.569834	63.000000	35.000000
34.498635	34.569834	68.000000	35.000000
34.498635	34.569834	72.000000	42.000000
34.498635	34.569834	53.000000	36.000000
34.641034	34.916872	62.000000	39.000000
34.641034	34.916872	67.000000	39.000000
34.641034	34.916872	71.000000	46.000000
34.641034	35.606469	55.000000	44.000000
35.192711	35.469703	60.000000	37.000000
35.192711	35.469703	67.000000	37.000000
35.192711	35.469703	69.000000	44.000000
35.606469	35.675428	62.000000	30.000000
35.606469	35.675428	67.000000	30.000000
35.606469	35.675428	71.000000	36.000000
35.606469	35.675428	53.000000	30.000000
35.606469	35.675428	55.000000	36.000000
35.744388	36.026154	63.000000	40.000000
35.744388	36.026154	67.000000	40.000000
35.744388	36.026154	72.000000	48.000000
35.744388	36.026154	51.000000	40.000000
35.744388	36.026154	55.000000	48.000000
36.335547	36.619741	67.000000	45.000000
36.335547	36.619741	75.000000	53.000000
36.335547	36.618561	55.000000	53.000000
36.335547	36.618561	43.000000	45.000000
36.760074	36.834103	65.000000	37.000000
36.760074	36.834103	67.000000	37.000000
36.760074	36.834103	74.000000	44.000000
36.760074	36.834103	55.000000	44.000000
36.760074	36.834103	43.000000	37.000000
36.908132	38.684681	63.000000	43.000000
36.908132	38.684681	67.000000	43.000000
36.908132	38.684681	72.000000	51.000000
36.908132	38.684681	48.000000	46.000000
36.908132	38.684681	55.000000	55.000000
38.684681	39.098439	71.000000	48.000000
39.098439	39.236358	72.000000	41.000000
39.236358	39.623683	74.000000	56.000000
39.788035	40.201793	68.000000	39.000000
39.788035	40.201793	71.000000	46.000000
39.788035	40.175360	74.000000	46.000000
39.788035	40.201793	65.000000	36.000000
40.339712	40.749138	69.000000	39.000000
40.339712	40.749138	72.000000	39.000000
40.339712	40.722987	74.000000	46.000000
40.339712	40.749138	66.000000	36.000000
40.885609	41.437286	69.000000	39.000000
40.885609	41.299367	72.000000	50.000000
40.885609	41.437286	66.000000	36.000000
40.885609	41.437286	62.000000	30.000000
41.299367	41.437286	74.000000	51.000000
41.437286	41.502893	72.000000	50.000000
41.437286	43.075822	69.000000	49.000000
41.437286	43.075822	66.000000	39.000000
41.437286	42.252558	60.000000	46.000000
41.502893	41.568500	74.000000	53.000000
41.568500	42.252558	75.000000	58.000000
42.252558	42.526975	74.000000	48.000000
42.252558	42.526975	62.000000	46.000000
42.526975	43.075822	72.000000	42.000000
42.526975	43.075822	63.000000	46.000000
43.075822	43.625541	69.000000	40.000000
43.075822	43.483129	74.000000	55.000000
43.075822	43.625541	54.000000	31.000000
43.075822	43.625541	62.000000	37.000000
43.483129	43.625541	72.000000	48.000000
43.625541	44.177218	67.000000	44.000000
43.625541	44.177218	71.000000	52.000000
43.625541	44.177218	55.000000	35.000000
43.625541	44.177218	62.000000	42.000000
44.177218	44.590976	67.000000	46.000000
44.177218	44.590976	69.000000	54.000000
44.177218	44.590976	53.000000	35.000000
44.177218	44.590976	62.000000	43.000000
44.177218	44.590976	55.000000	35.000000
44.590976	44.728895	67.000000	36.000000
44.590976	44.728895	71.000000	44.000000
44.590976	44.728895	55.000000	29.000000
44.590976	44.728895	53.000000	29.000000
44.590976	44.728895	62.000000	35.000000
44.728895	45.292428	67.000000	50.000000
44.728895	45.292428	72.000000	59.000000
44.728895	45.292428	55.000000	39.000000
44.728895	45.292428	51.000000	39.000000
44.728895	45.292428	60.000000	47.000000
45.292428	45.715077	67.000000	51.000000
45.292428	45.715077	74.000000	61.000000
45.292428	45.715077	59.000000	48.000000
45.292428	45.715077	55.000000	40.000000
45.292428	45.715077	50.000000	40.000000
45.715077	45.863122	67.000000	52.000000
45.715077	45.863122	75.000000	62.000000
45.715077	45.863122	48.000000	41.000000
45.715077	45.863122	60.000000	49.000000
45.715077	45.863122	55.000000	41.000000
45.863122	47.639671	67.000000	61.000000
45.863122	47.639671	74.000000	73.000000
45.863122	47.639671	59.000000	57.000000
45.863122	47.639671	55.000000	48.000000
47.639671	47.916663	62.000000	64.000000
47.639671	47.916663	67.000000	64.000000
47.639671	47.916663	71.000000	77.000000
47.639671	47.915509	55.000000	61.000000
47.639671	47.915509	43.000000	51.000000
48.053429	48.122388	63.000000	61.000000
48.053429	48.122388	67.000000	61.000000
48.053429	48.122388	72.000000	73.000000
48.053429	48.122388	55.000000	57.000000
48.053429	48.122388	43.000000	48.000000
48.191348	48.468340	65.000000	74.000000
48.191348	48.468340	67.000000	74.000000
48.191348	48.468340	74.000000	89.000000
48.191348	48.467186	55.000000	70.000000
48.191348	48.467186	43.000000	59.000000
48.743025	49.020017	65.000000	68.000000
48.743025	49.020017	67.000000	68.000000
48.743025	49.020017	74.000000	81.000000
48.743025	49.018863	55.000000	64.000000
48.743025	49.018863	43.000000	55.000000
49.294702	49.568797	65.000000	68.000000
49.294702	49.568797	67.000000	68.000000
49.294702	49.568797	74.000000	81.000000
49.294702	49.567657	55.000000	66.000000
49.294702	49.567657	43.000000	56.000000
49.840612	50.117604	63.000000	68.000000
49.840612	50.117604	67.000000	68.000000
49.840612	50.117604	72.000000	80.000000
49.840612	50.116451	55.000000	80.000000
49.840612	50.116451	43.000000	68.000000
50.254370	50.323330	65.000000	69.000000
50.254370	50.323330	67.000000	69.000000
50.254370	50.323330	74.000000	82.000000
50.254370	50.323330	43.000000	56.000000
50.254370	50.323330	55.000000	66.000000
50.392289	51.337715	67.000000	78.000000
50.392289	51.337715	75.000000	92.000000
50.392289	50.530209	55.000000	73.000000
50.392289	50.530209	43.000000	61.000000
50.926747	51.063741	57.000000	84.000000
50.926747	51.063741	45.000000	70.000000
51.337715	51.474696	65.000000	64.000000
51.337715	51.474696	67.000000	64.000000
51.337715	51.474696	74.000000	77.000000
51.337715	51.474696	47.000000	56.000000
51.337715	51.474696	59.000000	68.000000
51.474696	51.748670	63.000000	57.000000
51.474696	51.748670	67.000000	57.000000
51.474696	51.748670	72.000000	68.000000
51.474696	51.748670	48.000000	64.000000
51.474696	51.748670	60.000000	78.000000
52.022644	52.295318	65.000000	72.000000
52.022644	52.295318	68.000000	72.000000
52.022644	52.295318	74.000000	85.000000
52.022644	52.294191	53.000000	62.000000
52.022644	52.294191	41.000000	52.000000
52.429952	52.501151	63.000000	61.000000
52.429952	52.501151	68.000000	61.000000
52.429952	52.501151	72.000000	73.000000
52.429952	52.501151	53.000000	49.000000
52.429952	52.501151	41.000000	41.000000
52.572350	52.848189	62.000000	68.000000
52.572350	52.848189	67.000000	68.000000
52.572350	52.848189	71.000000	80.000000
52.572350	52.848189	43.000000	51.000000
52.572350	52.848189	55.000000	61.000000
53.124027	53.401019	60.000000	64.000000
53.124027	53.401019	67.000000	64.000000
53.124027	53.401019	69.000000	77.000000
53.124027	53.399866	55.000000	61.000000
53.537785	53.606745	62.000000	52.000000
53.537785	53.606745	67.000000	52.000000
53.537785	53.606745	71.000000	62.000000
53.537785	53.606745	55.000000	49.000000
53.537785	53.606745	53.000000	41.000000
53.675704	53.957471	63.000000	70.000000
53.675704	53.957471	67.000000	70.000000
53.675704	53.957471	72.000000	83.000000
53.675704	53.957471	51.000000	56.000000
53.675704	53.957471	55.000000	66.000000
54.258978	54.543172	67.000000	78.000000
54.258978	54.543172	75.000000	92.000000
54.258978	54.541991	31.000000	61.000000
54.258978	54.541991	43.000000	73.000000
54.683505	54.757534	65.000000	64.000000
54.683505	54.757534	67.000000	64.000000
54.683505	54.757534	74.000000	77.000000
54.683505	54.757534	43.000000	61.000000
54.683505	54.757534	31.000000	51.000000
54.831563	56.608125	63.000000	74.000000
54.831563	56.608125	67.000000	74.000000
54.831563	56.608125	72.000000	89.000000
54.831563	56.608125	43.000000	77.000000
54.831563	56.608125	36.000000	64.000000
56.608125	57.021883	74.000000	55.000000
57.021883	57.159802	75.000000	47.000000
57.159802	57.547127	77.000000	64.000000
57.711479	58.125237	71.000000	44.000000
57.711479	58.125237	68.000000	44.000000
57.711479	58.125237	74.000000	44.000000
57.711479	58.098804	77.000000	52.000000
57.711479	58.125237	65.000000	41.000000
58.263156	58.650025	68.000000	44.000000
58.263156	58.650025	70.000000	44.000000
58.263156	58.625309	77.000000	52.000000
58.263156	58.650025	62.000000	34.000000
58.263156	58.650025	65.000000	41.000000
58.778986	59.381759	70.000000	39.000000
58.778986	59.381759	68.000000	39.000000
58.778986	58.839805	75.000000	47.000000
58.778986	59.381759	58.000000	34.000000
58.778986	59.381759	65.000000	41.000000
58.839805	58.900624	77.000000	47.000000
58.900624	59.214765	75.000000	70.000000
59.214765	59.381759	74.000000	58.000000
59.381759	59.926342	70.000000	56.000000
59.381759	59.926342	67.000000	56.000000
59.381759	60.339872	79.000000	66.000000
59.381759	59.926342	63.000000	52.000000
59.926342	60.477710	74.000000	44.000000
59.926342	60.477710	68.000000	36.000000
59.926342	60.477710	59.000000	30.000000
59.926342	60.477710	65.000000	36.000000
59.926342	60.477710	62.000000	30.000000
60.339872	60.477710	77.000000	55.000000
60.477710	61.029079	67.000000	56.000000
60.477710	61.029079	75.000000	48.000000
60.477710	61.029079	60.000000	44.000000
60.477710	61.029079	63.000000	52.000000
61.029079	61.436386	65.000000	53.000000
61.029079	61.578798	68.000000	46.000000
61.029079	61.436386	74.000000	63.000000
61.029079	61.578798	53.000000	43.000000
61.436386	61.578798	63.000000	46.000000
61.436386	61.578798	72.000000	54.000000
61.578798	62.130475	62.000000	50.000000
61.578798	62.130475	67.000000	50.000000
61.578798	62.130475	71.000000	59.000000
61.578798	62.130475	55.000000	48.000000
62.130475	62.544233	60.000000	52.000000
62.130475	62.544233	67.000000	52.000000
62.130475	62.544233	69.000000	61.000000
62.130475	62.544233	55.000000	49.000000
62.544233	62.682152	62.000000	42.000000
62.544233	62.682152	67.000000	42.000000
62.544233	62.682152	71.000000	50.000000
62.544233	62.682152	53.000000	34.000000
62.544233	62.682152	55.000000	40.000000
62.682152	63.245685	63.000000	57.000000
62.682152	63.245685	67.000000	57.000000
62.682152	63.245685	72.000000	68.000000
62.682152	63.245685	51.000000	45.000000
62.682152	63.245685	55.000000	53.000000
63.245685	63.668334	67.000000	59.000000
63.245685	63.668334	77.000000	78.000000
63.245685	63.668334	50.000000	46.000000
63.245685	63.668334	55.000000	46.000000
63.245685	63.668334	59.000000	55.000000
63.668334	63.816379	67.000000	60.000000
63.668334	63.816379	75.000000	71.000000
63.668334	63.816379	60.000000	56.000000
63.668334	63.816379	55.000000	47.000000
63.668334	63.816379	48.000000	47.000000
63.816379	65.592928	67.000000	71.000000
63.816379	65.592928	74.000000	84.000000
63.816379	65.592928	55.000000	55.000000
63.816379	65.592928	59.000000	64.000000
65.592928	65.869920	65.000000	70.000000
65.592928	65.869920	70.000000	70.000000
65.592928	65.869920	74.000000	83.000000
65.592928	65.868766	34.000000	56.000000
65.592928	65.868766	46.000000	66.000000
66.006686	66.075645	67.000000	67.000000
66.006686	66.075645	70.000000	67.000000
66.006686	66.075645	75.000000	79.000000
66.006686	66.075645	46.000000	60.000000
66.006686	66.075645	34.000000	52.000000
66.144605	66.421597	68.000000	64.000000
66.144605	66.421597	70.000000	81.000000
66.144605	66.421597	77.000000	96.000000
66.144605	66.420443	46.000000	76.000000
66.144605	66.420443	34.000000	64.000000
66.696282	66.973274	68.000000	60.000000
66.696282	66.973274	70.000000	75.000000
66.696282	66.973274	77.000000	88.000000
66.696282	66.972120	34.000000	57.000000
66.696282	66.972120	46.000000	69.000000
67.247959	67.522054	68.000000	60.000000
67.247959	67.522054	70.000000	75.000000
67.247959	67.522054	77.000000	88.000000
67.247959	67.520914	46.000000	71.000000
67.247959	67.520914	34.000000	59.000000
67.793869	68.070861	67.000000	58.000000
67.793869	68.070861	70.000000	73.000000
67.793869	68.070861	75.000000	86.000000
67.793869	68.069708	46.000000	86.000000
67.793869	68.069708	34.000000	73.000000
68.207627	68.276587	65.000000	60.000000
68.207627	68.276587	70.000000	76.000000
68.207627	68.276587	74.000000	89.000000
68.207627	68.276587	34.000000	59.000000
68.207627	68.276587	46.000000	71.000000
68.345547	69.290972	70.000000	84.000000
68.345547	69.290972	79.000000	99.000000
68.345547	68.483466	34.000000	67.000000
68.345547	68.483466	46.000000	79.000000
68.880004	69.016998	36.000000	76.000000
68.880004	69.016998	48.000000	91.000000
69.290972	69.427953	68.000000	70.000000
69.290972	69.427953	70.000000	70.000000
69.290972	69.427953	77.000000	83.000000
69.290972	69.427953	38.000000	60.000000
69.290972	69.427953	50.000000	74.000000
69.427953	69.701927	67.000000	62.000000
69.427953	69.701927	70.000000	62.000000
69.427953	69.701927	75.000000	74.000000
69.427953	69.701927	39.000000	71.000000
69.427953	69.701927	51.000000	84.000000
69.975901	70.248575	65.000000	77.000000
69.975901	70.248575	68.000000	77.000000
69.975901	70.248575	74.000000	92.000000
69.975901	70.247449	41.000000	57.000000
69.975901	70.247449	53.000000	67.000000
70.383209	70.454408	63.000000	67.000000
70.383209	70.454408	68.000000	67.000000
70.383209	70.454408	72.000000	79.000000
70.383209	70.454408	41.000000	44.000000
70.383209	70.454408	53.000000	53.000000
70.525607	70.801446	62.000000	73.000000
70.525607	70.801446	67.000000	73.000000
70.525607	70.801446	71.000000	86.000000
70.525607	70.801446	55.000000	66.000000
70.525607	70.801446	43.000000	56.000000
71.077284	71.354276	60.000000	70.000000
71.077284	71.354276	67.000000	70.000000
71.077284	71.354276	69.000000	83.000000
71.077284	71.353123	55.000000	66.000000
71.491042	71.560002	62.000000	57.000000
71.491042	71.560002	67.000000	57.000000
71.491042	71.560002	71.000000	67.000000
71.491042	71.560002	55.000000	53.000000
71.491042	71.560002	53.000000	44.000000
71.628961	71.910728	63.000000	76.000000
71.628961	71.910728	67.000000	76.000000
71.628961	71.910728	72.000000	90.000000
71.628961	71.910728	51.000000	59.000000
71.628961	71.910728	55.000000	71.000000
72.230487	72.514681	67.000000	84.000000
72.230487	72.514681	75.000000	99.000000
72.230487	72.513501	43.000000	79.000000
72.230487	72.513501	31.000000	67.000000
72.655014	72.729043	65.000000	70.000000
72.655014	72.729043	67.000000	70.000000
72.655014	72.729043	74.000000	83.000000
72.655014	72.729043	43.000000	66.000000
72.655014	72.729043	31.000000	56.000000
72.803072	74.579621	63.000000	81.000000
72.803072	74.579621	67.000000	81.000000
72.803072	74.579621	72.000000	96.000000
72.803072	74.579621	43.000000	83.000000
72.803072	74.579621	36.000000	70.000000
74.579621	75.004148	75.000000	78.000000
75.004148	75.152193	74.000000	70.000000
75.152193	76.928755	63.000000	71.000000
75.152193	76.928755	68.000000	71.000000
75.152193	76.928755	72.000000	83.000000
75.152193	76.928755	44.000000	61.000000
75.152193	76.928755	51.000000	61.000000
75.152193	76.928755	56.000000	72.000000
76.928755	77.008269	72.000000	69.000000
77.008269	77.369952	75.000000	78.000000
77.369952	77.517997	74.000000	70.000000
77.517997	79.294545	67.000000	71.000000
77.517997	79.294545	72.000000	83.000000
77.517997	79.294545	48.000000	61.000000
77.517997	79.294545	39.000000	61.000000
77.517997	79.294545	51.000000	72.000000
79.294545	79.701866	74.000000	78.000000
79.294545	79.844278	48.000000	48.000000
79.294545	79.844278	60.000000	57.000000
79.701866	79.844278	75.000000	67.000000
79.844278	80.395955	68.000000	62.000000
79.844278	80.395955	72.000000	62.000000
79.844278	80.395955	77.000000	73.000000
79.844278	80.395955	53.000000	56.000000
79.844278	80.395955	41.000000	47.000000
80.395955	80.672947	67.000000	59.000000
80.395955	80.672947	72.000000	59.000000
80.395955	80.672947	75.000000	70.000000
80.395955	80.671794	43.000000	47.000000
80.395955	80.671794	55.000000	56.000000
80.809713	80.878672	65.000000	48.000000
80.809713	80.878672	74.000000	57.000000
80.809713	80.878672	44.000000	38.000000
80.809713	80.878672	56.000000	45.000000
80.947632	81.530906	63.000000	64.000000
80.947632	81.530906	72.000000	76.000000
80.947632	81.530906	55.000000	60.000000
80.947632	81.530906	43.000000	51.000000
81.530906	82.103477	67.000000	60.000000
81.530906	82.105945	62.000000	60.000000
81.530906	82.105945	71.000000	71.000000
81.530906	82.103477	43.000000	56.000000
81.530906	82.103477	31.000000	47.000000
82.103477	83.880026	63.000000	57.000000
82.103477	83.880026	67.000000	57.000000
82.103477	83.880026	72.000000	68.000000
82.103477	83.880026	48.000000	59.000000
82.103477	83.880026	43.000000	50.000000
82.103477	83.880026	36.000000	50.000000
83.880026	84.304553	75.000000	60.000000
84.304553	84.467913	74.000000	54.000000
84.467913	86.244475	63.000000	55.000000
84.467913	86.244475	68.000000	55.000000
84.467913	86.244475	72.000000	65.000000
84.467913	86.244475	44.000000	47.000000
84.467913	86.244475	51.000000	47.000000
84.467913	86.244475	56.000000	56.000000
86.244475	86.669002	75.000000	59.000000
86.669002	86.835997	74.000000	52.000000
86.835997	88.612546	67.000000	51.000000
86.835997	88.612546	72.000000	61.000000
86.835997	88.612546	39.000000	50.000000
86.835997	88.612546	48.000000	50.000000
86.835997	88.612546	51.000000	59.000000
88.612546	89.019866	73.000000	54.000000
89.019866	89.162278	75.000000	46.000000
89.162278	89.227322	73.000000	40.000000
89.162278	89.705882	68.000000	40.000000
89.162278	89.705882	49.000000	39.000000
89.227322	89.292352	75.000000	43.000000
89.292352	89.705882	77.000000	51.000000
89.705882	89.982726	68.000000	41.000000
89.705882	89.982726	75.000000	49.000000
89.705882	89.981573	51.000000	39.000000
90.119425	90.188344	68.000000	33.000000
90.119425	90.188344	73.000000	39.000000
90.119425	90.188344	53.000000	31.000000
90.257264	90.539030	68.000000	44.000000
90.257264	90.539030	72.000000	53.000000
90.257264	90.539030	51.000000	42.000000
90.840537	91.123551	63.000000	37.000000
90.840537	91.123551	67.000000	37.000000
90.840537	91.124731	61.000000	37.000000
90.840537	91.124731	70.000000	44.000000
90.840537	91.123551	51.000000	35.000000
90.840537	91.123551	39.000000	28.000000
91.413109	92.577698	60.000000	39.000000
91.413109	92.577698	63.000000	39.000000
91.413109	92.577698	68.000000	47.000000
91.413109	91.610506	44.000000	40.000000
91.610506	91.807904	48.000000	33.000000
91.807904	92.005301	51.000000	33.000000
92.005301	92.196100	48.000000	40.000000
92.196100	92.386899	51.000000	29.000000
92.386899	92.577698	56.000000	30.000000
92.577698	92.768497	47.000000	40.000000
92.768497	92.959296	50.000000	33.000000
92.959296	93.150095	56.000000	33.000000
93.150095	93.563840	68.000000	53.000000
93.150095	93.333974	48.000000	40.000000
93.333974	93.517867	51.000000	35.000000
93.517867	93.717182	56.000000	35.000000
93.563840	93.717182	72.000000	47.000000
93.717182	94.140434	75.000000	57.000000
93.717182	93.905285	44.000000	40.000000
93.905285	94.093402	48.000000	33.000000
94.093402	94.281519	56.000000	33.000000
94.281519	94.691293	75.000000	51.000000
94.281519	94.463641	48.000000	40.000000
94.463641	94.645763	51.000000	29.000000
94.645763	94.827885	56.000000	30.000000
94.827885	95.237298	75.000000	53.000000
94.827885	95.009846	47.000000	40.000000
95.009846	95.191807	50.000000	33.000000
95.191807	95.373769	56.000000	33.000000
95.373769	95.799865	75.000000	52.000000
95.373769	95.557648	48.000000	40.000000
95.557648	95.749774	51.000000	35.000000
95.749774	95.950135	56.000000	35.000000
95.950135	97.041219	77.000000	58.000000
95.950135	96.133089	49.000000	40.000000
96.133089	96.316043	53.000000	33.000000
96.316043	96.498996	56.000000	33.000000
96.498996	96.674708	49.000000	40.000000
96.674708	96.850420	55.000000	29.000000
96.850420	97.041219	58.000000	30.000000
97.041219	98.140201	75.000000	55.000000
97.041219	97.225004	48.000000	40.000000
97.225004	97.408789	56.000000	33.000000
97.408789	97.592574	60.000000	33.000000
97.592574	97.771437	48.000000	40.000000
97.771437	97.950300	51.000000	35.000000
97.950300	98.140201	56.000000	35.000000
98.140201	99.233309	73.000000	58.000000
98.140201	98.323154	46.000000	40.000000
98.323154	98.506108	51.000000	33.000000
98.506108	98.689062	56.000000	33.000000
98.689062	98.867134	46.000000	40.000000
98.867134	99.045192	51.000000	29.000000
99.045192	99.233309	55.000000	30.000000
99.233309	100.329113	72.000000	52.000000
99.233309	99.415431	44.000000	35.000000
99.415431	99.597553	51.000000	28.000000
99.597553	99.779675	58.000000	28.000000
99.779675	99.958539	44.000000	35.000000
99.958539	100.137402	51.000000	27.000000
100.137402	100.329113	56.000000	35.000000
100.329113	100.877974	70.000000	40.000000
100.329113	100.512066	49.000000	30.000000
100.512066	100.695020	56.000000	24.000000
100.695020	100.877974	58.000000	24.000000
100.877974	101.426834	73.000000	34.000000
100.877974	101.060927	53.000000	32.000000
101.060927	101.243881	56.000000	23.000000
101.243881	101.426834	61.000000	24.000000
101.426834	101.983313	72.000000	40.000000
101.426834	101.612336	51.000000	30.000000
101.612336	101.797824	56.000000	23.000000
101.797824	101.983313	60.000000	23.000000
101.983313	102.547663	70.000000	37.000000
101.983313	102.171429	51.000000	29.000000
102.171429	102.359546	55.000000	23.000000
102.359546	102.547663	58.000000	23.000000
102.547663	103.692726	68.000000	48.000000
102.547663	102.741225	44.000000	33.000000
102.741225	102.934800	48.000000	23.000000
102.934800	103.128375	56.000000	23.000000
103.128375	103.316492	48.000000	31.000000
103.316492	103.504609	51.000000	25.000000
103.504609	103.692726	56.000000	26.000000
103.692726	103.879086	47.000000	40.000000
103.879086	104.065446	50.000000	31.000000
104.065446	104.251806	56.000000	31.000000
104.251806	104.665550	68.000000	53.000000
104.251806	104.435685	48.000000	40.000000
104.435685	104.619577	51.000000	35.000000
104.619577	104.818892	56.000000	35.000000
104.665550	104.818892	72.000000	47.000000
104.818892	105.215095	75.000000	57.000000
104.818892	105.006996	44.000000	40.000000
105.006996	105.195112	48.000000	33.000000
105.195112	105.383216	56.000000	33.000000
105.383216	105.792991	63.000000	42.000000
105.383216	105.792991	75.000000	51.000000
105.383216	105.565338	48.000000	40.000000
105.565338	105.747460	51.000000	29.000000
105.747460	105.929582	56.000000	30.000000
105.929582	106.338995	63.000000	45.000000
105.929582	106.338995	75.000000	53.000000
105.929582	106.111543	47.000000	40.000000
106.111543	106.293505	50.000000	33.000000
106.293505	106.475466	56.000000	33.000000
106.475466	106.901562	63.000000	44.000000
106.475466	106.901562	75.000000	52.000000
106.475466	106.659345	48.000000	40.000000
106.659345	106.851471	51.000000	35.000000
106.851471	107.089491	56.000000	35.000000
107.089491	108.190968	64.000000	49.000000
107.089491	108.190968	76.000000	58.000000
107.089491	107.273276	49.000000	40.000000
107.273276	107.457061	52.000000	33.000000
107.457061	107.640846	56.000000	33.000000
107.640846	107.820501	49.000000	40.000000
107.820501	108.000168	52.000000	29.000000
108.000168	108.190968	58.000000	30.000000
108.190968	109.289950	63.000000	46.000000
108.190968	109.289950	75.000000	55.000000
108.190968	108.374753	47.000000	40.000000
108.374753	108.558538	54.000000	33.000000
108.558538	108.742323	59.000000	33.000000
108.742323	108.921186	47.000000	40.000000
108.921186	109.100049	54.000000	35.000000
109.100049	109.289950	59.000000	35.000000
109.289950	110.383058	73.000000	58.000000
109.289950	109.472903	52.000000	40.000000
109.472903	109.655857	56.000000	33.000000
109.655857	109.838811	61.000000	33.000000
109.838811	110.016883	52.000000	40.000000
110.016883	110.194941	54.000000	29.000000
110.194941	110.383058	58.000000	30.000000
110.383058	111.197712	71.000000	52.000000
110.383058	110.565180	51.000000	35.000000
110.565180	110.747302	54.000000	28.000000
110.747302	110.929424	59.000000	28.000000
110.929424	111.108287	51.000000	35.000000
111.108287	111.287137	55.000000	27.000000
111.197712	111.466001	70.000000	45.000000
111.287137	111.466001	61.000000	35.000000
111.466001	112.004414	68.000000	40.000000
111.466001	111.648954	52.000000	30.000000
111.648954	111.831908	56.000000	24.000000
111.831908	112.004414	59.000000	24.000000
112.004414	112.071778	68.000000	33.000000
112.004414	112.184069	56.000000	32.000000
112.071778	112.543404	76.000000	52.000000
112.184069	112.363736	59.000000	23.000000
112.363736	112.543404	64.000000	24.000000
112.543404	113.099869	75.000000	46.000000
112.543404	112.728893	54.000000	30.000000
112.728893	112.914381	59.000000	23.000000
112.914381	113.099869	63.000000	23.000000
113.099869	113.664220	73.000000	42.000000
113.099869	113.287986	54.000000	29.000000
113.287986	113.476103	58.000000	23.000000
113.476103	113.664220	61.000000	23.000000
113.664220	115.370830	71.000000	48.000000
113.664220	113.856856	47.000000	33.000000
113.856856	114.049493	51.000000	23.000000
114.049493	114.242129	59.000000	23.000000
114.242129	114.430246	51.000000	31.000000
114.430246	114.618363	54.000000	25.000000
114.618363	114.806479	59.000000	27.000000
114.806479	114.994596	50.000000	42.000000
114.994596	115.182713	53.000000	32.000000
115.182713	115.370830	59.000000	32.000000
115.370830	115.784574	71.000000	57.000000
115.370830	115.554709	51.000000	42.000000
115.554709	115.738601	54.000000	37.000000
115.738601	115.937916	59.000000	38.000000
115.784574	115.937916	75.000000	50.000000
115.937916	116.498445	66.000000	46.000000
115.937916	116.498445	78.000000	62.000000
115.937916	116.125148	47.000000	44.000000
116.125148	116.312380	51.000000	36.000000
116.312380	116.499612	54.000000	37.000000
116.499612	117.044838	66.000000	48.000000
116.499612	117.044838	78.000000	59.000000
116.499612	116.681734	47.000000	47.000000
116.681734	116.863856	51.000000	34.000000
116.863856	117.045978	54.000000	36.000000
117.045978	117.590735	67.000000	57.000000
117.045978	117.590735	79.000000	67.000000
117.045978	117.227939	46.000000	51.000000
117.227939	117.409900	49.000000	48.000000
117.409900	117.591875	51.000000	49.000000
117.591875	118.142385	68.000000	59.000000
117.591875	118.142385	80.000000	71.000000
117.591875	117.775754	44.000000	62.000000
117.775754	117.959646	49.000000	55.000000
117.959646	118.143539	51.000000	56.000000
118.143539	118.688752	70.000000	64.000000
118.143539	118.688752	82.000000	79.000000
118.143539	118.325647	43.000000	72.000000
118.325647	118.507769	49.000000	58.000000
118.507769	118.689891	51.000000	62.000000
118.689891	119.234648	73.000000	64.000000
118.689891	119.234648	85.000000	77.000000
118.689891	118.871853	43.000000	69.000000
118.871853	119.053814	46.000000	48.000000
119.053814	119.235788	51.000000	55.000000
119.235788	119.786299	71.000000	62.000000
119.235788	119.786299	83.000000	74.000000
119.235788	119.419667	44.000000	62.000000
119.419667	119.603560	47.000000	49.000000
119.603560	119.787452	51.000000	48.000000
119.787452	120.201197	70.000000	49.000000
119.787452	120.201197	82.000000	58.000000
119.787452	119.971331	49.000000	44.000000
119.971331	120.155223	52.000000	38.000000
120.155223	120.346371	58.000000	38.000000
120.201197	120.346371	68.000000	42.000000
120.201197	120.346371	80.000000	51.000000
120.346371	120.913377	67.000000	49.000000
120.346371	120.913377	79.000000	58.000000
120.346371	120.535373	51.000000	33.000000
120.535373	120.724375	58.000000	27.000000
120.724375	120.913377	61.000000	27.000000
120.913377	121.469842	67.000000	46.000000
120.913377	121.469842	79.000000	55.000000
120.913377	121.098865	51.000000	34.000000
121.098865	121.284354	58.000000	25.000000
121.284354	121.469842	61.000000	26.000000
121.469842	121.743012	68.000000	45.000000
121.469842	121.743012	80.000000	53.000000
121.469842	121.651951	51.000000	36.000000
121.651951	121.834073	58.000000	29.000000
121.743012	122.016195	67.000000	37.000000
121.743012	122.016195	79.000000	45.000000
121.834073	122.016195	61.000000	29.000000
122.016195	122.298363	65.000000	38.000000
122.016195	122.298363	77.000000	46.000000
122.016195	122.204312	51.000000	35.000000
122.204312	122.392415	58.000000	28.000000
122.298363	122.592790	67.000000	37.000000
122.298363	122.592790	79.000000	45.000000
122.392415	122.592790	61.000000	28.000000
122.592790	123.546933	68.000000	40.000000
122.592790	124.299400	80.000000	48.000000
122.592790	122.785426	56.000000	33.000000
122.785426	122.978063	60.000000	23.000000
122.978063	123.170699	63.000000	23.000000
123.170699	123.358816	60.000000	31.000000
123.358816	123.546933	63.000000	25.000000
123.546933	124.111283	68.000000	27.000000
123.735049	123.923166	59.000000	38.000000
123.923166	124.111283	62.000000	32.000000
124.111283	124.299400	68.000000	32.000000
124.299400	124.713144	80.000000	57.000000
124.299400	124.483279	60.000000	42.000000
124.483279	124.667171	63.000000	37.000000
124.667171	124.866486	68.000000	38.000000
124.713144	124.866486	84.000000	50.000000
124.866486	125.289739	75.000000	57.000000
124.866486	125.289739	87.000000	68.000000
124.866486	125.054590	56.000000	44.000000
125.054590	125.242707	60.000000	36.000000
125.242707	125.430824	68.000000	37.000000
125.430824	125.840598	75.000000	52.000000
125.430824	125.840598	87.000000	62.000000
125.430824	125.612946	60.000000	47.000000
125.612946	125.795068	63.000000	34.000000
125.795068	125.977190	68.000000	36.000000
125.977190	126.386603	75.000000	56.000000
125.977190	126.386603	87.000000	67.000000
125.977190	126.159151	59.000000	50.000000
126.159151	126.341112	62.000000	42.000000
126.341112	126.523073	68.000000	43.000000
126.523073	126.936818	75.000000	60.000000
126.523073	126.936818	87.000000	71.000000
126.523073	126.706952	60.000000	55.000000
126.706952	126.890845	63.000000	47.000000
126.890845	127.074737	68.000000	45.000000
127.074737	127.619950	77.000000	58.000000
127.074737	127.619950	89.000000	69.000000
127.074737	127.256846	61.000000	61.000000
127.256846	127.438968	65.000000	46.000000
127.438968	127.621090	68.000000	51.000000
127.621090	128.165847	79.000000	57.000000
127.621090	128.165847	91.000000	72.000000
127.621090	127.803051	61.000000	61.000000
127.803051	127.985012	63.000000	49.000000
127.985012	128.166987	70.000000	49.000000
128.166987	128.717497	80.000000	58.000000
128.166987	128.717497	92.000000	69.000000
128.166987	128.350866	60.000000	57.000000
128.350866	128.534758	63.000000	45.000000
128.534758	128.718651	68.000000	44.000000
128.718651	129.132395	75.000000	51.000000
128.718651	129.132395	87.000000	61.000000
128.718651	128.902530	60.000000	44.000000
128.902530	129.086422	63.000000	38.000000
129.086422	129.277570	68.000000	38.000000
129.277570	129.841907	75.000000	56.000000
129.277570	129.841907	87.000000	66.000000
129.277570	129.465673	58.000000	44.000000
129.465673	129.653790	63.000000	36.000000
129.653790	129.841907	70.000000	37.000000
129.841907	130.115090	73.000000	45.000000
129.841907	130.115090	85.000000	54.000000
129.841907	130.024029	58.000000	47.000000
130.024029	130.206151	63.000000	34.000000
130.206151	130.388260	67.000000	36.000000
130.388260	130.934157	73.000000	52.000000
130.388260	130.934157	85.000000	62.000000
130.388260	130.570234	56.000000	45.000000
130.570234	130.752196	63.000000	36.000000
130.752196	130.934157	68.000000	36.000000
130.934157	131.209982	72.000000	46.000000
130.934157	131.209982	84.000000	55.000000
130.934157	131.118036	56.000000	46.000000
131.118036	131.301928	63.000000	37.000000
131.301928	131.485820	68.000000	36.000000
131.485820	132.034681	82.000000	56.000000
131.485820	131.668774	61.000000	30.000000
131.668774	131.851728	68.000000	24.000000
131.851728	132.034681	70.000000	24.000000
132.034681	132.583542	85.000000	50.000000
132.034681	132.217635	65.000000	32.000000
132.217635	132.400588	68.000000	23.000000
132.400588	132.583542	73.000000	24.000000
132.583542	133.140020	84.000000	57.000000
132.583542	132.769044	63.000000	30.000000
132.769044	132.954532	68.000000	23.000000
132.954532	133.140020	72.000000	23.000000
133.140020	133.704371	82.000000	49.000000
133.140020	133.328137	63.000000	29.000000
133.328137	133.516254	67.000000	23.000000
133.516254	133.704371	70.000000	23.000000
133.704371	133.897007	80.000000	53.000000
133.704371	133.993325	60.000000	25.000000
133.704371	133.993325	56.000000	25.000000
133.704371	133.993325	68.000000	30.000000
133.897007	134.089644	63.000000	48.000000
134.089644	134.282280	68.000000	48.000000
134.282280	134.471282	72.000000	59.000000
134.471282	134.660284	68.000000	48.000000
134.660284	134.849286	63.000000	49.000000
134.849286	135.035646	75.000000	59.000000
135.035646	135.222006	72.000000	53.000000
135.222006	135.408366	68.000000	54.000000
135.408366	135.592258	68.000000	59.000000
135.408366	135.822124	56.000000	58.000000
135.592258	135.776151	72.000000	53.000000
135.776151	135.975466	75.000000	53.000000
135.822124	135.975466	60.000000	51.000000
135.975466	136.162697	75.000000	59.000000
135.975466	136.396734	63.000000	62.000000
136.162697	136.349929	70.000000	53.000000
136.349929	136.537161	67.000000	53.000000
136.537161	136.719283	75.000000	59.000000
136.537161	136.946936	63.000000	56.000000
136.719283	136.901405	70.000000	52.000000
136.901405	137.083527	67.000000	52.000000
137.083527	137.265488	75.000000	59.000000
137.083527	137.492940	63.000000	58.000000
137.265488	137.447450	72.000000	51.000000
137.447450	137.629411	68.000000	51.000000
137.629411	137.813303	70.000000	62.000000
137.629411	138.049043	63.000000	57.000000
137.813303	138.001112	75.000000	55.000000
138.001112	138.192836	79.000000	57.000000
138.192836	138.375790	80.000000	66.000000
138.192836	139.283919	65.000000	63.000000
138.375790	138.558743	75.000000	59.000000
138.558743	138.741697	68.000000	59.000000
138.741697	138.917408	80.000000	67.000000
138.917408	139.093120	74.000000	59.000000
139.093120	139.283919	68.000000	59.000000
139.283919	139.467718	80.000000	65.000000
139.283919	140.382915	63.000000	60.000000
139.467718	139.651503	75.000000	54.000000
139.651503	139.823808	70.000000	54.000000
139.835301	140.014151	70.000000	61.000000
140.014151	140.193014	75.000000	52.000000
140.193014	140.382915	79.000000	52.000000
140.382915	140.565868	77.000000	59.000000
140.382915	141.476023	61.000000	63.000000
140.565868	140.748822	70.000000	51.000000
140.748822	140.931776	67.000000	52.000000
140.931776	141.109847	77.000000	59.000000
141.109847	141.287906	71.000000	53.000000
141.287906	141.476023	67.000000	53.000000
141.476023	141.658132	77.000000	57.000000
141.476023	142.571813	60.000000	57.000000
141.658132	141.840254	72.000000	51.000000
141.840254	142.010990	68.000000	51.000000
142.022376	142.201239	68.000000	59.000000
142.201239	142.380102	72.000000	52.000000
142.380102	142.571813	75.000000	52.000000
142.571813	142.754767	61.000000	59.000000
142.571813	143.120674	58.000000	57.000000
142.754767	142.937720	68.000000	54.000000
142.937720	143.120674	73.000000	54.000000
143.120674	143.303614	65.000000	59.000000
143.120674	143.669521	61.000000	55.000000
143.303614	143.486568	68.000000	55.000000
143.486568	143.669521	70.000000	56.000000
143.669521	143.855023	63.000000	59.000000
143.669521	144.226000	60.000000	61.000000
143.855023	144.040511	68.000000	54.000000
144.040511	144.226000	72.000000	54.000000
144.226000	144.790350	63.000000	59.000000
144.226000	144.790350	67.000000	70.000000
144.226000	144.790350	51.000000	45.000000
144.226000	144.790350	58.000000	54.000000
144.414117	144.602233	75.000000	63.000000
144.602233	144.790350	73.000000	67.000000
144.790350	144.983000	63.000000	60.000000
144.790350	144.983000	68.000000	60.000000
144.790350	144.983000	72.000000	71.000000
144.790350	145.368273	56.000000	60.000000
144.790350	145.368273	51.000000	51.000000
144.790350	145.368273	44.000000	51.000000
144.983000	145.175636	63.000000	59.000000
145.175636	145.368273	68.000000	59.000000
145.368273	145.557275	72.000000	67.000000
145.557275	145.746277	68.000000	56.000000
145.746277	145.935279	63.000000	56.000000
145.935279	146.120767	75.000000	66.000000
146.120767	146.306255	72.000000	57.000000
146.306255	146.480156	68.000000	57.000000
146.491744	146.675636	68.000000	68.000000
146.491744	146.905501	56.000000	63.000000
146.491744	146.905501	44.000000	63.000000
146.675636	146.859528	72.000000	60.000000
146.859528	147.058843	75.000000	60.000000
146.905501	147.058843	48.000000	56.000000
146.905501	147.058843	60.000000	56.000000
147.058843	147.246960	75.000000	69.000000
147.058843	147.482096	51.000000	68.000000
147.058843	147.455060	63.000000	68.000000
147.246960	147.435077	70.000000	59.000000
147.435077	147.623181	67.000000	59.000000
147.623181	147.805303	75.000000	70.000000
147.623181	148.032955	63.000000	61.000000
147.623181	148.032955	51.000000	50.000000
147.805303	147.987425	70.000000	57.000000
147.987425	148.169547	67.000000	57.000000
148.169547	148.351521	75.000000	71.000000
148.169547	148.578973	51.000000	53.000000
148.169547	148.578973	63.000000	63.000000
148.351521	148.533483	71.000000	61.000000
148.533483	148.715444	68.000000	59.000000
148.715444	148.899336	70.000000	68.000000
148.715444	149.135076	51.000000	52.000000
148.715444	149.135076	63.000000	62.000000
148.899336	149.087145	75.000000	62.000000
149.087145	149.286862	79.000000	63.000000
149.286862	149.474094	80.000000	68.000000
149.286862	150.398679	52.000000	58.000000
149.286862	150.398679	64.000000	69.000000
149.474094	149.661325	75.000000	58.000000
149.661325	149.848557	68.000000	58.000000
149.848557	150.028212	80.000000	67.000000
150.028212	150.207880	73.000000	59.000000
150.207880	150.398679	70.000000	59.000000
150.398679	150.582464	80.000000	67.000000
150.398679	151.501255	51.000000	55.000000
150.398679	151.501255	63.000000	66.000000
150.582464	150.766249	75.000000	57.000000
150.766249	150.938554	71.000000	57.000000
150.950047	151.128897	71.000000	65.000000
151.128897	151.307760	75.000000	57.000000
151.307760	151.501255	78.000000	57.000000
151.501255	151.684209	76.000000	65.000000
151.501255	152.594363	49.000000	58.000000
151.501255	152.594363	61.000000	69.000000
151.684209	151.867162	71.000000	55.000000
151.867162	152.050116	67.000000	55.000000
152.050116	152.228188	76.000000	62.000000
152.228188	152.406246	70.000000	53.000000
152.406246	152.594363	67.000000	53.000000
152.594363	152.776472	76.000000	64.000000
152.594363	153.409004	59.000000	62.000000
152.594363	153.689027	47.000000	52.000000
152.776472	152.958594	71.000000	55.000000
152.958594	153.129330	68.000000	55.000000
153.140716	153.319579	68.000000	65.000000
153.319579	153.498429	71.000000	56.000000
153.409004	153.689027	58.000000	68.000000
153.498429	153.689027	75.000000	56.000000
153.689027	153.871981	68.000000	66.000000
153.689027	154.234213	56.000000	61.000000
153.689027	154.234213	52.000000	52.000000
153.871981	154.054934	71.000000	59.000000
154.054934	154.234213	73.000000	57.000000
154.234213	154.417167	68.000000	67.000000
154.234213	154.797652	49.000000	46.000000
154.234213	154.797652	56.000000	46.000000
154.234213	154.797652	64.000000	55.000000
154.417167	154.600120	71.000000	56.000000
154.600120	154.797652	76.000000	56.000000
154.797652	154.983153	66.000000	66.000000
154.797652	155.354130	63.000000	56.000000
154.797652	155.354130	54.000000	47.000000
154.983153	155.168642	71.000000	56.000000
155.168642	155.354130	75.000000	56.000000
155.354130	155.938114	66.000000	56.000000
155.354130	155.938114	70.000000	67.000000
155.354130	155.938114	54.000000	42.000000
155.354130	155.938114	61.000000	50.000000
155.542234	155.730350	78.000000	57.000000
155.730350	155.938114	76.000000	57.000000
155.938114	156.130751	66.000000	53.000000
155.938114	156.130751	71.000000	53.000000
155.938114	156.130751	75.000000	53.000000
155.938114	156.516024	47.000000	50.000000
155.938114	156.516024	54.000000	50.000000
155.938114	156.516024	59.000000	59.000000
156.130751	156.323387	63.000000	48.000000
156.323387	156.516024	66.000000	48.000000
156.516024	156.705026	71.000000	59.000000
156.705026	156.894027	66.000000	48.000000
156.894027	157.083029	63.000000	49.000000
157.083029	157.269389	75.000000	59.000000
157.269389	157.455749	71.000000	53.000000
157.455749	157.642109	66.000000	54.000000
157.642109	157.826002	71.000000	59.000000
157.826002	158.009894	75.000000	53.000000
158.009894	158.209209	78.000000	53.000000
158.209209	158.630477	66.000000	46.000000
158.209209	158.630477	78.000000	62.000000
158.209209	158.396441	47.000000	44.000000
158.396441	158.583673	51.000000	36.000000
158.583673	158.770904	54.000000	37.000000
158.770904	159.316131	66.000000	48.000000
158.770904	159.316131	78.000000	59.000000
158.770904	158.953027	47.000000	47.000000
158.953027	159.135149	51.000000	34.000000
159.135149	159.317271	54.000000	36.000000
159.317271	159.862028	67.000000	57.000000
159.317271	159.862028	79.000000	67.000000
159.317271	159.499232	46.000000	51.000000
159.499232	159.681193	49.000000	48.000000
159.681193	159.863168	51.000000	49.000000
159.863168	160.413678	68.000000	60.000000
159.863168	160.413678	80.000000	72.000000
159.863168	160.047047	44.000000	62.000000
160.047047	160.230939	49.000000	55.000000
160.230939	160.414831	51.000000	56.000000
160.414831	160.960044	70.000000	64.000000
160.414831	160.960044	82.000000	79.000000
160.414831	160.596940	43.000000	72.000000
160.596940	160.779062	49.000000	58.000000
160.779062	160.961184	51.000000	62.000000
160.961184	161.505941	73.000000	64.000000
160.961184	161.505941	85.000000	77.000000
160.961184	161.143146	43.000000	69.000000
161.143146	161.325107	46.000000	48.000000
161.325107	161.507081	51.000000	55.000000
161.507081	162.057592	71.000000	62.000000
161.507081	162.057592	83.000000	74.000000
161.507081	161.690960	44.000000	62.000000
161.690960	161.874853	47.000000	49.000000
161.874853	162.058745	51.000000	48.000000
162.058745	162.472489	70.000000	49.000000
162.058745	162.472489	82.000000	58.000000
162.058745	162.242624	49.000000	44.000000
162.242624	162.426516	52.000000	38.000000
162.426516	162.617664	58.000000	38.000000
162.472489	162.617664	68.000000	42.000000
162.472489	162.617664	80.000000	51.000000
162.617664	163.184670	67.000000	49.000000
162.617664	163.184670	79.000000	58.000000
162.617664	162.806666	51.000000	33.000000
162.806666	162.995668	58.000000	27.000000
162.995668	163.184670	61.000000	27.000000
163.184670	163.741135	67.000000	46.000000
163.184670	163.741135	79.000000	55.000000
163.184670	163.370158	51.000000	34.000000
163.370158	163.555647	58.000000	25.000000
163.555647	163.741135	61.000000	26.000000
163.741135	164.014305	68.000000	45.000000
163.741135	164.014305	80.000000	53.000000
163.741135	163.923244	51.000000	36.000000
163.923244	164.105366	58.000000	29.000000
164.014305	164.287488	67.000000	37.000000
164.014305	164.287488	79.000000	45.000000
164.105366	164.287488	61.000000	29.000000
164.287488	164.569656	65.000000	38.000000
164.287488	164.569656	77.000000	46.000000
164.287488	164.475605	51.000000	35.000000
164.475605	164.663708	58.000000	28.000000
164.569656	164.864083	67.000000	37.000000
164.569656	164.864083	79.000000	45.000000
164.663708	164.864083	61.000000	28.000000
164.864083	166.006329	68.000000	40.000000
164.864083	166.006329	80.000000	48.000000
164.864083	165.008547	44.000000	33.000000
165.056706	165.201183	51.000000	19.000000
165.056706	165.201183	56.000000	19.000000
165.056706	165.201183	60.000000	23.000000
165.249342	165.393819	51.000000	19.000000
165.249342	165.393819	56.000000	19.000000
165.249342	165.393819	60.000000	23.000000
165.441978	165.583063	51.000000	21.000000
165.441978	165.583063	56.000000	21.000000
165.441978	165.583063	60.000000	25.000000
165.630095	165.771180	51.000000	21.000000
165.630095	165.771180	60.000000	25.000000
165.630095	165.771180	56.000000	21.000000
165.818212	165.959296	60.000000	25.000000
165.818212	165.959296	56.000000	21.000000
165.818212	165.959296	51.000000	21.000000
166.006329	166.293165	73.000000	53.000000
166.006329	166.142921	60.000000	32.000000
166.006329	166.142921	51.000000	27.000000
166.006329	166.142921	56.000000	27.000000
166.188451	166.325029	60.000000	24.000000
166.188451	166.325029	51.000000	20.000000
166.188451	166.325029	56.000000	20.000000
166.279512	166.566656	72.000000	53.000000
166.370560	166.507151	51.000000	21.000000
166.370560	166.507151	60.000000	25.000000
166.370560	166.507151	56.000000	21.000000
166.552682	166.846196	71.000000	53.000000
166.552682	166.692452	60.000000	33.000000
166.552682	166.692452	56.000000	28.000000
166.552682	166.692452	51.000000	28.000000
166.739042	166.878812	56.000000	21.000000
166.739042	166.878812	60.000000	25.000000
166.739042	166.878812	51.000000	21.000000
166.832222	167.098767	72.000000	53.000000
166.925402	167.056508	60.000000	25.000000
166.925402	167.056508	56.000000	21.000000
166.925402	167.056508	51.000000	21.000000
167.098767	167.232327	72.000000	48.000000
167.098767	167.232327	37.000000	33.000000
167.232327	168.223954	77.000000	48.000000
167.279802	167.422228	53.000000	19.000000
167.279802	167.422228	60.000000	23.000000
167.279802	167.422228	49.000000	19.000000
167.469703	167.612128	60.000000	23.000000
167.469703	167.612128	53.000000	19.000000
167.469703	167.612128	49.000000	19.000000
167.659603	167.800688	57.000000	30.000000
167.659603	167.800688	49.000000	25.000000
167.659603	167.800688	53.000000	25.000000
167.847720	167.988805	53.000000	21.000000
167.847720	167.988805	49.000000	21.000000
167.847720	167.988805	57.000000	25.000000
168.035837	168.176921	49.000000	21.000000
168.035837	168.176921	57.000000	25.000000
168.035837	168.176921	53.000000	21.000000
168.223954	168.510790	72.000000	53.000000
168.223954	168.360546	49.000000	27.000000
168.223954	168.360546	58.000000	32.000000
168.223954	168.360546	53.000000	27.000000
168.406076	168.542654	49.000000	20.000000
168.406076	168.542654	53.000000	20.000000
168.406076	168.542654	58.000000	24.000000
168.497137	168.784281	70.000000	53.000000
168.588185	168.724776	58.000000	25.000000
168.588185	168.724776	49.000000	21.000000
168.588185	168.724776	53.000000	21.000000
168.770307	169.063821	69.000000	53.000000
168.770307	168.910077	49.000000	28.000000
168.770307	168.910077	58.000000	33.000000
168.770307	168.910077	53.000000	28.000000
168.956667	169.096437	49.000000	21.000000
168.956667	169.096437	53.000000	21.000000
168.956667	169.096437	58.000000	25.000000
169.049847	169.318564	70.000000	53.000000
169.143027	169.275582	53.000000	21.000000
169.143027	169.275582	49.000000	21.000000
169.143027	169.275582	58.000000	25.000000
169.318564	169.449201	70.000000	48.000000
169.318564	169.449201	36.000000	33.000000
169.449201	170.446984	75.000000	48.000000
169.497360	169.641838	48.000000	19.000000
169.497360	169.641838	51.000000	19.000000
169.497360	169.641838	58.000000	23.000000
169.689997	169.834474	51.000000	19.000000
169.689997	169.834474	48.000000	19.000000
169.689997	169.834474	58.000000	23.000000
169.882633	170.023717	48.000000	25.000000
169.882633	170.023717	55.000000	30.000000
169.882633	170.023717	51.000000	25.000000
170.070750	170.211834	55.000000	25.000000
170.070750	170.211834	51.000000	21.000000
170.070750	170.211834	48.000000	21.000000
170.258867	170.399951	48.000000	21.000000
170.258867	170.399951	51.000000	21.000000
170.258867	170.399951	55.000000	25.000000
170.446984	170.733819	73.000000	58.000000
170.446984	170.583575	56.000000	35.000000
170.446984	170.583575	51.000000	29.000000
170.446984	170.583575	48.000000	29.000000
170.629106	170.765684	51.000000	22.000000
170.629106	170.765684	48.000000	22.000000
170.629106	170.765684	56.000000	27.000000
170.720167	171.007311	72.000000	60.000000
170.811214	170.947806	51.000000	24.000000
170.811214	170.947806	56.000000	29.000000
170.811214	170.947806	48.000000	24.000000
170.993337	171.286851	70.000000	63.000000
170.993337	171.133107	48.000000	33.000000
170.993337	171.133107	56.000000	39.000000
170.993337	171.133107	51.000000	33.000000
171.179697	171.319467	48.000000	25.000000
171.179697	171.319467	56.000000	30.000000
171.179697	171.319467	51.000000	25.000000
171.272877	171.567571	68.000000	66.000000
171.366057	171.515925	51.000000	26.000000
171.366057	171.515925	48.000000	26.000000
171.366057	171.515925	56.000000	31.000000
171.567571	171.835859	67.000000	57.000000
171.567571	171.835859	75.000000	68.000000
171.567571	171.701722	37.000000	42.000000
171.746434	171.880572	53.000000	30.000000
171.746434	171.880572	49.000000	25.000000
171.835859	172.104147	65.000000	56.000000
171.835859	172.104147	73.000000	66.000000
171.925284	172.059435	53.000000	31.000000
171.925284	172.059435	49.000000	26.000000
172.104147	172.377317	63.000000	53.000000
172.104147	172.377317	72.000000	63.000000
172.104147	172.240726	49.000000	33.000000
172.104147	172.240726	53.000000	39.000000
172.286256	172.422848	49.000000	24.000000
172.286256	172.422848	53.000000	29.000000
172.377317	172.668833	61.000000	51.000000
172.377317	172.668833	70.000000	60.000000
172.468378	172.617187	53.000000	28.000000
172.468378	172.617187	49.000000	23.000000
172.668833	173.241968	60.000000	49.000000
172.668833	173.241968	68.000000	58.000000
172.668833	172.805425	39.000000	36.000000
172.850955	172.987547	51.000000	21.000000
172.850955	172.987547	56.000000	26.000000
173.033077	173.187519	56.000000	26.000000
173.033077	173.187519	51.000000	22.000000
173.241968	173.661278	63.000000	55.000000
173.241968	173.661278	72.000000	55.000000
173.241968	173.381738	39.000000	34.000000
173.428328	173.568098	51.000000	21.000000
173.428328	173.568098	55.000000	26.000000
173.614688	173.764557	51.000000	21.000000
173.614688	173.764557	55.000000	25.000000
173.661278	173.816202	61.000000	54.000000
173.661278	173.816202	70.000000	54.000000
173.816202	174.008825	60.000000	40.000000
173.816202	174.394098	68.000000	48.000000
173.816202	173.960666	44.000000	33.000000
174.008825	174.201462	60.000000	23.000000
174.008825	174.153303	51.000000	19.000000
174.008825	174.153303	56.000000	19.000000
174.201462	174.345939	56.000000	19.000000
174.201462	174.394098	60.000000	23.000000
174.201462	174.345939	51.000000	19.000000
174.394098	174.535182	60.000000	25.000000
174.394098	174.535182	51.000000	21.000000
174.394098	174.535182	56.000000	21.000000
174.582215	174.723299	60.000000	25.000000
174.582215	174.723299	56.000000	21.000000
174.582215	174.723299	51.000000	21.000000
174.770332	174.911416	60.000000	25.000000
174.770332	174.911416	51.000000	21.000000
174.770332	174.911416	56.000000	21.000000
174.958449	175.245284	73.000000	53.000000
174.958449	175.095040	60.000000	32.000000
174.958449	175.095040	51.000000	27.000000
174.958449	175.095040	56.000000	27.000000
175.140571	175.277149	56.000000	20.000000
175.140571	175.277149	60.000000	24.000000
175.140571	175.277149	51.000000	20.000000
175.231632	175.518776	72.000000	53.000000
175.322680	175.459271	51.000000	21.000000
175.322680	175.459271	56.000000	21.000000
175.322680	175.459271	60.000000	25.000000
175.504802	175.798316	71.000000	53.000000
175.504802	175.644572	60.000000	33.000000
175.504802	175.644572	56.000000	28.000000
175.504802	175.644572	51.000000	28.000000
175.691162	175.830932	51.000000	21.000000
175.691162	175.830932	56.000000	21.000000
175.691162	175.830932	60.000000	25.000000
175.784342	176.073632	72.000000	53.000000
175.877522	176.023796	51.000000	21.000000
175.877522	176.023796	60.000000	25.000000
175.877522	176.023796	56.000000	21.000000
176.073632	176.370727	84.000000	53.000000
176.073632	177.205685	77.000000	48.000000
176.073632	176.214059	37.000000	33.000000
176.261534	176.403959	49.000000	19.000000
176.261534	176.403959	53.000000	19.000000
176.261534	176.403959	60.000000	23.000000
176.356484	176.655443	82.000000	53.000000
176.451434	176.593860	60.000000	23.000000
176.451434	176.593860	53.000000	19.000000
176.451434	176.593860	49.000000	19.000000
176.641335	176.937612	81.000000	53.000000
176.641335	176.782419	49.000000	25.000000
176.641335	176.782419	60.000000	30.000000
176.641335	176.782419	53.000000	25.000000
176.829452	176.970536	53.000000	21.000000
176.829452	176.970536	60.000000	25.000000
176.829452	176.970536	49.000000	21.000000
176.923503	177.205685	82.000000	53.000000
177.017569	177.158653	53.000000	21.000000
177.017569	177.158653	49.000000	21.000000
177.017569	177.158653	60.000000	25.000000
177.205685	177.492521	72.000000	53.000000
177.205685	177.342277	58.000000	32.000000
177.205685	177.342277	53.000000	27.000000
177.205685	177.342277	49.000000	27.000000
177.387808	177.524386	53.000000	20.000000
177.387808	177.524386	58.000000	24.000000
177.387808	177.524386	49.000000	20.000000
177.478869	177.766013	70.000000	53.000000
177.569916	177.706508	53.000000	21.000000
177.569916	177.706508	58.000000	25.000000
177.569916	177.706508	49.000000	21.000000
177.752038	178.045553	69.000000	53.000000
177.752038	177.891808	53.000000	28.000000
177.752038	177.891808	58.000000	33.000000
177.752038	177.891808	49.000000	28.000000
177.938398	178.078168	53.000000	21.000000
177.938398	178.078168	49.000000	21.000000
177.938398	178.078168	58.000000	25.000000
178.031578	178.315826	70.000000	53.000000
178.124758	178.267667	49.000000	21.000000
178.124758	178.267667	58.000000	25.000000
178.124758	178.267667	53.000000	21.000000
178.315826	178.601387	82.000000	58.000000
178.315826	179.454692	75.000000	48.000000
178.315826	178.456910	36.000000	33.000000
178.505069	178.649546	58.000000	23.000000
178.505069	178.649546	51.000000	19.000000
178.505069	178.649546	48.000000	19.000000
178.601387	178.890342	80.000000	60.000000
178.697705	178.842183	58.000000	23.000000
178.697705	178.842183	48.000000	19.000000
178.697705	178.842183	51.000000	19.000000
178.890342	179.172510	79.000000	63.000000
178.890342	179.031426	51.000000	25.000000
178.890342	179.031426	58.000000	30.000000
178.890342	179.031426	48.000000	25.000000
179.078459	179.219543	51.000000	21.000000
179.078459	179.219543	48.000000	21.000000
179.078459	179.219543	58.000000	25.000000
179.172510	179.454692	80.000000	66.000000
179.266575	179.407660	58.000000	25.000000
179.266575	179.407660	48.000000	21.000000
179.266575	179.407660	51.000000	21.000000
179.454692	179.741528	73.000000	58.000000
179.454692	179.591284	51.000000	29.000000
179.454692	179.591284	48.000000	29.000000
179.454692	179.591284	56.000000	35.000000
179.636814	179.773393	56.000000	27.000000
179.636814	179.773393	48.000000	22.000000
179.636814	179.773393	51.000000	22.000000
179.727875	180.015020	72.000000	60.000000
179.818923	179.955515	51.000000	24.000000
179.818923	179.955515	48.000000	24.000000
179.818923	179.955515	56.000000	29.000000
180.001045	180.294560	70.000000	63.000000
180.001045	180.140815	51.000000	33.000000
180.001045	180.140815	56.000000	39.000000
180.001045	180.140815	48.000000	33.000000
180.187405	180.327175	51.000000	25.000000
180.187405	180.327175	48.000000	25.000000
180.187405	180.327175	56.000000	30.000000
180.280585	180.575280	68.000000	66.000000
180.373765	180.523634	51.000000	26.000000
180.373765	180.523634	56.000000	31.000000
180.373765	180.523634	48.000000	26.000000
180.575280	180.843568	75.000000	57.000000
180.575280	180.843568	67.000000	57.000000
180.575280	180.843568	79.000000	68.000000
180.575280	180.709430	37.000000	42.000000
180.754143	180.888280	56.000000	30.000000
180.754143	180.888280	49.000000	25.000000
180.754143	180.888280	53.000000	25.000000
180.843568	181.111856	73.000000	56.000000
180.843568	181.111856	65.000000	56.000000
180.843568	181.111856	77.000000	66.000000
180.932993	181.067144	53.000000	26.000000
180.932993	181.067144	56.000000	31.000000
180.932993	181.067144	49.000000	26.000000
181.111856	181.385026	72.000000	53.000000
181.111856	181.385026	63.000000	53.000000
181.111856	181.385026	75.000000	63.000000
181.111856	181.248434	53.000000	33.000000
181.111856	181.248434	57.000000	39.000000
181.111856	181.248434	49.000000	33.000000
181.293965	181.430556	53.000000	24.000000
181.293965	181.430556	49.000000	24.000000
181.293965	181.430556	57.000000	29.000000
181.385026	181.676542	70.000000	51.000000
181.385026	181.676542	61.000000	51.000000
181.385026	181.676542	73.000000	60.000000
181.476087	181.624896	58.000000	28.000000
181.476087	181.624896	49.000000	23.000000
181.476087	181.624896	53.000000	23.000000
181.676542	182.249677	72.000000	58.000000
181.676542	182.249677	60.000000	49.000000
181.676542	182.249677	68.000000	49.000000
181.676542	181.813133	39.000000	36.000000
181.858664	181.995256	51.000000	21.000000
181.858664	181.995256	56.000000	26.000000
182.040786	182.195228	51.000000	22.000000
182.040786	182.195228	56.000000	26.000000
182.249677	182.823911	61.000000	46.000000
182.249677	182.823911	67.000000	46.000000
182.249677	182.668987	73.000000	55.000000
182.249677	182.389447	39.000000	34.000000
182.436037	182.575807	58.000000	26.000000
182.436037	182.575807	55.000000	21.000000
182.436037	182.575807	51.000000	21.000000
182.622397	182.772265	58.000000	25.000000
182.622397	182.772265	55.000000	21.000000
182.622397	182.772265	51.000000	21.000000
182.668987	182.823911	70.000000	54.000000
182.823911	184.512537	56.000000	40.000000
182.823911	184.512537	63.000000	40.000000
182.823911	184.512537	60.000000	40.000000
182.823911	184.512537	68.000000	48.000000
182.823911	184.512537	32.000000	33.000000
182.823911	182.968388	44.000000	33.000000
183.016547	183.161025	51.000000	23.000000
183.016547	183.161025	44.000000	19.000000
183.016547	183.161025	48.000000	21.000000
183.209184	183.353661	48.000000	19.000000
183.209184	183.353661	44.000000	19.000000
183.209184	183.353661	51.000000	23.000000
183.401820	183.542905	44.000000	21.000000
183.401820	183.542905	48.000000	21.000000
183.401820	183.542905	51.000000	25.000000
183.589937	183.731021	48.000000	21.000000
183.589937	183.731021	51.000000	25.000000
183.589937	183.731021	44.000000	21.000000
183.778054	183.919138	51.000000	25.000000
183.778054	183.919138	48.000000	21.000000
183.778054	183.919138	44.000000	21.000000
183.966171	184.102762	44.000000	27.000000
183.966171	184.102762	51.000000	32.000000
183.966171	184.102762	48.000000	27.000000
184.148293	184.284884	44.000000	20.000000
184.148293	184.284884	51.000000	24.000000
184.148293	184.284884	48.000000	27.000000
184.330415	184.467007	44.000000	21.000000
184.330415	184.467007	48.000000	21.000000
184.330415	184.467007	51.000000	25.000000
184.512537	184.931847	60.000000	40.000000
184.512537	184.652307	51.000000	33.000000
184.512537	184.652307	48.000000	28.000000
184.512537	184.652307	44.000000	28.000000
184.698897	184.838667	44.000000	21.000000
184.698897	184.838667	48.000000	21.000000
184.698897	184.838667	51.000000	25.000000
184.885257	185.031156	44.000000	21.000000
184.885257	185.031156	48.000000	21.000000
184.885257	185.031156	51.000000	25.000000
184.931847	185.080804	63.000000	37.000000
185.080804	185.514236	56.000000	37.000000
185.080804	185.514236	68.000000	44.000000
185.080804	185.225281	44.000000	33.000000
185.080804	186.223063	32.000000	33.000000
185.273440	185.417917	51.000000	23.000000
185.273440	185.417917	44.000000	19.000000
185.273440	185.417917	48.000000	21.000000
185.466076	185.610554	48.000000	19.000000
185.466076	185.610554	44.000000	19.000000
185.466076	185.610554	51.000000	23.000000
185.658713	186.081979	56.000000	34.000000
185.658713	186.081979	68.000000	40.000000
185.658713	185.799797	44.000000	21.000000
185.658713	185.799797	48.000000	21.000000
185.658713	185.799797	51.000000	25.000000
185.846830	185.987914	48.000000	21.000000
185.846830	185.987914	51.000000	25.000000
185.846830	185.987914	44.000000	21.000000
186.034947	186.176031	48.000000	21.000000
186.034947	186.176031	44.000000	21.000000
186.034947	186.176031	51.000000	25.000000
186.223063	186.632838	56.000000	34.000000
186.223063	186.632838	68.000000	40.000000
186.223063	186.359655	51.000000	32.000000
186.223063	186.359655	48.000000	27.000000
186.223063	186.359655	44.000000	27.000000
186.405186	186.541777	48.000000	27.000000
186.405186	186.541777	44.000000	20.000000
186.405186	186.541777	51.000000	24.000000
186.587308	186.723899	51.000000	25.000000
186.587308	186.723899	44.000000	21.000000
186.587308	186.723899	48.000000	21.000000
186.769430	187.188740	56.000000	34.000000
186.769430	187.188740	68.000000	40.000000
186.769430	186.909200	44.000000	28.000000
186.769430	186.909200	51.000000	33.000000
186.769430	186.909200	48.000000	28.000000
186.955790	187.095560	51.000000	25.000000
186.955790	187.095560	48.000000	21.000000
186.955790	187.095560	44.000000	21.000000
187.142150	187.325358	44.000000	21.000000
187.142150	187.325358	51.000000	25.000000
187.142150	187.325358	48.000000	21.000000
187.393661	189.082287	55.000000	40.000000
187.393661	189.082287	67.000000	48.000000
187.393661	188.535920	31.000000	33.000000
187.393661	187.538138	43.000000	33.000000
187.586297	187.730774	43.000000	19.000000
187.586297	187.730774	51.000000	23.000000
187.586297	187.730774	48.000000	21.000000
187.778933	187.923411	48.000000	19.000000
187.778933	187.923411	51.000000	23.000000
187.778933	187.923411	43.000000	19.000000
187.971570	188.112654	48.000000	21.000000
187.971570	188.112654	51.000000	25.000000
187.971570	188.112654	43.000000	21.000000
188.159687	188.300771	43.000000	21.000000
188.159687	188.300771	48.000000	21.000000
188.159687	188.300771	51.000000	25.000000
188.347803	188.488888	48.000000	21.000000
188.347803	188.488888	43.000000	21.000000
188.347803	188.488888	51.000000	25.000000
188.535920	188.672512	43.000000	27.000000
188.535920	188.672512	51.000000	32.000000
188.535920	188.672512	48.000000	27.000000
188.718042	188.854634	51.000000	24.000000
188.718042	188.854634	48.000000	27.000000
188.718042	188.854634	43.000000	20.000000
188.900165	189.036756	48.000000	21.000000
188.900165	189.036756	51.000000	25.000000
188.900165	189.036756	43.000000	21.000000
189.082287	189.501597	60.000000	40.000000
189.082287	189.222057	43.000000	28.000000
189.082287	189.222057	51.000000	33.000000
189.082287	189.222057	48.000000	28.000000
189.268647	189.408417	51.000000	25.000000
189.268647	189.408417	43.000000	21.000000
189.268647	189.408417	48.000000	21.000000
189.455007	189.600906	48.000000	21.000000
189.455007	189.600906	43.000000	21.000000
189.455007	189.600906	51.000000	25.000000
189.501597	189.650553	63.000000	37.000000
189.650553	190.083985	55.000000	37.000000
189.650553	190.083985	67.000000	44.000000
189.650553	190.792813	31.000000	33.000000
189.650553	189.795031	43.000000	33.000000
189.843190	189.987667	51.000000	23.000000
189.843190	189.987667	43.000000	19.000000
189.843190	189.987667	48.000000	21.000000
190.035826	190.180303	51.000000	24.000000
190.035826	190.180303	48.000000	19.000000
190.035826	190.180303	43.000000	19.000000
190.228462	190.651729	67.000000	43.000000
190.228462	190.651729	55.000000	37.000000
190.228462	190.369547	43.000000	22.000000
190.228462	190.369547	48.000000	22.000000
190.228462	190.369547	51.000000	26.000000
190.416579	190.557664	48.000000	24.000000
190.416579	190.557664	43.000000	24.000000
190.416579	190.557664	51.000000	28.000000
190.604696	190.745780	51.000000	29.000000
190.604696	190.745780	48.000000	24.000000
190.604696	190.745780	43.000000	24.000000
190.792813	191.202588	55.000000	42.000000
190.792813	191.202588	67.000000	50.000000
190.792813	190.929405	51.000000	39.000000
190.792813	190.929405	48.000000	33.000000
190.792813	190.929405	43.000000	33.000000
190.974935	191.111527	51.000000	31.000000
190.974935	191.111527	43.000000	24.000000
190.974935	191.111527	48.000000	34.000000
191.157057	191.293649	51.000000	34.000000
191.157057	191.293649	48.000000	28.000000
191.157057	191.293649	43.000000	28.000000
191.339179	191.758489	55.000000	47.000000
191.339179	191.758489	67.000000	56.000000
191.339179	191.478949	43.000000	39.000000
191.339179	191.478949	48.000000	39.000000
191.339179	191.478949	51.000000	46.000000
191.525539	191.665309	43.000000	31.000000
191.525539	191.665309	51.000000	36.000000
191.525539	191.665309	48.000000	31.000000
191.711899	191.895108	51.000000	37.000000
191.711899	191.895108	48.000000	31.000000
191.711899	191.895108	43.000000	31.000000
191.963410	193.183293	53.000000	60.000000
191.963410	193.183293	65.000000	73.000000
191.963410	193.183293	29.000000	55.000000
191.963410	192.109752	41.000000	55.000000
192.158528	192.304869	41.000000	28.000000
192.158528	192.304869	51.000000	35.000000
192.158528	192.304869	48.000000	32.000000
192.353645	192.499986	41.000000	28.000000
192.353645	192.499986	51.000000	35.000000
192.353645	192.499986	48.000000	28.000000
192.548762	192.689847	41.000000	32.000000
192.548762	192.689847	48.000000	32.000000
192.548762	192.689847	51.000000	37.000000
192.736879	192.877964	48.000000	32.000000
192.736879	192.877964	41.000000	32.000000
192.736879	192.877964	51.000000	37.000000
192.924996	193.112872	51.000000	37.000000
192.924996	193.112872	48.000000	32.000000
192.924996	193.112872	41.000000	32.000000
193.183293	194.337368	54.000000	60.000000
193.183293	194.337368	66.000000	73.000000
193.183293	194.337368	30.000000	55.000000
193.183293	193.329634	42.000000	55.000000
193.378410	193.524752	48.000000	32.000000
193.378410	193.524752	42.000000	28.000000
193.378410	193.524752	51.000000	35.000000
193.573528	193.719869	51.000000	35.000000
193.573528	193.719869	42.000000	28.000000
193.573528	193.719869	48.000000	28.000000
193.768645	193.910816	51.000000	37.000000
193.768645	193.910816	48.000000	32.000000
193.768645	193.910816	42.000000	32.000000
193.958211	194.100395	51.000000	37.000000
193.958211	194.100395	48.000000	32.000000
193.958211	194.100395	42.000000	32.000000
194.147789	194.289973	42.000000	32.000000
194.147789	194.289973	48.000000	32.000000
194.147789	194.289973	51.000000	37.000000
194.337368	194.479552	67.000000	39.000000
194.337368	194.479552	55.000000	39.000000
194.337368	196.043576	43.000000	48.000000
194.337368	196.043576	47.000000	48.000000
194.337368	196.043576	50.000000	48.000000
194.526947	194.669131	55.000000	22.000000
194.526947	194.669131	67.000000	27.000000
194.716525	194.858709	55.000000	22.000000
194.716525	194.858709	67.000000	27.000000
194.906104	195.048288	55.000000	25.000000
194.906104	195.048288	67.000000	30.000000
195.095682	195.237866	55.000000	25.000000
195.095682	195.237866	67.000000	30.000000
195.285261	195.427445	55.000000	25.000000
195.285261	195.427445	67.000000	30.000000
195.474840	195.617024	55.000000	32.000000
195.474840	195.617024	67.000000	38.000000
195.664418	195.806602	55.000000	24.000000
195.664418	195.806602	67.000000	28.000000
195.853997	195.996181	55.000000	25.000000
195.853997	195.996181	67.000000	30.000000
196.043576	196.181495	55.000000	33.000000
196.043576	196.181495	67.000000	39.000000
196.043576	196.457334	47.000000	35.000000
196.227468	196.365387	55.000000	25.000000
196.227468	196.365387	67.000000	30.000000
196.411361	196.549280	55.000000	25.000000
196.411361	196.549280	67.000000	30.000000
196.457334	196.595253	48.000000	30.000000
196.595253	196.736337	67.000000	39.000000
196.595253	196.736337	55.000000	39.000000
196.595253	196.991469	50.000000	40.000000
196.783370	196.924454	55.000000	22.000000
196.783370	196.924454	67.000000	27.000000
196.971487	197.112571	55.000000	22.000000
196.971487	197.112571	67.000000	27.000000
197.159603	197.296195	55.000000	25.000000
197.159603	197.296195	67.000000	30.000000
197.159603	197.543200	50.000000	33.000000
197.341726	197.478317	55.000000	25.000000
197.341726	197.478317	67.000000	30.000000
197.523848	197.660439	55.000000	25.000000
197.523848	197.660439	67.000000	30.000000
197.705970	197.842441	55.000000	32.000000
197.705970	197.842441	67.000000	38.000000
197.705970	198.089231	50.000000	33.000000
197.887931	198.024402	55.000000	24.000000
197.887931	198.024402	67.000000	28.000000
198.069892	198.206376	55.000000	25.000000
198.069892	198.206376	67.000000	30.000000
198.251867	198.389786	55.000000	33.000000
198.251867	198.389786	67.000000	39.000000
198.251867	198.665625	48.000000	36.000000
198.435759	198.573678	55.000000	25.000000
198.435759	198.573678	67.000000	30.000000
198.619651	198.757571	55.000000	25.000000
198.619651	198.757571	67.000000	30.000000
198.665625	198.803544	50.000000	37.000000
198.803544	198.941463	67.000000	39.000000
198.803544	198.941463	55.000000	39.000000
198.803544	199.631059	51.000000	42.000000
198.987436	199.125355	55.000000	22.000000
198.987436	199.125355	67.000000	27.000000
199.171329	199.309248	55.000000	22.000000
199.171329	199.309248	67.000000	27.000000
199.355221	199.493140	55.000000	25.000000
199.355221	199.493140	67.000000	30.000000
199.539113	199.677033	55.000000	25.000000
199.539113	199.677033	67.000000	30.000000
199.631059	199.906898	50.000000	35.000000
199.723006	199.860925	55.000000	25.000000
199.723006	199.860925	67.000000	30.000000
199.906898	200.044817	55.000000	32.000000
199.906898	200.044817	67.000000	38.000000
199.906898	200.458575	48.000000	31.000000
200.090790	200.228710	55.000000	24.000000
200.090790	200.228710	67.000000	28.000000
200.274683	200.412602	55.000000	25.000000
200.274683	200.412602	67.000000	30.000000
200.458575	200.594349	55.000000	33.000000
200.458575	200.594349	67.000000	39.000000
200.458575	200.865909	46.000000	39.000000
200.639611	200.775384	55.000000	25.000000
200.639611	200.775384	67.000000	30.000000
200.820647	200.960846	53.000000	25.000000
200.820647	200.960846	65.000000	30.000000
200.865909	201.008321	44.000000	33.000000
201.008321	201.146240	63.000000	39.000000
201.008321	201.146240	60.000000	39.000000
201.008321	201.146240	67.000000	39.000000
201.008321	201.146240	55.000000	39.000000
201.008321	201.559998	43.000000	36.000000
201.192213	201.330133	63.000000	22.000000
201.192213	201.330133	60.000000	22.000000
201.192213	201.330133	55.000000	22.000000
201.192213	201.330133	67.000000	27.000000
201.376106	201.514025	63.000000	22.000000
201.376106	201.514025	60.000000	22.000000
201.376106	201.514025	55.000000	22.000000
201.376106	201.514025	67.000000	27.000000
201.559998	201.697917	63.000000	22.000000
201.559998	201.697917	60.000000	22.000000
201.559998	201.697917	55.000000	25.000000
201.559998	201.697917	67.000000	30.000000
201.559998	202.111675	43.000000	36.000000
201.743891	201.881810	63.000000	22.000000
201.743891	201.881810	60.000000	22.000000
201.743891	201.881810	55.000000	25.000000
201.743891	201.881810	67.000000	30.000000
201.927783	202.065702	63.000000	22.000000
201.927783	202.065702	60.000000	22.000000
201.927783	202.065702	55.000000	25.000000
201.927783	202.065702	67.000000	30.000000
202.111675	202.249595	62.000000	32.000000
202.111675	202.249595	59.000000	32.000000
202.111675	202.249595	55.000000	32.000000
202.111675	202.249595	67.000000	38.000000
202.111675	202.663352	43.000000	36.000000
202.295568	202.433487	62.000000	32.000000
202.295568	202.433487	59.000000	32.000000
202.295568	202.433487	55.000000	24.000000
202.295568	202.433487	67.000000	28.000000
202.479460	202.617379	62.000000	32.000000
202.479460	202.617379	59.000000	32.000000
202.479460	202.617379	55.000000	25.000000
202.479460	202.617379	67.000000	30.000000
202.663352	202.801272	62.000000	33.000000
202.663352	202.801272	59.000000	33.000000
202.663352	202.801272	55.000000	33.000000
202.663352	202.801272	67.000000	39.000000
202.663352	203.215029	43.000000	36.000000
202.847245	202.985164	62.000000	25.000000
202.847245	202.985164	59.000000	25.000000
202.847245	202.985164	55.000000	25.000000
202.847245	202.985164	67.000000	30.000000
203.031137	203.169056	62.000000	25.000000
203.031137	203.169056	59.000000	25.000000
203.031137	203.169056	55.000000	25.000000
203.031137	203.169056	67.000000	30.000000
203.215029	203.357213	63.000000	39.000000
203.215029	203.357213	60.000000	39.000000
203.215029	203.357213	67.000000	39.000000
203.215029	203.357213	55.000000	39.000000
203.215029	204.339305	48.000000	48.000000
203.404608	203.546792	55.000000	22.000000
203.404608	203.546792	67.000000	27.000000
203.594187	203.736371	55.000000	22.000000
203.594187	203.736371	67.000000	27.000000
203.783765	203.922650	55.000000	28.000000
203.783765	203.922650	67.000000	34.000000
203.968945	204.107830	55.000000	29.000000
203.968945	204.107830	67.000000	35.000000
204.154125	204.293010	55.000000	30.000000
204.154125	204.293010	67.000000	36.000000
204.339305	204.478190	55.000000	40.000000
204.339305	204.478190	67.000000	48.000000
204.524485	204.663370	55.000000	32.000000
204.524485	204.663370	67.000000	36.000000
204.709665	204.848549	55.000000	34.000000
204.709665	204.848549	67.000000	41.000000
204.894844	205.032764	55.000000	47.000000
204.894844	205.032764	67.000000	56.000000
204.894844	205.308602	35.000000	42.000000
204.894844	205.308602	47.000000	50.000000
205.078737	205.216656	55.000000	36.000000
205.078737	205.216656	67.000000	43.000000
205.262629	205.400548	55.000000	37.000000
205.262629	205.400548	67.000000	44.000000
205.308602	205.446522	36.000000	37.000000
205.308602	205.446522	48.000000	44.000000
205.446522	205.587606	67.000000	59.000000
205.446522	205.587606	55.000000	59.000000
205.446522	205.842738	50.000000	62.000000
205.446522	205.869774	38.000000	51.000000
205.634638	205.775723	55.000000	33.000000
205.634638	205.775723	67.000000	41.000000
205.822755	205.963826	55.000000	33.000000
205.822755	205.963826	67.000000	41.000000
206.010859	206.147450	55.000000	37.000000
206.010859	206.147450	67.000000	46.000000
206.010859	206.420633	38.000000	42.000000
206.010859	206.394455	50.000000	50.000000
206.192981	206.329572	55.000000	37.000000
206.192981	206.329572	67.000000	46.000000
206.375103	206.511695	55.000000	37.000000
206.375103	206.511695	67.000000	46.000000
206.557225	206.693696	55.000000	49.000000
206.557225	206.693696	67.000000	58.000000
206.557225	206.966638	38.000000	42.000000
206.557225	206.940486	50.000000	50.000000
206.739186	206.875657	55.000000	36.000000
206.739186	206.875657	67.000000	42.000000
206.921147	207.057618	55.000000	37.000000
206.921147	207.057618	67.000000	46.000000
207.103109	207.241028	56.000000	55.000000
207.103109	207.241028	68.000000	65.000000
207.103109	207.516866	36.000000	50.000000
207.103109	207.516866	48.000000	59.000000
207.287001	207.424920	56.000000	42.000000
207.287001	207.424920	68.000000	52.000000
207.470893	207.622130	56.000000	44.000000
207.470893	207.622130	68.000000	55.000000
207.516866	207.674755	38.000000	57.000000
207.516866	207.674755	50.000000	67.000000
207.674755	207.812379	67.000000	70.000000
207.674755	207.812379	55.000000	70.000000
207.674755	208.500420	39.000000	63.000000
207.674755	208.500420	51.000000	76.000000
207.858245	207.995856	55.000000	40.000000
207.858245	207.995856	67.000000	50.000000
208.041721	208.179332	55.000000	40.000000
208.041721	208.179332	67.000000	50.000000
208.225198	208.362809	55.000000	46.000000
208.225198	208.362809	67.000000	55.000000
208.408675	208.546285	55.000000	44.000000
208.408675	208.546285	67.000000	55.000000
208.500420	208.775628	38.000000	54.000000
208.500420	208.775628	50.000000	64.000000
208.592151	208.729762	55.000000	44.000000
208.592151	208.729762	67.000000	54.000000
208.775628	208.913252	55.000000	57.000000
208.775628	208.913252	67.000000	69.000000
208.775628	209.326071	36.000000	46.000000
208.775628	209.326071	48.000000	55.000000
208.959118	209.096729	55.000000	42.000000
208.959118	209.096729	67.000000	49.000000
209.142595	209.280205	55.000000	42.000000
209.142595	209.280205	67.000000	52.000000
209.326071	209.461845	55.000000	57.000000
209.326071	209.461845	67.000000	67.000000
209.326071	209.733405	34.000000	57.000000
209.326071	209.733405	46.000000	67.000000
209.507107	209.642881	55.000000	42.000000
209.507107	209.642881	67.000000	51.000000
209.688143	209.828342	53.000000	41.000000
209.688143	209.828342	65.000000	50.000000
209.733405	209.875817	44.000000	55.000000
209.733405	209.875817	32.000000	46.000000
209.875817	210.013736	63.000000	59.000000
209.875817	210.013736	60.000000	59.000000
209.875817	210.013736	67.000000	59.000000
209.875817	210.013736	55.000000	59.000000
209.875817	210.427494	31.000000	46.000000
209.875817	210.427494	43.000000	55.000000
210.059709	210.197629	63.000000	33.000000
210.059709	210.197629	60.000000	33.000000
210.059709	210.197629	55.000000	33.000000
210.059709	210.197629	67.000000	41.000000
210.243602	210.381521	63.000000	33.000000
210.243602	210.381521	60.000000	33.000000
210.243602	210.381521	55.000000	33.000000
210.243602	210.381521	67.000000	41.000000
210.427494	210.562624	63.000000	33.000000
210.427494	210.562624	60.000000	33.000000
210.427494	210.562624	55.000000	37.000000
210.427494	210.562624	67.000000	46.000000
210.427494	210.968027	31.000000	46.000000
210.427494	210.968027	43.000000	55.000000
210.607672	210.742802	63.000000	33.000000
210.607672	210.742802	60.000000	33.000000
210.607672	210.742802	55.000000	37.000000
210.607672	210.742802	67.000000	46.000000
210.787849	210.922979	63.000000	33.000000
210.787849	210.922979	60.000000	33.000000
210.787849	210.922979	55.000000	37.000000
210.787849	210.922979	67.000000	46.000000
210.968027	211.103157	62.000000	49.000000
210.968027	211.103157	59.000000	49.000000
210.968027	211.103157	55.000000	49.000000
210.968027	211.103157	67.000000	58.000000
210.968027	211.508559	43.000000	55.000000
210.968027	211.508559	31.000000	46.000000
211.148204	211.283334	62.000000	49.000000
211.148204	211.283334	59.000000	49.000000
211.148204	211.283334	55.000000	36.000000
211.148204	211.283334	67.000000	42.000000
211.328382	211.463512	62.000000	49.000000
211.328382	211.463512	59.000000	49.000000
211.328382	211.463512	55.000000	37.000000
211.328382	211.463512	67.000000	46.000000
211.508559	211.645540	62.000000	50.000000
211.508559	211.645540	59.000000	50.000000
211.508559	211.645540	55.000000	50.000000
211.508559	211.645540	67.000000	59.000000
211.508559	212.078234	43.000000	55.000000
211.508559	212.078234	31.000000	46.000000
211.691204	211.828185	62.000000	37.000000
211.691204	211.828185	59.000000	37.000000
211.691204	211.828185	55.000000	37.000000
211.691204	211.828185	67.000000	46.000000
211.873850	212.025327	62.000000	37.000000
211.873850	212.025327	59.000000	37.000000
211.873850	212.025327	55.000000	37.000000
211.873850	212.025327	67.000000	46.000000
212.078234	212.260879	55.000000	40.000000
212.078234	213.174105	60.000000	40.000000
212.078234	213.174105	63.000000	40.000000
212.078234	213.174105	67.000000	48.000000
212.078234	212.260879	36.000000	40.000000
212.078234	212.260879	48.000000	40.000000
212.260879	212.443524	55.000000	31.000000
212.443524	212.626169	55.000000	31.000000
212.626169	212.808815	55.000000	31.000000
212.808815	212.991460	55.000000	29.000000
212.991460	213.174105	55.000000	29.000000
213.174105	213.311085	55.000000	29.000000
213.356750	213.493731	55.000000	28.000000
213.539395	213.676376	55.000000	28.000000
213.722040	214.135798	71.000000	44.000000
213.722040	213.859960	55.000000	31.000000
213.905933	214.043852	55.000000	30.000000
214.089825	214.227744	55.000000	30.000000
214.135798	214.273717	72.000000	38.000000
214.273717	214.669934	74.000000	51.000000
214.273717	214.414802	55.000000	31.000000
214.461834	214.602919	55.000000	27.000000
214.649951	214.791035	55.000000	27.000000
214.838068	215.247843	65.000000	35.000000
214.838068	215.221664	74.000000	42.000000
214.838068	214.974660	55.000000	31.000000
215.020190	215.156782	55.000000	28.000000
215.202312	215.338904	55.000000	28.000000
215.384434	215.793847	68.000000	35.000000
215.384434	215.767695	74.000000	42.000000
215.384434	215.520905	55.000000	31.000000
215.566395	215.702866	55.000000	31.000000
215.748357	215.884828	55.000000	31.000000
215.930318	216.344076	72.000000	46.000000
215.930318	216.068237	55.000000	31.000000
216.114210	216.252129	55.000000	31.000000
216.298103	216.436022	55.000000	32.000000
216.344076	216.481995	74.000000	47.000000
216.481995	217.309511	75.000000	53.000000
216.481995	216.619914	55.000000	40.000000
216.665887	216.803807	55.000000	31.000000
216.849780	216.987699	55.000000	26.000000
217.033672	217.585349	63.000000	39.000000
217.033672	217.171591	55.000000	33.000000
217.217564	217.355484	55.000000	29.000000
217.309511	217.585349	74.000000	44.000000
217.401457	217.539376	55.000000	26.000000
217.585349	218.137026	67.000000	33.000000
217.585349	218.137026	72.000000	39.000000
217.585349	217.723268	55.000000	33.000000
217.769242	217.907161	55.000000	30.000000
217.953134	218.091053	55.000000	29.000000
218.137026	218.544360	74.000000	49.000000
218.137026	218.272800	55.000000	33.000000
218.318062	218.453836	55.000000	30.000000
218.499098	218.639297	55.000000	30.000000
218.544360	218.686772	72.000000	42.000000
218.686772	219.238449	71.000000	46.000000
218.686772	218.824691	55.000000	31.000000
218.870665	219.008584	55.000000	28.000000
219.054557	219.192476	55.000000	28.000000
219.238449	219.790126	65.000000	37.000000
219.238449	219.652207	69.000000	44.000000
219.238449	219.376369	55.000000	31.000000
219.422342	219.560261	55.000000	28.000000
219.606234	219.744153	55.000000	31.000000
219.652207	219.790126	71.000000	36.000000
219.790126	220.358460	63.000000	37.000000
219.790126	220.358460	72.000000	48.000000
219.790126	219.931010	55.000000	36.000000
219.977975	220.118858	55.000000	29.000000
220.165824	220.310301	55.000000	29.000000
220.358460	220.925815	60.000000	37.000000
220.358460	220.777770	74.000000	43.000000
220.358460	220.498230	55.000000	36.000000
220.544820	220.684590	55.000000	31.000000
220.731180	220.876462	55.000000	31.000000
220.777770	220.925815	75.000000	44.000000
220.925815	221.073859	68.000000	47.000000
220.925815	222.645568	74.000000	51.000000
220.925815	221.073859	55.000000	37.000000
221.073859	222.645568	67.000000	43.000000
221.123212	221.271257	55.000000	29.000000
221.320609	221.468654	55.000000	29.000000
221.515405	221.654370	55.000000	44.000000
221.700880	221.840703	55.000000	37.000000
221.887427	222.028136	55.000000	39.000000
222.075155	222.216749	55.000000	53.000000
222.264144	222.406623	55.000000	39.000000
222.454246	222.597637	55.000000	40.000000
222.645568	223.059326	59.000000	52.000000
222.645568	223.059326	67.000000	52.000000
222.645568	223.059326	71.000000	62.000000
222.645568	222.783487	55.000000	52.000000
222.829460	222.967379	55.000000	45.000000
223.013352	223.158822	55.000000	52.000000
223.059326	223.208577	60.000000	50.000000
223.059326	223.208577	69.000000	50.000000
223.059326	223.208577	72.000000	60.000000
223.208577	223.749995	62.000000	61.000000
223.208577	223.749995	71.000000	61.000000
223.208577	223.749995	74.000000	73.000000
223.208577	223.343935	55.000000	59.000000
223.389050	223.524408	55.000000	47.000000
223.569522	223.704880	55.000000	47.000000
223.749995	224.298815	62.000000	55.000000
223.749995	224.298815	71.000000	55.000000
223.749995	224.298815	74.000000	66.000000
223.749995	223.887203	55.000000	52.000000
223.749995	223.887203	54.000000	52.000000
223.932935	224.070144	55.000000	43.000000
223.932935	224.070144	54.000000	43.000000
224.115875	224.253084	55.000000	43.000000
224.115875	224.253084	54.000000	43.000000
224.298815	224.844712	62.000000	55.000000
224.298815	224.844712	71.000000	55.000000
224.298815	224.844712	74.000000	66.000000
224.298815	224.435300	53.000000	54.000000
224.298815	224.435300	55.000000	54.000000
224.480790	224.617261	55.000000	45.000000
224.480790	224.617261	53.000000	45.000000
224.662751	224.799222	55.000000	45.000000
224.662751	224.799222	53.000000	45.000000
224.844712	225.258470	60.000000	63.000000
224.844712	225.258470	67.000000	64.000000
224.844712	225.258470	72.000000	66.000000
224.844712	224.982632	55.000000	53.000000
224.844712	224.982632	51.000000	53.000000
225.028605	225.166524	50.000000	43.000000
225.028605	225.166524	55.000000	43.000000
225.212497	225.357967	48.000000	44.000000
225.212497	225.357967	55.000000	44.000000
225.258470	225.407722	62.000000	55.000000
225.258470	225.407722	67.000000	55.000000
225.258470	225.407722	74.000000	67.000000
225.407722	226.495841	67.000000	64.000000
225.407722	226.358847	63.000000	64.000000
225.407722	226.358847	75.000000	75.000000
225.407722	225.545641	48.000000	57.000000
225.407722	225.545641	55.000000	57.000000
225.591614	225.727616	48.000000	45.000000
225.591614	225.727616	55.000000	45.000000
225.771671	225.903823	55.000000	45.000000
225.771671	225.903823	48.000000	45.000000
225.947879	226.084873	55.000000	54.000000
225.947879	226.084873	46.000000	54.000000
226.130537	226.267518	55.000000	45.000000
226.130537	226.267518	46.000000	45.000000
226.313183	226.450176	46.000000	45.000000
226.313183	226.450176	55.000000	45.000000
226.358847	226.495841	62.000000	69.000000
226.358847	226.495841	74.000000	69.000000
226.495841	227.074394	60.000000	60.000000
226.495841	227.074394	67.000000	64.000000
226.495841	227.074394	72.000000	76.000000
226.495841	226.632835	45.000000	55.000000
226.495841	226.632835	55.000000	55.000000
226.678500	226.820590	45.000000	43.000000
226.678500	226.820590	55.000000	43.000000
226.871351	227.023633	45.000000	43.000000
226.871351	227.023633	55.000000	43.000000
227.074394	227.627774	66.000000	58.000000
227.074394	227.627774	62.000000	58.000000
227.074394	227.485362	74.000000	69.000000
227.074394	227.211388	44.000000	52.000000
227.074394	227.211388	54.000000	52.000000
227.257052	227.394033	44.000000	43.000000
227.257052	227.394033	54.000000	43.000000
227.439698	227.580299	54.000000	42.000000
227.439698	227.580299	44.000000	42.000000
227.485362	227.627774	72.000000	60.000000
227.627774	228.183314	62.000000	55.000000
227.627774	228.183314	65.000000	55.000000
227.627774	228.183314	71.000000	66.000000
227.627774	227.766659	43.000000	54.000000
227.627774	227.766659	53.000000	54.000000
227.812954	227.951839	43.000000	45.000000
227.812954	227.951839	53.000000	45.000000
227.998134	228.137019	43.000000	45.000000
227.998134	228.137019	53.000000	45.000000
228.183314	228.733744	62.000000	52.000000
228.183314	228.596133	67.000000	52.000000
228.183314	228.733744	71.000000	62.000000
228.183314	228.320925	43.000000	54.000000
228.183314	228.320925	41.000000	54.000000
228.366790	228.504401	41.000000	43.000000
228.366790	228.504401	43.000000	43.000000
228.550267	228.687878	43.000000	43.000000
228.550267	228.687878	41.000000	43.000000
228.596133	228.733744	68.000000	51.000000
228.733744	229.317031	60.000000	57.000000
228.733744	229.317031	67.000000	59.000000
228.733744	229.317031	72.000000	73.000000
228.733744	228.874640	39.000000	55.000000
228.733744	228.874640	43.000000	55.000000
228.921606	229.065774	43.000000	43.000000
228.921606	229.065774	39.000000	43.000000
229.116026	229.266779	39.000000	43.000000
229.116026	229.266779	43.000000	43.000000
229.317031	229.889602	65.000000	64.000000
229.317031	229.889602	71.000000	64.000000
229.317031	229.741557	75.000000	75.000000
229.317031	229.458544	31.000000	57.000000
229.317031	229.458544	43.000000	57.000000
229.505711	229.647224	43.000000	43.000000
229.505711	229.647224	31.000000	43.000000
229.694391	229.840249	43.000000	43.000000
229.694391	229.840249	31.000000	43.000000
229.741557	229.889602	74.000000	62.000000
229.889602	231.666178	63.000000	61.000000
229.889602	231.666178	72.000000	73.000000
229.889602	230.086999	36.000000	40.000000
229.889602	230.086999	48.000000	40.000000
230.086999	230.235044	55.000000	31.000000
230.284397	230.432441	55.000000	31.000000
230.481794	230.629839	55.000000	31.000000
230.679191	230.827236	55.000000	29.000000
230.876589	231.024633	55.000000	29.000000
231.073986	231.222031	55.000000	29.000000
231.271383	231.419428	55.000000	28.000000
231.468781	231.616825	55.000000	28.000000
231.666178	232.079936	74.000000	44.000000
231.666178	231.804097	55.000000	31.000000
231.850070	231.987989	55.000000	30.000000
232.033963	232.171882	55.000000	30.000000
232.079936	232.217855	75.000000	38.000000
232.217855	232.776935	77.000000	51.000000
232.217855	232.357625	56.000000	31.000000
232.404215	232.543985	56.000000	27.000000
232.590575	232.730345	56.000000	27.000000
232.776935	233.328290	65.000000	35.000000
232.776935	233.328290	77.000000	42.000000
232.776935	232.914774	57.000000	31.000000
232.960720	233.098559	57.000000	28.000000
233.144505	233.282344	57.000000	28.000000
233.328290	233.874174	68.000000	35.000000
233.328290	233.874174	77.000000	42.000000
233.328290	233.464761	58.000000	31.000000
233.510251	233.646722	58.000000	31.000000
233.692213	233.828683	58.000000	31.000000
233.874174	234.287932	75.000000	46.000000
233.874174	234.012093	58.000000	31.000000
234.058066	234.195985	58.000000	31.000000
234.241958	234.379878	58.000000	32.000000
234.287932	234.425851	74.000000	47.000000
234.425851	235.253366	79.000000	53.000000
234.425851	234.563770	58.000000	40.000000
234.609743	234.747662	58.000000	31.000000
234.793636	234.931555	58.000000	26.000000
234.977528	235.391286	67.000000	50.000000
234.977528	235.115447	59.000000	33.000000
235.161420	235.299340	59.000000	29.000000
235.253366	235.529205	77.000000	44.000000
235.345313	235.483232	59.000000	26.000000
235.391286	235.529205	68.000000	53.000000
235.529205	236.088285	75.000000	39.000000
235.529205	235.668975	60.000000	33.000000
235.715565	235.855335	55.000000	30.000000
235.901925	236.041695	55.000000	29.000000
236.088285	236.495619	74.000000	49.000000
236.088285	236.224059	55.000000	33.000000
236.269321	236.405094	55.000000	30.000000
236.450357	236.590556	55.000000	30.000000
236.495619	236.638031	72.000000	42.000000
236.638031	237.189708	71.000000	46.000000
236.638031	236.775950	55.000000	31.000000
236.821923	236.959843	55.000000	28.000000
237.005816	237.143735	55.000000	28.000000
237.189708	237.465547	68.000000	41.000000
237.189708	237.741385	71.000000	44.000000
237.189708	237.327627	55.000000	31.000000
237.373600	237.511520	55.000000	28.000000
237.465547	237.741385	67.000000	40.000000
237.557493	237.695412	55.000000	31.000000
237.741385	238.028972	65.000000	41.000000
237.741385	238.316558	72.000000	48.000000
237.741385	237.885179	55.000000	36.000000
237.933110	238.076903	55.000000	29.000000
238.028972	238.316558	63.000000	41.000000
238.124834	238.268627	55.000000	29.000000
238.316558	238.596098	62.000000	41.000000
238.316558	238.735868	77.000000	43.000000
238.316558	238.456328	55.000000	36.000000
238.502918	238.642688	55.000000	31.000000
238.596098	238.883913	60.000000	41.000000
238.689278	238.834560	55.000000	31.000000
238.735868	238.883913	75.000000	44.000000
238.883913	239.031958	68.000000	41.000000
238.883913	240.660489	74.000000	51.000000
238.883913	239.031958	55.000000	37.000000
239.031958	240.660489	67.000000	47.000000
239.081310	239.229355	55.000000	29.000000
239.278708	239.426752	55.000000	29.000000
239.476105	239.624150	55.000000	42.000000
239.673502	239.821547	55.000000	35.000000
239.870900	240.018944	55.000000	37.000000
240.068297	240.265694	55.000000	49.000000
240.265694	240.463091	56.000000	36.000000
240.463091	240.660489	57.000000	36.000000
240.660489	241.074247	74.000000	62.000000
240.660489	240.798408	58.000000	52.000000
240.844381	240.982300	58.000000	45.000000
241.028274	241.166193	58.000000	52.000000
241.074247	241.212166	75.000000	60.000000
241.212166	241.763843	65.000000	61.000000
241.212166	241.763843	74.000000	61.000000
241.212166	241.763843	77.000000	73.000000
241.212166	241.350085	58.000000	59.000000
241.396058	241.533978	58.000000	47.000000
241.579951	241.717870	58.000000	47.000000
241.763843	242.315520	65.000000	50.000000
241.763843	242.315520	74.000000	50.000000
241.763843	242.315520	77.000000	60.000000
241.763843	241.901762	57.000000	44.000000
241.763843	241.901762	58.000000	52.000000
241.947735	242.085655	58.000000	43.000000
241.947735	242.085655	57.000000	36.000000
242.131628	242.269547	58.000000	43.000000
242.131628	242.269547	57.000000	36.000000
242.315520	242.861404	65.000000	50.000000
242.315520	242.861404	74.000000	50.000000
242.315520	242.861404	77.000000	60.000000
242.315520	242.451991	58.000000	54.000000
242.315520	242.451991	56.000000	45.000000
242.497481	242.633952	56.000000	38.000000
242.497481	242.633952	58.000000	45.000000
242.679442	242.815913	56.000000	38.000000
242.679442	242.815913	58.000000	45.000000
242.861404	243.275161	67.000000	63.000000
242.861404	243.275161	75.000000	63.000000
242.861404	243.275161	79.000000	63.000000
242.861404	242.999323	58.000000	53.000000
242.861404	242.999323	55.000000	45.000000
243.045296	243.183215	58.000000	43.000000
243.045296	243.183215	55.000000	36.000000
243.229188	243.367108	53.000000	37.000000
243.229188	243.367108	58.000000	44.000000
243.229188	243.367108	56.000000	37.000000
243.275161	243.413081	68.000000	55.000000
243.275161	243.413081	77.000000	55.000000
243.275161	243.413081	80.000000	67.000000
243.413081	243.947538	79.000000	64.000000
243.413081	243.947538	70.000000	64.000000
243.413081	243.947538	82.000000	75.000000
243.413081	243.551000	51.000000	48.000000
243.413081	243.551000	58.000000	57.000000
243.413081	243.551000	55.000000	57.000000
243.596973	243.732022	51.000000	38.000000
243.596973	243.732022	55.000000	45.000000
243.596973	243.732022	58.000000	45.000000
243.775126	243.904435	51.000000	38.000000
243.775126	243.904435	58.000000	45.000000
243.775126	243.904435	55.000000	45.000000
243.947538	244.495474	68.000000	69.000000
243.947538	244.495474	80.000000	69.000000
243.947538	244.084519	47.000000	45.000000
243.947538	244.084519	53.000000	45.000000
243.947538	244.084519	56.000000	54.000000
244.130183	244.267164	47.000000	38.000000
244.130183	244.267164	53.000000	45.000000
244.130183	244.267164	56.000000	45.000000
244.312828	244.449809	47.000000	38.000000
244.312828	244.449809	53.000000	45.000000
244.312828	244.449809	56.000000	45.000000
244.495474	245.043422	75.000000	64.000000
244.495474	245.043422	79.000000	76.000000
244.495474	244.632467	48.000000	46.000000
244.495474	244.632467	55.000000	55.000000
244.495474	244.632467	51.000000	46.000000
244.678132	244.815113	48.000000	36.000000
244.678132	244.815113	51.000000	36.000000
244.678132	244.815113	55.000000	43.000000
244.860777	244.997758	48.000000	36.000000
244.860777	244.997758	51.000000	36.000000
244.860777	244.997758	55.000000	43.000000
245.043422	245.593155	65.000000	58.000000
245.043422	245.450743	77.000000	69.000000
245.043422	245.179182	44.000000	44.000000
245.043422	245.179182	53.000000	52.000000
245.224445	245.360218	53.000000	43.000000
245.224445	245.360218	46.000000	36.000000
245.405481	245.545680	53.000000	42.000000
245.405481	245.545680	44.000000	35.000000
245.450743	245.593155	74.000000	60.000000
245.593155	246.144832	62.000000	55.000000
245.593155	246.144832	65.000000	55.000000
245.593155	246.144832	71.000000	66.000000
245.593155	245.731074	43.000000	47.000000
245.593155	245.731074	53.000000	56.000000
245.777047	245.914966	44.000000	40.000000
245.777047	245.914966	53.000000	47.000000
245.960940	246.098859	43.000000	40.000000
245.960940	246.098859	53.000000	48.000000
246.144832	246.696509	62.000000	52.000000
246.144832	246.558590	67.000000	52.000000
246.144832	246.696509	71.000000	62.000000
246.144832	246.282751	43.000000	58.000000
246.144832	246.282751	41.000000	48.000000
246.328724	246.466644	43.000000	47.000000
246.512617	246.650536	43.000000	47.000000
246.512617	246.650536	41.000000	39.000000
246.558590	246.696509	68.000000	51.000000
246.696509	247.287682	60.000000	57.000000
246.696509	247.287682	67.000000	59.000000
246.696509	247.287682	72.000000	73.000000
246.696509	246.837392	39.000000	51.000000
246.696509	246.837392	43.000000	61.000000
246.884358	247.025241	41.000000	41.000000
246.884358	247.025241	43.000000	49.000000
247.072206	247.233810	43.000000	49.000000
247.072206	247.233810	39.000000	41.000000
247.287682	247.860240	65.000000	64.000000
247.287682	247.860240	71.000000	64.000000
247.287682	247.712195	75.000000	75.000000
247.287682	247.429182	31.000000	55.000000
247.287682	247.429182	43.000000	66.000000
247.476348	247.617862	43.000000	50.000000
247.476348	247.617862	32.000000	42.000000
247.665029	247.810887	43.000000	51.000000
247.665029	247.810887	31.000000	42.000000
247.712195	247.860240	74.000000	62.000000
247.860240	249.613883	63.000000	64.000000
247.860240	249.613883	72.000000	76.000000
247.860240	248.057637	36.000000	53.000000
247.860240	248.057637	43.000000	53.000000
247.860240	248.057637	48.000000	63.000000
248.057637	248.255034	50.000000	60.000000
248.255034	248.452432	48.000000	60.000000
248.452432	248.646946	46.000000	68.000000
248.646946	248.841460	48.000000	62.000000
248.841460	249.035974	46.000000	62.000000
249.035974	249.228610	44.000000	73.000000
249.035974	249.228610	48.000000	62.000000
249.228610	249.421246	46.000000	63.000000
249.228610	249.421246	48.000000	53.000000
249.421246	249.613883	44.000000	64.000000
249.421246	249.613883	48.000000	54.000000
249.613883	249.808397	60.000000	72.000000
249.613883	249.808397	72.000000	86.000000
249.613883	249.808397	43.000000	78.000000
249.613883	249.808397	48.000000	65.000000
249.808397	250.002911	60.000000	72.000000
249.808397	250.002911	72.000000	86.000000
249.808397	250.002911	44.000000	65.000000
249.808397	250.002911	48.000000	55.000000
250.002911	250.234600	60.000000	72.000000
250.002911	250.234600	72.000000	86.000000
250.002911	250.234600	43.000000	65.000000
250.002911	250.234600	48.000000	55.000000
250.234600	251.993996	84.000000	94.000000
250.234600	251.993996	80.000000	79.000000
250.234600	251.993996	74.000000	79.000000
250.234600	251.993996	72.000000	79.000000
250.234600	250.431997	41.000000	79.000000
250.234600	250.431997	48.000000	66.000000
250.431997	250.629394	43.000000	65.000000
250.431997	250.629394	48.000000	55.000000
250.629394	250.826792	41.000000	65.000000
250.629394	250.826792	48.000000	55.000000
250.826792	251.023223	44.000000	78.000000
250.826792	251.023223	48.000000	65.000000
251.023223	251.219655	46.000000	65.000000
251.023223	251.219655	48.000000	55.000000
251.219655	251.416087	44.000000	65.000000
251.219655	251.416087	48.000000	55.000000
251.416087	251.608723	43.000000	73.000000
251.416087	251.608723	48.000000	62.000000
251.608723	251.801360	44.000000	65.000000
251.608723	251.801360	48.000000	55.000000
251.801360	251.993996	43.000000	65.000000
251.801360	251.993996	48.000000	55.000000
251.993996	252.187571	60.000000	71.000000
251.993996	252.187571	72.000000	83.000000
251.993996	252.187571	41.000000	74.000000
251.993996	252.187571	48.000000	63.000000
252.187571	252.381146	60.000000	71.000000
252.187571	252.381146	72.000000	83.000000
252.187571	252.381146	43.000000	65.000000
252.187571	252.381146	48.000000	55.000000
252.381146	252.597788	60.000000	71.000000
252.381146	252.597788	72.000000	83.000000
252.381146	252.597788	41.000000	65.000000
252.381146	252.597788	48.000000	55.000000
252.597788	254.320492	84.000000	95.000000
252.597788	254.320492	79.000000	80.000000
252.597788	254.320492	75.000000	80.000000
252.597788	254.320492	72.000000	80.000000
252.597788	252.790425	39.000000	79.000000
252.597788	252.790425	48.000000	66.000000
252.790425	252.983061	41.000000	65.000000
252.790425	252.983061	48.000000	55.000000
252.983061	253.175698	39.000000	65.000000
252.983061	253.175698	48.000000	55.000000
253.175698	253.366497	43.000000	77.000000
253.175698	253.366497	48.000000	64.000000
253.366497	253.557296	44.000000	65.000000
253.366497	253.557296	48.000000	55.000000
253.557296	253.748095	43.000000	65.000000
253.557296	253.748095	48.000000	55.000000
253.748095	253.938894	41.000000	75.000000
253.748095	253.938894	48.000000	64.000000
253.938894	254.129693	43.000000	65.000000
253.938894	254.129693	48.000000	55.000000
254.129693	254.320492	41.000000	65.000000
254.129693	254.320492	48.000000	55.000000
254.320492	254.515006	60.000000	71.000000
254.320492	254.515006	72.000000	83.000000
254.320492	254.515006	39.000000	74.000000
254.320492	254.515006	48.000000	63.000000
254.515006	254.709520	60.000000	71.000000
254.515006	254.709520	72.000000	83.000000
254.515006	254.709520	41.000000	66.000000
254.515006	254.709520	48.000000	56.000000
254.709520	254.945313	60.000000	71.000000
254.709520	254.945313	72.000000	83.000000
254.709520	254.945313	39.000000	66.000000
254.709520	254.945313	48.000000	56.000000
254.945313	255.523222	73.000000	90.000000
254.945313	255.523222	65.000000	77.000000
254.945313	255.523222	61.000000	77.000000
254.945313	255.137949	37.000000	75.000000
254.945313	255.137949	44.000000	64.000000
255.137949	255.330586	39.000000	64.000000
255.137949	255.330586	44.000000	54.000000
255.330586	255.523222	36.000000	64.000000
255.330586	255.523222	44.000000	54.000000
255.523222	255.960878	65.000000	74.000000
255.523222	255.960878	77.000000	88.000000
255.523222	255.717736	37.000000	72.000000
255.523222	255.717736	44.000000	60.000000
255.717736	255.912250	39.000000	63.000000
255.717736	255.912250	44.000000	52.000000
255.912250	256.106764	41.000000	63.000000
255.912250	256.106764	44.000000	52.000000
255.960878	256.106764	68.000000	66.000000
255.960878	256.106764	80.000000	79.000000
256.106764	256.701893	67.000000	75.000000
256.106764	256.701893	72.000000	75.000000
256.106764	256.701893	75.000000	75.000000
256.106764	256.701893	79.000000	89.000000
256.106764	256.305140	31.000000	62.000000
256.106764	256.305140	43.000000	73.000000
256.305140	256.503517	43.000000	65.000000
256.503517	256.701893	43.000000	60.000000
256.701893	257.312149	67.000000	71.000000
256.701893	257.312149	71.000000	71.000000
256.701893	257.312149	74.000000	71.000000
256.701893	257.312149	79.000000	83.000000
256.701893	256.905312	31.000000	59.000000
256.701893	256.905312	43.000000	71.000000
256.905312	257.108731	43.000000	63.000000
257.108731	257.312149	43.000000	63.000000
257.312149	259.065792	67.000000	64.000000
257.312149	259.065792	60.000000	64.000000
257.312149	259.065792	63.000000	64.000000
257.312149	259.065792	72.000000	76.000000
257.312149	257.509547	36.000000	53.000000
257.312149	257.509547	43.000000	53.000000
257.312149	257.509547	48.000000	63.000000
257.509547	257.706944	51.000000	60.000000
257.706944	257.904341	50.000000	60.000000
257.904341	258.098855	48.000000	68.000000
258.098855	258.293369	50.000000	62.000000
258.293369	258.487883	48.000000	62.000000
258.487883	258.680519	47.000000	73.000000
258.680519	258.873156	48.000000	63.000000
258.873156	259.065792	47.000000	64.000000
259.065792	259.260306	60.000000	72.000000
259.065792	259.260306	72.000000	86.000000
259.065792	259.260306	46.000000	78.000000
259.260306	259.454820	60.000000	72.000000
259.260306	259.454820	72.000000	86.000000
259.260306	259.454820	48.000000	65.000000
259.454820	259.686509	60.000000	72.000000
259.454820	259.686509	72.000000	86.000000
259.454820	259.686509	46.000000	65.000000
259.686509	261.445906	84.000000	94.000000
259.686509	261.445906	74.000000	79.000000
259.686509	261.445906	72.000000	79.000000
259.686509	259.883907	45.000000	79.000000
259.686509	259.883907	48.000000	66.000000
259.883907	260.081304	46.000000	65.000000
259.883907	260.081304	48.000000	55.000000
260.081304	260.278701	45.000000	65.000000
260.081304	260.278701	48.000000	55.000000
260.278701	260.475133	44.000000	78.000000
260.278701	260.475133	48.000000	65.000000
260.475133	260.671565	46.000000	65.000000
260.475133	260.671565	48.000000	55.000000
260.671565	260.867996	44.000000	65.000000
260.671565	260.867996	48.000000	55.000000
260.867996	261.060633	43.000000	73.000000
260.867996	261.060633	48.000000	62.000000
261.060633	261.253269	44.000000	65.000000
261.060633	261.253269	48.000000	55.000000
261.253269	261.445906	43.000000	65.000000
261.253269	261.445906	48.000000	55.000000
261.445906	261.639481	60.000000	71.000000
261.445906	261.639481	72.000000	83.000000
261.445906	261.639481	41.000000	74.000000
261.445906	261.639481	48.000000	63.000000
261.639481	261.833056	60.000000	71.000000
261.639481	261.833056	72.000000	83.000000
261.639481	261.833056	43.000000	65.000000
261.639481	261.833056	48.000000	55.000000
261.833056	262.049698	60.000000	71.000000
261.833056	262.049698	72.000000	83.000000
261.833056	262.049698	41.000000	65.000000
261.833056	262.049698	48.000000	55.000000
262.049698	263.772402	84.000000	95.000000
262.049698	263.772402	79.000000	80.000000
262.049698	263.772402	72.000000	80.000000
262.049698	262.242334	40.000000	79.000000
262.049698	262.242334	48.000000	66.000000
262.242334	262.434971	41.000000	65.000000
262.242334	262.434971	48.000000	55.000000
262.434971	262.627607	40.000000	65.000000
262.434971	262.627607	48.000000	55.000000
262.627607	262.818406	39.000000	77.000000
262.627607	262.818406	48.000000	64.000000
262.818406	263.009205	41.000000	65.000000
262.818406	263.009205	48.000000	55.000000
263.009205	263.200004	39.000000	65.000000
263.009205	263.200004	48.000000	55.000000
263.200004	263.390803	38.000000	75.000000
263.200004	263.390803	48.000000	64.000000
263.390803	263.581602	39.000000	65.000000
263.390803	263.581602	48.000000	55.000000
263.581602	263.772402	38.000000	65.000000
263.581602	263.772402	48.000000	55.000000
263.772402	263.966915	60.000000	71.000000
263.772402	263.966915	72.000000	83.000000
263.772402	263.966915	36.000000	74.000000
263.772402	263.966915	48.000000	63.000000
263.966915	264.161429	60.000000	71.000000
263.966915	264.161429	72.000000	83.000000
263.966915	264.161429	38.000000	66.000000
263.966915	264.161429	48.000000	56.000000
264.161429	264.397223	60.000000	71.000000
264.161429	264.397223	72.000000	83.000000
264.161429	264.397223	39.000000	66.000000
264.161429	264.397223	48.000000	56.000000
264.397223	264.975145	73.000000	90.000000
264.397223	264.975145	65.000000	77.000000
264.397223	264.975145	61.000000	77.000000
264.397223	264.589859	41.000000	75.000000
264.397223	264.589859	44.000000	64.000000
264.589859	264.782495	39.000000	64.000000
264.589859	264.782495	44.000000	54.000000
264.782495	264.963102	37.000000	64.000000
264.782495	264.963102	44.000000	54.000000
264.975145	265.412801	65.000000	74.000000
264.975145	265.412801	77.000000	88.000000
264.975145	265.169659	37.000000	72.000000
264.975145	265.169659	44.000000	60.000000
265.169659	265.364173	39.000000	63.000000
265.169659	265.364173	44.000000	52.000000
265.364173	265.558687	41.000000	63.000000
265.364173	265.558687	44.000000	52.000000
265.412801	265.558687	68.000000	66.000000
265.412801	265.558687	80.000000	79.000000
265.558687	266.153816	67.000000	75.000000
265.558687	266.153816	72.000000	75.000000
265.558687	266.153816	75.000000	75.000000
265.558687	266.153816	79.000000	89.000000
265.558687	265.757063	31.000000	62.000000
265.558687	265.757063	43.000000	73.000000
265.757063	265.955439	43.000000	65.000000
265.955439	266.153816	43.000000	60.000000
266.153816	266.764072	67.000000	71.000000
266.153816	266.764072	71.000000	71.000000
266.153816	266.764072	74.000000	71.000000
266.153816	266.764072	79.000000	83.000000
266.153816	266.357235	31.000000	59.000000
266.153816	266.357235	43.000000	71.000000
266.357235	266.560654	43.000000	63.000000
266.560654	266.764072	43.000000	63.000000
266.764072	268.517715	67.000000	64.000000
266.764072	268.517715	60.000000	64.000000
266.764072	268.517715	63.000000	64.000000
266.764072	268.517715	72.000000	76.000000
266.764072	266.912117	36.000000	74.000000
266.764072	266.912117	48.000000	62.000000
266.961470	267.109514	36.000000	67.000000
266.961470	267.109514	48.000000	56.000000
267.158867	267.306912	36.000000	67.000000
267.158867	267.306912	48.000000	56.000000
267.356264	267.502150	38.000000	74.000000
267.356264	267.502150	48.000000	62.000000
267.550778	267.696664	38.000000	69.000000
267.550778	267.696664	48.000000	58.000000
267.745292	267.891178	38.000000	65.000000
267.745292	267.891178	48.000000	55.000000
267.939806	268.084283	39.000000	74.000000
267.939806	268.084283	48.000000	62.000000
268.132442	268.276920	39.000000	67.000000
268.132442	268.276920	48.000000	56.000000
268.325079	268.469556	39.000000	67.000000
268.325079	268.469556	48.000000	56.000000
268.517715	268.663601	60.000000	68.000000
268.517715	268.663601	72.000000	57.000000
268.517715	268.663601	40.000000	73.000000
268.517715	268.663601	48.000000	62.000000
268.712229	268.858115	60.000000	63.000000
268.712229	268.858115	72.000000	53.000000
268.712229	268.858115	40.000000	66.000000
268.712229	268.858115	48.000000	56.000000
268.906743	269.052628	60.000000	63.000000
268.906743	269.052628	72.000000	53.000000
268.906743	269.052628	40.000000	66.000000
268.906743	269.052628	48.000000	56.000000
269.101257	269.245493	61.000000	62.000000
269.101257	269.245493	72.000000	52.000000
269.101257	269.245493	41.000000	72.000000
269.101257	269.245493	48.000000	61.000000
269.293571	269.437807	72.000000	46.000000
269.293571	269.437807	61.000000	55.000000
269.293571	269.437807	41.000000	68.000000
269.293571	269.437807	48.000000	57.000000
269.485886	269.630122	61.000000	55.000000
269.485886	269.630122	72.000000	46.000000
269.485886	269.630122	41.000000	68.000000
269.485886	269.630122	48.000000	57.000000
269.678200	269.824086	62.000000	58.000000
269.678200	269.824086	72.000000	49.000000
269.678200	269.824086	42.000000	69.000000
269.678200	269.824086	46.000000	58.000000
269.872714	270.018600	72.000000	42.000000
269.872714	270.018600	62.000000	50.000000
269.872714	270.018600	42.000000	63.000000
269.872714	270.018600	46.000000	53.000000
270.067228	270.213114	62.000000	50.000000
270.067228	270.213114	72.000000	42.000000
270.067228	270.213114	42.000000	63.000000
270.067228	270.213114	46.000000	53.000000
270.261742	270.406220	72.000000	46.000000
270.261742	270.406220	63.000000	55.000000
270.261742	270.406220	43.000000	66.000000
270.261742	270.406220	48.000000	56.000000
270.454379	270.598856	72.000000	42.000000
270.454379	270.598856	63.000000	50.000000
270.454379	270.598856	43.000000	60.000000
270.454379	270.598856	48.000000	51.000000
270.647015	270.791492	63.000000	54.000000
270.647015	270.791492	72.000000	45.000000
270.647015	270.791492	43.000000	66.000000
270.647015	270.791492	48.000000	56.000000
270.839651	270.981835	64.000000	54.000000
270.839651	270.981835	72.000000	49.000000
270.839651	270.981835	44.000000	69.000000
270.839651	270.981835	48.000000	61.000000
271.029230	271.171414	72.000000	37.000000
271.029230	271.171414	64.000000	44.000000
271.029230	271.171414	44.000000	57.000000
271.029230	271.171414	48.000000	48.000000
271.218809	271.360993	72.000000	37.000000
271.218809	271.360993	64.000000	44.000000
271.218809	271.360993	44.000000	57.000000
271.218809	271.360993	48.000000	48.000000
271.408387	271.549901	64.000000	47.000000
271.408387	271.549901	72.000000	39.000000
271.408387	271.549901	44.000000	55.000000
271.408387	271.549901	48.000000	46.000000
271.597067	271.738581	64.000000	37.000000
271.597067	271.738581	72.000000	31.000000
271.597067	271.738581	44.000000	54.000000
271.597067	271.738581	48.000000	42.000000
271.785748	271.927261	64.000000	37.000000
271.785748	271.927261	72.000000	31.000000
271.785748	271.927261	44.000000	53.000000
271.785748	271.927261	48.000000	41.000000
271.974428	272.115941	64.000000	46.000000
271.974428	272.115941	72.000000	38.000000
271.974428	272.115941	44.000000	53.000000
271.974428	272.115941	48.000000	45.000000
272.163108	272.304621	64.000000	37.000000
272.163108	272.304621	72.000000	30.000000
272.163108	272.304621	44.000000	47.000000
272.163108	272.304621	48.000000	40.000000
272.351788	272.493301	64.000000	36.000000
272.351788	272.493301	72.000000	30.000000
272.351788	272.493301	44.000000	46.000000
272.351788	272.493301	48.000000	39.000000
272.540468	272.683323	65.000000	45.000000
272.540468	272.683323	72.000000	38.000000
272.540468	272.683323	44.000000	51.000000
272.540468	272.683323	48.000000	43.000000
272.730945	272.873800	65.000000	36.000000
272.730945	272.873800	72.000000	29.000000
272.730945	272.873800	44.000000	46.000000
272.730945	272.873800	48.000000	39.000000
272.921422	273.064277	65.000000	35.000000
272.921422	273.064277	72.000000	29.000000
272.921422	273.064277	44.000000	46.000000
272.921422	273.064277	48.000000	39.000000
273.111900	273.253413	63.000000	31.000000
273.111900	273.253413	66.000000	31.000000
273.111900	273.253413	72.000000	37.000000
273.111900	273.253413	45.000000	31.000000
273.111900	273.253413	48.000000	37.000000
273.300580	273.442093	63.000000	26.000000
273.300580	273.442093	66.000000	26.000000
273.300580	273.442093	72.000000	31.000000
273.300580	273.442093	45.000000	26.000000
273.300580	273.442093	48.000000	31.000000
273.489260	273.630773	63.000000	26.000000
273.489260	273.630773	66.000000	26.000000
273.489260	273.630773	72.000000	31.000000
273.489260	273.630773	45.000000	26.000000
273.489260	273.630773	48.000000	31.000000
273.677940	273.818783	63.000000	31.000000
273.677940	273.818783	66.000000	31.000000
273.677940	273.818783	72.000000	37.000000
273.677940	273.818783	45.000000	34.000000
273.677940	273.818783	48.000000	40.000000
273.865735	274.006578	62.000000	27.000000
273.865735	274.006578	66.000000	27.000000
273.865735	274.006578	72.000000	32.000000
273.865735	274.006578	45.000000	27.000000
273.865735	274.006578	50.000000	32.000000
274.053530	274.194373	62.000000	27.000000
274.053530	274.194373	66.000000	27.000000
274.053530	274.194373	72.000000	32.000000
274.053530	274.194373	45.000000	28.000000
274.053530	274.194373	50.000000	33.000000
274.241325	274.381511	62.000000	31.000000
274.241325	274.381511	66.000000	31.000000
274.241325	274.381511	72.000000	37.000000
274.241325	274.381511	45.000000	31.000000
274.241325	274.381511	50.000000	37.000000
274.428235	274.568421	62.000000	26.000000
274.428235	274.568421	66.000000	26.000000
274.428235	274.568421	72.000000	31.000000
274.428235	274.568421	45.000000	28.000000
274.428235	274.568421	50.000000	33.000000
274.615145	274.755330	62.000000	26.000000
274.615145	274.755330	66.000000	26.000000
274.615145	274.755330	72.000000	31.000000
274.615145	274.755330	45.000000	28.000000
274.615145	274.755330	50.000000	33.000000
274.802055	274.943568	62.000000	31.000000
274.802055	274.943568	67.000000	31.000000
274.802055	274.943568	72.000000	37.000000
274.802055	274.943568	46.000000	32.000000
274.802055	274.943568	50.000000	38.000000
274.990735	275.132248	62.000000	27.000000
274.990735	275.132248	67.000000	27.000000
274.990735	275.132248	72.000000	32.000000
274.990735	275.132248	46.000000	28.000000
274.990735	275.132248	50.000000	34.000000
275.179415	275.320928	62.000000	27.000000
275.179415	275.320928	67.000000	27.000000
275.179415	275.320928	72.000000	32.000000
275.179415	275.320928	46.000000	28.000000
275.179415	275.320928	50.000000	34.000000
275.368095	275.511633	62.000000	31.000000
275.368095	275.511633	67.000000	31.000000
275.368095	275.511633	70.000000	37.000000
275.368095	275.511633	46.000000	31.000000
275.368095	275.511633	50.000000	37.000000
275.559484	275.703023	62.000000	27.000000
275.559484	275.703023	67.000000	27.000000
275.559484	275.703023	70.000000	32.000000
275.559484	275.703023	46.000000	28.000000
275.559484	275.703023	50.000000	33.000000
275.750873	275.894412	62.000000	27.000000
275.750873	275.894412	67.000000	27.000000
275.750873	275.894412	70.000000	32.000000
275.750873	275.894412	46.000000	28.000000
275.750873	275.894412	50.000000	33.000000
275.942262	276.082448	60.000000	31.000000
275.942262	276.082448	63.000000	31.000000
275.942262	276.082448	70.000000	37.000000
275.942262	276.082448	48.000000	31.000000
275.942262	276.082448	51.000000	37.000000
276.129172	276.269358	60.000000	26.000000
276.129172	276.269358	63.000000	26.000000
276.129172	276.269358	70.000000	31.000000
276.129172	276.269358	48.000000	27.000000
276.129172	276.269358	51.000000	32.000000
276.316082	276.456268	60.000000	26.000000
276.316082	276.456268	63.000000	26.000000
276.316082	276.456268	70.000000	31.000000
276.316082	276.456268	48.000000	27.000000
276.316082	276.456268	51.000000	32.000000
276.502992	276.645176	60.000000	31.000000
276.502992	276.645176	63.000000	31.000000
276.502992	276.645176	69.000000	37.000000
276.502992	276.645176	48.000000	31.000000
276.502992	276.645176	51.000000	37.000000
276.692571	276.834755	60.000000	27.000000
276.692571	276.834755	63.000000	27.000000
276.692571	276.834755	69.000000	32.000000
276.692571	276.834755	48.000000	26.000000
276.692571	276.834755	51.000000	31.000000
276.882149	277.024333	60.000000	27.000000
276.882149	277.024333	63.000000	27.000000
276.882149	277.024333	69.000000	32.000000
276.882149	277.024333	48.000000	26.000000
276.882149	277.024333	51.000000	31.000000
277.071728	277.213241	58.000000	31.000000
277.071728	277.213241	62.000000	31.000000
277.071728	277.213241	67.000000	37.000000
277.071728	277.213241	50.000000	37.000000
277.260408	277.401921	58.000000	26.000000
277.260408	277.401921	62.000000	26.000000
277.260408	277.401921	67.000000	31.000000
277.260408	277.401921	50.000000	32.000000
277.449088	277.590602	58.000000	26.000000
277.449088	277.590602	62.000000	26.000000
277.449088	277.590602	67.000000	31.000000
277.449088	277.590602	50.000000	32.000000
277.637768	277.782701	57.000000	31.000000
277.637768	277.782701	62.000000	31.000000
277.637768	277.782701	66.000000	37.000000
277.637768	277.782701	50.000000	37.000000
277.831008	277.975941	57.000000	27.000000
277.831008	277.975941	62.000000	27.000000
277.831008	277.975941	66.000000	32.000000
277.831008	277.975941	50.000000	32.000000
278.024248	278.169181	57.000000	27.000000
278.024248	278.169181	62.000000	27.000000
278.024248	278.169181	66.000000	32.000000
278.024248	278.169181	50.000000	32.000000
278.217488	279.367244	58.000000	31.000000
278.217488	279.367244	62.000000	31.000000
278.217488	279.367244	67.000000	37.000000
278.217488	278.362421	50.000000	37.000000
278.217488	279.367244	43.000000	31.000000
278.410728	278.555661	50.000000	29.000000
278.603887	278.748123	50.000000	29.000000
278.796121	278.939660	50.000000	32.000000
278.987430	279.130284	50.000000	29.000000
279.177827	279.320011	50.000000	29.000000
279.367244	279.508087	50.000000	31.000000
279.555039	279.696298	50.000000	29.000000
279.743465	279.885058	50.000000	29.000000
279.932453	280.346211	67.000000	39.000000
279.932453	280.070372	50.000000	32.000000
280.116346	280.254265	50.000000	29.000000
280.300238	280.448443	50.000000	29.000000
280.346211	280.499553	70.000000	39.000000
280.499553	281.063890	74.000000	44.000000
280.640637	280.795830	62.000000	29.000000
280.781722	280.936914	67.000000	30.000000
280.781722	280.922806	43.000000	32.000000
280.922806	281.063890	70.000000	28.000000
281.063890	281.610230	74.000000	40.000000
281.200482	281.350726	62.000000	28.000000
281.337073	281.487304	67.000000	30.000000
281.337073	281.473651	43.000000	32.000000
281.473651	281.610230	70.000000	28.000000
281.610230	282.156140	74.000000	45.000000
281.746701	281.896824	62.000000	27.000000
281.883171	282.033308	66.000000	30.000000
281.883171	282.019656	38.000000	36.000000
282.019656	282.156140	69.000000	28.000000
282.156140	282.721845	74.000000	46.000000
282.294059	282.446476	62.000000	27.000000
282.431979	282.591409	67.000000	30.000000
282.431979	282.576912	43.000000	32.000000
282.576912	282.721845	70.000000	26.000000
282.721845	283.822423	75.000000	51.000000
282.859054	283.009982	63.000000	31.000000
282.996262	283.146654	67.000000	33.000000
282.996262	283.133055	36.000000	38.000000
283.133055	283.282628	72.000000	31.000000
283.269029	283.418603	66.000000	36.000000
283.405004	283.554578	72.000000	27.000000
283.540979	283.693637	69.000000	30.000000
283.540979	283.679327	36.000000	35.000000
283.679327	283.822423	66.000000	27.000000
283.822423	284.925643	74.000000	41.000000
283.960262	284.111887	62.000000	27.000000
284.098101	284.249726	67.000000	30.000000
284.098101	284.235940	43.000000	37.000000
284.235940	284.387310	70.000000	26.000000
284.373778	284.522722	62.000000	30.000000
284.509123	284.658696	70.000000	28.000000
284.645097	284.797460	67.000000	30.000000
284.645097	284.783218	43.000000	32.000000
284.783218	284.925643	62.000000	27.000000
284.925643	286.020294	72.000000	50.000000
285.062852	285.213780	60.000000	28.000000
285.200060	285.350988	63.000000	30.000000
285.200060	285.337269	44.000000	36.000000
285.337269	285.487888	66.000000	28.000000
285.474477	285.622026	60.000000	30.000000
285.608615	285.756163	66.000000	30.000000
285.742752	285.893318	63.000000	30.000000
285.742752	285.879209	45.000000	32.000000
285.879209	286.020294	60.000000	27.000000
286.020294	287.119464	70.000000	45.000000
286.156885	286.307116	58.000000	27.000000
286.293477	286.443480	62.000000	30.000000
286.293477	286.429841	46.000000	32.000000
286.429841	286.579803	67.000000	27.000000
286.566204	286.715711	58.000000	30.000000
286.702179	286.851055	67.000000	28.000000
286.837523	286.990060	62.000000	30.000000
286.837523	286.975684	50.000000	32.000000
286.975684	287.119464	58.000000	28.000000
287.119464	287.672147	69.000000	50.000000
287.256672	287.407399	57.000000	28.000000
287.393881	287.543575	60.000000	30.000000
287.393881	287.529292	51.000000	39.000000
287.529292	287.672147	67.000000	28.000000
287.672147	288.216448	72.000000	46.000000
287.811032	287.959680	63.000000	29.000000
287.946161	288.094823	67.000000	30.000000
287.946161	288.081304	48.000000	32.000000
288.081304	288.216448	69.000000	28.000000
288.216448	288.772926	70.000000	49.000000
288.355574	288.508607	58.000000	27.000000
288.494700	288.647720	62.000000	30.000000
288.494700	288.633813	50.000000	32.000000
288.633813	288.772926	67.000000	27.000000
288.772926	289.337263	69.000000	45.000000
288.914010	289.069203	60.000000	26.000000
289.055095	289.210287	62.000000	30.000000
289.055095	289.196179	38.000000	32.000000
289.196179	289.337263	66.000000	27.000000
289.337263	291.041406	67.000000	50.000000
289.482438	289.642137	55.000000	28.000000
289.627612	289.787325	58.000000	32.000000
289.627612	289.772800	43.000000	30.000000
289.772800	289.932097	62.000000	34.000000
289.917989	290.073181	63.000000	35.000000
289.917989	290.059073	45.000000	37.000000
290.059073	290.214266	60.000000	37.000000
290.200157	290.355350	57.000000	39.000000
290.200157	290.341241	48.000000	40.000000
290.341241	290.496300	63.000000	44.000000
290.482326	290.636070	62.000000	44.000000
290.482326	290.622096	50.000000	44.000000
290.622096	290.775840	58.000000	33.000000
290.761866	290.915610	62.000000	37.000000
290.761866	290.901636	55.000000	35.000000
290.901636	291.055380	66.000000	28.000000
291.041406	291.195150	67.000000	34.000000
291.041406	291.181176	50.000000	39.000000
291.181176	291.334920	62.000000	26.000000
291.320946	291.474690	67.000000	30.000000
291.320946	291.460716	46.000000	32.000000
291.460716	291.600486	70.000000	26.000000
291.600486	292.164823	74.000000	44.000000
291.741570	291.896763	62.000000	29.000000
291.882654	292.037847	67.000000	30.000000
291.882654	292.023739	43.000000	32.000000
292.023739	292.164823	70.000000	28.000000
292.164823	292.711162	74.000000	40.000000
292.301414	292.451658	62.000000	28.000000
292.438006	292.588237	67.000000	30.000000
292.438006	292.574584	43.000000	32.000000
292.574584	292.711162	70.000000	28.000000
292.711162	293.250770	74.000000	45.000000
292.847633	292.997435	62.000000	27.000000
292.984104	293.130767	66.000000	30.000000
292.984104	293.117437	38.000000	36.000000
293.117437	293.250770	69.000000	28.000000
293.250770	293.816475	74.000000	46.000000
293.388689	293.541105	62.000000	27.000000
293.526608	293.686039	67.000000	30.000000
293.526608	293.671541	43.000000	32.000000
293.671541	293.816475	70.000000	26.000000
293.816475	294.920312	75.000000	51.000000
293.953683	294.104611	63.000000	31.000000
294.090892	294.241820	67.000000	33.000000
294.090892	294.228100	36.000000	38.000000
294.228100	294.378961	72.000000	31.000000
294.365309	294.515539	69.000000	41.000000
294.501887	294.652117	72.000000	33.000000
294.638465	294.791525	69.000000	41.000000
294.638465	294.777216	41.000000	43.000000
294.777216	294.920312	65.000000	34.000000
294.920312	296.020903	74.000000	57.000000
295.058150	295.209776	62.000000	34.000000
295.195989	295.347615	65.000000	40.000000
295.195989	295.333828	34.000000	45.000000
295.333828	295.485145	70.000000	33.000000
295.471667	295.619899	65.000000	41.000000
295.606421	295.754654	70.000000	28.000000
295.741175	295.892720	65.000000	35.000000
295.741175	295.878478	46.000000	43.000000
295.878478	296.020903	62.000000	27.000000
296.020903	297.112241	72.000000	60.000000
296.158112	296.308838	60.000000	35.000000
296.295320	296.443982	63.000000	39.000000
296.295320	296.430463	45.000000	50.000000
296.430463	296.579004	69.000000	28.000000
296.565607	296.713021	66.000000	40.000000
296.699543	296.847775	69.000000	27.000000
296.834297	296.985265	66.000000	30.000000
296.834297	296.971157	38.000000	42.000000
296.971157	297.112241	62.000000	27.000000
297.112241	298.206771	70.000000	45.000000
297.248833	297.398876	58.000000	27.000000
297.385424	297.533402	62.000000	30.000000
297.385424	297.519951	43.000000	42.000000
297.519951	297.668009	67.000000	27.000000
297.654477	297.803339	58.000000	30.000000
297.789821	297.938483	67.000000	28.000000
297.924964	298.077368	62.000000	30.000000
297.924964	298.062991	31.000000	41.000000
298.062991	298.206771	58.000000	28.000000
298.206771	298.759186	67.000000	50.000000
298.343979	298.494706	63.000000	28.000000
298.481188	298.630614	62.000000	30.000000
298.481188	298.616331	39.000000	39.000000
298.616331	298.759186	60.000000	28.000000
298.759186	299.296298	75.000000	46.000000
298.898070	299.044090	63.000000	29.000000
299.030813	299.176833	67.000000	30.000000
299.030813	299.163556	36.000000	32.000000
299.163556	299.296298	72.000000	28.000000
299.296298	299.841753	74.000000	49.000000
299.432662	299.582664	62.000000	27.000000
299.569025	299.719028	65.000000	30.000000
299.569025	299.705389	41.000000	32.000000
299.705389	299.841753	70.000000	27.000000
299.841753	300.406090	72.000000	45.000000
299.982837	300.138030	63.000000	26.000000
300.123921	300.279114	65.000000	30.000000
300.123921	300.265005	29.000000	32.000000
300.265005	300.406090	69.000000	27.000000
300.406090	302.110232	70.000000	50.000000
300.551264	300.710963	58.000000	28.000000
300.696439	300.856151	62.000000	32.000000
300.696439	300.841627	46.000000	30.000000
300.841627	301.000924	65.000000	34.000000
300.986815	301.142008	66.000000	35.000000
300.986815	301.127900	48.000000	37.000000
301.127900	301.283092	63.000000	37.000000
301.268984	301.424177	60.000000	39.000000
301.268984	301.410068	51.000000	40.000000
301.410068	301.565127	66.000000	44.000000
301.551152	301.704897	65.000000	44.000000
301.551152	301.690922	50.000000	44.000000
301.690922	301.844667	62.000000	33.000000
301.830692	301.984437	65.000000	37.000000
301.830692	301.970462	58.000000	35.000000
301.970462	302.124207	69.000000	34.000000
302.110232	302.263977	70.000000	40.000000
302.110232	302.250002	53.000000	39.000000
302.250002	302.403747	65.000000	43.000000
302.389772	302.543517	70.000000	46.000000
302.389772	302.529542	50.000000	32.000000
302.529542	302.669312	74.000000	49.000000
302.669312	303.090594	65.000000	41.000000
302.669312	303.090594	77.000000	55.000000
302.669312	302.809740	46.000000	44.000000
302.809740	302.950167	50.000000	36.000000
302.950167	303.090594	53.000000	36.000000
303.090594	303.231021	50.000000	36.000000
303.231021	303.770856	65.000000	44.000000
303.231021	303.770856	77.000000	54.000000
303.231021	303.367103	46.000000	45.000000
303.367103	303.502233	50.000000	38.000000
303.502233	303.637362	53.000000	38.000000
303.637362	303.771983	50.000000	46.000000
303.771983	304.307352	66.000000	54.000000
303.771983	304.307352	78.000000	64.000000
303.771983	303.906509	45.000000	55.000000
303.906509	304.040727	48.000000	46.000000
304.040727	304.174650	50.000000	47.000000
304.174650	304.308465	48.000000	50.000000
304.308465	304.845363	67.000000	60.000000
304.308465	304.845363	79.000000	72.000000
304.308465	304.443005	43.000000	60.000000
304.443005	304.577531	48.000000	52.000000
304.577531	304.712057	50.000000	49.000000
304.712057	304.846476	48.000000	50.000000
304.846476	305.381068	69.000000	61.000000
304.846476	305.381068	81.000000	75.000000
304.846476	304.980412	42.000000	72.000000
304.980412	305.114335	48.000000	55.000000
305.114335	305.248258	50.000000	59.000000
305.248258	305.382181	48.000000	59.000000
305.382181	305.926951	72.000000	64.000000
305.382181	305.926951	84.000000	78.000000
305.382181	305.518665	42.000000	68.000000
305.518665	305.655136	45.000000	53.000000
305.655136	305.791607	50.000000	53.000000
305.791607	305.928091	45.000000	53.000000
305.928091	306.478602	70.000000	63.000000
305.928091	306.478602	82.000000	77.000000
305.928091	306.066010	43.000000	63.000000
306.066010	306.203916	46.000000	48.000000
306.203916	306.341836	50.000000	48.000000
306.341836	306.479755	46.000000	48.000000
306.479755	306.893513	69.000000	49.000000
306.479755	306.893513	81.000000	58.000000
306.479755	306.617674	48.000000	48.000000
306.617674	306.755593	51.000000	35.000000
306.755593	306.893513	57.000000	35.000000
306.893513	307.038687	67.000000	42.000000
306.893513	307.038687	79.000000	51.000000
306.893513	307.038687	51.000000	36.000000
307.038687	307.605693	66.000000	49.000000
307.038687	307.605693	78.000000	58.000000
307.038687	307.180429	50.000000	50.000000
307.180429	307.322184	57.000000	39.000000
307.322184	307.463938	60.000000	39.000000
307.463938	307.605693	57.000000	39.000000
307.605693	308.162198	66.000000	46.000000
307.605693	308.162198	78.000000	55.000000
307.605693	307.744820	50.000000	47.000000
307.744820	307.883946	57.000000	39.000000
307.883946	308.023072	60.000000	39.000000
308.023072	308.162198	57.000000	39.000000
308.162198	308.435382	67.000000	45.000000
308.162198	308.435382	79.000000	53.000000
308.162198	308.298790	50.000000	47.000000
308.298790	308.435382	57.000000	40.000000
308.435382	308.708565	66.000000	37.000000
308.435382	308.708565	78.000000	45.000000
308.435382	308.571973	60.000000	40.000000
308.571973	308.708565	57.000000	40.000000
308.708565	308.990733	64.000000	38.000000
308.708565	308.990733	76.000000	46.000000
308.708565	308.849649	50.000000	44.000000
308.849649	308.990733	57.000000	36.000000
308.990733	309.285160	66.000000	37.000000
308.990733	309.285160	78.000000	45.000000
308.990733	309.131818	60.000000	36.000000
309.131818	309.285160	57.000000	36.000000
309.285160	310.427406	67.000000	40.000000
309.285160	310.427406	79.000000	48.000000
309.285160	309.429637	55.000000	44.000000
309.429637	309.574114	58.000000	37.000000
309.574114	309.718591	55.000000	37.000000
309.718591	309.863069	50.000000	37.000000
309.863069	310.004153	46.000000	44.000000
310.004153	310.145237	55.000000	38.000000
310.145237	310.286322	50.000000	38.000000
310.286322	310.427406	46.000000	38.000000
310.427406	310.568490	43.000000	44.000000
310.568490	310.709574	67.000000	53.000000
310.709574	310.850659	70.000000	55.000000
310.850659	310.991743	74.000000	57.000000
310.991743	311.129662	79.000000	59.000000
310.991743	311.405501	43.000000	58.000000
310.991743	311.405501	55.000000	69.000000
311.129662	311.267582	70.000000	61.000000
311.267582	311.405501	74.000000	63.000000
311.405501	311.558843	79.000000	65.000000
311.405501	311.558843	46.000000	51.000000
311.405501	311.558843	58.000000	61.000000
311.558843	311.980111	50.000000	62.000000
311.558843	311.980111	62.000000	74.000000
311.839684	311.980111	69.000000	63.000000
311.839684	311.980111	74.000000	63.000000
311.839684	311.980111	78.000000	74.000000
312.120538	312.530299	50.000000	56.000000
312.120538	312.530299	62.000000	67.000000
312.393708	312.530299	81.000000	74.000000
312.393708	312.530299	72.000000	63.000000
312.393708	312.530299	74.000000	63.000000
312.666891	313.076317	50.000000	58.000000
312.666891	313.076317	62.000000	69.000000
312.939846	313.076317	70.000000	63.000000
312.939846	313.076317	74.000000	63.000000
312.939846	313.076317	79.000000	74.000000
313.212788	313.632420	50.000000	57.000000
313.212788	313.632420	62.000000	68.000000
313.488626	313.632420	69.000000	63.000000
313.488626	313.632420	74.000000	63.000000
313.488626	313.632420	78.000000	74.000000
313.776213	314.873224	51.000000	63.000000
313.776213	314.873224	63.000000	75.000000
314.050630	314.187839	67.000000	65.000000
314.050630	314.187839	74.000000	65.000000
314.050630	314.187839	79.000000	78.000000
314.325047	314.456837	67.000000	66.000000
314.325047	314.456837	72.000000	66.000000
314.325047	314.456837	79.000000	79.000000
314.592195	314.730128	85.000000	83.000000
314.592195	314.730128	79.000000	71.000000
314.592195	314.730128	73.000000	71.000000
314.873224	315.973936	50.000000	61.000000
314.873224	315.973936	62.000000	72.000000
315.148915	315.286754	86.000000	83.000000
315.148915	315.286754	81.000000	83.000000
315.148915	315.286754	79.000000	71.000000
315.148915	315.286754	74.000000	71.000000
315.424592	315.556383	74.000000	69.000000
315.424592	315.556383	78.000000	69.000000
315.424592	315.556383	81.000000	69.000000
315.424592	315.556383	86.000000	81.000000
315.692974	315.831511	66.000000	66.000000
315.692974	315.831511	69.000000	66.000000
315.692974	315.831511	74.000000	79.000000
315.973936	317.062552	48.000000	63.000000
315.973936	317.062552	60.000000	75.000000
316.248353	316.385562	63.000000	63.000000
316.248353	316.385562	70.000000	63.000000
316.248353	316.385562	75.000000	74.000000
316.522770	316.652844	63.000000	69.000000
316.522770	316.652844	69.000000	69.000000
316.522770	316.652844	75.000000	81.000000
316.785801	316.921467	81.000000	74.000000
316.785801	316.921467	75.000000	63.000000
316.785801	316.921467	69.000000	63.000000
317.062552	318.158355	46.000000	57.000000
317.062552	318.158355	58.000000	68.000000
317.335721	317.472313	82.000000	74.000000
317.335721	317.472313	77.000000	63.000000
317.335721	317.472313	75.000000	63.000000
317.335721	317.472313	70.000000	63.000000
317.608904	317.743055	70.000000	66.000000
317.608904	317.743055	74.000000	66.000000
317.608904	317.743055	77.000000	66.000000
317.608904	317.743055	82.000000	79.000000
317.877206	318.014562	62.000000	63.000000
317.877206	318.014562	65.000000	63.000000
317.877206	318.014562	70.000000	74.000000
318.158355	318.696273	45.000000	57.000000
318.158355	318.696273	57.000000	68.000000
318.423090	318.559681	63.000000	63.000000
318.423090	318.559681	67.000000	63.000000
318.423090	318.559681	72.000000	74.000000
318.696273	319.232956	48.000000	56.000000
318.696273	319.232956	60.000000	66.000000
318.961007	319.096982	66.000000	63.000000
318.961007	319.096982	69.000000	63.000000
318.961007	319.096982	75.000000	74.000000
319.232956	319.789448	46.000000	62.000000
319.232956	319.789448	58.000000	73.000000
319.511195	319.650322	67.000000	65.000000
319.511195	319.650322	70.000000	65.000000
319.511195	319.650322	74.000000	78.000000
319.789448	320.351143	45.000000	45.000000
319.789448	320.351143	57.000000	64.000000
320.070289	320.210716	72.000000	66.000000
320.070289	320.210716	74.000000	66.000000
320.070289	320.210716	78.000000	79.000000
320.351143	322.024910	55.000000	72.000000
320.351143	322.024910	43.000000	51.000000
320.640098	320.917049	70.000000	69.000000
320.640098	320.917049	74.000000	69.000000
320.640098	320.917049	79.000000	81.000000
320.917049	321.195288	62.000000	67.000000
320.917049	321.195288	70.000000	67.000000
320.917049	321.195288	74.000000	80.000000
321.195288	321.473528	62.000000	65.000000
321.195288	321.473528	69.000000	65.000000
321.195288	321.473528	72.000000	78.000000
321.473528	321.749219	62.000000	64.000000
321.473528	321.749219	67.000000	64.000000
321.473528	321.749219	70.000000	64.000000
321.749219	322.024910	67.000000	63.000000
321.749219	322.024910	70.000000	63.000000
321.749219	322.024910	74.000000	74.000000
322.024910	322.300748	70.000000	63.000000
322.024910	322.300748	74.000000	63.000000
322.024910	322.300748	79.000000	74.000000
322.024910	322.438667	55.000000	69.000000
322.024910	322.438667	43.000000	69.000000
322.300748	322.592009	67.000000	63.000000
322.300748	322.592009	70.000000	63.000000
322.300748	322.592009	74.000000	74.000000
322.438667	322.592009	46.000000	61.000000
322.438667	322.592009	58.000000	61.000000
322.592009	323.015262	50.000000	74.000000
322.592009	322.988226	62.000000	74.000000
322.874178	323.015262	66.000000	63.000000
322.874178	323.015262	69.000000	63.000000
322.874178	323.015262	74.000000	74.000000
323.156347	323.557672	62.000000	67.000000
323.156347	323.557672	50.000000	55.000000
323.421081	323.557672	81.000000	74.000000
323.421081	323.557672	72.000000	63.000000
323.421081	323.557672	74.000000	63.000000
323.694264	324.097333	50.000000	58.000000
323.694264	324.097333	62.000000	69.000000
323.961359	324.097333	70.000000	63.000000
323.961359	324.097333	74.000000	63.000000
323.961359	324.097333	79.000000	74.000000
324.233308	324.652940	50.000000	57.000000
324.233308	324.652940	62.000000	68.000000
324.509146	324.652940	69.000000	63.000000
324.509146	324.652940	74.000000	63.000000
324.509146	324.652940	78.000000	74.000000
324.804726	325.922765	51.000000	63.000000
324.804726	325.922765	63.000000	75.000000
325.085567	325.225994	67.000000	65.000000
325.085567	325.225994	74.000000	65.000000
325.085567	325.225994	79.000000	78.000000
325.366421	325.501162	67.000000	66.000000
325.366421	325.501162	72.000000	66.000000
325.366421	325.501162	79.000000	79.000000
325.639645	325.779669	85.000000	83.000000
325.639645	325.779669	79.000000	71.000000
325.639645	325.779669	73.000000	71.000000
325.922765	327.028547	50.000000	60.000000
325.922765	327.028547	62.000000	72.000000
326.198456	326.336295	86.000000	83.000000
326.198456	326.336295	81.000000	83.000000
326.198456	326.336295	79.000000	71.000000
326.198456	326.336295	74.000000	71.000000
326.474134	326.605348	74.000000	69.000000
326.474134	326.605348	77.000000	69.000000
326.474134	326.605348	81.000000	69.000000
326.474134	326.605348	86.000000	81.000000
326.742556	326.879765	65.000000	66.000000
326.742556	326.879765	69.000000	66.000000
326.742556	326.879765	74.000000	79.000000
327.028547	328.122192	48.000000	63.000000
327.028547	328.122192	60.000000	75.000000
327.302964	327.440172	63.000000	63.000000
327.302964	327.440172	70.000000	63.000000
327.302964	327.440172	75.000000	74.000000
327.577381	327.707455	63.000000	69.000000
327.577381	327.707455	69.000000	69.000000
327.577381	327.707455	75.000000	81.000000
327.843429	327.981107	81.000000	74.000000
327.843429	327.981107	75.000000	63.000000
327.843429	327.981107	69.000000	63.000000
328.122192	328.936846	58.000000	68.000000
328.122192	328.936846	46.000000	57.000000
328.395361	328.531953	82.000000	74.000000
328.395361	328.531953	77.000000	63.000000
328.395361	328.531953	75.000000	63.000000
328.395361	328.531953	70.000000	63.000000
328.668545	328.802695	70.000000	66.000000
328.668545	328.802695	74.000000	66.000000
328.668545	328.802695	77.000000	66.000000
328.668545	328.802695	82.000000	79.000000
328.936846	329.070997	65.000000	63.000000
328.936846	329.070997	72.000000	74.000000
328.936846	329.212081	45.000000	60.000000
328.936846	329.212081	57.000000	66.000000
329.212081	329.751179	55.000000	70.000000
329.212081	329.751179	43.000000	60.000000
329.477996	329.614587	63.000000	63.000000
329.477996	329.614587	70.000000	63.000000
329.477996	329.614587	75.000000	74.000000
329.751179	330.303231	51.000000	55.000000
329.751179	330.303231	63.000000	66.000000
330.025596	330.162804	67.000000	63.000000
330.025596	330.162804	70.000000	63.000000
330.025596	330.162804	72.000000	74.000000
330.303231	330.849772	62.000000	67.000000
330.303231	330.849772	50.000000	56.000000
330.571519	330.710646	65.000000	65.000000
330.571519	330.710646	70.000000	65.000000
330.571519	330.710646	77.000000	78.000000
330.849772	331.424811	48.000000	50.000000
330.849772	331.424811	60.000000	60.000000
331.131941	331.273025	69.000000	50.000000
331.131941	331.273025	75.000000	66.000000
331.131941	331.273025	77.000000	66.000000
331.131941	331.273025	81.000000	79.000000
331.424811	333.131260	46.000000	60.000000
331.424811	333.131260	58.000000	70.000000
331.713779	331.997275	75.000000	69.000000
331.713779	331.997275	70.000000	69.000000
331.713779	331.997275	77.000000	69.000000
331.713779	331.997275	82.000000	81.000000
331.997275	332.280772	74.000000	67.000000
331.997275	332.280772	70.000000	67.000000
331.997275	332.280772	77.000000	67.000000
331.997275	332.280772	82.000000	80.000000
332.280772	332.564268	70.000000	65.000000
332.280772	332.564268	74.000000	65.000000
332.280772	332.564268	77.000000	78.000000
332.564268	332.847764	65.000000	54.000000
332.564268	332.847764	70.000000	54.000000
332.564268	332.847764	74.000000	64.000000
332.847764	333.131260	62.000000	53.000000
332.847764	333.131260	65.000000	53.000000
332.847764	333.131260	70.000000	63.000000
333.131260	333.556512	58.000000	46.000000
333.131260	333.556512	70.000000	55.000000
333.556512	333.706782	62.000000	46.000000
333.556512	333.706782	74.000000	55.000000
333.706782	334.128050	65.000000	41.000000
333.706782	334.128050	77.000000	55.000000
333.706782	333.847210	46.000000	44.000000
333.847210	333.987623	50.000000	36.000000
333.987623	334.128050	53.000000	36.000000
334.128050	334.268478	50.000000	36.000000
334.268478	334.813704	65.000000	44.000000
334.268478	334.813704	77.000000	54.000000
334.268478	334.405069	46.000000	45.000000
334.405069	334.541661	50.000000	38.000000
334.541661	334.678252	53.000000	38.000000
334.678252	334.814844	50.000000	46.000000
334.814844	335.359601	66.000000	53.000000
334.814844	335.359601	78.000000	63.000000
334.814844	334.951315	45.000000	54.000000
334.951315	335.087786	48.000000	45.000000
335.087786	335.224257	50.000000	45.000000
335.224257	335.360741	48.000000	48.000000
335.360741	335.911251	67.000000	57.000000
335.360741	335.911251	79.000000	68.000000
335.360741	335.498647	43.000000	57.000000
335.498647	335.636566	48.000000	49.000000
335.636566	335.774485	50.000000	46.000000
335.774485	335.912405	48.000000	46.000000
335.912405	336.457618	69.000000	58.000000
335.912405	336.457618	81.000000	71.000000
335.912405	336.048983	42.000000	66.000000
336.048983	336.185574	48.000000	50.000000
336.185574	336.322166	50.000000	54.000000
336.322166	336.458757	48.000000	54.000000
336.458757	337.003528	72.000000	60.000000
336.458757	337.003528	84.000000	72.000000
336.458757	336.595242	42.000000	62.000000
336.595242	336.731713	45.000000	49.000000
336.731713	336.868184	50.000000	49.000000
336.868184	337.004668	45.000000	49.000000
337.004668	337.555178	70.000000	58.000000
337.004668	337.555178	82.000000	70.000000
337.004668	337.142587	43.000000	58.000000
337.142587	337.280493	46.000000	44.000000
337.280493	337.418412	50.000000	44.000000
337.418412	337.556332	46.000000	44.000000
337.556332	337.970089	69.000000	49.000000
337.556332	337.970089	81.000000	58.000000
337.556332	337.694251	48.000000	48.000000
337.694251	337.832170	51.000000	35.000000
337.832170	337.970089	57.000000	35.000000
337.970089	338.115264	67.000000	42.000000
337.970089	338.115264	79.000000	51.000000
337.970089	338.115264	51.000000	36.000000
338.115264	338.682270	66.000000	49.000000
338.115264	338.682270	78.000000	58.000000
338.115264	338.257005	50.000000	50.000000
338.257005	338.398760	57.000000	39.000000
338.398760	338.540515	60.000000	39.000000
338.540515	338.682270	57.000000	39.000000
338.682270	339.238775	66.000000	46.000000
338.682270	339.238775	78.000000	55.000000
338.682270	338.821396	50.000000	47.000000
338.821396	338.960523	57.000000	39.000000
338.960523	339.099649	60.000000	39.000000
339.099649	339.238775	57.000000	39.000000
339.238775	339.511958	67.000000	45.000000
339.238775	339.511958	79.000000	53.000000
339.238775	339.375367	50.000000	47.000000
339.375367	339.511958	57.000000	40.000000
339.511958	339.785141	66.000000	37.000000
339.511958	339.785141	78.000000	45.000000
339.511958	339.648550	60.000000	40.000000
339.648550	339.785141	57.000000	40.000000
339.785141	340.067310	64.000000	38.000000
339.785141	340.067310	76.000000	46.000000
339.785141	339.926226	50.000000	44.000000
339.926226	340.067310	57.000000	36.000000
340.067310	340.361736	66.000000	37.000000
340.067310	340.361736	78.000000	45.000000
340.067310	340.208394	60.000000	36.000000
340.208394	340.361736	57.000000	36.000000
340.361736	341.503983	67.000000	40.000000
340.361736	341.503983	79.000000	48.000000
340.361736	340.506200	43.000000	33.000000
340.554359	340.698836	50.000000	19.000000
340.554359	340.698836	55.000000	19.000000
340.554359	340.698836	59.000000	23.000000
340.746996	340.891473	50.000000	19.000000
340.746996	340.891473	55.000000	19.000000
340.746996	340.891473	59.000000	23.000000
340.939632	341.080716	50.000000	21.000000
340.939632	341.080716	55.000000	21.000000
340.939632	341.080716	59.000000	25.000000
341.127749	341.268833	50.000000	21.000000
341.127749	341.268833	59.000000	25.000000
341.127749	341.268833	55.000000	21.000000
341.315866	341.456950	59.000000	25.000000
341.315866	341.456950	55.000000	21.000000
341.315866	341.456950	50.000000	21.000000
341.503983	341.790818	72.000000	53.000000
341.503983	341.640574	59.000000	32.000000
341.503983	341.640574	50.000000	27.000000
341.503983	341.640574	55.000000	27.000000
341.686105	341.822683	59.000000	24.000000
341.686105	341.822683	50.000000	20.000000
341.686105	341.822683	55.000000	20.000000
341.777166	342.064310	71.000000	53.000000
341.868213	342.004805	50.000000	21.000000
341.868213	342.004805	59.000000	25.000000
341.868213	342.004805	55.000000	21.000000
342.050335	342.343850	70.000000	53.000000
342.050335	342.190105	59.000000	33.000000
342.050335	342.190105	55.000000	28.000000
342.050335	342.190105	50.000000	28.000000
342.236695	342.376465	55.000000	21.000000
342.236695	342.376465	59.000000	25.000000
342.236695	342.376465	50.000000	21.000000
342.329875	342.596420	71.000000	53.000000
342.423055	342.554162	59.000000	25.000000
342.423055	342.554162	55.000000	21.000000
342.423055	342.554162	50.000000	21.000000
342.596420	342.729981	71.000000	48.000000
342.596420	342.729981	36.000000	33.000000
342.729981	343.721608	76.000000	48.000000
342.777456	342.919881	52.000000	19.000000
342.777456	342.919881	59.000000	23.000000
342.777456	342.919881	48.000000	19.000000
342.967356	343.109782	59.000000	23.000000
342.967356	343.109782	52.000000	19.000000
342.967356	343.109782	48.000000	19.000000
343.157257	343.298341	56.000000	30.000000
343.157257	343.298341	48.000000	25.000000
343.157257	343.298341	52.000000	25.000000
343.345374	343.486458	52.000000	21.000000
343.345374	343.486458	48.000000	21.000000
343.345374	343.486458	56.000000	25.000000
343.533491	343.674575	48.000000	21.000000
343.533491	343.674575	56.000000	25.000000
343.533491	343.674575	52.000000	21.000000
343.721608	344.008443	71.000000	53.000000
343.721608	343.858199	48.000000	27.000000
343.721608	343.858199	57.000000	32.000000
343.721608	343.858199	52.000000	27.000000
343.903730	344.040308	48.000000	20.000000
343.903730	344.040308	52.000000	20.000000
343.903730	344.040308	57.000000	24.000000
343.994791	344.281935	69.000000	53.000000
344.085838	344.222430	57.000000	25.000000
344.085838	344.222430	48.000000	21.000000
344.085838	344.222430	52.000000	21.000000
344.267960	344.561475	68.000000	53.000000
344.267960	344.407730	48.000000	28.000000
344.267960	344.407730	57.000000	33.000000
344.267960	344.407730	52.000000	28.000000
344.454320	344.594090	48.000000	21.000000
344.454320	344.594090	52.000000	21.000000
344.454320	344.594090	57.000000	25.000000
344.547500	344.816218	69.000000	53.000000
344.640680	344.773235	52.000000	21.000000
344.640680	344.773235	48.000000	21.000000
344.640680	344.773235	57.000000	25.000000
344.816218	344.946855	69.000000	48.000000
344.816218	344.946855	35.000000	33.000000
344.946855	345.944637	74.000000	48.000000
344.995014	345.139491	47.000000	19.000000
344.995014	345.139491	50.000000	19.000000
344.995014	345.139491	57.000000	23.000000
345.187650	345.332128	50.000000	19.000000
345.187650	345.332128	47.000000	19.000000
345.187650	345.332128	57.000000	23.000000
345.380287	345.521371	47.000000	25.000000
345.380287	345.521371	54.000000	30.000000
345.380287	345.521371	50.000000	25.000000
345.568404	345.709488	54.000000	25.000000
345.568404	345.709488	50.000000	21.000000
345.568404	345.709488	47.000000	21.000000
345.756520	345.897605	47.000000	21.000000
345.756520	345.897605	50.000000	21.000000
345.756520	345.897605	54.000000	25.000000
345.944637	346.231473	72.000000	58.000000
345.944637	346.081229	55.000000	35.000000
345.944637	346.081229	50.000000	29.000000
345.944637	346.081229	47.000000	29.000000
346.126759	346.263338	50.000000	22.000000
346.126759	346.263338	47.000000	22.000000
346.126759	346.263338	55.000000	27.000000
346.217820	346.504964	71.000000	60.000000
346.308868	346.445460	50.000000	24.000000
346.308868	346.445460	55.000000	29.000000
346.308868	346.445460	47.000000	24.000000
346.490990	346.784504	69.000000	63.000000
346.490990	346.630760	47.000000	33.000000
346.490990	346.630760	55.000000	39.000000
346.490990	346.630760	50.000000	33.000000
346.677350	346.817120	47.000000	25.000000
346.677350	346.817120	55.000000	30.000000
346.677350	346.817120	50.000000	25.000000
346.770530	347.065225	67.000000	66.000000
346.863710	347.013579	50.000000	26.000000
346.863710	347.013579	47.000000	26.000000
346.863710	347.013579	55.000000	31.000000
347.065225	347.333513	66.000000	57.000000
347.065225	347.333513	74.000000	68.000000
347.065225	347.199375	36.000000	42.000000
347.244088	347.378225	52.000000	30.000000
347.244088	347.378225	48.000000	25.000000
347.333513	347.601801	64.000000	56.000000
347.333513	347.601801	72.000000	66.000000
347.422938	347.557088	52.000000	31.000000
347.422938	347.557088	48.000000	26.000000
347.601801	347.874971	62.000000	53.000000
347.601801	347.874971	71.000000	63.000000
347.601801	347.738379	48.000000	33.000000
347.601801	347.738379	52.000000	39.000000
347.783910	347.920501	48.000000	24.000000
347.783910	347.920501	52.000000	29.000000
347.874971	348.166487	60.000000	51.000000
347.874971	348.166487	69.000000	60.000000
347.966032	348.114841	52.000000	28.000000
347.966032	348.114841	48.000000	23.000000
348.166487	348.739622	59.000000	49.000000
348.166487	348.739622	67.000000	58.000000
348.166487	348.303078	38.000000	36.000000
348.348609	348.485200	50.000000	21.000000
348.348609	348.485200	55.000000	26.000000
348.530731	348.685173	55.000000	26.000000
348.530731	348.685173	50.000000	22.000000
348.739622	349.158932	62.000000	55.000000
348.739622	349.158932	71.000000	55.000000
348.739622	348.879392	38.000000	34.000000
348.925982	349.065752	50.000000	21.000000
348.925982	349.065752	54.000000	26.000000
349.112342	349.262210	50.000000	21.000000
349.112342	349.262210	54.000000	25.000000
349.158932	349.313856	60.000000	54.000000
349.158932	349.313856	69.000000	54.000000
349.313856	349.506479	59.000000	40.000000
349.313856	349.891752	67.000000	48.000000
349.313856	349.458320	43.000000	33.000000
349.506479	349.699115	59.000000	23.000000
349.506479	349.650956	50.000000	19.000000
349.506479	349.650956	55.000000	19.000000
349.699115	349.843593	55.000000	19.000000
349.699115	349.891752	59.000000	23.000000
349.699115	349.843593	50.000000	19.000000
349.891752	350.032836	59.000000	25.000000
349.891752	350.032836	50.000000	21.000000
349.891752	350.032836	55.000000	21.000000
350.079869	350.220953	59.000000	25.000000
350.079869	350.220953	55.000000	21.000000
350.079869	350.220953	50.000000	21.000000
350.267985	350.409070	59.000000	25.000000
350.267985	350.409070	50.000000	21.000000
350.267985	350.409070	55.000000	21.000000
350.456102	350.742938	72.000000	53.000000
350.456102	350.592694	59.000000	32.000000
350.456102	350.592694	50.000000	27.000000
350.456102	350.592694	55.000000	27.000000
350.638224	350.774803	55.000000	20.000000
350.638224	350.774803	59.000000	24.000000
350.638224	350.774803	50.000000	20.000000
350.729285	351.016430	71.000000	53.000000
350.820333	350.956925	50.000000	21.000000
350.820333	350.956925	55.000000	21.000000
350.820333	350.956925	59.000000	25.000000
351.002455	351.295970	70.000000	53.000000
351.002455	351.142225	59.000000	33.000000
351.002455	351.142225	55.000000	28.000000
351.002455	351.142225	50.000000	28.000000
351.188815	351.328585	50.000000	21.000000
351.188815	351.328585	55.000000	21.000000
351.188815	351.328585	59.000000	25.000000
351.281995	351.571285	71.000000	53.000000
351.375175	351.521450	50.000000	21.000000
351.375175	351.521450	59.000000	25.000000
351.375175	351.521450	55.000000	21.000000
351.571285	351.868380	83.000000	53.000000
351.571285	352.703339	76.000000	48.000000
351.571285	351.711712	36.000000	33.000000
351.759187	351.901613	48.000000	19.000000
351.759187	351.901613	52.000000	19.000000
351.759187	351.901613	59.000000	23.000000
351.854138	352.153097	81.000000	53.000000
351.949088	352.091513	59.000000	23.000000
351.949088	352.091513	52.000000	19.000000
351.949088	352.091513	48.000000	19.000000
352.138988	352.435265	80.000000	53.000000
352.138988	352.280073	48.000000	25.000000
352.138988	352.280073	59.000000	30.000000
352.138988	352.280073	52.000000	25.000000
352.327105	352.468190	52.000000	21.000000
352.327105	352.468190	59.000000	25.000000
352.327105	352.468190	48.000000	21.000000
352.421157	352.703339	81.000000	53.000000
352.515222	352.656306	52.000000	21.000000
352.515222	352.656306	48.000000	21.000000
352.515222	352.656306	59.000000	25.000000
352.703339	352.990175	71.000000	53.000000
352.703339	352.839931	57.000000	32.000000
352.703339	352.839931	52.000000	27.000000
352.703339	352.839931	48.000000	27.000000
352.885461	353.022039	52.000000	20.000000
352.885461	353.022039	57.000000	24.000000
352.885461	353.022039	48.000000	20.000000
352.976522	353.263666	69.000000	53.000000
353.067570	353.204161	52.000000	21.000000
353.067570	353.204161	57.000000	25.000000
353.067570	353.204161	48.000000	21.000000
353.249692	353.543206	68.000000	53.000000
353.249692	353.389462	52.000000	28.000000
353.249692	353.389462	57.000000	33.000000
353.249692	353.389462	48.000000	28.000000
353.436052	353.575822	52.000000	21.000000
353.436052	353.575822	48.000000	21.000000
353.436052	353.575822	57.000000	25.000000
353.529232	353.813479	69.000000	53.000000
353.622412	353.765320	48.000000	21.000000
353.622412	353.765320	57.000000	25.000000
353.622412	353.765320	52.000000	21.000000
353.813479	354.099041	81.000000	58.000000
353.813479	354.952346	74.000000	48.000000
353.813479	353.954563	35.000000	33.000000
354.002723	354.147200	57.000000	23.000000
354.002723	354.147200	50.000000	19.000000
354.002723	354.147200	47.000000	19.000000
354.099041	354.387995	79.000000	60.000000
354.195359	354.339836	57.000000	23.000000
354.195359	354.339836	47.000000	19.000000
354.195359	354.339836	50.000000	19.000000
354.387995	354.670164	78.000000	63.000000
354.387995	354.529080	50.000000	25.000000
354.387995	354.529080	57.000000	30.000000
354.387995	354.529080	47.000000	25.000000
354.576112	354.717196	50.000000	21.000000
354.576112	354.717196	47.000000	21.000000
354.576112	354.717196	57.000000	25.000000
354.670164	354.952346	79.000000	66.000000
354.764229	354.905313	57.000000	25.000000
354.764229	354.905313	47.000000	21.000000
354.764229	354.905313	50.000000	21.000000
354.952346	355.239181	72.000000	58.000000
354.952346	355.088937	50.000000	29.000000
354.952346	355.088937	47.000000	29.000000
354.952346	355.088937	55.000000	35.000000
355.134468	355.271046	55.000000	27.000000
355.134468	355.271046	47.000000	22.000000
355.134468	355.271046	50.000000	22.000000
355.225529	355.512673	71.000000	60.000000
355.316577	355.453168	50.000000	24.000000
355.316577	355.453168	47.000000	24.000000
355.316577	355.453168	55.000000	29.000000
355.498699	355.792213	69.000000	63.000000
355.498699	355.638469	50.000000	33.000000
355.498699	355.638469	55.000000	39.000000
355.498699	355.638469	47.000000	33.000000
355.685059	355.824829	50.000000	25.000000
355.685059	355.824829	47.000000	25.000000
355.685059	355.824829	55.000000	30.000000
355.778239	356.072933	67.000000	66.000000
355.871419	356.021287	50.000000	26.000000
355.871419	356.021287	55.000000	31.000000
355.871419	356.021287	47.000000	26.000000
356.072933	356.341221	74.000000	57.000000
356.072933	356.341221	66.000000	57.000000
356.072933	356.341221	78.000000	68.000000
356.072933	356.207084	36.000000	42.000000
356.251797	356.385934	55.000000	30.000000
356.251797	356.385934	48.000000	25.000000
356.251797	356.385934	52.000000	25.000000
356.341221	356.609510	72.000000	56.000000
356.341221	356.609510	64.000000	56.000000
356.341221	356.609510	76.000000	66.000000
356.430646	356.564797	52.000000	26.000000
356.430646	356.564797	55.000000	31.000000
356.430646	356.564797	48.000000	26.000000
356.609510	356.882679	71.000000	53.000000
356.609510	356.882679	62.000000	53.000000
356.609510	356.882679	74.000000	63.000000
356.609510	356.746088	52.000000	33.000000
356.609510	356.746088	56.000000	39.000000
356.609510	356.746088	48.000000	33.000000
356.791618	356.928210	52.000000	24.000000
356.791618	356.928210	48.000000	24.000000
356.791618	356.928210	56.000000	29.000000
356.882679	357.174195	69.000000	51.000000
356.882679	357.174195	60.000000	51.000000
356.882679	357.174195	72.000000	60.000000
356.973740	357.122549	57.000000	28.000000
356.973740	357.122549	48.000000	23.000000
356.973740	357.122549	52.000000	23.000000
357.174195	357.747330	71.000000	58.000000
357.174195	357.747330	59.000000	49.000000
357.174195	357.747330	67.000000	49.000000
357.174195	357.310787	38.000000	36.000000
357.356317	357.492909	50.000000	21.000000
357.356317	357.492909	55.000000	26.000000
357.538440	357.692881	50.000000	22.000000
357.538440	357.692881	55.000000	26.000000
357.747330	358.321565	60.000000	46.000000
357.747330	358.321565	66.000000	46.000000
357.747330	358.166640	72.000000	55.000000
357.747330	357.887100	38.000000	34.000000
357.933690	358.073460	54.000000	21.000000
357.933690	358.073460	57.000000	26.000000
357.933690	358.073460	50.000000	21.000000
358.120050	358.269919	54.000000	21.000000
358.120050	358.269919	57.000000	25.000000
358.120050	358.269919	50.000000	21.000000
358.166640	358.321565	69.000000	54.000000
358.321565	358.463749	67.000000	39.000000
358.321565	358.890301	43.000000	48.000000
358.321565	358.890301	50.000000	48.000000
358.321565	358.511143	55.000000	48.000000
358.511143	358.700722	55.000000	22.000000
358.511143	358.653327	67.000000	27.000000
358.700722	358.890301	55.000000	22.000000
358.700722	358.842906	67.000000	27.000000
358.890301	359.032485	55.000000	25.000000
358.890301	359.032485	67.000000	30.000000
359.079879	359.222063	55.000000	25.000000
359.079879	359.222063	67.000000	30.000000
359.269458	359.411642	55.000000	25.000000
359.269458	359.411642	67.000000	30.000000
359.459037	359.601221	55.000000	32.000000
359.459037	359.601221	67.000000	38.000000
359.648615	359.790799	55.000000	24.000000
359.648615	359.790799	67.000000	28.000000
359.838194	359.980378	55.000000	25.000000
359.838194	359.980378	67.000000	30.000000
360.027773	360.165692	55.000000	33.000000
360.027773	360.165692	67.000000	39.000000
360.027773	360.441530	47.000000	35.000000
360.211665	360.349584	55.000000	25.000000
360.211665	360.349584	67.000000	30.000000
360.395557	360.533477	55.000000	25.000000
360.395557	360.533477	67.000000	30.000000
360.441530	360.579450	48.000000	30.000000
360.579450	360.720534	67.000000	39.000000
360.579450	360.720534	55.000000	39.000000
360.579450	360.975666	50.000000	40.000000
360.767567	360.908651	55.000000	22.000000
360.767567	360.908651	67.000000	27.000000
360.955683	361.096768	55.000000	22.000000
360.955683	361.096768	67.000000	27.000000
361.143800	361.280392	55.000000	25.000000
361.143800	361.280392	67.000000	30.000000
361.143800	361.527397	50.000000	33.000000
361.325922	361.462514	55.000000	25.000000
361.325922	361.462514	67.000000	30.000000
361.508044	361.644636	55.000000	25.000000
361.508044	361.644636	67.000000	30.000000
361.690167	361.826637	55.000000	32.000000
361.690167	361.826637	67.000000	38.000000
361.690167	362.073428	50.000000	33.000000
361.872128	362.008599	55.000000	24.000000
361.872128	362.008599	67.000000	28.000000
362.054089	362.190573	55.000000	25.000000
362.054089	362.190573	67.000000	30.000000
362.236064	362.373983	55.000000	33.000000
362.236064	362.373983	67.000000	39.000000
362.236064	362.649821	48.000000	36.000000
362.419956	362.557875	55.000000	25.000000
362.419956	362.557875	67.000000	30.000000
362.603848	362.741768	55.000000	25.000000
362.603848	362.741768	67.000000	30.000000
362.649821	362.787741	50.000000	37.000000
362.787741	362.925660	67.000000	39.000000
362.787741	362.925660	55.000000	39.000000
362.787741	363.615256	51.000000	42.000000
362.971633	363.109552	55.000000	22.000000
362.971633	363.109552	67.000000	27.000000
363.155525	363.293445	55.000000	22.000000
363.155525	363.293445	67.000000	27.000000
363.339418	363.477337	55.000000	25.000000
363.339418	363.477337	67.000000	30.000000
363.523310	363.661229	55.000000	25.000000
363.523310	363.661229	67.000000	30.000000
363.615256	363.891095	50.000000	35.000000
363.707202	363.845122	55.000000	25.000000
363.707202	363.845122	67.000000	30.000000
363.891095	364.029014	55.000000	32.000000
363.891095	364.029014	67.000000	38.000000
363.891095	364.442772	48.000000	31.000000
364.074987	364.212907	55.000000	24.000000
364.074987	364.212907	67.000000	28.000000
364.258880	364.396799	55.000000	25.000000
364.258880	364.396799	67.000000	30.000000
364.442772	364.578545	55.000000	33.000000
364.442772	364.578545	67.000000	39.000000
364.442772	364.850106	46.000000	39.000000
364.623808	364.759581	55.000000	25.000000
364.623808	364.759581	67.000000	30.000000
364.804844	364.945043	53.000000	25.000000
364.804844	364.945043	65.000000	30.000000
364.850106	364.992518	44.000000	33.000000
364.992518	365.130437	63.000000	39.000000
364.992518	365.130437	60.000000	39.000000
364.992518	365.130437	67.000000	39.000000
364.992518	365.130437	55.000000	39.000000
364.992518	365.544195	43.000000	36.000000
365.176410	365.314330	63.000000	22.000000
365.176410	365.314330	60.000000	22.000000
365.176410	365.314330	55.000000	22.000000
365.176410	365.314330	67.000000	27.000000
365.360303	365.498222	63.000000	22.000000
365.360303	365.498222	60.000000	22.000000
365.360303	365.498222	55.000000	22.000000
365.360303	365.498222	67.000000	27.000000
365.544195	365.682114	63.000000	22.000000
365.544195	365.682114	60.000000	22.000000
365.544195	365.682114	55.000000	25.000000
365.544195	365.682114	67.000000	30.000000
365.544195	366.095872	43.000000	36.000000
365.728087	365.866007	63.000000	22.000000
365.728087	365.866007	60.000000	22.000000
365.728087	365.866007	55.000000	25.000000
365.728087	365.866007	67.000000	30.000000
365.911980	366.049899	63.000000	22.000000
365.911980	366.049899	60.000000	22.000000
365.911980	366.049899	55.000000	25.000000
365.911980	366.049899	67.000000	30.000000
366.095872	366.233791	62.000000	32.000000
366.095872	366.233791	59.000000	32.000000
366.095872	366.233791	55.000000	32.000000
366.095872	366.233791	67.000000	38.000000
366.095872	366.647549	43.000000	36.000000
366.279764	366.417684	62.000000	32.000000
366.279764	366.417684	59.000000	32.000000
366.279764	366.417684	55.000000	24.000000
366.279764	366.417684	67.000000	28.000000
366.463657	366.601576	62.000000	32.000000
366.463657	366.601576	59.000000	32.000000
366.463657	366.601576	55.000000	25.000000
366.463657	366.601576	67.000000	30.000000
366.647549	366.785468	62.000000	33.000000
366.647549	366.785468	59.000000	33.000000
366.647549	366.785468	55.000000	33.000000
366.647549	366.785468	67.000000	39.000000
366.647549	367.199226	43.000000	36.000000
366.831442	366.969361	62.000000	25.000000
366.831442	366.969361	59.000000	25.000000
366.831442	366.969361	55.000000	25.000000
366.831442	366.969361	67.000000	30.000000
367.015334	367.153253	62.000000	25.000000
367.015334	367.153253	59.000000	25.000000
367.015334	367.153253	55.000000	25.000000
367.015334	367.153253	67.000000	30.000000
367.199226	367.341410	63.000000	39.000000
367.199226	367.341410	60.000000	39.000000
367.199226	367.341410	67.000000	39.000000
367.199226	367.341410	55.000000	39.000000
367.199226	368.323502	48.000000	48.000000
367.388805	367.530989	55.000000	22.000000
367.388805	367.530989	67.000000	27.000000
367.578384	367.720568	55.000000	22.000000
367.578384	367.720568	67.000000	27.000000
367.767962	367.906847	55.000000	28.000000
367.767962	367.906847	67.000000	34.000000
367.953142	368.092027	55.000000	29.000000
367.953142	368.092027	67.000000	35.000000
368.138322	368.277207	55.000000	30.000000
368.138322	368.277207	67.000000	36.000000
368.323502	368.462387	55.000000	40.000000
368.323502	368.462387	67.000000	48.000000
368.508682	368.647566	55.000000	32.000000
368.508682	368.647566	67.000000	36.000000
368.693861	368.832746	55.000000	34.000000
368.693861	368.832746	67.000000	41.000000
368.879041	369.016961	55.000000	47.000000
368.879041	369.016961	67.000000	56.000000
368.879041	369.292799	35.000000	42.000000
368.879041	369.292799	47.000000	50.000000
369.062934	369.200853	55.000000	36.000000
369.062934	369.200853	67.000000	43.000000
369.246826	369.384745	55.000000	37.000000
369.246826	369.384745	67.000000	44.000000
369.292799	369.430718	36.000000	37.000000
369.292799	369.430718	48.000000	44.000000
369.430718	369.571803	67.000000	59.000000
369.430718	369.571803	55.000000	59.000000
369.430718	369.826935	50.000000	62.000000
369.430718	369.853971	38.000000	51.000000
369.618835	369.759920	55.000000	33.000000
369.618835	369.759920	67.000000	41.000000
369.806952	369.948023	55.000000	33.000000
369.806952	369.948023	67.000000	41.000000
369.995056	370.131647	55.000000	37.000000
369.995056	370.131647	67.000000	46.000000
369.995056	370.404830	38.000000	42.000000
369.995056	370.378652	50.000000	50.000000
370.177178	370.313769	55.000000	37.000000
370.177178	370.313769	67.000000	46.000000
370.359300	370.495891	55.000000	37.000000
370.359300	370.495891	67.000000	46.000000
370.541422	370.677893	55.000000	49.000000
370.541422	370.677893	67.000000	58.000000
370.541422	370.950835	38.000000	42.000000
370.541422	370.924683	50.000000	50.000000
370.723383	370.859854	55.000000	36.000000
370.723383	370.859854	67.000000	42.000000
370.905344	371.041815	55.000000	37.000000
370.905344	371.041815	67.000000	46.000000
371.087305	371.225225	56.000000	55.000000
371.087305	371.225225	68.000000	65.000000
371.087305	371.501063	36.000000	50.000000
371.087305	371.501063	48.000000	59.000000
371.271198	371.409117	56.000000	42.000000
371.271198	371.409117	68.000000	52.000000
371.455090	371.606327	56.000000	44.000000
371.455090	371.606327	68.000000	55.000000
371.501063	371.658952	38.000000	57.000000
371.501063	371.658952	50.000000	67.000000
371.658952	371.796576	67.000000	70.000000
371.658952	371.796576	55.000000	70.000000
371.658952	372.484617	39.000000	63.000000
371.658952	372.484617	51.000000	76.000000
371.842442	371.980052	55.000000	40.000000
371.842442	371.980052	67.000000	50.000000
372.025918	372.163529	55.000000	40.000000
372.025918	372.163529	67.000000	50.000000
372.209395	372.347006	55.000000	46.000000
372.209395	372.347006	67.000000	55.000000
372.392871	372.530482	55.000000	44.000000
372.392871	372.530482	67.000000	55.000000
372.484617	372.759825	38.000000	54.000000
372.484617	372.759825	50.000000	64.000000
372.576348	372.713959	55.000000	44.000000
372.576348	372.713959	67.000000	54.000000
372.759825	372.897449	55.000000	57.000000
372.759825	372.897449	67.000000	69.000000
372.759825	373.310268	36.000000	46.000000
372.759825	373.310268	48.000000	55.000000
372.943315	373.080926	55.000000	42.000000
372.943315	373.080926	67.000000	49.000000
373.126791	373.264402	55.000000	42.000000
373.126791	373.264402	67.000000	52.000000
373.310268	373.446042	55.000000	57.000000
373.310268	373.446042	67.000000	67.000000
373.310268	373.717602	34.000000	57.000000
373.310268	373.717602	46.000000	67.000000
373.491304	373.627077	55.000000	42.000000
373.491304	373.627077	67.000000	51.000000
373.672340	373.812539	53.000000	41.000000
373.672340	373.812539	65.000000	50.000000
373.717602	373.860014	44.000000	55.000000
373.717602	373.860014	32.000000	46.000000
373.860014	373.997933	64.000000	59.000000
373.860014	373.997933	60.000000	59.000000
373.860014	373.997933	67.000000	59.000000
373.860014	373.997933	55.000000	59.000000
373.860014	374.411691	31.000000	46.000000
373.860014	374.411691	43.000000	55.000000
374.043906	374.181826	64.000000	33.000000
374.043906	374.181826	60.000000	33.000000
374.043906	374.181826	55.000000	33.000000
374.043906	374.181826	67.000000	41.000000
374.227799	374.365718	64.000000	33.000000
374.227799	374.365718	60.000000	33.000000
374.227799	374.365718	55.000000	33.000000
374.227799	374.365718	67.000000	41.000000
374.411691	374.546821	64.000000	33.000000
374.411691	374.546821	60.000000	33.000000
374.411691	374.546821	55.000000	37.000000
374.411691	374.546821	67.000000	46.000000
374.411691	374.952224	31.000000	46.000000
374.411691	374.952224	43.000000	55.000000
374.591869	374.726998	64.000000	33.000000
374.591869	374.726998	60.000000	33.000000
374.591869	374.726998	55.000000	37.000000
374.591869	374.726998	67.000000	46.000000
374.772046	374.907176	64.000000	33.000000
374.772046	374.907176	60.000000	33.000000
374.772046	374.907176	55.000000	37.000000
374.772046	374.907176	67.000000	46.000000
374.952224	375.087353	62.000000	49.000000
374.952224	375.087353	59.000000	49.000000
374.952224	375.087353	55.000000	49.000000
374.952224	375.087353	67.000000	58.000000
374.952224	375.492756	43.000000	55.000000
374.952224	375.492756	31.000000	46.000000
375.132401	375.267531	62.000000	49.000000
375.132401	375.267531	59.000000	49.000000
375.132401	375.267531	55.000000	36.000000
375.132401	375.267531	67.000000	42.000000
375.312579	375.447708	62.000000	49.000000
375.312579	375.447708	59.000000	49.000000
375.312579	375.447708	55.000000	37.000000
375.312579	375.447708	67.000000	46.000000
375.492756	375.629737	62.000000	50.000000
375.492756	375.629737	59.000000	50.000000
375.492756	375.629737	55.000000	50.000000
375.492756	375.629737	67.000000	59.000000
375.492756	376.062431	43.000000	55.000000
375.492756	376.062431	31.000000	46.000000
375.675401	375.812382	62.000000	37.000000
375.675401	375.812382	59.000000	37.000000
375.675401	375.812382	55.000000	37.000000
375.675401	375.812382	67.000000	46.000000
375.858046	376.009524	62.000000	37.000000
375.858046	376.009524	59.000000	37.000000
375.858046	376.009524	55.000000	37.000000
375.858046	376.009524	67.000000	46.000000
376.062431	376.245076	55.000000	40.000000
376.062431	377.158302	60.000000	40.000000
376.062431	377.158302	64.000000	40.000000
376.062431	377.158302	67.000000	48.000000
376.062431	376.245076	36.000000	40.000000
376.062431	376.245076	48.000000	40.000000
376.245076	376.427721	55.000000	31.000000
376.427721	376.610366	55.000000	31.000000
376.610366	376.793011	55.000000	31.000000
376.793011	376.975657	55.000000	29.000000
376.975657	377.158302	55.000000	29.000000
377.158302	377.295282	55.000000	29.000000
377.340947	377.477927	55.000000	28.000000
377.523592	377.660572	55.000000	28.000000
377.706237	378.119995	62.000000	37.000000
377.706237	378.119995	67.000000	37.000000
377.706237	378.119995	71.000000	44.000000
377.706237	377.844156	55.000000	31.000000
377.890129	378.028049	55.000000	30.000000
378.074022	378.211941	55.000000	30.000000
378.119995	378.257914	64.000000	32.000000
378.119995	378.257914	67.000000	32.000000
378.119995	378.257914	72.000000	38.000000
378.257914	378.681167	65.000000	35.000000
378.257914	378.681167	67.000000	35.000000
378.257914	378.654130	74.000000	51.000000
378.257914	378.398999	55.000000	31.000000
378.446031	378.587115	55.000000	27.000000
378.634148	378.775219	55.000000	27.000000
378.822251	379.232026	67.000000	35.000000
378.822251	379.232026	65.000000	35.000000
378.822251	379.205848	74.000000	42.000000
378.822251	378.958843	55.000000	31.000000
379.004373	379.140965	55.000000	28.000000
379.186496	379.323087	55.000000	28.000000
379.368618	379.778030	65.000000	35.000000
379.368618	379.778030	67.000000	35.000000
379.368618	379.751879	74.000000	42.000000
379.368618	379.505089	55.000000	31.000000
379.550579	379.687050	55.000000	31.000000
379.732540	379.869011	55.000000	31.000000
379.914501	380.328259	64.000000	39.000000
379.914501	380.328259	67.000000	39.000000
379.914501	380.328259	72.000000	46.000000
379.914501	380.052421	55.000000	31.000000
380.098394	380.236313	55.000000	31.000000
380.282286	380.420205	55.000000	32.000000
380.328259	380.466178	65.000000	39.000000
380.328259	380.466178	67.000000	39.000000
380.328259	380.466178	74.000000	47.000000
380.466178	381.293694	67.000000	45.000000
380.466178	381.293694	76.000000	53.000000
380.466178	380.604098	55.000000	40.000000
380.650071	380.787990	55.000000	31.000000
380.833963	380.971882	55.000000	26.000000
381.017855	381.155775	55.000000	33.000000
381.201748	381.339667	55.000000	29.000000
381.293694	381.569533	65.000000	37.000000
381.293694	381.569533	67.000000	37.000000
381.293694	381.569533	74.000000	44.000000
381.385640	381.523559	55.000000	26.000000
381.569533	382.121210	64.000000	33.000000
381.569533	382.121210	67.000000	33.000000
381.569533	382.121210	72.000000	39.000000
381.569533	381.707452	55.000000	33.000000
381.753425	381.891344	55.000000	30.000000
381.937317	382.075237	55.000000	29.000000
382.121210	382.528544	65.000000	41.000000
382.121210	382.528544	67.000000	41.000000
382.121210	382.528544	74.000000	49.000000
382.121210	382.256983	55.000000	33.000000
382.302246	382.438019	55.000000	30.000000
382.483281	382.623480	55.000000	30.000000
382.528544	382.670956	64.000000	35.000000
382.528544	382.670956	67.000000	35.000000
382.528544	382.670956	72.000000	42.000000
382.670956	383.222633	62.000000	39.000000
382.670956	383.222633	67.000000	39.000000
382.670956	383.222633	71.000000	46.000000
382.670956	382.808875	55.000000	31.000000
382.854848	382.992767	55.000000	28.000000
383.038740	383.176660	55.000000	28.000000
383.222633	383.636391	60.000000	37.000000
383.222633	383.636391	67.000000	37.000000
383.222633	383.636391	69.000000	44.000000
383.222633	383.360552	55.000000	31.000000
383.406525	383.544444	55.000000	28.000000
383.590417	383.728337	53.000000	26.000000
383.590417	383.728337	55.000000	31.000000
383.636391	383.774310	62.000000	30.000000
383.636391	383.774310	67.000000	30.000000
383.636391	383.774310	71.000000	36.000000
383.774310	384.342643	64.000000	40.000000
383.774310	384.342643	67.000000	40.000000
383.774310	384.342643	72.000000	48.000000
383.774310	383.915193	52.000000	30.000000
383.774310	383.915193	55.000000	36.000000
383.962158	384.103042	55.000000	29.000000
384.150007	384.294484	55.000000	29.000000
384.342643	384.761953	67.000000	36.000000
384.342643	384.761953	71.000000	36.000000
384.342643	384.761953	74.000000	43.000000
384.342643	384.482413	48.000000	30.000000
384.342643	384.482413	55.000000	36.000000
384.529003	384.668773	55.000000	31.000000
384.715363	384.860645	55.000000	31.000000
384.761953	384.909998	67.000000	37.000000
384.761953	384.909998	72.000000	37.000000
384.761953	384.909998	76.000000	44.000000
384.909998	386.629751	71.000000	43.000000
384.909998	386.629751	67.000000	43.000000
384.909998	386.629751	74.000000	51.000000
384.909998	385.058043	43.000000	35.000000
384.909998	385.058043	55.000000	37.000000
385.107395	385.255440	55.000000	29.000000
385.304793	385.452837	55.000000	29.000000
385.499588	385.638554	55.000000	44.000000
385.685063	385.824887	55.000000	37.000000
385.871611	386.012320	55.000000	39.000000
386.059339	386.200933	55.000000	53.000000
386.248327	386.390806	55.000000	39.000000
386.438429	386.581820	55.000000	40.000000
386.629751	387.043509	59.000000	52.000000
386.629751	387.043509	67.000000	52.000000
386.629751	387.043509	71.000000	62.000000
386.629751	386.767670	55.000000	52.000000
386.813644	386.951563	55.000000	45.000000
386.997536	387.143006	55.000000	52.000000
387.043509	387.192761	60.000000	50.000000
387.043509	387.192761	69.000000	50.000000
387.043509	387.192761	72.000000	60.000000
387.192761	387.734178	62.000000	61.000000
387.192761	387.734178	71.000000	61.000000
387.192761	387.734178	74.000000	73.000000
387.192761	387.328118	55.000000	59.000000
387.373233	387.508591	55.000000	47.000000
387.553706	387.689063	55.000000	47.000000
387.734178	388.269896	62.000000	50.000000
387.734178	388.269896	71.000000	50.000000
387.734178	388.269896	74.000000	60.000000
387.734178	387.868114	55.000000	52.000000
387.734178	387.868114	54.000000	52.000000
387.912760	388.046683	55.000000	43.000000
387.912760	388.046683	54.000000	43.000000
388.091328	388.225251	55.000000	43.000000
388.091328	388.225251	54.000000	43.000000
388.269896	388.827126	62.000000	50.000000
388.269896	388.827126	71.000000	50.000000
388.269896	388.827126	74.000000	60.000000
388.269896	388.403832	53.000000	54.000000
388.269896	388.403832	55.000000	54.000000
388.448478	388.582401	55.000000	45.000000
388.448478	388.582401	53.000000	45.000000
388.627046	388.775319	55.000000	45.000000
388.627046	388.775319	53.000000	45.000000
388.827126	389.240883	64.000000	49.000000
388.827126	389.240883	72.000000	51.000000
388.827126	389.240883	76.000000	61.000000
388.827126	388.965045	55.000000	53.000000
388.827126	388.965045	52.000000	53.000000
389.011018	389.148937	52.000000	43.000000
389.011018	389.148937	55.000000	43.000000
389.194910	389.340380	53.000000	44.000000
389.194910	389.340380	50.000000	44.000000
389.194910	389.340380	55.000000	44.000000
389.240883	389.390135	65.000000	46.000000
389.240883	389.390135	74.000000	46.000000
389.240883	389.390135	77.000000	67.000000
389.390135	389.930292	76.000000	54.000000
389.390135	389.930292	67.000000	54.000000
389.390135	389.930292	79.000000	75.000000
389.390135	389.528054	52.000000	57.000000
389.390135	389.528054	48.000000	57.000000
389.390135	389.528054	55.000000	57.000000
389.574027	389.710029	52.000000	45.000000
389.574027	389.710029	48.000000	45.000000
389.574027	389.710029	55.000000	45.000000
389.754084	389.886237	52.000000	45.000000
389.754084	389.886237	55.000000	45.000000
389.754084	389.886237	48.000000	45.000000
389.930292	390.478241	74.000000	58.000000
389.930292	390.478241	71.000000	58.000000
389.930292	390.478241	77.000000	69.000000
389.930292	390.067286	44.000000	54.000000
389.930292	390.067286	53.000000	54.000000
389.930292	390.067286	50.000000	54.000000
390.112951	390.249931	44.000000	45.000000
390.112951	390.249931	53.000000	45.000000
390.112951	390.249931	50.000000	45.000000
390.295596	390.432576	44.000000	45.000000
390.295596	390.432576	50.000000	45.000000
390.295596	390.432576	53.000000	45.000000
390.478241	391.056794	72.000000	54.000000
390.478241	391.056794	76.000000	76.000000
390.478241	390.615235	48.000000	55.000000
390.478241	390.615235	45.000000	55.000000
390.478241	390.615235	52.000000	55.000000
390.660899	390.802989	48.000000	43.000000
390.660899	390.802989	45.000000	43.000000
390.660899	390.802989	52.000000	43.000000
390.853750	391.006033	48.000000	43.000000
390.853750	391.006033	45.000000	43.000000
390.853750	391.006033	52.000000	43.000000
391.056794	391.467762	69.000000	58.000000
391.056794	391.467762	77.000000	69.000000
391.056794	391.239452	41.000000	52.000000
391.239452	391.376433	53.000000	43.000000
391.239452	391.376433	57.000000	43.000000
391.422097	391.562699	57.000000	42.000000
391.422097	391.562699	53.000000	42.000000
391.467762	391.610174	65.000000	51.000000
391.467762	391.610174	69.000000	51.000000
391.467762	391.610174	74.000000	60.000000
391.610174	392.165713	62.000000	55.000000
391.610174	392.165713	65.000000	55.000000
391.610174	392.165713	71.000000	66.000000
391.610174	391.795354	43.000000	54.000000
391.795354	391.934239	55.000000	45.000000
391.980534	392.119419	55.000000	45.000000
392.165713	392.716157	65.000000	55.000000
392.165713	392.716157	71.000000	66.000000
392.165713	392.716157	62.000000	55.000000
392.165713	392.349204	43.000000	54.000000
392.349204	392.486814	55.000000	45.000000
392.532680	392.670291	55.000000	45.000000
392.716157	393.299430	71.000000	66.000000
392.716157	393.299430	65.000000	55.000000
392.716157	393.299430	62.000000	55.000000
392.716157	392.904005	43.000000	54.000000
392.904005	393.048174	55.000000	45.000000
393.098425	393.249179	55.000000	45.000000
393.299430	393.723957	76.000000	75.000000
393.299430	393.723957	67.000000	64.000000
393.299430	393.440944	55.000000	57.000000
393.488110	393.629624	57.000000	43.000000
393.488110	393.629624	55.000000	43.000000
393.676791	393.822649	59.000000	43.000000
393.676791	393.822649	55.000000	43.000000
393.723957	393.872002	65.000000	52.000000
393.723957	393.872002	67.000000	52.000000
393.723957	393.872002	74.000000	62.000000
393.872002	395.056386	67.000000	61.000000
393.872002	395.056386	64.000000	61.000000
393.872002	395.056386	72.000000	73.000000
393.872002	394.069399	55.000000	40.000000
393.872002	394.069399	48.000000	40.000000
393.872002	394.069399	60.000000	40.000000
394.069399	394.217444	55.000000	31.000000
394.266796	394.414841	55.000000	31.000000
394.464194	394.612238	55.000000	31.000000
394.661591	394.809636	55.000000	29.000000
394.858988	395.007033	55.000000	29.000000
395.056386	395.204430	55.000000	29.000000
395.253783	395.401828	55.000000	28.000000
395.451180	395.599225	55.000000	28.000000
395.648578	396.062335	83.000000	52.000000
395.648578	395.786497	55.000000	31.000000
395.832470	395.970389	55.000000	30.000000
396.016362	396.154282	55.000000	30.000000
396.062335	396.200255	84.000000	45.000000
396.200255	396.759335	86.000000	61.000000
396.200255	396.340025	55.000000	31.000000
396.386615	396.526385	55.000000	27.000000
396.572975	396.712745	55.000000	27.000000
396.759335	397.310690	77.000000	35.000000
396.759335	397.310690	80.000000	35.000000
396.759335	397.310690	83.000000	35.000000
396.759335	397.310690	86.000000	50.000000
396.759335	396.897173	55.000000	31.000000
396.943120	397.080959	55.000000	28.000000
397.126905	397.264744	55.000000	28.000000
397.310690	397.856573	78.000000	35.000000
397.310690	397.856573	81.000000	35.000000
397.310690	397.856573	84.000000	35.000000
397.310690	397.856573	86.000000	50.000000
397.310690	397.447161	55.000000	31.000000
397.492651	397.629122	55.000000	31.000000
397.674612	397.811083	55.000000	31.000000
397.856573	398.408251	78.000000	35.000000
397.856573	398.408251	81.000000	35.000000
397.856573	398.270331	84.000000	55.000000
397.856573	397.994493	55.000000	31.000000
398.040466	398.178385	55.000000	31.000000
398.224358	398.362277	55.000000	32.000000
398.270331	398.408251	86.000000	56.000000
398.408251	400.070685	78.000000	35.000000
398.408251	400.070685	81.000000	35.000000
398.408251	399.235766	87.000000	63.000000
398.408251	399.235766	60.000000	53.000000
398.408251	398.546170	55.000000	40.000000
398.592143	398.730062	55.000000	31.000000
398.776035	398.913955	55.000000	26.000000
398.959928	399.097847	55.000000	33.000000
399.143820	399.281739	55.000000	29.000000
399.235766	399.511605	86.000000	52.000000
399.235766	399.511605	62.000000	44.000000
399.327712	399.465632	55.000000	26.000000
399.511605	400.070685	84.000000	46.000000
399.511605	400.070685	63.000000	39.000000
399.511605	399.651375	55.000000	33.000000
399.697965	399.837735	55.000000	30.000000
399.884325	400.024095	55.000000	29.000000
400.070685	400.620431	74.000000	35.000000
400.070685	400.620431	81.000000	35.000000
400.070685	400.478019	86.000000	58.000000
400.070685	400.620431	66.000000	39.000000
400.070685	400.206458	55.000000	33.000000
400.251721	400.387494	55.000000	30.000000
400.432756	400.572956	55.000000	30.000000
400.478019	400.620431	84.000000	50.000000
400.620431	401.172108	74.000000	35.000000
400.620431	401.172108	79.000000	35.000000
400.620431	401.172108	83.000000	55.000000
400.620431	401.172108	67.000000	39.000000
400.620431	400.758350	55.000000	31.000000
400.804323	400.942242	55.000000	28.000000
400.988215	401.126135	55.000000	28.000000
401.172108	401.723785	74.000000	35.000000
401.172108	401.723785	79.000000	35.000000
401.172108	401.585866	81.000000	52.000000
401.172108	401.723785	65.000000	39.000000
401.172108	401.310027	55.000000	31.000000
401.356000	401.493919	55.000000	28.000000
401.539893	401.677812	55.000000	31.000000
401.585866	401.723785	83.000000	52.000000
401.723785	402.298958	72.000000	35.000000
401.723785	402.298958	79.000000	35.000000
401.723785	402.298958	84.000000	57.000000
401.723785	402.298958	63.000000	37.000000
401.723785	401.867578	55.000000	36.000000
401.915509	402.059303	55.000000	29.000000
402.107234	402.251027	55.000000	29.000000
402.298958	402.866313	79.000000	35.000000
402.298958	402.718268	83.000000	39.000000
402.298958	402.718268	86.000000	51.000000
402.298958	402.866313	60.000000	35.000000
402.298958	402.438728	55.000000	36.000000
402.485318	402.625088	55.000000	31.000000
402.671678	402.816960	55.000000	31.000000
402.718268	402.866313	84.000000	40.000000
402.718268	402.866313	87.000000	52.000000
402.866313	404.642889	79.000000	39.000000
402.866313	404.642889	83.000000	39.000000
402.866313	404.642889	86.000000	51.000000
402.866313	404.050697	67.000000	35.000000
402.866313	403.014357	55.000000	37.000000
403.063710	403.211755	55.000000	29.000000
403.261107	403.409152	55.000000	29.000000
403.458505	403.606549	55.000000	42.000000
403.655902	403.803947	55.000000	35.000000
403.853299	404.001344	55.000000	37.000000
404.050697	404.248094	55.000000	49.000000
404.248094	404.445491	56.000000	36.000000
404.445491	404.642889	57.000000	36.000000
404.642889	405.056646	74.000000	55.000000
404.642889	404.780808	58.000000	52.000000
404.826781	404.964700	58.000000	45.000000
405.010673	405.148593	58.000000	52.000000
405.056646	405.194566	75.000000	47.000000
405.194566	405.581890	77.000000	64.000000
405.194566	405.332485	58.000000	52.000000
405.378458	405.516377	58.000000	46.000000
405.562350	405.700270	58.000000	46.000000
405.746243	406.160001	71.000000	44.000000
405.746243	406.160001	68.000000	44.000000
405.746243	406.160001	74.000000	44.000000
405.746243	406.133567	77.000000	52.000000
405.746243	405.884162	58.000000	44.000000
405.746243	405.884162	65.000000	52.000000
405.930135	406.068054	58.000000	39.000000
405.930135	406.068054	65.000000	46.000000
406.114028	406.251947	58.000000	39.000000
406.114028	406.251947	65.000000	46.000000
406.297920	406.684789	68.000000	44.000000
406.297920	406.684789	70.000000	44.000000
406.297920	406.660072	77.000000	52.000000
406.297920	406.426881	58.000000	44.000000
406.297920	406.426881	62.000000	52.000000
406.469863	406.598824	58.000000	38.000000
406.469863	406.598824	62.000000	45.000000
406.641806	406.770753	58.000000	45.000000
406.641806	406.770753	62.000000	45.000000
406.813736	407.395051	70.000000	39.000000
406.813736	407.395051	68.000000	39.000000
406.813736	406.874555	75.000000	47.000000
406.813736	406.935374	58.000000	52.000000
406.874555	406.935374	77.000000	47.000000
406.935374	407.228044	75.000000	70.000000
406.984150	407.130492	58.000000	47.000000
407.179268	407.339382	58.000000	47.000000
407.228044	407.395051	74.000000	58.000000
407.395051	407.939647	70.000000	56.000000
407.395051	407.939647	67.000000	56.000000
407.395051	408.353164	79.000000	66.000000
407.395051	407.536136	63.000000	56.000000
407.583168	407.720967	63.000000	39.000000
407.764700	407.895914	63.000000	39.000000
407.939647	408.491003	74.000000	44.000000
407.939647	408.491003	68.000000	36.000000
407.939647	408.077486	59.000000	38.000000
407.939647	408.077486	62.000000	38.000000
407.939647	408.077486	65.000000	45.000000
408.123433	408.261271	59.000000	32.000000
408.123433	408.261271	62.000000	32.000000
408.123433	408.261271	65.000000	38.000000
408.307218	408.445056	59.000000	32.000000
408.307218	408.445056	62.000000	32.000000
408.307218	408.445056	65.000000	38.000000
408.353164	408.491003	77.000000	55.000000
408.491003	409.042358	67.000000	56.000000
408.491003	409.042358	75.000000	48.000000
408.491003	408.628841	63.000000	47.000000
408.491003	408.628841	60.000000	39.000000
408.674788	408.812627	63.000000	42.000000
408.674788	408.812627	60.000000	35.000000
408.858573	408.996412	63.000000	42.000000
408.858573	408.996412	60.000000	35.000000
409.042358	409.449692	65.000000	53.000000
409.042358	409.592104	68.000000	46.000000
409.042358	409.449692	74.000000	63.000000
409.042358	409.178131	53.000000	44.000000
409.042358	409.178131	56.000000	52.000000
409.223394	409.359167	53.000000	38.000000
409.223394	409.359167	56.000000	45.000000
409.404430	409.544629	53.000000	38.000000
409.404430	409.544629	56.000000	45.000000
409.449692	409.592104	63.000000	46.000000
409.449692	409.592104	72.000000	54.000000
409.592104	410.143781	62.000000	50.000000
409.592104	410.143781	67.000000	50.000000
409.592104	410.143781	71.000000	59.000000
409.592104	409.730023	55.000000	50.000000
409.775996	409.913915	55.000000	40.000000
409.959889	410.097808	55.000000	40.000000
410.143781	410.695458	62.000000	49.000000
410.143781	410.695458	67.000000	47.000000
410.143781	410.557539	69.000000	61.000000
410.143781	410.281700	53.000000	42.000000
410.143781	410.281700	55.000000	50.000000
410.327673	410.465593	55.000000	39.000000
410.511566	410.649485	55.000000	39.000000
410.557539	410.695458	71.000000	50.000000
410.695458	411.259004	60.000000	63.000000
410.695458	411.259004	67.000000	63.000000
410.695458	411.259004	72.000000	63.000000
410.695458	410.836341	51.000000	39.000000
410.695458	410.836341	55.000000	47.000000
410.883307	411.024190	55.000000	38.000000
411.071155	411.212038	55.000000	38.000000
411.259004	411.829711	67.000000	53.000000
411.259004	411.681667	77.000000	63.000000
411.259004	411.399887	48.000000	40.000000
411.259004	411.399887	55.000000	48.000000
411.446853	411.587736	55.000000	38.000000
411.634701	411.780359	55.000000	38.000000
411.681667	411.829711	72.000000	46.000000
411.681667	411.829711	75.000000	55.000000
411.829711	413.549464	71.000000	43.000000
411.829711	413.549464	67.000000	43.000000
411.829711	413.549464	74.000000	51.000000
411.829711	411.977756	43.000000	45.000000
411.829711	411.977756	55.000000	45.000000
412.027109	412.175153	55.000000	36.000000
412.224506	412.372551	55.000000	36.000000
412.419302	412.558267	55.000000	42.000000
412.604776	412.744600	55.000000	35.000000
412.791324	412.932033	55.000000	37.000000
412.979052	413.120646	55.000000	49.000000
413.168041	413.310520	55.000000	36.000000
413.358142	413.501533	55.000000	36.000000
413.549464	413.963222	59.000000	57.000000
413.549464	413.963222	67.000000	57.000000
413.549464	413.963222	71.000000	68.000000
413.549464	413.687384	55.000000	57.000000
413.733357	413.871276	55.000000	49.000000
413.917249	414.062719	55.000000	57.000000
413.963222	414.112474	60.000000	55.000000
413.963222	414.112474	69.000000	55.000000
413.963222	414.112474	72.000000	66.000000
414.112474	414.666605	62.000000	67.000000
414.112474	414.666605	71.000000	67.000000
414.112474	414.666605	74.000000	80.000000
414.112474	414.252230	55.000000	64.000000
414.298740	414.437477	55.000000	51.000000
414.483558	414.621021	55.000000	51.000000
414.666605	415.205448	62.000000	55.000000
414.666605	415.205448	71.000000	55.000000
414.666605	415.205448	74.000000	66.000000
414.666605	414.802687	55.000000	57.000000
414.666605	414.802687	54.000000	57.000000
414.847869	414.982731	55.000000	47.000000
414.847869	414.982731	54.000000	47.000000
415.027510	415.161165	55.000000	47.000000
415.027510	415.161165	54.000000	47.000000
415.205448	415.738779	62.000000	56.000000
415.205448	415.738779	71.000000	56.000000
415.205448	415.738779	74.000000	67.000000
415.205448	415.338781	53.000000	60.000000
415.205448	415.338781	55.000000	60.000000
415.383225	415.516558	55.000000	50.000000
415.383225	415.516558	52.000000	50.000000
415.561002	415.694334	55.000000	51.000000
415.561002	415.694334	50.000000	51.000000
415.738779	416.152537	64.000000	53.000000
415.738779	416.152537	72.000000	53.000000
415.738779	416.152537	76.000000	63.000000
415.738779	415.876698	55.000000	61.000000
415.738779	415.876698	48.000000	61.000000
415.922671	416.060590	47.000000	50.000000
415.922671	416.060590	55.000000	50.000000
416.106563	416.281873	55.000000	51.000000
416.106563	416.281873	46.000000	52.000000
416.152537	416.346541	65.000000	54.000000
416.152537	416.346541	74.000000	54.000000
416.152537	416.346541	77.000000	79.000000
416.346541	417.165688	76.000000	67.000000
416.346541	417.165688	67.000000	67.000000
416.346541	417.165688	79.000000	93.000000
416.346541	416.486968	45.000000	71.000000
416.346541	416.486968	55.000000	71.000000
416.533773	416.671437	45.000000	54.000000
416.533773	416.671437	55.000000	54.000000
416.715492	416.847645	55.000000	53.000000
416.715492	416.847645	45.000000	53.000000
416.891700	417.028694	45.000000	61.000000
416.891700	417.028694	55.000000	61.000000
417.074359	417.211353	45.000000	49.000000
417.074359	417.211353	55.000000	49.000000
417.165688	417.439662	74.000000	62.000000
417.165688	417.439662	65.000000	62.000000
417.165688	417.439662	77.000000	74.000000
417.257017	417.393998	45.000000	47.000000
417.257017	417.393998	55.000000	47.000000
417.439662	418.003503	64.000000	55.000000
417.439662	418.003503	73.000000	55.000000
417.439662	418.003503	76.000000	77.000000
417.439662	417.576656	45.000000	56.000000
417.439662	417.576656	55.000000	56.000000
417.622321	417.761957	45.000000	43.000000
417.810264	417.955197	45.000000	43.000000
418.003503	418.148437	45.000000	54.000000
418.196743	418.341677	45.000000	46.000000
418.389983	418.534916	45.000000	46.000000
418.583223	420.262059	55.000000	51.000000
418.583223	420.262059	61.000000	51.000000
418.583223	419.414333	64.000000	60.000000
418.583223	418.724066	46.000000	50.000000
418.771018	418.909755	45.000000	41.000000
418.954602	419.089128	45.000000	41.000000
419.133975	419.274147	45.000000	48.000000
419.320871	419.461500	45.000000	41.000000
419.414333	419.697346	65.000000	54.000000
419.508666	419.650180	45.000000	41.000000
419.697346	420.262059	64.000000	50.000000
419.697346	419.838860	45.000000	49.000000
419.886026	420.027312	45.000000	41.000000
420.074264	420.215107	45.000000	41.000000
420.262059	420.404243	45.000000	41.000000
420.451638	420.593822	45.000000	41.000000
420.641216	420.783400	45.000000	41.000000
420.830795	421.649942	74.000000	67.000000
420.830795	421.649942	65.000000	67.000000
420.830795	421.649942	77.000000	93.000000
420.830795	420.971222	44.000000	71.000000
421.018027	421.155691	44.000000	54.000000
421.199746	421.331899	44.000000	53.000000
421.375954	421.512948	44.000000	61.000000
421.558613	421.695607	44.000000	49.000000
421.649942	421.923917	72.000000	62.000000
421.649942	421.923917	63.000000	62.000000
421.649942	421.923917	75.000000	74.000000
421.741271	421.878252	44.000000	47.000000
421.923917	422.487757	62.000000	55.000000
421.923917	422.487757	71.000000	55.000000
421.923917	422.487757	74.000000	77.000000
421.923917	422.060910	44.000000	56.000000
422.106575	422.246211	44.000000	43.000000
422.294518	422.439451	44.000000	43.000000
422.487757	422.632691	44.000000	54.000000
422.680997	422.825931	44.000000	46.000000
422.874237	423.019170	44.000000	46.000000
423.067477	424.746326	53.000000	51.000000
423.067477	424.746326	59.000000	51.000000
423.067477	423.898600	62.000000	60.000000
423.067477	423.208333	43.000000	50.000000
423.255285	423.394023	44.000000	41.000000
423.438869	423.573396	44.000000	41.000000
423.618242	423.758415	44.000000	48.000000
423.805139	423.945767	44.000000	41.000000
423.898600	424.181614	63.000000	54.000000
423.992934	424.134447	44.000000	41.000000
424.181614	424.746326	62.000000	50.000000
424.181614	424.323127	44.000000	49.000000
424.370294	424.511579	44.000000	41.000000
424.558531	424.699374	44.000000	41.000000
424.746326	424.888497	43.000000	41.000000
424.935892	425.078076	43.000000	41.000000
425.125470	425.267654	43.000000	41.000000
425.315049	427.575723	69.000000	43.000000
425.315049	426.436548	75.000000	60.000000
425.315049	425.455892	42.000000	34.000000
425.315049	426.436548	48.000000	53.000000
425.502844	425.643687	42.000000	34.000000
425.690639	425.831482	42.000000	34.000000
425.878434	426.017963	42.000000	41.000000
426.064472	426.204001	42.000000	33.000000
426.250510	426.390039	42.000000	33.000000
426.436548	426.994663	74.000000	53.000000
426.436548	426.576077	42.000000	34.000000
426.436548	426.994663	50.000000	43.000000
426.622586	426.762115	42.000000	32.000000
426.808625	426.948153	42.000000	32.000000
426.994663	427.575723	72.000000	50.000000
426.994663	427.134849	42.000000	34.000000
426.994663	427.575723	51.000000	44.000000
427.181573	427.321758	42.000000	33.000000
427.368482	427.523917	42.000000	33.000000
427.575723	428.711050	67.000000	51.000000
427.575723	427.714608	43.000000	34.000000
427.575723	428.711050	52.000000	46.000000
427.760903	427.899788	43.000000	34.000000
427.946083	428.084968	43.000000	34.000000
428.131263	428.270148	43.000000	34.000000
428.316443	428.455328	43.000000	34.000000
428.501623	428.658693	43.000000	34.000000
428.711050	428.992735	72.000000	51.000000
428.711050	429.848039	65.000000	36.000000
428.711050	428.851893	43.000000	34.000000
428.711050	429.848039	50.000000	45.000000
428.898845	429.039688	43.000000	34.000000
428.992735	429.274435	71.000000	46.000000
429.086640	429.227483	43.000000	35.000000
429.274435	429.556120	69.000000	49.000000
429.274435	429.415278	43.000000	35.000000
429.462230	429.603073	43.000000	30.000000
429.556120	429.848039	71.000000	41.000000
429.650025	429.798539	43.000000	30.000000
429.848039	433.214763	64.000000	34.000000
429.848039	433.802999	72.000000	48.000000
429.848039	429.988882	36.000000	32.000000
429.848039	433.214763	48.000000	38.000000
430.035834	430.176677	36.000000	38.000000
430.223629	430.364472	36.000000	37.000000
430.411424	430.550309	36.000000	37.000000
430.596604	430.735488	36.000000	36.000000
430.781783	430.920668	36.000000	35.000000
430.966963	431.107149	36.000000	35.000000
431.153873	431.294059	36.000000	34.000000
431.340783	431.480969	36.000000	34.000000
431.527693	431.668536	36.000000	33.000000
431.715488	431.856331	36.000000	33.000000
431.903283	432.044126	36.000000	32.000000
432.091078	432.229963	36.000000	31.000000
432.276258	432.415142	36.000000	31.000000
432.461437	432.600322	36.000000	30.000000
432.646617	432.786146	36.000000	30.000000
432.832655	432.972184	36.000000	29.000000
433.018694	433.165746	36.000000	28.000000
433.214763	433.802999	36.000000	34.000000
433.802999	434.216757	71.000000	37.000000
434.216757	434.354676	72.000000	32.000000
434.354676	434.750892	74.000000	43.000000
434.919013	435.312708	74.000000	35.000000
434.919013	436.022756	67.000000	29.000000
434.919013	436.022756	55.000000	24.000000
435.479769	435.860992	74.000000	35.000000
436.022756	436.298595	72.000000	39.000000
436.298595	436.589856	71.000000	39.000000
436.589856	437.408038	75.000000	45.000000
437.135310	438.250520	55.000000	24.000000
437.135310	437.953492	67.000000	29.000000
437.408038	437.680765	74.000000	37.000000
437.680765	437.953492	72.000000	33.000000
437.953492	438.250520	67.000000	33.000000
438.250520	438.527016	72.000000	35.000000
438.250520	438.527016	60.000000	29.000000
438.527016	438.818277	74.000000	40.000000
438.527016	438.818277	62.000000	35.000000
438.818277	439.381662	75.000000	45.000000
438.818277	439.381662	63.000000	40.000000
439.381662	439.667371	74.000000	45.000000
439.381662	439.667371	62.000000	33.000000
439.667371	439.953080	72.000000	42.000000
439.667371	439.953080	60.000000	30.000000
439.953080	440.398622	67.000000	46.000000
439.953080	440.398622	64.000000	33.000000
439.953080	440.398622	55.000000	28.000000
440.547136	441.015893	71.000000	38.000000
440.547136	441.015893	65.000000	32.000000
440.547136	441.015893	62.000000	30.000000
440.547136	441.015893	55.000000	25.000000
441.172145	443.047144	64.000000	36.000000
441.172145	443.047144	72.000000	43.000000
441.172145	443.047144	48.000000	24.000000
441.172145	443.047144	55.000000	27.000000
441.172145	443.047144	60.000000	33.000000
443.047144	443.460902	59.000000	33.000000
443.460902	443.598821	60.000000	28.000000
443.598821	443.995038	62.000000	38.000000
444.163159	445.269825	67.000000	29.000000
444.163159	445.269825	79.000000	37.000000
444.163159	444.556853	62.000000	31.000000
444.723915	445.107189	62.000000	31.000000
445.269825	445.691295	60.000000	35.000000
445.691295	445.836925	62.000000	35.000000
445.836925	446.655107	63.000000	40.000000
446.382380	447.497589	67.000000	29.000000
446.382380	447.497589	79.000000	36.000000
446.655107	446.927834	62.000000	33.000000
446.927834	447.200561	60.000000	29.000000
447.200561	447.497589	55.000000	29.000000
447.497589	447.774085	75.000000	35.000000
447.497589	447.774085	60.000000	29.000000
447.774085	448.065346	77.000000	40.000000
447.774085	448.065346	62.000000	35.000000
448.065346	448.347032	79.000000	45.000000
448.065346	448.628718	63.000000	40.000000
448.347032	448.628718	75.000000	40.000000
448.628718	448.914427	71.000000	45.000000
448.628718	448.914427	62.000000	33.000000
448.914427	449.200136	72.000000	42.000000
448.914427	449.200136	60.000000	30.000000
449.200136	449.645678	67.000000	46.000000
449.200136	449.645678	64.000000	33.000000
449.200136	449.645678	55.000000	28.000000
449.794192	450.262948	71.000000	38.000000
449.794192	450.262948	65.000000	32.000000
449.794192	450.262948	62.000000	30.000000
449.794192	450.262948	55.000000	25.000000
450.419201	451.669205	64.000000	36.000000
450.419201	451.669205	72.000000	43.000000
450.419201	451.669205	48.000000	25.000000
450.419201	451.669205	55.000000	25.000000
450.419201	451.669205	60.000000	30.000000
451.669205	452.114747	67.000000	46.000000
451.669205	452.114747	64.000000	33.000000
451.669205	452.114747	55.000000	28.000000
452.263261	452.732017	71.000000	38.000000
452.263261	452.732017	65.000000	32.000000
452.263261	452.732017	62.000000	30.000000
452.263261	452.732017	55.000000	25.000000
452.888269	454.138274	64.000000	36.000000
452.888269	454.138274	72.000000	43.000000
452.888269	454.138274	48.000000	25.000000
452.888269	454.138274	55.000000	25.000000
452.888269	454.138274	60.000000	30.000000
454.138274	454.732330	55.000000	48.000000
454.138274	454.732330	52.000000	34.000000
454.138274	454.732330	43.000000	29.000000
454.732330	455.380982	59.000000	41.000000
454.732330	455.380982	53.000000	34.000000
454.732330	455.380982	50.000000	32.000000
454.732330	455.380982	43.000000	27.000000
455.380982	456.760296	52.000000	40.000000
455.380982	456.760296	60.000000	48.000000
455.380982	456.760296	36.000000	29.000000
455.380982	456.760296	43.000000	29.000000
455.380982	456.760296	48.000000	36.000000
456.760296	458.279285	55.000000	38.000000
456.760296	458.279285	52.000000	38.000000
456.760296	458.279285	60.000000	46.000000
456.760296	458.279285	36.000000	28.000000
456.760296	458.279285	43.000000	28.000000
456.760296	458.279285	48.000000	34.000000
458.279285	461.943413	55.000000	38.000000
458.279285	461.943413	52.000000	38.000000
458.279285	461.943413	60.000000	46.000000
458.279285	461.943413	36.000000	28.000000
458.279285	461.943413	43.000000	28.000000
458.279285	461.943413	48.000000	34.000000
