OnsetTime	OffsetTime	MidiPitch	Velocity
0.500004	0.660012	50	47
0.607923	0.729467	74	57
0.7121	0.833645	76	57
0.816277	0.937822	78	57
0.920454	1.07672	62	40
0.920454	1.02463	69	60
1.02463	1.14618	78	57
1.12881	1.25035	76	57
1.23299	1.35453	74	57
1.33716	1.49343	54	45
1.33716	1.44134	81	62
1.44134	1.56288	74	58
1.54552	1.66706	76	58
1.64969	1.77124	78	58
1.75387	1.91014	62	40
1.75387	1.85805	69	61
1.85805	1.97959	78	57
1.96222	2.08377	76	57
2.0664	2.18795	74	57
2.17058	2.32684	52	46
2.17058	2.27476	79	60
2.27476	2.3963	76	58
2.37893	2.50048	78	58
2.48311	2.60465	79	58
2.58729	2.74361	62	42
2.58729	2.69146	71	60
2.69146	2.81329	74	58
2.79587	2.918	73	58
2.90052	3.02321	71	58
3.00548	3.16395	57	45
3.00548	3.11186	73	61
3.11186	3.23341	76	58
3.21604	3.33758	78	58
3.32021	3.44176	79	58
3.42439	3.57993	61	41
3.42439	3.52857	69	60
3.52857	3.64842	79	58
3.6313	3.75177	78	58
3.73404	3.85778	76	58
3.84042	3.99668	50	45
3.84042	3.94459	78	62
3.94459	4.06614	74	57
4.04877	4.17031	76	56
4.15295	4.27449	78	56
4.25712	4.41356	62	40
4.25712	4.3613	69	61
4.3613	4.48307	73	56
4.46571	4.58689	71	56
4.56964	4.69015	69	56
4.67297	4.82701	50	44
4.67297	4.77582	71	62
4.77582	4.89526	74	56
4.8782	4.99764	76	56
4.98058	5.10038	78	56
5.08296	5.23868	62	42
5.08296	5.18749	71	61
5.18749	5.30693	81	56
5.28987	5.40931	80	56
5.39225	5.51229	78	56
5.49463	5.65206	50	45
5.49463	5.60063	80	61
5.60063	5.72031	76	56
5.70325	5.82269	78	56
5.80563	5.92526	80	56
5.90813	6.06224	56	42
5.90813	6.01087	71	60
6.01087	6.13078	74	56
6.1136	6.23387	73	56
6.21669	6.33696	71	56
6.31978	6.47612	49	45
6.31978	6.42312	69	60
6.42312	6.54678	73	56
6.52912	6.65278	74	56
6.63512	6.75878	76	56
6.74112	6.89885	57	42
6.74112	6.84712	66	60
6.84712	6.96782	76	56
6.95057	7.07176	74	56
7.05403	7.17777	73	56
7.1604	7.31667	47	46
7.1604	7.26458	74	60
7.26458	7.38612	71	56
7.36876	7.4903	73	56
7.47293	7.59448	74	56
7.57711	7.73343	57	39
7.57711	7.68129	66	60
7.68129	7.80311	69	55
7.78569	7.90783	68	55
7.89034	8.01278	66	54
7.99524	8.15313	52	44
7.99524	8.1005	68	59
8.1005	8.2233	71	54
8.20575	8.32856	73	54
8.31102	8.43382	74	54
8.41628	8.57327	56	38
8.41628	8.52154	64	59
8.52154	8.64224	74	53
8.625	8.7457	73	53
8.72845	8.84977	71	53
8.8319	8.99096	45	42
8.8319	8.93906	73	57
8.93906	9.06016	69	54
9.04286	9.16396	71	54
9.14666	9.26776	73	54
9.25046	9.40671	57	39
9.25046	9.35426	64	56
9.35426	9.47665	67	53
9.45916	9.58155	66	53
9.56407	9.68615	64	53
9.66897	9.82361	45	41
9.66897	9.77206	66	55
9.77206	9.89234	69	53
9.87516	9.99543	71	52
9.97825	10.0985	73	52
10.0813	10.2372	57	36
10.0813	10.1844	66	55
10.1844	10.3077	76	51
10.2901	10.4133	75	51
10.3957	10.5189	73	51
10.5013	10.6589	45	39
10.5013	10.607	75	54
10.607	10.7281	71	51
10.7108	10.8319	73	51
10.8146	10.9357	75	51
10.9184	11.0741	51	36
10.9184	11.0222	66	54
11.0222	11.1433	69	52
11.126	11.2471	67	52
11.2298	11.3508	66	52
11.3336	11.4885	43	41
11.3336	11.437	64	55
11.437	11.5571	67	53
11.54	11.6596	69	53
11.6425	11.7616	71	53
11.7447	11.8976	52	38
11.7447	11.8464	61	57
11.8464	11.9658	74	54
11.9488	12.0682	73	54
12.0511	12.1706	71	54
12.1535	12.308	42	44
12.1535	12.2559	70	57
12.2559	12.3775	64	55
12.3601	12.4816	66	55
12.4643	12.5858	67	55
12.5684	12.7245	54	39
12.5684	12.6726	61	59
12.6726	12.7937	67	55
12.7764	12.8972	66	56
12.8799	13.0003	64	56
12.9831	13.1372	42	46
12.9831	13.086	62	61
13.086	13.2054	71	57
13.1884	13.3078	73	57
13.2907	13.4102	74	57
13.3931	13.5467	54	41
13.3931	13.4955	66	62
13.4955	13.6149	69	58
13.5979	13.7173	68	58
13.7003	13.8197	66	58
13.8026	13.9571	42	46
13.8026	13.905	65	63
13.905	14.0266	68	58
14.0092	14.1307	69	59
14.1134	14.2349	71	59
14.2176	14.3738	54	42
14.2176	14.3217	65	63
14.3217	14.4433	74	59
14.4259	14.5475	73	59
14.5301	14.6516	71	60
14.6343	14.7895	42	47
14.6343	14.7384	80	63
14.7384	14.8575	77	60
14.8405	14.9595	78	60
14.9425	15.0622	80	60
15.0446	15.2032	54	42
15.0446	15.1506	73	65
15.1506	15.2734	83	61
15.2558	15.3786	81	62
15.3611	15.4839	80	62
15.4663	15.6226	42	49
15.4663	15.5716	81	67
15.5716	15.6906	78	62
15.6736	15.7927	80	62
15.7757	15.8947	81	62
15.8777	16.0308	54	44
15.8777	15.9798	73	67
15.9798	16.0987	76	62
16.0818	16.2004	75	62
16.1835	16.3021	73	62
16.2852	16.4372	47	49
16.2852	16.3866	75	67
16.3866	16.5047	78	62
16.4879	16.6058	79	62
16.5889	16.7075	81	62
16.6899	16.8469	51	45
16.6899	16.7959	71	67
16.7959	16.9151	81	62
16.898	17.018	79	62
17.0008	17.1216	78	62
17.1043	17.2603	40	48
17.1043	17.2084	79	67
17.2084	17.3295	76	62
17.3122	17.4333	78	62
17.416	17.5371	79	62
17.5198	17.6756	52	45
17.5198	17.6236	71	66
17.6236	17.7451	74	62
17.7277	17.8494	72	62
17.832	17.9541	71	62
17.9366	18.093	40	48
17.9366	18.0415	72	66
18.0415	18.1618	75	62
18.1446	18.2649	76	62
18.2477	18.368	78	62
18.3508	18.5061	51	48
18.3508	18.4539	69	66
18.4539	18.5758	72	62
18.5584	18.6803	71	62
18.6629	18.7851	69	62
18.7674	18.9259	40	48
18.7674	18.8731	67	66
18.8731	18.9963	76	62
18.9787	19.102	78	62
19.0843	19.2076	79	61
19.19	19.3475	52	45
19.19	19.2956	71	66
19.2956	19.4167	74	62
19.3994	19.5205	73	62
19.5032	19.6243	71	62
19.607	19.7631	45	48
19.607	19.7108	73	66
19.7108	19.8328	76	62
19.8154	19.9373	78	62
19.9199	20.0418	79	62
20.0244	20.1803	49	45
20.0244	20.1289	69	64
20.1289	20.2488	79	62
20.2317	20.3515	78	62
20.3344	20.4542	76	62
20.4371	20.5908	38	48
20.4371	20.5395	78	67
20.5395	20.6593	74	62
20.6421	20.7622	76	62
20.745	20.8654	78	62
20.8482	21.0035	50	44
20.8482	20.9516	69	65
20.9516	21.0727	72	61
21.0554	21.1765	71	60
21.1592	21.2803	69	60
21.263	21.4182	38	47
21.263	21.3668	71	65
21.3668	21.4867	67	59
21.4695	21.5894	69	59
21.5723	21.6925	71	59
21.675	21.8315	50	40
21.675	21.7799	61	64
21.7799	21.9002	71	58
21.883	22.0033	69	58
21.9861	22.1064	67	58
22.0892	22.2444	38	45
22.0892	22.1923	66	63
22.1923	22.3138	62	57
22.2965	22.418	64	57
22.4007	22.5222	66	57
22.5048	22.6602	50	41
22.5048	22.609	57	62
22.609	22.7285	60	57
22.7114	22.8308	59	56
22.8138	22.9332	57	56
22.9162	23.0697	38	44
22.9162	23.0185	59	61
23.0185	23.138	62	56
23.1209	23.2404	64	56
23.2233	23.3427	66	55
23.3257	23.4805	50	38
23.3257	23.4281	59	60
23.4281	23.5504	69	54
23.533	23.6553	68	54
23.6379	23.7602	66	54
23.7428	23.8997	38	42
23.7428	23.8477	68	58
23.8477	23.9692	64	54
23.9518	24.0734	66	53
24.056	24.1774	68	53
24.1601	24.3158	56	38
24.1601	24.2639	59	57
24.2639	24.385	62	53
24.3677	24.4885	60	53
24.4713	24.592	59	52
24.5747	24.7297	48	41
24.5747	24.6781	57	56
24.6781	24.7984	60	52
24.7812	24.9015	62	52
24.8843	25.0046	64	52
24.9874	25.143	54	37
24.9874	25.0905	57	55
25.0905	25.2129	67	51
25.1954	25.3178	66	50
25.3003	25.4227	64	50
25.4052	25.5617	47	40
25.4052	25.5101	63	54
25.5101	25.6304	57	50
25.6132	25.7335	59	50
25.7163	25.8366	60	50
25.8194	25.974	51	37
25.8194	25.9225	57	54
25.9225	26.0428	60	50
26.0256	26.1459	59	50
26.1287	26.249	57	50
26.2318	26.3875	52	41
26.2318	26.3349	55	54
26.3349	26.4577	64	50
26.4401	26.5629	66	50
26.5454	26.6682	67	50
26.6506	26.8075	55	36
26.6506	26.7559	59	54
26.7559	26.8763	62	50
26.859	26.9798	61	50
26.9625	27.0836	59	50
27.0663	27.2219	47	41
27.0663	27.1705	58	54
27.1705	27.2904	61	50
27.2732	27.3931	62	50
27.376	27.4958	64	50
27.4787	27.6328	52	37
27.4787	27.5815	58	54
27.5815	27.7013	67	50
27.6842	27.8041	66	50
27.7869	27.9068	64	51
27.8897	28.0438	55	42
27.8897	27.9924	73	55
27.9924	28.1123	70	51
28.0951	28.215	71	52
28.1979	28.3177	73	52
28.3006	28.4558	58	37
28.3006	28.4034	66	55
28.4034	28.5258	76	52
28.5083	28.6307	74	52
28.6132	28.7356	73	52
28.7181	28.8745	47	43
28.7181	28.823	74	57
28.823	28.9433	71	53
28.9261	29.0463	73	53
29.0292	29.1494	74	53
29.1323	29.2869	59	38
29.1323	29.2353	66	58
29.2353	29.3556	69	53
29.3385	29.4587	68	53
29.4415	29.5618	66	54
29.5446	29.6992	52	44
29.5446	29.6477	68	59
29.6477	29.7676	71	54
29.7506	29.8699	72	54
29.8528	29.9719	74	54
29.9546	30.1107	56	39
29.9546	30.0584	64	59
30.0584	30.1804	74	55
30.163	30.2849	72	55
30.2675	30.3894	71	55
30.372	30.5281	45	46
30.372	30.4766	72	61
30.4766	30.5968	69	55
30.5797	30.6999	71	54
30.6827	30.803	72	53
30.7858	30.9402	57	40
30.7858	30.8889	64	59
30.8889	31.0086	67	52
30.9916	31.1109	66	52
31.0939	31.2128	64	51
31.1959	31.3489	50	43
31.1959	31.2977	66	56
31.2977	31.4174	69	50
31.4002	31.5206	71	50
31.5033	31.6244	72	49
31.6071	31.7633	54	36
31.6071	31.7112	62	54
31.7112	31.8328	72	48
31.8154	31.937	71	47
31.9196	32.0411	69	47
32.0238	32.1793	43	39
32.0238	32.1279	71	51
32.1279	32.2478	67	46
32.2307	32.3505	69	46
32.3334	32.4537	71	46
32.4362	32.5946	55	34
32.4362	32.5414	62	51
32.5414	32.6655	71	46
32.6478	32.7719	69	46
32.7542	32.8766	67	46
32.8591	33.0158	47	39
32.8591	32.964	74	51
32.964	33.0847	67	46
33.0675	33.1883	69	46
33.171	33.2922	71	46
33.2749	33.4319	55	35
33.2749	33.3791	62	51
33.3791	33.5023	71	46
33.4847	33.608	69	46
33.5904	33.7136	67	46
33.696	33.8535	45	39
33.696	33.8014	72	51
33.8014	33.9229	69	48
33.9056	34.0271	71	48
34.0097	34.1313	72	48
34.1139	34.2702	55	34
34.1139	34.2181	64	51
34.2181	34.3396	67	48
34.3223	34.4438	66	48
34.4264	34.548	64	48
34.5306	34.6863	50	39
34.5306	34.6348	66	51
34.6348	34.7551	69	48
34.7379	34.8582	71	48
34.841	34.9613	72	48
34.9441	35.0996	54	34
34.9441	35.0472	62	51
35.0472	35.1696	72	48
35.1521	35.2745	71	48
35.257	35.3794	69	48
35.3619	35.5187	43	39
35.3619	35.4668	71	51
35.4668	35.5879	67	48
35.5706	35.6917	69	48
35.6744	35.7955	71	48
35.7782	35.9339	55	34
35.7782	35.882	62	51
35.882	36.0031	66	48
35.9858	36.1069	64	48
36.0896	36.2106	62	48
36.1934	36.3486	43	39
36.1934	36.2968	64	51
36.2968	36.4173	67	48
36.4001	36.5203	69	48
36.5032	36.623	71	48
36.6059	36.7595	55	34
36.6059	36.7083	64	51
36.7083	36.8278	74	48
36.8107	36.9302	73	48
36.9131	37.0325	71	48
37.0155	37.1691	43	39
37.0155	37.1179	73	51
37.1179	37.2373	69	48
37.2202	37.3397	71	48
37.3226	37.4421	73	48
37.425	37.5786	49	34
37.425	37.5274	64	51
37.5274	37.6468	67	49
37.6298	37.7492	66	49
37.7321	37.8515	64	49
37.8345	37.9877	42	39
37.8345	37.9366	62	52
37.9366	38.0559	66	49
38.0388	38.1585	67	49
38.1413	38.2613	69	49
38.2441	38.3996	50	34
38.2441	38.3472	59	53
38.3472	38.4696	69	49
38.4521	38.5745	67	49
38.557	38.6794	66	49
38.6619	38.8192	40	40
38.6619	38.7668	67	53
38.7668	38.8892	64	49
38.8717	38.9941	66	49
38.9766	39.099	67	49
39.0815	39.2383	50	35
39.0815	39.1864	59	54
39.1864	39.3075	62	49
39.2902	39.4113	61	50
39.394	39.5151	59	50
39.4978	39.6535	45	42
39.4978	39.6016	61	54
39.6016	39.7227	64	50
39.7054	39.8265	66	50
39.8092	39.9303	67	50
39.913	40.0693	49	36
39.913	40.0168	57	55
40.0168	40.1392	67	50
40.1217	40.2441	66	51
40.2266	40.349	64	51
40.3315	40.4883	38	43
40.3315	40.4364	66	55
40.4364	40.5575	62	51
40.5402	40.6613	64	51
40.644	40.7651	66	52
40.7478	40.903	50	38
40.7478	40.8513	57	56
40.8513	40.9717	66	52
40.9545	41.0748	64	52
41.0576	41.1775	62	52
41.1604	41.3141	42	44
41.1604	41.2629	69	57
41.2629	41.3823	66	52
41.3653	41.4847	67	52
41.4676	41.5871	69	53
41.57	41.7249	57	39
41.57	41.6724	62	57
41.6724	41.7948	72	53
41.7773	41.8997	71	53
41.8822	42.0046	69	53
41.9871	42.1437	43	45
41.9871	42.092	71	58
42.092	42.2127	67	53
42.1955	42.3162	69	53
42.2989	42.4196	71	53
42.4024	42.5572	55	40
42.4024	42.5058	62	58
42.5058	42.6257	71	54
42.6086	42.7284	69	54
42.7113	42.8312	67	54
42.814	42.9681	47	46
42.814	42.9168	74	59
42.9168	43.0366	71	54
43.0195	43.1394	73	54
43.1223	43.242	74	54
43.225	43.3793	62	41
43.225	43.327	68	60
43.327	43.449	77	55
43.4316	43.5535	76	55
43.5361	43.658	74	55
43.6406	48.64	45	47
43.6406	43.7451	73	60
43.7451	43.8671	69	56
43.8497	43.9716	71	56
43.9542	44.0761	73	56
44.0587	44.215	55	41
44.0587	44.1632	64	60
44.1632	44.2839	67	56
44.2667	44.3874	66	56
44.3701	44.4908	64	56
44.4736	44.6297	54	47
44.4736	44.5771	69	60
44.5771	44.6998	74	56
44.6823	44.8051	76	56
44.7876	44.9104	78	56
44.8928	45.0496	50	41
44.8928	44.9981	71	61
44.9981	45.1184	81	56
45.1012	45.2215	79	56
45.2043	45.3246	78	56
45.3074	45.4633	52	47
45.3074	45.4105	79	61
45.4105	45.5337	73	56
45.5161	45.6393	74	56
45.6217	45.745	76	56
45.7274	45.8844	49	41
45.7274	45.833	69	61
45.833	45.9529	79	56
45.9357	46.0556	78	56
46.0385	46.1584	76	56
46.1412	46.2962	50	47
46.1412	46.244	78	61
46.244	46.3659	71	56
46.3485	46.4704	73	56
46.453	46.575	74	56
46.5575	46.7142	47	41
46.5575	46.6621	68	61
46.6621	46.7836	78	56
46.7662	46.8878	76	56
46.8704	46.992	74	56
46.9746	47.0788	73	60
47.0788	47.2003	52	51
47.0788	47.2003	67	56
47.1829	47.3045	54	50
47.1829	47.3045	69	56
47.2871	47.4087	55	50
47.2871	47.4087	70	56
47.3913	47.4955	49	54
47.3913	47.4955	64	60
47.4955	47.617	52	50
47.4955	47.617	67	56
47.5996	47.7212	50	50
47.5996	47.7212	65	56
47.7038	47.8254	49	50
47.7038	47.8254	64	56
47.808	47.9122	50	54
47.808	47.9122	65	60
47.9122	48.0346	53	51
47.9122	48.0346	74	56
48.0171	48.1395	55	53
48.0171	48.1395	76	62
48.122	48.2444	57	53
48.122	48.2444	77	58
48.2269	48.3318	52	54
48.2269	48.3318	73	60
48.3318	48.4516	55	50
48.3318	48.4516	76	56
48.4345	48.5544	53	50
48.4345	48.5544	74	56
48.5373	48.6575	52	50
48.5373	48.6575	73	56
48.64	48.7449	53	55
48.64	48.7449	74	60
48.7449	48.8648	50	50
48.7449	48.8648	82	66
48.8476	48.9675	52	50
48.8476	48.9675	81	65
48.9503	49.0713	53	50
48.9503	49.0713	79	64
49.054	49.1587	45	51
49.054	49.1587	77	62
49.1587	49.2822	48	52
49.1587	49.2822	76	61
49.2645	49.3894	46	54
49.2645	49.3894	74	60
49.3715	49.497	45	56
49.3715	49.497	73	58
49.4796	51.9598	44	58
49.4796	49.5841	74	60
49.5841	49.7048	77	62
49.6875	49.8082	76	61
49.791	49.9117	74	60
49.8944	49.9979	83	65
49.9979	50.1178	80	61
50.1006	50.2205	81	63
50.2034	50.3232	83	66
50.3061	50.4089	77	68
50.4089	50.5287	74	61
50.5116	50.6315	76	61
50.6143	50.7342	77	61
50.7171	50.8198	71	65
50.8198	50.9397	68	59
50.9226	51.0424	69	59
51.0253	51.1451	71	59
51.1281	51.2305	64	61
51.2305	51.3505	66	55
51.3334	51.4539	68	57
51.4366	51.5577	69	59
51.5403	51.662	71	60
51.6446	51.7667	73	62
51.7492	51.8718	74	64
51.8543	51.978	76	65
51.9598	53.854	45	60
51.9598	52.6234	77	71
52.0689	52.178	73	57
52.178	52.3962	57	50
52.178	52.2871	74	57
52.2871	52.3962	69	57
52.3962	52.6234	55	50
52.3962	52.5098	70	57
52.5098	52.6234	67	57
52.6234	52.8526	49	50
52.6234	53.0861	76	71
52.7376	52.8526	67	57
52.8526	53.0861	53	55
52.8526	52.9687	69	57
52.9687	53.0861	65	57
53.0861	53.3252	50	50
53.0861	53.5721	74	71
53.2049	53.3252	65	56
53.3252	53.5721	52	53
53.3252	53.4474	67	57
53.4474	53.5721	64	57
53.5721	53.854	55	50
53.5721	53.854	73	69
53.715	53.854	64	56
53.854	54.6874	45	44
53.9061	54.6874	50	45
53.9582	54.6874	53	48
54.0102	54.6874	56	49
54.0623	54.6874	59	52
54.1144	54.6874	62	52
54.1665	54.6874	65	57
54.2186	54.6874	68	60
54.2707	54.6874	71	64
54.3228	54.7693	74	68
54.7693	54.8513	73	53
54.8513	54.9333	71	53
54.9333	55.0149	69	52
55.0149	55.0965	68	52
55.0965	55.1775	66	51
55.1775	55.2583	64	51
55.2583	55.3388	66	50
55.3388	55.4188	68	47
55.4188	55.498	69	48
55.498	55.5767	71	49
55.5767	55.6547	73	50
55.6547	55.7321	74	51
55.7321	55.8089	76	51
55.8089	55.8852	77	52
55.8852	55.9608	76	53
55.9608	56.0358	74	54
56.0358	56.1108	73	53
56.1108	56.1858	71	52
56.1858	56.2608	69	52
56.2608	56.3358	68	51
56.3358	56.4108	66	51
56.4108	56.4857	64	50
56.4857	56.5607	62	49
56.5607	56.9775	61	58
56.6128	56.9775	64	58
56.6649	56.9775	67	58
56.717	56.9775	70	58
56.7691	56.9775	73	58
56.8212	56.9775	76	58
56.8733	56.9775	79	58
56.9254	56.9775	82	58
57.3941	57.8108	62	62
57.4462	57.8108	65	62
57.4983	57.8108	68	62
57.5504	57.8108	71	62
57.6025	57.8108	74	63
57.6546	57.8108	77	63
57.7067	57.8108	80	63
57.7587	57.8108	83	63
58.2275	59.7985	45	57
58.2275	58.9822	52	68
58.2275	59.7985	57	68
58.2275	59.7985	64	58
58.2275	59.7985	69	58
58.2275	58.9822	74	69
58.9822	59.7985	55	63
58.9822	59.7985	73	65
59.7985	62.2475	50	57
59.7985	62.2475	54	57
59.7985	62.2475	57	68
59.7985	62.2475	66	60
59.7985	62.2475	69	60
59.7985	62.2475	74	71
65.2475	65.3725	50	66
65.3725	65.4975	52	66
65.4975	65.6225	54	66
65.6225	65.7475	55	66
65.7475	65.8725	54	66
65.8725	65.9976	52	66
65.9976	66.1226	54	66
66.1226	66.2476	50	66
66.2476	66.9976	59	71
66.9976	67.2476	59	67
67.2476	67.9976	57	72
67.9976	68.2476	55	66
68.2476	68.9976	54	67
68.9976	69.2475	55	61
69.2475	69.9976	54	60
69.2475	69.3726	57	66
69.3726	69.4976	59	66
69.4976	69.6226	61	66
69.6226	69.7476	62	66
69.7476	69.8726	61	66
69.8726	69.9976	59	66
69.9976	70.2476	52	57
69.9976	70.1226	61	66
70.1226	70.2476	57	66
70.2476	71.2476	50	60
70.2476	70.9976	66	71
70.9976	71.2476	66	66
71.2476	72.2476	52	56
71.2476	71.9976	64	71
71.9976	72.2476	62	66
72.2476	72.9976	45	62
72.2476	73.2476	61	73
72.9976	73.0809	52	56
73.0809	73.1642	54	56
73.1642	73.2476	55	56
73.2476	75.2476	57	63
73.2476	73.9976	66	72
73.9976	74.2476	66	68
74.2476	74.9976	59	73
74.9976	75.0809	59	67
75.0809	75.1642	61	67
75.1642	75.2476	62	67
75.2476	76.9976	55	56
75.2476	75.4976	64	71
75.4976	75.7476	62	67
75.7476	75.9976	64	72
75.9976	76.2476	61	67
76.2476	77.2476	57	73
76.9976	77.1226	54	54
77.1226	77.2476	52	54
77.2476	77.9976	54	59
77.2476	78.1226	62	68
77.3726	77.4976	64	68
77.4976	77.6226	66	68
77.6226	77.7476	67	68
77.7476	77.8726	66	68
77.8726	77.9976	64	68
77.9976	78.2476	54	56
77.9976	78.1226	66	68
78.1226	79.2476	62	68
78.2476	78.9976	55	60
78.2476	78.9976	71	73
78.9976	79.2476	52	56
78.9976	79.2476	71	68
79.2476	79.9976	57	60
79.2476	80.2476	61	58
79.2476	79.9976	69	72
79.9976	80.2476	45	56
79.9976	80.2476	67	69
80.2476	80.9976	50	60
80.2476	81.2476	62	63
80.2476	80.9976	66	73
80.9976	81.2476	52	56
80.9976	81.2476	68	68
81.2476	81.9976	54	60
81.2476	82.2476	61	63
81.2476	82.1226	69	71
81.3726	81.4976	71	71
81.4976	81.6226	73	71
81.6226	81.7476	74	71
81.7476	81.8726	73	71
81.8726	81.9976	71	71
81.9976	82.2476	52	56
81.9976	82.1226	73	71
82.1226	83.2476	69	71
82.2476	82.9976	54	60
82.2476	84.2476	59	63
82.2476	82.9976	78	75
82.9976	83.2476	50	56
82.9976	83.2476	78	71
83.2476	84.2476	52	62
83.2476	84.2476	68	67
83.2476	83.9976	76	76
83.9976	84.2476	74	71
84.2476	85.2476	45	63
84.2476	85.2476	57	63
84.2476	85.2476	69	72
84.2476	84.9976	73	75
84.9976	85.081	76	69
85.081	85.1643	78	69
85.1643	85.2476	79	69
85.2476	85.3726	66	71
85.2476	86.2477	73	65
85.2476	85.9977	81	76
85.3726	85.4976	67	71
85.4976	85.6226	69	71
85.6226	85.7476	71	71
85.7476	85.8727	69	71
85.8727	85.9977	67	71
85.9977	86.1227	69	71
85.9977	86.2477	81	72
86.1227	86.2477	66	71
86.2477	87.2477	71	78
86.2477	86.9977	74	65
86.2477	86.9977	81	76
86.9977	87.2477	74	70
87.081	87.1643	76	70
87.1643	87.2477	78	70
87.2477	87.3727	64	71
87.2477	88.2477	74	65
87.2477	87.9977	79	74
87.3727	87.4977	66	71
87.4977	87.6227	67	71
87.6227	87.7477	69	71
87.7477	87.8727	67	71
87.8727	87.9977	66	71
87.9977	88.1227	67	71
87.9977	88.2477	79	70
88.1227	88.2477	64	71
88.2477	89.2477	69	77
88.2477	88.9977	73	66
88.2477	89.2477	79	73
88.9977	89.081	76	72
89.081	89.1644	74	72
89.1644	89.2477	73	72
89.2477	89.3727	38	66
89.2477	89.9977	69	60
89.2477	89.9977	74	77
89.2477	89.9977	78	74
89.3727	89.4977	40	66
89.4977	89.6227	42	66
89.6227	89.7477	43	66
89.7477	89.8727	42	66
89.8727	89.9977	40	66
89.9977	90.1228	42	66
89.9977	90.2478	67	57
89.9977	90.2478	73	69
89.9977	90.2478	76	69
90.1228	90.2478	38	66
90.2478	90.9978	47	72
90.2478	90.9978	66	60
90.2478	91.2478	71	74
90.2478	90.9978	74	74
90.9978	91.2478	47	66
90.9978	91.2478	67	57
90.9978	91.2478	76	71
91.2478	91.9978	45	71
91.2478	92.2477	64	60
91.2478	92.2477	69	65
91.2478	91.9978	73	75
91.9978	92.2477	43	66
91.9978	92.2477	73	73
92.2477	92.9977	42	72
92.2477	93.2478	62	64
92.2477	93.2478	69	65
92.2477	93.2478	73	73
92.9977	93.0811	50	66
93.0811	93.1644	52	66
93.1644	93.2478	54	66
93.2478	93.9978	55	72
93.2478	94.2478	62	60
93.2478	94.1228	71	73
93.3728	93.4978	73	73
93.4978	93.6228	74	73
93.6228	93.7478	76	73
93.7478	93.8728	74	73
93.8728	93.9978	73	73
93.9978	94.2478	54	66
93.9978	94.1228	74	73
94.1228	95.2478	71	70
94.2478	94.9978	55	72
94.2478	96.2478	61	60
94.2478	94.9978	79	78
94.9978	95.2478	52	66
94.9978	95.2478	79	73
95.2478	96.2478	54	71
95.2478	96.2478	70	61
95.2478	95.9978	78	76
95.9978	96.2478	76	73
96.2478	96.3728	47	66
96.2478	97.2478	59	60
96.2478	97.2478	71	65
96.2478	97.2478	74	76
96.3728	96.4978	49	66
96.4978	96.6228	50	66
96.6228	96.7478	52	66
96.7478	96.8728	50	66
96.8728	96.9978	49	66
96.9978	97.1228	50	66
97.1228	97.2478	47	66
97.2478	97.7478	56	73
97.2478	97.4978	83	72
97.4978	97.7478	81	70
97.7478	97.9978	83	72
97.9978	98.2478	80	69
98.2478	98.9978	71	54
98.2478	98.9978	74	55
98.2478	98.4978	80	71
98.4978	98.7478	78	69
98.7478	98.9978	80	72
98.9978	99.2478	68	50
98.9978	99.2478	71	52
98.9978	99.2478	76	67
99.2478	99.9978	68	54
99.2478	99.9978	71	55
99.2478	99.4978	76	69
99.4978	99.7478	74	67
99.7478	99.9978	76	68
99.9978	100.248	64	50
99.9978	100.248	69	52
99.9978	100.248	73	64
100.248	100.373	45	66
100.248	101.248	64	54
100.248	101.248	69	55
100.248	101.248	73	64
100.373	100.498	47	66
100.498	100.623	49	66
100.623	100.748	50	66
100.748	100.873	49	66
100.873	100.998	47	66
100.998	101.123	49	66
101.123	101.248	45	66
101.248	101.748	54	73
101.248	101.498	81	72
101.498	101.748	79	70
101.748	101.998	81	72
101.998	102.248	78	69
102.248	102.998	69	54
102.248	102.998	72	55
102.248	102.498	78	71
102.498	102.748	76	69
102.748	102.998	78	72
102.998	103.248	66	50
102.998	103.248	69	52
102.998	103.248	74	67
103.248	103.998	66	54
103.248	103.998	69	55
103.248	103.498	74	69
103.498	103.748	72	67
103.748	103.998	74	68
103.998	104.248	62	50
103.998	104.248	67	52
103.998	104.248	71	64
104.248	104.373	43	63
104.248	105.248	62	54
104.248	105.244	67	55
104.248	105.248	71	64
104.373	104.498	45	63
104.498	104.623	47	63
104.623	104.748	48	63
104.748	104.873	47	63
104.873	104.998	45	63
104.998	105.123	47	63
105.123	105.248	43	63
105.248	105.998	52	68
105.248	105.373	67	72
105.373	105.498	69	72
105.498	105.623	71	72
105.623	105.748	72	72
105.748	105.873	71	72
105.873	105.998	69	72
105.998	106.248	50	60
105.998	106.123	71	72
106.123	106.248	67	72
106.248	107.248	48	66
106.248	106.998	76	76
106.998	107.248	76	71
107.248	108.248	50	60
107.248	107.998	74	75
107.998	108.248	72	71
108.248	108.998	55	66
108.248	108.998	71	75
108.998	109.248	57	49
108.998	109.248	73	71
109.248	109.998	59	54
109.248	109.373	62	67
109.248	111.248	74	74
109.373	109.498	64	67
109.498	109.623	66	67
109.623	109.748	67	67
109.748	109.873	66	67
109.873	109.998	64	67
109.998	110.248	57	49
109.998	110.123	66	67
110.123	110.248	62	67
110.248	110.998	55	54
110.248	110.998	71	73
110.998	111.248	52	48
110.998	111.248	71	67
111.248	111.998	57	54
111.248	111.998	69	73
111.248	112.248	73	71
111.998	112.248	45	51
111.998	112.248	67	67
112.248	112.373	47	61
112.248	112.998	66	72
112.248	113.248	74	72
112.373	112.498	49	61
112.498	112.623	50	61
112.623	112.748	52	59
112.748	112.873	50	61
112.873	112.998	49	61
112.998	113.123	50	61
112.998	113.248	69	55
113.123	113.248	47	61
113.248	113.998	59	65
113.248	114.123	74	71
113.373	113.498	76	71
113.498	113.623	78	71
113.623	113.748	79	71
113.748	113.873	78	71
113.873	113.998	76	71
113.998	114.248	57	50
113.998	114.123	78	71
114.123	115.248	74	71
114.248	114.998	55	53
114.248	114.998	83	76
114.998	115.248	52	48
114.998	115.248	83	71
115.248	115.998	57	53
115.248	117.248	72	61
115.248	115.998	81	76
115.998	116.248	45	48
115.998	116.248	79	71
116.248	117.248	50	56
116.248	116.998	78	76
116.998	117.081	74	71
117.081	117.165	76	71
117.165	117.248	78	71
117.248	118.248	52	52
117.248	117.373	55	65
117.248	118.248	71	61
117.248	117.998	79	76
117.373	117.498	57	65
117.498	117.623	59	65
117.623	117.748	60	65
117.748	117.873	59	65
117.873	117.998	57	65
117.998	118.123	59	65
117.998	118.248	79	73
118.123	118.248	55	65
118.248	118.998	60	52
118.248	118.998	64	70
118.248	120.248	69	61
118.248	118.998	79	75
118.998	119.248	57	52
118.998	119.248	64	66
118.998	119.248	81	73
119.248	119.998	62	70
119.248	119.998	78	76
119.998	120.248	50	52
119.998	120.248	60	66
119.998	120.248	78	72
120.248	121.248	55	57
120.248	121.248	59	71
120.248	121.248	67	61
120.248	120.998	78	72
120.998	121.123	76	67
121.123	121.248	75	67
121.248	121.373	40	66
121.248	122.248	67	58
121.248	122.248	71	61
121.248	122.998	76	73
121.373	121.498	42	66
121.498	121.623	43	66
121.623	121.748	45	66
121.748	121.873	43	66
121.873	121.998	42	66
121.998	122.123	43	66
122.123	122.248	40	66
122.248	122.998	48	72
122.248	125.248	66	58
122.248	125.123	69	61
122.998	123.248	48	57
122.998	123.248	75	67
123.248	123.998	47	61
123.248	123.998	76	72
123.998	124.248	45	56
123.998	124.248	78	66
124.248	124.998	43	61
124.248	124.998	71	71
124.998	125.248	42	56
124.998	125.123	72	64
125.123	125.248	69	64
125.248	125.998	43	60
125.248	125.998	64	61
125.248	125.998	67	60
125.248	125.998	71	67
125.998	126.248	45	55
125.998	126.248	54	57
125.998	126.246	64	55
125.998	126.248	72	62
126.248	128.345	47	60
126.248	127.017	55	60
126.248	127.274	64	60
126.248	127.274	67	68
127.017	127.274	57	57
127.274	128.077	59	60
127.274	128.345	63	55
127.274	128.345	66	64
128.077	128.345	57	57
128.345	129.345	52	61
128.345	129.345	55	60
128.345	129.22	64	63
128.47	128.595	66	63
128.595	128.72	67	63
128.72	128.845	69	63
128.845	128.97	67	63
128.97	129.095	66	63
129.095	129.22	67	63
129.22	129.345	64	63
129.345	129.595	59	55
129.345	129.845	79	69
129.595	129.845	57	51
129.845	130.095	59	55
130.095	130.345	55	51
130.345	130.595	55	55
130.345	131.095	59	57
130.345	131.095	64	57
130.595	130.845	54	51
130.845	131.095	55	55
131.095	131.339	52	50
131.095	131.337	55	53
131.095	131.337	61	53
131.339	131.583	52	55
131.339	132.071	55	57
131.339	132.071	61	57
131.583	131.827	50	50
131.827	132.071	52	55
132.071	132.336	49	50
132.071	132.336	52	53
132.071	132.336	57	53
132.336	133.336	49	55
132.336	133.336	52	57
132.336	133.336	57	57
132.336	132.461	69	63
132.461	132.586	71	63
132.586	132.711	73	63
132.711	132.836	74	63
132.836	132.961	73	63
132.961	133.086	71	63
133.086	133.211	73	63
133.211	133.336	69	63
133.336	133.586	57	55
133.336	133.836	78	68
133.586	133.836	55	50
133.836	134.086	57	55
134.086	134.336	54	50
134.336	134.586	54	55
134.336	135.086	57	57
134.336	135.086	62	57
134.586	134.836	52	50
134.836	135.086	54	55
135.086	135.336	50	50
135.086	135.334	54	54
135.086	135.334	59	53
135.336	135.584	50	55
135.336	136.075	54	57
135.336	136.075	59	57
135.584	135.831	49	50
135.831	136.075	50	55
136.075	136.331	47	51
136.075	136.331	50	54
136.075	136.331	55	52
136.331	137.331	47	55
136.331	137.331	50	57
136.331	137.331	55	57
136.331	136.456	67	64
136.456	136.581	69	64
136.581	136.706	71	64
136.706	136.831	72	64
136.831	136.956	71	64
136.956	137.081	69	64
137.081	137.206	71	64
137.206	137.331	67	64
137.331	137.581	55	55
137.331	137.831	76	69
137.581	137.831	54	51
137.831	138.081	55	55
138.081	138.327	52	51
138.327	138.573	52	55
138.327	139.065	55	57
138.327	139.065	61	57
138.573	138.819	50	51
138.819	139.065	52	55
139.065	139.311	49	51
139.065	139.309	52	54
139.065	139.309	57	55
139.311	139.557	49	55
139.311	140.049	52	57
139.311	140.049	57	57
139.557	139.803	47	51
139.803	140.049	49	55
140.049	140.309	45	51
140.049	140.307	49	54
140.049	140.307	54	54
140.309	141.309	45	49
140.309	141.309	49	51
140.309	141.309	54	51
140.309	140.434	66	64
140.434	140.559	67	64
140.559	140.684	69	64
140.684	140.809	71	64
140.809	140.934	69	64
140.934	141.059	67	64
141.059	141.184	69	64
141.184	141.309	66	64
141.309	141.434	59	62
141.309	142.06	74	69
141.434	141.559	61	62
141.559	141.684	62	62
141.684	141.81	64	62
141.81	141.935	62	62
141.935	142.06	61	62
142.06	142.185	62	62
142.06	142.31	74	64
142.185	142.31	59	62
142.31	142.435	52	59
142.31	144.31	67	67
142.31	143.06	74	68
142.435	142.56	54	59
142.56	142.685	55	59
142.685	142.81	57	59
142.81	142.935	55	59
142.935	143.06	54	59
143.06	143.185	55	59
143.06	143.31	76	64
143.185	143.31	52	59
143.31	144.185	57	63
143.31	143.393	73	68
143.393	143.476	74	60
143.435	143.56	59	60
143.476	144.06	73	68
143.56	143.685	61	60
143.685	143.81	62	60
143.81	143.935	61	60
143.935	144.06	59	60
144.06	144.185	61	60
144.06	144.185	74	64
144.185	144.31	57	60
144.185	144.31	76	64
144.31	144.435	50	62
144.31	145.31	62	65
144.31	145.31	66	65
144.31	145.31	78	69
144.435	144.56	52	62
144.56	144.685	54	62
144.685	144.81	55	62
144.81	144.935	54	62
144.935	145.06	52	62
145.06	145.185	54	62
145.185	145.31	50	62
145.31	145.81	55	65
145.31	145.56	83	72
145.56	145.81	81	70
145.81	146.06	83	72
146.06	146.308	79	69
146.308	147.051	71	54
146.308	147.051	74	55
146.308	146.555	79	71
146.555	146.803	78	69
146.803	147.051	79	72
147.051	147.295	67	50
147.051	147.295	71	52
147.051	147.297	76	67
147.297	148.033	67	54
147.297	148.033	71	55
147.297	147.543	76	69
147.543	147.787	74	67
147.787	148.033	76	68
148.033	148.281	64	50
148.033	148.279	69	52
148.033	148.281	73	64
148.281	149.281	43	54
148.281	149.281	55	54
148.281	149.281	64	55
148.281	149.281	69	55
148.281	149.281	73	68
149.281	149.406	54	62
149.281	150.031	66	48
149.281	150.031	69	49
149.281	150.031	74	64
149.406	149.531	55	62
149.531	149.656	57	62
149.656	149.781	55	62
149.781	149.906	54	62
149.906	150.031	52	62
150.031	150.156	50	62
150.031	150.281	66	45
150.031	150.281	69	46
150.031	150.281	74	61
150.156	150.281	49	62
150.281	150.406	47	62
150.281	151.031	66	48
150.281	151.031	71	49
150.281	151.031	74	66
150.406	150.531	49	62
150.531	150.656	50	62
150.656	150.781	49	62
150.781	150.906	47	62
150.906	151.031	45	62
151.031	151.156	47	62
151.031	151.281	67	45
151.031	151.281	71	46
151.031	151.281	76	61
151.156	151.281	43	62
151.281	152.07	45	66
151.281	152.367	64	48
151.281	152.367	69	49
151.281	151.369	73	66
151.369	151.456	74	66
151.456	151.544	73	66
151.544	151.632	74	66
151.632	151.72	73	66
151.72	151.807	74	66
151.807	152.07	73	66
152.07	152.367	45	62
152.07	152.367	74	61
152.367	153.117	38	66
152.367	153.367	66	48
152.367	153.367	69	49
152.367	153.367	74	64
153.117	153.201	50	62
153.201	153.284	52	62
153.284	153.367	54	62
153.367	154.368	55	66
153.367	153.492	71	64
153.492	153.617	73	64
153.617	153.742	74	64
153.742	153.867	76	64
153.867	153.992	74	64
153.992	154.117	73	64
154.117	154.243	74	64
154.243	154.368	71	64
154.368	154.493	49	60
154.368	155.368	64	48
154.368	155.368	71	49
154.368	155.368	76	64
154.493	154.618	50	61
154.618	154.743	52	61
154.743	154.868	54	59
154.868	154.993	52	61
154.993	155.118	50	61
155.118	155.243	52	61
155.243	155.368	49	61
155.368	156.368	54	64
155.368	155.493	69	64
155.493	155.618	71	64
155.618	155.743	73	64
155.743	155.868	74	64
155.868	155.993	73	64
155.993	156.118	71	64
156.118	156.243	73	64
156.243	156.368	69	64
156.368	156.493	47	67
156.368	157.368	62	48
156.368	157.368	69	49
156.368	157.368	74	72
156.493	156.618	49	67
156.618	156.743	50	67
156.743	156.868	52	67
156.868	156.993	50	67
156.993	157.118	49	67
157.118	157.243	50	67
157.243	157.368	47	67
157.368	157.493	52	60
157.368	157.493	67	64
157.493	157.618	54	60
157.493	157.618	69	64
157.618	157.743	55	60
157.618	157.743	71	64
157.743	157.868	57	60
157.743	157.868	72	65
157.868	157.993	55	60
157.868	157.993	71	65
157.993	158.118	54	61
157.993	158.118	69	66
158.118	158.243	55	61
158.118	158.243	71	66
158.243	158.368	52	61
158.243	158.368	67	66
158.368	158.493	57	62
158.368	158.493	73	66
158.493	158.618	59	62
158.493	158.618	74	66
158.618	158.743	61	62
158.618	158.743	76	67
158.743	158.868	62	62
158.743	158.868	78	67
158.868	158.992	61	63
158.868	158.992	76	68
158.992	159.116	59	63
158.992	159.116	74	68
159.116	159.24	61	63
159.116	159.24	76	68
159.24	159.364	57	64
159.24	159.364	73	69
159.364	159.488	62	64
159.364	159.488	78	69
159.488	159.611	64	64
159.488	159.611	79	69
159.611	159.734	66	64
159.611	159.734	81	69
159.734	159.857	67	64
159.734	159.857	83	69
159.857	159.98	66	65
159.857	159.98	81	70
159.98	160.103	64	65
159.98	160.103	79	70
160.103	160.232	66	66
160.103	160.232	81	71
160.232	160.362	62	66
160.232	160.362	78	71
160.362	161.112	67	72
160.362	161.112	83	77
161.112	161.362	55	69
161.112	161.362	64	69
161.112	161.362	69	70
161.112	161.362	73	72
161.362	162.112	54	72
161.362	162.112	66	72
161.362	162.112	69	72
161.362	162.112	74	77
162.112	162.362	52	69
162.112	162.362	67	69
162.112	162.362	73	70
162.112	162.362	76	72
162.362	163.112	50	72
162.362	163.112	69	72
162.362	163.112	74	72
162.362	163.112	78	78
163.112	163.368	48	69
163.112	163.368	57	68
163.112	163.366	62	70
163.112	163.368	66	72
163.368	164.137	47	72
163.368	164.137	59	72
163.368	164.137	62	72
163.368	164.137	67	77
164.137	164.394	45	68
164.137	164.394	60	68
164.137	164.394	66	69
164.137	164.394	69	72
164.394	165.163	43	72
164.394	165.163	62	72
164.394	165.163	67	72
164.394	165.163	71	76
165.163	165.419	42	68
165.163	165.419	62	69
165.163	165.419	67	68
165.163	165.419	71	72
165.419	166.188	40	72
165.419	166.188	64	72
165.419	166.188	67	72
165.419	166.188	73	76
166.188	166.459	38	68
166.188	166.454	66	69
166.188	166.459	69	68
166.188	166.459	74	72
166.459	168.767	45	72
166.459	167.591	57	72
166.459	167.591	62	72
166.459	167.591	66	77
167.591	168.767	55	72
167.591	168.767	61	72
167.591	168.767	64	76
168.767	173.473	38	66
168.767	173.473	54	70
168.767	173.473	57	72
168.767	173.473	62	76
