OnsetTime	OffsetTime	MidiPitch	Velocity
0.518994	1.28597	70	50
0.522991	1.28597	58	40
1.27198	1.69198	65	45
1.27298	1.69198	53	36
1.68298	2.44799	62	50
1.68498	2.44799	50	40
2.42398	2.83998	65	48
2.42598	2.83998	53	38
2.83298	3.59599	70	52
2.83398	3.59599	58	41
3.57498	3.97799	74	54
3.57598	3.97799	62	43
3.97399	4.76098	77	57
3.97698	4.76098	65	45
4.71897	5.09497	82	58
4.90497	5.09497	74	51
5.09097	7.27094	53	30
5.09097	7.26994	63	36
5.09097	5.27996	77	56
5.09397	7.27094	60	30
5.26896	5.46097	75	52
5.44695	5.63896	74	51
5.62895	5.82194	72	49
5.80795	5.99694	70	48
5.98895	6.17894	69	47
6.17894	6.36395	67	50
6.35396	6.54294	65	44
6.53995	6.72496	64	44
6.71796	6.91094	65	45
6.89995	7.08894	67	47
7.07794	7.27394	69	50
7.27493	7.63094	58	32
7.27493	7.30894	70	50
7.27794	7.63195	62	38
7.40393	7.44995	72	45
7.45294	7.54395	70	49
7.54395	7.63195	69	46
7.63495	7.67694	70	50
7.81694	7.85594	72	47
7.99493	8.04092	74	49
8.17793	8.22191	75	51
8.36992	8.55792	76	53
8.55093	8.74492	77	50
8.73392	8.92991	79	55
8.91891	9.10191	77	50
9.10191	9.4829	82	59
9.28691	9.4829	74	50
9.47592	9.66791	77	57
9.47991	11.6949	53	30
9.47991	11.6949	60	30
9.47991	11.6949	63	36
9.66091	9.85291	75	55
9.84692	10.0399	74	53
10.0289	10.2209	72	51
10.2139	10.4069	70	49
10.3929	10.5849	69	47
10.5859	10.7769	67	50
10.7639	10.9629	65	43
10.9489	11.1479	64	50
11.1349	11.3269	65	43
11.3239	11.5129	67	50
11.5019	11.6989	69	45
11.6989	11.7849	70	50
11.6999	11.7859	58	34
11.7019	11.7889	62	40
12.0589	12.1559	70	48
12.0629	12.1609	58	32
12.0629	12.1609	62	38
12.4479	12.5529	58	32
12.4479	12.5519	74	48
12.4509	12.5559	65	38
12.8779	13.2489	70	50
12.8789	13.2519	58	34
12.8789	13.2529	62	40
13.5319	13.5809	70	44
13.6269	13.7249	72	50
13.7209	13.8189	70	43
13.8049	13.9099	69	45
13.8999	14.0159	70	42
14.0049	14.3689	79	56
14.3729	14.7479	51	25
14.3729	14.7499	55	25
14.3729	14.7469	58	30
14.6529	14.7009	70	44
14.7509	14.8449	72	50
14.8339	14.9399	70	43
14.9289	15.0299	69	45
15.0199	15.1279	70	42
15.1249	15.4849	77	55
15.4859	15.8629	50	25
15.4859	15.8629	53	25
15.4889	15.8639	58	30
15.7619	15.8109	70	44
15.8639	15.9649	72	50
15.9549	16.0589	70	43
16.0489	16.1499	69	45
16.1399	16.2559	70	42
16.2449	16.6089	72	52
16.2489	17.3679	57	29
16.2489	17.7459	65	34
16.6129	16.9869	77	49
16.9909	17.3729	75	48
17.3749	17.7499	73	55
17.3759	17.7509	58	34
17.7529	17.9529	74	49
18.0509	18.0959	70	44
18.1459	18.2439	72	50
18.2369	18.3339	70	43
18.3269	18.4289	69	45
18.4149	18.5309	70	42
18.5199	18.8879	79	56
18.8879	19.2659	51	25
18.8889	19.2659	55	25
18.8909	19.2659	58	30
19.1709	19.2169	70	44
19.2669	19.3629	72	50
19.3559	19.4549	70	43
19.4439	19.5489	69	45
19.5349	19.6469	70	42
19.6399	19.9999	77	55
20.0009	20.3779	50	25
20.0039	20.3779	53	25
20.0039	20.3789	58	30
20.2799	20.3329	70	44
20.3819	20.4839	72	50
20.4729	20.5739	70	43
20.5639	20.6689	69	45
20.6549	20.7739	70	42
20.7639	21.9049	72	52
20.7649	21.9049	53	29
20.7649	21.9049	57	34
21.1309	21.9049	60	31
21.1309	21.9049	75	49
21.5059	21.9049	69	48
21.5079	21.9049	63	29
21.9029	22.2649	70	55
21.9039	22.2659	62	34
21.9049	22.2679	58	28
22.9889	23.1889	74	64
22.9899	23.1889	70	64
22.9929	23.1889	55	73
22.9929	23.1889	79	77
23.3819	23.5669	43	66
23.3819	23.5669	67	64
24.1339	24.2809	69	63
24.1349	24.2809	66	63
24.1349	24.2809	74	75
24.1369	24.2809	50	73
24.5189	24.7489	62	67
24.5199	24.7489	38	66
25.2789	26.4109	51	20
25.2789	26.0309	63	43
25.2799	25.6499	55	33
25.4649	25.8359	58	23
25.6499	26.0239	55	27
25.8359	26.0309	58	22
26.0239	26.4109	55	26
26.0239	26.1149	65	36
26.1159	26.3079	63	36
26.2099	26.4109	58	22
26.2099	26.4109	62	36
26.3079	26.4109	63	36
26.4089	26.7809	72	42
26.4099	27.5429	50	20
26.4099	26.7799	56	36
26.5919	26.7769	70	37
26.5949	26.7809	58	23
26.7769	27.1509	70	43
26.7799	27.1519	56	27
26.9619	27.3399	58	23
27.1509	27.5399	70	38
27.1519	27.5429	56	27
27.3399	27.5429	58	24
27.5399	28.6639	51	20
27.5399	27.9139	70	39
27.5409	27.9119	55	33
27.7219	27.9139	75	45
27.7259	27.9139	58	23
27.9119	28.2759	55	27
27.9119	28.2849	74	44
28.0969	28.2849	58	23
28.0969	28.2849	73	42
28.2759	28.6639	55	27
28.2759	28.6639	72	40
28.4609	28.6639	71	38
28.4629	28.6639	58	25
28.6589	29.7829	70	41
28.6599	29.7829	50	20
28.6599	29.0349	56	33
28.8429	29.2209	58	27
29.0349	29.4059	56	27
29.2209	29.5939	58	24
29.4059	29.7829	56	27
29.5939	29.7829	58	23
29.7799	30.9099	51	21
29.7799	30.5319	63	45
29.7829	30.1479	55	35
29.9619	30.3359	58	24
30.1479	30.5249	55	28
30.3359	30.5319	58	23
30.5219	30.6119	65	42
30.5249	30.9099	55	27
30.6129	30.8059	63	39
30.7079	30.9099	62	42
30.7099	30.9099	58	23
30.8059	30.9099	63	40
30.9069	31.2779	72	54
30.9079	32.0409	50	21
30.9079	31.2779	53	38
31.0919	31.2759	71	48
31.0929	31.2779	56	24
31.2759	31.6479	71	53
31.2779	31.6489	53	32
31.4609	31.8379	56	28
31.6479	32.0409	71	47
31.6489	32.0409	53	32
31.8379	32.0409	56	27
32.0389	32.4129	72	50
32.0399	33.1649	51	23
32.0399	32.4119	55	37
32.2229	32.4129	79	58
32.2269	32.4129	60	32
32.4089	32.7829	75	56
32.4119	32.7829	55	34
32.5939	32.7829	74	54
32.5969	32.7829	60	29
32.7799	33.1679	72	51
32.7829	33.1679	55	30
32.9579	33.1679	70	49
32.9619	33.1679	60	28
33.1639	34.2809	69	50
33.1649	34.2809	51	23
33.1679	33.3459	53	37
33.3499	33.7209	60	30
33.5349	33.9019	53	30
33.7209	34.0919	60	27
33.9019	34.2809	53	30
34.0919	34.2809	60	26
34.2779	34.6509	70	59
34.2799	35.4039	50	27
34.2809	34.6509	53	44
34.4639	34.6509	60	30
34.4639	34.6509	86	62
34.6489	35.0329	82	61
34.6509	35.0169	53	36
34.8349	35.0329	81	60
34.8379	35.0329	60	30
35.0159	35.4039	79	58
35.0169	35.4039	53	36
35.2019	35.4039	77	57
35.2029	35.4039	60	33
35.4009	36.5219	48	27
35.4009	36.5219	76	62
35.4039	35.5819	55	44
35.5829	35.9619	58	36
35.7759	36.1469	55	36
35.9619	36.3319	58	31
36.1469	36.5219	55	36
36.3319	36.5219	58	30
36.5199	36.8889	77	52
36.5209	37.6489	50	27
36.5209	36.8909	53	44
36.7059	36.8909	57	28
36.7059	36.8909	81	58
36.8889	37.2639	77	56
36.8909	37.2639	53	36
37.075	37.2639	76	55
37.077	37.2639	57	28
37.2629	37.6489	74	53
37.2639	37.6489	53	35
37.442	37.6489	72	51
37.444	37.6489	57	27
37.6449	38.762	71	56
37.648	38.762	55	37
37.648	37.826	62	37
37.83	38.201	65	36
38.012	38.387	62	36
38.201	38.573	65	30
38.387	38.762	62	36
38.573	38.762	65	30
38.761	39.138	60	44
38.761	39.139	64	44
38.855	38.95	72	46
38.95	39.048	71	49
39.048	39.143	72	44
39.143	39.233	74	49
39.233	39.331	72	44
39.331	39.425	71	49
39.426	39.524	72	44
39.525	39.9019	70	50
39.611	39.8029	72	49
39.7109	39.9019	76	54
39.8029	39.9019	72	49
39.896	40.273	69	55
39.986	40.1759	72	53
40.084	40.273	77	57
40.1759	40.273	72	52
40.269	40.6439	64	59
40.3609	40.547	72	55
40.4539	40.6439	82	61
40.547	40.6439	72	57
40.637	41.0289	65	57
40.731	40.924	72	57
40.8269	41.0289	81	64
40.924	41.0289	72	57
41.0219	41.4039	79	65
41.023	41.4039	60	62
41.12	41.4039	76	60
41.2149	41.4039	74	65
41.306	41.4039	72	60
41.3999	41.491	71	57
41.4919	41.585	72	59
41.585	41.677	74	60
41.68	41.77	72	56
41.771	42.1589	70	50
41.869	42.055	72	49
41.964	42.1589	76	53
42.055	42.1589	72	49
42.156	42.544	69	58
42.247	42.44	72	52
42.348	42.544	77	58
42.44	42.544	72	54
42.534	42.912	64	62
42.625	42.817	72	55
42.723	42.912	82	61
42.817	42.912	72	55
42.908	43.29	65	56
43.002	43.195	72	49
43.095	43.29	81	68
43.195	43.29	72	62
43.287	43.473	79	73
43.288	44.13	60	61
43.378	44.421	84	62
43.473	43.752	79	69
43.563	43.843	76	57
43.66	43.938	72	67
43.752	44.421	79	55
43.843	44.421	76	61
43.938	44.13	72	54
44.036	44.221	67	63
44.13	44.42	60	47
44.13	44.421	72	55
44.221	44.421	67	65
44.225	44.421	55	54
44.322	44.421	64	59
44.323	44.421	52	47
44.42	44.63	60	74
44.421	44.63	48	60
44.823	45.268	64	62
44.823	45.263	67	62
44.826	45.268	36	59
44.826	45.268	72	73
45.712	46.4789	53	34
46.461	46.8709	48	30
46.8729	47.633	45	34
47.6159	48.0219	48	32
48.0219	48.7779	53	34
48.2069	48.2519	84	45
48.3859	48.4349	84	49
48.5739	48.62	84	43
48.7609	49.155	57	36
48.7609	48.8059	84	46
48.956	49.002	84	40
49.156	49.5259	60	38
49.156	49.352	86	45
49.338	49.5369	84	40
49.527	49.723	82	43
49.712	49.9079	81	40
49.905	50.1	79	45
50.091	50.279	77	39
50.283	50.328	77	41
50.284	51.053	58	34
50.328	50.381	79	39
50.381	50.475	77	49
50.479	50.664	76	44
50.664	51.036	76	46
51.036	51.452	55	30
51.456	52.208	52	34
52.19	52.596	55	32
52.596	53.353	58	34
52.781	52.827	82	45
52.968	53.017	82	48
53.153	53.198	82	42
53.332	53.388	82	44
53.335	53.73	64	36
53.531	53.583	82	40
53.731	54.105	67	38
53.731	53.927	84	45
53.919	54.112	82	40
54.106	54.298	81	40
54.291	54.49	79	40
54.476	54.675	77	45
54.662	54.871	76	39
54.871	55.614	77	47
54.875	55.246	69	35
55.057	55.432	72	28
55.246	55.614	69	35
55.431	55.614	81	47
55.432	55.614	72	25
55.611	55.985	79	45
55.614	55.985	69	32
55.796	55.985	77	40
55.799	55.985	72	24
55.981	56.73	76	47
55.985	56.356	70	35
56.166	56.542	72	31
56.356	56.724	70	35
56.541	56.73	86	52
56.542	56.73	72	26
56.72	57.101	84	47
56.724	57.101	70	33
56.906	57.101	76	42
56.909	57.101	72	29
57.097	57.837	77	47
57.098	57.462	69	35
57.283	57.65	72	30
57.462	57.836	69	32
57.647	57.837	81	47
57.65	57.837	72	24
57.836	58.211	69	32
57.836	58.211	79	45
58.014	58.211	77	40
58.015	58.211	72	25
58.207	58.946	76	47
58.208	58.578	70	35
58.39	58.757	72	31
58.578	58.945	70	35
58.756	58.946	86	52
58.757	58.946	72	26
58.942	59.317	84	47
58.945	59.317	70	33
59.124	59.317	72	29
59.124	59.317	76	42
59.314	60.062	77	47
59.317	59.681	69	35
59.499	59.873	72	30
59.681	60.055	69	32
59.873	60.062	72	28
59.873	60.062	84	55
60.051	60.433	81	53
60.055	60.433	69	38
60.234	60.433	72	31
60.234	60.433	79	50
60.43	61.1719	78	56
60.431	61.5359	62	40
60.433	60.7939	69	40
60.609	60.98	72	34
60.7939	61.1649	69	38
60.98	61.1719	72	32
60.98	61.1719	87	58
61.1609	61.5359	86	52
61.1649	61.5359	69	39
61.3399	61.5359	78	48
61.3429	61.5359	72	32
61.5329	61.9069	81	56
61.5349	61.9069	67	39
61.5359	61.9069	70	39
61.7179	61.9069	79	51
61.9059	62.2769	84	55
61.9069	62.2769	64	35
61.9069	62.6459	72	35
62.0849	62.2769	83	51
62.2749	62.6459	82	50
62.2769	62.6459	65	35
62.4529	62.6459	81	49
62.6409	63.0299	79	54
62.6449	63.0299	58	43
62.6449	63.0299	70	43
62.9209	63.0299	81	48
63.0199	63.4639	77	54
63.0209	63.8139	60	40
63.0229	63.8139	69	40
63.4009	63.5279	76	50
63.4049	63.8139	67	40
63.4639	63.5909	77	44
63.5279	63.6389	76	50
63.5909	63.7789	77	44
63.6389	63.7299	76	50
63.6849	63.8139	74	42
63.7299	63.8139	76	45
63.7789	63.8699	77	49
63.7829	64.1809	65	40
63.8709	64.0629	72	46
63.9679	64.1809	71	49
64.0629	64.1809	72	44
64.1579	64.2479	74	49
64.2479	64.3499	72	44
64.3429	64.5309	71	49
64.3439	64.5309	57	49
64.4339	64.5309	72	44
64.5219	64.7109	70	49
64.5249	64.7109	55	55
64.6119	64.7109	72	49
64.7099	64.9269	53	48
64.7099	64.9269	69	54
64.8019	64.9269	72	49
64.8999	65.2979	52	48
64.8999	64.9829	67	49
64.9869	65.1789	72	46
65.0849	65.2979	71	49
65.1789	65.2979	72	44
65.2709	65.3609	74	49
65.3649	65.4659	72	44
65.4559	65.6479	71	49
65.4569	65.6479	62	45
65.5469	65.6479	72	44
65.6379	65.8259	60	50
65.6379	65.8239	82	49
65.7289	65.8259	72	49
65.8239	66.0399	52	45
65.8239	66.0399	82	54
65.9139	66.0399	72	49
66.0089	66.1029	81	49
66.0099	66.4109	53	40
66.1069	66.2919	72	46
66.2009	66.4109	71	49
66.2919	66.4109	72	44
66.3829	66.4769	74	49
66.4779	66.5789	72	44
66.5689	66.7609	71	49
66.5719	66.7609	57	50
66.6629	66.7609	72	44
66.7509	66.9399	70	49
66.7539	66.9399	55	55
66.8449	66.9399	72	49
66.9369	67.1559	69	54
66.9399	67.1559	53	47
67.0309	67.1559	72	49
67.1219	67.2129	67	49
67.1249	67.5279	52	47
67.2129	67.4059	72	46
67.3139	67.5279	71	49
67.4059	67.5279	72	44
67.4999	67.5909	74	49
67.5909	67.6949	72	44
67.6849	67.8739	62	45
67.6849	67.8739	71	49
67.7729	67.8739	72	44
67.8669	68.0529	60	50
67.8669	68.0499	82	49
67.9579	68.0529	72	49
68.0499	68.2699	82	54
68.0519	68.2699	52	45
68.1439	68.2699	72	49
68.2429	68.3349	81	49
68.2449	68.6409	53	40
68.3359	68.5189	72	46
68.4279	68.6409	71	49
68.5189	68.6409	72	44
68.6139	68.7029	74	49
68.7069	68.8119	72	44
68.7979	68.9899	71	49
68.8009	68.9899	60	47
68.8929	68.9899	72	44
68.9799	69.1689	75	49
68.9829	69.1689	57	52
69.0719	69.1689	72	49
69.1659	69.3859	70	54
69.1689	69.3859	55	47
69.2569	69.3859	72	49
69.3579	69.4489	69	49
69.3589	69.7639	54	44
69.4499	69.6349	74	46
69.5399	69.7639	73	49
69.6349	69.7639	74	44
69.7299	69.8239	76	49
69.8269	69.9309	74	44
69.9179	70.1099	73	52
69.9219	70.1099	63	45
70.0129	70.1099	74	44
70.1069	70.2859	84	55
70.1079	70.2959	62	50
70.1979	70.2959	74	49
70.2859	70.4859	84	57
70.2869	70.4859	54	45
70.3839	70.4859	74	49
70.4849	70.8599	55	42
70.4849	70.8599	83	62
70.5689	70.7549	62	33
70.6639	70.8599	59	36
70.7549	70.8599	62	33
70.8489	71.2309	82	60
70.8529	71.2309	52	38
70.9409	71.1259	61	33
71.0349	71.2309	55	36
71.1259	71.2309	61	33
71.2199	71.6359	81	57
71.2229	71.6359	53	39
71.3149	71.4969	60	33
71.4059	71.6359	57	37
71.4969	71.6359	60	37
71.5919	71.8709	79	60
71.5939	71.9799	46	31
71.5949	71.9799	58	37
71.6899	71.9799	86	52
71.7769	71.9799	82	52
71.8709	71.9799	79	52
71.9779	72.2499	77	62
71.9789	72.3539	48	31
71.9799	72.3539	57	37
72.0679	72.3539	84	52
72.1579	72.3539	81	52
72.2499	72.3539	77	52
72.3499	72.6269	76	62
72.3509	72.7299	46	31
72.3509	72.7299	55	37
72.4349	72.7299	82	52
72.5329	72.7299	79	52
72.6269	72.7299	76	52
72.7259	73.1039	77	54
72.7289	73.1039	45	34
72.7289	73.1039	53	40
72.8159	73.1029	81	57
72.9149	73.1039	84	61
73.0079	73.1039	82	60
73.1029	73.4809	81	58
73.1939	73.4809	79	56
73.2879	73.4809	77	54
73.3729	73.4809	76	52
73.4709	73.8829	74	55
73.4739	73.8829	57	31
73.4739	73.8829	60	37
73.5659	73.8829	72	51
73.6569	73.8829	70	50
73.7509	73.8829	69	50
73.8519	74.2329	67	50
73.8529	74.2329	58	37
73.8559	74.2329	62	44
73.9469	74.2299	70	53
74.0409	74.2329	74	56
74.1319	74.2329	72	55
74.2299	74.6039	70	54
74.3209	74.6039	69	53
74.4049	74.6039	67	52
74.4999	74.6039	65	50
74.5949	74.9749	50	31
74.5949	74.9749	64	49
74.5959	74.9749	53	31
74.5969	74.9749	55	37
74.6849	74.9749	62	50
74.7759	74.9719	60	53
74.8709	74.9749	59	56
74.9719	76.1129	60	59
74.9749	75.3429	48	45
75.0639	75.2559	57	37
75.1549	76.1129	72	59
75.1579	75.5289	53	40
75.2559	75.4409	57	37
75.3399	76.1129	77	61
75.3429	75.7149	48	45
75.4409	75.6229	57	37
75.5279	76.1129	81	62
75.5289	75.8999	53	40
75.6229	75.8059	57	37
75.7139	76.1129	84	64
75.7149	76.0909	48	48
75.8059	75.9919	57	37
75.8999	76.1129	53	41
75.8999	76.1129	89	65
75.9919	76.1129	57	37
76.0889	76.1909	79	37
76.0909	76.4839	48	45
76.1419	76.2359	81	31
76.1909	76.2889	79	37
76.1929	76.3829	58	37
76.2359	76.3339	81	31
76.2889	76.3829	79	37
76.2919	76.4849	52	40
76.3339	76.4319	81	32
76.3829	76.4849	58	37
76.3829	76.4809	79	37
76.4319	76.4849	81	33
76.4809	76.5789	79	37
76.4839	76.8659	48	45
76.5269	76.6239	81	32
76.5789	76.7679	58	37
76.5789	76.6729	79	37
76.6239	76.7189	81	32
76.6729	76.7639	79	37
76.6739	76.8719	52	40
76.7189	76.8099	81	31
76.7639	76.8649	79	37
76.7679	76.8719	58	37
76.8099	76.8719	81	33
76.8649	76.9069	79	37
76.8659	77.2679	48	48
76.9079	77.0199	81	32
76.9579	77.1499	58	37
76.9579	77.0829	79	37
77.0199	77.2679	81	32
77.0479	77.2679	52	41
77.0829	77.1939	79	37
77.1499	77.2679	58	37
77.1499	77.2408	77	33
77.1939	77.2679	79	33
77.2408	77.6738	77	49
77.2428	77.4808	53	41
77.4708	77.6808	57	28
77.6738	77.8728	60	35
77.8658	78.0688	65	34
78.0558	78.2658	64	32
78.2548	78.4648	63	30
78.4508	78.8458	82	46
78.4548	78.8458	62	28
78.6508	78.8458	65	21
78.8428	79.2348	84	50
78.8438	79.2348	60	31
79.0328	79.2348	65	24
79.2258	79.6178	86	51
79.2278	79.6178	58	31
79.4178	79.6178	65	25
79.6168	80.2008	84	51
79.6178	80.2008	57	31
79.8058	80.1978	65	28
80.0018	80.2008	64	31
80.1948	80.3968	86	48
80.1978	80.3968	65	28
80.2888	80.3968	84	43
80.3868	80.7848	58	31
80.3868	80.7848	82	50
80.4858	80.7828	81	48
80.5788	80.7848	79	47
80.5798	80.7848	67	27
80.6738	80.7848	77	45
80.7828	81.5498	60	31
80.7828	81.5588	81	48
80.9748	81.3588	69	27
81.1648	81.5588	65	31
81.3568	81.5588	82	40
81.3588	81.5588	69	29
81.5488	81.9458	79	44
81.5498	81.9458	60	31
81.7448	81.9458	70	27
81.9448	82.3288	77	46
81.9458	82.1368	69	31
82.1398	82.3318	65	24
82.3328	82.5218	64	30
82.5218	82.7098	63	26
82.7138	82.9028	62	29
82.9068	83.1098	61	31
83.1108	83.5018	62	28
83.1108	83.5018	70	52
83.3018	83.5018	82	47
83.3028	83.5018	65	27
83.4918	83.8868	72	54
83.4948	83.8868	60	38
83.6838	83.8868	84	47
83.6868	83.8868	64	32
83.8758	84.2688	74	58
83.8768	84.2688	59	40
84.0688	84.2688	86	52
84.0698	84.2688	68	34
84.2648	84.8487	84	61
84.2688	84.8487	57	41
84.4568	84.8467	69	35
84.4568	84.8467	86	54
84.5557	84.7438	88	58
84.6538	84.8487	89	61
84.6547	84.8487	65	38
84.7438	84.8487	88	61
84.8467	85.0447	69	33
84.8467	85.0447	86	60
84.9438	85.0447	84	58
85.0377	85.4367	82	57
85.0387	85.4337	60	40
85.1357	85.4307	81	55
85.2277	85.4367	79	54
85.2297	85.4367	69	35
85.3277	85.4367	77	52
85.4307	86.2067	81	62
85.4337	86.1997	60	41
85.6217	86.0077	69	33
85.8117	86.2067	65	43
86.0047	86.2067	82	56
86.0077	86.2067	69	33
86.1967	86.5957	79	62
86.1997	86.5957	60	45
86.3957	86.5957	70	38
86.5947	86.9877	77	67
86.6897	86.9877	53	54
86.7877	86.9877	57	56
86.8867	86.9877	60	59
86.9817	87.3727	65	61
87.0787	87.2717	84	60
87.1737	87.3727	86	65
87.2717	87.3727	84	60
87.3627	87.5577	82	64
87.3657	87.7827	60	54
87.3657	87.7827	64	54
87.4637	87.7827	81	62
87.5577	87.7827	82	60
87.6697	87.7827	79	58
87.7827	88.1767	77	68
87.8797	88.1767	41	54
87.9777	88.1767	45	56
88.0757	88.1767	48	59
88.1707	88.5617	53	61
88.2687	88.4617	72	60
88.3637	88.5617	74	65
88.4617	88.5617	72	60
88.5527	88.7477	70	64
88.5547	88.9757	48	54
88.5547	88.9757	52	54
88.6547	88.9757	69	62
88.7477	88.9757	70	60
88.8607	88.9757	67	58
88.9717	89.6897	65	71
88.9757	89.6897	53	59
89.4207	89.8637	69	59
89.4217	89.8647	72	59
89.4237	89.8687	41	59
89.4237	89.8677	77	77
90.3127	91.0787	58	40
90.3127	91.0787	70	50
91.0657	91.4877	53	36
91.0657	91.4877	65	45
91.4737	92.2407	62	50
91.4777	92.2407	50	40
92.2177	92.6337	65	48
92.2187	92.6337	53	38
92.6237	93.3887	70	52
92.6257	93.3887	58	41
93.3717	93.7717	74	54
93.3757	93.7717	62	43
93.7677	94.5547	77	57
93.7707	94.5547	65	45
94.5127	94.8837	82	58
94.6947	94.8837	74	51
94.8797	95.0727	77	56
94.8807	97.0606	63	36
94.8837	97.0606	53	30
94.8837	97.0636	60	30
95.0587	95.2516	75	52
95.2407	95.4327	74	51
95.4186	95.6116	72	49
95.6036	95.7896	70	48
95.7867	95.9717	69	47
95.9727	96.1577	67	50
96.1507	96.3427	65	44
96.3317	96.5256	64	44
96.5106	96.7036	65	45
96.6926	96.8816	67	47
96.8776	97.0676	69	50
97.0676	97.1096	70	50
97.0686	97.4276	58	32
97.0706	97.4286	62	38
97.2006	97.2416	72	45
97.2456	97.3366	70	49
97.3376	97.4316	69	46
97.4316	97.4766	70	50
97.6096	97.6556	72	47
97.7916	97.8416	74	49
97.9736	98.0266	75	51
98.1666	98.3626	76	53
98.3516	98.5436	77	50
98.5306	98.7266	79	55
98.7156	98.8976	77	50
98.8986	99.2806	82	59
99.0836	99.2806	74	50
99.2766	101.491	53	30
99.2766	99.4656	77	57
99.2796	101.492	60	30
99.2796	101.492	63	36
99.4586	99.6506	75	55
99.6466	99.8356	74	53
99.8256	100.025	72	51
100.011	100.203	70	49
100.194	100.382	69	47
100.386	100.575	67	50
100.571	100.761	65	43
100.757	100.946	64	50
100.935	101.124	65	43
101.12	101.31	67	50
101.306	101.495	69	45
101.496	101.586	70	50
101.498	101.587	58	34
101.499	101.587	62	40
101.863	101.957	70	48
101.864	101.957	62	38
101.866	101.961	58	32
102.248	102.353	74	48
102.249	102.353	58	32
102.249	102.354	65	38
102.675	103.053	58	34
102.675	103.052	70	50
102.679	103.057	62	40
103.333	103.379	70	44
103.424	103.529	72	50
103.518	103.616	70	43
103.613	103.711	69	45
103.697	103.812	70	42
103.801	104.166	79	56
104.17	104.547	51	25
104.17	104.544	58	30
104.173	104.548	55	25
104.452	104.498	70	44
104.551	104.642	72	50
104.639	104.736	70	43
104.726	104.831	69	45
104.82	104.932	70	42
104.922	105.283	77	55
105.286	105.661	50	25
105.286	105.661	53	25
105.287	105.661	58	30
105.566	105.615	70	44
105.664	105.765	72	50
105.755	105.856	70	43
105.846	105.951	69	45
105.937	106.055	70	42
106.041	106.409	72	52
106.046	107.176	57	29
106.046	107.547	65	34
106.41	106.787	77	49
106.788	107.176	75	48
107.177	107.547	73	55
107.179	107.551	58	34
107.551	107.75	74	49
107.848	107.897	70	44
107.943	108.044	72	50
108.037	108.135	70	43
108.128	108.226	69	45
108.212	108.33	70	42
108.32	108.684	79	56
108.688	109.062	51	25
108.689	109.063	55	25
108.689	109.063	58	30
108.967	109.017	70	44
109.066	109.161	72	50
109.157	109.254	70	43
109.241	109.346	69	45
109.335	109.451	70	42
109.44	109.801	77	55
109.801	110.176	50	25
109.802	110.176	53	25
109.802	110.179	58	30
110.084	110.13	70	44
110.179	110.28	72	50
110.269	110.375	70	43
110.361	110.466	69	45
110.456	110.57	70	42
110.563	111.705	72	52
110.568	111.705	53	29
110.568	111.705	57	34
110.929	111.705	60	31
110.929	111.705	75	49
111.307	111.705	63	29
111.307	111.705	69	48
111.701	112.066	62	34
111.701	112.062	70	55
111.702	112.066	58	28
112.797	112.986	70	64
112.797	112.986	74	64
112.798	112.986	55	73
112.798	112.986	79	77
113.178	113.364	67	64
113.179	113.364	43	66
113.934	114.078	69	63
113.935	114.078	50	73
113.935	114.078	66	63
113.935	114.078	74	75
114.319	114.547	62	67
114.323	114.547	38	66
115.076	115.831	63	43
115.079	116.209	51	20
115.079	115.447	55	33
115.261	115.636	58	23
115.447	115.822	55	27
115.636	115.831	58	22
115.822	116.209	55	26
115.822	115.912	65	36
115.912	116.105	63	36
116.008	116.209	62	36
116.01	116.209	58	22
116.105	116.209	63	36
116.206	116.584	72	42
116.207	117.347	50	20
116.207	116.577	56	36
116.392	116.577	70	37
116.393	116.584	58	23
116.577	116.949	56	27
116.577	116.948	70	43
116.76	117.138	58	23
116.948	117.338	70	38
116.949	117.347	56	27
117.138	117.347	58	24
117.338	117.711	70	39
117.34	118.468	51	20
117.34	117.711	55	33
117.522	117.711	75	45
117.525	117.711	58	23
117.708	118.089	74	44
117.711	118.082	55	27
117.894	118.089	73	42
117.896	118.089	58	23
118.079	118.468	72	40
118.082	118.468	55	27
118.258	118.468	71	38
118.261	118.468	58	25
118.464	119.581	50	20
118.464	119.581	70	41
118.467	118.834	56	33
118.649	119.02	58	27
118.834	119.206	56	27
119.02	119.391	58	24
119.206	119.581	56	27
119.391	119.581	58	23
119.578	120.332	63	45
119.58	120.714	51	21
119.58	119.948	55	35
119.763	120.133	58	24
119.948	120.323	55	28
120.133	120.332	58	23
120.323	120.714	55	27
120.323	120.409	65	42
120.414	120.606	63	39
120.508	120.714	58	23
120.508	120.714	62	42
120.606	120.714	63	40
120.704	121.085	72	54
120.708	121.845	50	21
120.708	121.076	53	38
120.889	121.075	71	48
120.893	121.085	56	24
121.075	121.445	71	53
121.076	121.449	53	32
121.26	121.642	56	28
121.445	121.845	71	47
121.449	121.845	53	32
121.642	121.845	56	27
121.838	122.965	51	23
121.838	122.216	72	50
121.839	122.209	55	37
122.02	122.216	79	58
122.023	122.216	60	32
122.205	122.59	75	56
122.209	122.581	55	34
122.394	122.59	74	54
122.395	122.59	60	29
122.58	122.966	72	51
122.581	122.966	55	30
122.765	122.966	70	49
122.766	122.966	60	28
122.964	124.085	69	50
122.965	124.085	51	23
122.965	123.147	53	37
123.147	123.518	60	30
123.333	123.703	53	30
123.518	123.889	60	27
123.703	124.079	53	30
123.889	124.085	60	26
124.078	125.206	50	27
124.078	124.456	70	59
124.079	124.449	53	44
124.264	124.456	60	30
124.264	124.456	86	62
124.449	124.821	53	36
124.449	124.83	82	61
124.634	124.83	81	60
124.635	124.83	60	30
124.82	125.206	79	58
124.821	125.206	53	36
124.999	125.206	77	57
125.001	125.206	60	33
125.204	126.325	76	62
125.205	126.325	48	27
125.205	125.387	55	44
125.387	125.758	58	36
125.576	125.943	55	36
125.758	126.129	58	31
125.943	126.325	55	36
126.129	126.325	58	30
126.318	126.69	77	52
126.319	127.449	50	27
126.319	126.69	53	44
126.504	126.696	81	58
126.505	126.696	57	28
126.69	127.063	53	36
126.69	127.07	77	56
126.875	127.07	76	55
126.876	127.07	57	28
127.06	127.449	74	53
127.063	127.449	53	35
127.246	127.449	72	51
127.248	127.449	57	27
127.444	128.561	71	56
127.445	128.561	55	37
127.448	127.627	62	37
127.627	128.001	65	36
127.816	128.183	62	36
128.001	128.369	65	30
128.183	128.561	62	36
128.369	128.561	65	30
128.557	128.939	60	44
128.558	128.94	64	44
128.656	128.754	72	46
128.754	128.848	71	49
128.849	128.94	72	44
128.943	129.037	74	49
129.037	129.131	72	44
129.132	129.222	71	49
129.223	129.321	72	44
129.321	129.699	70	45
129.415	129.601	72	49
129.51	129.699	76	54
129.601	129.699	72	49
129.695	130.07	69	52
129.786	129.972	72	53
129.882	130.07	77	57
129.972	130.07	72	52
130.067	130.437	64	55
130.153	130.339	72	55
130.246	130.437	82	61
130.339	130.437	72	57
130.431	130.822	65	54
130.521	130.718	72	57
130.619	130.822	81	64
130.718	130.822	72	57
130.816	131.197	60	54
130.816	131.197	79	65
130.914	131.197	76	60
131.004	131.197	74	65
131.095	131.197	72	60
131.193	131.284	71	57
131.284	131.375	72	59
131.379	131.469	74	60
131.473	131.564	72	56
131.564	131.949	70	50
131.662	131.849	72	49
131.757	131.949	76	53
131.849	131.949	72	49
131.946	132.328	69	55
132.04	132.233	72	52
132.139	132.328	77	58
132.233	132.328	72	54
132.324	132.705	64	59
132.418	132.607	72	55
132.51	132.705	82	61
132.607	132.705	72	55
132.702	133.081	65	55
132.793	132.986	72	49
132.887	133.081	81	68
132.986	133.081	72	62
133.08	133.921	60	61
133.08	133.265	79	73
133.171	134.221	84	62
133.265	133.545	79	69
133.357	133.637	76	57
133.452	133.731	72	67
133.545	134.221	79	55
133.637	134.221	76	61
133.731	133.92	72	54
133.829	134.015	67	63
133.92	134.221	72	55
133.921	134.217	60	47
134.015	134.221	67	65
134.016	134.221	55	54
134.113	134.221	64	59
134.116	134.221	52	47
134.217	134.424	60	74
134.218	134.424	48	60
134.616	135.057	67	62
134.617	135.058	64	62
134.619	135.058	72	73
134.62	135.061	36	59
135.505	136.271	53	34
136.254	136.663	48	30
136.667	137.423	45	34
137.409	137.815	48	32
137.816	138.56	53	34
138.001	138.046	84	45
138.179	138.228	84	49
138.365	138.414	84	43
138.553	138.599	84	46
138.554	138.946	57	36
138.75	138.796	84	40
138.946	139.145	86	45
138.949	139.317	60	38
139.132	139.331	84	40
139.32	139.512	82	43
139.505	139.702	81	40
139.691	139.887	79	45
139.88	140.073	77	39
140.073	140.842	58	34
140.073	140.118	77	41
140.119	140.17	79	39
140.171	140.265	77	49
140.266	140.457	76	44
140.458	140.825	76	46
140.829	141.245	55	30
141.246	142.001	52	34
141.984	142.39	55	32
142.39	143.145	58	34
142.575	142.621	82	45
142.76	142.806	82	48
142.946	142.985	82	42
143.124	143.177	82	44
143.129	143.52	64	36
143.321	143.377	82	40
143.52	143.719	84	45
143.521	143.898	67	38
143.705	143.905	82	40
143.898	144.09	81	40
144.083	144.273	79	40
144.269	144.465	77	45
144.455	144.665	76	39
144.665	145.039	69	35
144.665	145.407	77	47
144.851	145.219	72	28
145.039	145.405	69	35
145.218	145.407	81	47
145.219	145.407	72	25
145.404	145.778	79	45
145.405	145.778	69	32
145.586	145.778	72	24
145.586	145.778	77	40
145.775	146.523	76	47
145.778	146.146	70	35
145.96	146.331	72	31
146.146	146.514	70	35
146.331	146.523	72	26
146.331	146.523	86	52
146.513	146.888	84	47
146.514	146.888	70	33
146.699	146.888	76	42
146.701	146.888	72	29
146.885	147.255	69	35
146.885	147.629	77	47
147.07	147.444	72	30
147.255	147.623	69	32
147.44	147.629	81	47
147.444	147.629	72	24
147.623	148.001	69	32
147.623	148.001	79	45
147.808	148.001	72	25
147.808	148.001	77	40
147.997	148.739	76	47
148.0	148.365	70	35
148.179	148.551	72	31
148.365	148.732	70	35
148.55	148.739	86	52
148.551	148.739	72	26
148.729	149.11	84	47
148.732	149.11	70	33
148.917	149.11	76	42
148.918	149.11	72	29
149.107	149.849	77	47
149.11	149.475	69	35
149.285	149.664	72	30
149.475	149.845	69	32
149.664	149.849	72	28
149.664	149.849	84	55
149.845	150.22	69	38
149.845	150.22	81	53
150.024	150.22	79	50
150.027	150.22	72	31
150.216	150.961	78	56
150.219	151.329	62	40
150.22	150.583	69	40
150.401	150.769	72	34
150.583	150.955	69	38
150.766	150.961	87	58
150.769	150.961	72	32
150.955	151.329	69	39
150.955	151.329	86	52
151.134	151.329	78	48
151.137	151.329	72	32
151.325	151.701	81	56
151.326	151.701	67	39
151.329	151.701	70	39
151.508	151.701	79	51
151.697	152.071	84	55
151.7	152.439	72	35
151.701	152.071	64	35
151.875	152.071	83	51
152.062	152.439	82	50
152.064	152.439	65	35
152.242	152.439	81	49
152.435	152.819	79	54
152.436	152.819	58	43
152.439	152.819	70	43
152.712	152.819	81	48
152.813	153.251	77	54
152.814	153.597	60	40
152.816	153.597	69	40
153.195	153.597	67	40
153.195	153.32	76	50
153.251	153.38	77	44
153.32	153.433	76	50
153.38	153.573	77	44
153.433	153.524	76	50
153.478	153.597	74	42
153.524	153.597	76	45
153.573	153.975	65	40
153.573	153.663	77	49
153.663	153.85	72	46
153.758	153.975	71	49
153.85	153.975	72	44
153.943	154.035	74	49
154.035	154.139	72	44
154.126	154.318	71	49
154.129	154.318	57	48
154.221	154.318	72	44
154.314	154.497	70	49
154.315	154.497	55	52
154.406	154.497	72	49
154.494	154.714	69	54
154.496	154.714	53	48
154.587	154.714	72	49
154.687	154.776	67	49
154.689	155.091	52	46
154.78	154.962	72	46
154.872	155.091	71	49
154.962	155.091	72	44
155.057	155.147	74	49
155.148	155.252	72	44
155.243	155.434	71	49
155.245	155.434	62	45
155.337	155.434	72	44
155.431	155.61	60	50
155.431	155.607	82	49
155.516	155.61	72	49
155.607	155.826	82	54
155.609	155.826	52	45
155.708	155.826	72	49
155.799	155.893	81	49
155.802	156.204	53	40
155.894	156.079	72	46
155.984	156.204	71	49
156.079	156.204	72	44
156.173	156.26	74	49
156.264	156.368	72	44
156.358	156.547	71	49
156.359	156.547	57	49
156.45	156.547	72	44
156.545	156.73	55	53
156.545	156.73	70	49
156.628	156.73	72	49
156.723	156.943	69	54
156.726	156.943	53	47
156.821	156.943	72	49
156.915	157.006	67	49
156.919	157.321	52	55
157.006	157.192	72	46
157.1	157.321	71	49
157.192	157.321	72	44
157.286	157.376	74	49
157.38	157.482	72	44
157.472	157.661	62	45
157.472	157.661	71	49
157.566	157.661	72	44
157.658	157.839	82	49
157.661	157.84	60	50
157.744	157.84	72	49
157.839	158.059	82	54
157.84	158.059	52	45
157.934	158.059	72	49
158.028	158.119	81	49
158.032	158.434	53	40
158.122	158.308	72	46
158.214	158.434	71	49
158.308	158.434	72	44
158.402	158.493	74	49
158.493	158.595	72	44
158.585	158.777	71	49
158.588	158.777	60	49
158.679	158.777	72	44
158.773	158.963	75	49
158.774	158.963	57	54
158.865	158.963	72	49
158.955	159.176	70	54
158.956	159.176	55	45
159.051	159.176	72	49
159.144	159.235	69	49
159.145	159.547	54	50
159.236	159.429	74	46
159.334	159.547	73	49
159.429	159.547	74	44
159.523	159.614	76	49
159.614	159.722	74	44
159.712	159.901	73	52
159.715	159.901	63	45
159.806	159.901	74	44
159.895	160.082	62	50
159.895	160.079	84	55
159.985	160.082	74	49
160.079	160.272	84	57
160.082	160.272	54	45
160.177	160.272	74	49
160.269	160.647	83	62
160.272	160.647	55	42
160.363	160.548	62	33
160.454	160.647	59	36
160.548	160.647	62	33
160.643	161.02	52	38
160.643	161.02	82	60
160.734	160.912	61	33
160.828	161.02	55	36
160.912	161.02	61	33
161.007	161.423	81	57
161.01	161.423	53	39
161.104	161.291	60	33
161.199	161.423	57	37
161.291	161.423	60	37
161.384	161.664	79	60
161.388	161.767	46	31
161.389	161.767	58	37
161.476	161.767	86	52
161.57	161.767	82	52
161.664	161.767	79	52
161.763	162.04	77	62
161.766	162.144	48	31
161.766	162.144	57	37
161.854	162.144	84	52
161.949	162.144	81	52
162.04	162.144	77	52
162.137	162.522	46	31
162.137	162.417	76	62
162.138	162.522	55	37
162.225	162.522	82	52
162.32	162.522	79	52
162.417	162.522	76	52
162.519	162.896	77	54
162.52	162.896	45	34
162.522	162.896	53	40
162.61	162.89	81	57
162.708	162.896	84	61
162.795	162.896	82	60
162.89	163.274	81	58
162.981	163.274	79	56
163.072	163.274	77	54
163.166	163.274	76	52
163.265	163.67	60	37
163.265	163.67	74	55
163.268	163.67	57	31
163.358	163.67	72	51
163.45	163.67	70	50
163.544	163.67	69	50
163.645	164.023	67	50
163.646	164.023	58	37
163.646	164.023	62	44
163.733	164.016	70	53
163.828	164.023	74	56
163.922	164.023	72	55
164.016	164.389	70	54
164.108	164.389	69	53
164.199	164.389	67	52
164.294	164.389	65	50
164.384	164.763	64	49
164.385	164.763	50	31
164.388	164.763	53	31
164.388	164.763	55	37
164.479	164.763	62	50
164.57	164.762	60	53
164.664	164.763	59	56
164.762	165.137	48	45
164.762	165.899	60	59
164.856	165.043	57	37
164.948	165.899	72	59
164.951	165.322	53	40
165.043	165.228	57	37
165.133	165.899	77	61
165.137	165.508	48	45
165.228	165.414	57	37
165.318	165.899	81	62
165.322	165.693	53	40
165.414	165.599	57	37
165.508	165.883	48	48
165.508	165.899	84	64
165.599	165.784	57	37
165.69	165.899	89	65
165.693	165.899	53	41
165.784	165.899	57	37
165.883	166.275	48	45
165.883	165.984	79	37
165.932	166.029	81	31
165.984	166.075	79	37
165.985	166.176	58	37
166.029	166.127	81	31
166.075	166.173	79	37
166.077	166.275	52	40
166.127	166.222	81	32
166.173	166.274	79	37
166.176	166.275	58	37
166.222	166.275	81	33
166.274	166.366	79	37
166.275	166.652	48	45
166.32	166.411	81	32
166.366	166.466	79	37
166.369	166.561	58	37
166.411	166.512	81	32
166.466	166.558	79	37
166.467	166.666	52	40
166.512	166.604	81	31
166.558	166.65	79	37
166.561	166.666	58	37
166.604	166.666	81	33
166.65	166.701	79	37
166.652	167.055	48	48
166.701	166.807	81	32
166.75	166.936	58	37
166.75	166.87	79	37
166.807	167.055	81	32
166.842	167.055	52	41
166.87	166.986	79	37
166.935	167.034	77	33
166.936	167.055	58	37
166.986	167.055	79	33
167.034	167.46	77	49
167.035	167.268	53	41
167.257	167.471	57	28
167.461	167.664	60	35
167.657	167.863	65	34
167.856	168.059	64	32
168.048	168.255	63	30
168.248	168.647	82	46
168.252	168.647	62	28
168.444	168.647	65	21
168.637	169.029	60	31
168.637	169.029	84	50
168.826	169.029	65	24
169.018	169.411	86	51
169.022	169.411	58	31
169.215	169.411	65	25
169.407	169.991	84	51
169.408	169.991	57	31
169.606	169.991	65	28
169.796	169.991	64	31
169.988	170.19	86	48
169.991	170.19	65	28
170.086	170.19	84	43
170.18	170.576	82	50
170.181	170.576	58	31
170.278	170.573	81	48
170.377	170.576	79	47
170.379	170.576	67	27
170.475	170.576	77	45
170.573	171.35	81	48
170.576	171.35	60	31
170.765	171.15	69	27
170.957	171.35	65	31
171.15	171.35	69	29
171.15	171.35	82	40
171.349	171.737	79	44
171.35	171.737	60	31
171.538	171.737	70	27
171.735	172.126	77	46
171.737	171.93	69	31
171.93	172.129	65	24
172.13	172.318	64	30
172.323	172.511	63	26
172.511	172.703	62	29
172.704	172.9	61	31
172.9	173.294	70	52
172.902	173.294	62	28
173.093	173.294	82	47
173.095	173.294	65	27
173.285	173.676	72	54
173.287	173.676	60	38
173.484	173.676	64	32
173.484	173.676	84	47
173.673	174.06	74	58
173.675	174.06	59	40
173.866	174.06	86	52
173.869	174.06	68	34
174.057	174.639	84	61
174.058	174.639	57	41
174.255	174.635	86	54
174.257	174.639	69	35
174.345	174.545	88	58
174.448	174.639	65	38
174.448	174.639	89	61
174.545	174.639	88	61
174.635	174.839	86	60
174.639	174.839	69	33
174.736	174.839	84	58
174.828	175.227	82	57
174.831	175.226	60	40
174.927	175.223	81	55
175.027	175.227	69	35
175.027	175.227	79	54
175.125	175.227	77	52
175.223	175.997	81	62
175.226	175.996	60	41
175.412	175.8	69	33
175.605	175.997	65	43
175.798	175.997	82	56
175.8	175.997	69	33
175.993	176.386	79	62
175.996	176.386	60	45
176.186	176.386	70	38
176.386	176.784	77	67
176.479	176.784	53	54
176.581	176.784	57	56
176.679	176.784	60	59
176.778	177.165	65	61
176.871	177.064	84	60
176.97	177.165	86	65
177.064	177.165	84	60
177.155	177.575	60	54
177.155	177.348	82	64
177.159	177.575	64	54
177.253	177.575	81	62
177.348	177.575	82	60
177.456	177.575	79	58
177.574	177.967	77	68
177.669	177.967	41	54
177.771	177.967	45	56
177.862	177.967	48	59
177.964	178.355	53	61
178.054	178.247	72	60
178.155	178.355	74	65
178.247	178.355	72	60
178.345	178.538	70	64
178.346	178.761	48	54
178.348	178.761	52	54
178.436	178.761	69	62
178.538	178.761	70	60
178.646	178.761	67	58
178.758	179.475	65	71
178.759	179.475	53	59
179.206	179.657	69	59
179.207	179.657	72	59
179.209	179.661	41	59
179.209	179.658	77	77
180.094	180.878	66	71
180.099	180.878	51	59
180.589	181.071	68	59
180.589	181.074	72	59
180.592	181.075	39	59
180.592	181.075	78	77
181.554	182.31	61	43
181.555	182.693	49	20
181.555	181.929	53	33
181.74	182.118	56	23
181.929	182.301	53	27
182.118	182.31	56	22
182.301	182.693	53	26
182.301	182.397	63	36
182.398	182.59	61	36
182.486	182.693	60	36
182.487	182.693	56	22
182.59	182.693	61	36
182.692	183.826	48	20
182.692	183.056	54	36
182.692	183.062	70	42
182.868	183.053	68	37
182.87	183.062	56	23
183.053	183.427	68	43
183.056	183.428	54	27
183.238	183.623	56	23
183.427	183.815	68	38
183.428	183.826	54	27
183.623	183.826	56	24
183.815	184.197	68	39
183.819	184.946	49	20
183.819	184.19	53	33
184.005	184.197	73	45
184.008	184.197	56	23
184.186	184.568	72	44
184.19	184.558	53	27
184.372	184.568	71	41
184.375	184.568	56	23
184.558	184.946	53	27
184.558	184.946	70	40
184.742	184.946	69	38
184.746	184.946	56	25
184.943	186.066	68	41
184.945	186.066	48	20
184.946	185.314	54	31
185.125	185.499	56	27
185.314	185.685	54	27
185.499	185.871	56	24
185.685	186.066	54	27
185.871	186.066	56	23
186.055	186.808	61	45
186.058	187.193	49	21
186.058	186.426	53	35
186.241	186.612	56	24
186.426	186.808	53	28
186.612	186.808	56	23
186.804	186.892	63	42
186.808	187.193	53	27
186.892	187.082	61	39
186.99	187.193	60	42
186.993	187.193	56	23
187.082	187.193	61	40
187.183	187.563	70	54
187.186	188.323	48	21
187.186	187.555	51	38
187.369	187.563	54	24
187.369	187.554	69	48
187.554	187.925	69	53
187.555	187.927	51	32
187.736	188.12	54	28
187.925	188.323	69	47
187.927	188.323	51	32
188.12	188.323	54	27
188.313	188.694	70	50
188.317	189.443	49	23
188.317	188.688	53	37
188.499	188.694	77	54
188.502	188.694	58	32
188.687	189.065	73	55
188.688	189.058	53	34
188.873	189.065	58	29
188.873	189.065	72	53
189.056	189.443	70	51
189.058	189.443	53	30
189.241	189.443	68	50
189.244	189.443	58	28
189.441	190.563	67	50
189.443	190.563	52	23
189.443	189.625	58	37
189.626	189.996	61	30
189.812	190.181	58	30
189.996	190.367	61	27
190.181	190.563	58	30
190.367	190.563	61	26
190.553	190.934	68	59
190.556	191.687	53	25
190.557	190.928	56	40
190.746	190.934	80	62
190.749	190.934	60	28
190.927	191.305	77	61
190.928	191.299	56	33
191.113	191.305	60	28
191.113	191.305	75	60
191.299	191.687	56	36
191.299	191.687	74	58
191.484	191.687	72	57
191.485	191.684	62	32
191.683	192.806	55	36
191.683	192.806	71	62
191.684	191.865	62	36
191.866	192.237	65	29
192.052	192.422	62	34
192.237	192.607	65	28
192.422	192.806	62	35
192.607	192.806	65	28
192.797	193.927	56	42
192.797	193.168	72	61
192.798	193.168	60	42
192.982	193.168	63	26
192.982	193.168	87	64
193.164	193.549	84	61
193.168	193.539	60	38
193.353	193.549	63	31
193.353	193.549	82	60
193.538	193.927	80	55
193.539	193.924	60	38
193.717	193.927	79	56
193.721	193.927	63	35
193.923	195.046	57	41
193.923	195.046	78	60
193.924	194.098	60	41
194.102	194.477	62	33
194.294	194.662	60	37
194.477	194.847	62	28
194.662	195.046	60	35
194.847	195.04	62	28
195.037	196.168	58	22
195.037	195.408	79	58
195.04	195.409	62	36
195.229	195.417	82	60
195.23	195.417	67	29
195.408	195.789	79	58
195.409	195.782	62	34
195.594	195.789	67	28
195.594	195.789	77	55
195.779	196.168	75	53
195.782	196.168	62	34
195.961	196.167	67	27
195.961	196.168	74	50
196.163	197.28	73	57
196.164	197.28	63	29
196.167	196.345	67	36
196.346	196.72	69	28
196.534	196.905	67	34
196.72	197.091	69	27
196.905	197.28	67	34
197.091	197.28	69	25
197.277	197.657	62	44
197.277	197.658	66	44
197.374	197.472	74	46
197.473	197.564	73	49
197.564	197.658	74	44
197.662	197.756	76	49
197.757	197.85	74	44
197.85	197.949	73	49
197.949	198.042	74	44
198.043	198.417	72	47
198.134	198.32	74	49
198.229	198.417	78	54
198.32	198.417	74	49
198.414	198.788	70	51
198.505	198.694	74	53
198.6	198.788	79	57
198.694	198.788	74	52
198.785	199.163	66	58
198.88	199.066	74	55
198.971	199.163	84	61
199.066	199.163	74	57
199.156	199.541	67	54
199.246	199.439	74	57
199.345	199.541	82	64
199.439	199.541	74	57
199.538	199.922	81	64
199.541	199.922	62	53
199.632	199.922	78	57
199.726	199.922	76	63
199.817	199.922	74	57
199.918	200.01	73	57
200.011	200.101	74	59
200.104	200.196	76	60
200.196	200.286	74	56
200.289	200.678	72	48
200.381	200.574	74	49
200.483	200.678	78	53
200.574	200.678	74	49
200.672	201.053	70	57
200.762	200.955	74	52
200.861	201.053	79	58
200.955	201.053	74	54
201.049	201.431	66	59
201.141	201.334	74	55
201.242	201.431	84	61
201.334	201.431	74	55
201.427	201.806	67	54
201.518	201.704	74	49
201.614	201.806	82	68
201.704	201.806	74	62
201.802	201.992	81	70
201.806	202.643	62	58
201.897	202.94	86	60
201.992	202.268	81	69
202.082	202.362	78	57
202.177	202.453	74	67
202.268	202.94	81	55
202.362	202.94	78	61
202.453	202.642	74	54
202.549	202.74	69	63
202.642	202.94	74	55
202.643	202.937	62	47
202.74	202.94	69	65
202.741	202.94	57	54
202.839	202.94	54	47
202.839	202.94	66	59
202.937	203.149	62	74
202.939	203.149	50	60
203.338	203.783	69	62
203.342	203.783	66	62
203.343	203.784	74	73
203.345	203.787	38	59
204.231	204.994	55	34
204.976	205.39	50	30
205.39	206.145	47	34
206.134	206.541	50	32
206.542	207.287	55	34
206.727	206.771	86	45
206.905	206.95	86	49
207.091	207.136	86	43
207.272	207.672	59	36
207.272	207.325	86	46
207.472	207.521	86	40
207.672	207.871	87	45
207.673	208.042	62	38
207.857	208.049	86	40
208.043	208.242	84	43
208.228	208.424	83	40
208.413	208.613	80	45
208.606	208.798	79	39
208.799	209.569	55	34
208.799	208.844	79	41
208.845	208.897	80	39
208.9	208.99	79	49
208.991	209.18	77	44
209.183	209.555	77	46
209.555	209.964	50	30
209.964	210.727	47	34
210.706	211.112	50	32
211.115	211.868	55	34
211.3	211.346	77	45
211.487	211.532	77	48
211.665	211.71	77	42
211.851	211.902	77	44
211.854	212.246	59	36
212.05	212.102	77	40
212.246	212.616	62	38
212.246	212.442	79	45
212.431	212.631	77	40
212.617	212.817	75	40
212.81	213.002	74	40
212.995	213.19	72	45
213.181	213.39	71	39
213.39	214.154	72	48
214.14	214.548	67	42
214.549	215.312	63	48
215.294	215.701	67	45
215.701	216.45	72	50
215.886	215.931	55	39
216.065	216.114	55	42
216.25	216.295	55	37
216.436	216.831	75	52
216.439	216.484	55	39
216.635	216.681	55	35
216.832	217.202	79	56
216.834	217.024	56	39
217.017	217.216	55	35
217.205	217.402	53	37
217.388	217.587	51	35
217.58	217.775	50	39
217.765	217.958	48	34
217.958	218.732	76	58
217.961	218.154	48	35
218.157	218.34	46	38
218.343	218.714	46	39
218.714	219.13	72	52
219.131	219.886	67	55
219.865	220.275	72	49
220.275	221.027	76	53
220.46	220.506	58	39
220.646	220.692	58	41
220.831	220.87	58	36
221.01	221.405	79	54
221.014	221.063	58	38
221.21	221.262	58	35
221.406	221.783	82	58
221.409	221.602	60	39
221.595	221.79	58	35
221.784	221.976	56	35
221.969	222.161	55	35
222.147	222.347	53	39
222.336	222.543	52	34
222.543	223.299	53	40
222.728	222.774	80	45
222.914	222.963	80	49
223.096	223.141	80	43
223.281	223.33	80	46
223.478	223.527	80	40
223.677	223.873	82	45
223.678	224.801	58	28
223.678	224.048	62	28
223.681	224.048	65	34
223.863	224.058	80	40
224.049	224.243	79	43
224.051	224.419	63	28
224.052	224.42	67	34
224.234	224.429	77	40
224.42	224.618	75	45
224.422	224.801	65	28
224.423	224.804	69	34
224.611	224.804	74	39
224.808	225.172	63	28
224.809	225.175	67	34
224.986	225.035	79	45
225.175	225.214	79	49
225.353	225.399	79	43
225.539	225.584	79	46
225.738	225.784	79	40
225.934	226.131	80	45
225.935	227.062	56	28
225.938	226.305	60	28
225.939	226.309	63	34
226.12	226.316	79	40
226.309	226.502	77	43
226.31	226.676	62	28
226.312	226.676	65	34
226.491	226.69	75	40
226.677	226.876	74	45
226.68	227.062	63	28
226.681	227.063	67	34
226.862	227.063	72	39
227.065	227.426	62	28
227.065	227.426	65	34
227.247	227.292	77	45
227.429	227.474	77	49
227.614	227.66	77	43
227.79	227.845	77	46
227.996	228.042	77	40
228.192	228.381	79	51
228.193	229.312	55	28
228.196	228.566	59	28
228.196	228.567	62	34
228.378	228.571	77	50
228.567	228.934	60	28
228.567	228.756	75	49
228.57	228.934	63	34
228.749	228.941	74	48
228.937	229.134	72	47
228.938	229.312	62	28
228.941	229.316	65	34
229.119	229.316	71	47
229.319	229.69	60	30
229.319	229.511	77	56
229.32	229.69	63	37
229.497	229.694	75	54
229.694	229.882	74	52
229.875	230.065	72	51
230.061	230.439	53	30
230.061	230.253	70	49
230.065	230.44	63	37
230.246	230.44	69	47
230.442	230.635	84	60
230.443	230.81	55	30
230.443	230.811	62	37
230.625	230.824	82	58
230.813	231.006	81	56
230.996	231.195	79	54
231.181	231.377	77	54
231.185	231.566	63	30
231.185	231.566	67	37
231.374	231.567	76	57
231.57	231.944	77	61
231.755	231.804	65	42
231.944	231.99	65	45
232.122	232.168	65	39
232.308	232.704	69	45
232.308	232.704	75	55
232.312	232.354	65	41
232.507	232.557	65	38
232.704	233.074	70	45
232.708	232.9	66	42
232.708	233.075	73	60
232.889	233.085	65	38
233.075	233.271	63	38
233.26	233.459	61	38
233.445	233.841	73	45
233.449	233.841	82	55
233.45	233.642	60	42
233.631	233.842	58	37
233.845	234.212	72	45
233.846	234.212	81	61
234.033	234.079	53	42
234.216	234.258	53	45
234.397	234.443	53	39
234.583	234.978	63	45
234.583	234.979	69	55
234.587	234.632	53	41
234.779	234.828	53	38
234.979	235.349	61	45
234.983	235.175	54	42
234.983	235.35	70	60
235.164	235.363	53	38
235.354	235.546	51	38
235.535	235.731	49	38
235.724	236.116	58	45
235.725	235.92	48	42
235.725	236.116	61	55
235.906	236.117	46	37
236.12	236.319	57	45
236.121	236.505	41	42
236.121	236.32	60	60
236.32	236.368	65	45
236.505	236.55	65	49
236.69	236.732	65	43
236.872	236.921	65	46
237.068	237.121	65	40
237.265	240.047	53	29
237.265	237.45	64	44
237.268	240.048	57	29
237.268	240.047	63	37
237.453	237.649	65	40
237.65	237.835	67	45
237.835	238.034	65	40
238.035	238.224	70	43
238.224	238.416	69	40
238.416	238.608	74	44
238.609	238.808	72	40
238.808	239.0	75	45
239.001	239.217	74	40
239.218	239.413	79	45
239.417	239.623	77	40
239.624	240.26	77	45
240.261	240.481	76	40
240.481	240.701	75	43
240.705	240.921	72	40
240.922	241.688	70	48
240.925	241.688	58	33
241.675	242.094	53	31
241.675	242.094	65	41
242.086	242.85	62	48
242.087	242.85	50	37
242.83	243.246	53	38
242.83	243.246	65	44
243.235	244.002	70	48
243.236	244.002	58	41
243.978	244.377	74	51
243.981	244.377	62	43
244.373	245.167	77	56
244.374	245.167	65	43
245.122	245.497	82	58
245.307	245.497	74	51
245.493	245.682	77	56
245.494	247.68	63	36
245.496	247.681	53	30
245.497	247.681	60	30
245.675	245.864	75	52
245.85	246.043	74	51
246.035	246.221	72	49
246.217	246.409	70	48
246.395	246.581	69	47
246.581	246.773	67	50
246.763	246.956	65	44
246.949	247.141	64	44
247.127	247.32	65	45
247.309	247.502	67	47
247.495	247.683	69	50
247.684	248.047	58	32
247.684	247.725	70	50
247.687	248.048	62	38
247.817	247.859	72	45
247.862	247.954	70	49
247.954	248.048	69	46
248.049	248.086	70	50
248.226	248.272	72	47
248.404	248.454	74	49
248.594	248.64	75	51
248.783	248.976	76	53
248.962	249.161	77	50
249.147	249.339	79	55
249.328	249.514	77	50
249.514	249.893	82	59
249.696	249.893	74	50
249.889	252.104	53	30
249.889	252.104	60	30
249.889	250.081	77	57
249.89	252.105	63	36
250.071	250.266	75	55
250.257	250.456	74	53
250.442	250.634	72	51
250.623	250.82	70	49
250.809	250.994	69	47
250.995	251.191	67	50
251.181	251.38	65	43
251.366	251.555	64	50
251.551	251.744	65	43
251.737	251.929	67	50
251.915	252.105	69	45
252.108	252.195	70	50
252.109	252.199	58	34
252.111	252.199	62	40
252.476	252.574	62	38
252.476	252.573	70	48
252.477	252.576	58	32
252.863	252.969	74	48
252.864	252.97	58	32
252.867	252.97	65	38
253.287	253.665	70	50
253.288	253.666	58	34
253.291	253.666	62	40
253.949	253.994	70	44
254.043	254.142	72	50
254.135	254.232	70	43
254.221	254.32	69	45
254.313	254.425	70	42
254.422	254.786	79	56
254.786	255.163	58	30
254.789	255.164	51	25
254.789	255.164	55	25
255.066	255.11	70	44
255.166	255.261	72	50
255.251	255.349	70	43
255.342	255.444	69	45
255.437	255.545	70	42
255.541	255.898	77	55
255.903	256.269	50	25
255.903	256.269	53	25
255.904	256.273	58	30
256.178	256.224	70	44
256.273	256.375	72	50
256.371	256.468	70	43
256.465	256.567	69	45
256.556	256.672	70	42
256.661	257.784	57	29
256.661	257.026	72	52
256.662	258.163	65	34
257.026	257.396	77	49
257.4	257.789	75	48
257.789	258.167	58	34
257.789	258.166	73	55
258.167	258.362	74	49
258.467	258.513	70	44
258.558	258.657	72	50
258.653	258.751	70	43
258.736	258.842	69	45
258.831	258.947	70	42
258.937	259.301	79	56
259.304	259.679	51	25
259.305	259.682	55	25
259.305	259.682	58	30
259.588	259.626	70	44
259.682	259.776	72	50
259.766	259.871	70	43
259.857	259.959	69	45
259.951	260.063	70	42
260.056	260.417	77	55
260.418	260.791	50	25
260.418	260.791	53	25
260.42	260.795	58	30
260.696	260.742	70	44
260.795	260.893	72	50
260.886	260.988	70	43
260.98	261.085	69	45
261.071	261.187	70	42
261.176	262.315	53	29
261.176	262.315	72	52
261.177	262.315	57	34
261.544	262.315	75	49
261.548	262.315	60	31
261.922	262.315	69	48
261.925	262.315	63	29
262.312	262.674	70	55
262.314	262.675	58	28
262.314	262.675	62	34
263.406	263.598	74	64
263.407	263.598	70	64
263.409	263.598	79	77
263.41	263.598	55	73
263.787	263.98	43	66
263.787	263.98	67	64
264.544	264.694	66	63
264.544	264.694	69	63
264.547	264.694	50	73
264.547	264.694	74	75
264.932	265.163	62	67
264.933	265.163	38	66
265.684	266.448	63	43
265.688	266.826	51	20
265.689	266.066	55	33
265.874	266.252	58	23
266.066	266.441	55	27
266.252	266.448	58	22
266.438	266.527	65	36
266.441	266.826	55	26
266.532	266.721	63	36
266.623	266.826	62	36
266.626	266.826	58	22
266.721	266.826	63	36
266.823	267.957	50	20
266.823	267.196	72	42
266.826	267.195	56	36
267.007	267.194	70	37
267.008	267.196	58	23
267.194	267.565	70	43
267.195	267.565	56	27
267.375	267.753	58	23
267.565	267.957	56	27
267.565	267.953	70	38
267.753	267.957	58	24
267.953	268.328	70	39
267.956	269.073	51	20
267.957	268.327	55	33
268.138	268.328	75	45
268.142	268.328	58	23
268.327	268.691	55	27
268.327	268.691	74	44
268.506	268.691	73	42
268.507	268.691	58	23
268.689	269.073	72	40
268.691	269.073	55	27
268.87	269.073	71	38
268.873	269.073	58	25
269.069	270.192	50	20
269.069	270.192	70	41
269.073	269.445	56	33
269.258	269.63	58	27
269.445	269.815	56	27
269.63	270.0	58	24
269.815	270.192	56	27
270.0	270.192	58	23
270.186	270.938	63	45
270.19	271.323	51	21
270.19	270.56	55	35
270.371	270.746	58	24
270.56	270.931	55	28
270.746	270.938	58	23
270.931	271.323	55	27
270.931	271.022	65	42
271.022	271.215	63	39
271.117	271.323	62	42
271.118	271.323	58	23
271.215	271.323	63	40
271.316	272.457	50	21
271.316	271.694	72	54
271.317	271.687	53	38
271.499	271.685	71	48
271.501	271.694	56	24
271.685	272.059	71	53
271.687	272.059	53	32
271.87	272.254	56	28
272.059	272.457	53	32
272.059	272.457	71	47
272.254	272.457	56	27
272.447	272.828	72	50
272.45	273.577	51	23
272.451	272.821	55	37
272.632	272.828	79	58
272.633	272.828	60	32
272.818	273.199	75	56
272.821	273.19	55	34
273.004	273.199	74	54
273.007	273.199	60	29
273.19	273.577	55	30
273.19	273.577	72	51
273.371	273.575	60	28
273.371	273.577	70	49
273.574	274.691	54	23
273.574	274.691	69	50
273.575	273.755	60	37
273.756	274.13	63	30
273.945	274.312	60	30
274.13	274.501	63	27
274.312	274.691	60	30
274.501	274.691	63	26
274.687	275.068	70	59
274.688	275.81	55	27
274.69	275.061	58	44
274.872	275.068	86	62
274.876	275.068	62	30
275.058	275.432	82	61
275.061	275.425	58	36
275.244	275.432	81	60
275.247	275.432	62	30
275.422	275.81	79	58
275.425	275.81	58	36
275.61	275.81	77	57
275.611	275.81	62	33
275.808	276.924	76	62
275.81	276.924	60	27
275.81	275.992	67	44
275.993	276.364	70	36
276.181	276.549	67	36
276.364	276.734	70	31
276.549	276.924	67	36
276.734	276.924	70	30
276.92	277.304	65	44
276.924	277.305	69	44
277.021	277.112	77	46
277.112	277.21	76	49
277.21	277.305	77	44
277.306	277.403	79	49
277.404	277.494	77	44
277.494	277.588	76	49
277.589	277.686	77	44
277.687	278.064	75	46
277.774	277.967	77	49
277.872	278.064	81	54
277.967	278.064	77	49
278.057	278.435	74	52
278.148	278.338	77	53
278.247	278.435	82	57
278.338	278.435	77	52
278.432	278.806	69	56
278.523	278.709	77	55
278.618	278.806	87	61
278.709	278.806	77	57
278.799	279.187	70	53
278.887	279.079	77	57
278.988	279.187	86	64
279.079	279.187	77	57
279.185	279.565	65	59
279.185	279.565	84	65
279.279	279.565	81	60
279.37	279.565	79	65
279.461	279.565	77	60
279.558	279.649	76	57
279.65	279.741	77	59
279.741	279.831	79	60
279.836	279.926	77	56
279.929	280.315	75	51
280.024	280.217	77	49
280.122	280.315	81	53
280.217	280.315	77	49
280.311	280.7	74	57
280.402	280.595	77	52
280.504	280.7	82	58
280.595	280.7	77	54
280.689	281.071	69	59
280.783	280.973	77	55
280.882	281.071	87	61
280.973	281.071	77	55
281.067	281.446	70	54
281.158	281.351	77	49
281.252	281.446	86	68
281.351	281.446	77	62
281.442	281.628	84	73
281.443	282.286	65	62
281.544	282.584	89	62
281.628	281.908	84	69
281.729	282.002	81	57
281.816	282.1	77	67
281.908	282.584	84	55
282.002	282.584	81	61
282.1	282.285	77	54
282.191	282.38	72	63
282.285	282.584	77	55
282.286	282.58	65	47
282.38	282.584	60	54
282.38	282.584	72	65
282.478	282.584	57	47
282.478	282.584	69	59
282.58	282.785	65	74
282.583	282.785	53	60
282.982	283.423	69	62
282.982	283.422	72	62
282.983	283.426	41	59
282.983	283.423	77	73
283.871	284.634	58	34
284.616	285.03	53	30
285.03	285.788	50	34
285.774	286.181	53	32
286.182	286.933	58	34
286.362	286.411	77	45
286.552	286.597	77	49
286.73	286.775	77	43
286.916	286.965	77	46
286.919	287.311	62	36
287.112	287.164	77	40
287.312	287.682	65	38
287.312	287.511	79	45
287.497	287.692	77	40
287.683	287.878	75	43
287.875	288.063	74	40
288.06	288.256	72	45
288.245	288.438	70	39
288.438	288.491	70	41
288.439	289.216	51	34
288.491	288.536	72	39
288.536	288.634	70	49
288.635	288.82	69	44
288.823	289.191	69	46
289.191	289.61	48	30
289.611	290.363	45	34
290.353	290.759	48	32
290.759	291.508	51	34
290.944	290.986	75	45
291.126	291.172	75	48
291.311	291.357	75	42
291.498	291.885	57	36
291.498	291.542	75	44
291.686	291.739	75	40
291.886	292.26	60	38
291.886	292.082	77	45
292.078	292.267	75	40
292.261	292.46	74	40
292.449	292.645	72	40
292.631	292.83	70	45
292.82	293.03	69	39
293.03	293.773	70	47
293.031	293.402	62	35
293.216	293.59	65	28
293.402	293.77	62	35
293.587	293.773	74	47
293.59	293.773	65	25
293.769	294.147	72	45
293.77	294.147	62	32
293.954	294.147	70	40
293.955	294.147	65	24
294.144	294.885	69	47
294.147	294.511	63	35
294.329	294.697	65	31
294.511	294.884	63	35
294.696	294.885	79	52
294.697	294.885	65	26
294.883	295.257	77	47
294.884	295.257	63	33
295.064	295.257	65	29
295.064	295.257	69	42
295.256	295.995	70	47
295.257	295.625	62	35
295.439	295.806	65	30
295.625	295.992	62	32
295.803	295.995	74	47
295.806	295.995	65	24
295.991	296.366	72	45
295.992	296.366	62	32
296.17	296.366	70	40
296.173	296.366	65	25
296.364	297.104	69	47
296.366	296.734	63	35
296.549	296.915	65	31
296.734	297.102	63	35
296.915	297.104	65	26
296.915	297.104	78	52
297.101	297.475	77	47
297.102	297.475	63	33
297.28	297.475	69	42
297.283	297.475	65	29
297.473	298.217	70	47
297.474	297.844	61	35
297.658	298.03	65	30
297.844	298.21	61	32
298.029	298.217	77	55
298.03	298.217	65	28
298.208	298.589	73	53
298.21	298.589	61	38
298.396	298.589	65	31
298.396	298.589	72	50
298.586	299.326	71	56
298.588	299.699	55	40
298.589	298.953	62	40
298.766	299.138	65	34
298.953	299.32	62	38
299.135	299.326	80	58
299.138	299.326	65	32
299.32	299.699	62	39
299.32	299.699	79	52
299.505	299.699	71	48
299.506	299.699	65	32
299.697	300.072	74	56
299.698	300.072	60	39
299.698	300.072	63	39
299.88	300.072	72	51
300.062	300.436	57	35
300.062	300.808	65	35
300.062	300.436	77	55
300.248	300.436	76	51
300.434	300.808	58	35
300.434	300.808	75	50
300.612	300.808	74	49
300.804	301.186	72	54
300.807	301.186	51	43
300.808	301.186	63	43
301.077	301.186	74	48
301.182	301.623	70	54
301.185	301.969	53	40
301.185	301.969	62	40
301.56	301.969	60	40
301.56	301.687	69	50
301.623	301.75	70	44
301.687	301.795	69	50
301.75	301.944	70	44
301.795	301.893	69	50
301.843	301.969	67	42
301.893	301.969	69	45
301.944	302.032	70	49
301.945	302.34	58	40
302.033	302.222	65	46
302.127	302.34	64	49
302.222	302.34	65	44
302.313	302.403	67	49
302.404	302.509	65	44
302.498	302.69	64	49
302.499	302.69	50	45
302.593	302.69	65	44
302.68	302.869	63	49
302.681	302.869	48	50
302.771	302.869	65	49
302.866	303.082	46	45
302.866	303.082	62	54
302.957	303.082	65	49
303.058	303.146	60	49
303.059	303.453	45	40
303.149	303.335	65	46
303.24	303.453	64	49
303.335	303.453	65	44
303.429	303.621	67	49
303.52	303.621	65	44
303.615	303.804	55	45
303.615	303.804	64	49
303.705	303.804	65	44
303.793	303.979	75	49
303.797	303.982	53	50
303.884	303.982	65	49
303.979	304.195	75	54
303.982	304.195	45	45
304.069	304.195	65	49
304.171	304.261	74	49
304.172	304.569	46	40
304.262	304.448	77	46
304.357	304.569	76	49
304.448	304.569	77	44
304.542	304.633	79	49
304.634	304.738	77	44
304.724	304.919	76	49
304.727	304.919	62	48
304.819	304.919	77	44
304.909	305.096	75	49
304.91	305.096	60	52
305.0	305.096	77	49
305.095	305.312	58	48
305.095	305.312	74	54
305.186	305.312	77	49
305.287	305.375	72	49
305.288	305.683	57	48
305.378	305.564	77	46
305.47	305.683	76	49
305.564	305.683	77	44
305.656	305.746	79	49
305.746	305.85	77	44
305.841	306.033	76	49
305.843	306.033	67	49
305.935	306.033	77	44
306.023	306.208	87	49
306.026	306.211	65	50
306.114	306.211	77	49
306.208	306.425	87	54
306.209	306.425	57	46
306.3	306.425	77	49
306.401	306.799	58	50
306.401	306.491	86	49
306.492	306.677	77	46
306.587	306.799	76	49
306.677	306.799	77	44
306.772	306.967	79	49
306.863	306.967	77	44
306.957	307.145	76	49
306.958	307.145	65	50
307.048	307.145	77	44
307.136	307.324	80	49
307.138	307.324	62	54
307.231	307.324	77	49
307.322	307.541	75	54
307.324	307.541	60	51
307.419	307.541	77	49
307.514	307.608	74	49
307.517	307.919	59	54
307.608	307.79	79	46
307.699	307.919	78	49
307.79	307.919	79	44
307.885	307.982	81	49
307.982	308.087	79	44
308.081	308.266	78	52
308.083	308.266	68	45
308.169	308.266	79	44
308.263	308.448	89	55
308.266	308.452	67	50
308.357	308.452	79	49
308.448	308.644	89	57
308.451	308.644	59	45
308.543	308.644	79	49
308.641	309.014	88	62
308.644	309.014	60	42
308.732	308.914	67	33
308.82	309.014	64	36
308.914	309.014	67	33
309.005	309.386	87	60
309.008	309.386	57	38
309.098	309.284	66	33
309.191	309.386	60	36
309.284	309.386	66	33
309.379	309.754	86	57
309.38	309.795	58	39
309.471	309.663	65	33
309.564	309.795	62	37
309.663	309.795	65	37
309.754	310.136	86	60
309.756	310.136	51	31
309.757	310.136	63	37
309.849	310.03	84	52
309.939	310.136	87	52
310.03	310.132	84	52
310.132	310.507	84	62
310.135	310.507	53	31
310.136	310.507	62	37
310.226	310.408	82	52
310.317	310.507	86	52
310.408	310.503	82	52
310.503	310.884	82	62
310.506	310.885	51	31
310.507	310.885	60	37
310.597	310.787	81	52
310.688	310.885	84	52
310.787	310.885	81	52
310.884	311.269	82	54
310.885	311.269	50	34
310.885	311.269	58	40
310.979	311.262	86	57
311.072	311.269	89	61
311.164	311.269	87	60
311.262	311.64	86	58
311.35	311.64	84	56
311.445	311.64	82	54
311.538	311.64	81	52
311.637	312.038	79	55
311.638	312.038	62	31
311.638	312.038	65	37
311.728	312.038	77	51
311.816	312.038	75	50
311.913	312.038	74	50
312.008	312.389	72	50
312.011	312.389	63	37
312.011	312.389	67	44
312.106	312.386	75	53
312.196	312.389	79	56
312.291	312.389	77	55
312.386	312.761	75	54
312.477	312.761	74	53
312.571	312.761	72	52
312.662	312.761	70	50
312.756	313.132	69	49
312.757	313.132	55	31
312.76	313.132	58	31
312.761	313.132	60	37
312.851	313.132	67	50
312.935	313.131	65	53
313.027	313.132	64	56
313.131	314.268	65	59
313.132	313.507	53	45
313.22	313.412	62	37
313.313	314.268	70	59
313.314	313.692	58	40
313.412	313.597	62	37
313.506	314.268	74	61
313.507	313.877	53	45
313.597	313.785	62	37
313.691	314.268	77	62
313.692	314.063	58	40
313.785	313.963	62	37
313.877	314.249	53	48
313.877	314.268	82	64
313.963	314.15	62	37
314.063	314.268	58	41
314.063	314.268	86	65
314.15	314.268	62	37
314.248	314.346	72	37
314.249	314.639	53	45
314.3	314.399	74	31
314.346	314.447	72	37
314.349	314.546	63	37
314.399	314.493	74	31
314.447	314.545	72	37
314.448	314.64	57	40
314.493	314.591	74	32
314.545	314.636	72	37
314.546	314.64	63	37
314.591	314.64	74	33
314.636	314.737	72	37
314.639	315.022	53	45
314.689	314.779	74	32
314.737	314.829	72	37
314.738	314.93	63	37
314.779	314.881	74	32
314.829	314.93	72	37
314.832	315.031	57	40
314.881	314.973	74	31
314.93	315.031	63	37
314.93	315.021	72	37
314.973	315.031	74	33
315.021	315.063	72	37
315.022	315.423	53	48
315.066	315.175	74	32
315.115	315.308	63	37
315.115	315.238	72	37
315.175	315.423	74	32
315.21	315.423	57	41
315.238	315.351	72	37
315.305	315.406	70	33
315.308	315.423	63	37
315.351	315.423	72	33
315.406	315.833	70	49
315.407	315.64	58	41
315.63	315.837	62	28
315.833	316.032	65	35
316.022	316.224	70	34
316.222	316.425	69	32
316.41	316.62	68	30
316.613	317.009	75	46
316.614	317.009	67	28
316.806	317.009	70	21
316.999	317.391	77	50
317.002	317.391	65	31
317.188	317.391	70	24
317.383	317.776	63	31
317.383	317.776	79	51
317.58	317.776	70	25
317.772	318.356	77	51
317.776	318.356	62	31
317.968	318.354	70	28
318.161	318.356	69	31
318.353	318.552	79	48
318.354	318.552	70	28
318.451	318.552	77	43
318.545	318.941	75	50
318.546	318.941	55	31
318.641	318.938	74	48
318.743	318.941	63	27
318.743	318.941	72	47
318.84	318.941	70	45
318.938	319.712	74	48
318.941	319.711	53	31
319.13	319.516	62	27
319.322	319.712	58	31
319.515	319.712	75	40
319.516	319.712	62	29
319.711	320.102	53	31
319.711	320.102	72	44
319.901	320.102	63	27
320.1	320.484	70	46
320.101	320.295	62	31
320.295	320.489	58	24
320.489	320.684	57	30
320.684	320.876	56	26
320.877	321.069	55	29
321.069	321.265	54	31
321.265	321.661	63	52
321.266	321.661	55	28
321.458	321.661	75	47
321.461	321.661	58	27
321.65	322.042	65	54
321.651	322.042	53	38
321.849	322.042	77	47
321.85	322.042	57	32
322.039	322.424	67	58
322.04	322.424	52	40
322.231	322.424	61	34
322.231	322.424	79	52
322.421	323.005	77	61
322.424	323.005	50	41
322.621	323.005	62	35
322.621	323.002	79	54
322.711	322.91	81	58
322.809	323.005	82	61
322.812	323.005	58	38
322.91	323.005	81	61
323.002	323.204	79	60
323.005	323.204	62	33
323.1	323.204	77	58
323.194	323.59	75	57
323.197	323.59	53	40
323.292	323.589	74	55
323.393	323.59	72	54
323.394	323.59	62	35
323.488	323.59	70	52
323.589	324.364	74	62
323.59	324.363	53	41
323.779	324.166	62	33
323.971	324.364	58	43
324.163	324.364	75	56
324.166	324.364	62	33
324.363	324.752	53	45
324.363	324.752	72	62
324.552	324.752	63	38
324.751	325.139	70	67
324.846	325.146	58	54
324.947	325.146	62	56
325.042	325.146	65	59
325.139	325.532	70	61
325.238	325.427	77	60
325.336	325.532	79	65
325.427	325.532	77	60
325.528	325.941	53	54
325.528	325.721	75	64
325.529	325.941	57	54
325.619	325.941	74	62
325.721	325.941	75	60
325.829	325.941	72	58
325.938	326.336	70	68
326.035	326.336	46	54
326.133	326.336	50	56
326.235	326.336	53	59
326.334	326.721	58	61
326.424	326.619	65	60
326.527	326.721	67	65
326.619	326.721	65	60
326.715	326.911	63	64
326.718	327.132	41	54
326.718	327.132	45	54
326.81	327.132	62	62
326.911	327.132	63	60
327.016	327.132	60	58
327.128	327.849	58	71
327.131	327.849	46	59
327.579	328.023	74	59
327.579	328.024	77	59
327.579	328.024	82	77
327.58	328.024	34	59
328.468	329.252	51	59
328.468	329.252	66	71
328.959	329.445	68	59
328.959	329.445	72	59
328.962	329.448	39	59
328.962	329.446	78	77
329.927	330.68	61	43
329.928	331.063	49	20
329.928	330.296	53	33
330.113	330.484	56	23
330.296	330.678	53	27
330.484	330.68	56	22
330.677	330.761	63	36
330.678	331.063	53	26
330.764	330.954	61	36
330.856	331.063	60	36
330.858	331.063	56	22
330.954	331.063	61	36
331.062	332.195	48	20
331.062	331.436	70	42
331.063	331.427	54	36
331.241	331.436	56	23
331.241	331.426	68	37
331.426	331.797	68	43
331.427	331.798	54	27
331.608	331.993	56	23
331.797	332.188	68	38
331.798	332.195	54	27
331.993	332.195	56	24
332.188	332.566	68	39
332.189	333.317	49	20
332.189	332.559	53	33
332.372	332.566	56	23
332.372	332.566	73	45
332.557	332.938	72	44
332.559	332.931	53	27
332.742	332.938	71	41
332.745	332.938	56	23
332.93	333.317	70	40
332.931	333.317	53	27
333.113	333.317	69	38
333.116	333.317	56	25
333.313	334.435	68	41
333.316	334.435	48	20
333.317	333.684	54	31
333.498	333.869	56	27
333.684	334.054	54	27
333.869	334.241	56	24
334.054	334.435	54	27
334.241	334.435	56	23
334.427	335.181	61	45
334.429	335.563	49	21
334.429	334.797	53	35
334.611	334.982	56	24
334.797	335.171	53	28
334.982	335.181	56	23
335.17	335.258	63	42
335.171	335.563	53	27
335.262	335.458	61	39
335.361	335.563	60	42
335.363	335.563	56	23
335.458	335.563	61	40
335.556	335.934	70	54
335.557	336.696	48	21
335.557	335.927	51	38
335.745	335.934	54	24
335.745	335.924	69	48
335.924	336.295	69	53
335.927	336.298	51	32
336.109	336.493	54	28
336.295	336.696	69	47
336.298	336.696	51	32
336.493	336.696	54	27
336.694	337.814	49	23
336.694	337.058	53	37
336.694	337.064	70	50
336.876	337.064	77	54
336.879	337.064	58	32
337.054	337.438	73	55
337.058	337.429	53	34
337.243	337.438	58	29
337.243	337.438	72	53
337.429	337.814	53	30
337.429	337.814	70	51
337.614	337.814	68	50
337.617	337.814	58	28
337.813	338.936	67	50
337.814	338.936	52	23
337.814	337.996	58	37
337.996	338.367	61	30
338.184	338.552	58	30
338.367	338.737	61	27
338.552	338.936	58	30
338.737	338.936	61	26
338.926	340.056	53	25
338.926	339.304	68	59
338.93	339.299	56	40
339.119	339.304	80	62
339.12	339.304	60	28
339.298	339.678	77	61
339.299	339.672	56	33
339.484	339.678	60	28
339.484	339.678	75	60
339.669	340.056	74	58
339.672	340.056	56	36
339.857	340.056	62	32
339.857	340.056	72	57
340.053	341.177	71	62
340.054	341.177	55	36
340.056	340.236	62	36
340.236	340.61	65	29
340.424	340.795	62	34
340.61	340.978	65	28
340.795	341.177	62	35
340.978	341.177	65	28
341.166	341.548	72	61
341.17	342.297	56	46
341.17	341.541	60	46
341.358	341.548	87	64
341.359	341.548	63	28
341.538	341.918	84	61
341.541	341.911	60	41
341.724	341.918	82	60
341.726	341.918	63	34
341.909	342.297	80	55
341.911	342.297	60	41
342.095	342.297	79	56
342.097	342.297	63	38
342.294	343.417	78	60
342.296	343.417	57	45
342.297	342.475	60	45
342.475	342.85	62	36
342.664	343.032	60	40
342.85	343.221	62	30
343.032	343.417	60	38
343.221	343.417	62	30
343.414	344.538	58	24
343.414	343.784	79	58
343.417	343.788	62	39
343.598	343.788	82	60
343.599	343.788	67	31
343.784	344.158	79	58
343.788	344.151	62	37
343.966	344.158	77	55
343.967	344.158	67	30
344.15	344.538	75	53
344.151	344.538	62	37
344.335	344.538	74	50
344.337	344.537	67	29
344.536	345.657	73	57
344.537	345.657	63	31
344.537	344.719	67	39
344.719	345.09	69	30
344.905	345.275	67	37
345.09	345.461	69	29
345.275	345.657	67	37
345.461	345.657	69	27
345.654	346.035	62	44
345.657	346.035	66	44
345.748	345.842	74	46
345.845	345.94	73	49
345.944	346.038	74	44
346.038	346.125	76	49
346.13	346.223	74	44
346.227	346.318	73	49
346.322	346.413	74	44
346.413	346.79	72	47
346.503	346.696	74	49
346.599	346.79	78	54
346.696	346.79	74	49
346.784	347.168	70	51
346.882	347.068	74	53
346.977	347.168	79	57
347.068	347.168	74	52
347.162	347.536	66	57
347.253	347.435	74	55
347.351	347.536	84	61
347.435	347.536	74	57
347.53	347.914	67	54
347.62	347.813	74	57
347.714	347.914	82	64
347.813	347.914	74	57
347.912	348.292	62	59
347.912	348.292	81	64
348.006	348.292	78	57
348.097	348.292	76	63
348.195	348.292	74	57
348.29	348.379	73	57
348.38	348.474	74	59
348.475	348.565	76	60
348.565	348.66	74	56
348.66	349.048	72	46
348.757	348.943	74	49
348.852	349.048	78	53
348.943	349.048	74	49
349.042	349.426	70	59
349.136	349.325	74	52
349.235	349.426	79	58
349.325	349.426	74	54
349.42	349.801	66	61
349.51	349.703	74	55
349.613	349.801	84	61
349.703	349.801	74	55
349.798	350.179	67	55
349.888	350.081	74	49
349.987	350.179	82	68
350.081	350.179	74	62
350.175	350.361	81	70
350.176	351.017	62	59
350.27	351.31	86	60
350.361	350.641	81	69
350.453	350.732	78	57
350.547	350.823	74	67
350.641	351.31	81	55
350.732	351.31	78	61
350.823	351.016	74	54
350.918	351.111	69	63
351.016	351.31	74	55
351.017	351.306	62	47
351.111	351.31	69	65
351.113	351.31	57	54
351.209	351.31	66	59
351.211	351.31	54	47
351.306	351.523	62	74
351.31	351.523	50	60
351.711	352.153	69	62
351.712	352.153	66	62
351.715	352.156	74	73
351.716	352.156	38	59
352.601	353.367	55	34
353.35	353.763	50	30
353.763	354.523	47	34
354.505	354.91	50	32
354.911	355.66	55	34
355.096	355.142	86	45
355.274	355.324	86	49
355.464	355.509	86	43
355.646	355.691	86	46
355.649	356.041	59	36
355.846	355.89	86	40
356.045	356.237	87	45
356.046	356.416	62	38
356.231	356.427	86	40
356.416	356.612	84	43
356.598	356.797	83	40
356.783	356.983	80	45
356.976	357.168	79	39
357.169	357.213	79	41
357.172	357.945	55	34
357.217	357.266	80	39
357.267	357.361	79	49
357.361	357.549	77	44
357.553	357.928	77	46
357.931	358.341	50	30
358.341	359.1	47	34
359.087	359.492	50	32
359.493	360.245	55	34
359.678	359.724	77	45
359.86	359.909	77	48
360.042	360.087	77	42
360.227	360.623	59	36
360.227	360.276	77	44
360.423	360.472	77	40
360.623	360.819	79	45
360.624	360.994	62	38
360.808	361.005	77	40
360.994	361.19	75	40
361.179	361.376	74	40
361.372	361.568	72	45
361.557	361.767	71	39
361.768	362.527	72	48
362.509	362.926	67	42
362.93	363.688	63	48
363.671	364.077	67	45
364.078	364.826	72	50
364.263	364.301	55	39
364.441	364.49	55	42
364.631	364.675	55	37
364.809	364.862	55	39
364.809	365.208	75	52
365.005	365.057	55	35
365.208	365.583	79	56
365.212	365.4	56	39
365.393	365.593	55	35
365.583	365.778	53	37
365.764	365.963	51	35
365.953	366.15	50	39
366.143	366.335	48	34
366.336	366.528	48	35
366.336	367.105	76	58
366.528	366.72	46	38
366.721	367.087	46	39
367.091	367.501	72	52
367.501	368.263	67	55
368.246	368.652	72	49
368.653	369.405	76	53
368.837	368.882	58	39
369.023	369.069	58	41
369.201	369.247	58	36
369.387	369.783	79	54
369.391	369.436	58	38
369.586	369.632	58	35
369.783	370.161	82	58
369.784	369.982	60	39
369.968	370.167	58	35
370.161	370.35	56	35
370.339	370.538	55	35
370.528	370.724	53	39
370.71	370.92	52	34
370.92	371.669	53	40
371.106	371.15	80	45
371.287	371.333	80	49
371.473	371.518	80	43
371.655	371.704	80	46
371.858	371.903	80	40
372.054	373.177	58	28
372.054	372.243	82	45
372.055	372.425	62	28
372.058	372.425	65	34
372.239	372.435	80	40
372.425	372.621	79	43
372.428	372.796	63	28
372.429	372.797	67	34
372.61	372.81	77	40
372.799	372.992	75	45
372.8	373.178	65	28
372.8	373.181	69	34
372.985	373.182	74	39
373.184	373.545	63	28
373.185	373.545	67	34
373.363	373.412	79	45
373.546	373.594	79	49
373.73	373.776	79	43
373.916	373.962	79	46
374.115	374.161	79	40
374.312	375.431	56	28
374.312	374.504	80	45
374.313	374.683	60	28
374.315	374.683	63	34
374.497	374.687	79	40
374.683	374.875	77	43
374.686	375.053	62	28
374.686	375.054	65	34
374.868	375.06	75	40
375.058	375.432	63	28
375.058	375.25	74	45
375.059	375.436	67	34
375.239	375.436	72	39
375.436	375.802	62	28
375.438	375.803	65	34
375.624	375.662	77	45
375.803	375.851	77	49
375.987	376.033	77	43
376.17	376.219	77	46
376.367	376.418	77	40
376.562	377.689	55	28
376.562	376.761	79	51
376.566	376.94	59	28
376.566	376.94	62	34
376.754	376.947	77	50
376.94	377.132	75	49
376.944	377.311	60	28
376.944	377.314	63	34
377.125	377.319	74	48
377.315	377.504	72	47
377.318	377.692	62	28
377.319	377.693	65	34
377.5	377.693	71	47
377.696	377.885	77	56
377.697	378.06	60	30
377.697	378.06	63	37
377.875	378.074	75	54
378.061	378.259	74	52
378.246	378.445	72	51
378.431	378.63	70	49
378.434	378.816	53	30
378.435	378.816	63	37
378.623	378.817	69	47
378.82	379.012	84	60
378.821	379.187	55	30
378.821	379.187	62	37
379.001	379.198	82	58
379.191	379.383	81	56
379.372	379.568	79	54
379.558	379.943	63	30
379.558	379.758	77	54
379.562	379.944	67	37
379.744	379.944	76	57
379.944	380.314	77	61
380.136	380.178	65	42
380.315	380.359	65	45
380.5	380.544	65	39
380.685	381.081	69	45
380.686	380.731	65	41
380.686	381.081	75	55
380.881	380.926	65	38
381.082	381.452	70	45
381.084	381.276	66	42
381.084	381.452	73	60
381.266	381.462	65	38
381.455	381.647	63	38
381.637	381.833	61	38
381.822	382.211	73	45
381.823	382.019	60	42
381.823	382.212	82	55
382.008	382.214	58	37
382.215	382.589	72	45
382.215	382.589	81	61
382.411	382.456	53	42
382.59	382.634	53	45
382.775	382.82	53	39
382.96	383.356	63	45
382.961	383.006	53	41
382.961	383.356	69	55
383.159	383.205	53	38
383.359	383.727	61	45
383.359	383.727	70	60
383.36	383.544	54	42
383.541	383.737	53	38
383.727	383.922	51	38
383.912	384.105	49	38
384.097	384.486	58	45
384.098	384.487	61	55
384.101	384.29	48	42
384.283	384.489	46	37
384.49	384.696	57	45
384.493	384.696	60	60
384.494	384.881	41	42
384.697	384.745	65	45
384.881	384.927	65	49
385.063	385.109	65	43
385.249	385.295	65	46
385.445	385.497	65	40
385.641	385.826	64	44
385.645	388.423	53	29
385.645	388.424	63	37
385.646	388.427	57	29
385.83	386.025	65	40
386.026	386.211	67	45
386.212	386.401	65	40
386.405	386.593	70	43
386.597	386.792	69	40
386.793	386.985	74	44
386.985	387.184	72	40
387.188	387.378	75	45
387.381	387.587	74	40
387.591	387.79	79	45
387.791	388.001	77	40
388.001	388.637	77	45
388.641	388.858	76	40
388.858	389.071	75	43
389.074	389.296	72	40
389.296	390.061	70	48
389.297	390.061	58	33
390.047	390.468	65	41
390.048	390.468	53	31
390.457	391.224	62	48
390.458	391.224	50	37
391.2	391.615	53	38
391.2	391.615	65	44
391.606	392.368	70	48
391.608	392.368	58	41
392.35	392.746	74	51
392.351	392.746	62	43
392.744	393.531	77	56
392.746	393.531	65	43
393.492	393.867	82	58
393.678	393.867	74	51
393.863	394.055	77	56
393.864	396.05	63	36
393.866	396.05	53	30
393.867	396.054	60	30
394.041	394.233	75	52
394.226	394.419	74	51
394.409	394.601	72	49
394.587	394.78	70	48
394.773	394.958	69	47
394.962	395.15	67	50
395.141	395.329	65	44
395.319	395.511	64	44
395.5	395.69	65	45
395.679	395.871	67	47
395.864	396.054	69	50
396.054	396.1	70	50
396.057	396.414	58	32
396.057	396.418	62	38
396.19	396.235	72	45
396.236	396.323	70	49
396.323	396.418	69	46
396.422	396.463	70	50
396.596	396.642	72	47
396.782	396.83	74	49
396.96	397.013	75	51
397.159	397.352	76	53
397.338	397.53	77	50
397.527	397.716	79	55
397.706	397.884	77	50
397.884	398.269	82	59
398.074	398.269	74	50
398.263	398.454	77	57
398.266	400.481	53	30
398.266	400.482	60	30
398.267	400.482	63	36
398.447	398.64	75	55
398.633	398.825	74	53
398.815	399.012	72	51
399.001	399.193	70	49
399.179	399.372	69	47
399.372	399.561	67	50
399.557	399.75	65	43
399.739	399.935	64	50
399.921	400.113	65	43
400.11	400.299	67	50
400.292	400.485	69	45
400.486	400.572	58	34
400.486	400.576	62	40
400.486	400.572	70	50
400.852	400.943	70	48
400.853	400.947	58	32
400.853	400.943	62	38
401.234	401.343	58	32
401.234	401.339	74	48
401.237	401.343	65	38
401.665	402.043	58	34
401.665	402.043	62	40
401.665	402.042	70	50
402.318	402.367	70	44
402.413	402.518	72	50
402.504	402.606	70	43
402.596	402.696	69	45
402.686	402.802	70	42
402.791	403.155	79	56
403.156	403.533	58	30
403.159	403.533	51	25
403.159	403.534	55	25
403.442	403.488	70	44
403.537	403.631	72	50
403.625	403.726	70	43
403.715	403.817	69	45
403.806	403.922	70	42
403.912	404.271	77	55
404.272	404.646	50	25
404.272	404.649	53	25
404.276	404.65	58	30
404.556	404.6	70	44
404.653	404.755	72	50
404.741	404.846	70	43
404.832	404.936	69	45
404.926	405.045	70	42
405.038	405.399	72	52
405.039	406.161	57	29
405.039	406.537	65	34
405.4	405.773	77	49
405.773	406.166	75	48
406.166	406.537	73	55
406.167	406.537	58	34
406.538	406.739	74	49
406.834	406.882	70	44
406.935	407.033	72	50
407.023	407.121	70	43
407.114	407.211	69	45
407.201	407.32	70	42
407.306	407.674	79	56
407.675	408.048	51	25
407.675	408.048	55	25
407.677	408.052	58	30
407.957	408.003	70	44
408.052	408.147	72	50
408.143	408.241	70	43
408.23	408.335	69	45
408.325	408.437	70	42
408.427	408.787	77	55
408.787	409.164	50	25
408.791	409.165	53	25
408.791	409.168	58	30
409.071	409.116	70	44
409.169	409.27	72	50
409.256	409.361	70	43
409.35	409.452	69	45
409.444	409.56	70	42
409.553	410.692	72	52
409.554	410.692	53	29
409.554	410.692	57	34
409.915	410.692	75	49
409.917	410.692	60	31
410.293	410.692	69	48
410.295	410.692	63	29
410.691	411.052	62	34
410.691	411.052	70	55
410.692	411.052	58	28
411.782	411.976	74	64
411.783	411.976	70	64
411.786	411.976	79	77
411.787	411.976	55	73
412.164	412.35	67	64
412.168	412.35	43	66
412.92	413.063	69	63
412.924	413.063	66	63
412.924	413.063	74	75
412.925	413.063	50	73
413.309	413.536	38	66
413.309	413.536	62	67
414.064	414.821	63	43
414.065	415.196	51	20
414.065	414.437	55	33
414.251	414.622	58	23
414.437	414.811	55	27
414.622	414.821	58	22
414.81	414.902	65	36
414.811	415.196	55	26
414.902	415.094	63	36
414.996	415.196	62	36
414.997	415.196	58	22
415.094	415.196	63	36
415.193	415.574	72	42
415.195	416.332	50	20
415.196	415.567	56	36
415.378	415.564	70	37
415.381	415.574	58	23
415.564	415.934	70	43
415.567	415.937	56	27
415.749	416.127	58	23
415.934	416.325	70	38
415.937	416.332	56	27
416.127	416.332	58	24
416.325	416.698	70	39
416.326	417.454	51	20
416.326	416.697	55	33
416.509	416.698	75	45
416.512	416.698	58	23
416.694	417.078	74	44
416.697	417.069	55	27
416.883	417.078	58	23
416.883	417.078	73	42
417.068	417.454	72	40
417.069	417.454	55	27
417.247	417.454	71	38
417.25	417.454	58	25
417.453	418.569	50	20
417.453	418.569	70	41
417.454	417.822	56	33
417.636	418.007	58	27
417.822	418.192	56	27
418.007	418.378	58	24
418.192	418.569	56	27
418.378	418.569	58	23
418.566	419.7	51	21
418.566	418.934	55	35
418.566	419.318	63	45
418.751	419.123	58	24
418.934	419.309	55	28
419.123	419.318	58	23
419.308	419.399	65	42
419.309	419.7	55	27
419.399	419.592	63	39
419.494	419.7	62	42
419.495	419.7	58	23
419.592	419.7	63	40
419.693	420.833	50	21
419.693	420.075	72	54
419.696	420.064	53	38
419.878	420.064	71	48
419.879	420.075	56	24
420.064	420.436	53	32
420.064	420.435	71	53
420.247	420.631	56	28
420.435	420.833	71	47
420.436	420.833	53	32
420.631	420.833	56	27
420.824	421.201	72	50
420.825	421.955	51	23
420.827	421.196	55	37
421.016	421.201	79	58
421.017	421.201	60	32
421.195	421.576	75	56
421.196	421.57	55	34
421.381	421.576	60	29
421.381	421.576	74	54
421.566	421.955	72	51
421.57	421.955	55	30
421.755	421.954	60	28
421.755	421.955	70	49
421.95	423.074	69	50
421.951	423.074	54	23
421.954	422.133	60	37
422.133	422.508	63	30
422.321	422.693	60	30
422.508	422.874	63	27
422.693	423.074	60	30
422.874	423.074	63	26
423.064	423.444	70	59
423.067	424.195	55	27
423.067	423.437	58	44
423.25	423.444	86	62
423.252	423.444	62	30
423.435	423.816	82	61
423.437	423.809	58	36
423.621	423.816	81	60
423.623	423.816	62	30
423.806	424.195	79	58
423.809	424.195	58	36
423.988	424.195	77	57
423.989	424.195	62	33
424.19	425.307	76	62
424.191	425.307	60	27
424.194	424.376	67	44
424.376	424.747	70	36
424.561	424.933	67	36
424.747	425.119	70	31
424.933	425.307	67	36
425.119	425.307	70	30
425.305	425.685	65	44
425.307	425.685	69	44
425.394	425.492	77	46
425.493	425.587	76	49
425.587	425.686	77	44
425.689	425.776	79	49
425.779	425.87	77	44
425.871	425.972	76	49
425.972	426.063	77	44
426.064	426.441	75	44
426.154	426.347	77	49
426.252	426.441	81	54
426.347	426.441	77	49
426.437	426.815	74	50
426.532	426.722	77	53
426.63	426.815	82	57
426.722	426.815	77	52
426.813	427.183	69	57
426.9	427.086	77	55
426.994	427.183	87	61
427.086	427.183	77	57
427.179	427.568	70	53
427.271	427.463	77	57
427.366	427.568	86	64
427.463	427.568	77	57
427.561	427.943	84	65
427.562	427.943	65	59
427.655	427.943	81	60
427.747	427.943	79	65
427.841	427.943	77	60
427.936	428.027	76	57
428.027	428.117	77	59
428.118	428.216	79	60
428.219	428.309	77	56
428.31	428.691	75	46
428.401	428.597	77	49
428.504	428.691	81	53
428.597	428.691	77	49
428.689	429.076	74	56
428.786	428.972	77	52
428.882	429.076	82	58
428.972	429.076	77	54
429.07	429.447	69	59
429.164	429.35	77	55
429.259	429.447	87	61
429.35	429.447	77	55
429.44	429.822	70	53
429.535	429.725	77	49
429.63	429.822	86	68
429.725	429.822	77	62
429.819	430.005	84	73
429.822	430.663	65	61
429.913	430.957	89	62
430.005	430.285	84	69
430.099	430.376	81	57
430.193	430.471	77	67
430.285	430.957	84	55
430.376	430.957	81	61
430.471	430.663	77	54
430.561	430.757	72	63
430.663	430.953	65	47
430.663	430.957	77	55
430.757	430.957	60	54
430.757	430.957	72	65
430.849	430.957	69	59
430.851	430.957	57	47
430.953	431.166	65	74
430.956	431.166	53	60
431.355	431.8	72	62
431.358	431.8	69	62
431.359	431.801	77	73
431.362	431.801	41	59
432.251	433.01	58	34
433.0	433.413	53	30
433.414	434.172	50	34
434.155	434.561	53	32
434.565	435.31	58	34
434.747	434.795	77	45
434.928	434.974	77	49
435.114	435.159	77	43
435.293	435.345	77	46
435.294	435.692	62	36
435.492	435.541	77	40
435.692	435.884	79	45
435.695	436.066	65	38
435.88	436.077	77	40
436.066	436.262	75	43
436.251	436.447	74	40
436.437	436.633	72	45
436.63	436.822	70	39
436.823	437.592	51	34
436.823	436.867	70	41
436.868	436.92	72	39
436.92	437.011	70	49
437.011	437.203	69	44
437.204	437.575	69	46
437.576	437.988	48	30
437.988	438.747	45	34
438.729	439.135	48	32
439.139	439.892	51	34
439.321	439.37	75	45
439.51	439.552	75	48
439.686	439.734	75	42
439.874	440.27	57	36
439.874	439.92	75	44
440.07	440.122	75	40
440.27	440.465	77	45
440.271	440.644	60	38
440.455	440.652	75	40
440.645	440.837	74	40
440.826	441.022	72	40
441.015	441.215	70	45
441.204	441.414	69	39
441.415	441.779	62	35
441.415	442.153	70	47
441.596	441.965	65	28
441.779	442.153	62	35
441.964	442.153	74	47
441.965	442.153	65	25
442.15	442.527	72	45
442.153	442.527	62	32
442.331	442.527	70	40
442.332	442.527	65	24
442.524	442.895	63	35
442.524	443.27	69	47
442.709	443.081	65	31
442.895	443.263	63	35
443.081	443.27	65	26
443.081	443.27	79	52
443.259	443.64	77	47
443.263	443.64	63	33
443.448	443.64	65	29
443.448	443.64	69	42
443.637	444.001	62	35
443.637	444.379	70	47
443.815	444.19	65	30
444.001	444.372	62	32
444.186	444.379	74	47
444.19	444.379	65	24
444.369	444.75	72	45
444.372	444.75	62	32
444.555	444.75	65	25
444.555	444.75	70	40
444.747	445.114	63	35
444.747	445.484	69	47
444.924	445.299	65	31
445.114	445.478	63	35
445.296	445.484	78	52
445.299	445.484	65	26
445.478	445.856	63	33
445.478	445.856	77	47
445.663	445.856	69	42
445.664	445.856	65	29
445.853	446.601	70	47
445.856	446.22	61	35
446.034	446.413	65	30
446.22	446.594	61	32
446.412	446.601	77	55
446.413	446.601	65	28
446.591	446.966	73	53
446.594	446.966	61	38
446.773	446.966	65	31
446.773	446.966	72	50
446.965	447.711	71	56
446.966	448.076	55	40
446.966	447.334	62	40
447.148	447.515	65	34
447.334	447.704	62	38
447.514	447.711	80	58
447.515	447.711	65	32
447.7	448.076	79	52
447.704	448.076	62	39
447.879	448.076	71	48
447.882	448.076	65	32
448.072	448.449	74	56
448.075	448.449	60	39
448.075	448.449	63	39
448.258	448.449	72	51
448.446	449.185	65	35
448.446	448.816	77	55
448.447	448.816	57	35
448.624	448.816	76	51
448.809	449.185	75	50
448.81	449.185	58	35
448.988	449.185	74	49
449.181	449.569	72	54
449.185	449.569	51	43
449.185	449.569	63	43
449.458	449.569	74	48
449.56	450.354	53	40
449.56	450.007	70	54
449.562	450.354	62	40
449.941	450.067	69	50
449.944	450.354	60	40
450.007	450.126	70	44
450.067	450.179	69	50
450.126	450.322	70	44
450.179	450.273	69	50
450.225	450.354	67	42
450.273	450.354	69	45
450.322	450.721	58	40
450.322	450.409	70	49
450.41	450.595	65	46
450.504	450.721	64	49
450.595	450.721	65	44
450.69	450.787	67	49
450.788	450.885	65	44
450.875	451.064	64	49
450.876	451.064	50	49
450.966	451.064	65	44
451.063	451.246	63	49
451.064	451.246	48	53
451.154	451.246	65	49
451.242	451.466	62	54
451.243	451.466	46	48
451.341	451.466	65	49
451.432	451.526	60	49
451.434	451.837	45	52
451.526	451.715	65	46
451.617	451.837	64	49
451.715	451.837	65	44
451.803	452.002	67	49
451.905	452.002	65	44
451.995	452.18	64	49
451.996	452.18	55	45
452.083	452.18	65	44
452.177	452.363	75	49
452.178	452.366	53	50
452.268	452.366	65	49
452.363	452.579	75	54
452.364	452.579	45	45
452.454	452.579	65	49
452.549	452.954	46	40
452.549	452.639	74	49
452.639	452.825	77	46
452.73	452.954	76	49
452.825	452.954	77	44
452.926	453.016	79	49
453.017	453.115	77	44
453.109	453.294	76	49
453.111	453.294	62	51
453.199	453.294	77	44
453.291	453.473	75	49
453.294	453.473	60	53
453.381	453.473	77	49
453.469	453.688	74	54
453.472	453.688	58	48
453.57	453.688	77	49
453.661	453.752	72	49
453.664	454.066	57	48
453.753	453.945	77	46
453.846	454.066	76	49
453.945	454.066	77	44
454.035	454.123	79	49
454.126	454.235	77	44
454.224	454.407	76	49
454.225	454.407	67	45
454.312	454.407	77	44
454.406	454.586	87	49
454.407	454.592	65	50
454.498	454.592	77	49
454.586	454.809	87	54
454.589	454.809	57	45
454.683	454.809	77	49
454.777	454.868	86	49
454.778	455.183	58	40
454.868	455.061	77	46
454.96	455.183	76	49
455.061	455.183	77	44
455.155	455.344	79	49
455.247	455.344	77	44
455.34	455.523	76	49
455.341	455.523	65	50
455.426	455.523	77	44
455.52	455.709	62	54
455.52	455.709	80	49
455.611	455.709	77	49
455.706	455.926	75	54
455.708	455.926	60	49
455.796	455.926	77	49
455.892	455.988	74	49
455.894	456.297	59	51
455.989	456.174	79	46
456.08	456.297	78	49
456.174	456.297	79	44
456.269	456.359	81	49
456.36	456.471	79	44
456.457	456.649	78	52
456.461	456.649	68	45
456.552	456.649	79	44
456.64	456.826	89	55
456.642	456.829	67	50
456.731	456.829	79	49
456.826	457.026	89	57
456.829	457.026	59	45
456.923	457.026	79	49
457.025	457.393	60	42
457.025	457.393	88	62
457.108	457.294	67	33
457.203	457.393	64	36
457.294	457.393	67	33
457.389	457.77	87	60
457.392	457.77	57	38
457.48	457.668	66	33
457.574	457.77	60	36
457.668	457.77	66	33
457.76	458.132	86	57
457.763	458.169	58	39
457.854	458.039	65	33
457.945	458.169	62	37
458.039	458.169	65	37
458.132	458.519	86	60
458.134	458.519	51	31
458.134	458.519	63	37
458.225	458.41	84	52
458.317	458.519	87	52
458.41	458.509	84	52
458.509	458.893	84	62
458.511	458.893	53	31
458.512	458.893	62	37
458.6	458.789	82	52
458.694	458.893	86	52
458.789	458.882	82	52
458.882	459.265	82	62
458.883	459.269	51	31
458.883	459.269	60	37
458.974	459.167	81	52
459.065	459.269	84	52
459.167	459.269	81	52
459.265	459.642	82	54
459.268	459.642	50	34
459.269	459.642	58	40
459.356	459.636	86	57
459.454	459.642	89	61
459.548	459.642	87	60
459.636	460.02	86	58
459.726	460.02	84	56
459.821	460.02	82	54
459.913	460.02	81	52
460.01	460.42	79	55
460.013	460.42	65	37
460.014	460.42	62	31
460.105	460.42	77	51
460.199	460.42	75	50
460.291	460.42	74	50
460.392	460.773	63	37
460.392	460.773	72	50
460.395	460.773	67	44
460.483	460.763	75	53
460.574	460.773	79	56
460.668	460.773	77	55
460.763	461.137	75	54
460.854	461.137	74	53
460.948	461.137	72	52
461.039	461.137	70	50
461.134	461.515	55	31
461.134	461.515	69	49
461.135	461.515	58	31
461.136	461.515	60	37
461.225	461.515	67	50
461.315	461.512	65	53
461.41	461.515	64	56
461.512	462.652	65	59
461.514	461.883	53	45
461.603	461.788	62	37
461.694	462.652	70	59
461.697	462.068	58	40
461.788	461.977	62	37
461.882	462.652	74	61
461.883	462.254	53	45
461.977	462.163	62	37
462.068	462.439	58	40
462.068	462.652	77	62
462.163	462.346	62	37
462.254	462.631	53	48
462.254	462.652	82	64
462.346	462.531	62	37
462.439	462.652	58	41
462.439	462.652	86	65
462.531	462.652	62	37
462.628	462.73	72	37
462.631	463.024	53	45
462.677	462.775	74	31
462.73	462.825	72	37
462.731	462.923	63	37
462.775	462.874	74	31
462.825	463.024	57	40
462.825	462.923	72	37
462.874	462.974	74	32
462.923	463.024	63	37
462.923	463.02	72	37
462.974	463.024	74	33
463.02	463.115	72	37
463.024	463.399	53	45
463.066	463.164	74	32
463.115	463.307	63	37
463.115	463.212	72	37
463.164	463.258	74	32
463.212	463.305	72	37
463.213	463.411	57	40
463.258	463.352	74	31
463.305	463.398	72	37
463.307	463.411	63	37
463.352	463.411	74	33
463.398	463.446	72	37
463.399	463.799	53	48
463.45	463.559	74	32
463.496	463.621	72	37
463.499	463.689	63	37
463.559	463.799	74	32
463.586	463.799	57	41
463.621	463.733	72	37
463.688	463.779	70	33
463.689	463.799	63	37
463.733	463.799	72	33
463.779	464.205	70	49
463.781	464.017	58	41
464.01	464.219	62	28
464.209	464.415	65	35
464.404	464.612	70	34
464.601	464.804	69	32
464.793	465.003	68	30
464.997	465.392	67	28
464.997	465.392	75	46
465.189	465.392	70	21
465.382	465.773	65	31
465.382	465.773	77	50
465.571	465.773	70	24
465.764	466.162	79	51
465.767	466.162	63	31
465.963	466.162	70	25
466.159	466.739	77	51
466.162	466.739	62	31
466.351	466.737	70	28
466.544	466.739	69	31
466.736	466.936	79	48
466.737	466.936	70	28
466.83	466.936	77	43
466.929	467.324	55	31
466.929	467.324	75	50
467.023	467.321	74	48
467.122	467.324	72	47
467.124	467.324	63	27
467.219	467.324	70	45
467.321	468.095	74	48
467.323	468.095	53	31
467.509	467.902	62	27
467.703	468.095	58	31
467.902	468.095	62	29
467.902	468.095	75	40
468.094	468.482	72	44
468.095	468.482	53	31
468.283	468.482	63	27
468.48	468.875	70	46
468.482	468.682	62	31
468.683	468.875	58	24
468.878	469.067	57	30
469.068	469.255	56	26
469.256	469.448	55	29
469.448	469.648	54	31
469.649	470.04	55	28
469.649	470.04	63	52
469.841	470.04	58	27
469.841	470.04	75	47
470.033	470.429	65	54
470.034	470.429	53	38
470.229	470.429	77	47
470.23	470.429	57	32
470.421	470.81	67	58
470.422	470.81	52	40
470.611	470.81	79	52
470.615	470.81	61	34
470.808	471.387	77	61
470.81	471.387	50	41
471.0	471.384	79	54
471.002	471.384	62	35
471.097	471.29	81	58
471.192	471.387	82	61
471.194	471.387	58	38
471.29	471.387	81	61
471.384	471.583	62	33
471.384	471.583	79	60
471.482	471.583	77	58
471.574	471.975	75	57
471.577	471.973	53	40
471.675	471.972	74	55
471.773	471.975	72	54
471.776	471.975	62	35
471.871	471.975	70	52
471.972	472.753	74	62
471.973	472.746	53	41
472.161	472.553	62	33
472.35	472.753	58	43
472.55	472.753	75	56
472.553	472.753	62	33
472.743	473.133	72	62
472.746	473.133	53	45
472.935	473.133	63	38
473.131	473.527	70	67
473.228	473.529	58	54
473.334	473.529	62	56
473.425	473.529	65	59
473.527	473.911	70	61
473.617	473.81	77	60
473.719	473.911	79	65
473.81	473.911	77	60
473.908	474.324	53	54
473.908	474.104	75	64
473.911	474.324	57	54
474.002	474.324	74	62
474.104	474.324	75	60
474.209	474.324	72	58
474.321	474.722	70	68
474.419	474.722	46	54
474.517	474.722	50	56
474.619	474.722	53	59
474.716	475.121	58	61
474.814	475.01	65	60
474.915	475.121	67	65
475.01	475.121	65	60
475.108	475.322	63	64
475.112	475.56	41	54
475.112	475.56	45	54
475.216	475.56	62	62
475.322	475.56	63	60
475.441	475.56	60	58
475.557	476.333	58	85
475.559	476.333	46	64
476.039	476.522	74	64
476.043	476.523	77	64
476.043	476.523	82	84
476.044	476.523	34	64
