OnsetTime	OffsetTime	MidiPitch	Velocity
0.500782	0.593372	38	32
0.685198	0.777787	45	31
0.870377	0.962967	38	32
1.05556	1.14815	45	31
1.24074	1.3322	38	32
1.42366	1.51513	45	31
1.60659	1.69805	38	32
1.78912	1.87814	45	31
1.78912	1.83363	62	36
1.83363	1.87814	64	36
1.87814	1.92265	65	36
1.92265	1.96716	67	36
1.96716	2.05891	38	32
1.96716	2.05891	69	38
2.15065	2.24156	45	31
2.15065	2.24156	62	34
2.15065	2.24156	65	34
2.15065	2.24156	74	34
2.33248	2.42394	38	32
2.33248	2.42394	62	34
2.33248	2.42394	65	34
2.33248	2.42394	74	34
2.5154	2.6055	45	31
2.5154	2.6055	62	34
2.5154	2.6055	65	34
2.5154	2.6055	73	34
2.69559	2.78678	38	32
2.69559	2.78678	62	36
2.69559	2.78678	65	36
2.69559	2.78678	73	36
2.87796	2.96725	45	31
2.87796	2.96725	62	34
2.87796	2.96725	65	34
2.87796	2.96725	72	34
3.05654	3.14664	38	32
3.05654	3.14664	62	34
3.05654	3.14664	65	34
3.05654	3.14664	72	34
3.23673	3.32445	45	31
3.23673	3.32445	62	34
3.23673	3.32445	65	34
3.23673	3.32445	71	34
3.41217	3.50227	38	32
3.41217	3.50227	62	36
3.41217	3.50227	65	36
3.41217	3.50227	71	36
3.59237	3.68112	45	29
3.59237	3.68112	62	33
3.59237	3.68112	65	33
3.59237	3.68112	70	33
3.76987	3.85997	38	32
3.76987	3.85997	62	33
3.76987	3.85997	65	33
3.76987	3.85997	70	33
3.95006	4.03856	45	29
3.95006	4.03856	62	32
3.95006	4.03856	65	32
3.95006	4.03856	69	32
4.12706	4.21661	38	32
4.12706	4.21661	59	43
4.12706	4.21661	64	43
4.12706	4.21661	68	43
4.30616	4.3957	45	31
4.30616	4.66707	59	43
4.30616	4.66707	64	43
4.30616	4.66707	68	43
4.48525	4.57616	38	32
4.66707	4.75583	45	31
4.66707	4.71145	67	36
4.71145	4.75583	69	36
4.75583	4.80021	70	36
4.80021	4.84458	72	36
4.84458	4.9355	38	32
4.84458	4.9355	74	38
5.02641	5.11622	45	31
5.02641	5.11622	67	34
5.02641	5.11622	70	34
5.02641	5.11622	79	34
5.20604	5.29695	38	32
5.20604	5.29695	67	34
5.20604	5.29695	70	34
5.20604	5.29695	79	34
5.38786	5.47662	45	31
5.38786	5.47662	67	34
5.38786	5.47662	70	34
5.38786	5.47662	78	34
5.56537	5.65574	38	32
5.56537	5.65574	67	36
5.56537	5.65574	70	36
5.56537	5.65574	78	36
5.7461	5.83433	45	31
5.7461	5.83433	67	34
5.7461	5.83433	70	34
5.7461	5.83433	77	34
5.92256	6.01159	38	32
5.92256	6.01159	67	34
5.92256	6.01159	70	34
5.92256	6.01159	77	34
6.10061	6.18807	45	31
6.10061	6.18807	67	34
6.10061	6.18807	70	34
6.10061	6.18807	76	34
6.27554	6.36564	38	32
6.27554	6.36564	67	36
6.27554	6.36564	70	36
6.27554	6.36564	76	36
6.45573	6.54345	45	29
6.45573	6.54345	67	32
6.45573	6.54345	70	32
6.45573	6.54345	75	32
6.63118	6.71993	38	32
6.63118	6.71993	67	32
6.63118	6.71993	70	32
6.63118	6.71993	75	32
6.80868	6.89641	45	29
6.80868	6.89641	67	32
6.80868	6.89641	70	32
6.80868	6.89641	74	32
6.98413	7.07367	38	32
6.98413	7.07367	64	44
6.98413	7.07367	69	44
6.98413	7.07367	73	44
7.16322	7.24943	45	31
7.16322	7.50804	64	44
7.16322	7.50804	69	44
7.16322	7.50804	73	44
7.33563	7.42184	38	32
7.50804	7.59279	45	31
7.67753	7.72089	74	46
7.72089	7.76425	76	35
7.76425	7.80761	77	35
7.80761	7.85097	79	35
7.85097	7.94026	58	32
7.85097	7.94026	65	32
7.85097	7.94026	81	40
8.02955	8.0729	79	46
8.0729	8.11626	77	36
8.11626	8.15962	76	36
8.15962	8.20298	74	36
8.20298	8.29227	53	32
8.20298	8.29227	60	32
8.20298	8.29227	72	40
8.38156	8.42492	70	45
8.42492	8.46828	72	36
8.46828	8.51163	74	36
8.51163	8.55499	76	36
8.55499	8.64428	55	32
8.55499	8.64428	62	32
8.55499	8.64428	77	41
8.73357	8.77693	76	46
8.77693	8.82029	74	37
8.82029	8.86365	72	37
8.86365	8.90701	70	37
8.90701	8.9963	50	32
8.90701	8.9963	57	32
8.90701	8.9963	69	43
9.08559	9.12894	67	46
9.12894	9.1723	69	37
9.1723	9.21566	70	37
9.21566	9.25902	72	37
9.25902	9.34831	51	32
9.25902	9.34831	58	32
9.25902	9.34831	74	44
9.4376	9.48096	72	47
9.48096	9.52432	70	37
9.52432	9.56767	69	37
9.56767	9.61103	67	37
9.61103	9.70005	46	32
9.61103	9.70005	53	32
9.61103	9.70005	65	43
9.78908	9.8781	45	37
9.96712	10.0523	52	32
9.96712	10.4785	57	45
9.96712	10.4785	64	45
10.1376	10.2228	45	38
10.308	10.3933	52	32
10.4785	10.5652	39	37
10.4785	10.5218	86	47
10.5218	10.5652	84	37
10.5652	10.6086	82	37
10.6086	10.6519	81	37
10.6519	10.7409	46	32
10.6519	10.7409	79	40
10.83	10.9167	39	37
10.83	10.8733	74	48
10.8733	10.9167	72	37
10.9167	10.96	70	37
10.96	11.0034	69	37
11.0034	11.0924	46	32
11.0034	11.0924	67	40
11.1814	11.2705	45	37
11.3595	11.445	52	32
11.3595	11.8723	57	45
11.3595	11.8723	64	45
11.5304	11.6159	45	38
11.7014	11.7868	52	32
11.8723	11.959	39	37
11.8723	11.9157	86	47
11.9157	11.959	84	37
11.959	12.0024	82	37
12.0024	12.0457	81	37
12.0457	12.1348	46	32
12.0457	12.1348	79	40
12.2238	12.3105	39	37
12.2238	12.2671	74	48
12.2671	12.3105	72	37
12.3105	12.3538	70	37
12.3538	12.3972	69	37
12.3972	12.4862	46	32
12.3972	12.4862	67	40
12.5753	12.662	45	37
12.7487	12.8354	52	32
12.7487	12.9221	57	45
12.7487	12.9221	64	45
12.9221	13.0068	39	38
12.9221	12.9644	74	40
12.9644	13.0068	72	36
13.0068	13.0492	70	36
13.0492	13.0916	69	36
13.0916	13.1763	46	31
13.0916	13.1763	67	40
13.2611	13.3465	45	34
13.432	13.5175	52	32
13.432	13.6029	57	38
13.432	13.6029	64	38
13.6029	13.6872	39	34
13.6029	13.6451	74	34
13.6451	13.6872	72	34
13.6872	13.7294	70	34
13.7294	13.7715	69	34
13.7715	13.8558	46	29
13.7715	13.8558	67	32
13.94	14.0229	45	35
14.1058	14.1886	52	32
14.1058	14.2717	57	37
14.1058	14.2717	64	37
14.2717	14.3555	39	34
14.2717	14.3136	74	32
14.3136	14.3555	72	32
14.3555	14.3974	70	32
14.3974	14.4393	69	32
14.4393	14.5231	46	28
14.4393	14.5231	67	29
14.6069	14.6896	45	32
14.7722	14.8549	52	29
14.7722	14.9378	57	35
14.7722	14.9378	64	35
14.9378	15.0214	39	32
14.9378	14.9796	74	32
14.9796	15.0214	72	32
15.0214	15.0631	70	32
15.0631	15.1049	69	32
15.1049	15.1885	46	27
15.1049	15.1885	67	29
15.2721	15.3593	45	46
15.4465	15.532	52	41
15.4465	15.532	57	37
15.4465	15.532	61	37
15.4465	15.532	64	37
15.6174	15.7046	46	46
15.7919	15.8776	52	41
15.7919	15.8776	58	37
15.7919	15.8776	61	37
15.7919	15.8776	64	37
15.9633	16.0505	44	44
16.1377	16.2234	52	42
16.1377	16.2234	56	34
16.1377	16.2234	61	34
16.1377	16.2234	64	34
16.3091	16.3963	45	46
16.4835	16.5692	52	43
16.4835	16.5692	57	35
16.4835	16.5692	61	35
16.4835	16.5692	64	35
16.655	16.7422	46	48
16.8294	16.9151	52	43
16.8294	16.9151	58	36
16.8294	16.9151	61	36
16.8294	16.9151	64	36
17.0008	17.088	47	51
17.1752	17.2609	52	45
17.1752	17.2609	59	40
17.1752	17.2609	61	40
17.1752	17.2609	64	40
17.3466	17.4339	48	53
17.5211	17.6068	52	49
17.5211	17.6068	60	41
17.5211	17.6068	61	41
17.5211	17.6068	64	41
17.6925	17.7797	47	57
17.8669	17.9526	52	50
17.8669	17.9526	59	43
17.8669	17.9526	61	43
17.8669	17.9526	64	43
18.0383	18.1255	46	58
18.2128	18.2985	52	53
18.2128	18.2985	58	45
18.2128	18.2985	61	45
18.2128	18.2985	64	45
18.3842	18.4714	45	60
18.5586	18.6443	52	54
18.5586	18.6443	57	48
18.5586	18.6443	61	48
18.5586	18.6443	64	48
18.73	18.8172	44	63
18.9044	18.9902	52	58
18.9044	18.9902	56	49
18.9044	18.9902	61	49
18.9044	18.9902	64	49
19.0759	19.1631	43	66
19.2503	19.336	49	60
19.2503	19.336	55	51
19.2503	19.336	58	51
19.2503	19.336	61	51
19.4217	19.5089	42	69
19.5961	19.6818	49	64
19.5961	19.6818	54	53
19.5961	19.6818	58	53
19.5961	19.6818	61	53
19.7676	19.8548	41	77
19.942	20.0277	49	69
19.942	20.0277	53	55
19.942	20.0277	58	55
19.942	20.0277	61	55
20.1134	20.2006	40	83
20.2878	20.3735	49	76
20.2878	20.3735	52	58
20.2878	20.3735	57	58
20.2878	20.3735	61	58
20.4592	20.5465	39	86
20.6337	20.7194	49	79
20.6337	20.7194	51	59
20.6337	20.7194	55	59
20.6337	20.7194	57	59
20.6337	20.7194	61	59
20.8051	20.8926	38	80
20.8051	20.8926	50	94
20.98	21.0675	33	68
20.98	21.0675	45	80
21.155	21.2424	38	80
21.155	21.2424	50	94
21.3299	21.4174	33	68
21.3299	21.4174	45	80
21.5048	21.5923	38	80
21.5048	21.5923	50	94
21.6798	21.7672	33	68
21.6798	21.7672	45	80
21.8547	21.9422	38	80
21.8547	21.9422	50	94
22.0296	22.1166	33	68
22.0296	22.1166	45	80
22.0296	22.0731	74	86
22.0731	22.1166	76	86
22.1166	22.1602	77	86
22.1602	22.2036	79	86
22.2036	22.2927	38	71
22.2036	22.2927	50	84
22.2036	22.2927	81	90
22.3818	22.47	33	60
22.3818	22.47	45	71
22.3818	22.47	74	68
22.3818	22.47	77	68
22.3818	22.47	86	81
22.5583	22.6471	38	71
22.5583	22.6471	50	84
22.5583	22.6471	74	68
22.5583	22.6471	77	68
22.5583	22.6471	86	81
22.7359	22.8234	33	60
22.7359	22.8234	45	71
22.7359	22.8234	74	68
22.7359	22.8234	77	68
22.7359	22.8234	85	81
22.9109	22.9994	38	71
22.9109	22.9994	50	84
22.9109	22.9994	74	73
22.9109	22.9994	77	73
22.9109	22.9994	85	86
23.088	23.1747	33	60
23.088	23.1747	45	71
23.088	23.1747	74	68
23.088	23.1747	77	68
23.088	23.1747	84	81
23.2614	23.3488	38	71
23.2614	23.3488	50	84
23.2614	23.3488	74	68
23.2614	23.3488	77	68
23.2614	23.3488	84	81
23.4363	23.5215	33	60
23.4363	23.5215	45	71
23.4363	23.5215	74	68
23.4363	23.5215	77	68
23.4363	23.5215	83	81
23.6067	23.6941	38	71
23.6067	23.6941	50	84
23.6067	23.6941	74	73
23.6067	23.6941	77	73
23.6067	23.6941	83	86
23.7816	23.8678	33	60
23.7816	23.8678	45	71
23.7816	23.8678	74	69
23.7816	23.8678	77	69
23.7816	23.8678	82	82
23.954	24.0415	38	71
23.954	24.0415	50	84
23.954	24.0415	74	69
23.954	24.0415	77	69
23.954	24.0415	82	82
24.1289	24.2149	33	60
24.1289	24.2149	45	71
24.1289	24.2149	74	69
24.1289	24.2149	77	82
24.1289	24.2149	81	82
24.3008	24.3877	38	71
24.3008	24.3877	50	84
24.3008	24.3877	71	79
24.3008	24.3877	76	79
24.3008	24.3877	80	93
24.4747	24.5617	33	60
24.4747	24.5617	45	71
24.4747	24.8252	71	82
24.4747	24.8252	76	82
24.4747	24.8252	80	97
24.6486	24.7369	38	71
24.6486	24.7369	50	84
24.8252	24.9113	33	60
24.8252	24.9113	45	71
24.8252	24.8683	79	86
24.8683	24.9113	81	86
24.9113	24.9544	82	86
24.9544	24.9975	84	86
24.9975	25.0852	38	71
24.9975	25.0852	50	84
24.9975	25.0852	86	90
25.173	25.2592	33	60
25.173	25.2592	45	71
25.173	25.2592	79	68
25.173	25.2592	82	68
25.173	25.2592	91	81
25.3454	25.4331	38	71
25.3454	25.4331	50	84
25.3454	25.4331	79	68
25.3454	25.4331	82	68
25.3454	25.4331	91	81
25.5208	25.607	33	60
25.5208	25.607	45	71
25.5208	25.607	79	68
25.5208	25.607	82	68
25.5208	25.607	90	81
25.6932	25.7809	38	71
25.6932	25.7809	50	84
25.6932	25.7809	79	73
25.6932	25.7809	82	73
25.6932	25.7809	90	86
25.8687	25.9544	33	60
25.8687	25.9544	45	71
25.8687	25.9544	79	68
25.8687	25.9544	82	68
25.8687	25.9544	89	81
26.04	26.1265	38	71
26.04	26.1265	50	84
26.04	26.1265	79	68
26.04	26.1265	82	68
26.04	26.1265	89	81
26.2129	26.2978	33	60
26.2129	26.2978	45	71
26.2129	26.2978	79	68
26.2129	26.2978	82	68
26.2129	26.2978	88	81
26.3828	26.4703	38	71
26.3828	26.4703	50	84
26.3828	26.4703	79	73
26.3828	26.4703	82	73
26.3828	26.4703	88	86
26.5577	26.6429	33	60
26.5577	26.6429	45	71
26.5577	26.6429	79	69
26.5577	26.6429	82	69
26.5577	26.6429	87	82
26.7281	26.8143	38	71
26.7281	26.8143	50	84
26.7281	26.8143	79	69
26.7281	26.8143	82	69
26.7281	26.8143	87	82
26.9004	26.9856	33	60
26.9004	26.9856	45	71
26.9004	26.9856	79	69
26.9004	26.9856	82	69
26.9004	26.9856	86	82
27.0708	27.1577	38	71
27.0708	27.1577	50	84
27.0708	27.1577	76	79
27.0708	27.1577	81	79
27.0708	27.1577	85	93
27.2447	27.3284	33	60
27.2447	27.3284	45	71
27.2447	27.5796	76	82
27.2447	27.5796	81	82
27.2447	27.5796	85	97
27.4121	27.4958	38	71
27.4121	27.4958	50	84
27.5796	27.6618	33	60
27.5796	27.6618	45	71
27.7441	27.8283	53	71
27.7441	27.8283	65	84
27.7441	27.7862	86	106
27.7862	27.8283	88	83
27.8283	27.8704	89	83
27.8704	27.9125	91	83
27.9125	27.9992	38	50
27.9125	27.9992	50	71
27.9125	27.9992	93	83
28.0859	28.1701	52	71
28.0859	28.1701	64	84
28.0859	28.128	91	104
28.128	28.1701	89	84
28.1701	28.2122	88	84
28.2122	28.2543	86	84
28.2543	28.341	38	50
28.2543	28.341	50	71
28.2543	28.341	84	85
28.4277	28.5119	50	71
28.4277	28.5119	62	84
28.4277	28.4698	82	104
28.4698	28.5119	84	84
28.5119	28.554	86	84
28.554	28.5961	88	84
28.5961	28.6827	38	50
28.5961	28.6827	50	71
28.5961	28.6827	89	84
28.7694	28.8536	48	71
28.7694	28.8536	60	84
28.7694	28.8115	88	104
28.8115	28.8536	86	84
28.8536	28.8957	84	84
28.8957	28.9378	82	84
28.9378	29.0245	38	50
28.9378	29.0245	50	71
28.9378	29.0245	81	84
29.1112	29.1954	46	60
29.1112	29.1954	58	84
29.1112	29.1533	79	104
29.1533	29.1954	81	86
29.1954	29.2375	82	86
29.2375	29.2796	84	86
29.2796	29.3663	38	50
29.2796	29.3663	50	71
29.2796	29.3663	86	86
29.453	29.5372	45	60
29.453	29.5372	57	84
29.453	29.4951	84	104
29.4951	29.5372	82	86
29.5372	29.5793	81	85
29.5793	29.6214	79	85
29.6214	29.7078	38	50
29.6214	29.7078	50	71
29.6214	29.7078	77	85
29.7943	29.88	43	60
29.7943	29.88	55	84
29.7943	29.88	76	94
29.7943	29.88	81	94
29.7943	29.88	88	94
29.9657	30.0504	38	50
29.9657	30.0504	50	71
29.9657	30.3047	76	94
29.9657	30.3047	81	94
29.9657	30.3047	88	94
30.1352	30.2199	43	60
30.1352	30.2199	55	84
30.3047	30.3894	38	50
30.3047	30.3894	50	71
30.4742	30.5584	50	71
30.4742	30.5584	62	84
30.4742	30.5163	82	92
30.5163	30.5584	84	83
30.5584	30.6005	86	83
30.6005	30.6426	88	83
30.6426	30.7292	38	60
30.6426	30.7292	50	71
30.6426	30.7292	89	83
30.8159	30.9001	48	71
30.8159	30.9001	60	84
30.8159	30.858	88	92
30.858	30.9001	86	84
30.9001	30.9422	84	84
30.9422	30.9843	82	84
30.9843	31.071	38	60
30.9843	31.071	50	71
30.9843	31.071	81	85
31.1577	31.2419	46	71
31.1577	31.2419	58	84
31.1577	31.1998	79	92
31.1998	31.2419	81	84
31.2419	31.284	82	84
31.284	31.3261	84	84
31.3261	31.4128	38	60
31.3261	31.4128	50	71
31.3261	31.4128	86	84
31.4995	31.5837	45	71
31.4995	31.5837	57	84
31.4995	31.5416	84	92
31.5416	31.5837	82	84
31.5837	31.6258	81	84
31.6258	31.6679	79	84
31.6679	31.7545	38	60
31.6679	31.7545	50	71
31.6679	31.7545	77	84
31.8412	31.9254	43	71
31.8412	31.9254	55	84
31.8412	31.8833	75	94
31.8833	31.9254	77	83
31.9254	31.9675	79	83
31.9675	32.0096	81	83
32.0096	32.0963	38	60
32.0096	32.0963	50	71
32.0096	32.0963	82	83
32.183	32.2672	41	71
32.183	32.2672	53	84
32.183	32.2251	81	92
32.2251	32.2672	79	83
32.2672	32.3093	77	83
32.3093	32.3514	75	83
32.3514	32.4379	38	60
32.3514	32.4379	50	71
32.3514	32.4379	74	83
32.5243	32.61	40	71
32.5243	32.61	52	84
32.5243	32.61	69	86
32.5243	32.61	76	86
32.5243	32.61	81	86
32.6957	32.7805	38	60
32.6957	32.7805	50	71
32.6957	33.0347	69	86
32.6957	33.0347	76	86
32.6957	33.0347	81	86
32.8652	32.95	40	71
32.8652	32.95	52	84
33.0347	33.1195	38	60
33.0347	33.1195	50	71
33.2046	33.2893	53	62
33.2046	33.247	74	75
33.247	33.2893	76	66
33.2893	33.3317	77	66
33.3317	33.3741	79	66
33.3741	33.4606	38	52
33.3741	33.4606	81	66
33.547	33.6318	52	60
33.547	33.5894	79	77
33.5894	33.6318	77	65
33.6318	33.6742	76	65
33.6742	33.7165	74	65
33.7165	33.8032	38	51
33.7165	33.8032	72	65
33.8899	33.9747	50	59
33.8899	33.9323	70	73
33.9323	33.9747	72	65
33.9747	34.0171	74	64
34.0171	34.0595	76	64
34.0595	34.1459	38	50
34.0595	34.1459	77	64
34.2324	34.3167	48	58
34.2324	34.2746	76	72
34.2746	34.3167	74	64
34.3167	34.3589	72	63
34.3589	34.401	70	63
34.401	34.4875	38	49
34.401	34.4875	69	63
34.5739	34.6587	46	57
34.5739	34.6163	67	71
34.6163	34.6587	69	63
34.6587	34.7011	70	63
34.7011	34.7435	72	62
34.7435	34.8299	38	48
34.7435	34.8299	74	62
34.9164	35.0011	45	56
34.9164	34.9588	72	71
34.9588	35.0011	70	62
35.0011	35.0435	69	62
35.0435	35.0859	67	60
35.0859	35.1724	38	48
35.0859	35.1724	65	60
35.2588	35.3445	43	55
35.2588	35.3445	64	60
35.2588	35.3445	69	60
35.2588	35.3445	76	71
35.4302	35.5147	38	47
35.4302	35.7682	64	61
35.4302	35.7682	69	61
35.4302	35.7682	76	72
35.5992	35.6837	43	54
35.7682	35.8527	38	46
35.9373	36.022	50	49
35.9373	35.9796	70	58
35.9796	36.022	72	54
36.022	36.0644	74	54
36.0644	36.1068	76	54
36.1068	36.1935	38	41
36.1068	36.1935	77	54
36.2802	36.3651	48	48
36.2802	36.3227	76	60
36.3227	36.3651	74	54
36.3651	36.4076	72	54
36.4076	36.4501	70	54
36.4501	36.5368	38	41
36.4501	36.5368	69	55
36.6235	36.7085	46	48
36.6235	36.666	67	59
36.666	36.7085	69	54
36.7085	36.751	70	54
36.751	36.7935	72	54
36.7935	36.8802	38	40
36.7935	36.8802	74	52
36.9669	37.0518	45	47
36.9669	37.0094	72	56
37.0094	37.0518	70	52
37.0518	37.0943	69	52
37.0943	37.1368	67	52
37.1368	37.2235	38	40
37.1368	37.2235	65	52
37.3102	37.3952	43	47
37.3102	37.3527	63	56
37.3527	37.3952	65	51
37.3952	37.4377	67	51
37.4377	37.4802	69	51
37.4802	37.5669	38	40
37.4802	37.5669	70	51
37.6536	37.7385	41	46
37.6536	37.6961	69	55
37.6961	37.7385	67	50
37.7385	37.781	65	50
37.781	37.8235	63	50
37.8235	37.9102	38	39
37.8235	37.9102	62	50
37.9969	38.0831	40	46
37.9969	38.0831	57	43
37.9969	38.0831	64	43
37.9969	38.0831	69	51
38.1691	38.2538	38	37
38.1691	38.508	57	44
38.1691	38.508	64	44
38.1691	38.508	69	52
38.3385	38.4233	40	44
38.508	38.5928	38	37
38.6775	38.7625	39	47
38.6775	38.72	86	59
38.72	38.7625	84	47
38.7625	38.805	82	47
38.805	38.8475	81	47
38.8475	38.9347	45	41
38.8475	38.9347	79	51
39.0219	39.1071	39	47
39.0219	39.0645	74	60
39.0645	39.1071	72	47
39.1071	39.1497	70	47
39.1497	39.1924	69	47
39.1924	39.2796	45	41
39.1924	39.2796	67	51
39.3668	39.454	38	47
39.5412	39.6267	45	41
39.5412	40.054	57	43
39.5412	40.054	64	43
39.5412	40.054	69	51
39.7122	39.7976	38	48
39.8831	39.9686	45	41
40.054	40.1398	39	47
40.054	40.0969	86	59
40.0969	40.1398	84	47
40.1398	40.1826	82	47
40.1826	40.2255	81	47
40.2255	40.3127	45	41
40.2255	40.3127	79	51
40.3999	40.4856	39	47
40.3999	40.4428	74	60
40.4428	40.4856	72	47
40.4856	40.5285	70	47
40.5285	40.5713	69	47
40.5713	40.6586	45	41
40.5713	40.6586	67	51
40.7458	40.8325	38	47
40.9192	41.0059	45	41
40.9192	41.0059	57	36
40.9192	41.0059	64	36
40.9192	41.0059	69	43
41.0926	41.1773	39	48
41.0926	41.135	74	51
41.135	41.1773	72	46
41.1773	41.2197	70	46
41.2197	41.2621	69	46
41.2621	41.3468	45	39
41.2621	41.3468	67	50
41.4316	41.5171	38	43
41.6025	41.688	45	41
41.6025	41.688	57	36
41.6025	41.688	64	36
41.6025	41.688	69	43
41.7735	41.8577	39	43
41.7735	41.8156	74	42
41.8156	41.8577	72	42
41.8577	41.8999	70	42
41.8999	41.942	69	42
41.942	42.0263	45	36
41.942	42.0263	67	40
42.1106	42.1934	38	43
42.2763	42.3592	45	39
42.2763	42.3592	57	34
42.2763	42.3592	64	34
42.2763	42.3592	69	40
42.4423	42.5261	39	42
42.4423	42.4842	74	40
42.4842	42.5261	72	40
42.5261	42.568	70	40
42.568	42.6099	69	39
42.6099	42.6937	45	34
42.6099	42.6937	67	36
42.7775	42.8601	38	39
42.9427	43.0254	45	36
42.9427	43.0254	57	30
42.9427	43.0254	64	30
42.9427	43.0254	69	36
43.1083	43.1919	39	37
43.1083	43.1501	74	37
43.1501	43.1919	72	37
43.1919	43.2337	70	37
43.2337	43.2755	69	37
43.2755	43.359	45	32
43.2755	43.359	67	35
43.4426	43.5341	38	41
43.6255	43.717	45	39
43.8084	43.8999	38	41
43.991	44.079	45	39
43.991	44.035	50	46
44.035	44.079	52	46
44.079	44.1231	53	46
44.1231	44.1671	55	46
44.1671	44.2578	38	41
44.1671	44.2578	57	50
44.3486	44.4385	45	39
44.3486	44.4385	50	36
44.3486	44.4385	53	36
44.3486	44.4385	62	43
44.5285	44.619	38	41
44.5285	44.619	50	36
44.5285	44.619	53	36
44.5285	44.619	62	43
44.7094	44.7986	45	39
44.7094	44.7986	50	36
44.7094	44.7986	53	36
44.7094	44.7986	61	43
44.8877	44.9779	38	41
44.8877	44.9779	50	39
44.8877	44.9779	53	39
44.8877	44.9779	61	46
45.0681	45.1564	45	39
45.0681	45.1564	50	36
45.0681	45.1564	53	36
45.0681	45.1564	60	43
45.2447	45.3339	38	41
45.2447	45.3339	50	36
45.2447	45.3339	53	36
45.2447	45.3339	60	43
45.423	45.5097	45	39
45.423	45.5097	50	36
45.423	45.5097	53	36
45.423	45.5097	59	43
45.5965	45.6856	38	41
45.5965	45.6856	50	39
45.5965	45.6856	53	39
45.5965	45.6856	59	46
45.7747	45.8625	45	37
45.7747	45.8625	50	35
45.7747	45.8625	53	35
45.7747	45.8625	58	42
45.9503	46.041	38	41
45.9503	46.041	50	35
45.9503	46.041	53	35
45.9503	46.041	58	42
46.1316	46.2201	45	37
46.1316	47.0165	50	34
46.1316	47.0165	53	34
46.1316	47.0165	57	41
46.3086	46.3971	38	43
46.4856	46.5741	45	40
46.6626	46.7511	38	43
46.8396	46.9281	45	41
47.0165	47.1048	38	42
47.1933	47.282	45	40
47.371	47.4603	50	42
47.5499	47.6397	57	40
47.7298	47.8202	62	40
47.9117	48.0042	69	39
48.0987	48.1984	74	36
48.306	50.0855	81	42
49.5314	50.6252	62	27
49.5314	50.6252	69	27
49.5314	50.6252	74	27
49.5314	50.6252	78	27
50.072	50.3422	83	48
50.3422	50.6252	85	48
50.6252	51.6966	59	27
50.6252	51.6966	66	27
50.6252	51.6966	71	27
50.6252	51.6922	74	27
50.6252	51.6966	86	52
51.1539	51.6922	85	48
51.4182	51.6966	83	48
51.6922	52.7648	62	27
51.6922	52.7648	69	27
51.6922	52.7626	74	26
51.6922	52.7626	78	26
51.6922	52.4886	85	50
51.9577	52.7648	81	48
52.4886	52.6941	85	46
52.6941	52.7648	85	39
52.7626	53.8348	59	23
52.7626	53.8348	66	23
52.7626	53.8348	71	23
52.7626	53.8293	74	23
52.7626	53.8293	78	42
53.8293	54.3735	62	36
53.8293	54.9062	69	27
53.8293	54.8984	74	27
53.8293	54.9062	78	27
53.8293	54.3735	81	48
54.3602	54.9062	61	36
54.3602	54.9062	83	48
54.6257	54.9062	85	48
54.8984	55.974	59	27
54.8984	55.4427	66	37
54.8984	55.974	71	27
54.8984	55.9652	74	27
54.8984	55.4427	86	52
55.4294	55.974	65	35
55.4294	55.9652	85	48
55.6949	55.974	83	48
55.9652	57.0301	64	27
55.9652	56.506	69	40
55.9652	57.0323	74	26
55.9652	56.506	85	50
56.2295	57.0301	81	48
56.495	57.0323	68	37
56.7635	56.9635	85	46
56.9635	57.0323	85	39
57.0301	58.085	57	23
57.0301	57.5696	64	35
57.0301	58.0828	69	23
57.0301	58.085	73	23
57.0301	58.085	81	42
57.5564	58.085	65	33
58.0828	58.6224	69	42
58.3471	59.1457	50	21
58.3471	59.1457	57	27
58.3471	59.1457	62	27
58.3471	59.1457	66	27
58.6114	59.1457	71	42
58.8746	59.1457	73	42
59.1424	59.6843	74	47
59.4068	60.2113	47	21
59.4068	60.2113	54	21
59.4068	60.2113	59	27
59.4068	60.2113	62	27
59.6711	60.2069	73	42
59.9354	60.2113	71	42
60.2069	60.9975	73	44
60.4689	61.2747	50	21
60.4689	61.2747	57	27
60.4689	61.2747	62	26
60.4689	61.2703	66	26
60.7332	61.2747	69	42
60.9975	61.2021	73	41
61.2021	61.2747	73	34
61.2703	62.3399	66	37
61.5357	62.3399	47	18
61.5357	62.3399	54	18
61.5357	62.3399	59	23
61.5357	62.3399	62	23
62.3322	62.8763	69	42
62.5977	63.3976	50	35
62.5977	63.3976	57	27
62.5977	63.3976	62	27
62.5977	63.3976	66	27
62.8632	63.3976	71	42
63.1252	63.3976	49	34
63.1252	63.3976	73	42
63.3942	63.9385	74	47
63.6597	64.4667	47	31
63.6597	64.4667	54	39
63.6597	64.4667	59	31
63.6597	64.4667	62	27
63.9252	64.4634	73	44
64.1907	64.4667	53	35
64.1907	64.4667	71	46
64.4634	65.2671	73	51
64.6617	65.5491	40	27
64.7277	65.5491	57	35
64.7277	65.5491	62	35
64.9956	65.5491	66	42
65.2671	65.5491	56	34
65.2671	65.4764	73	41
65.4764	65.5491	73	34
65.5468	66.6427	69	37
65.8208	66.6427	45	18
65.8208	66.6427	52	18
65.8208	66.6427	57	23
65.8208	66.6427	61	23
66.6427	67.6553	57	35
66.7271	67.7397	67	35
66.8115	67.8241	73	35
66.8959	67.9085	76	35
66.9802	67.149	79	35
67.0646	68.0773	88	35
67.149	67.9929	79	40
67.149	68.1616	83	41
67.6553	68.668	57	35
67.7397	68.9035	67	35
67.8241	69.0207	73	35
67.9085	69.2539	76	35
67.9929	68.1616	79	35
68.0773	70.1733	88	35
68.1616	69.4856	79	40
68.1616	70.0584	83	41
68.668	70.3776	57	40
68.9035	70.3776	64	40
68.9035	69.1375	67	40
69.0207	69.6008	73	36
69.1375	70.3776	67	39
69.1375	69.3699	71	40
69.2539	69.6008	76	36
69.3699	70.3776	71	39
69.3699	70.3776	74	40
69.4856	69.8303	79	36
69.6008	70.3776	73	37
69.6008	69.8303	76	39
69.7158	70.3776	81	36
69.8303	70.3776	76	36
69.8303	70.0584	79	39
69.9445	70.3776	85	35
70.0584	70.3776	79	36
70.0584	70.3776	83	39
70.1733	70.3776	88	36
70.5203	71.5339	53	35
70.6047	71.6183	63	35
70.6892	71.7028	69	35
70.7737	71.7872	72	35
70.855	71.027	75	35
70.9426	71.9562	84	35
71.027	71.8717	75	39
71.027	72.0406	79	40
71.5339	72.5474	53	35
71.6183	72.7793	63	35
71.7028	72.8948	69	35
71.7872	73.125	72	35
71.8717	72.0406	75	35
71.9562	74.0371	84	35
72.0406	73.3541	75	41
72.0406	73.9221	79	40
72.5474	74.2414	53	40
72.7793	74.2414	60	40
72.7793	73.0101	63	40
72.8948	73.4683	69	36
73.0101	74.2414	63	39
73.0101	73.2397	67	40
73.125	73.4683	72	36
73.2397	74.2414	67	39
73.2397	74.2414	70	40
73.3541	73.6957	75	36
73.4683	74.2414	69	37
73.4683	73.6957	72	39
73.5821	74.2414	77	36
73.6957	74.2414	72	36
73.6957	73.9221	75	39
73.8091	74.2414	81	35
73.9221	74.2414	75	36
73.9221	74.2414	79	39
74.0371	74.2414	84	36
74.3841	76.658	50	33
74.6125	76.658	57	33
74.6125	74.8408	60	33
74.7266	75.2976	66	31
74.8408	76.658	60	32
74.8408	75.0692	64	33
74.955	75.2976	69	31
75.0692	76.658	64	32
75.0692	76.658	67	33
75.1834	75.5257	72	31
75.2976	76.658	66	31
75.2976	75.5257	69	32
75.4115	76.658	74	29
75.5257	76.658	69	29
75.5257	75.7555	72	31
75.6404	76.658	78	27
75.7555	76.658	72	28
75.7555	76.658	76	29
75.871	76.658	81	25
77.7373	78.8391	67	24
77.7373	78.8391	74	24
77.7373	78.8391	79	24
77.7373	78.8391	83	24
77.7373	78.8391	86	44
78.2821	78.8391	88	42
78.5574	78.8391	90	42
78.8391	79.9233	64	24
78.8391	79.9233	71	24
78.8391	79.9233	76	24
78.8391	79.9166	79	24
78.8391	79.9233	91	47
79.3748	79.9166	90	42
79.6426	79.9233	88	42
79.9166	80.994	67	24
79.9166	80.994	74	24
79.9166	80.9906	79	23
79.9166	80.9906	83	23
79.9166	80.7191	90	44
80.1821	80.994	86	42
80.7191	80.9227	90	41
80.9227	80.994	90	34
80.9906	82.0676	64	20
80.9906	82.0676	71	20
80.9906	82.0676	76	20
80.9906	82.062	79	20
80.9906	82.062	83	37
82.062	83.1441	67	32
82.062	83.1441	74	24
82.062	83.1396	79	24
82.062	83.1441	83	24
82.062	83.1441	86	42
82.5978	83.1441	66	32
82.5978	83.1441	88	42
82.8656	83.1441	90	42
83.1396	84.2159	64	24
83.1396	84.2159	71	33
83.1396	84.2159	76	24
83.1396	84.2159	79	24
83.1396	84.2159	91	47
83.6753	84.2159	70	31
83.6753	84.2159	90	42
83.9432	84.2159	88	42
84.2159	85.2874	69	24
84.2159	85.2874	74	35
84.2159	85.2874	79	23
84.2159	85.0147	90	44
84.4814	85.2874	86	42
84.748	85.2874	73	33
85.0147	85.2193	90	41
85.2193	85.2874	90	34
85.2874	86.3585	62	20
85.2874	85.833	69	31
85.2874	86.3541	74	20
85.2874	86.3585	78	20
85.2874	86.3585	86	37
85.8208	86.3585	70	27
86.3541	86.9006	74	41
86.6207	87.423	55	26
86.6207	87.423	62	26
86.6207	87.423	67	26
86.6207	87.423	71	26
86.8874	87.423	76	41
87.1517	87.423	78	41
87.4208	87.9615	79	44
87.6851	88.4896	52	26
87.6851	88.4896	59	26
87.6851	88.4896	64	26
87.6851	88.4896	67	26
87.9494	88.4852	78	41
88.2137	88.4896	76	41
88.4852	89.2852	78	43
88.7495	89.558	55	26
88.7495	89.558	62	26
88.7495	89.558	67	25
88.7495	89.558	71	25
89.0174	89.558	74	41
89.2852	89.4898	78	40
89.4898	89.558	78	33
89.558	90.6291	71	35
89.8246	90.6291	52	21
89.8246	90.6291	59	21
89.8246	90.6291	64	21
89.8246	90.6291	67	21
90.6246	91.1712	74	43
90.8913	91.6968	55	33
90.8913	91.6968	62	26
90.8913	91.6968	67	26
90.8913	91.6968	71	26
91.158	91.6968	76	43
91.4223	91.6968	54	33
91.4223	91.6968	78	43
91.6913	92.2356	79	47
91.9568	92.7626	52	29
91.9568	92.7626	59	37
91.9568	92.7626	64	29
91.9568	92.7626	67	26
92.2223	92.7593	78	42
92.4878	92.7626	58	33
92.4878	92.7626	76	44
92.7593	93.569	78	50
92.9584	93.859	45	26
93.0248	93.859	62	33
93.0248	93.859	67	33
93.295	93.859	71	41
93.569	93.859	61	33
93.569	93.7753	78	40
93.7753	93.859	78	33
93.8522	94.9333	74	35
94.1225	94.9333	50	21
94.1225	94.9333	57	21
94.1225	94.9333	62	21
94.1225	94.9333	66	21
94.9333	95.8738	62	35
95.0117	95.8738	72	35
95.0901	95.8738	78	35
95.1684	95.8738	81	35
95.2468	95.4036	84	35
95.3252	95.8738	93	35
95.4036	95.8738	84	40
95.4036	95.8738	88	41
95.8738	96.7457	62	40
96.0918	96.7477	71	40
96.0918	96.5277	79	40
96.2008	96.5277	86	36
96.3098	96.7477	74	39
96.3098	96.7477	83	40
96.4187	96.7477	91	36
96.5277	96.7477	79	39
96.5277	96.7477	86	40
96.6367	96.7477	95	36
96.7457	97.6862	62	35
96.8241	97.6934	69	35
96.9025	97.6934	73	35
96.9808	97.6934	76	35
97.0592	97.216	79	35
97.1376	97.6934	88	35
97.216	97.6934	79	40
97.216	97.6934	83	41
97.6862	98.562	62	40
97.9042	98.562	69	40
97.9042	98.3401	78	40
98.0131	98.3401	86	36
98.1221	98.562	74	39
98.1221	98.562	81	40
98.2311	98.562	90	36
98.3401	98.562	78	39
98.3401	98.562	86	40
98.4491	98.562	93	36
98.5581	99.4986	50	35
98.6374	99.4986	60	35
98.7148	99.4986	66	35
98.7932	99.4986	69	35
98.8716	99.0283	72	35
98.95	99.4986	81	34
99.0283	99.4986	72	39
99.0283	99.4986	76	40
99.4986	100.37	50	39
99.7165	100.37	59	37
99.7165	99.9345	71	37
99.8255	100.153	74	35
99.9345	100.37	62	36
99.9345	100.37	71	37
100.044	100.37	79	34
100.153	100.37	67	36
100.153	100.37	74	37
100.261	100.37	83	34
100.37	101.311	50	33
100.449	101.311	57	33
100.527	101.311	61	33
100.606	101.311	64	33
100.684	100.841	67	33
100.762	101.311	76	33
100.841	101.311	67	37
100.841	101.311	71	39
101.311	102.183	50	35
101.529	102.183	57	37
101.529	102.183	66	37
101.638	101.965	74	35
101.747	102.183	62	40
101.747	101.965	69	39
101.856	102.183	78	35
101.965	102.183	69	42
101.965	102.183	74	39
102.074	102.183	81	35
102.183	102.277	74	46
102.372	102.466	69	43
102.56	102.655	62	43
102.749	102.843	69	43
102.938	103.032	62	43
103.126	103.22	57	43
103.313	103.407	62	42
103.501	103.594	57	41
103.688	103.781	50	42
103.874	103.967	57	40
104.06	104.153	50	42
104.245	104.338	45	41
104.431	104.523	38	41
104.615	104.707	45	31
104.799	104.89	38	32
104.981	105.073	45	31
105.163	105.254	38	32
105.345	105.435	45	31
105.526	105.617	38	32
105.707	105.796	45	31
105.707	105.751	62	36
105.751	105.796	64	36
105.796	105.84	65	36
105.84	105.885	67	36
105.885	105.977	38	32
105.885	105.977	69	38
106.069	106.159	45	31
106.069	106.159	62	34
106.069	106.159	65	34
106.069	106.159	74	34
106.25	106.342	38	32
106.25	106.342	62	34
106.25	106.342	65	34
106.25	106.342	74	34
106.433	106.523	45	31
106.433	106.523	62	34
106.433	106.523	65	34
106.433	106.523	73	34
106.613	106.705	38	32
106.613	106.705	62	36
106.613	106.705	65	36
106.613	106.705	73	36
106.796	106.885	45	31
106.796	106.885	62	34
106.796	106.885	65	34
106.796	106.885	72	34
106.974	107.065	38	32
106.974	107.065	62	34
106.974	107.065	65	34
106.974	107.065	72	34
107.155	107.242	45	31
107.155	107.242	62	34
107.155	107.242	65	34
107.155	107.242	71	34
107.33	107.42	38	32
107.33	107.42	62	36
107.33	107.42	65	36
107.33	107.42	71	36
107.51	107.599	45	29
107.51	107.599	62	33
107.51	107.599	65	33
107.51	107.599	70	33
107.688	107.778	38	32
107.688	107.778	62	33
107.688	107.778	65	33
107.688	107.778	70	33
107.868	107.956	45	29
107.868	107.956	62	32
107.868	107.956	65	32
107.868	107.956	69	32
108.045	108.134	38	32
108.045	108.134	59	43
108.045	108.134	64	43
108.045	108.134	68	43
108.224	108.314	45	31
108.224	108.585	59	43
108.224	108.585	64	43
108.224	108.585	68	43
108.403	108.494	38	32
108.585	108.674	45	31
108.585	108.629	67	36
108.629	108.674	69	36
108.674	108.718	70	36
108.718	108.762	72	36
108.762	108.853	38	32
108.762	108.853	74	38
108.944	109.034	45	31
108.944	109.034	67	34
108.944	109.034	70	34
108.944	109.034	79	34
109.124	109.215	38	32
109.124	109.215	67	34
109.124	109.215	70	34
109.124	109.215	79	34
109.306	109.394	45	31
109.306	109.394	67	34
109.306	109.394	70	34
109.306	109.394	78	34
109.483	109.574	38	32
109.483	109.574	67	36
109.483	109.574	70	36
109.483	109.574	78	36
109.664	109.752	45	31
109.664	109.752	67	34
109.664	109.752	70	34
109.664	109.752	77	34
109.84	109.929	38	32
109.84	109.929	67	34
109.84	109.929	70	34
109.84	109.929	77	34
110.018	110.106	45	31
110.018	110.106	67	34
110.018	110.106	70	34
110.018	110.106	76	34
110.193	110.284	38	32
110.193	110.284	67	36
110.193	110.284	70	36
110.193	110.284	76	36
110.374	110.461	45	29
110.374	110.461	67	32
110.374	110.461	70	32
110.374	110.461	75	32
110.549	110.638	38	32
110.549	110.638	67	32
110.549	110.638	70	32
110.549	110.638	75	32
110.727	110.814	45	29
110.727	110.814	67	32
110.727	110.814	70	32
110.727	110.814	74	32
110.902	110.992	38	32
110.902	110.992	64	44
110.902	110.992	69	44
110.902	110.992	73	44
111.081	111.167	45	31
111.081	111.426	64	44
111.081	111.426	69	44
111.081	111.426	73	44
111.254	111.34	38	32
111.426	111.511	45	31
111.595	111.639	74	46
111.639	111.682	76	35
111.682	111.725	77	35
111.725	111.769	79	35
111.769	111.858	58	32
111.769	111.858	65	32
111.769	111.858	81	40
111.947	111.991	79	46
111.991	112.034	77	36
112.034	112.077	76	36
112.077	112.121	74	36
112.121	112.21	53	32
112.121	112.21	60	32
112.121	112.21	72	40
112.299	112.343	70	45
112.343	112.386	72	36
112.386	112.43	74	36
112.43	112.473	76	36
112.473	112.562	55	32
112.473	112.562	62	32
112.473	112.562	77	41
112.651	112.695	76	46
112.695	112.738	74	37
112.738	112.782	72	37
112.782	112.825	70	37
112.825	112.914	50	32
112.825	112.914	57	32
112.825	112.914	69	43
113.003	113.047	67	46
113.047	113.09	69	37
113.09	113.134	70	37
113.134	113.177	72	37
113.177	113.266	51	32
113.177	113.266	58	32
113.177	113.266	74	44
113.355	113.399	72	47
113.399	113.442	70	37
113.442	113.486	69	37
113.486	113.529	67	37
113.529	113.618	46	32
113.529	113.618	53	32
113.529	113.618	65	43
113.707	113.796	45	37
113.885	113.97	52	32
113.885	114.396	57	45
113.885	114.396	64	45
114.055	114.141	45	38
114.226	114.311	52	32
114.396	114.483	39	37
114.396	114.44	86	47
114.44	114.483	84	37
114.483	114.526	82	37
114.526	114.57	81	37
114.57	114.659	46	32
114.57	114.659	79	40
114.748	114.835	39	37
114.748	114.791	74	48
114.791	114.835	72	37
114.835	114.878	70	37
114.878	114.921	69	37
114.921	115.01	46	32
114.921	115.01	67	40
115.099	115.188	45	37
115.277	115.363	52	32
115.277	115.79	57	45
115.277	115.79	64	45
115.448	115.534	45	38
115.619	115.705	52	32
115.79	115.877	39	37
115.79	115.834	86	47
115.834	115.877	84	37
115.877	115.92	82	37
115.92	115.964	81	37
115.964	116.053	46	32
115.964	116.053	79	40
116.142	116.228	39	37
116.142	116.185	74	48
116.185	116.228	72	37
116.228	116.272	70	37
116.272	116.315	69	37
116.315	116.404	46	32
116.315	116.404	67	40
116.493	116.58	45	37
116.667	116.753	52	32
116.667	116.84	57	45
116.667	116.84	64	45
116.84	116.925	39	38
116.84	116.882	74	40
116.882	116.925	72	36
116.925	116.967	70	36
116.967	117.009	69	36
117.009	117.094	46	31
117.009	117.094	67	40
117.179	117.264	45	34
117.35	117.435	52	32
117.35	117.521	57	38
117.35	117.521	64	38
117.521	117.605	39	34
117.521	117.563	74	34
117.563	117.605	72	34
117.605	117.647	70	34
117.647	117.689	69	34
117.689	117.774	46	29
117.689	117.774	67	32
117.858	117.941	45	35
118.024	118.107	52	32
118.024	118.19	57	37
118.024	118.19	64	37
118.19	118.273	39	34
118.19	118.232	74	32
118.232	118.273	72	32
118.273	118.315	70	32
118.315	118.357	69	32
118.357	118.441	46	28
118.357	118.441	67	29
118.525	118.607	45	32
118.69	118.773	52	29
118.69	118.856	57	35
118.69	118.856	64	35
118.856	118.939	39	32
118.856	118.897	74	32
118.897	118.939	72	32
118.939	118.981	70	32
118.981	119.023	69	32
119.023	119.106	46	27
119.023	119.106	67	29
119.19	119.277	45	46
119.364	119.45	52	41
119.364	119.45	57	37
119.364	119.45	61	37
119.364	119.45	64	37
119.535	119.623	46	46
119.71	119.795	52	41
119.71	119.795	58	37
119.71	119.795	61	37
119.71	119.795	64	37
119.881	119.968	44	44
120.056	120.141	52	42
120.056	120.141	56	34
120.056	120.141	61	34
120.056	120.141	64	34
120.227	120.314	45	46
120.401	120.487	52	43
120.401	120.487	57	35
120.401	120.487	61	35
120.401	120.487	64	35
120.573	120.66	46	48
120.747	120.833	52	43
120.747	120.833	58	36
120.747	120.833	61	36
120.747	120.833	64	36
120.919	121.006	47	51
121.093	121.179	52	45
121.093	121.179	59	40
121.093	121.179	61	40
121.093	121.179	64	40
121.265	121.352	48	53
121.439	121.525	52	49
121.439	121.525	60	41
121.439	121.525	61	41
121.439	121.525	64	41
121.61	121.698	47	57
121.785	121.87	52	50
121.785	121.87	59	43
121.785	121.87	61	43
121.785	121.87	64	43
121.956	122.043	46	58
122.131	122.216	52	53
122.131	122.216	58	45
122.131	122.216	61	45
122.131	122.216	64	45
122.302	122.389	45	60
122.476	122.562	52	54
122.476	122.562	57	48
122.476	122.562	61	48
122.476	122.562	64	48
122.648	122.735	44	63
122.822	122.908	52	58
122.822	122.908	56	49
122.822	122.908	61	49
122.822	122.908	64	49
122.994	123.081	43	66
123.168	123.254	49	60
123.168	123.254	55	51
123.168	123.254	58	51
123.168	123.254	61	51
123.34	123.427	42	69
123.514	123.6	49	64
123.514	123.6	54	53
123.514	123.6	58	53
123.514	123.6	61	53
123.685	123.773	41	77
123.86	123.946	49	69
123.86	123.946	53	55
123.86	123.946	58	55
123.86	123.946	61	55
124.031	124.118	40	83
124.206	124.291	49	76
124.206	124.291	52	58
124.206	124.291	57	58
124.206	124.291	61	58
124.377	124.464	39	86
124.552	124.637	49	79
124.552	124.637	51	59
124.552	124.637	55	59
124.552	124.637	57	59
124.552	124.637	61	59
124.723	124.81	38	87
124.723	124.81	50	102
124.898	124.985	33	68
124.898	124.985	45	80
125.073	125.16	38	80
125.073	125.16	50	94
125.248	125.335	33	68
125.248	125.335	45	80
125.423	125.51	38	80
125.423	125.51	50	94
125.598	125.685	33	68
125.598	125.685	45	80
125.773	125.86	38	80
125.773	125.86	50	94
125.947	126.034	33	68
125.947	126.034	45	80
125.947	125.991	74	86
125.991	126.034	76	86
126.034	126.078	77	86
126.078	126.121	79	86
126.121	126.211	38	71
126.121	126.211	50	84
126.121	126.211	81	90
126.3	126.388	33	60
126.3	126.388	45	71
126.3	126.388	74	68
126.3	126.388	77	68
126.3	126.388	86	81
126.476	126.565	38	71
126.476	126.565	50	84
126.476	126.565	74	68
126.476	126.565	77	68
126.476	126.565	86	81
126.654	126.741	33	60
126.654	126.741	45	71
126.654	126.741	74	68
126.654	126.741	77	68
126.654	126.741	85	81
126.829	126.917	38	71
126.829	126.917	50	84
126.829	126.917	74	73
126.829	126.917	77	73
126.829	126.917	85	86
127.006	127.093	33	60
127.006	127.093	45	71
127.006	127.093	74	68
127.006	127.093	77	68
127.006	127.093	84	81
127.179	127.267	38	71
127.179	127.267	50	84
127.179	127.267	74	68
127.179	127.267	77	68
127.179	127.267	84	81
127.354	127.439	33	60
127.354	127.439	45	71
127.354	127.439	74	68
127.354	127.439	77	68
127.354	127.439	83	81
127.525	127.612	38	71
127.525	127.612	50	84
127.525	127.612	74	73
127.525	127.612	77	73
127.525	127.612	83	86
127.699	127.786	33	60
127.699	127.786	45	71
127.699	127.786	74	69
127.699	127.786	77	69
127.699	127.786	82	82
127.872	127.959	38	71
127.872	127.959	50	84
127.872	127.959	74	69
127.872	127.959	77	69
127.872	127.959	82	82
128.047	128.133	33	60
128.047	128.133	45	71
128.047	128.133	74	69
128.047	128.133	77	69
128.047	128.133	81	82
128.219	128.306	38	71
128.219	128.306	50	84
128.219	128.306	71	79
128.219	128.306	76	79
128.219	128.306	80	93
128.393	128.48	33	60
128.393	128.48	45	71
128.393	128.743	71	82
128.393	128.743	76	82
128.393	128.743	80	97
128.566	128.655	38	71
128.566	128.655	50	84
128.743	128.829	33	60
128.743	128.829	45	71
128.743	128.786	79	86
128.786	128.829	81	86
128.829	128.872	82	86
128.872	128.915	84	86
128.915	129.003	38	71
128.915	129.003	50	84
128.915	129.003	86	90
129.091	129.177	33	60
129.091	129.177	45	71
129.091	129.177	79	68
129.091	129.177	82	68
129.091	129.177	91	81
129.263	129.351	38	71
129.263	129.351	50	84
129.263	129.351	79	68
129.263	129.351	82	68
129.263	129.351	91	81
129.439	129.525	33	60
129.439	129.525	45	71
129.439	129.525	79	68
129.439	129.525	82	68
129.439	129.525	90	81
129.611	129.699	38	71
129.611	129.699	50	84
129.611	129.699	79	73
129.611	129.699	82	73
129.611	129.699	90	86
129.787	129.872	33	60
129.787	129.872	45	71
129.787	129.872	79	68
129.787	129.872	82	68
129.787	129.872	89	81
129.958	130.044	38	71
129.958	130.044	50	84
129.958	130.044	79	68
129.958	130.044	82	68
129.958	130.044	89	81
130.131	130.216	33	60
130.131	130.216	45	71
130.131	130.216	79	68
130.131	130.216	82	68
130.131	130.216	88	81
130.301	130.388	38	71
130.301	130.388	50	84
130.301	130.388	79	73
130.301	130.388	82	73
130.301	130.388	88	86
130.476	130.561	33	60
130.476	130.561	45	71
130.476	130.561	79	69
130.476	130.561	82	69
130.476	130.561	87	82
130.646	130.732	38	71
130.646	130.732	50	84
130.646	130.732	79	69
130.646	130.732	82	69
130.646	130.732	87	82
130.818	130.903	33	60
130.818	130.903	45	71
130.818	130.903	79	69
130.818	130.903	82	69
130.818	130.903	86	82
130.989	131.076	38	71
130.989	131.076	50	84
130.989	131.076	76	79
130.989	131.076	81	79
130.989	131.076	85	93
131.163	131.246	33	60
131.163	131.246	45	71
131.163	131.497	76	82
131.163	131.497	81	82
131.163	131.497	85	97
131.33	131.414	38	71
131.33	131.414	50	84
131.497	131.58	33	60
131.497	131.58	45	71
131.662	131.746	53	71
131.662	131.746	65	84
131.662	131.704	86	106
131.704	131.746	88	83
131.746	131.788	89	83
131.788	131.83	91	83
131.83	131.917	38	60
131.83	131.917	50	71
131.83	131.917	93	83
132.004	132.088	52	71
132.004	132.088	64	84
132.004	132.046	91	104
132.046	132.088	89	84
132.088	132.13	88	84
132.13	132.172	86	84
132.172	132.259	38	60
132.172	132.259	50	71
132.172	132.259	84	85
132.346	132.43	50	71
132.346	132.43	62	84
132.346	132.388	82	104
132.388	132.43	84	84
132.43	132.472	86	84
132.472	132.514	88	84
132.514	132.601	38	60
132.514	132.601	50	71
132.514	132.601	89	84
132.687	132.771	48	71
132.687	132.771	60	84
132.687	132.729	88	104
132.729	132.771	86	84
132.771	132.814	84	84
132.814	132.856	82	84
132.856	132.942	38	60
132.856	132.942	50	71
132.856	132.942	81	84
133.029	133.113	46	71
133.029	133.113	58	84
133.029	133.071	79	104
133.071	133.113	81	86
133.113	133.155	82	86
133.155	133.197	84	86
133.197	133.284	38	60
133.197	133.284	50	71
133.197	133.284	86	86
133.371	133.455	45	71
133.371	133.455	57	84
133.371	133.413	84	104
133.413	133.455	82	86
133.455	133.497	81	85
133.497	133.539	79	85
133.539	133.626	38	60
133.539	133.626	50	71
133.539	133.626	77	85
133.712	133.798	43	71
133.712	133.798	55	84
133.712	133.798	76	94
133.712	133.798	81	94
133.712	133.798	88	94
133.884	133.968	38	60
133.884	133.968	50	71
133.884	134.223	76	94
133.884	134.223	81	94
133.884	134.223	88	94
134.053	134.138	43	71
134.053	134.138	55	84
134.223	134.307	38	60
134.223	134.307	50	71
134.392	134.476	50	71
134.392	134.476	62	84
134.392	134.434	82	92
134.434	134.476	84	83
134.476	134.518	86	83
134.518	134.56	88	83
134.56	134.647	38	60
134.56	134.647	50	71
134.56	134.647	89	83
134.734	134.818	48	71
134.734	134.818	60	84
134.734	134.776	88	92
134.776	134.818	86	84
134.818	134.86	84	84
134.86	134.902	82	84
134.902	134.989	38	60
134.902	134.989	50	71
134.902	134.989	81	85
135.076	135.16	46	71
135.076	135.16	58	84
135.076	135.118	79	92
135.118	135.16	81	84
135.16	135.202	82	84
135.202	135.244	84	84
135.244	135.331	38	60
135.244	135.331	50	71
135.244	135.331	86	84
135.417	135.502	45	71
135.417	135.502	57	84
135.417	135.459	84	92
135.459	135.502	82	84
135.502	135.544	81	84
135.544	135.586	79	84
135.586	135.672	38	60
135.586	135.672	50	71
135.586	135.672	77	84
135.759	135.843	43	71
135.759	135.843	55	84
135.759	135.801	75	94
135.801	135.843	77	83
135.843	135.885	79	83
135.885	135.927	81	83
135.927	136.014	38	60
135.927	136.014	50	71
135.927	136.014	82	83
136.101	136.185	41	71
136.101	136.185	53	84
136.101	136.143	81	92
136.143	136.185	79	83
136.185	136.227	77	83
136.227	136.269	75	83
136.269	136.356	38	60
136.269	136.356	50	71
136.269	136.356	74	83
136.442	136.528	40	71
136.442	136.528	52	84
136.442	136.528	69	86
136.442	136.528	76	86
136.442	136.528	81	86
136.614	136.698	38	60
136.614	136.698	50	71
136.614	136.953	69	86
136.614	136.953	76	86
136.614	136.953	81	86
136.783	136.868	40	71
136.783	136.868	52	84
136.953	137.037	38	60
136.953	137.037	50	71
137.122	137.207	53	62
137.122	137.165	74	75
137.165	137.207	76	66
137.207	137.25	77	66
137.25	137.292	79	66
137.292	137.378	38	52
137.292	137.378	81	66
137.465	137.55	52	60
137.465	137.507	79	77
137.507	137.55	77	65
137.55	137.592	76	65
137.592	137.634	74	65
137.634	137.721	38	51
137.634	137.721	72	65
137.808	137.893	50	59
137.808	137.85	70	73
137.85	137.893	72	65
137.893	137.935	74	64
137.935	137.977	76	64
137.977	138.064	38	50
137.977	138.064	77	64
138.15	138.235	48	58
138.15	138.192	76	72
138.192	138.235	74	64
138.235	138.277	72	63
138.277	138.319	70	63
138.319	138.405	38	49
138.319	138.405	69	63
138.492	138.577	46	57
138.492	138.534	67	71
138.534	138.577	69	63
138.577	138.619	70	63
138.619	138.661	72	62
138.661	138.748	38	48
138.661	138.748	74	62
138.834	138.919	45	56
138.834	138.877	72	71
138.877	138.919	70	62
138.919	138.961	69	62
138.961	139.004	67	60
139.004	139.09	38	48
139.004	139.09	65	60
139.177	139.262	43	55
139.177	139.262	64	71
139.177	139.262	69	71
139.177	139.262	76	71
139.348	139.433	38	47
139.348	139.686	64	72
139.348	139.686	69	72
139.348	139.686	76	72
139.517	139.602	43	54
139.686	139.771	38	46
139.855	139.94	50	49
139.855	139.898	70	58
139.898	139.94	72	54
139.94	139.982	74	54
139.982	140.025	76	54
140.025	140.111	38	41
140.025	140.111	77	54
140.198	140.283	48	48
140.198	140.241	76	60
140.241	140.283	74	54
140.283	140.326	72	54
140.326	140.368	70	54
140.368	140.455	38	41
140.368	140.455	69	55
140.541	140.626	46	48
140.541	140.584	67	59
140.584	140.626	69	54
140.626	140.669	70	54
140.669	140.711	72	54
140.711	140.798	38	40
140.711	140.798	74	52
140.885	140.97	45	47
140.885	140.927	72	56
140.927	140.97	70	52
140.97	141.012	69	52
141.012	141.055	67	52
141.055	141.141	38	40
141.055	141.141	65	52
141.228	141.313	43	47
141.228	141.271	63	56
141.271	141.313	65	51
141.313	141.356	67	51
141.356	141.398	69	51
141.398	141.485	38	40
141.398	141.485	70	51
141.571	141.656	41	46
141.571	141.614	69	55
141.614	141.656	67	50
141.656	141.699	65	50
141.699	141.741	63	50
141.741	141.828	38	39
141.741	141.828	62	50
141.915	142.001	40	46
141.915	142.001	57	43
141.915	142.001	64	43
141.915	142.001	69	51
142.087	142.172	38	37
142.087	142.426	57	44
142.087	142.426	64	44
142.087	142.426	69	52
142.256	142.341	40	44
142.426	142.511	38	37
142.595	142.68	39	47
142.595	142.638	86	59
142.638	142.68	84	47
142.68	142.723	82	47
142.723	142.765	81	47
142.765	142.853	45	41
142.765	142.853	79	51
142.94	143.025	39	47
142.94	142.982	74	60
142.982	143.025	72	47
143.025	143.068	70	47
143.068	143.11	69	47
143.11	143.197	45	41
143.11	143.197	67	51
143.285	143.372	38	47
143.459	143.545	45	41
143.459	143.972	57	43
143.459	143.972	64	43
143.459	143.972	69	51
143.63	143.715	38	48
143.801	143.886	45	41
143.972	144.058	39	47
143.972	144.015	86	59
144.015	144.058	84	47
144.058	144.1	82	47
144.1	144.143	81	47
144.143	144.231	45	41
144.143	144.231	79	51
144.318	144.403	39	47
144.318	144.361	74	60
144.361	144.403	72	47
144.403	144.446	70	47
144.446	144.489	69	47
144.489	144.576	45	41
144.489	144.576	67	51
144.664	144.75	38	47
144.837	144.924	45	41
144.837	144.924	57	36
144.837	144.924	64	36
144.837	144.924	69	43
145.01	145.095	39	48
145.01	145.053	74	51
145.053	145.095	72	46
145.095	145.138	70	46
145.138	145.18	69	46
145.18	145.265	45	39
145.18	145.265	67	50
145.349	145.435	38	43
145.52	145.606	45	41
145.52	145.606	57	36
145.52	145.606	64	36
145.52	145.606	69	43
145.691	145.776	39	43
145.691	145.733	74	42
145.733	145.776	72	42
145.776	145.818	70	42
145.818	145.86	69	42
145.86	145.944	45	36
145.86	145.944	67	40
146.028	146.111	38	43
146.194	146.277	45	39
146.194	146.277	57	34
146.194	146.277	64	34
146.194	146.277	69	40
146.36	146.444	39	42
146.36	146.402	74	40
146.402	146.444	72	40
146.444	146.486	70	40
146.486	146.528	69	39
146.528	146.612	45	34
146.528	146.612	67	36
146.695	146.778	38	39
146.861	146.943	45	36
146.861	146.943	57	36
146.861	146.943	64	36
146.861	146.943	69	36
147.026	147.11	39	37
147.026	147.068	74	37
147.068	147.11	72	37
147.11	147.152	70	37
147.152	147.193	69	37
147.193	147.277	45	32
147.193	147.277	67	35
147.36	147.452	38	41
147.543	147.635	45	39
147.726	147.818	38	41
147.909	147.997	45	39
147.909	147.953	50	46
147.953	147.997	52	46
147.997	148.041	53	46
148.041	148.085	55	46
148.085	148.176	38	41
148.085	148.176	57	50
148.266	148.356	45	39
148.266	148.356	50	36
148.266	148.356	53	36
148.266	148.356	62	43
148.446	148.537	38	41
148.446	148.537	50	36
148.446	148.537	53	36
148.446	148.537	62	43
148.627	148.716	45	39
148.627	148.716	50	36
148.627	148.716	53	36
148.627	148.716	61	43
148.806	148.896	38	41
148.806	148.896	50	39
148.806	148.896	53	39
148.806	148.896	61	46
148.986	149.074	45	39
148.986	149.074	50	36
148.986	149.074	53	36
148.986	149.074	60	43
149.163	149.252	38	41
149.163	149.252	50	36
149.163	149.252	53	36
149.163	149.252	60	43
149.341	149.428	45	39
149.341	149.428	50	36
149.341	149.428	53	36
149.341	149.428	59	43
149.514	149.603	38	41
149.514	149.603	50	39
149.514	149.603	53	39
149.514	149.603	59	46
149.693	149.78	45	37
149.693	149.78	50	35
149.693	149.78	53	35
149.693	149.78	58	42
149.868	149.959	38	41
149.868	149.959	50	35
149.868	149.959	53	35
149.868	149.959	58	42
150.049	150.138	45	37
150.049	150.934	50	34
150.049	150.934	53	34
150.049	150.934	57	41
150.226	150.315	38	43
150.403	150.492	45	40
150.58	150.669	38	43
150.757	150.846	45	41
150.934	151.023	38	42
151.111	151.2	45	40
151.289	151.378	50	42
151.468	151.558	57	40
151.648	151.738	62	40
151.83	151.922	69	39
152.017	152.122	74	36
152.227	153.273	81	42
153.273	153.372	38	75
153.273	153.372	45	75
153.273	153.372	50	90
153.273	153.372	74	95
153.273	153.372	81	95
153.273	153.372	86	113
153.372	153.518	38	68
153.372	153.518	45	68
153.372	153.518	50	81
153.372	153.518	74	86
153.372	153.518	81	86
153.372	153.518	86	102
