OnsetTime	OffsetTime	MidiPitch	Velocity
0.519987	1.50299	63	66
0.520993	1.504	51	41
0.520993	1.504	58	56
0.523983	1.504	55	56
1.50699	2.519	58	61
1.50799	2.51999	46	46
1.50799	2.51999	53	55
1.50799	2.51999	62	72
2.52199	3.562	57	57
2.52299	3.56499	53	51
2.52299	3.562	60	68
2.52599	3.56499	41	43
3.566	4.58399	58	59
3.56899	4.58399	62	70
3.57	4.587	46	45
3.57	4.587	53	54
4.587	5.63	58	81
4.59099	5.63099	51	54
4.59099	5.63099	55	68
4.592	5.634	39	45
5.634	6.681	56	69
5.634	6.68001	60	82
5.635	6.681	44	46
5.635	6.684	51	55
6.684	7.755	56	70
6.684	7.755	62	83
6.68699	7.75599	41	50
6.688	7.75599	46	60
7.75799	8.82898	55	76
7.75899	8.82999	39	50
7.75899	8.82898	63	86
7.76198	8.82999	46	60
8.83198	11.409	39	39
8.92798	11.409	46	35
9.01899	11.409	51	35
9.11999	11.409	55	39
9.21098	11.409	58	35
9.30598	11.409	63	35
9.38999	9.75	67	50
9.48399	9.667	70	44
9.57199	9.925	75	44
9.667	9.838	70	54
9.75	11.409	67	51
9.838	11.409	70	52
9.925	11.409	75	61
10.006	11.409	79	57
10.093	11.409	82	61
10.181	11.409	87	67
10.268	11.409	91	58
10.367	11.409	94	53
10.471	11.451	99	60
11.455	12.487	60	69
11.455	12.486	63	59
11.456	12.488	48	41
11.456	12.487	55	49
12.49	13.508	63	74
12.491	13.509	56	54
12.491	13.509	60	62
12.493	13.51	44	45
13.512	14.555	58	75
13.513	14.556	43	39
13.513	14.559	51	54
14.56	15.591	53	61
14.562	15.591	58	73
14.563	15.595	38	44
14.563	15.592	46	53
15.595	16.659	51	66
15.596	16.66	39	45
15.596	16.659	55	77
15.598	16.663	46	54
16.663	17.708	58	81
16.664	17.712	55	68
16.666	17.713	40	49
16.666	17.713	49	59
17.713	18.787	56	68
17.715	18.79	53	57
17.716	18.245	41	66
17.716	18.79	48	59
18.245	18.794	44	61
18.794	19.84	51	61
18.795	19.84	55	73
18.797	19.841	36	50
18.797	19.844	48	60
19.844	22.378	36	39
19.939	22.378	48	35
20.034	22.378	51	35
20.131	22.378	55	39
20.219	22.378	60	35
20.31	22.378	63	35
20.405	20.761	67	50
20.499	20.671	72	44
20.583	20.94	75	44
20.671	20.845	72	54
20.761	22.378	67	51
20.845	22.378	72	52
20.94	22.378	75	61
21.02	22.378	79	57
21.104	22.378	84	61
21.192	22.378	87	67
21.258	22.378	91	59
21.328	22.378	96	56
21.401	22.378	99	55
21.482	22.466	103	63
22.466	23.519	55	66
22.467	23.519	51	55
22.469	22.99	48	51
22.994	23.523	46	58
23.523	24.531	60	74
23.526	24.532	44	43
23.526	24.534	51	51
23.526	24.531	56	62
24.534	25.584	56	61
24.534	25.58	60	72
24.537	25.584	41	41
24.538	25.585	50	50
25.585	26.616	58	79
25.587	26.617	43	45
25.588	26.617	51	54
26.617	27.667	56	69
26.62	27.668	53	52
26.62	27.667	62	82
26.621	27.668	47	44
27.67	28.717	55	74
27.67	28.716	63	86
27.671	28.72	48	48
27.671	28.717	51	56
28.72	29.792	57	61
28.72	29.791	60	76
28.721	29.792	41	41
28.724	29.794	51	50
29.795	30.858	50	52
29.795	30.858	58	76
29.796	30.859	46	44
30.862	33.226	46	39
30.95	33.226	53	35
31.052	33.226	58	35
31.143	33.226	62	39
31.237	33.226	65	35
31.328	33.226	70	35
31.423	31.776	74	50
31.509	31.689	77	44
31.601	31.951	82	44
31.689	31.863	77	57
31.776	33.226	74	54
31.863	33.226	77	54
31.951	33.226	82	67
32.042	33.226	86	63
32.15	33.226	89	61
32.255	33.226	94	57
33.221	34.253	63	80
33.225	34.254	48	38
33.225	34.256	55	45
33.225	34.254	60	67
34.257	35.282	62	85
34.26	35.283	58	72
34.261	35.283	43	43
34.261	35.286	55	51
35.287	36.346	44	43
35.287	36.343	56	71
35.287	36.343	60	85
35.289	36.346	51	52
36.347	37.4	55	76
36.35	37.404	58	89
36.351	37.404	39	46
36.351	37.404	51	55
37.405	38.45	55	85
37.407	38.454	40	44
37.407	38.454	49	55
38.454	38.979	53	58
38.455	38.979	56	69
38.457	39.507	41	38
38.457	39.508	48	45
38.982	39.508	55	63
39.511	40.571	50	50
39.511	40.567	53	60
39.515	40.572	34	33
39.515	40.574	44	39
40.574	41.625	51	67
40.575	41.628	39	38
40.575	41.625	43	45
41.628	44.211	39	39
41.727	44.211	46	35
41.818	44.211	51	35
41.919	44.211	55	39
42.01	44.211	58	35
42.098	44.211	63	35
42.191	42.549	67	50
42.283	42.457	70	44
42.371	42.724	75	44
42.457	42.64	70	54
42.549	44.211	67	51
42.64	44.211	70	52
42.724	44.211	75	61
42.807	44.211	79	57
42.892	44.211	82	61
42.979	44.211	87	67
43.067	44.211	91	58
43.164	44.211	94	53
43.27	44.25	99	60
45.209	45.737	67	60
45.737	45.919	67	54
45.919	46.262	55	51
45.919	46.949	67	60
45.92	46.619	43	44
46.262	46.605	55	25
46.263	46.606	59	25
46.263	46.606	62	34
46.605	46.949	55	25
46.606	46.951	59	25
46.606	46.95	62	34
46.777	47.291	66	51
46.949	47.288	55	25
46.949	47.291	67	56
46.95	47.287	62	34
46.951	47.286	59	25
47.113	47.291	69	51
47.285	47.621	71	60
47.286	47.624	59	25
47.287	47.624	62	34
47.288	47.623	55	25
47.445	47.985	70	56
47.621	47.985	71	54
47.623	47.984	55	25
47.624	47.985	59	25
47.624	47.985	62	34
47.799	47.985	72	59
47.981	50.074	74	64
47.984	48.323	55	51
47.985	50.074	43	44
48.323	48.673	55	25
48.324	48.674	59	25
48.324	48.67	62	34
48.67	49.014	62	34
48.673	49.017	55	25
48.674	49.013	59	25
49.013	49.363	59	25
49.014	49.363	62	34
49.017	49.364	55	25
49.361	49.895	67	66
49.363	49.717	59	25
49.363	49.717	62	34
49.364	49.718	55	25
49.717	50.074	59	25
49.717	50.074	62	34
49.718	50.074	55	25
49.895	50.07	67	58
50.07	51.1099	67	68
50.071	50.7739	48	51
50.074	50.7739	36	44
50.417	50.7629	63	38
50.42	50.7599	55	28
50.42	50.7629	60	28
50.7599	51.1139	55	28
50.7629	51.1139	60	28
50.7629	51.1109	63	38
50.9319	51.4589	66	56
51.1099	51.4589	67	62
51.1109	51.4499	63	38
51.1139	51.4499	55	28
51.1139	51.4499	60	28
51.2749	51.4589	71	59
51.4459	51.7889	72	69
51.4499	51.7899	55	28
51.4499	51.7929	60	28
51.4499	51.7929	63	38
51.6179	52.1459	71	58
51.7889	52.1459	72	67
51.7899	52.1459	55	28
51.7929	52.1459	60	28
51.7929	52.1459	63	38
51.9669	52.1459	74	64
52.1429	54.2419	75	74
52.1459	54.2419	48	51
52.4889	52.8349	63	38
52.4919	52.8319	55	28
52.4929	52.8359	60	28
52.8319	53.1849	55	28
52.8349	53.1819	63	38
52.8359	53.1819	60	28
53.1819	53.5319	60	28
53.1819	53.5309	63	38
53.1849	53.5319	55	28
53.5289	54.0609	72	71
53.5309	53.8829	63	38
53.5319	53.8849	55	28
53.5319	53.8859	60	28
53.8829	54.2419	63	38
53.8849	54.2419	55	28
53.8859	54.2419	60	28
54.0609	54.2419	72	65
54.2389	55.2719	70	71
54.2399	54.9349	34	44
54.2419	54.9349	46	51
54.5849	54.9319	58	32
54.5859	54.9279	62	43
54.5889	54.9319	56	32
54.9279	55.2749	62	43
54.9319	55.2749	56	32
54.9319	55.2719	58	32
55.1029	55.6179	69	57
55.2719	55.6109	58	32
55.2719	55.6179	70	65
55.2749	55.6119	56	32
55.2749	55.6139	62	43
55.4389	55.6179	72	60
55.6109	55.9479	58	32
55.6109	55.9469	74	70
55.6119	55.9469	56	32
55.6139	55.9499	62	43
55.7749	56.3079	73	60
55.9469	56.3079	56	32
55.9469	56.3079	74	65
55.9479	56.3079	58	32
55.9499	56.3079	62	43
56.1219	56.3079	75	69
56.3039	57.3328	77	74
56.3079	57.0028	46	51
56.6438	56.9898	62	43
56.6458	56.9908	58	32
56.6468	56.9898	56	32
56.9898	57.3368	56	32
56.9898	57.3328	62	43
56.9908	57.3368	58	32
57.1608	57.6748	76	56
57.3328	57.6718	62	43
57.3328	57.6748	77	61
57.3368	57.6728	56	32
57.3368	57.6688	58	32
57.4968	57.6748	79	62
57.6688	58.0088	58	32
57.6688	58.0078	80	64
57.6718	58.0088	62	43
57.6728	58.0098	56	32
57.8328	58.3408	79	56
58.0078	58.3408	80	62
58.0088	58.3378	58	32
58.0088	58.3398	62	43
58.0098	58.3388	56	32
58.1658	58.3408	81	58
58.3378	59.0048	58	51
58.3378	58.6728	82	68
58.3388	59.0088	56	51
58.3398	59.0088	62	61
58.5018	58.9488	81	59
58.6728	58.9488	82	63
58.8338	59.0098	84	59
59.0098	59.1698	86	73
59.1698	59.3378	85	61
59.3388	59.5098	86	66
59.5128	59.6878	87	62
59.5588	60.2238	46	48
59.5968	60.2698	53	48
59.6458	60.3068	56	52
59.6888	60.3498	62	55
59.6888	60.0178	89	72
59.8528	60.3508	88	61
60.0178	60.3508	89	64
60.1858	60.3508	91	66
60.2238	61.5707	46	48
60.2698	61.6127	53	52
60.3068	61.6587	56	55
60.3468	60.6868	92	74
60.3498	61.7037	62	58
60.5148	61.7107	91	64
60.6868	61.7107	92	67
60.8468	61.1828	93	62
61.0178	61.3538	94	74
61.1828	61.7107	93	66
61.3538	61.7107	94	68
61.5257	61.7107	96	69
61.5707	62.2397	46	56
61.6127	62.2847	53	56
61.6587	62.3267	56	59
61.7017	62.3797	98	72
61.7037	62.3697	62	62
61.8687	62.3797	99	73
62.0327	62.3797	101	76
62.1977	62.3797	103	77
62.2397	64.5066	46	60
62.2847	64.2496	53	60
62.3267	64.1616	56	62
62.3687	65.6626	104	79
62.3697	63.9996	62	65
62.5307	65.6626	101	78
62.6947	65.6626	98	76
62.8557	65.6626	94	75
63.0197	65.6626	92	73
63.1287	65.6626	89	71
63.2397	65.6626	86	70
63.3557	65.6626	82	68
63.4647	65.6626	80	67
63.5757	65.6626	77	65
63.6957	65.6626	74	63
63.7657	65.6626	70	61
63.8427	65.6626	68	63
63.9236	65.6626	65	66
63.9996	65.6626	62	68
64.0806	65.6626	58	69
64.1616	65.6626	56	72
64.2496	65.6626	53	74
64.3426	65.6626	50	76
64.5046	65.6626	34	76
64.5066	65.6626	46	81
66.0016	66.0826	63	62
66.0016	66.0826	68	73
66.0026	66.0836	65	62
66.0866	66.4506	63	68
66.0866	66.4456	68	80
66.0876	66.4506	65	68
66.0896	66.4526	47	45
66.0896	66.4536	53	45
66.0896	66.4526	56	54
66.8136	67.7126	68	78
66.8146	67.7126	62	66
66.8146	67.7126	65	66
66.8166	67.7126	53	45
66.8176	67.7126	46	45
66.8206	67.7126	56	54
68.1786	68.2736	77	62
68.1796	68.2736	75	62
68.1796	68.2746	80	73
68.2746	68.6306	80	80
68.2776	68.6356	65	51
68.2776	68.6346	75	68
68.2776	68.6346	77	68
68.2786	68.6376	68	61
68.2806	68.6376	59	51
68.9946	71.3496	80	78
68.9986	71.5536	74	66
68.9986	71.4476	77	66
69.0016	72.0856	58	51
69.0016	71.8576	65	51
69.0016	71.7556	68	61
69.7786	72.3226	96	93
70.6046	72.3226	94	84
70.7166	72.3226	92	82
70.8286	72.3226	89	89
70.9306	72.3226	86	80
71.0356	71.2456	82	80
71.1396	72.3226	81	85
71.2456	72.3226	82	77
71.3496	72.3226	80	78
71.4476	72.3226	77	81
71.5536	72.3226	74	79
71.6476	72.3226	70	77
71.7556	72.3226	68	75
71.8576	72.3226	65	74
71.9696	72.3226	62	72
72.0856	72.3226	58	80
73.2996	73.3936	54	38
73.3006	73.3976	59	45
73.3986	73.8036	54	43
73.4006	73.8076	45	35
73.4006	73.8036	59	51
73.4016	73.8076	51	41
74.2126	76.8246	54	49
74.2156	76.8246	60	58
74.2166	76.8246	51	46
74.2196	76.8246	44	39
76.8206	79.4246	58	37
76.8206	79.4286	62	44
76.8216	79.4286	56	37
76.8236	79.4286	41	27
76.8246	79.4286	46	27
76.8246	79.4286	53	33
79.4236	79.7526	55	37
79.4246	80.0656	58	37
79.4246	80.3696	63	44
79.4256	79.7536	51	37
79.4276	79.7536	39	29
79.7576	80.9896	55	33
80.0656	80.6816	58	33
80.3696	82.2216	63	37
80.6816	81.9236	58	33
80.9896	81.6296	55	30
81.3216	83.1346	51	35
81.6296	82.8195	55	31
81.9236	82.5216	58	31
82.2216	84.0175	63	37
82.5216	83.7255	58	32
82.8195	83.4355	55	32
83.1316	86.7005	39	37
83.1346	84.9125	51	37
83.4355	84.5975	55	33
83.7255	84.3075	58	33
84.0175	85.7845	63	37
84.3075	85.4935	58	33
84.5975	85.2105	55	30
84.9125	86.6985	51	35
85.2105	86.3615	55	31
85.4935	86.0705	58	31
85.7845	86.7015	63	37
86.0705	86.7015	58	32
86.3615	86.7015	55	32
86.6975	87.8665	70	44
86.6985	88.5075	51	37
86.6985	87.8665	67	44
86.7005	88.5345	39	37
86.9955	88.1745	55	33
87.2795	87.8675	58	33
87.5635	88.5345	68	41
87.5665	88.5035	63	37
87.5665	88.5345	72	41
87.8665	88.5075	67	45
87.8665	88.5345	70	45
87.8675	88.5345	58	33
88.1745	88.5345	55	30
88.5035	89.3785	63	37
88.5075	88.8035	51	32
88.5075	90.3035	67	37
88.8045	89.9695	55	28
89.0955	89.6695	58	28
89.3785	90.3065	63	34
89.6695	90.3065	58	28
89.9695	90.3065	55	28
90.3035	91.4785	67	44
90.3045	91.4795	70	44
90.3065	92.1535	39	37
90.3065	92.1235	51	37
90.5995	91.7875	55	33
90.8835	91.4795	58	33
91.1705	92.1535	68	41
91.1715	92.1225	63	37
91.1715	92.1535	72	41
91.4785	92.1235	67	45
91.4795	92.1535	58	33
91.4795	92.1535	70	45
91.7875	92.1535	55	30
92.1225	92.9945	63	37
92.1235	92.4195	51	35
92.1235	93.9295	67	37
92.4205	93.5855	55	26
92.7065	93.2815	58	26
92.9945	93.9295	63	33
93.2815	93.9295	58	28
93.5855	93.9295	55	28
93.7535	93.9295	65	37
93.8405	95.0725	68	42
93.9285	95.7275	34	37
93.9285	95.0705	77	46
93.9295	95.7005	46	37
94.2275	95.3645	56	33
94.5105	95.0735	58	33
94.7935	95.7275	62	37
95.0705	95.7275	77	51
95.0725	95.6965	68	51
95.0735	95.7275	58	36
95.3645	95.7275	56	41
95.5245	95.7005	74	49
95.6965	97.5065	68	44
95.7005	95.9945	46	43
95.7005	97.5065	74	44
95.9975	97.1625	56	26
96.2805	96.8545	58	26
96.5715	97.5065	62	33
96.8545	97.5065	58	28
97.1625	97.5065	56	28
97.3305	97.5065	63	37
97.4175	98.6475	67	42
97.5025	98.6465	75	46
97.5055	99.2455	51	37
97.5065	99.2795	39	37
97.8035	98.9095	55	33
98.0865	98.6495	58	33
98.3705	99.2795	63	37
98.6465	99.2795	75	51
98.6475	99.2455	67	51
98.6495	99.2795	58	36
98.9095	99.2795	55	41
99.0805	99.2435	70	49
99.2435	101.082	70	44
99.2455	99.5775	51	43
99.2455	101.082	67	44
99.5785	100.75	55	26
99.8685	100.449	58	26
100.158	101.082	63	33
100.449	101.082	58	28
100.75	101.082	55	28
101.079	102.224	68	44
101.079	102.223	72	44
101.08	101.373	56	37
101.082	102.826	44	37
101.373	102.521	56	33
101.656	102.224	60	33
101.94	102.849	63	37
102.223	102.748	72	47
102.224	102.849	60	38
102.224	102.849	68	47
102.521	102.826	56	42
102.748	103.964	72	52
102.825	104.576	75	56
102.826	103.122	44	46
102.826	103.123	56	46
103.126	104.271	56	33
103.392	103.966	60	36
103.679	104.576	63	42
103.679	104.575	70	50
103.679	104.576	74	50
103.964	104.576	68	45
103.964	104.576	72	45
103.966	104.576	60	28
104.271	104.576	56	28
104.572	105.717	67	44
104.575	106.332	51	37
104.575	105.717	70	44
104.576	106.357	39	37
104.872	106.014	55	33
105.146	105.717	58	33
105.426	106.357	68	41
105.426	106.357	72	41
105.429	106.33	63	37
105.717	106.357	58	33
105.717	106.332	67	45
105.717	106.357	70	45
106.014	106.357	55	30
106.33	107.186	63	37
106.332	106.63	51	32
106.332	108.099	67	37
106.63	107.775	55	28
106.911	107.467	58	28
107.186	108.099	63	34
107.467	108.099	58	28
107.775	108.099	55	28
108.093	109.241	72	44
108.096	108.391	56	37
108.096	109.241	68	44
108.097	109.843	44	37
108.391	109.535	56	33
108.674	109.242	60	33
108.958	109.871	63	37
109.241	109.871	68	47
109.241	109.767	72	47
109.242	109.871	60	38
109.535	109.846	56	42
109.767	110.983	72	52
109.843	110.137	44	46
109.843	111.593	75	56
109.846	110.137	56	46
110.138	111.285	56	33
110.411	110.984	60	36
110.697	111.593	63	42
110.697	111.591	70	50
110.697	111.593	74	50
110.983	111.593	72	45
110.984	111.593	60	28
110.984	111.593	68	45
111.285	111.593	56	28
111.591	112.734	70	44
111.592	112.737	67	44
111.593	113.381	39	37
111.593	113.358	51	37
111.891	113.031	55	33
112.163	112.737	58	33
112.443	113.381	72	41
112.444	113.381	68	41
112.447	113.357	63	37
112.734	113.381	70	45
112.737	113.381	58	33
112.737	113.357	67	45
113.031	113.381	55	30
113.357	114.214	63	37
113.357	115.135	67	37
113.358	113.647	51	32
113.648	114.799	55	28
113.93	114.498	58	28
114.214	115.135	63	34
114.498	115.135	58	28
114.799	115.135	55	28
114.967	115.135	65	44
115.047	116.801	70	44
115.132	116.881	46	37
115.132	116.276	77	44
115.135	116.902	34	37
115.433	116.574	56	33
115.716	116.276	58	33
115.999	116.902	62	37
116.276	116.902	58	38
116.276	116.902	77	51
116.574	116.902	56	42
116.728	116.902	68	52
116.801	118.629	70	59
116.879	118.629	80	59
116.881	117.178	46	51
117.179	118.323	56	36
117.445	118.017	58	39
117.733	118.629	77	52
117.735	118.629	62	42
118.016	118.629	74	47
118.017	118.629	58	28
118.323	118.629	56	28
118.547	120.405	67	44
118.624	120.405	75	44
118.628	120.405	39	37
118.628	120.382	51	37
118.929	120.069	55	33
119.212	119.775	58	33
119.496	120.405	63	37
119.775	120.405	58	26
120.069	120.405	55	25
120.381	122.153	70	41
120.382	120.671	51	31
120.382	122.153	79	41
120.672	121.83	55	24
120.952	121.526	58	24
121.235	121.985	63	24
121.526	122.153	58	27
121.83	122.153	55	22
121.985	122.153	63	44
122.065	123.293	67	44
122.152	123.923	75	44
122.153	123.898	46	37
122.444	123.594	55	33
122.73	123.294	58	33
123.014	123.896	70	51
123.016	123.923	63	37
123.293	123.923	67	44
123.294	123.923	58	38
123.594	123.923	55	42
123.745	123.923	62	52
123.896	125.646	70	55
123.898	124.197	46	51
123.899	124.197	34	48
124.198	125.342	56	36
124.462	125.036	58	39
124.75	125.646	68	47
124.753	125.646	62	42
125.034	125.646	65	42
125.036	125.646	58	28
125.342	125.646	56	28
125.643	126.556	63	39
125.645	127.599	51	37
125.646	127.626	39	37
125.965	127.182	55	28
126.258	126.838	58	28
126.556	129.398	63	35
126.838	127.626	58	29
127.182	127.626	55	30
127.599	129.398	51	39
129.166	129.398	65	38
129.243	131.098	70	42
129.317	131.182	74	45
129.393	130.56	77	48
129.394	131.21	34	37
129.394	131.21	46	37
129.689	130.861	53	33
129.971	130.563	58	33
130.262	131.21	62	37
130.262	131.21	79	41
130.56	131.21	77	45
130.563	131.21	58	33
130.861	131.21	53	30
131.022	132.776	65	40
131.098	133.006	70	44
131.182	133.006	74	47
131.183	131.48	50	32
131.483	132.649	53	28
131.767	132.341	58	28
132.058	133.006	62	34
132.341	133.006	58	28
132.649	133.006	53	28
132.776	133.006	65	38
132.855	134.714	69	42
132.929	134.826	75	45
133.003	134.178	77	48
133.004	134.826	34	37
133.006	134.794	46	37
133.3	134.479	53	33
133.584	134.178	57	33
133.878	134.826	63	37
133.878	134.826	79	41
134.178	134.826	57	33
134.178	134.826	77	45
134.479	134.826	53	30
134.634	136.341	65	40
134.714	136.574	69	44
134.792	136.574	72	47
134.794	135.092	46	32
135.093	136.261	53	28
135.38	135.953	57	28
135.67	136.574	63	34
135.953	136.574	57	28
136.261	136.574	53	28
136.341	136.574	65	38
136.415	136.574	70	42
136.492	137.724	74	38
136.569	137.727	77	48
136.573	138.371	34	37
136.573	138.371	46	37
136.867	138.026	53	33
137.147	137.727	58	33
137.437	138.371	73	40
137.438	138.371	62	38
137.438	138.371	76	48
137.724	138.371	74	46
137.727	138.371	58	36
137.727	138.371	77	55
138.026	138.371	53	41
138.347	139.492	75	56
138.348	138.642	39	47
138.348	138.641	51	47
138.348	140.109	79	66
138.642	139.796	51	37
138.925	139.492	55	36
139.205	140.108	74	47
139.208	140.109	60	44
139.208	140.109	77	56
139.492	140.109	55	33
139.492	140.109	72	51
139.492	140.109	75	60
139.796	140.109	51	32
140.104	141.906	70	54
140.108	141.883	41	42
140.108	141.906	74	64
140.109	140.405	53	42
140.405	141.561	53	35
140.689	141.267	58	33
140.975	141.906	62	37
141.266	141.906	77	59
141.267	141.906	58	33
141.561	141.885	53	30
141.883	142.172	41	32
141.883	143.653	69	47
141.883	143.653	72	56
141.885	142.173	53	32
142.176	143.342	53	28
142.464	143.041	57	28
142.75	143.653	60	34
143.041	143.653	57	28
143.342	143.653	53	28
143.426	143.653	65	41
143.5	145.36	70	46
143.572	145.439	74	49
143.65	144.823	77	52
143.651	145.469	34	40
143.653	145.441	46	40
143.947	145.124	53	36
144.237	144.825	58	36
144.524	145.469	79	45
144.525	145.469	62	40
144.823	145.469	77	49
144.825	145.469	58	36
145.124	145.469	53	33
145.281	147.265	65	44
145.36	147.265	70	48
145.439	147.114	74	51
145.441	145.735	46	35
145.739	146.905	53	30
146.03	146.604	58	30
146.313	147.265	62	37
146.604	147.265	58	30
146.905	147.265	53	30
147.037	147.265	69	47
147.114	148.973	74	52
147.185	149.054	78	56
147.262	149.081	38	42
147.262	149.057	50	42
147.262	148.434	81	60
147.563	148.735	54	37
147.846	148.437	57	37
148.134	149.081	83	55
148.137	149.081	62	42
148.434	149.081	81	56
148.437	149.081	57	37
148.735	149.081	54	34
148.893	150.675	69	50
148.973	150.829	74	55
149.054	150.829	78	59
149.057	149.347	50	36
149.351	150.517	54	32
149.641	150.216	57	32
149.926	150.829	62	39
150.216	150.829	57	32
150.517	150.829	54	32
150.675	152.011	69	52
150.748	151.701	73	47
150.828	152.011	38	42
150.828	151.7	81	60
150.829	152.011	50	42
151.129	152.011	55	37
151.409	151.986	57	38
151.7	151.983	81	62
151.701	152.011	73	52
151.701	152.011	76	52
151.703	152.011	61	45
151.983	152.607	81	73
151.984	152.627	74	60
151.986	152.627	57	43
151.986	152.627	78	60
152.281	152.627	55	50
152.606	153.761	79	70
152.607	153.184	76	63
152.607	153.188	81	78
152.608	153.211	50	59
152.904	153.211	55	47
153.184	153.751	76	61
153.188	153.761	78	61
153.188	153.751	81	72
153.189	153.751	57	46
153.467	153.761	61	57
153.747	154.368	73	67
153.751	154.367	57	42
153.751	154.368	76	67
153.751	154.368	81	80
154.052	154.368	55	42
154.363	154.44	86	54
154.364	156.208	50	61
154.367	157.377	54	61
154.367	157.377	57	61
154.367	157.339	62	72
154.444	154.527	87	46
154.528	154.689	86	54
154.608	154.777	87	46
154.689	154.861	86	54
154.777	154.941	87	48
154.861	155.021	86	54
154.941	155.099	87	47
155.021	155.169	86	55
155.099	155.245	87	48
155.169	155.305	86	56
155.245	155.382	87	47
155.305	155.452	86	56
155.382	155.529	87	47
155.452	155.595	86	57
155.529	155.672	87	50
155.595	155.753	86	57
155.599	157.377	38	69
155.672	155.83	87	49
155.753	155.903	86	58
155.83	155.98	87	50
155.903	156.061	86	59
155.98	156.135	87	51
156.061	156.207	86	59
156.135	156.274	87	50
156.207	156.351	86	60
156.208	157.377	50	78
156.274	156.421	87	52
156.351	156.491	86	60
156.421	156.555	87	53
156.491	156.624	86	61
156.555	156.694	87	53
156.624	156.765	86	62
156.694	156.835	87	54
156.765	156.901	86	62
156.835	156.978	87	55
156.901	157.048	86	63
156.978	157.118	87	54
157.048	157.194	86	63
157.118	157.268	87	54
157.194	157.338	86	63
157.268	157.377	87	55
157.338	157.411	86	64
157.339	157.906	62	66
157.341	157.912	55	56
157.342	157.912	58	56
157.415	157.552	87	58
157.485	157.622	86	64
157.552	157.699	87	57
157.622	157.769	86	65
157.699	157.838	87	59
157.769	157.905	86	65
157.838	157.912	87	57
157.905	157.968	86	67
157.906	160.873	57	71
157.906	160.873	62	80
157.909	160.873	54	73
157.968	158.109	87	58
158.039	158.175	86	67
158.109	158.245	87	57
158.175	158.315	86	66
158.245	158.378	87	57
158.315	158.451	86	65
158.378	158.518	87	56
158.451	158.584	86	65
158.518	158.658	87	57
158.584	158.727	86	65
158.658	158.795	87	55
158.727	158.864	86	64
158.795	158.934	87	55
158.864	159.005	86	64
158.934	159.081	87	55
159.005	159.156	86	63
159.006	160.873	38	74
159.081	159.225	87	54
159.156	159.298	86	63
159.225	159.376	87	54
159.298	159.453	86	63
159.376	159.522	87	54
159.453	159.596	86	63
159.522	159.673	87	53
159.596	159.754	86	62
159.599	160.873	50	84
159.673	159.83	87	54
159.754	159.911	86	62
159.83	159.985	87	55
159.911	160.061	86	62
159.985	160.142	87	54
160.061	160.226	86	61
160.142	160.299	87	54
160.226	160.38	86	60
160.299	160.46	87	53
160.38	160.541	86	60
160.46	160.618	87	53
160.541	160.699	86	60
160.618	160.782	87	53
160.699	160.856	86	59
160.782	160.873	87	53
160.856	160.964	86	54
160.884	161.496	62	69
160.965	161.496	87	55
161.072	161.338	86	59
161.174	161.496	85	74
161.254	165.819	46	58
161.338	161.496	86	81
161.339	165.819	53	64
161.412	165.819	56	69
161.494	165.819	98	95
161.496	165.819	62	76
163.527	165.819	96	65
163.642	164.118	91	65
163.761	165.819	94	70
163.88	165.819	92	64
163.996	165.819	88	70
164.118	165.819	91	70
164.234	165.819	89	63
164.353	165.819	85	63
164.464	165.819	87	70
164.584	165.819	86	62
164.693	165.819	81	62
164.811	165.819	84	70
164.92	165.147	82	63
165.036	165.476	79	62
165.147	165.819	82	63
165.256	165.819	80	57
165.367	165.819	76	56
165.476	165.819	79	62
165.581	165.819	77	54
165.693	165.819	73	54
165.805	165.916	75	58
165.917	166.057	74	44
166.057	166.217	69	44
166.218	167.016	72	49
167.016	167.806	71	42
167.811	169.585	70	40
169.655	170.968	70	67
169.658	170.968	39	60
169.658	170.968	51	70
169.819	170.74	75	56
169.963	170.285	79	60
170.103	170.432	82	54
170.285	170.593	79	62
170.288	170.968	55	46
170.288	170.968	58	46
170.289	170.968	63	55
170.432	170.968	82	53
170.593	170.968	79	58
170.74	170.968	75	51
170.915	172.183	72	65
170.916	172.183	44	60
170.916	171.548	56	70
171.054	172.0	75	53
171.209	171.546	80	57
171.356	171.692	84	52
171.546	172.183	60	48
171.546	171.853	80	57
171.548	172.183	56	48
171.548	172.183	63	56
171.692	172.183	84	53
171.853	172.183	80	58
172.0	172.183	75	53
172.178	173.389	70	68
172.182	173.389	39	60
172.182	173.382	51	70
172.325	172.914	75	53
172.472	172.77	79	57
172.616	173.389	82	53
172.77	173.389	79	57
172.771	173.389	55	54
172.773	174.61	63	54
172.914	173.389	75	51
173.067	173.389	68	61
173.068	173.389	53	50
173.214	173.389	80	51
173.379	173.974	67	62
173.382	173.974	51	55
173.529	173.974	70	53
173.673	173.974	75	59
173.827	173.974	79	52
173.973	174.61	68	61
173.974	174.61	53	52
174.114	174.59	70	52
174.26	174.61	75	59
174.412	174.61	80	62
174.59	175.885	39	60
174.59	175.885	51	70
174.59	175.885	70	67
174.74	175.654	75	56
174.888	175.197	79	60
175.032	175.353	82	54
175.197	175.5	79	62
175.198	175.885	63	55
175.199	175.885	55	46
175.199	175.885	58	46
175.353	175.885	82	53
175.5	175.885	79	58
175.654	175.885	75	51
175.833	177.083	72	65
175.834	177.083	44	60
175.836	176.448	56	70
175.968	176.907	75	53
176.123	176.445	80	57
176.267	176.599	84	52
176.445	176.749	80	57
176.446	177.083	60	48
176.448	177.083	56	48
176.448	177.083	63	56
176.599	177.083	84	53
176.749	177.083	80	58
176.907	177.083	75	53
177.079	178.296	70	68
177.082	178.296	39	60
177.082	178.293	51	70
177.225	177.821	75	53
177.376	177.677	79	57
177.523	178.296	82	53
177.677	178.296	79	57
177.678	178.296	55	54
177.678	179.502	63	54
177.821	178.296	75	51
177.972	178.296	53	50
177.972	178.296	68	61
178.115	178.296	80	51
178.29	178.885	67	61
178.293	178.885	51	55
178.437	178.885	70	52
178.584	178.885	75	58
178.734	178.885	79	54
178.882	179.502	68	61
178.884	179.502	53	52
179.024	179.497	70	49
179.172	179.502	75	60
179.322	179.502	80	62
179.497	180.743	70	67
179.501	180.802	39	60
179.501	180.802	51	70
179.665	180.586	75	56
179.816	180.119	79	60
179.966	180.274	82	54
180.119	180.432	79	62
180.12	180.802	55	46
180.12	180.802	58	46
180.124	180.802	63	55
180.274	180.802	82	53
180.432	180.802	79	58
180.586	180.802	75	51
180.743	182.004	38	60
180.743	182.004	70	72
180.744	182.004	50	70
180.886	181.835	74	57
181.044	181.349	77	62
181.198	181.507	82	56
181.349	181.66	77	62
181.352	182.004	53	48
181.352	182.004	58	48
181.353	182.004	65	56
181.507	182.004	82	57
181.66	182.004	77	65
181.835	182.007	74	60
182.003	183.236	48	76
182.003	183.236	72	71
182.004	183.236	36	76
182.153	183.067	75	57
182.304	182.608	81	65
182.457	182.759	84	58
182.608	182.909	81	63
182.612	183.236	57	60
182.612	183.236	63	60
182.619	183.235	53	60
182.759	183.236	84	57
182.909	183.236	81	57
183.067	183.236	75	51
183.232	183.865	74	73
183.235	183.865	46	65
183.235	183.865	53	65
183.235	183.865	58	77
183.385	183.865	77	63
183.539	183.865	82	68
183.7	183.865	86	64
183.859	184.509	75	79
183.861	184.509	51	55
183.861	184.509	55	59
183.862	184.509	60	70
184.011	184.509	79	62
184.17	184.509	84	70
184.331	184.509	87	66
184.505	185.126	53	60
184.505	185.839	74	83
184.506	185.839	58	60
184.509	185.839	62	70
184.655	185.615	77	66
184.813	185.125	82	74
184.971	185.29	86	66
185.125	185.451	82	79
185.126	185.839	41	74
185.126	185.784	53	74
185.29	185.839	86	66
185.451	185.839	82	73
185.615	185.839	77	65
185.78	187.109	72	79
185.783	187.109	57	60
185.783	187.109	63	70
185.784	186.421	53	60
185.937	186.91	75	61
186.095	186.42	81	75
186.259	186.578	84	62
186.42	186.746	81	74
186.421	187.109	41	75
186.421	187.109	53	75
186.578	187.109	84	60
186.746	187.109	81	71
186.91	187.109	75	62
187.092	188.416	70	85
187.093	188.439	34	64
187.095	188.439	46	75
187.266	188.439	74	76
187.424	188.439	77	73
187.578	187.736	82	71
187.736	188.439	58	64
187.736	188.415	82	75
187.737	188.439	53	64
187.739	188.418	62	64
187.894	188.439	86	73
188.058	188.439	89	70
188.226	188.439	94	67
188.415	188.596	82	76
188.416	188.6	70	55
188.418	188.601	62	55
188.418	188.601	65	55
189.787	189.877	62	56
189.882	190.97	46	50
189.882	190.97	65	62
189.884	190.97	34	42
190.157	190.432	56	35
190.158	190.431	58	35
190.158	190.432	62	42
190.431	190.693	58	35
190.431	190.69	77	65
190.432	190.694	56	35
190.432	190.693	62	42
190.561	190.97	79	55
190.69	190.964	77	55
190.693	190.966	58	35
190.693	190.967	62	42
190.694	190.967	56	35
190.816	190.97	76	55
190.964	191.488	77	64
190.966	191.24	58	39
190.967	191.237	56	39
190.967	191.238	62	46
191.237	191.505	56	35
191.238	191.506	62	42
191.24	191.508	58	35
191.509	191.79	58	41
191.509	192.069	79	74
191.512	191.789	61	41
191.513	191.789	64	49
191.789	192.069	61	38
191.789	192.069	64	45
191.79	192.069	58	38
192.066	192.875	80	79
192.067	193.139	46	42
192.069	192.339	58	50
192.338	192.615	65	43
192.339	192.615	58	36
192.339	192.612	62	36
192.612	192.875	62	37
192.615	192.877	58	37
192.615	192.877	65	44
192.741	193.139	82	62
192.875	193.137	62	33
192.875	193.136	80	70
192.877	193.137	58	33
192.877	193.137	65	39
193.004	193.139	79	66
193.136	194.001	80	58
193.137	193.406	58	39
193.137	193.41	62	39
193.137	193.41	65	46
193.406	193.686	58	28
193.41	193.686	62	28
193.41	193.687	65	34
193.686	193.96	58	28
193.686	193.962	62	28
193.687	193.96	65	34
193.96	194.162	58	28
193.96	194.165	65	34
193.962	194.166	62	28
194.193	194.513	63	65
194.228	195.322	51	50
194.228	195.322	67	70
194.229	195.322	39	42
194.512	194.786	55	35
194.513	194.785	58	35
194.513	194.786	63	42
194.782	195.044	79	72
194.785	195.045	58	35
194.786	195.048	55	35
194.786	195.048	63	42
194.907	195.322	80	61
195.044	195.317	79	61
195.045	195.322	58	35
195.048	195.321	55	35
195.048	195.321	63	42
195.171	195.322	78	61
195.317	195.849	79	73
195.321	195.591	55	39
195.321	195.594	63	46
195.322	195.59	58	39
195.59	195.866	58	35
195.591	195.866	55	35
195.594	195.867	63	42
195.867	196.428	80	74
195.87	196.147	56	41
195.87	196.15	65	49
195.871	196.151	58	41
196.147	196.428	56	38
196.15	196.428	65	45
196.151	196.428	58	38
196.426	197.235	82	79
196.427	197.508	39	42
196.427	197.508	51	50
196.696	196.973	63	36
196.7	196.973	58	36
196.7	196.973	67	43
196.973	197.236	58	37
196.973	197.236	63	37
196.973	197.235	67	44
197.103	197.508	84	62
197.235	197.504	67	39
197.235	197.502	82	70
197.236	197.504	58	33
197.236	197.502	63	33
197.365	197.508	81	66
197.502	197.771	63	39
197.502	198.523	82	60
197.504	197.774	58	39
197.504	197.775	67	46
197.771	198.048	63	28
197.774	198.048	58	28
197.775	198.047	67	34
198.047	198.32	67	34
198.048	198.32	58	28
198.048	198.319	63	28
198.319	198.565	63	28
198.32	198.569	58	28
198.32	198.565	67	34
198.586	199.129	87	80
198.59	199.129	48	49
198.59	198.86	60	58
198.722	198.989	75	51
198.859	199.129	79	60
198.86	199.129	60	42
198.86	199.129	63	50
198.989	199.129	75	51
199.125	199.674	86	77
199.128	199.674	46	51
199.128	199.394	58	60
199.255	199.524	74	53
199.392	199.674	79	60
199.394	199.674	58	42
199.394	199.674	62	50
199.524	199.674	74	52
199.667	200.21	84	75
199.668	200.21	44	50
199.668	199.934	56	59
199.797	200.064	72	56
199.933	200.21	75	60
199.934	200.21	56	42
199.934	200.21	60	50
200.064	200.21	72	55
200.207	200.771	82	74
200.208	200.771	43	49
200.208	200.487	55	58
200.343	200.627	70	53
200.483	200.771	58	50
200.483	200.771	75	60
200.487	200.771	55	42
200.627	200.771	70	60
200.77	201.044	60	58
200.77	201.324	87	85
200.771	201.324	48	49
200.903	201.18	75	51
201.043	201.324	79	60
201.044	201.324	60	42
201.044	201.324	63	50
201.18	201.324	75	51
201.32	201.593	56	60
201.32	201.879	84	77
201.323	201.879	44	51
201.449	201.725	72	53
201.593	201.879	56	42
201.593	201.879	62	50
201.593	201.879	77	60
201.725	201.879	72	52
201.866	202.426	55	59
201.866	202.426	82	76
201.868	202.426	43	50
202.002	202.279	70	56
202.143	202.426	75	60
202.146	202.426	58	42
202.146	202.426	63	50
202.279	202.426	70	55
202.423	202.989	80	76
202.426	202.989	44	49
202.426	202.989	56	58
202.558	202.842	68	53
202.702	202.989	60	42
202.702	202.989	72	60
202.703	202.989	65	50
202.842	202.989	68	60
202.985	204.099	79	80
202.986	204.085	46	49
202.989	203.539	58	58
203.121	203.395	67	51
203.256	203.808	70	60
203.395	203.668	67	51
203.538	204.099	63	60
203.539	204.099	58	51
203.668	203.941	67	53
203.808	204.099	70	60
203.941	204.099	67	52
204.085	205.208	34	50
204.085	205.208	46	59
204.085	205.208	77	73
204.217	204.491	65	56
204.358	204.917	68	60
204.491	204.773	65	55
204.634	205.208	56	49
204.635	205.208	62	58
204.637	205.208	58	49
204.773	205.061	65	53
204.917	205.208	68	60
205.061	205.208	65	60
205.205	206.664	39	62
205.205	205.618	75	73
205.206	206.664	51	62
205.341	206.305	67	63
205.478	206.664	70	66
205.618	206.664	75	68
205.761	206.664	55	55
205.761	206.664	79	70
205.762	206.307	58	55
205.764	206.307	63	65
205.863	206.664	82	72
205.971	206.664	87	74
206.083	206.664	91	76
206.185	206.664	94	78
206.305	206.664	67	69
206.305	206.664	99	87
206.307	206.664	58	58
206.307	206.664	63	58
207.354	208.512	65	49
207.389	208.512	70	52
207.424	208.512	34	42
207.424	208.512	46	50
207.424	208.512	77	62
207.701	207.974	58	35
207.704	207.973	56	35
207.704	207.974	62	42
207.973	208.23	56	35
207.973	208.23	89	65
207.974	208.232	58	35
207.974	208.232	62	42
208.103	208.512	91	55
208.23	208.509	56	35
208.23	208.508	89	55
208.232	208.509	58	35
208.232	208.509	62	42
208.358	208.512	88	55
208.508	209.03	89	64
208.509	208.781	56	39
208.509	208.781	58	39
208.509	208.779	62	46
208.779	209.044	62	42
208.781	209.045	56	35
208.781	209.045	58	35
209.046	209.605	91	74
209.048	209.331	58	41
209.048	209.335	61	41
209.048	209.331	64	49
209.331	209.604	58	38
209.331	209.605	64	45
209.335	209.605	61	38
209.604	211.547	46	42
209.604	209.884	58	50
209.604	210.326	92	79
209.882	210.157	62	36
209.882	210.154	65	43
209.884	210.158	58	36
210.154	210.42	65	44
210.157	210.419	62	37
210.158	210.42	58	37
210.241	211.547	94	62
210.326	211.547	92	62
210.417	211.547	89	70
210.419	210.68	62	33
210.42	210.679	58	33
210.42	210.682	65	39
210.5	211.547	86	66
210.588	211.547	82	62
210.679	210.952	58	35
210.679	211.547	80	58
210.68	210.949	62	35
210.682	210.952	65	41
210.949	211.232	62	25
210.952	211.228	58	25
210.952	211.232	65	30
211.228	211.505	58	25
211.232	211.501	62	25
211.232	211.505	65	30
211.501	211.7	62	25
211.505	211.704	58	25
211.505	211.701	65	30
211.705	212.866	67	62
211.735	212.866	75	65
211.77	212.866	39	42
211.77	212.866	79	70
211.771	212.866	51	50
212.05	212.321	55	35
212.051	212.322	58	35
212.051	212.323	63	42
212.321	212.586	55	35
212.321	212.583	91	72
212.322	212.584	58	35
212.323	212.586	63	42
212.45	212.866	92	61
212.583	212.863	91	61
212.584	212.863	58	35
212.586	212.864	55	35
212.586	212.864	63	42
212.713	212.866	90	61
212.863	213.136	58	39
212.863	213.391	91	73
212.864	213.136	55	39
212.864	213.132	63	46
213.132	213.402	63	42
213.136	213.405	55	35
213.136	213.402	58	35
213.405	213.966	92	74
213.406	213.685	65	49
213.409	213.685	56	41
213.409	213.685	58	41
213.685	213.966	56	38
213.685	213.966	58	38
213.685	213.966	65	45
213.962	214.686	94	79
213.964	216.061	39	42
213.966	216.061	51	50
214.235	214.514	58	36
214.236	214.514	67	43
214.239	214.518	63	36
214.514	214.78	58	37
214.514	214.776	67	44
214.518	214.777	63	37
214.598	216.061	96	62
214.686	216.061	94	62
214.776	215.046	67	39
214.776	216.061	91	70
214.777	215.043	63	33
214.78	215.046	58	33
214.861	216.061	87	66
214.948	216.061	84	62
215.042	216.061	82	58
215.043	215.316	63	35
215.046	215.316	58	35
215.046	215.315	67	41
215.315	215.589	67	30
215.316	215.588	58	25
215.316	215.589	63	25
215.588	215.862	58	25
215.589	215.864	63	25
215.589	215.862	67	30
215.862	216.106	58	25
215.862	216.106	67	30
215.864	216.107	63	25
216.131	216.673	48	56
216.131	216.673	87	92
216.132	216.4	60	66
216.26	216.53	75	58
216.4	216.673	60	48
216.4	216.673	79	69
216.401	216.673	63	48
216.404	216.673	67	57
216.53	216.673	75	58
216.67	217.222	86	88
216.671	217.222	46	58
216.671	216.943	58	69
216.802	217.072	74	60
216.939	217.222	79	69
216.94	217.222	67	57
216.942	217.222	62	48
216.943	217.222	58	48
217.072	217.222	74	59
217.215	217.769	84	86
217.216	217.769	44	57
217.216	217.769	56	67
217.349	217.626	72	64
217.492	217.769	75	69
217.493	217.769	60	48
217.493	217.769	67	57
217.495	217.769	63	48
217.626	217.769	72	63
217.765	218.339	82	85
217.766	218.052	55	66
217.769	218.339	43	56
217.905	218.192	70	60
218.049	218.339	75	69
218.05	218.339	58	48
218.05	218.339	63	57
218.052	218.339	55	48
218.192	218.339	70	69
218.336	218.889	87	97
218.337	218.889	48	56
218.337	218.606	60	66
218.468	218.742	75	58
218.605	218.889	79	69
218.606	218.889	60	48
218.609	218.889	63	48
218.609	218.889	67	57
218.742	218.889	75	58
218.886	219.445	84	87
218.888	219.159	56	68
218.889	219.445	44	58
219.015	219.289	72	60
219.158	219.445	77	68
219.159	219.445	56	47
219.159	219.445	62	57
219.289	219.445	72	58
219.432	219.998	82	85
219.433	219.711	55	66
219.434	219.998	43	56
219.564	219.848	70	63
219.709	219.998	75	67
219.711	219.998	55	47
219.711	219.998	58	47
219.711	219.998	63	56
219.848	219.998	70	61
219.995	220.579	80	85
219.996	220.579	44	54
219.998	220.286	56	64
220.134	220.426	68	58
220.285	220.579	60	46
220.285	220.579	72	66
220.286	220.579	56	46
220.286	220.579	65	55
220.426	220.579	68	66
220.576	221.689	79	88
220.577	221.126	58	63
220.579	221.68	46	53
220.709	220.989	67	56
220.852	221.402	70	65
220.989	221.258	67	55
221.125	221.689	63	64
221.126	221.689	58	55
221.128	221.689	55	55
221.258	221.542	67	56
221.402	221.689	70	64
221.542	221.689	67	55
221.679	222.824	34	52
221.679	222.824	77	76
221.68	222.824	46	61
221.814	222.099	65	58
221.958	222.526	68	62
222.099	222.381	65	57
222.239	222.824	58	50
222.242	222.824	62	59
222.243	222.824	56	50
222.381	222.673	65	54
222.526	222.824	68	61
222.673	222.824	65	60
222.778	223.967	67	59
222.823	223.967	75	73
222.824	223.953	39	45
222.824	222.957	51	54
222.957	223.954	51	39
223.096	223.967	55	41
223.239	223.967	58	43
223.386	223.967	63	46
223.519	223.8	79	59
223.66	223.967	78	62
223.8	223.967	79	64
223.95	225.101	84	75
223.953	225.101	39	43
223.954	224.09	51	51
224.09	225.101	51	39
224.23	225.101	55	41
224.374	225.101	58	44
224.513	225.101	63	46
224.654	225.101	82	68
224.793	225.101	79	65
224.93	225.101	75	63
225.078	226.217	41	45
225.078	225.217	53	54
225.078	226.217	74	71
225.217	226.217	53	34
225.361	226.217	56	37
225.5	226.217	58	39
225.64	226.217	62	42
225.785	226.058	70	51
225.917	226.217	69	55
226.058	226.217	70	59
226.204	227.345	46	45
226.204	227.345	72	68
226.205	227.345	34	38
226.35	227.345	53	35
226.487	227.345	56	37
226.628	227.345	58	39
226.767	227.345	62	41
226.911	227.345	70	61
227.051	227.345	65	58
227.195	227.345	66	55
227.342	227.479	51	54
227.342	228.476	67	66
227.343	228.462	39	45
227.479	228.465	51	39
227.625	228.476	55	41
227.761	228.476	58	43
227.908	228.476	63	46
228.042	228.315	79	59
228.182	228.476	78	62
228.315	228.476	79	64
228.461	229.602	84	75
228.462	229.602	39	43
228.465	228.608	51	51
228.608	229.602	51	39
228.745	229.602	55	41
228.885	229.602	58	44
229.025	229.602	63	46
229.169	229.602	82	68
229.302	229.602	79	65
229.442	229.602	75	63
229.585	230.722	74	71
229.589	230.722	41	45
229.589	229.728	53	54
229.728	230.722	53	34
229.872	230.722	56	37
230.012	230.722	58	39
230.149	230.722	62	42
230.289	230.565	70	51
230.429	230.722	69	55
230.565	230.722	70	59
230.705	231.85	72	68
230.708	230.844	34	38
230.708	230.845	46	45
230.848	231.85	53	35
230.992	231.85	56	37
231.131	231.85	58	39
231.272	231.85	62	41
231.412	231.85	70	61
231.555	231.85	65	58
231.692	231.85	66	55
231.846	232.924	39	45
231.846	231.986	51	54
231.846	232.924	67	66
231.986	232.924	51	39
232.13	232.924	55	41
232.269	232.924	58	43
232.413	232.924	63	46
232.547	232.819	79	59
232.686	232.924	78	62
232.819	232.931	79	64
232.931	232.966	76	64
232.966	233.677	85	75
232.967	234.096	39	43
232.969	234.096	51	51
233.11	234.096	55	39
233.249	234.096	58	41
233.39	234.096	60	44
233.529	234.096	64	46
233.677	234.096	85	68
233.806	234.096	84	65
233.946	234.096	82	63
234.09	235.174	80	69
234.092	234.237	53	54
234.093	235.174	41	45
234.237	235.174	53	39
234.373	235.174	56	41
234.514	235.174	60	43
234.653	235.174	65	46
234.796	235.066	84	64
234.933	235.174	83	69
235.066	235.178	84	72
235.179	235.213	78	64
235.214	236.341	38	43
235.214	236.341	50	51
235.214	235.917	87	85
235.357	236.341	57	39
235.497	236.341	60	41
235.633	236.341	62	44
235.774	236.341	66	46
235.917	236.341	87	72
236.053	236.341	86	69
236.193	236.341	84	66
236.339	237.421	82	76
236.34	237.421	43	45
236.34	236.477	55	54
236.477	237.421	55	39
236.624	237.421	58	41
236.763	237.421	62	43
236.9	237.421	67	46
237.04	237.319	91	67
237.18	237.421	90	71
237.319	237.422	91	76
237.425	237.456	84	64
237.46	237.606	56	51
237.46	238.587	94	85
237.461	238.587	44	43
237.606	238.587	56	39
237.74	238.587	60	41
237.884	238.587	65	44
238.021	238.587	68	46
238.168	238.587	92	77
238.299	238.587	86	72
238.436	238.584	89	66
238.549	238.587	79	65
238.584	239.668	89	76
238.586	238.867	58	54
238.587	239.668	46	45
238.724	239.668	55	39
238.867	239.668	58	41
239.008	239.668	63	43
239.147	239.668	67	46
239.287	239.668	87	71
239.427	239.668	79	63
239.564	239.675	84	70
239.676	239.71	74	58
239.711	240.834	46	51
239.711	240.834	84	76
239.714	240.834	34	43
239.852	240.834	53	39
239.988	240.834	56	41
240.127	240.834	58	44
240.267	240.834	62	46
240.414	240.834	82	65
240.547	240.834	80	59
240.687	240.834	77	55
240.831	241.985	75	64
240.832	240.978	51	54
240.833	241.985	39	45
240.978	241.985	51	39
241.118	241.985	55	41
241.254	241.985	58	43
241.404	241.985	63	46
241.538	241.811	79	59
241.677	241.985	78	62
241.811	241.985	79	64
241.962	243.099	84	70
241.964	243.099	46	51
241.965	243.099	34	43
242.105	243.099	82	63
242.245	243.099	80	62
242.384	242.812	77	60
242.532	243.099	56	39
242.532	243.099	74	55
242.535	243.099	58	39
242.535	243.099	62	46
242.675	243.095	75	53
242.812	243.099	77	51
242.945	243.099	79	50
243.095	243.236	51	54
243.095	244.243	75	64
243.099	244.243	39	45
243.236	244.243	51	39
243.375	244.243	55	41
243.519	244.243	58	43
243.662	244.243	63	46
243.799	244.075	79	59
243.935	244.243	78	62
244.075	244.243	79	64
244.226	245.357	46	51
244.226	245.357	84	70
244.229	245.357	34	43
244.369	245.357	82	63
244.505	245.357	80	62
244.649	245.069	77	60
244.789	245.357	74	55
244.792	245.357	58	39
244.793	245.357	56	39
244.793	245.357	62	46
244.933	245.353	75	53
245.069	245.357	77	51
245.209	245.357	79	50
245.353	246.063	75	64
245.356	247.603	39	45
245.356	245.493	51	54
245.493	247.603	51	39
245.64	247.603	55	41
245.776	247.603	58	43
245.919	246.477	63	46
246.063	247.601	75	54
246.193	247.603	77	55
246.333	247.603	79	57
246.473	247.603	80	59
246.476	247.022	67	51
246.477	247.603	63	51
246.584	247.603	82	60
246.693	247.603	84	61
246.805	247.603	86	65
246.913	247.603	87	67
247.019	247.603	89	69
247.022	247.603	67	55
247.022	247.603	70	55
247.114	247.603	91	71
247.197	247.603	92	73
247.285	247.603	94	74
247.383	247.603	96	76
247.481	247.603	98	78
247.6	249.44	99	79
247.601	249.44	75	61
247.603	249.44	79	61
249.713	249.934	67	69
249.934	250.154	67	62
250.154	250.399	67	62
250.399	251.085	67	64
250.4	251.089	48	51
250.4	251.089	63	59
250.4	251.089	72	77
250.403	251.089	60	60
250.404	251.086	55	47
251.083	251.307	74	79
251.085	251.307	67	67
251.085	251.308	71	67
251.086	251.778	55	45
251.086	251.778	62	53
251.089	251.778	59	45
251.307	251.527	67	63
251.307	251.528	74	75
251.308	251.527	71	63
251.527	251.769	67	63
251.527	251.778	71	63
251.528	251.778	74	75
251.768	252.458	72	68
251.769	252.447	67	68
251.769	252.458	75	80
251.771	252.458	60	47
251.771	252.458	63	56
252.445	252.665	74	80
252.447	252.665	67	68
252.447	252.665	71	68
252.448	253.144	59	44
252.451	253.14	55	44
252.451	253.144	62	52
252.665	252.891	67	63
252.665	252.892	71	63
252.665	252.892	74	75
252.891	253.14	67	63
252.892	253.144	71	63
252.892	253.144	74	75
253.138	253.892	72	81
253.14	253.892	55	51
253.14	253.892	63	68
253.14	253.892	67	60
253.141	253.89	48	51
253.144	253.888	60	60
253.886	254.125	68	84
253.888	254.124	60	70
253.889	254.624	53	50
253.889	254.624	56	60
253.889	254.124	65	70
253.89	254.614	48	50
254.124	254.355	60	67
254.124	254.355	65	67
254.125	254.354	68	79
254.354	254.624	68	79
254.355	254.614	60	67
254.355	254.624	65	67
254.611	255.313	63	70
254.613	255.307	67	84
254.614	255.313	48	51
254.614	255.313	60	64
254.617	255.313	55	61
255.307	255.535	67	70
255.535	255.762	67	62
255.762	256.014	67	62
256.01	256.71	75	80
256.014	256.71	67	67
256.014	256.714	72	67
256.015	256.714	55	53
256.015	256.714	60	63
256.017	256.714	48	53
256.708	256.932	79	90
256.71	257.41	39	52
256.71	256.931	67	75
256.71	256.934	75	75
256.711	257.41	51	62
256.931	257.16	67	68
256.932	257.159	79	81
256.934	257.159	75	68
257.159	257.41	75	68
257.159	257.41	79	81
257.16	257.41	67	68
257.403	258.11	74	74
257.403	258.11	77	88
257.404	258.11	68	74
257.407	258.11	41	56
257.407	258.11	53	66
258.1	258.331	72	71
258.1	258.332	75	84
258.101	258.331	69	71
258.103	258.813	54	59
258.104	258.813	42	50
258.331	258.562	69	63
258.331	258.565	72	63
258.332	258.565	75	75
258.562	258.813	69	63
258.565	258.813	72	63
258.565	258.813	75	75
258.807	259.534	67	71
258.81	259.534	71	71
258.811	259.534	43	53
258.811	260.986	74	84
258.813	259.534	55	63
259.52	259.766	66	57
259.521	259.764	69	68
259.524	260.266	50	45
259.524	259.766	62	57
259.525	260.266	57	45
259.527	260.266	60	53
259.764	260.007	69	57
259.766	260.011	62	48
259.766	260.008	66	48
260.007	260.266	69	57
260.008	260.266	66	48
260.011	260.256	62	48
260.256	260.986	62	52
260.256	260.985	67	52
260.257	260.986	55	44
260.257	260.986	71	62
260.259	260.986	59	52
260.985	261.205	67	70
261.205	261.435	67	63
261.435	261.696	67	63
261.695	262.391	72	77
261.696	262.388	67	59
261.697	262.391	64	64
261.698	262.391	48	48
261.698	262.391	60	60
261.701	262.388	55	51
262.384	262.604	74	79
262.387	262.604	71	67
262.388	263.087	55	45
262.388	263.087	62	53
262.388	262.604	67	67
262.39	263.087	59	45
262.604	262.832	67	63
262.604	262.829	71	63
262.604	262.828	74	75
262.828	263.087	74	75
262.829	263.087	71	63
262.832	263.077	67	63
263.074	263.76	72	68
263.076	263.76	76	80
263.077	263.76	60	47
263.077	263.755	67	68
263.08	263.76	64	56
263.753	263.98	74	80
263.755	263.98	67	68
263.756	264.453	55	44
263.756	263.979	71	68
263.757	264.457	59	44
263.759	264.457	62	52
263.979	264.204	71	63
263.98	264.207	67	63
263.98	264.207	74	75
264.204	264.457	71	63
264.207	264.452	67	63
264.207	264.457	74	75
264.45	265.177	64	68
264.452	265.177	67	68
264.453	265.177	55	51
264.453	265.177	72	81
264.456	265.173	48	51
264.456	265.173	60	60
265.171	265.408	69	84
265.173	265.925	48	50
265.173	265.409	60	70
265.173	265.408	65	70
265.174	265.929	53	50
265.177	265.929	57	60
265.408	265.653	65	67
265.408	265.65	69	79
265.409	265.652	60	67
265.65	265.929	69	79
265.652	265.923	60	67
265.653	265.929	65	67
265.922	266.616	64	70
265.923	266.622	60	70
265.923	266.622	67	84
265.924	266.622	55	61
265.925	266.622	48	51
266.616	266.846	64	70
266.616	266.844	66	70
266.618	267.424	54	51
266.619	267.424	45	51
266.619	267.424	57	61
266.619	266.85	76	77
266.844	267.081	66	70
266.846	267.081	64	70
266.85	267.074	76	71
267.074	267.424	76	71
267.081	267.424	64	70
267.081	267.424	66	70
267.329	268.02	67	67
267.33	268.026	74	80
267.332	268.026	47	53
267.332	268.026	62	67
267.333	268.026	55	53
267.333	268.022	59	63
268.02	268.25	67	86
268.022	268.729	59	62
268.022	268.249	64	72
268.023	268.729	52	52
268.026	268.727	55	46
268.249	268.481	64	66
268.25	268.485	67	78
268.481	268.726	64	66
268.485	268.722	67	78
268.722	269.433	67	71
268.726	269.433	57	66
268.726	269.433	64	71
268.726	269.433	69	84
268.727	269.433	55	56
268.729	269.433	48	56
269.426	269.664	66	71
269.427	269.664	71	84
269.429	270.157	38	50
269.429	270.157	50	59
269.429	269.661	60	71
269.661	269.901	60	63
269.664	269.901	66	63
269.664	269.899	71	75
269.899	270.157	71	75
269.901	270.157	60	63
269.901	270.157	66	63
270.151	272.327	62	71
270.153	272.327	59	71
270.154	270.861	43	66
270.154	272.327	55	66
270.154	272.327	67	84
270.861	272.327	43	65
271.589	272.327	31	69
272.327	272.785	67	55
272.863	273.798	62	57
272.898	276.349	68	61
272.94	276.348	34	48
272.94	274.632	46	48
272.94	273.798	70	65
273.234	274.358	56	42
273.515	274.085	58	42
273.798	275.488	62	48
273.798	274.084	70	59
273.944	276.349	65	55
274.084	276.062	70	59
274.085	275.197	58	42
274.215	276.349	74	62
274.357	276.349	77	66
274.358	274.915	56	42
274.449	276.349	82	69
274.536	276.349	86	71
274.631	276.349	89	74
274.632	276.348	46	48
274.915	276.062	56	41
275.197	275.772	58	41
275.488	276.349	62	48
275.772	276.349	58	40
276.062	276.349	56	41
276.062	276.346	70	56
276.275	277.206	63	58
276.31	277.347	67	62
276.346	277.206	70	66
276.348	279.761	34	48
276.348	278.032	46	48
276.634	277.758	55	41
276.923	277.485	58	41
277.206	278.882	63	48
277.206	277.484	70	56
277.347	279.718	67	53
277.484	279.456	70	63
277.485	278.599	58	42
277.622	279.761	75	58
277.758	278.312	55	42
277.758	279.761	79	64
277.843	279.761	82	68
277.935	279.761	87	71
278.03	279.761	91	75
278.032	279.76	46	48
278.312	279.457	55	42
278.599	279.166	58	42
278.882	279.761	63	48
279.166	279.761	58	42
279.456	279.757	70	59
279.457	279.761	55	42
279.68	280.614	64	64
279.718	280.751	67	67
279.757	280.611	70	70
279.76	281.427	46	48
279.761	283.142	34	48
280.048	281.161	55	43
280.331	280.894	58	43
280.611	280.891	70	67
280.614	282.277	64	52
280.751	283.142	67	62
280.891	282.848	70	66
280.894	281.993	58	43
281.024	283.142	76	69
281.16	283.142	79	72
281.161	281.71	55	44
281.245	283.142	82	74
281.339	283.142	88	77
281.424	283.142	91	79
281.427	283.139	46	50
281.71	282.848	55	43
281.993	282.561	58	43
282.277	283.142	64	51
282.561	283.141	58	44
282.848	283.142	55	44
282.848	283.138	70	58
283.138	283.419	70	61
283.138	283.988	80	72
283.139	283.988	46	51
283.141	283.981	58	61
283.142	283.988	56	51
283.419	283.695	70	57
283.695	283.979	70	57
283.978	284.832	79	73
283.979	284.261	70	62
283.981	284.825	58	43
283.981	284.832	64	43
283.981	284.832	67	51
284.261	284.535	70	56
284.535	284.822	70	57
284.822	285.104	70	64
284.822	285.669	80	76
284.824	285.669	65	44
284.825	285.665	58	44
284.825	285.669	68	53
285.104	285.378	70	57
285.378	285.663	70	57
285.662	286.509	79	76
285.663	285.946	70	63
285.665	286.508	58	43
285.665	286.509	67	51
285.666	286.509	64	43
285.946	286.221	70	59
286.221	286.506	70	59
286.505	287.359	80	75
286.506	286.8	70	64
286.508	287.359	58	57
286.508	287.359	65	57
286.509	287.358	68	68
286.8	287.076	70	50
286.8	287.076	82	59
287.076	287.355	70	50
287.076	287.356	82	59
287.077	287.359	57	53
287.079	287.359	69	63
287.355	287.632	70	54
287.356	289.869	56	58
287.356	287.632	82	64
287.358	289.869	68	68
287.632	287.919	70	50
287.632	287.919	82	60
287.919	288.196	70	51
287.919	288.196	82	60
287.923	289.869	55	59
287.923	289.869	67	70
288.196	288.473	70	57
288.196	288.475	82	68
288.199	289.869	53	59
288.199	289.869	65	71
288.473	288.76	70	51
288.475	288.759	82	60
288.759	289.035	82	61
288.76	289.032	70	51
288.762	289.869	63	73
288.763	289.869	51	61
289.032	289.311	70	58
289.035	289.869	62	74
289.035	289.309	82	69
289.036	289.869	50	62
289.309	289.585	82	62
289.311	289.585	70	52
289.585	289.863	70	52
289.585	289.865	82	62
289.589	289.869	48	65
289.589	289.869	60	77
289.863	290.131	70	56
289.865	291.514	46	67
289.865	290.127	82	66
289.866	291.514	58	79
290.127	290.408	82	67
290.131	290.408	70	56
290.408	290.678	70	58
290.408	290.677	82	69
290.411	291.514	45	68
290.411	291.514	57	81
290.677	290.947	82	71
290.678	291.514	56	83
290.678	290.948	70	59
290.68	291.514	44	69
290.947	291.227	82	72
290.948	291.229	70	61
291.227	291.507	82	75
291.229	291.507	70	62
291.23	291.514	43	72
291.23	291.514	55	86
291.507	291.787	70	63
291.507	291.79	82	76
291.508	293.257	41	73
291.51	293.257	53	87
291.787	292.074	70	65
291.79	292.073	82	77
292.073	292.365	82	80
292.074	292.365	70	67
292.077	293.257	39	75
292.077	293.257	51	89
292.365	292.654	70	68
292.365	292.652	82	81
292.367	293.257	50	90
292.368	293.257	38	76
292.652	292.953	82	84
292.654	292.953	70	70
292.953	293.257	36	78
292.953	293.253	70	71
292.953	293.254	82	85
292.955	293.257	48	93
293.253	293.541	70	73
293.254	294.971	34	83
293.254	293.54	82	87
293.256	294.971	46	100
293.54	293.82	82	79
293.541	293.824	70	66
293.82	294.101	82	79
293.824	294.1	70	66
294.1	294.38	70	77
294.1	294.971	74	77
294.1	294.971	77	77
294.101	294.381	82	90
294.104	294.971	53	70
294.104	294.971	58	70
294.104	294.971	62	82
294.38	294.664	70	71
294.381	294.664	82	85
294.664	294.971	70	71
294.664	294.971	82	85
294.962	295.241	71	78
294.964	295.244	83	93
294.965	296.662	33	83
294.965	296.662	45	98
295.241	295.525	71	69
295.244	295.522	83	81
295.522	295.808	83	81
295.525	295.807	71	69
295.805	296.662	78	78
295.807	296.085	71	78
295.808	296.662	57	67
295.808	296.662	75	78
295.808	296.085	83	93
295.811	296.662	66	80
295.812	296.662	63	67
296.085	296.365	71	69
296.085	296.368	83	81
296.365	296.662	71	67
296.368	296.662	83	80
296.659	296.943	72	73
296.659	296.943	84	87
296.66	298.355	44	100
296.662	298.355	32	83
296.943	297.222	72	66
296.943	297.225	84	79
297.222	297.503	72	66
297.225	297.503	84	79
297.499	298.355	78	77
297.502	298.355	75	77
297.503	297.782	72	77
297.503	297.782	84	90
297.505	298.355	56	70
297.505	298.355	66	82
297.506	298.355	63	70
297.782	298.059	72	71
297.782	298.062	84	85
298.059	298.355	72	71
298.062	298.355	84	85
298.346	298.633	74	78
298.349	300.029	29	83
298.349	300.029	41	98
298.349	298.633	86	93
298.633	298.912	74	69
298.633	298.913	86	81
298.912	299.19	74	69
298.913	299.193	86	81
299.189	302.735	80	78
299.19	302.591	74	78
299.192	302.665	77	78
299.193	304.656	86	93
299.196	300.029	56	67
299.196	300.029	58	67
299.197	300.029	62	67
299.197	300.029	65	80
300.028	304.656	34	98
301.842	304.656	41	51
301.905	304.656	44	53
301.974	304.656	46	54
302.045	304.656	50	56
302.118	304.656	53	57
302.178	304.656	56	59
302.248	304.656	58	60
302.311	304.656	62	56
302.382	304.656	65	61
302.451	304.656	68	63
302.521	304.656	70	66
302.591	304.656	74	69
302.665	304.656	77	72
302.735	304.656	80	74
302.812	304.939	82	82
305.222	305.542	70	47
305.227	305.542	82	58
305.545	305.873	81	55
305.549	305.874	69	44
305.877	306.202	82	61
305.878	306.207	70	49
306.207	306.549	71	53
306.211	306.55	83	66
306.55	306.934	84	70
306.551	306.938	72	56
306.939	308.023	73	55
306.941	308.023	85	69
308.024	309.637	86	62
308.027	309.637	74	50
309.64	311.229	87	85
309.641	311.229	39	62
309.641	311.229	51	74
309.641	311.229	75	72
309.913	310.169	79	62
309.916	310.169	82	62
310.169	310.683	79	62
310.169	310.683	82	62
310.421	311.229	63	63
310.424	311.229	55	53
310.425	311.229	58	53
310.683	310.942	79	62
310.683	310.943	82	62
310.942	311.229	79	62
310.943	311.229	82	62
311.227	312.8	74	69
311.227	312.8	86	82
311.229	312.8	34	62
311.229	312.8	46	74
311.502	311.755	82	61
311.503	311.755	77	61
311.755	312.248	77	61
311.755	312.248	82	61
312.002	312.79	53	54
312.003	312.8	62	64
312.006	312.8	58	54
312.248	312.504	77	59
312.248	312.504	82	59
312.504	312.8	77	59
312.504	312.8	82	59
312.786	314.382	72	68
312.787	314.382	41	62
312.787	314.382	84	81
312.79	313.564	53	74
313.052	313.311	77	60
313.056	313.312	81	60
313.311	313.815	77	60
313.312	313.815	81	60
313.561	314.382	57	56
313.564	314.382	53	56
313.564	314.382	60	66
313.815	314.089	77	62
313.815	314.089	81	62
314.089	314.382	77	62
314.089	314.382	81	62
314.376	315.971	86	88
314.38	315.971	34	62
314.38	315.971	46	74
314.38	315.971	74	74
314.652	314.911	77	65
314.653	314.915	82	65
314.911	315.412	77	66
314.915	315.411	82	66
315.16	315.971	53	56
315.16	315.971	58	56
315.163	315.971	62	67
315.411	315.674	82	65
315.412	315.671	77	65
315.671	315.971	77	65
315.674	315.962	82	65
315.962	317.543	70	71
315.962	317.543	82	84
315.964	317.543	39	69
315.965	317.543	51	82
316.238	316.497	75	72
316.238	316.498	79	72
316.497	316.994	75	72
316.498	316.993	79	72
316.745	317.543	58	63
316.746	317.543	55	63
316.749	317.543	63	75
316.993	317.246	79	71
316.994	317.249	75	71
317.246	317.543	79	71
317.249	317.543	75	71
317.536	319.136	72	73
317.536	319.136	84	86
317.537	318.323	56	82
317.539	319.136	44	69
317.809	318.075	75	72
317.809	318.076	80	72
318.075	318.575	75	72
318.076	318.576	80	72
318.321	319.136	60	63
318.323	319.136	56	63
318.324	319.136	63	75
318.575	318.839	75	72
318.576	318.839	80	72
318.839	319.136	75	68
318.839	319.136	80	68
319.132	320.739	74	73
319.132	320.739	86	87
319.133	319.923	53	82
319.135	320.739	41	69
319.405	319.668	77	75
319.405	319.665	80	75
319.665	320.169	80	75
319.668	320.164	77	75
319.92	320.739	56	61
319.92	320.739	58	61
319.923	320.739	53	61
319.923	320.739	62	72
320.164	320.431	77	68
320.169	320.428	80	68
320.428	320.739	80	74
320.431	320.739	77	74
320.735	321.548	75	76
320.735	321.547	87	90
320.736	321.369	51	93
320.739	321.369	39	79
321.015	321.281	79	77
321.015	321.279	82	77
321.279	321.55	82	77
321.281	321.551	79	77
321.551	324.688	39	58
321.645	324.688	46	52
321.74	324.688	51	52
321.838	324.688	55	58
321.932	324.688	58	52
322.023	324.688	63	52
322.115	322.472	67	70
322.206	322.38	70	66
322.289	322.646	75	66
322.38	322.559	70	75
322.472	324.688	67	73
322.559	324.688	70	70
322.646	324.686	75	84
322.727	324.688	79	80
322.815	324.688	82	80
322.902	324.684	87	100
322.989	324.688	91	87
323.088	324.688	94	95
323.193	324.688	99	100
324.684	326.269	87	85
324.686	326.265	75	72
324.687	326.272	48	62
324.687	325.464	60	74
324.963	325.215	79	62
324.963	325.216	84	62
325.215	325.73	79	62
325.216	325.726	84	62
325.464	326.272	55	53
325.464	326.272	60	53
325.467	326.272	63	63
325.726	325.982	84	62
325.73	325.982	79	62
325.982	326.272	79	62
325.982	326.272	84	62
326.265	327.84	75	74
326.269	327.84	44	62
326.269	327.043	56	74
326.269	327.84	87	87
326.538	326.794	84	67
326.542	326.795	80	67
326.794	327.291	84	67
326.795	327.29	80	67
327.043	327.84	56	54
327.045	327.84	60	54
327.045	327.84	63	64
327.29	327.544	80	64
327.291	327.546	84	64
327.544	327.84	80	64
327.546	327.84	84	64
327.833	329.42	82	81
327.834	329.419	70	68
327.837	329.426	43	62
327.837	328.604	55	74
328.096	328.359	75	60
328.097	328.355	79	64
328.355	328.862	79	64
328.359	328.862	75	60
328.604	329.426	55	56
328.605	329.426	63	66
328.606	329.426	58	56
328.862	329.129	75	62
328.862	329.129	79	65
329.129	329.426	75	62
329.129	329.426	79	65
329.419	331.011	70	74
329.42	331.011	34	62
329.42	331.011	82	88
329.422	331.011	46	74
329.695	329.951	77	65
329.951	330.451	77	66
330.203	331.011	53	56
330.207	331.011	58	56
330.207	331.011	65	67
330.451	330.714	77	65
330.714	331.011	77	65
331.002	332.582	67	71
331.004	332.582	39	69
331.004	332.582	79	84
331.005	332.582	51	82
331.277	331.537	75	64
331.278	331.54	70	64
331.537	332.038	75	64
331.54	332.037	70	64
331.785	332.582	55	63
331.785	332.582	58	63
331.788	332.582	63	75
332.037	332.293	70	63
332.038	332.293	75	63
332.293	332.576	70	63
332.293	332.582	75	63
332.576	334.178	70	73
332.576	334.178	82	86
332.579	333.37	52	82
332.58	334.178	40	69
332.855	333.115	79	72
332.856	333.119	73	72
333.115	333.619	79	72
333.119	333.619	73	72
333.37	334.178	52	63
333.371	334.178	58	63
333.371	334.178	61	75
333.619	333.878	73	72
333.619	333.878	79	72
333.878	334.178	73	68
333.878	334.178	79	68
334.172	335.786	68	73
334.172	335.786	80	87
334.175	334.963	53	82
334.176	335.786	41	69
334.448	334.707	72	75
334.449	334.704	77	75
334.704	335.216	77	75
334.707	335.215	72	75
334.959	335.786	60	72
334.963	335.786	53	61
334.963	335.786	56	61
335.215	335.786	72	68
335.216	335.786	77	68
335.474	335.786	34	74
335.477	335.786	46	74
335.779	336.594	79	90
335.782	336.576	48	93
335.782	336.597	67	76
335.786	336.576	36	79
336.054	336.325	72	77
336.055	336.328	75	77
336.325	336.598	72	77
336.328	336.598	75	77
336.601	339.265	36	58
336.689	339.265	48	52
336.787	339.265	51	52
336.881	339.265	55	58
336.972	339.265	60	52
337.067	339.265	63	52
337.158	337.511	67	75
337.245	337.427	72	66
337.34	337.686	75	66
337.427	337.602	72	81
337.511	339.265	67	76
337.602	339.265	72	76
337.686	339.265	75	87
337.774	339.265	79	85
337.857	339.265	84	85
337.941	339.265	87	86
338.012	339.265	91	89
338.082	339.265	96	92
338.155	339.265	99	95
338.239	339.722	103	98
339.723	341.316	79	85
339.727	341.316	36	62
339.727	341.316	48	74
339.727	341.316	67	72
340.002	340.259	72	62
340.003	340.256	75	62
340.256	340.77	75	62
340.259	340.769	72	62
340.51	341.316	55	53
340.51	341.316	60	53
340.511	341.316	63	63
340.769	341.032	72	62
340.77	341.029	75	62
341.029	341.316	75	62
341.032	341.312	72	62
341.312	342.877	72	69
341.312	342.876	84	83
341.315	342.878	44	62
341.316	342.09	56	74
341.588	341.844	75	61
341.589	341.842	80	61
341.842	342.334	80	61
341.844	342.337	75	61
342.09	342.877	56	54
342.092	342.886	60	54
342.092	342.886	63	64
342.334	342.586	80	59
342.337	342.586	75	59
342.586	342.886	75	59
342.586	342.886	80	59
342.876	344.469	84	89
342.877	343.651	56	81
342.877	344.469	72	74
342.878	344.469	44	68
343.143	343.398	74	66
343.143	343.399	77	66
343.398	343.905	74	66
343.399	343.901	77	66
343.65	344.469	58	61
343.651	344.469	56	61
343.653	344.469	62	61
343.654	344.469	65	72
343.901	344.172	77	68
343.905	344.172	74	68
344.172	344.469	74	68
344.172	344.469	77	68
344.459	346.058	70	74
344.46	346.058	82	88
344.462	346.058	43	62
344.462	345.249	55	74
344.738	345.001	75	65
344.738	344.998	79	65
344.998	345.502	79	66
345.001	345.497	75	66
345.246	346.058	63	67
345.249	346.058	55	56
345.25	346.058	58	56
345.497	345.762	75	65
345.502	345.761	79	65
345.761	346.058	79	65
345.762	346.058	75	65
346.044	347.629	74	75
346.045	347.629	47	82
346.045	347.629	86	87
346.048	347.629	35	69
346.324	346.577	77	72
346.324	346.579	80	72
346.577	347.08	77	72
346.579	347.079	80	72
346.832	347.629	53	63
346.834	347.629	62	75
346.835	347.629	56	63
347.079	347.333	80	71
347.08	347.335	77	71
347.333	347.629	80	71
347.335	347.629	77	71
347.619	349.222	87	96
347.62	349.222	48	82
347.62	349.222	75	81
347.622	349.222	36	69
347.895	348.159	79	72
347.899	348.158	84	72
348.158	348.666	84	72
348.159	348.662	79	72
348.41	349.222	60	63
348.411	349.222	55	63
348.414	349.222	63	75
348.662	348.918	79	72
348.666	348.918	84	72
348.918	349.222	79	68
348.918	349.215	84	68
349.212	350.826	72	73
349.215	350.826	84	87
349.216	350.003	53	82
349.218	350.826	41	69
349.488	349.754	81	75
349.489	349.754	75	75
349.754	350.254	75	75
349.754	350.254	81	75
349.999	350.826	63	72
350.003	350.826	53	61
350.003	350.826	57	61
350.254	350.514	75	68
350.254	350.514	81	68
350.514	350.826	75	74
350.514	350.826	81	74
350.821	351.633	70	76
350.822	351.62	34	79
350.822	351.637	82	90
350.825	351.62	46	93
351.094	351.368	74	77
351.095	351.368	77	77
351.368	351.637	74	77
351.368	351.64	77	77
351.641	353.674	46	60
351.736	353.674	53	53
351.829	353.674	58	53
351.928	353.674	62	65
352.019	353.674	65	59
352.107	353.674	70	60
352.2	352.561	74	70
352.292	352.467	77	63
352.38	352.729	82	65
352.467	352.645	77	75
352.561	353.674	74	69
352.645	353.674	77	73
352.729	353.674	82	81
352.82	353.674	86	86
352.925	353.674	89	92
353.037	353.999	94	103
354.0	355.595	75	75
354.0	355.595	87	89
354.003	354.787	60	77
354.004	355.595	48	65
354.282	354.539	84	65
354.286	354.539	79	65
354.539	355.042	79	65
354.539	355.042	84	65
354.783	355.59	55	55
354.787	355.595	60	55
354.788	355.595	63	66
355.042	355.305	79	65
355.042	355.306	84	65
355.305	355.595	79	65
355.306	355.595	84	65
355.589	357.164	74	72
355.589	357.164	86	91
355.59	356.363	55	77
355.591	357.164	43	65
355.861	356.117	79	64
355.862	356.117	82	64
356.117	356.61	79	64
356.117	356.611	82	64
356.363	357.164	55	56
356.365	357.164	62	67
356.366	357.164	58	56
356.61	356.866	79	61
356.611	356.866	82	61
356.866	357.164	79	61
356.866	357.164	82	61
357.15	358.743	72	71
357.15	358.743	84	85
357.151	357.924	56	77
357.153	358.743	44	65
357.416	357.679	80	63
357.419	357.678	75	63
357.678	358.178	75	63
357.679	358.179	80	63
357.924	358.743	56	58
357.926	358.743	53	58
357.927	358.743	60	69
358.178	358.452	75	65
358.179	358.452	80	65
358.452	358.743	75	65
358.452	358.743	80	65
358.739	360.331	70	74
358.742	360.331	39	62
358.742	360.331	51	74
358.742	360.331	82	88
359.012	359.275	75	68
359.015	359.274	79	68
359.274	359.775	79	66
359.275	359.774	75	66
359.527	360.331	58	56
359.529	360.331	55	56
359.529	360.331	63	67
359.774	360.035	75	65
359.775	360.037	79	65
360.035	360.331	75	65
360.037	360.325	79	65
360.325	361.906	67	71
360.325	361.906	79	84
360.328	361.906	40	69
360.328	361.108	52	82
360.597	360.86	70	68
360.6	360.859	73	68
360.859	361.353	73	68
360.86	361.353	70	68
361.107	361.906	58	63
361.108	361.906	52	63
361.108	361.906	61	75
361.353	361.616	70	67
361.353	361.616	73	67
361.616	361.906	70	67
361.616	361.906	73	67
361.896	362.7	80	86
361.899	362.7	68	73
361.9	362.7	41	69
361.9	362.7	53	82
362.175	362.435	72	68
362.179	362.438	77	68
362.435	362.7	72	70
362.438	362.7	77	70
362.69	363.502	43	72
362.69	363.502	67	76
362.69	363.502	79	90
362.693	363.502	55	86
362.942	363.201	70	72
362.942	363.202	75	72
363.201	363.502	70	69
363.202	363.502	75	69
363.496	365.102	65	77
363.498	365.106	77	90
363.499	364.983	46	73
363.499	364.29	58	86
363.775	364.034	70	68
363.776	364.035	75	81
364.034	364.542	70	68
364.035	364.542	75	81
364.29	365.109	58	67
364.29	365.109	63	79
364.542	364.791	70	67
364.542	364.793	75	79
364.791	365.109	70	68
364.793	365.109	75	80
364.983	366.744	46	51
365.021	366.744	53	55
365.063	366.744	56	57
365.102	366.744	65	73
365.105	366.744	68	73
365.106	366.744	74	73
365.106	366.744	77	87
365.108	366.744	62	61
366.466	366.743	75	80
366.74	367.555	63	72
366.74	367.689	67	72
366.743	367.013	51	72
366.743	367.948	75	72
366.744	369.967	39	61
367.01	367.289	55	46
367.012	367.286	58	55
367.013	367.29	51	46
367.286	367.559	58	56
367.289	367.559	55	47
367.29	367.559	51	47
367.555	369.676	63	65
367.559	367.825	51	44
367.559	367.828	55	44
367.559	367.826	58	52
367.689	369.963	67	68
367.825	368.087	51	38
367.825	369.96	70	70
367.826	368.087	58	45
367.828	368.091	55	38
367.948	369.677	75	73
368.085	369.967	79	75
368.087	368.361	51	38
368.087	368.363	58	45
368.091	368.361	55	38
368.217	369.967	82	78
368.36	369.967	87	89
368.361	368.621	51	44
368.361	368.62	55	44
368.363	368.622	58	52
368.62	368.886	55	37
368.621	368.888	51	37
368.622	368.889	58	43
368.886	369.149	55	38
368.888	369.148	51	38
368.889	369.149	58	44
369.148	369.414	51	41
369.149	369.417	55	41
369.149	369.415	58	49
369.414	369.679	51	38
369.415	369.677	58	47
369.417	369.677	55	38
369.676	369.964	63	69
369.677	369.967	55	42
369.677	369.967	58	50
369.677	369.966	75	74
369.679	369.967	51	42
369.96	371.035	70	63
369.963	370.898	67	63
369.964	370.778	63	63
369.966	371.164	75	74
369.967	373.179	37	63
369.967	370.226	49	74
370.225	370.505	58	57
370.226	370.502	49	48
370.229	370.502	55	48
370.23	370.502	51	48
370.502	370.779	49	49
370.502	370.779	51	49
370.502	370.782	55	49
370.505	370.78	58	58
370.778	372.889	63	67
370.779	371.039	49	45
370.779	371.041	51	45
370.78	371.039	58	54
370.782	371.038	55	45
370.898	373.179	67	65
371.035	373.179	70	74
371.038	371.3	55	40
371.039	371.297	49	40
371.039	371.3	58	47
371.041	371.301	51	40
371.164	372.886	75	77
371.296	373.179	79	79
371.297	371.57	49	40
371.3	371.574	55	40
371.3	371.573	58	47
371.301	371.574	51	40
371.43	373.179	82	78
371.57	371.84	49	45
371.57	373.179	87	92
371.573	371.837	58	54
371.574	371.839	51	45
371.574	371.84	55	45
371.837	372.099	58	46
371.839	372.102	51	38
371.84	372.098	49	38
371.84	372.098	55	38
372.098	372.358	49	38
372.098	372.362	55	38
372.099	372.361	58	46
372.102	372.361	51	38
372.358	372.621	49	42
372.361	372.623	51	42
372.361	372.621	58	51
372.362	372.62	55	42
372.62	372.89	55	40
372.621	372.892	49	40
372.621	372.892	58	49
372.623	372.89	51	40
372.886	373.173	75	76
372.889	373.173	63	72
372.89	373.179	51	43
372.89	373.179	55	43
372.892	373.179	49	43
372.892	373.179	58	52
373.173	373.986	63	65
373.173	374.37	75	76
373.176	374.108	68	65
373.177	376.4	36	65
373.177	373.442	48	76
373.442	373.719	48	49
373.443	373.715	51	49
373.443	373.719	56	49
373.446	373.719	60	59
373.715	373.992	51	51
373.719	373.988	48	51
373.719	373.988	56	51
373.719	373.989	60	61
373.986	376.102	63	73
373.988	374.251	48	47
373.988	374.248	56	47
373.989	374.247	60	56
373.992	374.248	51	47
374.108	376.397	68	76
374.247	374.503	60	49
374.247	376.4	72	79
374.248	374.502	51	41
374.248	374.506	56	41
374.251	374.503	48	41
374.37	376.103	75	80
374.5	376.4	80	86
374.502	374.776	51	42
374.503	374.779	48	42
374.503	374.776	60	49
374.506	374.776	56	42
374.632	376.4	84	85
374.773	376.4	87	97
374.776	375.045	51	46
374.776	375.042	56	46
374.776	375.043	60	55
374.779	375.042	48	46
375.042	375.309	48	40
375.042	375.309	56	40
375.043	375.311	60	47
375.045	375.308	51	40
375.308	375.568	51	40
375.309	375.574	48	40
375.309	375.571	56	40
375.311	375.57	60	47
375.568	375.839	51	44
375.57	375.837	60	53
375.571	375.839	56	44
375.574	375.836	48	44
375.836	376.106	48	42
375.837	376.106	60	51
375.839	376.105	51	42
375.839	376.109	56	42
376.102	376.4	63	74
376.103	376.397	75	79
376.105	376.4	51	45
376.106	376.4	48	45
376.106	376.4	60	54
376.109	376.4	56	45
376.393	377.59	77	80
376.397	379.623	68	68
376.397	377.335	71	68
376.397	377.467	75	68
376.399	379.623	44	80
376.4	379.623	32	68
376.663	376.939	56	52
376.666	376.939	51	52
376.666	376.939	59	62
376.939	377.215	51	53
376.939	377.216	56	53
376.939	377.216	59	63
377.215	377.468	51	49
377.215	379.336	65	75
377.216	377.47	56	49
377.216	377.468	59	58
377.335	379.623	71	73
377.467	379.62	75	82
377.468	377.723	51	43
377.468	377.723	59	51
377.47	377.726	56	43
377.59	379.337	77	79
377.722	379.623	83	88
377.723	378.003	51	43
377.723	378.003	59	51
377.726	378.003	56	43
377.856	379.623	87	88
378.0	379.623	89	99
378.003	378.276	51	48
378.003	378.276	56	48
378.003	378.276	59	57
378.276	378.543	51	41
378.276	378.542	56	41
378.276	378.542	59	49
378.542	378.802	56	41
378.542	378.802	59	49
378.543	378.804	51	41
378.802	379.071	56	45
378.802	379.067	59	54
378.804	379.07	51	45
379.067	379.339	59	51
379.07	379.337	51	42
379.071	379.339	56	42
379.336	379.623	65	75
379.337	379.623	51	45
379.337	379.623	77	80
379.339	379.623	56	45
379.339	379.623	59	54
379.617	380.558	70	68
379.617	380.824	79	80
379.619	380.432	67	68
379.62	386.018	27	68
379.62	382.834	39	80
379.62	380.695	75	68
379.886	380.162	55	52
379.887	380.16	63	62
379.889	380.162	51	52
379.889	380.163	58	52
380.16	380.433	63	64
380.162	380.435	51	54
380.162	380.436	55	54
380.163	380.435	58	54
380.432	387.524	67	81
380.433	380.695	63	66
380.435	380.698	51	56
380.435	380.697	58	56
380.436	380.698	55	56
380.558	387.523	70	70
380.695	380.957	63	58
380.695	387.526	75	88
380.697	380.96	58	49
380.698	380.961	51	49
380.698	380.961	55	49
380.824	381.622	79	83
380.957	387.597	63	59
380.957	381.496	82	95
380.96	381.227	58	49
380.961	381.224	51	49
380.961	381.227	55	49
381.086	381.353	87	87
381.223	382.025	91	102
381.224	381.499	51	56
381.227	381.5	46	56
381.227	381.499	55	56
381.227	381.499	58	67
381.353	381.888	87	81
381.496	381.758	82	93
381.499	381.759	51	51
381.499	381.759	55	51
381.499	381.762	58	61
381.5	381.762	46	51
381.622	382.416	79	87
381.758	382.286	82	94
381.759	382.028	51	51
381.759	382.029	55	51
381.762	382.029	46	51
381.762	387.596	58	61
381.888	382.15	87	89
382.025	382.833	91	110
382.028	382.287	43	57
382.028	382.291	51	57
382.029	382.29	46	57
382.029	382.287	55	68
382.15	382.687	87	85
382.286	382.553	82	96
382.287	382.554	43	55
382.287	382.553	55	65
382.29	382.556	46	55
382.291	382.557	51	55
382.416	383.638	79	86
382.553	387.596	55	66
382.553	383.767	82	98
382.554	383.641	43	55
382.556	382.833	46	55
382.557	382.837	51	55
382.687	383.904	87	84
382.833	383.106	46	74
382.833	384.03	91	107
382.834	383.106	39	74
382.837	383.102	51	88
383.102	383.372	51	68
383.106	383.369	39	57
383.106	383.373	46	57
383.369	383.639	39	58
383.372	383.641	51	69
383.373	383.639	46	58
383.638	387.523	79	90
383.639	383.908	39	60
383.639	383.91	46	60
383.641	383.907	43	60
383.641	383.908	51	71
383.767	393.844	82	87
383.904	393.844	87	97
383.907	384.17	43	53
383.908	384.169	39	53
383.908	384.17	51	63
383.91	384.167	46	53
384.03	384.814	91	91
384.167	384.432	46	53
384.167	384.684	94	104
384.169	384.43	39	53
384.17	384.432	43	53
384.17	387.594	51	63
384.29	384.552	99	100
384.429	384.685	34	59
384.429	385.206	103	111
384.43	384.688	39	59
384.432	384.688	43	59
384.432	384.684	46	71
384.552	385.073	99	97
384.684	384.948	46	64
384.684	384.944	94	104
384.685	384.947	34	54
384.688	384.948	39	54
384.688	384.947	43	54
384.814	385.592	91	99
384.944	385.468	94	104
384.947	385.21	34	54
384.947	385.206	43	54
384.948	385.21	39	54
384.948	389.231	46	64
385.073	385.335	99	95
385.206	385.469	43	71
385.206	386.012	103	111
385.209	385.469	31	60
385.21	385.472	34	60
385.21	385.472	39	60
385.335	385.868	99	96
385.468	385.727	94	101
385.469	385.731	31	57
385.469	385.732	43	68
385.472	385.731	34	57
385.472	385.731	39	57
385.592	386.014	91	97
385.727	386.014	94	102
385.731	393.844	31	57
385.731	386.019	34	57
385.731	386.018	39	57
385.732	393.844	43	68
385.868	386.015	99	95
386.012	393.844	103	116
386.014	393.844	91	83
386.014	393.844	94	83
386.015	393.844	99	98
386.018	393.844	27	74
386.018	389.228	39	90
386.019	393.844	34	74
387.523	387.589	70	56
387.523	387.593	79	80
387.524	387.593	67	56
387.526	387.594	75	67
387.589	393.844	70	84
387.593	393.844	67	84
387.593	393.844	79	99
387.594	389.231	51	68
387.594	393.844	75	99
387.596	389.143	55	68
387.596	389.144	58	68
387.597	389.144	63	81
389.143	389.228	55	67
389.144	389.227	58	67
389.144	389.228	63	80
389.227	393.844	58	84
389.228	393.844	39	68
389.228	393.844	55	84
389.228	393.844	63	99
389.231	393.844	46	68
389.231	393.844	51	81
