OnsetTime	OffsetTime	MidiPitch	Velocity
0.502204	2.61179	51	51
0.502204	1.55706	67	59
0.502204	1.55706	70	59
1.55486	2.12624	65	55
1.55486	2.12624	68	55
2.08229	2.65131	63	53
2.08229	2.65131	67	53
2.60971	3.15437	68	54
2.60971	3.15437	72	54
3.10896	3.65392	67	52
3.10896	3.65392	70	52
3.65392	4.66778	51	50
3.65392	4.66778	67	59
3.65392	4.66778	70	59
4.66778	5.66629	53	46
4.66778	5.66629	65	53
4.66778	5.66629	68	53
5.66629	6.71267	55	45
5.66629	6.71267	63	51
5.66629	6.71267	67	51
6.71267	7.74254	58	55
6.71267	7.74254	61	55
6.71267	7.74254	64	65
7.74254	8.78086	56	51
7.74254	8.78086	60	51
7.74254	8.26997	65	55
8.26997	8.78086	72	55
8.78086	9.03631	70	53
9.03631	9.29177	68	51
9.29177	9.54722	67	53
9.54722	9.80268	65	52
9.80268	10.0707	45	47
9.80268	10.8747	55	59
9.80268	10.8747	63	59
10.0707	10.3387	46	50
10.3387	10.6067	48	53
10.6067	10.8747	46	51
10.8747	11.9267	46	49
10.8747	11.1384	53	53
10.8747	11.1384	62	53
11.2703	11.4021	58	47
11.4021	11.534	62	51
11.534	11.6651	60	49
11.6651	11.7959	63	52
11.7959	11.9267	62	51
11.9267	12.0575	65	53
12.0575	12.1883	63	51
12.1883	12.3188	67	54
12.3188	12.4485	65	54
12.4485	12.5783	68	57
12.5783	12.708	67	54
12.708	12.8378	70	59
12.8378	12.9669	68	56
12.9669	14.0217	39	53
12.9669	14.0217	51	53
12.9669	13.0987	72	60
13.0987	14.0217	67	61
13.0987	13.758	70	61
13.758	13.8899	72	53
13.8899	14.0217	70	50
14.0217	14.2876	68	53
14.2876	14.5534	67	51
14.5534	14.8193	65	53
14.8193	15.0941	63	52
15.0941	16.1489	51	49
15.0941	16.1489	60	49
15.0941	15.3578	79	62
15.3578	15.6215	74	54
15.6215	15.8852	75	58
15.8852	16.1489	72	52
16.1489	17.2209	53	53
16.1489	17.2209	60	53
16.1489	17.2209	70	56
17.2209	18.2758	58	50
17.2209	18.2758	62	50
17.2209	17.4187	70	50
17.3198	17.5176	68	48
17.4187	17.6165	70	50
17.5176	17.7154	68	48
17.6165	17.8143	70	50
17.7154	17.9132	68	48
17.8143	18.2406	70	50
17.9132	18.1439	68	49
18.0121	18.2406	67	57
18.1439	18.2758	68	55
18.2758	18.8188	60	49
18.2758	18.8188	63	49
18.2758	18.4144	67	60
18.5529	18.8188	75	65
18.8188	19.0846	74	62
19.0846	19.3505	73	59
19.3505	20.6075	44	54
19.3505	20.6075	56	54
19.3505	19.6649	71	57
19.5863	19.6649	74	53
19.6649	19.9677	72	61
19.892	19.9677	70	53
19.9677	20.2704	68	57
20.1948	20.2704	67	47
20.2704	20.6075	65	55
20.6075	23.0024	46	50
20.6075	21.7966	55	50
20.6075	22.3911	63	51
21.7966	23.0024	56	40
22.3911	23.0024	62	50
22.3911	22.6967	67	50
22.6967	23.0024	65	47
23.0024	23.2661	51	32
23.0024	24.0572	63	46
23.2661	23.5298	55	32
23.5298	23.7935	58	30
23.7935	24.0572	55	27
24.0572	25.0956	51	33
24.3209	24.8401	55	29
24.5846	25.6065	58	31
24.5846	25.0956	67	49
24.5846	25.0956	70	49
24.8401	25.351	55	29
25.0956	26.1469	51	33
25.0956	25.6065	67	52
25.0956	25.6065	70	52
25.351	25.8767	55	29
25.6065	26.1469	58	31
25.6065	26.1469	67	46
25.6065	26.1469	70	46
25.8767	26.1469	55	29
26.1469	26.5974	51	36
26.1469	27.7292	68	57
26.1469	26.6743	75	57
26.4106	26.6743	53	27
26.6743	27.7292	56	30
26.6743	27.7292	74	50
26.938	27.4655	53	27
27.2017	27.7292	51	32
27.4655	27.7292	53	27
27.7292	28.255	56	30
27.7292	28.255	82	54
27.9846	28.255	53	27
27.9846	28.255	80	51
28.2401	29.2619	51	32
28.2401	29.2619	79	54
28.4955	29.0064	53	27
28.4955	29.2619	77	52
28.751	29.2619	56	30
28.751	29.2619	75	52
29.0064	29.2619	53	27
29.0064	29.2619	74	49
29.2619	29.5235	51	33
29.2619	29.4363	77	54
29.3491	29.469	75	52
29.4363	29.5235	77	54
29.5235	29.7851	55	27
29.5235	30.0467	75	53
29.7851	30.0467	58	30
30.0467	30.3083	55	27
30.0467	30.1775	74	45
30.1775	30.3083	72	44
30.3083	30.5699	51	29
30.3083	30.8315	70	45
30.5699	30.8315	55	27
30.8315	31.8533	58	30
30.8315	31.3424	67	45
30.8315	31.3424	70	45
31.0869	31.5978	55	27
31.3424	32.3765	51	29
31.3424	31.8533	67	50
31.3424	31.8533	70	50
31.5978	32.1149	55	27
31.8533	32.3765	58	30
31.8533	32.3765	67	45
31.8533	32.3765	70	45
32.1149	32.3765	55	27
32.3765	32.9149	51	35
32.3765	34.5121	68	56
32.3765	32.9149	75	56
32.6381	32.9149	53	29
32.8996	33.4534	56	30
32.8996	34.5121	74	46
33.1612	33.4534	53	29
33.4228	34.453	51	32
33.6844	34.1995	53	27
33.946	34.5121	56	27
33.946	34.5121	82	53
34.1995	34.5121	53	27
34.1995	34.5121	80	50
34.453	35.4668	51	32
34.453	35.4668	79	53
34.7064	35.2134	53	27
34.7064	35.4668	77	50
34.9599	35.4668	56	27
34.9599	35.4668	75	52
35.2134	35.4668	53	27
35.2134	35.4668	74	50
35.4668	36.4807	51	27
35.4668	36.4807	55	27
35.4668	35.8048	75	53
35.7203	36.0012	77	43
35.8048	35.9738	75	43
35.8893	36.0012	74	43
35.9738	36.354	75	43
36.1005	36.354	77	44
36.2272	36.354	79	45
36.354	36.4807	75	44
36.4807	36.7342	70	43
36.9876	37.5326	55	32
36.9876	37.5326	58	32
36.9876	37.5326	67	48
36.9876	37.5326	70	48
37.5326	38.1013	56	34
37.5326	38.1013	60	34
37.5326	38.1013	65	45
37.5326	38.1013	68	45
38.1013	38.7241	57	35
38.1013	38.7241	60	35
38.1013	38.7241	63	49
38.1013	38.7241	67	49
38.7241	39.8615	58	37
38.7241	39.8615	63	53
38.7241	39.5772	70	53
39.5772	39.8615	67	39
39.8615	40.9745	62	35
39.8615	40.9745	65	35
40.4303	40.9745	58	46
40.9745	41.5127	53	46
41.5127	42.0459	50	46
41.9129	42.0459	65	67
42.0459	43.6281	46	53
42.0459	43.6281	77	72
42.5733	43.6281	50	45
43.1007	43.6281	53	47
43.6281	44.2105	58	45
43.6281	44.2105	75	70
43.76	44.2105	74	62
43.8919	44.2105	72	65
44.0237	44.2105	70	63
44.1556	44.7138	63	51
44.1556	44.7138	69	71
44.683	45.2104	62	47
44.683	45.2104	70	70
45.2104	45.8416	60	51
45.2104	45.8416	63	51
45.2104	45.8416	69	67
45.2104	45.8416	72	67
45.7646	46.3778	58	47
45.7646	46.3778	62	47
45.7646	46.3778	70	65
45.7646	45.8965	75	65
45.8965	46.1602	74	62
46.0284	46.2921	72	65
46.1602	46.3778	74	61
46.2921	46.8195	57	47
46.2921	46.8195	60	47
46.2921	46.8195	72	65
46.2921	46.8195	75	65
46.8195	47.3645	65	49
47.3645	47.9094	65	53
47.9094	48.4544	65	50
48.4544	50.0367	75	72
48.9818	50.0367	53	45
49.5093	50.0367	57	45
50.0367	50.5729	60	45
50.0367	50.5729	77	69
50.1685	50.5729	75	63
50.3004	50.5729	74	69
50.4323	50.5729	72	63
50.5641	51.0915	62	50
50.5641	51.0915	70	73
51.0915	51.6281	63	45
51.0915	52.2467	65	45
51.0915	51.6281	69	70
51.0915	51.6281	72	70
51.619	52.2467	62	51
51.619	52.2467	70	71
51.619	52.2467	74	71
52.1685	52.7671	60	45
52.1685	52.7671	63	45
52.1685	52.7671	72	67
52.1685	52.3025	77	67
52.3025	52.5705	75	67
52.4365	52.7045	74	67
52.5705	52.7671	75	64
52.7045	53.2405	58	50
52.7045	53.2405	62	50
52.7045	53.1847	74	72
52.7045	53.1847	77	72
53.2405	53.7855	46	54
53.7855	54.3304	46	57
54.3304	54.8754	46	54
54.8754	56.4577	80	76
55.4028	55.9303	50	54
55.9303	56.4577	53	56
56.4577	56.9851	56	52
56.4577	56.5896	79	67
56.5896	56.7214	77	63
56.7214	56.8533	75	67
56.8533	56.9851	74	64
56.9851	57.5441	55	56
56.9851	57.5441	75	72
57.5441	57.836	50	53
57.5441	57.836	77	74
58.128	59.736	78	80
58.664	59.2	51	53
58.664	59.2	58	53
59.2	59.736	51	53
59.2	59.736	58	53
59.736	60.2536	51	55
59.736	60.2536	59	55
59.736	59.9881	80	72
59.9881	60.2536	79	69
60.2536	60.7733	51	55
60.2536	60.7733	60	55
60.2536	60.5078	77	70
60.5078	60.7733	75	67
60.7733	61.2818	51	53
60.7733	61.2818	57	53
60.7733	61.0275	74	67
61.0275	61.2818	72	64
61.2818	61.7967	50	54
61.2818	61.7967	58	54
61.2818	61.4534	77	75
61.4534	61.6251	76	71
61.6251	61.7967	77	73
61.7967	62.3382	51	50
61.7967	62.3382	58	50
61.7967	61.9683	79	75
61.9683	62.14	67	67
62.14	62.3382	75	69
62.3382	62.8656	53	50
62.3382	62.8656	62	50
62.3382	63.393	70	75
62.8656	63.393	53	46
62.8656	63.393	62	46
63.393	63.9291	53	42
63.393	63.9291	63	42
63.393	64.465	69	62
63.393	63.6539	74	68
63.6539	63.9291	72	60
63.9291	64.465	53	42
63.9291	64.465	63	42
63.9291	64.1923	70	66
64.1923	64.465	72	59
64.465	64.7305	58	45
64.465	64.996	62	45
64.465	65.5234	70	60
64.7305	65.4157	58	50
64.996	65.4157	62	54
65.2597	65.5234	65	57
65.5234	65.7871	63	63
65.7871	66.0508	65	54
66.0508	66.5132	62	63
66.0508	66.5747	70	75
66.0508	66.5747	77	75
66.3124	66.5747	65	54
66.5747	66.9958	60	63
66.5747	67.1043	72	80
66.5747	67.1043	77	59
66.8385	67.1043	65	56
67.1043	67.6404	58	63
67.1043	67.6404	74	76
67.1043	67.6404	77	76
67.3716	67.6404	65	55
67.6404	68.2006	57	63
67.6404	69.2099	75	63
67.6404	68.4251	77	80
67.9019	68.2006	60	53
68.1635	68.6126	63	56
68.2943	68.6126	79	69
68.4251	68.6867	62	53
68.4251	68.6126	77	67
68.5559	68.6867	76	70
68.6867	68.9483	60	61
68.6867	68.9483	77	76
68.9483	69.2099	58	54
69.2099	69.7217	57	56
69.2099	69.7417	69	75
69.2099	69.7417	77	75
69.4758	69.7417	55	54
69.7417	70.2887	53	56
69.7417	70.2887	70	76
69.7417	70.2887	79	76
70.0054	70.2887	55	54
70.2691	70.8312	51	56
70.2691	70.8312	72	75
70.2691	70.8312	81	75
70.5307	70.8312	53	54
70.7923	71.2778	50	61
70.7923	72.3377	70	86
70.7923	71.6941	82	86
71.0504	71.3079	53	52
71.3079	71.7391	58	54
71.4366	71.7391	84	75
71.5654	71.8228	53	51
71.5654	71.7391	86	76
71.6941	71.8228	82	72
71.8228	72.0803	62	57
71.8228	72.0803	77	78
72.3377	72.8782	58	41
72.3377	72.8782	62	41
72.3377	72.8782	74	54
72.3377	72.8782	77	54
72.8782	73.4172	60	43
72.8782	73.4172	63	43
72.8782	73.4172	72	54
72.8782	73.4172	75	54
73.4172	74.0011	62	39
73.4172	74.0011	65	39
73.4172	74.0011	70	54
73.4172	74.0011	74	54
74.0011	75.0391	63	46
74.0011	75.0391	67	46
74.0011	74.6499	72	57
74.6499	74.7796	74	52
74.7796	74.9094	75	54
74.9094	75.0391	72	52
75.0391	75.2986	79	59
75.5581	76.0899	51	41
75.5581	76.0899	60	41
75.5581	76.0899	67	49
75.5581	76.0899	72	49
76.0899	77.1806	53	43
76.0899	76.6216	62	43
76.0899	76.6216	65	52
76.0899	76.6216	70	52
76.6216	77.1806	63	42
76.6216	77.1806	69	49
76.6216	77.1806	72	49
77.1806	78.578	58	45
77.1806	78.2985	63	45
77.1806	78.2985	69	54
77.1806	78.019	72	54
78.019	78.2985	73	50
78.2985	78.578	62	35
78.2985	78.8575	70	45
78.2985	78.8575	74	45
78.578	78.8575	58	51
78.8575	79.3935	62	54
78.8575	79.3935	70	74
78.8575	79.3935	77	74
79.1255	79.3935	65	51
79.3935	79.954	63	57
79.3935	79.954	72	80
79.3935	79.9295	77	59
79.6615	79.954	62	54
79.9295	80.4655	60	55
79.9295	80.4655	74	75
79.9295	80.4655	77	75
80.1975	80.4655	58	53
80.4655	80.9756	57	63
80.4655	82.033	75	83
80.4655	81.2503	77	83
80.7271	80.9887	60	54
80.9887	81.4683	63	56
81.1195	81.4683	79	69
81.2503	81.5119	62	54
81.2503	81.4683	77	71
81.3811	81.5119	76	67
81.5119	81.7735	60	61
81.5119	81.7735	77	77
81.7735	82.033	58	54
82.033	82.5784	57	56
82.033	82.5784	69	76
82.033	82.5784	77	76
82.2885	82.5784	55	54
82.5474	83.1379	53	56
82.5474	83.1379	70	81
82.5474	83.1379	79	81
82.8147	83.1379	55	54
83.0857	83.6376	51	56
83.0857	83.6376	72	76
83.0857	83.6376	81	76
83.3597	83.6376	53	54
83.6376	84.5995	50	61
83.6376	85.1831	70	86
83.6376	84.5394	82	86
83.8957	84.4107	53	46
84.1532	84.5995	58	51
84.2819	84.5995	84	67
84.4107	84.6681	53	45
84.4107	84.5995	86	70
84.5394	84.6681	82	66
84.6681	84.9256	62	50
84.6681	84.9256	77	63
85.1831	85.7235	58	41
85.1831	85.7235	62	41
85.1831	85.7235	74	54
85.1831	85.7235	77	54
85.7235	86.2625	60	43
85.7235	86.2625	63	43
85.7235	86.2625	72	54
85.7235	86.2625	75	54
86.2625	86.8464	62	42
86.2625	86.8464	65	42
86.2625	86.8464	70	54
86.2625	86.8464	74	54
86.8464	87.4201	63	43
86.8464	87.4201	67	43
86.8464	86.9919	71	45
86.9919	87.1358	72	45
87.1358	87.2788	74	46
87.2788	87.4201	72	45
87.4201	87.5607	75	50
87.5607	87.6996	74	47
87.6996	87.8378	77	52
87.8378	87.9744	75	50
87.9744	89.0293	79	60
89.0293	90.1304	53	43
89.0293	89.5567	57	43
89.0293	90.1304	63	43
89.0293	89.5567	77	54
89.5567	90.1304	60	43
89.987	90.1304	69	50
90.1304	91.0479	58	43
90.1304	92.1904	70	51
90.3859	90.8968	62	39
90.6413	91.0479	65	40
90.8968	91.4077	62	42
91.1522	92.1904	58	46
91.4077	91.9186	62	44
91.6631	92.1904	65	45
91.6631	92.1904	80	66
91.9186	92.1904	62	46
92.1754	92.5092	63	53
92.1754	93.2191	79	70
92.4335	93.2191	60	50
92.6938	93.2191	65	51
92.6938	93.2191	81	73
92.9554	93.2191	63	53
93.2191	93.6732	62	56
93.2191	93.7508	84	76
93.4849	93.7508	65	51
93.7508	94.2825	62	53
93.7508	94.2825	82	71
94.0167	94.2825	60	50
94.2825	95.3761	58	64
94.5484	95.3761	56	56
94.8142	95.3761	53	59
94.8142	95.3761	68	69
95.086	95.3761	50	56
95.36	95.868	51	64
95.36	95.9174	67	69
95.6371	95.9174	48	59
95.9174	96.5714	53	64
95.9174	96.5714	63	63
95.9174	96.5714	69	63
96.2444	96.5714	41	54
96.5714	98.615	46	46
96.5714	97.9338	63	54
96.5714	97.9338	72	54
97.9338	98.615	62	42
97.9338	98.615	70	42
98.615	99.2378	56	42
98.615	99.2378	62	47
98.615	99.2378	65	47
99.2378	99.8217	55	45
99.2378	99.8217	63	52
99.2378	99.8217	67	52
99.8217	100.457	53	49
99.8217	100.457	65	55
99.8217	100.457	68	55
100.459	102.567	51	51
100.459	101.514	67	59
100.459	101.514	70	59
101.511	102.083	65	55
101.511	102.083	68	55
102.039	102.607	63	53
102.039	102.607	67	53
102.565	103.11	68	54
102.565	103.11	72	54
103.064	103.609	67	52
103.064	103.609	70	52
103.609	104.623	51	50
103.609	104.623	67	59
103.609	104.623	70	59
104.623	105.622	53	46
104.623	105.622	65	53
104.623	105.622	68	53
105.622	106.668	55	45
105.622	106.668	63	51
105.622	106.668	67	51
106.668	107.698	58	55
106.668	107.698	61	55
106.668	107.698	64	65
107.698	108.736	56	51
107.698	108.736	60	51
107.698	108.225	65	55
108.225	108.736	72	55
108.736	108.992	70	53
108.992	109.247	68	51
109.247	109.503	67	53
109.503	109.758	65	52
109.758	110.026	45	47
109.758	110.83	55	59
109.758	110.83	63	59
110.026	110.294	46	50
110.294	110.562	48	53
110.562	110.83	46	51
110.83	111.882	46	49
110.83	111.094	53	53
110.83	111.094	62	53
111.226	111.358	58	47
111.358	111.489	62	51
111.489	111.621	60	49
111.621	111.751	63	52
111.751	111.882	62	51
111.882	112.013	65	53
112.013	112.144	63	51
112.144	112.274	67	54
112.274	112.404	65	54
112.404	112.534	68	57
112.534	112.664	67	54
112.664	112.793	70	59
112.793	112.922	68	56
112.922	113.977	39	53
112.922	113.977	51	53
112.922	113.054	72	60
113.054	113.977	67	61
113.054	113.714	70	61
113.714	113.845	72	53
113.845	113.977	70	50
113.977	114.243	68	53
114.243	114.509	67	51
114.509	114.775	65	53
114.775	115.05	63	52
115.05	116.104	51	49
115.05	116.104	60	49
115.05	115.313	79	62
115.313	115.577	74	54
115.577	115.841	75	58
115.841	116.104	72	52
116.104	117.176	53	53
116.104	117.176	60	53
116.104	117.176	70	56
117.176	118.231	58	50
117.176	118.231	62	50
117.176	117.374	70	50
117.275	117.473	68	48
117.374	117.572	70	50
117.473	117.671	68	48
117.572	117.77	70	50
117.671	117.869	68	48
117.77	118.196	70	50
117.869	118.099	68	49
117.968	118.196	67	57
118.099	118.231	68	55
118.231	118.774	60	49
118.231	118.774	63	49
118.231	118.37	67	60
118.508	118.774	75	65
118.774	119.04	74	62
119.04	119.306	73	59
119.306	120.563	44	54
119.306	120.563	56	54
119.306	119.62	71	57
119.542	119.62	74	53
119.62	119.923	72	61
119.847	119.923	70	53
119.923	120.226	68	57
120.15	120.226	67	47
120.226	120.563	65	55
120.563	122.958	46	50
120.563	121.752	55	50
120.563	122.347	63	51
121.752	122.958	56	40
122.347	122.958	62	50
122.347	122.652	67	50
122.652	122.958	65	47
122.958	123.222	51	32
122.958	124.013	63	46
123.222	123.485	55	32
123.485	123.749	58	30
123.749	124.013	55	27
124.013	125.051	51	33
124.276	124.796	55	29
124.54	125.562	58	31
124.54	125.051	67	49
124.54	125.051	70	49
124.796	125.307	55	29
125.051	126.102	51	33
125.051	125.562	67	52
125.051	125.562	70	52
125.307	125.832	55	29
125.562	126.102	58	31
125.562	126.102	67	46
125.562	126.102	70	46
125.832	126.102	55	29
126.102	126.553	51	36
126.102	127.685	68	57
126.102	126.63	75	57
126.366	126.63	53	27
126.63	127.685	56	30
126.63	127.685	74	50
126.894	127.421	53	27
127.157	127.685	51	32
127.421	127.685	53	27
127.685	128.21	56	30
127.685	128.21	82	54
127.94	128.21	53	27
127.94	128.21	80	51
128.196	129.217	51	32
128.196	129.217	79	54
128.451	128.962	53	27
128.451	129.217	77	52
128.706	129.217	56	30
128.706	129.217	75	52
128.962	129.217	53	27
128.962	129.217	74	49
129.217	129.479	51	33
129.217	129.392	77	54
129.305	129.424	75	52
129.392	129.479	77	54
129.479	129.741	55	27
129.479	130.002	75	53
129.741	130.002	58	30
130.002	130.264	55	27
130.002	130.133	74	45
130.133	130.264	72	44
130.264	130.525	51	29
130.264	130.787	70	45
130.525	130.787	55	27
130.787	131.809	58	30
130.787	131.298	67	45
130.787	131.298	70	45
131.042	131.553	55	27
131.298	132.332	51	29
131.298	131.809	67	50
131.298	131.809	70	50
131.553	132.07	55	27
131.809	132.332	58	30
131.809	132.332	67	45
131.809	132.332	70	45
132.07	132.332	55	27
132.332	132.87	51	35
132.332	134.468	68	56
132.332	132.87	75	56
132.594	132.87	53	29
132.855	133.409	56	30
132.855	134.468	74	46
133.117	133.409	53	29
133.378	134.408	51	32
133.64	134.155	53	27
133.902	134.468	56	27
133.902	134.468	82	53
134.155	134.468	53	27
134.155	134.468	80	50
134.408	135.422	51	32
134.408	135.422	79	53
134.662	135.169	53	27
134.662	135.422	77	50
134.915	135.422	56	27
134.915	135.422	75	52
135.169	135.422	53	27
135.169	135.422	74	50
135.422	136.436	51	27
135.422	136.436	55	27
135.422	135.76	75	53
135.676	135.957	77	43
135.76	135.929	75	43
135.845	135.957	74	43
135.929	136.309	75	43
136.056	136.309	77	44
136.183	136.309	79	45
136.309	136.436	75	44
136.436	136.69	70	43
136.943	137.488	55	32
136.943	137.488	58	32
136.943	137.488	67	48
136.943	137.488	70	48
137.488	138.057	56	34
137.488	138.057	60	34
137.488	138.057	65	45
137.488	138.057	68	45
138.057	138.68	57	35
138.057	138.68	60	35
138.057	138.68	63	49
138.057	138.68	67	49
138.68	139.817	58	37
138.68	139.817	63	53
138.68	139.533	70	53
139.533	139.817	67	39
139.817	140.93	62	35
139.817	140.93	65	35
140.386	140.93	58	46
140.93	141.468	53	46
141.468	142.001	50	46
141.868	142.001	65	67
142.001	143.584	46	53
142.001	143.584	77	72
142.529	143.584	50	45
143.056	143.584	53	47
143.584	144.166	58	45
143.584	144.166	75	70
143.715	144.166	74	62
143.847	144.166	72	65
143.979	144.166	70	63
144.111	144.669	63	51
144.111	144.669	69	71
144.638	145.166	62	47
144.638	145.166	70	70
145.166	145.795	60	51
145.166	145.795	63	51
145.166	145.795	69	67
145.166	145.795	72	67
145.72	146.318	58	47
145.72	146.318	62	47
145.72	146.318	70	65
145.72	145.848	75	65
145.848	146.105	74	62
145.977	146.233	72	65
146.105	146.318	74	61
146.233	146.759	57	47
146.233	146.759	60	47
146.233	146.759	72	65
146.233	146.759	75	65
146.759	147.304	65	49
147.304	147.849	65	53
147.849	148.394	65	50
148.394	149.965	75	72
148.922	149.965	53	45
149.449	149.965	57	45
149.965	150.5	60	45
149.965	150.5	77	69
150.096	150.5	75	63
150.228	150.5	74	69
150.36	150.5	72	63
150.491	151.017	62	50
150.491	151.017	70	73
151.017	151.553	63	45
151.017	152.171	65	45
151.017	151.553	69	70
151.017	151.553	72	70
151.544	152.171	62	51
151.544	152.171	70	71
151.544	152.171	74	71
152.093	152.692	60	45
152.093	152.692	63	45
152.093	152.692	72	67
152.093	152.227	77	67
152.227	152.495	75	67
152.361	152.629	74	67
152.495	152.692	75	64
152.629	153.165	58	50
152.629	153.165	62	50
152.629	153.109	74	72
152.629	153.109	77	72
153.165	153.71	46	54
153.71	154.255	46	57
154.255	154.8	46	54
154.8	156.382	80	76
155.328	155.855	50	54
155.855	156.382	53	56
156.382	156.91	56	52
156.382	156.514	79	67
156.514	156.646	77	63
156.646	156.778	75	67
156.778	156.91	74	64
156.91	157.469	55	56
156.91	157.469	75	72
157.469	157.761	50	53
157.469	157.761	77	74
158.053	159.661	78	80
158.589	159.125	51	53
158.589	159.125	58	53
159.125	159.661	51	53
159.125	159.661	58	53
159.661	160.178	51	55
159.661	160.178	59	55
159.661	159.913	80	72
159.913	160.178	79	69
160.178	160.698	51	55
160.178	160.698	60	55
160.178	160.433	77	70
160.433	160.698	75	66
160.698	161.218	51	53
160.698	161.218	57	53
160.698	160.952	74	67
160.952	161.218	72	66
161.218	161.724	50	54
161.218	161.724	58	54
161.218	161.384	77	75
161.384	161.553	76	71
161.553	161.724	77	73
161.724	162.264	51	50
161.724	162.264	58	50
161.724	161.895	79	75
161.895	162.066	67	67
162.066	162.264	75	69
162.264	162.792	53	50
162.264	162.792	62	50
162.264	163.319	70	75
162.792	163.319	53	46
162.792	163.319	62	46
163.319	163.853	53	42
163.319	163.853	63	42
163.319	164.397	69	68
163.319	163.576	74	68
163.576	163.853	72	60
163.853	164.397	53	42
163.853	164.397	63	42
163.853	164.116	70	66
164.116	164.397	72	59
164.397	164.667	58	45
164.397	164.937	62	45
164.397	165.465	70	60
164.667	165.357	58	50
164.937	165.357	62	54
165.201	165.465	65	57
165.465	165.729	63	63
165.729	165.992	65	54
165.992	166.455	62	63
165.992	166.516	70	75
165.992	166.516	77	75
166.254	166.516	65	54
166.516	166.937	60	63
166.516	167.046	72	80
166.516	167.046	77	59
166.78	167.046	65	56
167.046	167.582	58	63
167.046	167.582	74	76
167.046	167.582	77	76
167.313	167.582	65	55
167.582	168.142	57	63
167.582	169.151	75	63
167.582	168.367	77	80
167.843	168.142	60	53
168.105	168.554	63	56
168.236	168.554	79	69
168.367	168.628	62	53
168.367	168.554	77	67
168.497	168.628	76	70
168.628	168.89	60	61
168.628	168.89	77	76
168.89	169.151	58	54
169.151	169.663	57	56
169.151	169.683	69	75
169.151	169.683	77	75
169.417	169.683	55	54
169.683	170.23	53	56
169.683	170.23	70	76
169.683	170.23	79	76
169.947	170.23	55	54
170.21	170.773	51	56
170.21	170.773	72	75
170.21	170.773	81	75
170.472	170.773	53	54
170.734	171.219	50	61
170.734	172.267	70	86
170.734	171.631	82	86
170.992	171.249	53	52
171.249	171.674	58	54
171.378	171.674	84	75
171.507	171.755	53	51
171.507	171.674	86	76
171.631	171.755	82	72
171.755	172.011	62	57
171.755	172.011	77	77
172.267	172.808	58	41
172.267	172.808	62	41
172.267	172.808	74	54
172.267	172.808	77	54
172.808	173.347	60	43
172.808	173.347	63	43
172.808	173.347	72	54
172.808	173.347	75	54
173.347	173.931	62	39
173.347	173.931	65	39
173.347	173.931	70	54
173.347	173.931	74	54
173.931	174.969	63	46
173.931	174.969	67	46
173.931	174.58	72	57
174.58	174.709	74	52
174.709	174.839	75	54
174.839	174.969	72	52
174.969	175.228	79	59
175.488	176.02	51	41
175.488	176.02	60	41
175.488	176.02	67	49
175.488	176.02	72	49
176.02	177.11	53	43
176.02	176.551	62	43
176.02	176.551	65	52
176.02	176.551	70	52
176.551	177.11	63	42
176.551	177.11	69	49
176.551	177.11	72	49
177.11	178.508	58	45
177.11	178.228	63	45
177.11	178.228	69	54
177.11	177.949	72	54
177.949	178.228	73	50
178.228	178.508	62	35
178.228	178.787	70	45
178.228	178.787	74	45
178.508	178.787	58	51
178.787	179.323	62	54
178.787	179.323	70	74
178.787	179.323	77	74
179.055	179.323	65	51
179.323	179.884	63	57
179.323	179.884	72	80
179.323	179.859	77	59
179.591	179.884	62	54
179.859	180.395	60	55
179.859	180.395	74	75
179.859	180.395	77	75
180.127	180.395	58	53
180.395	180.905	57	63
180.395	181.963	75	83
180.395	181.18	77	83
180.657	180.918	60	54
180.918	181.398	63	56
181.049	181.398	79	69
181.18	181.442	62	54
181.18	181.398	77	71
181.311	181.442	76	67
181.442	181.703	60	61
181.442	181.703	77	78
181.703	181.963	58	54
181.963	182.508	57	56
181.963	182.508	69	76
181.963	182.508	77	76
182.218	182.508	55	54
182.477	183.068	53	56
182.477	183.068	70	81
182.477	183.068	79	81
182.744	183.068	55	54
183.015	183.567	51	56
183.015	183.567	72	76
183.015	183.567	81	76
183.289	183.567	53	54
183.567	184.525	50	61
183.567	185.104	70	86
183.567	184.468	82	86
183.825	184.34	53	46
184.083	184.525	58	51
184.212	184.525	84	67
184.34	184.592	53	45
184.34	184.525	86	70
184.468	184.592	82	66
184.592	184.848	62	50
184.592	184.848	77	63
185.104	185.645	58	41
185.104	185.645	62	41
185.104	185.645	74	54
185.104	185.645	77	54
185.645	186.184	60	43
185.645	186.184	63	43
185.645	186.184	72	54
185.645	186.184	75	54
186.184	186.768	62	42
186.184	186.768	65	42
186.184	186.768	70	54
186.184	186.768	74	54
186.768	187.341	63	43
186.768	187.341	67	43
186.768	186.913	71	45
186.913	187.057	72	45
187.057	187.2	74	46
187.2	187.341	72	45
187.341	187.482	75	50
187.482	187.621	74	47
187.621	187.759	77	52
187.759	187.896	75	50
187.896	188.951	79	60
188.951	190.052	53	43
188.951	189.478	57	43
188.951	190.052	63	43
188.951	189.478	77	54
189.478	190.052	60	43
189.908	190.052	69	50
190.052	190.969	58	43
190.052	192.112	70	51
190.307	190.818	62	39
190.563	190.969	65	40
190.818	191.329	62	42
191.074	192.112	58	46
191.329	191.84	62	44
191.584	192.112	65	45
191.584	192.112	80	66
191.84	192.112	62	46
192.097	192.431	63	53
192.097	193.14	79	70
192.355	193.14	60	50
192.615	193.14	65	51
192.615	193.14	81	72
192.877	193.14	63	53
193.14	193.595	62	56
193.14	193.672	84	76
193.406	193.672	65	51
193.672	194.204	62	53
193.672	194.204	82	71
193.938	194.204	60	50
194.204	195.297	58	64
194.47	195.297	56	56
194.736	195.297	53	59
194.736	195.297	68	69
195.007	195.297	50	56
195.281	195.789	51	64
195.281	195.839	67	69
195.558	195.839	48	59
195.839	196.493	53	64
195.839	196.493	63	63
195.839	196.493	69	63
196.166	196.493	41	54
196.493	198.536	46	46
196.493	197.855	63	54
196.493	197.855	72	54
197.855	198.536	62	42
197.855	198.536	70	42
198.536	199.159	56	42
198.536	199.159	62	47
198.536	199.159	65	47
199.159	199.743	55	45
199.159	199.743	63	52
199.159	199.743	67	52
199.743	200.378	53	49
199.743	200.378	65	55
199.743	200.378	68	55
200.378	202.55	52	56
200.378	201.469	66	67
200.378	201.469	69	67
201.469	202.009	67	62
201.469	202.009	70	62
202.009	202.55	70	54
202.009	202.55	73	54
202.55	203.693	48	46
202.55	203.109	64	56
202.55	203.109	67	56
203.109	203.693	68	51
203.109	203.693	72	51
203.693	205.911	50	53
203.693	204.82	67	55
203.693	204.82	70	55
204.82	205.384	65	52
204.82	205.384	68	52
205.384	205.911	77	54
205.911	206.966	56	43
205.911	206.966	60	43
205.911	206.439	77	54
206.439	206.966	77	54
206.966	208.03	58	43
206.966	208.03	61	43
206.966	208.03	78	62
208.03	208.545	79	56
208.545	209.574	82	63
209.06	210.098	60	43
209.06	210.098	70	43
209.574	210.098	76	57
210.098	211.68	65	43
210.098	211.152	70	43
210.098	211.152	79	64
211.152	211.68	68	36
211.152	211.68	77	60
211.68	212.22	41	45
212.22	212.761	41	46
212.761	213.301	41	44
213.301	216.343	41	52
213.842	214.341	80	59
214.341	214.591	79	61
214.591	214.84	77	59
214.84	215.08	75	57
215.08	215.332	73	57
215.332	215.59	72	59
215.59	215.847	73	62
215.847	216.095	77	66
216.095	216.343	73	60
216.343	217.912	41	42
216.343	219.544	62	57
216.343	219.544	68	57
216.343	217.389	72	57
217.389	219.544	71	47
217.912	218.444	41	45
218.444	218.976	41	46
218.976	219.544	41	45
219.544	222.648	42	54
220.076	221.106	63	53
220.076	220.591	72	53
220.591	220.849	71	56
220.849	221.106	72	58
221.106	222.124	63	50
221.106	221.358	74	59
221.358	221.609	72	56
221.609	221.866	71	56
221.866	222.124	72	59
222.124	223.703	63	61
222.124	222.375	75	61
222.375	222.648	74	60
222.648	224.23	43	49
222.648	223.703	71	66
223.703	225.787	63	60
223.703	225.787	72	60
224.23	224.749	43	48
224.749	225.268	43	50
225.268	225.787	43	47
225.787	227.842	44	55
226.306	226.821	63	62
226.306	226.821	72	62
226.821	227.333	63	64
226.821	227.333	72	64
227.333	227.842	63	67
227.333	227.842	72	67
227.842	228.884	45	62
227.842	228.348	63	70
227.842	228.348	72	70
228.348	228.884	63	72
228.348	228.884	72	72
228.884	229.93	46	62
228.884	230.454	63	74
228.884	229.538	73	74
229.538	229.669	72	62
229.669	229.8	70	57
229.8	229.93	68	54
229.93	230.965	49	48
229.93	230.454	67	66
230.454	230.965	79	67
230.965	232.003	48	54
230.965	231.475	80	67
231.475	232.258	72	65
232.003	233.066	49	44
232.258	232.514	70	56
232.514	232.769	73	60
232.769	233.066	77	55
233.066	234.113	51	43
233.066	234.113	60	43
233.066	234.658	68	63
234.113	235.237	51	36
234.113	235.237	61	36
234.658	235.237	67	55
234.658	234.947	72	55
234.947	235.237	70	55
235.237	235.494	56	33
235.237	236.781	68	46
235.494	236.009	60	26
235.751	236.781	63	27
236.009	236.524	60	25
236.266	236.826	56	30
236.524	236.826	60	26
236.781	237.803	63	29
236.781	237.292	68	46
236.781	237.292	72	46
237.037	237.548	60	26
237.292	238.335	56	33
237.292	237.803	68	49
237.292	237.803	72	49
237.548	238.069	60	27
237.803	238.335	63	29
237.803	238.335	68	46
237.803	238.335	72	46
238.069	238.335	60	27
238.335	238.599	55	36
238.335	239.884	70	58
238.335	239.884	72	58
238.335	238.862	77	58
238.599	238.862	58	26
238.862	239.869	60	27
238.862	239.884	76	46
239.118	239.629	58	26
239.373	239.869	55	32
239.629	239.884	58	26
239.884	240.906	60	27
239.884	240.395	70	47
239.884	240.395	72	47
240.14	240.65	58	25
240.395	241.417	55	32
240.395	240.906	70	51
240.395	240.906	72	51
240.65	241.161	58	27
240.906	241.417	60	27
240.906	241.417	70	47
240.906	241.417	72	47
241.161	241.417	58	25
241.417	241.681	53	36
241.417	242.966	68	59
241.417	242.966	72	59
241.417	241.944	79	59
241.681	241.944	56	27
241.944	242.892	60	30
241.944	242.966	77	51
242.2	242.711	56	27
242.455	242.892	53	32
242.711	242.966	56	26
242.966	244.008	60	27
242.966	243.485	68	51
242.966	243.485	72	51
243.226	243.747	56	26
243.485	244.549	53	32
243.485	244.008	68	54
243.485	244.008	72	54
243.747	244.279	56	27
244.008	244.549	60	29
244.008	244.549	68	49
244.008	244.549	72	49
244.279	244.549	56	27
244.549	244.81	51	36
244.549	246.11	68	64
244.549	246.11	72	64
244.549	245.072	80	64
244.81	245.072	54	30
245.072	246.11	56	32
245.072	246.133	78	60
245.334	245.853	54	29
245.595	246.133	51	36
245.853	246.133	54	29
246.11	247.124	56	32
246.11	246.617	68	50
246.11	246.617	72	50
246.363	246.87	54	29
246.617	247.631	51	35
246.617	247.124	68	55
246.617	247.124	72	55
246.87	247.377	54	29
247.124	247.631	56	31
247.124	247.631	68	51
247.124	247.631	72	51
247.377	247.631	54	27
247.631	248.22	49	40
247.631	249.18	68	61
247.631	250.173	73	61
247.631	248.22	78	61
247.895	248.22	52	34
248.158	249.18	56	36
248.158	249.18	76	56
248.414	248.925	52	33
248.669	250.173	49	40
248.925	249.436	52	33
249.18	250.173	56	36
249.18	249.691	68	59
249.18	249.691	76	59
249.436	250.173	52	33
249.691	250.173	47	39
249.691	250.21	68	64
249.691	250.21	76	64
249.951	250.21	51	34
250.21	250.75	56	36
250.21	250.75	68	59
250.21	250.75	75	59
250.48	250.75	51	33
250.75	252.334	46	36
250.75	252.334	53	36
250.75	252.334	68	65
250.75	251.69	75	65
251.561	251.819	77	52
251.69	251.819	75	49
251.819	252.334	74	52
252.334	252.87	46	29
252.334	252.87	53	29
252.334	252.87	62	45
252.334	252.87	68	45
252.87	253.406	46	32
252.87	253.406	53	32
252.87	253.406	62	47
252.87	253.406	68	47
253.406	253.942	46	29
253.406	253.942	53	29
253.406	253.942	62	45
253.406	253.942	68	45
253.942	255.014	46	32
253.942	255.014	53	32
253.942	255.014	62	47
253.942	255.014	68	47
255.55	256.104	58	27
255.55	256.104	65	27
255.55	256.104	74	39
255.55	256.104	80	39
256.104	256.658	58	27
256.104	256.658	65	27
256.104	256.658	74	39
256.104	256.658	80	39
256.658	257.242	58	27
256.658	257.242	65	27
256.658	257.242	74	39
256.658	257.242	80	39
257.242	258.508	58	31
257.242	258.508	65	31
257.242	258.508	74	43
257.242	257.902	80	43
257.902	257.978	82	34
257.978	258.054	80	36
258.054	258.13	79	39
258.13	258.205	80	41
258.205	258.357	82	42
258.357	258.508	84	38
258.508	258.776	82	43
258.776	259.044	80	39
259.044	259.312	79	44
259.312	259.58	77	44
259.58	259.846	75	46
259.846	260.118	74	44
260.118	260.393	72	44
260.393	260.708	70	44
260.71	262.795	51	39
260.71	261.765	67	46
260.71	261.501	70	46
261.499	261.631	72	46
261.631	261.763	70	46
261.763	262.277	65	44
261.763	262.277	68	44
262.277	262.792	63	42
262.277	262.792	67	42
262.792	263.32	68	43
262.792	263.32	72	43
263.32	263.856	67	41
263.32	263.856	70	41
263.856	264.616	51	37
263.856	264.885	67	45
263.856	264.743	70	45
264.109	264.885	55	33
264.363	264.885	58	36
264.616	264.885	51	33
264.616	264.885	72	42
264.743	264.885	70	42
264.87	265.648	53	40
264.87	265.908	68	47
265.129	265.869	56	32
265.389	265.869	62	35
265.648	265.908	53	33
265.908	266.686	55	40
265.908	267.205	67	47
266.167	266.84	58	32
266.427	266.84	63	36
266.686	266.946	55	33
266.946	270.03	56	41
266.946	270.03	60	41
267.205	267.465	64	44
267.465	267.724	65	45
267.724	267.981	67	46
267.981	268.238	68	49
268.238	268.493	69	51
268.493	268.748	70	52
268.748	269.001	71	54
269.001	269.128	74	56
269.128	269.255	72	54
269.255	269.383	71	52
269.383	269.511	72	54
269.511	269.64	70	52
269.64	269.769	68	49
269.769	269.899	67	51
269.899	270.03	65	50
270.03	270.294	45	44
270.03	271.085	55	54
270.03	271.085	63	54
270.294	270.558	46	46
270.558	270.821	48	49
270.821	271.085	46	45
271.085	272.128	46	45
271.085	271.216	53	47
271.085	271.216	62	47
271.216	271.347	58	49
271.347	271.478	57	50
271.478	271.609	58	51
271.609	271.739	59	52
271.739	271.869	60	53
271.869	271.998	61	54
271.998	272.128	62	54
272.128	272.257	63	55
272.257	272.386	64	56
272.386	272.515	65	57
272.515	272.643	66	59
272.643	272.771	67	60
272.771	272.899	68	61
272.899	273.033	69	62
273.033	273.167	70	63
273.167	274.197	39	45
273.167	274.197	51	45
273.167	274.197	67	63
273.167	273.942	70	63
273.942	274.069	72	57
274.069	274.197	70	53
274.197	274.324	68	55
274.324	274.452	67	54
274.452	274.58	72	56
274.58	274.71	70	53
274.71	274.84	75	57
274.84	274.971	74	55
274.971	275.102	77	61
275.102	275.233	75	55
275.233	276.288	51	53
275.233	276.288	60	53
275.233	275.365	80	63
275.365	275.497	79	59
275.497	275.628	78	61
275.628	275.76	79	61
275.76	275.892	77	61
275.892	276.024	75	59
276.024	276.156	74	57
276.156	276.288	72	55
276.288	277.343	53	51
276.288	277.343	60	51
276.288	276.815	70	60
276.815	277.87	69	63
277.343	277.87	58	46
277.343	278.397	62	46
277.87	278.397	59	40
277.87	278.661	68	63
278.397	278.917	60	47
278.397	279.961	63	47
278.661	278.917	67	66
278.917	279.442	55	45
278.917	279.172	75	68
279.172	279.442	73	64
279.442	279.961	56	50
279.442	279.702	71	67
279.702	279.961	72	64
279.961	280.213	74	69
280.213	280.464	75	64
280.464	282.541	46	51
280.464	281.511	55	51
280.464	280.996	75	70
280.996	281.768	70	66
281.511	282.541	56	37
281.768	281.897	72	54
281.897	282.026	70	50
282.026	282.155	70	53
282.155	282.283	68	45
282.283	282.412	67	51
282.412	282.541	65	45
282.541	282.805	51	30
282.541	284.015	63	46
282.805	283.332	55	26
283.068	284.015	58	27
283.332	283.859	55	27
283.596	284.015	51	30
283.859	284.123	55	27
284.123	285.145	58	29
284.123	284.634	67	46
284.123	284.634	70	46
284.379	284.889	55	27
284.634	285.685	51	33
284.634	285.145	67	50
284.634	285.145	70	50
284.889	285.415	55	27
285.145	285.685	58	29
285.145	285.685	67	46
285.145	285.685	70	46
285.415	285.685	55	27
285.685	285.949	51	36
285.685	287.283	68	54
285.685	286.213	75	54
285.949	286.213	53	27
286.213	287.268	56	30
286.213	287.283	74	46
286.476	287.004	53	27
286.74	287.283	51	32
287.004	287.283	53	27
287.268	287.734	56	27
287.268	287.734	82	50
287.523	287.779	53	26
287.523	287.779	80	47
287.779	288.8	51	32
287.779	288.8	79	52
288.034	288.545	53	27
288.034	288.8	77	47
288.289	288.8	56	27
288.289	288.8	75	49
288.545	288.8	53	27
288.545	288.8	74	45
288.8	289.062	51	33
288.8	288.888	77	54
288.888	289.062	75	52
288.975	289.062	77	54
289.062	289.324	55	26
289.062	289.585	75	52
289.324	289.585	58	27
289.585	289.847	55	26
289.585	289.716	74	49
289.716	289.847	72	45
289.847	290.108	51	31
289.847	290.37	70	50
290.108	290.37	55	26
290.37	291.392	58	27
290.37	290.881	67	49
290.37	290.881	70	49
290.625	291.136	55	26
290.881	291.915	51	33
290.881	291.392	67	53
290.881	291.392	70	53
291.136	291.653	55	27
291.392	291.915	58	30
291.392	291.915	67	49
291.392	291.915	70	49
291.653	291.915	55	27
291.915	292.177	51	36
291.915	292.438	68	62
291.915	292.177	75	62
292.177	292.438	53	25
292.177	292.438	74	55
292.438	292.7	56	27
292.438	293.484	84	60
292.7	292.961	53	24
292.961	293.223	51	29
293.223	293.484	53	23
293.484	293.738	56	27
293.484	293.611	82	50
293.611	293.738	80	49
293.738	293.991	53	23
293.738	293.865	84	52
293.865	293.991	80	49
293.991	294.245	51	30
293.991	294.118	79	51
294.118	294.245	77	49
294.245	294.498	53	26
294.245	294.372	80	51
294.372	294.498	77	49
294.498	294.752	56	26
294.498	294.625	75	51
294.625	294.752	74	49
294.752	295.005	53	25
294.752	294.879	77	52
294.879	295.005	74	49
295.005	296.022	51	27
295.005	296.022	55	27
295.005	295.132	75	54
295.132	295.259	77	52
295.259	295.386	75	52
295.386	295.512	74	52
295.512	295.596	75	50
295.596	295.68	76	47
295.68	295.765	77	50
295.765	295.892	78	53
295.892	296.022	79	54
296.022	296.528	70	50
296.528	297.073	55	32
296.528	297.073	67	45
296.528	297.073	70	45
297.073	297.642	56	34
297.073	297.642	65	47
297.073	297.642	68	47
297.642	298.237	57	35
297.642	298.237	63	51
297.642	298.237	67	51
298.237	299.603	58	37
298.237	299.319	63	58
298.237	298.499	70	58
298.499	298.765	69	49
298.765	299.035	70	53
299.035	299.319	67	42
299.319	300.395	62	38
299.319	300.395	65	38
299.603	299.867	59	41
299.867	300.131	60	45
300.131	300.395	58	43
300.395	300.658	58	45
300.658	300.922	56	44
300.922	301.186	55	45
301.186	301.452	53	45
301.319	301.452	70	67
301.452	303.019	51	53
301.452	303.035	82	73
301.98	303.019	55	45
302.507	303.035	58	47
303.035	303.577	63	45
303.035	303.577	80	70
303.166	303.577	79	66
303.298	303.577	77	70
303.43	303.577	75	64
303.562	304.098	68	51
303.562	304.098	74	74
304.089	304.617	67	47
304.089	304.617	75	72
304.617	305.171	65	51
304.617	305.171	68	51
304.617	305.171	74	67
304.617	305.171	77	67
305.171	305.76	63	47
305.171	305.76	67	47
305.171	305.76	75	69
305.171	305.698	80	69
305.303	305.567	79	65
305.435	305.698	77	66
305.567	305.76	79	65
305.698	306.226	62	47
305.698	306.226	65	47
305.698	306.226	77	70
305.698	306.226	80	70
306.226	306.771	70	57
306.771	307.316	70	59
307.316	307.861	70	59
307.861	309.467	80	72
308.388	309.467	58	45
308.916	309.467	62	45
309.443	310.01	65	45
309.443	309.575	82	69
309.575	310.01	80	65
309.707	310.01	79	69
309.839	310.01	77	64
309.97	310.553	67	50
309.97	310.553	75	73
310.498	311.025	68	45
310.498	311.615	70	45
310.498	311.025	74	70
310.498	311.025	77	70
311.025	311.615	67	51
311.025	311.615	75	71
311.025	311.615	79	71
311.575	312.111	65	45
311.575	312.111	68	45
311.575	312.111	77	67
311.575	312.111	82	67
311.709	311.977	80	63
311.843	312.111	79	67
311.977	312.111	80	64
312.111	312.647	63	50
312.111	312.647	67	50
312.111	312.504	79	72
312.111	312.504	82	72
312.647	313.192	39	54
312.647	313.192	51	54
313.192	313.737	39	56
313.192	313.737	51	56
313.737	314.282	39	54
313.737	314.282	51	54
314.282	315.6	73	83
314.809	315.337	55	47
314.809	315.337	63	47
315.337	315.864	55	49
315.337	315.864	63	49
315.6	315.666	75	62
315.666	315.732	73	58
315.732	315.798	72	62
315.798	315.864	73	59
315.864	316.391	55	48
315.864	316.391	63	48
315.864	316.128	75	67
316.128	316.391	77	67
316.391	316.925	55	51
316.391	316.925	63	51
316.391	316.656	75	67
316.656	316.925	73	60
316.925	317.485	55	45
316.925	317.485	63	45
316.925	317.197	72	67
317.197	317.485	71	61
317.485	318.825	71	70
318.021	318.557	55	47
318.021	319.093	63	47
318.557	319.093	56	50
318.825	319.093	72	67
319.093	319.616	56	55
319.093	319.616	63	55
319.093	319.354	75	69
319.354	319.616	74	69
319.616	320.138	56	55
319.616	320.138	63	55
319.616	319.87	77	69
319.87	320.138	75	64
320.138	320.656	56	50
320.138	320.656	63	50
320.138	320.392	74	68
320.392	320.656	72	61
320.656	321.162	55	53
320.656	321.162	63	53
320.656	320.867	70	59
320.824	321.036	71	60
320.993	321.205	72	62
321.162	321.669	56	48
321.162	321.669	63	48
321.162	321.374	73	66
321.331	321.543	74	68
321.5	321.669	75	69
321.669	322.197	46	50
321.669	322.197	55	50
321.669	321.801	75	60
321.801	322.724	63	73
322.197	322.724	46	46
322.197	322.724	55	46
322.724	323.263	46	39
322.724	323.263	56	39
322.724	323.801	62	59
322.724	322.987	67	59
322.987	323.263	65	64
323.263	323.801	46	39
323.263	323.801	56	39
323.263	323.526	63	64
323.526	323.801	65	59
323.801	324.071	51	45
323.801	324.342	55	45
323.801	324.869	63	55
324.071	324.792	51	50
324.342	324.792	55	54
324.605	324.869	58	57
324.869	325.133	56	63
325.133	325.396	58	56
325.396	325.843	55	63
325.396	325.92	63	75
325.396	325.92	70	75
325.658	325.92	58	56
325.92	326.326	53	63
325.92	326.986	65	80
325.92	326.45	70	59
326.184	326.717	58	56
326.45	326.986	51	63
326.45	326.986	67	75
326.45	326.986	70	75
326.717	326.986	58	56
326.986	327.485	50	63
326.986	328.555	68	63
326.986	327.771	70	80
327.248	327.509	53	54
327.509	327.939	56	56
327.64	327.939	72	76
327.771	328.032	55	53
327.771	327.939	70	70
327.901	328.032	69	69
328.032	328.294	53	61
328.032	328.294	70	79
328.294	328.555	51	54
328.555	329.125	50	56
328.555	329.125	62	74
328.555	329.125	70	74
328.821	329.125	48	54
329.087	329.702	46	56
329.087	329.702	63	76
329.087	329.702	72	76
329.351	329.702	48	54
329.615	330.138	44	56
329.615	330.138	65	72
329.615	330.138	74	72
329.876	330.138	46	52
330.138	331.078	43	61
330.138	331.683	63	81
330.138	331.04	75	81
330.396	330.911	46	47
330.653	331.078	51	52
330.782	331.078	77	70
330.911	331.168	46	47
330.911	331.078	79	72
331.04	331.168	75	66
331.168	331.426	55	52
331.168	331.426	70	69
331.683	332.224	51	43
331.683	332.224	55	43
331.683	332.224	67	52
331.683	332.224	70	52
332.224	332.763	53	43
332.224	332.763	56	43
332.224	332.763	65	54
332.224	332.763	68	54
332.763	333.347	55	43
332.763	333.347	58	43
332.763	333.347	63	52
332.763	333.347	67	52
333.347	334.385	56	46
333.347	334.385	60	46
333.347	333.995	65	57
333.995	334.125	67	50
334.125	334.255	68	52
334.255	334.385	65	50
334.385	334.644	72	56
334.904	335.435	44	36
334.904	335.435	53	36
334.904	335.435	60	46
334.904	335.435	65	46
335.435	336.526	46	43
335.435	335.967	55	43
335.435	335.967	58	49
335.435	335.967	63	49
335.967	336.526	56	36
335.967	336.526	62	46
335.967	336.526	65	46
336.526	337.924	51	45
336.526	337.644	56	45
336.526	337.644	62	54
336.526	337.365	65	54
337.365	337.644	66	50
337.644	337.924	55	35
337.644	337.924	63	45
337.644	338.203	67	45
337.924	338.203	63	52
338.203	338.804	67	54
338.203	338.804	75	76
338.203	338.739	82	76
338.471	338.804	70	51
338.739	339.237	68	57
338.739	339.275	77	77
338.739	339.275	82	77
339.007	339.275	67	52
339.275	339.811	65	54
339.275	339.811	79	76
339.275	339.811	82	76
339.543	339.811	63	53
339.811	340.278	62	63
339.811	341.379	80	81
339.811	340.596	82	81
340.073	340.334	65	54
340.334	340.82	68	56
340.465	340.82	84	73
340.596	340.857	67	54
340.596	340.82	82	69
340.727	340.857	81	70
340.857	341.119	65	61
340.857	341.119	82	78
341.119	341.379	63	54
341.379	341.906	62	56
341.379	341.906	74	76
341.379	341.906	82	76
341.634	341.906	60	54
341.893	342.406	58	56
341.893	342.431	75	80
341.893	342.431	84	80
342.16	342.431	60	54
342.431	343.022	56	56
342.431	343.022	77	75
342.431	343.022	86	75
342.705	343.022	58	53
342.983	343.529	55	61
342.983	344.529	75	86
342.983	343.756	87	86
343.241	343.529	58	45
343.499	343.945	60	49
343.627	343.945	86	68
343.756	344.014	62	45
343.756	343.945	87	70
343.885	344.014	82	66
344.014	344.271	63	46
344.014	344.271	79	61
344.529	345.069	63	43
344.529	345.069	67	43
344.529	345.069	79	54
344.529	345.069	82	54
345.069	345.608	65	43
345.069	345.608	68	43
345.069	345.608	77	54
345.069	345.608	80	54
345.608	346.192	67	36
345.608	346.192	70	36
345.608	346.192	75	54
345.608	346.192	79	54
346.192	346.766	68	43
346.192	346.766	72	43
346.192	346.337	76	51
346.337	346.481	77	50
346.481	346.624	79	56
346.624	346.766	77	55
346.766	346.906	80	59
346.906	347.045	79	58
347.045	347.183	82	62
347.183	347.32	80	60
347.32	348.375	84	66
348.375	349.476	58	43
348.375	348.902	62	43
348.375	349.476	68	43
348.375	348.902	82	59
348.902	349.476	65	43
349.333	349.476	74	53
349.476	350.498	63	43
349.476	350.934	75	56
349.731	350.242	67	39
349.987	350.934	70	40
350.242	350.753	67	42
350.498	350.934	63	46
350.753	351.009	67	44
351.009	351.446	70	49
351.009	351.521	85	69
351.264	351.521	67	50
351.521	351.885	68	58
351.521	352.565	84	72
351.779	352.565	65	55
352.039	352.565	70	56
352.039	352.565	86	75
352.301	352.565	68	58
352.565	353.096	67	62
352.565	353.426	89	81
352.83	353.426	70	56
353.096	353.426	67	53
353.096	353.628	87	78
353.362	353.628	65	55
353.628	353.894	63	70
353.894	354.16	61	61
354.16	354.731	58	64
354.16	354.731	73	72
354.431	354.731	55	61
354.705	355.169	56	70
354.705	355.263	72	74
354.983	355.263	53	64
355.263	355.917	58	70
355.263	355.917	68	69
355.263	355.917	74	69
355.59	355.917	46	59
355.917	357.961	51	50
355.917	357.279	68	59
355.917	357.279	77	59
357.279	357.961	67	52
357.279	357.961	75	52
357.961	358.583	56	42
357.961	358.583	62	47
357.961	358.583	65	47
358.583	359.167	55	45
358.583	359.167	63	52
358.583	359.167	67	52
359.167	359.802	53	47
359.167	359.802	65	54
359.167	359.802	68	54
359.802	361.959	52	56
359.802	360.879	66	67
359.802	360.879	69	67
360.879	361.419	67	62
360.879	361.419	70	62
361.419	361.959	70	54
361.419	361.959	73	54
361.959	363.102	48	46
361.959	362.518	64	56
361.959	362.518	67	56
362.518	363.102	68	51
362.518	363.102	72	51
363.102	365.321	50	53
363.102	364.23	67	55
363.102	364.23	70	55
364.23	364.794	65	52
364.23	364.794	68	52
364.794	365.321	77	54
365.321	366.376	56	43
365.321	366.376	60	43
365.321	365.849	77	54
365.849	366.376	77	54
366.376	367.439	58	43
366.376	367.439	61	43
366.376	367.439	78	62
367.439	367.954	79	56
367.954	368.984	82	63
368.469	369.507	60	43
368.469	369.507	70	43
368.984	369.507	76	57
369.507	371.09	65	43
369.507	370.562	70	43
369.507	370.562	79	64
370.562	371.09	68	36
370.562	371.09	77	60
371.09	371.63	41	45
371.63	372.171	41	46
372.171	372.711	41	44
372.711	375.752	41	52
373.251	373.751	80	59
373.751	374.0	79	61
374.0	374.25	77	59
374.25	374.49	75	57
374.49	374.742	73	57
374.742	375.0	72	59
375.0	375.257	73	62
375.257	375.505	77	66
375.505	375.752	73	60
375.752	377.313	41	42
375.752	378.945	62	57
375.752	378.945	68	57
375.752	376.799	72	57
376.799	378.945	71	47
377.313	377.844	41	45
377.844	378.376	41	46
378.376	378.945	41	45
378.945	382.042	42	54
379.476	380.506	63	53
379.476	379.991	72	53
379.991	380.249	71	56
380.249	380.506	72	58
380.506	381.518	63	50
380.506	380.758	74	59
380.758	381.009	72	56
381.009	381.264	71	56
381.264	381.518	72	59
381.518	383.097	63	61
381.518	381.769	75	61
381.769	382.042	74	60
382.042	383.624	43	49
382.042	383.097	71	66
383.097	385.181	63	60
383.097	385.181	72	60
383.624	384.143	43	48
384.143	384.662	43	50
384.662	385.181	43	47
385.181	387.221	44	55
385.685	386.2	63	62
385.685	386.2	72	62
386.2	386.712	63	64
386.2	386.712	72	64
386.712	387.221	63	67
386.712	387.221	72	67
387.221	388.252	45	62
387.221	387.716	63	70
387.221	387.716	72	70
387.716	388.252	63	72
387.716	388.252	72	72
388.252	389.298	46	62
388.252	389.821	63	74
388.252	388.906	73	74
388.906	389.036	72	62
389.036	389.167	70	57
389.167	389.298	68	54
389.298	390.332	49	48
389.298	389.821	67	66
389.821	390.332	79	67
390.332	391.371	48	54
390.332	390.843	80	67
390.843	391.626	72	65
391.371	392.415	49	44
391.626	391.872	70	56
391.872	392.118	73	60
392.118	392.415	77	55
392.415	393.452	51	43
392.415	393.452	60	43
392.415	393.997	68	63
393.452	394.576	51	36
393.452	394.576	61	36
393.997	394.576	67	55
393.997	394.286	72	55
394.286	394.576	70	55
394.576	394.833	56	33
394.576	396.12	68	46
394.833	395.348	60	26
395.091	396.12	63	27
395.348	395.863	60	25
395.605	396.165	56	30
395.863	396.165	60	26
396.12	397.142	63	29
396.12	396.631	68	46
396.12	396.631	72	46
396.376	396.887	60	26
396.631	397.674	56	33
396.631	397.142	68	49
396.631	397.142	72	49
396.887	397.408	60	27
397.142	397.674	63	29
397.142	397.674	68	46
397.142	397.674	72	46
397.408	397.674	60	27
397.674	397.938	55	36
397.674	399.223	70	58
397.674	399.223	72	58
397.674	398.201	77	58
397.938	398.201	58	26
398.201	399.208	60	27
398.201	399.223	76	46
398.457	398.968	58	26
398.712	399.208	55	32
398.968	399.223	58	26
399.223	400.245	60	27
399.223	399.734	70	47
399.223	399.734	72	47
399.479	399.99	58	25
399.734	400.756	55	32
399.734	400.245	70	51
399.734	400.245	72	51
399.99	400.5	58	27
400.245	400.756	60	27
400.245	400.756	70	47
400.245	400.756	72	47
400.5	400.756	58	25
400.756	401.02	53	36
400.756	402.305	68	59
400.756	402.305	72	59
400.756	401.283	79	59
401.02	401.283	56	27
401.283	402.231	60	30
401.283	402.305	77	51
401.539	402.05	56	27
401.794	402.231	53	32
402.05	402.305	56	26
402.305	403.347	60	27
402.305	402.824	68	51
402.305	402.824	72	51
402.565	403.086	56	26
402.824	403.888	53	32
402.824	403.347	68	54
402.824	403.347	72	54
403.086	403.618	56	27
403.347	403.888	60	29
403.347	403.888	68	49
403.347	403.888	72	49
403.618	403.888	56	27
403.888	404.149	51	36
403.888	405.449	68	64
403.888	405.449	72	64
403.888	404.411	80	64
404.149	404.411	54	30
404.411	405.449	56	32
404.411	405.472	78	60
404.673	405.192	54	29
404.934	405.472	51	36
405.192	405.472	54	29
405.449	406.463	56	32
405.449	405.956	68	50
405.449	405.956	72	50
405.703	406.21	54	29
405.956	406.97	51	35
405.956	406.463	68	55
405.956	406.463	72	55
406.21	406.716	54	29
406.463	406.97	56	31
406.463	406.97	68	51
406.463	406.97	72	51
406.716	406.97	54	27
406.97	407.559	49	40
406.97	408.519	68	61
406.97	409.512	73	61
406.97	407.559	78	61
407.234	407.559	52	34
407.497	408.519	56	36
407.497	408.519	76	56
407.753	408.264	52	33
408.008	409.512	49	40
408.264	408.775	52	33
408.519	409.512	56	36
408.519	409.03	68	59
408.519	409.03	76	59
408.775	409.512	52	33
409.03	409.512	47	39
409.03	409.549	68	64
409.03	409.549	76	64
409.29	409.549	51	34
409.549	410.09	56	36
409.549	410.09	68	59
409.549	410.09	75	59
409.819	410.09	51	33
410.09	411.673	46	36
410.09	411.673	53	36
410.09	411.673	68	65
410.09	411.029	75	65
410.9	411.158	77	52
411.029	411.158	75	49
411.158	411.673	74	52
411.673	412.209	46	29
411.673	412.209	53	29
411.673	412.209	62	45
411.673	412.209	68	45
412.209	412.745	46	32
412.209	412.745	53	32
412.209	412.745	62	47
412.209	412.745	68	47
412.745	413.281	46	29
412.745	413.281	53	29
412.745	413.281	62	45
412.745	413.281	68	45
413.281	414.353	46	32
413.281	414.353	53	32
413.281	414.353	62	47
413.281	414.353	68	47
414.889	415.443	58	27
414.889	415.443	65	27
414.889	415.443	74	39
414.889	415.443	80	39
415.443	415.997	58	27
415.443	415.997	65	27
415.443	415.997	74	39
415.443	415.997	80	39
415.997	416.581	58	27
415.997	416.581	65	27
415.997	416.581	74	39
415.997	416.581	80	39
416.581	417.847	58	31
416.581	417.847	65	31
416.581	417.847	74	43
416.581	417.242	80	43
417.242	417.317	82	34
417.317	417.393	80	36
417.393	417.469	79	39
417.469	417.544	80	41
417.544	417.696	82	40
417.696	417.847	84	37
417.847	418.115	82	43
418.115	418.383	80	40
418.383	418.651	79	44
418.651	418.919	77	44
418.919	419.185	75	46
419.185	419.455	74	44
419.455	419.734	72	44
419.734	420.048	70	44
420.05	422.12	51	39
420.05	421.098	67	46
420.05	420.841	70	46
420.839	420.967	72	46
420.967	421.096	70	46
421.096	421.61	65	44
421.096	421.61	68	44
421.61	422.118	63	42
421.61	422.118	67	42
422.118	422.645	68	43
422.118	422.645	72	43
422.645	423.181	67	41
422.645	423.181	70	41
423.181	423.942	51	37
423.181	424.21	67	45
423.181	424.068	70	45
423.435	424.21	55	33
423.688	424.21	58	36
423.942	424.21	51	33
423.942	424.21	72	42
424.068	424.21	70	42
424.195	424.974	53	40
424.195	425.233	68	47
424.455	425.194	56	32
424.714	425.194	62	35
424.974	425.233	53	33
425.233	426.012	55	40
425.233	426.531	67	47
425.493	426.165	58	32
425.752	426.165	63	36
426.012	426.271	55	33
426.271	429.356	56	41
426.271	429.356	60	41
426.531	426.79	64	44
426.79	427.05	65	45
427.05	427.307	67	46
427.307	427.563	68	49
427.563	427.819	69	51
427.819	428.073	70	52
428.073	428.327	71	54
428.327	428.453	74	56
428.453	428.58	72	54
428.58	428.708	71	52
428.708	428.836	72	54
428.836	428.965	70	52
428.965	429.095	68	49
429.095	429.225	67	51
429.225	429.356	65	50
429.356	429.62	45	44
429.356	430.411	55	54
429.356	430.411	63	54
429.62	429.883	46	46
429.883	430.147	48	49
430.147	430.411	46	45
430.411	431.454	46	45
430.411	430.542	53	47
430.411	430.542	62	47
430.542	430.673	58	49
430.673	430.803	57	50
430.803	430.934	58	51
430.934	431.064	59	52
431.064	431.194	60	53
431.194	431.324	61	54
431.324	431.454	62	54
431.454	431.583	63	55
431.583	431.711	64	56
431.711	431.84	65	57
431.84	431.969	66	59
431.969	432.097	67	60
432.097	432.225	68	61
432.225	432.359	69	62
432.359	432.493	70	63
432.493	433.523	39	45
432.493	433.523	51	45
432.493	433.523	67	63
432.493	433.267	70	63
433.267	433.395	72	57
433.395	433.523	70	53
433.523	433.65	68	55
433.65	433.777	67	54
433.777	433.905	72	56
433.905	434.035	70	53
434.035	434.166	75	57
434.166	434.297	74	55
434.297	434.428	77	61
434.428	434.558	75	55
434.558	435.613	51	53
434.558	435.613	60	53
434.558	434.69	80	63
434.69	434.822	79	59
434.822	434.954	78	61
434.954	435.086	79	61
435.086	435.218	77	61
435.218	435.35	75	59
435.35	435.481	74	57
435.481	435.613	72	55
435.613	436.668	53	51
435.613	436.668	60	51
435.613	436.141	70	60
436.141	437.196	69	63
436.668	437.196	58	46
436.668	437.723	62	46
437.196	437.723	59	40
437.196	437.987	68	63
437.723	438.242	60	47
437.723	439.287	63	47
437.987	438.242	67	66
438.242	438.768	55	45
438.242	438.498	75	68
438.498	438.768	73	64
438.768	439.287	56	50
438.768	439.027	71	67
439.027	439.287	72	64
439.287	439.538	74	69
439.538	439.79	75	64
439.79	441.866	46	51
439.79	440.837	55	51
439.79	440.322	75	70
440.322	441.094	70	66
440.837	441.866	56	37
441.094	441.223	72	54
441.223	441.351	70	50
441.351	441.48	70	53
441.48	441.609	68	45
441.609	441.738	67	51
441.738	441.866	65	45
441.866	442.13	51	30
441.866	443.341	63	46
442.13	442.658	55	26
442.394	443.341	58	27
442.658	443.185	55	27
442.921	443.341	51	30
443.185	443.449	55	27
443.449	444.47	58	29
443.449	443.96	67	46
443.449	443.96	70	46
443.704	444.215	55	27
443.96	445.011	51	33
443.96	444.47	67	50
443.96	444.47	70	50
444.215	444.741	55	27
444.47	445.011	58	29
444.47	445.011	67	46
444.47	445.011	70	46
444.741	445.011	55	27
445.011	445.275	51	36
445.011	446.608	68	54
445.011	445.538	75	54
445.275	445.538	53	27
445.538	446.593	56	30
445.538	446.608	74	46
445.802	446.329	53	27
446.066	446.608	51	32
446.329	446.608	53	27
446.593	447.059	56	27
446.593	447.059	82	50
446.849	447.104	53	26
446.849	447.104	80	47
447.104	448.126	51	32
447.104	448.126	79	52
447.36	447.87	53	27
447.36	448.126	77	47
447.615	448.126	56	27
447.615	448.126	75	49
447.87	448.126	53	27
447.87	448.126	74	45
448.126	448.385	51	33
448.126	448.212	77	54
448.212	448.385	75	52
448.298	448.385	77	54
448.385	448.643	55	26
448.385	448.904	75	52
448.643	448.904	58	27
448.904	449.165	55	26
448.904	449.034	74	49
449.034	449.165	72	45
449.165	449.426	51	31
449.165	449.687	70	50
449.426	449.687	55	26
449.687	450.708	58	27
449.687	450.198	67	49
449.687	450.198	70	49
449.942	450.453	55	26
450.198	451.232	51	33
450.198	450.708	67	53
450.198	450.708	70	53
450.453	450.97	55	27
450.708	451.232	58	30
450.708	451.232	67	49
450.708	451.232	70	49
450.97	451.232	55	27
451.232	451.482	51	36
451.232	451.74	68	62
451.232	451.482	75	62
451.482	451.74	53	25
451.482	451.74	74	55
451.74	451.999	56	27
451.74	452.775	84	60
451.999	452.257	53	24
452.257	452.516	51	29
452.516	452.775	53	23
452.775	453.028	56	27
452.775	452.901	82	50
452.901	453.028	80	49
453.028	453.282	53	23
453.028	453.155	84	52
453.155	453.282	80	49
453.282	453.535	51	30
453.282	453.408	79	51
453.408	453.535	77	49
453.535	453.789	53	26
453.535	453.662	80	51
453.662	453.789	77	49
453.789	454.042	56	26
453.789	453.915	75	51
453.915	454.042	74	49
454.042	454.296	53	25
454.042	454.169	77	52
454.169	454.296	74	49
454.296	455.312	51	27
454.296	455.312	55	27
454.296	454.422	75	54
454.422	454.549	77	52
454.549	454.676	75	52
454.676	454.802	74	52
454.802	454.886	75	50
454.886	454.97	76	47
454.97	455.055	77	50
455.055	455.183	78	53
455.183	455.312	79	54
455.312	455.819	70	50
455.819	456.364	55	32
455.819	456.364	67	45
455.819	456.364	70	45
456.364	456.932	56	34
456.364	456.932	65	47
456.364	456.932	68	47
456.932	457.527	57	35
456.932	457.527	63	51
456.932	457.527	67	51
457.527	458.894	58	37
457.527	458.609	63	58
457.527	457.789	70	58
457.789	458.055	69	49
458.055	458.325	70	53
458.325	458.609	67	42
458.609	459.685	62	38
458.609	459.685	65	38
458.894	459.157	59	41
459.157	459.421	60	45
459.421	459.685	58	43
459.685	459.948	58	45
459.948	460.212	56	44
460.212	460.477	55	45
460.477	460.733	53	45
460.605	460.733	70	67
460.733	462.3	51	53
460.733	462.315	82	73
461.26	462.3	55	45
461.788	462.315	58	47
462.315	462.858	63	45
462.315	462.858	80	70
462.447	462.858	79	66
462.579	462.858	77	70
462.711	462.858	75	64
462.843	463.379	68	51
462.843	463.379	74	74
463.37	463.898	67	47
463.37	463.898	75	72
463.898	464.44	65	51
463.898	464.44	68	51
463.898	464.44	74	67
463.898	464.44	77	67
464.44	465.029	63	47
464.44	465.029	67	47
464.44	465.029	75	69
464.44	464.968	80	69
464.572	464.836	79	65
464.704	464.968	77	66
464.836	465.029	79	65
464.968	465.495	62	47
464.968	465.495	65	47
464.968	465.495	77	70
464.968	465.495	80	70
465.495	466.04	70	57
466.04	466.585	70	59
466.585	467.13	70	59
467.13	468.736	80	72
467.657	468.736	58	45
468.185	468.736	62	45
468.712	469.279	65	45
468.712	468.844	82	69
468.844	469.279	80	65
468.976	469.279	79	69
469.108	469.279	77	64
469.24	469.822	67	50
469.24	469.822	75	73
469.767	470.294	68	45
469.767	470.873	70	45
469.767	470.294	74	70
469.767	470.294	77	70
470.294	470.873	67	51
470.294	470.873	75	71
470.294	470.873	79	71
470.832	471.368	65	45
470.832	471.368	68	45
470.832	471.368	77	67
470.832	471.368	82	67
470.966	471.234	80	63
471.1	471.368	79	67
471.234	471.368	80	64
471.368	471.904	63	50
471.368	471.904	67	50
471.368	471.761	79	72
471.368	471.761	82	72
471.904	472.449	39	54
471.904	472.449	51	54
472.449	472.994	39	56
472.449	472.994	51	56
472.994	473.539	39	54
472.994	473.539	51	54
473.539	474.858	73	83
474.067	474.594	55	47
474.067	474.594	63	47
474.594	475.122	55	49
474.594	475.122	63	49
474.858	474.924	75	62
474.924	474.99	73	58
474.99	475.056	72	62
475.056	475.122	73	59
475.122	475.648	55	48
475.122	475.648	63	48
475.122	475.385	75	67
475.385	475.648	77	67
475.648	476.182	55	51
475.648	476.182	63	51
475.648	475.913	75	67
475.913	476.182	73	60
476.182	476.741	55	45
476.182	476.741	63	45
476.182	476.454	72	67
476.454	476.741	71	61
476.741	478.081	71	70
477.277	477.813	55	47
477.277	478.349	63	47
477.813	478.349	56	50
478.081	478.349	72	67
478.349	478.873	56	55
478.349	478.873	63	55
478.349	478.611	75	69
478.611	478.873	74	69
478.873	479.397	56	55
478.873	479.397	63	55
478.873	479.129	77	69
479.129	479.397	75	64
479.397	479.923	56	50
479.397	479.923	63	50
479.397	479.655	74	68
479.655	479.923	72	61
479.923	480.43	55	53
479.923	480.43	63	53
479.923	480.134	70	59
480.092	480.303	71	60
480.261	480.472	72	62
480.43	480.937	56	48
480.43	480.937	63	48
480.43	480.641	73	66
480.599	480.81	74	68
480.768	480.937	75	69
480.937	481.465	46	50
480.937	481.465	55	50
480.937	481.069	75	60
481.069	481.992	63	73
481.465	481.992	46	46
481.465	481.992	55	46
481.992	482.519	46	39
481.992	482.519	56	39
481.992	483.053	62	59
481.992	482.246	67	59
482.246	482.519	65	64
482.519	483.053	46	39
482.519	483.053	56	39
482.519	482.778	63	64
482.778	483.053	65	59
483.053	483.323	51	45
483.053	483.593	55	45
483.053	484.121	63	55
483.323	484.044	51	50
483.593	484.044	55	54
483.857	484.121	58	57
484.121	484.385	56	63
484.385	484.648	58	56
484.648	485.095	55	63
484.648	485.172	63	75
484.648	485.172	70	75
484.91	485.172	58	56
485.172	485.578	53	63
485.172	486.238	65	80
485.172	485.702	70	59
485.436	485.969	58	56
485.702	486.238	51	63
485.702	486.238	67	75
485.702	486.238	70	75
485.969	486.238	58	56
486.238	486.737	50	63
486.238	487.807	68	63
486.238	487.022	70	80
486.499	486.761	53	54
486.761	487.19	56	56
486.892	487.19	72	76
487.022	487.284	55	53
487.022	487.19	70	70
487.153	487.284	69	69
487.284	487.546	53	61
487.284	487.546	70	79
487.546	487.807	51	54
487.807	488.376	50	56
487.807	488.376	62	74
487.807	488.376	70	74
488.073	488.376	48	54
488.339	488.954	46	56
488.339	488.954	63	76
488.339	488.954	72	76
488.603	488.954	48	54
488.866	489.39	44	56
488.866	489.39	65	72
488.866	489.39	74	72
489.128	489.39	46	52
489.39	490.318	43	61
489.39	490.923	63	81
489.39	490.279	75	81
489.648	490.153	46	47
489.905	490.318	51	52
490.029	490.318	77	70
490.153	490.41	46	47
490.153	490.318	79	72
490.279	490.41	75	66
490.41	490.666	55	52
490.41	490.666	70	69
490.923	491.463	51	43
490.923	491.463	55	43
490.923	491.463	67	52
490.923	491.463	70	52
491.463	492.002	53	43
491.463	492.002	56	43
491.463	492.002	65	54
491.463	492.002	68	54
492.002	492.586	55	43
492.002	492.586	58	43
492.002	492.586	63	52
492.002	492.586	67	52
492.586	493.624	56	46
492.586	493.624	60	46
492.586	493.235	65	57
493.235	493.364	67	50
493.364	493.494	68	52
493.494	493.624	65	50
493.624	493.883	72	56
494.143	494.675	44	36
494.143	494.675	53	36
494.143	494.675	60	46
494.143	494.675	65	46
494.675	495.765	46	43
494.675	495.206	55	43
494.675	495.206	58	49
494.675	495.206	63	49
495.206	495.765	56	36
495.206	495.765	62	46
495.206	495.765	65	46
495.765	497.163	51	45
495.765	496.883	56	45
495.765	496.883	62	54
495.765	496.604	65	54
496.604	496.883	66	50
496.883	497.163	55	35
496.883	497.163	63	45
496.883	497.442	67	45
497.163	497.442	63	52
497.442	498.043	67	54
497.442	498.043	75	76
497.442	497.978	82	76
497.71	498.043	70	51
497.978	498.476	68	57
497.978	498.514	77	77
497.978	498.514	82	77
498.246	498.514	67	52
498.514	499.05	65	54
498.514	499.05	79	76
498.514	499.05	82	76
498.782	499.05	63	53
499.05	499.517	62	63
499.05	500.618	80	81
499.05	499.835	82	81
499.312	499.573	65	54
499.573	500.06	68	56
499.704	500.06	84	73
499.835	500.097	67	54
499.835	500.06	82	69
499.966	500.097	81	70
500.097	500.358	65	61
500.097	500.358	82	78
500.358	500.618	63	54
500.618	501.145	62	56
500.618	501.145	74	76
500.618	501.145	82	76
500.873	501.145	60	54
501.132	501.645	58	56
501.132	501.67	75	80
501.132	501.67	84	80
501.399	501.67	60	54
501.67	502.261	56	56
501.67	502.261	77	75
501.67	502.261	86	75
501.944	502.261	58	53
502.222	502.767	55	61
502.222	503.766	75	86
502.222	502.988	87	86
502.48	502.767	58	45
502.738	503.183	60	49
502.863	503.183	86	68
502.988	503.253	62	45
502.988	503.183	87	70
503.121	503.253	82	66
503.253	503.51	63	46
503.253	503.51	79	61
503.766	504.307	63	43
503.766	504.307	67	43
503.766	504.307	79	54
503.766	504.307	82	54
504.307	504.846	65	43
504.307	504.846	68	43
504.307	504.846	77	54
504.307	504.846	80	54
504.846	505.43	67	36
504.846	505.43	70	36
504.846	505.43	75	54
504.846	505.43	79	54
505.43	506.003	68	43
505.43	506.003	72	43
505.43	505.575	76	51
505.575	505.719	77	50
505.719	505.862	79	56
505.862	506.003	77	55
506.003	506.144	80	59
506.144	506.283	79	58
506.283	506.421	82	62
506.421	506.558	80	60
506.558	507.612	84	66
507.612	508.714	58	43
507.612	508.14	62	43
507.612	508.714	68	43
507.612	508.14	82	59
508.14	508.714	65	43
508.57	508.714	74	53
508.714	509.735	63	43
508.714	510.172	75	56
508.969	509.48	67	39
509.225	510.172	70	40
509.48	509.991	67	42
509.735	510.172	63	46
509.991	510.246	67	44
510.246	510.684	70	49
510.246	510.759	85	69
510.502	510.759	67	50
510.759	511.123	68	58
510.759	511.802	84	72
511.017	511.802	65	55
511.277	511.802	70	56
511.277	511.802	86	75
511.539	511.802	68	58
511.802	512.334	67	62
511.802	512.664	89	81
512.068	512.664	70	56
512.334	512.664	67	53
512.334	512.866	87	78
512.6	512.866	65	55
512.866	513.132	63	70
513.132	513.397	61	61
513.397	513.969	58	64
513.397	513.969	73	72
513.669	513.969	55	61
513.943	514.407	56	70
513.943	514.501	72	74
514.22	514.501	53	64
514.501	515.193	58	70
514.501	515.155	68	69
514.501	515.193	74	69
514.828	515.193	46	59
515.155	517.117	51	46
515.155	516.463	68	54
515.155	516.463	77	54
516.463	517.117	67	42
516.463	517.117	75	42
517.117	517.81	62	41
517.117	517.81	65	41
517.739	518.345	63	46
517.739	518.345	67	46
518.345	519.041	46	36
518.345	519.041	65	45
518.345	519.041	68	45
519.041	522.623	39	27
519.041	522.623	51	31
519.041	521.605	62	34
519.041	521.605	65	37
519.041	521.605	68	37
521.605	522.623	63	36
521.605	522.623	67	36
