OnsetTime	OffsetTime	MidiPitch	Velocity
2.03847	2.16668	79	57
2.16668	2.29489	77	56
2.29489	2.4231	75	54
2.4231	2.55131	74	52
2.55131	4.62832	72	60
2.81104	3.85002	58	37
2.81104	3.07078	70	54
3.07078	3.59027	62	37
3.07078	4.62832	70	51
3.33053	4.62832	65	33
3.59027	4.10642	62	36
3.85002	4.62832	58	33
3.85002	4.36283	74	57
4.10642	4.62832	62	41
4.10642	4.62832	79	60
4.36283	4.62832	67	38
4.36283	4.62832	74	55
4.62832	5.92704	77	60
4.88806	5.92704	60	34
5.14781	5.6673	63	39
5.14781	6.13859	75	56
5.40755	6.13859	67	36
5.6673	6.13859	63	44
5.92704	6.18346	60	37
5.92704	6.13859	77	60
6.05525	6.18346	79	56
6.18346	6.69629	63	38
6.18346	6.69629	77	61
6.31166	6.69629	75	54
6.43987	6.69629	67	34
6.43987	6.69629	74	58
6.56808	6.69629	72	53
6.69629	7.21701	70	66
6.95269	7.21701	53	35
7.21701	7.72982	60	35
7.21701	7.98623	69	57
7.47342	8.49904	63	34
7.72982	8.24263	60	47
7.98623	8.76931	53	36
7.98623	8.76931	69	62
8.24263	8.76931	60	43
8.24263	8.76931	70	65
8.49904	8.76931	63	36
8.49904	8.76931	72	61
8.76931	9.29334	69	52
8.76931	9.29334	72	61
9.03133	9.29334	58	42
9.29334	9.81735	62	42
9.29334	10.0794	70	49
9.29334	10.0794	74	58
9.55534	10.0794	65	36
9.81735	10.0794	62	45
10.0794	10.8421	58	42
10.0794	10.4607	77	64
10.2065	10.8421	76	63
10.3336	10.8421	62	42
10.3336	10.8421	79	66
10.4607	10.8421	77	63
10.5878	10.8421	65	39
10.5878	10.8421	75	63
10.715	10.8421	74	61
10.8421	11.8811	63	45
10.8421	11.8811	74	68
11.103	11.8811	67	37
11.103	11.8811	72	61
11.3638	11.8811	62	40
11.6247	11.8811	65	35
11.6247	11.8811	70	61
11.8811	12.6637	63	45
11.8811	12.9201	74	67
12.142	12.9201	67	35
12.142	12.9201	72	62
12.4029	12.9201	60	38
12.6637	12.9201	63	32
12.6637	12.9201	69	64
12.9201	13.4308	62	42
12.9201	13.4308	65	42
12.9201	13.0478	70	68
13.0478	13.1754	72	59
13.1754	13.3031	70	62
13.3031	13.4308	69	58
13.4308	13.5584	70	66
13.5584	13.6861	72	60
13.6861	13.8137	74	63
13.8137	13.941	75	61
13.941	14.0682	76	69
14.0682	14.1953	77	65
14.1953	14.3222	76	69
14.3222	14.4556	77	65
14.4556	14.5816	79	69
14.5816	14.7077	77	67
14.7077	14.8337	75	66
14.8337	14.9676	74	65
14.9676	15.5538	63	47
14.9676	15.5538	74	72
15.223	15.5538	67	36
15.223	15.4783	72	54
15.4783	16.0336	62	40
15.4783	16.0336	72	56
15.7336	16.0336	65	33
15.7336	16.0336	70	54
15.9889	16.5294	63	47
15.9889	16.5294	74	65
16.2442	16.5294	67	37
16.2442	16.4996	72	54
16.4996	17.0102	60	39
16.4996	17.0102	72	57
16.7549	17.0102	63	32
16.7549	17.0102	69	53
17.0102	17.5208	62	47
17.0102	17.5208	65	47
17.0102	17.2655	70	66
17.2655	17.3932	72	57
17.3932	17.5208	74	58
17.5208	17.6485	75	59
17.6485	17.7762	77	60
17.7762	17.9038	79	61
17.9038	18.0315	81	64
18.0315	18.1591	82	66
18.1591	18.2868	84	67
18.2868	18.4143	86	68
18.4143	18.5414	87	69
18.5414	18.6685	89	76
18.7953	18.9219	89	75
19.0485	19.5657	57	61
19.0485	20.3416	77	76
19.0485	19.5431	89	76
19.3071	19.9763	87	74
19.5657	20.0829	58	55
19.8243	20.0829	86	73
20.0829	20.5969	51	63
20.0829	20.3416	86	75
20.3416	20.4692	75	64
20.3416	20.4692	84	64
20.5969	21.1329	53	57
20.5969	20.7248	74	72
20.5969	20.7248	82	72
20.8538	20.9934	72	64
20.8538	20.9934	81	64
21.1329	21.3949	74	76
21.1329	21.3949	82	76
21.3949	21.5257	46	52
21.6581	21.7925	50	55
21.6581	21.9292	70	72
21.9292	22.068	53	50
22.2091	22.7806	58	61
22.7806	22.9088	67	52
22.9088	23.037	65	49
23.037	23.1652	63	52
23.1652	23.2934	62	50
23.2934	23.5543	60	56
23.5543	24.5978	46	34
23.5543	23.8152	58	53
23.8152	24.3369	50	37
23.8152	25.4042	58	53
24.076	25.1264	53	35
24.3369	24.8621	50	43
24.5978	25.4042	46	39
24.5978	25.4042	70	63
24.8621	25.4042	50	39
24.8621	25.4042	69	58
25.1264	25.4042	53	35
25.1264	25.4042	67	56
25.4042	26.4839	65	64
25.6685	26.4839	48	36
25.9328	26.4615	55	39
25.9328	27.4871	64	51
26.1972	26.4839	58	35
26.4615	26.9743	55	42
26.5897	26.9743	67	52
26.7179	27.4871	48	34
26.7179	27.4871	65	56
26.8461	27.2307	69	52
26.9743	27.4871	55	38
26.9743	27.4871	67	56
27.1025	27.4871	70	53
27.2307	27.4871	58	34
27.2307	27.4871	69	56
27.3589	27.4871	72	53
27.4871	28.4537	70	56
27.6148	28.4537	67	58
27.7425	28.4537	52	39
27.7425	28.1233	76	61
27.8696	28.4537	72	62
27.9967	28.4537	55	43
27.9967	28.4537	79	64
28.1233	28.4537	76	67
28.2499	28.502	60	46
28.2499	28.4537	82	70
28.3759	28.502	81	69
28.502	29.0057	55	49
28.502	29.5145	82	71
28.6275	29.5145	81	67
28.7532	29.5145	52	47
28.7532	29.5145	79	69
28.8793	29.5145	77	65
29.0057	29.5145	55	50
29.0057	29.5145	76	66
29.1323	29.5145	74	65
29.2595	29.5145	60	54
29.2595	29.5145	72	64
29.3869	29.5145	70	63
29.5145	30.0539	70	69
29.6461	30.0539	69	56
29.7818	30.0539	53	42
29.7818	30.0539	74	64
29.914	30.0462	72	54
30.0462	30.5748	57	41
30.0462	31.0957	72	54
30.3105	31.0957	60	34
30.5748	31.0957	57	37
30.8391	31.1034	53	34
31.1034	31.3598	57	36
31.1034	31.2316	86	69
31.2316	31.3598	84	66
31.3598	31.6163	60	32
31.3598	31.4881	82	69
31.4881	31.6163	81	66
31.6163	32.1358	58	47
31.6163	32.6899	79	72
31.876	32.3955	60	32
32.1358	32.6899	58	37
32.3955	32.6899	60	31
32.3955	32.6899	76	63
32.6552	33.1681	57	50
32.6552	33.7448	77	66
32.7851	33.0404	84	70
32.9128	33.4234	60	41
32.9128	33.7448	83	70
33.0404	33.2958	84	67
33.1681	33.7448	57	44
33.1681	33.7448	86	73
33.2958	33.7448	84	68
33.4234	33.7448	60	41
33.4234	33.7448	82	71
33.5511	33.7448	81	68
33.6787	34.2039	58	49
33.6787	33.943	79	81
33.943	34.4648	60	36
33.943	34.7028	79	75
34.2039	34.7028	58	42
34.4648	34.7257	60	36
34.4648	34.7257	76	64
34.7257	35.2391	57	53
34.7257	35.7769	77	63
34.8561	35.1114	84	70
34.9838	35.4944	60	45
34.9838	35.7769	83	69
35.1114	35.3667	84	68
35.2391	35.7769	57	46
35.2391	35.7769	86	75
35.3667	35.7769	84	69
35.4944	35.7769	60	44
35.4944	35.7769	82	71
35.6221	35.7497	81	67
35.7497	36.2214	58	51
35.7497	36.2214	81	73
36.0106	36.2714	62	46
36.0106	36.2714	79	70
36.2714	36.5323	58	51
36.5323	36.7932	62	46
36.5323	36.7932	79	72
36.7932	37.303	59	50
36.7932	37.303	79	78
37.0541	37.3149	62	46
37.0541	37.3149	77	72
37.3149	37.5758	59	52
37.5758	37.83	62	48
37.5758	37.83	77	72
37.83	38.3629	60	59
37.83	38.0843	76	73
37.9572	38.3385	77	66
38.0843	38.3629	76	68
38.2114	38.3629	72	65
38.3385	38.847	62	61
38.3385	38.5928	77	75
38.4657	38.829	79	68
38.5928	38.829	77	68
38.7199	38.847	72	65
38.847	39.3555	64	63
38.847	39.1013	79	80
38.9741	39.3131	81	68
39.1013	39.3131	79	72
39.2284	39.3555	72	67
39.3555	39.864	65	65
39.3555	39.6098	81	81
39.4826	39.7793	82	74
39.6098	39.7793	81	76
39.7369	39.864	72	69
39.864	40.1238	67	65
39.864	39.9939	82	85
40.1238	40.3835	72	53
40.1238	40.2536	82	83
40.3835	40.6432	64	60
40.6432	40.9008	72	53
40.6432	40.772	79	77
40.9008	41.1583	65	59
40.9008	41.1583	82	81
41.1583	41.4158	72	50
41.1583	41.287	81	71
41.4158	41.6733	62	56
41.4158	41.5445	79	76
41.6733	41.9308	72	52
41.6733	41.8021	77	73
41.9308	42.4637	60	60
41.9308	42.4637	76	78
42.0579	42.4637	72	72
42.1851	42.4637	83	72
42.3122	42.4637	84	68
42.4393	42.9542	62	62
42.4393	42.9542	77	80
42.5664	42.9542	72	73
42.6936	42.9542	83	73
42.8207	42.9542	84	69
42.9478	43.4563	64	65
42.9478	43.4075	79	81
43.0749	43.4075	72	76
43.202	43.4075	83	76
43.3292	43.4563	84	73
43.4563	43.9647	65	68
43.4563	43.8917	81	84
43.5834	43.8917	72	76
43.7105	43.8917	83	76
43.8376	43.9647	84	75
43.9647	44.0952	67	66
43.9647	44.0952	82	89
44.0952	44.2256	72	44
44.2256	44.3561	71	47
44.2256	44.3561	82	84
44.3561	44.4865	72	44
44.4865	44.6169	64	57
44.6169	44.7474	72	45
44.7474	44.9745	71	48
44.7474	44.9745	81	69
44.8126	44.943	79	66
44.8778	45.0082	72	44
44.8778	44.9745	78	69
44.943	45.0082	79	67
45.0082	45.1387	65	57
45.0082	45.2691	82	79
45.1387	45.2691	72	44
45.2691	45.3995	71	46
45.2691	45.3995	81	76
45.3995	45.53	72	44
45.53	45.6604	62	56
45.53	45.6604	79	76
45.6604	45.7908	71	45
45.7908	45.9213	69	45
45.7908	45.9213	77	75
45.9213	47.0729	71	43
46.0517	46.9354	60	56
46.0517	46.5559	72	56
46.0517	46.4299	76	79
46.1778	47.0729	84	71
46.3038	47.0729	79	72
46.4299	47.0729	76	70
46.5559	47.0729	72	76
46.682	47.0729	67	69
46.808	47.0729	64	71
46.9354	47.0729	60	70
47.0662	47.3317	36	73
47.0662	47.3317	48	73
48.1282	49.1538	41	66
48.1282	49.1538	53	66
48.1282	48.8974	60	70
48.1282	48.8974	65	70
48.1282	48.8974	69	70
48.1282	48.8974	72	70
48.8974	49.0256	74	48
49.0256	49.1538	72	48
49.1538	49.282	70	52
49.4103	49.5385	69	48
49.6667	49.7949	67	48
49.9231	50.0513	65	48
50.1795	50.7182	65	54
50.4404	50.7182	74	50
50.7182	51.7586	46	68
50.7182	51.7586	58	68
50.7182	51.5022	65	72
50.7182	51.5022	74	72
51.5022	51.7586	72	53
51.7586	52.2714	57	44
51.7586	52.015	76	56
52.015	52.2714	77	53
52.2714	52.7799	59	38
52.2714	52.7799	62	38
52.2714	52.765	77	61
52.5235	53.3074	67	53
52.7799	53.3074	60	38
53.0363	53.3074	69	53
53.2927	53.8012	59	38
53.2927	53.8012	62	38
53.2927	53.7863	77	61
53.5448	54.314	67	53
53.8012	54.314	60	40
54.0576	54.314	69	53
54.314	55.3886	62	39
54.314	54.8336	72	58
54.8336	55.3886	64	35
54.8336	54.9629	72	52
54.8983	55.0276	70	48
54.9629	55.0922	72	52
55.0276	55.1569	70	48
55.0922	55.3886	72	52
55.1569	55.2862	70	48
55.2215	55.3509	69	52
55.2862	55.3886	70	49
55.3509	55.8659	65	35
55.3509	55.4802	69	57
55.6095	55.8659	69	53
55.8659	56.1223	70	56
56.1223	56.3787	72	53
56.3787	56.6396	73	65
56.6396	57.3454	46	45
56.6396	57.3454	74	54
56.896	57.3454	50	46
57.1524	57.4055	55	45
57.1524	57.3454	72	54
57.279	57.4055	70	50
57.4055	57.9183	58	52
57.4055	57.6619	69	54
57.6619	57.9183	67	53
57.9183	58.1748	69	54
58.1748	58.4312	70	52
58.4312	58.6932	74	63
58.6932	59.4083	45	44
58.6932	59.4083	72	53
58.9496	59.4083	48	44
59.206	59.4602	53	42
59.206	59.4083	70	54
59.3331	59.4602	69	52
59.4602	59.973	57	52
59.4602	59.7166	67	56
59.7166	59.973	65	54
59.973	60.2294	67	54
60.2294	60.4858	69	54
60.4858	61.5021	55	44
60.4858	61.5021	72	63
60.7478	61.5021	70	51
61.0042	61.5171	52	41
61.2606	61.5171	67	51
61.5171	62.545	53	43
61.5171	62.545	70	62
61.7791	62.545	69	52
62.0344	62.545	50	42
62.2897	62.545	65	52
62.545	63.06	48	44
62.545	62.6738	64	61
62.6738	62.8025	65	53
62.8025	62.9313	64	53
62.9313	63.06	65	50
63.06	63.1877	71	59
63.1877	63.3154	72	54
63.3154	63.443	71	54
63.443	63.5707	72	51
63.5707	63.6983	48	53
63.5707	64.0813	60	56
63.6983	63.826	50	49
63.826	63.9537	46	54
63.9537	64.0813	48	49
64.0813	64.209	45	54
64.209	64.3383	46	49
64.3383	64.4693	43	56
64.4693	64.6021	45	49
64.6021	65.2805	41	66
64.6021	65.3713	69	71
64.6021	65.3713	72	71
65.1149	65.6277	53	46
65.3713	65.4995	74	51
65.4995	65.6277	72	51
65.6277	65.7559	70	57
65.8841	66.0123	69	50
66.1405	66.2688	67	50
66.397	66.5252	65	50
66.6534	67.187	65	54
66.9143	67.187	74	50
67.187	68.226	46	59
67.187	68.226	58	59
67.187	67.9696	65	71
67.187	67.9696	74	71
67.9696	68.226	72	53
68.226	68.7345	57	43
68.226	68.4824	76	66
68.4824	69.2729	77	63
68.7345	69.2729	59	43
68.7345	69.2729	62	43
68.9866	69.2729	67	53
69.243	69.7883	60	43
69.243	69.7883	69	53
69.4994	70.26	77	69
69.7515	70.26	59	43
69.7515	70.26	62	43
70.0036	70.26	67	53
70.26	70.7729	60	43
70.26	70.7729	69	53
70.5164	70.7729	77	69
70.7729	71.2946	62	43
70.7729	71.2946	65	43
70.7729	71.2946	72	54
71.2946	71.8163	64	43
71.2946	71.8163	67	43
71.2946	71.5555	71	53
71.5555	71.8163	70	53
71.8163	72.3325	65	46
71.8163	71.9468	69	48
72.0772	72.3325	69	54
72.3325	72.5879	70	60
72.5879	72.8432	72	64
72.8432	73.0985	73	75
73.0985	73.3538	50	54
73.0985	73.6091	74	70
73.3538	73.4815	62	61
73.6091	73.7368	60	53
73.6091	73.7368	76	70
73.7368	73.8634	78	67
73.8634	73.99	58	60
73.8634	73.99	79	70
73.99	74.1166	81	67
74.1166	74.3697	46	53
74.1166	74.2431	82	70
74.2431	74.3697	81	67
74.3697	74.4963	58	61
74.3697	74.4963	79	70
74.4963	74.6229	81	67
74.6229	74.7495	57	53
74.6229	74.7495	77	70
74.7495	74.8761	79	67
74.8761	75.1282	55	57
74.8761	75.0021	76	71
75.0021	75.1282	77	66
75.1282	75.3813	53	53
75.1282	75.2548	74	71
75.2548	75.3813	76	67
75.3813	75.6356	52	53
75.3813	75.5085	72	70
75.5085	75.6356	74	65
75.6356	75.8909	48	53
75.6356	75.7633	70	68
75.7633	75.8909	72	61
75.8909	76.4008	53	60
75.8909	76.0186	69	66
76.0186	76.1462	70	64
76.1462	76.2737	72	68
76.2737	76.4008	74	64
76.4008	76.9123	45	56
76.4008	76.528	76	71
76.528	76.6547	77	68
76.6547	76.7813	76	71
76.7813	76.9123	77	68
76.9123	77.4319	46	59
76.9123	77.4319	79	72
77.0384	77.4319	77	70
77.1644	77.4203	76	69
77.2905	77.4319	74	67
77.4203	77.9493	58	53
77.4203	77.9493	76	72
77.5469	77.9493	74	70
77.6735	77.9493	72	69
77.8001	77.9493	70	67
77.9267	79.0232	60	54
77.9267	78.4439	69	71
78.4439	79.0232	48	53
78.4439	79.0232	64	58
78.4439	78.5761	69	58
78.51	78.6422	67	51
78.5761	78.7082	69	58
78.6422	78.7743	67	52
78.7082	79.0232	69	58
78.7743	78.9065	67	53
78.8404	78.9725	65	66
78.9065	79.0232	67	62
78.9725	79.1047	53	53
78.9725	79.5012	65	75
79.1047	79.2369	60	46
79.2369	79.369	59	49
79.369	79.5012	60	46
79.5012	79.6333	62	53
79.6333	79.7655	60	46
79.7655	79.8976	59	49
79.8976	80.0298	60	46
80.0298	80.1619	58	53
80.1619	80.2941	60	50
80.2941	80.4262	57	53
80.4262	80.5584	58	49
80.5584	80.6905	55	53
80.6905	80.8227	60	50
80.8227	80.9548	53	53
80.9548	81.087	60	50
81.087	81.4783	52	48
81.087	81.4783	82	96
81.2174	81.4783	60	42
81.3479	81.4783	55	42
81.3479	81.4783	79	62
81.4783	81.6087	60	40
81.6087	81.7392	58	48
81.6087	81.7392	76	66
81.7392	81.8696	60	42
81.8696	82.0	58	42
81.8696	82.0	76	62
82.0	82.1305	60	41
82.1305	82.5533	52	47
82.1305	82.5533	82	96
82.2609	82.5218	60	43
82.3913	82.5533	58	43
82.3913	82.5533	79	59
82.5218	82.6522	60	42
82.6522	82.7826	58	48
82.6522	82.7826	76	63
82.7826	82.9131	60	42
82.9131	83.0435	58	42
82.9131	83.0435	76	60
83.0435	83.1739	60	42
83.1739	83.3022	57	44
83.1739	83.3022	77	62
83.3022	83.4304	60	45
83.4304	83.5586	52	45
83.4304	83.5586	79	63
83.5586	83.6868	60	45
83.6868	83.815	53	46
83.6868	83.815	81	64
83.815	83.9432	60	47
83.9432	84.0714	55	48
83.9432	84.0714	82	66
84.0714	84.2047	60	49
84.2047	84.3341	56	53
84.2047	84.4634	83	93
84.3341	84.4634	60	48
84.4634	84.5927	57	53
84.4634	84.722	84	75
84.5927	84.722	60	46
84.722	84.8513	56	53
84.722	84.9806	83	93
84.8513	84.9806	60	46
84.9806	85.1099	57	53
84.9806	85.2392	84	75
85.1099	85.2392	60	47
85.2392	85.624	52	48
85.2392	85.624	82	95
85.3697	85.624	60	38
85.5001	85.6305	55	42
85.5001	85.6305	79	62
85.6305	85.761	60	39
85.761	85.8914	58	48
85.761	85.8914	76	67
85.8914	86.0218	60	39
86.0218	86.1523	58	42
86.0218	86.1523	76	62
86.1523	86.2827	60	40
86.2827	86.6805	52	47
86.2827	86.6805	82	97
86.4131	86.674	60	41
86.5436	86.6805	58	43
86.5436	86.6805	79	59
86.674	86.8045	60	40
86.8045	86.9349	58	48
86.8045	86.9349	76	65
86.9349	87.0653	60	38
87.0653	87.1958	58	42
87.0653	87.1958	76	60
87.1958	87.3262	60	40
87.3262	87.4544	57	44
87.3262	87.4544	77	62
87.4544	87.5826	60	43
87.5826	87.7108	52	45
87.5826	87.7108	79	63
87.7108	87.839	60	45
87.839	87.9672	53	46
87.839	87.9672	81	64
87.9672	88.0955	60	45
88.0955	88.2237	55	48
88.0955	88.2237	82	66
88.2237	88.3564	60	47
88.3564	88.4863	56	53
88.3564	88.6162	83	93
88.4863	88.6162	60	48
88.6162	88.746	57	53
88.6162	88.8759	84	75
88.746	88.8759	60	46
88.8759	89.0058	56	53
88.8759	89.1356	83	93
89.0058	89.1356	60	46
89.1356	89.2655	57	53
89.1356	89.4234	84	75
89.2655	89.4234	60	47
89.4234	90.4624	74	78
89.4234	90.4624	86	78
89.6832	89.9429	58	36
89.9429	90.2026	57	38
90.2026	90.4624	58	36
90.4624	91.5014	64	64
90.4624	91.5014	76	64
90.7221	90.9819	60	34
90.9819	91.2416	59	38
91.2416	91.5014	60	33
91.5014	92.5403	70	71
91.5014	92.5403	82	71
91.7611	92.0209	61	34
92.0209	92.2806	59	36
92.2806	92.5403	61	34
92.5403	93.5793	69	66
92.5403	93.5793	81	66
92.8001	93.0598	62	38
93.0598	93.3196	61	40
93.3196	93.5793	62	38
93.5793	93.707	81	75
93.707	93.8346	79	68
93.8346	93.9623	82	72
93.9623	94.09	81	68
94.09	94.6006	58	54
94.09	94.6006	67	54
94.09	94.2176	84	74
94.2176	94.3453	82	72
94.3453	94.4729	81	71
94.4729	94.6006	79	69
94.6006	95.6869	60	54
94.6006	95.1339	69	54
94.6006	95.1339	77	72
95.1339	95.6869	70	45
95.1339	95.6869	76	63
95.6869	96.7193	65	34
95.6869	96.7193	69	40
95.9501	96.4629	77	45
96.2065	96.7813	76	49
96.4629	96.7813	77	45
96.7193	97.7494	65	30
96.7193	97.7494	69	36
96.9802	97.493	75	45
97.2366	97.7494	74	50
97.493	97.7494	75	46
97.7494	98.8103	54	30
97.7494	98.8103	57	30
97.7494	98.8103	60	36
98.0103	98.2769	74	54
98.2769	98.5436	86	67
98.5436	98.6769	86	63
98.8103	99.8495	55	30
98.8103	99.8495	58	36
99.0769	99.3344	86	61
99.3344	99.5919	74	51
99.5919	99.7207	74	47
99.8495	100.893	52	29
99.8495	100.893	55	29
99.8495	100.893	58	35
100.11	100.371	72	49
100.371	100.632	84	62
100.632	100.763	84	57
100.893	101.93	53	29
100.893	101.93	57	35
101.154	101.412	84	56
101.412	101.671	72	48
101.671	101.8	72	45
101.93	102.188	73	46
102.188	102.447	74	50
102.447	102.96	47	32
102.447	102.96	55	32
102.447	102.703	76	54
102.703	102.96	77	49
102.96	104.047	48	36
102.96	103.486	57	36
102.96	103.486	65	45
103.486	104.047	58	35
103.486	104.047	64	42
103.486	103.766	69	42
103.766	104.047	67	42
104.047	104.187	53	43
104.047	104.187	57	43
104.047	104.187	65	45
104.327	104.455	65	47
104.455	104.584	69	45
104.584	104.84	64	35
104.584	104.833	67	47
104.712	104.84	70	45
104.84	105.096	63	35
104.84	105.028	69	47
104.968	105.096	72	45
105.096	105.229	53	43
105.096	105.229	62	43
105.096	105.229	70	48
105.361	105.489	65	52
105.489	105.617	69	48
105.617	105.874	64	35
105.617	105.866	67	52
105.745	105.874	70	48
105.874	106.13	63	35
105.874	106.062	69	52
106.002	106.13	72	48
106.13	106.26	53	42
106.13	106.26	62	42
106.13	106.26	70	52
106.391	106.519	65	48
106.519	106.885	69	50
106.647	106.904	64	43
106.647	106.885	67	52
106.775	106.904	70	53
106.904	107.16	63	43
106.904	107.099	69	54
107.032	107.16	72	57
107.16	107.416	62	47
107.16	107.288	70	58
107.288	107.416	74	60
107.416	107.673	57	44
107.416	107.545	72	61
107.545	107.673	75	63
107.673	107.929	58	46
107.673	107.801	74	64
107.801	107.929	77	65
107.929	108.19	55	44
107.929	108.06	76	67
108.06	108.19	79	69
108.19	108.703	57	52
108.19	108.318	77	70
108.318	108.447	79	72
108.447	108.575	81	75
108.575	108.703	79	75
108.703	108.831	77	73
108.831	108.959	75	72
108.959	109.09	74	71
109.09	109.22	73	70
109.22	109.733	58	49
109.22	109.349	74	72
109.349	109.477	72	69
109.477	109.605	70	71
109.605	109.733	69	68
109.733	109.861	67	70
109.861	109.99	65	67
109.99	110.118	63	69
110.118	110.246	62	65
110.246	110.791	48	48
110.246	110.791	60	68
110.376	110.791	65	65
110.506	110.791	53	44
110.506	110.791	69	68
110.636	110.791	72	65
110.765	111.032	57	44
110.765	110.899	77	72
111.032	111.292	53	41
111.032	111.162	65	59
111.032	111.162	69	59
111.292	111.559	48	49
111.292	111.559	69	64
111.292	111.559	72	64
111.559	111.825	55	43
111.559	111.692	67	60
111.559	111.692	70	60
111.825	112.1	58	45
111.825	111.963	65	61
111.825	111.963	69	61
112.1	112.376	55	43
112.1	112.238	64	58
112.1	112.238	67	58
112.376	112.513	53	51
112.376	112.513	57	51
112.376	112.513	65	61
112.651	112.907	65	35
112.651	112.779	77	47
112.779	112.907	81	45
112.907	113.164	64	35
112.907	113.036	79	47
113.036	113.164	82	45
113.164	113.42	63	32
113.164	113.292	81	47
113.292	113.42	84	45
113.42	113.552	53	43
113.42	113.552	62	43
113.42	113.552	82	48
113.684	113.941	65	32
113.684	113.813	77	54
113.813	113.941	81	50
113.941	114.197	64	35
113.941	114.069	79	54
114.069	114.197	82	51
114.197	114.454	63	33
114.197	114.326	81	54
114.326	114.454	84	50
114.454	114.584	53	42
114.454	114.584	62	42
114.454	114.584	82	54
114.715	114.971	65	35
114.715	114.843	77	55
114.843	114.971	81	56
114.971	115.227	64	43
114.971	115.099	79	58
115.099	115.227	82	59
115.227	115.484	63	43
115.227	115.356	81	61
115.356	115.484	84	63
115.484	115.74	62	47
115.484	115.716	82	64
115.612	115.74	77	67
115.74	115.997	57	44
115.74	115.972	84	68
115.868	115.997	77	69
115.997	116.472	58	46
115.997	116.199	86	70
116.125	116.384	77	72
116.254	116.516	55	44
116.254	116.472	88	74
116.384	116.516	77	75
116.516	117.029	45	62
116.516	117.029	57	62
116.516	116.645	89	78
116.645	116.773	88	78
116.773	116.901	86	77
116.901	117.029	84	75
117.029	117.158	82	74
117.158	117.286	81	73
117.286	117.414	79	72
117.414	117.549	77	71
117.549	118.062	46	63
117.549	118.062	58	63
117.549	117.677	86	79
117.677	117.806	84	75
117.806	117.934	82	78
117.934	118.062	81	77
118.062	118.19	79	75
118.19	118.318	77	71
118.318	118.447	76	73
118.447	118.575	74	70
118.575	118.923	48	48
118.575	118.923	72	78
118.703	118.923	57	40
118.831	118.961	53	44
118.831	118.961	84	75
118.961	119.091	57	41
119.091	119.221	48	48
119.091	119.221	84	78
119.221	119.351	57	40
119.351	119.481	53	44
119.351	119.481	84	77
119.481	119.739	57	40
119.61	120.071	48	48
119.61	120.071	84	75
119.739	119.995	57	42
119.739	120.071	81	72
119.867	120.071	53	46
119.867	120.071	77	70
119.995	120.123	57	42
119.995	120.123	72	70
120.123	120.636	48	48
120.123	120.636	77	75
120.251	120.508	57	43
120.251	120.636	72	73
120.38	120.636	53	46
120.38	120.636	69	70
120.508	120.636	57	43
120.508	120.636	65	70
120.636	120.847	48	48
120.636	120.806	69	51
120.721	120.847	67	46
120.764	121.003	58	40
120.806	120.964	69	51
120.886	121.128	52	43
120.886	121.042	67	46
120.964	121.121	69	51
121.003	121.128	58	40
121.042	121.128	67	46
121.121	121.314	48	48
121.121	121.277	69	51
121.199	121.314	67	46
121.238	121.474	58	42
121.277	121.434	69	51
121.355	121.554	52	43
121.355	121.513	67	46
121.434	121.554	69	51
121.474	121.592	58	42
121.513	121.592	67	46
121.592	121.824	48	48
121.592	121.753	69	51
121.672	121.824	67	46
121.713	121.835	58	41
121.753	121.835	69	51
121.835	122.062	52	43
121.835	122.062	67	48
121.916	121.998	69	51
121.957	122.08	58	41
121.998	122.08	69	47
122.08	122.292	48	48
122.08	122.206	69	51
122.143	122.27	67	48
122.206	122.462	58	42
122.206	122.292	69	51
122.27	122.398	67	47
122.334	122.547	52	45
122.334	122.547	69	51
122.398	122.528	67	48
122.462	122.593	58	42
122.462	122.547	65	62
122.528	122.593	67	58
122.593	122.858	53	51
122.593	122.858	65	71
122.858	123.122	65	44
122.858	123.122	77	54
123.122	123.386	64	44
123.386	123.644	65	44
123.386	123.644	77	53
123.644	123.904	67	45
123.644	123.904	76	51
123.904	124.168	65	48
123.904	124.168	77	58
124.168	124.436	64	51
124.168	124.436	79	60
124.436	124.707	63	54
124.436	124.707	81	66
124.707	124.963	62	59
124.707	124.835	82	70
124.835	124.963	84	68
124.963	125.22	53	45
124.963	125.092	86	72
125.092	125.22	84	67
125.22	125.476	61	53
125.22	125.348	82	70
125.348	125.476	80	67
125.476	125.736	53	45
125.476	125.604	79	68
125.604	125.736	77	65
125.736	125.993	60	52
125.736	125.864	76	67
125.864	125.993	77	68
125.993	126.252	53	44
125.993	126.122	79	69
126.122	126.252	77	68
126.252	126.514	64	50
126.252	126.383	76	67
126.383	126.514	74	65
126.514	126.777	53	44
126.514	126.645	72	64
126.645	126.777	70	63
126.777	126.91	65	53
126.777	126.91	69	62
127.043	127.308	53	41
127.043	127.176	69	49
127.308	127.574	52	41
127.574	127.839	53	41
127.574	127.839	65	53
127.839	128.106	55	45
127.839	128.106	64	49
128.106	128.377	53	43
128.106	128.377	65	49
128.377	128.653	52	43
128.377	128.653	67	49
128.653	128.932	51	43
128.653	128.932	69	49
128.932	129.498	50	45
128.932	129.074	70	52
129.215	129.286	72	52
129.286	129.357	70	49
129.357	129.428	69	52
129.428	129.498	70	49
129.498	130.091	46	35
129.498	130.086	72	58
129.782	130.091	74	59
130.091	130.685	48	35
130.091	130.619	70	50
130.091	130.619	74	50
130.388	130.685	69	46
130.388	130.685	72	46
130.685	131.281	48	35
130.973	131.281	58	33
130.973	131.281	64	33
131.281	132.682	53	37
131.281	132.682	58	45
131.281	132.682	67	45
131.933	132.682	48	28
132.66	133.206	41	28
132.66	133.206	57	34
132.66	133.206	65	34
133.697	133.826	79	57
133.826	133.954	77	56
133.954	134.082	75	54
134.082	134.21	74	52
134.21	136.287	72	60
134.47	135.509	58	37
134.47	134.73	70	54
134.73	135.249	62	37
134.73	136.287	70	51
134.989	136.287	65	33
135.249	135.765	62	38
135.509	136.287	58	33
135.509	136.022	74	57
135.765	136.287	62	41
135.765	136.287	79	60
136.022	136.287	67	38
136.022	136.287	74	55
136.287	137.586	77	60
136.547	137.586	60	34
136.807	137.326	63	39
136.807	137.797	75	56
137.066	137.797	67	36
137.326	137.797	63	44
137.586	137.842	60	37
137.586	137.797	77	60
137.714	137.842	79	56
137.842	138.355	63	38
137.842	138.355	77	61
137.971	138.355	75	54
138.099	138.355	67	34
138.099	138.355	74	58
138.227	138.355	72	53
138.355	138.876	70	66
138.612	138.876	53	35
138.876	139.389	60	35
138.876	139.645	69	57
139.132	140.162	63	34
139.389	139.905	60	47
139.645	140.433	53	36
139.645	140.433	69	62
139.905	140.433	60	43
139.905	140.433	70	65
140.162	140.433	63	36
140.162	140.433	72	61
140.433	140.957	69	52
140.433	140.957	72	61
140.695	140.957	58	42
140.957	141.481	62	42
140.957	141.743	70	49
140.957	141.743	74	58
141.219	141.743	65	36
141.481	141.743	62	45
141.743	142.502	58	42
141.743	142.121	77	64
141.868	142.502	76	63
141.994	142.502	62	42
141.994	142.502	79	66
142.121	142.502	77	63
142.248	142.502	65	39
142.248	142.502	75	63
142.375	142.502	74	61
142.502	143.541	63	45
142.502	143.541	74	68
142.763	143.541	67	37
142.763	143.541	72	61
143.024	143.541	62	40
143.285	143.541	65	35
143.285	143.541	70	61
143.541	144.324	63	45
143.541	144.58	74	67
143.802	144.58	67	35
143.802	144.58	72	62
144.063	144.58	60	38
144.324	144.58	63	32
144.324	144.58	69	64
144.58	145.091	62	42
144.58	145.091	65	42
144.58	144.708	70	68
144.708	144.836	72	59
144.836	144.963	70	62
144.963	145.091	69	58
145.091	145.219	70	66
145.219	145.346	72	60
145.346	145.474	74	63
145.474	145.601	75	61
145.601	145.728	76	69
145.728	145.855	77	65
145.855	145.982	76	69
145.982	146.116	77	65
146.116	146.242	79	69
146.242	146.368	77	67
146.368	146.494	75	66
146.494	146.628	74	65
146.628	147.214	63	47
146.628	147.214	74	72
146.883	147.214	67	36
146.883	147.138	72	54
147.138	147.694	62	40
147.138	147.694	72	56
147.394	147.694	65	33
147.394	147.694	70	54
147.649	148.19	63	47
147.649	148.19	74	65
147.904	148.19	67	37
147.904	148.16	72	54
148.16	148.67	60	39
148.16	148.67	72	57
148.415	148.67	63	32
148.415	148.67	69	53
148.67	149.181	62	47
148.67	149.181	65	47
148.67	148.926	70	66
148.926	149.053	72	57
149.053	149.181	74	58
149.181	149.309	75	59
149.309	149.436	77	60
149.436	149.564	79	61
149.564	149.692	81	64
149.692	149.819	82	66
149.819	149.947	84	67
149.947	150.074	86	68
150.074	150.202	87	69
150.202	150.329	89	76
150.455	150.582	89	75
150.709	151.226	57	61
150.709	151.995	77	76
150.709	151.203	89	76
150.967	151.634	87	74
151.226	151.74	58	55
151.484	151.74	86	73
151.74	152.25	51	63
151.74	151.995	86	75
151.995	152.123	75	64
151.995	152.123	84	64
152.25	152.781	53	57
152.25	152.378	74	72
152.25	152.378	82	72
152.507	152.644	72	64
152.507	152.644	81	64
152.781	153.043	74	76
152.781	153.043	82	76
153.043	153.174	46	52
153.307	153.441	50	55
153.307	153.578	70	72
153.578	153.716	53	50
153.858	154.429	58	61
154.429	154.557	67	52
154.557	154.685	65	49
154.685	154.814	63	52
154.814	154.942	62	50
154.942	155.203	60	56
155.203	156.246	46	34
155.203	155.464	58	53
155.464	155.985	50	37
155.464	157.053	58	53
155.725	156.775	53	35
155.985	156.511	50	43
156.246	157.053	46	39
156.246	157.053	70	63
156.511	157.053	50	39
156.511	157.053	69	58
156.775	157.053	53	35
156.775	157.053	67	56
157.053	158.132	65	64
157.317	158.132	48	36
157.581	158.11	55	39
157.581	159.136	64	51
157.846	158.132	58	35
158.11	158.623	55	42
158.238	158.623	67	52
158.366	159.136	48	34
158.366	159.136	65	56
158.495	158.879	69	52
158.623	159.136	55	38
158.623	159.136	67	56
158.751	159.136	70	53
158.879	159.136	58	34
158.879	159.136	69	56
159.007	159.136	72	53
159.136	160.091	70	56
159.263	160.091	67	58
159.39	160.091	52	39
159.39	159.767	76	61
159.516	160.091	72	62
159.642	160.091	55	43
159.642	160.091	79	64
159.767	160.091	76	67
159.891	160.138	60	46
159.891	160.091	82	70
160.014	160.138	81	69
160.138	160.635	55	49
160.138	161.143	82	71
160.261	161.143	81	67
160.385	161.143	52	47
160.385	161.143	79	69
160.51	161.143	77	65
160.635	161.143	55	50
160.635	161.143	76	66
160.761	161.143	74	65
160.888	161.143	60	54
160.888	161.143	72	64
161.015	161.143	70	63
161.143	161.682	70	69
161.274	161.682	69	56
161.41	161.682	53	42
161.41	161.682	74	64
161.542	161.675	72	54
161.675	162.203	57	41
161.675	162.724	72	54
161.939	162.724	60	34
162.203	162.724	57	37
162.467	162.732	53	34
162.732	162.988	57	36
162.732	162.86	86	69
162.86	162.988	84	66
162.988	163.245	60	32
162.988	163.116	82	69
163.116	163.245	81	66
163.245	163.764	58	47
163.245	164.317	79	72
163.504	164.024	60	32
163.764	164.317	58	37
164.024	164.317	60	31
164.024	164.317	76	63
164.284	164.792	57	50
164.284	165.368	77	66
164.409	164.664	84	70
164.536	165.047	60	41
164.536	165.368	83	70
164.664	164.919	84	67
164.792	165.368	57	44
164.792	165.368	86	73
164.919	165.368	84	68
165.047	165.368	60	41
165.047	165.368	82	71
165.175	165.368	81	68
165.302	165.827	58	49
165.302	165.567	79	81
165.567	166.088	60	36
165.567	166.326	79	75
165.827	166.326	58	42
166.088	166.349	60	36
166.088	166.349	76	64
166.349	166.858	57	53
166.349	167.395	77	63
166.475	166.73	84	70
166.602	167.113	60	45
166.602	167.395	83	69
166.73	166.985	84	68
166.858	167.395	57	46
166.858	167.395	86	75
166.985	167.395	84	69
167.113	167.395	60	44
167.113	167.395	82	71
167.241	167.368	81	67
167.368	167.84	58	51
167.368	167.84	81	73
167.629	167.89	62	46
167.629	167.89	79	70
167.89	168.151	58	51
168.151	168.412	62	46
168.151	168.412	79	72
168.412	168.922	59	50
168.412	168.922	79	78
168.673	168.934	62	46
168.673	168.934	77	72
168.934	169.186	59	52
169.186	169.44	62	48
169.186	169.44	77	72
169.44	169.968	60	59
169.44	169.692	76	73
169.566	169.944	77	66
169.692	169.968	76	68
169.818	169.968	72	65
169.944	170.448	62	61
169.944	170.196	77	75
170.07	170.43	79	68
170.196	170.43	77	68
170.322	170.448	72	65
170.448	170.952	64	63
170.448	170.7	79	80
170.574	170.91	81	68
170.7	170.91	79	72
170.826	170.952	72	67
170.952	171.461	65	65
170.952	171.207	81	81
171.08	171.376	82	74
171.207	171.376	81	76
171.334	171.461	72	69
171.461	171.721	67	65
171.461	171.591	82	85
171.721	171.98	72	53
171.721	171.851	82	83
171.98	172.24	64	60
172.24	172.498	72	53
172.24	172.369	79	77
172.498	172.755	65	59
172.498	172.755	82	81
172.755	173.013	72	50
172.755	172.884	81	71
173.013	173.27	62	56
173.013	173.141	79	76
173.27	173.528	72	52
173.27	173.399	77	73
173.528	174.058	60	60
173.528	174.058	76	78
173.654	174.058	72	72
173.781	174.058	83	72
173.908	174.058	84	68
174.034	174.547	62	62
174.034	174.547	77	80
174.161	174.547	72	73
174.287	174.547	83	73
174.414	174.547	84	69
174.54	175.047	64	65
174.54	174.998	79	81
174.667	174.998	72	76
174.794	174.998	83	76
174.92	175.047	84	73
175.047	175.553	65	68
175.047	175.48	81	84
175.173	175.48	72	76
175.3	175.48	83	76
175.427	175.553	84	75
175.553	175.684	67	66
175.553	175.684	82	89
175.684	175.814	72	44
175.814	175.944	71	47
175.814	175.944	82	84
175.944	176.075	72	44
176.075	176.205	64	57
176.205	176.336	72	45
176.336	176.563	71	48
176.336	176.563	81	69
176.401	176.531	79	66
176.466	176.597	72	44
176.466	176.563	78	69
176.531	176.597	79	67
176.597	176.727	65	57
176.597	176.857	82	79
176.727	176.857	72	44
176.857	176.988	71	46
176.857	176.988	81	76
176.988	177.118	72	44
177.118	177.249	62	56
177.118	177.249	79	76
177.249	177.379	71	45
177.379	177.51	69	45
177.379	177.51	77	75
177.51	178.655	71	43
177.64	178.518	60	56
177.64	178.139	72	56
177.64	178.014	76	79
177.764	178.655	84	71
177.888	178.655	79	72
178.014	178.655	76	70
178.139	178.655	72	76
178.265	178.655	67	69
178.39	178.655	64	71
178.518	178.655	60	70
178.648	178.914	36	73
178.648	178.914	48	73
179.71	180.736	41	66
179.71	180.736	53	66
179.71	180.48	60	70
179.71	180.48	65	70
179.71	180.48	69	70
179.71	180.48	72	70
180.48	180.608	74	48
180.608	180.736	72	48
180.736	180.864	70	52
180.992	181.121	69	48
181.249	181.377	67	48
181.505	181.633	65	48
181.762	182.3	65	54
182.022	182.3	74	50
182.3	183.341	46	68
182.3	183.341	58	68
182.3	183.084	65	72
182.3	183.084	74	72
183.084	183.341	72	53
183.341	183.854	57	44
183.341	183.597	76	56
183.597	183.854	77	53
183.854	184.362	59	38
183.854	184.362	62	38
183.854	184.347	77	61
184.106	184.89	67	53
184.362	184.89	60	38
184.618	184.89	69	53
184.875	185.383	59	38
184.875	185.383	62	38
184.875	185.368	77	61
185.127	185.896	67	53
185.383	185.896	60	40
185.64	185.896	69	53
185.896	186.971	62	39
185.896	186.416	72	58
186.416	186.971	64	35
186.416	186.545	72	52
186.48	186.61	70	48
186.545	186.674	72	52
186.61	186.739	70	48
186.674	186.971	72	52
186.739	186.868	70	48
186.804	186.933	69	52
186.868	186.971	70	49
186.933	187.448	65	35
186.933	187.062	69	57
187.192	187.448	69	53
187.448	187.704	70	56
187.704	187.961	72	53
187.961	188.222	73	65
188.222	188.928	46	45
188.222	188.928	74	54
188.478	188.928	50	46
188.734	188.988	55	45
188.734	188.928	72	54
188.861	188.988	70	50
188.988	189.5	58	52
188.988	189.244	69	54
189.244	189.5	67	53
189.5	189.757	69	54
189.757	190.013	70	52
190.013	190.275	74	63
190.275	190.99	45	44
190.275	190.99	72	53
190.532	190.99	48	44
190.788	191.042	53	42
190.788	190.99	70	54
190.915	191.042	69	52
191.042	191.555	57	52
191.042	191.299	67	56
191.299	191.555	65	54
191.555	191.812	67	54
191.812	192.068	69	54
192.068	193.084	55	44
192.068	193.084	72	63
192.33	193.084	70	51
192.586	193.099	52	41
192.843	193.099	67	51
193.099	194.127	53	43
193.099	194.127	70	62
193.361	194.127	69	52
193.616	194.127	50	42
193.872	194.127	65	52
194.127	194.631	48	44
194.127	194.253	64	61
194.253	194.379	65	53
194.379	194.505	64	53
194.505	194.631	65	50
194.631	194.759	71	59
194.759	194.887	72	54
194.887	195.014	71	54
195.014	195.142	72	51
195.142	195.27	48	53
195.142	195.653	60	56
195.27	195.397	50	49
195.397	195.525	46	54
195.525	195.653	48	49
195.653	195.78	45	54
195.78	195.91	46	49
195.91	196.041	43	56
196.041	196.173	45	49
196.173	196.842	41	66
196.173	196.933	69	71
196.173	196.933	72	71
196.678	197.188	53	46
196.933	197.06	74	51
197.06	197.188	72	51
197.188	197.316	70	57
197.443	197.571	69	50
197.699	197.826	67	50
197.954	198.082	65	50
198.209	198.743	65	54
198.47	198.743	74	50
198.743	199.775	46	59
198.743	199.775	58	59
198.743	199.519	65	71
198.743	199.519	74	71
199.519	199.775	72	53
199.775	200.284	57	43
199.775	200.032	76	66
200.032	200.822	77	63
200.284	200.822	59	43
200.284	200.822	62	43
200.536	200.822	67	53
200.792	201.338	60	43
200.792	201.338	69	53
201.049	201.809	77	69
201.301	201.809	59	43
201.301	201.809	62	43
201.553	201.809	67	53
201.809	202.322	60	43
201.809	202.322	69	53
202.066	202.322	77	69
202.322	202.844	62	43
202.322	202.844	65	43
202.322	202.844	72	54
202.844	203.366	64	43
202.844	203.366	67	43
202.844	203.105	71	53
203.105	203.366	70	53
203.366	203.882	65	46
203.366	203.496	69	48
203.627	203.882	69	54
203.882	204.137	70	60
204.137	204.393	72	64
204.393	204.648	73	75
204.648	204.903	50	54
204.648	205.152	74	70
204.903	205.028	62	61
205.152	205.277	60	53
205.152	205.277	76	70
205.277	205.403	78	67
205.403	205.528	58	60
205.403	205.528	79	70
205.528	205.653	81	67
205.653	205.903	46	53
205.653	205.778	82	70
205.778	205.903	81	67
205.903	206.03	58	61
205.903	206.03	79	70
206.03	206.156	81	67
206.156	206.283	57	53
206.156	206.283	77	70
206.283	206.41	79	67
206.41	206.662	55	57
206.41	206.536	76	71
206.536	206.662	77	66
206.662	206.915	53	53
206.662	206.788	74	71
206.788	206.915	76	67
206.915	207.169	52	53
206.915	207.042	72	70
207.042	207.169	74	65
207.169	207.424	48	53
207.169	207.297	70	68
207.297	207.424	72	61
207.424	207.934	53	60
207.424	207.552	69	66
207.552	207.68	70	64
207.68	207.807	72	68
207.807	207.934	74	64
207.934	208.446	45	56
207.934	208.062	76	71
208.062	208.188	77	68
208.188	208.315	76	71
208.315	208.446	77	68
208.446	208.965	46	59
208.446	208.965	79	72
208.572	208.965	77	70
208.698	208.954	76	69
208.824	208.965	74	67
208.954	209.483	58	53
208.954	209.483	76	72
209.08	209.483	74	70
209.207	209.483	72	69
209.334	209.483	70	67
209.46	210.557	60	54
209.46	209.977	69	71
209.977	210.557	48	53
209.977	210.557	64	58
209.977	210.11	69	58
210.044	210.176	67	51
210.11	210.242	69	58
210.176	210.308	67	52
210.242	210.557	69	58
210.308	210.44	67	53
210.374	210.506	65	66
210.44	210.557	67	62
210.506	210.638	53	53
210.506	211.034	65	75
210.638	210.77	60	46
210.77	210.902	59	49
210.902	211.034	60	46
211.034	211.165	62	53
211.165	211.296	60	46
211.296	211.427	59	49
211.427	211.557	60	46
211.557	211.687	58	53
211.687	211.817	60	50
211.817	211.947	57	53
211.947	212.077	58	49
212.077	212.208	55	53
212.208	212.339	60	50
212.339	212.47	53	53
212.47	212.601	60	50
212.601	212.993	52	48
212.601	212.993	82	96
212.732	212.993	60	42
212.862	212.993	55	42
212.862	212.993	79	62
212.993	213.123	60	40
213.123	213.253	58	48
213.123	213.253	76	66
213.253	213.384	60	42
213.384	213.514	58	42
213.384	213.514	76	62
213.514	213.645	60	41
213.645	214.068	52	47
213.645	214.068	82	96
213.775	214.036	60	43
213.906	214.068	58	43
213.906	214.068	79	59
214.036	214.166	60	42
214.166	214.297	58	48
214.166	214.297	76	63
214.297	214.427	60	42
214.427	214.558	58	42
214.427	214.558	76	60
214.558	214.688	60	42
214.688	214.816	57	44
214.688	214.816	77	62
214.816	214.945	60	45
214.945	215.073	52	45
214.945	215.073	79	63
215.073	215.201	60	45
215.201	215.329	53	46
215.201	215.329	81	64
215.329	215.457	60	47
215.457	215.586	55	48
215.457	215.586	82	66
215.586	215.719	60	49
215.719	215.848	56	53
215.719	215.978	83	93
215.848	215.978	60	48
215.978	216.107	57	53
215.978	216.236	84	75
216.107	216.236	60	46
216.236	216.366	56	53
216.236	216.495	83	93
216.366	216.495	60	46
216.495	216.624	57	53
216.495	216.754	84	75
216.624	216.754	60	47
216.754	217.138	52	48
216.754	217.138	82	95
216.884	217.138	60	38
217.014	217.145	55	42
217.014	217.145	79	62
217.145	217.275	60	39
217.275	217.406	58	48
217.275	217.406	76	67
217.406	217.536	60	39
217.536	217.667	58	42
217.536	217.667	76	62
217.667	217.797	60	40
217.797	218.195	52	47
217.797	218.195	82	97
217.927	218.188	60	41
218.058	218.195	58	43
218.058	218.195	79	59
218.188	218.319	60	40
218.319	218.449	58	48
218.319	218.449	76	65
218.449	218.58	60	38
218.58	218.71	58	42
218.58	218.71	76	60
218.71	218.84	60	40
218.84	218.969	57	44
218.84	218.969	77	62
218.969	219.097	60	43
219.097	219.225	52	45
219.097	219.225	79	63
219.225	219.353	60	45
219.353	219.482	53	46
219.353	219.482	81	64
219.482	219.61	60	45
219.61	219.738	55	48
219.61	219.738	82	66
219.738	219.871	60	47
219.871	220.001	56	53
219.871	220.13	83	93
220.001	220.13	60	48
220.13	220.26	57	53
220.13	220.39	84	75
220.26	220.39	60	46
220.39	220.52	56	53
220.39	220.65	83	93
220.52	220.65	60	46
220.65	220.78	57	53
220.65	220.938	84	75
220.78	220.938	60	47
220.938	221.972	74	78
220.938	221.972	86	78
221.193	221.453	58	36
221.453	221.712	57	38
221.712	221.972	58	36
221.972	223.007	64	64
221.972	223.007	76	64
222.228	222.487	60	34
222.487	222.747	59	38
222.747	223.007	60	33
223.007	224.042	70	71
223.007	224.042	82	71
223.263	223.523	61	34
223.523	223.783	59	36
223.783	224.042	61	34
224.042	225.078	69	66
224.042	225.078	81	66
224.299	224.559	62	38
224.559	224.818	61	40
224.818	225.078	62	38
225.078	225.206	81	75
225.206	225.333	79	68
225.333	225.459	82	72
225.459	225.584	81	68
225.584	226.095	58	54
225.584	226.095	67	54
225.584	225.712	84	74
225.712	225.84	82	72
225.84	225.967	81	71
225.967	226.095	79	69
226.095	227.181	60	54
226.095	226.628	69	54
226.095	226.628	77	72
226.628	227.181	70	45
226.628	227.181	76	63
227.181	228.206	65	34
227.181	228.206	69	40
227.437	227.95	77	45
227.693	228.266	76	49
227.95	228.266	77	45
228.206	229.229	65	30
228.206	229.229	69	36
228.46	228.973	75	45
228.717	229.229	74	50
228.973	229.229	75	46
229.229	230.29	54	30
229.229	230.29	57	30
229.229	230.29	60	36
229.49	229.757	74	54
229.757	230.024	86	67
230.024	230.157	86	63
230.29	231.329	55	30
230.29	231.329	58	36
230.557	230.814	86	61
230.814	231.072	74	51
231.072	231.201	74	47
231.329	232.367	52	29
231.329	232.367	55	29
231.329	232.367	58	35
231.585	231.846	72	49
231.846	232.107	84	62
232.107	232.237	84	57
232.367	233.4	53	29
232.367	233.4	57	35
232.624	232.882	84	56
232.882	233.141	72	48
233.141	233.27	72	45
233.4	233.658	73	46
233.658	233.917	74	50
233.917	234.43	47	32
233.917	234.43	55	32
233.917	234.173	76	54
234.173	234.43	77	49
234.43	235.517	48	36
234.43	234.956	57	36
234.43	234.956	65	45
234.956	235.517	58	35
234.956	235.517	64	42
234.956	235.236	69	42
235.236	235.517	67	42
235.517	235.657	53	43
235.517	235.657	57	43
235.517	235.657	65	45
235.797	235.925	65	47
235.925	236.054	69	45
236.054	236.308	64	35
236.054	236.3	67	47
236.181	236.308	70	45
236.308	236.562	63	35
236.308	236.494	69	47
236.435	236.562	72	45
236.562	236.694	53	43
236.562	236.694	62	43
236.562	236.694	70	48
236.826	236.955	65	52
236.955	237.083	69	48
237.083	237.337	64	35
237.083	237.33	67	52
237.21	237.337	70	48
237.337	237.591	63	35
237.337	237.523	69	52
237.464	237.591	72	48
237.591	237.722	53	42
237.591	237.722	62	42
237.591	237.722	70	52
237.852	237.98	65	48
237.98	238.345	69	50
238.109	238.363	64	43
238.109	238.345	67	52
238.236	238.363	70	53
238.363	238.617	63	43
238.363	238.557	69	54
238.49	238.617	72	57
238.617	238.873	62	47
238.617	238.745	70	58
238.745	238.873	74	60
238.873	239.13	57	44
238.873	239.002	72	61
239.002	239.13	75	63
239.13	239.386	58	46
239.13	239.258	74	64
239.258	239.386	77	65
239.386	239.647	55	44
239.386	239.517	76	67
239.517	239.647	79	69
239.647	240.16	57	52
239.647	239.775	77	70
239.775	239.904	79	72
239.904	240.032	81	75
240.032	240.16	79	75
240.16	240.288	77	73
240.288	240.416	75	72
240.416	240.547	74	71
240.547	240.677	73	70
240.677	241.19	58	49
240.677	240.806	74	72
240.806	240.934	72	69
240.934	241.062	70	71
241.062	241.19	69	68
241.19	241.318	67	70
241.318	241.447	65	67
241.447	241.575	63	69
241.575	241.703	62	65
241.703	242.243	48	48
241.703	242.243	60	68
241.832	242.243	65	65
241.961	242.243	53	44
241.961	242.243	69	68
242.089	242.243	72	65
242.217	242.484	57	44
242.217	242.35	77	72
242.484	242.743	53	41
242.484	242.614	65	59
242.484	242.614	69	59
242.743	243.01	48	49
242.743	243.01	69	64
242.743	243.01	72	64
243.01	243.277	55	43
243.01	243.144	67	60
243.01	243.144	70	60
243.277	243.552	58	45
243.277	243.414	65	61
243.277	243.414	69	61
243.552	243.827	55	43
243.552	243.69	64	58
243.552	243.69	67	58
243.827	243.954	53	51
243.827	243.954	57	51
243.827	243.954	65	61
244.08	244.337	65	35
244.08	244.209	77	47
244.209	244.337	81	45
244.337	244.593	64	35
244.337	244.465	79	47
244.465	244.593	82	45
244.593	244.85	63	32
244.593	244.722	81	47
244.722	244.85	84	45
244.85	244.98	53	43
244.85	244.98	62	43
244.85	244.98	82	48
245.111	245.367	65	32
245.111	245.239	77	54
245.239	245.367	81	50
245.367	245.623	64	35
245.367	245.495	79	54
245.495	245.623	82	51
245.623	245.88	63	33
245.623	245.752	81	54
245.752	245.88	84	50
245.88	246.006	53	42
245.88	246.006	62	42
245.88	246.006	82	54
246.133	246.389	65	35
246.133	246.261	77	55
246.261	246.389	81	56
246.389	246.646	64	43
246.389	246.518	79	58
246.518	246.646	82	59
246.646	246.902	63	43
246.646	246.774	81	61
246.774	246.902	84	63
246.902	247.159	62	47
246.902	247.134	82	64
247.03	247.159	77	67
247.159	247.415	57	44
247.159	247.391	84	68
247.287	247.415	77	69
247.415	247.891	58	46
247.415	247.617	86	70
247.543	247.802	77	72
247.672	247.935	55	44
247.672	247.891	88	74
247.802	247.935	77	75
247.935	248.448	45	62
247.935	248.448	57	62
247.935	248.063	89	78
248.063	248.191	88	78
248.191	248.32	86	77
248.32	248.448	84	75
248.448	248.576	82	74
248.576	248.704	81	73
248.704	248.832	79	72
248.832	248.968	77	71
248.968	249.48	46	63
248.968	249.48	58	63
248.968	249.096	86	79
249.096	249.224	84	75
249.224	249.352	82	78
249.352	249.48	81	77
249.48	249.609	79	75
249.609	249.737	77	71
249.737	249.865	76	73
249.865	249.993	74	70
249.993	250.339	48	48
249.993	250.339	72	78
250.12	250.339	57	40
250.247	250.377	53	44
250.247	250.377	84	75
250.377	250.507	57	41
250.507	250.637	48	48
250.507	250.637	84	78
250.637	250.767	57	40
250.767	250.897	53	44
250.767	250.897	84	77
250.897	251.155	57	40
251.027	251.487	48	48
251.027	251.487	84	75
251.155	251.411	57	42
251.155	251.487	81	72
251.283	251.487	53	46
251.283	251.487	77	70
251.411	251.54	57	42
251.411	251.54	72	70
251.54	252.052	48	48
251.54	252.052	77	75
251.668	251.924	57	43
251.668	252.052	72	73
251.796	252.052	53	46
251.796	252.052	69	70
251.924	252.052	57	43
251.924	252.052	65	70
252.052	252.258	48	48
252.052	252.217	69	51
252.137	252.258	67	46
252.177	252.413	58	40
252.217	252.374	69	51
252.296	252.536	52	43
252.296	252.452	67	46
252.374	252.53	69	51
252.413	252.536	58	40
252.452	252.536	67	46
252.53	252.723	48	48
252.53	252.686	69	51
252.607	252.723	67	46
252.646	252.883	58	42
252.686	252.843	69	51
252.765	252.963	52	43
252.765	252.923	67	46
252.843	252.963	69	51
252.883	253.003	58	42
252.923	253.003	67	46
253.003	253.241	48	48
253.003	253.168	69	51
253.084	253.241	67	46
253.126	253.253	58	41
253.168	253.253	69	51
253.253	253.491	52	43
253.253	253.491	67	48
253.339	253.425	69	51
253.381	253.511	58	41
253.425	253.511	69	47
253.511	253.729	48	48
253.511	253.641	69	51
253.576	253.706	67	48
253.641	253.902	58	42
253.641	253.729	69	51
253.706	253.837	67	47
253.771	253.988	52	45
253.771	253.988	69	51
253.837	253.968	67	48
253.902	254.034	58	42
253.902	253.988	65	62
253.968	254.034	67	58
254.034	254.298	53	51
254.034	254.298	65	71
254.298	254.562	65	44
254.298	254.562	77	54
254.562	254.827	64	44
254.827	255.084	65	44
254.827	255.084	77	53
255.084	255.345	67	45
255.084	255.345	76	51
255.345	255.609	65	48
255.345	255.609	77	58
255.609	255.876	64	51
255.609	255.876	79	60
255.876	256.147	63	54
255.876	256.147	81	66
256.147	256.404	62	59
256.147	256.276	82	70
256.276	256.404	84	68
256.404	256.66	53	45
256.404	256.532	86	72
256.532	256.66	84	67
256.66	256.917	61	53
256.66	256.788	82	70
256.788	256.917	80	67
256.917	257.176	53	45
256.917	257.045	79	68
257.045	257.176	77	65
257.176	257.433	60	52
257.176	257.305	76	67
257.305	257.433	77	68
257.433	257.693	53	44
257.433	257.563	79	69
257.563	257.693	77	68
257.693	257.954	64	50
257.693	257.823	76	67
257.823	257.954	74	65
257.954	258.218	53	44
257.954	258.086	72	64
258.086	258.218	70	63
258.218	258.35	65	53
258.218	258.35	69	62
258.483	258.749	53	41
258.483	258.616	69	49
258.749	259.014	52	41
259.014	259.28	53	41
259.014	259.28	65	53
259.28	259.546	55	45
259.28	259.546	64	49
259.546	259.817	53	43
259.546	259.817	65	49
259.817	260.093	52	43
259.817	260.093	67	49
260.093	260.373	51	43
260.093	260.373	69	49
260.373	260.939	50	45
260.373	260.514	70	52
260.656	260.727	72	52
260.727	260.797	70	49
260.797	260.868	69	52
260.868	260.939	70	49
260.939	261.531	46	35
260.939	261.526	72	58
261.222	261.531	74	59
261.531	262.116	48	35
261.531	262.052	70	50
261.531	262.052	74	50
261.824	262.116	69	46
261.824	262.116	72	46
262.116	262.721	48	35
262.405	262.721	58	33
262.405	262.721	64	33
262.721	264.121	53	37
262.721	264.121	58	45
262.721	264.121	67	45
263.373	264.121	48	28
264.1	264.646	41	28
264.1	264.646	57	34
264.1	264.646	65	34
265.137	265.265	74	47
265.265	265.394	72	45
265.394	265.522	70	47
265.522	265.65	69	45
265.65	266.921	67	52
265.911	266.921	41	33
265.911	266.172	65	47
266.172	266.693	45	35
266.172	266.954	65	47
266.433	266.921	48	33
266.693	266.954	45	38
266.954	267.211	41	32
266.954	267.211	77	52
267.211	267.467	45	34
267.211	267.467	79	57
267.467	267.724	48	32
267.467	267.724	81	61
267.659	267.724	76	55
267.724	269.327	82	69
267.983	269.022	55	32
268.113	269.327	79	64
268.243	268.762	58	35
268.243	269.327	76	56
268.503	269.327	64	33
268.762	269.282	58	34
269.022	269.327	55	30
269.282	269.538	58	34
269.282	269.41	72	48
269.41	269.538	70	48
269.538	269.795	64	30
269.538	269.667	69	48
269.667	269.795	67	46
269.795	270.056	65	53
270.056	271.071	43	32
270.056	270.317	64	47
270.317	270.838	46	35
270.317	271.099	64	47
270.577	271.071	52	32
270.838	271.099	46	39
271.099	271.357	43	33
271.099	271.357	79	53
271.357	271.614	46	35
271.357	271.614	81	58
271.614	271.872	52	33
271.614	271.872	82	63
271.807	271.872	78	52
271.872	273.206	84	68
272.133	273.176	57	33
272.263	273.176	81	65
272.393	272.915	60	35
272.393	273.206	78	57
272.654	273.206	63	34
272.915	273.206	60	37
273.176	273.432	57	32
273.176	273.432	81	60
273.432	273.689	60	34
273.432	273.689	82	64
273.689	273.957	63	34
273.689	273.957	84	69
273.89	273.957	79	66
273.957	274.784	86	84
274.218	274.784	46	41
274.348	274.784	82	77
274.478	274.784	50	47
274.478	274.784	79	72
274.739	275.01	55	44
274.942	275.01	76	71
275.01	276.06	82	85
275.271	276.06	48	46
275.401	276.06	79	76
275.531	276.06	55	49
275.531	276.06	76	72
275.792	276.06	58	46
275.993	276.06	71	68
276.06	278.156	77	79
276.321	277.374	50	48
276.451	278.156	74	73
276.582	277.104	53	50
276.582	277.374	71	69
276.843	277.896	56	45
277.104	277.635	53	52
277.374	278.156	50	49
277.374	277.635	71	68
277.635	278.156	53	53
277.635	277.896	71	69
277.896	278.156	56	50
277.896	278.156	71	67
278.156	279.182	48	63
278.156	279.182	57	63
278.156	278.541	72	76
278.285	278.718	81	69
278.413	278.718	77	72
278.541	278.718	72	70
278.669	279.054	69	76
278.798	279.139	77	70
278.926	279.139	72	72
279.054	279.182	69	67
279.182	279.73	60	48
279.182	279.6	69	61
279.182	279.6	72	72
279.456	279.73	67	53
279.456	279.73	70	63
279.73	280.291	48	45
279.73	279.87	65	51
279.73	279.87	69	61
280.01	280.151	64	49
280.01	280.151	67	58
280.291	280.794	53	41
280.291	280.813	65	54
280.421	280.682	60	34
280.552	280.794	56	37
280.682	280.813	60	34
280.813	281.328	53	41
280.943	281.204	60	34
281.073	281.328	56	37
281.204	281.334	60	34
281.334	281.831	53	46
281.465	281.726	60	36
281.465	281.831	65	54
281.595	281.831	56	41
281.595	281.831	67	58
281.726	281.856	60	37
281.726	281.856	68	61
281.856	282.378	53	49
281.856	282.378	70	63
281.986	282.247	60	39
281.986	282.378	72	65
282.117	282.378	56	44
282.117	282.378	74	68
282.247	282.378	60	39
282.247	282.378	76	71
282.378	282.876	53	49
282.378	282.876	77	75
282.508	282.778	60	43
282.508	282.876	72	71
282.647	282.876	56	45
282.647	282.876	80	75
282.778	283.038	60	43
282.778	283.303	79	72
282.908	283.434	53	49
282.908	283.434	77	75
283.038	283.303	60	43
283.038	283.44	72	71
283.173	283.44	56	45
283.173	283.44	80	72
283.303	283.44	60	43
283.303	283.44	79	70
283.434	283.937	53	48
283.434	283.825	77	72
283.564	283.825	62	42
283.564	283.937	79	71
283.695	283.937	56	45
283.695	283.937	75	71
283.825	283.956	62	43
283.825	283.956	77	68
283.956	284.477	53	47
283.956	284.347	74	70
284.086	284.347	62	43
284.086	284.477	75	67
284.216	284.477	56	45
284.216	284.477	72	68
284.347	284.477	62	43
284.347	284.477	74	68
284.477	285.009	55	54
284.477	285.009	71	67
284.614	284.879	65	46
284.75	285.009	62	48
284.75	285.526	89	90
284.879	285.009	65	45
285.009	285.526	55	54
285.138	285.397	65	45
285.267	285.526	62	48
285.267	286.043	87	89
285.397	285.526	65	45
285.526	286.043	55	54
285.655	285.914	65	46
285.785	286.043	62	48
285.785	286.56	86	88
285.914	286.043	65	45
286.043	286.56	55	52
286.172	286.431	65	45
286.302	286.56	62	48
286.302	287.089	84	87
286.431	286.56	65	45
286.56	287.078	55	53
286.69	286.948	65	45
286.819	287.089	62	48
286.819	287.601	83	84
286.948	287.089	65	45
287.078	287.595	55	53
287.207	287.466	65	45
287.336	287.601	62	48
287.336	288.106	80	78
287.466	287.601	65	45
287.595	288.106	55	53
287.724	287.983	62	46
287.853	288.106	59	48
287.853	288.635	79	83
287.983	288.112	62	45
288.112	288.635	55	53
288.241	288.503	62	45
288.371	288.635	59	48
288.371	288.635	77	78
288.503	288.635	62	45
288.635	289.164	55	48
288.635	289.189	77	80
288.767	289.031	64	39
288.899	289.189	60	44
288.899	289.189	76	77
289.031	289.189	64	39
289.164	289.674	55	48
289.164	289.692	75	67
289.296	289.56	63	41
289.428	289.674	60	44
289.56	289.692	63	41
289.692	290.211	55	48
289.824	290.082	63	40
289.824	290.082	75	65
289.953	290.211	60	44
289.953	290.211	74	68
290.082	290.211	63	38
290.082	290.211	75	66
290.211	290.726	55	48
290.211	290.726	77	68
290.339	290.597	63	40
290.339	290.597	75	66
290.468	290.726	60	45
290.468	290.726	74	68
290.597	290.726	63	40
290.597	290.726	75	65
290.726	291.235	54	54
290.726	291.235	78	77
290.857	291.119	63	40
290.988	291.235	58	44
291.119	291.247	63	41
291.119	291.247	75	69
291.247	291.748	54	49
291.247	291.375	77	65
291.311	291.439	75	62
291.375	291.632	63	42
291.375	291.503	77	65
291.439	291.567	75	63
291.503	291.748	58	45
291.503	291.748	77	66
291.567	291.696	75	64
291.632	291.76	63	40
291.632	291.748	74	71
291.696	291.76	75	69
291.76	292.281	54	54
291.76	292.285	82	78
291.891	292.153	63	42
292.022	292.285	58	45
292.153	292.285	63	42
292.153	292.285	75	68
292.281	292.756	54	48
292.281	292.409	77	64
292.345	292.473	75	62
292.409	292.666	63	40
292.409	292.537	77	64
292.473	292.601	75	62
292.537	292.756	58	45
292.537	292.756	77	64
292.601	292.73	75	63
292.666	292.794	63	40
292.666	292.756	74	71
292.73	292.794	75	68
292.794	292.924	53	49
292.794	292.924	81	81
292.924	293.054	63	40
293.054	293.183	60	45
293.054	293.183	84	85
293.183	293.313	63	41
293.313	293.818	53	50
293.313	294.217	87	89
293.443	293.703	63	42
293.573	293.818	60	45
293.703	293.833	63	40
293.833	294.316	53	50
293.961	294.217	63	43
293.961	294.316	89	71
294.089	294.316	60	48
294.089	294.316	86	77
294.217	294.346	63	43
294.217	294.346	87	71
294.346	294.858	53	54
294.346	294.73	84	77
294.474	294.73	63	45
294.474	294.858	86	71
294.602	294.858	60	48
294.602	294.858	82	77
294.73	294.858	63	45
294.73	294.858	84	71
294.858	295.371	53	54
294.858	295.371	81	72
294.987	295.243	63	45
294.987	295.243	82	73
295.115	295.386	60	48
295.115	295.386	84	77
295.243	295.386	63	44
295.243	295.386	82	72
295.371	295.842	53	54
295.371	295.842	81	71
295.499	295.758	63	45
295.499	295.842	82	72
295.628	295.842	60	48
295.628	295.842	84	73
295.758	295.888	63	44
295.758	295.888	86	70
295.888	296.412	53	52
295.888	296.427	87	75
296.02	296.282	60	44
296.02	296.427	86	70
296.151	296.427	57	48
296.151	296.427	84	72
296.282	296.427	60	44
296.282	296.427	82	72
296.412	296.93	53	53
296.412	296.93	81	71
296.542	296.801	60	44
296.542	296.93	79	70
296.672	296.93	57	47
296.672	296.93	77	69
296.801	296.93	60	44
296.801	296.93	75	68
296.93	297.461	54	44
296.93	297.063	75	65
296.996	297.507	77	63
297.063	297.329	60	39
297.063	297.507	75	72
297.197	297.507	57	40
297.197	297.461	74	68
297.329	297.507	60	35
297.461	297.987	54	44
297.461	298.25	74	68
297.592	297.855	60	33
297.724	297.999	57	39
297.855	297.999	60	34
297.987	298.498	54	44
298.118	298.382	60	33
298.25	298.498	57	39
298.25	298.513	74	72
298.382	298.513	60	33
298.513	299.077	54	44
298.513	299.077	86	81
298.645	298.908	62	35
298.776	299.077	57	39
298.776	299.578	84	77
298.908	299.077	62	34
299.039	299.578	55	48
299.171	299.434	62	39
299.303	299.578	58	44
299.303	300.08	82	78
299.434	299.578	62	39
299.566	300.08	53	48
299.697	299.961	62	38
299.829	300.08	57	44
299.829	300.477	81	77
299.961	300.092	62	38
300.092	300.617	52	48
300.22	300.477	62	38
300.22	300.617	79	70
300.348	300.617	55	44
300.348	300.617	82	73
300.477	300.617	62	37
300.477	300.617	81	70
300.605	301.032	51	48
300.605	301.032	84	73
300.733	300.99	61	38
300.733	301.032	82	69
300.861	301.032	55	44
300.861	301.032	81	73
300.99	301.118	61	39
300.99	301.118	79	67
301.118	301.641	50	38
301.118	301.641	62	38
301.118	301.182	78	71
301.246	301.378	74	58
301.378	301.509	86	57
301.509	301.641	85	57
301.641	301.772	86	56
301.772	301.904	85	56
301.904	302.035	86	57
302.035	302.167	85	58
302.167	302.295	86	59
302.295	302.423	87	59
302.423	302.552	84	60
302.552	302.68	86	58
302.68	303.193	62	45
302.68	303.193	66	45
302.68	302.808	82	62
302.808	302.936	84	60
302.936	303.064	81	63
303.064	303.193	82	61
303.193	303.707	63	45
303.193	303.707	67	45
303.193	303.321	79	64
303.321	303.449	81	63
303.449	303.578	77	66
303.578	303.707	79	63
303.707	303.836	75	67
303.836	303.965	77	64
303.965	304.095	74	69
304.095	304.225	75	66
304.225	304.355	73	70
304.486	304.752	82	69
304.752	305.286	51	54
304.752	305.286	61	54
304.752	305.019	81	70
305.019	305.286	79	68
305.286	305.816	50	49
305.286	305.816	62	49
305.286	305.352	78	71
305.419	305.551	73	52
305.551	305.683	74	57
305.683	305.816	73	52
305.816	305.948	74	57
305.948	306.08	73	53
306.08	306.212	74	57
306.212	306.344	73	53
306.344	306.472	74	54
306.472	306.601	75	51
306.601	306.729	72	53
306.729	306.857	74	49
306.857	307.37	50	45
306.857	307.37	60	45
306.857	306.985	70	52
306.985	307.113	72	49
307.113	307.242	69	50
307.242	307.37	70	46
307.37	307.884	51	42
307.37	307.884	58	42
307.37	307.498	67	48
307.498	307.626	69	46
307.626	307.755	65	46
307.755	307.884	67	45
307.884	308.014	63	45
308.014	308.145	65	44
308.145	308.276	62	43
308.276	308.408	63	42
308.408	308.541	61	41
308.674	308.939	67	41
308.939	309.47	51	32
308.939	309.47	55	32
308.939	309.205	70	45
309.205	309.47	61	42
309.47	309.731	50	24
309.47	309.731	54	24
309.47	309.601	62	39
309.731	309.867	74	46
310.003	310.274	50	27
310.003	310.274	55	27
310.003	310.274	58	27
310.274	310.535	74	49
310.535	310.796	50	28
310.535	310.796	54	28
310.535	310.796	57	28
310.796	311.058	74	46
311.058	311.32	50	32
311.058	311.32	55	32
311.058	311.32	58	32
311.32	311.582	74	48
311.582	312.104	50	34
311.582	312.104	54	34
311.582	312.104	57	34
311.844	312.104	74	43
312.104	312.365	73	46
312.365	312.627	74	49
312.627	312.89	73	53
312.89	313.154	74	56
313.154	313.42	73	60
313.42	313.686	74	63
313.686	314.245	77	66
313.954	314.222	60	30
313.954	314.222	65	30
313.954	314.222	69	34
314.222	314.49	60	33
314.222	314.49	65	33
314.222	314.49	69	37
314.222	314.758	75	64
314.49	314.758	60	36
314.49	314.758	65	36
314.49	314.758	69	40
314.758	315.289	60	39
314.758	315.289	65	39
314.758	315.289	69	44
314.892	315.024	75	53
315.024	315.157	74	56
315.157	315.289	75	53
315.289	315.42	74	56
315.42	315.552	75	54
315.552	315.683	74	56
315.683	315.824	75	53
315.824	316.357	82	70
316.09	316.357	65	32
316.09	316.357	72	32
316.09	316.357	75	36
316.357	316.624	65	36
316.357	316.624	72	36
316.357	316.624	75	40
316.357	317.008	81	66
316.624	316.89	65	39
316.624	316.89	72	39
316.624	316.89	75	44
316.89	317.417	65	42
316.89	317.417	72	42
316.89	317.417	75	47
317.024	317.155	81	61
317.155	317.286	79	63
317.286	317.417	81	61
317.417	317.548	82	63
317.548	317.679	81	61
317.679	317.81	79	63
317.81	317.951	81	61
317.951	318.497	89	77
318.218	318.497	65	47
318.484	319.069	75	45
318.484	319.069	87	75
318.751	319.069	79	45
319.018	320.08	66	47
319.151	319.286	87	66
319.286	319.421	86	68
319.421	319.556	87	65
319.556	319.687	89	68
319.687	319.818	87	65
319.818	319.949	85	68
319.949	320.08	84	65
320.08	320.639	82	77
320.347	320.639	65	38
320.614	321.166	72	41
320.614	321.166	81	69
320.88	321.166	75	37
321.147	322.197	66	49
321.28	321.411	87	67
321.411	321.542	86	69
321.542	321.673	87	66
321.673	321.804	89	70
321.804	321.935	87	67
321.935	322.066	85	68
322.066	322.197	84	67
322.197	322.464	65	46
322.197	322.328	82	66
322.328	322.464	81	65
322.464	322.594	87	69
322.594	322.724	86	66
322.724	323.246	66	52
322.724	323.772	72	52
322.724	323.772	75	52
322.724	322.855	89	71
322.855	322.985	87	68
322.985	323.116	85	69
323.116	323.246	84	67
323.246	323.772	65	49
323.246	323.377	82	66
323.377	323.511	81	65
323.511	323.642	87	70
323.642	323.772	86	67
323.772	324.294	66	53
323.772	324.819	72	53
323.772	324.819	75	53
323.772	323.902	89	71
323.902	324.033	87	68
324.033	324.163	85	70
324.163	324.294	84	69
324.294	324.819	65	50
324.294	324.424	82	68
324.424	324.558	81	67
324.558	324.689	84	68
324.689	324.819	83	64
324.819	324.951	86	68
324.951	325.083	84	67
325.083	325.215	82	65
325.215	325.348	81	63
325.348	325.48	79	63
325.48	325.617	77	61
325.617	325.751	79	59
325.751	325.885	78	58
325.885	326.018	81	59
326.018	326.152	79	57
326.152	326.284	77	56
326.284	326.416	75	54
326.416	326.685	74	52
326.685	326.96	72	52
326.96	327.097	74	54
327.235	327.373	75	56
327.51	327.66	76	58
327.81	327.976	77	61
328.142	328.275	79	62
328.275	328.406	77	58
328.406	328.537	75	61
328.537	328.665	74	58
328.665	330.747	72	67
328.93	329.969	58	39
328.93	329.189	70	60
329.189	329.709	62	42
329.189	330.747	70	59
329.449	330.747	65	39
329.709	330.225	62	46
329.969	330.747	58	39
329.969	330.481	74	61
330.225	330.747	62	41
330.225	330.747	79	63
330.481	330.747	67	38
330.481	330.747	74	60
330.747	332.046	77	68
331.007	332.046	60	35
331.266	331.786	63	39
331.266	332.302	75	62
331.526	332.302	67	36
331.786	332.302	63	44
332.046	332.302	60	41
332.046	332.302	77	65
332.174	332.302	79	62
332.302	332.815	63	41
332.302	332.815	77	65
332.43	332.815	75	62
332.558	332.815	67	38
332.558	332.815	74	65
332.687	332.815	72	65
332.815	333.999	70	71
333.071	333.999	53	38
333.336	333.848	60	41
333.336	334.105	69	65
333.592	333.999	63	41
333.848	334.105	60	49
334.105	334.361	53	41
334.105	334.361	69	63
334.361	334.618	60	43
334.361	334.618	70	65
334.618	334.888	63	40
334.618	334.888	72	63
334.888	336.441	69	61
334.888	336.441	72	61
335.15	336.198	58	40
335.412	335.936	62	42
335.412	336.441	70	58
335.412	336.441	74	58
335.674	336.441	65	39
335.936	336.441	62	47
336.198	336.452	58	40
336.198	336.441	77	64
336.325	336.452	76	62
336.452	336.961	62	42
336.452	336.961	79	66
336.579	336.961	77	62
336.706	336.961	65	39
336.706	336.961	75	63
336.834	336.961	74	61
336.961	338.0	63	45
336.961	338.0	74	68
337.222	338.03	67	31
337.222	338.03	72	62
337.482	338.03	62	36
337.743	338.03	65	31
337.743	338.03	70	63
338.0	338.782	63	45
338.0	339.039	74	67
338.261	339.039	67	35
338.261	339.039	72	64
338.521	339.039	60	39
338.782	339.039	63	33
338.782	339.039	69	64
339.039	339.549	62	42
339.039	339.549	65	42
339.039	339.166	70	68
339.166	339.294	72	60
339.294	339.422	70	63
339.422	339.549	69	60
339.549	339.677	70	68
339.677	339.805	72	60
339.805	339.932	74	63
339.932	340.06	75	59
340.06	340.187	76	72
340.187	340.314	77	68
340.314	340.441	76	72
340.441	340.574	77	66
340.574	340.7	79	74
340.7	340.826	77	68
340.826	340.952	75	67
340.952	341.086	74	64
341.086	341.597	63	47
341.086	341.597	74	74
341.342	341.597	67	34
341.342	341.597	72	54
341.597	342.122	62	39
341.597	342.122	72	59
341.852	342.122	65	34
341.852	342.122	70	54
342.108	342.618	63	47
342.108	342.618	74	68
342.363	342.618	67	34
342.363	342.618	72	54
342.618	343.129	60	38
342.618	343.129	72	57
342.873	343.129	63	34
342.873	343.129	69	53
343.129	343.639	62	44
343.129	343.639	65	44
343.129	343.384	70	64
343.384	343.512	72	61
343.512	343.639	74	62
343.639	343.767	75	64
343.767	343.895	77	64
343.895	344.022	79	67
344.022	344.15	81	68
344.15	344.278	82	70
344.278	344.405	84	71
344.405	344.533	86	72
344.533	344.66	87	72
344.66	344.787	89	74
344.914	345.04	89	76
345.167	345.684	57	57
345.167	346.46	77	80
345.167	345.684	89	80
345.426	346.186	87	76
345.684	346.202	58	52
345.943	346.202	86	78
346.202	346.715	51	59
346.202	346.46	86	78
346.46	346.588	75	67
346.46	346.588	84	67
346.715	347.252	53	54
346.715	346.843	74	71
346.715	346.843	82	71
346.972	347.112	72	64
346.972	347.112	81	64
347.252	347.514	74	73
347.252	347.514	82	73
347.514	347.644	46	54
347.777	347.911	50	56
347.777	348.048	70	72
348.048	348.187	53	55
348.328	348.899	58	58
348.899	349.027	67	52
349.027	349.156	65	48
349.156	349.284	63	52
349.284	349.412	62	48
349.412	349.673	60	56
349.673	350.716	46	34
349.673	349.934	58	53
349.934	350.455	50	37
349.934	351.509	58	53
350.195	351.245	53	34
350.455	350.981	50	43
350.716	351.509	46	35
350.716	350.981	70	54
350.981	351.509	50	39
350.981	351.509	70	54
351.245	351.509	53	39
351.245	351.509	72	51
351.509	351.777	70	61
351.777	352.849	46	37
351.777	353.628	69	53
352.045	352.581	50	41
352.045	352.849	68	51
352.313	353.368	53	37
352.581	353.108	50	43
352.849	353.628	46	38
352.849	353.108	68	58
353.108	353.628	50	38
353.108	353.368	68	65
353.368	353.628	53	34
353.368	353.628	68	72
353.628	353.756	80	78
353.756	353.884	82	71
353.884	354.665	46	47
353.884	354.269	79	78
354.012	354.665	80	70
354.141	354.665	50	47
354.141	354.525	77	79
354.269	354.665	79	69
354.397	354.665	53	45
354.397	354.665	75	77
354.525	354.665	77	70
354.654	355.687	56	53
354.654	355.038	74	79
354.782	355.687	75	70
354.91	355.687	53	45
354.91	355.295	72	75
355.038	355.687	74	69
355.166	355.687	50	48
355.166	355.551	70	76
355.295	355.687	72	70
355.423	355.687	46	45
355.423	355.687	68	72
355.551	355.687	70	67
355.687	355.955	68	72
355.955	356.971	47	36
355.955	356.222	67	67
356.222	356.971	50	36
356.222	357.026	67	59
356.49	356.971	53	36
356.758	357.026	55	41
357.026	357.294	53	33
357.026	357.16	79	54
357.294	357.552	50	34
357.294	357.552	79	60
357.552	357.811	47	32
357.552	357.811	77	54
357.811	358.078	77	63
358.078	358.943	58	33
358.078	358.344	76	54
358.344	358.943	61	36
358.344	359.153	76	54
358.611	358.943	64	32
358.878	359.42	67	40
359.153	359.286	85	59
359.42	359.686	85	61
359.686	359.953	76	56
359.953	360.22	79	61
360.22	361.323	57	34
360.22	360.486	77	54
360.486	361.323	60	34
360.486	361.323	77	54
360.753	361.323	65	32
361.02	361.547	69	39
361.286	361.547	78	52
361.547	361.808	79	54
361.808	362.079	75	52
362.079	362.348	73	57
362.348	363.454	58	32
362.348	362.617	74	52
362.617	363.454	62	34
362.617	363.454	74	52
362.886	363.454	65	30
363.155	363.684	70	38
363.424	363.684	77	54
363.684	363.814	79	61
363.814	363.943	77	57
363.943	364.073	75	61
364.073	364.203	74	56
364.203	364.723	63	42
364.203	365.272	72	61
364.463	365.272	67	38
364.723	365.272	63	42
364.982	365.272	65	38
364.982	365.272	69	52
365.242	365.757	62	41
365.242	365.307	70	52
365.372	365.628	77	56
365.5	366.013	65	38
365.5	366.27	76	56
365.628	365.885	77	52
365.757	366.27	62	41
365.757	366.27	79	63
365.885	366.27	77	54
366.013	366.27	65	38
366.013	366.27	75	59
366.141	366.27	74	53
366.27	366.535	63	41
366.27	366.402	72	63
366.535	367.057	65	38
366.535	367.322	72	63
366.796	367.322	63	41
367.057	367.322	65	38
367.057	367.322	69	54
367.318	367.833	62	41
367.318	368.346	70	54
367.448	367.704	77	51
367.576	368.089	65	38
367.576	368.346	76	56
367.704	367.961	77	53
367.833	368.346	62	41
367.833	368.346	79	62
367.961	368.346	77	53
368.089	368.346	65	38
368.089	368.346	75	57
368.217	368.346	74	54
368.346	368.867	63	41
368.346	368.879	74	63
368.606	368.879	67	38
368.606	368.879	72	60
368.867	369.128	63	41
369.128	369.385	67	38
369.128	369.385	72	59
369.385	369.72	64	41
369.385	369.72	72	63
369.645	369.906	67	38
369.645	369.906	70	59
369.906	370.167	64	41
370.167	370.421	67	38
370.167	370.421	70	52
370.421	370.93	53	41
370.421	370.676	69	64
370.548	370.93	70	58
370.676	370.93	69	62
370.803	370.93	65	58
370.93	371.49	55	47
370.93	371.184	70	69
371.057	371.438	72	62
371.184	371.49	70	67
371.311	371.49	65	59
371.438	371.984	57	52
371.438	371.693	72	70
371.565	371.947	74	64
371.693	371.984	72	69
371.82	371.984	65	63
371.947	372.455	58	58
371.947	372.201	74	77
372.074	372.35	75	67
372.201	372.35	74	72
372.328	372.455	65	67
372.455	372.715	60	64
372.455	372.585	75	78
372.715	372.975	65	45
372.715	372.845	75	78
372.975	373.235	57	51
373.235	373.492	65	46
373.235	373.363	72	73
373.492	373.75	58	52
373.492	373.75	75	79
373.75	374.007	65	46
373.75	373.878	74	72
374.007	374.265	55	52
374.007	374.136	72	74
374.265	374.522	65	46
374.265	374.393	70	71
374.522	375.031	53	40
374.522	375.024	69	67
374.649	375.024	65	59
374.776	375.024	76	61
374.904	375.031	77	59
375.031	375.557	55	46
375.031	375.557	70	70
375.158	375.557	65	59
375.285	375.557	76	66
375.412	375.557	77	61
375.539	376.066	57	51
375.539	376.066	72	74
375.666	376.066	65	64
375.793	376.066	76	69
375.921	376.066	77	62
376.048	376.556	58	58
376.048	376.478	74	79
376.175	376.478	65	69
376.302	376.478	76	73
376.429	376.556	77	69
376.556	376.687	60	64
376.556	376.687	75	79
376.687	376.817	65	45
376.817	376.947	64	49
376.817	376.947	75	79
376.947	377.078	65	45
377.078	377.208	57	56
377.208	377.339	65	46
377.339	377.612	64	49
377.339	377.612	74	57
377.404	377.534	72	52
377.469	377.612	65	46
377.469	377.612	71	57
377.534	377.612	72	52
377.6	377.73	58	56
377.6	377.86	75	72
377.73	377.86	65	46
377.86	377.991	64	49
377.86	377.991	74	71
377.991	378.121	65	47
378.121	378.252	55	57
378.121	378.252	72	71
378.252	378.382	64	45
378.382	378.513	62	49
378.382	378.513	70	68
378.513	378.643	64	46
378.643	379.542	53	59
378.643	379.154	65	59
378.643	379.026	69	78
378.771	379.629	77	69
378.898	379.629	72	73
379.026	379.629	69	70
379.154	379.629	65	77
379.281	379.629	60	69
379.411	379.629	57	70
379.542	379.676	53	67
379.676	380.056	29	75
379.676	380.056	41	75
380.752	381.778	34	58
380.752	381.778	46	58
380.752	381.521	53	72
380.752	381.521	58	72
380.752	381.521	62	72
380.752	381.521	65	72
381.521	381.649	67	48
381.649	381.778	65	45
381.778	381.906	63	52
382.034	382.162	62	48
382.29	382.419	60	52
382.547	382.675	58	48
382.803	383.342	58	54
383.064	383.342	67	49
383.342	384.382	39	57
383.342	384.382	51	57
383.342	384.126	58	72
383.342	384.126	67	72
384.126	384.382	65	53
384.382	384.895	50	44
384.382	384.639	69	53
384.639	384.895	70	52
384.895	385.404	52	38
384.895	385.404	55	38
384.895	385.147	70	61
385.147	385.66	60	53
385.404	385.916	53	38
385.66	385.916	62	53
385.916	386.425	52	38
385.916	386.425	55	38
385.916	386.169	70	61
386.169	386.681	60	51
386.425	386.938	53	40
386.681	386.938	62	53
386.938	387.457	55	39
386.938	387.457	65	58
387.457	387.986	57	35
387.457	387.587	65	52
387.522	387.651	63	47
387.587	387.716	65	52
387.651	387.781	63	49
387.716	387.986	65	52
387.781	387.91	63	49
387.845	387.975	62	52
387.91	387.986	63	48
387.975	388.49	58	35
387.975	388.104	62	57
388.233	388.49	62	51
388.49	388.746	63	53
388.746	389.002	65	51
389.002	389.263	66	65
389.263	390.146	39	46
389.263	390.146	67	54
389.52	390.146	43	46
389.776	390.146	48	45
389.776	390.146	65	53
389.903	390.146	63	50
390.029	390.542	51	52
390.029	390.286	62	54
390.286	390.542	60	51
390.542	390.799	62	52
390.799	391.055	63	51
391.055	391.317	67	63
391.317	392.205	38	44
391.317	392.205	65	53
391.573	392.205	41	44
391.83	392.205	46	43
391.83	392.205	63	54
391.957	392.205	62	49
392.084	392.597	50	52
392.084	392.34	60	56
392.34	392.597	58	52
392.597	392.853	60	54
392.853	393.11	62	50
393.11	393.628	48	44
393.11	393.372	65	63
393.372	393.884	63	51
393.628	394.141	45	41
393.884	394.141	60	51
394.141	394.658	46	43
394.141	394.403	63	62
394.403	394.913	62	52
394.658	395.169	43	42
394.913	395.169	58	52
395.169	395.684	41	44
395.169	395.298	57	48
395.298	395.426	58	49
395.426	395.555	59	50
395.555	395.684	60	51
395.684	395.812	61	52
395.812	395.939	62	53
395.939	396.067	63	54
396.067	396.194	64	54
396.194	396.322	53	53
396.194	396.705	65	56
396.322	396.45	55	49
396.45	396.577	51	54
396.577	396.705	53	49
396.705	396.833	50	54
396.833	396.962	51	49
396.962	397.093	48	56
397.093	397.226	50	49
397.226	397.739	46	69
397.226	397.995	65	73
397.226	397.995	70	73
397.226	397.995	74	73
397.226	397.995	77	73
397.739	398.252	58	58
397.995	398.123	79	51
398.123	398.252	77	49
398.252	398.38	75	57
398.508	398.636	74	50
398.764	398.893	72	50
399.021	399.149	70	47
399.277	399.811	70	53
399.538	399.811	79	50
399.811	400.85	51	59
399.811	400.85	63	59
399.811	400.593	70	64
399.811	400.593	79	71
400.593	400.85	77	53
400.85	401.358	62	43
400.85	401.106	81	66
401.106	401.61	82	63
401.358	401.867	64	43
401.358	401.867	67	43
401.61	401.867	72	53
401.867	402.375	65	43
401.867	402.123	74	53
402.123	402.627	82	68
402.375	402.884	64	43
402.375	402.884	67	43
402.627	402.884	72	53
402.884	403.397	65	41
402.884	403.14	74	53
403.14	403.268	82	67
403.397	403.918	67	43
403.397	403.918	70	43
403.397	403.918	77	54
403.918	404.44	69	43
403.918	404.44	72	43
403.918	404.179	76	53
404.179	404.44	75	53
404.44	404.956	70	46
404.44	404.571	74	48
404.701	404.956	74	54
404.956	405.212	75	60
405.212	405.467	77	64
405.467	405.722	78	74
405.722	405.978	55	54
405.722	406.233	79	70
405.978	406.105	67	61
406.233	406.361	65	53
406.233	406.361	81	70
406.361	406.487	83	67
406.487	406.614	63	60
406.487	406.614	84	70
406.614	406.74	86	67
406.74	406.994	51	53
406.74	406.867	87	70
406.867	406.994	86	66
406.994	407.12	63	61
406.994	407.12	84	70
407.12	407.247	86	67
407.247	407.373	62	53
407.247	407.373	82	70
407.373	407.5	84	67
407.5	407.752	60	57
407.5	407.626	81	69
407.626	407.752	82	66
407.752	408.005	58	53
407.752	407.879	79	69
407.879	408.005	81	64
408.005	408.259	57	53
408.005	408.132	77	71
408.132	408.259	79	67
408.259	408.515	53	53
408.259	408.387	75	71
408.387	408.515	77	67
408.515	409.025	58	60
408.515	408.642	74	68
408.642	408.77	75	64
408.77	408.898	77	68
408.898	409.025	79	65
409.025	409.536	50	54
409.025	409.152	81	70
409.152	409.279	82	66
409.279	409.405	81	69
409.405	409.536	82	65
409.536	410.044	51	59
409.536	409.662	84	72
409.662	409.788	82	70
409.788	409.914	81	69
409.914	410.044	79	67
410.044	410.55	63	53
410.044	410.171	81	72
410.171	410.297	79	70
410.297	410.424	77	69
410.424	410.55	75	67
410.55	411.068	65	54
410.55	411.068	74	71
411.068	411.647	53	53
411.068	411.647	69	58
411.068	411.2	74	58
411.134	411.266	72	54
411.2	411.332	74	58
411.266	411.398	72	53
411.332	411.647	74	58
411.398	411.53	72	54
411.464	411.596	70	66
411.53	411.647	72	62
411.596	411.728	58	53
411.596	412.125	70	75
411.728	411.861	65	46
411.861	411.993	64	49
411.993	412.125	65	46
412.125	412.257	67	53
412.257	412.389	65	47
412.389	412.521	64	49
412.521	412.654	65	46
412.654	412.786	63	53
412.786	412.918	65	51
412.918	413.05	62	53
413.05	413.182	63	49
413.182	413.314	60	53
413.314	413.446	65	50
413.446	413.579	58	53
413.579	413.711	65	50
413.711	414.087	57	48
413.711	414.087	75	85
413.841	414.087	65	40
413.972	414.102	60	42
413.972	414.102	72	56
414.102	414.233	65	38
414.233	414.363	63	48
414.233	414.363	69	62
414.363	414.493	65	40
414.493	414.624	63	42
414.493	414.624	69	56
414.624	414.754	65	39
414.754	415.206	57	47
414.754	415.206	75	85
414.885	415.146	65	40
415.015	415.206	63	43
415.015	415.206	72	54
415.146	415.276	65	40
415.276	415.406	63	48
415.276	415.406	69	60
415.406	415.537	65	42
415.537	415.667	63	42
415.537	415.667	69	54
415.667	415.798	65	42
415.798	415.926	62	44
415.798	415.926	70	62
415.926	416.054	65	45
416.054	416.182	57	45
416.054	416.182	72	63
416.182	416.311	65	45
416.311	416.439	58	46
416.311	416.439	74	64
416.439	416.567	65	47
416.567	416.695	60	48
416.567	416.695	75	66
416.695	416.829	65	49
416.829	416.958	61	53
416.829	417.087	76	88
416.958	417.087	65	48
417.087	417.216	62	53
417.087	417.346	77	75
417.216	417.346	65	46
417.346	417.475	61	53
417.346	417.604	76	87
417.475	417.604	65	46
417.604	417.734	62	53
417.604	417.863	77	75
417.734	417.863	65	47
417.863	418.324	57	48
417.863	418.324	75	82
417.863	418.324	87	97
417.993	418.254	65	39
418.124	418.324	60	42
418.124	418.324	72	48
418.124	418.324	84	57
418.254	418.385	65	39
418.385	418.515	63	48
418.385	418.515	69	52
418.385	418.515	81	62
418.515	418.646	65	40
418.646	418.776	63	42
418.646	418.776	69	47
418.646	418.776	81	56
418.776	418.907	65	39
418.907	419.321	57	47
418.907	419.321	75	82
418.907	419.321	87	97
419.037	419.298	65	39
419.167	419.321	63	43
419.167	419.321	72	45
419.167	419.321	84	54
419.298	419.428	65	39
419.428	419.559	63	48
419.428	419.559	69	51
419.428	419.559	81	60
419.559	419.689	65	42
419.689	419.82	63	42
419.689	419.82	69	45
419.689	419.82	81	54
419.82	419.95	65	42
419.95	420.078	62	44
419.95	420.078	70	52
419.95	420.078	82	62
420.078	420.206	65	45
420.206	420.335	57	45
420.206	420.335	72	53
420.206	420.335	84	63
420.335	420.463	65	45
420.463	420.591	58	46
420.463	420.591	74	54
420.463	420.591	86	64
420.591	420.719	65	47
420.719	420.847	60	48
420.719	420.847	75	56
420.719	420.847	87	66
420.847	420.98	65	49
420.98	421.228	61	53
420.98	421.24	76	76
420.98	421.24	88	90
421.11	421.24	65	48
421.24	421.493	62	53
421.24	421.5	77	63
421.24	421.5	89	75
421.37	421.5	65	46
421.5	421.766	61	53
421.5	421.766	76	77
421.5	421.766	88	91
421.63	421.766	65	46
421.759	421.92	62	53
421.759	422.047	77	63
421.759	422.047	89	75
421.889	422.047	65	47
422.047	423.086	67	56
422.047	423.086	79	66
422.307	422.567	51	38
422.567	422.826	50	40
422.826	423.086	51	38
423.086	424.125	57	45
423.086	424.125	69	54
423.346	423.606	53	38
423.606	423.865	52	40
423.865	424.125	53	38
424.125	425.164	75	65
424.125	425.164	87	77
424.385	424.645	54	38
424.645	424.904	52	42
424.904	425.164	54	38
425.164	426.203	74	57
425.164	426.203	86	68
425.424	425.684	55	40
425.684	425.943	54	42
425.943	426.203	55	39
426.203	426.331	86	75
426.331	426.458	84	68
426.458	426.586	87	72
426.586	426.714	86	67
426.714	427.224	63	54
426.714	427.224	72	54
426.714	426.841	89	75
426.841	426.969	87	71
426.969	427.097	86	72
427.097	427.224	84	68
427.224	428.311	65	54
427.224	427.758	74	54
427.224	427.758	82	75
427.758	428.311	75	45
427.758	428.311	81	63
428.311	429.343	70	34
428.311	429.343	74	41
428.574	429.087	82	47
428.83	429.343	81	50
429.087	429.343	82	47
429.343	430.373	70	28
429.343	430.373	74	34
429.604	430.117	80	46
429.86	430.373	79	51
430.117	430.373	80	46
430.373	431.404	70	29
430.373	431.404	74	29
430.373	431.404	77	35
430.635	431.148	79	44
430.892	431.397	78	48
431.148	431.404	79	45
431.404	432.458	72	28
431.404	432.458	75	34
431.665	432.458	79	44
431.93	432.194	91	51
432.194	432.458	91	48
432.458	433.488	69	29
432.458	433.488	72	29
432.458	433.488	75	35
432.719	433.172	91	50
432.976	433.232	77	44
433.232	433.36	77	44
433.488	434.531	70	28
433.488	434.531	74	33
433.752	434.279	77	46
434.011	434.271	86	51
434.271	434.401	86	48
434.531	435.566	67	29
434.531	435.566	70	29
434.531	435.566	74	35
434.794	435.21	86	49
435.051	435.309	75	45
435.309	435.438	75	45
435.566	436.594	69	28
435.566	436.594	72	33
435.828	436.332	75	44
436.084	436.339	84	50
436.339	436.467	84	47
436.594	437.626	66	28
436.594	437.626	69	28
436.594	437.626	72	33
436.856	437.369	84	48
437.113	437.369	74	44
437.369	437.497	74	44
437.626	438.688	67	28
437.626	438.688	70	34
437.888	438.382	74	44
438.154	438.421	82	49
438.421	438.554	82	46
438.688	439.764	82	54
438.957	439.226	64	30
438.957	439.226	70	36
438.957	439.835	72	44
439.226	439.495	64	35
439.226	439.495	70	42
439.495	439.835	64	32
439.495	439.835	70	38
439.764	440.826	82	63
440.029	440.295	65	34
440.029	440.295	70	41
440.029	440.826	74	52
440.295	440.56	65	39
440.295	440.56	70	46
440.56	440.826	65	37
440.56	440.826	70	44
440.826	441.878	82	69
441.089	441.352	67	39
441.089	441.352	70	46
441.089	441.922	75	54
441.352	441.615	67	45
441.352	441.615	70	53
441.615	441.922	67	42
441.615	441.922	70	50
441.878	442.926	82	81
442.14	442.402	66	53
442.14	442.402	70	63
442.14	442.926	76	67
442.402	442.664	66	58
442.402	442.664	70	69
442.664	442.926	66	54
442.664	442.926	70	64
442.926	443.448	65	53
442.926	443.448	70	63
442.926	443.212	82	89
443.187	443.318	77	83
443.448	443.965	62	53
443.448	443.965	70	63
443.448	443.818	82	89
443.707	443.836	78	83
443.965	444.48	63	53
443.965	444.48	70	63
443.965	444.48	82	89
444.22	444.48	79	85
444.474	444.974	60	53
444.474	444.974	65	63
444.474	444.974	87	89
444.724	444.974	81	85
444.974	445.478	58	51
444.974	445.478	65	60
444.974	445.233	87	82
445.036	445.161	86	81
445.099	445.233	84	85
445.161	445.233	86	78
445.224	445.478	89	94
445.478	446.006	50	43
445.478	446.006	53	51
445.478	445.764	84	81
445.541	445.666	82	76
445.603	445.764	81	81
445.666	445.764	82	75
445.728	446.006	86	92
445.982	446.487	51	42
445.982	446.498	58	50
445.982	446.259	81	75
446.044	446.169	79	69
446.107	446.259	78	75
446.169	446.259	79	71
446.232	446.498	82	88
446.487	446.987	51	39
446.487	446.987	55	46
446.487	446.737	74	71
446.549	446.674	72	66
446.612	446.767	71	71
446.674	446.767	72	67
446.737	446.987	74	79
446.987	447.504	65	74
447.119	447.375	77	76
447.247	447.504	79	78
447.375	447.504	77	76
447.504	448.016	50	46
447.504	448.568	58	46
447.504	448.016	75	76
447.632	448.016	74	71
447.76	448.016	72	72
447.888	448.016	70	70
448.016	448.568	51	46
448.016	448.147	74	54
448.082	448.213	72	50
448.147	448.278	74	54
448.213	448.344	72	49
448.278	448.409	74	54
448.344	448.475	72	49
448.409	448.54	74	54
448.475	448.568	72	49
448.54	449.064	53	46
448.54	449.064	57	46
448.54	448.671	74	54
448.606	448.737	72	49
448.671	448.802	74	54
448.737	448.868	72	51
448.802	449.064	74	54
448.868	448.999	72	50
448.933	449.064	70	66
448.999	449.064	72	62
449.064	449.195	46	52
449.064	449.195	58	52
449.064	449.195	70	70
449.326	449.538	58	47
449.455	449.583	62	45
449.583	450.02	57	35
449.583	449.794	60	47
449.711	450.02	63	45
449.839	450.096	56	33
449.839	450.02	62	47
449.967	450.096	65	45
450.096	450.228	46	43
450.096	450.228	55	43
450.096	450.228	63	48
450.36	450.609	58	52
450.488	450.616	62	48
450.616	451.038	57	35
450.616	450.82	60	52
450.745	451.038	63	48
450.873	451.129	56	33
450.873	451.038	62	52
451.001	451.129	65	48
451.129	451.26	46	42
451.129	451.26	55	42
451.129	451.26	63	52
451.39	451.518	58	52
451.518	451.646	62	55
451.646	452.141	57	47
451.646	451.848	60	57
451.775	452.141	63	58
451.903	452.159	56	47
451.903	452.141	62	59
452.031	452.159	65	62
452.159	452.416	55	51
452.159	452.416	63	63
452.287	452.416	67	66
452.416	452.69	50	50
452.416	452.69	65	67
452.544	452.69	68	69
452.672	452.929	51	50
452.672	452.922	67	70
452.8	452.929	70	71
452.929	453.189	48	50
452.929	453.109	69	73
453.059	453.189	72	75
453.189	453.702	50	57
453.189	453.318	70	77
453.318	453.446	72	79
453.446	453.574	74	82
453.574	453.702	72	82
453.702	453.83	70	80
453.83	453.959	68	79
453.959	454.089	67	78
454.089	454.22	66	77
454.22	454.732	51	53
454.22	454.348	67	78
454.348	454.476	72	79
454.476	454.604	75	80
454.604	454.732	74	79
454.732	454.861	72	79
454.861	454.989	70	78
454.989	455.117	69	75
455.117	455.245	67	74
455.245	455.836	53	52
455.245	455.836	65	75
455.375	455.836	70	79
455.505	455.836	58	48
455.505	455.836	74	82
455.635	455.836	77	88
455.765	456.031	62	48
455.765	455.898	82	94
456.031	456.291	58	48
456.031	456.161	70	64
456.031	456.161	74	64
456.291	456.746	53	53
456.291	456.746	74	70
456.291	456.746	77	70
456.558	456.824	60	49
456.558	456.746	72	66
456.558	456.746	75	66
456.824	457.1	63	49
456.824	456.962	70	67
456.824	456.962	74	67
457.1	457.375	60	48
457.1	457.237	69	67
457.1	457.237	72	67
457.375	457.512	58	56
457.375	457.512	62	56
457.375	457.512	70	67
457.65	457.778	70	47
457.778	457.907	74	45
457.907	458.163	69	35
457.907	458.035	72	47
458.035	458.163	75	45
458.163	458.419	68	35
458.163	458.291	74	47
458.291	458.419	77	45
458.419	458.552	58	43
458.419	458.552	67	43
458.419	458.552	75	48
458.684	458.94	70	35
458.684	458.812	82	62
458.812	458.94	86	58
458.94	459.196	69	35
458.94	459.068	84	62
459.068	459.196	87	59
459.196	459.453	68	35
459.196	459.325	86	62
459.325	459.453	89	58
459.453	459.583	58	46
459.453	459.583	67	46
459.453	459.583	87	68
459.714	459.97	70	55
459.842	459.97	74	56
459.97	460.227	69	47
459.97	460.098	72	58
460.098	460.227	75	59
460.227	460.483	68	47
460.227	460.355	74	61
460.355	460.483	77	63
460.483	460.739	67	51
460.483	460.611	75	64
460.611	460.739	70	67
460.739	460.996	62	49
460.739	460.868	77	68
460.868	460.996	70	69
460.996	461.253	63	50
460.996	461.124	79	70
461.124	461.253	70	72
461.253	461.516	60	50
461.253	461.383	81	74
461.383	461.516	70	75
461.516	462.029	50	68
461.516	462.029	62	68
461.516	461.644	82	78
461.644	461.772	84	78
461.772	461.9	86	77
461.9	462.029	84	75
462.029	462.157	82	74
462.157	462.285	80	73
462.285	462.413	79	72
462.413	462.548	78	71
462.548	463.061	51	69
462.548	463.061	63	69
462.548	462.677	79	79
462.677	462.805	77	79
462.805	462.933	75	78
462.933	463.061	74	77
463.061	463.189	72	75
463.189	463.318	70	74
463.318	463.446	69	73
463.446	463.574	67	73
463.574	463.915	53	48
463.574	463.915	65	82
463.702	463.915	62	41
463.83	463.96	58	44
463.83	463.96	89	82
463.96	464.09	62	39
464.09	464.22	53	48
464.09	464.22	89	82
464.22	464.35	62	40
464.35	464.48	58	44
464.35	464.48	89	82
464.48	464.61	62	41
464.61	465.115	53	48
464.61	465.115	89	81
464.738	464.994	62	42
464.738	465.115	86	76
464.866	465.115	58	46
464.866	465.115	82	71
464.994	465.122	62	42
464.994	465.122	77	69
465.122	465.548	53	48
465.122	465.548	82	81
465.25	465.504	62	44
465.25	465.548	77	75
465.377	465.548	58	46
465.377	465.548	74	71
465.504	465.631	62	43
465.504	465.631	70	69
465.631	466.114	53	48
465.631	465.794	74	51
465.713	465.875	72	47
465.754	465.994	63	40
465.794	465.955	74	51
465.875	466.121	57	43
465.875	466.034	72	46
465.955	466.114	74	51
465.994	466.121	63	40
466.034	466.121	72	47
466.114	466.571	53	48
466.114	466.272	74	51
466.193	466.35	72	47
466.232	466.47	63	39
466.272	466.43	74	51
466.35	466.571	57	43
466.35	466.51	72	47
466.43	466.571	74	51
466.47	466.592	63	39
466.51	466.592	72	47
466.592	467.085	53	48
466.592	466.761	74	51
466.676	466.846	72	48
466.718	466.975	63	39
466.761	466.932	74	51
466.846	467.085	57	43
466.846	467.018	72	47
466.932	467.085	74	51
466.975	467.104	63	38
467.018	467.104	72	46
467.104	467.627	53	48
467.104	467.234	74	51
467.169	467.299	72	47
467.234	467.496	63	42
467.234	467.365	74	51
467.299	467.43	72	47
467.365	467.627	57	45
467.365	467.627	74	51
467.43	467.561	72	47
467.496	467.627	63	40
467.496	467.627	70	61
467.561	467.627	72	56
467.627	467.891	58	51
467.627	467.891	70	69
467.891	468.156	70	44
467.891	468.156	82	54
468.156	468.42	69	44
468.42	468.677	70	48
468.42	468.677	82	58
468.677	468.938	72	49
468.677	468.938	81	56
468.938	469.202	70	52
468.938	469.202	82	61
469.202	469.47	69	56
469.202	469.47	84	68
469.47	469.741	68	59
469.47	469.741	86	72
469.741	469.997	67	64
469.741	469.869	87	79
469.869	469.997	86	73
469.997	470.254	58	49
469.997	470.125	87	76
470.125	470.254	86	70
470.254	470.51	66	58
470.254	470.382	87	75
470.382	470.51	85	67
470.51	470.77	58	49
470.51	470.638	84	69
470.638	470.77	82	65
470.77	471.027	65	57
470.77	470.898	81	67
470.898	471.027	82	70
471.027	471.286	58	48
471.027	471.156	84	72
471.156	471.286	82	67
471.286	471.547	69	55
471.286	471.416	81	69
471.416	471.547	79	66
471.547	471.811	58	48
471.547	471.679	77	66
471.679	471.811	75	65
471.811	471.944	70	53
471.811	471.944	74	63
472.077	472.342	58	41
472.077	472.209	74	49
472.342	472.608	57	41
472.608	472.873	58	37
472.608	472.873	70	53
472.873	473.14	60	45
472.873	473.14	69	49
473.14	473.411	58	43
473.14	473.411	70	49
473.411	473.686	57	43
473.411	473.686	72	49
473.686	473.966	56	38
473.686	473.966	74	49
473.966	474.532	55	45
473.966	474.108	75	52
474.249	474.32	77	52
474.32	474.391	75	49
474.391	474.462	74	52
474.462	474.532	75	48
474.532	475.125	51	35
474.532	474.815	77	54
474.815	475.125	79	61
475.125	475.719	53	35
475.125	475.649	75	49
475.125	475.649	79	49
475.422	475.719	74	42
475.422	475.719	77	42
475.719	476.315	53	35
476.007	476.315	63	30
476.007	476.315	69	30
476.315	477.694	58	37
476.315	477.694	63	45
476.315	477.694	72	45
476.967	477.694	53	28
477.694	478.24	46	28
477.694	478.24	62	32
477.694	478.24	70	32
478.731	478.859	74	47
478.859	478.988	72	45
478.988	479.116	70	47
479.116	479.244	69	45
479.244	480.515	67	52
479.505	480.515	41	33
479.505	479.766	65	47
479.766	480.287	45	35
479.766	480.548	65	47
480.027	480.515	48	33
480.287	480.548	45	38
480.548	480.805	41	32
480.548	480.805	77	52
480.805	481.061	45	34
480.805	481.061	79	57
481.061	481.318	48	32
481.061	481.318	81	61
481.253	481.318	76	55
481.318	482.921	82	69
481.577	482.616	55	32
481.707	482.921	79	64
481.837	482.357	58	35
481.837	482.921	76	56
482.097	482.921	64	33
482.357	482.876	58	34
482.616	482.921	55	30
482.876	483.132	58	34
482.876	483.004	72	48
483.004	483.132	70	48
483.132	483.389	64	30
483.132	483.261	69	48
483.261	483.389	67	46
483.389	483.65	65	53
483.65	484.659	43	32
483.65	483.911	64	47
483.911	484.432	46	35
483.911	484.687	64	47
484.171	484.659	52	32
484.432	484.687	46	39
484.687	484.944	43	33
484.687	484.944	79	53
484.944	485.202	46	35
484.944	485.202	81	58
485.202	485.459	52	33
485.202	485.459	82	63
485.395	485.459	78	52
485.459	486.787	84	68
485.72	486.757	57	33
485.85	486.757	81	65
485.981	486.503	60	35
485.981	486.787	78	57
486.242	486.787	63	34
486.503	486.787	60	37
486.757	487.013	57	32
486.757	487.013	81	60
487.013	487.27	60	34
487.013	487.27	82	64
487.27	487.538	63	34
487.27	487.538	84	69
487.471	487.538	79	66
487.538	488.363	86	84
487.798	488.363	46	41
487.929	488.363	82	77
488.059	488.363	50	47
488.059	488.363	79	72
488.32	488.578	55	44
488.513	488.578	76	71
488.578	489.618	82	85
488.839	489.618	48	46
488.969	489.618	79	76
489.099	489.618	55	49
489.099	489.618	76	72
489.36	489.618	58	46
489.553	489.618	71	68
489.618	491.714	77	79
489.879	490.932	50	48
490.009	491.714	74	73
490.139	490.661	53	50
490.139	490.932	71	69
490.4	491.453	56	45
490.661	491.192	53	52
490.932	491.714	50	49
490.932	491.192	71	68
491.192	491.714	53	53
491.192	491.453	71	69
491.453	491.714	56	50
491.453	491.714	71	67
491.714	492.733	48	63
491.714	492.733	57	63
491.714	492.095	72	76
491.841	492.272	81	69
491.967	492.272	77	72
492.095	492.272	72	70
492.223	492.606	69	76
492.35	492.691	77	70
492.478	492.691	72	72
492.606	492.733	69	67
492.733	493.281	60	48
492.733	493.151	69	61
492.733	493.151	72	72
493.007	493.281	67	53
493.007	493.281	70	63
493.281	493.842	48	45
493.281	493.422	65	51
493.281	493.422	69	61
493.562	493.702	64	49
493.562	493.702	67	58
493.842	494.345	53	41
493.842	494.364	65	54
493.973	494.233	60	34
494.103	494.345	56	37
494.233	494.364	60	34
494.364	494.879	53	41
494.494	494.755	60	34
494.625	494.879	56	37
494.755	494.886	60	34
494.886	495.378	53	46
495.015	495.274	60	36
495.015	495.378	65	54
495.144	495.378	56	41
495.144	495.378	67	58
495.274	495.403	60	37
495.274	495.403	68	61
495.403	495.92	53	49
495.403	495.92	70	63
495.531	495.79	60	39
495.531	495.92	72	65
495.661	495.92	56	44
495.661	495.92	74	68
495.79	495.92	60	39
495.79	495.92	76	71
495.92	496.419	53	49
495.92	496.419	77	75
496.051	496.32	60	43
496.051	496.419	72	71
496.19	496.419	56	45
496.19	496.419	80	75
496.32	496.581	60	43
496.32	496.846	79	72
496.451	496.977	53	49
496.451	496.977	77	75
496.581	496.846	60	43
496.581	496.983	72	71
496.716	496.983	56	45
496.716	496.983	80	72
496.846	496.983	60	43
496.846	496.983	79	70
496.977	497.477	53	48
496.977	497.366	77	72
497.106	497.366	62	42
497.106	497.477	79	71
497.236	497.477	56	45
497.236	497.477	75	71
497.366	497.495	62	43
497.366	497.495	77	68
497.495	498.014	53	47
497.495	497.883	74	70
497.624	497.883	62	43
497.624	498.014	75	67
497.753	498.014	56	45
497.753	498.014	72	68
497.883	498.014	62	43
497.883	498.014	74	68
498.014	498.545	55	54
498.014	498.545	71	67
498.15	498.416	65	46
498.287	498.545	62	48
498.287	499.063	89	90
498.416	498.545	65	45
498.545	499.063	55	54
498.675	498.933	65	45
498.804	499.063	62	48
498.804	499.58	87	89
498.933	499.063	65	45
499.063	499.58	55	54
499.192	499.451	65	46
499.321	499.58	62	48
499.321	500.097	86	88
499.451	499.58	65	45
499.58	500.097	55	52
499.709	499.968	65	45
499.838	500.097	62	48
499.838	500.626	84	87
499.968	500.097	65	45
500.097	500.614	55	53
500.226	500.485	65	45
500.356	500.626	62	48
500.356	501.138	83	84
500.485	500.626	65	45
500.614	501.132	55	53
500.744	501.002	65	45
500.873	501.138	62	48
500.873	501.642	80	78
501.002	501.138	65	45
501.132	501.642	55	53
501.261	501.519	62	46
501.39	501.642	59	48
501.39	502.172	79	83
501.519	501.649	62	45
501.649	502.172	55	53
501.778	502.04	62	45
501.907	502.172	59	48
501.907	502.172	77	78
502.04	502.172	62	45
502.172	502.7	55	48
502.172	502.726	77	80
502.304	502.568	64	39
502.436	502.726	60	44
502.436	502.726	76	77
502.568	502.726	64	39
502.7	503.21	55	48
502.7	503.229	75	67
502.832	503.097	63	41
502.965	503.21	60	44
503.097	503.229	63	41
503.229	503.747	55	48
503.361	503.619	63	40
503.361	503.619	75	65
503.49	503.747	60	44
503.49	503.747	74	68
503.619	503.747	63	38
503.619	503.747	75	66
503.747	504.258	55	48
503.747	504.258	77	68
503.875	504.13	63	40
503.875	504.13	75	66
504.003	504.258	60	45
504.003	504.258	74	68
504.13	504.258	63	40
504.13	504.258	75	65
504.258	504.767	54	54
504.258	504.767	78	77
504.389	504.651	63	40
504.52	504.767	58	44
504.651	504.779	63	41
504.651	504.779	75	69
504.779	505.277	54	49
504.779	504.907	77	65
504.843	504.972	75	62
504.907	505.162	63	42
504.907	505.036	77	65
504.972	505.099	75	63
505.036	505.277	58	45
505.036	505.277	77	66
505.099	505.225	75	64
505.162	505.289	63	40
505.162	505.277	74	71
505.225	505.289	75	69
505.289	505.81	54	54
505.289	505.814	82	78
505.42	505.682	63	42
505.551	505.814	58	45
505.682	505.814	63	42
505.682	505.814	75	68
505.81	506.283	54	48
505.81	505.938	77	64
505.874	506.002	75	62
505.938	506.193	63	40
505.938	506.066	77	64
506.002	506.13	75	62
506.066	506.283	58	45
506.066	506.283	77	64
506.13	506.256	75	63
506.193	506.32	63	40
506.193	506.283	74	71
506.256	506.32	75	68
506.32	506.448	53	49
506.32	506.448	81	81
506.448	506.576	63	40
506.576	506.707	60	45
506.576	506.707	84	85
506.707	506.838	63	41
506.838	507.342	53	50
506.838	507.74	87	89
506.968	507.228	63	42
507.098	507.342	60	45
507.228	507.357	63	40
507.357	507.837	53	50
507.486	507.74	63	43
507.486	507.837	89	71
507.614	507.837	60	48
507.614	507.837	86	77
507.74	507.867	63	43
507.74	507.867	87	71
507.867	508.378	53	54
507.867	508.249	84	77
507.994	508.249	63	45
507.994	508.378	86	71
508.12	508.378	60	48
508.12	508.378	82	77
508.249	508.378	63	45
508.249	508.378	84	71
508.378	508.885	53	54
508.378	508.885	81	72
508.505	508.759	63	45
508.505	508.759	82	73
508.633	508.9	60	48
508.633	508.9	84	77
508.759	508.9	63	44
508.759	508.9	82	72
508.885	509.356	53	54
508.885	509.356	81	71
509.013	509.271	63	45
509.013	509.356	82	72
509.142	509.356	60	48
509.142	509.356	84	73
509.271	509.402	63	44
509.271	509.402	86	70
509.402	509.926	53	52
509.402	509.941	87	75
509.534	509.796	60	44
509.534	509.941	86	70
509.665	509.941	57	48
509.665	509.941	84	72
509.796	509.941	60	44
509.796	509.941	82	72
509.926	510.443	53	53
509.926	510.443	81	71
510.056	510.315	60	44
510.056	510.443	79	70
510.186	510.443	57	47
510.186	510.443	77	69
510.315	510.443	60	44
510.315	510.443	75	68
510.443	510.974	54	44
510.443	510.577	75	65
510.51	511.02	77	63
510.577	510.843	60	39
510.577	511.02	75	72
510.711	511.02	57	40
510.711	510.974	74	68
510.843	511.02	60	35
510.974	511.501	54	44
510.974	511.764	74	68
511.106	511.369	60	33
511.238	511.513	57	39
511.369	511.513	60	34
511.501	512.012	54	44
511.632	511.895	60	33
511.764	512.012	57	39
511.764	512.027	74	72
511.895	512.027	60	33
512.027	512.591	54	44
512.027	512.591	86	81
512.159	512.422	62	35
512.29	512.591	57	39
512.29	513.092	84	77
512.422	512.591	62	34
512.553	513.092	55	48
512.685	512.948	62	39
512.817	513.092	58	44
512.817	513.594	82	78
512.948	513.092	62	39
513.08	513.594	53	48
513.211	513.474	62	38
513.343	513.594	57	44
513.343	513.991	81	77
513.474	513.606	62	38
513.606	514.13	52	48
513.734	513.991	62	38
513.734	514.13	79	70
513.862	514.13	55	44
513.862	514.13	82	73
513.991	514.13	62	37
513.991	514.13	81	70
514.119	514.543	51	48
514.119	514.543	84	73
514.246	514.5	61	38
514.246	514.543	82	69
514.373	514.543	55	44
514.373	514.543	81	73
514.5	514.627	61	39
514.5	514.627	79	67
514.627	515.149	50	38
514.627	515.149	62	38
514.627	514.691	78	71
514.754	514.886	74	58
514.886	515.018	86	57
515.018	515.149	85	57
515.149	515.281	86	56
515.281	515.412	85	56
515.412	515.544	86	57
515.544	515.675	85	58
515.675	515.804	86	59
515.804	515.932	87	59
515.932	516.06	84	60
516.06	516.188	86	58
516.188	516.701	62	45
516.188	516.701	66	45
516.188	516.316	82	62
516.316	516.445	84	60
516.445	516.573	81	63
516.573	516.701	82	61
516.701	517.215	63	45
516.701	517.215	67	45
516.701	516.829	79	64
516.829	516.958	81	63
516.958	517.086	77	66
517.086	517.215	79	63
517.215	517.344	75	67
517.344	517.474	77	64
517.474	517.604	74	69
517.604	517.733	75	66
517.733	517.864	73	70
517.994	518.261	82	69
518.261	518.794	51	54
518.261	518.794	61	54
518.261	518.528	81	70
518.528	518.794	79	68
518.794	519.324	50	49
518.794	519.324	62	49
518.794	518.861	78	71
518.928	519.06	73	52
519.06	519.192	74	57
519.192	519.324	73	52
519.324	519.456	74	57
519.456	519.588	73	53
519.588	519.721	74	57
519.721	519.853	73	53
519.853	519.981	74	54
519.981	520.109	75	51
520.109	520.237	72	53
520.237	520.366	74	49
520.366	520.872	50	45
520.366	520.872	60	45
520.366	520.492	70	52
520.492	520.619	72	49
520.619	520.745	69	50
520.745	520.872	70	46
520.872	521.386	51	42
520.872	521.386	58	42
520.872	520.999	67	48
520.999	521.127	69	46
521.127	521.256	65	46
521.256	521.386	67	45
521.386	521.516	63	45
521.516	521.647	65	44
521.647	521.778	62	43
521.778	521.91	63	42
521.91	522.043	61	41
522.176	522.441	67	41
522.441	522.972	51	32
522.441	522.972	55	32
522.441	522.706	70	45
522.706	522.972	61	42
522.972	523.233	50	24
522.972	523.233	54	24
522.972	523.102	62	39
523.233	523.369	74	46
523.504	523.776	50	27
523.504	523.776	55	27
523.504	523.776	58	27
523.776	524.037	74	49
524.037	524.298	50	28
524.037	524.298	54	28
524.037	524.298	57	28
524.298	524.56	74	46
524.56	524.822	50	32
524.56	524.822	55	32
524.56	524.822	58	32
524.822	525.084	74	48
525.084	525.605	50	34
525.084	525.605	54	34
525.084	525.605	57	34
525.346	525.605	74	43
525.605	525.866	73	46
525.866	526.128	74	49
526.128	526.391	73	53
526.391	526.656	74	56
526.656	526.921	73	60
526.921	527.188	74	63
527.188	527.747	77	66
527.456	527.724	60	30
527.456	527.724	65	30
527.456	527.724	69	34
527.724	527.992	60	33
527.724	527.992	65	33
527.724	527.992	69	37
527.724	528.259	75	64
527.992	528.259	60	36
527.992	528.259	65	36
527.992	528.259	69	40
528.259	528.791	60	39
528.259	528.791	65	39
528.259	528.791	69	44
528.393	528.526	75	53
528.526	528.659	74	56
528.659	528.791	75	53
528.791	528.922	74	56
528.922	529.053	75	54
529.053	529.184	74	56
529.184	529.325	75	53
529.325	529.859	82	70
529.592	529.859	65	32
529.592	529.859	72	32
529.592	529.859	75	36
529.859	530.125	65	36
529.859	530.125	72	36
529.859	530.125	75	40
529.859	530.506	81	66
530.125	530.392	65	39
530.125	530.392	72	39
530.125	530.392	75	44
530.392	530.914	65	42
530.392	530.914	72	42
530.392	530.914	75	47
530.521	530.652	81	61
530.652	530.783	79	63
530.783	530.914	81	61
530.914	531.045	82	63
531.045	531.176	81	61
531.176	531.307	79	63
531.307	531.448	81	61
531.448	531.994	89	77
531.715	531.994	65	47
531.981	532.566	75	45
531.981	532.566	87	75
532.248	532.566	79	45
532.515	533.578	66	47
532.648	532.783	87	66
532.783	532.918	86	68
532.918	533.054	87	65
533.054	533.185	89	68
533.185	533.316	87	65
533.316	533.447	85	68
533.447	533.578	84	65
533.578	534.136	82	77
533.844	534.136	65	38
534.111	534.662	72	41
534.111	534.662	81	69
534.378	534.662	75	37
534.644	535.689	66	49
534.772	534.903	87	67
534.903	535.034	86	69
535.034	535.165	87	66
535.165	535.296	89	70
535.296	535.427	87	67
535.427	535.558	85	68
535.558	535.689	84	67
535.689	535.953	65	46
535.689	535.818	82	66
535.818	535.953	81	65
535.953	536.084	87	69
536.084	536.214	86	66
536.214	536.736	66	52
536.214	537.26	72	52
536.214	537.26	75	52
536.214	536.345	89	71
536.345	536.475	87	68
536.475	536.605	85	69
536.605	536.736	84	67
536.736	537.26	65	49
536.736	536.864	82	66
536.864	536.999	81	65
536.999	537.129	87	70
537.129	537.26	86	67
537.26	537.781	66	53
537.26	538.306	72	53
537.26	538.306	75	53
537.26	537.39	89	71
537.39	537.52	87	68
537.52	537.651	85	70
537.651	537.781	84	69
537.781	538.306	65	50
537.781	537.912	82	68
537.912	538.046	81	67
538.046	538.176	84	68
538.176	538.306	83	64
538.306	538.439	86	68
538.439	538.571	84	67
538.571	538.703	82	65
538.703	538.835	81	63
538.835	538.967	79	63
538.967	539.104	77	61
539.104	539.238	79	59
539.238	539.372	78	58
539.372	539.506	81	59
539.506	539.64	79	57
539.64	539.771	77	56
539.771	539.903	75	54
539.903	540.172	74	52
540.172	540.447	72	52
540.447	540.585	74	54
540.723	540.86	75	56
540.998	541.148	76	58
541.298	541.464	77	61
541.629	541.762	79	62
541.762	541.894	77	58
541.894	542.024	75	61
542.024	542.153	74	58
542.153	544.234	72	67
542.417	543.456	58	39
542.417	542.677	70	60
542.677	543.196	62	42
542.677	544.234	70	59
542.937	544.234	65	39
543.196	543.713	62	46
543.456	544.234	58	39
543.456	543.969	74	61
543.713	544.234	62	41
543.713	544.234	79	63
543.969	544.234	67	38
543.969	544.234	74	60
544.234	545.533	77	68
544.494	545.533	60	35
544.754	545.273	63	39
544.754	545.79	75	62
545.014	545.79	67	36
545.273	545.79	63	44
545.533	545.79	60	41
545.533	545.79	77	65
545.661	545.79	79	62
545.79	546.302	63	41
545.79	546.302	77	65
545.918	546.302	75	62
546.046	546.302	67	38
546.046	546.302	74	65
546.174	546.302	72	65
546.302	547.487	70	71
546.559	547.487	53	38
546.823	547.336	60	41
546.823	547.592	69	65
547.08	547.487	63	41
547.336	547.592	60	49
547.592	547.849	53	41
547.592	547.849	69	63
547.849	548.105	60	43
547.849	548.105	70	65
548.105	548.375	63	40
548.105	548.375	72	63
548.375	549.918	69	61
548.375	549.918	72	61
548.637	549.676	58	40
548.899	549.423	62	42
548.899	549.918	70	58
548.899	549.918	74	58
549.161	549.918	65	39
549.423	549.918	62	47
549.676	549.93	58	40
549.676	549.918	77	64
549.803	549.93	76	62
549.93	550.438	62	42
549.93	550.438	79	66
550.057	550.438	77	62
550.184	550.438	65	39
550.184	550.438	75	63
550.311	550.438	74	61
550.438	551.477	63	45
550.438	551.477	74	68
550.699	551.508	67	31
550.699	551.508	72	62
550.96	551.508	62	36
551.221	551.508	65	31
551.221	551.508	70	63
551.477	552.26	63	45
551.477	552.512	74	67
551.738	552.512	67	35
551.738	552.512	72	64
551.999	552.512	60	39
552.26	552.512	63	33
552.26	552.512	69	64
552.512	553.023	62	42
552.512	553.023	65	42
552.512	552.64	70	68
552.64	552.767	72	60
552.767	552.895	70	63
552.895	553.023	69	60
553.023	553.15	70	68
553.15	553.278	72	60
553.278	553.406	74	63
553.406	553.533	75	59
553.533	553.66	76	72
553.66	553.787	77	68
553.787	553.914	76	72
553.914	554.047	77	66
554.047	554.174	79	74
554.174	554.3	77	68
554.3	554.426	75	67
554.426	554.56	74	64
554.56	555.07	63	47
554.56	555.07	74	74
554.815	555.07	67	34
554.815	555.07	72	54
555.07	555.596	62	39
555.07	555.596	72	59
555.326	555.596	65	34
555.326	555.596	70	54
555.581	556.091	63	47
555.581	556.091	74	68
555.836	556.091	67	34
555.836	556.091	72	54
556.091	556.602	60	38
556.091	556.602	72	57
556.347	556.602	63	34
556.347	556.602	69	53
556.602	557.113	62	44
556.602	557.113	65	44
556.602	556.857	70	64
556.857	556.985	72	61
556.985	557.113	74	62
557.113	557.24	75	64
557.24	557.368	77	64
557.368	557.496	79	67
557.496	557.623	81	68
557.623	557.751	82	70
557.751	557.879	84	71
557.879	558.006	86	72
558.006	558.133	87	72
558.133	558.26	89	74
558.387	558.514	89	76
558.64	559.151	57	57
558.64	559.917	77	80
558.64	559.151	89	80
558.899	559.646	87	76
559.151	559.661	58	52
559.406	559.661	86	78
559.661	560.172	51	59
559.661	559.917	86	78
559.917	560.044	75	67
559.917	560.044	84	67
560.172	560.708	53	54
560.172	560.3	74	71
560.172	560.3	82	71
560.429	560.568	72	64
560.429	560.568	81	64
560.708	560.97	74	73
560.708	560.97	82	73
560.97	561.101	46	54
561.233	561.367	50	56
561.233	561.504	70	72
561.504	561.643	53	55
561.784	562.356	58	58
562.356	562.484	67	52
562.484	562.612	65	48
562.612	562.74	63	52
562.74	562.868	62	48
562.868	563.129	60	56
563.129	564.173	46	34
563.129	563.39	58	53
563.39	563.912	50	37
563.39	564.966	58	53
563.651	564.701	53	34
563.912	564.437	50	43
564.173	564.966	46	35
564.173	564.437	70	54
564.437	564.966	50	39
564.437	564.966	70	54
564.701	564.966	53	39
564.701	564.966	72	51
564.966	565.234	70	61
565.234	566.305	46	37
565.234	567.084	69	53
565.501	566.037	50	41
565.501	566.305	68	51
565.769	566.824	53	37
566.037	566.565	50	43
566.305	567.084	46	38
566.305	566.565	68	58
566.565	567.084	50	38
566.565	566.824	68	65
566.824	567.084	53	34
566.824	567.084	68	72
567.084	567.209	80	78
567.209	567.334	82	71
567.334	568.115	46	47
567.334	567.719	79	78
567.462	568.115	80	70
567.591	568.115	50	47
567.591	567.975	77	79
567.719	568.115	79	69
567.847	568.115	53	45
567.847	568.115	75	77
567.975	568.115	77	70
568.103	569.137	56	53
568.103	568.488	74	79
568.232	569.137	75	70
568.36	569.137	53	45
568.36	568.745	72	75
568.488	569.137	74	69
568.616	569.137	50	48
568.616	569.001	70	76
568.745	569.137	72	70
568.873	569.137	46	45
568.873	569.137	68	72
569.001	569.137	70	67
569.137	569.405	68	72
569.405	570.421	47	36
569.405	569.672	67	67
569.672	570.421	50	36
569.672	570.476	67	59
569.94	570.421	53	36
570.208	570.476	55	41
570.476	570.738	53	33
570.476	570.607	79	54
570.738	570.997	50	34
570.738	570.997	79	60
570.997	571.255	47	32
570.997	571.255	77	54
571.255	571.522	77	63
571.522	572.387	58	33
571.522	571.789	76	54
571.789	572.387	61	36
571.789	572.597	76	54
572.055	572.387	64	32
572.322	572.86	67	40
572.597	572.729	85	59
572.86	573.125	85	61
573.125	573.391	76	56
573.391	573.656	79	61
573.656	574.755	57	34
573.656	573.922	77	54
573.922	574.755	60	34
573.922	574.755	77	54
574.187	574.755	65	32
574.453	574.979	69	39
574.718	574.979	78	52
574.979	575.24	79	54
575.24	575.511	75	52
575.511	575.78	73	57
575.78	576.886	58	32
575.78	576.049	74	52
576.049	576.886	62	34
576.049	576.886	74	52
576.318	576.886	65	30
576.587	577.116	70	38
576.856	577.116	77	54
577.116	577.246	79	61
577.246	577.375	77	57
577.375	577.505	75	61
577.505	577.635	74	56
577.635	578.155	63	42
577.635	578.704	72	61
577.895	578.704	67	38
578.155	578.704	63	42
578.414	578.704	65	38
578.414	578.704	69	52
578.674	579.186	62	41
578.674	578.738	70	52
578.801	579.058	77	56
578.929	579.442	65	38
578.929	579.699	76	56
579.058	579.314	77	52
579.186	579.699	62	41
579.186	579.699	79	63
579.314	579.699	77	54
579.442	579.699	65	38
579.442	579.699	75	59
579.57	579.699	74	53
579.699	579.964	63	41
579.699	579.831	72	63
579.964	580.486	65	38
579.964	580.751	72	63
580.225	580.751	63	41
580.486	580.751	65	38
580.486	580.751	69	54
580.747	581.258	62	41
580.747	581.771	70	54
580.873	581.13	77	51
581.001	581.514	65	38
581.001	581.771	76	56
581.13	581.386	77	53
581.258	581.771	62	41
581.258	581.771	79	62
581.386	581.771	77	53
581.514	581.771	65	38
581.514	581.771	75	57
581.642	581.771	74	54
581.771	582.292	63	41
581.771	582.304	74	63
582.032	582.304	67	38
582.032	582.304	72	60
582.292	582.553	63	41
582.553	582.81	67	38
582.553	582.81	72	59
582.81	583.146	64	41
582.81	583.146	72	63
583.071	583.331	67	38
583.071	583.331	70	59
583.331	583.592	64	41
583.592	583.847	67	38
583.592	583.847	70	52
583.847	584.355	53	41
583.847	584.101	69	64
583.974	584.355	70	58
584.101	584.355	69	62
584.228	584.355	65	58
584.355	584.915	55	47
584.355	584.609	70	69
584.482	584.864	72	62
584.609	584.915	70	67
584.736	584.915	65	59
584.864	585.409	57	52
584.864	585.118	72	70
584.991	585.372	74	64
585.118	585.409	72	69
585.245	585.409	65	63
585.372	585.881	58	58
585.372	585.626	74	77
585.499	585.776	75	67
585.626	585.776	74	72
585.753	585.881	65	67
585.881	586.14	60	64
585.881	586.01	75	78
586.14	586.4	65	45
586.14	586.27	75	78
586.4	586.66	57	51
586.66	586.917	65	46
586.66	586.789	72	73
586.917	587.175	58	52
586.917	587.175	75	79
587.175	587.432	65	46
587.175	587.304	74	72
587.432	587.69	55	52
587.432	587.561	72	74
587.69	587.947	65	46
587.69	587.819	70	71
587.947	588.456	53	40
587.947	588.449	69	67
588.074	588.449	65	59
588.202	588.449	76	61
588.329	588.456	77	59
588.456	588.978	55	46
588.456	588.978	70	70
588.582	588.978	65	59
588.708	588.978	76	66
588.834	588.978	77	61
588.96	589.482	57	51
588.96	589.482	72	74
589.086	589.482	65	64
589.212	589.482	76	69
589.338	589.482	77	62
589.464	589.968	58	58
589.464	589.891	74	79
589.59	589.891	65	69
589.716	589.891	76	73
589.842	589.968	77	69
589.968	590.099	60	64
589.968	590.099	75	79
590.099	590.229	65	45
590.229	590.36	64	49
590.229	590.36	75	79
590.36	590.49	65	45
590.49	590.621	57	56
590.621	590.751	65	46
590.751	591.024	64	49
590.751	591.024	74	57
590.816	590.947	72	52
590.882	591.024	65	46
590.882	591.024	71	57
590.947	591.024	72	52
591.012	591.142	58	56
591.012	591.273	75	72
591.142	591.273	65	46
591.273	591.403	64	49
591.273	591.403	74	71
591.403	591.534	65	47
591.534	591.664	55	57
591.534	591.664	72	71
591.664	591.795	64	45
591.795	591.925	62	49
591.795	591.925	70	68
591.925	592.055	64	46
592.055	592.948	53	59
592.055	592.56	65	59
592.055	592.434	69	78
592.181	593.035	77	69
592.308	593.035	72	73
592.434	593.035	69	70
592.56	593.035	65	77
592.687	593.035	60	69
592.817	593.035	57	70
592.948	593.082	53	67
593.082	593.462	29	75
593.082	593.462	41	75
594.158	595.184	34	58
594.158	595.184	46	58
594.158	594.927	53	72
594.158	594.927	58	72
594.158	594.927	62	72
594.158	594.927	65	72
594.927	595.055	67	48
595.055	595.184	65	45
595.184	595.312	63	52
595.44	595.568	62	48
595.696	595.825	60	52
595.953	596.081	58	48
596.209	596.748	58	54
596.47	596.748	67	49
596.748	597.788	39	57
596.748	597.788	51	57
596.748	597.532	58	72
596.748	597.532	67	72
597.532	597.788	65	53
597.788	598.301	50	44
597.788	598.045	69	53
598.045	598.301	70	52
598.301	598.81	52	38
598.301	598.81	55	38
598.301	598.553	70	61
598.553	599.066	60	53
598.81	599.322	53	38
599.066	599.322	62	53
599.322	599.831	52	38
599.322	599.831	55	38
599.322	599.575	70	61
599.575	600.087	60	51
599.831	600.344	53	40
600.087	600.344	62	53
600.344	600.863	55	39
600.344	600.863	65	58
600.863	601.392	57	35
600.863	600.993	65	52
600.928	601.057	63	47
600.993	601.122	65	52
601.057	601.187	63	49
601.122	601.392	65	52
601.187	601.316	63	49
601.251	601.381	62	52
601.316	601.392	63	48
601.381	601.896	58	35
601.381	601.51	62	57
601.639	601.896	62	51
601.896	602.152	63	53
602.152	602.408	65	51
602.408	602.669	66	65
602.669	603.552	39	46
602.669	603.552	67	54
602.926	603.552	43	46
603.182	603.552	48	45
603.182	603.552	65	53
603.309	603.552	63	50
603.435	603.948	51	52
603.435	603.692	62	54
603.692	603.948	60	51
603.948	604.204	62	52
604.204	604.461	63	51
604.461	604.723	67	63
604.723	605.611	38	44
604.723	605.611	65	53
604.979	605.611	41	44
605.236	605.611	46	43
605.236	605.611	63	54
605.363	605.611	62	49
605.49	606.003	50	52
605.49	605.746	60	56
605.746	606.003	58	52
606.003	606.259	60	54
606.259	606.516	62	50
606.516	607.034	48	44
606.516	606.778	65	63
606.778	607.29	63	51
607.034	607.547	45	41
607.29	607.547	60	51
607.547	608.064	46	43
607.547	607.809	63	62
607.809	608.319	62	52
608.064	608.575	43	42
608.319	608.575	58	52
608.575	609.09	41	44
608.575	608.704	57	48
608.704	608.832	58	49
608.832	608.961	59	50
608.961	609.09	60	51
609.09	609.217	61	52
609.217	609.345	62	53
609.345	609.473	63	54
609.473	609.6	64	54
609.6	609.728	53	53
609.6	610.111	65	56
609.728	609.856	55	49
609.856	609.983	51	54
609.983	610.111	53	49
610.111	610.239	50	54
610.239	610.368	51	49
610.368	610.499	48	56
610.499	610.632	50	49
610.632	611.145	46	69
610.632	611.401	65	73
610.632	611.401	70	73
610.632	611.401	74	73
610.632	611.401	77	73
611.145	611.657	58	58
611.401	611.529	79	51
611.529	611.657	77	49
611.657	611.786	75	57
611.914	612.042	74	50
612.17	612.298	72	50
612.427	612.555	70	47
612.683	613.217	70	53
612.944	613.217	79	50
613.217	614.247	51	59
613.217	614.247	63	59
613.217	613.991	70	64
613.217	613.991	79	71
613.991	614.247	77	53
614.247	614.755	62	43
614.247	614.503	81	66
614.503	615.003	82	63
614.755	615.26	64	43
614.755	615.26	67	43
615.003	615.26	72	53
615.26	615.768	65	43
615.26	615.516	74	53
615.516	616.02	82	68
615.768	616.277	64	43
615.768	616.277	67	43
616.02	616.277	72	53
616.277	616.79	65	41
616.277	616.533	74	53
616.533	616.661	82	67
616.79	617.311	67	43
616.79	617.311	70	43
616.79	617.311	77	54
617.311	617.833	69	43
617.311	617.833	72	43
617.311	617.572	76	53
617.572	617.833	75	53
617.833	618.349	70	46
617.833	617.963	74	48
618.094	618.349	74	54
618.349	618.605	75	60
618.605	618.86	77	64
618.86	619.115	78	74
619.115	619.37	55	54
619.115	619.626	79	70
619.37	619.498	67	61
619.626	619.753	65	53
619.626	619.753	81	70
619.753	619.88	83	67
619.88	620.007	63	60
619.88	620.007	84	70
620.007	620.133	86	67
620.133	620.383	51	53
620.133	620.258	87	70
620.258	620.383	86	66
620.383	620.508	63	61
620.383	620.508	84	70
620.508	620.633	86	67
620.633	620.758	62	53
620.633	620.758	82	70
620.758	620.883	84	67
620.883	621.135	60	57
620.883	621.009	81	69
621.009	621.135	82	66
621.135	621.389	58	53
621.135	621.262	79	69
621.262	621.389	81	64
621.389	621.643	57	53
621.389	621.516	77	71
621.516	621.643	79	67
621.643	621.898	53	53
621.643	621.77	75	71
621.77	621.898	77	67
621.898	622.408	58	60
621.898	622.026	74	68
622.026	622.153	75	64
622.153	622.281	77	68
622.281	622.408	79	65
622.408	622.919	50	54
622.408	622.535	81	70
622.535	622.662	82	66
622.662	622.788	81	69
622.788	622.919	82	65
622.919	623.427	51	59
622.919	623.046	84	72
623.046	623.172	82	70
623.172	623.298	81	69
623.298	623.427	79	67
623.427	623.934	63	53
623.427	623.554	81	72
623.554	623.681	79	70
623.681	623.807	77	69
623.807	623.934	75	67
623.934	624.451	65	54
623.934	624.451	74	71
624.451	625.03	53	53
624.451	625.03	69	58
624.451	624.583	74	58
624.517	624.649	72	54
624.583	624.715	74	58
624.649	624.781	72	53
624.715	625.03	74	58
624.781	624.914	72	54
624.848	624.98	70	66
624.914	625.03	72	62
624.98	625.112	58	53
624.98	625.508	70	75
625.112	625.244	65	46
625.244	625.376	64	49
625.376	625.508	65	46
625.508	625.64	67	53
625.64	625.773	65	47
625.773	625.905	64	49
625.905	626.037	65	46
626.037	626.169	63	53
626.169	626.301	65	51
626.301	626.433	62	53
626.433	626.566	63	49
626.566	626.698	60	53
626.698	626.83	65	50
626.83	626.962	58	53
626.962	627.094	65	50
627.094	627.47	57	48
627.094	627.47	75	85
627.225	627.47	65	40
627.355	627.485	60	42
627.355	627.485	72	56
627.485	627.616	65	38
627.616	627.746	63	48
627.616	627.746	69	62
627.746	627.877	65	40
627.877	628.007	63	42
627.877	628.007	69	56
628.007	628.138	65	39
628.138	628.59	57	47
628.138	628.59	75	85
628.268	628.529	65	40
628.399	628.59	63	43
628.399	628.59	72	54
628.529	628.659	65	40
628.659	628.79	63	48
628.659	628.79	69	60
628.79	628.92	65	42
628.92	629.051	63	42
628.92	629.051	69	54
629.051	629.181	65	42
629.181	629.309	62	44
629.181	629.309	70	62
629.309	629.438	65	45
629.438	629.566	57	45
629.438	629.566	72	63
629.566	629.694	65	45
629.694	629.822	58	46
629.694	629.822	74	64
629.822	629.95	65	47
629.95	630.079	60	48
629.95	630.079	75	66
630.079	630.212	65	49
630.212	630.341	61	53
630.212	630.471	76	88
630.341	630.471	65	48
630.471	630.6	62	53
630.471	630.729	77	75
630.6	630.729	65	46
630.729	630.858	61	53
630.729	630.988	76	87
630.858	630.988	65	46
630.988	631.117	62	53
630.988	631.246	77	75
631.117	631.246	65	47
631.246	631.707	57	48
631.246	631.707	75	82
631.246	631.707	87	97
631.377	631.638	65	39
631.507	631.707	60	42
631.507	631.707	72	48
631.507	631.707	84	57
631.638	631.768	65	39
631.768	631.899	63	48
631.768	631.899	69	52
631.768	631.899	81	62
631.899	632.029	65	40
632.029	632.159	63	42
632.029	632.159	69	47
632.029	632.159	81	56
632.159	632.29	65	39
632.29	632.704	57	47
632.29	632.704	75	82
632.29	632.704	87	97
632.42	632.681	65	39
632.551	632.704	63	43
632.551	632.704	72	45
632.551	632.704	84	54
632.681	632.812	65	39
632.812	632.942	63	48
632.812	632.942	69	51
632.812	632.942	81	60
632.942	633.072	65	42
633.072	633.203	63	42
633.072	633.203	69	45
633.072	633.203	81	54
633.203	633.333	65	42
633.333	633.462	62	44
633.333	633.462	70	52
633.333	633.462	82	62
633.462	633.59	65	45
633.59	633.718	57	45
633.59	633.718	72	53
633.59	633.718	84	63
633.718	633.846	65	45
633.846	633.974	58	46
633.846	633.974	74	54
633.846	633.974	86	64
633.974	634.103	65	47
634.103	634.231	60	48
634.103	634.231	75	56
634.103	634.231	87	66
634.231	634.364	65	49
634.364	634.611	61	53
634.364	634.623	76	76
634.364	634.623	88	90
634.493	634.623	65	48
634.623	634.877	62	53
634.623	634.883	77	63
634.623	634.883	89	75
634.753	634.883	65	46
634.883	635.149	61	53
634.883	635.149	76	77
634.883	635.149	88	91
635.013	635.149	65	46
635.143	635.303	62	53
635.143	635.431	77	63
635.143	635.431	89	75
635.273	635.431	65	47
635.431	636.464	67	56
635.431	636.464	79	66
635.686	635.945	51	38
635.945	636.204	50	40
636.204	636.464	51	38
636.464	637.499	57	45
636.464	637.499	69	54
636.719	636.979	53	38
636.979	637.239	52	40
637.239	637.499	53	38
637.499	638.533	75	65
637.499	638.533	87	77
637.754	638.014	54	38
638.014	638.273	52	42
638.273	638.533	54	38
638.533	639.569	74	57
638.533	639.569	86	68
638.79	639.05	55	40
639.05	639.31	54	42
639.31	639.569	55	39
639.569	639.697	86	75
639.697	639.825	84	68
639.825	639.952	87	72
639.952	640.08	86	67
640.08	640.591	63	54
640.08	640.591	72	54
640.08	640.208	89	75
640.208	640.335	87	71
640.335	640.463	86	72
640.463	640.591	84	68
640.591	641.677	65	54
640.591	641.124	74	54
640.591	641.124	82	75
641.124	641.677	75	45
641.124	641.677	81	63
641.677	642.699	70	34
641.677	642.699	74	41
641.93	642.443	82	47
642.187	642.699	81	50
642.443	642.699	82	47
642.699	643.729	70	28
642.699	643.729	74	34
642.96	643.473	80	46
643.217	643.729	79	51
643.473	643.729	80	46
643.729	644.752	70	29
643.729	644.752	74	29
643.729	644.752	77	35
643.983	644.495	79	44
644.239	644.744	78	48
644.495	644.752	79	45
644.752	645.806	72	28
644.752	645.806	75	34
645.013	645.806	79	44
645.277	645.541	91	51
645.541	645.806	91	48
645.806	646.836	69	29
645.806	646.836	72	29
645.806	646.836	75	35
646.067	646.52	91	50
646.323	646.579	77	44
646.579	646.708	77	44
646.836	647.878	70	28
646.836	647.878	74	33
647.099	647.626	77	46
647.359	647.618	86	51
647.618	647.748	86	48
647.878	648.905	67	29
647.878	648.905	70	29
647.878	648.905	74	35
648.132	648.549	86	49
648.39	648.647	75	45
648.647	648.776	75	45
648.905	649.933	69	28
648.905	649.933	72	33
649.167	649.67	75	44
649.422	649.678	84	50
649.678	649.805	84	47
649.933	650.954	66	28
649.933	650.954	69	28
649.933	650.954	72	33
650.185	650.698	84	48
650.441	650.698	74	44
650.698	650.826	74	44
650.954	652.016	67	28
650.954	652.016	70	34
651.216	651.711	74	44
651.483	651.75	82	49
651.75	651.883	82	46
652.016	653.092	82	54
652.285	652.554	64	30
652.285	652.554	70	36
652.285	653.163	72	44
652.554	652.823	64	35
652.554	652.823	70	42
652.823	653.163	64	32
652.823	653.163	70	38
653.092	654.154	82	63
653.358	653.623	65	34
653.358	653.623	70	41
653.358	654.154	74	52
653.623	653.889	65	39
653.623	653.889	70	46
653.889	654.154	65	37
653.889	654.154	70	44
654.154	655.207	82	69
654.418	654.681	67	39
654.418	654.681	70	46
654.418	655.251	75	54
654.681	654.944	67	45
654.681	654.944	70	53
654.944	655.251	67	42
654.944	655.251	70	50
655.207	656.255	82	81
655.469	655.731	66	53
655.469	655.731	70	63
655.469	656.255	76	67
655.731	655.993	66	58
655.731	655.993	70	69
655.993	656.255	66	54
655.993	656.255	70	64
656.255	656.777	65	53
656.255	656.777	70	63
656.255	656.541	82	89
656.516	656.646	77	83
656.777	657.294	62	53
656.777	657.294	70	63
656.777	657.146	82	89
657.035	657.165	78	83
657.294	657.809	63	53
657.294	657.809	70	63
657.294	657.809	82	89
657.548	657.809	79	85
657.803	658.303	60	53
657.803	658.303	65	63
657.803	658.303	87	89
658.053	658.303	81	85
658.303	658.807	58	51
658.303	658.807	65	60
658.303	658.562	87	82
658.365	658.49	86	81
658.428	658.562	84	85
658.49	658.562	86	78
658.552	658.807	89	94
658.807	659.334	50	43
658.807	659.334	53	51
658.807	659.092	84	81
658.869	658.994	82	76
658.932	659.092	81	81
658.994	659.092	82	75
659.057	659.334	86	92
659.311	659.815	51	42
659.311	659.827	58	50
659.311	659.588	81	75
659.373	659.498	79	69
659.436	659.588	78	75
659.498	659.588	79	71
659.561	659.827	82	88
659.815	660.315	51	39
659.815	660.315	55	46
659.815	660.065	74	71
659.878	660.003	72	66
659.94	660.096	71	71
660.003	660.096	72	67
660.065	660.315	74	79
660.315	660.832	65	74
660.448	660.704	77	76
660.576	660.832	79	78
660.704	660.832	77	76
660.832	661.345	50	46
660.832	661.896	58	46
660.832	661.345	75	76
660.96	661.345	74	71
661.089	661.345	72	72
661.217	661.345	70	70
661.345	661.896	51	46
661.345	661.476	74	54
661.41	661.541	72	50
661.476	661.607	74	54
661.541	661.672	72	49
661.607	661.738	74	54
661.672	661.803	72	49
661.738	661.869	74	54
661.803	661.896	72	49
661.869	662.393	53	46
661.869	662.393	57	46
661.869	662.0	74	54
661.934	662.065	72	49
662.0	662.131	74	54
662.065	662.196	72	51
662.131	662.393	74	54
662.196	662.327	72	50
662.262	662.393	70	66
662.327	662.393	72	62
662.393	662.524	46	52
662.393	662.524	58	52
662.393	662.524	70	70
662.655	662.867	58	47
662.783	662.911	62	45
662.911	663.347	57	35
662.911	663.123	60	47
663.04	663.347	63	45
663.167	663.421	56	33
663.167	663.347	62	47
663.295	663.421	65	45
663.421	663.554	46	43
663.421	663.554	55	43
663.421	663.554	63	48
663.686	663.935	58	52
663.814	663.942	62	48
663.942	664.359	57	35
663.942	664.144	60	52
664.069	664.359	63	48
664.196	664.448	56	33
664.196	664.359	62	52
664.322	664.448	65	48
664.448	664.578	46	42
664.448	664.578	55	42
664.448	664.578	63	52
664.709	664.837	58	52
664.837	664.965	62	55
664.965	665.456	57	47
664.965	665.166	60	57
665.093	665.456	63	58
665.22	665.474	56	47
665.22	665.456	62	59
665.347	665.474	65	62
665.474	665.728	55	51
665.474	665.728	63	63
665.601	665.728	67	66
665.728	666.002	50	50
665.728	666.002	65	67
665.856	666.002	68	69
665.984	666.241	51	50
665.984	666.234	67	70
666.112	666.241	70	71
666.241	666.502	48	50
666.241	666.421	69	73
666.371	666.502	72	75
666.502	667.015	50	57
666.502	666.63	70	77
666.63	666.758	72	79
666.758	666.886	74	82
666.886	667.015	72	82
667.015	667.143	70	80
667.143	667.271	68	79
667.271	667.401	67	78
667.401	667.532	66	77
667.532	668.045	51	53
667.532	667.66	67	78
667.66	667.788	72	79
667.788	667.916	75	80
667.916	668.045	74	79
668.045	668.173	72	79
668.173	668.301	70	78
668.301	668.429	69	75
668.429	668.558	67	74
668.558	669.143	53	52
668.558	669.143	65	75
668.687	669.143	70	79
668.817	669.143	58	48
668.817	669.143	74	82
668.944	669.143	77	88
669.072	669.338	62	48
669.072	669.205	82	94
669.338	669.598	58	48
669.338	669.468	70	64
669.338	669.468	74	64
669.598	670.048	53	53
669.598	670.048	74	70
669.598	670.048	77	70
669.862	670.127	60	49
669.862	670.048	72	66
669.862	670.048	75	66
670.127	670.397	63	49
670.127	670.262	70	67
670.127	670.262	74	67
670.397	670.671	60	48
670.397	670.534	69	67
670.397	670.534	72	67
670.671	670.808	58	56
670.671	670.808	62	56
670.671	670.808	70	67
670.945	671.073	70	47
671.073	671.201	74	45
671.201	671.458	69	35
671.201	671.329	72	47
671.329	671.458	75	45
671.458	671.714	68	35
671.458	671.586	74	47
671.586	671.714	77	45
671.714	671.842	58	43
671.714	671.842	67	43
671.714	671.842	75	48
671.968	672.225	70	35
671.968	672.096	82	62
672.096	672.225	86	58
672.225	672.481	69	35
672.225	672.353	84	62
672.353	672.481	87	59
672.481	672.737	68	35
672.481	672.609	86	62
672.609	672.737	89	58
672.737	672.868	58	46
672.737	672.868	67	46
672.737	672.868	87	68
672.998	673.255	70	55
673.126	673.255	74	56
673.255	673.511	69	47
673.255	673.383	72	58
673.383	673.511	75	59
673.511	673.768	68	47
673.511	673.639	74	61
673.639	673.768	77	63
673.768	674.024	67	51
673.768	673.896	75	64
673.896	674.024	70	67
674.024	674.28	62	49
674.024	674.152	77	68
674.152	674.28	70	69
674.28	674.538	63	50
674.28	674.409	79	70
674.409	674.538	70	72
674.538	674.8	60	50
674.538	674.667	81	74
674.667	674.8	70	75
674.8	675.307	50	68
674.8	675.307	62	68
674.8	674.927	82	78
674.927	675.053	84	78
675.053	675.18	86	77
675.18	675.307	84	75
675.307	675.435	82	74
675.435	675.563	80	73
675.563	675.691	79	72
675.691	675.826	78	71
675.826	676.339	51	69
675.826	676.339	63	69
675.826	675.955	79	79
675.955	676.083	77	79
676.083	676.211	75	78
676.211	676.339	74	77
676.339	676.467	72	75
676.467	676.596	70	74
676.596	676.724	69	73
676.724	676.852	67	73
676.852	677.193	53	48
676.852	677.193	65	82
676.98	677.193	62	41
677.108	677.238	58	44
677.108	677.238	89	82
677.238	677.368	62	39
677.368	677.498	53	48
677.368	677.498	89	82
677.498	677.628	62	40
677.628	677.758	58	44
677.628	677.758	89	82
677.758	677.888	62	41
677.888	678.393	53	48
677.888	678.393	89	81
678.016	678.272	62	42
678.016	678.393	86	76
678.144	678.393	58	46
678.144	678.393	82	71
678.272	678.4	62	42
678.272	678.4	77	69
678.4	678.826	53	48
678.4	678.826	82	81
678.528	678.782	62	44
678.528	678.826	77	75
678.655	678.826	58	46
678.655	678.826	74	71
678.782	678.909	62	43
678.782	678.909	70	69
678.909	679.391	53	48
678.909	679.073	74	51
678.992	679.153	72	47
679.032	679.272	63	40
679.073	679.232	74	51
679.153	679.397	57	43
679.153	679.312	72	46
679.232	679.391	74	51
679.272	679.397	63	40
679.312	679.397	72	47
679.391	679.846	53	48
679.391	679.548	74	51
679.469	679.625	72	47
679.509	679.745	63	39
679.548	679.705	74	51
679.625	679.846	57	43
679.625	679.785	72	47
679.705	679.846	74	51
679.745	679.868	63	39
679.785	679.868	72	47
679.868	680.361	53	48
679.868	680.037	74	51
679.952	680.123	72	48
679.994	680.251	63	39
680.037	680.208	74	51
680.123	680.361	57	43
680.123	680.294	72	47
680.208	680.361	74	51
680.251	680.381	63	38
680.294	680.381	72	46
680.381	680.903	53	48
680.381	680.51	74	51
680.446	680.576	72	47
680.51	680.772	63	42
680.51	680.641	74	51
680.576	680.706	72	47
680.641	680.903	57	45
680.641	680.903	74	51
680.706	680.838	72	47
680.772	680.903	63	40
680.772	680.903	70	61
680.838	680.903	72	56
680.903	681.168	58	51
680.903	681.168	70	69
681.168	681.432	70	44
681.168	681.432	82	54
681.432	681.696	69	44
681.696	681.954	70	48
681.696	681.954	82	58
681.954	682.214	72	49
681.954	682.214	81	56
682.214	682.478	70	52
682.214	682.478	82	61
682.478	682.746	69	56
682.478	682.746	84	68
682.746	683.017	68	59
682.746	683.017	86	72
683.017	683.274	67	64
683.017	683.145	87	79
683.145	683.274	86	73
683.274	683.53	58	49
683.274	683.402	87	76
683.402	683.53	86	70
683.53	683.786	66	58
683.53	683.658	87	75
683.658	683.786	85	67
683.786	684.046	58	49
683.786	683.915	84	69
683.915	684.046	82	65
684.046	684.303	65	57
684.046	684.174	81	67
684.174	684.303	82	70
684.303	684.562	58	48
684.303	684.432	84	72
684.432	684.562	82	67
684.562	684.824	69	55
684.562	684.693	81	69
684.693	684.824	79	66
684.824	685.088	58	48
684.824	684.955	77	66
684.955	685.088	75	65
685.088	685.22	70	53
685.088	685.22	74	63
685.353	685.618	58	41
685.353	685.486	74	49
685.618	685.884	57	41
685.884	686.149	58	37
685.884	686.149	70	53
686.149	686.416	60	45
686.149	686.416	69	49
686.416	686.687	58	43
686.416	686.687	70	49
686.687	686.963	57	43
686.687	686.963	72	49
686.963	687.243	56	38
686.963	687.243	74	49
687.243	687.809	55	45
687.243	687.384	75	52
687.526	687.596	77	52
687.596	687.667	75	49
687.667	687.738	74	52
687.738	687.809	75	48
687.809	688.406	51	35
687.809	688.092	77	54
688.092	688.406	79	61
688.406	689.0	53	35
688.406	688.931	75	49
688.406	688.931	79	49
688.703	689.0	74	42
688.703	689.0	77	42
689.0	689.602	53	35
689.288	689.602	63	30
689.288	689.602	69	30
689.602	691.014	58	37
689.602	691.014	63	45
689.602	691.014	72	45
690.255	691.014	53	28
691.014	691.584	46	28
691.014	691.584	62	32
691.014	691.584	70	32
