OnsetTime	OffsetTime	MidiPitch	Velocity
0.500004	3.00626	43	40
1.12657	3.01279	50	38
1.75313	3.01279	55	28
1.75313	3.01279	58	28
1.75313	3.01279	62	34
3.00626	5.4789	43	40
3.63283	5.49185	50	38
4.25939	5.49185	55	35
4.25939	5.49185	58	35
4.25939	4.57267	62	35
4.57267	5.49185	62	53
4.87877	5.49185	64	54
5.17433	5.49185	66	56
5.4789	6.71203	43	40
5.4789	6.71203	67	57
5.78978	6.71203	69	59
6.08828	6.71203	50	37
6.08828	6.71203	70	61
6.38679	6.71203	72	63
6.68529	7.93722	55	34
6.68529	7.93722	58	34
6.68529	7.93722	62	40
6.68529	7.92238	74	65
7.00615	7.59451	79	68
7.296	7.93722	45	45
7.296	7.93722	78	66
7.59451	7.93722	79	58
7.92238	9.1446	46	44
7.92238	9.1446	74	53
8.51643	9.1446	55	38
9.12558	10.375	62	29
9.12558	9.739	67	35
9.42993	10.4002	74	56
9.739	10.4002	48	35
9.739	10.4002	63	31
9.739	10.375	67	31
9.739	10.4002	69	59
10.0541	10.4002	72	51
10.375	11.6372	50	42
10.375	11.6114	62	45
10.375	11.6372	67	45
10.375	11.6372	70	53
10.6776	11.2985	63	50
10.9857	11.6114	55	29
10.9857	11.6114	58	29
10.9857	11.6372	61	47
11.2985	11.6372	63	39
11.6114	12.8834	55	34
11.6114	12.8645	58	34
11.6114	12.8834	62	40
11.921	12.8834	70	53
12.2343	12.8834	50	42
12.2343	12.8834	60	46
12.2343	12.8834	66	57
12.5494	12.8834	69	49
12.8645	15.3337	43	46
12.8645	14.1348	58	47
12.8645	14.1348	67	53
13.1666	13.7924	51	42
13.4764	14.1348	49	37
13.7924	14.1348	51	32
14.1085	15.3595	50	35
14.4245	15.3595	62	52
14.7306	15.3595	60	48
14.7306	15.3595	64	54
15.0291	15.3595	66	55
15.3337	16.5737	43	40
15.3337	16.5475	58	51
15.3337	16.5737	67	57
15.643	16.5737	69	59
15.9445	16.5737	50	37
15.9445	16.5737	70	61
16.246	16.5737	72	63
16.5475	17.7903	55	34
16.5475	17.7903	58	34
16.5475	17.7903	62	40
16.5475	17.7661	74	68
16.8616	17.4528	79	63
17.1543	17.7903	45	42
17.1543	17.7661	65	33
17.1543	17.7903	72	36
17.1543	17.7903	75	40
17.1543	17.7903	77	61
17.4528	17.7903	79	59
17.7661	19.0026	46	44
17.7661	18.9785	65	46
17.7661	19.0026	70	46
17.7661	19.0026	74	55
18.3663	19.0026	53	38
18.9785	20.2432	58	28
18.9785	20.2432	62	28
18.9785	20.2432	65	39
19.2828	19.907	77	60
19.5919	20.2432	43	41
19.5919	20.2279	63	50
19.5919	20.2432	70	50
19.5919	20.2432	74	50
19.5919	20.2432	75	63
19.907	20.2432	77	58
20.2279	21.47	45	44
20.2279	21.4522	63	50
20.2279	21.47	69	50
20.2279	21.47	72	60
20.8401	21.47	57	36
21.4522	22.7303	60	30
21.4522	22.7303	63	30
21.4522	22.7016	67	36
21.7566	22.3808	75	55
22.0656	22.7303	42	36
22.0656	22.7016	62	37
22.0656	22.7303	69	37
22.0656	22.7303	72	38
22.0656	22.7303	74	56
22.3808	22.7303	75	50
22.7016	23.9804	43	39
22.7016	23.9547	62	44
22.7016	23.9804	67	44
22.7016	23.9804	70	53
23.3282	23.9804	50	36
23.9547	25.232	55	23
23.9547	25.232	58	23
23.9547	25.208	62	34
24.2626	24.8928	74	54
24.5777	25.232	48	34
24.5777	25.232	63	35
24.5777	25.232	69	35
24.5777	25.208	72	56
24.8928	25.232	74	52
25.208	27.8666	50	39
25.208	25.8496	62	35
25.208	26.1705	67	35
25.208	26.5295	72	55
25.5288	26.502	70	47
25.8496	26.5295	58	32
25.8496	26.5295	62	32
25.8496	26.5295	69	50
26.1705	26.5295	67	49
26.502	27.8666	61	31
26.502	27.8666	64	35
26.502	27.8666	70	52
27.1613	29.6844	60	30
27.1613	27.8666	63	29
27.1613	27.8666	66	32
27.4965	27.8666	69	39
27.8394	28.4916	55	28
27.8394	29.6844	62	40
27.8394	29.4846	67	48
28.1655	29.6844	58	32
28.4916	29.6844	55	30
28.8231	29.6844	50	30
29.162	29.7939	43	30
29.4846	29.7939	67	67
29.7939	30.4196	69	69
30.0967	30.4196	70	66
30.406	31.634	51	52
30.406	31.634	72	69
30.703	31.634	74	70
31.0076	31.634	65	49
31.0076	31.634	75	72
31.3046	31.634	77	74
31.6092	32.8341	53	44
31.6092	32.8341	57	44
31.6092	32.8341	60	52
31.6092	32.8341	79	75
31.9067	32.8341	81	72
32.198	32.8341	82	79
32.495	32.8341	84	77
32.812	34.0405	50	67
32.812	34.0405	77	75
33.4091	34.0405	65	58
34.0152	35.2568	53	49
34.0152	35.2568	58	49
34.0152	35.2568	62	58
34.3182	35.2568	77	73
34.6259	35.2568	79	75
34.9172	35.2568	82	73
35.2268	36.4626	48	57
35.2268	36.4626	75	70
35.8268	36.4626	65	53
36.4359	37.6797	53	44
36.4359	37.6797	57	44
36.4359	37.6797	63	52
36.7405	37.6797	75	67
37.0414	37.6797	77	71
37.3423	37.6797	81	67
37.6538	38.9243	46	53
37.6538	38.9243	74	60
38.2767	38.9243	65	49
38.8996	40.1433	53	37
38.8996	40.1433	58	37
38.8996	40.1433	62	44
39.2111	39.5172	67	68
39.5172	40.1433	69	69
39.8127	40.1433	70	69
40.1173	41.354	51	52
40.1173	41.354	72	69
40.4298	41.354	74	70
40.7239	41.354	65	49
40.7239	41.354	75	72
41.0269	41.354	77	74
41.33	42.5658	53	44
41.33	42.5658	57	44
41.33	42.5658	60	52
41.33	42.5658	79	75
41.633	42.5658	81	72
41.9243	42.5658	82	79
42.2304	42.5658	84	77
42.5474	43.7682	50	67
42.5474	43.7682	74	75
43.1451	43.7682	66	58
43.7481	44.9708	54	44
43.7481	44.9708	57	44
43.7481	44.9708	62	52
44.0496	44.9708	74	73
44.3471	44.9708	76	75
44.6398	44.9708	78	72
44.9497	46.1845	50	55
44.9497	46.1845	79	77
45.5467	46.1845	62	53
46.1589	47.3987	55	44
46.1589	47.3987	58	52
46.4651	47.3987	74	67
46.766	47.3987	72	70
47.063	47.3987	70	67
47.3745	48.6205	50	53
47.3745	48.6205	78	63
47.9866	48.6205	62	41
48.5988	49.8442	57	35
48.5988	49.8442	60	41
48.9049	49.8442	72	61
49.2058	49.8442	70	63
49.5067	49.8442	69	61
49.82	51.0648	50	53
49.82	51.0648	79	68
50.1261	50.3557	74	61
50.2792	51.0444	75	45
50.3557	50.7383	74	47
50.4322	51.0648	62	44
50.4322	51.0648	73	63
50.7383	51.0648	74	60
51.0444	52.2763	55	37
51.0444	52.2763	58	44
51.0444	52.2763	75	63
51.3505	52.2763	74	60
51.6566	52.2763	70	63
51.9627	52.5824	67	60
52.2763	52.4293	50	46
52.2763	52.4293	57	46
52.2763	52.8833	74	63
52.5824	53.5284	67	53
52.8833	53.5284	66	52
52.8833	54.7947	74	68
53.1905	53.5284	63	51
53.5013	53.8257	62	50
53.8257	54.7947	60	48
53.8257	54.7947	62	53
54.15	54.7947	58	47
54.15	54.7947	64	54
54.4664	54.7947	57	46
54.4664	54.7947	66	56
54.7749	56.0037	43	40
54.7749	55.9793	55	40
54.7749	56.0037	67	57
55.0719	56.0037	69	59
55.3765	56.0037	50	37
55.3765	56.0037	70	61
55.6748	56.0037	72	63
55.9793	57.2401	55	34
55.9793	57.2401	58	34
55.9793	57.2401	62	40
55.9793	57.2152	74	65
56.3037	56.8891	79	68
56.5935	57.2401	45	45
56.5935	57.2401	78	66
56.8891	57.2401	79	64
57.2152	58.4497	46	44
57.2152	58.4497	74	53
57.8122	58.4497	55	38
58.4244	59.6738	62	29
58.4244	59.0378	67	35
58.7287	59.6985	74	56
59.0378	59.6985	48	35
59.0378	59.6985	63	31
59.0378	59.6738	67	31
59.0378	59.6985	69	59
59.3529	59.6985	72	56
59.6738	60.9304	50	42
59.6738	60.9046	62	45
59.6738	60.9304	67	45
59.6738	60.9304	70	53
59.9708	60.5918	63	50
60.2789	60.9046	55	31
60.2789	60.9046	58	31
60.2789	60.9304	61	50
60.5918	60.9304	63	49
60.9046	62.1827	55	33
60.9046	62.1578	58	38
60.9046	62.1827	62	45
61.2143	62.1827	70	53
61.5275	62.1827	50	42
61.5275	62.1827	60	46
61.5275	62.1827	66	57
61.8427	62.1827	69	53
62.1578	64.6325	43	46
62.1578	63.4245	58	47
62.1578	63.4245	67	53
62.4563	63.0821	51	42
62.766	63.4245	49	44
63.0821	63.4245	51	42
63.3981	64.6582	50	39
63.7142	64.6582	62	52
64.0203	64.6582	60	48
64.0203	64.6582	64	54
64.3264	64.6582	66	55
64.6325	65.8775	43	40
64.6325	65.8509	58	51
64.6325	65.8775	67	57
64.9418	65.8775	69	59
65.2418	65.8775	50	37
65.2418	65.8775	70	61
65.5463	65.8775	72	63
65.8509	67.0953	55	34
65.8509	67.0953	58	34
65.8509	67.0953	62	40
65.8509	67.0749	74	68
66.17	66.754	79	63
66.4599	67.0953	45	42
66.4599	67.0749	65	33
66.4599	67.0953	72	36
66.4599	67.0953	75	40
66.4599	67.0953	77	61
66.754	67.0953	79	59
67.0749	68.3087	46	44
67.0749	68.2872	65	46
67.0749	68.3087	70	46
67.0749	68.3087	74	55
67.6871	68.3087	53	41
68.2872	69.5621	58	30
68.2872	69.5621	62	30
68.2872	69.5621	65	42
68.5915	69.2157	77	60
68.9006	69.5621	43	41
68.9006	69.5366	63	50
68.9006	69.5621	70	50
68.9006	69.5621	74	50
68.9006	69.5621	75	63
69.2157	69.5621	77	58
69.5366	70.785	45	44
69.5366	70.7609	63	50
69.5366	70.785	69	50
69.5366	70.785	72	60
70.1487	70.785	57	39
70.7609	72.0338	60	33
70.7609	72.0338	63	33
70.7609	72.0103	67	39
71.0653	71.6894	75	55
71.3743	72.0338	42	36
71.3743	72.0103	62	37
71.3743	72.0338	69	37
71.3743	72.0338	72	38
71.3743	72.0338	74	56
71.6894	72.0338	75	50
72.0103	73.2814	43	39
72.0103	73.2634	62	44
72.0103	73.2814	67	44
72.0103	73.2814	70	53
72.6369	73.2814	50	36
73.2634	74.5487	55	23
73.2634	74.5487	58	23
73.2634	74.5271	62	34
73.5713	74.2063	74	54
73.8921	74.5487	48	34
73.8921	74.5487	63	35
73.8921	74.5487	69	35
73.8921	74.5271	72	56
74.2063	74.5487	74	52
74.5271	77.5106	50	39
74.5271	75.1723	62	35
74.5271	75.4949	67	35
74.5271	75.8523	72	55
74.8497	75.8246	70	51
75.1723	75.8523	58	27
75.1723	75.8523	62	32
75.1723	75.8523	69	50
75.4949	75.8523	67	49
75.8246	77.1754	61	31
75.8246	77.1754	64	35
75.8246	77.1754	70	52
76.4912	77.1754	60	30
76.4912	77.1754	63	29
76.4912	77.1754	66	32
76.8246	77.1754	69	39
77.1754	79.5113	59	34
77.1754	78.091	62	34
77.1754	78.3781	67	48
77.5106	78.6559	43	25
77.5106	78.091	50	30
77.8106	78.3781	71	42
77.8106	78.9402	74	50
78.091	78.6559	50	24
78.091	79.5113	55	24
78.091	79.2129	62	29
78.3781	79.5113	67	37
78.3781	78.9402	71	44
78.6559	79.5113	43	24
78.6559	79.2129	50	29
78.9402	79.5113	71	41
78.9402	79.5113	74	49
79.2129	79.7514	50	24
79.2129	80.2735	54	24
79.2129	80.2735	62	29
79.4894	80.5373	72	44
79.4894	80.5585	76	52
79.7514	80.5585	43	29
79.7514	80.2735	50	29
80.0193	80.5585	66	39
80.0193	80.5373	69	47
80.2735	80.7915	50	24
80.2735	81.5797	54	24
80.2735	81.3044	62	29
80.2735	80.5585	67	39
80.2735	80.5585	71	47
80.5373	81.5797	69	41
80.5373	81.0513	72	49
80.7915	81.5797	43	25
80.7915	81.3044	50	30
81.0513	81.5797	72	39
81.0513	81.5797	76	47
81.3044	81.8224	50	25
81.3044	82.0953	55	25
81.3044	82.0953	62	30
81.5576	82.0953	71	43
81.5576	82.0953	74	51
81.8224	82.3245	43	25
81.8224	82.3245	50	30
82.0745	83.0872	76	44
82.0745	83.6114	79	52
82.3245	82.8308	50	25
82.3245	83.6114	55	25
82.3245	83.3383	62	30
82.5798	83.5947	74	41
82.5798	83.6114	78	49
82.8308	83.6114	43	25
82.8308	83.3383	50	30
83.0872	83.6114	72	41
83.0872	83.6114	76	49
83.3383	83.8457	50	25
83.3383	84.3641	54	25
83.3383	84.3641	62	30
83.5947	84.3641	71	41
83.5947	84.6472	74	49
83.8457	84.6472	43	25
83.8457	84.3641	50	30
84.1033	84.6472	66	38
84.1033	84.625	69	46
84.3641	84.8917	50	25
84.3641	85.7147	54	25
84.3641	85.4365	62	30
84.3641	84.6472	67	38
84.3641	84.6472	71	46
84.625	85.7147	69	39
84.625	85.7147	72	47
84.8917	85.7147	43	25
84.8917	85.4365	50	30
85.1583	85.7147	70	41
85.1583	85.7147	73	49
85.4365	85.9793	50	24
85.4365	85.9793	55	24
85.4365	85.9793	62	29
85.7147	85.9793	71	42
85.7147	85.9793	74	50
85.9793	86.244	43	23
85.9793	86.244	50	28
86.244	87.2518	62	59
86.244	86.7534	71	60
86.244	87.2518	74	71
86.497	87.8215	52	64
86.7534	87.8215	59	52
86.7534	87.8215	67	52
86.7534	87.2518	71	62
86.9999	87.8215	43	41
86.9999	87.8215	50	50
87.2518	87.8215	62	58
87.2518	87.8215	71	59
87.2518	87.8215	74	70
87.4993	88.2647	55	67
87.7512	88.2647	64	59
87.7512	88.2647	72	60
87.7512	88.2647	76	71
87.9956	88.2647	43	40
87.9956	88.2647	50	49
87.9956	88.2647	54	49
88.2443	89.3075	66	56
88.2443	88.7395	69	66
88.4898	89.3075	63	61
88.4898	89.3075	67	56
88.4898	89.3075	71	66
88.7395	89.3075	69	59
88.7395	89.2357	72	68
88.986	89.3075	55	44
88.986	89.3075	57	44
88.986	89.3075	62	52
89.2357	90.2493	64	57
89.2357	90.2493	72	56
89.2357	90.2292	76	67
89.4854	90.2493	66	66
89.7395	90.2493	62	63
89.7395	90.2493	71	63
89.7395	90.2493	74	75
89.9805	90.2292	67	56
90.2292	90.8144	67	64
90.2292	90.8144	76	66
90.2292	90.8144	79	78
90.4711	91.2564	58	67
90.7219	91.2564	66	61
90.7219	91.2564	74	62
90.7219	91.2564	78	73
90.9658	91.2564	59	55
91.2166	91.7348	64	61
91.2166	91.7348	72	62
91.2166	91.7348	76	74
91.4615	92.2218	56	69
91.7146	92.2218	62	61
91.7146	92.2218	71	62
91.7146	92.2218	74	74
91.9575	92.2014	57	60
92.2014	92.8155	57	60
92.2014	92.8155	66	58
92.2014	92.6965	69	69
92.4477	93.3936	51	71
92.4477	92.8155	59	60
92.4477	92.8155	67	58
92.4477	92.8155	71	69
92.6965	93.3936	60	61
92.6965	93.3936	69	62
92.6965	93.1989	72	74
92.9473	93.3936	50	64
93.1989	93.7095	64	68
93.1989	93.7095	72	69
93.1989	93.7095	76	82
93.4542	93.8415	42	78
93.7095	93.8415	62	78
93.7095	93.8415	71	78
93.7095	93.8415	74	92
93.9735	94.1054	43	74
93.9735	94.1054	67	71
93.9735	94.1054	71	71
93.9735	94.1054	74	84
94.2374	95.2608	52	63
94.2374	95.2608	59	78
94.2374	95.2608	64	78
94.2374	95.2608	67	77
94.2374	95.2608	71	77
94.2374	95.2608	79	90
94.7514	95.2608	55	75
95.0083	95.2608	76	83
95.2608	95.3905	59	59
95.2608	95.3905	62	72
95.2608	95.3905	66	73
95.2608	95.3905	71	73
95.2608	95.3905	78	86
95.5201	95.6497	50	55
95.5201	95.6497	54	55
95.5201	95.6497	59	63
95.5201	95.6497	66	67
95.5201	95.6497	71	81
95.7793	96.8039	48	63
95.7793	96.8039	55	78
95.7793	96.8039	60	78
95.7793	96.8039	64	77
95.7793	96.8039	67	77
95.7793	96.8039	76	90
96.2933	96.8039	52	75
96.5503	96.8039	72	77
96.8039	96.9335	55	59
96.8039	96.9335	59	72
96.8039	96.9335	62	73
96.8039	96.9335	67	73
96.8039	96.9335	74	86
97.0631	97.1927	67	81
97.3223	98.3414	47	56
97.3223	98.3414	50	56
97.3223	98.3414	59	64
97.3223	98.3414	62	77
97.3223	98.3414	67	56
97.3223	98.3414	74	90
97.832	98.3414	46	57
97.832	98.3414	58	67
98.0831	98.3414	61	71
98.0831	98.3414	73	83
98.3341	98.8362	45	57
98.3341	98.8362	51	57
98.3341	98.8362	57	69
98.3341	98.8362	60	71
98.3341	98.8362	66	71
98.3341	98.8362	72	82
98.8362	98.9641	44	46
98.8362	98.9641	50	55
98.8362	98.9641	56	64
98.8362	98.9641	59	60
98.8362	98.9641	65	71
98.8362	98.9641	71	83
99.0914	99.2217	50	44
99.0914	99.2217	56	61
99.0914	99.2217	59	61
99.0914	99.2217	65	55
99.0914	99.2217	68	64
99.0914	99.2217	71	64
99.0914	99.2217	77	79
99.3519	99.8561	48	55
99.3519	99.8561	57	64
99.3519	99.8561	60	64
99.3519	99.8561	64	72
99.3519	99.604	69	72
99.3519	99.8561	76	84
99.604	99.8561	69	79
99.8561	99.98	50	55
99.8561	99.98	55	59
99.8561	99.98	59	71
99.8561	99.98	62	70
99.8561	99.98	67	73
99.8561	99.98	74	85
100.104	100.357	55	61
100.357	101.515	62	77
100.616	101.122	71	75
100.867	101.383	50	61
100.867	101.383	60	57
100.867	101.383	66	61
100.867	101.383	69	76
101.122	101.383	71	75
101.383	101.515	55	66
101.383	101.515	59	76
101.383	101.515	67	76
101.647	101.778	55	62
101.647	101.778	59	62
101.647	101.778	62	74
101.647	101.778	67	71
101.647	101.778	71	71
101.647	101.778	74	84
101.91	102.941	52	63
101.91	102.934	59	78
101.91	102.941	64	78
101.91	102.941	67	77
101.91	102.934	71	77
101.91	102.941	79	90
102.424	102.941	55	75
102.681	102.941	76	83
102.934	103.064	59	59
102.934	103.064	62	72
102.934	103.064	66	73
102.934	103.064	71	73
102.934	103.064	78	86
103.193	103.323	50	55
103.193	103.323	54	55
103.193	103.323	59	63
103.193	103.323	66	67
103.193	103.323	71	81
103.452	104.5	48	63
103.452	104.477	55	78
103.452	104.5	60	78
103.452	104.5	64	77
103.452	104.477	67	77
103.452	104.5	76	90
103.966	104.5	52	75
104.223	104.5	72	78
104.477	104.607	55	59
104.477	104.607	59	72
104.477	104.607	62	73
104.477	104.607	67	73
104.477	104.607	74	86
104.736	104.866	67	81
104.995	106.034	47	56
104.995	106.034	50	56
104.995	106.034	59	64
104.995	106.034	62	77
104.995	106.034	67	56
104.995	106.034	74	90
105.507	106.034	46	50
105.507	106.034	58	60
105.765	106.019	61	71
105.765	106.034	73	83
106.019	107.051	49	58
106.019	107.051	55	58
106.019	107.051	61	69
106.019	107.051	64	80
106.019	107.051	70	62
106.019	107.051	76	95
106.525	107.051	48	49
106.525	107.051	54	48
106.525	107.051	60	59
106.525	107.051	69	73
106.78	107.03	63	70
106.78	107.051	75	82
107.03	108.049	51	61
107.03	108.049	57	61
107.03	108.049	63	72
107.03	108.049	66	84
107.03	108.049	72	71
107.03	108.049	78	100
107.535	108.049	50	51
107.535	108.049	56	50
107.535	108.049	62	61
107.535	108.049	69	74
107.79	108.038	65	73
107.79	108.049	77	84
108.038	108.86	53	63
108.038	108.86	59	63
108.038	108.86	65	75
108.038	108.86	68	86
108.038	108.86	74	72
108.038	108.86	80	104
108.541	108.973	52	58
108.541	108.973	58	56
108.541	108.973	64	69
108.541	109.04	73	80
108.797	108.973	67	81
108.797	108.973	79	95
108.973	111.836	55	50
108.985	109.24	58	53
108.996	109.251	61	55
109.007	109.262	64	57
109.018	109.273	67	59
109.029	109.284	70	74
109.04	109.295	73	77
109.051	109.306	76	79
109.062	109.584	82	99
109.24	111.836	58	48
109.251	109.506	61	51
109.262	109.517	64	52
109.273	109.528	67	56
109.284	109.54	70	58
109.295	109.551	73	74
109.306	109.562	76	78
109.318	109.573	79	80
109.329	109.85	85	94
109.506	111.836	61	52
109.517	109.773	64	56
109.528	109.784	67	56
109.54	109.795	70	59
109.551	109.806	73	60
109.562	109.817	76	75
109.573	109.828	79	80
109.584	109.839	82	82
109.595	110.117	88	99
109.773	111.836	64	50
109.784	110.039	67	52
109.795	110.05	70	53
109.806	110.061	73	56
109.817	110.072	76	58
109.828	110.084	79	74
109.839	110.095	82	78
109.85	110.106	85	80
109.862	110.389	91	95
110.039	111.836	67	53
110.05	110.308	70	55
110.061	110.32	73	56
110.072	110.331	76	58
110.084	110.343	79	59
110.095	110.354	82	79
110.106	110.366	85	82
110.117	110.378	88	84
110.128	110.682	94	99
110.308	111.836	70	51
110.32	110.592	73	53
110.331	110.605	76	53
110.343	110.618	79	56
110.354	110.631	82	57
110.366	110.644	85	75
110.378	110.657	88	79
110.389	110.669	91	81
110.401	111.309	97	94
110.592	111.836	73	51
110.605	111.21	76	53
110.618	111.224	79	55
110.631	111.238	82	58
110.644	111.252	85	59
110.657	111.266	88	78
110.669	111.28	91	83
110.682	111.294	94	86
110.695	111.836	100	101
111.21	111.888	76	50
111.224	111.888	79	53
111.238	111.888	82	55
111.252	111.888	85	57
111.266	111.888	88	59
111.28	111.888	91	78
111.294	111.888	94	82
111.309	111.888	97	85
111.323	111.888	103	99
113.009	113.168	52	72
113.327	113.49	49	71
113.652	113.815	46	70
113.977	114.646	45	74
114.646	115.314	43	72
115.314	117.385	42	71
116.043	117.385	50	51
116.043	117.385	57	51
116.043	117.385	62	62
116.043	117.385	69	62
116.043	117.385	72	62
116.043	117.385	74	62
117.385	117.706	62	53
117.706	118.023	64	54
118.023	118.335	66	56
118.335	119.582	43	40
118.335	119.582	67	57
118.644	119.582	69	59
118.946	119.582	50	37
118.946	119.582	70	61
119.255	119.582	72	63
119.564	120.5	55	34
119.564	119.879	58	34
119.564	120.845	62	40
119.564	120.819	74	65
119.879	120.845	58	49
119.879	120.5	79	68
120.184	120.845	57	50
120.184	120.845	78	66
120.5	120.845	55	48
120.5	120.845	79	64
120.819	122.064	46	36
120.819	122.064	50	36
120.819	122.064	54	43
120.819	122.064	74	53
121.122	122.064	55	48
121.431	122.064	58	52
121.734	122.064	60	48
122.045	123.295	62	52
122.35	123.32	74	56
122.659	123.32	48	35
122.659	123.32	63	31
122.659	123.295	67	31
122.659	123.32	69	59
122.974	123.32	72	51
123.295	124.545	50	42
123.295	124.533	62	45
123.295	124.545	67	45
123.295	124.545	70	53
123.597	124.218	63	50
123.906	124.533	55	31
123.906	124.533	58	31
123.906	124.545	61	50
124.218	124.545	63	39
124.533	125.801	55	34
124.533	125.786	58	34
124.533	125.801	62	40
124.842	125.801	70	53
125.155	125.801	50	42
125.155	125.801	60	46
125.155	125.801	66	57
125.471	125.801	69	49
125.786	128.264	43	46
125.786	127.057	58	47
125.786	127.057	67	53
126.088	126.714	51	42
126.398	127.057	49	44
126.714	127.057	51	32
127.03	128.286	50	35
127.346	128.286	62	52
127.652	128.286	60	48
127.652	128.286	64	54
127.958	128.286	66	55
128.264	129.509	43	40
128.264	129.482	58	51
128.264	129.509	67	57
128.573	129.509	69	59
128.873	129.509	50	37
128.873	129.509	70	61
129.178	129.509	72	63
129.482	130.396	55	34
129.482	129.805	58	34
129.482	130.74	62	40
129.482	130.717	74	68
129.805	130.74	58	50
129.805	130.396	79	63
130.096	130.74	57	53
130.096	130.717	65	33
130.096	130.74	72	36
130.096	130.74	75	40
130.096	130.74	77	61
130.396	130.74	55	49
130.396	130.74	79	59
130.717	131.949	46	44
130.717	131.949	53	38
130.717	131.923	65	46
130.717	131.949	70	46
130.717	131.949	74	55
131.01	131.949	55	49
131.308	131.949	58	52
131.611	131.949	62	49
131.923	133.192	65	52
132.227	132.851	77	60
132.536	133.192	43	41
132.536	133.172	63	50
132.536	133.192	70	50
132.536	133.192	74	50
132.536	133.192	75	63
132.851	133.192	77	58
133.172	134.411	45	44
133.172	134.386	63	50
133.172	134.411	69	50
133.172	134.411	72	60
133.469	134.411	55	44
133.775	134.411	57	48
134.074	134.411	60	45
134.386	135.663	63	41
134.69	135.314	75	55
134.999	135.663	42	36
134.999	135.635	62	37
134.999	135.663	69	37
134.999	135.663	72	38
134.999	135.663	74	56
135.314	135.663	75	50
135.635	136.908	43	42
135.635	136.883	62	47
135.635	136.908	67	47
135.635	136.908	70	56
135.952	136.908	50	37
136.257	136.908	55	43
136.567	136.908	58	39
136.883	138.135	62	38
137.191	137.817	74	57
137.506	138.148	48	36
137.506	138.148	63	37
137.506	138.148	69	37
137.506	138.135	72	59
137.817	138.148	74	55
138.135	140.773	50	42
138.135	138.767	62	37
138.135	139.087	67	37
138.135	139.432	72	58
138.449	139.415	70	54
138.767	139.432	58	34
138.767	139.432	62	34
138.767	139.432	69	53
139.087	139.432	67	52
139.415	140.773	61	33
139.415	140.773	64	37
139.415	140.773	70	55
140.071	142.585	60	32
140.071	140.773	63	31
140.071	140.773	66	34
140.399	140.773	69	42
140.746	141.398	55	30
140.746	142.585	62	43
140.746	142.387	67	51
141.068	142.585	58	36
141.398	142.585	55	37
141.728	142.585	50	36
142.057	142.693	43	36
142.387	142.693	67	68
142.693	143.308	69	69
142.989	143.308	70	69
143.292	144.53	51	52
143.292	144.53	72	69
143.601	144.53	74	70
143.896	144.53	65	49
143.896	144.53	75	72
144.196	144.53	77	74
144.503	145.733	53	44
144.503	145.733	57	44
144.503	145.733	60	52
144.503	144.8	79	75
144.8	145.733	81	72
145.098	145.733	82	79
145.404	145.733	84	77
145.721	146.936	50	67
145.721	146.936	77	75
146.025	146.936	53	60
146.318	146.936	58	63
146.609	146.936	62	59
146.911	148.13	65	66
147.208	148.13	77	73
147.505	148.13	53	44
147.505	148.13	58	44
147.505	148.13	62	52
147.505	148.13	79	75
147.798	148.13	82	73
148.108	149.304	48	57
148.108	149.304	75	70
148.404	149.304	53	53
148.692	149.304	57	58
148.984	149.304	63	54
149.279	150.515	65	57
149.58	150.515	75	67
149.885	150.515	53	39
149.885	150.515	57	39
149.885	150.515	63	47
149.885	150.515	77	71
150.182	150.515	81	67
150.493	151.742	46	53
150.493	151.742	74	60
150.802	151.742	53	50
151.099	151.742	58	53
151.407	151.742	62	48
151.724	152.94	65	47
152.028	152.34	67	68
152.324	152.94	53	34
152.324	152.94	58	34
152.324	152.94	62	41
152.324	152.94	69	69
152.618	152.94	70	69
152.921	154.151	51	52
152.921	154.151	72	69
153.215	154.151	74	70
153.518	154.151	65	49
153.518	154.151	75	72
153.822	154.151	77	74
154.127	155.363	53	44
154.127	155.363	57	44
154.127	155.363	60	52
154.127	155.363	79	75
154.424	155.363	81	72
154.722	155.363	82	79
155.028	155.363	84	77
155.345	156.552	50	67
155.345	156.552	74	75
155.636	156.552	54	60
155.933	156.552	57	64
156.232	156.552	62	62
156.527	157.751	66	58
156.823	157.751	74	73
157.12	157.751	57	39
157.12	157.751	62	47
157.12	157.751	76	75
157.418	157.751	78	72
157.728	158.968	50	55
157.728	158.968	79	77
158.029	158.968	55	52
158.334	158.968	58	58
158.636	158.968	62	53
158.943	160.182	67	57
159.25	160.182	74	67
159.55	160.182	55	32
159.55	160.182	62	36
159.55	160.182	72	69
159.851	160.182	70	67
160.163	161.395	50	53
160.163	161.395	78	63
160.463	161.395	54	36
160.77	161.395	57	43
161.072	161.395	62	38
161.377	162.62	66	43
161.679	162.62	72	61
161.98	162.62	57	35
161.98	162.62	60	35
161.98	162.62	62	35
161.98	162.62	70	63
162.281	162.62	69	61
162.594	163.832	50	53
162.594	163.832	79	68
162.893	163.832	55	44
162.893	163.121	74	61
163.045	163.807	75	45
163.121	163.502	74	47
163.197	163.832	58	46
163.197	163.832	73	63
163.502	163.832	62	44
163.502	163.832	74	60
163.807	164.725	67	44
163.807	165.038	75	63
164.113	165.038	74	60
164.419	165.038	55	44
164.419	165.038	58	44
164.419	165.038	62	44
164.419	165.038	70	63
164.725	165.345	67	60
165.038	166.271	50	46
165.038	166.271	57	46
165.038	165.645	74	63
165.345	166.271	67	53
165.645	166.271	66	52
165.645	167.544	74	68
165.948	166.271	63	51
166.251	166.572	62	50
166.572	167.544	60	48
166.572	167.544	62	53
166.892	167.544	58	47
166.892	167.544	64	54
167.207	167.544	57	46
167.207	167.544	66	56
167.518	168.796	43	40
167.518	168.796	67	57
167.832	168.796	69	59
168.147	168.796	50	37
168.147	168.796	70	61
168.453	168.796	72	63
168.766	169.701	55	34
168.766	169.08	58	34
168.766	170.034	62	40
168.766	170.02	74	65
169.08	170.034	58	49
169.08	169.701	79	68
169.385	170.034	57	52
169.385	170.034	78	66
169.701	170.034	55	48
169.701	170.034	79	64
170.02	171.256	46	36
170.02	171.256	50	36
170.02	171.256	54	43
170.02	171.256	74	53
170.319	171.256	55	48
170.624	171.256	58	52
170.927	171.256	60	50
171.239	172.488	62	52
171.543	172.513	74	56
171.852	172.513	48	35
171.852	172.513	63	31
171.852	172.488	67	31
171.852	172.513	69	59
172.167	172.513	72	51
172.488	173.751	50	42
172.488	173.724	62	45
172.488	173.751	67	45
172.488	173.751	70	53
172.791	173.412	63	50
173.099	173.724	55	31
173.099	173.724	58	31
173.099	173.751	61	50
173.412	173.751	63	39
173.724	174.995	55	34
173.724	174.978	58	34
173.724	174.995	62	40
174.034	174.995	70	53
174.347	174.995	50	42
174.347	174.995	60	46
174.347	174.995	66	57
174.662	174.995	69	49
174.978	177.444	43	46
174.978	176.248	58	47
174.978	176.248	67	53
175.28	175.905	51	42
175.589	176.248	49	44
175.905	176.248	51	32
176.221	177.457	50	35
176.538	177.457	62	52
176.844	177.457	60	48
176.844	177.457	64	54
177.139	177.457	66	55
177.444	178.681	43	40
177.444	178.656	58	51
177.444	178.681	67	57
177.742	178.681	69	59
178.047	178.681	50	37
178.047	178.681	70	61
178.351	178.681	72	63
178.656	179.573	55	34
178.656	178.967	58	34
178.656	179.908	62	40
178.656	179.886	74	68
178.967	179.908	58	50
178.967	179.573	79	63
179.267	179.908	45	40
179.267	179.908	57	53
179.267	179.886	65	33
179.267	179.908	72	36
179.267	179.908	75	40
179.267	179.908	77	61
179.573	179.908	55	49
179.573	179.908	79	59
179.886	181.119	46	44
179.886	181.119	53	38
179.886	181.094	65	46
179.886	181.119	70	46
179.886	181.119	74	55
180.195	181.119	55	49
180.494	181.119	58	51
180.791	181.119	62	49
181.094	182.359	65	52
181.398	182.022	77	60
181.707	182.359	43	41
181.707	182.343	63	50
181.707	182.359	70	50
181.707	182.359	74	50
181.707	182.359	75	63
182.022	182.359	77	58
182.343	183.584	45	44
182.343	183.556	63	50
182.343	183.584	69	50
182.343	183.584	72	60
182.654	183.584	55	44
182.954	183.584	57	48
183.253	183.584	60	45
183.556	184.833	63	41
183.861	184.485	75	55
184.17	184.833	42	36
184.17	184.806	62	37
184.17	184.833	69	37
184.17	184.833	72	38
184.17	184.833	74	56
184.485	184.833	75	50
184.806	186.08	43	39
184.806	186.054	62	44
184.806	186.08	67	44
184.806	186.08	70	53
185.114	186.08	50	35
185.428	186.08	55	40
185.738	186.08	58	37
186.054	187.307	62	36
186.362	186.992	74	54
186.677	187.332	48	34
186.677	187.332	63	35
186.677	187.332	69	35
186.677	187.307	72	56
186.992	187.332	74	52
187.307	189.912	50	39
187.307	187.941	62	35
187.307	188.258	67	35
187.307	188.611	72	55
187.624	188.581	70	51
187.941	188.611	58	32
187.941	188.611	62	32
187.941	188.611	69	50
188.258	188.611	67	49
188.581	189.912	61	31
188.581	189.912	64	35
188.581	189.912	70	52
189.227	191.803	60	30
189.227	189.912	63	29
189.227	189.912	66	32
189.549	189.912	69	39
189.88	190.517	55	28
189.88	191.803	62	40
189.88	191.803	67	48
190.196	191.803	58	34
190.517	191.803	55	35
190.838	191.786	50	34
191.159	192.395	43	34
191.48	193.026	82	47
191.786	192.998	50	36
191.786	192.395	86	35
191.786	193.026	91	51
192.09	192.998	81	46
192.395	194.816	43	38
192.395	192.998	84	35
192.395	193.026	86	35
192.395	193.026	90	48
192.692	194.241	79	45
192.998	195.424	50	36
192.998	193.601	81	35
192.998	193.601	84	35
192.998	194.241	87	50
193.296	194.21	78	45
193.601	194.21	81	35
193.601	194.21	84	35
193.601	194.241	86	50
193.901	195.424	75	44
194.21	195.424	78	35
194.21	195.424	81	35
194.21	195.449	84	50
194.509	195.449	74	46
194.816	197.281	43	40
194.816	195.449	76	35
194.816	195.449	79	35
194.816	195.449	82	50
195.116	196.057	72	47
195.424	197.281	50	36
195.424	196.057	75	35
195.424	196.057	78	35
195.424	196.057	81	50
195.724	196.332	70	44
196.033	196.643	74	35
196.033	197.281	79	51
196.332	197.281	70	54
196.643	198.508	55	37
196.643	197.878	62	39
196.643	197.281	69	54
196.643	198.508	72	36
196.643	198.508	74	38
196.949	197.281	67	54
197.26	198.508	66	56
197.567	198.508	67	53
197.878	198.508	43	33
197.878	198.508	50	33
197.878	198.508	60	30
197.878	198.508	62	32
197.878	198.508	68	54
198.188	198.508	69	53
198.489	199.729	54	38
198.797	199.751	58	51
199.109	199.751	57	54
199.109	201.013	60	36
199.109	200.35	62	38
199.417	199.751	55	50
199.729	200.35	54	54
200.037	201.013	52	51
200.35	201.013	54	54
200.35	201.013	58	30
200.35	201.013	62	35
200.661	201.013	55	51
200.983	202.836	43	36
200.983	202.836	50	36
201.283	202.836	70	47
201.589	202.197	74	35
201.589	202.836	79	51
201.888	202.808	69	45
202.197	204.641	31	37
202.197	202.808	72	34
202.197	202.836	74	34
202.197	202.836	78	47
202.497	204.059	67	43
202.808	205.253	38	34
202.808	203.417	69	33
202.808	203.417	72	33
202.808	204.059	75	48
203.108	204.03	66	42
203.417	204.03	69	33
203.417	204.03	72	33
203.417	204.059	74	48
203.719	205.253	63	42
204.03	205.253	66	33
204.03	205.253	69	33
204.03	205.278	72	47
204.331	205.278	62	42
204.641	207.113	31	37
204.641	205.278	64	32
204.641	205.278	67	32
204.641	205.278	70	46
204.942	205.886	60	40
205.253	207.113	38	33
205.253	205.886	63	32
205.253	205.886	66	32
205.253	205.886	69	46
205.554	206.162	58	41
205.864	206.473	62	31
205.864	207.113	67	46
206.162	207.113	58	48
206.473	208.348	43	33
206.473	207.709	50	35
206.473	207.113	57	48
206.473	208.348	60	32
206.473	208.348	62	34
206.779	207.113	55	48
207.09	208.348	54	50
207.398	208.348	55	47
207.709	208.348	31	29
207.709	208.348	38	29
207.709	208.348	48	27
207.709	208.348	50	28
207.709	208.348	56	48
208.018	208.348	57	47
208.319	209.56	42	34
208.627	209.578	46	45
208.94	209.578	45	47
208.94	210.856	48	31
208.94	210.207	50	33
209.247	209.578	43	43
209.56	210.207	42	46
209.877	210.856	40	43
210.207	210.856	42	45
210.207	210.856	46	27
210.207	210.856	50	33
210.526	210.856	43	41
210.856	211.213	31	31
211.213	212.128	38	36
211.517	212.128	42	28
211.517	212.128	48	28
211.517	212.117	50	34
211.818	212.719	31	29
212.117	212.719	43	29
212.117	212.719	46	29
212.117	212.707	50	35
212.413	213.31	38	32
212.707	213.31	45	31
212.707	213.288	50	31
212.707	213.31	54	37
212.999	213.872	31	27
213.288	213.872	46	33
213.288	213.861	50	33
213.288	213.872	55	39
213.576	214.438	38	33
213.861	214.425	50	34
213.861	214.438	54	40
213.861	214.438	57	40
214.144	214.994	31	29
214.425	214.994	50	35
214.425	214.994	55	35
214.425	214.994	58	42
214.704	215.563	38	34
214.983	215.563	54	36
214.983	215.563	60	36
214.983	215.541	62	43
215.262	216.109	31	30
215.541	216.109	58	38
215.541	216.092	62	38
215.541	216.109	67	45
215.816	216.657	50	36
216.092	216.657	54	36
216.092	216.657	60	36
216.092	216.643	62	43
216.367	217.224	43	32
216.643	217.224	55	39
216.643	217.224	58	39
216.643	217.201	62	47
216.921	217.769	50	36
217.201	217.769	57	40
217.201	217.756	62	40
217.201	217.769	66	48
217.479	218.329	43	31
217.756	218.329	58	41
217.756	218.307	62	41
217.756	218.329	67	49
218.032	218.873	50	37
218.307	218.851	62	42
218.307	218.873	66	42
218.307	218.873	69	50
218.58	219.412	43	33
218.851	219.412	62	44
218.851	219.412	67	44
218.851	219.412	70	53
219.122	219.963	50	38
219.392	219.963	66	45
219.392	219.963	72	45
219.392	219.941	74	54
219.664	220.507	43	33
219.941	220.507	70	46
219.941	220.479	74	46
219.941	220.507	79	55
220.21	220.875	50	40
220.479	220.875	66	46
220.479	220.875	72	46
220.479	220.875	74	55
220.757	221.593	43	35
220.93	221.593	67	44
220.965	221.593	70	47
221.0	221.572	74	52
221.034	221.593	79	56
221.303	221.976	50	42
221.572	221.976	66	47
221.572	221.976	72	47
221.572	221.976	74	55
221.841	222.671	43	38
222.01	222.671	67	44
222.043	222.671	70	47
222.077	222.671	74	51
222.111	222.671	79	56
222.38	223.106	62	43
222.649	223.106	78	50
222.649	223.106	84	50
222.649	223.106	86	59
222.926	223.77	55	39
223.1	223.77	79	51
223.135	223.77	82	56
223.169	223.745	86	60
223.204	223.77	91	65
223.474	224.207	62	45
223.745	224.207	78	51
223.745	224.207	84	51
223.745	224.207	86	59
224.023	231.875	55	41
224.196	224.741	79	50
224.231	224.775	82	55
224.266	224.809	86	58
224.3	224.843	91	65
224.572	225.115	67	40
224.572	225.115	74	40
224.741	225.284	79	47
224.775	225.318	82	52
224.809	225.352	86	57
224.843	225.386	91	62
225.115	225.658	67	34
225.115	225.658	74	34
225.284	225.829	79	46
225.318	225.864	82	50
225.352	225.898	86	54
225.386	225.932	91	59
225.658	226.209	67	36
225.658	226.209	74	36
225.829	226.383	79	45
225.864	226.418	82	47
225.898	226.453	86	51
225.932	226.488	91	55
226.209	226.769	67	29
226.209	226.769	74	29
226.383	226.947	79	42
226.418	226.982	82	44
226.453	227.018	86	46
226.488	227.053	91	50
226.769	227.341	67	31
226.769	227.341	74	31
226.947	227.522	79	36
226.982	227.558	82	38
227.018	227.594	86	40
227.053	227.631	91	47
227.341	227.923	67	27
227.341	227.923	74	27
227.522	228.106	79	32
227.558	228.143	82	36
227.594	228.179	86	40
227.631	228.216	91	44
227.923	228.516	67	29
227.923	228.516	74	29
228.106	228.76	79	29
228.143	228.854	82	33
228.179	228.947	86	34
228.216	229.041	91	41
228.516	232.041	67	25
228.516	232.041	74	25
228.76	231.875	79	26
228.854	231.875	82	30
228.947	231.875	86	34
229.041	231.875	91	37
