OnsetTime	OffsetTime	MidiPitch	Velocity
0.524989	0.62399	71	66
0.624982	0.721984	69	64
0.725981	0.818986	68	64
0.823989	0.931974	69	64
0.93298	1.14097	57	57
0.93298	1.14097	72	71
1.13498	1.23396	60	43
1.13498	1.23297	64	52
1.34097	1.75897	74	66
1.34497	1.54997	60	43
1.34596	1.54997	64	52
1.44697	1.64897	72	63
1.54898	1.75897	71	63
1.54997	1.75897	60	42
1.54997	1.75897	64	51
1.64897	1.75897	72	63
1.75796	1.96395	76	72
1.75897	1.96395	57	57
1.95396	2.05595	64	52
1.95496	2.05896	60	43
2.16696	2.57295	77	66
2.16795	2.36796	64	52
2.16995	2.37097	60	43
2.26997	2.46896	76	63
2.36696	2.57295	75	63
2.36796	2.57295	64	52
2.37097	2.57295	60	43
2.46896	2.57295	76	63
2.57095	2.96496	83	70
2.57295	2.96595	57	57
2.66896	2.86795	81	64
2.76996	2.96595	60	42
2.76996	2.96595	64	50
2.76996	2.96595	80	64
2.86795	2.96595	81	64
2.96496	3.39296	83	69
2.96595	3.38896	57	57
3.07096	3.27396	81	64
3.16896	3.39296	64	52
3.16896	3.39296	80	64
3.16996	3.39296	60	43
3.27396	3.39296	81	64
3.38896	3.59497	57	57
3.38896	3.81197	84	72
3.59198	3.69697	60	42
3.59198	3.69397	64	50
3.81298	3.91097	64	50
3.81298	3.90997	81	68
3.81597	3.91097	60	42
4.00897	4.12096	64	50
4.00897	4.11997	84	65
4.01197	4.12096	60	42
4.18696	4.21096	79	63
4.21197	4.23598	81	63
4.23697	4.33397	52	65
4.23697	4.33397	83	80
4.43796	4.53296	78	54
4.43896	4.53996	64	53
4.43896	4.53696	81	64
4.44296	4.53996	59	44
4.64195	4.73896	76	58
4.64195	4.73996	79	69
4.64296	4.74295	59	44
4.64296	4.73996	64	53
4.83796	4.94295	78	54
4.83896	4.94295	81	64
4.84096	4.94396	64	53
4.84195	4.94695	59	44
5.01995	5.04095	79	65
5.04095	5.06495	81	65
5.06596	5.16296	83	82
5.06895	5.16395	52	66
5.26195	5.36694	78	56
5.26495	5.36995	81	66
5.26596	5.37095	59	43
5.26596	5.36995	64	52
5.46394	5.56195	76	58
5.46495	5.56295	79	69
5.46794	5.56595	64	52
5.46895	5.56694	59	43
5.66794	5.77194	78	55
5.67094	5.77594	64	52
5.67094	5.77294	81	65
5.67194	5.77693	59	43
5.84194	5.86294	79	64
5.86693	5.91295	81	64
5.88795	5.98594	52	67
5.88795	5.98594	83	79
6.08394	6.19194	78	57
6.08694	6.19294	81	68
6.08793	6.19294	64	52
6.09094	6.19294	59	43
6.29094	6.40193	76	58
6.29094	6.40293	79	69
6.29193	6.40293	47	52
6.50692	6.62691	75	56
6.51092	6.62691	78	66
6.51392	6.62992	59	52
6.74192	7.20092	76	69
6.74492	7.20092	52	57
7.22892	7.32992	71	66
7.32992	7.42791	69	64
7.42892	7.52591	68	64
7.52591	7.64191	69	64
7.64492	7.84492	72	71
7.64591	7.84492	57	57
7.83691	7.93891	64	52
7.84092	7.93891	60	43
8.04691	8.47191	74	66
8.0519	8.25391	60	43
8.0519	8.25391	64	52
8.15592	8.35392	72	63
8.25092	8.47191	71	63
8.25391	8.47191	60	42
8.25391	8.47191	64	51
8.35392	8.47191	72	63
8.4679	8.6699	76	72
8.4709	8.6699	57	57
8.66291	8.76091	64	52
8.6679	8.7649	60	43
8.87389	9.07289	64	52
8.87389	9.27888	77	66
8.8749	9.07389	60	43
8.9739	9.17489	76	63
9.0699	9.27888	75	63
9.07289	9.27888	64	52
9.07389	9.27888	60	43
9.17489	9.27888	76	63
9.27289	9.67587	83	70
9.27589	9.67789	57	57
9.37388	9.58088	81	64
9.47888	9.67888	80	64
9.47989	9.67888	64	50
9.48288	9.67888	60	42
9.58088	9.67888	81	64
9.67587	10.0949	83	69
9.67789	10.0949	57	57
9.77388	9.97988	81	64
9.87787	10.0949	80	64
9.87888	10.0949	64	52
9.88187	10.0949	60	43
9.97988	10.0949	81	64
10.0919	10.5149	84	72
10.0949	10.3019	57	57
10.2939	10.3989	64	50
10.2949	10.3999	60	42
10.5149	10.6199	81	68
10.5189	10.6239	60	42
10.5189	10.6209	64	50
10.7179	10.8229	84	65
10.7189	10.8229	64	50
10.7209	10.8239	60	42
10.8998	10.9169	79	63
10.9179	10.9379	81	63
10.9389	11.0428	83	80
10.9429	11.0439	52	65
11.1418	11.2459	78	54
11.1449	11.2509	64	53
11.1449	11.2468	81	64
11.1458	11.2509	59	44
11.3438	11.4459	76	58
11.3449	11.4459	79	69
11.3478	11.4468	64	53
11.3488	11.4468	59	44
11.5438	11.6558	64	53
11.5438	11.6518	78	54
11.5438	11.6528	81	64
11.5478	11.6568	59	44
11.7218	11.7468	79	65
11.7468	11.7679	81	65
11.7679	11.8698	83	82
11.7718	11.8698	52	66
11.9708	12.0688	78	56
11.9748	12.0738	64	52
11.9748	12.0728	81	66
11.9778	12.0758	59	43
12.1738	12.2748	76	58
12.1738	12.2758	79	69
12.1778	12.2758	64	52
12.1808	12.2788	59	43
12.3728	12.4748	78	55
12.3728	12.4788	81	65
12.3738	12.4818	64	52
12.3768	12.4818	59	43
12.5478	12.5688	79	64
12.5738	12.6148	81	64
12.5938	12.6918	83	79
12.5948	12.6918	52	67
12.7898	12.8948	78	57
12.7898	12.8988	81	68
12.7938	12.8998	59	43
12.7938	12.8988	64	52
12.9928	13.1048	76	58
12.9938	13.1048	79	69
12.9958	13.1048	47	52
13.2098	13.3288	75	56
13.2108	13.3328	59	52
13.2108	13.3318	78	66
13.4588	13.8898	52	57
13.4588	13.8888	76	69
13.9168	14.0258	72	56
13.9178	14.0288	76	56
14.1378	14.2418	74	56
14.1408	14.2428	77	56
14.3478	14.4488	76	66
14.3488	14.4528	48	59
14.3488	14.4528	79	66
14.5568	14.6588	76	57
14.5578	14.6638	60	53
14.5578	14.6628	79	57
14.7638	14.8698	52	59
14.7638	14.8688	81	64
14.8698	15.1948	79	57
14.9668	15.1948	77	57
14.9708	15.1948	64	57
15.0798	15.1948	76	57
15.1908	15.6298	74	65
15.1918	15.6298	55	60
15.1918	15.6298	71	65
15.4078	15.6298	67	59
15.6288	15.7338	72	56
15.6298	15.7368	76	56
15.8448	15.9467	74	56
15.8458	15.9507	77	56
16.0517	16.1567	76	66
16.0517	16.1607	79	66
16.0557	16.1607	48	59
16.2617	16.3667	76	57
16.2617	16.3667	79	57
16.2657	16.3677	60	53
16.4717	16.5767	81	64
16.4727	16.5777	52	59
16.5777	16.9017	79	57
16.6747	16.9017	77	57
16.6757	16.9017	64	57
16.7877	16.9017	76	57
16.8987	17.3367	74	65
16.8997	17.3367	55	60
16.8997	17.3367	71	65
17.3327	17.4447	69	56
17.3367	17.4487	72	56
17.5567	17.6617	71	56
17.5577	17.6617	74	56
17.7737	17.8747	72	66
17.7747	17.8787	45	59
17.7747	17.8787	76	66
17.9807	18.0847	72	57
17.9807	18.0857	76	57
17.9817	18.0857	57	53
18.1897	18.2887	77	64
18.1907	18.2887	48	59
18.2897	18.6177	76	57
18.3937	18.6177	74	57
18.3947	18.6177	60	57
18.5057	18.6177	72	57
18.6137	19.0487	71	65
18.6177	19.0487	52	60
18.6177	19.0487	68	65
18.8306	19.0487	64	59
19.0477	19.1526	69	56
19.0487	19.1557	72	56
19.2616	19.3686	71	56
19.2646	19.3696	74	56
19.4706	19.5766	72	66
19.4746	19.5776	45	59
19.4746	19.5766	76	66
19.6806	19.7856	72	57
19.6846	19.7866	76	57
19.6856	19.7866	57	53
19.8916	19.9966	48	59
19.8916	19.9926	77	64
19.9966	20.3246	76	57
20.0946	20.3246	74	57
20.0976	20.3246	60	57
20.2066	20.3246	72	57
20.3226	20.7556	68	65
20.3226	20.7526	71	65
20.3236	20.7556	52	60
20.7526	20.8466	71	56
20.8506	20.9446	69	56
20.9486	21.0456	68	56
21.0466	21.1616	69	56
21.1616	21.3646	72	59
21.1656	21.3646	57	53
21.3576	21.4596	64	47
21.3586	21.4606	60	47
21.5676	21.7756	60	47
21.5676	21.9906	74	62
21.5716	21.7756	64	47
21.6756	21.8736	72	57
21.7746	21.9906	71	57
21.7756	21.9906	60	47
21.7756	21.9906	64	47
21.8736	21.9906	72	57
21.9886	22.1876	57	54
21.9886	22.1876	76	66
22.1836	22.2826	60	48
22.1836	22.2826	64	48
22.3936	22.7976	77	63
22.3946	22.5936	60	48
22.3946	22.5936	64	48
22.4956	22.6916	76	58
22.5906	22.7976	75	58
22.5936	22.7976	60	48
22.5936	22.7976	64	48
22.6916	22.7976	76	58
22.7966	23.1916	83	70
22.7976	23.1956	57	56
22.9016	23.0986	81	63
22.9966	23.1956	80	63
22.9986	23.1956	64	49
22.9996	23.1956	60	49
23.0986	23.1956	81	63
23.1916	23.6406	83	71
23.1956	23.6406	57	57
23.3006	23.5106	81	64
23.4026	23.6406	80	64
23.4056	23.6406	60	43
23.4056	23.6406	64	52
23.5106	23.6406	81	64
23.6356	24.0596	84	76
23.6396	23.8496	53	57
23.8396	23.9436	57	51
23.8396	23.9406	63	51
24.0596	24.1616	81	62
24.0606	24.1646	63	43
24.0636	24.1646	57	43
24.2656	24.3716	83	62
24.2706	24.3746	57	39
24.2706	24.3726	63	39
24.4836	24.5816	52	46
24.4836	24.5806	84	70
24.6856	24.7846	83	62
24.6866	24.7856	57	42
24.6866	24.7846	64	42
24.8816	24.9866	81	62
24.8826	24.9876	50	42
25.0856	25.1905	59	42
25.0856	25.1905	80	62
25.0886	25.1905	53	42
25.2985	25.4005	81	71
25.3015	25.4005	48	47
25.4985	25.6035	52	39
25.4985	25.6035	57	39
25.4985	25.6025	76	64
25.7015	25.7995	50	41
25.7085	25.8065	77	64
25.9035	26.0095	74	64
25.9045	26.0105	53	41
25.9045	26.0105	59	41
26.1175	26.3245	52	48
26.1175	26.5345	72	74
26.1215	26.3205	57	48
26.3205	26.5375	57	41
26.3245	26.5265	52	41
26.5265	26.7445	52	41
26.5345	26.7475	56	41
26.5345	26.5825	72	64
26.5755	26.6885	71	57
26.6365	26.7515	72	57
26.6885	26.7975	71	57
26.7445	27.0045	52	41
26.7475	27.0045	56	41
26.7515	27.0045	72	57
26.7975	26.9095	71	57
26.8415	27.0035	69	64
26.9095	27.0045	71	57
27.0035	27.4785	45	46
27.0035	27.4475	69	65
27.0045	27.4485	57	46
27.4795	27.5875	72	56
27.4795	27.5885	76	56
27.6925	27.7945	74	56
27.6925	27.7985	77	56
27.9055	28.0115	76	66
27.9105	28.0145	48	59
27.9105	28.0115	79	66
28.1165	28.2215	60	53
28.1165	28.2205	76	57
28.1165	28.2215	79	57
28.3265	28.4245	52	59
28.3265	28.4245	81	64
28.4255	28.7535	79	57
28.5295	28.7535	64	57
28.5295	28.7535	77	57
28.6345	28.7535	76	57
28.7505	29.1905	74	65
28.7535	29.1905	55	60
28.7535	29.1905	71	65
28.9635	29.1905	67	59
29.1865	29.2885	72	56
29.1875	29.2925	76	56
29.3965	29.5015	74	56
29.3975	29.5065	77	56
29.6144	29.7184	76	66
29.6154	29.7194	48	59
29.6154	29.7194	79	66
29.8204	29.9294	76	57
29.8234	29.9294	79	57
29.8244	29.9304	60	53
30.0274	30.1324	52	59
30.0274	30.1284	81	64
30.1324	30.4604	79	57
30.2374	30.4604	77	57
30.2384	30.4604	64	57
30.3424	30.4604	76	57
30.4584	30.8964	71	65
30.4584	30.8964	74	65
30.4594	30.8964	55	60
30.8954	31.0004	69	56
30.8964	31.0044	72	56
31.1184	31.2204	71	56
31.1194	31.2244	74	56
31.3264	31.4314	45	59
31.3264	31.4304	72	66
31.3264	31.4314	76	66
31.5354	31.6404	72	57
31.5354	31.6404	76	57
31.5364	31.6404	57	53
31.7414	31.8474	77	64
31.7464	31.8484	48	59
31.8504	32.1724	76	57
31.9554	32.1724	74	57
31.9564	32.1724	60	57
32.0604	32.1724	72	57
32.1704	32.6074	68	65
32.1704	32.6074	71	65
32.1724	32.6074	52	60
32.3904	32.6074	64	59
32.6064	32.7144	69	56
32.6074	32.7154	72	56
32.8164	32.9284	71	56
32.8204	32.9284	74	56
33.0294	33.1384	72	66
33.0343	33.1393	76	66
33.0363	33.1393	45	59
33.2403	33.3443	72	57
33.2433	33.3453	76	57
33.2443	33.3483	57	53
33.4503	33.5553	77	64
33.4513	33.5553	48	59
33.5583	33.8783	76	57
33.6533	33.8783	74	57
33.6573	33.8783	60	57
33.7663	33.8783	72	57
33.8743	34.3073	71	65
33.8773	34.3083	52	60
33.8773	34.3083	68	65
34.3073	34.4093	71	56
34.4103	34.5073	69	56
34.5083	34.6053	68	56
34.6053	34.7163	69	56
34.7173	34.9273	57	53
34.7173	34.9273	72	59
34.9133	35.0183	60	47
34.9133	35.0173	64	47
35.1263	35.5443	74	62
35.1303	35.3273	60	47
35.1303	35.3303	64	47
35.2293	35.4343	72	57
35.3263	35.5443	71	57
35.3273	35.5443	60	47
35.3303	35.5443	64	47
35.4343	35.5443	72	57
35.5433	35.7493	76	66
35.5443	35.7493	57	54
35.7393	35.8443	64	48
35.7403	35.8443	60	48
35.9553	36.3573	77	63
35.9563	36.1533	60	48
35.9563	36.1523	64	48
36.0573	36.2513	76	58
36.1523	36.3573	64	48
36.1523	36.3573	75	58
36.1533	36.3573	60	48
36.2513	36.3573	76	58
36.3563	36.7553	57	56
36.3563	36.7543	83	70
36.4543	36.6563	81	63
36.5513	36.7573	80	63
36.5553	36.7573	60	49
36.5553	36.7573	64	49
36.6563	36.7573	81	63
36.7543	37.1933	83	71
36.7553	37.1933	57	57
36.8633	37.0653	81	64
36.9573	37.1933	80	64
36.9603	37.1933	64	52
36.9613	37.1933	60	43
37.0653	37.1933	81	64
37.1923	37.4012	53	57
37.1923	37.6182	84	76
37.3913	37.5032	63	51
37.3922	37.5032	57	51
37.6193	37.7162	81	62
37.6213	37.7172	63	43
37.6222	37.7203	57	43
37.8222	37.9342	63	39
37.8222	37.9332	83	62
37.8232	37.9342	57	39
38.0382	38.1442	84	70
38.0392	38.1442	52	46
38.2372	38.3362	83	62
38.2422	38.3402	57	42
38.2422	38.3392	64	42
38.4442	38.5432	50	42
38.4442	38.5422	81	62
38.6402	38.7522	80	62
38.6412	38.7522	59	42
38.6442	38.7532	53	42
38.8532	38.9592	81	71
38.8572	38.9622	48	47
39.0602	39.1662	57	39
39.0602	39.1622	76	64
39.0612	39.1662	52	39
39.2602	39.3582	50	41
39.2632	39.3652	77	64
39.4602	39.5712	59	41
39.4602	39.5672	74	64
39.4612	39.5722	53	41
39.6732	39.8832	52	48
39.6732	40.0862	72	74
39.6762	39.8792	57	48
39.8792	40.0972	57	41
39.8832	40.0792	52	41
40.0792	40.3062	52	41
40.0862	40.1412	72	64
40.0872	40.3072	56	41
40.1392	40.2482	71	57
40.1912	40.3102	72	57
40.2482	40.3592	71	57
40.3062	40.5652	52	41
40.3072	40.5652	56	41
40.3102	40.5652	72	57
40.3592	40.4712	71	57
40.4052	40.5622	69	64
40.4712	40.5652	71	57
40.5622	41.0032	69	65
40.5632	41.0312	45	46
40.5632	41.0032	57	46
41.0312	41.1352	69	73
41.0322	41.1402	81	84
41.2482	41.3491	71	73
41.2492	41.3532	83	84
41.3532	41.3852	45	64
41.3852	41.4192	49	64
41.4232	41.4611	52	64
41.4622	41.8741	73	78
41.4622	41.8741	85	90
41.4651	41.6641	57	73
41.6641	41.7691	57	69
41.8751	41.9761	69	73
41.8781	41.9791	81	84
41.8791	41.9791	57	69
42.0851	42.1901	57	69
42.0851	42.1861	71	73
42.0851	42.1891	83	84
42.1901	42.2211	45	60
42.2221	42.2561	49	60
42.2591	42.2911	52	60
42.2911	42.5081	73	79
42.2941	42.5021	57	72
42.2941	42.5081	85	91
42.5011	42.5991	71	72
42.5021	42.6021	57	64
42.5021	42.6001	83	82
42.7031	42.8081	69	77
42.7041	42.8091	57	65
42.7041	42.8091	81	89
42.9071	43.0231	68	73
42.9081	43.0261	57	67
42.9081	43.0231	80	84
43.0261	43.0581	38	63
43.0611	43.0991	42	63
43.1001	43.1341	45	63
43.1351	43.3471	66	80
43.1351	43.3471	78	92
43.1371	43.3391	50	73
43.3381	43.4451	68	69
43.3381	43.4491	80	78
43.3391	43.4501	50	69
43.4501	43.4771	39	63
43.4781	43.5121	42	63
43.5131	43.5511	45	63
43.5521	43.7671	69	75
43.5541	43.7581	51	73
43.5541	43.7671	81	86
43.7531	43.8661	71	70
43.7571	43.8671	83	80
43.7581	43.8671	51	71
43.8691	43.9041	40	63
43.9041	43.9391	44	63
43.9431	43.9821	47	63
43.9821	44.2901	68	78
43.9831	44.2901	80	90
43.9851	44.1961	52	73
44.1951	44.304	64	73
44.1961	44.311	52	73
44.1961	44.3071	76	84
44.415	44.52	69	73
44.419	44.52	81	84
44.626	44.73	71	73
44.626	44.731	83	84
44.733	44.765	45	64
44.766	44.8	49	64
44.801	44.832	52	64
44.835	45.252	73	78
44.836	45.252	85	90
44.839	45.038	57	73
45.038	45.147	57	69
45.256	45.349	69	73
45.256	45.354	81	84
45.257	45.354	57	69
45.455	45.56	71	73
45.456	45.563	57	69
45.456	45.56	83	84
45.563	45.595	45	60
45.595	45.63	49	60
45.63	45.665	52	60
45.665	45.878	73	79
45.668	45.878	85	91
45.669	45.869	57	72
45.868	45.97	71	72
45.868	45.973	83	82
45.869	45.973	57	64
46.078	46.179	69	77
46.079	46.183	57	65
46.079	46.183	81	89
46.285	46.396	68	73
46.285	46.397	80	84
46.288	46.397	57	67
46.4	46.431	38	63
46.432	46.466	42	63
46.467	46.501	45	63
46.502	46.722	66	80
46.502	46.722	78	92
46.505	46.712	50	73
46.707	46.82	71	69
46.711	46.82	83	78
46.712	46.823	50	69
46.823	46.855	40	63
46.855	46.89	44	63
46.89	46.929	47	63
46.929	47.1659	68	75
46.932	47.1529	52	73
46.932	47.1659	80	86
47.1519	47.2679	64	70
47.1529	47.2679	52	71
47.1529	47.2679	76	80
47.3899	47.8069	69	78
47.3909	47.8079	45	73
47.3909	47.8079	81	90
47.8349	47.9399	69	73
47.8349	47.9439	81	84
48.0519	48.1529	71	73
48.0529	48.1569	83	84
48.1569	48.1889	45	64
48.1889	48.2309	49	64
48.2309	48.2659	52	64
48.2659	48.6779	73	78
48.2669	48.6789	85	90
48.2689	48.4679	57	73
48.4679	48.5739	57	69
48.6789	48.7799	69	73
48.6819	48.7829	81	84
48.6829	48.7829	57	69
48.8889	48.9899	71	73
48.8889	48.9909	83	84
48.8899	48.9929	57	69
48.9939	49.0249	45	60
49.0259	49.0599	49	60
49.0609	49.1019	52	60
49.1019	49.3119	73	79
49.1029	49.3119	85	91
49.1049	49.3059	57	72
49.3049	49.4099	71	72
49.3059	49.4109	57	64
49.3059	49.4099	83	82
49.5119	49.6159	69	77
49.5149	49.6189	57	65
49.5149	49.6169	81	89
49.7139	49.8269	68	73
49.7149	49.8269	80	84
49.7179	49.8299	57	67
49.8299	49.8619	38	63
49.8619	49.8969	42	63
49.8969	49.9309	45	63
49.9319	50.1519	66	80
49.9319	50.1519	78	92
49.9339	50.1429	50	73
50.1419	50.2459	68	69
50.1419	50.2469	80	78
50.1429	50.2469	50	69
50.2479	50.2779	39	63
50.2789	50.3199	42	63
50.3229	50.3549	45	63
50.3559	50.5748	69	75
50.3559	50.5748	81	86
50.3578	50.5648	51	73
50.5638	50.6728	71	70
50.5648	50.6778	51	71
50.5648	50.6768	83	80
50.6778	50.7078	40	63
50.7088	50.7428	44	63
50.7438	50.7858	47	63
50.7858	51.0898	68	78
50.7868	51.0898	80	90
50.7888	50.9998	52	73
50.9958	51.1038	64	73
50.9988	51.1038	76	84
50.9998	51.1048	52	73
51.2118	51.3168	69	73
51.2128	51.3208	81	84
51.4298	51.5338	71	73
51.4298	51.5348	83	84
51.5348	51.5688	45	64
51.5698	51.6008	49	64
51.6038	51.6388	52	64
51.6398	52.0488	73	78
51.6398	52.0488	85	90
51.6408	51.8378	57	73
51.8378	51.9438	57	69
52.0518	52.1538	69	73
52.0518	52.1538	81	84
52.0558	52.1578	57	69
52.2518	52.3638	71	73
52.2528	52.3648	83	84
52.2548	52.3648	57	69
52.3668	52.3988	45	60
52.3988	52.4338	49	60
52.4338	52.4718	52	60
52.4728	52.6888	73	79
52.4758	52.6788	57	72
52.4758	52.6888	85	91
52.6748	52.7808	71	72
52.6788	52.7808	57	64
52.6788	52.7808	83	82
52.8848	52.9868	69	77
52.8898	52.9938	57	65
52.8898	52.9898	81	89
53.0888	53.1968	68	73
53.0888	53.2008	80	84
53.0898	53.2008	57	67
53.2038	53.2348	38	63
53.2358	53.2738	42	63
53.2748	53.3088	45	63
53.3118	53.5288	66	80
53.3128	53.5198	50	73
53.3128	53.5288	78	92
53.5198	53.6308	50	69
53.5198	53.6268	71	69
53.5198	53.6308	83	78
53.6318	53.6687	40	63
53.6687	53.7048	44	63
53.7077	53.7427	47	63
53.7467	53.9808	68	75
53.7477	53.9808	80	86
53.7497	53.9708	52	73
53.9698	54.0857	64	70
53.9708	54.0897	52	71
53.9708	54.0857	76	80
54.2007	54.6207	69	78
54.2047	54.6247	45	73
54.2047	54.6247	81	90
54.6497	54.7707	85	60
54.7607	54.8697	86	52
54.8587	54.9747	85	52
54.9607	55.0857	83	52
55.0727	55.1947	81	58
55.0767	55.1847	54	50
55.1857	55.3007	83	50
55.2897	55.3907	61	37
55.2897	55.4057	81	50
55.2907	55.3917	57	31
55.3947	55.5067	80	50
55.4997	55.6157	78	56
55.5007	55.6007	57	31
55.5007	55.6007	61	37
55.6047	55.7167	81	50
55.7067	55.8177	57	31
55.7067	55.8147	61	37
55.7067	55.8217	80	46
55.8187	55.9267	78	46
55.9227	56.0347	77	58
55.9237	56.0247	56	50
56.0287	56.1437	78	47
56.1297	56.2417	80	49
56.1307	56.2347	61	36
56.1327	56.2347	59	30
56.2357	56.3507	77	46
56.3397	56.4447	61	36
56.3397	56.4547	73	56
56.3437	56.4457	59	30
56.4457	56.5597	75	47
56.5497	56.6517	61	36
56.5497	56.6657	77	50
56.5507	56.6517	59	30
56.6547	56.7667	73	47
56.7597	56.8747	78	56
56.7607	56.8607	54	50
56.8607	56.9836	77	47
56.9737	57.0747	61	36
56.9737	57.0887	78	51
56.9747	57.0787	57	30
57.0787	57.1937	80	48
57.1827	57.2956	81	58
57.1836	57.2846	57	31
57.1836	57.2846	61	37
57.2886	57.4036	80	54
57.3886	57.5046	81	56
57.3896	57.4946	61	38
57.3936	57.4946	57	32
57.4956	57.6106	83	59
57.5996	57.7036	53	55
57.5996	57.7146	85	68
57.7046	57.8196	84	62
57.8096	57.9256	85	66
57.8106	57.9116	56	31
57.8106	57.9116	61	38
57.9146	58.0156	84	59
58.0166	58.1176	61	38
58.0166	58.1276	85	61
58.0196	58.1186	56	31
58.1186	58.2336	86	55
58.2196	58.3416	85	55
58.2226	58.3316	56	31
58.2226	58.3306	61	38
58.3316	58.4536	83	55
58.4396	58.5556	81	58
58.4406	58.5446	54	50
58.5486	58.6596	83	47
58.6486	58.7646	81	53
58.6496	58.7546	61	36
58.6526	58.7546	57	30
58.7556	58.8706	80	47
58.8596	58.9616	61	36
58.8596	58.9746	78	54
58.8606	58.9616	57	30
58.9646	59.0796	81	47
59.0696	59.1856	80	50
59.0706	59.1706	57	30
59.0706	59.1706	61	36
59.1746	59.2866	78	46
59.2836	59.3846	56	50
59.2836	59.3986	76	56
59.3876	59.5036	78	47
59.4926	59.6086	80	50
59.4936	59.5986	61	30
59.4936	59.5946	64	36
59.5986	59.7135	76	47
59.6996	59.8145	73	54
59.7006	59.8046	64	36
59.7026	59.8076	61	30
59.8076	59.9205	75	47
59.9096	60.0215	64	36
59.9096	60.0315	76	53
59.9135	60.0225	61	30
60.0225	60.1365	73	47
60.1225	60.2385	75	53
60.1265	60.2285	56	50
60.2285	60.3435	76	47
60.3325	60.4485	78	51
60.3365	60.4375	66	37
60.3375	60.4375	63	31
60.4385	60.5535	75	47
60.5465	60.6585	72	50
60.5505	60.6515	63	31
60.5505	60.6525	66	37
60.6525	60.7665	73	47
60.7565	60.8795	75	50
60.7595	60.8655	63	31
60.7605	60.8655	66	37
60.8685	60.9945	72	46
60.9835	61.3895	73	52
60.9845	61.3905	61	42
60.9845	61.3905	64	50
61.4175	61.5405	85	60
61.5305	61.6385	86	52
61.6345	61.7505	85	52
61.7365	61.8555	83	52
61.8415	61.9535	54	50
61.8415	61.9635	81	58
61.9545	62.0685	83	50
62.0655	62.1775	81	50
62.0665	62.1675	57	31
62.0665	62.1675	61	37
62.1705	62.2825	80	50
62.2715	62.3875	78	56
62.2725	62.3765	57	31
62.2725	62.3765	61	37
62.3775	62.4925	81	50
62.4825	62.5905	61	37
62.4825	62.5985	80	46
62.4835	62.5935	57	31
62.5945	62.7094	78	46
62.6955	62.8114	77	58
62.6964	62.8044	56	50
62.8075	62.9224	78	47
62.9084	63.0244	80	49
62.9094	63.0174	61	36
62.9134	63.0174	59	30
63.0184	63.1334	77	46
63.1194	63.2234	61	36
63.1194	63.2344	73	56
63.1224	63.2244	59	30
63.2244	63.3394	75	47
63.3284	63.4444	77	50
63.3294	63.4414	59	30
63.3294	63.4414	61	36
63.4424	63.5524	73	47
63.5414	63.6574	78	56
63.5424	63.6474	54	50
63.6474	63.7634	77	47
63.7524	63.8564	61	36
63.7524	63.8684	78	51
63.7534	63.8574	57	30
63.8614	63.9724	80	48
63.9624	64.0784	81	58
63.9634	64.0674	57	31
63.9634	64.0644	61	37
64.0674	64.1834	80	54
64.1764	64.2814	57	32
64.1764	64.2804	61	38
64.1764	64.2914	81	56
64.2814	64.3964	83	59
64.3864	64.4974	85	68
64.3874	64.4904	53	55
64.4914	64.6064	84	62
64.5994	64.7084	85	66
64.6004	64.6974	61	38
64.6024	64.6974	56	31
64.6984	64.8014	84	59
64.8064	64.9084	56	31
64.8064	64.9074	61	38
64.8064	64.9174	85	64
64.9104	65.0234	86	57
65.0124	65.1174	61	38
65.0124	65.1273	85	57
65.0134	65.1174	56	31
65.1174	65.2323	83	57
65.2254	65.3383	81	60
65.2263	65.3304	54	50
65.3304	65.4433	83	51
65.4353	65.5443	81	55
65.4363	65.5343	57	30
65.4363	65.5333	61	36
65.5343	65.6493	80	47
65.6383	65.7533	78	54
65.6393	65.7443	61	36
65.6423	65.7443	57	30
65.7443	65.8593	81	47
65.8483	65.9643	80	50
65.8493	65.9533	57	30
65.8493	65.9503	61	36
65.9533	66.0693	78	46
66.0623	66.1773	76	53
66.0663	66.1673	56	50
66.1683	66.2823	78	47
66.2723	66.3813	80	50
66.2733	66.3773	61	30
66.2733	66.3743	64	36
66.3773	66.4853	76	47
66.4713	66.5903	73	54
66.4763	66.5803	64	36
66.4793	66.5803	61	30
66.5813	66.6963	75	47
66.6823	66.8043	76	53
66.6853	66.7943	61	30
66.6853	66.7933	64	36
66.7943	66.9093	73	47
66.8983	67.0213	75	53
66.8993	67.0113	56	50
67.0113	67.1263	76	47
67.1123	67.2273	78	51
67.1133	67.2173	66	37
67.1153	67.2183	63	31
67.2183	67.3333	75	47
67.3223	67.4313	63	31
67.3223	67.4373	72	50
67.3233	67.4313	66	37
67.4333	67.5463	73	47
67.5353	67.6583	75	50
67.5403	67.6483	63	31
67.5403	67.6483	66	37
67.6493	67.7732	72	46
67.7633	68.1692	73	52
67.7643	68.1702	61	42
67.7643	68.1702	64	50
68.1972	68.3092	76	69
68.3022	68.4142	74	59
68.4062	68.5152	73	59
68.5122	68.6282	71	59
68.6172	68.7262	57	57
68.6172	68.7392	69	66
68.7292	68.8442	71	57
68.8302	68.9462	73	57
68.8312	68.9362	64	43
68.8342	68.9362	61	36
68.9372	69.0502	74	57
69.0482	69.1502	61	36
69.0482	69.1492	64	43
69.0482	69.1592	76	64
69.1522	69.2682	78	57
69.2542	69.3702	80	56
69.2582	69.3592	61	36
69.2582	69.3592	64	43
69.3592	69.4642	81	56
69.4672	69.5802	81	66
69.4722	69.5692	59	57
69.5692	69.6842	80	60
69.6742	69.7752	64	42
69.6742	69.7892	78	60
69.6752	69.7802	62	35
69.7802	69.8812	76	57
69.8812	70.0002	76	64
69.8842	69.9862	56	57
69.9892	70.1012	74	59
70.0902	70.2062	73	59
70.0912	70.2032	64	42
70.0942	70.2032	62	35
70.2042	70.3112	71	59
70.3042	70.4162	69	64
70.3082	70.4022	57	57
70.4032	70.5212	71	54
70.5102	70.6121	64	41
70.5102	70.6261	73	57
70.5112	70.6121	61	35
70.6162	70.7271	74	54
70.7201	70.8321	76	64
70.7212	70.8222	61	35
70.7212	70.8222	64	41
70.8251	70.9381	78	58
70.9271	71.0421	64	41
70.9271	71.0561	80	60
70.9281	71.0431	61	35
71.0431	71.1651	81	63
71.1651	71.3921	82	75
71.1661	71.3931	52	57
71.3931	71.5081	83	69
71.3961	71.4941	62	39
71.3971	71.4981	56	33
71.6031	71.7071	56	33
71.6031	71.7211	76	69
71.6041	71.7121	62	39
71.7141	71.8201	74	59
71.8161	71.9251	73	59
71.8171	71.9181	56	33
71.8171	71.9211	62	39
71.9211	72.0361	71	59
72.0221	72.1451	69	66
72.0231	72.1351	57	57
72.1351	72.2501	71	57
72.2401	72.3451	61	36
72.2401	72.3441	64	43
72.2401	72.3551	73	57
72.3451	72.4641	74	57
72.4531	72.5691	76	64
72.4541	72.5581	61	36
72.4541	72.5581	64	43
72.5621	72.6731	78	57
72.6631	72.7781	80	56
72.6641	72.7681	61	36
72.6641	72.7681	64	43
72.7691	72.8701	81	56
72.8771	72.9781	59	57
72.8771	72.9881	81	66
72.9791	73.0901	80	57
73.0791	73.1991	78	60
73.0831	73.1851	64	42
73.0841	73.1851	62	35
73.1861	73.2831	76	57
73.2901	73.3941	56	57
73.2901	73.4051	76	64
73.395	73.51	74	59
73.5001	73.609	64	42
73.5001	73.615	73	59
73.5011	73.609	62	35
73.612	73.723	71	59
73.713	73.822	73	64
73.714	73.811	57	57
73.811	73.93	76	54
73.917	74.031	69	57
73.92	74.021	54	46
74.022	74.137	73	54
74.126	74.234	71	64
74.127	74.228	50	46
74.231	74.339	74	58
74.325	74.452	68	60
74.33	74.438	52	46
74.441	74.55	71	55
74.55	74.875	69	66
74.551	74.77	45	57
74.77	74.875	57	44
74.98	75.103	85	60
75.096	75.204	86	52
75.194	75.309	85	52
75.298	75.418	83	52
75.407	75.526	81	58
75.411	75.512	52	50
75.512	75.627	83	50
75.624	75.74	81	50
75.625	75.729	57	35
75.625	75.726	61	42
75.729	75.844	80	50
75.834	75.935	61	42
75.834	75.949	78	56
75.835	75.939	57	35
75.94	76.051	81	50
76.041	76.163	80	46
76.042	76.153	61	42
76.044	76.153	57	35
76.153	76.268	78	46
76.257	76.37	77	58
76.258	76.359	56	50
76.363	76.478	78	47
76.464	76.5689	61	41
76.464	76.579	80	49
76.468	76.57	59	34
76.57	76.6849	77	46
76.678	76.7899	73	56
76.6809	76.7859	61	41
76.682	76.7859	59	34
76.7859	76.8939	75	47
76.8869	77.0029	77	50
76.8919	76.9929	59	34
76.8919	76.9929	61	41
76.9939	77.1079	73	47
77.0979	77.2089	54	50
77.0979	77.2199	78	56
77.2099	77.3219	77	47
77.3109	77.4299	78	50
77.3119	77.4159	61	40
77.3149	77.4159	57	34
77.4199	77.5319	80	47
77.5209	77.6359	81	56
77.5219	77.6329	57	34
77.5219	77.6289	61	40
77.6329	77.7379	80	51
77.7349	77.8389	61	40
77.7349	77.8539	81	53
77.7379	77.8399	57	34
77.8439	77.9549	83	55
77.9439	78.0599	85	62
77.9449	78.0499	49	50
78.0499	78.1609	84	57
78.1479	78.2629	85	60
78.1519	78.2529	56	41
78.1519	78.2519	61	49
78.2529	78.3579	84	54
78.3579	78.4739	85	62
78.3589	78.4599	61	48
78.3609	78.4629	55	40
78.4659	78.5779	86	56
78.5669	78.6829	85	65
78.5679	78.6729	54	40
78.5679	78.6689	61	48
78.6729	78.7919	82	60
78.7819	78.8859	47	59
78.7819	78.8959	86	69
78.8869	79.0019	85	63
78.9949	79.0999	59	53
78.9949	79.1059	86	69
78.9959	79.0999	54	45
79.1039	79.2108	85	64
79.2039	79.3129	86	68
79.2049	79.3098	54	47
79.2049	79.3098	59	56
79.3109	79.4178	85	66
79.4078	79.5298	86	72
79.4108	79.5198	54	45
79.4108	79.5188	59	54
79.5198	79.6318	85	68
79.6208	79.7398	86	70
79.6248	79.7258	47	65
79.7258	79.8478	85	69
79.8378	79.9538	83	67
79.8388	79.9398	59	54
79.8408	79.9398	56	45
79.9428	80.0518	81	66
80.0478	80.1488	59	60
80.0478	80.1558	80	64
80.0488	80.1498	56	51
80.1538	80.2648	81	61
80.2548	80.3698	83	64
80.2558	80.3598	59	54
80.2578	80.3598	56	45
80.3628	80.4748	80	61
80.4638	80.5798	81	57
80.4648	80.5698	49	58
80.5698	80.6848	83	49
80.6708	80.7898	85	55
80.6748	80.7798	54	39
80.6748	80.7788	57	47
80.7798	80.8918	81	50
80.8878	81.0038	77	53
80.8888	80.9928	49	55
80.9928	81.1078	78	47
81.0978	81.2168	80	54
81.0988	81.2098	56	41
81.0988	81.2098	59	49
81.2108	81.3468	77	47
81.3358	81.7428	54	39
81.3358	81.7428	57	46
81.3358	81.7418	78	54
81.7698	81.8858	76	69
81.8748	81.9838	74	59
81.9798	82.0948	73	59
82.0848	82.1968	71	59
82.1938	82.3088	69	66
82.1948	82.2988	57	57
82.2988	82.4138	71	57
82.4068	82.5188	73	57
82.4108	82.5157	61	36
82.4108	82.5157	64	43
82.5168	82.6277	74	57
82.6167	82.7217	64	43
82.6167	82.7357	76	64
82.6207	82.7227	61	36
82.7247	82.8447	78	57
82.8337	82.9497	80	56
82.8347	82.9357	61	36
82.8347	82.9357	64	43
82.9387	83.0437	81	56
83.0467	83.1627	81	66
83.0517	83.1527	59	57
83.1537	83.2677	80	60
83.2577	83.3587	64	42
83.2577	83.3737	78	60
83.2587	83.3617	62	35
83.3627	83.4597	76	57
83.4677	83.5797	76	64
83.4687	83.5687	56	57
83.5727	83.6877	74	59
83.6737	83.7887	73	59
83.6747	83.7787	64	42
83.6767	83.7787	62	35
83.7797	83.9017	71	59
83.8877	83.9987	69	64
83.8907	83.9897	57	57
83.9897	84.1037	71	54
84.0937	84.2097	73	57
84.0947	84.1957	61	35
84.0947	84.1957	64	41
84.1987	84.3117	74	54
84.2997	84.4187	76	64
84.3007	84.4047	64	41
84.3047	84.4057	61	35
84.4087	84.5207	78	58
84.5107	84.6257	64	41
84.5107	84.6407	80	60
84.5117	84.6267	61	35
84.6267	84.7547	81	63
84.7547	84.9867	82	75
84.7557	84.9867	52	57
84.9867	85.1017	83	69
84.9907	85.0927	56	33
84.9907	85.0917	62	39
85.1927	85.3117	76	69
85.1967	85.3017	56	33
85.1997	85.3017	62	39
85.3027	85.4167	74	59
85.4027	85.5216	73	59
85.4057	85.5077	56	33
85.4067	85.5077	62	39
85.5077	85.6296	71	59
85.6206	85.7246	57	57
85.6206	85.7356	69	66
85.7256	85.8436	71	57
85.8336	85.9386	64	43
85.8336	85.9496	73	57
85.8366	85.9386	61	36
85.9386	86.0536	74	57
86.0426	86.1586	76	64
86.0436	86.1486	61	36
86.0436	86.1446	64	43
86.1516	86.2676	78	57
86.2576	86.3616	64	43
86.2576	86.3756	80	56
86.2606	86.3626	61	36
86.3626	86.4666	81	56
86.4736	86.5756	59	57
86.4736	86.5826	81	66
86.5796	86.6846	80	57
86.6796	86.7896	78	60
86.6806	86.7856	64	42
86.6836	86.7856	62	35
86.7886	86.8836	76	57
86.8906	86.9946	56	57
86.8906	87.0056	76	64
86.9956	87.1106	74	59
87.1006	87.2166	73	59
87.1016	87.2056	62	35
87.1016	87.2056	64	42
87.2056	87.3206	71	59
87.3066	87.4256	73	64
87.3106	87.4116	57	57
87.4116	87.5246	76	54
87.5176	87.6146	54	46
87.5176	87.6286	69	57
87.6176	87.7336	73	54
87.7196	87.8356	71	64
87.7206	87.8246	50	46
87.8246	87.9396	74	58
87.9256	88.0526	68	60
87.9306	88.0386	52	46
88.0416	88.1505	71	55
88.1505	88.4756	69	66
88.1516	88.3706	45	57
88.3715	88.4756	57	44
88.5835	88.7065	85	60
88.7036	88.8125	86	52
88.8015	88.9165	85	52
88.9025	89.0255	83	52
89.0145	89.1305	81	58
89.0155	89.1195	52	50
89.1195	89.2345	83	50
89.2245	89.3475	81	50
89.2255	89.3335	57	35
89.2255	89.3335	61	42
89.3365	89.4485	80	50
89.4385	89.5425	61	42
89.4385	89.5535	78	56
89.4395	89.5435	57	35
89.5465	89.6585	81	50
89.6485	89.7635	80	46
89.6495	89.7605	57	35
89.6495	89.7565	61	42
89.7605	89.8715	78	46
89.8615	89.9775	77	58
89.8625	89.9665	56	50
89.9665	90.0825	78	47
90.0685	90.1865	80	49
90.0715	90.1775	61	41
90.0755	90.1775	59	34
90.1775	90.2925	77	46
90.2855	90.3975	73	56
90.2865	90.3905	61	41
90.2885	90.3905	59	34
90.3905	90.4995	75	47
90.4955	90.6005	61	41
90.4955	90.6105	77	50
90.4995	90.6005	59	34
90.6015	90.7155	73	47
90.7055	90.8145	54	50
90.7055	90.8245	78	56
90.8145	90.9295	77	47
90.9185	91.0344	78	50
90.9195	91.0235	61	40
90.9225	91.0235	57	34
91.0245	91.1394	80	47
91.1284	91.2444	81	56
91.1295	91.2335	57	34
91.1295	91.2294	61	40
91.2344	91.3494	80	51
91.3384	91.4514	81	53
91.3394	91.4474	57	34
91.3394	91.4464	61	40
91.4514	91.5624	83	55
91.5514	91.6674	85	62
91.5524	91.6574	49	50
91.6574	91.7734	84	57
91.7594	91.8734	85	60
91.7624	91.8664	56	41
91.7624	91.8664	61	49
91.8674	91.9684	84	54
91.9684	92.0814	85	62
91.9724	92.0744	61	48
91.9734	92.0744	55	40
92.0744	92.1814	86	56
92.1784	92.2944	85	65
92.1794	92.2834	54	40
92.1794	92.2834	61	48
92.2844	92.3994	82	60
92.3854	92.4964	47	59
92.3854	92.5104	86	69
92.4974	92.6124	85	63
92.6024	92.7184	86	69
92.6034	92.7074	54	45
92.6034	92.7074	59	53
92.7074	92.8224	85	64
92.8114	92.9274	86	68
92.8124	92.9174	54	47
92.8124	92.9174	59	56
92.9184	93.0334	85	66
93.0184	93.1404	86	72
93.0224	93.1314	54	45
93.0224	93.1304	59	54
93.1314	93.2464	85	68
93.2354	93.3514	86	70
93.2364	93.3404	47	65
93.3404	93.4624	85	69
93.4484	93.5614	83	67
93.4494	93.5544	59	54
93.4534	93.5544	56	45
93.5554	93.6664	81	66
93.6594	93.7604	59	60
93.6594	93.7743	80	64
93.6624	93.7613	56	51
93.7643	93.8723	81	61
93.8623	93.9843	83	64
93.8633	93.9703	56	45
93.8633	93.9703	59	54
93.9743	94.0853	80	61
94.0823	94.1913	81	57
94.0833	94.1803	49	58
94.1813	94.2963	83	49
94.2853	94.3903	57	47
94.2853	94.4003	85	55
94.2863	94.3913	54	39
94.3913	94.5063	81	50
94.4923	94.6143	77	53
94.4963	94.6043	49	55
94.6073	94.7203	78	47
94.7093	94.8213	56	41
94.7093	94.8313	80	54
94.7133	94.8223	59	49
94.8223	94.9613	77	47
94.9473	95.4133	57	46
94.9473	95.4123	78	54
94.9503	95.4133	54	39
95.4403	95.5523	69	73
95.4433	95.5523	81	84
95.6543	95.7653	71	73
95.6583	95.7663	83	84
95.7663	95.8013	45	64
95.8023	95.8363	49	64
95.8373	95.8713	52	64
95.8713	96.2913	73	78
95.8723	96.2913	85	90
95.8743	96.0733	57	73
96.0733	96.1823	57	69
96.2913	96.3923	69	73
96.2923	96.3953	57	69
96.2923	96.3933	81	84
96.4973	96.6033	71	73
96.4983	96.6043	57	69
96.4983	96.6033	83	84
96.6063	96.6343	45	60
96.6383	96.6723	49	60
96.6732	96.7033	52	60
96.7073	96.9212	73	79
96.7082	96.9212	85	91
96.7102	96.9113	57	72
96.9113	97.0162	57	64
96.9113	97.0112	71	72
96.9113	97.0162	83	82
97.1172	97.2182	69	77
97.1182	97.2182	81	89
97.1202	97.2192	57	65
97.3192	97.4322	68	73
97.3242	97.4332	57	67
97.3242	97.4332	80	84
97.4352	97.4702	38	63
97.4742	97.5092	42	63
97.5092	97.5472	45	63
97.5472	97.7612	66	80
97.5482	97.7612	78	92
97.5512	97.7542	50	73
97.7502	97.8552	68	69
97.7542	97.8562	50	69
97.7542	97.8552	80	78
97.8592	97.8912	39	63
97.8942	97.9262	42	63
97.9262	97.9602	45	63
97.9612	98.1882	69	75
97.9612	98.1882	81	86
97.9632	98.1772	51	73
98.1742	98.2852	71	70
98.1772	98.2862	51	71
98.1772	98.2862	83	80
98.2872	98.3202	40	63
98.3212	98.3592	44	63
98.3602	98.3942	47	63
98.3982	98.7092	68	78
98.3992	98.6152	52	73
98.3992	98.7092	80	90
98.6142	98.7272	64	73
98.6152	98.7302	52	73
98.6152	98.7282	76	84
98.8392	98.9402	69	73
98.8392	98.9432	81	84
99.0522	99.1541	71	73
99.0531	99.1571	83	84
99.1571	99.1931	45	64
99.1931	99.2241	49	64
99.2281	99.2621	52	64
99.2631	99.6721	73	78
99.2641	99.4621	57	73
99.2641	99.6731	85	90
99.4621	99.5671	57	69
99.6751	99.7771	69	73
99.6761	99.7801	57	69
99.6761	99.7781	81	84
99.8751	99.9871	71	73
99.8751	99.9881	83	84
99.8791	99.9881	57	69
99.9901	100.022	45	60
100.023	100.053	49	60
100.058	100.088	52	60
100.092	100.305	73	79
100.093	100.295	57	72
100.093	100.305	85	91
100.294	100.396	71	72
100.295	100.4	57	64
100.295	100.397	83	82
100.502	100.606	69	77
100.505	100.61	57	65
100.505	100.607	81	89
100.711	100.817	68	73
100.712	100.82	57	67
100.712	100.82	80	84
100.821	100.859	38	63
100.859	100.889	42	63
100.894	100.924	45	63
100.925	101.149	66	80
100.929	101.139	50	73
100.929	101.149	78	92
101.135	101.239	71	69
101.135	101.24	83	78
101.139	101.24	50	69
101.243	101.278	40	63
101.279	101.313	44	63
101.318	101.348	47	63
101.349	101.586	68	75
101.353	101.586	80	86
101.355	101.579	52	73
101.575	101.695	64	70
101.576	101.696	76	80
101.579	101.696	52	71
101.811	102.233	45	73
101.811	102.23	69	78
101.811	102.231	81	90
102.262	102.363	69	73
102.263	102.367	81	84
102.472	102.573	71	73
102.472	102.578	83	84
102.58	102.615	45	64
102.616	102.65	49	64
102.651	102.685	52	64
102.685	103.102	73	78
102.686	103.102	85	90
102.689	102.888	57	73
102.888	102.993	57	69
103.106	103.206	69	73
103.106	103.207	81	84
103.109	103.207	57	69
103.308	103.417	71	73
103.309	103.418	57	69
103.309	103.417	83	84
103.421	103.452	45	60
103.452	103.486	49	60
103.487	103.522	52	60
103.522	103.736	73	79
103.523	103.736	85	91
103.525	103.729	57	72
103.725	103.829	71	72
103.725	103.83	83	82
103.729	103.83	57	64
103.931	104.036	69	77
103.935	104.037	81	89
103.936	104.04	57	65
104.142	104.246	68	73
104.145	104.25	57	67
104.145	104.247	80	84
104.251	104.281	38	63
104.282	104.316	42	63
104.316	104.359	45	63
104.359	104.572	66	80
104.36	104.572	78	92
104.362	104.562	50	73
104.558	104.67	68	69
104.561	104.673	80	78
104.562	104.673	50	69
104.674	104.705	39	63
104.705	104.74	42	63
104.744	104.774	45	63
104.775	105.002	69	75
104.778	105.002	81	86
104.779	104.992	51	73
104.988	105.1	71	70
104.989	105.101	83	80
104.992	105.104	51	71
105.104	105.142	40	63
105.143	105.174	44	63
105.177	105.216	47	63
105.217	105.527	68	78
105.219	105.43	52	73
105.219	105.527	80	90
105.43	105.545	52	73
105.43	105.541	64	73
105.43	105.542	76	84
105.657	105.762	69	73
105.657	105.762	81	84
105.863	105.972	71	73
105.867	105.972	83	84
105.973	106.004	45	64
106.007	106.042	49	64
106.042	106.074	52	64
106.077	106.486	73	78
106.078	106.487	85	90
106.081	106.28	57	73
106.28	106.382	57	69
106.49	106.591	69	73
106.491	106.595	57	69
106.491	106.591	81	84
106.69	106.801	71	73
106.693	106.802	57	69
106.693	106.802	83	84
106.805	106.836	45	60
106.837	106.871	49	60
106.872	106.906	52	60
106.907	107.12	73	79
106.907	107.12	85	91
106.91	107.117	57	72
107.116	107.218	71	72
107.117	107.221	57	64
107.117	107.221	83	82
107.316	107.424	69	77
107.32	107.425	57	65
107.32	107.425	81	89
107.526	107.638	68	73
107.529	107.639	57	67
107.529	107.638	80	84
107.639	107.67	38	63
107.673	107.708	42	63
107.708	107.746	45	63
107.747	107.967	66	80
107.75	107.953	50	73
107.75	107.967	78	92
107.95	108.068	71	69
107.953	108.069	50	69
107.953	108.069	83	78
108.07	108.107	40	63
108.108	108.142	44	63
108.143	108.184	47	63
108.185	108.405	52	73
108.185	108.415	68	75
108.185	108.415	80	86
108.404	108.52	64	70
108.405	108.521	52	71
108.405	108.521	76	80
108.636	109.192	69	78
108.636	109.195	81	90
108.637	109.195	45	73
109.234	109.332	71	66
109.336	109.43	69	64
109.433	109.528	68	64
109.531	109.644	69	64
109.647	109.85	57	57
109.647	109.85	72	71
109.843	109.941	64	52
109.844	109.941	60	43
110.053	110.473	74	66
110.054	110.257	60	43
110.054	110.257	64	52
110.154	110.357	72	63
110.256	110.473	71	63
110.257	110.473	60	42
110.257	110.473	64	51
110.357	110.473	72	63
110.47	110.672	76	72
110.473	110.672	57	57
110.665	110.763	64	52
110.669	110.767	60	43
110.879	111.076	64	52
110.879	111.282	77	66
110.88	111.078	60	43
110.98	111.177	76	63
111.076	111.282	64	52
111.076	111.282	75	63
111.078	111.282	60	43
111.177	111.282	76	63
111.278	111.678	83	70
111.282	111.68	57	57
111.377	111.576	81	64
111.475	111.681	80	64
111.477	111.681	60	42
111.477	111.681	64	50
111.576	111.681	81	64
111.678	112.1	83	69
111.68	112.098	57	57
111.778	111.982	81	64
111.884	112.1	64	52
111.884	112.1	80	64
111.885	112.1	60	43
111.982	112.1	81	64
112.097	112.521	84	72
112.098	112.303	57	57
112.3	112.401	64	50
112.301	112.405	60	42
112.521	112.618	81	68
112.522	112.622	60	42
112.522	112.619	64	50
112.716	112.825	84	65
112.717	112.829	64	50
112.72	112.83	60	42
112.902	112.919	79	63
112.92	112.944	81	63
112.945	113.05	52	65
112.945	113.045	83	80
113.144	113.245	78	54
113.147	113.245	81	64
113.151	113.248	59	44
113.151	113.245	64	53
113.35	113.448	76	58
113.351	113.449	64	53
113.351	113.449	79	69
113.353	113.452	59	44
113.546	113.658	78	54
113.546	113.659	81	64
113.55	113.659	59	44
113.55	113.659	64	53
113.728	113.749	79	65
113.749	113.774	81	65
113.775	113.872	52	66
113.775	113.872	83	82
113.976	114.075	78	56
113.977	114.078	81	66
113.98	114.079	64	52
113.981	114.079	59	43
114.173	114.277	76	58
114.173	114.282	79	69
114.175	114.282	64	52
114.176	114.282	59	43
114.375	114.481	78	55
114.379	114.481	81	65
114.38	114.484	59	43
114.38	114.484	64	52
114.551	114.575	79	64
114.576	114.62	81	64
114.596	114.694	83	79
114.597	114.694	52	67
114.799	114.897	78	57
114.803	114.901	64	52
114.803	114.901	81	68
114.804	114.904	59	43
114.995	115.107	76	58
114.998	115.107	79	69
114.999	115.111	47	52
115.219	115.334	75	56
115.22	115.338	59	52
115.22	115.334	78	66
115.45	115.909	52	57
115.45	115.908	76	69
115.94	116.038	71	66
116.038	116.136	69	64
116.136	116.234	68	64
116.235	116.35	69	64
116.35	116.552	72	71
116.353	116.552	57	57
116.545	116.647	64	52
116.549	116.648	60	43
116.763	116.963	60	43
116.763	117.18	74	66
116.764	116.963	64	52
116.865	117.061	72	63
116.963	117.18	60	42
116.963	117.18	64	51
116.963	117.18	71	63
117.061	117.18	72	63
117.176	117.375	76	72
117.177	117.375	57	57
117.372	117.472	60	43
117.372	117.47	64	52
117.581	117.984	77	66
117.582	117.781	60	43
117.582	117.781	64	52
117.683	117.887	76	63
117.78	117.984	75	63
117.781	117.984	60	43
117.781	117.984	64	52
117.887	117.984	76	63
117.981	118.383	83	70
117.984	118.384	57	57
118.089	118.286	81	64
118.187	118.387	80	64
118.188	118.387	64	50
118.19	118.387	60	42
118.286	118.387	81	64
118.383	118.804	83	69
118.384	118.804	57	57
118.482	118.688	81	64
118.587	118.804	64	52
118.587	118.804	80	64
118.589	118.804	60	43
118.688	118.804	81	64
118.803	119.223	84	72
118.804	119.013	57	57
119.003	119.108	60	42
119.003	119.107	64	50
119.226	119.328	81	68
119.227	119.332	60	42
119.227	119.328	64	50
119.426	119.531	84	65
119.427	119.532	64	50
119.43	119.534	60	42
119.608	119.626	79	63
119.626	119.647	81	63
119.647	119.751	83	80
119.65	119.755	52	65
119.849	119.955	78	54
119.853	119.955	81	64
119.854	119.958	59	44
119.854	119.958	64	53
120.053	120.154	76	58
120.053	120.155	79	69
120.056	120.157	59	44
120.056	120.155	64	53
120.256	120.361	78	54
120.259	120.364	64	53
120.259	120.361	81	64
120.26	120.364	59	44
120.43	120.455	79	65
120.456	120.476	81	65
120.477	120.578	83	82
120.479	120.579	52	66
120.678	120.78	78	56
120.683	120.785	64	52
120.683	120.784	81	66
120.686	120.785	59	43
120.886	120.984	76	58
120.887	120.987	59	43
120.887	120.984	64	52
120.887	120.984	79	69
121.081	121.193	78	55
121.082	121.194	64	52
121.082	121.194	81	65
121.085	121.194	59	43
121.253	121.278	79	64
121.281	121.323	81	64
121.302	121.401	52	67
121.302	121.4	83	79
121.498	121.603	78	57
121.499	121.603	81	68
121.501	121.607	59	43
121.501	121.607	64	52
121.701	121.813	76	58
121.705	121.814	47	52
121.705	121.814	79	69
121.922	122.044	75	56
121.925	122.047	59	52
121.925	122.045	78	66
122.166	122.597	76	69
122.167	122.597	52	57
122.625	122.737	72	56
122.625	122.738	76	56
122.846	122.951	74	56
122.849	122.951	77	56
123.055	123.161	76	66
123.056	123.162	48	59
123.056	123.162	79	66
123.265	123.367	76	57
123.266	123.371	60	53
123.266	123.371	79	57
123.472	123.577	52	59
123.472	123.577	81	64
123.581	123.903	79	57
123.683	123.903	77	57
123.685	123.903	64	57
123.788	123.903	76	57
123.899	124.337	71	65
123.899	124.337	74	65
123.9	124.337	55	60
124.12	124.337	67	59
124.336	124.442	72	56
124.337	124.442	76	56
124.554	124.655	74	56
124.554	124.659	77	56
124.764	124.865	76	66
124.764	124.869	79	66
124.765	124.869	48	59
124.97	125.075	76	57
124.971	125.076	79	57
124.973	125.078	60	53
125.18	125.286	52	59
125.18	125.285	81	64
125.286	125.608	79	57
125.391	125.608	64	57
125.391	125.608	77	57
125.496	125.608	76	57
125.604	126.045	74	65
125.608	126.045	55	60
125.608	126.045	71	65
126.042	126.153	69	56
126.044	126.157	72	56
126.265	126.377	71	56
126.266	126.378	74	56
126.482	126.583	72	66
126.482	126.584	76	66
126.483	126.588	45	59
126.688	126.794	72	57
126.689	126.797	57	53
126.689	126.794	76	57
126.899	126.997	48	59
126.899	126.996	77	64
126.997	127.328	76	57
127.102	127.328	60	57
127.102	127.328	74	57
127.213	127.328	72	57
127.322	127.756	71	65
127.324	127.756	68	65
127.325	127.756	52	60
127.535	127.756	64	59
127.755	127.861	69	56
127.755	127.861	72	56
127.972	128.074	71	56
127.973	128.077	74	56
128.186	128.283	72	66
128.186	128.288	76	66
128.187	128.288	45	59
128.396	128.501	72	57
128.396	128.501	76	57
128.397	128.501	57	53
128.598	128.704	77	64
128.599	128.704	48	59
128.705	129.033	76	57
128.805	129.033	74	57
128.809	129.033	60	57
128.914	129.033	72	57
129.029	129.524	71	65
129.03	129.526	68	65
129.033	129.526	52	60
129.524	129.554	71	56
129.557	129.656	69	56
129.657	129.761	68	56
129.761	129.869	69	56
129.87	130.079	72	59
129.872	130.079	57	53
130.069	130.167	60	47
130.069	130.166	64	47
130.282	130.699	74	62
130.283	130.482	60	47
130.283	130.482	64	47
130.385	130.58	72	57
130.481	130.699	71	57
130.482	130.699	60	47
130.482	130.699	64	47
130.58	130.699	72	57
130.695	130.901	76	66
130.696	130.901	57	54
130.891	130.989	64	48
130.892	130.989	60	48
131.098	131.504	77	63
131.102	131.308	60	48
131.102	131.308	64	48
131.202	131.406	76	58
131.305	131.504	75	58
131.308	131.504	60	48
131.308	131.504	64	48
131.406	131.504	76	58
131.501	131.904	83	70
131.503	131.904	57	56
131.606	131.804	81	63
131.703	131.904	80	63
131.707	131.904	60	49
131.707	131.904	64	49
131.804	131.904	81	63
131.904	132.347	57	57
131.904	132.347	83	71
132.008	132.219	81	64
132.11	132.347	80	64
132.113	132.347	60	43
132.113	132.347	64	52
132.219	132.347	81	64
132.344	132.77	84	76
132.347	132.557	53	57
132.547	132.648	63	51
132.548	132.652	57	51
132.771	132.869	81	62
132.775	132.872	57	43
132.775	132.87	63	43
132.974	133.078	83	62
132.977	133.083	57	39
132.977	133.079	63	39
133.191	133.289	84	70
133.192	133.289	52	46
133.393	133.491	83	62
133.394	133.492	57	42
133.394	133.492	64	42
133.597	133.695	50	42
133.597	133.695	81	62
133.799	133.908	80	62
133.8	133.912	53	42
133.8	133.912	59	42
134.017	134.115	48	47
134.017	134.114	81	71
134.216	134.314	76	64
134.22	134.318	52	39
134.22	134.317	57	39
134.419	134.524	50	41
134.42	134.528	77	64
134.622	134.734	74	64
134.626	134.737	53	41
134.626	134.735	59	41
134.843	135.049	52	48
134.843	135.252	72	74
134.846	135.045	57	48
135.045	135.263	57	41
135.049	135.245	52	41
135.245	135.473	52	41
135.252	135.309	72	64
135.253	135.474	56	41
135.305	135.414	71	57
135.361	135.476	72	57
135.414	135.522	71	57
135.473	135.73	52	41
135.474	135.73	56	41
135.476	135.73	72	57
135.522	135.634	71	57
135.571	135.728	69	64
135.634	135.73	71	57
135.728	136.166	69	65
135.729	136.204	45	46
135.729	136.169	57	46
136.204	136.305	72	56
136.205	136.31	76	56
136.417	136.523	74	56
136.418	136.523	77	56
136.635	136.739	48	59
136.635	136.736	76	66
136.635	136.737	79	66
136.834	136.94	76	57
136.838	136.94	60	53
136.838	136.94	79	57
137.044	137.149	81	64
137.045	137.149	52	59
137.15	137.478	79	57
137.255	137.478	77	57
137.256	137.478	64	57
137.366	137.478	76	57
137.476	137.916	71	65
137.476	137.916	74	65
137.478	137.916	55	60
137.689	137.916	67	59
137.913	138.013	72	56
137.914	138.014	76	56
138.122	138.228	74	56
138.122	138.231	77	56
138.332	138.437	76	66
138.339	138.438	79	66
138.34	138.438	48	59
138.543	138.643	76	57
138.543	138.647	79	57
138.546	138.648	60	53
138.752	138.854	81	64
138.753	138.858	52	59
138.858	139.187	79	57
138.959	139.187	77	57
138.963	139.187	64	57
139.067	139.187	76	57
139.183	139.616	74	65
139.184	139.616	55	60
139.184	139.616	71	65
139.614	139.729	69	56
139.614	139.73	72	56
139.838	139.945	71	56
139.838	139.949	74	56
140.051	140.156	72	66
140.052	140.156	76	66
140.054	140.157	45	59
140.257	140.366	72	57
140.261	140.367	76	57
140.264	140.367	57	53
140.467	140.575	77	64
140.471	140.576	48	59
140.576	140.898	76	57
140.675	140.898	60	57
140.675	140.898	74	57
140.786	140.898	72	57
140.895	141.333	71	65
140.896	141.333	68	65
140.897	141.333	52	60
141.108	141.333	64	59
141.332	141.433	69	56
141.333	141.433	72	56
141.541	141.647	71	56
141.546	141.648	74	56
141.755	141.863	72	66
141.759	141.864	76	66
141.76	141.864	45	59
141.965	142.07	72	57
141.969	142.07	76	57
141.97	142.074	57	53
142.171	142.273	77	64
142.172	142.278	48	59
142.278	142.603	76	57
142.378	142.603	74	57
142.382	142.603	60	57
142.485	142.603	72	57
142.6	143.033	71	65
142.602	143.033	52	60
142.602	143.033	68	65
143.033	143.128	71	56
143.131	143.225	69	56
143.23	143.33	68	56
143.33	143.443	69	56
143.443	143.652	72	59
143.444	143.652	57	53
143.638	143.737	60	47
143.638	143.737	64	47
143.851	144.268	74	62
143.855	144.053	60	47
143.856	144.055	64	47
143.957	144.153	72	57
144.052	144.268	71	57
144.053	144.268	60	47
144.055	144.268	64	47
144.153	144.268	72	57
144.266	144.474	76	66
144.268	144.474	57	54
144.464	144.562	64	48
144.465	144.563	60	48
144.674	144.879	60	48
144.674	144.878	64	48
144.674	145.084	77	63
144.781	144.979	76	58
144.878	145.084	64	48
144.878	145.084	75	58
144.879	145.084	60	48
144.979	145.084	76	58
145.081	145.48	83	70
145.082	145.48	57	56
145.179	145.378	81	63
145.277	145.482	80	63
145.28	145.482	60	49
145.28	145.482	64	49
145.378	145.482	81	63
145.48	145.918	57	57
145.48	145.918	83	71
145.578	145.789	81	64
145.683	145.918	80	64
145.686	145.918	60	43
145.686	145.918	64	52
145.789	145.918	81	64
145.917	146.344	84	76
145.918	146.117	57	57
146.116	146.228	63	51
146.117	146.229	57	51
146.344	146.441	81	62
146.348	146.446	57	43
146.348	146.445	63	43
146.547	146.652	63	39
146.547	146.652	83	62
146.548	146.656	57	39
146.763	146.862	84	70
146.764	146.863	52	46
146.964	147.061	83	62
146.967	147.068	57	42
146.967	147.065	64	42
147.166	147.271	81	62
147.167	147.275	50	42
147.376	147.481	80	62
147.377	147.485	59	42
147.379	147.486	53	42
147.586	147.692	48	47
147.586	147.691	81	71
147.789	147.894	76	64
147.793	147.894	57	39
147.794	147.898	52	39
147.993	148.097	50	41
147.999	148.104	77	64
148.202	148.311	59	41
148.202	148.311	74	64
148.206	148.315	53	41
148.416	148.83	72	74
148.419	148.626	52	48
148.42	148.625	57	48
148.625	148.839	57	41
148.626	148.822	52	41
148.822	149.043	52	41
148.83	148.881	72	64
148.832	149.045	56	41
148.881	148.987	71	57
148.934	149.056	72	57
148.987	149.102	71	57
149.043	149.308	52	41
149.045	149.308	56	41
149.056	149.308	72	57
149.102	149.21	71	57
149.147	149.304	69	64
149.21	149.308	71	57
149.304	149.746	69	65
149.305	149.774	45	46
149.305	149.749	57	46
149.774	150.205	69	82
149.879	150.205	81	79
149.987	150.205	71	83
150.09	150.205	45	64
150.09	150.205	83	80
150.131	150.205	49	70
150.162	150.205	52	76
150.201	151.037	73	89
150.202	150.405	57	87
150.305	151.041	85	84
150.405	150.618	57	69
150.617	151.041	69	85
150.618	150.821	57	69
150.716	151.041	81	73
150.82	151.041	71	84
150.821	151.038	57	69
150.926	151.041	83	72
150.928	151.041	45	65
150.961	151.041	49	69
151.0	151.041	52	73
151.037	151.875	73	90
151.038	151.238	57	85
151.135	151.875	85	75
151.237	151.875	71	84
151.238	151.443	57	64
151.345	151.875	83	73
151.44	151.875	69	87
151.443	151.654	57	65
151.545	151.875	81	74
151.651	151.875	68	83
151.654	151.875	57	67
151.762	151.875	80	76
151.763	151.875	38	66
151.797	151.875	42	71
151.836	151.875	45	77
151.874	152.081	50	85
151.874	152.294	66	88
151.976	152.294	78	75
152.081	152.294	50	69
152.081	152.294	68	83
152.186	152.294	80	69
152.189	152.294	39	68
152.221	152.294	42	72
152.252	152.294	45	75
152.291	152.729	69	79
152.292	152.505	51	85
152.395	152.729	81	71
152.504	152.729	71	81
152.505	152.729	51	71
152.615	152.729	83	73
152.616	152.729	40	64
152.655	152.729	44	69
152.69	152.729	47	74
152.728	153.182	68	86
152.729	152.942	52	85
152.837	153.182	80	73
152.941	153.182	64	81
152.942	153.182	52	73
153.058	153.182	76	72
153.166	153.582	69	83
153.264	153.582	81	73
153.365	153.582	71	82
153.467	153.582	83	73
153.47	153.582	45	67
153.502	153.582	49	71
153.537	153.582	52	76
153.579	154.402	73	89
153.581	153.782	57	84
153.677	154.405	85	77
153.782	153.989	57	69
153.988	154.405	69	85
153.989	154.196	57	69
154.09	154.405	81	76
154.195	154.405	71	84
154.196	154.405	57	69
154.299	154.405	83	77
154.3	154.405	45	61
154.334	154.405	49	66
154.367	154.405	52	72
154.402	155.249	73	92
154.405	154.612	57	87
154.509	155.249	85	77
154.612	154.815	57	64
154.612	155.249	71	84
154.717	155.249	83	75
154.814	155.249	69	88
154.815	155.025	57	65
154.92	155.249	81	77
155.024	155.249	68	84
155.025	155.249	57	67
155.136	155.249	38	68
155.136	155.249	80	75
155.168	155.249	42	72
155.21	155.249	45	76
155.245	155.671	66	91
155.248	155.456	50	83
155.349	155.671	78	79
155.455	155.671	71	82
155.456	155.671	50	69
155.559	155.671	83	72
155.56	155.671	40	67
155.592	155.671	44	72
155.634	155.671	47	78
155.669	156.13	68	86
155.671	155.896	52	82
155.778	156.13	80	75
155.893	156.13	64	80
155.896	156.13	52	71
156.011	156.13	76	74
156.127	156.55	69	78
156.13	156.551	45	84
156.13	156.551	81	90
156.571	157.002	69	82
156.676	157.002	81	79
156.774	157.002	71	83
156.887	157.002	83	80
156.89	157.002	45	64
156.922	157.002	49	70
156.956	157.002	52	76
156.999	157.201	57	87
156.999	157.828	73	89
157.097	157.831	85	84
157.201	157.411	57	69
157.408	157.831	69	85
157.411	157.622	57	69
157.513	157.831	81	73
157.621	157.831	71	84
157.622	157.829	57	69
157.726	157.831	45	65
157.726	157.831	83	72
157.758	157.831	49	69
157.793	157.831	52	73
157.828	158.672	73	90
157.829	158.034	57	85
157.933	158.672	85	75
158.031	158.672	71	84
158.034	158.241	57	64
158.136	158.672	83	73
158.24	158.672	69	87
158.241	158.444	57	65
158.346	158.672	81	74
158.444	158.672	57	67
158.444	158.672	68	83
158.555	158.672	80	76
158.556	158.672	38	66
158.594	158.672	42	71
158.629	158.672	45	77
158.671	159.087	66	88
158.672	158.874	50	85
158.769	159.087	78	75
158.871	159.087	68	83
158.874	159.087	50	69
158.979	159.087	39	68
158.979	159.087	80	69
159.011	159.087	42	72
159.046	159.087	45	75
159.081	159.526	69	79
159.084	159.298	51	85
159.193	159.526	81	71
159.294	159.526	71	81
159.298	159.526	51	71
159.413	159.526	40	64
159.413	159.526	83	73
159.449	159.526	44	69
159.487	159.526	47	74
159.525	159.973	68	86
159.526	159.739	52	85
159.627	159.973	80	73
159.739	159.973	52	73
159.739	159.973	64	81
159.848	159.973	76	72
159.952	160.369	69	83
160.056	160.369	81	73
160.156	160.369	71	82
160.26	160.369	83	73
160.261	160.369	45	67
160.295	160.369	49	71
160.33	160.369	52	76
160.365	160.568	57	84
160.365	161.198	73	89
160.471	161.199	85	77
160.568	160.775	57	69
160.774	161.199	69	85
160.775	160.981	57	69
160.883	161.199	81	76
160.981	161.198	57	69
160.981	161.199	71	84
161.09	161.199	83	77
161.093	161.199	45	61
161.125	161.199	49	66
161.159	161.199	52	72
161.198	161.399	57	87
161.198	162.041	73	92
161.3	162.041	85	77
161.398	162.041	71	84
161.399	161.608	57	64
161.503	162.041	83	75
161.604	162.041	69	88
161.608	161.817	57	65
161.713	162.041	81	77
161.815	162.041	68	84
161.817	162.041	57	67
161.926	162.041	80	75
161.93	162.041	38	68
161.961	162.041	42	72
161.996	162.041	45	76
162.032	162.241	50	83
162.032	162.465	66	91
162.137	162.465	78	79
162.241	162.465	50	69
162.241	162.465	71	82
162.35	162.465	83	72
162.353	162.465	40	67
162.384	162.465	44	72
162.42	162.465	47	78
162.455	162.909	68	86
162.458	162.682	52	82
162.571	162.909	80	75
162.679	162.909	64	80
162.682	162.868	52	71
162.798	162.909	45	61
162.798	162.909	76	74
162.833	162.909	49	66
162.868	162.909	52	72
162.903	163.655	69	78
162.904	163.655	81	90
162.905	163.109	57	87
163.109	163.323	57	64
163.32	163.631	85	90
163.321	163.711	73	78
163.323	163.522	57	65
163.522	163.655	57	64
163.631	163.714	85	90
163.635	163.665	45	61
163.669	163.7	49	66
163.701	163.735	52	72
163.715	164.492	73	74
163.718	164.492	76	77
163.732	164.492	81	80
163.736	164.571	85	90
163.739	163.945	57	87
163.945	164.152	57	68
164.152	164.355	57	68
164.355	164.492	57	68
164.471	164.502	45	61
164.502	164.537	49	66
164.541	164.572	52	72
164.548	165.307	73	74
164.555	165.307	76	77
164.564	165.307	81	80
164.575	165.408	85	90
164.576	164.779	57	87
164.779	164.986	57	68
164.986	165.192	57	68
165.192	165.307	57	68
165.304	165.338	45	61
165.339	165.373	49	66
165.374	165.408	52	72
165.409	165.822	86	90
165.412	165.612	57	87
165.515	165.716	85	87
165.612	165.822	57	67
165.612	166.029	83	86
165.716	165.927	85	86
165.822	166.031	57	67
165.822	166.196	86	90
165.927	166.14	85	84
166.029	166.196	83	84
166.031	166.196	57	67
166.14	166.196	85	85
166.144	166.196	38	61
166.175	166.214	42	66
166.214	166.255	45	72
166.256	167.092	78	80
166.256	167.092	81	80
166.259	167.061	86	90
166.26	166.459	50	87
166.459	166.665	50	67
166.665	166.871	50	67
166.871	167.004	50	67
166.98	167.015	45	61
167.018	167.05	49	66
167.05	167.093	52	72
167.064	167.096	86	76
167.096	167.155	76	76
167.097	167.155	81	76
167.099	167.155	57	87
167.099	167.155	85	90
167.27	167.298	86	76
167.302	167.351	76	72
167.303	167.355	81	72
167.305	167.355	85	85
167.306	167.356	57	67
167.48	167.502	86	76
167.502	167.554	76	72
167.505	167.555	81	72
167.509	167.558	57	67
167.509	167.557	85	85
167.687	167.712	86	76
167.713	167.771	76	72
167.715	167.771	81	72
167.716	167.775	57	67
167.716	167.772	85	85
167.824	167.855	40	61
167.858	168.695	44	66
167.894	168.695	47	72
167.928	168.793	76	80
167.929	168.813	80	80
167.932	168.695	83	90
167.933	168.134	52	87
168.134	168.338	52	66
168.338	168.548	52	66
168.548	168.695	52	66
168.661	168.775	88	103
168.664	168.708	45	61
168.712	168.764	49	66
168.764	168.814	52	72
168.775	169.569	73	74
168.793	169.569	76	77
168.802	169.569	81	80
168.816	169.65	85	90
168.817	169.023	57	87
169.023	169.23	57	68
169.23	169.436	57	68
169.436	169.569	57	68
169.545	169.579	45	61
169.583	169.614	49	66
169.615	169.65	52	72
169.629	170.385	73	74
169.632	170.385	76	77
169.646	170.385	81	80
169.653	169.859	57	87
169.653	170.486	85	90
169.859	170.066	57	66
170.066	170.273	57	66
170.273	170.385	57	66
170.381	170.416	45	61
170.42	170.451	49	66
170.452	170.487	52	72
170.489	170.899	86	90
170.49	170.693	57	87
170.592	170.795	85	87
170.689	171.11	83	86
170.693	170.9	57	66
170.795	171.005	85	86
170.899	171.224	86	90
170.9	171.11	57	66
171.005	171.217	85	84
171.11	171.224	57	66
171.11	171.224	83	84
171.217	171.274	85	85
171.218	171.253	38	61
171.253	171.295	42	66
171.295	171.333	45	72
171.333	172.162	78	80
171.337	171.536	50	87
171.337	172.163	81	80
171.337	172.141	86	90
171.536	171.746	50	66
171.746	171.942	50	66
171.942	172.082	50	66
172.057	172.092	45	61
172.093	172.127	49	66
172.131	172.166	52	72
172.142	172.167	86	76
172.167	173.005	76	76
172.169	173.006	81	76
172.17	172.379	57	87
172.17	172.982	85	90
172.379	172.583	57	66
172.583	172.792	57	66
172.792	172.905	57	66
172.901	172.936	40	61
172.936	172.971	44	66
172.975	173.006	47	72
172.985	173.009	85	76
173.01	173.216	76	76
173.01	173.217	80	76
173.011	173.217	83	90
173.013	173.22	52	87
173.185	173.394	85	76
173.216	173.419	76	72
173.217	173.42	80	72
173.217	173.422	83	85
173.22	173.423	52	66
173.394	173.605	85	76
173.419	173.629	76	72
173.42	173.629	80	72
173.422	173.63	83	85
173.423	173.633	52	65
173.605	173.751	85	76
173.629	173.751	76	72
173.629	173.751	80	72
173.63	173.751	83	85
173.633	173.751	52	65
173.846	174.256	81	90
173.85	174.287	57	64
173.951	174.175	64	54
174.063	174.487	61	54
174.175	174.382	64	54
174.228	174.62	76	55
174.256	174.62	81	60
174.284	174.599	85	67
174.287	174.62	57	40
174.382	174.6	64	31
174.487	174.62	61	31
174.599	174.647	85	63
174.6	174.7	64	31
174.652	174.676	76	55
174.679	174.703	81	60
174.704	175.114	57	40
174.704	175.484	85	70
174.805	175.011	64	31
174.91	175.324	61	31
175.011	175.218	64	31
175.114	175.456	57	40
175.218	175.432	64	31
175.324	175.456	61	31
175.432	175.537	64	31
175.484	175.512	76	55
175.516	175.537	81	60
175.54	175.95	57	40
175.54	176.377	85	69
175.642	175.845	64	31
175.747	176.16	61	31
175.845	176.055	64	31
175.95	176.377	57	40
176.055	176.269	64	31
176.16	176.377	61	31
176.269	176.377	64	31
176.374	176.786	86	69
176.377	176.787	57	40
176.479	176.681	85	60
176.482	176.684	64	31
176.577	176.997	83	60
176.579	176.998	61	31
176.681	176.891	85	60
176.684	176.894	64	31
176.786	177.22	86	68
176.787	177.224	57	40
176.891	177.105	85	61
176.894	177.108	64	31
176.997	177.224	83	61
176.998	177.224	61	31
177.105	177.224	85	61
177.108	177.224	64	31
177.22	178.029	86	67
177.224	177.318	57	40
177.319	177.528	66	31
177.424	177.843	62	31
177.528	177.739	66	31
177.634	178.061	57	40
177.739	177.949	66	31
177.843	178.092	62	31
177.949	178.092	66	31
178.029	178.092	86	59
178.06	178.106	85	71
178.061	178.473	57	40
178.162	178.368	64	31
178.236	178.445	86	56
178.267	178.47	85	64
178.27	178.68	61	31
178.368	178.575	64	31
178.445	178.655	86	57
178.47	178.679	85	65
178.473	178.897	57	40
178.575	178.788	64	31
178.655	178.897	86	59
178.679	178.897	85	66
178.68	178.897	61	31
178.788	178.897	64	31
178.894	179.307	52	40
178.894	179.773	83	67
178.995	179.205	64	31
179.103	179.513	59	31
179.205	179.411	64	31
179.307	179.741	52	40
179.411	179.628	64	31
179.513	179.773	59	31
179.625	179.773	88	94
179.628	179.773	64	31
179.696	179.773	45	61
179.717	179.773	49	61
179.727	180.517	73	74
179.74	180.517	76	77
179.741	179.773	52	61
179.758	180.517	81	80
179.768	180.604	85	90
179.772	179.971	57	87
179.971	180.184	57	67
180.184	180.388	57	67
180.388	180.517	57	64
180.497	180.527	45	61
180.531	180.566	49	66
180.567	180.605	52	72
180.573	181.336	73	74
180.587	181.336	76	77
180.594	181.336	81	80
180.605	181.434	85	90
180.609	180.808	57	87
180.808	181.019	57	66
181.019	181.224	57	66
181.224	181.336	57	66
181.329	181.364	45	61
181.364	181.399	49	66
181.399	181.434	52	72
181.438	181.645	57	87
181.438	181.847	86	90
181.54	181.746	85	87
181.645	181.848	57	67
181.645	182.057	83	86
181.746	181.953	85	86
181.847	182.226	86	90
181.848	182.057	57	67
181.953	182.166	85	84
182.057	182.226	57	67
182.057	182.226	83	84
182.166	182.226	85	85
182.17	182.226	38	61
182.208	182.239	42	66
182.243	182.281	45	72
182.282	183.117	78	80
182.285	183.121	81	80
182.285	183.09	86	90
182.286	182.484	50	87
182.484	182.694	50	68
182.694	182.897	50	68
182.897	183.03	50	68
183.013	183.048	45	61
183.051	183.083	49	66
183.083	183.122	52	72
183.09	183.122	86	76
183.122	183.958	76	76
183.125	183.961	81	76
183.125	183.93	85	90
183.126	183.328	57	87
183.328	183.537	57	67
183.537	183.744	57	67
183.744	183.85	57	67
183.85	183.891	40	61
183.892	183.926	44	66
183.926	183.961	47	72
183.933	183.965	85	76
183.965	184.165	76	76
183.966	184.165	80	76
183.968	184.168	52	87
183.968	184.167	83	90
184.139	184.343	85	76
184.165	184.371	76	72
184.165	184.374	80	72
184.167	184.375	83	85
184.168	184.375	52	67
184.343	184.549	85	76
184.371	184.581	76	72
184.374	184.584	80	72
184.375	184.585	52	67
184.375	184.584	83	85
184.549	184.704	85	76
184.581	184.704	76	72
184.584	184.704	80	72
184.584	184.704	83	85
184.585	184.704	52	67
184.686	184.72	45	61
184.721	184.759	49	66
184.763	184.794	52	72
184.795	185.656	69	90
184.798	185.432	73	90
184.798	188.249	76	90
184.798	185.657	81	90
184.801	185.005	57	87
185.005	185.214	57	67
185.214	185.435	57	67
185.432	186.292	73	73
185.434	186.296	85	87
185.435	185.658	57	67
185.547	186.408	45	61
185.578	186.453	49	66
185.62	186.486	52	72
185.656	186.527	69	90
185.657	186.528	81	90
185.658	185.872	57	87
185.872	186.078	57	66
186.078	186.296	57	66
186.292	187.161	73	73
186.296	186.53	57	66
186.296	187.161	85	87
186.408	187.276	45	61
186.453	187.315	49	66
186.486	187.35	52	72
186.527	187.392	69	90
186.528	187.392	81	90
186.53	186.733	57	87
186.733	186.95	57	67
186.95	187.164	57	67
187.161	187.598	73	73
187.161	187.601	85	87
187.164	187.394	57	67
187.276	187.708	45	61
187.315	187.741	49	66
187.35	187.774	52	72
187.392	187.811	69	82
187.392	187.811	81	97
187.394	187.601	57	95
187.598	188.017	73	78
187.601	187.812	57	70
187.601	188.018	85	92
187.708	188.246	45	67
187.741	188.249	49	72
187.774	188.249	52	79
187.811	188.242	69	83
187.811	188.246	81	99
187.812	188.018	57	95
188.017	188.249	73	79
188.018	188.249	57	70
188.018	188.249	85	93
188.242	188.708	69	90
188.246	189.212	45	88
188.246	188.711	81	108
188.708	189.208	69	82
188.71	189.211	73	82
188.711	189.211	76	82
188.711	189.211	81	97
188.714	189.215	57	88
189.208	190.202	69	86
189.211	190.202	73	86
189.211	190.202	76	86
189.211	190.202	81	103
189.212	190.202	45	74
189.215	190.202	49	74
189.215	190.202	52	74
189.215	190.202	57	88
