OnsetTime	OffsetTime	MidiPitch	Velocity
0.504524	2.13208	78	55
2.12895	2.31645	77	48
2.31645	2.50395	78	53
2.50395	2.67434	80	57
2.67434	2.84002	78	55
2.84002	3.00306	76	52
3.00306	4.0811	75	49
3.18802	4.11108	58	33
3.18802	4.11108	64	39
3.18802	4.11108	73	47
3.37552	4.0811	54	31
3.37552	3.73769	66	40
3.46928	4.11108	70	36
3.56246	3.91761	49	34
3.56246	4.11108	68	46
3.73769	4.11108	42	31
3.73769	3.91761	66	42
3.91761	4.11108	49	33
3.91761	4.11108	66	41
4.0811	4.41751	54	33
4.0811	5.08992	75	41
4.2446	5.15208	58	36
4.2446	5.15208	64	39
4.2446	5.15208	73	47
4.41751	5.08992	54	33
4.41751	4.75567	66	44
4.50397	5.15208	70	33
4.59043	4.92776	49	33
4.59043	5.15208	68	45
4.75567	5.15208	42	33
4.75567	4.92776	66	43
4.92776	5.15208	49	33
4.92776	5.15208	66	43
5.08992	5.25209	54	33
5.08992	5.25209	75	43
5.25209	5.57249	47	39
5.25209	7.0205	64	40
5.25209	7.0205	73	48
5.41281	5.73125	54	35
5.41281	5.73125	66	52
5.57249	6.98336	47	43
5.57249	6.20381	63	59
5.57249	5.88905	71	59
5.73125	6.35726	54	38
5.73125	6.04592	66	56
5.88905	6.66777	51	44
5.88905	6.20381	71	51
5.88905	6.98336	75	60
6.04592	6.5119	59	40
6.04592	6.35726	66	56
6.20381	7.0205	63	32
6.20381	6.5119	71	45
6.20381	7.0205	77	53
6.35726	6.82495	54	33
6.35726	6.66777	66	47
6.35726	6.66777	78	56
6.5119	7.0205	59	39
6.5119	6.82495	71	52
6.5119	7.0205	80	62
6.66777	7.0205	51	33
6.66777	6.98336	66	48
6.66777	7.0205	78	57
6.82495	7.0205	54	36
6.82495	7.0205	71	46
6.82495	7.0205	76	55
6.98336	7.99098	47	33
6.98336	7.31114	66	45
6.98336	7.96665	75	53
7.14212	7.99098	58	40
7.14212	7.99098	64	48
7.14212	7.99098	73	57
7.31114	7.96665	54	37
7.31114	7.64232	66	56
7.39565	7.99098	70	43
7.48015	7.80448	49	40
7.48015	7.99098	68	55
7.64232	7.99098	42	36
7.64232	7.80448	66	52
7.80448	7.99098	49	36
7.80448	7.99098	66	52
7.96665	8.29098	54	36
7.96665	8.93965	75	52
8.12882	9.00181	58	40
8.12882	9.00181	64	49
8.12882	9.00181	73	58
8.29098	8.93965	54	34
8.29098	8.61531	66	55
8.37206	9.00181	70	41
8.45315	8.77748	49	38
8.45315	9.00181	68	52
8.61531	9.00181	42	35
8.61531	8.77748	66	51
8.77748	9.00181	49	38
8.77748	9.00181	66	51
8.93965	9.26354	54	32
8.93965	9.74608	75	51
9.10181	9.42483	47	41
9.10181	9.95126	64	51
9.10181	9.95126	73	61
9.26354	9.58568	54	37
9.26354	9.58568	66	56
9.42483	9.95126	47	45
9.42483	9.95126	63	54
9.42483	9.74608	71	64
9.58568	9.95126	54	36
9.58568	9.90605	66	59
9.74608	9.95126	51	48
9.74608	9.95126	71	56
9.74608	9.95126	75	67
9.90605	10.0656	59	39
9.90605	10.0656	66	62
10.0656	10.2247	63	48
10.0656	10.2247	71	59
10.0656	10.2247	78	70
10.2247	10.3834	54	39
10.2247	10.3834	66	66
10.3834	10.543	61	52
10.3834	10.543	71	62
10.3834	10.543	79	74
10.543	10.7025	52	48
10.543	10.7025	67	69
10.7025	10.8647	59	53
10.7025	10.8647	71	64
10.7025	10.8647	80	76
10.8647	11.1819	51	49
10.8647	11.851	68	70
11.0269	11.851	44	54
11.0269	11.1819	75	64
11.0269	11.7814	83	76
11.1819	11.851	51	47
11.1819	11.4851	75	66
11.2594	11.851	78	46
11.3369	11.6332	63	54
11.3369	11.851	76	70
11.4851	11.851	56	47
11.4851	11.851	75	66
11.6332	11.851	63	52
11.6332	11.851	71	69
11.7814	12.7272	59	35
11.7814	12.7272	80	48
11.7814	12.7272	83	57
11.9323	12.7272	51	39
11.9323	12.6815	78	54
11.9323	12.7272	82	64
12.0848	12.7272	66	44
12.0848	12.6815	75	65
12.2329	12.6815	58	49
12.2329	12.5292	70	65
12.307	12.7272	73	47
12.3811	12.7272	54	40
12.3811	12.7272	71	65
12.5292	12.7272	63	47
12.5292	12.7272	70	63
12.6815	13.7576	58	49
12.6815	13.7576	75	48
12.6815	13.7576	78	57
12.8338	13.7576	40	53
12.8338	13.072	68	60
12.8338	13.7576	71	60
12.9861	13.5018	59	38
12.9861	13.3299	64	58
13.072	13.5018	68	48
13.158	13.7576	47	36
13.158	13.7576	66	63
13.3299	13.7576	56	35
13.3299	13.7576	64	54
13.5018	13.7576	59	37
13.5018	13.8323	68	57
13.6723	13.8323	52	42
13.6723	13.8323	73	59
13.8323	14.7181	47	40
13.8323	14.7181	71	61
13.8323	15.7737	75	61
13.9959	14.7181	53	44
13.9959	14.3442	63	57
14.1664	14.7181	54	47
14.1664	14.5266	66	57
14.3442	14.7181	61	51
14.3442	14.7181	63	57
14.5266	14.7181	59	48
14.5266	14.7181	66	54
14.709	15.8796	56	45
14.709	15.156	68	53
14.8913	15.8796	58	38
14.8913	15.8796	64	48
14.8913	15.8796	73	57
15.0678	15.7737	54	31
15.0678	15.4208	66	52
15.156	15.2443	68	40
15.2002	15.8796	70	40
15.2443	15.5972	49	36
15.2443	15.8796	68	50
15.4208	15.8796	42	30
15.4208	15.5972	66	49
15.5972	15.8796	49	34
15.5972	15.8796	66	49
15.7737	16.1267	54	34
15.7737	16.8326	75	49
15.9502	16.9502	58	36
15.9502	16.9502	64	45
15.9502	16.9502	73	54
16.1267	16.8326	54	33
16.1267	16.4796	66	51
16.2149	16.3031	68	40
16.259	16.9502	70	40
16.3031	16.6561	49	35
16.3031	16.9502	68	48
16.4796	16.9502	42	31
16.4796	16.6561	66	47
16.6561	16.9502	49	32
16.6561	16.9502	66	47
16.8326	17.009	54	30
16.8326	17.009	75	47
17.009	17.943	35	35
17.009	17.943	64	43
17.009	17.943	73	51
17.1853	17.943	42	32
17.1853	17.5354	66	45
17.3607	17.943	47	36
17.3607	17.943	63	44
17.3607	17.7091	71	52
17.5354	17.943	54	31
17.5354	17.882	66	47
17.7091	17.943	51	37
17.7091	17.943	71	44
17.7091	17.943	75	52
17.882	18.065	59	33
17.882	18.065	66	48
18.065	18.2393	62	27
18.065	18.2393	71	44
18.065	18.2393	77	44
18.2393	18.4183	63	27
18.2393	18.4183	66	34
18.2393	18.4183	78	40
18.4183	18.6024	64	29
18.4183	18.6024	71	37
18.4183	18.6024	80	44
18.6024	18.7916	63	27
18.6024	18.7916	66	34
18.6024	18.7916	78	40
18.7916	18.9851	61	30
18.7916	18.9851	71	32
18.7916	18.9851	76	38
18.9851	21.2562	59	29
18.9851	19.3684	66	32
18.9851	20.1238	75	38
19.1787	20.3102	58	36
19.1787	20.3102	64	39
19.1787	20.3102	73	46
19.3684	19.7478	66	47
19.4632	19.5581	68	32
19.5107	20.6425	70	32
19.5581	19.9375	49	30
19.5581	20.595	68	44
19.7478	20.8798	42	30
19.7478	19.9375	66	44
19.9375	20.6899	49	30
19.9375	20.5001	66	44
20.1238	20.5001	54	30
20.1238	21.2562	75	44
20.3102	21.2562	58	35
20.3102	21.2562	64	42
20.3102	21.2562	73	50
20.5001	21.2562	54	29
20.5001	20.8798	66	47
20.595	20.6899	68	31
20.6425	21.2562	70	31
20.6899	21.0719	49	34
20.6899	21.2562	68	43
20.8798	21.2562	42	31
20.8798	21.0719	66	43
21.0719	21.2696	49	31
21.0719	21.2696	66	43
21.2696	23.7146	58	34
21.2696	21.5196	78	43
21.4571	21.5196	63	50
21.5196	23.7146	47	33
21.5196	23.7146	54	33
21.5196	23.7146	63	39
21.5196	23.0196	78	53
22.8145	23.7146	77	58
23.0196	23.4329	78	60
23.2256	23.7146	80	63
23.4329	23.7146	78	60
23.6413	23.8324	76	58
23.8324	24.0235	75	54
24.0235	24.6507	75	51
24.6507	25.2221	51	27
24.6507	25.2221	58	32
24.6507	24.8412	67	38
24.6507	24.8412	74	45
24.8412	25.0316	75	50
25.0316	25.2221	76	50
25.2221	26.2917	56	29
25.2221	26.2917	59	35
25.2221	26.2917	68	37
25.2221	25.6383	75	44
25.4126	25.6383	73	51
25.6031	26.2325	71	49
25.8143	26.4415	54	29
25.8143	26.4415	58	35
25.8143	26.4415	64	39
25.8143	26.2917	75	46
26.0234	26.2917	73	52
26.2325	26.4415	71	49
26.4415	27.6959	47	27
26.4415	27.6959	54	32
26.4415	27.6959	63	39
26.4415	30.4458	71	46
27.6959	29.1412	35	26
27.6959	29.1412	47	31
27.6959	29.1412	54	31
27.6959	29.1412	63	38
27.6959	30.4458	66	45
28.3231	30.4458	30	26
28.3231	30.4458	42	31
29.1412	30.7776	35	26
29.1412	30.7776	47	26
29.1412	30.7776	54	31
29.1412	30.7776	59	31
29.1412	30.7776	63	45
