OnsetTime	OffsetTime	MidiPitch	Velocity
0.500004	1.53502	39	36
0.500004	1.53502	51	43
0.500004	1.00434	58	38
0.500004	1.51183	63	41
0.500004	1.51183	67	49
0.752172	1.53502	57	37
1.00434	1.53502	58	38
1.25651	1.51183	55	45
1.51183	2.00192	34	34
1.51183	2.00192	46	41
1.51183	2.00192	55	47
1.51183	2.00192	63	50
1.51183	2.00192	67	50
1.75376	2.00192	58	42
2.00192	3.01125	41	36
2.00192	3.01125	53	44
2.00192	3.01125	57	38
2.00192	2.95378	62	41
2.00192	2.95378	68	49
2.23907	3.01125	58	38
2.47073	3.01125	60	42
2.70788	3.01125	61	39
2.95378	3.44888	34	34
2.95378	3.44888	46	41
2.95378	3.44888	62	38
2.95378	3.44888	68	48
3.19572	3.44888	58	40
3.44888	4.46935	39	34
3.44888	4.46935	51	40
3.44888	3.9346	58	36
3.44888	4.42216	63	38
3.44888	4.42216	67	46
3.68938	4.46935	57	38
3.9346	4.46935	58	42
4.17886	4.42216	55	45
4.42216	4.91263	34	34
4.42216	4.91263	46	41
4.42216	4.91263	55	47
4.42216	4.91263	63	50
4.42216	4.91263	67	50
4.66837	4.91263	58	41
4.91263	5.9211	41	34
4.91263	5.9211	53	41
4.91263	5.9211	57	36
4.91263	5.87156	62	38
4.91263	5.87156	68	46
5.14857	5.9211	58	37
5.38186	5.9211	60	42
5.62142	5.9211	61	42
5.87156	6.40087	34	34
5.87156	6.40087	46	41
5.87156	6.28463	62	38
5.87156	6.40087	68	48
6.13003	6.40087	58	40
6.40087	7.16046	51	44
6.40087	7.16046	63	47
6.40087	7.16046	75	47
6.64707	7.16046	65	41
6.64707	6.8798	67	39
6.64707	7.16046	77	41
6.8798	7.86781	67	39
6.8798	7.16046	79	49
7.11664	7.49222	70	52
7.11664	7.49222	82	52
7.36703	7.86781	63	36
7.49222	7.86781	70	43
7.49222	7.86781	82	43
7.61741	7.86781	58	32
7.86781	8.60691	51	44
8.10022	9.19662	68	39
8.10022	8.60691	70	52
8.10022	8.60691	82	52
8.33264	8.60691	72	50
8.33264	8.60691	84	50
8.54815	8.97336	74	55
8.54815	8.97336	86	55
8.75858	9.19662	62	37
8.75858	9.19662	77	54
8.75858	9.19662	89	54
8.97336	9.19662	58	37
8.97336	9.19662	74	53
8.97336	9.19662	86	53
9.19662	9.86607	51	44
9.19662	9.63014	72	55
9.19662	9.63014	84	55
9.40848	9.8518	67	39
9.40848	9.86607	74	53
9.40848	9.86607	86	53
9.63014	9.86607	72	46
9.63014	9.86607	84	46
9.8518	10.2189	67	51
9.8518	10.2189	79	51
10.0965	10.4779	63	37
10.2189	10.5859	67	43
10.2189	10.5859	79	43
10.3412	10.5859	58	37
10.5859	11.3028	51	44
10.8076	11.3028	65	52
10.8076	11.2441	68	39
10.8076	11.3028	77	52
11.0293	11.3028	67	50
11.0293	11.3028	79	50
11.2441	11.67	68	55
11.2441	11.67	80	55
11.4545	11.894	62	37
11.4545	11.894	70	53
11.4545	11.894	82	53
11.67	11.894	58	37
11.67	11.894	68	53
11.67	11.894	80	53
11.894	12.5748	51	44
11.894	12.1081	67	55
11.894	12.5748	79	55
12.1081	12.5748	65	50
12.1081	13.1951	67	39
12.1081	12.5748	77	50
12.3342	12.5748	63	46
12.3342	12.5748	75	46
12.5603	12.9325	58	46
12.5603	12.9325	70	46
12.8084	13.1951	63	37
12.9325	13.3048	58	43
12.9325	13.3048	70	43
13.0566	13.3048	55	36
13.3048	14.0561	46	44
13.5356	14.6829	56	39
13.5356	14.6829	62	46
13.5356	14.0561	65	52
13.7665	14.0561	67	49
13.9939	14.4417	68	55
14.2166	14.6829	52	37
14.2166	14.6829	70	53
14.4417	14.6829	53	37
14.4417	14.6226	68	53
14.5623	14.6829	67	49
14.6226	14.6829	68	50
14.6829	15.3791	46	44
14.6829	15.1354	63	48
14.6829	15.3791	67	55
14.9056	15.8441	55	39
14.9056	15.3791	65	50
15.1354	15.3791	63	46
15.3651	15.6046	58	51
15.6046	16.0836	58	37
15.6046	16.0836	60	50
15.8441	16.0836	55	37
15.8441	16.0836	63	50
16.0836	16.8103	46	44
16.0836	16.3149	56	48
16.0836	16.5541	62	55
16.3149	17.1774	56	39
16.3149	16.8103	65	50
16.5541	16.7351	62	46
16.6748	16.7954	60	41
16.7351	16.8103	62	41
16.7954	17.4468	60	50
17.05	17.4468	52	37
17.1774	17.5593	56	45
17.1774	17.5593	58	45
17.3047	17.5593	53	37
17.5593	18.6199	39	36
17.5593	18.6199	51	43
17.5593	18.0636	58	38
17.5593	18.5733	63	41
17.5593	18.5733	67	49
17.8115	18.6199	57	41
18.0636	18.6199	58	41
18.3158	18.5733	55	47
18.5733	19.0644	34	34
18.5733	19.0644	46	41
18.5733	19.0644	55	47
18.5733	19.0644	63	50
18.5733	19.0644	67	50
18.8162	19.0644	58	42
19.0644	20.0562	41	36
19.0644	20.0562	53	44
19.0644	20.0562	57	38
19.0644	20.0217	62	41
19.0644	20.0217	68	49
19.3053	20.0562	58	38
19.5397	20.0562	60	42
19.7788	20.0562	61	39
20.0217	20.5135	34	34
20.0217	20.5135	46	41
20.0217	20.5135	62	38
20.0217	20.5135	68	48
20.2656	20.5135	58	40
20.5135	21.4981	39	34
20.5135	21.4981	51	40
20.5135	20.9992	58	36
20.5135	21.4868	63	38
20.5135	21.4868	67	46
20.754	21.4981	57	44
20.9992	21.4981	58	44
21.2435	21.4868	55	47
21.4868	21.9772	34	34
21.4868	21.9772	46	41
21.4868	21.9772	55	47
21.4868	21.9772	63	50
21.4868	21.9772	67	50
21.733	21.9772	58	41
21.9772	22.9609	41	34
21.9772	22.9609	53	41
21.9772	22.9609	57	36
21.9772	22.9362	62	38
21.9772	22.9362	68	46
22.2132	22.9609	58	39
22.4465	22.9609	60	42
22.686	22.9609	61	39
22.9362	23.4654	34	34
22.9362	23.4654	46	41
22.9362	23.3233	62	38
22.9362	23.4654	68	48
23.1946	23.4654	58	40
23.4654	24.225	51	44
23.4654	24.225	63	47
23.4654	24.225	75	47
23.7116	24.225	65	41
23.7116	23.9444	67	39
23.7116	24.225	77	41
23.9444	24.9324	67	39
23.9444	24.225	79	42
24.1812	24.5568	70	54
24.1812	24.5568	82	54
24.4316	24.9324	63	37
24.5568	24.9324	70	43
24.5568	24.9324	82	43
24.682	24.9324	58	37
24.9324	25.6722	51	44
25.1648	26.2627	68	39
25.1648	25.6722	70	52
25.1648	25.6722	82	52
25.3972	25.6722	72	48
25.3972	25.6722	84	48
25.6135	26.0394	74	55
25.6135	26.0394	86	55
25.8239	26.2627	62	37
25.8239	26.2627	77	50
25.8239	26.2627	89	50
26.0394	26.2627	58	37
26.0394	26.2627	74	53
26.0394	26.2627	86	53
26.2627	26.9336	51	44
26.2627	26.6976	72	55
26.2627	26.6976	84	55
26.476	26.9193	67	39
26.476	26.9336	74	53
26.476	26.9336	86	53
26.6976	26.9336	72	46
26.6976	26.9336	84	46
26.9193	27.2864	67	51
26.9193	27.2864	79	51
27.164	27.5454	63	37
27.2864	27.6534	67	43
27.2864	27.6534	79	43
27.4087	27.6534	58	33
27.6534	28.371	51	44
27.8751	28.371	65	52
27.8751	28.3123	68	39
27.8751	28.371	77	52
28.0968	28.371	67	53
28.0968	28.371	79	53
28.3123	28.739	68	53
28.3123	28.739	80	53
28.5227	28.963	62	37
28.5227	28.963	70	53
28.5227	28.963	82	53
28.739	28.963	58	37
28.739	28.963	68	53
28.739	28.963	80	53
28.963	29.6453	51	44
28.963	29.1787	67	55
28.963	29.6453	79	55
29.1787	29.6453	65	48
29.1787	30.2657	67	39
29.1787	29.6453	77	48
29.4048	29.6453	63	46
29.4048	29.6453	75	46
29.6309	30.0031	58	49
29.6309	30.0031	70	49
29.879	30.2657	63	37
30.0031	30.3753	58	43
30.0031	30.3753	70	43
30.1272	30.3753	55	35
30.3753	31.1267	46	44
30.6062	31.7535	56	39
30.6062	31.7535	62	46
30.6062	31.1267	65	52
30.8371	31.1267	67	53
31.0645	31.5123	68	55
31.2872	31.7535	52	37
31.2872	31.7535	70	53
31.5123	31.7535	53	37
31.5123	31.6932	68	53
31.6329	31.7535	67	49
31.6932	31.7535	68	50
31.7535	32.4497	46	44
31.7535	32.2059	63	48
31.7535	32.4497	67	55
31.9762	32.9147	55	39
31.9762	32.4497	65	50
32.2059	32.4497	63	46
32.4357	32.6752	58	51
32.6752	33.1542	58	37
32.6752	33.1542	60	50
32.9147	33.1542	55	37
32.9147	33.1542	63	50
33.1542	33.8809	46	44
33.1542	33.3855	56	48
33.1542	33.6247	62	55
33.3855	34.2479	56	39
33.3855	33.8809	65	50
33.6247	33.8057	62	46
33.7453	33.866	60	41
33.8057	33.8809	62	41
33.866	34.5174	60	50
34.1206	34.5174	52	37
34.2479	34.6299	56	45
34.2479	34.6299	58	45
34.3753	34.6299	53	37
34.6299	35.6773	39	36
34.6299	35.6773	51	43
34.6299	35.1342	58	38
34.6299	35.6428	63	41
34.6299	35.6428	67	49
34.8821	35.6773	57	44
35.1342	35.6773	58	44
35.3864	35.6428	55	47
35.6428	36.1349	34	34
35.6428	36.1349	46	41
35.6428	36.1349	55	47
35.6428	36.1349	63	50
35.6428	36.1349	67	50
35.8867	36.1349	58	42
36.1349	37.11	41	36
36.1349	37.11	53	44
36.1349	37.11	57	38
36.1349	37.0866	62	41
36.1349	37.0866	68	49
36.373	37.11	58	42
36.6055	37.11	60	42
36.8427	37.11	61	42
37.0866	37.5815	34	34
37.0866	37.5815	46	41
37.0866	37.5815	62	38
37.0866	37.5815	68	48
37.3315	37.5815	58	40
37.5815	38.5783	39	34
37.5815	38.5783	51	40
37.5815	38.0672	58	36
37.5815	38.5547	63	38
37.5815	38.5547	67	46
37.822	38.5783	57	44
38.0672	38.5783	58	44
38.3114	38.5547	55	47
38.5547	39.0452	34	34
38.5547	39.0452	46	41
38.5547	39.0452	55	47
38.5547	39.0452	63	50
38.5547	39.0452	67	50
38.8009	39.0452	58	41
39.0452	39.9927	41	34
39.0452	39.9927	53	41
39.0452	39.9927	57	36
39.0452	39.9927	62	38
39.0452	39.9927	68	46
39.2811	39.9927	58	42
39.5144	39.9927	60	42
39.754	40.0041	61	38
40.0041	40.5334	34	34
40.0041	40.5334	46	41
40.0041	40.3912	62	38
40.0041	40.5334	68	48
40.2626	40.5334	58	40
40.5334	41.2914	51	44
40.5334	41.2914	63	47
40.5334	41.2914	75	47
40.7796	41.2914	65	46
40.7796	41.0124	67	39
40.7796	41.2914	77	46
41.0124	41.9841	67	41
41.0124	41.2914	79	42
41.2492	41.9841	70	53
41.2492	41.9841	82	53
41.4906	41.9841	63	37
41.7339	41.9841	58	37
41.9841	42.7356	51	44
42.2165	43.3303	68	39
42.2165	42.7356	70	52
42.2165	42.7356	82	52
42.4489	42.7356	72	50
42.4489	42.7356	84	50
42.6746	43.1086	73	55
42.6746	43.1086	85	55
42.8931	43.3303	61	37
42.8931	43.3303	77	38
42.8931	43.3303	89	47
43.1086	43.3303	58	37
43.1086	43.3303	73	53
43.1086	43.3303	85	53
43.3303	44.0047	51	44
43.3303	44.0047	72	55
43.3303	44.0047	84	55
43.5481	44.5892	67	39
43.5481	44.0047	70	52
43.5481	44.0047	82	52
43.7697	43.9914	63	46
43.7697	43.9914	75	46
43.9914	44.5892	63	51
43.9914	44.5892	75	51
44.2195	44.5892	61	37
44.2195	44.6971	65	49
44.2195	44.6971	77	51
44.4528	44.6971	58	37
44.6971	45.4187	51	44
44.9188	46.0156	61	39
44.9188	45.4187	67	52
44.9188	45.4187	79	52
45.1404	45.4187	68	49
45.1404	45.4187	80	49
45.359	46.0156	70	55
45.359	46.0156	82	55
45.573	46.0156	55	37
45.573	46.0156	75	55
45.573	46.0156	87	55
45.7916	46.0156	51	37
45.7916	46.0156	72	49
45.7916	46.0156	84	49
46.0156	46.6991	44	44
46.0156	46.6991	70	55
46.0156	46.6991	82	55
46.2334	48.2772	60	39
46.2334	46.6991	68	50
46.2334	46.6991	80	50
46.4595	46.6856	63	46
46.4595	46.6856	75	46
46.6856	47.5992	63	51
46.6856	47.5992	75	51
46.9172	48.507	56	39
46.9172	48.7369	68	55
46.9172	47.5992	80	55
47.1504	48.7369	51	39
47.3837	48.7369	44	48
47.5992	48.7369	63	42
47.5992	48.7369	72	52
47.5992	48.2772	75	52
47.5992	48.2772	80	61
47.5992	48.2772	84	61
48.2772	48.7369	60	48
48.2772	48.7369	75	55
48.2772	48.7369	80	55
48.2772	48.7369	84	67
48.2772	48.7369	87	67
48.507	48.7369	56	46
48.7369	49.4188	44	50
48.9532	50.9969	59	45
48.9532	50.319	63	57
48.9532	50.319	75	57
49.6369	51.2586	56	44
49.6369	51.5701	68	63
49.6369	50.319	80	64
49.8702	51.5701	51	45
50.1035	51.5701	44	54
50.319	51.5701	63	49
50.319	51.5701	71	56
50.319	50.9969	75	56
50.319	50.9969	80	67
50.319	50.9969	83	67
50.9969	51.5701	59	48
50.9969	51.5701	75	59
50.9969	51.5701	80	59
50.9969	51.5701	83	71
50.9969	51.5701	87	71
51.2586	51.5701	56	49
51.5701	52.3297	46	65
51.5701	52.3297	63	46
51.5701	52.3297	75	60
51.8163	52.3297	65	56
51.8163	52.049	67	45
51.8163	52.3297	77	56
52.049	53.037	67	45
52.049	52.3297	79	55
52.2859	52.6614	70	54
52.2859	52.6614	82	66
52.5362	53.037	63	43
52.6614	53.037	70	43
52.6614	53.037	82	53
52.7866	53.037	58	43
53.037	53.7769	46	51
53.2694	54.3673	68	45
53.2694	53.7769	70	52
53.2694	53.7769	82	65
53.5019	53.7769	72	60
53.5019	53.7769	84	60
53.7181	54.1441	74	66
53.7181	54.1441	86	66
53.9286	54.3673	62	43
53.9286	54.3673	77	54
53.9286	54.3673	89	61
54.1441	54.3673	58	43
54.1441	54.3673	74	53
54.1441	54.3673	86	66
54.3673	55.0382	51	51
54.3673	54.8023	72	68
54.3673	54.8023	84	68
54.5806	55.0239	67	45
54.5806	55.0382	74	53
54.5806	55.0382	86	66
54.8023	55.0382	72	45
54.8023	55.0382	84	57
55.0239	55.391	67	51
55.0239	55.391	79	63
55.2687	55.65	63	43
55.391	55.7581	67	43
55.391	55.7581	79	53
55.5134	55.7581	58	43
55.7581	56.4886	48	51
55.9905	57.079	61	45
55.9905	56.4298	70	52
55.9905	56.4298	82	62
56.2136	56.4886	72	51
56.2136	56.4886	84	51
56.4298	57.079	70	55
56.4298	57.079	82	65
56.6403	57.079	60	43
56.6403	57.079	68	51
56.6403	57.079	80	60
56.8558	57.079	64	43
56.8558	57.079	67	49
56.8558	57.079	79	58
57.079	57.7615	41	51
57.079	57.7615	65	52
57.079	57.7615	77	62
57.2923	58.2367	63	45
57.2923	57.7615	67	49
57.2923	57.7615	79	58
57.514	57.7615	68	47
57.514	57.7615	80	56
57.7473	58.4814	75	62
57.7473	58.4814	87	66
57.992	58.4814	53	43
58.1143	58.4814	72	51
58.1143	58.4814	84	55
58.2367	58.4814	63	43
58.4814	59.209	46	51
58.7138	59.7995	56	45
58.7138	59.1503	72	52
58.7138	59.1503	84	62
58.934	59.209	75	49
58.934	59.209	87	58
59.1503	59.7995	72	54
59.1503	59.7995	84	60
59.3607	59.7995	53	43
59.3607	59.7995	68	52
59.3607	59.7995	80	57
59.5762	59.7995	63	43
59.5762	59.7995	67	49
59.5762	59.7995	79	58
59.7995	60.4847	46	48
59.7995	60.4847	65	49
59.7995	60.4847	77	58
60.0128	61.2045	63	45
60.0128	60.4847	67	49
60.0128	60.4847	79	58
60.2344	60.4847	68	47
60.2344	60.4847	80	56
60.4704	61.2045	74	57
60.4704	61.2045	86	68
60.7151	61.2045	58	43
60.8375	61.9054	72	48
60.8375	61.9054	84	57
60.9598	61.2045	68	43
61.2045	61.9054	46	45
61.4239	61.9054	55	40
61.4239	61.9054	64	44
61.4239	61.9054	76	52
61.6537	61.9054	56	38
61.6537	61.9054	65	40
61.6537	61.9054	77	48
61.8906	62.6564	60	35
61.8906	62.6564	68	47
61.8906	62.6564	80	57
62.2735	62.6564	58	34
62.2735	62.6564	67	43
62.2735	62.6564	79	51
62.6564	63.6926	39	36
62.6564	63.6926	51	43
62.6564	63.1607	58	38
62.6564	63.6693	63	41
62.6564	63.6693	67	49
62.9085	63.6926	57	44
63.1607	63.6926	58	44
63.4129	63.6693	55	47
63.6693	64.1603	34	34
63.6693	64.1603	46	41
63.6693	64.1603	55	47
63.6693	64.1603	63	50
63.6693	64.1603	67	50
63.9122	64.1603	58	42
64.1603	65.1346	41	36
64.1603	65.1346	53	44
64.1603	65.1346	57	38
64.1603	65.1234	62	41
64.1603	65.1234	68	49
64.4013	65.1346	58	37
64.6366	65.1346	60	42
64.8815	65.1346	61	38
65.1234	65.6173	34	34
65.1234	65.6173	46	41
65.1234	65.6173	62	38
65.1234	65.6173	68	48
65.3673	65.6173	58	40
65.6173	66.6142	39	34
65.6173	66.6142	51	40
65.6173	66.1031	58	36
65.6173	66.5906	63	38
65.6173	66.5906	67	46
65.8578	66.6142	57	40
66.1031	66.6142	58	44
66.3473	66.5906	55	47
66.5906	67.0811	34	34
66.5906	67.0811	46	41
66.5906	67.0811	55	47
66.5906	67.0811	63	50
66.5906	67.0811	67	50
66.8368	67.0811	58	41
67.0811	68.0046	41	34
67.0811	68.0046	53	41
67.0811	68.0046	57	36
67.0811	68.0046	62	38
67.0811	68.0046	68	46
67.317	68.0046	58	38
67.5503	68.0046	60	42
67.7899	68.04	61	38
68.04	68.5693	34	34
68.04	68.5693	46	41
68.04	68.4271	62	38
68.04	68.5693	68	48
68.2985	68.5693	58	40
68.5693	69.3289	51	29
68.5693	69.3289	63	31
68.5693	69.3289	75	31
68.8155	69.3289	65	32
68.8155	69.0482	67	26
68.8155	69.3289	77	32
69.0482	70.0362	67	26
69.0482	69.3289	79	32
69.2851	69.6606	70	36
69.2851	69.6606	82	36
69.5355	70.0362	63	24
69.6606	70.0362	70	28
69.6606	70.0362	82	28
69.7858	70.0362	58	23
70.0362	70.7801	53	29
70.2687	71.377	68	26
70.2687	70.7801	70	35
70.2687	70.7801	82	35
70.5011	70.7801	72	29
70.5011	70.7801	84	29
70.7204	71.1538	74	36
70.7204	71.1538	86	36
70.9344	71.377	62	24
70.9344	71.377	77	35
70.9344	71.377	89	37
71.1538	71.377	58	24
71.1538	71.377	74	36
71.1538	71.377	86	36
71.377	72.0509	51	29
71.377	71.8149	72	36
71.377	71.8149	84	36
71.5933	72.0366	67	26
71.5933	72.0509	74	36
71.5933	72.0509	86	36
71.8149	72.0509	72	31
71.8149	72.0509	84	31
72.0366	72.4037	67	34
72.0366	72.4037	79	34
72.2813	72.6627	63	24
72.4037	72.7708	67	28
72.4037	72.7708	79	28
72.526	72.7708	58	24
72.7708	73.4885	53	29
72.9924	73.4885	65	35
72.9924	73.4296	68	26
72.9924	73.4885	77	35
73.2141	73.4885	67	36
73.2141	73.4885	79	36
73.4296	73.8593	68	36
73.4296	73.8593	80	36
73.6407	74.0833	62	24
73.6407	74.0833	70	36
73.6407	74.0833	82	36
73.8593	74.0833	58	24
73.8593	74.0833	68	32
73.8593	74.0833	80	32
74.0833	74.7663	51	29
74.0833	74.2996	67	36
74.0833	74.7663	79	36
74.2996	74.7663	65	33
74.2996	75.3867	67	26
74.2996	74.7663	77	33
74.5257	74.7663	63	31
74.5257	74.7663	75	31
74.7518	75.124	58	34
74.7518	75.124	70	34
75.0	75.3867	63	24
75.124	75.4963	58	28
75.124	75.4963	70	28
75.2481	75.4963	55	24
75.4963	76.2476	46	29
75.7271	76.8744	56	26
75.7271	76.8744	62	31
75.7271	76.2476	65	35
75.958	76.2476	67	36
76.1854	76.6332	68	36
76.4082	76.8744	52	24
76.4082	76.8744	70	36
76.6332	76.8744	53	24
76.6332	76.8141	68	36
76.7538	76.8744	67	32
76.8141	76.8744	68	33
76.8744	77.5706	46	29
76.8744	77.3269	63	32
76.8744	77.5706	67	36
77.0971	78.0356	55	26
77.0971	77.5706	65	33
77.3269	77.5706	63	31
77.5566	77.7961	58	34
77.7961	78.2752	58	24
77.7961	78.2752	60	33
78.0356	78.2752	55	24
78.0356	78.2752	63	33
78.2752	79.0018	46	29
78.2752	78.5065	56	32
78.2752	78.7457	62	36
78.5065	79.3689	56	26
78.5065	79.0018	65	33
78.7457	78.9266	62	31
78.8663	78.9869	60	27
78.9266	79.0018	62	27
78.9869	79.6384	60	33
79.2416	79.6384	52	24
79.3689	79.7508	56	30
79.3689	79.7508	58	30
79.4962	79.7508	53	24
79.7508	80.5104	51	29
79.7508	80.5104	63	31
79.7508	80.5104	75	31
79.997	80.5104	65	28
79.997	80.2298	67	26
79.997	80.5104	77	28
80.2298	81.2178	67	26
80.2298	80.5104	79	32
80.4666	80.8422	70	36
80.4666	80.8422	82	36
80.717	81.2178	63	24
80.8422	81.2178	70	28
80.8422	81.2178	82	28
80.9674	81.2178	58	24
81.2178	81.9617	53	29
81.4502	82.5586	68	26
81.4502	81.9617	70	35
81.4502	81.9617	82	35
81.6826	81.9617	72	31
81.6826	81.9617	84	31
81.9019	82.3353	74	36
81.9019	82.3353	86	36
82.116	82.5586	62	24
82.116	82.5586	77	33
82.116	82.5586	89	37
82.3353	82.5586	58	24
82.3353	82.5586	74	36
82.3353	82.5586	86	36
82.5586	83.2309	51	29
82.5586	82.995	72	36
82.5586	82.995	84	36
82.7733	83.2166	67	26
82.7733	83.2309	74	36
82.7733	83.2309	86	36
82.995	83.2309	72	28
82.995	83.2309	84	28
83.2166	83.5837	67	34
83.2166	83.5837	79	34
83.4614	83.8427	63	24
83.5837	83.9508	67	28
83.5837	83.9508	79	28
83.7061	83.9508	58	24
83.9508	84.6717	53	29
84.1725	84.6717	65	35
84.1725	84.6119	68	26
84.1725	84.6717	77	35
84.3941	84.6717	67	36
84.3941	84.6717	79	36
84.6119	85.0445	68	36
84.6119	85.0445	80	36
84.826	85.2686	62	24
84.826	85.2686	70	36
84.826	85.2686	82	36
85.0445	85.2686	58	24
85.0445	85.2686	68	36
85.0445	85.2686	80	36
85.2686	85.9515	51	29
85.2686	85.4848	67	36
85.2686	85.9515	79	36
85.4848	85.9515	65	33
85.4848	86.5719	67	26
85.4848	85.9515	77	33
85.7109	85.9515	63	31
85.7109	85.9515	75	31
85.937	86.3093	58	34
85.937	86.3093	70	34
86.1852	86.5719	63	24
86.3093	86.6815	58	28
86.3093	86.6815	70	28
86.4333	86.6815	55	24
86.6815	87.4328	46	29
86.9124	88.0597	56	26
86.9124	88.0597	62	31
86.9124	87.4328	65	35
87.1432	87.4328	67	36
87.3707	87.8184	68	36
87.5934	88.0597	52	24
87.5934	88.0597	70	36
87.8184	88.0597	53	24
87.8184	87.9994	68	36
87.939	88.0597	67	32
87.9994	88.0597	68	33
88.0597	88.7558	46	29
88.0597	88.5121	63	32
88.0597	88.7558	67	36
88.2824	89.2209	55	26
88.2824	88.7558	65	33
88.5121	88.7558	63	31
88.7419	88.9814	58	34
88.9814	89.4604	58	24
88.9814	89.4604	60	33
89.2209	89.4604	55	24
89.2209	89.4604	63	33
89.4604	90.187	46	29
89.4604	89.6917	56	32
89.4604	89.9309	62	36
89.6917	90.5541	56	26
89.6917	90.187	65	33
89.9309	90.1118	62	31
90.0515	90.1722	60	27
90.1118	90.187	62	27
90.1722	90.8236	60	33
90.4268	90.8236	52	24
90.5541	90.9361	56	30
90.5541	90.9361	58	30
90.6814	90.9361	53	24
90.9361	91.9733	39	27
90.9361	91.9733	51	32
90.9361	91.4404	58	28
90.9361	91.9501	63	30
90.9361	91.9501	67	36
91.1882	91.9733	57	33
91.4404	91.9733	58	33
91.6926	91.9501	55	35
91.9501	92.4411	34	25
91.9501	92.4411	46	30
91.9501	92.4411	55	35
91.9501	92.4411	63	37
91.9501	92.4411	67	37
92.193	92.4411	58	31
92.4411	93.4053	41	27
92.4411	93.4053	53	33
92.4411	93.4053	57	28
92.4411	93.3941	62	30
92.4411	93.3941	68	36
92.6805	93.4053	58	31
92.9131	93.4053	60	31
93.1502	93.4053	61	31
93.3941	93.889	34	25
93.3941	93.889	46	30
93.3941	93.889	62	28
93.3941	93.889	68	36
93.639	93.889	58	30
93.889	94.8512	39	25
93.889	94.8512	51	30
93.889	94.3747	58	27
93.889	94.8512	63	28
93.889	94.8512	67	35
94.1295	94.8512	57	33
94.3747	94.8512	58	33
94.619	94.8623	55	35
94.8623	95.3528	34	25
94.8623	95.3528	46	30
94.8623	95.3528	55	35
94.8623	95.3528	63	37
94.8623	95.3528	67	37
95.1085	95.3528	58	30
95.3528	96.2969	41	25
95.3528	96.2969	53	30
95.3528	96.2969	57	27
95.3528	96.2969	62	28
95.3528	96.2969	68	35
95.5887	96.2969	58	31
95.8177	96.2969	60	31
96.0555	96.2969	61	31
96.2969	96.7798	34	25
96.2969	96.7798	46	30
96.2969	96.7798	62	28
96.2969	96.7798	68	36
96.5355	96.7798	58	30
96.7798	97.8386	39	25
96.7798	97.8386	51	30
96.7798	97.2655	58	27
96.7798	97.7661	63	28
96.7798	97.7661	67	35
97.0203	97.8386	57	32
97.2655	97.8386	58	32
97.5098	97.7661	55	33
97.7661	98.2684	34	23
97.7661	98.2684	46	28
97.7661	98.2684	55	33
97.7661	98.2684	63	36
97.7661	98.2684	67	36
98.0183	98.2684	58	28
98.2684	99.3688	39	23
98.2684	99.3688	51	27
98.2684	98.7909	58	25
98.2684	99.3397	63	27
98.2684	99.3397	67	32
98.5247	99.3688	57	27
98.7909	99.3688	58	30
99.0653	99.3397	55	31
99.3397	100.102	34	19
99.3397	100.102	46	24
99.3397	100.002	55	27
99.3397	100.002	63	29
99.3397	100.002	67	29
99.6436	100.102	58	23
100.002	102.337	39	20
100.002	102.337	51	25
100.002	102.337	55	22
100.002	102.337	63	22
100.002	102.337	67	27
103.116	104.13	44	36
103.116	104.808	71	51
103.116	104.808	75	51
103.398	104.13	51	33
103.667	104.13	56	30
103.936	104.205	59	31
104.205	104.808	61	34
104.47	104.808	63	33
104.734	106.314	64	36
104.734	106.314	68	36
104.734	105.826	73	57
104.998	105.826	75	52
105.263	105.826	76	50
105.527	105.826	78	53
105.783	106.314	82	53
106.044	106.314	80	51
106.314	107.429	44	36
106.314	107.987	71	51
106.314	107.987	75	51
106.596	107.429	51	33
106.855	107.429	56	30
107.12	107.429	59	31
107.385	107.987	61	34
107.649	107.987	63	36
107.914	109.494	64	36
107.914	109.494	68	36
107.914	109.02	73	57
108.178	109.02	75	50
108.442	109.02	76	50
108.707	109.02	78	53
108.962	109.494	80	53
109.223	109.494	76	55
109.494	110.58	44	36
109.494	110.58	75	58
109.769	110.58	51	33
109.769	110.58	73	53
110.035	110.58	56	30
110.035	110.58	71	55
110.303	110.58	59	31
110.303	110.58	68	52
110.565	111.108	61	34
110.565	111.108	70	52
110.834	111.108	63	36
110.834	111.108	71	52
111.108	112.727	56	36
111.108	112.727	64	36
111.108	112.309	68	51
111.108	111.644	73	57
111.376	112.309	75	50
111.644	112.309	73	48
111.911	112.309	76	44
112.189	112.727	78	42
112.458	112.727	76	41
112.727	113.878	44	24
112.727	114.399	68	38
112.727	114.399	71	38
112.727	114.383	75	38
112.727	114.399	80	38
113.009	113.878	51	21
113.278	113.878	56	20
113.547	113.878	59	20
113.818	114.383	61	22
114.091	114.399	63	24
114.383	117.222	61	23
114.383	117.252	67	24
114.383	116.133	75	38
116.133	117.252	44	36
116.133	117.824	71	51
116.133	117.824	75	51
116.415	117.252	51	33
116.684	117.252	56	30
116.953	117.252	59	31
117.222	117.824	61	34
117.486	117.824	63	36
117.751	119.331	64	36
117.751	119.331	68	36
117.751	118.872	73	57
118.015	118.872	75	51
118.279	118.872	76	51
118.544	118.872	78	53
118.799	119.331	82	55
119.06	119.331	80	53
119.331	120.431	44	36
119.331	121.004	71	51
119.331	121.004	75	51
119.613	120.431	51	33
119.872	120.431	56	30
120.137	120.431	59	31
120.401	121.004	61	34
120.666	121.004	63	36
120.93	122.51	64	36
120.93	122.51	68	36
120.93	121.979	73	57
121.195	121.979	75	51
121.459	121.979	76	52
121.723	121.979	78	52
121.979	122.51	80	53
122.24	122.51	76	55
122.51	123.657	44	36
122.51	123.657	75	58
122.786	123.657	51	33
122.786	123.657	73	53
123.052	123.657	56	30
123.052	123.657	71	55
123.32	123.657	59	31
123.32	123.657	68	52
123.582	124.125	61	34
123.582	124.125	70	52
123.851	124.125	63	36
123.851	124.125	71	52
124.125	125.743	56	36
124.125	125.743	64	36
124.125	125.295	68	49
124.125	124.66	73	57
124.392	125.295	75	49
124.66	125.295	73	47
124.928	125.295	76	45
125.205	125.743	78	42
125.474	125.743	76	41
125.743	126.865	44	24
125.743	127.381	68	38
125.743	127.381	71	38
125.743	127.381	75	38
125.743	127.381	80	38
126.026	126.865	51	21
126.295	126.865	56	20
126.564	126.865	59	20
126.834	127.381	61	22
127.108	127.381	63	24
127.381	128.489	68	30
127.653	128.489	63	30
127.928	128.489	61	28
128.203	128.489	59	28
128.481	128.854	58	27
128.76	130.156	56	25
128.971	130.156	70	44
129.041	130.156	39	30
129.041	130.737	75	55
129.324	130.156	46	29
129.593	130.156	51	28
129.862	130.156	55	30
130.131	130.659	58	34
130.395	130.737	63	38
130.659	132.273	58	41
130.659	132.273	64	41
130.659	132.273	68	41
130.938	131.782	73	52
131.201	131.782	75	50
131.464	131.782	76	50
131.731	132.273	78	53
131.996	132.273	80	50
132.203	132.273	70	42
132.273	133.372	39	36
132.273	133.959	75	51
132.555	133.372	46	33
132.814	133.372	51	30
133.079	133.372	55	31
133.344	133.85	58	34
133.614	133.959	63	36
133.833	135.391	51	35
133.85	135.391	58	38
133.867	135.391	61	40
133.884	135.391	64	42
134.154	134.928	70	54
134.418	134.619	73	57
134.562	134.675	71	38
134.619	134.981	73	37
134.675	134.981	71	49
134.928	135.355	70	58
135.189	135.391	68	56
135.391	136.598	39	39
135.459	136.598	63	39
135.459	136.598	67	63
135.734	136.598	59	36
135.734	136.598	68	58
136.0	136.598	58	33
136.0	136.598	70	60
136.268	136.598	55	35
136.268	136.598	75	57
136.531	137.073	50	39
136.531	137.073	77	61
136.799	137.073	51	45
136.799	137.073	79	57
137.073	138.181	44	49
137.073	137.752	71	62
137.073	138.181	80	62
137.341	138.181	50	46
137.341	138.181	75	59
137.609	138.181	51	45
137.609	137.814	73	59
137.752	137.876	71	42
137.814	138.181	73	42
137.876	138.181	55	36
137.876	138.181	71	53
138.139	138.677	56	42
138.139	138.677	70	49
138.408	138.677	59	41
138.408	138.677	68	49
138.61	140.353	67	48
138.677	139.798	39	36
138.677	140.353	75	59
138.959	139.798	45	38
139.231	139.798	46	40
139.502	139.798	51	41
139.772	140.353	55	44
140.046	140.353	58	46
140.338	141.851	59	45
140.338	141.919	62	46
140.338	141.919	68	54
140.615	141.851	56	39
140.885	141.851	52	39
141.157	141.851	47	38
141.431	141.851	44	36
141.706	141.919	40	34
141.919	143.139	70	49
141.999	143.139	39	36
141.999	143.695	75	59
142.282	143.139	46	35
142.55	143.139	51	34
142.819	143.139	55	36
143.088	143.617	58	40
143.353	143.695	63	45
143.617	145.23	58	49
143.617	145.23	64	49
143.617	145.23	68	49
143.895	144.732	73	52
144.159	144.732	75	52
144.422	144.732	76	50
144.689	145.23	78	53
144.953	145.23	80	50
145.161	145.23	70	42
145.23	146.329	39	36
145.23	146.917	75	51
145.513	146.329	46	33
145.771	146.329	51	30
146.036	146.329	55	31
146.301	146.808	58	34
146.571	146.917	63	36
146.791	148.359	51	35
146.808	148.359	58	38
146.824	148.359	61	40
146.841	148.359	64	42
147.111	147.895	70	52
147.376	147.582	73	57
147.521	147.643	71	36
147.582	147.93	73	36
147.643	147.93	71	49
147.895	148.323	70	58
148.156	148.359	68	52
148.359	149.565	39	39
148.426	149.565	63	39
148.426	149.565	67	63
148.702	149.565	59	36
148.702	149.565	68	58
148.968	149.565	58	33
148.968	149.565	70	60
149.236	149.565	55	35
149.236	149.565	75	57
149.498	150.041	50	39
149.498	150.041	77	61
149.767	150.041	51	45
149.767	150.041	79	57
150.041	151.149	44	49
150.041	150.725	71	62
150.041	151.149	80	62
150.308	151.149	50	46
150.308	151.149	75	55
150.576	151.149	51	45
150.576	150.783	73	59
150.725	150.841	71	38
150.783	151.149	73	39
150.841	151.149	55	38
150.841	151.149	71	51
151.104	151.642	56	42
151.104	151.642	70	49
151.373	151.642	59	41
151.373	151.642	68	49
151.575	154.967	67	48
151.642	152.763	39	36
151.642	154.935	75	59
151.924	152.763	45	38
152.196	152.763	46	40
152.466	152.763	51	41
152.737	153.304	55	44
153.011	153.304	58	46
153.289	154.408	61	45
153.566	154.408	59	35
153.836	154.408	58	39
154.108	154.408	55	38
154.382	154.967	52	36
154.658	154.967	51	34
154.935	156.039	44	36
154.935	156.627	71	51
154.935	156.627	75	51
155.218	156.039	51	33
155.487	156.039	56	30
155.755	156.039	59	31
156.024	156.627	61	34
156.289	156.627	63	32
156.553	158.133	64	36
156.553	158.133	68	36
156.553	157.718	73	57
156.818	157.718	75	51
157.082	157.718	76	52
157.346	157.718	78	51
157.602	158.133	82	53
157.863	158.133	80	52
158.133	159.218	44	36
158.133	159.807	71	51
158.133	159.807	75	51
158.415	159.218	51	33
158.674	159.218	56	30
158.939	159.218	59	31
159.204	159.807	61	34
159.468	159.807	63	36
159.733	161.313	64	36
159.733	161.313	68	36
159.733	160.839	73	57
159.997	160.839	75	52
160.262	160.839	76	52
160.526	160.839	78	51
160.782	161.313	80	53
161.043	161.313	76	55
161.313	162.399	44	36
161.313	162.399	75	58
161.589	162.399	51	33
161.589	162.399	73	53
161.854	162.399	56	30
161.854	162.399	71	55
162.123	162.399	59	31
162.123	162.399	68	52
162.385	162.927	61	34
162.385	162.927	70	52
162.654	162.927	63	36
162.654	162.927	71	49
162.927	164.546	56	36
162.927	164.546	64	36
162.927	164.023	68	43
162.927	163.463	73	57
163.195	164.023	75	50
163.463	164.023	73	49
163.731	164.023	76	42
164.008	164.546	78	42
164.277	164.546	76	41
164.546	166.184	44	24
164.546	165.91	68	38
164.546	166.184	71	38
164.546	166.184	75	38
164.546	166.184	80	38
164.828	166.184	51	21
165.097	166.184	56	20
165.366	166.184	59	20
165.637	166.184	63	22
165.91	166.184	68	24
166.184	167.304	71	38
166.455	167.304	70	38
166.731	167.304	68	36
167.006	167.304	63	33
167.283	167.844	59	36
167.563	167.844	56	35
167.844	169.467	41	27
167.844	169.467	51	32
167.844	168.391	59	28
167.844	169.189	63	30
167.844	169.467	68	37
168.118	169.467	58	30
168.391	168.931	59	32
168.665	169.467	56	31
168.931	169.467	59	33
169.189	169.467	63	31
169.467	170.014	59	28
169.467	170.812	63	30
169.467	171.089	68	37
169.467	171.089	71	32
169.741	171.089	58	30
170.014	170.555	59	33
170.288	171.089	56	30
170.555	171.089	59	35
170.812	171.089	63	31
171.089	172.711	41	28
171.089	172.711	47	33
171.089	171.636	59	29
171.089	172.434	63	31
171.089	172.711	68	39
171.363	172.711	58	31
171.636	172.177	59	34
171.91	172.711	56	31
172.177	172.711	59	37
172.434	172.711	63	32
172.711	173.256	59	29
172.711	174.054	63	31
172.711	174.342	68	39
172.711	174.342	71	33
172.984	174.342	58	32
173.256	173.795	59	34
173.528	174.342	56	30
173.795	174.342	59	37
174.054	174.342	63	32
174.342	175.966	34	23
174.342	175.966	46	28
174.342	174.889	58	25
174.342	175.687	63	27
174.342	175.966	67	33
174.616	175.966	57	28
174.889	175.43	58	29
175.163	175.966	55	27
175.43	175.966	58	31
175.687	175.966	63	28
175.966	176.513	58	25
175.966	177.311	63	27
175.966	177.585	67	33
175.966	177.585	70	28
176.239	177.585	57	28
176.513	177.053	58	29
176.786	177.585	55	28
177.053	177.585	58	31
177.311	177.585	63	28
177.585	178.73	34	28
177.585	178.73	46	28
177.585	177.849	62	35
177.585	177.849	68	35
177.585	178.111	72	35
177.849	178.111	62	32
177.849	178.111	68	32
177.849	178.176	70	32
178.111	178.372	62	39
178.111	178.372	68	39
178.111	178.631	72	39
178.307	178.73	77	33
178.372	178.631	62	34
178.372	178.631	68	34
178.372	178.73	70	34
178.372	179.149	82	49
178.631	178.877	62	45
178.631	178.877	68	45
178.631	179.149	72	45
178.877	179.149	62	39
178.877	179.149	68	39
178.877	179.149	70	39
179.149	180.289	46	42
179.149	180.289	58	42
179.149	179.408	74	52
179.149	179.408	80	52
179.149	179.664	84	52
179.408	179.664	74	47
179.408	179.664	80	47
179.408	179.728	82	47
179.664	179.919	74	55
179.664	179.919	80	55
179.664	180.181	84	55
179.855	180.289	89	45
179.919	180.181	74	47
179.919	180.181	80	47
179.919	180.289	82	47
179.919	181.758	94	68
180.181	180.449	74	60
180.181	180.449	80	60
180.181	180.644	84	60
180.449	181.758	74	52
180.449	181.758	80	52
180.449	181.758	82	52
180.723	181.758	39	36
180.723	181.758	51	43
180.723	181.235	58	38
180.723	181.747	63	41
180.723	181.747	67	49
180.983	181.758	57	44
181.235	181.758	58	44
181.487	181.747	55	47
181.747	182.255	34	34
181.747	182.255	46	41
181.747	182.255	55	47
181.747	182.255	63	50
181.747	182.255	67	50
182.0	182.255	58	42
182.255	183.273	41	36
182.255	183.273	53	44
182.255	183.273	57	38
182.255	183.238	62	41
182.255	183.238	68	49
182.499	183.273	58	39
182.737	183.273	60	42
182.982	183.273	61	38
183.238	183.748	34	34
183.238	183.748	46	41
183.238	183.748	62	38
183.238	183.748	68	48
183.49	183.748	58	40
183.748	184.745	39	34
183.748	184.745	51	40
183.748	184.241	58	36
183.748	184.733	63	38
183.748	184.733	67	46
183.992	184.745	57	40
184.241	184.745	58	44
184.485	184.733	55	47
184.733	185.224	34	34
184.733	185.224	46	41
184.733	185.224	55	47
184.733	185.224	63	50
184.733	185.224	67	50
184.98	185.224	58	41
185.224	186.219	41	34
185.224	186.219	53	41
185.224	186.219	57	36
185.224	186.182	62	38
185.224	186.182	68	46
185.462	186.219	58	42
185.693	186.219	60	42
185.932	186.219	61	42
186.182	186.712	34	34
186.182	186.712	46	41
186.182	186.569	62	38
186.182	186.712	68	48
186.441	186.712	58	40
186.712	187.471	51	44
186.712	187.471	63	47
186.712	187.471	75	47
186.958	187.471	65	46
186.958	187.191	67	39
186.958	187.471	77	46
187.191	188.179	67	39
187.191	187.471	79	41
187.427	187.803	70	54
187.427	187.803	82	54
187.678	188.179	63	37
187.803	188.179	70	43
187.803	188.179	82	43
187.928	188.179	58	37
188.179	188.918	51	44
188.411	189.507	68	39
188.411	188.918	70	52
188.411	188.918	82	52
188.643	188.918	72	52
188.643	188.918	84	52
188.859	189.284	74	55
188.859	189.284	86	55
189.069	189.507	62	37
189.069	189.507	77	49
189.069	189.507	89	52
189.284	189.507	58	37
189.284	189.507	74	53
189.284	189.507	86	53
189.507	190.177	51	44
189.507	189.941	72	55
189.507	189.941	84	55
189.719	190.163	67	39
189.719	190.177	74	53
189.719	190.177	86	53
189.941	190.177	72	42
189.941	190.177	84	42
190.163	190.53	67	50
190.163	190.53	79	50
190.407	190.789	63	35
190.53	190.897	67	43
190.53	190.897	79	43
190.652	190.897	58	31
190.897	191.614	51	44
191.118	191.614	65	52
191.118	191.555	68	39
191.118	191.614	77	52
191.34	191.614	67	51
191.34	191.614	79	51
191.555	191.981	68	55
191.555	191.981	80	55
191.765	192.205	62	37
191.765	192.205	70	53
191.765	192.205	82	53
191.981	192.205	58	37
191.981	192.205	68	49
191.981	192.205	80	49
192.205	192.885	51	44
192.205	192.419	67	55
192.205	192.885	79	55
192.419	192.885	65	47
192.419	193.506	67	39
192.419	192.885	77	47
192.645	192.885	63	46
192.645	192.885	75	46
192.871	193.243	58	51
192.871	193.243	70	51
193.119	193.506	63	36
193.243	193.615	58	43
193.243	193.615	70	43
193.367	193.615	55	34
193.615	194.367	46	44
193.846	194.994	56	39
193.846	194.994	62	46
193.846	194.367	65	52
194.077	194.367	67	53
194.305	194.752	68	55
194.527	194.994	52	37
194.527	194.994	70	53
194.752	194.994	53	37
194.752	194.933	68	50
194.873	194.994	67	49
194.933	194.994	68	50
194.994	195.69	46	44
194.994	195.446	63	48
194.994	195.69	67	55
195.216	196.155	55	39
195.216	195.69	65	50
195.446	195.69	63	46
195.676	195.915	58	51
195.915	196.394	58	37
195.915	196.394	60	50
196.155	196.394	55	37
196.155	196.394	63	50
196.394	197.121	46	44
196.394	196.626	56	48
196.394	196.865	62	55
196.626	197.488	56	39
196.626	197.121	65	50
196.865	197.046	62	46
196.986	197.106	60	41
197.046	197.121	62	41
197.106	197.758	60	50
197.361	197.758	52	37
197.488	197.87	56	45
197.488	197.87	58	45
197.615	197.87	53	37
197.87	198.895	39	36
197.87	198.895	51	43
197.87	198.374	58	38
197.87	198.884	63	41
197.87	198.884	67	49
198.122	198.895	57	44
198.374	198.895	58	44
198.627	198.884	55	47
198.884	199.376	34	34
198.884	199.376	46	41
198.884	199.376	55	47
198.884	199.376	63	50
198.884	199.376	67	50
199.128	199.376	58	42
199.376	200.328	41	36
199.376	200.328	53	44
199.376	200.328	57	38
199.376	200.328	62	41
199.376	200.328	68	49
199.616	200.328	58	42
199.849	200.328	60	42
200.087	200.328	61	42
200.328	200.82	34	34
200.328	200.82	46	41
200.328	200.82	62	38
200.328	200.82	68	48
200.572	200.82	58	40
200.82	201.84	39	34
200.82	201.84	51	40
200.82	201.305	58	36
200.82	201.793	63	38
200.82	201.793	67	46
201.06	201.84	57	44
201.305	201.84	58	44
201.55	201.793	55	47
201.793	202.283	34	34
201.793	202.283	46	41
201.793	202.283	55	47
201.793	202.283	63	50
201.793	202.283	67	50
202.039	202.283	58	41
202.283	203.242	41	34
202.283	203.242	53	41
202.283	203.242	57	36
202.283	203.242	62	38
202.283	203.242	68	46
202.519	203.242	58	42
202.753	203.242	60	42
202.992	203.242	61	42
203.242	203.772	34	34
203.242	203.772	46	41
203.242	203.629	62	38
203.242	203.772	68	48
203.501	203.772	58	40
203.772	204.53	51	44
203.772	204.53	63	47
203.772	204.53	75	47
204.018	204.53	65	47
204.018	204.25	67	39
204.018	204.53	77	47
204.25	205.222	67	39
204.25	204.53	79	47
204.487	205.222	70	53
204.487	205.222	82	53
204.729	205.222	63	37
204.972	205.222	58	37
205.222	205.974	51	44
205.455	206.568	68	39
205.455	205.974	70	52
205.455	205.974	82	52
205.687	205.974	72	43
205.687	205.974	84	43
205.913	206.347	73	55
205.913	206.347	85	55
206.131	206.568	61	37
206.131	206.568	77	38
206.131	206.568	89	44
206.347	206.568	58	37
206.347	206.568	73	53
206.347	206.568	85	53
206.568	207.243	51	44
206.568	207.243	72	55
206.568	207.243	84	55
206.786	207.827	67	39
206.786	207.243	70	53
206.786	207.243	82	53
207.008	207.23	63	46
207.008	207.23	75	46
207.23	207.827	63	51
207.23	207.827	75	51
207.458	207.827	61	37
207.458	207.935	65	51
207.458	207.935	77	51
207.691	207.935	58	37
207.935	208.657	51	44
208.157	209.254	61	39
208.157	208.657	67	52
208.157	208.657	79	52
208.379	208.657	68	47
208.379	208.657	80	47
208.597	209.254	70	55
208.597	209.254	82	55
208.811	209.254	55	37
208.811	209.254	75	51
208.811	209.254	87	53
209.03	209.254	51	37
209.03	209.254	72	47
209.03	209.254	84	47
209.254	209.937	44	44
209.254	209.937	70	55
209.254	209.937	82	55
209.472	211.515	60	39
209.472	209.937	68	50
209.472	209.937	80	50
209.698	209.924	63	46
209.698	209.924	75	46
209.924	210.837	63	51
209.924	210.837	75	51
210.155	211.745	56	39
210.155	211.975	68	49
210.155	210.837	80	55
210.389	211.975	51	39
210.622	211.975	44	48
210.837	211.975	63	42
210.837	211.975	72	52
210.837	211.515	75	52
210.837	211.515	80	61
210.837	211.515	84	61
211.515	211.975	60	39
211.515	211.975	75	55
211.515	211.975	80	55
211.515	211.975	84	67
211.515	211.975	87	67
211.745	211.975	56	39
211.975	212.657	44	50
212.191	214.235	59	45
212.191	213.557	63	57
212.191	213.557	75	57
212.875	214.497	56	44
212.875	214.808	68	58
212.875	213.557	80	64
213.108	214.808	51	45
213.342	214.808	44	54
213.557	214.808	63	49
213.557	214.808	71	56
213.557	214.235	75	56
213.557	214.235	80	67
213.557	214.235	83	67
214.235	214.808	59	48
214.235	214.808	75	59
214.235	214.808	80	59
214.235	214.808	83	71
214.235	214.808	87	71
214.497	214.808	56	49
214.808	215.568	46	65
214.808	215.568	63	46
214.808	215.568	75	60
215.054	215.568	65	48
215.054	215.287	67	45
215.054	215.568	77	55
215.287	216.275	67	50
215.287	215.568	79	57
215.524	215.9	70	54
215.524	215.9	82	66
215.774	216.275	63	43
215.9	216.275	70	43
215.9	216.275	82	53
216.025	216.275	58	43
216.275	217.005	46	51
216.508	217.595	68	45
216.508	217.005	70	52
216.508	217.005	82	65
216.73	217.005	72	47
216.73	217.005	84	59
216.946	217.372	74	54
216.946	217.372	86	70
217.156	217.595	62	43
217.156	217.595	77	52
217.156	217.595	89	58
217.372	217.595	58	43
217.372	217.595	74	53
217.372	217.595	86	66
217.595	218.266	51	51
217.595	218.03	72	53
217.595	218.03	84	67
217.809	218.252	67	45
217.809	218.266	74	53
217.809	218.266	86	66
218.03	218.266	72	45
218.03	218.266	84	57
218.252	218.619	67	51
218.252	218.619	79	63
218.497	218.878	63	43
218.619	218.986	67	43
218.619	218.986	79	53
218.741	218.986	58	43
218.986	219.716	48	51
219.218	220.306	61	45
219.218	219.657	70	52
219.218	219.657	82	62
219.441	219.716	72	44
219.441	219.716	84	52
219.657	220.306	70	55
219.657	220.306	82	65
219.867	220.306	60	43
219.867	220.306	68	48
219.867	220.306	80	60
220.083	220.306	64	43
220.083	220.306	67	49
220.083	220.306	79	58
220.306	220.989	41	51
220.306	220.989	65	52
220.306	220.989	77	62
220.519	221.464	63	45
220.519	220.989	67	49
220.519	220.989	79	58
220.741	220.989	68	47
220.741	220.989	80	56
220.974	221.709	75	57
220.974	221.709	87	71
221.219	221.709	53	43
221.341	221.709	72	48
221.341	221.709	84	57
221.464	221.709	63	43
221.709	222.435	46	51
221.941	223.025	56	45
221.941	222.376	72	52
221.941	222.376	84	62
222.16	222.435	75	49
222.16	222.435	87	58
222.376	223.025	72	49
222.376	223.025	84	61
222.587	223.025	55	43
222.587	223.025	68	51
222.587	223.025	80	60
222.802	223.025	63	43
222.802	223.025	67	49
222.802	223.025	79	58
223.025	223.711	46	48
223.025	223.711	65	49
223.025	223.711	77	58
223.239	224.43	63	45
223.239	223.711	67	49
223.239	223.711	79	58
223.46	223.711	68	47
223.46	223.711	80	56
223.696	224.43	74	57
223.696	224.43	86	71
223.941	224.43	58	43
224.063	225.131	72	48
224.063	225.131	84	57
224.186	224.43	68	43
224.43	225.131	46	45
224.65	225.131	55	40
224.65	225.131	64	44
224.65	225.131	76	52
224.88	225.131	56	38
224.88	225.131	65	40
224.88	225.131	77	48
225.116	225.882	60	35
225.116	225.882	68	47
225.116	225.882	80	57
225.499	225.882	58	34
225.499	225.882	67	43
225.499	225.882	79	51
225.882	226.943	39	36
225.882	226.943	51	43
225.882	226.387	58	38
225.882	226.896	63	41
225.882	226.896	67	49
226.134	226.943	57	41
226.387	226.943	58	44
226.639	226.896	55	47
226.896	227.386	34	34
226.896	227.386	46	41
226.896	227.386	55	47
226.896	227.386	63	50
226.896	227.386	67	50
227.138	227.386	58	42
227.386	228.388	41	36
227.386	228.388	53	44
227.386	228.388	57	38
227.386	228.343	62	41
227.386	228.343	68	49
227.628	228.388	58	39
227.863	228.388	60	42
228.101	228.388	61	38
228.343	228.824	34	34
228.343	228.824	46	41
228.343	228.824	62	38
228.343	228.824	68	48
228.58	228.824	58	40
228.824	229.856	39	34
228.824	229.856	51	40
228.824	229.309	58	36
228.824	229.797	63	38
228.824	229.797	67	46
229.064	229.856	57	44
229.309	229.856	58	42
229.554	229.797	55	47
229.797	230.288	34	34
229.797	230.288	46	41
229.797	230.288	55	47
229.797	230.288	63	50
229.797	230.288	67	50
230.043	230.288	58	41
230.288	231.296	41	34
230.288	231.296	53	41
230.288	231.296	57	36
230.288	231.246	62	38
230.288	231.246	68	46
230.523	231.296	58	39
230.757	231.296	60	42
230.996	231.296	61	37
231.246	231.776	34	34
231.246	231.776	46	41
231.246	231.634	62	38
231.246	231.776	68	48
231.505	231.776	58	40
231.776	232.535	51	29
231.776	232.535	63	31
231.776	232.535	75	31
232.022	232.535	65	30
232.022	232.255	67	26
232.022	232.535	77	30
232.255	233.243	67	26
232.255	232.535	79	30
232.491	232.867	70	36
232.491	232.867	82	36
232.742	233.243	63	24
232.867	233.243	70	28
232.867	233.243	82	28
232.992	233.243	58	24
233.243	233.987	51	29
233.475	234.583	68	26
233.475	233.987	70	35
233.475	233.987	82	35
233.707	233.987	72	31
233.707	233.987	84	31
233.927	234.36	74	36
233.927	234.36	86	36
234.141	234.583	62	24
234.141	234.583	77	33
234.141	234.583	89	33
234.36	234.583	58	24
234.36	234.583	74	36
234.36	234.583	86	36
234.583	235.257	51	29
234.583	235.021	72	36
234.583	235.021	84	36
234.8	235.243	67	26
234.8	235.257	74	33
234.8	235.257	86	33
235.021	235.257	72	31
235.021	235.257	84	31
235.243	235.61	67	34
235.243	235.61	79	34
235.488	235.869	63	24
235.61	235.977	67	28
235.61	235.977	79	28
235.732	235.977	58	24
235.977	236.695	51	29
236.199	236.695	65	35
236.199	236.636	68	26
236.199	236.695	77	35
236.421	236.695	67	32
236.421	236.695	79	32
236.636	237.066	68	36
236.636	237.066	80	36
236.847	237.29	62	24
236.847	237.29	70	36
236.847	237.29	82	36
237.066	237.29	58	24
237.066	237.29	68	36
237.066	237.29	80	36
237.29	237.973	51	29
237.29	237.506	67	36
237.29	237.973	79	36
237.506	237.973	65	33
237.506	238.593	67	26
237.506	237.973	77	33
237.732	237.973	63	31
237.732	237.973	75	31
237.958	238.33	58	34
237.958	238.33	70	34
238.206	238.593	63	24
238.33	238.703	58	28
238.33	238.703	70	28
238.455	238.703	55	24
238.703	239.454	46	29
238.934	240.081	56	26
238.934	240.081	62	31
238.934	239.454	65	35
239.164	239.454	67	32
239.392	239.84	68	36
239.615	240.081	52	24
239.615	240.081	70	36
239.84	240.081	53	24
239.84	240.021	68	36
239.96	240.081	67	32
240.021	240.081	68	33
240.081	240.777	46	29
240.081	240.533	63	32
240.081	240.777	67	36
240.304	241.242	55	26
240.304	240.777	65	33
240.533	240.777	63	31
240.763	241.003	58	34
241.003	241.482	58	24
241.003	241.482	60	33
241.242	241.482	55	24
241.242	241.482	63	33
241.482	242.208	46	29
241.482	241.713	56	32
241.482	241.952	62	36
241.713	242.575	56	26
241.713	242.208	65	33
241.952	242.133	62	31
242.073	242.193	60	27
242.133	242.208	62	27
242.193	242.845	60	33
242.448	242.845	52	24
242.575	242.957	56	30
242.575	242.957	58	30
242.703	242.957	53	24
242.957	243.717	51	29
242.957	243.717	63	31
242.957	243.717	75	31
243.203	243.717	65	28
243.203	243.436	67	26
243.203	243.717	77	28
243.436	244.424	67	26
243.436	243.717	79	27
243.673	244.049	70	36
243.673	244.049	82	36
243.923	244.424	63	24
244.049	244.424	70	28
244.049	244.424	82	28
244.174	244.424	58	24
244.424	245.168	51	29
244.657	245.765	68	26
244.657	245.168	70	35
244.657	245.168	82	35
244.889	245.168	72	28
244.889	245.168	84	28
245.108	245.542	74	36
245.108	245.542	86	36
245.322	245.765	62	24
245.322	245.765	77	28
245.322	245.765	89	30
245.542	245.765	58	24
245.542	245.765	74	36
245.542	245.765	86	36
245.765	246.437	51	29
245.765	246.201	72	36
245.765	246.201	84	36
245.98	246.423	67	26
245.98	246.437	74	32
245.98	246.437	86	32
246.201	246.437	72	31
246.201	246.437	84	31
246.423	246.79	67	34
246.423	246.79	79	34
246.668	247.049	63	24
246.79	247.157	67	28
246.79	247.157	79	28
246.913	247.157	58	24
247.157	247.878	51	29
247.379	247.878	65	35
247.379	247.818	68	26
247.379	247.878	77	35
247.601	247.878	67	32
247.601	247.878	79	32
247.818	248.251	68	36
247.818	248.251	80	36
248.032	248.475	62	24
248.032	248.475	70	32
248.032	248.475	82	32
248.251	248.475	58	24
248.251	248.475	68	36
248.251	248.475	80	36
248.475	249.158	51	29
248.475	248.691	67	36
248.475	249.158	79	36
248.691	249.158	65	33
248.691	249.778	67	26
248.691	249.158	77	33
248.917	249.158	63	31
248.917	249.158	75	31
249.143	249.516	58	34
249.143	249.516	70	34
249.392	249.778	63	24
249.516	249.888	58	28
249.516	249.888	70	28
249.64	249.888	55	24
249.888	250.639	46	29
250.119	251.266	56	26
250.119	251.266	62	31
250.119	250.639	65	35
250.35	250.639	67	32
250.577	251.025	68	36
250.8	251.266	52	24
250.8	251.266	70	34
251.025	251.266	53	24
251.025	251.206	68	36
251.145	251.266	67	32
251.206	251.266	68	33
251.266	251.962	46	29
251.266	251.719	63	32
251.266	251.962	67	36
251.489	252.427	55	26
251.489	251.962	65	33
251.719	251.962	63	31
251.948	252.188	58	34
252.188	252.667	58	24
252.188	252.667	60	33
252.427	252.667	55	24
252.427	252.667	63	33
252.667	253.393	46	29
252.667	252.898	56	32
252.667	253.137	62	36
252.898	253.761	56	26
252.898	253.393	65	33
253.137	253.318	62	31
253.258	253.379	60	27
253.318	253.393	62	27
253.379	254.03	60	33
253.633	254.03	52	24
253.761	254.142	56	30
253.761	254.142	58	30
253.888	254.142	53	24
254.142	255.189	39	27
254.142	255.189	51	32
254.142	254.647	58	28
254.142	255.155	63	30
254.142	255.155	67	36
254.395	255.189	57	33
254.647	255.189	58	33
254.899	255.155	55	35
255.155	255.644	34	25
255.155	255.644	46	30
255.155	255.644	55	35
255.155	255.644	63	37
255.155	255.644	67	37
255.396	255.644	58	31
255.644	256.62	41	27
255.644	256.62	53	33
255.644	256.62	57	28
255.644	256.586	62	30
255.644	256.586	68	36
255.882	256.62	58	31
256.11	256.62	60	31
256.347	256.62	61	31
256.586	257.067	34	25
256.586	257.067	46	30
256.586	257.067	62	28
256.586	257.067	68	36
256.824	257.067	58	30
257.067	258.052	39	25
257.067	258.052	51	30
257.067	257.553	58	27
257.067	258.041	63	28
257.067	258.041	67	35
257.308	258.052	57	33
257.553	258.052	58	33
257.797	258.041	55	35
258.041	258.531	34	25
258.041	258.531	46	30
258.041	258.531	55	35
258.041	258.531	63	37
258.041	258.531	67	37
258.287	258.531	58	30
258.531	259.486	41	25
258.531	259.486	53	30
258.531	259.486	57	27
258.531	259.475	62	28
258.531	259.475	68	35
258.767	259.486	58	31
258.996	259.486	60	31
259.234	259.486	61	31
259.475	259.958	34	25
259.475	259.958	46	30
259.475	259.958	62	28
259.475	259.958	68	36
259.714	259.958	58	30
259.958	260.993	39	25
259.958	260.993	51	30
259.958	260.444	58	27
259.958	260.944	63	28
259.958	260.944	67	35
260.199	260.993	57	31
260.444	260.993	58	31
260.688	260.944	55	33
260.944	261.447	34	23
260.944	261.447	46	28
260.944	261.447	55	33
260.944	261.447	63	36
260.944	261.447	67	36
261.197	261.447	58	28
261.447	262.547	39	23
261.447	262.547	51	27
261.447	261.969	58	25
261.447	262.518	63	27
261.447	262.518	67	32
261.703	262.547	57	29
261.969	262.547	58	28
262.244	262.518	55	31
262.518	263.28	34	19
262.518	263.28	46	24
262.518	263.18	55	27
262.518	263.18	63	29
262.518	263.18	67	29
262.822	263.28	58	23
263.18	266.294	39	20
263.18	265.516	51	25
263.18	267.506	55	22
263.18	265.516	63	22
263.18	267.506	67	27
265.516	266.294	51	25
265.516	267.506	63	30
265.516	267.506	75	27
265.516	267.506	79	27
265.516	266.294	87	33
266.294	267.852	39	25
266.294	267.852	51	30
266.294	267.852	87	27
266.294	267.852	91	27
266.294	267.852	94	27
266.294	267.852	99	33
