OnsetTime	OffsetTime	MidiPitch	Velocity
0.522991	0.644991	69	50
0.645984	0.760997	71	46
0.760997	0.882997	72	46
0.884003	0.999003	71	50
0.999003	1.12001	72	46
1.121	1.243	74	46
1.24401	1.60701	64	50
1.24401	1.60701	76	65
1.359	1.60701	66	44
1.482	1.60701	68	44
1.60501	1.71999	69	50
1.60701	1.71999	66	52
1.721	1.84199	71	45
1.723	1.843	68	45
1.843	1.95701	72	45
1.845	1.958	69	45
1.958	2.322	71	70
2.08	2.202	72	44
2.20301	2.32501	74	44
2.32601	2.68901	76	65
2.329	2.68901	64	50
2.44101	2.68701	66	46
2.56402	2.68901	68	46
2.68602	2.80402	69	50
2.68701	2.80502	66	50
2.80802	2.92002	71	45
2.80903	2.92301	68	45
2.92301	3.04301	72	45
2.92401	3.04301	69	45
3.04601	3.40303	71	66
3.16502	3.28103	72	45
3.28202	3.40303	74	45
3.40303	3.52503	72	50
3.40702	3.52602	69	50
3.52602	3.64103	74	48
3.52902	3.64103	71	50
3.64203	3.76303	76	50
3.64503	3.76403	72	51
3.76403	3.88604	77	50
3.76703	3.88703	74	52
3.88703	4.00205	79	54
3.88903	4.00205	76	53
4.00304	4.12405	81	58
4.00504	4.12504	77	56
4.12504	4.24704	79	61
4.12704	4.24805	76	60
4.24805	4.36204	74	55
4.24805	4.36103	77	56
4.36204	4.48404	76	53
4.36303	4.48503	72	51
4.48503	4.60404	74	55
4.48804	4.60705	71	55
4.60705	4.72205	72	52
4.60804	4.72305	69	52
4.72305	4.84804	71	48
4.72604	4.85204	67	50
4.85204	4.97805	69	56
4.85304	4.98905	65	59
4.97805	5.09703	71	50
5.09804	5.22704	72	50
5.22704	5.34603	71	53
5.23003	5.36604	60	56
5.34904	5.46804	69	48
5.47104	5.59104	67	48
5.59104	5.97304	65	53
5.59405	5.97304	57	50
5.72105	5.97205	64	47
5.84305	5.97304	63	47
5.97205	6.08403	56	53
5.97205	6.32904	64	57
6.08704	6.20704	54	48
6.20704	6.32904	52	48
6.33004	6.45104	51	52
6.45204	6.57404	49	47
6.57404	6.69605	47	48
6.69705	7.05306	57	64
6.69705	6.81205	59	50
6.81306	6.93506	61	45
6.93506	7.05405	63	45
7.05706	7.17605	64	54
7.05805	7.18006	56	54
7.18006	7.29906	66	49
7.18106	7.29906	54	49
7.30206	7.42207	52	49
7.30206	7.41706	68	49
7.42406	7.79205	69	59
7.42506	7.79205	51	53
7.53705	7.79205	49	47
7.66006	7.79205	47	47
7.78107	7.90107	59	50
7.78506	8.13907	57	64
7.90107	8.01907	61	45
8.02006	8.13907	63	45
8.14207	8.25807	64	54
8.14307	8.25807	56	54
8.25807	8.37607	66	48
8.26108	8.37708	54	47
8.38007	8.50608	68	48
8.38108	8.50608	52	47
8.50707	8.86307	69	58
8.51008	8.85308	51	52
8.62608	8.85308	49	44
8.74508	8.86707	47	44
8.86707	8.98208	59	50
8.87007	9.22009	57	64
8.98507	9.10509	61	46
9.10509	9.22009	63	46
9.22009	9.59809	64	54
9.22408	9.59809	56	50
9.34608	9.58809	66	47
9.34709	9.58809	54	43
9.46509	9.59809	68	47
9.46609	9.59809	52	43
9.58809	9.95607	54	52
9.58809	9.95607	66	60
9.71009	9.95207	68	53
9.71108	9.95507	52	44
9.82608	9.95607	51	44
9.82608	9.95607	69	53
9.95207	10.3161	68	64
9.95507	10.3151	52	52
10.0681	10.3131	69	58
10.0711	10.3161	51	47
10.1861	10.3161	50	47
10.1861	10.3161	71	60
10.3131	10.6761	69	68
10.3151	10.6761	52	56
10.4291	10.6661	71	60
10.4311	10.6691	50	52
10.5511	10.6761	72	63
10.5531	10.6761	48	53
10.6661	11.0371	71	73
10.6691	11.0371	50	58
10.7891	11.0271	72	63
10.7921	11.0291	48	55
10.9111	11.0371	74	68
10.9141	11.0371	47	55
11.0271	11.3971	72	79
11.0291	11.3971	48	65
11.1491	11.3971	74	68
11.1521	11.3971	47	59
11.2721	11.3971	76	74
11.2731	11.3971	45	59
11.3941	11.7651	77	90
11.3951	11.7681	44	77
11.5131	11.7691	76	77
11.5171	11.7691	45	67
11.6391	11.7691	47	67
11.6391	11.7691	74	79
11.7651	12.1321	77	88
11.7661	12.1301	83	88
11.7681	12.1321	38	75
11.7681	12.1331	44	75
11.8881	12.1391	45	66
11.8881	12.1391	76	79
12.0101	12.1391	47	66
12.0101	12.1391	74	79
12.1301	12.4981	83	92
12.1321	12.4981	38	76
12.1321	12.4971	77	92
12.1331	12.5001	44	76
12.2521	12.5041	76	80
12.2551	12.5041	45	69
12.3741	12.5041	74	80
12.3771	12.5041	47	69
12.4971	12.8701	77	93
12.4981	12.8711	38	78
12.4981	12.8681	83	93
12.5001	12.8711	44	78
12.6251	12.8781	76	84
12.6261	12.8781	45	72
12.7411	12.8781	47	74
12.7411	12.8781	74	86
12.8681	13.2461	83	97
12.8701	13.2471	77	97
12.8711	13.2471	38	81
12.8711	13.2481	44	81
12.9911	13.249	76	86
12.9931	13.249	45	74
13.1161	13.249	74	87
13.1191	13.249	47	76
13.2461	13.6241	83	100
13.2471	13.6271	38	84
13.2471	13.6231	77	100
13.2481	13.6271	44	84
13.3691	13.6271	45	76
13.3691	13.6271	76	88
13.4911	13.6271	47	78
13.4911	13.6271	74	91
13.6231	13.973	77	106
13.6241	13.973	32	84
13.6241	13.973	83	106
13.6271	13.973	44	99
13.7421	13.973	76	61
13.865	13.984	74	52
13.987	14.106	77	60
14.106	14.228	76	51
14.229	14.351	74	46
14.351	14.473	77	57
14.4741	14.6001	76	49
14.6031	14.7291	74	43
14.7291	14.8511	77	56
14.852	14.9781	76	47
14.981	15.108	74	44
15.108	15.2291	76	56
15.23	15.3561	74	46
15.3561	15.481	72	46
15.485	15.6041	74	55
15.6041	15.734	72	45
15.734	15.8591	71	45
15.8631	15.9821	69	50
15.9821	16.1041	71	46
16.1051	16.2271	72	46
16.2281	16.3501	71	50
16.3501	16.4721	72	46
16.4731	16.5911	74	46
16.5911	16.9561	76	65
16.5951	16.9561	64	50
16.7111	16.9551	66	44
16.8331	16.9561	68	44
16.9551	17.0711	66	52
16.9551	17.0671	69	50
17.0711	17.1901	71	45
17.0721	17.1931	68	45
17.1931	17.3051	72	45
17.1941	17.3091	69	45
17.3091	17.6661	71	70
17.4271	17.5431	72	44
17.5471	17.6691	74	44
17.6691	18.0371	76	65
17.6701	18.0371	64	50
17.7891	18.0371	66	46
17.9111	18.0371	68	46
18.0341	18.1481	69	50
18.0371	18.1491	66	50
18.1491	18.2681	71	45
18.1531	18.2711	68	45
18.2711	18.3931	72	45
18.2751	18.3941	69	45
18.3941	18.7541	71	66
18.5161	18.6281	72	45
18.6281	18.7551	74	45
18.7551	18.8731	72	50
18.7561	18.8741	69	50
18.8771	18.9891	74	48
18.8781	18.9891	71	50
18.9931	19.1121	72	51
18.9931	19.1111	76	50
19.1121	19.2271	77	50
19.1141	19.2271	74	52
19.2301	19.3501	76	53
19.2301	19.3491	79	54
19.3521	19.4721	81	58
19.3531	19.4751	77	56
19.4751	19.5941	79	61
19.4761	19.5941	76	60
19.5951	19.7091	77	56
19.5981	19.7101	74	55
19.7131	19.8321	76	53
19.7141	19.8331	72	51
19.8331	19.9481	74	55
19.8361	19.9481	71	55
19.9491	20.0701	72	52
19.9521	20.0711	69	52
20.0711	20.1961	71	48
20.0731	20.1961	67	50
20.2001	20.3361	65	59
20.2001	20.3251	69	56
20.3261	20.4481	71	50
20.4481	20.5671	72	50
20.5711	20.7071	60	56
20.5711	20.6891	71	53
20.6931	20.8121	69	48
20.8161	20.9421	67	48
20.9421	21.3171	65	53
20.9431	21.3171	57	50
21.0651	21.3131	64	47
21.1831	21.3171	63	47
21.3131	21.4351	64	54
21.3161	21.4361	55	54
21.4361	21.5541	66	49
21.4391	21.5541	54	49
21.5581	21.6771	52	49
21.5581	21.6761	67	49
21.6771	22.0411	69	59
21.6801	22.0411	51	53
21.8031	22.0411	49	47
21.9151	22.0411	47	47
22.0381	22.1601	59	50
22.0401	22.3981	57	64
22.1611	22.2751	61	45
22.2761	22.3991	63	45
22.4011	22.5201	64	54
22.4021	22.5201	55	54
22.5211	22.6351	66	48
22.5241	22.6361	54	47
22.6361	22.7621	67	48
22.6391	22.7621	52	47
22.7651	23.1271	69	58
22.7661	23.1271	51	52
22.8811	23.1271	49	44
23.0002	23.1271	47	44
23.1262	23.4832	57	64
23.1262	23.2442	59	50
23.2452	23.3602	61	46
23.3612	23.4832	63	46
23.4842	23.8542	64	54
23.4862	23.8542	55	50
23.6062	23.8512	66	47
23.6082	23.8542	54	43
23.7222	23.8542	67	47
23.7242	23.8542	52	43
23.8512	24.2142	66	60
23.8532	24.2142	51	52
23.9662	24.2112	67	53
23.9692	24.2122	52	44
24.0892	24.2142	69	53
24.0922	24.2142	54	44
24.2112	24.5752	67	64
24.2122	24.5752	52	52
24.3272	24.5722	69	58
24.3302	24.5722	54	47
24.4492	24.5752	71	60
24.4502	24.5752	55	47
24.5722	24.9352	54	56
24.5722	24.9352	69	68
24.6882	24.9352	55	52
24.6882	24.9252	71	60
24.8102	24.9352	57	53
24.8102	24.9352	72	63
24.9252	25.2992	56	58
24.9252	25.2992	71	73
25.0472	25.2902	72	63
25.0482	25.2922	57	55
25.1682	25.2992	74	68
25.1702	25.2992	59	55
25.2902	25.6702	72	79
25.2922	25.6702	57	65
25.4122	25.6702	59	59
25.4122	25.6702	74	68
25.5342	25.6702	76	74
25.5352	25.6702	60	59
25.6632	26.9551	65	96
25.6642	26.9551	62	91
25.7862	26.9551	58	77
25.7862	26.9551	70	78
25.9012	26.9551	74	74
25.9021	26.9551	53	77
26.0212	26.9551	77	87
26.0241	26.9551	50	86
26.1432	26.9551	82	76
26.1472	26.9551	46	76
26.2631	26.9551	41	76
26.2631	26.9551	86	76
26.3821	26.9551	89	88
26.3842	26.9551	38	83
26.5032	26.9551	94	76
26.5062	26.9551	34	75
26.6302	26.9551	98	76
26.6332	26.9551	29	75
26.7592	26.9551	101	97
26.7601	26.9551	26	91
27.1611	27.3752	69	79
27.1641	27.3752	76	93
27.1651	27.3752	64	79
27.1651	27.3752	72	79
27.1691	27.3752	40	65
27.1691	27.3752	52	77
27.1721	27.3752	45	65
27.1721	27.3752	48	65
27.5741	27.8291	64	74
27.5752	27.8291	68	74
27.5752	27.8291	76	88
27.5781	27.8291	71	74
27.5791	27.8291	44	61
27.5811	27.8291	47	61
27.5811	27.8291	52	72
27.5821	27.8291	40	61
27.9981	28.1211	60	62
27.9981	28.1202	69	67
28.1211	28.2431	71	56
28.1241	28.2441	59	56
28.2441	28.3661	72	56
28.2461	28.3661	57	56
28.3671	28.7431	74	65
28.3692	28.7431	56	61
28.4881	28.7431	54	55
28.6041	28.7431	52	54
28.7271	28.8451	64	66
28.7301	29.0831	62	67
28.8491	28.9641	66	54
28.9651	29.0871	68	53
29.0871	29.2051	69	64
29.0891	29.2091	60	61
29.2091	29.3211	71	55
29.2101	29.3241	59	55
29.3241	29.4501	72	55
29.3281	29.4511	57	55
29.4511	29.8282	74	65
29.4541	29.8282	56	60
29.5671	29.8282	54	54
29.6891	29.8282	52	54
29.8111	29.9261	64	64
29.8141	30.1712	62	68
29.9272	30.0492	66	58
30.0492	30.1721	68	58
30.1721	30.5352	69	68
30.1752	30.5352	60	64
30.2882	30.5262	71	60
30.2902	30.5352	59	57
30.4102	30.5352	72	63
30.4112	30.5352	57	57
30.5262	30.9032	71	73
30.5282	30.9032	56	67
30.6492	30.8862	72	63
30.6512	30.8892	57	56
30.7702	30.9032	74	68
30.7712	30.9032	59	56
30.8862	31.2742	72	79
30.8892	31.2742	57	72
31.0082	31.2742	74	68
31.0092	31.2742	59	64
31.1372	31.2742	76	74
31.1382	31.2742	60	64
31.2642	32.5552	62	91
31.2642	32.5552	65	96
31.3862	32.5552	58	76
31.3862	32.5552	70	78
31.5022	32.5552	74	75
31.5032	32.5552	53	76
31.6252	32.5552	50	85
31.6252	32.5552	77	93
31.7402	32.5552	82	77
31.7412	32.5552	46	74
31.8632	32.5552	86	77
31.8652	32.5552	41	75
31.9852	32.5552	38	85
31.9852	32.5552	89	92
32.1072	32.5552	94	78
32.1082	32.5552	34	75
32.2332	32.5552	98	78
32.2342	32.5552	29	76
32.3592	32.5552	101	97
32.3622	32.5552	26	93
32.7722	32.9812	69	79
32.7732	32.9822	64	79
32.7732	32.9822	72	79
32.7752	32.9832	76	93
32.7762	32.9852	40	68
32.7762	32.9862	45	68
32.7792	32.9862	48	68
32.7792	32.9862	52	80
33.1952	33.4272	64	74
33.1952	33.4262	68	74
33.1962	33.4272	71	74
33.1992	33.4302	40	63
33.1992	33.4312	47	63
33.1992	33.4302	76	88
33.2002	33.4332	44	63
33.2022	33.4342	52	75
33.6582	34.7632	69	88
33.6602	34.7641	81	104
33.6612	34.7641	72	88
33.6612	34.7641	76	88
33.6642	34.7672	36	73
33.6652	34.7672	40	73
33.6652	34.7682	45	86
33.6672	34.7702	33	73
34.7702	34.8161	45	76
34.8161	34.8721	47	77
34.8721	34.9242	48	77
34.9251	34.9762	50	78
34.9772	35.0762	68	74
34.9772	35.0752	76	88
34.9802	35.0782	52	85
34.9812	35.0782	40	72
35.1702	35.2682	69	58
35.1702	35.2672	75	69
35.1712	35.2682	53	69
35.1732	35.2702	41	58
35.3652	35.4632	68	68
35.3662	35.4632	76	81
35.3692	35.4672	52	77
35.3702	35.4672	40	65
35.5651	35.6632	69	58
35.5651	35.6641	75	69
35.5662	35.6661	41	58
35.5662	35.6641	53	69
35.7612	35.8772	68	74
35.7612	35.8772	76	88
35.7621	35.8781	52	77
35.7641	35.8801	40	65
36.2222	37.3322	72	88
36.2272	37.3362	65	88
36.2272	37.3372	69	88
36.2272	37.3372	77	104
36.2301	37.3392	29	73
36.2301	37.3402	33	73
36.2301	37.3402	36	73
36.2332	37.3402	41	87
37.3432	37.3851	41	69
37.3882	37.4381	43	69
37.4381	37.4901	45	69
37.4901	37.5431	47	70
37.5431	37.6401	64	74
37.5442	37.6412	72	88
37.5461	37.6441	36	59
37.5461	37.6451	48	70
37.7352	37.8401	65	61
37.7352	37.8362	71	72
37.7362	37.8401	38	52
37.7362	37.8441	50	62
37.9341	38.0361	64	67
37.9391	38.0361	72	79
37.9411	38.0371	36	60
37.9422	38.0391	48	71
38.1271	38.2241	65	61
38.1311	38.2311	38	54
38.1311	38.2291	50	64
38.1311	38.2291	71	72
38.3261	38.4422	72	88
38.3271	38.4422	36	65
38.3271	38.4422	64	74
38.3301	38.4462	48	77
38.7892	39.6772	71	83
38.7921	39.6772	62	83
38.7921	39.6811	65	83
38.7962	39.6842	32	73
38.7962	39.6842	44	86
38.7962	39.6811	74	98
39.6851	39.9751	64	76
39.6881	39.9751	69	76
39.6891	39.9751	33	68
39.6891	39.9751	60	76
39.6891	39.9751	72	90
39.6911	39.9751	45	80
40.1192	40.3352	62	76
40.1222	40.3352	58	76
40.1222	40.3362	65	76
40.1251	40.3392	70	90
40.1262	40.3392	34	65
40.1262	40.3402	46	77
40.5522	40.7632	65	80
40.5562	40.7662	77	95
40.5592	40.7662	68	80
40.5602	40.7702	35	70
40.5602	40.7702	47	83
40.5602	40.7692	74	80
40.9792	41.1932	72	77
40.9802	41.1962	76	91
40.9831	41.1962	64	77
40.9842	41.2012	36	67
40.9842	41.2002	48	79
40.9842	41.1972	69	77
41.4142	41.6452	65	79
41.4142	41.6452	74	94
41.4172	41.6452	38	71
41.4172	41.6452	50	84
41.4172	41.6452	71	79
41.8542	42.1162	72	90
41.8592	42.1162	64	76
41.8592	42.1162	69	76
41.8612	42.1162	52	78
41.8622	42.1162	40	66
42.3132	42.5581	71	88
42.3172	42.5581	64	74
42.3172	42.5581	68	74
42.3182	42.5581	52	75
42.3201	42.5581	40	63
42.7782	43.9661	69	87
42.7832	43.9661	45	69
42.7832	43.9661	48	69
42.7832	43.9651	52	69
42.7841	43.9661	57	82
42.9781	43.9661	71	83
43.0721	43.9661	72	75
43.1701	43.9661	74	76
43.2691	43.9651	76	78
43.3601	43.9661	78	80
43.4621	43.9661	80	82
43.5551	43.9661	81	83
43.6571	43.9661	83	85
43.7561	43.9661	84	87
43.8541	43.9661	86	88
43.9631	44.0481	88	99
43.9651	44.0531	52	65
43.9651	44.0531	56	77
43.9651	44.0521	76	84
44.1471	44.2491	75	73
44.1501	44.2491	87	86
44.1511	44.2521	53	56
44.1511	44.2521	57	67
44.3531	44.4441	88	93
44.3541	44.4451	56	72
44.3541	44.4451	76	79
44.3561	44.4481	52	61
44.5421	44.6401	75	73
44.5461	44.6441	87	86
44.5471	44.6481	53	55
44.5471	44.6441	57	65
44.7451	44.8611	88	101
44.7461	44.8641	76	85
44.7491	44.8641	56	77
44.7501	44.8651	52	65
45.2041	46.3941	48	72
45.2041	46.3941	65	89
45.2081	46.3941	41	72
45.2081	46.3941	45	72
45.2081	46.3941	53	85
45.4041	46.3941	67	83
45.5011	46.3941	69	75
45.5961	46.3941	70	76
45.6951	46.3881	72	78
45.7931	46.3941	74	80
45.8871	46.3941	76	82
45.9851	46.3941	77	83
46.0831	46.3941	79	85
46.1811	46.3941	81	87
46.2821	46.3941	82	88
46.3881	46.4811	72	79
46.3901	46.4811	84	94
46.3911	46.4851	52	71
46.3941	46.4851	48	60
46.5761	46.6741	83	82
46.5801	46.6781	50	54
46.5801	46.6781	53	64
46.5801	46.6771	71	69
46.7791	46.8771	72	76
46.7801	46.8811	52	70
46.7801	46.8771	84	90
46.7821	46.8811	48	59
46.9711	47.0731	83	81
46.9721	47.0761	53	62
46.9721	47.0761	71	68
46.9741	47.0771	50	52
47.1751	47.2901	72	80
47.1751	47.2891	84	95
47.1761	47.2931	48	62
47.1761	47.2901	52	74
47.6361	48.5431	71	85
47.6411	48.5431	47	57
47.6411	48.5431	50	57
47.6431	48.5431	56	68
47.6441	48.5431	44	57
47.6441	48.5431	53	57
47.7491	48.5431	72	80
47.8571	48.5431	74	80
47.9701	48.5431	76	78
48.0771	48.5431	77	90
48.1901	48.5431	83	83
48.3021	48.5431	86	82
48.4101	48.5431	89	78
48.5261	48.6301	88	92
48.5291	48.7391	48	55
48.5291	48.7421	52	55
48.5291	48.7391	57	65
48.5301	48.7421	45	55
48.9731	49.4331	70	86
48.9741	49.4291	50	51
48.9771	49.4331	58	60
48.9781	49.4331	46	51
48.9781	49.4331	53	51
49.0891	49.4251	74	78
49.2051	49.4331	77	78
49.3101	49.4331	82	78
49.4251	49.5361	74	86
49.4291	49.877	50	49
49.4301	49.877	56	49
49.4321	49.877	47	49
49.4321	49.877	59	58
49.4331	49.877	53	49
49.5371	49.877	77	78
49.653	49.877	80	78
49.761	49.877	86	78
49.873	50.342	52	48
49.873	49.985	72	86
49.876	50.342	60	57
49.877	50.342	48	48
49.877	50.342	57	48
49.986	50.342	76	76
50.105	50.342	81	76
50.216	50.342	84	76
50.332	50.8	71	80
50.335	50.8	53	49
50.335	50.8	62	58
50.336	50.8	50	49
50.336	50.8	59	49
50.447	50.8	74	73
50.563	50.8	77	73
50.674	50.8	83	72
50.79	51.267	69	78
50.791	51.267	57	47
50.794	51.263	52	47
50.794	51.267	60	47
50.794	51.263	64	56
50.906	51.267	72	70
51.028	51.267	76	70
51.14	51.267	81	70
51.26	51.753	68	77
51.263	51.753	52	45
51.263	51.753	59	45
51.263	51.753	64	54
51.266	51.753	56	45
51.383	51.753	71	69
51.508	51.753	76	69
51.627	51.753	80	69
51.749	52.529	57	87
51.75	53.325	45	77
51.942	53.325	47	73
51.942	52.627	59	82
52.041	52.722	60	78
52.043	53.325	48	67
52.138	52.825	62	77
52.14	53.325	50	67
52.233	53.325	52	66
52.233	52.925	64	77
52.33	53.325	66	77
52.331	53.325	54	65
52.429	53.325	68	76
52.432	53.325	56	64
52.527	53.226	69	76
52.529	53.325	57	63
52.625	53.325	71	76
52.627	53.325	59	63
52.719	53.325	72	75
52.722	53.325	60	62
52.824	53.325	74	75
52.825	53.325	62	62
52.922	53.325	76	74
52.925	53.325	64	61
53.023	53.325	65	61
53.023	53.325	77	74
53.118	53.325	79	73
53.121	53.325	67	60
53.223	53.325	81	73
53.226	53.325	69	60
53.324	59.575	82	71
53.325	59.575	70	60
54.535	59.575	79	71
54.536	59.575	67	60
55.753	59.575	76	67
55.754	59.575	64	55
56.985	59.575	61	48
56.985	59.575	73	55
58.273	59.572	60	46
58.273	59.575	72	50
59.572	62.113	60	33
59.572	60.747	69	38
59.574	60.856	41	36
59.789	60.223	48	22
60.003	60.44	53	27
60.223	60.856	48	22
60.44	60.856	53	36
60.643	60.856	70	36
60.747	60.856	69	31
60.849	62.12	67	36
60.853	62.12	40	36
61.06	61.472	48	26
61.263	62.12	70	38
61.265	62.12	55	31
61.472	62.12	48	26
61.682	62.12	73	42
61.683	62.12	58	35
62.113	63.366	60	33
62.113	63.362	72	40
62.114	63.376	41	33
62.32	62.739	48	23
62.529	63.376	57	26
62.739	63.376	48	22
62.946	63.376	69	34
62.949	63.376	53	36
63.362	64.636	72	40
63.366	64.63	60	33
63.367	64.636	40	36
63.573	63.986	48	27
63.775	64.636	52	31
63.986	64.636	48	26
64.19	64.636	70	34
64.192	64.636	55	35
64.629	65.7669	69	38
64.63	67.1109	60	38
64.632	65.8779	41	34
64.84	65.2559	48	27
65.0489	65.4659	53	29
65.2559	65.8779	48	26
65.4659	65.8779	53	36
65.6699	65.8779	70	35
65.7669	65.8779	69	31
65.8719	67.1169	40	36
65.8719	67.1169	67	36
66.0749	66.4809	48	27
66.2789	67.1169	70	38
66.2809	67.1169	55	31
66.4809	67.1169	48	27
66.6849	67.1169	73	42
66.6869	67.1169	58	35
67.1079	68.3499	72	40
67.1109	68.3529	41	33
67.1109	68.3509	60	33
67.3139	67.7239	48	23
67.5209	68.3529	57	27
67.7239	68.3529	48	22
67.9269	68.3529	69	34
67.9299	68.3529	53	36
68.3499	69.6029	72	47
68.3509	69.6029	60	47
68.3529	69.6029	40	38
68.5539	68.9659	48	28
68.7559	69.6029	52	35
68.9659	69.6029	48	28
69.1719	69.6029	70	45
69.1729	69.6029	55	35
69.5989	70.8559	61	53
69.6029	70.8559	40	38
69.6029	70.8559	73	53
69.8029	70.2149	49	30
70.0059	70.8559	52	36
70.2149	70.8559	49	31
70.4179	70.8559	70	49
70.4209	70.8559	55	39
70.8449	72.1088	62	57
70.8489	72.1088	41	47
70.8489	72.1088	74	57
71.0559	71.4688	50	33
71.2618	72.1088	53	36
71.4688	72.1088	50	33
71.6778	72.1088	70	49
71.6808	72.1088	58	41
72.1048	73.3998	63	53
72.1058	73.3998	69	53
72.1088	73.3998	41	48
72.3228	72.7428	53	35
72.5368	73.3998	78	61
72.5388	72.9628	60	40
72.7428	73.3998	53	35
72.9598	73.3998	77	55
72.9628	73.3998	60	44
73.3908	74.6698	65	33
73.3928	74.6698	46	39
73.3928	74.6698	75	50
73.5968	74.0169	53	24
73.8058	74.6698	58	26
74.0169	74.6698	53	22
74.2269	74.6698	74	45
74.2278	74.6698	62	31
74.6539	75.9408	60	49
74.6558	75.9408	69	49
74.6568	75.9408	38	38
74.8708	75.2938	50	30
75.0848	75.9408	75	53
75.0868	75.9408	54	33
75.2938	75.9408	50	29
75.5038	75.9408	57	38
75.5038	75.9408	74	45
75.9309	77.1878	72	48
75.9348	77.1968	43	36
75.9348	77.1968	62	33
76.1408	76.5608	50	25
76.3508	77.1968	55	28
76.5608	77.1968	50	26
76.7638	77.1968	58	31
76.7638	77.1968	70	45
77.1868	78.4408	60	33
77.1878	78.4438	40	36
77.1878	78.4418	72	40
77.3968	77.8068	48	27
77.5978	78.4438	52	29
77.8068	78.4438	48	27
78.0108	78.4438	70	34
78.0128	78.4438	55	35
78.4408	79.7008	60	33
78.4418	79.7008	72	40
78.4428	79.7008	41	33
78.6428	79.0568	48	28
78.8468	79.7008	57	29
79.0568	79.7008	48	28
79.2588	79.7008	69	34
79.2598	79.7008	53	36
79.6858	80.9738	58	33
79.6898	80.9738	36	33
79.6898	80.9738	73	51
79.8968	80.3238	48	29
80.1068	80.9738	72	36
80.1088	80.9738	55	29
80.3228	80.9738	70	31
80.3238	80.9738	48	29
80.5308	80.9738	69	35
80.5328	80.9738	52	36
80.7438	80.9738	67	29
80.9608	81.3908	57	28
80.9608	82.2588	65	35
80.9638	82.2518	41	33
81.1748	81.6078	48	26
81.3908	82.2588	57	26
81.6048	82.2588	67	38
81.6078	82.2588	48	26
81.8218	82.2588	53	30
81.8218	82.2478	69	43
82.0348	82.2588	70	46
82.2478	83.5358	69	54
82.2488	83.5358	63	54
82.2518	83.5358	41	44
82.4648	82.8848	53	36
82.6788	83.5358	78	59
82.6828	83.0978	60	38
82.8848	83.5358	53	36
83.0958	83.5358	77	54
83.0978	83.5358	60	44
83.5198	84.7958	65	52
83.5218	84.7958	46	39
83.5218	84.7958	75	52
83.7288	84.1458	53	26
83.9388	84.7958	58	26
84.1458	84.7958	53	26
84.3558	84.7958	74	49
84.3578	84.7958	62	31
84.7928	86.0668	69	50
84.7938	86.0668	38	40
84.7938	86.0668	60	50
85.0068	85.4238	50	30
85.2138	86.0668	75	56
85.2168	86.0668	54	36
85.4238	86.0668	50	29
85.6328	86.0668	74	51
85.6338	86.0668	57	38
86.0628	87.3338	62	33
86.0638	87.3228	72	48
86.0668	87.3338	43	36
86.2698	86.6908	50	26
86.4798	87.3338	55	26
86.6908	87.3338	50	26
86.8928	87.3338	70	45
86.8938	87.3338	58	31
87.3208	88.5758	60	43
87.3228	88.5768	72	43
87.3238	88.5858	40	36
87.5298	87.9428	48	27
87.7338	88.5858	52	28
87.9428	88.5858	48	28
88.1468	88.5858	70	36
88.1498	88.5858	55	35
88.5758	89.8388	60	43
88.5768	89.8388	72	43
88.5788	89.8388	41	33
88.7758	89.1928	48	27
88.9868	89.8388	57	29
89.1928	89.8388	48	26
89.3998	89.8388	69	34
89.4018	89.8388	53	36
89.8228	91.1268	58	33
89.8228	91.1268	73	51
89.8258	91.1268	36	33
90.0388	90.4698	48	26
90.2538	91.1268	72	36
90.2558	91.1268	55	29
90.4668	91.1268	70	31
90.4698	91.1268	48	27
90.6838	91.1268	52	36
90.6838	91.1268	69	35
90.9048	91.1268	67	29
91.1178	92.4648	65	35
91.1198	91.9958	57	31
91.1208	92.4608	41	33
91.3378	91.7788	48	23
91.5618	92.4648	53	26
91.7788	92.4648	48	23
91.9958	92.4648	57	23
92.4568	93.8258	60	35
92.4578	93.8258	69	35
92.4608	93.8298	41	33
92.6748	93.1158	48	20
92.8958	93.8298	53	26
93.1158	93.8298	48	20
93.3368	93.8298	57	25
93.8238	95.2128	64	32
93.8258	95.2168	60	32
93.8258	95.2168	69	32
93.8268	95.2168	40	31
94.0368	94.4848	48	18
94.2598	95.2168	52	23
94.4848	95.2168	48	18
94.7188	95.2168	57	25
95.2128	96.9028	64	30
95.2158	96.9068	59	30
95.2158	96.9068	68	30
95.2168	96.5738	40	29
95.4328	95.9198	47	20
95.6708	96.5738	52	25
95.9198	96.5738	47	18
96.1758	96.5738	56	20
96.9098	97.2638	45	38
96.9098	97.0248	69	42
97.0288	97.1478	71	39
97.1488	97.2668	72	39
97.2668	97.3858	71	42
97.3868	97.5008	72	39
97.5048	97.6228	74	39
97.6238	97.9878	76	55
97.6278	97.9878	64	42
97.7468	97.9878	66	37
97.8688	97.9878	68	37
97.9848	98.1068	69	42
97.9878	98.1078	66	44
98.1078	98.2228	71	38
98.1098	98.2228	68	38
98.2238	98.3448	72	38
98.2258	98.3458	69	38
98.3458	98.7048	71	59
98.4598	98.5828	72	37
98.5828	98.7059	74	37
98.7059	99.0758	76	55
98.7088	99.0758	64	42
98.8279	99.0739	66	39
98.9439	99.0758	68	39
99.0728	99.1848	69	42
99.0739	99.1888	66	42
99.1888	99.3068	71	38
99.1898	99.3078	68	38
99.3109	99.4298	72	38
99.3118	99.4298	69	38
99.4329	99.7899	71	56
99.5449	99.6679	72	38
99.6689	99.7899	74	38
99.7909	99.9049	72	42
99.7939	99.9059	69	42
99.9089	100.028	74	40
99.9099	100.029	71	42
100.029	100.144	76	42
100.032	100.144	72	43
100.148	100.267	74	44
100.148	100.266	77	42
100.267	100.389	79	45
100.271	100.39	76	45
100.39	100.505	77	47
100.39	100.505	81	49
100.506	100.627	79	51
100.508	100.628	76	51
100.628	100.749	77	47
100.629	100.749	74	46
100.75	100.865	72	43
100.75	100.864	76	45
100.865	100.987	74	46
100.866	100.988	71	46
100.988	101.11	72	44
100.991	101.11	69	44
101.111	101.236	67	42
101.111	101.232	71	40
101.239	101.358	69	47
101.24	101.372	65	50
101.359	101.485	71	42
101.488	101.607	72	42
101.608	101.747	60	47
101.608	101.73	71	45
101.73	101.852	69	40
101.855	101.978	67	40
101.979	102.353	65	45
101.981	102.353	57	42
102.101	102.352	64	39
102.224	102.353	63	39
102.352	102.71	64	48
102.353	102.472	56	45
102.472	102.594	54	40
102.595	102.71	52	40
102.713	102.831	51	44
102.832	102.954	49	39
102.955	103.077	47	40
103.077	103.196	59	42
103.078	103.438	57	54
103.197	103.318	61	38
103.322	103.438	63	38
103.438	103.556	64	45
103.439	103.557	56	45
103.56	103.679	66	41
103.561	103.683	54	41
103.683	103.801	68	41
103.684	103.802	52	41
103.805	104.166	51	45
103.805	104.166	69	50
103.924	104.166	49	39
104.04	104.166	47	39
104.165	104.281	59	42
104.166	104.519	57	54
104.284	104.407	61	38
104.407	104.522	63	38
104.523	104.642	64	45
104.527	104.642	56	45
104.645	104.767	66	40
104.649	104.768	54	39
104.768	104.886	68	40
104.769	104.887	52	39
104.887	105.25	69	49
104.89	105.25	51	44
105.009	105.25	49	37
105.129	105.25	47	37
105.248	105.37	59	42
105.25	105.607	57	54
105.37	105.485	61	39
105.486	105.608	63	39
105.608	105.976	64	45
105.611	105.976	56	42
105.73	105.975	66	39
105.733	105.976	54	36
105.846	105.976	68	40
105.849	105.976	52	36
105.975	106.337	66	52
105.976	106.337	54	45
106.091	106.336	52	38
106.091	106.333	68	46
106.213	106.337	69	47
106.214	106.337	51	39
106.333	106.696	68	57
106.336	106.696	52	46
106.452	106.696	51	42
106.452	106.694	69	52
106.571	106.696	71	54
106.573	106.696	50	42
106.694	107.064	69	62
106.696	107.064	52	51
106.816	107.054	71	55
106.818	107.057	50	48
106.932	107.064	72	59
106.934	107.064	48	49
107.054	107.424	71	69
107.057	107.424	50	55
107.169	107.414	72	59
107.172	107.417	48	52
107.292	107.424	74	65
107.295	107.424	47	52
107.414	107.781	72	76
107.417	107.781	48	63
107.537	107.781	47	57
107.537	107.781	74	66
107.659	107.781	45	58
107.659	107.781	76	73
107.775	108.148	77	90
107.777	108.149	44	77
107.901	108.149	76	77
107.904	108.149	45	67
108.019	108.149	74	79
108.02	108.149	47	67
108.145	108.513	83	88
108.148	108.512	77	88
108.149	108.516	38	75
108.149	108.513	44	75
108.269	108.516	45	66
108.269	108.516	76	79
108.391	108.516	74	79
108.392	108.516	47	66
108.512	108.885	77	92
108.513	108.887	44	76
108.513	108.884	83	92
108.516	108.885	38	76
108.635	108.891	45	69
108.635	108.891	76	80
108.757	108.891	74	80
108.758	108.891	47	69
108.884	109.256	83	93
108.885	109.258	38	78
108.885	109.255	77	93
108.887	109.258	44	78
109.003	109.265	76	84
109.005	109.265	45	72
109.126	109.265	74	86
109.128	109.265	47	74
109.255	109.627	77	97
109.256	109.627	83	97
109.258	109.629	38	81
109.258	109.628	44	81
109.378	109.629	76	86
109.38	109.629	45	74
109.497	109.629	74	87
109.5	109.629	47	76
109.627	110.004	77	100
109.627	110.007	83	100
109.628	110.008	44	84
109.629	110.008	38	84
109.749	110.008	45	76
109.749	110.008	76	88
109.874	110.008	74	91
109.878	110.008	47	78
110.004	110.367	77	106
110.007	110.367	83	106
110.008	110.367	31	99
110.008	110.367	43	99
110.129	110.367	75	79
110.252	110.378	74	67
110.379	110.501	77	75
110.381	110.564	83	75
110.501	110.627	75	64
110.629	110.756	74	57
110.757	110.879	77	63
110.757	110.949	83	63
110.879	111.004	75	56
111.008	111.148	74	49
111.152	111.271	80	61
111.274	111.393	79	54
111.394	111.53	77	50
111.53	111.648	79	56
111.652	111.778	77	46
111.779	111.904	75	46
111.908	112.033	77	55
112.034	112.16	75	45
112.16	112.289	74	45
112.29	112.408	72	50
112.411	112.531	74	46
112.534	112.66	75	46
112.661	112.783	74	50
112.783	112.905	75	46
112.906	113.024	77	46
113.025	113.389	79	65
113.027	113.389	67	50
113.15	113.389	69	44
113.266	113.389	71	44
113.388	113.5	72	50
113.389	113.504	69	52
113.504	113.622	74	45
113.507	113.626	71	45
113.627	113.742	72	45
113.627	113.738	75	45
113.743	114.106	74	70
113.861	113.976	75	44
113.98	114.106	77	44
114.109	114.47	79	65
114.11	114.47	67	50
114.222	114.47	69	46
114.344	114.47	71	46
114.467	114.581	72	50
114.47	114.582	69	50
114.582	114.704	74	45
114.586	114.704	71	45
114.705	114.827	75	45
114.708	114.827	72	45
114.827	115.188	74	66
114.949	115.065	75	45
115.065	115.188	77	45
115.188	115.306	75	50
115.189	115.307	72	50
115.309	115.422	77	48
115.31	115.422	74	50
115.425	115.548	75	51
115.425	115.544	79	50
115.548	115.66	77	52
115.548	115.66	80	50
115.663	115.782	82	54
115.664	115.782	79	53
115.786	115.908	80	56
115.786	115.904	84	58
115.909	116.027	79	60
115.909	116.027	82	61
116.031	116.143	77	55
116.031	116.142	80	56
116.146	116.265	79	53
116.147	116.266	75	51
116.268	116.384	77	55
116.269	116.388	74	55
116.388	116.503	75	52
116.391	116.507	72	52
116.507	116.629	74	48
116.508	116.629	70	50
116.633	116.752	72	56
116.634	116.769	68	55
116.752	116.881	74	50
116.882	117.0	75	50
117.004	117.122	74	53
117.005	117.141	63	52
117.126	117.252	72	48
117.252	117.375	70	48
117.375	117.753	68	53
117.376	117.753	60	50
117.498	117.746	67	47
117.617	117.753	66	47
117.746	117.924	67	54
117.749	117.868	59	54
117.869	117.987	57	49
117.987	118.113	55	49
118.114	118.487	54	53
118.235	118.487	52	47
118.348	118.487	50	47
118.471	118.83	60	64
118.471	118.593	62	50
118.594	118.708	64	45
118.708	118.831	66	45
118.834	118.953	67	54
118.835	118.953	59	54
118.957	119.076	57	47
118.957	119.072	69	48
119.076	119.194	71	48
119.08	119.198	55	47
119.199	119.569	54	52
119.199	119.569	72	58
119.314	119.569	52	44
119.437	119.569	50	44
119.559	119.678	62	50
119.56	119.916	60	64
119.678	119.793	64	46
119.794	119.917	66	46
119.917	120.032	67	54
119.919	120.032	59	54
120.035	120.154	57	47
120.035	120.153	69	48
120.154	120.276	71	48
120.158	120.276	55	47
120.277	120.647	72	58
120.28	120.647	54	52
120.399	120.647	52	44
120.514	120.647	50	44
120.638	120.759	62	50
120.64	120.998	60	64
120.76	120.878	64	46
120.882	120.998	66	46
120.998	121.375	67	54
121.001	121.375	59	50
121.12	121.364	69	47
121.123	121.365	57	43
121.242	121.375	71	47
121.243	121.375	55	43
121.364	121.732	69	60
121.365	121.732	57	52
121.481	121.725	55	44
121.481	121.722	71	53
121.603	121.732	54	44
121.603	121.732	72	53
121.722	122.092	71	64
121.725	122.092	55	52
121.845	122.083	72	58
121.848	122.092	54	47
121.961	122.092	74	60
121.963	122.092	53	47
122.083	122.446	72	68
122.085	122.446	52	56
122.206	122.444	50	52
122.206	122.443	74	60
122.321	122.446	76	63
122.324	122.446	48	53
122.443	122.814	74	73
122.444	122.814	50	58
122.566	122.807	48	55
122.566	122.804	76	63
122.681	122.814	77	68
122.685	122.814	47	55
122.804	123.185	76	79
122.807	123.185	48	65
122.926	123.185	77	68
122.927	123.185	47	59
123.048	123.185	79	74
123.049	123.185	46	59
123.182	123.902	45	83
123.182	124.469	60	97
123.294	124.469	65	77
123.419	124.469	69	78
123.531	124.469	72	85
123.535	124.469	57	78
123.657	124.469	77	74
123.658	124.469	53	68
123.781	124.469	81	77
123.782	124.469	48	68
123.9	124.469	84	91
123.902	124.469	45	82
124.022	124.469	89	79
124.024	124.469	41	72
124.145	124.469	36	79
124.145	124.469	93	79
124.277	124.469	96	108
124.28	124.469	33	93
124.675	124.894	71	79
124.676	124.894	79	79
124.676	124.894	83	93
124.679	124.894	76	79
124.68	124.894	47	70
124.68	124.894	52	70
124.682	124.894	55	70
124.683	124.894	59	83
125.092	125.344	75	74
125.096	125.344	83	88
125.097	125.344	71	74
125.097	125.344	78	74
125.099	125.344	54	63
125.099	125.344	59	75
125.103	125.344	47	63
125.103	125.344	51	63
125.512	125.635	67	59
125.512	125.634	76	67
125.635	125.754	78	56
125.638	125.757	66	53
125.758	125.877	79	56
125.761	125.88	64	53
125.88	126.254	81	65
125.881	126.254	63	58
125.999	126.254	61	52
126.121	126.254	59	52
126.244	126.359	71	66
126.248	126.597	69	67
126.36	126.482	73	54
126.482	126.598	75	53
126.598	126.72	76	64
126.601	126.721	67	61
126.721	126.843	78	55
126.723	126.843	66	51
126.843	126.964	79	55
126.845	126.965	64	51
126.965	127.336	81	65
126.966	127.336	63	51
127.087	127.336	61	54
127.203	127.336	59	54
127.332	127.444	71	64
127.333	127.682	69	68
127.448	127.566	73	58
127.567	127.686	75	58
127.686	128.05	76	68
127.687	128.05	67	60
127.809	128.05	66	54
127.809	128.046	78	60
127.924	128.05	64	57
127.924	128.05	79	63
128.046	128.41	78	73
128.047	128.41	63	64
128.162	128.404	79	63
128.163	128.407	64	56
128.284	128.41	81	68
128.285	128.41	66	56
128.404	128.785	79	79
128.407	128.785	64	72
128.526	128.785	81	68
128.529	128.785	66	64
128.649	128.785	83	74
128.65	128.785	67	64
128.777	130.07	60	97
128.897	130.07	65	77
129.016	130.07	69	77
129.135	130.07	72	91
129.138	130.07	57	82
129.258	130.07	77	78
129.261	130.07	53	73
129.383	130.07	48	73
129.383	130.07	81	78
129.503	130.07	84	96
129.505	130.07	45	89
129.619	130.07	41	79
129.619	130.07	89	79
129.748	130.07	93	79
129.749	130.07	36	79
129.88	130.07	96	100
129.881	130.07	33	93
130.276	130.497	79	79
130.279	130.497	83	93
130.28	130.497	76	79
130.283	130.497	52	70
130.283	130.497	71	79
130.284	130.497	47	70
130.286	130.497	55	70
130.286	130.497	59	83
130.692	130.962	71	74
130.692	130.962	78	74
130.693	130.962	75	74
130.693	130.962	83	88
130.696	130.962	51	63
130.696	130.962	54	63
130.696	130.962	59	75
130.697	130.962	47	63
131.136	132.229	83	88
131.137	132.229	88	104
131.141	132.233	43	75
131.141	132.232	76	88
131.141	132.232	79	88
131.142	132.233	40	75
131.144	132.237	47	75
131.144	132.236	52	89
132.449	132.547	75	74
132.45	132.548	47	65
132.45	132.548	83	88
132.452	132.551	59	77
132.642	132.74	76	63
132.642	132.739	82	75
132.643	132.74	48	56
132.643	132.743	60	67
132.845	132.936	83	84
132.846	132.939	47	63
132.846	132.939	75	71
132.848	132.94	59	75
133.034	133.131	82	75
133.038	133.138	48	57
133.038	133.136	76	63
133.041	133.139	60	68
133.233	133.348	75	72
133.233	133.349	83	85
133.234	133.352	47	63
133.237	133.353	59	75
133.699	134.805	74	88
133.699	134.808	78	88
133.699	134.806	86	104
133.703	134.812	38	74
133.703	134.813	45	74
133.703	134.808	81	88
133.704	134.813	50	88
133.705	134.815	42	74
135.021	135.12	73	74
135.022	135.121	57	77
135.022	135.121	81	88
135.023	135.123	45	65
135.214	135.315	74	64
135.215	135.321	46	56
135.215	135.32	58	66
135.215	135.32	80	76
135.414	135.515	81	83
135.417	135.516	73	70
135.418	135.516	57	73
135.421	135.519	45	62
135.607	135.704	74	63
135.61	135.708	46	56
135.61	135.707	58	66
135.61	135.705	80	75
135.809	135.922	81	87
135.81	135.922	73	73
135.813	135.925	45	62
135.813	135.923	57	73
136.267	137.157	78	83
136.272	137.16	72	83
136.272	137.16	81	83
136.272	137.161	84	98
136.273	137.161	51	89
136.275	137.161	39	75
137.164	137.458	71	76
137.164	137.458	83	90
137.167	137.458	52	80
137.167	137.458	76	76
137.167	137.458	79	76
137.168	137.458	40	68
137.597	137.818	69	76
137.602	137.822	72	76
137.602	137.818	77	76
137.602	137.822	81	90
137.604	137.823	53	77
137.605	137.825	41	65
138.032	138.256	72	80
138.035	138.256	84	95
138.036	138.256	75	80
138.036	138.257	81	80
138.039	138.26	54	83
138.04	138.26	42	70
138.476	138.697	71	77
138.476	138.693	79	77
138.477	138.698	76	77
138.477	138.7	83	91
138.48	138.701	43	67
138.48	138.7	55	79
138.92	139.152	81	94
138.921	139.152	78	79
138.924	139.152	72	79
138.925	139.152	57	84
138.927	139.152	45	71
139.369	139.624	71	76
139.372	139.624	76	76
139.373	139.624	47	66
139.373	139.624	59	78
139.373	139.624	79	90
139.821	140.065	71	76
139.821	140.065	75	90
139.824	140.065	47	63
139.824	140.065	59	75
139.824	140.065	78	90
140.289	141.473	55	66
140.294	141.473	59	66
140.296	141.473	64	89
140.297	141.473	52	66
140.482	141.473	66	83
140.583	141.473	67	75
140.681	141.473	69	76
140.773	141.469	71	78
140.874	141.473	73	80
140.973	141.473	75	82
141.07	141.473	76	83
141.172	141.473	78	85
141.269	141.473	79	87
141.367	141.473	81	88
141.469	141.563	71	79
141.47	141.564	83	93
141.473	141.567	47	65
141.473	141.564	51	77
141.654	141.76	82	76
141.655	141.763	70	64
141.658	141.763	52	66
141.659	141.764	48	56
141.853	141.952	71	73
141.854	141.955	51	71
141.854	141.953	83	86
141.857	141.955	47	60
142.05	142.147	70	67
142.054	142.152	48	55
142.054	142.152	52	65
142.054	142.151	82	79
142.246	142.365	71	78
142.249	142.365	83	92
142.25	142.366	47	65
142.253	142.368	51	77
142.712	143.895	57	72
142.715	143.895	50	72
142.715	143.895	54	72
142.716	143.895	62	89
142.907	143.895	64	83
143.005	143.895	66	75
143.103	143.895	67	76
143.202	143.892	69	78
143.292	143.895	71	80
143.394	143.895	73	82
143.492	143.895	74	83
143.59	143.895	76	85
143.688	143.895	78	87
143.79	143.895	80	88
143.892	143.985	69	79
143.892	143.985	81	93
143.894	143.986	45	62
143.894	143.989	49	74
144.083	144.181	80	78
144.084	144.182	46	56
144.084	144.182	68	66
144.085	144.185	50	66
144.286	144.381	69	72
144.286	144.378	81	85
144.287	144.381	45	61
144.29	144.382	49	72
144.475	144.573	68	65
144.478	144.577	80	77
144.479	144.58	46	54
144.482	144.58	50	64
144.675	144.791	69	74
144.675	144.79	81	88
144.676	144.793	45	62
144.679	144.794	49	73
145.14	146.036	43	57
145.141	146.072	36	57
145.141	146.037	40	57
145.144	146.072	48	68
145.249	146.072	72	77
145.361	146.072	76	77
145.477	146.072	79	75
145.581	146.072	84	87
145.697	146.072	88	75
145.81	146.072	91	79
145.917	146.072	96	75
146.033	146.246	47	55
146.033	146.138	95	89
146.036	146.246	43	55
146.037	146.25	40	55
146.037	146.25	52	65
146.481	146.94	69	86
146.482	146.934	45	56
146.482	146.94	48	56
146.484	146.94	41	56
146.485	146.94	53	66
146.593	146.929	72	78
146.712	146.94	77	78
146.818	146.94	81	78
146.929	147.044	72	86
146.93	147.391	51	54
146.933	147.391	42	54
146.933	147.391	54	64
146.934	147.391	45	54
147.045	147.391	75	78
147.157	147.391	81	78
147.265	147.391	84	78
147.381	147.489	71	86
147.384	147.849	43	51
147.384	147.849	47	51
147.384	147.849	55	61
147.385	147.849	52	51
147.49	147.849	76	76
147.612	147.849	79	76
147.724	147.849	83	76
147.835	148.305	69	80
147.836	148.305	48	54
147.836	148.305	57	64
147.839	148.305	45	54
147.839	148.305	54	54
147.951	148.305	72	73
148.07	148.305	78	73
148.175	148.305	81	72
148.291	148.767	67	78
148.294	148.767	47	49
148.294	148.767	52	49
148.294	148.766	59	58
148.298	148.767	55	49
148.409	148.767	71	70
148.536	148.767	76	70
148.644	148.767	79	70
148.764	149.253	54	48
148.764	149.253	66	77
148.766	149.253	59	57
148.767	149.253	47	48
148.767	149.253	51	48
148.886	149.253	71	69
149.011	149.253	75	69
149.128	149.253	78	69
149.25	150.031	64	87
149.251	150.768	52	77
149.449	150.128	66	82
149.45	150.768	54	73
149.541	150.23	67	78
149.544	150.768	55	67
149.642	150.768	57	67
149.642	150.327	69	77
149.739	150.426	71	77
149.74	150.768	59	66
149.838	150.768	73	77
149.839	150.768	61	65
149.932	150.768	63	64
149.932	150.768	75	76
150.031	150.768	64	63
150.031	150.726	76	76
150.128	150.768	66	63
150.128	150.768	78	76
150.227	150.768	79	75
150.23	150.768	67	62
150.325	150.768	81	75
150.327	150.768	69	62
150.425	150.768	83	74
150.426	150.768	71	61
150.531	150.768	72	61
150.531	150.768	84	74
150.625	150.768	86	73
150.629	150.768	74	60
150.724	150.828	88	73
150.726	150.828	76	60
150.832	156.928	77	60
150.832	156.928	89	71
152.039	156.928	86	71
152.042	156.928	74	60
153.26	156.928	83	67
153.261	156.928	71	55
154.488	156.928	80	55
154.493	156.928	68	48
155.776	156.928	79	50
155.781	156.928	67	46
157.075	158.255	76	41
157.076	158.367	48	39
157.076	159.62	67	36
157.296	157.727	55	24
157.51	158.367	60	29
157.727	158.367	55	24
157.947	158.367	64	39
158.151	158.367	77	39
158.255	158.367	76	34
158.357	159.621	74	39
158.36	159.621	47	39
158.563	158.98	55	28
158.773	159.621	77	41
158.774	159.621	62	34
158.98	159.621	55	28
159.189	159.621	80	46
159.19	159.621	65	38
159.618	160.873	79	44
159.62	160.884	48	36
159.62	160.87	67	36
159.827	160.24	55	25
160.03	160.884	64	28
160.24	160.884	55	24
160.449	160.884	76	37
160.45	160.884	60	39
160.87	162.129	67	36
160.873	162.144	79	44
160.874	162.144	47	39
161.077	161.493	55	29
161.283	162.144	65	34
161.493	162.144	55	28
161.696	162.144	77	37
161.699	162.144	62	38
162.129	164.619	67	41
162.133	163.275	76	41
162.134	163.382	48	37
162.34	162.764	55	29
162.55	163.382	60	31
162.764	163.382	55	28
162.974	163.382	64	39
163.18	163.382	77	38
163.275	163.382	76	34
163.38	164.625	47	39
163.38	164.625	74	39
163.575	163.985	55	29
163.782	164.625	62	34
163.782	164.625	77	41
163.985	164.625	55	29
164.195	164.625	65	38
164.195	164.625	80	46
164.615	165.854	79	44
164.619	165.86	48	36
164.619	165.85	67	36
164.818	165.231	55	25
165.021	165.86	64	29
165.231	165.86	55	24
165.437	165.86	76	37
165.438	165.86	60	39
165.85	167.114	67	51
165.854	167.11	47	41
165.854	167.114	79	51
166.06	166.473	55	30
166.264	167.114	65	38
166.473	167.114	55	30
166.677	167.114	77	49
166.68	167.114	62	38
167.107	168.36	68	58
167.108	168.36	80	58
167.11	168.36	47	41
167.31	167.716	56	33
167.513	168.36	65	39
167.716	168.36	56	34
167.926	168.36	77	53
167.927	168.36	62	42
168.356	169.62	69	62
168.356	169.62	81	62
168.357	169.61	48	51
168.556	168.976	57	36
168.766	169.62	65	39
168.976	169.62	57	36
169.179	169.62	77	53
169.182	169.62	60	45
169.609	170.908	76	58
169.61	170.908	48	52
169.61	170.908	70	58
169.83	170.253	60	38
170.044	170.908	85	63
170.047	170.908	67	44
170.253	170.908	60	38
170.463	170.908	84	60
170.464	170.908	64	48
170.891	172.167	72	36
170.894	172.167	82	55
170.895	172.167	53	42
171.104	171.524	60	26
171.314	172.167	65	28
171.524	172.167	60	24
171.727	172.167	81	49
171.73	172.167	69	34
172.165	173.448	67	53
172.165	173.448	76	53
172.167	173.448	45	41
172.378	172.802	57	33
172.592	173.448	82	58
172.595	173.448	61	36
172.802	173.448	57	31
173.012	173.448	81	49
173.013	173.448	64	41
173.435	174.692	79	52
173.438	174.698	69	36
173.439	174.698	50	39
173.649	174.062	57	27
173.852	174.698	62	30
174.062	174.698	57	28
174.271	174.698	65	34
174.271	174.698	77	49
174.692	175.941	79	44
174.694	175.941	67	36
174.695	175.945	47	39
174.898	175.308	55	29
175.105	175.945	65	31
175.308	175.945	55	29
175.518	175.945	77	37
175.521	175.945	62	38
175.941	177.205	67	36
175.941	177.205	79	44
175.944	177.205	48	36
176.151	176.557	55	30
176.353	177.205	64	31
176.557	177.205	55	30
176.767	177.205	76	37
176.768	177.205	60	39
177.194	178.478	65	36
177.198	178.478	43	36
177.198	178.478	80	56
177.405	177.825	55	31
177.614	178.478	79	39
177.617	178.478	62	31
177.824	178.478	77	34
177.825	178.478	55	31
178.038	178.478	76	38
178.041	178.478	59	39
178.248	178.478	74	31
178.462	179.773	72	38
178.464	179.759	48	36
178.464	178.892	64	30
178.675	179.115	55	28
178.892	179.773	64	28
179.112	179.773	74	41
179.115	179.773	55	28
179.329	179.757	76	50
179.33	179.773	60	33
179.543	179.773	77	54
179.756	181.044	70	59
179.757	181.044	76	59
179.759	181.044	48	48
179.97	180.389	60	39
180.187	181.044	67	41
180.187	181.044	85	64
180.389	181.044	60	39
180.604	181.044	84	59
180.606	181.044	64	48
181.027	182.297	72	57
181.03	182.297	53	42
181.03	182.297	82	57
181.237	181.653	60	28
181.446	182.297	65	28
181.653	182.297	60	28
181.863	182.297	81	53
181.864	182.297	69	34
182.29	183.581	67	55
182.293	183.581	45	44
182.293	183.581	76	55
182.507	182.931	57	33
182.724	183.581	61	39
182.724	183.581	82	61
182.931	183.581	57	31
183.141	183.581	81	56
183.143	183.581	64	41
183.565	184.831	79	52
183.567	184.832	50	39
183.567	184.832	69	36
183.778	184.191	57	28
183.987	184.832	62	28
184.191	184.832	57	28
184.401	184.832	65	34
184.401	184.832	77	49
184.828	186.077	67	47
184.831	186.077	79	47
184.832	186.087	47	39
185.038	185.444	55	29
185.241	186.087	65	30
185.444	186.087	55	30
185.655	186.087	77	39
185.657	186.087	62	38
186.077	187.34	67	47
186.077	187.34	79	47
186.08	187.34	48	36
186.287	186.7	55	29
186.491	187.34	64	31
186.7	187.34	55	28
186.903	187.34	60	39
186.903	187.34	76	37
187.33	188.63	65	36
187.33	188.63	80	56
187.333	188.63	43	36
187.543	187.974	55	28
187.761	188.63	79	39
187.764	188.63	62	31
187.971	188.63	77	34
187.974	188.63	55	29
188.192	188.63	59	39
188.192	188.63	76	38
188.405	188.63	74	31
188.628	189.965	72	38
188.629	189.962	48	36
188.629	189.504	64	34
188.842	189.28	55	25
189.063	189.965	60	28
189.28	189.965	55	25
189.504	189.965	64	25
189.958	191.324	76	35
189.961	191.327	67	35
189.962	191.334	48	33
190.179	190.624	55	20
190.404	191.334	60	26
190.624	191.334	55	20
190.837	191.334	64	25
191.324	192.72	76	32
191.327	192.72	67	32
191.328	192.716	71	32
191.33	192.717	47	31
191.544	191.993	55	18
191.768	192.72	59	23
191.993	192.72	55	18
192.22	192.72	64	25
192.714	194.419	75	30
192.716	194.419	66	30
192.716	194.419	71	30
192.717	194.419	47	29
192.938	193.42	54	20
193.175	194.419	59	25
193.42	194.419	54	18
193.682	194.419	63	20
194.418	194.897	56	83
194.418	194.534	65	91
194.533	195.706	71	77
194.534	195.706	65	72
194.652	195.706	74	74
194.655	195.706	62	68
194.774	195.706	77	82
194.777	195.706	59	75
194.894	195.706	83	73
194.897	195.706	56	68
195.014	195.706	86	71
195.016	195.706	53	68
195.132	195.706	89	78
195.135	195.706	50	65
195.255	195.706	95	71
195.257	195.706	47	54
195.384	195.706	98	70
195.387	195.706	45	53
195.51	195.706	101	76
195.514	195.706	44	63
196.721	198.074	46	33
196.944	197.386	53	23
197.159	198.082	58	26
197.386	198.082	53	23
197.606	198.082	62	23
198.067	199.426	74	35
198.072	199.427	65	35
198.072	199.433	68	35
198.074	199.433	46	33
198.292	198.74	53	20
198.519	199.433	58	26
198.74	199.433	53	20
198.957	199.433	62	25
199.426	200.823	74	32
199.427	200.822	45	31
199.427	200.823	65	32
199.427	200.819	69	32
199.647	200.095	53	18
199.863	200.823	57	23
200.095	200.823	53	18
200.326	200.823	62	25
200.819	202.524	64	30
200.819	202.524	69	30
200.822	202.524	45	29
200.822	202.524	73	30
201.044	201.523	52	20
201.281	202.524	57	25
201.523	202.524	52	18
201.785	202.524	61	20
202.52	202.636	63	91
202.521	203.812	54	83
202.635	203.812	69	77
202.636	203.812	63	73
202.755	203.812	72	72
202.758	203.812	60	70
202.877	203.812	75	82
202.881	203.812	57	75
202.993	203.812	81	73
202.996	203.812	53	68
203.116	203.812	84	71
203.119	203.812	51	68
203.238	203.812	87	78
203.241	203.812	48	65
203.36	203.812	93	71
203.361	203.812	45	54
203.487	203.812	96	70
203.49	203.812	43	53
203.616	203.812	42	63
203.616	203.812	99	76
204.826	206.213	44	33
205.047	205.502	51	23
205.275	206.213	56	26
205.502	206.213	51	23
205.73	206.213	60	23
206.205	207.609	66	35
206.21	207.605	68	35
206.212	207.606	75	35
206.213	207.606	44	33
206.437	206.896	51	20
206.66	207.609	56	26
206.896	207.609	51	20
207.119	207.609	60	25
207.605	210.283	65	32
207.605	210.283	68	32
207.606	209.013	44	31
207.606	209.015	75	32
207.823	208.281	53	18
208.049	209.015	56	23
208.281	209.015	53	18
208.519	209.015	61	25
209.012	210.283	73	39
209.013	210.283	44	31
209.233	209.68	53	18
209.454	210.283	77	41
209.457	210.283	56	23
209.68	210.283	53	18
209.907	210.283	61	25
209.907	210.283	78	47
210.269	211.71	63	34
210.329	211.71	73	35
210.387	211.71	80	47
210.388	211.71	32	31
210.623	211.085	44	18
210.853	211.71	51	18
211.085	211.71	44	18
211.322	211.71	54	23
211.703	213.317	66	29
211.762	213.317	72	29
211.826	213.317	32	31
211.826	213.317	80	44
212.06	212.536	44	18
212.291	213.317	51	18
212.536	213.317	44	18
212.82	213.315	56	27
213.313	214.479	73	36
213.315	215.613	56	27
213.315	215.617	61	27
213.317	215.617	49	27
213.317	215.617	53	27
213.443	213.699	75	30
213.57	213.825	77	30
213.699	214.479	75	36
213.825	214.079	77	31
213.954	214.207	78	31
214.079	214.479	77	35
214.207	214.468	78	30
214.336	214.479	80	31
214.468	215.617	78	39
214.591	214.846	80	32
214.717	214.976	82	32
214.846	215.617	80	43
214.976	215.617	82	36
215.102	215.617	84	35
215.224	215.617	85	47
215.351	215.617	87	39
215.473	215.617	89	40
215.611	216.736	90	52
215.613	217.875	56	29
215.613	217.88	60	29
215.616	216.736	51	29
215.617	217.878	49	29
215.729	215.98	89	41
215.858	216.106	87	41
215.98	216.736	89	50
216.106	216.356	87	39
216.228	216.478	85	41
216.356	216.736	87	48
216.478	216.729	85	38
216.605	216.736	84	38
216.729	217.88	85	42
216.731	217.88	54	28
216.848	217.1	84	35
216.978	217.227	82	35
217.1	217.88	84	40
217.227	217.88	82	33
217.353	217.88	80	33
217.475	217.88	78	37
217.605	217.88	77	32
217.73	217.88	75	32
217.874	219.029	73	39
217.875	220.157	56	29
217.878	220.16	49	29
217.878	220.162	52	29
217.878	220.162	61	29
217.993	218.252	75	33
218.126	218.381	76	33
218.252	219.029	75	39
218.381	218.637	76	33
218.508	218.766	78	33
218.637	219.029	76	37
218.766	219.018	78	32
218.893	219.029	80	32
219.018	220.162	78	41
219.148	219.403	80	33
219.274	220.162	81	33
219.403	220.162	80	43
219.526	220.162	82	36
219.655	220.162	84	35
219.774	220.162	85	46
219.897	220.162	87	39
220.019	220.162	88	39
220.156	221.255	90	50
220.157	222.721	56	28
220.159	222.364	60	28
220.16	222.722	49	28
220.16	221.255	51	28
220.268	220.513	88	39
220.39	220.632	87	39
220.513	221.255	88	48
220.632	220.877	87	39
220.754	220.999	85	40
220.877	221.255	87	47
220.999	221.244	85	38
221.122	221.255	84	38
221.244	222.364	85	42
221.245	222.364	54	28
221.363	221.609	83	36
221.486	221.731	81	36
221.609	222.364	83	42
221.731	222.364	81	35
221.854	222.364	80	35
221.983	222.364	78	40
222.105	222.364	76	34
222.224	222.364	75	34
222.361	222.724	52	29
222.361	222.479	73	40
222.362	222.725	61	29
222.48	222.599	75	35
222.602	222.729	76	35
222.729	222.847	75	45
222.848	222.966	76	37
222.966	223.088	78	37
223.09	223.212	76	47
223.212	223.33	78	39
223.334	223.452	80	38
223.457	223.576	60	40
223.457	224.185	81	53
223.576	223.698	61	35
223.699	223.821	63	35
223.822	223.944	61	41
223.944	224.066	63	37
224.067	224.189	64	37
224.189	224.563	80	48
224.192	224.563	66	42
224.31	224.563	64	37
224.431	224.563	63	37
224.56	224.682	73	40
224.563	225.288	64	45
224.683	224.801	75	35
224.804	224.924	76	35
224.924	225.046	75	46
225.047	225.169	76	37
225.17	225.291	78	37
225.291	225.41	76	48
225.292	225.656	61	37
225.411	225.533	78	39
225.533	225.656	80	38
225.656	226.393	81	53
225.658	225.781	60	40
225.785	225.9	61	35
225.9	226.026	63	35
226.027	226.142	61	41
226.143	226.264	63	37
226.268	226.394	64	37
226.394	226.765	80	48
226.395	226.765	66	42
226.509	226.762	64	37
226.639	226.765	63	37
226.761	226.877	76	46
226.762	227.86	64	45
226.88	227.002	78	38
227.003	227.125	79	38
227.125	227.244	78	51
227.245	227.37	79	40
227.371	227.489	81	40
227.493	227.611	79	52
227.612	227.738	81	42
227.739	227.86	83	41
227.864	227.982	63	40
227.864	228.591	84	58
227.983	228.105	64	35
228.105	228.228	66	35
228.228	228.346	64	41
228.35	228.469	66	37
228.473	228.596	67	37
228.596	228.974	83	52
228.597	228.974	69	42
228.722	228.974	67	37
228.84	228.974	66	37
228.97	229.701	86	74
228.974	229.092	65	40
229.092	229.211	66	35
229.215	229.333	68	35
229.334	229.46	66	41
229.46	229.578	68	37
229.579	229.702	69	37
229.702	230.077	85	63
229.705	230.077	71	42
229.824	230.077	69	37
229.947	230.077	68	37
230.073	230.194	78	58
230.076	230.44	66	42
230.195	230.317	80	50
230.318	230.44	81	50
230.441	230.558	80	60
230.563	230.685	81	48
230.685	230.804	83	48
230.804	231.183	79	62
230.807	231.049	64	39
230.807	231.183	85	62
230.927	231.183	70	36
231.049	231.183	64	36
231.179	231.357	90	57
231.181	231.358	78	57
231.182	231.308	63	40
231.182	231.308	71	40
231.301	231.42	64	35
231.42	231.538	66	35
231.543	231.661	64	41
231.665	231.788	66	37
231.781	231.899	67	37
231.906	232.152	78	64
231.907	232.285	69	41
231.907	232.285	75	41
232.029	232.285	83	55
232.152	232.285	78	55
232.282	232.459	88	63
232.284	232.414	76	63
232.285	232.46	68	41
232.4	232.522	78	50
232.523	232.645	80	50
232.645	232.768	78	57
232.768	232.889	80	48
232.89	233.009	81	48
233.012	233.388	77	65
233.013	233.262	62	40
233.013	233.388	83	65
233.134	233.388	68	37
233.262	233.388	62	37
233.384	233.604	76	64
233.387	233.604	61	40
233.387	233.604	88	64
233.388	233.604	69	40
233.505	233.625	62	35
233.628	233.748	64	35
233.748	233.869	62	41
233.87	233.992	64	37
233.996	234.111	66	37
234.115	234.497	67	41
234.115	234.497	73	41
234.115	234.363	76	65
234.242	234.497	81	55
234.363	234.497	76	55
234.493	234.626	74	66
234.496	234.671	86	66
234.497	234.671	66	41
234.612	234.734	76	50
234.735	234.857	78	50
234.858	234.979	76	57
234.979	235.098	78	48
235.101	235.221	79	48
235.224	235.599	81	69
235.225	235.959	74	69
235.225	235.959	86	69
235.228	235.472	65	41
235.347	235.599	69	37
235.472	235.599	65	37
235.595	235.963	80	67
235.599	235.719	64	40
235.718	235.837	66	35
235.838	235.963	68	35
235.963	236.081	66	41
236.082	236.201	68	37
236.204	236.324	69	37
236.327	236.708	65	41
236.327	236.575	81	65
236.328	237.068	71	41
236.331	237.069	74	41
236.453	236.708	86	55
236.575	236.708	81	56
236.705	237.069	64	41
236.705	236.824	80	65
236.825	236.946	81	53
236.946	237.07	83	53
237.073	237.191	81	62
237.192	237.314	83	52
237.314	237.432	84	52
237.433	237.811	81	69
237.436	238.171	74	69
237.437	237.685	65	39
237.437	238.171	86	69
237.559	237.811	69	37
237.685	237.811	65	38
237.807	238.172	80	68
237.811	237.927	64	40
237.926	238.048	66	35
238.049	238.175	68	35
238.175	238.297	66	41
238.298	238.413	68	37
238.416	238.535	69	37
238.539	239.281	71	41
238.539	238.788	81	65
238.54	239.281	74	41
238.542	238.914	65	41
238.665	238.914	86	57
238.788	238.914	81	57
238.911	239.028	80	64
238.914	239.281	64	41
239.032	239.151	81	50
239.155	239.282	83	50
239.285	239.396	81	57
239.397	239.522	83	48
239.522	239.641	84	48
239.642	240.376	74	68
239.642	240.016	81	68
239.643	240.377	86	68
239.644	239.89	65	45
239.768	240.016	69	38
239.89	240.016	65	38
240.013	240.377	80	67
240.016	240.136	64	45
240.135	240.254	66	36
240.254	240.38	68	36
240.381	240.499	66	46
240.499	240.614	68	37
240.615	240.737	69	37
240.738	240.86	68	47
240.86	240.978	69	41
240.982	241.097	71	42
241.098	241.217	69	50
241.22	241.339	71	46
241.342	241.454	72	46
241.458	241.576	71	50
241.58	241.699	72	46
241.7	241.822	74	46
241.822	242.182	76	65
241.826	242.182	64	50
241.938	242.179	66	44
242.06	242.182	68	44
242.179	242.298	66	52
242.179	242.297	69	50
242.298	242.413	71	45
242.301	242.413	68	45
242.417	242.536	72	45
242.418	242.536	69	45
242.54	242.897	71	70
242.658	242.774	72	44
242.774	242.897	74	44
242.897	243.267	76	65
242.9	243.267	64	50
243.02	243.265	66	46
243.142	243.267	68	46
243.264	243.379	69	50
243.265	243.379	66	50
243.38	243.502	68	45
243.38	243.498	71	45
243.502	243.621	72	45
243.506	243.624	69	45
243.624	243.981	71	66
243.736	243.859	72	45
243.862	243.982	74	45
243.985	244.104	72	50
243.986	244.104	69	50
244.105	244.219	74	48
244.108	244.22	71	50
244.222	244.342	76	50
244.223	244.343	72	51
244.343	244.458	77	50
244.345	244.458	74	52
244.461	244.581	76	53
244.461	244.58	79	54
244.581	244.702	81	58
244.584	244.702	77	56
244.703	244.824	79	61
244.706	244.825	76	60
244.825	244.937	77	56
244.826	244.94	74	55
244.94	245.063	76	53
244.944	245.063	72	51
245.063	245.178	74	55
245.064	245.179	71	55
245.181	245.297	72	52
245.182	245.297	69	52
245.301	245.427	71	48
245.304	245.431	67	50
245.431	245.567	65	59
245.431	245.556	69	56
245.557	245.675	71	50
245.675	245.797	72	50
245.798	245.92	71	53
245.801	245.938	60	56
245.921	246.05	69	48
246.05	246.168	67	48
246.172	246.547	65	53
246.173	246.547	57	50
246.292	246.543	64	47
246.421	246.547	63	47
246.543	246.907	64	57
246.544	246.662	56	53
246.666	246.784	54	48
246.788	246.908	52	48
246.911	247.03	51	52
247.03	247.145	49	47
247.146	247.271	47	48
247.271	247.39	59	50
247.275	247.632	57	64
247.391	247.513	61	45
247.514	247.632	63	45
247.635	247.758	56	54
247.635	247.754	64	54
247.758	247.87	66	49
247.759	247.871	54	49
247.873	248.0	68	49
247.874	248.0	52	49
248.003	248.364	51	53
248.003	248.364	69	59
248.118	248.364	49	47
248.237	248.364	47	47
248.36	248.475	59	50
248.364	248.713	57	64
248.476	248.594	61	45
248.598	248.714	63	45
248.714	248.832	64	54
248.716	248.836	56	54
248.837	248.955	66	48
248.839	248.959	54	47
248.959	249.077	68	48
248.96	249.078	52	47
249.08	249.449	69	58
249.081	249.449	51	52
249.201	249.449	49	44
249.316	249.449	47	44
249.446	249.56	59	50
249.448	249.798	57	64
249.56	249.682	61	46
249.683	249.799	63	46
249.799	250.176	64	54
249.802	250.176	56	50
249.922	250.167	66	47
249.925	250.169	54	43
250.044	250.176	68	47
250.046	250.176	52	43
250.167	250.537	66	60
250.169	250.537	54	52
250.289	250.526	68	53
250.29	250.527	52	44
250.405	250.537	69	53
250.407	250.537	51	44
250.526	250.891	68	64
250.527	250.887	52	52
250.648	250.887	69	58
250.649	250.891	51	47
250.764	250.891	71	60
250.765	250.891	50	47
250.887	251.255	52	56
250.887	251.255	69	68
251.006	251.245	71	60
251.01	251.248	50	52
251.129	251.255	72	63
251.132	251.255	48	53
251.245	251.625	71	73
251.248	251.625	50	58
251.367	251.605	72	63
251.37	251.608	48	55
251.483	251.625	74	68
251.485	251.625	47	55
251.605	251.976	72	79
251.608	251.976	48	65
251.728	251.976	74	68
251.73	251.976	47	59
251.85	251.976	45	59
251.85	251.976	76	74
251.972	253.264	62	91
251.972	253.264	65	93
252.088	253.264	58	79
252.088	253.264	70	79
252.21	253.264	74	77
252.211	253.264	53	77
252.333	253.264	50	85
252.333	253.264	77	90
252.448	253.264	82	79
252.449	253.264	46	75
252.571	253.264	86	79
252.572	253.264	41	75
252.693	253.264	89	89
252.694	253.264	38	84
252.812	253.264	94	78
252.815	253.264	34	76
252.935	253.264	98	78
252.936	253.264	29	76
253.071	253.264	101	96
253.072	253.264	26	88
253.466	253.683	72	79
253.467	253.683	64	79
253.47	253.683	69	79
253.47	253.683	76	93
253.471	253.683	52	70
253.471	253.683	60	83
253.473	253.683	57	70
253.887	254.135	68	74
253.887	254.135	71	74
253.887	254.135	76	88
253.888	254.135	64	74
253.889	254.135	52	63
253.89	254.135	56	63
253.89	254.135	59	75
254.31	254.674	69	67
254.311	254.422	60	62
254.425	254.552	59	56
254.552	254.675	57	56
254.675	255.038	56	61
254.79	255.038	54	55
254.912	255.038	52	54
255.035	255.388	62	67
255.035	255.157	64	66
255.157	255.272	66	54
255.273	255.391	68	53
255.392	255.511	60	61
255.392	255.51	69	64
255.511	255.633	71	55
255.513	255.634	59	55
255.634	255.752	72	55
255.636	255.756	57	55
255.756	256.123	74	65
255.759	256.123	56	60
255.878	256.123	54	54
255.998	256.123	52	54
256.121	256.235	64	64
256.123	256.473	62	68
256.236	256.357	66	58
256.357	256.473	68	58
256.477	256.596	60	61
256.477	256.595	69	64
256.596	256.718	71	55
256.599	256.718	59	55
256.719	256.84	72	55
256.722	256.841	57	55
256.841	257.211	74	65
256.843	257.211	56	60
256.964	257.211	54	54
257.079	257.211	52	54
257.202	257.32	64	64
257.204	257.558	62	68
257.323	257.442	66	58
257.446	257.561	68	58
257.562	257.925	69	68
257.565	257.925	60	64
257.684	257.922	71	60
257.685	257.925	59	57
257.8	257.925	72	63
257.803	257.925	57	57
257.922	258.293	71	73
257.923	258.293	56	67
258.045	258.283	57	56
258.045	258.282	72	63
258.16	258.293	59	56
258.16	258.293	74	68
258.282	258.664	72	79
258.283	258.664	57	72
258.403	258.664	74	68
258.405	258.664	59	64
258.525	258.664	76	74
258.527	258.664	60	64
258.654	259.952	62	91
258.654	259.952	65	93
258.776	259.952	58	79
258.776	259.952	70	79
258.898	259.952	74	79
258.899	259.952	53	79
259.014	259.952	50	86
259.014	259.952	77	90
259.136	259.952	82	77
259.137	259.952	46	77
259.256	259.952	86	77
259.259	259.952	41	77
259.375	259.952	38	86
259.375	259.952	89	90
259.497	259.952	94	76
259.498	259.952	34	78
259.624	259.952	29	77
259.624	259.952	98	76
259.749	259.952	101	97
259.753	259.952	26	93
260.158	260.376	72	79
260.162	260.377	69	79
260.162	260.376	76	93
260.163	260.379	64	79
260.165	260.379	57	70
260.166	260.379	52	70
260.166	260.383	60	83
260.589	260.816	68	74
260.59	260.817	71	74
260.592	260.817	64	74
260.592	260.82	76	88
260.593	260.821	56	63
260.596	260.821	52	63
260.596	260.821	59	75
261.047	262.273	65	93
261.048	262.273	62	91
261.167	262.273	58	79
261.167	262.273	70	81
261.283	262.273	74	80
261.286	262.273	53	79
261.404	262.273	77	90
261.407	262.273	50	86
261.528	262.273	46	76
261.528	262.273	82	79
261.643	262.273	86	79
261.646	262.273	41	76
261.765	262.273	89	93
261.766	262.273	38	86
261.887	262.273	94	79
261.888	262.273	34	76
262.014	262.273	98	79
262.016	262.273	29	76
262.14	262.273	101	97
262.143	262.273	26	90
262.535	262.738	65	79
262.535	262.739	77	93
262.538	262.739	70	79
262.538	262.741	74	79
262.539	262.742	53	70
262.539	262.742	58	70
262.542	262.742	62	83
262.941	263.138	65	74
262.941	263.137	72	74
262.945	263.141	60	75
262.945	263.14	69	74
262.945	263.14	77	88
262.946	263.144	57	63
262.948	263.144	53	63
263.336	263.529	79	74
263.337	263.53	31	79
263.337	263.529	91	88
263.339	263.53	43	93
263.725	263.92	72	79
263.726	263.921	67	79
263.728	263.924	79	93
263.729	263.928	55	70
263.729	263.925	60	70
263.729	263.925	75	79
263.732	263.928	63	83
264.124	264.319	74	74
264.127	264.327	71	74
264.127	264.324	79	88
264.128	264.328	55	63
264.128	264.328	67	74
264.131	264.328	59	63
264.132	264.33	62	75
264.527	264.722	81	74
264.527	264.722	93	88
264.528	264.722	45	93
264.53	264.722	33	79
264.915	265.111	74	79
264.915	265.111	81	93
264.919	265.115	62	70
264.919	265.114	69	79
264.919	265.114	77	79
264.92	265.118	57	70
264.922	265.119	65	83
265.314	265.524	69	74
265.318	265.528	73	74
265.318	265.529	76	74
265.318	265.528	81	88
265.321	265.529	57	63
265.322	265.53	61	63
265.322	265.531	64	75
265.737	265.941	70	59
265.741	265.941	67	50
265.742	265.944	55	42
265.742	265.944	58	50
265.941	266.147	67	52
265.941	266.144	70	62
265.944	266.151	55	41
265.944	266.151	58	49
266.144	266.353	70	54
266.147	266.354	67	54
266.148	266.354	73	64
266.151	266.358	55	44
266.151	266.358	58	52
266.152	266.357	52	44
266.353	266.557	70	67
266.354	266.557	67	56
266.354	266.56	73	67
266.357	266.564	52	45
266.358	266.564	55	45
266.358	266.565	58	54
266.557	266.77	67	59
266.557	266.767	70	59
266.56	266.77	73	59
266.56	266.767	76	70
266.564	266.771	49	47
266.564	266.774	52	47
266.564	266.774	55	47
266.565	266.775	58	56
266.767	266.969	70	62
266.767	266.973	76	73
266.77	268.226	67	62
266.77	266.97	73	62
266.771	266.976	49	49
266.774	266.974	52	49
266.774	266.977	55	49
266.775	268.226	58	58
266.969	267.18	70	64
266.97	267.181	73	64
266.97	267.183	79	76
266.973	267.18	76	64
266.974	267.183	46	51
266.974	267.183	52	51
266.976	267.184	49	51
266.977	267.187	55	60
267.18	268.226	70	67
267.18	267.382	76	67
267.181	267.383	73	67
267.183	267.386	46	52
267.183	267.387	52	52
267.183	267.383	79	79
267.184	267.387	49	52
267.187	268.226	55	62
267.382	267.585	76	69
267.383	267.586	73	69
267.383	267.586	79	69
267.386	267.592	46	54
267.386	267.589	82	82
267.387	267.59	49	54
267.387	267.593	52	64
267.389	267.59	43	54
267.585	267.792	76	72
267.586	268.226	73	72
267.586	267.796	79	72
267.589	267.799	82	85
267.59	267.803	43	56
267.59	267.803	49	56
267.592	267.8	46	56
267.593	268.226	52	66
267.792	268.006	76	73
267.796	268.006	79	73
267.796	268.005	85	87
267.799	268.006	40	58
267.799	268.002	82	73
267.8	268.009	46	58
267.803	268.01	43	58
267.803	268.01	49	69
268.002	268.226	82	76
268.005	268.226	85	90
268.006	268.226	40	62
268.006	268.226	76	76
268.006	268.226	79	76
268.009	268.226	46	62
268.01	268.226	43	62
268.01	268.226	49	74
268.215	268.576	81	90
268.22	268.576	74	85
268.22	268.576	77	85
268.222	268.576	86	100
268.223	268.576	41	73
268.223	268.576	45	73
268.224	268.576	50	87
269.528	269.888	77	85
269.531	269.888	86	98
269.532	269.888	81	85
269.532	269.888	89	100
269.536	269.888	38	73
269.536	269.888	41	73
269.536	269.888	50	87
269.538	269.888	45	73
270.834	271.055	69	42
270.838	271.055	52	42
270.838	271.055	76	50
270.84	271.055	60	50
272.114	272.332	68	42
272.115	272.335	59	50
272.115	272.335	76	50
272.116	272.339	52	42
273.504	274.68	73	38
273.507	276.046	64	33
273.508	274.788	45	36
273.722	274.151	52	22
273.935	274.788	57	27
274.151	274.788	52	22
274.373	274.788	61	36
274.579	274.788	74	36
274.68	274.788	73	31
274.785	276.049	71	36
274.786	276.049	44	36
274.988	275.405	52	26
275.198	276.049	59	31
275.198	276.049	74	38
275.405	276.049	52	26
275.616	276.049	77	42
275.618	276.049	62	35
276.046	277.299	64	33
276.048	277.299	76	40
276.049	277.308	45	33
276.252	276.665	52	23
276.455	277.308	61	26
276.665	277.308	52	22
276.876	277.308	73	34
276.878	277.308	57	36
277.299	278.558	64	33
277.299	278.565	76	40
277.3	278.565	44	36
277.505	277.918	52	27
277.711	278.565	56	31
277.918	278.565	52	26
278.124	278.565	74	34
278.125	278.565	59	35
278.558	281.044	64	38
278.558	279.7	73	38
278.559	279.815	45	34
278.766	279.188	52	27
278.982	279.815	57	29
279.188	279.815	52	26
279.399	279.815	61	36
279.602	279.815	74	35
279.7	279.815	73	31
279.801	281.057	71	36
279.802	281.057	44	36
280.011	280.407	52	27
280.207	281.057	74	38
280.211	281.057	59	31
280.407	281.057	52	27
280.62	281.057	62	35
280.62	281.057	77	42
281.044	282.278	64	33
281.044	282.279	76	40
281.047	282.289	45	33
281.247	281.649	52	23
281.449	282.289	61	27
281.649	282.289	52	22
281.859	282.289	73	34
281.863	282.289	57	36
282.278	283.542	64	47
282.279	283.542	76	47
282.282	283.535	44	38
282.489	282.899	52	28
282.689	283.542	56	35
282.899	283.542	52	28
283.105	283.542	59	35
283.105	283.542	74	45
283.532	284.791	65	53
283.532	284.791	77	53
283.535	284.791	44	38
283.735	284.141	53	30
283.941	284.791	56	36
284.141	284.791	53	31
284.354	284.791	59	39
284.354	284.791	74	49
284.775	286.038	66	57
284.775	286.038	78	57
284.777	286.038	45	47
284.984	285.401	54	33
285.191	286.038	57	36
285.401	286.038	54	33
285.611	286.038	74	49
285.614	286.038	62	41
286.035	287.333	67	53
286.035	287.333	73	53
286.038	287.333	45	48
286.255	286.679	57	35
286.471	287.333	82	61
286.472	286.889	64	40
286.679	287.333	57	35
286.889	287.333	64	44
286.889	287.333	81	55
287.319	288.6	69	33
287.32	288.6	79	50
287.323	288.6	50	39
287.533	287.949	57	24
287.743	288.6	62	26
287.949	288.6	57	22
288.16	288.6	78	45
288.162	288.6	66	31
288.586	289.877	73	49
288.589	289.877	64	49
288.593	289.877	42	38
288.804	289.226	54	30
289.02	289.877	61	33
289.02	289.877	79	53
289.226	289.877	54	29
289.437	289.877	78	45
289.44	289.877	58	38
289.861	291.13	66	33
289.863	291.13	47	36
289.863	291.121	76	48
290.074	290.486	54	25
290.277	291.13	59	28
290.486	291.13	54	26
290.697	291.13	74	45
290.699	291.13	62	31
291.12	292.367	64	33
291.121	292.369	76	40
291.123	292.38	44	36
291.323	291.737	52	27
291.533	292.38	62	29
291.737	292.38	52	27
291.945	292.38	74	34
291.946	292.38	59	35
292.367	293.626	64	33
292.369	293.626	76	40
292.37	293.626	45	33
292.576	292.982	52	28
292.779	293.626	61	29
292.982	293.626	52	28
293.193	293.626	73	34
293.196	293.626	57	36
293.622	294.896	62	33
293.623	294.896	77	51
293.625	294.896	40	33
293.829	294.253	52	29
294.04	294.896	76	36
294.042	294.896	59	29
294.249	294.896	74	31
294.253	294.896	52	29
294.464	294.896	73	35
294.466	294.896	56	36
294.673	294.896	71	29
294.89	296.185	45	33
294.89	295.324	61	28
294.89	296.191	69	35
295.103	295.54	52	26
295.324	296.191	61	26
295.537	296.191	71	38
295.54	296.191	52	26
295.752	296.182	73	43
295.754	296.191	57	30
295.968	296.191	74	46
296.181	297.468	67	54
296.182	297.468	73	54
296.185	297.468	45	44
296.398	296.818	57	36
296.612	297.468	82	59
296.613	297.031	64	38
296.818	297.468	57	36
297.031	297.468	64	44
297.031	297.468	81	54
297.455	298.728	69	52
297.455	298.728	79	52
297.456	298.728	50	39
297.661	298.078	57	26
297.872	298.728	62	26
298.078	298.728	57	26
298.291	298.728	66	31
298.291	298.728	78	49
298.719	300.007	64	50
298.722	300.007	42	40
298.722	300.007	73	50
298.932	299.359	54	30
299.15	300.007	61	36
299.15	300.007	79	56
299.359	300.007	54	29
299.566	300.007	78	51
299.569	300.007	58	38
299.997	301.256	76	48
300.0	301.267	47	36
300.0	301.267	66	33
300.202	300.619	54	26
300.413	301.267	59	26
300.619	301.267	54	26
300.826	301.267	74	45
300.829	301.267	62	31
301.256	302.509	76	43
301.257	302.516	44	36
301.257	302.51	64	43
301.463	301.872	52	27
301.668	302.516	62	28
301.872	302.516	52	28
302.079	302.516	74	36
302.082	302.516	59	35
302.509	303.769	76	43
302.51	303.769	45	33
302.51	303.769	64	43
302.713	303.125	52	27
302.915	303.769	61	29
303.125	303.769	52	26
303.328	303.769	73	34
303.331	303.769	57	36
303.758	305.067	77	51
303.759	305.067	40	33
303.759	305.067	62	33
303.972	304.403	52	26
304.189	305.067	59	29
304.189	305.067	76	36
304.403	305.067	52	27
304.403	305.067	74	31
304.619	305.067	73	35
304.62	305.067	56	36
304.833	305.067	71	29
305.051	306.388	69	35
305.054	306.388	45	33
305.054	305.929	61	31
305.271	305.708	52	23
305.488	306.391	57	26
305.708	306.391	52	23
305.929	306.396	61	23
306.388	307.566	45	72
306.388	307.566	69	89
306.39	307.566	48	72
306.391	307.566	52	72
306.391	307.566	57	85
306.583	307.566	71	83
306.678	307.566	72	75
306.776	307.566	74	76
306.874	307.562	76	78
306.969	307.566	78	80
307.066	307.566	80	82
307.164	307.566	81	83
307.263	307.566	83	85
307.36	307.566	84	87
307.461	307.566	86	88
307.562	307.656	76	81
307.564	307.658	88	96
307.566	307.658	52	62
307.566	307.66	56	74
307.755	307.854	75	72
307.755	307.854	87	85
307.758	307.856	53	55
307.758	307.856	57	65
307.95	308.052	88	92
307.951	308.052	76	78
307.954	308.053	52	60
307.955	308.053	56	71
308.149	308.248	75	72
308.15	308.251	53	55
308.15	308.249	87	85
308.154	308.252	57	65
308.346	308.461	88	94
308.349	308.465	52	62
308.349	308.465	76	79
308.35	308.469	56	74
308.812	309.994	47	72
308.812	309.994	67	89
308.813	309.991	50	72
308.814	309.994	55	85
308.815	309.994	43	72
309.004	309.994	69	83
309.102	309.994	71	75
309.197	309.994	72	76
309.295	309.988	74	78
309.393	309.994	76	80
309.491	309.994	78	82
309.585	309.994	79	83
309.687	309.994	81	85
309.788	309.994	83	87
309.887	309.994	85	88
309.988	310.081	74	80
309.991	310.086	50	63
309.991	310.085	86	95
309.992	310.086	54	75
310.176	310.274	85	86
310.177	310.278	52	55
310.177	310.275	73	73
310.18	310.278	55	65
310.373	310.47	74	78
310.373	310.471	86	92
310.376	310.473	50	61
310.376	310.474	54	72
310.568	310.67	85	85
310.569	310.67	73	72
310.572	310.671	52	54
310.573	310.671	55	64
310.768	310.884	50	62
310.768	310.884	74	80
310.768	310.883	86	95
310.772	310.887	54	74
311.23	312.12	53	68
311.233	312.12	41	57
311.233	312.117	45	57
311.234	312.116	48	57
311.342	312.12	77	77
311.455	312.12	81	77
311.563	312.12	84	81
311.675	312.12	89	87
311.784	312.12	93	80
311.895	312.12	96	79
312.007	312.12	101	75
312.116	312.329	48	55
312.116	312.329	57	65
312.116	312.22	100	89
312.117	312.33	45	55
312.12	312.333	52	55
312.56	313.015	74	90
312.563	313.006	50	58
312.563	313.015	58	69
312.564	313.015	46	58
312.567	313.015	53	58
312.672	313.005	77	81
312.787	313.015	82	81
312.899	313.015	86	81
313.005	313.12	77	90
313.006	313.459	50	56
313.006	313.459	59	67
313.008	313.459	47	56
313.008	313.459	56	56
313.121	313.459	80	81
313.236	313.459	86	81
313.341	313.459	89	81
313.45	313.557	76	90
313.452	313.915	57	54
313.453	313.915	48	54
313.453	313.915	52	54
313.453	313.915	60	64
313.561	313.915	81	79
313.677	313.915	84	79
313.786	313.915	88	79
313.904	314.373	74	88
313.905	314.373	59	56
313.905	314.373	62	67
313.908	314.373	50	56
313.908	314.373	53	56
314.013	314.373	77	78
314.135	314.373	83	78
314.24	314.373	86	78
314.356	314.824	60	52
314.356	314.824	72	85
314.358	314.824	57	52
314.359	314.818	52	52
314.359	314.817	64	62
314.472	314.824	76	76
314.587	314.824	81	76
314.699	314.824	84	76
314.814	315.3	71	86
314.817	315.3	59	52
314.817	315.3	64	62
314.818	315.3	52	52
314.818	315.3	56	52
314.937	315.3	76	75
315.056	315.3	80	76
315.174	315.3	83	76
315.29	315.423	69	78
315.291	315.424	57	66
315.294	315.493	45	59
315.424	315.556	59	59
315.426	315.556	71	70
315.56	315.689	60	58
315.56	315.693	72	69
315.693	315.822	71	77
315.694	315.822	59	65
315.825	315.958	72	71
315.829	315.959	60	60
315.959	316.098	74	72
315.961	316.099	62	61
316.099	316.512	64	74
316.1	316.512	76	88
316.102	316.512	40	51
316.102	316.512	52	61
316.232	316.512	54	56
316.235	316.509	42	47
316.365	316.512	56	56
316.368	316.512	44	47
316.508	316.637	57	66
316.509	316.638	42	50
316.509	316.638	69	78
316.512	316.639	54	59
316.641	316.763	71	70
316.642	316.767	56	61
316.642	316.764	59	59
316.644	316.767	44	51
316.768	316.896	60	58
316.77	316.9	57	53
316.77	316.897	72	69
316.771	316.9	45	45
316.904	317.307	47	56
316.904	317.306	59	65
316.904	317.029	71	77
317.033	317.166	72	71
317.034	317.166	60	60
317.167	317.307	62	61
317.17	317.308	74	72
317.309	317.713	76	88
317.31	317.713	52	61
317.31	317.713	64	74
317.311	317.713	40	51
317.439	317.713	42	47
317.44	317.712	54	56
317.572	317.713	44	47
317.575	317.713	56	56
317.708	317.838	69	71
317.712	317.842	54	59
317.712	317.838	81	84
317.713	317.842	42	50
317.843	317.971	71	64
317.845	317.975	56	61
317.845	317.975	83	76
317.846	317.975	44	51
317.978	318.104	84	76
317.979	318.108	57	53
317.979	318.104	72	64
317.98	318.108	45	45
318.111	318.241	71	72
318.111	318.236	83	85
318.112	318.51	47	59
318.112	318.51	59	70
318.241	318.373	84	77
318.242	318.374	72	65
318.374	318.514	74	65
318.375	318.514	86	77
318.517	318.92	76	80
318.517	318.92	88	95
318.518	318.92	52	61
318.521	318.92	40	51
318.647	318.92	42	47
318.65	318.92	54	56
318.781	318.92	44	47
318.781	318.92	56	56
318.917	319.045	81	84
318.918	319.045	69	71
318.92	319.049	42	50
318.92	319.049	54	59
319.05	319.179	71	64
319.052	319.18	56	61
319.052	319.179	83	76
319.053	319.182	44	51
319.182	319.311	72	64
319.186	319.316	57	53
319.186	319.315	84	76
319.187	319.316	45	45
319.318	319.441	71	72
319.319	319.714	47	59
319.319	319.441	83	85
319.322	319.714	59	70
319.442	319.574	84	77
319.445	319.575	72	65
319.578	319.715	74	65
319.578	319.718	86	77
319.718	320.131	76	80
319.719	320.137	40	57
319.719	320.137	88	95
319.721	320.137	52	68
319.854	320.137	54	59
319.855	320.137	42	50
319.988	320.137	56	57
319.99	320.137	44	48
320.131	320.333	76	80
320.131	320.333	81	80
320.132	320.333	72	80
320.134	320.333	45	56
320.134	320.333	57	67
320.134	320.333	84	95
320.261	320.393	59	58
320.263	320.393	47	49
320.394	320.526	60	58
320.397	320.527	48	49
320.53	320.667	47	56
320.53	320.666	59	66
320.667	320.806	60	59
320.669	320.806	48	50
320.806	320.939	62	59
320.807	320.94	50	50
320.94	321.37	83	91
320.942	321.363	76	77
320.943	321.37	64	70
320.943	321.37	71	77
320.943	321.37	80	77
320.946	321.37	52	59
321.359	321.576	84	95
321.363	321.576	76	80
321.366	321.576	72	80
321.366	321.576	81	80
321.367	321.576	45	56
321.367	321.576	57	67
321.497	321.628	47	49
321.499	321.629	59	58
321.629	321.762	60	58
321.632	321.765	48	49
321.765	321.901	47	56
321.766	321.905	59	66
321.906	322.042	48	50
321.906	322.042	60	59
322.043	322.174	50	50
322.045	322.175	62	59
322.175	322.605	71	77
322.179	322.601	76	77
322.179	322.605	80	77
322.18	322.605	52	59
322.18	322.605	83	91
322.181	322.605	64	70
322.598	322.805	81	80
322.599	322.805	84	95
322.601	322.805	72	80
322.601	322.805	76	80
322.602	322.805	33	56
322.602	322.805	45	67
322.732	322.864	47	58
322.735	322.865	35	49
322.868	323.004	36	49
322.868	323.004	48	58
323.008	323.137	35	56
323.009	323.141	47	66
323.141	323.273	36	50
323.142	323.273	48	59
323.274	323.41	38	50
323.274	323.41	50	59
323.414	323.844	76	77
323.414	323.851	80	91
323.415	323.851	71	77
323.417	323.851	40	59
323.417	323.851	52	70
323.417	323.851	83	91
323.84	324.239	69	80
323.841	324.239	72	80
323.841	324.239	81	95
323.844	324.239	76	80
323.845	324.239	33	61
323.845	324.239	45	72
325.111	325.525	64	72
325.112	325.527	57	72
325.114	325.524	60	72
325.115	325.532	36	49
325.115	325.527	69	85
325.118	325.528	40	49
325.119	325.528	33	49
325.119	325.531	45	58
325.524	325.948	60	74
325.525	325.951	64	74
325.527	325.948	57	74
325.527	325.951	69	88
325.528	325.951	33	52
325.528	325.952	40	52
325.531	325.955	45	62
325.532	325.955	36	52
325.948	326.413	57	76
325.948	326.414	60	76
325.951	326.417	33	56
325.951	326.416	64	76
325.951	326.414	69	90
325.952	326.417	40	56
325.955	326.421	36	56
325.955	326.42	45	67
326.413	326.872	57	77
326.414	326.872	60	77
326.414	326.872	69	91
326.416	326.872	64	77
326.417	326.872	33	57
326.417	326.872	40	57
326.42	326.872	45	68
326.421	326.872	36	57
