OnsetTime	OffsetTime	MidiPitch	Velocity
0.500004	0.592313	65	42
0.57693	0.669238	66	42
0.653856	0.746097	65	42
0.730782	0.822621	67	43
0.807319	0.899144	68	43
0.883842	0.975668	69	43
0.960366	1.05219	68	44
1.03689	1.12834	70	44
1.1131	1.20449	71	44
1.18925	1.28063	72	46
1.2654	1.35678	71	46
1.34155	1.4326	73	46
1.41744	1.50835	74	47
1.4932	1.58411	75	47
1.56896	1.65987	74	47
1.64472	1.73536	76	48
1.72029	1.81073	77	48
1.79566	1.8861	78	48
1.87103	1.96147	77	49
1.90871	3.79871	53	37
1.9464	2.62008	59	42
1.9464	2.03664	79	49
1.98408	2.62008	62	46
2.02165	2.91711	68	57
2.02165	2.11164	80	49
2.09664	2.18663	81	50
2.17164	2.26163	80	50
2.24663	2.33649	82	50
2.32156	2.41112	83	51
2.39619	2.48575	84	51
2.47083	2.56038	83	51
2.54546	2.63492	86	52
2.58277	3.50692	60	33
2.62008	3.21319	63	46
2.62008	2.70918	84	52
2.69433	2.78344	85	52
2.76859	2.85769	84	54
2.84285	2.93195	86	54
2.91711	3.21319	67	49
2.91711	3.00621	87	54
2.99136	3.08018	89	55
3.0654	3.15408	87	55
3.1393	3.22791	90	55
3.21319	3.79871	63	54
3.21319	3.36026	91	56
3.28673	3.79871	92	56
3.36026	3.79871	91	56
3.43375	3.79871	95	57
3.50692	3.79871	60	49
3.50692	3.65306	96	57
3.58009	3.79871	97	57
3.65306	3.79871	96	58
3.72589	3.81327	98	58
3.79871	3.94434	99	60
3.87152	4.97568	98	60
3.94434	4.97568	99	59
4.01716	4.97568	97	59
4.08998	4.23593	96	58
4.1628	4.97568	95	58
4.23593	4.97568	96	57
4.30911	4.97568	94	57
4.38228	4.52862	93	56
4.45545	4.97568	92	56
4.52862	4.97568	93	55
4.60195	4.97568	91	55
4.67548	4.82255	90	54
4.74902	4.97568	89	54
4.82255	4.97568	90	52
4.89608	4.97568	88	51
4.96961	5.11524	87	49
5.04242	5.53522	86	49
5.11524	5.53522	87	49
5.18833	5.53522	85	48
5.26151	5.40852	84	48
5.33498	5.53522	83	48
5.40852	7.29816	53	35
5.40852	5.53522	84	47
5.44532	6.15414	57	37
5.48226	6.15414	60	41
5.48226	5.55616	82	47
5.51921	6.15414	63	43
5.55616	6.77502	66	46
5.55616	5.70457	81	46
5.63031	6.15414	80	46
5.70457	6.15414	81	46
5.7791	6.15414	79	44
5.85374	6.00355	78	44
5.92856	6.15414	77	43
6.00355	6.15414	78	43
6.07877	6.15414	75	42
6.11646	7.09501	58	36
6.15414	6.77502	62	48
6.15414	6.30639	74	42
6.22977	6.47019	73	42
6.30639	6.47019	74	41
6.38361	6.47019	72	41
6.46112	6.77502	65	35
6.46112	6.61728	70	40
6.53906	6.75253	69	40
6.61728	6.75253	70	40
6.69594	6.77502	68	39
6.77502	7.42141	61	46
6.77502	6.93424	67	39
6.85442	7.42141	66	37
6.93424	7.25735	67	37
7.01445	7.33915	65	37
7.09501	7.3802	58	34
7.09501	7.42141	73	36
7.17603	7.42141	70	36
7.25735	7.42141	67	35
7.29816	7.79408	53	34
7.33915	7.79408	55	34
7.33915	7.42141	65	35
7.3802	7.79408	58	34
7.42141	7.79408	61	34
7.42141	7.79408	64	43
8.09589	8.47595	88	34
8.09589	8.39973	91	34
8.09589	8.7185	97	48
8.17165	8.7185	94	48
8.24744	8.62902	81	29
8.24744	8.55248	84	29
8.24744	8.7185	90	47
8.32358	8.7185	87	46
8.39973	8.7185	82	29
8.39973	8.70568	85	29
8.39973	8.7185	91	46
8.47595	8.7185	88	44
8.55248	8.7185	75	29
8.55248	8.7185	78	29
8.55248	8.7185	84	44
8.62902	8.7185	81	43
8.70568	9.09031	76	34
8.70568	9.01338	79	34
8.70568	9.30185	85	42
8.7826	9.30185	82	41
8.85953	9.24416	69	29
8.85953	9.16723	72	29
8.85953	9.30185	78	41
8.93646	9.30185	75	40
9.01338	9.30185	70	29
9.01338	9.30185	73	29
9.01338	9.30185	79	39
9.09031	9.30185	76	39
9.16723	9.30185	63	29
9.16723	9.30185	66	29
9.16723	9.30185	72	37
9.24416	9.32108	69	36
9.32108	9.56958	64	34
9.32108	9.6477	67	34
9.32108	9.6477	73	36
9.39884	9.6477	70	35
9.48141	9.6477	57	31
9.48141	9.6477	60	31
9.48141	9.6477	66	35
9.56958	9.65031	64	34
9.65031	9.80879	58	34
9.65031	9.80879	61	34
9.65031	9.80879	64	34
9.65031	9.80879	67	34
10.0235	10.1209	41	41
10.2184	10.3012	53	21
10.2184	10.3012	58	21
10.2184	10.3012	61	21
10.2184	10.3012	67	26
10.2184	10.3012	73	37
10.2184	10.3012	76	37
10.2184	10.3012	85	44
10.3841	10.467	53	21
10.3841	10.467	58	21
10.3841	10.467	61	21
10.3841	10.467	67	26
10.3841	10.467	73	32
10.3841	10.467	76	32
10.3841	10.467	84	39
10.5498	10.6327	53	21
10.5498	10.6327	58	21
10.5498	10.6327	61	21
10.5498	10.6327	67	26
10.5498	10.6327	73	35
10.5498	10.6327	76	35
10.5498	10.6327	83	42
10.7156	10.8059	53	23
10.7156	10.8059	58	23
10.7156	10.8059	61	23
10.7156	10.8059	67	27
10.7156	10.8059	73	32
10.7156	10.8059	76	32
10.7156	10.8059	82	37
10.8963	10.9796	53	25
10.8963	10.9796	58	25
10.8963	10.9796	61	25
10.8963	10.9796	67	31
10.8963	10.9796	73	36
10.8963	10.9796	76	36
10.8963	10.9796	85	43
11.063	11.4058	53	20
11.063	11.4058	58	20
11.063	11.4058	61	20
11.063	11.4058	67	25
11.063	11.2344	73	39
11.063	11.2344	76	39
11.063	11.2301	84	47
11.1487	11.2344	83	46
11.2344	11.3201	82	44
11.7487	12.1287	90	34
11.7487	12.0525	93	34
11.7487	12.6739	99	48
11.8244	12.6739	96	48
11.9002	12.2818	83	29
11.9002	12.2053	86	29
11.9002	12.6739	92	47
11.9764	12.6739	89	46
12.0525	12.4354	84	29
12.0525	12.3585	87	29
12.0525	12.6739	93	46
12.1287	12.6739	90	44
12.2053	12.5892	77	29
12.2053	12.5123	80	29
12.2053	12.6739	86	44
12.2818	12.6739	83	43
12.3585	12.6739	78	34
12.3585	12.6662	81	34
12.3585	12.6739	87	42
12.4354	12.6739	84	41
12.5123	12.6739	71	29
12.5123	12.6739	74	29
12.5123	12.6739	80	41
12.5892	12.6739	77	40
12.6662	13.0503	72	29
12.6662	12.9739	75	29
12.6662	13.2945	81	39
12.7431	13.2945	78	39
12.82	13.2045	65	29
12.82	13.127	68	29
12.82	13.2945	74	37
12.8969	13.2945	71	36
12.9739	13.2827	66	34
12.9739	13.2827	69	34
12.9739	13.2945	75	36
13.0503	13.2945	72	35
13.127	13.2945	59	31
13.127	13.2945	62	31
13.127	13.2945	68	35
13.2045	13.2945	65	34
13.2827	13.4412	60	34
13.2827	13.4412	63	34
13.2827	13.4412	66	34
13.2827	13.4412	69	34
13.9174	14.0148	41	44
14.1122	14.1951	60	25
14.1122	14.1951	63	25
14.1122	14.1951	69	31
14.1122	14.1951	78	44
14.1122	14.1951	81	44
14.1122	14.1951	90	52
14.2779	14.3608	60	25
14.2779	14.3608	63	25
14.2779	14.3608	69	31
14.2779	14.3608	78	37
14.2779	14.3608	81	37
14.2779	14.3608	89	46
14.4437	14.5265	60	25
14.4437	14.5265	63	25
14.4437	14.5265	69	31
14.4437	14.5265	78	42
14.4437	14.5265	81	42
14.4437	14.5265	88	50
14.6094	14.6998	60	27
14.6094	14.6998	63	27
14.6094	14.6998	69	32
14.6094	14.6998	78	37
14.6094	14.6998	81	37
14.6094	14.6998	87	44
14.7901	14.8735	60	29
14.7901	14.8735	63	29
14.7901	14.8735	69	35
14.7901	14.8735	78	43
14.7901	14.8735	81	43
14.7901	14.8735	90	51
14.9568	15.2997	60	23
14.9568	15.2997	63	23
14.9568	15.2997	69	29
14.9568	15.1282	78	46
14.9568	15.1282	81	46
14.9568	15.1139	89	56
15.0425	15.1282	88	54
15.1282	15.2139	87	48
15.4945	15.5803	60	20
15.4945	15.5803	63	20
15.4945	15.5803	69	25
15.4945	15.5803	75	35
15.4945	15.5803	78	35
15.4945	15.5803	87	43
15.6662	15.752	60	20
15.6662	15.752	63	20
15.6662	15.752	69	25
15.6662	15.752	75	31
15.6662	15.752	78	31
15.6662	15.752	86	37
15.8379	15.9237	60	20
15.8379	15.9237	63	20
15.8379	15.9237	69	25
15.8379	15.9237	75	33
15.8379	15.9237	78	33
15.8379	15.9237	85	41
16.0096	16.1029	60	21
16.0096	16.1029	63	21
16.0096	16.1029	69	26
16.0096	16.1029	75	31
16.0096	16.1029	78	31
16.0096	16.1029	84	35
16.1963	16.2821	60	23
16.1963	16.2821	63	23
16.1963	16.2821	69	29
16.1963	16.2821	75	34
16.1963	16.2821	78	34
16.1963	16.2821	87	42
16.368	16.728	60	19
16.368	16.728	63	19
16.368	16.728	69	23
16.368	16.608	75	37
16.368	16.608	78	37
16.368	16.608	86	44
16.458	16.608	85	43
16.548	16.638	84	42
16.9079	16.9938	63	21
16.9079	16.9938	66	21
16.9079	16.9938	69	28
16.9079	16.9938	72	33
16.9079	16.9938	75	33
16.9079	16.9938	84	41
17.0796	17.4417	63	18
17.0796	17.4417	66	18
17.0796	17.4417	69	21
17.0796	17.3678	72	36
17.0796	17.3678	75	36
17.0796	17.3678	83	43
17.1702	17.3678	82	42
17.2607	17.3678	81	42
17.6369	17.7264	66	20
17.6369	17.7264	69	27
17.6369	17.7264	72	32
17.6369	17.7264	75	32
17.6369	17.7264	81	39
17.8158	18.1963	66	17
17.8158	18.1963	69	20
17.8158	18.0314	72	34
17.8158	18.0314	75	34
17.8158	18.0314	80	41
17.911	18.0314	79	40
18.0061	18.1012	78	39
18.3877	18.4835	69	27
18.3877	18.4835	72	32
18.3877	18.4835	75	35
18.3877	18.4835	77	40
18.5783	18.6723	72	28
18.5783	18.6723	75	27
18.5783	18.6723	78	34
18.7662	18.8596	69	27
18.7662	18.8596	72	32
18.7662	18.8596	75	35
18.7662	18.8596	77	40
18.9529	19.0458	72	31
18.9529	19.0458	75	27
18.9529	19.0458	79	35
19.1386	19.2312	69	27
19.1386	19.2312	72	32
19.1386	19.2312	75	35
19.1386	19.2312	77	40
19.3234	19.4156	72	29
19.3234	19.4156	75	27
19.3234	19.4156	78	34
19.5073	19.5989	69	27
19.5073	19.5989	72	32
19.5073	19.5989	75	35
19.5073	19.5989	77	40
19.6897	19.7459	79	36
19.802	19.8578	77	40
19.9135	19.9689	78	34
20.0242	20.0792	77	40
20.1341	20.1888	79	33
20.2433	20.2976	77	40
20.3517	20.4055	78	36
20.4593	20.5127	77	40
20.5662	20.6197	79	34
20.6731	20.8321	77	40
20.7527	21.0696	78	35
20.8321	20.9906	77	40
20.9115	21.2275	79	35
20.9906	21.1485	77	40
21.0696	21.3854	78	35
21.1485	21.3064	77	40
21.2275	21.5429	79	35
21.3064	21.4643	77	40
21.3854	21.7011	78	35
21.4643	21.6218	77	41
21.5429	21.8617	79	34
21.6218	21.7811	77	40
21.7011	22.0251	78	35
21.7811	21.943	77	40
21.8617	22.1913	79	35
21.943	22.1078	77	40
22.0251	22.2755	78	35
22.1078	22.2755	77	40
22.1913	22.2755	79	36
22.2755	22.3637	77	40
22.3637	22.4519	78	36
22.4519	22.5401	77	40
22.5401	22.6284	79	35
22.6284	23.4243	63	46
22.6284	23.4163	65	36
22.6284	22.8204	69	33
22.6284	22.8204	77	40
22.7241	22.9167	72	31
22.7241	23.1139	78	36
22.8204	23.4163	69	33
22.8204	23.0131	77	40
22.9167	23.4243	72	29
22.9167	23.3155	79	35
23.0131	23.4243	62	36
23.0131	23.2147	70	33
23.0131	23.2147	77	40
23.1139	23.3155	74	31
23.1139	23.4243	78	36
23.2147	23.4243	70	33
23.2147	23.4163	77	40
23.3155	23.4243	74	29
23.3155	23.4243	79	35
23.4163	24.214	60	43
23.4163	24.209	65	34
23.4163	23.6069	69	33
23.4163	23.6069	77	40
23.5116	23.7022	75	31
23.5116	23.9007	78	36
23.6069	24.214	69	33
23.6069	23.7975	77	40
23.7022	24.214	75	29
23.7022	24.1071	79	35
23.7975	24.214	58	37
23.7975	24.0039	70	33
23.7975	24.214	77	40
23.9007	24.1071	74	31
23.9007	24.0039	78	36
24.0039	24.214	70	47
24.0039	24.214	78	47
24.1071	24.209	74	41
24.1071	24.214	79	41
24.209	24.4072	53	28
24.209	24.4072	62	36
24.209	24.4072	65	28
24.209	24.3596	74	42
24.209	24.3596	80	50
24.3084	24.4072	77	36
24.3084	24.4072	81	43
24.4072	24.5752	74	43
24.4072	24.5752	81	51
24.5053	24.5752	77	36
24.5053	24.5752	82	43
24.6027	24.7955	53	26
24.6027	24.7955	63	33
24.6027	24.7955	65	26
24.6027	24.7683	72	44
24.6027	24.7683	82	52
24.6995	24.7683	75	39
24.6995	24.7683	81	46
24.7955	24.944	72	43
24.7955	24.944	81	51
24.8913	24.944	75	36
24.8913	24.944	80	43
24.9871	25.1788	57	29
24.9871	25.1788	63	37
24.9871	25.5918	65	29
24.9871	25.1548	72	40
24.9871	25.1548	80	48
25.0829	25.1548	75	35
25.0829	25.1548	79	42
25.1788	25.3902	72	39
25.1788	25.3902	79	47
25.2845	25.3902	75	33
25.2845	25.3902	78	40
25.3902	25.5918	58	26
25.3902	25.5918	62	33
25.3902	25.491	70	33
25.3902	25.491	77	40
25.491	25.5918	74	31
25.491	25.5918	78	36
25.5918	25.6926	70	33
25.5918	25.6926	77	40
25.6926	25.803	74	29
25.6926	25.803	79	35
25.803	26.5995	63	46
25.803	26.5916	65	36
25.803	25.9957	69	33
25.803	25.9957	77	40
25.8993	26.092	72	31
25.8993	26.2892	78	36
25.9957	26.5916	69	33
25.9957	26.1884	77	40
26.092	26.5995	72	29
26.092	26.4908	79	35
26.1884	26.5995	62	36
26.1884	26.39	70	33
26.1884	26.39	77	40
26.2892	26.4908	74	31
26.2892	26.5995	78	36
26.39	26.5995	70	33
26.39	26.5916	77	40
26.4908	26.5995	74	29
26.4908	26.5995	79	35
26.5916	27.3893	60	43
26.5916	27.3843	65	34
26.5916	26.7822	69	33
26.5916	26.7822	77	40
26.6869	26.8775	75	31
26.6869	27.076	78	36
26.7822	27.3893	69	33
26.7822	26.9728	77	40
26.8775	27.3893	75	29
26.8775	27.2824	79	35
26.9728	27.3893	58	37
26.9728	27.1792	70	33
26.9728	27.3893	77	40
27.076	27.2824	74	31
27.076	27.1792	78	36
27.1792	27.3893	70	47
27.1792	27.3893	78	47
27.2824	27.3843	74	41
27.2824	27.3893	79	41
27.3843	27.5825	53	28
27.3843	27.5825	62	36
27.3843	27.5825	65	28
27.3843	27.5349	74	42
27.3843	27.5349	80	50
27.4837	27.5825	77	36
27.4837	27.5825	81	43
27.5825	27.7505	74	43
27.5825	27.7505	81	51
27.6806	27.7505	77	36
27.6806	27.7505	82	43
27.778	27.9708	53	26
27.778	27.9708	63	33
27.778	27.9708	65	26
27.778	27.9436	72	44
27.778	27.9436	82	52
27.8747	27.9436	75	39
27.8747	27.9436	81	46
27.9708	28.1193	72	43
27.9708	28.1193	81	51
28.0666	28.1193	75	36
28.0666	28.1193	80	43
28.1624	28.354	57	29
28.1624	28.354	63	37
28.1624	28.7659	65	29
28.1624	28.3301	72	40
28.1624	28.3301	80	48
28.2582	28.3301	75	35
28.2582	28.3301	79	42
28.354	28.5654	72	39
28.354	28.5654	79	47
28.4597	28.5654	75	33
28.4597	28.5654	78	40
28.5654	28.9738	58	26
28.5654	28.9738	62	33
28.5654	28.6657	74	33
28.5654	28.6657	77	40
28.6657	28.7659	70	31
28.6657	28.7659	78	36
28.7659	28.8661	74	33
28.7659	28.8661	77	40
28.8661	28.9738	81	40
28.9738	29.7703	68	46
28.9738	29.7624	70	36
28.9738	29.1664	74	33
28.9738	29.1664	82	40
29.0701	29.2628	77	31
29.0701	29.2628	83	36
29.1664	29.7624	74	33
29.1664	29.3591	82	40
29.2628	29.7703	77	29
29.2628	29.4599	83	35
29.3591	29.7703	66	36
29.3591	29.5608	75	33
29.3591	29.5608	82	40
29.4599	29.6616	78	31
29.4599	29.6616	83	36
29.5608	29.7703	75	33
29.5608	29.7624	82	40
29.6616	29.7703	78	29
29.6616	29.7703	83	35
29.7624	30.56	65	43
29.7624	30.555	70	34
29.7624	29.953	74	33
29.7624	29.953	82	40
29.8577	30.0483	80	31
29.8577	30.0483	83	36
29.953	30.56	74	33
29.953	30.1436	82	40
30.0483	30.56	80	29
30.0483	30.2468	83	35
30.1436	30.56	63	37
30.1436	30.35	75	33
30.1436	30.56	82	40
30.2468	30.4532	78	31
30.2468	30.35	83	36
30.35	30.56	75	47
30.35	30.56	83	47
30.4532	30.555	78	41
30.4532	30.56	84	41
30.555	30.7533	58	28
30.555	30.7533	66	36
30.555	30.7533	70	28
30.555	30.7057	78	42
30.555	30.7057	85	50
30.6545	30.7533	82	36
30.6545	30.7533	86	43
30.7533	30.9213	78	43
30.7533	30.9213	86	51
30.8514	30.9213	82	36
30.8514	30.9213	87	43
30.9488	31.1415	58	26
30.9488	31.1415	68	33
30.9488	31.1415	70	26
30.9488	31.1144	77	44
30.9488	31.1144	87	52
31.0455	31.1144	80	39
31.0455	31.1144	86	46
31.1415	31.2901	77	43
31.1415	31.2901	86	51
31.2373	31.2901	80	36
31.2373	31.2901	85	43
31.3332	31.5248	62	29
31.3332	31.5248	68	37
31.3332	31.9279	70	29
31.3332	31.5009	77	40
31.3332	31.5009	85	48
31.429	31.5009	80	35
31.429	31.5009	84	42
31.5248	31.7362	77	39
31.5248	31.7362	84	47
31.6305	31.7362	80	33
31.6305	31.7362	83	40
31.7362	31.9279	63	26
31.7362	31.9279	66	33
31.7362	31.832	78	33
31.7362	31.832	82	40
31.832	31.9279	75	31
31.832	31.9279	83	36
31.9279	32.0237	78	33
31.9279	32.0237	82	40
32.0237	32.1195	75	29
32.0237	32.1195	83	35
32.1195	32.9161	68	46
32.1195	32.9081	70	36
32.1195	32.3122	74	33
32.1195	32.3122	82	40
32.2158	32.4085	77	31
32.2158	32.4085	83	36
32.3122	32.9081	74	33
32.3122	32.5049	82	40
32.4085	32.9161	77	29
32.4085	32.6057	83	35
32.5049	32.9161	66	36
32.5049	32.7065	75	33
32.5049	32.7065	82	40
32.6057	32.8073	78	31
32.6057	32.8073	83	36
32.7065	32.9161	75	33
32.7065	32.9081	82	40
32.8073	32.9161	78	29
32.8073	32.9161	83	35
32.9081	33.7058	65	43
32.9081	33.7008	70	34
32.9081	33.0987	74	33
32.9081	33.0987	82	40
33.0034	33.194	80	31
33.0034	33.194	83	36
33.0987	33.7058	74	33
33.0987	33.2893	82	40
33.194	33.7058	80	29
33.194	33.3925	83	35
33.2893	33.7058	63	37
33.2893	33.4957	75	33
33.2893	33.7058	82	40
33.3925	33.5989	78	31
33.3925	33.4957	83	36
33.4957	33.7058	75	47
33.4957	33.7058	83	47
33.5989	33.7008	78	41
33.5989	33.7058	84	41
33.7008	33.899	58	28
33.7008	33.899	66	36
33.7008	33.899	70	28
33.7008	33.8514	78	42
33.7008	33.8514	85	50
33.8002	33.899	82	36
33.8002	33.899	86	43
33.899	34.067	78	43
33.899	34.067	86	51
33.9971	34.067	82	36
33.9971	34.067	87	43
34.0945	34.2873	58	26
34.0945	34.2873	68	33
34.0945	34.2873	70	26
34.0945	34.2601	77	44
34.0945	34.2601	87	52
34.1913	34.2601	80	39
34.1913	34.2601	86	46
34.2873	34.4358	77	43
34.2873	34.4358	86	51
34.3831	34.4358	80	36
34.3831	34.4358	85	43
34.4789	34.6706	62	29
34.4789	34.6706	68	37
34.4789	35.0884	70	29
34.4789	34.6466	77	40
34.4789	34.6466	85	48
34.5747	34.6466	80	35
34.5747	34.6466	84	42
34.6706	34.882	77	39
34.6706	34.882	84	47
34.7763	34.882	80	33
34.7763	34.882	83	40
34.882	35.0884	63	26
34.882	35.0884	66	33
34.882	34.9852	78	33
34.882	34.9852	82	40
34.9852	35.0884	75	31
34.9852	35.0884	83	36
35.0884	35.1916	78	33
35.0884	35.1916	82	40
35.1916	35.311	87	37
35.311	35.7136	46	34
35.311	35.7136	61	41
35.311	35.5058	78	42
35.311	35.5058	90	51
35.4084	35.6032	85	33
35.4084	35.7136	87	40
35.5058	35.7006	78	35
35.5058	35.7136	90	43
35.6032	35.7136	85	33
35.6032	35.7006	88	40
35.7006	36.0789	47	27
35.7006	36.0789	63	33
35.7006	35.8954	78	44
35.7006	35.8954	88	54
35.798	35.9928	83	32
35.798	36.0789	86	39
35.8954	36.0789	78	35
35.8954	36.0789	88	43
35.9928	36.0902	83	33
35.9928	36.0902	87	40
36.0902	36.5009	49	32
36.0902	36.5009	64	39
36.0902	36.285	76	51
36.0902	36.285	87	51
36.1876	36.3824	82	31
36.1876	36.5009	84	37
36.285	36.5009	76	35
36.285	36.5009	87	43
36.3824	36.5009	82	39
36.3824	36.4961	85	39
36.4961	36.785	51	23
36.4961	36.785	66	28
36.4961	36.6909	75	42
36.4961	36.6909	85	51
36.5935	36.785	78	31
36.5935	36.785	82	37
36.6909	36.7883	75	35
36.6909	36.7883	85	43
36.7883	36.8954	78	39
36.7883	36.8954	83	39
36.8954	37.2974	52	29
36.8954	37.2974	67	35
36.8954	37.0919	73	39
36.8954	37.0919	84	47
36.9936	37.1901	79	37
36.9936	37.2974	81	37
37.0919	37.2974	73	33
37.0919	37.2974	84	40
37.1901	37.2974	79	36
37.1901	37.2958	82	36
37.2958	37.6395	53	24
37.2958	37.6395	69	28
37.2958	37.4935	72	39
37.2958	37.4935	82	46
37.3946	37.5924	77	31
37.3946	37.6395	80	36
37.4935	37.6395	72	33
37.4935	37.6395	82	40
37.5924	37.7011	77	29
37.5924	37.7011	81	35
37.7011	38.1202	55	25
37.7011	38.1202	64	31
37.7011	37.9002	70	39
37.7011	37.9002	81	46
37.8006	37.9997	76	29
37.8006	38.1202	78	35
37.9002	38.1202	61	26
37.9002	38.1202	70	33
37.9002	38.1202	81	40
37.9997	38.1202	76	29
37.9997	38.1071	79	35
38.1071	38.527	57	27
38.1071	38.527	65	33
38.1071	38.3048	69	36
38.1071	38.3048	79	43
38.2059	38.4037	72	27
38.2059	38.527	76	33
38.3048	38.527	60	28
38.3048	38.527	69	33
38.3048	38.527	79	40
38.4037	38.527	72	28
38.4037	38.5088	77	34
38.5088	38.9483	58	33
38.5088	38.9483	67	33
38.5088	38.9483	73	32
38.5088	38.7066	77	37
38.6077	38.9118	75	32
38.7066	38.9483	61	27
38.7066	38.9483	70	32
38.7066	38.9483	77	37
38.8055	38.9483	76	32
38.9118	39.3166	60	27
38.9118	39.0114	69	33
38.9118	39.3166	75	29
38.9118	39.0114	79	35
39.0114	39.3166	76	31
39.1109	39.3166	63	27
39.1109	39.3166	72	31
39.1109	39.3166	79	36
39.2104	39.31	77	28
39.31	39.7354	61	27
39.31	39.7354	67	33
39.31	39.7354	70	28
39.31	39.5091	77	34
39.4095	39.7354	75	29
39.5091	39.7354	77	35
39.6086	39.7354	76	29
39.7175	39.8149	63	27
39.7175	39.8149	69	33
39.7175	39.8149	72	31
39.7175	39.8149	79	36
39.8149	39.9123	75	32
39.9123	40.0097	79	35
40.0097	40.1072	78	32
40.1072	40.1989	77	40
40.1989	40.2907	78	35
40.2907	40.3821	77	41
40.3821	40.4737	79	34
40.4737	40.5656	77	40
40.5656	40.6578	78	35
40.6578	40.7506	77	40
40.7506	40.8437	79	35
40.8437	40.9372	77	40
40.9372	41.031	78	35
41.031	41.1253	77	40
41.1253	41.22	79	36
41.22	41.3163	77	40
41.3163	41.4127	78	36
41.4127	41.509	77	40
41.509	41.6054	79	35
41.6054	41.88	51	46
41.6054	41.7981	69	33
41.6054	41.7981	77	40
41.7017	41.88	72	31
41.7017	41.88	78	36
41.7499	41.88	67	40
41.7981	41.88	65	46
41.7981	41.8944	69	33
41.7981	41.8944	77	40
41.8944	41.9908	72	29
41.8944	41.9908	79	35
41.9908	42.2646	50	46
41.9908	42.1924	70	33
41.9908	42.1924	77	40
42.0916	42.2646	74	31
42.0916	42.2646	78	36
42.142	42.2646	66	40
42.1924	42.2646	65	46
42.1924	42.2932	70	33
42.1924	42.2932	77	40
42.2932	42.394	74	29
42.2932	42.394	79	35
42.394	42.6704	48	46
42.394	42.5846	69	33
42.394	42.5846	77	40
42.4893	42.6704	72	31
42.4893	42.6704	78	36
42.5369	42.6704	67	41
42.5846	42.6704	65	46
42.5846	42.6799	69	33
42.5846	42.6799	77	40
42.6799	42.7752	72	29
42.6799	42.7752	79	35
42.7752	43.0744	46	46
42.7752	42.9816	70	33
42.7752	43.0744	77	40
42.8784	43.0744	74	31
42.8784	42.9816	78	36
42.93	43.0744	66	39
42.9816	43.0744	65	46
42.9816	43.0847	70	47
42.9816	43.0847	78	47
43.0847	43.1363	74	41
43.0847	43.1363	79	41
43.1866	43.4911	41	49
43.1866	43.3849	74	50
43.1866	43.4911	80	50
43.2861	43.483	77	43
43.2861	43.3849	81	43
43.3356	43.4911	67	44
43.3849	43.4911	65	50
43.3849	43.4911	74	51
43.3849	43.4911	81	51
43.483	43.5318	77	43
43.483	43.5318	82	43
43.5804	43.9009	41	52
43.5804	43.7732	72	52
43.5804	43.9009	82	52
43.6771	43.869	75	46
43.6771	43.7732	81	46
43.7252	43.9009	66	44
43.7732	43.9009	65	50
43.7732	43.9009	72	51
43.7732	43.9009	81	51
43.869	43.9169	75	43
43.869	43.9169	80	43
43.9648	44.2675	45	50
43.9648	44.1565	72	48
43.9648	44.2675	80	48
44.0606	44.2622	75	42
44.0606	44.1565	79	42
44.1086	44.2675	67	41
44.1565	44.2675	65	46
44.1565	44.2675	72	47
44.1565	44.2675	79	47
44.2622	44.315	75	40
44.2622	44.315	78	40
44.3679	44.6522	46	46
44.3679	44.564	74	33
44.3679	44.564	77	40
44.4659	44.6522	70	31
44.4659	44.6522	78	36
44.5149	44.6522	66	40
44.564	44.6522	65	46
44.564	44.662	74	33
44.564	44.662	77	40
44.662	44.7724	70	29
44.662	44.7724	79	35
44.7724	45.047	51	46
44.7724	44.9651	69	33
44.7724	44.9651	77	40
44.8687	45.047	72	31
44.8687	45.047	78	36
44.9169	45.047	67	40
44.9651	45.047	65	46
44.9651	45.0614	69	33
44.9651	45.0614	77	40
45.0614	45.1578	72	29
45.0614	45.1578	79	35
45.1578	45.4316	50	46
45.1578	45.3594	70	33
45.1578	45.3594	77	40
45.2586	45.4316	74	31
45.2586	45.4316	78	36
45.309	45.4316	66	40
45.3594	45.4316	65	46
45.3594	45.4602	70	33
45.3594	45.4602	77	40
45.4602	45.561	74	29
45.4602	45.561	79	35
45.561	45.8374	48	46
45.561	45.7516	69	33
45.561	45.7516	77	40
45.6563	45.8374	75	31
45.6563	45.8374	78	36
45.7039	45.8374	67	41
45.7516	45.8374	65	46
45.7516	45.8469	69	33
45.7516	45.8469	77	40
45.8469	45.9422	75	29
45.8469	45.9422	79	35
45.9422	46.2414	46	46
45.9422	46.1486	70	33
45.9422	46.2414	77	40
46.0454	46.2414	74	31
46.0454	46.1486	78	36
46.097	46.2414	66	39
46.1486	46.2414	65	46
46.1486	46.2517	70	47
46.1486	46.2517	78	47
46.2517	46.3033	74	41
46.2517	46.3033	79	41
46.3536	46.6581	41	49
46.3536	46.5519	74	50
46.3536	46.6581	80	50
46.4531	46.65	77	43
46.4531	46.5519	81	43
46.5026	46.6581	67	44
46.5519	46.6581	65	50
46.5519	46.6581	74	51
46.5519	46.6581	81	51
46.65	46.6988	77	43
46.65	46.6988	82	43
46.7474	47.0679	41	52
46.7474	46.9402	72	52
46.7474	47.0679	82	52
46.8441	47.036	75	46
46.8441	46.9402	81	46
46.8922	47.0679	66	44
46.9402	47.0679	65	50
46.9402	47.0679	72	51
46.9402	47.0679	81	51
47.036	47.0839	75	43
47.036	47.0839	80	43
47.1318	47.4345	45	50
47.1318	47.3235	72	48
47.1318	47.4345	80	48
47.2277	47.4292	75	42
47.2277	47.3235	79	42
47.2756	47.4345	67	41
47.3235	47.4345	65	46
47.3235	47.4345	72	47
47.3235	47.4345	79	47
47.4292	47.482	75	40
47.4292	47.482	78	40
47.5349	47.8205	46	50
47.5349	47.7353	74	33
47.5349	47.7353	77	40
47.6351	47.8205	70	31
47.6351	47.8205	78	36
47.6852	47.8205	67	46
47.7353	47.8205	65	50
47.7353	47.8356	74	33
47.7353	47.8356	77	40
47.8356	47.9432	81	39
47.9432	48.2046	56	56
47.9432	48.1299	74	33
47.9432	48.1299	82	40
48.0366	48.2046	77	31
48.0366	48.2046	83	36
48.0832	48.2046	71	49
48.1299	48.2046	70	56
48.1299	48.2233	74	33
48.1299	48.2233	82	40
48.2233	48.3166	77	29
48.2233	48.3166	84	35
48.3166	48.5817	55	57
48.3166	48.5118	75	33
48.3166	48.5118	82	40
48.4142	48.5817	78	31
48.4142	48.5817	83	36
48.463	48.5817	72	50
48.5118	48.5817	70	57
48.5118	48.6094	75	33
48.5118	48.6094	82	40
48.6094	48.707	78	29
48.6094	48.707	84	35
48.707	48.9467	50	57
48.707	48.8902	77	33
48.707	48.8902	82	40
48.7986	48.9467	80	31
48.7986	48.9467	83	36
48.8444	48.9467	71	51
48.8902	48.9467	70	57
48.8902	48.9819	77	33
48.8902	48.9819	82	40
48.9819	49.0735	80	29
48.9819	49.0735	84	35
49.0735	49.3731	51	57
49.0735	49.2766	75	33
49.0735	49.3731	82	40
49.175	49.3731	79	31
49.175	49.2766	83	36
49.2258	49.3731	71	51
49.2766	49.3731	70	57
49.2766	49.3782	75	47
49.2766	49.3782	83	47
49.3782	49.4285	79	41
49.3782	49.4285	84	41
49.4767	49.77	46	59
49.4767	49.6678	79	50
49.4767	49.77	85	50
49.5727	49.7622	82	43
49.5727	49.6678	86	43
49.6203	49.77	72	52
49.6678	49.77	70	59
49.6678	49.77	79	51
49.6678	49.77	86	51
49.7622	49.8091	82	43
49.7622	49.8091	87	43
49.8559	50.145	46	59
49.8559	50.0411	77	52
49.8559	50.145	87	52
49.9489	50.1328	80	46
49.9489	50.0411	86	46
49.9951	50.145	71	52
50.0411	50.145	70	59
50.0411	50.145	77	51
50.0411	50.145	86	51
50.1328	50.1786	80	43
50.1328	50.1786	85	43
50.2244	50.5321	50	59
50.2244	50.4076	77	48
50.2244	50.5321	85	48
50.316	50.5085	80	42
50.316	50.4076	84	42
50.3618	50.5321	72	50
50.4076	50.5321	70	58
50.4076	50.5321	77	47
50.4076	50.5321	84	47
50.5085	50.559	80	40
50.5085	50.559	83	40
50.6094	50.8382	51	57
50.6094	50.7949	79	33
50.6094	50.7949	82	40
50.7022	50.8382	75	31
50.7022	50.8382	83	36
50.7486	50.8382	71	51
50.7949	50.8413	70	57
50.7949	50.8877	79	33
50.7949	50.8877	82	40
50.8877	50.9805	75	29
50.8877	50.9805	84	35
50.9805	51.2373	56	51
50.9805	51.1695	74	33
50.9805	51.1695	82	40
51.075	51.2373	77	31
51.075	51.2373	83	36
51.1223	51.2373	72	44
51.1695	51.2373	70	51
51.1695	51.264	74	33
51.1695	51.264	82	40
51.264	51.3586	77	29
51.264	51.3586	84	35
51.3586	51.6254	55	50
51.3586	51.555	75	33
51.3586	51.555	82	40
51.4568	51.6254	78	31
51.4568	51.6254	83	36
51.5059	51.6254	71	43
51.555	51.6254	70	50
51.555	51.6533	75	33
51.555	51.6533	82	40
51.6533	51.7515	78	29
51.6533	51.7515	84	35
51.7515	52.0298	50	50
51.7515	51.937	77	33
51.7515	51.937	82	40
51.8443	52.0298	80	31
51.8443	52.0298	83	36
51.8906	52.0298	72	44
51.937	52.0298	70	50
51.937	52.0298	77	33
51.937	52.0298	82	40
52.0298	52.1226	80	29
52.0298	52.1226	84	35
52.1226	52.4	51	50
52.1226	52.3243	75	33
52.1226	52.4	82	40
52.2234	52.4	79	31
52.2234	52.3243	83	36
52.2739	52.4	71	46
52.3243	52.4	70	50
52.3243	52.4248	75	47
52.3243	52.4248	83	47
52.4248	52.473	79	41
52.4248	52.473	84	41
52.5211	52.806	46	55
52.5211	52.7117	79	50
52.5211	52.806	85	50
52.6168	52.806	82	43
52.6168	52.7117	86	43
52.6643	52.806	72	48
52.7117	52.806	70	55
52.7117	52.806	79	51
52.7117	52.806	86	51
52.806	52.8529	82	43
52.806	52.8529	87	43
52.8996	53.1841	46	55
52.8996	53.0861	77	52
52.8996	53.1841	87	52
52.9928	53.1795	80	46
52.9928	53.0861	86	46
53.0395	53.1841	71	49
53.0861	53.1841	70	55
53.0861	53.1841	77	51
53.0861	53.1841	86	51
53.1795	53.2261	80	43
53.1795	53.2261	85	43
53.2728	53.5705	50	50
53.2728	53.4595	77	48
53.2728	53.5705	85	48
53.3662	53.5652	80	42
53.3662	53.4595	84	42
53.4128	53.5705	72	44
53.4595	53.5705	70	50
53.4595	53.5705	77	47
53.4595	53.5705	84	47
53.5652	53.618	80	40
53.5652	53.618	83	40
53.6709	54.0793	51	33
53.6709	53.7666	79	33
53.6709	53.7666	82	43
53.7666	53.8623	75	31
53.7666	53.8623	84	40
53.8623	53.9581	79	33
53.8623	53.9581	82	43
53.9581	54.0793	87	39
54.0793	54.1923	35	39
54.0793	54.1923	47	47
54.0793	54.1923	80	48
54.0793	54.2758	91	60
54.1776	54.2758	86	37
54.1776	54.2758	88	46
54.2758	54.4002	53	31
54.2758	54.4002	56	31
54.2758	54.4002	62	37
54.2758	54.4002	80	40
54.2758	54.4002	91	50
54.374	54.8698	48	39
54.374	54.4723	86	37
54.374	54.4723	89	47
54.4232	54.8698	55	39
54.4723	54.8698	63	47
54.4723	54.6649	79	50
54.4723	54.6649	89	62
54.5686	54.7613	84	36
54.5686	54.8698	86	44
54.6649	54.8698	79	40
54.6649	54.8698	89	50
54.7613	54.8755	84	37
54.7613	54.8755	87	47
54.8755	54.995	38	39
54.8755	54.995	50	47
54.8755	54.995	77	58
54.8755	55.072	87	58
54.9737	55.072	83	35
54.9737	55.072	85	42
55.072	55.1718	56	32
55.072	55.1718	59	32
55.072	55.1718	65	39
55.072	55.1718	77	40
55.072	55.1718	87	50
55.1702	55.5697	51	39
55.1702	55.2684	82	44
55.1702	55.2684	86	44
55.2193	55.5697	60	39
55.2684	55.5697	67	47
55.2684	55.4715	75	48
55.2684	55.4715	86	56
55.37	55.5697	79	35
55.37	55.5697	83	42
55.4715	55.5731	75	40
55.4715	55.5731	86	49
55.5731	55.6882	79	44
55.5731	55.6882	84	44
55.6882	55.9189	40	40
55.6882	55.8859	79	44
55.6882	55.8859	84	54
55.787	55.9189	73	42
55.787	55.9189	81	42
55.8859	55.9848	46	32
55.8859	55.9848	79	36
55.8859	55.9848	84	44
55.9848	56.0837	73	40
55.9848	56.0837	82	40
56.0837	56.2617	52	39
56.0837	56.2617	73	42
56.0837	56.2814	81	50
56.1826	56.2814	70	33
56.1826	56.2814	78	39
56.2814	56.3803	58	31
56.2814	56.3803	73	35
56.2814	56.3803	81	42
56.3803	56.4792	70	31
56.3803	56.4792	79	37
56.4792	56.9007	55	20
56.4792	56.9007	61	32
56.4792	56.8869	70	40
56.4792	56.681	77	48
56.5781	56.784	67	31
56.5781	56.9007	75	36
56.681	56.9007	58	26
56.681	56.9007	73	33
56.681	56.9007	77	41
56.784	56.9007	67	29
56.784	56.9007	76	35
56.8355	57.2988	53	23
56.8869	57.3176	62	33
56.8869	57.0928	70	36
56.8869	57.3176	79	47
56.9899	57.3176	65	33
57.0928	57.3176	70	40
57.1958	57.3176	77	37
57.2988	58.1451	53	20
57.2988	57.7616	59	25
57.2988	57.5047	68	36
57.2988	57.7236	74	47
57.4017	57.7616	65	36
57.5047	57.7616	68	36
57.6076	57.7616	75	37
57.7236	58.1451	60	25
57.7236	57.8272	64	36
57.7236	57.8272	70	36
57.7236	58.1451	74	47
57.8272	58.1382	67	36
57.9309	58.1451	64	36
58.0346	58.1451	72	37
58.1382	58.3455	40	37
58.1382	58.3455	63	36
58.1382	58.5669	67	47
58.2419	58.4492	41	33
58.2419	58.5669	60	36
58.3455	58.5669	40	39
58.3455	58.5669	63	36
58.4492	58.9744	41	33
58.4492	58.5669	69	37
58.5529	58.9937	53	33
58.5529	58.7636	62	36
58.5529	58.9937	72	47
58.6582	58.9937	65	33
58.7636	58.9937	62	40
58.869	58.9937	70	37
58.9744	59.8349	41	20
58.9744	59.445	47	25
58.9744	59.1851	56	36
58.9744	59.445	67	47
59.0797	59.2905	62	36
59.1851	59.445	56	36
59.2905	59.445	62	36
59.2905	59.4064	65	37
59.4064	59.8349	48	25
59.4064	59.5118	55	36
59.4064	59.8349	65	47
59.5118	59.8279	60	36
59.6171	59.8349	55	36
59.7225	59.8349	63	37
59.8279	60.2494	42	37
59.8279	60.0386	51	36
59.8279	60.2494	60	47
59.9332	60.144	57	36
60.0386	60.2494	41	33
60.0386	60.2494	51	36
60.144	60.2494	57	36
60.144	60.2494	62	37
60.2494	60.5094	34	37
60.2494	60.5094	50	43
60.2494	60.5094	58	47
60.5094	60.603	50	35
60.5094	60.603	53	29
60.5094	60.603	58	25
60.603	60.6965	62	28
60.6965	60.79	48	40
60.6965	60.79	54	28
60.6965	60.79	58	24
60.79	60.8836	62	28
60.8836	60.9771	47	36
60.8836	60.9771	55	28
60.8836	60.9771	58	24
60.9771	61.0707	62	28
61.0707	61.1704	46	40
61.0707	61.1704	54	34
61.0707	61.1704	58	28
61.1704	61.2623	62	25
61.2623	61.3498	50	36
61.2623	61.3498	53	34
61.2623	61.3498	58	28
61.3498	61.4373	62	24
61.4373	61.634	48	40
61.4373	61.634	54	34
61.4373	61.6292	58	28
61.5333	61.634	47	35
61.5333	61.634	62	28
61.6292	61.7251	46	35
61.6292	61.7251	55	34
61.6292	61.7251	58	28
61.7251	61.7891	62	25
61.7891	61.9662	54	34
61.8051	61.9662	57	34
61.8211	61.9662	63	34
62.1113	62.5049	78	46
62.1113	62.4256	81	46
62.1113	62.5859	87	42
62.1891	62.5859	84	42
62.2676	62.5859	71	44
62.2676	62.5845	74	44
62.2676	62.5859	80	41
62.3464	62.5859	77	41
62.4256	62.5859	72	43
62.4256	62.5859	75	43
62.4256	62.5859	81	40
62.5049	62.5859	78	39
62.5845	62.9871	65	43
62.5845	62.906	68	43
62.5845	63.2322	74	39
62.6645	63.2322	71	37
62.7447	63.2322	66	42
62.7447	63.0685	69	42
62.7447	63.2322	75	37
62.8252	63.2322	72	36
62.906	63.2322	59	41
62.906	63.2322	62	41
62.906	63.2322	68	36
62.9871	63.2322	65	35
63.0685	63.2322	60	40
63.0685	63.2322	63	40
63.0685	63.2322	69	34
63.1502	63.2322	78	34
63.2322	63.4923	41	50
63.2322	63.4923	70	43
63.2322	63.4923	77	43
63.4923	63.5858	50	35
63.4923	63.5858	53	29
63.4923	63.5858	58	25
63.5858	63.6794	62	28
63.6794	63.7729	48	40
63.6794	63.7729	54	28
63.6794	63.7729	58	24
63.7729	63.8665	62	28
63.8665	63.96	47	36
63.8665	63.96	55	28
63.8665	63.96	58	24
63.96	64.0535	62	28
64.0535	64.1533	46	40
64.0535	64.1533	54	34
64.0535	64.1533	58	28
64.1533	64.2451	62	25
64.2451	64.3327	50	36
64.2451	64.3327	53	34
64.2451	64.3327	58	28
64.3327	64.4202	62	24
64.4202	64.6169	48	40
64.4202	64.6169	54	34
64.4202	64.6121	58	28
64.5161	64.6169	47	35
64.5161	64.6169	62	28
64.6121	64.708	46	35
64.6121	64.708	55	34
64.6121	64.708	58	28
64.708	64.772	62	25
64.772	64.949	54	28
64.7879	64.949	57	28
64.8039	64.949	63	34
65.0907	65.4746	78	39
65.0907	65.3974	81	46
65.0907	65.5534	87	42
65.1671	65.5534	84	42
65.2436	65.5534	71	37
65.2436	65.5521	74	44
65.2436	65.5534	80	41
65.3204	65.5534	77	41
65.3974	65.5534	72	36
65.3974	65.5534	75	43
65.3974	65.5534	81	40
65.4746	65.5534	78	39
65.5521	65.9428	65	36
65.5521	65.8642	68	43
65.5521	66.2428	74	39
65.6297	66.2428	71	37
65.7077	66.2428	66	35
65.7077	66.0216	69	42
65.7077	66.2428	75	37
65.7858	66.2428	72	36
65.8642	66.1799	59	34
65.8642	66.1799	62	41
65.8642	66.2428	68	36
65.9428	66.1799	65	35
66.0216	66.2428	60	33
66.0216	66.2428	63	40
66.0216	66.2428	69	34
66.1007	66.2428	78	34
66.1535	66.325	46	40
66.1667	66.325	56	40
66.1799	66.325	59	48
66.1799	66.325	62	41
66.1799	66.325	65	41
66.4702	66.8491	80	42
66.4702	66.773	83	50
66.4702	66.9265	89	46
66.5458	66.9265	86	46
66.6214	66.9265	73	40
66.6214	66.9252	76	48
66.6214	66.9265	82	44
66.6972	66.9265	79	44
66.773	66.9265	74	39
66.773	66.9265	77	47
66.773	66.9265	83	43
66.8491	66.9265	80	42
66.9252	67.3081	67	39
66.9252	67.2312	70	47
66.9252	67.6397	76	42
67.0015	67.6397	73	41
67.078	67.6397	68	39
67.078	67.3851	71	46
67.078	67.6397	77	41
67.1546	67.6397	74	40
67.2312	67.5768	61	37
67.2312	67.6397	64	44
67.2312	67.6397	70	40
67.3081	67.5768	67	39
67.3851	67.6397	62	36
67.3851	67.6397	65	43
67.3851	67.6397	71	37
67.4634	67.6397	80	37
67.539	67.7219	46	44
67.5768	67.7219	61	52
67.5768	67.7219	63	44
67.5768	67.7219	67	44
67.8634	68.2314	82	46
67.8634	68.1566	85	55
67.8634	68.3927	91	50
67.9358	68.3927	88	50
68.0088	68.1566	75	44
68.0088	68.3927	78	52
68.0088	68.3927	84	48
68.0824	68.3927	81	48
68.1566	68.3927	75	43
68.1566	68.3927	79	51
68.1566	68.3927	85	47
68.2314	68.3927	82	46
68.2642	68.4749	46	48
68.297	68.4749	54	48
68.3298	68.4749	60	57
68.3298	68.4749	63	48
68.3298	68.4749	69	48
68.602	68.9678	84	46
68.602	68.8941	87	55
68.602	69.0895	93	50
68.6747	69.0895	90	50
68.7476	69.0895	77	44
68.7476	69.0895	80	52
68.7476	69.0895	86	48
68.8207	69.0895	83	48
68.8941	69.0574	78	43
68.8941	69.0895	81	51
68.8941	69.0895	87	47
68.9678	69.0895	84	46
69.0574	69.1315	75	46
69.0574	69.1315	78	55
69.0574	69.1315	96	62
69.1315	69.6676	93	62
69.2059	69.6676	68	46
69.2059	69.6676	71	55
69.2059	69.6676	89	60
69.2805	69.6676	86	60
69.3554	69.5143	69	44
69.3554	69.6676	72	52
69.3554	69.6676	90	57
69.4306	69.6676	87	55
69.5143	69.6676	66	43
69.5143	69.6676	69	51
69.5143	69.6676	99	69
69.5903	69.6676	96	64
69.6663	69.9727	59	49
69.6663	69.9804	62	58
69.6663	69.9804	92	67
69.7425	69.9804	89	59
69.8189	69.9804	60	51
69.8189	69.9804	63	62
69.8189	69.9804	93	67
69.8957	69.9804	90	58
69.9727	70.3192	56	57
69.9727	70.3192	59	57
69.9727	70.3192	64	67
69.9727	70.3192	100	70
70.0499	70.2059	87	64
70.1275	70.3192	57	59
70.1275	70.3192	60	59
70.1275	70.3192	65	71
70.1275	70.3192	101	83
70.2059	70.3192	87	75
70.3192	71.0334	34	52
70.3192	71.0334	46	63
70.5091	71.0334	50	49
70.5091	71.0334	62	58
70.5091	71.0264	94	51
70.5091	70.6758	98	51
70.5924	71.0334	93	51
70.6758	71.0334	53	49
70.6758	71.0334	60	58
70.6758	71.0334	92	51
70.6758	70.8424	98	51
70.7591	71.0334	91	51
70.8424	71.0334	58	58
70.8424	71.0334	90	50
70.8424	71.0264	98	50
70.9258	71.0334	89	50
71.0264	71.7412	32	52
71.0264	71.7412	44	63
71.0264	71.1931	94	49
71.0264	71.7412	98	49
71.1098	71.7412	88	49
71.1931	71.7412	50	50
71.1931	71.7412	62	59
71.1931	71.3598	89	49
71.1931	71.7412	94	49
71.2765	71.5265	86	49
71.3598	71.7412	53	51
71.3598	71.7412	60	62
71.3598	71.7412	84	48
71.3598	71.7252	89	48
71.4431	71.7412	59	54
71.4431	71.7412	83	48
71.5265	71.7412	58	63
71.5265	71.7252	82	47
71.5265	71.7412	86	47
71.6098	71.7412	81	47
71.7252	72.4336	30	52
71.7252	72.4336	42	63
71.7252	71.8996	82	51
71.7252	72.4336	89	51
71.8124	71.9829	81	51
71.8996	72.4336	50	49
71.8996	72.4336	62	58
71.8996	72.233	82	51
71.8996	72.0663	86	51
71.9829	72.4336	81	51
72.0663	72.4336	54	49
72.0663	72.4336	60	58
72.0663	72.4336	80	51
72.0663	72.417	86	51
72.1496	72.4336	79	51
72.233	72.4336	58	58
72.233	72.4336	78	50
72.233	72.417	82	50
72.3163	72.4336	77	50
72.417	73.1157	29	52
72.417	73.1157	41	63
72.417	72.5836	82	49
72.417	73.1157	86	49
72.5003	73.1157	76	49
72.5836	73.1157	50	50
72.5836	73.1157	62	59
72.5836	72.7503	77	49
72.5836	73.1157	82	49
72.667	72.917	74	49
72.7503	73.1157	56	51
72.7503	73.1157	60	62
72.7503	73.1157	72	48
72.7503	73.1157	77	48
72.8336	73.1157	59	54
72.8336	73.1157	71	48
72.917	73.1157	58	63
72.917	73.1157	70	47
72.917	73.1157	74	47
73.0003	73.1157	68	47
73.1157	73.8271	39	59
73.1157	73.8271	51	71
73.1157	73.3056	66	44
73.1157	73.8271	70	52
73.1157	73.8271	78	59
73.3056	73.8271	54	58
73.3056	73.8271	66	65
73.3056	73.6335	87	58
73.3056	73.4695	90	58
73.3876	73.8271	86	58
73.4695	73.8271	58	55
73.4695	73.8271	65	65
73.4695	73.8271	85	57
73.4695	73.6335	90	57
73.5515	73.8271	84	58
73.6335	73.8271	63	66
73.6335	73.8271	87	56
73.6335	73.8161	90	56
73.7154	73.8271	83	57
73.8161	74.5375	37	60
73.8161	74.5375	49	72
73.8161	73.8985	82	56
73.8161	73.8985	90	56
73.8985	74.5375	81	56
73.9809	74.5375	54	57
73.9809	74.5375	66	69
73.9809	74.5375	80	56
73.9809	74.1458	87	56
74.0633	74.5375	79	57
74.1458	74.5375	58	60
74.1458	74.5375	65	73
74.1458	74.3106	78	56
74.1458	74.5084	87	56
74.2282	74.5375	64	64
74.2282	74.5375	77	56
74.3106	74.5375	63	74
74.3106	74.5084	78	55
74.3106	74.5375	82	55
74.393	74.5375	76	56
74.5084	75.1887	35	63
74.5084	75.1887	47	75
74.5084	74.5956	78	62
74.5084	74.5956	87	62
74.5956	74.6828	75	62
74.6828	75.1887	54	58
74.6828	75.1887	66	70
74.6828	75.0071	75	63
74.6828	75.1887	82	63
74.7639	75.1887	74	63
74.845	75.1887	59	59
74.845	75.1887	65	71
74.845	75.1887	73	62
74.845	75.0071	78	62
74.9261	75.1887	72	62
75.0071	75.1887	63	71
75.0071	75.182	75	60
75.0071	75.182	78	60
75.0882	75.1887	71	60
75.182	75.8796	34	65
75.182	75.8796	46	78
75.182	75.2626	75	60
75.182	75.2626	78	60
75.2626	75.6658	70	60
75.3433	75.8796	54	62
75.3433	75.6658	66	73
75.3433	75.5045	75	60
75.3433	75.8796	78	60
75.4239	75.8796	69	60
75.5045	75.8796	58	65
75.5045	75.8796	65	78
75.5045	75.8796	68	60
75.5045	75.8796	75	60
75.5852	75.8796	64	67
75.5852	75.8796	67	60
75.6658	75.7465	63	80
75.6658	75.8796	66	59
75.6658	75.8796	70	59
75.7465	75.8796	63	59
75.8796	76.2092	32	40
75.8796	75.9784	44	40
75.962	76.0444	45	32
76.0444	76.1817	45	32
76.0444	76.1817	87	35
76.0444	76.1817	95	35
76.1268	76.2092	46	33
76.1268	76.2092	83	40
76.1268	76.2092	90	40
76.2092	76.3081	47	33
76.2916	76.374	48	33
76.374	76.5114	47	34
76.374	76.5114	78	36
76.374	76.5114	87	36
76.4564	76.5388	48	34
76.4564	76.5388	75	40
76.4564	76.5388	83	40
76.5388	76.8765	37	40
76.5388	76.6401	49	40
76.6233	76.7077	50	35
76.7077	76.8202	49	36
76.7077	76.8202	71	35
76.7077	76.8202	80	35
76.7921	76.8765	51	36
76.7921	76.8765	68	40
76.7921	76.8765	77	40
76.8765	76.9899	52	37
76.971	77.1272	53	39
76.971	77.2298	83	36
77.0183	77.2298	92	43
77.0656	77.1477	52	40
77.0656	77.2298	97	51
77.1477	77.2298	53	41
77.2298	77.5595	42	40
77.2298	77.3287	54	40
77.3123	77.3947	55	32
77.3947	77.532	54	32
77.3947	77.532	85	35
77.3947	77.532	94	35
77.4771	77.5595	56	33
77.4771	77.5595	82	40
77.4771	77.5595	89	40
77.5595	77.6584	57	33
77.6419	77.7243	58	33
77.7243	77.8301	57	34
77.7243	77.8301	77	36
77.7243	77.8301	85	36
77.8067	77.8892	58	34
77.8067	77.8892	73	40
77.8067	77.8892	82	40
77.8892	78.223	47	40
77.8892	77.9893	59	40
77.9726	78.0561	60	35
78.0561	78.1743	59	36
78.0561	78.1743	70	35
78.0561	78.1743	78	35
78.1396	78.223	61	36
78.1396	78.223	66	40
78.1396	78.223	75	40
78.223	78.3365	62	37
78.3176	78.4943	63	39
78.3176	78.5764	82	36
78.3649	78.5764	90	43
78.4121	78.5285	62	40
78.4121	78.5764	95	51
78.4943	78.5764	63	41
78.5764	78.906	53	40
78.5764	78.6753	65	40
78.6588	78.7412	66	32
78.7412	78.8786	65	32
78.7412	78.8786	83	35
78.7412	78.8786	92	35
78.8236	78.906	67	33
78.8236	78.906	80	40
78.8236	78.906	87	40
78.906	79.0049	68	33
78.9885	79.0709	69	33
79.0709	79.2233	68	34
79.0709	79.2233	80	36
79.0709	79.2233	87	36
79.1533	79.2357	69	34
79.1533	79.2357	77	40
79.1533	79.2357	83	40
79.2357	79.5696	58	40
79.2357	79.3359	70	40
79.3192	79.4026	71	35
79.4026	79.514	70	36
79.4026	79.514	74	35
79.4026	79.5696	80	35
79.4861	79.5696	73	36
79.4861	79.5696	76	40
79.5696	79.7587	74	37
79.5696	79.9229	77	35
79.6641	79.9229	73	39
79.7587	79.9229	74	40
79.7587	79.9229	80	43
79.7587	79.9229	94	51
79.8408	79.9229	70	41
79.9229	80.2515	63	40
79.9229	80.0215	75	37
80.0051	80.0872	74	37
80.0872	80.2391	73	37
80.0872	80.2391	82	36
80.0872	80.2391	90	36
80.1693	80.2515	72	37
80.1693	80.2515	78	40
80.1693	80.2515	87	40
80.2515	80.35	71	37
80.3336	80.4157	70	37
80.4157	80.6074	66	37
80.4157	80.6074	75	36
80.4157	80.6074	82	36
80.4979	80.6074	63	37
80.4979	80.58	78	40
80.4979	80.6074	87	40
80.58	80.9186	59	48
80.58	80.9186	69	48
80.58	80.9186	78	51
80.58	80.9186	90	51
80.6621	80.9186	68	39
80.6621	80.9186	89	40
80.7445	80.9186	67	40
80.7445	80.9186	88	43
80.8277	80.9186	66	40
80.8277	80.9186	87	47
80.9115	81.2539	60	51
80.9115	80.9961	65	51
80.9115	81.2539	81	54
80.9115	80.9961	93	54
80.9961	81.2539	64	42
80.9961	81.2539	92	46
81.0813	81.2539	63	43
81.0813	81.2539	91	49
81.1673	81.2539	62	43
81.1673	81.2539	90	54
81.2539	81.3413	49	63
81.2539	81.3413	61	63
81.2539	81.3413	85	57
81.2539	81.3413	97	70
81.6033	81.9528	71	32
81.6033	81.9688	77	33
81.6033	81.9528	80	33
81.6033	81.9688	86	37
81.6907	81.9688	74	25
81.6907	81.9688	83	35
81.7781	81.9688	70	32
81.7781	81.9688	79	37
81.8654	81.9688	73	27
81.8654	81.9688	76	31
81.9528	82.3192	71	32
81.9528	82.3192	80	37
82.0401	82.3192	74	28
82.0401	82.3192	77	32
82.1278	82.3192	64	34
82.1278	82.3192	85	37
82.2159	82.3192	67	33
82.2159	82.3192	82	37
82.3043	82.6705	65	34
82.3043	82.6705	86	39
82.3932	82.6705	68	36
82.3932	82.6705	83	40
82.4826	82.6705	58	37
82.4826	82.6705	91	42
82.5724	82.6705	61	40
82.5724	82.6705	88	43
82.6626	82.8264	59	41
82.6626	82.8264	92	44
82.7571	82.8516	62	37
82.7571	82.8516	89	42
82.8516	83.0327	59	44
82.8516	83.0327	98	54
82.9614	83.0711	49	37
82.9614	83.0711	86	41
82.9614	83.0711	89	41
83.0711	83.237	57	44
83.0711	83.237	97	50
83.1687	83.2663	49	36
83.1687	83.2663	85	41
83.1687	83.2663	89	41
83.2663	83.4273	56	44
83.2663	83.4273	95	54
83.3639	83.4615	49	35
83.3639	83.4615	83	44
83.3639	83.4615	89	44
83.4615	83.6274	55	44
83.4615	83.6274	94	52
83.559	83.6566	49	37
83.559	83.6566	82	41
83.559	83.6566	85	41
83.6566	83.8307	54	44
83.6566	83.8307	93	51
83.7542	83.8518	49	36
83.7542	83.8518	81	44
83.7542	83.8518	84	44
83.8518	84.021	57	44
83.8518	84.021	92	54
83.9494	84.047	49	36
83.9494	84.047	80	43
83.9494	84.047	84	43
84.047	84.1788	63	44
84.047	84.1788	90	52
84.1446	84.2422	49	37
84.1446	84.2422	78	44
84.1446	84.2422	84	44
84.2422	84.3398	61	48
84.2422	84.3398	68	48
84.2422	84.4374	77	56
84.2422	84.4374	85	56
84.2422	84.4374	89	56
84.4374	84.535	37	48
84.6326	84.982	59	32
84.6326	84.998	65	32
84.6326	84.982	68	32
84.6326	84.998	74	37
84.7199	84.998	62	25
84.7199	84.998	71	35
84.8073	84.998	58	32
84.8073	84.998	67	37
84.8946	84.998	61	27
84.8946	84.998	64	31
84.982	85.3461	59	32
84.982	85.3461	68	37
85.0694	85.3461	62	28
85.0694	85.3461	65	32
85.1567	85.3461	52	34
85.1567	85.3461	73	37
85.2441	85.3461	55	33
85.2441	85.3461	70	37
85.3315	85.6936	53	34
85.3315	85.6936	74	39
85.4198	85.6936	56	36
85.4198	85.6936	71	40
85.509	85.6936	46	37
85.509	85.6936	79	42
85.5991	85.6936	49	40
85.5991	85.6936	76	43
85.6904	85.8196	47	41
85.6904	85.8196	80	44
85.7861	85.8818	50	37
85.7861	85.8818	77	42
85.8818	86.0684	47	44
85.8818	86.0684	86	54
85.9916	86.1013	37	37
85.9916	86.1013	74	41
85.9916	86.1013	77	41
86.1013	86.2672	45	44
86.1013	86.2672	85	50
86.1989	86.2965	37	36
86.1989	86.2965	73	41
86.1989	86.2965	77	41
86.2965	86.4543	44	44
86.2965	86.4543	83	54
86.3941	86.4917	37	35
86.3941	86.4917	71	44
86.3941	86.4917	77	44
86.4917	86.6543	43	44
86.4917	86.6543	82	52
86.5893	86.6869	37	37
86.5893	86.6869	70	41
86.5893	86.6869	73	41
86.6869	86.8609	42	44
86.6869	86.8609	81	51
86.7844	86.882	37	36
86.7844	86.882	69	44
86.7844	86.882	72	44
86.882	87.0561	45	44
86.882	87.0561	80	54
86.9796	87.0772	37	36
86.9796	87.0772	68	43
86.9796	87.0772	72	43
87.0772	87.2087	51	44
87.0772	87.2087	78	52
87.1747	87.3686	37	37
87.1747	87.3814	66	44
87.1747	87.3814	72	44
87.2717	87.3814	49	44
87.2717	87.3814	77	52
87.3686	87.4649	37	36
87.3686	87.4649	65	43
87.3686	87.4649	68	43
87.4649	87.6314	47	44
87.4649	87.6314	74	52
87.5612	87.6569	37	36
87.5612	87.6569	62	43
87.5612	87.6569	65	43
87.6569	87.8348	45	46
87.6569	87.8348	73	54
87.7524	87.8475	37	37
87.7524	87.8475	61	44
87.7524	87.8475	65	44
87.8475	88.0054	44	46
87.8475	88.0054	71	55
87.9424	88.0369	37	37
87.9424	88.0369	59	46
87.9424	88.0369	65	46
88.0369	88.2019	43	47
88.0369	88.2019	70	56
88.131	88.2256	37	39
88.131	88.2256	58	47
88.131	88.2256	61	47
88.2256	88.3931	42	48
88.2256	88.3931	69	57
88.3209	88.4173	37	40
88.3209	88.4173	57	47
88.3209	88.4173	60	47
88.4173	88.5961	45	49
88.4173	88.5961	68	58
88.5145	88.6126	37	40
88.5145	88.6126	56	48
88.5145	88.6126	60	48
88.6126	88.7565	51	50
88.6126	88.7565	66	58
88.7117	88.8117	37	41
88.7117	88.8117	54	49
88.7117	88.8117	60	49
88.8117	89.0135	49	56
88.8117	89.0135	56	66
88.8117	89.0135	65	66
89.0135	89.108	35	57
89.0135	89.108	47	67
89.0135	89.108	53	69
89.0135	89.108	56	69
89.0135	89.108	62	82
89.2025	89.297	36	50
89.2025	89.297	48	59
89.2025	89.297	53	64
89.2025	89.297	56	64
89.2025	89.297	61	75
89.3916	89.4861	37	50
89.3916	89.4861	49	59
89.3916	89.4861	53	64
89.3916	89.4861	56	64
89.3916	89.4861	60	75
89.5806	89.6751	38	57
89.5806	89.6751	50	67
89.5806	89.6751	53	69
89.5806	89.6751	56	69
89.5806	89.6751	59	82
89.7697	89.8705	47	64
89.7697	89.8705	53	64
89.7697	89.8705	56	64
89.7697	89.8705	62	75
89.9714	90.1546	48	67
89.9714	90.1593	53	69
89.9714	90.1593	56	69
89.9714	90.1546	61	82
90.0653	90.1593	49	63
90.0653	90.1593	60	74
90.1593	90.3471	50	63
90.1593	90.3471	59	74
90.535	90.6295	59	37
90.535	90.6295	65	37
90.535	90.6295	68	37
90.535	90.6295	74	44
90.724	90.8185	60	32
90.724	90.8185	65	34
90.724	90.8185	68	34
90.724	90.8185	73	41
90.913	91.0076	61	32
90.913	91.0076	65	34
90.913	91.0076	68	34
90.913	91.0076	72	41
91.1021	91.1966	62	37
91.1021	91.1966	65	37
91.1021	91.1966	68	37
91.1021	91.1966	71	44
91.2911	91.392	59	34
91.2911	91.392	65	34
91.2911	91.392	68	34
91.2911	91.392	74	41
91.4929	91.6807	60	37
91.4929	91.6807	65	37
91.4929	91.6807	68	37
91.4929	91.6807	73	44
91.5868	91.6807	61	34
91.5868	91.6807	72	40
91.6807	91.8686	62	34
91.6807	91.8686	71	40
92.0703	92.1649	35	57
92.0703	92.1649	47	67
92.0703	92.1649	56	69
92.0703	92.1649	62	82
92.0703	92.1649	65	69
92.2594	92.3539	36	50
92.2594	92.3539	48	59
92.2594	92.3539	56	64
92.2594	92.3539	61	75
92.2594	92.3539	65	64
92.4484	92.5429	37	50
92.4484	92.5429	49	59
92.4484	92.5429	56	64
92.4484	92.5429	60	75
92.4484	92.5429	65	64
92.6375	92.732	38	57
92.6375	92.732	50	67
92.6375	92.732	56	69
92.6375	92.732	59	82
92.6375	92.732	65	69
92.8265	92.9274	47	64
92.8265	92.9274	56	64
92.8265	92.9274	62	75
92.8265	92.9274	65	64
93.0283	93.2443	48	67
93.0283	93.2443	56	69
93.0283	93.2443	61	82
93.0283	93.2443	65	69
93.1222	93.2443	49	63
93.1222	93.2443	60	74
93.2161	93.404	50	63
93.2161	93.404	59	74
93.603	93.6976	59	37
93.603	93.6976	68	37
93.603	93.6976	74	44
93.603	93.6976	77	37
93.7921	93.8866	60	32
93.7921	93.8866	68	34
93.7921	93.8866	73	41
93.7921	93.8866	77	34
93.9811	94.0756	61	32
93.9811	94.0756	68	34
93.9811	94.0756	72	41
93.9811	94.0756	77	34
94.1702	94.2647	62	37
94.1702	94.2647	68	37
94.1702	94.2647	71	44
94.1702	94.2647	77	37
94.3592	94.4601	59	34
94.3592	94.4601	68	34
94.3592	94.4601	74	41
94.3592	94.4601	77	34
94.561	94.7614	60	37
94.561	94.7614	68	37
94.561	94.7614	73	44
94.561	94.7614	77	37
94.6549	94.7614	61	34
94.6549	94.7614	72	40
94.7488	94.9367	62	34
94.7488	94.9367	71	40
95.1319	95.2213	62	37
95.1319	95.2213	71	37
95.1319	95.2213	77	44
95.1319	95.2213	80	37
95.3108	95.4002	63	32
95.3108	95.4002	71	34
95.3108	95.4002	76	41
95.3108	95.4002	80	34
95.4897	95.5791	64	32
95.4897	95.5791	71	34
95.4897	95.5791	75	41
95.4897	95.5791	80	34
95.6686	95.758	65	37
95.6686	95.758	71	37
95.6686	95.758	74	44
95.6686	95.758	80	37
95.8475	95.9457	65	34
95.8475	95.9457	74	34
95.8475	95.9457	80	41
95.8475	95.9457	83	34
96.0439	96.2539	66	37
96.0439	96.2539	74	37
96.0439	96.2539	79	44
96.0439	96.2539	83	37
96.1339	96.2539	67	34
96.1339	96.2539	78	40
96.2239	96.4039	68	34
96.2239	96.4039	77	40
96.4039	96.5116	68	35
96.4039	96.7533	77	42
96.4039	96.5116	83	35
96.4039	96.7533	86	42
96.4913	96.5786	69	28
96.4913	96.5786	81	28
96.5786	96.666	70	28
96.5786	96.666	82	28
96.666	96.7533	71	28
96.666	96.7533	80	28
96.7533	96.8858	71	35
96.7533	97.1028	80	43
96.7533	96.8858	87	35
96.7533	97.1028	89	43
96.8407	96.9281	72	28
96.8407	96.9281	84	28
96.9281	97.0154	73	28
96.9281	97.0154	85	28
97.0154	97.1028	74	28
97.0154	97.1028	83	28
97.1028	97.2539	74	35
97.1028	97.4482	83	44
97.1028	97.2539	88	35
97.1028	97.4482	92	44
97.1891	97.2755	75	31
97.1891	97.2755	87	31
97.2755	97.3619	76	31
97.2755	97.3619	88	31
97.3619	97.4482	77	31
97.3619	97.4482	86	31
97.4482	97.5346	77	35
97.4482	97.7936	86	42
97.4482	97.5346	92	35
97.4482	97.7936	95	42
97.5346	97.6281	78	31
97.5346	97.6281	90	31
97.6209	97.7073	79	31
97.6209	97.7073	91	31
97.7073	97.7936	80	31
97.7073	97.7936	89	31
97.7936	98.1371	80	36
97.7936	98.1371	89	54
97.7936	98.1371	95	36
97.7936	98.1371	98	54
97.8795	98.2229	81	33
97.8795	98.2229	93	33
97.9654	98.3088	82	33
97.9654	98.3088	94	33
98.0512	98.3946	83	33
98.0512	98.3946	92	33
98.1371	98.4805	80	36
98.1371	98.4805	89	50
98.1371	98.4805	95	36
98.1371	98.4805	98	50
98.2229	98.4848	81	33
98.2229	98.4848	93	33
98.3088	98.4848	82	33
98.3088	98.4848	94	33
98.3946	98.4848	83	32
98.3946	98.4848	92	32
98.4805	98.8239	80	36
98.4805	98.8239	89	55
98.4805	98.8239	95	36
98.4805	98.8239	98	55
98.5664	98.9098	81	33
98.5664	98.9098	93	33
98.6522	98.9957	82	33
98.6522	98.9957	94	33
98.7381	99.0815	83	33
98.7381	99.0815	92	33
98.8239	99.1674	80	36
98.8239	99.1674	89	51
98.8239	99.1674	95	36
98.8239	99.1674	98	51
98.9098	99.1674	81	32
98.9098	99.1674	93	32
98.9957	99.1674	82	32
98.9957	99.1674	94	32
99.0815	99.1674	83	32
99.0815	99.1674	92	32
99.1674	99.3391	95	42
99.1674	99.3391	98	42
99.1674	99.3391	101	55
99.2532	99.5967	94	34
99.2532	99.5967	97	34
99.2532	100.541	100	42
99.3391	99.5108	95	34
99.3391	99.5108	98	34
99.3391	100.541	101	42
99.425	99.7684	93	34
99.425	99.7684	96	34
99.425	100.541	99	42
99.5108	99.6825	92	42
99.5108	99.6825	95	42
99.5108	99.6825	98	52
99.5967	99.9401	91	34
99.5967	99.9401	94	34
99.5967	100.541	97	42
99.6825	99.8542	92	34
99.6825	99.8542	95	34
99.6825	100.541	98	42
99.7684	100.112	90	34
99.7684	100.112	93	34
99.7684	100.541	96	42
99.8542	100.026	89	42
99.8542	100.026	92	42
99.8542	100.026	95	54
99.9401	100.284	88	35
99.9401	100.284	91	35
99.9401	100.541	94	42
100.026	100.198	89	35
100.026	100.198	92	35
100.026	100.541	95	42
100.112	100.455	87	35
100.112	100.455	90	35
100.112	100.541	93	42
100.198	100.369	86	42
100.198	100.369	89	42
100.198	100.369	92	51
100.284	100.541	85	34
100.284	100.541	88	34
100.284	100.541	91	42
100.369	100.541	86	34
100.369	100.541	89	34
100.369	100.541	92	42
100.455	100.541	84	34
100.455	100.541	87	34
100.455	100.541	90	42
100.541	100.712	83	37
100.541	100.712	86	37
100.541	100.712	89	49
100.626	100.97	82	31
100.626	100.97	85	31
100.626	101.94	88	37
100.712	100.884	83	31
100.712	100.884	86	31
100.712	101.94	89	37
100.798	101.144	81	31
100.798	101.144	84	31
100.798	101.94	87	37
100.884	101.057	80	37
100.884	101.057	83	37
100.884	101.057	86	47
100.97	101.319	79	31
100.97	101.319	82	31
100.97	101.94	85	37
101.057	101.231	80	31
101.057	101.231	83	31
101.057	101.94	86	37
101.144	101.495	78	31
101.144	101.495	81	31
101.144	101.94	84	37
101.231	101.407	77	37
101.231	101.407	80	37
101.231	101.407	83	48
101.319	101.672	76	31
101.319	101.672	79	31
101.319	101.94	82	37
101.407	101.583	77	31
101.407	101.583	80	31
101.407	101.94	83	37
101.495	101.851	75	31
101.495	101.851	78	31
101.495	101.94	81	37
101.583	101.761	74	37
101.583	101.761	77	37
101.583	101.761	80	46
101.672	101.94	73	31
101.672	101.94	76	31
101.672	101.94	79	37
101.761	101.94	74	31
101.761	101.94	77	31
101.761	101.94	80	37
101.851	101.94	72	31
101.851	101.94	75	31
101.851	101.94	78	37
101.94	102.12	74	37
101.94	102.12	77	37
101.94	102.12	80	37
102.03	102.21	73	31
102.03	102.21	76	31
102.12	102.3	74	31
102.12	102.3	77	31
102.12	102.3	80	31
102.21	102.3	73	31
102.21	102.3	76	31
102.3	102.39	74	37
102.3	102.39	77	37
102.3	102.39	80	37
102.39	102.48	73	31
102.39	102.48	76	31
102.48	102.57	74	31
102.48	102.57	77	31
102.48	102.57	80	31
102.57	102.66	73	31
102.57	102.66	76	31
102.66	102.75	74	37
102.66	102.75	77	37
102.66	102.75	80	37
102.75	102.84	73	31
102.75	102.84	76	31
102.84	102.93	74	31
102.84	102.93	77	31
102.84	102.93	80	31
102.93	103.02	73	31
102.93	103.02	76	31
103.02	103.11	74	37
103.02	103.11	77	37
103.02	103.11	80	37
103.11	103.2	73	31
103.11	103.2	76	31
103.2	103.29	74	31
103.2	103.29	77	31
103.2	103.29	80	31
103.29	103.38	73	31
103.29	103.38	76	31
103.38	105.217	74	31
103.38	103.56	77	31
103.38	105.217	80	31
103.47	103.65	78	31
103.56	103.74	77	31
103.65	103.831	78	31
103.74	103.921	77	28
103.831	104.012	78	28
103.921	104.103	77	28
104.012	104.194	78	31
104.103	104.285	77	31
104.194	104.376	78	31
104.285	104.468	77	31
104.376	104.56	78	31
104.468	104.651	77	26
104.56	104.743	78	26
104.651	104.835	77	27
104.743	104.928	78	27
104.835	105.023	77	29
104.928	105.12	78	26
105.023	105.217	77	29
105.12	105.217	78	26
105.217	105.594	62	36
105.217	105.594	67	34
105.217	105.594	70	37
105.217	105.397	76	29
105.307	105.487	78	26
105.397	105.577	68	29
105.397	105.594	71	34
105.397	105.577	76	34
105.487	105.594	78	26
105.577	105.943	61	40
105.577	105.943	68	34
105.577	105.943	72	39
105.577	105.757	76	29
105.667	105.847	78	26
105.757	105.943	69	29
105.757	105.937	73	35
105.757	105.937	76	29
105.847	105.943	78	26
105.937	106.297	56	36
105.937	106.297	70	39
105.937	106.297	73	40
105.937	106.117	76	29
106.027	106.207	78	26
106.117	106.297	71	33
106.117	106.297	74	35
106.117	106.297	76	29
106.207	106.297	78	26
106.297	106.677	57	33
106.297	106.677	64	40
106.297	106.397	73	31
106.297	106.397	76	31
106.397	106.496	78	26
106.496	106.587	76	32
106.496	106.587	85	46
106.587	106.677	73	26
106.587	106.677	78	26
106.677	107.039	52	33
106.677	107.039	57	33
106.677	107.039	64	40
106.677	106.768	76	33
106.677	106.768	83	46
106.768	106.858	73	26
106.768	106.858	78	26
106.858	106.949	76	33
106.858	106.949	81	42
106.949	107.039	73	27
106.949	107.039	78	27
107.039	107.416	52	33
107.039	107.416	59	33
107.039	107.416	64	40
107.039	107.13	74	34
107.039	107.13	81	46
107.13	107.22	71	28
107.13	107.22	76	28
107.22	107.318	74	33
107.22	107.318	80	43
107.318	107.416	71	26
107.318	107.416	76	26
107.416	107.772	56	33
107.416	107.772	64	40
107.416	107.555	74	33
107.416	107.555	79	46
107.505	107.593	71	25
107.505	107.593	78	43
107.593	107.683	74	32
107.593	107.683	77	46
107.683	107.772	71	26
107.772	108.13	57	33
107.772	108.13	64	40
107.772	107.951	73	33
107.772	108.13	76	46
107.862	108.13	69	25
107.951	108.13	73	25
108.041	108.13	78	25
108.13	108.507	62	36
108.13	108.507	67	34
108.13	108.507	70	37
108.13	108.31	76	29
108.22	108.4	78	26
108.31	108.49	68	29
108.31	108.507	71	34
108.31	108.49	76	34
108.4	108.507	78	26
108.49	108.856	61	40
108.49	108.856	68	34
108.49	108.856	72	39
108.49	108.67	76	29
108.58	108.76	78	26
108.67	108.856	69	29
108.67	108.85	73	35
108.67	108.85	76	29
108.76	108.856	78	26
108.85	109.21	56	36
108.85	109.21	70	39
108.85	109.21	73	40
108.85	109.03	76	29
108.94	109.12	78	26
109.03	109.21	71	33
109.03	109.21	74	35
109.03	109.21	76	29
109.12	109.21	78	26
109.21	109.589	57	33
109.21	109.589	64	40
109.21	109.31	73	31
109.21	109.31	76	31
109.31	109.409	78	26
109.409	109.499	76	32
109.409	109.499	85	50
109.499	109.589	73	26
109.499	109.589	78	26
109.589	109.949	52	33
109.589	109.949	57	33
109.589	109.949	64	40
109.589	109.679	76	33
109.589	109.679	83	50
109.679	109.769	73	26
109.679	109.769	78	26
109.769	109.859	76	33
109.769	109.859	81	48
109.859	109.949	73	27
109.859	109.949	78	27
109.949	110.324	52	33
109.949	110.324	59	33
109.949	110.324	64	40
109.949	110.039	74	34
109.949	110.039	81	50
110.039	110.129	71	28
110.039	110.129	76	28
110.129	110.227	74	33
110.129	110.227	80	48
110.227	110.324	71	26
110.227	110.324	76	26
110.324	110.681	56	33
110.324	110.681	64	40
110.324	110.463	74	33
110.324	110.463	79	50
110.413	110.502	71	25
110.413	110.502	78	43
110.502	110.591	74	32
110.502	110.591	77	50
110.591	110.681	71	26
110.681	111.058	57	33
110.681	111.058	64	40
110.681	110.86	73	33
110.681	111.058	76	50
110.77	111.058	69	25
110.86	111.058	73	25
110.959	111.058	80	25
111.058	111.438	67	36
111.058	111.438	72	34
111.058	111.438	75	37
111.058	111.24	81	29
111.149	111.331	82	26
111.24	111.422	73	29
111.24	111.422	76	34
111.24	111.422	81	34
111.331	111.438	82	26
111.422	111.788	65	40
111.422	111.788	73	34
111.422	111.788	76	39
111.422	111.602	81	29
111.512	111.692	82	26
111.602	111.788	74	29
111.602	111.788	77	35
111.602	111.782	81	29
111.692	111.788	82	26
111.782	112.142	61	36
111.782	112.142	75	39
111.782	112.142	78	40
111.782	111.962	81	29
111.872	112.052	82	26
111.962	112.142	76	33
111.962	112.142	79	35
111.962	112.142	81	29
112.052	112.142	82	26
112.142	112.52	62	33
112.142	112.52	69	40
112.142	112.241	77	31
112.142	112.241	81	31
112.241	112.341	82	26
112.341	112.43	81	32
112.341	112.43	89	55
112.43	112.52	77	26
112.43	112.52	82	26
112.52	112.878	57	33
112.52	112.878	62	33
112.52	112.878	69	40
112.52	112.609	81	33
112.52	112.609	88	55
112.609	112.699	77	26
112.609	112.699	82	26
112.699	112.788	81	33
112.699	112.788	86	52
112.788	112.878	77	27
112.788	112.878	82	27
112.878	113.253	57	33
112.878	113.253	64	33
112.878	113.253	69	40
112.878	112.968	79	34
112.878	112.968	86	55
112.968	113.057	76	28
112.968	113.057	81	28
113.057	113.155	79	33
113.057	113.155	85	52
113.155	113.253	76	26
113.155	113.253	81	26
113.253	113.609	61	33
113.253	113.967	69	40
113.253	113.392	79	33
113.253	113.392	84	55
113.342	113.431	76	25
113.342	113.431	83	52
113.431	113.52	79	32
113.431	113.52	82	55
113.52	113.609	76	26
113.609	113.967	62	33
113.609	113.788	77	33
113.609	113.967	81	55
113.699	113.967	74	25
113.788	113.967	77	25
113.878	113.967	82	25
113.967	114.344	67	36
113.967	114.344	72	34
113.967	114.344	75	37
113.967	114.147	81	29
114.057	114.237	82	26
114.147	114.327	73	29
114.147	114.327	76	34
114.147	114.327	81	34
114.237	114.344	82	26
114.327	114.693	65	40
114.327	114.693	73	34
114.327	114.693	76	39
114.327	114.507	81	29
114.417	114.597	82	26
114.507	114.693	74	29
114.507	114.693	77	35
114.507	114.687	81	29
114.597	114.693	82	26
114.687	115.047	61	36
114.687	115.047	75	39
114.687	115.047	78	40
114.687	114.867	81	29
114.777	114.957	82	26
114.867	115.047	76	33
114.867	115.047	79	35
114.867	115.047	81	29
114.957	115.047	82	26
115.047	115.425	62	33
115.047	115.425	69	40
115.047	115.147	77	31
115.047	115.147	81	31
115.147	115.246	82	26
115.246	115.336	81	32
115.246	115.336	89	50
115.336	115.425	77	26
115.336	115.425	82	26
115.425	115.783	57	33
115.425	115.783	62	33
115.425	115.783	69	40
115.425	115.514	81	33
115.425	115.514	88	50
115.514	115.604	77	26
115.514	115.604	82	26
115.604	115.693	81	33
115.604	115.693	86	48
115.693	115.783	77	27
115.693	115.783	82	27
115.783	116.157	57	33
115.783	116.157	64	33
115.783	116.157	69	40
115.783	115.872	79	34
115.783	115.872	86	50
115.872	115.962	76	28
115.872	115.962	81	28
115.962	116.059	79	33
115.962	116.059	85	48
116.059	116.157	76	26
116.059	116.157	81	26
116.157	116.514	61	33
116.157	116.871	69	40
116.157	116.296	79	33
116.157	116.296	84	50
116.246	116.335	76	25
116.246	116.335	83	48
116.335	116.424	79	32
116.335	116.424	82	50
116.424	116.514	76	26
116.514	116.871	62	33
116.514	116.693	77	33
116.514	116.834	81	50
116.603	116.834	74	25
116.693	116.834	77	25
116.782	116.871	86	25
116.871	117.25	45	34
116.871	117.25	60	41
116.871	117.055	77	42
116.871	117.055	89	51
116.963	117.146	84	33
116.963	117.25	86	40
117.055	117.238	77	35
117.055	117.25	89	43
117.146	117.25	84	33
117.146	117.238	87	40
117.238	117.594	46	27
117.238	117.594	62	33
117.238	117.421	77	44
117.238	117.421	87	54
117.33	117.513	82	32
117.33	117.594	85	39
117.421	117.594	77	35
117.421	117.594	87	43
117.513	117.604	82	33
117.513	117.604	86	40
117.604	117.991	48	32
117.604	117.991	63	39
117.604	117.788	75	51
117.604	117.788	86	51
117.696	117.879	81	31
117.696	117.991	83	37
117.788	117.991	75	35
117.788	117.991	86	43
117.879	117.991	81	39
117.879	117.987	84	39
117.987	118.262	50	23
117.987	118.262	65	28
117.987	118.172	74	42
117.987	118.172	84	51
118.079	118.262	77	31
118.079	118.262	81	37
118.172	118.265	74	35
118.172	118.265	84	43
118.265	118.372	77	39
118.265	118.372	82	39
118.372	118.761	51	29
118.372	118.761	66	35
118.372	118.56	72	39
118.372	118.56	83	47
118.466	118.654	78	37
118.466	118.761	80	37
118.56	118.761	72	33
118.56	118.761	83	40
118.654	118.761	78	36
118.654	118.76	81	36
118.76	119.09	52	24
118.76	119.09	68	28
118.76	118.949	71	39
118.76	118.949	81	46
118.854	119.043	76	31
118.854	119.09	79	36
118.949	119.09	71	33
118.949	119.09	81	40
119.043	119.152	76	29
119.043	119.152	80	35
119.152	119.557	54	25
119.152	119.557	63	31
119.152	119.343	69	39
119.152	119.343	80	46
119.248	119.439	75	29
119.248	119.557	77	35
119.343	119.557	60	26
119.343	119.557	69	33
119.343	119.557	80	40
119.439	119.557	75	29
119.439	119.544	78	35
119.544	119.957	56	27
119.544	119.957	64	33
119.544	119.739	68	36
119.544	119.739	78	43
119.641	119.836	71	27
119.641	119.957	75	33
119.739	119.957	59	28
119.739	119.957	68	33
119.739	119.957	78	40
119.836	119.957	71	28
119.836	119.939	76	34
119.939	120.373	57	33
119.939	120.373	66	33
119.939	120.373	72	32
119.939	120.134	76	37
120.036	120.337	74	32
120.134	120.373	60	27
120.134	120.373	69	32
120.134	120.373	76	37
120.231	120.373	75	32
120.337	120.734	59	27
120.337	120.435	68	33
120.337	120.734	74	29
120.337	120.435	78	35
120.435	120.734	75	31
120.532	120.734	62	27
120.532	120.734	71	31
120.532	120.734	78	36
120.63	120.727	76	28
120.727	121.143	60	27
120.727	121.143	66	33
120.727	121.143	69	28
120.727	120.922	76	34
120.824	121.143	74	29
120.922	121.143	76	35
121.019	121.143	75	29
121.125	121.224	62	27
121.125	121.224	68	33
121.125	121.224	71	31
121.125	121.224	78	36
121.224	121.324	74	32
121.324	121.424	78	35
121.424	121.523	77	32
121.523	121.916	68	42
121.523	121.916	71	48
121.523	121.711	76	37
121.617	121.916	78	34
121.711	121.916	62	36
121.711	121.916	76	37
121.805	121.916	90	44
121.899	122.271	69	46
121.899	122.271	73	52
121.899	122.271	88	44
121.99	122.271	78	37
122.082	122.271	61	35
122.082	122.271	76	37
122.174	122.271	66	34
122.265	122.44	64	37
122.265	122.615	68	46
122.265	122.615	74	52
122.353	122.615	66	33
122.44	122.615	59	36
122.44	122.615	64	37
122.527	122.615	78	36
122.571	122.993	57	43
122.615	122.714	73	48
122.615	122.714	76	31
122.714	122.903	73	26
122.714	122.814	78	26
122.764	122.814	63	41
122.814	122.903	64	54
122.814	122.903	76	32
122.814	122.903	85	50
122.903	122.993	73	26
122.903	122.993	78	26
122.993	123.082	49	42
122.993	123.082	76	33
122.993	123.082	83	50
123.082	123.172	73	26
123.082	123.172	78	26
123.127	123.172	66	36
123.172	123.261	64	51
123.172	123.261	76	33
123.172	123.261	81	48
123.261	123.351	73	27
123.261	123.351	78	27
123.351	123.441	40	43
123.351	123.441	74	34
123.351	123.441	81	50
123.441	123.531	71	28
123.441	123.531	76	28
123.486	123.531	63	29
123.531	123.628	64	47
123.531	123.628	74	33
123.531	123.628	80	47
123.628	123.726	71	26
123.628	123.726	76	26
123.726	123.865	44	42
123.726	123.865	74	33
123.726	123.865	79	50
123.815	123.904	71	25
123.815	123.904	78	46
123.859	123.904	66	35
123.904	123.993	64	47
123.904	123.993	74	32
123.904	123.993	77	50
123.993	124.082	71	26
124.082	124.44	45	44
124.082	124.261	73	33
124.082	124.44	76	50
124.172	124.44	69	25
124.217	124.44	63	29
124.261	124.44	64	48
124.261	124.44	73	25
124.351	124.44	78	25
124.44	124.823	68	42
124.44	124.823	71	48
124.44	124.623	76	37
124.532	124.823	78	34
124.623	124.823	62	36
124.623	124.823	76	37
124.715	124.823	90	44
124.807	125.17	69	46
124.807	125.17	73	52
124.807	125.17	88	44
124.896	125.17	78	37
124.986	125.17	61	35
124.986	125.17	76	34
125.075	125.17	66	37
125.165	125.339	64	34
125.165	125.514	68	46
125.165	125.514	74	52
125.252	125.514	66	37
125.339	125.514	59	36
125.339	125.514	64	34
125.427	125.514	78	37
125.483	125.905	57	42
125.514	125.614	73	48
125.514	125.614	76	31
125.614	125.803	73	26
125.614	125.713	78	26
125.663	125.713	63	41
125.713	125.803	64	54
125.713	125.803	76	32
125.713	125.803	85	50
125.803	125.892	73	26
125.803	125.892	78	26
125.892	125.981	49	42
125.892	125.981	76	33
125.892	125.981	83	50
125.981	126.071	73	26
125.981	126.071	78	26
126.026	126.071	66	36
126.071	126.16	64	51
126.071	126.16	76	33
126.071	126.16	81	47
126.16	126.25	73	27
126.16	126.25	78	27
126.25	126.34	40	43
126.25	126.34	74	34
126.25	126.34	81	50
126.34	126.43	71	28
126.34	126.43	76	28
126.385	126.43	63	29
126.43	126.527	64	47
126.43	126.527	74	33
126.43	126.527	80	47
126.527	126.625	71	26
126.527	126.625	76	26
126.625	126.764	44	42
126.625	126.764	74	33
126.625	126.764	79	50
126.714	126.803	71	25
126.714	126.803	78	43
126.758	126.803	66	35
126.803	126.892	64	47
126.803	126.892	74	32
126.803	126.892	77	50
126.892	126.982	71	26
126.982	127.339	45	44
126.982	127.161	73	33
126.982	127.339	76	50
127.071	127.339	69	25
127.116	127.339	63	29
127.161	127.339	64	48
127.161	127.339	73	25
127.25	127.339	80	28
127.339	127.729	73	42
127.339	127.729	76	48
127.339	127.526	81	37
127.433	127.729	82	34
127.526	127.729	67	36
127.526	127.729	81	37
127.619	127.729	94	43
127.713	128.081	74	46
127.713	128.081	77	52
127.713	128.081	93	43
127.803	128.081	82	37
127.894	128.081	65	35
127.894	128.081	81	35
127.984	128.081	70	37
128.075	128.256	69	34
128.075	128.437	73	46
128.075	128.437	79	52
128.165	128.437	70	37
128.256	128.437	64	36
128.256	128.437	69	35
128.347	128.437	82	37
128.437	128.814	62	48
128.437	128.534	77	48
128.437	128.534	81	31
128.534	128.724	77	26
128.534	128.633	82	26
128.583	128.633	68	41
128.633	128.724	69	54
128.633	128.724	81	32
128.633	128.724	89	50
128.724	128.814	77	26
128.724	128.814	82	26
128.814	128.905	53	42
128.814	128.905	81	33
128.814	128.905	88	50
128.905	128.993	77	26
128.905	128.993	82	26
128.949	128.993	70	36
128.993	129.081	69	51
128.993	129.081	81	33
128.993	129.081	86	48
129.081	129.17	77	27
129.081	129.17	82	27
129.17	129.259	45	43
129.17	129.259	79	34
129.17	129.259	86	50
129.259	129.349	76	28
129.259	129.349	81	28
129.304	129.349	68	29
129.349	129.444	69	47
129.349	129.444	79	33
129.349	129.444	85	48
129.444	129.542	76	26
129.444	129.542	81	26
129.542	129.684	49	42
129.542	129.684	79	33
129.542	129.684	84	50
129.634	129.723	76	25
129.634	129.723	83	47
129.678	129.723	70	35
129.723	129.812	69	47
129.723	129.812	79	32
129.723	129.812	82	50
129.812	129.901	76	26
129.901	130.259	50	44
129.901	130.08	77	33
129.901	130.259	81	50
129.991	130.259	74	25
130.036	130.259	68	29
130.08	130.259	69	48
130.08	130.259	77	25
130.17	130.259	82	25
130.259	130.652	73	42
130.259	130.652	76	48
130.259	130.447	81	37
130.353	130.652	82	33
130.447	130.652	67	36
130.447	130.652	81	37
130.541	130.652	94	43
130.635	131.005	74	46
130.635	131.005	77	52
130.635	131.005	93	43
130.726	131.005	82	37
130.817	131.005	65	35
130.817	131.005	81	35
130.908	131.005	70	37
130.999	131.176	69	35
130.999	131.353	73	46
130.999	131.353	79	52
131.088	131.353	70	37
131.176	131.353	64	36
131.176	131.353	69	34
131.264	131.353	82	37
131.353	131.73	62	48
131.353	131.449	77	48
131.353	131.449	81	31
131.449	131.641	77	26
131.449	131.548	82	26
131.498	131.548	68	41
131.548	131.641	69	54
131.548	131.641	81	32
131.548	131.641	89	50
131.641	131.73	77	26
131.641	131.73	82	26
131.73	131.82	53	42
131.73	131.82	81	33
131.73	131.82	88	50
131.82	131.909	77	26
131.82	131.909	82	26
131.865	131.909	70	36
131.909	131.999	69	51
131.909	131.999	81	33
131.909	131.999	86	48
131.999	132.088	77	27
131.999	132.088	82	27
132.088	132.178	45	43
132.088	132.178	79	34
132.088	132.178	86	50
132.178	132.268	76	28
132.178	132.268	81	28
132.223	132.268	68	29
132.268	132.363	69	47
132.268	132.363	79	33
132.268	132.363	85	48
132.363	132.461	76	26
132.363	132.461	81	26
132.461	132.603	49	42
132.461	132.603	79	33
132.461	132.603	84	50
132.552	132.641	76	25
132.552	132.641	83	47
132.597	132.641	70	35
132.641	132.731	69	47
132.641	132.731	79	32
132.641	132.731	82	50
132.731	132.82	76	26
132.82	133.178	50	44
132.82	132.999	77	33
132.82	133.178	81	50
132.91	133.178	74	25
132.999	133.178	77	25
133.099	133.212	86	28
133.212	133.615	29	50
133.212	133.407	41	50
133.212	133.615	77	50
133.212	133.615	89	60
133.31	133.504	42	42
133.31	133.615	81	50
133.31	133.615	84	50
133.407	133.602	41	42
133.407	133.615	75	47
133.504	133.615	42	42
133.504	133.615	87	56
133.602	134.003	41	50
133.602	133.797	53	50
133.602	134.003	73	52
133.602	134.003	85	64
133.699	133.894	54	43
133.699	134.003	77	46
133.699	134.003	82	46
133.797	133.991	53	43
133.797	134.003	74	51
133.894	134.003	54	43
133.894	134.003	86	55
133.991	134.402	53	50
133.991	134.186	65	50
133.991	134.199	68	60
133.991	134.402	80	60
134.089	134.199	66	43
134.089	134.199	72	35
134.089	134.199	75	44
134.186	134.397	65	40
134.186	134.402	69	48
134.284	134.402	66	40
134.284	134.402	81	56
134.397	134.595	65	50
134.397	134.691	72	50
134.397	134.694	84	60
134.496	134.691	67	41
134.496	134.691	74	50
134.496	134.691	77	50
134.595	134.694	65	41
134.595	134.694	70	47
134.694	134.801	82	47
134.801	135.204	29	50
134.801	134.996	41	50
134.801	135.204	77	50
134.801	135.204	89	60
134.898	135.093	42	42
134.898	135.204	81	50
134.898	135.204	84	50
134.996	135.191	41	42
134.996	135.204	75	47
135.093	135.204	42	42
135.093	135.204	87	56
135.191	135.592	41	50
135.191	135.385	53	50
135.191	135.592	73	52
135.191	135.592	85	64
135.288	135.483	54	43
135.288	135.592	77	46
135.288	135.592	82	46
135.385	135.58	53	43
135.385	135.592	74	51
135.483	135.592	54	43
135.483	135.592	86	55
135.58	135.991	53	50
135.58	135.775	65	50
135.58	135.788	68	60
135.58	135.991	80	60
135.678	135.788	66	43
135.678	135.788	72	35
135.678	135.788	75	44
135.775	135.986	65	40
135.775	135.991	69	48
135.872	135.991	66	40
135.872	135.991	81	56
135.986	136.184	65	50
135.986	136.279	72	50
135.986	136.283	84	60
136.085	136.279	67	41
136.085	136.279	74	50
136.085	136.279	77	50
136.184	136.283	65	41
136.184	136.283	70	47
136.283	136.39	82	47
136.39	136.781	34	57
136.39	136.579	46	57
136.39	136.781	82	57
136.39	136.781	94	70
136.484	136.673	47	48
136.484	136.781	86	57
136.484	136.768	89	57
136.579	136.768	46	48
136.579	136.781	80	54
136.673	136.781	47	48
136.673	136.781	92	64
136.768	137.157	46	57
136.768	136.957	58	57
136.768	137.157	77	59
136.768	137.157	89	72
136.862	137.052	59	50
136.862	137.157	82	52
136.862	137.157	87	52
136.957	137.146	58	50
136.957	137.157	79	58
137.052	137.157	59	50
137.052	137.157	90	63
137.146	137.548	58	57
137.146	137.335	70	57
137.146	137.348	73	70
137.146	137.548	85	70
137.241	137.348	71	50
137.241	137.348	77	41
137.241	137.348	80	51
137.335	137.543	70	44
137.335	137.548	74	55
137.43	137.548	71	44
137.43	137.548	86	64
137.543	137.831	70	57
137.543	137.831	77	57
137.543	137.834	89	70
137.64	137.831	78	57
137.64	137.831	82	57
137.737	137.834	75	54
137.834	137.941	87	54
137.941	138.332	34	63
137.941	138.13	46	63
137.941	138.332	82	63
137.941	138.332	94	77
138.036	138.225	47	52
138.036	138.332	86	63
138.036	138.319	89	63
138.13	138.319	46	52
138.13	138.332	80	58
138.225	138.332	47	52
138.225	138.332	92	70
138.319	138.708	46	63
138.319	138.508	58	63
138.319	138.708	77	65
138.319	138.708	89	79
138.414	138.603	59	55
138.414	138.708	82	57
138.414	138.708	87	57
138.508	138.697	58	55
138.508	138.708	78	64
138.603	138.708	59	55
138.603	138.708	90	69
138.697	139.099	58	63
138.697	138.886	70	63
138.697	138.899	73	77
138.697	139.099	85	77
138.792	138.899	71	55
138.792	138.899	77	44
138.792	138.899	80	56
138.886	139.095	70	48
138.886	139.099	74	59
138.981	139.099	71	48
138.981	139.099	86	70
139.095	139.382	70	63
139.095	139.382	77	63
139.095	139.385	89	77
139.192	139.382	78	63
139.192	139.382	82	63
139.289	139.385	75	58
139.385	139.493	87	58
139.493	139.881	34	56
139.493	139.881	46	67
139.493	139.68	85	67
139.493	139.774	97	82
139.587	139.881	90	67
139.68	139.881	42	50
139.68	139.881	54	59
139.68	139.881	85	63
139.774	139.881	97	75
139.868	140.255	35	58
139.868	140.255	47	70
139.868	140.255	88	72
139.868	140.255	100	83
139.962	140.255	90	62
140.056	140.255	42	50
140.056	140.255	54	60
140.056	140.255	87	70
140.15	140.255	99	74
140.244	140.444	37	58
140.244	140.444	49	69
140.244	140.444	81	82
140.244	140.644	93	82
140.338	140.444	88	48
140.338	140.444	90	60
140.432	140.644	42	54
140.432	140.644	54	63
140.432	140.644	82	65
140.526	140.644	94	75
140.639	140.928	39	58
140.639	140.928	51	69
140.639	140.928	85	67
140.639	140.932	97	82
140.736	140.928	87	67
140.736	140.928	90	67
140.833	140.932	42	55
140.833	140.932	54	65
140.833	140.932	83	63
140.932	141.032	95	63
141.032	141.449	40	58
141.032	141.449	52	69
141.032	141.232	91	50
141.032	141.232	96	59
141.132	141.331	85	42
141.132	141.331	94	50
141.232	141.449	46	56
141.232	141.449	55	66
141.232	141.449	91	42
141.232	141.449	96	50
141.331	141.449	85	42
141.331	141.449	94	50
141.429	141.833	49	57
141.429	141.833	58	67
141.429	141.624	88	47
141.429	141.624	93	56
141.527	141.721	82	40
141.527	141.721	91	47
141.624	141.833	52	58
141.624	141.833	61	70
141.624	141.833	88	39
141.624	141.833	93	47
141.721	141.833	82	39
141.721	141.833	91	47
141.817	142.199	55	59
141.817	142.199	64	71
141.817	142.009	85	48
141.817	142.009	90	56
141.913	142.104	79	39
141.913	142.104	88	47
142.009	142.199	58	60
142.009	142.199	67	72
142.009	142.199	85	39
142.009	142.199	90	46
142.104	142.199	79	39
142.104	142.199	88	46
142.199	142.584	61	63
142.199	142.584	70	74
142.199	142.389	79	43
142.199	142.389	87	51
142.294	142.483	76	34
142.294	142.483	85	40
142.389	142.584	64	59
142.389	142.584	73	71
142.389	142.579	79	34
142.389	142.584	87	40
142.483	142.579	76	33
142.483	142.584	85	40
142.579	142.735	76	75
142.579	142.735	79	42
142.579	142.735	84	50
142.675	142.773	73	33
142.675	142.773	81	39
142.773	142.872	64	71
142.773	142.872	79	33
142.773	142.872	84	39
142.872	142.972	73	33
142.872	142.972	82	39
142.972	143.137	73	66
142.972	143.137	76	39
142.972	143.137	81	46
143.074	143.176	70	32
143.074	143.176	78	37
143.176	143.28	61	62
143.176	143.28	76	32
143.176	143.28	81	37
143.28	143.385	70	31
143.28	143.385	79	36
143.385	143.583	70	57
143.385	143.583	73	37
143.385	143.583	77	46
143.494	143.607	67	28
143.494	143.607	75	34
143.607	143.734	58	51
143.607	143.734	73	28
143.607	143.734	77	34
143.734	143.862	67	29
143.734	143.862	76	35
143.862	144.303	62	33
143.862	144.073	70	36
143.862	144.284	74	36
143.862	144.303	79	47
143.968	144.303	65	33
144.073	144.303	70	40
144.178	144.303	77	37
144.284	145.144	53	20
144.284	144.754	59	25
144.284	144.494	68	36
144.284	144.716	74	47
144.389	144.754	65	36
144.494	144.754	68	36
144.6	144.754	75	37
144.716	145.144	60	25
144.716	144.821	64	36
144.716	144.821	70	36
144.716	145.144	74	47
144.821	145.137	67	36
144.926	145.144	64	36
145.032	145.144	72	37
145.137	145.348	40	37
145.137	145.348	63	36
145.137	145.573	67	47
145.243	145.453	41	33
145.243	145.573	60	36
145.348	145.573	40	39
145.348	145.573	63	36
145.453	145.999	41	33
145.453	145.573	69	37
145.559	145.98	53	33
145.559	145.769	70	36
145.559	145.98	74	36
145.559	145.999	79	47
145.664	145.999	65	33
145.769	145.999	70	40
145.875	145.999	77	37
145.98	146.841	53	20
145.98	146.451	59	25
145.98	146.191	68	36
145.98	146.412	74	47
146.085	146.451	65	36
146.191	146.451	68	36
146.296	146.451	75	37
146.412	146.841	60	25
146.412	146.518	64	36
146.412	146.518	70	36
146.412	146.841	74	47
146.518	146.834	67	36
146.623	146.841	64	36
146.728	146.841	72	37
146.834	147.044	40	37
146.834	147.044	63	36
146.834	147.269	67	47
146.939	147.15	41	33
146.939	147.269	60	36
147.044	147.269	40	39
147.044	147.269	63	36
147.15	147.677	41	33
147.15	147.269	69	37
147.255	147.696	53	33
147.255	147.466	62	36
147.255	147.696	72	47
147.36	147.696	65	33
147.466	147.696	62	40
147.571	147.696	70	37
147.677	148.537	41	20
147.677	148.147	47	25
147.677	147.887	56	36
147.677	148.147	67	47
147.682	148.147	50	25
147.782	147.993	62	36
147.887	148.147	56	36
147.993	148.147	62	32
147.993	148.109	65	37
148.109	148.537	48	25
148.109	148.214	55	36
148.109	148.537	65	47
148.114	148.53	51	25
148.214	148.425	60	36
148.319	148.537	55	36
148.425	148.53	60	32
148.425	148.537	63	37
148.53	148.741	42	37
148.53	148.741	51	36
148.53	148.962	60	47
148.636	148.846	41	33
148.636	148.846	57	36
148.741	148.962	42	39
148.741	148.962	51	36
148.846	148.962	41	33
148.846	148.962	57	36
148.846	148.962	62	37
148.962	149.192	34	43
148.962	149.192	50	34
148.962	149.192	58	43
149.192	149.287	50	23
149.192	149.287	53	23
149.192	149.287	58	29
149.192	149.287	62	37
149.192	149.287	65	37
149.192	149.287	74	44
149.381	149.476	50	19
149.381	149.476	53	19
149.381	149.476	58	25
149.381	149.476	62	34
149.381	149.476	65	34
149.381	149.476	72	41
149.57	149.664	50	19
149.57	149.664	53	19
149.57	149.664	58	25
149.57	149.664	62	34
149.57	149.664	65	34
149.57	149.664	71	41
149.759	149.853	50	23
149.759	149.853	53	23
149.759	149.853	58	28
149.759	149.853	62	37
149.759	149.853	65	37
149.759	149.853	70	44
149.947	150.048	50	19
149.947	150.048	53	19
149.947	150.048	58	25
149.947	150.048	62	34
149.947	150.048	65	34
149.947	150.048	74	41
150.149	150.337	50	19
150.149	150.337	53	19
150.149	150.337	58	25
150.149	150.337	62	37
150.149	150.337	65	37
150.149	150.337	72	44
150.243	150.337	71	40
150.337	150.525	70	40
150.525	150.747	32	49
150.747	150.842	53	23
150.747	150.842	58	23
150.747	150.842	62	29
150.747	150.842	65	37
150.747	150.842	70	37
150.747	150.842	77	44
150.936	151.031	53	19
150.936	151.031	58	19
150.936	151.031	62	25
150.936	151.031	65	34
150.936	151.031	70	34
150.936	151.031	76	41
151.125	151.219	53	19
151.125	151.219	58	19
151.125	151.219	62	25
151.125	151.219	65	34
151.125	151.219	70	34
151.125	151.219	75	41
151.314	151.408	53	23
151.314	151.408	58	23
151.314	151.408	62	28
151.314	151.408	65	37
151.314	151.408	70	37
151.314	151.408	74	44
151.502	151.603	53	19
151.502	151.603	58	19
151.502	151.603	62	25
151.502	151.603	65	34
151.502	151.603	70	34
151.502	151.603	77	41
151.704	151.892	53	19
151.704	151.892	58	19
151.704	151.892	62	25
151.704	151.892	65	37
151.704	151.892	70	37
151.704	151.892	76	44
151.798	151.892	75	40
151.892	152.085	74	40
152.085	152.307	30	50
152.307	152.402	54	23
152.307	152.402	61	23
152.307	152.402	64	29
152.307	152.402	70	37
152.307	152.402	73	37
152.307	152.402	82	44
152.496	152.591	54	19
152.496	152.591	61	19
152.496	152.591	64	25
152.496	152.591	70	34
152.496	152.591	73	34
152.496	152.591	80	41
152.685	152.779	54	19
152.685	152.779	61	19
152.685	152.779	64	25
152.685	152.779	70	34
152.685	152.779	73	34
152.685	152.779	79	41
152.874	152.968	54	23
152.874	152.968	61	23
152.874	152.968	64	28
152.874	152.968	70	37
152.874	152.968	73	37
152.874	152.968	78	44
153.062	153.163	54	19
153.062	153.163	61	19
153.062	153.163	64	25
153.062	153.163	70	34
153.062	153.163	73	34
153.062	153.163	82	41
153.264	153.452	54	19
153.264	153.452	61	19
153.264	153.452	64	25
153.264	153.452	70	37
153.264	153.452	73	37
153.264	153.452	80	44
153.358	153.452	79	40
153.452	153.652	78	40
153.652	153.874	29	47
153.874	153.977	57	23
153.874	153.977	63	23
153.874	153.977	66	29
153.874	153.977	69	37
153.874	153.977	72	37
153.874	153.977	78	44
154.08	154.178	57	19
154.08	154.178	63	19
154.08	154.178	65	25
154.08	154.178	69	34
154.08	154.178	72	34
154.08	154.178	77	41
154.276	154.374	57	19
154.276	154.374	63	19
154.276	154.374	65	25
154.276	154.374	69	34
154.276	154.374	72	34
154.276	154.374	76	41
154.473	154.576	57	23
154.473	154.576	63	23
154.473	154.576	65	28
154.473	154.576	69	37
154.473	154.576	72	37
154.473	154.576	75	44
154.68	154.797	60	23
154.68	154.797	63	19
154.68	154.797	65	25
154.68	154.797	69	34
154.68	154.797	72	41
154.915	155.117	63	19
154.915	155.117	65	25
154.915	155.117	69	37
154.915	155.117	72	37
154.915	155.117	79	44
155.016	155.117	78	40
155.117	155.318	77	40
155.318	155.549	34	52
155.549	155.691	58	23
155.549	155.691	62	37
155.549	155.691	65	29
155.549	155.691	74	44
155.64	155.73	66	35
155.73	155.873	53	19
155.73	155.873	62	34
155.73	155.873	65	25
155.73	155.873	72	41
155.821	155.912	67	32
155.912	156.059	58	19
155.912	156.059	62	34
155.912	156.059	65	25
155.912	156.059	71	41
156.006	156.1	66	33
156.1	156.238	53	23
156.1	156.238	62	37
156.1	156.238	65	28
156.1	156.238	70	44
156.194	156.288	67	35
156.288	156.434	58	19
156.288	156.434	62	34
156.288	156.434	65	25
156.288	156.434	74	41
156.391	156.494	66	33
156.494	156.682	53	23
156.494	156.682	62	37
156.494	156.682	65	25
156.494	156.682	72	44
156.588	156.682	71	40
156.682	156.87	70	40
156.87	157.1	32	52
157.1	157.242	62	23
157.1	157.242	65	37
157.1	157.242	70	29
157.1	157.242	77	44
157.191	157.281	71	35
157.281	157.431	56	19
157.281	157.431	65	34
157.281	157.431	70	25
157.281	157.431	76	41
157.373	157.467	72	32
157.467	157.614	62	19
157.467	157.614	65	34
157.467	157.614	70	25
157.467	157.614	75	41
157.561	157.655	71	33
157.655	157.811	56	23
157.655	157.811	65	37
157.655	157.811	70	28
157.655	157.811	74	44
157.749	157.843	72	35
157.843	158.009	62	19
157.843	158.009	65	34
157.843	158.009	70	25
157.843	158.009	77	41
157.946	158.049	71	33
158.049	158.236	56	23
158.049	158.236	65	37
158.049	158.236	70	25
158.049	158.236	76	44
158.143	158.236	75	40
158.236	158.438	74	40
158.438	158.625	30	52
158.438	158.625	42	52
158.625	158.739	54	19
158.625	158.739	61	19
158.625	158.739	64	25
158.625	158.739	70	34
158.625	158.739	73	33
158.625	158.739	82	41
158.826	159.014	58	23
158.826	159.014	61	23
158.826	159.014	64	25
158.826	159.014	70	37
158.826	159.014	73	37
158.826	159.014	80	44
158.92	159.014	79	40
159.014	159.219	78	40
159.219	159.407	35	52
159.219	159.407	47	52
159.407	159.521	59	19
159.407	159.521	66	19
159.407	159.521	69	25
159.407	159.521	75	34
159.407	159.521	78	33
159.407	159.521	87	41
159.609	159.796	63	23
159.609	159.796	66	23
159.609	159.796	69	25
159.609	159.796	75	37
159.609	159.796	78	37
159.609	159.796	85	44
159.702	159.796	84	40
159.796	159.984	83	40
159.984	160.192	29	52
159.984	160.192	41	52
160.192	160.365	53	40
160.192	160.365	84	37
160.192	160.365	87	37
160.192	160.365	93	44
160.293	160.394	52	34
160.394	160.556	54	40
160.394	160.556	84	39
160.394	160.556	87	39
160.394	160.556	92	47
160.494	160.594	53	34
160.594	160.768	55	40
160.594	160.768	84	39
160.594	160.768	87	39
160.594	160.768	91	46
160.694	160.792	54	34
160.792	160.952	56	40
160.792	160.952	84	37
160.792	160.952	87	37
160.792	160.952	90	44
160.891	160.989	55	35
160.989	161.17	57	40
160.989	161.17	81	37
160.989	161.17	84	37
160.989	161.17	89	44
161.087	161.184	56	35
161.184	161.353	58	40
161.184	161.353	81	36
161.184	161.353	84	36
161.184	161.353	88	43
161.281	161.378	57	35
161.378	161.537	59	40
161.378	161.537	81	35
161.378	161.537	84	35
161.378	161.537	87	42
161.474	161.569	58	35
161.569	161.723	60	40
161.569	161.723	78	39
161.569	161.723	81	39
161.569	161.723	86	46
161.664	161.76	59	40
161.76	161.926	61	41
161.76	161.926	78	39
161.76	161.926	81	39
161.76	161.926	85	47
161.855	161.95	60	37
161.95	162.126	62	42
161.95	162.126	78	39
161.95	162.126	81	39
161.95	162.126	84	47
162.045	162.14	61	37
162.14	162.311	63	43
162.14	162.311	75	40
162.14	162.311	78	40
162.14	162.311	83	48
162.235	162.33	62	40
162.33	162.507	64	44
162.33	162.507	75	41
162.33	162.507	78	41
162.33	162.507	82	49
162.426	162.522	63	40
162.522	162.7	65	47
162.522	162.7	72	42
162.522	162.7	75	42
162.522	162.7	81	50
162.618	162.715	64	42
162.715	162.89	66	49
162.715	162.89	72	43
162.715	162.89	75	43
162.715	162.89	80	51
162.812	162.909	65	46
162.909	163.073	67	51
162.909	163.073	72	44
162.909	163.073	75	44
162.909	163.073	79	52
163.007	163.106	66	48
163.106	163.275	68	54
163.106	163.275	72	44
163.106	163.275	75	44
163.106	163.275	78	54
163.204	163.303	67	46
163.303	163.491	69	50
163.303	163.491	72	44
163.303	163.491	75	44
163.303	163.491	77	52
163.402	163.501	68	44
163.501	163.694	70	47
163.501	163.694	75	42
163.501	163.694	79	50
163.6	163.699	69	42
163.699	163.887	72	44
163.699	163.887	75	40
163.699	163.887	77	48
163.798	163.897	69	37
163.897	164.292	68	43
163.897	164.094	75	42
163.897	164.292	78	50
163.995	164.391	71	39
164.094	164.49	69	43
164.094	164.292	75	42
164.094	164.49	77	42
164.193	164.589	72	37
164.292	164.688	68	43
164.292	164.49	75	42
164.292	164.688	78	50
164.391	164.688	71	39
164.49	164.688	69	43
164.49	164.688	75	36
164.49	164.688	77	43
164.589	164.688	72	39
164.688	165.08	68	43
164.688	164.883	75	42
164.688	165.499	78	50
164.786	165.18	71	39
164.883	165.279	69	42
164.883	165.08	75	35
164.883	165.279	77	42
164.982	165.38	72	36
165.08	165.481	68	41
165.08	165.279	75	39
165.08	165.481	79	47
165.18	165.499	71	35
165.279	165.499	69	40
165.279	165.481	75	33
165.279	165.499	77	40
165.38	165.499	72	34
165.481	165.901	68	39
165.481	165.687	75	37
165.481	165.901	79	44
165.583	166.012	71	33
165.687	166.124	69	37
165.687	165.901	75	32
165.687	166.124	77	37
165.793	166.26	72	32
165.901	166.397	68	36
165.901	166.124	75	35
165.901	166.397	79	42
166.012	166.397	71	31
166.124	166.397	69	35
166.124	166.397	75	29
166.124	166.397	77	35
166.26	166.397	72	29
166.397	166.646	70	34
166.397	166.646	74	32
166.397	166.646	77	39
166.894	167.014	62	39
166.994	167.113	63	39
167.093	167.213	62	39
167.193	167.311	64	39
167.292	168.425	50	34
167.292	168.425	56	34
167.292	168.425	59	34
167.292	167.405	65	40
167.386	167.498	66	40
167.48	167.592	65	40
167.574	167.686	67	41
167.668	167.78	68	41
167.761	167.874	69	41
167.855	167.968	68	42
167.949	168.063	70	42
168.043	168.162	71	42
168.142	168.259	72	42
168.241	168.333	62	48
168.241	168.352	71	43
168.333	168.444	73	43
168.425	168.796	53	34
168.425	168.796	56	34
168.425	168.518	61	48
168.425	168.537	74	43
168.518	168.63	75	44
168.611	168.704	60	48
168.611	168.722	74	44
168.704	168.815	76	44
168.796	169.182	50	34
168.796	169.182	55	34
168.796	168.889	59	48
168.796	168.908	77	44
168.889	169.002	78	43
168.982	169.082	62	48
168.982	169.102	77	43
169.082	169.201	79	43
169.182	169.558	53	34
169.182	169.558	55	34
169.182	169.276	61	48
169.182	169.295	80	43
169.276	169.37	60	48
169.276	169.389	81	44
169.37	169.464	59	48
169.37	169.483	80	44
169.464	169.577	83	44
169.558	169.746	50	32
169.558	169.746	54	32
169.558	169.746	57	32
169.558	169.746	62	40
169.558	169.701	86	44
169.652	169.746	87	46
169.746	169.84	86	46
169.84	169.934	89	46
169.934	170.122	90	46
170.028	171.073	91	47
170.122	171.073	90	47
170.216	171.073	92	47
170.31	170.497	93	48
170.404	171.073	94	48
170.497	171.073	93	48
170.591	170.779	97	48
170.685	170.873	98	49
170.779	170.967	97	49
170.873	171.073	98	49
170.967	171.073	97	49
171.073	171.257	48	32
171.073	171.257	55	32
171.073	171.257	63	40
171.073	171.231	96	51
171.073	171.442	99	62
171.165	171.257	95	44
171.257	171.35	96	44
171.35	171.442	94	44
171.442	171.846	93	44
171.534	171.846	91	44
171.626	171.846	92	44
171.718	171.846	90	44
171.81	171.995	41	32
171.81	171.995	48	32
171.81	171.995	51	32
171.81	171.995	57	40
171.81	171.972	89	51
171.81	172.179	101	60
171.903	171.995	88	44
171.995	172.087	89	44
172.087	172.179	87	44
172.179	172.569	86	44
172.271	172.569	85	44
172.364	172.569	84	44
172.456	172.569	83	44
172.493	172.662	46	32
172.512	172.662	53	32
172.531	172.662	62	40
172.55	172.662	82	55
172.569	172.662	101	65
172.94	173.059	38	39
173.039	173.159	39	39
173.139	173.258	38	39
173.239	173.356	40	39
173.337	173.452	41	40
173.337	174.098	53	34
173.337	174.098	56	34
173.337	174.098	59	34
173.337	174.098	62	34
173.433	173.547	42	40
173.528	173.642	41	40
173.623	173.737	43	41
173.718	173.832	44	41
173.813	173.927	45	41
173.908	174.022	44	42
174.003	174.118	46	42
174.098	174.217	47	42
174.197	174.315	48	42
174.296	174.407	47	43
174.296	174.389	77	37
174.296	174.389	80	37
174.296	174.389	86	52
174.389	174.5	49	43
174.482	174.593	50	43
174.482	174.574	77	37
174.482	174.574	80	37
174.482	174.574	85	52
174.574	174.686	51	44
174.667	174.778	50	44
174.667	174.76	77	37
174.667	174.76	80	37
174.667	174.76	84	52
174.76	174.871	52	44
174.853	174.964	53	44
174.853	175.239	74	37
174.853	175.239	80	37
174.853	174.945	83	52
174.945	175.058	54	43
175.038	175.158	53	43
175.038	175.138	86	55
175.138	175.257	55	43
175.239	175.351	56	43
175.239	175.333	74	31
175.239	175.333	77	33
175.239	175.333	85	56
175.333	175.445	57	44
175.333	175.426	84	52
175.426	175.539	56	44
175.426	175.52	83	52
175.52	175.634	59	44
175.615	175.992	50	37
175.615	175.728	62	37
175.615	175.804	78	34
175.615	175.804	86	34
175.615	175.804	93	43
175.709	175.823	63	39
175.804	175.917	62	39
175.898	176.011	65	39
175.992	176.105	66	39
176.086	176.199	67	39
176.18	176.293	66	39
176.274	176.386	68	39
176.367	176.479	69	40
176.461	176.573	70	40
176.554	176.666	69	40
176.647	176.758	73	40
176.74	176.851	74	41
176.833	176.944	73	41
176.925	177.039	74	41
177.018	177.143	73	41
177.124	177.493	60	51
177.124	177.235	72	43
177.124	177.309	79	34
177.124	177.309	87	34
177.124	177.309	96	43
177.217	177.327	71	37
177.309	177.419	72	37
177.401	177.512	70	37
177.493	177.604	69	37
177.585	177.696	67	37
177.678	177.788	68	37
177.77	177.88	66	37
177.862	178.231	53	51
177.862	177.973	65	43
177.862	178.046	87	34
177.862	178.046	93	34
177.862	178.046	101	43
177.954	178.065	64	37
178.046	178.157	65	37
178.139	178.249	63	37
178.231	178.341	62	37
178.323	178.434	61	37
178.415	178.529	60	37
178.507	178.593	59	37
178.614	178.707	46	46
178.614	178.707	58	55
178.614	178.707	86	34
178.614	178.707	94	34
178.614	178.707	101	43
178.799	178.893	50	35
178.799	178.893	53	29
178.799	178.893	58	25
178.893	178.987	62	28
178.987	179.08	48	40
178.987	179.08	54	28
178.987	179.08	58	24
179.08	179.174	62	28
179.174	179.267	47	36
179.174	179.267	55	28
179.174	179.267	58	24
179.267	179.361	62	28
179.361	179.461	46	40
179.361	179.461	54	34
179.361	179.461	58	28
179.461	179.552	62	25
179.552	179.64	50	36
179.552	179.64	53	34
179.552	179.64	58	28
179.64	179.727	62	24
179.727	179.924	48	40
179.727	179.924	54	34
179.727	179.919	58	28
179.823	179.924	47	35
179.823	179.924	62	28
179.919	180.015	46	35
179.919	180.015	55	34
179.919	180.015	58	28
180.015	180.079	62	25
180.079	180.256	54	34
180.095	180.256	57	34
180.111	180.256	63	34
180.391	180.795	78	46
180.391	180.713	81	46
180.391	180.879	87	42
180.47	180.879	84	42
180.551	180.879	71	44
180.551	180.878	74	44
180.551	180.879	80	41
180.632	180.879	77	41
180.713	180.879	72	43
180.713	180.879	75	43
180.713	180.879	81	40
180.795	180.879	78	39
180.878	181.297	65	43
180.878	181.212	68	43
180.878	181.555	74	39
180.96	181.555	71	37
181.044	181.555	66	42
181.044	181.382	69	42
181.044	181.555	75	37
181.128	181.555	72	36
181.212	181.555	59	41
181.212	181.555	62	41
181.212	181.555	68	36
181.297	181.555	65	35
181.382	181.555	60	40
181.382	181.555	63	40
181.382	181.555	69	34
181.468	181.555	78	34
181.555	181.815	41	50
181.555	181.815	70	43
181.555	181.815	77	43
181.815	181.908	50	35
181.815	181.908	53	29
181.815	181.908	58	25
181.908	182.002	62	28
182.002	182.096	48	40
182.002	182.096	54	28
182.002	182.096	58	24
182.096	182.189	62	28
182.189	182.283	47	36
182.189	182.283	55	28
182.189	182.283	58	24
182.283	182.376	62	28
182.376	182.476	46	40
182.376	182.476	54	34
182.376	182.476	58	28
182.476	182.568	62	25
182.568	182.655	50	36
182.568	182.655	53	34
182.568	182.655	58	28
182.655	182.743	62	24
182.743	182.939	48	40
182.743	182.939	54	34
182.743	182.935	58	28
182.839	182.939	47	35
182.839	182.939	62	28
182.935	183.031	46	35
182.935	183.031	55	34
182.935	183.031	58	28
183.031	183.127	62	25
183.095	183.272	54	28
183.111	183.272	57	28
183.127	183.272	63	34
183.406	183.796	78	39
183.406	183.717	81	46
183.406	183.876	87	42
183.483	183.876	84	42
183.561	183.876	71	37
183.561	183.875	74	44
183.561	183.876	80	41
183.639	183.876	77	41
183.717	183.876	72	36
183.717	183.876	75	43
183.717	183.876	81	40
183.796	183.876	78	39
183.875	184.275	65	36
183.875	184.194	68	43
183.875	184.582	74	39
183.954	184.582	71	37
184.034	184.519	66	35
184.034	184.356	69	42
184.034	184.582	75	37
184.114	184.582	72	36
184.194	184.582	59	34
184.194	184.582	62	41
184.194	184.582	68	36
184.275	184.582	65	35
184.356	184.519	60	33
184.356	184.582	63	40
184.356	184.582	69	34
184.437	184.582	78	34
184.519	184.664	51	40
184.519	184.664	57	48
184.519	184.664	60	41
184.519	184.664	66	41
184.809	185.188	81	42
184.809	185.112	84	50
184.809	185.265	90	46
184.885	185.265	87	46
184.96	185.265	74	40
184.96	185.264	77	48
184.96	185.265	83	44
185.036	185.265	80	44
185.112	185.265	75	39
185.112	185.265	78	47
185.112	185.265	84	43
185.188	185.265	81	42
185.264	185.647	68	39
185.264	185.979	70	47
185.264	185.979	77	42
185.34	185.979	74	41
185.417	185.916	69	39
185.417	185.724	72	46
185.417	185.979	78	41
185.493	185.979	75	40
185.57	185.979	62	37
185.57	185.979	65	44
185.57	185.979	71	40
185.647	185.979	68	39
185.724	185.916	63	36
185.724	185.979	66	43
185.724	185.979	72	37
185.802	185.979	81	37
185.916	186.061	46	40
185.916	186.061	54	40
185.916	186.061	60	48
185.916	186.061	63	41
185.916	186.061	69	41
186.206	186.585	84	42
186.206	186.509	87	50
186.206	186.662	93	46
186.282	186.661	90	46
186.357	186.662	77	40
186.357	186.662	80	48
186.357	186.662	86	44
186.433	186.662	83	44
186.509	186.662	78	39
186.509	186.662	81	47
186.509	186.661	87	43
186.585	186.662	84	42
186.661	187.044	87	39
186.661	186.967	90	47
186.661	187.199	96	42
186.737	187.121	93	41
186.814	187.312	80	39
186.814	187.278	83	46
186.814	187.312	89	41
186.89	187.278	86	40
186.967	187.312	81	37
186.967	187.312	84	44
186.967	187.121	90	40
187.044	187.312	87	39
187.121	187.312	90	36
187.121	187.312	93	43
187.121	187.312	99	37
187.199	187.312	96	37
187.278	187.591	83	44
187.278	187.605	86	44
187.278	187.605	92	46
187.356	187.605	89	40
187.434	187.605	84	39
187.434	187.605	87	39
187.434	187.605	93	47
187.512	187.605	90	40
187.591	187.904	80	44
187.591	187.904	83	44
187.591	187.904	100	43
187.669	187.825	87	35
187.747	188.063	81	37
187.747	188.063	84	37
187.747	188.063	101	40
187.825	187.983	87	31
187.904	188.225	80	44
187.904	188.225	83	44
187.904	188.225	100	50
187.983	188.144	87	31
188.063	188.389	81	36
188.063	188.389	84	36
188.063	188.389	101	47
188.144	188.306	87	33
188.225	188.621	80	44
188.225	188.621	83	44
188.225	188.621	100	42
188.306	188.471	87	33
188.389	188.621	81	39
188.389	188.621	84	39
188.389	188.555	101	42
188.471	188.621	87	33
188.555	189.074	82	44
188.555	188.996	86	44
188.555	189.964	101	48
188.839	188.996	90	32
188.839	189.924	98	39
188.917	189.074	89	29
188.917	189.845	94	35
188.996	189.152	86	28
188.996	189.767	90	34
189.074	189.229	82	27
189.074	189.689	89	33
189.152	189.306	78	26
189.152	189.612	86	32
189.229	189.382	77	26
189.229	189.535	82	32
189.306	189.458	74	25
189.306	189.458	78	31
189.382	189.964	70	26
189.382	189.535	77	32
189.458	189.964	74	27
189.458	189.612	78	33
189.535	189.964	77	28
189.535	189.689	82	34
189.612	189.964	78	29
189.612	189.767	86	35
189.689	189.924	82	31
189.689	189.845	89	36
189.767	189.964	86	32
189.767	189.964	90	37
189.845	189.964	89	32
189.845	189.964	94	39
189.924	190.073	82	33
189.924	190.073	98	40
190.222	190.379	78	31
190.222	191.307	86	36
190.3	190.457	77	27
190.3	191.228	82	33
190.379	190.535	74	26
190.379	191.15	78	32
190.457	190.612	70	25
190.457	191.072	77	32
190.535	190.689	66	25
190.535	190.995	74	31
190.612	190.765	65	25
190.612	190.918	70	29
190.689	190.841	62	24
190.689	190.841	66	28
190.765	191.336	58	25
190.765	190.918	65	29
190.841	191.336	62	25
190.841	190.995	66	32
190.918	191.336	65	26
190.918	191.072	70	32
190.995	191.336	66	27
190.995	191.15	74	33
191.072	191.307	70	28
191.072	191.228	77	34
191.15	191.336	74	29
191.15	191.336	78	35
191.228	191.336	77	31
191.228	191.336	82	36
191.307	191.416	70	32
191.307	191.416	86	37
191.526	191.683	66	33
191.526	192.299	74	33
191.605	191.761	65	32
191.605	192.222	70	32
191.683	191.839	62	31
191.683	192.146	66	31
191.761	191.916	58	29
191.761	192.069	65	29
191.839	191.993	54	27
191.839	191.993	62	27
191.916	194.509	53	26
191.916	192.069	58	26
191.993	194.509	54	25
191.993	192.146	62	25
192.069	194.509	58	24
192.069	192.222	65	24
192.146	194.509	62	24
192.146	192.299	66	24
192.222	194.505	65	25
192.222	192.377	70	25
192.299	194.509	66	25
192.299	192.454	74	25
192.377	194.509	70	27
192.377	192.533	77	27
192.454	194.509	74	29
192.454	192.611	78	29
192.533	194.509	77	31
192.533	192.689	82	31
192.611	194.509	78	32
192.611	192.766	86	32
192.689	193.16	82	33
192.689	192.845	89	33
192.766	193.081	86	34
192.766	192.923	90	34
192.845	193.002	89	36
192.845	193.002	94	36
192.923	193.081	90	32
192.923	193.24	98	39
193.002	193.16	89	25
193.002	193.319	94	32
193.081	193.398	86	25
193.081	193.24	90	29
193.16	193.477	82	25
193.16	193.319	89	29
193.24	193.398	90	31
193.24	193.556	98	36
193.319	193.477	89	24
193.319	193.635	94	29
193.398	193.714	86	24
193.398	193.556	90	27
193.477	193.793	82	24
193.477	193.635	89	27
193.556	193.714	90	28
193.556	193.872	98	35
193.635	193.793	89	23
193.635	193.951	94	27
193.714	194.03	86	23
193.714	193.872	90	27
193.793	194.109	82	23
193.793	193.951	89	26
193.872	194.03	90	27
193.872	194.188	98	33
193.951	194.109	89	21
193.951	194.267	94	26
194.03	194.347	86	20
194.03	194.188	90	25
194.109	194.426	82	20
194.109	194.267	89	25
194.188	194.347	90	25
194.188	194.509	98	32
194.267	194.426	89	20
194.267	194.509	94	25
194.347	194.509	86	20
194.347	194.509	90	25
194.426	194.509	82	20
194.426	194.509	89	25
194.505	194.821	65	23
194.544	194.821	70	25
194.584	194.821	77	27
194.623	194.821	86	36
194.663	194.821	94	43
194.702	194.821	101	48
195.311	195.543	46	27
195.36	195.543	53	32
195.41	195.543	62	36
