# onset,offset,note,velocity
1.087985	1.410065	70.000000	49.000000
1.410065	1.514685	70.000000	48.000000
1.410065	1.514685	39.000000	36.000000
1.514685	1.619586	58.000000	37.000000
1.514685	1.619586	55.000000	28.000000
1.619586	1.724125	67.000000	37.000000
1.619586	1.724125	46.000000	28.000000
1.724125	1.828517	75.000000	52.000000
1.724125	1.828517	39.000000	33.000000
1.828517	1.932198	63.000000	39.000000
1.828517	1.932198	55.000000	29.000000
1.932198	2.035034	70.000000	40.000000
1.932198	2.035034	46.000000	30.000000
2.035034	2.137521	79.000000	56.000000
2.035034	2.137521	39.000000	36.000000
2.137521	2.239726	67.000000	41.000000
2.137521	2.239726	58.000000	32.000000
2.239726	2.341516	75.000000	44.000000
2.239726	2.341516	46.000000	32.000000
2.341516	2.442971	82.000000	63.000000
2.341516	2.442971	39.000000	41.000000
2.442971	2.544077	70.000000	49.000000
2.442971	2.544077	63.000000	33.000000
2.544077	2.644781	79.000000	50.000000
2.544077	2.644781	55.000000	34.000000
2.644781	2.745149	87.000000	68.000000
2.644781	2.745149	46.000000	42.000000
2.745149	2.845195	75.000000	52.000000
2.745149	2.845195	67.000000	35.000000
2.845195	2.944839	82.000000	55.000000
2.845195	2.944839	58.000000	37.000000
2.944839	3.043437	91.000000	71.000000
2.944839	3.043437	51.000000	47.000000
3.043437	3.142760	79.000000	54.000000
3.043437	3.142760	70.000000	39.000000
3.142760	3.242873	82.000000	57.000000
3.142760	3.242873	58.000000	45.000000
3.242873	3.343376	89.000000	75.000000
3.242873	3.343376	51.000000	55.000000
3.343376	3.445233	74.000000	58.000000
3.343376	3.445233	71.000000	39.000000
3.445233	3.547371	80.000000	56.000000
3.445233	3.547371	59.000000	38.000000
3.547371	3.649778	87.000000	72.000000
3.547371	3.649778	51.000000	49.000000
3.649778	3.752466	75.000000	56.000000
3.649778	3.752466	72.000000	38.000000
3.752466	3.855437	80.000000	55.000000
3.752466	3.855437	60.000000	36.000000
3.855437	3.958688	84.000000	68.000000
3.855437	3.958688	51.000000	41.000000
3.958688	4.061940	72.000000	51.000000
3.958688	4.061940	68.000000	33.000000
4.061940	4.169912	80.000000	49.000000
4.061940	4.169912	62.000000	32.000000
4.169912	4.273177	84.000000	70.000000
4.169912	4.273177	51.000000	46.000000
4.273177	4.376711	72.000000	51.000000
4.273177	4.376711	67.000000	36.000000
4.376711	4.480526	79.000000	46.000000
4.376711	4.480526	63.000000	32.000000
4.480526	4.584703	82.000000	62.000000
4.480526	4.584703	58.000000	39.000000
4.584703	4.689162	70.000000	43.000000
4.584703	4.689162	67.000000	30.000000
4.689162	4.793915	75.000000	43.000000
4.689162	4.793915	63.000000	30.000000
4.793915	4.898964	79.000000	60.000000
4.793915	4.898964	51.000000	35.000000
4.898964	5.004375	67.000000	43.000000
4.898964	5.004375	63.000000	29.000000
5.004375	5.109209	70.000000	41.000000
5.004375	5.109209	55.000000	29.000000
5.109209	5.211898	75.000000	53.000000
5.109209	5.211898	41.000000	36.000000
5.211898	5.314304	63.000000	38.000000
5.211898	5.314304	60.000000	28.000000
5.314304	5.416443	69.000000	38.000000
5.314304	5.416443	53.000000	29.000000
5.416443	5.518300	74.000000	54.000000
5.416443	5.518300	48.000000	34.000000
5.518300	5.619889	62.000000	44.000000
5.518300	5.619889	60.000000	30.000000
5.619889	5.721196	69.000000	48.000000
5.619889	5.721196	53.000000	32.000000
5.721196	5.822248	75.000000	64.000000
5.721196	5.822248	41.000000	41.000000
5.822248	5.923019	63.000000	51.000000
5.822248	5.923019	60.000000	37.000000
5.923019	6.023521	69.000000	55.000000
5.923019	6.023521	53.000000	42.000000
6.023521	6.121999	79.000000	70.000000
6.023521	6.121999	46.000000	50.000000
6.121999	6.220798	67.000000	55.000000
6.121999	6.220798	63.000000	35.000000
6.220798	6.319919	70.000000	53.000000
6.220798	6.319919	53.000000	35.000000
6.319919	6.419442	77.000000	65.000000
6.319919	6.419442	50.000000	43.000000
6.419442	6.519288	65.000000	49.000000
6.419442	6.519288	62.000000	36.000000
6.519288	6.619468	70.000000	47.000000
6.519288	6.619468	53.000000	34.000000
6.619468	6.720038	74.000000	63.000000
6.619468	6.720038	46.000000	39.000000
6.720038	6.820942	62.000000	42.000000
6.720038	6.820942	58.000000	34.000000
6.820942	6.921713	65.000000	41.000000
6.820942	6.921713	53.000000	33.000000
6.921713	7.027245	75.000000	53.000000
6.921713	7.027245	41.000000	36.000000
7.027245	7.131154	63.000000	38.000000
7.027245	7.131154	60.000000	28.000000
7.131154	7.235666	69.000000	38.000000
7.131154	7.235666	53.000000	29.000000
7.235666	7.339695	74.000000	54.000000
7.235666	7.339695	48.000000	34.000000
7.339695	7.443323	62.000000	44.000000
7.339695	7.443323	59.000000	30.000000
7.443323	7.546480	69.000000	47.000000
7.443323	7.546480	53.000000	32.000000
7.546480	7.649960	75.000000	59.000000
7.546480	7.649960	41.000000	38.000000
7.649960	7.754540	63.000000	50.000000
7.649960	7.754540	60.000000	34.000000
7.754540	7.874729	69.000000	54.000000
7.754540	7.874729	53.000000	35.000000
7.874729	7.979041	79.000000	67.000000
7.874729	7.979041	46.000000	49.000000
7.979041	8.083204	67.000000	49.000000
7.979041	8.083204	63.000000	35.000000
8.083204	8.186831	72.000000	48.000000
8.083204	8.186831	56.000000	35.000000
8.186831	8.289922	77.000000	60.000000
8.186831	8.289922	53.000000	43.000000
8.289922	8.393013	65.000000	43.000000
8.289922	8.393013	62.000000	35.000000
8.393013	8.495648	68.000000	42.000000
8.393013	8.495648	53.000000	34.000000
8.495648	8.599878	72.000000	58.000000
8.495648	8.599878	46.000000	39.000000
8.599878	8.705906	60.000000	42.000000
8.599878	8.705906	56.000000	33.000000
8.705906	8.811894	65.000000	41.000000
8.705906	8.811894	50.000000	32.000000
8.811894	8.916513	70.000000	53.000000
8.811894	8.916513	39.000000	36.000000
8.916513	9.021415	58.000000	38.000000
8.916513	9.021415	55.000000	28.000000
9.021415	9.125954	67.000000	37.000000
9.021415	9.125954	46.000000	28.000000
9.125954	9.230346	75.000000	52.000000
9.125954	9.230346	39.000000	33.000000
9.230346	9.334026	63.000000	39.000000
9.230346	9.334026	55.000000	29.000000
9.334026	9.436862	70.000000	40.000000
9.334026	9.436862	46.000000	30.000000
9.436862	9.539350	79.000000	56.000000
9.436862	9.539350	39.000000	36.000000
9.539350	9.641555	67.000000	41.000000
9.539350	9.641555	58.000000	32.000000
9.641555	9.743345	75.000000	44.000000
9.641555	9.743345	46.000000	32.000000
9.743345	9.845350	82.000000	69.000000
9.743345	9.845350	39.000000	40.000000
9.845350	9.946456	70.000000	49.000000
9.845350	9.946456	63.000000	33.000000
9.946456	10.047159	79.000000	50.000000
9.946456	10.047159	55.000000	34.000000
10.047159	10.147528	87.000000	74.000000
10.047159	10.147528	46.000000	42.000000
10.147528	10.247574	75.000000	52.000000
10.147528	10.247574	67.000000	35.000000
10.247574	10.347218	82.000000	55.000000
10.247574	10.347218	58.000000	37.000000
10.347218	10.445816	91.000000	77.000000
10.347218	10.445816	51.000000	50.000000
10.445816	10.545138	79.000000	63.000000
10.445816	10.545138	70.000000	39.000000
10.545138	10.645252	82.000000	68.000000
10.545138	10.645252	58.000000	44.000000
10.645252	10.745754	89.000000	81.000000
10.645252	10.745754	51.000000	54.000000
10.745754	10.847611	74.000000	64.000000
10.745754	10.847611	71.000000	39.000000
10.847611	10.949750	80.000000	61.000000
10.847611	10.949750	59.000000	38.000000
10.949750	11.052157	87.000000	75.000000
10.949750	11.052157	51.000000	49.000000
11.052157	11.154845	75.000000	56.000000
11.052157	11.154845	72.000000	38.000000
11.154845	11.257815	80.000000	55.000000
11.154845	11.257815	60.000000	36.000000
11.257815	11.361067	84.000000	67.000000
11.257815	11.361067	51.000000	41.000000
11.361067	11.464319	72.000000	51.000000
11.361067	11.464319	68.000000	33.000000
11.464319	11.572291	80.000000	49.000000
11.464319	11.572291	62.000000	32.000000
11.572291	11.675556	84.000000	70.000000
11.572291	11.675556	51.000000	46.000000
11.675556	11.779089	72.000000	42.000000
11.675556	11.779089	67.000000	30.000000
11.779089	11.882904	79.000000	43.000000
11.779089	11.882904	63.000000	31.000000
11.882904	11.987082	82.000000	62.000000
11.882904	11.987082	58.000000	39.000000
11.987082	12.091540	70.000000	43.000000
11.987082	12.091540	67.000000	30.000000
12.091540	12.196294	75.000000	43.000000
12.091540	12.196294	63.000000	30.000000
12.196294	12.301343	79.000000	60.000000
12.196294	12.301343	51.000000	35.000000
12.301343	12.406754	67.000000	43.000000
12.301343	12.406754	63.000000	29.000000
12.406754	12.511588	75.000000	41.000000
12.406754	12.511588	55.000000	29.000000
12.511588	12.615416	78.000000	57.000000
12.511588	12.615416	47.000000	36.000000
12.615416	12.717823	66.000000	38.000000
12.615416	12.717823	63.000000	28.000000
12.717823	12.819962	75.000000	37.000000
12.717823	12.819962	57.000000	28.000000
12.819962	12.921819	77.000000	53.000000
12.819962	12.921819	51.000000	33.000000
12.921819	13.023407	65.000000	39.000000
12.921819	13.023407	63.000000	29.000000
13.023407	13.124714	75.000000	40.000000
13.023407	13.124714	57.000000	30.000000
13.124714	13.225767	78.000000	59.000000
13.124714	13.225767	47.000000	36.000000
13.225767	13.326537	66.000000	41.000000
13.225767	13.326537	63.000000	32.000000
13.326537	13.427040	75.000000	44.000000
13.326537	13.427040	57.000000	32.000000
13.427040	13.528079	79.000000	63.000000
13.427040	13.528079	46.000000	40.000000
13.528079	13.628983	67.000000	42.000000
13.528079	13.628983	62.000000	31.000000
13.628983	13.729687	74.000000	42.000000
13.628983	13.729687	55.000000	32.000000
13.729687	13.830176	81.000000	67.000000
13.729687	13.830176	45.000000	38.000000
13.830176	13.930410	69.000000	47.000000
13.830176	13.930410	62.000000	32.000000
13.930410	14.030457	74.000000	52.000000
13.930410	14.030457	54.000000	34.000000
14.030457	14.130302	82.000000	70.000000
14.030457	14.130302	43.000000	45.000000
14.130302	14.229946	70.000000	51.000000
14.130302	14.229946	62.000000	36.000000
14.229946	14.330449	74.000000	55.000000
14.229946	14.330449	55.000000	40.000000
14.330449	14.434277	84.000000	75.000000
14.330449	14.434277	41.000000	54.000000
14.434277	14.536684	72.000000	55.000000
14.434277	14.536684	70.000000	42.000000
14.536684	14.638822	77.000000	55.000000
14.536684	14.638822	63.000000	45.000000
14.638822	14.740679	86.000000	72.000000
14.638822	14.740679	53.000000	52.000000
14.740679	14.842268	74.000000	54.000000
14.740679	14.842268	70.000000	42.000000
14.842268	14.943575	77.000000	48.000000
14.842268	14.943575	63.000000	35.000000
14.943575	15.044627	81.000000	67.000000
14.943575	15.044627	60.000000	42.000000
15.044627	15.145398	69.000000	48.000000
15.044627	15.145398	65.000000	37.000000
15.145398	15.256200	77.000000	50.000000
15.145398	15.256200	63.000000	37.000000
15.256200	15.358567	84.000000	68.000000
15.256200	15.358567	46.000000	50.000000
15.358567	15.461322	72.000000	52.000000
15.358567	15.461322	63.000000	36.000000
15.461322	15.564547	77.000000	48.000000
15.461322	15.564547	53.000000	37.000000
15.564547	15.668241	82.000000	67.000000
15.564547	15.668241	46.000000	43.000000
15.668241	15.772405	70.000000	43.000000
15.668241	15.772405	62.000000	36.000000
15.772405	15.890744	77.000000	42.000000
15.772405	15.890744	53.000000	34.000000
15.890744	15.993835	77.000000	65.000000
15.890744	15.993835	46.000000	39.000000
15.993835	16.096926	65.000000	42.000000
15.993835	16.096926	61.000000	34.000000
16.096926	16.198219	70.000000	41.000000
16.096926	16.198219	53.000000	33.000000
16.198219	16.301471	77.000000	59.000000
16.198219	16.301471	44.000000	36.000000
16.301471	16.405729	65.000000	47.000000
16.301471	16.405729	59.000000	28.000000
16.405729	16.510992	71.000000	41.000000
16.405729	16.510992	53.000000	29.000000
16.510992	16.613023	75.000000	54.000000
16.510992	16.613023	49.000000	34.000000
16.613023	16.714612	63.000000	41.000000
16.613023	16.714612	59.000000	30.000000
16.714612	16.815919	70.000000	43.000000
16.714612	16.815919	53.000000	32.000000
16.815919	16.916971	77.000000	64.000000
16.815919	16.916971	37.000000	38.000000
16.916971	17.017742	61.000000	44.000000
16.916971	17.017742	59.000000	34.000000
17.017742	17.121611	68.000000	47.000000
17.017742	17.121611	53.000000	35.000000
17.121611	17.225855	80.000000	70.000000
17.121611	17.225855	42.000000	49.000000
17.225855	17.324654	61.000000	53.000000
17.225855	17.324654	58.000000	35.000000
17.324654	17.423775	70.000000	52.000000
17.324654	17.423775	54.000000	35.000000
17.423775	17.523299	78.000000	67.000000
17.423775	17.523299	49.000000	43.000000
17.523299	17.623144	61.000000	43.000000
17.523299	17.623144	58.000000	36.000000
17.623144	17.723325	70.000000	42.000000
17.623144	17.723325	54.000000	34.000000
17.723325	17.823894	73.000000	62.000000
17.723325	17.823894	42.000000	39.000000
17.823894	17.924799	61.000000	42.000000
17.823894	17.924799	58.000000	34.000000
17.924799	18.025569	70.000000	41.000000
17.924799	18.025569	49.000000	33.000000
18.025569	18.128821	77.000000	53.000000
18.025569	18.128821	37.000000	36.000000
18.128821	18.231228	61.000000	38.000000
18.128821	18.231228	59.000000	28.000000
18.231228	18.333367	71.000000	38.000000
18.231228	18.333367	53.000000	29.000000
18.333367	18.435223	75.000000	54.000000
18.333367	18.435223	44.000000	34.000000
18.435223	18.536812	61.000000	41.000000
18.435223	18.536812	59.000000	30.000000
18.536812	18.638119	70.000000	43.000000
18.536812	18.638119	53.000000	32.000000
18.638119	18.739172	77.000000	59.000000
18.638119	18.739172	37.000000	38.000000
18.739172	18.839942	61.000000	49.000000
18.739172	18.839942	59.000000	34.000000
18.839942	18.940445	68.000000	47.000000
18.839942	18.940445	53.000000	35.000000
18.940445	19.038922	80.000000	69.000000
18.940445	19.038922	42.000000	50.000000
19.038922	19.137721	61.000000	51.000000
19.038922	19.137721	58.000000	35.000000
19.137721	19.236842	70.000000	50.000000
19.137721	19.236842	54.000000	35.000000
19.236842	19.336352	78.000000	67.000000
19.236842	19.336352	49.000000	43.000000
19.336352	19.436198	61.000000	43.000000
19.336352	19.436198	58.000000	36.000000
19.436198	19.536378	70.000000	42.000000
19.436198	19.536378	54.000000	34.000000
19.536378	19.636934	73.000000	62.000000
19.536378	19.636934	42.000000	39.000000
19.636934	19.737839	61.000000	42.000000
19.636934	19.737839	58.000000	34.000000
19.737839	19.838610	70.000000	41.000000
19.737839	19.838610	49.000000	33.000000
19.838610	19.954884	76.000000	58.000000
19.838610	19.954884	42.000000	36.000000
19.954884	20.057290	64.000000	38.000000
19.954884	20.057290	58.000000	28.000000
20.057290	20.159429	70.000000	38.000000
20.057290	20.159429	49.000000	29.000000
20.159429	20.261286	82.000000	63.000000
20.159429	20.261286	42.000000	38.000000
20.261286	20.362875	64.000000	44.000000
20.261286	20.362875	61.000000	30.000000
20.362875	20.464182	73.000000	45.000000
20.362875	20.464182	54.000000	32.000000
20.464182	20.565234	85.000000	68.000000
20.464182	20.565234	42.000000	42.000000
20.565234	20.666005	70.000000	48.000000
20.565234	20.666005	64.000000	34.000000
20.666005	20.766507	76.000000	51.000000
20.666005	20.766507	58.000000	36.000000
20.766507	20.867546	86.000000	76.000000
20.766507	20.867546	41.000000	49.000000
20.867546	20.968451	70.000000	53.000000
20.867546	20.968451	65.000000	36.000000
20.968451	21.069154	77.000000	52.000000
20.968451	21.069154	58.000000	35.000000
21.069154	21.169643	87.000000	72.000000
21.069154	21.169643	53.000000	38.000000
21.169643	21.269878	70.000000	43.000000
21.169643	21.269878	67.000000	32.000000
21.269878	21.369924	79.000000	43.000000
21.269878	21.369924	58.000000	32.000000
21.369924	21.470038	83.000000	66.000000
21.369924	21.470038	53.000000	39.000000
21.470038	21.571425	68.000000	53.000000
21.470038	21.571425	65.000000	33.000000
21.571425	21.674047	74.000000	54.000000
21.571425	21.674047	59.000000	33.000000
21.674047	21.780718	84.000000	71.000000
21.674047	21.780718	53.000000	48.000000
21.780718	21.885083	69.000000	55.000000
21.780718	21.885083	65.000000	35.000000
21.885083	21.988978	75.000000	52.000000
21.885083	21.988978	60.000000	37.000000
21.988978	22.092337	86.000000	70.000000
21.988978	22.092337	53.000000	45.000000
22.092337	22.197011	69.000000	51.000000
22.092337	22.197011	65.000000	38.000000
22.197011	22.302435	77.000000	47.000000
22.197011	22.302435	63.000000	30.000000
22.302435	22.406330	81.000000	62.000000
22.302435	22.406330	53.000000	37.000000
22.406330	22.510226	69.000000	42.000000
22.406330	22.510226	63.000000	32.000000
22.510226	22.614121	72.000000	43.000000
22.510226	22.614121	57.000000	31.000000
22.614121	22.715898	84.000000	70.000000
22.614121	22.715898	46.000000	50.000000
22.715898	22.817674	65.000000	48.000000
22.715898	22.817674	63.000000	36.000000
22.817674	22.919451	75.000000	47.000000
22.817674	22.919451	53.000000	37.000000
22.919451	23.023078	82.000000	65.000000
22.919451	23.023078	46.000000	43.000000
23.023078	23.126705	65.000000	43.000000
23.023078	23.126705	62.000000	36.000000
23.126705	23.245044	74.000000	42.000000
23.126705	23.245044	53.000000	34.000000
23.245044	23.346834	77.000000	59.000000
23.245044	23.346834	46.000000	39.000000
23.346834	23.448678	65.000000	42.000000
23.346834	23.448678	61.000000	34.000000
23.448678	23.549663	70.000000	41.000000
23.448678	23.549663	53.000000	33.000000
23.549663	23.653773	77.000000	57.000000
23.549663	23.653773	44.000000	43.000000
23.653773	23.756180	65.000000	38.000000
23.653773	23.756180	59.000000	28.000000
23.756180	23.858318	71.000000	38.000000
23.756180	23.858318	53.000000	29.000000
23.858318	23.960175	75.000000	59.000000
23.858318	23.960175	49.000000	40.000000
23.960175	24.061764	63.000000	45.000000
23.960175	24.061764	59.000000	30.000000
24.061764	24.163071	70.000000	47.000000
24.061764	24.163071	53.000000	32.000000
24.163071	24.264123	77.000000	66.000000
24.163071	24.264123	37.000000	42.000000
24.264123	24.364894	61.000000	53.000000
24.264123	24.364894	59.000000	34.000000
24.364894	24.465397	68.000000	56.000000
24.364894	24.465397	53.000000	35.000000
24.465397	24.563874	80.000000	71.000000
24.465397	24.563874	42.000000	47.000000
24.563874	24.662673	61.000000	53.000000
24.563874	24.662673	58.000000	35.000000
24.662673	24.761794	70.000000	52.000000
24.662673	24.761794	54.000000	35.000000
24.761794	24.861304	78.000000	66.000000
24.761794	24.861304	49.000000	43.000000
24.861304	24.961150	61.000000	49.000000
24.861304	24.961150	58.000000	36.000000
24.961150	25.061330	70.000000	46.000000
24.961150	25.061330	54.000000	31.000000
25.061330	25.161886	73.000000	59.000000
25.061330	25.161886	42.000000	39.000000
25.161886	25.262791	61.000000	42.000000
25.161886	25.262791	58.000000	34.000000
25.262791	25.363562	70.000000	41.000000
25.262791	25.363562	49.000000	33.000000
25.363562	25.467672	77.000000	56.000000
25.363562	25.467672	37.000000	36.000000
25.467672	25.570078	61.000000	38.000000
25.467672	25.570078	59.000000	28.000000
25.570078	25.672217	71.000000	38.000000
25.570078	25.672217	53.000000	29.000000
25.672217	25.774074	75.000000	56.000000
25.672217	25.774074	44.000000	34.000000
25.774074	25.875663	61.000000	43.000000
25.774074	25.875663	59.000000	30.000000
25.875663	25.976970	70.000000	47.000000
25.875663	25.976970	53.000000	32.000000
25.976970	26.078022	77.000000	66.000000
25.976970	26.078022	37.000000	38.000000
26.078022	26.178793	61.000000	49.000000
26.078022	26.178793	59.000000	35.000000
26.178793	26.279295	68.000000	54.000000
26.178793	26.279295	53.000000	38.000000
26.279295	26.377773	80.000000	72.000000
26.279295	26.377773	42.000000	47.000000
26.377773	26.476572	61.000000	53.000000
26.377773	26.476572	58.000000	35.000000
26.476572	26.575693	70.000000	52.000000
26.476572	26.575693	54.000000	35.000000
26.575693	26.675203	78.000000	68.000000
26.575693	26.675203	49.000000	43.000000
26.675203	26.775048	61.000000	43.000000
26.675203	26.775048	58.000000	36.000000
26.775048	26.875229	70.000000	42.000000
26.775048	26.875229	54.000000	34.000000
26.875229	26.975798	77.000000	63.000000
26.875229	26.975798	42.000000	39.000000
26.975798	27.076703	61.000000	42.000000
26.975798	27.076703	58.000000	34.000000
27.076703	27.177474	70.000000	41.000000
27.076703	27.177474	49.000000	33.000000
27.177474	27.281302	76.000000	60.000000
27.177474	27.281302	43.000000	40.000000
27.281302	27.383709	61.000000	43.000000
27.281302	27.383709	58.000000	31.000000
27.383709	27.485244	70.000000	43.000000
27.383709	27.485244	52.000000	32.000000
27.485244	27.584177	79.000000	67.000000
27.485244	27.584177	46.000000	43.000000
27.584177	27.683164	64.000000	44.000000
27.584177	27.683164	61.000000	35.000000
27.683164	27.782487	73.000000	46.000000
27.683164	27.782487	52.000000	34.000000
27.782487	27.882131	78.000000	63.000000
27.782487	27.882131	45.000000	39.000000
27.882131	27.982177	63.000000	46.000000
27.882131	27.982177	60.000000	35.000000
27.982177	28.081714	72.000000	49.000000
27.982177	28.081714	51.000000	36.000000
28.081714	28.178984	81.000000	72.000000
28.081714	28.178984	48.000000	48.000000
28.178984	28.276764	66.000000	47.000000
28.178984	28.276764	63.000000	39.000000
28.276764	28.375041	75.000000	46.000000
28.276764	28.375041	54.000000	40.000000
28.375041	28.473840	80.000000	71.000000
28.375041	28.473840	47.000000	44.000000
28.473840	28.573162	65.000000	48.000000
28.473840	28.573162	62.000000	36.000000
28.573162	28.672873	74.000000	49.000000
28.573162	28.672873	53.000000	40.000000
28.672873	28.769406	83.000000	77.000000
28.672873	28.769406	50.000000	55.000000
28.769406	28.866422	68.000000	51.000000
28.769406	28.866422	65.000000	43.000000
28.866422	28.963947	77.000000	53.000000
28.866422	28.963947	56.000000	43.000000
28.963947	29.061968	82.000000	74.000000
28.963947	29.061968	49.000000	54.000000
29.061968	29.160513	67.000000	58.000000
29.061968	29.160513	64.000000	41.000000
29.160513	29.259003	76.000000	63.000000
29.160513	29.259003	55.000000	46.000000
29.259003	29.355281	85.000000	88.000000
29.259003	29.355281	52.000000	60.000000
29.355281	29.452055	70.000000	66.000000
29.355281	29.452055	67.000000	48.000000
29.452055	29.549205	79.000000	68.000000
29.452055	29.549205	58.000000	48.000000
29.549205	29.646784	84.000000	84.000000
29.549205	29.646784	51.000000	58.000000
29.646784	29.744805	69.000000	68.000000
29.646784	29.744805	66.000000	44.000000
29.744805	29.843350	78.000000	66.000000
29.744805	29.843350	57.000000	49.000000
29.843350	29.940620	87.000000	94.000000
29.843350	29.940620	54.000000	69.000000
29.940620	30.038400	72.000000	69.000000
29.940620	30.038400	69.000000	49.000000
30.038400	30.136810	81.000000	70.000000
30.038400	30.136810	60.000000	50.000000
30.136810	30.235744	86.000000	88.000000
30.136810	30.235744	53.000000	62.000000
30.235744	30.335723	71.000000	63.000000
30.235744	30.335723	68.000000	51.000000
30.335723	30.437647	80.000000	64.000000
30.335723	30.437647	59.000000	51.000000
30.437647	30.597641	89.000000	104.000000
30.437647	30.597641	58.000000	67.000000
30.810407	30.915027	70.000000	48.000000
30.810407	30.915027	39.000000	36.000000
30.915027	31.019928	58.000000	37.000000
30.915027	31.019928	55.000000	28.000000
31.019928	31.124468	67.000000	37.000000
31.019928	31.124468	46.000000	28.000000
31.124468	31.228859	75.000000	52.000000
31.124468	31.228859	39.000000	33.000000
31.228859	31.332540	63.000000	39.000000
31.228859	31.332540	55.000000	29.000000
31.332540	31.435376	70.000000	40.000000
31.332540	31.435376	46.000000	30.000000
31.435376	31.537863	79.000000	56.000000
31.435376	31.537863	39.000000	36.000000
31.537863	31.640069	67.000000	41.000000
31.537863	31.640069	58.000000	32.000000
31.640069	31.741859	75.000000	44.000000
31.640069	31.741859	46.000000	32.000000
31.741859	31.843863	82.000000	66.000000
31.741859	31.843863	39.000000	42.000000
31.843863	31.944969	70.000000	49.000000
31.843863	31.944969	63.000000	33.000000
31.944969	32.045673	79.000000	50.000000
31.944969	32.045673	55.000000	34.000000
32.045673	32.146041	87.000000	74.000000
32.045673	32.146041	46.000000	42.000000
32.146041	32.246088	75.000000	52.000000
32.146041	32.246088	67.000000	35.000000
32.246088	32.345732	82.000000	55.000000
32.246088	32.345732	58.000000	37.000000
32.345732	32.444330	91.000000	73.000000
32.345732	32.444330	51.000000	47.000000
32.444330	32.543652	79.000000	60.000000
32.444330	32.543652	70.000000	39.000000
32.543652	32.643766	82.000000	65.000000
32.543652	32.643766	58.000000	41.000000
32.643766	32.744268	89.000000	79.000000
32.643766	32.744268	51.000000	54.000000
32.744268	32.846125	74.000000	58.000000
32.744268	32.846125	71.000000	39.000000
32.846125	32.948264	80.000000	52.000000
32.846125	32.948264	59.000000	36.000000
32.948264	33.050670	87.000000	76.000000
32.948264	33.050670	51.000000	49.000000
33.050670	33.153359	75.000000	56.000000
33.050670	33.153359	72.000000	38.000000
33.153359	33.256329	80.000000	51.000000
33.153359	33.256329	60.000000	33.000000
33.256329	33.359581	84.000000	70.000000
33.256329	33.359581	51.000000	41.000000
33.359581	33.462832	72.000000	51.000000
33.359581	33.462832	68.000000	33.000000
33.462832	33.570805	80.000000	49.000000
33.462832	33.570805	62.000000	32.000000
33.570805	33.674070	84.000000	70.000000
33.570805	33.674070	51.000000	46.000000
33.674070	33.777603	72.000000	42.000000
33.674070	33.777603	67.000000	30.000000
33.777603	33.881418	79.000000	43.000000
33.777603	33.881418	63.000000	31.000000
33.881418	33.985595	82.000000	62.000000
33.881418	33.985595	58.000000	39.000000
33.985595	34.090054	70.000000	43.000000
33.985595	34.090054	67.000000	30.000000
34.090054	34.194808	75.000000	43.000000
34.090054	34.194808	63.000000	30.000000
34.194808	34.299856	79.000000	60.000000
34.194808	34.299856	51.000000	35.000000
34.299856	34.405267	67.000000	43.000000
34.299856	34.405267	63.000000	29.000000
34.405267	34.510101	70.000000	41.000000
34.405267	34.510101	55.000000	29.000000
34.510101	34.612790	75.000000	53.000000
34.510101	34.612790	41.000000	36.000000
34.612790	34.715197	63.000000	38.000000
34.612790	34.715197	60.000000	28.000000
34.715197	34.817335	69.000000	38.000000
34.715197	34.817335	53.000000	29.000000
34.817335	34.919179	74.000000	54.000000
34.817335	34.919179	48.000000	34.000000
34.919179	35.020312	62.000000	41.000000
34.919179	35.020312	60.000000	30.000000
35.020312	35.120747	69.000000	43.000000
35.020312	35.120747	53.000000	32.000000
35.120747	35.220445	75.000000	64.000000
35.120747	35.220445	41.000000	45.000000
35.220445	35.319459	63.000000	51.000000
35.220445	35.319459	60.000000	34.000000
35.319459	35.417802	69.000000	57.000000
35.319459	35.417802	53.000000	40.000000
35.417802	35.516279	79.000000	71.000000
35.417802	35.516279	46.000000	50.000000
35.516279	35.615078	67.000000	51.000000
35.516279	35.615078	63.000000	35.000000
35.615078	35.714200	70.000000	51.000000
35.615078	35.714200	53.000000	35.000000
35.714200	35.813723	77.000000	67.000000
35.714200	35.813723	50.000000	43.000000
35.813723	35.913568	65.000000	43.000000
35.813723	35.913568	62.000000	36.000000
35.913568	36.013749	70.000000	42.000000
35.913568	36.013749	53.000000	34.000000
36.013749	36.114318	74.000000	63.000000
36.013749	36.114318	46.000000	39.000000
36.114318	36.215223	62.000000	42.000000
36.114318	36.215223	58.000000	34.000000
36.215223	36.315994	65.000000	41.000000
36.215223	36.315994	53.000000	33.000000
36.315994	36.422384	75.000000	53.000000
36.315994	36.422384	41.000000	36.000000
36.422384	36.526252	63.000000	38.000000
36.422384	36.526252	60.000000	28.000000
36.526252	36.630698	69.000000	38.000000
36.526252	36.630698	53.000000	29.000000
36.630698	36.734727	74.000000	54.000000
36.630698	36.734727	48.000000	34.000000
36.734727	36.838287	62.000000	41.000000
36.734727	36.838287	59.000000	30.000000
36.838287	36.941378	69.000000	43.000000
36.838287	36.941378	53.000000	32.000000
36.941378	37.044214	75.000000	65.000000
36.941378	37.044214	41.000000	38.000000
37.044214	37.149276	63.000000	51.000000
37.044214	37.149276	60.000000	36.000000
37.149276	37.263619	69.000000	58.000000
37.149276	37.263619	53.000000	35.000000
37.263619	37.366455	79.000000	71.000000
37.263619	37.366455	46.000000	51.000000
37.366455	37.469277	67.000000	54.000000
37.366455	37.469277	63.000000	35.000000
37.469277	37.572100	72.000000	51.000000
37.469277	37.572100	56.000000	35.000000
37.572100	37.676532	77.000000	60.000000
37.572100	37.676532	53.000000	43.000000
37.676532	37.780977	65.000000	43.000000
37.676532	37.780977	62.000000	35.000000
37.780977	37.905593	68.000000	42.000000
37.780977	37.905593	53.000000	34.000000
37.905593	38.008160	72.000000	58.000000
37.905593	38.008160	46.000000	39.000000
38.008160	38.110728	60.000000	42.000000
38.008160	38.110728	56.000000	33.000000
38.110728	38.211888	65.000000	41.000000
38.110728	38.211888	50.000000	32.000000
38.211888	38.316507	70.000000	53.000000
38.211888	38.316507	39.000000	36.000000
38.316507	38.421409	58.000000	38.000000
38.316507	38.421409	55.000000	28.000000
38.421409	38.525948	67.000000	37.000000
38.421409	38.525948	46.000000	28.000000
38.525948	38.630339	75.000000	51.000000
38.525948	38.630339	39.000000	33.000000
38.630339	38.734020	63.000000	38.000000
38.630339	38.734020	55.000000	28.000000
38.734020	38.836856	70.000000	40.000000
38.734020	38.836856	46.000000	29.000000
38.836856	38.939343	79.000000	54.000000
38.836856	38.939343	39.000000	35.000000
38.939343	39.041549	67.000000	40.000000
38.939343	39.041549	58.000000	31.000000
39.041549	39.143339	75.000000	43.000000
39.041549	39.143339	46.000000	31.000000
39.143339	39.245343	82.000000	65.000000
39.143339	39.245343	39.000000	39.000000
39.245343	39.346449	70.000000	47.000000
39.245343	39.346449	63.000000	31.000000
39.346449	39.447153	79.000000	47.000000
39.346449	39.447153	55.000000	32.000000
39.447153	39.547521	87.000000	70.000000
39.447153	39.547521	46.000000	40.000000
39.547521	39.647568	75.000000	49.000000
39.547521	39.647568	67.000000	33.000000
39.647568	39.747212	82.000000	51.000000
39.647568	39.747212	58.000000	35.000000
39.747212	39.845810	91.000000	73.000000
39.747212	39.845810	51.000000	44.000000
39.845810	39.945132	79.000000	51.000000
39.845810	39.945132	70.000000	37.000000
39.945132	40.044776	82.000000	53.000000
39.945132	40.044776	58.000000	38.000000
40.044776	40.143441	90.000000	81.000000
40.044776	40.143441	45.000000	55.000000
40.143441	40.242375	75.000000	57.000000
40.143441	40.242375	60.000000	36.000000
40.242375	40.341496	81.000000	59.000000
40.242375	40.341496	54.000000	36.000000
40.341496	40.440805	89.000000	77.000000
40.341496	40.440805	47.000000	49.000000
40.440805	40.540315	74.000000	57.000000
40.440805	40.540315	62.000000	37.000000
40.540315	40.640026	80.000000	58.000000
40.540315	40.640026	56.000000	36.000000
40.640026	40.739992	88.000000	76.000000
40.640026	40.739992	49.000000	47.000000
40.739992	40.840173	73.000000	52.000000
40.739992	40.840173	64.000000	34.000000
40.840173	40.940541	79.000000	51.000000
40.840173	40.940541	58.000000	33.000000
40.940541	41.042156	87.000000	84.000000
40.940541	41.042156	51.000000	54.000000
41.042156	41.142203	72.000000	53.000000
41.042156	41.142203	66.000000	38.000000
41.142203	41.242504	78.000000	53.000000
41.142203	41.242504	60.000000	35.000000
41.242504	41.343074	86.000000	75.000000
41.242504	41.343074	53.000000	46.000000
41.343074	41.443844	71.000000	52.000000
41.343074	41.443844	68.000000	34.000000
41.443844	41.544883	77.000000	48.000000
41.443844	41.544883	62.000000	34.000000
41.544883	41.646190	85.000000	70.000000
41.544883	41.646190	55.000000	42.000000
41.646190	41.747779	73.000000	52.000000
41.646190	41.747779	70.000000	35.000000
41.747779	41.849851	79.000000	51.000000
41.747779	41.849851	64.000000	35.000000
41.849851	41.953679	84.000000	74.000000
41.849851	41.953679	56.000000	47.000000
41.953679	42.056086	72.000000	50.000000
41.953679	42.056086	68.000000	36.000000
42.056086	42.158224	77.000000	49.000000
42.056086	42.158224	65.000000	43.000000
42.158224	42.260095	86.000000	79.000000
42.158224	42.260095	60.000000	54.000000
42.260095	42.361683	72.000000	56.000000
42.260095	42.361683	68.000000	42.000000
42.361683	42.462991	77.000000	58.000000
42.361683	42.462991	65.000000	42.000000
42.462991	42.564043	87.000000	86.000000
42.462991	42.564043	56.000000	60.000000
42.564043	42.664813	72.000000	61.000000
42.564043	42.664813	68.000000	46.000000
42.664813	42.765316	77.000000	65.000000
42.664813	42.765316	65.000000	49.000000
42.765316	42.866355	89.000000	89.000000
42.765316	42.866355	53.000000	62.000000
42.866355	42.967260	77.000000	62.000000
42.866355	42.967260	75.000000	46.000000
42.967260	43.067963	84.000000	63.000000
42.967260	43.067963	68.000000	46.000000
43.067963	43.168452	91.000000	80.000000
43.067963	43.168452	63.000000	50.000000
43.168452	43.268686	79.000000	50.000000
43.168452	43.268686	75.000000	37.000000
43.268686	43.368733	84.000000	51.000000
43.268686	43.368733	68.000000	38.000000
43.368733	43.468578	89.000000	75.000000
43.368733	43.468578	56.000000	46.000000
43.468578	43.568222	77.000000	47.000000
43.468578	43.568222	75.000000	37.000000
43.568222	43.668725	80.000000	48.000000
43.568222	43.668725	68.000000	35.000000
43.668725	43.778615	84.000000	70.000000
43.668725	43.778615	44.000000	46.000000
43.778615	43.881022	72.000000	51.000000
43.778615	43.881022	68.000000	35.000000
43.881022	43.983160	77.000000	50.000000
43.881022	43.983160	65.000000	38.000000
43.983160	44.085017	86.000000	68.000000
43.983160	44.085017	60.000000	47.000000
44.085017	44.186606	74.000000	53.000000
44.085017	44.186606	68.000000	38.000000
44.186606	44.287913	77.000000	49.000000
44.186606	44.287913	65.000000	32.000000
44.287913	44.388965	84.000000	61.000000
44.287913	44.388965	53.000000	38.000000
44.388965	44.489736	72.000000	44.000000
44.388965	44.489736	68.000000	34.000000
44.489736	44.590238	77.000000	46.000000
44.489736	44.590238	63.000000	34.000000
44.590238	44.694067	77.000000	57.000000
44.590238	44.694067	46.000000	37.000000
44.694067	44.796474	65.000000	42.000000
44.694067	44.796474	63.000000	28.000000
44.796474	44.898612	72.000000	41.000000
44.796474	44.898612	56.000000	31.000000
44.898612	45.000469	79.000000	55.000000
44.898612	45.000469	53.000000	38.000000
45.000469	45.102058	65.000000	44.000000
45.000469	45.102058	62.000000	31.000000
45.102058	45.203298	72.000000	44.000000
45.102058	45.203298	56.000000	32.000000
45.203298	45.305289	74.000000	50.000000
45.203298	45.305289	46.000000	31.000000
45.305289	45.410003	62.000000	36.000000
45.305289	45.410003	58.000000	27.000000
45.410003	45.517640	70.000000	37.000000
45.410003	45.517640	56.000000	27.000000
45.517640	45.619644	75.000000	52.000000
45.517640	45.619644	39.000000	32.000000
45.619644	45.720750	63.000000	40.000000
45.619644	45.720750	55.000000	27.000000
45.720750	45.821454	70.000000	41.000000
45.720750	45.821454	46.000000	28.000000
45.821454	45.921835	82.000000	61.000000
45.821454	45.921835	39.000000	36.000000
45.921835	46.022982	67.000000	44.000000
45.921835	46.022982	58.000000	29.000000
46.022982	46.147986	75.000000	47.000000
46.022982	46.147986	46.000000	32.000000
46.147986	46.246597	83.000000	68.000000
46.147986	46.246597	39.000000	40.000000
46.246597	46.345719	67.000000	48.000000
46.246597	46.345719	58.000000	34.000000
46.345719	46.449815	75.000000	51.000000
46.345719	46.449815	46.000000	36.000000
46.449815	46.548199	82.000000	68.000000
46.449815	46.548199	39.000000	46.000000
46.548199	46.650056	68.000000	51.000000
46.548199	46.650056	56.000000	54.000000
46.650056	46.752194	74.000000	49.000000
46.650056	46.752194	46.000000	33.000000
46.752194	46.854601	81.000000	69.000000
46.752194	46.854601	39.000000	42.000000
46.854601	46.957289	68.000000	49.000000
46.854601	46.957289	58.000000	32.000000
46.957289	47.060260	74.000000	46.000000
46.957289	47.060260	46.000000	30.000000
47.060260	47.163511	80.000000	63.000000
47.060260	47.163511	39.000000	34.000000
47.163511	47.266763	68.000000	45.000000
47.163511	47.266763	58.000000	28.000000
47.266763	47.374735	74.000000	40.000000
47.266763	47.374735	46.000000	26.000000
47.374735	47.476740	79.000000	52.000000
47.374735	47.476740	39.000000	32.000000
47.476740	47.577846	67.000000	40.000000
47.476740	47.577846	58.000000	27.000000
47.577846	47.678549	75.000000	41.000000
47.577846	47.678549	46.000000	28.000000
47.678549	47.778918	82.000000	61.000000
47.678549	47.778918	39.000000	36.000000
47.778918	47.878964	67.000000	44.000000
47.778918	47.878964	58.000000	29.000000
47.878964	47.984616	75.000000	47.000000
47.878964	47.984616	46.000000	32.000000
47.984616	48.085387	84.000000	67.000000
47.984616	48.085387	39.000000	40.000000
48.085387	48.186158	67.000000	48.000000
48.085387	48.186158	58.000000	34.000000
48.186158	48.290254	75.000000	51.000000
48.186158	48.290254	46.000000	36.000000
48.290254	48.389510	82.000000	69.000000
48.290254	48.389510	39.000000	40.000000
48.389510	48.491366	68.000000	51.000000
48.389510	48.491366	56.000000	42.000000
48.491366	48.593505	74.000000	49.000000
48.491366	48.593505	46.000000	33.000000
48.593505	48.695912	81.000000	62.000000
48.593505	48.695912	39.000000	42.000000
48.695912	48.798600	68.000000	49.000000
48.695912	48.798600	58.000000	32.000000
48.798600	48.901570	74.000000	46.000000
48.798600	48.901570	46.000000	30.000000
48.901570	49.004822	80.000000	55.000000
48.901570	49.004822	39.000000	34.000000
49.004822	49.108074	68.000000	45.000000
49.004822	49.108074	58.000000	28.000000
49.108074	49.216046	74.000000	40.000000
49.108074	49.216046	46.000000	26.000000
49.216046	49.318051	79.000000	52.000000
49.216046	49.318051	39.000000	32.000000
49.318051	49.419157	67.000000	40.000000
49.318051	49.419157	58.000000	27.000000
49.419157	49.519860	75.000000	42.000000
49.419157	49.519860	46.000000	28.000000
49.519860	49.620242	82.000000	65.000000
49.519860	49.620242	39.000000	39.000000
49.620242	49.720288	67.000000	48.000000
49.620242	49.720288	58.000000	29.000000
49.720288	49.819933	79.000000	50.000000
49.720288	49.819933	46.000000	32.000000
49.819933	49.918544	87.000000	75.000000
49.819933	49.918544	43.000000	45.000000
49.918544	50.017665	75.000000	54.000000
49.918544	50.017665	58.000000	35.000000
50.017665	50.141127	82.000000	58.000000
50.017665	50.141127	51.000000	37.000000
50.141127	50.240382	91.000000	82.000000
50.141127	50.240382	43.000000	53.000000
50.240382	50.340268	74.000000	59.000000
50.240382	50.340268	65.000000	35.000000
50.340268	50.440368	83.000000	56.000000
50.340268	50.440368	59.000000	35.000000
50.440368	50.541072	89.000000	74.000000
50.440368	50.541072	50.000000	47.000000
50.541072	50.642312	74.000000	55.000000
50.541072	50.642312	65.000000	34.000000
50.642312	50.744128	79.000000	53.000000
50.642312	50.744128	59.000000	33.000000
50.744128	50.846321	87.000000	71.000000
50.744128	50.846321	48.000000	45.000000
50.846321	50.949023	72.000000	52.000000
50.846321	50.949023	63.000000	31.000000
50.949023	51.052382	79.000000	51.000000
50.949023	51.052382	55.000000	29.000000
51.052382	51.152133	87.000000	75.000000
51.052382	51.152133	45.000000	44.000000
51.152133	51.252729	72.000000	57.000000
51.152133	51.252729	63.000000	33.000000
51.252729	51.353741	78.000000	51.000000
51.252729	51.353741	54.000000	33.000000
51.353741	51.455169	86.000000	70.000000
51.353741	51.455169	51.000000	40.000000
51.455169	51.557080	71.000000	51.000000
51.455169	51.557080	63.000000	31.000000
51.557080	51.659446	78.000000	50.000000
51.557080	51.659446	54.000000	29.000000
51.659446	51.762698	84.000000	65.000000
51.659446	51.762698	44.000000	33.000000
51.762698	51.865950	72.000000	45.000000
51.762698	51.865950	63.000000	27.000000
51.865950	51.969201	78.000000	44.000000
51.865950	51.969201	54.000000	26.000000
51.969201	52.069972	84.000000	61.000000
51.969201	52.069972	46.000000	35.000000
52.069972	52.171829	68.000000	46.000000
52.069972	52.171829	62.000000	29.000000
52.171829	52.273968	77.000000	45.000000
52.171829	52.273968	56.000000	29.000000
52.273968	52.376374	82.000000	58.000000
52.273968	52.376374	53.000000	33.000000
52.376374	52.479063	67.000000	44.000000
52.376374	52.479063	62.000000	28.000000
52.479063	52.582033	72.000000	43.000000
52.479063	52.582033	56.000000	28.000000
52.582033	52.685285	80.000000	55.000000
52.582033	52.685285	46.000000	32.000000
52.685285	52.788536	65.000000	43.000000
52.685285	52.788536	58.000000	27.000000
52.788536	52.896509	74.000000	39.000000
52.788536	52.896509	56.000000	26.000000
52.896509	52.998513	79.000000	52.000000
52.896509	52.998513	39.000000	32.000000
52.998513	53.099619	63.000000	40.000000
52.998513	53.099619	55.000000	27.000000
53.099619	53.200323	75.000000	41.000000
53.099619	53.200323	46.000000	28.000000
53.200323	53.300691	82.000000	61.000000
53.200323	53.300691	39.000000	36.000000
53.300691	53.401958	67.000000	49.000000
53.300691	53.401958	58.000000	29.000000
53.401958	53.506376	75.000000	51.000000
53.401958	53.506376	46.000000	32.000000
53.506376	53.605712	83.000000	69.000000
53.506376	53.605712	39.000000	40.000000
53.605712	53.705624	67.000000	55.000000
53.605712	53.705624	58.000000	34.000000
53.705624	53.809721	75.000000	52.000000
53.705624	53.809721	46.000000	33.000000
53.809721	53.908735	82.000000	68.000000
53.809721	53.908735	39.000000	46.000000
53.908735	54.010592	68.000000	51.000000
53.908735	54.010592	56.000000	34.000000
54.010592	54.112730	74.000000	49.000000
54.010592	54.112730	46.000000	33.000000
54.112730	54.215137	81.000000	65.000000
54.112730	54.215137	39.000000	42.000000
54.215137	54.317826	68.000000	49.000000
54.215137	54.317826	58.000000	32.000000
54.317826	54.420796	74.000000	46.000000
54.317826	54.420796	46.000000	30.000000
54.420796	54.524047	80.000000	63.000000
54.420796	54.524047	39.000000	34.000000
54.524047	54.627299	68.000000	45.000000
54.524047	54.627299	58.000000	28.000000
54.627299	54.735271	74.000000	40.000000
54.627299	54.735271	46.000000	26.000000
54.735271	54.837276	79.000000	52.000000
54.735271	54.837276	39.000000	32.000000
54.837276	54.938382	67.000000	40.000000
54.837276	54.938382	58.000000	27.000000
54.938382	55.039086	75.000000	41.000000
54.938382	55.039086	46.000000	28.000000
55.039086	55.139454	82.000000	61.000000
55.039086	55.139454	39.000000	36.000000
55.139454	55.240090	67.000000	44.000000
55.139454	55.240090	58.000000	29.000000
55.240090	55.343087	75.000000	47.000000
55.240090	55.343087	46.000000	32.000000
55.343087	55.441699	84.000000	67.000000
55.343087	55.441699	39.000000	40.000000
55.441699	55.540820	67.000000	48.000000
55.441699	55.540820	58.000000	34.000000
55.540820	55.644916	75.000000	51.000000
55.540820	55.644916	46.000000	36.000000
55.644916	55.744668	82.000000	66.000000
55.644916	55.744668	39.000000	40.000000
55.744668	55.846525	68.000000	51.000000
55.744668	55.846525	56.000000	40.000000
55.846525	55.948663	74.000000	49.000000
55.846525	55.948663	46.000000	33.000000
55.948663	56.051070	81.000000	62.000000
55.948663	56.051070	39.000000	42.000000
56.051070	56.153759	68.000000	49.000000
56.051070	56.153759	58.000000	32.000000
56.153759	56.256729	74.000000	46.000000
56.153759	56.256729	46.000000	30.000000
56.256729	56.359980	80.000000	55.000000
56.256729	56.359980	39.000000	34.000000
56.359980	56.463232	68.000000	45.000000
56.359980	56.463232	58.000000	28.000000
56.463232	56.571205	74.000000	40.000000
56.463232	56.571205	46.000000	26.000000
56.571205	56.673209	79.000000	52.000000
56.571205	56.673209	39.000000	32.000000
56.673209	56.774315	67.000000	40.000000
56.673209	56.774315	58.000000	27.000000
56.774315	56.875019	75.000000	42.000000
56.774315	56.875019	46.000000	28.000000
56.875019	56.975387	82.000000	65.000000
56.875019	56.975387	39.000000	39.000000
56.975387	57.075433	70.000000	48.000000
56.975387	57.075433	58.000000	29.000000
57.075433	57.175077	79.000000	50.000000
57.075433	57.175077	46.000000	32.000000
57.175077	57.273676	87.000000	75.000000
57.175077	57.273676	39.000000	45.000000
57.273676	57.372797	75.000000	54.000000
57.273676	57.372797	58.000000	35.000000
57.372797	57.515651	82.000000	58.000000
57.372797	57.515651	51.000000	37.000000
57.515651	57.620083	91.000000	69.000000
57.515651	57.620083	31.000000	43.000000
57.620083	57.723107	74.000000	54.000000
57.620083	57.723107	59.000000	30.000000
57.723107	57.825996	83.000000	53.000000
57.723107	57.825996	53.000000	30.000000
57.825996	57.928631	89.000000	68.000000
57.825996	57.928631	43.000000	45.000000
57.928631	58.030931	74.000000	55.000000
57.928631	58.030931	59.000000	35.000000
58.030931	58.132908	83.000000	56.000000
58.030931	58.132908	53.000000	33.000000
58.132908	58.234698	88.000000	73.000000
58.132908	58.234698	44.000000	45.000000
58.234698	58.336475	74.000000	59.000000
58.234698	58.336475	59.000000	31.000000
58.336475	58.440920	83.000000	58.000000
58.336475	58.440920	52.000000	30.000000
58.440920	58.542710	88.000000	76.000000
58.440920	58.542710	45.000000	45.000000
58.542710	58.644567	73.000000	54.000000
58.542710	58.644567	61.000000	34.000000
58.644567	58.746705	81.000000	51.000000
58.644567	58.746705	52.000000	34.000000
58.746705	58.849112	87.000000	70.000000
58.746705	58.849112	45.000000	41.000000
58.849112	58.951801	72.000000	53.000000
58.849112	58.951801	60.000000	32.000000
58.951801	59.054771	81.000000	53.000000
58.951801	59.054771	53.000000	31.000000
59.054771	59.156561	84.000000	66.000000
59.054771	59.156561	45.000000	35.000000
59.156561	59.259035	69.000000	47.000000
59.156561	59.259035	63.000000	29.000000
59.259035	59.362662	75.000000	47.000000
59.259035	59.362662	54.000000	28.000000
59.362662	59.463432	84.000000	65.000000
59.362662	59.463432	46.000000	37.000000
59.463432	59.565289	69.000000	48.000000
59.463432	59.565289	63.000000	30.000000
59.565289	59.667428	75.000000	47.000000
59.565289	59.667428	54.000000	30.000000
59.667428	59.769835	82.000000	60.000000
59.667428	59.769835	46.000000	34.000000
59.769835	59.872523	70.000000	45.000000
59.769835	59.872523	63.000000	28.000000
59.872523	59.975493	75.000000	43.000000
59.872523	59.975493	55.000000	28.000000
59.975493	60.078745	74.000000	55.000000
59.975493	60.078745	34.000000	32.000000
60.078745	60.181997	62.000000	43.000000
60.078745	60.181997	56.000000	27.000000
60.181997	60.289969	70.000000	39.000000
60.181997	60.289969	46.000000	26.000000
60.289969	60.390619	75.000000	52.000000
60.289969	60.390619	39.000000	32.000000
60.390619	60.490169	63.000000	40.000000
60.390619	60.490169	55.000000	27.000000
60.490169	60.588875	70.000000	40.000000
60.490169	60.588875	46.000000	27.000000
60.588875	60.686521	82.000000	66.000000
60.588875	60.686521	39.000000	45.000000
60.686521	60.783482	63.000000	45.000000
60.686521	60.783482	58.000000	27.000000
60.783482	60.879854	70.000000	45.000000
60.783482	60.879854	46.000000	29.000000
60.879854	60.975985	75.000000	62.000000
60.879854	60.975985	39.000000	39.000000
60.975985	61.072759	63.000000	44.000000
60.975985	61.072759	55.000000	28.000000
61.072759	61.170217	70.000000	46.000000
61.072759	61.170217	46.000000	28.000000
61.170217	61.267796	81.000000	71.000000
61.170217	61.267796	39.000000	48.000000
61.267796	61.364597	63.000000	52.000000
61.267796	61.364597	58.000000	31.000000
61.364597	61.460781	70.000000	52.000000
61.364597	61.460781	46.000000	31.000000
61.460781	61.556938	75.000000	67.000000
61.460781	61.556938	39.000000	43.000000
61.556938	61.653645	63.000000	49.000000
61.556938	61.653645	55.000000	31.000000
61.653645	61.750849	70.000000	48.000000
61.653645	61.750849	46.000000	30.000000
61.750849	61.847864	80.000000	75.000000
61.750849	61.847864	39.000000	52.000000
61.847864	61.944477	63.000000	55.000000
61.847864	61.944477	58.000000	31.000000
61.944477	62.040702	70.000000	52.000000
61.944477	62.040702	46.000000	30.000000
62.040702	62.136926	75.000000	69.000000
62.040702	62.136926	39.000000	44.000000
62.136926	62.233888	63.000000	49.000000
62.136926	62.233888	55.000000	32.000000
62.233888	62.331601	70.000000	49.000000
62.233888	62.331601	46.000000	32.000000
62.331601	62.429850	79.000000	76.000000
62.331601	62.429850	39.000000	48.000000
62.429850	62.527469	63.000000	52.000000
62.429850	62.527469	58.000000	31.000000
62.527469	62.624337	70.000000	52.000000
62.527469	62.624337	46.000000	33.000000
62.624337	62.721111	75.000000	65.000000
62.624337	62.721111	39.000000	44.000000
62.721111	62.818637	63.000000	49.000000
62.721111	62.818637	55.000000	31.000000
62.818637	62.916926	70.000000	52.000000
62.818637	62.916926	46.000000	36.000000
62.916926	63.015632	78.000000	71.000000
62.916926	63.015632	39.000000	52.000000
63.015632	63.113720	63.000000	53.000000
63.015632	63.113720	58.000000	34.000000
63.113720	63.211151	70.000000	52.000000
63.113720	63.211151	46.000000	33.000000
63.211151	63.309146	75.000000	64.000000
63.211151	63.309146	39.000000	42.000000
63.309146	63.408495	63.000000	45.000000
63.309146	63.408495	55.000000	29.000000
63.408495	63.509266	70.000000	43.000000
63.408495	63.509266	46.000000	29.000000
63.509266	63.610573	79.000000	63.000000
63.509266	63.610573	39.000000	38.000000
63.610573	63.711880	63.000000	46.000000
63.610573	63.711880	58.000000	29.000000
63.711880	63.813187	70.000000	41.000000
63.711880	63.813187	46.000000	27.000000
63.813187	64.128092	75.000000	54.000000
63.813187	64.128092	39.000000	33.000000
64.757915	65.072820	94.000000	87.000000
64.757915	65.072820	99.000000	102.000000
64.757915	65.072820	87.000000	87.000000
64.757915	65.072820	67.000000	69.000000
64.757915	65.072820	70.000000	73.000000
64.757915	65.072820	75.000000	73.000000
64.757915	65.072820	79.000000	88.000000
65.702644	66.647372	67.000000	98.000000
65.702644	66.647372	55.000000	81.000000
65.702644	66.647372	58.000000	81.000000
65.702644	66.647372	63.000000	98.000000
65.702644	66.647372	39.000000	67.000000
65.702644	66.647372	46.000000	67.000000
65.702644	66.647372	51.000000	79.000000
