OnsetTime	OffsetTime	MidiPitch	Velocity
0.500004	1.12588	39	70
0.500004	1.12588	51	84
1.1015	1.71181	46	63
1.1015	1.71181	58	74
1.68675	2.31278	39	70
1.68675	2.31278	51	84
2.28826	2.90179	34	62
2.28826	2.90179	46	73
2.87672	3.50275	27	63
2.87672	3.50275	39	75
3.47824	4.0667	34	58
3.47824	4.0667	46	69
4.0667	4.69258	39	70
4.0667	4.69258	51	84
4.6682	5.27851	46	63
4.6682	5.27851	58	74
5.25345	5.87934	39	70
5.25345	5.87934	51	84
5.85496	6.46527	34	62
5.85496	6.46527	46	73
6.4402	7.06636	27	64
6.4402	7.06636	39	77
7.04172	7.63337	34	60
7.04172	7.63337	46	72
7.63337	8.69637	39	70
7.63337	8.69637	51	84
7.63337	8.79854	63	70
7.63337	8.79854	67	70
7.63337	8.79854	70	84
7.63337	8.79854	75	84
8.22161	8.79854	46	62
8.22161	8.79854	58	73
8.79854	9.68915	48	70
8.79854	9.68915	60	84
8.79854	11.1179	63	68
8.79854	11.1179	67	68
8.79854	11.1179	72	81
8.79854	11.1179	75	81
9.38677	11.1179	43	64
9.38677	11.1179	55	75
9.9582	11.1179	38	67
9.9582	11.1179	50	80
9.9582	11.1179	70	70
9.9582	11.1179	74	70
9.9582	11.1179	77	84
9.9582	11.1179	82	84
10.5464	11.1179	34	62
10.5464	11.1179	46	74
11.1179	12.1803	39	70
11.1179	12.1803	51	84
11.1179	12.283	67	70
11.1179	12.283	70	70
11.1179	12.283	75	84
11.1179	12.283	79	84
11.7032	12.283	46	62
11.7032	12.283	58	73
12.283	13.4434	44	67
12.283	13.4434	56	80
12.283	13.4434	65	68
12.283	13.4434	70	68
12.283	13.4434	74	81
12.283	13.4434	77	81
12.8683	13.4434	46	60
12.8683	13.4434	58	71
13.4434	14.0331	48	67
13.4434	14.6228	60	79
13.4434	14.6228	63	67
13.4434	14.6228	67	67
13.4434	14.6228	72	79
13.4434	14.6228	75	79
14.0331	14.6228	36	58
14.0331	14.6228	48	69
14.6228	15.6865	43	66
14.6228	15.6865	55	78
14.6228	15.7881	62	70
14.6228	15.7881	67	70
14.6228	15.7881	70	84
14.6228	15.7881	74	84
15.214	15.7881	46	66
15.214	15.7881	58	66
15.7881	17.0589	44	67
15.7881	17.0589	56	79
15.7881	17.0589	60	67
15.7881	16.9545	63	67
15.7881	17.0589	68	80
15.7881	17.0589	72	80
16.3766	17.0589	39	56
16.3766	17.0589	51	67
16.9545	17.5442	43	66
16.9545	18.134	55	79
16.9545	18.134	58	69
16.9545	18.134	63	69
16.9545	18.134	67	82
16.9545	18.134	70	82
17.5442	18.134	31	60
17.5442	18.134	43	70
18.134	19.2112	32	67
18.134	18.7322	44	80
18.134	19.3143	60	67
18.134	19.3143	63	67
18.134	19.3143	68	80
18.134	19.3143	72	80
18.7322	19.3143	44	61
18.7322	19.3143	56	72
19.3143	20.4262	41	68
19.3143	20.4262	53	81
19.3143	20.4945	62	70
19.3143	20.4945	68	70
19.3143	20.4945	70	84
19.3143	20.4945	74	84
19.9092	20.4945	46	61
19.9092	20.4945	58	72
20.4945	21.6909	43	70
20.4945	21.6909	55	85
20.4945	21.6909	63	73
20.4945	21.6909	67	73
20.4945	21.6909	70	86
20.4945	21.6909	75	86
21.0927	21.6909	39	63
21.0927	21.6909	51	77
21.6909	22.7465	32	70
21.6909	22.2891	44	84
21.6909	22.8873	65	75
21.6909	22.8873	72	75
21.6909	22.8873	75	90
21.6909	22.8873	77	90
22.2891	22.8873	44	64
22.2891	22.8873	56	77
22.8873	23.8123	46	70
22.8873	23.8123	58	84
22.8873	25.3528	65	73
22.8873	25.3528	70	86
22.8873	25.3528	74	73
22.8873	25.3528	77	86
23.4922	25.3528	48	64
23.4922	25.3528	60	77
24.0971	24.7159	46	66
24.0971	25.3528	58	78
24.0971	25.3528	68	81
24.7159	25.3528	34	58
24.7159	25.3528	46	69
25.3528	25.5293	39	34
25.3528	25.5293	46	51
25.3528	27.0164	63	70
25.3528	27.5366	67	70
25.3528	27.5366	70	84
25.3528	27.5366	75	84
25.4411	25.6175	51	46
25.5293	25.7057	39	34
25.5293	25.7057	46	51
25.6175	25.794	51	45
25.7057	25.8822	39	36
25.7057	25.8822	46	52
25.794	25.9704	51	45
25.8822	26.0587	39	36
25.8822	26.0587	46	52
25.9704	26.1467	51	45
26.0587	26.2344	39	34
26.0587	26.2344	46	51
26.1467	26.3229	51	44
26.2344	26.412	39	36
26.2344	26.412	46	52
26.3229	26.5014	51	44
26.412	26.5916	39	36
26.412	26.5916	46	52
26.5014	26.6827	51	45
26.5916	26.7741	39	34
26.5916	26.7741	46	51
26.6827	26.8755	51	45
26.7741	26.9764	39	34
26.7741	26.9764	46	51
26.7741	27.2549	55	53
26.8552	27.176	58	56
26.8755	27.0764	51	45
26.9361	27.0964	60	58
26.9764	27.176	39	34
26.9764	27.176	46	51
27.0164	27.4898	63	57
27.0764	27.2747	51	45
27.0964	27.4119	60	53
27.176	27.3729	39	36
27.176	27.3729	46	52
27.176	27.3337	58	53
27.2549	27.5366	55	51
27.2747	27.4703	51	46
27.3337	27.5366	58	53
27.3729	27.5366	39	36
27.3729	27.5366	46	52
27.4119	27.5366	60	56
27.4703	27.6635	51	46
27.4898	28.3245	63	57
27.5673	27.7592	39	37
27.5673	27.7592	46	53
27.5673	28.025	67	57
27.6442	27.9495	70	60
27.6635	27.8545	51	47
27.721	27.8735	72	62
27.7592	27.9495	39	38
27.7592	27.9495	46	55
27.7974	28.25	75	61
27.8545	28.0438	51	47
27.8735	28.1753	72	57
27.9495	28.1378	39	38
27.9495	28.1378	46	55
27.9495	28.1003	70	57
28.025	28.3245	67	53
28.0438	28.2313	51	47
28.1003	28.3245	70	57
28.1378	28.3245	39	37
28.1378	28.3245	46	53
28.1753	28.3245	72	60
28.2313	28.3245	51	47
28.25	28.343	75	61
28.3245	28.5093	39	39
28.3245	28.5093	46	57
28.3245	28.7653	79	61
28.3986	28.6926	82	63
28.4171	28.6011	51	50
28.4725	28.6194	84	67
28.5093	28.6926	39	40
28.5093	28.6926	46	58
28.5461	28.9822	87	67
28.6011	28.7835	51	52
28.6194	28.9102	84	64
28.6926	28.8741	39	42
28.6926	28.8741	46	62
28.6926	28.8379	82	64
28.7653	29.0256	79	62
28.7835	28.9642	51	57
28.8379	29.0256	82	67
28.8741	29.0256	39	44
28.8741	29.0256	46	64
28.9102	29.0256	84	70
28.9642	29.0541	51	57
28.9822	29.7016	87	73
29.0541	29.2323	39	44
29.0541	29.2323	46	66
29.0541	29.4793	91	69
29.1255	29.4091	94	75
29.1434	29.3209	51	59
29.1968	29.3385	96	82
29.2323	29.4091	39	48
29.2323	29.4091	46	68
29.2678	29.6869	99	84
29.3209	29.4968	51	61
29.3385	29.6175	96	80
29.4091	29.5842	39	49
29.4091	29.5842	46	70
29.4091	29.5493	94	80
29.4793	29.7016	91	89
29.4968	29.6692	51	62
29.5493	29.7016	94	91
29.5842	29.7016	39	49
29.5842	29.7016	46	72
29.6175	29.7016	96	92
29.6692	29.7576	51	62
29.6869	29.7752	99	95
29.7576	31.8101	75	64
29.8021	31.8808	82	64
29.8478	31.9157	87	76
29.8948	32.6499	91	84
29.9432	32.6499	94	84
29.9931	32.6499	99	87
30.0455	32.6499	103	90
31.7019	32.7744	63	36
31.7382	32.7744	67	36
31.7743	32.7744	70	42
31.8101	32.7744	75	49
31.8456	32.7744	79	49
31.8808	32.7744	82	58
31.9157	32.7744	87	58
32.7744	33.8263	60	34
32.8097	33.8263	67	34
32.8449	33.8263	72	41
32.88	33.8263	75	46
32.915	33.8263	79	46
32.9495	33.8263	84	56
32.984	33.8263	87	56
33.8263	34.8771	62	36
33.8621	34.8771	70	36
33.8977	34.8771	74	42
33.9331	34.8771	82	49
33.9682	34.8771	86	49
34.0032	34.8771	89	58
34.0379	34.8771	94	58
34.8771	35.9259	63	36
34.9121	35.9259	70	36
34.947	35.9259	75	42
34.982	35.9259	79	49
35.0169	35.9259	82	49
35.0519	35.9259	87	58
35.0868	35.9259	91	58
35.9259	36.9892	58	34
35.962	36.9892	65	34
35.9979	36.9892	70	41
36.0335	36.9892	77	46
36.0688	36.9892	82	46
36.1038	36.9892	86	56
36.1038	36.9892	89	56
36.9892	38.0572	60	34
37.0251	38.0572	67	41
37.0609	38.0572	72	41
37.0966	38.0572	75	46
37.1321	38.0572	79	46
37.1675	38.0572	84	55
37.2027	38.0572	87	55
38.0572	39.1198	55	36
38.0943	39.1198	62	36
38.1314	39.1198	67	42
38.1682	39.1198	74	49
38.2047	39.1198	79	49
38.2411	39.1198	82	58
38.2771	39.1198	86	58
39.1198	40.1903	56	34
39.1555	40.1903	63	34
39.1911	40.1903	68	41
39.2266	40.1903	72	46
39.2617	40.1903	75	46
39.2966	40.1903	80	55
39.3313	40.1903	84	55
40.1903	41.2859	51	36
40.2255	41.2859	58	36
40.2606	41.2859	63	42
40.2958	41.2859	70	48
40.3309	41.2859	75	48
40.3661	41.2859	79	57
40.4012	41.2859	82	57
41.2859	42.3703	56	34
41.3215	42.3703	63	34
41.357	42.3703	68	41
41.3926	42.3703	72	46
41.4281	42.3703	75	46
41.4636	42.3703	80	55
41.4992	42.3703	84	55
42.3703	43.4629	53	36
42.4056	43.4629	58	36
42.4413	43.4629	65	42
42.4769	43.4629	74	49
42.5125	43.4629	80	49
42.5476	43.4629	82	58
42.5825	43.4629	86	58
43.4629	44.6001	55	37
43.4985	44.6001	63	44
43.534	44.6001	67	44
43.5695	44.6001	75	50
43.6051	44.6001	79	50
43.6406	44.6001	82	60
43.6762	44.6001	87	60
44.6001	45.7372	56	39
44.6356	45.7372	63	39
44.6711	45.7372	68	46
44.7067	45.7372	77	52
44.7422	45.7372	84	52
44.7778	45.7372	87	62
44.8133	45.7372	89	62
45.7372	48.0717	58	37
45.7735	48.0717	65	37
45.8099	48.0717	70	44
45.8462	48.0717	77	50
45.8823	48.0717	86	50
45.9182	47.9645	82	60
45.9182	48.0717	89	60
46.8783	48.0717	80	56
48.0717	52.0364	63	36
48.1107	52.0364	67	36
48.1502	52.0364	70	42
48.1902	52.0364	75	49
48.231	52.0364	79	49
48.2724	52.0364	82	58
48.3147	52.0364	87	58
48.3577	52.0364	99	69
52.0364	53.0832	75	70
52.0364	53.0832	82	70
52.565	52.9915	63	57
53.0832	54.1221	70	63
53.0832	54.1373	74	69
53.0832	54.1373	82	69
53.6142	54.1221	68	60
54.1373	55.2234	67	60
54.1373	55.2234	75	70
54.1373	55.2234	82	70
54.6707	55.2234	63	55
55.1989	56.8739	56	38
55.2339	56.8739	63	40
55.2689	56.8739	68	44
55.3039	56.8739	72	49
55.339	56.8739	75	56
55.3742	56.8739	80	60
55.4094	56.8739	84	67
56.8532	56.9224	99	50
56.9224	57.4183	96	49
56.9921	57.4878	92	48
57.0623	57.558	87	45
57.1331	57.6289	84	48
57.2047	57.7004	80	46
57.2767	57.7727	75	44
57.3487	57.8456	72	42
57.4183	58.1097	96	48
57.4878	58.1097	92	46
57.558	58.1097	87	45
57.6289	58.1097	84	42
57.7004	58.1097	80	44
57.7727	58.1097	75	42
57.8456	58.1097	72	42
57.9194	58.1097	68	41
57.9977	59.49	63	55
59.49	60.5368	75	70
59.49	60.5368	79	70
60.0186	60.445	74	55
60.5368	61.5662	72	63
60.5368	61.5813	75	69
60.5368	61.5813	80	69
61.0631	61.5662	68	60
61.5813	62.6304	67	60
61.5813	62.6304	75	70
61.5813	62.6304	82	70
62.1123	62.6304	70	55
62.6304	63.5919	62	58
62.6304	64.7485	77	70
62.6304	63.6846	82	70
63.1614	63.5919	65	55
63.6846	64.7331	70	63
63.6846	64.7485	80	69
64.2203	64.7331	74	53
64.7485	65.8728	72	60
64.7485	65.8728	75	68
64.7485	65.8728	79	68
65.3005	65.8728	69	55
65.8423	67.5776	58	49
65.8859	67.5776	65	53
65.9295	67.5776	70	57
65.9714	67.5776	74	57
66.0095	67.5776	77	66
67.5574	67.6256	101	50
67.6256	68.1241	98	49
67.6953	68.193	94	48
67.7655	68.2624	89	45
67.8361	68.3326	86	48
67.9073	68.4032	82	46
67.979	68.4748	77	44
68.0512	68.5468	74	42
68.1241	68.8054	98	48
68.193	68.8054	94	46
68.2624	68.8054	89	45
68.3326	68.8054	86	42
68.4032	68.8054	82	44
68.4748	68.8054	77	42
68.5468	68.8054	74	42
68.6197	68.8054	70	41
68.6934	71.3723	62	55
70.1932	71.2522	51	66
70.1932	71.3723	55	67
70.1932	71.3723	58	80
71.2522	72.3164	44	53
71.2522	72.3164	51	63
71.2522	72.3164	56	70
71.2522	72.3164	60	84
72.3164	73.3832	41	56
72.3164	73.3832	53	67
72.3164	73.3832	56	73
72.3164	73.3832	62	86
73.3832	74.5076	43	56
73.3832	74.4473	51	67
73.3832	74.5076	58	73
73.3832	74.5076	63	86
74.4473	75.522	44	53
74.4473	75.522	51	63
74.4473	75.522	60	70
74.4473	75.522	65	84
75.522	76.643	46	55
75.522	76.643	51	66
75.522	76.643	58	73
75.522	76.643	67	86
76.643	77.7416	44	67
76.643	77.7416	60	70
76.643	77.7416	63	70
76.643	77.7416	65	84
77.7416	79.9466	46	67
77.7416	79.9466	58	80
77.7416	79.9466	62	63
77.7416	79.9466	65	80
78.8082	79.9466	56	68
79.9466	81.085	39	52
79.9466	81.085	51	62
79.9466	81.085	55	63
79.9466	81.085	58	63
79.9466	81.085	63	75
81.085	83.3553	39	39
81.2757	83.3553	46	39
81.4665	83.3553	51	39
81.6572	83.3553	55	38
81.8479	83.3553	58	40
82.0386	82.4199	63	45
82.2294	82.6091	67	48
82.4199	83.3553	63	39
82.4199	82.7974	70	46
82.6091	83.3553	67	40
82.6091	82.9845	75	48
82.7974	83.3553	70	44
82.7974	83.1706	79	48
82.9845	83.3553	75	44
82.9845	83.3553	82	49
83.1706	83.3553	79	44
83.1706	83.3553	87	50
83.3553	84.4678	75	55
83.3553	83.7234	79	44
83.3553	83.7234	94	55
83.5393	83.9074	82	37
83.5393	83.9074	91	49
83.7234	84.0914	79	44
83.7234	84.0914	94	53
83.9074	84.2771	82	37
83.9074	84.2771	91	49
84.0914	84.4884	79	44
84.0914	84.4884	94	53
84.2771	84.4884	82	37
84.2771	84.4884	91	49
84.4678	85.5748	75	53
84.4678	84.834	80	40
84.4678	84.834	95	53
84.6509	85.0171	83	36
84.6509	85.0171	92	49
84.834	85.2003	80	39
84.834	85.2003	95	53
85.0171	85.385	83	35
85.0171	85.385	92	49
85.2003	85.6034	80	39
85.2003	85.6034	95	51
85.385	85.6034	83	35
85.385	85.6034	92	49
85.5748	86.6734	75	44
85.5748	86.6734	82	44
85.5748	86.1241	91	51
85.5748	86.6287	99	51
85.7579	86.6287	96	49
85.941	86.6287	94	49
86.1241	86.6287	91	48
86.3072	86.6287	87	48
86.4903	86.6734	84	48
86.6734	87.8843	82	48
86.8565	87.8843	79	48
87.0396	87.8843	75	48
87.2227	87.8843	72	47
87.4058	87.8843	70	46
87.5914	87.8843	67	46
87.7819	88.9383	63	49
88.9383	90.083	39	39
88.9383	90.083	48	39
88.9383	90.083	56	40
88.9383	90.083	63	40
89.5017	90.083	47	36
90.083	91.2456	39	28
90.083	91.2456	46	34
90.083	91.2456	55	35
90.083	91.2456	63	42
91.2456	92.4461	39	23
91.2456	92.4461	46	28
91.2456	92.4461	55	32
91.2456	92.4461	63	38
92.4461	93.7093	39	23
92.4461	93.7093	46	28
92.4461	93.7093	55	32
92.4461	93.7093	63	38
93.7093	100.591	39	23
93.7093	100.591	46	28
93.7093	99.2593	55	32
93.7093	100.591	63	38
98.0729	100.459	36	45
98.4684	100.05	43	41
98.8639	99.6548	50	42
99.2593	100.591	55	50
99.6548	100.591	50	41
100.05	100.591	43	38
100.459	102.844	36	45
100.854	102.436	43	41
101.25	102.041	50	42
101.645	102.866	55	50
102.041	102.866	50	40
102.436	102.866	43	37
102.844	105.208	36	45
102.844	103.621	62	41
102.844	103.621	67	50
103.233	104.8	43	41
103.621	104.404	50	42
103.621	104.009	62	40
103.621	105.208	67	48
104.009	105.229	55	41
104.009	105.208	62	50
104.404	105.229	50	41
104.8	105.229	43	39
105.208	107.572	36	45
105.208	105.984	62	41
105.208	105.984	67	50
105.596	107.163	43	41
105.984	106.768	50	42
105.984	106.372	62	39
105.984	107.593	67	47
106.372	107.593	55	41
106.372	107.572	62	50
106.768	107.593	50	41
107.163	107.593	43	38
107.572	109.945	36	45
107.572	109.945	62	41
107.572	108.348	71	50
107.96	109.537	43	41
108.154	109.966	72	48
108.348	109.141	50	42
108.348	109.945	71	45
108.746	109.966	53	42
108.746	109.966	59	41
108.746	109.966	67	49
109.141	109.966	50	41
109.537	109.966	43	39
109.945	112.319	36	45
109.945	112.34	62	41
109.945	110.721	71	50
110.333	111.91	43	41
110.527	112.34	72	48
110.721	111.515	50	42
110.721	112.34	71	45
111.119	112.34	53	42
111.119	112.34	59	41
111.119	112.34	67	49
111.515	112.34	50	41
111.91	112.34	43	38
112.319	114.682	36	45
112.319	113.095	69	52
112.319	113.095	74	62
112.707	114.274	43	41
113.095	113.878	50	42
113.095	114.682	69	49
113.095	114.682	74	59
113.483	114.703	55	42
113.483	114.703	65	52
113.483	114.703	71	62
113.878	114.703	50	41
114.274	114.703	43	39
114.682	117.046	36	45
114.682	115.458	69	52
114.682	115.458	74	62
115.07	116.637	43	41
115.458	116.242	50	42
115.458	117.067	69	49
115.458	117.067	74	59
115.846	117.067	55	42
115.846	117.067	65	52
115.846	117.046	71	62
116.242	117.067	50	42
116.637	117.067	43	39
117.046	119.416	36	49
117.046	117.818	71	58
117.046	117.818	77	69
117.434	119.007	43	45
117.628	118.216	74	55
117.628	119.437	79	64
117.818	118.612	50	47
117.818	119.416	71	51
117.818	119.416	77	62
118.216	119.437	55	47
118.216	119.437	65	57
118.216	119.437	74	68
118.612	119.437	50	49
119.007	119.437	43	46
119.416	121.783	36	49
119.416	120.186	71	58
119.416	120.186	77	69
119.804	121.375	43	45
119.998	120.584	74	55
119.998	121.783	79	64
120.186	120.979	50	47
120.186	121.783	71	51
120.186	121.804	77	62
120.584	121.804	55	47
120.584	121.804	65	57
120.584	121.804	74	68
120.979	121.804	50	49
121.375	121.804	43	46
121.783	124.105	36	51
121.783	122.545	71	60
121.783	122.545	79	71
122.162	123.707	43	47
122.356	122.938	67	58
122.356	122.938	77	69
122.545	123.319	50	50
122.545	123.319	71	55
122.545	123.319	79	64
122.938	124.126	55	51
122.938	123.707	67	62
122.938	123.707	77	72
123.319	124.126	50	53
123.319	124.126	71	58
123.319	124.126	79	69
123.707	124.126	43	50
123.707	124.126	67	60
123.707	124.126	77	71
124.105	126.453	36	53
124.105	124.867	74	63
124.105	124.867	83	77
124.484	126.039	43	50
124.678	126.453	71	62
124.678	126.453	79	74
124.867	125.641	50	53
124.867	125.641	74	59
124.867	125.641	83	70
125.26	126.453	55	55
125.26	126.039	77	64
125.26	126.039	86	78
125.641	126.453	50	57
125.641	126.453	74	62
125.641	126.453	83	74
126.039	126.453	43	53
126.039	126.453	77	62
126.039	126.453	86	74
126.453	127.787	36	53
126.453	127.787	72	68
126.453	127.787	76	68
126.453	127.787	84	81
126.858	127.787	43	41
127.264	127.787	48	41
127.669	128.458	52	37
127.868	128.261	55	39
128.065	128.875	57	42
128.261	128.875	55	42
128.458	128.875	52	42
128.657	128.875	48	41
128.875	130.215	36	45
129.283	130.215	43	41
129.691	130.215	48	41
130.097	130.89	52	37
130.297	130.693	55	39
130.495	131.303	57	42
130.693	131.303	55	42
130.89	131.303	52	42
131.088	131.303	48	41
131.303	132.647	36	45
131.303	132.119	64	41
131.303	132.119	67	50
131.713	132.647	43	41
131.918	132.647	65	40
131.918	132.647	69	46
132.119	132.647	48	41
132.119	132.529	64	38
132.119	132.647	67	45
132.529	133.324	52	37
132.529	133.746	60	36
132.529	133.746	64	41
132.728	133.126	55	39
132.827	133.746	79	47
132.927	133.746	57	42
132.927	133.746	91	53
133.126	133.746	55	42
133.324	133.746	52	42
133.531	133.746	48	41
133.746	135.09	36	45
133.746	134.562	64	41
133.746	134.562	67	50
134.157	135.09	43	41
134.362	135.09	65	40
134.362	135.09	69	46
134.562	135.09	48	41
134.562	134.972	64	38
134.562	135.09	67	45
134.972	135.768	52	37
134.972	136.188	60	36
134.972	136.188	64	41
135.171	135.569	55	39
135.271	136.188	79	47
135.37	136.188	57	42
135.37	136.188	91	53
135.569	136.188	55	42
135.768	136.188	52	42
135.973	136.188	48	41
136.188	137.529	43	45
136.188	137.001	65	47
136.188	137.001	74	57
136.599	137.529	47	41
137.001	137.529	50	41
137.001	137.529	65	47
137.001	137.529	74	57
137.412	137.809	55	37
137.412	138.627	62	42
137.412	138.627	71	52
137.611	138.627	57	39
137.71	138.627	79	47
137.809	138.627	55	42
137.809	138.627	91	53
138.008	138.627	53	42
138.207	138.627	52	42
138.413	138.627	50	41
138.627	139.982	36	45
138.627	139.449	64	42
138.627	139.449	72	52
139.041	139.982	43	41
139.449	139.982	48	41
139.449	139.863	64	41
139.449	139.982	72	50
139.863	140.662	52	37
139.863	141.082	64	40
139.863	141.082	67	48
140.065	140.463	55	39
140.165	141.082	79	47
140.265	141.082	57	42
140.265	141.082	91	53
140.463	141.082	55	42
140.662	141.082	52	42
140.867	141.082	48	41
141.082	142.44	41	45
141.082	141.904	65	52
141.082	141.904	69	52
141.496	142.44	48	41
141.904	142.44	53	41
141.904	142.44	65	52
141.904	142.318	69	52
142.318	143.134	57	37
142.318	143.134	69	53
142.318	143.562	72	53
142.524	143.562	48	39
142.729	143.562	53	42
142.932	143.562	55	42
142.932	143.555	67	51
142.932	143.562	71	51
143.134	143.562	57	42
143.134	143.562	65	50
143.134	143.562	69	50
143.34	143.562	59	41
143.555	144.781	60	48
143.555	144.37	64	41
143.555	144.37	67	50
143.965	144.899	55	41
144.17	144.899	65	40
144.17	144.899	69	46
144.37	144.899	48	41
144.37	144.781	64	38
144.37	144.899	67	45
144.781	145.998	36	37
144.781	145.783	60	36
144.781	145.998	64	41
144.98	145.998	43	39
145.079	145.998	79	47
145.179	145.998	48	42
145.179	145.998	91	53
145.377	145.998	52	42
145.576	145.998	55	42
145.783	145.998	60	41
145.998	147.355	41	45
145.998	146.82	65	52
145.998	146.82	69	52
146.412	147.355	48	41
146.82	147.355	53	41
146.82	147.355	65	52
146.82	147.234	69	52
147.234	148.05	57	37
147.234	148.05	69	53
147.234	148.477	72	53
147.439	148.477	48	39
147.645	148.477	53	42
147.848	148.477	55	42
147.848	148.471	67	51
147.848	148.477	71	51
148.05	148.477	57	42
148.05	148.477	65	50
148.05	148.477	69	50
148.256	148.477	59	41
148.471	149.697	60	48
148.471	149.286	64	41
148.471	149.286	67	50
148.881	149.814	55	41
149.086	149.814	65	40
149.086	149.814	69	46
149.286	149.814	48	41
149.286	149.697	64	38
149.286	149.814	67	45
149.697	150.914	36	37
149.697	150.699	60	36
149.697	150.914	64	41
149.896	150.914	43	39
149.995	150.914	79	47
150.094	150.914	48	42
150.094	150.914	91	53
150.293	150.914	52	42
150.492	150.914	55	42
150.699	150.914	60	41
150.914	151.736	67	42
150.914	151.736	71	51
150.914	151.736	86	64
151.121	152.186	77	44
151.328	151.943	79	51
151.532	152.186	83	44
151.736	152.15	67	42
151.736	152.186	71	50
151.736	152.186	86	64
151.943	152.186	79	50
152.15	153.424	67	43
152.15	152.966	74	52
152.15	153.424	89	66
152.355	152.966	83	51
152.561	153.371	79	55
152.763	153.424	71	51
152.763	153.424	86	65
152.966	153.424	74	48
152.966	153.424	83	61
153.197	153.424	77	52
153.317	154.616	76	51
153.371	154.616	79	55
153.424	154.442	72	44
153.424	154.616	84	63
153.629	154.246	67	39
153.835	154.585	60	43
154.04	154.585	64	38
154.246	154.585	67	43
154.442	154.616	72	39
154.616	155.74	60	44
154.668	155.797	67	44
154.719	156.657	72	44
154.77	155.855	76	50
154.821	156.459	79	52
154.871	156.057	84	55
154.921	156.057	88	60
155.74	157.064	60	47
155.797	156.657	67	53
155.855	156.864	76	60
155.867	157.064	96	67
156.057	156.459	84	38
156.057	156.657	88	38
156.26	157.064	91	63
156.459	156.864	79	38
156.459	157.064	84	38
156.657	157.071	67	51
156.657	157.071	72	51
156.657	157.071	88	64
156.864	157.071	76	38
156.864	157.071	79	38
157.071	157.888	67	54
157.071	157.888	71	54
157.071	158.309	91	66
157.277	157.482	79	38
157.277	157.482	83	38
157.482	157.888	79	38
157.482	157.888	83	38
157.685	158.309	89	61
157.888	158.309	67	50
157.888	158.309	71	50
157.888	158.309	79	38
157.888	158.309	83	38
157.888	158.309	86	59
158.095	158.309	77	38
158.309	159.556	60	39
158.309	159.556	67	39
158.309	159.532	72	48
158.309	158.513	76	43
158.309	158.713	79	43
158.309	158.917	84	52
158.513	159.322	76	44
158.713	159.118	79	48
158.917	159.556	84	43
159.118	159.556	79	49
159.322	159.556	76	44
159.532	160.754	72	44
159.736	160.544	76	43
159.935	160.34	79	44
160.139	160.754	84	43
160.34	160.754	79	44
160.544	160.754	76	42
160.754	163.197	60	40
160.754	163.197	63	40
160.754	163.197	66	40
160.754	162.787	69	48
160.754	161.971	72	44
160.958	161.766	75	43
161.158	161.562	78	44
161.362	162.0	84	43
161.562	162.0	78	44
161.766	162.0	75	42
161.971	163.197	72	50
162.176	162.992	75	44
162.377	162.787	78	51
162.581	163.197	71	53
162.581	163.197	84	44
162.787	163.197	69	51
162.787	163.197	78	51
162.992	163.197	75	47
163.197	165.646	60	39
163.197	165.646	64	39
163.197	165.646	67	48
163.197	164.422	72	51
163.401	164.217	76	44
163.605	164.013	79	51
163.809	165.034	84	44
164.013	164.83	79	52
164.217	164.626	76	48
164.422	165.646	72	50
164.626	165.442	76	44
164.83	165.238	79	49
165.034	165.646	84	40
165.238	165.646	79	49
165.442	165.646	76	43
165.646	168.089	72	40
165.646	168.089	75	40
165.646	168.089	78	40
165.646	167.678	81	48
165.646	166.862	84	44
165.85	166.658	87	43
166.05	166.454	90	44
166.254	166.891	96	43
166.454	166.891	90	44
166.658	166.891	87	42
166.862	168.089	84	50
167.068	167.884	87	44
167.269	167.678	90	51
167.473	168.089	83	52
167.473	168.089	96	44
167.678	168.089	81	49
167.678	168.089	90	51
167.884	168.089	87	47
168.089	169.305	72	39
168.089	169.305	76	39
168.089	172.757	79	48
168.089	169.305	84	51
168.293	169.101	88	44
168.493	168.897	91	48
168.697	169.916	96	40
168.897	169.712	91	47
169.101	169.51	88	44
169.305	170.532	67	37
169.305	170.532	72	37
169.305	172.757	76	43
169.305	170.532	84	47
169.51	170.327	88	42
169.712	170.121	91	39
169.916	171.14	96	37
170.121	170.936	91	39
170.327	170.736	88	37
170.532	171.748	64	35
170.532	171.748	67	35
170.532	172.757	72	42
170.532	171.748	84	44
170.736	171.544	88	39
170.936	171.34	91	42
171.14	172.359	96	36
171.34	172.155	91	42
171.544	171.953	88	40
171.748	176.101	60	31
171.748	173.026	64	31
171.748	176.101	67	39
171.748	172.757	84	42
171.953	172.757	88	37
172.155	172.564	91	35
172.359	172.757	96	31
172.564	172.769	91	35
172.769	173.434	88	31
172.898	176.101	48	28
172.962	176.101	55	28
173.026	176.101	64	35
173.026	175.516	84	40
173.434	175.075	88	38
173.842	174.658	91	37
174.25	176.101	96	35
174.658	176.101	91	36
175.075	176.101	88	35
175.516	176.101	84	38
177.722	178.139	84	70
177.861	178.139	72	63
178.0	178.139	81	57
178.139	179.427	60	55
178.139	179.427	64	55
178.139	179.427	70	61
178.139	178.57	79	70
178.57	179.288	79	66
179.01	179.427	84	70
179.149	179.427	72	64
179.288	179.427	79	60
179.427	180.724	60	49
179.427	180.724	65	49
179.427	180.724	69	56
179.427	179.856	77	72
179.856	180.58	77	69
180.293	180.724	84	70
180.437	180.724	72	64
180.58	180.724	77	64
180.724	180.938	60	49
180.724	180.938	67	56
180.724	180.938	70	61
180.724	180.938	76	64
181.151	181.596	60	47
181.151	181.615	67	52
181.151	181.596	70	51
181.151	181.615	76	64
181.485	181.615	79	58
181.596	182.04	60	47
181.596	182.04	65	52
181.596	182.04	70	48
181.596	182.04	74	60
181.929	182.04	79	58
182.04	182.689	60	46
182.04	182.689	67	51
182.04	182.689	70	60
182.04	182.689	72	63
182.485	182.727	48	51
182.97	183.386	84	70
183.109	183.386	72	64
183.248	183.386	81	59
183.386	184.105	53	55
183.386	183.816	77	72
183.816	184.105	60	46
183.816	184.105	65	48
183.816	184.105	69	53
183.816	184.105	77	69
184.252	184.669	84	70
184.391	184.669	72	64
184.53	184.669	81	59
184.669	185.239	53	55
184.669	185.098	77	72
185.098	185.316	60	46
185.098	185.316	65	46
185.098	185.316	69	51
185.098	185.316	77	69
185.48	185.917	86	64
185.535	185.955	84	71
185.75	185.955	83	66
185.917	185.971	86	65
185.971	186.386	53	55
185.971	186.386	84	72
186.186	186.386	83	69
186.401	187.744	60	46
186.401	187.706	65	46
186.401	187.744	69	51
186.401	187.744	84	67
186.616	187.706	86	69
186.828	187.744	88	71
187.047	187.744	89	73
187.269	187.744	58	55
187.269	187.744	85	80
187.706	187.963	62	46
187.706	187.963	65	46
187.706	187.963	70	51
187.706	187.963	86	77
188.143	188.559	86	70
188.282	188.559	79	64
188.42	188.559	82	60
188.559	189.13	60	55
188.559	188.989	76	72
188.989	189.207	67	39
188.989	189.207	70	39
188.989	189.207	72	44
188.989	189.207	76	69
189.425	189.842	85	65
189.564	189.842	79	64
189.703	189.842	82	60
189.842	190.412	60	55
189.842	190.271	76	70
190.271	190.489	67	39
190.271	190.489	70	39
190.271	190.489	72	44
190.271	190.489	76	69
190.653	191.104	81	64
190.721	191.142	79	71
190.936	191.142	78	66
191.104	191.158	81	65
191.158	191.572	60	55
191.158	191.572	79	72
191.373	191.572	78	69
191.588	192.456	64	46
191.588	192.456	70	46
191.588	192.456	72	51
191.588	192.456	79	67
191.802	192.456	81	69
192.015	192.456	82	71
192.234	192.456	84	73
192.456	192.931	53	55
192.456	192.931	80	80
192.893	193.149	65	39
192.893	193.149	69	39
192.893	193.149	72	45
192.893	193.149	81	77
193.329	193.746	84	70
193.468	193.746	72	64
193.607	193.746	81	59
193.746	194.464	53	55
193.746	194.175	77	72
194.175	194.464	63	46
194.175	194.464	65	46
194.175	194.464	69	51
194.175	194.464	77	69
194.612	195.028	84	70
194.751	195.028	72	64
194.89	195.028	81	61
195.028	195.599	53	55
195.028	195.458	77	72
195.458	195.676	63	46
195.458	195.676	65	46
195.458	195.676	69	51
195.458	195.676	77	69
195.84	196.31	79	64
195.894	196.31	77	71
196.109	196.31	76	66
196.327	196.741	53	55
196.327	196.741	77	72
196.542	196.741	79	69
196.756	197.625	63	46
196.756	197.625	65	46
196.756	197.625	69	51
196.756	197.625	81	66
196.756	196.971	89	63
196.971	197.625	82	70
196.971	197.184	89	67
197.184	197.625	83	75
197.184	197.403	89	72
197.403	197.625	84	81
197.403	197.625	89	78
197.625	198.1	53	55
197.625	198.1	85	85
197.625	198.061	89	81
198.061	199.041	62	46
198.061	199.041	65	46
198.061	199.041	70	51
198.061	198.498	86	81
198.061	199.041	89	78
198.498	199.041	86	80
198.637	199.041	79	72
198.776	199.041	82	66
198.915	199.129	76	80
199.344	199.781	58	49
199.344	199.781	60	49
199.344	199.781	64	55
199.344	199.781	67	55
199.344	199.781	72	75
199.344	199.781	84	88
199.781	200.228	58	49
199.781	200.228	60	49
199.781	200.228	64	55
199.781	200.228	67	55
199.781	200.228	72	70
199.781	200.228	84	82
200.228	201.566	57	51
200.228	201.566	60	51
200.228	201.406	65	58
200.228	201.114	72	75
200.228	201.566	84	88
200.822	201.566	81	72
200.968	201.566	77	70
201.114	201.566	72	69
201.26	201.566	69	69
201.406	201.566	65	67
201.566	201.792	43	46
201.566	201.792	55	51
201.566	201.792	60	58
201.566	201.749	64	64
201.679	201.792	67	55
202.02	202.253	43	46
202.02	202.253	54	51
202.02	202.253	60	59
202.02	202.253	63	67
202.134	202.253	67	52
202.475	202.702	43	46
202.475	202.702	53	51
202.475	202.702	59	59
202.475	202.692	62	66
202.589	202.702	67	52
202.939	203.634	48	46
202.939	203.634	52	51
202.939	203.634	55	59
202.939	203.634	60	67
203.411	203.647	36	44
203.884	204.162	60	62
204.106	204.328	62	60
204.162	204.273	60	57
204.217	204.328	59	57
204.273	204.328	60	57
204.328	205.641	41	46
204.328	205.641	65	67
204.762	205.641	48	44
205.2	205.641	53	44
205.2	205.641	64	62
205.419	205.641	62	60
205.641	206.942	43	45
205.641	206.942	58	57
205.641	206.942	60	63
206.075	206.942	52	44
206.508	206.942	48	44
206.508	206.942	62	63
206.725	206.942	64	60
206.942	208.248	45	48
206.942	208.248	65	67
207.375	208.248	48	44
207.375	208.248	68	67
207.703	208.248	69	62
207.812	208.248	41	39
207.812	208.248	74	67
208.137	208.248	72	62
208.248	209.119	36	44
208.248	209.016	64	59
208.248	209.016	67	67
208.684	209.119	48	44
209.119	209.397	72	62
209.341	209.564	74	60
209.397	209.508	72	57
209.453	209.564	71	57
209.508	209.564	72	57
209.564	210.877	53	46
209.564	210.877	77	67
209.997	210.877	60	39
210.435	210.877	65	44
210.435	210.877	76	62
210.654	210.877	74	60
210.877	212.177	55	45
210.877	212.177	70	57
210.877	212.177	72	63
211.31	212.177	64	44
211.744	212.177	60	44
211.744	212.177	74	63
211.96	212.177	76	60
212.177	212.74	57	44
212.177	212.74	72	59
212.177	212.441	77	67
212.388	212.74	79	53
212.441	212.547	77	53
212.494	212.74	76	53
212.547	212.74	77	53
212.6	213.474	58	41
212.6	213.474	74	56
212.6	213.474	81	62
212.817	213.474	79	57
213.038	213.474	60	41
213.038	213.474	70	56
213.038	213.474	77	62
213.252	213.474	76	57
213.474	214.089	65	44
213.474	214.089	69	62
213.474	214.089	77	62
213.916	214.359	53	44
214.359	214.782	84	67
214.5	214.782	72	61
214.641	214.782	81	57
214.782	216.063	60	55
214.782	216.063	64	55
214.782	216.063	70	61
214.782	215.209	79	74
215.209	215.923	79	73
215.642	216.063	84	67
215.782	216.063	72	61
215.923	216.063	79	57
216.063	217.36	60	49
216.063	217.36	65	49
216.063	217.36	69	56
216.063	216.492	77	69
216.492	217.216	77	66
216.929	217.36	84	67
217.073	217.36	72	61
217.216	217.36	77	61
217.36	217.574	60	49
217.36	217.574	67	56
217.36	217.574	72	61
217.36	217.574	76	61
217.787	218.232	60	47
217.787	218.232	67	52
217.787	218.232	70	55
217.787	218.232	76	61
218.121	218.251	79	56
218.232	218.675	60	47
218.232	218.675	67	52
218.232	218.676	70	52
218.232	218.675	76	61
218.565	218.676	79	56
218.676	219.195	53	52
218.676	219.165	65	52
218.676	218.839	69	58
218.676	218.839	77	63
218.839	219.002	69	56
218.839	219.002	77	61
219.002	219.165	69	56
219.002	219.165	77	61
219.165	219.665	51	56
219.165	219.665	63	56
219.165	219.331	65	57
219.165	219.331	69	57
219.165	219.331	77	62
219.331	219.498	65	60
219.331	219.498	69	60
219.331	219.498	77	66
219.498	219.665	65	61
219.498	219.665	69	61
219.498	219.665	77	67
219.665	220.173	50	57
219.665	220.173	62	57
219.665	219.834	65	61
219.665	219.834	70	61
219.665	219.834	77	67
219.834	220.004	65	63
219.834	220.004	70	63
219.834	220.004	77	69
220.004	220.173	65	63
220.004	220.173	70	63
220.004	220.173	77	69
220.173	220.759	48	60
220.173	220.759	60	60
220.173	220.351	65	66
220.173	220.351	69	66
220.173	220.351	75	72
220.173	220.351	77	72
220.351	220.546	65	67
220.351	220.546	69	67
220.351	220.546	75	73
220.351	220.546	77	73
220.546	220.759	65	68
220.546	220.759	69	68
220.546	220.759	75	74
220.546	220.759	77	74
220.759	222.006	46	72
220.759	222.006	65	88
220.905	221.471	70	57
221.05	221.611	53	53
221.05	221.33	74	57
221.19	221.753	77	57
221.33	222.006	58	58
221.33	221.611	74	66
221.471	222.006	70	57
221.611	222.006	53	52
221.611	222.006	74	57
221.753	222.006	77	57
221.896	223.031	51	72
221.896	223.031	67	82
222.039	222.605	70	63
222.183	222.747	58	52
222.183	222.463	75	63
222.323	222.889	79	63
222.463	223.031	63	57
222.463	222.747	75	72
222.605	223.031	70	63
222.747	223.031	58	52
222.747	223.031	75	63
222.889	223.031	79	66
223.031	224.167	46	72
223.031	224.167	65	82
223.174	223.735	70	68
223.316	224.167	53	52
223.316	223.597	74	68
223.457	224.167	77	68
223.597	224.15	58	57
223.597	224.167	74	72
223.735	224.167	70	66
223.874	224.167	60	52
223.874	224.167	63	79
224.012	224.167	75	57
224.15	224.764	58	67
224.15	224.764	62	79
224.291	224.764	65	60
224.432	224.764	53	44
224.432	224.764	70	63
224.573	224.764	74	60
224.714	225.293	60	61
224.714	225.293	63	74
224.858	225.293	65	57
225.002	225.293	53	42
225.002	225.293	69	57
225.148	225.293	75	57
225.293	226.523	46	72
225.293	226.523	65	88
225.439	226.004	70	57
225.584	226.144	53	53
225.584	225.864	74	57
225.724	226.287	77	57
225.864	226.523	58	58
225.864	226.144	74	66
226.004	226.523	70	57
226.144	226.523	53	52
226.144	226.523	74	57
226.287	226.523	77	57
226.43	227.565	51	72
226.43	227.565	67	82
226.573	227.139	70	63
226.716	227.281	58	52
226.716	226.997	75	63
226.857	227.423	79	63
226.997	227.565	63	57
226.997	227.281	75	72
227.139	227.565	70	63
227.281	227.565	58	52
227.281	227.565	75	63
227.423	227.565	79	66
227.565	228.668	46	72
227.565	228.668	65	82
227.708	228.269	70	68
227.85	228.668	53	52
227.85	228.131	74	68
227.99	228.668	77	68
228.131	228.668	58	57
228.131	228.668	74	72
228.269	228.668	70	66
228.407	228.684	60	52
228.407	228.684	63	79
228.546	228.684	75	57
228.684	229.292	58	67
228.684	229.292	62	79
228.826	229.292	65	60
228.967	229.292	53	44
228.967	229.292	70	63
229.109	229.292	74	60
229.25	229.824	60	61
229.25	229.824	63	74
229.394	229.824	65	57
229.537	229.824	53	42
229.537	229.824	69	57
229.681	229.824	75	57
229.824	230.994	46	72
229.824	230.961	65	88
229.97	230.535	70	57
230.115	230.675	53	53
230.115	230.395	74	57
230.255	230.818	77	57
230.395	230.994	58	58
230.395	230.675	74	66
230.535	230.994	70	57
230.675	230.994	53	52
230.675	230.994	74	57
230.818	230.994	77	57
230.961	232.102	45	74
230.961	232.102	65	90
231.104	231.671	69	66
231.247	231.813	53	53
231.247	231.528	72	66
231.388	231.958	77	67
231.528	232.102	57	62
231.528	231.813	72	74
231.671	232.102	69	68
231.813	232.102	53	53
231.813	232.102	72	68
231.958	232.102	77	68
232.102	233.249	43	74
232.102	233.249	67	93
232.245	232.806	72	74
232.387	232.944	48	68
232.387	232.668	76	75
232.527	233.083	79	75
232.668	233.249	52	73
232.668	232.944	76	75
232.806	233.249	72	66
232.944	233.249	48	66
232.944	233.249	76	72
233.083	233.249	79	66
233.221	233.83	41	73
233.221	233.83	69	93
233.366	233.83	72	72
233.511	233.83	48	68
233.511	233.83	77	79
233.653	233.83	81	69
233.795	234.374	50	75
233.795	234.374	70	97
233.941	234.374	74	81
234.086	234.374	53	69
234.086	234.374	77	86
234.23	234.374	82	80
234.374	235.513	48	72
234.374	235.546	69	94
234.519	235.087	72	67
234.664	235.546	53	58
234.664	234.946	77	79
234.805	235.37	81	68
234.946	235.546	57	69
234.946	235.228	77	80
235.087	235.546	72	67
235.228	235.546	60	58
235.228	235.546	77	68
235.37	235.546	81	68
235.513	236.651	48	69
235.513	236.651	67	90
235.656	236.651	70	72
235.8	236.651	55	58
235.8	236.08	76	74
235.94	236.507	79	72
236.08	236.651	58	69
236.08	236.364	76	75
236.222	236.651	72	63
236.364	236.651	60	58
236.364	236.651	76	68
236.507	236.651	79	66
236.651	238.329	41	72
236.651	238.329	65	90
236.792	238.329	69	72
236.934	238.329	48	55
236.934	238.329	72	74
237.076	237.359	77	72
237.217	237.789	53	62
237.217	237.501	81	79
237.359	238.329	77	72
237.501	238.329	57	52
237.501	237.789	81	72
237.644	238.329	84	72
237.789	238.371	53	63
237.789	238.371	60	72
237.789	238.371	81	86
237.789	238.371	89	97
238.954	241.189	53	49
238.954	240.066	57	49
238.954	240.066	60	55
238.954	240.066	72	79
239.094	239.648	77	52
239.233	239.51	81	56
239.372	240.148	84	60
239.51	240.148	81	58
239.648	240.148	77	55
239.786	240.148	58	42
239.786	240.148	62	49
239.786	240.148	74	72
239.926	240.148	86	58
240.066	240.62	57	49
240.066	240.62	60	55
240.066	240.62	72	79
240.205	240.62	77	58
240.343	240.62	81	62
240.481	240.62	84	67
240.62	241.189	58	50
240.62	241.189	62	50
240.62	241.189	74	73
240.762	241.189	77	58
240.904	241.189	82	62
241.047	241.189	86	69
241.189	243.434	53	49
241.189	242.31	60	46
241.189	242.31	63	52
241.189	242.31	75	75
241.329	241.884	81	57
241.468	241.743	84	61
241.606	242.368	87	66
241.743	242.368	84	68
241.884	242.368	81	62
242.025	242.368	62	42
242.025	242.368	65	48
242.025	242.368	77	69
242.167	242.368	89	63
242.31	243.434	60	42
242.31	243.434	63	49
242.31	243.434	75	72
242.451	243.153	81	58
242.59	243.011	84	62
242.728	242.868	87	66
242.868	243.434	87	69
243.011	243.434	84	62
243.153	243.434	81	58
243.293	243.434	77	58
243.434	244.542	58	51
243.434	244.542	62	57
243.434	244.542	74	79
243.573	244.542	77	55
243.712	244.124	82	58
243.85	243.987	86	62
243.987	244.542	86	61
244.124	244.542	82	57
244.262	244.542	60	46
244.262	244.542	63	52
244.262	244.542	75	75
244.402	244.542	87	62
244.542	245.654	58	51
244.542	245.095	62	57
244.542	245.095	74	84
244.681	245.095	77	62
244.819	245.095	82	67
244.957	245.095	86	72
245.095	245.654	60	49
245.095	245.654	63	55
245.095	245.654	75	79
245.235	245.654	81	63
245.374	245.654	84	68
245.513	245.654	87	74
245.654	247.92	58	53
245.654	246.784	62	51
245.654	246.784	65	57
245.654	246.784	77	82
245.794	246.85	82	67
245.934	246.352	86	72
246.073	246.211	89	75
246.211	246.85	89	77
246.352	246.85	86	73
246.494	246.85	63	46
246.494	246.85	67	52
246.494	246.85	79	77
246.639	246.85	91	69
246.784	247.92	62	48
246.784	247.92	65	53
246.784	247.773	77	85
246.924	247.63	82	70
247.063	247.487	86	74
247.203	247.344	89	79
247.344	247.92	89	79
247.487	247.92	86	75
247.63	247.92	82	73
247.773	247.92	77	70
247.92	249.123	58	69
247.92	248.515	62	69
247.92	248.483	65	78
247.92	248.515	82	82
247.92	248.515	94	92
248.062	248.343	89	82
248.202	248.515	86	88
248.343	248.515	89	81
248.483	249.123	65	61
248.483	249.123	69	68
248.483	249.123	81	75
248.483	249.123	93	85
248.622	248.901	89	77
248.762	249.123	86	79
248.901	249.123	89	77
249.041	249.599	63	62
249.041	249.599	70	62
249.041	249.599	75	69
249.041	249.599	79	81
249.041	249.599	91	91
249.18	249.46	87	78
249.32	249.575	82	82
249.46	249.599	87	78
249.599	250.152	62	61
249.599	250.152	65	61
249.599	250.152	74	68
249.599	250.152	77	75
249.599	250.152	89	84
249.737	250.014	86	69
249.876	250.152	82	75
250.014	250.152	86	69
250.152	250.74	58	64
250.152	250.74	62	64
250.152	250.74	65	72
250.152	250.74	82	85
250.152	250.74	94	94
250.293	250.575	89	82
250.434	250.74	86	85
250.575	250.74	89	80
250.715	251.368	63	61
250.715	251.276	70	61
250.715	251.368	75	68
250.715	251.368	79	81
250.715	251.368	91	91
250.855	251.136	87	79
250.996	251.368	82	81
251.136	251.368	87	77
251.276	251.842	62	62
251.276	251.842	70	69
251.276	251.842	74	69
251.276	251.842	77	81
251.276	251.842	89	91
251.417	251.7	86	80
251.559	251.809	82	84
251.7	251.842	86	79
251.842	252.416	60	61
251.842	252.416	67	61
251.842	252.416	72	68
251.842	252.416	75	80
251.842	252.416	87	90
251.986	252.273	84	79
252.129	252.416	79	84
252.273	252.416	84	79
252.416	253.587	53	61
252.416	253.587	58	61
252.416	253.587	62	68
252.416	253.587	65	68
252.416	252.858	74	81
252.416	253.439	86	91
252.564	253.293	82	78
252.711	253.148	77	75
252.858	253.004	74	74
253.004	253.587	74	79
253.148	253.543	77	80
253.293	253.543	82	82
253.439	253.587	86	84
253.587	254.792	53	60
253.587	254.792	57	60
253.587	254.792	63	67
253.587	254.792	65	67
253.587	254.04	72	80
253.587	254.639	84	90
253.739	254.486	81	81
253.89	254.338	75	80
254.04	254.189	72	79
254.189	254.792	72	75
254.338	254.792	75	77
254.486	254.792	81	79
254.639	254.792	84	81
254.792	255.432	46	80
254.792	256.036	70	73
254.792	256.036	74	73
254.792	256.036	77	73
254.792	256.036	82	82
254.937	255.432	50	51
255.083	255.432	53	56
255.229	255.432	58	51
255.381	256.036	41	74
255.527	256.036	46	51
255.672	256.036	50	55
255.818	256.036	53	51
255.968	256.555	43	78
256.114	256.555	46	51
256.26	256.555	50	55
256.406	256.555	55	51
256.555	257.162	41	74
256.555	256.652	69	61
256.627	256.725	72	62
256.7	256.872	48	55
256.7	256.798	75	63
256.774	256.872	77	63
256.848	257.025	51	57
256.848	256.947	81	63
256.922	257.025	84	64
256.997	257.162	53	51
256.997	257.107	87	64
257.079	257.148	89	67
257.12	258.463	82	71
257.134	258.463	86	73
257.148	258.463	89	74
257.162	257.804	46	78
257.162	258.463	94	77
257.308	257.804	50	51
257.454	257.804	53	56
257.601	257.804	58	51
257.753	258.463	41	67
257.899	258.463	46	51
258.044	258.463	50	55
258.19	258.463	53	51
258.345	258.94	42	72
258.494	258.94	46	51
258.642	258.94	49	55
258.791	258.94	54	51
258.94	259.547	41	64
258.94	259.037	57	50
259.013	259.11	60	50
259.086	259.258	48	40
259.086	259.184	63	51
259.159	259.258	65	52
259.233	259.41	51	46
259.233	259.333	69	52
259.308	259.41	72	53
259.383	259.547	53	40
259.383	259.492	75	53
259.465	259.533	77	55
259.506	260.839	70	57
259.52	260.839	74	59
259.533	260.839	77	59
259.547	260.839	46	40
259.547	260.839	82	61
259.84	260.839	53	39
260.135	260.839	58	39
260.429	260.839	62	39
260.723	261.957	65	35
261.017	261.957	70	36
261.017	261.605	77	48
261.311	261.957	74	38
261.311	261.907	82	49
261.605	261.957	77	40
261.605	261.957	86	51
261.907	262.491	82	42
261.907	262.491	89	53
262.196	262.785	86	40
262.196	268.959	94	50
262.491	263.079	82	40
262.491	268.959	89	49
262.785	263.373	77	40
262.785	264.551	86	49
263.079	263.667	74	44
263.079	264.261	82	49
263.373	263.961	70	40
263.373	263.961	77	44
263.667	265.433	65	40
263.667	264.261	74	44
263.961	265.139	70	40
263.961	264.551	77	44
264.261	264.845	74	42
264.261	264.845	82	50
264.551	265.139	77	40
264.551	268.959	86	46
264.845	265.433	74	40
264.845	268.959	82	47
265.139	265.723	70	40
265.139	266.9	77	47
265.433	266.017	65	41
265.433	266.61	74	47
265.723	266.311	62	37
265.723	266.311	70	40
266.017	267.782	58	38
266.017	266.61	65	42
266.311	267.488	62	38
266.311	266.9	70	40
266.61	267.194	65	40
266.61	267.194	74	48
266.9	267.488	70	37
266.9	268.959	77	42
267.194	267.782	65	37
267.194	268.959	74	40
267.488	268.076	62	37
267.488	268.959	70	40
267.782	268.37	58	39
267.782	268.959	65	44
268.076	268.665	53	36
268.076	268.665	62	39
268.37	268.959	50	36
268.37	268.959	58	40
268.665	268.959	53	37
268.665	268.959	62	39
268.959	269.109	34	27
268.959	269.109	50	25
268.959	269.109	53	31
269.034	269.184	46	25
269.034	269.184	58	29
269.109	269.259	34	27
269.109	269.259	50	25
269.109	269.259	53	31
269.184	269.334	46	25
269.184	269.334	58	29
269.259	269.408	34	27
269.259	269.408	50	25
269.259	269.408	53	31
269.334	269.482	46	24
269.334	269.482	58	29
269.408	269.556	34	27
269.408	269.556	50	25
269.408	269.556	53	31
269.482	269.63	46	24
269.482	269.63	58	28
269.556	269.703	34	27
269.556	269.703	50	25
269.556	269.703	53	31
269.63	269.777	46	25
269.63	269.777	58	29
269.703	269.85	34	27
269.703	269.85	50	25
269.703	269.85	53	31
269.777	269.924	46	25
269.777	269.924	58	29
269.85	269.997	34	27
269.85	269.997	50	25
269.85	269.997	53	31
269.924	270.071	46	24
269.924	270.071	58	29
269.997	270.144	34	27
269.997	270.144	50	25
269.997	270.144	53	31
270.071	270.217	46	24
270.071	270.217	58	28
270.144	270.29	34	27
270.144	270.29	50	25
270.144	270.29	53	31
270.217	270.363	46	25
270.217	270.363	58	29
270.29	270.436	34	27
270.29	270.436	50	25
270.29	270.436	53	31
270.363	270.509	46	25
270.363	270.509	58	29
270.436	270.582	34	27
270.436	270.582	50	25
270.436	270.582	53	31
270.509	270.655	46	24
270.509	270.655	58	29
270.582	270.728	34	27
270.582	270.728	50	25
270.582	270.728	53	31
270.655	270.802	46	24
270.655	270.802	58	28
270.728	270.875	34	27
270.728	270.875	50	25
270.728	270.875	53	31
270.802	270.949	46	25
270.802	270.949	58	29
270.875	271.023	34	27
270.875	271.023	50	25
270.875	271.023	53	31
270.949	271.096	46	25
270.949	271.096	58	29
271.023	271.17	34	27
271.023	271.17	50	25
271.023	271.17	53	31
271.096	271.244	46	24
271.096	271.244	58	29
271.17	271.318	34	27
271.17	271.318	50	25
271.17	271.318	53	31
271.244	271.318	46	24
271.244	271.318	58	28
271.318	273.672	34	24
271.318	273.672	46	24
271.318	273.672	50	26
271.318	273.672	53	26
271.318	273.672	58	26
273.672	273.819	34	24
273.672	274.843	50	31
273.672	274.843	53	31
273.745	273.892	46	22
273.819	273.966	34	24
273.892	274.039	46	22
273.966	274.113	34	24
274.039	274.187	46	20
274.113	274.26	34	24
274.187	274.334	46	20
274.26	274.407	34	24
274.334	274.481	46	22
274.407	274.554	34	24
274.481	274.626	46	22
274.554	274.698	34	24
274.554	274.848	51	31
274.554	274.848	55	31
274.626	274.771	46	20
274.698	274.843	34	24
274.771	274.848	46	20
274.843	274.99	34	24
274.843	275.518	50	31
274.843	275.518	53	31
274.916	275.063	46	22
274.99	275.137	34	24
275.063	275.21	46	22
275.137	275.284	34	24
275.21	275.357	46	20
275.284	275.431	34	24
275.357	275.504	46	20
275.431	275.518	34	24
275.431	276.11	51	31
275.431	276.11	55	31
275.504	275.651	46	22
275.578	275.725	34	24
275.651	275.799	46	22
275.725	275.872	34	24
275.799	275.946	46	20
275.872	276.019	34	24
275.946	276.093	46	20
276.019	276.11	34	24
276.019	277.19	50	34
276.019	277.19	53	34
276.019	277.19	56	34
276.093	276.24	46	22
276.166	276.313	34	24
276.24	276.387	46	22
276.313	276.46	34	24
276.387	276.534	46	20
276.46	276.607	34	24
276.534	276.681	46	20
276.607	276.685	34	24
276.681	276.828	46	22
276.754	276.902	34	24
276.828	276.974	46	22
276.902	277.046	34	24
276.902	277.222	55	31
276.902	277.222	58	31
276.974	277.118	46	20
277.046	277.19	34	24
277.118	277.19	46	20
277.19	277.778	34	24
277.19	277.778	46	24
277.19	277.778	50	31
277.19	277.778	53	31
277.19	277.778	56	31
277.778	280.193	46	25
277.851	280.193	53	27
277.925	280.193	56	28
277.997	280.193	58	29
278.07	280.193	62	30
278.128	280.193	65	33
278.186	280.193	68	34
278.244	280.193	70	37
278.301	280.193	74	39
278.358	279.529	80	44
279.232	280.193	82	40
279.529	280.193	80	42
280.717	280.867	33	24
280.717	281.906	50	31
280.717	281.906	54	31
280.792	280.942	45	22
280.867	281.017	33	24
280.942	281.092	45	22
281.017	281.167	33	24
281.092	281.242	45	20
281.167	281.317	33	24
281.242	281.392	45	20
281.317	281.467	33	24
281.392	281.542	45	22
281.467	281.617	33	24
281.542	281.689	45	22
281.617	281.762	33	24
281.617	281.911	52	31
281.617	281.911	55	31
281.689	281.834	45	20
281.762	281.906	33	24
281.834	281.911	45	20
281.906	282.053	33	24
281.906	282.576	50	31
281.906	282.576	54	31
281.979	282.126	45	22
282.053	282.2	33	24
282.126	282.273	45	22
282.2	282.347	33	24
282.273	282.42	45	20
282.347	282.494	33	24
282.42	282.568	45	20
282.494	282.576	33	24
282.494	283.142	52	31
282.494	283.142	55	31
282.568	282.715	45	22
282.641	282.788	33	24
282.715	282.862	45	22
282.788	282.935	33	24
282.862	283.009	45	20
282.935	283.082	33	24
283.009	283.142	45	20
283.082	283.156	33	24
283.082	284.841	50	34
283.082	284.253	54	34
283.082	284.253	57	34
283.156	283.303	45	22
283.229	283.376	33	24
283.303	283.45	45	22
283.376	283.523	33	24
283.45	283.597	45	20
283.523	283.671	33	24
283.597	283.744	45	20
283.671	283.818	33	24
283.744	283.891	45	22
283.818	283.965	33	24
283.891	284.037	45	22
283.965	284.109	33	24
283.965	284.264	55	31
283.965	284.264	59	31
284.037	284.181	45	20
284.109	284.253	33	24
284.181	284.253	45	20
284.253	284.841	33	24
284.253	284.841	45	24
284.253	284.841	54	31
284.253	284.841	57	31
284.841	287.134	45	25
284.914	287.134	50	27
284.988	287.134	54	28
285.06	287.134	57	29
285.133	287.182	62	30
285.191	287.182	66	33
285.249	287.182	69	34
285.307	287.182	71	37
285.364	287.182	74	39
285.422	286.588	81	44
286.291	287.134	83	40
286.588	287.182	81	42
287.686	288.976	83	40
287.728	288.68	85	46
287.769	289.521	91	49
287.811	289.556	69	31
287.811	289.556	75	31
287.811	289.556	79	36
287.811	288.976	95	52
288.68	289.521	85	45
288.68	289.521	97	50
288.976	289.556	83	44
288.976	289.556	95	49
290.053	291.342	82	40
290.094	291.89	86	46
290.135	291.89	89	49
290.177	291.922	68	31
290.177	291.922	74	31
290.177	291.922	77	36
290.177	291.342	94	52
291.046	291.89	84	45
291.046	291.89	96	50
291.342	291.922	82	44
291.342	291.922	94	49
292.419	293.708	81	40
292.46	295.287	85	46
292.502	295.287	88	49
292.543	295.287	69	31
292.543	295.287	73	31
292.543	295.287	79	36
292.543	293.708	93	52
293.413	295.287	83	45
293.413	295.287	95	50
293.708	295.662	81	44
293.708	296.013	93	49
295.447	296.013	91	79
295.519	296.013	88	67
295.59	296.013	85	64
295.662	296.013	81	63
295.734	296.013	79	70
295.806	296.013	76	61
295.878	296.013	73	60
295.951	296.024	69	59
296.024	296.558	79	79
296.096	296.558	76	67
296.168	296.558	73	64
296.24	296.558	69	63
296.312	296.558	67	70
296.384	296.558	64	61
296.457	296.558	61	60
296.53	296.82	57	59
296.603	297.185	67	79
296.675	297.185	64	67
296.748	297.185	61	64
296.82	297.185	57	63
296.892	297.185	55	70
296.965	297.185	52	61
297.038	297.185	49	60
297.111	297.185	45	59
297.185	298.057	33	77
298.057	298.366	35	72
298.366	299.671	33	79
299.671	301.814	37	56
299.815	301.814	40	58
299.96	301.814	43	60
300.103	301.814	45	59
300.247	301.814	49	59
300.39	301.814	52	60
300.532	301.814	55	61
300.674	301.814	57	59
300.815	301.814	61	60
300.957	301.814	64	61
301.099	301.814	67	62
301.241	301.814	69	66
301.384	301.814	73	68
301.527	301.814	76	69
301.671	301.814	79	71
301.814	302.394	83	71
302.249	303.03	85	69
302.394	304.177	83	64
302.994	304.177	57	45
302.994	304.177	68	50
302.994	304.177	74	49
302.994	304.177	77	55
303.586	304.177	80	62
304.177	306.077	57	39
304.177	306.077	67	44
304.177	305.426	73	55
304.177	305.381	76	55
304.177	305.426	83	61
304.468	305.426	81	56
304.764	305.426	80	53
305.067	305.426	79	52
305.381	306.006	76	50
305.705	306.077	73	49
306.077	306.751	38	31
306.077	306.751	50	35
306.077	306.751	66	36
306.077	306.751	69	55
306.302	306.751	57	36
306.526	306.751	62	37
306.751	307.493	37	31
306.751	307.493	49	36
306.751	307.493	67	36
306.751	307.429	69	58
306.977	307.493	57	36
307.203	307.493	64	37
307.429	308.154	38	29
307.429	308.154	50	32
307.429	308.154	66	36
307.429	308.154	69	55
307.652	308.154	57	37
307.875	308.099	62	35
308.099	308.825	43	32
308.099	308.825	55	37
308.099	308.553	62	36
308.099	308.825	71	58
308.326	308.825	59	37
308.553	308.825	62	37
308.78	309.51	38	29
308.78	309.51	50	32
308.78	309.51	66	36
308.78	309.461	69	54
309.007	309.51	57	37
309.234	309.51	62	37
309.461	310.878	33	31
309.461	310.878	45	35
309.461	309.911	61	36
309.461	310.572	69	54
309.686	310.062	57	31
309.911	310.572	61	36
309.911	310.572	73	43
309.911	310.572	79	43
309.911	310.572	81	43
310.129	310.878	64	37
310.348	310.878	67	32
310.572	310.878	61	35
310.572	310.878	69	42
310.572	310.878	73	42
310.572	310.878	79	42
310.572	310.817	81	42
310.817	311.544	62	35
310.817	311.544	66	35
310.817	311.544	74	42
310.817	311.544	78	42
310.817	311.544	81	42
311.532	312.225	43	34
311.532	312.206	50	38
311.532	311.981	59	38
311.532	312.225	67	60
311.756	312.225	55	38
311.981	312.225	59	40
312.206	312.893	38	35
312.206	312.893	50	39
312.206	312.657	57	38
312.206	312.893	66	63
312.431	312.893	54	38
312.657	312.893	57	40
312.883	313.553	31	31
312.883	313.553	43	31
312.883	313.33	59	38
312.883	313.553	64	60
313.106	313.534	55	42
313.33	313.553	59	37
313.553	314.234	33	36
313.553	314.234	45	40
313.553	314.007	54	38
313.553	314.234	62	63
313.78	314.225	50	42
314.007	314.234	54	42
314.234	314.971	33	31
314.234	314.971	45	35
314.234	314.971	55	38
314.234	314.971	61	59
314.462	314.971	52	42
314.689	314.971	57	42
314.916	315.589	38	34
314.916	315.589	50	38
314.916	315.143	54	38
314.916	315.589	62	59
315.143	315.589	54	34
315.37	315.589	57	38
315.37	315.589	69	46
315.37	315.589	74	46
315.37	315.589	78	46
315.589	316.277	62	48
315.81	316.373	66	42
316.039	316.331	69	48
316.277	317.162	62	36
316.331	317.162	69	36
316.386	317.162	74	48
316.44	317.162	78	52
316.494	317.162	86	58
317.146	317.806	38	36
317.146	317.806	50	40
317.146	317.586	57	40
317.146	317.806	66	65
317.366	317.806	54	40
317.586	317.806	57	43
317.806	318.493	40	37
317.806	318.493	47	42
317.806	318.257	56	40
317.806	318.493	64	67
318.032	318.493	52	40
318.257	318.493	56	43
318.483	319.154	42	37
318.483	318.93	57	40
318.483	319.154	61	65
318.707	319.134	54	46
318.93	319.154	57	39
319.154	319.824	35	38
319.154	319.824	47	43
319.154	319.6	54	40
319.154	319.824	62	67
319.377	319.814	50	46
319.6	319.824	54	46
319.824	320.531	37	32
319.824	320.276	52	37
319.824	320.531	56	46
319.824	320.531	59	64
320.05	320.531	50	46
320.276	320.531	52	46
320.502	321.17	33	36
320.502	321.17	45	40
320.502	320.727	49	40
320.502	321.17	57	64
320.727	321.17	49	35
320.951	321.17	52	39
321.17	321.92	49	38
321.17	321.621	57	50
321.391	321.92	52	35
321.391	321.92	61	44
321.621	321.858	57	38
321.621	321.912	64	50
321.858	322.731	57	37
321.912	322.731	64	37
321.965	322.715	69	50
322.019	322.731	73	52
322.072	322.731	81	55
322.715	323.389	38	31
322.715	323.389	50	35
322.715	323.389	66	36
322.715	323.389	69	55
322.94	323.389	57	36
323.164	323.389	62	37
323.389	324.076	37	31
323.389	324.076	49	36
323.389	324.076	67	36
323.389	324.067	69	58
323.615	324.076	57	36
323.841	324.076	64	37
324.067	324.802	38	29
324.067	324.802	50	32
324.067	324.802	66	36
324.067	324.802	69	55
324.29	324.802	57	37
324.513	324.737	62	35
324.737	325.458	43	32
324.737	325.458	55	37
324.737	325.191	62	36
324.737	325.458	71	58
324.964	325.458	59	37
325.191	325.458	62	37
325.418	326.099	38	29
325.418	326.099	50	32
325.418	326.099	66	36
325.418	326.099	69	54
325.645	326.099	57	37
325.872	326.099	62	37
326.099	327.536	33	31
326.099	327.536	45	35
326.099	326.549	61	36
326.099	327.21	69	54
326.324	326.7	57	31
326.549	327.21	61	36
326.549	327.21	73	43
326.549	327.21	79	43
326.549	327.21	81	43
326.767	327.536	64	37
326.986	327.536	67	32
327.21	327.536	61	35
327.21	327.536	69	42
327.21	327.536	73	42
327.21	327.536	79	42
327.21	327.455	81	42
327.455	328.192	62	35
327.455	328.192	66	35
327.455	328.192	74	42
327.455	328.192	78	42
327.455	328.192	81	42
328.17	328.843	43	34
328.17	328.843	50	38
328.17	328.619	59	38
328.17	328.843	67	60
328.394	328.843	55	38
328.619	328.843	59	40
328.843	329.531	38	35
328.843	329.531	50	39
328.843	329.295	57	38
328.843	329.531	66	63
329.069	329.531	54	38
329.295	329.531	57	40
329.521	330.191	31	31
329.521	330.191	43	35
329.521	329.968	59	38
329.521	330.191	64	60
329.744	330.172	55	42
329.968	330.191	59	37
330.191	330.872	33	36
330.191	330.872	45	40
330.191	330.645	54	38
330.191	330.872	62	63
330.418	330.863	50	42
330.645	330.872	54	42
330.872	331.554	33	31
330.872	331.554	45	35
330.872	331.554	55	38
330.872	331.554	61	59
331.1	331.554	52	42
331.327	331.554	57	42
331.554	332.227	38	34
331.554	332.227	50	38
331.554	331.781	54	38
331.554	332.227	62	59
331.781	332.227	54	34
332.008	332.227	57	38
332.008	332.227	69	46
332.008	332.227	74	46
332.008	332.227	78	46
332.227	332.895	62	48
332.447	332.895	66	42
332.677	332.915	69	48
332.915	333.89	62	36
332.99	333.89	69	36
333.065	333.515	74	52
333.14	333.89	78	55
333.215	333.89	86	60
333.515	333.89	74	51
333.89	334.265	74	54
334.265	334.64	74	51
334.64	335.012	74	54
335.012	335.383	74	49
335.383	335.751	74	54
335.751	336.115	74	50
336.115	336.462	74	47
336.115	336.813	88	57
336.115	337.166	91	57
336.115	337.602	96	63
336.462	336.813	74	40
336.462	337.166	86	49
336.462	337.518	90	49
336.462	337.602	95	55
336.813	337.166	74	41
336.813	337.518	84	50
336.813	337.602	88	57
336.813	337.602	93	57
337.166	337.518	74	40
337.166	337.602	83	49
337.166	337.602	86	49
337.166	337.602	91	56
337.518	337.871	74	46
337.518	338.943	81	56
337.518	338.943	84	56
337.518	338.943	90	62
337.871	338.231	74	39
338.231	338.584	74	47
338.231	338.943	79	51
338.231	338.943	83	51
338.231	338.943	88	58
338.584	338.943	74	44
338.943	341.827	62	47
338.943	339.655	78	55
338.943	339.655	81	55
338.943	339.655	86	61
339.296	339.655	68	48
339.296	339.655	74	50
339.296	339.655	77	50
339.296	339.655	83	57
339.655	340.457	69	50
339.655	340.004	74	57
339.655	340.37	78	57
339.655	340.457	84	63
340.004	340.457	71	51
340.004	340.37	74	52
340.004	340.457	77	52
340.004	340.457	80	59
340.37	341.827	72	48
340.37	340.729	74	58
340.37	341.827	78	58
340.37	341.827	81	64
340.729	341.095	74	42
341.095	341.461	74	44
341.461	341.827	74	42
341.827	342.174	74	44
341.827	342.523	76	50
341.827	342.875	79	57
341.827	343.313	84	57
342.174	342.523	62	38
342.174	342.875	74	44
342.174	343.23	78	49
342.174	343.313	83	49
342.523	342.875	62	41
342.523	343.23	72	45
342.523	343.313	76	45
342.523	343.313	81	50
342.875	343.23	62	38
342.875	343.313	71	45
342.875	343.313	74	45
342.875	343.313	79	50
343.23	343.58	62	44
343.23	344.646	69	49
343.23	344.646	72	49
343.23	344.646	78	56
343.58	343.938	62	38
343.938	344.288	62	44
343.938	344.646	67	46
343.938	344.646	71	46
343.938	344.646	76	51
344.288	344.646	62	39
344.646	346.923	50	41
344.646	345.393	66	50
344.646	345.393	69	50
344.646	345.393	74	57
345.014	345.393	56	42
345.014	345.393	62	46
345.014	345.393	65	46
345.014	345.393	71	51
345.393	346.144	57	45
345.393	345.762	62	51
345.393	346.144	66	51
345.393	346.144	72	58
345.762	346.144	59	46
345.762	346.144	62	49
345.762	346.144	65	49
345.762	346.144	68	55
346.144	346.533	60	48
346.144	346.923	62	55
346.144	346.923	66	55
346.144	346.923	69	61
346.533	346.923	48	52
346.923	347.316	47	56
347.316	349.14	45	55
347.657	349.14	79	54
347.702	348.059	83	59
347.747	349.14	43	52
347.747	348.104	86	65
348.015	348.721	78	49
348.059	348.415	83	52
348.104	348.459	86	57
348.372	349.076	76	52
348.415	348.764	83	57
348.459	349.167	50	43
348.459	348.808	86	61
348.721	349.14	78	50
348.764	349.122	83	53
348.808	349.14	86	57
349.076	350.518	76	53
349.122	349.853	83	58
349.167	350.518	55	44
349.167	350.518	59	44
349.167	349.899	86	64
349.807	350.539	74	50
349.853	350.539	83	57
349.899	351.32	50	39
349.899	350.539	86	64
350.539	351.28	78	51
350.584	351.32	84	55
350.628	351.324	45	50
350.628	351.32	86	59
350.896	351.237	74	49
350.941	351.32	77	51
350.986	351.32	83	54
351.237	351.637	74	52
351.28	352.014	78	55
351.324	352.818	50	39
351.324	352.014	84	60
351.591	352.014	71	43
351.637	352.006	74	50
351.683	352.014	80	54
351.957	353.577	72	50
352.006	353.577	74	53
352.054	353.577	54	42
352.054	353.577	60	42
352.054	353.577	81	58
352.818	353.577	50	39
353.487	354.908	78	54
353.532	353.89	84	59
353.577	355.014	45	50
353.577	353.935	86	65
353.845	354.553	76	49
353.89	354.247	84	52
353.935	354.292	86	57
354.202	355.014	74	53
354.247	354.597	84	57
354.292	355.014	50	43
354.292	354.641	86	60
354.553	355.014	76	50
354.597	354.954	84	53
354.641	355.0	86	57
354.908	357.154	78	53
354.954	355.686	84	58
355.0	357.154	54	44
355.0	357.154	60	44
355.0	355.732	86	64
355.64	357.07	74	50
355.686	357.154	84	57
355.732	357.154	50	39
355.732	356.46	86	64
356.372	356.769	79	51
356.416	357.154	83	55
356.46	357.158	43	50
356.46	357.154	86	59
356.725	357.154	73	50
356.769	357.114	79	52
356.813	357.154	82	54
357.07	357.839	74	52
357.114	357.888	79	55
357.158	357.914	50	39
357.158	357.914	83	59
357.425	357.914	70	48
357.471	357.914	73	50
357.517	357.914	78	54
357.791	359.392	71	50
357.839	359.392	74	53
357.888	359.392	55	42
357.888	359.392	59	42
357.888	359.302	79	55
358.628	359.392	50	35
359.302	360.842	79	54
359.347	359.704	83	59
359.392	360.842	43	50
359.392	359.749	86	65
359.66	360.368	78	49
359.704	360.062	83	52
359.749	360.106	86	57
360.017	360.723	76	53
360.062	360.411	83	57
360.106	360.842	50	43
360.106	360.455	86	60
360.368	360.842	78	50
360.411	360.769	83	53
360.455	360.814	86	57
360.723	362.274	76	53
360.769	361.5	83	58
360.814	362.274	55	44
360.814	362.274	59	44
360.814	361.546	86	63
361.455	362.274	74	53
361.5	362.274	83	55
361.546	362.274	50	39
361.546	362.23	86	60
362.186	362.581	81	55
362.23	362.625	86	61
362.274	362.967	45	50
362.274	362.962	90	66
362.537	362.962	78	52
362.581	362.962	81	55
362.625	362.962	86	58
362.879	363.715	69	49
362.922	363.233	74	54
362.967	363.715	50	39
362.967	363.278	78	58
363.233	363.596	74	51
363.278	363.645	78	55
363.322	363.715	83	59
363.596	365.187	74	52
363.645	365.143	78	57
363.693	365.187	54	42
363.693	365.187	81	58
364.43	365.187	57	38
365.099	365.496	75	55
365.143	365.54	78	61
365.187	365.884	59	50
365.187	365.88	83	66
365.452	365.796	71	52
365.496	365.839	75	55
365.54	365.88	78	58
365.796	366.15	71	52
365.839	366.196	75	57
365.884	366.61	66	39
365.884	366.61	77	63
366.15	366.517	71	51
366.196	366.61	75	55
366.242	366.61	78	59
366.517	366.866	71	55
366.56	366.909	76	61
366.604	367.296	52	44
366.604	367.291	81	66
366.866	367.208	71	58
366.909	367.252	76	60
366.953	367.291	80	64
367.208	367.608	71	52
367.252	367.654	76	59
367.296	368.117	59	39
367.296	368.117	79	63
367.562	367.928	67	44
367.608	368.117	71	52
367.654	368.117	76	55
367.928	368.117	67	55
367.972	368.117	73	61
368.017	368.196	57	50
368.017	368.117	78	66
368.642	368.888	67	52
368.685	368.888	73	59
368.728	368.909	45	39
368.728	368.888	76	64
369.366	369.766	66	55
369.411	369.766	69	61
369.454	369.791	50	44
369.454	369.766	74	66
369.791	370.138	48	58
370.138	370.492	47	57
370.492	370.8	45	54
370.8	372.332	79	54
370.845	371.203	83	59
370.89	372.332	43	50
370.89	371.247	86	65
371.158	371.864	78	49
371.203	371.559	83	52
371.247	371.603	86	57
371.515	372.219	76	54
371.559	371.908	83	57
371.603	372.332	50	43
371.603	371.951	86	60
371.864	372.332	78	50
371.908	372.265	83	53
371.951	372.311	86	57
372.219	373.77	76	53
372.265	372.997	83	58
372.311	373.77	55	44
372.311	373.77	59	44
372.311	373.042	86	64
372.951	373.77	74	50
372.997	373.77	83	57
373.042	373.77	50	39
373.042	373.77	86	61
373.683	374.415	78	51
373.726	374.456	84	55
373.77	374.46	45	50
373.77	374.456	86	59
374.033	374.373	74	49
374.077	374.456	77	51
374.121	374.456	83	54
374.373	374.772	74	52
374.415	375.21	78	55
374.46	375.21	50	39
374.46	375.21	84	59
374.726	375.21	71	46
374.772	375.141	74	50
374.818	375.21	80	52
375.093	376.713	72	50
375.141	376.713	74	53
375.19	376.713	54	42
375.19	376.713	60	42
375.19	376.713	81	58
375.954	376.713	50	39
376.623	378.044	78	54
376.668	377.025	84	59
376.713	378.145	45	50
376.713	377.07	86	65
376.981	377.689	76	49
377.025	377.383	84	52
377.07	377.427	86	57
377.338	378.145	74	53
377.383	377.733	84	55
377.427	378.145	50	43
377.427	377.776	86	59
377.689	378.145	76	50
377.733	378.09	84	53
377.776	378.135	86	57
378.044	379.596	78	53
378.09	378.821	84	58
378.135	379.596	54	44
378.135	379.596	60	44
378.135	378.867	86	64
378.776	379.596	74	50
378.821	379.596	84	57
378.867	379.596	50	39
378.867	379.596	86	64
379.507	379.903	79	51
379.552	380.287	83	55
379.596	380.291	43	50
379.596	380.287	86	59
379.86	380.287	73	50
379.903	380.247	79	52
379.946	380.287	82	54
380.203	380.969	74	52
380.247	381.017	79	55
380.291	381.07	50	39
380.291	381.07	83	59
380.558	381.07	70	43
380.602	381.07	73	48
380.646	381.07	78	53
380.921	382.522	71	47
380.969	382.522	74	53
381.017	382.522	55	42
381.017	382.522	59	42
381.017	382.431	79	54
381.758	382.522	50	35
382.431	383.955	79	54
382.476	382.834	83	59
382.522	383.955	43	50
382.522	382.879	86	65
382.79	383.498	78	49
382.834	383.191	83	52
382.879	383.236	86	57
383.147	383.853	76	52
383.191	383.541	83	57
383.236	383.955	50	43
383.236	383.585	86	59
383.498	383.955	78	50
383.541	383.898	83	53
383.585	383.944	86	57
383.853	385.404	76	53
383.898	384.63	83	58
383.944	385.404	55	44
383.944	385.404	59	44
383.944	384.676	86	64
384.584	385.404	74	49
384.63	385.404	83	55
384.676	385.404	50	39
384.676	385.404	86	59
385.316	386.007	79	55
385.36	385.711	84	61
385.404	386.092	48	50
385.404	386.05	88	66
385.667	386.088	78	52
385.711	386.088	84	55
385.755	386.088	87	58
386.007	386.776	79	52
386.05	386.842	88	59
386.092	386.842	55	39
386.092	386.824	84	64
386.361	386.842	75	50
386.407	386.842	78	55
386.453	386.842	83	59
386.728	388.051	76	52
386.776	388.051	79	57
386.824	388.051	60	42
386.824	388.051	84	58
387.562	389.041	55	38
388.231	388.623	79	55
388.274	388.666	83	61
388.318	389.692	62	50
388.318	389.041	86	66
388.579	389.041	74	52
388.623	389.041	79	55
388.666	389.041	83	58
388.926	389.631	72	51
388.97	389.631	76	57
389.013	389.631	81	60
389.267	389.631	71	52
389.31	389.631	74	55
389.352	389.631	79	59
389.606	390.382	70	54
389.649	390.382	73	57
389.692	391.108	62	44
389.692	390.382	78	59
389.951	390.382	69	48
389.994	390.382	72	50
390.038	390.382	77	52
390.298	391.203	68	50
390.342	391.203	71	51
390.386	391.203	76	54
390.653	391.203	67	48
390.699	391.203	70	52
390.745	391.203	75	55
391.019	391.449	66	49
391.063	391.449	72	54
391.108	391.449	62	46
391.108	391.449	74	57
391.79	392.471	62	45
391.79	392.471	66	51
391.79	392.471	72	75
391.79	392.471	74	75
391.79	392.471	81	85
392.471	392.818	55	42
392.471	392.818	62	42
392.471	392.818	67	48
392.471	392.818	71	69
392.471	392.818	74	69
392.471	392.818	79	78
393.165	393.531	67	52
393.165	393.531	74	58
393.165	393.531	79	80
393.165	393.531	83	80
393.165	393.531	91	90
393.897	395.439	38	66
393.897	395.439	62	79
393.897	395.439	66	79
393.897	395.439	69	79
393.897	394.94	74	86
394.275	395.439	42	63
394.654	395.439	45	63
394.654	395.334	86	78
394.749	395.231	81	75
394.844	395.132	78	72
394.94	395.035	74	70
395.035	395.439	50	63
395.035	395.439	74	68
395.132	395.439	78	69
395.231	395.439	81	73
395.334	395.439	86	77
395.439	397.04	45	66
395.439	397.04	61	82
395.439	396.963	64	82
395.439	397.04	69	82
395.439	396.48	73	90
395.817	397.04	49	66
396.196	397.04	52	63
396.196	396.863	85	75
396.291	396.765	81	73
396.385	396.669	76	71
396.48	396.575	73	69
396.575	397.04	57	63
396.575	397.04	73	68
396.669	397.04	76	70
396.765	397.04	81	72
396.863	397.04	85	74
396.963	398.568	40	62
396.963	398.568	59	79
396.963	398.495	64	79
396.963	398.568	68	79
396.963	398.006	71	86
397.342	398.568	44	59
397.72	398.568	47	60
397.72	398.394	83	73
397.816	398.295	80	72
397.911	398.197	76	71
398.006	398.102	71	70
398.102	398.568	52	60
398.102	398.568	71	68
398.197	398.568	76	71
398.295	398.568	80	73
398.394	398.568	83	77
398.495	400.138	45	66
398.495	400.138	61	82
398.495	400.138	64	82
398.495	400.026	69	82
398.495	399.535	73	90
398.874	400.138	49	61
399.252	400.138	52	61
399.252	399.924	85	75
399.347	399.824	81	73
399.442	399.726	76	71
399.535	399.631	73	70
399.631	400.026	57	61
399.631	400.138	73	68
399.726	400.138	76	68
399.824	400.138	81	71
399.924	400.138	85	74
400.026	401.632	38	62
400.026	401.632	57	78
400.026	401.555	62	78
400.026	401.632	66	78
400.026	401.069	69	85
400.405	401.632	42	58
400.783	401.632	45	58
400.783	401.455	81	71
400.878	401.357	78	69
400.974	401.26	74	68
401.069	401.165	69	66
401.165	401.632	50	58
401.165	401.632	69	63
401.26	401.632	74	67
401.357	401.632	78	70
401.455	401.632	81	73
401.555	403.264	43	66
401.555	403.264	59	82
401.555	403.264	62	82
401.555	403.081	67	82
401.555	402.597	71	90
401.933	403.264	47	62
402.312	403.264	50	62
402.312	402.981	83	75
402.407	402.882	79	74
402.502	402.786	74	73
402.597	402.691	71	71
402.691	403.264	55	62
402.691	403.264	71	70
402.786	403.264	74	70
402.882	403.264	79	73
402.981	403.264	83	78
403.081	404.672	45	70
403.081	404.672	61	84
403.081	404.672	64	84
403.081	404.672	67	84
403.081	404.126	73	92
403.459	404.672	52	62
403.838	404.672	55	62
403.838	404.52	85	78
403.934	404.417	81	77
404.029	404.318	79	75
404.126	404.221	73	74
404.221	404.672	57	62
404.221	404.672	73	74
404.318	404.672	79	74
404.417	404.672	81	79
404.52	404.672	85	83
404.627	408.335	38	73
404.627	408.335	50	73
404.627	404.817	62	89
404.627	405.006	66	89
404.627	405.195	69	89
404.627	405.384	74	97
404.817	408.335	62	71
405.006	408.335	66	71
405.195	405.384	69	71
405.384	405.511	69	57
405.384	405.639	74	74
405.511	408.335	69	59
405.511	405.769	78	68
405.639	406.166	74	60
405.639	405.9	81	70
405.769	408.335	78	61
405.769	406.032	86	72
405.9	406.166	81	63
405.9	406.166	90	75
406.032	406.166	86	64
406.032	408.335	93	78
406.166	408.398	74	66
406.166	408.398	81	66
406.166	408.398	86	81
406.166	408.398	90	81
406.166	408.398	98	81
409.121	410.663	38	66
409.121	410.663	62	79
409.121	410.663	66	79
409.121	410.663	69	79
409.121	410.558	74	86
409.499	410.663	42	63
409.878	410.663	45	63
409.878	410.663	98	75
409.973	410.663	93	74
410.069	410.663	90	73
410.164	410.259	86	73
410.259	410.663	50	63
410.259	410.663	86	72
410.356	410.663	81	71
410.456	410.663	78	70
410.558	410.663	74	72
410.663	412.219	36	66
410.663	412.205	63	79
410.663	412.205	67	79
410.663	412.219	72	79
410.663	412.1	75	86
411.041	412.205	39	63
411.42	412.219	43	63
411.42	412.219	99	72
411.515	412.219	96	72
411.61	412.219	91	71
411.706	411.801	87	70
411.801	412.219	48	63
411.801	412.219	87	70
411.898	412.219	84	69
411.998	412.219	79	68
412.1	412.219	75	68
412.205	413.747	39	66
412.205	413.747	58	79
412.205	413.747	63	79
412.205	413.747	67	79
412.205	413.642	70	86
412.583	413.747	43	63
412.962	413.747	46	63
412.962	413.747	94	72
413.057	413.747	91	72
413.152	413.747	87	71
413.248	413.343	82	70
413.343	413.747	51	63
413.343	413.747	82	70
413.44	413.747	79	69
413.539	413.747	75	68
413.642	413.747	70	68
413.747	415.357	34	66
413.747	415.357	58	79
413.747	415.357	62	79
413.747	415.357	65	79
413.747	415.184	70	86
414.125	415.357	38	63
414.504	415.357	41	63
414.504	415.357	94	72
414.599	415.357	89	72
414.694	415.357	86	71
414.79	414.885	82	70
414.885	415.357	46	63
414.885	415.357	82	70
414.982	415.357	77	69
415.081	415.357	74	68
415.184	415.357	70	68
415.289	416.048	36	66
415.289	416.048	48	66
415.289	416.11	55	79
415.289	416.048	60	79
415.289	416.048	63	79
415.289	416.11	67	86
415.673	416.11	39	66
415.673	416.11	51	66
416.048	416.808	36	66
416.048	416.808	48	66
416.048	416.808	56	79
416.048	416.808	60	79
416.048	416.808	63	79
416.048	416.808	68	86
416.421	416.808	32	66
416.421	416.808	44	66
416.808	418.35	34	66
416.808	418.35	58	79
416.808	418.35	63	79
416.808	418.381	67	79
416.808	418.245	70	86
417.186	418.381	39	63
417.565	418.381	43	63
417.565	418.381	94	72
417.66	418.381	91	72
417.756	418.381	87	71
417.851	417.946	82	70
417.946	418.381	46	63
417.946	418.381	82	70
418.043	418.381	79	69
418.143	418.381	75	68
418.245	418.35	70	68
418.35	419.892	34	66
418.35	419.892	58	79
418.35	419.892	63	79
418.35	419.892	66	79
418.35	419.787	70	86
418.728	419.892	39	63
419.107	419.892	42	63
419.107	419.892	94	72
419.202	419.892	90	72
419.297	419.892	87	71
419.393	419.488	82	70
419.488	419.892	46	63
419.488	419.892	82	70
419.585	419.892	78	69
419.685	419.892	75	68
419.787	419.892	70	68
419.892	421.434	34	66
419.892	421.434	58	79
419.892	421.464	63	79
419.892	421.464	65	79
419.892	421.329	70	86
420.27	421.464	39	63
420.649	421.464	41	63
420.649	421.464	94	72
420.744	421.464	89	72
420.839	421.464	87	71
420.935	421.03	82	70
421.03	421.464	46	63
421.03	421.464	82	70
421.127	421.464	77	69
421.226	421.464	75	68
421.329	421.434	70	68
421.434	422.976	34	66
421.434	422.976	58	79
421.434	422.976	62	79
421.434	422.976	68	79
421.434	422.871	70	86
421.812	422.976	41	63
422.191	422.976	44	63
422.191	422.976	94	72
422.286	422.976	92	72
422.381	422.976	86	71
422.477	422.572	82	70
422.572	422.976	46	63
422.572	422.976	82	70
422.669	422.976	80	69
422.768	422.976	74	68
422.871	422.976	70	68
422.976	424.616	58	70
423.075	424.616	65	63
423.174	423.472	68	63
423.274	423.57	70	63
423.373	424.616	62	67
423.472	424.616	68	62
423.57	423.768	70	60
423.669	424.16	74	60
423.768	426.143	70	75
423.866	424.616	77	67
423.964	424.258	80	67
424.062	424.357	82	67
424.16	424.555	74	76
424.258	424.555	80	79
424.357	424.555	82	83
424.456	424.616	86	87
424.555	424.819	74	75
424.555	424.819	80	75
424.555	424.819	82	90
424.687	424.952	89	51
424.687	424.952	92	51
424.687	424.952	94	51
424.687	424.952	101	68
424.819	425.084	74	70
424.819	425.084	80	70
424.819	425.084	82	84
424.952	425.215	89	51
424.952	425.215	92	51
424.952	425.215	94	51
424.952	425.215	101	67
425.084	425.345	74	70
425.084	425.345	80	70
425.084	425.345	82	84
425.215	425.477	89	50
425.215	425.477	92	50
425.215	425.477	94	50
425.215	425.477	101	67
425.345	425.609	74	74
425.345	425.609	80	74
425.345	425.609	82	88
425.477	425.741	89	50
425.477	425.741	92	50
425.477	425.741	94	50
425.477	425.741	101	67
425.609	425.875	74	73
425.609	425.875	80	73
425.609	425.875	82	86
425.741	426.008	89	52
425.741	426.008	92	52
425.741	426.008	94	52
425.741	426.008	101	69
425.875	426.153	74	73
425.875	426.153	80	73
425.875	426.153	82	86
426.008	426.153	89	53
426.008	426.153	92	53
426.008	426.153	94	53
426.008	426.153	101	73
426.143	426.413	62	71
426.143	426.413	68	71
426.143	426.413	70	83
426.278	426.549	77	67
426.278	426.549	80	67
426.278	426.549	82	67
426.278	426.549	89	80
426.413	426.685	62	71
426.413	426.685	68	71
426.413	426.685	70	83
426.549	426.822	77	61
426.549	426.822	80	61
426.549	426.822	82	61
426.549	426.822	89	73
426.685	426.959	62	71
426.685	426.959	68	71
426.685	426.959	70	83
426.822	427.098	77	61
426.822	427.098	80	61
426.822	427.098	82	61
426.822	427.098	89	73
426.959	427.244	62	73
426.959	427.244	68	73
426.959	427.244	70	89
427.098	427.397	77	67
427.098	427.397	80	67
427.098	427.397	82	67
427.098	427.397	89	79
427.244	427.779	62	70
427.244	427.779	68	70
427.244	427.728	70	82
427.397	427.779	77	61
427.397	427.779	80	61
427.397	427.728	82	61
427.397	427.779	89	72
427.558	429.835	34	89
427.558	429.835	46	105
427.728	427.908	70	81
427.728	427.908	82	96
427.908	429.835	39	70
427.908	429.835	51	84
427.908	429.835	70	70
427.908	429.517	75	70
427.908	429.835	79	84
427.908	429.835	82	92
428.232	428.556	55	50
428.232	428.556	58	50
428.232	428.556	63	59
428.556	428.88	55	51
428.556	428.88	58	51
428.556	428.88	63	60
428.88	429.199	55	53
428.88	429.199	58	53
428.88	429.199	63	63
429.199	429.835	55	50
429.199	429.835	58	50
429.199	429.517	63	60
429.517	429.835	56	55
429.517	429.835	60	65
429.517	429.835	63	65
429.517	429.835	72	67
429.517	429.835	75	79
429.517	429.835	80	79
429.517	429.835	84	86
429.835	430.159	55	61
429.835	430.159	58	61
429.835	430.159	63	72
429.835	430.811	70	69
429.835	430.811	75	69
429.835	430.811	79	82
429.835	430.811	82	90
430.159	430.479	55	52
430.159	430.479	58	52
430.159	430.479	63	62
430.479	430.811	55	52
430.479	430.811	58	52
430.479	430.811	63	62
430.811	431.663	39	66
430.811	431.663	51	77
430.811	431.783	67	70
430.811	431.783	70	70
430.811	431.783	75	84
430.811	431.783	79	92
431.135	431.455	55	50
431.135	431.455	58	50
431.135	431.455	63	60
431.455	431.783	55	50
431.455	431.783	58	50
431.455	431.783	63	60
431.783	432.732	41	80
431.783	432.107	53	80
431.783	432.75	68	72
431.783	432.75	70	72
431.783	432.75	74	85
431.783	432.75	80	93
432.107	432.426	53	49
432.107	432.426	56	49
432.107	432.426	58	49
432.107	432.426	62	58
432.426	432.75	53	49
432.426	432.75	56	49
432.426	432.75	58	49
432.426	432.75	62	58
432.75	433.715	43	63
432.75	433.072	55	75
432.75	433.715	70	73
432.75	433.715	75	73
432.75	433.715	79	86
432.75	433.715	82	94
433.072	433.394	55	53
433.072	433.394	58	53
433.072	433.394	63	63
433.394	433.715	55	53
433.394	433.715	58	53
433.394	433.715	63	63
433.715	435.57	41	66
433.715	435.57	53	77
433.715	435.57	68	73
433.715	435.301	70	73
433.715	435.301	74	86
433.715	435.57	80	94
434.035	434.354	56	51
434.035	434.354	58	51
434.035	434.354	62	61
434.354	434.672	56	48
434.354	434.672	58	48
434.354	434.672	62	57
434.672	434.986	56	50
434.672	434.986	58	50
434.672	434.986	62	60
434.986	435.301	56	48
434.986	435.301	58	48
434.986	435.301	62	57
435.301	435.621	56	48
435.301	435.621	58	48
435.301	435.621	62	57
435.301	435.621	67	69
435.301	435.621	70	69
435.301	435.621	74	82
435.301	435.621	79	90
435.621	436.593	46	80
435.621	436.593	65	67
435.621	436.593	68	67
435.621	436.593	74	80
435.621	436.593	77	88
435.945	436.269	56	47
435.945	436.269	58	47
435.945	436.269	62	56
436.269	436.593	56	46
436.269	436.593	58	46
436.269	436.593	62	56
436.593	439.509	39	68
436.593	438.53	51	81
436.593	437.56	67	74
436.593	437.56	70	74
436.593	437.56	75	89
436.593	438.53	79	97
436.917	437.237	55	57
436.917	437.237	58	57
436.917	437.237	63	68
437.237	437.56	55	53
437.237	437.56	58	53
437.237	437.56	63	63
437.56	437.884	55	52
437.56	437.884	58	52
437.56	437.884	63	62
437.56	439.509	67	77
437.56	438.53	70	77
437.56	438.53	75	99
437.884	438.202	55	52
437.884	438.202	58	52
437.884	438.202	63	62
438.202	438.852	55	52
438.202	438.852	58	52
438.202	438.852	63	62
438.53	439.509	51	73
438.53	439.509	70	73
438.53	439.509	75	73
438.53	439.509	79	86
438.53	439.509	82	94
438.852	439.174	55	56
438.852	439.174	58	56
438.852	439.174	63	67
439.174	439.509	55	56
439.174	439.509	58	56
439.174	439.509	63	67
439.509	441.496	38	66
439.509	441.415	50	77
439.509	441.496	70	75
439.509	441.415	74	75
439.509	441.095	77	90
439.509	441.415	82	99
439.83	440.148	53	51
439.83	440.148	58	51
439.83	440.148	62	61
440.148	440.466	53	48
440.148	440.466	58	48
440.148	440.466	62	57
440.466	440.781	53	51
440.466	440.781	58	51
440.466	440.781	62	61
440.781	441.095	53	46
440.781	441.095	58	46
440.781	441.095	62	56
441.095	441.496	53	48
441.095	441.496	58	48
441.095	441.496	62	57
441.095	441.496	72	84
441.095	441.415	77	84
441.095	441.496	84	100
441.415	442.395	50	70
441.415	442.395	74	67
441.415	442.395	77	67
441.415	442.395	82	93
441.415	442.395	86	102
441.739	442.063	53	53
441.739	442.063	58	53
441.739	442.063	62	63
442.063	442.395	53	53
442.063	442.395	58	53
442.063	442.395	62	63
442.395	443.352	36	66
442.395	443.352	48	77
442.395	444.382	75	88
442.395	443.352	79	88
442.395	443.981	84	104
442.395	444.382	87	104
442.716	443.034	55	53
442.716	443.034	60	53
442.716	443.034	63	63
443.034	443.352	55	53
443.034	443.352	60	53
443.034	443.352	63	63
443.352	444.382	41	57
443.352	443.666	53	68
443.352	443.981	81	96
443.666	443.981	53	50
443.666	443.981	57	50
443.666	443.981	63	60
443.981	444.382	53	48
443.981	444.382	57	48
443.981	444.382	63	57
443.981	444.301	77	84
443.981	444.382	81	84
443.981	444.382	84	100
443.981	444.382	89	100
444.301	445.273	46	60
444.301	444.625	58	70
444.301	445.273	74	86
444.301	445.273	77	86
444.301	445.273	82	102
444.301	445.273	86	102
444.625	444.949	53	46
444.625	444.949	58	46
444.625	444.949	62	55
444.949	445.273	53	46
444.949	445.273	58	46
444.949	445.273	62	56
445.273	446.23	36	66
445.273	446.23	48	77
445.273	446.23	72	74
445.273	446.23	75	74
445.273	446.23	79	88
445.273	446.23	84	96
445.594	445.912	55	53
445.594	445.912	60	53
445.594	445.912	63	64
445.912	446.23	55	53
445.912	446.23	60	53
445.912	446.23	63	64
446.23	447.165	41	62
446.23	446.545	53	74
446.23	448.162	72	75
446.23	448.162	75	75
446.23	448.162	81	90
446.23	448.162	84	99
446.545	446.859	53	51
446.545	446.859	57	51
446.545	446.859	63	60
446.859	447.179	53	51
446.859	447.179	57	51
446.859	447.179	63	60
447.179	447.503	57	61
447.179	447.503	63	61
447.179	447.503	65	61
447.503	448.162	57	57
447.503	448.162	63	57
447.503	447.827	65	57
447.827	448.162	58	47
447.827	448.162	62	47
447.827	448.162	65	56
447.827	448.162	70	70
447.827	448.162	74	70
447.827	448.162	77	84
447.827	448.162	82	92
448.162	451.073	34	66
448.162	451.073	46	77
448.162	450.099	70	74
448.162	450.099	74	74
448.162	450.099	77	89
448.162	450.099	82	97
448.486	448.807	53	47
448.486	448.807	58	47
448.486	448.807	62	57
448.807	449.129	53	47
448.807	449.129	58	47
448.807	449.129	62	57
449.129	449.453	53	47
449.129	449.453	58	47
449.129	449.453	62	57
449.453	449.771	53	47
449.453	449.771	58	47
449.453	449.771	62	57
449.771	451.073	53	47
449.771	450.099	58	47
449.771	450.099	62	57
450.099	450.417	58	47
450.099	450.417	62	47
450.099	450.417	65	58
450.099	451.073	70	75
450.099	451.073	74	75
450.099	451.073	77	90
450.099	451.073	82	99
450.417	450.738	58	51
450.417	450.738	62	51
450.417	450.738	65	61
450.738	451.073	58	56
450.738	451.073	62	56
450.738	451.073	65	66
451.073	452.929	46	82
451.073	452.929	70	78
451.073	452.929	74	78
451.073	452.659	77	92
451.073	452.929	82	101
451.394	451.712	56	51
451.394	451.712	58	51
451.394	451.712	62	61
451.712	452.03	56	49
451.712	452.03	58	49
451.712	452.03	62	58
452.03	452.345	56	56
452.03	452.345	58	56
452.03	452.345	62	66
452.345	452.659	56	51
452.345	452.659	58	51
452.345	452.659	62	60
452.659	452.979	56	52
452.659	452.979	58	52
452.659	452.979	62	62
452.659	452.979	72	75
452.659	452.979	77	75
452.659	452.979	80	90
452.659	452.979	84	99
452.979	453.959	46	73
452.979	453.959	74	80
452.979	453.959	77	80
452.979	453.959	82	94
452.979	453.959	86	103
453.303	453.627	56	56
453.303	453.627	58	56
453.303	453.627	62	66
453.627	453.959	56	56
453.627	453.959	58	56
453.627	453.959	62	66
453.959	456.837	43	68
453.959	454.28	55	80
453.959	455.865	75	85
453.959	455.865	79	85
453.959	455.865	82	101
453.959	456.837	87	111
454.28	454.598	55	53
454.28	454.598	58	53
454.28	454.598	63	63
454.598	454.916	55	53
454.598	454.916	58	53
454.598	454.916	63	63
454.916	455.23	55	52
454.916	455.23	58	52
454.916	455.23	63	62
455.23	455.545	55	52
455.23	455.545	58	52
455.23	455.545	63	62
455.545	456.837	55	50
455.545	455.865	58	50
455.545	455.865	63	60
455.865	456.189	58	48
455.865	456.189	63	48
455.865	456.189	67	57
455.865	456.837	70	74
455.865	456.837	75	74
455.865	456.837	79	88
455.865	456.837	82	96
456.189	456.513	58	48
456.189	456.513	63	48
456.189	456.513	67	57
456.513	456.837	58	48
456.513	456.837	63	48
456.513	456.837	67	58
456.837	458.693	41	66
456.837	457.158	53	77
456.837	458.693	70	75
456.837	458.423	75	90
456.837	458.693	82	99
457.158	457.476	53	51
457.158	457.476	60	51
457.158	457.476	63	61
457.476	457.794	53	48
457.476	457.794	60	48
457.476	457.794	63	57
457.794	458.109	53	51
457.794	458.109	60	51
457.794	458.109	63	61
458.109	458.423	53	46
458.109	458.423	60	46
458.109	458.423	63	56
458.423	458.743	53	48
458.423	458.743	60	48
458.423	458.743	63	57
458.423	458.743	72	70
458.423	458.743	75	70
458.423	458.743	84	92
458.743	459.723	46	55
458.743	459.391	70	74
458.743	459.391	74	74
458.743	459.723	80	96
459.067	459.391	56	49
459.067	459.391	58	49
459.067	459.391	62	58
459.391	459.723	56	49
459.391	459.723	58	49
459.391	459.723	62	58
459.391	459.723	70	69
459.391	459.723	74	69
459.391	459.723	82	90
459.723	461.66	39	62
459.723	460.047	51	74
459.723	460.689	67	73
459.723	460.689	70	73
459.723	460.689	75	86
459.723	462.639	79	94
460.047	460.367	51	49
460.047	460.367	55	49
460.047	460.367	58	59
460.367	460.689	51	49
460.367	460.689	55	49
460.367	460.689	58	59
460.689	461.013	51	49
460.689	461.013	55	49
460.689	461.013	58	59
460.689	461.66	63	72
460.689	461.66	67	72
460.689	461.66	70	85
460.689	461.66	75	93
461.013	461.332	51	49
461.013	461.332	55	49
461.013	461.332	58	59
461.332	461.66	51	49
461.332	461.982	55	49
461.332	461.982	58	59
461.66	462.639	39	55
461.66	461.982	51	64
461.66	462.639	63	70
461.66	462.639	67	70
461.66	462.639	70	84
461.66	462.639	75	92
461.982	462.304	51	50
461.982	462.304	55	50
461.982	462.304	58	61
462.304	462.639	51	50
462.304	462.639	55	50
462.304	462.639	58	61
462.639	464.494	36	66
462.639	464.494	48	77
462.639	464.494	68	75
462.639	464.494	72	75
462.639	464.225	75	90
462.639	464.494	80	99
462.96	463.278	60	61
462.96	463.278	63	61
463.278	463.596	60	57
463.278	463.596	63	57
463.596	463.911	60	61
463.596	463.911	63	61
463.911	464.494	60	56
463.911	464.225	63	56
464.225	464.545	58	57
464.225	464.545	63	57
464.225	464.545	70	74
464.225	464.545	75	74
464.225	464.545	79	88
464.225	464.545	82	96
464.545	464.869	56	57
464.545	464.869	63	57
464.545	465.193	72	77
464.545	465.193	75	77
464.545	465.193	80	91
464.545	465.525	84	100
464.869	465.525	56	63
464.869	465.193	63	63
465.193	465.525	60	63
465.193	465.525	63	63
465.193	465.525	68	74
465.193	465.525	72	74
465.193	465.525	75	88
465.193	465.525	80	96
465.525	466.482	38	63
465.525	466.482	50	75
465.525	467.416	70	75
465.525	467.111	74	75
465.525	467.111	77	90
465.525	467.416	82	99
465.845	466.164	53	49
465.845	466.164	58	49
465.845	466.164	62	59
466.164	466.482	53	49
466.164	466.482	58	49
466.164	466.482	62	59
466.482	466.796	53	47
466.482	466.796	58	47
466.482	466.796	62	57
466.796	467.111	53	47
466.796	467.111	58	47
466.796	467.111	62	57
467.111	467.431	53	45
467.111	467.431	58	45
467.111	467.431	62	53
467.111	467.431	68	70
467.111	467.431	74	70
467.111	467.431	77	84
467.111	467.431	80	92
467.431	468.403	39	60
467.431	468.403	51	70
467.431	468.403	67	74
467.431	468.403	70	74
467.431	468.403	75	88
467.431	468.403	79	96
467.755	468.079	55	46
467.755	468.079	58	46
467.755	468.079	63	55
468.079	468.403	55	46
468.079	468.403	58	46
468.079	468.403	63	56
468.403	469.36	41	66
468.403	468.724	53	77
468.403	469.36	68	74
468.403	469.36	72	74
468.403	469.36	75	88
468.403	469.36	80	96
468.724	469.042	53	51
468.724	469.042	60	51
468.724	469.042	63	61
469.042	469.36	53	51
469.042	469.36	60	51
469.042	469.36	63	61
469.36	470.294	34	62
469.36	470.294	46	74
469.36	471.292	65	75
469.36	470.957	70	75
469.36	471.292	74	90
469.36	471.292	77	99
469.675	469.989	56	45
469.675	469.989	58	45
469.675	469.989	62	53
469.989	470.309	56	45
469.989	470.309	58	45
469.989	470.309	62	53
470.309	470.633	56	53
470.309	470.633	58	53
470.309	470.633	62	63
470.633	471.292	56	45
470.633	471.292	58	45
470.633	471.292	62	53
470.957	471.292	39	44
470.957	471.292	51	52
470.957	471.292	63	70
470.957	471.292	67	70
470.957	471.292	70	84
470.957	471.292	75	92
471.292	472.281	27	57
471.292	472.281	39	57
471.292	471.622	63	70
471.292	471.622	67	70
471.292	471.622	70	70
471.292	472.281	75	92
471.622	471.952	63	62
471.622	471.952	67	62
471.622	471.952	70	62
471.952	472.281	63	62
471.952	472.281	67	62
471.952	472.281	70	62
472.281	472.6	39	73
472.281	472.609	63	62
472.281	472.609	67	62
472.281	472.609	70	62
472.446	472.636	38	68
472.609	472.904	39	68
472.609	472.932	63	62
472.609	472.932	67	62
472.609	472.932	70	62
472.771	472.959	41	66
472.932	473.19	43	68
472.932	473.257	63	62
472.932	473.257	67	62
472.932	473.257	70	62
473.094	473.284	46	70
473.257	473.523	51	73
473.257	473.58	63	62
473.257	473.58	67	62
473.257	473.58	70	62
473.418	473.816	50	68
473.58	473.816	51	68
473.58	473.902	63	62
473.58	473.902	67	62
473.58	473.902	70	62
473.741	474.228	53	64
473.902	474.228	55	72
473.902	474.228	63	62
473.902	474.228	67	62
473.902	474.228	70	62
474.065	474.228	58	73
474.228	474.544	51	49
474.228	474.544	56	49
474.228	474.544	59	56
474.228	475.186	75	85
474.386	475.026	71	68
474.544	474.865	51	49
474.544	474.865	56	49
474.544	474.865	59	56
474.544	474.865	68	70
474.704	475.665	65	67
474.865	475.186	51	49
474.865	475.186	56	49
474.865	475.186	59	56
474.865	475.505	68	72
475.026	475.346	71	67
475.186	475.505	51	49
475.186	475.505	56	49
475.186	475.505	59	56
475.186	476.307	75	84
475.346	475.986	71	66
475.505	475.825	51	49
475.505	475.825	56	49
475.505	475.825	59	56
475.505	475.825	68	70
475.665	477.112	65	67
475.825	476.147	51	49
475.825	476.147	56	49
475.825	476.147	59	56
475.825	476.626	68	70
475.986	476.466	71	68
476.147	476.466	51	49
476.147	476.466	56	49
476.147	476.466	59	56
476.147	477.112	77	85
476.307	476.948	75	69
476.466	476.785	51	49
476.466	476.785	56	49
476.466	476.785	59	56
476.466	476.785	71	74
476.626	477.112	68	68
476.785	477.112	51	49
476.785	477.112	56	49
476.785	477.112	59	56
476.785	477.112	71	73
476.948	477.112	75	67
477.112	478.09	27	57
477.112	478.09	39	57
477.112	477.438	67	70
477.112	477.438	70	70
477.112	477.438	75	70
477.112	478.09	79	101
477.438	477.764	67	62
477.438	477.764	70	62
477.438	477.764	75	62
477.764	478.09	67	62
477.764	478.09	70	62
477.764	478.09	75	62
478.09	478.408	39	73
478.09	478.418	67	62
478.09	478.418	70	62
478.09	478.418	75	62
478.254	478.445	38	68
478.418	478.712	39	68
478.418	478.741	67	62
478.418	478.741	70	62
478.418	478.741	75	62
478.579	478.768	41	66
478.741	478.999	43	68
478.741	479.065	67	62
478.741	479.065	70	62
478.741	479.065	75	62
478.903	479.092	46	70
479.065	479.332	51	73
479.065	479.388	67	62
479.065	479.388	70	62
479.065	479.388	75	62
479.227	479.625	50	68
479.388	479.625	51	68
479.388	479.711	67	62
479.388	479.711	70	62
479.388	479.711	75	62
479.549	480.037	53	64
479.711	480.037	55	72
479.711	480.037	67	62
479.711	480.037	70	62
479.711	480.037	75	62
479.874	480.037	58	73
480.037	480.348	51	53
480.037	480.348	56	53
480.037	480.348	59	61
480.037	480.98	87	93
480.192	480.82	83	74
480.348	480.66	51	53
480.348	480.66	56	53
480.348	480.66	59	61
480.348	480.66	80	77
480.504	481.452	77	73
480.66	480.98	51	53
480.66	480.98	56	53
480.66	480.98	59	61
480.66	481.294	80	79
480.82	481.137	83	73
480.98	481.294	51	53
480.98	481.294	56	53
480.98	481.294	59	61
480.98	482.083	87	92
481.137	481.767	83	72
481.294	481.609	51	53
481.294	481.609	56	53
481.294	481.609	59	61
481.294	481.609	80	77
481.452	482.872	77	73
481.609	481.926	51	53
481.609	481.926	56	53
481.609	481.926	59	61
481.609	482.396	80	77
481.767	482.24	83	74
481.926	482.24	51	53
481.926	482.24	56	53
481.926	482.24	59	61
481.926	482.872	89	93
482.083	482.712	87	75
482.24	482.553	51	53
482.24	482.553	56	53
482.24	482.553	59	61
482.24	482.553	83	81
482.396	482.872	80	74
482.553	482.872	51	53
482.553	482.872	56	53
482.553	482.872	59	61
482.553	482.872	83	80
482.712	482.872	87	73
482.872	485.647	27	75
482.872	485.647	39	90
482.872	483.192	79	71
482.872	483.192	82	71
482.872	483.192	87	75
482.872	483.192	91	84
483.192	483.508	79	70
483.192	483.508	82	70
483.192	483.508	87	74
483.192	483.508	91	83
483.508	483.814	79	70
483.508	483.814	82	70
483.508	483.814	87	74
483.508	483.814	91	83
483.814	485.647	62	81
483.814	485.647	74	96
483.814	484.125	79	70
483.814	484.125	82	70
483.814	484.125	87	74
483.814	484.125	91	83
484.125	484.431	79	70
484.125	484.431	82	70
484.125	484.431	87	74
484.125	484.431	91	83
484.431	484.737	79	70
484.431	484.737	82	70
484.431	484.737	87	74
484.431	484.737	91	83
484.737	485.647	60	77
484.737	485.647	72	91
484.737	485.037	79	70
484.737	485.037	82	70
484.737	485.037	87	74
484.737	485.037	91	83
485.037	485.342	79	70
485.037	485.342	82	70
485.037	485.342	87	74
485.037	485.342	91	83
485.342	485.647	79	70
485.342	485.647	82	70
485.342	485.647	87	74
485.342	485.647	91	83
485.647	488.39	58	81
485.647	488.39	70	96
485.647	485.941	79	71
485.647	485.941	82	71
485.647	485.941	87	75
485.647	488.39	91	84
485.941	486.246	75	66
485.941	486.246	79	66
485.941	486.246	82	70
485.941	486.246	87	79
486.246	486.555	75	66
486.246	486.555	79	66
486.246	486.555	82	70
486.246	486.555	87	79
486.555	488.39	55	81
486.555	488.39	67	96
486.555	486.858	75	66
486.555	486.858	79	66
486.555	486.858	82	70
486.555	486.858	87	79
486.858	487.165	75	66
486.858	487.165	79	66
486.858	487.165	82	70
486.858	487.165	87	79
487.165	487.473	75	66
487.165	487.473	79	66
487.165	487.473	82	70
487.165	487.473	87	79
487.473	488.39	51	81
487.473	488.39	63	96
487.473	487.775	75	66
487.473	487.775	79	66
487.473	487.775	82	70
487.473	487.775	87	79
487.775	488.082	75	66
487.775	488.082	79	66
487.775	488.082	82	70
487.775	488.082	87	79
488.082	488.39	75	66
488.082	488.39	79	66
488.082	488.39	82	70
488.082	488.39	87	79
488.39	491.135	48	81
488.39	491.135	60	96
488.39	488.684	75	67
488.39	488.684	79	67
488.39	488.684	82	71
488.39	491.135	87	80
488.684	488.985	70	62
488.684	488.985	75	67
488.684	488.985	79	62
488.684	488.985	82	74
488.985	489.287	70	62
488.985	489.287	75	62
488.985	489.287	79	67
488.985	489.287	82	74
489.287	491.135	46	81
489.287	491.135	58	96
489.287	489.588	70	62
489.287	489.588	75	62
489.287	489.588	79	67
489.287	489.588	82	74
489.588	489.89	70	62
489.588	489.89	75	62
489.588	489.89	79	67
489.588	489.89	82	74
489.89	490.198	70	62
489.89	490.198	75	62
489.89	490.198	79	67
489.89	490.198	82	74
490.198	491.135	43	81
490.198	491.135	55	96
490.198	490.508	70	62
490.198	490.508	75	62
490.198	490.508	79	67
490.198	490.508	82	74
490.508	490.821	70	62
490.508	490.821	75	62
490.508	490.821	79	67
490.508	490.821	82	74
490.821	491.135	70	62
490.821	491.135	75	62
490.821	491.135	79	67
490.821	491.135	82	74
491.135	491.292	39	44
491.135	491.292	46	67
491.135	493.665	63	74
491.135	493.694	67	74
491.135	493.694	70	74
491.135	493.694	75	88
491.213	491.371	51	59
491.292	491.451	39	44
491.292	491.451	46	67
491.371	491.529	51	58
491.451	491.607	39	46
491.451	491.607	46	68
491.529	491.686	51	60
491.607	491.765	39	46
491.607	491.765	46	68
491.686	491.844	51	59
491.765	491.923	39	44
491.765	491.923	46	67
491.844	492.004	51	60
491.923	492.084	39	46
491.923	492.084	46	68
492.004	492.165	51	60
492.084	492.243	39	46
492.084	492.243	46	68
492.165	492.321	51	60
492.243	492.4	39	44
492.243	492.4	46	67
492.321	492.479	51	59
492.4	492.559	39	44
492.4	492.559	46	67
492.479	492.637	51	59
492.559	492.715	39	44
492.559	492.715	46	67
492.637	492.794	51	59
492.715	492.874	39	44
492.715	492.874	46	67
492.715	493.033	79	82
492.715	493.033	82	82
492.715	493.033	87	97
492.715	493.033	91	97
492.794	492.953	51	59
492.874	493.033	39	44
492.874	493.033	46	67
492.953	493.112	51	59
493.033	493.191	39	48
493.033	493.191	46	69
493.033	493.694	79	82
493.033	493.694	82	82
493.033	493.694	87	97
493.033	493.694	91	97
493.112	493.27	51	61
493.191	493.35	39	49
493.191	493.35	46	71
493.27	493.428	51	61
493.35	493.506	39	49
493.35	493.506	46	71
493.428	493.585	51	61
493.506	493.665	39	48
493.506	493.665	46	69
493.585	493.665	51	61
493.665	493.999	39	73
493.665	493.999	46	73
493.665	494.082	51	73
493.665	493.999	55	74
493.665	493.999	58	74
493.665	494.082	63	89
493.999	494.165	39	73
493.999	494.165	46	73
493.999	494.165	55	74
493.999	494.165	58	74
494.082	494.248	51	52
494.082	494.248	63	57
494.165	494.33	39	39
494.165	494.33	46	60
494.165	494.33	55	42
494.165	494.33	58	67
494.248	494.412	51	53
494.248	494.412	63	56
494.33	494.494	39	41
494.33	494.494	46	62
494.33	494.494	55	46
494.33	494.494	58	69
494.412	494.575	51	54
494.412	494.575	63	57
494.494	494.656	39	42
494.494	494.656	46	63
494.494	494.656	55	47
494.494	494.656	58	71
494.575	494.736	51	55
494.575	494.736	63	58
494.656	494.816	39	42
494.656	494.816	46	63
494.656	494.816	55	45
494.656	494.816	58	71
494.736	494.895	51	57
494.736	494.895	63	60
494.816	494.974	39	44
494.816	494.974	46	66
494.816	494.974	55	49
494.816	494.974	58	74
494.895	495.053	51	59
494.895	495.053	63	59
494.974	495.132	39	45
494.974	495.132	46	67
494.974	495.132	55	50
494.974	495.132	58	75
495.053	495.21	51	59
495.053	495.21	63	60
495.132	495.288	39	44
495.132	495.288	46	67
495.132	495.288	55	48
495.132	495.288	58	75
495.21	495.365	51	60
495.21	495.365	63	61
495.288	495.442	39	45
495.288	495.442	46	69
495.288	495.442	55	49
495.288	495.442	58	77
495.365	495.519	51	62
495.365	495.519	63	64
495.442	495.595	39	46
495.442	495.595	46	70
495.442	495.595	55	50
495.442	495.595	58	79
495.519	495.671	51	61
495.519	495.671	63	66
495.595	495.747	39	47
495.595	495.747	46	71
495.595	495.747	55	51
495.595	495.747	58	80
495.671	495.824	51	62
495.671	495.824	63	65
495.747	495.902	39	48
495.747	495.902	46	73
495.747	495.902	55	52
495.747	495.902	58	81
495.824	495.98	51	63
495.824	495.98	63	65
495.902	496.059	39	50
495.902	496.059	46	75
495.902	496.059	55	56
495.902	496.059	58	84
495.98	496.138	51	64
495.98	496.138	63	66
496.059	496.218	39	51
496.059	496.218	46	76
496.059	496.218	55	57
496.059	496.218	58	85
496.138	496.299	51	67
496.138	496.299	63	72
496.218	496.381	39	51
496.218	496.381	46	77
496.218	496.381	55	55
496.218	496.381	58	86
496.299	496.463	51	68
496.299	496.463	63	73
496.381	496.546	39	53
496.381	496.546	46	79
496.381	496.546	55	59
496.381	496.546	58	89
496.463	496.63	51	71
496.463	496.63	63	75
496.546	496.715	39	54
496.546	496.715	46	81
496.546	496.715	55	60
496.546	496.715	58	90
496.63	496.8	51	72
496.63	496.8	63	74
496.715	496.886	39	53
496.715	498.293	46	80
496.715	498.293	55	57
496.715	498.293	58	90
496.8	498.293	51	71
496.8	498.293	63	75
496.886	498.293	27	79
496.886	498.293	39	91
496.886	498.293	75	99
496.886	498.293	79	99
496.886	498.293	82	103
496.886	498.293	87	105
