OnsetTime	OffsetTime	MidiPitch	Velocity
1.32902	1.74353	72	61
1.74353	1.95219	48	31
1.74353	1.94196	57	38
1.74353	1.95219	65	50
1.74353	1.94196	74	73
1.84057	1.95219	53	35
1.84057	2.06381	72	52
1.95219	2.06381	41	31
1.95219	2.06381	77	64
2.1843	2.40102	48	29
2.1843	2.40102	57	36
2.1843	2.40102	60	46
2.1843	2.40102	67	67
2.28135	2.40102	53	33
2.28135	2.50058	65	47
2.39098	2.50058	41	29
2.39098	2.50058	72	63
2.61595	2.82178	48	29
2.61595	2.81544	57	36
2.61595	2.82178	65	48
2.61595	2.81544	74	69
2.713	2.82178	53	33
2.713	2.93056	72	49
2.82178	2.93056	41	28
2.82178	2.93056	77	63
3.04608	3.26492	48	31
3.04608	3.26492	58	38
3.04608	3.26492	67	50
3.04608	3.26492	74	73
3.14346	3.26492	52	35
3.14346	3.36101	72	51
3.25223	3.36101	41	30
3.25223	3.36101	79	61
3.47653	3.69188	48	29
3.47653	3.69188	58	32
3.47653	3.69188	60	44
3.47653	3.69188	69	64
3.57358	3.69188	52	33
3.57358	3.79031	67	47
3.68194	3.79031	41	28
3.68194	3.79031	72	59
3.90547	4.136	48	29
3.90547	4.136	58	36
3.90547	4.136	67	48
3.90547	4.136	74	69
4.00285	4.136	52	33
4.00285	4.21876	72	52
4.11081	4.21876	41	28
4.11081	4.21876	79	66
4.33184	4.55304	48	32
4.33184	4.55304	57	39
4.33184	4.55304	69	52
4.33184	4.55304	74	76
4.42889	4.55304	53	36
4.42889	4.6448	72	53
4.53685	4.6448	41	32
4.53685	4.6448	81	65
4.75788	4.97606	50	30
4.75788	4.97606	57	37
4.75788	4.97606	65	49
4.75788	4.97606	74	71
4.8546	4.97606	53	34
4.8546	5.07215	72	49
4.96338	5.07215	41	29
4.96338	5.07215	77	63
5.18768	5.40393	50	30
5.18768	5.40393	59	37
5.18768	5.40393	74	50
5.18768	5.40393	81	72
5.28473	5.40393	53	34
5.28473	5.50312	79	54
5.39393	5.50312	43	30
5.39393	5.50312	86	66
5.62041	6.25952	55	33
5.62041	6.14906	64	40
5.62041	6.48627	67	52
5.62041	6.91332	74	76
5.71747	6.91332	58	37
5.71747	6.05101	72	57
5.82666	6.91332	48	32
5.82666	6.14906	79	66
6.05101	6.70864	60	31
6.05101	6.59257	70	38
6.05101	6.91332	72	51
6.05101	6.91332	81	72
6.14906	6.91332	64	35
6.14906	6.91332	79	51
6.25952	6.91332	55	28
6.25952	6.48627	84	64
6.48627	6.91332	67	31
6.48627	6.91332	76	38
6.48627	6.91332	84	51
6.48627	6.91332	93	75
6.59257	6.91332	70	35
6.59257	6.91332	91	53
6.70864	6.91332	60	30
6.70864	6.91332	96	69
6.98775	7.19641	48	31
6.98775	7.18618	57	38
6.98775	7.19641	65	50
6.98775	7.18618	74	73
7.08479	7.19641	53	35
7.08479	7.30803	72	51
7.19641	7.30803	41	31
7.19641	7.30803	77	69
7.43393	7.65111	48	29
7.43393	7.65111	57	36
7.43393	7.65111	60	46
7.43393	7.65111	67	67
7.53099	7.65111	53	33
7.53099	7.75107	65	47
7.64103	7.75107	41	29
7.64103	7.75107	72	65
7.87127	8.0795	48	29
7.87127	8.07301	57	36
7.87127	8.0795	65	48
7.87127	8.07301	74	69
7.96833	8.0795	53	33
7.96833	8.19068	72	53
8.0795	8.19068	41	28
8.0795	8.19068	77	67
8.30557	8.52537	48	31
8.30557	8.52537	58	38
8.30557	8.52537	67	50
8.30557	8.52537	74	73
8.40295	8.52537	52	35
8.40295	8.62219	72	51
8.51257	8.62219	41	30
8.51257	8.62219	79	65
8.73859	8.95483	48	29
8.73859	8.95483	58	32
8.73859	8.95483	60	40
8.73859	8.95483	69	64
8.83563	8.95483	52	33
8.83563	9.05402	67	47
8.94482	9.05402	41	28
8.94482	9.05402	72	63
9.16938	9.40092	48	29
9.16938	9.40092	58	36
9.16938	9.40092	67	48
9.16938	9.40092	74	69
9.26676	9.40092	52	33
9.26676	9.48431	72	49
9.37553	9.48431	41	28
9.37553	9.48431	79	66
9.60071	9.82333	48	32
9.60071	9.82333	57	39
9.60071	9.82333	69	52
9.60071	9.82333	74	76
9.69776	9.82333	53	36
9.69776	9.91615	72	53
9.80695	9.91615	41	32
9.80695	9.91615	81	70
10.0313	10.25	50	30
10.0313	10.25	59	37
10.0313	10.25	69	49
10.0313	10.25	76	71
10.128	10.25	53	34
10.128	10.3464	74	49
10.2372	10.3464	43	29
10.2372	10.3464	81	66
10.4628	10.6822	55	30
10.4628	10.6822	64	37
10.4628	10.6822	67	50
10.4628	10.6822	74	72
10.5599	10.6822	58	34
10.5599	10.7839	72	53
10.6719	10.7839	48	30
10.6719	10.7839	79	65
10.9012	12.1589	48	33
10.9012	12.1589	57	40
10.9012	11.4386	65	54
10.9012	12.1589	74	80
10.9983	11.5533	53	37
10.9983	11.791	72	57
11.1103	12.1589	41	32
11.1103	11.3405	77	71
11.3405	12.1589	60	31
11.3405	12.1589	69	38
11.3405	11.8973	77	51
11.3405	12.1589	86	72
11.4386	12.0133	65	35
11.4386	12.1589	84	51
11.5533	12.1589	53	28
11.5533	11.791	89	65
11.791	12.1589	72	31
11.791	12.1589	81	38
11.791	12.1589	89	51
11.791	12.1589	98	75
11.8973	12.1589	77	35
11.8973	12.1589	96	58
12.0133	12.1589	65	30
12.0133	12.1589	101	71
12.2884	12.4971	48	31
12.2884	12.4869	57	38
12.2884	12.4971	65	50
12.2884	12.3855	74	73
12.337	12.4413	72	58
12.3855	12.4971	53	35
12.3855	12.4869	74	63
12.4413	12.6087	72	52
12.4971	12.6087	41	31
12.4971	12.6087	77	67
12.7292	12.9459	48	29
12.7292	12.9459	57	36
12.7292	12.9459	60	46
12.7292	12.8263	67	67
12.7777	12.8811	65	53
12.8263	12.9459	53	33
12.8263	12.9459	67	57
12.8811	13.0455	65	47
12.9359	13.0455	41	29
12.9359	13.0455	72	66
13.1608	13.3667	48	29
13.1608	13.3603	57	36
13.1608	13.3667	65	48
13.1608	13.2579	74	69
13.2094	13.3123	72	55
13.2579	13.3667	53	33
13.2579	13.3603	74	59
13.3123	13.4754	72	49
13.3667	13.4754	41	28
13.3667	13.4754	77	66
13.591	13.8098	48	31
13.591	13.8098	58	38
13.591	13.8098	67	50
13.591	13.6883	74	73
13.6397	13.7427	72	57
13.6883	13.8098	52	35
13.6883	13.8098	74	63
13.7427	13.9059	72	51
13.7971	13.9059	41	30
13.7971	13.9059	79	66
14.0214	14.2367	48	29
14.0214	14.2367	58	32
14.0214	14.2367	60	40
14.0214	14.0699	69	64
14.0699	14.1726	67	53
14.1184	14.2367	52	33
14.1184	14.2367	69	57
14.1726	14.3352	67	57
14.2268	14.3352	41	28
14.2268	14.3352	72	64
14.4503	14.6809	48	29
14.4503	14.6809	58	36
14.4503	14.6809	67	48
14.4503	14.499	74	69
14.499	14.6017	72	59
14.5477	14.6809	52	33
14.5477	14.6809	74	61
14.6017	14.7636	72	52
14.6557	14.7636	41	28
14.6557	14.7636	79	65
14.8767	15.0979	48	32
14.8767	15.0979	57	39
14.8767	15.0979	69	52
14.8767	14.9737	74	76
14.9252	15.0277	72	57
14.9737	15.0979	53	36
14.9737	15.0979	74	64
15.0277	15.1896	72	53
15.0817	15.1896	41	32
15.0817	15.1896	81	66
15.3027	15.5209	50	30
15.3027	15.5209	57	37
15.3027	15.5209	65	49
15.3027	15.3994	74	71
15.3511	15.4538	72	57
15.3994	15.5209	53	34
15.3994	15.5209	74	63
15.4538	15.617	72	49
15.5082	15.617	41	29
15.5082	15.617	77	67
15.7325	15.9487	50	30
15.7325	15.9487	59	37
15.7325	15.9487	74	50
15.7325	15.8295	81	72
15.781	15.8841	79	58
15.8295	15.9487	53	34
15.8295	15.9487	81	64
15.8841	16.0479	79	54
15.9387	16.0479	43	30
15.9387	16.0479	86	71
16.1652	16.8043	55	33
16.1652	16.6939	64	40
16.1652	17.0311	67	52
16.1652	16.2623	74	76
16.2137	16.3169	72	57
16.2623	17.4581	58	37
16.2623	17.4581	74	65
16.3169	16.5958	72	57
16.3715	17.4581	48	32
16.3715	16.6448	79	70
16.5958	17.2534	60	31
16.5958	17.1374	70	38
16.5958	17.4581	72	51
16.5958	16.6939	81	72
16.6448	16.7491	79	55
16.6939	17.4581	64	35
16.6939	17.4581	81	61
16.7491	17.4581	79	51
16.8043	17.4581	55	28
16.8043	17.0311	84	64
17.0311	17.4581	67	31
17.0311	17.4581	76	38
17.0311	17.4581	84	51
17.0311	17.1374	93	75
17.0842	17.1954	91	59
17.1374	17.4581	70	35
17.1374	17.4581	93	63
17.1954	17.4581	91	53
17.2534	17.4581	60	30
17.2534	17.4581	96	72
17.5325	17.7412	48	31
17.5325	17.7309	57	38
17.5325	17.7412	65	50
17.5325	17.6296	74	73
17.581	17.6854	72	53
17.6296	17.7412	53	35
17.6296	17.7309	74	61
17.6854	17.8528	72	51
17.7412	17.8528	41	31
17.7412	17.8528	77	69
17.9787	18.1959	48	29
17.9787	18.1959	57	36
17.9787	18.1959	60	46
17.9787	18.0758	67	67
18.0272	18.1308	65	51
18.0758	18.1959	53	33
18.0758	18.1959	67	59
18.1308	18.2958	65	47
18.1858	18.2958	41	29
18.1858	18.2958	72	65
18.416	18.6243	48	29
18.416	18.6178	57	36
18.416	18.6243	65	48
18.416	18.5131	74	69
18.4646	18.5687	72	54
18.5131	18.6243	53	33
18.5131	18.6178	74	61
18.5687	18.7354	72	53
18.6243	18.7354	41	28
18.6243	18.7354	77	67
18.8503	19.0701	48	31
18.8503	19.0701	58	38
18.8503	19.0701	67	50
18.8503	18.9477	74	73
18.899	19.0025	72	58
18.9477	19.0701	52	35
18.9477	19.0701	74	65
19.0025	19.1669	72	51
19.0573	19.1669	41	30
19.0573	19.1669	79	65
19.2833	19.4996	48	29
19.2833	19.4996	58	32
19.2833	19.4996	60	40
19.2833	19.3319	69	64
19.3319	19.435	67	51
19.3804	19.4996	52	33
19.3804	19.4996	69	57
19.435	19.5988	67	47
19.4896	19.5988	41	28
19.4896	19.5988	72	63
19.7141	19.9456	48	29
19.7141	19.9456	58	36
19.7141	19.9456	67	48
19.7141	19.7628	74	69
19.7628	19.8659	72	54
19.8115	19.9456	52	33
19.8115	19.9456	74	61
19.8659	20.029	72	49
19.9203	20.029	41	28
19.9203	20.029	79	66
20.1454	20.368	48	32
20.1454	20.368	57	39
20.1454	20.368	69	52
20.1454	20.2425	74	76
20.1939	20.2971	72	59
20.2425	20.368	53	36
20.2425	20.368	74	67
20.2971	20.4609	72	53
20.3517	20.4609	41	32
20.3517	20.4609	81	70
20.576	20.7947	50	30
20.576	20.7947	59	37
20.576	20.7947	69	49
20.576	20.6727	76	71
20.6244	20.7273	74	58
20.6727	20.7947	53	34
20.6727	20.7947	76	65
20.7273	20.8911	74	49
20.7819	20.8911	43	29
20.7819	20.8911	81	66
21.0075	21.2269	48	30
21.0075	21.2269	58	37
21.0075	21.2269	67	50
21.0075	21.1046	74	72
21.056	21.1606	72	58
21.1046	21.2269	52	34
21.1046	21.2269	74	64
21.1606	21.3286	72	53
21.2166	21.3286	36	30
21.2166	21.3286	79	65
21.4459	22.7505	48	33
21.4459	22.7505	57	40
21.4459	22.0024	65	54
21.4459	21.5466	74	80
21.4963	21.6041	72	59
21.5466	22.1224	53	37
21.5466	22.7505	74	66
21.6041	22.3717	72	57
21.6615	22.7505	41	32
21.6615	21.8989	77	71
21.8989	22.7505	60	31
21.8989	22.7505	69	38
21.8989	22.478	77	51
21.8989	22.0024	86	72
21.9506	22.0624	84	55
22.0024	22.594	65	35
22.0024	22.7505	86	61
22.0624	22.7505	84	51
22.1224	22.7505	53	28
22.1224	22.3717	89	65
22.3717	22.7505	72	31
22.3717	22.7505	81	38
22.3717	22.7505	89	51
22.3717	22.478	98	75
22.4248	22.536	96	60
22.478	22.7505	77	35
22.478	22.7505	98	66
22.536	22.7505	96	58
22.594	22.7505	65	30
22.594	22.7505	101	71
22.8896	23.3304	55	25
22.8896	23.3304	64	30
22.8896	23.3304	67	39
22.8896	23.3304	74	58
22.9867	23.3304	60	31
22.9867	23.3304	72	47
23.0983	23.3304	48	31
23.0983	23.3304	79	65
23.3304	23.7457	55	24
23.3304	23.7457	63	29
23.3304	23.7457	67	37
23.3304	23.7457	74	56
23.4274	23.7457	60	30
23.4274	23.762	72	44
23.5371	23.762	48	30
23.5371	23.762	79	66
23.762	24.1922	60	25
23.762	24.1922	65	31
23.762	24.1922	69	38
23.762	24.1922	74	58
23.8591	24.1922	63	32
23.8591	24.1922	72	47
23.9679	24.1922	53	31
23.9679	24.1922	81	70
24.1922	24.6265	53	26
24.1922	24.6313	63	31
24.1922	24.6265	65	42
24.1922	24.6265	72	61
24.2896	24.6313	58	32
24.2896	24.6313	70	47
24.4002	24.6313	46	31
24.4002	24.6313	82	64
24.6265	25.0609	53	23
24.6265	25.0609	62	29
24.6265	25.0609	65	34
24.6265	25.0609	72	52
24.7235	25.1583	58	30
24.7235	25.1583	70	44
24.8346	25.2702	46	29
24.8346	25.2702	77	59
25.0609	25.4953	53	24
25.0609	25.4953	62	29
25.0609	25.4953	65	32
25.0609	25.4953	72	50
25.1583	25.4953	58	30
25.1583	25.4953	70	44
25.2702	25.4953	46	29
25.2702	25.4953	77	59
25.4953	25.936	53	24
25.4953	25.936	61	30
25.4953	25.936	65	38
25.4953	25.936	72	56
25.5923	25.936	58	31
25.5923	25.936	70	47
25.7039	25.936	46	31
25.7039	25.936	77	65
25.936	26.3513	53	24
25.936	26.3513	61	29
25.936	26.3513	65	37
25.936	26.3513	72	56
26.0331	26.3513	58	30
26.0331	26.3677	70	44
26.1427	26.3677	46	30
26.1427	26.3677	77	66
26.3677	26.7978	51	25
26.3677	26.7978	61	31
26.3677	26.7978	67	38
26.3677	26.7978	72	58
26.4647	26.7978	58	32
26.4647	26.7978	70	47
26.5735	26.7978	39	31
26.5735	26.7978	79	70
26.7978	27.2321	51	26
26.7978	27.237	61	31
26.7978	27.2321	63	42
26.7978	27.2321	70	61
26.8952	27.237	56	32
26.8952	27.237	68	47
27.0059	27.237	44	31
27.0059	27.237	80	64
27.2321	27.6674	51	23
27.2321	27.6674	60	29
27.2321	27.6674	63	34
27.2321	27.6674	70	52
27.3292	27.7648	56	30
27.3292	27.7648	68	44
27.4407	27.8767	44	29
27.4407	27.8767	75	59
27.6674	28.1017	51	24
27.6674	28.1017	60	29
27.6674	28.1017	63	32
27.6674	28.1017	70	50
27.7648	28.1017	56	30
27.7648	28.1017	68	44
27.8767	28.1017	44	29
27.8767	28.1017	75	59
28.1017	28.5425	51	24
28.1017	28.5425	60	30
28.1017	28.5425	63	38
28.1017	28.5425	70	56
28.1988	28.5425	56	31
28.1988	28.5425	68	47
28.3104	28.5425	43	31
28.3104	28.5425	75	65
28.5425	28.9578	51	24
28.5425	28.9578	60	29
28.5425	28.9578	63	37
28.5425	28.9578	70	56
28.6396	28.9578	56	30
28.6396	28.9742	68	44
28.7492	28.9742	43	30
28.7492	28.9742	75	66
28.9742	29.4115	51	25
28.9742	29.4115	60	31
28.9742	29.4115	63	40
28.9742	29.4115	70	59
29.0712	29.4115	56	32
29.0712	29.4115	68	47
29.1836	29.4115	43	31
29.1836	29.4115	77	68
29.4115	29.8574	50	23
29.4115	29.8622	60	27
29.4115	29.8622	63	33
29.4115	29.8574	68	58
29.5088	29.8622	55	31
29.5088	29.8622	67	46
29.6233	29.8622	43	30
29.6233	29.8622	75	61
29.8574	30.296	50	23
29.8574	30.296	59	29
29.8574	30.296	62	30
29.8574	30.296	68	52
29.9544	30.3934	55	30
29.9544	30.3934	67	44
30.0676	30.5075	43	29
30.0676	30.5075	74	59
30.296	30.741	50	24
30.296	30.741	59	29
30.296	30.741	62	27
30.296	30.741	68	50
30.3934	30.741	55	30
30.3934	30.741	67	44
30.5075	30.741	43	29
30.5075	30.741	74	59
30.741	31.1818	51	18
30.741	31.1818	60	25
30.741	31.1818	63	28
30.741	31.1818	70	48
30.8381	31.1818	56	26
30.8381	31.1818	68	38
30.9497	31.1818	43	26
30.9497	31.1818	75	55
31.1818	31.5971	63	22
31.1818	31.5971	72	28
31.1818	31.5971	75	34
31.1818	31.5971	82	52
31.2789	31.5971	68	29
31.2789	31.6135	80	42
31.3885	31.6135	55	28
31.3885	31.6135	87	64
31.6135	32.0508	63	23
31.6135	32.0508	72	29
31.6135	32.0508	75	38
31.6135	32.0508	82	58
31.7105	32.0508	68	30
31.7105	32.0508	80	45
31.8229	32.0508	55	29
31.8229	32.0508	89	66
32.0508	32.4859	62	23
32.0508	32.4907	72	28
32.0508	32.4907	75	37
32.0508	32.4859	80	56
32.1481	32.4907	67	29
32.1481	32.4907	79	44
32.2593	32.4907	55	28
32.2593	32.4907	87	58
32.4859	32.922	62	21
32.4859	32.922	71	28
32.4859	32.922	74	33
32.4859	32.922	80	50
32.5829	33.0194	67	29
32.5829	33.0194	79	42
32.6949	33.129	55	27
32.6949	33.129	86	57
32.922	33.3517	62	22
32.922	33.3517	71	28
32.922	33.3517	74	29
32.922	33.3517	80	49
33.0194	33.3517	67	29
33.0194	33.3517	79	42
33.129	33.3517	55	27
33.129	33.3517	86	57
33.3517	33.7754	62	19
33.3517	33.7754	71	27
33.3517	33.7754	74	34
33.3517	33.7754	79	50
33.4487	33.7754	66	28
33.4487	33.7925	78	42
33.5604	33.7925	54	27
33.5604	33.7925	86	59
33.7925	34.2078	50	18
33.7925	34.2078	59	25
33.7925	34.2078	62	30
33.7925	34.2078	67	47
33.8895	34.2078	54	26
33.8895	34.2241	66	36
33.9991	34.2241	42	25
33.9991	34.2241	74	57
34.2241	34.6543	50	19
34.2241	34.6543	61	26
34.2241	34.6543	64	33
34.2241	34.6543	67	51
34.3212	34.6543	54	27
34.3212	34.6543	66	38
34.43	34.6543	42	26
34.43	34.6543	76	59
34.6543	35.0894	49	19
34.6543	35.0942	59	25
34.6543	35.0942	62	33
34.6543	35.0894	67	50
34.7516	35.0942	54	26
34.7516	35.0942	66	37
34.8627	35.0942	42	25
34.8627	35.0942	74	51
35.0894	35.5246	49	18
35.0894	35.5246	58	25
35.0894	35.5246	61	29
35.0894	35.5246	67	46
35.1864	35.622	54	26
35.1864	35.622	66	36
35.298	35.734	42	24
35.298	35.734	73	51
35.5246	35.9661	49	18
35.5246	35.9661	58	25
35.5246	35.9661	61	27
35.5246	35.9661	67	43
35.622	35.9661	54	26
35.622	35.9661	66	36
35.734	35.9661	42	24
35.734	35.9661	73	51
35.9661	36.4085	50	23
35.9661	36.4085	55	29
35.9661	36.4085	59	37
35.9661	36.4085	67	56
36.0648	36.4085	54	30
36.0648	36.4085	66	47
36.1764	36.4085	42	30
36.1764	36.4085	71	65
36.4085	36.8319	50	23
36.4085	36.8319	55	29
36.4085	36.8319	59	36
36.4085	36.8319	67	56
36.5085	36.8319	54	31
36.5085	36.8483	66	44
36.6207	36.8483	42	29
36.6207	36.8483	71	67
36.8483	37.3073	52	25
36.8483	37.3073	55	31
36.8483	37.3073	61	38
36.8483	37.3073	67	60
36.9528	37.3073	54	32
36.9528	37.3073	66	47
37.0691	37.3073	42	31
37.0691	37.3073	73	72
37.3073	37.7842	50	25
37.3073	37.7785	55	31
37.3073	37.7842	59	40
37.3073	37.7785	67	61
37.4145	37.7842	54	32
37.4145	37.7842	66	47
37.534	37.7842	42	29
37.534	37.7842	71	63
37.7785	38.2805	49	22
37.7785	38.7076	55	29
37.7785	38.2805	58	35
37.7785	38.7076	67	54
37.8913	38.2805	54	30
37.8913	38.3977	66	44
38.019	38.5323	42	28
38.019	38.5323	70	59
38.2805	38.7076	49	23
38.2805	38.7076	54	29
38.2805	38.7076	58	31
38.2805	38.7076	68	50
38.3977	38.7076	52	30
38.3977	38.811	66	43
38.5323	38.811	42	27
38.5323	38.811	70	59
38.811	39.2518	51	42
38.811	39.2574	59	48
38.811	39.2574	68	72
38.908	39.2574	42	38
38.908	39.2574	66	57
39.0197	39.2574	35	34
39.0197	39.2574	71	78
39.2518	39.6565	51	39
39.2518	39.6565	54	45
39.2518	39.6565	61	66
39.3488	39.6565	42	36
39.3488	39.6834	59	51
39.4584	39.6834	35	31
39.4584	39.6834	66	74
39.6834	40.1135	51	39
39.6834	40.1135	59	46
39.6834	40.1135	68	67
39.7805	40.1135	42	36
39.7805	40.1135	66	53
39.8892	40.1135	35	30
39.8892	40.1135	71	78
40.1135	40.5373	52	42
40.1135	40.5373	61	48
40.1135	40.5373	68	72
40.2109	40.5373	42	38
40.2109	40.544	66	55
40.3197	40.544	35	32
40.3197	40.544	73	81
40.544	40.9662	52	40
40.544	40.9662	54	47
40.544	40.9662	63	66
40.641	40.9662	42	37
40.641	40.9729	61	53
40.7494	40.9729	35	31
40.7494	40.9729	66	75
40.9729	41.3993	52	39
40.9729	41.3993	61	46
40.9729	41.3993	68	67
41.0703	41.3993	42	36
41.0703	41.3993	66	57
41.1783	41.3993	35	30
41.1783	41.3993	73	76
41.3993	41.7933	51	43
41.3993	41.7933	63	51
41.3993	41.7933	68	75
41.4964	41.7933	42	39
41.4964	41.8253	66	58
41.6043	41.8253	35	35
41.6043	41.8253	75	78
41.8253	42.264	51	40
41.8253	42.264	59	47
41.8253	42.2551	68	69
41.9221	42.264	42	37
41.9221	42.264	66	53
42.0308	42.264	35	31
42.0308	42.264	71	76
42.2551	42.6879	53	40
42.2551	42.6879	68	48
42.2551	42.6879	75	70
42.3522	42.6879	47	37
42.3522	42.6879	73	59
42.4614	42.6879	37	32
42.4614	42.6879	80	76
42.6879	43.327	49	36
42.6879	43.2165	58	44
42.6879	43.5537	61	51
42.6879	43.9808	68	75
42.7849	43.9808	52	40
42.7849	43.1185	66	63
42.8941	43.9808	42	35
42.8941	43.2165	73	81
43.1185	43.7761	54	34
43.1185	43.66	64	42
43.1185	43.9808	66	49
43.1185	43.9808	75	70
43.2165	43.9808	58	38
43.2165	43.9808	73	55
43.327	43.9808	49	30
43.327	43.5537	78	76
43.5537	43.9808	61	34
43.5537	43.9808	70	42
43.5537	43.9808	78	49
43.5537	43.9808	87	74
43.66	43.9808	64	38
43.66	44.0552	85	58
43.7761	44.0552	54	32
43.7761	44.0552	90	82
44.0552	44.4749	51	42
44.0552	44.4749	59	48
44.0552	44.4749	68	72
44.1523	44.4749	42	38
44.1523	44.496	66	57
44.2639	44.496	35	34
44.2639	44.496	71	78
44.496	44.9276	51	39
44.496	44.9276	54	45
44.496	44.9276	61	66
44.593	44.9276	42	36
44.593	44.9276	59	46
44.7026	44.9276	35	31
44.7026	44.9276	66	74
44.9276	45.3578	51	39
44.9276	45.3578	59	46
44.9276	45.3578	68	67
45.0247	45.3578	42	36
45.0247	45.3578	66	53
45.1335	45.3578	35	30
45.1335	45.3578	71	78
45.3578	45.7545	52	42
45.3578	45.7545	61	48
45.3578	45.7545	68	72
45.4551	45.7545	42	38
45.4551	45.7882	66	55
45.5639	45.7882	35	32
45.5639	45.7882	73	81
45.7882	46.2037	52	40
45.7882	46.2037	54	47
45.7882	46.2037	63	66
45.8853	46.2037	42	37
45.8853	46.2172	61	53
45.9936	46.2172	35	31
45.9936	46.2172	66	75
46.2172	46.6435	52	39
46.2172	46.6435	61	46
46.2172	46.6435	68	67
46.3145	46.6435	42	36
46.3145	46.6435	66	57
46.4225	46.6435	35	30
46.4225	46.6435	73	76
46.6435	47.0375	51	43
46.6435	47.0375	63	51
46.6435	47.0375	68	75
46.7406	47.0375	42	39
46.7406	47.0696	66	58
46.8485	47.0696	35	35
46.8485	47.0696	75	78
47.0696	47.4609	53	40
47.0696	47.4609	63	47
47.0696	47.4609	70	69
47.1663	47.4609	47	37
47.1663	47.4994	68	53
47.2751	47.4994	37	31
47.2751	47.4994	75	76
47.4994	47.9321	58	40
47.4994	47.9321	61	48
47.4994	47.9321	68	70
47.5964	47.9321	52	37
47.5964	47.9321	66	59
47.7056	47.9321	42	32
47.7056	47.9321	73	76
47.9321	49.225	51	44
47.9321	49.0203	59	51
47.9321	49.225	68	75
48.0292	49.225	42	40
48.0292	48.9043	66	63
48.1383	49.225	35	35
48.1383	48.3627	71	81
48.3627	49.225	63	42
48.3627	49.225	71	49
48.3627	49.225	80	70
48.4607	49.225	54	38
48.4607	49.225	78	55
48.5712	49.225	47	30
48.5712	48.798	83	76
48.798	49.225	75	42
48.798	49.225	83	49
48.798	49.225	92	74
48.9043	49.225	66	38
48.9043	49.2994	90	58
49.0203	49.2994	59	32
49.0203	49.2994	95	82
49.2994	49.7231	58	33
49.2994	49.7231	61	44
49.2994	49.7231	68	65
49.3965	49.7231	49	34
49.3965	49.7402	66	51
49.5081	49.7402	42	31
49.5081	49.7402	73	71
49.7402	50.1719	57	32
49.7402	50.1994	61	40
49.7402	50.1719	68	59
49.8373	50.1994	49	33
49.8373	50.1994	66	48
49.9469	50.1994	42	29
49.9469	50.1994	73	70
50.1719	50.605	57	33
50.1719	50.605	63	44
50.1719	50.605	68	65
50.2689	50.605	47	34
50.2689	50.605	66	51
50.3792	50.605	42	29
50.3792	50.605	75	76
50.605	51.0287	57	35
50.605	51.0287	64	46
50.605	51.0287	69	68
50.7024	51.0287	47	36
50.7024	51.0393	68	52
50.8131	51.0393	40	29
50.8131	51.0393	76	76
51.0393	51.4746	56	31
51.0393	51.4746	59	39
51.0393	51.4746	66	56
51.1364	51.4746	47	32
51.1364	51.4746	64	46
51.2479	51.4746	40	26
51.2479	51.4746	71	63
51.4746	51.9064	56	30
51.4746	51.9064	59	39
51.4746	51.9064	66	59
51.572	51.9064	47	31
51.572	51.9064	64	49
51.6826	51.9064	40	25
51.6826	51.9064	71	66
51.9064	52.3301	55	33
51.9064	52.3301	59	44
51.9064	52.3301	66	65
52.0035	52.3301	47	34
52.0035	52.3472	64	51
52.1151	52.3472	40	31
52.1151	52.3472	71	71
52.3472	52.7788	55	32
52.3472	52.8063	59	40
52.3472	52.7788	66	59
52.4442	52.8063	47	33
52.4442	52.8063	64	48
52.5539	52.8063	40	29
52.5539	52.8063	71	70
52.7788	53.2128	55	33
52.7788	53.2128	61	44
52.7788	53.2128	66	65
52.8759	53.2128	45	34
52.8759	53.2128	64	51
52.9866	53.2128	40	29
52.9866	53.2128	73	76
53.2128	53.6365	55	35
53.2128	53.6365	62	46
53.2128	53.6365	67	68
53.3102	53.6365	45	36
53.3102	53.6471	66	52
53.4209	53.6471	38	29
53.4209	53.6471	74	76
53.6471	54.0824	54	31
53.6471	54.0824	57	39
53.6471	54.0824	64	56
53.7442	54.0824	45	32
53.7442	54.0824	62	46
53.8557	54.0824	38	26
53.8557	54.0824	69	63
54.0824	54.5142	54	30
54.0824	54.5142	57	39
54.0824	54.5142	64	59
54.1797	54.5142	45	31
54.1797	54.5142	62	49
54.2904	54.5142	38	25
54.2904	54.5142	69	66
54.5142	54.9379	54	31
54.5142	54.9379	57	40
54.5142	54.9379	62	60
54.6113	54.9379	45	32
54.6113	54.955	61	48
54.7229	54.955	37	29
54.7229	54.955	69	67
54.955	55.3866	57	24
54.955	55.4141	66	30
54.955	55.4141	69	37
54.955	55.3866	74	56
55.052	55.4141	61	31
55.052	55.4141	73	45
55.1617	55.4141	49	27
55.1617	55.4141	81	66
55.3866	55.8168	57	24
55.3866	55.8168	68	31
55.3866	55.8168	71	40
55.3866	55.8168	74	60
55.4837	55.8168	61	32
55.4837	55.8168	73	48
55.5925	55.8168	49	27
55.5925	55.8168	83	70
55.8168	56.2397	56	24
55.8168	56.2397	66	35
55.8168	56.2397	69	46
55.8168	56.2397	74	68
55.9141	56.2397	61	36
55.9141	56.2503	73	52
56.0244	56.2503	49	29
56.0244	56.2503	81	72
56.2503	56.6839	56	24
56.2503	56.6839	65	31
56.2503	56.6839	68	39
56.2503	56.6839	74	52
56.3473	56.6839	61	32
56.3473	56.6839	73	46
56.458	56.6839	49	26
56.458	56.6839	80	63
56.6839	57.1157	56	24
56.6839	57.1157	65	30
56.6839	57.1157	68	39
56.6839	57.1157	74	55
56.7812	57.1157	61	31
56.7812	57.1157	73	49
56.8919	57.1157	49	25
56.8919	57.1157	80	66
57.1157	57.5394	57	19
57.1157	57.5394	66	26
57.1157	57.5394	69	34
57.1157	57.5394	74	51
57.2127	57.5394	61	27
57.2127	57.5565	73	40
57.3244	57.5565	49	25
57.3244	57.5565	81	55
57.5565	57.9881	69	23
57.5565	58.0156	78	29
57.5565	58.0156	81	36
57.5565	57.9881	86	53
57.6535	58.0156	73	26
57.6535	58.0156	85	37
57.7632	58.0156	61	23
57.7632	58.0156	93	54
57.9881	58.4182	69	23
57.9881	58.4182	80	38
57.9881	58.4182	86	57
58.0852	58.4182	73	27
58.0852	58.4182	85	40
58.1939	58.4182	61	23
58.1939	58.4182	95	60
58.4182	58.842	68	23
58.4182	58.842	78	33
58.4182	58.842	81	43
58.4182	58.842	86	64
58.5156	58.842	73	30
58.5156	58.8525	85	44
58.6263	58.8525	61	25
58.6263	58.8525	93	64
58.8525	59.2862	68	23
58.8525	59.2862	77	29
58.8525	59.2862	80	37
58.8525	59.2862	86	53
58.9496	59.2862	73	27
58.9496	59.2862	85	38
59.0603	59.2862	61	22
59.0603	59.2862	92	53
59.2862	59.7197	68	23
59.2862	59.7197	77	29
59.2862	59.7197	80	37
59.2862	59.7197	86	55
59.3835	59.7197	73	26
59.3835	59.7197	85	40
59.4951	59.7197	61	21
59.4951	59.7197	92	54
59.7197	60.1434	68	23
59.7197	60.1434	77	29
59.7197	60.1434	80	38
59.7197	60.1434	85	57
59.8167	60.1434	72	27
59.8167	60.1604	84	40
59.9283	60.1604	60	25
59.9283	60.1604	92	55
60.1604	60.5921	56	22
60.1604	60.6196	65	28
60.1604	60.6196	68	35
60.1604	60.5921	73	52
60.2575	60.6196	60	25
60.2575	60.6196	72	36
60.3671	60.6196	48	22
60.3671	60.6196	80	53
60.5921	61.0222	56	22
60.5921	61.0222	67	28
60.5921	61.0222	70	37
60.5921	61.0222	73	55
60.6891	61.0222	60	26
60.6891	61.0222	72	39
60.7979	61.0222	48	22
60.7979	61.0222	82	58
61.0222	61.4467	55	22
61.0222	61.4467	65	32
61.0222	61.4467	68	40
61.0222	61.4467	73	61
61.1196	61.4467	60	28
61.1196	61.4573	72	42
61.2307	61.4573	48	24
61.2307	61.4573	80	60
61.4573	61.8926	55	21
61.4573	61.8926	64	27
61.4573	61.8926	67	35
61.4573	61.8926	73	50
61.5544	61.8926	60	25
61.5544	61.8926	72	36
61.6659	61.8926	48	19
61.6659	61.8926	79	50
61.8926	62.3271	55	21
61.8926	62.3271	64	27
61.8926	62.3271	67	35
61.8926	62.3271	73	52
61.99	62.3271	60	24
61.99	62.3271	72	37
62.0979	62.3271	48	18
62.0979	62.3271	79	51
62.3271	62.7573	55	21
62.3271	62.7573	62	27
62.3271	62.7573	65	35
62.3271	62.7573	74	52
62.4268	62.7573	60	25
62.4268	62.7743	72	37
62.5403	62.7743	48	23
62.5403	62.7743	77	51
62.7743	63.2246	55	21
62.7743	63.2534	62	26
62.7743	63.2534	65	32
62.7743	63.2246	74	49
62.8751	63.2534	60	23
62.8751	63.2534	72	34
62.99	63.2534	48	21
62.99	63.2534	77	49
63.2246	63.6868	55	19
63.2246	63.6868	64	26
63.2246	63.6868	67	34
63.2246	63.6868	74	51
63.3261	63.6868	60	24
63.3261	63.6868	72	36
63.4442	63.6868	48	19
63.4442	63.6868	79	53
63.6868	64.1534	55	19
63.6868	64.1534	62	29
63.6868	64.1534	65	37
63.6868	64.1534	74	55
63.792	64.1534	60	26
63.792	64.1653	72	38
63.9134	64.1653	48	22
63.9134	64.1653	77	55
64.1653	64.6584	55	19
64.1653	64.6584	62	25
64.1653	64.6584	64	32
64.1653	64.6584	74	47
64.2756	64.6584	60	23
64.2756	64.6584	72	32
64.4006	64.6584	48	18
64.4006	64.6584	76	46
64.6584	65.1011	55	19
64.6584	65.1011	60	25
64.6584	65.1011	64	31
64.6584	65.1011	74	48
64.7729	65.1011	58	22
64.7729	65.1864	72	34
64.8979	65.1864	48	17
64.8979	65.1864	76	47
65.1864	65.395	48	37
65.1864	65.3848	57	46
65.1864	65.395	65	59
65.1864	65.3848	74	87
65.2834	65.395	53	42
65.2834	65.395	72	63
65.395	65.4509	41	37
65.395	65.4509	77	76
65.6271	65.8439	48	34
65.6271	65.8439	57	44
65.6271	65.8439	60	54
65.6271	65.8439	67	80
65.7242	65.8439	53	39
65.7242	65.8439	65	55
65.8338	65.8886	41	34
65.8338	65.8886	72	75
66.0588	66.2646	48	34
66.0588	66.2583	57	44
66.0588	66.2646	65	57
66.0588	66.2583	74	82
66.1559	66.2646	53	39
66.1559	66.2646	72	58
66.2646	66.319	41	33
66.2646	66.319	77	75
66.4889	66.7078	48	37
66.4889	66.7078	58	46
66.4889	66.7078	67	59
66.4889	66.7078	74	87
66.5863	66.7078	52	42
66.5863	66.7078	72	61
66.6951	66.7495	41	35
66.6951	66.7495	79	73
66.9194	67.1347	48	34
66.9194	67.1347	58	44
66.9194	67.1347	60	54
66.9194	67.1347	69	76
67.0164	67.1347	52	39
67.0164	67.1347	67	55
67.1248	67.179	41	33
67.1248	67.179	72	71
67.3483	67.5788	48	34
67.3483	67.5788	58	44
67.3483	67.5788	67	57
67.3483	67.5788	74	82
67.4457	67.5788	52	39
67.4457	67.5788	72	63
67.5537	67.6076	41	33
67.5537	67.6076	79	78
67.7747	67.9959	48	38
67.7747	67.9959	57	47
67.7747	67.9959	69	63
67.7747	67.9959	74	92
67.8717	67.9959	53	44
67.8717	67.9959	72	64
67.9797	68.0337	41	38
67.9797	68.0337	81	77
68.2007	68.4189	50	35
68.2007	68.4189	57	45
68.2007	68.4189	65	58
68.2007	68.4189	74	85
68.2975	68.4189	53	40
68.2975	68.4189	72	58
68.4062	68.4606	41	34
68.4062	68.4606	77	75
68.6305	68.8468	50	35
68.6305	68.8468	59	45
68.6305	68.8468	74	59
68.6305	68.8468	81	86
68.7276	68.8468	53	40
68.7276	68.8468	79	65
68.8368	68.8914	43	35
68.8368	68.8914	86	78
69.0633	69.7024	55	39
69.0633	69.5919	64	48
69.0633	69.9291	67	63
69.0633	70.3562	74	92
69.1603	70.3562	58	45
69.1603	69.4939	72	69
69.2695	70.3562	48	38
69.2695	69.5919	79	78
69.4939	70.1515	60	37
69.4939	70.0354	70	46
69.4939	70.3562	72	61
69.4939	70.3562	81	86
69.5919	70.3562	64	42
69.5919	70.3562	79	61
69.7024	70.3562	55	33
69.7024	69.9291	84	76
69.9291	70.3562	67	37
69.9291	70.3562	76	46
69.9291	70.3562	84	61
69.9291	70.3562	93	90
70.0354	70.3562	70	42
70.0354	70.3562	91	64
70.1515	70.3562	60	35
70.1515	70.3562	96	82
70.4306	70.6393	48	37
70.4306	70.629	57	46
70.4306	70.6393	65	59
70.4306	70.629	74	87
70.5277	70.6393	53	42
70.5277	70.6393	72	61
70.6393	70.6951	41	37
70.6393	70.6951	77	82
70.8768	71.094	48	34
70.8768	71.094	57	44
70.8768	71.094	60	54
70.8768	71.094	67	80
70.9738	71.094	53	39
70.9738	71.094	65	55
71.0839	71.1389	41	34
71.0839	71.1389	72	77
71.3141	71.5223	48	34
71.3141	71.5159	57	44
71.3141	71.5223	65	57
71.3141	71.5159	74	82
71.4112	71.5223	53	39
71.4112	71.5223	72	64
71.5223	71.5779	41	33
71.5223	71.5779	77	80
71.7484	71.9682	48	37
71.7484	71.9682	58	46
71.7484	71.9682	67	59
71.7484	71.9682	74	87
71.8458	71.9682	52	42
71.8458	71.9682	72	61
71.9554	72.0102	41	35
71.9554	72.0102	79	77
72.1814	72.3977	48	34
72.1814	72.3977	58	44
72.1814	72.3977	60	54
72.1814	72.3977	69	76
72.2785	72.3977	52	39
72.2785	72.3977	67	55
72.3877	72.4423	41	33
72.3877	72.4423	72	75
72.6122	72.8438	48	34
72.6122	72.8438	58	44
72.6122	72.8438	67	57
72.6122	72.8438	74	82
72.7096	72.8438	52	39
72.7096	72.8438	72	58
72.8184	72.8728	41	33
72.8184	72.8728	79	78
73.0436	73.2662	48	38
73.0436	73.2662	57	47
73.0436	73.2662	69	63
73.0436	73.2662	74	92
73.1406	73.2662	53	44
73.1406	73.2662	72	64
73.2498	73.3044	41	38
73.2498	73.3044	81	84
73.4742	73.6928	50	35
73.4742	73.6928	59	45
73.4742	73.6928	69	58
73.4742	73.6928	76	85
73.5709	73.6928	53	40
73.5709	73.6928	74	58
73.6801	73.7347	43	34
73.6801	73.7347	81	78
73.9057	74.125	55	35
73.9057	74.125	64	45
73.9057	74.125	67	59
73.9057	74.125	74	86
74.0027	74.125	58	40
74.0027	74.125	72	64
74.1148	74.1708	48	35
74.1148	74.1708	79	77
74.3441	74.7867	48	35
74.3441	74.7867	57	48
74.3441	74.7867	65	65
74.3441	74.7867	74	96
74.4411	74.7867	53	45
74.4411	74.7834	72	69
74.5532	74.7867	41	38
74.5532	74.7867	77	85
74.7834	75.2228	60	33
74.7834	75.2455	69	46
74.7834	75.2228	72	61
74.7834	75.2455	79	86
74.8814	75.2455	65	42
74.8814	75.2455	77	61
74.9927	75.2455	53	33
74.9927	75.2455	84	77
75.2228	75.6645	60	30
75.2228	75.6961	70	37
75.2228	75.6961	72	55
75.2228	75.6961	81	80
75.3201	75.6961	64	37
75.3201	75.6645	79	63
75.4327	75.6961	53	29
75.4327	75.6961	84	73
75.6645	76.1324	60	32
75.6645	75.7616	65	57
75.6645	76.1324	69	43
75.6645	76.1324	79	86
75.7616	76.1324	65	39
75.7616	76.1324	77	61
75.8736	76.1324	53	34
75.8736	76.1039	84	75
76.1039	76.54	72	28
76.1039	76.5604	81	40
76.1039	76.54	84	54
76.1039	76.5604	91	76
76.2019	76.5604	77	37
76.2019	76.5604	89	54
76.3128	76.5604	65	29
76.3128	76.5604	96	70
76.54	76.9781	72	24
76.54	76.9781	82	36
76.54	76.9781	84	49
76.54	76.9781	93	77
76.6379	76.9781	76	35
76.6379	76.9781	91	58
76.7484	76.9781	65	27
76.7484	76.9781	96	69
76.9781	77.4174	72	35
76.9781	77.0751	77	58
76.9781	77.4778	81	43
76.9781	77.4778	91	86
77.0751	77.4778	77	39
77.0751	77.4778	89	61
77.1872	77.4778	65	34
77.1872	77.4778	96	75
77.4174	77.8535	60	29
77.4174	77.8592	69	36
77.4174	77.8535	72	44
77.4174	77.8592	79	61
77.5154	77.8592	65	33
77.5154	77.8592	77	49
77.6263	77.8592	53	26
77.6263	77.8592	84	61
77.8535	78.2916	60	29
77.8535	78.2916	70	36
77.8535	78.2916	72	44
77.8535	78.2916	81	65
77.9514	78.2916	64	33
77.9514	78.2916	79	54
78.0619	78.2916	53	26
78.0619	78.2916	84	65
78.2916	78.7309	60	31
78.2916	78.3886	65	46
78.2916	78.7309	69	37
78.2916	78.7309	79	68
78.3886	78.7309	65	35
78.3886	78.7309	77	54
78.5007	78.7309	53	30
78.5007	78.7309	84	67
78.7309	79.167	72	29
78.7309	79.2013	81	36
78.7309	79.167	84	44
78.7309	79.2013	91	61
78.8289	79.2013	77	33
78.8289	79.2013	89	49
78.9398	79.2013	65	26
78.9398	79.2013	96	61
79.167	79.6051	72	27
79.167	79.6051	82	33
79.167	79.6051	84	42
79.167	79.6051	93	65
79.265	79.6051	76	33
79.265	79.6051	91	54
79.3754	79.6051	65	26
79.3754	79.6051	96	65
79.6051	80.0705	72	31
79.6051	79.7021	77	46
79.6051	80.0444	81	37
79.6051	80.0444	91	68
79.7021	80.0705	77	35
79.7021	80.0705	89	54
79.8142	80.0705	65	30
79.8142	80.0705	96	67
80.0444	80.4737	71	30
80.0444	80.4737	81	37
80.0444	80.4737	83	46
80.0444	80.4737	91	65
80.1424	80.4737	75	34
80.1424	80.4737	90	46
80.2533	80.4737	59	27
80.2533	80.4737	95	56
80.4805	80.9186	71	29
80.4805	80.9186	80	37
80.4805	80.9186	83	45
80.4805	80.9186	89	66
80.5785	80.9186	74	33
80.5785	80.9186	88	49
80.6889	80.9186	64	28
80.6889	80.9186	95	61
80.9186	81.3841	69	31
80.9186	81.3841	79	37
80.9186	81.3579	81	46
80.9186	81.3841	89	68
81.0157	81.3841	73	35
81.0157	81.3579	88	48
81.1277	81.3841	57	30
81.1277	81.3841	93	59
81.3579	81.7872	67	29
81.3579	81.7872	74	36
81.3579	81.7872	81	45
81.3579	81.7872	88	61
81.456	81.7872	70	33
81.456	81.7872	86	45
81.5668	81.7872	58	26
81.5668	81.7872	93	55
81.794	82.2321	67	28
81.794	82.2321	76	34
81.794	82.2321	79	42
81.794	82.2321	86	63
81.892	82.2321	70	32
81.892	82.2321	84	47
82.0025	82.2321	60	26
82.0025	82.2321	91	56
82.2321	82.6685	60	29
82.2321	82.3292	65	43
82.2321	82.6685	69	35
82.2321	82.6685	86	65
82.3292	82.6685	65	33
82.3292	82.6685	84	46
82.4412	82.6685	53	28
82.4412	82.6685	89	56
82.6714	83.1008	59	28
82.6714	83.1008	69	35
82.6714	83.1008	71	43
82.6714	83.1008	79	59
82.7695	83.1008	63	32
82.7695	83.1008	78	43
82.8804	83.1008	47	25
82.8804	83.1008	83	54
83.1075	83.5456	59	25
83.1075	83.5456	68	33
83.1075	83.5456	71	39
83.1075	83.5456	77	58
83.2055	83.5456	62	29
83.2055	83.5456	76	44
83.316	83.5456	52	24
83.316	83.5456	83	54
83.5456	84.0111	57	27
83.5456	84.0111	67	33
83.5456	83.9849	69	39
83.5456	84.0111	77	60
83.6427	84.0111	61	31
83.6427	83.9849	76	43
83.7547	84.0111	45	26
83.7547	84.0111	81	53
83.9849	84.4143	55	27
83.9849	84.4143	62	34
83.9849	84.4143	69	39
83.9849	84.4143	76	58
84.083	84.4143	58	31
84.083	84.4143	74	39
84.1939	84.4143	46	24
84.1939	84.4143	81	51
84.4211	84.8592	55	26
84.4211	84.8592	64	32
84.4211	84.8592	67	37
84.4211	84.8592	74	57
84.519	84.8592	58	30
84.519	84.8592	72	44
84.6295	84.8592	48	24
84.6295	84.8592	79	54
84.8592	85.2985	48	27
84.8592	85.2985	57	33
84.8592	85.7278	65	39
84.8592	85.7278	74	60
84.9562	85.3965	53	31
84.9562	85.2985	72	43
85.0682	85.5074	41	26
85.0682	85.3965	77	54
85.2985	85.7278	48	27
85.2985	85.7278	57	35
85.2985	85.7278	72	43
85.2985	85.7278	79	61
85.3965	85.7278	53	33
85.3965	85.7278	77	44
85.5074	85.7346	41	25
85.5074	85.7346	84	55
85.7346	86.1727	48	27
85.7346	86.1727	58	34
85.7346	86.1727	72	39
85.7346	86.1727	81	61
85.8326	86.1727	52	32
85.8326	86.1727	79	46
85.943	86.1727	41	25
85.943	86.1727	84	59
86.1727	86.612	48	29
86.1727	86.612	57	35
86.1727	86.612	72	43
86.1727	86.612	79	63
86.2697	86.71	53	33
86.2697	86.71	77	46
86.3818	86.8209	41	27
86.3818	86.8209	84	56
86.612	87.0413	48	27
86.612	87.0413	57	34
86.612	87.0413	72	43
86.612	87.0413	79	63
86.71	87.0413	53	32
86.71	87.0413	77	44
86.8209	87.0481	41	24
86.8209	87.0481	84	54
87.0481	87.4862	48	26
87.0481	87.4862	58	32
87.0481	87.4862	72	37
87.0481	87.4862	81	58
87.1461	87.4862	52	30
87.1461	87.4862	79	44
87.2565	87.4862	41	23
87.2565	87.4862	84	54
87.4862	88.3616	48	27
87.4862	88.3616	57	33
87.4862	87.9255	72	38
87.4862	87.9255	79	59
87.5832	88.7997	53	31
87.5832	88.0235	77	43
87.6953	88.3616	41	25
87.6953	88.1344	84	54
87.9255	89.239	29	27
87.9255	88.3616	72	40
87.9255	88.3616	79	58
88.0235	88.4596	77	40
88.1344	88.57	84	52
88.3616	89.6751	41	22
88.3616	89.6751	48	22
88.3616	89.6751	57	26
88.3616	88.7997	72	35
88.3616	88.7997	79	56
88.4596	88.8482	77	42
88.57	89.0088	84	51
88.7997	90.1206	53	21
88.7997	90.1206	60	21
88.7997	90.1206	69	26
88.7997	89.239	72	37
88.7997	88.8968	79	56
88.8482	88.9528	77	40
88.8968	89.239	79	46
88.9528	89.288	77	38
89.0088	89.4479	84	49
89.239	93.622	29	25
89.239	89.6751	72	37
89.239	89.337	79	54
89.288	89.3925	77	37
89.337	89.6751	79	40
89.3925	89.7241	77	37
89.4479	89.8835	84	47
89.6751	93.622	41	19
89.6751	93.622	48	19
89.6751	93.622	57	24
89.6751	90.1206	72	32
89.6751	89.7731	79	51
89.7241	89.8283	77	37
89.7731	90.1206	79	38
89.8283	90.1731	77	37
89.8835	90.3374	84	46
90.1206	93.622	53	18
90.1206	93.622	60	18
90.1206	93.622	69	23
90.1206	90.5646	72	33
90.1206	90.226	79	51
90.1731	90.2818	77	36
90.226	90.3374	79	40
90.2818	90.393	77	34
90.3374	90.4491	79	48
90.3374	90.7768	84	45
90.393	90.5062	77	34
90.4491	90.5646	79	48
90.5062	90.6165	77	34
90.5646	91.0001	72	33
90.5646	90.6691	79	47
90.6165	90.7219	77	33
90.6691	90.7768	79	35
90.7219	90.8324	77	33
90.7768	90.888	79	35
90.7768	91.2147	84	42
90.8324	90.9441	77	33
90.888	91.0001	79	35
90.9441	91.0521	77	32
91.0001	91.4364	72	28
91.0001	91.1051	79	45
91.0521	91.1595	77	32
91.1051	91.2147	79	34
91.1595	91.2697	77	32
91.2147	91.3252	79	33
91.2147	92.2416	84	40
91.2697	91.3806	77	32
91.3252	91.4364	79	33
91.3806	91.4902	77	31
91.4364	93.622	72	28
91.4364	91.5441	79	45
91.4902	91.5982	77	32
91.5441	91.6527	79	34
91.5982	91.7076	77	32
91.6527	93.622	79	33
91.7076	91.8825	77	32
91.7633	93.622	76	33
91.8825	93.622	77	44
91.942	93.622	80	44
92.0014	93.622	82	45
92.0611	93.622	81	46
92.121	93.622	83	46
92.1812	93.622	86	47
92.2416	93.622	84	48
92.3022	93.622	88	48
92.363	93.622	91	49
92.4238	93.622	89	50
92.4855	93.622	92	50
92.548	93.622	94	51
92.6113	93.622	93	51
92.6751	93.622	95	52
92.7399	93.622	98	53
92.8055	93.622	96	53
92.872	93.622	101	60
94.372	95.122	36	23
94.372	95.122	48	29
94.372	95.122	57	31
94.372	95.122	60	31
94.372	95.122	69	36
95.122	104.572	29	23
95.122	97.372	41	29
95.122	97.372	57	31
95.122	97.372	65	31
95.122	97.372	69	36
97.372	104.572	41	23
97.372	104.572	48	29
97.372	104.572	57	31
97.372	104.572	65	31
97.372	104.572	69	36
