# onset,offset,note,velocity
0.500004	3.307541	36.000000	86.000000
0.500004	0.586211	48.000000	103.000000
0.586211	3.199623	48.000000	77.000000
0.672417	0.758623	55.000000	80.000000
0.758623	0.844829	60.000000	77.000000
0.844829	0.931036	64.000000	90.000000
0.931036	1.017242	60.000000	77.000000
1.017242	1.103448	67.000000	80.000000
1.103448	1.189654	72.000000	78.000000
1.189654	1.275861	76.000000	93.000000
1.275861	1.362067	72.000000	79.000000
1.362067	1.448273	79.000000	82.000000
1.448273	1.534479	84.000000	80.000000
1.534479	1.620686	88.000000	93.000000
1.620686	1.706892	84.000000	80.000000
1.706892	1.793098	91.000000	83.000000
1.793098	1.879304	96.000000	81.000000
1.879304	1.965511	100.000000	95.000000
1.965511	2.051717	96.000000	80.000000
2.051717	2.137923	91.000000	84.000000
2.137923	2.224129	84.000000	80.000000
2.224129	2.310336	88.000000	94.000000
2.310336	2.396542	84.000000	80.000000
2.396542	2.482748	79.000000	83.000000
2.482748	2.568954	72.000000	79.000000
2.568954	2.659050	76.000000	93.000000
2.659050	2.749145	72.000000	79.000000
2.749145	2.839241	67.000000	81.000000
2.839241	2.929336	60.000000	78.000000
2.929336	3.019432	64.000000	92.000000
3.019432	3.109527	60.000000	76.000000
3.109527	3.199623	55.000000	80.000000
3.199623	3.307541	48.000000	77.000000
3.307541	4.727598	29.000000	88.000000
3.307541	4.727598	41.000000	104.000000
3.394740	3.481952	48.000000	80.000000
3.481952	3.569164	57.000000	80.000000
3.569164	3.656376	60.000000	77.000000
3.656376	3.743588	65.000000	91.000000
3.743588	3.830800	60.000000	77.000000
3.830800	3.918013	69.000000	80.000000
3.918013	4.005225	72.000000	78.000000
4.005225	4.094770	77.000000	93.000000
4.094770	4.184316	72.000000	78.000000
4.184316	4.273861	81.000000	82.000000
4.273861	4.363407	84.000000	80.000000
4.363407	4.452953	89.000000	94.000000
4.452953	4.542498	84.000000	81.000000
4.542498	4.632057	93.000000	83.000000
4.632057	4.727598	96.000000	80.000000
4.727598	4.814796	100.000000	96.000000
4.727598	6.144851	30.000000	85.000000
4.727598	6.144851	42.000000	101.000000
4.814796	4.902008	96.000000	80.000000
4.902008	4.989220	93.000000	84.000000
4.989220	5.076433	84.000000	80.000000
5.076433	5.163645	88.000000	95.000000
5.163645	5.250857	84.000000	80.000000
5.250857	5.338069	81.000000	83.000000
5.338069	5.425281	72.000000	79.000000
5.425281	5.512493	76.000000	93.000000
5.512493	5.599705	72.000000	78.000000
5.599705	5.686917	69.000000	81.000000
5.686917	5.774129	60.000000	77.000000
5.774129	5.861341	62.000000	92.000000
5.861341	5.948553	60.000000	76.000000
5.948553	6.035765	57.000000	80.000000
6.035765	6.144851	48.000000	77.000000
6.144851	6.852847	31.000000	85.000000
6.144851	6.852847	43.000000	101.000000
6.233351	6.321850	47.000000	80.000000
6.321850	6.410350	55.000000	77.000000
6.410350	6.498849	59.000000	80.000000
6.498849	6.587349	62.000000	90.000000
6.587349	6.675848	59.000000	77.000000
6.675848	6.764348	67.000000	80.000000
6.764348	6.852847	71.000000	78.000000
6.852847	6.945156	74.000000	93.000000
6.852847	7.222080	30.000000	86.000000
6.852847	7.222080	42.000000	102.000000
6.945156	7.037464	71.000000	79.000000
7.037464	7.129772	79.000000	82.000000
7.129772	7.222080	83.000000	80.000000
7.222080	7.316414	86.000000	94.000000
7.222080	7.599427	28.000000	82.000000
7.222080	7.599427	40.000000	97.000000
7.316414	7.410747	83.000000	80.000000
7.410747	7.505081	91.000000	83.000000
7.505081	7.599427	93.000000	79.000000
7.599427	7.689523	98.000000	97.000000
7.599427	9.048894	26.000000	86.000000
7.599427	9.048894	38.000000	102.000000
7.689523	7.779618	93.000000	80.000000
7.779618	7.869714	90.000000	84.000000
7.869714	7.959809	84.000000	80.000000
7.959809	8.049905	86.000000	95.000000
8.049905	8.140000	81.000000	80.000000
8.140000	8.230095	78.000000	82.000000
8.230095	8.320191	72.000000	79.000000
8.320191	8.410286	74.000000	94.000000
8.410286	8.500382	69.000000	77.000000
8.500382	8.590477	66.000000	81.000000
8.590477	8.680573	60.000000	77.000000
8.680573	8.770668	62.000000	80.000000
8.770668	8.860764	57.000000	80.000000
8.860764	8.950859	54.000000	80.000000
8.950859	9.048894	48.000000	80.000000
9.048894	11.847312	31.000000	85.000000
9.048894	11.847312	43.000000	101.000000
9.135851	9.222809	48.000000	77.000000
9.222809	9.309766	53.000000	80.000000
9.309766	9.396723	56.000000	77.000000
9.396723	9.483680	62.000000	91.000000
9.483680	9.570638	60.000000	76.000000
9.570638	9.657595	65.000000	80.000000
9.657595	9.744552	68.000000	77.000000
9.744552	9.831509	74.000000	92.000000
9.831509	9.918467	72.000000	78.000000
9.918467	10.005424	77.000000	82.000000
10.005424	10.092381	80.000000	79.000000
10.092381	10.179339	86.000000	93.000000
10.179339	10.266296	84.000000	80.000000
10.266296	10.353253	89.000000	83.000000
10.353253	10.440210	92.000000	80.000000
10.440210	10.527168	98.000000	95.000000
10.527168	10.614125	91.000000	79.000000
10.614125	10.701082	89.000000	84.000000
10.701082	10.788039	83.000000	79.000000
10.788039	10.874997	86.000000	94.000000
10.874997	10.961954	79.000000	79.000000
10.961954	11.048911	77.000000	83.000000
11.048911	11.135869	71.000000	78.000000
11.135869	11.222826	74.000000	93.000000
11.222826	11.309783	67.000000	77.000000
11.309783	11.396740	65.000000	81.000000
11.396740	11.483698	59.000000	77.000000
11.483698	11.570655	63.000000	95.000000
11.570655	11.657612	55.000000	77.000000
11.657612	11.744569	53.000000	80.000000
11.744569	11.847312	47.000000	77.000000
11.847312	14.624070	36.000000	85.000000
11.847312	11.933518	48.000000	101.000000
11.933518	14.528530	48.000000	76.000000
12.019724	12.105930	55.000000	80.000000
12.105930	12.192137	60.000000	76.000000
12.192137	12.278343	64.000000	85.000000
12.278343	12.364549	60.000000	76.000000
12.364549	12.450755	67.000000	80.000000
12.450755	12.536962	72.000000	78.000000
12.536962	12.623168	76.000000	89.000000
12.623168	12.709374	72.000000	78.000000
12.709374	12.795580	79.000000	82.000000
12.795580	12.881787	84.000000	79.000000
12.881787	12.967993	88.000000	90.000000
12.967993	13.054199	84.000000	80.000000
13.054199	13.140405	91.000000	83.000000
13.140405	13.226612	96.000000	80.000000
13.226612	13.312818	100.000000	92.000000
13.312818	13.399024	96.000000	80.000000
13.399024	13.485230	91.000000	84.000000
13.485230	13.571437	84.000000	80.000000
13.571437	13.657643	88.000000	92.000000
13.657643	13.743849	84.000000	81.000000
13.743849	13.830055	79.000000	83.000000
13.830055	13.916262	72.000000	79.000000
13.916262	14.003729	76.000000	90.000000
14.003729	14.091195	72.000000	78.000000
14.091195	14.178662	67.000000	81.000000
14.178662	14.266129	60.000000	77.000000
14.266129	14.353596	64.000000	89.000000
14.353596	14.441063	60.000000	77.000000
14.441063	14.528530	55.000000	80.000000
14.528530	14.624070	48.000000	77.000000
14.624070	17.416198	33.000000	86.000000
14.624070	17.416198	45.000000	103.000000
14.710773	14.797475	48.000000	77.000000
14.797475	14.884178	53.000000	80.000000
14.884178	14.970880	60.000000	77.000000
14.970880	15.057583	65.000000	87.000000
15.057583	15.144285	60.000000	76.000000
15.144285	15.230987	65.000000	80.000000
15.230987	15.317690	72.000000	77.000000
15.317690	15.404392	77.000000	89.000000
15.404392	15.491095	72.000000	77.000000
15.491095	15.577797	77.000000	82.000000
15.577797	15.664500	84.000000	79.000000
15.664500	15.751202	89.000000	92.000000
15.751202	15.837905	84.000000	80.000000
15.837905	15.924607	89.000000	83.000000
15.924607	16.011310	96.000000	80.000000
16.011310	16.098777	100.000000	93.000000
16.098777	16.186243	96.000000	80.000000
16.186243	16.273710	90.000000	84.000000
16.273710	16.361177	84.000000	79.000000
16.361177	16.448644	88.000000	93.000000
16.448644	16.536111	84.000000	80.000000
16.536111	16.623578	78.000000	83.000000
16.623578	16.711045	72.000000	79.000000
16.711045	16.798512	76.000000	90.000000
16.798512	16.885979	72.000000	79.000000
16.885979	16.973445	66.000000	81.000000
16.973445	17.060912	60.000000	78.000000
17.060912	17.148379	64.000000	89.000000
17.148379	17.235846	60.000000	77.000000
17.235846	17.323313	54.000000	80.000000
17.323313	17.416198	48.000000	77.000000
17.416198	20.228308	31.000000	81.000000
17.416198	20.228308	43.000000	96.000000
17.503397	17.590609	48.000000	73.000000
17.590609	17.677821	55.000000	76.000000
17.677821	17.765033	60.000000	74.000000
17.765033	17.852245	62.000000	81.000000
17.852245	17.939457	60.000000	73.000000
17.939457	18.026669	67.000000	76.000000
18.026669	18.113881	72.000000	74.000000
18.113881	18.201093	74.000000	86.000000
18.201093	18.288305	72.000000	74.000000
18.288305	18.375517	79.000000	77.000000
18.375517	18.462730	84.000000	75.000000
18.462730	18.549942	86.000000	88.000000
18.549942	18.637154	84.000000	76.000000
18.637154	18.724366	91.000000	78.000000
18.724366	18.811578	96.000000	76.000000
18.811578	18.899554	98.000000	89.000000
18.899554	18.987531	95.000000	76.000000
18.987531	19.075507	91.000000	79.000000
19.075507	19.163484	83.000000	75.000000
19.163484	19.251460	86.000000	87.000000
19.251460	19.339437	83.000000	75.000000
19.339437	19.427413	79.000000	78.000000
19.427413	19.515390	71.000000	74.000000
19.515390	19.603366	74.000000	86.000000
19.603366	19.691343	71.000000	75.000000
19.691343	19.779320	67.000000	76.000000
19.779320	19.867296	59.000000	74.000000
19.867296	19.955273	62.000000	83.000000
19.955273	20.043249	59.000000	73.000000
20.043249	20.131226	55.000000	76.000000
20.131226	20.228308	47.000000	71.000000
20.228308	23.007588	36.000000	81.000000
20.228308	22.908574	48.000000	96.000000
20.314769	20.401230	50.000000	76.000000
20.401230	20.487691	55.000000	73.000000
20.487691	20.574152	62.000000	76.000000
20.574152	20.660614	64.000000	78.000000
20.660614	20.747075	62.000000	71.000000
20.747075	20.833536	67.000000	76.000000
20.833536	20.919997	74.000000	74.000000
20.919997	21.006458	76.000000	79.000000
21.006458	21.092919	74.000000	74.000000
21.092919	21.179380	79.000000	77.000000
21.179380	21.265841	86.000000	75.000000
21.265841	21.352302	88.000000	83.000000
21.352302	21.438763	86.000000	76.000000
21.438763	21.525224	91.000000	78.000000
21.525224	21.611672	98.000000	76.000000
21.611672	21.698119	100.000000	83.000000
21.698119	21.784581	96.000000	73.000000
21.784581	21.871042	91.000000	77.000000
21.871042	21.957503	84.000000	73.000000
21.957503	22.043964	88.000000	84.000000
22.043964	22.130425	84.000000	73.000000
22.130425	22.216886	79.000000	76.000000
22.216886	22.303347	72.000000	70.000000
22.303347	22.389808	76.000000	81.000000
22.389808	22.476269	72.000000	71.000000
22.476269	22.562730	67.000000	76.000000
22.562730	22.649191	60.000000	70.000000
22.649191	22.735652	64.000000	78.000000
22.735652	22.822113	60.000000	71.000000
22.822113	22.908574	55.000000	74.000000
22.908574	23.007588	48.000000	67.000000
23.007588	24.392709	33.000000	65.000000
23.007588	24.392709	45.000000	77.000000
23.093794	23.180001	52.000000	56.000000
23.180001	23.266207	60.000000	61.000000
23.266207	23.352413	64.000000	59.000000
23.352413	23.438619	65.000000	66.000000
23.438619	23.524826	64.000000	57.000000
23.524826	23.611032	72.000000	61.000000
23.611032	23.697238	76.000000	58.000000
23.697238	23.783444	77.000000	68.000000
23.783444	23.869651	76.000000	57.000000
23.869651	23.955857	84.000000	63.000000
23.955857	24.042063	88.000000	58.000000
24.042063	24.128269	89.000000	69.000000
24.128269	24.214476	88.000000	60.000000
24.214476	24.300682	96.000000	63.000000
24.300682	24.392709	100.000000	58.000000
24.392709	24.480176	101.000000	70.000000
24.392709	25.092444	35.000000	65.000000
24.392709	25.092444	47.000000	77.000000
24.480176	24.567642	98.000000	59.000000
24.567642	24.655109	95.000000	63.000000
24.655109	24.742576	86.000000	59.000000
24.742576	24.830043	89.000000	69.000000
24.830043	24.917510	86.000000	59.000000
24.917510	25.004977	83.000000	63.000000
25.004977	25.092444	74.000000	58.000000
25.092444	25.181735	77.000000	68.000000
25.092444	25.812416	33.000000	65.000000
25.092444	25.812416	45.000000	77.000000
25.181735	25.271025	74.000000	57.000000
25.271025	25.360316	71.000000	62.000000
25.360316	25.449607	62.000000	57.000000
25.449607	25.538898	65.000000	67.000000
25.538898	25.628189	62.000000	56.000000
25.628189	25.717479	59.000000	61.000000
25.717479	25.812416	50.000000	57.000000
25.812416	27.191716	32.000000	65.000000
25.812416	27.191716	44.000000	77.000000
25.898622	25.984829	50.000000	57.000000
25.984829	26.071035	59.000000	61.000000
26.071035	26.157241	62.000000	57.000000
26.157241	26.243447	64.000000	71.000000
26.243447	26.329654	62.000000	57.000000
26.329654	26.415860	71.000000	61.000000
26.415860	26.502066	74.000000	58.000000
26.502066	26.588272	76.000000	72.000000
26.588272	26.674479	74.000000	57.000000
26.674479	26.760685	83.000000	63.000000
26.760685	26.846891	86.000000	57.000000
26.846891	26.933097	88.000000	72.000000
26.933097	27.019304	86.000000	58.000000
27.019304	27.105510	95.000000	63.000000
27.105510	27.191716	98.000000	59.000000
27.191716	27.278928	100.000000	72.000000
27.191716	27.889413	33.000000	64.000000
27.191716	27.889413	45.000000	76.000000
27.278928	27.366140	96.000000	60.000000
27.366140	27.453352	93.000000	63.000000
27.453352	27.540565	84.000000	61.000000
27.540565	27.627777	88.000000	74.000000
27.627777	27.714989	84.000000	61.000000
27.714989	27.802201	81.000000	66.000000
27.802201	27.889413	72.000000	63.000000
27.889413	27.976625	76.000000	77.000000
27.889413	28.587110	31.000000	70.000000
27.889413	28.587110	43.000000	82.000000
27.976625	28.063837	72.000000	63.000000
28.063837	28.151049	69.000000	68.000000
28.151049	28.238261	60.000000	63.000000
28.238261	28.325473	64.000000	79.000000
28.325473	28.412685	60.000000	64.000000
28.412685	28.499897	57.000000	70.000000
28.499897	28.587110	48.000000	65.000000
28.587110	31.393225	29.000000	76.000000
28.587110	31.393225	41.000000	90.000000
28.674322	28.761534	48.000000	65.000000
28.761534	28.848746	57.000000	72.000000
28.848746	28.935958	60.000000	66.000000
28.935958	29.023170	64.000000	82.000000
29.023170	29.110382	60.000000	67.000000
29.110382	29.197594	69.000000	72.000000
29.197594	29.284806	72.000000	68.000000
29.284806	29.372018	76.000000	82.000000
29.372018	29.459230	72.000000	69.000000
29.459230	29.546442	81.000000	73.000000
29.546442	29.633655	84.000000	70.000000
29.633655	29.720867	88.000000	83.000000
29.720867	29.808079	84.000000	71.000000
29.808079	29.895291	93.000000	74.000000
29.895291	29.982503	96.000000	71.000000
29.982503	30.069715	99.000000	86.000000
30.069715	30.156927	95.000000	68.000000
30.156927	30.244139	93.000000	71.000000
30.244139	30.331351	83.000000	64.000000
30.331351	30.418563	87.000000	80.000000
30.418563	30.505775	83.000000	61.000000
30.505775	30.592987	81.000000	63.000000
30.592987	30.680200	71.000000	58.000000
30.680200	30.768954	75.000000	72.000000
30.768954	30.857708	71.000000	54.000000
30.857708	30.946463	69.000000	60.000000
30.946463	31.035217	59.000000	53.000000
31.035217	31.123971	63.000000	66.000000
31.123971	31.212726	59.000000	63.000000
31.212726	31.301480	57.000000	61.000000
31.301480	31.393225	47.000000	58.000000
31.393225	34.196162	28.000000	64.000000
31.393225	34.196162	40.000000	76.000000
31.480692	31.568159	47.000000	56.000000
31.568159	31.655626	57.000000	60.000000
31.655626	31.743093	59.000000	56.000000
31.743093	31.830560	64.000000	68.000000
31.830560	31.918026	59.000000	56.000000
31.918026	32.005493	69.000000	60.000000
32.005493	32.092960	71.000000	55.000000
32.092960	32.180427	76.000000	69.000000
32.180427	32.267894	71.000000	56.000000
32.267894	32.355361	81.000000	60.000000
32.355361	32.442828	83.000000	56.000000
32.442828	32.530295	88.000000	69.000000
32.530295	32.617762	83.000000	56.000000
32.617762	32.705228	93.000000	60.000000
32.705228	32.792695	95.000000	56.000000
32.792695	32.880162	100.000000	69.000000
32.880162	32.967629	95.000000	55.000000
32.967629	33.055096	92.000000	60.000000
33.055096	33.142563	83.000000	55.000000
33.142563	33.230030	88.000000	68.000000
33.230030	33.317497	83.000000	56.000000
33.317497	33.404964	80.000000	60.000000
33.404964	33.492430	71.000000	56.000000
33.492430	33.579897	76.000000	68.000000
33.579897	33.667364	71.000000	56.000000
33.667364	33.754831	68.000000	60.000000
33.754831	33.842298	59.000000	56.000000
33.842298	33.929765	64.000000	59.000000
33.929765	34.017232	59.000000	56.000000
34.017232	34.104699	56.000000	60.000000
34.104699	34.196162	47.000000	55.000000
34.196162	35.575462	33.000000	64.000000
34.196162	35.575462	45.000000	76.000000
34.282368	34.368575	52.000000	56.000000
34.368575	34.454781	57.000000	60.000000
34.454781	34.540987	61.000000	56.000000
34.540987	34.627193	67.000000	68.000000
34.627193	34.713400	64.000000	56.000000
34.713400	34.799606	69.000000	60.000000
34.799606	34.885812	73.000000	57.000000
34.885812	34.972018	79.000000	69.000000
34.972018	35.058225	76.000000	56.000000
35.058225	35.144431	81.000000	61.000000
35.144431	35.230637	85.000000	56.000000
35.230637	35.316843	91.000000	70.000000
35.316843	35.403050	85.000000	57.000000
35.403050	35.489256	81.000000	62.000000
35.489256	35.575462	76.000000	57.000000
35.575462	35.662165	91.000000	71.000000
35.575462	36.966779	38.000000	64.000000
35.575462	36.879566	50.000000	76.000000
35.662165	35.748867	84.000000	57.000000
35.748867	35.835570	81.000000	63.000000
35.835570	35.922272	76.000000	57.000000
35.922272	36.008975	79.000000	70.000000
36.008975	36.095677	72.000000	58.000000
36.095677	36.182379	69.000000	62.000000
36.182379	36.269082	64.000000	57.000000
36.269082	36.356294	67.000000	70.000000
36.356294	36.443506	60.000000	57.000000
36.443506	36.530718	57.000000	61.000000
36.530718	36.617930	52.000000	57.000000
36.617930	36.705142	66.000000	69.000000
36.705142	36.792354	60.000000	60.000000
36.792354	36.879566	57.000000	60.000000
36.879566	36.966779	50.000000	56.000000
36.966779	39.729000	31.000000	71.000000
36.966779	39.729000	43.000000	85.000000
37.052985	37.139191	50.000000	63.000000
37.139191	37.225397	55.000000	68.000000
37.225397	37.311604	60.000000	64.000000
37.311604	37.397810	65.000000	76.000000
37.397810	37.484016	62.000000	63.000000
37.484016	37.570222	67.000000	68.000000
37.570222	37.656429	72.000000	65.000000
37.656429	37.742635	77.000000	77.000000
37.742635	37.828841	74.000000	66.000000
37.828841	37.915047	79.000000	70.000000
37.915047	38.001254	84.000000	65.000000
38.001254	38.087460	89.000000	75.000000
38.087460	38.173666	86.000000	66.000000
38.173666	38.259872	91.000000	70.000000
38.259872	38.346079	96.000000	67.000000
38.346079	38.432285	101.000000	77.000000
38.432285	38.518491	95.000000	67.000000
38.518491	38.604697	91.000000	71.000000
38.604697	38.690904	86.000000	67.000000
38.690904	38.777110	89.000000	76.000000
38.777110	38.863316	83.000000	67.000000
38.863316	38.949522	79.000000	70.000000
38.949522	39.035729	74.000000	66.000000
39.035729	39.121935	77.000000	74.000000
39.121935	39.208141	71.000000	66.000000
39.208141	39.294347	67.000000	69.000000
39.294347	39.380554	62.000000	69.000000
39.380554	39.466760	65.000000	73.000000
39.466760	39.552966	59.000000	63.000000
39.552966	39.639172	55.000000	68.000000
39.639172	39.729000	50.000000	65.000000
39.729000	41.115555	36.000000	80.000000
39.729000	39.815206	48.000000	95.000000
39.815206	41.115555	48.000000	71.000000
39.901412	39.987618	55.000000	76.000000
39.987618	40.073825	58.000000	72.000000
40.073825	40.160031	64.000000	80.000000
40.160031	40.246237	60.000000	72.000000
40.246237	40.332443	67.000000	76.000000
40.332443	40.418650	70.000000	73.000000
40.418650	40.504856	76.000000	85.000000
40.504856	40.591062	72.000000	73.000000
40.591062	40.677268	79.000000	77.000000
40.677268	40.763475	82.000000	73.000000
40.763475	40.849681	88.000000	86.000000
40.849681	40.935887	84.000000	75.000000
40.935887	41.022093	91.000000	78.000000
41.022093	41.115555	96.000000	75.000000
41.115555	41.202271	99.000000	89.000000
41.115555	42.502808	30.000000	81.000000
41.115555	42.502808	42.000000	96.000000
41.202271	41.288973	94.000000	75.000000
41.288973	41.375676	87.000000	79.000000
41.375676	41.462378	84.000000	74.000000
41.462378	41.549081	87.000000	87.000000
41.549081	41.635783	82.000000	74.000000
41.635783	41.722486	75.000000	78.000000
41.722486	41.809188	72.000000	73.000000
41.809188	41.895891	75.000000	85.000000
41.895891	41.982593	70.000000	74.000000
41.982593	42.069296	63.000000	76.000000
42.069296	42.155998	60.000000	73.000000
42.155998	42.242701	63.000000	83.000000
42.242701	42.329403	58.000000	72.000000
42.329403	42.416105	51.000000	76.000000
42.416105	42.502808	48.000000	72.000000
42.502808	43.890047	29.000000	81.000000
42.502808	43.890047	41.000000	97.000000
42.589510	42.676213	48.000000	72.000000
42.676213	42.762915	51.000000	76.000000
42.762915	42.849618	57.000000	73.000000
42.849618	42.936320	63.000000	79.000000
42.936320	43.023023	60.000000	71.000000
43.023023	43.109725	63.000000	76.000000
43.109725	43.196428	69.000000	73.000000
43.196428	43.283130	75.000000	82.000000
43.283130	43.369833	72.000000	75.000000
43.369833	43.456535	75.000000	77.000000
43.456535	43.543237	81.000000	74.000000
43.543237	43.629940	87.000000	85.000000
43.629940	43.716642	84.000000	75.000000
43.716642	43.803345	87.000000	78.000000
43.803345	43.890047	93.000000	75.000000
43.890047	43.976763	99.000000	86.000000
43.890047	45.283416	35.000000	85.000000
43.890047	45.195949	47.000000	100.000000
43.976763	44.063466	92.000000	73.000000
44.063466	44.150168	87.000000	77.000000
44.150168	44.236871	83.000000	73.000000
44.236871	44.323573	87.000000	85.000000
44.323573	44.410276	80.000000	71.000000
44.410276	44.496978	75.000000	76.000000
44.496978	44.583680	71.000000	71.000000
44.583680	44.671147	75.000000	80.000000
44.671147	44.758614	68.000000	70.000000
44.758614	44.846081	63.000000	72.000000
44.846081	44.933548	59.000000	67.000000
44.933548	45.021015	63.000000	71.000000
45.021015	45.108482	56.000000	65.000000
45.108482	45.195949	51.000000	69.000000
45.195949	45.283416	47.000000	66.000000
45.283416	48.082356	34.000000	84.000000
45.370882	45.458349	46.000000	66.000000
45.458349	45.545816	53.000000	70.000000
45.545816	45.633283	56.000000	67.000000
45.633283	45.720750	62.000000	76.000000
45.720750	45.808217	58.000000	64.000000
45.808217	45.895684	65.000000	69.000000
45.895684	45.983151	68.000000	65.000000
45.983151	46.070618	74.000000	76.000000
46.070618	46.158085	70.000000	66.000000
46.158085	46.245551	77.000000	71.000000
46.245551	46.333018	80.000000	67.000000
46.333018	46.420485	86.000000	76.000000
46.420485	46.507952	82.000000	65.000000
46.507952	46.595419	89.000000	71.000000
46.595419	46.682886	92.000000	67.000000
46.682886	46.770353	98.000000	83.000000
46.682886	47.994889	46.000000	87.000000
46.770353	46.857820	92.000000	70.000000
46.857820	46.945287	88.000000	74.000000
46.945287	47.032753	82.000000	70.000000
47.032753	47.120220	86.000000	84.000000
47.120220	47.207687	80.000000	71.000000
47.207687	47.295154	76.000000	76.000000
47.295154	47.382621	70.000000	71.000000
47.382621	47.470088	74.000000	87.000000
47.470088	47.557555	68.000000	72.000000
47.557555	47.645022	64.000000	76.000000
47.645022	47.732489	58.000000	70.000000
47.732489	47.819955	62.000000	86.000000
47.819955	47.907422	56.000000	71.000000
47.907422	47.994889	52.000000	76.000000
47.994889	48.082356	46.000000	72.000000
48.082356	50.854086	33.000000	78.000000
48.082356	48.168562	45.000000	94.000000
48.168562	50.754750	45.000000	72.000000
48.254769	48.340975	52.000000	76.000000
48.340975	48.427181	57.000000	72.000000
48.427181	48.513387	61.000000	81.000000
48.513387	48.599594	57.000000	70.000000
48.599594	48.685800	64.000000	76.000000
48.685800	48.772006	69.000000	74.000000
48.772006	48.858212	73.000000	83.000000
48.858212	48.944419	69.000000	74.000000
48.944419	49.030625	76.000000	77.000000
49.030625	49.116831	81.000000	73.000000
49.116831	49.203037	85.000000	85.000000
49.203037	49.289244	81.000000	74.000000
49.289244	49.375450	88.000000	78.000000
49.375450	49.461656	93.000000	74.000000
49.461656	49.547862	97.000000	87.000000
49.547862	49.634069	93.000000	74.000000
49.634069	49.720275	88.000000	79.000000
49.720275	49.806481	81.000000	74.000000
49.806481	49.892687	85.000000	85.000000
49.892687	49.978894	81.000000	72.000000
49.978894	50.065100	76.000000	77.000000
50.065100	50.151306	69.000000	72.000000
50.151306	50.237513	73.000000	86.000000
50.237513	50.323719	69.000000	72.000000
50.323719	50.409925	64.000000	74.000000
50.409925	50.496131	57.000000	69.000000
50.496131	50.582338	61.000000	84.000000
50.582338	50.668544	57.000000	68.000000
50.668544	50.754750	52.000000	72.000000
50.754750	50.854086	45.000000	68.000000
50.854086	52.245402	38.000000	90.000000
50.941043	51.028000	45.000000	69.000000
51.028000	51.114958	50.000000	72.000000
51.114958	51.201915	54.000000	69.000000
51.201915	51.288872	60.000000	74.000000
51.288872	51.375829	57.000000	68.000000
51.375829	51.462787	62.000000	71.000000
51.462787	51.549744	66.000000	66.000000
51.549744	51.636701	72.000000	74.000000
51.636701	51.723658	69.000000	66.000000
51.723658	51.810616	74.000000	71.000000
51.810616	51.897573	78.000000	68.000000
51.897573	51.984530	84.000000	75.000000
51.984530	52.071488	81.000000	67.000000
52.071488	52.158445	86.000000	70.000000
52.158445	52.245402	90.000000	67.000000
52.245402	52.332869	96.000000	76.000000
52.245402	53.650559	31.000000	75.000000
52.245402	53.557392	43.000000	84.000000
52.332869	52.420336	89.000000	68.000000
52.420336	52.507803	86.000000	71.000000
52.507803	52.595270	79.000000	68.000000
52.595270	52.682737	84.000000	73.000000
52.682737	52.770203	77.000000	66.000000
52.770203	52.857670	74.000000	69.000000
52.857670	52.945137	67.000000	63.000000
52.945137	53.032604	72.000000	74.000000
53.032604	53.120071	65.000000	63.000000
53.120071	53.207538	62.000000	66.000000
53.207538	53.295005	55.000000	62.000000
53.295005	53.382472	59.000000	76.000000
53.382472	53.469939	53.000000	64.000000
53.469939	53.557392	50.000000	61.000000
53.557392	53.650559	43.000000	64.000000
53.650559	55.037798	36.000000	79.000000
53.737261	53.823964	43.000000	64.000000
53.823964	53.910666	48.000000	61.000000
53.910666	53.997368	52.000000	64.000000
53.997368	54.084071	59.000000	74.000000
54.084071	54.170773	55.000000	61.000000
54.170773	54.257476	60.000000	61.000000
54.257476	54.344178	64.000000	65.000000
54.344178	54.430881	71.000000	72.000000
54.430881	54.517583	67.000000	61.000000
54.517583	54.604286	72.000000	66.000000
54.604286	54.690988	76.000000	61.000000
54.690988	54.777691	83.000000	73.000000
54.777691	54.864393	79.000000	64.000000
54.864393	54.951096	84.000000	66.000000
54.951096	55.037798	88.000000	63.000000
55.037798	55.125010	95.000000	75.000000
55.037798	56.433178	29.000000	66.000000
55.037798	56.345979	41.000000	78.000000
55.125010	55.212222	88.000000	65.000000
55.212222	55.299434	84.000000	67.000000
55.299434	55.386646	77.000000	67.000000
55.386646	55.473858	83.000000	74.000000
55.473858	55.561071	76.000000	64.000000
55.561071	55.648283	72.000000	66.000000
55.648283	55.735495	65.000000	61.000000
55.735495	55.822707	71.000000	73.000000
55.822707	55.909919	64.000000	66.000000
55.909919	55.997131	60.000000	61.000000
55.997131	56.084343	53.000000	62.000000
56.084343	56.171555	57.000000	74.000000
56.171555	56.258767	52.000000	60.000000
56.258767	56.345979	48.000000	64.000000
56.345979	56.433178	41.000000	61.000000
56.433178	57.828571	35.000000	84.000000
56.520390	56.607602	41.000000	65.000000
56.607602	56.694814	47.000000	68.000000
56.694814	56.782026	50.000000	64.000000
56.782026	56.869238	57.000000	77.000000
56.869238	56.956450	53.000000	63.000000
56.956450	57.043663	59.000000	68.000000
57.043663	57.130875	62.000000	66.000000
57.130875	57.218087	69.000000	74.000000
57.218087	57.305299	65.000000	64.000000
57.305299	57.392511	71.000000	68.000000
57.392511	57.479723	74.000000	63.000000
57.479723	57.566935	81.000000	74.000000
57.566935	57.654147	77.000000	64.000000
57.654147	57.741359	83.000000	68.000000
57.741359	57.828571	86.000000	64.000000
57.828571	57.915032	91.000000	75.000000
57.828571	58.520246	28.000000	72.000000
57.828571	58.520246	40.000000	85.000000
57.915032	58.001493	86.000000	65.000000
58.001493	58.087954	83.000000	68.000000
58.087954	58.174416	76.000000	65.000000
58.174416	58.260877	79.000000	75.000000
58.260877	58.347338	74.000000	65.000000
58.347338	58.433799	71.000000	68.000000
58.433799	58.520246	64.000000	64.000000
58.520246	58.607713	69.000000	75.000000
58.520246	59.225105	33.000000	72.000000
58.520246	59.225105	45.000000	85.000000
58.607713	58.695180	72.000000	64.000000
58.695180	58.782647	79.000000	68.000000
58.782647	58.870114	76.000000	64.000000
58.870114	58.957581	81.000000	75.000000
58.957581	59.045048	84.000000	65.000000
59.045048	59.132515	91.000000	69.000000
59.132515	59.225105	88.000000	65.000000
59.225105	59.311552	89.000000	76.000000
59.225105	59.916766	26.000000	74.000000
59.225105	59.916766	38.000000	88.000000
59.311552	59.398013	84.000000	67.000000
59.398013	59.484474	81.000000	70.000000
59.484474	59.570935	74.000000	66.000000
59.570935	59.657396	77.000000	77.000000
59.657396	59.743858	72.000000	67.000000
59.743858	59.830319	69.000000	72.000000
59.830319	59.916766	62.000000	67.000000
59.916766	60.004233	67.000000	78.000000
59.916766	60.620498	31.000000	74.000000
59.916766	60.620498	43.000000	88.000000
60.004233	60.091700	71.000000	66.000000
60.091700	60.179167	77.000000	72.000000
60.179167	60.266634	74.000000	68.000000
60.266634	60.354101	79.000000	78.000000
60.354101	60.441568	83.000000	68.000000
60.441568	60.529034	89.000000	74.000000
60.529034	60.620498	86.000000	68.000000
60.620498	60.706946	88.000000	80.000000
60.620498	61.312160	24.000000	80.000000
60.620498	61.312160	36.000000	94.000000
60.706946	60.793407	83.000000	70.000000
60.793407	60.879868	79.000000	75.000000
60.879868	60.966329	72.000000	70.000000
60.966329	61.052790	76.000000	83.000000
61.052790	61.139251	71.000000	70.000000
61.139251	61.225712	67.000000	76.000000
61.225712	61.312160	60.000000	70.000000
61.312160	61.399626	65.000000	86.000000
61.312160	62.011895	29.000000	82.000000
61.312160	62.011895	41.000000	97.000000
61.399626	61.487093	69.000000	71.000000
61.487093	61.574560	76.000000	77.000000
61.574560	61.662027	72.000000	71.000000
61.662027	61.749494	77.000000	86.000000
61.749494	61.836961	81.000000	73.000000
61.836961	61.924428	88.000000	79.000000
61.924428	62.011895	84.000000	75.000000
62.011895	62.098101	86.000000	90.000000
62.011895	63.046370	35.000000	85.000000
62.011895	62.960164	47.000000	101.000000
62.098101	62.184307	81.000000	76.000000
62.184307	62.270513	77.000000	80.000000
62.270513	62.356720	71.000000	75.000000
62.356720	62.442926	74.000000	90.000000
62.442926	62.529132	69.000000	76.000000
62.529132	62.615338	65.000000	80.000000
62.615338	62.701545	59.000000	74.000000
62.701545	62.787751	62.000000	90.000000
62.787751	62.873957	57.000000	75.000000
62.873957	62.960164	53.000000	80.000000
62.960164	63.046370	47.000000	75.000000
63.046370	64.441200	35.000000	102.000000
63.406725	63.492931	87.000000	91.000000
63.406725	64.354994	47.000000	100.000000
63.492931	63.579137	81.000000	75.000000
63.579137	63.665344	78.000000	80.000000
63.665344	63.751550	71.000000	75.000000
63.751550	63.837756	75.000000	91.000000
63.837756	63.923962	69.000000	76.000000
63.923962	64.010169	66.000000	80.000000
64.010169	64.096375	59.000000	74.000000
64.096375	64.182581	63.000000	91.000000
64.182581	64.268787	57.000000	75.000000
64.268787	64.354994	54.000000	80.000000
64.354994	64.441200	47.000000	76.000000
64.441200	64.804827	35.000000	93.000000
64.804827	67.227614	28.000000	84.000000
64.804827	67.227614	40.000000	100.000000
64.891033	64.977240	47.000000	76.000000
64.977240	65.063446	52.000000	80.000000
65.063446	65.149652	56.000000	76.000000
65.149652	65.235858	64.000000	91.000000
65.235858	65.322065	59.000000	76.000000
65.322065	65.408271	64.000000	80.000000
65.408271	65.494477	68.000000	77.000000
65.494477	65.580683	76.000000	91.000000
65.580683	65.666890	71.000000	76.000000
65.666890	65.753096	76.000000	80.000000
65.753096	65.839302	80.000000	76.000000
65.839302	65.925508	88.000000	91.000000
65.925508	66.011715	83.000000	75.000000
66.011715	66.097921	88.000000	80.000000
66.097921	66.184127	92.000000	75.000000
66.184127	66.271084	100.000000	91.000000
66.271084	66.358042	92.000000	77.000000
66.358042	66.444999	88.000000	79.000000
66.444999	66.531956	83.000000	74.000000
66.531956	66.618914	88.000000	88.000000
66.618914	66.705871	80.000000	72.000000
66.705871	66.792828	76.000000	76.000000
66.792828	66.879785	71.000000	69.000000
66.879785	66.966743	76.000000	85.000000
66.966743	67.053700	68.000000	69.000000
67.053700	67.140657	64.000000	72.000000
67.140657	67.227614	59.000000	67.000000
67.227614	67.317710	65.000000	80.000000
67.227614	67.587996	26.000000	74.000000
67.227614	67.587996	38.000000	88.000000
67.317710	67.407805	59.000000	65.000000
67.407805	67.497901	55.000000	69.000000
67.497901	67.587996	50.000000	64.000000
67.587996	68.967296	24.000000	72.000000
67.587996	70.395520	36.000000	85.000000
67.674203	67.760409	48.000000	64.000000
67.760409	67.846615	55.000000	68.000000
67.846615	67.932821	60.000000	63.000000
67.932821	68.019028	64.000000	72.000000
68.019028	68.105234	60.000000	63.000000
68.105234	68.191440	67.000000	68.000000
68.191440	68.277646	72.000000	65.000000
68.277646	68.363853	76.000000	76.000000
68.363853	68.450059	72.000000	64.000000
68.450059	68.536265	79.000000	70.000000
68.536265	68.622471	84.000000	64.000000
68.622471	68.708678	88.000000	77.000000
68.708678	68.794884	84.000000	65.000000
68.794884	68.881090	91.000000	70.000000
68.881090	68.967296	96.000000	65.000000
68.967296	69.053503	100.000000	77.000000
68.967296	70.287615	48.000000	78.000000
69.053503	69.139709	96.000000	66.000000
69.139709	69.225915	91.000000	71.000000
69.225915	69.312121	84.000000	68.000000
69.312121	69.398328	88.000000	77.000000
69.398328	69.484534	84.000000	66.000000
69.484534	69.570740	79.000000	70.000000
69.570740	69.656946	72.000000	65.000000
69.656946	69.747042	76.000000	76.000000
69.747042	69.837137	72.000000	65.000000
69.837137	69.927233	67.000000	69.000000
69.927233	70.017328	60.000000	63.000000
70.017328	70.107424	64.000000	75.000000
70.107424	70.197519	60.000000	63.000000
70.197519	70.287615	55.000000	68.000000
70.287615	70.395520	48.000000	63.000000
70.395520	71.815576	29.000000	72.000000
70.395520	71.815576	41.000000	85.000000
70.482719	70.569931	48.000000	64.000000
70.569931	70.657143	57.000000	68.000000
70.657143	70.744355	60.000000	64.000000
70.744355	70.831567	65.000000	78.000000
70.831567	70.918779	60.000000	64.000000
70.918779	71.005991	69.000000	69.000000
71.005991	71.093203	72.000000	67.000000
71.093203	71.182749	77.000000	82.000000
71.182749	71.272294	72.000000	68.000000
71.272294	71.361840	81.000000	73.000000
71.361840	71.451386	84.000000	69.000000
71.451386	71.540931	89.000000	83.000000
71.540931	71.630477	84.000000	69.000000
71.630477	71.720036	93.000000	74.000000
71.720036	71.815576	96.000000	70.000000
71.815576	71.902775	100.000000	88.000000
71.815576	73.232830	30.000000	77.000000
71.815576	73.232830	42.000000	91.000000
71.902775	71.989987	96.000000	70.000000
71.989987	72.077199	93.000000	77.000000
72.077199	72.164411	84.000000	71.000000
72.164411	72.251623	88.000000	89.000000
72.251623	72.338835	84.000000	72.000000
72.338835	72.426047	81.000000	79.000000
72.426047	72.513259	72.000000	73.000000
72.513259	72.600472	76.000000	89.000000
72.600472	72.687684	72.000000	73.000000
72.687684	72.774896	69.000000	78.000000
72.774896	72.862108	60.000000	72.000000
72.862108	72.949320	62.000000	90.000000
72.949320	73.036532	60.000000	72.000000
73.036532	73.123744	57.000000	79.000000
73.123744	73.232830	48.000000	71.000000
73.232830	73.940826	31.000000	85.000000
73.232830	73.940826	43.000000	101.000000
73.321329	73.409829	47.000000	75.000000
73.409829	73.498328	55.000000	80.000000
73.498328	73.586828	59.000000	75.000000
73.586828	73.675327	62.000000	91.000000
73.675327	73.763827	59.000000	75.000000
73.763827	73.852326	67.000000	80.000000
73.852326	73.940826	71.000000	76.000000
73.940826	74.033134	74.000000	93.000000
73.940826	74.310059	30.000000	86.000000
73.940826	74.310059	42.000000	102.000000
74.033134	74.125442	71.000000	76.000000
74.125442	74.217751	79.000000	82.000000
74.217751	74.310059	83.000000	76.000000
74.310059	74.404392	86.000000	94.000000
74.310059	74.687392	28.000000	86.000000
74.310059	74.687392	40.000000	103.000000
74.404392	74.498726	83.000000	76.000000
74.498726	74.593059	91.000000	83.000000
74.593059	74.687392	93.000000	76.000000
74.687392	74.777475	98.000000	96.000000
74.687392	76.136846	26.000000	85.000000
74.687392	76.136846	38.000000	101.000000
74.777475	74.867570	93.000000	77.000000
74.867570	74.957665	90.000000	84.000000
74.957665	75.047761	84.000000	76.000000
75.047761	75.137856	86.000000	95.000000
75.137856	75.227952	81.000000	76.000000
75.227952	75.318047	78.000000	83.000000
75.318047	75.408143	72.000000	77.000000
75.408143	75.498238	74.000000	93.000000
75.498238	75.588334	69.000000	77.000000
75.588334	75.678429	66.000000	81.000000
75.678429	75.768525	60.000000	76.000000
75.768525	75.858620	62.000000	91.000000
75.858620	75.948715	57.000000	75.000000
75.948715	76.038811	54.000000	80.000000
76.038811	76.136846	48.000000	74.000000
76.136846	78.935263	31.000000	86.000000
76.136846	78.935263	43.000000	102.000000
76.223803	76.310760	48.000000	75.000000
76.310760	76.397718	53.000000	80.000000
76.397718	76.484675	56.000000	74.000000
76.484675	76.571632	62.000000	91.000000
76.571632	76.658589	60.000000	74.000000
76.658589	76.745547	65.000000	80.000000
76.745547	76.832504	68.000000	76.000000
76.832504	76.919461	74.000000	93.000000
76.919461	77.006418	72.000000	76.000000
77.006418	77.093376	77.000000	82.000000
77.093376	77.180333	80.000000	77.000000
77.180333	77.267290	86.000000	94.000000
77.267290	77.354248	84.000000	78.000000
77.354248	77.441205	89.000000	83.000000
77.441205	77.528162	92.000000	76.000000
77.528162	77.615119	98.000000	95.000000
77.615119	77.702077	91.000000	78.000000
77.702077	77.789034	89.000000	84.000000
77.789034	77.875991	83.000000	77.000000
77.875991	77.962948	86.000000	94.000000
77.962948	78.049906	79.000000	78.000000
78.049906	78.136863	77.000000	83.000000
78.136863	78.223820	71.000000	77.000000
78.223820	78.310778	74.000000	92.000000
78.310778	78.397735	67.000000	77.000000
78.397735	78.484692	65.000000	81.000000
78.484692	78.571649	59.000000	75.000000
78.571649	78.658607	63.000000	91.000000
78.658607	78.745564	55.000000	74.000000
78.745564	78.832521	53.000000	80.000000
78.832521	78.935263	47.000000	75.000000
78.935263	81.712022	36.000000	79.000000
78.935263	79.021470	48.000000	95.000000
79.021470	81.616482	48.000000	75.000000
79.107676	79.193882	55.000000	80.000000
79.193882	79.280088	60.000000	75.000000
79.280088	79.366295	64.000000	92.000000
79.366295	79.452501	60.000000	75.000000
79.452501	79.538707	67.000000	80.000000
79.538707	79.624913	72.000000	76.000000
79.624913	79.711120	76.000000	93.000000
79.711120	79.797326	72.000000	76.000000
79.797326	79.883532	79.000000	82.000000
79.883532	79.969738	84.000000	76.000000
79.969738	80.055945	88.000000	94.000000
80.055945	80.142151	84.000000	78.000000
80.142151	80.228357	91.000000	83.000000
80.228357	80.314563	96.000000	78.000000
80.314563	80.400770	100.000000	96.000000
80.400770	80.486976	96.000000	77.000000
80.486976	80.573182	91.000000	84.000000
80.573182	80.659388	84.000000	77.000000
80.659388	80.745595	88.000000	95.000000
80.745595	80.831801	84.000000	76.000000
80.831801	80.918007	79.000000	83.000000
80.918007	81.004213	72.000000	76.000000
81.004213	81.091680	76.000000	94.000000
81.091680	81.179147	72.000000	77.000000
81.179147	81.266614	67.000000	81.000000
81.266614	81.354081	60.000000	77.000000
81.354081	81.441548	64.000000	92.000000
81.441548	81.529015	60.000000	76.000000
81.529015	81.616482	55.000000	80.000000
81.616482	81.712022	48.000000	74.000000
81.712022	84.148864	33.000000	84.000000
81.712022	84.148864	45.000000	100.000000
81.798724	81.885427	48.000000	75.000000
81.885427	81.972129	53.000000	80.000000
81.972129	82.058832	60.000000	75.000000
82.058832	82.145534	65.000000	85.000000
82.145534	82.232237	60.000000	75.000000
82.232237	82.318939	65.000000	80.000000
82.318939	82.405642	72.000000	76.000000
82.405642	82.492344	77.000000	88.000000
82.492344	82.579047	72.000000	76.000000
82.579047	82.665749	77.000000	82.000000
82.665749	82.752452	84.000000	77.000000
82.752452	82.839154	89.000000	90.000000
82.839154	82.925856	84.000000	78.000000
82.925856	83.012559	89.000000	83.000000
83.012559	83.099261	96.000000	78.000000
83.099261	83.186728	100.000000	92.000000
83.186728	83.274195	96.000000	78.000000
83.274195	83.361662	90.000000	84.000000
83.361662	83.449129	84.000000	78.000000
83.449129	83.536596	88.000000	91.000000
83.536596	83.624063	84.000000	79.000000
83.624063	83.711530	78.000000	83.000000
83.711530	83.798997	72.000000	76.000000
83.798997	83.886463	75.000000	90.000000
83.886463	83.973930	72.000000	78.000000
83.973930	84.061397	66.000000	81.000000
84.061397	84.148864	60.000000	75.000000
84.148864	84.238155	63.000000	86.000000
84.148864	84.509621	32.000000	85.000000
84.148864	84.509621	44.000000	101.000000
84.238155	84.327446	60.000000	74.000000
84.327446	84.416736	54.000000	80.000000
84.416736	84.509621	48.000000	73.000000
84.509621	87.321732	31.000000	80.000000
84.509621	87.321732	43.000000	95.000000
84.596834	84.684046	48.000000	70.000000
84.684046	84.771258	55.000000	76.000000
84.771258	84.858470	60.000000	71.000000
84.858470	84.945682	62.000000	78.000000
84.945682	85.032894	60.000000	71.000000
85.032894	85.120106	67.000000	76.000000
85.120106	85.207318	72.000000	73.000000
85.207318	85.294530	74.000000	83.000000
85.294530	85.381742	72.000000	74.000000
85.381742	85.468954	79.000000	77.000000
85.468954	85.556166	84.000000	73.000000
85.556166	85.643379	86.000000	86.000000
85.643379	85.730591	84.000000	76.000000
85.730591	85.817803	91.000000	78.000000
85.817803	85.905001	96.000000	72.000000
85.905001	85.992978	98.000000	88.000000
85.992978	86.080954	95.000000	74.000000
86.080954	86.168931	91.000000	79.000000
86.168931	86.256907	83.000000	74.000000
86.256907	86.344884	86.000000	85.000000
86.344884	86.432860	83.000000	75.000000
86.432860	86.520837	79.000000	78.000000
86.520837	86.608813	71.000000	73.000000
86.608813	86.696790	74.000000	84.000000
86.696790	86.784766	71.000000	72.000000
86.784766	86.872743	67.000000	76.000000
86.872743	86.960720	59.000000	72.000000
86.960720	87.048696	62.000000	82.000000
87.048696	87.136673	59.000000	71.000000
87.136673	87.224649	55.000000	76.000000
87.224649	87.321732	47.000000	71.000000
87.321732	88.712391	30.000000	80.000000
87.321732	88.712391	42.000000	95.000000
87.407938	87.494144	48.000000	72.000000
87.494144	87.580350	57.000000	76.000000
87.580350	87.666557	60.000000	72.000000
87.666557	87.752763	62.000000	78.000000
87.752763	87.838969	60.000000	71.000000
87.838969	87.925175	69.000000	76.000000
87.925175	88.011382	72.000000	72.000000
88.011382	88.098339	74.000000	81.000000
88.098339	88.185296	72.000000	73.000000
88.185296	88.272254	81.000000	77.000000
88.272254	88.359211	84.000000	75.000000
88.359211	88.446168	86.000000	85.000000
88.446168	88.533125	84.000000	75.000000
88.533125	88.620083	93.000000	78.000000
88.620083	88.712391	96.000000	72.000000
88.712391	88.798597	99.000000	87.000000
88.712391	90.103707	29.000000	79.000000
88.712391	90.103707	41.000000	95.000000
88.798597	88.884803	96.000000	74.000000
88.884803	88.971010	93.000000	79.000000
88.971010	89.057216	84.000000	73.000000
89.057216	89.143422	87.000000	86.000000
89.143422	89.229628	84.000000	74.000000
89.229628	89.315835	81.000000	78.000000
89.315835	89.402041	72.000000	74.000000
89.402041	89.489253	75.000000	84.000000
89.489253	89.576465	71.000000	74.000000
89.576465	89.663677	69.000000	76.000000
89.663677	89.750889	59.000000	72.000000
89.750889	89.838101	63.000000	83.000000
89.838101	89.925313	59.000000	72.000000
89.925313	90.012525	57.000000	76.000000
90.012525	90.103707	47.000000	71.000000
90.103707	91.483007	28.000000	81.000000
90.103707	92.875008	40.000000	96.000000
90.189914	90.276120	47.000000	71.000000
90.276120	90.362326	56.000000	76.000000
90.362326	90.448532	59.000000	71.000000
90.448532	90.534739	64.000000	80.000000
90.534739	90.620945	59.000000	71.000000
90.620945	90.707151	68.000000	76.000000
90.707151	90.793357	71.000000	72.000000
90.793357	90.879564	76.000000	84.000000
90.879564	90.965770	71.000000	72.000000
90.965770	91.051976	80.000000	77.000000
91.051976	91.138182	83.000000	73.000000
91.138182	91.224389	88.000000	87.000000
91.224389	91.310595	83.000000	74.000000
91.310595	91.396801	92.000000	78.000000
91.396801	91.483007	95.000000	74.000000
91.483007	91.569710	100.000000	89.000000
91.483007	92.176627	52.000000	96.000000
91.569710	91.656412	95.000000	75.000000
91.656412	91.743115	92.000000	78.000000
91.743115	91.829817	83.000000	71.000000
91.829817	91.916520	88.000000	86.000000
91.916520	92.003222	83.000000	72.000000
92.003222	92.089925	80.000000	75.000000
92.089925	92.176627	71.000000	69.000000
92.176627	92.263329	76.000000	83.000000
92.263329	92.350032	71.000000	69.000000
92.350032	92.436734	68.000000	72.000000
92.436734	92.523437	59.000000	66.000000
92.523437	92.610139	64.000000	78.000000
92.610139	92.696842	59.000000	65.000000
92.696842	92.783544	56.000000	69.000000
92.783544	92.875008	47.000000	61.000000
92.875008	94.254308	38.000000	73.000000
92.961214	93.047420	50.000000	56.000000
93.047420	93.133626	57.000000	61.000000
93.133626	93.219833	60.000000	55.000000
93.219833	93.306039	65.000000	69.000000
93.306039	93.392245	62.000000	56.000000
93.392245	93.478451	69.000000	61.000000
93.478451	93.564658	72.000000	58.000000
93.564658	93.650864	77.000000	70.000000
93.650864	93.737070	74.000000	57.000000
93.737070	93.823276	81.000000	62.000000
93.823276	93.909483	84.000000	58.000000
93.909483	93.995689	89.000000	71.000000
93.995689	94.081895	86.000000	59.000000
94.081895	94.168101	93.000000	63.000000
94.168101	94.254308	96.000000	59.000000
94.254308	94.340514	101.000000	72.000000
94.254308	95.637215	31.000000	63.000000
94.254308	95.637215	43.000000	75.000000
94.340514	94.426720	95.000000	59.000000
94.426720	94.512926	91.000000	64.000000
94.512926	94.599133	86.000000	58.000000
94.599133	94.685339	89.000000	70.000000
94.685339	94.771545	86.000000	56.000000
94.771545	94.857751	79.000000	63.000000
94.857751	94.943958	74.000000	57.000000
94.943958	95.030164	77.000000	69.000000
95.030164	95.116370	71.000000	58.000000
95.116370	95.202576	67.000000	62.000000
95.202576	95.288783	62.000000	58.000000
95.288783	95.374989	65.000000	69.000000
95.374989	95.461195	59.000000	56.000000
95.461195	95.547402	55.000000	61.000000
95.547402	95.637215	50.000000	56.000000
95.637215	98.420250	36.000000	78.000000
95.723422	95.809628	48.000000	58.000000
95.809628	95.895834	55.000000	63.000000
95.895834	95.982040	60.000000	57.000000
95.982040	96.068247	64.000000	70.000000
96.068247	96.154453	60.000000	59.000000
96.154453	96.240659	67.000000	64.000000
96.240659	96.326865	72.000000	58.000000
96.326865	96.413072	76.000000	73.000000
96.413072	96.499278	72.000000	58.000000
96.499278	96.585484	82.000000	65.000000
96.585484	96.671690	84.000000	59.000000
96.671690	96.757897	91.000000	78.000000
96.757897	96.844103	84.000000	68.000000
96.844103	96.930309	82.000000	71.000000
96.930309	97.016515	76.000000	70.000000
97.016515	97.103982	90.000000	78.000000
97.016515	98.420250	48.000000	84.000000
97.103982	97.191449	84.000000	68.000000
97.191449	97.278916	81.000000	70.000000
97.278916	97.366383	75.000000	68.000000
97.366383	97.453850	78.000000	76.000000
97.453850	97.541317	72.000000	69.000000
97.541317	97.628784	69.000000	70.000000
97.628784	97.716251	63.000000	68.000000
97.716251	97.803717	77.000000	76.000000
97.803717	97.891184	71.000000	67.000000
97.891184	97.978651	68.000000	67.000000
97.978651	98.066118	62.000000	65.000000
98.066118	98.153585	65.000000	78.000000
98.153585	98.241052	59.000000	68.000000
98.241052	98.328519	56.000000	68.000000
98.328519	98.420250	50.000000	64.000000
98.420250	99.799550	36.000000	84.000000
98.506457	98.592663	48.000000	64.000000
98.592663	98.678869	55.000000	68.000000
98.678869	98.765075	60.000000	64.000000
98.765075	98.851282	64.000000	74.000000
98.851282	98.937488	60.000000	68.000000
98.937488	99.023694	67.000000	72.000000
99.023694	99.109900	72.000000	68.000000
99.109900	99.196107	79.000000	78.000000
99.196107	99.282313	76.000000	70.000000
99.282313	99.368519	79.000000	75.000000
99.368519	99.454725	84.000000	70.000000
99.454725	99.540932	88.000000	82.000000
99.540932	99.627138	84.000000	73.000000
99.627138	99.713344	79.000000	78.000000
99.713344	99.799550	72.000000	74.000000
99.799550	99.885757	87.000000	86.000000
99.799550	101.190035	31.000000	83.000000
99.799550	101.190035	43.000000	99.000000
99.885757	99.971963	81.000000	75.000000
99.971963	100.058169	78.000000	79.000000
100.058169	100.144375	72.000000	73.000000
100.144375	100.230582	75.000000	84.000000
100.230582	100.316788	69.000000	70.000000
100.316788	100.402994	66.000000	76.000000
100.402994	100.489200	60.000000	71.000000
100.489200	100.576399	74.000000	80.000000
100.576399	100.663611	68.000000	70.000000
100.663611	100.750823	65.000000	72.000000
100.750823	100.838035	59.000000	68.000000
100.838035	100.925248	62.000000	80.000000
100.925248	101.012460	56.000000	66.000000
101.012460	101.099672	53.000000	69.000000
101.099672	101.190035	47.000000	64.000000
101.190035	103.958801	31.000000	70.000000
101.190035	103.958801	43.000000	83.000000
101.276242	101.362448	46.000000	64.000000
101.362448	101.448654	52.000000	68.000000
101.448654	101.534860	55.000000	65.000000
101.534860	101.621067	61.000000	80.000000
101.621067	101.707273	58.000000	67.000000
101.707273	101.793479	64.000000	72.000000
101.793479	101.879685	67.000000	67.000000
101.879685	101.965892	73.000000	78.000000
101.965892	102.052098	70.000000	69.000000
102.052098	102.138304	76.000000	75.000000
102.138304	102.224510	79.000000	71.000000
102.224510	102.310717	85.000000	82.000000
102.310717	102.396923	82.000000	72.000000
102.396923	102.483129	88.000000	78.000000
102.483129	102.573493	91.000000	74.000000
102.573493	102.659699	97.000000	84.000000
102.659699	102.745905	90.000000	75.000000
102.745905	102.832112	87.000000	79.000000
102.832112	102.918318	81.000000	72.000000
102.918318	103.004524	85.000000	82.000000
103.004524	103.090730	78.000000	71.000000
103.090730	103.176937	75.000000	76.000000
103.176937	103.263143	69.000000	69.000000
103.263143	103.350100	73.000000	81.000000
103.350100	103.437057	66.000000	68.000000
103.437057	103.524015	63.000000	72.000000
103.524015	103.610972	57.000000	68.000000
103.610972	103.697929	72.000000	78.000000
103.697929	103.784887	66.000000	65.000000
103.784887	103.871844	63.000000	69.000000
103.871844	103.958801	57.000000	64.000000
103.958801	106.740803	31.000000	72.000000
103.958801	106.649890	43.000000	85.000000
104.045007	104.131214	56.000000	68.000000
104.131214	104.217420	62.000000	64.000000
104.217420	104.303626	65.000000	69.000000
104.303626	104.389832	72.000000	76.000000
104.389832	104.476039	68.000000	68.000000
104.476039	104.562245	74.000000	72.000000
104.562245	104.648451	77.000000	69.000000
104.648451	104.734657	84.000000	78.000000
104.734657	104.820864	80.000000	71.000000
104.820864	104.907070	86.000000	75.000000
104.907070	104.993276	89.000000	72.000000
104.993276	105.079482	96.000000	81.000000
105.079482	105.165689	89.000000	74.000000
105.165689	105.251895	86.000000	78.000000
105.251895	105.338101	80.000000	74.000000
105.338101	105.424307	95.000000	86.000000
105.424307	105.510514	89.000000	74.000000
105.510514	105.596720	86.000000	79.000000
105.596720	105.682926	79.000000	74.000000
105.682926	105.769387	83.000000	81.000000
105.769387	105.855848	77.000000	73.000000
105.855848	105.942309	74.000000	76.000000
105.942309	106.028851	67.000000	71.000000
106.028851	106.115553	71.000000	77.000000
106.115553	106.202256	65.000000	69.000000
106.202256	106.288958	62.000000	73.000000
106.288958	106.377149	55.000000	69.000000
106.377149	106.468063	59.000000	80.000000
106.468063	106.558976	53.000000	66.000000
106.558976	106.649890	50.000000	69.000000
106.649890	106.740803	43.000000	68.000000
106.740803	109.544679	24.000000	71.000000
106.740803	109.544679	36.000000	84.000000
106.827519	106.914222	43.000000	66.000000
106.914222	107.000924	52.000000	68.000000
107.000924	107.087627	55.000000	65.000000
107.087627	107.174329	60.000000	78.000000
107.174329	107.261032	55.000000	71.000000
107.261032	107.347493	64.000000	72.000000
107.347493	107.433954	67.000000	68.000000
107.433954	107.520415	72.000000	83.000000
107.520415	107.606876	67.000000	70.000000
107.606876	107.693337	76.000000	75.000000
107.693337	107.779798	79.000000	72.000000
107.779798	107.866004	84.000000	87.000000
107.866004	107.952211	79.000000	72.000000
107.952211	108.043124	88.000000	78.000000
108.043124	108.134038	91.000000	75.000000
108.134038	108.220995	96.000000	91.000000
108.220995	108.307952	91.000000	75.000000
108.307952	108.395164	88.000000	80.000000
108.395164	108.482376	79.000000	75.000000
108.482376	108.569843	84.000000	91.000000
108.569843	108.657310	79.000000	73.000000
108.657310	108.745032	76.000000	78.000000
108.745032	108.832754	67.000000	74.000000
108.832754	108.920730	72.000000	89.000000
108.920730	109.008707	67.000000	77.000000
109.008707	109.096938	64.000000	71.000000
109.096938	109.185169	55.000000	73.000000
109.185169	109.273669	60.000000	86.000000
109.273669	109.362168	55.000000	73.000000
109.362168	109.450923	52.000000	76.000000
109.450923	109.544679	43.000000	70.000000
109.544679	110.969014	24.000000	80.000000
109.544679	110.969014	36.000000	94.000000
