OnsetTime	OffsetTime	MidiPitch	Velocity
0.500004	1.74117	69	77
0.843864	1.13805	50	59
0.843864	1.13805	66	68
0.990956	1.74117	73	70
1.13805	1.42569	50	52
1.13805	1.42569	57	52
1.13805	1.42569	62	52
1.13805	1.42569	66	60
1.13805	1.74117	74	71
1.28187	1.74117	76	71
1.42569	1.74117	50	52
1.42569	1.74117	57	52
1.42569	1.74117	62	52
1.42569	1.74117	66	61
1.42569	1.65773	78	72
1.57428	1.69945	79	73
1.65773	1.74117	78	70
1.69945	1.74117	79	68
1.74117	2.62973	45	59
1.74117	2.62973	78	76
2.04367	2.3367	52	54
2.04367	2.3367	57	54
2.04367	2.3367	61	54
2.04367	2.3367	67	62
2.04367	2.62973	76	74
2.19019	2.62973	74	74
2.3367	2.62973	52	54
2.3367	2.62973	57	54
2.3367	2.62973	61	54
2.3367	2.62973	67	62
2.3367	2.62973	73	73
2.48322	2.62973	71	72
2.62973	3.53059	38	59
2.62973	3.53059	69	74
2.77355	2.91737	74	70
2.91737	3.22721	50	54
2.91737	3.22721	57	54
2.91737	3.22721	62	54
2.91737	3.22721	66	62
2.91737	3.12393	74	74
3.02065	3.53059	76	70
3.12393	3.53059	74	70
3.22721	3.53059	50	54
3.22721	3.53059	57	54
3.22721	3.53059	62	54
3.22721	3.53059	66	59
3.22721	3.53059	73	70
3.3789	3.53059	71	70
3.53059	4.54542	45	59
3.53059	4.54542	73	73
3.84718	4.17907	57	43
3.84718	4.17907	64	44
3.84718	4.17907	69	53
4.17907	4.54542	57	56
4.17907	4.54542	64	56
4.17907	4.54542	67	57
4.17907	4.54542	69	68
4.54542	5.12725	50	59
4.54542	5.43543	69	74
4.69251	5.43543	73	70
4.83961	5.12725	57	52
4.83961	5.12725	62	52
4.83961	5.12725	66	60
4.83961	5.43543	74	71
4.98343	5.43543	76	71
5.12725	5.43543	50	52
5.12725	5.43543	57	52
5.12725	5.43543	62	52
5.12725	5.43543	66	61
5.12725	5.35564	78	72
5.27584	5.39554	79	73
5.35564	5.43543	78	70
5.39554	5.43543	79	68
5.43543	6.324	43	59
5.43543	6.324	78	76
5.73793	6.03096	59	54
5.73793	6.03096	64	54
5.73793	6.03096	67	62
5.73793	6.324	76	74
5.88445	6.324	74	74
6.03096	6.324	52	54
6.03096	6.324	59	54
6.03096	6.324	64	54
6.03096	6.324	67	62
6.03096	6.324	73	73
6.17748	6.324	71	72
6.324	7.22486	45	59
6.324	7.07316	69	74
6.46782	6.61164	73	70
6.61164	6.92147	57	54
6.61164	6.92147	64	54
6.61164	6.92147	67	62
6.61164	6.81819	73	74
6.71491	7.22486	74	70
6.81819	7.22486	73	70
6.92147	7.22486	57	54
6.92147	7.22486	64	54
6.92147	7.22486	67	59
6.92147	7.22486	71	70
7.07316	7.22486	69	70
7.22486	8.23734	38	59
7.22486	8.23734	74	73
7.53803	7.85546	50	36
7.53803	7.85546	57	36
7.53803	7.85546	62	43
7.53803	7.85546	66	53
7.85546	8.50957	50	39
7.85546	8.50957	57	39
7.85546	8.50957	62	39
7.85546	8.50957	66	47
8.20848	9.1239	69	40
8.35903	9.1239	73	39
8.50957	8.80397	50	23
8.50957	8.80397	57	23
8.50957	8.80397	62	23
8.50957	8.80397	66	33
8.50957	9.1239	74	39
8.65677	9.1239	76	39
8.80397	9.1239	50	23
8.80397	9.1239	57	23
8.80397	9.1239	62	23
8.80397	9.1239	66	33
8.80397	9.03998	78	40
8.95605	9.08194	79	40
9.03998	9.1239	78	39
9.08194	9.1239	79	37
9.1239	10.0334	45	27
9.1239	10.0334	78	42
9.43351	9.73343	52	24
9.43351	9.73343	57	24
9.43351	9.73343	61	24
9.43351	9.73343	67	34
9.43351	10.0334	76	40
9.58347	10.0334	74	40
9.73343	10.0334	52	24
9.73343	10.0334	57	24
9.73343	10.0334	61	24
9.73343	10.0334	67	34
9.73343	10.0334	73	40
9.8834	10.0334	71	40
10.0334	10.9554	38	27
10.0334	10.9554	69	40
10.1806	10.3278	74	39
10.3278	10.6449	50	24
10.3278	10.6449	57	24
10.3278	10.6449	62	24
10.3278	10.6449	66	34
10.3278	10.5392	74	40
10.4335	10.9554	76	39
10.5392	10.9554	74	39
10.6449	10.9554	50	24
10.6449	10.9554	57	24
10.6449	10.9554	62	24
10.6449	10.9554	66	32
10.6449	10.9554	73	39
10.8001	10.9554	71	39
10.9554	11.9727	45	27
10.9554	11.9727	73	40
11.2759	11.6175	57	20
11.2759	11.9727	61	20
11.2759	11.6175	64	24
11.2759	11.6175	69	29
11.6175	12.2738	57	26
11.6175	11.9727	64	26
11.6175	11.9727	67	31
11.6175	11.9727	69	37
11.9727	12.5682	50	27
11.9727	12.8862	69	40
12.1232	12.8862	73	39
12.2738	12.5682	57	23
12.2738	12.5682	62	23
12.2738	12.5682	66	33
12.2738	12.8862	74	39
12.421	12.8862	76	39
12.5682	12.8862	50	23
12.5682	12.8862	57	23
12.5682	12.8862	62	23
12.5682	12.8862	66	33
12.5682	12.8032	78	40
12.7203	12.8447	79	40
12.8032	12.8862	78	39
12.8447	12.8862	79	37
12.8862	13.7956	43	27
12.8862	13.7956	78	42
13.1958	13.4957	59	24
13.1958	13.4957	64	24
13.1958	13.4957	67	34
13.1958	13.7956	76	40
13.3458	13.7956	74	40
13.4957	13.7956	52	24
13.4957	13.7956	59	24
13.4957	13.7956	64	24
13.4957	13.7956	67	34
13.4957	13.7956	73	40
13.6457	13.7956	71	40
13.7956	14.7177	45	27
13.7956	14.5624	69	40
13.9428	14.09	73	39
14.09	14.4072	57	24
14.09	14.4072	64	24
14.09	14.4072	67	34
14.09	14.3015	73	40
14.1957	14.7177	74	39
14.3015	14.7177	73	39
14.4072	14.7177	57	24
14.4072	14.7177	64	24
14.4072	14.7177	67	32
14.4072	14.7177	71	39
14.5624	14.7177	69	39
14.7177	16.6014	38	27
14.7177	16.4331	74	40
15.0381	15.363	50	17
15.0381	15.363	57	17
15.0381	15.363	62	20
15.0381	15.363	66	29
15.363	16.6014	50	26
15.363	15.9969	57	26
15.363	16.6014	62	26
15.363	16.6014	66	37
15.7027	15.9969	45	59
15.7027	16.6014	64	73
15.8498	16.6014	68	70
15.9969	16.2845	45	52
15.9969	16.2845	52	52
15.9969	16.2845	57	52
15.9969	16.2845	61	60
15.9969	16.6014	69	71
16.1407	16.6014	71	71
16.2845	16.6014	45	52
16.2845	16.6014	52	52
16.2845	16.6014	57	52
16.2845	16.6014	61	61
16.2845	16.5173	73	72
16.4331	16.5594	74	73
16.5173	16.6014	73	70
16.5594	16.6014	74	68
16.6014	17.49	40	59
16.6014	17.49	73	76
16.9039	17.197	52	54
16.9039	17.197	59	54
16.9039	17.197	62	62
16.9039	17.49	71	74
17.0505	17.49	69	74
17.197	17.49	52	54
17.197	17.49	59	54
17.197	17.49	62	62
17.197	17.49	68	73
17.3435	17.49	66	72
17.49	18.3909	33	59
17.49	18.3909	64	74
17.6338	17.7776	69	70
17.7776	18.0875	45	54
17.7776	18.0875	52	54
17.7776	18.0875	57	54
17.7776	18.0875	61	62
17.7776	17.9842	69	74
17.8809	18.3909	71	70
17.9842	18.3909	69	70
18.0875	18.3909	45	54
18.0875	18.3909	52	54
18.0875	18.3909	57	54
18.0875	18.3909	61	59
18.0875	18.3909	68	70
18.2392	18.3909	66	70
18.3909	19.3963	40	59
18.3909	19.3963	68	73
18.71	19.04	52	43
18.71	19.04	59	44
18.71	19.04	64	53
19.04	19.3963	52	56
19.04	19.3963	59	56
19.04	19.3963	62	57
19.04	19.3963	64	68
19.3963	19.9781	45	59
19.3963	20.2917	64	74
19.5434	20.2917	68	70
19.6905	19.9781	52	52
19.6905	19.9781	57	52
19.6905	19.9781	61	60
19.6905	20.2917	69	71
19.8343	20.2917	71	71
19.9781	20.2917	45	52
19.9781	20.2917	52	52
19.9781	20.2917	57	52
19.9781	20.2917	61	61
19.9781	20.2092	73	72
20.1267	20.2505	74	73
20.2092	20.2917	73	70
20.2505	20.2917	74	68
20.2917	21.1803	38	59
20.2917	21.1803	73	76
20.5942	20.8872	54	54
20.5942	20.8872	59	54
20.5942	20.8872	62	62
20.5942	21.1803	71	74
20.7407	21.1803	69	74
20.8872	21.1803	47	54
20.8872	21.1803	54	54
20.8872	21.1803	59	54
20.8872	21.1803	62	62
20.8872	21.1803	68	73
21.0338	21.1803	66	72
21.1803	22.0811	40	59
21.1803	21.9294	64	74
21.3241	21.4679	68	70
21.4679	21.7778	52	54
21.4679	21.7778	59	54
21.4679	21.7778	62	62
21.4679	21.6745	68	74
21.5712	22.0811	69	70
21.6745	22.0811	68	70
21.7778	22.0811	52	54
21.7778	22.0811	59	54
21.7778	22.0811	62	59
21.7778	22.0811	66	70
21.9294	22.0811	64	70
22.0811	23.1038	33	59
22.0811	23.1038	69	73
22.3943	22.7197	45	36
22.3943	22.7197	52	36
22.3943	22.7197	57	43
22.3943	22.7197	61	53
22.7197	23.3765	45	39
22.7197	23.3765	52	39
22.7197	23.3765	57	39
22.7197	23.3765	61	47
23.0749	24.0013	64	40
23.2257	24.0013	68	39
23.3765	23.6714	45	23
23.3765	23.6714	52	23
23.3765	23.6714	57	23
23.3765	23.6714	61	33
23.3765	24.0013	69	39
23.524	24.0013	71	39
23.6714	24.0013	45	23
23.6714	24.0013	52	23
23.6714	24.0013	57	23
23.6714	24.0013	61	33
23.6714	23.9148	73	40
23.8284	23.9581	74	40
23.9148	24.0013	73	39
23.9581	24.0013	74	37
24.0013	24.9123	40	27
24.0013	24.9123	73	42
24.3114	24.6118	52	24
24.3114	24.6118	59	24
24.3114	24.6118	62	34
24.3114	24.9123	71	40
24.4616	24.9123	69	40
24.6118	24.9123	52	24
24.6118	24.9123	59	24
24.6118	24.9123	62	34
24.6118	24.9123	68	40
24.762	24.9123	66	40
24.9123	25.8358	33	27
24.9123	25.8358	64	40
25.0597	25.2072	69	39
25.2072	25.5248	45	24
25.2072	25.5248	52	24
25.2072	25.5248	57	24
25.2072	25.5248	61	34
25.2072	25.4189	69	40
25.313	25.8358	71	39
25.4189	25.8358	69	39
25.5248	25.8358	45	24
25.5248	25.8358	52	24
25.5248	25.8358	57	24
25.5248	25.8358	61	32
25.5248	25.8358	68	39
25.6803	25.8358	66	39
25.8358	26.865	40	27
25.8358	26.865	68	40
26.1621	26.4998	52	20
26.1621	26.4998	59	24
26.1621	26.4998	64	29
26.4998	27.174	52	26
26.4998	26.865	59	26
26.4998	26.865	62	31
26.4998	26.865	64	37
26.865	27.4758	45	27
26.865	27.8025	64	40
27.0195	27.8025	68	39
27.174	27.4758	52	23
27.174	27.4758	57	23
27.174	27.4758	61	33
27.174	27.8025	69	39
27.3249	27.8025	71	39
27.4758	27.8025	45	23
27.4758	27.8025	52	23
27.4758	27.8025	57	23
27.4758	27.8025	61	33
27.4758	27.7168	73	40
27.6311	27.7596	74	40
27.7168	27.8025	73	39
27.7596	27.8025	74	37
27.8025	28.7387	38	27
27.8025	28.7387	73	42
28.1191	28.4289	54	24
28.1191	28.4289	59	24
28.1191	28.4289	62	34
28.1191	28.7387	71	40
28.274	28.7387	69	40
28.4289	28.7387	47	24
28.4289	28.7387	54	24
28.4289	28.7387	59	24
28.4289	28.7387	62	34
28.4289	28.7387	68	40
28.5838	28.7387	66	40
28.7387	29.6835	40	27
28.7387	29.5257	64	40
28.8897	29.0406	68	39
29.0406	29.3678	52	24
29.0406	29.3678	59	24
29.0406	29.3678	62	34
29.0406	29.2587	68	40
29.1496	29.6835	69	39
29.2587	29.6835	68	39
29.3678	29.6835	52	24
29.3678	29.6835	59	24
29.3678	29.6835	62	32
29.3678	29.6835	66	39
29.5257	29.6835	64	39
29.6835	31.5884	33	32
29.6835	31.5884	69	40
30.0107	30.3465	57	25
30.0107	30.3465	61	37
30.0107	30.3465	64	30
30.3465	30.9926	57	60
30.3465	31.5884	61	73
30.3465	31.5884	64	60
30.3465	31.5884	67	73
30.6984	30.9926	50	67
30.6984	30.9926	66	78
30.8455	31.5884	73	80
30.9926	31.2802	50	59
30.9926	31.2802	57	59
30.9926	31.2802	62	59
30.9926	31.2802	66	69
30.9926	31.5884	74	81
31.1364	31.5884	76	81
31.2802	31.5884	50	59
31.2802	31.5884	57	59
31.2802	31.5884	62	59
31.2802	31.5884	66	70
31.2802	31.5086	78	82
31.4288	31.5485	79	83
31.5086	31.5884	78	80
31.5485	31.5884	79	78
31.5884	32.477	45	67
31.5884	32.477	78	87
31.8909	32.184	52	62
31.8909	32.184	57	62
31.8909	32.184	61	62
31.8909	32.184	67	71
31.8909	32.477	76	85
32.0374	32.477	74	85
32.184	32.477	52	62
32.184	32.477	57	62
32.184	32.477	61	62
32.184	32.477	67	71
32.184	32.477	73	83
32.3305	32.477	71	82
32.477	33.3778	38	67
32.477	33.3778	69	85
32.6208	32.7646	74	80
32.7646	33.0745	50	62
32.7646	33.0745	57	62
32.7646	33.0745	62	62
32.7646	33.0745	66	71
32.7646	32.9712	74	85
32.8679	33.3778	76	80
32.9712	33.3778	74	80
33.0745	33.3778	50	62
33.0745	33.3778	57	62
33.0745	33.3778	62	62
33.0745	33.3778	66	67
33.0745	33.3778	73	80
33.2262	33.3778	71	80
33.3778	34.3604	45	67
33.3778	34.3604	73	83
33.691	34.0084	57	49
33.691	34.0084	64	50
33.691	34.0084	69	60
34.0084	34.3604	57	64
34.0084	34.3604	64	64
34.0084	34.3604	67	65
34.0084	34.3604	69	78
34.3604	34.9422	50	67
34.3604	35.2558	69	85
34.5075	35.2558	73	80
34.6546	34.9422	57	59
34.6546	34.9422	62	59
34.6546	34.9422	66	69
34.6546	35.2558	74	81
34.7984	35.2558	76	81
34.9422	35.2558	50	59
34.9422	35.2558	57	59
34.9422	35.2558	62	59
34.9422	35.2558	66	70
34.9422	35.1733	78	82
35.0908	35.2146	79	83
35.1733	35.2558	78	80
35.2146	35.2558	79	78
35.2558	36.1444	43	67
35.2558	36.1444	78	87
35.5583	35.8514	59	62
35.5583	35.8514	64	62
35.5583	35.8514	67	71
35.5583	36.1444	76	85
35.7048	36.1444	74	85
35.8514	36.1444	52	62
35.8514	36.1444	59	62
35.8514	36.1444	64	62
35.8514	36.1444	67	71
35.8514	36.1444	73	83
35.9979	36.1444	71	82
36.1444	37.0452	45	67
36.1444	36.8936	69	85
36.2882	36.432	73	80
36.432	36.7419	57	62
36.432	36.7419	64	62
36.432	36.7419	67	71
36.432	36.6386	73	85
36.5353	37.0452	74	80
36.6386	37.0452	73	80
36.7419	37.0452	57	62
36.7419	37.0452	64	62
36.7419	37.0452	67	67
36.7419	37.0452	71	80
36.8936	37.0452	69	80
37.0452	38.0612	38	67
37.0452	38.0612	74	83
37.3584	37.682	50	41
37.3584	37.682	57	41
37.3584	37.682	62	49
37.3584	37.682	66	60
37.682	38.338	50	44
37.682	38.338	57	44
37.682	38.338	62	44
37.682	38.338	66	54
38.0319	38.9735	69	40
38.1849	38.9735	73	39
38.338	38.6374	50	23
38.338	38.6374	57	23
38.338	38.6374	62	23
38.338	38.6374	66	33
38.338	38.9735	74	39
38.4877	38.9735	76	39
38.6374	38.9735	50	23
38.6374	38.9735	57	23
38.6374	38.9735	62	23
38.6374	38.9735	66	33
38.6374	38.8828	78	40
38.792	38.9281	79	40
38.8828	38.9735	78	39
38.9281	38.9735	79	37
38.9735	39.8983	45	27
38.9735	39.8983	78	42
39.2883	39.5933	52	24
39.2883	39.5933	57	24
39.2883	39.5933	61	24
39.2883	39.5933	67	34
39.2883	39.8983	76	40
39.4408	39.8983	74	40
39.5933	39.8983	52	24
39.5933	39.8983	57	24
39.5933	39.8983	61	24
39.5933	39.8983	67	34
39.5933	39.8983	73	40
39.7458	39.8983	71	40
39.8983	40.8359	38	27
39.8983	40.8359	69	40
40.048	40.1977	74	39
40.1977	40.5202	50	24
40.1977	40.5202	57	24
40.1977	40.5202	62	24
40.1977	40.5202	66	34
40.1977	40.4127	74	40
40.3052	40.8359	76	39
40.4127	40.8359	74	39
40.5202	40.8359	50	24
40.5202	40.8359	57	24
40.5202	40.8359	62	24
40.5202	40.8359	66	32
40.5202	40.8359	73	39
40.678	40.8359	71	39
40.8359	41.8838	45	27
40.8359	41.8838	73	40
41.1678	41.5104	57	20
41.1678	41.8838	61	20
41.1678	41.5104	64	24
41.1678	41.5104	69	29
41.5104	42.2083	57	26
41.5104	41.8838	64	26
41.5104	41.8838	67	31
41.5104	41.8838	69	37
41.8838	42.5198	50	27
41.8838	42.8509	69	40
42.0461	42.8509	73	39
42.2083	42.5198	57	23
42.2083	42.5198	62	23
42.2083	42.5198	66	33
42.2083	42.8509	74	39
42.3641	42.8509	76	39
42.5198	42.8509	50	23
42.5198	42.8509	57	23
42.5198	42.8509	62	23
42.5198	42.8509	66	33
42.5198	42.7647	78	40
42.6785	42.8078	79	40
42.7647	42.8509	78	39
42.8078	42.8509	79	37
42.8509	43.8228	43	27
42.8509	43.8228	78	42
43.1809	43.5018	59	24
43.1809	43.5018	64	24
43.1809	43.5018	67	34
43.1809	43.8228	76	40
43.3414	43.8228	74	40
43.5018	43.8228	52	24
43.5018	43.8228	59	24
43.5018	43.8228	64	24
43.5018	43.8228	67	34
43.5018	43.8228	73	40
43.6623	43.8228	71	40
43.8228	44.8003	45	27
43.8228	44.6385	69	40
43.9789	44.1351	73	39
44.1351	44.4767	57	24
44.1351	44.4767	64	24
44.1351	44.4767	67	34
44.1351	44.3628	73	40
44.2489	44.8003	74	39
44.3628	44.8003	73	39
44.4767	44.8003	57	24
44.4767	44.8003	64	24
44.4767	44.8003	67	32
44.4767	44.8003	71	39
44.6385	44.8003	69	39
44.8003	45.8834	38	27
44.8003	46.147	74	40
45.137	45.4911	50	17
45.137	45.4911	57	17
45.137	45.4911	62	20
45.137	45.4911	66	29
45.4911	45.8834	50	26
45.4911	45.8834	57	26
45.4911	45.8834	62	26
45.4911	45.8834	66	37
45.8781	46.9706	46	44
45.8781	46.9706	65	54
46.147	46.9706	74	58
46.2366	46.595	53	33
46.2366	46.595	58	33
46.2366	46.595	62	40
46.2366	46.9706	75	62
46.595	46.9706	53	34
46.595	46.9706	58	34
46.595	46.9706	62	41
46.595	48.0629	70	42
46.595	46.9706	76	55
46.9706	48.0629	41	46
46.9706	48.0629	79	64
47.2362	48.0629	77	60
47.3247	47.6788	53	35
47.3247	47.6788	60	35
47.3247	47.6788	63	43
47.3247	48.0629	69	49
47.3247	47.6788	72	64
47.5017	48.0629	67	47
47.6788	48.0629	53	36
47.6788	48.0629	60	36
47.6788	48.0629	63	44
47.6788	48.4107	65	48
47.6788	48.0629	72	57
48.0578	49.1324	46	49
48.0578	48.3225	74	64
48.3225	49.1324	74	64
48.4107	48.7636	53	37
48.4107	48.7636	58	37
48.4107	48.7636	62	45
48.4107	48.7636	65	50
48.4107	48.7636	70	50
48.4107	49.1324	75	69
48.7636	49.1324	53	38
48.7636	49.1324	58	38
48.7636	49.1324	62	46
48.7636	49.4853	65	51
48.7636	49.1324	70	51
48.7636	49.1324	76	61
49.1324	50.2474	45	51
49.1324	49.4853	72	52
49.1324	50.2474	79	71
49.397	49.8382	77	66
49.4853	50.2474	60	47
49.4853	50.2474	65	59
49.4853	50.2474	72	71
49.75	50.2474	43	48
49.8382	50.2474	41	62
49.8382	50.2474	69	67
49.8382	50.2474	77	81
50.2201	51.3529	36	55
50.2201	51.3529	48	64
50.2201	50.5001	70	69
50.2201	50.5001	76	73
50.2201	50.5001	82	86
50.5001	50.5859	70	66
50.5001	50.5859	76	69
50.5001	50.5859	82	82
50.5859	51.3529	60	55
50.5859	51.3529	67	64
50.5859	50.9558	70	70
50.5859	50.9558	76	72
50.5859	50.9558	82	85
50.9558	51.3257	70	70
50.9558	51.3529	76	70
50.9558	51.3257	82	83
51.3257	52.123	41	64
51.3257	51.6057	70	73
51.3257	51.6057	77	73
51.3257	51.6057	82	86
51.6057	52.123	59	65
51.6057	51.6914	70	69
51.6057	51.6914	77	69
51.6057	51.6914	82	82
51.6914	52.0613	60	72
51.6914	52.123	70	72
51.6914	52.0613	77	72
51.6914	52.123	82	85
51.9689	52.123	61	68
52.0613	52.4313	60	72
52.0613	52.4313	69	67
52.0613	52.4313	77	70
52.0613	52.4313	81	83
52.4313	53.2303	48	58
52.4313	52.7112	70	64
52.4313	52.7112	76	64
52.4313	52.7112	81	78
52.7112	53.2303	59	58
52.7112	52.797	70	61
52.7112	52.797	76	61
52.7112	52.797	81	73
52.797	53.1669	60	63
52.797	53.1669	70	63
52.797	53.1669	76	63
52.797	53.2303	81	76
53.0744	53.2303	62	58
53.1669	53.5471	60	62
53.1669	53.5471	70	60
53.1669	53.5471	76	60
53.1669	53.5471	79	72
53.5471	54.3627	53	52
53.5471	53.8323	69	58
53.5471	53.8323	75	58
53.5471	53.8323	79	70
53.8323	54.3627	59	46
53.8323	53.92	69	52
53.8323	53.92	75	52
53.8323	53.92	79	62
53.92	54.3627	60	54
53.92	54.2967	69	54
53.92	54.2967	75	54
53.92	54.3627	79	64
54.2025	54.3627	64	45
54.2967	54.6928	65	47
54.2967	54.6928	69	46
54.2967	54.6928	75	46
54.2967	54.6928	77	56
54.6928	55.7826	46	44
54.6928	54.9583	74	61
54.9583	55.7826	74	58
55.0467	55.4006	53	33
55.0467	55.4006	58	33
55.0467	55.4006	62	40
55.0467	55.4006	65	45
55.0467	55.4006	70	45
55.0467	55.7826	75	62
55.4006	55.7826	53	34
55.4006	55.7826	58	34
55.4006	55.7826	62	41
55.4006	55.7826	65	46
55.4006	55.7826	70	46
55.4006	55.7826	76	55
55.7826	56.8726	45	46
55.7826	56.8726	78	64
56.0472	56.8726	77	60
56.1355	56.4884	53	35
56.1355	56.4884	60	35
56.1355	56.4884	63	43
56.1355	56.4884	65	53
56.1355	56.4884	72	64
56.4002	56.8726	66	47
56.4884	56.8726	53	36
56.4884	56.8726	60	36
56.4884	56.8726	63	44
56.4884	56.8726	65	48
56.4884	56.8726	72	57
56.8674	57.942	46	49
56.8674	57.1321	73	68
57.1321	57.942	73	64
57.2203	57.5732	53	37
57.2203	57.5732	58	37
57.2203	57.5732	61	45
57.2203	57.5732	65	50
57.2203	57.5732	70	50
57.2203	57.942	75	69
57.5732	57.942	53	37
57.5732	57.942	58	37
57.5732	57.942	61	45
57.5732	57.942	65	50
57.5732	57.942	70	50
57.5732	57.942	76	60
57.942	58.6624	44	53
57.942	59.052	78	74
58.2067	59.0792	77	72
58.2949	59.0792	53	46
58.2949	59.0792	56	46
58.2949	59.0792	61	46
58.2949	59.0792	65	54
58.2949	59.0792	68	62
58.2949	58.6624	73	62
58.2949	59.0792	80	75
58.5705	59.0792	46	54
58.6624	59.0792	44	67
58.6624	59.0792	73	73
58.6624	59.0792	85	89
59.052	60.1848	32	70
59.052	59.332	66	80
59.052	59.332	72	80
59.052	59.332	78	94
59.332	59.4177	66	75
59.332	59.4177	72	75
59.332	59.4177	78	90
59.4177	60.1848	56	60
59.4177	60.1848	63	70
59.4177	59.7877	66	79
59.4177	59.7877	72	79
59.4177	59.7877	78	93
59.7877	60.1576	66	75
59.7877	60.1848	72	75
59.7877	60.1576	78	90
60.1576	60.9549	37	69
60.1576	60.4375	66	79
60.1576	60.4375	73	79
60.1576	60.4375	78	93
60.4375	60.9549	55	73
60.4375	60.5233	66	73
60.4375	60.5233	73	73
60.4375	60.5233	78	88
60.5233	60.8932	56	77
60.5233	60.9549	66	77
60.5233	60.8932	73	77
60.5233	60.9549	78	91
60.8007	60.9549	58	72
60.8932	61.2631	56	75
60.8932	61.2631	65	73
60.8932	61.2631	73	73
60.8932	61.2631	77	88
61.2631	62.0622	44	60
61.2631	61.5431	66	67
61.2631	61.5431	72	67
61.2631	61.5431	77	81
61.5431	62.0622	55	60
61.5431	61.6289	66	63
61.5431	61.6289	72	63
61.5431	61.6289	77	76
61.6289	61.9988	56	65
61.6289	61.9988	66	59
61.6289	61.9988	72	65
61.6289	62.0622	77	77
61.9063	62.0622	57	63
61.9988	62.379	56	64
61.9988	62.379	66	63
61.9988	62.379	72	63
61.9988	62.379	75	74
62.379	63.1946	49	53
62.379	62.6642	66	59
62.379	62.6642	75	72
62.6642	63.1946	55	46
62.6642	62.7519	66	53
62.6642	62.7519	68	53
62.6642	62.7519	75	63
62.7519	63.1946	56	55
62.7519	63.1946	66	55
62.7519	63.5247	68	55
62.7519	63.1946	75	65
63.0344	63.1946	60	45
63.1286	63.5247	61	47
63.1286	63.5247	65	46
63.1286	63.5247	73	56
63.5247	64.5278	41	40
63.5247	63.717	68	52
63.5247	63.717	74	62
63.6208	63.8131	62	56
63.717	64.5278	68	47
63.717	64.164	74	56
63.8131	64.164	53	29
63.8131	64.164	59	35
63.8131	64.164	62	66
64.164	64.5278	53	30
64.164	64.5278	59	36
64.164	64.5278	62	58
64.164	64.5234	74	63
64.5234	65.5532	42	43
64.5234	64.7267	69	56
64.5234	64.7267	74	66
64.6251	64.8284	62	59
64.7267	65.5532	69	50
64.7267	65.549	74	60
64.8284	65.167	54	31
64.8284	65.167	57	37
64.8284	65.5532	62	70
65.167	65.5532	54	32
65.167	65.5532	57	38
65.358	65.5532	61	60
65.358	65.5532	73	64
65.549	66.5349	41	45
65.549	65.7407	68	59
65.549	65.7407	74	70
65.6449	65.8366	62	63
65.7407	66.5349	68	53
65.7407	66.1753	74	63
65.8366	66.1753	53	33
65.8366	66.1753	59	40
65.8366	66.1753	62	74
66.1753	66.5349	53	34
66.1753	66.5349	59	40
66.1753	66.5349	62	65
66.1753	66.5305	74	70
66.5305	67.5332	42	48
66.5305	66.7322	69	62
66.5305	66.7322	74	74
66.6313	66.833	62	66
66.7322	67.5332	69	56
66.7322	67.529	74	67
66.833	67.1717	54	35
66.833	67.1717	57	42
66.833	67.5332	62	78
67.1717	67.5332	54	36
67.1717	67.5332	57	43
67.3504	67.5332	61	67
67.3504	67.5332	73	72
67.529	68.5283	40	51
67.529	67.7194	68	66
67.529	67.7194	74	78
67.6242	67.8145	62	70
67.7194	68.5283	68	59
67.7194	68.1623	74	70
67.8145	68.1623	52	37
67.8145	68.1623	59	44
67.8145	68.1623	62	82
68.1623	68.5283	52	37
68.1623	68.5283	59	44
68.1623	68.5283	62	70
68.1623	68.5237	74	76
68.5237	69.5263	45	51
68.5237	68.7248	69	66
68.5237	68.7248	74	78
68.625	68.8246	62	70
68.7248	69.5263	69	59
68.7248	69.5217	74	70
68.8246	69.1633	52	37
68.8246	69.1633	57	44
68.8246	69.5263	62	82
69.1633	69.5263	52	37
69.1633	69.5263	57	44
69.3425	69.5263	61	68
69.3425	69.5263	73	73
69.5217	70.5677	40	51
69.5217	69.7328	68	66
69.5217	69.7328	74	78
69.6273	69.8383	62	70
69.7328	70.5677	68	59
69.7328	70.1769	74	70
69.8383	70.1769	52	37
69.8383	70.1769	59	44
69.8383	70.1769	62	82
70.1769	70.5677	52	37
70.1769	70.5677	59	44
70.1769	70.5677	62	70
70.1769	70.5627	74	76
70.5627	71.6774	45	51
70.5627	70.7911	69	66
70.5627	70.7911	74	78
70.6769	70.9053	62	70
70.7911	71.6774	69	59
70.7911	71.6726	74	70
70.9053	71.2764	52	37
70.9053	71.2764	57	44
70.9053	71.6774	62	82
71.2764	71.6774	52	37
71.2764	71.6774	57	44
71.4745	71.6774	61	68
71.4745	71.6774	73	73
71.6726	72.7361	41	40
71.6726	71.892	68	52
71.6726	71.892	74	62
71.7823	72.0017	62	56
71.892	72.7361	68	47
71.892	72.3495	74	56
72.0017	72.3495	53	29
72.0017	72.3495	59	35
72.0017	72.3495	62	65
72.3495	72.7361	53	29
72.3495	72.7361	59	35
72.3495	72.7361	62	56
72.3495	72.7314	74	61
72.7314	73.7625	42	41
72.7314	72.9454	69	54
72.7314	72.9454	74	63
72.8384	73.0523	62	57
72.9454	73.7625	69	48
72.9454	73.758	74	58
73.0523	73.394	54	30
73.0523	73.394	57	36
73.0523	73.7625	62	68
73.394	73.7625	54	31
73.394	73.7625	57	36
73.576	73.7625	61	57
73.576	73.7625	73	61
73.758	74.7752	41	43
73.758	73.9613	68	56
73.758	73.9613	74	66
73.8597	74.063	62	59
73.9613	74.7752	68	50
73.9613	74.4016	74	59
74.063	74.4016	53	31
74.063	74.4016	59	37
74.063	74.4016	62	69
74.4016	74.7752	53	31
74.4016	74.7752	59	37
74.4016	74.7752	62	60
74.4016	74.7703	74	65
74.7703	75.8392	42	44
74.7703	74.9942	69	57
74.7703	74.9942	74	67
74.8823	75.1061	62	60
74.9942	75.8392	69	51
74.9942	75.8346	74	61
75.1061	75.4612	54	32
75.1061	75.4612	57	38
75.1061	75.8392	62	72
75.4612	75.8392	54	32
75.4612	75.8392	57	39
75.6479	75.8392	61	60
75.6479	75.8392	73	64
75.8346	76.8519	40	45
75.8346	76.0457	68	59
75.8346	76.0457	74	70
75.9401	76.1512	62	63
76.0457	76.8519	68	53
76.0457	76.4898	74	63
76.1512	76.4898	52	33
76.1512	76.4898	59	39
76.1512	76.4898	62	73
76.4898	76.8519	52	33
76.4898	76.8519	59	39
76.4898	76.8519	62	63
76.4898	76.8472	74	68
76.8472	77.9043	45	45
76.8472	77.0629	69	59
76.8472	77.0629	74	70
76.9551	77.1708	62	63
77.0629	77.9043	69	53
77.0629	77.8995	74	63
77.1708	77.5175	52	33
77.1708	77.5175	57	39
77.1708	77.9043	62	73
77.5175	77.9043	52	33
77.5175	77.9043	57	39
77.7085	77.9043	61	61
77.7085	77.9043	73	65
77.8995	78.9753	40	45
77.8995	78.1226	68	59
77.8995	78.1226	74	70
78.011	78.2342	62	63
78.1226	78.9753	68	52
78.1226	78.5883	74	62
78.2342	78.5883	52	32
78.2342	78.5883	59	38
78.2342	78.5883	62	72
78.5883	78.9753	52	31
78.5883	78.9753	59	36
78.5883	78.9753	62	59
78.5883	78.9703	74	64
78.9703	80.1339	45	42
78.9703	79.2028	67	54
78.9703	79.2028	74	64
79.0865	79.319	62	57
79.2028	80.1339	67	47
79.2028	80.1339	74	56
79.319	79.696	57	29
79.319	80.1339	62	65
79.319	79.696	64	35
79.696	80.1339	57	28
79.696	80.1339	61	53
79.696	80.1339	64	34
79.9011	80.1339	73	56
80.1062	80.4469	50	59
80.1062	81.0891	69	68
80.2766	81.0891	73	70
80.4469	80.7559	50	52
80.4469	80.7559	57	52
80.4469	80.7559	62	52
80.4469	80.7559	66	60
80.4469	81.0891	74	71
80.6014	81.0891	76	71
80.7559	81.0891	50	52
80.7559	81.0891	57	52
80.7559	81.0891	62	52
80.7559	81.0891	66	61
80.7559	81.0017	78	72
80.9142	81.0454	79	73
81.0017	81.0891	78	70
81.0454	81.0891	79	68
81.0891	82.0097	45	59
81.0891	82.0097	78	76
81.3998	81.7047	52	54
81.3998	81.7047	57	54
81.3998	81.7047	61	54
81.3998	81.7047	67	62
81.3998	82.0097	76	74
81.5523	82.0097	74	74
81.7047	82.0097	52	54
81.7047	82.0097	57	54
81.7047	82.0097	61	54
81.7047	82.0097	67	62
81.7047	82.0097	73	73
81.8572	82.0097	71	72
82.0097	82.9331	38	59
82.0097	82.9331	69	74
82.1594	82.3092	74	70
82.3092	82.6257	50	54
82.3092	82.6257	57	54
82.3092	82.6257	62	54
82.3092	82.6257	66	62
82.3092	82.5202	74	74
82.4147	82.9331	76	70
82.5202	82.9331	74	70
82.6257	82.9331	50	54
82.6257	82.9331	57	54
82.6257	82.9331	62	54
82.6257	82.9331	66	59
82.6257	82.9331	73	70
82.7794	82.9331	71	70
82.9331	83.9308	45	59
82.9331	83.9308	73	73
83.2505	83.5778	57	43
83.2505	83.5778	64	44
83.2505	83.5778	69	53
83.5778	83.9308	57	56
83.5778	83.9308	64	56
83.5778	83.9308	67	57
83.5778	83.9308	69	68
83.9308	84.5283	50	59
83.9308	84.8487	69	74
84.0821	84.8487	73	70
84.2334	84.5283	57	52
84.2334	84.5283	62	52
84.2334	84.5283	66	60
84.2334	84.8487	74	71
84.3808	84.8487	76	71
84.5283	84.8487	50	52
84.5283	84.8487	57	52
84.5283	84.8487	62	52
84.5283	84.8487	66	61
84.5283	84.7646	78	72
84.6804	84.8067	79	73
84.7646	84.8487	78	70
84.8067	84.8487	79	68
84.8487	85.7482	43	59
84.8487	85.7482	78	76
85.1553	85.4518	59	54
85.1553	85.4518	64	54
85.1553	85.4518	67	62
85.1553	85.7482	76	74
85.3035	85.7482	74	74
85.4518	85.7482	52	54
85.4518	85.7482	59	54
85.4518	85.7482	64	54
85.4518	85.7482	67	62
85.4518	85.7482	73	73
85.6	85.7482	71	72
85.7482	86.6591	45	59
85.7482	86.5062	69	74
85.8942	86.0402	73	70
86.0402	86.3533	57	54
86.0402	86.3533	64	54
86.0402	86.3533	67	62
86.0402	86.249	73	74
86.1446	86.6591	74	70
86.249	86.6591	73	70
86.3533	86.6591	57	54
86.3533	86.6591	64	54
86.3533	86.6591	67	59
86.3533	86.6591	71	70
86.5062	86.6591	69	70
86.6591	87.6878	38	59
86.6591	87.6878	74	73
86.9723	87.3004	50	36
86.9723	87.3004	57	36
86.9723	87.3004	62	43
86.9723	87.3004	66	53
87.3004	87.96	50	39
87.3004	87.96	57	39
87.3004	87.96	62	39
87.3004	87.96	66	47
87.6589	88.5763	69	40
87.8095	88.5763	73	39
87.96	88.2544	50	23
87.96	88.2544	57	23
87.96	88.2544	62	23
87.96	88.2544	66	33
87.96	88.5763	74	39
88.1072	88.5763	76	39
88.2544	88.5763	50	23
88.2544	88.5763	57	23
88.2544	88.5763	62	23
88.2544	88.5763	66	33
88.2544	88.4914	78	40
88.4065	88.5338	79	40
88.4914	88.5763	78	39
88.5338	88.5763	79	37
88.5763	89.4858	45	27
88.5763	89.4858	78	42
88.8859	89.1858	52	24
88.8859	89.1858	57	24
88.8859	89.1858	61	24
88.8859	89.1858	67	34
88.8859	89.4858	76	40
89.0359	89.4858	74	40
89.1858	89.4858	52	24
89.1858	89.4858	57	24
89.1858	89.4858	61	24
89.1858	89.4858	67	34
89.1858	89.4858	73	40
89.3358	89.4858	71	40
89.4858	90.4078	38	27
89.4858	90.4078	69	40
89.633	89.7802	74	39
89.7802	90.0973	50	24
89.7802	90.0973	57	24
89.7802	90.0973	62	24
89.7802	90.0973	66	34
89.7802	89.9916	74	40
89.8859	90.4078	76	39
89.9916	90.4078	74	39
90.0973	90.4078	50	24
90.0973	90.4078	57	24
90.0973	90.4078	62	24
90.0973	90.4078	66	32
90.0973	90.4078	73	39
90.2525	90.4078	71	39
90.4078	91.4255	45	27
90.4078	91.4255	73	40
90.7341	91.066	57	20
90.7341	91.4255	61	20
90.7341	91.066	64	24
90.7341	91.066	69	29
91.066	91.7266	57	26
91.066	91.4255	64	26
91.066	91.4255	67	31
91.066	91.4255	69	37
91.4255	92.021	50	27
91.4255	92.346	69	40
91.5761	92.346	73	39
91.7266	92.021	57	23
91.7266	92.021	62	23
91.7266	92.021	66	33
91.7266	92.346	74	39
91.8738	92.346	76	39
92.021	92.346	50	23
92.021	92.346	57	23
92.021	92.346	62	23
92.021	92.346	66	33
92.021	92.2595	78	40
92.1731	92.3027	79	40
92.2595	92.346	78	39
92.3027	92.346	79	37
92.346	93.2554	43	27
92.346	93.2554	78	42
92.6556	92.9555	59	24
92.6556	92.9555	64	24
92.6556	92.9555	67	34
92.6556	93.2554	76	40
92.8055	93.2554	74	40
92.9555	93.2554	52	24
92.9555	93.2554	59	24
92.9555	93.2554	64	24
92.9555	93.2554	67	34
92.9555	93.2554	73	40
93.1054	93.2554	71	40
93.2554	94.1774	45	27
93.2554	94.0222	69	40
93.4026	93.5498	73	39
93.5498	93.8669	57	24
93.5498	93.8669	64	24
93.5498	93.8669	67	34
93.5498	93.7612	73	40
93.6555	94.1774	74	39
93.7612	94.1774	73	39
93.8669	94.1774	57	24
93.8669	94.1774	64	24
93.8669	94.1774	67	32
93.8669	94.1774	71	39
94.0222	94.1774	69	39
94.1774	96.0649	38	27
94.1774	95.8999	74	40
94.4979	94.8228	50	17
94.4979	94.8228	57	17
94.4979	94.8228	62	20
94.4979	94.8228	66	29
94.8228	96.0649	50	26
94.8228	95.4637	57	26
94.8228	96.0649	62	26
94.8228	96.0649	66	37
95.1695	95.4637	45	59
95.1695	96.0649	64	73
95.3166	96.0649	68	70
95.4637	95.7513	45	52
95.4637	95.7513	52	52
95.4637	95.7513	57	52
95.4637	95.7513	61	60
95.4637	96.0649	69	71
95.6075	96.0649	71	71
95.7513	96.0649	45	52
95.7513	96.0649	52	52
95.7513	96.0649	57	52
95.7513	96.0649	61	61
95.7513	95.9824	73	72
95.8999	96.0237	74	73
95.9824	96.0649	73	70
96.0237	96.0649	74	68
96.0649	96.9535	40	59
96.0649	96.9535	73	76
96.3674	96.6605	52	54
96.3674	96.6605	59	54
96.3674	96.6605	62	62
96.3674	96.9535	71	74
96.514	96.9535	69	74
96.6605	96.9535	52	54
96.6605	96.9535	59	54
96.6605	96.9535	62	62
96.6605	96.9535	68	73
96.807	96.9535	66	72
96.9535	97.8544	33	59
96.9535	97.8544	64	74
97.0973	97.2412	69	70
97.2412	97.551	45	54
97.2412	97.551	52	54
97.2412	97.551	57	54
97.2412	97.551	61	62
97.2412	97.4477	69	74
97.3444	97.8544	71	70
97.4477	97.8544	69	70
97.551	97.8544	45	54
97.551	97.8544	52	54
97.551	97.8544	57	54
97.551	97.8544	61	59
97.551	97.8544	68	70
97.7027	97.8544	66	70
97.8544	98.8439	40	59
97.8544	98.8439	68	73
98.1675	98.493	52	43
98.1675	98.493	59	44
98.1675	98.493	64	53
98.493	98.8439	52	56
98.493	98.8439	59	56
98.493	98.8439	62	57
98.493	98.8439	64	68
98.8439	99.4257	45	59
98.8439	99.7379	64	74
98.991	99.7379	68	70
99.1381	99.4257	52	52
99.1381	99.4257	57	52
99.1381	99.4257	61	60
99.1381	99.7379	69	71
99.2819	99.7379	71	71
99.4257	99.7379	45	52
99.4257	99.7379	52	52
99.4257	99.7379	57	52
99.4257	99.7379	61	61
99.4257	99.6561	73	72
99.5743	99.697	74	73
99.6561	99.7379	73	70
99.697	99.7379	74	68
99.7379	100.626	38	59
99.7379	100.626	73	76
100.04	100.333	54	54
100.04	100.333	59	54
100.04	100.333	62	62
100.04	100.626	71	74
100.187	100.626	69	74
100.333	100.626	47	54
100.333	100.626	54	54
100.333	100.626	59	54
100.333	100.626	62	62
100.333	100.626	68	73
100.48	100.626	66	72
100.626	101.527	40	59
100.626	101.376	64	74
100.77	100.914	68	70
100.914	101.224	52	54
100.914	101.224	59	54
100.914	101.224	62	62
100.914	101.121	68	74
101.017	101.527	69	70
101.121	101.527	68	70
101.224	101.527	52	54
101.224	101.527	59	54
101.224	101.527	62	59
101.224	101.527	66	70
101.376	101.527	64	70
101.527	102.547	33	59
101.527	102.547	69	73
101.846	102.171	45	36
101.846	102.171	52	36
101.846	102.171	57	43
101.846	102.171	61	53
102.171	102.819	45	39
102.171	102.819	52	39
102.171	102.819	57	39
102.171	102.819	61	47
102.518	103.434	64	40
102.669	103.434	68	39
102.819	103.114	45	23
102.819	103.114	52	23
102.819	103.114	57	23
102.819	103.114	61	33
102.819	103.434	69	39
102.967	103.434	71	39
103.114	103.434	45	23
103.114	103.434	52	23
103.114	103.434	57	23
103.114	103.434	61	33
103.114	103.35	73	40
103.267	103.392	74	40
103.35	103.434	73	39
103.392	103.434	74	37
103.434	104.345	40	27
103.434	104.345	73	42
103.744	104.045	52	24
103.744	104.045	59	24
103.744	104.045	62	34
103.744	104.345	71	40
103.894	104.345	69	40
104.045	104.345	52	24
104.045	104.345	59	24
104.045	104.345	62	34
104.045	104.345	68	40
104.195	104.345	66	40
104.345	105.269	33	27
104.345	105.269	64	40
104.492	104.64	69	39
104.64	104.958	45	24
104.64	104.958	52	24
104.64	104.958	57	24
104.64	104.958	61	34
104.64	104.852	69	40
104.746	105.269	71	39
104.852	105.269	69	39
104.958	105.269	45	24
104.958	105.269	52	24
104.958	105.269	57	24
104.958	105.269	61	32
104.958	105.269	68	39
105.113	105.269	66	39
105.269	106.278	40	27
105.269	106.278	68	40
105.59	105.927	52	20
105.59	105.927	59	24
105.59	105.927	64	29
105.927	106.586	52	26
105.927	106.278	59	26
105.927	106.278	62	31
105.927	106.278	64	37
106.278	106.886	45	27
106.278	107.207	64	40
106.432	107.207	68	39
106.586	106.886	52	23
106.586	106.886	57	23
106.586	106.886	61	33
106.586	107.207	69	39
106.736	107.207	71	39
106.886	107.207	45	23
106.886	107.207	52	23
106.886	107.207	57	23
106.886	107.207	61	33
106.886	107.124	73	40
107.041	107.166	74	40
107.124	107.207	73	39
107.166	107.207	74	37
107.207	108.133	38	27
107.207	108.133	73	42
107.521	107.827	54	24
107.521	107.827	59	24
107.521	107.827	62	34
107.521	108.133	71	40
107.674	108.133	69	40
107.827	108.133	47	24
107.827	108.133	54	24
107.827	108.133	59	24
107.827	108.133	62	34
107.827	108.133	68	40
107.98	108.133	66	40
108.133	109.077	40	27
108.133	108.918	64	40
108.283	108.433	68	39
108.433	108.76	52	24
108.433	108.76	59	24
108.433	108.76	62	34
108.433	108.651	68	40
108.542	109.077	69	39
108.651	109.077	68	39
108.76	109.077	52	24
108.76	109.077	59	24
108.76	109.077	62	32
108.76	109.077	66	39
108.918	109.077	64	39
109.077	110.994	33	27
109.077	110.994	69	40
109.404	109.752	57	21
109.404	109.752	61	37
109.404	109.752	64	25
109.752	110.394	57	60
109.752	110.994	61	73
109.752	110.994	64	60
109.752	110.994	67	73
110.099	110.394	50	67
110.099	110.394	66	78
110.247	110.994	73	80
110.394	110.681	50	59
110.394	110.681	57	59
110.394	110.681	62	59
110.394	110.681	66	69
110.394	110.994	74	81
110.537	110.994	76	81
110.681	110.994	50	59
110.681	110.994	57	59
110.681	110.994	62	59
110.681	110.994	66	70
110.681	110.912	78	82
110.83	110.953	79	83
110.912	110.994	78	80
110.953	110.994	79	78
110.994	111.882	45	67
110.994	111.882	78	87
111.296	111.589	52	62
111.296	111.589	57	62
111.296	111.589	61	62
111.296	111.589	67	71
111.296	111.882	76	85
111.443	111.882	74	85
111.589	111.882	52	62
111.589	111.882	57	62
111.589	111.882	61	62
111.589	111.882	67	71
111.589	111.882	73	83
111.736	111.882	71	82
111.882	112.783	38	67
111.882	112.783	69	85
112.026	112.17	74	80
112.17	112.48	50	62
112.17	112.48	57	62
112.17	112.48	62	62
112.17	112.48	66	71
112.17	112.376	74	85
112.273	112.783	76	80
112.376	112.783	74	80
112.48	112.783	50	62
112.48	112.783	57	62
112.48	112.783	62	62
112.48	112.783	66	67
112.48	112.783	73	80
112.631	112.783	71	80
112.783	113.782	45	67
112.783	113.782	73	83
113.1	113.432	57	49
113.1	113.432	64	50
113.1	113.432	69	60
113.432	113.782	57	64
113.432	113.782	64	64
113.432	113.782	67	65
113.432	113.782	69	78
113.782	114.364	50	67
113.782	114.676	69	85
113.929	114.676	73	80
114.076	114.364	57	59
114.076	114.364	62	59
114.076	114.364	66	69
114.076	114.676	74	81
114.22	114.676	76	81
114.364	114.676	50	59
114.364	114.676	57	59
114.364	114.676	62	59
114.364	114.676	66	70
114.364	114.594	78	82
114.513	114.635	79	83
114.594	114.676	78	80
114.635	114.676	79	78
114.676	115.565	43	67
114.676	115.565	78	87
114.979	115.272	59	62
114.979	115.272	64	62
114.979	115.272	67	71
114.979	115.565	76	85
115.125	115.565	74	85
115.272	115.565	52	62
115.272	115.565	59	62
115.272	115.565	64	62
115.272	115.565	67	71
115.272	115.565	73	83
115.418	115.565	71	82
115.565	116.466	45	67
115.565	116.314	69	85
115.709	115.852	73	80
115.852	116.162	57	62
115.852	116.162	64	62
115.852	116.162	67	71
115.852	116.059	73	85
115.956	116.466	74	80
116.059	116.466	73	80
116.162	116.466	57	62
116.162	116.466	64	62
116.162	116.466	67	67
116.162	116.466	71	80
116.314	116.466	69	80
116.466	117.466	38	67
116.466	117.466	74	83
116.779	117.101	50	41
116.779	117.101	57	41
116.779	117.101	62	49
116.779	117.101	66	60
117.101	117.743	50	44
117.101	117.743	57	44
117.101	117.743	62	44
117.101	117.743	66	54
117.437	118.372	69	40
117.59	118.372	73	39
117.743	118.043	50	23
117.743	118.043	57	23
117.743	118.043	62	23
117.743	118.043	66	33
117.743	118.372	74	39
117.893	118.372	76	39
118.043	118.372	50	23
118.043	118.372	57	23
118.043	118.372	62	23
118.043	118.372	66	33
118.043	118.285	78	40
118.197	118.329	79	40
118.285	118.372	78	39
118.329	118.372	79	37
118.372	119.297	45	27
118.372	119.297	78	42
118.687	118.992	52	24
118.687	118.992	57	24
118.687	118.992	61	24
118.687	118.992	67	34
118.687	119.297	76	40
118.84	119.297	74	40
118.992	119.297	52	24
118.992	119.297	57	24
118.992	119.297	61	24
118.992	119.297	67	34
118.992	119.297	73	40
119.145	119.297	71	40
119.297	120.235	38	27
119.297	120.235	69	40
119.447	119.596	74	39
119.596	119.919	50	24
119.596	119.919	57	24
119.596	119.919	62	24
119.596	119.919	66	34
119.596	119.811	74	40
119.704	120.235	76	39
119.811	120.235	74	39
119.919	120.235	50	24
119.919	120.235	57	24
119.919	120.235	62	24
119.919	120.235	66	32
119.919	120.235	73	39
120.077	120.235	71	39
120.235	121.294	45	27
120.235	121.294	73	40
120.568	120.918	57	20
120.568	121.294	61	20
120.568	120.918	64	24
120.568	120.918	69	29
120.918	121.618	57	26
120.918	121.294	64	26
120.918	121.294	67	31
120.918	121.294	69	37
121.294	121.928	50	27
121.294	122.259	69	40
121.456	122.259	73	39
121.618	121.928	57	23
121.618	121.928	62	23
121.618	121.928	66	33
121.618	122.259	74	39
121.773	122.259	76	39
121.928	122.259	50	23
121.928	122.259	57	23
121.928	122.259	62	23
121.928	122.259	66	33
121.928	122.173	78	40
122.087	122.216	79	40
122.173	122.259	78	39
122.216	122.259	79	37
122.259	123.229	43	27
122.259	123.229	78	42
122.588	122.909	59	24
122.588	122.909	64	24
122.588	122.909	67	34
122.588	123.229	76	40
122.748	123.229	74	40
122.909	123.229	52	24
122.909	123.229	59	24
122.909	123.229	64	24
122.909	123.229	67	34
122.909	123.229	73	40
123.069	123.229	71	40
123.229	124.231	45	27
123.229	124.065	69	40
123.385	123.541	73	39
123.541	123.899	57	24
123.541	123.899	64	24
123.541	123.899	67	34
123.541	123.78	73	40
123.66	124.231	74	39
123.78	124.231	73	39
123.899	124.231	57	24
123.899	124.231	64	24
123.899	124.231	67	32
123.899	124.231	71	39
124.065	124.231	69	39
124.231	125.306	38	27
124.231	125.306	74	40
124.574	124.928	50	17
124.574	124.928	57	17
124.574	124.928	62	20
124.574	124.928	66	29
124.928	125.306	50	26
124.928	125.306	57	26
124.928	125.306	62	26
124.928	125.306	66	37
125.306	125.639	50	26
125.306	125.639	57	31
125.306	125.472	66	47
125.306	126.283	74	43
125.472	125.639	69	45
125.639	125.955	50	23
125.639	125.955	60	27
125.639	125.759	69	49
125.759	125.8	71	41
125.8	125.955	69	46
125.955	126.283	50	23
125.955	126.283	59	28
125.955	126.119	68	46
126.119	126.283	64	45
126.283	126.616	50	26
126.283	126.616	55	32
126.283	126.449	64	50
126.283	127.262	74	44
126.449	126.616	67	47
126.616	126.932	50	24
126.616	126.932	58	28
126.616	126.736	67	51
126.736	126.777	69	43
126.777	126.932	67	48
126.932	127.262	50	24
126.932	127.262	57	29
126.932	127.097	66	48
127.097	127.262	62	43
127.262	127.588	50	27
127.262	127.588	57	33
127.262	127.425	66	50
127.262	128.212	74	45
127.425	127.588	69	48
127.588	127.889	50	24
127.588	127.889	60	29
127.588	127.704	69	52
127.704	127.743	71	44
127.743	127.889	69	48
127.889	128.212	50	24
127.889	128.212	59	29
127.889	128.051	68	48
128.051	128.212	64	44
128.212	128.539	50	28
128.212	128.539	55	33
128.212	128.376	64	53
128.212	129.161	74	46
128.376	128.539	67	50
128.539	128.838	50	25
128.539	128.838	58	30
128.539	128.655	67	53
128.655	128.693	69	46
128.693	128.838	67	50
128.838	129.161	50	25
128.838	129.161	57	30
128.838	128.999	66	51
128.999	129.161	62	44
129.161	129.483	50	29
129.161	129.483	54	35
129.161	129.322	62	53
129.161	130.081	69	48
129.322	129.483	66	51
129.483	129.772	50	26
129.483	129.772	57	31
129.483	129.597	66	55
129.597	129.635	67	46
129.635	129.772	66	51
129.772	130.081	50	26
129.772	130.081	56	31
129.772	129.926	64	51
129.926	130.081	59	46
130.081	130.396	50	29
130.081	130.396	52	35
130.081	130.239	61	55
130.081	131.0	69	48
130.239	130.396	64	52
130.396	130.682	50	26
130.396	130.682	55	31
130.396	130.508	64	55
130.508	130.546	66	47
130.546	130.682	64	52
130.682	131.0	50	26
130.682	131.0	54	31
130.682	130.841	62	52
130.841	131.0	57	46
131.0	131.311	50	29
131.0	131.311	54	35
131.0	131.155	62	53
131.0	131.896	69	48
131.155	131.311	66	51
131.311	131.582	50	25
131.311	131.582	57	30
131.311	131.418	66	54
131.418	131.454	67	45
131.454	131.582	66	50
131.582	131.896	50	25
131.582	131.896	56	30
131.582	131.739	64	49
131.739	131.896	59	45
131.896	132.2	50	28
131.896	132.2	52	33
131.896	132.048	61	53
131.896	132.785	69	46
132.048	132.2	64	50
132.2	132.479	50	24
132.2	132.479	55	29
132.2	132.313	64	52
132.313	132.35	66	45
132.35	132.479	64	49
132.479	132.785	50	24
132.479	132.785	54	29
132.479	132.632	62	49
132.632	132.785	57	41
132.785	133.094	38	24
132.785	133.094	45	29
132.785	132.939	54	44
132.785	133.667	62	40
132.939	133.094	57	42
133.094	133.367	38	21
133.094	133.367	48	25
133.094	133.205	57	45
133.205	133.242	59	38
133.242	133.367	57	41
133.367	133.667	38	21
133.367	133.667	47	24
133.367	133.517	56	41
133.517	133.667	52	35
133.667	133.973	38	23
133.667	133.973	43	28
133.667	133.82	52	44
133.667	134.542	62	39
133.82	133.973	55	41
133.973	134.245	38	20
133.973	134.245	46	24
133.973	134.083	55	44
134.083	134.12	57	37
134.12	134.245	55	41
134.245	134.542	38	20
134.245	134.542	45	24
134.245	134.394	54	40
134.394	134.542	50	34
134.542	134.849	38	20
134.542	134.849	45	23
134.542	134.696	54	36
134.542	135.42	62	33
134.696	134.849	57	35
134.849	135.121	38	17
134.849	135.121	48	20
134.849	134.958	57	38
134.958	134.994	59	31
134.994	135.121	57	34
135.121	135.42	38	17
135.121	135.42	47	20
135.121	135.27	56	34
135.27	135.42	52	30
135.42	135.724	38	19
135.42	135.724	43	22
135.42	135.572	52	37
135.42	136.298	62	32
135.572	135.724	55	34
135.724	135.997	38	17
135.724	135.997	46	20
135.724	135.833	55	37
135.833	135.869	57	31
135.869	135.997	55	34
135.997	136.298	38	17
135.997	136.298	45	20
135.997	136.148	54	34
136.148	136.298	50	30
136.298	140.263	38	26
136.298	140.263	45	31
136.298	136.616	50	39
136.298	136.616	57	46
136.616	140.263	50	28
136.616	140.263	57	34
136.616	136.933	62	41
136.616	136.933	69	49
136.933	140.263	62	28
136.933	140.263	69	34
136.933	140.263	74	48
137.079	140.263	81	49
137.224	140.263	86	51
137.368	140.263	90	53
137.512	140.263	92	55
137.656	140.263	93	57
137.799	140.263	95	59
137.942	140.263	97	62
138.114	140.263	98	64
