# onset,offset,note,velocity
0.500004	0.592862	31.000000	33.000000
0.579599	0.659194	43.000000	24.000000
0.659194	0.752052	31.000000	33.000000
0.738788	0.818383	43.000000	24.000000
0.818383	0.911241	31.000000	33.000000
0.897977	0.977572	43.000000	24.000000
0.977572	1.070430	31.000000	33.000000
1.057167	1.136761	43.000000	24.000000
1.136761	1.229619	31.000000	33.000000
1.216356	1.295950	43.000000	24.000000
1.295950	1.388808	31.000000	33.000000
1.375545	1.455140	43.000000	24.000000
1.455140	1.547998	31.000000	33.000000
1.534734	1.614329	43.000000	24.000000
1.614329	1.707187	31.000000	33.000000
1.693923	1.773518	43.000000	24.000000
1.773518	2.410275	67.000000	49.000000
1.773518	2.410275	59.000000	49.000000
1.773518	2.410275	65.000000	49.000000
1.773518	1.866376	31.000000	33.000000
1.853113	1.932707	43.000000	24.000000
1.932707	2.025565	31.000000	33.000000
2.012302	2.091896	43.000000	24.000000
2.091896	2.184755	31.000000	33.000000
2.171491	2.251086	43.000000	24.000000
2.251086	2.343944	31.000000	33.000000
2.330680	2.410275	43.000000	24.000000
2.410275	2.887842	59.000000	51.000000
2.410275	2.887842	67.000000	51.000000
2.410275	2.887842	65.000000	51.000000
2.410275	2.503133	31.000000	33.000000
2.489869	2.569464	43.000000	24.000000
2.569464	2.662322	31.000000	33.000000
2.649059	2.728653	43.000000	24.000000
2.728653	2.821511	31.000000	33.000000
2.808248	2.887842	43.000000	24.000000
2.887842	3.061314	67.000000	46.000000
2.887842	3.061314	59.000000	46.000000
2.887842	3.061314	65.000000	46.000000
2.887842	2.989029	31.000000	33.000000
2.974572	3.061314	43.000000	24.000000
3.061314	4.298350	60.000000	55.000000
3.061314	4.298350	65.000000	55.000000
3.061314	4.298350	69.000000	55.000000
3.061314	3.151517	31.000000	33.000000
3.138629	3.215944	43.000000	24.000000
3.215944	3.306147	31.000000	33.000000
3.293259	3.370573	43.000000	24.000000
3.370573	3.460776	31.000000	33.000000
3.447888	3.525203	43.000000	24.000000
3.525203	3.615406	31.000000	33.000000
3.602518	3.679832	43.000000	24.000000
3.679832	3.770035	31.000000	33.000000
3.757147	3.834462	43.000000	24.000000
3.834462	3.924664	31.000000	33.000000
3.911776	3.989091	43.000000	24.000000
3.989091	4.079294	31.000000	33.000000
4.066406	4.143721	43.000000	24.000000
4.143721	4.233923	31.000000	33.000000
4.221035	4.298350	43.000000	24.000000
4.298350	4.916868	71.000000	58.000000
4.298350	4.916868	65.000000	58.000000
4.298350	4.916868	62.000000	58.000000
4.298350	4.388553	31.000000	33.000000
4.375665	4.452979	43.000000	24.000000
4.452979	4.543182	31.000000	33.000000
4.530294	4.607609	43.000000	24.000000
4.607609	4.697812	31.000000	33.000000
4.684924	4.762238	43.000000	24.000000
4.762238	4.852441	31.000000	34.000000
4.839553	4.916868	43.000000	25.000000
4.916868	5.380756	62.000000	57.000000
4.916868	5.380756	65.000000	57.000000
4.916868	5.380756	71.000000	57.000000
4.916868	5.007071	31.000000	34.000000
4.994183	5.071497	43.000000	25.000000
5.071497	5.161700	31.000000	34.000000
5.148812	5.226127	43.000000	25.000000
5.226127	5.316329	31.000000	35.000000
5.303441	5.380756	43.000000	26.000000
5.380756	5.544760	65.000000	62.000000
5.380756	5.544760	62.000000	62.000000
5.380756	5.544760	71.000000	62.000000
5.380756	5.476431	31.000000	35.000000
5.462765	5.544760	43.000000	27.000000
5.544760	6.774822	64.000000	68.000000
5.544760	6.774822	72.000000	68.000000
5.544760	6.774822	67.000000	68.000000
5.544760	5.634453	31.000000	37.000000
5.621646	5.698518	43.000000	27.000000
5.698518	5.788211	31.000000	37.000000
5.775403	5.852275	43.000000	27.000000
5.852275	5.941969	31.000000	37.000000
5.929161	6.006033	43.000000	27.000000
6.006033	6.095726	31.000000	38.000000
6.082919	6.159791	43.000000	27.000000
6.159791	6.249484	31.000000	38.000000
6.236676	6.313549	43.000000	27.000000
6.313549	6.403242	31.000000	38.000000
6.390434	6.467306	43.000000	27.000000
6.467306	6.556999	31.000000	38.000000
6.544192	6.621064	43.000000	28.000000
6.621064	6.710757	31.000000	38.000000
6.697950	6.774822	43.000000	28.000000
6.774822	7.376187	74.000000	77.000000
6.774822	7.376187	71.000000	77.000000
6.774822	7.376187	65.000000	77.000000
6.774822	6.862530	31.000000	46.000000
6.850004	6.925173	43.000000	34.000000
6.925173	7.012868	31.000000	46.000000
7.000342	7.075511	43.000000	35.000000
7.075511	7.163206	31.000000	49.000000
7.150680	7.225849	43.000000	37.000000
7.225849	7.313544	31.000000	49.000000
7.301018	7.376187	43.000000	37.000000
7.376187	7.977539	64.000000	81.000000
7.376187	7.977539	70.000000	81.000000
7.376187	7.977539	73.000000	81.000000
7.376187	7.463882	31.000000	49.000000
7.451356	7.526525	43.000000	37.000000
7.526525	7.614220	31.000000	50.000000
7.601694	7.676863	43.000000	38.000000
7.676863	7.764558	31.000000	50.000000
7.752032	7.827201	43.000000	39.000000
7.827201	7.914896	31.000000	51.000000
7.902370	7.977539	43.000000	39.000000
7.977539	8.578904	71.000000	81.000000
7.977539	8.578904	65.000000	81.000000
7.977539	8.578904	74.000000	81.000000
7.977539	8.065247	31.000000	51.000000
8.052721	8.127890	43.000000	39.000000
8.127890	8.215585	31.000000	53.000000
8.203059	8.278228	43.000000	39.000000
8.278228	8.365923	31.000000	53.000000
8.353397	8.428566	43.000000	41.000000
8.428566	8.516261	31.000000	53.000000
8.503735	8.578904	43.000000	41.000000
8.578904	9.204610	67.000000	81.000000
8.578904	9.204610	76.000000	81.000000
8.578904	9.204610	73.000000	81.000000
8.578904	9.204610	70.000000	81.000000
8.578904	8.670152	31.000000	58.000000
8.657117	8.735330	43.000000	41.000000
8.735330	8.826579	31.000000	59.000000
8.813543	8.891757	43.000000	41.000000
8.891757	8.983005	31.000000	59.000000
8.969970	9.048183	43.000000	44.000000
9.048183	9.139432	31.000000	59.000000
9.126396	10.426625	43.000000	45.000000
9.204610	9.848930	77.000000	86.000000
9.204610	9.848930	74.000000	86.000000
9.204610	9.848930	71.000000	86.000000
9.204610	9.848930	67.000000	86.000000
9.204610	10.426625	31.000000	44.000000
9.848930	9.988432	91.000000	82.000000
9.988432	10.127934	79.000000	72.000000
10.127934	10.267436	91.000000	74.000000
10.267436	10.426625	79.000000	62.000000
10.426625	11.761373	91.000000	77.000000
11.074781	11.582162	74.000000	80.000000
11.074781	11.582162	77.000000	80.000000
11.582162	11.761373	76.000000	71.000000
11.582162	11.761373	72.000000	71.000000
11.761373	12.958055	67.000000	67.000000
11.761373	12.958055	74.000000	67.000000
12.383459	12.522236	91.000000	64.000000
12.522236	12.661014	79.000000	52.000000
12.661014	12.799791	91.000000	58.000000
12.799791	12.958055	79.000000	47.000000
12.958055	14.221216	91.000000	64.000000
13.591097	14.065875	77.000000	61.000000
13.591097	14.065875	74.000000	61.000000
14.065875	14.221216	76.000000	57.000000
14.065875	14.221216	72.000000	57.000000
14.221216	14.357217	91.000000	52.000000
14.221216	14.764953	67.000000	53.000000
14.221216	14.764953	74.000000	53.000000
14.357217	14.493205	79.000000	41.000000
14.493205	14.629193	91.000000	53.000000
14.629193	14.764953	79.000000	41.000000
14.764953	14.895054	91.000000	47.000000
14.764953	15.285356	76.000000	62.000000
14.764953	15.285356	72.000000	62.000000
14.895054	15.025155	79.000000	41.000000
15.025155	15.155255	91.000000	47.000000
15.155255	15.285356	79.000000	41.000000
15.285356	15.414223	91.000000	52.000000
15.285356	15.801440	67.000000	67.000000
15.285356	15.801440	74.000000	67.000000
15.414223	15.543089	79.000000	47.000000
15.543089	15.671956	91.000000	58.000000
15.671956	15.801440	79.000000	51.000000
15.801440	15.927893	91.000000	62.000000
15.801440	16.307251	72.000000	66.000000
15.801440	16.307251	76.000000	66.000000
15.927893	16.054346	79.000000	56.000000
16.054346	16.180799	91.000000	64.000000
16.180799	16.307251	79.000000	58.000000
16.307251	19.241000	79.000000	64.000000
16.307251	19.241000	91.000000	64.000000
16.307251	16.815463	67.000000	74.000000
16.307251	16.815463	74.000000	74.000000
16.815463	17.293554	45.000000	83.000000
16.815463	17.293554	57.000000	83.000000
17.293554	17.779383	55.000000	93.000000
17.293554	17.779383	43.000000	74.000000
17.779383	18.259378	54.000000	82.000000
17.779383	18.259378	42.000000	66.000000
18.259378	18.753200	43.000000	67.000000
18.259378	18.753200	55.000000	83.000000
18.753200	19.241000	41.000000	68.000000
18.753200	19.241000	53.000000	84.000000
19.241000	19.788707	40.000000	70.000000
19.241000	19.788707	52.000000	89.000000
19.788707	20.360783	38.000000	73.000000
19.788707	20.360783	50.000000	92.000000
20.360783	21.348440	67.000000	90.000000
20.360783	21.368637	72.000000	90.000000
20.360783	21.368637	64.000000	81.000000
20.360783	21.368637	60.000000	81.000000
20.360783	21.368637	36.000000	58.000000
20.360783	21.368637	48.000000	73.000000
21.348440	22.317603	62.000000	81.000000
21.348440	22.337706	67.000000	90.000000
21.348440	22.337706	71.000000	90.000000
21.348440	22.337706	43.000000	58.000000
21.348440	22.337706	55.000000	73.000000
22.317603	23.302859	66.000000	85.000000
22.317603	23.282394	62.000000	77.000000
22.317603	23.302859	69.000000	85.000000
22.317603	23.302859	50.000000	69.000000
22.317603	23.302859	38.000000	55.000000
23.282394	24.265035	62.000000	81.000000
23.282394	24.265035	71.000000	90.000000
23.282394	24.265035	67.000000	90.000000
23.282394	24.265035	43.000000	58.000000
23.282394	24.265035	55.000000	73.000000
24.265035	25.240703	67.000000	90.000000
24.265035	25.221136	60.000000	81.000000
24.265035	25.240703	40.000000	58.000000
24.265035	25.240703	52.000000	73.000000
25.221136	26.205467	60.000000	81.000000
25.221136	26.184372	65.000000	90.000000
25.221136	26.205467	69.000000	90.000000
25.221136	25.711310	41.000000	58.000000
25.221136	25.711310	53.000000	73.000000
25.690738	26.205467	40.000000	55.000000
25.690738	26.205467	52.000000	69.000000
26.184372	27.238360	65.000000	86.000000
26.184372	27.238360	62.000000	78.000000
26.184372	27.238360	71.000000	86.000000
26.184372	27.238360	50.000000	69.000000
26.184372	27.238360	38.000000	55.000000
27.197027	28.684876	60.000000	81.000000
27.197027	28.684876	72.000000	90.000000
27.197027	28.684876	67.000000	90.000000
27.197027	28.684876	64.000000	81.000000
27.197027	28.684876	36.000000	58.000000
27.197027	28.684876	48.000000	73.000000
29.180830	30.150999	79.000000	45.000000
29.180830	30.150999	84.000000	45.000000
29.180830	30.150999	76.000000	45.000000
29.180830	30.150999	60.000000	40.000000
29.180830	30.150999	67.000000	40.000000
30.150999	31.107181	76.000000	37.000000
30.150999	31.107181	84.000000	37.000000
30.150999	31.107181	81.000000	37.000000
30.150999	31.107181	69.000000	33.000000
30.150999	31.107181	57.000000	33.000000
31.107181	32.074922	74.000000	48.000000
31.107181	32.074922	79.000000	48.000000
31.107181	32.074922	59.000000	41.000000
31.107181	32.074922	67.000000	41.000000
32.074922	33.038788	76.000000	56.000000
32.074922	33.038788	79.000000	56.000000
32.074922	33.038788	60.000000	49.000000
32.074922	33.038788	67.000000	49.000000
33.038788	33.516839	76.000000	46.000000
33.038788	33.990624	72.000000	46.000000
33.038788	33.516839	60.000000	50.000000
33.038788	33.990624	67.000000	50.000000
33.516839	33.990624	77.000000	41.000000
33.516839	33.990624	62.000000	53.000000
33.990624	34.954490	72.000000	50.000000
33.990624	34.954490	79.000000	50.000000
33.990624	34.954490	64.000000	46.000000
33.990624	34.954490	67.000000	46.000000
34.954490	35.970056	72.000000	48.000000
34.954490	35.970056	77.000000	48.000000
34.954490	35.970056	62.000000	44.000000
34.954490	35.970056	69.000000	44.000000
35.970056	37.075569	71.000000	50.000000
35.970056	37.075569	76.000000	50.000000
35.970056	37.075569	64.000000	38.000000
35.970056	37.075569	68.000000	38.000000
37.444078	38.379097	72.000000	61.000000
37.444078	38.379097	76.000000	61.000000
37.444078	37.911587	69.000000	56.000000
37.444078	37.911587	57.000000	56.000000
37.911587	38.379097	55.000000	53.000000
37.911587	38.379097	67.000000	53.000000
38.379097	39.314115	81.000000	58.000000
38.379097	39.314115	72.000000	58.000000
38.379097	39.314115	77.000000	58.000000
38.379097	39.314115	53.000000	62.000000
38.379097	39.314115	65.000000	62.000000
39.314115	40.247981	72.000000	68.000000
39.314115	40.247981	74.000000	68.000000
39.314115	40.247981	81.000000	68.000000
39.314115	40.247981	66.000000	66.000000
39.314115	40.247981	54.000000	66.000000
40.247981	41.191301	79.000000	72.000000
40.247981	41.191301	71.000000	72.000000
40.247981	41.191301	74.000000	72.000000
40.247981	41.191301	55.000000	66.000000
40.247981	41.191301	67.000000	66.000000
41.191301	42.122189	83.000000	73.000000
41.191301	42.122189	74.000000	73.000000
41.191301	42.122189	76.000000	73.000000
41.191301	42.122189	68.000000	72.000000
41.191301	42.122189	56.000000	72.000000
42.122189	43.061378	72.000000	73.000000
42.122189	43.061378	81.000000	73.000000
42.122189	43.061378	84.000000	73.000000
42.122189	43.061378	76.000000	73.000000
42.122189	43.061378	57.000000	67.000000
42.122189	43.061378	69.000000	67.000000
43.061378	44.031494	81.000000	72.000000
43.061378	44.031494	78.000000	72.000000
43.061378	44.031494	62.000000	61.000000
43.061378	43.518803	74.000000	61.000000
43.518803	44.031494	72.000000	58.000000
44.031494	45.219458	79.000000	77.000000
44.031494	45.219458	74.000000	77.000000
44.031494	45.219458	71.000000	58.000000
44.031494	45.219458	67.000000	58.000000
45.612322	46.723575	45.000000	73.000000
45.652716	46.723575	52.000000	68.000000
45.694156	46.723575	57.000000	68.000000
45.736374	46.723575	60.000000	77.000000
45.779732	46.723575	64.000000	77.000000
45.823935	46.723575	69.000000	82.000000
45.869398	46.723575	72.000000	70.000000
46.723575	47.619165	67.000000	84.000000
46.723575	47.619165	64.000000	74.000000
46.723575	47.619165	59.000000	74.000000
46.723575	47.619165	71.000000	84.000000
46.723575	47.619165	52.000000	75.000000
46.723575	47.619165	40.000000	66.000000
47.619165	48.750991	41.000000	69.000000
47.669175	48.750991	48.000000	64.000000
47.717884	48.750991	53.000000	74.000000
47.765064	48.750991	57.000000	84.000000
47.810890	48.750991	60.000000	73.000000
47.855267	48.750991	65.000000	81.000000
47.898625	48.750991	69.000000	70.000000
48.750991	49.698562	55.000000	78.000000
48.750991	49.698562	60.000000	88.000000
48.750991	49.698562	67.000000	88.000000
48.750991	49.698562	64.000000	88.000000
48.750991	49.698562	36.000000	63.000000
48.750991	49.698562	48.000000	70.000000
49.698562	50.646134	64.000000	88.000000
49.698562	50.646134	57.000000	78.000000
49.698562	50.646134	69.000000	88.000000
49.698562	50.646134	37.000000	61.000000
49.698562	50.646134	49.000000	69.000000
50.646134	51.130702	65.000000	91.000000
50.646134	51.615284	62.000000	91.000000
50.646134	51.615284	57.000000	81.000000
50.646134	51.615284	38.000000	66.000000
50.646134	51.615284	50.000000	74.000000
51.130702	51.615284	64.000000	78.000000
51.615284	52.666952	59.000000	91.000000
51.615284	52.666952	62.000000	91.000000
51.615284	52.666952	31.000000	66.000000
51.615284	52.666952	43.000000	74.000000
51.615284	52.125480	55.000000	74.000000
52.125480	52.666952	53.000000	74.000000
52.666952	53.227172	60.000000	93.000000
52.666952	53.008893	52.000000	85.000000
52.666952	53.119602	55.000000	85.000000
52.666952	52.779658	36.000000	85.000000
52.779658	52.895999	43.000000	57.000000
52.895999	53.008893	48.000000	57.000000
53.008893	53.960917	52.000000	64.000000
53.119602	53.960917	55.000000	57.000000
53.227172	53.960917	60.000000	57.000000
53.331496	53.435258	64.000000	64.000000
53.435258	53.539394	67.000000	58.000000
53.539394	53.644108	72.000000	58.000000
53.644108	53.749197	76.000000	64.000000
53.749197	53.854863	72.000000	58.000000
53.854863	53.960917	67.000000	58.000000
53.960917	54.061902	48.000000	64.000000
54.061902	54.161667	55.000000	57.000000
54.161667	54.260306	60.000000	60.000000
54.260306	54.358086	64.000000	68.000000
54.358086	54.454471	67.000000	63.000000
54.454471	54.549823	72.000000	64.000000
54.549823	54.645484	76.000000	72.000000
54.645484	54.742527	79.000000	68.000000
54.742527	54.840656	84.000000	69.000000
54.840656	54.940233	88.000000	78.000000
54.940233	55.040963	84.000000	74.000000
55.040963	55.143236	79.000000	74.000000
55.143236	55.239943	60.000000	78.000000
55.239943	55.335523	67.000000	70.000000
55.335523	55.430085	72.000000	70.000000
55.430085	55.523332	76.000000	78.000000
55.523332	55.615291	79.000000	70.000000
55.615291	55.707104	84.000000	70.000000
55.707104	55.800203	88.000000	78.000000
55.800203	55.894295	91.000000	72.000000
55.894295	55.989715	96.000000	72.000000
55.989715	56.086180	100.000000	78.000000
56.086180	56.184054	96.000000	72.000000
56.184054	56.283028	91.000000	72.000000
56.283028	56.378917	60.000000	78.000000
56.378917	56.473706	67.000000	69.000000
56.473706	56.567731	72.000000	68.000000
56.567731	56.660750	76.000000	74.000000
56.660750	56.751972	79.000000	67.000000
56.751972	56.845689	84.000000	66.000000
56.845689	56.945105	88.000000	72.000000
56.945105	57.050998	91.000000	66.000000
57.050998	57.164268	96.000000	66.000000
57.164268	57.285598	100.000000	58.000000
57.285598	57.431336	96.000000	53.000000
57.431336	57.594253	91.000000	48.000000
57.594253	60.666055	96.000000	62.000000
57.594253	60.666055	88.000000	62.000000
57.594253	60.666055	76.000000	62.000000
57.594253	60.666055	79.000000	62.000000
57.594253	60.666055	72.000000	62.000000
61.420776	61.653806	60.000000	61.000000
61.884865	62.058149	60.000000	58.000000
62.231434	62.289195	60.000000	52.000000
62.346956	62.578016	60.000000	60.000000
62.809075	63.046893	60.000000	58.000000
63.284711	63.515770	60.000000	69.000000
63.284711	63.515770	64.000000	69.000000
63.746829	63.920113	60.000000	63.000000
63.746829	63.920113	64.000000	63.000000
64.093398	64.151159	60.000000	58.000000
64.093398	64.151159	64.000000	58.000000
64.208920	64.439979	60.000000	69.000000
64.208920	64.439979	64.000000	69.000000
64.671038	64.906872	60.000000	63.000000
64.671038	64.906872	64.000000	63.000000
65.142705	65.372839	67.000000	72.000000
65.142705	65.372839	60.000000	72.000000
65.142705	65.372839	64.000000	72.000000
65.602973	65.833106	60.000000	69.000000
65.602973	65.833106	67.000000	69.000000
65.602973	65.833106	64.000000	69.000000
66.063240	66.298108	66.000000	72.000000
66.063240	66.298108	63.000000	72.000000
66.063240	66.298108	60.000000	72.000000
66.063240	66.298108	69.000000	72.000000
66.532976	66.773784	60.000000	69.000000
66.532976	66.773784	69.000000	69.000000
66.532976	66.773784	63.000000	69.000000
66.532976	66.773784	66.000000	69.000000
67.014593	68.445968	60.000000	72.000000
67.014593	68.445968	64.000000	72.000000
67.014593	68.445968	70.000000	72.000000
67.014593	68.445968	67.000000	72.000000
67.481526	67.601045	48.000000	57.000000
67.601045	67.720565	50.000000	59.000000
67.720565	67.840084	52.000000	62.000000
67.840084	67.959603	53.000000	63.000000
67.959603	68.079766	55.000000	66.000000
68.079766	68.200895	53.000000	64.000000
68.200895	68.323016	52.000000	63.000000
68.323016	68.445968	50.000000	62.000000
68.445968	68.569940	48.000000	61.000000
68.569940	68.694945	46.000000	60.000000
68.694945	68.818916	45.000000	59.000000
68.818916	68.945182	43.000000	58.000000
68.945182	69.189424	60.000000	70.000000
68.945182	69.189424	57.000000	70.000000
68.945182	69.189424	65.000000	70.000000
68.945182	69.189424	41.000000	56.000000
69.189424	69.438319	57.000000	55.000000
69.189424	69.438319	65.000000	55.000000
69.189424	69.438319	60.000000	55.000000
69.189424	69.438319	53.000000	41.000000
69.438319	69.683219	57.000000	61.000000
69.438319	69.683219	60.000000	61.000000
69.438319	69.683219	65.000000	61.000000
69.438319	69.683219	41.000000	46.000000
69.683219	69.870652	60.000000	57.000000
69.683219	69.870652	57.000000	57.000000
69.683219	69.870652	53.000000	40.000000
69.933134	70.179012	69.000000	70.000000
69.933134	70.179012	65.000000	70.000000
69.933134	70.179012	60.000000	70.000000
69.933134	70.179012	41.000000	57.000000
70.179012	70.428927	60.000000	56.000000
70.179012	70.428927	65.000000	56.000000
70.179012	70.428927	69.000000	56.000000
70.179012	70.428927	53.000000	50.000000
70.428927	70.674805	65.000000	62.000000
70.428927	70.674805	60.000000	62.000000
70.428927	70.674805	69.000000	62.000000
70.428927	70.674805	41.000000	55.000000
70.674805	70.866167	60.000000	57.000000
70.674805	70.866167	65.000000	57.000000
70.674805	70.866167	53.000000	49.000000
70.929950	71.114607	69.000000	69.000000
70.929950	71.114607	72.000000	69.000000
70.929950	71.114607	41.000000	58.000000
71.176164	71.361344	69.000000	59.000000
71.176164	71.361344	72.000000	59.000000
71.176164	71.361344	53.000000	50.000000
71.423075	71.608268	67.000000	66.000000
71.423075	71.608268	70.000000	66.000000
71.423075	71.608268	52.000000	56.000000
71.669999	71.856721	70.000000	57.000000
71.669999	71.856721	67.000000	57.000000
71.669999	71.856721	60.000000	49.000000
71.918962	72.103377	65.000000	63.000000
71.918962	72.103377	69.000000	63.000000
71.918962	72.103377	53.000000	56.000000
72.164854	72.394907	69.000000	53.000000
72.164854	72.394907	65.000000	53.000000
72.164854	72.394907	60.000000	41.000000
72.415828	72.886985	64.000000	62.000000
72.415828	72.886985	67.000000	62.000000
72.415828	72.659748	48.000000	48.000000
72.659748	72.886985	60.000000	38.000000
72.907638	73.153517	57.000000	70.000000
72.907638	73.153517	60.000000	70.000000
72.907638	73.153517	65.000000	70.000000
72.907638	73.153517	41.000000	56.000000
73.153517	73.404478	65.000000	55.000000
73.153517	73.404478	57.000000	55.000000
73.153517	73.404478	60.000000	55.000000
73.153517	73.404478	53.000000	41.000000
73.404478	73.650356	57.000000	61.000000
73.404478	73.650356	60.000000	61.000000
73.404478	73.650356	65.000000	61.000000
73.404478	73.650356	41.000000	46.000000
73.650356	73.838580	57.000000	57.000000
73.650356	73.838580	60.000000	57.000000
73.650356	73.838580	53.000000	40.000000
73.901317	74.147195	60.000000	69.000000
73.901317	74.147195	65.000000	69.000000
73.901317	74.147195	69.000000	69.000000
73.901317	74.147195	41.000000	57.000000
74.147195	74.397110	69.000000	56.000000
74.147195	74.397110	60.000000	56.000000
74.147195	74.397110	65.000000	56.000000
74.147195	74.397110	53.000000	50.000000
74.397110	74.644249	60.000000	62.000000
74.397110	74.644249	65.000000	62.000000
74.397110	74.644249	69.000000	62.000000
74.397110	74.644249	41.000000	55.000000
74.644249	74.836429	60.000000	57.000000
74.644249	74.836429	65.000000	57.000000
74.644249	74.836429	53.000000	49.000000
74.902103	75.088048	72.000000	69.000000
74.902103	75.088048	69.000000	69.000000
74.902103	75.088048	41.000000	58.000000
75.150034	75.337534	69.000000	59.000000
75.150034	75.337534	72.000000	59.000000
75.150034	75.337534	53.000000	50.000000
75.400029	75.585987	70.000000	66.000000
75.400029	75.585987	67.000000	66.000000
75.400029	75.585987	52.000000	56.000000
75.647973	75.835473	67.000000	57.000000
75.647973	75.835473	70.000000	57.000000
75.647973	75.835473	60.000000	49.000000
75.897968	76.084690	65.000000	63.000000
75.897968	76.084690	69.000000	63.000000
75.897968	76.084690	53.000000	56.000000
76.146931	76.334364	65.000000	53.000000
76.146931	76.334364	69.000000	53.000000
76.146931	76.334364	60.000000	41.000000
76.396846	76.884525	64.000000	62.000000
76.396846	76.884525	67.000000	62.000000
76.396846	76.647418	48.000000	48.000000
76.647418	76.884525	60.000000	38.000000
76.905769	77.033428	69.000000	72.000000
76.905769	77.033428	72.000000	72.000000
76.905769	77.416488	41.000000	57.000000
76.905769	77.416488	53.000000	57.000000
77.161115	77.288802	72.000000	64.000000
77.161115	77.288802	69.000000	64.000000
77.416488	77.671848	65.000000	72.000000
77.416488	77.671848	69.000000	72.000000
77.671848	77.935952	65.000000	66.000000
77.935952	78.068011	74.000000	78.000000
77.935952	78.068011	65.000000	78.000000
77.935952	78.068011	70.000000	78.000000
77.935952	78.068011	34.000000	62.000000
77.935952	78.068011	46.000000	62.000000
78.200069	78.332128	65.000000	71.000000
78.200069	78.332128	70.000000	71.000000
78.200069	78.332128	74.000000	71.000000
78.200069	78.332128	50.000000	57.000000
78.200069	78.332128	38.000000	57.000000
78.464187	78.970400	72.000000	77.000000
78.464187	78.970400	65.000000	77.000000
78.464187	78.970400	69.000000	77.000000
78.464187	78.970400	41.000000	69.000000
78.464187	78.970400	53.000000	69.000000
78.992408	79.388570	65.000000	81.000000
78.992408	79.388570	69.000000	81.000000
78.992408	79.388570	77.000000	81.000000
78.992408	79.388570	72.000000	81.000000
78.992408	80.035077	48.000000	69.000000
78.992408	80.035077	36.000000	69.000000
79.388570	79.515721	72.000000	77.000000
79.515721	79.775399	69.000000	83.000000
79.775399	80.035077	65.000000	71.000000
80.035077	80.168262	64.000000	74.000000
80.035077	80.168262	72.000000	74.000000
80.035077	80.168262	67.000000	74.000000
80.035077	80.168262	48.000000	59.000000
80.035077	80.168262	58.000000	59.000000
80.301447	80.438790	64.000000	64.000000
80.301447	80.438790	67.000000	64.000000
80.301447	80.438790	72.000000	64.000000
80.301447	80.438790	58.000000	57.000000
80.301447	80.438790	48.000000	57.000000
80.576133	80.999385	65.000000	72.000000
80.576133	80.999385	53.000000	60.000000
80.576133	80.999385	57.000000	60.000000
81.141060	81.267311	72.000000	58.000000
81.141060	81.392316	52.000000	58.000000
81.141060	81.392316	58.000000	58.000000
81.267311	81.392316	74.000000	60.000000
81.392316	81.516797	76.000000	62.000000
81.392316	81.641279	60.000000	51.000000
81.516797	81.641279	77.000000	64.000000
81.641279	81.764902	79.000000	66.000000
81.641279	81.889209	48.000000	58.000000
81.764902	81.889209	77.000000	64.000000
81.889209	82.014388	76.000000	62.000000
81.889209	82.140438	60.000000	52.000000
82.014388	82.140438	74.000000	61.000000
82.140438	82.267481	72.000000	66.000000
82.140438	82.394524	53.000000	58.000000
82.140438	82.394524	57.000000	58.000000
82.267481	82.394524	77.000000	59.000000
82.394524	82.519408	81.000000	66.000000
82.394524	82.644291	60.000000	52.000000
82.519408	82.644291	77.000000	61.000000
82.644291	82.894059	84.000000	66.000000
82.644291	82.894059	48.000000	58.000000
82.894059	83.152611	60.000000	52.000000
83.152611	83.275563	84.000000	61.000000
83.152611	83.398341	58.000000	58.000000
83.152611	83.398341	52.000000	58.000000
83.275563	83.398341	86.000000	62.000000
83.398341	83.520784	88.000000	63.000000
83.398341	83.642731	60.000000	52.000000
83.520784	83.642731	89.000000	66.000000
83.642731	83.885645	91.000000	68.000000
83.642731	83.885645	48.000000	58.000000
83.885645	84.144197	60.000000	52.000000
84.144197	84.265661	89.000000	59.000000
84.144197	84.387125	57.000000	58.000000
84.144197	84.387125	53.000000	58.000000
84.265661	84.387125	91.000000	62.000000
84.387125	84.508093	93.000000	63.000000
84.387125	84.628899	60.000000	53.000000
84.508093	84.628899	94.000000	67.000000
84.628899	84.869547	96.000000	70.000000
84.628899	84.869547	48.000000	58.000000
84.869547	85.126972	60.000000	53.000000
85.126972	85.249925	72.000000	58.000000
85.126972	85.372207	52.000000	58.000000
85.126972	85.372207	58.000000	58.000000
85.249925	85.372207	74.000000	60.000000
85.372207	85.493993	76.000000	62.000000
85.372207	85.615121	60.000000	51.000000
85.493993	85.615121	77.000000	64.000000
85.615121	85.735767	79.000000	66.000000
85.615121	85.857057	48.000000	58.000000
85.735767	85.857057	77.000000	64.000000
85.857057	85.979178	76.000000	62.000000
85.857057	86.102130	60.000000	52.000000
85.979178	86.102130	74.000000	61.000000
86.102130	86.224091	72.000000	66.000000
86.102130	86.346037	53.000000	58.000000
86.102130	86.346037	57.000000	58.000000
86.224091	86.346037	77.000000	59.000000
86.346037	86.466522	81.000000	66.000000
86.346037	86.587007	60.000000	52.000000
86.466522	86.587007	77.000000	61.000000
86.587007	86.827977	84.000000	66.000000
86.587007	86.827977	48.000000	58.000000
86.827977	87.086529	60.000000	52.000000
87.086529	87.209481	84.000000	58.000000
87.086529	87.332098	52.000000	58.000000
87.086529	87.332098	58.000000	58.000000
87.209481	87.332098	86.000000	60.000000
87.332098	87.454380	88.000000	62.000000
87.332098	87.576327	60.000000	51.000000
87.454380	87.576327	89.000000	64.000000
87.576327	87.697791	91.000000	66.000000
87.576327	87.819912	48.000000	58.000000
87.697791	87.819912	88.000000	64.000000
87.819912	87.942690	86.000000	62.000000
87.819912	88.066313	60.000000	52.000000
87.942690	88.066313	84.000000	61.000000
88.066313	88.192900	89.000000	68.000000
88.066313	88.192900	57.000000	56.000000
88.066313	88.192900	53.000000	56.000000
88.319487	88.445015	87.000000	67.000000
88.445015	88.570542	89.000000	63.000000
88.570542	88.696070	91.000000	67.000000
88.696070	88.821597	89.000000	63.000000
88.821597	88.947125	87.000000	67.000000
88.947125	89.072652	86.000000	63.000000
89.072652	89.198179	84.000000	69.000000
89.072652	89.198179	63.000000	53.000000
89.072652	89.198179	57.000000	53.000000
89.072652	89.198179	53.000000	53.000000
89.072652	89.198179	60.000000	53.000000
89.323707	89.449234	84.000000	67.000000
89.449234	89.574762	86.000000	63.000000
89.574762	89.700289	87.000000	67.000000
89.700289	89.825817	86.000000	63.000000
89.825817	89.951344	84.000000	67.000000
89.951344	90.076872	82.000000	63.000000
90.076872	90.202399	81.000000	69.000000
90.076872	90.202399	72.000000	53.000000
90.076872	90.202399	69.000000	53.000000
90.076872	90.202399	75.000000	53.000000
90.076872	90.202399	65.000000	53.000000
90.327927	90.453454	81.000000	67.000000
90.453454	90.578982	82.000000	63.000000
90.578982	90.705569	84.000000	67.000000
90.705569	90.832155	82.000000	63.000000
90.832155	90.958742	81.000000	67.000000
90.958742	91.086952	79.000000	63.000000
91.086952	91.223933	77.000000	69.000000
91.086952	91.223933	60.000000	53.000000
91.086952	91.223933	57.000000	53.000000
91.086952	91.223933	53.000000	53.000000
91.086952	91.223933	63.000000	53.000000
91.634888	92.078244	65.000000	70.000000
91.634888	92.078244	53.000000	69.000000
91.634888	92.078244	41.000000	69.000000
92.078244	92.226033	64.000000	61.000000
92.078244	92.226033	40.000000	60.000000
92.078244	92.226033	52.000000	60.000000
92.226033	92.546397	65.000000	64.000000
92.226033	92.546397	41.000000	66.000000
92.226033	92.546397	53.000000	66.000000
92.546397	92.875557	63.000000	71.000000
92.546397	92.875557	51.000000	71.000000
92.546397	92.875557	39.000000	71.000000
92.875557	93.230293	62.000000	77.000000
92.875557	93.230293	38.000000	75.000000
92.875557	93.230293	50.000000	75.000000
93.280974	93.697642	63.000000	80.000000
93.280974	93.697642	65.000000	80.000000
93.280974	93.697642	57.000000	80.000000
93.280974	93.697642	48.000000	71.000000
93.280974	93.697642	36.000000	71.000000
93.697642	94.266190	58.000000	73.000000
93.697642	94.266190	62.000000	73.000000
93.697642	94.266190	70.000000	82.000000
93.697642	94.266190	65.000000	82.000000
93.697642	94.266190	34.000000	60.000000
93.697642	94.266190	46.000000	69.000000
94.266190	94.455702	62.000000	66.000000
94.266190	94.455702	65.000000	74.000000
94.266190	94.455702	70.000000	74.000000
94.266190	94.455702	46.000000	57.000000
94.266190	94.455702	58.000000	63.000000
94.455702	95.549453	70.000000	81.000000
94.455702	95.549453	65.000000	81.000000
94.455702	95.549453	62.000000	72.000000
94.455702	95.549453	46.000000	71.000000
94.455702	95.549453	58.000000	71.000000
95.705706	96.440014	65.000000	73.000000
95.705706	96.440014	69.000000	82.000000
95.705706	96.440014	72.000000	82.000000
95.705706	96.440014	41.000000	63.000000
95.705706	96.440014	53.000000	71.000000
96.440014	97.008549	74.000000	84.000000
96.440014	97.008549	65.000000	75.000000
96.440014	97.008549	70.000000	84.000000
96.440014	97.008549	46.000000	74.000000
96.440014	97.008549	34.000000	67.000000
97.008549	97.198061	65.000000	72.000000
97.008549	97.198061	70.000000	81.000000
97.008549	97.198061	74.000000	81.000000
97.008549	97.198061	46.000000	59.000000
97.008549	97.198061	58.000000	68.000000
97.198061	97.902020	74.000000	85.000000
97.198061	97.902020	65.000000	77.000000
97.198061	97.902020	70.000000	85.000000
97.198061	97.902020	58.000000	73.000000
97.198061	97.902020	46.000000	66.000000
97.966018	98.719210	67.000000	62.000000
97.966018	98.719210	70.000000	69.000000
97.966018	98.719210	74.000000	69.000000
97.966018	98.719210	55.000000	64.000000
97.966018	98.719210	43.000000	58.000000
98.719210	99.124344	72.000000	74.000000
98.719210	99.124344	67.000000	74.000000
98.719210	99.124344	39.000000	59.000000
98.719210	99.124344	51.000000	67.000000
99.124344	99.535138	67.000000	66.000000
99.124344	99.535138	71.000000	66.000000
99.124344	99.535138	74.000000	66.000000
99.124344	99.535138	50.000000	60.000000
99.124344	99.535138	38.000000	55.000000
99.535138	100.290811	75.000000	69.000000
99.535138	100.290811	72.000000	69.000000
99.535138	100.290811	67.000000	69.000000
99.535138	100.290811	36.000000	58.000000
99.535138	100.290811	48.000000	64.000000
100.323668	101.086636	63.000000	61.000000
100.323668	101.086636	69.000000	61.000000
100.323668	101.086636	41.000000	49.000000
100.323668	101.086636	53.000000	56.000000
101.086636	101.885881	63.000000	64.000000
101.086636	101.885881	72.000000	64.000000
101.086636	101.885881	69.000000	64.000000
101.086636	101.885881	46.000000	53.000000
101.086636	101.885881	53.000000	59.000000
101.885881	102.620150	62.000000	61.000000
101.885881	102.620150	70.000000	61.000000
101.885881	102.620150	58.000000	59.000000
102.725051	103.524310	75.000000	47.000000
102.725051	103.524310	69.000000	47.000000
102.725051	103.524310	77.000000	47.000000
102.725051	103.524310	53.000000	38.000000
102.725051	103.524310	65.000000	38.000000
103.524310	104.092845	77.000000	49.000000
103.524310	104.092845	74.000000	49.000000
103.524310	104.092845	70.000000	49.000000
103.524310	104.092845	82.000000	49.000000
103.524310	104.092845	46.000000	40.000000
103.524310	104.092845	58.000000	40.000000
104.092845	104.282356	74.000000	45.000000
104.092845	104.282356	82.000000	45.000000
104.092845	104.282356	77.000000	45.000000
104.092845	104.282356	70.000000	38.000000
104.282356	105.376108	74.000000	48.000000
104.282356	105.376108	77.000000	48.000000
104.282356	105.376108	82.000000	48.000000
104.282356	105.376108	70.000000	41.000000
105.532360	106.266669	84.000000	49.000000
105.532360	106.266669	81.000000	49.000000
105.532360	106.266669	77.000000	49.000000
105.532360	106.266669	53.000000	41.000000
105.532360	106.266669	65.000000	41.000000
106.266669	106.835204	77.000000	51.000000
106.266669	106.835204	82.000000	51.000000
106.266669	106.835204	86.000000	51.000000
106.266669	106.835204	58.000000	45.000000
106.266669	106.835204	46.000000	45.000000
106.835204	107.024715	86.000000	48.000000
106.835204	107.024715	77.000000	48.000000
106.835204	107.024715	82.000000	48.000000
106.835204	107.024715	70.000000	39.000000
107.024715	107.760660	77.000000	52.000000
107.024715	107.760660	82.000000	52.000000
107.024715	107.760660	86.000000	52.000000
107.024715	107.760660	70.000000	44.000000
107.792659	108.545864	86.000000	41.000000
107.792659	108.545864	79.000000	41.000000
107.792659	108.545864	82.000000	41.000000
107.792659	108.545864	67.000000	38.000000
108.545864	108.950999	79.000000	45.000000
108.545864	108.950999	84.000000	45.000000
108.545864	108.950999	63.000000	39.000000
108.950999	109.361793	79.000000	39.000000
108.950999	109.361793	86.000000	39.000000
108.950999	109.361793	83.000000	39.000000
108.950999	109.361793	62.000000	37.000000
109.361793	110.117479	79.000000	41.000000
109.361793	110.117479	84.000000	41.000000
109.361793	110.117479	87.000000	41.000000
109.361793	110.117479	60.000000	38.000000
110.150336	110.913304	81.000000	37.000000
110.150336	110.913304	75.000000	37.000000
110.150336	110.913304	53.000000	34.000000
110.150336	110.913304	65.000000	34.000000
110.913304	111.712563	81.000000	39.000000
110.913304	111.712563	75.000000	39.000000
110.913304	111.712563	84.000000	39.000000
110.913304	111.712563	65.000000	36.000000
110.913304	111.712563	58.000000	36.000000
111.712563	112.461865	74.000000	37.000000
111.712563	112.461865	82.000000	37.000000
111.712563	112.461865	70.000000	35.000000
112.877876	113.244977	74.000000	73.000000
112.877876	113.244977	77.000000	73.000000
113.244977	113.612078	74.000000	75.000000
113.244977	113.612078	77.000000	75.000000
113.244977	113.993957	34.000000	57.000000
113.244977	113.993957	46.000000	57.000000
113.612078	113.993957	74.000000	73.000000
113.612078	113.993957	70.000000	73.000000
113.993957	115.088273	75.000000	82.000000
113.993957	115.088273	79.000000	82.000000
113.993957	114.728172	62.000000	49.000000
113.993957	114.728172	58.000000	49.000000
113.993957	114.728172	65.000000	49.000000
114.728172	115.433138	62.000000	49.000000
114.728172	115.433138	58.000000	49.000000
114.728172	115.433138	65.000000	49.000000
115.088273	115.433138	74.000000	78.000000
115.088273	115.433138	77.000000	78.000000
115.433138	115.791012	74.000000	80.000000
115.433138	115.791012	77.000000	80.000000
115.433138	116.148872	53.000000	63.000000
115.433138	116.148872	41.000000	63.000000
115.791012	116.148872	75.000000	73.000000
115.791012	116.148872	72.000000	73.000000
116.148872	117.231708	72.000000	73.000000
116.148872	117.231708	75.000000	73.000000
116.148872	116.864607	63.000000	49.000000
116.148872	116.864607	57.000000	49.000000
116.148872	116.864607	65.000000	49.000000
116.864607	117.589568	63.000000	49.000000
116.864607	117.589568	57.000000	49.000000
116.864607	117.589568	65.000000	49.000000
117.231708	117.589568	75.000000	73.000000
117.231708	117.589568	72.000000	73.000000
117.589568	117.936499	75.000000	75.000000
117.589568	117.936499	72.000000	75.000000
117.589568	118.298906	29.000000	61.000000
117.589568	118.298906	41.000000	61.000000
117.936499	118.298906	69.000000	73.000000
117.936499	118.298906	72.000000	73.000000
118.298906	119.352652	77.000000	81.000000
118.298906	119.352652	74.000000	81.000000
118.298906	119.005708	65.000000	49.000000
118.298906	119.005708	57.000000	49.000000
118.298906	119.005708	63.000000	49.000000
119.005708	119.708273	65.000000	49.000000
119.005708	119.708273	57.000000	49.000000
119.005708	119.708273	63.000000	49.000000
119.352652	119.708273	72.000000	75.000000
119.352652	119.708273	75.000000	75.000000
119.708273	120.063894	72.000000	80.000000
119.708273	120.063894	75.000000	80.000000
119.708273	120.419515	46.000000	57.000000
119.708273	120.419515	34.000000	57.000000
120.063894	120.419515	70.000000	73.000000
120.063894	120.419515	74.000000	73.000000
120.419515	121.558905	74.000000	73.000000
120.419515	121.558905	70.000000	73.000000
120.419515	121.558905	62.000000	49.000000
120.419515	121.558905	58.000000	49.000000
120.419515	121.558905	65.000000	49.000000
121.635401	122.369710	57.000000	63.000000
121.635401	122.369710	65.000000	80.000000
121.635401	122.369710	63.000000	80.000000
121.635401	122.369710	53.000000	63.000000
121.635401	122.369710	41.000000	50.000000
122.369710	122.938245	62.000000	64.000000
122.369710	122.938245	70.000000	82.000000
122.369710	122.938245	65.000000	82.000000
122.369710	122.938245	58.000000	64.000000
122.369710	122.938245	34.000000	55.000000
122.369710	122.938245	46.000000	69.000000
122.938245	123.127757	70.000000	74.000000
122.938245	123.127757	65.000000	74.000000
122.938245	123.127757	62.000000	59.000000
122.938245	123.127757	46.000000	50.000000
122.938245	123.127757	58.000000	63.000000
123.127757	124.221509	62.000000	64.000000
123.127757	124.221509	65.000000	81.000000
123.127757	124.221509	70.000000	81.000000
123.127757	124.221509	46.000000	57.000000
123.127757	124.221509	58.000000	71.000000
124.377761	125.112070	72.000000	82.000000
124.377761	125.112070	65.000000	64.000000
124.377761	125.112070	69.000000	82.000000
124.377761	125.112070	53.000000	71.000000
124.377761	125.112070	41.000000	57.000000
125.112070	125.680604	65.000000	67.000000
125.112070	125.680604	70.000000	84.000000
125.112070	125.680604	74.000000	84.000000
125.112070	125.680604	34.000000	59.000000
125.112070	125.680604	46.000000	74.000000
125.680604	125.870116	74.000000	81.000000
125.680604	125.870116	65.000000	64.000000
125.680604	125.870116	70.000000	81.000000
125.680604	125.870116	46.000000	53.000000
125.680604	125.870116	58.000000	68.000000
125.870116	126.606061	65.000000	68.000000
125.870116	126.606061	70.000000	85.000000
125.870116	126.606061	74.000000	85.000000
125.870116	126.606061	58.000000	73.000000
125.870116	126.606061	46.000000	58.000000
126.638060	127.391265	74.000000	63.000000
126.638060	127.391265	67.000000	50.000000
126.638060	127.391265	70.000000	63.000000
126.638060	127.391265	55.000000	59.000000
126.638060	127.391265	43.000000	47.000000
127.391265	127.782908	67.000000	55.000000
127.391265	127.782908	72.000000	68.000000
127.391265	127.782908	39.000000	49.000000
127.391265	127.782908	51.000000	60.000000
127.782908	128.182530	74.000000	60.000000
127.782908	128.182530	71.000000	60.000000
127.782908	128.182530	67.000000	47.000000
127.782908	128.182530	50.000000	56.000000
127.782908	128.182530	38.000000	44.000000
128.182530	128.928212	67.000000	50.000000
128.182530	128.928212	72.000000	63.000000
128.182530	128.928212	75.000000	63.000000
128.182530	128.928212	36.000000	47.000000
128.182530	128.928212	48.000000	59.000000
128.960626	129.723595	69.000000	57.000000
128.960626	129.723595	63.000000	45.000000
128.960626	129.723595	41.000000	40.000000
128.960626	129.723595	53.000000	51.000000
129.723595	130.501704	63.000000	46.000000
129.723595	130.501704	69.000000	59.000000
129.723595	130.501704	72.000000	59.000000
129.723595	130.501704	53.000000	55.000000
129.723595	130.501704	46.000000	42.000000
130.501704	131.246742	70.000000	57.000000
130.501704	131.246742	62.000000	45.000000
130.501704	131.246742	58.000000	53.000000
131.296416	132.049621	86.000000	38.000000
131.296416	132.049621	82.000000	38.000000
131.296416	132.049621	79.000000	38.000000
131.296416	132.049621	67.000000	36.000000
132.049621	132.454756	79.000000	41.000000
132.049621	132.454756	84.000000	41.000000
132.049621	132.454756	63.000000	37.000000
132.454756	132.865550	86.000000	36.000000
132.454756	132.865550	79.000000	36.000000
132.454756	132.865550	83.000000	36.000000
132.454756	132.865550	62.000000	34.000000
132.865550	133.621236	79.000000	38.000000
132.865550	133.621236	84.000000	38.000000
132.865550	133.621236	87.000000	38.000000
132.865550	133.621236	60.000000	36.000000
133.654763	134.511904	75.000000	34.000000
133.654763	134.511904	81.000000	34.000000
133.654763	134.511904	65.000000	30.000000
134.511904	135.387820	75.000000	36.000000
134.511904	135.387820	81.000000	36.000000
134.511904	135.387820	84.000000	36.000000
134.511904	135.387820	65.000000	33.000000
134.511904	135.387820	58.000000	33.000000
135.387820	136.559692	82.000000	34.000000
135.387820	136.559692	74.000000	34.000000
135.387820	136.559692	70.000000	31.000000
136.637811	136.826826	77.000000	64.000000
136.826826	137.009284	82.000000	67.000000
137.009284	137.185733	86.000000	69.000000
137.185733	137.366956	89.000000	74.000000
137.366956	137.537746	89.000000	88.000000
137.366956	138.033379	53.000000	49.000000
137.366956	138.033379	41.000000	49.000000
137.537746	137.702957	87.000000	70.000000
137.702957	137.868168	84.000000	68.000000
137.868168	138.033379	77.000000	68.000000
138.033379	138.204168	89.000000	88.000000
138.033379	138.699801	65.000000	42.000000
138.033379	138.699801	57.000000	42.000000
138.033379	138.699801	63.000000	42.000000
138.204168	138.369379	87.000000	69.000000
138.369379	138.534590	84.000000	68.000000
138.534590	138.699801	77.000000	68.000000
138.699801	138.868297	76.000000	68.000000
138.699801	139.365016	63.000000	42.000000
138.699801	139.365016	57.000000	42.000000
138.699801	139.365016	65.000000	42.000000
138.868297	139.036794	77.000000	64.000000
139.036794	139.200905	81.000000	68.000000
139.200905	139.365016	84.000000	64.000000
139.365016	139.538930	87.000000	88.000000
139.365016	140.033074	34.000000	55.000000
139.365016	140.033074	46.000000	55.000000
139.538930	139.703645	86.000000	69.000000
139.703645	139.868359	82.000000	66.000000
139.868359	140.033074	77.000000	66.000000
140.033074	140.203864	87.000000	85.000000
140.033074	140.700864	62.000000	41.000000
140.033074	140.700864	53.000000	41.000000
140.033074	140.700864	58.000000	41.000000
140.203864	140.369530	86.000000	68.000000
140.369530	140.535197	82.000000	64.000000
140.535197	140.700864	77.000000	64.000000
140.700864	140.866531	76.000000	64.000000
140.700864	141.354733	58.000000	41.000000
140.700864	141.354733	53.000000	41.000000
140.700864	141.354733	62.000000	41.000000
140.866531	141.027504	77.000000	62.000000
141.027504	141.192714	76.000000	64.000000
141.192714	141.354733	77.000000	62.000000
141.354733	141.524343	81.000000	81.000000
141.354733	142.014316	41.000000	56.000000
141.354733	142.014316	53.000000	56.000000
141.524343	141.686362	69.000000	50.000000
141.686362	141.852646	79.000000	78.000000
141.852646	142.014316	69.000000	52.000000
142.014316	142.180599	77.000000	80.000000
142.014316	142.675226	60.000000	44.000000
142.014316	142.675226	53.000000	44.000000
142.014316	142.675226	63.000000	44.000000
142.180599	142.343664	69.000000	52.000000
142.343664	142.512161	75.000000	80.000000
142.512161	142.675226	69.000000	53.000000
142.675226	142.846016	74.000000	82.000000
142.675226	143.373137	63.000000	44.000000
142.675226	143.373137	60.000000	44.000000
142.675226	143.373137	53.000000	44.000000
142.846016	143.012299	69.000000	55.000000
143.012299	143.183089	72.000000	84.000000
143.183089	143.373137	69.000000	57.000000
143.373137	143.908158	79.000000	89.000000
143.373137	143.908158	75.000000	89.000000
143.373137	144.086498	34.000000	55.000000
143.373137	144.086498	46.000000	55.000000
144.086498	144.601844	74.000000	74.000000
144.086498	144.601844	77.000000	74.000000
144.086498	144.773627	62.000000	40.000000
144.086498	144.773627	58.000000	40.000000
144.086498	144.773627	53.000000	40.000000
144.773627	144.942284	77.000000	69.000000
144.773627	145.448015	62.000000	44.000000
144.773627	145.448015	58.000000	44.000000
144.773627	145.448015	53.000000	44.000000
144.942284	145.110942	82.000000	72.000000
145.110942	145.277225	86.000000	77.000000
145.277225	145.448015	89.000000	81.000000
145.448015	145.618805	89.000000	94.000000
145.448015	146.114437	41.000000	53.000000
145.448015	146.114437	53.000000	53.000000
145.618805	145.784015	87.000000	78.000000
145.784015	145.949226	84.000000	74.000000
145.949226	146.114437	77.000000	74.000000
146.114437	146.285227	89.000000	94.000000
146.114437	146.780859	63.000000	45.000000
146.114437	146.780859	57.000000	45.000000
146.114437	146.780859	65.000000	45.000000
146.285227	146.450438	87.000000	77.000000
146.450438	146.615648	84.000000	74.000000
146.615648	146.780859	77.000000	74.000000
146.780859	146.947532	76.000000	74.000000
146.780859	147.447992	65.000000	45.000000
146.780859	147.447992	63.000000	45.000000
146.780859	147.447992	57.000000	45.000000
146.947532	147.114204	77.000000	69.000000
147.114204	147.278315	81.000000	74.000000
147.278315	147.447992	84.000000	69.000000
147.447992	147.621907	87.000000	96.000000
147.447992	148.117539	34.000000	60.000000
147.447992	148.117539	46.000000	60.000000
147.621907	147.787117	86.000000	77.000000
147.787117	147.952328	82.000000	70.000000
147.952328	148.117539	77.000000	70.000000
148.117539	148.289321	87.000000	96.000000
148.117539	148.784953	58.000000	45.000000
148.117539	148.784953	53.000000	45.000000
148.117539	148.784953	62.000000	45.000000
148.289321	148.454532	86.000000	75.000000
148.454532	148.619743	82.000000	69.000000
148.619743	148.784953	77.000000	69.000000
148.784953	148.950164	76.000000	75.000000
148.784953	149.438367	58.000000	45.000000
148.784953	149.438367	53.000000	45.000000
148.784953	149.438367	62.000000	45.000000
148.950164	149.111137	77.000000	73.000000
149.111137	149.276348	76.000000	80.000000
149.276348	149.438367	77.000000	75.000000
149.438367	149.600386	79.000000	82.000000
149.438367	151.381320	55.000000	63.000000
149.438367	151.381320	60.000000	63.000000
149.438367	151.381320	51.000000	63.000000
149.600386	149.762405	77.000000	79.000000
149.762405	149.924424	75.000000	79.000000
149.924424	150.086442	74.000000	79.000000
150.086442	150.248287	72.000000	79.000000
150.248287	150.410132	74.000000	79.000000
150.410132	150.571359	75.000000	78.000000
150.571359	150.732292	77.000000	79.000000
150.732292	150.892903	79.000000	81.000000
150.892903	151.053822	81.000000	84.000000
151.053822	151.216619	82.000000	85.000000
151.216619	151.381320	83.000000	90.000000
151.381320	151.552029	84.000000	94.000000
151.381320	151.552029	63.000000	63.000000
151.381320	151.552029	53.000000	63.000000
151.381320	151.552029	57.000000	63.000000
151.978796	152.064144	101.000000	70.000000
152.064144	152.240244	89.000000	93.000000
152.768533	153.048274	29.000000	78.000000
152.768533	153.048274	41.000000	78.000000
153.141521	153.312954	74.000000	69.000000
153.141521	153.312954	77.000000	69.000000
153.484388	154.129540	74.000000	75.000000
153.484388	154.129540	77.000000	75.000000
153.484388	153.806964	34.000000	71.000000
153.484388	153.806964	46.000000	71.000000
153.806964	154.129540	53.000000	45.000000
154.129540	154.396031	74.000000	69.000000
154.129540	154.396031	70.000000	69.000000
154.129540	154.396031	62.000000	49.000000
154.129540	154.396031	58.000000	49.000000
154.434105	154.669710	74.000000	63.000000
154.434105	154.669710	77.000000	63.000000
154.434105	154.669710	53.000000	45.000000
154.748245	155.354318	77.000000	74.000000
154.748245	155.354318	74.000000	74.000000
154.748245	155.051282	46.000000	72.000000
155.051282	155.354318	53.000000	44.000000
155.354318	155.611676	70.000000	69.000000
155.354318	155.611676	74.000000	69.000000
155.354318	155.611676	58.000000	48.000000
155.354318	155.611676	62.000000	48.000000
155.648436	155.957708	74.000000	63.000000
155.648436	155.957708	77.000000	63.000000
155.648436	155.957708	53.000000	44.000000
155.957708	156.566851	72.000000	67.000000
155.957708	156.566851	75.000000	67.000000
155.957708	156.262286	41.000000	57.000000
155.957708	156.262286	53.000000	57.000000
156.262286	156.566851	53.000000	44.000000
156.566851	156.859870	72.000000	61.000000
156.566851	156.859870	69.000000	61.000000
156.566851	156.859870	63.000000	49.000000
156.566851	156.859870	57.000000	49.000000
156.859870	157.164435	72.000000	59.000000
156.859870	157.164435	75.000000	59.000000
156.859870	157.164435	53.000000	45.000000
157.164435	157.755969	74.000000	62.000000
157.164435	157.755969	70.000000	62.000000
157.164435	157.460202	46.000000	68.000000
157.460202	157.755969	53.000000	44.000000
157.755969	158.051737	62.000000	51.000000
157.755969	158.051737	58.000000	51.000000
158.051737	158.204167	77.000000	69.000000
158.051737	158.204167	74.000000	69.000000
158.356597	158.948132	74.000000	75.000000
158.356597	158.948132	77.000000	75.000000
158.356597	158.652364	46.000000	71.000000
158.356597	158.652364	34.000000	71.000000
158.652364	158.948132	53.000000	45.000000
158.948132	159.202392	74.000000	69.000000
158.948132	159.202392	70.000000	69.000000
158.948132	159.202392	58.000000	49.000000
158.948132	159.202392	62.000000	49.000000
159.238709	159.389302	74.000000	63.000000
159.238709	159.389302	77.000000	63.000000
159.238709	159.389302	53.000000	45.000000
159.539894	160.131429	74.000000	74.000000
159.539894	160.131429	77.000000	74.000000
159.539894	159.835662	46.000000	72.000000
159.835662	160.131429	53.000000	44.000000
160.131429	160.382752	70.000000	69.000000
160.131429	160.382752	74.000000	69.000000
160.131429	160.382752	62.000000	48.000000
160.131429	160.382752	58.000000	48.000000
160.418654	160.712651	77.000000	63.000000
160.418654	160.712651	74.000000	63.000000
160.418654	160.712651	53.000000	44.000000
160.712651	161.297265	72.000000	67.000000
160.712651	161.297265	75.000000	67.000000
160.712651	161.004958	53.000000	57.000000
160.712651	161.004958	41.000000	57.000000
161.004958	161.297265	53.000000	44.000000
161.297265	161.581191	72.000000	61.000000
161.297265	161.581191	69.000000	61.000000
161.297265	161.581191	63.000000	49.000000
161.297265	161.581191	57.000000	49.000000
161.581191	161.880499	72.000000	59.000000
161.581191	161.880499	75.000000	59.000000
161.581191	161.880499	53.000000	45.000000
161.880499	162.472033	70.000000	62.000000
161.880499	162.472033	74.000000	62.000000
161.880499	162.176266	46.000000	68.000000
162.176266	162.472033	53.000000	44.000000
162.472033	162.767801	62.000000	51.000000
162.472033	162.767801	58.000000	51.000000
162.767801	163.076443	70.000000	62.000000
162.767801	163.076443	74.000000	62.000000
163.076443	163.671518	69.000000	67.000000
163.076443	163.671518	72.000000	67.000000
163.076443	163.225212	41.000000	49.000000
163.225212	163.373980	53.000000	41.000000
163.373980	163.522749	41.000000	49.000000
163.522749	163.671518	53.000000	41.000000
163.671518	163.969056	69.000000	62.000000
163.671518	163.969056	72.000000	62.000000
163.671518	163.820287	41.000000	49.000000
163.820287	163.969056	53.000000	41.000000
163.969056	164.279656	72.000000	62.000000
163.969056	164.279656	69.000000	62.000000
163.969056	164.124356	41.000000	49.000000
164.124356	164.279656	53.000000	41.000000
164.279656	164.878272	72.000000	68.000000
164.279656	164.878272	75.000000	68.000000
164.279656	164.429310	41.000000	49.000000
164.429310	164.578964	53.000000	41.000000
164.578964	164.728618	41.000000	51.000000
164.728618	164.878272	53.000000	44.000000
164.878272	165.177579	75.000000	64.000000
164.878272	165.177579	72.000000	64.000000
164.878272	165.027926	41.000000	52.000000
165.027926	165.177579	53.000000	45.000000
165.177579	165.490111	72.000000	72.000000
165.177579	165.490111	75.000000	72.000000
165.177579	165.333845	41.000000	53.000000
165.333845	165.490111	53.000000	47.000000
165.490111	166.125030	70.000000	80.000000
165.490111	166.125030	74.000000	80.000000
165.490111	165.648830	46.000000	59.000000
165.648830	165.807564	58.000000	48.000000
165.807564	165.966297	46.000000	62.000000
165.966297	166.125030	58.000000	50.000000
166.125030	166.463069	70.000000	79.000000
166.125030	166.463069	74.000000	79.000000
166.125030	166.294050	46.000000	64.000000
166.294050	166.463069	58.000000	52.000000
166.463069	166.839517	74.000000	82.000000
166.463069	166.839517	70.000000	82.000000
166.463069	166.651293	46.000000	66.000000
166.651293	166.839517	58.000000	55.000000
166.839517	167.968889	70.000000	78.000000
166.839517	167.968889	79.000000	86.000000
166.839517	167.968889	75.000000	86.000000
166.839517	167.968889	39.000000	52.000000
166.839517	167.968889	51.000000	59.000000
167.968889	168.302449	79.000000	81.000000
167.968889	168.302449	75.000000	81.000000
167.968889	168.302449	70.000000	72.000000
167.968889	168.302449	39.000000	55.000000
167.968889	168.302449	51.000000	60.000000
168.302449	168.965491	70.000000	78.000000
168.302449	168.965491	74.000000	86.000000
168.302449	168.965491	77.000000	86.000000
168.302449	168.965491	41.000000	58.000000
168.302449	168.965491	53.000000	66.000000
168.965491	169.296798	74.000000	82.000000
168.965491	169.296798	70.000000	73.000000
168.965491	169.296798	77.000000	82.000000
168.965491	169.296798	53.000000	61.000000
168.965491	169.296798	41.000000	56.000000
169.296798	169.646773	70.000000	70.000000
169.296798	169.646773	77.000000	79.000000
169.296798	169.646773	74.000000	79.000000
169.296798	169.646773	41.000000	56.000000
169.296798	169.646773	53.000000	61.000000
169.646773	170.304880	77.000000	92.000000
169.646773	170.304880	82.000000	92.000000
169.646773	170.304880	74.000000	83.000000
169.646773	170.304880	70.000000	83.000000
169.646773	170.304880	29.000000	61.000000
169.646773	170.304880	41.000000	69.000000
170.304880	170.642906	70.000000	74.000000
170.304880	170.642906	74.000000	83.000000
170.304880	170.642906	77.000000	83.000000
170.304880	170.642906	41.000000	58.000000
170.304880	170.642906	53.000000	64.000000
170.642906	171.005621	70.000000	79.000000
170.642906	171.005621	65.000000	70.000000
170.642906	171.005621	74.000000	79.000000
170.642906	171.005621	53.000000	59.000000
170.642906	171.005621	41.000000	53.000000
171.005621	171.691100	67.000000	77.000000
171.005621	171.691100	75.000000	85.000000
171.005621	171.691100	72.000000	85.000000
171.005621	171.691100	53.000000	64.000000
171.005621	171.691100	41.000000	58.000000
171.691100	172.046010	69.000000	80.000000
171.691100	172.046010	63.000000	71.000000
171.691100	172.046010	72.000000	80.000000
171.691100	172.046010	53.000000	59.000000
171.691100	172.046010	41.000000	53.000000
172.046010	172.434207	60.000000	63.000000
172.046010	172.434207	69.000000	71.000000
172.046010	172.434207	63.000000	71.000000
172.046010	172.434207	41.000000	53.000000
172.046010	172.434207	53.000000	59.000000
172.434207	173.175865	62.000000	62.000000
172.434207	173.175865	65.000000	69.000000
172.434207	173.175865	70.000000	69.000000
172.434207	173.175865	46.000000	46.000000
172.434207	173.175865	53.000000	51.000000
173.917523	174.659181	63.000000	49.000000
173.917523	174.659181	60.000000	49.000000
173.917523	174.659181	55.000000	49.000000
173.917523	174.659181	48.000000	42.000000
173.917523	174.659181	36.000000	38.000000
174.659181	175.030010	60.000000	42.000000
174.659181	175.030010	57.000000	42.000000
174.659181	175.030010	41.000000	34.000000
174.659181	175.030010	51.000000	38.000000
175.030010	175.421398	53.000000	42.000000
175.030010	175.421398	57.000000	42.000000
175.030010	175.421398	51.000000	38.000000
175.030010	175.421398	41.000000	34.000000
175.421398	176.204175	58.000000	49.000000
175.421398	176.204175	53.000000	49.000000
175.421398	176.204175	50.000000	42.000000
175.421398	176.204175	46.000000	38.000000
176.934903	177.665631	77.000000	56.000000
176.934903	177.665631	70.000000	56.000000
176.934903	177.665631	62.000000	40.000000
176.934903	177.665631	58.000000	40.000000
176.934903	177.665631	68.000000	40.000000
177.665631	178.030988	70.000000	51.000000
177.665631	178.030988	74.000000	51.000000
177.665631	178.030988	68.000000	38.000000
177.665631	178.030988	62.000000	38.000000
177.665631	178.030988	58.000000	38.000000
178.030988	178.380963	70.000000	53.000000
178.030988	178.380963	77.000000	53.000000
178.030988	178.380963	68.000000	38.000000
178.030988	178.380963	62.000000	38.000000
178.030988	178.380963	58.000000	38.000000
178.380963	179.101257	70.000000	59.000000
178.380963	179.101257	80.000000	59.000000
178.380963	179.101257	68.000000	41.000000
178.380963	179.101257	58.000000	41.000000
178.380963	179.101257	62.000000	41.000000
179.101257	179.461398	74.000000	60.000000
179.101257	179.461398	77.000000	60.000000
179.101257	179.461398	62.000000	44.000000
179.101257	179.461398	58.000000	44.000000
179.101257	179.461398	68.000000	44.000000
179.461398	179.835043	80.000000	63.000000
179.461398	179.835043	74.000000	63.000000
179.461398	179.835043	68.000000	44.000000
179.461398	179.835043	58.000000	44.000000
179.461398	179.835043	62.000000	44.000000
179.835043	180.593666	84.000000	68.000000
179.835043	180.593666	74.000000	68.000000
179.835043	180.593666	62.000000	49.000000
179.835043	180.593666	58.000000	49.000000
179.835043	180.593666	68.000000	49.000000
180.593666	181.409501	83.000000	67.000000
180.593666	181.409501	74.000000	67.000000
180.593666	181.409501	68.000000	46.000000
180.593666	181.409501	65.000000	46.000000
180.593666	181.409501	58.000000	46.000000
181.409501	181.559007	82.000000	67.000000
181.409501	183.959760	46.000000	41.000000
181.484496	183.769069	53.000000	41.000000
181.559007	181.706556	86.000000	56.000000
181.559007	183.656040	56.000000	41.000000
181.633023	183.445728	62.000000	49.000000
181.706556	181.851717	89.000000	62.000000
181.851717	181.995028	92.000000	61.000000
181.995028	182.136541	94.000000	67.000000
182.136541	182.278054	92.000000	62.000000
182.278054	182.419568	89.000000	66.000000
182.419568	182.561081	86.000000	61.000000
182.561081	182.706631	82.000000	63.000000
182.706631	182.854475	80.000000	60.000000
182.854475	183.006731	77.000000	62.000000
183.006731	183.164123	74.000000	57.000000
183.164123	183.254393	70.000000	60.000000
183.254393	183.347935	68.000000	59.000000
183.347935	183.445728	65.000000	58.000000
183.445728	183.959760	62.000000	58.000000
183.548081	183.656040	58.000000	57.000000
183.656040	183.959760	56.000000	56.000000
183.769069	183.977007	53.000000	56.000000
183.959760	184.787356	39.000000	44.000000
183.959760	184.787356	51.000000	55.000000
184.787356	185.592730	34.000000	39.000000
184.787356	185.592730	46.000000	49.000000
185.592730	186.420313	51.000000	55.000000
185.592730	186.420313	39.000000	44.000000
186.420313	187.225687	46.000000	49.000000
186.420313	187.225687	34.000000	39.000000
187.225687	188.053270	51.000000	55.000000
187.225687	188.053270	39.000000	44.000000
188.053270	188.858644	46.000000	50.000000
188.053270	188.858644	34.000000	39.000000
188.858644	189.686227	39.000000	44.000000
188.858644	189.686227	51.000000	55.000000
189.686227	190.497032	34.000000	39.000000
189.686227	190.497032	46.000000	49.000000
190.497032	192.135434	63.000000	48.000000
190.497032	192.135434	67.000000	48.000000
190.497032	192.135434	70.000000	48.000000
190.497032	191.324628	39.000000	44.000000
190.497032	191.324628	51.000000	55.000000
191.324628	192.135434	46.000000	49.000000
191.324628	192.135434	34.000000	39.000000
192.135434	193.779347	72.000000	47.000000
192.135434	193.779347	63.000000	47.000000
192.135434	193.779347	68.000000	47.000000
192.135434	192.963016	51.000000	55.000000
192.135434	192.963016	39.000000	44.000000
192.963016	193.779347	46.000000	49.000000
192.963016	193.779347	34.000000	39.000000
193.779347	194.987402	63.000000	48.000000
193.779347	194.987402	67.000000	48.000000
193.779347	194.987402	70.000000	48.000000
193.779347	194.584721	51.000000	56.000000
193.779347	194.584721	39.000000	44.000000
194.584721	195.379554	34.000000	39.000000
194.584721	195.379554	46.000000	50.000000
194.987402	195.379554	68.000000	38.000000
194.987402	195.379554	65.000000	38.000000
195.379554	196.163873	63.000000	48.000000
195.379554	196.163873	67.000000	48.000000
195.379554	196.163873	39.000000	44.000000
195.379554	196.163873	51.000000	55.000000
196.163873	196.969824	65.000000	51.000000
196.163873	196.969824	68.000000	51.000000
196.163873	196.969824	34.000000	39.000000
196.163873	196.969824	46.000000	49.000000
196.969824	198.597403	70.000000	57.000000
196.969824	198.597403	67.000000	57.000000
196.969824	198.597403	63.000000	57.000000
196.969824	197.797406	39.000000	44.000000
196.969824	197.797406	51.000000	55.000000
197.797406	198.597403	46.000000	48.000000
197.797406	198.597403	34.000000	38.000000
198.597403	200.241544	63.000000	45.000000
198.597403	200.241544	68.000000	45.000000
198.597403	200.241544	72.000000	45.000000
198.597403	199.430739	44.000000	61.000000
198.597403	199.430739	32.000000	49.000000
199.430739	200.241544	48.000000	50.000000
199.430739	200.241544	36.000000	39.000000
200.241544	201.449585	67.000000	50.000000
200.241544	201.449585	63.000000	50.000000
200.241544	201.449585	70.000000	50.000000
200.241544	201.046905	51.000000	56.000000
200.241544	201.046905	39.000000	44.000000
201.046905	201.841751	46.000000	49.000000
201.046905	201.841751	34.000000	39.000000
201.449585	201.841751	65.000000	40.000000
201.449585	201.841751	68.000000	40.000000
201.841751	202.626056	63.000000	50.000000
201.841751	202.626056	67.000000	50.000000
201.841751	202.626056	39.000000	44.000000
201.841751	202.626056	51.000000	56.000000
202.626056	203.432007	68.000000	55.000000
202.626056	203.432007	65.000000	55.000000
202.626056	203.432007	34.000000	39.000000
202.626056	203.432007	46.000000	50.000000
203.432007	205.059586	63.000000	51.000000
203.432007	205.059586	67.000000	51.000000
203.432007	205.059586	70.000000	51.000000
203.432007	204.259590	51.000000	58.000000
203.432007	204.259590	39.000000	46.000000
204.259590	205.059586	34.000000	40.000000
204.259590	205.059586	46.000000	51.000000
205.059586	206.681505	65.000000	62.000000
205.059586	206.681505	58.000000	62.000000
205.059586	206.681505	70.000000	62.000000
205.059586	205.881509	50.000000	62.000000
205.059586	205.881509	38.000000	49.000000
205.881509	206.681505	46.000000	56.000000
205.881509	206.681505	34.000000	44.000000
206.681505	208.309084	65.000000	68.000000
206.681505	208.309084	72.000000	68.000000
206.681505	208.309084	69.000000	68.000000
206.681505	207.509088	53.000000	67.000000
206.681505	207.509088	41.000000	52.000000
207.509088	208.309084	48.000000	58.000000
207.509088	208.309084	36.000000	46.000000
208.309084	209.130994	70.000000	71.000000
208.309084	209.130994	65.000000	71.000000
208.309084	209.130994	74.000000	71.000000
208.309084	209.130994	46.000000	77.000000
208.309084	209.130994	34.000000	61.000000
209.130994	209.936368	67.000000	75.000000
209.130994	209.936368	75.000000	75.000000
209.130994	209.936368	72.000000	75.000000
209.130994	209.936368	39.000000	56.000000
209.130994	209.936368	51.000000	70.000000
209.936368	211.586343	65.000000	80.000000
209.936368	211.586343	70.000000	80.000000
209.936368	211.586343	74.000000	80.000000
209.936368	210.775538	29.000000	66.000000
209.936368	210.775538	41.000000	82.000000
210.775538	211.586343	53.000000	70.000000
211.586343	213.226100	72.000000	73.000000
211.586343	213.226100	69.000000	73.000000
211.586343	213.226100	63.000000	73.000000
211.586343	212.431401	29.000000	61.000000
211.586343	212.431401	41.000000	78.000000
212.431401	213.226100	53.000000	66.000000
213.226100	216.404640	65.000000	71.000000
213.226100	216.404640	62.000000	71.000000
213.226100	216.404640	70.000000	71.000000
213.226100	214.048009	34.000000	60.000000
213.226100	214.048009	46.000000	75.000000
214.048009	214.807504	46.000000	64.000000
214.048009	214.807504	58.000000	81.000000
214.807504	215.599266	53.000000	73.000000
214.807504	215.599266	41.000000	59.000000
215.599266	216.404640	38.000000	52.000000
215.599266	216.404640	50.000000	66.000000
216.404640	217.518723	58.000000	41.000000
216.404640	217.549461	65.000000	41.000000
216.404640	217.549461	62.000000	41.000000
216.404640	217.156718	34.000000	33.000000
216.404640	217.156718	46.000000	41.000000
217.156718	217.428225	70.000000	36.000000
217.518723	217.887594	58.000000	37.000000
217.518723	217.918332	63.000000	37.000000
217.518723	217.918332	67.000000	37.000000
217.887594	218.655323	65.000000	41.000000
217.887594	218.655323	62.000000	41.000000
217.887594	218.625336	58.000000	41.000000
217.887594	218.164251	70.000000	39.000000
218.625336	219.344946	58.000000	41.000000
218.625336	219.344946	63.000000	41.000000
218.625336	219.344946	67.000000	41.000000
218.625336	218.895193	70.000000	41.000000
219.344946	220.461685	68.000000	41.000000
219.344946	220.431322	58.000000	41.000000
219.344946	220.461685	65.000000	41.000000
219.344946	220.078089	46.000000	48.000000
219.344946	220.078089	34.000000	48.000000
220.078089	220.343011	82.000000	49.000000
220.431322	220.795620	58.000000	35.000000
220.431322	220.825057	67.000000	35.000000
220.431322	220.825057	70.000000	35.000000
220.795620	222.208569	68.000000	41.000000
220.795620	222.208569	58.000000	41.000000
220.795620	222.208569	65.000000	41.000000
220.795620	221.060556	82.000000	49.000000
221.502101	221.767023	82.000000	50.000000
222.208569	223.287287	58.000000	48.000000
222.208569	223.317448	63.000000	48.000000
222.208569	223.317448	67.000000	48.000000
222.208569	222.932591	51.000000	49.000000
222.225158	222.949181	39.000000	49.000000
222.932591	223.198975	75.000000	52.000000
223.287287	223.678916	68.000000	40.000000
223.287287	223.649291	58.000000	40.000000
223.287287	223.678916	65.000000	40.000000
223.649291	224.360104	58.000000	52.000000
223.649291	224.389903	67.000000	52.000000
223.649291	223.915849	75.000000	52.000000
223.655219	224.395858	63.000000	52.000000
224.360104	225.075235	68.000000	52.000000
224.360104	225.075235	65.000000	52.000000
224.360104	225.075235	58.000000	52.000000
224.360104	224.628271	75.000000	56.000000
225.075235	226.161611	63.000000	57.000000
225.075235	226.191598	67.000000	57.000000
225.075235	226.191598	70.000000	57.000000
225.075235	225.808377	39.000000	59.000000
225.075235	225.808377	51.000000	59.000000
225.808377	226.073299	87.000000	66.000000
226.161611	226.551577	68.000000	45.000000
226.161611	226.521416	63.000000	45.000000
226.161611	226.551577	72.000000	45.000000
226.521416	227.969448	63.000000	57.000000
226.521416	227.969448	70.000000	57.000000
226.521416	227.969448	67.000000	57.000000
226.521416	226.792909	87.000000	66.000000
227.245425	227.516932	87.000000	66.000000
227.969448	228.705084	70.000000	79.000000
227.969448	228.705084	67.000000	79.000000
227.969448	228.705084	63.000000	79.000000
227.969448	228.705084	75.000000	89.000000
227.969448	229.428356	51.000000	72.000000
227.969448	229.428356	39.000000	64.000000
228.705084	229.428356	63.000000	78.000000
228.705084	229.428356	74.000000	86.000000
228.705084	229.428356	70.000000	78.000000
229.428356	230.160063	63.000000	74.000000
229.428356	230.160063	68.000000	83.000000
229.428356	230.160063	72.000000	74.000000
229.428356	230.160063	44.000000	55.000000
229.428356	230.160063	56.000000	61.000000
230.160063	230.927135	70.000000	82.000000
230.160063	230.927135	67.000000	73.000000
230.160063	230.927135	63.000000	73.000000
230.160063	230.927135	39.000000	53.000000
230.160063	230.927135	51.000000	60.000000
230.927135	231.694207	63.000000	83.000000
230.927135	231.694207	72.000000	83.000000
230.927135	231.694207	75.000000	93.000000
230.927135	232.430393	32.000000	71.000000
230.927135	232.430393	44.000000	80.000000
231.694207	232.430393	72.000000	80.000000
231.694207	232.430393	63.000000	71.000000
231.694207	232.430393	68.000000	71.000000
232.430393	233.194729	60.000000	72.000000
232.430393	233.194729	67.000000	72.000000
232.430393	233.194729	70.000000	81.000000
232.430393	233.194729	48.000000	71.000000
232.430393	233.194729	36.000000	62.000000
233.194729	233.989428	68.000000	74.000000
233.194729	233.989428	60.000000	67.000000
233.194729	233.989428	65.000000	67.000000
233.194729	233.989428	53.000000	61.000000
233.194729	233.989428	41.000000	55.000000
233.989428	235.618080	58.000000	79.000000
233.989428	235.618080	63.000000	79.000000
233.989428	235.618080	67.000000	89.000000
233.989428	234.828598	46.000000	77.000000
233.989428	234.828598	34.000000	68.000000
234.828598	235.223339	70.000000	62.000000
235.618080	237.225609	62.000000	59.000000
235.618080	237.225609	65.000000	66.000000
235.618080	237.225609	58.000000	66.000000
235.618080	237.225609	56.000000	58.000000
235.618080	236.451416	34.000000	67.000000
235.618080	236.451416	46.000000	74.000000
236.451416	236.838513	82.000000	68.000000
237.225609	238.030970	55.000000	59.000000
237.225609	238.030970	63.000000	67.000000
237.225609	238.030970	58.000000	59.000000
237.225609	238.030970	39.000000	51.000000
237.225609	238.030970	51.000000	58.000000
238.030970	238.212797	82.000000	61.000000
238.030970	238.758238	63.000000	58.000000
238.030970	238.758238	58.000000	58.000000
238.030970	238.758238	67.000000	58.000000
238.212797	238.394611	70.000000	50.000000
238.394611	238.576424	82.000000	66.000000
238.576424	238.758238	70.000000	53.000000
238.758238	238.940052	82.000000	67.000000
238.758238	239.485493	58.000000	61.000000
238.758238	239.485493	56.000000	61.000000
238.758238	239.485493	65.000000	61.000000
238.940052	239.121865	70.000000	53.000000
239.121865	239.303679	82.000000	70.000000
239.303679	239.485493	70.000000	57.000000
239.485493	239.686833	82.000000	71.000000
239.485493	240.290853	58.000000	62.000000
239.485493	240.290853	53.000000	62.000000
239.485493	240.290853	62.000000	62.000000
239.686833	239.888173	70.000000	60.000000
239.888173	240.089513	82.000000	74.000000
240.089513	240.290853	70.000000	62.000000
240.290853	241.860054	75.000000	75.000000
240.290853	241.860054	82.000000	84.000000
240.290853	241.860054	79.000000	75.000000
240.290853	241.860054	70.000000	75.000000
240.290853	240.489002	39.000000	75.000000
240.489002	240.687150	46.000000	62.000000
240.687150	240.885298	51.000000	70.000000
240.885298	241.083447	55.000000	61.000000
241.083447	241.277598	58.000000	75.000000
241.277598	241.471750	63.000000	63.000000
241.471750	241.665902	67.000000	70.000000
241.665902	241.860054	63.000000	62.000000
241.860054	243.434525	80.000000	74.000000
241.860054	243.434525	84.000000	83.000000
241.860054	243.434525	75.000000	74.000000
241.860054	243.434525	72.000000	74.000000
241.860054	242.256364	68.000000	81.000000
242.256364	242.652661	63.000000	72.000000
242.652661	243.043593	60.000000	78.000000
243.043593	243.434525	56.000000	72.000000
243.434525	244.591631	70.000000	75.000000
243.434525	244.591631	82.000000	84.000000
243.434525	244.591631	79.000000	75.000000
243.434525	244.591631	75.000000	84.000000
243.434525	243.627376	39.000000	75.000000
243.627376	243.820227	46.000000	68.000000
243.820227	244.013078	51.000000	68.000000
244.013078	244.205929	55.000000	68.000000
244.205929	244.591631	58.000000	78.000000
244.591631	244.967248	68.000000	61.000000
244.591631	244.967248	77.000000	60.000000
244.591631	244.967248	80.000000	68.000000
244.591631	244.967248	63.000000	68.000000
244.967248	245.718481	79.000000	84.000000
244.967248	245.718481	67.000000	75.000000
244.967248	245.718481	75.000000	75.000000
244.967248	245.342864	51.000000	83.000000
245.342864	245.718481	63.000000	75.000000
245.718481	246.490395	68.000000	83.000000
245.718481	246.490395	77.000000	82.000000
245.718481	246.490395	80.000000	92.000000
245.718481	246.094098	46.000000	83.000000
246.094098	246.490395	58.000000	68.000000
246.490395	248.049295	79.000000	89.000000
246.490395	248.049295	82.000000	100.000000
246.490395	248.049295	75.000000	89.000000
246.490395	248.049295	70.000000	89.000000
246.490395	246.688543	39.000000	81.000000
246.688543	246.886691	46.000000	64.000000
246.886691	247.084840	51.000000	64.000000
247.084840	247.282988	55.000000	64.000000
247.282988	247.474565	58.000000	75.000000
247.474565	247.666142	63.000000	63.000000
247.666142	247.857719	67.000000	63.000000
247.857719	248.049295	63.000000	63.000000
248.049295	249.624102	72.000000	82.000000
248.049295	249.624102	75.000000	82.000000
248.049295	249.624102	84.000000	91.000000
248.049295	249.624102	80.000000	81.000000
248.049295	248.448395	68.000000	81.000000
248.448395	248.847495	63.000000	68.000000
248.847495	249.235798	60.000000	75.000000
249.235798	249.624102	56.000000	68.000000
249.624102	250.781208	70.000000	85.000000
249.624102	250.781208	75.000000	85.000000
249.624102	250.781208	79.000000	86.000000
249.624102	250.781208	82.000000	96.000000
249.624102	249.816953	39.000000	77.000000
249.816953	250.009804	46.000000	62.000000
250.009804	250.202655	51.000000	62.000000
250.202655	250.395506	55.000000	62.000000
250.395506	250.781208	58.000000	68.000000
250.781208	251.156811	80.000000	72.000000
250.781208	251.156811	77.000000	64.000000
250.781208	251.156811	68.000000	64.000000
250.781208	251.156811	63.000000	62.000000
251.156811	251.908045	67.000000	80.000000
251.156811	251.908045	75.000000	79.000000
251.156811	251.908045	79.000000	89.000000
251.156811	251.532428	51.000000	68.000000
251.532428	251.908045	63.000000	62.000000
251.908045	252.679945	77.000000	86.000000
251.908045	252.679945	68.000000	85.000000
251.908045	252.679945	80.000000	96.000000
251.908045	252.283648	46.000000	68.000000
252.283648	252.679945	58.000000	62.000000
252.679945	254.238845	70.000000	88.000000
252.679945	254.238845	82.000000	99.000000
252.679945	254.238845	79.000000	89.000000
252.679945	254.238845	75.000000	88.000000
252.679945	252.878093	39.000000	77.000000
252.878093	253.076241	46.000000	63.000000
253.076241	253.274390	51.000000	63.000000
253.274390	253.472538	55.000000	63.000000
253.472538	253.664115	46.000000	73.000000
253.664115	253.855692	51.000000	63.000000
253.855692	254.047269	55.000000	63.000000
254.047269	254.238845	58.000000	64.000000
254.238845	255.792328	74.000000	89.000000
254.238845	255.792328	82.000000	100.000000
254.238845	255.792328	77.000000	89.000000
254.238845	255.792328	70.000000	89.000000
254.238845	254.435639	50.000000	82.000000
254.435639	254.632433	53.000000	66.000000
254.632433	254.829227	58.000000	66.000000
254.829227	255.026021	62.000000	66.000000
255.026021	255.217598	58.000000	82.000000
255.217598	255.409175	62.000000	68.000000
255.409175	255.600751	58.000000	68.000000
255.600751	255.792328	53.000000	68.000000
255.792328	257.351229	81.000000	90.000000
255.792328	257.351229	84.000000	101.000000
255.792328	257.351229	77.000000	90.000000
255.792328	257.351229	72.000000	90.000000
255.792328	256.188625	41.000000	82.000000
256.188625	256.386773	45.000000	68.000000
256.386773	256.584922	48.000000	68.000000
256.584922	256.776499	53.000000	74.000000
256.776499	256.968075	57.000000	68.000000
256.968075	257.159652	60.000000	68.000000
257.159652	257.351229	65.000000	68.000000
257.351229	258.138418	77.000000	93.000000
257.351229	258.138418	86.000000	104.000000
257.351229	258.138418	82.000000	93.000000
257.351229	258.138418	74.000000	93.000000
257.351229	258.138418	58.000000	81.000000
257.351229	258.138418	46.000000	81.000000
258.138418	258.909835	75.000000	97.000000
258.138418	258.909835	79.000000	97.000000
258.138418	258.909835	84.000000	97.000000
258.138418	258.909835	87.000000	108.000000
258.138418	258.909835	51.000000	83.000000
258.138418	258.909835	39.000000	83.000000
258.909835	260.436161	77.000000	101.000000
258.909835	260.436161	86.000000	112.000000
258.909835	260.436161	82.000000	100.000000
258.909835	260.436161	74.000000	101.000000
258.909835	259.311711	41.000000	85.000000
258.909835	259.311711	53.000000	85.000000
259.311711	259.492988	70.000000	81.000000
259.492988	259.676478	69.000000	81.000000
259.676478	259.862623	67.000000	80.000000
259.862623	260.051102	65.000000	80.000000
260.051102	260.242398	63.000000	78.000000
260.242398	260.436161	62.000000	78.000000
260.436161	261.987632	81.000000	91.000000
260.436161	261.987632	84.000000	102.000000
260.436161	261.987632	75.000000	91.000000
260.436161	261.987632	72.000000	91.000000
260.436161	260.632244	60.000000	74.000000
260.632244	260.828327	58.000000	74.000000
260.828327	261.024410	57.000000	73.000000
261.024410	261.219058	55.000000	72.000000
261.219058	261.407537	53.000000	71.000000
261.407537	261.598416	51.000000	71.000000
261.598416	261.791763	50.000000	70.000000
261.791763	261.987632	48.000000	69.000000
261.987632	264.349198	70.000000	88.000000
261.987632	264.349198	74.000000	88.000000
261.987632	264.349198	77.000000	89.000000
261.987632	264.349198	82.000000	99.000000
261.987632	262.774820	46.000000	82.000000
262.774820	263.562009	58.000000	84.000000
262.774820	263.562009	46.000000	75.000000
263.562009	264.349198	41.000000	70.000000
263.562009	264.349198	53.000000	79.000000
264.349198	265.136386	38.000000	69.000000
264.349198	265.136386	50.000000	77.000000
265.136386	265.321754	65.000000	41.000000
265.136386	265.321754	62.000000	41.000000
265.136386	265.877857	34.000000	37.000000
265.136386	265.877857	46.000000	41.000000
265.321754	265.507121	58.000000	28.000000
265.507121	265.692489	62.000000	34.000000
265.507121	265.692489	65.000000	34.000000
265.692489	265.877857	58.000000	27.000000
265.877857	266.056317	65.000000	34.000000
265.877857	266.056317	62.000000	34.000000
266.056317	266.234778	58.000000	28.000000
266.234778	266.416646	63.000000	37.000000
266.234778	266.416646	67.000000	37.000000
266.234778	266.598500	70.000000	49.000000
266.416646	266.598500	58.000000	31.000000
266.598500	266.780353	62.000000	41.000000
266.598500	266.780353	65.000000	41.000000
266.598500	267.325955	70.000000	53.000000
266.780353	266.962221	58.000000	33.000000
266.962221	267.144088	65.000000	36.000000
266.962221	267.144088	62.000000	36.000000
267.144088	267.325955	58.000000	30.000000
267.325955	267.503316	67.000000	41.000000
267.325955	267.503316	63.000000	41.000000
267.325955	268.035400	70.000000	52.000000
267.503316	267.680678	58.000000	33.000000
267.680678	267.858039	63.000000	36.000000
267.680678	267.858039	67.000000	36.000000
267.858039	268.035400	58.000000	33.000000
268.035400	268.216114	65.000000	41.000000
268.035400	268.216114	68.000000	41.000000
268.035400	268.758296	34.000000	48.000000
268.035400	268.758296	46.000000	48.000000
268.216114	268.396841	58.000000	27.000000
268.396841	268.577569	65.000000	31.000000
268.396841	268.577569	68.000000	31.000000
268.577569	268.758296	58.000000	27.000000
268.758296	268.932452	65.000000	31.000000
268.758296	268.932452	68.000000	31.000000
268.932452	269.106608	58.000000	27.000000
269.106608	269.286209	70.000000	35.000000
269.106608	269.286209	67.000000	35.000000
269.106608	269.465810	82.000000	56.000000
269.286209	269.465810	58.000000	30.000000
269.465810	269.639966	65.000000	41.000000
269.465810	269.639966	68.000000	41.000000
269.465810	270.859057	82.000000	55.000000
269.639966	269.814122	58.000000	33.000000
269.814122	269.988277	65.000000	36.000000
269.814122	269.988277	68.000000	36.000000
269.988277	270.162433	58.000000	34.000000
270.162433	270.336589	65.000000	36.000000
270.162433	270.336589	68.000000	36.000000
270.336589	270.510745	58.000000	31.000000
270.510745	270.684901	68.000000	36.000000
270.510745	270.684901	65.000000	36.000000
270.684901	270.859057	58.000000	31.000000
270.859057	271.037531	63.000000	48.000000
270.859057	271.037531	67.000000	48.000000
270.859057	271.572914	51.000000	49.000000
270.875419	271.589276	39.000000	49.000000
271.037531	271.215992	58.000000	27.000000
271.215992	271.394453	63.000000	33.000000
271.215992	271.394453	67.000000	33.000000
271.394453	271.572914	58.000000	26.000000
271.572914	271.748505	63.000000	34.000000
271.572914	271.748505	67.000000	34.000000
271.748505	271.922661	58.000000	29.000000
271.922661	272.101122	68.000000	40.000000
271.922661	272.101122	65.000000	40.000000
271.922661	272.279596	75.000000	57.000000
272.101122	272.279596	58.000000	35.000000
272.279596	272.454812	67.000000	52.000000
272.279596	272.980445	75.000000	58.000000
272.285430	272.460645	63.000000	52.000000
272.454812	272.630014	58.000000	38.000000
272.630014	272.805229	63.000000	38.000000
272.630014	272.805229	67.000000	38.000000
272.805229	272.980445	58.000000	36.000000
272.980445	273.156733	65.000000	52.000000
272.980445	273.156733	68.000000	52.000000
272.980445	273.685598	75.000000	56.000000
273.156733	273.333021	58.000000	38.000000
273.333021	273.509309	68.000000	42.000000
273.333021	273.509309	65.000000	42.000000
273.509309	273.685598	58.000000	38.000000
273.685598	273.866312	67.000000	57.000000
273.685598	273.866312	70.000000	57.000000
273.685598	274.408494	51.000000	59.000000
273.685598	274.408494	39.000000	59.000000
273.866312	274.047039	63.000000	41.000000
274.047039	274.227766	70.000000	47.000000
274.047039	274.227766	67.000000	47.000000
274.227766	274.408494	63.000000	41.000000
274.408494	274.582650	67.000000	37.000000
274.408494	274.582650	70.000000	37.000000
274.582650	274.756806	63.000000	37.000000
274.756806	274.934167	68.000000	45.000000
274.756806	274.934167	72.000000	45.000000
274.756806	275.111528	87.000000	72.000000
274.934167	275.111528	63.000000	41.000000
275.111528	275.290002	70.000000	57.000000
275.111528	275.290002	67.000000	57.000000
275.111528	276.539229	87.000000	75.000000
275.290002	275.468463	63.000000	35.000000
275.468463	275.646924	67.000000	41.000000
275.468463	275.646924	70.000000	41.000000
275.646924	275.825385	63.000000	37.000000
275.825385	276.003846	67.000000	41.000000
275.825385	276.003846	70.000000	41.000000
276.003846	276.182307	63.000000	38.000000
276.182307	276.360768	70.000000	46.000000
276.182307	276.360768	67.000000	46.000000
276.360768	276.539229	63.000000	41.000000
276.539229	277.277950	63.000000	87.000000
276.539229	277.277950	75.000000	97.000000
276.539229	277.277950	70.000000	87.000000
276.539229	277.277950	67.000000	87.000000
276.539229	277.277950	51.000000	71.000000
276.539229	277.277950	39.000000	63.000000
277.277950	277.897527	63.000000	86.000000
277.277950	277.897527	70.000000	85.000000
277.277950	277.897527	74.000000	95.000000
277.277950	277.897527	55.000000	71.000000
277.277950	277.897527	43.000000	71.000000
277.897527	278.763733	60.000000	77.000000
277.955637	278.763733	63.000000	84.000000
277.955637	278.763733	44.000000	58.000000
278.018374	278.763733	68.000000	78.000000
278.018374	278.763733	51.000000	61.000000
278.085764	278.763733	72.000000	92.000000
278.085764	278.763733	56.000000	70.000000
278.763733	279.500470	58.000000	82.000000
278.763733	279.500470	70.000000	94.000000
278.763733	279.500470	67.000000	84.000000
278.763733	279.500470	63.000000	82.000000
278.763733	279.500470	51.000000	65.000000
278.763733	279.500470	39.000000	58.000000
279.500470	280.250469	75.000000	97.000000
279.500470	280.250469	87.000000	110.000000
279.500470	280.250469	84.000000	97.000000
279.500470	280.250469	80.000000	97.000000
279.500470	280.250469	32.000000	74.000000
279.500470	280.250469	44.000000	81.000000
280.250469	280.909113	80.000000	88.000000
280.250469	280.909113	84.000000	98.000000
280.250469	280.909113	75.000000	98.000000
280.250469	280.909113	72.000000	98.000000
280.250469	280.909113	44.000000	74.000000
280.250469	280.909113	56.000000	74.000000
280.909113	281.760286	70.000000	90.000000
280.909113	281.760286	48.000000	58.000000
280.964568	281.760286	76.000000	95.000000
280.964568	281.760286	52.000000	59.000000
281.022235	281.760286	79.000000	89.000000
281.022235	281.760286	55.000000	60.000000
281.082317	281.760286	82.000000	105.000000
281.082317	281.760286	60.000000	70.000000
281.760286	282.521511	68.000000	86.000000
281.760286	282.521511	72.000000	86.000000
281.760286	282.521511	77.000000	85.000000
281.760286	282.521511	80.000000	95.000000
281.760286	282.521511	41.000000	63.000000
281.760286	282.521511	53.000000	72.000000
282.521511	284.042579	70.000000	90.000000
282.521511	284.042579	79.000000	101.000000
282.521511	284.042579	75.000000	92.000000
282.521511	284.042579	67.000000	90.000000
282.521511	283.342535	58.000000	73.000000
282.521511	283.342535	46.000000	65.000000
283.342535	284.042579	46.000000	74.000000
283.342535	284.042579	34.000000	74.000000
284.042579	285.726511	65.000000	74.000000
284.042579	284.967432	53.000000	57.000000
284.102500	285.726511	68.000000	80.000000
284.102500	284.967432	56.000000	61.000000
284.165867	285.726511	74.000000	75.000000
284.165867	284.967432	58.000000	64.000000
284.225962	285.726511	77.000000	96.000000
284.225962	284.967432	62.000000	70.000000
284.967432	285.726511	34.000000	73.000000
284.967432	285.726511	46.000000	73.000000
285.726511	286.487723	63.000000	79.000000
285.726511	286.487723	67.000000	79.000000
285.726511	286.487723	70.000000	72.000000
285.726511	286.487723	75.000000	79.000000
285.726511	285.852749	39.000000	66.000000
285.852749	285.981093	51.000000	55.000000
285.981093	286.106352	39.000000	61.000000
286.106352	286.234978	51.000000	54.000000
286.234978	286.360519	39.000000	61.000000
286.360519	286.487723	51.000000	54.000000
286.487723	286.733373	63.000000	82.000000
286.487723	286.609106	39.000000	66.000000
286.609106	286.733373	51.000000	55.000000
286.733373	286.979841	67.000000	82.000000
286.733373	286.854072	39.000000	61.000000
286.854072	286.979841	51.000000	54.000000
286.979841	287.225156	70.000000	82.000000
286.979841	287.102888	39.000000	61.000000
287.102888	287.225156	51.000000	54.000000
287.225156	287.976631	63.000000	75.000000
287.225156	287.976631	75.000000	82.000000
287.225156	287.976631	71.000000	75.000000
287.225156	287.976631	68.000000	75.000000
287.225156	287.351153	39.000000	71.000000
287.351153	287.476520	51.000000	55.000000
287.476520	287.601430	39.000000	61.000000
287.601430	287.726663	51.000000	54.000000
287.726663	287.850849	39.000000	61.000000
287.850849	287.976631	51.000000	54.000000
287.976631	288.745567	68.000000	75.000000
287.976631	288.745567	71.000000	75.000000
287.976631	288.745567	75.000000	75.000000
287.976631	288.745567	80.000000	82.000000
287.976631	288.102628	39.000000	74.000000
288.102628	288.233735	51.000000	55.000000
288.233735	288.361528	39.000000	64.000000
288.361528	288.489336	51.000000	54.000000
288.489336	288.619691	39.000000	65.000000
288.619691	288.745567	51.000000	54.000000
288.745567	289.514638	70.000000	75.000000
288.745567	289.514638	79.000000	82.000000
288.745567	289.514638	75.000000	75.000000
288.745567	289.514638	67.000000	75.000000
288.745567	288.874689	39.000000	74.000000
288.874689	289.002751	51.000000	55.000000
289.002751	289.130572	39.000000	64.000000
289.130572	289.260203	51.000000	54.000000
289.260203	289.386213	39.000000	64.000000
289.386213	289.514638	51.000000	54.000000
289.514638	289.761321	75.000000	84.000000
289.514638	289.636048	39.000000	66.000000
289.636048	289.761321	51.000000	55.000000
289.761321	290.006019	79.000000	84.000000
289.761321	289.882315	39.000000	63.000000
289.882315	290.006019	51.000000	54.000000
290.006019	290.252272	82.000000	85.000000
290.006019	290.129280	39.000000	63.000000
290.129280	290.252272	51.000000	54.000000
290.252272	291.005665	83.000000	80.000000
290.252272	291.005665	75.000000	80.000000
290.252272	291.005665	80.000000	80.000000
290.252272	291.005665	87.000000	91.000000
290.252272	290.378470	39.000000	73.000000
290.378470	290.504105	51.000000	55.000000
290.504105	290.629847	39.000000	65.000000
290.629847	290.755844	51.000000	54.000000
290.755844	290.879119	39.000000	64.000000
290.879119	291.005665	51.000000	54.000000
291.005665	291.811026	83.000000	86.000000
291.005665	291.811026	80.000000	86.000000
291.005665	291.811026	87.000000	86.000000
291.005665	291.811026	92.000000	97.000000
291.005665	291.139548	39.000000	72.000000
291.139548	291.274450	51.000000	55.000000
291.274450	291.408238	39.000000	64.000000
291.408238	291.543931	51.000000	54.000000
291.543931	291.675816	39.000000	63.000000
291.675816	291.811026	51.000000	54.000000
291.811026	292.590248	91.000000	96.000000
291.811026	292.590248	79.000000	86.000000
291.811026	292.590248	82.000000	86.000000
291.811026	292.590248	87.000000	86.000000
291.811026	293.384947	39.000000	63.000000
291.854853	293.430867	27.000000	63.000000
292.590248	293.186276	63.000000	78.000000
292.590248	293.186276	75.000000	78.000000
293.186276	293.384947	63.000000	72.000000
293.186276	293.384947	75.000000	72.000000
293.384947	295.017595	75.000000	79.000000
293.384947	295.017595	63.000000	79.000000
294.201278	294.813519	39.000000	45.000000
294.201278	294.813519	27.000000	39.000000
294.813519	295.017595	29.000000	37.000000
294.813519	295.017595	41.000000	41.000000
295.017595	295.833926	31.000000	41.000000
295.017595	295.833926	43.000000	47.000000
295.833926	296.650257	43.000000	41.000000
295.833926	296.650257	31.000000	37.000000
296.650257	297.466588	51.000000	39.000000
296.650257	297.466588	55.000000	39.000000
296.650257	297.466588	60.000000	45.000000
296.650257	297.466588	31.000000	39.000000
296.650257	297.466588	43.000000	44.000000
297.466588	298.299924	57.000000	41.000000
297.466588	298.299924	60.000000	41.000000
297.466588	298.299924	51.000000	37.000000
297.466588	298.299924	54.000000	37.000000
297.466588	298.299924	43.000000	41.000000
297.466588	298.299924	31.000000	37.000000
298.299924	299.524407	50.000000	40.000000
298.299924	299.524407	55.000000	40.000000
298.299924	299.524407	59.000000	46.000000
298.299924	300.748890	31.000000	39.000000
298.299924	300.748890	43.000000	44.000000
299.524407	299.932572	57.000000	41.000000
299.524407	299.932572	48.000000	37.000000
299.932572	300.748890	47.000000	35.000000
299.932572	300.748890	55.000000	39.000000
300.748890	301.361131	27.000000	39.000000
300.748890	301.361131	39.000000	45.000000
301.361131	301.565207	29.000000	37.000000
301.361131	301.565207	41.000000	41.000000
301.565207	302.381538	43.000000	47.000000
301.565207	302.381538	31.000000	41.000000
302.381538	303.197869	43.000000	41.000000
302.381538	303.197869	31.000000	37.000000
303.197869	304.061179	55.000000	49.000000
303.197869	304.061179	60.000000	49.000000
303.197869	304.061179	63.000000	56.000000
303.197869	304.061179	51.000000	49.000000
303.197869	304.061179	31.000000	47.000000
303.197869	304.061179	43.000000	52.000000
304.061179	304.984261	63.000000	55.000000
304.061179	304.984261	54.000000	49.000000
304.061179	304.984261	60.000000	49.000000
304.061179	304.984261	57.000000	49.000000
304.061179	304.984261	31.000000	46.000000
304.061179	304.984261	43.000000	51.000000
304.984261	306.373164	55.000000	51.000000
304.984261	307.484296	59.000000	51.000000
304.984261	307.762080	62.000000	58.000000
304.984261	305.262031	31.000000	45.000000
305.262031	305.539814	38.000000	38.000000
305.539814	305.817597	43.000000	38.000000
305.817597	306.095381	47.000000	45.000000
306.095381	306.373164	50.000000	38.000000
306.373164	307.206513	55.000000	38.000000
306.650947	306.928730	43.000000	47.000000
306.928730	307.206513	50.000000	38.000000
307.206513	308.317646	55.000000	40.000000
307.484296	308.317646	59.000000	44.000000
307.762080	308.317646	62.000000	36.000000
308.039863	308.317646	67.000000	36.000000
308.317646	308.609618	55.000000	41.000000
308.609618	308.901590	62.000000	34.000000
308.901590	309.193562	67.000000	34.000000
309.193562	309.485534	71.000000	40.000000
309.485534	309.777506	74.000000	35.000000
309.777506	310.069478	79.000000	34.000000
310.069478	310.360927	67.000000	37.000000
310.360927	310.657781	74.000000	30.000000
310.657781	310.960817	79.000000	35.000000
310.960817	311.270304	83.000000	39.000000
311.270304	311.586537	86.000000	31.000000
311.586537	311.994702	91.000000	31.000000
311.994702	314.443681	103.000000	38.000000
315.106952	316.352785	67.000000	47.000000
315.181437	316.352785	72.000000	47.000000
315.267643	316.352785	76.000000	47.000000
315.353849	316.352785	79.000000	47.000000
315.353849	315.669304	48.000000	28.000000
315.353849	315.669304	36.000000	28.000000
315.669304	315.984759	52.000000	31.000000
315.984759	316.300214	55.000000	36.000000
316.300214	316.668240	81.000000	39.000000
316.300214	316.668240	69.000000	39.000000
316.300214	316.668240	77.000000	39.000000
316.300214	316.615668	60.000000	39.000000
316.615668	317.246578	67.000000	41.000000
316.615668	317.246578	76.000000	41.000000
316.615668	317.299149	79.000000	41.000000
316.615668	316.931123	55.000000	37.000000
316.931123	317.246578	52.000000	30.000000
317.246578	318.865212	72.000000	42.000000
317.246578	318.865212	64.000000	42.000000
317.246578	318.865212	76.000000	42.000000
317.246578	317.562019	48.000000	30.000000
317.562019	317.877474	52.000000	33.000000
317.877474	318.192929	55.000000	36.000000
318.192929	318.508384	60.000000	31.000000
318.508384	318.836767	55.000000	31.000000
318.836767	319.184475	52.000000	29.000000
318.922732	320.175230	67.000000	47.000000
319.009971	320.175230	72.000000	47.000000
319.097223	320.175230	79.000000	47.000000
319.184475	320.175230	76.000000	47.000000
319.184475	319.497892	36.000000	30.000000
319.184475	319.497892	48.000000	30.000000
319.497892	319.811308	52.000000	33.000000
319.811308	320.124724	55.000000	35.000000
320.124724	320.478266	69.000000	39.000000
320.124724	320.478266	77.000000	39.000000
320.124724	320.478266	81.000000	39.000000
320.124724	320.427760	60.000000	36.000000
320.427760	321.057047	76.000000	41.000000
320.427760	321.057047	67.000000	41.000000
320.427760	321.110155	79.000000	41.000000
320.427760	320.730797	55.000000	35.000000
320.730797	321.057047	52.000000	33.000000
321.057047	322.693746	64.000000	41.000000
321.057047	322.693746	72.000000	41.000000
321.057047	322.693746	76.000000	41.000000
321.057047	321.375654	48.000000	33.000000
321.375654	321.694260	52.000000	35.000000
321.694260	322.009715	55.000000	37.000000
322.009715	322.325170	60.000000	36.000000
322.325170	322.663625	55.000000	34.000000
322.663625	323.005150	52.000000	33.000000
322.752003	324.258816	74.000000	62.000000
322.836386	324.258816	77.000000	62.000000
322.920768	324.258816	79.000000	62.000000
323.005150	324.258816	86.000000	62.000000
323.005150	323.318567	31.000000	31.000000
323.005150	323.318567	43.000000	31.000000
323.318567	323.631983	53.000000	34.000000
323.631983	323.945399	55.000000	35.000000
323.945399	324.258816	59.000000	34.000000
324.258816	324.925144	74.000000	49.000000
324.258816	324.925144	77.000000	49.000000
324.258816	324.925144	86.000000	60.000000
324.258816	324.583846	55.000000	33.000000
324.583846	324.925144	53.000000	33.000000
324.925144	326.528704	77.000000	49.000000
324.925144	326.528704	71.000000	49.000000
324.925144	326.528704	83.000000	49.000000
324.925144	325.240599	43.000000	29.000000
325.240599	325.556054	53.000000	31.000000
325.556054	325.871508	55.000000	34.000000
325.871508	326.186963	59.000000	34.000000
326.186963	326.502418	55.000000	33.000000
326.502418	326.827261	53.000000	29.000000
326.582214	328.080926	72.000000	56.000000
326.663887	328.080926	76.000000	56.000000
326.745574	328.080926	79.000000	56.000000
326.827261	328.080926	84.000000	56.000000
326.827261	327.140677	48.000000	33.000000
326.827261	327.140677	36.000000	33.000000
327.140677	327.454093	52.000000	34.000000
327.454093	327.767509	55.000000	35.000000
327.767509	328.080926	60.000000	36.000000
328.080926	328.743338	72.000000	49.000000
328.080926	328.743338	76.000000	49.000000
328.080926	328.743338	84.000000	49.000000
328.080926	328.405956	55.000000	37.000000
328.405956	328.743338	52.000000	34.000000
328.743338	330.364225	76.000000	45.000000
328.743338	330.364225	67.000000	45.000000
328.743338	330.364225	79.000000	45.000000
328.743338	329.058793	48.000000	37.000000
329.058793	329.374248	52.000000	31.000000
329.374248	329.689702	55.000000	34.000000
329.689702	330.005157	60.000000	31.000000
330.005157	330.335458	55.000000	31.000000
330.335458	330.671177	52.000000	34.000000
330.420806	331.924842	69.000000	56.000000
330.504263	331.924842	72.000000	56.000000
330.587720	331.924842	77.000000	56.000000
330.671177	331.924842	81.000000	56.000000
330.671177	330.984593	53.000000	33.000000
330.671177	330.984593	41.000000	33.000000
330.984593	331.298010	57.000000	34.000000
331.298010	331.611426	60.000000	35.000000
331.611426	331.924842	65.000000	36.000000
331.924842	332.588260	81.000000	61.000000
331.924842	332.588260	69.000000	61.000000
331.924842	332.588260	77.000000	61.000000
331.924842	332.256551	60.000000	40.000000
332.256551	332.588260	57.000000	34.000000
332.588260	333.584742	72.000000	63.000000
332.588260	333.584742	84.000000	63.000000
332.588260	333.584742	81.000000	63.000000
332.588260	332.903715	53.000000	37.000000
332.903715	333.219170	57.000000	31.000000
333.219170	333.534625	60.000000	35.000000
333.534625	333.890071	79.000000	57.000000
333.534625	333.890071	71.000000	57.000000
333.534625	333.890071	83.000000	57.000000
333.534625	333.835341	65.000000	34.000000
333.835341	334.289734	69.000000	63.000000
333.835341	334.289734	77.000000	63.000000
333.835341	334.289734	81.000000	63.000000
333.835341	334.194328	60.000000	33.000000
334.194328	334.564004	57.000000	34.000000
334.289734	335.562939	67.000000	62.000000
334.381157	335.562939	72.000000	62.000000
334.472580	335.562939	76.000000	62.000000
334.564004	335.562939	79.000000	62.000000
334.564004	334.879458	36.000000	33.000000
334.564004	334.879458	48.000000	33.000000
334.879458	335.194913	52.000000	34.000000
335.194913	335.510368	55.000000	35.000000
335.510368	335.878394	81.000000	50.000000
335.510368	335.878394	69.000000	50.000000
335.510368	335.878394	77.000000	50.000000
335.510368	335.825823	60.000000	36.000000
335.825823	336.468574	67.000000	53.000000
335.825823	336.468574	76.000000	53.000000
335.825823	336.521146	79.000000	53.000000
335.825823	336.141278	55.000000	37.000000
336.141278	336.468574	52.000000	34.000000
336.468574	338.072134	76.000000	50.000000
336.468574	338.072134	64.000000	50.000000
336.468574	338.072134	72.000000	50.000000
336.468574	336.784029	48.000000	37.000000
336.784029	337.099484	52.000000	31.000000
337.099484	337.414939	55.000000	33.000000
337.414939	337.730394	60.000000	30.000000
337.730394	338.045848	55.000000	30.000000
338.045848	338.373615	52.000000	29.000000
338.125939	339.627280	69.000000	56.000000
338.208498	339.627280	72.000000	56.000000
338.291056	339.627280	77.000000	56.000000
338.373615	339.627280	81.000000	56.000000
338.373615	338.687031	53.000000	33.000000
338.373615	338.687031	41.000000	33.000000
338.687031	339.000447	57.000000	34.000000
339.000447	339.313864	60.000000	35.000000
339.313864	339.627280	65.000000	36.000000
339.627280	340.290698	77.000000	61.000000
339.627280	340.290698	69.000000	61.000000
339.627280	340.290698	81.000000	61.000000
339.627280	339.958989	60.000000	40.000000
339.958989	340.290698	57.000000	34.000000
340.290698	341.287179	72.000000	63.000000
340.290698	341.287179	84.000000	63.000000
340.290698	341.287179	81.000000	63.000000
340.290698	340.606153	53.000000	37.000000
340.606153	340.921608	57.000000	31.000000
340.921608	341.237062	60.000000	35.000000
341.237062	341.592509	71.000000	57.000000
341.237062	341.592509	83.000000	57.000000
341.237062	341.592509	79.000000	57.000000
341.237062	341.537778	65.000000	34.000000
341.537778	341.959261	77.000000	63.000000
341.537778	341.959261	81.000000	63.000000
341.537778	341.959261	69.000000	63.000000
341.537778	341.872612	60.000000	33.000000
341.872612	342.227120	57.000000	34.000000
341.959261	343.206905	67.000000	62.000000
342.048538	343.206905	72.000000	62.000000
342.137829	343.206905	76.000000	62.000000
342.227120	343.206905	79.000000	62.000000
342.227120	342.536526	48.000000	33.000000
342.227120	342.536526	36.000000	33.000000
342.536526	342.845933	52.000000	34.000000
342.845933	343.155339	55.000000	35.000000
343.155339	343.520026	81.000000	50.000000
343.155339	343.520026	69.000000	50.000000
343.155339	343.520026	77.000000	50.000000
343.155339	343.464746	60.000000	36.000000
343.464746	344.128164	67.000000	53.000000
343.464746	344.128164	76.000000	53.000000
343.464746	344.180735	79.000000	53.000000
343.464746	343.796455	55.000000	37.000000
343.796455	344.128164	52.000000	34.000000
344.128164	345.753597	72.000000	50.000000
344.128164	345.753597	76.000000	50.000000
344.128164	345.753597	64.000000	50.000000
344.128164	344.443618	48.000000	37.000000
344.443618	344.759073	52.000000	31.000000
344.759073	345.074528	55.000000	33.000000
345.074528	345.389983	60.000000	30.000000
345.389983	345.724186	55.000000	30.000000
345.724186	346.067429	52.000000	29.000000
345.811452	347.321094	74.000000	63.000000
345.896787	347.321094	77.000000	63.000000
345.982108	347.321094	79.000000	63.000000
346.067429	347.321094	86.000000	63.000000
346.067429	346.380845	31.000000	31.000000
346.067429	346.380845	43.000000	31.000000
346.380845	346.694262	53.000000	34.000000
346.694262	347.007678	55.000000	35.000000
347.007678	347.321094	59.000000	34.000000
347.321094	347.998607	74.000000	63.000000
347.321094	347.998607	86.000000	63.000000
347.321094	347.829226	77.000000	63.000000
347.321094	347.659844	55.000000	33.000000
347.659844	347.998607	53.000000	33.000000
347.829226	348.944972	77.000000	70.000000
347.913916	349.260426	83.000000	70.000000
347.998607	348.997543	89.000000	70.000000
347.998607	348.314062	43.000000	29.000000
348.314062	348.629517	53.000000	31.000000
348.629517	348.944972	55.000000	34.000000
348.944972	349.260426	77.000000	64.000000
348.944972	349.316887	74.000000	64.000000
348.944972	349.316887	86.000000	64.000000
348.944972	349.260426	59.000000	37.000000
349.260426	349.683867	71.000000	64.000000
349.260426	349.683867	77.000000	64.000000
349.260426	349.683867	83.000000	64.000000
349.260426	349.599176	55.000000	34.000000
349.599176	349.937913	53.000000	33.000000
349.683867	351.976661	72.000000	61.000000
349.768544	351.924090	76.000000	61.000000
349.853222	351.924090	79.000000	61.000000
349.937913	351.976661	84.000000	61.000000
349.937913	350.264002	48.000000	33.000000
349.937913	350.264002	36.000000	33.000000
350.264002	350.590092	52.000000	34.000000
350.590092	350.916182	55.000000	35.000000
350.916182	351.242272	60.000000	36.000000
351.242272	351.583181	55.000000	37.000000
351.583181	351.924090	52.000000	34.000000
351.924090	353.846846	79.000000	50.000000
351.924090	353.846846	88.000000	50.000000
351.924090	353.846846	76.000000	50.000000
351.924090	352.239544	48.000000	30.000000
352.239544	352.554999	52.000000	25.000000
352.554999	352.870454	55.000000	29.000000
352.870454	353.185909	60.000000	25.000000
353.185909	354.111620	64.000000	24.000000
353.846846	355.104105	72.000000	50.000000
353.935104	355.051869	76.000000	50.000000
354.023362	355.051869	79.000000	50.000000
354.111620	355.104105	84.000000	50.000000
354.111620	354.425037	31.000000	36.000000
354.111620	354.425037	43.000000	36.000000
354.425037	354.738453	52.000000	33.000000
354.738453	355.051869	55.000000	33.000000
355.051869	355.420016	67.000000	47.000000
355.051869	355.365286	76.000000	47.000000
355.051869	355.420016	79.000000	47.000000
355.051869	355.365286	60.000000	33.000000
355.365286	355.775744	76.000000	47.000000
355.365286	355.775744	72.000000	47.000000
355.365286	355.775744	64.000000	47.000000
355.365286	355.693655	55.000000	29.000000
355.693655	356.022012	52.000000	29.000000
355.775744	357.283831	67.000000	51.000000
355.857833	357.283831	71.000000	51.000000
355.939922	356.968376	74.000000	51.000000
356.022012	357.020947	79.000000	51.000000
356.022012	356.337466	31.000000	36.000000
356.022012	356.337466	43.000000	36.000000
356.337466	356.652921	53.000000	33.000000
356.652921	356.968376	55.000000	28.000000
356.968376	357.336402	77.000000	46.000000
356.968376	357.283831	65.000000	46.000000
356.968376	357.283831	59.000000	30.000000
357.283831	357.900981	62.000000	42.000000
357.283831	357.900981	71.000000	42.000000
357.283831	357.900981	74.000000	42.000000
357.283831	357.599286	55.000000	29.000000
357.599286	358.001550	53.000000	30.000000
358.001550	359.862052	67.000000	42.000000
358.001550	359.862052	72.000000	42.000000
358.001550	358.929769	60.000000	42.000000
358.001550	359.862052	64.000000	42.000000
358.001550	358.310957	48.000000	33.000000
358.001550	358.310957	36.000000	33.000000
358.310957	358.620363	52.000000	34.000000
358.620363	358.929769	55.000000	35.000000
358.929769	359.862052	60.000000	36.000000
359.230485	359.546276	55.000000	37.000000
359.546276	359.862052	52.000000	34.000000
359.862052	360.177507	48.000000	37.000000
360.177507	360.492962	52.000000	35.000000
360.492962	360.808417	55.000000	37.000000
360.808417	361.123871	60.000000	40.000000
361.123871	361.439326	55.000000	39.000000
361.439326	361.754781	52.000000	37.000000
361.518197	363.608725	68.000000	71.000000
361.597054	363.608725	72.000000	71.000000
361.675911	363.608725	77.000000	71.000000
361.754781	363.608725	80.000000	71.000000
361.754781	362.064187	36.000000	41.000000
361.754781	362.064187	48.000000	41.000000
362.064187	362.373594	53.000000	42.000000
362.373594	362.683000	56.000000	45.000000
362.683000	362.983716	60.000000	46.000000
362.983716	363.296221	56.000000	47.000000
363.296221	363.608725	53.000000	42.000000
363.608725	364.870544	68.000000	67.000000
363.608725	364.870544	72.000000	67.000000
363.608725	364.870544	77.000000	67.000000
363.608725	364.870544	80.000000	67.000000
363.608725	363.924180	48.000000	47.000000
363.924180	364.239635	53.000000	45.000000
364.239635	364.555090	56.000000	47.000000
364.555090	364.870544	60.000000	51.000000
364.870544	365.501454	77.000000	67.000000
364.870544	365.501454	80.000000	67.000000
364.870544	365.501454	72.000000	67.000000
364.870544	365.501454	68.000000	67.000000
364.870544	365.185999	56.000000	50.000000
365.185999	365.501454	53.000000	47.000000
365.501454	369.005065	67.000000	69.000000
365.501454	369.005065	72.000000	69.000000
365.501454	369.005065	79.000000	69.000000
365.501454	369.005065	76.000000	69.000000
365.501454	365.810860	36.000000	41.000000
365.501454	365.810860	48.000000	41.000000
365.810860	366.120267	52.000000	42.000000
366.120267	366.429673	55.000000	45.000000
366.429673	366.730389	60.000000	46.000000
366.730389	367.039662	55.000000	47.000000
367.039662	367.348934	52.000000	42.000000
367.348934	367.664389	48.000000	47.000000
367.664389	367.979844	52.000000	45.000000
367.979844	368.295298	55.000000	47.000000
368.295298	368.610753	60.000000	51.000000
368.610753	368.926208	55.000000	50.000000
368.926208	369.241663	52.000000	47.000000
369.005065	371.095607	72.000000	73.000000
369.083922	371.095607	77.000000	73.000000
369.162792	371.095607	80.000000	73.000000
369.241663	371.095607	84.000000	73.000000
369.241663	369.551069	36.000000	41.000000
369.241663	369.551069	48.000000	41.000000
369.551069	369.860476	53.000000	42.000000
369.860476	370.169882	56.000000	45.000000
370.169882	370.470598	60.000000	46.000000
370.470598	370.783102	56.000000	47.000000
370.783102	371.095607	53.000000	42.000000
371.095607	372.357426	80.000000	75.000000
371.095607	372.357426	77.000000	75.000000
371.095607	372.357426	72.000000	75.000000
371.095607	372.357426	84.000000	75.000000
371.095607	371.411062	48.000000	47.000000
371.411062	371.726516	53.000000	45.000000
371.726516	372.041971	56.000000	47.000000
372.041971	372.357426	60.000000	51.000000
372.357426	372.988336	84.000000	81.000000
372.357426	372.988336	80.000000	72.000000
372.357426	372.988336	72.000000	81.000000
372.357426	372.988336	77.000000	81.000000
372.357426	372.672881	56.000000	50.000000
372.672881	372.988336	53.000000	47.000000
372.988336	374.835816	84.000000	91.000000
372.988336	374.835816	72.000000	82.000000
372.988336	374.835816	79.000000	81.000000
372.988336	374.835816	76.000000	82.000000
372.988336	373.297742	36.000000	50.000000
372.988336	373.297742	48.000000	50.000000
373.297742	373.607149	52.000000	51.000000
373.607149	373.916555	55.000000	53.000000
373.916555	374.217271	60.000000	56.000000
374.217271	374.526543	55.000000	57.000000
374.526543	374.835816	52.000000	51.000000
374.835816	376.728544	84.000000	83.000000
374.835816	376.728544	79.000000	83.000000
374.835816	376.728544	91.000000	92.000000
374.835816	376.728544	88.000000	82.000000
374.835816	375.151270	48.000000	57.000000
375.151270	375.466725	52.000000	53.000000
375.466725	375.782180	55.000000	57.000000
375.782180	376.097635	60.000000	62.000000
376.097635	376.413090	55.000000	60.000000
376.413090	376.728544	52.000000	57.000000
376.728544	379.173339	96.000000	96.000000
376.728544	379.173339	84.000000	89.000000
376.728544	379.173339	91.000000	89.000000
376.728544	379.173339	88.000000	89.000000
376.728544	379.173339	48.000000	69.000000
376.728544	379.173339	36.000000	69.000000
379.252210	380.347102	84.000000	45.000000
379.252210	380.347102	81.000000	45.000000
379.252210	380.347102	76.000000	45.000000
379.252210	380.347102	69.000000	40.000000
379.252210	380.347102	72.000000	40.000000
380.347102	381.426235	83.000000	37.000000
380.347102	381.426235	79.000000	37.000000
380.347102	381.426235	76.000000	37.000000
380.347102	381.426235	64.000000	33.000000
380.347102	381.426235	71.000000	33.000000
381.426235	382.518338	77.000000	49.000000
381.426235	382.518338	72.000000	49.000000
381.426235	382.518338	81.000000	49.000000
381.426235	382.518338	65.000000	42.000000
381.426235	382.518338	69.000000	42.000000
382.518338	383.606082	76.000000	63.000000
382.518338	383.606082	72.000000	63.000000
382.518338	383.606082	79.000000	63.000000
382.518338	383.606082	67.000000	51.000000
382.518338	383.606082	60.000000	51.000000
383.606082	384.680267	81.000000	74.000000
383.606082	384.680267	73.000000	74.000000
383.606082	384.680267	76.000000	74.000000
383.606082	384.680267	69.000000	62.000000
383.606082	384.680267	57.000000	62.000000
384.680267	385.768010	74.000000	83.000000
384.680267	385.768010	77.000000	83.000000
384.680267	385.768010	69.000000	68.000000
384.680267	385.768010	62.000000	68.000000
385.768010	386.914267	74.000000	91.000000
385.768010	386.914267	71.000000	91.000000
385.768010	386.341145	67.000000	74.000000
385.768010	386.914267	55.000000	74.000000
386.341145	386.914267	65.000000	83.000000
386.914267	387.773969	72.000000	82.000000
386.914267	387.466292	60.000000	73.000000
386.914267	387.671347	67.000000	73.000000
386.914267	387.569102	64.000000	73.000000
386.914267	387.025324	36.000000	85.000000
387.025324	387.139961	43.000000	60.000000
387.139961	387.251206	48.000000	60.000000
387.251206	387.360291	52.000000	67.000000
387.360291	387.466292	55.000000	60.000000
387.466292	388.189336	60.000000	60.000000
387.569102	388.189336	64.000000	67.000000
387.671347	388.084824	67.000000	61.000000
387.773969	387.980700	72.000000	61.000000
387.877140	387.980700	76.000000	67.000000
387.980700	388.189336	72.000000	61.000000
388.084824	388.189336	67.000000	61.000000
388.189336	388.288833	48.000000	67.000000
388.288833	388.387122	55.000000	60.000000
388.387122	388.484312	60.000000	62.000000
388.484312	388.580657	64.000000	71.000000
388.580657	388.675621	67.000000	66.000000
388.675621	388.769565	72.000000	67.000000
388.769565	388.863818	76.000000	75.000000
388.863818	388.959439	79.000000	69.000000
388.959439	389.056119	84.000000	70.000000
389.056119	389.154235	88.000000	82.000000
389.154235	389.253476	84.000000	73.000000
389.253476	389.354260	79.000000	73.000000
389.354260	389.449559	60.000000	77.000000
389.449559	389.543732	67.000000	70.000000
389.543732	389.636898	72.000000	71.000000
389.636898	389.728777	76.000000	77.000000
389.728777	389.819396	79.000000	71.000000
389.819396	389.909867	84.000000	71.000000
389.909867	390.001599	88.000000	82.000000
390.001599	390.094309	91.000000	75.000000
390.094309	390.188334	96.000000	75.000000
390.188334	390.283378	100.000000	82.000000
390.283378	390.379817	96.000000	75.000000
390.379817	390.477342	91.000000	75.000000
390.477342	390.571823	60.000000	79.000000
390.571823	390.665231	67.000000	74.000000
390.665231	390.757861	72.000000	74.000000
390.757861	390.849512	76.000000	83.000000
390.849512	390.939407	79.000000	77.000000
390.939407	391.029583	84.000000	77.000000
391.029583	391.122615	88.000000	83.000000
391.122615	391.218866	91.000000	79.000000
391.218866	391.318685	96.000000	79.000000
391.318685	391.425678	100.000000	86.000000
391.425678	391.539310	96.000000	82.000000
391.539310	391.652942	91.000000	82.000000
391.652942	392.883714	96.000000	102.000000
391.652942	392.883714	88.000000	91.000000
391.652942	392.883714	72.000000	79.000000
391.652942	392.883714	76.000000	79.000000
391.652942	392.883714	79.000000	88.000000
392.883714	394.114487	84.000000	99.000000
392.883714	394.114487	76.000000	88.000000
392.883714	394.114487	79.000000	89.000000
392.883714	394.114487	67.000000	72.000000
392.883714	394.114487	72.000000	81.000000
392.883714	394.114487	60.000000	72.000000
394.114487	395.345260	64.000000	88.000000
394.114487	395.345260	67.000000	89.000000
394.114487	395.345260	72.000000	99.000000
394.114487	395.345260	55.000000	72.000000
394.114487	395.345260	60.000000	81.000000
394.114487	395.345260	48.000000	72.000000
395.345260	396.656740	55.000000	85.000000
395.345260	396.656740	52.000000	84.000000
395.345260	396.656740	60.000000	95.000000
395.345260	396.656740	43.000000	72.000000
395.345260	396.656740	48.000000	81.000000
395.345260	396.656740	36.000000	72.000000
396.656740	399.279701	48.000000	104.000000
396.656740	399.279701	36.000000	86.000000
396.656740	399.279701	24.000000	78.000000
