# onset,offset,note,velocity
2.128173	2.646819	60.000000	35.000000
2.128173	2.646819	36.000000	27.000000
2.646819	2.783424	56.000000	31.000000
2.646819	2.783424	32.000000	25.000000
2.783424	4.452765	53.000000	28.000000
2.783424	4.452765	29.000000	22.000000
4.452765	4.930091	56.000000	35.000000
4.452765	4.930091	32.000000	27.000000
4.930091	5.037514	60.000000	30.000000
4.930091	5.037514	36.000000	24.000000
5.037514	5.565802	65.000000	35.000000
5.037514	5.565802	41.000000	27.000000
5.565802	6.033901	68.000000	35.000000
5.565802	6.033901	44.000000	27.000000
6.033901	6.135450	72.000000	30.000000
6.033901	6.135450	48.000000	24.000000
6.135450	6.694208	77.000000	35.000000
6.135450	6.694208	53.000000	27.000000
6.702375	7.258827	65.000000	33.000000
6.702375	7.258827	56.000000	26.000000
7.258827	8.186241	72.000000	35.000000
7.258827	8.384980	55.000000	26.000000
7.258827	8.384980	60.000000	26.000000
7.258827	8.384980	52.000000	26.000000
8.186241	8.335292	74.000000	33.000000
8.335292	8.384980	72.000000	31.000000
8.384980	8.442701	74.000000	32.000000
8.384980	9.480757	53.000000	26.000000
8.384980	9.480757	59.000000	26.000000
8.384980	9.480757	56.000000	26.000000
8.442701	8.500006	76.000000	28.000000
8.500006	8.556950	74.000000	32.000000
8.556950	8.613491	76.000000	28.000000
8.613491	8.669670	74.000000	32.000000
8.669670	8.725419	76.000000	29.000000
8.725419	8.781209	74.000000	32.000000
8.781209	8.837147	76.000000	28.000000
8.837147	8.893406	74.000000	31.000000
8.893406	8.949827	76.000000	29.000000
8.949827	9.006569	74.000000	27.000000
9.006569	9.063472	76.000000	32.000000
9.063472	9.154519	74.000000	27.000000
9.154519	9.259903	72.000000	28.000000
9.259903	9.365288	76.000000	31.000000
9.365288	9.480757	74.000000	28.000000
9.480757	9.942620	72.000000	35.000000
9.480757	9.942620	55.000000	22.000000
9.480757	9.942620	52.000000	19.000000
9.480757	9.942620	60.000000	26.000000
11.559121	12.057382	61.000000	35.000000
11.559121	12.057382	37.000000	27.000000
12.057382	12.193411	58.000000	31.000000
12.057382	12.193411	34.000000	25.000000
12.193411	13.881983	54.000000	28.000000
12.193411	13.881983	30.000000	22.000000
13.881983	14.371004	58.000000	35.000000
13.881983	14.371004	34.000000	27.000000
14.371004	14.478426	61.000000	30.000000
14.371004	14.478426	37.000000	24.000000
14.478426	15.006714	66.000000	35.000000
14.478426	15.006714	42.000000	27.000000
15.006714	15.472373	70.000000	35.000000
15.006714	15.472373	46.000000	27.000000
15.472373	15.573922	73.000000	30.000000
15.472373	15.573922	49.000000	24.000000
15.573922	16.140834	78.000000	34.000000
15.573922	16.140834	54.000000	29.000000
16.140834	16.697285	66.000000	33.000000
16.140834	16.697285	58.000000	26.000000
16.697285	17.624700	73.000000	35.000000
16.697285	17.821373	53.000000	26.000000
16.697285	17.821373	61.000000	26.000000
16.697285	17.821373	56.000000	26.000000
17.624700	17.773750	75.000000	32.000000
17.773750	17.821373	73.000000	31.000000
17.821373	17.880234	75.000000	30.000000
17.821373	18.921213	57.000000	26.000000
17.821373	18.921213	60.000000	26.000000
17.821373	18.921213	54.000000	26.000000
17.880234	17.938465	77.000000	27.000000
17.938465	17.996146	75.000000	30.000000
17.996146	18.053210	77.000000	27.000000
18.053210	18.109751	75.000000	30.000000
18.109751	18.165702	77.000000	27.000000
18.165702	18.221290	75.000000	29.000000
18.221290	18.276919	77.000000	27.000000
18.276919	18.332857	75.000000	29.000000
18.332857	18.389036	77.000000	28.000000
18.389036	18.445456	75.000000	30.000000
18.445456	18.502896	77.000000	28.000000
18.502896	18.594976	75.000000	26.000000
18.594976	18.700360	73.000000	28.000000
18.700360	18.805744	77.000000	31.000000
18.805744	18.921213	75.000000	29.000000
18.921213	19.293746	73.000000	35.000000
18.921213	19.293746	53.000000	19.000000
18.921213	19.293746	56.000000	22.000000
18.921213	19.293746	61.000000	26.000000
21.156407	22.082453	72.000000	35.000000
21.156407	22.281192	67.000000	26.000000
21.156407	22.281192	64.000000	26.000000
22.082453	22.231504	74.000000	42.000000
22.231504	22.281192	72.000000	38.000000
22.281192	22.337693	74.000000	43.000000
22.281192	23.372932	68.000000	26.000000
22.281192	23.372932	71.000000	26.000000
22.281192	23.372932	65.000000	26.000000
22.337693	22.394032	76.000000	35.000000
22.394032	22.450131	74.000000	40.000000
22.450131	22.506068	76.000000	36.000000
22.506068	22.561778	74.000000	39.000000
22.561778	22.617259	76.000000	36.000000
22.617259	22.672741	74.000000	41.000000
22.672741	22.728450	76.000000	37.000000
22.728450	22.784388	74.000000	40.000000
22.784388	22.840567	76.000000	35.000000
22.840567	22.896987	74.000000	31.000000
22.896987	22.954628	76.000000	37.000000
22.954628	23.046695	74.000000	33.000000
23.046695	23.152079	72.000000	33.000000
23.152079	23.257463	76.000000	37.000000
23.257463	23.372932	74.000000	33.000000
23.372932	23.718012	72.000000	35.000000
23.372932	23.718012	64.000000	22.000000
23.372932	23.718012	67.000000	26.000000
23.890559	23.986367	37.000000	27.000000
24.080405	24.175637	37.000000	26.000000
24.270869	24.367335	37.000000	26.000000
24.463801	24.650067	36.000000	26.000000
25.581397	26.507444	76.000000	35.000000
25.581397	26.705391	67.000000	26.000000
25.581397	26.705391	73.000000	26.000000
25.581397	26.705391	70.000000	26.000000
26.507444	26.705391	77.000000	38.000000
26.705391	26.761101	77.000000	39.000000
26.705391	27.778973	70.000000	26.000000
26.705391	27.778973	73.000000	26.000000
26.705391	27.778973	68.000000	26.000000
26.761101	26.816663	79.000000	34.000000
26.816663	26.872064	77.000000	39.000000
26.872064	26.927317	79.000000	35.000000
26.927317	26.982410	77.000000	39.000000
26.982410	27.037355	79.000000	35.000000
27.037355	27.092153	77.000000	39.000000
27.092153	27.147098	79.000000	35.000000
27.147098	27.202271	77.000000	39.000000
27.202271	27.257591	79.000000	36.000000
27.257591	27.313073	77.000000	33.000000
27.313073	27.368782	79.000000	39.000000
27.368782	27.452736	77.000000	33.000000
27.452736	27.558120	76.000000	34.000000
27.558120	27.663504	79.000000	40.000000
27.663504	27.778973	77.000000	35.000000
27.778973	28.124978	76.000000	35.000000
27.778973	28.124978	67.000000	22.000000
27.778973	28.124978	70.000000	22.000000
27.778973	28.124978	73.000000	26.000000
28.297981	28.392622	37.000000	27.000000
28.487264	28.582805	37.000000	26.000000
28.678345	28.775428	37.000000	26.000000
28.872510	29.058240	36.000000	26.000000
29.429713	29.676194	76.000000	35.000000
29.429713	29.676194	79.000000	35.000000
29.676194	29.922676	79.000000	31.000000
29.676194	29.922676	76.000000	31.000000
29.922676	30.190267	76.000000	35.000000
29.922676	30.190267	79.000000	35.000000
30.190267	30.636359	79.000000	35.000000
30.190267	30.636359	82.000000	35.000000
30.859411	31.124856	37.000000	27.000000
31.124856	31.403873	37.000000	26.000000
31.403873	31.706024	37.000000	26.000000
31.706024	32.302293	36.000000	26.000000
32.596411	32.834511	82.000000	83.000000
32.596411	32.834511	79.000000	83.000000
32.834511	33.083474	82.000000	77.000000
32.834511	33.083474	79.000000	77.000000
33.083474	33.345486	79.000000	83.000000
33.083474	33.345486	82.000000	83.000000
33.345486	33.428352	88.000000	85.000000
33.428352	33.511152	82.000000	76.000000
33.511152	33.593791	91.000000	85.000000
33.593791	33.676202	88.000000	75.000000
33.676202	33.758546	94.000000	85.000000
33.758546	33.840742	91.000000	76.000000
33.840742	33.922711	88.000000	85.000000
33.922711	34.004599	91.000000	76.000000
34.004599	34.086339	82.000000	83.000000
34.086339	34.167865	88.000000	75.000000
34.167865	34.249310	79.000000	83.000000
34.249310	34.330621	82.000000	74.000000
34.330621	34.411705	76.000000	81.000000
34.411705	34.492788	79.000000	74.000000
34.492788	34.573871	70.000000	81.000000
34.573871	34.654954	76.000000	71.000000
34.654954	34.736038	67.000000	80.000000
34.736038	34.817121	70.000000	73.000000
34.817121	34.898204	64.000000	80.000000
34.898204	34.979287	67.000000	70.000000
34.979287	35.060370	58.000000	79.000000
35.060370	35.141454	64.000000	71.000000
35.141454	35.222537	55.000000	75.000000
35.222537	35.303620	58.000000	63.000000
35.303620	35.384770	52.000000	75.000000
35.384770	35.466216	55.000000	64.000000
35.466216	35.551443	46.000000	75.000000
35.551443	35.649800	52.000000	60.000000
35.649800	35.732211	31.000000	73.000000
35.732211	35.814850	34.000000	67.000000
35.814850	35.897797	40.000000	77.000000
35.897797	35.981053	43.000000	67.000000
35.981053	36.064537	46.000000	77.000000
36.064537	36.148409	49.000000	67.000000
36.148409	36.232604	52.000000	82.000000
36.232604	36.317026	55.000000	73.000000
36.317026	36.487749	58.000000	89.000000
36.977548	37.222447	41.000000	72.000000
36.977548	37.222447	29.000000	72.000000
36.977548	37.222447	56.000000	86.000000
36.977548	37.222447	61.000000	86.000000
36.977548	37.222447	49.000000	86.000000
37.864166	40.250529	40.000000	40.000000
37.864166	40.250529	52.000000	48.000000
37.864166	40.250529	48.000000	40.000000
37.864166	40.250529	60.000000	48.000000
37.864166	40.250529	55.000000	48.000000
40.318711	40.855783	60.000000	35.000000
40.318711	40.855783	36.000000	27.000000
40.855783	40.951323	56.000000	31.000000
40.855783	40.951323	32.000000	25.000000
40.951323	41.175207	53.000000	103.000000
40.951323	41.175207	29.000000	81.000000
41.175207	41.502196	60.000000	85.000000
41.175207	41.502196	65.000000	101.000000
41.175207	41.502196	56.000000	75.000000
41.175207	41.502196	53.000000	75.000000
41.338702	41.665690	32.000000	61.000000
41.338702	41.665690	29.000000	61.000000
41.338702	41.665690	41.000000	81.000000
41.338702	41.665690	36.000000	69.000000
41.502196	41.829184	60.000000	72.000000
41.502196	41.829184	56.000000	72.000000
41.502196	41.829184	65.000000	81.000000
41.502196	41.829184	68.000000	96.000000
41.665690	41.992665	32.000000	57.000000
41.665690	41.992665	36.000000	64.000000
41.665690	41.992665	41.000000	76.000000
41.665690	41.992665	29.000000	57.000000
41.829184	42.156159	60.000000	71.000000
41.829184	42.156159	72.000000	96.000000
41.829184	42.156159	65.000000	71.000000
41.829184	42.156159	68.000000	79.000000
41.992665	42.319653	32.000000	55.000000
41.992665	42.319653	36.000000	63.000000
41.992665	42.319653	41.000000	73.000000
41.992665	42.319653	29.000000	55.000000
42.156159	42.483147	72.000000	80.000000
42.156159	42.483147	77.000000	95.000000
42.156159	42.483147	65.000000	72.000000
42.156159	42.483147	68.000000	72.000000
42.319653	42.646641	32.000000	61.000000
42.319653	42.646641	29.000000	61.000000
42.319653	42.646641	41.000000	81.000000
42.319653	42.646641	36.000000	69.000000
42.483147	42.810136	77.000000	86.000000
42.483147	42.810136	68.000000	76.000000
42.483147	42.810136	72.000000	76.000000
42.483147	42.810136	80.000000	103.000000
42.646641	42.988704	32.000000	55.000000
42.646641	42.988704	36.000000	63.000000
42.646641	42.988704	41.000000	73.000000
42.646641	42.988704	29.000000	55.000000
42.810136	42.988704	77.000000	78.000000
42.810136	42.988704	84.000000	94.000000
42.810136	42.988704	80.000000	78.000000
42.810136	42.988704	72.000000	71.000000
42.988704	44.595844	89.000000	103.000000
42.988704	44.595844	77.000000	76.000000
42.988704	44.595844	84.000000	86.000000
42.988704	44.595844	80.000000	86.000000
42.988704	44.595844	29.000000	61.000000
42.988704	44.595844	36.000000	69.000000
42.988704	44.595844	41.000000	81.000000
42.988704	44.595844	32.000000	61.000000
44.595844	45.039924	56.000000	41.000000
44.595844	45.039924	32.000000	33.000000
45.039924	45.138228	60.000000	35.000000
45.039924	45.138228	36.000000	28.000000
45.138228	45.621709	65.000000	39.000000
45.138228	45.621709	41.000000	33.000000
45.621709	46.050085	68.000000	41.000000
45.621709	46.050085	44.000000	33.000000
46.050085	46.143010	72.000000	36.000000
46.050085	46.143010	48.000000	28.000000
46.143010	46.658089	77.000000	39.000000
46.143010	46.658089	53.000000	33.000000
46.661831	47.187665	65.000000	39.000000
46.661831	47.187665	41.000000	30.000000
47.187665	47.411549	60.000000	103.000000
47.187665	47.411549	55.000000	81.000000
47.187665	47.411549	52.000000	81.000000
47.411549	47.738537	60.000000	85.000000
47.411549	47.738537	64.000000	101.000000
47.411549	47.738537	55.000000	75.000000
47.575043	47.902031	43.000000	69.000000
47.575043	47.902031	48.000000	81.000000
47.575043	47.902031	40.000000	61.000000
47.738537	48.065525	64.000000	81.000000
47.738537	48.065525	67.000000	96.000000
47.738537	48.065525	60.000000	72.000000
47.902031	48.229006	40.000000	57.000000
47.902031	48.229006	48.000000	76.000000
47.902031	48.229006	43.000000	64.000000
48.065525	48.392500	72.000000	96.000000
48.065525	48.392500	64.000000	71.000000
48.065525	48.392500	67.000000	79.000000
48.229006	48.555994	43.000000	63.000000
48.229006	48.555994	40.000000	55.000000
48.229006	48.555994	48.000000	73.000000
48.392500	48.719489	76.000000	95.000000
48.392500	48.719489	67.000000	72.000000
48.392500	48.719489	72.000000	80.000000
48.555994	48.882983	40.000000	61.000000
48.555994	48.882983	48.000000	81.000000
48.555994	48.882983	43.000000	69.000000
48.719489	49.046477	79.000000	103.000000
48.719489	49.046477	72.000000	76.000000
48.719489	49.046477	76.000000	86.000000
48.882983	49.349500	43.000000	63.000000
48.882983	49.349500	48.000000	73.000000
48.882983	49.349500	40.000000	55.000000
49.046477	49.349500	84.000000	94.000000
49.046477	49.349500	76.000000	78.000000
49.046477	49.349500	79.000000	78.000000
49.349500	50.196944	72.000000	41.000000
49.349500	50.378838	67.000000	30.000000
49.349500	50.378838	64.000000	30.000000
50.196944	50.378838	74.000000	45.000000
50.378838	50.435795	74.000000	39.000000
50.378838	51.443180	68.000000	30.000000
50.378838	51.443180	71.000000	30.000000
50.378838	51.443180	65.000000	30.000000
50.435795	50.520861	76.000000	35.000000
50.492564	50.549159	74.000000	39.000000
50.549159	50.605552	76.000000	36.000000
50.605552	50.661758	74.000000	38.000000
50.661758	50.717776	76.000000	36.000000
50.717776	50.773566	74.000000	38.000000
50.773566	50.829047	76.000000	36.000000
50.829047	50.885213	74.000000	39.000000
50.885213	50.941942	76.000000	37.000000
50.941942	50.999247	74.000000	35.000000
50.999247	51.057129	76.000000	39.000000
51.057129	51.144623	74.000000	35.000000
51.144623	51.241075	72.000000	36.000000
51.241075	51.337527	76.000000	41.000000
51.337527	51.443180	74.000000	38.000000
51.443180	51.667064	60.000000	103.000000
51.443180	51.667064	55.000000	81.000000
51.443180	51.667064	52.000000	81.000000
51.667064	51.994052	60.000000	85.000000
51.667064	51.994052	64.000000	101.000000
51.667064	51.994052	55.000000	75.000000
51.830558	52.157546	43.000000	69.000000
51.830558	52.157546	48.000000	81.000000
51.830558	52.157546	40.000000	61.000000
51.994052	52.321040	60.000000	72.000000
51.994052	52.321040	64.000000	81.000000
51.994052	52.321040	67.000000	96.000000
52.157546	52.484521	40.000000	57.000000
52.157546	52.484521	48.000000	76.000000
52.157546	52.484521	43.000000	64.000000
52.321040	52.648015	64.000000	71.000000
52.321040	52.648015	67.000000	79.000000
52.321040	52.648015	72.000000	96.000000
52.484521	52.811509	43.000000	63.000000
52.484521	52.811509	40.000000	55.000000
52.484521	52.811509	48.000000	73.000000
52.648015	52.975004	67.000000	72.000000
52.648015	52.975004	72.000000	80.000000
52.648015	52.975004	76.000000	95.000000
52.811509	53.138498	40.000000	61.000000
52.811509	53.138498	48.000000	81.000000
52.811509	53.138498	43.000000	69.000000
52.975004	53.301992	72.000000	76.000000
52.975004	53.301992	76.000000	86.000000
52.975004	53.301992	79.000000	103.000000
53.138498	53.603499	43.000000	63.000000
53.138498	53.603499	48.000000	73.000000
53.138498	53.603499	40.000000	55.000000
53.301992	53.603499	76.000000	78.000000
53.301992	53.603499	84.000000	94.000000
53.301992	53.603499	79.000000	78.000000
53.603499	54.450944	72.000000	48.000000
53.603499	54.632838	67.000000	36.000000
53.603499	54.632838	64.000000	36.000000
54.450944	54.587361	73.000000	52.000000
54.587361	54.632838	72.000000	48.000000
54.632838	54.689795	73.000000	46.000000
54.632838	55.861103	67.000000	36.000000
54.632838	55.861103	63.000000	36.000000
54.689795	54.746564	75.000000	41.000000
54.746564	54.803145	73.000000	46.000000
54.803145	54.859538	75.000000	41.000000
54.859538	54.915744	73.000000	44.000000
54.915744	54.971762	75.000000	41.000000
54.971762	55.027552	73.000000	46.000000
55.027552	55.083034	75.000000	42.000000
55.083034	55.139199	73.000000	46.000000
55.139199	55.224507	75.000000	43.000000
55.224507	55.311115	73.000000	40.000000
55.311115	55.398609	75.000000	46.000000
55.398609	55.495061	73.000000	42.000000
55.495061	55.591514	72.000000	48.000000
55.591514	55.697166	73.000000	44.000000
55.697166	56.186294	79.000000	58.000000
55.697166	56.186294	82.000000	58.000000
55.861103	56.010153	75.000000	36.000000
56.023698	56.172749	75.000000	36.000000
56.186294	56.336565	75.000000	39.000000
56.350231	56.500501	75.000000	37.000000
56.514167	56.664438	75.000000	36.000000
56.678104	56.828375	75.000000	39.000000
56.842041	56.991091	75.000000	35.000000
57.004636	57.153687	75.000000	35.000000
57.167232	57.317503	75.000000	39.000000
57.331169	57.481440	75.000000	36.000000
57.495105	57.645376	75.000000	36.000000
57.659042	58.146427	83.000000	56.000000
57.659042	58.146427	80.000000	56.000000
57.822979	57.971225	75.000000	38.000000
57.984703	58.132949	75.000000	38.000000
58.146427	58.310363	71.000000	39.000000
58.146427	58.310363	68.000000	39.000000
58.310363	58.460634	75.000000	37.000000
58.474300	58.624571	75.000000	37.000000
58.638237	58.788508	75.000000	41.000000
58.802174	58.951224	75.000000	37.000000
58.964769	59.113820	75.000000	38.000000
59.127365	59.277636	75.000000	46.000000
59.291302	59.441572	75.000000	40.000000
59.455238	59.605509	75.000000	40.000000
59.619175	61.579710	88.000000	75.000000
59.619175	61.579710	80.000000	75.000000
59.619175	61.579710	83.000000	75.000000
59.783112	59.932162	75.000000	38.000000
59.945707	60.094758	75.000000	38.000000
60.108303	60.270899	68.000000	40.000000
60.108303	60.270899	71.000000	40.000000
60.270899	60.419949	75.000000	37.000000
60.433494	60.582545	75.000000	37.000000
60.596090	60.760026	68.000000	37.000000
60.596090	60.760026	71.000000	37.000000
60.760026	60.910297	75.000000	37.000000
60.923963	61.074234	75.000000	37.000000
61.087900	61.251837	68.000000	37.000000
61.087900	61.251837	71.000000	37.000000
61.251837	61.402108	75.000000	37.000000
61.415773	61.566044	75.000000	37.000000
61.579710	61.906685	82.000000	52.000000
61.579710	61.906685	87.000000	52.000000
61.579710	61.906685	79.000000	52.000000
61.579710	61.743647	67.000000	39.000000
61.579710	61.743647	70.000000	39.000000
61.743647	61.893100	63.000000	37.000000
61.906685	62.056138	63.000000	37.000000
62.069723	62.219994	63.000000	38.000000
62.233660	62.383931	63.000000	37.000000
62.397597	62.547867	63.000000	37.000000
62.561533	62.711804	63.000000	37.000000
62.725470	62.874521	63.000000	37.000000
62.888066	63.037116	63.000000	37.000000
63.050661	63.453959	79.000000	56.000000
63.050661	63.453959	82.000000	56.000000
63.050661	63.200932	63.000000	38.000000
63.214598	63.360872	63.000000	37.000000
63.374176	63.536463	63.000000	37.000000
63.453959	63.552959	82.000000	52.000000
63.453959	63.552959	79.000000	52.000000
63.552959	63.880832	83.000000	58.000000
63.552959	63.880832	80.000000	58.000000
63.552959	63.703230	63.000000	39.000000
63.716896	63.867166	63.000000	37.000000
63.880832	64.041698	79.000000	52.000000
63.880832	64.041698	82.000000	52.000000
63.880832	64.028287	63.000000	37.000000
64.041698	64.189152	63.000000	38.000000
64.202564	64.350018	63.000000	37.000000
64.363429	64.527366	70.000000	50.000000
64.363429	64.527366	67.000000	50.000000
64.363429	64.513700	63.000000	37.000000
64.527366	64.676416	63.000000	38.000000
64.689961	64.839012	63.000000	39.000000
64.852557	65.015153	58.000000	49.000000
64.852557	65.015153	55.000000	49.000000
64.852557	65.001608	63.000000	37.000000
65.015153	65.177748	58.000000	44.000000
65.015153	65.177748	61.000000	44.000000
65.177748	65.328435	63.000000	37.000000
65.342128	65.498098	63.000000	37.000000
65.422339	65.514433	79.000000	58.000000
65.422339	65.514433	82.000000	58.000000
65.514433	65.842306	85.000000	61.000000
65.514433	65.842306	82.000000	61.000000
65.514433	65.664704	63.000000	39.000000
65.678370	65.828640	63.000000	37.000000
65.842306	66.003588	83.000000	52.000000
65.842306	66.003588	80.000000	52.000000
65.842306	65.990150	63.000000	37.000000
66.003588	66.151431	63.000000	37.000000
66.164869	66.312712	63.000000	37.000000
66.326150	66.490087	71.000000	49.000000
66.326150	66.490087	68.000000	49.000000
66.326150	66.476421	63.000000	37.000000
66.490087	66.640358	63.000000	38.000000
66.654024	66.802672	63.000000	37.000000
66.816190	66.974977	59.000000	47.000000
66.816190	66.974977	56.000000	47.000000
66.816190	66.964838	63.000000	37.000000
66.978357	67.140523	59.000000	48.000000
66.978357	67.140523	56.000000	44.000000
67.140523	67.291210	63.000000	37.000000
67.304902	67.471843	63.000000	37.000000
67.387099	67.488795	80.000000	52.000000
67.387099	67.488795	83.000000	52.000000
67.488795	69.453353	80.000000	75.000000
67.488795	69.453353	88.000000	75.000000
67.488795	69.453353	83.000000	75.000000
67.652731	67.801782	63.000000	38.000000
67.815327	67.964378	63.000000	38.000000
67.977923	68.141859	56.000000	40.000000
67.977923	68.141859	59.000000	40.000000
68.141859	68.292130	63.000000	37.000000
68.305796	68.456067	63.000000	37.000000
68.469733	68.633670	59.000000	37.000000
68.469733	68.633670	56.000000	37.000000
68.633670	68.783940	63.000000	37.000000
68.797606	68.947877	63.000000	37.000000
68.961543	69.125480	59.000000	36.000000
68.961543	69.125480	56.000000	36.000000
69.125480	69.275751	63.000000	37.000000
69.289416	69.439687	63.000000	37.000000
69.453353	69.779886	79.000000	61.000000
69.453353	69.779886	87.000000	61.000000
69.453353	69.779886	82.000000	61.000000
69.617290	69.766340	63.000000	38.000000
69.779886	69.928936	63.000000	38.000000
69.942481	70.106418	58.000000	40.000000
69.942481	70.106418	55.000000	40.000000
70.106418	70.256689	63.000000	37.000000
70.270355	70.420625	63.000000	37.000000
70.434291	71.415229	75.000000	52.000000
70.434291	71.415229	66.000000	52.000000
70.434291	71.415229	69.000000	52.000000
70.598228	70.747278	63.000000	37.000000
70.760824	70.909874	63.000000	37.000000
70.923419	71.087356	54.000000	36.000000
70.923419	71.087356	57.000000	36.000000
71.087356	71.237627	63.000000	37.000000
71.251293	71.401564	63.000000	37.000000
71.415229	71.745812	74.000000	52.000000
71.415229	71.745812	65.000000	52.000000
71.415229	71.745812	68.000000	52.000000
71.581433	71.732119	63.000000	37.000000
71.745812	71.896499	63.000000	36.000000
71.910191	72.076864	56.000000	38.000000
71.910191	72.076864	53.000000	38.000000
72.076864	72.229642	63.000000	34.000000
72.243536	72.396315	63.000000	34.000000
72.410209	72.742642	73.000000	46.000000
72.410209	72.742642	64.000000	46.000000
72.410209	72.742642	67.000000	46.000000
72.577807	72.728909	63.000000	32.000000
72.742642	72.893744	63.000000	32.000000
72.907477	73.072313	52.000000	30.000000
72.907477	73.072313	55.000000	30.000000
73.072313	73.223415	63.000000	31.000000
73.237148	73.395653	63.000000	30.000000
73.410057	73.913320	73.000000	41.000000
73.410057	73.913320	63.000000	41.000000
73.410057	73.913320	67.000000	41.000000
73.577655	73.731292	51.000000	25.000000
73.745253	73.899319	51.000000	26.000000
73.913320	74.067386	51.000000	28.000000
74.081387	74.235883	51.000000	26.000000
74.249924	74.404419	51.000000	26.000000
74.418461	74.573385	51.000000	28.000000
74.587467	74.742391	51.000000	26.000000
74.756473	74.911840	51.000000	26.000000
74.925962	75.081329	51.000000	28.000000
75.095451	75.251260	51.000000	26.000000
75.265422	75.421232	51.000000	27.000000
75.435394	75.955636	58.000000	41.000000
75.435394	75.955636	61.000000	41.000000
75.435394	75.955636	55.000000	41.000000
75.614405	75.770657	39.000000	25.000000
75.784859	75.941393	39.000000	26.000000
75.955636	76.112371	39.000000	28.000000
76.126653	76.283791	39.000000	26.000000
76.298073	76.455506	39.000000	26.000000
76.469829	76.627462	39.000000	28.000000
76.641826	76.800572	39.000000	26.000000
76.815070	76.975506	39.000000	26.000000
76.990164	77.152277	39.000000	28.000000
77.167069	77.330939	39.000000	26.000000
77.345906	77.511573	39.000000	27.000000
77.526727	77.717660	32.000000	28.000000
77.717660	77.899273	44.000000	25.000000
77.717660	77.899273	36.000000	20.000000
77.717660	77.899273	39.000000	20.000000
77.899273	78.080885	32.000000	26.000000
78.080885	78.262498	44.000000	28.000000
78.080885	78.262498	36.000000	22.000000
78.080885	78.262498	39.000000	22.000000
78.262498	78.444110	32.000000	26.000000
78.444110	78.625723	44.000000	26.000000
78.444110	78.625723	36.000000	20.000000
78.444110	78.625723	39.000000	20.000000
78.625723	78.807335	32.000000	28.000000
78.807335	78.988948	44.000000	26.000000
78.807335	78.988948	39.000000	20.000000
78.807335	78.988948	36.000000	20.000000
78.988948	79.170560	32.000000	26.000000
79.170560	79.638579	60.000000	44.000000
79.170560	79.352173	36.000000	22.000000
79.170560	79.638579	48.000000	40.000000
79.170560	79.352173	44.000000	28.000000
79.170560	79.352173	39.000000	22.000000
79.352173	79.543106	32.000000	26.000000
79.543106	79.759654	36.000000	21.000000
79.543106	79.759654	39.000000	21.000000
79.543106	79.759654	44.000000	27.000000
79.638579	79.759654	63.000000	40.000000
79.638579	79.759654	51.000000	37.000000
79.759654	80.274505	56.000000	38.000000
79.759654	80.274505	68.000000	41.000000
79.759654	79.931047	32.000000	28.000000
79.931047	80.102776	44.000000	25.000000
79.931047	80.102776	36.000000	20.000000
79.931047	80.102776	39.000000	20.000000
80.102776	80.274505	32.000000	26.000000
80.274505	80.730145	72.000000	44.000000
80.274505	80.730145	60.000000	40.000000
80.274505	80.454561	44.000000	28.000000
80.274505	80.454561	36.000000	22.000000
80.274505	80.454561	39.000000	22.000000
80.454561	80.638279	32.000000	26.000000
80.638279	80.835127	36.000000	20.000000
80.638279	80.835127	39.000000	20.000000
80.638279	80.835127	44.000000	26.000000
80.730145	80.835127	56.000000	36.000000
80.730145	80.835127	68.000000	39.000000
80.835127	81.366111	67.000000	41.000000
80.835127	81.366111	55.000000	38.000000
80.835127	81.016002	34.000000	28.000000
81.016002	81.191056	46.000000	26.000000
81.016002	81.191056	39.000000	20.000000
81.016002	81.191056	37.000000	20.000000
81.191056	81.366111	34.000000	26.000000
81.366111	81.825976	58.000000	40.000000
81.366111	81.825976	70.000000	44.000000
81.366111	81.544639	39.000000	22.000000
81.366111	81.544639	46.000000	28.000000
81.366111	81.544639	37.000000	22.000000
81.544639	81.732192	34.000000	26.000000
81.732192	81.938830	37.000000	21.000000
81.732192	81.938830	46.000000	27.000000
81.732192	81.938830	39.000000	21.000000
81.825976	81.938830	55.000000	36.000000
81.825976	81.938830	67.000000	39.000000
81.938830	82.454015	68.000000	41.000000
81.938830	82.454015	56.000000	38.000000
81.938830	82.110558	36.000000	28.000000
82.110558	82.282287	39.000000	20.000000
82.110558	82.282287	44.000000	20.000000
82.110558	82.282287	48.000000	25.000000
82.282287	82.454015	36.000000	26.000000
82.454015	83.513194	63.000000	40.000000
82.454015	82.630545	39.000000	22.000000
82.454015	83.513194	51.000000	40.000000
82.454015	82.630545	44.000000	22.000000
82.454015	82.630545	48.000000	28.000000
82.630545	82.807075	36.000000	26.000000
82.807075	82.983604	44.000000	20.000000
82.807075	82.983604	48.000000	26.000000
82.807075	82.983604	39.000000	20.000000
82.983604	83.160134	36.000000	28.000000
83.160134	83.336664	39.000000	20.000000
83.160134	83.336664	44.000000	20.000000
83.160134	83.336664	48.000000	26.000000
83.336664	83.513194	36.000000	26.000000
83.513194	83.971060	65.000000	44.000000
83.513194	83.971060	53.000000	40.000000
83.513194	83.689723	44.000000	28.000000
83.689723	83.877277	37.000000	26.000000
83.877277	84.083525	44.000000	27.000000
83.971060	84.083525	61.000000	40.000000
83.971060	84.083525	49.000000	37.000000
84.083525	84.597343	60.000000	44.000000
84.083525	84.597343	48.000000	40.000000
84.083525	84.254798	39.000000	28.000000
84.254798	84.426071	44.000000	25.000000
84.426071	84.597343	39.000000	26.000000
84.597343	85.054285	63.000000	44.000000
84.597343	84.777910	44.000000	28.000000
84.597343	85.054285	51.000000	40.000000
84.777910	84.962164	39.000000	25.000000
84.962164	85.159266	44.000000	25.000000
85.054285	85.159266	60.000000	39.000000
85.054285	85.159266	48.000000	36.000000
85.159266	85.690264	58.000000	44.000000
85.159266	85.690264	46.000000	40.000000
85.159266	85.340155	39.000000	28.000000
85.340155	85.515209	43.000000	25.000000
85.515209	85.690264	39.000000	25.000000
85.690264	86.156941	63.000000	44.000000
85.690264	86.156941	51.000000	40.000000
85.690264	85.868792	43.000000	28.000000
85.868792	86.060891	39.000000	25.000000
86.060891	86.274851	43.000000	25.000000
86.156941	86.274851	61.000000	39.000000
86.156941	86.274851	49.000000	36.000000
86.274851	86.826019	60.000000	42.000000
86.274851	86.458583	44.000000	28.000000
86.458583	86.642301	56.000000	25.000000
86.458583	86.642301	48.000000	20.000000
86.458583	86.642301	51.000000	20.000000
86.642301	86.826019	44.000000	27.000000
86.826019	87.903302	63.000000	42.000000
86.826019	87.005566	56.000000	29.000000
86.826019	87.005566	48.000000	23.000000
86.826019	87.005566	51.000000	23.000000
87.005566	87.185113	44.000000	28.000000
87.185113	87.364660	56.000000	29.000000
87.185113	87.364660	48.000000	22.000000
87.185113	87.364660	51.000000	22.000000
87.364660	87.544208	44.000000	32.000000
87.544208	87.723755	56.000000	31.000000
87.544208	87.723755	51.000000	24.000000
87.544208	87.723755	48.000000	24.000000
87.723755	87.903302	44.000000	31.000000
87.903302	88.364186	72.000000	55.000000
87.903302	88.082849	48.000000	27.000000
87.903302	88.082849	51.000000	27.000000
87.903302	88.082849	56.000000	35.000000
87.903302	88.364186	60.000000	51.000000
88.082849	88.270403	44.000000	33.000000
88.270403	88.485717	48.000000	27.000000
88.270403	88.485717	51.000000	27.000000
88.270403	88.485717	56.000000	34.000000
88.364186	88.485717	75.000000	53.000000
88.364186	88.485717	63.000000	49.000000
88.485717	89.016795	80.000000	56.000000
88.485717	89.016795	68.000000	51.000000
88.485717	88.662743	44.000000	37.000000
88.662743	88.839769	56.000000	34.000000
88.662743	88.839769	51.000000	27.000000
88.662743	88.839769	48.000000	27.000000
88.839769	89.016795	44.000000	36.000000
89.016795	89.468010	72.000000	57.000000
89.016795	89.468010	84.000000	62.000000
89.016795	89.195591	56.000000	39.000000
89.016795	89.195591	51.000000	30.000000
89.016795	89.195591	48.000000	30.000000
89.195591	89.377204	44.000000	37.000000
89.377204	89.572992	48.000000	29.000000
89.377204	89.572992	56.000000	38.000000
89.377204	89.572992	51.000000	29.000000
89.468010	89.572992	80.000000	58.000000
89.468010	89.572992	68.000000	53.000000
89.572992	90.103989	67.000000	57.000000
89.572992	90.103989	79.000000	61.000000
89.572992	89.753880	46.000000	40.000000
89.753880	89.928934	58.000000	38.000000
89.753880	89.928934	51.000000	29.000000
89.753880	89.928934	49.000000	29.000000
89.928934	90.103989	46.000000	39.000000
90.103989	90.568508	70.000000	62.000000
90.103989	90.568508	82.000000	68.000000
90.103989	90.287170	51.000000	34.000000
90.103989	90.287170	58.000000	42.000000
90.103989	90.287170	49.000000	34.000000
90.287170	90.474724	46.000000	40.000000
90.474724	90.704254	49.000000	33.000000
90.474724	90.704254	58.000000	42.000000
90.474724	90.704254	51.000000	33.000000
90.568508	90.704254	79.000000	63.000000
90.568508	90.704254	67.000000	58.000000
90.704254	91.242882	68.000000	51.000000
90.704254	91.242882	80.000000	57.000000
90.704254	92.805471	60.000000	36.000000
90.704254	92.805471	51.000000	28.000000
90.704254	92.805471	48.000000	28.000000
90.704254	92.805471	56.000000	36.000000
91.242882	92.805471	63.000000	45.000000
91.242882	92.805471	75.000000	52.000000
92.805471	93.349263	76.000000	85.000000
92.805471	93.349263	64.000000	72.000000
92.805471	93.349263	56.000000	59.000000
92.805471	94.828717	49.000000	50.000000
92.805471	94.828717	52.000000	50.000000
93.349263	94.828717	61.000000	69.000000
93.349263	94.828717	73.000000	81.000000
93.349263	94.828717	57.000000	57.000000
94.828717	96.332887	71.000000	58.000000
94.828717	96.875243	56.000000	36.000000
94.828717	96.875243	51.000000	28.000000
94.828717	96.875243	59.000000	36.000000
96.332887	96.678704	70.000000	51.000000
96.678704	96.827218	68.000000	49.000000
96.827218	96.875243	69.000000	38.000000
96.875243	96.964923	71.000000	44.000000
96.875243	98.946768	55.000000	31.000000
96.875243	98.946768	61.000000	31.000000
96.875243	98.946768	51.000000	25.000000
96.964923	97.053812	70.000000	38.000000
97.053812	97.141024	71.000000	46.000000
97.141024	97.229268	70.000000	40.000000
97.229268	97.317151	71.000000	47.000000
97.317151	97.403357	70.000000	40.000000
97.403357	97.489228	71.000000	48.000000
97.489228	97.574134	70.000000	41.000000
97.574134	97.659401	71.000000	49.000000
97.659401	97.743649	70.000000	42.000000
97.743649	97.828662	71.000000	50.000000
97.828662	97.913608	70.000000	42.000000
97.913608	97.998634	71.000000	51.000000
97.998634	98.083982	70.000000	44.000000
98.083982	98.169410	71.000000	51.000000
98.169410	98.254798	70.000000	45.000000
98.254798	98.340723	71.000000	52.000000
98.340723	98.425950	70.000000	46.000000
98.425950	98.512478	71.000000	53.000000
98.512478	98.598443	70.000000	48.000000
98.598443	98.684569	71.000000	55.000000
98.684569	98.771271	70.000000	48.000000
98.771271	98.858778	71.000000	56.000000
98.858778	98.946768	70.000000	48.000000
98.946768	99.045326	76.000000	46.000000
99.045326	99.131854	75.000000	39.000000
99.131854	99.218007	76.000000	46.000000
99.218007	99.304200	75.000000	40.000000
99.304200	99.389320	76.000000	48.000000
99.389320	99.474212	75.000000	41.000000
99.474212	99.559224	76.000000	50.000000
99.559224	99.643459	75.000000	44.000000
99.643459	99.727587	76.000000	51.000000
99.727587	99.811942	75.000000	45.000000
99.811942	99.896217	76.000000	53.000000
99.896217	99.980694	75.000000	47.000000
99.980694	100.065116	76.000000	56.000000
100.065116	100.150075	75.000000	48.000000
100.150075	100.234873	76.000000	56.000000
100.234873	100.319792	75.000000	47.000000
100.319792	100.405046	76.000000	56.000000
100.405046	100.490247	75.000000	48.000000
100.490247	100.575849	76.000000	56.000000
100.575849	100.661841	75.000000	49.000000
100.661841	100.747538	76.000000	56.000000
100.747538	100.834294	75.000000	49.000000
100.834294	100.921291	74.000000	56.000000
100.921291	101.008758	75.000000	48.000000
101.008758	101.106981	88.000000	55.000000
101.106981	101.193106	87.000000	46.000000
101.193106	101.277851	88.000000	55.000000
101.277851	101.361804	87.000000	48.000000
101.361804	101.444711	88.000000	57.000000
101.444711	101.526773	87.000000	50.000000
101.526773	101.608071	88.000000	60.000000
101.608071	101.689664	87.000000	51.000000
101.689664	101.770721	88.000000	62.000000
101.770721	101.851697	87.000000	52.000000
101.851697	101.932740	88.000000	63.000000
101.932740	102.013876	87.000000	55.000000
102.013876	102.095697	88.000000	67.000000
102.095697	102.176888	87.000000	56.000000
102.176888	102.258011	88.000000	68.000000
102.258011	102.340087	87.000000	57.000000
102.340087	102.422900	88.000000	67.000000
102.422900	102.507081	87.000000	56.000000
102.507081	102.591504	88.000000	67.000000
102.591504	102.676758	87.000000	58.000000
102.676758	102.762776	88.000000	67.000000
102.762776	102.848942	87.000000	58.000000
102.848942	102.936450	86.000000	67.000000
102.936450	103.023916	87.000000	56.000000
103.023916	103.204644	88.000000	64.000000
103.204644	103.385371	87.000000	55.000000
103.385371	103.566099	85.000000	48.000000
103.566099	103.746826	83.000000	49.000000
103.746826	103.927553	82.000000	48.000000
103.927553	104.108281	80.000000	48.000000
104.108281	104.289008	79.000000	49.000000
104.289008	104.469735	78.000000	47.000000
104.469735	104.650463	76.000000	47.000000
104.650463	104.831190	75.000000	48.000000
104.831190	105.011917	73.000000	48.000000
105.011917	105.192591	71.000000	45.000000
105.192591	105.373319	70.000000	48.000000
105.373319	105.555508	68.000000	44.000000
105.555508	105.739185	67.000000	44.000000
105.739185	105.924365	66.000000	45.000000
105.924365	106.110699	64.000000	45.000000
106.110699	106.297032	63.000000	45.000000
106.297032	106.483365	61.000000	45.000000
106.483365	106.669698	59.000000	44.000000
106.669698	106.856031	58.000000	42.000000
106.856031	107.042364	56.000000	42.000000
107.042364	107.228698	55.000000	41.000000
107.228698	107.415031	54.000000	39.000000
107.415031	107.600787	52.000000	42.000000
107.600787	107.787120	51.000000	41.000000
107.787120	107.974030	49.000000	41.000000
107.974030	108.161530	47.000000	40.000000
108.161530	108.349620	46.000000	39.000000
108.349620	108.538354	44.000000	39.000000
108.538354	108.727624	43.000000	42.000000
108.727624	108.916894	42.000000	41.000000
108.916894	109.106165	41.000000	41.000000
109.106165	109.295435	39.000000	41.000000
109.295435	109.484705	37.000000	41.000000
109.484705	109.685375	35.000000	41.000000
109.685375	109.878306	34.000000	42.000000
109.878306	110.071238	35.000000	42.000000
110.071238	110.264169	37.000000	42.000000
110.264169	110.457100	39.000000	42.000000
110.457100	110.650032	40.000000	41.000000
110.650032	110.851372	39.000000	39.000000
110.851372	111.045202	37.000000	42.000000
111.045202	111.240011	35.000000	40.000000
111.240011	111.436630	34.000000	40.000000
111.436630	111.634980	39.000000	45.000000
111.634980	111.835314	37.000000	42.000000
111.835314	112.045103	39.000000	40.000000
112.045103	112.136553	56.000000	83.000000
112.045103	112.136553	32.000000	64.000000
112.136553	112.228003	51.000000	66.000000
112.136553	112.228003	39.000000	52.000000
112.228003	112.319453	47.000000	66.000000
112.228003	112.319453	44.000000	52.000000
112.319453	112.410903	51.000000	66.000000
112.319453	112.410903	39.000000	52.000000
112.410903	112.508147	56.000000	80.000000
112.410903	112.508147	32.000000	58.000000
112.508147	112.605390	51.000000	64.000000
112.508147	112.605390	39.000000	51.000000
112.605390	112.697135	59.000000	84.000000
112.605390	112.697135	32.000000	68.000000
112.697135	112.788867	51.000000	66.000000
112.697135	112.788867	39.000000	52.000000
112.788867	112.880598	58.000000	83.000000
112.788867	112.880598	32.000000	64.000000
112.880598	112.972343	51.000000	66.000000
112.880598	112.972343	39.000000	52.000000
112.972343	113.066033	56.000000	81.000000
112.972343	113.066033	32.000000	62.000000
113.066033	113.159709	51.000000	66.000000
113.066033	113.159709	39.000000	52.000000
113.159709	113.250086	56.000000	83.000000
113.159709	113.250086	32.000000	64.000000
113.250086	113.340450	51.000000	63.000000
113.250086	113.340450	39.000000	52.000000
113.340450	113.430814	47.000000	63.000000
113.340450	113.430814	44.000000	52.000000
113.430814	113.521177	51.000000	63.000000
113.430814	113.521177	39.000000	52.000000
113.521177	113.617093	56.000000	79.000000
113.521177	113.617093	32.000000	58.000000
113.617093	113.713009	51.000000	62.000000
113.617093	113.713009	39.000000	51.000000
113.713009	113.804204	59.000000	83.000000
113.713009	113.804204	32.000000	68.000000
113.804204	113.895386	51.000000	63.000000
113.804204	113.895386	39.000000	52.000000
113.895386	113.986581	58.000000	80.000000
113.895386	113.986581	32.000000	64.000000
113.986581	114.077776	51.000000	66.000000
113.986581	114.077776	39.000000	52.000000
114.077776	114.175369	56.000000	80.000000
114.077776	114.175369	32.000000	62.000000
114.175369	114.272947	51.000000	64.000000
114.175369	114.272947	39.000000	52.000000
114.272947	114.363311	64.000000	83.000000
114.272947	114.363311	32.000000	64.000000
114.363311	114.453675	59.000000	66.000000
114.363311	114.453675	40.000000	52.000000
114.453675	114.544039	56.000000	66.000000
114.453675	114.544039	44.000000	52.000000
114.544039	114.634402	59.000000	66.000000
114.544039	114.634402	40.000000	52.000000
114.634402	114.731646	64.000000	80.000000
114.634402	114.731646	32.000000	58.000000
114.731646	114.828889	59.000000	64.000000
114.731646	114.828889	40.000000	51.000000
114.828889	114.920634	68.000000	84.000000
114.828889	114.920634	32.000000	68.000000
114.920634	115.012366	59.000000	66.000000
114.920634	115.012366	40.000000	52.000000
115.012366	115.104098	66.000000	83.000000
115.012366	115.104098	32.000000	64.000000
115.104098	115.195843	59.000000	66.000000
115.104098	115.195843	40.000000	52.000000
115.195843	115.289532	64.000000	81.000000
115.195843	115.289532	32.000000	62.000000
115.289532	115.383208	59.000000	66.000000
115.289532	115.383208	40.000000	52.000000
115.383208	115.473585	64.000000	83.000000
115.383208	115.473585	32.000000	64.000000
115.473585	115.563949	59.000000	63.000000
115.473585	115.563949	40.000000	52.000000
115.563949	115.654313	56.000000	63.000000
115.563949	115.654313	44.000000	52.000000
115.654313	115.744677	59.000000	63.000000
115.654313	115.744677	40.000000	52.000000
115.744677	115.840592	64.000000	80.000000
115.744677	115.840592	32.000000	58.000000
115.840592	115.936508	59.000000	62.000000
115.840592	115.936508	40.000000	51.000000
115.936508	116.028240	68.000000	83.000000
115.936508	116.028240	32.000000	68.000000
116.028240	116.119985	59.000000	63.000000
116.028240	116.119985	40.000000	52.000000
116.119985	116.211716	66.000000	80.000000
116.119985	116.211716	32.000000	64.000000
116.211716	116.303448	59.000000	66.000000
116.211716	116.303448	40.000000	52.000000
116.303448	116.398398	64.000000	80.000000
116.303448	116.398398	32.000000	62.000000
116.398398	116.493349	59.000000	64.000000
116.398398	116.493349	40.000000	52.000000
116.493349	116.582827	73.000000	92.000000
116.493349	118.113806	33.000000	90.000000
116.493349	118.113806	45.000000	106.000000
116.582827	116.672842	76.000000	67.000000
116.672842	116.762629	73.000000	77.000000
116.762629	116.853704	76.000000	67.000000
116.853704	116.943397	73.000000	74.000000
116.943397	117.033184	76.000000	67.000000
117.033184	117.123105	73.000000	73.000000
117.123105	117.213214	76.000000	67.000000
117.213214	117.303403	73.000000	73.000000
117.303403	117.393190	76.000000	67.000000
117.393190	117.483889	73.000000	73.000000
117.483889	117.574132	76.000000	67.000000
117.574132	117.664147	73.000000	73.000000
117.664147	117.754390	76.000000	67.000000
117.754390	117.843587	73.000000	73.000000
117.843587	117.934152	76.000000	67.000000
117.934152	118.023711	73.000000	72.000000
118.023711	118.113806	76.000000	67.000000
118.113806	118.205256	73.000000	95.000000
118.113806	118.296706	46.000000	88.000000
118.113806	118.296706	34.000000	74.000000
118.205256	118.296706	76.000000	78.000000
118.296706	118.388156	70.000000	89.000000
118.296706	118.479606	37.000000	72.000000
118.388156	118.479606	73.000000	78.000000
118.479606	118.573068	67.000000	84.000000
118.479606	118.666529	40.000000	82.000000
118.573068	118.666529	70.000000	77.000000
118.666529	118.756866	64.000000	82.000000
118.666529	118.847190	43.000000	95.000000
118.756866	118.847190	67.000000	70.000000
118.847190	118.937513	61.000000	81.000000
118.847190	119.027837	46.000000	82.000000
118.937513	119.027837	64.000000	71.000000
119.027837	119.118160	58.000000	82.000000
119.027837	119.208484	49.000000	82.000000
119.118160	119.208484	61.000000	68.000000
119.208484	119.298820	56.000000	81.000000
119.208484	119.381620	52.000000	85.000000
119.298820	119.389144	58.000000	70.000000
119.389144	119.479467	61.000000	80.000000
119.389144	119.562267	52.000000	83.000000
119.479467	119.569791	58.000000	70.000000
119.569791	119.666940	56.000000	80.000000
119.569791	119.755990	52.000000	83.000000
119.666940	119.764090	58.000000	69.000000
119.764090	120.306031	52.000000	97.000000
119.854414	119.944737	56.000000	70.000000
119.944737	120.035060	61.000000	80.000000
120.035060	120.125384	58.000000	69.000000
120.125384	120.215707	56.000000	77.000000
120.215707	120.306031	61.000000	70.000000
120.306031	120.847971	51.000000	89.000000
120.396354	120.486678	55.000000	69.000000
120.486678	120.577001	61.000000	80.000000
120.577001	120.667325	58.000000	69.000000
120.667325	120.757648	55.000000	78.000000
120.757648	120.847971	61.000000	69.000000
120.847971	120.939421	68.000000	83.000000
120.847971	120.939421	44.000000	64.000000
120.939421	121.030871	63.000000	66.000000
120.939421	121.030871	51.000000	52.000000
121.030871	121.122321	59.000000	66.000000
121.030871	121.122321	56.000000	52.000000
121.122321	121.213771	63.000000	66.000000
121.122321	121.213771	51.000000	52.000000
121.213771	121.311015	68.000000	80.000000
121.213771	121.311015	44.000000	58.000000
121.311015	121.408258	63.000000	64.000000
121.311015	121.408258	51.000000	51.000000
121.408258	121.499360	71.000000	84.000000
121.408258	121.499360	44.000000	68.000000
121.499360	121.590837	63.000000	66.000000
121.499360	121.590837	51.000000	52.000000
121.590837	121.682313	70.000000	83.000000
121.590837	121.682313	44.000000	64.000000
121.682313	121.773777	63.000000	66.000000
121.682313	121.773777	51.000000	52.000000
121.773777	121.867466	68.000000	81.000000
121.773777	121.867466	44.000000	62.000000
121.867466	121.961143	63.000000	66.000000
121.867466	121.961143	51.000000	52.000000
121.961143	122.051520	68.000000	83.000000
121.961143	122.051520	44.000000	64.000000
122.051520	122.141883	63.000000	63.000000
122.051520	122.141883	51.000000	52.000000
122.141883	122.232247	59.000000	63.000000
122.141883	122.232247	56.000000	52.000000
122.232247	122.322611	63.000000	63.000000
122.232247	122.322611	51.000000	52.000000
122.322611	122.418527	68.000000	80.000000
122.322611	122.418527	44.000000	58.000000
122.418527	122.514442	63.000000	62.000000
122.418527	122.514442	51.000000	51.000000
122.514442	122.605919	71.000000	83.000000
122.514442	122.605919	44.000000	68.000000
122.605919	122.697383	63.000000	63.000000
122.605919	122.697383	51.000000	52.000000
122.697383	122.788859	70.000000	80.000000
122.697383	122.788859	44.000000	64.000000
122.788859	122.880336	63.000000	66.000000
122.788859	122.880336	51.000000	52.000000
122.880336	122.977928	68.000000	80.000000
122.880336	122.977928	44.000000	62.000000
122.977928	123.075507	63.000000	64.000000
122.977928	123.075507	51.000000	52.000000
123.075507	123.165871	76.000000	83.000000
123.075507	123.165871	44.000000	64.000000
123.165871	123.256235	71.000000	66.000000
123.165871	123.256235	52.000000	52.000000
123.256235	123.346598	68.000000	66.000000
123.256235	123.346598	56.000000	52.000000
123.346598	123.436962	71.000000	66.000000
123.346598	123.436962	52.000000	52.000000
123.436962	123.534206	76.000000	80.000000
123.436962	123.534206	44.000000	58.000000
123.534206	123.631449	71.000000	64.000000
123.534206	123.631449	52.000000	51.000000
123.631449	123.722912	80.000000	84.000000
123.631449	123.722912	44.000000	68.000000
123.722912	123.814389	71.000000	66.000000
123.722912	123.814389	52.000000	52.000000
123.814389	123.905866	78.000000	83.000000
123.814389	123.905866	44.000000	64.000000
123.905866	123.997329	71.000000	66.000000
123.905866	123.997329	52.000000	52.000000
123.997329	124.091019	76.000000	81.000000
123.997329	124.091019	44.000000	62.000000
124.091019	124.184695	71.000000	66.000000
124.091019	124.184695	52.000000	52.000000
124.184695	124.275072	76.000000	83.000000
124.184695	124.275072	44.000000	64.000000
124.275072	124.365436	71.000000	63.000000
124.275072	124.365436	52.000000	52.000000
124.365436	124.455800	68.000000	63.000000
124.365436	124.455800	56.000000	52.000000
124.455800	124.546163	71.000000	63.000000
124.455800	124.546163	52.000000	52.000000
124.546163	124.642079	76.000000	80.000000
124.546163	124.642079	44.000000	58.000000
124.642079	124.737995	71.000000	62.000000
124.642079	124.737995	52.000000	51.000000
124.737995	124.829472	80.000000	83.000000
124.737995	124.829472	44.000000	68.000000
124.829472	124.920935	71.000000	63.000000
124.829472	124.920935	52.000000	52.000000
124.920935	125.012412	78.000000	80.000000
124.920935	125.012412	44.000000	64.000000
125.012412	125.103889	71.000000	66.000000
125.012412	125.103889	52.000000	52.000000
125.103889	125.198839	76.000000	80.000000
125.103889	125.198839	44.000000	62.000000
125.198839	125.293789	71.000000	64.000000
125.198839	125.293789	52.000000	52.000000
125.293789	125.383268	85.000000	94.000000
125.293789	126.914247	57.000000	106.000000
125.293789	126.914247	45.000000	90.000000
125.383268	125.473283	88.000000	77.000000
125.473283	125.563070	85.000000	78.000000
125.563070	125.654144	88.000000	69.000000
125.654144	125.743838	85.000000	75.000000
125.743838	125.833625	88.000000	69.000000
125.833625	125.923546	85.000000	75.000000
125.923546	126.013655	88.000000	69.000000
126.013655	126.103844	85.000000	74.000000
126.103844	126.193631	88.000000	69.000000
126.193631	126.284330	85.000000	71.000000
126.284330	126.374573	88.000000	69.000000
126.374573	126.464588	85.000000	71.000000
126.464588	126.554831	88.000000	69.000000
126.554831	126.644028	85.000000	71.000000
126.644028	126.734593	88.000000	69.000000
126.734593	126.824152	85.000000	73.000000
126.824152	126.914247	88.000000	69.000000
126.914247	127.005697	85.000000	76.000000
126.914247	127.097147	46.000000	59.000000
126.914247	127.097147	58.000000	88.000000
127.005697	127.097147	88.000000	69.000000
127.097147	127.188597	85.000000	77.000000
127.097147	127.280047	61.000000	72.000000
127.097147	127.280047	49.000000	58.000000
127.188597	127.280047	88.000000	69.000000
127.280047	127.373509	85.000000	77.000000
127.280047	127.466970	64.000000	82.000000
127.280047	127.466970	52.000000	63.000000
127.373509	127.466970	88.000000	69.000000
127.466970	127.557307	85.000000	82.000000
127.466970	127.647631	67.000000	95.000000
127.466970	127.647631	55.000000	75.000000
127.557307	127.647631	88.000000	70.000000
127.647631	127.737954	82.000000	81.000000
127.647631	127.828277	70.000000	82.000000
127.647631	127.828277	58.000000	63.000000
127.737954	127.828277	85.000000	71.000000
127.828277	127.918601	80.000000	82.000000
127.828277	128.008924	73.000000	82.000000
127.828277	128.008924	61.000000	63.000000
127.918601	128.008924	82.000000	68.000000
128.008924	128.099261	80.000000	81.000000
128.008924	128.182061	64.000000	68.000000
128.008924	128.182061	76.000000	85.000000
128.099261	128.189585	82.000000	70.000000
128.189585	128.279908	85.000000	80.000000
128.189585	128.362708	76.000000	83.000000
128.189585	128.362708	64.000000	64.000000
128.279908	128.370232	82.000000	70.000000
128.370232	128.467381	80.000000	80.000000
128.370232	128.556431	76.000000	83.000000
128.370232	128.556431	64.000000	64.000000
128.467381	128.564531	82.000000	69.000000
128.564531	129.106472	64.000000	80.000000
128.564531	129.106472	76.000000	102.000000
128.654854	128.745178	80.000000	72.000000
128.745178	128.835501	85.000000	77.000000
128.835501	128.925825	82.000000	70.000000
128.925825	129.016148	80.000000	74.000000
129.016148	129.106472	85.000000	69.000000
129.106472	129.654152	75.000000	86.000000
129.106472	129.654152	63.000000	69.000000
129.196795	129.287118	79.000000	67.000000
129.287118	129.377442	85.000000	71.000000
129.377442	129.467765	82.000000	64.000000
129.467765	129.560959	79.000000	68.000000
129.560959	129.654152	85.000000	62.000000
129.654152	130.196093	68.000000	102.000000
129.744476	129.834799	76.000000	72.000000
129.834799	129.925122	85.000000	78.000000
129.925122	130.015446	82.000000	70.000000
130.015446	130.105769	76.000000	77.000000
130.105769	130.196093	85.000000	69.000000
130.196093	130.743183	67.000000	86.000000
130.286416	130.376740	75.000000	67.000000
130.376740	130.467063	85.000000	74.000000
130.467063	130.557387	82.000000	64.000000
130.557387	130.650285	75.000000	70.000000
130.650285	130.743183	85.000000	62.000000
130.743183	131.285124	76.000000	102.000000
130.833507	130.923830	80.000000	72.000000
130.923830	131.014154	85.000000	78.000000
131.014154	131.104477	82.000000	70.000000
131.104477	131.194801	80.000000	76.000000
131.194801	131.285124	85.000000	69.000000
131.285124	131.827065	75.000000	86.000000
131.375447	131.465771	79.000000	67.000000
131.465771	131.556094	85.000000	73.000000
131.556094	131.646418	82.000000	64.000000
131.646418	131.736741	79.000000	70.000000
131.736741	131.827065	85.000000	62.000000
131.827065	132.891299	74.000000	97.000000
131.917039	132.891299	77.000000	91.000000
132.006840	132.891299	80.000000	97.000000
132.096359	132.185690	83.000000	79.000000
132.185690	132.274739	86.000000	83.000000
132.274739	132.363520	89.000000	74.000000
132.363520	132.452114	92.000000	85.000000
132.452114	132.540439	89.000000	81.000000
132.540439	132.628496	86.000000	86.000000
132.628496	132.716365	95.000000	83.000000
132.716365	132.803966	94.000000	86.000000
132.803966	132.891299	92.000000	78.000000
132.891299	132.978551	91.000000	83.000000
132.891299	133.965806	75.000000	85.000000
132.978551	133.065804	94.000000	81.000000
132.978551	133.965806	79.000000	77.000000
133.065804	133.153056	92.000000	84.000000
133.153056	133.240308	91.000000	82.000000
133.240308	133.327829	88.000000	81.000000
133.327829	133.415349	87.000000	74.000000
133.415349	133.503044	85.000000	78.000000
133.503044	133.590819	88.000000	75.000000
133.590819	133.678783	87.000000	74.000000
133.678783	133.766840	85.000000	72.000000
133.766840	133.854977	83.000000	71.000000
133.854977	133.965806	82.000000	66.000000
133.965806	134.500035	68.000000	45.000000
133.965806	134.500035	71.000000	45.000000
134.058597	134.151187	80.000000	42.000000
134.151187	134.238399	83.000000	45.000000
134.238399	134.325611	87.000000	47.000000
134.325611	134.412823	92.000000	49.000000
134.412823	134.500035	80.000000	45.000000
134.500035	135.026915	73.000000	44.000000
134.500035	135.026915	76.000000	44.000000
134.765279	134.852491	92.000000	49.000000
134.852491	134.939703	80.000000	45.000000
134.939703	135.026915	92.000000	49.000000
135.026915	135.552790	71.000000	45.000000
135.026915	135.552790	75.000000	45.000000
135.291918	135.378875	92.000000	48.000000
135.378875	135.465832	80.000000	45.000000
135.465832	135.552790	92.000000	48.000000
135.552790	136.066822	75.000000	60.000000
135.552790	136.066822	70.000000	60.000000
135.552790	136.066822	73.000000	60.000000
135.805950	135.892907	91.000000	48.000000
135.892907	135.979865	79.000000	45.000000
135.979865	136.066822	91.000000	49.000000
136.066822	136.601051	68.000000	45.000000
136.066822	136.601051	71.000000	45.000000
136.159613	136.252203	80.000000	42.000000
136.252203	136.339415	83.000000	45.000000
136.339415	136.426627	87.000000	47.000000
136.426627	136.513839	92.000000	49.000000
136.513839	136.601051	80.000000	45.000000
136.601051	137.127931	61.000000	44.000000
136.601051	137.127931	64.000000	44.000000
136.866295	136.953507	80.000000	49.000000
136.953507	137.040719	68.000000	45.000000
137.040719	137.127931	80.000000	49.000000
137.127931	137.653806	59.000000	45.000000
137.127931	137.653806	63.000000	45.000000
137.392934	137.479891	80.000000	48.000000
137.479891	137.566848	68.000000	45.000000
137.566848	137.653806	80.000000	48.000000
137.653806	138.167838	58.000000	60.000000
137.653806	138.167838	61.000000	60.000000
137.653806	138.167838	63.000000	60.000000
137.906966	137.993923	79.000000	48.000000
137.993923	138.080881	67.000000	45.000000
138.080881	138.167838	79.000000	49.000000
138.167838	138.702067	59.000000	45.000000
138.167838	138.702067	56.000000	45.000000
138.260629	138.353219	80.000000	42.000000
138.353219	138.440431	83.000000	45.000000
138.440431	138.527643	87.000000	47.000000
138.527643	138.614855	92.000000	49.000000
138.614855	138.702067	80.000000	45.000000
138.702067	139.228947	52.000000	44.000000
138.702067	139.228947	49.000000	44.000000
138.967311	139.054523	92.000000	49.000000
139.054523	139.141735	80.000000	45.000000
139.141735	139.228947	92.000000	49.000000
139.228947	139.754821	51.000000	45.000000
139.228947	139.754821	47.000000	45.000000
139.493950	139.580907	92.000000	48.000000
139.580907	139.667864	80.000000	45.000000
139.667864	139.754821	92.000000	48.000000
139.754821	140.281849	51.000000	60.000000
139.754821	140.281849	49.000000	60.000000
139.754821	140.281849	46.000000	60.000000
140.007982	140.094939	91.000000	48.000000
140.094939	140.188401	79.000000	45.000000
140.188401	140.281849	91.000000	49.000000
140.281849	140.369477	92.000000	48.000000
140.281849	141.371041	44.000000	48.000000
140.369477	140.457628	87.000000	45.000000
140.457628	140.546033	83.000000	44.000000
140.546033	140.634707	87.000000	39.000000
140.634707	140.723636	92.000000	42.000000
140.723636	140.812833	87.000000	39.000000
140.812833	140.902298	83.000000	46.000000
140.902298	140.992031	87.000000	41.000000
140.992031	141.082127	92.000000	41.000000
141.082127	141.172222	87.000000	37.000000
141.172222	141.271236	83.000000	40.000000
141.271236	141.371041	87.000000	36.000000
141.371041	141.475393	92.000000	42.000000
141.371041	142.014597	39.000000	38.000000
141.475393	141.580844	87.000000	39.000000
141.580844	141.687421	83.000000	39.000000
141.687421	141.795139	87.000000	35.000000
141.795139	141.904104	92.000000	38.000000
141.904104	142.014597	87.000000	34.000000
142.014597	142.126325	92.000000	39.000000
142.014597	142.711717	35.000000	30.000000
142.126325	142.239326	87.000000	35.000000
142.239326	142.353615	92.000000	37.000000
142.353615	142.469608	87.000000	31.000000
142.469608	142.587907	92.000000	36.000000
142.587907	142.711717	87.000000	30.000000
142.711717	144.388743	92.000000	33.000000
142.711717	144.388743	32.000000	27.000000
144.388743	144.904626	59.000000	35.000000
144.388743	144.904626	47.000000	27.000000
144.904626	145.040493	56.000000	31.000000
144.904626	145.040493	44.000000	25.000000
145.040493	146.701010	51.000000	28.000000
145.040493	146.701010	39.000000	22.000000
146.701010	147.210509	59.000000	35.000000
146.701010	147.210509	47.000000	27.000000
147.210509	147.346376	56.000000	31.000000
147.210509	147.346376	44.000000	25.000000
147.346376	149.026017	52.000000	28.000000
147.346376	149.026017	40.000000	22.000000
149.026017	149.507192	56.000000	35.000000
149.026017	149.507192	44.000000	27.000000
149.507192	149.614052	59.000000	30.000000
149.507192	149.614052	47.000000	24.000000
149.614052	150.139537	64.000000	35.000000
149.614052	150.139537	52.000000	27.000000
150.139537	150.605155	68.000000	36.000000
150.139537	150.605155	56.000000	28.000000
150.605155	150.706167	71.000000	31.000000
150.605155	150.706167	59.000000	25.000000
150.706167	151.266025	76.000000	36.000000
150.706167	151.266025	64.000000	28.000000
151.270089	151.823590	64.000000	34.000000
151.270089	151.823590	52.000000	27.000000
151.823590	152.746096	71.000000	35.000000
151.823590	152.941602	54.000000	26.000000
151.823590	152.941602	51.000000	26.000000
151.823590	152.941602	59.000000	26.000000
152.746096	152.894368	73.000000	33.000000
152.894368	152.941602	71.000000	34.000000
152.941602	152.998586	73.000000	31.000000
152.941602	154.025242	52.000000	26.000000
152.941602	154.025242	58.000000	26.000000
152.941602	154.025242	55.000000	26.000000
152.998586	153.055247	75.000000	27.000000
153.055247	153.111587	73.000000	31.000000
153.111587	153.167605	75.000000	27.000000
153.167605	153.223315	73.000000	31.000000
153.223315	153.278676	75.000000	28.000000
153.278676	153.333540	73.000000	31.000000
153.333540	153.388713	75.000000	27.000000
153.388713	153.444275	73.000000	31.000000
153.444275	153.500213	75.000000	28.000000
153.500213	153.556553	73.000000	26.000000
153.556553	153.613295	75.000000	31.000000
153.613295	153.699005	73.000000	26.000000
153.699005	153.804389	71.000000	30.000000
153.804389	153.909773	75.000000	35.000000
153.909773	154.025242	73.000000	31.000000
154.025242	154.397909	71.000000	35.000000
154.025242	154.397909	54.000000	22.000000
154.025242	154.397909	51.000000	19.000000
154.025242	154.397909	59.000000	26.000000
156.261267	157.182754	78.000000	35.000000
156.261267	157.380446	73.000000	26.000000
156.261267	157.380446	69.000000	26.000000
157.182754	157.380446	80.000000	35.000000
157.380446	158.457917	77.000000	35.000000
157.380446	157.436786	80.000000	44.000000
157.380446	158.457917	71.000000	28.000000
157.380446	158.457917	74.000000	28.000000
157.436786	157.492885	81.000000	35.000000
157.492885	157.548675	80.000000	40.000000
157.548675	157.604237	81.000000	36.000000
157.604237	157.659557	80.000000	39.000000
157.659557	157.714583	81.000000	36.000000
157.714583	157.769380	80.000000	38.000000
157.769380	157.824406	81.000000	34.000000
157.824406	157.879727	80.000000	37.000000
157.879727	157.935289	81.000000	35.000000
157.935289	157.991079	80.000000	31.000000
157.991079	158.047177	81.000000	36.000000
158.047177	158.131680	80.000000	33.000000
158.131680	158.237064	78.000000	33.000000
158.237064	158.342448	81.000000	37.000000
158.342448	158.457917	80.000000	33.000000
158.457917	158.830584	78.000000	35.000000
158.457917	158.830584	69.000000	22.000000
158.457917	158.830584	73.000000	26.000000
160.693942	161.646328	64.000000	35.000000
160.693942	161.844021	59.000000	26.000000
160.693942	161.844021	56.000000	26.000000
161.646328	161.844021	66.000000	35.000000
161.844021	162.931469	63.000000	35.000000
161.844021	161.899878	66.000000	44.000000
161.844021	162.931469	57.000000	28.000000
161.844021	162.931469	60.000000	28.000000
161.899878	161.955587	68.000000	35.000000
161.955587	162.011149	66.000000	40.000000
162.011149	162.066550	68.000000	36.000000
162.066550	162.121804	66.000000	39.000000
162.121804	162.176896	68.000000	36.000000
162.176896	162.231761	66.000000	39.000000
162.231761	162.286626	68.000000	35.000000
162.286626	162.341651	66.000000	39.000000
162.341651	162.396824	68.000000	35.000000
162.396824	162.452145	66.000000	31.000000
162.452145	162.509611	68.000000	36.000000
162.509611	162.605232	66.000000	33.000000
162.605232	162.710616	64.000000	33.000000
162.710616	162.816000	68.000000	37.000000
162.816000	162.931469	66.000000	33.000000
162.931469	163.473638	64.000000	35.000000
162.931469	163.473638	56.000000	22.000000
162.931469	163.473638	59.000000	26.000000
163.473638	164.571212	57.000000	45.000000
163.473638	164.571212	61.000000	45.000000
163.473638	164.571212	69.000000	53.000000
163.473638	164.571212	42.000000	44.000000
164.571212	165.130265	57.000000	36.000000
164.571212	165.130265	61.000000	36.000000
164.571212	165.033665	66.000000	44.000000
164.571212	165.130265	45.000000	40.000000
165.033665	165.130265	68.000000	39.000000
165.130265	166.242954	64.000000	42.000000
165.130265	166.242954	56.000000	35.000000
165.130265	166.242954	59.000000	35.000000
165.130265	166.242954	47.000000	35.000000
166.242954	167.355642	63.000000	36.000000
166.242954	167.355642	57.000000	30.000000
166.242954	167.355642	54.000000	30.000000
166.242954	167.355642	35.000000	30.000000
167.355642	168.277129	76.000000	35.000000
167.355642	168.474821	71.000000	26.000000
167.355642	168.474821	68.000000	26.000000
168.277129	168.474821	78.000000	35.000000
168.474821	168.531000	78.000000	36.000000
168.474821	169.548604	75.000000	29.000000
168.474821	169.548604	69.000000	28.000000
168.474821	169.548604	72.000000	28.000000
168.531000	168.586938	80.000000	33.000000
168.586938	168.642567	78.000000	36.000000
168.642567	168.698048	80.000000	34.000000
168.698048	168.753221	78.000000	36.000000
168.753221	168.808086	80.000000	34.000000
168.808086	168.862950	78.000000	36.000000
168.862950	168.917976	80.000000	32.000000
168.917976	168.973230	78.000000	36.000000
168.973230	169.028631	80.000000	33.000000
169.028631	169.084260	78.000000	30.000000
169.084260	169.140050	80.000000	34.000000
169.140050	169.224083	78.000000	31.000000
169.224083	169.328918	76.000000	33.000000
169.328918	169.433752	80.000000	37.000000
169.433752	169.548604	78.000000	33.000000
169.548604	170.089888	76.000000	35.000000
169.548604	170.089888	68.000000	22.000000
169.548604	170.089888	71.000000	26.000000
170.089888	171.188990	69.000000	45.000000
170.089888	171.188990	73.000000	45.000000
170.089888	171.188990	81.000000	53.000000
170.089888	171.188990	66.000000	44.000000
170.089888	171.188990	54.000000	38.000000
171.188990	171.748553	69.000000	36.000000
171.188990	171.748553	73.000000	36.000000
171.188990	171.651953	78.000000	44.000000
171.188990	171.748553	57.000000	40.000000
171.651953	171.748553	80.000000	39.000000
171.748553	172.861242	68.000000	35.000000
171.748553	172.861242	76.000000	42.000000
171.748553	172.861242	71.000000	35.000000
171.748553	172.861242	59.000000	35.000000
172.861242	173.232138	75.000000	36.000000
172.861242	173.232138	69.000000	30.000000
172.861242	173.232138	66.000000	30.000000
172.861242	173.232138	47.000000	30.000000
173.417586	173.872837	47.000000	83.000000
173.872837	173.973514	43.000000	75.000000
173.973514	174.058795	67.000000	70.000000
173.973514	175.521552	40.000000	80.000000
174.058795	174.144666	64.000000	61.000000
174.144666	174.229625	67.000000	70.000000
174.229625	174.316086	64.000000	60.000000
174.316086	174.400884	67.000000	70.000000
174.400884	174.487399	64.000000	61.000000
174.487399	174.573002	67.000000	70.000000
174.573002	174.658671	64.000000	60.000000
174.658671	174.744717	67.000000	70.000000
174.744717	174.829689	64.000000	60.000000
174.829689	174.915667	67.000000	70.000000
174.915667	175.001579	64.000000	59.000000
175.001579	175.089890	67.000000	70.000000
175.089890	175.175802	64.000000	61.000000
175.175802	175.262544	67.000000	70.000000
175.262544	175.349649	64.000000	60.000000
175.349649	175.435493	67.000000	70.000000
175.435493	175.521552	64.000000	61.000000
175.521552	175.607892	67.000000	70.000000
175.521552	175.947916	43.000000	81.000000
175.607892	175.694890	64.000000	60.000000
175.694890	175.779232	67.000000	70.000000
175.779232	175.863574	64.000000	60.000000
175.863574	175.947916	67.000000	70.000000
175.947916	176.034069	64.000000	59.000000
175.947916	176.034069	47.000000	73.000000
176.034069	176.115313	67.000000	70.000000
176.034069	176.523505	52.000000	81.000000
176.115313	176.197000	64.000000	61.000000
176.197000	176.278391	67.000000	70.000000
176.278391	176.359797	64.000000	60.000000
176.359797	176.441591	67.000000	70.000000
176.441591	176.523505	64.000000	61.000000
176.523505	176.607606	67.000000	70.000000
176.523505	176.949910	55.000000	83.000000
176.607606	176.691707	64.000000	60.000000
176.691707	176.777725	67.000000	70.000000
176.777725	176.863677	64.000000	60.000000
176.863677	176.949910	67.000000	70.000000
176.949910	177.041105	64.000000	59.000000
176.949910	177.041105	59.000000	73.000000
177.041105	177.125702	67.000000	70.000000
177.041105	177.125702	64.000000	82.000000
177.125702	177.294896	64.000000	61.000000
177.210299	177.294896	67.000000	70.000000
177.294896	177.464090	64.000000	60.000000
177.379493	177.464090	67.000000	70.000000
177.464090	177.548687	64.000000	61.000000
177.548687	177.632251	67.000000	70.000000
177.548687	177.632251	64.000000	79.000000
177.632251	177.799379	64.000000	60.000000
177.715815	177.799379	67.000000	70.000000
177.799379	177.967447	64.000000	60.000000
177.882944	177.967447	67.000000	70.000000
177.967447	178.051950	64.000000	59.000000
178.051950	178.149502	65.000000	83.000000
178.149502	178.247067	67.000000	67.000000
178.247067	178.344633	71.000000	70.000000
178.344633	178.443687	67.000000	68.000000
178.443687	178.545101	65.000000	68.000000
178.545101	178.645375	62.000000	81.000000
178.645375	178.745650	65.000000	67.000000
178.745650	178.845924	67.000000	70.000000
178.845924	178.946628	65.000000	68.000000
178.946628	179.047546	62.000000	68.000000
179.047546	179.147257	59.000000	77.000000
179.147257	179.246968	62.000000	62.000000
179.246968	179.346680	65.000000	67.000000
179.346680	179.446391	62.000000	63.000000
179.446391	179.546102	59.000000	63.000000
179.546102	179.961563	71.000000	89.000000
179.546102	179.645813	55.000000	70.000000
179.645813	179.745524	59.000000	59.000000
179.745524	179.845236	62.000000	62.000000
179.845236	179.944947	59.000000	60.000000
179.944947	180.047447	55.000000	60.000000
179.961563	180.047447	74.000000	80.000000
180.047447	180.536870	79.000000	89.000000
180.047447	180.144959	53.000000	70.000000
180.144959	180.242753	55.000000	59.000000
180.242753	180.340372	59.000000	62.000000
180.340372	180.438474	55.000000	60.000000
180.438474	180.536870	53.000000	60.000000
180.536870	180.964951	83.000000	91.000000
180.536870	180.638701	50.000000	70.000000
180.638701	180.741174	53.000000	59.000000
180.741174	180.844453	55.000000	62.000000
180.844453	180.947664	53.000000	60.000000
180.947664	181.056146	50.000000	60.000000
180.964951	181.056146	86.000000	80.000000
181.056146	181.564318	79.000000	82.000000
181.056146	181.564318	91.000000	90.000000
181.056146	181.139711	47.000000	70.000000
181.139711	181.223275	50.000000	59.000000
181.223275	181.306839	53.000000	60.000000
181.306839	181.390404	50.000000	66.000000
181.390404	181.477361	47.000000	59.000000
181.477361	181.564318	43.000000	60.000000
181.564318	182.063424	91.000000	86.000000
181.564318	182.063424	79.000000	79.000000
181.564318	181.646957	41.000000	70.000000
181.646957	181.729596	43.000000	60.000000
181.729596	181.812235	47.000000	60.000000
181.812235	181.894874	43.000000	66.000000
181.894874	181.979149	41.000000	66.000000
181.979149	182.063424	38.000000	60.000000
182.063424	182.160399	79.000000	91.000000
182.063424	182.160399	91.000000	91.000000
182.063424	183.533946	36.000000	80.000000
182.160399	182.256691	87.000000	73.000000
182.256691	182.352982	91.000000	77.000000
182.352982	182.449273	87.000000	74.000000
182.449273	182.545565	84.000000	74.000000
182.545565	182.644404	79.000000	91.000000
182.644404	182.743244	84.000000	73.000000
182.743244	182.842083	87.000000	77.000000
182.842083	182.940923	84.000000	74.000000
182.940923	183.039762	79.000000	74.000000
183.039762	183.138588	75.000000	91.000000
183.138588	183.237428	79.000000	73.000000
183.237428	183.336267	84.000000	77.000000
183.336267	183.435106	79.000000	74.000000
183.435106	183.533946	75.000000	74.000000
183.533946	183.632785	72.000000	91.000000
183.533946	183.945773	39.000000	81.000000
183.632785	183.731625	75.000000	73.000000
183.731625	183.830464	79.000000	77.000000
183.830464	183.929304	75.000000	74.000000
183.929304	184.036096	72.000000	74.000000
183.945773	184.036096	43.000000	73.000000
184.036096	184.133621	67.000000	91.000000
184.036096	184.525532	48.000000	81.000000
184.133621	184.231415	72.000000	73.000000
184.231415	184.329034	75.000000	77.000000
184.329034	184.427136	72.000000	74.000000
184.427136	184.525532	67.000000	74.000000
184.525532	184.627363	63.000000	91.000000
184.525532	184.953613	51.000000	83.000000
184.627363	184.729836	67.000000	73.000000
184.729836	184.833115	72.000000	77.000000
184.833115	184.936326	67.000000	74.000000
184.936326	185.044808	63.000000	74.000000
184.953613	185.044808	55.000000	73.000000
185.044808	185.144533	63.000000	91.000000
185.044808	185.543431	60.000000	82.000000
185.144533	185.244258	67.000000	73.000000
185.244258	185.343982	72.000000	77.000000
185.343982	185.443707	67.000000	74.000000
185.443707	185.543431	63.000000	74.000000
185.543431	185.643438	63.000000	91.000000
185.543431	186.045809	60.000000	79.000000
185.643438	185.743444	67.000000	73.000000
185.743444	185.843450	72.000000	77.000000
185.843450	185.944395	67.000000	74.000000
185.944395	186.045809	63.000000	74.000000
186.045809	186.143496	61.000000	83.000000
186.143496	186.241195	63.000000	67.000000
186.241195	186.338895	67.000000	70.000000
186.338895	186.439343	63.000000	68.000000
186.439343	186.541174	61.000000	68.000000
186.541174	186.641193	58.000000	81.000000
186.641193	186.741199	61.000000	67.000000
186.741199	186.841206	63.000000	70.000000
186.841206	186.941815	61.000000	68.000000
186.941815	187.042734	58.000000	68.000000
187.042734	187.142445	55.000000	77.000000
187.142445	187.242156	58.000000	62.000000
187.242156	187.341867	61.000000	67.000000
187.341867	187.441578	58.000000	63.000000
187.441578	187.541290	55.000000	63.000000
187.541290	187.951118	67.000000	89.000000
187.541290	187.639660	51.000000	70.000000
187.639660	187.738016	55.000000	59.000000
187.738016	187.836373	58.000000	62.000000
187.836373	187.934730	55.000000	60.000000
187.934730	188.037579	51.000000	60.000000
187.951118	188.037579	70.000000	80.000000
188.037579	188.527002	75.000000	89.000000
188.037579	188.135091	49.000000	70.000000
188.135091	188.232884	51.000000	59.000000
188.232884	188.330503	55.000000	62.000000
188.330503	188.428605	51.000000	60.000000
188.428605	188.527002	49.000000	60.000000
188.527002	188.955083	79.000000	91.000000
188.527002	188.628832	46.000000	70.000000
188.628832	188.731306	49.000000	59.000000
188.731306	188.834584	51.000000	62.000000
188.834584	188.937796	49.000000	60.000000
188.937796	189.046278	46.000000	60.000000
188.955083	189.046278	82.000000	80.000000
189.046278	189.558299	75.000000	82.000000
189.046278	189.558299	87.000000	90.000000
189.046278	189.130540	43.000000	70.000000
189.130540	189.214815	46.000000	59.000000
189.214815	189.299090	49.000000	60.000000
189.299090	189.383365	46.000000	66.000000
189.383365	189.470832	43.000000	59.000000
189.470832	189.558299	39.000000	60.000000
189.558299	190.062447	75.000000	79.000000
189.558299	190.062447	87.000000	86.000000
189.558299	189.641635	37.000000	70.000000
189.641635	189.724971	39.000000	60.000000
189.724971	189.808307	43.000000	60.000000
189.808307	189.891644	39.000000	66.000000
189.891644	189.974980	37.000000	66.000000
189.974980	190.062447	34.000000	60.000000
190.062447	190.161622	87.000000	100.000000
190.062447	191.532057	32.000000	80.000000
190.161622	190.260086	92.000000	80.000000
190.260086	190.357115	96.000000	83.000000
190.357115	190.454144	92.000000	81.000000
190.454144	190.551173	87.000000	80.000000
190.551173	190.648993	84.000000	97.000000
190.648993	190.746813	87.000000	78.000000
190.746813	190.844633	92.000000	81.000000
190.844633	190.942453	87.000000	79.000000
190.942453	191.040274	84.000000	75.000000
191.040274	191.138630	80.000000	95.000000
191.138630	191.236987	84.000000	77.000000
191.236987	191.335344	87.000000	79.000000
191.335344	191.433700	84.000000	77.000000
191.433700	191.532057	80.000000	77.000000
191.532057	191.630414	75.000000	93.000000
191.532057	191.941872	36.000000	81.000000
191.630414	191.728770	80.000000	74.000000
191.728770	191.827127	84.000000	78.000000
191.827127	191.925484	80.000000	74.000000
191.925484	192.032195	75.000000	74.000000
191.941872	192.032195	39.000000	73.000000
192.032195	192.129721	72.000000	91.000000
192.032195	192.521632	44.000000	81.000000
192.129721	192.227514	75.000000	73.000000
192.227514	192.325133	80.000000	77.000000
192.325133	192.423235	75.000000	74.000000
192.423235	192.521632	72.000000	74.000000
192.521632	192.623462	68.000000	91.000000
192.521632	192.949713	48.000000	83.000000
192.623462	192.725936	72.000000	73.000000
192.725936	192.829214	75.000000	77.000000
192.829214	192.932426	72.000000	74.000000
192.932426	193.040908	68.000000	74.000000
192.949713	193.040908	51.000000	73.000000
193.040908	193.139010	63.000000	91.000000
193.040908	193.531364	56.000000	82.000000
193.139010	193.237098	68.000000	73.000000
193.237098	193.335187	72.000000	77.000000
193.335187	193.433275	68.000000	74.000000
193.433275	193.531364	63.000000	74.000000
193.531364	193.631370	60.000000	91.000000
193.531364	194.031395	56.000000	79.000000
193.631370	193.731376	63.000000	73.000000
193.731376	193.831382	68.000000	77.000000
193.831382	193.931388	63.000000	74.000000
193.931388	194.031395	60.000000	74.000000
194.031395	195.523736	66.000000	83.000000
194.031395	194.129094	57.000000	83.000000
194.129094	194.226794	60.000000	67.000000
194.226794	194.324493	63.000000	70.000000
194.324493	194.424942	60.000000	68.000000
194.424942	194.526772	57.000000	68.000000
194.526772	194.626792	54.000000	81.000000
194.626792	194.726798	57.000000	67.000000
194.726798	194.826804	60.000000	70.000000
194.826804	194.927414	57.000000	68.000000
194.927414	195.028332	54.000000	68.000000
195.028332	195.128043	51.000000	77.000000
195.128043	195.227755	54.000000	62.000000
195.227755	195.327466	57.000000	67.000000
195.327466	195.425916	54.000000	63.000000
195.425916	195.523736	51.000000	63.000000
195.523736	195.941544	72.000000	89.000000
195.523736	195.624011	48.000000	70.000000
195.624011	195.724285	51.000000	59.000000
195.724285	195.824560	54.000000	62.000000
195.824560	195.924834	51.000000	60.000000
195.924834	196.033289	48.000000	60.000000
195.941544	196.033289	75.000000	85.000000
196.033289	196.522712	78.000000	92.000000
196.033289	196.130801	45.000000	70.000000
196.130801	196.228595	48.000000	59.000000
196.228595	196.326214	51.000000	62.000000
196.326214	196.424316	48.000000	60.000000
196.424316	196.522712	45.000000	60.000000
196.522712	196.950793	84.000000	95.000000
196.522712	196.624543	42.000000	70.000000
196.624543	196.727016	45.000000	59.000000
196.727016	196.830295	48.000000	62.000000
196.830295	196.933506	45.000000	60.000000
196.933506	197.050464	42.000000	60.000000
196.950793	197.050464	87.000000	84.000000
197.050464	197.577680	90.000000	96.000000
197.050464	197.136711	39.000000	70.000000
197.136711	197.222957	42.000000	59.000000
197.222957	197.309204	45.000000	60.000000
197.309204	197.395450	42.000000	66.000000
197.395450	197.486565	39.000000	59.000000
197.486565	197.577680	36.000000	60.000000
197.577680	198.095159	90.000000	93.000000
197.577680	197.663926	33.000000	70.000000
197.663926	197.750173	36.000000	60.000000
197.750173	197.836419	39.000000	60.000000
197.836419	197.922666	42.000000	66.000000
197.922666	198.008912	39.000000	66.000000
198.008912	198.095159	36.000000	60.000000
198.095159	198.765604	90.000000	105.000000
198.095159	198.178964	32.000000	70.000000
198.178964	198.262770	36.000000	60.000000
198.262770	198.346576	39.000000	60.000000
198.346576	198.430381	42.000000	66.000000
198.430381	198.514187	39.000000	66.000000
198.514187	198.597993	36.000000	60.000000
198.597993	198.681798	33.000000	70.000000
198.681798	198.765604	36.000000	60.000000
198.765604	198.851810	90.000000	77.000000
198.765604	198.851810	39.000000	60.000000
198.851810	198.938016	87.000000	76.000000
198.851810	198.938016	42.000000	66.000000
198.938016	199.024223	84.000000	75.000000
198.938016	199.024223	39.000000	66.000000
199.024223	199.110429	78.000000	75.000000
199.024223	199.110429	36.000000	60.000000
199.110429	199.778943	90.000000	103.000000
199.110429	199.193993	32.000000	70.000000
199.193993	199.277558	36.000000	60.000000
199.277558	199.361122	39.000000	60.000000
199.361122	199.444686	42.000000	66.000000
199.444686	199.528250	39.000000	66.000000
199.528250	199.611815	36.000000	60.000000
199.611815	199.695379	33.000000	70.000000
199.695379	199.778943	36.000000	60.000000
199.778943	199.864412	78.000000	77.000000
199.778943	199.864412	39.000000	60.000000
199.864412	199.949880	75.000000	76.000000
199.864412	199.949880	42.000000	66.000000
199.949880	200.035349	72.000000	75.000000
199.949880	200.035349	39.000000	66.000000
200.035349	200.120818	66.000000	75.000000
200.035349	200.120818	36.000000	60.000000
200.120818	200.791250	78.000000	94.000000
200.120818	200.204623	32.000000	70.000000
200.204623	200.288429	36.000000	60.000000
200.288429	200.372235	39.000000	60.000000
200.372235	200.456040	42.000000	60.000000
200.456040	200.539846	39.000000	66.000000
200.539846	200.623652	36.000000	60.000000
200.623652	200.707444	33.000000	70.000000
200.707444	200.791250	36.000000	60.000000
200.791250	200.877456	66.000000	72.000000
200.791250	200.877456	39.000000	60.000000
200.877456	200.963662	63.000000	71.000000
200.877456	200.963662	42.000000	61.000000
200.963662	201.049869	60.000000	69.000000
200.963662	201.049869	39.000000	66.000000
201.049869	201.136075	54.000000	69.000000
201.049869	201.136075	36.000000	60.000000
201.136075	201.303203	66.000000	91.000000
201.136075	201.219639	32.000000	70.000000
201.219639	201.303203	36.000000	60.000000
201.303203	201.389410	66.000000	74.000000
201.303203	201.389410	39.000000	60.000000
201.389410	201.475616	63.000000	70.000000
201.389410	201.475616	42.000000	61.000000
201.475616	201.561822	60.000000	70.000000
201.475616	201.561822	39.000000	66.000000
201.561822	201.648028	54.000000	69.000000
201.561822	201.648028	36.000000	60.000000
201.648028	201.816096	66.000000	89.000000
201.648028	201.732062	33.000000	70.000000
201.732062	201.816096	36.000000	60.000000
201.816096	201.902557	66.000000	74.000000
201.816096	201.902557	39.000000	60.000000
201.902557	201.989018	63.000000	72.000000
201.902557	201.989018	42.000000	60.000000
201.989018	202.075479	60.000000	72.000000
201.989018	202.075479	39.000000	66.000000
202.075479	202.161940	54.000000	71.000000
202.075479	202.161940	36.000000	60.000000
202.161940	202.655668	66.000000	84.000000
202.161940	202.330477	32.000000	60.000000
202.161940	202.330477	44.000000	60.000000
202.330477	202.479527	56.000000	36.000000
202.493072	202.642123	56.000000	36.000000
202.655668	202.805939	56.000000	39.000000
202.819605	202.969875	56.000000	37.000000
202.983541	203.133812	56.000000	36.000000
203.147478	203.297749	56.000000	39.000000
203.311415	203.460465	56.000000	35.000000
203.474010	203.623061	56.000000	35.000000
203.636606	203.786877	56.000000	39.000000
203.800543	203.950814	56.000000	36.000000
203.964479	204.114750	56.000000	36.000000
204.128416	204.622144	63.000000	58.000000
204.128416	204.622144	60.000000	58.000000
204.296953	204.446003	56.000000	36.000000
204.459548	204.608599	56.000000	36.000000
204.622144	204.772415	56.000000	39.000000
204.786081	204.936352	56.000000	37.000000
204.950018	205.100288	56.000000	36.000000
205.113954	205.603082	72.000000	59.000000
205.113954	205.603082	75.000000	59.000000
205.113954	205.277891	54.000000	39.000000
205.277891	205.426941	56.000000	35.000000
205.440487	205.589537	56.000000	35.000000
205.603082	205.753353	56.000000	39.000000
205.767019	205.917290	56.000000	36.000000
205.930956	206.081227	56.000000	36.000000
206.094892	206.588620	65.000000	55.000000
206.094892	206.588620	61.000000	55.000000
206.263429	206.412480	56.000000	36.000000
206.426025	206.575075	56.000000	36.000000
206.588620	206.738891	56.000000	39.000000
206.752557	206.902828	56.000000	37.000000
206.916494	207.066765	56.000000	36.000000
207.080430	207.569558	73.000000	58.000000
207.080430	207.569558	77.000000	58.000000
207.080430	207.244367	53.000000	39.000000
207.244367	207.393418	56.000000	35.000000
207.406963	207.556013	56.000000	35.000000
207.569558	207.719829	56.000000	39.000000
207.733495	207.883766	56.000000	36.000000
207.897432	208.047703	56.000000	36.000000
208.061369	210.021904	61.000000	61.000000
208.061369	210.021904	70.000000	61.000000
208.061369	210.021904	65.000000	61.000000
208.225305	208.374356	56.000000	38.000000
208.387901	208.536951	56.000000	38.000000
208.550497	208.713092	53.000000	40.000000
208.550497	208.713092	49.000000	40.000000
208.713092	208.862143	56.000000	37.000000
208.875688	209.024738	56.000000	37.000000
209.038283	209.202220	49.000000	37.000000
209.038283	209.202220	53.000000	37.000000
209.202220	209.352491	56.000000	37.000000
209.366157	209.516428	56.000000	37.000000
209.530094	209.694030	49.000000	37.000000
209.530094	209.694030	53.000000	37.000000
209.694030	209.844301	56.000000	37.000000
209.857967	210.008238	56.000000	37.000000
210.021904	210.348879	60.000000	52.000000
210.021904	210.348879	63.000000	52.000000
210.021904	210.348879	68.000000	52.000000
210.021904	210.185840	48.000000	39.000000
210.021904	210.185840	51.000000	39.000000
210.185840	210.335293	56.000000	37.000000
210.348879	210.498331	56.000000	37.000000
210.511917	210.662188	56.000000	38.000000
210.675854	210.826124	56.000000	37.000000
210.839790	210.990061	56.000000	37.000000
211.003727	211.153998	56.000000	37.000000
211.167664	211.316714	56.000000	37.000000
211.330259	211.479310	56.000000	37.000000
211.492855	211.896152	60.000000	55.000000
211.492855	211.896152	63.000000	55.000000
211.492855	211.643126	56.000000	38.000000
211.656792	211.803066	56.000000	37.000000
211.816370	211.978657	56.000000	37.000000
211.896152	211.995153	60.000000	50.000000
211.896152	211.995153	63.000000	50.000000
211.995153	212.323026	61.000000	55.000000
211.995153	212.323026	65.000000	55.000000
211.995153	212.145423	56.000000	39.000000
212.159089	212.309360	56.000000	37.000000
212.323026	212.483892	60.000000	50.000000
212.323026	212.483892	63.000000	50.000000
212.323026	212.470481	56.000000	37.000000
212.483892	212.631346	56.000000	38.000000
212.644757	212.792212	56.000000	37.000000
212.805623	212.969559	72.000000	58.000000
212.805623	212.969559	75.000000	58.000000
212.805623	212.955894	56.000000	37.000000
212.969559	213.118610	56.000000	38.000000
213.132155	213.281206	56.000000	39.000000
213.294751	213.457346	87.000000	56.000000
213.294751	213.457346	84.000000	56.000000
213.457346	213.619942	54.000000	44.000000
213.457346	213.619942	51.000000	44.000000
213.619942	213.770629	56.000000	37.000000
213.784321	213.940292	56.000000	37.000000
213.864533	213.956626	60.000000	53.000000
213.864533	213.956626	63.000000	53.000000
213.956626	214.284500	63.000000	57.000000
213.956626	214.284500	66.000000	57.000000
213.956626	214.106897	56.000000	39.000000
214.120563	214.270834	56.000000	37.000000
214.284500	214.445781	65.000000	52.000000
214.284500	214.445781	61.000000	52.000000
214.284500	214.432343	56.000000	37.000000
214.445781	214.593625	56.000000	37.000000
214.607063	214.754906	56.000000	37.000000
214.768344	214.932281	73.000000	60.000000
214.768344	214.932281	77.000000	60.000000
214.768344	214.918615	56.000000	37.000000
214.932281	215.082551	56.000000	38.000000
215.096217	215.244865	56.000000	37.000000
215.258384	215.417171	89.000000	56.000000
215.258384	215.417171	85.000000	56.000000
215.258384	215.407032	56.000000	37.000000
215.420550	215.582717	49.000000	44.000000
215.420550	215.582717	53.000000	48.000000
215.582717	215.733403	56.000000	37.000000
215.747096	215.914037	56.000000	37.000000
215.829292	215.930988	65.000000	52.000000
215.829292	215.930988	61.000000	52.000000
215.930988	217.895547	61.000000	61.000000
215.930988	217.895547	65.000000	61.000000
215.930988	217.895547	70.000000	61.000000
216.094925	216.243976	56.000000	38.000000
216.257521	216.406571	56.000000	38.000000
216.420116	216.584053	53.000000	40.000000
216.420116	216.584053	49.000000	40.000000
216.584053	216.734324	56.000000	37.000000
216.747990	216.898261	56.000000	37.000000
216.911926	217.075863	49.000000	37.000000
216.911926	217.075863	53.000000	37.000000
217.075863	217.226134	56.000000	37.000000
217.239800	217.390071	56.000000	37.000000
217.403737	217.567673	49.000000	36.000000
217.403737	217.567673	53.000000	36.000000
217.567673	217.717944	56.000000	37.000000
217.731610	217.881881	56.000000	37.000000
217.895547	218.222079	60.000000	56.000000
217.895547	218.222079	63.000000	56.000000
217.895547	218.222079	68.000000	56.000000
218.059484	218.208534	56.000000	38.000000
218.222079	218.371130	56.000000	38.000000
218.384675	218.548612	51.000000	40.000000
218.384675	218.548612	48.000000	40.000000
218.548612	218.698882	56.000000	37.000000
218.712548	218.862819	56.000000	37.000000
218.876485	219.857423	61.000000	52.000000
218.876485	219.857423	64.000000	52.000000
218.876485	219.857423	69.000000	52.000000
219.040422	219.189472	56.000000	37.000000
219.203017	219.352068	56.000000	37.000000
219.365613	219.529550	49.000000	36.000000
219.365613	219.529550	52.000000	36.000000
219.529550	219.679820	56.000000	37.000000
219.693486	219.843757	56.000000	37.000000
219.857423	220.183955	60.000000	57.000000
219.857423	220.183955	68.000000	57.000000
219.857423	220.183955	63.000000	57.000000
220.021360	220.170410	56.000000	38.000000
220.183955	220.333006	56.000000	38.000000
220.346551	220.510488	51.000000	40.000000
220.346551	220.510488	48.000000	40.000000
220.510488	220.660759	56.000000	37.000000
220.674424	220.824695	56.000000	37.000000
220.838361	221.819299	73.000000	58.000000
220.838361	221.819299	81.000000	58.000000
220.838361	221.819299	76.000000	58.000000
221.002298	221.151348	56.000000	37.000000
221.164894	221.313944	56.000000	37.000000
221.327489	221.491426	49.000000	36.000000
221.327489	221.491426	52.000000	36.000000
221.491426	221.641697	56.000000	37.000000
221.655363	221.805633	56.000000	37.000000
221.819299	222.147615	75.000000	56.000000
221.819299	222.147615	80.000000	56.000000
221.819299	222.147615	72.000000	56.000000
221.983236	222.133923	56.000000	37.000000
222.147615	222.298302	56.000000	36.000000
222.311995	222.478667	51.000000	38.000000
222.311995	222.478667	48.000000	38.000000
222.478667	222.631446	56.000000	34.000000
222.645340	222.798118	56.000000	34.000000
222.812012	223.144446	62.000000	46.000000
222.812012	223.144446	59.000000	46.000000
222.812012	223.144446	68.000000	46.000000
222.979610	223.130713	56.000000	32.000000
223.144446	223.295548	56.000000	32.000000
223.309281	223.474116	47.000000	30.000000
223.309281	223.474116	50.000000	30.000000
223.474116	223.625218	56.000000	31.000000
223.638951	223.797457	56.000000	30.000000
223.811860	224.144293	61.000000	44.000000
223.811860	224.144293	58.000000	44.000000
223.811860	224.144293	67.000000	44.000000
223.977151	224.130359	56.000000	31.000000
224.144293	224.297501	56.000000	30.000000
224.311435	224.478108	49.000000	32.000000
224.311435	224.478108	46.000000	32.000000
224.478108	224.630887	56.000000	28.000000
224.644780	224.801918	56.000000	28.000000
224.816200	225.152121	57.000000	39.000000
224.816200	225.152121	60.000000	39.000000
224.816200	225.152121	66.000000	39.000000
224.985220	225.138186	56.000000	27.000000
225.152121	225.305637	56.000000	27.000000
225.319638	225.488094	48.000000	25.000000
225.319638	225.488094	45.000000	25.000000
225.488094	225.643341	56.000000	26.000000
225.657503	225.816008	56.000000	25.000000
225.830411	226.177369	66.000000	47.000000
225.830411	226.177369	60.000000	47.000000
225.830411	226.177369	56.000000	47.000000
226.005855	226.348722	44.000000	44.000000
226.177369	226.348722	43.000000	39.000000
226.348722	226.690275	44.000000	44.000000
226.519659	226.690275	46.000000	41.000000
226.690275	227.029185	44.000000	45.000000
226.860649	227.029185	75.000000	67.000000
226.860649	227.029185	42.000000	41.000000
227.029185	227.194476	77.000000	61.000000
227.029185	227.858887	44.000000	41.000000
227.194476	227.359768	75.000000	59.000000
227.194476	227.359768	42.000000	48.000000
227.359768	227.528304	73.000000	69.000000
227.359768	227.528304	41.000000	42.000000
227.528304	227.693596	75.000000	66.000000
227.528304	227.693596	42.000000	42.000000
227.693596	227.858887	73.000000	64.000000
227.693596	227.858887	41.000000	47.000000
227.858887	228.033311	72.000000	70.000000
227.858887	228.033311	39.000000	55.000000
228.033311	228.203283	78.000000	66.000000
228.033311	228.373254	44.000000	48.000000
228.203283	228.373254	43.000000	42.000000
228.373254	228.713198	44.000000	48.000000
228.543226	228.713198	46.000000	45.000000
228.713198	229.876768	44.000000	49.000000
228.883170	229.050298	78.000000	73.000000
228.883170	229.050298	39.000000	46.000000
229.050298	229.215133	80.000000	70.000000
229.050298	229.215133	41.000000	46.000000
229.215133	229.379969	78.000000	70.000000
229.215133	229.379969	39.000000	50.000000
229.379969	229.547097	77.000000	74.000000
229.379969	229.547097	37.000000	47.000000
229.547097	229.711932	78.000000	71.000000
229.547097	229.711932	39.000000	47.000000
229.711932	229.876768	77.000000	68.000000
229.711932	229.876768	37.000000	51.000000
229.876768	230.049180	75.000000	81.000000
229.876768	230.049180	36.000000	57.000000
230.049180	230.218200	87.000000	72.000000
230.049180	230.387219	44.000000	52.000000
230.218200	230.387219	43.000000	47.000000
230.387219	230.725258	44.000000	52.000000
230.556239	230.725258	46.000000	49.000000
230.725258	231.901354	44.000000	53.000000
230.894278	231.061406	87.000000	83.000000
230.894278	231.061406	36.000000	50.000000
231.061406	231.228535	89.000000	77.000000
231.061406	231.228535	37.000000	50.000000
231.228535	231.395663	87.000000	73.000000
231.228535	231.395663	36.000000	54.000000
231.395663	231.562792	85.000000	77.000000
231.395663	231.562792	34.000000	50.000000
231.562792	231.729921	87.000000	75.000000
231.562792	231.729921	36.000000	51.000000
231.729921	231.901354	85.000000	73.000000
231.729921	231.901354	34.000000	51.000000
231.901354	232.071326	84.000000	76.000000
231.901354	232.071326	32.000000	55.000000
232.071326	232.239393	85.000000	75.000000
232.071326	232.239393	31.000000	49.000000
232.239393	232.407460	84.000000	72.000000
232.239393	232.407460	32.000000	49.000000
232.407460	232.575528	82.000000	76.000000
232.407460	232.575528	34.000000	53.000000
232.575528	232.743595	84.000000	73.000000
232.575528	232.743595	32.000000	46.000000
232.743595	232.909342	82.000000	69.000000
232.743595	232.909342	34.000000	45.000000
232.909342	233.077799	80.000000	74.000000
232.909342	233.077799	35.000000	50.000000
233.077799	233.247207	82.000000	70.000000
233.077799	233.247207	34.000000	44.000000
233.247207	233.417581	80.000000	67.000000
233.247207	233.417581	35.000000	42.000000
233.417581	233.588934	78.000000	72.000000
233.417581	233.588934	36.000000	47.000000
233.588934	233.761266	80.000000	66.000000
233.588934	233.761266	35.000000	40.000000
233.761266	233.934671	78.000000	63.000000
233.761266	233.934671	36.000000	40.000000
233.934671	234.307217	77.000000	73.000000
233.934671	234.125604	37.000000	36.000000
234.125604	234.307217	49.000000	32.000000
234.125604	234.307217	41.000000	26.000000
234.125604	234.307217	44.000000	26.000000
234.307217	234.488829	37.000000	33.000000
234.488829	234.670442	49.000000	36.000000
234.488829	234.670442	41.000000	28.000000
234.488829	234.670442	44.000000	28.000000
234.670442	234.852054	37.000000	33.000000
234.852054	235.033667	49.000000	33.000000
234.852054	235.033667	44.000000	26.000000
234.852054	235.033667	41.000000	26.000000
235.033667	235.215279	37.000000	36.000000
235.215279	235.396892	49.000000	33.000000
235.215279	235.396892	41.000000	26.000000
235.215279	235.396892	44.000000	26.000000
235.396892	235.578504	37.000000	33.000000
235.578504	236.046523	65.000000	55.000000
235.578504	236.046523	53.000000	44.000000
235.578504	235.760117	44.000000	28.000000
235.578504	235.760117	41.000000	28.000000
235.578504	235.760117	49.000000	36.000000
235.760117	235.951050	37.000000	33.000000
235.951050	236.167598	49.000000	35.000000
235.951050	236.167598	41.000000	27.000000
235.951050	236.167598	44.000000	27.000000
236.046523	236.167598	68.000000	49.000000
236.046523	236.167598	56.000000	39.000000
236.167598	236.682462	73.000000	53.000000
236.167598	236.682462	61.000000	49.000000
236.167598	236.339005	37.000000	36.000000
236.339005	236.510733	49.000000	32.000000
236.339005	236.510733	44.000000	26.000000
236.339005	236.510733	41.000000	26.000000
236.510733	236.682462	37.000000	33.000000
236.682462	237.138102	77.000000	57.000000
236.682462	237.138102	65.000000	52.000000
236.682462	236.862519	49.000000	36.000000
236.682462	236.862519	44.000000	28.000000
236.682462	236.862519	41.000000	28.000000
236.862519	237.046237	37.000000	33.000000
237.046237	237.243084	41.000000	26.000000
237.046237	237.243084	49.000000	33.000000
237.046237	237.243084	44.000000	26.000000
237.138102	237.243084	73.000000	50.000000
237.138102	237.243084	61.000000	46.000000
237.243084	237.774068	72.000000	53.000000
237.243084	237.774068	60.000000	49.000000
237.243084	237.423959	39.000000	36.000000
237.423959	237.599013	51.000000	33.000000
237.423959	237.599013	42.000000	26.000000
237.423959	237.599013	44.000000	26.000000
237.599013	237.774068	39.000000	33.000000
237.774068	238.233933	63.000000	52.000000
237.774068	238.233933	75.000000	57.000000
237.774068	237.952596	44.000000	28.000000
237.774068	237.952596	42.000000	28.000000
237.774068	237.952596	51.000000	36.000000
237.952596	238.140149	39.000000	33.000000
238.140149	238.346787	42.000000	27.000000
238.140149	238.346787	44.000000	27.000000
238.140149	238.346787	51.000000	35.000000
238.233933	238.346787	60.000000	46.000000
238.233933	238.346787	72.000000	50.000000
238.346787	238.861973	73.000000	53.000000
238.346787	238.861973	61.000000	49.000000
238.346787	238.518516	41.000000	36.000000
238.518516	238.690244	44.000000	26.000000
238.518516	238.690244	53.000000	32.000000
238.518516	238.690244	49.000000	26.000000
238.690244	238.861973	41.000000	33.000000
238.861973	239.921151	56.000000	52.000000
238.861973	239.921151	68.000000	52.000000
238.861973	239.038502	53.000000	36.000000
238.861973	239.038502	49.000000	28.000000
238.861973	239.038502	44.000000	28.000000
239.038502	239.215032	41.000000	33.000000
239.215032	239.391562	44.000000	26.000000
239.215032	239.391562	53.000000	33.000000
239.215032	239.391562	49.000000	26.000000
239.391562	239.568091	41.000000	36.000000
239.568091	239.744621	53.000000	33.000000
239.568091	239.744621	44.000000	26.000000
239.568091	239.744621	49.000000	26.000000
239.744621	239.921151	41.000000	33.000000
239.921151	240.379018	58.000000	52.000000
239.921151	240.379018	70.000000	57.000000
239.921151	240.097681	49.000000	28.000000
239.921151	240.097681	54.000000	36.000000
239.921151	240.097681	51.000000	28.000000
240.097681	240.285234	42.000000	33.000000
240.285234	240.491483	49.000000	27.000000
240.285234	240.491483	54.000000	35.000000
240.285234	240.491483	51.000000	27.000000
240.379018	240.491483	66.000000	53.000000
240.491483	241.005300	65.000000	59.000000
240.491483	240.662755	44.000000	37.000000
240.662755	240.834028	49.000000	27.000000
240.662755	240.834028	56.000000	33.000000
240.662755	240.834028	53.000000	27.000000
240.834028	241.005300	44.000000	34.000000
241.005300	241.462242	68.000000	61.000000
241.005300	241.185867	49.000000	30.000000
241.005300	241.185867	56.000000	38.000000
241.005300	241.185867	53.000000	30.000000
241.185867	241.370121	44.000000	34.000000
241.370121	241.567224	49.000000	28.000000
241.370121	241.567224	56.000000	35.000000
241.370121	241.567224	53.000000	28.000000
241.462242	241.567224	65.000000	55.000000
241.567224	242.098207	63.000000	63.000000
241.567224	241.748098	44.000000	40.000000
241.748098	241.923153	48.000000	29.000000
241.748098	241.923153	56.000000	36.000000
241.748098	241.923153	51.000000	29.000000
241.923153	242.098207	44.000000	36.000000
242.098207	242.564885	66.000000	66.000000
242.098207	242.276735	48.000000	32.000000
242.098207	242.276735	56.000000	41.000000
242.098207	242.276735	51.000000	32.000000
242.276735	242.468835	44.000000	37.000000
242.468835	242.682795	48.000000	30.000000
242.468835	242.682795	56.000000	37.000000
242.468835	242.682795	51.000000	30.000000
242.564885	242.682795	63.000000	59.000000
242.682795	243.233949	60.000000	72.000000
242.682795	242.866513	45.000000	51.000000
242.866513	243.050231	48.000000	33.000000
242.866513	243.050231	53.000000	33.000000
242.866513	243.050231	57.000000	41.000000
243.050231	243.233949	45.000000	45.000000
243.233949	244.311232	65.000000	63.000000
243.233949	243.413497	48.000000	29.000000
243.233949	243.413497	53.000000	29.000000
243.233949	243.413497	57.000000	38.000000
243.413497	243.593044	45.000000	36.000000
243.593044	243.772591	48.000000	28.000000
243.593044	243.772591	53.000000	28.000000
243.593044	243.772591	57.000000	38.000000
243.772591	243.952138	45.000000	39.000000
243.952138	244.131685	48.000000	28.000000
243.952138	244.131685	53.000000	28.000000
243.952138	244.131685	57.000000	36.000000
244.131685	244.311232	45.000000	39.000000
244.311232	244.772117	73.000000	60.000000
244.311232	244.772117	61.000000	56.000000
244.311232	244.490780	53.000000	27.000000
244.311232	244.490780	58.000000	35.000000
244.311232	244.490780	49.000000	27.000000
244.490780	244.678333	46.000000	33.000000
244.678333	244.893648	49.000000	27.000000
244.678333	244.893648	53.000000	27.000000
244.678333	244.893648	58.000000	34.000000
244.772117	244.893648	77.000000	58.000000
244.772117	244.893648	65.000000	53.000000
244.893648	245.424725	82.000000	60.000000
244.893648	245.424725	70.000000	51.000000
244.893648	245.070674	46.000000	37.000000
245.070674	245.247700	49.000000	27.000000
245.070674	245.247700	53.000000	27.000000
245.070674	245.247700	58.000000	34.000000
245.247700	245.424725	46.000000	36.000000
245.424725	245.875940	85.000000	62.000000
245.424725	245.875940	73.000000	57.000000
245.424725	245.603522	49.000000	30.000000
245.424725	245.603522	53.000000	30.000000
245.424725	245.603522	58.000000	39.000000
245.603522	245.785134	46.000000	37.000000
245.785134	245.980922	53.000000	29.000000
245.785134	245.980922	58.000000	38.000000
245.785134	245.980922	49.000000	29.000000
245.875940	245.980922	70.000000	53.000000
245.875940	245.980922	82.000000	58.000000
245.980922	246.511919	81.000000	61.000000
245.980922	246.511919	69.000000	57.000000
245.980922	246.161810	48.000000	40.000000
246.161810	246.336865	51.000000	29.000000
246.161810	246.336865	53.000000	29.000000
246.161810	246.336865	60.000000	38.000000
246.336865	246.511919	48.000000	39.000000
246.511919	246.976438	72.000000	59.000000
246.511919	246.976438	84.000000	65.000000
246.511919	246.695101	51.000000	34.000000
246.511919	246.695101	60.000000	42.000000
246.511919	246.695101	53.000000	34.000000
246.695101	246.882654	48.000000	40.000000
246.882654	247.112185	53.000000	33.000000
246.882654	247.112185	60.000000	42.000000
246.882654	247.112185	51.000000	33.000000
246.976438	247.112185	69.000000	58.000000
246.976438	247.112185	81.000000	63.000000
247.112185	247.643262	70.000000	51.000000
247.112185	247.643262	82.000000	57.000000
247.112185	247.289211	49.000000	37.000000
247.289211	247.466237	53.000000	27.000000
247.289211	247.466237	58.000000	27.000000
247.289211	247.466237	61.000000	34.000000
247.466237	247.643262	49.000000	36.000000
247.643262	248.730456	77.000000	52.000000
247.643262	248.730456	65.000000	52.000000
247.643262	247.822059	53.000000	30.000000
247.643262	247.822059	58.000000	30.000000
247.643262	247.822059	61.000000	39.000000
247.822059	248.003671	49.000000	37.000000
248.003671	248.199459	58.000000	29.000000
248.003671	248.199459	61.000000	38.000000
248.003671	248.199459	53.000000	29.000000
248.199459	248.380347	49.000000	40.000000
248.380347	248.555402	53.000000	29.000000
248.380347	248.555402	58.000000	29.000000
248.380347	248.555402	61.000000	38.000000
248.555402	248.730456	49.000000	39.000000
248.730456	249.186848	78.000000	68.000000
248.730456	249.299313	66.000000	62.000000
248.730456	248.905511	54.000000	28.000000
248.730456	248.905511	63.000000	36.000000
248.730456	248.905511	58.000000	28.000000
248.905511	249.093064	51.000000	33.000000
249.093064	249.299313	54.000000	27.000000
249.093064	249.299313	63.000000	35.000000
249.093064	249.299313	58.000000	27.000000
249.186848	249.299313	75.000000	63.000000
249.299313	249.813131	73.000000	70.000000
249.299313	249.470586	53.000000	37.000000
249.470586	249.641858	58.000000	27.000000
249.470586	249.641858	65.000000	33.000000
249.470586	249.641858	61.000000	27.000000
249.641858	249.813131	53.000000	34.000000
249.813131	250.270072	77.000000	67.000000
249.813131	249.993697	58.000000	30.000000
249.813131	249.993697	65.000000	38.000000
249.813131	249.993697	61.000000	30.000000
249.993697	250.177952	53.000000	34.000000
250.177952	250.375054	61.000000	28.000000
250.177952	250.375054	65.000000	35.000000
250.177952	250.375054	58.000000	28.000000
250.270072	250.375054	73.000000	61.000000
250.375054	250.906038	72.000000	70.000000
250.375054	250.555929	53.000000	40.000000
250.555929	250.730983	60.000000	29.000000
250.555929	250.730983	57.000000	29.000000
250.555929	250.730983	63.000000	37.000000
250.730983	250.906038	53.000000	37.000000
250.906038	251.372716	75.000000	71.000000
250.906038	251.084566	60.000000	33.000000
250.906038	251.084566	57.000000	33.000000
250.906038	251.084566	63.000000	42.000000
251.084566	251.276666	53.000000	38.000000
251.276666	251.490626	60.000000	31.000000
251.276666	251.490626	57.000000	31.000000
251.276666	251.490626	63.000000	38.000000
251.372716	251.490626	72.000000	67.000000
251.490626	252.041793	70.000000	78.000000
251.490626	251.674357	54.000000	53.000000
251.674357	251.858075	66.000000	43.000000
251.674357	251.858075	61.000000	34.000000
251.674357	251.858075	58.000000	34.000000
251.858075	252.041793	54.000000	47.000000
252.041793	253.119076	73.000000	73.000000
252.041793	252.221340	66.000000	46.000000
252.041793	252.221340	61.000000	35.000000
252.041793	252.221340	58.000000	35.000000
252.221340	252.400887	54.000000	43.000000
252.400887	252.580435	66.000000	46.000000
252.400887	252.580435	61.000000	34.000000
252.400887	252.580435	58.000000	34.000000
252.580435	252.759982	54.000000	47.000000
252.759982	252.939529	66.000000	44.000000
252.759982	252.939529	61.000000	34.000000
252.759982	252.939529	58.000000	34.000000
252.939529	253.119076	54.000000	47.000000
253.119076	253.572316	70.000000	73.000000
253.119076	253.572316	82.000000	79.000000
253.119076	253.298623	58.000000	35.000000
253.119076	253.298623	61.000000	35.000000
253.119076	253.298623	66.000000	46.000000
253.298623	253.481403	54.000000	42.000000
253.481403	253.676118	66.000000	44.000000
253.481403	253.676118	58.000000	35.000000
253.481403	253.676118	61.000000	35.000000
253.572316	253.676118	85.000000	75.000000
253.572316	253.676118	73.000000	69.000000
253.676118	254.207195	78.000000	71.000000
253.676118	254.207195	90.000000	80.000000
253.676118	253.853144	54.000000	48.000000
253.853144	254.030169	66.000000	44.000000
253.853144	254.030169	61.000000	35.000000
253.853144	254.030169	58.000000	35.000000
254.030169	254.207195	54.000000	47.000000
254.207195	254.658410	82.000000	74.000000
254.207195	254.658410	94.000000	81.000000
254.207195	254.385992	66.000000	50.000000
254.207195	254.385992	61.000000	39.000000
254.207195	254.385992	58.000000	39.000000
254.385992	254.567604	54.000000	48.000000
254.567604	254.763392	58.000000	37.000000
254.567604	254.763392	66.000000	49.000000
254.567604	254.763392	61.000000	37.000000
254.658410	254.763392	90.000000	75.000000
254.658410	254.763392	78.000000	69.000000
254.763392	255.294389	77.000000	74.000000
254.763392	255.294389	89.000000	80.000000
254.763392	254.944280	56.000000	52.000000
254.944280	255.119335	68.000000	49.000000
254.944280	255.119335	59.000000	37.000000
254.944280	255.119335	61.000000	37.000000
255.119335	255.294389	56.000000	50.000000
255.294389	255.752337	80.000000	77.000000
255.294389	255.752337	92.000000	85.000000
255.294389	255.474567	61.000000	44.000000
255.294389	255.474567	68.000000	55.000000
255.294389	255.474567	59.000000	44.000000
255.474567	255.659747	56.000000	52.000000
255.659747	255.861824	59.000000	42.000000
255.659747	255.861824	68.000000	55.000000
255.659747	255.861824	61.000000	42.000000
255.752337	255.861824	77.000000	75.000000
255.752337	255.861824	89.000000	82.000000
255.861824	256.392902	78.000000	80.000000
255.861824	256.392902	90.000000	89.000000
255.861824	256.038850	58.000000	48.000000
256.038850	256.215876	70.000000	44.000000
256.038850	256.215876	61.000000	35.000000
256.038850	256.215876	66.000000	35.000000
256.215876	256.392902	58.000000	47.000000
256.392902	258.018966	73.000000	68.000000
256.392902	258.018966	85.000000	81.000000
256.392902	256.571698	70.000000	42.000000
256.392902	256.571698	61.000000	33.000000
256.392902	256.571698	66.000000	33.000000
256.571698	256.753311	58.000000	40.000000
256.753311	256.934923	61.000000	33.000000
256.753311	256.934923	66.000000	33.000000
256.753311	256.934923	70.000000	44.000000
256.934923	257.108663	58.000000	50.000000
257.108663	257.281653	70.000000	49.000000
257.108663	257.281653	66.000000	37.000000
257.108663	257.281653	61.000000	37.000000
257.281653	257.453824	58.000000	52.000000
257.453824	257.625177	66.000000	38.000000
257.453824	257.625177	70.000000	51.000000
257.453824	257.625177	61.000000	38.000000
257.625177	257.812730	58.000000	48.000000
257.812730	258.018966	66.000000	41.000000
257.812730	258.018966	70.000000	55.000000
257.812730	258.018966	61.000000	41.000000
258.018966	258.550043	90.000000	89.000000
258.018966	258.550043	78.000000	80.000000
258.018966	258.195991	59.000000	57.000000
258.195991	258.373017	71.000000	44.000000
258.195991	258.373017	62.000000	35.000000
258.195991	258.373017	66.000000	35.000000
258.373017	258.550043	59.000000	47.000000
258.550043	260.168369	86.000000	83.000000
258.550043	260.168369	74.000000	70.000000
258.550043	258.728839	71.000000	42.000000
258.550043	258.728839	62.000000	33.000000
258.550043	258.728839	66.000000	33.000000
258.728839	258.910452	59.000000	40.000000
258.910452	259.092064	62.000000	33.000000
258.910452	259.092064	66.000000	33.000000
258.910452	259.092064	71.000000	44.000000
259.092064	259.266140	59.000000	50.000000
259.266140	259.437815	71.000000	49.000000
259.266140	259.437815	66.000000	37.000000
259.266140	259.437815	62.000000	37.000000
259.437815	259.607076	59.000000	53.000000
259.607076	259.774580	66.000000	38.000000
259.607076	259.774580	71.000000	52.000000
259.607076	259.774580	62.000000	38.000000
259.774580	259.962133	59.000000	49.000000
259.962133	260.168369	66.000000	42.000000
259.962133	260.168369	71.000000	56.000000
259.962133	260.168369	62.000000	42.000000
260.168369	260.693143	79.000000	96.000000
260.168369	260.693143	91.000000	96.000000
260.168369	260.343302	59.000000	60.000000
260.343302	260.518223	62.000000	36.000000
260.343302	260.518223	67.000000	36.000000
260.343302	260.518223	71.000000	46.000000
260.518223	260.693143	59.000000	49.000000
260.693143	262.303167	74.000000	74.000000
260.693143	262.303167	86.000000	89.000000
260.693143	260.871939	62.000000	34.000000
260.693143	260.871939	67.000000	34.000000
260.693143	260.871939	71.000000	45.000000
260.871939	261.053552	59.000000	42.000000
261.053552	261.235164	67.000000	35.000000
261.053552	261.235164	71.000000	47.000000
261.053552	261.235164	62.000000	35.000000
261.235164	261.406920	59.000000	53.000000
261.406920	261.576489	62.000000	39.000000
261.406920	261.576489	67.000000	39.000000
261.406920	261.576489	71.000000	51.000000
261.576489	261.744006	59.000000	56.000000
261.744006	261.909378	62.000000	40.000000
261.744006	261.909378	71.000000	55.000000
261.744006	261.909378	67.000000	40.000000
261.909378	262.096932	59.000000	51.000000
262.096932	262.303167	62.000000	44.000000
262.096932	262.303167	71.000000	59.000000
262.096932	262.303167	67.000000	44.000000
262.303167	262.826426	79.000000	102.000000
262.303167	262.826426	91.000000	102.000000
262.303167	262.477578	60.000000	64.000000
262.477578	262.652002	64.000000	38.000000
262.477578	262.652002	67.000000	38.000000
262.477578	262.652002	72.000000	48.000000
262.652002	262.826426	60.000000	51.000000
262.826426	264.427330	88.000000	94.000000
262.826426	264.427330	76.000000	80.000000
262.826426	263.005222	64.000000	37.000000
262.826426	263.005222	67.000000	37.000000
262.826426	263.005222	72.000000	48.000000
263.005222	263.186835	60.000000	47.000000
263.186835	263.368447	67.000000	37.000000
263.186835	263.368447	72.000000	50.000000
263.186835	263.368447	64.000000	37.000000
263.368447	263.539559	60.000000	57.000000
263.539559	263.708337	64.000000	41.000000
263.539559	263.708337	67.000000	41.000000
263.539559	263.708337	72.000000	55.000000
263.708337	263.874782	60.000000	59.000000
263.874782	264.039644	64.000000	44.000000
263.874782	264.039644	72.000000	58.000000
263.874782	264.039644	67.000000	44.000000
264.039644	264.223134	60.000000	55.000000
264.223134	264.427330	64.000000	47.000000
264.223134	264.427330	72.000000	61.000000
264.223134	264.427330	67.000000	47.000000
264.427330	265.447630	61.000000	102.000000
264.509299	265.447630	64.000000	78.000000
264.591267	265.447630	67.000000	78.000000
264.673235	265.447630	70.000000	78.000000
264.755204	265.447630	73.000000	78.000000
264.942114	265.354168	79.000000	75.000000
265.024525	265.271757	82.000000	71.000000
265.106936	265.189346	85.000000	70.000000
265.189346	265.354168	88.000000	70.000000
265.271757	265.354168	91.000000	73.000000
265.354168	265.447630	79.000000	71.000000
265.447630	266.470035	64.000000	101.000000
265.530269	266.470035	67.000000	78.000000
265.612908	266.470035	70.000000	78.000000
265.695547	266.470035	73.000000	78.000000
265.778186	266.470035	76.000000	79.000000
265.964519	266.376573	79.000000	77.000000
266.046930	266.294162	82.000000	72.000000
266.129341	266.211752	85.000000	72.000000
266.211752	266.376573	88.000000	70.000000
266.294162	266.376573	91.000000	74.000000
266.376573	266.470035	79.000000	72.000000
266.470035	267.458550	67.000000	101.000000
266.552674	267.458550	70.000000	84.000000
266.635313	267.458550	73.000000	84.000000
266.717952	267.458550	76.000000	84.000000
266.962234	267.375214	79.000000	77.000000
267.044645	267.291878	82.000000	71.000000
267.127056	267.209467	85.000000	71.000000
267.209467	267.375214	88.000000	70.000000
267.291878	267.375214	91.000000	76.000000
267.375214	267.458550	79.000000	71.000000
267.458550	268.451800	70.000000	100.000000
267.538990	268.451800	73.000000	84.000000
267.619416	268.451800	76.000000	86.000000
267.938170	268.358338	79.000000	77.000000
268.022204	268.274305	82.000000	71.000000
268.106237	268.190271	85.000000	73.000000
268.190271	268.358338	88.000000	70.000000
268.274305	268.358338	91.000000	76.000000
268.358338	268.451800	79.000000	71.000000
268.451800	268.942148	73.000000	96.000000
268.533393	268.942148	76.000000	84.000000
268.614691	268.942148	82.000000	77.000000
268.614691	268.942148	79.000000	84.000000
268.695988	268.942148	85.000000	71.000000
268.777286	268.858584	88.000000	74.000000
268.858584	268.942148	91.000000	70.000000
268.942148	269.431974	76.000000	98.000000
269.023446	269.431974	79.000000	84.000000
269.104744	269.431974	85.000000	77.000000
269.104744	269.431974	82.000000	84.000000
269.186042	269.431974	88.000000	72.000000
269.267339	269.348637	91.000000	74.000000
269.348637	269.431974	94.000000	70.000000
269.431974	269.513486	79.000000	100.000000
269.513486	269.595012	82.000000	84.000000
269.595012	269.676538	85.000000	84.000000
269.676538	269.758063	88.000000	73.000000
269.758063	269.839589	91.000000	74.000000
269.839589	269.923153	94.000000	73.000000
269.923153	270.004679	82.000000	100.000000
270.004679	270.086205	85.000000	84.000000
270.086205	270.167731	88.000000	84.000000
270.167731	270.249257	88.000000	73.000000
270.249257	270.330782	91.000000	74.000000
270.330782	270.416492	94.000000	73.000000
270.416492	270.497133	85.000000	102.000000
270.497133	270.577774	88.000000	84.000000
270.577774	270.658414	88.000000	77.000000
270.658414	270.739055	91.000000	75.000000
270.739055	270.900350	94.000000	74.000000
270.900350	270.979931	82.000000	97.000000
270.979931	271.059512	85.000000	84.000000
271.059512	271.138946	85.000000	77.000000
271.138946	271.218312	88.000000	75.000000
271.218312	271.376764	91.000000	74.000000
271.376764	271.455916	79.000000	96.000000
271.455916	271.534867	82.000000	84.000000
271.534867	271.613818	82.000000	77.000000
271.613818	271.692621	85.000000	75.000000
271.692621	271.850027	88.000000	74.000000
271.850027	271.928562	76.000000	96.000000
271.928562	272.007097	79.000000	84.000000
272.007097	272.085431	79.000000	77.000000
272.085431	272.163765	82.000000	75.000000
272.163765	272.320084	85.000000	74.000000
272.320084	272.398137	73.000000	96.000000
272.398137	272.476055	76.000000	84.000000
272.476055	272.553973	76.000000	77.000000
272.553973	272.631690	79.000000	72.000000
272.631690	272.786990	82.000000	74.000000
272.786990	272.864506	70.000000	96.000000
272.864506	272.941955	73.000000	84.000000
272.941955	273.019672	73.000000	77.000000
273.019672	273.097389	76.000000	75.000000
273.097389	273.252823	79.000000	74.000000
273.252823	273.330540	67.000000	96.000000
273.330540	273.408257	70.000000	84.000000
273.408257	273.485974	70.000000	77.000000
273.485974	273.563691	73.000000	75.000000
273.563691	273.719125	76.000000	74.000000
273.719125	273.796842	64.000000	96.000000
273.796842	273.874559	67.000000	84.000000
273.874559	273.952277	67.000000	77.000000
273.952277	274.029994	70.000000	75.000000
274.029994	274.185428	73.000000	74.000000
274.185428	274.263158	61.000000	91.000000
274.263158	274.340875	64.000000	80.000000
274.340875	274.418592	64.000000	72.000000
274.418592	274.496309	67.000000	71.000000
274.496309	274.651743	70.000000	70.000000
274.651743	274.729460	58.000000	91.000000
274.729460	274.807178	61.000000	80.000000
274.807178	274.884895	61.000000	72.000000
274.884895	274.962612	64.000000	71.000000
274.962612	275.118046	67.000000	70.000000
275.118046	275.195763	55.000000	91.000000
275.195763	275.273480	58.000000	80.000000
275.273480	275.351197	58.000000	72.000000
275.351197	275.428914	61.000000	71.000000
275.428914	275.584348	64.000000	70.000000
275.584348	275.662065	52.000000	91.000000
275.662065	275.739782	55.000000	80.000000
275.739782	275.817499	55.000000	72.000000
275.817499	275.895216	58.000000	71.000000
275.895216	276.050865	61.000000	70.000000
276.050865	276.129051	49.000000	91.000000
276.129051	276.207520	52.000000	80.000000
276.207520	276.286323	52.000000	72.000000
276.286323	276.365408	55.000000	71.000000
276.365408	276.524557	58.000000	70.000000
276.524557	276.604634	46.000000	91.000000
276.604634	276.684926	49.000000	80.000000
276.684926	276.765500	49.000000	72.000000
276.765500	276.846436	52.000000	71.000000
276.846436	277.009259	55.000000	70.000000
277.009259	277.091160	43.000000	91.000000
277.091160	277.173424	46.000000	80.000000
277.173424	277.255996	46.000000	72.000000
277.255996	277.338796	49.000000	71.000000
277.338796	277.505468	52.000000	70.000000
277.505468	277.589341	40.000000	91.000000
277.589341	277.673535	43.000000	80.000000
277.673535	277.758119	43.000000	72.000000
277.758119	277.843024	46.000000	71.000000
277.843024	278.013237	49.000000	70.000000
278.013237	278.103145	46.000000	71.000000
278.013237	278.103145	43.000000	71.000000
278.013237	278.372868	37.000000	104.000000
278.103145	278.193053	52.000000	63.000000
278.193053	278.282961	46.000000	71.000000
278.193053	278.282961	43.000000	71.000000
278.282961	278.372868	52.000000	63.000000
278.372868	278.462776	46.000000	71.000000
278.372868	278.462776	43.000000	71.000000
278.462776	278.552684	52.000000	63.000000
278.552684	278.640660	46.000000	71.000000
278.552684	278.640660	43.000000	71.000000
278.552684	278.728637	73.000000	106.000000
278.640660	278.728637	52.000000	63.000000
278.728637	278.816613	46.000000	71.000000
278.728637	278.816613	43.000000	71.000000
278.728637	278.904590	73.000000	100.000000
278.816613	278.904590	52.000000	63.000000
278.904590	278.992566	43.000000	71.000000
278.904590	278.992566	46.000000	71.000000
278.904590	279.080543	73.000000	100.000000
278.992566	279.080543	52.000000	63.000000
279.080543	279.168519	46.000000	71.000000
279.080543	279.168519	43.000000	71.000000
279.080543	279.432449	73.000000	105.000000
279.168519	279.256496	52.000000	63.000000
279.256496	279.344472	43.000000	71.000000
279.256496	279.344472	46.000000	71.000000
279.344472	279.432449	52.000000	63.000000
279.432449	279.522625	46.000000	71.000000
279.432449	279.522625	43.000000	71.000000
279.522625	279.612801	52.000000	63.000000
279.612801	279.700777	46.000000	71.000000
279.612801	279.700777	43.000000	71.000000
279.612801	279.788754	37.000000	98.000000
279.700777	279.788754	52.000000	63.000000
279.788754	279.876730	46.000000	71.000000
279.788754	279.876730	43.000000	71.000000
279.788754	279.964707	37.000000	93.000000
279.876730	279.964707	52.000000	63.000000
279.964707	280.052683	43.000000	71.000000
279.964707	280.052683	46.000000	71.000000
279.964707	280.140660	37.000000	93.000000
280.052683	280.140660	52.000000	63.000000
280.140660	280.230567	43.000000	71.000000
280.140660	280.230567	46.000000	71.000000
280.140660	280.500291	37.000000	100.000000
280.230567	280.320475	52.000000	63.000000
280.320475	280.410383	46.000000	71.000000
280.320475	280.410383	43.000000	71.000000
280.410383	280.500291	52.000000	63.000000
280.500291	280.590198	43.000000	71.000000
280.500291	280.590198	46.000000	71.000000
280.590198	280.680093	52.000000	63.000000
280.680093	280.768069	43.000000	71.000000
280.680093	280.768069	46.000000	71.000000
280.680093	280.856046	73.000000	106.000000
280.768069	280.856046	52.000000	63.000000
280.856046	280.944022	46.000000	71.000000
280.856046	280.944022	43.000000	71.000000
280.856046	281.031999	73.000000	100.000000
280.944022	281.031999	52.000000	63.000000
281.031999	281.119975	43.000000	71.000000
281.031999	281.119975	46.000000	71.000000
281.031999	281.207952	73.000000	100.000000
281.119975	281.207952	52.000000	63.000000
281.207952	281.295928	43.000000	71.000000
281.207952	281.295928	46.000000	71.000000
281.207952	281.559858	73.000000	105.000000
281.295928	281.383905	52.000000	63.000000
281.383905	281.471881	43.000000	71.000000
281.383905	281.471881	46.000000	71.000000
281.471881	281.559858	52.000000	63.000000
281.559858	281.650034	43.000000	71.000000
281.559858	281.650034	46.000000	71.000000
281.650034	281.740210	52.000000	63.000000
281.740210	281.828186	46.000000	71.000000
281.740210	281.828186	43.000000	71.000000
281.740210	281.916163	37.000000	98.000000
281.828186	281.916163	52.000000	63.000000
281.916163	282.004139	43.000000	71.000000
281.916163	282.004139	46.000000	71.000000
281.916163	282.092116	37.000000	93.000000
282.004139	282.092116	52.000000	63.000000
282.092116	282.180092	46.000000	71.000000
282.092116	282.180092	43.000000	71.000000
282.092116	282.268069	37.000000	93.000000
282.180092	282.268069	52.000000	63.000000
282.268069	282.357976	46.000000	71.000000
282.268069	282.357976	43.000000	71.000000
282.268069	282.627686	36.000000	100.000000
282.357976	282.447871	52.000000	63.000000
282.447871	282.537778	43.000000	71.000000
282.447871	282.537778	46.000000	71.000000
282.537778	282.627686	52.000000	63.000000
282.627686	282.717594	43.000000	71.000000
282.627686	282.717594	46.000000	71.000000
282.717594	282.807488	52.000000	63.000000
282.807488	282.895465	46.000000	71.000000
282.807488	282.895465	43.000000	71.000000
282.807488	282.983441	73.000000	106.000000
282.895465	282.983441	52.000000	63.000000
282.983441	283.071418	43.000000	71.000000
282.983441	283.071418	46.000000	71.000000
282.983441	283.159394	73.000000	100.000000
283.071418	283.159394	52.000000	63.000000
283.159394	283.247371	46.000000	71.000000
283.159394	283.247371	43.000000	71.000000
283.159394	283.335347	73.000000	100.000000
283.247371	283.335347	52.000000	63.000000
283.335347	283.423324	46.000000	71.000000
283.335347	283.423324	43.000000	71.000000
283.335347	283.687253	72.000000	105.000000
283.423324	283.511300	52.000000	63.000000
283.511300	283.599277	43.000000	71.000000
283.511300	283.599277	46.000000	71.000000
283.599277	283.687253	52.000000	63.000000
283.687253	283.777429	43.000000	71.000000
283.687253	283.777429	46.000000	71.000000
283.777429	283.867605	52.000000	63.000000
283.867605	283.955582	46.000000	71.000000
283.867605	283.955582	43.000000	71.000000
283.867605	284.043558	37.000000	98.000000
283.955582	284.043558	52.000000	63.000000
284.043558	284.131535	43.000000	71.000000
284.043558	284.131535	46.000000	71.000000
284.043558	284.219511	37.000000	93.000000
284.131535	284.219511	52.000000	63.000000
284.219511	284.307488	43.000000	71.000000
284.219511	284.307488	46.000000	71.000000
284.219511	284.395464	37.000000	93.000000
284.307488	284.395464	52.000000	63.000000
284.395464	284.485372	43.000000	71.000000
284.395464	284.485372	46.000000	71.000000
284.395464	284.755082	36.000000	100.000000
284.485372	284.575266	52.000000	63.000000
284.575266	284.665174	43.000000	71.000000
284.575266	284.665174	46.000000	71.000000
284.665174	284.755082	52.000000	63.000000
284.755082	284.844989	43.000000	71.000000
284.755082	284.844989	46.000000	71.000000
284.844989	284.934884	52.000000	63.000000
284.934884	285.022860	46.000000	71.000000
284.934884	285.022860	43.000000	71.000000
284.934884	285.110837	73.000000	106.000000
285.022860	285.110837	52.000000	63.000000
285.110837	285.198813	43.000000	71.000000
285.110837	285.198813	46.000000	71.000000
285.110837	285.286790	73.000000	100.000000
285.198813	285.286790	52.000000	63.000000
285.286790	285.374766	46.000000	71.000000
285.286790	285.374766	43.000000	71.000000
285.286790	285.462743	73.000000	100.000000
285.374766	285.462743	52.000000	63.000000
285.462743	285.550719	46.000000	71.000000
285.462743	285.550719	43.000000	71.000000
285.462743	285.814649	72.000000	105.000000
285.550719	285.638696	52.000000	63.000000
285.638696	285.726672	43.000000	71.000000
285.638696	285.726672	46.000000	71.000000
285.726672	285.814649	52.000000	63.000000
285.814649	285.904825	43.000000	71.000000
285.814649	285.904825	46.000000	71.000000
285.904825	285.995000	52.000000	63.000000
285.995000	286.082977	43.000000	71.000000
285.995000	286.082977	46.000000	71.000000
285.995000	286.170954	37.000000	100.000000
286.082977	286.170954	52.000000	63.000000
286.170954	286.258930	46.000000	71.000000
286.170954	286.258930	43.000000	71.000000
286.170954	286.346907	37.000000	96.000000
286.258930	286.346907	52.000000	63.000000
286.346907	286.434883	43.000000	71.000000
286.346907	286.434883	46.000000	71.000000
286.346907	286.522860	37.000000	96.000000
286.434883	286.522860	52.000000	63.000000
286.522860	286.889840	43.000000	65.000000
286.522860	286.889840	52.000000	65.000000
286.522860	286.889840	46.000000	65.000000
286.522860	286.691061	36.000000	59.000000
286.706350	286.874551	36.000000	30.000000
286.889840	287.058041	36.000000	30.000000
287.073330	287.241531	36.000000	32.000000
287.256820	287.425021	36.000000	27.000000
287.440310	287.608511	36.000000	27.000000
287.623800	287.792001	36.000000	30.000000
287.807290	287.975491	36.000000	24.000000
287.990780	288.158981	36.000000	24.000000
288.174270	288.342471	36.000000	28.000000
288.357760	288.525961	36.000000	22.000000
288.541250	288.709451	36.000000	22.000000
288.724740	288.892941	36.000000	24.000000
288.908230	289.076432	36.000000	22.000000
289.091720	289.259922	36.000000	22.000000
289.275210	289.443412	36.000000	24.000000
289.458700	289.626902	36.000000	20.000000
289.642190	289.810392	36.000000	20.000000
289.825680	289.993882	36.000000	23.000000
290.009170	290.177372	36.000000	18.000000
290.192660	290.360862	36.000000	23.000000
290.376150	290.834875	48.000000	27.000000
290.376150	290.834875	60.000000	35.000000
290.376150	290.544352	36.000000	23.000000
290.559640	290.727842	36.000000	20.000000
290.743130	290.911332	36.000000	22.000000
290.834875	290.926620	56.000000	31.000000
290.834875	290.926620	44.000000	25.000000
290.926620	292.599354	41.000000	22.000000
290.926620	292.599354	53.000000	28.000000
290.926620	291.094822	36.000000	23.000000
291.110111	291.278312	36.000000	20.000000
291.293601	291.461802	36.000000	22.000000
291.477091	291.645292	36.000000	23.000000
291.660581	291.828782	36.000000	20.000000
291.844071	292.012272	36.000000	22.000000
292.027561	292.202280	36.000000	23.000000
292.218159	292.392878	36.000000	20.000000
292.408757	292.583476	36.000000	22.000000
292.599354	293.079872	56.000000	35.000000
292.599354	293.079872	44.000000	27.000000
292.599354	292.774074	36.000000	23.000000
292.789952	292.967126	36.000000	20.000000
292.983232	293.168801	36.000000	22.000000
293.079872	293.186584	48.000000	24.000000
293.079872	293.186584	60.000000	30.000000
293.186584	293.711386	65.000000	35.000000
293.186584	293.711386	53.000000	27.000000
293.186584	293.346940	36.000000	23.000000
293.361518	293.521874	36.000000	20.000000
293.536452	293.696808	36.000000	22.000000
293.711386	294.176360	68.000000	36.000000
293.711386	294.176360	56.000000	28.000000
293.711386	293.880284	36.000000	23.000000
293.895640	294.067194	36.000000	20.000000
294.082791	294.260421	36.000000	22.000000
294.176360	294.277238	72.000000	31.000000
294.176360	294.277238	60.000000	25.000000
294.277238	294.836332	77.000000	40.000000
294.277238	294.836332	65.000000	31.000000
294.277238	294.446137	36.000000	23.000000
294.461493	294.630391	36.000000	20.000000
294.645747	294.824168	36.000000	22.000000
294.840382	295.393145	65.000000	33.000000
294.840382	295.393145	53.000000	26.000000
294.840382	295.009281	36.000000	23.000000
295.024636	295.193535	36.000000	20.000000
295.208891	295.377789	36.000000	22.000000
295.393145	296.511842	67.000000	26.000000
295.393145	296.511842	64.000000	26.000000
295.393145	296.314417	72.000000	35.000000
295.393145	295.562044	36.000000	23.000000
295.577400	295.746298	36.000000	20.000000
295.761654	295.930553	36.000000	22.000000
295.945909	296.114807	36.000000	23.000000
296.130163	296.299062	36.000000	20.000000
296.314417	296.511842	74.000000	33.000000
296.314417	296.495386	36.000000	22.000000
296.511842	297.597319	65.000000	26.000000
296.511842	297.597319	71.000000	26.000000
296.511842	296.567699	74.000000	33.000000
296.511842	296.665076	36.000000	23.000000
296.567699	296.623408	76.000000	29.000000
296.623408	296.678970	74.000000	33.000000
296.678970	296.734291	76.000000	29.000000
296.678970	296.830743	36.000000	20.000000
296.734291	296.789464	74.000000	33.000000
296.789464	296.844476	76.000000	30.000000
296.844476	296.899274	74.000000	33.000000
296.844476	296.995659	36.000000	22.000000
296.899274	296.954299	76.000000	29.000000
296.954299	297.009472	74.000000	33.000000
297.009472	297.064954	76.000000	30.000000
297.009472	297.162519	36.000000	23.000000
297.064954	297.120583	74.000000	28.000000
297.120583	297.178291	76.000000	33.000000
297.178291	297.273268	74.000000	28.000000
297.178291	297.360506	36.000000	20.000000
297.273268	297.377954	72.000000	30.000000
297.377954	297.482641	76.000000	35.000000
297.377954	297.578208	36.000000	22.000000
297.482641	297.597319	74.000000	31.000000
297.597319	297.971139	72.000000	35.000000
297.597319	297.971139	64.000000	19.000000
297.597319	297.971139	67.000000	22.000000
297.597319	297.768659	36.000000	23.000000
297.784229	297.955568	36.000000	20.000000
297.971139	298.142478	36.000000	22.000000
298.158048	298.329388	36.000000	23.000000
298.344958	298.516298	36.000000	20.000000
298.531868	298.703208	36.000000	22.000000
298.718778	298.903958	36.000000	23.000000
298.920789	299.096514	37.000000	20.000000
299.112486	299.288211	37.000000	22.000000
299.304184	299.799105	61.000000	35.000000
299.304184	299.799105	49.000000	27.000000
299.304184	299.478903	37.000000	23.000000
299.494782	299.680753	37.000000	20.000000
299.697664	299.911705	37.000000	22.000000
299.799105	299.934222	58.000000	31.000000
299.799105	299.934222	46.000000	25.000000
299.934222	301.611542	54.000000	28.000000
299.934222	301.611542	42.000000	22.000000
299.934222	300.103121	37.000000	23.000000
300.118476	300.287375	37.000000	20.000000
300.302731	300.471630	37.000000	22.000000
300.486985	300.655884	37.000000	23.000000
300.671240	300.840139	37.000000	20.000000
300.855494	301.024393	37.000000	22.000000
301.039749	301.214468	37.000000	23.000000
301.230347	301.405066	37.000000	20.000000
301.420944	301.595664	37.000000	22.000000
301.611542	302.097291	46.000000	27.000000
301.611542	302.097291	58.000000	35.000000
301.611542	301.786262	37.000000	23.000000
301.802140	301.982505	37.000000	20.000000
301.998907	302.186219	37.000000	22.000000
302.097291	302.204002	61.000000	30.000000
302.097291	302.204002	49.000000	24.000000
302.204002	302.728804	54.000000	27.000000
302.204002	302.728804	66.000000	35.000000
302.204002	302.364358	37.000000	23.000000
302.378936	302.539292	37.000000	20.000000
302.553870	302.714226	37.000000	22.000000
302.728804	303.191364	70.000000	36.000000
302.728804	303.191364	58.000000	28.000000
302.728804	302.897703	37.000000	23.000000
302.913058	303.083137	37.000000	20.000000
303.098600	303.275425	37.000000	22.000000
303.191364	303.292242	61.000000	25.000000
303.191364	303.292242	73.000000	31.000000
303.292242	303.855386	78.000000	40.000000
303.292242	303.855386	66.000000	31.000000
303.292242	303.461141	37.000000	23.000000
303.476497	303.645396	37.000000	20.000000
303.660751	303.839172	37.000000	22.000000
303.855386	304.408149	54.000000	26.000000
303.855386	304.408149	66.000000	33.000000
303.855386	304.024285	37.000000	23.000000
304.039640	304.208539	37.000000	20.000000
304.223895	304.392794	37.000000	22.000000
304.408149	305.526846	65.000000	26.000000
304.408149	305.526846	68.000000	26.000000
304.408149	305.329422	73.000000	35.000000
304.408149	304.577048	37.000000	23.000000
304.592404	304.761303	37.000000	20.000000
304.776658	304.945557	37.000000	22.000000
304.960913	305.129812	37.000000	23.000000
305.145167	305.314066	37.000000	20.000000
305.329422	305.526846	75.000000	33.000000
305.329422	305.510390	37.000000	22.000000
305.526846	305.583025	75.000000	28.000000
305.526846	306.615126	66.000000	26.000000
305.526846	306.615126	72.000000	26.000000
305.526846	305.680899	37.000000	23.000000
305.583025	305.639043	77.000000	25.000000
305.639043	305.694833	75.000000	28.000000
305.694833	305.750462	77.000000	25.000000
305.694833	305.847383	37.000000	20.000000
305.750462	305.805943	75.000000	28.000000
305.805943	305.861197	77.000000	25.000000
305.861197	305.916222	75.000000	29.000000
305.861197	306.012728	37.000000	22.000000
305.916222	305.971248	77.000000	25.000000
305.971248	306.026582	75.000000	29.000000
306.026582	306.082211	77.000000	26.000000
306.026582	306.180326	37.000000	23.000000
306.082211	306.138149	75.000000	29.000000
306.138149	306.196098	77.000000	27.000000
306.196098	306.291075	75.000000	24.000000
306.196098	306.378314	37.000000	20.000000
306.291075	306.395761	73.000000	30.000000
306.395761	306.500448	77.000000	35.000000
306.395761	306.596015	37.000000	22.000000
306.500448	306.615126	75.000000	31.000000
306.615126	306.985164	73.000000	35.000000
306.615126	306.985164	65.000000	19.000000
306.615126	306.985164	68.000000	22.000000
306.615126	306.784722	37.000000	23.000000
306.800145	306.969741	41.000000	20.000000
306.800145	306.969741	35.000000	15.000000
306.985164	307.154760	41.000000	22.000000
306.985164	307.154760	35.000000	16.000000
307.170183	307.339779	41.000000	23.000000
307.170183	307.339779	35.000000	17.000000
307.355202	307.524798	41.000000	20.000000
307.355202	307.524798	35.000000	15.000000
307.540221	307.709817	41.000000	22.000000
307.540221	307.709817	35.000000	16.000000
307.725239	307.894836	41.000000	23.000000
307.725239	307.894836	35.000000	17.000000
307.910258	308.079855	35.000000	15.000000
307.910258	308.079855	41.000000	20.000000
308.095277	308.264873	35.000000	16.000000
308.095277	308.264873	41.000000	22.000000
308.280296	308.449892	35.000000	17.000000
308.280296	308.449892	41.000000	23.000000
308.465315	308.634911	35.000000	15.000000
308.465315	308.634911	41.000000	20.000000
308.650334	308.819930	35.000000	16.000000
308.650334	308.819930	41.000000	22.000000
308.835353	309.755217	72.000000	35.000000
308.835353	309.952628	40.000000	26.000000
309.019326	309.187970	36.000000	20.000000
309.203298	309.371942	36.000000	22.000000
309.387271	309.555915	36.000000	23.000000
309.571244	309.739888	36.000000	20.000000
309.755217	309.903275	74.000000	38.000000
309.755217	309.936172	36.000000	22.000000
309.903275	309.952628	72.000000	38.000000
309.952628	310.008807	74.000000	37.000000
309.952628	311.028248	41.000000	26.000000
310.008807	310.064825	76.000000	32.000000
310.064825	310.120695	74.000000	37.000000
310.120695	310.176324	76.000000	33.000000
310.120695	310.273313	36.000000	20.000000
310.176324	310.231806	74.000000	37.000000
310.231806	310.287126	76.000000	33.000000
310.287126	310.342219	74.000000	37.000000
310.287126	310.439020	36.000000	22.000000
310.342219	310.397472	76.000000	33.000000
310.397472	310.452873	74.000000	37.000000
310.452873	310.508435	76.000000	34.000000
310.452873	310.606041	36.000000	23.000000
310.508435	310.564145	74.000000	31.000000
310.564145	310.620002	76.000000	37.000000
310.620002	310.704197	74.000000	31.000000
310.620002	310.791435	36.000000	20.000000
310.704197	310.808883	72.000000	34.000000
310.808883	310.913570	76.000000	40.000000
310.808883	311.009137	36.000000	22.000000
310.913570	311.028248	74.000000	35.000000
311.028248	311.406788	72.000000	35.000000
311.028248	311.201747	40.000000	26.000000
311.217518	311.391017	36.000000	20.000000
311.406788	311.580287	36.000000	22.000000
311.596058	311.771784	49.000000	27.000000
311.596058	311.771784	36.000000	23.000000
311.787756	311.967491	36.000000	20.000000
311.787756	311.967491	49.000000	26.000000
311.983826	312.170266	49.000000	26.000000
311.983826	312.170266	36.000000	22.000000
312.187218	312.356814	48.000000	26.000000
312.187218	312.356814	36.000000	26.000000
312.372237	312.541833	36.000000	20.000000
312.557256	312.726852	36.000000	22.000000
312.742274	312.911871	36.000000	23.000000
312.927293	313.096890	36.000000	20.000000
313.112312	313.281908	36.000000	22.000000
313.297331	314.217195	76.000000	40.000000
313.297331	314.414606	43.000000	26.000000
313.481304	313.649948	36.000000	20.000000
313.665277	313.833921	36.000000	22.000000
313.849250	314.017894	36.000000	23.000000
314.033222	314.201866	36.000000	20.000000
314.217195	314.365253	77.000000	38.000000
314.217195	314.398151	36.000000	22.000000
314.365253	314.414606	76.000000	38.000000
314.414606	314.470785	77.000000	37.000000
314.414606	315.492090	44.000000	26.000000
314.470785	314.526803	79.000000	32.000000
314.526803	314.582673	77.000000	37.000000
314.582673	314.638383	79.000000	33.000000
314.582673	314.735452	36.000000	20.000000
314.638383	314.693945	77.000000	37.000000
314.693945	314.749265	79.000000	33.000000
314.749265	314.804586	77.000000	37.000000
314.749265	314.901776	36.000000	22.000000
314.804586	314.860068	79.000000	33.000000
314.860068	314.915710	77.000000	37.000000
314.915710	314.971500	79.000000	34.000000
314.915710	315.069495	36.000000	23.000000
314.971500	315.027438	77.000000	31.000000
315.027438	315.083536	79.000000	37.000000
315.083536	315.168039	77.000000	31.000000
315.083536	315.255278	36.000000	20.000000
315.168039	315.272726	76.000000	34.000000
315.272726	315.377412	79.000000	40.000000
315.272726	315.472980	36.000000	22.000000
315.377412	315.492090	77.000000	35.000000
315.492090	315.860197	76.000000	35.000000
315.492090	315.660801	43.000000	26.000000
315.676144	315.844855	36.000000	20.000000
315.860197	316.028908	36.000000	22.000000
316.044250	316.220539	36.000000	23.000000
316.044250	316.220539	49.000000	27.000000
316.236565	316.417480	49.000000	26.000000
316.236565	316.417480	36.000000	20.000000
316.433922	316.620362	49.000000	26.000000
316.433922	316.620362	36.000000	22.000000
316.637314	316.806427	48.000000	26.000000
316.637314	316.806427	36.000000	26.000000
316.821796	316.990910	36.000000	20.000000
317.006279	317.175392	36.000000	22.000000
317.190761	317.382459	76.000000	35.000000
317.190761	317.382459	79.000000	35.000000
317.190761	317.366486	36.000000	23.000000
317.382459	317.581801	76.000000	31.000000
317.382459	317.581801	79.000000	31.000000
317.382459	317.565184	36.000000	20.000000
317.581801	317.787982	79.000000	35.000000
317.581801	317.787982	76.000000	35.000000
317.581801	317.770803	36.000000	22.000000
317.787982	318.158369	82.000000	35.000000
317.787982	318.158369	79.000000	35.000000
317.787982	317.957739	36.000000	26.000000
317.973175	318.142933	36.000000	20.000000
318.158369	318.328126	36.000000	22.000000
318.343562	318.521553	49.000000	27.000000
318.343562	318.521553	36.000000	23.000000
318.537741	318.720466	36.000000	20.000000
318.537741	318.720466	49.000000	26.000000
318.737083	318.927399	36.000000	22.000000
318.737083	318.927399	49.000000	26.000000
318.944699	319.317365	48.000000	26.000000
318.944699	319.116039	36.000000	26.000000
319.131609	319.301889	36.000000	20.000000
319.317365	319.487646	36.000000	22.000000
319.503122	319.698561	79.000000	66.000000
319.503122	319.698561	82.000000	66.000000
319.503122	319.682280	36.000000	43.000000
319.698561	319.899231	79.000000	62.000000
319.698561	319.899231	82.000000	62.000000
319.698561	319.882507	36.000000	38.000000
319.899231	320.104715	82.000000	68.000000
319.899231	320.104715	79.000000	68.000000
319.899231	320.087589	36.000000	41.000000
320.104715	320.187582	88.000000	71.000000
320.104715	320.256609	36.000000	50.000000
320.187582	320.270382	82.000000	64.000000
320.270382	320.353021	91.000000	72.000000
320.270382	320.421699	36.000000	40.000000
320.353021	320.435432	88.000000	64.000000
320.435432	320.517775	94.000000	73.000000
320.435432	320.586266	36.000000	43.000000
320.517775	320.599958	91.000000	66.000000
320.599958	320.681927	88.000000	74.000000
320.599958	320.750189	36.000000	47.000000
320.681927	320.763815	91.000000	67.000000
320.763815	320.845555	82.000000	74.000000
320.763815	320.913495	36.000000	43.000000
320.845555	320.927081	88.000000	68.000000
320.927081	321.008526	79.000000	75.000000
320.927081	321.076279	36.000000	45.000000
321.008526	321.089837	82.000000	68.000000
321.089837	321.170921	76.000000	75.000000
321.089837	321.238485	36.000000	55.000000
321.170921	321.252004	79.000000	69.000000
321.252004	321.333087	70.000000	76.000000
321.252004	321.400652	36.000000	45.000000
321.333087	321.414170	76.000000	67.000000
321.414170	321.495254	67.000000	76.000000
321.414170	321.562818	36.000000	48.000000
321.495254	321.576337	70.000000	70.000000
321.576337	321.657420	64.000000	77.000000
321.576337	321.724985	36.000000	52.000000
321.657420	321.738503	67.000000	68.000000
321.738503	321.819586	58.000000	78.000000
321.738503	321.887151	36.000000	47.000000
321.819586	321.900670	64.000000	71.000000
321.900670	321.981753	55.000000	75.000000
321.900670	322.049318	36.000000	50.000000
321.981753	322.062836	58.000000	63.000000
322.062836	322.211846	36.000000	61.000000
322.062836	322.143986	52.000000	76.000000
322.143986	322.225432	55.000000	65.000000
322.225432	322.392627	36.000000	49.000000
322.225432	322.310659	46.000000	77.000000
322.310659	322.409016	52.000000	62.000000
322.409016	322.491427	43.000000	76.000000
322.409016	322.560292	36.000000	52.000000
322.491427	322.574065	46.000000	69.000000
322.574065	322.726375	36.000000	57.000000
322.574065	322.657013	49.000000	80.000000
322.657013	322.740269	46.000000	70.000000
322.740269	322.823752	52.000000	81.000000
322.740269	322.893624	36.000000	51.000000
322.823752	322.907625	49.000000	71.000000
322.907625	323.062161	36.000000	54.000000
322.907625	322.991820	55.000000	86.000000
322.991820	323.076242	52.000000	78.000000
323.076242	323.246952	58.000000	94.000000
323.076242	323.246952	43.000000	66.000000
323.076242	323.246952	31.000000	61.000000
323.246952	323.491851	36.000000	58.000000
323.491851	323.736750	36.000000	57.000000
323.736750	323.981649	49.000000	93.000000
323.736750	323.981649	61.000000	93.000000
323.736750	323.981649	56.000000	93.000000
323.736750	323.981649	41.000000	62.000000
323.736750	323.981649	29.000000	57.000000
323.981649	324.302509	36.000000	71.000000
324.302509	324.623368	36.000000	60.000000
324.623368	327.009731	52.000000	48.000000
324.623368	327.009731	36.000000	40.000000
324.623368	327.009731	60.000000	48.000000
324.623368	327.009731	40.000000	40.000000
324.623368	327.009731	55.000000	48.000000
327.077913	327.639984	60.000000	35.000000
327.077913	327.639984	36.000000	27.000000
327.639984	327.735524	57.000000	31.000000
327.639984	327.735524	33.000000	25.000000
327.735524	327.959408	53.000000	103.000000
327.735524	327.959408	29.000000	81.000000
327.959408	328.286397	57.000000	75.000000
327.959408	328.286397	53.000000	75.000000
327.959408	328.286397	60.000000	85.000000
327.959408	328.286397	65.000000	101.000000
328.122902	328.449891	33.000000	61.000000
328.122902	328.449891	29.000000	61.000000
328.122902	328.449891	41.000000	81.000000
328.122902	328.449891	36.000000	69.000000
328.286397	328.613385	60.000000	72.000000
328.286397	328.613385	65.000000	81.000000
328.286397	328.613385	69.000000	96.000000
328.286397	328.613385	57.000000	72.000000
328.449891	328.776866	33.000000	57.000000
328.449891	328.776866	36.000000	64.000000
328.449891	328.776866	41.000000	76.000000
328.449891	328.776866	29.000000	57.000000
328.613385	328.940360	60.000000	71.000000
328.613385	328.940360	65.000000	71.000000
328.613385	328.940360	72.000000	96.000000
328.613385	328.940360	69.000000	79.000000
328.776866	329.103854	33.000000	55.000000
328.776866	329.103854	29.000000	55.000000
328.776866	329.103854	41.000000	73.000000
328.776866	329.103854	36.000000	63.000000
328.940360	329.267348	69.000000	72.000000
328.940360	329.267348	77.000000	95.000000
328.940360	329.267348	72.000000	80.000000
328.940360	329.267348	65.000000	72.000000
329.103854	329.430842	33.000000	61.000000
329.103854	329.430842	36.000000	69.000000
329.103854	329.430842	41.000000	81.000000
329.103854	329.430842	29.000000	61.000000
329.267348	329.594336	77.000000	86.000000
329.267348	329.594336	69.000000	76.000000
329.267348	329.594336	72.000000	76.000000
329.267348	329.594336	81.000000	103.000000
329.430842	329.772905	33.000000	55.000000
329.430842	329.772905	29.000000	55.000000
329.430842	329.772905	41.000000	73.000000
329.430842	329.772905	36.000000	63.000000
329.594336	329.772905	77.000000	78.000000
329.594336	329.772905	84.000000	94.000000
329.594336	329.772905	72.000000	71.000000
329.594336	329.772905	81.000000	78.000000
329.772905	331.380045	81.000000	86.000000
329.772905	331.380045	84.000000	86.000000
329.772905	331.380045	89.000000	103.000000
329.772905	331.380045	77.000000	76.000000
329.772905	331.380045	29.000000	61.000000
329.772905	331.380045	33.000000	61.000000
329.772905	331.380045	36.000000	69.000000
329.772905	331.380045	41.000000	81.000000
331.380045	331.824125	57.000000	41.000000
331.380045	331.824125	33.000000	33.000000
331.824125	331.922428	60.000000	35.000000
331.824125	331.922428	36.000000	28.000000
331.922428	332.405910	65.000000	40.000000
331.922428	332.405910	41.000000	34.000000
332.405910	332.834286	69.000000	43.000000
332.405910	332.834286	45.000000	34.000000
332.834286	332.927211	72.000000	37.000000
332.834286	332.927211	48.000000	29.000000
332.927211	333.442290	77.000000	40.000000
332.927211	333.442290	53.000000	34.000000
333.446031	333.971865	65.000000	40.000000
333.446031	333.971865	41.000000	31.000000
333.971865	334.195749	60.000000	103.000000
333.971865	334.195749	52.000000	81.000000
333.971865	334.195749	55.000000	81.000000
334.195749	334.522738	60.000000	85.000000
334.195749	334.522738	64.000000	101.000000
334.195749	334.522738	55.000000	75.000000
334.359244	334.686232	40.000000	61.000000
334.359244	334.686232	48.000000	81.000000
334.359244	334.686232	43.000000	69.000000
334.522738	334.849726	60.000000	72.000000
334.522738	334.849726	67.000000	96.000000
334.522738	334.849726	64.000000	81.000000
334.686232	335.013207	43.000000	64.000000
334.686232	335.013207	40.000000	57.000000
334.686232	335.013207	48.000000	76.000000
334.849726	335.176701	67.000000	81.000000
334.849726	335.176701	72.000000	98.000000
334.849726	335.176701	64.000000	72.000000
335.013207	335.340195	40.000000	55.000000
335.013207	335.340195	48.000000	73.000000
335.013207	335.340195	43.000000	63.000000
335.176701	335.503689	76.000000	95.000000
335.176701	335.503689	67.000000	72.000000
335.176701	335.503689	72.000000	80.000000
335.340195	335.667183	43.000000	69.000000
335.340195	335.667183	48.000000	81.000000
335.340195	335.667183	40.000000	61.000000
335.503689	335.830678	79.000000	103.000000
335.503689	335.830678	72.000000	76.000000
335.503689	335.830678	76.000000	86.000000
335.667183	336.133700	40.000000	55.000000
335.667183	336.133700	48.000000	73.000000
335.667183	336.133700	43.000000	63.000000
335.830678	336.133700	84.000000	94.000000
335.830678	336.133700	76.000000	78.000000
335.830678	336.133700	79.000000	78.000000
336.133700	336.981145	72.000000	41.000000
336.133700	337.163026	64.000000	30.000000
336.133700	337.163026	67.000000	30.000000
336.981145	337.163026	74.000000	45.000000
337.163026	337.219982	74.000000	38.000000
337.163026	338.227367	65.000000	30.000000
337.163026	338.227367	71.000000	30.000000
337.163026	338.227367	68.000000	30.000000
337.219982	337.305049	76.000000	35.000000
337.276751	337.333346	74.000000	38.000000
337.333346	337.389739	76.000000	36.000000
337.389739	337.445945	74.000000	39.000000
337.445945	337.501963	76.000000	36.000000
337.501963	337.557753	74.000000	38.000000
337.557753	337.613235	76.000000	36.000000
337.613235	337.669400	74.000000	39.000000
337.669400	337.726129	76.000000	37.000000
337.726129	337.783434	74.000000	35.000000
337.783434	337.841316	76.000000	39.000000
337.841316	337.928810	74.000000	35.000000
337.928810	338.025262	72.000000	36.000000
338.025262	338.121715	76.000000	41.000000
338.121715	338.227367	74.000000	38.000000
338.227367	338.451251	60.000000	103.000000
338.227367	338.451251	55.000000	81.000000
338.227367	338.451251	52.000000	81.000000
338.451251	338.778239	64.000000	101.000000
338.451251	338.778239	60.000000	85.000000
338.451251	338.778239	55.000000	75.000000
338.614745	338.941734	43.000000	69.000000
338.614745	338.941734	40.000000	61.000000
338.614745	338.941734	48.000000	81.000000
338.778239	339.105228	64.000000	81.000000
338.778239	339.105228	67.000000	96.000000
338.778239	339.105228	60.000000	72.000000
338.941734	339.268709	40.000000	57.000000
338.941734	339.268709	48.000000	76.000000
338.941734	339.268709	43.000000	64.000000
339.105228	339.432203	72.000000	98.000000
339.105228	339.432203	64.000000	72.000000
339.105228	339.432203	67.000000	81.000000
339.268709	339.595697	43.000000	63.000000
339.268709	339.595697	48.000000	73.000000
339.268709	339.595697	40.000000	55.000000
339.432203	339.759191	76.000000	95.000000
339.432203	339.759191	67.000000	72.000000
339.432203	339.759191	72.000000	80.000000
339.595697	339.922685	40.000000	61.000000
339.595697	339.922685	48.000000	81.000000
339.595697	339.922685	43.000000	69.000000
339.759191	340.086179	79.000000	103.000000
339.759191	340.086179	72.000000	76.000000
339.759191	340.086179	76.000000	86.000000
339.922685	340.387687	43.000000	63.000000
339.922685	340.387687	48.000000	73.000000
339.922685	340.387687	40.000000	55.000000
340.086179	340.387687	76.000000	78.000000
340.086179	340.387687	84.000000	94.000000
340.086179	340.387687	79.000000	78.000000
340.387687	341.235131	72.000000	41.000000
340.387687	341.417025	67.000000	30.000000
340.387687	341.417025	64.000000	30.000000
341.235131	341.417025	74.000000	45.000000
341.417025	341.473982	74.000000	44.000000
341.417025	342.481353	68.000000	29.000000
341.417025	342.481353	65.000000	30.000000
341.473982	341.530751	76.000000	39.000000
341.530751	341.587332	74.000000	42.000000
341.587332	341.643726	76.000000	37.000000
341.643726	341.699931	74.000000	41.000000
341.699931	341.755949	76.000000	36.000000
341.755949	341.811739	74.000000	40.000000
341.811739	341.867221	76.000000	37.000000
341.867221	341.923386	74.000000	41.000000
341.923386	342.008694	76.000000	38.000000
342.008694	342.095303	74.000000	37.000000
342.095303	342.182796	76.000000	42.000000
342.182796	342.279249	74.000000	41.000000
342.279249	342.375701	72.000000	48.000000
342.375701	342.481353	74.000000	44.000000
342.481353	342.705237	55.000000	81.000000
342.481353	342.705237	64.000000	103.000000
342.481353	342.705237	58.000000	81.000000
342.705237	343.032226	64.000000	85.000000
342.705237	343.032226	58.000000	85.000000
342.705237	343.032226	67.000000	101.000000
342.868732	343.195720	43.000000	61.000000
342.868732	343.195720	52.000000	81.000000
342.868732	343.195720	46.000000	69.000000
343.032226	343.359214	67.000000	81.000000
343.032226	343.359214	70.000000	96.000000
343.032226	343.359214	64.000000	72.000000
343.195720	343.522695	46.000000	64.000000
343.195720	343.522695	43.000000	57.000000
343.195720	343.522695	52.000000	76.000000
343.359214	343.686189	70.000000	85.000000
343.359214	343.686189	76.000000	101.000000
343.359214	343.686189	67.000000	75.000000
343.522695	343.849683	43.000000	55.000000
343.522695	343.849683	52.000000	73.000000
343.522695	343.849683	46.000000	63.000000
343.686189	344.013177	70.000000	72.000000
343.686189	344.013177	79.000000	95.000000
343.686189	344.013177	76.000000	80.000000
343.849683	344.176671	46.000000	69.000000
343.849683	344.176671	52.000000	81.000000
343.849683	344.176671	43.000000	61.000000
344.013177	344.340166	76.000000	76.000000
344.013177	344.340166	82.000000	103.000000
344.013177	344.340166	79.000000	86.000000
344.176671	344.641673	43.000000	55.000000
344.176671	344.641673	52.000000	73.000000
344.176671	344.641673	46.000000	63.000000
344.340166	344.641673	79.000000	78.000000
344.340166	344.641673	88.000000	94.000000
344.340166	344.641673	82.000000	78.000000
344.641673	345.489117	76.000000	48.000000
344.641673	345.671012	67.000000	36.000000
344.641673	345.671012	70.000000	36.000000
345.489117	345.671012	77.000000	52.000000
345.671012	345.727968	77.000000	46.000000
345.671012	346.735340	68.000000	36.000000
345.671012	346.735340	72.000000	36.000000
345.727968	345.784737	79.000000	41.000000
345.784737	345.841318	77.000000	46.000000
345.841318	345.897712	79.000000	41.000000
345.897712	345.953918	77.000000	46.000000
345.953918	346.009936	79.000000	41.000000
346.009936	346.065726	77.000000	46.000000
346.065726	346.121207	79.000000	42.000000
346.121207	346.177373	77.000000	46.000000
346.177373	346.262680	79.000000	43.000000
346.262680	346.349289	77.000000	40.000000
346.349289	346.436783	79.000000	46.000000
346.436783	346.533235	77.000000	42.000000
346.533235	346.629687	76.000000	48.000000
346.629687	346.735340	77.000000	44.000000
346.735340	346.959224	67.000000	103.000000
346.735340	346.959224	64.000000	81.000000
346.959224	347.286212	76.000000	101.000000
346.959224	347.286212	73.000000	85.000000
347.122718	347.449706	46.000000	61.000000
347.122718	347.449706	52.000000	69.000000
347.122718	347.449706	55.000000	81.000000
347.122718	347.449706	49.000000	61.000000
347.286212	347.613200	76.000000	81.000000
347.286212	347.613200	79.000000	96.000000
347.449706	347.776681	58.000000	57.000000
347.449706	347.776681	64.000000	64.000000
347.449706	347.776681	61.000000	57.000000
347.449706	347.776681	67.000000	76.000000
347.613200	347.940175	82.000000	101.000000
347.613200	347.940175	79.000000	85.000000
347.776681	348.103669	58.000000	55.000000
347.776681	348.103669	64.000000	63.000000
347.776681	348.103669	67.000000	73.000000
347.776681	348.103669	61.000000	55.000000
347.940175	348.267164	82.000000	80.000000
347.940175	348.267164	85.000000	95.000000
348.103669	348.430658	61.000000	61.000000
348.103669	348.430658	64.000000	69.000000
348.103669	348.430658	67.000000	81.000000
348.103669	348.430658	58.000000	61.000000
348.267164	348.594152	85.000000	86.000000
348.267164	348.594152	88.000000	103.000000
348.430658	348.895659	61.000000	55.000000
348.430658	348.895659	58.000000	55.000000
348.430658	348.895659	67.000000	73.000000
348.430658	348.895659	64.000000	63.000000
348.594152	348.895659	88.000000	78.000000
348.594152	348.895659	91.000000	94.000000
348.895659	349.743104	79.000000	79.000000
348.895659	349.924998	76.000000	59.000000
348.895659	349.924998	70.000000	59.000000
348.895659	349.924998	73.000000	59.000000
349.743104	349.924998	80.000000	87.000000
349.924998	350.991726	77.000000	64.000000
349.924998	350.011459	80.000000	76.000000
349.924998	350.991726	71.000000	59.000000
349.924998	350.991726	74.000000	59.000000
350.011459	350.097169	82.000000	68.000000
350.097169	350.182155	80.000000	76.000000
350.182155	350.266430	82.000000	68.000000
350.266430	350.349726	80.000000	76.000000
350.349726	350.433760	82.000000	68.000000
350.433760	350.519067	80.000000	76.000000
350.519067	350.605676	82.000000	67.000000
350.605676	350.693170	80.000000	67.000000
350.693170	350.789622	79.000000	70.000000
350.789622	350.886074	82.000000	79.000000
350.886074	350.991726	80.000000	73.000000
350.991726	351.480854	76.000000	58.000000
350.991726	351.480854	79.000000	58.000000
350.991726	351.155663	60.000000	39.000000
351.155663	351.304714	72.000000	36.000000
351.318259	351.467309	72.000000	36.000000
351.480854	351.631125	72.000000	39.000000
351.644791	351.795062	72.000000	37.000000
351.808728	351.958999	72.000000	36.000000
351.972665	352.122935	72.000000	39.000000
352.136601	352.285652	72.000000	35.000000
352.299197	352.448247	72.000000	35.000000
352.461792	352.612063	72.000000	39.000000
352.625729	352.776000	72.000000	36.000000
352.789666	352.939937	72.000000	36.000000
352.953603	353.440987	77.000000	56.000000
352.953603	353.440987	80.000000	56.000000
353.117539	353.265785	72.000000	38.000000
353.279263	353.427509	72.000000	38.000000
353.440987	353.604924	68.000000	39.000000
353.440987	353.604924	65.000000	39.000000
353.604924	353.755195	72.000000	37.000000
353.768861	353.919131	72.000000	37.000000
353.932797	354.083068	72.000000	41.000000
354.096734	354.245785	72.000000	37.000000
354.259330	354.408380	72.000000	38.000000
354.421925	354.572196	72.000000	46.000000
354.585862	354.736133	72.000000	40.000000
354.749799	354.900070	72.000000	40.000000
354.913735	356.874271	80.000000	75.000000
354.913735	356.874271	77.000000	75.000000
354.913735	356.874271	85.000000	75.000000
355.077672	355.226723	72.000000	38.000000
355.240268	355.389318	72.000000	38.000000
355.402863	355.565459	68.000000	40.000000
355.402863	355.565459	65.000000	40.000000
355.565459	355.714509	72.000000	37.000000
355.728055	355.877105	72.000000	37.000000
355.890650	356.054587	65.000000	37.000000
355.890650	356.054587	68.000000	37.000000
356.054587	356.204858	72.000000	37.000000
356.218524	356.368795	72.000000	37.000000
356.382460	356.546397	65.000000	37.000000
356.382460	356.546397	68.000000	37.000000
356.546397	356.696668	72.000000	37.000000
356.710334	356.860605	72.000000	37.000000
356.874271	357.201245	79.000000	52.000000
356.874271	357.201245	76.000000	52.000000
356.874271	357.201245	84.000000	52.000000
356.874271	357.038207	64.000000	39.000000
356.874271	357.038207	67.000000	39.000000
357.038207	357.187660	60.000000	37.000000
357.201245	357.350698	60.000000	37.000000
357.364284	357.514555	60.000000	38.000000
357.528220	357.678491	60.000000	37.000000
357.692157	357.842428	60.000000	37.000000
357.856094	358.006365	60.000000	37.000000
358.020031	358.169081	60.000000	37.000000
358.182626	358.331677	60.000000	37.000000
358.345222	358.748519	76.000000	56.000000
358.345222	358.748519	79.000000	56.000000
358.345222	358.495493	60.000000	38.000000
358.509159	358.655433	60.000000	37.000000
358.668737	358.831024	60.000000	37.000000
358.748519	358.847519	79.000000	52.000000
358.748519	358.847519	76.000000	52.000000
358.847519	359.175393	80.000000	58.000000
358.847519	359.175393	77.000000	58.000000
358.847519	358.997790	60.000000	39.000000
359.011456	359.161727	60.000000	37.000000
359.175393	359.336258	79.000000	52.000000
359.175393	359.336258	76.000000	52.000000
359.175393	359.322847	60.000000	37.000000
359.336258	359.483713	60.000000	38.000000
359.497124	359.644579	60.000000	37.000000
359.657990	359.821926	67.000000	50.000000
359.657990	359.821926	64.000000	50.000000
359.657990	359.808260	60.000000	37.000000
359.821926	359.970977	60.000000	38.000000
359.984522	360.133572	60.000000	39.000000
360.147118	360.309713	55.000000	49.000000
360.147118	360.309713	52.000000	49.000000
360.147118	360.296168	60.000000	37.000000
360.309713	360.472309	55.000000	44.000000
360.309713	360.472309	58.000000	44.000000
360.472309	360.622995	60.000000	37.000000
360.636688	360.792659	60.000000	37.000000
360.716900	360.808993	79.000000	58.000000
360.716900	360.808993	76.000000	58.000000
360.808993	361.136867	82.000000	61.000000
360.808993	361.136867	79.000000	61.000000
360.808993	360.959264	60.000000	39.000000
360.972930	361.123201	60.000000	37.000000
361.136867	361.298148	77.000000	52.000000
361.136867	361.298148	80.000000	52.000000
361.136867	361.284710	60.000000	37.000000
361.298148	361.445992	60.000000	37.000000
361.459429	361.607273	60.000000	37.000000
361.620711	361.784647	65.000000	49.000000
361.620711	361.784647	68.000000	49.000000
361.620711	361.770982	60.000000	37.000000
361.784647	361.934918	60.000000	38.000000
361.948584	362.097232	60.000000	37.000000
362.110751	362.269538	53.000000	47.000000
362.110751	362.269538	56.000000	47.000000
362.110751	362.259399	60.000000	37.000000
362.272917	362.435084	56.000000	48.000000
362.272917	362.435084	53.000000	44.000000
362.435084	362.585770	60.000000	37.000000
362.599463	362.766404	60.000000	37.000000
362.681659	362.783355	77.000000	52.000000
362.681659	362.783355	80.000000	52.000000
362.783355	364.747914	80.000000	75.000000
362.783355	364.747914	77.000000	75.000000
362.783355	364.747914	85.000000	75.000000
362.947292	363.096342	60.000000	38.000000
363.109888	363.258938	60.000000	38.000000
363.272483	363.436420	53.000000	40.000000
363.272483	363.436420	56.000000	40.000000
363.436420	363.586691	60.000000	37.000000
363.600357	363.750627	60.000000	37.000000
363.764293	363.928230	56.000000	37.000000
363.764293	363.928230	53.000000	37.000000
363.928230	364.078501	60.000000	37.000000
364.092167	364.242438	60.000000	37.000000
364.256104	364.420040	56.000000	36.000000
364.256104	364.420040	53.000000	36.000000
364.420040	364.570311	60.000000	37.000000
364.583977	364.734248	60.000000	37.000000
364.747914	365.074446	79.000000	61.000000
364.747914	365.074446	76.000000	61.000000
364.747914	365.074446	84.000000	61.000000
364.911850	365.060901	60.000000	38.000000
365.074446	365.223496	60.000000	38.000000
365.237042	365.400978	52.000000	40.000000
365.237042	365.400978	55.000000	40.000000
365.400978	365.551249	60.000000	37.000000
365.564915	365.715186	60.000000	37.000000
365.728852	366.709790	66.000000	52.000000
365.728852	366.709790	63.000000	52.000000
365.728852	366.709790	72.000000	52.000000
365.892789	366.041839	60.000000	37.000000
366.055384	366.204435	60.000000	37.000000
366.217980	366.381916	54.000000	36.000000
366.217980	366.381916	51.000000	36.000000
366.381916	366.532187	60.000000	37.000000
366.545853	366.696124	60.000000	37.000000
366.709790	367.040372	65.000000	52.000000
366.709790	367.040372	71.000000	52.000000
366.709790	367.040372	62.000000	52.000000
366.875993	367.026680	60.000000	37.000000
367.040372	367.191059	60.000000	36.000000
367.204752	367.371424	50.000000	38.000000
367.204752	367.371424	53.000000	38.000000
367.371424	367.524203	60.000000	34.000000
367.538097	367.690876	60.000000	34.000000
367.704769	368.037203	61.000000	46.000000
367.704769	368.037203	70.000000	46.000000
367.704769	368.037203	65.000000	46.000000
367.872367	368.023470	60.000000	32.000000
368.037203	368.188305	60.000000	32.000000
368.202038	368.366873	53.000000	30.000000
368.202038	368.366873	49.000000	30.000000
368.366873	368.517975	60.000000	31.000000
368.531708	368.690214	60.000000	30.000000
368.704617	369.207880	60.000000	41.000000
368.704617	369.207880	68.000000	41.000000
368.704617	369.207880	65.000000	41.000000
368.872215	369.025852	48.000000	25.000000
369.039813	369.193879	48.000000	26.000000
369.207880	369.361947	48.000000	28.000000
369.375948	369.530443	48.000000	26.000000
369.544484	369.698980	48.000000	26.000000
369.713021	369.867946	48.000000	28.000000
369.882027	370.036952	48.000000	26.000000
370.051033	370.206400	48.000000	26.000000
370.220522	370.375889	48.000000	28.000000
370.390011	370.545821	48.000000	26.000000
370.559983	370.715792	48.000000	27.000000
370.729954	371.250196	55.000000	41.000000
370.729954	371.250196	46.000000	41.000000
370.729954	371.250196	52.000000	41.000000
370.729954	371.250196	48.000000	41.000000
370.908965	371.079420	36.000000	25.000000
371.079420	371.250196	36.000000	26.000000
371.250196	371.421214	36.000000	28.000000
371.421214	371.592647	36.000000	26.000000
371.592647	371.764403	36.000000	26.000000
371.764403	371.936399	36.000000	28.000000
371.936399	372.109643	36.000000	26.000000
372.109643	372.284738	36.000000	26.000000
372.284738	372.461643	36.000000	28.000000
372.461643	372.640480	36.000000	26.000000
372.640480	372.821301	36.000000	27.000000
372.821301	373.012234	29.000000	28.000000
373.012234	373.193847	33.000000	20.000000
373.012234	373.193847	36.000000	20.000000
373.012234	373.193847	41.000000	25.000000
373.193847	373.375459	29.000000	26.000000
373.375459	373.557072	33.000000	22.000000
373.375459	373.557072	36.000000	22.000000
373.375459	373.557072	41.000000	28.000000
373.557072	373.738684	29.000000	26.000000
373.738684	373.920297	33.000000	20.000000
373.738684	373.920297	36.000000	20.000000
373.738684	373.920297	41.000000	26.000000
373.920297	374.101909	29.000000	28.000000
374.101909	374.283522	33.000000	20.000000
374.101909	374.283522	36.000000	20.000000
374.101909	374.283522	41.000000	26.000000
374.283522	374.465134	29.000000	26.000000
374.465134	374.933153	57.000000	44.000000
374.465134	374.933153	45.000000	40.000000
374.465134	374.646747	36.000000	22.000000
374.465134	374.646747	33.000000	22.000000
374.465134	374.646747	41.000000	28.000000
374.646747	374.837680	29.000000	26.000000
374.837680	375.054228	41.000000	27.000000
374.837680	375.054228	33.000000	21.000000
374.837680	375.054228	36.000000	21.000000
374.933153	375.054228	60.000000	40.000000
374.933153	375.054228	48.000000	37.000000
375.054228	375.569092	53.000000	38.000000
375.054228	375.569092	65.000000	41.000000
375.054228	375.225635	29.000000	28.000000
375.225635	375.397363	33.000000	20.000000
375.225635	375.397363	36.000000	20.000000
375.225635	375.397363	41.000000	25.000000
375.397363	375.569092	29.000000	26.000000
375.569092	376.024732	57.000000	40.000000
375.569092	376.024732	69.000000	44.000000
375.569092	375.749149	41.000000	28.000000
375.569092	375.749149	36.000000	22.000000
375.569092	375.749149	33.000000	22.000000
375.749149	375.932867	29.000000	26.000000
375.932867	376.129714	36.000000	20.000000
375.932867	376.129714	41.000000	26.000000
375.932867	376.129714	33.000000	20.000000
376.024732	376.129714	65.000000	39.000000
376.024732	376.129714	53.000000	36.000000
376.129714	376.660698	64.000000	41.000000
376.129714	376.660698	52.000000	38.000000
376.129714	376.310589	31.000000	28.000000
376.310589	376.485643	34.000000	20.000000
376.310589	376.485643	40.000000	20.000000
376.310589	376.485643	43.000000	26.000000
376.485643	376.660698	31.000000	26.000000
376.660698	377.120563	67.000000	44.000000
376.660698	377.120563	55.000000	40.000000
376.660698	376.839226	34.000000	22.000000
376.660698	376.839226	43.000000	28.000000
376.660698	376.839226	40.000000	22.000000
376.839226	377.026779	31.000000	26.000000
377.026779	377.233417	40.000000	21.000000
377.026779	377.233417	43.000000	27.000000
377.026779	377.233417	34.000000	21.000000
377.120563	377.233417	64.000000	39.000000
377.120563	377.233417	52.000000	36.000000
377.233417	377.748616	53.000000	38.000000
377.233417	377.748616	65.000000	41.000000
377.233417	377.405159	33.000000	28.000000
377.405159	377.576888	41.000000	20.000000
377.405159	377.576888	45.000000	25.000000
377.405159	377.576888	36.000000	20.000000
377.576888	377.748616	33.000000	26.000000
377.748616	378.807794	60.000000	40.000000
377.748616	378.807794	48.000000	40.000000
377.748616	377.925146	45.000000	28.000000
377.748616	377.925146	41.000000	22.000000
377.748616	377.925146	36.000000	22.000000
377.925146	378.101675	33.000000	26.000000
378.101675	378.278205	36.000000	20.000000
378.101675	378.278205	45.000000	26.000000
378.101675	378.278205	41.000000	20.000000
378.278205	378.454735	33.000000	28.000000
378.454735	378.631265	45.000000	26.000000
378.454735	378.631265	36.000000	20.000000
378.454735	378.631265	41.000000	20.000000
378.631265	378.807794	33.000000	26.000000
378.807794	379.265661	62.000000	44.000000
378.807794	378.984324	41.000000	28.000000
378.807794	379.265661	50.000000	40.000000
378.984324	379.171878	34.000000	26.000000
379.171878	379.378126	41.000000	27.000000
379.265661	379.378126	58.000000	40.000000
379.265661	379.378126	46.000000	37.000000
379.378126	379.891944	57.000000	44.000000
379.378126	379.891944	45.000000	40.000000
379.378126	379.549399	36.000000	28.000000
379.549399	379.720671	41.000000	25.000000
379.720671	379.891944	36.000000	26.000000
379.891944	380.348885	60.000000	44.000000
379.891944	380.072510	41.000000	28.000000
379.891944	380.348885	48.000000	40.000000
380.072510	380.256765	36.000000	25.000000
380.256765	380.453867	41.000000	25.000000
380.348885	380.453867	57.000000	39.000000
380.348885	380.453867	45.000000	36.000000
380.453867	380.984851	55.000000	44.000000
380.453867	380.984851	43.000000	40.000000
380.453867	380.634742	36.000000	28.000000
380.634742	380.809796	40.000000	25.000000
380.809796	380.984851	36.000000	25.000000
380.984851	381.451529	60.000000	44.000000
380.984851	381.451529	48.000000	40.000000
380.984851	381.163379	40.000000	28.000000
381.163379	381.355479	36.000000	25.000000
381.355479	381.569439	40.000000	25.000000
381.451529	381.569439	58.000000	39.000000
381.451529	381.569439	46.000000	36.000000
381.569439	382.120606	57.000000	42.000000
381.569439	381.753170	41.000000	28.000000
381.753170	381.936888	45.000000	20.000000
381.753170	381.936888	48.000000	20.000000
381.753170	381.936888	53.000000	25.000000
381.936888	382.120606	41.000000	27.000000
382.120606	383.197876	60.000000	42.000000
382.120606	382.300153	45.000000	23.000000
382.120606	382.300153	48.000000	23.000000
382.120606	382.300153	53.000000	29.000000
382.300153	382.479701	41.000000	28.000000
382.479701	382.659248	45.000000	22.000000
382.479701	382.659248	48.000000	22.000000
382.479701	382.659248	53.000000	29.000000
382.659248	382.838782	41.000000	32.000000
382.838782	383.018329	45.000000	24.000000
382.838782	383.018329	48.000000	24.000000
382.838782	383.018329	53.000000	31.000000
383.018329	383.197876	41.000000	31.000000
383.197876	383.658760	69.000000	55.000000
383.197876	383.658760	57.000000	51.000000
383.197876	383.377423	48.000000	27.000000
383.197876	383.377423	45.000000	27.000000
383.197876	383.377423	53.000000	35.000000
383.377423	383.564977	41.000000	33.000000
383.564977	383.780291	53.000000	34.000000
383.564977	383.780291	45.000000	27.000000
383.564977	383.780291	48.000000	27.000000
383.658760	383.780291	72.000000	53.000000
383.658760	383.780291	60.000000	49.000000
383.780291	384.311369	65.000000	51.000000
383.780291	384.311369	77.000000	56.000000
383.780291	383.957317	41.000000	37.000000
383.957317	384.134343	45.000000	27.000000
383.957317	384.134343	48.000000	27.000000
383.957317	384.134343	53.000000	34.000000
384.134343	384.311369	41.000000	36.000000
384.311369	384.762584	81.000000	62.000000
384.311369	384.762584	69.000000	57.000000
384.311369	384.490165	45.000000	30.000000
384.311369	384.490165	48.000000	30.000000
384.311369	384.490165	53.000000	39.000000
384.490165	384.671778	41.000000	37.000000
384.671778	384.867566	48.000000	29.000000
384.671778	384.867566	53.000000	38.000000
384.671778	384.867566	45.000000	29.000000
384.762584	384.867566	77.000000	58.000000
384.762584	384.867566	65.000000	53.000000
384.867566	385.398549	76.000000	61.000000
384.867566	385.398549	64.000000	57.000000
384.867566	385.048440	43.000000	40.000000
385.048440	385.223495	46.000000	29.000000
385.048440	385.223495	48.000000	29.000000
385.048440	385.223495	55.000000	38.000000
385.223495	385.398549	43.000000	39.000000
385.398549	385.863068	79.000000	68.000000
385.398549	385.863068	67.000000	62.000000
385.398549	385.581731	46.000000	34.000000
385.398549	385.581731	55.000000	42.000000
385.398549	385.581731	48.000000	34.000000
385.581731	385.769285	43.000000	40.000000
385.769285	385.998815	48.000000	33.000000
385.769285	385.998815	55.000000	42.000000
385.769285	385.998815	46.000000	33.000000
385.863068	385.998815	76.000000	63.000000
385.863068	385.998815	64.000000	58.000000
385.998815	386.537456	77.000000	57.000000
385.998815	386.537456	65.000000	51.000000
385.998815	388.100045	57.000000	36.000000
385.998815	388.100045	48.000000	28.000000
385.998815	388.100045	45.000000	28.000000
385.998815	388.100045	53.000000	36.000000
386.537456	388.100045	60.000000	48.000000
386.537456	388.100045	72.000000	52.000000
388.100045	388.643837	61.000000	72.000000
388.100045	388.643837	73.000000	85.000000
388.100045	390.123290	49.000000	50.000000
388.100045	388.643837	53.000000	59.000000
388.100045	390.123290	46.000000	50.000000
388.643837	390.123290	58.000000	69.000000
388.643837	390.123290	70.000000	81.000000
388.643837	390.123290	54.000000	57.000000
390.123290	391.627461	68.000000	58.000000
390.123290	392.169817	48.000000	28.000000
390.123290	392.169817	56.000000	36.000000
390.123290	392.169817	53.000000	36.000000
391.627461	391.973278	67.000000	51.000000
391.973278	392.169817	65.000000	49.000000
392.169817	392.259510	67.000000	46.000000
392.169817	394.241356	48.000000	25.000000
392.169817	394.241356	52.000000	31.000000
392.169817	394.241356	58.000000	31.000000
392.259510	392.348399	68.000000	39.000000
392.348399	392.435611	67.000000	46.000000
392.435611	392.523856	68.000000	40.000000
392.523856	392.611738	67.000000	47.000000
392.611738	392.697945	68.000000	40.000000
392.697945	392.783816	67.000000	48.000000
392.783816	392.868721	68.000000	41.000000
392.868721	392.953988	67.000000	49.000000
392.953988	393.038237	68.000000	42.000000
393.038237	393.123249	67.000000	50.000000
393.123249	393.208195	68.000000	42.000000
393.208195	393.293221	67.000000	51.000000
393.293221	393.378569	68.000000	44.000000
393.378569	393.463997	67.000000	51.000000
393.463997	393.549386	68.000000	45.000000
393.549386	393.635310	67.000000	52.000000
393.635310	393.720537	68.000000	46.000000
393.720537	393.807066	67.000000	53.000000
393.807066	393.893030	68.000000	48.000000
393.893030	393.979156	67.000000	55.000000
393.979156	394.065859	68.000000	48.000000
394.065859	394.153366	67.000000	56.000000
394.153366	394.241356	68.000000	48.000000
394.241356	394.339914	73.000000	46.000000
394.339914	394.426442	72.000000	39.000000
394.426442	394.512594	73.000000	46.000000
394.512594	394.598787	72.000000	40.000000
394.598787	394.683907	73.000000	48.000000
394.683907	394.768799	72.000000	41.000000
394.768799	394.853812	73.000000	50.000000
394.853812	394.938047	72.000000	44.000000
394.938047	395.022174	73.000000	51.000000
395.022174	395.106530	72.000000	45.000000
395.106530	395.190805	73.000000	53.000000
395.190805	395.275281	72.000000	47.000000
395.275281	395.359703	73.000000	56.000000
395.359703	395.444662	72.000000	48.000000
395.444662	395.529461	73.000000	56.000000
395.529461	395.614379	72.000000	47.000000
395.614379	395.699633	73.000000	56.000000
395.699633	395.784834	72.000000	48.000000
395.784834	395.870437	73.000000	56.000000
395.870437	395.956428	72.000000	49.000000
395.956428	396.042125	73.000000	56.000000
396.042125	396.128881	72.000000	49.000000
396.128881	396.215879	71.000000	56.000000
396.215879	396.303345	72.000000	48.000000
396.303345	396.401568	85.000000	49.000000
396.401568	396.487694	84.000000	41.000000
396.487694	396.572438	85.000000	49.000000
396.572438	396.656391	84.000000	43.000000
396.656391	396.739299	85.000000	51.000000
396.739299	396.821361	84.000000	45.000000
396.821361	396.902659	85.000000	54.000000
396.902659	396.984251	84.000000	45.000000
396.984251	397.065308	85.000000	55.000000
397.065308	397.146284	84.000000	46.000000
397.146284	397.227327	85.000000	56.000000
397.227327	397.308464	84.000000	49.000000
397.308464	397.390285	85.000000	60.000000
397.390285	397.471475	84.000000	49.000000
397.471475	397.552599	85.000000	58.000000
397.552599	397.634674	84.000000	48.000000
397.634674	397.717487	85.000000	55.000000
397.717487	397.801669	84.000000	45.000000
397.801669	397.886091	85.000000	54.000000
397.886091	397.971345	84.000000	45.000000
397.971345	398.057364	85.000000	52.000000
398.057364	398.143530	84.000000	44.000000
398.143530	398.233947	83.000000	50.000000
398.233947	398.328589	84.000000	40.000000
398.328589	398.509316	85.000000	47.000000
398.509316	398.690044	84.000000	47.000000
398.690044	398.870771	82.000000	45.000000
398.870771	399.051498	80.000000	42.000000
399.051498	399.232226	79.000000	43.000000
399.232226	399.412953	78.000000	42.000000
399.412953	399.593680	77.000000	42.000000
399.593680	399.774408	76.000000	42.000000
399.774408	399.955135	75.000000	42.000000
399.955135	400.135863	73.000000	42.000000
400.135863	400.316590	72.000000	41.000000
400.316590	400.497264	70.000000	41.000000
400.497264	400.672573	68.000000	41.000000
400.672573	400.854762	67.000000	39.000000
400.854762	401.038440	66.000000	39.000000
401.038440	401.223620	65.000000	38.000000
401.223620	401.409953	64.000000	37.000000
401.409953	401.596286	63.000000	36.000000
401.596286	401.782619	61.000000	36.000000
401.782619	401.968952	60.000000	36.000000
401.968952	402.155286	58.000000	35.000000
402.155286	402.341619	56.000000	34.000000
402.341619	402.527952	55.000000	35.000000
402.527952	402.714285	54.000000	33.000000
402.714285	402.900042	53.000000	34.000000
402.900042	403.086375	52.000000	33.000000
403.086375	403.273285	51.000000	33.000000
403.273285	403.460785	49.000000	33.000000
403.460785	403.648875	48.000000	32.000000
403.648875	403.837608	46.000000	32.000000
403.837608	404.026879	44.000000	34.000000
404.026879	404.216149	43.000000	33.000000
404.216149	404.405419	42.000000	33.000000
404.405419	404.594689	41.000000	33.000000
404.594689	404.783959	40.000000	33.000000
404.783959	404.984629	39.000000	33.000000
404.984629	405.177560	37.000000	34.000000
405.177560	405.370492	36.000000	34.000000
405.370492	405.563423	34.000000	34.000000
405.563423	405.756355	32.000000	34.000000
405.756355	405.949286	31.000000	33.000000
405.949286	406.150626	32.000000	31.000000
406.150626	406.344456	34.000000	34.000000
406.344456	406.539265	36.000000	33.000000
406.539265	406.735885	35.000000	33.000000
406.735885	406.934234	36.000000	36.000000
406.934234	407.134568	35.000000	34.000000
407.134568	407.344358	36.000000	33.000000
407.344358	407.435700	53.000000	83.000000
407.344358	407.435700	29.000000	64.000000
407.435700	407.527030	48.000000	66.000000
407.435700	407.527030	36.000000	52.000000
407.527030	407.618359	44.000000	66.000000
407.527030	407.618359	41.000000	52.000000
407.618359	407.709688	48.000000	66.000000
407.618359	407.709688	36.000000	52.000000
407.709688	407.806811	53.000000	72.000000
407.709688	407.806811	29.000000	58.000000
407.806811	407.903934	48.000000	64.000000
407.806811	407.903934	36.000000	51.000000
407.903934	407.995397	56.000000	84.000000
407.903934	407.995397	29.000000	68.000000
407.995397	408.086874	48.000000	66.000000
407.995397	408.086874	36.000000	52.000000
408.086874	408.178351	55.000000	83.000000
408.086874	408.178351	29.000000	64.000000
408.178351	408.269814	48.000000	66.000000
408.178351	408.269814	36.000000	52.000000
408.269814	408.363370	53.000000	81.000000
408.269814	408.363370	29.000000	62.000000
408.363370	408.456939	48.000000	66.000000
408.363370	408.456939	36.000000	52.000000
408.456939	408.547195	53.000000	83.000000
408.456939	408.547195	29.000000	64.000000
408.547195	408.637451	48.000000	63.000000
408.547195	408.637451	36.000000	52.000000
408.637451	408.727708	44.000000	63.000000
408.637451	408.727708	41.000000	52.000000
408.727708	408.817964	48.000000	63.000000
408.727708	408.817964	36.000000	52.000000
408.817964	408.913759	53.000000	66.000000
408.817964	408.913759	29.000000	58.000000
408.913759	409.009554	48.000000	62.000000
408.913759	409.009554	36.000000	51.000000
409.009554	409.101031	56.000000	83.000000
409.009554	409.101031	29.000000	68.000000
409.101031	409.192495	48.000000	63.000000
409.101031	409.192495	36.000000	52.000000
409.192495	409.283971	55.000000	80.000000
409.192495	409.283971	29.000000	64.000000
409.283971	409.375448	48.000000	66.000000
409.283971	409.375448	36.000000	52.000000
409.375448	409.472906	53.000000	80.000000
409.375448	409.472906	29.000000	62.000000
409.472906	409.570365	48.000000	64.000000
409.472906	409.570365	36.000000	52.000000
409.570365	409.660621	61.000000	83.000000
409.570365	409.660621	29.000000	64.000000
409.660621	409.750877	56.000000	66.000000
409.660621	409.750877	37.000000	52.000000
409.750877	409.841134	53.000000	66.000000
409.750877	409.841134	41.000000	52.000000
409.841134	409.931390	56.000000	66.000000
409.841134	409.931390	37.000000	52.000000
409.931390	410.028513	61.000000	77.000000
409.931390	410.028513	29.000000	58.000000
410.028513	410.125636	56.000000	64.000000
410.028513	410.125636	37.000000	51.000000
410.125636	410.216818	65.000000	84.000000
410.125636	410.216818	29.000000	68.000000
410.216818	410.308013	56.000000	66.000000
410.216818	410.308013	37.000000	52.000000
410.308013	410.399208	63.000000	83.000000
410.308013	410.399208	29.000000	64.000000
410.399208	410.490390	56.000000	66.000000
410.399208	410.490390	37.000000	52.000000
410.490390	410.583945	61.000000	81.000000
410.490390	410.583945	29.000000	62.000000
410.583945	410.677514	56.000000	66.000000
410.583945	410.677514	37.000000	52.000000
410.677514	410.767770	61.000000	83.000000
410.677514	410.767770	29.000000	64.000000
410.767770	410.858027	56.000000	63.000000
410.767770	410.858027	37.000000	52.000000
410.858027	410.948283	53.000000	63.000000
410.858027	410.948283	41.000000	52.000000
410.948283	411.038540	56.000000	63.000000
410.948283	411.038540	37.000000	52.000000
411.038540	411.134335	61.000000	75.000000
411.038540	411.134335	29.000000	58.000000
411.134335	411.230130	56.000000	62.000000
411.134335	411.230130	37.000000	51.000000
411.230130	411.321607	65.000000	83.000000
411.230130	411.321607	29.000000	68.000000
411.321607	411.413070	56.000000	63.000000
411.321607	411.413070	37.000000	52.000000
411.413070	411.504547	63.000000	80.000000
411.413070	411.504547	29.000000	64.000000
411.504547	411.596024	56.000000	66.000000
411.504547	411.596024	37.000000	52.000000
411.596024	411.690853	61.000000	80.000000
411.596024	411.690853	29.000000	62.000000
411.690853	411.785669	56.000000	64.000000
411.690853	411.785669	37.000000	52.000000
411.785669	411.875027	70.000000	93.000000
411.785669	413.404008	42.000000	107.000000
411.785669	413.404008	30.000000	91.000000
411.875027	411.964922	73.000000	74.000000
411.964922	412.054588	70.000000	76.000000
412.054588	412.145542	73.000000	67.000000
412.145542	412.235128	70.000000	72.000000
412.235128	412.324794	73.000000	67.000000
412.324794	412.414594	70.000000	72.000000
412.414594	412.504582	73.000000	67.000000
412.504582	412.594664	70.000000	72.000000
412.594664	412.684331	73.000000	67.000000
412.684331	412.774909	70.000000	72.000000
412.774909	412.865031	73.000000	67.000000
412.865031	412.954926	70.000000	76.000000
412.954926	413.045048	73.000000	67.000000
413.045048	413.134137	70.000000	76.000000
413.134137	413.224582	73.000000	67.000000
413.224582	413.314020	70.000000	76.000000
413.314020	413.404008	73.000000	67.000000
413.404008	413.495351	70.000000	95.000000
413.404008	413.586680	31.000000	74.000000
413.404008	413.586680	43.000000	88.000000
413.495351	413.586680	73.000000	78.000000
413.586680	413.678009	67.000000	89.000000
413.586680	413.769339	34.000000	72.000000
413.678009	413.769339	70.000000	78.000000
413.769339	413.862680	64.000000	84.000000
413.769339	413.956021	37.000000	82.000000
413.862680	413.956021	67.000000	77.000000
413.956021	414.046237	61.000000	82.000000
413.956021	414.136453	40.000000	95.000000
414.046237	414.136453	64.000000	70.000000
414.136453	414.226669	58.000000	81.000000
414.136453	414.316885	43.000000	82.000000
414.226669	414.316885	61.000000	71.000000
414.316885	414.407101	55.000000	82.000000
414.316885	414.497317	46.000000	82.000000
414.407101	414.497317	58.000000	68.000000
414.497317	414.587534	53.000000	81.000000
414.497317	414.670226	49.000000	85.000000
414.587534	414.677750	55.000000	70.000000
414.677750	414.767966	58.000000	80.000000
414.677750	414.850659	49.000000	83.000000
414.767966	414.858182	55.000000	70.000000
414.858182	414.955198	53.000000	80.000000
414.858182	415.044140	49.000000	83.000000
414.955198	415.052227	55.000000	69.000000
415.052227	415.593524	49.000000	97.000000
415.142443	415.232659	53.000000	70.000000
415.232659	415.322875	58.000000	80.000000
415.322875	415.413091	55.000000	69.000000
415.413091	415.503307	53.000000	77.000000
415.503307	415.593524	58.000000	70.000000
415.593524	416.134821	48.000000	89.000000
415.683740	415.773956	52.000000	69.000000
415.773956	415.864172	58.000000	80.000000
415.864172	415.954388	55.000000	69.000000
415.954388	416.044604	52.000000	78.000000
416.044604	416.134821	58.000000	69.000000
416.134821	416.226163	65.000000	83.000000
416.134821	416.226163	41.000000	64.000000
416.226163	416.317493	60.000000	66.000000
416.226163	416.317493	48.000000	52.000000
416.317493	416.408822	56.000000	66.000000
416.317493	416.408822	53.000000	52.000000
416.408822	416.500151	60.000000	66.000000
416.408822	416.500151	48.000000	52.000000
416.500151	416.597274	65.000000	80.000000
416.500151	416.597274	41.000000	58.000000
416.597274	416.694397	60.000000	64.000000
416.597274	416.694397	48.000000	51.000000
416.694397	416.785579	68.000000	84.000000
416.694397	416.785579	41.000000	68.000000
416.785579	416.876774	60.000000	66.000000
416.785579	416.876774	48.000000	52.000000
416.876774	416.967969	67.000000	83.000000
416.876774	416.967969	41.000000	64.000000
416.967969	417.059151	60.000000	66.000000
416.967969	417.059151	48.000000	52.000000
417.059151	417.152706	65.000000	81.000000
417.059151	417.152706	41.000000	62.000000
417.152706	417.246275	60.000000	66.000000
417.152706	417.246275	48.000000	52.000000
417.246275	417.336531	65.000000	83.000000
417.246275	417.336531	41.000000	64.000000
417.336531	417.426788	60.000000	63.000000
417.336531	417.426788	48.000000	52.000000
417.426788	417.517044	56.000000	63.000000
417.426788	417.517044	53.000000	52.000000
417.517044	417.607301	60.000000	63.000000
417.517044	417.607301	48.000000	52.000000
417.607301	417.703096	65.000000	80.000000
417.607301	417.703096	41.000000	58.000000
417.703096	417.798891	60.000000	62.000000
417.703096	417.798891	48.000000	51.000000
417.798891	417.890368	68.000000	83.000000
417.798891	417.890368	41.000000	68.000000
417.890368	417.981831	60.000000	63.000000
417.890368	417.981831	48.000000	52.000000
417.981831	418.073308	67.000000	80.000000
417.981831	418.073308	41.000000	64.000000
418.073308	418.164785	60.000000	66.000000
418.073308	418.164785	48.000000	52.000000
418.164785	418.262243	65.000000	80.000000
418.164785	418.262243	41.000000	62.000000
418.262243	418.359701	60.000000	64.000000
418.262243	418.359701	48.000000	52.000000
418.359701	418.449957	73.000000	83.000000
418.359701	418.449957	41.000000	64.000000
418.449957	418.540214	68.000000	66.000000
418.449957	418.540214	49.000000	52.000000
418.540214	418.630470	65.000000	66.000000
418.540214	418.630470	53.000000	52.000000
418.630470	418.720727	68.000000	66.000000
418.630470	418.720727	49.000000	52.000000
418.720727	418.817849	73.000000	80.000000
418.720727	418.817849	41.000000	58.000000
418.817849	418.914972	68.000000	64.000000
418.817849	418.914972	49.000000	51.000000
418.914972	419.006436	77.000000	84.000000
418.914972	419.006436	41.000000	68.000000
419.006436	419.097912	68.000000	66.000000
419.006436	419.097912	49.000000	52.000000
419.097912	419.189389	75.000000	83.000000
419.097912	419.189389	41.000000	64.000000
419.189389	419.280853	68.000000	66.000000
419.189389	419.280853	49.000000	52.000000
419.280853	419.374408	73.000000	81.000000
419.280853	419.374408	41.000000	62.000000
419.374408	419.467977	68.000000	66.000000
419.374408	419.467977	49.000000	52.000000
419.467977	419.558233	73.000000	83.000000
419.467977	419.558233	41.000000	64.000000
419.558233	419.648490	68.000000	63.000000
419.558233	419.648490	49.000000	52.000000
419.648490	419.738746	65.000000	63.000000
419.648490	419.738746	53.000000	52.000000
419.738746	419.829003	68.000000	63.000000
419.738746	419.829003	49.000000	52.000000
419.829003	419.924798	73.000000	80.000000
419.829003	419.924798	41.000000	58.000000
419.924798	420.020593	68.000000	62.000000
419.924798	420.020593	49.000000	51.000000
420.020593	420.111788	77.000000	83.000000
420.020593	420.111788	41.000000	68.000000
420.111788	420.202970	68.000000	63.000000
420.111788	420.202970	49.000000	52.000000
420.202970	420.294165	75.000000	80.000000
420.202970	420.294165	41.000000	64.000000
420.294165	420.385360	68.000000	66.000000
420.294165	420.385360	49.000000	52.000000
420.385360	420.480190	73.000000	80.000000
420.385360	420.480190	41.000000	62.000000
420.480190	420.575006	68.000000	64.000000
420.480190	420.575006	49.000000	52.000000
420.575006	420.664364	82.000000	93.000000
420.575006	422.193345	42.000000	90.000000
420.575006	422.193345	54.000000	106.000000
420.664364	420.754258	85.000000	75.000000
420.754258	420.843924	82.000000	80.000000
420.843924	420.934878	85.000000	69.000000
420.934878	421.024464	82.000000	77.000000
421.024464	421.114130	85.000000	69.000000
421.114130	421.203931	82.000000	78.000000
421.203931	421.293919	85.000000	69.000000
421.293919	421.384001	82.000000	74.000000
421.384001	421.473667	85.000000	69.000000
421.473667	421.564245	82.000000	74.000000
421.564245	421.654368	85.000000	69.000000
421.654368	421.744262	82.000000	74.000000
421.744262	421.834384	85.000000	69.000000
421.834384	421.923474	82.000000	74.000000
421.923474	422.013918	85.000000	69.000000
422.013918	422.103356	82.000000	74.000000
422.103356	422.193345	85.000000	69.000000
422.193345	422.284687	82.000000	75.000000
422.193345	422.376017	55.000000	88.000000
422.193345	422.376017	43.000000	59.000000
422.284687	422.376017	85.000000	69.000000
422.376017	422.467346	82.000000	77.000000
422.376017	422.558675	46.000000	58.000000
422.376017	422.558675	58.000000	72.000000
422.467346	422.558675	85.000000	69.000000
422.558675	422.652016	82.000000	77.000000
422.558675	422.745357	49.000000	63.000000
422.558675	422.745357	61.000000	82.000000
422.652016	422.745357	85.000000	69.000000
422.745357	422.835573	82.000000	82.000000
422.745357	422.925789	64.000000	95.000000
422.745357	422.925789	52.000000	75.000000
422.835573	422.925789	85.000000	70.000000
422.925789	423.016005	79.000000	81.000000
422.925789	423.106222	55.000000	63.000000
422.925789	423.106222	67.000000	82.000000
423.016005	423.106222	82.000000	71.000000
423.106222	423.196438	77.000000	82.000000
423.106222	423.286654	58.000000	63.000000
423.106222	423.286654	70.000000	82.000000
423.196438	423.286654	79.000000	68.000000
423.286654	423.376870	77.000000	81.000000
423.286654	423.459563	73.000000	85.000000
423.286654	423.459563	61.000000	68.000000
423.376870	423.467086	79.000000	70.000000
423.467086	423.557302	82.000000	80.000000
423.467086	423.639995	61.000000	64.000000
423.467086	423.639995	73.000000	83.000000
423.557302	423.647519	79.000000	70.000000
423.647519	423.744534	77.000000	80.000000
423.647519	423.833476	61.000000	64.000000
423.647519	423.833476	73.000000	83.000000
423.744534	423.841563	79.000000	69.000000
423.841563	424.382860	73.000000	102.000000
423.841563	424.382860	61.000000	80.000000
423.931779	424.021995	77.000000	72.000000
424.021995	424.112212	82.000000	82.000000
424.112212	424.202428	79.000000	70.000000
424.202428	424.292644	77.000000	77.000000
424.292644	424.382860	82.000000	69.000000
424.382860	424.929884	60.000000	69.000000
424.382860	424.929884	72.000000	86.000000
424.473076	424.563292	76.000000	67.000000
424.563292	424.653509	82.000000	75.000000
424.653509	424.743725	79.000000	64.000000
424.743725	424.836797	76.000000	72.000000
424.836797	424.929884	82.000000	62.000000
424.929884	425.471180	65.000000	102.000000
425.020100	425.110316	73.000000	72.000000
425.110316	425.200532	82.000000	82.000000
425.200532	425.290748	79.000000	70.000000
425.290748	425.380964	73.000000	77.000000
425.380964	425.471180	82.000000	69.000000
425.471180	426.017600	64.000000	86.000000
425.561397	425.651613	72.000000	67.000000
425.651613	425.741829	82.000000	75.000000
425.741829	425.832045	79.000000	64.000000
425.832045	425.924823	72.000000	72.000000
425.924823	426.017600	82.000000	62.000000
426.017600	426.558897	73.000000	102.000000
426.107817	426.198033	77.000000	72.000000
426.198033	426.288249	82.000000	82.000000
426.288249	426.378465	79.000000	70.000000
426.378465	426.468681	77.000000	77.000000
426.468681	426.558897	82.000000	69.000000
426.558897	427.100194	72.000000	86.000000
426.649114	426.739330	76.000000	67.000000
426.739330	426.829546	82.000000	75.000000
426.829546	426.919762	79.000000	64.000000
426.919762	427.009978	76.000000	72.000000
427.009978	427.100194	82.000000	62.000000
427.100194	428.163074	71.000000	97.000000
427.190062	428.163074	74.000000	91.000000
427.279742	428.163074	77.000000	95.000000
427.369140	428.163074	80.000000	87.000000
427.458363	427.547305	83.000000	83.000000
427.547305	427.635966	86.000000	79.000000
427.635966	427.724452	89.000000	87.000000
427.724452	427.812657	86.000000	79.000000
427.812657	427.900593	83.000000	86.000000
427.900593	427.988355	92.000000	83.000000
427.988355	428.075849	91.000000	84.000000
428.075849	428.163074	89.000000	79.000000
428.163074	428.250206	88.000000	79.000000
428.163074	429.236213	72.000000	85.000000
428.250206	428.337351	91.000000	74.000000
428.250206	429.236213	76.000000	77.000000
428.337351	428.424496	89.000000	79.000000
428.337351	429.125518	79.000000	77.000000
428.424496	428.511641	88.000000	72.000000
428.511641	428.599041	85.000000	73.000000
428.599041	428.686440	84.000000	72.000000
428.686440	428.774028	82.000000	78.000000
428.774028	428.861696	85.000000	73.000000
428.861696	428.949552	84.000000	75.000000
428.949552	429.037488	82.000000	72.000000
429.037488	429.125518	80.000000	71.000000
429.125518	429.236213	79.000000	70.000000
429.236213	429.770442	68.000000	41.000000
429.236213	429.770442	65.000000	41.000000
429.329004	429.421594	77.000000	39.000000
429.421594	429.508806	80.000000	41.000000
429.508806	429.596018	84.000000	43.000000
429.596018	429.683230	89.000000	45.000000
429.683230	429.770442	77.000000	41.000000
429.770442	430.297323	73.000000	40.000000
429.770442	430.297323	70.000000	40.000000
430.035686	430.122898	89.000000	45.000000
430.122898	430.210110	77.000000	41.000000
430.210110	430.297323	89.000000	45.000000
430.297323	430.823197	72.000000	41.000000
430.297323	430.823197	68.000000	41.000000
430.562325	430.649282	89.000000	44.000000
430.649282	430.736239	77.000000	41.000000
430.736239	430.823197	89.000000	44.000000
430.823197	431.337229	72.000000	55.000000
430.823197	431.337229	70.000000	55.000000
430.823197	431.337229	67.000000	55.000000
431.076357	431.163315	88.000000	44.000000
431.163315	431.250272	76.000000	41.000000
431.250272	431.337229	88.000000	45.000000
431.337229	431.871458	65.000000	41.000000
431.337229	431.871458	68.000000	41.000000
431.430020	431.522610	77.000000	39.000000
431.522610	431.609822	80.000000	41.000000
431.609822	431.697034	84.000000	43.000000
431.697034	431.784246	89.000000	45.000000
431.784246	431.871458	77.000000	41.000000
431.871458	432.398338	58.000000	40.000000
431.871458	432.398338	61.000000	40.000000
432.136702	432.223914	77.000000	45.000000
432.223914	432.311126	65.000000	41.000000
432.311126	432.398338	77.000000	45.000000
432.398338	432.924213	56.000000	41.000000
432.398338	432.924213	60.000000	41.000000
432.663341	432.750298	77.000000	44.000000
432.750298	432.837255	65.000000	41.000000
432.837255	432.924213	77.000000	44.000000
432.924213	433.438245	60.000000	55.000000
432.924213	433.438245	58.000000	55.000000
432.924213	433.438245	55.000000	55.000000
433.177373	433.264330	76.000000	44.000000
433.264330	433.351288	64.000000	41.000000
433.351288	433.438245	76.000000	45.000000
433.438245	433.972474	53.000000	41.000000
433.438245	433.972474	56.000000	41.000000
433.531036	433.623626	77.000000	39.000000
433.623626	433.710838	80.000000	41.000000
433.710838	433.798050	84.000000	43.000000
433.798050	433.885262	89.000000	45.000000
433.885262	433.972474	77.000000	41.000000
433.972474	434.499354	46.000000	40.000000
433.972474	434.499354	49.000000	40.000000
434.237718	434.324930	89.000000	45.000000
434.324930	434.412142	77.000000	41.000000
434.412142	434.499354	89.000000	45.000000
434.499354	435.025229	44.000000	41.000000
434.499354	435.025229	48.000000	41.000000
434.764357	434.851314	89.000000	44.000000
434.851314	434.938271	77.000000	41.000000
434.938271	435.025229	89.000000	44.000000
435.025229	435.552256	43.000000	55.000000
435.025229	435.552256	46.000000	55.000000
435.025229	435.552256	48.000000	55.000000
435.278389	435.365346	88.000000	44.000000
435.365346	435.458808	76.000000	41.000000
435.458808	435.552256	88.000000	45.000000
435.552256	435.639897	89.000000	44.000000
435.552256	436.641462	41.000000	44.000000
435.639897	435.728048	84.000000	41.000000
435.728048	435.816454	80.000000	40.000000
435.816454	435.905128	84.000000	36.000000
435.905128	435.994057	89.000000	39.000000
435.994057	436.083253	84.000000	36.000000
436.083253	436.172719	80.000000	42.000000
436.172719	436.262452	84.000000	38.000000
436.262452	436.352547	89.000000	38.000000
436.352547	436.442643	84.000000	34.000000
436.442643	436.541657	80.000000	37.000000
436.541657	436.641462	84.000000	33.000000
436.641462	436.742353	89.000000	39.000000
436.641462	437.260328	36.000000	36.000000
436.742353	436.844103	84.000000	36.000000
436.844103	436.946778	80.000000	36.000000
436.946778	437.050351	84.000000	32.000000
437.050351	437.154877	89.000000	35.000000
437.154877	437.260328	84.000000	31.000000
437.260328	437.366718	89.000000	36.000000
437.260328	437.912092	32.000000	30.000000
437.366718	437.474114	84.000000	34.000000
437.474114	437.582489	89.000000	34.000000
437.582489	437.691909	84.000000	30.000000
437.691909	437.802336	89.000000	33.000000
437.802336	437.912092	84.000000	30.000000
437.912092	438.013104	89.000000	38.000000
437.912092	439.654040	29.000000	24.000000
438.013104	438.113218	84.000000	30.000000
438.113218	438.212500	80.000000	37.000000
438.212500	438.310910	84.000000	30.000000
438.310910	438.408529	89.000000	33.000000
438.408529	438.505303	84.000000	30.000000
438.505303	438.601460	80.000000	36.000000
438.601460	438.697618	84.000000	30.000000
438.697618	438.793775	89.000000	35.000000
438.793775	438.889932	84.000000	30.000000
438.889932	438.986089	80.000000	31.000000
438.986089	439.082247	84.000000	30.000000
439.082247	439.177546	89.000000	38.000000
439.177546	439.272845	84.000000	30.000000
439.272845	439.368144	80.000000	33.000000
439.368144	439.463443	84.000000	29.000000
439.463443	439.558741	89.000000	33.000000
439.558741	439.654040	84.000000	28.000000
439.654040	439.749353	89.000000	37.000000
439.654040	440.134585	32.000000	29.000000
439.749353	439.844665	84.000000	33.000000
439.844665	439.941305	80.000000	34.000000
439.941305	440.037945	84.000000	29.000000
440.037945	440.134585	89.000000	33.000000
440.134585	440.241297	84.000000	29.000000
440.134585	440.241297	36.000000	26.000000
440.241297	440.331191	89.000000	38.000000
440.241297	440.770779	41.000000	29.000000
440.331191	440.420388	84.000000	30.000000
440.420388	440.508888	80.000000	37.000000
440.508888	440.596690	84.000000	30.000000
440.596690	440.683822	89.000000	33.000000
440.683822	440.770779	84.000000	30.000000
440.770779	440.862899	89.000000	36.000000
440.770779	441.235727	44.000000	29.000000
440.862899	440.955020	84.000000	30.000000
440.955020	441.048589	80.000000	35.000000
441.048589	441.142158	84.000000	30.000000
441.142158	441.235727	89.000000	31.000000
441.235727	441.336591	84.000000	30.000000
441.235727	441.336591	48.000000	26.000000
441.336591	441.428712	89.000000	38.000000
441.336591	441.899721	53.000000	29.000000
441.428712	441.520832	84.000000	30.000000
441.520832	441.612953	80.000000	33.000000
441.612953	441.705073	84.000000	29.000000
441.705073	441.802397	89.000000	33.000000
441.802397	441.899721	84.000000	28.000000
441.899721	441.991842	89.000000	37.000000
441.899721	442.452445	41.000000	28.000000
441.991842	442.083962	84.000000	33.000000
442.083962	442.176083	80.000000	34.000000
442.176083	442.268203	84.000000	29.000000
442.268203	442.360324	89.000000	33.000000
442.360324	442.452445	84.000000	29.000000
442.452445	442.544190	87.000000	38.000000
442.452445	444.107744	42.000000	34.000000
442.544190	442.635693	84.000000	30.000000
442.635693	442.726969	80.000000	37.000000
442.726969	442.817976	84.000000	30.000000
442.817976	442.908742	87.000000	33.000000
442.908742	442.999240	84.000000	30.000000
442.999240	443.089778	80.000000	36.000000
443.089778	443.180692	84.000000	30.000000
443.180692	443.271967	87.000000	35.000000
443.271967	443.363565	84.000000	30.000000
443.363565	443.455538	80.000000	31.000000
443.455538	443.547940	84.000000	30.000000
443.547940	443.640530	87.000000	38.000000
443.640530	443.733415	84.000000	30.000000
443.733415	443.826581	80.000000	33.000000
443.826581	443.920043	84.000000	29.000000
443.920043	444.013746	87.000000	33.000000
444.013746	444.107744	84.000000	28.000000
444.107744	444.202037	87.000000	37.000000
444.107744	444.586532	48.000000	33.000000
444.202037	444.296612	84.000000	33.000000
444.296612	444.393252	80.000000	34.000000
444.393252	444.489892	84.000000	29.000000
444.489892	444.586532	87.000000	33.000000
444.586532	444.690468	84.000000	29.000000
444.586532	444.690468	51.000000	28.000000
444.690468	444.780322	87.000000	38.000000
444.690468	445.221800	54.000000	33.000000
444.780322	444.869653	84.000000	30.000000
444.869653	444.958461	80.000000	37.000000
444.958461	445.046746	84.000000	30.000000
445.046746	445.134508	87.000000	33.000000
445.134508	445.221800	84.000000	30.000000
445.221800	445.313921	87.000000	36.000000
445.221800	445.686748	60.000000	33.000000
445.313921	445.406041	84.000000	30.000000
445.406041	445.499610	80.000000	35.000000
445.499610	445.593179	84.000000	30.000000
445.593179	445.686748	87.000000	31.000000
445.686748	445.787613	84.000000	30.000000
445.686748	445.787613	63.000000	28.000000
445.787613	445.879733	87.000000	38.000000
445.787613	446.350743	66.000000	33.000000
445.879733	445.971854	84.000000	30.000000
445.971854	446.063974	80.000000	33.000000
446.063974	446.156095	84.000000	29.000000
446.156095	446.253419	87.000000	33.000000
446.253419	446.350743	84.000000	28.000000
446.350743	446.442863	87.000000	37.000000
446.350743	446.902956	54.000000	30.000000
446.442863	446.534984	84.000000	33.000000
446.534984	446.627104	80.000000	34.000000
446.627104	446.719225	84.000000	29.000000
446.719225	446.811345	87.000000	33.000000
446.811345	446.902956	84.000000	29.000000
446.902956	446.991724	89.000000	38.000000
446.902956	447.428173	53.000000	33.000000
446.991724	447.079835	85.000000	30.000000
447.079835	447.167302	80.000000	37.000000
447.167302	447.254259	85.000000	30.000000
447.254259	447.341216	89.000000	33.000000
447.341216	447.428173	85.000000	31.000000
447.428173	447.520294	89.000000	37.000000
447.428173	447.893121	56.000000	34.000000
447.520294	447.612415	85.000000	30.000000
447.612415	447.705983	80.000000	36.000000
447.705983	447.799552	85.000000	31.000000
447.799552	447.893121	89.000000	34.000000
447.893121	447.993986	85.000000	33.000000
447.893121	447.993986	61.000000	30.000000
447.993986	448.086106	89.000000	40.000000
447.993986	448.557116	65.000000	36.000000
448.086106	448.178227	85.000000	33.000000
448.178227	448.270347	80.000000	35.000000
448.270347	448.362468	85.000000	31.000000
448.362468	448.459792	89.000000	35.000000
448.459792	448.557116	85.000000	30.000000
448.557116	448.649116	89.000000	40.000000
448.557116	449.104917	53.000000	35.000000
448.649116	448.740673	85.000000	36.000000
448.740673	448.831721	80.000000	37.000000
448.831721	448.922406	85.000000	33.000000
448.922406	449.013454	89.000000	36.000000
449.013454	449.104917	85.000000	33.000000
449.104917	449.197051	90.000000	40.000000
449.104917	449.569879	51.000000	40.000000
449.197051	449.289172	84.000000	35.000000
449.289172	449.382741	80.000000	40.000000
449.382741	449.476310	84.000000	35.000000
449.476310	449.569879	90.000000	37.000000
449.569879	449.670757	84.000000	36.000000
449.569879	449.670757	54.000000	36.000000
449.670757	449.762877	90.000000	42.000000
449.670757	450.135704	56.000000	42.000000
449.762877	449.854998	84.000000	35.000000
449.854998	449.948566	80.000000	41.000000
449.948566	450.042135	84.000000	37.000000
450.042135	450.135704	90.000000	38.000000
450.135704	450.236582	84.000000	37.000000
450.135704	450.236582	60.000000	38.000000
450.236582	450.328703	90.000000	44.000000
450.236582	450.701530	63.000000	44.000000
450.328703	450.420823	84.000000	36.000000
450.420823	450.514392	80.000000	44.000000
450.514392	450.607961	84.000000	38.000000
450.607961	450.701530	90.000000	39.000000
450.701530	450.802408	84.000000	38.000000
450.701530	450.802408	66.000000	39.000000
450.802408	450.894529	90.000000	45.000000
450.802408	451.267356	68.000000	47.000000
450.894529	450.986649	87.000000	38.000000
450.986649	451.080218	80.000000	44.000000
451.080218	451.173787	87.000000	39.000000
451.173787	451.267356	90.000000	39.000000
451.267356	451.374121	87.000000	39.000000
451.267356	451.374121	72.000000	42.000000
451.374121	451.746680	89.000000	55.000000
451.374121	451.565068	61.000000	33.000000
451.565068	451.746680	65.000000	24.000000
451.565068	451.746680	68.000000	24.000000
451.565068	451.746680	73.000000	30.000000
451.746680	451.928293	61.000000	31.000000
451.928293	452.109905	65.000000	26.000000
451.928293	452.109905	68.000000	26.000000
451.928293	452.109905	73.000000	33.000000
452.109905	452.291518	61.000000	31.000000
452.291518	452.473130	65.000000	24.000000
452.291518	452.473130	68.000000	24.000000
452.291518	452.473130	73.000000	31.000000
452.473130	452.654743	61.000000	33.000000
452.654743	452.836355	65.000000	24.000000
452.654743	452.836355	68.000000	24.000000
452.654743	452.836355	73.000000	31.000000
452.836355	453.017968	61.000000	31.000000
453.017968	453.485987	77.000000	62.000000
453.017968	453.199580	65.000000	26.000000
453.017968	453.199580	73.000000	33.000000
453.017968	453.199580	68.000000	26.000000
453.199580	453.390513	61.000000	31.000000
453.390513	453.607062	65.000000	25.000000
453.390513	453.607062	68.000000	25.000000
453.390513	453.607062	73.000000	32.000000
453.485987	453.607062	80.000000	57.000000
453.607062	454.121925	85.000000	66.000000
453.607062	453.778468	61.000000	33.000000
453.778468	453.950197	65.000000	24.000000
453.778468	453.950197	68.000000	24.000000
453.778468	453.950197	73.000000	30.000000
453.950197	454.121925	61.000000	31.000000
454.121925	454.577566	89.000000	62.000000
454.121925	454.301982	65.000000	26.000000
454.121925	454.301982	68.000000	26.000000
454.121925	454.301982	73.000000	33.000000
454.301982	454.485700	61.000000	31.000000
454.485700	454.682548	68.000000	24.000000
454.485700	454.682548	73.000000	31.000000
454.485700	454.682548	65.000000	24.000000
454.577566	454.682548	85.000000	55.000000
454.682548	455.213532	84.000000	63.000000
454.682548	454.863423	63.000000	33.000000
454.863423	455.038477	66.000000	24.000000
454.863423	455.038477	68.000000	24.000000
454.863423	455.038477	75.000000	31.000000
455.038477	455.213532	63.000000	31.000000
455.213532	455.673397	87.000000	66.000000
455.213532	455.392060	68.000000	26.000000
455.213532	455.392060	66.000000	26.000000
455.213532	455.392060	75.000000	33.000000
455.392060	455.579613	63.000000	31.000000
455.579613	455.786251	66.000000	25.000000
455.579613	455.786251	68.000000	25.000000
455.579613	455.786251	75.000000	32.000000
455.673397	455.786251	84.000000	55.000000
455.786251	456.301450	85.000000	66.000000
455.786251	455.957993	65.000000	33.000000
455.957993	456.129721	68.000000	24.000000
455.957993	456.129721	77.000000	30.000000
455.957993	456.129721	73.000000	24.000000
456.129721	456.301450	65.000000	31.000000
456.301450	457.360628	80.000000	59.000000
456.301450	456.477979	77.000000	33.000000
456.301450	456.477979	73.000000	26.000000
456.301450	456.477979	68.000000	26.000000
456.477979	456.654509	65.000000	31.000000
456.654509	456.831039	68.000000	24.000000
456.654509	456.831039	77.000000	31.000000
456.654509	456.831039	73.000000	24.000000
456.831039	457.007569	65.000000	33.000000
457.007569	457.184098	77.000000	31.000000
457.007569	457.184098	68.000000	24.000000
457.007569	457.184098	73.000000	24.000000
457.184098	457.360628	65.000000	31.000000
457.360628	457.818495	77.000000	68.000000
457.360628	457.537158	73.000000	36.000000
457.360628	457.537158	68.000000	36.000000
457.537158	457.724711	68.000000	34.000000
457.724711	457.930960	68.000000	35.000000
457.724711	457.930960	73.000000	35.000000
457.818495	457.930960	80.000000	62.000000
457.930960	458.444778	85.000000	71.000000
457.930960	458.102232	65.000000	36.000000
458.102232	458.273505	68.000000	26.000000
458.102232	458.273505	73.000000	26.000000
458.102232	458.273505	77.000000	33.000000
458.273505	458.444778	65.000000	34.000000
458.444778	458.901719	89.000000	74.000000
458.444778	458.625344	73.000000	29.000000
458.444778	458.625344	68.000000	29.000000
458.444778	458.625344	77.000000	37.000000
458.625344	458.809598	65.000000	35.000000
458.809598	459.006701	77.000000	36.000000
458.809598	459.006701	73.000000	27.000000
458.809598	459.006701	68.000000	27.000000
458.901719	459.006701	85.000000	64.000000
459.006701	459.537698	84.000000	75.000000
459.006701	459.187589	66.000000	39.000000
459.187589	459.362643	69.000000	28.000000
459.187589	459.362643	75.000000	37.000000
459.187589	459.362643	72.000000	28.000000
459.362643	459.537698	66.000000	38.000000
459.537698	460.004376	87.000000	80.000000
459.537698	459.716226	75.000000	40.000000
459.537698	459.716226	69.000000	40.000000
459.537698	459.716226	72.000000	40.000000
459.716226	459.908326	66.000000	38.000000
459.908326	460.122286	75.000000	40.000000
459.908326	460.122286	69.000000	40.000000
459.908326	460.122286	72.000000	40.000000
460.004376	460.122286	84.000000	71.000000
460.122286	460.644029	83.000000	85.000000
460.122286	460.296200	65.000000	49.000000
460.296200	460.470115	74.000000	39.000000
460.296200	460.470115	71.000000	30.000000
460.296200	460.470115	68.000000	30.000000
460.470115	460.644029	65.000000	41.000000
460.644029	461.721313	86.000000	95.000000
460.644029	460.823577	68.000000	35.000000
460.644029	460.823577	74.000000	44.000000
460.644029	460.823577	71.000000	35.000000
460.823577	461.003124	65.000000	42.000000
461.003124	461.182671	68.000000	34.000000
461.003124	461.182671	74.000000	44.000000
461.003124	461.182671	71.000000	34.000000
461.182671	461.362218	65.000000	49.000000
461.362218	461.541765	68.000000	36.000000
461.362218	461.541765	71.000000	36.000000
461.362218	461.541765	74.000000	48.000000
461.541765	461.721313	65.000000	48.000000
461.721313	462.175250	86.000000	84.000000
461.721313	461.900860	71.000000	41.000000
461.721313	461.900860	68.000000	41.000000
461.721313	461.900860	74.000000	55.000000
461.900860	462.083787	65.000000	50.000000
462.083787	462.296781	74.000000	52.000000
462.083787	462.296781	68.000000	41.000000
462.083787	462.296781	71.000000	41.000000
462.175250	462.296781	83.000000	79.000000
462.296781	462.820053	84.000000	85.000000
462.296781	462.471205	64.000000	54.000000
462.471205	462.645629	76.000000	47.000000
462.471205	462.645629	72.000000	37.000000
462.471205	462.645629	67.000000	37.000000
462.645629	462.820053	64.000000	51.000000
462.820053	463.897336	88.000000	97.000000
462.820053	462.999601	67.000000	42.000000
462.820053	462.999601	76.000000	53.000000
462.820053	462.999601	72.000000	42.000000
462.999601	463.179148	64.000000	47.000000
463.179148	463.358695	67.000000	41.000000
463.179148	463.358695	76.000000	52.000000
463.179148	463.358695	72.000000	41.000000
463.358695	463.538242	64.000000	49.000000
463.538242	463.717789	67.000000	43.000000
463.538242	463.717789	72.000000	43.000000
463.538242	463.717789	76.000000	54.000000
463.717789	463.897336	64.000000	48.000000
463.897336	464.349611	91.000000	84.000000
463.897336	464.349611	79.000000	71.000000
463.897336	464.076884	72.000000	41.000000
463.897336	464.076884	67.000000	41.000000
463.897336	464.076884	76.000000	55.000000
464.076884	464.258697	64.000000	50.000000
464.258697	464.471142	76.000000	52.000000
464.258697	464.471142	67.000000	41.000000
464.258697	464.471142	72.000000	41.000000
464.349611	464.471142	77.000000	67.000000
464.349611	464.471142	89.000000	79.000000
464.471142	464.994401	88.000000	85.000000
464.471142	464.994401	76.000000	72.000000
464.471142	464.645553	58.000000	54.000000
464.645553	464.819977	67.000000	47.000000
464.645553	464.819977	64.000000	37.000000
464.645553	464.819977	61.000000	37.000000
464.819977	464.994401	58.000000	51.000000
464.994401	466.071671	79.000000	79.000000
464.994401	466.071671	91.000000	93.000000
464.994401	465.173948	61.000000	42.000000
464.994401	465.173948	67.000000	53.000000
464.994401	465.173948	64.000000	42.000000
465.173948	465.353495	58.000000	47.000000
465.353495	465.533042	61.000000	41.000000
465.353495	465.533042	67.000000	52.000000
465.353495	465.533042	64.000000	41.000000
465.533042	465.712576	58.000000	49.000000
465.712576	465.892123	64.000000	43.000000
465.712576	465.892123	67.000000	54.000000
465.712576	465.892123	61.000000	43.000000
465.892123	466.071671	58.000000	48.000000
466.071671	466.523945	79.000000	74.000000
466.071671	466.523945	91.000000	88.000000
466.071671	466.251218	61.000000	43.000000
466.071671	466.251218	67.000000	57.000000
466.071671	466.251218	64.000000	43.000000
466.251218	466.433031	58.000000	52.000000
466.433031	466.645476	61.000000	43.000000
466.433031	466.645476	64.000000	43.000000
466.433031	466.645476	67.000000	54.000000
466.523945	466.645476	76.000000	70.000000
466.523945	466.645476	88.000000	82.000000
466.645476	467.168748	89.000000	89.000000
466.645476	467.168748	77.000000	75.000000
466.645476	466.819900	56.000000	56.000000
466.819900	466.994324	60.000000	38.000000
466.819900	466.994324	65.000000	38.000000
466.819900	466.994324	68.000000	49.000000
466.994324	467.168748	56.000000	53.000000
467.168748	468.246032	92.000000	96.000000
467.168748	468.246032	80.000000	81.000000
467.168748	467.348296	65.000000	44.000000
467.168748	467.348296	68.000000	55.000000
467.168748	467.348296	60.000000	44.000000
467.348296	467.527843	56.000000	49.000000
467.527843	467.707390	65.000000	43.000000
467.527843	467.707390	68.000000	54.000000
467.527843	467.707390	60.000000	43.000000
467.707390	467.886937	56.000000	51.000000
467.886937	468.066484	65.000000	45.000000
467.886937	468.066484	68.000000	56.000000
467.886937	468.066484	60.000000	45.000000
468.066484	468.246032	56.000000	50.000000
468.246032	468.706916	92.000000	88.000000
468.246032	468.706916	80.000000	74.000000
468.246032	468.425579	60.000000	43.000000
468.246032	468.425579	68.000000	57.000000
468.246032	468.425579	65.000000	43.000000
468.425579	468.613132	56.000000	52.000000
468.613132	468.828447	60.000000	43.000000
468.613132	468.828447	65.000000	43.000000
468.613132	468.828447	68.000000	54.000000
468.706916	468.828447	89.000000	82.000000
468.706916	468.828447	77.000000	70.000000
468.828447	469.027950	34.000000	101.000000
468.828447	469.027950	46.000000	101.000000
468.942079	469.027950	61.000000	80.000000
469.027950	469.113083	58.000000	77.000000
469.113083	469.197452	66.000000	72.000000
469.197452	469.281204	49.000000	75.000000
469.281204	469.372279	54.000000	69.000000
469.372279	469.539286	58.000000	86.000000
469.455776	469.539286	66.000000	75.000000
469.539286	469.622797	61.000000	78.000000
469.622797	469.706308	70.000000	73.000000
469.706308	469.789818	54.000000	75.000000
469.789818	469.882086	58.000000	73.000000
469.882086	470.049108	61.000000	86.000000
469.965597	470.049108	70.000000	74.000000
470.049108	470.132618	66.000000	80.000000
470.132618	470.216129	73.000000	74.000000
470.216129	470.299639	58.000000	78.000000
470.299639	470.391009	61.000000	73.000000
470.391009	470.557011	66.000000	84.000000
470.474010	470.557011	73.000000	75.000000
470.557011	470.640012	70.000000	80.000000
470.640012	470.723013	78.000000	72.000000
470.723013	470.806014	61.000000	77.000000
470.806014	470.897679	66.000000	71.000000
470.897679	471.063667	70.000000	81.000000
470.980666	471.063667	78.000000	74.000000
471.063667	471.146668	73.000000	77.000000
471.146668	471.229669	82.000000	72.000000
471.229669	471.312670	66.000000	75.000000
471.312670	471.404335	70.000000	74.000000
471.404335	471.570323	73.000000	81.000000
471.487322	471.570323	82.000000	71.000000
471.570323	471.653324	78.000000	75.000000
471.653324	471.736325	85.000000	73.000000
471.736325	471.819326	70.000000	75.000000
471.819326	471.910106	73.000000	73.000000
471.910106	472.077114	78.000000	84.000000
471.993603	472.077114	85.000000	74.000000
472.077114	472.160624	82.000000	80.000000
472.160624	472.244135	90.000000	74.000000
472.244135	472.327646	73.000000	75.000000
472.327646	472.419619	78.000000	74.000000
472.419619	472.589765	82.000000	83.000000
472.589765	472.677473	90.000000	82.000000
472.677473	472.766978	85.000000	79.000000
472.766978	473.044708	94.000000	84.000000
473.044708	473.270845	48.000000	101.000000
473.044708	473.270845	36.000000	101.000000
473.184974	473.270845	63.000000	80.000000
473.270845	473.355978	60.000000	77.000000
473.355978	473.440347	69.000000	72.000000
473.440347	473.524099	51.000000	80.000000
473.524099	473.615174	57.000000	73.000000
473.615174	473.782182	60.000000	89.000000
473.698671	473.782182	69.000000	75.000000
473.782182	473.865692	63.000000	78.000000
473.865692	473.949203	72.000000	73.000000
473.949203	474.032714	57.000000	78.000000
474.032714	474.124982	60.000000	73.000000
474.124982	474.292003	63.000000	86.000000
474.208492	474.292003	72.000000	74.000000
474.292003	474.375514	69.000000	80.000000
474.375514	474.459024	75.000000	74.000000
474.459024	474.542535	60.000000	78.000000
474.542535	474.633904	63.000000	73.000000
474.633904	474.799906	69.000000	84.000000
474.716905	474.799906	75.000000	75.000000
474.799906	474.882907	72.000000	80.000000
474.882907	474.965908	81.000000	72.000000
474.965908	475.048909	63.000000	77.000000
475.048909	475.140574	69.000000	71.000000
475.140574	475.306563	72.000000	82.000000
475.223562	475.306563	81.000000	75.000000
475.306563	475.389564	75.000000	77.000000
475.389564	475.472565	84.000000	72.000000
475.472565	475.555566	69.000000	75.000000
475.555566	475.647230	72.000000	73.000000
475.647230	475.813219	75.000000	85.000000
475.730218	475.813219	84.000000	71.000000
475.813219	475.896220	81.000000	75.000000
475.896220	475.979221	87.000000	73.000000
475.979221	476.062222	72.000000	75.000000
476.062222	476.153001	75.000000	73.000000
476.153001	476.320009	81.000000	84.000000
476.236498	476.320009	87.000000	74.000000
476.320009	476.403520	84.000000	80.000000
476.403520	476.487030	93.000000	74.000000
476.487030	476.570541	75.000000	80.000000
476.570541	476.662514	81.000000	74.000000
476.662514	476.832647	84.000000	85.000000
476.832647	476.920341	93.000000	83.000000
476.920341	477.009847	87.000000	77.000000
477.009847	477.237607	96.000000	83.000000
477.237607	477.410046	37.000000	101.000000
477.237607	477.410046	49.000000	101.000000
477.324175	477.410046	65.000000	74.000000
477.410046	477.495179	61.000000	77.000000
477.495179	477.579548	70.000000	72.000000
477.579548	477.663300	53.000000	78.000000
477.663300	477.754375	58.000000	73.000000
477.754375	477.921383	61.000000	84.000000
477.921383	478.004893	70.000000	75.000000
478.004893	478.088404	65.000000	72.000000
478.088404	478.264183	73.000000	73.000000
478.264183	478.440176	52.000000	101.000000
478.264183	478.440176	40.000000	101.000000
478.354305	478.440176	67.000000	75.000000
478.440176	478.525309	64.000000	77.000000
478.525309	478.609678	72.000000	72.000000
478.609678	478.693430	55.000000	80.000000
478.693430	478.784505	60.000000	73.000000
478.784505	478.951513	64.000000	82.000000
478.951513	479.035023	72.000000	75.000000
479.035023	479.118534	67.000000	72.000000
479.118534	479.294313	76.000000	73.000000
479.294313	479.470306	53.000000	101.000000
479.294313	479.470306	41.000000	101.000000
479.384435	479.470306	68.000000	73.000000
479.470306	479.555439	65.000000	77.000000
479.555439	479.639808	73.000000	72.000000
479.639808	479.723560	56.000000	80.000000
479.723560	479.814635	61.000000	73.000000
479.814635	479.981642	65.000000	86.000000
479.981642	480.065153	73.000000	75.000000
480.065153	480.148664	68.000000	71.000000
480.148664	480.324442	77.000000	73.000000
480.324442	480.500436	43.000000	101.000000
480.324442	480.500436	55.000000	101.000000
480.414565	480.500436	70.000000	80.000000
480.500436	480.585569	67.000000	77.000000
480.585569	480.669938	76.000000	72.000000
480.669938	480.753690	58.000000	80.000000
480.753690	480.844764	64.000000	73.000000
480.844764	481.011772	67.000000	86.000000
481.011772	481.095283	76.000000	75.000000
481.095283	481.178794	70.000000	73.000000
481.178794	481.354572	79.000000	73.000000
481.354572	481.519850	44.000000	75.000000
481.437211	481.519850	72.000000	64.000000
481.519850	481.602489	68.000000	69.000000
481.602489	481.685128	77.000000	64.000000
481.685128	481.767767	56.000000	69.000000
481.767767	481.859431	60.000000	61.000000
481.859431	482.024267	46.000000	77.000000
481.941856	482.024267	73.000000	64.000000
482.024267	482.106678	70.000000	69.000000
482.106678	482.189089	79.000000	67.000000
482.189089	482.271499	58.000000	69.000000
482.271499	482.362279	61.000000	64.000000
482.362279	482.528013	48.000000	78.000000
482.445146	482.528013	75.000000	69.000000
482.528013	482.610880	72.000000	73.000000
482.610880	482.693746	81.000000	69.000000
482.693746	482.776613	60.000000	71.000000
482.776613	482.868586	63.000000	67.000000
482.868586	483.034320	49.000000	81.000000
482.951453	483.034320	77.000000	71.000000
483.034320	483.117187	73.000000	68.000000
483.117187	483.200054	82.000000	70.000000
483.200054	483.282921	61.000000	77.000000
483.282921	483.372212	65.000000	71.000000
483.372212	483.537235	52.000000	80.000000
483.454824	483.537235	79.000000	71.000000
483.537235	483.619646	76.000000	73.000000
483.619646	483.702057	84.000000	70.000000
483.702057	483.784467	64.000000	77.000000
483.784467	483.876132	67.000000	73.000000
483.876132	484.040967	53.000000	83.000000
483.958556	484.040967	80.000000	69.000000
484.040967	484.123378	77.000000	73.000000
484.123378	484.205789	85.000000	72.000000
484.205789	484.288200	65.000000	77.000000
484.288200	484.378979	68.000000	72.000000
484.378979	484.543815	55.000000	84.000000
484.461404	484.543815	82.000000	74.000000
484.543815	484.626226	79.000000	78.000000
484.626226	484.708637	88.000000	74.000000
484.708637	484.791048	67.000000	78.000000
484.791048	484.883021	70.000000	74.000000
484.883021	485.048298	56.000000	85.000000
484.965659	485.048298	84.000000	75.000000
485.048298	485.130937	80.000000	77.000000
485.130937	485.213576	89.000000	75.000000
485.213576	485.296215	68.000000	77.000000
485.296215	485.386029	72.000000	73.000000
485.386029	485.551307	58.000000	86.000000
485.468668	485.551307	85.000000	78.000000
485.551307	485.633946	82.000000	79.000000
485.633946	485.716585	91.000000	74.000000
485.716585	485.799224	70.000000	81.000000
485.799224	485.890888	73.000000	77.000000
485.890888	486.056166	60.000000	89.000000
485.973527	486.056166	87.000000	74.000000
486.056166	486.138805	84.000000	79.000000
486.138805	486.221444	93.000000	74.000000
486.221444	486.304083	72.000000	80.000000
486.304083	486.394862	75.000000	78.000000
486.394862	486.560140	61.000000	89.000000
486.477501	486.560140	89.000000	79.000000
486.560140	486.642779	85.000000	80.000000
486.642779	486.725418	94.000000	79.000000
486.725418	486.808057	73.000000	83.000000
486.808057	486.900030	77.000000	80.000000
486.900030	487.070162	61.000000	92.000000
486.984305	487.070162	89.000000	81.000000
487.070162	487.157857	85.000000	83.000000
487.157857	487.247363	94.000000	80.000000
487.247363	487.338772	73.000000	84.000000
487.338772	487.444894	77.000000	80.000000
487.444894	487.531435	41.000000	108.000000
487.531435	487.617561	53.000000	100.000000
487.617561	487.703271	56.000000	92.000000
487.703271	487.788579	89.000000	78.000000
487.788579	487.873484	85.000000	82.000000
487.873484	487.957907	94.000000	79.000000
487.957907	488.042021	89.000000	89.000000
488.042021	488.125666	85.000000	83.000000
488.125666	488.208922	82.000000	78.000000
488.208922	488.291869	77.000000	78.000000
488.291869	488.374736	73.000000	82.000000
488.374736	488.457603	82.000000	79.000000
488.457603	488.540470	77.000000	86.000000
488.540470	488.623337	73.000000	82.000000
488.623337	488.706204	70.000000	80.000000
488.706204	488.789070	65.000000	74.000000
488.789070	488.871937	61.000000	78.000000
488.871937	488.954804	70.000000	73.000000
488.954804	489.038610	65.000000	81.000000
489.038610	489.122416	61.000000	78.000000
489.122416	489.206449	58.000000	74.000000
489.206449	489.290483	53.000000	74.000000
489.290483	489.374758	49.000000	74.000000
489.374758	489.459033	58.000000	74.000000
489.459033	489.543536	53.000000	79.000000
489.543536	489.627959	49.000000	71.000000
489.627959	489.712234	46.000000	74.000000
489.712234	489.796267	49.000000	71.000000
489.796267	489.880140	53.000000	74.000000
489.880140	489.963865	58.000000	72.000000
489.963865	490.047430	61.000000	80.000000
490.047430	490.130766	65.000000	75.000000
490.130766	490.213941	70.000000	75.000000
490.213941	490.297050	73.000000	75.000000
490.297050	490.380855	77.000000	79.000000
490.380855	490.464661	73.000000	73.000000
490.464661	490.548695	70.000000	80.000000
490.548695	490.632809	73.000000	74.000000
490.632809	490.717084	77.000000	79.000000
490.717084	490.801506	82.000000	74.000000
490.801506	490.886009	85.000000	82.000000
490.886009	490.970633	82.000000	75.000000
490.970633	491.055619	89.000000	83.000000
491.055619	491.141584	85.000000	78.000000
491.141584	491.228581	94.000000	83.000000
491.228581	491.316638	89.000000	78.000000
491.316638	491.405795	85.000000	80.000000
491.405795	491.521184	82.000000	75.000000
491.521184	491.607551	62.000000	105.000000
491.607551	491.693435	74.000000	100.000000
491.693435	491.778984	77.000000	92.000000
491.778984	491.864131	92.000000	78.000000
491.864131	491.948956	89.000000	85.000000
491.948956	492.033379	95.000000	81.000000
492.033379	492.117493	92.000000	92.000000
492.117493	492.201218	89.000000	80.000000
492.201218	492.284635	86.000000	81.000000
492.284635	492.367663	83.000000	77.000000
492.367663	492.450382	80.000000	81.000000
492.450382	492.533034	77.000000	79.000000
492.533034	492.615673	83.000000	85.000000
492.615673	492.698312	80.000000	82.000000
492.698312	492.780951	77.000000	78.000000
492.780951	492.863523	74.000000	74.000000
492.863523	492.945934	71.000000	75.000000
492.945934	493.028506	68.000000	73.000000
493.028506	493.111145	74.000000	81.000000
493.111145	493.194012	71.000000	78.000000
493.194012	493.276959	68.000000	74.000000
493.276959	493.360067	65.000000	74.000000
493.360067	493.443323	62.000000	74.000000
493.443323	493.526887	59.000000	74.000000
493.526887	493.610921	68.000000	79.000000
493.610921	493.694727	65.000000	71.000000
493.694727	493.778291	62.000000	74.000000
493.778291	493.861627	59.000000	71.000000
493.861627	493.944735	56.000000	74.000000
493.944735	494.027602	53.000000	72.000000
494.027602	494.110241	50.000000	80.000000
494.110241	494.192652	47.000000	75.000000
494.192652	494.274849	50.000000	75.000000
494.274849	494.357045	53.000000	75.000000
494.357045	494.439536	56.000000	79.000000
494.439536	494.522256	59.000000	73.000000
494.522256	494.605270	62.000000	80.000000
494.605270	494.688606	65.000000	74.000000
494.688606	494.772251	68.000000	79.000000
494.772251	494.856204	71.000000	74.000000
494.856204	494.940788	74.000000	82.000000
494.940788	495.026417	77.000000	75.000000
495.026417	495.113294	80.000000	83.000000
495.113294	495.201365	83.000000	78.000000
495.201365	495.290655	86.000000	83.000000
495.290655	495.381193	89.000000	78.000000
495.381193	495.473032	92.000000	80.000000
495.473032	495.659366	95.000000	75.000000
495.659366	495.871381	36.000000	122.000000
495.977382	496.083383	92.000000	78.000000
496.083383	496.210225	89.000000	82.000000
496.210225	496.313423	96.000000	79.000000
496.313423	496.401962	92.000000	92.000000
496.401962	496.490019	89.000000	83.000000
496.490019	496.577647	84.000000	82.000000
496.577647	496.664940	80.000000	78.000000
496.664940	496.751817	77.000000	82.000000
496.751817	496.838358	84.000000	79.000000
496.838358	496.924484	80.000000	86.000000
496.924484	497.010274	77.000000	82.000000
497.010274	497.095824	72.000000	80.000000
497.095824	497.180970	68.000000	74.000000
497.180970	497.265795	65.000000	78.000000
497.265795	497.350218	72.000000	73.000000
497.350218	497.434332	68.000000	81.000000
497.434332	497.518057	65.000000	78.000000
497.518057	497.601474	60.000000	74.000000
497.601474	497.684810	56.000000	74.000000
497.684810	497.769085	53.000000	74.000000
497.769085	497.853360	60.000000	74.000000
497.853360	497.937863	56.000000	79.000000
497.937863	498.022286	53.000000	71.000000
498.022286	498.106561	48.000000	74.000000
498.106561	498.190595	44.000000	71.000000
498.190595	498.274467	41.000000	74.000000
498.274467	498.358193	36.000000	72.000000
498.358193	498.441757	41.000000	80.000000
498.441757	498.525093	44.000000	75.000000
498.525093	498.608269	48.000000	75.000000
498.608269	498.691377	53.000000	75.000000
498.691377	498.775182	56.000000	79.000000
498.775182	498.858988	60.000000	73.000000
498.858988	498.943035	65.000000	80.000000
498.943035	499.027149	68.000000	74.000000
499.027149	499.111424	72.000000	79.000000
499.111424	499.195847	77.000000	74.000000
499.195847	499.280350	80.000000	78.000000
499.280350	499.364974	84.000000	75.000000
499.364974	499.449960	89.000000	83.000000
499.449960	499.535925	92.000000	78.000000
499.535925	499.622922	96.000000	83.000000
499.622922	499.710979	92.000000	78.000000
499.710979	499.799908	89.000000	80.000000
499.799908	499.888930	84.000000	75.000000
499.888930	499.975633	36.000000	82.000000
499.975633	500.062000	48.000000	72.000000
500.062000	500.148045	52.000000	73.000000
500.148045	500.233675	91.000000	72.000000
500.148045	500.233675	55.000000	74.000000
500.233675	500.318983	88.000000	77.000000
500.233675	500.403968	58.000000	74.000000
500.318983	500.403968	94.000000	73.000000
500.403968	500.488632	91.000000	78.000000
500.488632	500.572988	88.000000	77.000000
500.572988	500.656941	84.000000	74.000000
500.656941	500.740586	82.000000	72.000000
500.740586	500.824070	79.000000	77.000000
500.824070	500.907634	76.000000	73.000000
500.907634	500.991198	72.000000	78.000000
500.991198	501.074762	70.000000	75.000000
501.074762	501.158327	67.000000	71.000000
501.158327	501.241891	64.000000	70.000000
501.241891	501.325455	60.000000	73.000000
501.325455	501.409020	58.000000	69.000000
501.409020	501.492825	55.000000	74.000000
501.492825	501.576631	52.000000	69.000000
501.576631	501.660665	48.000000	71.000000
501.660665	501.744698	46.000000	70.000000
501.744698	501.828973	43.000000	70.000000
501.828973	501.913248	40.000000	70.000000
501.913248	501.997751	36.000000	75.000000
501.997751	502.082174	40.000000	67.000000
502.082174	502.166449	43.000000	70.000000
502.166449	502.250483	46.000000	67.000000
502.250483	502.334355	48.000000	70.000000
502.334355	502.418081	52.000000	68.000000
502.418081	502.501645	55.000000	76.000000
502.501645	502.584981	58.000000	71.000000
502.584981	502.668157	60.000000	71.000000
502.668157	502.751265	64.000000	71.000000
502.751265	502.835071	67.000000	73.000000
502.835071	502.918876	70.000000	69.000000
502.918876	503.002910	72.000000	73.000000
503.002910	503.087024	76.000000	66.000000
503.087024	503.171299	79.000000	70.000000
503.171299	503.255722	76.000000	66.000000
503.255722	503.340708	72.000000	70.000000
503.340708	503.426672	76.000000	66.000000
503.426672	503.513630	79.000000	70.000000
503.513630	503.601606	76.000000	60.000000
503.601606	503.690629	82.000000	65.000000
503.690629	503.780724	79.000000	58.000000
503.780724	503.871906	76.000000	63.000000
503.871906	503.987295	79.000000	56.000000
503.987295	504.417186	82.000000	57.000000
504.632138	504.916037	49.000000	37.000000
504.916037	505.207218	49.000000	35.000000
505.207218	505.508725	49.000000	35.000000
505.508725	505.933265	48.000000	36.000000
506.145536	506.429434	79.000000	46.000000
506.145536	506.429434	76.000000	46.000000
506.429434	506.713333	76.000000	42.000000
506.429434	506.713333	79.000000	42.000000
506.713333	507.015202	76.000000	46.000000
506.713333	507.015202	79.000000	46.000000
507.015202	507.463467	82.000000	46.000000
507.015202	507.463467	79.000000	46.000000
507.687592	507.972684	49.000000	35.000000
507.972684	508.265112	49.000000	33.000000
508.265112	508.569315	49.000000	33.000000
508.569315	509.042511	48.000000	34.000000
509.279109	509.579288	64.000000	39.000000
509.279109	509.579288	67.000000	39.000000
509.579288	509.879468	64.000000	37.000000
509.579288	509.879468	67.000000	37.000000
509.879468	510.190604	67.000000	37.000000
509.879468	510.190604	64.000000	37.000000
510.190604	510.777968	67.000000	41.000000
510.190604	510.777968	70.000000	41.000000
511.079489	511.422745	37.000000	32.000000
511.422745	511.771271	37.000000	30.000000
511.771271	512.125270	37.000000	30.000000
512.125270	513.230233	36.000000	31.000000
513.230233	513.602578	37.000000	31.000000
513.602578	513.974922	37.000000	29.000000
513.974922	514.347267	37.000000	29.000000
514.347267	515.464314	36.000000	29.000000
515.464314	515.869716	70.000000	32.000000
515.464314	515.869716	67.000000	32.000000
515.464314	515.869716	76.000000	32.000000
515.464314	515.869716	37.000000	21.000000
515.869716	516.298293	76.000000	36.000000
515.869716	516.298293	70.000000	36.000000
515.869716	516.298293	67.000000	36.000000
515.869716	516.298293	37.000000	24.000000
516.298293	516.859036	76.000000	39.000000
516.298293	516.859036	67.000000	39.000000
516.298293	516.859036	70.000000	39.000000
516.298293	516.859036	37.000000	26.000000
516.859036	518.437987	76.000000	43.000000
516.859036	518.437987	70.000000	43.000000
516.859036	518.437987	67.000000	43.000000
516.859036	518.437987	36.000000	28.000000
518.437987	518.605115	84.000000	87.000000
518.437987	518.605115	82.000000	87.000000
518.437987	518.605115	79.000000	87.000000
518.437987	518.605115	76.000000	87.000000
518.437987	518.605115	88.000000	102.000000
518.437987	518.605115	36.000000	70.000000
518.437987	518.605115	48.000000	83.000000
518.605115	518.772244	76.000000	78.000000
518.605115	518.772244	84.000000	78.000000
518.605115	518.772244	79.000000	78.000000
518.605115	518.772244	88.000000	93.000000
518.605115	518.772244	82.000000	78.000000
518.605115	518.772244	48.000000	78.000000
518.605115	518.772244	36.000000	65.000000
518.772244	518.939372	79.000000	78.000000
518.772244	518.939372	76.000000	78.000000
518.772244	518.939372	82.000000	78.000000
518.772244	518.939372	84.000000	78.000000
518.772244	518.939372	88.000000	93.000000
518.772244	518.939372	48.000000	78.000000
518.772244	518.939372	36.000000	65.000000
518.939372	519.238801	84.000000	87.000000
518.939372	519.238801	80.000000	87.000000
518.939372	519.238801	89.000000	102.000000
518.939372	519.238801	77.000000	87.000000
518.939372	519.106501	29.000000	71.000000
518.939372	519.106501	41.000000	85.000000
519.106501	519.238801	65.000000	30.000000
519.106501	519.238801	60.000000	30.000000
519.238801	519.371101	56.000000	37.000000
519.371101	519.503401	65.000000	42.000000
519.371101	519.503401	60.000000	32.000000
519.503401	519.635701	56.000000	37.000000
519.635701	519.768001	60.000000	30.000000
519.635701	519.768001	65.000000	37.000000
519.768001	519.900301	56.000000	42.000000
519.900301	520.032601	65.000000	37.000000
519.900301	520.032601	60.000000	30.000000
520.032601	520.164901	56.000000	37.000000
520.164901	520.505851	68.000000	66.000000
520.164901	520.297201	65.000000	42.000000
520.164901	520.297201	60.000000	32.000000
520.297201	520.436301	56.000000	37.000000
520.436301	520.594055	65.000000	41.000000
520.436301	520.594055	60.000000	31.000000
520.505851	520.594055	72.000000	58.000000
520.594055	520.969122	77.000000	63.000000
520.594055	520.718925	56.000000	42.000000
520.718925	520.844024	60.000000	30.000000
520.718925	520.844024	65.000000	36.000000
520.844024	520.969122	56.000000	37.000000
520.969122	521.301046	80.000000	68.000000
520.969122	521.100282	65.000000	42.000000
520.969122	521.100282	60.000000	32.000000
521.100282	521.234124	56.000000	37.000000
521.234124	521.377529	65.000000	37.000000
521.234124	521.377529	60.000000	30.000000
521.301046	521.377529	77.000000	60.000000
521.377529	521.764344	76.000000	63.000000
521.377529	521.509292	58.000000	42.000000
521.509292	521.636818	67.000000	37.000000
521.509292	521.636818	60.000000	30.000000
521.636818	521.764344	58.000000	37.000000
521.764344	522.099365	79.000000	68.000000
521.764344	521.894404	67.000000	42.000000
521.764344	521.894404	60.000000	32.000000
521.894404	522.031049	58.000000	37.000000
522.031049	522.181575	67.000000	41.000000
522.031049	522.181575	60.000000	31.000000
522.099365	522.181575	76.000000	60.000000
522.181575	522.556870	77.000000	63.000000
522.181575	522.306673	56.000000	42.000000
522.306673	522.431772	60.000000	30.000000
522.306673	522.431772	65.000000	36.000000
522.431772	522.556870	56.000000	37.000000
522.556870	523.328462	72.000000	62.000000
522.556870	522.685469	60.000000	32.000000
522.556870	522.685469	65.000000	42.000000
522.685469	522.814067	56.000000	37.000000
522.814067	522.942666	60.000000	30.000000
522.814067	522.942666	65.000000	37.000000
522.942666	523.071264	56.000000	42.000000
523.071264	523.199863	60.000000	30.000000
523.071264	523.199863	65.000000	37.000000
523.199863	523.328462	56.000000	42.000000
523.328462	523.656040	80.000000	71.000000
523.328462	523.656040	68.000000	60.000000
523.328462	523.457060	60.000000	34.000000
523.328462	523.457060	65.000000	44.000000
523.457060	523.589709	56.000000	40.000000
523.589709	523.744245	60.000000	33.000000
523.589709	523.744245	65.000000	44.000000
523.656040	523.744245	84.000000	62.000000
523.656040	523.744245	72.000000	52.000000
523.744245	524.119311	77.000000	61.000000
523.744245	524.119311	89.000000	73.000000
523.744245	523.869115	56.000000	46.000000
523.869115	523.994213	68.000000	40.000000
523.869115	523.994213	60.000000	34.000000
523.869115	523.994213	65.000000	40.000000
523.994213	524.119311	56.000000	42.000000
524.119311	524.451235	92.000000	78.000000
524.119311	524.451235	80.000000	65.000000
524.119311	524.250472	68.000000	47.000000
524.119311	524.250472	60.000000	36.000000
524.119311	524.250472	65.000000	47.000000
524.250472	524.384314	56.000000	43.000000
524.384314	524.531017	68.000000	44.000000
524.384314	524.531017	65.000000	44.000000
524.384314	524.531017	60.000000	36.000000
524.451235	524.531017	89.000000	71.000000
524.451235	524.531017	77.000000	59.000000
524.531017	524.918932	88.000000	76.000000
524.531017	524.918932	76.000000	64.000000
524.531017	524.663881	58.000000	49.000000
524.663881	524.791406	64.000000	36.000000
524.663881	524.791406	60.000000	36.000000
524.663881	524.791406	67.000000	45.000000
524.791406	524.918932	58.000000	46.000000
524.918932	525.250842	91.000000	82.000000
524.918932	525.250842	79.000000	68.000000
524.918932	525.048993	64.000000	39.000000
524.918932	525.048993	67.000000	51.000000
524.918932	525.048993	60.000000	39.000000
525.048993	525.183559	58.000000	47.000000
525.183559	525.344143	64.000000	38.000000
525.183559	525.344143	67.000000	51.000000
525.183559	525.344143	60.000000	38.000000
525.250842	525.344143	88.000000	77.000000
525.250842	525.344143	76.000000	65.000000
525.344143	525.719438	90.000000	99.000000
525.344143	525.719438	78.000000	82.000000
525.344143	525.469241	57.000000	55.000000
525.469241	525.594340	66.000000	48.000000
525.469241	525.594340	63.000000	48.000000
525.469241	525.594340	60.000000	39.000000
525.594340	525.719438	57.000000	49.000000
525.719438	526.491030	72.000000	63.000000
525.719438	526.491030	84.000000	79.000000
525.719438	525.848037	66.000000	55.000000
525.719438	525.848037	60.000000	41.000000
525.719438	525.848037	63.000000	55.000000
525.848037	525.976635	57.000000	49.000000
525.976635	526.105234	60.000000	39.000000
525.976635	526.105234	63.000000	49.000000
525.976635	526.105234	66.000000	49.000000
526.105234	526.233832	57.000000	55.000000
526.233832	526.362431	66.000000	49.000000
526.233832	526.362431	60.000000	39.000000
526.233832	526.362431	63.000000	49.000000
526.362431	526.491030	57.000000	55.000000
526.491030	526.822940	75.000000	70.000000
526.491030	526.822940	87.000000	84.000000
526.491030	526.621090	63.000000	40.000000
526.491030	526.621090	66.000000	53.000000
526.491030	526.621090	60.000000	40.000000
526.621090	526.755656	57.000000	48.000000
526.755656	526.916240	63.000000	39.000000
526.755656	526.916240	66.000000	52.000000
526.755656	526.916240	60.000000	39.000000
526.822940	526.916240	72.000000	66.000000
526.822940	526.916240	84.000000	78.000000
526.916240	527.291535	89.000000	99.000000
526.916240	527.291535	77.000000	82.000000
526.916240	527.041339	57.000000	55.000000
527.041339	527.166437	65.000000	48.000000
527.041339	527.166437	63.000000	48.000000
527.041339	527.166437	60.000000	39.000000
527.166437	527.291535	57.000000	49.000000
527.291535	528.063127	70.000000	63.000000
527.291535	528.063127	82.000000	79.000000
527.291535	527.420134	65.000000	55.000000
527.291535	527.420134	61.000000	55.000000
527.420134	527.548733	58.000000	49.000000
527.548733	527.677331	61.000000	49.000000
527.548733	527.677331	65.000000	49.000000
527.677331	527.805930	58.000000	55.000000
527.805930	527.934528	65.000000	49.000000
527.805930	527.934528	61.000000	49.000000
527.934528	528.063127	58.000000	55.000000
528.063127	528.395037	73.000000	70.000000
528.063127	528.395037	85.000000	84.000000
528.063127	528.193187	67.000000	53.000000
528.063127	528.193187	64.000000	40.000000
528.193187	528.327754	58.000000	48.000000
528.327754	528.488338	64.000000	39.000000
528.327754	528.488338	67.000000	52.000000
528.395037	528.488338	82.000000	78.000000
528.395037	528.488338	70.000000	66.000000
528.488338	528.863633	68.000000	75.000000
528.488338	528.863633	80.000000	90.000000
528.488338	528.613436	48.000000	55.000000
528.613436	528.738534	53.000000	39.000000
528.613436	528.738534	56.000000	48.000000
528.613436	528.738534	60.000000	48.000000
528.738534	528.863633	48.000000	49.000000
528.863633	529.195543	84.000000	84.000000
528.863633	529.195543	72.000000	70.000000
528.863633	528.993693	56.000000	40.000000
528.863633	528.993693	60.000000	53.000000
528.863633	528.993693	53.000000	40.000000
528.993693	529.128260	48.000000	48.000000
529.128260	529.288844	56.000000	39.000000
529.128260	529.288844	53.000000	39.000000
529.128260	529.288844	60.000000	52.000000
529.195543	529.288844	80.000000	78.000000
529.195543	529.288844	68.000000	66.000000
529.288844	529.664568	79.000000	90.000000
529.288844	529.664568	67.000000	75.000000
529.288844	529.413955	46.000000	55.000000
529.413955	529.539054	48.000000	39.000000
529.413955	529.539054	52.000000	48.000000
529.413955	529.539054	55.000000	48.000000
529.539054	529.664568	46.000000	49.000000
529.664568	530.001172	79.000000	77.000000
529.664568	530.001172	91.000000	92.000000
529.664568	529.794990	52.000000	39.000000
529.664568	529.794990	48.000000	39.000000
529.664568	529.794990	55.000000	51.000000
529.794990	529.929557	46.000000	47.000000
529.929557	530.096055	55.000000	50.000000
529.929557	530.096055	48.000000	38.000000
529.929557	530.096055	52.000000	38.000000
530.001172	530.096055	76.000000	72.000000
530.001172	530.096055	88.000000	85.000000
530.085635	530.460929	78.000000	84.000000
530.085635	530.460929	90.000000	103.000000
530.096055	530.221153	45.000000	53.000000
530.221153	530.346252	51.000000	38.000000
530.221153	530.346252	57.000000	47.000000
530.221153	530.346252	54.000000	47.000000
530.335831	530.460929	45.000000	48.000000
530.471645	531.243236	72.000000	69.000000
530.471645	531.243236	84.000000	86.000000
530.471645	530.600243	51.000000	53.000000
530.471645	530.600243	57.000000	53.000000
530.471645	530.600243	54.000000	53.000000
530.600243	530.728842	45.000000	48.000000
530.728842	530.857441	51.000000	48.000000
530.728842	530.857441	57.000000	48.000000
530.728842	530.857441	54.000000	48.000000
530.857441	530.986039	45.000000	53.000000
530.986039	531.114638	51.000000	48.000000
530.986039	531.114638	57.000000	48.000000
530.986039	531.114638	54.000000	48.000000
531.114638	531.243236	45.000000	53.000000
531.243236	531.575147	87.000000	92.000000
531.243236	531.575147	75.000000	77.000000
531.243236	531.373297	54.000000	45.000000
531.243236	531.373297	57.000000	59.000000
531.243236	531.373297	51.000000	45.000000
531.373297	531.507863	45.000000	49.000000
531.507863	531.668447	54.000000	39.000000
531.507863	531.668447	57.000000	55.000000
531.507863	531.668447	51.000000	39.000000
531.575147	531.668447	72.000000	72.000000
531.575147	531.668447	84.000000	85.000000
531.668447	532.043742	89.000000	103.000000
531.668447	532.043742	77.000000	84.000000
531.668447	531.793546	45.000000	57.000000
531.793546	531.918644	57.000000	49.000000
531.793546	531.918644	53.000000	49.000000
531.793546	531.918644	51.000000	39.000000
531.918644	532.043742	45.000000	49.000000
532.043742	532.815334	82.000000	86.000000
532.043742	532.815334	70.000000	69.000000
532.043742	532.172341	49.000000	57.000000
532.043742	532.172341	53.000000	57.000000
532.043742	532.172341	58.000000	57.000000
532.172341	532.300939	46.000000	49.000000
532.300939	532.429538	49.000000	49.000000
532.300939	532.429538	53.000000	49.000000
532.300939	532.429538	58.000000	49.000000
532.429538	532.558137	46.000000	57.000000
532.558137	532.686735	49.000000	49.000000
532.558137	532.686735	53.000000	49.000000
532.558137	532.686735	58.000000	49.000000
532.686735	532.815334	46.000000	57.000000
532.815334	533.147244	73.000000	77.000000
532.815334	533.147244	85.000000	92.000000
532.815334	532.945394	55.000000	56.000000
532.815334	532.945394	58.000000	56.000000
532.815334	532.945394	52.000000	40.000000
532.945394	533.079961	46.000000	49.000000
533.079961	533.240545	52.000000	39.000000
533.079961	533.240545	58.000000	55.000000
533.079961	533.240545	55.000000	55.000000
533.147244	533.240545	70.000000	72.000000
533.147244	533.240545	82.000000	85.000000
533.240545	533.615840	68.000000	82.000000
533.240545	533.615840	80.000000	99.000000
533.240545	533.365643	48.000000	57.000000
533.365643	533.490741	60.000000	49.000000
533.365643	533.490741	56.000000	49.000000
533.365643	533.490741	53.000000	39.000000
533.490741	533.615840	48.000000	49.000000
533.615840	533.947750	84.000000	92.000000
533.615840	533.947750	72.000000	77.000000
533.615840	533.745900	53.000000	40.000000
533.615840	533.745900	60.000000	56.000000
533.615840	533.745900	56.000000	40.000000
533.745900	533.880467	48.000000	49.000000
533.880467	534.041051	53.000000	39.000000
533.880467	534.041051	60.000000	55.000000
533.880467	534.041051	56.000000	39.000000
533.947750	534.041051	80.000000	85.000000
533.947750	534.041051	68.000000	72.000000
534.041051	534.416761	79.000000	99.000000
534.041051	534.416761	67.000000	82.000000
534.041051	534.166149	48.000000	57.000000
534.166149	534.291247	60.000000	49.000000
534.166149	534.291247	52.000000	49.000000
534.166149	534.291247	55.000000	39.000000
534.291247	534.416761	48.000000	49.000000
534.416761	534.681750	84.000000	101.000000
534.416761	534.681750	72.000000	84.000000
534.416761	534.547184	60.000000	49.000000
534.416761	534.547184	55.000000	37.000000
534.416761	534.547184	52.000000	37.000000
534.547184	534.681750	48.000000	44.000000
534.681750	534.841543	84.000000	95.000000
534.681750	534.841543	72.000000	80.000000
534.681750	534.841543	60.000000	48.000000
534.681750	534.841543	55.000000	36.000000
534.681750	534.841543	52.000000	36.000000
534.841543	534.969350	84.000000	105.000000
534.841543	534.969350	72.000000	87.000000
534.841543	535.097158	41.000000	63.000000
534.841543	535.097158	48.000000	63.000000
534.841543	535.097158	53.000000	75.000000
534.841543	535.097158	44.000000	63.000000
534.969350	535.086509	65.000000	59.000000
534.969350	535.086509	60.000000	59.000000
534.969350	535.086509	72.000000	79.000000
534.969350	535.086509	68.000000	66.000000
535.097158	535.214317	68.000000	66.000000
535.097158	535.214317	72.000000	79.000000
535.097158	535.214317	60.000000	59.000000
535.097158	535.214317	65.000000	59.000000
535.224965	535.617037	68.000000	69.000000
535.224965	535.617037	65.000000	62.000000
535.224965	535.617037	72.000000	84.000000
535.224965	535.617037	60.000000	62.000000
535.360189	535.478581	53.000000	79.000000
535.360189	535.478581	56.000000	79.000000
535.489230	535.606389	53.000000	76.000000
535.489230	535.606389	56.000000	76.000000
535.617037	535.884749	52.000000	80.000000
535.617037	535.884749	55.000000	80.000000
535.756646	535.874073	60.000000	59.000000
535.756646	535.874073	72.000000	79.000000
535.756646	535.874073	64.000000	66.000000
535.756646	535.874073	67.000000	66.000000
535.884749	536.001908	72.000000	79.000000
535.884749	536.001908	60.000000	59.000000
535.884749	536.001908	64.000000	66.000000
535.884749	536.001908	67.000000	66.000000
536.012556	536.401879	72.000000	84.000000
536.012556	536.401879	70.000000	69.000000
536.012556	536.401879	67.000000	62.000000
536.012556	536.401879	60.000000	62.000000
536.146264	536.263423	55.000000	79.000000
536.146264	536.263423	58.000000	79.000000
536.274071	536.391230	55.000000	76.000000
536.274071	536.391230	58.000000	76.000000
536.401879	536.661409	53.000000	80.000000
536.401879	536.661409	56.000000	80.000000
536.533602	536.650761	68.000000	66.000000
536.533602	536.650761	60.000000	59.000000
536.533602	536.650761	65.000000	59.000000
536.533602	536.650761	72.000000	79.000000
536.661409	536.778568	68.000000	66.000000
536.661409	536.778568	72.000000	79.000000
536.661409	536.778568	60.000000	59.000000
536.661409	536.778568	65.000000	59.000000
536.789217	537.179666	60.000000	62.000000
536.789217	537.179666	68.000000	69.000000
536.789217	537.179666	65.000000	62.000000
536.789217	537.179666	72.000000	84.000000
536.923461	537.041157	56.000000	79.000000
536.923461	537.041157	53.000000	79.000000
537.051859	537.169018	56.000000	76.000000
537.051859	537.169018	53.000000	76.000000
537.179666	537.447418	55.000000	80.000000
537.179666	537.447418	52.000000	80.000000
537.319611	537.436770	64.000000	66.000000
537.319611	537.436770	60.000000	59.000000
537.319611	537.436770	72.000000	79.000000
537.319611	537.436770	67.000000	66.000000
537.447418	537.564577	64.000000	66.000000
537.447418	537.564577	67.000000	66.000000
537.447418	537.564577	60.000000	59.000000
537.447418	537.564577	72.000000	79.000000
537.575225	537.976886	72.000000	84.000000
537.575225	537.976886	67.000000	62.000000
537.575225	537.976886	70.000000	69.000000
537.575225	537.976886	60.000000	62.000000
537.711106	537.828265	58.000000	79.000000
537.711106	537.828265	55.000000	79.000000
537.838913	537.965393	55.000000	76.000000
537.838913	537.965393	58.000000	76.000000
537.976886	538.095199	56.000000	80.000000
537.976886	538.095199	53.000000	66.000000
538.105954	538.224267	65.000000	65.000000
538.105954	538.224267	60.000000	65.000000
538.105954	538.224267	72.000000	77.000000
538.105954	538.224267	68.000000	65.000000
538.235022	538.358283	56.000000	76.000000
538.235022	538.358283	53.000000	63.000000
538.369495	538.487539	65.000000	73.000000
538.369495	538.487539	61.000000	73.000000
538.369495	538.487539	73.000000	85.000000
538.369495	538.487539	67.000000	73.000000
538.498268	538.616325	53.000000	59.000000
538.498268	538.616325	46.000000	59.000000
538.498268	538.616325	55.000000	73.000000
538.627054	538.750597	61.000000	65.000000
538.627054	538.750597	65.000000	65.000000
538.627054	538.750597	67.000000	65.000000
538.627054	538.750597	73.000000	77.000000
538.761822	538.878833	53.000000	66.000000
538.761822	538.878833	56.000000	80.000000
538.761822	538.878833	48.000000	66.000000
538.889468	539.006480	60.000000	69.000000
538.889468	539.006480	72.000000	83.000000
538.889468	539.006480	68.000000	69.000000
538.889468	539.006480	65.000000	69.000000
539.017115	539.137854	53.000000	63.000000
539.017115	539.137854	56.000000	76.000000
539.017115	539.137854	48.000000	63.000000
539.148825	539.267137	60.000000	70.000000
539.148825	539.267137	64.000000	70.000000
539.148825	539.267137	72.000000	82.000000
539.148825	539.267137	67.000000	70.000000
539.277893	539.396205	48.000000	63.000000
539.277893	539.396205	55.000000	76.000000
539.277893	539.396205	52.000000	63.000000
539.406961	539.545309	64.000000	59.000000
539.406961	539.545309	67.000000	59.000000
539.406961	539.545309	60.000000	59.000000
539.406961	539.545309	72.000000	71.000000
539.557889	539.685696	65.000000	76.000000
539.557889	539.685696	68.000000	76.000000
539.557889	539.685696	60.000000	76.000000
539.557889	539.685696	72.000000	92.000000
539.557889	539.813503	44.000000	61.000000
539.557889	539.685696	48.000000	61.000000
539.557889	539.685696	53.000000	73.000000
539.557889	539.813503	41.000000	61.000000
539.685696	539.813503	53.000000	59.000000
539.685696	539.813503	48.000000	59.000000
539.685696	539.802855	56.000000	66.000000
539.685696	539.802855	60.000000	79.000000
539.813503	539.930662	48.000000	59.000000
539.813503	539.930662	60.000000	79.000000
539.813503	539.930662	56.000000	66.000000
539.813503	539.930662	53.000000	59.000000
539.941311	540.333383	48.000000	62.000000
539.941311	540.333383	53.000000	62.000000
539.941311	540.333383	60.000000	84.000000
539.941311	540.333383	56.000000	69.000000
540.076534	540.194927	44.000000	75.000000
540.076534	540.194927	41.000000	75.000000
540.205575	540.322734	44.000000	72.000000
540.205575	540.322734	41.000000	72.000000
540.333383	540.601094	43.000000	76.000000
540.333383	540.601094	40.000000	76.000000
540.472992	540.590419	48.000000	59.000000
540.472992	540.590419	55.000000	66.000000
540.472992	540.590419	60.000000	79.000000
540.472992	540.590419	52.000000	66.000000
540.601094	540.718253	55.000000	66.000000
540.601094	540.718253	52.000000	66.000000
540.601094	540.718253	48.000000	59.000000
540.601094	540.718253	60.000000	79.000000
540.728902	541.118225	55.000000	62.000000
540.728902	541.118225	58.000000	69.000000
540.728902	541.118225	60.000000	84.000000
540.728902	541.118225	48.000000	62.000000
540.862610	540.979769	46.000000	75.000000
540.862610	540.979769	43.000000	75.000000
540.990417	541.107576	46.000000	72.000000
540.990417	541.107576	43.000000	72.000000
541.118225	541.377755	44.000000	76.000000
541.118225	541.377755	41.000000	76.000000
541.249948	541.367107	48.000000	59.000000
541.249948	541.367107	53.000000	59.000000
541.249948	541.367107	56.000000	66.000000
541.249948	541.367107	60.000000	79.000000
541.377755	541.494914	48.000000	59.000000
541.377755	541.494914	56.000000	66.000000
541.377755	541.494914	60.000000	79.000000
541.377755	541.494914	53.000000	59.000000
541.505563	541.896012	53.000000	62.000000
541.505563	541.896012	48.000000	62.000000
541.505563	541.896012	56.000000	69.000000
541.505563	541.896012	60.000000	84.000000
541.639807	541.757503	44.000000	75.000000
541.639807	541.757503	41.000000	75.000000
541.768205	541.885364	44.000000	72.000000
541.768205	541.885364	41.000000	72.000000
541.896012	542.163764	43.000000	76.000000
541.896012	542.163764	40.000000	76.000000
542.035956	542.153115	52.000000	66.000000
542.035956	542.153115	55.000000	66.000000
542.035956	542.153115	48.000000	59.000000
542.035956	542.153115	60.000000	79.000000
542.163764	542.280923	55.000000	66.000000
542.163764	542.280923	60.000000	79.000000
542.163764	542.280923	52.000000	66.000000
542.163764	542.280923	48.000000	59.000000
542.291571	542.693232	58.000000	69.000000
542.291571	542.693232	48.000000	62.000000
542.291571	542.693232	55.000000	62.000000
542.291571	542.693232	60.000000	84.000000
542.427452	542.544611	46.000000	75.000000
542.427452	542.544611	43.000000	75.000000
542.555259	542.681739	46.000000	72.000000
542.555259	542.681739	43.000000	72.000000
542.693232	542.811544	41.000000	66.000000
542.693232	542.811544	44.000000	79.000000
542.822300	542.940612	53.000000	63.000000
542.822300	542.940612	56.000000	63.000000
542.822300	542.940612	60.000000	81.000000
542.822300	542.940612	48.000000	63.000000
542.951368	543.074629	44.000000	71.000000
542.951368	543.074629	41.000000	59.000000
543.085841	543.203898	49.000000	69.000000
543.085841	543.203898	61.000000	89.000000
543.085841	543.203898	55.000000	69.000000
543.085841	543.203898	53.000000	69.000000
543.214627	543.332685	34.000000	55.000000
543.214627	543.332685	43.000000	66.000000
543.214627	543.332685	41.000000	55.000000
543.343413	543.466956	49.000000	63.000000
543.343413	543.466956	53.000000	63.000000
543.343413	543.466956	55.000000	63.000000
543.343413	543.466956	61.000000	81.000000
543.478181	543.595193	44.000000	75.000000
543.478181	543.595193	36.000000	62.000000
543.478181	543.595193	41.000000	62.000000
543.605827	543.722839	56.000000	66.000000
543.605827	543.722839	60.000000	87.000000
543.605827	543.722839	48.000000	66.000000
543.605827	543.722839	53.000000	66.000000
543.733474	543.854214	44.000000	71.000000
543.733474	543.854214	36.000000	59.000000
543.733474	543.854214	41.000000	59.000000
543.865184	543.983496	55.000000	66.000000
543.865184	543.983496	52.000000	66.000000
543.865184	543.983496	60.000000	87.000000
543.865184	543.983496	48.000000	66.000000
543.994252	544.112564	40.000000	59.000000
543.994252	544.112564	43.000000	71.000000
543.994252	544.112564	36.000000	59.000000
544.123320	544.254922	52.000000	63.000000
544.123320	544.254922	55.000000	63.000000
544.123320	544.254922	48.000000	63.000000
544.123320	544.254922	60.000000	81.000000
544.267033	544.385358	36.000000	62.000000
544.267033	544.385358	41.000000	62.000000
544.267033	544.385358	44.000000	75.000000
544.267033	544.385358	32.000000	62.000000
544.396114	544.514426	68.000000	63.000000
544.396114	544.514426	72.000000	81.000000
544.396114	544.514426	65.000000	63.000000
544.396114	544.514426	60.000000	63.000000
544.525182	544.648443	32.000000	59.000000
544.525182	544.648443	41.000000	59.000000
544.525182	544.648443	36.000000	59.000000
544.525182	544.648443	44.000000	71.000000
544.659655	544.777712	65.000000	69.000000
544.659655	544.777712	61.000000	69.000000
544.659655	544.777712	73.000000	89.000000
544.659655	544.777712	67.000000	69.000000
544.788441	544.906499	46.000000	66.000000
544.788441	544.906499	41.000000	55.000000
544.788441	544.906499	43.000000	60.000000
544.788441	544.906499	34.000000	55.000000
544.917227	545.040770	65.000000	63.000000
544.917227	545.040770	61.000000	63.000000
544.917227	545.040770	67.000000	63.000000
544.917227	545.040770	73.000000	81.000000
545.051995	545.169007	48.000000	75.000000
545.051995	545.169007	44.000000	69.000000
545.051995	545.169007	41.000000	62.000000
545.051995	545.169007	36.000000	62.000000
545.179641	545.296653	72.000000	87.000000
545.179641	545.296653	65.000000	66.000000
545.179641	545.296653	60.000000	66.000000
545.179641	545.296653	68.000000	66.000000
545.307288	545.428028	48.000000	71.000000
545.307288	545.428028	41.000000	59.000000
545.307288	545.428028	44.000000	66.000000
545.307288	545.428028	36.000000	59.000000
545.438998	545.557324	60.000000	66.000000
545.438998	545.557324	64.000000	66.000000
545.438998	545.557324	72.000000	87.000000
545.438998	545.557324	67.000000	66.000000
545.568079	545.686392	46.000000	71.000000
545.568079	545.686392	40.000000	59.000000
545.568079	545.686392	43.000000	66.000000
545.568079	545.686392	34.000000	59.000000
545.697147	545.831955	64.000000	63.000000
545.697147	545.831955	67.000000	63.000000
545.697147	545.831955	60.000000	63.000000
545.697147	545.831955	72.000000	81.000000
545.844213	545.966160	36.000000	65.000000
545.844213	545.966160	41.000000	65.000000
545.844213	545.966160	44.000000	77.000000
545.844213	545.966160	32.000000	65.000000
545.977250	546.099197	80.000000	72.000000
545.977250	546.099197	84.000000	93.000000
545.977250	546.099197	77.000000	72.000000
545.977250	546.099197	72.000000	72.000000
546.110288	546.240013	32.000000	62.000000
546.110288	546.240013	41.000000	62.000000
546.110288	546.240013	36.000000	62.000000
546.110288	546.240013	44.000000	74.000000
546.251802	546.376243	79.000000	79.000000
546.251802	546.376243	73.000000	79.000000
546.251802	546.376243	77.000000	79.000000
546.251802	546.376243	85.000000	101.000000
546.387548	546.511976	46.000000	69.000000
546.387548	546.511976	41.000000	57.000000
546.387548	546.511976	43.000000	63.000000
546.387548	546.511976	34.000000	57.000000
546.523282	546.653610	85.000000	93.000000
546.523282	546.653610	73.000000	72.000000
546.523282	546.653610	77.000000	72.000000
546.523282	546.653610	79.000000	72.000000
546.665452	546.793662	48.000000	77.000000
546.665452	546.793662	41.000000	65.000000
546.665452	546.793662	36.000000	65.000000
546.665452	546.793662	44.000000	72.000000
546.805316	546.933526	84.000000	99.000000
546.805316	546.933526	80.000000	76.000000
546.805316	546.933526	77.000000	76.000000
546.805316	546.933526	72.000000	76.000000
546.945180	547.085124	44.000000	69.000000
546.945180	547.085124	41.000000	62.000000
546.945180	547.085124	36.000000	62.000000
546.945180	547.085124	48.000000	74.000000
547.097851	547.227563	84.000000	99.000000
547.097851	547.227563	72.000000	75.000000
547.097851	547.227563	76.000000	75.000000
547.097851	547.227563	79.000000	75.000000
547.239351	547.369063	36.000000	62.000000
547.239351	547.369063	48.000000	74.000000
547.239351	547.369063	43.000000	69.000000
547.239351	547.369063	40.000000	62.000000
547.380851	547.534488	84.000000	93.000000
547.380851	547.534488	76.000000	72.000000
547.380851	547.534488	72.000000	72.000000
547.380851	547.534488	79.000000	72.000000
547.548449	547.624034	60.000000	64.000000
547.548449	547.850788	29.000000	82.000000
547.548449	547.850788	41.000000	110.000000
547.624034	547.699619	56.000000	55.000000
547.699619	547.775203	60.000000	59.000000
547.775203	547.850788	56.000000	50.000000
547.850788	547.926373	60.000000	55.000000
547.926373	548.001958	56.000000	48.000000
548.001958	548.077556	60.000000	43.000000
548.001958	548.377185	68.000000	62.000000
548.077556	548.153140	56.000000	37.000000
548.153140	548.227894	60.000000	43.000000
548.227894	548.302539	56.000000	37.000000
548.302539	548.377185	60.000000	43.000000
548.377185	548.469520	56.000000	36.000000
548.377185	548.469520	72.000000	54.000000
548.469520	548.536120	60.000000	43.000000
548.469520	548.867909	77.000000	59.000000
548.536120	548.602478	56.000000	36.000000
548.602478	548.668836	60.000000	42.000000
548.668836	548.735193	56.000000	36.000000
548.735193	548.801551	60.000000	42.000000
548.801551	548.867909	56.000000	35.000000
548.867909	548.934267	60.000000	42.000000
548.867909	549.223597	80.000000	60.000000
548.934267	549.000625	56.000000	35.000000
549.000625	549.074305	60.000000	41.000000
549.074305	549.148951	56.000000	35.000000
549.148951	549.223597	60.000000	41.000000
549.223597	549.315932	56.000000	35.000000
549.223597	549.315932	84.000000	52.000000
549.315932	549.385589	60.000000	41.000000
549.315932	549.717379	89.000000	56.000000
549.385589	549.451947	56.000000	35.000000
549.451947	549.518305	60.000000	41.000000
549.518305	549.584663	56.000000	34.000000
549.584663	549.651021	60.000000	40.000000
549.651021	549.717379	56.000000	34.000000
549.717379	549.783737	60.000000	40.000000
549.717379	550.073067	84.000000	58.000000
549.783737	549.850095	56.000000	34.000000
549.850095	549.923775	60.000000	40.000000
549.923775	549.998421	56.000000	33.000000
549.998421	550.073067	60.000000	40.000000
550.073067	550.165402	56.000000	33.000000
550.073067	550.165402	80.000000	50.000000
550.165402	550.235059	60.000000	40.000000
550.165402	550.566848	77.000000	54.000000
550.235059	550.301417	56.000000	33.000000
550.301417	550.367775	60.000000	39.000000
550.367775	550.434133	56.000000	33.000000
550.434133	550.500490	60.000000	39.000000
550.500490	550.566848	56.000000	33.000000
550.566848	550.633206	60.000000	39.000000
550.566848	550.922536	72.000000	56.000000
550.633206	550.699564	56.000000	32.000000
550.699564	550.773244	60.000000	38.000000
550.773244	550.847890	56.000000	32.000000
550.847890	550.922536	60.000000	38.000000
550.922536	551.014871	56.000000	32.000000
550.922536	551.014871	68.000000	48.000000
551.014871	551.082289	60.000000	38.000000
551.014871	551.419376	65.000000	52.000000
551.082289	551.149706	56.000000	32.000000
551.149706	551.217124	60.000000	37.000000
551.217124	551.284541	56.000000	31.000000
551.284541	551.351958	60.000000	37.000000
551.351958	551.419376	56.000000	31.000000
551.419376	551.486780	72.000000	37.000000
551.419376	551.777290	60.000000	47.000000
551.486780	551.554197	68.000000	31.000000
551.554197	551.627998	72.000000	37.000000
551.627998	551.702644	68.000000	31.000000
551.702644	551.777290	72.000000	36.000000
551.777290	551.869625	68.000000	31.000000
551.777290	551.869625	56.000000	41.000000
551.869625	551.938437	72.000000	36.000000
551.869625	552.282498	53.000000	44.000000
551.938437	552.007249	68.000000	30.000000
552.007249	552.076061	72.000000	36.000000
552.076061	552.144873	68.000000	30.000000
552.144873	552.213686	72.000000	35.000000
552.213686	552.282498	68.000000	30.000000
552.282498	552.351296	72.000000	35.000000
552.282498	552.646822	48.000000	45.000000
552.351296	552.420108	68.000000	30.000000
552.420108	552.495680	72.000000	35.000000
552.495680	552.571251	68.000000	30.000000
552.571251	552.646822	72.000000	34.000000
552.646822	552.739265	68.000000	29.000000
552.646822	552.739265	44.000000	39.000000
552.739265	552.811041	72.000000	34.000000
552.739265	553.169921	41.000000	42.000000
552.811041	552.882817	68.000000	29.000000
552.882817	552.954593	72.000000	34.000000
552.954593	553.026369	68.000000	28.000000
553.026369	553.098145	72.000000	33.000000
553.098145	553.169921	68.000000	27.000000
553.169921	553.241683	72.000000	33.000000
553.169921	553.542466	36.000000	38.000000
553.241683	553.313459	68.000000	27.000000
553.313459	553.389795	72.000000	32.000000
553.389795	553.466130	68.000000	27.000000
553.466130	553.542466	72.000000	31.000000
553.542466	553.634989	68.000000	26.000000
553.542466	553.634989	32.000000	27.000000
553.634989	553.708884	72.000000	31.000000
553.634989	554.078358	29.000000	28.000000
553.708884	553.782779	68.000000	26.000000
553.782779	553.856674	72.000000	31.000000
553.856674	553.930569	68.000000	25.000000
553.930569	554.004464	72.000000	30.000000
554.004464	554.078358	68.000000	25.000000
554.078358	554.152253	72.000000	29.000000
554.078358	554.521728	29.000000	27.000000
554.152253	554.226148	68.000000	25.000000
554.226148	554.300043	72.000000	29.000000
554.300043	554.373938	68.000000	24.000000
554.373938	554.447833	72.000000	29.000000
554.447833	554.521728	68.000000	24.000000
554.521728	554.595623	72.000000	28.000000
554.521728	555.419397	29.000000	27.000000
554.595623	554.669665	68.000000	24.000000
554.669665	554.743855	72.000000	28.000000
554.743855	554.818233	68.000000	24.000000
554.818233	554.892772	72.000000	28.000000
554.892772	554.967498	68.000000	24.000000
554.967498	555.042372	72.000000	28.000000
555.042372	555.117434	68.000000	24.000000
555.117434	555.192656	72.000000	28.000000
555.192656	555.268066	68.000000	24.000000
555.268066	555.343638	72.000000	28.000000
555.343638	555.419397	68.000000	24.000000
555.419397	555.495411	72.000000	28.000000
555.419397	556.419727	29.000000	26.000000
555.495411	555.572404	68.000000	24.000000
555.572404	555.650389	72.000000	28.000000
555.650389	555.729407	68.000000	24.000000
555.729407	555.809484	72.000000	28.000000
555.809484	555.890715	68.000000	24.000000
555.890715	555.973059	72.000000	28.000000
555.973059	556.056543	68.000000	24.000000
556.056543	556.141207	72.000000	28.000000
556.141207	556.226997	68.000000	24.000000
556.226997	556.312962	72.000000	28.000000
556.312962	556.419727	68.000000	24.000000
556.419727	558.676781	72.000000	21.000000
556.419727	558.676781	68.000000	18.000000
556.419727	558.676781	29.000000	15.000000
