OnsetTime	OffsetTime	MidiPitch	Velocity
0.522991	1.06399	55	54
0.522991	1.06099	67	60
0.997984	1.06698	57	44
0.997984	1.06698	69	50
1.06099	1.57298	67	60
1.06399	1.57499	55	54
1.236	1.58198	52	50
1.236	1.58198	64	57
1.40399	1.58198	60	53
1.40699	1.58198	48	47
1.57298	2.16098	67	60
1.57499	2.16098	55	54
1.99699	2.15998	76	56
1.99798	2.16098	64	51
2.15998	3.40598	76	60
2.16098	3.40598	64	54
3.33899	3.63299	72	44
3.33998	3.63398	60	40
3.92398	4.47697	67	59
4.40098	4.47697	65	50
4.46597	5.01197	64	60
4.64897	4.99897	60	56
4.81996	5.01197	55	52
4.99897	5.52395	60	60
5.17696	5.52096	64	57
5.34595	5.52395	67	54
5.51995	5.66295	55	56
5.52096	5.66394	64	56
5.52395	5.66695	43	51
5.52395	5.66695	67	56
5.80394	5.93694	62	53
5.80394	5.93593	65	53
5.80493	5.93694	55	53
5.80693	5.93993	45	46
5.93993	6.07593	47	46
6.07694	6.18193	55	56
6.07993	6.18193	60	56
6.07993	6.18193	64	56
6.08093	6.18492	48	51
6.35994	6.47193	59	50
6.36093	6.47193	55	50
6.36293	6.47293	62	50
6.36393	6.47593	43	45
6.66092	6.76593	55	56
6.66393	6.76593	64	56
6.66493	6.76892	48	51
6.66493	6.76892	60	56
7.23093	7.37494	55	41
7.23192	7.37793	63	41
7.23192	7.37894	67	41
7.23392	7.52093	43	36
7.52192	7.66892	55	37
7.52192	7.66493	65	37
7.52493	7.66892	62	37
7.52592	7.66992	45	34
7.67191	7.80592	47	35
7.80592	7.90991	55	41
7.80892	7.91392	48	36
7.80892	7.91091	60	41
7.80892	7.91091	63	41
8.0889	8.19989	62	38
8.0929	8.2009	55	38
8.0929	8.2009	59	38
8.09391	8.20389	43	33
8.37589	8.48488	55	43
8.37589	8.48488	60	43
8.37689	8.48488	63	43
8.37889	8.48788	48	36
8.65887	8.76088	65	38
8.65988	8.76487	58	38
8.65988	8.76687	62	38
8.66288	8.76788	46	33
8.93887	9.20486	58	53
8.93986	9.22288	46	49
8.93986	9.22288	62	53
8.93986	9.22288	65	53
9.20186	9.40488	63	49
9.20486	9.40887	58	49
9.20587	9.41188	51	43
9.20587	9.41188	67	49
9.47487	9.76187	58	58
9.47887	9.76187	67	58
9.48187	9.76187	51	50
9.48187	9.76187	63	58
9.75488	9.96488	62	53
9.75488	9.96587	66	53
9.75587	9.96587	69	53
9.75888	9.96787	50	47
10.0349	10.3149	66	63
10.0349	10.3149	69	63
10.0359	10.3159	62	63
10.0389	10.3159	50	56
10.3179	10.5279	62	58
10.3189	10.5289	67	58
10.3189	10.5289	70	58
10.3219	10.5329	55	54
10.5979	10.9029	70	68
10.5989	10.8919	62	68
10.5989	10.8929	67	68
10.6019	10.8969	55	59
10.8919	11.2389	62	66
10.8929	11.2359	67	66
10.8929	11.2399	71	66
10.8959	11.2399	43	57
10.8969	11.2399	53	57
10.8969	11.2419	55	57
11.2359	12.5829	67	71
11.2389	12.5829	62	71
11.2399	12.2219	43	61
11.2399	12.5829	53	61
11.2399	12.2199	71	71
11.2419	12.2229	55	61
12.2189	12.5829	65	54
12.2199	12.5829	71	54
12.2199	12.5829	77	54
12.2219	12.5829	43	48
12.2219	12.5829	50	48
12.2229	12.5759	55	48
12.5719	14.3438	64	54
12.5728	14.3438	72	54
12.5759	14.3438	55	48
12.5759	14.3438	76	54
12.5769	14.3438	48	48
14.3398	14.8838	67	60
14.3438	14.8858	55	54
14.8128	14.8898	69	50
14.8158	14.8898	57	44
14.8838	15.3938	67	60
14.8858	15.3968	55	54
15.0578	15.4038	64	57
15.0588	15.4038	52	50
15.2268	15.4038	60	53
15.2288	15.4038	48	47
15.3938	15.9818	67	60
15.3968	15.9818	55	54
15.8248	15.9808	76	56
15.8268	15.9818	64	51
15.9808	17.1618	76	60
15.9818	17.1618	64	54
17.1608	17.4558	60	40
17.1608	17.4548	72	44
17.7488	18.2978	67	59
18.2218	18.2978	65	50
18.2888	18.8378	64	60
18.4698	18.8238	60	56
18.6488	18.8378	55	52
18.8238	19.3728	60	60
18.9988	19.3488	64	57
19.1738	19.3488	67	57
19.3478	19.4918	55	56
19.3488	19.4918	64	56
19.3488	19.4928	67	56
19.3518	19.4958	43	51
19.6348	19.7688	55	53
19.6358	19.7718	62	53
19.6388	19.7728	65	53
19.6398	19.7728	45	46
19.7758	19.9048	47	46
19.9058	20.0128	55	56
19.9058	20.0138	60	56
19.9068	20.0168	64	56
19.9078	20.0178	48	51
20.1948	20.3038	55	50
20.1958	20.3048	59	50
20.1958	20.3048	62	50
20.1968	20.3068	43	45
20.4898	20.6008	55	56
20.4898	20.6018	60	56
20.4928	20.6048	48	51
20.4928	20.6018	64	56
21.0638	21.2068	55	41
21.0638	21.2098	63	41
21.0668	21.3538	43	36
21.0668	21.2108	67	41
21.3538	21.4928	55	37
21.3548	21.4938	62	37
21.3578	21.4978	45	34
21.3578	21.4938	65	37
21.4978	21.6298	47	35
21.6338	21.7428	55	41
21.6368	21.7458	60	41
21.6368	21.7458	63	41
21.6378	21.7468	48	36
21.9168	22.0298	55	38
21.9178	22.0298	59	38
21.9208	22.0308	62	38
21.9218	22.0308	43	33
22.2008	22.3058	55	45
22.2038	22.3068	60	45
22.2048	22.3088	48	38
22.2048	22.3068	63	45
22.4838	22.6238	58	41
22.4888	22.6277	62	41
22.4888	22.6287	65	41
22.4908	22.6307	46	36
22.7637	23.0307	58	51
22.7677	23.0377	62	51
22.7677	23.0377	65	51
22.7687	23.0377	46	47
23.0307	23.2397	58	48
23.0317	23.2407	63	48
23.0317	23.2437	67	48
23.0337	23.2437	51	43
23.3107	23.5917	58	57
23.3107	23.5917	63	57
23.3137	23.5917	51	50
23.3137	23.5917	67	57
23.5897	23.7967	62	54
23.5907	23.8007	50	48
23.5907	23.7997	66	54
23.5907	23.8007	69	54
23.8667	24.1507	62	64
23.8697	24.1567	66	64
23.8697	24.1567	69	64
23.8707	24.1567	50	56
24.1507	24.3607	62	57
24.1517	24.3637	67	57
24.1537	24.3637	70	57
24.1547	24.3647	55	52
24.4307	24.7207	62	66
24.4347	24.7247	55	59
24.4347	24.7207	67	66
24.4347	24.7387	70	66
24.7207	25.0647	62	66
24.7207	25.0677	67	66
24.7207	25.0677	71	66
24.7247	25.0677	43	56
24.7247	25.0687	53	56
24.7247	25.0707	55	56
25.0647	26.4637	62	69
25.0677	26.0477	43	63
25.0677	26.4637	67	69
25.0677	26.0467	71	69
25.0687	26.4637	53	63
25.0707	26.0507	55	63
26.0437	26.4637	65	54
26.0467	26.4637	71	54
26.0477	26.4637	43	48
26.0477	26.4637	50	48
26.0477	26.4637	77	54
26.0507	26.4087	55	48
26.4047	28.1697	64	54
26.4057	28.1697	72	54
26.4087	28.1697	48	48
26.4087	28.1697	55	48
26.4087	28.1697	76	54
28.1697	28.7287	76	54
28.6587	28.7317	77	44
28.7287	29.2767	76	54
28.9067	29.2707	72	50
29.0817	29.2767	69	47
29.1977	29.2767	74	44
29.2707	29.8277	72	54
29.4457	29.8247	69	51
29.6317	29.8237	64	47
29.8237	30.3867	64	54
29.8247	30.3937	69	54
29.8277	30.3877	52	52
29.8277	30.3937	72	54
30.1047	30.3847	68	43
30.1077	30.3877	71	51
30.3137	30.3937	53	44
30.3847	31.0247	68	45
30.3867	30.6997	64	45
30.3877	31.0277	52	58
30.3877	31.0257	71	54
30.5907	31.0377	47	57
30.6987	31.0377	66	43
30.6997	31.0247	64	43
30.6997	31.0377	69	51
30.8037	31.0377	40	54
31.0247	31.6117	64	45
31.0247	31.6127	68	45
31.0257	31.6127	71	54
31.0277	31.6157	52	59
31.6167	32.1897	64	45
31.6167	32.1937	67	45
31.6187	32.1947	72	54
31.6197	32.1937	52	52
31.8967	32.1937	71	51
32.1197	32.1947	53	44
32.1897	32.4977	64	45
32.1937	32.8127	52	59
32.1937	32.4977	67	45
32.1937	32.7957	71	54
32.3977	32.8127	55	55
32.4977	32.8127	64	44
32.4977	32.7957	67	44
32.4987	32.8127	72	52
32.5957	32.8127	60	53
32.7957	33.4147	67	45
32.7957	33.4147	71	54
32.7987	33.4147	62	45
32.7987	33.4147	65	53
33.0997	33.4147	77	53
33.4117	34.0237	64	52
33.4117	34.0237	76	54
33.4127	34.0237	60	44
33.9407	34.0237	74	43
34.0167	34.6467	72	53
34.0207	34.3257	62	46
34.0207	34.3257	66	55
34.2237	34.6327	71	51
34.3257	34.6367	62	45
34.3257	34.6467	66	53
34.4297	34.6467	69	52
34.6327	35.2697	71	55
34.6367	35.2707	55	47
34.6367	35.2707	62	47
34.6377	35.2727	67	56
35.2727	35.8397	71	68
35.2737	35.8407	59	61
35.7817	35.8407	72	58
35.7837	35.8407	60	51
35.8397	36.3027	71	68
35.8407	36.3027	59	61
36.0197	36.3027	67	66
36.0227	36.3027	55	59
36.1877	36.3267	64	64
36.1897	36.3267	52	56
36.3757	36.7357	79	82
36.3797	36.7357	67	74
36.6527	36.7687	76	72
36.6557	36.7687	64	64
36.9537	37.5177	71	70
36.9567	37.5197	59	62
37.4547	37.5207	72	60
37.4557	37.5207	60	53
37.5177	37.8947	71	71
37.5197	37.8947	59	64
37.6917	37.8947	55	61
37.6917	37.8947	67	69
37.8597	38.0027	64	66
37.8627	38.0037	52	57
38.0497	38.3926	67	76
38.0497	38.3926	79	85
38.3257	38.4346	64	66
38.3257	38.4336	76	74
38.6156	39.0006	83	90
38.6197	39.0006	75	90
38.6226	39.0006	47	77
38.6226	39.0006	78	90
38.9076	39.0086	71	87
38.9096	39.0086	59	72
39.1156	39.1756	81	70
39.1166	39.1766	63	57
39.1766	39.3436	79	87
39.1796	39.3446	64	73
39.3466	39.5186	78	83
39.3476	39.5196	66	67
39.5226	39.7076	76	78
39.5236	39.7116	67	78
39.7116	40.0676	83	93
39.7146	40.0676	75	93
39.7156	40.0676	47	79
39.7156	40.0676	78	93
39.9916	40.0926	71	86
39.9956	40.0936	59	73
40.1976	40.2576	63	57
40.1976	40.2536	81	74
40.2576	40.4216	79	89
40.2586	40.4246	64	75
40.4256	40.5966	66	68
40.4256	40.5966	78	85
40.5996	40.7966	76	82
40.6006	40.7966	67	66
40.7976	41.2586	83	95
40.7996	41.2586	75	95
40.7996	41.2586	78	95
40.8006	41.2586	47	80
41.0896	41.2586	71	89
41.0906	41.2586	59	75
41.3736	41.8356	95	117
41.3766	41.8356	35	81
41.6916	41.8356	83	93
41.6926	41.8356	47	70
43.6306	44.0616	79	45
43.6356	44.0616	64	36
43.9156	44.0616	76	30
43.9166	44.0616	67	25
44.2026	44.5616	79	43
44.2056	44.5616	64	34
44.4826	44.6216	76	31
44.4856	44.6226	67	25
44.7656	45.2236	79	42
44.7686	45.2236	64	33
45.0466	45.2236	76	31
45.0486	45.2236	67	26
45.3396	45.7696	79	41
45.3426	45.7696	64	33
45.6196	45.7696	76	29
45.6226	45.7696	67	24
45.9026	46.3506	79	38
45.9036	46.3506	64	31
46.1896	46.3506	76	27
46.1926	46.3506	67	23
46.4736	46.9426	64	30
46.4736	46.9426	79	37
46.7536	46.9426	76	26
46.7546	46.9426	67	21
47.0336	47.5835	79	36
47.0366	47.5826	76	36
47.0376	47.5855	55	48
47.3106	47.5936	67	27
47.5125	47.5936	57	40
47.5826	48.1225	76	36
47.5835	48.1225	79	36
47.5855	48.1255	55	48
47.7615	48.1315	52	45
47.8495	48.1315	67	27
47.9436	48.1315	48	39
48.1225	48.7065	76	36
48.1225	48.7096	79	36
48.1255	48.7105	55	48
48.4035	48.7105	67	27
48.5455	48.7096	64	45
48.7065	49.2875	76	38
48.7096	50.2286	64	48
48.7096	49.2905	79	38
49.0045	49.5755	67	29
49.2875	49.8576	76	38
49.2905	49.8585	79	38
49.5755	50.1445	67	27
49.8576	50.2286	76	34
49.8585	50.2286	79	34
49.8615	50.2286	60	36
50.1445	50.2886	67	26
50.4315	50.9716	67	51
50.9015	50.9815	69	48
50.9716	51.5076	67	57
51.1525	51.5235	64	53
51.3245	51.5235	60	46
51.5076	52.0975	67	57
51.9295	52.0865	76	52
52.0865	53.1655	76	57
52.0875	52.6265	55	48
52.5635	52.6375	57	40
52.6265	53.1625	55	48
52.8055	53.1655	52	45
52.9875	53.1655	48	41
53.1615	53.7325	72	35
53.1625	53.7325	55	48
53.5825	53.7295	64	45
53.7295	54.8205	64	48
53.7295	54.2855	79	72
54.2045	54.2855	77	56
54.2755	54.8205	76	68
54.4565	54.8175	72	63
54.6355	54.8205	67	59
54.8175	55.3595	72	69
54.8185	55.3595	60	38
54.9965	55.3565	76	65
55.1745	55.3575	79	61
55.3565	55.4995	67	70
55.3565	55.4995	76	70
55.3575	55.5005	79	70
55.3595	55.5035	43	61
55.6395	55.7795	67	66
55.6405	55.7795	74	66
55.6405	55.7805	77	66
55.6425	55.7805	45	55
55.7835	55.9135	47	55
55.9135	56.0215	67	70
55.9145	56.0225	72	70
55.9165	56.0255	48	61
55.9165	56.0245	76	70
56.2035	56.3045	67	63
56.2035	56.3085	71	63
56.2045	56.3085	43	53
56.2045	56.3085	74	63
56.4865	56.5945	67	70
56.4865	56.5995	72	70
56.4875	56.5995	76	70
56.4905	56.5995	48	61
57.0605	57.3515	67	45
57.0615	57.2085	51	38
57.0615	57.2085	55	38
57.3515	57.4915	69	41
57.3525	57.4915	50	35
57.3545	57.4925	53	35
57.3545	57.4955	55	35
57.4955	57.6275	71	41
57.6285	57.7395	72	45
57.6325	57.7405	48	38
57.6325	57.7435	51	38
57.6345	57.7445	55	38
57.9215	58.0235	67	39
57.9225	58.0265	47	35
57.9225	58.0265	50	35
57.9235	58.0275	55	35
58.2045	58.3065	72	48
58.2055	58.3115	48	42
58.2055	58.3115	51	42
58.2085	58.3135	55	42
58.4895	58.6295	50	51
58.4895	58.6285	70	67
58.4895	58.6295	82	67
58.4925	58.6325	53	51
58.4925	58.6335	58	51
58.7615	58.8945	70	68
58.7615	58.8955	82	68
58.7655	58.8955	53	55
58.7655	58.8975	56	55
58.7665	58.8985	58	55
59.0345	59.1685	75	73
59.0345	59.1675	87	73
59.0355	59.1715	51	50
59.0385	59.1715	55	50
59.0385	59.1715	58	50
59.3075	59.4485	87	78
59.3085	59.4485	75	78
59.3115	59.4495	51	55
59.3115	59.4515	55	55
59.3125	59.4515	58	55
59.5805	59.7175	86	74
59.5815	59.7205	54	51
59.5815	59.7205	74	74
59.5825	59.7245	57	51
59.5845	59.7245	62	51
59.8565	60.0044	74	81
59.8605	60.0055	86	81
59.8615	60.0055	57	64
59.8615	60.0075	60	64
59.8635	60.0075	62	64
60.1404	60.2874	91	79
60.1444	60.2884	79	79
60.1474	60.2914	55	60
60.1484	60.2924	58	60
60.1484	60.2924	62	60
60.4284	60.5714	79	83
60.4284	60.5744	91	83
60.4304	60.5754	55	65
60.4314	60.5754	58	65
60.4314	60.5784	62	65
60.7114	60.8684	89	70
60.7154	60.8694	43	49
60.7154	60.8724	50	49
60.7154	60.8694	77	70
60.7184	60.8734	59	49
61.0224	62.3704	89	66
61.0264	62.3704	77	66
61.0294	62.3704	43	47
61.0294	62.3704	50	47
61.0294	62.3704	59	47
62.0064	62.3704	71	50
62.0104	62.3704	65	37
62.0104	62.3684	67	37
62.0104	62.3704	83	50
62.0114	62.3704	55	37
62.3674	64.1214	72	45
62.3674	64.1214	84	45
62.3684	64.1214	67	35
62.3704	64.1214	60	35
62.3704	64.1214	64	35
64.1214	64.6774	76	54
64.6074	64.6834	77	44
64.6774	65.2334	76	54
64.8584	65.2224	72	50
65.0374	65.2334	69	47
65.1564	65.2334	74	44
65.2224	65.7834	72	54
65.4044	65.7824	69	51
65.5834	65.7804	64	47
65.7804	66.3434	64	45
65.7824	66.3464	69	45
65.7834	66.3464	72	54
65.7864	66.3454	52	52
66.0604	66.3424	68	43
66.0624	66.3434	71	51
66.2694	66.3464	53	44
66.3424	66.9764	68	45
66.3434	66.6544	64	45
66.3434	66.9764	71	54
66.3454	66.9764	52	58
66.5464	66.9824	47	57
66.6544	66.9734	64	43
66.6544	66.9824	66	43
66.6544	66.9824	69	51
66.7564	66.9824	40	54
66.9734	67.5724	64	45
66.9764	67.5754	52	59
66.9764	67.5764	68	45
66.9764	67.5764	71	54
67.5724	68.1454	64	45
67.5734	68.1484	67	45
67.5754	68.1494	52	52
67.5754	68.1524	72	54
67.8584	68.1494	71	51
68.0694	68.1524	53	44
68.1454	68.4534	64	45
68.1484	68.4544	67	45
68.1494	68.7573	52	59
68.1494	68.7474	71	54
68.3484	68.7573	55	55
68.4534	68.7573	64	44
68.4544	68.7434	67	44
68.4564	68.7573	72	52
68.5484	68.7573	60	53
68.7434	69.3643	67	45
68.7474	69.3643	65	53
68.7474	69.3643	71	54
68.7483	69.3643	62	45
69.0493	69.3643	77	53
69.3603	69.9823	64	52
69.3603	69.9823	76	54
69.3634	69.9823	60	44
69.8923	69.9823	74	43
69.9693	70.2763	66	55
69.9693	70.5913	72	53
69.9703	70.2773	62	46
70.1683	70.5843	71	51
70.2763	70.5913	66	53
70.2773	70.5853	62	45
70.3793	70.5913	69	52
70.5843	71.2173	71	55
70.5853	71.2223	55	47
70.5853	71.2223	62	47
70.5863	71.2223	67	56
71.2243	71.7223	71	68
71.2253	71.7263	59	61
71.7273	71.7893	72	58
71.7293	71.7893	60	51
71.7903	72.1873	71	68
71.7923	72.1873	59	61
71.9703	72.1873	67	66
71.9713	72.1873	55	59
72.1393	72.2833	52	56
72.1393	72.2823	64	64
72.3343	72.7163	67	76
72.3343	72.7163	79	82
72.6143	72.7343	76	72
72.6153	72.7343	64	64
72.9363	73.5083	71	70
72.9403	73.5103	59	62
73.4443	73.5113	60	53
73.4443	73.5113	72	56
73.5083	73.8853	71	71
73.5103	73.8853	59	64
73.6833	73.8853	67	69
73.6863	73.8853	55	61
73.8513	74.0013	64	66
73.8533	74.0013	52	57
74.0533	74.4693	67	76
74.0533	74.4693	79	85
74.3233	74.4693	64	66
74.3233	74.4693	76	74
74.6273	75.0163	75	90
74.6273	75.0163	83	90
74.6303	75.0163	47	77
74.6303	75.0163	78	90
74.9213	75.0233	71	87
74.9223	75.0233	59	72
75.1313	75.1943	81	71
75.1323	75.1983	63	58
75.1983	75.3663	64	73
75.1983	75.3623	79	87
75.3663	75.5263	78	83
75.3683	75.5273	66	67
75.5273	75.7363	76	78
75.5303	75.7373	67	78
75.7373	76.1003	83	93
75.7383	76.1003	75	93
75.7403	76.1003	47	79
75.7403	76.1003	78	93
76.0243	76.1263	59	73
76.0243	76.1253	71	86
76.2303	76.2933	81	74
76.2313	76.2933	63	58
76.2973	76.4623	64	75
76.2973	76.4613	79	89
76.4643	76.6293	78	85
76.4653	76.6293	66	68
76.6333	76.8223	67	66
76.6333	76.8213	76	82
76.8223	77.2803	83	95
76.8253	77.2803	75	95
76.8263	77.2803	47	80
76.8263	77.2803	78	95
77.1093	77.2803	59	75
77.1093	77.2803	71	89
77.3883	77.8473	95	114
77.3893	77.8473	35	81
77.7043	77.8473	83	93
77.7073	77.8473	47	70
79.6463	80.0762	79	45
79.6502	80.0762	64	36
79.9303	80.0762	67	25
79.9303	80.0762	76	30
80.2172	80.5772	64	34
80.2172	80.5772	79	43
80.4912	80.6333	76	31
80.4932	80.6343	67	25
80.7803	81.2393	79	42
80.7813	81.2393	64	33
81.0603	81.2393	76	31
81.0633	81.2393	67	26
81.3502	81.7852	79	41
81.3512	81.7852	64	33
81.6352	81.7852	76	29
81.6362	81.7852	67	24
81.9182	82.3622	64	31
81.9182	82.3622	79	38
82.1992	82.3622	76	27
82.2012	82.3622	67	23
82.4812	82.9572	64	30
82.4812	82.9572	79	37
82.7682	82.9572	76	26
82.7692	82.9572	67	21
83.0482	83.5912	79	36
83.0512	83.5942	55	48
83.0512	83.5912	76	36
83.3172	83.6012	67	27
83.5242	83.6012	57	40
83.5912	84.1192	76	36
83.5912	84.1192	79	36
83.5942	84.1232	55	48
83.7692	84.1302	52	45
83.8602	84.1302	67	27
83.9452	84.1302	48	39
84.1192	84.7042	76	36
84.1192	84.7052	79	36
84.1232	84.7072	55	48
84.4002	84.7072	67	27
84.5432	84.7072	64	45
84.7042	85.2842	76	38
84.7052	85.2852	79	38
84.7072	86.2262	64	48
85.0052	85.5722	67	29
85.2842	85.8562	76	38
85.2852	85.8562	79	38
85.5722	86.1462	67	27
85.8562	86.2262	76	34
85.8562	86.2262	79	34
85.8582	86.2262	60	36
86.1462	86.2822	67	26
86.4292	86.9682	67	51
86.9052	86.9792	69	48
86.9682	87.5032	67	57
87.1512	87.5142	64	53
87.3292	87.5142	60	46
87.5032	88.0922	67	57
87.9272	88.0922	76	52
88.0922	88.6242	55	48
88.0922	89.1662	76	57
88.5612	88.6382	57	40
88.6242	89.1602	55	48
88.8092	89.1662	52	45
88.9842	89.1662	48	41
89.1592	89.7362	72	35
89.1602	89.7362	55	48
89.5792	89.7342	64	45
89.7342	90.8212	64	48
89.7342	90.2832	79	72
90.2032	90.2832	77	56
90.2722	90.8212	76	68
90.4512	90.8122	72	63
90.6332	90.8212	67	59
90.8122	91.3612	72	69
90.8142	91.3612	60	38
91.0012	91.3582	76	65
91.1792	91.3612	79	61
91.3582	91.4942	67	70
91.3582	91.4972	76	70
91.3612	91.4982	43	61
91.3612	91.4982	79	70
91.6402	91.7772	67	66
91.6412	91.7812	74	66
91.6442	91.7852	45	55
91.6442	91.7842	77	66
91.7852	91.9142	47	55
91.9142	92.0252	67	70
91.9172	92.0272	48	61
91.9172	92.0262	72	70
91.9172	92.0262	76	70
92.2042	92.3172	67	63
92.2042	92.3172	71	63
92.2082	92.3182	43	53
92.2082	92.3172	74	63
92.4982	92.6032	67	70
92.4992	92.6072	72	70
92.5022	92.6072	76	70
92.5052	92.6082	48	61
93.0682	93.3692	67	45
93.0692	93.2192	51	38
93.0692	93.2232	55	38
93.3732	93.5102	69	41
93.3742	93.5102	50	35
93.3742	93.5132	53	35
93.3752	93.5132	55	35
93.5132	93.6462	71	41
93.6472	93.7552	48	38
93.6472	93.7512	72	45
93.6482	93.7582	51	38
93.6492	93.7582	55	38
93.9342	94.0452	67	39
93.9372	94.0462	47	35
93.9372	94.0462	50	35
93.9382	94.0482	55	35
94.2202	94.3252	48	42
94.2202	94.3212	72	48
94.2212	94.3262	51	42
94.2212	94.3262	55	42
94.5042	94.6432	70	64
94.5042	94.6442	82	64
94.5052	94.6442	50	49
94.5072	94.6452	53	49
94.5072	94.6472	58	49
94.7802	94.9142	70	66
94.7802	94.9172	82	66
94.7842	94.9172	53	52
94.7842	94.9202	56	52
94.7852	94.9212	58	52
95.0502	95.1862	87	71
95.0512	95.1902	51	52
95.0512	95.1932	55	52
95.0512	95.1862	75	71
95.0532	95.1932	58	52
95.3262	95.4592	87	74
95.3272	95.4632	75	74
95.3292	95.4642	51	56
95.3302	95.4642	55	56
95.3302	95.4662	58	56
95.5992	95.7392	86	70
95.6032	95.7401	54	54
95.6032	95.7431	57	54
95.6032	95.7401	74	70
95.6062	95.7431	62	54
95.8791	96.0151	74	79
95.8801	96.0191	57	59
95.8801	96.0191	86	79
95.8821	96.0231	60	59
95.8831	96.0231	62	59
96.1631	96.3031	79	81
96.1631	96.3021	91	81
96.1641	96.3031	55	56
96.1661	96.3061	58	56
96.1661	96.3071	62	56
96.4461	96.5931	79	85
96.4461	96.5941	91	85
96.4501	96.5941	55	64
96.4501	96.5961	58	64
96.4511	96.5971	62	64
96.7301	96.8871	89	70
96.7331	96.8911	43	49
96.7331	96.8911	77	70
96.7371	96.8941	50	49
96.7371	96.8951	59	49
97.0451	98.3921	77	66
97.0451	98.3921	89	66
97.0481	98.3921	43	47
97.0481	98.3921	50	47
97.0521	98.3921	59	47
98.0261	98.3921	71	50
98.0281	98.3921	83	50
98.0291	98.3921	65	37
98.0291	98.3891	67	37
98.0321	98.3921	55	37
98.3861	100.139	72	45
98.3861	100.139	84	45
98.3891	100.139	64	35
98.3891	100.131	67	35
98.3901	100.139	60	35
100.131	100.675	67	50
100.135	100.678	47	45
100.136	101.783	43	31
100.317	100.858	50	36
100.317	100.857	62	40
100.495	101.039	59	34
100.499	101.039	55	31
100.675	101.23	67	47
100.678	101.23	47	42
100.857	101.23	62	37
100.858	101.23	50	33
101.039	101.23	55	27
101.039	101.23	59	32
101.218	101.399	45	41
101.218	101.398	66	47
101.399	101.784	62	38
101.403	101.784	50	33
101.588	101.784	54	27
101.588	101.784	57	33
101.781	102.319	48	45
101.781	102.319	69	50
101.783	103.972	43	31
101.959	102.499	62	41
101.96	102.501	50	36
102.138	102.68	60	33
102.14	102.68	57	29
102.319	102.862	48	43
102.319	102.862	69	48
102.499	102.862	62	38
102.501	102.862	50	33
102.68	102.862	57	28
102.68	102.862	60	30
102.859	103.401	47	43
102.859	103.398	67	48
103.037	103.579	62	38
103.041	103.579	50	33
103.219	103.772	59	31
103.22	103.772	55	28
103.398	103.972	67	47
103.401	103.972	47	42
103.579	103.965	50	33
103.579	103.961	62	38
103.772	103.972	55	28
103.772	103.972	59	31
103.961	104.262	62	47
103.965	104.265	50	42
103.965	104.594	66	47
103.965	104.587	69	56
103.966	104.594	54	42
103.968	104.592	57	50
104.262	104.587	62	51
104.265	104.591	50	45
104.265	104.594	67	51
104.265	104.594	71	61
104.266	104.594	55	45
104.269	104.594	59	53
104.587	105.045	62	55
104.587	105.208	69	55
104.591	105.049	50	48
104.591	105.208	72	64
104.592	105.208	57	48
104.592	105.208	60	57
105.045	105.203	62	49
105.046	105.203	67	49
105.046	105.204	71	59
105.049	105.204	50	42
105.05	105.207	55	42
105.05	105.207	59	51
105.203	105.83	62	45
105.203	105.837	67	45
105.204	105.833	50	38
105.204	105.837	71	53
105.207	105.837	55	38
105.207	105.837	59	45
105.83	106.16	62	31
105.831	106.481	66	31
105.831	106.481	69	37
105.833	106.163	50	27
105.833	106.482	54	27
105.834	106.484	57	32
106.16	106.478	62	29
106.162	106.485	64	29
106.162	106.485	67	35
106.163	106.482	50	26
106.163	106.485	52	26
106.166	106.485	55	31
106.478	107.122	62	31
106.481	107.122	66	31
106.481	107.122	69	37
106.482	107.122	50	28
106.482	107.122	54	28
106.484	107.122	57	33
107.119	107.653	67	50
107.119	108.759	74	53
107.121	108.763	43	31
107.121	107.657	47	45
107.293	107.835	62	40
107.297	107.835	50	36
107.475	108.011	71	34
107.476	108.014	55	31
107.653	108.203	67	47
107.657	108.203	47	42
107.835	108.203	50	33
107.835	108.203	62	37
108.011	108.203	71	32
108.014	108.203	55	27
108.196	108.763	45	41
108.196	108.763	66	47
108.379	108.763	62	38
108.381	108.763	50	33
108.565	108.76	69	33
108.567	108.763	54	27
108.759	110.411	74	53
108.76	109.298	48	45
108.76	109.295	69	50
108.763	110.411	43	31
108.935	109.477	62	41
108.938	109.478	50	36
109.117	109.656	72	33
109.12	109.657	57	29
109.295	109.845	69	48
109.298	109.845	48	43
109.477	109.845	62	38
109.478	109.845	50	33
109.656	109.845	72	30
109.657	109.845	57	28
109.838	110.409	47	43
109.838	110.411	67	48
110.023	110.408	62	38
110.024	110.409	50	33
110.208	110.411	71	31
110.209	110.411	55	28
110.408	111.024	62	70
110.409	111.024	47	39
110.409	111.024	50	46
110.411	111.013	43	39
110.695	111.024	74	68
111.01	111.65	64	56
111.013	111.311	43	46
111.013	111.65	76	66
111.014	111.65	48	46
111.014	111.65	52	55
111.308	111.65	66	61
111.308	111.65	78	72
111.311	111.647	43	49
111.311	111.65	45	49
111.312	111.65	54	58
111.644	112.11	67	69
111.647	112.266	43	57
111.647	112.266	79	82
111.648	112.266	47	57
111.648	112.114	55	68
112.109	112.264	62	46
112.11	112.266	67	46
112.113	112.263	50	41
112.113	112.26	71	55
112.114	112.266	55	41
112.116	112.264	59	49
112.26	112.908	71	51
112.263	112.904	50	45
112.263	112.908	74	61
112.264	112.908	59	45
112.264	112.901	62	51
112.901	113.394	62	42
112.903	113.554	66	42
112.903	113.554	72	50
112.904	113.554	50	39
112.907	113.554	57	39
112.907	113.554	60	46
113.394	113.548	62	37
113.394	113.551	67	37
113.395	113.551	71	44
113.397	113.552	55	31
113.397	113.552	59	37
113.548	114.191	62	34
113.551	114.188	67	34
113.551	114.191	71	41
113.552	114.191	55	28
113.552	114.191	59	34
114.188	114.723	67	50
114.189	115.83	43	31
114.189	114.727	47	45
114.364	114.905	62	40
114.367	114.906	50	36
114.545	115.084	59	34
114.546	115.085	55	31
114.723	115.28	67	47
114.727	115.28	47	42
114.905	115.28	62	37
114.906	115.28	50	33
115.084	115.28	59	32
115.085	115.28	55	27
115.263	115.83	66	47
115.266	115.83	45	41
115.451	115.83	62	38
115.452	115.83	50	33
115.637	115.83	57	33
115.638	115.83	54	27
115.829	116.365	69	50
115.83	118.021	43	31
115.83	116.368	48	45
116.005	116.547	62	41
116.008	116.547	50	36
116.186	116.726	60	33
116.19	116.728	57	29
116.365	116.918	69	48
116.368	116.918	48	43
116.547	116.918	50	33
116.547	116.918	62	38
116.726	116.918	60	30
116.728	116.918	57	28
116.907	117.45	47	43
116.907	117.447	67	48
117.093	117.633	62	38
117.094	117.635	50	33
117.273	117.818	59	31
117.275	117.821	55	28
117.447	118.021	67	47
117.45	118.021	47	42
117.633	118.016	62	38
117.635	118.018	50	33
117.818	118.021	59	31
117.821	118.021	55	28
118.016	118.315	62	49
118.017	118.64	66	49
118.017	118.636	69	59
118.018	118.319	50	42
118.02	118.64	54	42
118.021	118.638	57	50
118.315	118.634	62	51
118.318	118.64	67	51
118.318	118.64	71	61
118.319	118.637	50	45
118.321	118.64	55	45
118.322	118.64	59	53
118.634	119.095	62	53
118.636	119.256	69	53
118.637	119.096	50	48
118.637	119.256	72	63
118.638	119.256	57	57
118.64	119.256	60	57
119.095	119.25	62	49
119.096	119.254	50	42
119.096	119.253	67	49
119.096	119.253	71	59
119.098	119.254	55	42
119.099	119.256	59	51
119.25	119.879	62	45
119.253	119.883	67	45
119.253	119.883	71	53
119.254	119.88	50	38
119.254	119.883	55	38
119.256	119.883	59	45
119.879	120.208	62	31
119.879	120.53	66	31
119.88	120.212	50	27
119.88	120.53	69	37
119.883	120.534	54	27
119.883	120.534	57	32
120.208	120.528	62	29
120.212	120.531	50	26
120.212	120.537	64	29
120.212	120.537	67	29
120.213	120.537	52	26
120.215	120.537	55	31
120.528	121.171	62	31
120.53	121.171	66	31
120.53	121.171	69	37
120.531	121.171	50	28
120.534	121.171	54	28
120.534	121.171	57	33
121.167	121.702	67	50
121.167	122.806	74	53
121.168	121.702	47	45
121.171	122.81	43	31
121.343	121.882	50	36
121.343	121.881	62	40
121.522	122.063	71	34
121.524	122.064	55	31
121.702	122.255	47	42
121.702	122.255	67	47
121.881	122.255	62	37
121.882	122.255	50	33
122.063	122.255	71	32
122.064	122.255	55	27
122.242	122.812	66	47
122.243	122.812	45	41
122.428	122.812	50	33
122.428	122.812	62	38
122.613	122.812	54	27
122.613	122.809	69	33
122.806	124.461	74	53
122.809	123.347	48	45
122.809	123.345	69	50
122.81	124.458	43	31
122.984	123.523	62	41
122.987	123.526	50	36
123.163	123.704	72	33
123.166	123.705	57	29
123.345	123.9	69	48
123.347	123.9	48	43
123.523	123.9	62	38
123.526	123.9	50	33
123.704	123.9	72	30
123.705	123.9	57	28
123.884	124.461	67	48
123.886	124.457	47	43
124.07	124.457	62	38
124.072	124.457	50	33
124.255	124.461	71	31
124.258	124.461	55	28
124.457	125.073	47	39
124.457	125.073	50	46
124.457	125.073	62	70
124.458	125.063	43	39
124.744	125.073	74	68
125.059	125.697	64	56
125.06	125.697	76	66
125.063	125.365	43	46
125.063	125.697	48	46
125.063	125.697	52	55
125.364	125.697	66	61
125.364	125.697	78	72
125.365	125.694	43	49
125.365	125.697	45	49
125.367	125.697	54	58
125.693	126.159	67	68
125.694	126.32	43	57
125.694	126.32	79	81
125.696	126.32	47	57
125.696	126.162	55	68
126.159	126.319	62	46
126.159	126.32	67	46
126.161	126.316	71	55
126.162	126.319	50	41
126.162	126.32	55	41
126.162	126.32	59	49
126.316	126.96	71	51
126.316	126.96	74	61
126.319	126.953	50	45
126.319	126.949	62	51
126.32	126.96	59	45
126.949	127.442	62	42
126.95	127.602	66	42
126.95	127.602	72	50
126.953	127.602	50	39
126.953	127.602	57	39
126.954	127.602	60	46
127.442	127.596	62	37
127.443	127.6	67	37
127.443	127.6	71	44
127.446	127.601	55	31
127.447	127.601	59	37
127.596	128.233	62	34
127.6	128.233	67	34
127.6	128.233	71	41
127.601	128.233	55	28
127.601	128.233	59	34
128.23	128.814	57	37
128.23	128.828	66	37
128.231	128.828	69	44
128.233	128.622	38	30
128.43	128.828	45	26
128.622	128.828	38	27
128.814	129.256	57	32
128.815	129.409	64	32
128.818	129.409	67	38
128.819	129.2	33	30
129.011	129.404	38	26
129.2	129.409	33	26
129.256	129.402	57	30
129.256	129.403	62	30
129.259	129.403	66	36
129.402	129.985	57	32
129.403	129.985	62	32
129.403	129.983	66	38
129.404	129.781	38	30
129.588	129.985	45	26
129.781	129.985	38	26
129.983	130.561	66	37
129.984	130.362	33	32
129.984	130.562	74	44
130.17	130.565	38	27
130.362	130.568	33	27
130.415	130.568	67	35
130.417	130.568	76	41
130.561	131.145	66	40
130.562	131.145	74	48
130.565	130.95	38	33
130.751	131.145	45	29
130.95	131.145	38	29
131.142	131.724	69	37
131.142	131.724	76	44
131.143	131.527	33	34
131.332	131.724	37	29
131.527	131.724	33	29
131.72	132.294	57	47
131.723	132.307	67	47
131.724	132.102	37	30
131.724	132.307	71	56
131.912	132.307	45	27
132.102	132.307	37	27
132.294	132.721	57	40
132.294	132.875	66	40
132.294	132.875	69	48
132.297	132.672	33	30
132.479	132.864	37	27
132.672	132.875	33	27
132.721	132.861	57	32
132.721	132.862	64	32
132.724	132.864	67	38
132.861	133.463	57	35
132.862	133.463	64	35
132.864	133.246	37	33
132.864	133.463	67	42
133.049	133.463	45	29
133.246	133.463	37	29
133.46	134.037	69	42
133.46	134.04	76	50
133.463	133.844	33	34
133.652	134.041	37	30
133.844	134.047	33	30
133.892	134.047	74	39
133.893	134.047	78	47
134.037	134.617	69	44
134.04	134.617	76	52
134.041	134.419	37	35
134.226	134.617	45	30
134.419	134.617	37	30
134.614	135.203	74	41
134.615	135.0	33	35
134.615	135.206	78	49
134.803	135.206	38	30
135.0	135.206	33	30
135.202	135.79	66	56
135.203	135.79	74	67
135.206	135.594	38	34
135.395	135.79	45	29
135.594	135.79	38	31
135.787	136.392	69	38
135.787	136.403	73	45
135.788	136.186	33	34
135.98	136.392	38	29
136.081	136.403	67	38
136.084	136.403	71	45
136.186	136.403	33	29
136.389	136.988	57	48
136.392	136.788	38	39
136.392	136.991	66	48
136.392	136.991	69	57
136.592	136.991	45	34
136.788	136.991	38	34
136.988	137.289	57	38
136.99	137.606	64	38
136.99	137.6	67	45
136.991	137.386	33	36
137.184	137.606	38	31
137.289	137.599	57	38
137.291	137.606	62	38
137.292	137.606	66	45
137.386	137.606	33	31
137.599	138.202	57	49
137.6	138.206	67	49
137.6	138.206	71	58
137.603	137.996	37	37
137.796	138.206	45	33
137.996	138.206	37	33
138.202	138.508	57	42
138.202	138.818	66	42
138.205	138.821	69	50
138.206	138.612	33	35
138.407	138.821	37	31
138.508	138.821	57	41
138.51	138.821	64	41
138.51	138.821	67	49
138.612	138.821	33	30
138.817	139.438	62	44
138.818	139.228	38	36
138.818	139.451	66	52
139.024	139.451	45	29
139.129	139.451	57	40
139.13	139.451	64	48
139.228	139.451	38	31
139.438	140.627	54	45
139.438	140.627	62	53
139.44	139.825	33	37
139.633	140.015	38	30
139.825	140.627	33	30
140.015	140.411	38	36
140.214	140.627	45	32
140.411	140.627	38	32
140.62	141.205	57	42
140.624	141.208	66	42
140.624	141.208	69	50
140.627	141.002	33	42
140.81	141.208	38	39
141.002	141.208	33	39
141.205	141.639	57	39
141.205	141.792	64	39
141.206	141.792	35	43
141.206	141.792	67	47
141.391	141.792	38	39
141.583	141.786	36	40
141.639	141.783	57	39
141.639	141.785	62	39
141.64	141.786	66	46
141.783	142.364	57	40
141.785	142.368	62	40
141.786	142.168	36	46
141.786	142.366	66	48
141.971	142.368	38	42
142.168	142.368	36	42
142.364	142.944	57	48
142.366	142.965	66	48
142.367	142.749	33	48
142.367	142.965	69	57
142.552	142.965	38	43
142.749	142.965	33	43
142.944	143.379	57	45
142.944	143.536	64	45
142.948	143.536	35	49
142.948	143.536	67	54
143.133	143.536	38	44
143.33	143.529	36	44
143.379	143.525	57	45
143.381	143.526	62	45
143.382	143.529	66	45
143.525	144.139	57	47
143.526	144.135	62	47
143.529	143.921	36	54
143.529	144.138	66	56
143.718	144.139	38	44
143.921	144.139	36	46
144.134	144.725	72	70
144.135	144.716	62	59
144.138	144.725	66	59
144.139	144.516	33	57
144.324	144.725	38	51
144.516	144.725	33	51
144.716	145.153	62	54
144.716	145.299	67	54
144.716	145.299	71	64
144.718	145.299	35	64
144.901	145.299	38	54
145.101	145.298	36	54
145.149	145.296	69	59
145.153	145.297	62	50
145.153	145.297	66	50
145.296	145.916	69	61
145.297	145.913	62	51
145.297	145.916	66	51
145.298	145.692	36	71
145.485	145.916	38	55
145.692	145.916	36	55
145.913	146.521	62	62
145.913	146.528	72	62
145.913	146.528	76	74
145.916	146.315	38	72
146.112	146.528	50	62
146.315	146.528	38	62
146.521	146.994	62	59
146.522	147.158	40	69
146.522	147.158	71	59
146.522	147.158	74	70
146.728	147.158	50	57
146.935	147.156	42	60
146.994	147.155	62	56
146.998	147.156	69	56
146.998	147.155	72	67
147.155	147.788	62	59
147.155	147.788	72	70
147.156	147.568	42	66
147.156	147.789	69	59
147.358	147.789	50	60
147.568	147.789	42	60
147.785	148.405	57	44
147.788	148.402	62	44
147.788	148.405	72	52
147.789	148.188	42	43
147.987	148.405	50	36
148.188	148.405	42	37
148.401	149.031	59	39
148.402	148.867	62	39
148.404	149.031	71	46
148.405	148.81	50	37
148.601	149.02	42	33
148.81	149.031	50	33
148.866	149.017	60	35
148.867	149.018	62	35
148.867	149.018	69	42
149.017	151.307	60	35
149.018	151.307	62	35
149.018	151.307	69	42
149.02	149.416	42	37
149.21	149.611	50	31
149.416	149.798	42	31
149.611	149.984	50	35
149.798	150.176	42	30
149.984	150.361	50	30
150.176	150.553	42	35
150.361	150.739	50	30
150.553	150.921	42	30
150.739	151.114	50	35
150.921	151.307	42	29
151.114	151.307	50	29
151.303	151.842	67	50
151.306	151.842	46	45
151.307	152.948	43	31
151.481	152.021	62	40
151.484	152.023	50	36
151.66	152.202	58	34
151.663	152.202	55	31
151.842	152.398	46	42
151.842	152.398	67	47
152.021	152.398	62	37
152.023	152.398	50	33
152.202	152.398	55	27
152.202	152.398	58	32
152.388	152.954	66	47
152.391	152.954	45	41
152.567	152.954	62	38
152.569	152.954	50	33
152.752	152.954	57	33
152.755	152.954	54	27
152.947	153.49	48	45
152.947	153.49	69	50
152.948	155.139	43	31
153.125	153.669	62	41
153.126	153.672	50	36
153.304	153.85	60	33
153.308	153.851	57	29
153.49	154.039	48	43
153.49	154.039	69	48
153.669	154.039	62	38
153.672	154.039	50	33
153.85	154.039	60	30
153.851	154.039	57	28
154.033	154.571	46	43
154.033	154.571	67	48
154.208	154.75	62	38
154.211	154.75	50	33
154.39	154.936	58	31
154.392	154.939	55	28
154.571	155.139	46	42
154.571	155.139	67	47
154.75	155.136	50	33
154.75	155.132	62	38
154.936	155.139	58	31
154.939	155.139	55	28
155.132	155.433	62	45
155.135	155.765	66	45
155.136	155.436	50	39
155.136	155.765	54	39
155.136	155.761	69	53
155.138	155.763	57	39
155.433	155.758	62	47
155.435	155.765	67	47
155.436	155.762	50	41
155.436	155.765	55	41
155.436	155.765	70	56
155.439	155.765	58	49
155.758	156.206	62	49
155.761	156.363	69	49
155.762	156.209	50	44
155.762	156.363	72	58
155.763	156.363	57	44
155.764	156.363	60	52
156.206	156.355	62	45
156.207	156.356	67	45
156.209	156.358	50	39
156.209	156.356	70	54
156.21	156.359	55	39
156.21	156.362	58	47
156.355	156.982	62	45
156.356	156.989	67	45
156.356	156.989	70	53
156.358	156.986	50	38
156.359	156.989	55	38
156.362	156.989	58	45
156.982	157.311	62	31
156.983	157.633	66	31
156.985	157.636	69	37
156.986	157.315	50	27
156.986	157.637	54	27
156.988	157.638	57	32
157.311	157.633	62	29
157.314	157.643	64	29
157.315	157.637	50	26
157.315	157.643	52	26
157.315	157.643	67	35
157.317	157.643	55	31
157.633	158.276	62	31
157.633	158.276	66	31
157.636	158.276	69	37
157.637	158.276	50	28
157.637	158.276	54	28
157.638	158.276	57	33
158.27	159.912	74	53
158.273	158.806	67	50
158.274	159.915	43	31
158.274	158.809	47	45
158.446	158.984	62	40
158.448	158.988	50	36
158.627	159.169	55	31
158.627	159.166	71	34
158.806	159.355	67	47
158.809	159.355	47	42
158.984	159.355	62	37
158.988	159.355	50	33
159.166	159.355	71	32
159.169	159.355	55	27
159.345	159.918	66	47
159.348	159.918	45	41
159.531	159.918	62	38
159.534	159.918	50	33
159.719	159.912	69	33
159.72	159.918	54	27
159.912	160.457	69	50
159.912	161.571	74	53
159.914	160.457	48	45
159.915	161.57	43	31
160.09	160.636	50	36
160.09	160.635	62	41
160.269	160.815	72	33
160.271	160.818	57	29
160.457	160.997	48	43
160.457	160.997	69	48
160.635	160.997	62	38
160.636	160.997	50	33
160.815	160.997	72	30
160.818	160.997	57	28
160.996	161.571	67	48
160.997	161.568	47	43
161.18	161.567	62	38
161.182	161.567	50	33
161.36	161.571	71	31
161.361	161.571	55	28
161.567	162.179	50	46
161.567	162.179	62	70
161.568	162.179	47	39
161.57	162.173	43	39
161.847	162.179	74	68
162.169	162.803	64	56
162.173	162.468	43	46
162.173	162.803	48	46
162.173	162.803	76	66
162.174	162.803	52	55
162.467	162.803	66	62
162.467	162.803	78	74
162.468	162.799	43	49
162.47	162.803	45	49
162.47	162.803	54	58
162.799	163.426	43	57
162.799	163.264	67	70
162.799	163.426	79	83
162.8	163.265	55	68
162.803	163.426	47	57
163.262	163.419	62	46
163.264	163.426	67	46
163.265	163.422	50	41
163.265	163.426	55	41
163.265	163.422	71	55
163.268	163.426	59	49
163.419	164.052	62	51
163.422	164.056	50	45
163.422	164.059	71	51
163.422	164.059	74	61
163.426	164.059	59	45
164.052	164.546	62	42
164.053	164.714	66	42
164.056	164.714	50	39
164.056	164.714	72	50
164.058	164.714	57	39
164.059	164.714	60	46
164.546	164.707	62	37
164.549	164.708	67	37
164.549	164.71	71	44
164.55	164.71	55	31
164.55	164.711	59	37
164.707	165.351	62	34
164.708	165.351	67	34
164.71	165.351	55	28
164.71	165.351	71	41
164.711	165.351	59	34
165.347	165.928	57	37
165.347	165.931	66	37
165.348	165.931	69	44
165.351	165.725	38	30
165.536	165.931	45	26
165.725	165.931	38	27
165.928	166.359	57	32
165.929	166.31	33	30
165.929	166.51	64	32
165.929	166.51	67	38
166.114	166.51	38	26
166.31	166.51	33	26
166.359	166.506	57	30
166.362	166.509	62	30
166.362	166.509	66	36
166.506	167.09	57	32
166.509	167.09	62	32
166.509	167.087	66	38
166.51	166.891	38	30
166.695	167.09	45	26
166.891	167.09	38	26
167.087	167.668	66	37
167.087	167.668	74	44
167.088	167.472	33	32
167.275	167.669	38	27
167.472	167.671	33	27
167.52	167.671	67	35
167.521	167.671	76	41
167.668	168.248	66	40
167.668	168.248	74	48
167.669	168.053	38	33
167.861	168.248	45	29
168.053	168.248	38	29
168.246	168.83	69	37
168.248	168.634	33	34
168.248	168.83	76	44
168.442	168.829	37	29
168.634	168.83	33	29
168.826	169.403	57	46
168.827	169.408	67	46
168.829	169.207	37	30
168.829	169.408	71	55
169.015	169.408	45	27
169.207	169.408	37	27
169.403	169.827	57	39
169.404	169.981	66	39
169.407	169.981	69	47
169.408	169.778	33	30
169.586	169.974	37	27
169.778	169.981	33	27
169.827	169.971	57	32
169.827	169.974	64	32
169.828	169.974	67	38
169.971	170.573	57	35
169.974	170.356	37	33
169.974	170.573	64	35
169.974	170.573	67	42
170.156	170.573	45	29
170.356	170.573	37	29
170.569	171.143	69	42
170.57	171.144	76	50
170.573	170.947	33	34
170.759	171.146	37	30
170.947	171.15	33	30
170.996	171.15	74	39
171.0	171.15	78	47
171.143	171.731	69	44
171.144	171.731	76	52
171.146	171.526	37	35
171.333	171.731	45	30
171.526	171.731	37	30
171.72	172.309	74	41
171.721	172.105	33	35
171.721	172.313	78	49
171.906	172.31	38	30
172.105	172.313	33	30
172.309	172.903	66	51
172.309	172.903	74	61
172.31	172.698	38	34
172.498	172.903	45	29
172.698	172.903	38	31
172.892	173.496	69	38
172.893	173.289	33	34
172.893	173.509	73	45
173.085	173.499	38	29
173.184	173.509	67	38
173.187	173.509	71	45
173.289	173.509	33	29
173.495	174.101	57	48
173.495	174.104	66	48
173.496	174.104	69	57
173.499	173.893	38	39
173.695	174.104	45	34
173.893	174.104	38	34
174.101	174.399	57	38
174.101	174.709	64	38
174.102	174.489	33	36
174.102	174.706	67	45
174.294	174.709	38	31
174.399	174.703	57	38
174.401	174.709	62	38
174.401	174.709	66	38
174.489	174.709	33	31
174.703	175.308	57	49
174.706	175.318	67	49
174.706	175.318	71	58
174.707	175.098	37	37
174.903	175.318	45	33
175.098	175.318	37	33
175.308	175.612	57	42
175.309	175.928	66	42
175.309	175.932	69	50
175.311	175.718	33	35
175.511	175.932	37	31
175.612	175.932	57	41
175.616	175.932	64	41
175.616	175.932	67	49
175.718	175.932	33	30
175.928	176.544	62	44
175.928	176.554	66	52
175.931	176.338	38	36
176.127	176.554	45	29
176.233	176.554	57	40
176.235	176.554	64	48
176.338	176.554	38	31
176.542	177.73	54	45
176.544	176.929	33	37
176.544	177.73	62	53
176.736	177.127	38	30
176.929	177.729	33	30
177.127	177.514	38	36
177.318	177.73	45	32
177.514	177.73	38	32
177.727	178.308	57	44
177.727	178.322	66	44
177.728	178.322	69	52
177.729	178.112	33	42
177.916	178.322	38	39
178.112	178.322	33	39
178.308	178.742	57	41
178.309	178.902	64	41
178.311	178.902	35	43
178.311	178.902	67	49
178.497	178.902	38	39
178.693	178.892	36	40
178.742	178.888	57	39
178.742	178.889	62	39
178.744	178.889	66	46
178.888	179.47	57	40
178.889	179.474	62	40
178.889	179.47	66	48
178.892	179.274	36	46
179.081	179.474	38	42
179.274	179.474	36	42
179.47	180.051	57	48
179.47	180.054	66	57
179.473	180.054	69	57
179.474	179.855	33	48
179.662	180.054	38	43
179.855	180.054	33	43
180.051	180.484	57	45
180.051	180.642	64	45
180.052	180.642	35	49
180.052	180.642	67	54
180.243	180.642	38	44
180.436	180.639	36	44
180.484	180.635	57	45
180.485	180.639	62	45
180.485	180.639	66	53
180.635	181.244	57	47
180.639	181.027	36	54
180.639	181.242	62	47
180.639	181.242	66	56
180.825	181.244	38	44
181.027	181.244	36	46
181.241	181.825	72	70
181.242	181.821	62	59
181.242	181.825	66	59
181.244	181.626	33	57
181.429	181.825	38	51
181.626	181.825	33	51
181.821	182.256	62	56
181.821	182.406	67	66
181.822	182.406	35	64
181.822	182.406	71	66
182.007	182.406	38	54
182.207	182.403	36	54
182.253	182.4	69	59
182.256	182.402	62	50
182.256	182.402	66	50
182.4	183.019	69	61
182.402	183.016	62	51
182.402	183.019	66	51
182.403	182.799	36	71
182.595	183.019	38	55
182.799	183.019	36	55
183.016	183.627	62	61
183.018	183.638	72	61
183.019	183.418	38	72
183.019	183.638	76	72
183.215	183.638	50	62
183.418	183.638	38	62
183.627	184.1	62	59
183.628	184.261	71	59
183.628	184.261	74	70
183.629	184.261	40	69
183.838	184.261	50	57
184.047	184.261	42	60
184.1	184.258	62	56
184.101	184.26	69	56
184.103	184.258	72	67
184.258	184.892	62	59
184.258	184.892	72	70
184.26	184.895	69	59
184.261	184.671	42	66
184.464	184.895	50	60
184.671	184.895	42	60
184.891	185.514	57	44
184.892	185.507	62	44
184.892	185.514	72	52
184.895	185.298	42	43
185.09	185.511	50	36
185.298	185.514	42	37
185.507	186.134	59	39
185.507	185.97	62	39
185.508	186.134	71	46
185.511	185.914	50	37
185.713	186.131	42	33
185.914	186.134	50	33
185.969	186.127	60	35
185.97	186.13	62	35
185.97	186.13	69	42
186.127	188.412	60	35
186.13	188.412	62	35
186.13	188.412	69	42
186.131	186.519	42	37
186.32	186.716	50	31
186.519	186.903	42	31
186.716	187.089	50	35
186.903	187.279	42	30
187.089	187.464	50	30
187.279	187.657	42	35
187.464	187.842	50	30
187.657	188.035	42	30
187.842	188.219	50	35
188.035	188.412	42	29
188.219	188.412	50	29
188.409	188.952	67	50
188.41	188.954	46	45
188.412	190.058	43	31
188.587	189.133	62	40
188.588	189.134	50	36
188.773	189.312	55	31
188.773	189.311	58	34
188.952	189.5	67	47
188.954	189.5	46	42
189.133	189.5	62	37
189.134	189.5	50	33
189.311	189.5	58	32
189.312	189.5	55	27
189.494	190.061	45	41
189.494	190.061	66	47
189.677	190.061	62	38
189.679	190.061	50	33
189.858	190.061	54	27
189.858	190.061	57	33
190.057	190.597	48	45
190.057	190.596	69	50
190.058	192.248	43	31
190.235	190.775	62	41
190.236	190.776	50	36
190.414	190.954	60	33
190.417	190.957	57	29
190.596	191.149	69	48
190.597	191.149	48	43
190.775	191.149	62	38
190.776	191.149	50	33
190.954	191.149	60	30
190.957	191.149	57	28
191.136	191.678	46	43
191.136	191.675	67	48
191.315	191.856	62	38
191.317	191.857	50	33
191.495	192.043	58	31
191.496	192.044	55	28
191.675	192.248	67	47
191.678	192.248	46	42
191.856	192.238	62	38
191.857	192.241	50	33
192.043	192.248	58	31
192.044	192.248	55	28
192.238	192.538	62	45
192.239	192.871	66	45
192.241	192.539	50	39
192.241	192.864	69	53
192.242	192.871	54	39
192.245	192.867	57	46
192.538	192.861	62	46
192.539	192.867	50	41
192.539	192.871	67	46
192.539	192.871	70	55
192.542	192.871	55	41
192.543	192.871	58	49
192.861	193.31	62	50
192.864	193.467	69	59
192.865	193.467	72	59
192.867	193.312	50	44
192.867	193.467	57	44
192.868	193.467	60	52
193.31	193.46	62	45
193.311	193.462	67	45
193.312	193.466	50	39
193.312	193.463	70	54
193.316	193.467	55	39
193.316	193.467	58	47
193.46	194.086	62	45
193.462	194.093	67	45
193.463	194.093	70	53
193.466	194.09	50	38
193.467	194.093	55	38
193.467	194.093	58	45
194.086	194.425	62	31
194.089	194.741	66	31
194.09	194.429	50	27
194.09	194.741	69	37
194.092	194.743	54	27
194.093	194.744	57	32
194.425	194.737	62	29
194.426	194.747	64	29
194.428	194.747	67	35
194.429	194.741	50	26
194.429	194.747	52	26
194.432	194.747	55	26
194.737	195.381	62	31
194.741	195.381	50	28
194.741	195.381	66	31
194.741	195.381	69	37
194.743	195.381	54	28
194.744	195.381	57	33
195.377	197.023	74	53
195.378	195.92	47	45
195.378	195.92	67	50
195.38	197.026	43	31
195.553	196.099	50	36
195.553	196.098	62	40
195.738	196.28	71	34
195.739	196.281	55	31
195.92	196.473	47	42
195.92	196.473	67	47
196.098	196.473	62	37
196.099	196.473	50	33
196.28	196.473	71	32
196.281	196.473	55	27
196.456	197.029	66	47
196.459	197.029	45	41
196.644	197.029	62	38
196.645	197.029	50	33
196.823	197.025	69	33
196.826	197.029	54	27
197.023	198.675	74	53
197.025	197.561	69	50
197.026	198.675	43	31
197.026	197.562	48	45
197.201	197.741	62	41
197.204	197.743	50	36
197.38	197.922	72	33
197.382	197.922	57	29
197.561	198.111	69	48
197.562	198.111	48	43
197.741	198.111	62	38
197.743	198.111	50	33
197.922	198.111	57	28
197.922	198.111	72	30
198.101	198.675	67	48
198.104	198.674	47	43
198.286	198.67	62	38
198.287	198.671	50	33
198.471	198.675	71	31
198.475	198.675	55	28
198.67	199.283	62	70
198.671	199.283	50	46
198.674	199.283	47	39
198.675	199.277	43	39
198.955	199.283	74	68
199.276	199.909	64	56
199.277	199.574	43	46
199.277	199.909	76	66
199.279	199.909	48	46
199.28	199.909	52	55
199.573	199.909	66	62
199.574	199.906	43	49
199.574	199.909	78	73
199.575	199.909	45	49
199.578	199.909	54	58
199.903	200.369	67	69
199.904	200.53	79	82
199.906	200.53	43	57
199.907	200.53	47	57
199.907	200.373	55	68
200.369	200.529	62	46
200.369	200.53	67	46
200.372	200.527	50	41
200.372	200.526	71	55
200.373	200.53	55	41
200.373	200.53	59	49
200.526	201.169	71	61
200.526	201.169	74	61
200.527	201.162	50	45
200.529	201.159	62	54
200.53	201.169	59	45
201.159	201.65	62	42
201.16	201.818	66	42
201.16	201.818	72	50
201.162	201.818	50	39
201.163	201.818	57	39
201.163	201.818	60	46
201.65	201.814	62	37
201.653	201.814	67	37
201.654	201.817	55	31
201.654	201.815	71	44
201.656	201.818	59	37
201.814	202.456	62	34
201.814	202.455	67	34
201.815	202.456	71	41
201.817	202.456	55	28
201.818	202.456	59	34
202.451	203.035	64	40
202.455	203.033	67	40
202.455	203.035	72	40
202.456	202.833	43	30
202.64	203.035	55	26
202.833	203.035	43	27
203.032	203.623	62	38
203.033	203.469	67	38
203.033	203.623	71	38
203.035	203.417	55	30
203.22	203.616	43	26
203.417	203.623	55	26
203.466	203.613	60	36
203.469	203.614	67	36
203.47	203.614	69	36
203.613	204.194	60	38
203.614	204.194	67	38
203.614	204.194	69	38
203.616	203.998	43	30
203.799	204.194	55	26
203.998	204.194	43	26
204.193	204.774	62	40
204.194	204.579	43	30
204.194	204.785	71	40
204.38	204.775	55	26
204.579	204.785	43	27
204.772	205.359	60	38
204.774	205.209	62	38
204.775	205.16	55	30
204.775	205.359	69	38
204.967	205.356	43	26
205.16	205.359	55	26
205.206	205.353	59	36
205.209	205.355	62	36
205.21	205.356	67	36
205.353	205.955	59	38
205.355	205.952	62	38
205.356	205.745	43	30
205.356	205.955	67	38
205.549	205.955	55	26
205.745	205.955	43	26
205.951	206.549	60	40
205.952	206.533	62	40
205.954	206.336	31	30
205.954	206.549	69	40
206.146	206.536	43	26
206.336	206.549	31	27
206.533	207.123	59	38
206.533	207.123	62	38
206.535	207.123	67	38
206.536	206.917	43	30
206.725	207.116	31	26
206.917	207.123	43	26
206.966	207.112	57	36
206.966	207.113	60	36
206.97	207.113	66	36
207.112	207.704	57	38
207.113	207.704	60	38
207.113	207.704	66	38
207.116	207.498	31	30
207.306	207.704	43	26
207.498	207.701	31	26
207.698	208.286	59	40
207.701	208.079	31	30
207.701	208.286	67	40
207.886	208.282	43	26
208.079	208.286	31	27
208.278	208.863	57	38
208.279	208.863	62	38
208.282	208.667	43	30
208.468	208.86	31	26
208.667	208.863	43	26
208.713	208.859	55	36
208.713	208.86	59	36
208.859	209.452	55	38
208.86	209.245	31	30
208.86	209.455	59	38
209.049	209.455	43	26
209.245	209.455	31	26
209.452	210.056	55	38
209.452	210.061	62	38
209.454	210.061	65	38
209.455	209.85	31	28
209.651	210.06	43	24
209.85	210.061	31	25
210.056	210.501	55	36
210.057	210.665	60	36
210.06	210.448	43	28
210.06	210.665	64	36
210.249	210.658	31	24
210.448	210.665	43	24
210.501	210.652	55	34
210.502	210.655	59	34
210.504	210.655	62	34
210.652	211.255	55	36
210.655	211.25	59	36
210.655	211.255	62	36
210.658	211.051	31	28
210.848	211.255	43	24
211.051	211.254	31	24
211.25	211.845	59	38
211.254	211.642	31	28
211.254	211.856	65	38
211.254	211.856	69	38
211.446	211.849	43	24
211.642	211.856	31	24
211.845	212.286	59	34
211.845	212.434	67	34
211.846	212.434	64	34
211.849	212.23	43	27
212.038	212.433	31	23
212.23	212.434	43	22
212.285	212.433	62	31
212.286	212.433	59	31
212.286	212.43	65	31
212.43	213.031	65	32
212.433	212.822	31	25
212.433	213.029	59	32
212.433	213.032	62	32
212.619	213.032	43	21
212.822	213.031	31	21
213.028	214.358	69	36
213.029	215.142	59	36
213.031	213.455	31	27
213.031	215.143	65	36
213.238	213.669	43	23
213.455	213.889	31	24
213.669	214.11	43	27
213.889	214.34	31	23
214.001	214.358	68	36
214.11	214.358	43	23
214.338	215.146	67	36
214.34	214.859	31	27
214.593	215.145	43	23
214.718	215.142	69	36
214.859	215.146	31	23
215.142	217.69	59	36
215.142	217.69	69	36
215.143	217.69	65	36
215.145	217.69	43	23
215.146	217.69	50	23
216.013	217.69	67	36
217.691	218.226	67	60
217.694	218.229	55	54
218.155	218.236	69	50
218.156	218.236	57	44
218.226	218.743	67	60
218.229	218.744	55	54
218.401	218.75	64	57
218.403	218.75	52	50
218.572	218.75	48	47
218.572	218.75	60	53
218.743	219.335	67	60
218.744	219.335	55	54
219.167	219.325	76	56
219.17	219.326	64	51
219.325	220.518	76	60
219.326	220.518	64	54
220.501	220.794	72	44
220.504	220.798	60	40
221.092	221.648	67	59
221.568	221.648	65	50
221.635	222.191	64	60
221.813	222.18	60	56
221.999	222.191	55	52
222.18	222.712	60	60
222.355	222.709	64	57
222.534	222.71	67	54
222.706	222.853	55	56
222.709	222.853	64	56
222.71	222.854	67	56
222.712	222.856	43	51
222.996	223.136	55	53
222.997	223.136	62	53
222.997	223.137	65	53
222.999	223.139	45	46
223.139	223.268	47	46
223.273	223.381	55	56
223.273	223.382	60	56
223.273	223.382	64	56
223.274	223.382	48	51
223.56	223.671	55	50
223.56	223.672	59	50
223.563	223.675	43	45
223.563	223.672	62	50
223.85	223.993	55	56
223.85	223.994	60	56
223.851	223.997	64	56
223.854	224.0	48	51
224.424	224.57	55	41
224.424	224.571	63	41
224.425	224.571	67	41
224.427	224.714	43	36
224.714	224.855	55	37
224.718	224.855	62	37
224.718	224.855	65	37
224.719	224.858	45	34
224.858	224.994	47	35
224.995	225.103	55	41
224.995	225.107	60	41
224.998	225.107	63	41
224.999	225.138	48	36
225.278	225.386	55	38
225.279	225.39	59	38
225.279	225.39	62	38
225.282	225.393	43	33
225.561	225.673	55	41
225.562	225.674	60	41
225.565	225.677	48	36
225.565	225.674	63	41
225.852	225.95	58	38
225.852	225.951	62	38
225.852	225.953	65	38
225.856	225.953	46	33
226.125	226.398	58	50
226.129	226.405	46	46
226.129	226.405	62	50
226.129	226.405	65	50
226.398	226.601	58	48
226.398	226.602	63	48
226.399	226.604	67	48
226.402	226.605	51	43
226.671	226.958	58	52
226.672	226.958	63	52
226.674	226.958	51	48
226.674	226.958	67	52
226.954	227.164	62	54
226.955	227.165	66	54
226.955	227.165	69	54
226.958	227.167	50	46
227.234	227.518	62	60
227.235	227.524	66	60
227.235	227.524	69	60
227.238	227.524	50	54
227.518	227.728	62	57
227.518	227.728	67	57
227.518	227.729	70	57
227.522	227.732	55	51
227.797	228.086	62	66
227.798	228.089	67	66
227.798	228.105	70	66
227.802	228.092	55	59
228.086	228.442	62	64
228.089	228.446	43	55
228.089	228.446	67	64
228.089	228.446	71	64
228.09	228.447	53	55
228.092	228.449	55	55
228.442	229.789	62	70
228.446	229.426	43	61
228.446	229.789	67	70
228.446	229.426	71	70
228.447	229.789	53	61
228.449	229.429	55	61
229.422	229.789	65	54
229.426	229.789	43	48
229.426	229.789	71	54
229.426	229.789	77	54
229.427	229.789	50	48
229.429	229.782	55	48
229.776	231.547	64	54
229.779	231.547	48	48
229.779	231.547	72	54
229.779	231.547	76	54
229.782	231.547	55	48
231.547	232.107	76	54
232.036	232.109	77	44
232.107	232.662	76	54
232.284	232.652	72	50
232.467	232.662	69	47
232.579	232.662	74	44
232.652	233.212	72	54
232.832	233.209	69	51
233.009	233.208	64	47
233.208	233.769	64	45
233.209	233.775	69	45
233.212	233.772	52	52
233.212	233.775	72	54
233.488	233.769	68	43
233.488	233.771	71	51
233.695	233.775	53	44
233.769	234.083	64	45
233.769	234.408	68	54
233.771	234.409	71	54
233.772	234.409	52	58
233.975	234.412	47	57
234.08	234.412	66	43
234.083	234.407	64	43
234.084	234.412	69	51
234.181	234.412	40	54
234.407	234.993	64	45
234.408	234.997	68	45
234.409	234.997	52	59
234.409	234.997	71	54
235.0	235.574	64	45
235.001	235.574	67	45
235.001	235.581	72	54
235.003	235.578	52	52
235.287	235.575	71	51
235.501	235.581	53	44
235.574	235.886	64	45
235.574	235.889	67	45
235.575	236.18	71	54
235.578	236.183	52	59
235.78	236.183	55	55
235.886	236.183	64	44
235.889	236.176	67	44
235.889	236.183	72	52
235.977	236.183	60	53
236.176	236.81	67	45
236.18	236.81	65	53
236.18	236.81	71	54
236.181	236.81	62	45
236.481	236.81	77	53
236.789	237.408	64	52
236.789	237.408	76	54
236.79	237.408	60	44
237.325	237.408	74	43
237.401	238.031	72	53
237.402	237.709	66	55
237.404	237.71	62	46
237.601	238.01	71	51
237.709	238.031	66	53
237.71	238.013	62	45
237.807	238.031	69	52
238.01	238.647	71	55
238.013	238.648	62	47
238.014	238.65	55	47
238.014	238.65	67	56
238.651	239.158	59	61
238.651	239.157	71	68
239.158	239.221	72	58
239.161	239.222	60	51
239.222	239.655	71	68
239.225	239.655	59	61
239.397	239.655	67	66
239.4	239.655	55	59
239.565	239.711	64	64
239.567	239.715	52	56
239.76	240.183	67	76
239.76	240.183	79	82
240.041	240.183	76	72
240.044	240.183	64	64
240.362	240.855	71	70
240.366	240.859	59	62
240.86	240.923	60	53
240.86	240.922	72	60
240.925	241.318	71	71
240.926	241.318	59	64
241.097	241.318	67	69
241.101	241.318	55	61
241.266	241.409	64	66
241.268	241.409	52	57
241.461	241.895	79	85
241.462	241.895	67	76
241.738	241.895	64	66
241.738	241.895	76	74
242.035	242.42	75	90
242.035	242.42	83	90
242.039	242.42	47	77
242.039	242.42	78	90
242.326	242.423	71	87
242.327	242.426	59	72
242.528	242.592	81	70
242.529	242.595	63	55
242.595	242.766	79	87
242.596	242.767	64	73
242.767	242.931	78	83
242.771	242.931	66	67
242.935	243.141	67	78
242.935	243.137	76	78
243.142	243.505	75	93
243.142	243.505	83	93
243.144	243.505	78	93
243.145	243.505	47	79
243.429	243.529	71	86
243.43	243.53	59	73
243.631	243.698	81	72
243.635	243.698	63	58
243.698	243.865	79	89
243.701	243.866	64	75
243.866	244.027	78	85
243.869	244.027	66	68
244.028	244.219	76	82
244.03	244.219	67	66
244.22	244.677	83	95
244.223	244.677	75	95
244.223	244.677	78	95
244.224	244.677	47	80
244.506	244.677	71	89
244.509	244.677	59	75
244.796	245.252	95	115
244.8	245.252	35	81
245.109	245.252	83	93
245.111	245.252	47	70
247.05	247.485	79	45
247.051	247.485	64	36
247.331	247.485	76	30
247.335	247.485	67	25
247.621	247.985	79	43
247.622	247.985	64	34
247.901	248.044	76	31
247.902	248.045	67	25
248.185	248.643	64	33
248.185	248.643	79	42
248.469	248.643	76	31
248.472	248.643	67	26
248.752	249.182	64	33
248.752	249.182	79	41
249.035	249.182	76	29
249.036	249.182	67	24
249.318	249.767	79	38
249.323	249.767	64	31
249.603	249.767	76	27
249.604	249.767	67	23
249.885	250.361	79	37
249.886	250.361	64	30
250.166	250.361	76	26
250.167	250.361	67	21
250.453	250.996	79	36
250.456	250.996	55	48
250.456	250.992	76	36
250.723	250.998	67	27
250.922	250.998	57	40
250.992	251.535	76	36
250.996	251.538	55	48
250.996	251.537	79	36
251.174	251.551	52	45
251.269	251.551	67	27
251.353	251.551	48	39
251.535	252.122	76	36
251.537	252.123	79	36
251.538	252.126	55	48
251.822	252.126	67	27
251.964	252.123	64	45
252.122	252.7	76	38
252.123	253.641	64	48
252.123	252.7	79	38
252.417	252.987	67	29
252.7	253.274	76	38
252.7	253.277	79	38
252.987	253.564	67	27
253.274	253.641	76	34
253.277	253.641	60	36
253.277	253.641	79	34
253.564	253.697	67	26
253.84	254.387	67	47
254.32	254.394	69	44
254.387	254.919	67	52
254.569	254.929	64	49
254.744	254.929	60	42
254.919	255.513	67	52
255.342	255.506	76	48
255.506	256.599	76	52
255.507	256.046	55	48
255.976	256.05	57	40
256.046	256.588	55	48
256.225	256.599	52	45
256.407	256.599	48	41
256.586	257.176	72	35
256.588	257.176	55	48
257.009	257.155	64	45
257.152	257.708	79	70
257.155	258.244	64	48
257.628	257.708	77	51
257.698	258.244	76	61
257.881	258.24	72	57
258.059	258.244	67	55
258.24	258.79	72	63
258.241	258.79	60	38
258.419	258.787	76	59
258.597	258.787	79	56
258.786	258.923	67	70
258.787	258.923	76	70
258.787	258.926	79	70
258.79	258.926	43	61
259.066	259.203	67	66
259.069	259.203	74	66
259.07	259.204	77	66
259.073	259.204	45	55
259.206	259.336	47	55
259.336	259.444	67	70
259.34	259.448	48	61
259.34	259.445	72	70
259.34	259.448	76	70
259.619	259.731	67	63
259.62	259.732	71	63
259.623	259.732	43	53
259.623	259.732	74	63
259.917	260.053	67	70
259.917	260.054	72	70
259.918	260.06	48	61
259.918	260.056	76	70
260.491	260.634	51	38
260.491	260.781	67	45
260.492	260.638	55	38
260.781	260.922	69	41
260.782	260.922	50	35
260.785	260.923	53	35
260.785	260.925	55	35
260.925	261.058	71	41
261.059	261.17	72	45
261.061	261.17	48	38
261.061	261.171	51	38
261.065	261.173	55	38
261.355	261.467	67	39
261.356	261.467	47	35
261.358	261.468	50	35
261.359	261.468	55	35
261.645	261.751	72	48
261.646	261.752	48	42
261.646	261.752	51	42
261.649	261.754	55	42
261.93	262.062	70	65
261.93	262.062	82	65
261.933	262.066	50	49
261.933	262.066	53	49
261.933	262.067	58	49
262.203	262.332	53	52
262.203	262.331	70	67
262.203	262.332	82	67
262.206	262.335	56	52
262.206	262.336	58	52
262.468	262.608	87	70
262.472	262.612	51	49
262.472	262.612	75	70
262.475	262.612	55	49
262.475	262.615	58	49
262.755	262.896	75	73
262.755	262.895	87	73
262.756	262.896	51	53
262.759	262.897	55	53
262.759	262.898	58	53
263.032	263.172	86	71
263.033	263.172	74	71
263.035	263.172	54	51
263.035	263.176	57	51
263.039	263.176	62	51
263.319	263.462	74	78
263.32	263.463	57	57
263.32	263.466	60	57
263.32	263.462	86	78
263.322	263.466	62	57
263.602	263.753	91	77
263.603	263.756	55	55
263.603	263.753	79	77
263.604	263.756	58	55
263.605	263.757	62	55
263.896	264.043	79	84
263.9	264.044	55	62
263.9	264.043	91	84
263.903	264.047	58	62
263.904	264.047	62	62
264.193	264.351	89	70
264.194	264.355	43	49
264.194	264.351	77	70
264.198	264.355	50	49
264.198	264.356	59	49
264.501	265.969	89	66
264.502	265.969	43	47
264.502	265.969	77	66
264.506	265.969	50	47
264.506	265.969	59	47
265.594	265.969	71	48
265.595	265.969	65	37
265.595	265.969	83	48
265.597	265.969	55	37
265.597	265.966	67	37
265.962	267.729	84	45
265.965	267.729	72	45
265.966	267.729	67	35
265.968	267.729	60	35
265.968	267.729	64	35
