OnsetTime	OffsetTime	MidiPitch	Velocity
0.50105	1.52443	57	42
0.50105	1.52443	69	50
1.5026	2.52122	64	42
1.5026	2.52122	76	50
2.50101	3.49181	63	44
2.50101	3.49181	75	53
3.47126	3.67671	64	38
3.47126	3.67671	76	47
3.96432	4.48311	60	39
3.96432	4.48311	72	49
4.33994	4.48915	59	39
4.33994	4.48915	71	47
4.46902	5.44685	57	38
4.46902	5.44685	69	48
5.43535	6.45431	52	52
5.43535	6.45431	56	56
5.43535	6.45431	59	56
5.43535	6.45431	64	56
6.43794	7.69581	48	47
6.43794	7.69581	60	52
7.42042	7.69581	45	39
7.42042	7.69581	57	51
8.43334	9.45412	45	42
8.43334	9.43592	57	50
9.43592	10.4236	38	45
9.43592	10.4236	57	59
9.43592	10.4236	65	59
10.4062	11.333	37	48
10.4062	11.333	58	64
10.4062	11.333	67	64
11.333	11.5418	38	42
11.333	11.5418	57	54
11.333	11.5418	65	54
11.8292	12.3377	45	44
11.8292	12.3377	57	51
12.2016	12.349	47	45
12.2016	12.349	59	54
12.3285	13.3261	48	45
12.3285	13.3261	60	52
13.3146	14.3315	40	47
13.3146	14.3315	52	54
13.3146	14.3315	56	54
13.3146	14.3315	59	54
13.3146	14.3315	64	54
14.3172	15.4647	36	45
14.3172	15.4647	48	50
14.3172	15.4647	60	50
15.2997	15.5126	33	41
15.2997	15.5126	45	50
15.2997	15.5126	57	50
16.3217	17.3707	38	35
16.3217	17.3707	41	35
16.3217	17.3707	45	35
17.3038	17.4292	33	33
18.3064	19.3308	36	36
18.3064	19.3308	40	36
18.3064	19.3308	45	36
19.2728	19.3971	33	35
19.7699	21.2759	57	52
20.255	21.2759	38	36
20.255	21.2759	41	36
20.255	21.2759	45	36
20.7232	21.2759	62	46
21.1993	21.3171	33	34
21.1993	21.6903	64	49
21.6704	22.1684	65	47
22.1493	23.1326	36	36
22.1493	23.1326	40	36
22.1493	23.1326	45	36
22.1493	23.1326	64	50
23.0677	23.2706	33	34
23.0677	23.2706	57	46
23.5548	24.0472	67	44
24.0285	24.9664	38	37
24.0285	24.9664	41	37
24.0285	24.9664	45	37
24.0285	24.9664	65	47
24.9263	25.1318	33	35
24.9263	25.1318	57	48
25.4194	25.8996	65	45
25.8809	26.8714	36	36
25.8809	26.8714	40	36
25.8809	26.8714	45	36
25.8809	26.8714	64	50
26.7788	26.9801	33	33
26.7788	26.9801	57	48
27.262	27.7194	57	56
27.262	28.74	69	56
27.7194	28.74	50	45
27.7194	28.74	53	45
27.7194	28.74	57	45
28.1875	28.74	62	56
28.1875	28.74	74	56
28.6432	28.7605	45	35
28.6432	29.132	64	59
28.6432	29.132	76	59
29.1123	29.6039	65	54
29.1123	29.6039	77	54
29.5853	30.535	48	41
29.5853	30.535	52	41
29.5853	30.4797	57	41
29.5853	30.535	64	59
29.5853	30.535	76	59
30.4797	30.6771	45	36
30.4797	30.6771	57	56
30.4797	30.6771	69	56
30.9534	32.3548	64	69
30.9534	32.3548	76	69
31.4091	32.3548	47	70
31.4091	32.3548	52	70
31.4091	32.3548	55	70
31.8718	32.3548	67	74
31.8718	32.3548	79	74
32.3207	32.4956	43	54
32.3207	32.807	69	79
32.3207	32.807	81	79
32.7871	33.2645	71	77
32.7871	33.2645	83	77
33.2645	34.2476	42	63
33.2645	34.2387	51	63
33.2645	34.2476	54	71
33.2645	34.2387	71	85
33.2645	34.2387	83	85
34.2387	35.2025	47	54
34.2387	35.2025	51	54
34.2387	35.2025	59	61
34.2387	35.2025	71	81
34.2387	35.2025	83	81
35.186	36.1382	43	49
35.186	36.1382	55	49
35.186	36.1382	67	63
35.186	36.1382	79	63
36.1128	36.3158	40	42
36.1128	36.3158	52	42
36.1128	36.3158	64	53
36.1128	36.3158	76	53
37.087	38.0692	30	26
37.087	38.0573	39	26
37.087	38.0692	42	26
37.087	38.0573	59	41
37.087	38.0573	71	41
38.0573	39.0181	35	24
38.0573	39.0181	39	24
38.0573	39.0181	47	24
38.0573	39.0181	59	37
38.0573	39.0181	71	37
39.0083	39.9716	31	30
39.0083	39.9716	43	30
39.0083	39.9716	55	37
39.0083	39.9716	67	37
39.9465	40.1478	28	27
39.9465	40.1478	40	27
39.9465	40.1478	52	33
39.9465	40.1478	64	33
40.9128	41.9024	40	30
40.9128	41.7752	55	37
40.9128	41.7752	67	37
41.7752	41.9024	52	33
41.7752	41.9024	64	33
41.8842	42.012	41	23
41.994	42.1202	40	27
42.1018	42.2296	41	25
42.2116	42.3397	40	29
42.3211	42.4493	41	22
42.4314	42.5575	40	27
42.5392	42.6673	41	23
42.6495	42.7744	40	31
42.6495	43.5064	53	45
42.6495	43.5064	65	45
42.7562	42.8809	41	28
42.8631	42.9878	40	31
42.9702	43.0949	41	25
43.0767	43.2017	40	34
43.1841	43.3074	41	30
43.2896	43.416	40	34
43.3979	43.525	41	29
43.5064	43.6346	40	34
43.5064	43.6346	50	40
43.5064	43.6346	62	40
43.6166	43.745	41	28
43.7265	43.8536	40	34
43.8356	43.9635	41	29
43.9451	44.072	40	34
44.054	44.1816	41	29
44.1631	44.2928	40	34
44.2743	44.4019	41	30
44.384	44.5074	40	39
44.384	45.2382	52	56
44.384	45.2382	64	56
44.4896	44.6148	41	33
44.597	44.7204	40	39
44.7027	44.8283	41	33
44.8103	44.9341	40	39
44.9166	45.0404	41	33
45.0224	45.1485	40	40
45.1307	45.2565	41	35
45.2382	45.3669	40	40
45.2382	45.3669	48	51
45.2382	45.3669	60	51
45.3481	45.4786	41	35
45.4604	45.588	40	41
45.5694	45.7004	41	34
45.6818	45.81	40	41
45.7918	45.9239	41	36
45.9049	46.036	40	42
46.0175	46.1464	41	37
46.1283	46.2553	40	47
46.1283	47.0186	50	73
46.1283	47.0186	62	73
46.2368	46.3658	41	39
46.3476	46.4746	40	47
46.4562	46.585	41	39
46.5669	46.6931	40	48
46.6749	46.8058	41	40
46.7866	46.9218	40	48
46.9025	47.038	41	42
47.0186	47.1542	40	49
47.0186	47.1542	47	69
47.0186	47.1542	59	69
47.1347	47.2708	41	43
47.2513	47.3878	40	54
47.3683	47.5053	41	48
47.4857	47.6242	40	62
47.6042	47.7458	41	63
47.7253	47.8796	40	71
47.8557	48.0492	44	79
48.0281	49.0599	33	80
48.0281	49.0599	45	80
48.0281	49.0599	57	95
48.0281	49.0599	69	95
49.0391	50.0574	40	76
49.0391	50.0574	52	76
49.0391	50.0574	64	91
49.0391	50.0574	76	91
50.0376	50.9899	39	73
50.0376	50.9899	51	73
50.0376	50.9899	63	88
50.0376	50.9899	75	88
50.9899	51.2406	40	66
50.9899	51.2406	52	66
50.9899	51.2406	64	81
50.9899	51.2406	76	81
51.4912	51.8607	52	48
51.4912	51.8417	64	78
51.4912	51.8607	72	78
51.8417	51.9275	50	46
51.8417	51.9275	62	46
51.8417	51.9275	64	48
51.8417	51.9275	71	73
51.9561	52.3158	48	48
51.9561	52.3158	60	48
51.9561	52.3158	64	63
51.9561	52.3158	69	80
52.3053	52.3912	47	46
52.3053	52.3912	59	46
52.3053	52.3912	62	63
52.3053	52.3912	67	73
52.4198	52.7913	45	43
52.4198	52.7913	57	43
52.4198	52.7913	60	63
52.4198	52.7913	65	72
52.7675	52.853	44	42
52.7675	52.853	56	42
52.7675	52.853	59	58
52.7675	52.853	64	70
52.8815	53.2454	45	46
52.8815	53.2454	57	46
52.8815	53.2454	60	74
52.8815	53.2454	65	74
53.2292	53.3147	43	40
53.2292	53.3147	55	40
53.2292	53.3147	59	57
53.2292	53.3147	64	70
53.3432	53.7302	41	46
53.3432	53.7302	53	46
53.3432	53.7302	57	64
53.3432	53.7302	62	75
53.6895	53.7746	40	42
53.6895	53.7746	52	42
53.6895	53.7746	55	58
53.6895	53.7746	61	70
53.803	54.1628	41	48
53.803	54.1628	53	48
53.803	54.1628	57	76
53.803	54.1628	62	76
54.1477	54.2326	44	46
54.1477	54.2326	56	46
54.1477	54.2326	59	63
54.1477	54.2326	64	73
54.2608	54.6256	45	48
54.2608	54.6256	57	48
54.2608	54.6256	60	77
54.2608	54.6256	65	77
54.6041	54.6883	47	46
54.6041	54.6883	59	46
54.6041	54.6883	62	63
54.6041	54.6883	68	73
54.7163	55.0782	48	52
54.7163	55.0782	60	52
54.7163	55.0596	64	81
54.7163	55.0782	69	81
55.0596	55.1431	50	48
55.0596	55.1431	62	48
55.0596	55.1431	64	67
55.0596	55.1431	71	80
55.171	55.3012	48	53
55.171	55.3012	60	53
55.171	55.3012	64	71
55.171	55.3012	69	86
55.692	56.7159	45	90
55.692	56.7159	57	97
56.7159	57.7374	38	86
56.7159	57.7185	45	86
56.7159	57.7374	57	85
56.7159	57.7374	65	85
56.7159	57.7374	69	85
57.7185	58.6747	37	71
57.7185	58.9317	45	71
57.7185	58.6747	58	90
57.7185	58.6747	67	90
57.7185	58.6747	70	90
58.6747	58.9317	38	71
58.6747	58.9317	57	80
58.6747	58.9317	65	80
58.6747	58.9317	69	80
59.1888	59.5467	57	53
59.1888	59.5391	69	73
59.1888	59.5467	77	89
59.5391	59.6246	55	52
59.5391	59.6246	67	52
59.5391	59.6246	69	53
59.5391	59.6246	76	84
59.6531	60.0194	53	48
59.6531	60.0194	65	48
59.6531	60.0194	69	70
59.6531	60.0194	74	80
60.0007	60.0852	52	46
60.0007	60.0852	64	46
60.0007	60.0852	67	63
60.0007	60.0852	72	73
60.1133	60.477	50	43
60.1133	60.477	62	43
60.1133	60.477	65	63
60.1133	60.477	70	72
60.4609	60.5461	49	42
60.4609	60.5461	61	42
60.4609	60.5461	64	58
60.4609	60.5461	69	70
60.5745	60.9405	50	46
60.5745	60.9405	62	46
60.5745	60.9405	65	64
60.5745	60.9405	70	75
60.9191	61.0029	48	40
60.9191	61.0029	60	40
60.9191	61.0029	64	57
60.9191	61.0029	69	70
61.0309	61.3927	46	46
61.0309	61.3927	58	46
61.0309	61.3927	62	74
61.0309	61.3927	67	74
61.374	61.4582	45	42
61.374	61.4582	57	42
61.374	61.4582	60	58
61.374	61.4582	66	70
61.4862	61.8505	46	47
61.4862	61.8505	58	47
61.4862	61.8505	62	77
61.4862	61.8505	67	77
61.8265	61.9094	49	46
61.8265	61.9094	61	46
61.8265	61.9094	64	63
61.8265	61.9094	69	73
61.937	62.2824	50	48
61.937	62.2824	62	48
61.937	62.2824	65	78
61.937	62.2824	70	78
62.273	62.357	52	46
62.273	62.357	64	46
62.273	62.357	67	63
62.273	62.357	73	73
62.385	62.7425	53	52
62.385	62.7425	65	52
62.385	62.7211	69	70
62.385	62.7425	74	84
62.7211	62.8051	55	48
62.7211	62.8051	67	48
62.7211	62.8051	69	67
62.7211	62.8051	76	80
62.8331	62.9592	53	53
62.8331	62.9592	65	53
62.8331	62.9592	69	71
62.8331	62.9592	74	86
63.3375	64.3038	50	86
63.3375	64.3258	55	86
63.3375	64.3258	58	96
63.3375	64.3258	62	96
64.3038	64.4918	38	72
64.3038	64.4918	50	81
65.3064	66.2728	50	85
65.3064	66.284	53	85
65.3064	66.284	57	95
65.3064	66.284	62	95
66.2728	66.4562	38	72
66.2728	66.4562	50	81
66.7618	67.245	62	83
66.7618	68.2274	74	93
67.245	68.1892	50	77
67.245	68.2274	55	77
67.245	68.2274	58	86
67.245	68.2274	62	86
67.7187	68.2274	67	80
67.7187	68.2274	79	89
68.1892	68.3652	38	62
68.1892	68.3652	50	69
68.1892	68.6776	69	84
68.1892	68.6776	81	94
68.6583	69.1395	70	80
68.6583	69.1395	82	89
69.121	70.009	50	73
69.121	70.0367	53	73
69.121	70.0367	57	82
69.121	70.009	62	82
69.121	70.0367	69	83
69.121	70.0367	81	93
70.009	70.2071	38	66
70.009	70.2071	50	74
70.009	70.2071	62	76
70.009	70.2071	74	85
70.4845	70.9785	72	87
70.4845	70.9785	84	97
70.96	71.8479	50	73
70.96	71.8895	55	73
70.96	71.8895	58	82
70.96	71.8479	62	82
70.96	71.8895	70	87
70.96	71.8895	82	97
71.8479	72.046	38	66
71.8479	72.046	50	74
71.8479	72.046	62	82
71.8479	72.046	74	92
72.3234	72.8118	70	87
72.3234	72.8118	82	97
72.7933	73.6812	50	74
72.7933	73.7061	53	74
72.7933	73.7061	57	83
72.7933	73.6812	62	83
72.7933	73.7061	69	82
72.7933	73.7061	81	92
73.6812	73.8801	38	65
73.6812	73.8801	50	73
73.6812	73.8801	62	75
73.6812	73.8801	74	84
74.1586	74.6213	62	87
74.1586	75.5771	74	97
74.6213	75.5437	50	75
74.6213	75.5771	55	75
74.6213	75.5771	58	84
74.6213	75.5771	62	84
75.0932	75.5771	67	81
75.0932	75.5771	79	91
75.5437	75.7154	38	66
75.5437	75.7154	50	74
75.5437	76.0209	69	86
75.5437	76.0209	81	96
76.0016	76.4841	70	83
76.0016	76.4841	82	93
76.4658	77.344	50	75
76.4658	77.3683	53	75
76.4658	77.3683	57	84
76.4658	77.344	62	84
76.4658	77.3683	69	88
76.4658	77.3683	81	98
77.344	77.5383	38	66
77.344	77.5383	50	74
77.344	77.5383	62	75
77.344	77.5383	74	84
77.8103	79.1995	69	84
77.8103	79.1995	81	94
78.2677	79.1758	48	72
78.2677	79.1995	52	72
78.2677	79.1995	57	81
78.2677	79.1995	60	81
78.7252	79.1995	72	85
78.7252	79.1995	84	95
79.1758	79.3468	36	63
79.1758	79.3468	48	71
79.1758	79.6523	74	93
79.1758	79.6523	86	104
79.6318	80.1249	76	90
79.6318	80.1249	88	101
80.1249	81.1039	47	74
80.1249	81.0912	56	83
80.1249	81.1039	59	83
80.1249	81.0912	76	97
80.1249	81.0912	88	108
81.0912	82.0445	52	68
81.0912	82.0445	56	76
81.0912	82.0445	64	76
81.0912	82.0445	76	84
81.0912	82.0445	88	94
82.031	83.0639	48	71
82.031	83.0639	60	79
82.031	83.0639	72	86
82.031	83.0639	84	96
82.9578	83.1658	45	65
82.9578	83.1658	57	73
82.9578	83.1658	69	72
82.9578	83.1658	81	81
83.9562	84.9668	35	40
83.9562	84.9547	44	40
83.9562	84.9668	47	40
83.9562	84.9547	64	48
83.9562	84.9547	76	48
84.9547	85.9337	40	37
84.9547	85.9337	44	37
84.9547	85.9337	52	37
84.9547	85.9337	64	48
84.9547	85.9337	76	48
85.9249	86.9522	36	37
85.9249	86.9522	48	37
85.9249	86.9522	60	45
85.9249	86.9522	72	45
86.8593	87.0614	33	37
86.8593	87.0614	45	37
86.8593	87.0614	57	41
86.8593	87.0614	69	41
87.8295	88.7911	34	31
87.8295	88.7911	46	31
87.8295	88.7911	58	34
87.8295	88.7911	70	34
88.7452	88.9248	31	24
88.7452	88.9248	43	24
88.7452	88.9248	55	25
88.7452	88.9248	67	25
89.703	90.6434	34	30
89.703	90.6434	46	30
89.703	90.6434	58	31
89.703	90.6434	70	31
90.6187	90.7968	31	22
90.6187	90.7968	43	22
90.6187	90.7968	55	25
90.6187	90.7968	67	25
91.5686	92.5048	34	30
91.5686	92.5048	46	30
91.5686	92.5048	58	31
91.5686	92.5048	70	31
92.4805	92.655	31	23
92.4805	92.655	43	23
92.4805	92.655	55	24
92.4805	92.655	67	24
93.4111	94.3189	34	31
93.4111	94.3189	46	31
93.4111	94.3189	58	34
93.4111	94.3189	70	34
94.3123	94.4813	31	26
94.3123	94.4813	43	26
94.3123	94.4813	55	29
94.3123	94.4813	67	29
95.2135	95.4319	35	68
95.2135	95.4319	59	80
95.3229	95.5442	47	55
95.3229	95.5442	71	76
95.4319	95.653	35	54
95.4319	95.653	59	72
95.5442	95.7619	47	52
95.5442	95.7619	71	67
95.653	95.8728	35	51
95.653	95.8728	59	63
95.7619	95.9818	47	49
95.7619	95.9818	71	60
95.8728	96.0895	35	48
95.8728	96.0895	59	57
95.9818	96.1989	47	46
95.9818	96.1989	71	54
96.0895	96.3093	35	49
96.0895	96.3093	59	60
96.1989	96.4164	47	48
96.1989	96.4164	71	57
96.3093	96.526	35	47
96.3093	96.526	59	55
96.4164	96.6363	47	45
96.4164	96.6363	71	52
96.526	96.7424	35	51
96.526	96.7424	59	58
96.6363	96.8501	47	47
96.6363	96.8501	71	56
96.7424	96.965	35	44
96.7424	96.965	59	54
96.8501	96.965	47	43
96.8501	96.965	71	51
96.9596	97.1723	32	64
96.9596	97.1723	56	80
97.0658	97.2814	44	53
97.0658	97.2814	68	75
97.1723	97.3894	32	50
97.1723	97.3894	56	69
97.2814	97.4969	44	46
97.2814	97.4969	68	65
97.3894	97.608	32	57
97.3894	97.608	56	61
97.4969	97.7178	44	53
97.4969	97.7178	68	60
97.608	97.8251	32	52
97.608	97.8251	56	59
97.7178	97.9339	44	51
97.7178	97.9339	68	58
97.8251	98.0444	32	59
97.8251	98.0444	56	69
97.9339	98.1528	44	54
97.9339	98.1528	68	68
98.0444	98.2597	32	53
98.0444	98.2597	56	66
98.1528	98.3671	44	39
98.1528	98.3671	68	63
98.2597	98.4752	32	59
98.2597	98.4752	56	73
98.3671	98.5853	44	58
98.3671	98.5853	68	70
98.4752	98.7181	32	56
98.4752	98.7181	56	67
98.5853	98.7181	44	54
98.5853	98.7181	68	64
98.7144	99.377	47	79
98.7144	99.377	59	79
98.7144	99.377	71	99
98.7144	99.377	83	99
99.1615	99.377	44	69
99.1615	99.377	56	69
99.1615	99.377	68	90
99.1615	99.377	80	90
99.6193	100.336	47	79
99.6193	100.336	59	79
99.6193	100.336	71	98
99.6193	100.336	83	98
100.068	100.336	52	69
100.068	100.336	64	69
100.068	100.336	76	93
100.068	100.336	88	93
100.53	101.287	47	75
100.53	101.287	59	75
100.53	101.287	71	95
100.53	101.287	83	95
100.989	101.287	44	70
100.989	101.287	56	70
100.989	101.287	68	90
100.989	101.287	80	90
101.459	102.399	40	69
101.459	102.399	52	69
101.459	102.399	64	90
101.459	102.399	76	90
101.95	102.399	35	60
101.95	102.399	47	60
101.95	102.399	59	81
101.95	102.399	71	81
102.586	106.435	35	27
102.586	106.435	47	27
102.586	104.531	56	34
102.586	104.531	64	34
102.586	104.531	68	34
104.511	106.435	57	38
104.511	106.435	63	38
104.511	106.435	71	38
106.435	106.646	35	81
106.435	106.646	59	93
106.541	106.751	47	50
106.541	106.751	71	87
106.646	107.277	35	63
106.646	107.277	59	81
106.751	107.38	47	48
106.751	107.38	71	75
106.856	107.067	32	72
106.856	107.067	56	91
106.961	107.172	44	52
106.961	107.172	68	86
107.067	109.861	32	58
107.067	108.206	56	81
107.172	108.103	44	46
107.172	108.103	68	75
107.277	107.484	35	72
107.277	107.484	59	84
107.38	107.587	47	53
107.38	107.587	71	80
107.484	109.861	35	60
107.484	108.615	59	77
107.587	108.513	47	45
107.587	108.513	71	73
107.69	107.897	40	72
107.69	107.897	64	88
107.794	108.0	52	53
107.794	108.0	76	85
107.897	109.861	40	62
107.897	109.021	64	83
108.0	108.919	52	48
108.0	108.919	76	80
108.103	108.309	44	77
108.103	108.309	68	91
108.206	108.411	56	60
108.206	108.411	80	88
108.309	109.861	44	68
108.309	109.861	68	86
108.411	109.861	56	55
108.411	109.861	80	83
108.513	108.717	47	79
108.513	108.717	71	94
108.615	108.818	59	57
108.615	108.818	83	91
108.717	109.338	47	66
108.717	109.338	71	88
108.818	109.452	59	51
108.818	109.452	83	84
108.919	109.126	52	88
108.919	109.126	76	102
109.021	109.231	64	57
109.021	109.231	88	96
109.126	109.861	52	74
109.126	109.861	76	90
109.231	109.861	64	57
109.231	109.861	88	84
109.338	109.569	47	73
109.338	109.569	71	82
109.452	109.689	59	48
109.452	109.689	83	71
109.569	109.861	47	58
109.569	109.861	71	68
109.689	109.861	59	47
109.689	109.861	83	64
109.861	113.709	35	37
109.861	113.709	47	37
109.861	111.805	56	39
109.861	111.805	64	39
109.861	111.805	68	39
111.785	113.709	57	47
111.785	113.709	63	47
111.785	113.709	71	47
113.709	114.737	40	20
113.709	114.737	47	20
113.709	114.737	56	34
113.709	114.737	64	40
114.737	115.765	40	19
114.737	115.765	47	19
114.737	115.765	56	26
114.737	115.765	64	30
115.765	116.246	40	20
115.765	116.246	47	20
115.765	116.246	56	39
115.765	116.732	64	39
116.246	116.717	40	16
116.246	116.717	47	16
116.246	116.717	56	34
116.246	116.732	68	34
116.717	117.204	40	19
116.717	117.204	47	19
116.717	117.204	56	38
116.717	117.726	66	38
117.204	117.706	40	15
117.204	117.726	47	15
117.204	117.726	56	35
117.204	117.726	68	35
117.706	118.692	40	23
117.706	118.692	49	23
117.706	118.692	57	39
117.706	118.692	61	39
118.692	119.677	40	17
118.692	119.677	49	17
118.692	119.677	57	28
118.692	119.677	61	28
119.677	120.162	40	20
119.677	120.645	49	20
119.677	120.162	57	38
119.677	120.665	61	38
120.162	120.645	40	15
120.162	120.665	51	15
120.162	120.645	57	31
120.162	120.645	59	31
120.162	120.665	66	31
120.645	121.116	40	19
120.645	121.633	49	19
120.645	121.116	57	37
120.645	121.116	59	37
120.645	121.633	64	37
121.116	121.624	40	15
121.116	121.633	51	15
121.116	121.633	57	29
121.116	121.624	59	29
121.116	121.633	66	29
121.624	122.61	40	23
121.624	123.596	52	23
121.624	122.61	56	36
121.624	123.596	59	36
122.61	123.596	40	17
122.61	123.596	47	17
122.61	123.596	56	24
122.61	123.596	64	29
123.596	124.079	40	23
123.596	124.079	47	23
123.596	124.079	56	46
123.596	124.577	64	46
124.079	124.562	40	18
124.079	124.562	47	18
124.079	124.562	56	38
124.079	124.577	68	38
124.562	125.037	40	24
124.562	125.037	47	24
124.562	125.037	56	46
124.562	125.526	66	46
125.037	125.504	40	18
125.037	125.526	47	18
125.037	125.526	56	39
125.037	125.526	68	39
125.504	126.49	40	25
125.504	126.49	49	25
125.504	126.49	57	46
125.504	126.49	64	46
125.504	126.49	69	46
126.49	127.475	40	19
126.49	127.475	49	19
126.49	127.475	57	38
126.49	127.475	64	38
126.49	127.475	69	38
127.475	129.412	40	30
127.475	129.412	49	36
127.475	128.435	61	51
127.475	128.435	69	51
127.475	128.435	73	51
127.96	129.401	52	33
128.435	129.412	57	37
128.435	128.918	61	50
128.435	129.412	69	50
128.435	129.412	73	50
128.918	129.412	61	39
129.401	130.387	52	26
129.401	130.387	59	26
129.401	130.387	64	34
129.401	130.387	68	34
129.401	130.387	76	40
130.387	131.365	52	20
130.387	131.365	59	20
130.387	131.365	64	26
130.387	131.365	68	26
130.387	131.365	76	31
131.365	131.836	52	22
131.365	131.836	59	22
131.365	132.315	63	38
131.365	131.836	69	38
131.365	132.334	78	38
131.836	132.315	52	18
131.836	132.334	59	18
131.836	132.315	66	31
131.836	132.334	69	31
131.836	132.334	75	31
132.315	132.782	52	20
132.315	133.282	63	20
132.315	133.282	66	36
132.315	133.282	71	36
132.782	133.261	52	18
132.782	133.282	61	18
132.782	133.261	64	31
132.782	133.282	69	31
133.261	134.235	52	24
133.261	134.235	59	24
133.261	134.235	64	29
133.261	134.235	68	35
134.235	135.2	52	15
134.235	135.2	59	15
134.235	135.2	64	19
134.235	135.2	68	23
135.2	135.671	52	22
135.2	135.671	59	22
135.2	136.148	63	37
135.2	135.671	69	37
135.2	136.168	78	37
135.671	136.148	52	17
135.671	136.168	59	17
135.671	136.148	66	30
135.671	136.168	69	30
135.671	136.168	75	30
136.148	136.617	52	20
136.148	137.105	63	20
136.148	137.105	66	35
136.148	137.105	71	35
136.617	137.094	52	18
136.617	137.105	61	18
136.617	137.094	64	30
136.617	137.105	69	30
137.094	138.072	52	24
137.094	138.072	59	29
137.094	138.072	64	29
137.094	138.072	68	35
138.072	139.05	52	15
138.072	139.05	59	15
138.072	139.05	64	19
138.072	139.05	68	23
139.05	139.527	52	25
139.05	140.034	56	25
139.05	139.527	64	35
139.527	140.014	52	23
139.527	140.034	59	23
139.527	140.014	64	26
139.527	140.034	68	31
140.014	140.493	52	25
140.014	141.02	57	25
140.014	140.493	64	29
140.014	141.02	66	35
140.493	141.003	52	24
140.493	141.02	59	24
140.493	141.003	64	27
140.493	141.02	68	33
141.003	141.98	52	25
141.003	141.98	61	25
141.003	141.98	64	28
141.003	142.315	71	34
141.98	142.315	52	15
141.98	142.315	61	15
141.98	142.315	64	18
141.98	142.315	70	24
142.938	143.885	64	22
142.938	143.885	72	22
142.938	143.885	76	44
142.938	144.191	83	44
142.938	143.885	88	44
143.885	144.308	64	8
143.885	144.308	72	9
143.885	144.308	76	27
143.885	144.308	81	27
143.885	144.308	88	27
144.809	145.755	52	25
144.809	145.755	59	25
144.809	145.755	64	34
144.809	146.089	69	34
145.755	146.198	52	9
145.755	146.198	59	11
145.755	146.198	64	24
145.755	146.198	68	24
146.721	147.695	64	22
146.721	147.695	71	22
146.721	147.695	76	42
146.721	148.024	81	42
146.721	147.695	88	42
147.695	148.141	64	11
147.695	148.141	71	11
147.695	148.141	76	26
147.695	148.141	79	26
147.695	148.141	88	26
148.669	149.642	33	62
148.669	149.642	45	62
148.669	149.642	54	70
148.669	149.642	60	70
148.669	149.642	64	88
148.669	149.642	66	88
149.642	150.129	33	45
149.642	150.129	45	45
149.642	150.129	54	55
149.642	150.129	60	55
149.642	150.129	64	69
149.642	150.129	66	69
150.616	151.103	57	39
150.616	151.085	64	39
150.616	151.103	66	39
150.616	151.103	73	46
150.616	151.085	76	46
150.616	151.103	78	55
151.085	151.571	59	34
151.085	151.552	64	34
151.085	151.571	68	34
151.085	151.571	71	37
151.085	151.552	76	37
151.085	151.571	80	46
151.552	152.032	61	37
151.552	152.011	64	37
151.552	152.032	69	42
151.552	152.011	76	42
151.552	152.032	81	50
152.011	152.492	59	36
152.011	152.492	64	36
152.011	152.492	68	36
152.011	152.492	71	37
152.011	152.492	76	37
152.011	152.492	80	46
152.502	153.464	59	36
152.502	153.464	66	36
152.502	153.464	69	36
152.502	153.464	71	50
152.502	153.79	76	50
152.502	153.464	83	50
153.464	153.905	59	17
153.464	153.905	66	17
153.464	153.905	69	17
153.464	153.905	71	26
153.464	153.905	75	33
153.464	153.905	83	26
154.435	155.381	52	27
154.435	155.381	59	27
154.435	155.381	64	30
154.435	155.381	68	37
155.381	155.854	52	23
155.381	155.854	59	16
155.381	155.854	64	23
155.381	155.854	68	23
156.346	157.299	33	67
156.346	157.299	45	67
156.346	157.299	54	72
156.346	157.299	60	72
156.346	157.299	64	91
156.346	157.299	66	91
157.299	157.767	33	49
157.299	157.767	45	49
157.299	157.767	54	52
157.299	157.767	60	52
157.299	157.767	64	67
157.299	157.767	66	67
158.234	158.711	57	39
158.234	158.702	64	39
158.234	158.711	66	39
158.234	158.711	73	46
158.234	158.702	76	46
158.234	158.711	78	55
158.702	159.193	59	36
158.702	159.173	64	36
158.702	159.193	68	36
158.702	159.193	71	41
158.702	159.173	76	41
158.702	159.193	80	49
159.173	159.648	61	39
159.173	159.634	64	39
159.173	159.648	69	44
159.173	159.634	76	44
159.173	159.648	81	53
159.634	160.127	59	36
159.634	160.148	64	36
159.634	160.148	68	36
159.634	160.127	71	39
159.634	160.127	76	39
159.634	160.148	80	47
160.127	161.101	59	36
160.127	161.101	66	36
160.127	161.101	69	36
160.127	161.101	71	42
160.127	161.387	76	50
160.127	161.101	83	50
161.101	161.547	59	17
161.101	161.547	66	17
161.101	161.547	69	17
161.101	161.547	71	26
161.101	161.547	75	33
161.101	161.547	83	27
162.075	163.048	40	84
162.075	163.048	52	103
162.075	163.048	64	103
163.048	163.495	40	52
163.048	163.495	52	47
163.048	163.495	64	66
164.022	164.498	40	22
164.022	164.498	47	22
164.022	164.498	56	36
164.022	164.987	59	36
164.498	164.967	40	17
164.498	164.967	47	17
164.498	164.967	56	30
164.498	164.987	68	30
164.967	165.432	40	20
164.967	165.432	47	20
164.967	165.432	56	37
164.967	165.955	66	37
165.432	165.938	40	16
165.432	165.955	47	16
165.432	165.955	56	30
165.432	165.938	68	30
165.938	166.862	40	16
165.938	166.862	48	16
165.938	166.862	60	24
165.938	166.949	68	39
165.938	166.949	71	39
166.862	167.1	40	8
166.862	167.1	48	8
166.862	167.1	60	22
166.862	167.1	66	23
166.862	167.1	69	23
167.812	168.747	40	23
167.812	168.747	51	23
167.812	168.747	59	29
167.812	168.902	68	39
167.812	168.902	71	39
168.747	168.992	40	9
168.747	168.992	51	9
168.747	168.992	59	19
168.747	168.992	66	23
168.747	168.992	69	23
169.725	170.675	40	82
169.725	170.675	52	82
169.725	170.675	64	103
169.725	170.675	76	103
170.675	171.162	40	44
170.675	171.162	52	44
170.675	171.162	64	60
170.675	171.162	76	68
171.649	172.126	40	25
171.649	172.126	47	25
171.649	172.126	56	38
171.649	172.616	59	38
172.126	172.597	40	18
172.126	172.597	47	18
172.126	172.597	56	31
172.126	172.616	68	31
172.597	173.062	40	25
172.597	173.062	47	25
172.597	173.062	56	38
172.597	173.585	66	38
173.062	173.568	40	17
173.062	173.585	47	17
173.062	173.585	56	31
173.062	173.585	68	31
173.568	174.476	40	24
173.568	174.555	45	24
173.568	174.476	61	37
173.568	174.476	69	44
173.568	174.555	73	44
174.476	174.71	40	13
174.476	174.71	49	18
174.476	174.71	61	23
174.476	174.71	66	26
174.476	174.71	69	26
175.412	176.32	40	25
175.412	176.344	47	25
175.412	176.32	59	35
175.412	176.344	68	41
175.412	176.344	71	41
176.32	176.551	40	16
176.32	176.551	51	22
176.32	176.551	59	27
176.32	176.551	66	29
176.32	176.551	69	29
177.243	178.137	40	25
177.243	178.137	52	25
177.243	178.137	59	35
177.243	178.137	64	35
177.243	178.173	69	41
178.137	178.357	40	5
178.137	178.357	52	14
178.137	178.357	59	26
178.137	178.357	64	26
178.137	178.357	67	29
179.018	179.916	45	25
179.018	179.916	48	25
179.018	179.916	57	36
179.018	179.916	60	36
179.018	179.977	67	42
179.916	180.135	45	14
179.916	180.135	48	14
179.916	180.135	57	27
179.916	180.135	60	26
179.916	180.135	65	29
180.793	181.691	48	25
180.793	181.691	55	36
180.793	181.691	60	36
180.793	181.727	65	42
181.691	181.916	48	16
181.691	181.916	55	26
181.691	181.916	60	26
181.691	181.916	64	29
182.592	183.49	38	25
182.592	183.49	50	25
182.592	183.49	53	36
182.592	183.49	57	36
182.592	183.516	64	42
183.49	183.714	38	15
183.49	183.714	50	15
183.49	183.714	53	25
183.49	183.714	57	25
183.49	183.714	62	29
184.388	185.324	40	24
184.388	185.344	45	24
184.388	185.324	52	35
184.388	185.324	57	35
184.388	185.344	62	41
185.324	185.567	40	14
185.324	186.314	52	39
185.324	185.567	57	24
185.324	185.567	60	29
186.294	187.24	51	37
187.22	187.458	52	35
190.084	191.058	40	19
190.084	191.078	47	33
190.084	191.077	57	29
190.084	191.058	59	41
191.058	191.496	40	12
191.058	192.033	52	39
191.058	191.496	56	29
191.058	191.496	59	29
192.013	192.966	51	37
192.946	193.19	52	35
195.869	196.892	57	42
195.869	196.892	69	50
196.871	197.89	64	42
196.871	197.89	76	50
197.87	198.86	63	44
197.87	198.86	75	53
198.84	199.045	64	38
198.84	199.045	76	47
199.333	199.847	60	39
199.333	199.847	72	49
199.707	199.853	59	39
199.707	199.853	71	47
199.833	200.795	57	38
199.833	200.795	69	48
200.783	201.802	52	52
200.783	201.802	56	59
200.783	201.802	59	59
200.783	201.802	64	59
201.786	203.044	48	47
201.786	203.044	60	52
202.768	203.044	45	39
202.768	203.044	57	51
203.781	204.802	45	42
203.781	204.784	57	50
204.784	205.772	38	45
204.784	205.772	57	63
204.784	205.772	65	63
205.754	206.681	37	50
205.754	206.681	58	70
205.754	206.681	67	70
206.681	206.89	38	42
206.681	206.89	57	54
206.681	206.89	65	54
207.177	207.686	45	44
207.177	207.686	57	51
207.55	207.697	47	45
207.55	207.697	59	54
207.676	208.662	48	45
207.676	208.662	60	52
208.651	209.668	40	52
208.651	209.668	52	62
208.651	209.668	56	62
208.651	209.668	59	62
208.651	209.668	64	62
209.653	210.801	36	45
209.653	210.801	48	50
209.653	210.801	60	50
210.636	210.849	33	41
210.636	210.849	45	50
210.636	210.849	57	50
211.658	212.707	38	35
211.658	212.707	41	35
211.658	212.707	45	35
212.64	212.765	33	33
213.642	214.667	36	36
213.642	214.667	40	36
213.642	214.667	45	36
214.609	214.733	33	35
215.106	216.598	57	52
215.587	216.598	38	36
215.587	216.598	41	36
215.587	216.598	45	36
216.055	216.598	62	46
216.521	216.639	33	34
216.521	217.014	64	49
216.994	217.492	65	47
217.473	218.456	36	36
217.473	218.456	40	36
217.473	218.456	45	36
217.473	218.456	64	50
218.392	218.594	33	34
218.392	218.594	57	46
218.879	219.376	67	47
219.358	220.295	38	37
219.358	220.295	41	37
219.358	220.295	45	37
219.358	220.295	65	47
220.255	220.461	33	35
220.255	220.461	57	48
220.748	221.234	65	45
221.216	222.206	36	36
221.216	222.206	40	36
221.216	222.206	45	36
221.216	222.206	64	50
222.114	222.315	33	33
222.114	222.315	57	48
222.597	223.054	57	56
222.597	224.07	69	56
223.054	224.07	50	51
223.054	224.07	53	51
223.054	224.07	57	51
223.517	224.07	62	57
223.517	224.07	74	57
223.973	224.09	45	35
223.973	224.462	64	60
223.973	224.462	76	60
224.442	224.934	65	56
224.442	224.934	77	56
224.915	225.865	48	41
224.915	225.865	52	41
224.915	225.81	57	41
224.915	225.865	64	60
224.915	225.865	76	60
225.81	226.007	45	36
225.81	226.007	57	56
225.81	226.007	69	56
226.283	227.679	64	68
226.283	227.679	76	68
226.734	227.679	47	57
226.734	227.679	52	57
226.734	227.679	55	57
227.197	227.679	67	74
227.197	227.679	79	74
227.646	227.819	43	54
227.646	228.129	69	77
227.646	228.129	81	77
228.109	228.588	71	73
228.109	228.588	83	73
228.588	229.571	42	59
228.588	229.562	51	59
228.588	229.571	54	66
228.588	229.562	71	85
228.588	229.562	83	85
229.562	230.526	47	49
229.562	230.526	51	49
229.562	230.526	59	55
229.562	230.526	71	71
229.562	230.526	83	71
230.509	231.462	43	49
230.509	231.462	55	49
230.509	231.462	67	57
230.509	231.462	79	57
231.436	231.639	40	42
231.436	231.639	52	42
231.436	231.639	64	53
231.436	231.639	76	53
232.41	233.393	30	26
232.41	233.381	39	26
232.41	233.393	42	26
232.41	233.381	59	41
232.41	233.381	71	41
233.381	234.341	35	24
233.381	234.341	39	24
233.381	234.341	47	24
233.381	234.341	59	37
233.381	234.341	71	37
234.332	235.295	31	30
234.332	235.295	43	30
234.332	235.295	55	37
234.332	235.295	67	37
235.27	235.471	28	27
235.27	235.471	40	27
235.27	235.471	52	33
235.27	235.471	64	33
236.236	237.226	40	30
236.236	237.099	55	37
236.236	237.099	67	37
237.099	237.208	52	33
237.099	237.208	64	33
237.208	237.335	41	30
237.317	237.444	40	26
237.425	237.553	41	30
237.535	237.663	40	24
237.644	237.773	41	30
237.755	237.881	40	25
237.863	237.991	41	30
237.973	238.098	40	31
237.973	238.83	53	48
237.973	238.83	65	48
238.08	238.204	41	28
238.186	238.311	40	31
238.294	238.418	41	31
238.4	238.525	40	34
238.508	238.631	41	30
238.613	238.739	40	34
238.721	238.848	41	29
238.83	238.958	40	34
238.83	238.94	50	43
238.83	238.94	62	43
238.94	239.068	41	28
239.05	239.177	40	34
239.159	239.287	41	29
239.269	239.395	40	34
239.377	239.505	41	29
239.486	239.616	40	34
239.598	239.725	41	30
239.707	239.831	40	39
239.707	240.562	52	58
239.707	240.562	64	58
239.813	239.938	41	33
239.92	240.044	40	39
240.026	240.152	41	33
240.134	240.258	40	39
240.24	240.364	41	33
240.346	240.472	40	40
240.454	240.58	41	35
240.562	240.69	40	40
240.562	240.672	48	50
240.562	240.672	60	50
240.672	240.802	41	35
240.784	240.911	40	41
240.893	241.024	41	34
241.005	241.133	40	41
241.115	241.247	41	36
241.228	241.359	40	42
241.341	241.47	41	37
241.452	241.579	40	47
241.452	242.342	50	73
241.452	242.342	62	73
241.56	241.689	41	39
241.671	241.798	40	47
241.78	241.908	41	39
241.89	242.017	40	48
241.998	242.129	41	40
242.11	242.245	40	48
242.226	242.361	41	42
242.342	242.478	40	49
242.342	242.458	47	67
242.342	242.458	59	67
242.458	242.594	41	43
242.575	242.711	40	54
242.692	242.829	41	48
242.809	242.948	40	62
242.928	243.069	41	63
243.049	243.203	40	71
243.179	243.373	44	79
243.351	244.383	33	78
243.351	244.383	45	78
243.351	244.383	57	98
243.351	244.383	69	98
244.363	245.381	40	75
244.363	245.381	52	75
244.363	245.381	64	88
244.363	245.381	76	88
245.361	246.317	39	72
245.361	246.317	51	72
245.361	246.317	63	84
245.361	246.317	75	84
246.317	246.566	40	67
246.317	246.566	52	67
246.317	246.566	64	77
246.317	246.566	76	77
246.815	247.181	52	48
246.815	247.162	64	67
246.815	247.181	72	80
247.162	247.247	50	46
247.162	247.247	62	46
247.162	247.247	64	48
247.162	247.247	71	73
247.276	247.634	48	48
247.276	247.634	60	48
247.276	247.634	64	63
247.276	247.634	69	80
247.623	247.708	47	46
247.623	247.708	59	46
247.623	247.708	62	63
247.623	247.708	67	73
247.736	248.106	45	43
247.736	248.106	57	43
247.736	248.106	60	63
247.736	248.106	65	72
248.082	248.167	44	42
248.082	248.167	56	42
248.082	248.167	59	58
248.082	248.167	64	70
248.195	248.556	45	46
248.195	248.556	57	46
248.195	248.556	60	64
248.195	248.556	65	75
248.54	248.625	43	40
248.54	248.625	55	40
248.54	248.625	59	57
248.54	248.625	64	70
248.653	249.039	41	46
248.653	249.039	53	46
248.653	249.039	57	64
248.653	249.039	62	75
248.998	249.083	40	42
248.998	249.083	52	42
248.998	249.083	55	58
248.998	249.083	61	70
249.111	249.469	41	48
249.111	249.469	53	48
249.111	249.469	57	78
249.111	249.469	62	78
249.454	249.538	44	46
249.454	249.538	56	46
249.454	249.538	59	63
249.454	249.538	64	73
249.566	249.928	45	48
249.566	249.928	57	48
249.566	249.928	60	78
249.566	249.928	65	78
249.907	249.99	47	46
249.907	249.99	59	46
249.907	249.99	62	63
249.907	249.99	68	73
250.018	250.376	48	52
250.018	250.376	60	52
250.018	250.358	64	70
250.018	250.376	69	84
250.358	250.441	50	48
250.358	250.441	62	48
250.358	250.441	64	67
250.358	250.441	71	80
250.469	250.599	48	53
250.469	250.599	60	53
250.469	250.599	64	71
250.469	250.599	69	86
250.989	252.007	45	90
250.989	252.007	57	97
252.007	253.0	38	86
252.007	252.981	45	86
252.007	253.0	57	85
252.007	253.0	65	85
252.007	253.0	69	85
252.981	253.931	37	71
252.981	254.188	45	71
252.981	253.931	58	90
252.981	253.931	67	90
252.981	253.931	70	90
253.931	254.188	38	71
253.931	254.188	57	80
253.931	254.188	65	80
253.931	254.188	69	80
254.445	254.799	57	53
254.445	254.791	69	73
254.445	254.799	77	89
254.791	254.875	55	52
254.791	254.875	67	52
254.791	254.875	69	53
254.791	254.875	76	84
254.904	255.267	53	48
254.904	255.267	65	48
254.904	255.267	69	70
254.904	255.267	74	80
255.248	255.333	52	46
255.248	255.333	64	46
255.248	255.333	67	63
255.248	255.333	72	73
255.361	255.72	50	43
255.361	255.72	62	43
255.361	255.72	65	63
255.361	255.72	70	72
255.704	255.788	49	42
255.704	255.788	61	42
255.704	255.788	64	58
255.704	255.788	69	70
255.816	256.18	50	46
255.816	256.18	62	46
255.816	256.18	65	73
255.816	256.18	70	73
256.158	256.242	48	40
256.158	256.242	60	40
256.158	256.242	64	57
256.158	256.242	69	70
256.27	256.629	46	46
256.27	256.629	58	46
256.27	256.629	62	72
256.27	256.629	67	72
256.61	256.694	45	42
256.61	256.694	57	42
256.61	256.694	60	58
256.61	256.694	66	70
256.722	257.085	46	48
256.722	257.085	58	48
256.722	257.085	62	76
256.722	257.085	67	76
257.061	257.146	49	46
257.061	257.146	61	46
257.061	257.146	64	63
257.061	257.146	69	73
257.174	257.519	50	48
257.174	257.519	62	48
257.174	257.519	65	77
257.174	257.519	70	77
257.51	257.592	52	46
257.51	257.592	64	46
257.51	257.592	67	63
257.51	257.592	73	73
257.62	257.977	53	52
257.62	257.977	65	52
257.62	257.956	69	79
257.62	257.977	74	79
257.956	258.038	55	48
257.956	258.038	67	48
257.956	258.038	69	67
257.956	258.038	76	80
258.066	258.192	53	53
258.066	258.192	65	53
258.066	258.192	69	71
258.066	258.192	74	86
258.57	259.536	50	88
258.57	259.558	55	88
258.57	259.558	58	98
258.57	259.558	62	98
259.536	259.724	38	72
259.536	259.724	50	81
260.539	261.493	50	87
260.539	261.504	53	87
260.539	261.504	57	97
260.539	261.504	62	97
261.493	261.676	38	72
261.493	261.676	50	81
261.982	262.458	62	83
261.982	263.427	74	93
262.458	263.389	50	75
262.458	263.427	55	75
262.458	263.427	58	84
262.458	263.427	62	84
262.928	263.427	67	80
262.928	263.427	79	89
263.389	263.564	38	62
263.389	263.564	50	69
263.389	263.876	69	84
263.389	263.876	81	94
263.856	264.348	70	81
263.856	264.348	82	91
264.329	265.217	50	73
264.329	265.245	53	73
264.329	265.245	57	82
264.329	265.217	62	82
264.329	265.245	69	83
264.329	265.245	81	93
265.217	265.415	38	66
265.217	265.415	50	74
265.217	265.415	62	76
265.217	265.415	74	85
265.693	266.187	72	87
265.693	266.187	84	97
266.168	267.056	50	73
266.168	267.098	55	73
266.168	267.098	58	82
266.168	267.056	62	82
266.168	267.098	70	87
266.168	267.098	82	97
267.056	267.254	38	66
267.056	267.254	50	74
267.056	267.254	62	82
267.056	267.254	74	92
267.532	268.02	70	87
267.532	268.02	82	97
268.001	268.889	50	74
268.001	268.914	53	74
268.001	268.914	57	83
268.001	268.889	62	83
268.001	268.914	69	82
268.001	268.914	81	92
268.889	269.088	38	65
268.889	269.088	50	73
268.889	269.088	62	75
268.889	269.088	74	84
269.367	269.83	62	87
269.367	270.785	74	97
269.83	270.752	50	75
269.83	270.785	55	75
269.83	270.785	58	84
269.83	270.785	62	84
270.301	270.785	67	82
270.301	270.785	79	92
270.752	270.924	38	66
270.752	270.924	50	74
270.752	271.229	69	87
270.752	271.229	81	97
271.21	271.693	70	82
271.21	271.693	82	92
271.675	272.553	50	75
271.675	272.578	53	75
271.675	272.578	57	84
271.675	272.553	62	84
271.675	272.578	69	89
271.675	272.578	81	99
272.553	272.748	38	66
272.553	272.748	50	74
272.553	272.748	62	75
272.553	272.748	74	84
273.02	274.411	69	85
273.02	274.411	81	95
273.477	274.387	48	72
273.477	274.411	52	72
273.477	274.411	57	81
273.477	274.411	60	81
273.931	274.411	72	82
273.931	274.411	84	92
274.387	274.558	36	63
274.387	274.558	48	71
274.387	274.864	74	91
274.387	274.864	86	102
274.843	275.336	76	94
274.843	275.336	88	105
275.336	276.315	47	76
275.336	276.303	56	85
275.336	276.315	59	85
275.336	276.303	76	96
275.336	276.303	88	107
276.303	277.262	52	76
276.303	277.262	56	85
276.303	277.262	64	85
276.303	277.262	76	84
276.303	277.262	88	94
277.249	278.281	48	73
277.249	278.281	60	82
277.249	278.281	72	80
277.249	278.281	84	89
278.175	278.383	45	65
278.175	278.383	57	73
278.175	278.383	69	72
278.175	278.383	81	81
279.174	280.184	35	40
279.174	280.172	44	40
279.174	280.184	47	40
279.174	280.172	64	48
279.174	280.172	76	48
280.172	281.151	40	37
280.172	281.151	44	37
280.172	281.151	52	37
280.172	281.151	64	48
280.172	281.151	76	48
281.142	282.17	36	37
281.142	282.17	48	37
281.142	282.17	60	45
281.142	282.17	72	45
282.077	282.259	33	37
282.077	282.259	45	37
282.077	282.259	57	41
282.077	282.259	69	41
283.047	284.004	34	31
283.047	284.004	46	31
283.047	284.004	58	34
283.047	284.004	70	34
283.959	284.136	31	24
283.959	284.136	43	24
283.959	284.136	55	25
283.959	284.136	67	25
284.905	285.841	34	30
284.905	285.841	46	30
284.905	285.841	58	31
284.905	285.841	70	31
285.817	285.993	31	22
285.817	285.993	43	22
285.817	285.993	55	25
285.817	285.993	67	25
286.755	287.688	34	30
286.755	287.688	46	30
286.755	287.688	58	31
286.755	287.688	70	31
287.664	287.838	31	23
287.664	287.838	43	23
287.664	287.838	55	24
287.664	287.838	67	24
288.594	289.484	34	31
288.594	289.484	46	31
288.594	289.484	58	34
288.594	289.484	70	34
289.478	289.647	31	26
289.478	289.647	43	26
289.478	289.647	55	29
289.478	289.647	67	29
290.379	290.596	35	72
290.379	290.596	59	80
290.488	290.708	47	31
290.488	290.708	71	76
290.596	290.816	35	42
290.596	290.816	59	72
290.708	290.925	47	30
290.708	290.925	71	67
290.816	291.035	35	46
290.816	291.035	59	63
290.925	291.143	47	33
290.925	291.143	71	60
291.035	291.25	35	44
291.035	291.25	59	57
291.143	291.359	47	31
291.143	291.359	71	54
291.25	291.469	35	45
291.25	291.469	59	60
291.359	291.576	47	33
291.359	291.576	71	57
291.469	291.685	35	44
291.469	291.685	59	55
291.576	291.794	47	31
291.576	291.794	71	52
291.685	291.9	35	51
291.685	291.9	59	58
291.794	292.007	47	37
291.794	292.007	71	56
291.9	292.121	35	47
291.9	292.121	59	54
292.007	292.121	47	33
292.007	292.121	71	51
292.116	292.327	32	74
292.116	292.327	56	80
292.222	292.436	44	37
292.222	292.436	68	75
292.327	292.543	32	47
292.327	292.543	56	69
292.436	292.65	44	37
292.436	292.65	68	65
292.543	292.761	32	52
292.543	292.761	56	61
292.65	292.87	44	39
292.65	292.87	68	60
292.761	292.977	32	49
292.761	292.977	56	59
292.87	293.085	44	38
292.87	293.085	68	58
292.977	293.195	32	55
292.977	293.195	56	69
293.085	293.303	44	39
293.085	293.303	68	68
293.195	293.411	32	51
293.195	293.411	56	66
293.303	293.52	44	39
293.303	293.52	68	63
293.411	293.63	32	66
293.411	293.63	56	73
293.52	293.742	44	52
293.52	293.742	68	70
293.63	293.874	32	57
293.63	293.874	56	67
293.742	293.874	44	46
293.742	293.874	68	64
293.87	294.529	47	79
293.87	294.529	59	79
293.87	294.529	71	99
293.87	294.529	83	99
294.315	294.529	44	69
294.315	294.529	56	69
294.315	294.529	68	90
294.315	294.529	80	90
294.77	295.488	47	79
294.77	295.488	59	79
294.77	295.488	71	96
294.77	295.488	83	96
295.219	295.488	52	69
295.219	295.488	64	69
295.219	295.488	76	90
295.219	295.488	88	90
295.682	296.439	47	70
295.682	296.439	59	70
295.682	296.439	71	89
295.682	296.439	83	89
296.141	296.439	44	63
296.141	296.439	56	63
296.141	296.439	68	82
296.141	296.439	80	82
296.611	297.493	40	54
296.611	297.493	52	54
296.611	297.493	64	65
296.611	297.493	76	65
297.102	297.493	35	44
297.102	297.493	47	44
297.102	297.493	59	53
297.102	297.493	71	53
297.655	301.505	35	27
297.655	301.505	47	27
297.655	299.6	56	34
297.655	299.6	64	34
297.655	299.6	68	34
299.58	301.505	57	38
299.58	301.505	63	38
299.58	301.505	71	38
301.505	301.715	35	81
301.505	301.715	59	93
301.61	301.82	47	38
301.61	301.82	71	87
301.715	302.346	35	58
301.715	302.346	59	81
301.82	302.45	47	38
301.82	302.45	71	75
301.926	302.136	32	72
301.926	302.136	56	91
302.031	302.241	44	38
302.031	302.241	68	86
302.136	304.931	32	57
302.136	303.275	56	81
302.241	303.172	44	38
302.241	303.172	68	75
302.346	302.553	35	72
302.346	302.553	59	84
302.45	302.656	47	40
302.45	302.656	71	80
302.553	304.931	35	60
302.553	303.684	59	77
302.656	303.583	47	41
302.656	303.583	71	73
302.76	302.966	40	72
302.76	302.966	64	88
302.863	303.069	52	45
302.863	303.069	76	85
302.966	304.931	40	61
302.966	304.09	64	83
303.069	303.988	52	45
303.069	303.988	76	80
303.172	303.378	44	77
303.172	303.378	68	91
303.275	303.48	56	49
303.275	303.48	80	88
303.378	304.931	44	66
303.378	304.931	68	86
303.48	304.931	56	51
303.48	304.931	80	83
303.583	303.786	47	79
303.583	303.786	71	94
303.684	303.887	59	53
303.684	303.887	83	91
303.786	304.408	47	72
303.786	304.408	71	88
303.887	304.521	59	55
303.887	304.521	83	84
303.988	304.195	52	88
303.988	304.195	76	102
304.09	304.3	64	57
304.09	304.3	88	96
304.195	304.931	52	74
304.195	304.931	76	90
304.3	304.931	64	57
304.3	304.931	88	84
304.408	304.638	47	73
304.408	304.638	71	82
304.521	304.758	59	48
304.521	304.758	83	71
304.638	304.931	47	58
304.638	304.931	71	68
304.758	304.931	59	47
304.758	304.931	83	64
304.931	308.781	35	28
304.931	308.781	47	28
304.931	306.876	56	35
304.931	306.876	64	35
304.931	306.876	68	35
306.856	308.781	57	36
306.856	308.781	63	36
306.856	308.781	71	43
308.781	309.809	40	20
308.781	309.809	47	20
308.781	309.809	56	34
308.781	309.809	64	40
309.809	310.837	40	17
309.809	310.837	47	17
309.809	310.837	56	23
309.809	310.837	64	27
310.837	311.318	40	20
310.837	311.318	47	20
310.837	311.318	56	39
310.837	311.805	64	39
311.318	311.789	40	16
311.318	311.789	47	16
311.318	311.789	56	34
311.318	311.805	68	34
311.789	312.279	40	19
311.789	312.279	47	19
311.789	312.279	56	38
311.789	312.8	66	38
312.279	312.78	40	15
312.279	312.8	47	15
312.279	312.8	56	35
312.279	312.8	68	35
312.78	313.766	40	23
312.78	313.766	49	23
312.78	313.766	57	39
312.78	313.766	61	39
313.766	314.752	40	15
313.766	314.752	49	15
313.766	314.752	57	25
313.766	314.752	61	25
314.752	315.229	40	20
314.752	315.7	49	20
314.752	315.229	57	38
314.752	315.719	61	38
315.229	315.7	40	15
315.229	315.719	51	15
315.229	315.7	57	31
315.229	315.7	59	31
315.229	315.719	66	31
315.7	316.165	40	19
315.7	316.682	49	19
315.7	316.165	57	37
315.7	316.165	59	37
315.7	316.682	64	37
316.165	316.673	40	15
316.165	316.682	51	15
316.165	316.682	57	29
316.165	316.673	59	29
316.165	316.682	66	29
316.673	317.658	40	23
316.673	318.644	52	23
316.673	317.658	56	36
316.673	318.644	59	36
317.658	318.644	40	17
317.658	318.644	47	17
317.658	318.644	56	24
317.658	318.644	64	29
318.644	319.127	40	23
318.644	319.127	47	23
318.644	319.127	56	46
318.644	319.625	64	46
319.127	319.61	40	18
319.127	319.61	47	18
319.127	319.61	56	36
319.127	319.625	68	36
319.61	320.085	40	24
319.61	320.085	47	24
319.61	320.085	56	45
319.61	320.575	66	45
320.085	320.552	40	18
320.085	320.575	47	18
320.085	320.575	56	39
320.085	320.575	68	39
320.552	321.538	40	25
320.552	321.538	49	25
320.552	321.538	57	42
320.552	321.538	64	42
320.552	321.538	69	42
321.538	322.524	40	19
321.538	322.524	49	19
321.538	322.524	57	37
321.538	322.524	64	37
321.538	322.524	69	37
322.524	324.46	40	30
322.524	324.46	49	36
322.524	323.484	61	40
322.524	323.484	69	40
322.524	323.484	73	48
323.009	324.45	52	33
323.484	324.46	57	37
323.484	323.967	61	40
323.484	324.46	69	40
323.484	324.46	73	48
323.967	324.46	61	39
324.45	325.436	52	26
324.45	325.436	59	26
324.45	325.436	64	34
324.45	325.436	68	34
324.45	325.436	76	40
325.436	326.414	52	17
325.436	326.414	59	17
325.436	326.414	64	23
325.436	326.414	68	23
325.436	326.414	76	27
326.414	326.885	52	22
326.414	326.885	59	22
326.414	327.364	63	38
326.414	326.885	69	38
326.414	327.383	78	38
326.885	327.364	52	18
326.885	327.383	59	18
326.885	327.364	66	31
326.885	327.383	69	31
326.885	327.383	75	31
327.364	327.831	52	20
327.364	328.331	63	20
327.364	328.331	66	36
327.364	328.331	71	36
327.831	328.31	52	18
327.831	328.331	61	18
327.831	328.31	64	31
327.831	328.331	69	31
328.31	329.283	52	24
328.31	329.283	59	24
328.31	329.283	64	29
328.31	329.283	68	35
329.283	330.249	52	15
329.283	330.249	59	15
329.283	330.249	64	19
329.283	330.249	68	23
330.249	330.72	52	22
330.249	330.72	59	22
330.249	331.195	63	37
330.249	330.72	69	37
330.249	331.214	78	37
330.72	331.195	52	17
330.72	331.214	59	17
330.72	331.195	66	30
330.72	331.214	69	30
330.72	331.214	75	30
331.195	331.658	52	20
331.195	332.152	63	20
331.195	332.152	66	35
331.195	332.152	71	35
331.658	332.141	52	18
331.658	332.152	61	18
331.658	332.141	64	30
331.658	332.152	69	30
332.141	333.119	52	24
332.141	333.119	59	29
332.141	333.119	64	29
332.141	333.119	68	35
333.119	334.097	52	15
333.119	334.097	59	15
333.119	334.097	64	19
333.119	334.097	68	23
334.097	334.574	52	25
334.097	335.081	56	25
334.097	334.574	64	35
334.574	335.061	52	23
334.574	335.081	59	23
334.574	335.061	64	26
334.574	335.081	68	31
335.061	335.54	52	25
335.061	336.067	57	25
335.061	335.54	64	29
335.061	336.067	66	35
335.54	336.05	52	24
335.54	336.067	59	24
335.54	336.05	64	27
335.54	336.067	68	33
336.05	337.028	52	25
336.05	337.028	61	25
336.05	337.028	64	28
336.05	337.362	71	34
337.028	337.362	52	15
337.028	337.362	61	15
337.028	337.362	64	18
337.028	337.362	70	24
337.986	338.932	64	22
337.986	338.932	72	22
337.986	338.932	76	41
337.986	339.238	83	41
337.986	338.932	88	41
338.932	339.356	64	8
338.932	339.356	72	9
338.932	339.356	76	25
338.932	339.356	81	25
338.932	339.356	88	25
339.856	340.803	52	25
339.856	340.803	59	25
339.856	340.803	64	34
339.856	341.137	69	34
340.803	341.245	52	9
340.803	341.245	59	11
340.803	341.245	64	24
340.803	341.245	68	24
341.768	342.742	64	22
341.768	342.742	71	22
341.768	342.742	76	42
341.768	343.072	81	42
341.768	342.742	88	42
342.742	343.188	64	11
342.742	343.188	71	11
342.742	343.188	76	25
342.742	343.188	79	25
342.742	343.188	88	25
343.716	344.666	33	58
343.716	344.666	45	64
343.716	344.666	54	78
343.716	344.666	60	78
343.716	344.666	64	86
343.716	344.666	66	86
344.666	345.151	33	39
344.666	345.151	45	44
344.666	345.151	54	59
344.666	345.151	60	59
344.666	345.151	64	67
344.666	345.151	66	67
345.636	346.123	57	39
345.636	346.105	64	39
345.636	346.123	66	39
345.636	346.123	73	46
345.636	346.105	76	46
345.636	346.123	78	55
346.105	346.583	59	34
346.105	346.564	64	34
346.105	346.583	68	34
346.105	346.583	71	37
346.105	346.564	76	37
346.105	346.583	80	46
346.564	347.044	61	37
346.564	347.024	64	37
346.564	347.044	69	42
346.564	347.024	76	42
346.564	347.044	81	50
347.024	347.504	59	36
347.024	347.504	64	36
347.024	347.504	68	36
347.024	347.504	71	37
347.024	347.504	76	37
347.024	347.504	80	46
347.514	348.476	59	36
347.514	348.476	66	36
347.514	348.476	69	36
347.514	348.476	71	50
347.514	348.802	76	50
347.514	348.476	83	50
348.476	348.917	59	17
348.476	348.917	66	17
348.476	348.917	69	17
348.476	348.917	71	26
348.476	348.917	75	33
348.476	348.917	83	26
349.448	350.394	52	27
349.448	350.394	59	27
349.448	350.394	64	30
349.448	350.394	68	37
350.394	350.867	52	23
350.394	350.867	59	16
350.394	350.867	64	23
350.394	350.867	68	23
351.358	352.312	33	58
351.358	352.312	45	64
351.358	352.312	54	79
351.358	352.312	60	79
351.358	352.312	64	89
351.358	352.312	66	89
352.312	352.779	33	42
352.312	352.779	45	48
352.312	352.779	54	59
352.312	352.779	60	59
352.312	352.779	64	67
352.312	352.779	66	67
353.247	353.723	57	39
353.247	353.714	64	39
353.247	353.723	66	39
353.247	353.723	73	46
353.247	353.714	76	46
353.247	353.723	78	55
353.714	354.205	59	36
353.714	354.185	64	36
353.714	354.205	68	36
353.714	354.205	71	41
353.714	354.185	76	41
353.714	354.205	80	49
354.185	354.66	61	39
354.185	354.647	64	39
354.185	354.66	69	44
354.185	354.647	76	44
354.185	354.66	81	53
354.647	355.139	59	36
354.647	355.16	64	36
354.647	355.16	68	36
354.647	355.139	71	39
354.647	355.139	76	39
354.647	355.16	80	47
355.139	356.113	59	36
355.139	356.113	66	36
355.139	356.113	69	36
355.139	356.113	71	42
355.139	356.399	76	50
355.139	356.113	83	50
356.113	356.559	59	17
356.113	356.559	66	17
356.113	356.559	69	17
356.113	356.559	71	26
356.113	356.559	75	33
356.113	356.559	83	27
357.087	358.037	40	86
357.087	358.037	52	104
357.087	358.037	64	104
358.037	358.481	40	70
358.037	358.481	52	74
358.037	358.481	64	83
359.007	359.483	40	22
359.007	359.483	47	22
359.007	359.483	56	36
359.007	359.971	59	36
359.483	359.952	40	17
359.483	359.952	47	17
359.483	359.952	56	30
359.483	359.971	68	30
359.952	360.419	40	20
359.952	360.419	47	20
359.952	360.419	56	37
359.952	360.942	66	37
360.419	360.925	40	16
360.419	360.942	47	16
360.419	360.942	56	30
360.419	360.925	68	30
360.925	361.849	40	16
360.925	361.849	48	16
360.925	361.849	60	24
360.925	361.936	68	39
360.925	361.936	71	39
361.849	362.086	40	8
361.849	362.086	48	8
361.849	362.086	60	22
361.849	362.086	66	23
361.849	362.086	69	23
362.799	363.734	40	23
362.799	363.734	51	23
362.799	363.734	59	29
362.799	363.889	68	39
362.799	363.889	71	39
363.734	363.979	40	9
363.734	363.979	51	9
363.734	363.979	59	19
363.734	363.979	66	23
363.734	363.979	69	23
364.712	365.67	40	86
364.712	365.67	52	86
364.712	365.67	64	105
364.712	365.67	76	105
365.67	366.159	40	59
365.67	366.159	52	66
365.67	366.159	64	61
365.67	366.159	76	69
366.648	367.125	40	25
366.648	367.125	47	25
366.648	367.125	56	38
366.648	367.615	59	38
367.125	367.596	40	18
367.125	367.596	47	18
367.125	367.596	56	31
367.125	367.615	68	31
367.596	368.061	40	25
367.596	368.061	47	25
367.596	368.061	56	38
367.596	368.584	66	38
368.061	368.567	40	17
368.061	368.584	47	17
368.061	368.584	56	31
368.061	368.584	68	31
368.567	369.475	40	24
368.567	369.554	45	24
368.567	369.475	61	37
368.567	369.475	69	44
368.567	369.554	73	44
369.475	369.709	40	12
369.475	369.709	49	16
369.475	369.709	61	19
369.475	369.709	66	23
369.475	369.709	69	23
370.411	371.319	40	25
370.411	371.343	47	25
370.411	371.319	59	35
370.411	371.343	68	41
370.411	371.343	71	41
371.319	371.55	40	14
371.319	371.55	51	18
371.319	371.55	59	24
371.319	371.55	66	25
371.319	371.55	69	25
372.241	373.129	40	25
372.241	373.129	52	25
372.241	373.129	59	35
372.241	373.129	64	35
372.241	373.165	69	41
373.129	373.35	40	4
373.129	373.35	52	12
373.129	373.35	59	23
373.129	373.35	64	23
373.129	373.35	67	25
374.011	374.899	45	25
374.011	374.899	48	25
374.011	374.899	57	36
374.011	374.899	60	36
374.011	374.96	67	42
374.899	375.117	45	12
374.899	375.117	48	12
374.899	375.117	57	24
374.899	375.117	60	23
374.899	375.117	65	25
375.77	376.668	48	25
375.77	376.668	55	36
375.77	376.668	60	36
375.77	376.704	65	42
376.668	376.889	48	14
376.668	376.889	55	23
376.668	376.889	60	23
376.668	376.889	64	25
377.553	378.451	38	25
377.553	378.451	50	25
377.553	378.451	53	36
377.553	378.451	57	36
377.553	378.477	64	42
378.451	378.675	38	15
378.451	378.675	50	15
378.451	378.675	53	25
378.451	378.675	57	25
378.451	378.675	62	29
379.349	380.285	40	24
379.349	380.305	45	24
379.349	380.285	52	35
379.349	380.285	57	35
379.349	380.305	62	41
380.285	380.528	40	12
380.285	381.275	52	39
380.285	380.528	57	20
380.285	380.528	60	25
381.255	382.209	51	37
382.19	382.428	52	35
385.054	386.028	40	19
385.054	386.048	47	33
385.054	386.047	57	29
385.054	386.028	59	41
386.028	386.466	40	9
386.028	387.003	52	39
386.028	386.466	56	25
386.028	386.466	59	25
386.983	387.942	51	37
387.921	388.165	52	35
390.844	391.074	41	22
390.844	391.775	60	36
390.959	391.188	48	14
391.074	391.302	41	17
391.188	391.416	48	15
391.302	391.53	41	18
391.416	391.643	48	14
391.53	391.756	41	18
391.643	391.775	48	13
391.756	391.98	41	20
391.756	392.665	57	33
391.756	392.665	69	33
391.868	392.091	48	12
391.98	392.203	41	18
392.091	392.314	48	13
392.203	392.425	41	19
392.314	392.536	48	12
392.425	392.647	41	16
392.536	392.66	48	12
392.647	392.868	41	24
392.647	393.549	56	40
392.647	393.549	68	40
392.758	392.978	48	14
392.868	393.089	41	18
392.978	393.199	48	15
393.089	393.31	41	20
393.199	393.42	48	16
393.31	393.531	41	19
393.42	393.544	48	15
393.531	393.752	41	21
393.531	394.43	57	37
393.531	394.43	69	37
393.641	393.862	48	14
393.752	393.973	41	20
393.862	394.083	48	15
393.973	394.194	41	20
394.083	394.306	48	14
394.194	394.419	41	18
394.306	394.43	48	13
394.419	394.529	41	27
394.419	395.314	58	47
394.419	395.314	70	47
394.529	394.748	48	17
394.638	394.858	41	22
394.748	394.967	48	20
394.858	395.077	41	27
394.967	395.187	48	20
395.077	395.296	41	27
395.187	395.314	48	20
395.296	395.515	41	31
395.296	396.19	57	45
395.296	396.19	69	45
395.406	395.625	48	19
395.515	395.735	41	29
395.625	395.844	48	21
395.735	395.955	41	33
395.844	396.065	48	22
395.955	396.177	41	29
396.065	396.19	48	21
396.177	396.395	41	37
396.177	397.064	62	63
396.177	397.064	74	63
396.286	396.504	48	28
396.395	396.613	41	31
396.504	396.722	48	31
396.613	396.83	41	35
396.722	396.938	48	30
396.83	397.046	41	36
396.938	397.06	48	31
397.046	397.261	41	42
397.046	397.916	60	61
397.046	397.916	72	61
397.154	397.369	48	30
397.261	397.476	41	42
397.369	397.584	48	33
397.476	397.692	41	42
397.584	397.799	48	32
397.692	397.907	41	41
397.799	397.916	48	31
397.907	398.121	41	54
397.907	398.785	67	77
397.907	398.785	79	77
398.014	398.228	48	39
398.121	398.336	41	45
398.228	398.443	48	40
398.336	398.551	41	52
398.443	398.659	48	38
398.551	398.767	41	52
398.659	398.785	48	42
398.767	398.984	41	57
398.767	399.636	65	73
398.767	399.636	77	73
398.876	399.092	48	41
398.984	399.2	41	54
399.092	399.308	48	45
399.2	399.415	41	60
399.308	399.522	48	43
399.415	399.629	41	57
399.522	399.636	48	42
399.629	399.736	41	62
399.629	400.501	70	96
399.629	400.501	82	96
399.736	399.95	48	48
399.843	400.056	41	57
399.95	400.163	48	53
400.056	400.27	41	63
400.163	400.377	48	49
400.27	400.483	41	63
400.377	400.501	48	50
400.483	400.59	41	68
400.483	401.348	69	93
400.483	401.338	81	93
400.59	400.804	48	48
400.697	400.91	41	65
400.804	401.017	48	49
400.91	401.124	41	69
401.017	401.231	48	51
401.124	401.338	41	65
401.231	401.348	48	48
401.338	402.41	41	75
401.338	402.215	45	75
401.338	402.41	50	84
401.338	402.41	53	84
401.338	402.41	74	90
401.338	402.41	77	90
401.338	402.215	81	101
401.338	402.41	86	101
402.215	402.41	45	69
402.215	402.41	57	77
402.215	402.41	69	76
402.215	402.41	81	85
403.13	404.197	40	75
403.13	404.004	45	75
403.13	404.197	49	84
403.13	404.197	52	84
403.13	404.197	76	90
403.13	404.004	81	90
403.13	404.197	85	101
403.13	404.197	88	101
404.004	404.197	45	69
404.004	404.197	57	77
404.004	404.197	69	76
404.004	404.197	81	85
404.909	406.021	38	75
404.909	406.021	41	75
404.909	405.783	45	84
404.909	406.021	50	84
404.909	406.021	77	90
404.909	405.783	81	90
404.909	406.021	86	101
404.909	406.021	89	101
405.783	406.021	45	69
405.783	406.021	57	77
405.783	406.021	69	76
405.783	406.021	81	85
406.684	407.742	40	75
406.684	407.556	45	75
406.684	407.742	49	84
406.684	407.742	52	84
406.684	407.742	76	91
406.684	407.556	81	91
406.684	407.742	85	102
406.684	407.742	88	102
407.556	407.744	45	69
407.556	407.744	57	77
407.556	407.744	69	76
407.556	407.744	81	85
408.007	408.431	57	85
408.007	408.431	69	85
408.345	408.431	55	73
408.345	408.431	67	73
408.457	408.911	53	87
408.457	408.911	65	87
408.457	409.352	74	90
408.457	409.352	77	90
408.457	409.334	81	101
408.457	409.352	86	101
408.786	408.911	52	72
408.786	408.911	64	72
408.896	409.334	50	78
408.896	409.334	62	78
409.225	409.352	49	72
409.225	409.352	61	72
409.334	409.78	50	78
409.334	409.78	62	78
409.334	409.78	69	83
409.334	409.78	81	93
409.665	409.78	48	70
409.665	409.78	60	70
409.777	409.947	46	79
409.777	409.947	58	79
410.119	410.178	45	75
410.119	410.178	57	75
410.236	410.683	43	73
410.236	410.683	55	73
410.236	411.128	76	93
410.236	411.11	81	93
410.236	411.128	85	104
410.236	411.128	88	104
410.564	410.683	41	69
410.564	410.683	53	69
410.673	411.128	40	74
410.673	411.128	52	74
411.001	411.128	38	68
411.001	411.128	50	68
411.11	411.565	37	80
411.11	411.565	49	80
411.11	411.565	69	84
411.11	411.565	81	94
411.438	411.565	34	74
411.438	411.565	46	74
411.547	411.711	33	84
411.547	411.711	45	84
411.882	411.94	31	73
411.882	411.94	43	73
411.997	412.47	29	84
411.997	412.47	41	84
411.997	412.903	77	90
411.997	412.891	81	90
411.997	412.903	86	101
411.997	412.903	89	101
412.344	412.47	55	69
412.344	412.47	67	69
412.454	412.903	53	76
412.454	412.903	65	76
412.781	412.903	52	66
412.781	412.903	64	66
412.891	413.369	50	77
412.891	413.369	62	77
412.891	413.369	69	82
412.891	413.369	81	92
413.222	413.369	48	65
413.222	413.369	60	65
413.333	413.796	46	76
413.333	413.796	58	76
413.668	413.796	45	67
413.668	413.796	57	67
413.78	414.231	43	74
413.78	414.231	55	74
413.78	414.666	76	93
413.78	414.653	81	93
413.78	414.666	85	104
413.78	414.666	88	104
414.108	414.231	41	67
414.108	414.231	53	67
414.217	414.666	40	73
414.217	414.666	52	73
414.544	414.666	38	67
414.544	414.666	50	67
414.653	415.119	37	78
414.653	415.119	49	78
414.653	415.119	69	83
414.653	415.119	81	93
414.985	415.119	34	72
414.985	415.119	46	72
415.097	415.266	33	81
415.097	415.266	45	81
415.437	415.494	31	70
415.443	415.5	43	70
415.552	416.027	29	84
415.552	416.027	41	84
415.552	416.469	77	94
415.552	416.469	81	94
415.552	416.451	84	105
415.552	416.469	89	105
415.903	416.027	55	71
415.903	416.027	67	71
416.013	416.451	53	78
416.013	416.451	65	78
416.342	416.469	52	71
416.342	416.469	64	71
416.451	416.912	53	77
416.451	416.912	65	77
416.451	416.912	72	82
416.451	416.912	84	92
416.78	416.912	52	69
416.78	416.912	64	69
416.889	417.055	50	76
416.889	417.055	62	76
417.22	417.276	48	69
417.22	417.276	60	69
417.332	417.787	46	78
417.332	417.787	58	78
417.332	418.222	79	90
417.332	418.206	84	90
417.332	418.222	88	100
417.332	418.222	91	100
417.66	417.787	45	66
417.66	417.787	57	66
417.769	418.222	43	72
417.769	418.222	55	72
418.097	418.222	41	68
418.097	418.222	53	68
418.206	418.665	40	74
418.206	418.665	52	74
418.206	418.665	72	76
418.206	418.665	84	85
418.534	418.665	38	69
418.534	418.665	50	69
418.644	418.809	36	79
418.644	418.809	48	79
418.975	419.031	34	71
418.975	419.031	46	71
419.087	419.996	33	85
419.087	419.996	45	85
419.087	419.996	81	90
419.087	419.98	84	90
419.087	419.996	89	100
419.087	419.996	93	100
419.434	419.996	58	73
419.434	419.996	70	73
419.544	419.996	57	80
419.544	419.996	69	80
419.871	419.996	55	71
419.871	419.996	67	71
419.98	420.443	53	76
419.98	420.443	65	76
419.98	420.443	72	76
419.98	420.443	84	85
420.314	420.443	52	72
420.314	420.443	64	72
420.426	420.594	50	82
420.426	420.594	62	82
420.763	420.82	48	69
420.763	420.82	60	69
420.877	421.33	46	85
420.877	421.33	58	85
420.877	421.768	79	86
420.877	421.749	84	86
420.877	421.768	88	96
420.877	421.768	91	96
421.205	421.33	45	69
421.205	421.33	57	69
421.314	421.768	43	80
421.314	421.768	55	80
421.64	421.768	41	70
421.64	421.768	53	70
421.749	422.212	40	83
421.749	422.212	52	83
421.749	422.212	72	76
421.749	422.212	84	85
422.083	422.212	38	73
422.083	422.212	50	73
422.196	422.368	36	84
422.196	422.368	48	84
422.548	422.609	34	84
422.548	422.609	46	84
422.67	423.565	33	78
422.67	423.565	36	78
422.67	423.565	41	87
422.67	423.547	45	87
422.67	422.999	81	87
422.67	422.999	84	87
422.67	422.999	89	97
422.67	423.565	93	97
422.999	423.109	77	63
422.999	423.109	81	63
422.999	423.109	84	70
422.999	423.109	89	70
423.109	423.437	77	70
423.109	423.437	81	70
423.109	423.437	84	78
423.109	423.565	89	78
423.437	423.547	72	63
423.437	423.547	77	63
423.437	423.547	81	70
423.437	423.547	84	70
423.547	423.913	45	52
423.547	423.913	48	52
423.547	423.913	53	58
423.547	423.913	57	58
423.547	423.877	72	70
423.547	423.877	77	70
423.547	423.877	81	78
423.547	423.913	84	78
423.877	423.951	69	63
423.877	423.951	72	63
423.877	423.951	77	70
423.877	423.951	81	70
423.988	424.078	69	70
423.988	424.078	72	70
423.988	424.078	77	78
423.988	424.078	81	78
424.229	424.325	65	63
424.229	424.325	69	63
424.229	424.325	72	70
424.229	424.325	77	70
424.485	425.375	29	60
424.485	425.375	33	60
424.485	425.375	36	67
424.485	425.363	41	67
424.485	424.814	81	89
424.485	424.814	84	89
424.485	424.814	89	99
424.485	425.375	93	99
424.814	424.924	77	63
424.814	424.924	81	63
424.814	424.924	84	70
424.814	424.924	89	70
424.924	425.253	77	70
424.924	425.253	81	70
424.924	425.253	84	78
424.924	425.375	89	78
425.253	425.363	72	63
425.253	425.363	77	63
425.253	425.363	81	70
425.253	425.363	84	70
425.363	425.762	41	52
425.363	425.762	45	52
425.363	425.762	48	58
425.363	425.762	53	58
425.363	425.695	72	70
425.363	425.695	77	70
425.363	425.695	81	78
425.363	425.762	84	78
425.695	425.771	69	63
425.695	425.771	72	63
425.695	425.771	77	70
425.695	425.771	81	70
425.808	425.9	69	70
425.808	425.9	72	70
425.808	425.9	77	78
425.808	425.9	81	78
426.054	426.154	65	63
426.054	426.154	69	63
426.054	426.154	72	70
426.054	426.154	77	70
426.322	427.228	33	70
426.322	427.228	45	78
426.322	426.659	81	82
426.322	426.659	85	82
426.322	426.659	88	92
426.322	426.659	93	92
426.659	426.771	37	63
426.659	426.771	49	70
426.659	426.771	81	63
426.659	426.771	85	70
426.659	426.771	88	70
426.659	426.771	93	70
426.771	427.228	37	70
426.771	427.228	49	78
426.771	427.105	81	74
426.771	427.105	85	74
426.771	427.105	88	83
426.771	427.105	93	83
427.105	427.216	40	63
427.105	427.216	52	70
427.105	427.216	81	63
427.105	427.216	85	63
427.105	427.216	88	70
427.105	427.216	93	70
427.216	427.624	40	70
427.216	427.624	52	78
427.216	427.547	81	73
427.216	427.547	85	73
427.216	427.547	88	82
427.216	427.547	93	82
427.547	427.624	45	63
427.547	427.624	57	70
427.547	427.624	81	63
427.547	427.624	85	63
427.547	427.624	88	70
427.547	427.624	93	70
427.658	427.745	45	70
427.658	427.745	57	78
427.658	427.745	81	72
427.658	427.745	85	72
427.658	427.745	88	80
427.658	427.745	93	80
427.89	427.98	45	63
427.89	427.98	57	71
427.89	427.98	81	63
427.89	427.98	85	63
427.89	427.98	88	70
427.89	427.98	93	70
428.131	429.041	57	50
428.131	429.041	69	50
428.131	428.47	73	50
428.131	428.47	76	50
428.131	428.47	81	50
428.47	428.583	61	40
428.47	428.583	73	45
428.47	428.583	76	45
428.47	428.583	81	45
428.583	429.041	61	49
428.583	428.917	73	50
428.583	428.917	76	50
428.583	428.917	81	50
428.917	429.028	64	38
428.917	429.028	73	45
428.917	429.028	76	45
428.917	429.028	81	45
429.028	429.424	64	48
429.028	429.364	73	49
429.028	429.364	76	49
429.028	429.364	81	49
429.364	429.44	69	38
429.364	429.44	73	45
429.364	429.44	76	45
429.364	429.44	81	45
429.477	429.562	69	45
429.477	429.562	73	50
429.477	429.562	76	50
429.477	429.562	81	50
429.704	429.79	69	38
429.704	429.79	73	45
429.704	429.79	76	45
429.704	429.79	81	45
429.933	430.278	65	44
429.933	430.278	69	44
429.933	430.278	72	45
429.933	430.278	77	45
429.933	430.278	81	45
430.278	430.393	65	33
430.278	430.393	69	33
430.278	430.393	72	38
430.278	430.393	77	38
430.278	430.393	81	38
430.393	430.738	65	42
430.393	430.738	69	42
430.393	430.738	72	45
430.393	430.738	77	45
430.393	430.738	81	45
430.738	430.853	65	33
430.738	430.853	69	33
430.738	430.853	72	37
430.738	430.853	77	37
430.738	430.853	81	37
430.853	431.191	65	42
430.853	431.191	69	42
430.853	431.191	72	45
430.853	431.191	77	45
430.853	431.191	81	45
431.191	431.266	65	34
431.191	431.266	69	34
431.191	431.266	72	38
431.191	431.266	77	38
431.191	431.266	81	38
431.303	431.39	65	40
431.303	431.39	69	40
431.303	431.39	72	45
431.303	431.39	77	45
431.303	431.39	81	45
431.535	431.626	65	36
431.535	431.626	69	36
431.535	431.626	72	39
431.535	431.626	77	39
431.535	431.626	81	39
431.779	432.68	41	31
431.779	432.68	53	31
431.779	432.229	72	51
431.779	432.116	77	51
431.779	432.229	81	51
432.116	432.616	74	37
432.116	432.229	77	37
432.116	432.616	82	37
432.229	432.567	72	45
432.229	432.616	77	45
432.229	432.616	81	45
432.567	432.642	70	37
432.567	432.642	72	37
432.567	432.642	79	37
432.68	433.064	45	37
432.68	433.064	57	37
432.68	433.064	69	45
432.68	433.018	72	45
432.68	433.064	77	45
433.018	433.093	70	37
433.018	433.093	72	37
433.018	433.093	79	37
433.13	433.523	69	45
433.13	433.523	72	45
433.13	433.523	77	45
433.47	433.546	65	37
433.47	433.546	70	37
433.47	433.546	74	37
433.585	434.484	48	34
433.585	434.484	55	34
433.585	434.364	64	52
433.585	433.919	70	52
433.585	434.364	72	52
433.919	434.03	65	37
433.919	434.03	70	37
433.919	434.03	74	37
434.03	434.484	65	45
434.03	434.364	70	45
434.03	434.484	74	45
434.364	434.475	64	37
434.364	434.475	70	37
434.364	434.475	72	37
434.475	434.865	60	37
434.475	434.865	64	45
434.475	434.809	70	45
434.475	434.865	72	45
434.809	434.921	65	37
434.809	434.921	70	37
434.809	434.921	74	37
434.921	435.007	65	39
434.921	435.007	70	39
434.921	435.007	74	39
435.151	435.232	64	37
435.151	435.232	70	37
435.151	435.232	72	37
435.395	436.296	43	31
435.395	436.296	55	31
435.395	435.846	74	45
435.395	435.733	79	45
435.395	435.846	82	45
435.733	436.205	75	37
435.733	435.846	79	37
435.733	436.205	84	37
435.846	436.184	74	45
435.846	436.205	79	45
435.846	436.205	82	45
436.184	436.259	72	37
436.184	436.259	74	37
436.184	436.259	81	37
436.296	437.157	46	37
436.296	437.157	58	37
436.296	436.747	70	45
436.296	436.634	74	45
436.296	436.747	79	45
436.634	437.085	72	37
436.634	436.747	74	37
436.634	437.157	81	37
436.747	437.157	70	45
436.747	437.157	74	45
436.747	437.157	79	45
437.085	437.16	67	37
437.085	437.16	72	37
437.085	437.16	75	37
437.198	438.101	50	37
437.198	438.101	57	37
437.198	437.981	66	52
437.198	437.536	72	52
437.198	437.981	74	52
437.536	437.647	67	37
437.536	437.647	72	37
437.536	437.647	75	37
437.647	438.101	67	45
437.647	437.981	72	45
437.647	438.101	75	45
437.981	438.092	66	37
437.981	438.092	72	37
437.981	438.092	74	37
438.092	438.485	62	37
438.092	438.485	66	45
438.092	438.426	72	45
438.092	438.485	74	45
438.426	438.538	67	37
438.426	438.538	72	37
438.426	438.538	75	37
438.538	438.624	67	39
438.538	438.624	72	39
438.538	438.624	75	39
438.769	438.849	66	37
438.769	438.849	72	37
438.769	438.849	74	37
439.009	439.91	43	40
439.009	439.91	50	40
439.009	439.347	71	51
439.009	439.347	77	51
439.009	439.685	79	51
439.347	439.459	71	37
439.347	439.459	77	37
439.347	439.459	80	37
439.459	439.685	71	51
439.459	439.685	77	51
439.459	439.91	80	51
439.685	439.91	71	42
439.685	439.91	77	42
439.685	439.91	79	42
439.91	440.288	48	37
439.91	440.288	52	37
439.91	440.245	67	45
439.91	440.245	70	45
439.91	440.288	72	45
440.245	440.32	67	39
440.245	440.32	70	39
440.245	440.32	73	39
440.357	440.444	67	47
440.357	440.444	70	47
440.357	440.444	73	47
440.588	440.668	67	37
440.588	440.668	70	37
440.588	440.668	72	37
440.827	441.729	41	41
440.827	441.729	48	41
440.827	441.165	69	52
440.827	441.165	75	52
440.827	441.503	77	52
441.165	441.278	69	42
441.165	441.278	75	42
441.165	441.278	79	42
441.278	441.503	69	49
441.278	441.503	75	49
441.278	441.729	79	49
441.503	441.729	69	37
441.503	441.729	75	37
441.503	441.729	77	37
441.729	442.137	46	37
441.729	442.137	50	37
441.729	442.064	62	49
441.729	442.064	65	49
441.729	442.137	70	49
442.064	442.138	62	37
442.064	442.138	65	37
442.064	442.138	72	37
442.176	442.261	62	45
442.176	442.261	65	45
442.176	442.261	72	45
442.405	442.483	62	37
442.405	442.483	65	37
442.405	442.483	70	37
442.639	442.977	46	49
442.639	442.995	50	49
442.639	442.977	65	55
442.639	442.995	70	55
442.639	442.995	74	55
442.977	443.09	46	49
442.977	443.09	49	49
442.977	443.09	52	49
442.977	443.09	65	55
442.977	443.09	73	55
442.977	443.09	76	55
443.09	443.428	46	53
443.09	443.451	49	53
443.09	443.451	52	53
443.09	443.428	65	59
443.09	443.451	73	59
443.09	443.451	76	59
443.428	443.538	46	52
443.428	443.538	50	52
443.428	443.538	53	52
443.428	443.538	65	58
443.428	443.538	74	58
443.428	443.538	77	58
443.538	443.87	46	60
443.538	443.888	50	60
443.538	443.888	53	60
443.538	443.888	65	67
443.538	443.888	74	67
443.538	443.888	77	67
443.87	443.982	46	59
443.87	443.982	52	59
443.87	443.982	55	59
443.87	443.982	67	66
443.87	443.982	76	66
443.87	443.982	79	66
443.982	444.335	46	64
443.982	444.335	52	64
443.982	444.335	55	64
443.982	444.335	67	73
443.982	444.335	76	73
443.982	444.335	79	73
444.318	444.431	47	60
444.318	444.431	53	60
444.318	444.431	56	60
444.318	444.431	68	67
444.318	444.431	77	67
444.318	444.431	80	67
444.431	444.786	47	68
444.431	444.786	53	68
444.431	444.786	56	68
444.431	444.767	68	76
444.431	444.767	77	76
444.431	444.767	80	76
444.767	444.878	36	63
444.767	444.878	48	63
444.767	444.878	68	70
444.767	444.878	72	70
444.767	444.878	77	70
444.767	444.878	80	70
444.878	445.23	36	67
444.878	445.23	48	67
444.878	445.23	68	76
444.878	445.23	72	76
444.878	445.211	77	76
444.878	445.23	80	76
445.211	445.326	38	64
445.211	445.326	50	64
445.211	445.326	67	71
445.211	445.326	71	71
445.211	445.326	77	71
445.211	445.326	79	71
445.326	445.693	38	69
445.326	445.693	50	69
445.326	445.671	67	78
445.326	445.671	71	78
445.326	445.671	77	78
445.326	445.671	79	78
445.671	445.788	31	58
445.671	445.788	43	65
445.671	445.788	67	65
445.671	445.788	71	65
445.671	445.788	74	73
445.671	445.788	77	73
445.671	445.788	79	73
445.788	446.173	31	64
445.788	446.173	43	72
445.788	446.14	67	81
445.788	446.173	71	81
445.788	446.173	74	81
445.788	446.173	77	81
445.788	446.173	79	81
446.14	446.261	36	61
446.14	446.261	48	68
446.14	446.261	64	69
446.14	446.261	67	69
446.14	446.261	72	77
446.14	446.261	76	77
446.261	446.739	36	69
446.261	446.739	48	77
446.261	446.709	64	84
446.261	446.613	67	84
446.261	446.613	72	94
446.261	446.613	76	94
446.613	446.709	67	72
446.613	446.709	72	72
446.613	446.709	76	80
446.613	446.709	79	80
446.739	446.835	67	81
446.739	446.835	72	81
446.739	446.835	76	91
446.739	446.835	79	91
446.994	447.089	72	73
446.994	447.089	76	73
446.994	447.089	79	82
446.994	447.089	84	82
447.258	447.692	48	92
447.258	447.692	60	92
447.258	447.726	72	84
447.258	447.726	77	94
447.258	447.726	80	94
447.604	447.692	44	81
447.604	447.692	56	81
447.726	447.818	44	85
447.726	447.818	56	85
447.972	448.064	41	80
447.972	448.064	53	80
448.226	448.685	36	77
448.226	448.685	48	77
448.226	448.655	64	84
448.226	448.563	67	84
448.226	448.563	72	94
448.226	448.563	76	94
448.563	448.655	67	69
448.563	448.655	72	69
448.563	448.655	76	77
448.563	448.655	79	77
448.685	448.78	67	82
448.685	448.78	72	82
448.685	448.78	76	92
448.685	448.78	79	92
448.938	449.033	72	76
448.938	449.033	76	85
448.938	449.033	79	76
448.938	449.033	84	85
449.198	449.633	48	92
449.198	449.633	60	92
449.198	449.668	72	84
449.198	449.668	77	94
449.198	449.668	80	94
449.545	449.633	44	81
449.545	449.633	56	81
449.668	449.766	44	85
449.668	449.766	56	85
449.93	450.029	41	80
449.93	450.029	53	80
450.204	451.16	36	70
450.204	451.16	48	70
450.204	450.547	72	84
450.204	451.145	76	84
450.204	451.145	79	84
450.204	451.145	84	84
450.547	450.664	72	58
450.664	451.015	72	70
451.015	451.145	72	55
451.145	451.488	72	69
451.145	452.098	76	69
451.145	452.098	79	69
451.145	452.098	84	69
451.488	451.605	72	57
451.605	451.958	72	69
451.958	452.088	72	56
452.088	453.983	58	36
452.088	453.983	64	36
452.088	453.983	67	45
452.088	452.905	72	66
452.435	452.552	73	58
452.552	453.983	73	64
452.905	453.023	72	51
453.023	453.376	72	63
453.376	453.495	72	53
453.495	453.85	72	62
453.85	453.971	72	49
453.971	455.856	57	36
453.971	455.856	60	36
453.971	455.856	65	45
453.971	454.78	72	60
454.314	454.43	77	49
454.43	455.856	77	63
454.78	454.897	72	44
454.897	455.247	72	56
455.247	455.364	72	42
455.364	455.715	72	54
455.715	455.839	72	41
455.839	457.737	55	32
455.839	457.737	58	32
455.839	457.737	64	40
455.839	456.642	72	53
456.181	456.296	74	39
456.296	457.737	74	52
456.642	456.759	72	39
456.759	457.737	72	50
457.111	457.232	82	37
457.232	457.737	82	47
457.596	457.737	76	35
457.723	458.641	53	28
457.723	458.641	57	28
457.723	459.57	65	35
457.723	459.57	77	47
457.723	459.57	89	47
458.066	458.18	84	35
458.18	458.524	84	43
458.524	458.983	84	34
458.641	459.57	53	27
458.641	459.57	57	27
458.641	459.57	60	34
458.641	459.57	83	42
458.983	459.097	84	34
459.097	459.44	84	41
459.44	459.57	84	35
459.558	461.42	81	44
459.9	461.42	84	34
460.014	460.474	53	22
460.014	460.474	57	22
460.014	460.474	60	28
460.014	460.816	93	42
460.357	460.474	91	34
460.474	460.93	53	22
460.474	460.93	57	22
460.474	460.93	60	28
460.474	461.42	91	41
460.816	460.93	93	35
460.93	461.409	53	20
460.93	461.42	57	20
460.93	461.42	60	26
460.93	461.42	93	41
461.282	461.42	89	37
461.409	462.327	53	24
461.409	462.327	58	24
461.409	462.327	62	31
461.409	462.341	88	48
461.751	461.865	86	33
461.865	462.208	86	43
462.208	462.341	86	35
462.327	463.268	53	24
462.327	463.268	58	24
462.327	463.268	62	30
462.327	463.268	85	45
462.669	462.785	86	34
462.785	463.131	86	44
463.131	463.268	86	33
463.256	464.191	82	44
463.599	464.191	86	35
463.713	464.175	53	19
463.713	464.175	58	19
463.713	464.175	60	19
463.713	464.191	64	24
463.713	464.191	91	43
464.055	464.175	89	34
464.175	464.637	53	19
464.175	464.637	58	19
464.175	464.637	60	19
464.175	465.131	62	24
464.175	465.131	89	44
464.52	464.637	91	34
464.637	465.121	53	19
464.637	465.131	58	19
464.637	465.131	60	19
464.637	465.131	64	24
464.637	465.131	91	42
464.993	465.131	88	33
465.121	466.038	53	29
465.121	466.052	57	29
465.121	466.052	65	37
465.121	466.052	84	47
465.463	465.578	72	35
465.578	465.921	72	43
465.921	466.052	72	36
466.038	466.967	53	23
466.038	466.967	56	23
466.038	466.967	60	29
466.038	466.967	71	42
466.381	466.495	72	33
466.495	466.837	72	41
466.837	466.967	72	35
466.955	467.892	68	44
467.298	467.892	72	33
467.412	467.871	53	22
467.412	467.871	56	22
467.412	467.871	60	28
467.412	467.892	80	42
467.754	467.871	79	31
467.871	468.327	53	22
467.871	468.327	56	22
467.871	468.327	60	28
467.871	468.794	79	41
468.213	468.327	80	33
468.327	468.794	53	20
468.327	468.794	56	20
468.327	468.806	60	26
468.327	468.806	80	41
468.671	468.806	77	34
468.794	469.728	53	24
468.794	469.712	56	24
468.794	469.712	61	24
468.794	469.712	65	31
468.794	469.728	79	48
469.136	469.25	77	39
469.25	469.593	77	43
469.593	469.728	77	41
469.712	470.653	56	24
469.712	470.653	61	24
469.712	470.653	65	30
469.712	470.653	76	45
470.054	470.17	77	41
470.17	470.516	77	44
470.516	470.653	77	41
470.641	471.577	73	44
470.984	471.577	77	36
471.098	471.56	56	17
471.098	471.56	61	17
471.098	471.56	63	17
471.098	471.577	67	22
471.098	471.577	82	43
471.44	471.56	80	35
471.56	472.022	56	19
471.56	472.022	61	19
471.56	472.022	63	19
471.56	472.5	65	24
471.56	472.5	80	44
471.905	472.022	82	34
472.022	472.492	56	17
472.022	472.5	61	17
472.022	472.492	63	17
472.022	472.5	67	22
472.022	472.5	82	42
472.373	472.5	79	34
472.492	474.34	56	20
472.492	474.33	60	20
472.492	474.33	63	20
472.492	474.34	68	26
472.492	474.34	75	45
472.84	472.954	84	40
472.954	474.34	84	48
473.297	473.411	82	36
473.411	474.34	82	46
473.754	473.868	80	35
473.868	474.34	80	44
474.21	474.33	78	35
474.33	476.191	57	17
474.33	476.191	60	17
474.33	476.191	63	17
474.33	476.179	65	22
474.33	476.191	78	44
474.678	474.793	77	35
474.793	475.14	77	40
475.14	476.191	77	35
475.259	476.191	76	40
475.601	475.717	75	34
475.717	476.064	75	40
476.064	476.191	75	39
476.179	478.035	58	20
476.179	478.035	61	20
476.179	478.023	65	26
476.179	478.035	73	45
476.534	476.648	85	45
476.648	478.035	85	48
476.991	477.105	84	38
477.105	478.035	84	46
477.447	477.562	82	38
477.562	478.035	82	44
477.904	478.023	80	38
478.023	479.892	59	17
478.023	479.892	62	17
478.023	479.892	65	17
478.023	479.873	67	22
478.023	479.892	80	44
478.371	478.487	79	35
478.487	478.834	79	40
478.834	479.892	79	34
478.953	479.892	78	40
479.295	479.411	77	36
479.411	479.757	77	40
479.757	479.892	77	36
479.873	480.81	60	20
479.873	480.81	64	20
479.873	480.791	67	25
479.873	480.81	76	45
480.22	480.335	88	41
480.335	480.677	88	49
480.677	480.81	88	41
480.791	481.728	61	22
480.791	482.649	67	22
480.791	482.649	70	28
480.791	481.728	91	51
481.134	481.25	89	42
481.25	481.598	89	50
481.598	481.715	89	38
481.715	482.629	60	32
481.715	482.649	89	50
482.058	482.172	88	41
482.172	482.515	88	48
482.515	482.629	88	40
482.629	483.552	60	21
482.629	483.566	65	21
482.629	483.566	68	27
482.629	483.566	88	48
482.971	483.087	83	36
483.087	483.434	83	45
483.434	483.566	83	42
483.552	484.488	60	22
483.552	484.488	64	22
483.552	484.488	67	28
483.552	484.488	86	56
483.894	484.009	84	40
484.009	484.488	84	49
484.351	484.488	76	39
484.469	485.415	49	17
484.469	487.235	55	17
484.469	487.248	58	22
484.469	485.415	79	47
484.811	484.928	77	35
484.928	485.277	77	44
485.277	485.395	77	38
485.395	486.309	48	22
485.395	487.248	77	46
485.738	485.852	76	39
485.852	486.195	76	46
486.195	486.309	76	37
486.309	487.235	48	20
486.309	487.248	53	20
486.309	487.248	56	25
486.309	487.248	76	44
486.651	486.768	71	36
486.768	487.117	71	44
487.117	487.248	71	37
487.235	489.103	48	22
487.235	489.103	52	22
487.235	489.103	55	28
487.235	489.103	74	46
487.578	487.692	72	36
487.692	488.035	72	44
488.035	488.151	72	36
488.151	489.103	72	43
488.499	488.615	76	39
488.615	488.966	76	47
488.966	489.09	76	38
489.09	491.01	59	22
489.09	491.0	62	22
489.09	491.0	64	28
489.09	490.39	76	47
489.444	489.561	68	38
489.561	489.915	68	47
489.915	490.034	68	37
490.034	491.01	68	45
490.39	490.51	76	39
490.51	490.869	76	47
490.869	491.0	76	37
491.0	492.956	57	20
491.0	492.942	62	20
491.0	492.942	64	26
491.0	492.322	76	45
491.358	491.478	69	32
491.478	491.837	69	40
491.837	491.958	69	32
491.958	492.956	69	39
492.322	492.445	76	34
492.445	492.812	76	39
492.812	492.942	76	34
492.942	495.129	56	17
492.942	495.129	62	17
492.942	495.129	64	22
492.942	495.115	76	41
493.309	493.435	71	33
493.435	493.813	71	37
493.813	493.942	71	32
493.942	495.129	71	37
494.329	494.465	77	29
494.465	494.888	77	34
494.888	495.129	77	30
495.115	496.153	52	33
495.115	496.145	68	37
495.115	496.145	74	37
495.115	496.145	76	37
496.132	497.161	59	30
497.141	498.148	58	36
498.127	498.333	59	34
498.497	498.616	65	32
498.616	498.972	65	36
498.972	499.102	65	32
499.102	500.141	40	31
499.102	500.141	56	36
499.102	500.141	62	36
499.102	500.141	64	36
500.12	501.149	47	33
501.128	502.148	46	38
502.115	502.32	47	35
505.073	506.096	57	42
505.073	506.096	69	50
506.076	507.094	64	42
506.076	507.094	76	50
507.074	508.065	63	44
507.074	508.065	75	53
508.044	508.25	64	38
508.044	508.25	76	47
508.537	509.056	60	39
508.537	509.056	72	49
508.913	509.062	59	39
508.913	509.062	71	47
509.042	510.02	57	38
509.042	510.02	69	48
510.008	511.027	52	52
510.008	511.027	56	58
510.008	511.027	59	58
510.008	511.027	64	58
511.011	512.269	48	47
511.011	512.269	60	52
511.993	512.269	45	39
511.993	512.269	57	51
513.006	514.027	45	42
513.006	514.009	57	50
514.009	514.997	38	49
514.009	514.997	57	60
514.009	514.997	65	60
514.979	515.906	37	52
514.979	515.906	58	67
514.979	515.906	67	67
515.906	516.115	38	42
515.906	516.115	57	54
515.906	516.115	65	54
516.402	516.911	33	44
516.402	516.911	45	44
516.402	516.911	57	51
516.775	516.922	35	45
516.775	516.922	47	45
516.775	516.922	59	54
516.902	517.899	36	45
516.902	517.899	48	45
516.902	517.899	60	52
517.888	518.905	40	55
517.888	518.905	52	55
517.888	518.905	56	60
517.888	518.905	59	60
517.888	518.905	64	60
518.89	520.038	36	45
518.89	520.038	48	45
518.89	520.038	60	50
519.873	520.086	33	41
519.873	520.086	45	50
519.873	520.086	57	50
520.895	521.877	57	46
520.895	521.944	62	46
520.895	521.944	65	46
520.895	521.944	69	46
521.877	522.002	57	37
522.879	523.846	57	47
522.879	523.903	60	47
522.879	523.903	64	47
522.879	523.903	69	47
523.846	523.968	57	40
524.333	525.812	45	46
524.8	525.734	57	47
524.8	525.812	62	47
524.8	525.812	65	47
524.8	525.812	69	47
525.268	525.812	50	41
525.734	526.241	52	44
525.734	525.854	57	39
526.221	526.719	53	42
526.7	527.683	52	45
526.7	527.618	57	45
526.7	527.683	60	45
526.7	527.683	69	45
527.618	527.74	45	41
527.618	527.74	57	39
528.105	528.593	55	51
528.574	529.512	53	46
528.574	529.472	57	47
528.574	529.512	62	47
528.574	529.512	69	47
529.472	529.595	45	43
529.472	529.595	57	40
529.965	530.451	53	40
530.432	531.423	52	45
530.432	531.33	57	45
530.432	531.423	60	45
530.432	531.423	69	45
531.33	531.451	45	43
531.33	531.451	57	37
531.813	533.261	33	56
531.813	533.261	45	56
532.264	533.165	69	69
532.264	533.261	74	69
532.264	533.261	77	69
532.264	533.261	81	69
532.709	533.261	38	52
532.709	533.261	50	52
533.165	533.65	40	56
533.165	533.65	52	56
533.165	533.34	69	56
533.63	534.122	41	52
533.63	534.122	53	52
534.103	535.052	40	56
534.103	535.052	52	56
534.103	534.998	69	70
534.103	535.052	72	70
534.103	535.052	81	70
534.998	535.115	33	53
534.998	535.115	45	53
534.998	535.115	69	54
535.465	536.851	40	62
535.465	536.851	52	62
535.912	536.851	71	74
535.912	536.851	76	74
535.912	536.851	79	74
536.368	536.851	43	68
536.368	536.851	55	68
536.817	537.296	45	74
536.817	537.296	57	74
536.817	536.989	67	73
537.277	537.748	47	72
537.277	537.748	59	72
537.748	538.66	47	85
537.748	538.66	59	85
537.748	538.668	66	82
537.748	538.66	75	82
537.748	538.668	78	82
538.66	539.61	47	70
538.66	539.61	59	70
538.66	539.61	71	76
538.66	539.61	75	76
538.66	539.61	83	76
539.594	540.535	43	58
539.594	540.535	55	58
539.594	540.535	67	73
539.594	540.535	79	73
540.51	540.713	40	47
540.51	540.713	52	47
540.51	540.713	64	60
540.51	540.713	76	60
541.484	542.454	35	32
541.484	542.454	47	32
541.484	542.466	54	38
541.484	542.454	63	38
541.484	542.466	66	38
542.454	543.415	35	30
542.454	543.415	47	30
542.454	543.415	59	36
542.454	543.415	63	36
542.454	543.415	71	36
543.405	544.353	31	29
543.405	544.353	43	29
543.405	544.353	55	37
543.405	544.353	67	37
544.328	544.53	28	28
544.328	544.53	40	28
544.328	544.53	52	31
544.328	544.53	64	31
545.295	546.284	40	30
545.295	546.157	55	37
545.295	546.157	67	37
546.157	546.266	52	33
546.157	546.266	64	33
546.266	546.394	41	30
546.376	546.502	40	26
546.484	546.611	41	30
546.593	546.722	40	24
546.703	546.831	41	30
546.813	546.939	40	25
546.921	547.049	41	30
547.031	547.156	40	31
547.031	547.888	53	48
547.031	547.888	65	48
547.138	547.263	41	28
547.245	547.37	40	31
547.352	547.477	41	31
547.459	547.583	40	34
547.566	547.689	41	30
547.671	547.798	40	34
547.78	547.907	41	29
547.888	548.016	40	34
547.888	547.998	50	42
547.888	547.998	62	42
547.998	548.127	41	28
548.108	548.235	40	34
548.217	548.345	41	29
548.327	548.454	40	34
548.436	548.563	41	29
548.545	548.675	40	34
548.656	548.784	41	30
548.766	548.889	40	39
548.766	549.62	52	57
548.766	549.62	64	57
548.871	548.997	41	33
548.979	549.102	40	39
549.085	549.21	41	33
549.192	549.316	40	39
549.298	549.422	41	33
549.404	549.53	40	40
549.512	549.638	41	35
549.62	549.749	40	40
549.62	549.73	48	52
549.62	549.73	60	52
549.73	549.86	41	35
549.842	549.97	40	41
549.951	550.082	41	34
550.064	550.192	40	41
550.174	550.306	41	36
550.287	550.418	40	42
550.399	550.528	41	37
550.51	550.637	40	47
550.51	551.4	50	76
550.51	551.4	62	76
550.619	550.748	41	39
550.729	550.856	40	47
550.838	550.967	41	39
550.949	551.075	40	48
551.057	551.188	41	40
551.168	551.304	40	48
551.284	551.42	41	42
551.4	551.536	40	49
551.4	551.517	47	67
551.4	551.517	59	67
551.517	551.653	41	43
551.633	551.77	40	54
551.75	551.887	41	48
551.868	552.006	40	62
551.986	552.128	41	63
552.107	552.261	40	71
552.238	552.431	44	79
552.41	553.442	33	78
552.41	553.442	45	78
552.41	553.442	57	101
552.41	553.442	69	101
553.421	554.439	40	77
553.421	554.439	52	77
553.421	554.439	64	93
553.421	554.439	76	93
554.419	555.384	39	75
554.419	555.384	51	75
554.419	555.384	63	89
554.419	555.384	75	89
555.377	555.628	40	71
555.377	555.628	52	71
555.377	555.628	64	75
555.377	555.628	76	75
555.878	556.248	33	37
555.878	556.248	45	37
555.878	556.248	48	68
555.878	556.248	52	68
556.229	556.324	35	35
556.229	556.324	47	35
556.229	556.324	50	61
556.229	556.324	56	61
556.343	556.702	36	39
556.343	556.702	48	39
556.343	556.702	52	64
556.343	556.702	57	64
556.692	556.786	38	36
556.692	556.786	50	36
556.692	556.786	53	63
556.692	556.786	59	63
556.805	557.176	40	41
556.805	557.176	52	41
556.805	557.176	55	65
556.805	557.176	60	65
557.153	557.246	41	38
557.153	557.246	53	38
557.153	557.246	57	67
557.153	557.246	62	67
557.265	557.629	40	45
557.265	557.629	52	45
557.265	557.629	55	70
557.265	557.629	60	70
557.613	557.707	41	39
557.613	557.707	53	39
557.613	557.707	57	55
557.613	557.707	62	67
557.726	558.112	43	44
557.726	558.112	55	44
557.726	558.112	59	70
557.726	558.112	64	70
558.072	558.165	45	40
558.072	558.165	57	40
558.072	558.165	60	56
558.072	558.165	65	67
558.184	558.543	43	46
558.184	558.543	55	46
558.184	558.543	59	71
558.184	558.543	64	71
558.528	558.621	41	44
558.528	558.621	53	44
558.528	558.621	57	60
558.528	558.621	62	70
558.64	559.005	40	46
558.64	559.005	52	46
558.64	559.005	55	73
558.64	559.005	60	73
558.983	559.076	38	44
558.983	559.076	50	44
558.983	559.076	53	60
558.983	559.076	59	70
559.094	559.456	36	50
559.094	559.456	48	50
559.094	559.438	52	73
559.094	559.456	57	73
559.438	559.53	35	46
559.438	559.53	47	46
559.438	559.53	52	64
559.438	559.53	56	77
559.549	559.679	36	51
559.549	559.679	48	51
559.549	559.679	52	68
559.549	559.679	57	82
560.07	561.094	45	85
560.07	561.114	57	100
560.07	561.094	69	100
561.094	562.099	38	74
561.094	562.081	45	74
561.094	562.081	69	93
561.094	562.099	77	93
561.094	562.099	81	93
562.081	563.03	37	71
562.081	563.287	45	71
562.081	563.287	69	98
562.081	563.03	79	98
562.081	563.03	82	98
563.03	563.287	38	71
563.03	563.287	77	89
563.03	563.287	81	89
563.545	563.902	38	44
563.545	563.902	50	44
563.545	563.902	53	67
563.545	563.902	57	67
563.895	563.989	40	37
563.895	563.989	52	37
563.895	563.989	55	62
563.895	563.989	61	62
564.007	564.374	41	42
564.007	564.374	53	42
564.007	564.374	57	66
564.007	564.374	62	66
564.355	564.449	43	40
564.355	564.449	55	40
564.355	564.449	58	64
564.355	564.449	64	64
564.467	564.831	45	43
564.467	564.831	57	43
564.467	564.831	60	67
564.467	564.831	65	67
564.815	564.909	46	42
564.815	564.909	58	42
564.815	564.909	62	64
564.815	564.909	67	64
564.927	565.293	45	45
564.927	565.293	57	45
564.927	565.293	60	68
564.927	565.293	65	68
565.272	565.365	46	39
565.272	565.365	58	39
565.272	565.365	62	55
565.272	565.365	67	67
565.383	565.745	48	44
565.383	565.745	60	44
565.383	565.745	64	71
565.383	565.745	69	71
565.726	565.819	50	40
565.726	565.819	62	40
565.726	565.819	65	56
565.726	565.819	70	67
565.837	566.201	48	46
565.837	566.201	60	46
565.837	566.201	64	72
565.837	566.201	69	72
566.178	566.269	46	44
566.178	566.269	58	44
566.178	566.269	62	60
566.178	566.269	67	70
566.287	566.632	45	46
566.287	566.632	57	46
566.287	566.632	60	74
566.287	566.632	65	74
566.623	566.714	43	44
566.623	566.714	55	44
566.623	566.714	58	60
566.623	566.714	64	70
566.733	567.09	41	50
566.733	567.09	53	50
566.733	567.069	57	75
566.733	567.09	62	75
567.069	567.16	40	46
567.069	567.16	52	46
567.069	567.16	57	64
567.069	567.16	61	77
567.178	567.305	41	51
567.178	567.305	53	51
567.178	567.305	57	68
567.178	567.305	62	82
567.683	568.649	50	89
567.683	568.671	55	89
567.683	568.671	58	99
567.683	568.671	62	99
568.649	568.837	38	72
568.649	568.837	50	81
569.652	570.618	50	90
569.652	570.629	53	90
569.652	570.629	57	100
569.652	570.629	62	100
570.618	570.801	38	72
570.618	570.801	50	81
571.107	571.59	62	82
571.107	572.572	74	92
571.59	572.532	50	77
571.59	572.572	55	77
571.59	572.572	58	86
571.59	572.572	62	86
572.064	572.572	67	81
572.064	572.572	79	91
572.532	572.716	38	61
572.532	572.716	50	68
572.532	573.041	69	83
572.532	573.041	81	93
573.021	573.507	70	81
573.021	573.507	82	91
573.488	574.383	50	72
573.488	574.41	53	72
573.488	574.41	57	81
573.488	574.383	62	81
573.488	574.41	69	82
573.488	574.41	81	92
574.383	574.561	38	65
574.383	574.561	50	73
574.383	574.561	62	76
574.383	574.561	74	85
574.858	575.364	72	84
574.858	575.364	84	94
575.345	576.239	50	72
575.345	576.281	55	72
575.345	576.281	58	81
575.345	576.239	62	81
575.345	576.281	70	86
575.345	576.281	82	96
576.239	576.418	38	65
576.239	576.418	50	73
576.239	576.418	62	81
576.239	576.418	74	91
576.715	577.203	70	85
576.715	577.203	82	95
577.185	578.079	50	73
577.185	578.104	53	73
577.185	578.104	57	82
577.185	578.079	62	82
577.185	578.104	69	81
577.185	578.104	81	91
578.079	578.256	38	64
578.079	578.256	50	72
578.079	578.256	62	74
578.079	578.256	74	83
578.552	579.021	62	86
578.552	579.957	74	96
579.021	579.923	55	79
579.021	579.957	58	79
579.021	579.957	62	88
579.021	579.481	67	88
579.481	579.957	67	84
579.481	579.957	79	94
579.923	580.097	43	65
579.923	580.097	55	73
579.923	580.408	70	94
579.923	580.408	82	105
580.388	580.877	74	92
580.388	580.877	86	103
580.859	581.74	55	74
580.859	581.764	60	74
580.859	581.764	63	83
580.859	581.74	67	83
580.859	581.764	75	99
580.859	581.764	87	110
581.74	581.916	43	65
581.74	581.916	55	73
581.74	581.916	67	74
581.74	581.916	79	83
582.209	582.685	75	94
582.209	582.685	87	105
582.667	583.544	55	73
582.667	583.591	58	73
582.667	583.591	62	82
582.667	583.544	67	82
582.667	583.591	74	94
582.667	583.591	86	105
583.544	583.719	43	64
583.544	583.719	55	72
583.544	583.719	67	74
583.544	583.719	79	83
584.011	585.393	74	87
584.011	585.393	86	97
584.469	585.381	53	73
584.469	585.393	57	73
584.469	585.393	62	82
584.469	585.393	65	82
584.928	585.4	77	85
584.928	585.4	89	95
585.381	586.34	41	66
585.381	586.34	53	74
585.381	586.34	79	93
585.381	586.34	91	104
585.833	586.326	81	90
585.833	586.326	93	100
586.326	587.392	52	76
586.326	587.293	61	85
586.326	587.392	64	85
586.326	587.293	81	98
586.326	587.293	93	109
587.293	588.193	57	75
587.293	588.193	61	75
587.293	588.193	69	84
587.293	588.193	81	94
587.293	588.193	93	105
588.232	589.172	53	73
588.232	589.172	65	82
588.232	589.172	77	80
588.232	589.172	89	89
589.159	589.365	50	65
589.159	589.365	62	73
589.159	589.365	74	72
589.159	589.365	86	81
590.146	591.226	40	44
590.146	591.133	49	44
590.146	591.226	52	44
590.146	591.133	69	52
590.146	591.133	81	52
591.133	592.062	45	40
591.133	592.062	49	40
591.133	592.062	57	40
591.133	592.062	69	52
591.133	592.062	81	52
592.103	593.084	41	40
592.103	593.084	53	40
592.103	593.084	65	49
592.103	593.084	77	49
593.037	593.239	38	40
593.037	593.239	50	40
593.037	593.239	62	45
593.037	593.239	74	45
594.007	594.944	39	34
594.007	594.944	51	34
594.007	594.944	63	37
594.007	594.944	75	37
594.919	595.117	36	26
594.919	595.117	48	26
594.919	595.117	60	27
594.919	595.117	72	27
595.869	596.802	39	33
595.869	596.802	51	33
595.869	596.802	63	34
595.869	596.802	75	34
596.778	596.975	36	24
596.778	596.975	48	24
596.778	596.975	60	27
596.778	596.975	72	27
597.724	598.793	54	33
597.724	598.625	60	33
597.724	598.793	69	34
597.724	598.625	75	34
598.618	598.812	63	24
598.618	598.812	72	27
599.552	600.622	53	33
599.552	600.457	60	33
599.552	600.622	69	34
599.552	600.457	75	34
600.446	600.641	63	24
600.446	600.641	72	27
601.381	602.45	52	33
601.381	602.295	61	33
601.381	602.45	69	34
601.381	602.295	76	34
602.275	602.47	64	24
602.275	602.47	73	27
603.209	604.279	52	33
603.209	604.125	62	33
603.209	604.279	68	34
603.209	604.125	76	34
604.103	604.298	64	24
604.103	604.298	71	27
605.038	605.363	45	20
605.038	605.363	52	20
605.038	605.363	61	34
605.038	605.363	73	34
605.363	605.691	45	16
605.363	605.691	52	16
605.363	605.691	61	29
605.363	605.691	73	29
605.691	606.022	45	16
605.691	606.022	52	16
605.691	606.022	61	29
605.691	606.022	73	29
606.022	607.005	45	16
606.022	607.005	52	16
606.022	607.005	61	23
606.022	607.014	73	27
607.005	607.486	45	20
607.005	607.486	52	20
607.005	607.486	61	39
607.005	608.956	69	39
607.486	607.957	45	16
607.486	607.957	52	16
607.486	607.957	61	34
607.486	608.444	73	34
607.957	608.444	45	19
607.957	608.444	52	19
607.957	608.444	61	38
607.957	608.956	71	38
608.444	608.945	45	15
608.444	608.956	52	15
608.444	608.956	61	35
608.444	608.956	73	35
608.945	609.257	45	23
608.945	609.257	54	23
608.945	609.257	62	39
608.945	609.257	66	39
609.257	609.576	45	19
609.257	609.576	54	19
609.257	609.576	62	30
609.257	609.576	66	30
609.576	609.904	45	17
609.576	609.904	54	17
609.576	609.904	62	30
609.576	609.904	66	30
609.904	610.886	45	15
609.904	610.886	54	15
609.904	610.886	62	25
609.904	610.886	66	25
610.886	611.371	45	20
610.886	611.854	54	20
610.886	611.371	62	38
610.886	611.874	66	38
611.371	611.854	45	15
611.371	611.874	56	15
611.371	611.854	62	31
611.371	611.854	64	31
611.371	611.874	71	31
611.854	612.325	45	19
611.854	612.843	54	19
611.854	612.325	62	37
611.854	612.325	64	37
611.854	612.843	69	37
612.325	612.833	45	15
612.325	612.843	56	15
612.325	612.843	62	29
612.325	612.833	64	29
612.325	612.843	71	29
612.833	613.142	45	23
612.833	613.142	57	23
612.833	613.142	61	36
612.833	613.142	64	36
613.142	613.459	45	18
613.142	613.459	57	18
613.142	613.459	61	29
613.142	613.459	64	29
613.459	613.785	45	17
613.459	614.776	57	17
613.459	613.785	61	29
613.459	614.776	64	29
613.785	614.768	45	15
613.785	614.768	52	15
613.785	614.768	61	20
613.785	614.768	69	25
614.768	615.251	45	23
614.768	615.251	52	23
614.768	615.251	61	50
614.768	616.676	69	50
615.251	615.734	45	18
615.251	615.734	52	18
615.251	615.734	61	40
615.251	616.209	73	40
615.734	616.209	45	26
615.734	616.209	52	26
615.734	616.209	61	42
615.734	616.687	71	42
616.209	616.676	45	22
616.209	616.687	52	22
616.209	616.687	61	42
616.209	616.687	73	42
616.676	616.979	45	31
616.676	616.979	54	31
616.676	616.979	62	48
616.676	616.979	69	48
616.676	616.979	74	48
616.979	617.287	45	23
616.979	617.287	54	23
616.979	617.287	62	40
616.979	617.287	69	40
616.979	617.287	74	40
617.287	617.601	45	22
617.287	617.601	54	22
617.287	617.601	62	40
617.287	617.601	69	40
617.287	617.601	74	40
617.601	618.584	45	17
617.601	618.584	54	17
617.601	618.594	62	36
617.601	618.594	69	36
617.601	618.584	74	36
618.584	620.528	45	56
618.584	620.528	54	56
618.584	618.907	66	42
618.584	618.907	74	42
618.584	618.907	78	42
618.907	619.227	66	38
618.907	619.227	74	38
618.907	619.227	78	38
619.068	620.518	57	53
619.227	619.543	66	38
619.227	619.543	74	38
619.227	619.543	78	38
619.543	620.528	62	56
619.543	620.026	66	42
619.543	620.528	74	42
619.543	620.528	78	42
620.026	620.528	66	58
620.518	620.818	57	26
620.518	620.818	64	26
620.518	620.818	69	40
620.518	620.818	73	40
620.518	620.818	81	40
620.818	621.129	57	22
620.818	621.129	64	22
620.818	621.129	69	36
620.818	621.129	73	36
620.818	621.129	81	36
621.129	621.449	57	22
621.129	621.449	64	22
621.129	621.449	69	36
621.129	621.449	73	36
621.129	621.449	81	36
621.449	622.425	57	17
621.449	622.425	64	17
621.449	622.425	69	23
621.449	622.425	73	23
621.449	622.425	81	27
622.425	622.898	57	24
622.425	622.898	64	24
622.425	623.377	68	45
622.425	622.898	74	45
622.425	623.399	83	45
622.898	623.377	57	19
622.898	623.399	64	19
622.898	623.377	71	36
622.898	623.399	74	36
622.898	623.399	80	36
623.377	623.86	57	22
623.377	624.362	68	22
623.377	624.362	71	41
623.377	624.362	76	41
623.86	624.349	57	19
623.86	624.362	66	19
623.86	624.349	69	34
623.86	624.362	74	34
624.349	624.649	57	24
624.349	624.649	64	24
624.349	624.649	69	35
624.349	624.649	73	35
624.649	624.951	57	19
624.649	624.951	64	19
624.649	624.951	69	27
624.649	624.951	73	27
624.951	625.258	57	19
624.951	625.258	64	19
624.951	625.258	69	26
624.951	625.258	73	26
625.258	626.222	57	15
625.258	626.222	64	15
625.258	626.222	69	19
625.258	626.222	73	23
626.222	626.693	57	24
626.222	626.693	64	24
626.222	627.17	68	44
626.222	626.693	74	44
626.222	627.19	83	44
626.693	627.17	57	18
626.693	627.19	64	18
626.693	627.17	71	33
626.693	627.19	74	33
626.693	627.19	80	33
627.17	627.653	57	22
627.17	628.152	68	22
627.17	628.152	71	38
627.17	628.152	76	38
627.653	628.14	57	19
627.653	628.152	66	19
627.653	628.14	69	33
627.653	628.152	74	33
628.14	628.438	57	29
628.14	628.438	64	29
628.14	628.438	69	35
628.14	628.438	73	35
628.438	628.74	57	26
628.438	628.74	64	26
628.438	628.74	69	31
628.438	628.74	73	31
628.74	629.046	57	22
628.74	629.046	64	22
628.74	629.046	69	28
628.74	629.046	73	28
629.046	630.021	57	15
629.046	630.032	64	15
629.046	630.021	69	19
629.046	630.032	73	23
630.021	630.497	57	25
630.021	631.005	61	25
630.021	630.497	69	35
630.497	630.985	57	23
630.497	631.005	64	23
630.497	630.985	69	26
630.497	631.005	73	31
630.985	631.464	57	25
630.985	631.961	62	25
630.985	631.464	69	29
630.985	631.961	71	35
631.464	631.961	57	24
631.464	631.961	64	24
631.464	631.961	69	27
631.464	631.961	73	33
631.961	632.262	57	25
631.961	632.262	66	25
631.961	632.262	69	34
631.961	632.262	76	34
632.262	632.566	57	20
632.262	632.566	66	20
632.262	632.566	69	30
632.262	632.566	76	30
632.566	632.873	57	20
632.566	632.873	66	20
632.566	632.873	69	29
632.566	633.208	76	29
632.873	633.208	57	15
632.873	633.208	66	15
632.873	633.208	69	18
632.873	633.208	75	24
633.831	634.132	69	22
633.831	634.132	77	22
633.831	634.132	81	37
633.831	634.132	88	37
633.831	634.132	93	37
634.132	634.432	69	19
634.132	634.432	77	19
634.132	634.432	81	31
634.132	634.432	88	31
634.132	634.432	93	31
634.432	634.733	69	19
634.432	634.733	77	19
634.432	634.733	81	30
634.432	635.039	88	30
634.432	634.733	93	30
634.733	635.156	69	8
634.733	635.156	77	9
634.733	635.156	81	24
634.733	635.156	86	24
634.733	635.156	93	24
635.657	635.968	57	25
635.657	635.968	64	25
635.657	635.968	69	34
635.657	635.968	74	34
635.968	636.282	57	20
635.968	636.282	64	20
635.968	636.282	69	29
635.968	636.282	74	29
636.282	636.597	57	22
636.282	636.597	64	22
636.282	636.597	69	29
636.282	636.931	74	29
636.597	637.04	57	12
636.597	637.04	64	13
636.597	637.04	69	27
636.597	637.04	73	27
637.563	637.862	69	22
637.563	637.862	76	22
637.563	637.862	81	37
637.563	637.862	86	37
637.563	637.862	93	37
637.862	638.161	69	19
637.862	638.161	76	19
637.862	638.161	81	33
637.862	638.161	86	33
637.862	638.161	93	33
638.161	638.46	69	20
638.161	638.46	76	20
638.161	638.46	81	30
638.161	638.789	86	30
638.161	638.46	93	30
638.46	638.905	69	13
638.46	638.905	76	13
638.46	638.905	81	27
638.46	638.905	84	27
638.46	638.905	93	27
639.43	639.733	38	59
639.43	639.733	50	59
639.43	639.733	59	85
639.43	639.733	65	85
639.43	639.733	69	85
639.43	639.733	71	85
639.733	640.039	38	53
639.733	640.039	50	53
639.733	640.039	59	79
639.733	640.039	65	79
639.733	640.039	69	79
639.733	640.039	71	79
640.039	640.348	38	49
640.039	640.348	50	49
640.039	640.348	59	73
640.039	640.348	65	73
640.039	640.348	69	73
640.039	640.348	71	73
640.348	640.871	38	34
640.348	640.871	50	34
640.348	640.871	59	57
640.348	640.871	65	57
640.348	640.871	69	57
640.348	640.871	71	57
641.318	641.805	62	39
641.318	641.793	69	39
641.318	641.805	71	39
641.318	641.805	78	46
641.318	641.793	81	46
641.318	641.805	83	55
641.793	642.281	64	34
641.793	642.262	69	34
641.793	642.281	73	34
641.793	642.281	76	37
641.793	642.262	81	37
641.793	642.281	85	46
642.262	642.743	66	37
642.262	642.727	69	37
642.262	642.743	74	42
642.262	642.727	81	42
642.262	642.743	86	50
642.727	643.218	64	36
642.727	643.229	69	36
642.727	643.229	73	36
642.727	643.218	76	37
642.727	643.218	81	37
642.727	643.229	85	46
643.218	643.516	64	36
643.218	643.516	71	36
643.218	643.516	74	36
643.218	643.516	76	50
643.218	643.516	81	50
643.218	643.516	88	50
643.516	643.818	64	34
643.516	643.818	71	34
643.516	643.818	74	34
643.516	643.818	76	42
643.516	643.818	81	42
643.516	643.818	88	42
643.818	644.123	64	29
643.818	644.123	71	29
643.818	644.123	74	29
643.818	644.123	76	41
643.818	644.449	81	41
643.818	644.123	88	41
644.123	644.564	64	15
644.123	644.564	71	15
644.123	644.564	74	15
644.123	644.564	76	23
644.123	644.564	80	28
644.123	644.564	88	23
645.095	645.401	57	27
645.095	645.401	64	27
645.095	645.401	69	37
645.095	645.401	73	37
645.401	645.71	57	24
645.401	645.71	64	24
645.401	645.71	69	30
645.401	645.71	73	30
645.71	646.021	57	24
645.71	646.021	64	24
645.71	646.021	69	29
645.71	646.021	73	29
646.021	646.494	57	23
646.021	646.494	64	16
646.021	646.494	69	23
646.021	646.494	73	23
646.986	647.285	38	63
646.986	647.285	50	63
646.986	647.285	59	85
646.986	647.285	65	85
646.986	647.285	69	85
646.986	647.285	71	85
647.285	647.584	38	55
647.285	647.584	50	55
647.285	647.584	59	79
647.285	647.584	65	79
647.285	647.584	69	79
647.285	647.584	71	79
647.584	647.883	38	51
647.584	647.883	50	51
647.584	647.883	59	72
647.584	647.883	65	72
647.584	647.883	69	72
647.584	647.883	71	72
647.883	648.351	38	35
647.883	648.351	50	35
647.883	648.351	59	56
647.883	648.351	65	56
647.883	648.351	69	56
647.883	648.351	71	56
648.818	649.308	62	39
648.818	649.291	69	39
648.818	649.308	71	39
648.818	649.308	78	46
648.818	649.291	81	46
648.818	649.308	83	55
649.291	649.777	64	36
649.291	649.762	69	36
649.291	649.777	73	36
649.291	649.777	76	41
649.291	649.762	81	41
649.291	649.777	85	49
649.762	650.235	66	39
649.762	650.224	69	39
649.762	650.235	74	44
649.762	650.224	81	44
649.762	650.235	86	53
650.224	650.717	64	36
650.224	650.729	69	36
650.224	650.729	73	36
650.224	650.717	76	39
650.224	650.717	81	39
650.224	650.729	85	47
650.717	651.018	64	36
650.717	651.018	71	36
650.717	651.018	74	36
650.717	651.018	76	50
650.717	651.018	81	50
650.717	651.018	88	50
651.018	651.32	64	33
651.018	651.32	71	33
651.018	651.32	74	33
651.018	651.32	76	47
651.018	651.32	81	47
651.018	651.32	88	47
651.32	651.621	64	33
651.32	651.621	71	33
651.32	651.621	74	33
651.32	651.621	76	47
651.32	651.906	81	47
651.32	651.621	88	47
651.621	652.066	64	17
651.621	652.066	71	17
651.621	652.066	74	17
651.621	652.066	76	26
651.621	652.066	80	33
651.621	652.066	88	27
652.591	652.846	33	74
652.591	652.846	45	83
652.591	652.846	57	95
652.591	652.846	69	106
652.883	653.187	33	66
652.883	653.187	45	73
652.883	653.187	57	88
652.883	653.187	69	97
653.187	653.503	33	59
653.187	653.503	45	67
653.187	653.503	57	78
653.187	653.503	69	86
653.503	653.948	33	50
653.503	653.948	45	57
653.503	653.948	57	69
653.503	653.948	69	77
654.473	654.949	45	22
654.473	654.949	52	22
654.473	654.949	61	36
654.473	656.409	64	36
654.949	655.42	45	17
654.949	655.42	52	17
654.949	655.42	61	30
654.949	655.885	73	30
655.42	655.885	45	20
655.42	655.885	52	20
655.42	655.885	61	37
655.42	656.409	71	37
655.885	656.39	45	16
655.885	656.409	52	16
655.885	656.409	61	30
655.885	656.39	73	30
656.39	657.315	45	16
656.39	657.315	53	16
656.39	657.315	65	24
656.39	657.402	73	39
656.39	657.402	76	39
657.315	657.552	45	8
657.315	657.552	53	8
657.315	657.552	65	22
657.315	657.552	71	23
657.315	657.552	74	23
658.265	659.2	45	23
658.265	659.2	56	23
658.265	659.2	64	29
658.265	659.355	73	39
658.265	659.355	76	39
659.2	659.445	45	9
659.2	659.445	56	9
659.2	659.445	64	19
659.2	659.445	71	23
659.2	659.445	74	23
660.178	660.474	33	73
660.178	660.474	45	82
660.178	660.474	69	95
660.178	660.474	81	106
660.474	660.778	33	68
660.474	660.778	45	75
660.474	660.778	69	89
660.474	660.778	81	100
660.778	661.091	33	66
660.778	661.091	45	73
660.778	661.091	69	84
660.778	661.091	81	94
661.091	661.578	33	51
661.091	661.578	45	58
661.091	661.578	69	67
661.091	661.578	81	74
662.065	662.542	45	25
662.065	662.542	52	25
662.065	662.542	61	38
662.065	663.994	64	38
662.542	663.013	45	18
662.542	663.013	52	18
662.542	663.013	61	31
662.542	663.478	73	31
663.013	663.478	45	27
663.013	663.478	52	27
663.013	663.478	61	42
663.013	663.994	71	42
663.478	663.983	45	22
663.478	663.994	52	22
663.478	663.994	61	38
663.478	663.994	73	38
663.983	664.891	45	28
663.983	664.97	50	28
663.983	664.891	66	37
663.983	664.891	74	44
663.983	664.97	78	44
664.891	665.242	45	12
664.891	665.242	54	16
664.891	665.242	66	19
664.891	665.242	71	23
664.891	665.242	74	23
665.827	666.735	45	25
665.827	666.76	52	25
665.827	666.735	64	35
665.827	666.76	73	41
665.827	666.76	76	41
666.735	667.082	45	14
666.735	667.082	56	18
666.735	667.082	64	24
666.735	667.082	71	25
666.735	667.082	74	25
667.658	668.546	45	25
667.658	668.546	57	25
667.658	668.546	64	35
667.658	668.582	71	35
667.658	668.582	74	41
668.546	668.876	45	4
668.546	668.876	57	12
668.546	668.876	64	23
668.546	668.876	69	23
668.546	668.876	72	25
669.427	670.315	50	25
669.427	670.315	53	25
669.427	670.315	62	36
669.427	670.315	65	36
669.427	670.376	72	42
670.315	670.642	50	12
670.315	670.642	53	12
670.315	670.642	62	24
670.315	670.642	65	23
670.315	670.642	70	25
671.187	672.123	40	24
671.187	672.159	48	24
671.187	672.123	60	35
671.187	672.123	64	35
671.187	672.159	70	41
672.123	672.487	40	14
672.123	673.113	52	29
672.123	672.487	60	20
672.123	673.113	64	39
672.123	672.487	69	25
673.093	674.063	51	34
673.093	674.063	63	37
674.043	674.401	52	33
674.043	674.401	64	35
676.908	677.882	40	19
676.908	677.928	47	33
676.908	677.882	59	41
676.908	677.882	64	29
676.908	677.928	69	29
677.882	678.32	40	16
677.882	678.857	52	35
677.882	678.32	59	25
677.882	678.857	64	39
677.882	678.32	68	25
678.837	679.807	51	35
678.837	679.807	63	37
679.787	680.152	52	34
679.787	680.152	64	35
682.607	684.915	45	22
682.607	684.915	51	22
682.607	684.915	54	22
682.607	684.915	57	28
682.607	684.915	63	28
682.607	684.915	66	28
686.3	688.607	45	20
686.3	688.607	51	20
686.3	688.607	54	20
686.3	688.607	57	28
686.3	688.607	63	28
686.3	688.607	66	28
689.992	690.935	39	31
689.992	690.935	51	31
689.992	690.935	63	34
689.992	690.935	75	34
690.89	691.065	36	24
690.89	691.065	48	24
690.89	691.065	60	25
690.89	691.065	72	25
691.824	692.743	39	30
691.824	692.743	51	30
691.824	692.743	63	31
691.824	692.743	75	31
692.718	692.893	36	22
692.718	692.893	48	22
692.718	692.893	60	25
692.718	692.893	72	25
693.653	694.149	39	30
693.653	694.149	51	30
693.653	694.149	63	36
693.653	694.149	75	36
694.093	694.26	36	23
694.093	694.26	48	23
694.093	694.26	60	34
694.093	694.26	72	34
694.538	695.034	39	39
694.538	695.034	51	39
694.538	695.034	63	46
694.538	695.034	75	46
694.975	695.141	36	30
694.975	695.141	48	30
694.975	695.141	60	40
694.975	695.141	72	40
695.417	695.905	39	52
695.417	695.905	51	52
695.417	695.905	63	59
695.417	695.905	75	59
695.851	696.014	36	50
695.851	696.014	48	50
695.851	696.014	60	57
695.851	696.014	72	57
696.288	696.779	39	66
696.288	696.779	51	66
696.288	696.779	63	71
696.288	696.779	75	71
696.719	696.888	36	58
696.719	696.888	48	58
696.719	696.888	60	66
696.719	696.888	72	66
697.168	697.387	40	72
697.168	697.387	64	92
697.278	697.499	52	41
697.278	697.499	76	82
697.387	697.608	40	53
697.387	697.608	64	78
697.499	697.717	52	38
697.499	697.717	76	74
697.608	697.828	40	47
697.608	697.828	64	69
697.717	697.937	52	40
697.717	697.937	76	66
697.828	698.045	40	47
697.828	698.045	64	62
697.937	698.154	52	37
697.937	698.154	76	60
698.045	698.264	40	42
698.045	698.264	64	70
698.154	698.371	52	33
698.154	698.371	76	67
698.264	698.481	40	42
698.264	698.481	64	65
698.371	698.591	52	35
698.371	698.591	76	62
698.481	698.697	40	41
698.481	698.697	64	70
698.591	698.805	52	32
698.591	698.805	76	67
698.697	698.925	40	42
698.697	698.925	64	64
698.805	698.925	52	31
698.805	698.925	76	61
698.915	699.127	37	75
698.915	699.127	61	96
699.021	699.236	49	37
699.021	699.236	73	84
699.127	699.344	37	50
699.127	699.344	61	79
699.236	699.452	49	35
699.236	699.452	73	74
699.344	699.563	37	49
699.344	699.563	61	69
699.452	699.673	49	32
699.452	699.673	73	65
699.563	699.78	37	42
699.563	699.78	61	62
699.673	699.889	49	33
699.673	699.889	73	55
699.78	699.999	37	43
699.78	699.999	61	73
699.889	700.108	49	32
699.889	700.108	73	69
699.999	700.215	37	43
699.999	700.215	61	66
700.108	700.322	49	33
700.108	700.322	73	56
700.215	700.43	37	43
700.215	700.43	61	72
700.322	700.54	49	35
700.322	700.54	73	69
700.43	700.683	37	42
700.43	700.683	61	66
700.54	700.683	49	37
700.54	700.683	73	63
700.669	701.187	52	83
700.669	701.187	64	83
700.669	701.187	76	102
700.669	701.187	88	102
701.1	701.265	49	72
701.1	701.265	61	72
701.1	701.265	73	94
701.1	701.265	85	94
701.542	702.082	52	83
701.542	702.082	64	83
701.542	702.082	76	101
701.542	702.082	88	101
701.977	702.144	57	72
701.977	702.144	69	72
701.977	702.144	81	94
701.977	702.144	93	94
702.424	702.914	52	73
702.424	702.914	64	73
702.424	702.914	76	93
702.424	702.914	88	93
702.88	703.056	49	66
702.88	703.056	61	66
702.88	703.056	73	86
702.88	703.056	85	86
703.35	703.878	45	57
703.35	703.878	57	57
703.35	703.878	69	78
703.35	703.878	81	78
703.841	704.048	40	44
703.841	704.048	52	44
703.841	704.048	64	68
703.841	704.048	76	68
704.394	708.244	40	27
704.394	708.254	52	27
704.394	706.333	61	34
704.394	706.333	69	34
704.394	706.333	73	34
706.319	708.254	62	38
706.319	708.254	68	38
706.319	708.254	76	38
708.244	708.454	40	71
708.244	708.454	64	97
708.349	708.559	52	38
708.349	708.559	76	90
708.454	709.085	40	47
708.454	709.085	64	86
708.559	709.189	52	35
708.559	709.189	76	83
708.664	708.875	37	66
708.664	708.875	61	88
708.77	708.98	49	37
708.77	708.98	73	85
708.875	711.686	37	42
708.875	710.014	61	82
708.98	709.911	49	35
708.98	709.911	73	78
709.085	709.292	40	63
709.085	709.292	64	87
709.189	709.395	52	41
709.189	709.395	76	85
709.292	711.67	40	51
709.292	710.423	64	83
709.395	710.321	52	38
709.395	710.321	76	80
709.498	709.705	45	67
709.498	709.705	69	89
709.602	709.808	57	40
709.602	709.808	81	86
709.705	711.686	45	52
709.705	710.829	69	84
709.808	710.727	57	40
709.808	710.727	81	81
709.911	710.117	49	72
709.911	710.117	73	94
710.014	710.219	61	47
710.014	710.219	85	92
710.117	711.686	49	61
710.117	711.67	73	90
710.219	711.67	61	48
710.219	711.686	85	88
710.321	710.525	52	79
710.321	710.525	76	102
710.423	710.626	64	52
710.423	710.626	88	98
710.525	711.147	52	63
710.525	711.147	76	94
710.626	711.26	64	56
710.626	711.26	88	90
710.727	710.934	57	84
710.727	710.934	81	109
710.829	711.039	69	57
710.829	711.039	93	100
710.934	711.686	57	66
710.934	711.686	81	94
711.039	711.67	69	53
711.039	711.686	93	88
711.147	711.377	52	73
711.147	711.377	76	83
711.26	711.497	64	46
711.26	711.497	88	77
711.377	711.67	52	57
711.377	711.686	76	70
711.497	711.686	64	45
711.497	711.686	88	60
711.67	715.519	40	28
711.67	715.526	52	28
711.67	713.604	61	35
711.67	713.604	69	35
711.67	713.604	73	35
713.594	715.526	62	36
713.594	715.526	68	36
713.594	715.526	76	43
715.519	716.458	33	26
715.519	716.458	40	26
715.519	716.458	45	26
715.519	716.458	49	34
715.519	716.83	61	34
716.458	716.83	33	13
716.458	716.83	40	13
716.458	716.83	45	13
716.458	716.83	49	21
716.458	716.83	57	21
717.432	718.344	57	26
717.432	718.344	64	26
717.432	718.344	71	26
717.432	718.344	74	42
717.432	718.344	80	42
717.432	718.482	88	42
718.344	718.704	57	11
718.344	718.704	64	11
718.344	718.704	71	11
718.344	718.704	74	28
718.344	718.704	80	28
719.306	720.248	33	26
719.306	720.248	40	26
719.306	720.248	45	26
719.306	720.248	49	34
719.306	720.617	61	34
720.248	720.617	33	12
720.248	720.617	40	12
720.248	720.617	45	12
720.248	720.617	49	23
720.248	720.617	57	23
721.213	722.137	57	26
721.213	722.137	64	26
721.213	722.137	71	26
721.213	722.137	74	42
721.213	722.137	80	42
721.213	722.511	88	42
722.137	722.511	57	11
722.137	722.511	64	11
722.137	722.511	71	11
722.137	722.511	74	28
722.137	722.511	80	28
723.086	724.021	33	26
723.086	724.021	40	26
723.086	724.021	45	26
723.086	724.021	49	34
723.086	724.388	61	34
724.021	724.388	33	12
724.021	724.388	40	12
724.021	724.388	45	12
724.021	724.388	49	20
724.021	724.388	57	20
724.983	725.884	57	26
724.983	725.884	64	26
724.983	725.884	71	26
724.983	725.884	74	42
724.983	725.884	80	42
724.983	726.259	88	42
725.884	726.259	57	11
725.884	726.259	64	11
725.884	726.259	71	11
725.884	726.259	74	26
725.884	726.259	80	26
726.818	727.719	57	26
726.818	727.719	64	26
726.818	727.719	71	26
726.818	727.719	74	42
726.818	727.719	80	42
726.818	728.083	88	42
727.719	728.083	57	11
727.719	728.083	64	11
727.719	728.083	71	11
727.719	728.083	74	28
727.719	728.083	80	28
728.654	729.555	57	26
728.654	729.555	64	26
728.654	729.555	71	26
728.654	729.555	74	42
728.654	729.555	80	42
728.654	729.943	88	42
729.555	729.943	57	11
729.555	729.943	64	11
729.555	729.943	71	11
729.555	729.943	74	28
729.555	729.943	80	28
730.489	734.35	49	78
730.489	734.35	61	78
730.489	734.35	73	98
730.489	734.35	85	98
734.337	738.184	45	22
734.337	738.184	57	35
734.337	738.196	69	24
734.337	738.196	81	38
738.184	739.279	33	13
738.184	739.279	40	13
738.184	739.279	45	17
738.184	739.279	49	24
738.184	739.279	52	24
738.184	739.279	57	24
738.184	739.279	61	30
739.279	740.459	33	13
739.279	740.459	40	13
739.279	740.459	45	17
739.279	740.459	49	24
739.279	740.459	52	24
739.279	740.459	57	24
739.279	740.459	61	30
740.459	747.97	33	13
740.459	747.97	40	13
740.459	747.97	45	17
740.459	747.97	49	24
740.459	747.97	52	24
740.459	747.97	57	24
740.459	747.97	61	30
