OnsetTime	OffsetTime	MidiPitch	Velocity
0.500943	0.950348	46	41
0.500943	0.950348	58	41
0.949449	1.02089	45	27
0.949449	1.02089	57	29
1.02089	1.09232	46	28
1.02089	1.09232	58	31
1.09232	1.16374	49	29
1.09232	1.16374	61	33
1.16374	1.27738	53	33
1.16374	1.27738	65	37
1.61829	1.68971	45	26
1.61829	1.68971	57	29
1.68971	1.76114	46	27
1.68971	1.76114	58	31
1.76114	1.83257	49	29
1.76114	1.83257	61	32
1.83257	1.94535	53	32
1.83257	1.94535	65	37
3.18596	5.35053	34	95
3.18596	5.35053	46	95
3.18596	3.74847	58	100
3.74847	4.87347	58	72
3.74847	4.87347	60	72
3.74847	4.87347	63	85
3.74847	4.87347	66	85
3.74847	4.87347	70	85
3.74847	5.35053	82	78
3.74847	5.24848	90	92
3.74847	5.35053	94	92
4.87347	5.15473	58	47
4.87347	5.15473	60	47
4.87347	5.15473	63	56
4.87347	5.15473	66	56
4.87347	5.15473	70	56
4.87347	5.35053	75	51
4.87347	5.15473	84	61
4.87347	5.35053	87	61
5.15473	5.24848	58	51
5.15473	5.24848	60	51
5.15473	5.24848	63	61
5.15473	5.24848	66	61
5.15473	5.24848	70	61
5.15473	5.35053	77	57
5.15473	5.24848	84	68
5.15473	5.35053	89	68
5.24848	5.45257	58	56
5.24848	5.45257	60	56
5.24848	5.45257	63	66
5.24848	5.45257	66	66
5.24848	5.45257	70	66
5.24848	5.45257	78	60
5.24848	5.45257	84	71
5.24848	5.45257	90	71
5.45257	5.65665	58	52
5.45257	5.65665	61	52
5.45257	5.65665	65	62
5.45257	5.65665	70	62
5.45257	5.65665	77	57
5.45257	5.65665	85	68
5.45257	5.65665	89	68
5.86072	5.92875	45	27
5.86072	5.92875	57	27
5.92875	5.99677	46	28
5.92875	5.99677	58	29
5.99677	6.06479	49	30
5.99677	6.06479	61	30
6.06479	6.16683	53	33
6.06479	6.16683	65	35
6.47295	6.54097	45	26
6.47295	6.54097	57	27
6.54097	6.60899	46	28
6.54097	6.60899	58	29
6.60899	6.67702	49	30
6.60899	6.67702	61	30
6.67702	6.77135	53	34
6.67702	6.77135	65	35
7.80908	9.82258	32	95
7.80908	9.82258	44	95
7.80908	8.33083	56	100
8.33083	9.3743	56	72
8.33083	9.82258	65	76
8.33083	9.82258	73	89
8.33083	9.82258	80	76
8.33083	9.63517	89	90
8.33083	9.82258	92	90
9.3743	9.63517	56	49
9.3743	9.63517	63	58
9.3743	9.63517	66	58
9.3743	9.63517	68	58
9.3743	9.82258	75	51
9.3743	9.63517	84	60
9.3743	9.82258	87	60
9.63517	9.7258	56	53
9.63517	9.7258	63	63
9.63517	9.7258	66	63
9.63517	9.7258	68	63
9.63517	9.82258	77	55
9.63517	9.7258	84	65
9.63517	9.82258	89	65
9.7258	9.91935	56	57
9.7258	9.91935	63	68
9.7258	9.91935	66	68
9.7258	9.91935	68	68
9.7258	9.91935	78	59
9.7258	9.91935	84	70
9.7258	9.91935	90	70
9.91935	10.0933	61	55
9.91935	10.0933	65	65
9.91935	10.0933	68	65
9.91935	10.0933	77	56
9.91935	10.0933	85	67
9.91935	10.0933	89	67
10.4411	10.9628	53	65
10.4411	11.1521	60	77
10.4411	10.9628	65	77
10.4411	11.1521	69	81
10.4411	11.1521	77	81
10.9628	11.3414	41	65
10.9628	11.3414	48	77
10.9628	11.3414	53	77
10.9628	11.3414	57	81
10.9628	11.3414	65	81
11.5306	12.9122	29	79
11.5306	12.9122	41	94
12.9122	13.0603	30	82
12.9122	13.0603	42	97
14.905	14.9739	45	27
14.905	14.9739	57	27
14.9739	15.0429	46	28
14.9739	15.0429	58	29
15.0429	15.1119	49	29
15.0429	15.1119	61	30
15.1119	15.2153	53	33
15.1119	15.2153	65	34
15.5257	15.5946	45	27
15.5257	15.5946	57	29
15.5946	15.6636	46	28
15.5946	15.6636	58	30
15.6636	15.7325	49	29
15.6636	15.7325	61	31
15.7325	15.836	53	33
15.7325	15.836	65	36
16.9739	17.4645	34	95
16.9739	17.4645	46	95
16.9739	17.4645	58	100
17.5364	18.3802	58	72
17.5364	18.3802	60	72
17.5364	18.3802	63	85
17.5364	18.3802	66	85
17.5364	18.3802	70	85
17.5364	18.3802	82	78
17.5364	18.3802	90	92
17.5364	18.3802	94	92
18.3802	18.4739	58	47
18.3802	18.4739	60	47
18.3802	18.4739	63	56
18.3802	18.4739	66	56
18.3802	18.4739	70	56
18.3802	18.4739	75	49
18.3802	18.4739	84	58
18.3802	18.4739	87	58
18.4739	18.6614	58	47
18.4739	18.6614	60	47
18.4739	18.6614	63	56
18.4739	18.6614	66	56
18.4739	18.6614	70	56
18.4739	18.6614	75	49
18.4739	18.6614	84	58
18.4739	18.6614	87	58
18.6614	18.9427	58	47
18.6614	18.9427	60	47
18.6614	18.9427	63	56
18.6614	18.9427	66	56
18.6614	18.9427	70	56
18.6614	18.9427	75	51
18.6614	18.9427	84	61
18.6614	18.9427	87	61
18.9427	19.0364	58	51
18.9427	19.0364	60	51
18.9427	19.0364	63	61
18.9427	19.0364	66	61
18.9427	19.0364	70	61
18.9427	19.0364	77	57
18.9427	19.0364	84	68
18.9427	19.0364	89	68
19.0364	19.2405	58	56
19.0364	19.2405	60	56
19.0364	19.2405	63	66
19.0364	19.2405	66	66
19.0364	19.2405	70	66
19.0364	19.2405	78	60
19.0364	19.2405	84	71
19.0364	19.2405	90	71
19.2405	19.4446	58	52
19.2405	19.4446	61	52
19.2405	19.4446	65	62
19.2405	19.4446	70	62
19.2405	19.4446	77	57
19.2405	19.4446	85	68
19.2405	19.4446	89	68
19.6487	19.7167	45	27
19.6487	19.7167	57	29
19.7167	19.7847	46	29
19.7167	19.7847	58	30
19.7847	19.8527	49	30
19.7847	19.8527	61	32
19.8527	19.9548	53	34
19.8527	19.9548	65	37
20.2609	20.3289	45	24
20.2609	20.3289	57	29
20.3289	20.3969	46	26
20.3289	20.3969	58	30
20.3969	20.465	49	27
20.3969	20.465	61	32
20.465	20.5593	53	32
20.465	20.5593	65	37
21.5324	23.4747	24	95
21.5324	23.4747	36	95
21.5324	23.4747	48	100
22.0338	23.0366	60	63
22.0338	23.4747	65	63
22.0338	23.4747	68	89
22.0338	23.0366	72	89
22.0338	23.4747	84	64
22.0338	23.2872	92	90
22.0338	23.4747	96	90
23.0366	23.2872	60	41
23.0366	23.2872	64	41
23.0366	23.2872	70	58
23.0366	23.2872	72	58
23.0366	23.4747	79	43
23.0366	23.2872	88	60
23.0366	23.4747	91	60
23.2872	23.3779	60	45
23.2872	23.3779	64	45
23.2872	23.3779	70	63
23.2872	23.3779	72	63
23.2872	23.4747	80	46
23.2872	23.3779	88	65
23.2872	23.4747	92	65
23.3779	23.5714	60	48
23.3779	23.5714	64	48
23.3779	23.5714	70	68
23.3779	23.5714	72	68
23.3779	23.5714	82	50
23.3779	23.5714	88	70
23.3779	23.5714	94	70
23.5714	23.7453	65	46
23.5714	23.7453	68	65
23.5714	23.7453	72	65
23.5714	23.7453	80	47
23.5714	23.7453	89	67
23.5714	23.7453	92	67
24.0932	24.637	53	65
24.0932	24.637	60	77
24.0932	24.637	65	77
24.0932	24.637	68	68
24.0932	24.8482	72	68
24.0932	24.8482	77	81
24.0932	24.8482	80	81
24.637	25.0595	41	65
24.637	25.0595	48	77
24.637	25.0595	53	77
24.637	25.0595	56	68
24.637	25.0595	60	68
24.637	25.0595	65	81
24.637	25.0595	68	81
25.2708	26.6524	28	79
25.2708	26.6524	40	94
26.6524	26.8004	29	82
26.6524	26.8004	41	97
28.2313	29.9801	25	71
28.2313	29.9801	37	84
28.2313	29.9801	101	97
28.7376	29.3658	44	45
28.7376	29.3658	56	45
28.9632	29.5428	53	53
28.9632	29.5428	61	53
29.1888	29.9801	99	68
29.2773	29.9801	97	62
29.3658	29.9801	44	42
29.3658	29.9801	56	42
29.3658	29.9801	92	65
29.4543	29.9801	89	59
29.5428	29.9801	53	47
29.5428	29.9801	61	47
29.5428	29.9801	87	62
29.6313	29.9801	85	57
29.7198	29.9801	80	58
29.8083	29.9801	77	53
29.8968	29.9853	75	55
29.9853	30.0738	73	51
30.0738	30.2507	68	52
30.6047	31.0529	32	44
30.6047	31.0529	44	52
30.6047	31.0529	72	55
30.6936	31.0529	73	52
30.7828	31.0529	75	50
30.8724	31.0529	77	47
30.9624	31.0529	78	45
31.0476	31.1384	80	42
31.1437	31.3619	55	38
31.1437	31.3619	60	38
31.1437	31.3619	66	38
31.1437	31.2528	81	40
31.3619	31.5592	56	35
31.3619	31.5592	60	35
31.3619	31.5592	66	35
31.5592	31.6579	56	31
31.5592	31.6579	60	31
31.5592	31.6579	66	31
31.7566	31.8469	81	50
31.8469	31.9368	80	49
31.9368	32.0262	79	47
32.0262	32.1153	78	46
32.1153	32.204	77	44
32.204	32.2923	76	42
32.2923	32.5074	57	35
32.2923	32.5074	60	35
32.2923	32.5074	66	35
32.2923	32.3998	75	41
32.5074	32.7047	56	32
32.5074	32.7047	60	32
32.5074	32.7047	66	32
32.7047	32.8034	56	28
32.7047	32.8034	60	28
32.7047	32.8034	66	28
32.9021	34.5496	25	68
32.9021	34.5496	37	82
32.9021	34.5496	101	97
33.3532	33.9477	44	45
33.3532	33.9477	56	45
33.5638	34.1211	53	53
33.5638	34.1211	61	53
33.7743	34.5496	99	68
33.861	34.5496	97	60
33.9477	34.5496	44	42
33.9477	34.5496	56	42
33.9477	34.5496	92	65
34.0344	34.5496	89	58
34.1211	34.5496	53	47
34.1211	34.5496	61	47
34.1211	34.5496	87	62
34.2078	34.5496	85	57
34.2945	34.5496	80	58
34.3812	34.5496	77	53
34.4679	34.5546	75	55
34.5546	34.6413	73	49
34.6413	34.8142	68	52
35.16	35.6943	65	20
35.16	35.6943	72	42
35.16	35.3369	75	20
35.2483	35.3369	73	41
35.3369	35.6943	75	41
35.4258	35.515	77	40
35.515	35.6044	78	39
35.5992	35.689	80	38
35.6943	35.7841	60	32
35.6943	35.7841	81	37
35.7841	35.8739	61	32
35.8739	35.9637	63	32
35.9637	36.0535	65	32
36.0535	36.1433	66	32
36.1433	36.2332	68	32
36.2332	36.3214	69	32
36.2332	36.3214	81	42
36.3214	36.4096	80	41
36.4096	36.4978	79	40
36.4978	36.5861	78	39
36.5861	36.6743	77	37
36.6743	36.7625	76	36
36.7625	36.8566	57	30
36.7625	36.9532	75	35
36.8566	36.9532	56	29
36.9532	37.0525	55	28
37.0525	37.1548	54	27
37.1548	37.2602	53	26
37.2602	37.9706	51	25
37.3688	37.9706	49	30
37.3688	38.7812	71	38
37.3688	38.6958	77	59
37.4851	37.9502	56	28
37.6014	37.8339	61	30
37.7177	37.9706	65	34
37.8339	37.9706	61	31
37.9502	38.6958	56	30
38.0665	38.6958	49	28
38.1828	38.653	59	28
38.299	38.5334	61	30
38.299	38.6958	75	53
38.4154	38.6958	65	31
38.5334	38.6958	61	30
38.653	38.8971	59	29
38.653	38.7812	73	52
38.7812	39.371	54	28
38.7812	40.0228	71	38
38.7812	40.0228	73	54
38.8971	39.3604	59	28
39.0129	39.2446	61	31
39.1287	39.371	66	34
39.2446	39.371	61	31
39.3604	40.0228	59	29
39.4762	40.0228	49	30
39.4762	40.6703	70	56
39.4762	40.6703	78	56
39.5856	40.0166	58	28
39.6943	39.9098	61	30
39.8024	40.0228	66	33
39.9098	40.0228	61	31
40.0166	40.6703	58	30
40.1227	40.6703	56	30
40.1227	41.4463	71	50
40.2284	40.6548	59	28
40.334	40.5453	61	30
40.4396	40.6703	68	33
40.5453	40.6703	61	31
40.5453	40.7643	77	52
40.6548	40.8717	59	29
40.7643	41.3287	49	30
40.7643	41.3287	77	51
40.8717	41.3224	59	28
40.9794	41.1969	61	30
40.9794	41.3287	75	50
41.0878	41.3287	65	31
41.1969	41.3287	61	30
41.1969	41.4463	73	49
41.3224	41.4463	59	29
41.4463	41.9603	54	32
41.4463	42.7756	70	44
41.4463	42.09	73	44
41.4463	42.09	82	56
41.5559	41.9603	58	30
41.6646	41.8791	61	34
41.7723	41.9603	66	35
41.8791	41.985	61	34
41.985	42.2104	58	33
42.09	42.7756	52	33
42.09	42.4548	68	44
42.09	42.8499	73	44
42.09	42.5797	82	62
42.2104	42.7148	58	36
42.3304	42.5797	61	39
42.4548	43.4668	68	37
42.5797	42.7756	61	34
42.5797	42.8499	82	64
42.7148	42.9694	58	31
42.7823	43.2085	67	44
42.8499	43.4668	51	36
42.8499	44.3485	73	45
42.8499	43.4668	82	68
42.9694	43.4601	58	38
43.089	43.328	61	41
43.2085	43.4668	67	45
43.328	43.4668	61	42
43.328	43.5931	75	57
43.4601	44.2803	58	39
43.5931	44.2803	55	39
43.5931	44.205	75	57
43.7112	44.205	61	38
43.8293	44.0762	63	41
43.8293	43.9474	77	51
43.8884	44.2803	79	51
43.9474	44.2803	70	46
43.9474	44.2803	77	56
44.0762	44.2803	63	42
44.205	44.4564	61	39
44.205	44.3485	75	56
44.3485	44.8818	56	38
44.3485	45.5146	73	49
44.3485	45.5146	75	59
44.4564	44.8818	61	38
44.5643	44.7802	63	42
44.6722	44.8818	68	45
44.7802	44.8881	63	41
44.8881	45.5146	61	38
44.996	45.5146	51	38
44.996	46.1511	72	53
44.996	46.1511	80	64
45.0973	45.5027	60	37
45.1987	45.4014	63	40
45.3	45.5146	68	44
45.4014	45.5146	63	41
45.5027	46.1511	60	39
45.6041	46.1511	58	39
45.6041	47.5566	73	55
45.7054	46.1144	61	37
45.8068	46.0095	63	40
45.8068	46.1511	79	60
45.9081	46.1511	70	42
46.0095	46.1511	63	41
46.0095	46.4291	77	59
46.1144	46.3242	61	39
46.2193	46.8492	51	38
46.2193	46.8492	79	60
46.3242	46.8492	61	36
46.4291	46.6844	63	38
46.4291	46.8492	77	59
46.5567	46.8492	67	40
46.6844	46.8492	63	40
46.8492	47.5566	61	37
46.8492	47.5566	75	56
47.0141	47.5566	56	38
47.0141	49.1881	72	56
47.0141	47.6628	84	56
47.1242	47.5566	60	40
47.2334	47.4497	63	44
47.3419	47.5566	68	45
47.4497	47.5566	63	44
47.5566	47.9431	60	42
47.6628	49.1881	55	40
47.6628	48.2235	84	64
47.803	48.3774	56	41
47.9431	48.2235	60	45
48.0833	48.3863	63	49
48.2235	48.3863	60	47
48.2235	48.5312	84	63
48.3774	48.6567	56	41
48.5312	49.2844	54	36
48.5312	49.9035	84	68
48.6567	49.1588	56	36
48.7823	49.0333	60	39
48.9078	49.1881	63	42
49.0333	49.1881	60	41
49.1588	49.4099	56	38
49.2844	50.5092	54	38
49.4099	49.8898	56	41
49.5354	49.7717	60	41
49.5354	49.9035	82	63
49.6535	49.9035	63	41
49.7717	49.9035	60	38
49.8898	50.1096	56	35
49.8898	50.0064	80	63
50.0064	50.6146	53	33
50.0064	51.0981	80	63
50.1096	50.5092	56	33
50.212	50.4147	61	36
50.3138	50.5092	65	39
50.4147	50.515	61	37
50.515	50.7136	56	35
50.6146	51.0981	53	35
50.6146	51.2086	85	75
50.7136	51.0981	56	38
50.8126	51.0106	61	41
50.9116	51.0981	68	42
51.0106	51.1096	61	40
51.1096	51.3076	56	37
51.2086	51.6806	51	35
51.2086	51.6806	85	82
51.3076	51.6806	56	38
51.4067	51.6047	60	41
51.5057	51.6806	66	41
51.6047	51.7037	60	39
51.6047	51.8027	84	78
51.7037	51.9069	56	36
51.8027	52.3719	51	35
51.8027	52.3719	84	75
51.9069	52.3719	56	34
52.011	52.2463	60	37
52.011	52.3719	82	71
52.1287	52.3719	66	39
52.2463	52.3719	60	36
52.3719	52.6229	56	31
52.3719	53.1491	80	63
52.4974	53.1491	50	32
52.4974	53.2505	89	80
52.6229	53.125	56	31
52.7484	52.9995	59	35
52.874	53.1491	65	37
52.9995	53.1491	59	36
53.125	53.3962	56	34
53.2505	54.028	50	33
53.2505	53.8331	89	77
53.3962	54.0116	56	30
53.5418	53.8331	58	35
53.6874	54.028	65	37
53.8331	54.028	58	36
53.8331	54.1902	89	81
54.0116	54.8446	56	34
54.1902	54.8446	51	35
54.1902	55.6365	89	85
54.3242	54.8446	54	35
54.4567	54.7168	58	38
54.5875	54.8446	63	39
54.7168	54.8446	58	38
54.8446	55.1025	54	36
54.9709	55.6365	42	32
54.9709	55.6365	87	72
55.1025	55.6288	54	31
55.2341	55.4972	58	36
55.2341	55.6365	85	71
55.3656	55.6365	63	38
55.4972	55.6365	58	36
55.4972	56.4413	82	70
55.6288	56.4413	54	34
55.7604	56.4413	44	34
55.7604	57.2154	84	75
55.8919	56.4183	53	36
56.0235	56.2867	56	37
56.1551	56.4413	61	39
56.2867	56.4413	56	37
56.4183	56.6814	53	35
56.5498	57.2154	44	36
56.5498	57.2154	82	71
56.6814	57.2077	53	34
56.813	57.0761	56	35
56.813	57.2154	80	68
56.9446	57.2154	61	38
57.0761	57.2154	56	37
57.0761	58.0432	77	63
57.2077	58.0432	53	36
57.3393	58.0432	44	36
57.3393	58.0432	82	69
57.4709	57.9972	54	34
57.6024	57.8656	56	36
57.6024	58.0432	80	64
57.734	58.0432	60	36
57.8656	58.0432	56	35
57.8656	58.1287	78	61
57.9972	58.2657	54	34
58.1287	58.9201	44	34
58.1287	58.2657	78	55
58.1972	58.9201	80	55
58.2657	58.8747	54	31
58.2657	58.9201	78	63
58.4027	58.7042	56	35
58.4027	58.9201	77	58
58.5535	58.9201	60	37
58.7042	58.9201	56	35
58.8747	59.8226	54	33
58.8747	59.0451	76	59
59.0451	59.8226	49	34
59.0451	60.5803	76	59
59.1951	59.8226	56	33
59.3429	59.6321	61	36
59.4885	59.8226	65	37
59.6321	59.8226	61	36
59.7736	60.5803	58	35
59.9131	60.5803	56	37
59.9131	60.5803	77	63
60.0513	60.5803	61	36
60.1896	60.4661	65	39
60.3278	60.5803	68	40
60.4661	60.5954	65	39
60.4661	60.7894	80	57
60.5954	61.424	61	38
60.7247	61.5006	54	42
60.7247	61.424	68	57
60.7894	62.1549	80	57
60.854	61.3712	56	42
60.9833	61.2419	60	42
61.1126	61.424	63	42
61.2419	61.424	60	42
61.2419	62.1893	72	63
61.3712	61.6506	56	42
61.5006	62.7918	54	51
61.5006	62.1893	84	63
61.6506	62.1549	56	45
61.8006	62.0368	60	45
61.8006	62.1893	70	63
61.8006	62.1893	82	63
61.9187	62.1893	63	45
62.0368	62.1893	60	41
62.1549	62.3747	56	38
62.1549	62.2715	68	63
62.1549	62.2715	80	63
62.2715	62.8797	53	37
62.2715	63.1768	68	63
62.2715	63.4738	80	63
62.3747	62.7802	56	36
62.4772	62.6799	61	39
62.5789	62.7918	65	42
62.6799	62.7918	61	40
62.7802	62.9787	56	38
62.8797	63.3921	53	39
62.8797	63.4738	73	75
62.8797	63.4738	85	75
62.9787	63.3748	56	41
63.0777	63.2758	61	45
63.1768	63.3921	68	46
63.2758	63.3921	61	44
63.3748	63.5728	56	40
63.4738	63.992	51	39
63.4738	63.992	73	75
63.4738	64.5115	80	60
63.4738	63.992	85	75
63.5728	63.9689	56	41
63.6718	63.8698	60	45
63.7708	63.992	66	45
63.8698	63.992	60	42
63.8698	64.0679	72	78
63.8698	64.0679	84	78
63.9689	64.172	56	39
64.0679	64.632	51	37
64.0679	64.632	72	75
64.0679	64.632	84	75
64.172	64.632	56	37
64.2762	64.5115	60	40
64.3938	64.632	66	42
64.3938	64.632	70	71
64.3938	64.632	82	71
64.5115	64.632	60	39
64.5115	65.389	68	63
64.5115	64.7525	80	63
64.632	64.8729	56	34
64.7525	65.389	50	39
64.7525	65.4754	77	68
64.7525	65.4754	80	80
64.7525	65.4754	89	80
64.8729	65.3549	56	37
64.9934	65.2344	59	41
65.1139	65.389	65	44
65.2344	65.389	59	42
65.3549	65.6069	56	40
65.4754	66.1654	50	35
65.4754	66.0017	77	65
65.4754	66.0017	80	77
65.4754	66.0017	89	77
65.6069	66.1517	56	36
65.7385	66.0017	58	41
65.8701	66.1654	65	44
66.0017	66.1654	58	42
66.0017	66.3017	77	62
66.0017	66.3017	80	74
66.0017	66.3017	89	74
66.1517	67.0004	56	40
66.3017	67.0004	51	35
66.3017	67.778	77	69
66.3017	67.778	80	82
66.3017	67.778	89	82
66.4357	66.956	54	38
66.5681	66.8283	58	41
66.699	67.0004	63	42
66.8283	67.0004	58	41
66.956	67.2139	54	39
67.0824	67.778	42	34
67.0824	67.778	75	56
67.0824	67.3455	78	67
67.0824	67.778	87	67
67.2139	67.7523	54	34
67.3455	67.6147	58	39
67.3455	67.778	73	55
67.3455	67.7523	78	65
67.3455	67.778	85	65
67.4771	67.778	63	41
67.6147	67.778	58	39
67.7523	68.5956	54	37
67.7523	68.5956	70	54
67.7523	68.5956	78	64
67.7523	68.5956	82	64
67.8994	68.5956	44	36
67.8994	69.2603	72	52
67.8994	68.9055	80	62
67.8994	69.2603	84	62
68.031	68.5573	53	39
68.1625	68.4257	56	40
68.2941	68.5956	61	42
68.4257	68.5956	56	40
68.5573	68.7972	53	38
68.6888	69.2603	44	35
68.6888	69.1221	70	54
68.6888	69.2603	78	64
68.6888	69.1221	82	64
68.7972	69.2397	53	35
68.9055	69.1221	56	37
68.9055	69.2603	68	57
68.9055	69.1221	77	68
68.9055	69.2603	80	68
69.0138	69.2603	61	39
69.1221	69.2603	56	37
69.1221	69.8279	70	61
69.1221	69.3574	77	72
69.1221	69.8279	82	72
69.2397	69.475	53	35
69.3574	69.9515	44	35
69.3574	69.9515	71	65
69.3574	69.8279	77	77
69.3574	69.9515	83	77
69.475	69.9456	53	37
69.5926	69.8279	56	39
69.7103	69.9515	62	41
69.8279	69.9515	56	39
69.8279	70.674	70	63
69.8279	70.0632	77	75
69.8279	70.674	82	75
69.9456	70.1809	53	36
70.0632	70.674	44	37
70.0632	71.3642	71	66
70.0632	71.2396	77	78
70.0632	71.3642	83	78
70.1809	70.6514	53	39
70.2985	70.5338	56	43
70.4161	70.674	62	48
70.5338	70.674	56	45
70.6514	70.8867	53	41
70.7691	71.3642	44	39
70.8867	71.3442	53	40
71.0044	71.2396	56	43
71.122	71.3642	62	45
71.2396	71.3642	56	42
71.2396	71.6549	70	64
71.2396	71.4487	77	76
71.2396	71.6549	82	76
71.3442	71.5518	53	36
71.4487	71.9839	44	39
71.4487	71.8611	71	68
71.4487	71.6549	77	81
71.4487	71.8611	83	81
71.5518	71.9641	53	40
71.6549	71.8611	56	43
71.6549	71.9839	70	66
71.6549	71.8611	77	78
71.6549	71.9839	82	78
71.758	71.9839	62	47
71.8611	71.9839	56	44
71.8611	72.0672	71	66
71.8611	72.5827	77	78
71.8611	72.0672	83	78
71.9641	72.5827	53	40
72.0672	72.5827	44	41
72.0672	72.5827	71	68
72.0672	72.4796	78	81
72.0672	72.5827	83	81
72.1703	72.5827	51	43
72.2734	72.4796	54	47
72.3765	72.5827	63	50
72.4796	72.5827	54	46
72.4796	73.1952	70	69
72.4796	73.1952	78	82
72.4796	72.6858	82	82
72.5827	72.7889	51	43
72.6858	73.1952	44	67
72.6858	73.8318	82	81
72.6858	73.8318	90	96
72.6858	73.8318	94	96
72.7889	73.1952	51	50
72.892	73.0981	54	55
72.9951	73.1952	63	58
73.0981	73.2012	54	55
73.2012	73.4074	51	52
73.3043	73.8318	44	62
73.4074	73.8198	51	50
73.5105	73.7167	54	55
73.6136	73.8318	60	58
73.6136	73.7167	72	68
73.6136	73.7167	78	80
73.6136	73.7167	84	80
73.7167	73.8318	54	55
73.7167	73.9229	72	68
73.7167	73.9229	78	80
73.7167	73.9229	84	80
73.8198	74.026	51	51
73.9229	74.4624	44	67
73.9229	74.4624	72	79
73.9229	74.3352	78	93
73.9229	74.4624	84	93
74.026	74.4383	51	57
74.1291	74.3352	54	61
74.2321	74.4624	60	65
74.2321	74.4624	77	75
74.2321	74.4624	80	89
74.2321	74.4624	89	89
74.3352	74.4624	54	62
74.3352	75.6029	75	78
74.3352	75.6029	78	92
74.3352	75.6029	87	92
74.4383	75.6029	51	59
74.5414	75.6029	37	71
74.5414	75.2564	73	88
74.5414	75.4494	77	104
74.5414	75.5458	85	104
74.9538	75.6029	44	70
75.0569	75.6029	53	75
75.16	75.6029	61	83
75.16	75.6029	65	97
75.2564	75.6029	73	75
75.3529	75.6029	80	79
75.4494	75.6029	77	83
75.5458	75.6423	85	87
75.6423	76.7683	94	91
75.7388	76.7683	32	73
75.7388	76.6868	84	86
75.7388	76.7683	92	96
76.1246	76.7683	44	68
76.2211	76.7683	51	74
76.3175	76.7683	60	84
76.3175	76.7683	66	97
76.4099	76.7683	72	75
76.5022	76.7683	80	80
76.5945	76.7683	78	84
76.6868	76.7791	84	88
76.7791	77.8598	92	93
76.8714	77.8598	37	78
76.8714	77.8038	85	87
76.8714	77.8598	89	97
77.2406	77.8598	44	70
77.3329	77.8598	53	75
77.4252	77.8598	61	83
77.4252	77.8598	65	97
77.5199	77.8598	73	75
77.6145	77.8598	80	79
77.7092	77.8598	77	83
77.8038	77.8984	85	87
77.8984	79.0076	94	91
77.9931	79.0076	32	78
77.9931	78.9268	84	86
77.9931	79.0076	92	96
78.3716	79.0076	44	68
78.4663	79.0076	51	74
78.5609	79.0076	60	84
78.5609	79.0076	66	97
78.6524	79.0076	72	75
78.7438	79.0076	80	80
78.8353	79.0076	78	84
78.9268	79.0182	84	88
79.0182	80.0234	92	93
79.1097	81.0806	25	82
79.1097	79.9414	85	87
79.1097	82.109	89	97
79.443	82.109	44	68
79.5264	80.6741	53	74
79.6097	80.5928	61	84
79.6097	80.4302	65	97
79.6932	80.3489	73	75
79.7763	80.2676	80	78
79.8591	80.1863	77	75
79.9414	80.105	85	79
80.0234	82.109	92	75
80.105	81.665	85	78
80.1863	82.109	77	75
80.2676	82.109	80	80
80.3489	81.665	73	75
80.4302	82.109	65	79
80.5115	82.109	68	75
80.5928	81.665	61	78
80.6741	82.109	53	77
80.7554	82.109	56	82
80.8367	80.9993	49	79
80.918	82.109	41	87
80.9993	82.109	49	85
81.0806	82.109	25	86
81.0806	82.109	37	102
81.665	82.2494	61	86
81.665	82.2494	73	102
81.665	82.2494	85	85
81.665	82.2494	97	101
83.866	83.9406	45	27
83.866	83.9406	57	29
83.9406	84.0153	46	28
83.9406	84.0153	58	31
84.0153	84.0899	49	29
84.0153	84.0899	61	33
84.0899	84.2018	53	34
84.0899	84.2018	65	38
84.5377	84.6123	45	26
84.5377	84.6123	57	29
84.6123	84.6869	46	27
84.6123	84.6869	58	31
84.6869	84.7616	49	29
84.6869	84.7616	61	32
84.7616	84.8735	53	34
84.7616	84.8735	65	38
86.1049	88.3828	34	95
86.1049	88.3828	46	95
86.1049	86.6674	58	100
86.6674	87.7924	58	72
86.6674	87.7924	60	72
86.6674	87.7924	63	85
86.6674	87.7924	66	85
86.6674	87.7924	70	85
86.6674	88.3828	82	78
86.6674	88.1792	90	92
86.6674	88.3828	94	92
87.7924	88.0795	58	47
87.7924	88.0795	60	47
87.7924	88.0795	63	56
87.7924	88.0795	66	56
87.7924	88.0795	70	56
87.7924	88.3828	75	51
87.7924	88.0795	84	61
87.7924	88.3828	87	61
88.0795	88.1792	58	51
88.0795	88.1792	60	51
88.0795	88.1792	63	61
88.0795	88.1792	66	61
88.0795	88.1792	70	61
88.0795	88.3828	77	57
88.0795	88.1792	84	68
88.0795	88.3828	89	68
88.1792	88.4211	58	56
88.1792	88.4211	60	56
88.1792	88.4211	63	66
88.1792	88.4211	66	66
88.1792	88.4211	70	66
88.1792	88.4211	78	60
88.1792	88.4211	84	71
88.1792	88.4211	90	71
88.4211	88.6252	58	52
88.4211	88.6252	61	52
88.4211	88.6252	65	62
88.4211	88.6252	70	62
88.4211	88.6252	77	57
88.4211	88.6252	85	68
88.4211	88.6252	89	68
88.8293	88.8973	45	27
88.8293	88.8973	57	27
88.8973	88.9653	46	28
88.8973	88.9653	58	29
88.9653	89.0334	49	30
88.9653	89.0334	61	30
89.0334	89.1354	53	35
89.0334	89.1354	65	35
89.4415	89.5095	45	26
89.4415	89.5095	57	27
89.5095	89.5776	46	28
89.5095	89.5776	58	29
89.5776	89.6456	49	30
89.5776	89.6456	61	30
89.6456	89.7399	53	34
89.6456	89.7399	65	35
90.7777	92.2559	32	95
90.7777	92.2559	44	95
90.7777	91.2994	56	100
91.2994	92.3429	56	75
91.2994	92.3429	65	89
91.2994	92.3429	73	89
91.2994	92.3429	80	76
91.2994	92.3429	89	90
91.2994	92.3429	92	90
92.3429	92.4762	56	44
92.3429	92.4762	63	52
92.3429	92.4762	66	52
92.3429	92.4762	68	52
92.3429	92.4762	75	51
92.3429	92.4762	84	60
92.3429	92.4762	87	60
92.4762	92.6095	56	44
92.4762	92.6095	63	52
92.4762	92.6095	66	52
92.4762	92.6095	68	52
92.4762	92.6095	76	51
92.4762	92.6095	84	60
92.4762	92.6095	88	60
92.6095	92.7429	56	45
92.6095	92.7429	63	54
92.6095	92.7429	66	54
92.6095	92.7429	68	54
92.6095	92.7429	77	55
92.6095	92.7429	84	65
92.6095	92.7429	89	65
92.7429	92.8663	56	51
92.7429	92.8663	63	61
92.7429	92.8663	66	61
92.7429	92.8663	68	61
92.7429	92.8663	80	61
92.7429	92.8663	84	72
92.7429	92.8663	92	72
92.8663	92.9847	56	49
92.8663	92.9847	63	58
92.8663	92.9847	66	58
92.8663	92.9847	68	58
92.8663	92.9847	78	70
92.8663	92.9847	84	70
92.8663	92.9847	90	70
92.9847	93.1586	61	49
92.9847	93.1586	65	58
92.9847	93.1586	68	58
92.9847	93.1586	77	56
92.9847	93.1586	85	67
92.9847	93.1586	89	67
93.5064	94.0282	53	77
93.5064	94.2174	60	77
93.5064	94.0282	65	77
93.5064	94.2174	69	81
93.5064	94.2174	77	81
94.0282	94.4067	41	77
94.0282	94.4067	48	77
94.0282	94.4067	53	77
94.0282	94.4067	57	81
94.0282	94.4067	65	81
94.596	95.9776	29	79
94.596	95.9776	41	94
95.9776	96.1256	30	82
95.9776	96.1256	42	97
97.9703	98.0393	45	27
97.9703	98.0393	57	27
98.0393	98.1082	46	28
98.0393	98.1082	58	29
98.1082	98.1772	49	29
98.1082	98.1772	61	30
98.1772	98.2806	53	34
98.1772	98.2806	65	35
98.591	98.6599	45	27
98.591	98.6599	57	29
98.6599	98.7289	46	28
98.6599	98.7289	58	30
98.7289	98.7979	49	29
98.7289	98.7979	61	31
98.7979	98.9013	53	34
98.7979	98.9013	65	35
100.039	100.53	34	95
100.039	100.53	46	95
100.039	100.53	58	100
100.602	101.446	58	72
100.602	101.446	60	72
100.602	101.446	63	85
100.602	101.446	66	85
100.602	101.446	70	85
100.602	101.446	82	78
100.602	101.446	90	92
100.602	101.446	94	92
101.446	101.539	58	47
101.446	101.539	60	47
101.446	101.539	63	56
101.446	101.539	66	56
101.446	101.539	70	56
101.446	101.539	75	49
101.446	101.539	84	58
101.446	101.539	87	58
101.539	101.727	58	47
101.539	101.727	60	47
101.539	101.727	63	56
101.539	101.727	66	56
101.539	101.727	70	56
101.539	101.727	75	49
101.539	101.727	84	58
101.539	101.727	87	58
101.727	102.008	58	47
101.727	102.008	60	47
101.727	102.008	63	56
101.727	102.008	66	56
101.727	102.008	70	56
101.727	102.008	75	51
101.727	102.008	84	61
101.727	102.008	87	61
102.008	102.102	58	51
102.008	102.102	60	51
102.008	102.102	63	61
102.008	102.102	66	61
102.008	102.102	70	61
102.008	102.102	77	57
102.008	102.102	84	68
102.008	102.102	89	68
102.102	102.335	58	56
102.102	102.335	60	56
102.102	102.335	63	66
102.102	102.335	66	66
102.102	102.335	70	66
102.102	102.335	78	60
102.102	102.335	84	71
102.102	102.335	90	71
102.335	102.539	58	52
102.335	102.539	61	52
102.335	102.539	65	62
102.335	102.539	70	62
102.335	102.539	77	57
102.335	102.539	85	68
102.335	102.539	89	68
102.743	102.811	45	27
102.743	102.811	57	29
102.811	102.879	46	29
102.811	102.879	58	30
102.879	102.947	49	30
102.879	102.947	61	32
102.947	103.049	53	35
102.947	103.049	65	37
103.356	103.424	45	24
103.356	103.424	57	29
103.424	103.492	46	26
103.424	103.492	58	30
103.492	103.56	49	27
103.492	103.56	61	32
103.56	103.654	53	34
103.56	103.654	65	37
104.627	105.964	24	95
104.627	105.964	36	95
104.627	105.964	48	100
105.128	106.131	60	75
105.128	106.131	65	89
105.128	106.131	68	89
105.128	106.131	72	89
105.128	106.131	84	76
105.128	106.131	92	90
105.128	106.131	96	90
106.131	106.316	60	58
106.131	106.316	64	69
106.131	106.316	70	69
106.131	106.316	72	69
106.131	106.316	85	62
106.131	106.316	91	73
106.131	106.316	97	73
106.316	106.5	60	53
106.316	106.5	64	63
106.316	106.5	70	63
106.316	106.5	72	63
106.316	106.5	84	60
106.316	106.5	91	71
106.316	106.5	96	71
106.5	106.65	60	51
106.5	106.65	64	61
106.5	106.65	70	61
106.5	106.65	72	61
106.5	106.65	77	56
106.5	106.65	84	67
106.5	106.65	89	67
106.65	106.8	60	52
106.65	106.8	64	62
106.65	106.8	70	62
106.65	106.8	72	62
106.65	106.8	79	57
106.65	106.8	84	68
106.65	106.8	91	68
106.8	106.974	65	68
106.8	106.974	68	68
106.8	106.974	72	68
106.8	106.974	80	62
106.8	106.974	89	73
106.8	106.974	92	73
107.322	107.866	53	65
107.322	107.866	60	77
107.322	107.866	65	77
107.322	107.866	68	68
107.322	108.077	72	81
107.322	108.077	77	81
107.322	108.077	80	81
107.866	108.288	41	65
107.866	108.288	48	77
107.866	108.288	53	77
107.866	108.288	56	68
107.866	108.288	60	81
107.866	108.288	65	81
107.866	108.288	68	81
108.499	109.684	28	79
108.499	109.684	40	94
109.684	110.437	29	94
109.684	110.437	41	94
110.437	110.521	26	45
110.437	110.521	38	50
110.521	110.604	27	45
110.521	110.604	39	51
110.604	110.688	29	45
110.604	110.688	41	51
110.688	110.772	29	47
110.688	110.772	41	53
110.772	110.855	27	49
110.772	110.855	39	55
110.855	110.939	29	50
110.855	110.939	41	56
110.939	111.017	27	51
110.939	111.017	39	56
111.017	111.096	29	51
111.017	111.096	41	57
111.096	111.169	27	52
111.096	111.169	39	58
111.169	111.242	29	53
111.169	111.242	41	59
111.242	111.316	27	53
111.242	111.316	39	60
111.316	111.389	29	54
111.316	111.389	41	61
111.389	111.452	27	55
111.389	111.452	39	62
111.452	111.515	29	55
111.452	111.515	41	62
111.515	111.581	27	56
111.515	111.581	39	62
111.581	111.65	29	55
111.581	111.65	41	63
111.65	111.722	27	59
111.65	111.722	39	64
111.722	111.796	29	56
111.722	111.796	41	63
111.796	111.994	26	73
111.796	111.994	38	73
111.994	113.954	27	73
111.994	113.954	39	73
112.205	113.954	25	74
112.205	113.954	37	88
112.205	113.954	101	97
112.711	113.339	44	45
112.711	113.339	56	45
112.937	113.516	53	53
112.937	113.516	61	53
113.162	113.954	99	68
113.251	113.954	97	61
113.339	113.954	44	42
113.339	113.954	56	42
113.339	113.954	92	65
113.428	113.954	89	59
113.516	113.954	53	47
113.516	113.954	61	47
113.516	113.954	87	62
113.605	113.954	85	56
113.693	113.954	80	58
113.782	113.954	77	53
113.87	113.959	75	55
113.959	114.047	73	50
114.047	114.224	68	52
114.578	115.047	32	52
114.578	115.047	44	52
114.578	115.047	72	55
114.667	115.047	73	52
114.756	115.047	75	50
114.846	115.047	77	47
114.936	115.047	78	45
115.021	115.112	80	42
115.117	115.335	55	38
115.117	115.335	60	38
115.117	115.335	66	38
115.117	115.226	81	40
115.335	115.533	56	35
115.335	115.533	60	35
115.335	115.533	66	35
115.533	115.631	56	31
115.533	115.631	60	31
115.533	115.631	66	31
115.73	115.82	81	50
115.82	115.91	80	49
115.91	116.0	79	47
116.0	116.089	78	46
116.089	116.177	77	44
116.177	116.266	76	42
116.266	116.481	57	35
116.266	116.481	60	35
116.266	116.481	66	35
116.266	116.373	75	41
116.481	116.678	56	32
116.481	116.678	60	32
116.481	116.678	66	32
116.678	116.777	56	28
116.678	116.777	60	28
116.678	116.777	66	28
116.876	118.523	25	74
116.876	118.523	37	88
116.876	118.523	101	97
117.327	117.921	44	45
117.327	117.921	56	45
117.537	118.095	53	53
117.537	118.095	61	53
117.748	118.523	99	68
117.834	118.523	97	61
117.921	118.523	44	42
117.921	118.523	56	42
117.921	118.523	92	65
118.008	118.523	89	59
118.095	118.523	53	47
118.095	118.523	61	47
118.095	118.523	87	62
118.181	118.523	85	57
118.268	118.523	80	58
118.355	118.523	77	53
118.441	118.528	75	55
118.528	118.615	73	51
118.615	118.788	68	52
119.133	119.668	65	25
119.133	119.668	72	42
119.133	119.31	75	25
119.222	119.31	73	41
119.31	119.668	75	41
119.399	119.488	77	40
119.488	119.578	78	39
119.573	119.662	80	38
119.668	119.758	60	32
119.668	119.758	81	37
119.758	119.847	61	32
119.847	119.937	63	32
119.937	120.027	65	32
120.027	120.117	66	32
120.117	120.207	68	32
120.207	120.295	69	32
120.207	120.295	81	42
120.295	120.383	80	41
120.383	120.471	79	40
120.471	120.559	78	39
120.559	120.648	77	37
120.648	120.736	76	36
120.736	120.83	57	30
120.736	120.927	75	35
120.83	120.927	56	29
120.927	121.026	55	28
121.026	121.128	54	27
121.128	121.234	53	26
121.234	121.924	51	25
121.342	121.924	49	27
121.342	122.755	71	40
121.342	122.681	77	59
121.459	121.924	56	28
121.575	121.807	61	30
121.691	121.924	65	34
121.807	121.924	61	31
121.924	122.681	56	30
122.04	122.681	49	29
122.156	122.626	59	28
122.272	122.507	61	30
122.272	122.681	75	53
122.389	122.681	65	31
122.507	122.681	61	30
122.626	122.87	59	29
122.626	122.755	73	52
122.755	123.372	54	28
122.755	124.009	71	43
122.755	124.009	73	58
122.87	123.334	59	28
122.986	123.218	61	31
123.102	123.372	66	34
123.218	123.372	61	31
123.334	124.009	59	29
123.45	124.009	49	29
123.45	124.644	70	56
123.45	124.644	78	56
123.559	123.99	58	28
123.668	123.883	61	30
123.776	124.009	66	33
123.883	124.009	61	31
123.99	124.644	58	30
124.096	124.644	56	28
124.096	125.958	71	50
124.202	124.628	59	28
124.307	124.519	61	30
124.413	124.644	68	33
124.519	124.644	61	31
124.519	124.738	77	52
124.628	124.845	59	29
124.738	125.296	49	29
124.738	125.296	77	51
124.845	125.296	59	28
124.953	125.17	61	30
124.953	125.296	75	50
125.061	125.296	65	31
125.17	125.296	61	30
125.17	125.42	73	49
125.296	125.958	59	29
125.42	125.958	54	29
125.42	126.746	70	44
125.42	126.063	73	44
125.42	126.063	82	56
125.529	125.958	58	30
125.638	125.852	61	34
125.746	125.958	66	35
125.852	125.958	61	34
125.958	126.184	58	33
126.063	126.746	52	35
126.063	126.428	68	44
126.063	126.823	73	44
126.063	126.553	82	62
126.184	126.688	58	36
126.304	126.553	61	39
126.428	127.459	68	37
126.553	126.746	61	34
126.553	126.823	82	64
126.688	126.943	58	31
126.756	127.182	67	44
126.823	127.459	51	36
126.823	128.322	73	45
126.823	127.459	82	68
126.943	127.434	58	38
127.062	127.301	61	41
127.182	127.459	67	45
127.301	127.459	61	42
127.301	127.567	75	57
127.434	128.243	58	39
127.567	128.243	55	36
127.567	128.178	75	57
127.685	128.178	61	38
127.803	128.05	63	41
127.803	127.921	77	51
127.862	128.243	79	51
127.921	128.243	70	46
127.921	128.243	77	56
128.05	128.243	63	42
128.178	128.43	61	39
128.178	128.322	75	56
128.322	128.874	56	37
128.322	129.5	73	49
128.322	129.5	75	59
128.43	128.861	61	38
128.538	128.754	63	42
128.646	128.874	68	45
128.754	128.874	63	41
128.861	129.5	61	38
128.969	129.5	51	36
128.969	130.076	72	53
128.969	130.076	80	64
129.071	129.476	60	37
129.172	129.375	63	40
129.273	129.5	68	44
129.375	129.5	63	41
129.476	130.076	60	39
129.577	130.076	58	36
129.577	131.542	73	55
129.679	130.076	61	37
129.78	129.983	63	40
129.78	130.076	79	60
129.882	130.076	70	42
129.983	130.088	63	41
129.983	130.402	77	59
130.088	130.298	61	39
130.193	130.846	51	37
130.193	130.846	79	60
130.298	130.823	61	36
130.402	130.658	63	38
130.402	130.846	77	59
130.53	130.846	67	40
130.658	130.846	63	40
130.823	131.542	61	37
130.823	131.542	75	56
130.987	131.542	56	50
130.987	133.162	72	56
130.987	131.636	84	56
131.098	131.53	60	40
131.207	131.423	63	44
131.315	131.542	68	45
131.423	131.542	63	44
131.53	131.917	60	42
131.636	133.162	55	39
131.636	132.197	84	64
131.776	132.351	56	41
131.917	132.197	60	45
132.057	132.387	63	49
132.197	132.387	60	47
132.197	132.505	84	63
132.351	132.63	56	41
132.505	133.258	54	38
132.505	133.87	84	68
132.63	133.132	56	36
132.756	133.007	60	39
132.881	133.162	63	42
133.007	133.162	60	41
133.132	133.383	56	38
133.258	134.477	54	47
133.383	133.863	56	41
133.509	133.745	60	41
133.509	133.87	82	63
133.627	133.87	63	41
133.745	133.87	60	38
133.863	134.083	56	35
133.863	133.98	80	63
133.98	134.588	53	34
133.98	135.071	80	63
134.083	134.477	56	33
134.185	134.388	61	36
134.287	134.477	65	39
134.388	134.488	61	37
134.488	134.687	56	35
134.588	135.071	53	36
134.588	135.182	85	75
134.687	135.071	56	38
134.786	134.984	61	41
134.885	135.071	68	42
134.984	135.083	61	40
135.083	135.281	56	37
135.182	135.694	51	35
135.182	135.694	85	82
135.281	135.677	56	38
135.38	135.578	60	41
135.479	135.694	66	41
135.578	135.694	60	39
135.578	135.776	84	78
135.677	135.88	56	36
135.776	136.367	51	34
135.776	136.367	84	75
135.88	136.345	56	34
135.984	136.22	60	37
135.984	136.367	82	71
136.102	136.367	66	39
136.22	136.367	60	36
136.345	136.596	56	31
136.345	137.116	80	63
136.471	137.116	50	31
136.471	137.224	89	80
136.596	137.098	56	31
136.722	136.973	59	35
136.847	137.116	65	37
136.973	137.116	59	36
137.098	137.37	56	34
137.224	138.028	50	34
137.224	137.806	89	77
137.37	137.985	56	30
137.515	137.806	58	35
137.661	138.028	65	37
137.806	138.028	58	36
137.806	138.164	89	81
137.985	138.848	56	34
138.164	138.848	51	34
138.164	139.602	89	85
138.298	138.818	54	35
138.43	138.69	58	38
138.561	138.848	63	39
138.69	138.848	58	38
138.818	139.076	54	36
138.944	139.602	42	34
138.944	139.602	87	72
139.076	139.602	54	31
139.207	139.471	58	36
139.207	139.602	85	71
139.339	139.602	63	38
139.471	139.602	58	36
139.471	140.392	82	70
139.602	140.392	54	34
139.734	140.392	44	35
139.734	141.181	84	75
139.865	140.392	53	36
139.997	140.26	56	37
140.129	140.392	61	39
140.26	140.392	56	37
140.392	140.655	53	35
140.523	141.181	44	33
140.523	141.181	82	71
140.655	141.181	53	34
140.786	141.05	56	35
140.786	141.181	80	68
140.918	141.181	61	38
141.05	141.181	56	37
141.05	141.971	77	63
141.181	141.971	53	36
141.313	141.971	44	39
141.313	141.971	82	69
141.444	141.971	54	34
141.576	141.839	56	36
141.576	141.971	80	64
141.707	141.971	60	36
141.839	141.971	56	35
141.839	142.102	78	61
141.971	142.239	54	34
142.102	142.903	44	31
142.102	142.239	78	55
142.171	142.903	80	55
142.239	142.848	54	31
142.239	142.903	78	63
142.376	142.678	56	35
142.376	142.903	77	58
142.527	142.903	60	37
142.678	142.903	56	35
142.848	143.731	54	33
142.848	143.019	76	59
143.019	143.731	49	33
143.019	144.576	76	59
143.169	143.731	56	33
143.316	143.605	61	36
143.462	143.731	65	37
143.605	143.747	61	36
143.747	144.576	58	35
143.886	144.576	56	36
143.886	144.576	77	63
144.025	144.569	61	36
144.163	144.439	65	39
144.301	144.576	68	40
144.439	144.576	65	39
144.439	144.761	80	57
144.569	145.361	61	38
144.698	145.458	54	38
144.698	145.361	68	57
144.761	146.105	80	57
144.825	145.331	56	42
144.951	145.204	60	42
145.078	145.361	63	42
145.204	145.361	60	42
145.204	146.105	72	63
145.331	145.608	56	42
145.458	146.743	54	41
145.458	146.105	84	63
145.608	146.105	56	45
145.758	145.994	60	45
145.758	146.112	70	63
145.758	146.112	82	63
145.876	146.105	63	45
145.994	146.112	60	41
146.112	146.332	56	38
146.112	146.229	68	63
146.112	146.229	80	63
146.229	146.837	53	37
146.229	147.134	68	63
146.229	147.431	80	63
146.332	146.737	56	36
146.434	146.637	61	39
146.536	146.743	65	42
146.637	146.743	61	40
146.737	146.936	56	38
146.837	147.332	53	39
146.837	147.431	73	75
146.837	147.431	85	75
146.936	147.332	56	41
147.035	147.233	61	45
147.134	147.332	68	46
147.233	147.332	61	44
147.332	147.53	56	40
147.431	147.937	51	39
147.431	147.937	73	75
147.431	148.025	78	60
147.431	148.025	80	60
147.431	147.937	85	75
147.53	147.926	56	41
147.629	147.827	60	45
147.728	147.937	66	45
147.728	147.827	72	71
147.728	147.827	84	71
147.827	147.937	60	42
147.827	148.025	72	78
147.827	148.025	84	78
147.926	148.129	56	39
148.025	148.554	51	38
148.025	148.554	72	75
148.025	148.469	78	60
148.025	148.469	80	60
148.025	148.554	84	75
148.129	148.554	56	37
148.233	148.469	60	40
148.351	148.554	66	42
148.351	148.554	70	71
148.351	148.554	82	71
148.469	148.589	60	39
148.469	149.346	68	63
148.469	149.346	78	60
148.469	148.709	80	63
148.589	148.83	56	34
148.709	149.346	50	35
148.709	149.432	77	68
148.709	149.432	80	80
148.709	149.432	89	80
148.83	149.312	56	37
148.95	149.191	59	41
149.071	149.346	65	44
149.191	149.346	59	42
149.312	149.564	56	40
149.432	150.172	50	35
149.432	149.959	77	65
149.432	149.959	80	77
149.432	149.959	89	77
149.564	150.109	56	36
149.696	149.959	58	41
149.827	150.172	65	44
149.959	150.172	58	42
149.959	150.259	77	66
149.959	150.259	80	78
149.959	150.259	89	78
150.109	150.972	56	40
150.259	150.972	51	37
150.259	151.685	77	69
150.259	151.685	80	82
150.259	151.685	89	82
150.393	150.913	54	38
150.525	150.785	58	41
150.656	150.972	63	42
150.785	150.972	58	41
150.913	151.171	54	39
151.039	151.685	42	37
151.039	151.685	75	56
151.039	151.303	78	67
151.039	151.685	87	67
151.171	151.685	54	34
151.303	151.572	58	39
151.303	151.709	73	55
151.303	151.709	78	65
151.303	151.709	85	65
151.434	151.685	63	41
151.572	151.709	58	39
151.709	152.537	54	37
151.709	152.537	70	54
151.709	152.537	78	64
151.709	152.537	82	64
151.856	152.537	44	37
151.856	153.224	72	52
151.856	152.862	80	62
151.856	153.224	84	62
151.988	152.514	53	39
152.12	152.383	56	40
152.251	152.537	61	42
152.383	152.537	56	40
152.514	152.754	53	38
152.646	153.224	44	35
152.646	153.079	70	54
152.646	153.224	78	64
152.646	153.079	82	64
152.754	153.197	53	35
152.862	153.079	56	37
152.862	153.224	68	57
152.862	153.079	77	68
152.862	153.224	80	68
152.971	153.224	61	39
153.079	153.224	56	37
153.079	153.785	70	61
153.079	153.314	77	72
153.079	153.785	82	72
153.197	153.432	53	35
153.314	153.919	44	38
153.314	153.919	71	65
153.314	153.785	77	77
153.314	153.919	83	77
153.432	153.903	53	37
153.55	153.785	56	39
153.667	153.919	62	41
153.785	153.919	56	39
153.785	154.648	70	63
153.785	154.02	77	75
153.785	154.648	82	75
153.903	154.138	53	36
154.02	154.648	44	40
154.02	155.311	71	66
154.02	155.197	77	78
154.02	155.311	83	78
154.138	154.608	53	39
154.256	154.491	56	43
154.373	154.648	62	48
154.491	154.648	56	45
154.608	154.844	53	41
154.726	155.311	44	40
154.844	155.301	53	40
154.961	155.197	56	43
155.079	155.311	62	45
155.197	155.311	56	42
155.197	155.612	70	64
155.197	155.406	77	76
155.197	155.612	82	76
155.301	155.509	53	36
155.406	155.907	44	52
155.406	155.818	71	68
155.406	155.612	77	81
155.406	155.818	83	81
155.509	155.907	53	40
155.612	155.818	56	43
155.612	155.907	70	66
155.612	155.818	77	78
155.612	155.907	82	78
155.715	155.907	62	47
155.818	155.921	56	44
155.818	156.024	71	66
155.818	156.552	77	78
155.818	156.024	83	78
155.921	156.552	53	40
156.024	156.552	44	54
156.024	156.552	71	68
156.024	156.437	78	81
156.024	156.552	83	81
156.127	156.54	51	43
156.23	156.437	54	47
156.334	156.552	63	50
156.437	156.552	54	46
156.437	157.146	70	69
156.437	157.146	78	82
156.437	156.643	82	82
156.54	156.746	51	43
156.643	157.146	44	67
156.643	157.795	82	80
156.643	157.795	90	95
156.643	157.795	94	95
156.746	157.146	51	50
156.849	157.055	54	55
156.952	157.146	63	58
157.055	157.158	54	55
157.158	157.364	51	52
157.261	157.795	44	62
157.364	157.777	51	50
157.468	157.674	54	55
157.571	157.795	60	58
157.571	157.674	72	68
157.571	157.674	78	80
157.571	157.674	84	80
157.674	157.795	54	55
157.674	157.88	72	68
157.674	157.88	78	80
157.674	157.88	84	80
157.777	157.983	51	51
157.88	158.389	44	67
157.88	158.389	72	79
157.88	158.292	78	93
157.88	158.389	84	93
157.983	158.389	51	57
158.086	158.292	54	61
158.189	158.389	60	65
158.189	158.389	77	75
158.189	158.389	80	89
158.189	158.389	89	89
158.292	158.395	54	62
158.292	159.56	75	78
158.292	159.56	78	92
158.292	159.56	87	92
158.395	159.56	51	59
158.498	159.56	37	71
158.498	159.213	73	85
158.498	159.406	77	101
158.498	159.503	85	101
158.911	159.56	44	70
159.014	159.56	53	75
159.117	159.56	61	83
159.117	159.56	65	97
159.213	159.56	73	75
159.31	159.56	80	79
159.406	159.56	77	83
159.503	159.599	85	87
159.599	160.725	94	91
159.696	160.725	32	87
159.696	160.644	84	86
159.696	160.725	92	96
160.082	160.725	44	68
160.178	160.725	51	74
160.275	160.725	60	84
160.275	160.725	66	97
160.367	160.725	72	75
160.459	160.725	80	80
160.551	160.725	78	84
160.644	160.736	84	88
160.736	161.817	92	93
160.828	161.817	37	87
160.828	161.761	85	87
160.828	161.817	89	97
161.198	161.817	44	70
161.29	161.817	53	75
161.382	161.817	61	83
161.382	161.817	65	97
161.477	161.817	73	75
161.572	161.817	80	79
161.666	161.817	77	83
161.761	161.855	85	87
161.855	162.965	94	91
161.95	162.965	32	87
161.95	162.884	84	86
161.95	162.965	92	96
162.329	162.965	44	68
162.423	162.965	51	74
162.518	162.965	60	84
162.518	162.965	66	97
162.609	162.965	72	75
162.701	162.965	80	80
162.792	162.965	78	84
162.884	162.975	84	88
162.975	163.98	92	93
163.067	165.038	25	82
163.067	163.898	85	97
163.067	166.066	89	97
163.4	166.066	44	68
163.483	164.631	53	74
163.567	164.55	61	84
163.567	164.387	65	97
163.65	164.306	73	75
163.733	164.225	80	78
163.816	164.143	77	75
163.898	164.062	85	79
163.98	166.066	92	75
164.062	165.622	85	78
164.143	166.066	77	75
164.225	166.066	80	80
164.306	165.622	73	75
164.387	166.066	65	79
164.468	166.066	68	75
164.55	165.622	61	78
164.631	166.066	53	77
164.712	166.066	56	82
164.794	164.956	49	79
164.875	166.066	41	87
164.956	166.066	49	85
165.038	166.066	25	96
165.038	166.066	37	96
165.622	166.206	61	86
165.622	166.206	73	102
165.622	166.206	85	85
165.622	166.206	97	101
167.375	168.507	33	40
167.375	171.197	45	40
167.375	168.507	52	44
167.375	168.507	61	52
167.375	168.507	64	52
168.507	171.197	38	36
168.507	169.639	54	37
168.507	170.017	61	44
168.507	171.197	66	44
170.017	170.258	59	57
170.258	170.499	61	57
170.499	170.729	64	60
170.729	170.96	62	56
170.96	171.197	61	56
171.197	172.186	33	40
171.197	175.248	45	40
171.197	172.186	52	44
171.197	172.186	61	52
171.197	172.186	64	52
172.186	175.248	38	36
172.186	173.175	54	37
172.186	173.505	61	44
172.186	175.248	66	44
173.505	173.736	59	57
173.736	173.994	61	57
173.994	174.233	64	60
174.233	174.926	62	56
174.926	175.248	61	56
175.248	177.557	40	34
175.248	177.557	50	34
175.248	177.557	56	37
175.248	176.425	61	44
175.248	178.123	64	44
176.425	177.557	59	37
177.557	180.401	45	30
177.557	178.123	49	30
177.557	178.123	57	32
178.123	180.401	52	26
178.123	180.401	61	30
180.401	181.203	73	53
181.043	181.364	52	32
181.043	181.364	55	32
181.043	181.364	58	32
181.203	181.284	71	45
181.284	181.364	73	45
181.364	181.634	50	38
181.364	181.634	54	38
181.364	181.634	59	38
181.364	181.769	71	50
181.769	181.904	69	47
181.904	182.175	54	32
181.904	182.175	57	32
181.904	182.175	62	32
181.904	182.175	71	50
182.175	182.715	53	36
182.175	182.715	56	36
182.175	182.715	61	36
182.175	182.58	73	53
182.58	182.715	74	50
182.715	182.985	52	31
182.715	182.985	55	31
182.715	182.985	58	31
182.715	182.85	73	48
182.85	182.918	71	43
182.918	182.985	73	43
182.985	183.291	50	37
182.985	183.291	54	37
182.985	183.291	59	37
182.985	183.444	71	52
183.444	183.598	69	48
183.598	184.085	54	32
183.598	184.085	57	32
183.598	184.085	62	32
183.598	184.085	71	47
184.085	186.577	49	29
184.085	184.444	73	39
184.207	186.577	56	29
184.329	186.577	61	29
184.329	186.577	65	29
184.444	184.673	73	29
184.558	184.787	68	29
184.673	185.016	73	29
184.787	186.577	68	29
184.902	186.577	37	25
184.902	185.131	80	29
185.016	185.245	73	29
185.131	185.474	80	29
185.245	186.577	73	29
185.36	185.589	85	29
185.474	185.708	80	29
185.589	185.95	85	29
185.708	186.577	80	29
185.827	186.073	92	29
185.95	186.196	85	29
186.073	186.577	92	29
186.196	186.577	85	29
186.319	186.577	97	39
187.168	188.3	33	40
187.168	190.99	45	40
187.168	188.3	52	44
187.168	189.809	61	52
187.168	188.3	64	52
188.3	190.99	38	36
188.3	189.432	54	37
188.3	190.99	66	44
189.809	190.05	59	57
190.05	190.291	61	57
190.291	190.522	64	60
190.522	190.753	62	56
190.753	190.99	61	56
190.99	191.979	33	40
190.99	196.019	45	40
190.99	191.979	52	44
190.99	193.298	61	52
190.99	191.979	64	52
191.979	196.019	38	36
191.979	196.019	54	37
191.979	194.98	66	44
193.298	193.528	59	57
193.528	193.787	61	57
193.787	194.025	64	60
194.025	194.744	62	56
194.744	194.843	61	56
194.862	194.98	61	50
194.98	195.338	69	56
195.338	195.679	66	53
195.679	196.019	62	51
196.019	198.078	40	34
196.019	197.196	52	34
196.019	198.078	56	37
196.019	197.196	61	44
196.019	198.554	64	44
197.196	198.078	50	34
197.196	198.078	59	37
198.078	198.554	45	30
198.078	198.554	49	30
198.078	198.554	57	32
198.554	200.833	45	26
198.554	200.833	52	26
198.554	200.833	61	30
201.972	204.047	73	42
204.047	204.324	75	42
204.324	204.55	78	43
204.55	204.729	76	41
204.729	204.907	73	39
204.907	205.149	69	39
205.149	205.21	68	35
205.27	205.391	68	35
205.391	206.073	80	43
205.902	206.243	59	26
205.902	206.243	62	26
205.902	206.243	65	26
206.073	206.158	78	37
206.158	206.243	80	37
206.243	206.53	57	31
206.243	206.53	61	31
206.243	206.53	66	31
206.243	206.674	78	43
206.674	206.817	76	39
206.817	207.105	61	28
206.817	207.105	64	28
206.817	207.105	69	28
206.817	207.105	78	39
207.105	207.679	60	31
207.105	207.679	63	31
207.105	207.679	68	31
207.105	207.535	80	42
207.535	207.679	81	40
207.679	207.966	59	27
207.679	207.966	62	27
207.679	207.966	65	27
207.679	207.822	80	40
207.822	207.894	78	37
207.894	207.966	80	37
207.966	208.338	57	31
207.966	208.338	61	31
207.966	208.338	66	31
207.966	208.561	78	44
208.561	208.783	76	33
208.783	209.205	61	25
208.783	209.205	64	25
208.783	209.205	69	25
208.783	209.205	78	31
209.205	212.789	56	24
209.205	212.789	63	24
209.205	212.789	72	24
209.205	210.924	80	31
210.264	212.789	44	24
210.794	212.789	68	25
210.924	211.185	80	25
211.055	211.315	75	25
211.185	211.593	80	25
211.315	212.789	75	25
211.446	211.74	87	21
211.593	211.914	80	21
211.74	212.789	87	21
211.914	212.789	80	21
212.143	212.789	92	28
213.143	213.507	80	44
213.507	213.882	78	44
213.882	214.924	49	33
213.882	215.253	76	45
214.282	214.603	64	30
214.282	214.442	67	34
214.442	214.603	68	34
214.603	215.253	56	30
214.603	214.71	71	34
214.71	214.817	69	34
214.817	214.924	68	34
214.924	215.842	51	33
214.924	215.842	54	33
214.924	216.104	68	43
215.253	215.547	60	32
215.253	215.547	76	42
215.547	216.104	56	32
215.547	215.842	75	42
215.842	216.61	52	33
215.842	216.104	73	44
216.104	216.357	61	32
216.104	216.23	67	36
216.23	216.357	68	32
216.357	216.863	56	32
216.357	216.441	71	36
216.441	216.526	69	36
216.526	216.61	68	32
216.61	217.359	48	33
216.61	217.612	68	44
216.863	217.111	63	31
216.863	217.111	80	43
217.111	217.612	56	31
217.111	217.359	78	40
217.359	218.102	49	33
217.359	218.353	76	46
217.612	217.857	64	33
217.612	217.735	67	38
217.735	217.857	68	34
217.857	218.353	56	31
217.857	217.939	71	38
217.939	218.02	69	38
218.02	218.102	68	35
218.102	218.841	51	33
218.102	218.841	54	33
218.102	218.841	68	42
218.353	218.597	60	31
218.353	218.597	76	43
218.597	219.091	56	31
218.597	218.841	75	41
218.841	219.575	52	33
218.841	219.091	73	47
219.091	219.333	61	31
219.091	219.212	72	37
219.212	219.333	73	37
219.333	219.575	56	31
219.333	219.413	76	37
219.413	219.494	74	37
219.494	219.575	73	34
219.575	220.316	53	33
219.575	219.825	59	31
219.575	220.607	73	41
219.825	220.063	68	31
219.825	220.063	85	46
220.063	220.607	61	31
220.063	220.316	83	44
220.316	221.093	54	36
220.316	221.093	57	36
220.316	221.375	81	53
220.607	220.85	66	31
220.607	220.729	72	32
220.729	220.85	73	30
220.85	221.375	61	31
220.85	220.931	76	32
220.931	221.012	74	32
221.012	221.093	73	30
221.093	221.862	56	33
221.093	221.862	59	33
221.093	222.18	73	37
221.375	221.618	65	31
221.375	221.618	81	38
221.618	222.18	61	31
221.618	221.862	80	36
221.862	222.716	57	33
221.862	222.18	78	40
222.18	222.448	66	27
222.18	222.314	72	27
222.314	222.448	73	28
222.448	222.972	61	27
222.448	222.537	76	30
222.537	222.626	74	30
222.626	222.716	73	27
222.716	223.444	53	30
222.716	223.684	73	38
222.972	223.206	68	31
222.972	223.206	85	40
223.206	223.684	61	31
223.206	223.444	83	37
223.444	224.144	54	33
223.444	224.144	57	33
223.444	224.391	81	45
223.684	223.914	69	31
223.684	223.799	72	37
223.799	223.914	73	37
223.914	224.391	61	31
223.914	223.991	76	37
223.991	224.068	74	37
224.068	224.144	73	34
224.144	224.85	56	33
224.144	224.85	59	33
224.144	225.108	73	42
224.391	224.618	65	31
224.391	224.618	81	44
224.618	225.108	61	31
224.618	224.85	80	42
224.85	226.309	57	33
224.85	226.309	78	47
225.108	225.354	66	31
225.108	225.231	72	37
225.231	225.354	73	34
225.354	225.884	61	31
225.354	225.436	76	37
225.436	225.518	74	37
225.518	225.599	73	34
225.599	226.309	45	31
225.599	227.203	73	41
225.884	226.309	61	28
225.884	226.309	80	43
226.137	226.887	54	28
226.137	227.203	81	42
226.404	227.203	44	30
226.404	227.203	51	30
226.404	227.203	80	50
226.656	227.203	60	27
226.656	227.203	67	32
226.771	227.04	68	30
226.887	227.203	54	27
226.887	227.203	71	32
226.963	227.203	69	32
227.04	227.117	68	30
227.117	227.835	52	31
227.117	228.218	68	37
227.374	227.604	61	33
227.374	227.604	78	47
227.604	227.835	56	33
227.604	227.835	76	47
227.835	228.778	44	38
227.835	228.778	54	38
227.835	228.871	75	53
228.094	228.778	60	32
228.094	228.778	67	38
228.218	228.509	68	35
228.343	228.871	56	32
228.343	228.778	71	38
228.426	228.778	69	38
228.509	228.592	68	35
228.592	229.404	52	37
228.592	229.833	68	46
228.871	229.138	61	31
228.871	229.138	75	47
229.138	229.404	56	31
229.138	229.404	73	44
229.404	230.388	44	36
229.404	230.388	51	36
229.404	230.388	72	52
229.693	230.388	60	34
229.693	230.388	67	41
229.833	230.16	68	39
229.973	230.522	56	34
229.973	230.388	71	41
230.067	230.388	69	41
230.16	230.253	68	38
230.253	231.001	52	38
230.253	232.919	68	52
230.522	230.762	61	31
230.522	230.762	78	43
230.762	231.001	56	31
230.762	231.001	76	41
231.001	233.897	47	33
231.001	231.511	75	47
231.26	233.897	54	29
231.26	232.919	70	38
231.386	231.702	71	36
231.511	233.897	57	29
231.511	232.919	75	38
231.607	232.919	73	38
231.702	231.797	71	35
231.797	233.897	63	33
231.797	233.484	71	41
232.328	232.919	76	34
232.859	233.765	78	34
233.39	233.952	52	32
233.39	233.897	68	35
233.484	233.897	71	37
233.577	233.897	59	29
233.577	233.897	64	29
233.577	233.859	76	40
233.671	233.897	80	42
233.765	233.952	56	30
233.765	233.897	78	44
233.859	233.952	76	42
233.952	234.845	51	35
233.952	234.032	80	38
234.032	234.112	83	40
234.112	234.272	59	30
234.112	234.272	64	30
234.112	234.192	88	43
234.192	234.272	92	46
234.272	234.751	56	32
234.272	234.351	90	50
234.351	234.845	88	47
234.431	234.845	52	32
234.431	234.845	83	44
234.511	234.845	80	43
234.59	234.845	59	30
234.59	234.845	64	30
234.59	234.845	78	42
234.67	234.845	76	41
234.751	235.326	56	30
234.751	234.845	71	40
234.831	235.154	68	39
234.911	236.274	47	32
234.911	235.235	66	38
234.992	235.316	64	37
235.073	235.326	59	36
235.154	235.326	68	39
235.235	235.326	66	38
235.316	235.479	64	37
235.398	236.274	45	36
235.398	235.558	61	36
235.479	235.558	64	34
235.558	236.026	61	31
235.558	236.026	64	31
235.558	236.274	66	37
235.638	236.274	69	39
235.716	236.181	54	31
235.716	236.274	73	41
235.794	236.274	76	43
235.872	236.274	42	40
235.872	236.274	78	46
235.949	236.274	81	48
236.026	236.274	61	35
236.026	236.274	64	35
236.026	236.274	85	50
236.103	236.274	88	51
236.181	236.657	54	35
236.181	236.274	90	49
236.26	236.937	93	47
236.339	236.937	47	38
236.339	236.937	92	50
236.419	236.937	90	49
236.5	237.444	59	34
236.5	237.707	63	34
236.5	236.937	87	49
236.578	236.937	81	48
236.657	236.937	54	31
236.657	236.937	80	47
236.735	236.937	78	46
236.814	236.971	56	38
236.814	236.937	75	45
236.892	236.971	71	44
236.971	237.129	54	40
236.971	237.05	75	45
237.05	237.129	73	42
237.129	237.599	56	48
237.129	237.208	71	39
237.208	237.707	69	37
237.288	237.752	52	35
237.288	237.707	68	35
237.366	237.707	71	37
237.444	237.707	59	31
237.444	237.707	64	31
237.444	237.676	76	40
237.521	237.707	80	42
237.599	237.752	56	33
237.599	237.707	78	44
237.676	237.752	76	42
237.752	238.615	51	38
237.752	237.829	80	38
237.829	237.906	83	40
237.906	238.059	59	33
237.906	238.059	64	33
237.906	237.982	88	43
237.982	238.059	92	46
238.059	238.523	56	35
238.059	238.136	90	50
238.136	238.615	88	47
238.213	238.615	52	35
238.213	238.615	83	44
238.291	238.615	80	43
238.368	238.615	59	33
238.368	238.615	64	33
238.368	238.615	78	42
238.445	238.615	76	41
238.523	239.082	56	33
238.523	238.615	71	40
238.601	238.915	68	39
238.679	240.027	47	35
238.679	238.994	66	38
238.758	239.073	64	37
238.836	239.082	59	36
238.915	239.082	68	39
238.994	239.082	66	38
239.073	239.232	64	37
239.152	240.027	45	36
239.152	239.311	61	36
239.232	239.311	64	34
239.311	239.779	61	31
239.311	239.779	64	31
239.311	240.027	66	37
239.39	240.027	69	39
239.468	239.935	54	31
239.468	240.027	73	41
239.546	240.027	76	43
239.624	240.027	42	40
239.624	240.027	78	46
239.702	240.027	81	48
239.779	240.027	61	35
239.779	240.027	64	35
239.779	240.027	85	50
239.857	240.027	88	51
239.935	240.409	54	35
239.935	240.027	90	49
240.013	240.689	93	47
240.092	240.689	47	42
240.092	240.689	92	47
240.172	240.689	90	48
240.252	241.196	59	36
240.252	241.463	63	36
240.252	240.689	87	49
240.33	240.689	81	50
240.409	240.689	54	36
240.409	240.689	80	51
240.487	240.689	78	52
240.566	240.722	56	38
240.566	240.689	75	53
240.644	240.722	71	52
240.722	240.88	54	40
240.722	240.801	75	51
240.801	240.88	73	51
240.88	241.353	56	45
240.88	240.959	71	53
240.959	241.463	69	57
241.038	241.509	52	49
241.038	241.463	68	56
241.117	241.463	71	59
241.196	241.463	59	44
241.196	241.463	64	44
241.196	241.432	76	61
241.275	241.463	80	63
241.353	241.509	56	44
241.353	241.463	78	65
241.432	241.509	76	63
241.509	241.587	47	67
241.509	241.587	80	61
241.587	241.665	83	61
241.665	241.82	59	74
241.665	241.82	64	74
241.665	241.742	88	64
241.742	241.82	92	66
241.82	241.976	56	74
241.82	241.898	90	69
241.898	241.976	88	65
241.976	242.131	45	70
241.976	242.131	57	70
241.976	242.053	84	62
242.053	242.131	81	61
242.131	242.442	48	77
242.131	242.442	60	77
242.131	242.209	78	60
242.209	242.286	76	60
242.286	242.364	72	59
242.364	242.442	69	58
242.442	242.52	66	57
242.52	242.598	64	56
242.598	242.676	60	55
242.676	242.755	59	54
242.755	242.834	57	53
242.834	242.913	56	52
242.913	243.383	40	66
242.913	242.992	56	52
242.992	243.071	59	51
243.071	243.228	52	52
243.071	243.149	64	52
243.149	243.228	68	53
243.228	243.383	47	52
243.228	243.306	66	54
243.306	243.383	64	52
243.383	243.46	35	68
243.383	243.46	68	49
243.46	243.537	71	51
243.537	243.69	52	68
243.537	243.614	76	54
243.614	243.69	80	57
243.69	243.842	47	68
243.69	243.766	78	59
243.766	243.842	76	57
243.842	243.994	33	75
243.842	243.994	45	75
243.842	243.918	72	59
243.918	243.994	69	61
243.994	244.298	36	86
243.994	244.298	48	86
243.994	244.07	66	62
244.07	244.146	64	64
244.146	244.222	60	66
244.222	244.298	57	67
244.298	244.374	54	69
244.374	244.45	52	71
244.45	244.528	48	73
244.528	244.605	45	74
244.605	244.684	42	76
244.684	244.763	40	78
244.763	244.925	28	98
244.925	245.002	47	73
245.002	245.079	52	68
245.079	245.155	57	68
245.155	245.232	56	68
245.232	245.308	59	73
245.308	245.385	64	67
245.385	245.461	69	67
245.461	245.538	68	68
245.538	245.614	71	72
245.614	245.691	76	73
245.691	245.844	52	80
245.691	245.844	59	80
245.691	245.844	68	80
245.691	245.767	81	76
245.767	245.844	80	71
245.844	245.92	83	71
245.92	245.997	88	71
245.997	246.073	93	71
246.073	246.15	92	71
246.15	246.227	88	77
246.227	246.303	83	71
246.303	246.38	81	71
246.38	246.456	80	71
246.456	246.533	76	71
246.533	246.609	71	71
246.609	246.686	69	71
246.686	246.762	68	72
246.762	246.839	64	73
246.839	246.916	59	75
246.916	246.993	57	77
246.993	247.07	56	78
247.07	247.148	52	80
247.148	247.226	47	81
247.226	247.304	45	82
247.304	247.382	44	84
247.382	247.461	40	86
247.461	247.539	35	88
247.539	248.013	28	96
248.487	249.619	33	50
248.487	252.681	45	50
248.487	249.619	52	55
248.487	249.619	61	65
248.487	249.619	64	65
249.619	252.681	38	44
249.619	250.751	54	46
249.619	251.128	61	55
249.619	252.681	66	55
251.128	251.395	59	71
251.395	251.662	61	71
251.662	251.957	64	75
251.957	252.467	62	70
252.467	252.681	61	64
252.681	253.74	33	50
252.681	257.91	45	50
252.681	253.74	52	55
252.681	253.74	61	65
252.681	253.74	64	65
253.74	257.91	38	44
253.74	257.91	54	46
253.74	255.152	61	55
253.74	256.853	66	55
255.152	255.422	59	67
255.422	255.692	61	67
255.692	255.991	64	72
255.991	256.572	62	66
256.572	256.69	61	57
256.714	256.853	61	54
256.853	257.216	69	63
257.216	257.91	66	62
257.563	257.91	62	57
257.91	259.982	40	41
257.91	259.087	52	41
257.91	259.982	56	52
257.91	259.087	61	52
257.91	260.374	64	52
259.087	259.982	50	39
259.087	259.982	59	43
259.982	262.653	45	36
259.982	260.374	49	36
259.982	260.374	57	37
260.374	262.653	52	32
260.374	262.653	61	35
262.653	263.482	73	53
263.316	263.647	52	32
263.316	263.647	55	32
263.316	263.647	58	32
263.482	263.564	71	45
263.564	263.647	73	45
263.647	263.93	50	38
263.647	263.93	54	38
263.647	263.93	59	38
263.647	264.072	71	50
264.072	264.213	69	47
264.213	264.496	54	32
264.213	264.496	57	32
264.213	264.496	62	32
264.213	264.496	71	50
264.496	265.062	53	36
264.496	265.062	56	36
264.496	265.062	61	36
264.496	264.921	73	53
264.921	265.062	74	50
265.062	265.345	52	31
265.062	265.345	55	31
265.062	265.345	58	31
265.062	265.204	73	48
265.204	265.275	71	43
265.275	265.345	73	43
265.345	265.651	50	37
265.345	265.651	54	37
265.345	265.651	59	37
265.345	265.805	71	52
265.805	265.958	69	48
265.958	266.445	54	32
265.958	266.445	57	32
265.958	266.445	62	32
265.958	266.445	71	47
266.445	268.953	49	29
266.445	266.804	73	39
266.567	268.953	56	29
266.689	268.953	61	29
266.689	268.953	65	29
266.804	267.033	73	29
266.918	267.147	68	29
267.033	267.376	73	29
267.147	268.953	68	29
267.262	268.953	37	25
267.262	267.491	80	29
267.376	267.605	73	29
267.491	267.834	80	29
267.605	268.953	73	29
267.72	267.949	85	29
267.834	268.068	80	29
267.949	268.31	85	29
268.068	268.953	80	29
268.187	268.433	92	29
268.31	268.556	85	29
268.433	268.953	92	29
268.556	268.953	85	29
268.679	268.953	97	39
269.579	274.264	45	34
269.579	270.787	52	37
269.579	272.398	61	44
269.579	270.787	64	44
270.787	274.264	38	30
270.787	271.995	54	31
270.787	274.264	66	37
272.398	272.696	59	48
272.696	272.995	61	48
272.995	273.356	64	51
273.356	273.989	62	47
273.989	274.264	61	47
274.264	275.32	33	34
274.264	280.011	45	34
274.264	275.32	52	37
274.264	276.727	61	44
274.264	275.32	64	44
275.32	280.011	38	30
275.32	280.011	54	31
275.32	278.607	66	37
276.727	277.035	59	48
277.035	277.342	61	48
277.342	277.7	64	51
277.7	278.057	62	47
278.057	278.447	61	47
278.47	278.607	61	40
278.607	279.773	61	42
278.607	278.833	69	36
278.833	279.058	68	33
279.058	279.296	71	39
279.296	279.534	69	38
279.534	279.773	66	36
279.773	280.011	62	35
280.011	282.242	40	28
280.011	281.266	52	28
280.011	282.242	56	31
280.011	281.266	61	37
280.011	282.773	64	37
281.266	282.242	50	28
281.266	282.242	59	31
282.242	285.205	45	25
282.242	282.773	49	25
282.242	282.773	57	27
282.773	285.205	52	22
282.773	285.205	61	25
286.344	288.418	73	42
288.418	288.696	75	42
288.696	288.922	78	43
288.922	289.1	76	41
289.1	289.279	73	39
289.279	289.521	69	39
289.521	289.581	68	35
289.642	289.763	68	35
289.763	290.444	80	43
290.274	290.615	59	26
290.274	290.615	62	26
290.274	290.615	65	26
290.444	290.53	78	37
290.53	290.615	80	37
290.615	290.902	57	31
290.615	290.902	61	31
290.615	290.902	66	31
290.615	291.046	78	43
291.046	291.189	76	39
291.189	291.476	61	28
291.189	291.476	64	28
291.189	291.476	69	28
291.189	291.476	78	39
291.476	292.05	60	31
291.476	292.05	63	31
291.476	292.05	68	31
291.476	291.907	80	42
291.907	292.05	81	40
292.05	292.337	59	27
292.05	292.337	62	27
292.05	292.337	65	27
292.05	292.194	80	40
292.194	292.266	78	37
292.266	292.337	80	37
292.337	292.71	57	31
292.337	292.71	61	31
292.337	292.71	66	31
292.337	292.932	78	44
292.932	293.155	76	33
293.155	293.577	61	25
293.155	293.577	64	25
293.155	293.577	69	25
293.155	293.577	78	31
293.577	297.161	56	24
293.577	297.161	63	24
293.577	297.161	72	24
293.577	295.296	80	31
294.636	297.161	44	24
295.165	297.161	68	25
295.296	295.557	80	25
295.426	295.687	75	25
295.557	295.965	80	25
295.687	297.161	75	25
295.817	296.112	87	21
295.965	296.286	80	21
296.112	297.161	87	21
296.286	297.161	80	21
296.515	297.161	92	28
297.515	297.879	80	44
297.879	298.254	78	44
298.254	299.295	49	33
298.254	299.625	76	45
298.654	298.975	64	30
298.654	298.814	67	34
298.814	298.975	68	31
298.975	299.625	56	30
298.975	299.081	71	34
299.081	299.188	69	34
299.188	299.295	68	32
299.295	300.213	51	33
299.295	300.213	54	33
299.295	300.475	68	43
299.625	299.919	60	32
299.625	299.919	76	42
299.919	300.475	56	32
299.919	300.213	75	39
300.213	300.982	52	33
300.213	300.475	73	44
300.475	300.728	61	32
300.475	300.602	67	36
300.602	300.728	68	33
300.728	301.235	56	32
300.728	300.813	71	36
300.813	300.897	69	36
300.897	300.982	68	33
300.982	301.731	48	33
300.982	301.984	68	44
301.235	301.483	63	31
301.235	301.483	80	43
301.483	301.984	56	31
301.483	301.731	78	39
301.731	302.474	49	33
301.731	302.725	76	46
301.984	302.229	64	33
301.984	302.106	67	38
302.106	302.229	68	35
302.229	302.725	56	31
302.229	302.31	71	38
302.31	302.392	69	38
302.392	302.474	68	36
302.474	303.212	51	33
302.474	303.212	54	33
302.474	303.212	68	42
302.725	302.969	60	31
302.725	302.969	76	43
302.969	303.462	56	31
302.969	303.212	75	38
303.212	303.946	52	33
303.212	303.462	73	47
303.462	303.704	61	31
303.462	303.583	72	37
303.583	303.704	73	35
303.704	303.946	56	31
303.704	303.785	76	37
303.785	303.866	74	37
303.866	303.946	73	35
303.946	304.677	53	33
303.946	304.196	59	31
303.946	304.963	73	41
304.196	304.434	68	31
304.196	304.434	85	46
304.434	304.963	61	31
304.434	304.677	83	43
304.677	305.449	54	36
304.677	305.449	57	36
304.677	305.713	81	53
304.963	305.206	66	31
304.963	305.085	72	32
305.085	305.206	73	30
305.206	305.713	61	31
305.206	305.287	76	32
305.287	305.368	74	32
305.368	305.449	73	30
305.449	306.19	56	33
305.449	306.19	59	33
305.449	306.488	73	37
305.713	305.951	65	31
305.713	305.951	81	38
305.951	306.488	61	31
305.951	306.19	80	36
306.19	307.029	57	33
306.19	306.488	78	40
306.488	306.758	66	27
306.488	306.623	72	27
306.623	306.758	73	27
306.758	307.29	61	27
306.758	306.848	76	30
306.848	306.939	74	30
306.939	307.029	73	29
307.029	307.761	53	30
307.029	308.002	73	38
307.29	307.524	68	31
307.29	307.524	85	40
307.524	308.002	61	31
307.524	307.761	83	38
307.761	308.462	54	33
307.761	308.462	57	33
307.761	308.709	81	45
308.002	308.232	69	31
308.002	308.117	72	37
308.117	308.232	73	37
308.232	308.709	61	31
308.232	308.309	76	37
308.309	308.385	74	37
308.385	308.462	73	34
308.462	309.168	56	33
308.462	309.168	59	33
308.462	309.425	73	42
308.709	308.935	65	31
308.709	308.935	81	44
308.935	309.425	61	31
308.935	309.168	80	40
309.168	310.627	57	33
309.168	310.627	78	47
309.425	309.671	66	31
309.425	309.548	72	37
309.548	309.671	73	35
309.671	310.201	61	31
309.671	309.753	76	37
309.753	309.835	74	37
309.835	309.917	73	35
309.917	310.627	45	31
309.917	311.52	73	41
310.201	310.627	61	28
310.201	310.627	80	43
310.455	311.204	54	28
310.455	311.52	81	40
310.721	311.52	44	30
310.721	311.52	51	30
310.721	311.52	80	50
310.973	311.52	60	27
310.973	311.52	67	32
311.089	311.358	68	30
311.204	311.52	54	27
311.204	311.52	71	32
311.281	311.52	69	32
311.358	311.435	68	30
311.435	312.909	52	31
311.435	312.536	68	37
311.691	311.922	61	33
311.691	311.922	78	47
311.922	312.66	56	33
311.922	313.095	76	44
312.153	313.095	44	38
312.153	313.095	54	38
312.153	313.188	75	53
312.411	313.095	60	32
312.411	313.095	67	38
312.536	312.826	68	38
312.66	313.188	56	32
312.66	313.095	71	38
312.743	313.095	69	38
312.826	312.909	68	35
312.909	314.571	52	37
312.909	314.15	68	46
313.188	313.455	61	31
313.188	313.455	75	47
313.455	314.291	56	31
313.455	314.705	73	44
313.722	314.705	44	36
313.722	314.705	51	36
313.722	314.705	72	52
314.01	314.705	60	34
314.01	314.705	67	41
314.15	314.477	68	38
314.291	314.84	56	34
314.291	314.705	71	41
314.384	314.705	69	41
314.477	314.571	68	38
314.571	317.236	52	38
314.571	317.236	68	52
314.84	315.079	61	31
314.84	315.079	78	43
315.079	317.236	56	31
315.079	316.646	76	39
315.318	318.215	47	33
315.318	315.829	75	47
315.578	318.215	54	29
315.578	317.236	70	38
315.703	316.019	71	36
315.829	318.215	57	29
315.829	317.236	75	38
315.924	317.236	73	38
316.019	316.115	71	35
316.115	318.215	63	33
316.115	317.801	71	41
316.646	317.236	76	34
317.177	318.083	78	34
317.707	318.27	52	32
317.707	318.215	68	35
317.801	318.215	71	37
317.895	318.215	59	29
317.895	318.215	64	29
317.895	318.176	76	40
317.989	318.215	80	42
318.083	318.27	56	30
318.083	318.215	78	44
318.176	318.27	76	42
318.27	319.162	51	35
318.27	318.35	80	38
318.35	318.43	83	40
318.43	318.589	59	30
318.43	318.589	64	30
318.43	318.509	88	43
318.509	318.589	92	46
318.589	319.068	56	32
318.589	318.669	90	50
318.669	319.162	88	47
318.749	319.162	52	32
318.749	319.162	83	44
318.828	319.162	80	43
318.908	319.162	59	30
318.908	319.162	64	30
318.908	319.162	78	42
318.988	319.162	76	41
319.068	319.643	56	30
319.068	319.162	71	40
319.148	319.471	68	39
319.229	320.591	47	32
319.229	319.553	66	38
319.309	319.634	64	37
319.39	319.643	59	36
319.471	319.643	68	39
319.553	319.643	66	38
319.634	319.796	64	37
319.716	320.591	45	36
319.716	319.876	61	36
319.796	319.876	64	34
319.876	320.343	61	31
319.876	320.343	64	31
319.876	320.591	66	37
319.955	320.591	69	39
320.034	320.499	54	31
320.034	320.591	73	41
320.112	320.591	76	43
320.189	320.591	42	40
320.189	320.591	78	46
320.266	320.591	81	48
320.343	320.591	61	35
320.343	320.591	64	35
320.343	320.591	85	50
320.421	320.591	88	51
320.499	320.974	54	35
320.499	320.591	90	49
320.577	321.255	93	47
320.656	321.255	47	38
320.656	321.255	92	50
320.737	321.255	90	49
320.817	321.761	59	34
320.817	322.025	63	34
320.817	321.255	87	49
320.896	321.255	81	48
320.974	321.255	54	31
320.974	321.255	80	47
321.053	321.255	78	46
321.131	321.288	56	38
321.131	321.255	75	45
321.21	321.288	71	44
321.288	321.446	54	40
321.288	321.367	75	45
321.367	321.446	73	42
321.446	321.916	56	48
321.446	321.526	71	39
321.526	322.025	69	37
321.605	322.07	52	35
321.605	322.025	68	35
321.684	322.025	71	37
321.761	322.025	59	31
321.761	322.025	64	31
321.761	321.993	76	40
321.839	322.025	80	42
321.916	322.07	56	33
321.916	322.025	78	44
321.993	322.07	76	42
322.07	322.932	51	38
322.07	322.147	80	38
322.147	322.223	83	40
322.223	322.377	59	33
322.223	322.377	64	33
322.223	322.3	88	43
322.3	322.377	92	46
322.377	322.841	56	35
322.377	322.454	90	50
322.454	322.932	88	47
322.531	322.932	52	35
322.531	322.932	83	44
322.608	322.932	80	43
322.685	322.932	59	33
322.685	322.932	64	33
322.685	322.932	78	42
322.763	322.932	76	41
322.841	323.4	56	33
322.841	322.932	71	40
322.919	323.232	68	39
322.997	324.344	47	35
322.997	323.311	66	38
323.075	323.39	64	37
323.154	323.4	59	36
323.232	323.4	68	39
323.311	323.4	66	38
323.39	323.549	64	37
323.47	324.344	45	36
323.47	323.628	61	36
323.549	323.628	64	34
323.628	324.097	61	31
323.628	324.097	64	31
323.628	324.344	66	37
323.707	324.344	69	39
323.786	324.253	54	31
323.786	324.344	73	41
323.864	324.344	76	43
323.942	324.344	42	40
323.942	324.344	78	46
324.019	324.344	81	48
324.097	324.344	61	35
324.097	324.344	64	35
324.097	324.344	85	50
324.175	324.344	88	51
324.253	324.726	54	35
324.253	324.344	90	49
324.331	325.007	93	47
324.409	325.007	47	42
324.409	325.007	92	47
324.489	325.007	90	48
324.569	325.514	59	36
324.569	325.781	63	36
324.569	325.007	87	49
324.648	325.007	81	50
324.726	325.007	54	36
324.726	325.007	80	51
324.804	325.007	78	52
324.883	325.04	56	38
324.883	325.007	75	53
324.961	325.04	71	52
325.04	325.197	54	40
325.04	325.119	75	51
325.119	325.197	73	51
325.197	325.671	56	45
325.197	325.276	71	53
325.276	325.781	69	57
325.356	325.827	52	49
325.356	325.781	68	56
325.435	325.781	71	59
325.514	325.781	59	44
325.514	325.781	64	44
325.514	325.749	76	61
325.593	325.781	80	63
325.671	325.827	56	44
325.671	325.781	78	65
325.749	325.827	76	63
325.827	325.905	47	62
325.827	325.905	80	61
325.905	325.982	83	61
325.982	326.138	59	67
325.982	326.138	64	67
325.982	326.06	88	64
326.06	326.138	92	66
326.138	326.293	56	67
326.138	326.215	90	69
326.215	326.293	88	65
326.293	326.449	45	70
326.293	326.449	57	70
326.293	326.371	84	62
326.371	326.449	81	61
326.449	326.759	48	77
326.449	326.759	60	77
326.449	326.526	78	60
326.526	326.604	76	60
326.604	326.682	72	59
326.682	326.759	69	58
326.759	326.837	66	57
326.837	326.915	64	56
326.915	326.994	60	55
326.994	327.072	59	54
327.072	327.151	57	53
327.151	327.23	56	52
327.23	327.701	40	66
327.23	327.309	56	52
327.309	327.388	59	51
327.388	327.545	52	52
327.388	327.467	64	52
327.467	327.545	68	53
327.545	327.701	47	52
327.545	327.623	66	54
327.623	327.701	64	52
327.701	327.778	35	68
327.701	327.778	68	49
327.778	327.855	71	51
327.855	328.008	52	66
327.855	327.931	76	54
327.931	328.008	80	57
328.008	328.159	47	66
328.008	328.083	78	59
328.083	328.159	76	57
328.159	328.311	33	75
328.159	328.311	45	75
328.159	328.235	72	59
328.235	328.311	69	61
328.311	328.615	36	86
328.311	328.615	48	86
328.311	328.387	66	62
328.387	328.463	64	64
328.463	328.539	60	66
328.539	328.615	57	67
328.615	328.691	54	69
328.691	328.768	52	71
328.768	328.845	48	73
328.845	328.923	45	74
328.923	329.001	42	76
329.001	329.08	40	78
329.08	329.243	28	104
329.243	329.319	47	73
329.319	329.396	52	68
329.396	329.473	57	68
329.473	329.549	56	68
329.549	329.626	59	73
329.626	329.702	64	67
329.702	329.779	69	67
329.779	329.855	68	68
329.855	329.932	71	72
329.932	330.008	76	73
330.008	330.161	52	80
330.008	330.161	59	80
330.008	330.161	68	80
330.008	330.085	81	76
330.085	330.161	80	71
330.161	330.238	83	71
330.238	330.314	88	71
330.314	330.391	93	71
330.391	330.468	92	71
330.468	330.544	88	77
330.544	330.621	83	71
330.621	330.697	81	71
330.697	330.774	80	71
330.774	330.85	76	71
330.85	330.927	71	71
330.927	331.003	69	71
331.003	331.08	68	72
331.08	331.156	64	73
331.156	331.233	59	75
331.233	331.311	57	77
331.311	331.388	56	78
331.388	331.466	52	80
331.466	331.543	47	81
331.543	331.621	45	82
331.621	331.7	44	84
331.7	331.778	40	86
331.778	331.857	35	88
331.857	332.331	28	96
332.804	332.98	26	83
332.804	332.98	38	98
332.98	333.057	47	73
333.057	333.133	53	68
333.133	333.21	57	68
333.21	333.286	56	68
333.286	333.363	59	73
333.363	333.439	65	67
333.439	333.516	69	67
333.516	333.592	68	68
333.592	333.669	71	72
333.669	333.746	77	73
333.746	333.899	50	68
333.746	333.899	56	80
333.746	333.899	59	80
333.746	333.899	65	80
333.746	333.822	81	76
333.822	333.899	80	71
333.899	333.975	83	71
333.975	334.052	89	71
334.052	334.128	93	71
334.128	334.205	92	71
334.205	334.281	89	77
334.281	334.358	83	71
334.358	334.434	81	71
334.434	334.511	80	71
334.511	334.587	77	71
334.587	334.664	71	71
334.664	334.74	69	71
334.74	334.817	68	72
334.817	334.894	65	73
334.894	334.971	59	75
334.971	335.048	57	77
335.048	335.125	56	78
335.125	335.203	53	80
335.203	335.281	47	81
335.281	335.359	45	82
335.359	335.437	44	84
335.437	335.515	41	86
335.515	335.594	35	88
335.594	336.541	26	96
336.541	336.717	25	86
336.541	336.717	37	102
336.717	336.794	70	66
336.794	336.871	68	67
336.871	336.948	71	68
336.948	337.025	77	69
337.025	337.182	44	84
337.025	337.182	56	84
337.025	337.103	82	71
337.103	337.182	80	72
337.182	337.338	51	90
337.182	337.338	63	90
337.182	337.26	83	73
337.26	337.338	89	74
337.338	337.495	49	84
337.338	337.495	61	84
337.338	337.417	94	75
337.417	337.649	92	77
337.495	337.957	49	95
337.495	338.337	61	95
337.495	337.88	82	80
337.572	337.803	88	74
337.649	338.337	92	77
337.726	338.337	91	81
337.803	338.337	88	80
337.88	338.337	82	78
337.957	338.337	37	90
337.957	338.337	49	90
337.957	338.337	80	76
338.033	338.337	79	76
338.111	338.337	76	76
338.188	338.337	70	76
338.266	338.344	68	74
338.344	338.848	67	73
338.422	338.848	25	90
338.422	338.848	37	90
338.422	338.848	57	73
338.507	338.848	63	73
338.592	338.848	68	74
338.669	338.848	66	75
338.745	338.848	69	76
338.822	338.899	75	76
338.899	339.057	42	82
338.899	339.057	54	82
338.899	338.978	80	77
338.978	339.057	78	76
339.057	339.214	51	87
339.057	339.214	63	87
339.057	339.136	81	79
339.136	339.214	87	81
339.214	339.372	49	82
339.214	339.372	61	82
339.214	339.293	92	84
339.293	339.372	90	86
339.372	339.45	49	93
339.372	339.45	61	93
339.372	339.45	80	88
339.45	339.529	85	87
339.529	339.683	31	71
339.529	339.683	43	71
339.529	339.606	90	87
339.606	339.683	89	85
339.683	339.838	32	71
339.683	339.838	44	71
339.683	339.761	85	83
339.761	339.838	80	82
339.838	339.992	32	71
339.838	339.992	44	71
339.838	339.915	78	80
339.915	339.992	77	78
339.992	340.146	39	75
339.992	340.146	51	75
339.992	340.069	73	76
340.069	340.146	68	74
340.146	340.722	37	74
340.146	340.722	49	74
340.146	340.223	66	72
340.223	340.722	65	71
340.301	340.722	38	93
340.301	340.722	50	93
340.301	340.722	60	71
340.381	340.722	66	71
340.461	340.722	71	71
340.538	340.722	69	71
340.615	340.722	72	71
340.692	340.769	78	71
340.769	340.927	45	81
340.769	340.927	57	81
340.769	340.848	83	69
340.848	340.927	81	71
340.927	341.086	52	86
340.927	341.086	64	86
340.927	341.007	84	73
341.007	341.086	90	75
341.086	341.244	50	79
341.086	341.244	62	79
341.086	341.165	95	76
341.165	341.398	93	78
341.244	341.706	50	93
341.244	342.105	62	93
341.244	341.629	83	80
341.321	341.552	89	82
341.398	342.105	93	82
341.475	342.105	92	80
341.552	342.105	89	79
341.629	342.105	83	78
341.706	342.105	38	97
341.706	342.105	50	97
341.706	342.105	81	77
341.782	342.105	80	76
341.859	342.105	77	75
341.936	342.105	71	74
342.013	342.105	69	73
342.09	342.588	68	72
342.167	342.588	26	79
342.167	342.588	38	93
342.167	342.588	58	71
342.247	342.588	64	71
342.328	342.588	69	71
342.405	342.588	67	71
342.482	342.588	70	71
342.559	342.636	76	71
342.636	342.794	43	81
342.636	342.794	55	81
342.636	342.715	81	69
342.715	342.794	79	71
342.794	342.952	52	86
342.794	342.952	64	86
342.794	342.873	82	73
342.873	342.952	88	75
342.952	343.111	50	79
342.952	343.111	62	79
342.952	343.031	93	76
343.031	343.111	91	78
343.111	343.187	50	86
343.111	343.187	62	86
343.111	343.187	81	80
343.187	343.264	86	82
343.264	343.418	37	71
343.264	343.418	49	71
343.264	343.341	91	82
343.341	343.418	90	80
343.418	343.572	38	71
343.418	343.572	50	71
343.418	343.495	86	79
343.495	343.572	81	78
343.572	343.649	38	77
343.572	343.649	50	77
343.572	343.649	79	76
343.649	343.726	78	75
343.726	343.88	35	70
343.726	343.88	47	70
343.726	343.803	74	73
343.803	343.88	69	71
343.88	344.034	36	71
343.88	344.034	48	71
343.88	343.957	67	70
343.957	344.034	66	68
344.034	344.273	34	84
344.034	344.273	46	84
344.034	344.273	62	66
344.034	344.273	67	66
344.034	344.273	74	66
344.273	344.502	62	56
344.273	344.387	73	58
344.387	344.502	74	55
344.502	344.731	50	56
344.502	344.731	55	56
344.502	344.578	77	58
344.578	344.654	75	58
344.654	344.731	74	55
344.731	344.971	45	68
344.731	345.637	74	67
344.971	345.196	62	56
344.971	345.422	78	66
344.971	345.196	86	66
345.196	345.422	50	56
345.196	345.422	57	56
345.196	345.422	84	64
345.422	345.637	43	66
345.422	345.637	79	70
345.422	345.637	82	70
345.637	345.844	62	56
345.637	345.74	73	59
345.74	345.844	74	55
345.844	346.051	50	56
345.844	346.051	58	56
345.844	345.913	77	59
345.913	345.982	75	59
345.982	346.051	74	55
346.051	346.645	48	65
346.051	346.853	74	69
346.252	346.449	62	56
346.252	346.449	70	65
346.252	346.449	82	65
346.449	346.645	54	56
346.449	346.645	57	56
346.449	346.645	69	62
346.449	346.645	81	62
346.645	346.853	46	65
346.645	346.853	67	69
346.645	346.853	79	69
346.853	347.045	62	56
346.853	346.949	73	59
346.949	347.045	74	55
347.045	347.238	50	56
347.045	347.238	55	56
347.045	347.109	77	59
347.109	347.174	75	59
347.174	347.238	74	55
347.238	347.435	45	66
347.238	348.02	74	70
347.435	347.626	62	56
347.435	347.817	78	65
347.435	347.626	86	65
347.626	347.817	50	56
347.626	347.817	57	56
347.626	347.817	84	65
347.817	348.02	43	65
347.817	348.02	79	69
347.817	348.02	82	69
348.02	348.214	62	56
348.02	348.117	66	58
348.117	348.214	67	53
348.214	348.408	55	56
348.214	348.279	70	58
348.279	348.344	68	58
348.344	348.408	67	55
348.408	348.611	47	64
348.408	349.194	67	70
348.611	348.805	62	56
348.611	348.999	74	63
348.611	348.805	79	63
348.805	348.999	55	56
348.805	348.999	77	63
348.999	349.194	48	65
348.999	349.194	72	71
348.999	349.194	75	71
349.194	349.384	63	56
349.194	349.289	78	57
349.289	349.384	79	57
349.384	349.574	55	56
349.384	349.447	82	57
349.447	349.511	80	57
349.511	349.574	79	54
349.574	349.772	50	65
349.574	350.337	79	71
349.772	349.959	65	54
349.772	350.146	83	63
349.772	349.959	91	63
349.959	350.146	55	54
349.959	350.146	59	54
349.959	350.146	89	63
350.146	350.337	51	66
350.146	350.337	84	71
350.146	350.337	87	71
350.337	350.523	67	54
350.337	350.43	78	59
350.43	350.523	79	56
350.523	350.708	55	54
350.523	350.708	60	54
350.523	350.584	82	59
350.584	350.646	80	59
350.646	350.708	79	55
350.708	351.263	53	64
350.708	351.263	79	70
350.902	351.083	67	54
350.902	351.083	75	64
350.902	351.083	87	64
351.083	351.263	55	54
351.083	351.263	59	54
351.083	351.263	74	64
351.083	351.263	86	64
351.263	351.901	51	63
351.263	351.463	72	70
351.263	351.463	79	70
351.263	351.463	84	70
351.463	351.682	63	52
351.463	351.573	66	59
351.573	351.682	67	55
351.682	351.901	55	52
351.682	351.901	60	52
351.682	351.755	70	59
351.755	351.828	68	59
351.828	351.901	67	56
351.901	352.615	50	58
351.901	352.864	67	71
352.144	352.38	62	51
352.144	352.615	71	56
352.144	352.38	79	56
352.38	352.615	55	51
352.38	352.615	77	55
352.615	353.338	48	57
352.615	352.864	72	60
352.615	352.864	75	60
352.864	353.101	60	49
352.864	352.982	62	53
352.982	353.101	63	53
353.101	353.338	51	49
353.101	353.338	55	49
353.101	353.18	67	53
353.18	353.259	65	53
353.259	353.338	63	50
353.338	354.022	46	55
353.338	354.249	63	61
353.579	353.8	61	50
353.579	354.022	67	58
353.579	353.8	75	58
353.8	354.022	51	50
353.8	354.022	55	50
353.8	354.022	73	56
354.022	354.249	44	56
354.022	354.249	68	63
354.022	354.249	71	63
354.249	354.46	59	50
354.249	354.354	74	54
354.354	354.46	75	51
354.46	354.67	51	50
354.46	354.67	56	50
354.46	354.53	78	54
354.53	354.6	76	54
354.6	354.67	75	51
354.67	354.87	43	57
354.67	355.448	75	62
354.87	355.062	63	52
354.87	355.254	82	58
354.87	355.062	87	58
355.062	355.254	51	52
355.062	355.254	58	52
355.062	355.254	85	59
355.254	355.448	44	59
355.254	355.448	80	67
355.254	355.448	83	67
355.448	355.638	63	53
355.448	355.543	74	59
355.543	355.638	75	56
355.638	355.827	51	53
355.638	355.827	56	53
355.638	355.827	59	53
355.638	355.701	78	59
355.701	355.764	76	59
355.764	355.827	75	55
355.827	356.023	46	64
355.827	356.4	75	68
356.023	356.212	63	54
356.023	356.212	71	63
356.023	356.212	83	63
356.212	356.4	51	54
356.212	356.4	55	54
356.212	356.4	61	54
356.212	356.4	70	63
356.212	356.4	82	63
356.4	356.603	47	66
356.4	356.603	68	69
356.4	356.603	75	69
356.4	356.603	80	69
356.603	356.8	63	57
356.603	356.702	74	60
356.702	356.8	75	56
356.8	356.998	51	57
356.8	356.998	56	57
356.8	356.998	59	57
356.8	356.866	78	60
356.866	356.932	76	60
356.932	356.998	75	56
356.998	357.19	43	68
356.998	357.759	75	74
357.19	357.373	63	60
357.19	357.557	82	65
357.19	357.373	87	65
357.373	357.557	51	60
357.373	357.557	58	60
357.373	357.557	85	65
357.557	357.759	44	70
357.557	357.759	80	76
357.557	357.759	83	76
357.759	357.969	63	60
357.759	357.864	74	66
357.864	357.969	75	61
357.969	358.18	51	60
357.969	358.18	56	60
357.969	358.18	59	60
357.969	358.039	78	66
358.039	358.109	76	66
358.109	358.18	75	61
358.18	358.414	46	72
358.18	358.9	75	82
358.414	358.657	63	67
358.414	358.657	71	73
358.414	358.657	83	73
358.657	358.9	51	72
358.657	358.9	55	72
358.657	358.9	61	72
358.657	358.9	70	73
358.657	358.9	82	73
358.9	359.021	35	86
358.9	359.021	47	86
358.9	359.143	68	73
358.9	359.143	76	87
358.9	359.143	80	87
359.386	359.629	56	50
359.386	359.629	64	50
359.568	359.629	80	70
359.629	359.929	59	62
359.629	359.929	71	62
359.629	359.929	92	95
359.929	360.017	90	81
360.017	360.106	88	76
360.106	360.283	56	51
360.106	360.283	64	51
360.106	360.194	83	79
360.194	360.283	80	72
360.283	360.46	59	61
360.283	360.46	71	61
360.283	360.371	78	76
360.371	360.46	76	71
360.46	360.548	71	74
360.548	360.637	68	68
360.637	360.725	66	71
360.725	360.814	64	66
360.814	360.991	59	69
361.345	361.814	35	40
361.345	361.814	47	40
361.345	361.814	75	55
361.433	361.814	76	52
361.523	361.814	78	50
361.612	361.814	80	44
361.702	361.814	81	45
361.793	361.884	83	42
361.884	362.102	57	38
361.884	362.102	60	38
361.884	362.102	63	38
361.884	362.102	66	38
361.884	362.102	84	40
362.102	362.299	57	44
362.102	362.299	60	44
362.102	362.299	63	44
362.102	362.299	68	44
362.299	362.496	57	42
362.299	362.496	60	42
362.299	362.496	63	42
362.299	362.496	66	42
362.496	362.584	57	39
362.496	362.584	60	39
362.496	362.584	63	39
362.496	362.584	66	39
362.496	362.584	84	50
362.584	362.672	83	46
362.672	362.76	81	47
362.76	362.848	80	43
362.848	362.936	78	44
362.936	363.024	76	42
363.024	363.233	35	53
363.024	363.233	47	53
363.024	363.233	75	41
363.233	363.428	33	49
363.233	363.428	45	49
363.428	363.624	36	53
363.428	363.624	48	53
363.575	363.624	80	81
363.624	363.717	35	52
363.624	363.717	47	52
363.624	364.372	92	115
363.811	363.997	56	45
363.811	363.997	64	45
363.997	364.184	56	45
363.997	364.184	64	45
364.184	364.459	59	51
364.184	364.459	71	51
364.372	364.459	90	81
364.459	364.545	56	45
364.459	364.545	64	45
364.459	364.545	88	73
364.545	364.717	56	45
364.545	364.717	64	45
364.545	364.631	83	79
364.631	364.717	80	73
364.717	364.89	59	52
364.717	364.89	71	52
364.717	364.804	78	76
364.804	364.89	76	70
364.89	364.976	71	74
364.976	365.062	68	69
365.062	365.148	66	71
365.148	365.235	64	70
365.235	365.404	59	69
365.742	366.18	38	40
365.742	366.18	50	40
365.742	366.18	77	57
365.825	366.18	78	55
365.909	366.18	80	53
365.993	366.18	81	52
366.077	366.18	83	50
366.161	366.245	85	48
366.245	366.424	59	38
366.245	366.424	66	38
366.245	366.424	68	38
366.245	366.424	86	46
366.424	366.599	59	44
366.424	366.599	66	44
366.424	366.599	69	44
366.599	366.774	59	42
366.599	366.774	66	42
366.599	366.774	68	42
366.774	366.858	59	39
366.774	366.858	65	39
366.774	366.858	68	39
366.774	366.858	86	56
366.858	366.942	85	54
366.942	367.026	83	53
367.026	367.109	81	52
367.109	367.193	80	51
367.193	367.277	78	50
367.277	367.456	38	53
367.277	367.456	50	53
367.277	367.456	77	48
367.456	367.63	36	53
367.456	367.63	48	53
367.63	368.242	37	53
367.63	368.242	49	53
367.803	368.242	40	47
367.803	368.242	52	47
367.803	368.242	79	66
367.887	368.242	80	65
367.971	368.242	82	64
368.055	368.242	83	63
368.138	368.242	85	62
368.222	368.307	87	61
368.307	368.484	61	48
368.307	368.484	68	48
368.307	368.484	70	48
368.307	368.484	88	60
368.484	368.657	61	53
368.484	368.657	68	53
368.484	368.657	71	53
368.657	368.83	61	51
368.657	368.83	68	51
368.657	368.83	70	51
368.83	368.913	61	49
368.83	368.913	67	49
368.83	368.913	70	49
368.83	368.913	88	65
368.913	368.997	87	64
368.997	369.08	85	62
369.08	369.164	83	61
369.164	369.247	82	59
369.247	369.331	80	58
369.331	369.511	40	58
369.331	369.511	52	58
369.331	369.511	79	56
369.511	369.684	38	58
369.511	369.684	50	58
369.684	369.857	39	58
369.684	369.857	51	58
369.857	369.942	42	55
369.857	369.942	54	55
369.857	369.942	81	71
369.942	370.026	82	72
370.026	370.111	84	73
370.111	370.195	85	75
370.195	370.364	60	49
370.195	370.364	63	49
370.195	370.364	69	49
370.195	370.28	87	76
370.28	370.364	89	77
370.364	370.533	63	54
370.364	370.533	69	54
370.364	370.533	75	54
370.364	370.449	90	78
370.449	370.533	99	78
370.533	370.618	90	77
370.618	370.702	89	76
370.702	370.871	60	52
370.702	370.871	63	52
370.702	370.871	69	52
370.702	370.787	87	75
370.787	370.871	85	75
370.871	371.04	63	56
370.871	371.04	69	56
370.871	371.04	75	56
370.871	370.956	84	71
370.956	371.04	85	72
371.04	371.125	86	73
371.125	371.209	87	74
371.209	371.378	54	70
371.209	371.378	66	70
371.209	371.294	88	76
371.294	371.378	89	77
371.378	371.547	54	70
371.378	371.547	66	70
371.378	371.463	90	78
371.463	371.547	99	79
371.547	371.716	54	70
371.547	371.716	66	70
371.547	371.632	90	80
371.632	371.716	89	82
371.716	371.885	54	70
371.716	371.885	66	70
371.716	371.801	87	83
371.801	371.885	85	84
371.885	372.054	53	73
371.885	372.054	60	73
371.885	372.054	63	73
371.885	372.054	69	73
371.885	371.97	84	85
372.054	372.135	101	93
372.135	372.216	100	83
372.216	372.297	99	81
372.297	372.378	96	78
372.378	372.459	89	89
372.378	372.54	93	76
372.459	372.54	88	81
372.54	372.621	87	79
372.621	372.701	84	78
372.701	372.782	77	90
372.701	372.863	81	76
372.782	372.863	76	82
372.863	372.944	75	80
372.944	373.025	72	78
373.025	373.106	65	88
373.025	373.187	69	76
373.106	373.187	64	81
373.187	373.268	63	79
373.268	373.348	60	77
373.348	373.429	53	90
373.348	373.51	57	75
373.429	373.51	52	84
373.51	373.591	51	82
373.591	373.672	48	80
373.672	373.855	41	117
373.855	374.063	34	100
373.855	374.063	46	100
373.855	374.063	73	89
373.855	374.063	85	89
374.063	374.254	58	58
374.063	374.254	70	58
374.063	374.159	76	74
374.159	374.254	77	71
374.254	374.445	61	58
374.254	374.445	65	58
374.254	374.318	80	74
374.318	374.382	78	74
374.382	374.445	77	71
374.445	374.652	44	81
374.445	374.652	56	81
374.445	374.652	77	89
374.652	374.844	56	58
374.652	374.844	68	58
374.652	374.844	76	81
374.652	374.844	88	81
374.844	375.041	60	58
374.844	375.041	65	58
374.844	375.041	77	81
374.844	375.041	89	81
375.041	375.243	42	81
375.041	375.243	54	81
375.041	375.243	70	89
375.041	375.243	82	89
375.243	375.438	54	58
375.243	375.438	66	58
375.243	375.341	72	73
375.341	375.438	73	71
375.438	375.633	58	58
375.438	375.633	61	58
375.438	375.503	77	73
375.503	375.568	75	73
375.568	375.633	73	69
375.633	375.843	41	80
375.633	375.843	53	80
375.633	375.843	73	89
375.843	376.04	53	56
375.843	376.04	65	56
375.843	376.04	72	81
375.843	376.04	84	81
376.04	376.237	56	56
376.04	376.237	61	56
376.04	376.237	73	81
376.04	376.237	85	81
376.237	376.442	39	81
376.237	376.442	51	81
376.237	376.442	66	89
376.237	376.442	78	89
376.442	376.646	51	56
376.442	376.646	63	56
376.442	376.544	69	73
376.544	376.646	70	69
376.646	376.849	54	56
376.646	376.849	58	56
376.646	376.713	73	73
376.713	376.781	72	73
376.781	376.849	70	69
376.849	377.052	37	81
376.849	377.052	49	81
376.849	377.052	70	89
377.052	377.256	49	62
377.052	377.256	61	62
377.052	377.256	69	81
377.052	377.256	81	81
377.256	377.465	53	61
377.256	377.465	58	61
377.256	377.465	70	81
377.256	377.465	82	81
377.465	377.669	36	81
377.465	377.669	48	81
377.465	377.669	63	89
377.465	377.669	75	89
377.669	377.873	48	57
377.669	377.873	60	57
377.669	377.771	65	74
377.771	377.873	66	70
377.873	378.077	51	57
377.873	378.077	54	57
377.873	377.941	70	74
377.941	378.009	68	74
378.009	378.077	66	71
378.077	378.281	34	80
378.077	378.281	46	80
378.077	378.716	66	89
378.281	378.716	46	58
378.281	378.716	58	58
378.281	378.498	74	85
378.281	378.498	77	85
378.498	378.716	51	58
378.498	378.716	54	58
378.498	378.716	75	85
378.498	378.716	78	85
378.716	378.941	45	76
378.716	378.941	48	76
378.716	378.941	53	76
378.716	378.941	57	76
378.716	378.941	65	84
378.716	378.941	72	84
378.716	378.941	75	84
378.716	378.941	77	84
378.941	379.053	52	64
378.941	379.053	64	68
379.053	379.165	53	61
379.053	379.165	65	66
379.165	379.24	56	64
379.165	379.24	68	68
379.24	379.315	54	64
379.24	379.315	66	68
379.315	379.39	53	61
379.315	379.39	65	66
379.39	379.603	34	57
379.39	379.603	53	59
379.403	379.603	58	59
379.417	379.603	46	57
379.417	379.603	61	59
379.43	379.603	65	59
379.603	379.808	51	71
379.603	379.808	63	71
379.603	379.808	75	73
379.603	379.808	87	73
379.808	380.019	49	72
379.808	380.019	61	72
379.808	380.019	73	73
379.808	380.019	85	73
380.019	380.216	41	74
380.019	380.216	72	68
380.031	380.216	48	74
380.031	380.216	77	69
380.043	380.216	57	74
380.043	380.216	81	72
380.056	380.216	84	77
380.216	380.314	52	62
380.216	380.314	64	68
380.314	380.411	53	59
380.314	380.411	65	66
380.411	380.476	56	62
380.411	380.476	68	69
380.476	380.541	54	62
380.476	380.541	66	69
380.541	380.606	53	58
380.541	380.606	65	67
380.606	380.804	34	54
380.606	380.804	53	60
380.619	380.804	58	60
380.631	380.804	46	54
380.631	380.804	61	60
380.643	380.804	65	60
380.804	381.004	48	69
380.804	381.004	60	69
380.804	381.004	72	74
380.804	381.004	84	74
381.004	381.21	46	69
381.004	381.21	58	69
381.004	381.21	70	74
381.004	381.21	82	74
381.21	381.411	41	75
381.21	381.411	69	69
381.223	381.411	48	75
381.223	381.411	72	70
381.235	381.411	57	75
381.235	381.411	77	74
381.248	381.411	81	76
381.411	381.513	52	61
381.411	381.513	64	65
381.513	381.615	53	58
381.513	381.615	65	60
381.615	381.683	56	61
381.615	381.683	68	65
381.683	381.751	54	61
381.683	381.751	66	65
381.751	381.819	53	57
381.751	381.819	65	61
381.819	382.019	34	55
381.819	382.019	53	56
381.831	382.019	58	56
381.844	382.019	46	55
381.844	382.019	61	56
381.856	382.019	65	56
382.019	382.222	51	74
382.019	382.222	63	74
382.019	382.222	75	78
382.019	382.222	87	78
382.222	382.434	49	73
382.222	382.434	61	73
382.222	382.434	73	78
382.222	382.434	85	78
382.434	382.634	41	75
382.434	382.634	72	74
382.446	382.634	48	75
382.446	382.634	77	75
382.459	382.634	57	74
382.459	382.634	81	77
382.471	382.634	84	80
382.634	382.735	52	67
382.634	382.735	64	70
382.735	382.836	53	63
382.735	382.836	65	67
382.836	382.904	56	67
382.836	382.904	68	70
382.904	382.971	54	67
382.904	382.971	66	70
382.971	383.038	53	62
382.971	383.038	65	68
383.038	383.237	34	60
383.038	383.237	53	62
383.051	383.237	58	62
383.063	383.237	46	60
383.063	383.237	61	62
383.075	383.237	65	62
383.237	383.438	48	74
383.237	383.438	60	74
383.237	383.438	72	77
383.237	383.438	84	77
383.438	383.639	46	74
383.438	383.639	58	74
383.438	383.639	70	77
383.438	383.639	82	77
383.639	383.839	41	75
383.639	383.839	69	73
383.651	383.839	48	75
383.651	383.839	72	74
383.664	383.839	57	74
383.664	383.839	77	77
383.676	383.839	81	81
383.839	383.938	52	63
383.839	383.938	64	67
383.938	384.037	53	60
383.938	384.037	65	64
384.037	384.103	56	63
384.037	384.103	68	67
384.103	384.168	54	63
384.103	384.168	66	67
384.168	384.234	53	60
384.168	384.234	65	64
384.234	384.432	53	74
384.234	384.432	65	80
384.432	384.635	61	71
384.432	384.635	73	77
384.432	384.635	85	77
384.635	384.844	60	73
384.635	384.844	72	78
384.635	384.844	84	78
384.844	385.042	41	76
384.844	385.042	69	74
384.857	385.042	48	76
384.857	385.042	72	75
384.869	385.042	57	76
384.869	385.042	77	78
384.881	385.042	81	83
385.042	385.143	47	67
385.042	385.143	59	70
385.143	385.244	48	64
385.143	385.244	60	66
385.244	385.312	51	67
385.244	385.312	63	70
385.312	385.379	49	67
385.312	385.379	61	70
385.379	385.447	48	64
385.379	385.447	60	66
385.447	385.645	36	74
385.447	385.645	48	74
385.447	385.645	60	80
385.645	385.851	58	73
385.645	385.851	70	78
385.851	386.061	57	70
385.851	386.061	69	75
386.061	386.262	41	69
386.061	386.262	69	65
386.074	386.262	48	69
386.074	386.262	72	67
386.086	386.262	57	69
386.086	386.262	77	71
386.099	386.262	81	71
386.262	386.362	52	66
386.262	386.362	64	70
386.362	386.462	53	63
386.362	386.462	65	67
386.462	386.529	56	66
386.462	386.529	68	70
386.529	386.596	54	66
386.529	386.596	66	70
386.596	386.663	53	63
386.596	386.663	65	66
386.663	386.862	53	74
386.663	386.862	65	80
386.862	387.075	61	74
386.862	387.075	73	77
386.862	387.075	85	77
387.075	387.288	60	71
387.075	387.288	72	77
387.075	387.288	84	77
387.288	387.501	41	68
387.288	387.501	69	65
387.301	387.501	48	68
387.301	387.501	72	66
387.315	387.501	57	68
387.315	387.501	77	70
387.328	387.501	81	76
387.501	387.611	47	66
387.501	387.611	59	69
387.611	387.721	48	64
387.611	387.721	60	67
387.721	387.795	51	66
387.721	387.795	63	69
387.795	387.868	49	66
387.795	387.868	61	69
387.868	387.942	48	63
387.868	387.942	60	66
387.942	388.179	36	75
387.942	388.179	48	75
387.942	388.179	60	78
388.179	388.403	58	69
388.179	388.403	70	77
388.403	388.627	57	71
388.403	388.627	69	74
388.627	388.851	41	59
388.627	388.851	69	62
388.641	388.851	48	59
388.641	388.851	72	63
388.655	388.851	57	59
388.655	388.851	77	65
388.669	388.851	81	69
388.851	388.963	47	61
388.851	388.963	59	64
388.963	389.075	48	57
388.963	389.075	60	59
389.075	389.149	51	61
389.075	389.149	63	64
389.149	389.224	49	61
389.149	389.224	61	64
389.224	389.298	48	57
389.224	389.298	60	60
389.298	389.522	36	69
389.298	389.522	48	69
389.298	389.522	60	72
389.522	389.75	58	67
389.522	389.75	70	71
389.75	389.977	57	65
389.75	389.977	69	69
389.977	390.204	41	62
389.977	390.204	69	58
389.991	390.204	48	62
389.991	390.204	72	59
390.005	390.204	57	62
390.005	390.204	77	61
390.019	390.204	81	63
390.204	390.316	47	56
390.204	390.316	59	59
390.316	390.428	48	53
390.316	390.428	60	56
390.428	390.503	51	57
390.428	390.503	63	59
390.503	390.577	49	57
390.503	390.577	61	59
390.577	390.652	48	54
390.577	390.652	60	55
390.652	390.876	36	65
390.652	390.876	48	65
390.652	390.876	60	67
390.876	391.1	58	60
390.876	391.1	70	67
391.1	391.324	57	60
391.1	391.324	69	64
391.324	391.551	41	56
391.324	391.551	69	54
391.338	391.551	48	56
391.338	391.551	72	54
391.352	391.551	53	56
391.352	391.551	77	56
391.366	391.551	81	58
391.551	391.663	35	48
391.551	391.663	47	53
391.663	391.775	36	44
391.663	391.775	48	51
391.775	391.849	39	48
391.775	391.849	51	53
391.849	391.924	37	48
391.849	391.924	49	53
391.924	391.999	36	45
391.924	391.999	48	49
391.999	392.233	36	55
391.999	392.233	48	59
392.233	392.345	46	55
392.233	392.345	58	56
392.458	392.57	45	53
392.458	392.57	57	58
392.682	392.907	41	56
392.682	392.907	53	62
392.907	393.019	35	43
392.907	393.019	47	46
393.019	393.132	36	40
393.019	393.132	48	43
393.132	393.207	39	43
393.132	393.207	51	46
393.207	393.282	37	43
393.207	393.282	49	46
393.282	393.357	36	40
393.282	393.357	48	42
393.357	393.581	36	46
393.357	393.581	48	51
393.581	393.706	46	49
393.581	393.706	58	52
393.83	393.957	45	49
393.83	393.957	57	52
394.083	394.337	41	52
394.083	394.337	53	56
395.856	395.982	35	44
395.856	395.982	47	47
395.982	396.109	36	41
395.982	396.109	48	44
396.109	396.193	39	44
396.109	396.193	51	47
396.193	396.277	37	44
396.193	396.277	49	47
396.277	396.362	36	41
396.277	396.362	48	44
396.362	396.488	36	52
396.362	396.488	48	55
396.615	396.749	46	49
396.615	396.749	58	52
396.883	397.023	45	46
396.883	397.023	57	49
397.163	397.444	41	52
397.163	397.444	53	55
398.285	398.591	34	43
398.285	398.591	46	46
398.591	398.964	33	43
398.591	398.964	45	45
398.964	399.992	29	43
398.964	399.992	41	46
401.21	401.282	45	27
401.21	401.282	57	29
401.282	401.353	46	28
401.282	401.353	58	31
401.353	401.425	49	29
401.353	401.425	61	33
401.425	401.538	53	33
401.425	401.538	65	37
401.879	401.95	45	26
401.879	401.95	57	29
401.95	402.022	46	27
401.95	402.022	58	31
402.022	402.093	49	29
402.022	402.093	61	32
402.093	405.611	53	38
402.093	405.611	65	43
403.447	405.611	34	95
403.447	405.611	46	95
403.447	404.009	58	100
404.009	405.134	58	72
404.009	405.134	60	72
404.009	405.134	63	85
404.009	405.134	66	85
404.009	405.134	70	85
404.009	405.611	82	78
404.009	405.509	90	92
404.009	405.611	94	92
405.134	405.415	58	47
405.134	405.415	60	47
405.134	405.415	63	56
405.134	405.415	66	56
405.134	405.415	70	56
405.134	405.611	75	51
405.134	405.415	84	61
405.134	405.611	87	61
405.415	405.509	58	51
405.415	405.509	60	51
405.415	405.509	63	61
405.415	405.509	66	61
405.415	405.509	70	61
405.415	405.611	77	57
405.415	405.509	84	68
405.415	405.611	89	68
405.509	405.713	58	56
405.509	405.713	60	56
405.509	405.713	63	66
405.509	405.713	66	66
405.509	405.713	70	66
405.509	405.713	78	60
405.509	405.713	84	71
405.509	405.713	90	71
405.713	405.917	58	52
405.713	405.917	61	52
405.713	405.917	65	62
405.713	405.917	70	62
405.713	405.917	77	57
405.713	405.917	85	68
405.713	405.917	89	68
406.121	406.19	45	27
406.121	406.19	57	27
406.19	406.258	46	28
406.19	406.258	58	29
406.258	406.326	49	30
406.258	406.326	61	30
406.326	406.428	53	33
406.326	406.428	65	35
406.734	406.802	45	26
406.734	406.802	57	27
406.802	406.87	46	28
406.802	406.87	58	29
406.87	406.938	49	30
406.87	406.938	61	30
406.938	410.083	53	37
406.938	408.592	65	39
408.07	410.083	32	95
408.07	410.083	44	95
408.07	408.592	56	100
408.592	409.635	56	75
408.592	410.083	65	89
408.592	410.083	73	89
408.592	410.083	80	76
408.592	409.896	89	90
408.592	410.083	92	90
409.635	409.896	56	49
409.635	409.896	63	58
409.635	409.896	66	58
409.635	409.896	68	58
409.635	410.083	75	51
409.635	409.896	84	60
409.635	410.083	87	60
409.896	409.987	56	53
409.896	409.987	63	63
409.896	409.987	66	63
409.896	409.987	68	63
409.896	410.083	77	55
409.896	409.987	84	65
409.896	410.083	89	65
409.987	410.18	56	57
409.987	410.18	63	68
409.987	410.18	66	68
409.987	410.18	68	68
409.987	410.18	78	59
409.987	410.18	84	70
409.987	410.18	90	70
410.18	410.354	61	55
410.18	410.354	65	65
410.18	410.354	68	65
410.18	410.354	77	56
410.18	410.354	85	67
410.18	410.354	89	67
410.702	411.224	53	65
410.702	411.413	60	77
410.702	411.224	65	77
410.702	411.413	69	81
410.702	411.413	77	81
411.224	411.602	41	65
411.224	411.602	48	77
411.224	411.602	53	77
411.224	411.602	57	81
411.224	411.602	65	81
411.791	413.173	29	79
411.791	413.173	41	94
413.173	413.321	30	82
413.173	413.321	42	97
415.166	415.235	45	27
415.166	415.235	57	27
415.235	415.304	46	28
415.235	415.304	58	29
415.304	415.373	49	29
415.304	415.373	61	30
415.373	415.476	53	33
415.373	415.476	65	34
415.786	415.855	45	27
415.786	415.855	57	29
415.855	415.924	46	28
415.855	415.924	58	30
415.924	415.993	49	29
415.924	415.993	61	31
415.993	419.426	53	37
415.993	419.426	65	39
417.235	419.426	34	95
417.235	419.426	46	95
417.235	417.797	58	100
417.797	418.641	58	72
417.797	418.641	60	72
417.797	418.641	63	85
417.797	418.641	66	85
417.797	418.641	70	85
417.797	419.426	82	78
417.797	419.297	90	92
417.797	419.426	94	92
418.641	418.735	58	47
418.641	418.735	60	47
418.641	418.735	63	56
418.641	418.735	66	56
418.641	418.735	70	56
418.641	418.735	75	49
418.641	418.735	84	58
418.641	418.735	87	58
418.735	418.922	58	47
418.735	418.922	60	47
418.735	418.922	63	56
418.735	418.922	66	56
418.735	418.922	70	56
418.735	418.922	75	49
418.735	418.922	84	58
418.735	418.922	87	58
418.922	419.203	58	47
418.922	419.203	60	47
418.922	419.203	63	56
418.922	419.203	66	56
418.922	419.203	70	56
418.922	419.426	75	51
418.922	419.203	84	61
418.922	419.426	87	61
419.203	419.297	58	51
419.203	419.297	60	51
419.203	419.297	63	61
419.203	419.297	66	61
419.203	419.297	70	61
419.203	419.426	77	57
419.203	419.297	84	68
419.203	419.426	89	68
419.297	419.501	58	56
419.297	419.501	60	56
419.297	419.501	63	66
419.297	419.501	66	66
419.297	419.501	70	66
419.297	419.501	78	60
419.297	419.501	84	71
419.297	419.501	90	71
419.501	419.705	58	52
419.501	419.705	61	62
419.501	419.705	65	62
419.501	419.705	70	62
419.501	419.705	77	57
419.501	419.705	85	68
419.501	419.705	89	68
419.909	419.978	45	27
419.909	419.978	57	29
419.978	420.046	46	29
419.978	420.046	58	30
420.046	420.114	49	30
420.046	420.114	61	32
420.114	420.216	53	34
420.114	420.216	65	37
420.522	420.59	45	24
420.522	420.59	57	29
420.59	420.658	46	26
420.59	420.658	58	30
420.658	420.726	49	27
420.658	420.726	61	32
420.726	423.735	53	37
420.726	422.295	65	39
421.793	423.735	24	95
421.793	423.735	36	95
421.793	423.735	48	100
422.295	423.297	60	75
422.295	423.735	65	75
422.295	423.735	68	89
422.295	423.297	72	89
422.295	423.735	84	76
422.295	423.548	92	90
422.295	423.735	96	90
423.297	423.548	60	49
423.297	423.548	64	58
423.297	423.548	70	58
423.297	423.548	72	58
423.297	423.735	79	51
423.297	423.548	88	60
423.297	423.735	91	60
423.548	423.639	60	53
423.548	423.639	64	63
423.548	423.639	70	63
423.548	423.639	72	63
423.548	423.735	80	55
423.548	423.639	88	65
423.548	423.735	92	65
423.639	423.832	60	57
423.639	423.832	64	68
423.639	423.832	70	68
423.639	423.832	72	68
423.639	423.832	82	59
423.639	423.832	88	70
423.639	423.832	94	70
423.832	424.006	65	55
423.832	424.006	68	65
423.832	424.006	72	65
423.832	424.006	80	56
423.832	424.006	89	67
423.832	424.006	92	67
424.354	424.898	53	65
424.354	424.898	60	77
424.354	424.898	65	77
424.354	424.898	68	68
424.354	425.109	72	81
424.354	425.109	77	81
424.354	425.109	80	81
424.898	425.32	41	65
424.898	425.32	48	77
424.898	425.32	53	77
424.898	425.32	56	68
424.898	425.32	60	81
424.898	425.32	65	81
424.898	425.32	68	81
425.532	426.716	28	79
425.532	426.716	40	94
426.716	427.469	29	94
426.716	427.469	41	94
427.469	427.553	26	45
427.469	427.553	38	50
427.553	427.636	27	45
427.553	427.636	39	51
427.636	427.72	29	45
427.636	427.72	41	51
427.72	427.804	29	47
427.72	427.804	41	53
427.804	427.887	27	46
427.804	427.887	39	52
427.887	427.971	29	50
427.887	427.971	41	56
427.971	428.049	27	49
427.971	428.049	39	55
428.049	428.128	29	51
428.049	428.128	41	57
428.128	428.201	27	51
428.128	428.201	39	56
428.201	428.274	29	53
428.201	428.274	41	59
428.274	428.348	27	52
428.274	428.348	39	58
428.348	428.421	29	54
428.348	428.421	41	61
428.421	428.484	27	53
428.421	428.484	39	60
428.484	428.547	29	55
428.484	428.547	41	62
428.547	428.614	27	55
428.547	428.614	39	62
428.614	428.682	29	56
428.614	428.682	41	63
428.682	428.754	27	56
428.682	428.754	39	62
428.754	428.828	29	56
428.754	428.828	41	63
428.828	429.026	26	73
428.828	429.026	38	73
429.026	430.986	27	59
429.026	430.986	39	64
429.237	430.986	25	74
429.237	430.986	37	88
429.237	430.986	101	97
429.743	430.371	44	45
429.743	430.371	56	45
429.969	430.548	53	53
429.969	430.548	61	53
430.194	430.986	99	68
430.283	430.986	97	62
430.371	430.986	44	42
430.371	430.986	56	42
430.371	430.986	92	65
430.46	430.986	89	60
430.548	430.986	53	47
430.548	430.986	61	47
430.548	430.986	87	62
430.637	430.986	85	57
430.725	430.986	80	58
430.814	430.986	77	52
430.902	430.991	75	55
430.991	431.079	73	51
431.079	431.256	68	52
431.61	432.08	32	52
431.61	432.08	44	52
431.61	432.08	72	55
431.699	432.08	73	52
431.788	432.08	75	50
431.878	432.08	77	47
431.968	432.08	78	45
432.053	432.144	80	42
432.149	432.367	55	38
432.149	432.367	60	38
432.149	432.367	66	38
432.149	432.258	81	40
432.367	432.565	56	35
432.367	432.565	60	35
432.367	432.565	66	35
432.565	432.663	56	31
432.565	432.663	60	31
432.565	432.663	66	31
432.762	432.852	81	50
432.852	432.942	80	49
432.942	433.032	79	47
433.032	433.121	78	46
433.121	433.21	77	44
433.21	433.298	76	42
433.298	433.513	57	35
433.298	433.513	60	35
433.298	433.513	66	35
433.298	433.405	75	41
433.513	433.71	56	32
433.513	433.71	60	32
433.513	433.71	66	32
433.71	433.809	56	28
433.71	433.809	60	28
433.71	433.809	66	28
433.908	435.555	25	74
433.908	435.555	37	88
433.908	435.555	101	97
434.359	434.953	44	45
434.359	434.953	56	45
434.569	435.127	53	53
434.569	435.127	61	53
434.78	435.555	99	68
434.867	435.555	97	61
434.953	435.555	44	42
434.953	435.555	56	42
434.953	435.555	92	65
435.04	435.555	89	59
435.127	435.555	53	47
435.127	435.555	61	47
435.127	435.555	87	62
435.213	435.555	85	57
435.3	435.555	80	58
435.387	435.555	77	57
435.473	435.56	75	55
435.56	435.647	73	51
435.647	435.82	68	52
436.166	436.7	65	25
436.166	436.7	72	42
436.166	436.342	75	25
436.254	436.342	73	41
436.342	436.7	75	41
436.431	436.52	77	40
436.52	436.61	78	39
436.605	436.695	80	38
436.7	436.79	60	32
436.7	436.79	81	37
436.79	436.879	61	32
436.879	436.969	63	32
436.969	437.059	65	32
437.059	437.149	66	32
437.149	437.239	68	32
437.239	437.327	69	32
437.239	437.327	81	42
437.327	437.415	80	41
437.415	437.503	79	40
437.503	437.592	78	39
437.592	437.68	77	37
437.68	437.768	76	36
437.768	437.862	57	30
437.768	437.959	75	35
437.862	437.959	56	29
437.959	438.058	55	28
438.058	438.16	54	27
438.16	438.266	53	26
438.266	438.956	51	25
438.374	438.956	49	27
438.374	439.787	71	40
438.374	439.713	77	59
438.491	438.956	56	28
438.607	438.839	61	30
438.723	438.956	65	34
438.839	438.956	61	31
438.956	439.713	56	30
439.072	439.713	49	29
439.188	439.659	59	28
439.305	439.539	61	30
439.305	439.713	75	53
439.421	439.713	65	31
439.539	439.713	61	30
439.659	439.903	59	29
439.659	439.787	73	52
439.787	440.405	54	28
439.787	441.041	71	38
439.787	441.041	73	56
439.903	440.366	59	28
440.018	440.25	61	31
440.134	440.405	66	34
440.25	440.405	61	31
440.366	441.041	59	29
440.482	441.041	49	29
440.482	441.676	70	56
440.482	441.676	78	56
440.591	441.022	58	28
440.7	440.915	61	30
440.808	441.041	66	33
440.915	441.041	61	31
441.022	441.676	58	30
441.128	441.676	56	28
441.128	442.99	71	50
441.234	441.66	59	28
441.34	441.551	61	30
441.445	441.676	68	33
441.551	441.676	61	31
441.551	441.77	77	52
441.66	441.877	59	29
441.77	442.328	49	29
441.77	442.328	77	51
441.877	442.328	59	28
441.985	442.202	61	30
441.985	442.328	75	50
442.093	442.328	65	31
442.202	442.328	61	30
442.202	442.452	73	49
442.328	442.99	59	29
442.452	442.99	54	29
442.452	443.778	70	44
442.452	443.095	73	44
442.452	443.095	82	56
442.561	442.99	58	30
442.67	442.885	61	34
442.778	442.99	66	35
442.885	442.99	61	34
442.99	443.216	58	33
443.095	443.778	52	35
443.095	443.46	68	44
443.095	443.855	73	44
443.095	443.585	82	62
443.216	443.72	58	36
443.336	443.585	61	39
443.46	444.491	68	37
443.585	443.778	61	34
443.585	443.855	82	64
443.72	443.975	58	31
443.788	444.214	67	44
443.855	444.491	51	36
443.855	445.354	73	45
443.855	444.491	82	68
443.975	444.466	58	38
444.094	444.334	61	41
444.214	444.491	67	45
444.334	444.491	61	42
444.334	444.599	75	57
444.466	445.275	58	39
444.599	445.275	55	36
444.599	445.21	75	57
444.717	445.21	61	38
444.835	445.082	63	41
444.835	444.953	77	51
444.894	445.275	79	51
444.953	445.275	70	46
444.953	445.275	77	56
445.082	445.275	63	42
445.21	445.462	61	39
445.21	445.354	75	56
445.354	445.906	56	37
445.354	446.532	73	49
445.354	446.532	75	59
445.462	445.894	61	38
445.57	445.786	63	42
445.678	445.906	68	45
445.786	445.906	63	41
445.894	446.532	61	38
446.002	446.532	51	36
446.002	447.108	72	53
446.002	447.108	80	64
446.103	446.508	60	37
446.204	446.407	63	40
446.306	446.532	68	44
446.407	446.532	63	41
446.508	447.108	60	39
446.61	447.108	58	36
446.61	448.575	73	55
446.711	447.108	61	37
446.812	447.015	63	40
446.812	447.108	79	60
446.914	447.108	70	42
447.015	447.12	63	41
447.015	447.435	77	59
447.12	447.33	61	39
447.225	447.878	51	37
447.225	447.878	79	60
447.33	447.855	61	36
447.435	447.69	63	38
447.435	447.878	77	59
447.562	447.878	67	40
447.69	447.878	63	40
447.855	448.575	61	37
447.855	448.575	75	56
448.02	448.575	56	50
448.02	450.194	72	56
448.02	448.668	84	56
448.13	448.562	60	40
448.239	448.455	63	44
448.347	448.575	68	45
448.455	448.575	63	44
448.562	448.949	60	42
448.668	450.194	55	39
448.668	449.229	84	64
448.808	449.383	56	41
448.949	449.229	60	45
449.089	449.419	63	49
449.229	449.419	60	47
449.229	449.537	84	63
449.383	449.662	56	41
449.537	450.29	54	38
449.537	450.902	84	68
449.662	450.164	56	36
449.788	450.039	60	39
449.913	450.194	63	42
450.039	450.194	60	41
450.164	450.415	56	38
450.29	451.509	54	47
450.415	450.895	56	41
450.541	450.777	60	41
450.541	450.902	82	63
450.659	450.902	63	41
450.777	450.902	60	38
450.895	451.115	56	35
450.895	451.012	80	63
451.012	451.62	53	34
451.012	452.104	80	63
451.115	451.509	56	33
451.218	451.42	61	36
451.319	451.509	65	39
451.42	451.521	61	37
451.521	451.719	56	35
451.62	452.104	53	36
451.62	452.214	85	75
451.719	452.104	56	38
451.818	452.016	61	41
451.917	452.104	68	42
452.016	452.115	61	40
452.115	452.313	56	37
452.214	452.727	51	35
452.214	452.727	85	82
452.313	452.709	56	38
452.412	452.61	60	41
452.511	452.727	66	41
452.61	452.727	60	39
452.61	452.808	84	78
452.709	452.912	56	36
452.808	453.399	51	34
452.808	453.399	84	75
452.912	453.377	56	34
453.017	453.252	60	37
453.017	453.399	82	71
453.134	453.399	66	39
453.252	453.399	60	36
453.377	453.628	56	31
453.377	454.148	80	63
453.503	454.148	50	31
453.503	454.256	89	80
453.628	454.131	56	31
453.754	454.005	59	35
453.879	454.148	65	37
454.005	454.148	59	36
454.131	454.402	56	34
454.256	455.06	50	34
454.256	454.839	89	77
454.402	455.017	56	30
454.547	454.839	58	35
454.693	455.06	65	37
454.839	455.06	58	36
454.839	455.196	89	81
455.017	455.88	56	34
455.196	455.88	51	34
455.196	456.634	89	85
455.33	455.85	54	35
455.462	455.722	58	38
455.593	455.88	63	39
455.722	455.88	58	38
455.85	456.108	54	36
455.976	456.634	42	34
455.976	456.634	87	72
456.108	456.634	54	31
456.24	456.503	58	36
456.24	456.634	85	71
456.371	456.634	63	38
456.503	456.634	58	36
456.503	457.424	82	70
456.634	457.424	54	34
456.766	457.424	44	35
456.766	458.213	84	75
456.897	457.424	53	36
457.029	457.292	56	37
457.161	457.424	61	39
457.292	457.424	56	37
457.424	457.687	53	35
457.555	458.213	44	33
457.555	458.213	82	71
457.687	458.213	53	34
457.818	458.082	56	35
457.818	458.213	80	68
457.95	458.213	61	38
458.082	458.213	56	37
458.082	459.003	77	63
458.213	459.003	53	36
458.345	459.003	44	39
458.345	459.003	82	69
458.476	459.003	54	34
458.608	458.871	56	36
458.608	459.003	80	64
458.74	459.003	60	36
458.871	459.003	56	35
458.871	459.134	78	61
459.003	459.271	54	34
459.134	459.936	44	31
459.134	459.271	78	55
459.203	459.936	80	55
459.271	459.88	54	31
459.271	459.936	78	63
459.408	459.71	56	35
459.408	459.936	77	58
459.559	459.936	60	37
459.71	459.936	56	35
459.88	460.763	54	33
459.88	460.051	76	59
460.051	460.763	49	33
460.051	461.608	76	59
460.201	460.763	56	33
460.348	460.638	61	36
460.494	460.763	65	37
460.638	460.779	61	36
460.779	461.608	58	35
460.919	461.608	56	36
460.919	461.608	77	63
461.057	461.601	61	36
461.195	461.472	65	39
461.333	461.608	68	40
461.472	461.608	65	39
461.472	461.794	80	57
461.601	462.393	61	38
461.73	462.49	54	38
461.73	462.393	68	57
461.794	463.137	80	57
461.857	462.363	56	42
461.983	462.237	60	42
462.11	462.393	63	42
462.237	462.393	60	42
462.237	463.137	72	63
462.363	462.64	56	42
462.49	463.775	54	41
462.49	463.137	84	63
462.64	463.137	56	45
462.79	463.026	60	45
462.79	463.144	70	63
462.79	463.144	82	63
462.908	463.137	63	45
463.026	463.144	60	41
463.144	463.364	56	38
463.144	463.261	68	63
463.144	463.261	80	63
463.261	463.869	53	37
463.261	464.166	68	63
463.261	464.463	80	63
463.364	463.769	56	36
463.466	463.669	61	39
463.568	463.775	65	42
463.669	463.775	61	40
463.769	463.968	56	38
463.869	464.364	53	39
463.869	464.463	73	75
463.869	464.463	85	75
463.968	464.364	56	41
464.067	464.265	61	45
464.166	464.364	68	46
464.265	464.364	61	44
464.364	464.562	56	40
464.463	464.97	51	39
464.463	464.97	73	75
464.463	464.859	78	60
464.463	464.859	80	60
464.463	464.97	85	75
464.562	464.958	56	41
464.661	464.859	60	45
464.76	464.97	66	45
464.76	464.97	75	71
464.76	464.859	84	71
464.859	464.97	60	42
464.859	465.057	72	78
464.859	465.057	78	60
464.859	465.057	80	60
464.859	465.057	84	78
464.958	465.161	56	39
465.057	465.586	51	38
465.057	465.586	72	75
465.057	465.501	78	60
465.057	465.501	80	60
465.057	465.586	84	75
465.161	465.586	56	37
465.265	465.501	60	40
465.383	465.586	66	42
465.383	465.586	70	71
465.383	465.586	82	71
465.501	465.621	60	39
465.501	466.378	68	63
465.501	466.378	78	60
465.501	465.742	80	63
465.621	465.862	56	34
465.742	466.378	50	35
465.742	466.464	77	68
465.742	466.464	80	80
465.742	466.464	89	80
465.862	466.344	56	37
465.983	466.224	59	41
466.103	466.378	65	44
466.224	466.378	59	42
466.344	466.596	56	40
466.464	467.205	50	35
466.464	466.991	77	65
466.464	466.991	80	77
466.464	466.991	89	77
466.596	467.141	56	36
466.728	466.991	58	41
466.859	467.205	65	44
466.991	467.205	58	42
466.991	467.291	77	66
466.991	467.291	80	78
466.991	467.291	89	78
467.141	468.004	56	40
467.291	468.004	51	37
467.291	468.717	77	69
467.291	468.717	80	82
467.291	468.717	89	82
467.425	467.945	54	38
467.557	467.817	58	41
467.688	468.004	63	42
467.817	468.004	58	41
467.945	468.203	54	39
468.072	468.717	42	37
468.072	468.717	75	56
468.072	468.335	78	67
468.072	468.717	87	67
468.203	468.717	54	34
468.335	468.604	58	39
468.335	468.741	73	55
468.335	468.741	78	65
468.335	468.741	85	65
468.466	468.717	63	41
468.604	468.741	58	39
468.741	469.569	54	37
468.741	469.569	70	54
468.741	469.569	78	64
468.741	469.569	82	64
468.889	469.569	44	37
468.889	470.256	72	52
468.889	469.895	80	62
468.889	470.256	84	62
469.02	469.546	53	39
469.152	469.415	56	40
469.283	469.569	61	42
469.415	469.569	56	40
469.546	469.786	53	38
469.678	470.256	44	35
469.678	470.111	70	54
469.678	470.256	78	64
469.678	470.111	82	64
469.786	470.229	53	35
469.895	470.111	56	37
469.895	470.256	68	57
469.895	470.111	77	68
469.895	470.256	80	68
470.003	470.256	61	39
470.111	470.256	56	37
470.111	470.817	70	61
470.111	470.346	77	72
470.111	470.817	82	72
470.229	470.464	53	35
470.346	470.951	44	38
470.346	470.951	71	65
470.346	470.817	77	77
470.346	470.951	83	77
470.464	470.935	53	37
470.582	470.817	56	39
470.699	470.951	62	41
470.817	470.951	56	39
470.817	471.68	70	63
470.817	471.052	77	75
470.817	471.68	82	75
470.935	471.17	53	36
471.052	471.68	44	40
471.052	472.343	71	66
471.052	472.229	77	78
471.052	472.343	83	78
471.17	471.641	53	39
471.288	471.523	56	43
471.405	471.68	62	48
471.523	471.68	56	45
471.641	471.876	53	41
471.758	472.343	44	40
471.876	472.333	53	40
471.993	472.229	56	43
472.111	472.343	62	45
472.229	472.343	56	42
472.229	472.644	70	64
472.229	472.438	77	76
472.229	472.644	82	76
472.333	472.541	53	36
472.438	472.939	44	52
472.438	472.85	71	68
472.438	472.644	77	81
472.438	472.85	83	81
472.541	472.939	53	40
472.644	472.85	56	43
472.644	472.939	70	66
472.644	472.85	77	78
472.644	472.939	82	78
472.747	472.939	62	47
472.85	472.953	56	44
472.85	473.056	71	66
472.85	473.611	77	78
472.85	473.056	83	78
472.953	473.611	53	40
473.056	473.611	44	54
473.056	473.611	71	68
473.056	473.469	78	81
473.056	473.611	83	81
473.159	473.596	51	43
473.263	473.469	54	47
473.366	473.611	63	50
473.469	473.611	54	46
473.469	474.347	70	69
473.469	474.347	78	82
473.469	474.347	82	82
473.596	474.347	51	43
473.724	474.347	44	56
473.724	475.005	73	74
473.724	474.891	79	88
473.724	475.005	85	88
473.841	474.308	52	47
473.958	474.191	55	49
474.074	474.347	64	51
474.191	474.347	55	49
474.308	474.541	52	47
474.424	475.005	44	57
474.541	474.996	52	48
474.658	474.891	55	51
474.775	475.005	64	53
474.891	475.005	55	51
474.891	475.307	72	69
474.891	475.1	79	82
474.891	475.307	84	82
474.996	475.203	52	49
475.1	475.601	44	61
475.1	475.513	73	73
475.1	475.307	79	86
475.1	475.513	85	86
475.203	475.601	52	51
475.307	475.513	55	54
475.307	475.601	72	68
475.307	475.513	79	81
475.307	475.601	84	81
475.41	475.601	64	56
475.513	475.616	55	54
475.513	475.719	73	72
475.513	476.262	79	85
475.513	475.719	85	85
475.616	476.262	52	51
475.719	476.262	44	64
475.719	476.262	73	74
475.719	476.131	80	88
475.719	476.262	85	88
475.822	476.248	53	54
475.925	476.131	56	56
476.028	476.262	65	59
476.131	476.262	56	55
476.131	476.91	72	77
476.131	476.91	80	91
476.131	476.91	84	91
476.248	476.91	53	52
476.365	476.91	44	67
476.365	476.777	75	76
476.365	476.777	81	90
476.365	476.777	87	90
476.468	476.88	51	55
476.571	476.777	54	57
476.674	476.91	60	60
476.777	476.91	54	58
476.777	476.983	75	74
476.777	477.581	81	88
476.777	476.983	87	88
476.88	477.581	51	55
476.983	477.581	44	68
476.983	477.581	75	78
476.983	477.396	80	92
476.983	477.581	87	92
477.086	477.511	47	57
477.189	477.396	53	59
477.293	477.581	59	60
477.396	477.581	53	59
477.396	478.2	74	74
477.396	478.2	80	88
477.396	478.2	86	88
477.511	478.2	47	57
477.626	478.2	44	68
477.626	478.038	77	84
477.626	478.038	83	99
477.626	478.038	89	99
477.729	478.141	53	56
477.832	478.038	56	60
477.935	478.2	62	62
478.038	478.2	56	60
478.038	478.244	77	80
478.038	478.864	83	95
478.038	478.244	89	95
478.141	478.864	53	57
478.244	478.864	44	70
478.244	478.864	77	81
478.244	478.656	82	96
478.244	478.864	89	96
478.347	478.777	49	59
478.45	478.656	55	62
478.553	478.864	61	65
478.656	478.864	55	62
478.656	479.469	76	81
478.656	479.469	82	96
478.656	479.469	88	96
478.777	479.469	49	59
478.898	479.469	44	72
478.898	479.314	79	85
478.898	479.314	85	101
478.898	479.314	91	101
479.002	479.423	52	59
479.106	479.314	58	64
479.21	479.469	64	66
479.314	479.469	58	62
479.314	479.532	79	83
479.314	480.184	85	98
479.314	479.532	91	98
479.423	480.184	52	59
479.532	480.184	44	72
479.532	480.184	79	83
479.532	479.968	84	98
479.532	480.184	91	98
479.641	480.109	51	58
479.75	479.968	54	63
479.859	480.184	63	68
479.968	480.184	54	65
479.968	480.934	80	79
479.968	480.25	84	94
479.968	480.934	92	94
480.109	480.38	51	62
480.25	480.934	44	72
480.25	480.934	81	93
480.25	480.772	84	110
480.25	480.934	93	110
480.38	480.897	51	60
480.511	480.772	54	64
480.641	480.934	60	69
480.772	480.934	54	65
480.772	481.023	72	79
480.772	481.023	78	94
480.772	481.023	84	94
480.897	481.023	51	63
481.023	481.184	37	78
481.023	481.184	73	92
481.023	481.184	77	109
481.023	481.184	85	109
481.456	481.551	44	68
481.548	481.643	51	68
481.643	481.832	61	83
481.643	481.737	65	97
481.737	481.832	73	75
481.832	481.927	80	79
481.927	482.021	77	83
482.021	482.116	85	87
482.116	483.229	94	91
482.21	483.229	32	87
482.21	483.147	84	96
482.21	483.229	92	96
482.589	483.229	44	68
482.684	483.229	51	74
482.778	483.229	60	84
482.778	483.229	66	97
482.871	483.229	72	75
482.963	483.229	80	80
483.055	483.229	78	84
483.147	483.24	84	88
483.24	484.321	92	93
483.332	484.321	37	87
483.332	484.265	85	97
483.332	484.321	89	97
483.701	484.321	44	70
483.794	484.321	53	75
483.886	484.321	61	83
483.886	484.321	65	97
483.981	484.321	73	75
484.075	484.321	80	79
484.17	484.321	77	83
484.265	484.359	85	87
484.359	485.468	94	91
484.454	485.468	32	87
484.454	485.387	84	96
484.454	485.468	92	96
484.832	485.468	44	68
484.927	485.468	51	74
485.022	485.468	60	84
485.022	485.468	66	97
485.113	485.468	72	75
485.205	485.468	80	80
485.296	485.468	78	84
485.387	485.479	84	88
485.479	485.525	92	93
485.525	485.618	85	100
485.618	485.702	33	97
485.618	485.702	45	97
485.618	485.787	97	113
485.787	485.956	39	82
485.787	485.956	51	82
485.787	485.871	95	111
485.871	485.956	93	103
485.956	486.133	40	90
485.956	486.133	52	90
485.956	486.044	88	107
486.044	486.133	85	98
486.133	486.633	40	90
486.133	486.633	52	90
486.133	486.216	83	102
486.216	486.299	81	94
486.299	486.382	76	98
486.382	486.465	73	91
486.465	486.549	71	94
486.549	486.633	69	85
486.633	486.718	64	90
486.718	486.802	61	82
486.802	486.971	39	77
486.802	486.887	59	85
486.887	486.971	57	77
486.971	487.148	40	77
486.971	487.148	52	81
487.148	487.489	33	81
487.148	487.489	41	81
487.148	487.489	53	93
487.148	487.489	65	93
487.489	487.71	33	75
487.489	487.71	40	75
487.489	487.617	52	87
487.489	487.617	64	87
487.617	487.71	85	100
487.71	487.794	33	97
487.71	487.794	45	97
487.71	487.879	97	113
487.879	488.048	39	82
487.879	488.048	51	82
487.879	487.963	95	111
487.963	488.048	93	103
488.048	488.225	40	90
488.048	488.225	52	90
488.048	488.136	88	107
488.136	488.225	85	98
488.225	488.727	40	90
488.225	488.727	52	90
488.225	488.308	83	102
488.308	488.391	81	96
488.391	488.475	76	98
488.475	488.559	73	91
488.559	488.643	71	94
488.643	488.727	69	87
488.727	488.812	64	90
488.812	488.896	61	82
488.896	489.065	39	77
488.896	488.981	59	85
488.981	489.065	57	78
489.065	489.242	40	77
489.065	489.242	52	81
489.242	489.574	33	81
489.242	489.574	41	81
489.242	489.574	53	93
489.242	489.574	65	93
489.574	489.74	33	75
489.574	490.648	40	75
489.574	490.648	52	87
489.574	490.648	64	87
489.74	490.024	33	87
489.74	490.167	41	87
489.74	489.882	53	87
489.74	490.096	65	87
489.882	490.167	53	43
489.953	490.38	57	45
490.024	490.451	33	38
490.024	490.451	45	38
490.024	490.451	61	46
490.096	490.522	65	48
490.167	490.593	41	42
490.167	490.309	53	42
490.167	490.593	73	54
490.167	490.593	77	54
490.309	490.593	53	43
490.38	490.648	57	44
490.451	490.648	33	39
490.451	490.648	45	39
490.451	490.648	61	45
490.522	490.648	65	46
490.593	491.025	41	43
490.593	490.735	53	43
490.593	491.025	73	54
490.593	491.025	77	54
490.735	491.025	53	46
490.808	491.112	58	46
490.88	491.112	34	39
490.88	491.112	46	39
490.88	491.112	61	47
490.953	491.112	65	47
491.025	491.463	41	43
491.025	491.17	53	43
491.025	491.543	73	54
491.025	491.463	77	54
491.17	491.463	53	45
491.243	491.543	58	46
491.317	491.543	34	40
491.317	491.543	46	40
491.317	491.543	62	47
491.39	491.543	65	49
491.463	491.996	41	44
491.463	491.996	53	44
491.463	491.902	74	55
491.463	491.996	77	55
491.609	491.902	54	46
491.682	491.996	58	47
491.756	491.996	34	42
491.756	491.996	46	42
491.756	491.996	62	48
491.829	491.996	66	49
491.902	492.048	42	48
491.902	492.048	54	48
491.902	492.048	74	57
491.902	492.048	78	57
492.048	492.345	54	47
492.122	492.455	58	48
492.197	492.455	34	44
492.197	492.455	46	44
492.197	492.455	63	49
492.271	492.455	66	51
492.345	492.918	42	48
492.345	492.918	54	48
492.345	492.918	75	57
492.345	492.918	78	57
492.494	492.918	55	47
492.568	492.918	61	48
492.642	492.918	33	46
492.642	492.791	45	46
492.642	492.918	64	50
492.717	492.918	67	51
492.791	492.939	45	51
492.791	492.939	57	51
492.791	492.939	76	60
492.791	492.939	79	60
492.939	493.432	68	56
493.015	493.432	73	60
493.09	493.432	32	54
493.09	493.432	44	54
493.09	493.432	77	63
493.165	493.432	80	67
493.24	493.432	53	65
493.24	493.432	56	65
493.24	493.432	61	65
493.24	493.432	65	65
493.24	493.432	85	77
493.24	493.432	89	77
493.24	493.432	92	77
493.541	493.589	48	58
493.541	493.589	60	63
493.589	493.638	49	60
493.589	493.638	61	64
493.638	493.686	53	61
493.638	493.686	65	66
493.686	493.831	56	63
493.686	493.831	68	68
493.977	494.025	47	58
493.977	494.025	59	62
494.025	494.074	48	60
494.025	494.074	60	63
494.074	494.122	53	62
494.074	494.122	65	65
494.122	494.267	56	64
494.122	494.267	68	67
494.412	494.461	45	57
494.412	494.461	57	62
494.461	494.509	46	58
494.461	494.509	58	64
494.509	494.558	53	61
494.509	494.558	65	66
494.558	494.699	56	63
494.558	494.699	68	68
494.982	495.894	32	81
494.982	495.894	44	81
494.982	495.894	56	86
495.407	495.973	66	85
495.407	495.973	72	85
495.407	495.973	77	85
495.407	495.973	80	90
495.407	495.973	89	90
495.407	495.973	92	90
495.973	496.128	66	65
495.973	496.128	72	65
495.973	496.128	75	65
495.973	496.128	80	77
495.973	496.128	87	77
495.973	496.128	92	77
496.128	496.278	66	65
496.128	496.278	72	65
496.128	496.278	77	65
496.128	496.278	80	77
496.128	496.278	89	77
496.128	496.278	92	77
496.278	496.425	66	63
496.278	496.425	72	63
496.278	496.425	75	63
496.278	496.425	80	75
496.278	496.425	87	75
496.278	496.425	92	75
496.425	496.571	66	67
496.425	496.571	72	67
496.425	496.571	77	67
496.425	496.571	80	80
496.425	496.571	89	80
496.425	496.571	92	80
496.571	496.71	66	66
496.571	496.71	72	66
496.571	496.71	75	66
496.571	496.71	80	79
496.571	496.71	87	79
496.571	496.71	92	79
496.71	496.814	65	76
496.71	496.814	68	76
496.71	496.814	73	76
496.71	496.814	77	76
496.71	496.814	80	90
496.71	496.814	85	90
496.71	496.814	89	90
496.71	496.814	92	90
496.987	497.035	48	58
496.987	497.035	60	63
497.035	497.084	49	60
497.035	497.084	61	64
497.084	497.132	53	61
497.084	497.132	65	66
497.132	497.278	56	63
497.132	497.278	68	68
497.423	497.471	47	58
497.423	497.471	59	62
497.471	497.52	48	60
497.471	497.52	60	63
497.52	497.568	53	62
497.52	497.568	65	65
497.568	497.713	56	64
497.568	497.713	68	67
497.859	497.907	45	57
497.859	497.907	57	62
497.907	497.956	46	58
497.907	497.956	58	64
497.956	498.004	53	61
497.956	498.004	65	66
498.004	498.146	56	63
498.004	498.146	68	68
498.429	499.341	32	81
498.429	499.341	44	81
498.429	499.341	56	86
498.853	499.419	66	85
498.853	499.419	72	85
498.853	499.419	77	85
498.853	499.419	80	90
498.853	499.419	89	90
498.853	499.419	92	90
499.419	499.575	66	70
499.419	499.575	72	70
499.419	499.575	75	70
499.419	499.575	80	74
499.419	499.575	87	74
499.419	499.575	92	74
499.575	499.724	66	68
499.575	499.724	72	68
499.575	499.724	77	68
499.575	499.724	80	71
499.575	499.724	89	71
499.575	499.724	92	71
499.724	499.871	66	66
499.724	499.871	72	66
499.724	499.871	75	66
499.724	499.871	80	68
499.724	499.871	87	68
499.724	499.871	92	68
499.871	500.018	66	64
499.871	500.018	72	64
499.871	500.018	77	64
499.871	500.018	80	66
499.871	500.018	89	66
499.871	500.018	92	66
500.018	500.156	66	61
500.018	500.156	72	61
500.018	500.156	75	61
500.018	500.156	80	63
500.018	500.156	87	63
500.018	500.156	92	63
500.156	500.569	66	59
500.156	500.569	72	59
500.156	500.431	77	59
500.156	500.569	80	59
500.156	500.431	89	59
500.156	500.569	92	59
500.431	500.569	75	56
500.431	500.569	87	59
500.569	500.98	66	55
500.569	500.98	72	55
500.569	500.844	77	55
500.569	500.98	81	58
500.569	500.844	89	58
500.569	500.98	93	58
500.844	500.98	75	58
500.844	500.98	87	58
500.98	501.387	66	60
500.98	501.387	72	60
500.98	501.251	77	60
500.98	501.387	81	60
500.98	501.251	89	60
500.98	501.387	93	60
501.251	501.387	75	57
501.251	501.387	87	58
501.387	501.793	67	61
501.387	501.793	73	61
501.387	501.659	78	61
501.387	501.793	82	62
501.387	501.659	90	62
501.387	501.793	94	62
501.659	501.793	76	63
501.659	501.793	88	63
501.793	502.197	67	67
501.793	502.197	73	67
501.793	502.062	78	67
501.793	502.197	82	64
501.793	502.062	90	64
501.793	502.197	94	64
502.062	502.197	76	69
502.062	502.197	88	70
502.197	502.6	68	72
502.197	502.6	74	72
502.197	502.466	79	72
502.197	502.6	83	74
502.197	502.466	91	74
502.197	502.6	95	74
502.466	502.6	77	74
502.466	502.6	89	73
502.6	503.01	68	75
502.6	503.01	74	75
502.6	502.869	79	75
502.6	503.01	83	78
502.6	502.869	91	78
502.6	503.01	95	78
502.869	503.01	77	79
502.869	503.01	89	78
503.01	503.45	68	83
503.01	503.45	75	83
503.01	503.291	80	83
503.01	503.45	84	84
503.01	503.291	92	84
503.01	503.45	96	84
503.291	503.45	78	86
503.291	503.45	90	86
503.45	503.604	37	90
503.45	503.604	49	90
503.45	503.604	101	101
503.604	503.758	43	74
503.604	503.681	99	100
503.681	503.758	97	96
503.758	503.912	44	74
503.758	503.835	92	98
503.835	503.912	89	93
503.912	504.064	44	79
503.912	503.988	87	95
503.988	504.064	85	89
504.064	504.217	42	62
504.064	504.217	54	62
504.064	504.14	80	92
504.14	504.217	77	86
504.217	504.371	41	58
504.217	504.371	53	58
504.217	504.294	75	89
504.294	504.371	73	83
504.371	504.449	41	68
504.371	504.449	53	68
504.371	504.449	68	86
504.449	504.526	65	81
504.526	504.681	43	59
504.526	504.603	63	83
504.603	504.681	61	79
504.681	504.837	44	59
504.681	504.837	56	80
504.837	505.139	45	73
504.837	505.139	57	88
504.837	505.29	65	64
504.837	505.139	69	88
505.139	505.29	44	70
505.139	505.29	56	83
505.139	505.29	68	83
505.29	505.444	37	90
505.29	505.444	49	90
505.29	505.444	101	100
505.444	505.597	43	73
505.444	505.52	99	99
505.52	505.597	97	92
505.597	505.751	44	75
505.597	505.674	92	96
505.674	505.751	89	91
505.751	505.903	44	77
505.751	505.827	87	93
505.827	505.903	85	88
505.903	506.057	42	62
505.903	506.057	54	62
505.903	505.98	80	90
505.98	506.057	77	86
506.057	506.211	41	58
506.057	506.211	53	58
506.057	506.134	75	87
506.134	506.211	73	81
506.211	506.288	41	68
506.211	506.288	53	68
506.211	506.288	68	84
506.288	506.366	65	79
506.366	506.52	43	59
506.366	506.443	63	82
506.443	506.52	61	76
506.52	506.677	44	59
506.52	506.677	56	79
506.677	506.971	45	73
506.677	506.971	57	82
506.677	507.118	65	82
506.677	506.971	69	82
506.971	507.118	44	70
506.971	507.118	56	77
506.971	507.118	68	77
507.118	507.192	37	60
507.118	507.192	49	60
507.118	507.265	56	70
507.118	507.265	65	70
507.118	507.265	68	70
507.265	507.408	43	68
507.408	507.552	44	68
507.552	507.84	57	82
507.552	507.84	69	82
507.696	507.84	42	70
507.696	507.84	54	70
507.84	507.984	41	70
507.84	507.984	53	70
507.84	507.984	56	77
507.84	507.984	68	77
507.984	508.056	37	63
507.984	508.056	49	63
507.984	508.129	56	71
507.984	508.129	65	71
507.984	508.129	68	71
508.129	508.268	43	69
508.268	508.408	44	69
508.408	508.689	57	83
508.408	508.689	69	83
508.548	508.689	42	70
508.548	508.689	54	70
508.689	508.83	41	70
508.689	508.83	53	70
508.689	508.83	56	77
508.689	508.83	68	77
508.83	508.899	37	64
508.83	508.899	49	64
508.83	508.968	56	74
508.83	508.968	65	74
508.83	508.968	68	74
508.968	509.105	43	69
509.105	509.243	44	69
509.243	509.521	57	86
509.243	509.521	69	86
509.382	509.521	42	70
509.382	509.521	54	70
509.521	509.665	41	70
509.521	509.665	53	70
509.521	509.665	56	81
509.521	509.665	68	81
509.665	509.772	37	67
509.665	509.772	45	67
509.665	509.772	57	71
509.665	509.772	65	71
509.665	509.772	69	71
509.808	509.915	37	68
509.808	509.915	44	68
509.808	509.915	56	73
509.808	509.915	65	73
509.808	509.915	68	73
509.951	510.056	37	70
509.951	510.056	45	70
509.951	510.056	57	74
509.951	510.056	65	74
509.951	510.056	69	74
510.091	510.197	37	71
510.091	510.197	44	71
510.091	510.197	56	76
510.091	510.197	65	76
510.091	510.197	68	76
510.232	510.335	37	73
510.232	510.335	45	73
510.232	510.335	57	77
510.232	510.335	65	77
510.232	510.335	69	77
510.37	510.473	37	74
510.37	510.473	44	74
510.37	510.473	56	79
510.37	510.473	65	79
510.37	510.473	68	79
510.508	510.913	36	84
510.508	510.913	45	84
510.508	510.913	57	89
510.508	510.913	65	89
510.508	510.913	69	89
510.933	511.295	36	85
510.933	511.295	43	101
510.933	511.295	48	101
510.933	511.295	60	85
510.933	511.295	64	85
510.933	511.295	70	100
510.933	511.295	72	100
511.359	511.703	41	85
511.359	511.703	48	101
511.359	511.703	53	101
511.359	511.703	69	85
511.359	511.703	72	100
511.359	511.703	77	100
511.359	511.703	81	100
511.784	512.143	44	85
511.784	512.143	51	101
511.784	512.143	56	101
511.784	512.143	66	85
511.784	512.143	68	85
511.784	512.143	72	100
511.784	512.143	75	100
511.784	512.143	78	100
511.784	512.143	80	100
512.21	513.061	49	85
512.21	513.061	56	101
512.21	513.868	61	101
512.21	513.061	65	85
512.21	513.868	68	85
512.21	513.868	73	100
512.21	514.395	77	100
513.061	514.076	37	85
513.061	514.395	44	100
513.061	513.868	49	100
513.061	514.395	53	85
513.061	513.868	56	85
513.061	514.395	60	101
513.061	513.868	65	101
513.868	514.395	49	69
513.868	514.395	56	82
513.868	514.395	61	73
513.868	514.395	65	82
513.868	514.395	68	87
513.868	514.395	73	87
514.076	514.555	25	100
514.076	514.555	37	109
514.076	514.555	101	123
