OnsetTime	OffsetTime	MidiPitch	Velocity
0.500004	0.912354	36	55
0.500004	0.912354	43	55
0.500004	0.912354	48	64
0.500004	0.912354	52	74
0.500004	0.912354	55	74
0.500004	0.912354	60	74
0.500004	0.912354	64	88
0.912354	1.01292	36	49
0.912354	1.01292	43	49
0.912354	1.01292	48	59
0.912354	1.01292	52	70
0.912354	1.01292	55	70
0.912354	1.01292	60	70
0.912354	1.01292	64	83
1.11349	1.21406	36	49
1.11349	1.21406	43	49
1.11349	1.21406	48	59
1.11349	1.21406	52	70
1.11349	1.21406	55	70
1.11349	1.21406	60	70
1.11349	1.21406	64	83
1.31463	1.72698	36	56
1.31463	1.72698	43	56
1.31463	1.72698	48	66
1.31463	1.72698	52	74
1.31463	1.72698	55	74
1.31463	1.72698	60	74
1.31463	1.72698	64	88
1.72698	1.82755	36	50
1.72698	1.82755	43	50
1.72698	1.82755	48	60
1.72698	1.82755	52	69
1.72698	1.82755	55	69
1.72698	1.82755	60	69
1.72698	1.82755	64	82
1.92812	2.02869	36	50
1.92812	2.02869	43	50
1.92812	2.02869	48	60
1.92812	2.02869	52	69
1.92812	2.02869	55	69
1.92812	2.02869	60	69
1.92812	2.02869	64	82
2.12926	2.33469	36	56
2.12926	2.33469	43	56
2.12926	2.33469	48	66
2.12926	2.33469	52	74
2.12926	2.33469	55	74
2.12926	2.33469	60	74
2.12926	2.33469	64	88
2.33469	2.43741	48	79
2.43741	2.54	52	81
2.54	2.64272	55	83
2.64272	2.7463	60	85
2.7463	2.85076	64	89
2.85076	2.95535	67	91
2.95535	3.37371	59	88
2.95535	3.37371	71	88
3.37371	3.4783	60	70
3.37371	3.4783	72	84
3.5829	3.68749	60	70
3.5829	3.68749	72	84
3.79208	4.01106	31	57
3.79208	4.01106	43	68
3.79208	4.01106	65	76
3.79208	4.01106	67	76
3.79208	4.01106	71	91
3.79208	4.01106	73	91
4.23003	4.44901	43	57
4.23003	4.44901	55	68
4.23003	4.44901	65	71
4.23003	4.44901	67	71
4.23003	4.44901	71	85
4.23003	4.44901	74	85
5.55906	5.97141	31	47
5.55906	5.97141	43	56
5.55906	5.97141	53	64
5.55906	5.97141	55	64
5.55906	5.97141	59	64
5.55906	5.97141	62	76
5.97141	6.07198	31	42
5.97141	6.07198	43	51
5.97141	6.07198	53	60
5.97141	6.07198	55	60
5.97141	6.07198	59	60
5.97141	6.07198	62	72
6.17254	6.27311	31	42
6.17254	6.27311	43	51
6.17254	6.27311	53	60
6.17254	6.27311	55	60
6.17254	6.27311	59	60
6.17254	6.27311	62	72
6.37368	6.78603	31	48
6.37368	6.78603	43	57
6.37368	6.78603	53	64
6.37368	6.78603	55	64
6.37368	6.78603	59	64
6.37368	6.78603	62	76
6.78603	6.8866	31	43
6.78603	6.8866	43	52
6.78603	6.8866	53	59
6.78603	6.8866	55	59
6.78603	6.8866	59	59
6.78603	6.8866	62	71
6.98717	7.08774	31	43
6.98717	7.08774	43	52
6.98717	7.08774	53	59
6.98717	7.08774	55	59
6.98717	7.08774	59	59
6.98717	7.08774	62	71
7.18831	7.39374	31	48
7.18831	7.39374	43	57
7.18831	7.39374	53	64
7.18831	7.39374	55	64
7.18831	7.39374	59	64
7.18831	7.39374	62	76
7.39374	7.49646	55	68
7.49646	7.59905	59	70
7.59905	7.70177	62	72
7.70177	7.80535	65	74
7.80535	7.90981	67	76
7.90981	8.01441	71	78
8.01441	8.43276	61	88
8.01441	8.43276	73	88
8.43276	8.53736	62	70
8.43276	8.53736	74	83
8.64195	8.74654	62	70
8.64195	8.74654	74	83
8.85113	9.07011	36	52
8.85113	9.07011	43	52
8.85113	9.07011	48	62
8.85113	9.07011	63	77
8.85113	9.07011	67	77
8.85113	9.07011	72	91
8.85113	9.07011	75	91
9.28909	9.50806	48	50
9.28909	9.50806	55	50
9.28909	9.50806	60	60
9.28909	9.50806	64	71
9.28909	9.50806	67	71
9.28909	9.50806	72	84
9.28909	9.50806	76	84
9.94588	10.0472	55	64
10.0472	10.1486	60	66
10.1486	10.2466	64	68
10.2466	10.3446	67	70
10.3446	10.4427	72	72
10.4427	10.5407	76	74
10.5407	11.3586	36	50
10.5407	11.3586	48	60
10.5407	10.9545	67	66
10.5407	10.9545	76	66
10.5407	10.9545	79	78
10.9545	11.1565	67	58
10.9545	11.1565	76	58
10.9545	11.1565	79	70
11.1565	11.3586	67	58
11.1565	11.3586	76	58
11.1565	11.3586	79	70
11.3586	11.7861	35	44
11.3586	11.7861	47	53
11.3586	11.9882	67	65
11.3586	11.9882	74	65
11.3586	11.9882	79	78
11.7861	11.9882	47	57
11.7861	11.9882	59	70
11.9882	12.1902	47	53
11.9882	12.1902	59	65
11.9882	12.1902	67	67
11.9882	12.1902	74	67
11.9882	12.1902	79	80
12.1902	12.6026	45	63
12.1902	12.6026	57	72
12.1902	12.6026	72	74
12.1902	12.6026	79	74
12.1902	12.6026	84	88
12.6026	13.0149	38	50
12.6026	13.0149	50	61
12.6026	12.8087	72	63
12.6026	12.8087	78	63
12.6026	12.8087	84	75
12.8087	13.0149	72	61
12.8087	13.0149	78	61
12.8087	13.0149	84	73
13.0149	13.2285	43	48
13.0149	13.2267	55	59
13.0149	13.2285	71	64
13.0149	13.2285	79	64
13.0149	13.2285	83	76
13.2285	13.3291	55	64
13.3291	13.4298	60	66
13.4298	13.5279	64	68
13.5279	13.6259	67	70
13.6259	13.7239	72	72
13.7239	13.822	76	74
13.822	14.6398	36	50
13.822	14.6398	48	60
13.822	14.2358	67	66
13.822	14.2358	76	66
13.822	14.2358	79	78
14.2358	14.4378	67	58
14.2358	14.4378	76	58
14.2358	14.4378	79	70
14.4378	14.6398	67	58
14.4378	14.6398	76	58
14.4378	14.6398	79	70
14.6398	15.0674	35	44
14.6398	15.0674	47	53
14.6398	15.2694	67	65
14.6398	15.2694	74	65
14.6398	15.2694	79	78
15.0674	15.2694	47	55
15.0674	15.2694	59	67
15.2694	15.4714	47	53
15.2694	15.4714	59	65
15.2694	15.4714	67	67
15.2694	15.4714	74	67
15.2694	15.4714	79	80
15.4714	15.8838	45	63
15.4714	15.8838	57	72
15.4714	15.8838	72	74
15.4714	15.8838	79	74
15.4714	15.8838	84	88
15.8838	16.2962	38	50
15.8838	16.2962	50	61
15.8838	16.09	72	63
15.8838	16.09	78	63
15.8838	16.09	84	75
16.09	16.2962	72	61
16.09	16.2962	78	61
16.09	16.2962	84	73
16.2962	16.5024	43	48
16.2962	16.5024	55	59
16.2962	16.5024	71	64
16.2962	16.5024	79	64
16.2962	16.5024	83	76
16.5024	16.603	60	64
16.603	16.7037	65	66
16.7037	16.8017	69	68
16.8017	16.8998	72	70
16.8998	16.9978	77	72
16.9978	17.0958	81	74
17.0958	17.9137	41	50
17.0958	17.9137	53	60
17.0958	17.5096	72	72
17.0958	17.5096	81	72
17.0958	17.5096	84	85
17.5096	17.7117	72	63
17.5096	17.7117	81	63
17.5096	17.7117	84	77
17.7117	17.9137	72	63
17.7117	17.9137	81	63
17.7117	17.9137	84	77
17.9137	18.3413	40	44
17.9137	18.3413	52	53
17.9137	18.5548	72	71
17.9137	18.5548	79	71
17.9137	18.5548	84	85
18.3413	18.5548	52	57
18.3413	18.5548	64	70
18.5548	18.7683	52	53
18.5548	18.7683	64	65
18.5548	18.7683	72	73
18.5548	18.7683	79	73
18.5548	18.7683	84	88
18.7683	19.1807	50	63
18.7683	19.1807	62	72
18.7683	19.1807	77	81
18.7683	19.1807	84	81
18.7683	19.1807	89	96
19.1807	19.5931	43	54
19.1807	19.5931	55	67
19.1807	19.3869	77	75
19.1807	19.3869	83	75
19.1807	19.3869	89	90
19.3869	19.5931	77	73
19.3869	19.5931	83	73
19.3869	19.5931	89	88
19.5931	20.0054	48	52
19.5931	20.0054	60	65
19.5931	20.0054	76	76
19.5931	20.0054	83	76
19.5931	20.0054	88	92
20.0054	20.2075	41	57
20.0054	20.2075	53	70
20.0054	20.4095	76	73
20.0054	20.4095	81	73
20.0054	20.4095	88	88
20.2075	20.4095	41	53
20.2075	20.4095	53	65
20.4095	20.8219	47	62
20.4095	20.8219	59	71
20.4095	20.8219	74	81
20.4095	20.8219	81	81
20.4095	20.8219	86	95
20.8219	21.2342	40	53
20.8219	21.2342	52	65
20.8219	21.028	74	74
20.8219	21.028	80	74
20.8219	21.028	86	88
21.028	21.2342	74	71
21.028	21.2342	80	71
21.028	21.2342	86	85
21.2342	21.6466	45	51
21.2342	21.6466	57	63
21.2342	21.6466	72	74
21.2342	21.6466	81	74
21.2342	21.6466	84	89
21.6466	21.75	33	44
21.6466	21.75	45	53
21.6466	22.0604	69	56
21.6466	22.0604	72	56
21.6466	22.0604	81	67
21.8535	21.957	31	40
21.8535	21.957	43	49
22.0604	22.1648	29	34
22.0604	22.1648	69	35
22.0604	22.1648	76	42
22.1648	22.2686	41	35
22.1648	22.2686	81	44
22.2686	22.3717	29	37
22.2686	22.3717	69	38
22.2686	22.3717	76	45
22.3717	22.4742	41	38
22.3717	22.4742	81	47
22.4742	22.576	29	39
22.4742	22.576	69	41
22.4742	22.576	76	49
22.576	22.6771	41	41
22.576	22.6771	81	51
22.6771	22.7777	29	42
22.6771	22.7777	69	45
22.6771	22.7777	76	53
22.7777	22.8776	41	44
22.7777	22.8776	81	54
22.8776	22.9769	29	45
22.8776	22.9769	69	47
22.8776	22.9769	76	56
22.9769	23.0759	41	47
22.9769	23.0759	81	58
23.0759	23.1748	29	48
23.0759	23.1748	69	51
23.0759	23.1748	76	60
23.1748	23.2735	41	50
23.1748	23.2735	81	62
23.2735	23.3721	29	51
23.2735	23.3721	69	53
23.2735	23.3721	76	63
23.3721	23.4704	41	52
23.3721	23.4704	81	65
23.4704	23.5686	29	54
23.4704	23.5686	69	56
23.4704	23.5686	76	67
23.5686	23.6666	41	55
23.5686	23.6666	81	69
23.6666	23.7637	42	61
23.6666	23.7637	69	62
23.6666	23.7637	75	73
23.7637	23.8606	43	62
23.7637	23.8606	81	74
23.8606	23.9572	44	63
23.8606	23.9572	69	63
23.8606	23.9572	75	75
23.9572	24.0535	45	64
23.9572	24.0535	81	76
24.0535	24.1496	46	66
24.0535	24.1496	69	66
24.0535	24.1496	75	78
24.1496	24.2454	47	67
24.1496	24.2454	81	80
24.2454	24.3415	48	69
24.2454	24.3415	69	69
24.2454	24.3415	75	81
24.3415	24.4376	49	70
24.3415	24.4376	81	83
24.4376	24.5341	50	72
24.4376	24.5341	69	71
24.4376	24.5341	75	85
24.5341	24.6307	51	73
24.5341	24.6307	81	86
24.6307	24.7274	52	75
24.6307	24.7274	69	74
24.6307	24.7274	75	87
24.7274	24.8244	53	76
24.7274	24.8244	81	89
24.8244	25.0285	41	66
24.8244	25.0285	53	78
24.8244	25.0285	69	77
24.8244	25.0285	75	90
24.8244	25.0285	81	90
25.0285	25.2326	41	66
25.0285	25.2326	53	79
25.0285	25.2326	69	78
25.0285	25.2326	75	93
25.0285	25.2326	81	93
25.2326	25.3386	41	74
25.2326	25.3386	53	88
25.2326	25.3386	69	84
25.2326	25.3386	75	84
25.2326	25.3386	81	100
25.4446	25.5463	53	68
25.4446	25.5463	65	81
25.4446	25.5463	71	75
25.4446	25.5463	75	75
25.4446	25.5463	81	90
25.4446	25.5463	83	90
25.648	25.7514	53	68
25.648	25.7514	65	81
25.648	25.7514	71	75
25.648	25.7514	75	75
25.648	25.7514	81	90
25.648	25.7514	83	90
25.8549	25.9566	53	68
25.8549	25.9566	65	81
25.8549	25.9566	71	75
25.8549	25.9566	75	75
25.8549	25.9566	81	90
25.8549	25.9566	83	90
26.0583	26.16	53	68
26.0583	26.16	65	81
26.0583	26.16	71	75
26.0583	26.16	75	75
26.0583	26.16	81	90
26.0583	26.16	83	90
26.2617	26.3634	53	68
26.2617	26.3634	65	81
26.2617	26.3634	71	75
26.2617	26.3634	75	75
26.2617	26.3634	81	90
26.2617	26.3634	83	90
26.4651	26.5689	53	68
26.4651	26.5689	65	81
26.4651	26.5689	71	75
26.4651	26.5689	75	75
26.4651	26.5689	81	90
26.4651	26.5689	83	90
26.6727	26.7765	53	68
26.6727	26.7765	65	81
26.6727	26.7765	71	75
26.6727	26.7765	75	75
26.6727	26.7765	81	90
26.6727	26.7765	83	90
26.8803	27.0893	52	77
26.8803	27.0893	64	91
26.8803	27.0893	71	85
26.8803	27.0893	76	85
26.8803	27.0893	80	85
26.8803	27.0893	83	101
27.2984	27.5075	40	74
27.2984	27.5075	52	88
27.2984	27.5075	76	86
27.2984	27.5075	80	86
27.2984	27.5075	83	86
27.2984	27.5075	88	102
28.5528	28.9651	36	22
28.5528	28.9651	43	22
28.5528	28.9651	48	25
28.5528	28.9651	52	29
28.5528	28.9651	55	29
28.5528	28.9651	60	29
28.5528	28.9651	64	36
28.9651	29.0657	36	19
28.9651	29.0657	43	19
28.9651	29.0657	48	23
28.9651	29.0657	52	28
28.9651	29.0657	55	28
28.9651	29.0657	60	28
28.9651	29.0657	64	34
29.1662	29.2668	36	19
29.1662	29.2668	43	19
29.1662	29.2668	48	23
29.1662	29.2668	52	28
29.1662	29.2668	55	28
29.1662	29.2668	60	28
29.1662	29.2668	64	34
29.3674	29.7797	36	22
29.3674	29.7797	43	22
29.3674	29.7797	48	26
29.3674	29.7797	52	29
29.3674	29.7797	55	29
29.3674	29.7797	60	29
29.3674	29.7797	64	36
29.7797	29.8803	36	20
29.7797	29.8803	43	20
29.7797	29.8803	48	24
29.7797	29.8803	52	27
29.7797	29.8803	55	27
29.7797	29.8803	60	27
29.7797	29.8803	64	33
29.9809	30.0814	36	20
29.9809	30.0814	43	20
29.9809	30.0814	48	24
29.9809	30.0814	52	27
29.9809	30.0814	55	27
29.9809	30.0814	60	27
29.9809	30.0814	64	33
30.182	30.3874	36	22
30.182	30.3874	43	22
30.182	30.3874	48	26
30.182	30.3874	52	29
30.182	30.3874	55	29
30.182	30.3874	60	29
30.182	30.3874	64	36
30.3874	30.4902	48	32
30.4902	30.5927	52	33
30.5927	30.6955	55	34
30.6955	30.799	60	35
30.799	30.9035	64	36
30.9035	31.0081	67	37
31.0081	31.4265	59	36
31.0081	31.4265	71	36
31.4265	31.5311	60	28
31.4265	31.5311	72	34
31.6356	31.7402	60	28
31.6356	31.7402	72	34
31.8448	32.0638	31	22
31.8448	32.0638	43	27
31.8448	32.0638	65	31
31.8448	32.0638	67	31
31.8448	32.0638	71	37
31.8448	32.0638	73	37
32.2828	32.5518	43	22
32.2828	32.5518	55	27
32.2828	32.5518	65	28
32.2828	32.5518	67	28
32.2828	32.5518	71	35
32.2828	32.5518	74	35
32.8209	33.7231	67	22
32.8209	33.7231	71	22
32.8209	33.7231	74	27
32.8209	33.7231	77	35
32.8209	33.7231	79	35
32.8209	33.7231	83	35
32.8209	33.7231	86	35
33.7231	34.1355	31	18
33.7231	34.1355	43	22
33.7231	34.1355	53	25
33.7231	34.1355	55	25
33.7231	34.1355	59	25
33.7231	34.1355	62	31
34.1355	34.2361	31	16
34.1355	34.2361	43	20
34.1355	34.2361	53	24
34.1355	34.2361	55	24
34.1355	34.2361	59	24
34.1355	34.2361	62	28
34.3366	34.4372	31	16
34.3366	34.4372	43	20
34.3366	34.4372	53	24
34.3366	34.4372	55	24
34.3366	34.4372	59	24
34.3366	34.4372	62	28
34.5378	34.9501	31	19
34.5378	34.9501	43	22
34.5378	34.9501	53	25
34.5378	34.9501	55	25
34.5378	34.9501	59	25
34.5378	34.9501	62	31
34.9501	35.0507	31	17
34.9501	35.0507	43	20
34.9501	35.0507	53	23
34.9501	35.0507	55	23
34.9501	35.0507	59	23
34.9501	35.0507	62	28
35.1513	35.2518	31	17
35.1513	35.2518	43	20
35.1513	35.2518	53	23
35.1513	35.2518	55	23
35.1513	35.2518	59	23
35.1513	35.2518	62	28
35.3524	35.5578	31	19
35.3524	35.5578	43	22
35.3524	35.5578	53	25
35.3524	35.5578	55	25
35.3524	35.5578	59	25
35.3524	35.5578	62	31
35.5578	35.6605	55	27
35.6605	35.7631	59	28
35.7631	35.8659	62	28
35.8659	35.9694	65	29
35.9694	36.0739	67	31
36.0739	36.1785	71	32
36.1785	36.5968	61	36
36.1785	36.5968	73	36
36.5968	36.7014	62	28
36.5968	36.7014	74	34
36.806	36.9106	62	28
36.806	36.9106	74	34
37.0152	37.2342	36	20
37.0152	37.2342	43	20
37.0152	37.2342	48	24
37.0152	37.2342	63	31
37.0152	37.2342	67	31
37.0152	37.2342	72	37
37.0152	37.2342	75	37
37.4532	37.7247	48	20
37.4532	37.7247	55	20
37.4532	37.7247	60	24
37.4532	37.7247	64	28
37.4532	37.7247	67	28
37.4532	37.7247	72	34
37.4532	37.7247	76	34
37.9962	38.8984	60	22
37.9962	38.8984	67	22
37.9962	38.8984	72	27
37.9962	38.8984	76	35
37.9962	38.8984	79	35
37.9962	38.8984	84	35
37.9962	38.8984	88	35
39.124	39.2327	55	27
39.2327	39.3414	60	28
39.3414	39.4501	64	28
39.4501	39.5588	67	29
39.5588	39.6675	72	31
39.6675	39.7762	76	32
39.7762	40.1391	33	29
39.7762	40.1391	45	35
39.7762	40.1391	67	30
39.7762	40.1391	72	30
39.7762	40.1391	79	37
40.26	40.5677	57	26
40.26	40.5677	60	32
40.26	40.5677	65	29
40.26	40.5677	72	29
40.26	40.5677	77	36
40.8754	41.7777	69	18
40.8754	41.7777	72	27
40.8754	41.7777	77	28
40.8754	41.7777	84	35
42.0032	42.1119	57	24
42.1119	42.2206	60	25
42.2206	42.3293	65	25
42.3293	42.438	69	26
42.438	42.5467	72	27
42.5467	42.6554	77	27
42.6554	43.0273	40	25
42.6554	43.0273	52	29
42.6554	43.0273	69	26
42.6554	43.0273	72	26
42.6554	43.0273	81	32
43.1513	43.4865	52	23
43.1513	43.4865	55	27
43.1513	43.4865	67	26
43.1513	43.4865	72	26
43.1513	43.4865	79	32
43.8217	45.6262	60	16
43.8217	45.6262	64	24
43.8217	45.6262	72	25
43.8217	45.6262	79	25
43.8217	45.6262	84	31
45.8289	45.9302	60	76
45.9302	46.0316	64	78
46.0316	46.1329	67	80
46.1329	46.2343	72	82
46.2343	46.3356	76	84
46.3356	46.437	79	86
46.437	47.2834	72	79
46.437	47.2834	77	79
46.437	47.2834	80	79
46.437	47.2834	84	93
46.6668	46.7717	38	72
46.7717	46.8766	41	74
46.8766	46.9783	44	76
46.9783	47.08	50	78
47.08	47.1817	53	80
47.1817	47.2834	56	82
47.2834	48.097	50	71
47.2834	48.097	62	84
47.2834	48.097	71	77
47.2834	48.097	77	77
47.2834	48.097	79	77
47.2834	48.097	83	91
48.097	48.5137	52	68
48.097	48.5137	64	80
48.097	48.5137	72	78
48.097	48.5137	79	78
48.097	48.5137	84	92
48.5137	48.9303	48	64
48.5137	48.9303	60	76
48.5137	48.9303	76	76
48.5137	48.9303	78	76
48.5137	48.9303	81	76
48.5137	48.9303	88	90
48.9303	49.155	43	68
48.9303	49.155	55	80
48.9303	49.155	74	79
48.9303	49.155	79	79
48.9303	49.155	83	79
48.9303	49.155	86	94
49.155	49.2557	62	76
49.2557	49.3564	67	79
49.3564	49.4571	71	82
49.4571	49.5577	74	85
49.5577	49.6584	79	88
49.6584	49.7591	83	91
49.7591	50.6056	72	79
49.7591	50.6056	77	79
49.7591	50.6056	80	79
49.7591	50.6056	84	93
49.989	50.0939	38	72
50.0939	50.1988	41	74
50.1988	50.3005	44	76
50.3005	50.4022	50	78
50.4022	50.5039	53	80
50.5039	50.6056	56	82
50.6056	51.4191	50	71
50.6056	51.4191	62	84
50.6056	51.4191	71	77
50.6056	51.4191	77	77
50.6056	51.4191	79	77
50.6056	51.4191	83	91
51.4191	51.8416	52	68
51.4191	51.8416	64	80
51.4191	51.8416	72	78
51.4191	51.8416	79	78
51.4191	51.8416	84	92
51.8416	52.2642	48	64
51.8416	52.2642	60	76
51.8416	52.2642	76	76
51.8416	52.2642	78	76
51.8416	52.2642	81	76
51.8416	52.2642	88	90
52.2642	52.4754	43	68
52.2642	52.4754	55	80
52.2642	52.4754	74	79
52.2642	52.4754	79	79
52.2642	52.4754	83	79
52.2642	52.4754	86	94
52.4754	52.5796	67	76
52.5796	52.6838	71	79
52.6838	52.7879	74	82
52.7879	52.8921	79	85
52.8921	52.9963	83	88
52.9963	53.1004	86	91
53.1004	53.9508	79	79
53.1004	53.9508	82	79
53.1004	53.9508	85	79
53.1004	53.9508	91	93
53.3272	53.4326	52	73
53.4326	53.5374	55	75
53.5374	53.6416	58	77
53.6416	53.7453	61	79
53.7453	53.8485	67	80
53.8485	53.9508	70	82
53.9508	54.0529	73	88
54.0529	54.1551	76	82
54.1551	54.2575	73	81
54.2575	54.3603	70	80
54.3603	54.4631	67	76
54.4631	54.5662	64	78
54.5662	54.6695	61	78
54.6695	54.7728	58	76
54.7728	54.8766	61	76
54.7728	54.8766	88	89
54.8766	54.9804	64	68
54.8766	54.9804	91	82
54.9804	55.0842	61	69
54.9804	55.0842	88	82
55.0842	55.188	58	69
55.0842	55.188	85	82
55.188	55.2918	55	73
55.188	55.2918	82	86
55.2918	55.3956	52	66
55.2918	55.3956	79	75
55.3956	55.4994	49	66
55.3956	55.4994	76	75
55.4994	55.6101	46	66
55.4994	55.6101	73	75
55.6101	55.7139	49	66
55.6101	55.7139	76	81
55.7139	55.8177	52	60
55.7139	55.8177	79	73
55.8177	55.9215	49	60
55.8177	55.9215	76	73
55.9215	56.0253	46	60
55.9215	56.0253	73	73
56.0253	56.1291	43	67
56.0253	56.1291	70	80
56.1291	56.2329	40	59
56.1291	56.2329	67	74
56.2329	56.3367	37	60
56.2329	56.3367	64	74
56.3367	56.4466	34	60
56.3367	56.4466	61	74
56.4466	56.5507	37	68
56.4466	56.5507	64	77
56.5507	56.6549	40	47
56.5507	56.6549	67	58
56.6549	56.7591	37	47
56.6549	56.7591	64	58
56.7591	56.8632	34	47
56.7591	56.8632	61	58
56.8632	56.9674	37	58
56.8632	56.9674	64	64
56.9674	57.0715	40	45
56.9674	57.0715	67	53
57.0715	57.1752	37	45
57.0715	57.1752	64	52
57.1752	57.2787	34	45
57.1752	57.2787	61	52
57.2787	57.3818	37	53
57.2787	57.3818	64	57
57.3818	57.4848	40	39
57.3818	57.4848	67	48
57.4848	57.5875	37	39
57.4848	57.5875	64	48
57.5875	57.69	34	39
57.5875	57.69	61	48
57.69	57.7924	37	51
57.69	57.7924	64	54
57.7924	57.8944	40	34
57.7924	57.8944	67	46
57.8944	57.9964	37	34
57.8944	57.9964	64	46
57.9964	58.0981	34	34
57.9964	58.0981	61	46
58.0981	58.1994	35	37
58.0981	58.1994	62	50
58.1994	58.3007	38	30
58.1994	58.3007	67	41
58.3007	58.4021	43	30
58.3007	58.4021	62	41
58.4021	58.5034	38	30
58.4021	58.5034	55	41
58.5034	58.6048	35	35
58.5034	58.6048	62	49
58.6048	58.7061	38	30
58.6048	58.7061	67	41
58.7061	58.8075	43	30
58.7061	58.8075	62	41
58.8075	58.9088	38	30
58.8075	58.9088	55	41
58.9088	59.0102	35	35
58.9088	59.0102	62	48
59.0102	59.1115	38	30
59.0102	59.1115	67	41
59.1115	59.2129	43	30
59.1115	59.2129	62	41
59.2129	59.3142	38	30
59.2129	59.3142	55	41
59.3142	59.4152	35	35
59.3142	59.4152	62	48
59.4152	59.5167	38	30
59.4152	59.5167	67	41
59.5167	59.6186	43	30
59.5167	59.6186	62	40
59.6186	59.7211	38	30
59.6186	59.7211	55	40
59.7211	59.8239	36	37
59.7211	60.1321	59	55
59.8239	59.9266	40	30
59.8239	59.9266	64	41
59.9266	60.0294	45	30
59.9266	60.0294	71	41
60.0294	60.1321	40	30
60.0294	60.1321	64	41
60.1321	60.2348	36	35
60.1321	60.5431	59	53
60.2348	60.3376	40	30
60.2348	60.3376	64	41
60.3376	60.4403	45	30
60.3376	60.4403	71	41
60.4403	60.5431	40	30
60.4403	60.5431	64	41
60.5431	60.6458	36	35
60.5431	60.954	59	52
60.6458	60.7485	40	30
60.6458	60.7485	64	41
60.7485	60.8513	45	30
60.7485	60.8513	71	41
60.8513	60.954	40	30
60.8513	60.954	64	41
60.954	61.0568	36	35
60.954	61.365	57	52
61.0568	61.1595	40	30
61.0568	61.1595	64	41
61.1595	61.2623	45	30
61.1595	61.2623	69	40
61.2623	61.365	40	30
61.2623	61.365	64	40
61.365	61.4689	38	37
61.365	61.4689	59	50
61.4689	61.5737	43	30
61.4689	61.5737	62	41
61.5737	61.6788	47	30
61.5737	61.6788	69	41
61.6788	61.7843	43	30
61.6788	61.7843	62	41
61.7843	61.8902	38	35
61.7843	61.8902	59	49
61.8902	61.9965	43	30
61.8902	61.9965	62	41
61.9965	62.1031	47	30
61.9965	62.1031	67	41
62.1031	62.2101	43	30
62.1031	62.2101	62	41
62.2101	62.3173	38	35
62.2101	62.3173	60	48
62.3173	62.4244	45	30
62.3173	62.4244	62	41
62.4244	62.5322	48	30
62.4244	62.5322	67	41
62.5322	62.6418	45	30
62.5322	62.6418	62	41
62.6418	62.7529	38	35
62.6418	62.7529	60	48
62.7529	62.864	45	30
62.7529	62.864	62	41
62.864	62.9752	48	30
62.864	62.9752	66	40
62.9752	63.1007	45	30
62.9752	63.1007	62	40
63.1007	63.9511	79	79
63.1007	63.9511	82	79
63.1007	63.9511	85	79
63.1007	63.9511	91	93
63.3275	63.4328	52	73
63.4328	63.5376	55	75
63.5376	63.6419	58	77
63.6419	63.7456	61	79
63.7456	63.8488	67	80
63.8488	63.9511	70	82
63.9511	64.0531	73	88
64.0531	64.1554	76	82
64.1554	64.2578	73	81
64.2578	64.3605	70	80
64.3605	64.4634	67	76
64.4634	64.5665	64	78
64.5665	64.6698	61	78
64.6698	64.773	58	76
64.773	64.8768	61	76
64.773	64.8768	88	89
64.8768	64.9806	64	68
64.8768	64.9806	91	82
64.9806	65.0844	61	69
64.9806	65.0844	88	82
65.0844	65.1882	58	69
65.0844	65.1882	85	82
65.1882	65.292	55	73
65.1882	65.292	82	86
65.292	65.3958	52	66
65.292	65.3958	79	75
65.3958	65.4996	49	66
65.3958	65.4996	76	75
65.4996	65.6103	46	66
65.4996	65.6103	73	75
65.6103	65.7141	49	66
65.6103	65.7141	76	81
65.7141	65.8179	52	60
65.7141	65.8179	79	73
65.8179	65.9217	49	60
65.8179	65.9217	76	73
65.9217	66.0255	46	60
65.9217	66.0255	73	73
66.0255	66.1293	43	67
66.0255	66.1293	70	80
66.1293	66.2331	40	59
66.1293	66.2331	67	74
66.2331	66.3369	37	60
66.2331	66.3369	64	74
66.3369	66.4468	34	60
66.3369	66.4468	61	74
66.4468	66.551	37	68
66.4468	66.551	64	77
66.551	66.6552	40	47
66.551	66.6552	67	58
66.6552	66.7593	37	47
66.6552	66.7593	64	58
66.7593	66.8635	34	47
66.7593	66.8635	61	58
66.8635	66.9676	37	58
66.8635	66.9676	64	64
66.9676	67.0718	40	45
66.9676	67.0718	67	53
67.0718	67.1755	37	45
67.0718	67.1755	64	52
67.1755	67.279	34	45
67.1755	67.279	61	52
67.279	67.382	37	53
67.279	67.382	64	57
67.382	67.485	40	39
67.382	67.485	67	48
67.485	67.5878	37	39
67.485	67.5878	64	48
67.5878	67.6903	34	39
67.5878	67.6903	61	48
67.6903	67.7926	37	51
67.6903	67.7926	64	54
67.7926	67.8947	40	34
67.7926	67.8947	67	46
67.8947	67.9966	37	34
67.8947	67.9966	64	46
67.9966	68.0983	34	34
67.9966	68.0983	61	46
68.0983	68.1997	35	37
68.0983	68.1997	64	50
68.1997	68.301	40	30
68.1997	68.301	67	41
68.301	68.4024	43	30
68.301	68.4024	64	41
68.4024	68.5037	40	30
68.4024	68.5037	55	41
68.5037	68.6051	35	35
68.5037	68.6051	64	49
68.6051	68.7064	40	30
68.6051	68.7064	67	41
68.7064	68.8077	43	30
68.7064	68.8077	64	41
68.8077	68.9091	40	30
68.8077	68.9091	55	41
68.9091	69.0104	35	35
68.9091	69.0104	64	48
69.0104	69.1118	40	30
69.0104	69.1118	67	41
69.1118	69.2131	43	30
69.1118	69.2131	64	41
69.2131	69.3145	40	30
69.2131	69.3145	55	41
69.3145	69.4155	35	35
69.3145	69.4155	64	48
69.4155	69.517	40	30
69.4155	69.517	67	41
69.517	69.6189	43	30
69.517	69.6189	64	40
69.6189	69.7214	40	30
69.6189	69.7214	55	40
69.7214	69.8241	36	37
69.7214	70.1324	59	55
69.8241	69.9269	40	30
69.8241	69.9269	64	41
69.9269	70.0296	45	30
69.9269	70.0296	71	41
70.0296	70.1324	40	30
70.0296	70.1324	64	41
70.1324	70.2351	36	35
70.1324	70.5433	59	53
70.2351	70.3378	40	30
70.2351	70.3378	64	41
70.3378	70.4406	45	30
70.3378	70.4406	71	41
70.4406	70.5433	40	30
70.4406	70.5433	64	41
70.5433	70.6461	36	35
70.5433	70.9543	59	52
70.6461	70.7488	40	30
70.6461	70.7488	64	41
70.7488	70.8515	45	30
70.7488	70.8515	71	41
70.8515	70.9543	40	30
70.8515	70.9543	64	41
70.9543	71.0575	36	35
70.9543	71.3711	57	52
71.0575	71.1613	40	30
71.0575	71.1613	64	41
71.1613	71.2658	45	30
71.1613	71.2658	69	40
71.2658	71.3711	40	30
71.2658	71.3711	64	40
71.3711	71.4738	38	27
71.3711	71.4738	59	34
71.4738	71.5766	43	28
71.4738	71.5766	62	34
71.5766	71.6793	47	28
71.5766	71.9875	69	40
71.6793	71.7821	43	28
71.6793	71.7821	62	34
71.7821	71.8848	38	28
71.7821	71.8848	59	32
71.8848	71.9875	43	28
71.8848	71.9875	62	34
71.9875	72.0903	47	28
71.9875	72.3987	69	40
72.0903	72.193	43	28
72.0903	72.193	62	33
72.193	72.2958	38	28
72.193	72.2958	59	32
72.2958	72.3987	43	28
72.2958	72.3987	62	33
72.3987	72.5018	47	28
72.3987	72.8127	69	39
72.5018	72.6053	43	28
72.5018	72.6053	62	33
72.6053	72.7089	38	29
72.6053	72.7089	59	32
72.7089	72.8127	43	28
72.7089	72.8127	62	33
72.8127	72.9167	47	28
72.8127	73.2265	67	39
72.9167	73.021	43	28
72.9167	73.021	62	33
73.021	73.1237	38	29
73.021	73.1237	60	33
73.1237	73.2265	45	28
73.1237	73.2265	62	33
73.2265	73.3292	48	28
73.2265	73.6374	67	39
73.3292	73.432	45	28
73.3292	73.432	62	33
73.432	73.5347	38	29
73.432	73.5347	60	31
73.5347	73.6374	45	28
73.5347	73.6374	62	33
73.6374	73.7402	48	28
73.6374	74.0479	66	39
73.7402	73.8428	45	28
73.7402	73.8428	62	33
73.8428	73.9452	38	29
73.8428	73.9452	60	34
73.9452	74.0479	45	28
73.9452	74.0479	62	35
74.0479	74.1509	48	28
74.0479	74.4617	64	40
74.1509	74.2542	45	28
74.1509	74.2542	62	34
74.2542	74.3578	38	28
74.2542	74.3578	60	35
74.3578	74.4617	45	28
74.3578	74.4617	62	34
74.4617	74.5659	48	28
74.4617	74.6704	66	40
74.5659	74.6704	45	28
74.5659	74.6704	62	34
74.6704	74.9257	43	28
74.6704	74.9257	59	40
74.6704	74.9257	71	40
74.9257	75.4364	71	47
75.4364	75.947	71	47
75.947	76.4577	71	47
76.4577	76.9683	71	44
76.9683	77.48	72	50
77.48	78.0035	71	48
78.0035	78.5411	70	48
78.5411	78.8441	69	45
78.8441	79.8786	40	33
78.8441	79.3613	56	30
78.8441	79.3613	68	36
79.1027	79.8786	47	27
79.3613	79.62	56	27
79.3613	79.62	68	34
79.62	79.8786	56	27
79.62	79.8786	68	34
79.8786	80.9131	40	31
79.8786	80.3958	56	30
79.8786	80.3958	68	36
80.1372	80.9131	47	27
80.3958	80.6544	56	27
80.3958	80.6544	68	33
80.6544	80.9131	56	27
80.6544	80.9131	68	33
80.9131	82.9603	42	32
80.9131	81.1641	56	30
80.9131	81.1641	68	36
81.1641	81.4151	47	27
81.1641	81.4151	59	27
81.1641	81.4151	71	34
81.4151	81.6738	47	27
81.4151	81.9324	57	27
81.4151	81.9324	69	34
81.6738	81.9324	47	27
81.9324	82.1866	47	32
82.1866	82.4408	49	35
82.4408	82.5707	47	31
82.7006	82.8305	47	31
82.9603	83.9948	42	33
82.9603	83.4776	57	30
82.9603	83.4776	69	36
83.219	83.9948	47	27
83.4776	83.7362	57	27
83.4776	83.7362	69	34
83.7362	83.9948	57	27
83.7362	83.9948	69	34
83.9948	85.0362	42	31
83.9948	84.512	57	30
83.9948	84.512	69	36
84.2534	85.0362	47	27
84.512	84.7707	57	27
84.512	84.7707	69	33
84.7707	85.0362	57	27
84.7707	85.0362	69	33
85.0362	87.0737	44	32
85.0362	85.2872	58	30
85.0362	85.2872	70	36
85.2872	85.5382	47	27
85.2872	85.5382	61	27
85.2872	85.5382	73	34
85.5382	85.7969	47	27
85.5382	86.3097	59	27
85.5382	86.3097	71	34
85.7969	86.0555	47	27
86.0555	86.3097	47	32
86.3097	86.5587	49	39
86.3097	86.5587	64	30
86.3097	86.5587	76	43
86.5587	86.6874	47	41
86.5587	86.8162	66	33
86.5587	86.8162	78	47
86.8162	86.9449	47	46
86.8162	87.0737	68	36
86.8162	87.3312	76	52
86.8162	87.0737	80	52
87.0737	88.1037	54	54
87.0737	88.3612	69	41
87.0737	88.3612	81	59
87.3312	87.5887	59	43
87.3312	87.5887	75	54
87.5887	87.8462	61	41
87.5887	87.8462	73	51
87.8462	88.1037	63	40
87.8462	88.1037	71	50
88.1037	88.6187	52	30
88.1037	88.6187	64	45
88.1037	88.8762	71	46
88.3612	88.6187	68	27
88.3612	88.6187	80	40
88.6187	88.8762	54	27
88.6187	88.8762	63	39
88.6187	88.8762	69	27
88.6187	88.8762	78	40
88.8762	89.1477	56	26
88.8762	89.1477	64	37
88.8762	89.1477	71	27
88.8762	89.1477	76	40
89.1477	89.6628	54	30
89.1477	89.6628	66	45
89.1477	89.6628	71	34
89.1477	89.4052	76	47
89.4052	89.6628	75	41
89.6628	90.1868	54	25
89.6628	90.1868	64	36
89.6628	90.1868	70	29
89.6628	89.9248	75	44
89.9248	90.1868	73	36
90.1868	90.4671	59	25
90.1868	90.4671	63	36
90.1868	90.4671	71	36
90.4671	90.7303	71	27
90.4671	90.7303	83	39
90.7303	90.9935	70	26
90.7303	90.9935	82	36
90.9935	91.2566	69	25
90.9935	91.2566	81	36
91.2566	92.2911	52	33
91.2566	91.7738	68	30
91.2566	91.7738	80	36
91.5152	92.2911	59	27
91.7738	92.0325	68	27
91.7738	92.0325	80	34
92.0325	92.2911	68	27
92.0325	92.2911	80	34
92.2911	93.3256	52	31
92.2911	92.8083	68	30
92.2911	92.8083	80	36
92.5497	93.3256	59	27
92.8083	93.0669	68	27
92.8083	93.0669	80	33
93.0669	93.3256	68	27
93.0669	93.3256	80	33
93.3256	95.3681	54	32
93.3256	93.5766	68	30
93.3256	93.5766	80	36
93.5766	93.8276	59	27
93.5766	93.8276	71	27
93.5766	93.8276	83	34
93.8276	94.0863	59	27
93.8276	94.3449	69	27
93.8276	94.3449	81	34
94.0863	94.3449	59	27
94.3449	94.4683	58	32
94.4683	94.5918	59	27
94.5918	94.7153	61	27
94.7153	94.8486	59	29
94.8486	94.9785	59	31
95.1083	95.2382	59	31
95.3681	96.4026	54	33
95.3681	95.8853	69	30
95.3681	95.8853	81	36
95.6267	96.4026	59	27
95.8853	96.1439	69	27
95.8853	96.1439	81	34
96.1439	96.4026	69	27
96.1439	96.4026	81	34
96.4026	97.4606	54	31
96.4026	96.9198	69	30
96.4026	96.9198	81	36
96.6612	97.4606	59	27
96.9198	97.1841	69	27
96.9198	97.1841	81	33
97.1841	97.4606	69	27
97.1841	97.4606	81	33
97.4606	99.5087	55	32
97.4606	97.7127	70	30
97.4606	97.7127	82	36
97.7127	97.9648	59	27
97.7127	97.9648	72	27
97.7127	97.9648	84	34
97.9648	98.2234	59	27
97.9648	98.729	71	27
97.9648	98.729	83	34
98.2234	98.482	59	27
98.482	98.6055	58	32
98.6055	98.729	59	27
98.729	98.8524	60	27
98.8524	98.987	59	27
98.987	99.1174	59	31
99.2478	99.3783	59	31
99.5087	101.57	57	32
99.5087	99.7608	71	45
99.5087	99.7608	83	45
99.7608	100.013	64	27
99.7608	100.013	74	40
99.7608	100.013	86	40
100.013	100.272	64	27
100.013	100.543	72	41
100.013	100.543	84	41
100.272	100.543	64	27
100.543	100.666	59	36
100.543	101.309	76	54
100.543	101.309	88	54
100.666	100.79	60	32
100.79	100.913	62	35
100.913	101.048	60	37
101.048	101.309	62	35
101.309	101.57	64	34
101.309	101.57	72	43
101.309	101.57	84	43
101.57	103.631	55	32
101.57	101.822	70	45
101.57	101.822	82	45
101.822	102.074	64	27
101.822	102.074	72	40
101.822	102.074	84	40
102.074	102.332	64	27
102.074	102.604	71	41
102.074	102.604	83	41
102.332	102.604	64	27
102.604	102.727	58	36
102.604	103.37	76	54
102.604	103.37	88	54
102.727	102.851	59	33
102.851	102.974	60	35
102.974	103.109	59	38
103.109	103.37	64	40
103.37	103.631	67	34
103.37	103.631	71	43
103.37	103.631	83	43
103.631	103.892	54	33
103.631	103.892	69	39
103.631	103.892	81	46
103.892	104.147	55	36
103.892	104.147	71	41
103.892	104.147	83	49
104.147	104.402	57	33
104.147	104.402	59	39
104.147	104.402	72	51
104.147	104.402	84	51
104.402	104.665	54	29
104.402	104.665	59	35
104.402	104.665	69	39
104.402	104.665	81	46
104.665	104.928	52	33
104.665	104.928	67	37
104.665	104.928	79	45
104.928	105.186	54	36
104.928	105.186	70	39
104.928	105.186	82	46
105.186	105.443	55	34
105.186	105.443	59	41
105.186	105.443	71	41
105.186	105.443	83	49
105.443	105.71	52	30
105.443	105.71	59	36
105.443	105.71	67	37
105.443	105.71	79	45
105.71	106.756	47	36
105.71	105.977	59	43
105.71	106.756	66	36
105.71	106.756	75	36
105.71	106.756	78	43
105.977	106.237	58	39
106.237	106.496	59	42
106.496	106.756	60	44
106.756	107.016	59	47
107.016	107.279	57	44
107.279	107.545	54	44
107.545	107.811	51	43
107.811	108.073	42	33
107.811	108.073	57	39
107.811	108.073	69	46
108.073	108.329	43	36
108.073	108.329	59	41
108.073	108.329	71	49
108.329	108.584	45	33
108.329	108.584	47	39
108.329	108.584	60	51
108.329	108.584	72	51
108.584	108.847	42	29
108.584	108.847	47	35
108.584	108.847	57	39
108.584	108.847	69	46
108.847	109.11	40	33
108.847	109.11	55	37
108.847	109.11	67	45
109.11	109.368	42	36
109.11	109.368	58	39
109.11	109.368	70	46
109.368	109.625	43	34
109.368	109.625	47	41
109.368	109.625	59	41
109.368	109.625	71	49
109.625	109.892	40	30
109.625	109.892	47	36
109.625	109.892	55	37
109.625	109.892	67	45
109.892	110.419	35	43
109.892	110.419	47	43
109.892	110.938	54	36
109.892	110.938	63	36
109.892	110.938	66	43
110.419	110.678	35	36
110.419	110.678	47	36
110.678	110.938	35	36
110.678	110.938	47	36
110.938	111.461	35	43
110.938	111.461	47	43
111.198	111.461	62	40
111.198	111.461	66	40
111.461	111.724	35	36
111.461	111.724	47	36
111.461	111.724	61	42
111.461	111.724	64	42
111.461	111.724	66	42
111.724	111.987	35	37
111.724	111.987	47	37
111.724	111.987	59	44
111.724	111.987	62	44
111.724	111.987	66	44
111.987	112.247	35	43
111.987	112.247	47	43
111.987	112.779	56	45
111.987	112.52	66	45
112.247	112.52	38	36
112.247	112.52	50	36
112.52	113.299	37	36
112.52	113.299	49	36
112.52	112.779	65	44
112.779	113.039	57	45
112.779	113.039	61	45
112.779	113.039	66	45
113.039	113.559	61	47
113.039	113.559	65	47
113.039	113.559	68	47
113.299	113.559	35	36
113.299	113.559	47	36
113.559	113.818	33	36
113.559	113.818	45	36
113.559	113.818	61	47
113.559	113.818	66	47
113.559	113.818	69	47
113.818	114.092	32	36
113.818	114.092	44	36
113.818	114.092	61	47
113.818	114.092	65	47
113.818	114.092	73	47
114.092	115.398	30	40
114.092	115.398	42	40
114.092	114.875	61	51
114.092	114.875	66	51
114.092	114.612	71	51
114.612	114.875	69	45
114.875	115.138	59	45
114.875	115.138	61	45
114.875	115.138	68	45
115.138	115.917	57	49
115.138	115.917	61	49
115.138	115.917	66	49
115.398	115.658	32	36
115.398	115.658	44	36
115.658	115.917	33	36
115.658	115.917	45	36
115.917	116.186	34	36
115.917	116.186	46	36
115.917	116.186	56	45
115.917	116.186	64	45
116.186	116.446	34	43
116.186	116.446	46	43
116.186	116.97	54	46
116.186	116.706	64	46
116.446	116.706	37	35
116.446	116.706	49	35
116.706	117.499	35	35
116.706	117.499	47	35
116.706	116.97	63	45
116.97	117.235	56	45
116.97	117.235	59	45
116.97	117.235	64	45
117.235	117.763	59	49
117.235	117.763	63	49
117.235	117.763	66	49
117.499	117.763	33	35
117.499	117.763	45	35
117.763	118.023	32	36
117.763	118.023	44	36
117.763	118.023	59	43
117.763	118.023	64	43
117.763	118.023	68	43
118.023	118.283	30	36
118.023	118.283	42	36
118.023	118.283	59	43
118.023	118.283	63	43
118.023	118.283	71	43
118.283	119.893	40	37
118.283	119.076	59	47
118.283	119.076	64	47
118.283	118.809	69	47
118.809	119.076	68	39
119.076	119.342	57	37
119.076	119.342	59	37
119.076	119.342	66	37
119.342	119.893	56	43
119.342	119.893	59	43
119.342	119.893	64	43
119.893	120.481	38	34
119.893	120.481	56	36
119.893	120.481	59	36
119.893	120.481	64	36
120.481	120.598	36	31
120.481	120.598	60	30
120.481	120.598	64	36
120.598	120.714	43	27
120.598	120.714	55	30
120.714	120.829	36	32
120.714	120.829	60	31
120.714	120.829	64	36
120.829	120.943	43	29
120.829	120.943	55	32
120.943	121.057	36	33
120.943	121.057	60	32
120.943	121.057	64	38
121.057	121.171	43	30
121.057	121.171	55	33
121.171	121.283	36	35
121.171	121.283	60	34
121.171	121.283	64	40
121.283	121.395	43	31
121.283	121.395	55	34
121.395	121.506	36	36
121.395	121.506	60	35
121.395	121.506	64	41
121.506	121.617	43	31
121.506	121.617	55	34
121.617	121.727	36	38
121.617	121.727	60	36
121.617	121.727	64	44
121.727	121.836	43	32
121.727	121.836	55	37
121.836	121.944	36	39
121.836	121.944	60	38
121.836	121.944	64	46
121.944	122.052	43	34
121.944	122.052	55	37
122.052	122.16	36	41
122.052	122.16	60	39
122.052	122.16	64	46
122.16	122.267	43	36
122.16	122.267	55	40
122.267	122.373	36	42
122.267	122.373	64	41
122.267	122.373	67	49
122.373	122.479	43	38
122.373	122.479	60	41
122.479	122.584	36	43
122.479	122.584	64	42
122.479	122.584	67	50
122.584	122.689	43	39
122.584	122.689	60	43
122.689	122.794	36	46
122.689	122.794	64	44
122.689	122.794	67	52
122.794	122.898	43	41
122.794	122.898	60	44
122.898	123.002	36	47
122.898	123.002	64	46
122.898	123.002	67	54
123.002	123.105	43	41
123.002	123.105	60	44
123.105	123.208	36	49
123.105	123.208	67	48
123.105	123.208	72	57
123.208	123.311	43	44
123.208	123.311	64	48
123.311	123.413	36	50
123.311	123.413	67	49
123.311	123.413	72	57
123.413	123.515	43	43
123.413	123.515	64	48
123.515	123.616	36	52
123.515	123.616	67	50
123.515	123.616	72	59
123.616	123.717	43	46
123.616	123.717	64	49
123.717	123.818	36	53
123.717	123.818	67	52
123.717	123.818	72	61
123.818	123.919	43	45
123.818	123.919	64	51
123.919	124.019	36	55
123.919	124.019	72	53
123.919	124.019	76	63
124.019	124.119	43	49
124.019	124.119	67	52
124.119	124.218	36	57
124.119	124.218	72	55
124.119	124.218	76	65
124.218	124.318	43	51
124.218	124.318	67	53
124.318	124.417	36	59
124.318	124.417	76	57
124.318	124.417	79	67
124.417	124.516	43	52
124.417	124.516	72	56
124.516	124.615	36	60
124.516	124.615	76	58
124.516	124.615	79	68
124.615	124.713	43	52
124.615	124.713	72	57
124.713	124.812	36	62
124.713	124.812	79	60
124.713	124.812	84	71
124.812	124.91	43	55
124.812	124.91	76	59
124.91	125.008	36	63
124.91	125.008	79	61
124.91	125.008	84	72
125.008	125.105	43	56
125.008	125.105	76	62
125.105	125.203	36	65
125.105	125.203	84	63
125.105	125.203	88	75
125.203	125.3	43	56
125.203	125.3	79	62
125.3	125.407	36	67
125.3	125.407	84	65
125.3	125.407	88	77
125.407	125.513	43	58
125.407	125.513	79	64
125.513	125.925	60	55
125.513	125.925	67	55
125.513	125.925	72	64
125.513	125.925	76	74
125.513	125.925	79	74
125.513	125.925	84	74
125.513	125.925	88	88
125.925	126.127	60	49
125.925	126.127	67	49
125.925	126.127	72	59
125.925	126.127	76	70
125.925	126.127	79	70
125.925	126.127	84	70
125.925	126.127	88	83
126.127	126.328	60	49
126.127	126.328	67	49
126.127	126.328	72	59
126.127	126.328	76	70
126.127	126.328	79	70
126.127	126.328	84	70
126.127	126.328	88	83
126.328	126.74	60	56
126.328	126.74	67	56
126.328	126.74	72	66
126.328	126.74	76	74
126.328	126.74	79	74
126.328	126.74	84	74
126.328	126.74	88	88
126.74	126.941	60	50
126.74	126.941	67	50
126.74	126.941	72	60
126.74	126.941	76	69
126.74	126.941	79	69
126.74	126.941	84	69
126.74	126.941	88	82
126.941	127.142	60	50
126.941	127.142	67	50
126.941	127.142	72	60
126.941	127.142	76	69
126.941	127.142	79	69
126.941	127.142	84	69
126.941	127.142	88	82
127.142	127.348	60	56
127.142	127.348	64	56
127.142	127.348	67	56
127.142	127.348	72	66
127.142	127.348	76	74
127.142	127.348	79	74
127.142	127.348	84	74
127.142	127.348	88	88
127.348	127.45	67	79
127.45	127.553	64	81
127.553	127.656	60	83
127.656	127.759	55	85
127.759	127.864	52	89
127.864	127.968	48	91
127.968	128.387	35	96
127.968	128.387	47	96
128.387	128.491	36	77
128.387	128.491	48	92
128.596	128.7	36	77
128.596	128.7	48	92
128.805	129.024	37	57
128.805	129.024	49	68
128.805	129.024	67	76
128.805	129.024	71	76
128.805	129.024	77	91
128.805	129.024	79	91
129.243	129.462	38	57
129.243	129.462	50	68
129.243	129.462	55	71
129.243	129.462	59	71
129.243	129.462	65	85
129.243	129.462	67	85
130.572	130.984	55	55
130.572	130.984	67	64
130.572	130.984	77	74
130.572	130.984	79	74
130.572	130.984	83	74
130.572	130.984	86	88
130.984	131.186	55	49
130.984	131.186	67	59
130.984	131.186	77	70
130.984	131.186	79	70
130.984	131.186	83	70
130.984	131.186	86	83
131.186	131.387	55	49
131.186	131.387	67	59
131.186	131.387	77	70
131.186	131.387	79	70
131.186	131.387	83	70
131.186	131.387	86	83
131.387	131.799	55	56
131.387	131.799	67	66
131.387	131.799	77	74
131.387	131.799	79	74
131.387	131.799	83	74
131.387	131.799	86	88
131.799	132.0	55	50
131.799	132.0	67	60
131.799	132.0	77	69
131.799	132.0	79	69
131.799	132.0	83	69
131.799	132.0	86	82
132.0	132.201	55	50
132.0	132.201	67	60
132.0	132.201	77	69
132.0	132.201	79	69
132.0	132.201	83	69
132.0	132.201	86	82
132.201	132.407	55	56
132.201	132.407	67	66
132.201	132.407	77	74
132.201	132.407	79	74
132.201	132.407	83	74
132.201	132.407	86	88
132.407	132.509	65	79
132.509	132.612	62	81
132.612	132.715	59	83
132.715	132.818	55	85
132.818	132.923	53	89
132.923	133.027	50	91
133.027	133.446	37	96
133.027	133.446	49	96
133.446	133.55	38	77
133.446	133.55	50	92
133.655	133.759	38	77
133.655	133.759	50	92
133.864	134.083	39	59
133.864	134.083	51	71
133.864	134.083	67	79
133.864	134.083	72	79
133.864	134.083	79	95
134.302	134.521	40	59
134.302	134.521	52	71
134.302	134.521	55	74
134.302	134.521	60	74
134.302	134.521	67	89
134.959	135.06	55	64
135.06	135.161	60	66
135.161	135.26	64	68
135.26	135.358	67	70
135.358	135.456	72	72
135.456	135.554	76	74
135.554	136.371	36	50
135.554	136.371	48	60
135.554	135.967	67	66
135.554	135.967	76	66
135.554	135.967	79	78
135.967	136.169	67	58
135.967	136.169	76	58
135.967	136.169	79	70
136.169	136.371	67	58
136.169	136.371	76	58
136.169	136.371	79	70
136.371	136.799	35	44
136.371	136.799	47	53
136.371	137.001	67	65
136.371	137.001	74	65
136.371	137.001	79	78
136.799	137.001	47	57
136.799	137.001	59	70
137.001	137.203	47	53
137.001	137.203	59	65
137.001	137.203	67	67
137.001	137.203	74	67
137.001	137.203	79	80
137.203	137.615	45	63
137.203	137.615	57	72
137.203	137.615	72	74
137.203	137.615	79	74
137.203	137.615	84	88
137.615	138.028	38	50
137.615	138.028	50	61
137.615	137.822	72	63
137.615	137.822	78	63
137.615	137.822	84	75
137.822	138.028	72	61
137.822	138.028	78	61
137.822	138.028	84	73
138.028	138.241	43	48
138.028	138.24	55	59
138.028	138.241	71	64
138.028	138.241	79	64
138.028	138.241	83	76
138.241	138.342	55	64
138.342	138.443	60	66
138.443	138.541	64	68
138.541	138.639	67	70
138.639	138.737	72	72
138.737	138.835	76	74
138.835	139.653	36	50
138.835	139.653	48	60
138.835	139.249	67	66
138.835	139.249	76	66
138.835	139.249	79	78
139.249	139.451	67	58
139.249	139.451	76	58
139.249	139.451	79	70
139.451	139.653	67	58
139.451	139.653	76	58
139.451	139.653	79	70
139.653	140.08	35	44
139.653	140.08	47	53
139.653	140.282	67	65
139.653	140.282	74	65
139.653	140.282	79	78
140.08	140.282	47	57
140.08	140.282	59	70
140.282	140.484	47	53
140.282	140.484	59	65
140.282	140.484	67	67
140.282	140.484	74	67
140.282	140.484	79	80
140.484	140.897	45	63
140.484	140.897	57	72
140.484	140.897	72	74
140.484	140.897	79	74
140.484	140.897	84	88
140.897	141.309	38	50
140.897	141.309	50	61
140.897	141.309	72	63
140.897	141.309	78	63
140.897	141.309	84	75
141.309	141.515	43	48
141.309	141.515	55	59
141.309	141.515	71	64
141.309	141.515	79	64
141.309	141.515	83	76
141.515	141.616	60	64
141.616	141.717	65	66
141.717	141.815	69	68
141.815	141.913	72	70
141.913	142.011	77	72
142.011	142.109	81	74
142.109	142.927	41	50
142.109	142.927	53	60
142.109	142.523	72	72
142.109	142.523	81	72
142.109	142.523	84	85
142.523	142.725	72	63
142.523	142.725	81	63
142.523	142.725	84	77
142.725	142.927	72	63
142.725	142.927	81	63
142.725	142.927	84	77
142.927	143.354	40	44
142.927	143.354	52	53
142.927	143.568	72	71
142.927	143.568	79	71
142.927	143.568	84	85
143.354	143.568	52	57
143.354	143.568	64	70
143.568	143.781	52	53
143.568	143.781	64	65
143.568	143.781	72	73
143.568	143.781	79	73
143.568	143.781	84	88
143.781	144.194	50	63
143.781	144.194	62	72
143.781	144.194	77	81
143.781	144.194	84	81
143.781	144.194	89	96
144.194	144.606	43	54
144.194	144.606	55	67
144.194	144.4	77	75
144.194	144.4	83	75
144.194	144.4	89	90
144.4	144.606	77	66
144.4	144.606	83	66
144.4	144.606	89	78
144.606	145.018	48	52
144.606	145.018	60	65
144.606	145.018	76	76
144.606	145.018	83	76
144.606	145.018	88	92
145.018	145.22	41	55
145.018	145.22	53	67
145.018	145.422	76	70
145.018	145.422	81	70
145.018	145.422	88	84
145.22	145.422	41	51
145.22	145.422	53	62
145.422	145.835	47	60
145.422	145.835	59	69
145.422	145.629	74	78
145.422	145.629	81	78
145.422	145.629	86	92
145.629	145.835	74	78
145.629	145.835	80	78
145.629	145.835	86	78
145.835	146.247	48	53
145.835	146.247	60	65
145.835	146.247	72	73
145.835	146.247	81	73
145.835	146.247	84	87
146.247	146.453	50	52
146.247	146.453	62	65
146.247	146.66	71	76
146.247	146.66	77	76
146.247	146.66	81	76
146.247	146.66	83	92
146.453	146.66	50	55
146.453	146.66	62	55
146.66	147.075	52	58
146.66	147.075	64	71
146.66	147.024	71	74
146.66	147.024	76	74
146.66	147.024	80	74
146.66	147.024	83	89
147.024	147.075	81	82
147.075	147.481	33	81
147.075	147.481	45	96
147.075	147.278	93	92
147.278	147.38	91	82
147.38	147.481	89	82
147.481	147.685	33	75
147.481	147.685	45	90
147.481	147.583	88	81
147.583	147.685	86	81
147.685	147.888	33	75
147.685	147.888	45	90
147.685	147.786	84	80
147.786	147.888	83	79
147.888	148.295	33	81
147.888	148.295	45	96
147.888	147.99	81	79
147.99	148.091	79	78
148.091	148.193	77	78
148.193	148.295	76	77
148.295	148.498	33	75
148.295	148.498	45	90
148.295	148.397	74	77
148.397	148.498	72	75
148.498	148.702	33	74
148.498	148.702	45	88
148.498	148.6	71	74
148.6	148.702	69	74
148.702	148.898	33	81
148.702	148.898	45	96
148.702	148.8	68	71
148.8	148.898	65	64
148.898	149.107	36	75
148.898	149.107	48	90
148.898	149.003	64	64
149.003	149.107	62	64
149.107	149.518	35	79
149.107	149.518	47	93
149.107	149.21	68	63
149.21	149.313	65	57
149.313	149.416	64	57
149.416	149.518	62	57
149.518	149.621	68	67
149.518	150.351	74	79
149.518	150.351	77	93
149.621	149.724	65	58
149.724	149.827	64	58
149.827	149.929	62	58
149.929	150.032	68	64
150.032	150.135	65	59
150.135	150.251	64	59
150.251	150.301	62	59
150.301	150.351	83	81
150.351	150.758	35	81
150.351	150.758	47	96
150.351	150.555	95	92
150.555	150.656	93	82
150.656	150.758	92	82
150.758	150.962	35	75
150.758	150.962	47	90
150.758	150.86	89	81
150.86	150.962	88	81
150.962	151.165	35	75
150.962	151.165	47	90
150.962	151.063	86	80
151.063	151.165	84	79
151.165	151.572	35	81
151.165	151.572	47	96
151.165	151.267	83	79
151.267	151.368	81	78
151.368	151.47	80	78
151.47	151.572	77	77
151.572	151.775	35	75
151.572	151.775	47	90
151.572	151.673	76	77
151.673	151.775	74	75
151.775	151.978	35	74
151.775	151.978	47	88
151.775	151.877	72	74
151.877	151.978	71	74
151.978	152.175	35	81
151.978	152.175	47	96
151.978	152.077	69	71
152.077	152.175	63	64
152.175	152.384	38	75
152.175	152.384	50	90
152.175	152.28	64	64
152.28	152.384	57	64
152.384	152.795	36	79
152.384	152.795	48	93
152.384	152.487	69	63
152.487	152.59	63	57
152.59	152.692	64	57
152.692	152.795	57	57
152.795	152.898	69	67
152.795	153.617	72	79
152.795	153.617	76	79
152.795	153.617	81	93
152.898	153.001	63	58
153.001	153.103	64	58
153.103	153.206	57	58
153.206	153.309	69	64
153.309	153.412	63	59
153.412	153.514	64	59
153.514	153.617	57	59
153.617	153.814	37	77
153.617	153.814	49	91
153.617	153.716	70	67
153.716	153.814	64	61
153.814	154.023	40	71
153.814	154.023	52	84
153.814	153.918	65	61
153.918	154.023	58	61
154.023	154.434	38	74
154.023	154.434	50	88
154.023	154.126	70	60
154.126	154.228	64	53
154.228	154.331	65	53
154.331	154.434	58	53
154.434	154.537	70	59
154.434	155.256	74	70
154.434	155.256	77	72
154.434	155.256	82	85
154.537	154.639	64	51
154.639	154.742	65	51
154.742	154.845	58	51
154.845	154.948	70	58
154.948	155.05	64	52
155.05	155.153	65	52
155.153	155.256	58	52
155.256	155.665	40	52
155.256	155.665	52	52
155.256	155.359	73	53
155.359	155.461	66	47
155.461	155.563	67	47
155.563	155.665	61	48
155.665	156.07	41	55
155.665	156.07	53	55
155.665	155.767	74	54
155.767	155.868	68	48
155.868	155.969	69	48
155.969	156.07	62	49
156.07	156.471	44	58
156.07	156.471	56	58
156.07	156.171	76	55
156.171	156.271	70	49
156.271	156.371	71	49
156.371	156.471	64	49
156.471	156.869	45	60
156.471	156.869	57	60
156.471	156.571	77	56
156.571	156.67	71	49
156.67	156.77	72	49
156.77	156.869	65	50
156.869	157.265	47	63
156.869	157.265	59	63
156.869	156.968	80	57
156.968	157.067	75	52
157.067	157.166	76	53
157.166	157.265	68	54
157.265	157.666	48	66
157.265	157.666	60	66
157.265	157.365	81	59
157.365	157.465	75	52
157.465	157.566	76	53
157.566	157.666	69	53
157.666	158.062	53	68
157.666	158.062	65	68
157.666	157.765	83	66
157.765	157.864	75	54
157.864	157.963	81	53
157.963	158.062	71	52
158.062	158.458	52	65
158.062	158.458	64	65
158.062	158.161	84	57
158.161	158.26	76	49
158.26	158.359	80	48
158.359	158.458	72	48
158.458	158.661	33	75
158.458	158.865	81	66
158.458	158.865	93	79
158.661	158.763	35	67
158.763	158.865	36	67
158.865	158.967	38	66
158.865	159.068	81	62
158.865	159.068	93	73
158.967	159.068	40	66
159.068	159.17	42	65
159.068	159.272	81	62
159.068	159.272	93	73
159.17	159.272	44	64
159.272	159.373	45	64
159.272	159.678	81	66
159.272	159.678	93	79
159.373	159.475	47	63
159.475	159.577	48	63
159.577	159.678	50	63
159.678	159.78	52	63
159.678	159.882	81	62
159.678	159.882	93	73
159.78	159.882	54	62
159.882	159.983	56	61
159.882	160.085	81	61
159.882	160.085	93	72
159.983	160.085	57	61
160.085	160.184	58	58
160.085	160.282	81	66
160.085	160.282	93	79
160.184	160.282	61	53
160.282	160.386	62	53
160.282	160.491	78	62
160.282	160.491	90	73
160.386	160.491	64	53
160.491	160.594	58	52
160.491	160.908	79	64
160.491	160.908	91	76
160.594	160.696	61	46
160.696	160.802	62	46
160.802	160.908	64	46
160.908	161.73	45	97
160.908	161.011	58	54
161.011	161.114	61	47
161.114	161.217	62	47
161.217	161.319	64	47
161.319	161.422	58	53
161.422	161.525	61	48
161.525	161.628	62	48
161.628	161.73	64	48
161.73	161.934	37	75
161.73	162.137	79	66
161.73	162.137	91	79
161.934	162.035	38	67
162.035	162.137	40	67
162.137	162.239	41	66
162.137	162.341	79	62
162.137	162.341	91	73
162.239	162.341	43	66
162.341	162.442	45	65
162.341	162.544	79	62
162.341	162.544	91	73
162.442	162.544	47	64
162.544	162.646	49	64
162.544	162.951	79	66
162.544	162.951	91	79
162.646	162.747	50	63
162.747	162.849	52	63
162.849	162.951	53	63
162.951	163.052	55	63
162.951	163.154	79	62
162.951	163.154	91	73
163.052	163.154	57	62
163.154	163.256	59	61
163.154	163.358	79	61
163.154	163.358	91	72
163.256	163.358	61	61
163.358	163.456	62	58
163.358	163.554	79	66
163.358	163.554	91	79
163.456	163.554	65	53
163.554	163.659	68	53
163.554	163.763	76	62
163.554	163.763	88	73
163.659	163.763	69	53
163.763	163.866	62	52
163.763	164.18	77	64
163.763	164.18	89	76
163.866	163.969	65	46
163.969	164.074	68	46
164.074	164.18	69	46
164.18	165.002	45	97
164.18	164.283	62	54
164.283	164.386	65	47
164.386	164.488	68	47
164.488	164.591	69	47
164.591	164.694	62	53
164.694	164.796	65	48
164.796	164.899	68	48
164.899	165.002	69	48
165.002	165.1	60	55
165.002	165.199	77	62
165.002	165.199	89	75
165.1	165.199	64	50
165.199	165.303	68	49
165.199	165.408	75	58
165.199	165.408	87	68
165.303	165.408	69	49
165.408	165.51	60	47
165.408	165.825	76	58
165.408	165.825	88	69
165.51	165.613	64	42
165.613	165.719	68	41
165.719	165.825	69	41
165.825	166.646	45	86
165.825	165.927	60	48
165.927	166.03	64	41
166.03	166.133	68	41
166.133	166.235	69	40
166.235	166.338	60	45
166.338	166.441	64	40
166.441	166.544	68	40
166.544	166.646	69	40
166.646	166.746	59	48
166.646	166.846	76	54
166.646	166.846	88	65
166.746	166.846	62	43
166.846	166.953	68	42
166.846	167.059	73	50
166.846	167.059	85	59
166.953	167.059	69	42
167.059	167.163	59	41
167.059	167.479	74	51
167.059	167.479	86	60
167.163	167.268	62	36
167.268	167.373	68	35
167.373	167.479	69	35
167.479	168.301	45	74
167.479	167.582	59	41
167.582	167.684	62	35
167.684	167.787	68	35
167.787	167.89	69	34
167.89	167.993	59	39
167.993	168.095	62	35
168.095	168.198	68	34
168.198	168.301	69	34
168.301	168.403	57	43
168.301	168.504	74	48
168.301	168.504	86	58
168.403	168.504	60	35
168.504	168.615	68	35
168.504	168.726	71	45
168.504	168.726	83	53
168.615	168.726	69	35
168.726	168.833	57	35
168.726	169.157	72	45
168.726	169.157	84	54
168.833	168.939	60	35
168.939	169.048	68	31
169.048	169.157	69	31
169.157	169.263	48	40
169.157	169.369	69	47
169.157	169.369	81	56
169.263	169.369	57	36
169.369	169.476	50	37
169.369	169.582	71	50
169.369	169.582	83	59
169.476	169.582	57	38
169.582	169.689	45	46
169.582	169.795	72	52
169.582	169.795	84	62
169.689	169.795	57	40
169.795	169.901	47	41
169.795	170.008	74	55
169.795	170.008	86	65
169.901	170.008	57	42
170.008	170.114	48	50
170.008	170.446	76	57
170.008	170.446	88	68
170.114	170.22	57	43
170.22	170.333	52	43
170.333	170.446	57	43
170.446	170.555	50	47
170.446	170.773	74	56
170.446	170.773	86	66
170.555	170.664	57	39
170.664	170.773	53	39
170.773	170.884	57	39
170.773	170.884	72	46
170.773	170.884	84	55
170.884	170.996	52	45
170.884	171.329	72	51
170.884	171.329	84	61
170.996	171.107	60	35
171.107	171.218	57	35
171.218	171.329	60	35
171.329	171.443	52	46
171.329	171.791	71	47
171.329	171.791	83	56
171.443	171.559	62	35
171.559	171.675	56	35
171.675	171.791	62	35
171.791	171.902	53	41
171.791	172.237	68	50
171.791	172.237	80	59
171.902	172.014	60	32
172.014	172.125	57	33
172.125	172.237	60	33
172.237	172.348	53	41
172.237	172.46	69	47
172.237	172.46	81	56
172.348	172.46	60	35
172.46	172.571	57	35
172.571	172.684	60	35
172.693	172.806	48	40
172.693	172.919	69	47
172.693	172.919	81	56
172.806	172.919	57	36
172.919	173.031	50	37
172.919	173.144	71	50
172.919	173.144	83	59
173.031	173.144	57	38
173.144	173.257	45	46
173.144	173.37	72	52
173.144	173.37	84	62
173.257	173.37	57	40
173.37	173.483	47	41
173.37	173.595	74	55
173.37	173.595	86	65
173.483	173.595	57	42
173.595	173.708	48	50
173.595	174.061	76	57
173.595	174.061	88	68
173.708	173.822	57	43
173.822	173.942	52	43
173.942	174.061	57	43
174.061	174.176	50	47
174.061	174.406	74	56
174.061	174.406	86	66
174.176	174.29	57	39
174.29	174.406	53	39
174.406	174.522	57	39
174.406	174.522	72	46
174.406	174.522	84	55
174.522	174.639	52	45
174.522	174.994	72	51
174.522	174.994	84	61
174.639	174.757	60	35
174.757	174.875	57	35
174.875	174.994	60	35
174.994	175.114	52	46
174.994	175.472	71	47
174.994	175.472	83	56
175.114	175.233	62	35
175.233	175.353	56	35
175.353	175.472	62	35
175.462	175.576	35	68
175.462	175.576	47	80
175.462	175.576	81	69
175.576	175.69	75	61
175.69	175.799	38	64
175.69	175.799	50	76
175.69	175.799	76	61
175.799	175.908	69	61
175.908	176.352	36	69
175.908	176.352	48	82
175.908	176.019	69	66
176.019	176.13	63	61
176.13	176.241	64	61
176.241	176.352	57	61
176.352	176.465	37	69
176.352	176.465	49	81
176.352	176.465	82	69
176.465	176.579	76	62
176.579	176.687	40	64
176.579	176.687	52	76
176.579	176.687	77	62
176.687	176.796	70	62
176.796	177.239	38	70
176.796	177.239	50	82
176.796	176.907	70	66
176.907	177.017	64	62
177.017	177.128	65	62
177.128	177.239	58	63
177.239	177.35	39	70
177.239	177.35	51	83
177.239	177.35	85	72
177.35	177.46	78	63
177.46	177.567	41	65
177.46	177.567	53	77
177.46	177.567	79	64
177.567	177.675	73	64
177.675	178.119	40	71
177.675	178.119	52	84
177.675	177.786	73	70
177.786	177.897	66	64
177.897	178.008	67	63
178.008	178.119	61	63
178.119	178.228	40	72
178.119	178.228	52	84
178.119	178.228	86	75
178.228	178.337	80	63
178.337	178.442	43	66
178.337	178.442	55	79
178.337	178.442	81	64
178.442	178.547	74	64
178.547	178.993	41	72
178.547	178.993	53	85
178.547	178.658	74	69
178.658	178.77	68	64
178.77	178.882	69	64
178.882	178.993	62	64
178.993	179.103	44	73
178.993	179.103	56	86
178.993	179.103	89	76
179.103	179.213	85	65
179.213	179.33	59	67
179.213	179.33	62	80
179.213	179.33	86	65
179.33	179.446	77	65
179.446	180.364	56	74
179.446	180.364	59	74
179.446	180.364	62	74
179.446	180.364	65	88
179.446	179.559	89	71
179.559	179.672	85	66
179.672	179.785	86	66
179.785	179.897	77	66
179.897	180.01	89	70
180.01	180.123	85	61
180.123	180.236	86	61
180.236	180.364	77	61
180.364	180.84	52	37
180.364	180.84	56	37
180.364	180.84	59	45
180.364	180.483	80	64
180.483	180.602	83	58
180.602	180.721	86	58
180.721	180.84	89	58
180.84	180.952	48	45
180.84	181.29	76	51
180.84	181.29	88	61
180.952	181.064	57	38
181.064	181.177	52	38
181.177	181.29	57	38
181.29	181.399	50	42
181.29	181.617	74	50
181.29	181.617	86	59
181.399	181.508	57	35
181.508	181.617	53	35
181.617	181.728	57	35
181.617	181.728	72	41
181.617	181.728	84	49
181.728	181.839	52	40
181.728	182.172	72	45
181.728	182.172	84	54
181.839	181.95	60	31
181.95	182.061	57	31
182.061	182.172	60	31
182.172	182.289	52	41
182.172	182.659	71	42
182.172	182.659	83	50
182.289	182.406	62	31
182.406	182.525	56	31
182.525	182.659	62	31
182.659	182.773	48	32
182.659	183.117	76	36
182.659	183.117	88	43
182.773	182.886	57	27
182.886	183.001	52	27
183.001	183.117	57	27
183.117	183.227	50	29
183.117	183.449	74	36
183.117	183.449	86	42
183.227	183.338	57	25
183.338	183.449	53	25
183.449	183.56	57	25
183.449	183.56	72	28
183.449	183.56	84	35
183.56	183.674	52	28
183.56	184.016	72	32
183.56	184.016	84	38
183.674	183.788	60	21
183.788	183.902	57	21
183.902	184.016	60	21
184.016	184.131	52	28
184.016	184.498	71	29
184.016	184.498	83	36
184.131	184.25	62	21
184.25	184.373	56	21
184.373	184.498	62	21
184.498	184.613	35	68
184.498	184.613	47	80
184.498	184.613	81	69
184.613	184.728	75	61
184.728	184.838	38	64
184.728	184.838	50	76
184.728	184.838	76	61
184.838	184.949	69	61
184.949	185.398	36	69
184.949	185.398	48	82
184.949	185.061	69	66
185.061	185.173	63	61
185.173	185.286	64	61
185.286	185.398	57	61
185.398	185.51	37	68
185.398	185.51	49	80
185.398	185.51	82	68
185.51	185.621	76	61
185.621	185.73	40	64
185.621	185.73	52	76
185.621	185.73	77	62
185.73	185.839	70	62
185.839	186.281	38	69
185.839	186.281	50	81
185.839	185.949	70	66
185.949	186.06	64	62
186.06	186.171	65	62
186.171	186.281	58	62
186.281	186.392	39	70
186.281	186.392	51	82
186.281	186.392	85	72
186.392	186.503	78	62
186.503	186.61	41	63
186.503	186.61	53	76
186.503	186.61	79	62
186.61	186.717	73	62
186.717	187.158	40	70
186.717	187.158	52	83
186.717	186.827	73	69
186.827	186.938	66	63
186.938	187.048	67	62
187.048	187.158	61	62
187.158	187.266	40	71
187.158	187.266	52	84
187.158	187.266	86	74
187.266	187.375	80	63
187.375	187.479	43	65
187.375	187.479	55	77
187.375	187.479	81	63
187.479	187.583	74	63
187.583	188.029	41	71
187.583	188.029	53	84
187.583	187.695	74	68
187.695	187.806	68	63
187.806	187.918	69	63
187.918	188.029	62	63
188.029	188.137	42	72
188.029	188.137	54	84
188.029	188.137	88	74
188.137	188.246	82	64
188.246	188.351	45	66
188.246	188.351	57	79
188.246	188.351	83	65
188.351	188.456	76	65
188.456	188.9	44	72
188.456	188.9	56	85
188.456	188.567	76	71
188.567	188.678	70	65
188.678	188.789	71	64
188.789	188.9	64	64
188.9	189.011	44	73
188.9	189.011	56	86
188.9	189.011	89	76
189.011	189.122	83	64
189.122	189.23	47	66
189.122	189.23	59	79
189.122	189.23	84	64
189.23	189.338	77	64
189.338	189.803	45	74
189.338	189.803	57	87
189.338	189.45	77	70
189.45	189.561	71	65
189.561	189.686	72	65
189.686	189.803	65	65
189.803	190.629	58	77
189.803	190.629	62	77
189.803	190.629	65	77
189.803	190.628	68	92
189.803	190.008	80	81
189.803	190.008	92	88
190.008	190.111	91	81
190.111	190.215	89	80
190.215	190.318	87	79
190.318	190.421	86	78
190.421	190.525	84	77
190.525	190.629	82	76
190.629	190.733	80	75
190.733	190.837	79	74
190.837	190.941	77	73
190.941	191.045	75	72
191.045	191.15	74	72
191.15	191.254	72	71
191.254	191.359	70	70
191.359	191.464	69	69
191.464	191.569	68	68
191.569	191.675	67	66
191.675	191.781	65	65
191.781	191.887	63	64
191.887	191.993	62	63
191.993	192.1	60	62
192.1	192.207	58	61
192.207	192.314	56	60
192.314	192.421	57	59
192.421	192.529	58	59
192.529	192.637	60	58
192.637	192.745	58	57
192.745	192.854	57	56
192.854	192.963	58	55
192.963	193.072	60	54
193.072	193.182	58	53
193.182	193.329	57	53
193.329	193.477	60	46
193.477	193.627	58	46
193.627	193.779	57	51
193.779	193.933	60	45
193.933	194.088	58	45
194.088	194.248	57	53
194.248	194.416	60	42
194.416	194.592	58	42
194.592	194.778	57	49
194.778	194.976	60	38
194.976	195.245	58	38
195.245	195.545	57	36
195.245	195.545	69	44
195.545	195.836	60	30
195.545	195.836	72	36
195.836	196.428	58	30
195.836	196.428	70	36
196.428	196.719	57	35
196.428	196.719	69	42
196.719	197.01	60	29
196.719	197.01	72	35
197.01	197.614	58	29
197.01	197.614	70	35
197.614	197.766	51	36
197.614	197.919	69	44
197.766	197.919	58	30
197.919	198.066	55	31
197.919	198.213	72	39
198.066	198.213	58	31
198.213	198.356	63	36
198.213	199.07	70	50
198.356	198.498	58	31
198.498	198.641	55	31
198.641	198.784	58	31
198.784	198.927	51	36
198.927	199.07	58	31
199.07	199.21	55	31
199.07	199.35	72	46
199.21	199.35	58	32
199.35	199.49	63	36
199.35	199.631	74	48
199.49	199.631	58	31
199.631	199.778	55	31
199.631	199.926	75	50
199.778	199.926	58	31
199.926	200.073	51	36
199.926	200.22	69	52
200.073	200.22	58	30
200.22	200.362	55	31
200.22	200.505	72	49
200.362	200.505	58	31
200.505	200.647	63	36
200.505	201.358	70	53
200.647	200.789	58	31
200.789	200.931	55	31
200.931	201.073	58	31
201.073	201.216	51	36
201.216	201.358	58	31
201.358	201.498	55	31
201.358	201.638	72	47
201.498	201.638	58	32
201.638	201.778	63	36
201.638	201.918	74	49
201.778	201.918	58	31
201.918	202.066	55	31
201.918	202.214	75	52
202.066	202.214	58	31
202.214	202.367	46	40
202.214	202.52	76	57
202.367	202.52	58	33
202.52	202.662	56	34
202.52	202.805	79	55
202.662	202.805	58	34
202.805	202.947	62	40
202.805	203.658	77	58
202.947	203.089	58	34
203.089	203.231	56	34
203.231	203.373	58	34
203.373	203.515	46	40
203.515	203.658	58	34
203.658	203.798	56	34
203.658	203.938	74	55
203.798	203.938	58	35
203.938	204.078	62	40
203.938	204.218	72	53
204.078	204.218	58	34
204.218	204.366	56	34
204.218	204.514	70	53
204.366	204.514	58	34
204.514	204.661	46	40
204.514	204.808	76	57
204.661	204.808	58	33
204.808	204.95	56	34
204.808	205.092	79	53
204.95	205.092	58	34
205.092	205.235	62	40
205.092	205.946	77	58
205.235	205.377	58	34
205.377	205.519	56	34
205.519	205.661	58	34
205.661	205.803	46	40
205.803	205.946	58	34
205.946	206.086	56	34
205.946	206.226	74	55
206.086	206.226	58	35
206.226	206.364	62	40
206.226	206.502	72	53
206.364	206.502	58	34
206.502	206.65	56	34
206.502	206.798	70	53
206.65	206.798	58	34
206.798	206.951	51	40
206.798	207.104	69	46
206.798	207.104	81	55
206.951	207.104	58	33
207.104	207.246	55	34
207.104	207.388	72	42
207.104	207.388	84	51
207.246	207.388	58	34
207.388	207.531	63	40
207.388	208.242	70	49
207.388	208.242	82	58
207.531	207.673	58	34
207.673	207.815	55	34
207.815	207.957	58	34
207.957	208.099	51	40
208.099	208.242	58	34
208.242	208.382	55	34
208.242	208.522	72	42
208.242	208.522	84	50
208.382	208.522	58	35
208.522	208.662	63	40
208.522	208.802	74	44
208.522	208.802	86	52
208.662	208.802	58	34
208.802	208.95	55	34
208.802	209.098	75	46
208.802	209.098	87	55
208.95	209.098	58	34
209.098	209.245	51	40
209.098	209.392	69	48
209.098	209.392	81	57
209.245	209.392	58	33
209.392	209.534	55	34
209.392	209.676	72	45
209.392	209.676	84	53
209.534	209.676	58	34
209.676	209.819	63	40
209.676	210.538	70	49
209.676	210.538	82	58
209.819	209.961	58	34
209.961	210.103	55	34
210.103	210.245	58	34
210.245	210.391	51	40
210.391	210.538	58	34
210.538	210.678	55	34
210.538	210.818	72	42
210.538	210.818	84	51
210.678	210.818	58	35
210.818	210.956	63	40
210.818	211.095	74	45
210.818	211.095	86	53
210.956	211.095	58	34
211.095	211.242	55	34
211.095	211.39	75	48
211.095	211.39	87	57
211.242	211.39	58	34
211.39	211.537	46	44
211.39	211.684	76	52
211.39	211.684	88	62
211.537	211.684	58	36
211.684	211.827	56	36
211.684	211.969	79	47
211.684	211.969	91	56
211.827	211.969	58	36
211.969	212.111	62	44
211.969	212.822	77	51
211.969	212.822	89	61
212.111	212.253	58	36
212.253	212.395	56	36
212.395	212.537	58	36
212.537	212.68	46	44
212.68	212.822	58	36
212.822	212.962	56	36
212.822	213.102	74	50
212.822	213.102	86	60
212.962	213.102	58	37
213.102	213.242	62	44
213.102	213.383	72	49
213.102	213.383	84	58
213.242	213.383	58	36
213.383	213.537	56	36
213.383	213.692	70	49
213.383	213.692	82	58
213.537	213.692	58	36
213.692	213.839	46	44
213.692	213.986	76	52
213.692	213.986	88	62
213.839	213.986	58	36
213.986	214.128	56	36
213.986	214.27	79	48
213.986	214.27	91	57
214.128	214.27	58	36
214.27	214.412	62	44
214.27	215.123	77	52
214.27	215.123	89	62
214.412	214.555	58	36
214.555	214.697	56	36
214.697	214.839	58	36
214.839	214.981	46	44
214.981	215.123	58	36
215.123	215.264	56	36
215.123	215.404	74	50
215.123	215.404	86	60
215.264	215.404	58	37
215.404	215.544	62	44
215.404	215.684	72	49
215.404	215.684	84	58
215.544	215.684	58	36
215.684	215.832	56	36
215.684	215.98	70	49
215.684	215.98	82	58
215.832	215.98	58	36
215.98	216.138	51	44
215.98	216.296	70	52
215.98	216.296	82	62
216.138	216.296	58	36
216.296	216.438	55	36
216.296	216.58	80	48
216.296	216.58	92	57
216.438	216.58	58	36
216.58	216.722	63	44
216.58	217.441	79	52
216.58	217.441	91	62
216.722	216.864	58	36
216.864	217.006	55	36
217.006	217.149	58	36
217.149	217.295	43	44
217.295	217.441	59	36
217.441	217.581	55	36
217.441	217.722	77	50
217.441	217.722	89	60
217.581	217.722	59	37
217.722	217.862	65	44
217.722	218.002	74	49
217.722	218.002	86	58
217.862	218.002	59	36
218.002	218.15	55	36
218.002	218.298	71	49
218.002	218.298	83	58
218.15	218.298	59	36
218.298	218.448	48	44
218.298	218.598	67	52
218.298	218.598	79	62
218.448	218.598	55	36
218.598	218.74	51	36
218.598	218.882	77	48
218.598	218.882	89	57
218.74	218.882	55	36
218.882	219.024	60	44
218.882	219.743	75	52
218.882	219.743	87	62
219.024	219.166	55	36
219.166	219.309	51	36
219.309	219.451	55	36
219.451	219.597	39	44
219.597	219.743	55	36
219.743	219.884	51	36
219.743	220.024	73	50
219.743	220.024	85	60
219.884	220.024	55	37
220.024	220.164	61	44
220.024	220.304	70	49
220.024	220.304	82	58
220.164	220.304	55	36
220.304	220.452	51	36
220.304	220.6	67	49
220.304	220.6	79	58
220.452	220.6	55	36
220.6	220.75	44	44
220.6	220.9	63	52
220.6	220.9	75	62
220.75	220.9	51	36
220.9	221.042	48	36
220.9	221.184	73	47
220.9	221.184	85	56
221.042	221.184	51	36
221.184	221.326	56	42
221.184	222.059	72	50
221.184	222.059	84	60
221.326	221.468	51	35
221.468	221.611	48	34
221.611	221.753	51	34
221.753	221.906	37	40
221.906	222.059	53	33
222.059	222.199	49	33
222.059	222.339	70	45
222.059	222.339	82	54
222.199	222.339	53	33
222.339	222.48	58	38
222.339	222.62	72	43
222.339	222.62	84	51
222.48	222.62	53	32
222.62	222.768	49	31
222.62	222.915	73	42
222.62	222.915	85	50
222.768	222.915	53	31
222.915	223.065	39	36
222.915	223.215	63	44
222.915	223.215	75	52
223.065	223.215	51	30
223.215	223.357	48	30
223.215	223.5	70	40
223.215	223.5	82	47
223.357	223.5	51	30
223.5	223.642	56	36
223.5	224.361	68	42
223.5	224.361	80	50
223.642	223.784	51	29
223.784	223.926	48	28
223.926	224.068	51	28
224.068	224.215	39	34
224.215	224.361	51	27
224.361	224.504	49	27
224.361	224.647	67	38
224.361	224.647	79	45
224.504	224.647	51	27
224.647	224.792	58	32
224.647	224.937	68	36
224.647	224.937	80	42
224.792	224.937	51	26
224.937	225.094	49	26
224.937	225.251	70	35
224.937	225.251	82	41
225.094	225.251	51	26
225.251	225.398	56	26
225.251	225.545	74	44
225.398	225.545	63	25
225.545	225.687	60	26
225.545	225.829	77	40
225.687	225.829	63	26
225.829	225.971	68	29
225.829	226.619	75	46
225.971	226.114	63	26
226.114	226.256	60	26
226.256	226.399	63	26
226.399	226.546	56	29
226.546	226.693	63	26
226.619	226.693	72	41
226.693	226.836	60	26
226.693	226.907	87	55
226.836	226.979	63	26
226.907	226.979	70	38
226.979	227.121	67	29
226.979	227.193	85	52
227.121	227.264	63	26
227.193	227.264	68	38
227.264	227.412	68	26
227.264	227.56	84	52
227.412	227.56	63	26
227.56	227.707	56	29
227.56	227.854	74	44
227.707	227.854	63	25
227.854	227.996	60	26
227.854	228.138	77	40
227.996	228.138	63	26
228.138	228.281	68	29
228.138	228.925	75	46
228.281	228.423	63	26
228.423	228.565	60	26
228.565	228.708	63	26
228.708	228.853	56	29
228.853	228.997	63	26
228.925	228.997	72	41
228.997	229.138	60	26
228.997	229.208	87	55
229.138	229.278	63	26
229.208	229.278	70	38
229.278	229.418	67	29
229.278	229.488	85	52
229.418	229.558	63	26
229.488	229.558	68	38
229.558	229.706	68	26
229.558	229.854	84	52
229.706	229.854	63	26
229.854	230.001	51	31
229.854	230.148	69	44
230.001	230.148	63	26
230.148	230.29	61	27
230.148	230.432	72	40
230.29	230.432	63	27
230.432	230.574	67	31
230.432	231.236	70	46
230.574	230.717	63	27
230.717	230.859	61	27
230.859	231.002	63	27
231.002	231.158	51	31
231.158	231.236	63	27
231.236	231.314	63	41
231.314	231.457	65	27
231.314	231.529	79	55
231.457	231.6	63	27
231.529	231.6	65	38
231.6	231.743	62	31
231.6	231.814	80	52
231.743	231.886	63	27
231.814	231.886	67	38
231.886	232.034	61	27
231.886	232.181	82	52
232.034	232.181	63	27
232.181	232.328	51	31
232.181	232.476	69	44
232.328	232.476	63	26
232.476	232.618	61	27
232.476	232.76	72	40
232.618	232.76	63	27
232.76	232.902	67	31
232.76	233.554	70	46
232.902	233.044	63	27
233.044	233.186	61	27
233.186	233.329	63	27
233.329	233.479	51	31
233.479	233.554	63	27
233.554	233.629	63	41
233.629	233.776	65	27
233.629	233.85	79	55
233.776	233.924	63	27
233.85	233.924	65	38
233.924	234.072	62	31
233.924	234.146	80	52
234.072	234.22	63	27
234.146	234.22	67	38
234.22	234.374	61	27
234.22	234.529	82	52
234.374	234.529	63	27
234.529	234.687	56	46
234.529	234.687	63	49
234.529	234.845	75	58
234.687	234.845	63	38
234.845	234.987	60	38
234.845	235.129	73	45
234.845	235.129	85	54
234.987	235.129	63	38
235.129	235.271	68	46
235.129	235.991	72	49
235.129	235.991	84	58
235.271	235.414	63	38
235.414	235.556	60	38
235.556	235.698	63	38
235.698	235.844	48	46
235.844	235.991	60	38
235.991	236.131	55	38
235.991	236.271	70	47
235.991	236.271	82	57
236.131	236.271	60	39
236.271	236.411	64	46
236.271	236.551	67	46
236.271	236.551	79	55
236.411	236.551	60	38
236.551	236.699	55	38
236.551	236.847	64	46
236.551	236.847	76	55
236.699	236.847	60	38
236.847	236.997	53	46
236.847	237.147	72	49
236.847	237.147	84	58
236.997	237.147	60	38
237.147	237.289	56	38
237.147	237.431	82	45
237.147	237.431	94	54
237.289	237.431	60	38
237.431	237.574	65	46
237.431	238.293	80	49
237.431	238.293	92	58
237.574	237.716	60	38
237.716	237.858	56	38
237.858	238.0	60	38
238.0	238.146	44	46
238.146	238.293	56	38
238.293	238.433	51	38
238.293	238.573	78	47
238.293	238.573	90	57
238.433	238.573	56	39
238.573	238.713	60	46
238.573	238.853	75	46
238.573	238.853	87	55
238.713	238.853	56	38
238.853	239.008	51	38
238.853	239.163	72	46
238.853	239.163	84	55
239.008	239.163	56	38
239.163	239.313	49	49
239.163	239.463	68	52
239.163	239.463	80	62
239.313	239.463	56	40
239.463	239.605	53	40
239.463	239.747	78	47
239.463	239.747	90	56
239.605	239.747	56	40
239.747	239.889	61	47
239.747	240.609	77	50
239.747	240.609	89	60
239.889	240.032	56	39
240.032	240.174	53	38
240.174	240.316	56	38
240.316	240.462	42	45
240.462	240.609	58	37
240.609	240.751	54	37
240.609	240.894	75	45
240.609	240.894	87	54
240.751	240.894	58	37
240.894	241.037	63	43
240.894	241.18	77	43
240.894	241.18	89	51
241.037	241.18	58	36
241.18	241.328	54	35
241.18	241.476	78	42
241.18	241.476	90	50
241.328	241.476	58	35
241.476	241.626	44	41
241.476	241.776	68	44
241.476	241.776	80	52
241.626	241.776	56	34
241.776	241.918	53	34
241.776	242.06	75	40
241.776	242.06	87	47
241.918	242.06	56	34
242.06	242.202	61	40
242.06	242.941	73	42
242.06	242.941	85	50
242.202	242.344	56	33
242.344	242.486	53	32
242.486	242.629	56	32
242.629	242.785	44	38
242.785	242.941	56	31
242.941	243.088	54	31
242.941	243.235	72	38
242.941	243.235	84	45
243.088	243.235	56	31
243.235	243.382	63	36
243.235	243.529	73	36
243.235	243.529	85	42
243.382	243.529	56	29
243.529	243.677	54	29
243.529	243.825	75	35
243.529	243.825	87	41
243.677	243.825	56	29
243.825	244.221	49	57
243.825	244.221	53	57
243.825	244.221	56	57
243.825	244.221	61	67
243.825	244.221	77	77
243.825	244.221	80	77
243.825	244.221	85	77
243.825	244.221	89	92
244.221	244.318	49	51
244.221	244.318	53	51
244.221	244.318	56	51
244.221	244.318	61	61
244.221	244.318	77	73
244.221	244.318	80	73
244.221	244.318	85	73
244.221	244.318	89	87
244.414	244.511	49	51
244.414	244.511	53	51
244.414	244.511	56	51
244.414	244.511	61	61
244.414	244.511	77	73
244.414	244.511	80	73
244.414	244.511	85	73
244.414	244.511	89	87
244.607	245.003	49	58
244.607	245.003	53	58
244.607	245.003	56	58
244.607	245.003	61	69
244.607	245.003	77	77
244.607	245.003	80	77
244.607	245.003	85	77
244.607	245.003	89	92
245.003	245.1	49	52
245.003	245.1	56	52
245.003	245.1	61	63
245.003	245.1	77	72
245.003	245.1	80	72
245.003	245.1	85	72
245.003	245.1	89	86
245.008	245.105	53	52
245.197	245.293	49	52
245.197	245.293	53	52
245.197	245.293	56	52
245.197	245.293	61	63
245.197	245.293	77	72
245.197	245.293	80	72
245.197	245.293	85	72
245.197	245.293	89	86
245.39	245.538	49	58
245.39	245.538	53	58
245.39	245.538	56	58
245.39	245.538	61	69
245.39	245.538	77	77
245.39	245.538	80	77
245.39	245.538	85	77
245.39	245.538	89	92
245.587	245.682	61	52
245.587	245.682	89	70
245.682	245.777	56	54
245.682	245.777	85	72
245.777	245.872	53	56
245.777	245.872	80	73
245.872	245.967	49	58
245.872	245.967	77	75
245.967	246.063	44	59
245.967	246.063	73	77
246.063	246.158	41	61
246.063	246.158	68	78
246.158	246.253	37	62
246.158	246.253	65	81
246.253	246.348	32	61
246.253	246.348	61	80
246.348	246.444	37	60
246.348	246.444	65	79
246.444	246.54	41	59
246.444	246.54	68	78
246.54	246.636	44	58
246.54	246.636	73	78
246.636	246.732	49	57
246.636	246.732	77	77
246.732	246.837	53	57
246.732	246.837	80	76
246.837	246.991	56	56
246.837	246.991	85	75
246.991	247.387	46	57
246.991	247.387	49	57
246.991	247.387	53	57
246.991	247.387	58	67
246.991	247.387	77	77
246.991	247.387	82	77
246.991	247.387	85	77
246.991	247.387	89	92
247.387	247.483	46	51
247.387	247.483	49	51
247.387	247.483	53	51
247.387	247.483	58	61
247.387	247.483	77	73
247.387	247.483	82	73
247.387	247.483	85	73
247.387	247.483	89	87
247.58	247.676	46	51
247.58	247.676	49	51
247.58	247.676	53	51
247.58	247.676	58	61
247.58	247.676	77	73
247.58	247.676	82	73
247.58	247.676	85	73
247.58	247.676	89	87
247.773	248.169	46	58
247.773	248.169	49	58
247.773	248.169	53	58
247.773	248.169	58	69
247.773	248.169	77	77
247.773	248.169	82	77
247.773	248.169	85	77
247.773	248.169	89	92
248.169	248.266	46	52
248.169	248.266	49	52
248.169	248.266	58	63
248.169	248.266	77	72
248.169	248.266	82	72
248.169	248.266	85	72
248.169	248.266	89	86
248.174	248.27	53	52
248.362	248.459	46	52
248.362	248.459	49	52
248.362	248.459	53	52
248.362	248.459	58	63
248.362	248.459	77	72
248.362	248.459	82	72
248.362	248.459	85	72
248.362	248.459	89	86
248.555	248.703	46	58
248.555	248.703	49	58
248.555	248.703	53	58
248.555	248.703	58	69
248.555	248.703	77	77
248.555	248.703	82	77
248.555	248.703	85	77
248.555	248.703	89	92
248.753	248.848	61	53
248.753	248.848	89	71
248.848	248.943	58	55
248.848	248.943	85	72
248.943	249.038	53	57
248.943	249.038	82	73
249.038	249.133	49	58
249.038	249.133	77	74
249.133	249.228	46	60
249.133	249.228	73	75
249.228	249.323	41	62
249.228	249.323	70	75
249.323	249.418	37	64
249.323	249.418	65	76
249.418	249.514	34	64
249.418	249.514	61	77
249.514	249.609	37	63
249.514	249.609	65	76
249.609	249.705	41	62
249.609	249.705	70	75
249.705	249.801	46	61
249.705	249.801	73	74
249.801	249.898	49	60
249.801	249.898	77	73
249.898	250.004	53	59
249.898	250.004	82	73
250.004	250.153	58	60
250.004	250.153	85	72
250.153	250.55	54	51
250.153	250.55	58	51
250.153	250.55	61	59
250.153	250.55	78	69
250.153	250.55	82	69
250.153	250.55	85	69
250.153	250.55	90	82
250.55	250.646	54	46
250.55	250.646	58	46
250.55	250.646	61	55
250.55	250.646	78	66
250.55	250.646	82	66
250.55	250.646	85	66
250.55	250.646	90	77
250.743	250.839	54	46
250.743	250.839	58	46
250.743	250.839	61	55
250.743	250.839	78	66
250.743	250.839	82	66
250.743	250.839	85	66
250.743	250.839	90	77
250.936	251.332	50	57
250.936	251.332	54	57
250.936	251.332	57	57
250.936	251.332	62	67
250.936	251.332	78	75
250.936	251.332	81	75
250.936	251.332	86	75
250.936	251.332	90	90
251.332	251.429	50	51
251.332	251.429	57	51
251.332	251.429	62	61
251.332	251.429	78	71
251.332	251.429	81	71
251.332	251.429	86	71
251.332	251.429	90	84
251.337	251.433	54	51
251.525	251.622	50	51
251.525	251.622	54	51
251.525	251.622	57	51
251.525	251.622	62	61
251.525	251.622	78	71
251.525	251.622	81	71
251.525	251.622	86	71
251.525	251.622	90	84
251.718	251.866	48	57
251.718	251.866	51	57
251.718	251.866	56	57
251.718	251.866	60	67
251.718	251.866	78	75
251.718	251.866	80	75
251.718	251.866	87	75
251.718	251.866	90	90
251.916	252.011	63	47
251.916	252.011	78	60
252.011	252.106	61	48
252.011	252.106	77	62
252.106	252.201	60	50
252.106	252.201	75	63
252.201	252.296	61	51
252.201	252.296	77	64
252.296	252.391	60	52
252.296	252.391	75	66
252.391	252.486	58	54
252.391	252.486	73	67
252.486	252.581	56	55
252.486	252.581	72	70
252.581	252.677	58	53
252.581	252.677	73	70
252.677	252.772	56	52
252.677	252.772	72	69
252.772	252.868	58	52
252.772	252.868	73	68
252.868	252.964	60	51
252.868	252.964	75	67
252.964	253.061	61	51
252.964	253.061	77	66
253.061	253.167	63	50
253.061	253.167	78	65
253.167	253.316	65	50
253.167	253.316	80	64
253.316	253.712	54	51
253.316	253.712	58	51
253.316	253.712	61	59
253.316	253.712	78	69
253.316	253.712	82	69
253.316	253.712	85	69
253.316	253.712	90	82
253.712	253.809	54	46
253.712	253.809	58	46
253.712	253.809	61	55
253.712	253.809	78	66
253.712	253.809	82	66
253.712	253.809	85	66
253.712	253.809	90	77
253.906	254.002	54	46
253.906	254.002	58	46
253.906	254.002	61	55
253.906	254.002	78	66
253.906	254.002	82	66
253.906	254.002	85	66
253.906	254.002	90	77
254.099	254.495	50	57
254.099	254.495	54	57
254.099	254.495	57	57
254.099	254.495	62	67
254.099	254.495	78	75
254.099	254.495	81	75
254.099	254.495	86	75
254.099	254.495	90	90
254.495	254.591	50	51
254.495	254.591	57	51
254.495	254.591	62	61
254.495	254.591	78	71
254.495	254.591	81	71
254.495	254.591	86	71
254.495	254.591	90	84
254.5	254.596	54	51
254.688	254.785	50	51
254.688	254.785	54	51
254.688	254.785	57	51
254.688	254.785	62	61
254.688	254.785	78	71
254.688	254.785	81	71
254.688	254.785	86	71
254.688	254.785	90	84
254.881	255.029	48	57
254.881	255.029	51	57
254.881	255.029	56	57
254.881	255.029	60	67
254.881	255.029	78	75
254.881	255.029	80	75
254.881	255.029	87	75
254.881	255.029	90	90
255.078	255.174	63	47
255.078	255.174	78	61
255.174	255.269	61	48
255.174	255.269	77	62
255.269	255.364	60	50
255.269	255.364	75	63
255.364	255.459	61	51
255.364	255.459	77	64
255.459	255.554	60	51
255.459	255.554	75	65
255.554	255.649	58	53
255.554	255.649	73	67
255.649	255.744	56	55
255.649	255.744	72	68
255.744	255.839	58	55
255.744	255.839	73	68
255.839	255.935	56	53
255.839	255.935	72	68
255.935	256.031	58	52
255.935	256.031	73	67
256.031	256.127	60	50
256.031	256.127	75	66
256.127	256.224	61	49
256.127	256.224	77	66
256.224	256.33	63	48
256.224	256.33	78	65
256.33	256.479	65	47
256.33	256.479	80	65
256.479	256.875	54	55
256.479	256.875	57	55
256.479	256.875	61	55
256.479	256.875	66	66
256.479	256.875	69	68
256.479	256.875	73	68
256.479	256.875	78	68
256.479	256.875	81	80
256.875	256.972	54	38
256.875	256.972	57	38
256.875	256.972	61	38
256.875	256.972	66	55
256.875	256.972	69	63
256.875	256.972	73	63
256.875	256.972	78	63
256.875	256.972	81	74
257.068	257.165	54	46
257.068	257.165	57	46
257.068	257.165	61	46
257.068	257.165	66	54
257.068	257.165	69	63
257.068	257.165	73	63
257.068	257.165	78	63
257.068	257.165	81	74
257.262	257.658	50	51
257.262	257.658	54	51
257.262	257.658	57	51
257.262	257.658	62	60
257.262	257.658	74	69
257.262	257.658	78	69
257.262	257.658	81	69
257.262	257.658	86	81
257.658	257.754	50	47
257.658	257.754	54	47
257.658	257.754	57	47
257.658	257.754	62	56
257.658	257.754	74	65
257.658	257.754	78	65
257.658	257.754	81	65
257.658	257.754	86	76
257.851	257.947	50	48
257.851	257.947	54	48
257.851	257.947	57	48
257.851	257.947	62	57
257.851	257.947	74	65
257.851	257.947	78	65
257.851	257.947	81	65
257.851	257.947	86	77
258.044	258.44	52	54
258.044	258.44	55	54
258.044	258.44	59	54
258.044	258.44	64	65
258.044	258.44	71	58
258.044	258.44	79	58
258.044	258.44	83	82
258.44	258.826	48	47
258.44	258.826	52	47
258.44	258.826	57	47
258.44	258.826	60	56
258.44	258.826	72	64
258.44	258.826	76	64
258.44	258.826	81	64
258.44	258.826	84	75
258.826	259.222	50	53
258.826	259.222	57	53
258.826	259.222	62	63
258.826	259.222	69	68
258.826	259.222	74	68
258.826	259.222	79	68
258.826	259.222	81	80
259.222	259.615	38	51
259.222	259.615	50	61
259.222	259.615	74	70
259.222	259.615	78	70
259.222	259.615	81	70
259.222	259.615	86	82
259.615	260.024	40	52
259.615	260.024	52	61
259.615	260.024	71	69
259.615	260.024	79	69
259.615	260.024	83	81
260.024	260.42	48	47
260.024	260.42	52	47
260.024	260.42	57	47
260.024	260.42	60	55
260.024	260.42	72	65
260.024	260.42	76	65
260.024	260.42	81	77
260.024	260.42	84	77
260.42	260.831	50	54
260.42	260.831	57	54
260.42	260.831	62	65
260.42	260.831	69	72
260.42	260.831	74	72
260.42	260.831	79	72
260.42	260.831	81	85
260.831	261.252	38	57
260.831	261.252	50	68
260.831	261.252	74	75
260.831	261.252	78	75
260.831	261.252	81	75
260.831	261.252	86	88
261.252	261.354	43	61
261.252	261.659	67	74
261.252	261.659	71	74
261.252	261.659	79	88
261.354	261.456	45	57
261.456	261.557	43	57
261.557	261.659	45	57
261.659	261.758	47	61
261.659	261.758	67	67
261.659	261.758	71	67
261.659	261.758	79	80
261.758	261.857	48	57
261.857	261.956	47	57
261.857	261.956	67	67
261.857	261.956	71	67
261.857	261.956	79	80
261.956	262.055	48	57
262.055	262.156	50	63
262.055	262.459	67	72
262.055	262.459	71	72
262.055	262.459	79	86
262.156	262.257	51	57
262.257	262.358	50	57
262.358	262.459	51	57
262.459	262.558	53	61
262.459	262.558	67	67
262.459	262.558	71	67
262.459	262.558	79	80
262.558	262.656	55	57
262.656	262.755	53	57
262.656	262.755	67	67
262.656	262.755	71	67
262.656	262.755	79	80
262.755	262.854	55	57
262.854	263.68	44	67
262.854	263.68	56	67
262.854	263.262	67	73
262.854	263.262	72	73
262.854	263.262	79	87
263.262	263.68	65	67
263.262	263.68	72	67
263.262	263.68	77	80
263.68	264.493	32	66
263.68	264.493	44	66
263.68	263.884	77	70
263.68	263.884	84	70
263.68	263.884	89	84
263.884	263.982	65	58
263.884	263.982	72	58
263.884	263.982	77	70
263.982	264.08	65	58
263.982	264.08	72	58
263.982	264.08	77	70
264.08	264.286	65	65
264.08	264.286	72	65
264.08	264.286	77	77
264.286	264.493	65	64
264.286	264.493	72	64
264.286	264.493	77	75
264.493	264.594	41	61
264.493	264.899	68	74
264.493	264.899	72	74
264.493	264.899	77	88
264.594	264.696	43	57
264.696	264.798	41	57
264.798	264.899	43	57
264.899	264.998	44	61
264.899	264.998	68	67
264.899	264.998	72	67
264.899	264.998	77	80
264.998	265.097	46	57
265.097	265.196	44	57
265.097	265.196	68	67
265.097	265.196	72	67
265.097	265.196	77	80
265.196	265.295	46	57
265.295	265.396	48	63
265.295	265.699	68	72
265.295	265.699	72	72
265.295	265.699	77	86
265.396	265.497	50	57
265.497	265.598	48	57
265.598	265.699	50	57
265.699	265.798	51	61
265.699	265.798	68	67
265.699	265.798	72	67
265.699	265.798	77	80
265.798	265.897	53	57
265.897	265.995	51	57
265.897	265.995	68	67
265.897	265.995	72	67
265.897	265.995	77	80
265.995	266.094	53	57
266.094	266.9	43	67
266.094	266.9	55	67
266.094	266.502	67	73
266.094	266.502	70	73
266.094	266.502	77	87
266.502	266.9	67	67
266.502	266.9	70	67
266.502	266.9	75	80
266.9	267.712	31	66
266.9	267.712	43	66
266.9	267.104	75	73
266.9	267.104	82	73
266.9	267.104	87	88
267.104	267.202	63	58
267.104	267.202	70	58
267.104	267.202	75	70
267.202	267.3	63	58
267.202	267.3	70	58
267.202	267.3	75	70
267.3	267.506	63	65
267.3	267.506	70	65
267.3	267.506	75	77
267.506	267.712	63	64
267.506	267.712	70	64
267.506	267.712	75	75
267.712	267.814	39	61
267.712	268.119	67	74
267.712	268.119	70	74
267.712	268.119	75	88
267.814	267.916	41	57
267.916	268.017	39	57
268.017	268.119	41	57
268.119	268.218	43	61
268.119	268.218	67	67
268.119	268.218	70	67
268.119	268.218	75	80
268.218	268.317	44	57
268.317	268.416	43	57
268.317	268.416	67	67
268.317	268.416	70	67
268.317	268.416	75	80
268.416	268.515	44	57
268.515	268.616	46	63
268.515	268.919	67	72
268.515	268.919	70	72
268.515	268.919	75	86
268.616	268.717	48	57
268.717	268.818	46	57
268.818	268.919	48	57
268.919	269.018	50	61
268.919	269.018	67	67
268.919	269.018	70	67
268.919	269.018	75	80
269.018	269.116	51	57
269.116	269.215	50	57
269.116	269.215	67	67
269.116	269.215	70	67
269.116	269.215	75	80
269.215	269.314	51	57
269.314	270.14	41	67
269.314	270.14	53	67
269.314	269.722	65	73
269.314	269.722	68	73
269.314	269.722	75	87
269.722	270.14	65	67
269.722	270.14	68	67
269.722	270.14	73	80
270.14	270.953	29	66
270.14	270.953	41	66
270.14	270.344	73	73
270.14	270.344	80	73
270.14	270.344	85	88
270.344	270.442	61	58
270.344	270.442	68	58
270.344	270.442	73	70
270.442	270.54	61	58
270.442	270.54	68	58
270.442	270.54	73	70
270.54	270.746	61	65
270.54	270.746	68	65
270.54	270.746	73	77
270.746	270.953	61	64
270.746	270.953	68	64
270.746	270.953	73	75
270.953	271.765	39	67
270.953	271.765	51	67
270.953	271.361	61	73
270.953	271.361	67	73
270.953	271.361	73	87
271.361	271.765	60	67
271.361	271.765	67	67
271.361	271.765	72	80
271.765	272.577	27	66
271.765	272.577	39	66
271.765	271.969	72	73
271.765	271.969	79	73
271.765	271.969	84	88
271.969	272.067	60	58
271.969	272.067	67	58
271.969	272.067	72	70
272.067	272.165	60	58
272.067	272.165	67	58
272.067	272.165	72	70
272.165	272.371	60	65
272.165	272.371	67	65
272.165	272.371	72	77
272.371	272.577	60	64
272.371	272.577	67	64
272.371	272.577	72	75
272.577	272.875	49	67
272.577	272.975	60	73
272.577	272.875	61	67
272.577	272.975	65	73
272.577	272.975	72	87
272.875	272.975	37	60
272.875	272.975	49	60
272.975	273.393	37	67
272.975	273.393	49	67
272.975	273.393	58	67
272.975	273.393	65	67
272.975	273.393	70	80
273.393	273.692	48	70
273.393	273.692	60	70
273.393	273.791	70	76
273.393	273.791	75	76
273.393	273.791	82	90
273.692	273.791	36	63
273.692	273.791	48	63
273.791	274.21	36	70
273.791	274.21	48	70
273.791	274.21	68	70
273.791	274.21	75	70
273.791	274.21	80	84
274.21	274.516	46	70
274.21	274.618	56	76
274.21	274.516	58	70
274.21	274.618	62	76
274.21	274.618	68	90
274.516	274.618	34	63
274.516	274.618	46	63
274.618	275.053	34	70
274.618	275.053	46	70
274.618	275.053	55	70
274.618	275.053	62	70
274.618	275.053	67	84
275.053	275.364	44	73
275.053	275.364	56	73
275.053	275.468	67	80
275.053	275.468	72	80
275.053	275.468	79	94
275.364	275.468	32	65
275.364	275.468	44	65
275.468	275.898	32	73
275.468	275.898	44	73
275.468	275.898	66	73
275.468	275.898	72	73
275.468	275.898	78	87
275.898	276.338	31	75
275.898	276.338	43	75
275.898	276.009	67	73
275.898	276.009	79	73
276.009	276.119	81	74
276.119	276.229	79	75
276.229	276.338	81	76
276.338	276.447	55	70
276.338	276.447	67	70
276.338	276.447	83	77
276.447	276.555	84	78
276.555	276.662	55	70
276.555	276.662	67	70
276.555	276.662	83	79
276.662	276.769	84	80
276.769	277.196	55	73
276.769	277.196	67	73
276.769	276.876	86	81
276.876	276.983	87	82
276.983	277.089	86	84
277.089	277.196	87	85
277.196	277.303	55	70
277.196	277.303	67	70
277.196	277.303	89	86
277.303	277.41	91	87
277.41	277.836	55	70
277.41	277.836	67	70
277.41	277.516	89	88
277.516	277.623	91	89
277.623	278.469	80	90
277.623	278.469	92	90
277.836	277.914	53	70
277.836	277.914	65	70
277.94	278.018	52	70
277.94	278.018	64	70
278.044	278.148	53	73
278.044	278.148	65	73
278.253	278.413	41	67
278.253	278.413	53	67
278.469	278.631	44	68
278.469	278.631	56	68
278.469	279.308	68	77
278.469	279.308	80	77
278.683	278.839	48	68
278.683	278.839	60	68
278.892	279.048	50	68
278.892	279.048	62	68
279.1	279.256	52	68
279.1	279.256	64	68
279.308	279.749	53	75
279.308	279.749	65	75
279.308	279.419	77	73
279.419	279.53	79	74
279.53	279.639	77	75
279.639	279.749	79	76
279.749	279.857	53	70
279.749	279.857	65	70
279.749	279.857	80	77
279.857	279.965	82	78
279.965	280.073	53	70
279.965	280.073	65	70
279.965	280.073	80	79
280.073	280.179	82	80
280.179	280.607	53	73
280.179	280.607	65	73
280.179	280.286	84	81
280.286	280.393	86	82
280.393	280.5	84	84
280.5	280.607	86	85
280.607	280.713	53	70
280.607	280.713	65	70
280.607	280.713	87	86
280.713	280.82	89	87
280.82	281.246	53	70
280.82	281.246	65	70
280.82	280.927	87	88
280.927	281.034	89	89
281.034	281.879	79	90
281.034	281.879	91	90
281.246	281.325	51	70
281.246	281.325	63	70
281.351	281.429	50	70
281.351	281.429	62	70
281.455	281.559	51	73
281.455	281.559	63	73
281.663	281.823	39	67
281.663	281.823	51	67
281.879	282.042	43	68
281.879	282.042	55	68
281.879	282.719	67	77
281.879	282.719	79	77
282.094	282.25	46	68
282.094	282.25	58	68
282.302	282.458	48	68
282.302	282.458	60	68
282.51	282.667	50	68
282.51	282.667	62	68
282.719	283.159	51	75
282.719	283.159	63	75
282.719	282.83	75	73
282.83	282.94	77	74
282.94	283.05	75	75
283.05	283.159	77	76
283.159	283.268	51	70
283.159	283.268	63	70
283.159	283.268	79	77
283.268	283.376	80	78
283.376	283.483	51	70
283.376	283.483	63	70
283.376	283.483	79	79
283.483	283.59	80	80
283.59	284.017	51	73
283.59	284.017	63	73
283.59	283.697	82	81
283.697	283.803	84	82
283.803	283.91	82	84
283.91	284.017	84	85
284.017	284.124	51	70
284.017	284.124	63	70
284.017	284.124	86	86
284.124	284.23	87	87
284.23	284.657	51	70
284.23	284.657	63	70
284.23	284.337	86	88
284.337	284.444	87	89
284.444	285.29	77	90
284.444	285.29	89	90
284.657	284.735	49	70
284.657	284.735	61	70
284.761	284.839	48	70
284.761	284.839	60	70
284.865	284.969	49	73
284.865	284.969	61	73
285.073	285.234	49	67
285.073	285.234	61	67
285.29	285.452	44	68
285.29	285.452	56	68
285.29	286.129	65	77
285.29	286.129	77	77
285.504	285.66	41	68
285.504	285.66	53	68
285.712	285.869	44	68
285.712	285.869	56	68
285.921	286.342	49	68
285.921	286.342	61	68
286.129	286.975	75	90
286.129	286.975	87	90
286.342	286.42	48	70
286.342	286.42	60	70
286.446	286.524	47	70
286.446	286.524	59	70
286.55	286.654	48	73
286.55	286.654	60	73
286.758	286.919	48	67
286.758	286.919	60	67
286.975	287.137	43	68
286.975	287.137	55	68
286.975	287.814	63	77
286.975	287.814	75	77
287.189	287.345	39	68
287.189	287.345	51	68
287.397	287.554	43	68
287.397	287.554	55	68
287.606	288.022	48	68
287.606	288.022	60	68
287.814	288.126	73	76
287.814	288.126	85	90
288.022	288.1	46	52
288.022	288.1	58	61
288.126	288.204	45	53
288.126	288.204	57	63
288.126	288.23	61	67
288.126	288.23	73	79
288.23	288.334	46	58
288.23	288.334	58	69
288.23	288.654	61	67
288.23	288.654	73	79
288.438	288.598	34	51
288.438	288.598	46	60
288.654	288.758	46	68
288.654	288.758	58	68
288.654	288.966	72	76
288.654	288.966	84	90
288.862	288.94	44	52
288.862	288.94	56	61
288.966	289.044	43	53
288.966	289.044	55	63
288.966	289.07	60	67
288.966	289.07	72	79
289.07	289.175	44	58
289.07	289.175	56	69
289.07	289.495	60	67
289.07	289.495	72	79
289.279	289.439	32	51
289.279	289.439	44	60
289.495	289.599	44	68
289.495	289.599	56	68
289.495	289.807	70	76
289.495	289.807	82	90
289.703	289.781	43	52
289.703	289.781	55	61
289.807	289.885	42	53
289.807	289.885	54	63
289.807	289.911	58	67
289.807	289.911	70	79
289.911	290.016	43	58
289.911	290.016	55	69
289.911	290.336	58	67
289.911	290.336	70	79
290.12	290.28	31	51
290.12	290.28	43	60
290.336	290.444	43	68
290.336	290.444	55	68
290.336	290.66	68	76
290.336	290.66	72	76
290.336	290.66	75	76
290.336	290.66	80	90
290.552	290.633	41	52
290.552	290.633	53	61
290.66	290.741	40	53
290.66	290.741	52	63
290.66	290.768	56	67
290.66	290.768	60	67
290.66	290.768	63	67
290.66	290.768	68	79
290.768	290.877	41	58
290.768	290.877	53	69
290.768	291.214	56	67
290.768	291.214	60	67
290.768	291.214	63	67
290.768	291.214	68	79
290.987	291.101	42	64
290.987	291.101	54	68
291.214	291.666	43	58
291.214	291.666	47	58
291.214	291.666	50	58
291.214	291.666	55	69
291.214	291.666	59	73
291.214	291.666	62	73
291.214	291.666	67	87
291.666	291.884	43	55
291.666	291.884	47	55
291.666	291.884	50	55
291.666	291.884	55	66
291.666	291.748	62	66
291.666	291.748	74	78
291.775	291.857	63	68
291.775	291.857	75	80
291.884	292.1	43	55
291.884	292.1	47	55
291.884	292.1	50	55
291.884	292.1	55	66
291.884	291.965	65	70
291.884	291.965	77	82
291.992	292.073	67	72
291.992	292.073	79	86
292.1	292.541	36	58
292.1	292.541	39	58
292.1	292.541	44	58
292.1	292.541	48	69
292.1	292.541	68	74
292.1	292.541	80	88
292.541	292.624	36	57
292.541	292.624	48	68
292.541	292.763	72	68
292.541	292.763	75	68
292.541	292.763	80	80
292.652	292.735	38	60
292.652	292.735	50	72
292.763	292.846	39	63
292.763	292.846	51	75
292.763	292.992	72	66
292.763	292.992	75	66
292.763	292.992	80	78
292.873	292.962	41	67
292.873	292.962	53	78
292.992	293.445	43	58
292.992	293.445	55	69
292.992	293.445	71	73
292.992	293.445	74	73
292.992	293.445	79	87
293.445	293.664	55	55
293.445	293.664	59	55
293.445	293.664	62	55
293.445	293.664	67	66
293.445	293.528	74	66
293.445	293.528	86	78
293.555	293.637	75	68
293.555	293.637	87	80
293.664	293.879	55	55
293.664	293.879	59	55
293.664	293.879	62	55
293.664	293.879	67	66
293.664	293.745	77	70
293.664	293.745	89	82
293.772	293.853	79	72
293.772	293.853	91	86
293.879	294.32	48	58
293.879	294.32	51	58
293.879	294.32	56	58
293.879	294.32	60	69
293.879	294.32	80	74
293.879	294.32	92	88
294.32	294.404	48	57
294.32	294.404	60	68
294.32	294.543	84	68
294.32	294.543	87	68
294.32	294.543	92	80
294.432	294.515	50	60
294.432	294.515	62	72
294.543	294.625	51	63
294.543	294.625	63	75
294.543	294.77	84	66
294.543	294.77	87	66
294.543	294.77	92	78
294.653	294.741	53	67
294.653	294.741	65	78
294.77	295.23	55	55
294.77	295.23	59	55
294.77	295.23	62	55
294.77	295.23	67	66
294.77	294.856	74	66
294.77	294.856	86	78
294.884	294.968	75	68
294.884	294.968	87	80
294.996	295.08	77	70
294.996	295.08	89	82
295.107	295.2	79	72
295.107	295.2	91	86
295.23	295.316	48	57
295.23	295.316	60	68
295.23	295.69	80	74
295.23	295.69	84	74
295.23	295.69	87	74
295.23	295.69	92	88
295.344	295.429	50	60
295.344	295.429	62	72
295.457	295.541	51	63
295.457	295.541	63	75
295.569	295.66	53	67
295.569	295.66	65	78
295.69	296.147	55	55
295.69	296.147	59	55
295.69	296.147	62	55
295.69	296.147	67	66
295.69	295.775	74	66
295.69	295.775	86	78
295.803	295.887	75	68
295.803	295.887	87	80
295.915	295.998	77	70
295.915	295.998	89	82
296.026	296.117	79	72
296.026	296.117	91	86
296.147	296.232	48	57
296.147	296.232	60	68
296.147	296.605	80	74
296.147	296.605	84	74
296.147	296.605	87	74
296.147	296.605	92	88
296.26	296.344	50	60
296.26	296.344	62	72
296.372	296.455	51	63
296.372	296.455	63	75
296.483	296.574	53	67
296.483	296.574	65	78
296.605	297.066	55	55
296.605	297.066	59	55
296.605	297.066	62	55
296.605	297.066	67	66
296.605	296.691	74	78
296.719	296.803	75	80
296.831	296.915	77	82
296.943	297.035	79	87
297.066	297.156	36	58
297.066	297.156	48	69
297.066	297.559	68	76
297.066	297.559	72	76
297.066	297.559	75	76
297.066	297.559	80	90
297.186	297.275	38	63
297.186	297.275	50	74
297.304	297.392	39	66
297.304	297.392	51	78
297.421	297.525	41	70
297.421	297.525	53	82
297.559	298.076	43	58
297.559	298.076	47	58
297.559	298.076	50	58
297.559	298.076	55	70
297.559	297.655	62	70
297.559	297.655	74	84
297.687	297.781	63	73
297.687	297.781	75	87
297.812	297.905	65	76
297.812	297.905	77	90
297.936	298.041	67	78
297.936	298.041	79	94
298.076	298.173	36	64
298.076	298.173	48	75
298.076	298.646	68	81
298.076	298.646	72	81
298.076	298.646	75	81
298.076	298.646	80	97
298.206	298.306	38	67
298.206	298.306	50	80
298.339	298.442	39	70
298.339	298.442	51	85
298.476	298.603	41	75
298.476	298.603	53	89
298.646	299.126	43	56
298.646	299.126	47	56
298.646	299.126	50	63
298.646	299.126	55	75
298.646	299.126	67	76
298.646	299.126	71	76
298.646	299.126	74	85
298.646	299.126	79	100
299.126	299.244	67	50
299.362	299.484	67	51
299.607	300.087	67	53
300.087	300.206	67	50
300.325	300.447	67	50
300.569	301.049	67	53
301.049	301.167	67	50
301.286	301.407	67	50
301.529	302.009	67	53
302.009	302.128	67	49
302.247	302.368	67	49
302.489	302.969	41	56
302.489	302.969	47	56
302.489	302.969	50	63
302.489	302.969	53	75
302.489	302.969	68	76
302.489	302.969	71	76
302.489	302.969	74	85
302.489	302.969	80	100
302.969	303.088	68	51
303.206	303.327	68	52
303.448	303.928	68	53
303.928	303.986	68	41
303.928	303.986	71	49
304.157	304.222	68	42
304.157	304.222	71	50
304.416	304.896	68	45
304.416	304.896	71	53
304.896	304.954	68	40
304.896	304.954	71	48
305.129	305.192	68	40
305.129	305.192	71	48
305.383	305.863	68	45
305.383	305.863	71	53
305.863	305.921	68	40
305.863	305.921	71	48
306.094	306.158	68	40
306.094	306.158	71	48
306.35	306.83	41	56
306.35	306.83	47	56
306.35	306.83	49	63
306.35	306.83	53	75
306.35	306.83	68	76
306.35	306.83	71	76
306.35	306.83	73	85
306.35	306.83	80	100
306.83	306.888	68	41
306.83	306.888	71	49
307.063	307.128	68	41
307.063	307.128	71	49
307.322	307.802	68	45
307.322	307.802	71	45
307.322	307.802	73	53
307.802	307.861	68	40
307.802	307.861	71	40
307.802	307.861	73	48
308.036	308.098	68	40
308.036	308.098	71	40
308.036	308.098	73	48
308.286	308.766	42	56
308.286	308.766	47	56
308.286	308.766	50	63
308.286	308.766	54	75
308.286	308.766	68	76
308.286	308.766	71	76
308.286	308.766	74	85
308.286	308.766	80	100
308.766	308.824	68	41
308.766	308.824	71	49
308.998	309.062	68	41
308.998	309.062	71	49
309.253	309.733	68	45
309.253	309.733	71	45
309.253	309.733	74	53
309.733	309.791	68	41
309.733	309.791	71	41
309.733	309.791	74	49
309.966	310.028	68	41
309.966	310.028	71	41
309.966	310.028	74	49
310.213	310.693	41	56
310.213	310.693	44	56
310.213	310.693	49	63
310.213	310.693	53	75
310.213	310.693	68	76
310.213	310.693	71	76
310.213	310.693	73	85
310.213	310.693	80	100
310.693	310.752	68	35
310.693	310.752	71	42
310.927	310.99	68	35
310.927	310.99	71	42
311.179	311.659	68	39
311.179	311.659	71	39
311.179	311.659	73	47
311.659	311.718	68	35
311.659	311.718	71	35
311.659	311.718	73	42
311.894	311.957	68	35
311.894	311.957	71	35
311.894	311.957	73	42
312.145	312.625	42	56
312.145	312.625	47	56
312.145	312.625	50	63
312.145	312.625	54	75
312.145	312.625	68	76
312.145	312.625	71	76
312.145	312.625	74	85
312.145	312.625	80	100
312.625	312.683	68	40
312.625	312.683	71	40
312.859	312.921	68	40
312.859	312.921	71	40
313.108	313.588	68	39
313.108	313.588	71	39
313.108	313.588	74	46
313.588	313.647	68	34
313.588	313.647	71	34
313.588	313.647	74	40
313.823	313.886	68	34
313.823	313.886	71	34
313.823	313.886	74	41
314.072	314.552	41	56
314.072	314.552	47	56
314.072	314.552	50	63
314.072	314.552	53	75
314.072	314.552	68	76
314.072	314.552	71	76
314.072	314.552	74	85
314.072	314.552	80	100
314.552	314.611	71	48
314.552	314.611	74	48
314.787	314.849	71	48
314.787	314.849	74	48
315.036	315.516	29	56
315.036	315.516	41	75
315.036	315.516	68	76
315.036	315.516	71	76
315.036	315.516	73	85
315.036	315.516	80	100
315.516	315.574	71	48
315.516	315.574	73	48
315.75	315.812	71	48
315.75	315.812	73	48
315.999	316.479	30	53
315.999	316.479	42	64
315.999	316.479	68	71
315.999	316.479	71	71
315.999	316.479	73	71
315.999	316.479	80	85
316.479	316.538	71	48
316.479	316.538	73	48
316.713	316.776	71	48
316.713	316.776	73	48
316.962	317.442	33	49
316.962	317.442	45	59
316.962	317.442	66	65
316.962	317.442	69	65
316.962	317.442	73	65
316.962	317.442	78	78
317.442	317.501	69	48
317.442	317.501	73	48
317.677	317.739	69	48
317.677	317.739	73	48
317.926	318.416	37	47
317.926	318.416	49	57
317.926	318.416	66	63
317.926	318.416	68	63
317.926	318.416	73	63
317.926	318.416	78	76
318.416	318.475	66	48
318.416	318.475	68	48
318.655	318.72	66	48
318.655	318.72	68	48
318.914	319.406	40	46
318.914	319.406	52	55
318.914	319.406	64	61
318.914	319.406	68	61
318.914	319.406	73	61
318.914	319.406	76	73
319.406	319.466	64	48
319.406	319.466	68	48
319.647	319.713	64	48
319.647	319.713	68	48
319.91	320.41	44	44
319.91	320.41	56	53
319.91	320.41	63	59
319.91	320.41	68	59
319.91	320.41	72	59
319.91	320.41	75	71
320.41	320.471	63	48
320.41	320.471	72	48
320.655	320.722	63	48
320.655	320.722	72	48
320.922	321.435	45	47
320.922	321.435	57	56
320.922	321.435	63	62
320.922	321.435	67	62
320.922	321.435	73	62
320.922	321.435	75	74
321.435	321.496	63	48
321.435	321.496	73	48
321.68	321.746	63	48
321.68	321.746	73	48
321.946	322.466	44	44
321.946	322.466	56	53
321.946	322.466	63	59
321.946	322.466	68	59
321.946	322.466	72	59
321.946	322.466	75	71
322.466	322.528	60	32
322.466	322.528	63	38
322.717	322.783	60	31
322.717	322.783	63	37
322.981	323.498	60	38
322.981	323.498	63	45
323.498	323.628	32	32
323.498	323.563	60	31
323.498	323.563	63	37
323.628	323.762	36	35
323.762	323.899	39	38
323.762	323.83	60	31
323.762	323.83	63	37
323.899	324.039	44	41
324.039	324.3	45	44
324.039	324.56	61	38
324.039	324.56	63	45
324.56	324.623	61	28
324.56	324.623	63	34
324.811	324.877	61	28
324.811	324.877	63	33
325.075	325.592	61	33
325.075	325.592	63	39
325.592	325.722	31	27
325.592	325.657	61	28
325.592	325.657	63	33
325.722	325.855	34	29
325.855	325.991	39	31
325.855	325.923	61	27
325.855	325.923	63	33
325.991	326.129	43	34
326.129	326.39	44	33
326.129	326.651	60	28
326.129	326.651	63	34
326.651	326.714	60	24
326.651	326.714	63	28
326.902	326.968	60	23
326.902	326.968	63	27
327.166	327.683	60	28
327.166	327.683	63	34
327.683	327.813	32	24
327.683	327.748	60	23
327.683	327.748	63	27
327.813	327.947	36	26
327.947	328.084	39	28
327.947	328.015	60	23
327.947	328.015	63	27
328.084	328.224	44	30
328.224	328.485	45	33
328.224	328.746	61	28
328.224	328.746	63	34
328.746	328.808	61	22
328.746	328.808	63	27
328.997	329.062	61	22
328.997	329.062	63	27
329.26	329.777	61	27
329.26	329.777	63	32
329.777	329.907	31	24
329.777	329.842	61	24
329.777	329.842	63	28
329.907	330.04	34	26
330.04	330.176	39	27
330.04	330.108	61	24
330.04	330.108	63	28
330.176	330.314	43	30
330.314	330.593	44	33
330.314	330.872	60	28
330.314	330.872	63	34
330.872	331.008	56	23
330.872	331.008	68	28
331.144	331.286	56	23
331.144	331.286	68	28
331.428	331.984	56	26
331.428	331.984	68	31
331.984	332.12	44	23
331.984	332.12	48	28
332.255	332.399	44	23
332.255	332.399	48	28
332.542	333.098	44	28
332.542	333.098	48	33
333.098	333.235	56	23
333.098	333.235	68	28
333.372	333.515	56	23
333.372	333.515	68	28
333.659	334.215	56	26
333.659	334.215	68	31
334.215	334.352	44	23
334.215	334.352	48	28
334.489	334.633	44	23
334.489	334.633	48	28
334.777	335.338	44	28
334.777	335.338	48	33
335.338	335.475	56	23
335.338	335.475	68	28
335.613	335.757	56	23
335.613	335.757	68	28
335.901	336.487	56	26
335.901	336.487	68	31
336.487	336.632	45	23
336.487	336.632	49	28
336.777	336.935	45	23
336.777	336.935	49	28
337.093	337.684	45	28
337.093	337.684	49	33
337.684	337.826	56	23
337.684	337.826	68	28
337.968	338.125	56	23
337.968	338.125	68	28
338.281	338.872	56	26
338.281	338.872	68	31
338.872	339.018	45	23
338.872	339.018	49	28
339.163	339.328	45	23
339.163	339.328	49	28
339.493	340.118	48	28
339.493	340.118	51	33
340.118	340.269	56	23
340.118	340.269	66	23
340.118	340.269	68	28
340.419	340.582	56	23
340.419	340.582	66	23
340.419	340.582	68	28
340.745	341.374	56	26
340.745	341.374	66	26
340.745	341.374	68	31
341.374	341.526	48	23
341.374	341.526	51	28
341.678	341.842	48	23
341.678	341.842	51	28
342.006	342.634	48	28
342.006	342.634	51	33
342.634	342.788	56	23
342.634	342.788	66	23
342.634	342.788	68	28
342.941	343.108	56	23
342.941	343.108	66	23
342.941	343.108	68	28
343.276	343.924	48	28
343.276	343.924	51	33
343.924	344.082	56	23
343.924	344.082	66	23
343.924	344.082	68	28
344.24	344.417	56	23
344.24	344.417	66	23
344.24	344.417	68	28
344.593	345.26	48	28
344.593	345.26	51	33
345.26	345.926	56	22
345.26	345.926	66	22
345.26	345.926	68	27
345.926	346.593	48	27
345.926	346.593	51	32
346.593	347.325	56	21
346.593	347.325	66	21
346.593	347.325	68	26
347.325	348.109	48	26
347.325	348.109	51	30
348.109	348.937	57	20
348.109	348.937	66	20
348.109	348.937	69	25
348.937	349.897	48	25
348.937	349.897	51	29
349.897	351.897	56	20
349.897	351.897	66	20
349.897	351.897	68	24
