OnsetTime	OffsetTime	MidiPitch	Velocity
0.519987	0.785982	67	63
0.786987	1.25198	67	58
0.789978	1.25198	72	69
0.790984	1.25298	64	58
0.792982	1.25198	60	49
1.25198	1.40497	60	44
1.25198	1.40297	67	52
1.25198	1.40297	72	62
1.25298	1.40297	64	52
1.40297	2.01897	64	58
1.40297	2.01897	67	58
1.40297	2.01897	72	69
1.40497	2.01897	60	49
2.34995	2.62296	67	63
2.62397	3.08595	67	58
2.62397	3.08696	74	69
2.62696	3.08895	65	58
2.62796	3.08696	59	49
3.08595	3.23695	67	52
3.08696	3.23995	59	44
3.08696	3.23695	74	62
3.08895	3.23894	65	52
3.23695	3.84594	67	58
3.23695	3.84594	74	69
3.23894	3.84594	65	58
3.23995	3.84594	59	49
4.19495	4.47495	67	63
4.47495	4.76894	67	58
4.47595	5.05995	76	69
4.47894	5.06094	60	51
4.47894	5.06294	64	60
4.76894	5.05995	67	53
4.76894	5.06694	74	63
4.76995	5.06694	62	55
4.77294	5.06694	59	46
5.05995	5.35694	67	56
5.05995	5.35794	76	66
5.06094	5.35794	60	50
5.06294	5.36093	64	59
5.36093	5.66193	67	53
5.36194	5.66593	65	52
5.36194	5.66494	77	63
5.36394	5.66893	62	44
5.66993	5.94893	67	56
5.66993	5.94993	76	66
5.67192	5.95193	60	44
5.67192	5.95193	64	52
5.95293	6.26693	67	53
5.95593	6.26794	74	63
5.95694	6.27093	59	44
5.95694	6.27093	62	52
6.27193	7.43694	67	57
6.27393	7.43694	76	67
6.27492	7.43894	60	48
6.27492	7.43793	64	57
8.08094	8.37492	67	42
8.08094	8.65891	75	51
8.08193	8.66091	63	44
8.08393	8.66091	60	37
8.37492	8.65792	67	39
8.37492	8.67191	74	48
8.37591	8.67191	62	40
8.37791	8.67191	59	34
8.65792	8.95491	67	40
8.65891	8.95491	75	49
8.66091	8.95892	60	37
8.66091	8.95892	63	44
8.95991	9.24891	67	39
8.96191	9.25391	65	38
8.96191	9.25292	77	48
8.96292	9.25591	62	31
9.25591	9.5539	67	40
9.25691	9.55491	63	38
9.25691	9.55491	75	49
9.2599	9.5569	60	31
9.5569	9.8719	67	39
9.5609	9.8759	62	38
9.5609	9.87291	74	48
9.56191	9.87691	59	31
9.87691	10.4699	67	41
9.8789	10.4709	75	50
9.8799	10.4739	60	35
9.8799	10.4709	63	41
11.0629	11.6509	66	53
11.0629	11.6509	74	63
11.0649	11.6519	50	35
11.0659	11.6539	57	35
11.0659	11.6539	60	41
11.6539	11.9759	67	57
11.6549	12.3019	71	67
11.6579	13.1659	38	48
11.9759	12.3019	67	63
12.3019	13.5759	67	58
12.3019	13.5789	71	58
12.3049	13.2679	76	70
12.4549	13.1659	50	42
12.6199	13.1659	55	47
12.7779	13.1659	59	49
12.9349	13.5789	62	51
13.2709	13.5799	74	59
13.5829	14.2489	62	53
13.5829	14.2509	66	63
13.5839	14.2549	72	63
13.5859	14.2549	50	41
13.5859	14.2549	57	50
14.0729	14.2549	71	59
14.2489	14.9639	62	53
14.2509	14.7759	60	48
14.2509	14.9649	66	63
14.2509	14.9649	69	63
14.7759	14.9678	59	44
14.9689	15.3389	57	44
15.3429	15.6718	62	51
15.6729	16.2708	59	48
15.6749	16.1268	67	57
15.6758	16.8798	43	38
15.6758	16.8798	50	38
15.6788	16.8798	55	46
16.1268	16.2678	67	51
16.2678	16.8748	67	55
16.2708	16.8798	59	48
16.5678	16.8798	69	57
16.5688	16.8798	62	41
16.8748	17.5088	67	50
16.8758	17.5088	71	59
16.8798	17.5088	55	46
17.1768	17.5088	76	66
17.1778	17.5088	61	51
17.5048	18.1048	72	53
17.5058	18.1078	66	52
17.5058	18.1118	74	63
17.5068	18.1058	62	44
17.9548	18.1118	76	57
18.1048	18.7238	72	51
18.1048	18.7238	78	61
18.1058	19.0178	62	42
18.1078	18.7238	66	51
18.5698	18.7238	67	46
18.7168	19.0178	69	53
19.0188	19.3568	74	66
19.3608	19.9708	79	64
19.3608	20.7228	86	78
19.3618	19.9728	67	44
19.3618	19.9728	71	52
19.8228	20.7228	83	66
19.9708	20.7228	79	70
19.9728	20.5898	67	49
19.9728	20.4358	71	49
19.9738	20.7228	74	58
20.4358	20.7228	71	46
20.5898	20.9008	67	56
20.9048	21.2438	74	59
21.2438	21.8528	70	58
21.2468	22.6158	79	70
21.2478	21.8538	63	38
21.2478	21.8538	67	47
21.7118	22.6158	75	59
21.8528	22.6158	70	61
21.8538	22.3198	63	42
21.8538	22.6158	67	51
22.3198	22.6158	63	40
22.4788	22.7868	58	50
22.7908	23.1198	72	46
23.1208	24.0158	67	42
23.1228	23.5748	74	51
23.1238	24.0198	50	34
23.1238	24.0198	55	34
23.1248	24.0198	59	40
23.5748	23.7158	74	46
23.7158	24.0158	74	49
24.0128	24.3298	71	42
24.0158	24.3348	62	31
24.0158	24.3378	67	37
24.0158	24.3348	74	51
24.3378	24.6638	72	44
24.3378	24.6668	76	52
24.3418	24.6668	62	34
24.3418	24.6668	67	40
24.6708	25.0298	72	42
24.6708	25.0308	83	55
24.6718	25.0308	62	38
24.6738	25.0318	64	46
25.0348	25.7198	66	46
25.0348	25.7198	72	44
25.0348	25.7198	81	53
25.0378	25.7198	62	38
25.7068	26.0818	71	37
25.7068	26.0818	79	44
25.7098	26.0818	67	37
26.0778	26.4098	59	31
26.0808	26.4108	62	38
26.0818	26.4128	55	30
26.4138	26.7698	60	36
26.4168	26.7708	64	42
26.4178	26.7708	48	29
26.4178	26.7738	55	35
26.7738	27.1908	64	39
26.7768	27.1918	45	31
26.7768	27.1908	72	48
26.7778	27.1938	55	38
27.1938	29.4688	60	42
27.1948	29.4688	69	51
27.1978	29.4688	50	36
27.1978	27.9388	55	42
27.9258	28.6717	54	34
28.3007	29.4688	52	30
28.6717	29.4688	54	36
29.4407	29.7448	59	36
29.4407	29.7448	67	42
29.4418	32.9167	43	34
29.4418	32.3347	55	40
29.7458	30.3478	67	35
30.0427	30.6278	79	46
30.3478	30.9218	67	37
30.6278	31.1878	79	52
30.9218	31.4818	67	46
31.1878	31.7578	79	56
31.4818	32.0488	67	47
31.7578	32.3318	79	56
32.0488	32.6287	67	46
32.3318	32.9138	79	51
32.3347	32.9167	55	40
32.6287	32.9167	67	42
32.9138	33.4727	79	49
32.9158	33.3297	53	38
32.9158	33.3297	62	47
33.1867	33.7497	67	36
33.3297	33.4757	53	31
33.3297	33.4767	62	38
33.4727	34.0437	79	47
33.4757	34.3237	53	38
33.4767	34.3237	62	46
33.7497	34.3137	67	39
34.0437	34.3237	43	60
34.0437	34.3237	79	48
34.3137	34.6137	59	41
34.3137	34.6137	67	37
34.6147	35.2047	79	49
34.6177	35.0647	52	38
34.6187	35.0657	60	47
34.8977	35.4917	67	38
35.0647	35.2057	52	31
35.0657	35.2057	60	38
35.2047	35.7787	79	49
35.2057	36.0177	52	38
35.2057	36.0177	60	46
35.4917	36.0177	67	40
35.7787	36.0657	79	48
35.7797	36.0667	43	63
36.0667	36.3487	67	37
36.0697	36.3497	57	48
36.3497	36.9347	79	55
36.3537	36.9357	50	38
36.3537	36.9357	59	46
36.6487	36.9357	67	42
36.6507	36.9357	52	38
36.6507	36.9357	60	46
36.9347	37.5117	53	44
36.9347	37.5077	79	58
36.9357	37.5117	62	52
37.2227	37.5117	67	48
37.5077	38.1067	79	58
37.5087	38.1097	52	42
37.5087	38.1097	60	51
37.7927	38.1097	53	46
37.7927	38.1097	67	51
37.7947	38.1097	62	55
38.1067	38.6697	79	62
38.1077	39.8257	55	51
38.1077	39.8267	64	60
38.3897	38.9607	67	50
38.6697	39.2447	79	60
38.6707	39.8267	52	44
38.6707	39.8267	60	52
38.9607	39.5417	67	48
39.2447	39.8267	48	50
39.2447	39.8267	79	58
39.5417	39.8267	67	47
39.8257	40.4127	55	52
39.8257	40.3987	82	62
39.8267	40.3997	63	62
40.1097	40.4127	70	53
40.2567	40.4127	58	49
40.2597	40.4127	65	58
40.3987	40.9667	82	69
40.3997	41.5437	63	55
40.3997	41.5417	67	64
40.6867	41.2427	70	60
40.9667	41.5437	82	69
40.9697	41.5437	51	60
41.2427	41.5437	70	62
41.5407	42.1217	59	52
41.5407	42.1107	86	62
41.5417	42.1147	67	62
41.8237	42.1217	74	53
41.9717	42.1217	62	49
41.9727	42.1217	69	58
42.1107	43.2677	86	69
42.1147	43.2677	67	55
42.1147	43.2677	71	64
42.3977	42.9747	74	60
42.6847	43.2677	83	69
42.6877	43.2677	43	60
42.9747	43.2677	74	62
43.2657	43.8477	82	62
43.2667	43.8607	55	52
43.2667	43.8477	63	62
43.5607	43.8607	70	53
43.7067	43.8607	58	49
43.7067	43.8607	65	58
43.8477	44.9857	63	55
43.8477	44.4107	82	69
43.8507	44.9847	67	64
44.1237	44.6977	70	60
44.4107	44.9857	82	69
44.4117	44.9857	51	60
44.6977	44.9857	70	62
44.9807	45.5487	86	62
44.9847	45.5617	59	52
44.9847	45.5487	67	62
45.2717	45.5617	74	53
45.4127	45.5617	62	49
45.4147	45.5617	69	58
45.5487	46.7367	67	55
45.5487	46.7367	86	69
45.5507	46.7367	71	64
45.8317	46.4157	74	60
46.1227	46.7367	83	69
46.1237	46.7367	43	60
46.4157	46.7367	74	62
46.7277	47.3227	69	55
46.7307	47.3127	55	52
46.7307	47.1607	60	52
46.7347	47.3227	64	62
47.0147	47.3227	76	59
47.1607	47.3227	60	58
47.3117	47.8827	71	53
47.3127	48.4567	55	55
47.3127	48.4596	79	63
47.3157	48.4596	62	64
47.5857	48.1597	67	57
47.8816	48.4596	74	60
47.8827	48.4596	43	58
47.8827	48.4596	71	51
48.1597	48.4596	67	55
48.4557	49.0447	69	55
48.4567	49.0377	55	52
48.4567	48.8907	60	52
48.4567	49.0447	64	62
48.7397	49.0447	76	59
48.8907	49.0447	60	58
49.0347	49.6017	71	53
49.0367	50.1647	79	63
49.0377	50.1716	55	55
49.0377	50.1716	62	64
49.3137	49.8786	67	57
49.6006	50.1716	74	60
49.6017	50.1647	43	58
49.6017	50.1716	71	51
49.8786	50.1716	67	55
50.1616	50.7426	72	40
50.1647	51.9146	43	44
50.1647	51.9146	79	49
50.4417	51.0296	69	38
50.4437	51.9146	48	40
50.7426	51.3236	67	35
50.7426	51.9146	72	41
50.7446	51.9106	50	44
51.0296	51.9146	55	48
51.0296	51.6146	69	31
51.3236	51.9106	67	49
51.3246	51.9106	76	49
51.3256	51.9146	60	51
51.6146	51.9146	69	41
51.6176	51.9146	64	55
51.9106	53.0796	50	50
51.9106	52.4956	67	55
51.9106	53.0796	76	55
51.9146	53.0796	57	50
51.9146	53.0796	60	59
52.1876	52.7786	69	44
52.4956	53.0796	67	41
52.7786	53.0796	69	39
53.0736	53.6816	66	34
53.0736	53.6826	74	40
53.0766	53.6886	38	41
53.3766	53.6886	69	36
53.6816	54.2596	66	38
53.6826	54.2596	50	33
53.6826	54.2596	57	33
53.6826	54.2596	74	46
53.6846	54.2596	60	39
53.9576	54.2596	69	39
54.2566	54.8336	67	38
54.2566	54.8336	76	47
54.2586	54.8336	38	41
54.5256	54.8336	73	40
54.8226	55.3976	66	38
54.8266	55.3976	50	33
54.8266	55.3976	60	39
54.8266	55.3976	74	47
54.8276	55.3976	57	33
55.1006	55.3976	69	38
55.3946	55.9706	67	39
55.3966	55.9706	38	41
55.3966	55.9706	76	48
55.6706	55.9706	73	39
55.9606	56.5376	66	39
55.9636	56.5376	50	38
55.9636	56.5376	74	48
55.9646	56.5376	57	38
55.9646	56.5376	60	46
56.2446	56.5376	69	42
56.5316	57.1185	67	44
56.5336	57.1185	76	52
56.5346	57.1185	38	50
56.8146	57.1185	73	48
57.1115	58.2525	66	42
57.1115	58.2535	74	51
57.1126	58.8715	50	42
57.1126	58.8715	57	42
57.1146	58.8715	60	51
57.3895	58.5435	69	42
57.6785	58.8715	67	46
57.6795	58.8715	76	55
57.9635	58.8715	73	46
58.2525	58.8655	66	47
58.2535	58.8655	74	55
58.5435	58.8715	69	49
58.8655	59.4805	66	50
58.8655	59.4805	74	61
58.8685	59.4805	38	56
59.1595	59.4805	69	39
59.4715	59.7825	50	48
59.7825	60.0965	48	41
60.0975	60.7196	62	55
60.1005	60.4046	47	47
60.4055	60.7206	45	49
60.7206	61.1995	59	51
60.7235	61.2006	67	61
60.7246	61.2006	43	42
60.7246	61.2035	50	51
61.1995	61.3406	59	47
61.2006	61.3415	43	39
61.2006	61.3406	67	56
61.2035	61.3415	50	47
61.3406	61.9525	59	51
61.3406	61.9525	67	61
61.3415	61.9525	43	42
61.3415	61.9525	50	51
62.2495	62.5575	62	49
62.2535	62.5615	66	49
62.2535	62.5615	69	57
62.2545	62.5625	50	49
62.5645	63.0415	62	51
62.5645	63.0415	67	51
62.5655	63.0445	71	61
62.5685	63.0445	43	42
62.5685	63.0445	50	51
63.0415	63.1735	62	47
63.0415	63.1745	67	47
63.0445	63.1775	43	39
63.0445	63.1775	50	47
63.0445	63.1745	71	56
63.1735	63.7895	62	51
63.1745	63.7895	67	51
63.1745	63.7905	71	61
63.1775	63.7935	43	42
63.1775	63.7935	50	51
64.0905	64.3915	71	51
64.3925	65.0235	64	48
64.3955	65.0355	48	50
64.3955	65.0245	69	57
64.7025	65.0355	71	58
64.7035	65.0355	47	47
65.0235	65.6685	64	48
65.0245	65.6685	69	48
65.0255	65.6685	45	52
65.0255	65.6685	72	57
65.6625	66.2965	60	42
65.6655	66.2965	66	51
65.6665	66.2995	50	47
66.2965	66.9355	60	46
66.2965	66.9365	66	46
66.2975	66.9395	69	55
66.2985	66.9405	43	55
66.9405	67.5795	59	39
66.9415	67.5805	67	48
66.9435	67.5805	55	48
67.8805	68.2065	71	42
67.8855	68.2075	74	51
68.2095	68.5085	71	48
68.2105	68.8335	74	57
68.2135	68.8335	43	46
68.5085	68.8335	50	31
68.5085	68.8335	67	41
68.5085	68.8335	71	50
68.8265	70.0474	72	50
68.8265	70.0474	76	59
68.8304	69.1244	55	41
69.1244	69.7325	50	31
69.4394	70.0474	55	41
69.7305	70.0404	71	40
69.7325	70.0474	50	31
69.7325	70.0414	74	49
70.0404	70.6564	66	46
70.0404	70.6564	71	46
70.0414	70.6564	38	42
70.0414	70.6564	74	55
70.3354	70.6494	69	40
70.3384	70.6504	72	49
70.3394	70.6564	50	30
70.6494	71.5284	69	40
70.6504	71.2514	54	38
70.6504	71.5314	72	49
70.9414	71.5314	50	31
71.2514	71.8474	54	39
71.5284	71.8434	69	42
71.5314	71.8474	50	33
71.5314	71.8464	72	51
71.8434	72.1364	69	48
71.8464	72.4724	72	57
71.8474	72.4724	38	46
72.1354	72.4724	66	41
72.1364	72.4724	69	50
72.1374	72.4724	50	31
72.4424	73.6634	71	50
72.4424	73.6634	74	59
72.4454	72.7354	54	41
72.7364	73.3324	50	31
73.0444	73.6634	54	41
73.3314	73.6564	69	40
73.3314	73.6564	72	49
73.3324	73.6634	50	31
73.6564	74.2904	69	46
73.6564	74.2904	72	55
73.6704	74.2904	43	42
73.9574	74.2754	67	40
73.9584	74.2904	50	30
73.9584	74.2794	71	49
74.2754	75.2134	67	40
74.2794	74.9194	55	38
74.2794	75.2134	71	49
74.5804	75.2134	50	31
74.9194	75.2344	55	38
75.2204	75.5394	62	56
75.5394	76.0124	59	51
75.5404	76.0144	67	61
75.5424	76.0154	43	42
75.5424	76.0154	50	51
76.0124	76.1514	59	47
76.0144	76.1554	67	56
76.0154	76.1564	43	39
76.0154	76.1554	50	47
76.1514	76.7744	59	51
76.1554	76.7744	50	51
76.1554	76.7744	67	61
76.1564	76.7744	43	42
77.0724	77.3734	62	49
77.0734	77.3764	66	49
77.0734	77.3774	69	57
77.0754	77.3774	50	49
77.3774	77.8544	62	51
77.3804	77.8564	67	51
77.3814	77.8564	71	61
77.3834	77.8574	50	51
77.3844	77.8574	43	42
77.8544	77.9934	62	47
77.8564	77.9944	67	47
77.8564	77.9964	71	56
77.8574	77.9964	43	39
77.8574	77.9964	50	47
77.9934	78.6044	62	51
77.9944	78.6054	67	51
77.9964	78.6064	43	42
77.9964	78.6094	50	51
77.9964	78.6054	71	61
78.9124	79.2144	71	51
78.9134	79.2144	52	49
79.2154	79.8444	64	48
79.2184	79.8513	48	50
79.2184	79.8454	69	57
79.5194	79.8513	68	48
79.5194	79.8513	71	58
79.5204	79.8513	47	47
79.8444	80.4853	64	48
79.8454	80.4853	69	48
79.8484	80.4853	45	52
79.8484	80.4853	72	57
80.4783	81.1093	60	42
80.4793	81.1113	66	51
80.4813	81.1123	50	47
81.1093	81.7483	60	46
81.1113	81.7553	43	55
81.1113	81.7523	66	46
81.1113	81.7533	69	55
81.7553	82.3923	59	39
81.7563	82.3973	55	48
81.7563	82.3963	67	48
82.7213	83.0333	71	42
82.7213	83.0333	74	51
82.7223	83.0363	67	42
83.0363	83.3313	71	48
83.0373	83.6453	74	57
83.0403	83.6353	67	46
83.3313	83.6453	71	50
83.6343	83.9213	72	50
83.6353	84.5033	67	41
83.6353	83.9223	76	59
83.9223	84.5033	79	59
84.2133	84.5033	72	50
84.2133	84.5033	76	59
84.4993	84.7923	71	40
84.5003	84.7933	74	49
84.5023	84.7933	68	46
84.7963	85.4023	71	46
84.7973	85.3923	69	51
84.7973	85.4023	74	55
85.0873	85.3923	72	49
85.3923	85.9733	69	40
85.3923	86.2573	72	49
85.3933	86.2663	57	38
85.6753	86.2663	64	34
85.9733	86.2663	69	39
86.2573	86.5573	67	35
86.2573	86.5573	72	50
86.5603	87.4283	69	48
86.5613	87.1733	66	46
86.5613	87.4293	72	57
86.8483	87.1733	64	38
87.1393	87.7183	62	41
87.4293	87.7193	72	50
87.4323	87.7193	76	50
87.7203	88.0133	71	50
87.7223	88.0133	74	50
87.7233	88.0173	64	41
88.0173	88.3213	69	40
88.0193	88.3213	72	49
88.0203	88.3253	66	40
88.3253	88.9303	69	46
88.3253	88.9303	72	55
88.3263	88.9203	67	42
88.6153	88.9233	71	49
88.9203	89.5393	67	40
88.9233	89.8473	55	47
88.9233	89.8473	71	49
89.2183	89.8473	65	40
89.2183	89.8473	69	46
89.5393	89.8543	64	46
89.5393	89.8543	67	51
89.8553	90.1733	67	55
89.8583	90.1763	62	51
89.8583	90.1763	65	55
90.1773	90.6533	64	51
90.1773	90.6533	72	61
90.1803	91.6213	60	51
90.6533	90.7933	64	47
90.6533	90.7933	72	56
90.7933	91.6213	64	51
90.7933	91.6213	72	61
90.7953	91.2603	48	51
90.7953	91.2613	55	60
91.2603	91.4083	48	47
91.2613	91.4093	55	56
91.4083	91.7053	48	51
91.4093	91.7063	55	60
91.7063	92.0483	67	64
92.0493	92.5323	67	58
92.0493	92.5333	76	71
92.0523	92.6863	49	52
92.0533	92.6893	58	58
92.5323	92.6853	67	53
92.5333	92.6863	76	63
92.6853	93.4493	67	58
92.6863	93.1593	49	58
92.6863	93.4493	76	71
92.6893	93.1623	58	70
93.1593	93.3133	49	55
93.1623	93.3133	58	63
93.3133	93.6093	49	58
93.3133	93.6103	58	70
93.6103	93.9283	76	62
93.9313	94.6003	67	58
93.9323	94.6003	71	58
93.9323	94.6003	74	70
93.9333	94.6003	50	50
94.2373	94.6003	55	47
94.4153	94.6003	59	51
94.5893	95.2613	62	56
94.9123	95.2613	64	51
95.2523	95.9383	60	44
95.2543	95.9383	38	38
95.2543	95.9383	66	52
95.2583	95.9383	50	47
95.5843	95.9383	71	49
95.9343	97.8773	59	37
95.9373	97.8773	67	44
95.9383	97.8763	43	42
96.2603	96.9043	50	36
96.5773	97.2253	55	39
96.9043	97.5483	50	36
97.2253	97.8773	55	39
97.5483	97.8773	50	36
97.8733	99.7203	66	49
97.8733	99.0902	74	49
97.8743	99.0812	72	49
97.8763	98.1703	43	44
98.1732	98.7762	50	36
98.4812	99.0842	54	39
98.7762	99.0902	50	36
99.0812	99.7203	72	44
99.0832	99.7203	76	44
99.0842	99.7203	54	41
99.3992	99.7203	50	36
99.7152	100.915	67	49
99.7182	100.925	43	44
99.7182	100.918	71	49
99.7182	100.925	74	49
100.022	100.624	50	35
100.316	100.918	55	39
100.62	100.925	69	44
100.624	100.925	50	35
100.624	100.925	72	44
100.915	101.541	67	44
100.918	101.541	55	35
100.918	101.541	71	44
101.215	101.541	50	35
101.537	102.744	60	49
101.537	102.745	62	49
101.538	102.751	43	44
101.835	102.441	50	38
102.139	102.748	54	41
102.441	102.751	50	38
102.744	103.367	60	44
102.745	103.361	62	44
102.748	103.367	54	42
103.049	103.367	50	38
103.361	105.191	59	50
103.361	105.192	62	50
103.362	105.195	67	50
103.364	105.195	43	44
103.666	104.268	50	34
103.967	104.575	55	41
104.268	104.873	50	34
104.575	105.196	55	34
104.873	105.196	50	34
105.191	106.42	59	47
105.192	106.42	62	47
105.195	106.42	43	44
105.195	106.42	67	47
105.492	106.101	50	35
105.8	106.413	55	44
106.101	106.42	50	34
106.409	107.039	57	37
106.409	107.039	60	37
106.41	107.039	64	37
106.413	107.039	55	34
106.718	107.039	50	34
107.036	108.253	59	42
107.037	108.253	62	42
107.037	108.253	67	42
107.039	108.253	43	44
107.334	107.943	50	36
107.635	108.251	55	42
107.943	108.253	50	33
108.25	108.869	57	37
108.251	108.869	55	37
108.251	108.869	60	37
108.251	108.869	64	37
108.554	108.869	50	31
108.863	111.635	59	44
108.863	111.635	62	44
108.866	111.636	67	44
108.867	109.16	43	44
109.161	109.784	50	34
109.469	110.102	55	39
109.784	110.452	50	36
110.102	111.47	55	39
110.452	111.47	50	34
110.911	111.638	43	38
113.08	114.277	59	33
113.081	114.281	62	39
113.083	115.492	67	33
113.084	113.669	43	37
113.382	113.967	55	29
113.669	114.281	43	29
113.966	114.292	60	28
113.967	114.292	55	29
113.967	114.292	64	34
114.277	114.879	59	33
114.281	114.873	43	37
114.281	114.879	62	39
114.578	114.879	55	29
114.872	115.492	60	30
114.872	115.492	64	37
114.873	115.492	43	29
115.163	115.492	55	29
115.488	117.872	71	33
115.489	116.682	62	33
115.489	116.682	65	39
115.492	116.066	43	37
115.78	116.364	55	29
116.066	116.685	43	29
116.363	116.692	64	28
116.364	116.692	55	29
116.364	116.692	67	34
116.682	117.872	62	28
116.682	117.872	65	34
116.685	116.968	43	36
116.969	117.55	55	29
117.253	117.872	43	29
117.55	117.872	55	29
117.869	119.056	60	35
117.869	119.058	64	42
117.87	120.245	69	35
117.872	118.456	43	40
118.173	118.747	55	30
118.456	119.059	43	30
118.743	119.065	62	30
118.744	119.065	65	37
118.747	119.065	55	30
119.056	119.643	60	35
119.058	119.643	64	42
119.059	119.633	43	40
119.343	119.643	55	33
119.632	120.245	62	34
119.633	120.245	43	33
119.633	120.245	65	40
119.93	120.245	55	33
120.242	122.586	72	35
120.243	121.403	64	35
120.244	121.403	67	42
120.245	120.812	43	40
120.529	121.107	55	30
120.812	121.404	43	30
121.106	121.407	65	30
121.106	121.407	69	37
121.107	121.407	55	30
121.403	122.586	64	34
121.403	122.586	67	40
121.404	121.701	43	39
121.702	122.275	55	30
121.984	122.584	43	30
122.275	122.586	55	30
122.58	123.749	62	39
122.583	123.749	65	47
122.584	123.164	43	46
122.584	124.33	71	39
122.88	123.459	55	36
123.164	123.75	43	36
123.458	123.759	64	35
123.458	123.759	67	44
123.459	123.759	55	36
123.749	124.33	62	39
123.749	124.33	65	48
123.75	124.326	43	46
124.029	124.33	55	38
124.322	124.901	72	49
124.323	124.901	64	40
124.323	124.901	67	40
124.326	124.901	43	38
124.602	124.901	55	38
124.896	126.047	65	45
124.897	126.048	69	53
124.9	126.629	74	45
124.901	125.47	43	48
125.19	125.764	55	37
125.47	126.048	43	37
125.761	126.054	67	39
125.762	126.054	71	48
125.764	126.054	55	37
126.047	126.629	65	46
126.048	126.62	43	50
126.048	126.629	69	55
126.328	126.629	55	41
126.616	127.312	76	59
126.619	127.312	67	49
126.619	127.312	71	49
126.62	127.228	43	41
126.909	127.312	55	41
127.224	127.854	69	58
127.227	127.854	72	58
127.227	127.857	77	69
127.228	127.857	43	57
127.858	128.155	77	71
127.861	128.158	69	59
128.159	128.457	67	59
128.159	128.456	76	71
128.459	128.764	74	70
128.463	128.765	65	59
128.767	129.072	72	69
128.771	129.073	64	58
129.075	129.404	71	69
129.076	129.405	62	58
129.405	129.733	69	67
129.408	129.734	60	57
129.737	131.848	65	67
129.738	131.591	69	67
129.74	130.454	60	57
130.438	131.591	55	52
131.148	131.851	59	59
131.148	131.848	67	62
132.554	133.866	72	66
132.558	133.872	76	66
132.558	133.872	79	78
132.559	133.87	60	53
132.561	133.872	64	53
132.562	133.872	67	63
133.202	133.872	36	79
133.866	135.148	72	66
133.867	135.155	77	66
133.867	135.155	81	78
133.87	135.152	60	53
133.871	135.155	65	53
133.871	135.155	69	53
134.497	135.155	41	79
135.148	136.426	72	67
135.148	136.427	76	67
135.152	136.429	60	60
135.152	136.429	64	60
135.152	136.433	79	79
135.154	136.433	67	70
135.763	136.433	36	78
136.107	136.433	74	60
136.108	136.433	62	55
136.108	136.433	77	70
136.111	136.433	65	66
136.426	137.059	72	63
136.427	137.059	76	75
136.429	137.059	60	60
136.429	137.059	64	70
137.049	137.693	74	61
137.049	137.693	77	72
137.05	137.693	62	55
137.052	137.693	65	66
137.686	138.981	72	66
137.687	138.988	76	66
137.688	138.988	79	78
137.689	138.984	60	53
137.689	138.988	64	53
137.69	138.988	67	63
138.319	138.988	36	75
138.981	140.262	72	66
138.981	140.269	77	66
138.982	140.269	81	78
138.984	140.266	60	53
138.984	140.269	65	53
138.984	140.269	69	53
139.607	140.269	41	79
140.262	141.518	72	67
140.265	141.519	76	67
140.265	141.529	79	79
140.266	141.522	60	60
140.269	141.522	64	60
140.269	141.529	67	70
140.878	141.529	36	77
141.21	141.529	74	60
141.211	141.529	77	70
141.214	141.529	62	55
141.214	141.529	65	66
141.518	142.162	72	63
141.519	142.162	76	75
141.522	142.162	60	60
141.522	142.162	64	70
142.149	142.818	74	61
142.152	142.818	77	72
142.153	142.818	62	55
142.153	142.818	65	66
142.813	144.119	72	66
142.813	144.119	76	66
142.814	144.119	60	53
142.814	144.113	79	78
142.817	144.119	64	53
142.817	144.116	67	63
143.457	144.119	36	76
144.112	145.4	74	72
144.113	145.407	79	85
144.115	145.407	59	53
144.115	145.403	62	53
144.116	145.407	67	53
144.745	145.407	31	79
145.4	146.674	74	69
145.401	146.684	78	69
145.403	146.677	62	62
145.403	146.684	81	82
145.404	146.684	66	62
145.407	146.684	69	73
146.015	146.684	38	80
146.673	147.31	79	69
146.674	147.31	74	69
146.674	147.31	83	82
146.677	147.31	62	66
146.677	147.31	67	66
146.678	147.31	71	77
147.301	147.947	76	68
147.301	147.947	81	68
147.303	147.947	84	80
147.304	147.947	64	61
147.304	147.947	69	61
147.307	147.947	72	73
147.94	149.218	74	75
147.941	149.219	62	61
147.941	149.215	79	75
147.941	149.221	83	89
147.944	149.221	67	61
147.945	149.221	71	72
148.554	149.221	38	82
149.215	150.5	79	74
149.215	150.503	81	81
149.218	150.5	74	66
149.219	150.502	62	53
149.219	150.503	69	53
149.848	150.503	72	66
149.849	150.503	38	72
149.849	150.503	78	66
150.499	152.652	71	67
150.5	152.49	59	53
150.5	152.652	74	67
150.5	152.655	79	78
150.502	152.49	62	53
150.503	152.49	67	63
151.193	152.49	43	58
151.924	152.655	31	63
153.39	153.993	67	51
153.391	154.587	55	45
153.391	154.574	59	45
153.393	154.574	62	53
153.699	154.279	79	44
153.993	154.587	43	53
153.993	154.573	67	51
154.279	154.587	79	46
154.283	154.587	60	40
154.283	154.587	64	49
154.573	155.133	67	50
154.574	155.144	59	45
154.574	155.144	62	53
154.864	155.145	79	45
155.147	155.763	60	44
155.147	155.715	67	50
155.148	155.763	64	51
155.428	155.763	79	47
155.715	156.282	67	53
155.717	156.862	55	47
155.718	156.855	62	47
155.718	156.855	65	56
156.002	156.576	79	47
156.282	156.576	67	53
156.576	156.853	67	53
156.576	156.862	79	48
156.578	156.862	64	45
156.853	157.128	67	53
156.855	158.006	62	47
156.855	158.006	65	56
157.132	157.699	79	48
157.415	158.003	67	53
157.699	158.006	79	49
158.003	158.567	67	57
158.004	159.141	55	49
158.004	159.135	60	49
158.004	159.137	64	59
158.279	158.854	79	48
158.567	159.141	48	59
158.567	159.135	67	57
158.854	159.141	79	49
158.858	159.141	62	45
158.858	159.141	65	55
159.135	159.694	60	49
159.135	159.676	67	56
159.137	159.694	64	59
159.417	159.695	79	49
159.697	160.296	62	48
159.697	160.258	67	56
159.698	160.296	65	57
159.975	160.296	79	50
160.254	160.804	72	59
160.258	161.377	60	50
160.258	161.371	64	50
160.258	161.371	67	60
160.531	161.377	79	50
160.804	161.37	72	59
161.091	161.377	84	51
161.094	161.377	65	49
161.094	161.377	69	59
161.37	161.633	72	59
161.371	162.497	64	50
161.371	162.497	67	60
161.633	162.497	79	51
161.914	162.493	72	59
162.197	162.491	84	53
162.491	163.072	76	62
162.491	163.072	84	88
162.492	163.072	69	58
162.493	163.072	72	69
162.778	163.072	78	65
163.061	163.642	79	62
163.061	163.642	83	81
163.062	163.642	64	53
163.065	163.642	71	64
163.351	163.642	76	66
163.636	164.223	72	72
163.636	164.223	81	84
163.638	164.223	65	56
163.638	164.223	69	67
163.922	164.223	74	68
164.216	164.835	76	72
164.216	164.835	79	79
164.217	164.833	60	52
164.217	164.835	67	62
164.518	164.832	72	65
164.829	165.424	69	69
164.832	166.032	72	81
164.833	166.032	53	53
164.833	166.032	60	64
165.123	165.731	65	63
165.424	166.032	69	72
165.731	166.032	65	60
166.026	166.644	49	53
166.026	166.644	67	79
166.029	166.644	58	63
166.329	166.644	64	66
166.635	167.261	65	78
166.638	167.261	50	49
166.638	167.262	57	58
166.932	167.262	62	63
167.265	168.497	60	81
167.265	168.507	64	81
167.266	167.88	43	50
167.562	168.181	55	37
167.88	168.5	43	48
168.181	168.507	55	41
168.497	169.133	60	48
168.5	168.804	43	37
168.5	169.802	62	72
168.804	169.133	55	30
169.119	169.802	43	37
169.119	169.802	59	48
169.448	169.802	55	29
169.798	170.414	60	67
169.799	170.113	48	38
169.802	170.117	52	38
170.118	170.414	48	42
170.418	170.722	52	45
170.722	171.002	55	48
171.003	171.285	60	50
171.289	171.576	64	41
171.577	171.859	67	45
171.864	172.144	72	49
172.147	173.327	71	44
172.15	173.327	74	53
172.151	172.728	67	48
172.728	173.911	67	48
173.03	173.908	72	41
173.032	173.909	76	50
173.327	173.921	71	44
173.327	173.921	74	53
173.908	174.491	72	42
173.909	174.492	76	52
173.911	175.045	67	41
174.492	175.601	74	46
174.495	175.605	77	55
175.045	176.186	67	42
175.322	176.186	79	53
175.325	176.186	76	44
175.601	176.766	74	46
175.605	176.767	77	55
176.176	176.767	68	48
176.77	177.89	72	49
176.771	177.891	76	58
176.774	177.32	69	48
177.32	177.897	69	44
177.604	177.897	74	44
177.607	177.897	77	53
177.89	178.458	72	49
177.891	178.471	76	58
177.894	178.471	67	44
178.458	179.041	72	48
178.461	179.045	77	56
178.462	179.046	65	48
178.462	179.046	69	48
179.046	180.197	72	51
179.048	180.169	79	61
179.049	180.197	64	48
179.049	180.197	67	48
179.599	180.197	63	46
179.599	180.197	66	46
179.882	180.197	81	60
180.166	181.366	71	55
180.169	181.366	62	47
180.169	181.366	79	64
180.17	181.366	65	47
180.744	181.36	67	49
181.356	182.531	76	62
181.359	182.531	84	88
181.36	182.528	60	58
181.36	182.531	67	69
181.933	182.531	83	79
182.525	183.707	77	72
182.525	183.707	81	84
182.527	183.707	53	56
182.528	183.707	60	67
183.112	183.707	83	79
183.704	184.922	76	69
183.704	184.922	84	81
183.705	184.922	48	53
183.705	184.922	55	53
183.707	184.922	60	64
184.314	184.919	79	78
184.916	186.141	69	62
184.918	186.141	74	62
184.919	186.141	41	53
184.919	186.141	53	63
184.919	186.141	79	79
185.517	186.141	77	78
186.137	187.393	67	64
186.137	187.39	72	64
186.14	187.386	43	37
186.14	187.387	55	46
186.14	187.393	76	77
187.383	188.66	65	61
187.386	188.66	43	39
187.386	188.66	74	61
187.387	188.66	55	39
187.39	188.658	72	61
187.988	188.66	71	55
188.654	189.822	64	48
188.657	189.823	67	48
188.658	189.249	36	36
188.658	190.97	72	48
188.954	189.538	48	29
189.249	189.823	36	30
189.538	190.103	48	30
189.822	190.97	64	38
189.823	190.379	36	28
189.823	190.961	67	38
190.103	190.669	48	28
190.379	190.963	36	28
190.669	190.97	48	28
190.96	192.083	62	38
190.961	192.083	67	38
190.961	192.083	71	38
190.963	191.24	36	34
191.24	191.797	48	29
191.52	192.083	36	29
191.797	192.083	48	29
192.08	193.256	60	38
192.08	193.256	65	38
192.08	193.256	69	38
192.083	192.661	36	29
192.371	192.951	48	29
192.661	193.249	36	29
192.951	193.256	48	29
193.246	194.368	62	38
193.249	193.799	36	33
193.249	194.362	67	38
193.249	194.368	71	38
193.522	194.079	48	28
193.799	194.362	36	28
194.079	194.368	48	28
194.361	195.506	64	38
194.362	194.641	36	28
194.362	195.506	67	38
194.642	195.216	48	28
194.932	195.499	36	28
195.216	195.506	48	28
195.497	196.613	65	41
195.499	196.052	36	34
195.499	196.619	69	41
195.499	196.619	72	41
195.779	196.333	48	34
196.052	196.616	36	35
196.333	196.619	48	36
196.613	197.75	65	50
196.615	197.75	71	50
196.616	196.884	36	37
196.616	197.75	74	50
196.889	197.445	48	37
197.169	197.75	36	38
197.445	197.75	48	39
197.746	199.426	72	60
197.746	199.43	76	60
197.747	199.43	79	60
197.75	198.3	36	40
198.02	198.583	48	40
198.3	198.862	36	41
198.583	199.142	48	42
198.862	199.426	36	44
199.142	199.43	48	46
199.423	200.008	65	60
199.423	200.008	74	60
199.426	200.007	36	47
199.426	200.008	69	60
199.426	200.004	72	60
199.696	200.008	48	48
200.004	201.66	72	70
200.005	201.663	76	70
200.007	200.557	36	49
200.007	201.663	79	70
200.277	200.83	48	42
200.557	201.11	36	42
200.83	201.383	48	42
201.11	201.663	36	42
201.383	201.663	48	42
201.656	202.24	65	59
201.659	202.24	69	59
201.66	202.234	72	59
201.66	202.24	74	59
201.663	202.236	36	35
201.933	202.24	48	35
202.234	203.9	72	67
202.234	203.906	76	67
202.234	203.906	79	67
202.236	202.786	36	42
202.507	203.07	48	35
202.786	203.35	36	34
203.07	203.623	48	33
203.35	203.903	36	31
203.623	203.906	48	30
203.899	204.477	65	48
203.899	204.477	69	48
203.9	204.474	72	48
203.903	204.476	36	29
203.903	204.477	74	48
204.173	204.477	48	29
204.474	207.396	72	53
204.474	207.69	76	53
204.476	204.747	36	29
204.476	208.012	79	53
204.747	219.176	36	28
205.048	228.874	40	29
205.335	228.874	43	30
205.632	211.803	48	31
205.926	219.172	52	30
206.216	211.805	55	31
206.514	219.176	60	34
206.809	211.798	64	35
207.098	211.801	67	31
207.396	209.355	72	33
207.69	216.753	76	34
208.012	209.355	79	35
208.334	228.874	84	34
208.656	209.352	88	36
208.982	209.353	91	38
209.352	228.874	88	39
209.353	228.874	91	39
209.353	228.874	96	39
209.355	211.803	72	34
209.355	228.874	79	34
211.798	213.065	64	30
211.801	213.066	67	30
211.803	213.068	48	24
211.803	213.068	72	36
211.805	213.068	55	28
213.065	214.329	64	30
213.066	214.332	67	30
213.068	214.333	48	24
213.068	214.333	55	28
213.068	214.332	72	36
214.329	228.874	64	30
214.332	216.75	67	30
214.332	216.751	72	36
214.333	216.754	48	24
214.333	216.754	55	28
216.75	228.874	67	29
216.751	228.874	72	29
216.753	228.874	76	35
216.754	228.874	48	24
216.754	219.172	55	28
219.172	228.874	52	29
219.172	228.874	55	29
219.176	228.874	36	28
219.176	228.874	60	35
