OnsetTime	OffsetTime	MidiPitch	Velocity
0.500004	1.73853	53	40
0.500004	1.748	65	50
0.711523	1.11841	57	30
0.914969	1.32186	60	33
1.11841	1.52531	57	30
1.32186	1.748	60	34
1.32186	1.748	69	47
1.52531	1.748	57	30
1.73853	2.97044	53	40
1.73853	2.97646	72	52
1.94514	2.35203	60	29
2.14858	2.55548	63	31
2.35203	2.75892	60	27
2.55548	2.97646	63	31
2.55548	2.97646	69	46
2.75892	2.97646	60	28
2.97044	4.21661	53	40
2.97044	4.22424	70	50
3.17704	3.59026	58	30
3.38365	3.79687	62	33
3.59026	4.00674	58	30
3.79687	4.22424	62	33
3.79687	4.22424	79	47
4.00674	4.22424	58	30
4.21661	4.64217	53	40
4.21661	4.64217	77	47
4.42006	4.64217	55	23
4.42006	4.62992	76	44
4.62992	4.83979	58	28
4.62992	5.04966	76	44
4.83979	5.04966	55	24
5.04966	5.2579	58	29
5.2579	5.47285	55	24
5.47285	6.33163	53	30
5.47285	6.33163	57	30
5.47285	6.33163	77	50
5.8926	6.33163	69	46
6.30907	6.72882	74	46
6.72882	7.99477	67	50
7.15186	7.99477	72	54
7.78155	7.99477	69	45
7.99477	9.25285	53	47
7.99477	9.66064	65	50
8.41124	9.25285	45	44
8.82771	9.25285	50	48
9.24417	9.66064	43	48
9.24417	10.5001	67	50
9.66064	10.2886	48	49
9.66064	9.7127	64	42
9.7127	9.76476	65	37
9.76476	9.86887	64	48
9.86887	10.0771	62	48
10.0771	10.5001	64	50
10.2886	10.5001	45	47
10.5001	11.7464	41	52
10.5001	12.1549	65	48
10.5001	11.7464	69	48
10.9199	11.7464	50	40
10.9199	11.7464	70	52
11.3299	11.7464	46	44
11.3299	11.7464	74	55
11.7464	12.1549	45	47
11.7464	11.9514	74	58
11.9514	12.1549	72	57
12.1549	12.3583	70	56
12.3583	12.5618	69	54
12.5618	12.9718	50	40
12.5618	12.7652	67	53
12.7652	12.9718	65	51
12.9718	13.4867	46	40
12.9718	13.4867	67	54
13.3756	13.4867	70	50
13.7953	14.2218	48	41
13.7953	14.2218	58	54
13.7953	14.2218	64	54
14.2218	14.6383	41	43
14.2218	14.6383	57	56
14.2218	14.6383	65	56
15.0547	15.3671	69	32
15.0547	15.3671	72	40
15.0547	15.3671	84	50
15.3671	15.4754	67	28
15.3671	15.4754	70	35
15.3671	15.4754	82	44
15.4754	15.5795	65	32
15.4754	15.5795	69	40
15.4754	15.5795	81	50
15.8919	15.996	65	32
15.8919	15.996	69	40
15.8919	15.996	81	50
16.3126	16.6249	65	29
16.3126	16.6249	69	37
16.3126	16.6249	81	47
16.6249	16.729	60	26
16.6249	16.729	67	33
16.6249	16.729	79	42
16.729	16.8331	57	30
16.729	16.8331	65	38
16.729	16.8331	77	48
17.1455	17.2496	57	28
17.1455	17.2496	65	35
17.1455	17.2496	77	44
17.5652	17.9817	57	28
17.5652	17.9817	65	35
17.5652	17.9817	77	44
17.9817	18.0858	60	28
17.9817	18.0858	67	36
17.9817	18.0858	76	46
17.9817	18.0858	79	46
18.3981	18.5023	60	28
18.3981	18.5023	67	35
18.3981	18.5023	76	44
18.3981	18.5023	79	44
18.8146	18.9204	60	28
18.8146	18.9204	67	35
18.8146	18.9204	76	44
18.8146	18.9204	79	44
19.2376	19.6541	60	32
19.2376	19.6541	67	40
19.2376	19.6541	76	50
19.2376	19.6541	79	50
19.6541	20.0767	65	28
19.6541	20.0767	69	35
19.6541	20.0767	77	44
19.6541	20.0767	81	44
20.0767	20.4677	69	32
20.0767	20.4677	72	40
20.0767	20.2722	84	50
20.1744	20.4677	86	44
20.2722	20.4677	84	44
20.37	20.4677	67	28
20.37	20.4677	70	35
20.37	20.4677	82	44
20.4677	20.5718	65	32
20.4677	20.5718	69	40
20.4677	20.5718	81	50
20.8842	20.9883	65	32
20.8842	20.9883	69	40
20.8842	20.9883	81	50
21.3006	21.6839	65	29
21.3006	21.6839	69	37
21.3006	21.4923	81	47
21.3965	21.6839	82	42
21.4923	21.6839	81	42
21.5881	21.6839	60	26
21.5881	21.6839	67	33
21.5881	21.6839	79	42
21.6839	21.7881	57	30
21.6839	21.7881	65	38
21.6839	21.7881	77	48
22.1004	22.2045	57	28
22.1004	22.2045	65	35
22.1004	22.2045	77	44
22.5169	22.621	57	28
22.5169	22.621	65	35
22.5169	22.621	77	44
22.9333	23.3689	60	29
22.9333	23.3689	67	37
22.9333	23.3689	79	49
23.3434	23.4526	82	44
23.7803	24.2033	60	28
23.7803	24.2033	67	35
23.7803	24.2033	70	35
23.7803	24.2033	76	44
24.2033	24.6264	65	39
24.2033	24.6264	69	38
24.2033	24.6264	77	48
25.0494	25.4725	60	28
25.0494	25.4725	64	28
25.0494	25.4725	70	35
25.0494	25.4725	84	44
25.4725	25.8955	65	31
25.4725	25.8955	69	39
25.4725	25.8955	77	48
26.3185	26.7416	48	25
26.3185	26.7416	52	25
26.3185	26.7416	58	31
26.3185	26.7416	72	39
26.7416	27.1646	53	27
26.7416	27.1646	57	35
26.7416	27.1646	65	43
27.5877	28.0156	37	51
27.5877	28.0156	49	60
27.5877	28.0156	61	80
28.0156	29.2493	38	56
28.0156	29.2493	50	66
28.0156	29.2493	62	85
28.2234	28.6391	53	60
28.4313	28.8425	57	60
28.6391	29.0459	53	60
28.6391	29.2493	65	78
28.7408	29.0459	69	81
28.8425	29.2493	57	63
28.8425	29.1476	74	84
29.0459	29.2493	53	60
29.0459	29.2493	69	79
29.1476	29.2493	74	82
29.2493	30.4971	50	65
29.2493	29.5545	77	86
29.4528	29.8625	53	60
29.4528	30.2782	74	79
29.5545	30.0689	77	82
29.6562	30.0689	57	63
29.6562	29.8625	81	87
29.8625	30.2782	53	60
29.8625	30.4971	81	80
30.0689	30.4971	57	60
30.0689	30.4971	77	80
30.2782	30.4971	53	62
30.2782	30.4971	74	80
30.3876	30.4971	73	70
30.4241	30.4971	76	70
30.4606	30.4971	79	70
30.4971	31.05	40	60
30.4971	30.9219	52	71
30.4971	31.1282	82	90
30.9219	31.05	52	60
30.9219	31.05	55	60
30.9219	31.05	58	60
30.9219	31.05	61	71
31.1282	31.2417	81	71
31.2314	31.3446	79	68
31.3346	31.4451	77	68
31.435	31.5456	76	68
31.5355	31.6473	74	69
31.636	31.7595	73	72
31.7489	32.3027	40	60
31.7489	32.1737	52	71
31.7489	32.3815	82	90
32.1737	32.3027	52	60
32.1737	32.3027	55	60
32.1737	32.3027	58	60
32.1737	32.3027	61	71
32.3815	32.4958	81	71
32.4854	32.5995	79	68
32.5893	32.7007	77	68
32.6905	32.8019	76	68
32.7917	32.9031	74	69
32.8929	33.0045	73	72
32.9941	34.2246	53	66
32.9941	33.8178	74	88
33.2009	33.6144	57	60
33.4076	33.8178	62	60
33.6144	34.0212	57	60
33.6144	34.2246	65	70
33.7161	34.0212	69	72
33.8178	34.2246	62	63
33.8178	34.1229	74	84
34.0212	34.2246	57	60
34.0212	34.2246	69	71
34.1229	34.2246	74	73
34.2246	35.4723	53	65
34.2246	34.5297	77	86
34.428	34.8378	57	60
34.428	35.2535	74	71
34.5297	35.0441	77	73
34.6315	35.0441	62	63
34.6315	34.8378	81	87
34.8378	35.2535	57	60
34.8378	35.4723	81	80
35.0441	35.4723	62	60
35.0441	35.4723	77	80
35.2535	35.4723	57	62
35.2535	35.4723	74	80
35.4723	36.0252	38	60
35.4723	35.8971	50	71
35.4723	36.1035	71	75
35.4723	36.1035	74	75
35.4723	36.1035	77	75
35.4723	36.1035	80	90
35.8971	36.0252	50	60
35.8971	36.0252	53	60
35.8971	36.0252	56	60
35.8971	36.0252	59	71
36.1035	36.217	79	71
36.2067	36.32	77	68
36.3098	36.4211	75	68
36.411	36.5223	74	68
36.5122	36.6251	72	69
36.6134	36.7405	71	72
36.7299	37.2837	38	60
36.7299	37.1547	50	71
36.7299	37.3626	80	90
37.1547	37.2837	50	60
37.1547	37.2837	53	60
37.1547	37.2837	56	60
37.1547	37.2837	59	71
37.3626	37.4769	79	71
37.4665	37.5806	77	68
37.5704	37.6825	75	68
37.6723	37.7844	74	68
37.7742	37.8863	72	69
37.8761	37.9884	71	72
37.978	39.2085	51	66
37.978	38.5983	72	88
38.1848	38.5983	55	60
38.3915	38.8017	60	60
38.4949	38.7	67	69
38.5983	39.0051	55	60
38.5983	38.9034	72	74
38.7	40.4692	67	70
38.8017	39.6311	60	63
38.8017	39.0051	75	74
38.9034	39.1068	72	71
39.0051	39.4119	55	60
39.0051	39.3102	75	75
39.1068	40.464	72	70
39.2085	40.4692	51	66
39.2085	39.4119	79	74
39.3102	39.5136	75	71
39.4119	39.836	55	60
39.4119	40.4692	79	74
39.5136	40.4692	75	71
39.6311	40.0453	60	60
39.6311	40.4692	84	91
39.836	40.2546	55	60
40.0453	40.4692	60	63
40.2546	40.4692	55	60
40.464	41.6977	48	66
40.464	41.0874	72	88
40.6718	41.0874	51	60
40.8796	41.2909	56	60
40.9835	41.1891	68	69
41.0874	41.4943	51	60
41.0874	41.3926	72	74
41.1891	42.9583	68	70
41.2909	42.1203	56	63
41.2909	41.4943	75	74
41.3926	41.596	72	71
41.4943	41.9011	51	60
41.4943	41.7994	75	75
41.596	42.9531	72	70
41.6977	42.9583	48	66
41.6977	41.9011	80	74
41.7994	42.0028	75	71
41.9011	42.3251	51	60
41.9011	42.9583	80	74
42.0028	42.9583	75	71
42.1203	42.5345	56	60
42.1203	42.9583	84	91
42.3251	42.7438	51	60
42.5345	42.9583	56	63
42.7438	42.9583	51	60
42.9531	44.1869	44	66
42.9531	43.5766	72	88
43.161	43.5766	48	60
43.3688	43.78	51	60
43.4727	43.6783	66	69
43.5766	43.9834	48	60
43.5766	43.8817	72	74
43.6783	45.3539	66	70
43.78	44.6094	51	63
43.78	43.9834	75	74
43.8817	44.0852	72	71
43.9834	44.3903	48	60
43.9834	44.2886	75	75
44.0852	45.3539	72	70
44.1869	45.3539	44	66
44.1869	44.3903	78	74
44.2886	44.492	75	71
44.3903	44.8143	48	60
44.3903	45.0236	78	74
44.492	45.3539	75	71
44.6094	45.0236	51	60
44.6094	45.3539	84	91
44.8143	45.2383	48	60
45.0236	45.3539	51	63
45.0236	45.3539	78	81
45.2383	45.3539	48	60
45.3456	45.3821	67	70
45.3821	45.4186	71	70
45.4186	46.3139	74	70
45.4551	46.3139	43	66
45.4551	46.3139	79	90
45.6666	46.3139	47	60
45.8781	46.3139	50	60
46.0896	46.3139	55	60
46.3012	46.5052	48	63
46.3012	46.4117	77	72
46.4032	46.5137	75	72
46.5052	46.7201	51	60
46.5052	46.6166	74	73
46.6072	46.7201	72	76
46.7201	47.5679	43	66
46.7201	47.5679	79	90
46.9286	47.5679	47	60
47.137	47.5679	50	60
47.3449	47.5679	55	60
47.5527	47.7553	48	63
47.5527	47.6625	77	72
47.654	47.7638	75	72
47.7553	47.958	51	60
47.7553	47.8651	74	73
47.8566	47.958	72	76
47.958	48.5833	43	72
47.958	48.5833	79	90
47.9675	48.5892	55	72
48.58	48.6901	56	63
48.58	48.6901	80	79
48.6816	48.7933	55	62
48.6816	48.7933	79	78
48.7846	48.8979	53	60
48.7846	48.8979	77	76
48.8892	49.0041	51	60
48.8892	49.0041	75	75
48.9952	49.113	50	59
48.9952	49.113	74	74
49.1031	49.2309	48	57
49.1031	49.2309	72	72
49.2219	49.33	55	63
49.2219	49.33	79	79
49.6544	49.7626	43	57
49.6544	49.7626	67	72
50.3573	50.8897	48	35
50.4114	50.8897	55	35
50.4655	50.8897	67	41
50.5195	50.9426	60	35
50.5195	50.8897	76	45
50.9426	51.0483	76	43
51.3656	51.4874	76	43
51.6625	52.4865	55	34
51.7158	52.4865	62	34
51.7691	52.4865	71	42
51.8224	52.4865	65	35
51.8224	52.4865	79	45
52.4616	52.6747	77	41
52.6747	53.1172	74	41
53.1172	53.5494	48	35
53.1172	53.5494	64	45
53.1172	53.5494	74	45
53.3303	53.5434	72	41
53.5434	54.3822	52	31
53.5434	54.3822	67	45
53.5434	54.3822	72	45
53.9573	54.3822	55	31
54.1643	54.3822	71	45
54.1643	54.3822	74	45
54.3822	55.1404	60	35
54.3822	55.2347	71	49
54.3822	55.2347	74	49
54.8116	55.2347	48	31
55.2347	55.6705	72	45
55.2347	55.6705	76	45
55.6705	56.5326	57	35
55.6705	56.3568	77	45
56.1002	56.5326	60	33
56.1002	56.5326	65	33
56.3043	56.5143	79	46
56.3568	56.4618	77	42
56.4093	56.5326	76	42
56.4618	56.5326	77	45
56.5143	56.9499	79	49
56.7242	56.9422	81	47
56.9422	57.7847	59	38
56.9422	57.3656	81	55
57.1491	57.3656	79	49
57.3561	57.7847	62	35
57.3561	57.7847	67	35
57.3561	57.7847	78	52
57.5631	57.7847	79	45
57.7701	58.2011	77	50
57.9771	58.2011	74	45
58.1966	58.6228	60	41
58.1966	58.6382	75	49
58.4097	58.6382	76	45
58.6228	59.045	57	37
58.6228	59.045	60	37
58.6228	59.045	77	50
58.8283	59.045	76	45
59.0338	59.4667	53	35
59.0338	59.4667	62	35
59.0338	59.4667	79	49
59.2393	59.4667	77	45
59.4623	59.891	55	41
59.4623	59.891	59	41
59.4623	59.891	76	52
59.6754	59.891	74	45
59.8824	60.0894	72	48
60.0894	60.2963	71	45
60.2963	60.5094	69	46
60.5094	60.7225	67	45
60.7225	61.1487	60	39
60.7225	61.1487	75	49
60.8646	61.1593	64	31
60.9356	61.1593	76	42
61.0066	61.1593	67	31
61.1487	61.5748	60	39
61.1487	61.5748	75	49
61.2907	61.5852	64	32
61.3618	61.5852	76	41
61.4328	61.5852	67	32
61.5748	62.015	60	40
61.5748	62.015	75	52
61.7127	62.015	64	32
61.7816	62.015	76	48
61.8552	62.015	67	32
62.0026	62.4282	59	43
62.0026	62.4282	78	58
62.1445	62.438	62	36
62.2154	62.438	79	53
62.2864	62.438	67	35
62.4282	62.8539	59	40
62.4282	62.8646	78	58
62.5701	62.8646	62	33
62.6411	62.8646	79	46
62.712	62.8646	67	29
62.8539	63.2877	59	37
62.8539	63.2877	77	46
62.9958	63.2877	65	29
63.0668	63.2877	74	37
63.1404	63.2877	67	29
63.2877	63.7195	60	29
63.2877	63.7195	64	35
63.2877	63.7134	74	45
63.5006	63.7195	72	41
63.7134	64.136	52	31
63.7134	64.136	67	41
63.7134	64.136	74	45
63.9204	64.136	72	41
64.1274	64.5523	55	31
64.1274	64.5523	71	41
64.1274	64.5523	76	45
64.3344	64.5523	74	45
64.5523	65.3104	60	35
64.5523	65.4047	71	49
64.5523	65.3104	74	49
64.9817	65.4047	55	31
65.1932	65.4047	75	49
65.4047	65.8406	48	31
65.4047	65.8406	72	45
65.4047	65.8406	76	45
65.8406	66.6843	57	35
65.8406	66.5268	77	45
66.0618	66.4743	60	31
66.2703	66.7027	65	32
66.4743	66.7027	60	33
66.4743	66.6843	79	46
66.5268	66.6318	77	42
66.5793	66.7027	76	42
66.6318	66.7027	77	45
66.6843	67.12	57	35
66.6843	67.12	79	49
66.8943	67.12	60	38
66.8943	67.1122	81	47
67.1122	67.5357	59	40
67.1122	67.5357	81	55
67.3192	67.5357	62	35
67.3192	67.5357	79	49
67.5262	67.9548	67	42
67.5262	67.9548	78	52
67.7331	67.9548	62	35
67.7331	67.9548	79	45
67.9401	68.3711	59	35
67.9401	68.3711	77	50
68.1471	68.3711	62	34
68.1471	68.3711	74	45
68.3667	68.8083	60	41
68.3667	68.8083	75	49
68.5798	68.8083	76	45
68.7929	69.215	53	37
68.7929	69.215	62	37
68.7929	69.215	79	50
68.9984	69.215	77	45
69.2039	69.6368	55	35
69.2039	69.6368	65	35
69.2039	69.6368	74	49
69.4094	69.6368	71	45
69.6323	70.0495	60	32
69.6323	70.0495	64	37
69.6323	70.0495	72	52
69.8454	70.0495	67	34
70.0495	70.4576	64	40
70.2535	70.3556	67	34
70.4576	70.8732	60	37
70.6616	70.7674	67	34
70.8732	71.2842	62	40
70.8732	70.9759	65	34
70.8732	70.9759	67	40
71.0787	71.1814	65	28
71.0787	71.1814	67	33
71.2842	71.6923	59	38
71.4882	71.5903	65	28
71.4882	71.5903	67	33
71.6923	72.1109	55	38
71.8978	72.0043	65	28
71.8978	72.0043	67	33
72.1109	72.519	48	40
72.1109	72.2129	63	34
72.1109	72.2129	67	40
72.3149	72.417	63	28
72.3149	72.417	67	34
72.519	72.9271	51	40
72.723	72.8251	63	28
72.723	72.8251	67	34
72.9271	73.3427	48	37
73.1312	73.2369	63	28
73.1312	73.2369	67	34
73.3427	73.7508	50	40
73.3427	73.4447	65	34
73.3427	73.4447	67	40
73.5467	73.6488	65	28
73.5467	73.6488	67	33
73.7508	74.1589	47	38
73.9549	74.0569	65	28
73.9549	74.0569	67	33
74.1589	74.576	43	38
74.363	74.4695	65	28
74.363	74.4695	67	33
74.576	74.9935	36	58
74.576	74.9935	48	69
74.576	74.7801	63	63
74.576	74.7801	67	63
74.7801	74.9935	63	50
74.7801	74.9935	67	50
74.9842	75.4016	51	40
75.1882	75.4016	63	33
75.1882	75.4016	67	33
75.3923	75.8048	55	40
75.5963	75.8048	63	33
75.5963	75.8048	67	33
75.8048	76.218	41	58
75.8048	76.218	53	69
75.8048	76.0046	63	63
75.8048	76.0046	68	63
76.0046	76.218	63	50
76.0046	76.218	68	50
76.2087	76.6261	56	40
76.4127	76.6261	63	33
76.4127	76.6261	68	33
76.6168	77.0293	60	40
76.8208	77.0293	63	33
76.8208	77.0293	68	33
77.0293	77.4412	34	58
77.0293	77.4412	46	69
77.0293	77.2278	62	63
77.0293	77.2278	68	63
77.2278	77.4412	62	50
77.2278	77.4412	68	50
77.4319	77.8493	50	40
77.6359	77.8493	62	33
77.6359	77.8493	68	33
77.84	78.251	53	40
78.044	78.251	62	33
78.044	78.251	68	33
78.251	78.6629	39	58
78.251	78.6629	51	69
78.251	78.4495	62	63
78.251	78.4495	67	63
78.4495	78.6629	62	50
78.4495	78.6629	67	50
78.6535	79.071	55	40
78.8576	79.071	62	33
78.8576	79.071	67	33
79.0616	79.4757	58	40
79.2657	79.4757	62	33
79.2657	79.4757	67	33
79.4757	79.8847	32	58
79.4757	79.8847	44	69
79.4757	79.6755	60	63
79.4757	79.6755	67	63
79.6755	79.8847	60	50
79.6755	79.8847	67	50
79.8753	80.2863	56	40
80.0808	80.2863	60	33
80.0808	80.2863	67	33
80.2863	80.6981	38	58
80.2863	80.6981	50	69
80.2863	80.4875	60	63
80.2863	80.4875	65	63
80.4875	80.6981	60	50
80.4875	80.6981	65	50
80.6888	81.0969	62	40
80.8928	81.0969	60	33
80.8928	81.0969	65	33
81.0969	81.5031	31	58
81.0969	81.5031	43	69
81.0969	81.2953	59	63
81.0969	81.2953	65	63
81.2953	81.5031	59	50
81.2953	81.5031	65	50
81.4938	81.9069	55	40
81.6978	81.9069	59	33
81.6978	81.9069	65	33
81.9019	82.3137	56	45
82.1031	82.3137	60	33
82.1031	82.3137	63	33
82.3043	82.7229	55	39
82.5084	82.7229	60	33
82.5084	82.7229	63	33
82.7124	83.1319	54	39
82.9222	83.1319	60	33
82.9222	83.1319	63	33
83.1319	83.5475	55	44
83.1319	83.3434	59	32
83.1319	83.3434	62	38
83.3434	83.556	63	31
83.3434	83.556	67	37
83.5475	83.7601	62	28
83.5475	83.7601	65	33
83.7515	83.9641	60	26
83.7515	83.9641	63	31
83.9556	84.1685	59	28
83.9556	84.1685	62	33
84.1596	84.3727	54	41
84.1596	84.3812	60	25
84.1596	84.3812	63	30
84.3727	84.7808	55	44
84.3727	84.5768	59	32
84.3727	84.5768	62	38
84.5768	84.7893	63	31
84.5768	84.7893	67	37
84.7808	84.9934	62	28
84.7808	84.9934	65	33
84.9849	85.1974	60	26
84.9849	85.1974	63	31
85.1889	85.4018	59	28
85.1889	85.4018	62	33
85.393	85.613	54	32
85.393	85.613	60	25
85.393	85.613	63	30
85.6045	85.8171	55	39
85.6045	85.8171	59	31
85.6045	85.8171	62	37
85.8085	86.0211	54	35
85.8085	86.0211	60	27
85.8085	86.0211	63	32
86.0126	86.2252	55	39
86.0126	86.2252	59	31
86.0126	86.2252	62	37
86.2166	86.4292	54	31
86.2166	86.4292	60	28
86.2166	86.4292	63	34
86.4207	86.6332	55	39
86.4207	86.6332	59	31
86.4207	86.6332	62	37
86.6247	86.8373	54	32
86.6247	86.8373	60	28
86.6247	86.8373	63	34
86.8288	87.2369	55	38
86.8288	87.0328	59	31
86.8288	87.0328	62	37
87.0328	87.2454	58	33
87.0328	87.2454	61	33
87.2369	87.4506	59	35
87.2369	87.4506	62	35
87.4419	87.6587	61	36
87.4419	87.6587	64	36
87.65	87.8699	62	38
87.65	87.8699	65	38
87.861	88.083	64	40
87.861	88.083	67	40
88.0741	88.5002	53	33
88.0741	88.5002	65	35
88.0741	88.5002	69	42
88.5002	88.9264	53	31
88.5002	88.9264	60	34
88.5002	88.9264	65	34
88.5002	88.9264	69	40
88.9264	89.359	53	31
88.9264	89.359	60	34
88.9264	89.359	65	34
88.9264	89.359	69	40
89.359	90.2105	53	33
89.359	90.6436	60	35
89.359	90.2105	65	35
89.359	90.2105	69	42
90.2051	90.6436	48	31
90.2051	90.6436	64	28
90.2051	90.6436	67	34
90.6436	91.0652	43	33
90.6436	91.0652	59	35
90.6436	91.0652	62	35
90.6436	91.0901	67	42
90.8521	91.0652	65	38
91.0652	91.4914	43	30
91.0652	91.4914	59	35
91.0652	91.4914	62	35
91.0652	91.4914	65	42
91.4914	91.9305	43	30
91.4914	91.9305	59	32
91.4914	91.9305	62	32
91.4914	91.9305	65	38
91.9305	92.7874	43	33
91.9305	92.7874	59	35
91.9305	92.7874	62	35
91.9305	92.7874	65	42
92.7766	93.206	45	30
92.7766	93.206	60	33
92.7766	93.206	64	39
93.206	93.6267	41	33
93.206	93.6214	64	35
93.206	93.6267	67	42
93.4114	93.6267	62	31
93.4114	93.6267	65	37
93.6214	94.0414	43	32
93.6214	94.0458	60	35
93.6214	94.0458	64	42
94.0414	94.4675	43	32
94.0414	94.4675	59	30
94.0414	94.4675	62	36
94.4675	94.8977	48	33
94.4675	94.6871	60	35
94.4675	94.6871	64	42
94.6871	94.8802	72	35
94.8977	95.0894	74	37
95.1068	95.2974	76	38
95.3146	95.504	77	40
95.5211	95.7094	79	41
95.7264	96.1525	60	28
95.7264	96.1525	65	33
95.7264	96.1525	81	46
96.1525	96.5787	60	26
96.1525	96.5787	65	31
96.1525	96.5787	81	44
96.5787	97.0113	60	26
96.5787	97.0113	65	31
96.5787	97.0113	81	44
97.0113	98.2899	60	28
97.0113	97.8627	65	33
97.0113	97.7516	81	46
97.6458	97.8627	83	39
97.7516	97.8627	81	39
97.8573	98.2899	64	31
97.8573	98.2899	79	46
98.2899	98.7115	55	28
98.2899	98.7115	62	33
98.2899	98.7115	71	35
98.2899	98.7363	79	46
98.4984	98.7115	77	41
98.7115	99.1376	55	25
98.7115	99.1376	62	30
98.7115	99.1376	71	35
98.7115	99.1376	77	46
99.1376	99.5768	55	25
99.1376	99.5768	62	30
99.1376	99.5768	71	32
99.1376	99.5768	77	41
99.5768	100.434	55	28
99.5768	100.434	62	33
99.5768	100.434	71	35
99.5768	100.434	77	46
100.423	100.852	57	25
100.423	100.852	60	30
100.423	100.852	72	33
100.423	100.852	76	42
100.852	101.273	53	33
100.852	101.268	76	35
100.852	101.273	79	46
101.058	101.273	74	31
101.058	101.273	77	40
101.268	101.692	55	32
101.268	101.692	72	35
101.268	101.692	76	46
101.688	102.114	53	32
101.688	102.114	71	30
101.688	102.114	74	39
102.114	102.437	40	58
102.114	102.437	52	69
102.114	102.314	76	63
102.114	102.314	79	63
102.314	102.437	76	50
102.314	102.437	79	50
102.513	102.614	56	40
102.715	102.815	74	33
102.715	102.815	77	33
102.916	103.018	57	40
103.12	103.222	72	33
103.12	103.222	76	33
103.324	103.426	53	40
103.528	103.63	65	33
103.528	103.63	74	33
103.732	103.832	55	40
103.932	104.032	64	33
103.932	104.032	72	33
104.132	104.235	53	40
104.337	104.44	62	33
104.337	104.44	71	33
104.543	104.962	40	75
104.543	104.962	52	75
104.646	104.851	76	72
104.748	104.962	79	75
104.851	104.962	76	72
104.954	105.363	44	73
104.954	105.363	56	73
105.054	105.254	74	70
105.154	105.363	77	75
105.254	105.363	74	70
105.353	105.77	45	73
105.353	105.77	57	73
105.456	105.662	72	72
105.559	105.77	76	75
105.662	105.77	72	71
105.764	106.18	41	75
105.764	106.18	53	75
105.866	106.068	65	71
105.967	106.18	74	75
106.068	106.18	65	71
106.17	106.572	43	73
106.17	106.572	55	73
106.27	106.472	64	71
106.371	106.581	72	75
106.472	106.581	64	71
106.572	106.986	43	73
106.572	106.986	55	73
106.676	106.883	62	71
106.779	106.986	71	75
106.883	106.986	62	71
106.986	107.399	48	64
106.986	107.816	64	75
106.986	107.816	67	75
106.986	107.816	72	75
107.088	107.5	52	59
107.193	107.602	55	59
107.296	107.705	60	59
107.399	107.807	48	63
107.5	107.816	52	58
107.602	107.816	55	58
107.705	107.816	60	58
107.807	108.231	48	63
107.807	107.91	76	70
107.859	107.962	77	65
107.91	108.239	52	57
107.91	108.015	76	70
107.962	108.051	77	66
108.015	108.239	55	58
108.015	108.086	76	70
108.051	108.239	77	66
108.086	108.239	76	66
108.122	108.239	60	58
108.122	108.239	74	70
108.176	108.239	72	66
108.231	108.634	48	63
108.231	109.041	79	75
108.332	108.738	52	58
108.434	108.838	55	59
108.534	108.94	60	59
108.634	109.033	48	63
108.738	109.033	52	57
108.838	109.033	55	57
108.94	109.041	60	57
109.041	109.463	48	63
109.041	109.144	83	70
109.092	109.196	84	66
109.144	109.463	53	57
109.144	109.249	83	70
109.196	109.285	84	66
109.249	109.463	55	57
109.249	109.32	83	70
109.285	109.463	84	65
109.32	109.463	83	66
109.356	109.463	62	57
109.356	109.463	81	70
109.41	109.463	79	65
109.463	109.874	48	63
109.463	110.301	84	75
109.566	109.977	52	57
109.669	110.079	55	57
109.771	110.182	60	57
109.874	110.292	48	63
109.977	110.301	52	57
110.079	110.301	55	57
110.182	110.301	60	57
110.292	110.716	48	63
110.292	110.395	76	70
110.344	110.447	77	65
110.395	110.724	52	57
110.395	110.5	76	70
110.447	110.535	77	66
110.5	110.724	55	58
110.5	110.571	76	70
110.535	110.724	77	66
110.571	110.724	76	66
110.607	110.724	60	58
110.607	110.724	74	70
110.661	110.724	72	66
110.716	111.119	48	63
110.716	111.112	79	75
110.817	111.223	52	58
110.919	111.323	55	59
111.019	111.425	60	59
111.112	111.519	79	75
111.119	111.519	48	63
111.223	111.519	52	57
111.323	111.519	55	57
111.425	111.526	60	57
111.526	111.94	48	63
111.526	111.629	83	70
111.577	111.681	84	66
111.629	111.943	53	57
111.629	111.734	83	70
111.681	111.769	84	66
111.734	111.94	55	57
111.734	111.805	83	70
111.769	111.943	84	65
111.805	111.943	83	66
111.841	111.948	62	57
111.841	111.943	81	70
111.895	111.948	79	65
111.94	112.131	48	63
111.94	112.131	52	63
111.94	112.131	55	63
111.94	112.131	60	63
111.948	112.131	84	75
112.372	113.019	52	58
112.372	113.019	64	69
112.372	113.019	88	88
112.983	113.187	44	63
112.983	113.187	56	63
112.983	113.187	80	75
113.187	113.351	45	63
113.187	113.351	57	63
113.187	113.351	81	75
113.616	114.237	48	60
113.616	114.237	60	71
113.616	114.237	84	89
114.227	114.431	52	63
114.227	114.431	76	75
114.431	114.534	53	56
114.431	114.534	77	70
114.483	114.586	55	52
114.483	114.586	79	65
114.534	114.638	53	56
114.534	114.638	77	70
114.586	114.672	55	52
114.586	114.672	79	66
114.638	114.707	53	56
114.638	114.707	77	70
114.672	114.845	55	52
114.672	114.845	79	66
114.707	114.854	53	52
114.707	114.854	77	66
114.741	114.854	52	56
114.741	114.854	76	70
114.793	114.854	50	52
114.793	114.854	74	66
114.845	114.948	55	63
114.845	114.948	79	84
115.258	115.39	43	56
115.258	115.39	55	67
115.258	115.39	74	72
115.258	115.39	79	72
115.258	115.39	83	86
115.684	115.852	48	60
115.684	115.852	60	72
115.684	115.852	76	72
115.684	115.852	79	72
115.684	115.852	84	86
116.11	116.372	36	58
116.11	116.372	48	69
116.11	116.372	60	79
116.961	118.2	53	40
116.961	118.209	65	50
117.173	117.579	57	30
117.376	117.783	60	33
117.579	117.986	57	30
117.783	118.209	60	34
117.783	118.209	69	47
117.986	118.209	57	30
118.2	119.431	53	40
118.2	119.438	72	52
118.406	118.813	60	29
118.61	119.017	63	31
118.813	119.22	60	27
119.017	119.438	63	31
119.017	119.438	69	46
119.22	119.438	60	28
119.431	120.678	53	40
119.431	120.685	70	50
119.638	120.051	58	30
119.845	120.258	62	33
120.051	120.468	58	30
120.258	120.685	62	33
120.258	120.685	79	47
120.468	120.685	58	30
120.678	121.103	53	40
120.678	121.103	77	47
120.881	121.103	55	23
120.881	121.091	76	44
121.091	121.301	58	28
121.091	121.511	76	44
121.301	121.511	55	24
121.511	121.719	58	29
121.719	121.938	55	24
121.938	122.797	53	30
121.938	122.797	57	30
121.938	122.797	77	50
122.358	122.797	69	46
122.774	123.194	74	46
123.194	124.46	67	50
123.617	124.46	72	54
124.247	124.46	69	45
124.46	125.718	53	47
124.46	126.126	65	50
124.877	125.718	45	44
125.293	125.718	50	48
125.71	126.126	43	48
125.71	126.966	67	50
126.126	126.754	48	49
126.126	126.178	64	42
126.178	126.23	65	37
126.23	126.334	64	48
126.334	126.542	62	48
126.542	126.966	64	50
126.754	126.966	45	47
126.966	128.212	41	52
126.966	128.62	65	48
126.966	128.212	69	48
127.385	128.212	50	40
127.385	128.212	70	52
127.795	128.212	46	44
127.795	128.212	74	55
128.212	128.62	45	47
128.212	128.417	74	58
128.417	128.62	72	57
128.62	128.824	70	56
128.824	129.027	69	54
129.027	129.437	50	40
129.027	129.231	67	53
129.231	129.437	65	51
129.437	129.952	46	40
129.437	129.952	67	54
129.841	129.952	70	50
130.261	130.687	48	41
130.261	130.687	58	54
130.261	130.687	64	54
130.687	131.104	41	43
130.687	131.104	57	56
130.687	131.104	65	56
131.52	131.832	69	32
131.52	131.832	72	40
131.52	131.832	84	50
131.832	131.941	67	28
131.832	131.941	70	35
131.832	131.941	82	44
131.941	132.045	65	32
131.941	132.045	69	40
131.941	132.045	81	50
132.357	132.461	65	32
132.357	132.461	69	40
132.357	132.461	81	50
132.778	133.09	65	29
132.778	133.09	69	37
132.778	133.09	81	47
133.09	133.194	60	26
133.09	133.194	67	33
133.09	133.194	79	42
133.194	133.299	57	30
133.194	133.299	65	38
133.194	133.299	77	48
133.611	133.715	57	28
133.611	133.715	65	35
133.611	133.715	77	44
134.031	134.447	57	28
134.031	134.447	65	35
134.031	134.447	77	44
134.447	134.551	60	28
134.447	134.551	67	36
134.447	134.551	76	46
134.447	134.551	79	46
134.864	134.968	60	28
134.864	134.968	67	35
134.864	134.968	76	44
134.864	134.968	79	44
135.28	135.386	60	28
135.28	135.386	67	35
135.28	135.386	76	44
135.28	135.386	79	44
135.703	136.119	60	32
135.703	136.119	67	40
135.703	136.119	76	50
135.703	136.119	79	50
136.119	136.545	65	28
136.119	136.545	69	35
136.119	136.545	77	44
136.119	136.545	81	44
136.545	136.934	69	32
136.545	136.934	72	40
136.545	136.739	84	50
136.642	136.934	86	44
136.739	136.934	84	44
136.836	136.934	67	28
136.836	136.934	70	35
136.836	136.934	82	44
136.934	137.038	65	32
136.934	137.038	69	40
136.934	137.038	81	50
137.35	137.454	65	32
137.35	137.454	69	40
137.35	137.454	81	50
137.767	138.17	65	29
137.767	138.17	69	37
137.767	137.961	81	47
137.864	138.17	82	42
137.961	138.17	81	42
138.058	138.17	60	26
138.058	138.17	67	33
138.058	138.17	79	42
138.17	138.274	57	30
138.17	138.274	65	38
138.17	138.274	77	48
138.586	138.691	57	28
138.586	138.691	65	35
138.586	138.691	77	44
139.003	139.107	57	28
139.003	139.107	65	35
139.003	139.107	77	44
139.419	139.855	60	29
139.419	139.855	67	37
139.419	139.855	79	49
139.829	139.939	82	44
140.266	140.689	60	28
140.266	140.689	67	35
140.266	140.689	70	35
140.266	140.689	76	44
140.689	141.112	65	39
140.689	141.112	69	38
140.689	141.112	77	48
141.536	141.959	60	28
141.536	141.959	64	28
141.536	141.959	70	35
141.536	141.959	84	44
141.959	142.382	65	31
141.959	142.382	69	39
141.959	142.382	77	48
142.805	143.228	48	25
142.805	143.228	52	25
142.805	143.228	58	31
142.805	143.228	72	39
143.228	143.651	53	27
143.228	143.651	57	35
143.228	143.651	65	43
144.074	144.502	37	51
144.074	144.502	49	60
144.074	144.502	61	80
144.502	145.735	38	56
144.502	145.735	50	66
144.502	145.735	62	85
144.71	145.125	53	60
144.917	145.329	57	60
145.125	145.532	53	60
145.125	145.735	65	70
145.227	145.532	69	72
145.329	145.735	57	63
145.329	145.634	74	84
145.532	145.735	53	60
145.532	145.735	69	71
145.634	145.735	74	73
145.735	146.983	50	65
145.735	146.041	77	86
145.939	146.349	53	60
145.939	146.764	74	71
146.041	146.555	77	73
146.142	146.555	57	63
146.142	146.349	81	87
146.349	146.764	53	60
146.349	146.983	81	80
146.555	146.983	57	60
146.555	146.983	77	80
146.764	146.983	53	62
146.764	146.983	74	80
146.874	146.983	73	70
146.91	146.983	76	70
146.947	146.983	79	70
146.983	147.536	40	60
146.983	147.408	52	71
146.983	147.614	82	90
147.408	147.536	52	60
147.408	147.536	55	60
147.408	147.536	58	60
147.408	147.536	61	71
147.614	147.728	81	71
147.717	147.831	79	68
147.821	147.931	77	68
147.921	148.032	76	68
148.022	148.133	74	69
148.122	148.246	73	72
148.235	148.789	40	60
148.235	148.66	52	71
148.235	148.868	82	90
148.66	148.789	52	60
148.66	148.789	55	60
148.66	148.789	58	60
148.66	148.789	61	71
148.868	148.977	81	71
148.967	149.077	79	68
149.067	149.179	77	68
149.169	149.281	76	68
149.271	149.383	74	69
149.373	149.485	73	72
149.475	150.709	53	66
149.475	150.302	74	88
149.683	150.098	57	60
149.89	150.302	62	60
150.098	150.505	57	60
150.098	150.709	65	70
150.2	150.505	69	72
150.302	150.709	62	63
150.302	150.607	74	84
150.505	150.709	57	60
150.505	150.709	69	71
150.607	150.709	74	73
150.709	151.956	53	65
150.709	151.014	77	86
150.912	151.322	57	60
150.912	151.737	74	71
151.014	151.528	77	73
151.115	151.528	62	63
151.115	151.322	81	87
151.322	151.737	57	60
151.322	151.956	81	80
151.528	151.956	62	60
151.528	151.956	77	80
151.737	151.956	57	62
151.737	151.956	74	80
151.956	152.507	38	60
151.956	152.381	50	71
151.956	152.584	71	75
151.956	152.584	74	75
151.956	152.584	77	75
151.956	152.584	80	90
152.381	152.507	50	60
152.381	152.507	53	60
152.381	152.507	56	60
152.381	152.507	59	71
152.584	152.695	79	71
152.685	152.796	77	68
152.786	152.897	75	68
152.887	152.998	74	68
152.988	153.101	72	69
153.089	153.217	71	72
153.206	153.76	38	60
153.206	153.631	50	71
153.206	153.839	80	90
153.631	153.76	50	60
153.631	153.76	53	60
153.631	153.76	56	60
153.631	153.76	59	71
153.839	153.953	79	71
153.943	154.057	77	68
154.046	154.159	75	68
154.149	154.262	74	68
154.252	154.365	72	69
154.354	154.467	71	72
154.457	155.691	51	66
154.457	155.08	72	88
154.665	155.08	55	60
154.873	155.284	60	60
154.977	155.182	67	69
155.08	155.487	55	60
155.08	155.386	72	74
155.182	156.951	67	70
155.284	156.113	60	63
155.284	155.487	75	74
155.386	155.589	72	71
155.487	155.894	55	60
155.487	155.792	75	75
155.589	156.946	72	70
155.691	156.951	51	66
155.691	155.894	79	74
155.792	155.996	75	71
155.894	156.318	55	60
155.894	156.951	79	74
155.996	156.951	75	71
156.113	156.528	60	60
156.113	156.951	84	91
156.318	156.737	55	60
156.528	156.951	60	63
156.737	156.951	55	60
156.946	158.18	48	66
156.946	157.57	72	88
157.154	157.57	51	60
157.362	157.773	56	60
157.466	157.671	68	69
157.57	157.976	51	60
157.57	157.875	72	74
157.671	159.441	68	70
157.773	158.602	56	63
157.773	157.976	75	74
157.875	158.078	72	71
157.976	158.383	51	60
157.976	158.282	75	75
158.078	159.435	72	70
158.18	159.441	48	66
158.18	158.383	80	74
158.282	158.485	75	71
158.383	158.807	51	60
158.383	159.441	80	74
158.485	159.441	75	71
158.602	159.017	56	60
158.602	159.441	84	91
158.807	159.226	51	60
159.017	159.441	56	63
159.226	159.441	51	60
159.435	160.669	44	66
159.435	160.059	72	88
159.643	160.059	48	60
159.851	160.262	51	60
159.955	160.161	66	69
160.059	160.466	48	60
160.059	160.364	72	74
160.161	161.836	66	70
160.262	161.092	51	63
160.262	160.466	75	74
160.364	160.567	72	71
160.466	160.872	48	60
160.466	160.771	75	75
160.567	161.836	72	70
160.669	161.836	44	66
160.669	160.872	78	74
160.771	160.974	75	71
160.872	161.297	48	60
160.872	161.506	78	74
160.974	161.836	75	71
161.092	161.506	51	60
161.092	161.836	84	91
161.297	161.721	48	60
161.506	161.836	51	63
161.506	161.836	78	81
161.721	161.836	48	60
161.828	161.864	67	70
161.864	161.901	71	70
161.901	162.796	74	70
161.937	162.796	43	66
161.937	162.796	79	90
162.149	162.796	47	60
162.36	162.796	50	60
162.572	162.796	55	60
162.783	162.984	48	63
162.783	162.892	77	72
162.884	162.993	75	72
162.984	163.198	51	60
162.984	163.094	74	73
163.085	163.198	72	76
163.198	164.045	43	66
163.198	164.045	79	90
163.406	164.045	47	60
163.615	164.045	50	60
163.822	164.045	55	60
164.03	164.229	48	63
164.03	164.138	77	72
164.129	164.237	75	72
164.229	164.427	51	60
164.229	164.336	74	73
164.328	164.427	72	76
164.427	165.052	43	72
164.427	165.052	79	90
164.436	165.058	55	72
165.049	165.159	56	63
165.049	165.159	80	79
165.15	165.262	55	62
165.15	165.262	79	78
165.253	165.367	53	60
165.253	165.367	77	76
165.358	165.473	51	60
165.358	165.473	75	75
165.464	165.582	50	59
165.464	165.582	74	74
165.572	165.7	48	57
165.572	165.7	72	72
165.691	165.799	55	63
165.691	165.799	79	79
166.123	166.231	43	57
166.123	166.231	67	72
166.826	167.359	48	35
166.88	167.359	55	35
166.934	167.359	67	41
166.988	167.411	60	35
166.988	167.359	76	45
167.411	167.517	76	43
167.834	167.956	76	43
168.131	168.955	55	34
168.185	168.955	62	34
168.238	168.955	71	42
168.291	168.955	65	35
168.291	168.955	79	45
168.93	169.144	77	41
169.144	169.586	74	41
169.586	170.018	48	35
169.586	170.018	64	45
169.586	170.018	74	45
169.799	170.012	72	41
170.012	170.851	52	31
170.012	170.851	67	45
170.012	170.851	72	45
170.426	170.851	55	31
170.633	170.851	71	45
170.633	170.851	74	45
170.851	171.609	60	35
170.851	171.704	71	49
170.851	171.704	74	49
171.28	171.704	48	31
171.704	172.139	72	45
171.704	172.139	76	45
172.139	173.001	57	35
172.139	172.826	77	45
172.569	173.001	60	33
172.569	173.001	65	33
172.773	172.983	79	46
172.826	172.931	77	42
172.878	173.001	76	42
172.931	173.001	77	45
172.983	173.419	79	49
173.193	173.411	81	47
173.411	174.254	59	38
173.411	173.834	81	55
173.618	173.834	79	49
173.825	174.254	62	35
173.825	174.254	67	35
173.825	174.254	78	52
174.032	174.254	79	45
174.239	174.67	77	50
174.446	174.67	74	45
174.665	175.092	60	41
174.665	175.107	75	49
174.879	175.107	76	45
175.092	175.514	57	37
175.092	175.514	60	37
175.092	175.514	77	50
175.297	175.514	76	45
175.503	175.936	53	35
175.503	175.936	62	35
175.503	175.936	79	49
175.708	175.936	77	45
175.931	176.36	55	41
175.931	176.36	59	41
175.931	176.36	76	52
176.144	176.36	74	45
176.351	176.558	72	48
176.558	176.765	71	45
176.765	176.978	69	46
176.978	177.191	67	45
177.191	177.617	60	39
177.191	177.617	75	49
177.333	177.628	64	31
177.404	177.628	76	42
177.475	177.628	67	31
177.617	178.044	60	39
177.617	178.044	75	49
177.76	178.054	64	32
177.831	178.054	76	41
177.902	178.054	67	32
178.044	178.473	60	40
178.044	178.473	75	52
178.182	178.473	64	32
178.252	178.473	76	48
178.321	178.473	67	32
178.46	178.886	59	43
178.46	178.886	78	58
178.602	178.895	62	36
178.673	178.895	79	53
178.744	178.895	67	35
178.886	179.305	59	40
178.886	179.316	78	58
179.026	179.316	62	33
179.096	179.316	79	46
179.165	179.316	67	29
179.305	179.731	59	37
179.305	179.731	77	46
179.447	179.731	65	29
179.518	179.731	74	37
179.589	179.731	67	29
179.731	180.16	60	29
179.731	180.16	64	35
179.731	180.154	74	45
179.942	180.16	72	41
180.154	180.576	52	31
180.154	180.576	67	41
180.154	180.576	74	45
180.361	180.576	72	41
180.567	180.992	55	31
180.567	180.992	71	41
180.567	180.992	76	45
180.774	180.992	74	45
180.992	181.751	60	35
180.992	181.845	71	49
180.992	181.751	74	49
181.422	181.845	55	31
181.633	181.845	75	49
181.845	182.281	48	31
181.845	182.281	72	45
181.845	182.281	76	45
182.281	183.124	57	35
182.281	182.967	77	45
182.502	182.914	60	31
182.71	183.143	65	32
182.914	183.143	60	33
182.914	183.124	79	46
182.967	183.072	77	42
183.019	183.143	76	42
183.072	183.143	77	45
183.124	183.56	57	35
183.124	183.56	79	49
183.334	183.56	60	38
183.334	183.552	81	47
183.552	183.976	59	40
183.552	183.976	81	55
183.759	183.976	62	35
183.759	183.976	79	49
183.966	184.395	67	42
183.966	184.395	78	52
184.173	184.395	62	35
184.173	184.395	79	45
184.38	184.811	59	35
184.38	184.811	77	50
184.587	184.811	62	34
184.587	184.811	74	45
184.807	185.248	60	41
184.807	185.248	75	49
185.02	185.248	76	45
185.233	185.655	53	37
185.233	185.655	62	37
185.233	185.655	79	50
185.438	185.655	77	45
185.644	186.077	55	35
185.644	186.077	65	35
185.644	186.077	74	49
185.849	186.077	71	45
186.072	186.49	60	32
186.072	186.49	64	37
186.072	186.49	72	52
186.286	186.49	67	34
186.49	186.898	64	40
186.694	186.796	67	34
186.898	187.313	60	37
187.102	187.208	67	34
187.313	187.724	62	40
187.313	187.416	65	34
187.313	187.416	67	40
187.519	187.622	65	28
187.519	187.622	67	33
187.724	188.132	59	38
187.928	188.03	65	28
187.928	188.03	67	33
188.132	188.551	55	38
188.338	188.444	65	28
188.338	188.444	67	33
188.551	188.959	48	40
188.551	188.653	63	34
188.551	188.653	67	40
188.755	188.857	63	28
188.755	188.857	67	34
188.959	189.367	51	40
189.163	189.265	63	28
189.163	189.265	67	34
189.367	189.783	48	37
189.571	189.677	63	28
189.571	189.677	67	34
189.783	190.191	50	40
189.783	189.885	65	34
189.783	189.885	67	40
189.987	190.089	65	28
189.987	190.089	67	33
190.191	190.599	47	38
190.395	190.497	65	28
190.395	190.497	67	33
190.599	191.016	43	38
190.803	190.91	65	28
190.803	190.91	67	33
191.016	191.434	36	58
191.016	191.434	48	69
191.016	191.22	63	63
191.016	191.22	67	63
191.22	191.434	63	50
191.22	191.434	67	50
191.424	191.842	51	40
191.628	191.842	63	33
191.628	191.842	67	33
191.832	192.245	55	40
192.036	192.245	63	33
192.036	192.245	67	33
192.245	192.658	41	58
192.245	192.658	53	69
192.245	192.445	63	63
192.245	192.445	68	63
192.445	192.658	63	50
192.445	192.658	68	50
192.649	193.066	56	40
192.853	193.066	63	33
192.853	193.066	68	33
193.057	193.469	60	40
193.261	193.469	63	33
193.261	193.469	68	33
193.469	193.881	34	58
193.469	193.881	46	69
193.469	193.668	62	63
193.469	193.668	68	63
193.668	193.881	62	50
193.668	193.881	68	50
193.872	194.289	50	40
194.076	194.289	62	33
194.076	194.289	68	33
194.28	194.691	53	40
194.484	194.691	62	33
194.484	194.691	68	33
194.691	195.103	39	58
194.691	195.103	51	69
194.691	194.89	62	63
194.691	194.89	67	63
194.89	195.103	62	50
194.89	195.103	67	50
195.094	195.511	55	40
195.298	195.511	62	33
195.298	195.511	67	33
195.502	195.916	58	40
195.706	195.916	62	33
195.706	195.916	67	33
195.916	196.325	32	58
195.916	196.325	44	69
195.916	196.116	60	63
195.916	196.116	67	63
196.116	196.325	60	50
196.116	196.325	67	50
196.315	196.726	56	40
196.521	196.726	60	33
196.521	196.726	67	33
196.726	197.138	38	58
196.726	197.138	50	69
196.726	196.928	60	63
196.726	196.928	65	63
196.928	197.138	60	50
196.928	197.138	65	50
197.129	197.537	62	40
197.333	197.537	60	33
197.333	197.537	65	33
197.537	197.943	31	58
197.537	197.943	43	69
197.537	197.735	59	63
197.537	197.735	65	63
197.735	197.943	59	50
197.735	197.943	65	50
197.934	198.347	55	40
198.138	198.347	59	33
198.138	198.347	65	33
198.342	198.754	56	45
198.543	198.754	60	33
198.543	198.754	63	33
198.744	199.168	55	39
198.951	199.168	60	33
198.951	199.168	63	33
199.158	199.58	54	39
199.369	199.58	60	33
199.369	199.58	63	33
199.58	200.001	55	44
199.58	199.796	59	32
199.58	199.796	62	38
199.796	200.009	63	31
199.796	200.009	67	37
200.001	200.213	62	28
200.001	200.213	65	33
200.205	200.417	60	26
200.205	200.417	63	31
200.409	200.622	59	28
200.409	200.622	62	33
200.613	200.826	54	41
200.613	200.834	60	25
200.613	200.834	63	30
200.826	201.234	55	44
200.826	201.03	59	32
200.826	201.03	62	38
201.03	201.242	63	31
201.03	201.242	67	37
201.234	201.446	62	28
201.234	201.446	65	33
201.438	201.65	60	26
201.438	201.65	63	31
201.642	201.855	59	28
201.642	201.855	62	33
201.846	202.066	54	32
201.846	202.066	60	25
201.846	202.066	63	30
202.058	202.27	55	39
202.058	202.27	59	31
202.058	202.27	62	37
202.262	202.474	54	35
202.262	202.474	60	27
202.262	202.474	63	32
202.466	202.678	55	39
202.466	202.678	59	31
202.466	202.678	62	37
202.67	202.882	54	31
202.67	202.882	60	28
202.67	202.882	63	34
202.874	203.086	55	39
202.874	203.086	59	31
202.874	203.086	62	37
203.078	203.29	54	32
203.078	203.29	60	28
203.078	203.29	63	34
203.282	203.69	55	38
203.282	203.486	59	31
203.282	203.486	62	37
203.486	203.698	58	33
203.486	203.698	61	33
203.69	203.904	59	35
203.69	203.904	62	35
203.895	204.112	61	36
203.895	204.112	64	36
204.103	204.323	62	38
204.103	204.323	65	38
204.314	204.549	64	40
204.314	204.549	67	40
204.54	204.966	53	33
204.54	204.966	65	35
204.54	204.966	69	42
204.966	205.392	53	31
204.966	205.392	60	34
204.966	205.392	65	34
204.966	205.392	69	40
205.392	205.824	53	31
205.392	205.824	60	34
205.392	205.824	65	34
205.392	205.824	69	40
205.824	206.676	53	33
205.824	207.103	60	35
205.824	206.676	65	35
205.824	206.676	69	42
206.67	207.103	48	31
206.67	207.103	64	28
206.67	207.103	67	34
207.103	207.524	43	33
207.103	207.524	59	35
207.103	207.524	62	35
207.103	207.549	67	42
207.311	207.524	65	38
207.524	207.951	43	30
207.524	207.951	59	35
207.524	207.951	62	35
207.524	207.951	65	42
207.951	208.39	43	30
207.951	208.39	59	32
207.951	208.39	62	32
207.951	208.39	65	38
208.39	209.246	43	33
208.39	209.246	59	35
208.39	209.246	62	35
208.39	209.246	65	42
209.236	209.665	45	30
209.236	209.665	60	33
209.236	209.665	64	39
209.665	210.086	41	33
209.665	210.081	64	35
209.665	210.086	67	42
209.871	210.086	62	31
209.871	210.086	65	37
210.081	210.501	43	32
210.081	210.505	60	35
210.081	210.505	64	42
210.501	210.927	43	32
210.501	210.927	59	30
210.501	210.927	62	36
210.927	211.357	48	33
210.927	211.146	60	35
210.927	211.146	64	42
211.146	211.339	72	35
211.357	211.549	74	37
211.566	211.757	76	38
211.774	211.963	77	40
211.98	212.168	79	41
212.185	212.612	60	28
212.185	212.612	65	33
212.185	212.612	81	46
212.612	213.038	60	26
212.612	213.038	65	31
212.612	213.038	81	44
213.038	213.47	60	26
213.038	213.47	65	31
213.038	213.47	81	44
213.47	214.749	60	28
213.47	214.322	65	33
213.47	214.211	81	46
214.105	214.322	83	39
214.211	214.322	81	39
214.316	214.749	64	31
214.316	214.749	79	46
214.749	215.171	55	28
214.749	215.171	62	33
214.749	215.171	71	35
214.749	215.195	79	46
214.957	215.171	77	41
215.171	215.597	55	25
215.171	215.597	62	30
215.171	215.597	71	35
215.171	215.597	77	46
215.597	216.036	55	25
215.597	216.036	62	30
215.597	216.036	71	32
215.597	216.036	77	41
216.036	216.893	55	28
216.036	216.893	62	33
216.036	216.893	71	35
216.036	216.893	77	46
216.882	217.311	57	25
216.882	217.311	60	30
216.882	217.311	72	33
216.882	217.311	76	42
217.311	217.732	53	33
217.311	217.727	76	35
217.311	217.732	79	46
217.517	217.732	74	31
217.517	217.732	77	40
217.727	218.151	55	32
217.727	218.151	72	35
217.727	218.151	76	46
218.147	218.573	53	32
218.147	218.573	71	30
218.147	218.573	74	39
218.573	218.896	40	58
218.573	218.896	52	69
218.573	218.773	76	63
218.573	218.773	79	63
218.773	218.896	76	50
218.773	218.896	79	50
218.973	219.073	56	40
219.174	219.274	74	33
219.174	219.274	77	33
219.375	219.477	57	40
219.579	219.681	72	33
219.579	219.681	76	33
219.783	219.885	53	40
219.987	220.089	65	33
219.987	220.089	74	33
220.191	220.291	55	40
220.391	220.491	64	33
220.391	220.491	72	33
220.591	220.694	53	40
220.796	220.899	62	33
220.796	220.899	71	33
221.002	221.421	40	75
221.002	221.421	52	75
221.105	221.31	76	72
221.207	221.421	79	75
221.31	221.421	76	72
221.413	221.822	44	73
221.413	221.822	56	73
221.513	221.713	74	70
221.613	221.822	77	75
221.713	221.822	74	70
221.813	222.229	45	73
221.813	222.229	57	73
221.915	222.121	72	72
222.018	222.229	76	75
222.121	222.229	72	71
222.224	222.639	41	75
222.224	222.639	53	75
222.325	222.527	65	71
222.426	222.639	74	75
222.527	222.639	65	71
222.629	223.031	43	73
222.629	223.031	55	73
222.729	222.931	64	71
222.83	223.04	72	75
222.931	223.04	64	71
223.031	223.445	43	73
223.031	223.445	55	73
223.135	223.342	62	71
223.238	223.445	71	75
223.342	223.445	62	71
223.445	223.858	48	64
223.445	224.275	64	75
223.445	224.275	67	75
223.445	224.275	72	75
223.547	223.959	52	59
223.652	224.061	55	59
223.755	224.164	60	59
223.858	224.266	48	63
223.959	224.275	52	58
224.061	224.275	55	58
224.164	224.275	60	58
224.266	224.69	48	63
224.266	224.369	76	70
224.318	224.422	77	65
224.369	224.698	52	57
224.369	224.474	76	70
224.422	224.51	77	66
224.474	224.698	55	58
224.474	224.545	76	70
224.51	224.698	77	66
224.545	224.698	76	66
224.581	224.698	60	58
224.581	224.698	74	70
224.636	224.698	72	66
224.69	225.094	48	63
224.69	225.5	79	75
224.791	225.197	52	58
224.893	225.297	55	59
224.993	225.399	60	59
225.094	225.493	48	63
225.197	225.493	52	57
225.297	225.493	55	57
225.399	225.5	60	57
225.5	225.923	48	63
225.5	225.603	83	70
225.552	225.656	84	66
225.603	225.923	53	57
225.603	225.708	83	70
225.656	225.744	84	66
225.708	225.923	55	57
225.708	225.779	83	70
225.744	225.923	84	65
225.779	225.923	83	66
225.815	225.923	62	57
225.815	225.923	81	70
225.869	225.923	79	65
225.923	226.333	48	63
225.923	226.76	84	75
226.025	226.436	52	57
226.128	226.538	55	57
226.23	226.641	60	57
226.333	226.751	48	63
226.436	226.76	52	57
226.538	226.76	55	57
226.641	226.76	60	57
226.751	227.175	48	63
226.751	226.854	76	70
226.803	226.906	77	65
226.854	227.183	52	57
226.854	226.959	76	70
226.906	226.995	77	66
226.959	227.183	55	58
226.959	227.03	76	70
226.995	227.183	77	66
227.03	227.183	76	66
227.066	227.183	60	58
227.066	227.183	74	70
227.12	227.183	72	66
227.175	227.578	48	63
227.175	227.571	79	75
227.276	227.682	52	58
227.378	227.782	55	59
227.478	227.884	60	59
227.571	227.978	79	75
227.578	227.978	48	63
227.682	227.978	52	57
227.782	227.978	55	57
227.884	227.985	60	57
227.985	228.4	48	63
227.985	228.088	83	70
228.036	228.14	84	66
228.088	228.402	53	57
228.088	228.193	83	70
228.14	228.228	84	66
228.193	228.4	55	57
228.193	228.264	83	70
228.228	228.402	84	65
228.264	228.402	83	66
228.3	228.407	62	57
228.3	228.402	81	70
228.354	228.407	79	65
228.4	228.59	48	63
228.4	228.59	52	63
228.4	228.59	55	63
228.4	228.59	60	63
228.407	228.59	84	75
228.831	229.478	52	58
228.831	229.478	64	69
228.831	229.478	88	88
229.442	229.646	44	63
229.442	229.646	56	63
229.442	229.646	80	75
229.646	229.81	45	63
229.646	229.81	57	63
229.646	229.81	81	75
230.075	230.696	48	60
230.075	230.696	60	71
230.075	230.696	84	89
230.686	230.89	52	63
230.686	230.89	76	75
230.89	230.994	53	56
230.89	230.994	77	70
230.942	231.045	55	52
230.942	231.045	79	65
230.994	231.097	53	56
230.994	231.097	77	70
231.045	231.131	55	52
231.045	231.131	79	66
231.097	231.166	53	56
231.097	231.166	77	70
231.131	231.304	55	52
231.131	231.304	79	66
231.166	231.313	53	52
231.166	231.313	77	66
231.2	231.313	52	56
231.2	231.313	76	70
231.252	231.313	50	52
231.252	231.313	74	66
231.304	231.407	55	63
231.304	231.407	79	84
231.717	231.849	43	56
231.717	231.849	55	67
231.717	231.849	74	72
231.717	231.849	79	72
231.717	231.849	83	86
232.143	232.312	48	60
232.143	232.312	60	72
232.143	232.312	76	72
232.143	232.312	79	72
232.143	232.312	84	86
232.569	232.831	36	58
232.569	232.831	48	69
232.569	232.831	60	79
233.42	234.681	67	50
233.837	234.687	52	46
233.837	234.681	72	46
234.245	234.687	48	42
234.245	234.681	76	46
234.681	235.914	55	46
234.681	235.914	67	45
234.681	235.505	72	48
234.681	235.505	76	53
235.497	235.914	71	43
235.497	235.914	74	43
235.914	237.146	79	50
236.319	237.146	52	46
236.319	237.141	67	40
236.319	237.141	72	46
236.721	237.146	48	42
236.721	237.141	76	46
237.141	238.38	55	46
237.141	238.38	67	45
237.141	237.973	72	48
237.141	237.973	76	53
237.963	238.38	71	43
237.963	238.38	74	43
238.38	239.59	53	29
238.38	239.59	57	29
238.38	239.59	62	35
238.38	239.592	69	50
238.786	239.592	74	50
239.191	239.592	77	50
239.59	240.425	53	29
239.59	240.425	57	29
239.59	240.425	62	35
239.59	240.425	76	50
239.992	240.425	74	50
240.415	242.065	81	50
240.832	242.065	55	27
240.832	242.065	62	27
240.832	242.065	65	32
241.249	242.065	79	50
241.657	242.065	71	50
242.065	242.917	60	35
242.065	242.473	64	42
242.065	242.917	72	50
242.269	242.677	67	50
242.473	242.917	64	50
242.677	242.917	67	50
242.881	243.085	65	50
243.085	243.305	62	50
243.305	243.618	60	50
243.618	243.722	55	43
243.722	244.566	52	46
243.722	244.559	60	46
244.13	244.566	48	44
244.13	244.559	64	48
244.559	245.792	43	48
244.559	245.792	55	47
244.559	245.384	60	50
244.559	245.384	64	55
245.375	245.792	59	43
245.375	245.792	62	43
245.792	247.033	67	50
246.197	247.033	52	46
246.197	247.028	55	40
246.197	247.028	60	46
246.6	247.033	48	44
246.6	247.028	64	48
247.028	248.267	43	48
247.028	248.267	55	47
247.028	247.86	60	50
247.028	247.86	64	55
247.85	248.267	59	43
247.85	248.267	62	43
248.267	249.489	41	29
248.267	249.489	45	29
248.267	249.489	50	35
248.267	249.491	57	50
248.673	249.491	62	50
249.078	249.491	65	50
249.489	250.323	41	29
249.489	250.323	45	29
249.489	250.323	50	35
249.489	250.323	64	50
249.891	250.323	62	50
250.314	251.964	69	50
250.731	251.964	43	30
250.731	251.964	50	30
250.731	251.964	53	36
251.148	251.964	67	50
251.556	251.964	59	50
251.964	252.381	48	32
251.964	252.381	52	37
251.964	252.381	60	52
252.177	252.381	67	34
252.381	252.781	64	40
252.581	252.681	67	34
252.781	253.195	60	37
252.983	253.089	67	34
253.195	253.597	62	40
253.195	253.296	65	34
253.195	253.296	67	40
253.396	253.497	65	28
253.396	253.497	67	33
253.597	254.0	59	38
253.799	253.899	65	28
253.799	253.899	67	33
254.0	254.418	55	38
254.205	254.312	65	28
254.205	254.312	67	33
254.418	254.824	48	40
254.418	254.52	63	34
254.418	254.52	67	40
254.621	254.722	63	28
254.621	254.722	67	34
254.824	255.232	51	40
255.028	255.13	63	28
255.028	255.13	67	34
255.232	255.647	48	37
255.436	255.542	63	28
255.436	255.542	67	34
255.647	256.05	50	40
255.647	255.748	65	34
255.647	255.748	67	40
255.849	255.949	65	28
255.849	255.949	67	33
256.05	256.455	47	38
256.252	256.354	65	28
256.252	256.354	67	33
256.455	256.871	43	38
256.658	256.764	65	23
256.658	256.764	67	33
256.871	257.285	36	58
256.871	257.285	48	69
256.871	257.072	63	53
256.871	257.072	67	63
257.072	257.285	63	42
257.072	257.285	67	50
257.276	257.693	60	40
257.48	257.693	63	28
257.48	257.693	67	33
257.684	258.097	48	40
257.888	258.097	63	28
257.888	258.097	67	33
258.097	258.508	33	58
258.097	258.508	45	69
258.097	258.295	60	53
258.097	258.295	63	53
258.097	258.295	66	63
258.295	258.508	60	42
258.295	258.508	63	42
258.295	258.508	66	50
258.499	258.916	57	40
258.703	258.916	60	28
258.703	258.916	63	28
258.703	258.916	66	33
258.907	259.32	45	40
259.111	259.32	60	28
259.111	259.32	63	28
259.111	259.32	66	33
259.32	259.731	34	58
259.32	259.731	46	69
259.32	259.518	62	53
259.32	259.518	67	63
259.518	259.731	62	42
259.518	259.731	67	50
259.722	260.136	58	40
259.924	260.136	62	28
259.924	260.136	67	33
260.127	260.538	46	40
260.331	260.538	62	28
260.331	260.538	67	33
260.538	260.945	30	58
260.538	260.945	42	69
260.538	260.736	62	53
260.538	260.736	69	53
260.538	260.736	72	63
260.736	260.945	62	42
260.736	260.945	69	42
260.736	260.945	72	50
260.936	261.356	54	40
261.141	261.356	62	28
261.141	261.356	69	28
261.141	261.356	72	33
261.346	261.762	42	40
261.552	261.762	62	28
261.552	261.762	69	28
261.552	261.762	72	33
261.762	262.173	31	58
261.762	262.173	43	69
261.762	261.96	62	53
261.762	261.96	67	53
261.762	261.96	70	63
261.96	262.173	62	42
261.96	262.173	67	42
261.96	262.173	70	50
262.164	262.575	55	40
262.365	262.575	62	28
262.365	262.575	67	28
262.365	262.575	70	33
262.566	262.98	43	40
262.77	262.98	62	28
262.77	262.98	67	28
262.77	262.98	70	33
262.98	263.387	40	58
262.98	263.387	52	69
262.98	263.178	67	53
262.98	263.178	70	53
262.98	263.178	73	63
263.178	263.387	67	42
263.178	263.387	70	42
263.178	263.387	73	50
263.378	263.792	64	40
263.58	263.792	67	28
263.58	263.792	70	28
263.58	263.792	73	33
263.783	264.195	52	40
263.985	264.195	67	28
263.985	264.195	70	28
263.985	264.195	73	33
264.195	264.602	41	58
264.195	264.602	53	69
264.195	264.394	69	53
264.195	264.394	74	63
264.394	264.602	69	42
264.394	264.602	74	50
264.593	265.007	65	40
264.796	265.007	69	28
264.796	265.007	74	33
264.998	265.41	53	40
265.2	265.41	69	28
265.2	265.41	74	33
265.41	265.822	37	58
265.41	265.822	49	69
265.41	265.609	69	53
265.41	265.609	76	53
265.41	265.609	79	63
265.609	265.822	69	42
265.609	265.822	76	42
265.609	265.822	79	50
265.813	266.23	61	40
266.017	266.23	69	28
266.017	266.23	76	28
266.017	266.23	79	33
266.221	266.635	49	40
266.425	266.635	69	28
266.425	266.635	76	28
266.425	266.635	79	33
266.635	267.047	38	58
266.635	267.047	50	69
266.635	266.834	69	53
266.635	266.834	74	53
266.635	266.834	77	63
266.834	267.047	69	42
266.834	267.047	74	42
266.834	267.047	77	50
267.038	267.455	62	40
267.242	267.455	69	28
267.242	267.455	74	28
267.242	267.455	77	33
267.446	267.867	50	40
267.65	267.867	69	28
267.65	267.867	74	28
267.65	267.867	77	33
267.867	268.279	34	58
267.867	268.279	46	69
267.867	268.066	74	53
267.867	268.066	80	65
268.066	268.279	74	42
268.066	268.279	80	54
268.27	268.687	58	40
268.474	268.687	74	28
268.474	268.687	80	33
268.678	269.106	46	40
268.882	269.106	74	28
268.882	269.106	80	33
269.106	269.522	45	44
269.106	269.318	73	32
269.106	269.318	81	38
269.318	269.531	77	31
269.318	269.531	81	37
269.522	269.735	76	28
269.522	269.735	79	33
269.726	269.939	74	26
269.726	269.939	77	31
269.93	270.143	73	28
269.93	270.143	76	33
270.134	270.347	68	38
270.134	270.356	74	25
270.134	270.356	77	30
270.347	270.551	69	41
270.347	270.551	73	32
270.347	270.551	76	38
270.551	270.764	65	31
270.551	270.764	69	37
270.755	270.967	64	28
270.755	270.967	67	33
270.959	271.171	62	26
270.959	271.171	65	31
271.163	271.375	61	28
271.163	271.375	64	33
271.367	271.586	56	32
271.367	271.586	62	25
271.367	271.586	65	30
271.578	271.786	57	39
271.578	271.786	61	31
271.578	271.786	64	37
271.778	271.987	56	35
271.778	271.987	62	27
271.778	271.987	65	32
271.979	272.187	57	39
271.979	272.187	61	31
271.979	272.187	64	37
272.179	272.388	56	31
272.179	272.388	62	28
272.179	272.388	65	34
272.38	272.587	57	39
272.38	272.587	61	31
272.38	272.587	64	37
272.579	272.787	56	32
272.579	272.778	62	28
272.579	272.778	65	34
272.778	273.175	57	39
272.778	273.175	61	31
272.778	273.175	64	37
273.977	274.182	57	31
273.977	274.182	60	24
273.977	274.182	64	29
274.174	274.384	56	28
274.174	274.384	62	21
274.174	274.384	65	25
274.376	274.583	57	31
274.376	274.583	60	24
274.376	274.583	64	29
274.574	274.781	56	24
274.574	274.781	62	22
274.574	274.781	65	27
274.773	274.981	57	31
274.773	274.981	60	24
274.773	274.981	64	29
274.972	275.186	56	25
274.972	275.186	62	22
274.972	275.186	65	27
275.178	275.572	57	31
275.178	275.572	60	31
275.178	275.572	64	29
276.36	276.567	55	63
276.36	277.942	58	49
276.36	277.942	60	49
276.36	276.567	64	59
276.559	276.768	57	57
276.559	276.768	65	51
276.76	276.964	55	63
276.76	276.964	64	59
276.956	277.162	57	49
276.956	277.162	65	55
277.154	277.358	55	63
277.154	277.358	64	59
277.35	277.556	57	51
277.35	277.556	65	55
277.548	277.942	55	63
277.548	277.942	64	59
278.731	280.389	60	29
278.731	278.942	67	39
278.731	280.389	76	31
278.731	278.942	82	37
278.933	279.151	66	35
278.933	279.151	81	32
279.143	279.357	67	39
279.143	279.357	82	37
279.348	279.57	66	31
279.348	279.57	81	34
279.561	279.78	67	39
279.561	279.78	82	37
279.771	280.0	66	32
279.771	279.992	81	34
279.992	280.389	67	39
279.992	280.389	82	37
281.188	282.426	53	40
281.188	282.436	65	50
281.399	281.806	57	30
281.603	282.01	60	33
281.806	282.213	57	30
282.01	282.436	60	34
282.01	282.436	69	47
282.213	282.436	57	30
282.426	283.658	53	40
282.426	283.664	72	52
282.633	283.04	60	29
282.837	283.243	63	31
283.04	283.447	60	27
283.243	283.664	63	31
283.243	283.664	69	46
283.447	283.664	60	28
283.658	284.905	53	40
283.658	284.912	70	50
283.865	284.278	58	30
284.072	284.485	62	33
284.278	284.695	58	30
284.485	284.912	62	33
284.485	284.912	79	47
284.695	284.912	58	30
284.905	285.33	53	40
284.905	285.33	77	47
285.108	285.33	55	23
285.108	285.318	76	44
285.318	285.528	58	28
285.318	285.738	76	44
285.528	285.738	55	24
285.738	285.946	58	29
285.946	286.161	55	24
286.161	287.02	53	30
286.161	287.02	57	30
286.161	287.02	77	50
286.581	287.02	69	46
286.997	287.417	74	46
287.417	288.683	67	50
287.84	288.683	72	54
288.469	288.683	69	45
288.683	289.941	53	47
288.683	290.349	65	50
289.099	289.941	45	44
289.516	289.941	50	48
289.932	290.349	43	48
289.932	291.188	67	50
290.349	290.977	48	49
290.349	290.401	64	42
290.401	290.453	65	37
290.453	290.557	64	48
290.557	290.765	62	48
290.765	291.188	64	50
290.977	291.188	45	47
291.188	292.434	41	52
291.188	292.843	65	48
291.188	292.434	69	48
291.608	292.434	50	40
291.608	292.434	70	52
292.018	292.434	46	44
292.018	292.434	74	55
292.434	292.843	45	47
292.434	292.639	74	58
292.639	292.843	72	57
292.843	293.046	70	56
293.046	293.25	69	54
293.25	293.66	50	40
293.25	293.453	67	53
293.453	293.66	65	51
293.66	294.175	46	40
293.66	294.175	67	54
294.064	294.175	70	50
294.483	294.91	48	41
294.483	294.91	58	54
294.483	294.91	64	54
294.91	295.326	41	43
294.91	295.326	57	56
294.91	295.326	65	56
295.743	296.055	69	32
295.743	296.055	72	40
295.743	296.055	84	50
296.055	296.163	67	28
296.055	296.163	70	35
296.055	296.163	82	44
296.163	296.267	65	32
296.163	296.267	69	40
296.163	296.267	81	50
296.58	296.684	65	32
296.58	296.684	69	40
296.58	296.684	81	50
297.0	297.313	65	29
297.0	297.313	69	37
297.0	297.313	81	47
297.313	297.417	60	26
297.313	297.417	67	33
297.313	297.417	79	42
297.417	297.521	57	30
297.417	297.521	65	38
297.417	297.521	77	48
297.833	297.938	57	28
297.833	297.938	65	35
297.833	297.938	77	44
298.253	298.67	57	28
298.253	298.67	65	35
298.253	298.67	77	44
298.67	298.774	60	28
298.67	298.774	67	36
298.67	298.774	76	46
298.67	298.774	79	46
299.086	299.19	60	28
299.086	299.19	67	35
299.086	299.19	76	44
299.086	299.19	79	44
299.503	299.608	60	28
299.503	299.608	67	35
299.503	299.608	76	44
299.503	299.608	79	44
299.926	300.342	60	32
299.926	300.342	67	40
299.926	300.342	76	50
299.926	300.342	79	50
300.342	300.768	65	28
300.342	300.768	69	35
300.342	300.768	77	44
300.342	300.768	81	44
300.768	301.156	69	32
300.768	301.156	72	40
300.768	300.962	84	50
300.865	301.156	86	44
300.962	301.156	84	44
301.059	301.156	67	28
301.059	301.156	70	35
301.059	301.156	82	44
301.156	301.26	65	32
301.156	301.26	69	40
301.156	301.26	81	50
301.573	301.677	65	32
301.573	301.677	69	40
301.573	301.677	81	50
301.989	302.375	65	29
301.989	302.375	69	37
301.989	302.182	81	47
302.086	302.375	82	42
302.182	302.375	81	42
302.278	302.375	60	26
302.278	302.375	67	33
302.278	302.375	79	42
302.375	302.479	57	30
302.375	302.479	65	38
302.375	302.479	77	48
302.791	302.895	57	28
302.791	302.895	65	35
302.791	302.895	77	44
303.208	303.312	57	28
303.208	303.312	65	35
303.208	303.312	77	44
303.624	304.06	60	29
303.624	304.06	67	37
303.624	304.06	79	49
304.034	304.144	82	44
304.471	304.894	60	28
304.471	304.894	67	35
304.471	304.894	70	35
304.471	304.894	76	44
304.894	305.317	65	39
304.894	305.317	69	38
304.894	305.317	77	48
305.74	306.163	60	28
305.74	306.163	64	28
305.74	306.163	70	35
305.74	306.163	84	44
306.163	306.586	65	31
306.163	306.586	69	39
306.163	306.586	77	48
307.01	307.433	48	25
307.01	307.433	52	25
307.01	307.433	58	31
307.01	307.433	72	39
307.433	307.856	53	27
307.433	307.856	57	35
307.433	307.856	65	43
308.279	308.707	37	51
308.279	308.707	49	60
308.279	308.707	61	80
308.707	309.941	38	56
308.707	309.941	50	66
308.707	309.941	62	85
308.915	309.331	53	60
309.123	309.534	57	60
309.331	309.738	53	60
309.331	309.941	65	70
309.433	309.738	69	72
309.534	309.941	57	63
309.534	309.839	74	84
309.738	309.941	53	60
309.738	309.941	69	71
309.839	309.941	74	73
309.941	311.189	50	65
309.941	310.246	77	86
310.145	310.554	53	60
310.145	310.97	74	71
310.246	310.761	77	73
310.348	310.761	57	63
310.348	310.554	81	87
310.554	310.97	53	60
310.554	311.189	81	80
310.761	311.189	57	60
310.761	311.189	77	80
310.97	311.189	53	62
310.97	311.189	74	80
311.079	311.189	73	70
311.116	311.189	76	70
311.152	311.189	79	70
311.189	311.738	40	60
311.189	311.614	52	71
311.189	311.815	82	90
311.614	311.738	52	60
311.614	311.738	55	60
311.614	311.738	58	60
311.614	311.738	61	71
311.815	311.925	81	71
311.915	312.026	79	68
312.016	312.126	77	68
312.116	312.227	76	68
312.217	312.328	74	69
312.317	312.441	73	72
312.43	312.984	40	60
312.43	312.855	52	71
312.43	313.063	82	90
312.855	312.984	52	60
312.855	312.984	55	60
312.855	312.984	58	60
312.855	312.984	61	71
313.063	313.177	81	71
313.167	313.281	79	68
313.27	313.385	77	68
313.374	313.489	76	68
313.478	313.593	74	69
313.582	313.697	73	72
313.686	314.92	53	66
313.686	314.513	74	88
313.894	314.31	57	60
314.102	314.513	62	60
314.31	314.716	57	60
314.31	314.92	65	70
314.411	314.716	69	72
314.513	314.92	62	63
314.513	314.818	74	84
314.716	314.92	57	60
314.716	314.92	69	71
314.818	314.92	74	73
314.92	316.168	53	65
314.92	315.225	77	86
315.123	315.533	57	60
315.123	315.949	74	71
315.225	315.739	77	73
315.327	315.739	62	63
315.327	315.533	81	87
315.533	315.949	57	60
315.533	316.168	81	80
315.739	316.168	62	60
315.739	316.168	77	80
315.949	316.168	57	62
315.949	316.168	74	80
316.168	316.719	38	60
316.168	316.592	50	71
316.168	316.796	71	75
316.168	316.796	74	75
316.168	316.796	77	75
316.168	316.796	80	90
316.592	316.719	50	60
316.592	316.719	53	60
316.592	316.719	56	60
316.592	316.719	59	71
316.796	316.908	79	71
316.898	317.01	77	68
317.0	317.112	75	68
317.102	317.214	74	68
317.204	317.317	72	69
317.306	317.433	71	72
317.422	317.976	38	60
317.422	317.847	50	71
317.422	318.055	80	90
317.847	317.976	50	60
317.847	317.976	53	60
317.847	317.976	56	60
317.847	317.976	59	71
318.055	318.169	79	71
318.159	318.273	77	68
318.263	318.377	75	68
318.367	318.481	74	68
318.471	318.585	72	69
318.575	318.689	71	72
318.678	319.912	51	66
318.678	319.505	72	88
318.886	319.302	55	60
319.094	319.505	60	60
319.302	319.709	55	60
319.302	319.912	63	70
319.404	319.709	67	72
319.505	319.912	60	63
319.505	319.81	72	84
319.709	319.912	55	60
319.709	319.912	67	71
319.81	319.912	72	73
319.912	321.16	51	65
319.912	320.217	75	86
320.116	320.525	55	60
320.116	320.941	72	71
320.217	320.732	75	73
320.319	320.732	60	63
320.319	320.525	79	87
320.525	320.941	55	60
320.525	321.16	79	80
320.732	321.16	60	60
320.732	321.16	75	80
320.941	321.16	55	62
320.941	321.16	72	80
321.16	321.713	39	71
321.16	321.791	69	75
321.16	321.791	72	75
321.16	321.791	75	75
321.16	321.791	78	90
321.585	321.713	51	60
321.585	321.713	54	60
321.585	321.713	57	60
321.585	321.713	60	71
321.791	321.902	77	71
321.892	322.002	75	68
321.992	322.103	73	68
322.093	322.203	72	68
322.193	322.305	70	69
322.294	322.421	69	72
322.41	322.964	39	71
322.41	323.043	78	90
322.835	322.964	51	60
322.835	322.964	54	60
322.835	322.964	57	60
322.835	322.964	60	71
323.043	323.152	77	71
323.142	323.252	75	68
323.242	323.352	73	68
323.342	323.452	72	68
323.442	323.552	70	69
323.542	323.652	69	72
323.641	324.867	49	66
323.641	324.257	70	88
323.847	324.257	53	60
324.052	324.461	58	60
324.155	324.359	65	69
324.257	324.664	53	60
324.257	324.562	70	74
324.359	326.132	65	70
324.461	325.29	58	63
324.461	324.664	73	74
324.562	324.766	70	71
324.664	325.071	53	60
324.664	324.969	73	75
324.766	326.132	70	70
324.867	326.132	49	66
324.867	325.071	77	74
324.969	325.173	73	71
325.071	325.495	53	60
325.071	326.132	77	74
325.173	326.132	73	71
325.29	325.704	58	60
325.29	326.132	82	91
325.495	325.914	53	60
325.704	326.132	58	63
325.914	326.132	53	60
326.123	327.357	48	66
326.123	326.746	69	88
326.331	326.746	53	60
326.539	326.95	57	60
326.642	326.848	65	69
326.746	327.153	53	60
326.746	327.052	69	74
326.848	328.634	65	70
326.95	327.779	57	63
326.95	327.153	72	74
327.052	327.255	69	71
327.153	327.56	53	60
327.153	327.458	72	75
327.255	328.634	69	70
327.357	328.634	48	66
327.357	327.56	77	74
327.458	327.662	72	71
327.56	327.984	53	60
327.56	328.634	77	74
327.662	328.634	72	71
327.779	328.193	57	60
327.779	328.634	81	91
327.984	328.403	53	60
328.193	328.634	57	63
328.403	328.634	53	60
328.625	329.859	47	66
328.625	329.249	68	88
328.833	329.249	53	60
329.041	329.452	56	60
329.145	329.351	65	69
329.249	329.656	53	60
329.249	329.554	68	74
329.351	330.982	65	70
329.452	330.282	56	63
329.452	329.656	74	74
329.554	329.757	68	71
329.656	330.063	53	60
329.656	329.961	74	75
329.757	330.982	68	70
329.859	330.982	47	66
329.859	330.063	77	74
329.961	330.164	74	71
330.063	330.487	53	60
330.063	330.696	77	74
330.164	330.982	74	71
330.282	330.696	56	60
330.282	330.982	80	91
330.487	330.905	53	60
330.696	330.982	56	63
330.696	331.01	77	81
330.905	331.965	53	60
331.01	331.046	72	70
331.046	331.083	76	70
331.083	331.978	79	70
331.119	331.978	48	66
331.119	331.978	84	90
331.331	331.978	52	60
331.542	331.978	55	60
331.754	331.978	60	60
331.965	332.17	53	63
331.965	332.076	82	72
332.068	332.178	80	72
332.17	332.384	56	60
332.17	332.281	79	73
332.272	332.384	77	76
332.384	333.232	48	66
332.384	333.232	84	90
332.593	333.232	52	60
332.801	333.232	55	60
333.009	333.232	60	60
333.217	333.42	53	63
333.217	333.327	82	72
333.318	333.428	80	72
333.42	333.622	56	60
333.42	333.529	79	73
333.521	333.622	77	76
333.622	334.248	60	72
333.622	334.248	72	90
334.244	334.354	61	63
334.244	334.354	73	79
334.346	334.458	60	62
334.346	334.458	72	78
334.449	334.562	58	60
334.449	334.562	70	76
334.553	334.668	56	60
334.553	334.668	68	75
334.66	334.777	55	59
334.66	334.777	67	74
334.767	334.895	53	57
334.767	334.895	65	72
334.886	334.994	60	63
334.886	334.994	72	79
335.319	335.427	36	48
335.319	335.427	48	57
335.319	335.427	60	72
336.022	336.554	41	35
336.076	336.554	48	35
336.13	336.554	60	41
336.184	336.607	53	35
336.184	336.554	69	45
336.607	336.713	69	43
337.03	337.152	69	43
337.327	338.151	48	34
337.38	338.151	55	34
337.433	338.151	64	42
337.487	338.151	58	35
337.487	338.151	72	45
338.126	338.339	70	41
338.339	338.781	67	41
338.781	339.214	41	35
338.781	339.214	57	45
338.781	339.214	67	45
338.995	339.208	65	41
339.208	340.047	45	31
339.208	340.047	60	45
339.208	340.047	65	45
339.622	340.047	48	31
339.829	340.047	64	45
339.829	340.047	67	45
340.047	340.805	53	35
340.047	340.899	64	49
340.047	340.899	67	49
340.476	340.899	41	31
340.899	341.335	65	45
340.899	341.335	69	45
341.335	342.197	50	35
341.335	342.021	70	45
341.765	342.197	53	33
341.765	342.197	58	33
341.969	342.179	72	46
342.021	342.126	70	42
342.074	342.197	69	42
342.126	342.197	70	45
342.179	342.614	72	49
342.389	342.606	74	47
342.606	343.449	52	38
342.606	343.03	74	55
342.813	343.03	72	49
343.02	343.449	55	35
343.02	343.449	60	35
343.02	343.449	71	52
343.227	343.449	72	45
343.434	343.865	70	50
343.641	343.865	67	45
343.861	344.287	53	41
343.861	344.303	68	49
344.074	344.303	69	45
344.287	344.709	50	31
344.287	344.709	53	37
344.287	344.709	70	50
344.493	344.709	69	45
344.698	345.131	46	29
344.698	345.131	55	35
344.698	345.131	72	49
344.904	345.131	70	45
345.127	345.555	48	34
345.127	345.555	52	41
345.127	345.555	69	52
345.34	345.555	67	45
345.547	345.754	65	48
345.754	345.961	64	45
345.961	346.174	62	46
346.174	346.387	60	45
346.387	346.813	53	39
346.387	346.813	68	39
346.387	346.813	80	49
346.529	346.823	57	31
346.6	346.823	69	33
346.6	346.823	81	42
346.671	346.823	60	31
346.813	347.233	53	39
346.813	347.233	68	39
346.813	347.233	80	49
346.953	347.243	57	32
347.023	347.243	69	32
347.023	347.243	81	41
347.093	347.243	60	32
347.233	347.677	53	40
347.233	347.677	68	41
347.233	347.677	80	52
347.374	347.677	57	32
347.445	347.677	69	38
347.445	347.677	81	48
347.518	347.677	60	32
347.665	348.09	52	43
347.665	348.09	71	46
347.665	348.09	83	58
347.807	348.1	55	36
347.877	348.1	72	42
347.877	348.1	84	53
347.948	348.1	60	35
348.09	348.51	52	40
348.09	348.52	71	46
348.09	348.52	83	58
348.23	348.52	55	33
348.3	348.52	72	36
348.3	348.52	84	46
348.37	348.52	60	29
348.51	348.936	52	37
348.51	348.936	82	49
348.652	348.936	58	29
348.723	348.936	79	39
348.794	348.936	60	29
348.936	349.368	53	29
348.936	349.362	57	35
348.936	349.362	79	45
349.149	349.368	77	41
349.362	349.784	57	31
349.362	349.784	72	41
349.362	349.784	79	45
349.569	349.784	77	41
349.776	350.201	60	31
349.776	350.201	76	41
349.776	350.201	81	45
349.983	350.201	79	45
350.201	350.959	65	35
350.201	351.053	76	49
350.201	350.959	79	49
350.63	351.053	60	31
350.841	351.053	80	49
351.053	351.489	53	31
351.053	351.489	77	45
351.053	351.489	81	45
351.489	352.333	62	35
351.489	352.175	82	49
351.71	352.123	65	31
351.919	352.351	70	32
352.123	352.351	65	33
352.123	352.333	84	50
352.175	352.28	82	46
352.228	352.351	81	46
352.28	352.351	82	49
352.333	352.768	62	35
352.333	352.768	84	53
352.543	352.768	65	38
352.543	352.76	86	51
352.76	353.184	64	40
352.76	353.184	86	60
352.967	353.184	67	35
352.967	353.184	84	53
353.174	353.603	72	42
353.174	353.603	83	57
353.381	353.603	67	35
353.381	353.603	84	49
353.588	354.019	64	35
353.588	354.019	82	55
353.795	354.019	67	34
353.795	354.019	79	49
354.015	354.457	65	41
354.015	354.457	80	53
354.228	354.457	81	49
354.441	354.863	58	37
354.441	354.863	67	37
354.441	354.863	84	55
354.647	354.863	82	49
354.852	355.285	60	35
354.852	355.285	70	35
354.852	355.285	79	53
355.058	355.285	76	49
355.281	355.698	65	32
355.281	355.698	69	37
355.281	355.698	77	54
355.494	355.698	72	35
355.698	356.106	69	40
355.902	356.004	72	35
356.106	356.521	65	37
356.31	356.416	72	35
356.521	356.932	67	40
356.521	356.624	70	35
356.521	356.624	72	42
356.727	356.83	70	29
356.727	356.83	72	34
356.932	357.341	64	38
357.136	357.239	70	29
357.136	357.239	72	34
357.341	357.759	60	38
357.546	357.653	70	29
357.546	357.653	72	34
357.759	358.164	53	40
357.759	357.86	68	35
357.759	357.86	72	42
357.96	358.062	68	29
357.96	358.062	72	35
358.164	358.572	56	40
358.368	358.47	68	29
358.368	358.47	72	35
358.572	358.988	53	37
358.776	358.882	68	29
358.776	358.882	72	35
358.988	359.394	55	40
358.988	359.088	70	35
358.988	359.088	72	42
359.189	359.291	70	29
359.189	359.291	72	34
359.394	359.802	52	38
359.598	359.7	70	29
359.598	359.7	72	34
359.802	360.219	48	38
360.006	360.113	70	29
360.006	360.113	72	34
360.219	360.637	41	58
360.219	360.637	53	69
360.219	360.423	68	63
360.219	360.423	72	63
360.423	360.637	68	50
360.423	360.637	72	50
360.627	361.045	56	40
360.831	361.045	68	33
360.831	361.045	72	33
361.035	361.448	60	40
361.239	361.448	68	33
361.239	361.448	72	33
361.448	361.861	46	58
361.448	361.861	58	69
361.448	361.648	68	63
361.448	361.648	73	63
361.648	361.861	68	50
361.648	361.861	73	50
361.852	362.269	61	40
362.056	362.269	68	33
362.056	362.269	73	33
362.26	362.672	65	40
362.464	362.672	68	33
362.464	362.672	73	33
362.672	363.084	39	58
362.672	363.084	51	69
362.672	362.871	67	63
362.672	362.871	73	63
362.871	363.084	67	50
362.871	363.084	73	50
363.075	363.492	55	40
363.279	363.492	67	33
363.279	363.492	73	33
363.483	363.894	58	40
363.687	363.894	67	33
363.687	363.894	73	33
363.894	364.306	44	58
363.894	364.306	56	69
363.894	364.093	67	63
363.894	364.093	72	63
364.093	364.306	67	50
364.093	364.306	72	50
364.297	364.714	60	40
364.501	364.714	67	33
364.501	364.714	72	33
364.705	365.119	63	40
364.909	365.119	67	33
364.909	365.119	72	33
365.119	365.528	37	58
365.119	365.528	49	69
365.119	365.319	65	63
365.119	365.319	72	63
365.319	365.528	65	50
365.319	365.528	72	50
365.518	365.929	61	40
365.724	365.929	65	33
365.724	365.929	72	33
365.929	366.341	43	58
365.929	366.341	55	69
365.929	366.131	65	63
365.929	366.131	70	63
366.131	366.341	65	50
366.131	366.341	70	50
366.332	366.74	67	40
366.536	366.74	65	33
366.536	366.74	70	33
366.74	367.146	36	58
366.74	367.146	48	69
366.74	366.938	64	63
366.74	366.938	70	63
366.938	367.146	64	50
366.938	367.146	70	50
367.137	367.55	60	40
367.341	367.55	64	33
367.341	367.55	70	33
367.545	367.957	61	45
367.746	367.957	65	33
367.746	367.957	68	33
367.947	368.366	60	39
368.151	368.366	65	33
368.151	368.366	68	33
368.356	368.77	59	39
368.563	368.77	65	33
368.563	368.77	68	33
368.77	369.185	60	44
368.77	368.981	64	32
368.77	368.981	67	38
368.981	369.194	68	31
368.981	369.194	72	37
369.185	369.398	67	28
369.185	369.398	70	33
369.389	369.602	65	26
369.389	369.602	68	31
369.593	369.806	64	28
369.593	369.806	67	33
369.797	370.01	59	41
369.797	370.019	65	25
369.797	370.019	68	30
370.01	370.418	60	44
370.01	370.214	64	32
370.01	370.214	67	38
370.214	370.427	68	31
370.214	370.427	72	37
370.418	370.631	67	28
370.418	370.631	70	33
370.622	370.835	65	26
370.622	370.835	68	31
370.827	371.039	64	28
370.827	371.039	67	33
371.031	371.251	59	32
371.031	371.251	65	25
371.031	371.251	68	30
371.242	371.453	60	39
371.242	371.453	64	31
371.242	371.453	67	37
371.444	371.66	59	35
371.444	371.66	65	27
371.444	371.66	68	32
371.651	371.862	60	39
371.651	371.862	64	31
371.651	371.862	67	37
371.854	372.069	59	31
371.854	372.069	65	28
371.854	372.069	68	34
372.06	372.271	60	39
372.06	372.271	64	31
372.06	372.271	67	37
372.263	372.481	59	32
372.263	372.481	65	28
372.263	372.481	68	34
372.472	372.88	60	38
372.472	372.676	64	31
372.472	372.676	67	37
372.676	372.889	63	33
372.676	372.889	66	33
372.88	373.094	64	35
372.88	373.094	67	35
373.085	373.302	66	36
373.085	373.302	69	36
373.293	373.514	67	38
373.293	373.514	70	38
373.504	373.75	69	40
373.504	373.75	72	40
373.742	374.167	58	33
373.742	374.167	70	35
373.742	374.167	74	42
374.167	374.593	58	31
374.167	374.593	65	34
374.167	374.593	70	34
374.167	374.593	74	40
374.593	375.025	58	31
374.593	375.025	65	34
374.593	375.025	70	34
374.593	375.025	74	40
375.025	375.877	58	33
375.025	376.31	65	35
375.025	375.877	70	35
375.025	375.877	74	42
375.872	376.31	53	31
375.872	376.31	69	28
375.872	376.31	72	34
376.31	376.732	48	33
376.31	376.732	64	35
376.31	376.732	67	35
376.31	376.757	72	42
376.519	376.732	70	38
376.732	377.158	48	30
376.732	377.158	64	35
376.732	377.158	67	35
376.732	377.158	70	42
377.158	377.597	48	30
377.158	377.597	64	32
377.158	377.597	67	32
377.158	377.597	70	38
377.597	378.454	48	33
377.597	378.454	64	35
377.597	378.454	67	35
377.597	378.454	70	42
378.443	378.872	50	30
378.443	378.872	65	33
378.443	378.872	69	39
378.872	379.293	46	33
378.872	379.288	69	35
378.872	379.293	72	42
379.078	379.293	67	31
379.078	379.293	70	37
379.288	379.708	48	32
379.288	379.712	65	35
379.288	379.712	69	42
379.708	380.134	48	32
379.708	380.134	64	30
379.708	380.134	67	36
380.134	380.564	53	33
380.134	380.354	65	35
380.134	380.354	69	42
380.354	380.547	77	35
380.564	380.756	79	37
380.773	380.964	81	38
380.981	381.171	82	40
381.188	381.376	84	41
381.393	381.819	65	28
381.393	381.819	70	33
381.393	381.819	86	46
381.819	382.245	65	26
381.819	382.245	70	31
381.819	382.245	86	44
382.245	382.678	65	26
382.245	382.678	70	31
382.245	382.678	86	44
382.678	383.956	65	28
382.678	383.529	70	33
382.678	383.418	86	46
383.312	383.529	88	39
383.418	383.529	86	39
383.524	383.956	69	31
383.524	383.956	84	46
383.956	384.378	60	28
383.956	384.378	67	33
383.956	384.378	76	35
383.956	384.403	84	46
384.165	384.378	82	41
384.378	384.804	60	25
384.378	384.804	67	30
384.378	384.804	76	35
384.378	384.804	82	46
384.804	385.243	60	25
384.804	385.243	67	30
384.804	385.243	76	32
384.804	385.243	82	41
385.243	386.1	60	28
385.243	386.1	67	33
385.243	386.1	76	35
385.243	386.1	82	46
386.089	386.519	62	25
386.089	386.519	65	30
386.089	386.519	77	33
386.089	386.519	81	42
386.519	386.939	58	33
386.519	386.934	81	35
386.519	386.939	84	46
386.724	386.939	79	31
386.724	386.939	82	40
386.934	387.359	60	32
386.934	387.359	77	35
386.934	387.359	81	46
387.354	387.78	58	32
387.354	387.78	76	30
387.354	387.78	79	39
387.78	388.103	45	58
387.78	388.103	57	69
387.78	387.98	81	63
387.78	387.98	84	63
387.98	388.103	81	50
387.98	388.103	84	50
388.18	388.281	61	40
388.381	388.482	79	33
388.381	388.482	82	33
388.582	388.684	62	40
388.786	388.888	77	33
388.786	388.888	81	33
388.99	389.093	58	40
389.195	389.297	70	33
389.195	389.297	79	33
389.399	389.499	60	40
389.598	389.698	69	33
389.598	389.698	77	33
389.798	389.901	58	40
390.004	390.107	67	33
390.004	390.107	76	33
390.209	390.629	45	75
390.209	390.629	57	75
390.312	390.518	81	72
390.415	390.629	84	75
390.518	390.629	81	72
390.62	391.029	49	73
390.62	391.029	61	73
390.72	390.92	79	70
390.82	391.029	82	75
390.92	391.029	79	70
391.02	391.436	50	73
391.02	391.436	62	73
391.123	391.328	77	72
391.225	391.436	81	75
391.328	391.436	77	71
391.431	391.846	46	75
391.431	391.846	58	75
391.532	391.735	70	71
391.634	391.846	79	75
391.735	391.846	70	71
391.836	392.239	48	73
391.836	392.239	60	73
391.937	392.138	69	71
392.037	392.247	77	75
392.138	392.247	69	71
392.239	392.653	48	73
392.239	392.653	60	73
392.342	392.549	67	71
392.446	392.653	76	75
392.549	392.653	67	71
392.653	393.065	41	64
392.653	393.474	69	75
392.653	393.482	72	75
392.653	393.482	77	75
392.755	393.167	45	59
392.859	393.268	48	59
392.962	393.372	53	59
393.065	393.474	41	63
393.167	393.482	45	58
393.268	393.482	48	58
393.372	393.482	53	58
393.474	393.897	41	63
393.474	393.577	69	70
393.525	393.629	70	65
393.577	393.906	45	57
393.577	393.682	69	70
393.629	393.717	70	66
393.682	393.906	48	58
393.682	393.753	69	70
393.717	393.906	70	66
393.753	393.906	69	66
393.789	393.906	53	58
393.789	393.906	67	70
393.843	393.906	65	66
393.897	394.301	41	63
393.897	394.708	72	75
393.998	394.405	45	58
394.1	394.505	48	59
394.201	394.607	53	59
394.301	394.7	41	63
394.405	394.7	45	57
394.505	394.7	48	57
394.607	394.708	53	57
394.708	395.13	41	63
394.708	394.811	76	70
394.759	394.863	77	66
394.811	395.13	46	57
394.811	394.916	76	70
394.863	394.951	77	66
394.916	395.13	48	57
394.916	394.987	76	70
394.951	395.13	77	65
394.987	395.13	76	66
395.022	395.13	55	57
395.022	395.13	74	70
395.076	395.13	72	65
395.13	395.54	41	63
395.13	395.967	77	75
395.233	395.643	45	57
395.335	395.746	48	57
395.438	395.848	53	57
395.54	395.959	41	63
395.643	395.967	45	57
395.746	395.967	48	57
395.848	395.967	53	57
395.959	396.382	41	63
395.959	396.062	81	70
396.01	396.114	82	65
396.062	396.391	45	57
396.062	396.167	81	70
396.114	396.202	82	66
396.167	396.391	48	58
396.167	396.238	81	70
396.202	396.391	82	66
396.238	396.391	81	66
396.273	396.391	53	58
396.273	396.391	79	70
396.328	396.391	77	66
396.382	396.786	41	63
396.382	396.778	84	75
396.483	396.89	45	58
396.585	396.99	48	59
396.685	397.091	53	59
396.778	397.186	84	75
396.786	397.186	41	63
396.89	397.186	45	57
396.99	397.186	48	57
397.091	397.192	53	57
397.192	397.61	41	63
397.192	397.296	88	70
397.244	397.348	89	66
397.296	397.61	46	57
397.296	397.4	88	70
397.348	397.436	89	66
397.4	397.61	48	57
397.4	397.471	88	70
397.436	397.61	89	65
397.471	397.61	88	66
397.507	397.615	55	57
397.507	397.61	86	70
397.561	397.615	84	65
397.607	397.797	53	63
397.607	397.797	57	63
397.607	397.797	60	63
397.607	397.797	65	63
397.615	397.797	89	75
398.038	398.685	45	58
398.038	398.685	57	69
398.038	398.685	81	88
398.65	398.854	49	63
398.65	398.854	61	63
398.65	398.854	73	75
398.854	399.017	50	63
398.854	399.017	62	63
398.854	399.017	74	75
399.282	399.904	53	60
399.282	399.904	65	71
399.282	399.904	77	89
399.894	400.098	57	63
399.894	400.098	69	75
400.098	400.201	58	56
400.098	400.201	70	70
400.149	400.253	60	52
400.149	400.253	72	65
400.201	400.304	58	56
400.201	400.304	70	70
400.253	400.339	60	52
400.253	400.339	72	66
400.304	400.373	58	56
400.304	400.373	70	70
400.339	400.511	60	52
400.339	400.511	72	66
400.373	400.521	58	52
400.373	400.521	70	66
400.408	400.521	57	56
400.408	400.521	69	70
400.459	400.521	55	52
400.459	400.521	67	66
400.511	400.614	60	63
400.511	400.614	72	84
400.925	401.056	48	56
400.925	401.056	60	67
400.925	401.056	67	72
400.925	401.056	72	72
400.925	401.056	76	86
401.35	401.519	53	60
401.35	401.519	65	72
401.35	401.519	69	72
401.35	401.519	72	72
401.35	401.519	77	86
401.776	402.039	41	58
401.776	402.039	53	69
401.776	402.039	65	79
402.628	403.888	67	50
403.044	403.895	52	46
403.044	403.888	72	46
403.453	403.895	48	42
403.453	403.888	76	46
403.888	405.121	55	46
403.888	405.121	67	45
403.888	404.713	72	48
403.888	404.713	76	53
404.704	405.121	71	43
404.704	405.121	74	43
405.121	406.353	79	50
405.526	406.353	52	46
405.526	406.349	67	40
405.526	406.349	72	46
405.929	406.353	48	42
405.929	406.349	76	46
406.349	407.588	55	46
406.349	407.588	67	45
406.349	407.18	72	48
406.349	407.18	76	53
407.171	407.588	71	43
407.171	407.588	74	43
407.588	408.797	53	29
407.588	408.797	57	29
407.588	408.797	62	35
407.588	408.799	69	50
407.993	408.799	74	50
408.398	408.799	77	50
408.797	409.62	53	29
408.797	409.62	57	29
408.797	409.62	62	35
408.797	409.62	76	50
409.2	409.62	74	50
409.611	411.261	81	50
410.028	411.261	55	27
410.028	411.261	62	27
410.028	411.261	65	32
410.445	411.261	79	50
410.853	411.261	71	50
411.261	412.113	60	35
411.261	411.669	64	42
411.261	412.113	72	50
411.465	411.873	67	50
411.669	412.113	64	50
411.873	412.113	67	50
412.077	412.281	65	50
412.281	412.501	62	50
412.501	412.813	60	50
412.813	412.918	55	43
412.918	413.761	52	46
412.918	413.755	60	46
413.326	413.761	48	44
413.326	413.755	64	48
413.755	414.988	43	48
413.755	414.988	55	47
413.755	414.58	60	50
413.755	414.58	64	55
414.571	414.988	59	43
414.571	414.988	62	43
414.988	416.229	67	50
415.393	416.229	52	46
415.393	416.224	55	40
415.393	416.224	60	46
415.795	416.229	48	44
415.795	416.224	64	48
416.224	417.463	43	48
416.224	417.463	55	47
416.224	417.056	60	50
416.224	417.056	64	55
417.046	417.463	59	43
417.046	417.463	62	43
417.463	418.685	41	29
417.463	418.685	45	29
417.463	418.685	50	35
417.463	418.687	57	50
417.868	418.687	62	50
418.274	418.687	65	50
418.685	419.507	41	29
418.685	419.507	45	29
418.685	419.507	50	35
418.685	419.507	64	50
419.087	419.507	62	50
419.498	421.148	69	50
419.915	421.148	43	30
419.915	421.148	50	30
419.915	421.148	53	36
420.332	421.148	67	50
420.74	421.148	59	50
421.148	421.565	48	32
421.148	421.565	52	37
421.148	421.565	60	52
421.361	421.565	67	34
421.565	421.965	64	40
421.765	421.865	67	34
421.965	422.379	60	37
422.168	422.273	67	34
422.379	422.782	62	40
422.379	422.48	65	34
422.379	422.48	67	40
422.58	422.681	65	28
422.58	422.681	67	33
422.782	423.184	59	38
422.983	423.083	65	28
422.983	423.083	67	33
423.184	423.603	55	38
423.39	423.496	65	28
423.39	423.496	67	33
423.603	424.008	48	40
423.603	423.704	63	34
423.603	423.704	67	40
423.805	423.907	63	28
423.805	423.907	67	34
424.008	424.416	51	40
424.212	424.314	63	28
424.212	424.314	67	34
424.416	424.832	48	37
424.62	424.726	63	28
424.62	424.726	67	34
424.832	425.234	50	40
424.832	424.932	65	34
424.832	424.932	67	40
425.033	425.133	65	28
425.033	425.133	67	33
425.234	425.639	47	38
425.437	425.538	65	28
425.437	425.538	67	33
425.639	426.055	43	38
425.842	425.948	65	23
425.842	425.948	67	33
426.055	426.47	36	58
426.055	426.47	48	69
426.055	426.256	63	53
426.055	426.256	67	63
426.256	426.47	63	42
426.256	426.47	67	50
426.46	426.878	60	40
426.664	426.878	63	28
426.664	426.878	67	33
426.868	427.281	48	40
427.072	427.281	63	28
427.072	427.281	67	33
427.281	427.693	33	58
427.281	427.693	45	69
427.281	427.479	60	53
427.281	427.479	63	53
427.281	427.479	66	63
427.479	427.693	60	42
427.479	427.693	63	42
427.479	427.693	66	50
427.683	428.101	57	40
427.887	428.101	60	28
427.887	428.101	63	28
427.887	428.101	66	33
428.091	428.504	45	40
428.295	428.504	60	28
428.295	428.504	63	28
428.295	428.504	66	33
428.504	428.916	34	58
428.504	428.916	46	69
428.504	428.702	62	53
428.504	428.702	67	63
428.702	428.916	62	42
428.702	428.916	67	50
428.906	429.32	58	40
429.109	429.32	62	28
429.109	429.32	67	33
429.311	429.722	46	40
429.515	429.722	62	28
429.515	429.722	67	33
429.722	430.129	30	58
429.722	430.129	42	69
429.722	429.92	62	53
429.722	429.92	69	53
429.722	429.92	72	63
429.92	430.129	62	42
429.92	430.129	69	42
429.92	430.129	72	50
430.12	430.54	54	40
430.325	430.54	62	28
430.325	430.54	69	28
430.325	430.54	72	33
430.531	430.946	42	40
430.736	430.946	62	28
430.736	430.946	69	28
430.736	430.946	72	33
430.946	431.358	31	58
430.946	431.358	43	69
430.946	431.144	62	53
430.946	431.144	67	53
430.946	431.144	70	63
431.144	431.358	62	42
431.144	431.358	67	42
431.144	431.358	70	50
431.348	431.76	55	40
431.549	431.76	62	28
431.549	431.76	67	28
431.549	431.76	70	33
431.75	432.164	43	40
431.954	432.164	62	28
431.954	432.164	67	28
431.954	432.164	70	33
432.164	432.571	40	58
432.164	432.571	52	69
432.164	432.363	67	53
432.164	432.363	70	53
432.164	432.363	73	63
432.363	432.571	67	42
432.363	432.571	70	42
432.363	432.571	73	50
432.562	432.976	64	40
432.765	432.976	67	28
432.765	432.976	70	28
432.765	432.976	73	33
432.967	433.379	52	40
433.169	433.379	67	28
433.169	433.379	70	28
433.169	433.379	73	33
433.379	433.787	41	58
433.379	433.787	53	69
433.379	433.578	69	53
433.379	433.578	74	63
433.578	433.787	69	42
433.578	433.787	74	50
433.777	434.192	65	40
433.98	434.192	69	28
433.98	434.192	74	33
434.182	434.595	53	40
434.385	434.595	69	28
434.385	434.595	74	33
434.595	435.007	37	58
434.595	435.007	49	69
434.595	434.793	69	53
434.595	434.793	76	53
434.595	434.793	79	63
434.793	435.007	69	42
434.793	435.007	76	42
434.793	435.007	79	50
434.997	435.415	61	40
435.201	435.415	69	28
435.201	435.415	76	28
435.201	435.415	79	33
435.405	435.819	49	40
435.609	435.819	69	28
435.609	435.819	76	28
435.609	435.819	79	33
435.819	436.231	38	58
435.819	436.231	50	69
435.819	436.018	69	53
435.819	436.018	74	53
435.819	436.018	77	63
436.018	436.231	69	42
436.018	436.231	74	42
436.018	436.231	77	50
436.222	436.639	62	40
436.426	436.639	69	28
436.426	436.639	74	28
436.426	436.639	77	33
436.63	437.052	50	40
436.834	437.052	69	28
436.834	437.052	74	28
436.834	437.052	77	33
437.052	437.463	34	58
437.052	437.463	46	69
437.052	437.25	74	53
437.052	437.25	80	65
437.25	437.463	74	42
437.25	437.463	80	54
437.454	437.872	58	40
437.658	437.872	74	28
437.658	437.872	80	33
437.862	438.291	46	40
438.066	438.291	74	28
438.066	438.291	80	33
438.291	438.706	45	44
438.291	438.502	73	32
438.291	438.502	81	38
438.502	438.715	77	31
438.502	438.715	81	37
438.706	438.919	76	28
438.706	438.919	79	33
438.91	439.123	74	26
438.91	439.123	77	31
439.114	439.327	73	28
439.114	439.327	76	33
439.318	439.532	68	38
439.318	439.54	74	25
439.318	439.54	77	30
439.532	439.736	69	41
439.532	439.736	73	32
439.532	439.736	76	38
439.736	439.948	65	31
439.736	439.948	69	37
439.939	440.152	64	28
439.939	440.152	67	33
440.143	440.356	62	26
440.143	440.356	65	31
440.347	440.56	61	28
440.347	440.56	64	33
440.551	440.771	56	32
440.551	440.771	62	25
440.551	440.771	65	30
440.762	440.971	57	39
440.762	440.971	61	31
440.762	440.971	64	37
440.962	441.172	56	35
440.962	441.172	62	27
440.962	441.172	65	32
441.163	441.372	57	39
441.163	441.372	61	31
441.163	441.372	64	37
441.363	441.573	56	31
441.363	441.573	62	28
441.363	441.573	65	34
441.564	441.771	57	39
441.564	441.771	61	31
441.564	441.771	64	37
441.763	441.971	56	32
441.763	441.963	62	28
441.763	441.963	65	34
441.963	442.36	57	39
441.963	442.36	61	31
441.963	442.36	64	37
443.161	443.366	57	31
443.161	443.366	60	24
443.161	443.366	64	29
443.358	443.569	56	28
443.358	443.569	62	21
443.358	443.569	65	25
443.56	443.767	57	31
443.56	443.767	60	24
443.56	443.767	64	29
443.759	443.965	56	24
443.759	443.965	62	22
443.759	443.965	65	27
443.957	444.165	57	31
443.957	444.165	60	24
443.957	444.165	64	29
444.157	444.37	56	25
444.157	444.37	62	22
444.157	444.37	65	27
444.362	444.756	57	31
444.362	444.756	60	31
444.362	444.756	64	29
445.545	445.751	55	63
445.545	447.127	58	49
445.545	447.127	60	49
445.545	445.751	64	59
445.743	445.952	57	57
445.743	445.952	65	51
445.944	446.148	55	63
445.944	446.148	64	59
446.14	446.346	57	49
446.14	446.346	65	55
446.338	446.542	55	63
446.338	446.542	64	59
446.534	446.741	57	51
446.534	446.741	65	55
446.732	447.127	55	63
446.732	447.127	64	59
447.915	449.573	60	29
447.915	448.126	67	39
447.915	449.573	76	31
447.915	448.126	82	37
448.117	448.336	66	35
448.117	448.336	81	32
448.327	448.541	67	39
448.327	448.541	82	37
448.532	448.754	66	31
448.532	448.754	81	34
448.745	448.964	67	39
448.745	448.964	82	37
448.955	449.184	66	32
448.955	449.176	81	34
449.176	449.573	67	39
449.176	449.573	82	37
450.372	451.611	53	40
450.372	451.62	65	50
450.584	450.991	57	30
450.787	451.194	60	33
450.991	451.397	57	30
451.194	451.62	60	34
451.194	451.62	69	47
451.397	451.62	57	30
451.611	452.843	53	40
451.611	452.849	72	52
451.817	452.224	60	29
452.021	452.428	63	31
452.224	452.631	60	27
452.428	452.849	63	31
452.428	452.849	69	46
452.631	452.849	60	28
452.843	454.089	53	40
452.843	454.096	70	50
453.049	453.462	58	30
453.256	453.669	62	33
453.462	453.879	58	30
453.669	454.096	62	33
453.669	454.096	79	47
453.879	454.096	58	30
454.089	454.514	53	40
454.089	454.514	77	47
454.292	454.514	55	23
454.292	454.502	76	44
454.502	454.712	58	28
454.502	454.922	76	44
454.712	454.922	55	24
454.922	455.13	58	29
455.13	455.345	55	24
455.345	456.204	53	30
455.345	456.204	57	30
455.345	456.204	77	50
455.765	456.204	69	46
456.181	456.601	74	46
456.601	457.867	67	50
457.024	457.867	72	54
457.654	457.867	69	45
457.867	459.125	53	47
457.867	459.533	65	50
458.283	459.125	45	44
458.7	459.125	50	48
459.116	459.533	43	48
459.116	460.372	67	50
459.533	460.161	48	49
459.533	459.585	64	42
459.585	459.637	65	37
459.637	459.741	64	48
459.741	459.949	62	48
459.949	460.372	64	50
460.161	460.372	45	47
460.372	461.619	41	52
460.372	462.027	65	48
460.372	461.619	69	48
460.792	461.619	50	40
460.792	461.619	70	52
461.202	461.619	46	44
461.202	461.619	74	55
461.619	462.027	45	47
461.619	461.824	74	58
461.824	462.027	72	57
462.027	462.23	70	56
462.23	462.434	69	54
462.434	462.844	50	40
462.434	462.637	67	53
462.637	462.844	65	51
462.844	463.359	46	40
462.844	463.359	67	54
463.248	463.359	70	50
463.668	464.094	48	41
463.668	464.094	58	54
463.668	464.094	64	54
464.094	464.51	41	43
464.094	464.51	57	56
464.094	464.51	65	56
464.927	465.239	69	32
464.927	465.239	72	40
464.927	465.239	84	50
465.239	465.348	67	28
465.239	465.348	70	35
465.239	465.348	82	44
465.348	465.452	65	32
465.348	465.452	69	40
465.348	465.452	81	50
465.764	465.868	65	32
465.764	465.868	69	40
465.764	465.868	81	50
466.185	466.497	65	29
466.185	466.497	69	37
466.185	466.497	81	47
466.497	466.601	60	26
466.497	466.601	67	33
466.497	466.601	79	42
466.601	466.705	57	30
466.601	466.705	65	38
466.601	466.705	77	48
467.018	467.122	57	28
467.018	467.122	65	35
467.018	467.122	77	44
467.437	467.854	57	28
467.437	467.854	65	35
467.437	467.854	77	44
467.854	467.958	60	28
467.854	467.958	67	36
467.854	467.958	76	46
467.854	467.958	79	46
468.27	468.374	60	28
468.27	468.374	67	35
468.27	468.374	76	44
468.27	468.374	79	44
468.687	468.793	60	28
468.687	468.793	67	35
468.687	468.793	76	44
468.687	468.793	79	44
469.11	469.526	60	32
469.11	469.526	67	40
469.11	469.526	76	50
469.11	469.526	79	50
469.526	469.962	65	28
469.526	469.962	69	35
469.526	469.962	77	44
469.526	469.962	81	44
469.962	470.35	69	32
469.962	470.35	72	40
469.962	470.156	84	50
470.059	470.35	86	44
470.156	470.35	84	44
470.253	470.35	67	28
470.253	470.35	70	35
470.253	470.35	82	44
470.35	470.454	65	32
470.35	470.454	69	40
470.35	470.454	81	50
470.766	470.871	65	32
470.766	470.871	69	40
470.766	470.871	81	50
471.183	471.586	65	29
471.183	471.586	69	37
471.183	471.377	81	47
471.28	471.586	82	42
471.377	471.586	81	42
471.474	471.586	60	26
471.474	471.586	67	33
471.474	471.586	79	42
471.586	471.69	57	30
471.586	471.69	65	38
471.586	471.69	77	48
472.002	472.106	57	28
472.002	472.106	65	35
472.002	472.106	77	44
472.418	472.523	57	28
472.418	472.523	65	35
472.418	472.523	77	44
472.835	473.27	60	29
472.835	473.27	67	37
472.835	473.27	79	49
473.245	473.354	82	44
473.682	474.105	60	28
473.682	474.105	67	35
473.682	474.105	70	35
473.682	474.105	76	44
474.105	474.528	65	39
474.105	474.528	69	38
474.105	474.528	77	48
474.951	475.374	60	28
474.951	475.374	64	28
474.951	475.374	70	35
474.951	475.374	84	44
475.374	475.797	65	31
475.374	475.797	69	39
475.374	475.797	77	48
476.22	476.643	48	25
476.22	476.643	52	25
476.22	476.643	58	31
476.22	476.643	72	39
476.643	477.066	53	27
476.643	477.066	57	35
476.643	477.066	65	43
477.489	477.918	37	51
477.489	477.918	49	60
477.489	477.918	61	80
477.918	479.152	38	56
477.918	479.152	50	66
477.918	479.152	62	85
478.126	478.542	53	60
478.334	478.745	57	60
478.542	478.948	53	60
478.542	479.152	65	70
478.643	478.948	69	72
478.745	479.152	57	63
478.745	479.05	74	84
478.948	479.152	53	60
478.948	479.152	69	71
479.05	479.152	74	73
479.152	480.4	50	65
479.152	479.457	77	86
479.355	479.765	53	60
479.355	480.181	74	71
479.457	479.971	77	73
479.559	479.971	57	63
479.559	479.765	81	87
479.765	480.181	53	60
479.765	480.4	81	80
479.971	480.4	57	60
479.971	480.4	77	80
480.181	480.4	53	62
480.181	480.4	74	80
480.29	480.4	73	70
480.327	480.4	76	70
480.363	480.4	79	70
480.4	480.952	40	60
480.4	480.824	52	71
480.4	481.031	82	90
480.824	480.952	52	60
480.824	480.952	55	60
480.824	480.952	58	60
480.824	480.952	61	71
481.031	481.14	81	71
481.131	481.24	79	68
481.23	481.34	77	68
481.33	481.44	76	68
481.43	481.541	74	69
481.53	481.653	73	72
481.643	482.196	40	60
481.643	482.067	52	71
481.643	482.275	82	90
482.067	482.196	52	60
482.067	482.196	55	60
482.067	482.196	58	60
482.067	482.196	61	71
482.275	482.386	81	71
482.376	482.486	79	68
482.476	482.587	77	68
482.577	482.687	76	68
482.677	482.788	74	69
482.778	482.888	73	72
482.878	484.109	53	66
482.878	483.702	74	88
483.085	483.498	57	60
483.292	483.702	62	60
483.498	483.905	57	60
483.498	484.109	65	70
483.6	483.905	69	72
483.702	484.109	62	63
483.702	484.007	74	84
483.905	484.109	57	60
483.905	484.109	69	71
484.007	484.109	74	73
484.109	485.356	53	65
484.109	484.414	77	86
484.312	484.722	57	60
484.312	485.137	74	71
484.414	484.928	77	73
484.515	484.928	62	63
484.515	484.722	81	87
484.722	485.137	57	60
484.722	485.356	81	80
484.928	485.356	62	60
484.928	485.356	77	80
485.137	485.356	57	62
485.137	485.356	74	80
485.356	485.909	38	60
485.356	485.781	50	71
485.356	485.987	71	75
485.356	485.987	74	75
485.356	485.987	77	75
485.356	485.987	80	90
485.781	485.909	50	60
485.781	485.909	53	60
485.781	485.909	56	60
485.781	485.909	59	71
485.987	486.097	79	71
486.087	486.197	77	68
486.187	486.297	75	68
486.287	486.397	74	68
486.387	486.498	72	69
486.486	486.614	71	72
486.603	487.157	38	60
486.603	487.028	50	71
486.603	487.236	80	90
487.028	487.157	50	60
487.028	487.157	53	60
487.028	487.157	56	60
487.028	487.157	59	71
487.236	487.347	79	71
487.337	487.448	77	68
487.438	487.549	75	68
487.539	487.65	74	68
487.64	487.752	72	69
487.742	487.853	71	72
487.843	489.069	51	66
487.843	488.662	72	88
488.048	488.459	55	60
488.253	488.662	60	60
488.459	488.865	55	60
488.459	489.069	63	70
488.56	488.865	67	72
488.662	489.069	60	63
488.662	488.967	72	84
488.865	489.069	55	60
488.865	489.069	67	71
488.967	489.069	72	73
489.069	490.317	51	65
489.069	489.374	75	86
489.272	489.682	55	60
489.272	490.098	72	71
489.374	489.888	75	73
489.476	489.888	60	63
489.476	489.682	79	87
489.682	490.098	55	60
489.682	490.317	79	80
489.888	490.317	60	60
489.888	490.317	75	80
490.098	490.317	55	62
490.098	490.317	72	80
490.317	490.869	39	71
490.317	490.948	69	75
490.317	490.948	72	75
490.317	490.948	75	75
490.317	490.948	78	90
490.741	490.869	51	60
490.741	490.869	54	60
490.741	490.869	57	60
490.741	490.869	60	71
490.948	491.057	77	71
491.047	491.157	75	68
491.147	491.257	73	68
491.247	491.357	72	68
491.347	491.458	70	69
491.447	491.574	69	72
491.563	492.117	39	71
491.563	492.196	78	90
491.988	492.117	51	60
491.988	492.117	54	60
491.988	492.117	57	60
491.988	492.117	60	71
492.196	492.31	77	71
492.3	492.414	75	68
492.404	492.518	73	68
492.508	492.622	72	68
492.611	492.726	70	69
492.715	492.83	69	72
492.819	494.053	49	66
492.819	493.443	70	88
493.027	493.443	53	60
493.235	493.646	58	60
493.339	493.544	65	69
493.443	493.85	53	60
493.443	493.748	70	74
493.544	495.317	65	70
493.646	494.476	58	63
493.646	493.85	73	74
493.748	493.951	70	71
493.85	494.256	53	60
493.85	494.155	73	75
493.951	495.317	70	70
494.053	495.317	49	66
494.053	494.256	77	74
494.155	494.358	73	71
494.256	494.68	53	60
494.256	495.317	77	74
494.358	495.317	73	71
494.476	494.89	58	60
494.476	495.317	82	91
494.68	495.099	53	60
494.89	495.317	58	63
495.099	495.317	53	60
495.308	496.542	48	66
495.308	495.932	69	88
495.516	495.932	53	60
495.724	496.135	57	60
495.828	496.034	65	69
495.932	496.339	53	60
495.932	496.237	69	74
496.034	497.82	65	70
496.135	496.965	57	63
496.135	496.339	72	74
496.237	496.441	69	71
496.339	496.746	53	60
496.339	496.644	72	75
496.441	497.82	69	70
496.542	497.82	48	66
496.542	496.746	77	74
496.644	496.847	72	71
496.746	497.17	53	60
496.746	497.82	77	74
496.847	497.82	72	71
496.965	497.379	57	60
496.965	497.82	81	91
497.17	497.588	53	60
497.379	497.82	57	63
497.588	497.82	53	60
497.811	499.045	47	66
497.811	498.435	68	88
498.019	498.435	53	60
498.227	498.638	56	60
498.331	498.536	65	69
498.435	498.841	53	60
498.435	498.74	68	74
498.536	500.168	65	70
498.638	499.467	56	63
498.638	498.841	74	74
498.74	498.943	68	71
498.841	499.248	53	60
498.841	499.146	74	75
498.943	500.168	68	70
499.045	500.168	47	66
499.045	499.248	77	74
499.146	499.35	74	71
499.248	499.672	53	60
499.248	499.882	77	74
499.35	500.168	74	71
499.467	499.882	56	60
499.467	500.168	80	91
499.672	500.091	53	60
499.882	500.168	56	63
499.882	500.196	77	81
500.091	501.151	53	60
500.196	500.232	72	70
500.232	500.268	76	70
500.268	501.164	79	70
500.305	501.164	48	66
500.305	501.164	84	90
500.516	501.164	52	60
500.728	501.164	55	60
500.94	501.164	60	60
501.151	501.355	53	63
501.151	501.262	82	72
501.253	501.364	80	72
501.355	501.57	56	60
501.355	501.467	79	73
501.457	501.57	77	76
501.57	502.418	48	66
501.57	502.418	84	90
501.778	502.418	52	60
501.987	502.418	55	60
502.195	502.418	60	60
502.403	502.605	53	63
502.403	502.512	82	72
502.504	502.614	80	72
502.605	502.808	56	60
502.605	502.715	79	73
502.707	502.808	77	76
502.808	503.433	60	72
502.808	503.433	72	90
503.43	503.54	61	63
503.43	503.54	73	79
503.531	503.643	60	62
503.531	503.643	72	78
503.635	503.748	58	60
503.635	503.748	70	76
503.739	503.854	56	60
503.739	503.854	68	75
503.845	503.963	55	59
503.845	503.963	67	74
503.953	504.081	53	57
503.953	504.081	65	72
504.072	504.18	60	63
504.072	504.18	72	79
504.504	504.612	36	48
504.504	504.612	48	57
504.504	504.612	60	72
505.207	505.74	41	35
505.261	505.74	48	35
505.315	505.74	60	41
505.369	505.792	53	35
505.369	505.74	69	45
505.792	505.898	69	43
506.216	506.337	69	43
506.512	507.336	48	34
506.566	507.336	55	34
506.619	507.336	64	42
506.672	507.336	58	35
506.672	507.336	72	45
507.311	507.525	70	41
507.525	507.967	67	41
507.967	508.399	41	35
507.967	508.399	57	45
507.967	508.399	67	45
508.18	508.393	65	41
508.393	509.232	45	31
508.393	509.232	60	45
508.393	509.232	65	45
508.807	509.232	48	31
509.014	509.232	64	45
509.014	509.232	67	45
509.232	509.99	53	35
509.232	510.085	64	49
509.232	510.085	67	49
509.662	510.085	41	31
510.085	510.52	65	45
510.085	510.52	69	45
510.52	511.383	50	35
510.52	511.207	70	45
510.95	511.383	53	33
510.95	511.383	58	33
511.154	511.364	72	46
511.207	511.312	70	42
511.259	511.383	69	42
511.312	511.383	70	45
511.364	511.8	72	49
511.574	511.792	74	47
511.792	512.635	52	38
511.792	512.215	74	55
511.999	512.215	72	49
512.206	512.635	55	35
512.206	512.635	60	35
512.206	512.635	71	52
512.413	512.635	72	45
512.62	513.051	70	50
512.827	513.051	67	45
513.047	513.473	53	41
513.047	513.488	68	49
513.26	513.488	69	45
513.473	513.895	50	31
513.473	513.895	53	37
513.473	513.895	70	50
513.678	513.895	69	45
513.884	514.317	46	29
513.884	514.317	55	35
513.884	514.317	72	49
514.089	514.317	70	45
514.312	514.741	48	34
514.312	514.741	52	41
514.312	514.741	69	52
514.525	514.741	67	45
514.732	514.939	65	48
514.939	515.146	64	45
515.146	515.359	62	46
515.359	515.572	60	45
515.572	515.999	53	39
515.572	515.999	68	39
515.572	515.999	80	49
515.714	516.009	57	31
515.785	516.009	69	33
515.785	516.009	81	42
515.857	516.009	60	31
515.999	516.418	53	39
515.999	516.418	68	39
515.999	516.418	80	49
516.138	516.429	57	32
516.208	516.429	69	32
516.208	516.429	81	41
516.278	516.429	60	32
516.418	516.863	53	40
516.418	516.863	68	41
516.418	516.863	80	52
516.56	516.863	57	32
516.631	516.863	69	38
516.631	516.863	81	48
516.704	516.863	60	32
516.85	517.276	52	43
516.85	517.276	71	46
516.85	517.276	83	58
516.992	517.286	55	36
517.063	517.286	72	42
517.063	517.286	84	53
517.134	517.286	60	35
517.276	517.695	52	40
517.276	517.706	71	46
517.276	517.706	83	58
517.416	517.706	55	33
517.486	517.706	72	36
517.486	517.706	84	46
517.556	517.706	60	29
517.695	518.121	52	37
517.695	518.121	82	49
517.837	518.121	58	29
517.908	518.121	79	39
517.979	518.121	60	29
518.121	518.553	53	29
518.121	518.547	57	35
518.121	518.547	79	45
518.334	518.553	77	41
518.547	518.97	57	31
518.547	518.97	72	41
518.547	518.97	79	45
518.754	518.97	77	41
518.961	519.386	60	31
518.961	519.386	76	41
518.961	519.386	81	45
519.168	519.386	79	45
519.386	520.144	65	35
519.386	520.239	76	49
519.386	520.144	79	49
519.816	520.239	60	31
520.027	520.239	80	49
520.239	520.674	53	31
520.239	520.674	77	45
520.239	520.674	81	45
520.674	521.518	62	35
520.674	521.361	82	49
520.896	521.308	65	31
521.104	521.537	70	32
521.308	521.537	65	33
521.308	521.518	84	50
521.361	521.466	82	46
521.413	521.537	81	46
521.466	521.537	82	49
521.518	521.954	62	35
521.518	521.954	84	53
521.728	521.954	65	38
521.728	521.946	86	51
521.946	522.369	64	40
521.946	522.369	86	60
522.153	522.369	67	35
522.153	522.369	84	53
522.36	522.789	72	42
522.36	522.789	83	57
522.567	522.789	67	35
522.567	522.789	84	49
522.774	523.205	64	35
522.774	523.205	82	55
522.981	523.205	67	34
522.981	523.205	79	49
523.201	523.642	65	41
523.201	523.642	80	53
523.414	523.642	81	49
523.627	524.049	58	37
523.627	524.049	67	37
523.627	524.049	84	55
523.832	524.049	82	49
524.038	524.471	60	35
524.038	524.471	70	35
524.038	524.471	79	53
524.243	524.471	76	49
524.466	524.883	65	32
524.466	524.883	69	37
524.466	524.883	77	54
524.679	524.883	72	35
524.883	525.291	69	40
525.087	525.189	72	35
525.291	525.707	65	37
525.495	525.601	72	35
525.707	526.118	67	40
525.707	525.81	70	35
525.707	525.81	72	42
525.912	526.015	70	29
525.912	526.015	72	34
526.118	526.526	64	38
526.322	526.424	70	29
526.322	526.424	72	34
526.526	526.945	60	38
526.732	526.838	70	29
526.732	526.838	72	34
526.945	527.35	53	40
526.945	527.045	68	35
526.945	527.045	72	42
527.146	527.248	68	29
527.146	527.248	72	35
527.35	527.758	56	40
527.554	527.656	68	29
527.554	527.656	72	35
527.758	528.173	53	37
527.962	528.067	68	29
527.962	528.067	72	35
528.173	528.579	55	40
528.173	528.274	70	35
528.173	528.274	72	42
528.374	528.477	70	29
528.374	528.477	72	34
528.579	528.988	52	38
528.784	528.886	70	29
528.784	528.886	72	34
528.988	529.405	48	38
529.192	529.298	70	29
529.192	529.298	72	34
529.405	529.822	41	58
529.405	529.822	53	69
529.405	529.609	68	63
529.405	529.609	72	63
529.609	529.822	68	50
529.609	529.822	72	50
529.813	530.23	56	40
530.017	530.23	68	33
530.017	530.23	72	33
530.221	530.633	60	40
530.425	530.633	68	33
530.425	530.633	72	33
530.633	531.047	46	58
530.633	531.047	58	69
530.633	530.833	68	63
530.633	530.833	73	63
530.833	531.047	68	50
530.833	531.047	73	50
531.037	531.455	61	40
531.241	531.455	68	33
531.241	531.455	73	33
531.445	531.858	65	40
531.65	531.858	68	33
531.65	531.858	73	33
531.858	532.27	39	58
531.858	532.27	51	69
531.858	532.056	67	63
531.858	532.056	73	63
532.056	532.27	67	50
532.056	532.27	73	50
532.261	532.678	55	40
532.465	532.678	67	33
532.465	532.678	73	33
532.669	533.08	58	40
532.873	533.08	67	33
532.873	533.08	73	33
533.08	533.492	44	58
533.08	533.492	56	69
533.08	533.278	67	63
533.08	533.278	72	63
533.278	533.492	67	50
533.278	533.492	72	50
533.482	533.9	60	40
533.686	533.9	67	33
533.686	533.9	72	33
533.89	534.304	63	40
534.094	534.304	67	33
534.094	534.304	72	33
534.304	534.713	37	58
534.304	534.713	49	69
534.304	534.504	65	63
534.304	534.504	72	63
534.504	534.713	65	50
534.504	534.713	72	50
534.704	535.115	61	40
534.909	535.115	65	33
534.909	535.115	72	33
535.115	535.527	43	58
535.115	535.527	55	69
535.115	535.316	65	63
535.115	535.316	70	63
535.316	535.527	65	50
535.316	535.527	70	50
535.517	535.926	67	40
535.721	535.926	65	33
535.721	535.926	70	33
535.926	536.332	36	58
535.926	536.332	48	69
535.926	536.124	64	63
535.926	536.124	70	63
536.124	536.332	64	50
536.124	536.332	70	50
536.322	536.736	60	40
536.527	536.736	64	33
536.527	536.736	70	33
536.731	537.142	61	45
536.932	537.142	65	33
536.932	537.142	68	33
537.133	537.551	60	39
537.337	537.551	65	33
537.337	537.551	68	33
537.541	537.955	59	39
537.748	537.955	65	33
537.748	537.955	68	33
537.955	538.371	60	44
537.955	538.167	64	32
537.955	538.167	67	38
538.167	538.379	68	31
538.167	538.379	72	37
538.371	538.583	67	28
538.371	538.583	70	33
538.575	538.787	65	26
538.575	538.787	68	31
538.779	538.992	64	28
538.779	538.992	67	33
538.983	539.196	59	41
538.983	539.204	65	25
538.983	539.204	68	30
539.196	539.604	60	44
539.196	539.4	64	32
539.196	539.4	67	38
539.4	539.612	68	31
539.4	539.612	72	37
539.604	539.817	67	28
539.604	539.817	70	33
539.808	540.021	65	26
539.808	540.021	68	31
540.012	540.225	64	28
540.012	540.225	67	33
540.216	540.436	59	32
540.216	540.436	65	25
540.216	540.436	68	30
540.428	540.639	60	39
540.428	540.639	64	31
540.428	540.639	67	37
540.63	540.845	59	35
540.63	540.845	65	27
540.63	540.845	68	32
540.837	541.048	60	39
540.837	541.048	64	31
540.837	541.048	67	37
541.039	541.254	59	31
541.039	541.254	65	28
541.039	541.254	68	34
541.246	541.457	60	39
541.246	541.457	64	31
541.246	541.457	67	37
541.448	541.667	59	32
541.448	541.667	65	28
541.448	541.667	68	34
541.658	542.066	60	38
541.658	541.862	64	31
541.658	541.862	67	37
541.862	542.074	63	33
541.862	542.074	66	33
542.066	542.279	64	35
542.066	542.279	67	35
542.271	542.488	66	36
542.271	542.488	69	36
542.479	542.7	67	38
542.479	542.7	70	38
542.69	542.938	69	40
542.69	542.938	72	40
542.929	543.355	58	33
542.929	543.355	70	35
542.929	543.355	74	42
543.355	543.78	58	31
543.355	543.78	65	34
543.355	543.78	70	34
543.355	543.78	74	40
543.78	544.213	58	31
543.78	544.213	65	34
543.78	544.213	70	34
543.78	544.213	74	40
544.213	545.065	58	33
544.213	545.504	65	35
544.213	545.065	70	35
544.213	545.065	74	42
545.059	545.504	53	31
545.059	545.504	69	28
545.059	545.504	72	34
545.504	545.926	48	33
545.504	545.926	64	35
545.504	545.926	67	35
545.504	545.951	72	42
545.713	545.926	70	38
545.926	546.352	48	30
545.926	546.352	64	35
545.926	546.352	67	35
545.926	546.352	70	42
546.352	546.791	48	30
546.352	546.791	64	32
546.352	546.791	67	32
546.352	546.791	70	38
546.791	547.648	48	33
546.791	547.648	64	35
546.791	547.648	67	35
546.791	547.648	70	42
547.637	548.067	50	30
547.637	548.067	65	33
547.637	548.067	69	39
548.067	548.487	46	33
548.067	548.482	69	35
548.067	548.487	72	42
548.272	548.487	67	31
548.272	548.487	70	37
548.482	548.902	48	32
548.482	548.907	65	35
548.482	548.907	69	42
548.902	549.328	48	32
548.902	549.328	64	30
548.902	549.328	67	36
549.328	549.758	53	33
549.328	549.548	65	35
549.328	549.548	69	42
549.548	549.741	77	35
549.758	549.95	79	37
549.968	550.158	81	38
550.175	550.365	82	40
550.382	550.57	84	41
550.587	551.013	65	28
550.587	551.013	70	33
550.587	551.013	86	46
551.013	551.44	65	26
551.013	551.44	70	31
551.013	551.44	86	44
551.44	551.872	65	26
551.44	551.872	70	31
551.44	551.872	86	44
551.872	553.151	65	28
551.872	552.724	70	33
551.872	552.612	86	46
552.507	552.724	88	39
552.612	552.724	86	39
552.718	553.151	69	31
552.718	553.151	84	46
553.151	553.572	60	28
553.151	553.572	67	33
553.151	553.572	76	35
553.151	553.597	84	46
553.359	553.572	82	41
553.572	553.998	60	25
553.572	553.998	67	30
553.572	553.998	76	35
553.572	553.998	82	46
553.998	554.438	60	25
553.998	554.438	67	30
553.998	554.438	76	32
553.998	554.438	82	41
554.438	555.294	60	28
554.438	555.294	67	33
554.438	555.294	76	35
554.438	555.294	82	46
555.284	555.713	62	25
555.284	555.713	65	30
555.284	555.713	77	33
555.284	555.713	81	42
555.713	556.134	58	33
555.713	556.128	81	35
555.713	556.134	84	46
555.919	556.134	79	31
555.919	556.134	82	40
556.128	556.553	60	32
556.128	556.553	77	35
556.128	556.553	81	46
556.548	556.975	58	32
556.548	556.975	76	30
556.548	556.975	79	39
556.975	557.293	45	58
556.975	557.293	57	69
556.975	557.171	81	63
556.975	557.171	84	63
557.171	557.293	81	50
557.171	557.293	84	50
557.368	557.469	61	40
557.57	557.67	79	33
557.57	557.67	82	33
557.771	557.873	62	40
557.975	558.077	77	33
557.975	558.077	81	33
558.179	558.281	58	40
558.383	558.485	70	33
558.383	558.485	79	33
558.587	558.687	60	40
558.787	558.887	69	33
558.787	558.887	77	33
558.987	559.089	58	40
559.192	559.295	67	33
559.192	559.295	76	33
559.398	559.817	45	75
559.398	559.817	57	75
559.5	559.706	81	72
559.603	559.817	84	75
559.706	559.817	81	72
559.809	560.218	49	73
559.809	560.218	61	73
559.909	560.108	79	70
560.009	560.218	82	75
560.108	560.218	79	70
560.208	560.624	50	73
560.208	560.624	62	73
560.311	560.517	77	72
560.414	560.624	81	75
560.517	560.624	77	71
560.619	561.035	46	75
560.619	561.035	58	75
560.721	560.923	70	71
560.822	561.035	79	75
560.923	561.035	70	71
561.025	561.427	48	73
561.025	561.427	60	73
561.125	561.326	69	71
561.226	561.436	77	75
561.326	561.436	69	71
561.427	561.841	48	73
561.427	561.841	60	73
561.531	561.738	67	71
561.634	561.841	76	75
561.738	561.841	67	71
561.841	562.254	41	64
561.841	562.662	69	75
561.841	562.671	72	75
561.841	562.671	77	75
561.943	562.355	45	59
562.048	562.456	48	59
562.151	562.56	53	59
562.254	562.662	41	63
562.355	562.671	45	58
562.456	562.671	48	58
562.56	562.671	53	58
562.662	563.086	41	63
562.662	562.765	69	70
562.714	562.817	70	65
562.765	563.094	45	57
562.765	562.87	69	70
562.817	562.905	70	66
562.87	563.094	48	58
562.87	562.941	69	70
562.905	563.094	70	66
562.941	563.094	69	66
562.977	563.094	53	58
562.977	563.094	67	70
563.031	563.094	65	66
563.086	563.489	41	63
563.086	563.896	72	75
563.187	563.593	45	58
563.289	563.693	48	59
563.389	563.795	53	59
563.489	563.888	41	63
563.593	563.888	45	57
563.693	563.888	48	57
563.795	563.896	53	57
563.896	564.318	41	63
563.896	563.999	76	70
563.947	564.051	77	66
563.999	564.318	46	57
563.999	564.104	76	70
564.051	564.139	77	66
564.104	564.318	48	57
564.104	564.175	76	70
564.139	564.318	77	65
564.175	564.318	76	66
564.211	564.318	55	57
564.211	564.318	74	70
564.265	564.318	72	65
564.318	564.729	41	63
564.318	565.156	77	75
564.421	564.832	45	57
564.524	564.934	48	57
564.626	565.037	53	57
564.729	565.147	41	63
564.832	565.156	45	57
564.934	565.156	48	57
565.037	565.156	53	57
565.147	565.571	41	63
565.147	565.25	81	70
565.198	565.302	82	65
565.25	565.579	45	57
565.25	565.355	81	70
565.302	565.39	82	66
565.355	565.579	48	58
565.355	565.426	81	70
565.39	565.579	82	66
565.426	565.579	81	66
565.462	565.579	53	58
565.462	565.579	79	70
565.516	565.579	77	66
565.571	565.974	41	63
565.571	565.967	84	75
565.671	566.078	45	58
565.774	566.178	48	59
565.874	566.28	53	59
565.967	566.374	84	75
565.974	566.374	41	63
566.078	566.374	45	57
566.178	566.374	48	57
566.28	566.381	53	57
566.381	566.798	41	63
566.381	566.484	88	70
566.432	566.536	89	66
566.484	566.798	46	57
566.484	566.589	88	70
566.536	566.624	89	66
566.589	566.798	48	57
566.589	566.66	88	70
566.624	566.798	89	65
566.66	566.798	88	66
566.696	566.803	55	57
566.696	566.798	86	70
566.75	566.803	84	65
566.795	566.986	53	63
566.795	566.986	57	63
566.795	566.986	60	63
566.795	566.986	65	63
566.803	566.986	89	75
567.227	567.874	45	58
567.227	567.874	57	69
567.227	567.874	81	88
567.838	568.042	49	63
567.838	568.042	61	63
567.838	568.042	73	75
568.042	568.206	50	63
568.042	568.206	62	63
568.042	568.206	74	75
568.471	569.092	53	60
568.471	569.092	65	71
568.471	569.092	77	89
569.082	569.286	57	63
569.082	569.286	69	75
569.286	569.389	58	56
569.286	569.389	70	70
569.338	569.441	60	52
569.338	569.441	72	65
569.389	569.493	58	56
569.389	569.493	70	70
569.441	569.527	60	52
569.441	569.527	72	66
569.493	569.562	58	56
569.493	569.562	70	70
569.527	569.7	60	52
569.527	569.7	72	66
569.562	569.71	58	52
569.562	569.71	70	66
569.596	569.71	57	56
569.596	569.71	69	70
569.648	569.71	55	52
569.648	569.71	67	66
569.7	569.809	60	63
569.7	569.809	72	84
570.138	570.276	48	56
570.138	570.276	60	67
570.138	570.276	67	72
570.138	570.276	72	72
570.138	570.276	76	86
570.587	570.779	53	60
570.587	570.779	65	72
570.587	570.779	69	72
570.587	570.779	72	72
570.587	570.779	77	86
571.073	571.373	41	58
571.073	571.373	53	69
571.073	571.373	65	79
