OnsetTime	OffsetTime	MidiPitch	Velocity
0.519987	0.625988	67	84
0.520993	0.625988	55	74
0.628978	0.730983	56	67
0.628978	0.730983	68	70
0.730983	0.834972	63	75
0.734979	0.835978	51	70
0.835978	0.936977	60	70
0.839975	0.937969	48	67
0.940973	1.06297	56	76
0.943977	1.06398	44	70
1.18198	1.28698	67	85
1.18298	1.28698	55	73
1.29097	1.39297	56	67
1.29097	1.39197	68	70
1.39297	1.49997	63	75
1.39597	1.50397	51	70
1.50496	1.60596	48	67
1.50496	1.60596	60	70
1.60896	1.72197	44	70
1.60896	1.72097	56	76
1.84397	2.17596	63	75
1.84497	2.17696	72	75
1.84497	2.17997	75	89
1.84697	2.18096	44	61
1.84796	2.18096	51	61
1.85097	2.18296	56	72
2.17596	2.28595	63	72
2.17696	2.28795	72	72
2.17997	2.28795	75	85
2.18096	2.28795	44	56
2.18096	2.28896	51	56
2.18296	2.29195	56	67
2.28595	2.40794	63	75
2.28795	2.40794	44	62
2.28795	2.40794	72	75
2.28795	2.40794	75	89
2.28896	2.40794	51	62
2.29195	2.40794	56	73
2.51896	2.84895	63	75
2.51896	2.85194	72	75
2.51995	2.85295	75	89
2.52295	2.85295	44	61
2.52295	2.85495	51	61
2.52395	2.85495	56	72
2.84895	2.95994	63	72
2.85194	2.95994	72	72
2.85295	2.96394	44	56
2.85295	2.96095	75	85
2.85495	2.96394	51	56
2.85495	2.96494	56	67
2.95994	3.08193	63	75
2.95994	3.08193	72	75
2.96095	3.08193	75	89
2.96394	3.08193	44	62
2.96394	3.08193	51	62
2.96494	3.08193	56	73
3.19092	3.29692	63	68
3.19192	3.29692	71	68
3.19493	3.29692	75	80
3.19592	3.40092	44	62
3.19592	3.40191	51	62
3.19592	3.40191	56	74
3.29892	3.40391	72	73
3.40492	3.50291	68	73
3.50592	3.61491	63	73
3.61791	3.7299	60	80
3.84891	3.9509	63	84
3.95489	4.0549	68	74
4.05589	4.16089	72	74
4.16089	4.2659	75	74
4.26989	4.3879	80	79
4.4999	4.56689	81	77
4.5039	4.5699	69	65
4.50689	4.57089	55	62
4.50689	4.5699	61	62
4.50689	4.5699	63	74
4.7589	5.21089	70	73
4.75989	5.2139	82	86
4.7629	5.21489	61	62
4.7629	5.2139	63	74
4.76389	5.21489	55	62
5.21789	5.31589	50	73
5.21789	5.31489	62	85
5.31589	5.42088	63	70
5.31988	5.42189	51	67
5.42189	5.52888	58	75
5.42389	5.52888	46	70
5.53288	5.63388	55	70
5.53588	5.63787	43	67
5.63787	5.74987	51	76
5.63888	5.75087	39	70
5.87187	6.20487	63	75
5.87587	6.20487	73	75
5.87587	6.20587	75	89
5.87687	6.20886	46	61
5.87887	6.20886	51	61
5.87887	6.20886	58	72
6.20487	6.31586	63	72
6.20487	6.31686	73	72
6.20587	6.31686	75	85
6.20886	6.31785	46	56
6.20886	6.31985	51	56
6.20886	6.32086	58	67
6.31586	6.43885	63	75
6.31686	6.43885	73	75
6.31686	6.43885	75	89
6.31785	6.43885	46	62
6.31985	6.43885	51	62
6.32086	6.43885	58	73
6.54485	6.88384	63	75
6.54784	6.88683	73	75
6.55184	6.88784	46	61
6.55184	6.88883	51	61
6.55184	6.88784	75	89
6.55284	6.89083	58	72
6.88384	6.98783	63	72
6.88683	6.98884	73	72
6.88784	6.99183	46	56
6.88784	6.98884	75	85
6.88883	6.99283	51	56
6.89083	6.99283	58	67
6.98783	7.11082	63	75
6.98884	7.11082	73	75
6.98884	7.11082	75	89
6.99183	7.11082	46	62
6.99283	7.11082	51	62
6.99283	7.11082	58	73
7.21881	7.32382	63	68
7.21981	7.32781	72	68
7.21981	7.32781	75	80
7.22381	7.42581	46	62
7.22381	7.4298	51	62
7.22381	7.43281	58	74
7.32881	7.43281	73	73
7.4338	7.5348	70	73
7.5348	7.6428	67	73
7.64379	7.7588	63	80
7.8738	7.9788	67	84
7.97981	8.08379	70	74
8.08379	8.1898	73	74
8.1898	8.30079	75	74
8.30179	8.41679	79	79
8.5318	8.5948	83	77
8.5328	8.5978	67	74
8.5328	8.5958	71	65
8.53479	8.59879	63	62
8.5358	8.59879	56	62
8.78779	9.2458	72	73
8.78779	9.24679	84	86
8.7888	9.24679	68	74
8.7908	9.24979	56	62
8.7908	9.24879	63	62
9.24979	9.34379	67	85
9.2528	9.34779	55	73
9.34779	9.44878	68	70
9.34879	9.44979	56	67
9.45278	9.56179	51	70
9.45278	9.56078	63	75
9.56179	9.66278	60	70
9.56278	9.66378	48	67
9.66578	9.78578	56	76
9.66678	9.78578	44	70
9.89979	10.2368	66	75
9.90378	10.2408	68	75
9.90378	10.2408	75	75
9.90479	10.2408	78	89
9.90679	10.4648	44	73
10.0128	10.4648	45	71
10.1218	10.4648	46	75
10.2368	10.3418	66	72
10.2408	10.3428	68	72
10.2408	10.3448	75	72
10.2408	10.3448	78	85
10.2428	10.4648	47	79
10.3418	10.4648	66	75
10.3428	10.4648	68	75
10.3448	10.4648	75	75
10.3448	10.4648	78	89
10.3458	10.4648	48	83
10.5758	10.6808	76	85
10.5768	10.6818	49	73
10.6818	10.7818	77	70
10.6848	10.7828	61	67
10.7868	10.8948	56	70
10.7868	10.8938	73	75
10.8978	10.9998	68	70
10.8988	10.9998	53	67
11.0008	11.1148	65	76
11.0028	11.1158	49	70
11.2378	11.5697	63	75
11.2388	11.5737	65	75
11.2388	11.5747	72	75
11.2408	11.5747	75	89
11.2418	11.7977	41	73
11.3497	11.7977	42	71
11.4588	11.7977	43	74
11.5697	11.6787	63	72
11.5737	11.6787	65	72
11.5747	11.7977	44	77
11.5747	11.6797	72	72
11.5747	11.6817	75	85
11.6787	11.7977	63	75
11.6787	11.7977	65	75
11.6797	11.7977	72	75
11.6817	11.7977	45	80
11.6817	11.7977	75	89
11.9097	12.0147	72	85
11.9127	12.0147	46	73
12.0177	12.1197	58	67
12.0177	12.1187	73	70
12.1197	12.2247	70	75
12.1237	12.2257	53	70
12.2257	12.3327	65	70
12.2277	12.3327	49	67
12.3367	12.4557	46	70
12.3367	12.4557	61	76
12.5847	13.0367	84	59
12.5857	13.0367	43	37
12.5857	13.0157	55	45
12.6867	13.0367	85	49
12.7957	13.0367	82	52
12.8977	13.0367	79	49
13.0117	13.1247	64	37
13.0117	13.1237	73	53
13.0127	13.1267	58	31
13.0127	13.1247	61	31
13.0157	13.1277	55	31
13.2397	13.6917	83	59
13.2407	13.6917	44	37
13.2407	13.6707	56	45
13.3447	13.6917	84	49
13.4497	13.6917	80	52
13.5617	13.6917	75	49
13.6667	13.7847	72	53
13.6677	13.7857	63	37
13.6707	13.7887	56	31
13.6707	13.7857	60	31
13.9007	14.3517	34	41
13.9007	14.3517	75	64
13.9017	14.3317	46	49
14.0067	14.3517	76	53
14.1117	14.3517	73	57
14.2167	14.3517	70	53
14.3287	14.4397	64	58
14.3317	14.4437	46	34
14.3317	14.4437	49	34
14.3317	14.4427	55	41
14.5627	15.0107	35	45
14.5627	15.0107	74	70
14.5657	14.9877	47	54
14.6677	15.0107	75	58
14.7657	15.0107	71	62
14.8787	15.0107	68	58
14.9867	15.1057	51	37
14.9867	15.1057	56	45
14.9867	15.1007	63	63
14.9877	15.1057	47	37
15.2207	15.4417	68	47
15.2207	15.4447	75	56
15.2217	15.4457	40	32
15.3327	15.5547	52	38
15.3327	15.5537	80	58
15.4417	15.6617	68	50
15.4447	15.6657	75	59
15.4457	15.6657	40	40
15.5537	15.7747	80	61
15.5547	15.7747	52	41
15.6617	15.8827	68	53
15.6657	15.8857	40	43
15.6657	15.8827	75	63
15.7747	15.9907	52	45
15.7747	15.9907	80	65
15.8827	16.0967	68	56
15.8827	16.0987	75	67
15.8857	16.0997	40	47
15.9907	16.2047	52	48
15.9907	16.2037	80	68
16.0967	16.3127	68	59
16.0987	16.3136	75	70
16.0997	16.3167	40	50
16.2037	16.4186	80	72
16.2047	16.4186	52	52
16.3127	16.5196	68	62
16.3136	16.5296	75	74
16.3167	16.5296	40	54
16.4186	16.5296	52	55
16.4186	16.5296	80	76
16.5196	16.7296	68	65
16.5226	16.7326	74	77
16.5236	17.7646	41	57
16.6276	17.7646	42	59
16.6276	16.8376	80	79
16.7296	16.9396	68	68
16.7326	17.7646	43	61
16.7326	16.9426	74	81
16.8376	17.7646	44	62
16.8376	17.0446	80	83
16.9396	17.1496	68	72
16.9426	17.7646	45	64
16.9426	17.1496	74	85
17.0446	17.2506	80	86
17.0466	17.7646	46	66
17.1496	17.3526	68	74
17.1496	17.3526	74	88
17.1526	17.7646	47	68
17.2506	17.7646	48	70
17.2506	17.4566	80	90
17.3526	17.7646	49	71
17.3526	17.5556	68	78
17.3526	17.5566	74	92
17.4566	17.6606	80	94
17.4576	17.7646	50	73
17.5556	17.7576	68	80
17.5566	17.7586	74	95
17.5586	17.7646	51	75
17.6606	17.7586	80	97
17.6626	17.7616	52	77
17.7576	17.9816	68	90
17.7586	17.9826	74	90
17.7586	17.9846	80	106
17.7616	17.9856	52	72
17.7626	17.9856	64	85
17.9866	18.0866	70	80
17.9886	18.0876	74	80
17.9896	18.0876	80	80
17.9896	18.0906	82	95
17.9916	18.0916	52	65
17.9926	18.0916	64	77
18.1926	18.2996	70	80
18.1926	18.3006	74	80
18.1936	18.3036	80	80
18.1956	18.3046	52	65
18.1956	18.3076	64	77
18.1956	18.3046	82	95
18.4126	18.5176	74	85
18.4136	18.5176	80	85
18.4136	18.5186	82	100
18.4156	18.5216	52	72
18.4156	18.5216	64	85
18.6286	18.7306	74	76
18.6336	18.7306	80	76
18.6356	18.7316	82	90
18.6366	18.7346	52	65
18.6366	18.7356	64	77
18.8356	18.9436	74	76
18.8356	18.9446	80	76
18.8366	18.9476	82	90
18.8396	18.9486	52	65
18.8396	18.9486	64	77
19.0566	19.2935	70	80
19.0576	19.2946	75	80
19.0596	19.2976	79	80
19.0596	19.2985	82	95
19.0606	19.2985	51	73
19.0606	19.2985	63	87
19.3005	19.4065	87	95
19.3016	19.4075	75	80
19.3016	19.4075	79	80
19.3016	19.4075	82	80
19.3045	19.4095	39	65
19.3055	19.4095	51	77
19.7355	19.8615	63	70
19.7365	19.8655	67	70
19.7365	19.8655	70	83
19.7385	19.8675	39	57
19.7385	19.8685	51	68
19.9835	20.0955	63	64
19.9875	20.0955	67	64
19.9885	20.0965	70	64
19.9885	20.0995	75	76
19.9905	20.0995	27	52
19.9905	20.0995	39	61
20.5335	20.8735	63	45
20.5375	20.8755	72	45
20.5395	20.8765	75	53
20.5405	20.8765	44	36
20.5405	20.8765	51	36
20.5405	20.8795	56	43
20.8735	20.9845	63	43
20.8755	20.9855	72	43
20.8765	20.9885	44	33
20.8765	20.9895	51	33
20.8765	20.9855	75	51
20.8795	20.9895	56	40
20.9845	21.1005	63	45
20.9855	21.1005	72	45
20.9855	21.1005	75	53
20.9885	21.1005	44	37
20.9895	21.1005	51	37
20.9895	21.1005	56	43
21.2085	21.5475	63	45
21.2095	21.5485	72	45
21.2095	21.5485	75	53
21.2125	21.5495	44	36
21.2125	21.5515	51	36
21.2125	21.5525	56	43
21.5475	21.6575	63	43
21.5485	21.6605	72	43
21.5485	21.6605	75	51
21.5495	21.6615	44	33
21.5515	21.6615	51	33
21.5525	21.6635	56	40
21.6575	21.7735	63	45
21.6605	21.7735	72	45
21.6605	21.7735	75	53
21.6615	21.7735	44	37
21.6615	21.7735	51	37
21.6635	21.7735	56	43
21.8875	21.9855	63	40
21.8905	21.9865	71	40
21.8915	22.0945	44	37
21.8915	21.9895	75	48
21.8945	22.0945	51	37
21.8955	22.0955	56	44
21.9905	22.0955	72	43
22.0985	22.2025	68	43
22.2035	22.3075	63	43
22.3085	22.4235	60	48
22.5385	22.6435	63	50
22.6445	22.7495	68	44
22.7495	22.8565	72	44
22.8605	22.9625	75	44
22.9635	23.0785	80	47
23.1995	23.2635	81	46
23.2005	23.2665	69	39
23.2035	23.2675	63	44
23.2045	23.2705	55	37
23.2045	23.2705	61	37
23.4495	23.9075	70	43
23.4525	23.9115	63	44
23.4525	23.9105	82	51
23.4535	23.9145	61	37
23.4555	23.9145	55	37
23.9155	24.0125	50	43
23.9155	24.0125	62	51
24.0155	24.1215	51	40
24.0155	24.1165	63	42
24.1215	24.2225	58	45
24.1225	24.2235	46	42
24.2255	24.3275	55	42
24.2265	24.3275	43	40
24.3285	24.4505	51	45
24.3305	24.4505	39	42
24.5655	24.9025	63	45
24.5665	24.9045	73	45
24.5665	24.9055	75	53
24.5685	24.9055	46	36
24.5695	24.9055	51	36
24.5695	24.9085	58	43
24.9025	25.0135	63	43
24.9045	25.0135	73	43
24.9055	25.0174	46	33
24.9055	25.0174	51	33
24.9055	25.0145	75	51
24.9085	25.0174	58	40
25.0135	25.1294	63	45
25.0135	25.1294	73	45
25.0145	25.1294	75	53
25.0174	25.1294	46	37
25.0174	25.1294	51	37
25.0174	25.1294	58	43
25.2444	25.5745	63	45
25.2455	25.5764	73	45
25.2474	25.5774	46	36
25.2474	25.5764	75	53
25.2484	25.5774	51	36
25.2484	25.5804	58	43
25.5745	25.6854	63	43
25.5764	25.6894	73	43
25.5764	25.6894	75	51
25.5774	25.6904	46	33
25.5774	25.6904	51	33
25.5804	25.6924	58	40
25.6854	25.8024	63	45
25.6894	25.8024	73	45
25.6894	25.8024	75	53
25.6904	25.8024	46	37
25.6904	25.8024	51	37
25.6924	25.8024	58	43
25.9164	26.0184	63	40
25.9174	26.0184	72	40
25.9194	26.1184	46	37
25.9194	26.0184	75	48
25.9234	26.1234	51	37
25.9234	26.1234	58	44
26.0194	26.1234	73	43
26.1264	26.2314	70	43
26.2324	26.3334	67	43
26.3364	26.4514	63	48
26.5674	26.6724	67	50
26.6724	26.7764	70	44
26.7774	26.8854	73	44
26.8864	26.9914	75	44
26.9944	27.1064	79	47
27.2284	27.2924	83	46
27.2294	27.2924	71	39
27.2324	27.2954	63	37
27.2324	27.2954	67	44
27.2334	27.2994	56	37
27.4774	27.9394	72	43
27.4804	27.9394	84	51
27.4814	27.9404	63	37
27.4814	27.9404	68	44
27.4844	27.9434	56	37
27.9434	28.0404	67	51
27.9444	28.0444	55	43
28.0444	28.1454	68	42
28.0454	28.1464	56	40
28.1494	28.2514	63	45
28.1504	28.2514	51	42
28.2524	28.3554	60	42
28.2544	28.3564	48	40
28.3594	28.4784	44	42
28.3594	28.4744	56	45
28.6014	28.9234	54	36
28.6014	28.7064	68	49
28.6024	28.9264	56	36
28.6044	28.9264	63	43
28.7064	28.8144	69	48
28.8174	28.9304	70	51
28.9304	29.0344	71	54
28.9314	29.0354	54	29
28.9314	29.0354	56	29
28.9334	29.0374	63	35
29.0384	29.1744	54	32
29.0384	29.1744	72	57
29.0414	29.1754	56	32
29.0424	29.1784	63	38
29.3144	29.4334	72	51
29.3154	29.5634	53	33
29.3154	29.5634	56	33
29.3184	29.5634	61	39
29.4344	29.5354	73	49
29.5674	30.0924	49	33
29.5674	30.0914	80	57
29.5684	30.0924	53	33
29.5704	30.0954	61	39
30.0954	30.2074	65	45
30.0964	30.4454	51	36
30.0964	30.4464	53	36
30.0984	30.4464	60	43
30.2074	30.3294	66	46
30.3304	30.4484	67	47
30.4484	30.5684	68	49
30.4494	30.5684	51	29
30.4524	30.5714	53	29
30.4534	30.5714	60	35
30.5724	30.7074	69	50
30.5754	30.7084	51	32
30.5754	30.7084	53	32
30.5754	30.7114	60	38
30.8484	31.0924	49	33
30.8484	30.9664	69	51
30.8494	31.0964	53	33
30.8494	31.0994	58	39
30.9704	31.0644	70	49
31.0994	31.6244	77	57
31.1004	31.6254	46	33
31.1004	31.6254	49	33
31.1034	31.6264	58	39
31.6284	31.8454	51	42
31.6284	31.8314	74	56
31.7364	31.8314	75	56
31.8454	32.2964	73	53
31.8464	32.3004	75	53
31.8494	32.3014	55	43
31.8494	31.9474	62	51
31.8494	32.3014	85	63
31.9504	32.0584	63	43
32.0594	32.1744	70	51
32.3034	32.5244	71	59
32.3044	32.5244	51	44
32.4084	32.5174	72	59
32.5174	32.9654	72	57
32.5214	32.9664	75	57
32.5214	32.9664	84	67
32.5224	32.6224	62	54
32.5244	32.9684	56	46
32.6234	32.7274	63	46
32.7274	32.8504	68	56
32.9694	33.1864	51	48
32.9694	33.1794	74	64
33.0734	33.1794	75	64
33.1864	33.6264	73	59
33.1894	33.6274	75	59
33.1894	33.6274	85	71
33.1904	33.6304	55	48
33.1904	33.2904	62	57
33.2914	33.3954	63	49
33.3954	33.5114	70	59
33.6304	33.8474	71	67
33.6314	33.8474	51	51
33.7384	33.8444	72	67
33.8444	34.2814	72	64
33.8444	34.2824	75	64
33.8454	34.2844	84	76
33.8474	34.2854	56	51
33.8474	33.9454	62	61
33.9484	34.0574	63	52
34.0584	34.1734	68	63
34.2884	34.6204	75	67
34.2894	34.6184	68	67
34.2894	34.6214	80	79
34.2914	34.6214	52	50
34.2924	34.8384	64	59
34.6184	34.7304	68	64
34.6204	34.7293	75	64
34.6214	34.7333	40	45
34.6214	34.7333	52	54
34.6214	34.7304	80	76
34.7293	34.8384	75	64
34.7304	34.8384	68	64
34.7304	34.8384	80	76
34.7333	34.8384	40	45
34.7333	34.8384	52	54
34.9423	35.0483	75	68
34.9463	35.0483	68	68
34.9473	35.0513	80	81
34.9493	35.0513	40	51
34.9503	35.0513	52	60
35.1593	35.2613	68	63
35.1603	35.2643	75	63
35.1603	35.2653	80	75
35.1623	35.2683	40	46
35.1633	35.2693	52	55
35.3733	35.4783	75	63
35.3773	35.4813	40	46
35.3773	35.4783	68	63
35.3773	35.4783	80	75
35.3783	35.4823	52	55
35.5833	35.7933	68	65
35.5843	36.8263	41	57
35.5843	35.7943	74	77
35.6953	35.9013	80	79
35.6993	36.8263	42	59
35.7933	36.0033	68	68
35.7943	36.0033	74	81
35.7963	36.8263	43	61
35.9013	36.1083	80	83
35.9023	36.8263	44	62
36.0033	36.2133	68	72
36.0033	36.2143	74	85
36.0043	36.8263	45	64
36.1083	36.8263	46	66
36.1083	36.3113	80	86
36.2133	36.4163	68	74
36.2143	36.8263	47	68
36.2143	36.4163	74	88
36.3113	36.5223	80	90
36.3123	36.8263	48	70
36.4163	36.6193	68	78
36.4163	36.6203	74	92
36.4173	36.8263	49	71
36.5223	36.8263	50	73
36.5223	36.7243	80	94
36.6193	36.8233	68	80
36.6203	36.8263	51	75
36.6203	36.8233	74	95
36.7243	36.8263	52	77
36.7243	36.8253	80	97
36.8233	37.0463	68	90
36.8233	37.0463	74	90
36.8253	37.0473	80	106
36.8263	37.0503	40	72
36.8263	37.0503	52	85
37.0503	37.1513	70	80
37.0533	37.1523	74	80
37.0533	37.1523	80	80
37.0533	37.1543	82	95
37.0543	37.1553	52	65
37.0573	37.1553	64	77
37.2523	37.3653	70	80
37.2563	37.3653	74	80
37.2573	37.3683	80	80
37.2573	37.3683	82	95
37.2593	37.3683	64	77
37.2603	37.3693	52	65
37.4693	37.5813	74	85
37.4703	37.5823	80	85
37.4733	37.5823	82	100
37.4743	37.5823	52	72
37.4743	37.5853	64	85
37.6903	37.7953	74	77
37.6903	37.7963	80	77
37.6913	37.7963	82	92
37.6943	37.7983	52	65
37.6943	37.7993	64	77
37.9032	38.0092	74	77
37.9043	38.0092	80	77
37.9072	38.0122	52	65
37.9072	38.0122	82	92
37.9102	38.0122	64	77
38.1202	38.2362	70	80
38.1212	38.2362	75	80
38.1212	38.2372	79	80
38.1222	38.2392	82	95
38.1252	38.2392	51	73
38.1252	38.2402	63	87
38.3592	38.4682	82	80
38.3592	38.4672	87	95
38.3602	38.4712	75	80
38.3602	38.4702	79	80
38.3622	38.4752	39	65
38.3622	38.4742	51	77
38.7962	38.9152	63	70
38.8002	38.9152	67	70
38.8002	38.9182	70	83
38.8032	38.9182	51	68
38.8042	38.9192	39	57
39.0312	39.1422	63	64
39.0312	39.1432	67	64
39.0342	39.1462	39	61
39.0342	39.1432	70	64
39.0342	39.1442	75	76
39.0352	39.1472	27	52
39.5872	39.9162	37	73
39.5872	39.9172	49	86
39.9162	40.0252	37	68
39.9172	40.0262	49	80
40.0252	40.2642	37	73
40.0262	40.2662	49	87
40.2642	40.5882	37	73
40.2662	40.5892	49	86
40.5882	40.7002	37	68
40.5892	40.7002	49	80
40.7002	40.9382	37	73
40.7002	40.9392	49	87
40.9382	41.9301	37	73
40.9382	42.2611	79	71
40.9392	41.9301	49	86
41.0052	42.1841	76	69
41.0822	42.1151	73	66
41.1552	42.0411	70	64
41.2322	41.9641	67	62
41.3062	41.8941	64	59
41.3762	41.8201	61	56
41.4532	41.7441	58	56
41.5262	41.6731	55	56
41.5962	42.2651	52	56
41.6731	42.2651	55	55
41.7441	42.2651	58	56
41.8201	42.2651	61	56
41.8941	42.2651	64	57
41.9301	42.0441	37	68
41.9301	42.0451	49	80
41.9641	42.2651	67	58
42.0411	42.2651	70	60
42.0441	42.2611	37	73
42.0451	42.2651	49	87
42.1151	42.2651	73	63
42.1841	42.2651	76	64
42.2611	43.2591	37	73
42.2611	43.5951	79	67
42.2651	43.2611	49	86
42.3351	43.5141	76	66
42.4121	43.4381	73	65
42.4851	43.3711	70	64
42.5551	43.2941	67	63
42.6321	43.2171	64	62
42.7061	43.1501	61	61
42.7831	43.0741	58	60
42.8491	42.9971	55	59
42.9261	43.5961	52	58
42.9971	43.5961	55	55
43.0741	43.5961	58	56
43.1501	43.5961	61	56
43.2171	43.5961	64	57
43.2591	43.3711	37	68
43.2611	43.3721	49	80
43.2941	43.5911	67	58
43.3711	43.5951	37	73
43.3711	43.5961	70	59
43.3721	43.5951	49	87
43.4381	43.5961	73	59
43.5141	43.5911	76	62
43.5911	43.92	67	60
43.5911	43.92	76	60
43.5951	43.92	37	54
43.5951	43.9211	49	64
43.5951	43.918	79	72
43.918	44.0291	79	76
43.92	44.032	37	50
43.92	44.028	67	64
43.92	44.0291	76	64
43.9211	44.033	49	60
44.028	44.151	67	67
44.0291	44.151	76	67
44.0291	44.151	79	80
44.032	44.151	37	55
44.033	44.151	49	65
44.262	44.6	68	67
44.263	44.6	76	67
44.263	44.596	80	80
44.264	44.6	37	54
44.267	44.602	49	64
44.596	44.711	80	76
44.6	44.712	37	50
44.6	44.708	68	64
44.6	44.711	76	64
44.602	44.712	49	60
44.708	44.824	68	67
44.711	44.824	76	67
44.711	44.824	80	80
44.712	44.824	37	55
44.712	44.824	49	65
44.938	45.272	67	67
44.942	45.273	76	67
44.943	45.274	37	54
44.943	45.272	79	80
44.946	45.275	49	64
45.272	45.38	67	64
45.272	45.384	79	76
45.273	45.383	76	64
45.274	45.384	37	50
45.275	45.386	49	60
45.38	45.499	67	67
45.383	45.499	76	67
45.384	45.499	37	55
45.384	45.499	79	80
45.386	45.499	49	65
45.614	45.946	68	67
45.615	45.947	76	67
45.615	45.944	80	80
45.617	45.947	37	54
45.618	45.947	49	64
45.944	46.056	80	76
45.946	46.055	68	64
45.947	46.059	37	50
45.947	46.059	49	60
45.947	46.056	76	64
46.055	46.171	68	67
46.056	46.171	76	67
46.056	46.171	80	80
46.059	46.171	37	55
46.059	46.171	49	65
46.286	46.618	78	67
46.289	46.619	70	67
46.29	46.622	76	67
46.29	46.619	82	80
46.293	46.623	49	54
46.293	46.623	61	64
46.618	46.728	78	64
46.619	46.731	70	64
46.619	46.732	82	76
46.622	46.731	76	64
46.623	46.732	49	50
46.623	46.734	61	60
46.728	46.85	78	67
46.731	46.85	70	67
46.731	46.85	76	67
46.732	46.85	49	55
46.732	46.85	82	80
46.734	46.85	61	65
46.958	47.2909	71	67
46.961	47.2939	78	67
46.9649	47.2909	83	80
46.966	47.2939	51	54
46.966	47.295	63	64
47.2909	47.3999	71	68
47.2909	47.4039	83	81
47.2939	47.4039	51	53
47.2939	47.4029	78	68
47.295	47.4059	63	64
47.3999	47.5219	71	73
47.4029	47.5219	78	73
47.4039	47.5219	51	60
47.4039	47.5219	83	88
47.4059	47.5219	63	71
47.6329	47.9699	75	77
47.6339	47.9739	78	77
47.6339	47.9729	83	77
47.6369	47.9729	87	92
47.6379	47.9739	54	62
47.6379	47.9759	66	73
47.9699	48.0749	75	69
47.9729	48.0779	83	69
47.9729	48.0779	87	82
47.9739	48.0789	54	54
47.9739	48.0779	78	69
47.9759	48.0819	66	64
48.0749	48.1979	75	70
48.0779	48.1979	78	70
48.0779	48.1979	83	70
48.0779	48.1979	87	84
48.0789	48.1979	54	57
48.0819	48.1979	66	68
48.3089	48.6419	82	67
48.3099	48.6459	76	67
48.3099	48.6459	78	67
48.3099	48.6449	85	80
48.3119	48.6489	42	54
48.3119	48.6489	54	64
48.6419	48.7569	82	64
48.6449	48.7579	85	76
48.6459	48.7579	76	64
48.6459	48.7569	78	64
48.6489	48.7609	42	50
48.6489	48.7609	54	60
48.7569	48.8719	78	67
48.7569	48.8719	82	67
48.7579	48.8719	76	67
48.7579	48.8719	85	80
48.7609	48.8719	42	55
48.7609	48.8719	54	65
48.9879	50.3388	75	74
48.9879	50.3388	78	74
48.9889	49.3139	35	73
48.9889	50.3388	83	88
48.9919	49.3169	47	86
49.3139	49.4219	35	68
49.3169	49.4259	47	80
49.4219	49.6609	35	73
49.4259	49.6639	47	87
49.6609	49.9869	35	73
49.6639	49.9889	47	86
49.9869	50.0978	35	68
49.9889	50.0978	47	80
50.0978	50.3368	35	73
50.0978	50.3368	47	87
50.3358	51.6618	77	70
50.3368	51.3268	35	73
50.3368	51.3298	47	86
50.4088	51.5828	74	68
50.4798	51.5118	71	67
50.5528	51.4388	68	65
50.6298	51.3608	65	64
50.7028	51.2918	62	62
50.7738	51.2168	59	61
50.8508	51.1408	56	59
50.9268	51.0708	53	58
50.9968	51.6628	50	56
51.0708	51.6628	53	55
51.1408	51.6628	56	56
51.2168	51.6628	59	56
51.2918	51.6628	62	57
51.3268	51.4408	35	68
51.3298	51.4418	47	80
51.3608	51.6628	65	58
51.4388	51.6628	68	59
51.4408	51.6618	35	73
51.4418	51.6628	47	87
51.5118	51.6628	71	60
51.5828	51.6628	74	63
51.6618	52.6567	35	73
51.6618	52.9467	77	65
51.6628	52.6567	47	86
51.7328	52.8847	74	64
51.8098	52.8247	71	63
51.8838	52.7687	68	62
51.9608	52.6907	65	61
52.0298	52.6177	62	59
52.1038	52.5477	59	58
52.1807	52.4707	56	57
52.2497	52.3937	53	56
52.3237	53.0237	50	56
52.3937	53.0237	53	55
52.4707	53.0237	56	56
52.5477	53.0237	59	56
52.6177	53.0237	62	57
52.6567	52.7707	35	68
52.6567	52.7717	47	80
52.6907	53.0237	65	58
52.7687	53.0237	68	60
52.7707	53.0237	35	73
52.7717	53.0207	47	87
52.8247	53.0237	71	62
52.8847	53.0237	74	63
52.9467	53.0237	77	66
53.0197	53.3847	66	65
53.0207	53.7657	47	49
53.0207	53.3837	78	77
53.2617	53.7657	59	32
53.2617	53.7657	63	38
53.2627	53.7657	54	32
53.3837	53.5077	78	49
53.3847	53.5067	66	41
53.5067	53.7657	66	44
53.5077	53.7657	78	52
53.7627	54.1267	71	46
53.7647	54.1257	83	55
53.7657	54.5147	51	49
54.0007	54.5147	66	36
54.0027	54.5147	63	30
54.0037	54.5147	59	30
54.1257	54.2497	83	49
54.1267	54.2487	71	41
54.2487	54.5147	71	45
54.2497	54.5147	83	54
54.5077	54.8687	70	46
54.5087	55.2917	49	49
54.5087	54.8687	82	55
54.7447	55.2917	66	36
54.7457	55.2917	58	30
54.7457	55.2917	64	30
54.8687	54.9907	70	41
54.8687	54.9917	82	49
54.9907	55.2917	70	45
54.9917	55.2917	82	54
55.2847	56.1007	76	46
55.2857	56.1007	88	55
55.2887	56.1007	42	49
55.5857	56.1007	66	36
55.5887	56.1007	58	30
55.5887	56.1007	61	30
56.0977	56.4607	75	46
56.0977	56.4577	87	55
56.0997	56.8427	47	49
56.3337	56.8427	66	36
56.3377	56.8427	63	30
56.3387	56.8427	59	30
56.4577	56.8427	87	49
56.4607	56.8427	75	41
56.5837	56.8427	71	45
56.5837	56.8427	83	54
56.8397	57.2037	68	46
56.8417	57.5867	40	49
56.8417	57.2037	80	55
57.0797	57.5867	64	36
57.0807	57.5867	56	30
57.0807	57.5867	61	30
57.2037	57.5867	68	41
57.2037	57.5867	80	49
57.3247	57.5867	73	45
57.3257	57.5867	85	54
57.5847	57.9477	70	46
57.5857	58.3497	42	49
57.5857	57.9447	82	55
57.8217	58.3497	58	30
57.8217	58.3497	64	36
57.8227	58.3497	54	30
57.9447	58.3497	82	49
57.9477	58.3497	70	41
58.0677	58.3497	73	45
58.0707	58.3497	85	54
58.3437	58.7287	66	46
58.3437	58.7287	78	55
58.3467	58.7217	46	49
58.5877	59.1277	64	36
58.5887	59.1287	54	30
58.5887	59.1277	61	30
58.7297	58.8677	87	53
58.8687	58.9937	88	53
58.9947	59.1307	89	53
59.1307	59.5097	78	50
59.1347	59.8937	47	45
59.1347	59.5067	90	60
59.2527	59.7577	54	35
59.3797	59.6317	59	35
59.5067	59.6307	90	53
59.5097	59.8937	63	35
59.5097	59.6287	78	45
59.6287	59.8937	78	48
59.6307	59.8937	90	57
59.6317	59.8937	59	35
59.7577	59.8937	54	35
59.8877	60.2587	83	50
59.8877	60.2587	95	60
59.8887	60.6427	51	45
60.0027	60.5057	59	35
60.1357	60.3817	63	35
60.2587	60.3807	83	45
60.2587	60.3807	95	53
60.2597	60.6427	66	35
60.3807	60.6427	83	49
60.3807	60.6427	95	59
60.3817	60.6427	63	35
60.5057	60.6427	59	35
60.6357	61.0007	82	50
60.6367	61.4037	49	50
60.6367	60.9997	94	60
60.7517	61.2587	58	35
60.8767	61.1267	64	35
60.9997	61.1227	94	53
61.0007	61.4037	66	35
61.0007	61.1227	82	45
61.1227	61.4037	82	49
61.1227	61.4037	94	59
61.1267	61.4037	64	35
61.2587	61.4037	58	35
61.4027	62.1697	88	50
61.4027	62.1697	100	60
61.4037	62.1697	42	47
61.5247	62.0397	58	35
61.6617	61.9067	61	35
61.7807	62.1697	66	35
61.9067	62.1697	61	35
62.0397	62.1697	58	35
62.1657	62.5337	87	50
62.1697	62.9117	47	46
62.1697	62.5327	99	60
62.2846	62.7817	59	35
62.4066	62.6567	63	35
62.5327	62.9117	99	53
62.5337	62.9117	66	35
62.5337	62.9117	87	45
62.6557	62.9117	83	49
62.6557	62.9117	95	59
62.6567	62.9117	63	35
62.7817	62.9117	59	35
62.9087	63.2757	80	50
62.9107	63.2757	92	60
62.9117	63.6567	40	49
63.0297	63.5207	56	35
63.1527	63.4017	61	35
63.2757	63.6567	80	45
63.2757	63.6567	92	53
63.2787	63.6567	64	35
63.3977	63.6567	85	49
63.3987	63.6567	97	59
63.4017	63.6567	61	35
63.5207	63.6567	56	35
63.6527	64.0247	82	50
63.6527	64.0237	94	60
63.6537	64.4277	42	52
63.7717	64.2827	54	35
63.8987	64.1497	58	35
64.0237	64.4277	94	53
64.0247	64.4277	82	45
64.0277	64.4277	64	35
64.1457	64.4277	85	49
64.1467	64.4277	97	59
64.1497	64.4277	58	35
64.2827	64.4277	54	35
64.4267	65.2047	83	50
64.4267	65.2047	95	60
64.4277	65.2037	47	49
64.5417	65.0637	54	35
64.6717	64.9207	59	35
64.8007	65.2047	63	35
64.9207	65.2047	59	35
65.0637	65.2047	54	35
65.2037	65.5607	35	74
65.2037	65.5577	47	88
65.3157	65.8027	66	67
65.4387	65.9247	78	75
65.4417	65.6797	75	63
65.5567	65.6807	71	63
65.5577	65.6837	47	77
65.5607	65.6807	35	65
65.6797	65.9247	75	67
65.6807	65.9247	35	71
65.6807	65.9247	71	56
65.6837	65.9247	47	84
65.8027	65.9247	66	63
65.9207	66.2747	38	75
65.9217	66.2747	50	89
66.0357	66.5157	71	67
66.1527	66.6567	83	76
66.1557	66.3877	80	64
66.2707	66.3897	77	64
66.2747	66.3907	38	65
66.2747	66.3907	50	77
66.3877	66.6567	80	67
66.3897	66.6567	77	56
66.3907	66.6567	38	68
66.3907	66.6567	50	80
66.5157	66.6567	71	63
66.6387	67.0067	39	72
66.6427	67.0067	51	85
66.7607	67.0027	70	67
66.8837	67.4007	82	76
66.8847	67.4007	80	64
66.8867	67.1257	75	64
67.0027	67.2577	70	63
67.0067	67.4007	39	69
67.0067	67.4007	51	81
67.1247	67.4007	78	67
67.1257	67.4007	42	70
67.1257	67.4007	75	56
67.1287	67.4007	54	83
67.2577	67.4007	70	63
67.3947	68.1377	46	75
67.3977	68.1377	58	89
67.5137	67.7697	65	67
67.6437	68.1377	77	77
67.6447	68.1377	75	65
67.6467	67.8877	70	65
67.7697	68.0107	65	64
67.8877	68.1377	70	56
67.8887	68.1377	74	67
68.0107	68.1377	65	63
68.1337	68.4907	37	74
68.1367	68.4907	49	88
68.2527	68.7327	68	67
68.3707	68.8607	80	75
68.3717	68.6097	77	63
68.4897	68.6127	73	63
68.4907	68.6127	37	65
68.4907	68.6137	49	77
68.6097	68.8607	77	67
68.6127	68.8607	37	71
68.6127	68.8607	73	56
68.6137	68.8607	49	84
68.7327	68.8607	68	63
68.8577	69.2117	40	75
68.8587	69.2107	52	89
68.9727	69.4527	73	67
69.0897	69.5897	85	76
69.0917	69.3237	82	64
69.2087	69.3267	79	64
69.2107	69.3277	52	77
69.2117	69.3267	40	65
69.3237	69.5897	82	67
69.3267	69.5897	40	68
69.3267	69.5897	79	56
69.3277	69.5897	52	80
69.4527	69.5897	73	63
69.5787	69.9457	41	72
69.5797	69.9427	53	85
69.6937	69.9427	72	67
69.8167	70.3377	84	76
69.8177	70.3377	82	64
69.8197	70.3377	79	64
69.9427	70.3377	53	81
69.9427	70.1946	72	63
69.9457	70.3377	41	69
70.0577	70.3377	80	67
70.0587	70.3377	44	70
70.0587	70.3377	56	83
70.0587	70.3377	77	56
70.1946	70.3377	72	63
70.3276	71.0737	48	75
70.3307	71.0737	60	89
70.4536	70.7067	67	67
70.5837	71.0737	77	65
70.5837	71.0737	79	77
70.5846	70.8247	72	65
70.7067	70.9477	67	64
70.8247	71.0737	72	56
70.8277	71.0737	76	67
70.9477	71.0737	67	63
71.0727	71.4297	39	77
71.0727	71.4277	51	92
71.1857	71.6717	70	70
71.3077	71.5427	79	66
71.3077	71.7937	82	78
71.4267	71.5427	75	66
71.4277	71.5457	51	80
71.4297	71.5457	39	68
71.5427	71.7937	75	59
71.5427	71.7937	79	71
71.5457	71.7937	39	75
71.5457	71.7937	51	89
71.6717	71.7937	70	66
71.7907	72.1447	43	79
71.7917	72.1417	55	94
71.9057	72.3857	76	71
72.0227	72.2567	85	68
72.0227	72.5217	88	81
72.1407	72.2587	82	68
72.1417	72.2597	55	82
72.1447	72.2597	43	69
72.2567	72.5217	85	71
72.2587	72.5217	82	59
72.2597	72.5217	43	72
72.2597	72.5217	55	85
72.3857	72.5217	76	68
72.5087	72.8757	44	77
72.5117	72.8747	56	91
72.6307	72.8727	75	72
72.7527	73.2747	85	69
72.7527	73.2747	87	82
72.7567	73.2747	82	69
72.8727	73.1277	75	68
72.8747	73.2747	56	88
72.8757	73.2747	44	75
72.9917	73.2747	83	73
72.9947	73.2747	80	61
72.9957	73.2747	47	76
72.9957	73.2747	59	90
73.1277	73.2747	75	68
73.2647	74.0037	51	78
73.2647	74.0037	63	93
73.3827	73.6357	70	70
73.5127	73.9987	82	80
73.5157	74.0037	80	68
73.5167	73.7577	75	68
73.6357	73.8737	70	67
73.7577	74.0037	75	58
73.7587	73.9987	79	70
73.8737	74.0037	70	66
73.9967	74.3207	76	80
73.9987	74.3207	79	80
73.9987	74.3217	82	80
73.9997	74.3217	88	95
74.0027	74.3247	49	68
74.0027	74.3247	61	81
74.3207	74.4237	76	76
74.3207	74.4267	79	76
74.3217	74.4267	82	76
74.3217	74.4277	88	90
74.3247	74.4277	49	62
74.3247	74.4297	61	73
74.4237	74.6637	76	79
74.4267	74.6647	79	79
74.4267	74.6647	82	79
74.4277	74.6677	49	69
74.4277	74.6647	88	94
74.4297	74.6677	61	82
74.6637	74.9827	76	80
74.6647	74.9837	79	80
74.6647	74.9857	82	80
74.6647	74.9857	88	95
74.6677	74.9867	49	62
74.6677	74.9867	61	86
74.9827	75.0877	76	76
74.9837	75.0877	79	76
74.9857	75.0877	82	76
74.9857	75.0887	88	90
74.9867	75.0917	49	61
74.9867	75.0917	61	72
75.0877	75.3257	76	79
75.0877	75.3267	79	79
75.0877	75.3257	82	79
75.0887	75.3267	88	94
75.0917	75.3287	49	67
75.0917	75.3287	61	79
75.3257	75.6206	76	62
75.3257	75.4766	82	62
75.3267	75.5506	79	62
75.3267	76.6586	88	74
75.3287	75.6646	49	89
75.3287	75.9836	61	89
75.4026	76.5816	85	67
75.4766	76.5026	82	66
75.5506	76.4286	79	65
75.6206	76.3516	76	65
75.6626	75.7766	37	78
75.6646	75.7776	49	78
75.6966	76.2806	73	64
75.7736	76.2086	70	63
75.7766	76.6586	37	86
75.7776	76.6586	49	86
75.8406	76.1376	67	63
75.9176	76.0606	64	63
75.9836	76.6586	61	63
76.0606	76.6586	64	62
76.1376	76.6586	67	63
76.2086	76.6586	70	63
76.2806	76.6586	73	64
76.3516	76.6586	76	65
76.4286	76.6586	79	66
76.5026	76.6586	82	67
76.5816	76.6586	85	70
76.6496	76.9786	77	80
76.6516	76.9806	80	80
76.6526	76.9806	83	80
76.6556	76.9816	50	68
76.6556	76.9806	89	95
76.6566	76.9846	62	81
76.9786	77.0826	77	76
76.9806	77.0836	80	76
76.9806	77.0866	83	76
76.9806	77.0866	89	90
76.9816	77.0866	50	62
76.9846	77.0886	62	73
77.0826	77.3206	77	79
77.0836	77.3216	80	79
77.0866	77.3256	50	69
77.0866	77.3246	83	79
77.0866	77.3246	89	94
77.0886	77.3276	62	82
77.3206	77.6406	77	80
77.3216	77.6426	80	80
77.3246	77.6426	83	80
77.3246	77.6436	89	95
77.3256	77.6466	50	62
77.3276	77.6466	62	86
77.6406	77.7446	77	76
77.6426	77.7466	80	76
77.6426	77.7476	83	76
77.6436	77.7476	89	90
77.6466	77.7476	50	61
77.6466	77.7516	62	72
77.7446	77.9826	77	79
77.7466	77.9856	80	79
77.7476	77.9856	50	67
77.7476	77.9896	83	79
77.7476	77.9856	89	94
77.7516	77.9866	62	79
77.9826	78.2036	77	62
77.9856	78.3215	50	89
77.9856	78.1336	80	62
77.9856	79.3155	89	74
77.9866	79.3155	62	89
78.0606	79.2395	83	67
78.1336	79.1625	80	66
78.2036	79.0845	77	65
78.2796	79.0115	71	65
78.3215	78.4275	38	78
78.3215	78.4305	50	78
78.3565	78.9405	68	64
78.4265	78.8635	65	63
78.4275	79.3155	38	86
78.4305	79.3155	50	86
78.4995	78.7945	59	63
78.5735	78.7205	56	63
78.6505	79.3155	53	63
78.7205	79.3155	56	62
78.7945	79.3155	59	63
78.8635	79.3155	65	63
78.9405	79.3155	68	64
79.0115	79.3155	71	65
79.0845	79.3155	77	66
79.1625	79.3085	80	67
79.2395	79.3095	83	70
79.3085	79.6315	80	80
79.3095	79.6315	83	80
79.3125	79.6345	86	80
79.3125	79.6345	92	95
79.3135	79.6375	52	68
79.3155	79.6375	64	81
79.6315	79.7425	80	76
79.6315	79.7425	83	76
79.6345	79.7425	86	76
79.6345	79.7465	92	90
79.6375	79.7465	52	62
79.6375	79.7465	64	73
79.7425	79.9805	80	79
79.7425	79.9805	83	79
79.7425	79.9815	86	79
79.7465	79.9845	52	69
79.7465	79.9845	64	82
79.7465	79.9845	92	94
79.9805	80.2925	80	80
79.9805	80.2955	83	80
79.9815	80.2955	86	80
79.9845	80.2965	52	62
79.9845	80.2995	64	86
79.9845	80.2955	92	95
80.2925	80.4015	80	76
80.2955	80.4045	83	76
80.2955	80.4045	86	76
80.2955	80.4045	92	90
80.2965	80.4075	52	61
80.2995	80.4085	64	72
80.4015	80.6385	80	79
80.4045	80.6425	83	79
80.4045	80.6455	86	79
80.4045	80.6425	92	94
80.4075	80.6425	52	67
80.4085	80.6445	64	79
80.6385	80.8625	80	62
80.6425	80.9745	52	89
80.6425	80.7865	83	62
80.6425	81.8884	92	74
80.6445	81.9934	64	89
80.7155	81.9934	86	67
80.7865	81.8144	83	66
80.8625	81.7454	80	65
80.9365	81.6674	74	65
80.9745	81.0875	40	78
80.9745	81.0875	52	78
81.0065	81.5944	71	64
81.0864	81.5204	68	63
81.0875	81.9934	40	86
81.0875	81.9934	52	86
81.1594	81.4504	62	63
81.2264	81.3744	59	63
81.3034	81.9934	56	63
81.3744	81.9934	59	62
81.4504	81.9934	62	63
81.5204	81.9934	68	63
81.5944	81.9934	71	64
81.6674	81.9934	74	65
81.7454	81.9934	80	66
81.8144	81.9934	83	67
81.8884	81.9934	92	70
81.9854	82.3084	75	80
81.9864	82.5424	79	80
81.9864	82.5424	82	80
81.9874	82.5424	87	95
81.9884	82.5424	58	68
81.9894	82.5424	51	68
81.9894	82.5424	55	68
81.9924	82.3114	63	81
82.3084	82.4064	75	90
82.3114	82.4094	63	73
82.4064	82.5424	75	94
82.4094	82.5424	63	82
82.6504	82.9724	75	80
82.6514	83.0744	80	80
82.6514	83.0744	83	80
82.6524	83.0744	87	95
82.6534	83.0744	59	68
82.6544	83.0744	51	68
82.6544	83.0744	56	68
82.6574	82.9734	63	81
82.9724	83.0704	75	90
82.9734	83.0714	63	73
83.0704	83.1864	75	94
83.0714	83.1904	63	82
83.3054	83.6314	75	80
83.3064	83.7704	79	80
83.3094	83.7704	58	68
83.3094	83.7704	82	80
83.3094	83.7704	87	95
83.3104	83.7704	51	68
83.3134	83.7704	55	68
83.3134	83.6354	63	81
83.6314	83.7324	75	90
83.6354	83.7334	63	73
83.7324	83.8514	75	94
83.7334	83.8514	63	82
83.9664	84.2894	75	80
83.9674	84.4004	80	80
83.9704	84.4004	83	80
83.9714	84.4004	51	68
83.9714	84.4004	59	68
83.9714	84.4004	87	95
83.9734	84.4004	56	68
83.9744	84.2894	63	81
84.2894	84.3884	63	73
84.2894	84.3874	75	90
84.3874	84.5064	75	94
84.3884	84.5064	63	82
84.6244	84.9654	63	40
84.6254	85.1504	67	40
84.6254	85.1504	70	40
84.6264	85.1504	75	54
84.6284	85.1504	39	34
84.6294	84.9674	51	46
84.9654	85.0774	63	54
84.9674	85.0794	51	43
85.0774	85.2084	63	54
85.0794	85.2094	51	48
85.3384	85.6864	63	40
85.3394	85.8704	68	40
85.3394	85.8704	71	40
85.3394	85.8704	75	54
85.3424	85.8704	39	34
85.3424	85.6884	51	46
85.6864	85.7984	63	53
85.6884	85.8014	51	41
85.7984	85.9234	63	55
85.8014	85.9244	51	47
86.0524	86.4064	63	40
86.0524	86.5844	67	40
86.0534	86.5844	70	40
86.0534	86.5844	75	54
86.0564	86.5844	39	34
86.0564	86.4064	51	46
86.4064	86.5184	51	43
86.4064	86.5184	63	54
86.5184	86.6454	51	48
86.5184	86.6444	63	54
86.7774	87.1374	63	40
86.7774	87.2503	68	40
86.7814	87.2503	39	34
86.7814	87.2503	71	40
86.7814	87.2503	75	54
86.7824	87.1383	51	46
87.1374	87.2494	63	53
87.1383	87.2503	51	41
87.2494	87.3933	63	55
87.2503	87.3933	51	47
87.5403	87.9293	51	32
87.5433	88.1633	55	32
87.5473	88.1633	58	32
87.5483	88.1633	39	32
87.5483	88.1633	63	37
87.9293	88.0553	51	41
88.0553	88.2083	51	41
88.3633	88.7833	51	30
88.3633	88.9643	56	30
88.3643	88.9643	59	30
88.3643	88.9643	63	34
88.3663	88.9643	39	30
88.7833	88.9203	51	37
88.9203	89.0773	51	39
89.2303	89.6723	51	27
89.2313	89.8673	56	27
89.2343	89.8673	58	27
89.2353	89.8673	63	32
89.2373	89.8673	39	27
89.6723	89.8123	51	36
89.8123	89.9803	51	35
90.1543	90.6173	51	25
90.1553	90.8123	55	25
90.1583	90.8123	58	25
90.1593	90.8123	39	25
90.1593	90.8123	63	29
90.6173	90.7713	51	32
90.7713	90.9493	51	33
91.1273	91.4683	63	36
91.1313	91.4683	72	36
91.1323	91.4703	75	42
91.1343	91.4713	44	28
91.1353	91.4713	51	28
91.1353	91.4713	56	34
91.4683	91.5723	63	34
91.4683	91.5733	72	34
91.4703	91.5763	75	40
91.4713	91.5763	44	26
91.4713	91.5763	51	26
91.4713	91.5773	56	32
91.5723	91.6943	63	36
91.5733	91.6943	72	36
91.5763	91.6943	44	29
91.5763	91.6943	51	29
91.5763	91.6943	75	42
91.5773	91.6943	56	34
91.8103	92.1423	63	36
91.8113	92.1433	72	36
91.8113	92.1433	75	42
91.8133	92.1433	44	28
91.8133	92.1463	51	28
91.8143	92.1463	56	34
92.1423	92.2513	63	34
92.1433	92.2553	44	26
92.1433	92.2523	72	34
92.1433	92.2553	75	40
92.1463	92.2553	51	26
92.1463	92.2562	56	32
92.2513	92.3673	63	36
92.2523	92.3673	72	36
92.2553	92.3673	44	29
92.2553	92.3673	51	29
92.2553	92.3673	75	42
92.2562	92.3673	56	34
92.4782	92.5802	63	40
92.4792	92.6892	44	33
92.4792	92.5842	71	40
92.4792	92.5842	75	48
92.4822	92.6892	51	33
92.4832	92.6892	56	39
92.5852	92.6902	72	43
92.6902	92.7932	68	43
92.7972	92.9022	63	43
92.9022	93.0132	60	48
93.1332	93.2382	63	50
93.2382	93.3402	68	44
93.3432	93.4442	72	44
93.4452	93.5572	75	44
93.5572	93.6722	80	47
93.7942	93.8582	81	46
93.7952	93.8612	69	39
93.7982	93.8622	63	44
93.7992	93.8652	55	37
93.7992	93.8622	61	37
94.0432	94.5022	70	43
94.0442	94.5052	82	51
94.0462	94.5052	63	44
94.0472	94.5062	61	37
94.0502	94.5092	55	37
94.5092	94.6002	62	51
94.5102	94.6032	50	43
94.6032	94.7042	63	42
94.6072	94.7052	51	40
94.7082	94.8102	58	45
94.7112	94.8132	46	42
94.8142	94.9222	43	40
94.8142	94.9222	55	42
94.9232	95.0372	51	45
94.9242	95.0382	39	42
95.1602	95.4902	63	45
95.1602	95.4922	73	45
95.1612	95.4922	75	53
95.1632	95.4922	46	36
95.1632	95.4932	51	36
95.1642	95.4962	58	43
95.4902	95.6012	63	43
95.4922	95.6042	46	33
95.4922	95.6022	73	43
95.4922	95.6032	75	51
95.4932	95.6042	51	33
95.4962	95.6052	58	40
95.6012	95.7162	63	45
95.6022	95.7162	73	45
95.6032	95.7162	75	53
95.6042	95.7162	46	37
95.6042	95.7162	51	37
95.6052	95.7162	58	43
95.8322	96.1692	63	45
95.8322	96.1712	73	45
95.8352	96.1712	46	36
95.8352	96.1752	51	36
95.8352	96.1712	75	53
95.8392	96.1752	58	43
96.1692	96.2742	63	43
96.1712	96.2772	46	33
96.1712	96.2762	73	43
96.1712	96.2772	75	51
96.1752	96.2782	51	33
96.1752	96.2792	58	40
96.2742	96.3962	63	45
96.2762	96.3962	73	45
96.2772	96.3962	46	37
96.2772	96.3962	75	53
96.2782	96.3962	51	37
96.2792	96.3962	58	43
96.5042	96.6122	63	40
96.5072	96.6132	72	40
96.5072	96.6132	75	48
96.5112	96.7132	46	37
96.5112	96.7142	51	37
96.5112	96.7172	58	44
96.6142	96.7172	73	43
96.7182	96.8192	70	43
96.8192	96.9231	67	43
96.9242	97.0462	63	48
97.1622	97.2592	67	50
97.2642	97.3712	70	44
97.3721	97.4771	73	44
97.4771	97.5821	75	44
97.5821	97.7001	79	47
97.8161	97.8822	83	46
97.8201	97.8862	63	37
97.8201	97.8832	67	44
97.8201	97.8832	71	39
97.8232	97.8871	56	37
98.0722	98.5261	72	43
98.0752	98.5271	68	44
98.0752	98.5271	84	51
98.0792	98.5311	56	37
98.0792	98.5302	63	37
98.5311	98.6281	67	51
98.5322	98.6312	55	43
98.6312	98.7301	68	42
98.6351	98.7301	56	40
98.7311	98.8381	63	45
98.7331	98.8421	51	42
98.8421	98.9441	48	40
98.8421	98.9431	60	42
98.9441	99.0591	56	45
98.9461	99.0591	44	42
99.1821	99.5181	66	75
99.1821	99.5191	68	75
99.1821	99.5211	75	75
99.1851	99.7451	44	73
99.1851	99.5211	78	89
99.2931	99.7451	45	68
99.4021	99.7451	46	72
99.5181	99.6231	66	72
99.5191	99.6231	68	72
99.5211	99.7451	47	76
99.5211	99.6251	75	72
99.5211	99.6251	78	85
99.6231	99.7451	66	75
99.6231	99.7451	68	75
99.6251	99.7451	75	75
99.6251	99.7451	78	89
99.6261	99.7451	48	80
99.8561	99.9581	76	85
99.8571	99.9591	49	73
99.9611	100.063	77	70
99.9621	100.063	61	67
100.064	100.168	73	75
100.067	100.171	56	70
100.172	100.281	53	67
100.172	100.28	68	70
100.281	100.396	65	76
100.282	100.396	49	70
100.518	100.848	63	75
100.519	100.848	65	75
100.519	100.85	72	75
100.52	100.851	75	89
100.521	101.075	41	73
100.627	101.075	42	70
100.732	101.075	43	74
100.848	100.956	63	72
100.848	100.959	65	72
100.85	100.959	72	72
100.851	101.075	44	77
100.851	100.96	75	85
100.956	101.075	63	75
100.959	101.075	65	75
100.959	101.075	72	75
100.96	101.075	45	81
100.96	101.075	75	89
101.19	101.295	72	85
101.191	101.295	46	73
101.296	101.4	73	70
101.299	101.4	58	67
101.401	101.505	70	75
101.404	101.506	53	70
101.506	101.613	65	70
101.508	101.613	49	67
101.617	101.736	46	70
101.617	101.736	61	76
101.862	102.317	84	59
101.863	102.317	43	37
101.865	102.296	55	45
101.968	102.317	85	49
102.072	102.317	82	52
102.178	102.317	79	49
102.29	102.401	73	53
102.293	102.405	64	37
102.294	102.408	58	31
102.294	102.405	61	31
102.296	102.408	55	31
102.523	102.972	83	64
102.527	102.972	44	40
102.528	102.951	56	49
102.625	102.972	84	53
102.73	102.972	80	57
102.839	102.972	75	53
102.947	103.067	63	40
102.947	103.066	72	58
102.948	103.067	60	34
102.951	103.069	56	34
103.181	103.63	75	76
103.182	103.63	34	49
103.182	103.606	46	58
103.287	103.63	76	63
103.385	103.63	73	68
103.497	103.63	70	63
103.602	103.713	64	69
103.605	103.718	49	40
103.605	103.718	55	49
103.606	103.718	46	40
103.825	104.274	74	84
103.826	104.274	35	54
103.826	104.249	47	64
103.931	104.274	75	69
104.029	104.274	71	74
104.141	104.274	68	69
104.246	104.364	63	75
104.249	104.369	47	44
104.249	104.368	51	44
104.249	104.365	56	54
104.483	104.819	75	80
104.484	104.82	40	60
104.484	104.817	68	80
104.484	104.819	80	94
104.487	105.796	52	70
104.817	104.929	68	76
104.819	104.928	75	76
104.819	104.932	80	91
104.82	104.932	28	54
104.82	104.932	40	64
104.928	105.142	75	76
104.929	105.142	68	76
104.932	105.145	28	54
104.932	105.146	40	64
104.932	105.145	80	91
105.142	105.363	68	81
105.142	105.366	75	81
105.145	105.366	28	61
105.145	105.366	80	97
105.146	105.369	40	72
105.363	105.579	68	75
105.366	105.583	28	55
105.366	105.579	75	75
105.366	105.58	80	90
105.369	105.583	40	66
105.579	105.786	68	75
105.579	105.796	75	75
105.58	105.796	80	90
105.583	105.796	28	55
105.583	105.796	40	66
105.786	105.993	68	65
105.789	105.995	74	77
105.79	107.025	41	57
105.891	107.025	42	59
105.891	106.098	80	79
105.993	106.202	68	68
105.995	106.202	74	81
105.996	107.025	43	61
106.098	106.308	80	83
106.1	107.025	44	62
106.202	106.405	68	72
106.202	106.406	74	85
106.206	107.025	45	64
106.308	106.51	80	86
106.309	107.025	46	66
106.405	106.615	68	74
106.406	106.615	74	88
106.408	107.025	47	68
106.51	107.025	48	70
106.51	106.714	80	90
106.615	106.816	68	78
106.615	106.818	74	92
106.616	107.025	49	71
106.714	106.923	80	94
106.717	107.025	50	73
106.816	107.022	68	80
106.818	107.022	74	95
106.819	107.025	51	75
106.923	107.025	52	77
106.923	107.023	80	97
107.022	107.238	68	90
107.022	107.238	74	90
107.023	107.242	80	106
107.025	107.242	40	72
107.025	107.243	52	85
107.245	107.35	70	80
107.245	107.351	74	80
107.246	107.351	80	80
107.249	107.354	52	65
107.249	107.353	82	95
107.25	107.354	64	77
107.452	107.56	70	80
107.455	107.56	74	80
107.455	107.561	80	80
107.459	107.564	64	77
107.459	107.561	82	95
107.46	107.564	52	65
107.668	107.777	70	88
107.669	107.781	74	88
107.669	107.782	80	88
107.673	107.784	52	72
107.673	107.784	82	104
107.675	107.785	64	85
107.889	107.994	70	80
107.889	107.995	74	80
107.89	107.995	80	80
107.893	107.998	52	65
107.893	107.998	64	77
107.893	107.997	82	95
108.096	108.208	70	80
108.099	108.211	74	80
108.099	108.211	80	80
108.103	108.212	52	65
108.103	108.211	82	95
108.104	108.215	64	77
108.319	108.435	72	80
108.32	108.436	75	80
108.32	108.436	80	80
108.323	108.439	84	95
108.324	108.439	51	73
108.324	108.44	63	87
108.551	108.663	84	80
108.551	108.659	87	95
108.552	108.663	80	80
108.554	108.667	51	77
108.554	108.666	75	80
108.555	108.667	39	65
108.991	109.107	75	80
108.995	109.107	79	80
108.996	109.111	51	73
108.996	109.112	63	87
108.996	109.111	82	95
109.23	109.341	87	95
109.234	109.342	51	77
109.234	109.342	75	80
109.234	109.342	79	80
109.235	109.345	39	65
109.72	109.828	63	40
109.721	109.832	51	43
109.721	109.828	68	40
109.721	109.832	72	47
110.013	110.119	75	47
110.017	110.119	72	40
110.018	110.122	39	38
110.018	110.122	63	40
110.612	110.738	63	40
110.613	110.738	67	40
110.615	110.742	70	47
110.616	110.742	51	43
110.962	111.074	75	47
110.963	111.078	39	38
110.963	111.078	63	40
110.963	111.074	67	40
111.599	111.992	63	41
111.6	112.408	44	35
111.6	111.991	75	49
111.858	112.408	60	30
111.859	112.408	56	25
111.861	112.408	51	25
111.991	112.124	75	44
111.992	112.121	63	36
112.121	112.408	63	39
112.124	112.408	75	46
112.405	112.793	68	41
112.408	113.198	48	35
112.408	112.791	80	49
112.66	113.198	63	28
112.663	113.198	56	24
112.663	113.198	60	24
112.791	112.926	80	44
112.793	112.925	68	36
112.925	113.198	68	40
112.926	113.198	80	48
113.195	113.581	67	41
113.196	114.0	46	35
113.196	113.581	79	49
113.444	114.0	63	28
113.448	114.0	55	24
113.448	114.0	61	24
113.581	113.71	67	36
113.581	113.71	79	44
113.71	114.0	67	40
113.71	114.0	79	48
113.997	114.843	73	41
113.997	114.843	85	49
113.998	114.843	39	37
114.305	114.843	58	24
114.305	114.843	63	28
114.306	114.843	55	24
114.837	115.23	72	41
114.837	115.23	84	49
114.84	115.631	44	36
115.092	115.631	63	28
115.093	115.631	60	24
115.095	115.631	56	24
115.23	115.631	72	36
115.23	115.631	84	44
115.356	115.631	68	40
115.358	115.631	80	48
115.628	116.009	65	41
115.629	116.411	37	36
115.629	116.007	77	49
115.876	116.411	61	28
115.877	116.411	58	24
115.88	116.411	53	24
116.007	116.411	77	44
116.009	116.411	65	36
116.135	116.411	70	40
116.136	116.411	82	48
116.405	116.787	67	41
116.405	116.783	79	49
116.409	117.213	39	36
116.653	117.213	58	28
116.657	117.213	51	24
116.657	117.213	55	24
116.783	117.213	79	44
116.787	117.213	67	36
116.919	117.213	70	40
116.919	117.213	82	48
117.206	117.605	63	41
117.207	117.605	75	49
117.21	117.605	43	35
117.454	118.007	61	28
117.458	118.008	58	24
117.459	118.008	51	24
117.602	117.735	84	47
117.735	117.868	85	47
117.868	118.011	86	47
118.012	118.4	75	45
118.012	118.399	87	54
118.013	118.809	44	36
118.134	118.663	51	28
118.27	118.529	56	28
118.399	118.529	87	47
118.4	118.527	75	40
118.403	118.809	60	28
118.527	118.809	75	43
118.529	118.809	56	28
118.529	118.809	87	51
118.663	118.809	51	28
118.8	119.191	80	45
118.803	119.594	48	36
118.803	119.188	92	54
118.925	119.447	56	28
119.058	119.32	60	28
119.188	119.317	92	47
119.191	119.594	63	28
119.191	119.317	80	40
119.317	119.594	80	44
119.317	119.594	92	53
119.32	119.594	60	28
119.447	119.594	56	28
119.583	119.974	79	45
119.587	120.391	46	40
119.587	119.972	91	54
119.715	120.238	55	28
119.838	120.102	61	28
119.972	120.102	91	47
119.974	120.101	79	40
119.975	120.391	63	28
120.101	120.391	79	44
120.102	120.391	61	28
120.102	120.391	91	53
120.238	120.391	55	28
120.385	121.196	85	45
120.385	121.196	97	54
120.387	121.196	39	37
120.521	121.057	55	28
120.661	120.92	58	28
120.79	121.196	63	28
120.92	121.196	58	28
121.057	121.196	55	28
121.193	121.575	84	45
121.193	121.575	96	54
121.194	121.98	44	36
121.315	121.833	56	28
121.446	121.705	60	28
121.575	121.98	84	40
121.575	121.98	96	47
121.578	121.98	63	28
121.705	121.98	60	28
121.705	121.98	80	44
121.705	121.98	92	53
121.833	121.98	56	28
121.97	122.355	77	45
121.97	122.352	89	54
121.973	122.757	37	39
122.096	122.611	53	28
122.222	122.484	58	28
122.352	122.757	89	47
122.355	122.757	77	40
122.356	122.757	61	28
122.482	122.757	82	44
122.482	122.757	94	53
122.484	122.757	58	28
122.611	122.757	53	28
122.755	123.143	79	45
122.755	123.142	91	54
122.756	123.565	39	41
122.877	123.413	51	28
123.007	123.272	55	28
123.142	123.565	91	47
123.143	123.565	79	40
123.146	123.565	61	28
123.271	123.565	82	44
123.272	123.565	55	28
123.272	123.565	94	53
123.413	123.565	51	28
123.562	124.414	80	45
123.563	124.414	44	39
123.563	124.414	92	54
123.685	124.224	51	28
123.818	124.087	56	28
123.955	124.414	60	28
124.087	124.414	56	28
124.224	124.414	51	28
124.409	124.689	67	75
124.409	124.689	70	75
124.41	124.69	73	75
124.41	124.693	75	75
124.413	124.694	39	63
124.413	124.693	79	89
124.414	124.694	51	75
125.263	125.553	68	77
125.264	125.554	72	77
125.267	125.557	75	77
125.268	125.558	32	68
125.268	125.558	44	81
125.268	125.558	80	91
126.128	126.954	68	45
126.954	127.763	68	45
127.763	128.056	67	46
128.057	128.312	70	42
128.312	128.851	68	45
128.852	129.099	68	42
129.123	129.373	68	43
129.396	129.677	67	46
129.401	131.003	60	30
129.401	130.205	63	36
129.677	129.929	70	42
129.932	130.471	68	45
130.205	131.004	64	36
130.472	130.712	68	43
130.737	130.983	68	43
131.007	131.847	65	36
131.007	131.291	67	47
131.011	131.848	61	30
131.291	131.556	70	44
131.556	131.848	68	44
131.85	132.722	63	36
131.85	132.148	67	49
131.851	132.723	56	30
132.148	132.424	70	44
132.428	132.725	68	44
132.726	133.008	67	48
132.729	133.999	49	30
132.73	133.999	53	30
132.73	133.824	61	36
133.009	133.268	70	45
133.268	133.538	68	45
133.538	134.349	73	48
133.824	134.076	61	36
133.824	134.077	65	43
134.077	134.21	56	30
134.35	135.619	49	30
134.35	134.63	67	48
134.353	135.619	53	30
134.354	135.438	61	36
134.63	134.889	70	45
134.889	135.155	68	45
135.158	135.966	73	48
135.438	135.693	61	36
135.438	135.694	65	43
135.697	135.834	56	29
135.97	136.235	74	48
135.971	137.227	48	30
135.973	137.227	54	30
135.974	137.227	56	36
136.236	136.492	77	45
136.492	136.765	75	45
136.765	137.569	68	48
137.045	137.303	63	36
137.048	137.304	66	43
137.307	137.437	56	31
137.57	137.839	74	48
137.573	138.829	48	30
137.574	138.829	54	30
137.574	138.829	56	36
137.839	138.098	77	45
138.098	138.367	75	45
138.368	139.179	68	48
138.647	138.906	63	36
138.648	138.907	66	43
138.907	139.04	56	31
139.18	140.53	49	30
139.18	139.453	68	51
139.182	139.719	56	36
139.453	139.719	78	55
139.72	139.988	77	53
139.722	139.991	57	45
139.995	140.534	58	48
139.995	140.257	75	59
140.257	140.535	73	56
140.535	140.796	65	43
140.537	141.076	72	51
140.538	140.8	50	35
140.538	140.8	56	41
140.8	141.654	61	40
140.804	142.102	51	30
140.804	141.658	55	36
141.077	141.36	70	45
141.364	141.661	75	45
141.661	142.106	60	40
141.662	142.109	44	29
141.662	142.106	68	48
141.665	142.11	56	36
142.11	142.249	68	43
142.249	142.392	70	43
142.396	142.539	68	43
142.54	142.816	67	48
142.543	143.81	49	30
142.544	143.81	53	30
142.544	143.635	61	36
142.82	143.078	70	45
143.082	143.345	68	45
143.348	144.16	73	48
143.635	143.891	61	36
143.635	143.894	65	43
143.894	144.027	53	25
143.895	144.027	61	30
144.16	144.443	67	48
144.161	145.434	49	30
144.163	145.434	53	30
144.163	145.252	61	36
144.444	144.699	70	45
144.7	144.971	68	45
144.972	145.78	73	48
145.252	145.511	61	36
145.256	145.511	65	43
145.515	145.643	53	25
145.515	145.648	61	29
145.78	146.046	74	48
145.781	147.037	48	30
145.781	147.037	54	30
145.784	147.037	56	36
146.047	146.308	77	45
146.309	146.575	75	45
146.575	147.38	68	48
146.855	147.114	63	36
146.859	147.115	66	43
147.115	147.246	63	31
147.117	147.247	56	26
147.383	147.646	74	48
147.384	148.639	48	30
147.384	148.639	54	30
147.387	148.639	56	36
147.652	147.909	77	45
147.912	148.174	75	45
148.177	148.989	68	48
148.464	148.716	63	36
148.465	148.717	66	43
148.717	148.856	63	31
148.719	148.856	56	26
148.99	152.233	49	30
148.99	149.265	68	51
148.991	149.527	56	36
149.269	149.528	78	55
149.531	149.801	77	53
149.532	149.801	57	45
149.802	150.067	75	59
149.805	150.333	58	48
150.071	150.336	73	56
150.337	150.606	66	43
150.34	150.609	57	41
150.34	150.607	72	51
150.61	150.886	70	51
150.613	152.234	65	40
150.614	151.145	58	48
150.887	151.149	75	55
151.149	151.422	73	53
151.152	151.422	53	45
151.423	151.96	61	48
151.423	151.688	72	52
151.691	151.961	70	49
151.961	152.51	68	45
151.964	152.234	59	44
152.237	153.056	64	42
152.238	154.694	48	30
152.238	153.056	58	48
152.511	152.782	67	45
152.787	153.06	72	45
153.06	153.326	68	45
153.061	153.871	60	42
153.063	153.872	56	48
153.326	153.595	67	45
153.599	153.872	73	45
153.873	154.141	68	45
153.875	154.694	64	42
153.876	154.698	58	48
154.144	154.414	67	45
154.415	154.698	72	45
154.698	154.971	65	45
154.699	154.974	53	36
154.701	154.974	56	40
155.11	155.247	53	51
155.247	155.387	54	51
155.388	155.516	53	51
155.52	155.789	51	57
155.79	156.076	42	50
155.794	156.077	54	60
156.052	156.353	41	46
156.053	156.357	53	55
156.329	156.63	39	51
156.332	156.63	51	61
156.605	156.896	37	45
156.605	156.896	49	53
156.871	157.172	36	48
156.872	157.172	48	58
157.151	157.991	34	53
157.152	157.992	46	64
157.568	158.425	60	42
157.568	158.428	63	42
157.571	157.707	66	50
157.708	157.851	68	55
157.855	157.994	66	51
157.995	158.344	33	59
157.995	158.344	65	61
157.998	158.344	45	69
158.272	158.428	72	55
158.429	158.562	53	51
158.562	158.701	54	51
158.702	158.838	53	51
158.838	159.108	51	57
159.109	159.391	42	50
159.109	159.392	54	60
159.366	159.667	39	46
159.367	159.668	51	55
159.643	159.94	37	51
159.646	159.945	49	61
159.92	160.206	36	45
159.92	160.21	48	53
160.186	160.487	34	48
160.186	160.49	46	58
160.466	161.305	33	53
160.466	161.306	45	64
160.882	161.31	61	42
160.882	161.025	67	50
161.026	161.166	68	55
161.166	161.31	67	51
161.31	161.726	60	42
161.313	161.673	32	59
161.313	161.673	44	69
161.313	161.673	68	61
161.589	161.727	75	55
161.727	161.869	53	51
161.872	162.012	54	51
162.017	162.16	53	51
162.16	162.457	51	57
162.457	162.758	42	44
162.458	162.758	54	52
162.734	163.042	39	39
162.735	163.042	51	47
163.017	163.343	36	37
163.021	163.346	48	44
163.314	163.658	33	34
163.315	163.659	45	41
163.629	163.983	32	32
163.63	163.984	44	38
163.958	174.176	30	29
163.959	174.176	42	35
164.417	164.84	60	31
164.421	164.557	69	38
164.558	164.697	70	41
164.697	164.845	69	38
164.845	165.677	61	31
164.846	165.677	70	46
166.098	166.506	60	31
166.098	166.234	69	38
166.235	166.366	70	41
166.37	166.507	69	38
166.51	167.343	61	31
166.511	167.343	70	46
167.763	168.176	60	31
167.764	167.9	69	38
167.9	168.032	70	41
168.005	168.148	69	38
168.18	168.725	61	31
168.183	169.017	70	46
168.726	169.017	62	48
169.018	169.59	63	45
169.02	169.3	73	53
169.3	169.59	71	47
169.591	169.881	61	40
169.594	170.157	70	48
169.881	170.448	60	41
170.157	170.449	68	42
170.451	170.738	61	36
170.452	170.742	70	42
170.742	171.319	58	41
170.742	171.32	66	49
171.323	171.61	61	40
171.323	171.61	70	48
171.611	171.901	64	45
171.614	172.761	73	53
171.901	172.177	67	49
172.18	172.471	66	50
172.471	172.762	64	44
172.762	173.046	63	37
172.762	173.045	71	44
173.046	173.601	70	44
173.048	173.317	61	37
173.318	173.885	60	40
173.602	173.888	68	44
173.889	174.179	61	37
173.889	174.179	70	44
174.179	175.05	58	41
174.183	177.659	42	35
174.183	175.05	66	49
174.756	175.05	70	49
175.043	175.918	59	41
175.044	175.918	68	49
175.047	175.918	50	40
175.624	175.918	70	47
175.911	176.783	58	39
175.912	176.783	49	38
175.912	176.783	66	46
176.486	176.783	70	45
176.776	177.668	59	37
176.776	177.668	68	44
176.777	177.668	50	36
177.357	177.668	70	42
177.658	180.448	58	37
177.659	179.481	42	32
177.659	178.547	66	40
177.661	180.448	49	36
178.537	179.481	65	40
179.471	180.448	64	38
179.474	180.448	43	34
180.444	181.392	44	26
180.444	181.087	63	37
180.447	181.393	48	26
180.448	181.393	54	31
181.092	181.395	68	35
181.396	182.667	49	29
181.396	181.669	67	47
181.399	182.667	53	29
181.4	182.492	61	35
181.669	181.938	70	44
181.938	182.204	68	44
182.208	183.016	73	47
182.492	182.75	61	35
182.495	182.751	65	41
182.751	182.883	56	28
183.017	183.3	67	47
183.02	184.293	49	29
183.02	184.293	53	29
183.021	184.113	61	35
183.304	183.555	70	44
183.555	183.828	68	44
183.832	184.636	73	47
184.113	184.37	61	35
184.113	184.371	65	41
184.371	184.504	56	28
184.637	184.91	74	47
184.64	185.901	48	29
184.641	185.901	54	29
184.641	185.901	56	35
184.91	185.165	77	44
185.165	185.438	75	44
185.438	186.243	68	47
185.718	185.977	66	41
185.723	185.978	63	35
185.978	186.11	56	30
186.244	186.513	74	47
186.246	187.504	54	29
186.247	187.504	48	29
186.247	187.504	56	35
186.513	186.772	77	44
186.775	187.038	75	44
187.041	187.85	68	47
187.321	187.58	63	35
187.322	187.581	66	41
187.581	187.72	56	30
187.853	188.127	68	49
187.856	188.665	56	29
187.857	188.666	49	29
187.857	188.666	61	35
188.127	188.392	78	53
188.396	188.669	77	51
188.67	189.478	53	29
188.67	188.942	73	49
188.672	189.478	56	29
188.672	189.478	61	35
188.946	189.204	82	53
189.207	189.481	80	51
189.481	189.768	66	41
189.485	190.349	56	29
189.485	190.349	60	35
189.485	189.772	75	49
189.772	190.048	70	45
189.773	190.048	78	53
190.049	190.352	68	43
190.052	190.352	77	51
190.353	190.797	73	49
190.356	190.938	61	29
190.356	190.937	65	35
190.797	190.938	80	49
190.94	191.087	82	49
191.088	191.238	80	49
191.239	191.521	67	39
191.239	191.522	79	47
191.241	192.512	49	29
191.242	192.512	53	29
191.242	192.338	61	35
191.522	191.78	70	37
191.526	191.781	82	44
191.784	192.05	68	37
191.788	192.05	80	44
192.05	192.862	73	39
192.054	192.863	85	47
192.338	192.589	61	35
192.341	192.589	65	41
192.592	192.729	56	28
192.865	193.142	67	39
192.866	194.132	53	29
192.866	193.143	79	47
192.869	194.132	49	29
192.87	193.958	61	35
193.143	193.4	70	37
193.145	193.401	82	44
193.404	193.674	68	37
193.405	193.678	80	44
193.678	194.482	73	39
193.679	194.483	85	47
193.958	194.216	61	35
193.958	194.216	65	41
194.217	194.35	56	28
194.483	194.755	74	39
194.486	194.756	86	47
194.487	195.746	48	29
194.487	195.746	54	29
194.487	195.746	56	35
194.756	195.288	77	37
194.759	195.288	89	44
195.011	195.288	75	37
195.015	195.288	87	44
195.284	196.089	68	39
195.288	196.089	80	47
195.564	195.823	66	41
195.568	195.824	63	35
195.824	195.956	56	30
196.09	196.358	74	39
196.092	196.359	86	47
196.093	197.349	54	29
196.096	197.349	56	35
196.097	197.349	48	29
196.359	196.891	77	37
196.362	196.891	89	44
196.621	196.891	75	37
196.622	196.891	87	44
196.887	197.695	68	39
196.891	197.699	80	47
197.167	197.426	63	35
197.167	197.427	66	41
197.427	197.559	56	30
197.702	197.832	68	41
197.703	198.522	49	29
197.703	198.519	56	29
197.703	197.832	80	49
197.706	198.519	61	35
197.971	198.522	78	45
197.972	198.522	90	53
198.242	198.522	77	43
198.242	198.522	89	51
198.516	198.654	73	41
198.518	199.382	53	29
198.518	198.655	85	49
198.519	199.38	56	29
198.519	199.382	61	35
198.802	199.382	82	45
198.802	199.382	94	53
199.081	199.382	80	43
199.082	199.382	92	51
199.375	199.526	75	41
199.376	199.529	87	49
199.379	199.53	66	34
199.38	200.325	56	29
199.38	200.325	60	35
199.69	200.325	78	45
199.691	200.325	70	38
199.691	200.325	90	53
199.992	200.325	77	43
199.996	200.325	68	36
199.996	200.325	89	51
200.321	200.964	73	41
200.324	200.968	65	35
200.324	200.965	85	49
200.325	200.969	61	29
201.297	201.623	73	49
201.623	201.735	73	45
201.735	201.966	73	49
201.966	202.295	73	49
202.295	202.407	73	43
202.407	202.638	73	49
202.638	202.978	73	44
202.641	202.978	76	52
202.978	203.087	73	41
202.978	203.089	76	49
203.087	203.32	73	45
203.089	203.32	76	53
203.32	203.646	73	44
203.32	203.646	76	52
203.646	203.755	73	39
203.646	203.755	76	47
203.755	203.993	73	45
203.755	203.993	76	53
203.993	204.318	73	45
203.993	204.321	76	54
203.996	204.321	69	49
204.318	204.424	73	41
204.321	204.426	69	44
204.321	204.426	76	49
204.424	204.661	73	45
204.426	204.664	69	49
204.426	204.664	76	54
204.661	204.993	73	45
204.664	204.994	69	49
204.664	204.993	76	53
204.993	205.102	73	41
204.993	205.106	76	49
204.994	205.106	69	45
205.102	205.336	73	45
205.106	205.34	69	49
205.106	205.34	76	54
205.336	205.662	73	59
205.336	205.663	75	70
205.337	205.663	67	50
205.337	205.665	70	60
205.662	205.771	73	51
205.663	205.774	67	45
205.663	205.774	75	61
205.665	205.774	70	54
205.771	206.008	73	61
205.774	206.013	67	53
205.774	206.015	70	63
205.774	206.012	75	72
206.008	206.335	73	75
206.012	206.337	63	58
206.012	206.337	75	89
206.013	206.338	67	58
206.015	206.338	70	69
206.335	206.446	73	69
206.337	206.447	63	53
206.337	206.446	75	81
206.338	206.449	67	53
206.338	206.45	70	64
206.446	206.688	73	77
206.446	206.685	75	83
206.447	206.684	63	60
206.449	206.688	67	60
206.45	206.688	70	70
206.684	207.009	63	75
206.684	207.01	72	75
206.685	207.013	75	89
206.687	207.013	44	61
206.687	207.014	51	61
206.687	207.016	56	72
207.009	207.122	63	72
207.01	207.122	72	72
207.013	207.124	44	56
207.013	207.122	75	85
207.014	207.125	51	56
207.016	207.125	56	67
207.122	207.237	63	75
207.122	207.237	72	75
207.122	207.237	75	89
207.124	207.237	44	62
207.125	207.237	51	62
207.125	207.237	56	73
207.351	207.685	72	75
207.352	207.682	75	89
207.355	207.685	63	75
207.356	207.686	44	61
207.356	207.688	51	61
207.357	207.688	56	72
207.682	207.794	75	85
207.685	207.794	63	72
207.685	207.796	72	72
207.686	207.797	44	56
207.688	207.797	51	56
207.688	207.8	56	67
207.794	207.91	63	75
207.794	207.91	75	89
207.796	207.91	72	75
207.797	207.91	44	62
207.797	207.91	51	62
207.8	207.91	56	73
208.024	208.129	63	68
208.025	208.133	71	68
208.028	208.227	44	62
208.028	208.133	75	80
208.031	208.231	51	62
208.032	208.231	56	74
208.133	208.234	72	73
208.234	208.339	68	73
208.339	208.444	63	73
208.445	208.56	60	80
208.675	208.78	63	84
208.781	208.882	68	74
208.885	208.993	72	74
208.997	209.098	75	74
209.102	209.214	80	79
209.336	209.399	81	77
209.337	209.404	63	74
209.337	209.403	69	65
209.341	209.406	55	62
209.341	209.404	61	62
209.592	210.043	70	73
209.592	210.047	82	86
209.596	210.05	55	62
209.596	210.048	61	62
209.596	210.048	63	74
210.051	210.149	50	73
210.051	210.149	62	85
210.152	210.257	51	67
210.152	210.253	63	70
210.257	210.359	46	70
210.257	210.358	58	75
210.359	210.467	55	70
210.363	210.471	43	67
210.472	210.585	51	76
210.474	210.586	39	70
210.705	211.041	75	89
210.709	211.038	63	75
210.709	211.038	73	75
210.712	211.041	46	61
210.713	211.042	51	61
210.713	211.042	58	72
211.038	211.15	63	72
211.038	211.15	73	72
211.041	211.151	46	56
211.041	211.151	75	85
211.042	211.153	51	56
211.042	211.153	58	67
211.15	211.266	63	75
211.15	211.266	73	75
211.151	211.266	46	62
211.151	211.266	75	89
211.153	211.266	51	62
211.153	211.266	58	73
211.38	211.713	63	75
211.381	211.714	73	75
211.381	211.714	75	89
211.384	211.714	46	61
211.384	211.716	51	61
211.385	211.717	58	72
211.713	211.822	63	72
211.714	211.825	46	56
211.714	211.825	73	72
211.714	211.825	75	85
211.716	211.826	51	56
211.717	211.829	58	67
211.822	211.938	63	75
211.825	211.938	46	62
211.825	211.938	73	75
211.825	211.938	75	89
211.826	211.938	51	62
211.829	211.938	58	73
212.056	212.158	63	68
212.057	212.255	46	62
212.057	212.161	72	68
212.057	212.161	75	80
212.059	212.259	51	62
212.059	212.26	58	74
212.161	212.26	73	73
212.263	212.367	70	73
212.368	212.469	67	73
212.473	212.588	63	80
212.703	212.809	67	84
212.809	212.913	70	74
212.914	213.022	73	74
213.023	213.127	75	74
213.127	213.246	79	79
213.365	213.428	83	77
213.368	213.428	71	65
213.369	213.432	63	62
213.369	213.432	67	74
213.372	213.435	56	62
213.62	214.076	72	73
213.621	214.077	68	74
213.621	214.077	84	86
213.624	214.077	63	62
213.625	214.079	56	62
214.079	214.177	67	85
214.08	214.181	55	73
214.181	214.282	68	70
214.182	214.283	56	67
214.285	214.394	63	75
214.286	214.394	51	70
214.395	214.496	60	70
214.398	214.499	48	67
214.5	214.614	56	76
214.503	214.615	44	70
214.734	215.07	75	89
214.737	215.067	63	75
214.737	215.07	71	75
214.741	215.071	44	61
214.741	215.071	51	61
214.741	215.073	56	72
215.067	215.176	63	72
215.07	215.179	71	72
215.07	215.179	75	85
215.071	215.18	44	56
215.071	215.182	51	56
215.073	215.182	56	67
215.176	215.298	63	75
215.179	215.298	71	75
215.179	215.298	75	89
215.18	215.298	44	62
215.182	215.298	51	62
215.182	215.298	56	73
215.409	215.743	64	75
215.409	215.742	71	75
215.41	215.743	74	75
215.413	215.745	44	61
215.413	215.749	52	61
215.413	215.745	76	89
215.416	215.749	56	72
215.742	215.853	71	72
215.743	215.854	64	72
215.743	215.854	74	72
215.745	215.857	44	56
215.745	215.855	76	85
215.749	215.858	52	56
215.749	215.858	56	67
215.853	215.976	71	75
215.854	215.976	64	75
215.854	215.976	74	75
215.855	215.976	76	89
215.857	215.976	44	62
215.858	215.976	52	62
215.858	215.976	56	73
216.081	216.186	64	68
216.085	216.187	71	68
216.085	216.189	76	80
216.088	216.291	45	62
216.088	216.295	52	62
216.088	216.296	57	74
216.19	216.296	72	73
216.298	216.396	69	73
216.396	216.501	64	73
216.502	216.61	60	80
216.725	216.83	69	84
216.729	216.831	48	63
216.833	216.932	72	74
216.834	216.933	45	55
216.933	217.037	40	56
216.933	217.033	76	76
217.038	217.139	36	57
217.038	217.138	81	77
217.141	217.254	84	83
217.142	217.254	33	62
217.376	217.71	72	75
217.376	217.712	76	89
217.38	217.712	45	61
217.38	217.713	52	61
217.38	217.709	64	75
217.383	217.716	57	72
217.709	217.818	64	72
217.71	217.82	72	72
217.712	217.821	45	56
217.712	217.821	76	85
217.713	217.822	52	56
217.716	217.824	57	67
217.818	217.934	64	75
217.82	217.934	72	75
217.821	217.934	45	62
217.821	217.934	76	89
217.822	217.934	52	62
217.824	217.934	57	73
218.052	218.384	65	75
218.052	218.384	72	75
218.053	218.385	75	75
218.055	218.388	45	61
218.055	218.388	53	61
218.055	218.388	77	89
218.056	218.389	57	72
218.384	218.494	65	72
218.384	218.493	72	72
218.385	218.496	75	72
218.388	218.497	45	56
218.388	218.499	53	56
218.388	218.497	77	85
218.389	218.5	57	67
218.493	218.615	72	75
218.494	218.615	65	75
218.496	218.615	75	75
218.497	218.615	45	62
218.497	218.615	77	89
218.499	218.615	53	62
218.5	218.615	57	73
218.724	218.828	65	68
218.724	218.829	72	68
218.728	218.934	46	62
218.728	218.934	53	62
218.728	218.829	77	80
218.729	218.935	58	74
218.832	218.937	73	73
218.937	219.036	70	73
219.039	219.136	65	73
219.137	219.259	61	80
219.374	219.479	70	84
219.375	219.48	49	63
219.48	219.581	73	75
219.483	219.585	46	56
219.585	219.686	77	76
219.586	219.687	41	57
219.69	219.794	37	58
219.69	219.791	82	78
219.795	219.91	34	63
219.795	219.907	85	85
220.03	220.362	76	75
220.03	220.366	78	89
220.033	220.366	46	61
220.033	220.362	66	75
220.033	220.366	73	75
220.034	220.367	54	61
220.037	220.369	58	72
220.362	220.474	66	72
220.362	220.474	76	72
220.366	220.478	46	56
220.366	220.475	73	72
220.366	220.477	78	85
220.367	220.478	54	56
220.369	220.478	58	67
220.474	220.589	66	75
220.474	220.589	76	75
220.475	220.589	73	75
220.477	220.589	78	89
220.478	220.589	46	62
220.478	220.589	54	62
220.478	220.589	58	73
220.701	220.802	66	68
220.704	220.803	73	68
220.705	220.803	78	80
220.709	220.908	47	62
220.709	220.908	54	62
220.709	220.909	59	74
220.806	220.911	74	73
220.911	221.009	71	73
221.013	221.114	66	73
221.115	221.237	62	80
221.345	221.685	77	75
221.348	221.69	79	89
221.349	221.689	74	75
221.353	221.691	47	61
221.353	221.692	55	61
221.353	221.689	67	75
221.355	221.692	59	72
221.685	221.796	77	72
221.689	221.797	67	72
221.689	221.797	74	72
221.69	221.8	79	85
221.691	221.8	47	56
221.692	221.801	55	56
221.692	221.801	59	67
221.796	221.912	77	75
221.797	221.912	67	75
221.797	221.912	74	75
221.8	221.912	47	62
221.8	221.912	79	89
221.801	221.912	55	62
221.801	221.912	59	73
222.027	222.133	67	68
222.028	222.134	74	68
222.028	222.134	79	80
222.031	222.23	48	62
222.032	222.23	55	62
222.032	222.232	60	74
222.136	222.233	75	73
222.233	222.338	72	73
222.341	222.443	67	73
222.444	222.559	63	80
222.675	222.888	72	45
222.677	222.889	79	53
222.679	222.889	32	39
222.784	222.993	84	55
222.786	222.993	44	41
222.888	223.095	72	47
222.889	223.098	32	42
222.889	223.098	79	56
222.993	223.203	44	43
222.993	223.203	84	58
223.095	223.298	72	50
223.098	223.301	32	44
223.098	223.301	79	59
223.203	223.407	44	46
223.203	223.406	84	60
223.298	223.508	72	51
223.301	223.512	32	47
223.301	223.511	79	61
223.406	223.609	84	63
223.407	223.609	44	49
223.508	223.711	72	54
223.511	223.713	79	64
223.512	223.714	32	49
223.609	223.812	44	51
223.609	223.812	84	65
223.711	223.917	72	56
223.713	223.923	79	66
223.714	223.923	32	52
223.812	223.923	44	53
223.812	223.923	84	67
223.917	224.124	72	58
223.917	224.127	78	69
223.918	225.156	45	51
224.019	224.23	84	71
224.021	225.156	46	53
224.124	224.333	72	61
224.127	225.156	47	54
224.127	224.334	78	72
224.23	224.432	84	74
224.232	225.156	48	55
224.333	224.536	72	64
224.334	225.156	49	57
224.334	224.536	78	76
224.432	224.641	84	77
224.435	225.156	50	59
224.536	224.74	72	66
224.536	224.74	78	79
224.537	225.156	51	61
224.641	224.844	84	81
224.642	225.156	52	63
224.74	224.949	72	70
224.74	224.946	78	82
224.743	225.156	53	63
224.844	225.048	84	84
224.848	225.156	54	65
224.946	225.152	78	85
224.949	225.153	72	72
224.95	225.156	55	67
225.048	225.152	84	87
225.051	225.153	56	69
225.152	225.369	78	81
225.152	225.37	84	95
225.153	225.373	56	76
225.153	225.37	72	81
225.156	225.374	44	64
225.374	225.478	74	72
225.376	225.481	78	72
225.377	225.481	84	72
225.377	225.485	86	85
225.38	225.485	68	69
225.381	225.485	56	58
225.589	225.695	78	72
225.59	225.696	84	72
225.593	225.698	86	85
225.594	225.699	68	69
225.594	225.698	74	72
225.596	225.699	56	58
225.8	225.908	74	79
225.8	225.911	78	79
225.8	225.912	84	79
225.803	225.915	56	64
225.803	225.916	68	76
225.803	225.912	86	93
226.02	226.125	78	72
226.021	226.126	74	72
226.021	226.125	84	72
226.024	226.129	68	69
226.024	226.129	86	85
226.025	226.13	56	58
226.233	226.339	74	72
226.234	226.34	78	72
226.238	226.343	56	58
226.238	226.342	84	72
226.238	226.342	86	85
226.24	226.346	68	69
226.451	226.71	74	72
226.451	226.685	79	72
226.452	226.683	83	72
226.454	226.689	55	65
226.454	226.71	67	78
226.454	226.685	86	85
226.683	226.78	83	72
226.683	226.78	91	85
226.685	226.781	79	72
226.685	226.783	86	72
226.686	226.783	43	58
226.689	226.783	55	69
226.884	226.99	31	52
226.885	226.991	43	62
227.098	227.334	67	72
227.102	227.35	62	72
227.102	227.334	71	72
227.102	227.333	74	85
227.33	227.431	79	85
227.333	227.431	74	72
227.334	227.434	65	69
227.334	227.434	67	72
227.334	227.434	71	72
227.336	227.435	53	58
227.532	227.641	53	62
227.535	227.642	41	52
227.749	227.994	68	72
227.749	227.978	71	72
227.75	227.978	74	72
227.753	227.977	80	85
227.974	228.075	83	85
227.977	228.075	80	72
227.978	228.078	71	72
227.978	228.078	74	72
227.98	228.079	52	58
227.98	228.078	64	69
228.179	228.285	52	63
228.18	228.286	40	53
228.393	228.624	69	73
228.393	228.622	72	73
228.394	228.622	76	73
228.397	228.622	81	86
228.621	228.719	84	86
228.622	228.722	72	73
228.622	228.722	76	73
228.622	228.719	81	73
228.624	228.726	57	59
228.624	228.722	69	70
228.823	228.929	57	63
228.824	228.93	45	53
229.034	229.266	72	74
229.034	229.266	81	87
229.035	229.282	69	74
229.035	229.266	76	74
229.265	229.356	84	88
229.266	229.359	72	74
229.266	229.363	76	74
229.266	229.359	81	74
229.268	229.363	67	71
229.269	229.363	55	60
229.464	229.573	43	54
229.465	229.574	55	64
229.678	229.903	73	75
229.679	229.923	70	75
229.679	229.905	76	75
229.679	229.903	82	89
229.903	230.003	73	75
229.903	230.003	82	75
229.903	230.0	85	89
229.905	230.004	76	75
229.906	230.007	54	60
229.906	230.007	66	72
230.108	230.21	54	65
230.109	230.213	42	54
230.322	230.547	74	76
230.323	230.563	71	76
230.323	230.549	78	76
230.325	230.547	83	90
230.547	230.647	74	76
230.547	230.647	83	76
230.549	230.648	78	76
230.55	230.652	47	61
230.55	230.651	59	73
230.55	230.651	86	90
230.752	230.853	35	55
230.753	230.857	47	66
230.959	231.207	71	77
230.959	231.193	74	77
230.962	231.194	78	77
230.962	231.193	83	90
231.191	231.291	86	90
231.193	231.292	74	77
231.193	231.291	83	77
231.194	231.295	45	62
231.194	231.295	78	77
231.195	231.296	57	73
231.397	231.501	33	56
231.397	231.497	45	66
231.603	231.831	75	77
231.603	231.831	78	77
231.606	231.848	72	77
231.606	231.831	84	91
231.831	231.928	75	78
231.831	231.929	78	78
231.831	231.932	84	78
231.834	231.933	87	92
231.835	231.935	44	63
231.835	231.935	56	75
232.034	232.145	32	56
232.034	232.141	44	67
232.25	232.495	73	79
232.251	232.482	76	79
232.251	232.485	80	79
232.251	232.481	85	93
232.479	232.579	88	93
232.481	232.579	85	79
232.482	232.58	76	79
232.485	232.583	80	79
232.486	232.584	49	63
232.486	232.583	61	75
232.685	232.792	37	57
232.685	232.793	49	68
232.905	233.144	76	79
232.905	233.143	85	94
232.906	233.144	80	79
232.908	233.16	73	79
233.143	233.248	85	79
233.144	233.248	76	79
233.144	233.249	80	79
233.146	233.251	59	76
233.146	233.251	88	94
233.147	233.252	47	64
233.349	233.461	47	69
233.353	233.462	35	58
233.57	233.818	76	80
233.573	233.832	73	80
233.573	233.816	85	95
233.577	233.818	81	80
233.816	233.923	85	80
233.816	233.92	88	95
233.818	233.923	76	80
233.818	233.923	81	80
233.819	233.927	45	64
233.819	233.924	57	77
234.024	234.137	33	58
234.025	234.138	45	70
234.245	234.512	81	81
234.245	234.512	86	96
234.246	234.536	74	81
234.249	234.515	77	81
234.511	234.631	89	96
234.512	234.631	81	82
234.512	234.631	86	82
234.515	234.633	57	78
234.515	234.632	77	82
234.518	234.634	45	66
234.756	234.882	45	86
234.757	234.882	33	70
235.012	235.174	84	62
235.015	235.257	81	62
235.016	236.139	78	62
235.016	236.472	90	74
235.017	236.475	33	78
235.017	236.098	45	92
235.103	236.38	87	67
235.174	236.297	84	66
235.257	236.216	81	65
235.338	236.476	77	65
235.419	236.059	75	64
235.498	235.978	72	63
235.583	235.898	69	63
235.663	235.82	66	63
235.737	236.476	63	63
235.82	236.476	66	62
235.898	236.476	69	63
235.978	236.476	72	63
236.059	236.476	75	64
236.098	236.22	45	71
236.1	236.22	57	84
236.139	236.476	78	65
236.216	236.476	81	66
236.22	236.476	45	76
236.22	236.476	57	91
236.297	236.476	84	67
236.38	236.476	87	70
236.472	237.952	90	74
236.475	237.956	33	76
236.476	237.55	45	90
236.549	237.833	87	67
236.633	237.753	84	66
236.714	237.673	81	65
236.793	237.956	77	65
236.878	237.515	75	64
236.958	237.435	72	63
237.032	237.353	69	63
237.115	237.277	66	63
237.196	237.956	63	63
237.277	237.956	66	62
237.353	237.956	69	63
237.435	237.956	72	63
237.515	237.956	75	64
237.55	237.675	45	71
237.552	237.676	57	84
237.595	237.956	78	65
237.673	237.956	81	66
237.675	237.956	45	76
237.676	237.956	57	91
237.753	237.956	84	67
237.833	237.956	87	70
237.952	239.422	90	74
237.955	239.422	34	76
237.956	239.031	46	90
238.03	239.314	87	67
238.113	239.233	82	66
238.194	239.156	78	65
238.277	239.068	75	65
238.355	238.991	70	64
238.438	238.915	66	63
238.516	238.831	63	63
238.593	238.75	58	63
238.677	239.425	54	63
238.75	239.033	58	62
238.831	239.425	63	63
238.915	239.425	66	63
238.991	239.425	70	64
239.031	239.156	46	71
239.033	239.156	58	84
239.068	239.425	75	65
239.156	239.423	46	76
239.156	239.425	58	91
239.156	239.425	78	66
239.233	239.425	82	67
239.314	239.425	87	70
239.422	240.916	34	76
239.422	240.909	90	74
239.423	240.499	46	90
239.499	240.777	87	67
239.582	240.703	82	66
239.663	240.622	78	65
239.744	240.539	75	65
239.821	240.458	70	64
239.901	240.377	66	63
239.983	240.301	63	63
240.062	240.22	58	63
240.14	240.916	54	63
240.22	240.5	58	62
240.301	240.916	63	63
240.377	240.916	66	63
240.458	240.916	70	64
240.499	240.623	46	71
240.5	240.626	58	84
240.539	240.916	75	65
240.622	240.916	78	66
240.623	240.916	46	76
240.626	240.916	58	91
240.703	240.916	82	67
240.777	240.916	87	70
240.909	242.366	90	74
240.91	242.373	35	79
240.91	241.994	47	93
240.993	242.272	87	67
241.074	242.187	81	66
241.155	242.115	78	65
241.229	242.029	75	65
241.312	241.95	69	64
241.393	241.869	66	63
241.473	241.788	63	63
241.551	241.711	57	63
241.63	242.373	54	63
241.711	242.373	57	62
241.788	242.373	63	63
241.869	242.373	66	63
241.95	242.373	69	64
241.994	242.117	47	71
241.994	242.117	59	84
242.029	242.373	75	65
242.115	242.373	78	66
242.117	242.373	47	76
242.117	242.373	59	91
242.187	242.373	81	67
242.272	242.373	87	70
242.366	243.836	36	76
242.366	243.836	90	74
242.367	243.447	48	91
242.45	243.727	86	67
242.531	243.643	81	66
242.611	243.57	78	65
242.684	243.489	74	65
242.768	243.405	69	64
242.849	243.324	66	63
242.933	243.251	62	63
243.013	243.171	57	63
243.087	243.836	54	63
243.171	243.836	57	62
243.251	243.836	62	63
243.324	243.836	66	63
243.405	243.836	69	64
243.447	243.573	48	71
243.451	243.574	60	84
243.489	243.836	74	65
243.57	243.836	78	66
243.573	243.836	48	76
243.574	243.836	60	91
243.643	243.836	81	67
243.727	243.836	86	70
243.834	245.296	93	74
243.836	245.296	37	76
243.836	244.911	49	90
243.913	245.191	90	67
243.993	245.114	85	66
244.074	245.035	81	65
244.155	244.949	78	65
244.231	244.868	73	64
244.312	244.788	69	63
244.392	244.714	66	63
244.477	244.63	61	63
244.55	245.299	57	63
244.63	244.913	61	62
244.714	245.299	66	63
244.788	245.299	69	63
244.868	245.299	73	64
244.911	245.036	49	71
244.913	245.036	61	84
244.949	245.299	78	65
245.035	245.299	81	66
245.036	245.299	49	76
245.036	245.299	61	91
245.114	245.299	85	67
245.191	245.299	90	70
245.296	246.814	37	76
245.296	246.805	93	74
245.299	246.373	49	90
245.372	246.814	91	67
245.457	246.653	88	66
245.537	246.496	81	65
245.61	246.415	79	65
245.694	246.331	76	64
245.775	246.251	69	63
245.858	246.171	67	63
245.939	246.094	64	63
246.013	246.814	57	63
246.094	246.814	64	62
246.171	246.814	67	63
246.251	246.814	69	63
246.331	246.814	76	64
246.373	246.499	49	71
246.377	246.5	61	84
246.415	246.814	79	65
246.496	246.814	81	66
246.499	246.814	49	76
246.5	246.814	61	91
246.569	246.814	85	67
246.653	246.814	88	70
246.805	247.603	93	74
246.807	247.603	38	76
246.808	247.175	50	90
246.891	247.603	89	67
246.972	247.603	86	66
247.052	247.603	81	65
247.133	247.603	77	65
247.175	247.301	50	71
247.178	247.301	62	84
247.213	247.603	74	64
247.297	247.603	69	63
247.301	247.603	50	76
247.301	247.461	62	91
247.378	247.603	65	63
247.461	247.603	62	63
247.602	248.411	35	76
247.602	248.407	91	74
247.603	247.966	47	90
247.679	248.411	89	67
247.762	248.411	86	66
247.843	248.411	79	65
247.931	248.411	77	65
247.966	248.096	47	71
247.966	248.096	59	84
248.004	248.411	74	64
248.095	248.411	67	63
248.096	248.411	47	76
248.096	248.411	59	91
248.172	248.411	65	63
248.253	248.411	62	63
248.407	249.212	91	74
248.41	249.212	36	76
248.411	248.771	48	90
248.487	249.212	88	67
248.568	249.212	84	66
248.648	249.212	79	65
248.729	249.212	76	65
248.771	248.897	48	71
248.774	248.898	60	84
248.812	249.212	72	64
248.897	249.212	48	76
248.897	249.212	67	63
248.898	249.062	60	91
248.981	249.212	64	63
249.062	249.212	60	63
249.209	250.059	33	76
249.209	250.059	96	74
249.21	249.579	45	90
249.289	250.056	93	67
249.373	250.059	88	66
249.456	250.059	84	65
249.537	250.059	81	65
249.579	249.705	45	71
249.579	249.706	57	84
249.618	250.059	76	64
249.702	250.059	72	63
249.705	250.059	45	76
249.706	250.059	57	91
249.789	250.059	69	63
249.866	250.059	64	63
250.056	250.861	93	74
250.058	250.861	29	76
250.059	250.42	41	90
250.136	250.861	86	67
250.216	250.861	84	66
250.297	250.861	81	65
250.38	250.861	74	65
250.42	250.545	41	71
250.422	250.545	53	84
250.461	250.861	72	64
250.543	250.861	69	63
250.545	250.861	41	76
250.545	250.861	53	91
250.629	250.861	62	63
250.71	250.861	60	63
250.857	251.663	91	74
250.86	251.663	31	76
250.86	251.228	43	90
250.936	251.663	86	67
251.018	251.663	83	66
251.099	251.663	79	65
251.186	251.663	74	65
251.228	251.351	43	71
251.228	251.353	55	84
251.263	251.663	71	64
251.35	251.663	67	63
251.351	251.663	43	76
251.353	251.663	55	91
251.431	251.663	62	63
251.515	251.663	59	63
251.658	251.991	75	76
251.661	251.991	78	76
251.662	251.994	84	76
251.662	251.995	87	90
251.663	252.106	32	81
251.767	252.218	44	72
251.875	252.554	36	81
251.991	252.103	75	71
251.991	252.103	78	71
251.994	252.104	84	71
251.995	252.674	48	69
251.995	252.106	87	84
252.103	252.345	75	76
252.103	252.347	78	76
252.104	252.347	84	76
252.106	253.027	32	81
252.106	252.348	87	91
252.218	252.785	44	69
252.345	252.67	75	76
252.347	252.67	78	76
252.347	252.673	84	76
252.348	253.03	39	81
252.348	252.673	87	90
252.446	253.03	51	72
252.554	253.03	36	81
252.67	252.779	75	71
252.67	252.782	78	71
252.673	252.782	84	71
252.673	252.785	87	84
252.674	253.03	48	69
252.779	253.024	75	76
252.782	253.024	78	76
252.782	253.026	84	76
252.785	253.03	44	81
252.785	253.027	87	91
252.898	253.03	56	69
253.024	253.355	75	76
253.024	253.356	78	76
253.026	253.356	84	76
253.027	254.395	32	81
253.027	253.359	87	90
253.128	253.714	44	72
253.241	253.92	39	81
253.355	253.464	75	71
253.356	253.468	78	71
253.356	253.468	84	71
253.359	254.039	51	69
253.359	253.469	87	84
253.464	253.709	75	76
253.468	253.71	78	76
253.468	253.713	84	76
253.469	253.713	87	91
253.471	254.395	36	81
253.584	254.148	48	69
253.709	254.035	75	76
253.71	254.038	78	76
253.713	254.038	84	76
253.713	254.039	87	90
253.714	254.392	44	81
253.814	254.395	56	72
253.92	254.395	39	81
254.035	254.143	75	71
254.038	254.147	78	71
254.038	254.147	84	71
254.039	254.395	51	69
254.039	254.147	87	84
254.143	254.388	75	76
254.147	254.389	78	76
254.147	254.392	84	76
254.147	254.392	87	91
254.148	254.395	48	81
254.263	254.395	60	69
254.388	254.609	75	71
254.389	254.609	78	71
254.392	255.06	44	83
254.392	254.612	84	71
254.392	254.612	87	85
254.493	255.162	56	73
254.609	254.83	75	67
254.609	254.831	78	67
254.612	254.832	84	67
254.612	254.833	87	79
254.613	255.389	51	81
254.717	255.746	63	71
254.83	255.057	75	69
254.831	255.058	78	69
254.832	255.06	84	69
254.833	255.62	48	81
254.833	255.06	87	81
254.942	255.746	60	70
255.057	255.281	75	75
255.058	255.284	78	75
255.06	255.746	44	80
255.06	255.284	84	75
255.06	255.285	87	90
255.162	255.746	56	72
255.281	255.502	75	72
255.284	255.505	78	72
255.284	255.505	84	72
255.285	255.744	39	82
255.285	255.505	87	86
255.389	255.746	51	71
255.502	255.746	75	72
255.505	255.743	78	72
255.505	255.743	84	72
255.505	255.74	87	86
255.506	255.746	36	84
255.62	255.746	48	72
255.74	255.975	87	78
255.743	255.974	78	78
255.743	255.975	84	78
255.743	255.977	90	93
255.744	256.461	39	82
255.854	256.572	51	74
255.974	256.215	78	73
255.975	256.216	84	73
255.975	256.212	87	73
255.977	256.828	48	84
255.977	256.216	90	87
256.089	257.262	60	72
256.212	256.454	87	77
256.215	256.457	78	77
256.216	256.457	84	77
256.216	256.461	90	92
256.217	257.101	44	87
256.331	257.262	56	73
256.454	256.705	87	84
256.457	256.705	78	84
256.457	256.706	84	84
256.461	257.262	39	90
256.461	256.709	90	99
256.572	257.262	51	80
256.705	256.962	78	79
256.705	256.961	87	79
256.706	256.964	84	79
256.709	257.262	36	92
256.709	256.964	90	95
256.828	257.262	48	79
256.961	257.262	87	82
256.962	257.262	78	82
256.964	257.258	84	82
256.964	257.262	90	97
256.965	257.262	32	94
257.101	257.262	44	81
257.255	257.807	79	87
257.258	257.807	84	87
257.258	257.807	88	87
257.259	257.807	31	75
257.259	257.807	91	103
257.262	257.807	43	91
258.749	259.155	79	91
258.75	259.155	83	91
258.75	259.155	86	91
258.752	259.155	50	79
258.753	259.155	43	79
258.753	259.155	47	79
258.753	259.155	55	95
258.766	259.155	91	108
