OnsetTime	OffsetTime	MidiPitch	Velocity
0.501775	0.925296	66	55
0.925296	1.16769	68	52
1.1303	2.18042	69	48
1.35465	2.20523	50	37
1.35465	3.90384	52	44
1.35465	2.20523	59	30
1.35465	2.20523	64	36
1.35465	2.18042	68	55
1.77994	2.20523	71	45
2.20523	3.05582	49	42
2.20523	3.90384	64	55
2.63052	3.05582	69	52
3.05582	3.4344	47	53
3.05582	3.4344	68	52
3.05582	3.4344	71	62
3.46881	3.86759	45	55
3.46881	3.86759	69	56
3.46881	3.86759	73	66
3.90384	4.76505	44	40
3.90384	5.605	52	45
3.90384	5.605	64	46
3.90384	4.76505	71	49
3.90384	4.76505	76	59
4.75442	5.605	45	39
4.75442	5.605	69	49
4.75442	5.605	73	57
5.605	6.02167	73	69
6.02167	6.26378	74	68
6.22667	6.4493	76	66
6.4493	7.31342	46	36
6.4493	7.30988	54	43
6.4493	7.31342	61	53
6.4493	7.30988	66	46
6.4493	6.87148	73	55
6.4493	7.31342	78	66
6.87148	7.31342	73	59
7.30988	8.16045	47	30
7.30988	8.16045	54	36
7.30988	8.16045	59	42
7.30988	8.16045	66	35
7.30988	8.16045	71	42
7.30988	8.16045	74	57
8.16045	8.59524	66	58
8.59524	8.83999	68	55
8.80503	9.02266	69	51
9.02266	9.90536	47	35
9.02266	9.90536	57	41
9.02266	9.90536	63	46
9.02266	9.90536	73	50
9.4452	10.7987	70	45
9.89296	10.7987	52	28
9.89296	10.7987	56	34
9.89296	10.7987	62	40
10.3183	10.7987	71	42
10.7987	11.224	66	55
11.224	11.4664	68	54
11.429	12.4792	69	50
11.6534	12.504	50	44
11.6534	14.2089	52	44
11.6534	12.504	59	37
11.6534	12.504	64	37
11.6534	12.4792	68	55
12.0787	12.504	71	45
12.504	13.3546	49	42
12.504	14.2089	64	55
12.9293	13.3546	69	55
13.3546	13.7359	47	53
13.3546	13.7359	68	52
13.3546	13.7359	71	62
13.7705	14.1724	45	56
13.7705	14.1724	69	57
13.7705	14.1724	73	67
14.2089	15.0648	44	43
14.2089	15.9101	52	42
14.2089	15.9101	64	45
14.2089	15.0648	71	49
14.2089	15.0648	76	61
15.0595	15.9101	45	43
15.0595	15.9101	69	54
15.0595	15.9101	73	63
15.9101	16.3231	73	75
16.3231	16.5609	75	72
16.5244	16.7436	76	68
16.7436	19.3092	47	50
16.7436	17.605	64	53
16.7436	17.605	68	73
17.1626	17.605	73	59
17.5943	18.4649	57	59
17.5943	18.4649	63	43
17.5943	18.4649	66	43
17.5943	18.4649	71	62
18.0196	18.4649	59	54
18.4649	19.3092	56	61
18.4649	19.3092	64	58
18.4649	19.3092	71	58
18.4649	18.8839	73	76
18.8839	19.1237	75	75
19.0866	19.3092	76	70
19.3092	21.4635	47	50
19.3092	20.1877	64	53
19.3092	20.1877	68	73
19.7282	20.1877	73	58
20.17	21.0476	57	59
20.17	21.0476	63	43
20.17	21.0476	66	43
20.17	21.0476	71	62
20.5953	21.0476	59	54
21.0476	21.4635	56	58
21.0476	21.9059	64	59
21.0476	21.9059	71	59
21.0476	21.4635	73	77
21.4635	21.7106	75	75
21.6715	21.9059	76	71
21.9059	22.7817	80	75
22.3376	22.7817	76	64
22.7694	23.6402	75	68
23.1915	23.6402	73	62
23.6402	24.075	54	62
23.6402	24.5185	63	44
23.6402	24.5185	66	44
23.6402	24.5185	73	55
24.075	24.3301	56	58
24.2924	24.5185	57	50
24.5185	25.4542	47	50
24.5185	25.4542	61	58
24.5185	25.4542	63	44
24.5185	25.4542	66	52
24.9597	25.4322	59	56
25.4322	26.4494	52	44
25.4322	26.4494	57	52
25.4322	26.4494	59	39
25.4322	26.4494	64	45
25.9122	26.4494	56	50
26.4494	26.8701	40	50
26.4494	26.8701	74	54
26.6621	26.7666	52	45
26.8701	26.9723	54	46
26.8701	27.1108	73	50
27.0734	27.1855	56	47
27.0734	27.2977	71	47
27.2977	29.043	52	36
27.2977	27.74	57	50
27.2977	28.5629	63	43
27.2977	27.74	66	51
27.5104	27.74	59	45
27.723	28.5943	60	47
27.723	28.5629	69	40
28.1753	29.043	64	39
28.1753	29.043	68	46
28.5943	29.043	59	35
29.043	29.9199	45	44
29.043	30.8069	52	37
29.043	29.9199	61	41
29.043	29.9199	66	50
29.4746	29.938	44	31
29.4746	29.938	60	31
29.4746	29.938	68	39
29.9199	30.8201	45	44
29.9199	30.8201	61	41
29.9199	30.8201	66	50
30.3546	30.8201	44	34
30.3546	30.8201	60	30
30.3546	30.8201	68	38
30.8069	31.7254	52	33
30.8069	31.7254	57	38
30.8069	31.7254	59	37
30.8069	31.7254	64	42
31.2592	31.7254	56	36
31.7254	32.1399	40	50
31.7254	32.1399	74	54
31.9349	32.0379	52	45
32.1399	32.2407	54	46
32.1399	32.3777	73	50
32.3403	32.4525	56	47
32.3403	32.5647	71	47
32.5647	34.3194	52	36
32.5647	33.0082	57	50
32.5647	33.8389	63	43
32.5647	33.0082	66	51
32.7789	33.0082	59	45
32.9932	33.8707	60	46
32.9932	33.8389	69	40
33.4455	34.3194	64	39
33.4455	34.3194	68	46
33.8707	34.3194	59	34
34.3194	35.2026	45	44
34.3194	36.0897	52	37
34.3194	35.2026	61	41
34.3194	35.2026	66	50
34.7574	35.2207	44	31
34.7574	35.2207	60	31
34.7574	35.2207	68	39
35.2026	36.101	45	44
35.2026	36.101	61	41
35.2026	36.101	66	50
35.6374	36.101	44	34
35.6374	36.101	60	30
35.6374	36.101	68	38
36.0897	36.9943	52	33
36.0897	36.9943	57	38
36.0897	36.9943	59	37
36.0897	36.9943	64	42
36.542	36.9943	56	36
36.9943	37.8369	49	50
36.9943	38.6854	56	41
36.9943	37.8369	64	46
36.9943	37.8369	70	56
37.4052	37.8558	48	42
37.4052	37.8558	63	42
37.4052	37.8558	72	50
37.8369	38.6927	49	51
37.8369	38.6927	64	46
37.8369	38.6927	70	56
38.2506	38.6927	48	46
38.2506	38.6854	63	41
38.2506	38.6927	72	50
38.6854	39.555	56	34
38.6854	39.555	61	44
38.6854	39.555	63	42
38.6854	39.555	68	51
39.1202	39.555	60	41
39.555	40.3893	53	53
39.555	41.2149	60	45
39.555	40.3893	68	51
39.555	40.3893	74	59
39.9577	40.406	52	46
39.9577	40.406	67	46
39.9577	40.406	76	56
40.3893	41.2219	53	57
40.3893	41.2219	68	53
40.3893	41.2219	74	62
40.7893	41.2219	52	51
40.7893	41.2219	67	47
40.7893	41.2219	76	57
41.2149	42.0659	56	38
41.2149	42.0659	60	46
41.2149	42.0659	63	37
41.2149	42.0659	66	44
41.2149	42.0659	72	52
41.6404	42.0659	48	26
41.6404	42.0659	55	32
41.6404	42.0659	64	30
41.6404	42.0659	67	38
42.0659	42.4581	53	55
42.0659	43.6916	60	44
42.0659	42.4581	68	55
42.0659	42.2947	74	59
42.262	42.4923	77	47
42.4581	42.9074	55	40
42.4581	42.9074	67	44
42.4581	42.9074	72	44
42.4581	42.9074	76	59
42.8691	43.2691	53	58
42.8691	43.2691	68	56
42.8691	43.1024	74	59
43.069	43.3043	77	49
43.2691	43.6916	55	44
43.2691	43.6916	67	44
43.2691	43.6916	72	45
43.2691	43.6916	76	59
43.6916	44.5367	56	36
43.6916	44.5367	60	45
43.6916	44.5367	63	41
43.6916	44.5367	66	49
43.6916	44.5367	72	59
44.1141	44.5367	48	21
44.1141	44.5367	55	32
44.1141	44.5367	64	33
44.1141	44.5367	67	42
44.5367	45.3845	53	56
44.5367	45.3845	60	46
44.5367	45.3845	68	56
44.5367	45.3845	74	67
44.9421	45.3845	48	46
44.9421	45.3845	67	49
44.9421	45.3845	72	49
44.9421	45.3845	76	63
45.3646	46.1957	57	47
45.3646	46.1957	61	55
45.3646	46.1957	70	59
45.3646	46.1957	79	71
45.7619	46.1957	62	54
45.7619	46.1957	69	52
45.7619	46.1957	78	64
46.1875	46.5848	55	47
46.1875	46.5848	59	55
46.1875	46.5848	68	59
46.1875	46.5848	77	71
46.5848	47.0044	60	54
46.5848	47.0044	67	52
46.5848	47.0044	76	64
47.0044	47.5181	54	42
47.0044	47.5181	58	51
47.0044	47.5181	67	59
47.0044	47.5181	76	71
47.4087	47.8254	59	54
47.4087	47.8254	66	52
47.4087	47.8254	75	64
47.8254	48.2227	55	58
47.8254	48.2227	64	63
47.8254	48.0572	70	65
48.0241	48.258	73	52
48.2227	48.6453	47	29
48.2227	48.6453	54	39
48.2227	48.6453	63	42
48.2227	48.6453	66	42
48.2227	48.6453	71	55
48.6453	49.5101	54	41
48.6453	49.5101	58	46
48.6453	49.5101	67	57
48.6453	49.5101	76	69
49.0649	49.5101	59	49
49.0649	49.5101	66	52
49.0649	49.5101	75	63
49.5101	49.9074	55	57
49.5101	49.9074	64	58
49.5101	49.7419	70	55
49.7088	49.9424	73	52
49.9074	50.327	47	26
49.9074	50.327	54	31
49.9074	50.327	63	33
49.9074	50.327	66	33
49.9074	50.327	71	42
50.327	50.727	55	55
50.327	50.727	64	56
50.327	50.5603	70	56
50.527	50.7646	73	48
50.727	51.184	47	24
50.727	51.184	54	30
50.727	51.184	63	30
50.727	51.1781	66	30
50.727	51.184	71	41
51.1781	52.1554	52	37
51.1781	52.1554	58	34
51.1781	52.1554	61	41
51.1781	52.1554	66	48
51.6469	52.1554	51	28
51.6469	52.1554	59	36
52.1554	52.5965	66	54
52.5965	52.8437	68	51
52.8063	53.8565	69	47
53.0307	53.8813	50	44
53.0307	55.5799	52	44
53.0307	53.8813	59	36
53.0307	53.8813	64	36
53.0307	53.8565	68	55
53.456	53.8813	71	44
53.8813	54.7319	49	42
53.8813	55.5799	64	55
54.3066	54.7319	69	56
54.7319	55.1104	47	53
54.7319	55.1104	68	52
54.7319	55.1104	71	62
55.1448	55.5436	45	55
55.1448	55.5436	69	56
55.1448	55.5436	73	66
55.5799	56.4375	44	40
55.5799	57.2811	52	45
55.5799	57.2811	64	49
55.5799	56.4375	71	49
55.5799	56.4375	76	59
56.4305	57.2811	45	39
56.4305	57.2811	69	49
56.4305	57.2811	73	57
57.2811	57.7063	73	69
57.7063	57.9513	74	68
57.9113	58.1513	76	66
58.1513	59.019	46	36
58.1513	59.0119	54	43
58.1513	59.019	61	53
58.1513	59.0119	66	46
58.1513	58.5735	73	55
58.1513	59.019	78	66
58.5735	59.019	73	59
59.0119	59.8625	47	36
59.0119	59.8625	54	36
59.0119	59.8625	59	42
59.0119	59.8625	66	46
59.0119	59.8625	71	46
59.0119	59.8625	74	57
59.8625	60.2942	66	57
60.2942	60.5389	68	52
60.504	60.7216	69	46
60.7216	61.6099	47	37
60.7216	61.6099	57	45
60.7216	61.6099	63	49
60.7216	61.6099	73	54
61.1412	62.5518	70	44
61.5889	62.5518	52	28
61.5889	62.5518	56	34
61.5889	62.5518	62	40
62.047	62.5518	71	42
62.5269	62.9522	66	55
62.9522	63.1946	68	54
63.1572	64.2074	69	47
63.3816	64.2322	50	44
63.3816	65.9371	52	44
63.3816	64.2322	59	36
63.3816	64.2322	64	36
63.3816	64.2074	68	55
63.8069	64.2322	71	45
64.2322	65.0828	49	42
64.2322	65.9371	64	55
64.6575	65.0828	69	55
65.0828	65.4641	47	53
65.0828	65.4641	68	52
65.0828	65.4641	71	62
65.4987	65.9006	45	56
65.4987	65.9006	69	57
65.4987	65.9006	73	67
65.9371	66.793	44	43
65.9371	67.6383	52	45
65.9371	67.6383	64	47
65.9371	66.793	71	51
65.9371	66.793	76	61
66.7877	67.6383	45	43
66.7877	67.6383	69	54
66.7877	67.6383	73	63
67.6383	68.0513	73	72
68.0513	68.2943	75	70
68.2578	68.477	76	66
68.477	71.0493	47	46
68.477	69.3277	64	50
68.477	69.3277	68	74
68.896	69.3277	73	60
69.3277	70.1982	57	57
69.3277	70.1982	63	47
69.3277	70.1982	66	47
69.3277	70.1982	71	66
69.753	70.1982	59	52
70.1982	71.0493	56	58
70.1982	71.0493	64	60
70.1982	71.0493	71	60
70.1982	70.6172	73	78
70.6172	70.8638	75	70
70.8267	71.0493	76	64
71.0493	72.8616	47	48
71.0493	71.9102	64	50
71.0493	71.9102	68	74
71.4683	71.9102	73	62
71.9102	72.5791	57	57
71.9102	72.8616	63	47
71.9102	72.8616	66	47
71.9102	72.8616	71	66
72.3354	72.8616	59	52
72.8616	75.8141	48	40
72.8616	75.8141	55	40
72.8616	75.8141	60	48
72.8616	75.8141	64	48
72.8616	75.8141	67	48
72.8616	73.873	76	61
73.8533	75.8141	74	52
74.3258	75.8141	72	44
74.8216	75.8141	71	50
75.3012	75.8141	70	42
75.9993	78.205	40	31
76.1676	78.205	47	30
76.3191	78.205	55	38
76.4706	78.205	59	34
76.6222	77.0727	64	36
76.7737	78.205	69	39
76.9235	78.205	67	34
77.0727	78.205	64	34
77.2155	78.205	70	38
77.3544	78.205	71	34
77.4913	78.205	76	34
77.6263	78.205	78	38
77.7596	78.205	79	34
77.8929	78.205	83	34
78.0281	78.275	88	40
78.5117	81.4235	48	40
78.5117	81.4235	55	40
78.5117	81.4235	60	48
78.5117	81.4235	64	48
78.5117	81.4235	67	48
78.5117	79.4832	76	61
79.4641	81.4235	74	55
79.9221	81.4235	72	46
80.4263	81.4235	71	50
80.9063	81.4235	70	41
81.6104	83.7075	40	31
81.7814	83.4344	47	30
81.9365	83.153	55	38
82.0915	83.0086	59	34
82.2465	82.7091	64	36
82.4016	84.0048	69	39
82.5554	84.0048	67	34
82.7091	84.0048	64	34
82.8615	84.0048	60	38
83.0086	84.0048	59	34
83.153	84.0048	55	34
83.2948	84.0048	48	37
83.4344	84.0048	47	34
83.5721	84.0048	43	33
83.7075	84.1805	40	40
84.1805	87.1366	48	40
84.1805	87.1366	55	40
84.1805	87.1366	60	48
84.1805	87.1366	64	48
84.1805	87.1366	67	48
84.1805	85.1773	76	61
85.1561	87.1366	74	53
85.6176	87.1366	72	45
86.1349	87.1366	71	51
86.6149	87.1366	70	44
87.3061	89.5914	40	31
87.4666	89.5914	47	30
87.6181	89.5914	55	38
87.7696	89.5914	59	34
87.9212	88.3749	64	36
88.0727	89.5914	69	39
88.2242	89.5914	67	34
88.3749	89.5914	64	34
88.5214	89.5914	70	38
88.6648	89.5914	71	34
88.8051	89.5914	76	34
88.9426	89.5914	78	38
89.0777	89.5914	79	34
89.2129	89.5914	83	34
89.355	89.6038	88	40
89.8526	92.8324	48	40
89.8526	92.8324	55	40
89.8526	92.8324	60	48
89.8526	92.8324	64	48
89.8526	92.8324	67	48
89.8526	90.9261	76	61
90.8362	92.6328	74	57
91.305	92.6328	72	52
91.8222	92.6328	71	57
92.3061	92.8324	70	51
93.3242	93.816	76	58
93.816	95.8175	48	34
93.816	95.8175	55	37
93.816	95.8175	60	46
93.816	95.8175	64	45
93.816	95.8175	67	59
93.816	95.8175	74	65
94.2885	95.8175	72	60
94.8013	95.8175	71	69
95.2851	95.8175	70	69
95.8069	96.8353	77	72
95.9764	96.8353	49	57
96.1459	96.8353	56	57
96.3154	96.8353	61	62
96.4793	96.8353	65	57
96.6383	96.8353	68	57
96.7943	97.7495	70	74
96.9503	97.7495	49	58
97.1064	97.7495	51	58
97.2624	97.7495	58	62
97.4198	97.7495	63	55
97.5702	97.7495	67	55
97.7146	98.6571	75	74
97.8695	98.6571	48	59
98.0244	98.6571	51	59
98.1793	98.6571	60	62
98.3314	98.6571	63	57
98.4785	98.6206	68	57
98.6206	99.5466	68	74
98.7745	99.4175	46	59
98.9284	99.4175	53	59
99.0809	99.4175	58	62
99.2285	99.4175	61	57
99.3826	99.5466	65	57
99.5466	100.057	67	66
100.019	100.517	68	58
100.477	101.492	51	34
100.477	101.492	55	34
100.477	101.492	61	41
100.477	101.492	63	41
100.477	101.492	72	58
100.961	101.492	70	42
101.492	102.465	77	71
101.661	102.465	49	57
101.831	102.465	56	57
101.988	102.465	61	62
102.139	102.465	65	57
102.287	102.465	68	57
102.432	103.358	70	73
102.588	103.358	49	58
102.744	103.358	51	58
102.898	103.358	58	62
103.044	103.358	63	55
103.185	103.358	67	55
103.322	104.275	75	75
103.477	104.275	48	59
103.631	104.275	51	59
103.784	104.275	60	62
103.926	104.275	63	57
104.06	104.275	68	57
104.238	105.165	80	76
104.392	105.165	53	57
104.546	105.165	60	57
104.699	105.165	65	62
104.846	105.165	68	57
104.988	105.165	72	57
105.126	106.05	74	74
105.28	106.05	53	58
105.434	106.05	55	58
105.585	106.05	62	62
105.729	106.05	67	55
105.87	106.05	71	55
106.008	106.938	79	75
106.162	106.938	51	59
106.316	106.938	55	59
106.469	106.938	63	62
106.617	106.938	67	57
106.76	106.938	72	57
106.9	107.808	71	71
107.053	107.693	49	57
107.207	107.693	55	57
107.361	107.693	61	58
107.513	107.693	59	55
107.662	107.808	65	55
107.808	108.289	70	68
108.252	108.735	71	64
108.697	109.655	48	39
108.697	109.655	55	46
108.697	109.655	60	46
108.697	109.655	64	45
108.697	109.655	67	58
108.697	109.655	76	58
109.151	109.655	72	47
109.635	110.562	71	71
109.789	110.562	49	57
109.943	110.562	55	57
110.096	110.562	61	58
110.242	110.562	59	55
110.385	110.562	65	55
110.529	111.048	70	68
111.002	111.212	71	58
111.212	112.519	48	46
111.282	112.519	55	46
111.352	112.519	64	46
111.422	112.519	67	64
111.492	112.16	72	64
111.563	112.519	79	69
111.85	112.519	76	63
112.16	112.519	72	63
112.499	113.414	71	71
112.653	113.408	49	57
112.807	113.408	55	57
112.961	113.408	61	58
113.113	113.408	59	55
113.263	113.414	65	55
113.414	113.914	70	69
113.876	114.395	71	64
114.356	115.306	48	39
114.356	115.306	55	39
114.356	115.306	60	47
114.356	115.306	64	51
114.356	115.306	67	57
114.356	115.306	76	65
114.802	115.306	72	49
115.286	116.206	71	73
115.44	116.206	49	57
115.594	116.206	55	57
115.748	116.206	61	58
115.901	116.206	59	55
116.051	116.206	65	55
116.2	116.662	70	70
116.662	116.887	71	58
116.887	116.962	71	53
116.962	117.037	72	58
117.037	117.112	71	52
117.112	117.187	70	58
117.187	117.262	71	52
117.262	118.269	80	69
117.57	118.269	79	63
118.066	118.249	77	63
118.249	119.233	77	79
118.408	119.233	48	57
118.566	119.233	55	57
118.723	119.233	64	58
118.883	119.233	67	55
119.045	119.233	72	55
119.21	119.548	76	73
119.378	120.293	75	64
119.548	120.293	76	53
119.719	120.065	79	53
119.891	120.293	78	52
120.065	120.293	79	46
120.267	120.874	84	52
121.48	124.433	48	40
121.48	124.433	55	40
121.48	124.433	60	48
121.48	124.433	64	48
121.48	124.433	67	48
121.48	122.492	76	61
122.472	124.433	74	53
122.944	124.433	72	45
123.44	124.433	71	52
123.92	124.433	70	40
124.639	126.884	40	31
124.818	126.884	47	30
124.969	126.884	55	38
125.121	126.884	59	34
125.272	125.707	64	36
125.422	126.884	69	39
125.565	126.884	67	34
125.707	126.884	64	34
125.846	126.884	70	38
125.983	126.884	71	34
126.119	126.884	76	34
126.252	126.884	78	38
126.383	126.884	79	34
126.515	126.884	83	34
126.649	126.896	88	40
127.133	130.045	48	40
127.133	130.045	55	40
127.133	130.045	60	48
127.133	130.045	64	48
127.133	130.045	67	48
127.133	128.106	76	61
128.085	130.045	74	53
128.543	130.045	72	44
129.047	130.045	71	51
129.527	130.045	70	42
130.232	132.285	40	31
130.401	132.015	47	30
130.552	131.738	55	38
130.704	131.595	59	34
130.855	131.303	64	36
131.007	132.623	69	39
131.155	132.623	67	34
131.303	132.623	64	34
131.45	132.623	60	38
131.595	132.623	59	34
131.738	132.623	55	34
131.877	132.623	48	37
132.015	132.623	47	34
132.149	132.623	43	33
132.285	132.758	40	40
132.758	135.742	48	40
132.758	135.742	55	40
132.758	135.742	60	48
132.758	135.742	64	48
132.758	135.742	67	48
132.758	133.752	76	61
133.733	135.742	74	56
134.195	135.742	72	45
134.712	135.742	71	50
135.192	135.742	70	44
135.944	138.222	40	31
136.121	138.222	47	30
136.273	138.222	55	38
136.424	138.222	59	34
136.576	137.017	64	36
136.727	138.222	69	39
136.873	138.222	67	34
137.017	138.222	64	34
137.159	138.222	70	38
137.299	138.222	71	34
137.437	138.222	76	34
137.573	138.222	78	38
137.708	138.222	79	34
137.843	138.222	83	34
137.986	138.234	88	40
138.483	139.486	76	64
139.467	141.463	48	30
139.467	141.463	55	36
139.467	141.463	60	42
139.467	141.463	64	35
139.467	141.463	67	42
139.467	141.263	74	57
139.935	141.263	72	48
140.453	141.263	71	53
140.937	141.463	70	51
141.955	142.447	76	58
142.447	144.437	48	29
142.447	144.437	54	29
142.447	144.437	60	38
142.447	144.437	64	37
142.447	144.437	66	44
142.919	144.24	68	65
143.432	144.24	69	67
143.916	144.437	70	71
144.437	145.444	78	73
144.607	145.444	47	57
144.776	145.444	54	57
144.946	145.444	63	62
145.11	145.444	66	57
145.269	145.444	71	57
145.425	146.364	74	73
145.581	146.364	47	58
145.737	146.364	55	58
145.893	146.364	59	62
146.05	146.364	62	55
146.201	146.364	67	55
146.345	147.269	75	74
146.5	147.269	47	59
146.655	147.269	54	59
146.81	147.269	59	62
146.962	147.269	63	57
147.109	147.269	66	57
147.251	148.139	68	71
147.391	148.012	47	59
147.531	148.012	53	59
147.671	148.012	59	62
147.823	148.012	61	57
147.978	148.139	65	57
148.139	148.64	70	70
148.601	149.108	71	64
149.07	150.023	47	37
149.07	150.023	54	37
149.07	150.023	58	37
149.07	150.023	64	37
149.07	150.023	66	43
149.07	150.023	75	69
149.531	150.023	73	54
150.015	150.955	78	71
150.173	150.955	47	57
150.33	150.955	54	57
150.484	150.955	63	62
150.631	150.955	66	57
150.775	150.955	71	57
150.916	151.835	74	74
151.066	151.835	47	58
151.217	151.835	55	58
151.367	151.835	59	62
151.512	151.835	62	55
151.653	151.835	67	55
151.799	153.435	75	75
151.95	152.826	47	59
152.102	153.435	54	59
152.253	153.12	59	62
152.399	153.435	63	57
152.54	153.435	66	57
152.679	153.57	68	71
152.826	153.435	47	59
152.973	153.435	53	59
153.12	153.435	59	62
153.266	153.435	61	57
153.416	153.57	65	57
153.57	154.04	70	68
154.002	154.49	71	57
154.453	155.382	47	37
154.453	155.382	54	37
154.453	155.382	58	37
154.453	155.382	64	37
154.453	155.382	66	43
154.453	155.382	75	69
154.898	155.382	73	54
155.382	156.325	78	74
155.535	156.325	47	57
155.689	156.325	54	57
155.843	156.325	63	62
155.993	156.325	66	57
156.14	156.325	71	57
156.287	157.222	74	74
156.439	157.222	47	58
156.592	157.222	55	58
156.744	157.222	59	62
156.893	157.222	62	55
157.04	157.222	67	55
157.185	158.104	75	75
157.333	158.104	47	59
157.481	158.104	54	59
157.629	158.104	59	62
157.775	158.104	63	57
157.919	158.104	66	57
158.068	159.012	67	73
158.222	159.012	47	57
158.376	159.012	53	57
158.529	159.012	55	62
158.679	159.012	59	57
158.826	159.012	62	57
158.975	159.926	66	74
159.129	159.926	47	58
159.283	159.926	54	58
159.437	159.926	59	62
159.59	159.926	62	55
159.74	159.926	63	55
159.89	160.861	55	75
160.049	160.861	35	59
160.207	160.861	41	59
160.365	160.861	43	62
160.524	160.861	47	57
160.68	160.861	50	57
160.832	161.461	54	76
160.99	161.461	35	59
161.148	161.405	42	59
161.307	161.461	51	62
161.449	161.645	53	68
161.605	161.804	54	64
161.776	162.055	55	71
162.015	162.296	56	62
162.255	162.539	57	65
162.498	162.785	58	57
162.743	163.033	59	62
162.992	163.538	61	63
163.495	164.338	62	59
164.292	165.543	63	62
165.47	166.45	64	46
166.352	167.626	65	42
167.528	168.705	66	38
171.756	172.197	66	50
172.197	172.446	68	49
172.408	173.458	69	46
172.633	173.483	50	39
172.633	175.182	52	50
172.633	173.483	59	34
172.633	173.483	64	41
172.633	173.458	68	51
173.058	173.483	71	46
173.483	174.334	49	48
173.483	175.182	64	55
173.909	174.334	69	54
174.334	174.712	47	53
174.334	174.712	68	52
174.334	174.712	71	62
174.747	175.146	45	55
174.747	175.146	69	56
174.747	175.146	73	66
175.182	176.047	44	43
175.182	176.883	52	45
175.182	176.883	64	47
175.182	176.047	71	50
175.182	176.047	76	61
176.032	176.883	45	39
176.032	176.883	69	49
176.032	176.883	73	57
176.883	177.308	73	69
177.308	177.55	74	68
177.513	177.736	76	66
177.736	178.605	46	36
177.736	178.597	54	43
177.736	178.605	61	53
177.736	178.597	66	46
177.736	178.158	73	55
177.736	178.605	78	66
178.158	178.605	73	59
178.597	179.48	47	36
178.597	179.48	54	36
178.597	179.48	59	42
178.597	179.48	66	42
178.597	179.48	71	42
178.597	179.48	74	57
179.48	179.921	66	56
179.921	180.168	68	52
180.131	180.355	69	48
180.355	181.231	47	32
180.355	181.231	57	47
180.355	181.231	63	46
180.355	181.231	73	52
180.777	182.099	70	48
181.222	182.099	52	28
181.222	182.099	56	34
181.222	182.099	62	36
181.653	182.099	71	38
182.099	182.524	66	55
182.524	182.766	68	50
182.729	183.779	69	46
182.953	183.804	50	42
182.953	185.509	52	50
182.953	183.804	59	34
182.953	183.804	64	41
182.953	183.779	68	55
183.378	183.804	71	48
183.804	184.654	49	48
183.804	185.509	64	62
184.229	184.654	69	55
184.654	185.036	47	53
184.654	185.036	68	52
184.654	185.036	71	62
185.07	185.472	45	56
185.07	185.472	69	57
185.07	185.472	73	67
185.509	186.375	44	45
185.509	187.21	52	45
185.509	187.21	64	48
185.509	186.375	71	54
185.509	186.375	76	61
186.359	187.21	45	43
186.359	187.21	69	54
186.359	187.21	73	63
187.21	187.623	73	75
187.623	187.866	75	70
187.829	188.049	76	67
188.049	190.621	47	50
188.049	188.908	64	50
188.049	188.908	68	74
188.468	188.908	73	64
188.899	189.77	57	59
188.899	189.77	63	43
188.899	189.77	66	43
188.899	189.77	71	62
189.325	189.77	59	54
189.77	190.621	56	61
189.77	190.621	64	62
189.77	190.621	71	62
189.77	190.189	73	81
190.189	190.435	75	75
190.398	190.621	76	71
190.621	192.775	47	50
190.621	191.496	64	50
190.621	191.496	68	73
191.04	191.496	73	63
191.482	192.359	57	59
191.482	192.359	63	43
191.482	192.359	66	43
191.482	192.359	71	62
191.907	192.359	59	54
192.359	192.775	56	58
192.359	193.218	64	59
192.359	193.218	71	59
192.359	192.775	73	77
192.775	193.022	75	69
192.983	193.218	76	64
193.218	194.099	80	74
193.649	194.099	76	62
194.081	194.952	75	66
194.503	194.952	73	63
194.952	195.387	54	62
194.952	195.83	63	44
194.952	195.83	66	44
194.952	195.83	73	55
195.387	195.642	56	58
195.604	195.83	57	52
195.83	196.733	47	46
195.83	196.679	61	58
195.83	196.733	63	44
195.83	196.733	66	55
196.271	196.733	59	48
196.733	197.69	52	46
196.733	197.69	57	58
196.733	197.69	59	50
196.733	197.69	64	50
197.198	197.69	56	56
197.69	198.111	40	50
197.69	198.111	74	54
197.903	198.007	52	45
198.111	198.213	54	46
198.111	198.351	73	50
198.314	198.426	56	47
198.314	198.538	71	47
198.538	200.283	52	36
198.538	198.982	57	50
198.538	199.803	63	43
198.538	198.982	66	51
198.751	198.982	59	45
198.964	199.835	60	47
198.964	199.803	69	36
199.416	200.283	64	39
199.416	200.283	68	46
199.835	200.283	59	35
200.283	201.225	45	44
200.283	202.112	52	37
200.283	201.225	61	41
200.283	201.225	66	50
200.779	201.243	44	31
200.779	201.243	60	31
200.779	201.243	68	39
201.225	202.125	45	44
201.225	202.125	61	41
201.225	202.125	66	50
201.659	202.125	44	34
201.659	202.125	60	30
201.659	202.125	68	38
202.112	203.033	52	33
202.112	202.72	57	38
202.112	203.033	59	37
202.112	203.033	64	42
202.564	203.033	56	36
203.033	203.447	40	50
203.033	203.447	74	54
203.242	203.345	52	45
203.447	203.548	54	46
203.447	203.685	73	50
203.648	203.76	56	47
203.648	203.872	71	47
203.872	205.627	52	36
203.872	204.319	57	50
203.872	205.146	63	43
203.872	204.319	66	51
204.086	204.319	59	45
204.3	205.178	60	46
204.3	205.146	69	39
204.753	205.627	64	39
204.753	205.627	68	46
205.178	205.627	59	34
205.627	206.51	45	44
205.627	207.397	52	37
205.627	206.51	61	41
205.627	206.51	66	50
206.065	206.528	44	31
206.065	206.528	60	31
206.065	206.528	68	39
206.51	207.403	45	44
206.51	207.403	61	41
206.51	207.403	66	50
206.945	207.403	44	34
206.945	207.403	60	30
206.945	207.403	68	38
207.397	208.302	52	33
207.397	207.913	57	38
207.397	208.302	59	37
207.397	208.302	64	42
207.849	208.302	56	36
208.302	209.144	49	50
208.302	209.993	56	41
208.302	209.144	64	46
208.302	209.144	70	56
208.713	209.161	48	39
208.713	209.161	63	39
208.713	209.161	72	46
209.144	210.0	49	51
209.144	210.0	64	46
209.144	210.0	70	56
209.558	210.0	48	42
209.558	209.993	63	38
209.558	210.0	72	46
209.993	210.862	56	38
209.993	210.428	61	44
209.993	210.862	63	42
209.993	210.862	68	51
210.428	210.862	60	41
210.862	211.7	53	53
210.862	212.525	60	45
210.862	211.7	68	51
210.862	211.7	74	59
211.265	211.716	52	46
211.265	211.716	67	46
211.265	211.716	76	56
211.7	212.543	53	57
211.7	212.543	68	53
211.7	212.543	74	62
212.1	212.543	52	51
212.1	212.543	67	47
212.1	212.543	76	57
212.525	212.951	56	38
212.525	212.951	60	46
212.525	212.951	63	37
212.525	212.951	66	44
212.525	213.376	72	52
212.951	213.376	48	26
212.951	213.376	55	32
212.951	213.376	64	30
212.951	213.376	67	38
213.376	213.769	53	55
213.376	215.002	60	44
213.376	213.769	68	55
213.376	213.605	74	60
213.572	213.803	77	47
213.769	214.218	55	40
213.769	214.218	67	44
213.769	214.218	72	44
213.769	214.218	76	59
214.18	214.58	53	58
214.18	214.58	68	55
214.18	214.413	74	60
214.38	214.615	77	49
214.58	215.011	55	44
214.58	215.011	67	44
214.58	215.002	72	45
214.58	215.011	76	59
215.002	215.425	56	36
215.002	215.425	60	45
215.002	215.425	63	41
215.002	215.425	66	49
215.002	215.847	72	59
215.425	215.847	48	21
215.425	215.847	55	32
215.425	215.847	64	33
215.425	215.847	67	42
215.847	216.682	53	56
215.847	216.682	60	46
215.847	216.682	68	56
215.847	216.682	74	67
216.253	216.682	48	43
216.253	216.682	67	46
216.253	216.682	72	46
216.253	216.682	76	59
216.675	217.51	57	47
216.675	217.51	61	55
216.675	217.51	70	59
216.675	217.51	79	71
217.078	217.51	62	54
217.078	217.51	69	52
217.078	217.51	78	64
217.503	217.903	55	47
217.503	217.903	59	55
217.503	217.903	68	59
217.503	217.903	77	71
217.903	218.323	60	54
217.903	218.323	67	52
217.903	218.323	76	64
218.323	218.837	54	47
218.323	218.837	58	55
218.323	218.837	67	59
218.323	218.837	76	71
218.727	219.144	59	54
218.727	219.144	66	52
218.727	219.144	75	64
219.144	219.541	55	58
219.144	219.541	64	63
219.144	219.376	70	64
219.343	219.576	73	46
219.541	219.969	47	24
219.541	219.964	54	39
219.541	219.969	63	35
219.541	219.969	66	42
219.541	219.969	71	55
219.964	220.383	54	41
219.964	220.383	58	46
219.964	220.383	67	57
219.964	220.383	76	69
220.383	220.829	59	45
220.383	220.829	66	48
220.383	220.829	75	58
220.829	221.226	55	57
220.829	221.226	64	58
220.829	221.06	70	57
221.027	221.261	73	45
221.226	221.645	47	26
221.226	221.645	54	31
221.226	221.645	63	33
221.226	221.645	66	33
221.226	221.645	71	42
221.645	222.045	55	55
221.645	222.045	64	56
221.645	221.879	70	54
221.845	222.083	73	41
222.045	222.501	47	24
222.045	222.501	54	30
222.045	222.501	63	30
222.045	222.497	66	30
222.045	222.501	71	41
222.497	222.965	52	31
222.497	222.965	58	28
222.497	222.965	61	41
222.497	223.474	66	48
222.965	223.474	51	28
222.965	223.474	59	36
223.474	223.915	66	55
223.915	224.162	68	51
224.125	225.202	69	46
224.349	225.202	50	37
224.349	226.898	52	44
224.349	225.202	59	30
224.349	225.2	64	36
224.349	225.202	68	55
224.774	225.202	71	48
225.2	226.05	49	42
225.2	226.898	64	55
225.625	226.05	69	58
226.05	226.429	47	53
226.05	226.429	68	52
226.05	226.429	71	62
226.463	226.862	45	55
226.463	226.862	69	56
226.463	226.862	73	66
226.898	227.767	44	40
226.898	228.599	52	45
226.898	228.599	64	45
226.898	227.767	71	49
226.898	227.767	76	59
227.749	228.599	45	39
227.749	228.599	69	49
227.749	228.599	73	57
228.599	229.025	73	69
229.025	229.27	74	68
229.23	229.472	76	66
229.472	230.339	46	36
229.472	230.332	54	43
229.472	230.339	61	53
229.472	230.332	66	46
229.472	229.894	73	55
229.472	230.339	78	67
229.894	230.339	73	63
230.332	231.183	47	32
230.332	231.183	54	38
230.332	231.183	59	46
230.332	231.183	66	41
230.332	231.183	71	49
230.332	231.183	74	59
231.183	231.608	66	58
231.608	231.849	68	55
231.815	232.032	69	48
232.032	232.89	47	41
232.032	232.89	57	50
232.032	232.89	63	49
232.032	232.89	73	55
232.448	233.773	70	44
232.883	233.773	52	31
232.883	233.773	56	39
232.883	233.773	62	40
233.308	233.773	71	42
233.773	234.198	66	55
234.198	234.441	68	54
234.403	235.489	69	47
234.628	235.489	50	37
234.628	237.183	52	44
234.628	235.489	59	30
234.628	235.478	64	36
234.628	235.489	68	55
235.053	235.489	71	51
235.478	236.329	49	42
235.478	237.183	64	55
235.904	236.329	69	56
236.329	236.71	47	53
236.329	236.71	68	52
236.329	236.71	71	62
236.745	237.147	45	56
236.745	237.147	69	57
236.745	237.147	73	67
237.183	238.046	44	43
237.183	238.885	52	51
237.183	238.885	64	48
237.183	238.046	71	51
237.183	238.046	76	61
238.034	238.885	45	43
238.034	238.885	69	54
238.034	238.885	73	63
238.885	239.31	73	72
239.31	239.552	74	71
239.515	239.738	76	69
239.738	240.614	46	36
239.738	240.598	54	43
239.738	240.614	61	51
239.738	240.598	66	54
239.738	240.16	73	54
239.738	240.614	78	69
240.16	240.614	73	62
240.598	241.449	47	33
240.598	241.449	54	39
240.598	241.449	59	48
240.598	241.449	66	43
240.598	241.449	71	51
240.598	241.449	74	62
241.449	241.874	74	75
241.874	242.117	76	73
242.079	242.302	78	69
242.302	243.171	48	37
242.302	243.163	56	44
242.302	243.171	63	54
242.302	243.163	68	47
242.302	242.724	75	56
242.302	243.171	80	71
242.724	243.171	75	66
243.163	244.013	49	34
243.163	244.013	56	40
243.163	244.013	61	50
243.163	244.013	68	45
243.163	244.013	73	54
243.163	244.013	76	65
244.013	244.424	76	73
244.424	244.666	78	68
244.63	244.851	80	64
244.851	245.246	81	71
245.282	245.678	80	62
245.714	246.101	78	65
246.136	246.541	76	59
246.577	248.34	54	56
246.577	247.006	57	64
246.577	246.97	74	63
247.006	247.257	59	61
247.006	248.34	69	63
247.22	247.441	61	58
247.441	248.34	62	61
247.872	248.34	61	58
247.872	248.768	81	69
248.327	249.219	53	52
248.327	248.731	59	61
248.768	249.642	57	56
248.768	249.219	63	52
248.768	249.219	72	52
248.768	249.219	75	52
249.219	249.642	52	50
249.219	249.642	64	60
249.219	249.642	73	60
249.219	249.642	76	60
249.642	249.89	66	52
249.853	250.074	68	45
250.074	250.967	69	52
250.499	250.967	57	45
250.499	251.846	59	36
250.499	251.846	62	36
250.499	252.269	64	42
250.954	251.846	52	42
250.954	251.846	55	48
251.395	251.846	56	45
251.846	252.269	40	38
251.846	252.269	57	41
251.846	252.269	61	41
252.269	252.517	66	42
252.48	252.7	68	38
252.7	253.59	69	42
253.126	253.59	57	38
253.126	254.466	59	29
253.126	254.466	62	29
253.126	254.889	64	36
253.581	254.466	52	36
253.581	254.466	55	40
254.015	254.466	56	38
254.466	254.889	40	38
254.466	254.889	57	40
254.466	254.889	61	41
254.889	255.137	66	52
255.1	255.321	68	45
255.321	256.209	69	52
255.746	256.209	54	45
255.746	256.622	57	36
255.746	257.074	61	36
255.969	256.227	53	39
256.191	257.074	52	48
256.622	257.074	42	42
256.622	257.973	51	39
256.622	257.52	57	39
256.622	257.973	60	39
256.848	257.11	41	39
257.074	259.785	40	48
257.52	257.973	52	36
257.52	257.973	57	36
257.52	257.973	61	42
257.954	259.785	54	33
257.954	259.308	56	39
257.954	259.785	62	46
258.857	259.785	52	42
259.308	259.785	51	41
259.308	259.785	56	41
259.759	260.746	33	31
259.92	260.746	40	31
260.082	260.746	45	30
260.243	260.746	49	38
260.404	260.746	52	34
260.565	260.746	57	36
260.727	261.205	51	39
260.883	261.205	52	34
261.039	261.205	57	34
261.193	261.68	60	38
261.347	261.68	61	34
261.5	261.68	64	34
261.651	263.512	69	45
262.584	265.384	53	31
262.584	265.384	57	34
262.584	265.384	60	33
263.493	265.384	67	44
263.938	265.384	65	41
264.406	265.384	64	44
264.857	265.384	63	40
265.366	266.326	45	31
265.525	266.326	52	31
265.683	266.326	57	30
265.842	266.326	61	38
266.001	266.326	64	34
266.16	266.326	69	36
266.318	266.808	63	39
266.477	266.808	64	34
266.635	266.808	69	34
266.792	267.267	72	38
266.948	267.267	73	34
267.102	267.267	76	34
267.255	269.14	81	49
268.206	270.987	65	31
268.206	270.987	69	34
268.206	270.987	72	33
269.122	270.987	79	44
269.566	270.987	77	41
270.039	270.987	76	44
270.497	270.987	75	40
271.129	271.943	57	28
271.289	271.943	64	27
271.449	271.943	69	33
271.609	271.943	73	30
271.769	271.943	75	31
271.929	272.417	78	34
272.089	272.417	76	30
272.249	272.417	73	30
272.409	272.895	81	33
272.566	272.895	85	30
272.725	272.895	88	30
272.883	273.388	92	33
273.043	273.388	93	30
273.204	273.388	97	30
273.366	281.701	100	36
273.902	275.023	81	25
273.902	275.023	85	25
273.902	275.023	88	29
273.902	275.023	93	29
275.023	276.145	81	26
275.023	276.145	85	26
275.023	276.145	88	29
275.023	276.145	93	29
276.145	277.321	81	26
276.145	277.321	85	26
276.145	277.321	88	29
276.145	277.321	93	29
277.321	281.701	81	25
277.321	281.701	85	25
277.321	281.701	88	28
277.321	281.701	93	28
